tick,type,time,meta,track,numerator,denominator,clocks_per_click,notated_32nd_notes_per_beat,key,tempo,port,program,channel,note,velocity
0,text,0,1,0,,,,,,,,,,,
0,midi_port,0,1,4,,,,,,,0,,,,
0,midi_port,0,1,12,,,,,,,0,,,,
0,track_name,0,1,12,,,,,,,,,,,
0,program_change,0,0,12,,,,,,,,52,12,,
0,program_change,0,0,3,,,,,,,,47,1,,
0,track_name,0,1,3,,,,,,,,,,,
0,midi_port,0,1,3,,,,,,,0,,,,
0,midi_port,0,1,13,,,,,,,0,,,,
0,track_name,0,1,13,,,,,,,,,,,
0,program_change,0,0,13,,,,,,,,52,13,,
0,midi_port,0,1,14,,,,,,,0,,,,
0,track_name,0,1,14,,,,,,,,,,,
0,program_change,0,0,14,,,,,,,,19,14,,
0,midi_port,0,1,15,,,,,,,0,,,,
0,track_name,0,1,15,,,,,,,,,,,
0,program_change,0,0,15,,,,,,,,73,2,,
0,midi_port,0,1,16,,,,,,,0,,,,
0,track_name,0,1,4,,,,,,,,,,,
0,program_change,0,0,4,,,,,,,,68,3,,
0,track_name,0,1,6,,,,,,,,,,,
0,program_change,0,0,11,,,,,,,,52,11,,
0,program_change,0,0,6,,,,,,,,48,5,,
0,program_change,0,0,5,,,,,,,,70,4,,
0,track_name,0,1,5,,,,,,,,,,,
0,midi_port,0,1,5,,,,,,,0,,,,
0,midi_port,0,1,7,,,,,,,0,,,,
0,track_name,0,1,7,,,,,,,,,,,
0,program_change,0,0,7,,,,,,,,48,6,,
0,midi_port,0,1,8,,,,,,,0,,,,
0,track_name,0,1,16,,,,,,,,,,,
0,track_name,0,1,8,,,,,,,,,,,
0,midi_port,0,1,9,,,,,,,0,,,,
0,track_name,0,1,9,,,,,,,,,,,
0,program_change,0,0,9,,,,,,,,48,8,,
0,midi_port,0,1,10,,,,,,,0,,,,
0,track_name,0,1,10,,,,,,,,,,,
0,program_change,0,0,10,,,,,,,,52,10,,
0,midi_port,0,1,11,,,,,,,0,,,,
0,track_name,0,1,11,,,,,,,,,,,
0,program_change,0,0,8,,,,,,,,48,7,,
0,program_change,0,0,16,,,,,,,,68,3,,
0,midi_port,0,1,6,,,,,,,0,,,,
0,track_name,0,1,2,,,,,,,,,,,
0,midi_port,0,1,1,,,,,,,0,,,,
0,midi_port,0,1,2,,,,,,,0,,,,
0,track_name,0,1,1,,,,,,,,,,,
0,program_change,0,0,2,,,,,,,,56,0,,
0,program_change,0,0,1,,,,,,,,73,2,,
0,time_signature,0,1,0,4,2,48,8,,,,,,,
0,key_signature,0,1,0,,,,,D,,,,,,
0,set_tempo,0,1,0,,,,,,625000,,,,,
960,set_tempo,960,1,0,,,,,,428571,,,,,
1200,note_on,1200,0,9,,,,,,,,,8,50,40
1200,note_on,1200,0,14,,,,,,,,,14,50,40
1200,note_on,1200,0,13,,,,,,,,,13,50,40
1200,note_on,1200,0,5,,,,,,,,,4,50,40
1440,note_on,240,0,5,,,,,,,,,4,50,0
1440,note_on,0,0,9,,,,,,,,,8,52,40
1440,note_on,240,0,9,,,,,,,,,8,50,0
1440,note_on,0,0,14,,,,,,,,,14,52,40
1440,note_on,240,0,13,,,,,,,,,13,50,0
1440,note_on,0,0,5,,,,,,,,,4,52,40
1440,note_on,0,0,13,,,,,,,,,13,52,40
1440,note_on,240,0,14,,,,,,,,,14,50,0
1680,note_on,240,0,14,,,,,,,,,14,52,0
1680,note_on,0,0,14,,,,,,,,,14,54,40
1680,note_on,0,0,5,,,,,,,,,4,54,40
1680,note_on,240,0,5,,,,,,,,,4,52,0
1680,note_on,0,0,9,,,,,,,,,8,54,40
1680,note_on,240,0,9,,,,,,,,,8,52,0
1680,note_on,1680,0,8,,,,,,,,,7,57,40
1680,note_on,240,0,13,,,,,,,,,13,52,0
1680,note_on,0,0,13,,,,,,,,,13,54,40
1680,note_on,1680,0,12,,,,,,,,,12,57,40
1920,note_on,0,0,5,,,,,,,,,4,55,40
1920,note_on,240,0,5,,,,,,,,,4,54,0
1920,note_on,0,0,14,,,,,,,,,14,55,40
1920,note_on,240,0,14,,,,,,,,,14,54,0
1920,note_on,0,0,13,,,,,,,,,13,55,40
1920,note_on,240,0,8,,,,,,,,,7,57,0
1920,note_on,240,0,9,,,,,,,,,8,54,0
1920,note_on,0,0,9,,,,,,,,,8,55,40
1920,note_on,240,0,13,,,,,,,,,13,54,0
1920,note_on,0,0,8,,,,,,,,,7,59,40
1920,note_on,0,0,12,,,,,,,,,12,59,40
1920,note_on,240,0,12,,,,,,,,,12,57,0
2160,note_on,0,0,12,,,,,,,,,12,61,40
2160,note_on,0,0,8,,,,,,,,,7,61,40
2160,note_on,240,0,8,,,,,,,,,7,59,0
2160,note_on,0,0,14,,,,,,,,,14,54,40
2160,note_on,240,0,12,,,,,,,,,12,59,0
2160,note_on,0,0,5,,,,,,,,,4,54,40
2160,note_on,240,0,13,,,,,,,,,13,55,0
2160,note_on,0,0,13,,,,,,,,,13,54,40
2160,note_on,240,0,14,,,,,,,,,14,55,0
2160,note_on,240,0,5,,,,,,,,,4,55,0
2160,note_on,240,0,9,,,,,,,,,8,55,0
2160,note_on,0,0,9,,,,,,,,,8,54,40
2280,note_on,0,0,14,,,,,,,,,14,52,40
2280,note_on,0,0,13,,,,,,,,,13,52,40
2280,note_on,120,0,9,,,,,,,,,8,54,0
2280,note_on,120,0,5,,,,,,,,,4,54,0
2280,note_on,0,0,5,,,,,,,,,4,52,40
2280,note_on,120,0,13,,,,,,,,,13,54,0
2280,note_on,0,0,9,,,,,,,,,8,52,40
2280,note_on,120,0,14,,,,,,,,,14,54,0
2400,note_on,0,0,14,,,,,,,,,14,54,40
2400,note_on,120,0,14,,,,,,,,,14,52,0
2400,note_on,0,0,12,,,,,,,,,12,62,40
2400,note_on,240,0,8,,,,,,,,,7,61,0
2400,note_on,0,0,13,,,,,,,,,13,54,40
2400,note_on,240,0,12,,,,,,,,,12,61,0
2400,note_on,120,0,5,,,,,,,,,4,52,0
2400,note_on,0,0,5,,,,,,,,,4,54,40
2400,note_on,0,0,9,,,,,,,,,8,54,40
2400,note_on,120,0,9,,,,,,,,,8,52,0
2400,note_on,120,0,13,,,,,,,,,13,52,0
2400,note_on,0,0,8,,,,,,,,,7,62,40
2520,note_on,120,0,13,,,,,,,,,13,54,0
2520,note_on,0,0,5,,,,,,,,,4,50,40
2520,note_on,0,0,13,,,,,,,,,13,50,40
2520,note_on,0,0,14,,,,,,,,,14,50,40
2520,note_on,120,0,14,,,,,,,,,14,54,0
2520,note_on,120,0,5,,,,,,,,,4,54,0
2520,note_on,120,0,9,,,,,,,,,8,54,0
2520,note_on,0,0,9,,,,,,,,,8,50,40
2640,note_on,120,0,13,,,,,,,,,13,50,0
2640,note_on,0,0,13,,,,,,,,,13,55,40
2640,note_on,0,0,9,,,,,,,,,8,55,40
2640,note_on,120,0,9,,,,,,,,,8,50,0
2640,note_on,0,0,8,,,,,,,,,7,61,40
2640,note_on,2640,0,11,,,,,,,,,11,62,40
2640,note_on,240,0,12,,,,,,,,,12,62,0
2640,note_on,120,0,14,,,,,,,,,14,50,0
2640,note_on,0,0,14,,,,,,,,,14,55,40
2640,note_on,240,0,8,,,,,,,,,7,62,0
2640,note_on,0,0,12,,,,,,,,,12,61,40
2640,note_on,2640,0,4,,,,,,,,,3,62,40
2640,note_on,0,0,5,,,,,,,,,4,55,40
2640,note_on,120,0,5,,,,,,,,,4,50,0
2640,note_on,2640,0,7,,,,,,,,,6,62,40
2760,note_on,0,0,12,,,,,,,,,12,59,40
2760,note_on,120,0,12,,,,,,,,,12,61,0
2760,note_on,120,0,8,,,,,,,,,7,61,0
2760,note_on,0,0,8,,,,,,,,,7,59,40
2880,note_on,120,0,8,,,,,,,,,7,59,0
2880,note_on,0,0,4,,,,,,,,,3,64,40
2880,note_on,0,0,12,,,,,,,,,12,61,40
2880,note_on,120,0,12,,,,,,,,,12,59,0
2880,note_on,240,0,4,,,,,,,,,3,62,0
2880,note_on,0,0,7,,,,,,,,,6,64,40
2880,note_on,0,0,11,,,,,,,,,11,64,40
2880,note_on,240,0,11,,,,,,,,,11,62,0
2880,note_on,240,0,7,,,,,,,,,6,62,0
2880,note_on,0,0,8,,,,,,,,,7,61,40
3000,note_on,0,0,12,,,,,,,,,12,57,40
3000,note_on,120,0,12,,,,,,,,,12,61,0
3000,note_on,0,0,8,,,,,,,,,7,57,40
3000,note_on,120,0,8,,,,,,,,,7,61,0
3120,note_on,480,0,5,,,,,,,,,4,55,0
3120,note_on,480,0,14,,,,,,,,,14,55,0
3120,note_on,0,0,12,,,,,,,,,12,62,40
3120,note_on,3120,0,6,,,,,,,,,5,69,40
3120,note_on,0,0,14,,,,,,,,,14,54,40
3120,note_on,3120,0,10,,,,,,,,,10,69,40
3120,note_on,480,0,13,,,,,,,,,13,55,0
3120,note_on,0,0,13,,,,,,,,,13,54,40
3120,note_on,0,0,11,,,,,,,,,11,66,40
3120,note_on,240,0,4,,,,,,,,,3,64,0
3120,note_on,0,0,4,,,,,,,,,3,66,40
3120,note_on,120,0,12,,,,,,,,,12,57,0
3120,note_on,480,0,9,,,,,,,,,8,55,0
3120,note_on,0,0,5,,,,,,,,,4,54,40
3120,note_on,0,0,8,,,,,,,,,7,62,40
3120,note_on,120,0,8,,,,,,,,,7,57,0
3120,note_on,3120,0,15,,,,,,,,,2,69,40
3120,note_on,240,0,7,,,,,,,,,6,64,0
3120,note_on,0,0,7,,,,,,,,,6,66,40
3120,note_on,240,0,11,,,,,,,,,11,64,0
3120,note_on,0,0,9,,,,,,,,,8,54,40
3120,note_on,3120,0,16,,,,,,,,,3,69,40
3240,note_on,120,0,13,,,,,,,,,13,54,0
3240,note_on,0,0,13,,,,,,,,,13,54,40
3360,note_on,0,0,4,,,,,,,,,3,67,40
3360,note_on,0,0,9,,,,,,,,,8,52,40
3360,note_on,0,0,5,,,,,,,,,4,52,40
3360,note_on,240,0,5,,,,,,,,,4,54,0
3360,note_on,0,0,13,,,,,,,,,13,52,40
3360,note_on,240,0,4,,,,,,,,,3,66,0
3360,note_on,0,0,10,,,,,,,,,10,71,40
3360,note_on,240,0,10,,,,,,,,,10,69,0
3360,note_on,120,0,13,,,,,,,,,13,54,0
3360,note_on,240,0,9,,,,,,,,,8,54,0
3360,note_on,240,0,6,,,,,,,,,5,69,0
3360,note_on,0,0,6,,,,,,,,,5,71,40
3360,note_on,240,0,11,,,,,,,,,11,66,0
3360,note_on,0,0,11,,,,,,,,,11,67,40
3360,note_on,0,0,15,,,,,,,,,2,71,40
3360,note_on,240,0,16,,,,,,,,,3,69,0
3360,note_on,240,0,14,,,,,,,,,14,54,0
3360,note_on,0,0,14,,,,,,,,,14,52,40
3360,note_on,240,0,15,,,,,,,,,2,69,0
3360,note_on,0,0,16,,,,,,,,,3,71,40
3360,note_on,240,0,7,,,,,,,,,6,66,0
3360,note_on,0,0,7,,,,,,,,,6,67,40
3600,note_on,240,0,4,,,,,,,,,3,67,0
3600,note_on,0,0,10,,,,,,,,,10,73,40
3600,note_on,0,0,11,,,,,,,,,11,66,40
3600,note_on,240,0,11,,,,,,,,,11,67,0
3600,note_on,240,0,10,,,,,,,,,10,71,0
3600,note_on,0,0,4,,,,,,,,,3,66,40
3600,note_on,240,0,7,,,,,,,,,6,67,0
3600,note_on,480,0,12,,,,,,,,,12,62,0
3600,note_on,0,0,7,,,,,,,,,6,66,40
3600,note_on,0,0,12,,,,,,,,,12,61,40
3600,note_on,0,0,16,,,,,,,,,3,73,40
3600,note_on,240,0,16,,,,,,,,,3,71,0
3600,note_on,0,0,6,,,,,,,,,5,73,40
3600,note_on,0,0,15,,,,,,,,,2,73,40
3600,note_on,240,0,15,,,,,,,,,2,71,0
3600,note_on,240,0,6,,,,,,,,,5,71,0
3600,note_on,480,0,8,,,,,,,,,7,62,0
3600,note_on,0,0,8,,,,,,,,,7,61,40
3720,note_on,120,0,7,,,,,,,,,6,66,0
3720,note_on,0,0,7,,,,,,,,,6,64,40
3720,note_on,120,0,11,,,,,,,,,11,66,0
3720,note_on,0,0,12,,,,,,,,,12,61,40
3720,note_on,0,0,4,,,,,,,,,3,64,40
3720,note_on,120,0,4,,,,,,,,,3,66,0
3720,note_on,120,0,12,,,,,,,,,12,61,0
3720,note_on,0,0,11,,,,,,,,,11,64,40
3840,note_on,240,0,6,,,,,,,,,5,73,0
3840,note_on,0,0,10,,,,,,,,,10,74,40
3840,note_on,240,0,10,,,,,,,,,10,73,0
3840,note_on,240,0,16,,,,,,,,,3,73,0
3840,note_on,0,0,6,,,,,,,,,5,74,40
3840,note_on,0,0,13,,,,,,,,,13,50,40
3840,note_on,480,0,13,,,,,,,,,13,52,0
3840,note_on,480,0,5,,,,,,,,,4,52,0
3840,note_on,0,0,11,,,,,,,,,11,66,40
3840,note_on,120,0,7,,,,,,,,,6,64,0
3840,note_on,0,0,7,,,,,,,,,6,66,40
3840,note_on,240,0,8,,,,,,,,,7,61,0
3840,note_on,0,0,8,,,,,,,,,7,59,40
3840,note_on,0,0,14,,,,,,,,,14,50,40
3840,note_on,480,0,14,,,,,,,,,14,52,0
3840,note_on,240,0,15,,,,,,,,,2,73,0
3840,note_on,0,0,15,,,,,,,,,2,74,40
3840,note_on,120,0,11,,,,,,,,,11,64,0
3840,note_on,120,0,12,,,,,,,,,12,61,0
3840,note_on,0,0,12,,,,,,,,,12,59,40
3840,note_on,0,0,5,,,,,,,,,4,50,40
3840,note_on,120,0,4,,,,,,,,,3,64,0
3840,note_on,0,0,4,,,,,,,,,3,66,40
3840,note_on,0,0,16,,,,,,,,,3,74,40
3840,note_on,480,0,9,,,,,,,,,8,52,0
3840,note_on,0,0,9,,,,,,,,,8,50,40
3960,note_on,0,0,4,,,,,,,,,3,62,40
3960,note_on,120,0,11,,,,,,,,,11,66,0
3960,note_on,0,0,11,,,,,,,,,11,62,40
3960,note_on,120,0,7,,,,,,,,,6,66,0
3960,note_on,0,0,7,,,,,,,,,6,62,40
3960,note_on,120,0,4,,,,,,,,,3,66,0
4080,note_on,0,0,16,,,,,,,,,3,73,40
4080,note_on,120,0,7,,,,,,,,,6,62,0
4080,note_on,0,0,7,,,,,,,,,6,67,40
4080,note_on,120,0,11,,,,,,,,,11,62,0
4080,note_on,0,0,11,,,,,,,,,11,67,40
4080,note_on,0,0,4,,,,,,,,,3,67,40
4080,note_on,0,0,10,,,,,,,,,10,73,40
4080,note_on,240,0,10,,,,,,,,,10,74,0
4080,note_on,240,0,6,,,,,,,,,5,74,0
4080,note_on,0,0,6,,,,,,,,,5,73,40
4080,note_on,120,0,4,,,,,,,,,3,62,0
4080,note_on,0,0,15,,,,,,,,,2,73,40
4080,note_on,240,0,16,,,,,,,,,3,74,0
4080,note_on,240,0,15,,,,,,,,,2,74,0
4200,note_on,120,0,16,,,,,,,,,3,73,0
4200,note_on,0,0,10,,,,,,,,,10,71,40
4200,note_on,0,0,15,,,,,,,,,2,71,40
4200,note_on,120,0,10,,,,,,,,,10,73,0
4200,note_on,0,0,16,,,,,,,,,3,71,40
4200,note_on,0,0,6,,,,,,,,,5,71,40
4200,note_on,120,0,6,,,,,,,,,5,73,0
4200,note_on,120,0,15,,,,,,,,,2,73,0
4320,note_on,120,0,16,,,,,,,,,3,71,0
4320,note_on,480,0,12,,,,,,,,,12,59,0
4320,note_on,0,0,12,,,,,,,,,12,57,40
4320,note_on,0,0,16,,,,,,,,,3,73,40
4320,note_on,0,0,10,,,,,,,,,10,73,40
4320,note_on,0,0,15,,,,,,,,,2,73,40
4320,note_on,480,0,8,,,,,,,,,7,59,0
4320,note_on,0,0,8,,,,,,,,,7,57,40
4320,note_on,0,0,14,,,,,,,,,14,57,40
4320,note_on,0,0,9,,,,,,,,,8,57,40
4320,note_on,120,0,15,,,,,,,,,2,71,0
4320,note_on,0,0,6,,,,,,,,,5,73,40
4320,note_on,120,0,10,,,,,,,,,10,71,0
4320,note_on,120,0,6,,,,,,,,,5,71,0
4320,note_on,480,0,13,,,,,,,,,13,50,0
4320,note_on,480,0,5,,,,,,,,,4,50,0
4320,note_on,480,0,9,,,,,,,,,8,50,0
4320,note_on,480,0,14,,,,,,,,,14,50,0
4440,note_on,0,0,10,,,,,,,,,10,69,40
4440,note_on,120,0,10,,,,,,,,,10,73,0
4440,note_on,120,0,6,,,,,,,,,5,73,0
4440,note_on,120,0,15,,,,,,,,,2,73,0
4440,note_on,0,0,16,,,,,,,,,3,69,40
4440,note_on,120,0,16,,,,,,,,,3,73,0
4440,note_on,0,0,6,,,,,,,,,5,69,40
4440,note_on,0,0,15,,,,,,,,,2,69,40
4560,note_on,480,0,4,,,,,,,,,3,67,0
4560,note_on,120,0,6,,,,,,,,,5,69,0
4560,note_on,0,0,6,,,,,,,,,5,74,40
4560,note_on,0,0,4,,,,,,,,,3,66,40
4560,note_on,480,0,11,,,,,,,,,11,67,0
4560,note_on,0,0,11,,,,,,,,,11,66,40
4560,note_on,0,0,15,,,,,,,,,2,74,40
4560,note_on,120,0,10,,,,,,,,,10,69,0
4560,note_on,120,0,16,,,,,,,,,3,69,0
4560,note_on,0,0,10,,,,,,,,,10,74,40
4560,note_on,0,0,16,,,,,,,,,3,74,40
4560,note_on,120,0,15,,,,,,,,,2,69,0
4560,note_on,480,0,7,,,,,,,,,6,67,0
4560,note_on,0,0,7,,,,,,,,,6,66,40
4680,note_on,0,0,11,,,,,,,,,11,66,40
4680,note_on,120,0,11,,,,,,,,,11,66,0
4800,note_on,480,0,12,,,,,,,,,12,57,0
4800,note_on,480,0,8,,,,,,,,,7,57,0
4800,note_on,480,0,14,,,,,,,,,14,57,0
4800,note_on,120,0,11,,,,,,,,,11,66,0
4800,note_on,240,0,4,,,,,,,,,3,66,0
4800,note_on,0,0,4,,,,,,,,,3,64,40
4800,note_on,240,0,7,,,,,,,,,6,66,0
4800,note_on,0,0,11,,,,,,,,,11,64,40
4800,note_on,480,0,9,,,,,,,,,8,57,0
4800,note_on,0,0,9,,,,,,,,,8,64,40
4800,note_on,0,0,14,,,,,,,,,14,64,40
4800,note_on,0,0,7,,,,,,,,,6,64,40
5040,note_on,240,0,14,,,,,,,,,14,64,0
5040,note_on,0,0,14,,,,,,,,,14,57,66
5040,note_on,480,0,16,,,,,,,,,3,74,0
5040,note_on,0,0,16,,,,,,,,,3,73,40
5040,note_on,480,0,6,,,,,,,,,5,74,0
5040,note_on,0,0,15,,,,,,,,,2,73,40
5040,note_on,720,0,5,,,,,,,,,4,57,66
5040,note_on,0,0,6,,,,,,,,,5,73,40
5040,note_on,0,0,10,,,,,,,,,10,73,40
5040,note_on,480,0,10,,,,,,,,,10,74,0
5040,note_on,720,0,13,,,,,,,,,13,57,66
5040,note_on,0,0,9,,,,,,,,,8,57,66
5040,note_on,240,0,9,,,,,,,,,8,64,0
5040,note_on,480,0,15,,,,,,,,,2,74,0
5160,note_on,0,0,10,,,,,,,,,10,73,40
5160,note_on,120,0,10,,,,,,,,,10,73,0
5280,note_on,0,0,11,,,,,,,,,11,62,40
5280,note_on,0,0,4,,,,,,,,,3,62,40
5280,note_on,480,0,7,,,,,,,,,6,64,0
5280,note_on,0,0,7,,,,,,,,,6,62,40
5280,note_on,480,0,4,,,,,,,,,3,64,0
5280,note_on,0,0,10,,,,,,,,,10,71,40
5280,note_on,240,0,6,,,,,,,,,5,73,0
5280,note_on,0,0,6,,,,,,,,,5,71,40
5280,note_on,480,0,11,,,,,,,,,11,64,0
5280,note_on,120,0,10,,,,,,,,,10,73,0
5280,note_on,0,0,16,,,,,,,,,3,71,40
5280,note_on,240,0,16,,,,,,,,,3,73,0
5280,note_on,240,0,15,,,,,,,,,2,73,0
5280,note_on,0,0,15,,,,,,,,,2,71,40
5400,note_on,0,0,13,,,,,,,,,13,57,40
5400,note_on,0,0,14,,,,,,,,,14,57,40
5400,note_on,360,0,14,,,,,,,,,14,57,0
5400,note_on,0,0,5,,,,,,,,,4,57,40
5400,note_on,0,0,9,,,,,,,,,8,57,40
5400,note_on,360,0,9,,,,,,,,,8,57,0
5400,note_on,360,0,13,,,,,,,,,13,57,0
5400,note_on,360,0,5,,,,,,,,,4,57,0
5520,note_on,120,0,9,,,,,,,,,8,57,0
5520,note_on,0,0,5,,,,,,,,,4,56,40
5520,note_on,0,0,14,,,,,,,,,14,56,40
5520,note_on,120,0,14,,,,,,,,,14,57,0
5520,note_on,720,0,12,,,,,,,,,12,62,66
5520,note_on,0,0,9,,,,,,,,,8,56,40
5520,note_on,120,0,13,,,,,,,,,13,57,0
5520,note_on,720,0,8,,,,,,,,,7,62,66
5520,note_on,120,0,5,,,,,,,,,4,57,0
5520,note_on,0,0,13,,,,,,,,,13,56,40
5640,note_on,0,0,9,,,,,,,,,8,56,40
5640,note_on,0,0,5,,,,,,,,,4,56,40
5640,note_on,120,0,5,,,,,,,,,4,56,0
5640,note_on,0,0,14,,,,,,,,,14,56,40
5640,note_on,120,0,13,,,,,,,,,13,56,0
5640,note_on,120,0,14,,,,,,,,,14,56,0
5640,note_on,0,0,13,,,,,,,,,13,56,40
5640,note_on,120,0,9,,,,,,,,,8,56,0
5760,note_on,0,0,16,,,,,,,,,3,69,40
5760,note_on,480,0,10,,,,,,,,,10,71,0
5760,note_on,0,0,10,,,,,,,,,10,69,40
5760,note_on,0,0,14,,,,,,,,,14,57,40
5760,note_on,480,0,6,,,,,,,,,5,71,0
5760,note_on,480,0,4,,,,,,,,,3,62,0
5760,note_on,0,0,9,,,,,,,,,8,57,40
5760,note_on,120,0,9,,,,,,,,,8,56,0
5760,note_on,120,0,14,,,,,,,,,14,56,0
5760,note_on,480,0,16,,,,,,,,,3,71,0
5760,note_on,0,0,6,,,,,,,,,5,69,40
5760,note_on,0,0,15,,,,,,,,,2,69,40
5760,note_on,120,0,13,,,,,,,,,13,56,0
5760,note_on,0,0,13,,,,,,,,,13,57,40
5760,note_on,480,0,7,,,,,,,,,6,62,0
5760,note_on,120,0,5,,,,,,,,,4,56,0
5760,note_on,0,0,5,,,,,,,,,4,57,40
5760,note_on,480,0,15,,,,,,,,,2,71,0
5760,note_on,480,0,11,,,,,,,,,11,62,0
5880,note_on,0,0,5,,,,,,,,,4,55,40
5880,note_on,0,0,12,,,,,,,,,12,62,40
5880,note_on,360,0,12,,,,,,,,,12,62,0
5880,note_on,0,0,9,,,,,,,,,8,55,40
5880,note_on,0,0,13,,,,,,,,,13,55,40
5880,note_on,120,0,13,,,,,,,,,13,57,0
5880,note_on,120,0,9,,,,,,,,,8,57,0
5880,note_on,360,0,8,,,,,,,,,7,62,0
5880,note_on,0,0,8,,,,,,,,,7,62,40
5880,note_on,0,0,14,,,,,,,,,14,55,40
5880,note_on,120,0,14,,,,,,,,,14,57,0
5880,note_on,120,0,5,,,,,,,,,4,57,0
5940,note_on,60,0,5,,,,,,,,,4,55,0
5940,note_on,0,0,5,,,,,,,,,4,54,40
5940,note_on,60,0,9,,,,,,,,,8,55,0
5940,note_on,60,0,14,,,,,,,,,14,55,0
5940,note_on,0,0,14,,,,,,,,,14,54,40
5940,note_on,60,0,13,,,,,,,,,13,55,0
5940,note_on,0,0,9,,,,,,,,,8,54,40
5940,note_on,0,0,13,,,,,,,,,13,54,40
6000,note_on,120,0,8,,,,,,,,,7,62,0
6000,note_on,0,0,5,,,,,,,,,4,52,40
6000,note_on,0,0,13,,,,,,,,,13,52,40
6000,note_on,60,0,13,,,,,,,,,13,54,0
6000,note_on,60,0,9,,,,,,,,,8,54,0
6000,note_on,0,0,12,,,,,,,,,12,61,40
6000,note_on,60,0,5,,,,,,,,,4,54,0
6000,note_on,120,0,12,,,,,,,,,12,62,0
6000,note_on,0,0,8,,,,,,,,,7,61,40
6000,note_on,0,0,14,,,,,,,,,14,52,40
6000,note_on,60,0,14,,,,,,,,,14,54,0
6000,note_on,0,0,9,,,,,,,,,8,52,40
6060,note_on,60,0,13,,,,,,,,,13,52,0
6060,note_on,60,0,5,,,,,,,,,4,52,0
6060,note_on,0,0,5,,,,,,,,,4,54,40
6060,note_on,60,0,9,,,,,,,,,8,52,0
6060,note_on,0,0,9,,,,,,,,,8,54,40
6060,note_on,0,0,14,,,,,,,,,14,54,40
6060,note_on,60,0,14,,,,,,,,,14,52,0
6060,note_on,0,0,13,,,,,,,,,13,54,40
6120,note_on,60,0,13,,,,,,,,,13,54,0
6120,note_on,0,0,13,,,,,,,,,13,50,40
6120,note_on,0,0,8,,,,,,,,,7,61,40
6120,note_on,120,0,8,,,,,,,,,7,61,0
6120,note_on,0,0,5,,,,,,,,,4,50,40
6120,note_on,60,0,14,,,,,,,,,14,54,0
6120,note_on,0,0,9,,,,,,,,,8,50,40
6120,note_on,60,0,5,,,,,,,,,4,54,0
6120,note_on,0,0,12,,,,,,,,,12,61,40
6120,note_on,120,0,12,,,,,,,,,12,61,0
6120,note_on,60,0,9,,,,,,,,,8,54,0
6120,note_on,0,0,14,,,,,,,,,14,50,40
6180,note_on,60,0,9,,,,,,,,,8,50,0
6180,note_on,60,0,13,,,,,,,,,13,50,0
6180,note_on,0,0,9,,,,,,,,,8,52,40
6180,note_on,0,0,13,,,,,,,,,13,52,40
6180,note_on,60,0,5,,,,,,,,,4,50,0
6180,note_on,0,0,14,,,,,,,,,14,52,40
6180,note_on,0,0,5,,,,,,,,,4,52,40
6180,note_on,60,0,14,,,,,,,,,14,50,0
6240,note_on,0,0,13,,,,,,,,,13,54,40
6240,note_on,60,0,13,,,,,,,,,13,52,0
6240,note_on,60,0,14,,,,,,,,,14,52,0
6240,note_on,120,0,8,,,,,,,,,7,61,0
6240,note_on,0,0,8,,,,,,,,,7,62,40
6240,note_on,480,0,15,,,,,,,,,2,69,0
6240,note_on,0,0,14,,,,,,,,,14,54,40
6240,note_on,480,0,6,,,,,,,,,5,69,0
6240,note_on,480,0,16,,,,,,,,,3,69,0
6240,note_on,0,0,12,,,,,,,,,12,62,40
6240,note_on,120,0,12,,,,,,,,,12,61,0
6240,note_on,0,0,9,,,,,,,,,8,54,40
6240,note_on,60,0,5,,,,,,,,,4,52,0
6240,note_on,0,0,5,,,,,,,,,4,54,40
6240,note_on,60,0,9,,,,,,,,,8,52,0
6240,note_on,480,0,10,,,,,,,,,10,69,0
6300,note_on,60,0,14,,,,,,,,,14,54,0
6300,note_on,0,0,9,,,,,,,,,8,52,40
6300,note_on,60,0,13,,,,,,,,,13,54,0
6300,note_on,0,0,13,,,,,,,,,13,52,40
6300,note_on,60,0,5,,,,,,,,,4,54,0
6300,note_on,0,0,5,,,,,,,,,4,52,40
6300,note_on,60,0,9,,,,,,,,,8,54,0
6300,note_on,0,0,14,,,,,,,,,14,52,40
6360,note_on,0,0,12,,,,,,,,,12,61,40
6360,note_on,0,0,14,,,,,,,,,14,54,40
6360,note_on,0,0,8,,,,,,,,,7,61,40
6360,note_on,120,0,8,,,,,,,,,7,62,0
6360,note_on,60,0,5,,,,,,,,,4,52,0
6360,note_on,0,0,5,,,,,,,,,4,54,40
6360,note_on,60,0,14,,,,,,,,,14,52,0
6360,note_on,60,0,9,,,,,,,,,8,52,0
6360,note_on,0,0,13,,,,,,,,,13,54,40
6360,note_on,60,0,13,,,,,,,,,13,52,0
6360,note_on,0,0,9,,,,,,,,,8,54,40
6360,note_on,120,0,12,,,,,,,,,12,62,0
6420,note_on,60,0,13,,,,,,,,,13,54,0
6420,note_on,60,0,9,,,,,,,,,8,54,0
6420,note_on,0,0,13,,,,,,,,,13,55,40
6420,note_on,0,0,14,,,,,,,,,14,55,40
6420,note_on,0,0,9,,,,,,,,,8,55,40
6420,note_on,60,0,14,,,,,,,,,14,54,0
6420,note_on,60,0,8,,,,,,,,,7,61,0
6420,note_on,60,0,12,,,,,,,,,12,61,0
6420,note_on,0,0,12,,,,,,,,,12,59,40
6420,note_on,0,0,8,,,,,,,,,7,59,40
6420,note_on,60,0,5,,,,,,,,,4,54,0
6420,note_on,0,0,5,,,,,,,,,4,55,40
6480,note_on,0,0,5,,,,,,,,,4,54,40
6480,note_on,60,0,14,,,,,,,,,14,55,0
6480,note_on,0,0,14,,,,,,,,,14,54,40
6480,note_on,0,0,9,,,,,,,,,8,54,40
6480,note_on,60,0,9,,,,,,,,,8,55,0
6480,note_on,60,0,8,,,,,,,,,7,59,0
6480,note_on,0,0,8,,,,,,,,,7,57,40
6480,note_on,60,0,5,,,,,,,,,4,55,0
6480,note_on,720,0,7,,,,,,,,,6,69,66
6480,note_on,720,0,11,,,,,,,,,11,69,66
6480,note_on,720,0,4,,,,,,,,,3,69,66
6480,note_on,0,0,12,,,,,,,,,12,57,40
6480,note_on,60,0,12,,,,,,,,,12,59,0
6480,note_on,60,0,13,,,,,,,,,13,55,0
6480,note_on,0,0,13,,,,,,,,,13,54,40
6540,note_on,0,0,5,,,,,,,,,4,55,40
6540,note_on,0,0,12,,,,,,,,,12,59,40
6540,note_on,60,0,12,,,,,,,,,12,57,0
6540,note_on,60,0,8,,,,,,,,,7,57,0
6540,note_on,0,0,9,,,,,,,,,8,55,40
6540,note_on,60,0,13,,,,,,,,,13,54,0
6540,note_on,0,0,13,,,,,,,,,13,55,40
6540,note_on,60,0,5,,,,,,,,,4,54,0
6540,note_on,0,0,8,,,,,,,,,7,59,40
6540,note_on,60,0,9,,,,,,,,,8,54,0
6540,note_on,0,0,14,,,,,,,,,14,55,40
6540,note_on,60,0,14,,,,,,,,,14,54,0
6600,note_on,0,0,14,,,,,,,,,14,54,40
6600,note_on,0,0,5,,,,,,,,,4,54,40
6600,note_on,60,0,14,,,,,,,,,14,55,0
6600,note_on,0,0,8,,,,,,,,,7,55,40
6600,note_on,60,0,12,,,,,,,,,12,59,0
6600,note_on,60,0,8,,,,,,,,,7,59,0
6600,note_on,0,0,13,,,,,,,,,13,54,40
6600,note_on,60,0,9,,,,,,,,,8,55,0
6600,note_on,0,0,9,,,,,,,,,8,54,40
6600,note_on,60,0,5,,,,,,,,,4,55,0
6600,note_on,60,0,13,,,,,,,,,13,55,0
6600,note_on,0,0,12,,,,,,,,,12,55,40
6660,note_on,60,0,9,,,,,,,,,8,54,0
6660,note_on,0,0,9,,,,,,,,,8,52,40
6660,note_on,0,0,5,,,,,,,,,4,52,40
6660,note_on,0,0,12,,,,,,,,,12,57,40
6660,note_on,60,0,5,,,,,,,,,4,54,0
6660,note_on,0,0,8,,,,,,,,,7,57,40
6660,note_on,60,0,8,,,,,,,,,7,55,0
6660,note_on,60,0,13,,,,,,,,,13,54,0
6660,note_on,0,0,13,,,,,,,,,13,52,40
6660,note_on,60,0,14,,,,,,,,,14,54,0
6660,note_on,0,0,14,,,,,,,,,14,52,40
6660,note_on,60,0,12,,,,,,,,,12,55,0
6720,note_on,60,0,9,,,,,,,,,8,52,0
6720,note_on,60,0,5,,,,,,,,,4,52,0
6720,note_on,0,0,8,,,,,,,,,7,59,40
6720,note_on,60,0,8,,,,,,,,,7,57,0
6720,note_on,0,0,9,,,,,,,,,8,50,40
6720,note_on,0,0,14,,,,,,,,,14,50,40
6720,note_on,60,0,12,,,,,,,,,12,57,0
6720,note_on,60,0,13,,,,,,,,,13,52,0
6720,note_on,60,0,14,,,,,,,,,14,52,0
6720,note_on,0,0,12,,,,,,,,,12,59,40
6720,note_on,0,0,5,,,,,,,,,4,50,40
6720,note_on,0,0,13,,,,,,,,,13,50,40
6780,note_on,60,0,8,,,,,,,,,7,59,0
6780,note_on,0,0,12,,,,,,,,,12,57,40
6780,note_on,60,0,12,,,,,,,,,12,59,0
6780,note_on,0,0,8,,,,,,,,,7,57,40
6840,note_on,360,0,4,,,,,,,,,3,69,0
6840,note_on,0,0,4,,,,,,,,,3,69,40
6840,note_on,120,0,14,,,,,,,,,14,50,0
6840,note_on,0,0,14,,,,,,,,,14,49,40
6840,note_on,120,0,13,,,,,,,,,13,50,0
6840,note_on,0,0,12,,,,,,,,,12,59,40
6840,note_on,60,0,12,,,,,,,,,12,57,0
6840,note_on,120,0,9,,,,,,,,,8,50,0
6840,note_on,360,0,7,,,,,,,,,6,69,0
6840,note_on,0,0,7,,,,,,,,,6,69,40
6840,note_on,360,0,11,,,,,,,,,11,69,0
6840,note_on,0,0,11,,,,,,,,,11,69,40
6840,note_on,60,0,8,,,,,,,,,7,57,0
6840,note_on,0,0,8,,,,,,,,,7,59,40
6840,note_on,0,0,5,,,,,,,,,4,49,40
6840,note_on,120,0,5,,,,,,,,,4,50,0
6840,note_on,0,0,13,,,,,,,,,13,49,40
6840,note_on,0,0,9,,,,,,,,,8,49,40
6900,note_on,60,0,14,,,,,,,,,14,49,0
6900,note_on,0,0,14,,,,,,,,,14,47,40
6900,note_on,0,0,5,,,,,,,,,4,47,40
6900,note_on,60,0,5,,,,,,,,,4,49,0
6900,note_on,60,0,13,,,,,,,,,13,49,0
6900,note_on,0,0,13,,,,,,,,,13,47,40
6900,note_on,60,0,9,,,,,,,,,8,49,0
6900,note_on,0,0,9,,,,,,,,,8,47,40
6900,note_on,0,0,12,,,,,,,,,12,61,40
6900,note_on,60,0,8,,,,,,,,,7,59,0
6900,note_on,60,0,12,,,,,,,,,12,59,0
6900,note_on,0,0,8,,,,,,,,,7,61,40
6960,note_on,0,0,4,,,,,,,,,3,68,47
6960,note_on,0,0,8,,,,,,,,,7,59,47
6960,note_on,60,0,8,,,,,,,,,7,61,0
6960,note_on,0,0,7,,,,,,,,,6,68,47
6960,note_on,120,0,7,,,,,,,,,6,69,0
6960,note_on,0,0,12,,,,,,,,,12,59,47
6960,note_on,60,0,12,,,,,,,,,12,61,0
6960,note_on,0,0,14,,,,,,,,,14,52,47
6960,note_on,60,0,14,,,,,,,,,14,47,0
6960,note_on,720,0,6,,,,,,,,,5,74,47
6960,note_on,120,0,4,,,,,,,,,3,69,0
6960,note_on,0,0,5,,,,,,,,,4,52,47
6960,note_on,60,0,5,,,,,,,,,4,47,0
6960,note_on,0,0,9,,,,,,,,,8,52,47
6960,note_on,60,0,9,,,,,,,,,8,47,0
6960,note_on,120,0,11,,,,,,,,,11,69,0
6960,note_on,0,0,11,,,,,,,,,11,68,47
6960,note_on,720,0,15,,,,,,,,,2,74,47
6960,note_on,720,0,10,,,,,,,,,10,74,47
6960,note_on,60,0,13,,,,,,,,,13,47,0
6960,note_on,720,0,16,,,,,,,,,3,74,47
6960,note_on,0,0,13,,,,,,,,,13,52,47
7020,note_on,0,0,8,,,,,,,,,7,62,40
7020,note_on,60,0,8,,,,,,,,,7,59,0
7020,note_on,60,0,12,,,,,,,,,12,59,0
7020,note_on,0,0,12,,,,,,,,,12,62,40
7080,note_on,0,0,11,,,,,,,,,11,68,40
7080,note_on,120,0,11,,,,,,,,,11,68,0
7080,note_on,60,0,8,,,,,,,,,7,62,0
7080,note_on,0,0,8,,,,,,,,,7,61,40
7080,note_on,120,0,7,,,,,,,,,6,68,0
7080,note_on,0,0,7,,,,,,,,,6,68,40
7080,note_on,60,0,12,,,,,,,,,12,62,0
7080,note_on,0,0,12,,,,,,,,,12,61,40
7080,note_on,0,0,4,,,,,,,,,3,68,40
7080,note_on,120,0,4,,,,,,,,,3,68,0
7140,note_on,60,0,12,,,,,,,,,12,61,0
7140,note_on,0,0,12,,,,,,,,,12,59,40
7140,note_on,60,0,8,,,,,,,,,7,61,0
7140,note_on,0,0,8,,,,,,,,,7,59,40
7200,note_on,240,0,13,,,,,,,,,13,52,0
7200,note_on,0,0,8,,,,,,,,,7,57,40
7200,note_on,0,0,5,,,,,,,,,4,45,40
7200,note_on,240,0,5,,,,,,,,,4,52,0
7200,note_on,120,0,4,,,,,,,,,3,68,0
7200,note_on,0,0,4,,,,,,,,,3,69,40
7200,note_on,60,0,8,,,,,,,,,7,59,0
7200,note_on,120,0,11,,,,,,,,,11,68,0
7200,note_on,60,0,12,,,,,,,,,12,59,0
7200,note_on,0,0,12,,,,,,,,,12,57,40
7200,note_on,0,0,14,,,,,,,,,14,45,40
7200,note_on,240,0,14,,,,,,,,,14,52,0
7200,note_on,0,0,11,,,,,,,,,11,69,40
7200,note_on,0,0,7,,,,,,,,,6,69,40
7200,note_on,120,0,7,,,,,,,,,6,68,0
7200,note_on,0,0,13,,,,,,,,,13,45,40
7200,note_on,0,0,9,,,,,,,,,8,45,40
7200,note_on,240,0,9,,,,,,,,,8,52,0
7320,note_on,120,0,4,,,,,,,,,3,69,0
7320,note_on,120,0,7,,,,,,,,,6,69,0
7320,note_on,0,0,11,,,,,,,,,11,67,40
7320,note_on,120,0,11,,,,,,,,,11,69,0
7320,note_on,120,0,12,,,,,,,,,12,57,0
7320,note_on,0,0,12,,,,,,,,,12,52,40
7320,note_on,0,0,4,,,,,,,,,3,67,40
7320,note_on,0,0,15,,,,,,,,,2,74,40
7320,note_on,360,0,15,,,,,,,,,2,74,0
7320,note_on,0,0,16,,,,,,,,,3,74,40
7320,note_on,0,0,8,,,,,,,,,7,52,40
7320,note_on,120,0,8,,,,,,,,,7,57,0
7320,note_on,0,0,6,,,,,,,,,5,74,40
7320,note_on,360,0,6,,,,,,,,,5,74,0
7320,note_on,0,0,7,,,,,,,,,6,67,40
7320,note_on,0,0,10,,,,,,,,,10,74,40
7320,note_on,360,0,10,,,,,,,,,10,74,0
7320,note_on,360,0,16,,,,,,,,,3,74,0
7380,note_on,60,0,4,,,,,,,,,3,67,0
7380,note_on,60,0,7,,,,,,,,,6,67,0
7380,note_on,0,0,7,,,,,,,,,6,66,40
7380,note_on,0,0,4,,,,,,,,,3,66,40
7380,note_on,0,0,11,,,,,,,,,11,66,40
7380,note_on,60,0,11,,,,,,,,,11,67,0
7380,note_on,60,0,12,,,,,,,,,12,52,0
7380,note_on,0,0,12,,,,,,,,,12,52,40
7440,note_on,0,0,11,,,,,,,,,11,64,40
7440,note_on,0,0,12,,,,,,,,,12,57,40
7440,note_on,120,0,10,,,,,,,,,10,74,0
7440,note_on,0,0,10,,,,,,,,,10,73,40
7440,note_on,240,0,9,,,,,,,,,8,45,0
7440,note_on,240,0,14,,,,,,,,,14,45,0
7440,note_on,120,0,6,,,,,,,,,5,74,0
7440,note_on,0,0,6,,,,,,,,,5,73,40
7440,note_on,0,0,14,,,,,,,,,14,57,40
7440,note_on,120,0,16,,,,,,,,,3,74,0
7440,note_on,0,0,8,,,,,,,,,7,57,40
7440,note_on,60,0,11,,,,,,,,,11,66,0
7440,note_on,60,0,12,,,,,,,,,12,52,0
7440,note_on,0,0,16,,,,,,,,,3,73,40
7440,note_on,60,0,4,,,,,,,,,3,66,0
7440,note_on,0,0,4,,,,,,,,,3,64,40
7440,note_on,0,0,15,,,,,,,,,2,73,40
7440,note_on,120,0,15,,,,,,,,,2,74,0
7440,note_on,60,0,7,,,,,,,,,6,66,0
7440,note_on,0,0,9,,,,,,,,,8,57,40
7440,note_on,120,0,8,,,,,,,,,7,52,0
7440,note_on,0,0,7,,,,,,,,,6,64,40
7500,note_on,60,0,7,,,,,,,,,6,64,0
7500,note_on,0,0,7,,,,,,,,,6,66,40
7500,note_on,0,0,11,,,,,,,,,11,66,40
7500,note_on,60,0,4,,,,,,,,,3,64,0
7500,note_on,0,0,4,,,,,,,,,3,66,40
7500,note_on,60,0,11,,,,,,,,,11,64,0
7560,note_on,0,0,16,,,,,,,,,3,73,40
7560,note_on,120,0,10,,,,,,,,,10,73,0
7560,note_on,0,0,10,,,,,,,,,10,73,40
7560,note_on,120,0,6,,,,,,,,,5,73,0
7560,note_on,120,0,16,,,,,,,,,3,73,0
7560,note_on,0,0,6,,,,,,,,,5,73,40
7560,note_on,60,0,7,,,,,,,,,6,66,0
7560,note_on,60,0,11,,,,,,,,,11,66,0
7560,note_on,0,0,11,,,,,,,,,11,62,40
7560,note_on,120,0,15,,,,,,,,,2,73,0
7560,note_on,0,0,7,,,,,,,,,6,62,40
7560,note_on,60,0,4,,,,,,,,,3,66,0
7560,note_on,0,0,4,,,,,,,,,3,62,40
7560,note_on,0,0,15,,,,,,,,,2,73,40
7620,note_on,60,0,11,,,,,,,,,11,62,0
7620,note_on,0,0,7,,,,,,,,,6,64,40
7620,note_on,60,0,7,,,,,,,,,6,62,0
7620,note_on,0,0,11,,,,,,,,,11,64,40
7620,note_on,60,0,4,,,,,,,,,3,62,0
7620,note_on,0,0,4,,,,,,,,,3,64,40
7680,note_on,0,0,12,,,,,,,,,12,50,40
7680,note_on,240,0,12,,,,,,,,,12,57,0
7680,note_on,120,0,10,,,,,,,,,10,73,0
7680,note_on,0,0,10,,,,,,,,,10,74,40
7680,note_on,60,0,4,,,,,,,,,3,64,0
7680,note_on,0,0,11,,,,,,,,,11,66,40
7680,note_on,0,0,6,,,,,,,,,5,74,40
7680,note_on,240,0,14,,,,,,,,,14,57,0
7680,note_on,0,0,14,,,,,,,,,14,62,40
7680,note_on,480,0,5,,,,,,,,,4,45,0
7680,note_on,60,0,11,,,,,,,,,11,64,0
7680,note_on,0,0,16,,,,,,,,,3,74,40
7680,note_on,0,0,15,,,,,,,,,2,74,40
7680,note_on,120,0,15,,,,,,,,,2,73,0
7680,note_on,0,0,4,,,,,,,,,3,66,40
7680,note_on,120,0,16,,,,,,,,,3,73,0
7680,note_on,120,0,6,,,,,,,,,5,73,0
7680,note_on,0,0,8,,,,,,,,,7,50,40
7680,note_on,0,0,9,,,,,,,,,8,62,40
7680,note_on,240,0,9,,,,,,,,,8,57,0
7680,note_on,60,0,7,,,,,,,,,6,64,0
7680,note_on,480,0,13,,,,,,,,,13,45,0
7680,note_on,0,0,7,,,,,,,,,6,66,40
7680,note_on,240,0,8,,,,,,,,,7,57,0
7740,note_on,60,0,4,,,,,,,,,3,66,0
7740,note_on,0,0,11,,,,,,,,,11,64,40
7740,note_on,0,0,4,,,,,,,,,3,64,40
7740,note_on,60,0,11,,,,,,,,,11,66,0
7740,note_on,0,0,7,,,,,,,,,6,64,40
7740,note_on,60,0,7,,,,,,,,,6,66,0
7800,note_on,60,0,11,,,,,,,,,11,64,0
7800,note_on,120,0,6,,,,,,,,,5,74,0
7800,note_on,0,0,11,,,,,,,,,11,66,40
7800,note_on,120,0,15,,,,,,,,,2,74,0
7800,note_on,0,0,7,,,,,,,,,6,66,40
7800,note_on,0,0,16,,,,,,,,,3,73,40
7800,note_on,0,0,10,,,,,,,,,10,73,40
7800,note_on,120,0,10,,,,,,,,,10,74,0
7800,note_on,0,0,6,,,,,,,,,5,73,40
7800,note_on,0,0,4,,,,,,,,,3,66,40
7800,note_on,60,0,4,,,,,,,,,3,64,0
7800,note_on,120,0,16,,,,,,,,,3,74,0
7800,note_on,60,0,7,,,,,,,,,6,64,0
7800,note_on,0,0,15,,,,,,,,,2,73,40
7860,note_on,60,0,7,,,,,,,,,6,66,0
7860,note_on,0,0,6,,,,,,,,,5,71,40
7860,note_on,60,0,6,,,,,,,,,5,73,0
7860,note_on,0,0,16,,,,,,,,,3,71,40
7860,note_on,60,0,16,,,,,,,,,3,73,0
7860,note_on,60,0,11,,,,,,,,,11,66,0
7860,note_on,0,0,11,,,,,,,,,11,67,40
7860,note_on,0,0,10,,,,,,,,,10,71,40
7860,note_on,60,0,10,,,,,,,,,10,73,0
7860,note_on,0,0,4,,,,,,,,,3,67,40
7860,note_on,60,0,4,,,,,,,,,3,66,0
7860,note_on,60,0,15,,,,,,,,,2,73,0
7860,note_on,0,0,15,,,,,,,,,2,71,40
7860,note_on,0,0,7,,,,,,,,,6,67,40
7920,note_on,0,0,9,,,,,,,,,8,50,50
7920,note_on,0,0,16,,,,,,,,,3,69,40
7920,note_on,0,0,7,,,,,,,,,6,66,40
7920,note_on,240,0,9,,,,,,,,,8,62,0
7920,note_on,60,0,16,,,,,,,,,3,71,0
7920,note_on,0,0,4,,,,,,,,,3,66,40
7920,note_on,60,0,4,,,,,,,,,3,67,0
7920,note_on,60,0,7,,,,,,,,,6,67,0
7920,note_on,240,0,14,,,,,,,,,14,62,0
7920,note_on,0,0,14,,,,,,,,,14,50,50
7920,note_on,0,0,6,,,,,,,,,5,69,40
7920,note_on,0,0,10,,,,,,,,,10,69,40
7920,note_on,0,0,11,,,,,,,,,11,66,40
7920,note_on,60,0,6,,,,,,,,,5,71,0
7920,note_on,60,0,10,,,,,,,,,10,71,0
7920,note_on,60,0,11,,,,,,,,,11,67,0
7920,note_on,0,0,15,,,,,,,,,2,69,40
7920,note_on,60,0,15,,,,,,,,,2,71,0
7980,note_on,60,0,15,,,,,,,,,2,69,0
7980,note_on,60,0,7,,,,,,,,,6,66,0
7980,note_on,60,0,4,,,,,,,,,3,66,0
7980,note_on,0,0,4,,,,,,,,,3,67,40
7980,note_on,60,0,10,,,,,,,,,10,69,0
7980,note_on,0,0,10,,,,,,,,,10,71,40
7980,note_on,0,0,11,,,,,,,,,11,67,40
7980,note_on,0,0,7,,,,,,,,,6,67,40
7980,note_on,0,0,15,,,,,,,,,2,71,40
7980,note_on,60,0,16,,,,,,,,,3,69,0
7980,note_on,60,0,11,,,,,,,,,11,66,0
7980,note_on,0,0,16,,,,,,,,,3,71,40
7980,note_on,0,0,6,,,,,,,,,5,71,40
7980,note_on,60,0,6,,,,,,,,,5,69,0
8040,note_on,0,0,16,,,,,,,,,3,67,40
8040,note_on,60,0,4,,,,,,,,,3,67,0
8040,note_on,0,0,4,,,,,,,,,3,66,40
8040,note_on,60,0,15,,,,,,,,,2,71,0
8040,note_on,60,0,10,,,,,,,,,10,71,0
8040,note_on,0,0,10,,,,,,,,,10,67,40
8040,note_on,60,0,16,,,,,,,,,3,71,0
8040,note_on,60,0,7,,,,,,,,,6,67,0
8040,note_on,0,0,7,,,,,,,,,6,66,40
8040,note_on,60,0,11,,,,,,,,,11,67,0
8040,note_on,60,0,6,,,,,,,,,5,71,0
8040,note_on,0,0,6,,,,,,,,,5,67,40
8040,note_on,0,0,15,,,,,,,,,2,67,40
8040,note_on,0,0,11,,,,,,,,,11,66,40
8100,note_on,0,0,16,,,,,,,,,3,69,40
8100,note_on,0,0,10,,,,,,,,,10,69,40
8100,note_on,60,0,10,,,,,,,,,10,67,0
8100,note_on,0,0,7,,,,,,,,,6,64,40
8100,note_on,0,0,6,,,,,,,,,5,69,40
8100,note_on,60,0,6,,,,,,,,,5,67,0
8100,note_on,0,0,4,,,,,,,,,3,64,40
8100,note_on,60,0,7,,,,,,,,,6,66,0
8100,note_on,60,0,16,,,,,,,,,3,67,0
8100,note_on,0,0,11,,,,,,,,,11,64,40
8100,note_on,60,0,11,,,,,,,,,11,66,0
8100,note_on,60,0,15,,,,,,,,,2,67,0
8100,note_on,0,0,15,,,,,,,,,2,69,40
8100,note_on,60,0,4,,,,,,,,,3,66,0
8160,note_on,60,0,15,,,,,,,,,2,69,0
8160,note_on,0,0,11,,,,,,,,,11,62,40
8160,note_on,60,0,11,,,,,,,,,11,64,0
8160,note_on,0,0,15,,,,,,,,,2,71,40
8160,note_on,60,0,7,,,,,,,,,6,64,0
8160,note_on,0,0,10,,,,,,,,,10,71,40
8160,note_on,0,0,4,,,,,,,,,3,62,40
8160,note_on,480,0,8,,,,,,,,,7,50,0
8160,note_on,240,0,9,,,,,,,,,8,50,0
8160,note_on,0,0,9,,,,,,,,,8,55,60
8160,note_on,480,0,12,,,,,,,,,12,50,0
8160,note_on,60,0,4,,,,,,,,,3,64,0
8160,note_on,60,0,16,,,,,,,,,3,69,0
8160,note_on,60,0,6,,,,,,,,,5,69,0
8160,note_on,240,0,14,,,,,,,,,14,50,0
8160,note_on,0,0,14,,,,,,,,,14,55,60
8160,note_on,60,0,10,,,,,,,,,10,69,0
8160,note_on,0,0,6,,,,,,,,,5,71,40
8160,note_on,0,0,16,,,,,,,,,3,71,40
8160,note_on,0,0,7,,,,,,,,,6,62,40
8220,note_on,60,0,4,,,,,,,,,3,62,0
8220,note_on,0,0,4,,,,,,,,,3,64,40
8220,note_on,60,0,16,,,,,,,,,3,71,0
8220,note_on,0,0,16,,,,,,,,,3,69,40
8220,note_on,60,0,15,,,,,,,,,2,71,0
8220,note_on,60,0,10,,,,,,,,,10,71,0
8220,note_on,0,0,6,,,,,,,,,5,69,40
8220,note_on,60,0,6,,,,,,,,,5,71,0
8220,note_on,0,0,10,,,,,,,,,10,69,40
8220,note_on,0,0,15,,,,,,,,,2,69,40
8280,note_on,60,0,15,,,,,,,,,2,69,0
8280,note_on,0,0,7,,,,,,,,,6,61,40
8280,note_on,120,0,7,,,,,,,,,6,62,0
8280,note_on,120,0,11,,,,,,,,,11,62,0
8280,note_on,0,0,11,,,,,,,,,11,61,40
8280,note_on,0,0,15,,,,,,,,,2,71,40
8280,note_on,60,0,16,,,,,,,,,3,69,0
8280,note_on,0,0,16,,,,,,,,,3,71,40
8280,note_on,60,0,10,,,,,,,,,10,69,0
8280,note_on,60,0,4,,,,,,,,,3,64,0
8280,note_on,0,0,4,,,,,,,,,3,62,40
8280,note_on,0,0,10,,,,,,,,,10,71,40
8280,note_on,0,0,6,,,,,,,,,5,71,40
8280,note_on,60,0,6,,,,,,,,,5,69,0
8340,note_on,0,0,10,,,,,,,,,10,72,40
8340,note_on,0,0,15,,,,,,,,,2,72,40
8340,note_on,60,0,15,,,,,,,,,2,71,0
8340,note_on,60,0,16,,,,,,,,,3,71,0
8340,note_on,60,0,6,,,,,,,,,5,71,0
8340,note_on,60,0,7,,,,,,,,,6,61,0
8340,note_on,0,0,7,,,,,,,,,6,59,40
8340,note_on,0,0,6,,,,,,,,,5,72,40
8340,note_on,0,0,16,,,,,,,,,3,72,40
8340,note_on,0,0,11,,,,,,,,,11,59,40
8340,note_on,60,0,11,,,,,,,,,11,61,0
8340,note_on,60,0,10,,,,,,,,,10,71,0
8340,note_on,60,0,4,,,,,,,,,3,62,0
8340,note_on,0,0,4,,,,,,,,,3,64,40
8400,note_on,60,0,7,,,,,,,,,6,59,0
8400,note_on,720,0,5,,,,,,,,,4,50,55
8400,note_on,240,0,14,,,,,,,,,14,55,0
8400,note_on,0,0,14,,,,,,,,,14,50,55
8400,note_on,60,0,6,,,,,,,,,5,72,0
8400,note_on,60,0,16,,,,,,,,,3,72,0
8400,note_on,0,0,16,,,,,,,,,3,71,40
8400,note_on,0,0,6,,,,,,,,,5,71,40
8400,note_on,240,0,9,,,,,,,,,8,55,0
8400,note_on,0,0,9,,,,,,,,,8,50,55
8400,note_on,720,0,13,,,,,,,,,13,50,55
8400,note_on,60,0,15,,,,,,,,,2,72,0
8400,note_on,60,0,10,,,,,,,,,10,72,0
8400,note_on,0,0,4,,,,,,,,,3,66,40
8400,note_on,60,0,4,,,,,,,,,3,64,0
8400,note_on,60,0,11,,,,,,,,,11,59,0
8400,note_on,0,0,11,,,,,,,,,11,66,40
8400,note_on,0,0,10,,,,,,,,,10,71,40
8400,note_on,0,0,15,,,,,,,,,2,71,40
8400,note_on,0,0,7,,,,,,,,,6,66,40
8460,note_on,0,0,10,,,,,,,,,10,72,40
8460,note_on,60,0,15,,,,,,,,,2,71,0
8460,note_on,0,0,15,,,,,,,,,2,72,40
8460,note_on,60,0,6,,,,,,,,,5,71,0
8460,note_on,60,0,10,,,,,,,,,10,71,0
8460,note_on,0,0,6,,,,,,,,,5,72,40
8460,note_on,60,0,16,,,,,,,,,3,71,0
8460,note_on,0,0,16,,,,,,,,,3,72,40
8520,note_on,60,0,10,,,,,,,,,10,72,0
8520,note_on,0,0,10,,,,,,,,,10,71,40
8520,note_on,0,0,15,,,,,,,,,2,71,40
8520,note_on,60,0,15,,,,,,,,,2,72,0
8520,note_on,0,0,16,,,,,,,,,3,71,40
8520,note_on,60,0,16,,,,,,,,,3,72,0
8520,note_on,0,0,6,,,,,,,,,5,71,40
8520,note_on,60,0,6,,,,,,,,,5,72,0
8580,note_on,0,0,6,,,,,,,,,5,69,40
8580,note_on,60,0,6,,,,,,,,,5,71,0
8580,note_on,60,0,16,,,,,,,,,3,71,0
8580,note_on,60,0,10,,,,,,,,,10,71,0
8580,note_on,0,0,16,,,,,,,,,3,69,40
8580,note_on,60,0,15,,,,,,,,,2,71,0
8580,note_on,0,0,15,,,,,,,,,2,69,40
8580,note_on,0,0,10,,,,,,,,,10,69,40
8640,note_on,60,0,10,,,,,,,,,10,69,0
8640,note_on,0,0,10,,,,,,,,,10,67,40
8640,note_on,240,0,13,,,,,,,,,13,50,0
8640,note_on,0,0,16,,,,,,,,,3,67,40
8640,note_on,240,0,11,,,,,,,,,11,66,0
8640,note_on,0,0,11,,,,,,,,,11,59,40
8640,note_on,60,0,16,,,,,,,,,3,69,0
8640,note_on,0,0,15,,,,,,,,,2,67,40
8640,note_on,60,0,15,,,,,,,,,2,69,0
8640,note_on,0,0,14,,,,,,,,,14,52,57
8640,note_on,0,0,13,,,,,,,,,13,52,57
8640,note_on,0,0,5,,,,,,,,,4,52,57
8640,note_on,0,0,9,,,,,,,,,8,52,57
8640,note_on,240,0,9,,,,,,,,,8,50,0
8640,note_on,0,0,6,,,,,,,,,5,67,40
8640,note_on,60,0,6,,,,,,,,,5,69,0
8640,note_on,240,0,5,,,,,,,,,4,50,0
8640,note_on,240,0,7,,,,,,,,,6,66,0
8640,note_on,0,0,4,,,,,,,,,3,64,40
8640,note_on,240,0,14,,,,,,,,,14,50,0
8640,note_on,0,0,7,,,,,,,,,6,59,40
8640,note_on,240,0,4,,,,,,,,,3,66,0
8760,note_on,0,0,16,,,,,,,,,3,66,40
8760,note_on,120,0,15,,,,,,,,,2,67,0
8760,note_on,120,0,4,,,,,,,,,3,64,0
8760,note_on,0,0,15,,,,,,,,,2,66,40
8760,note_on,120,0,6,,,,,,,,,5,67,0
8760,note_on,120,0,10,,,,,,,,,10,67,0
8760,note_on,0,0,10,,,,,,,,,10,66,40
8760,note_on,120,0,16,,,,,,,,,3,67,0
8760,note_on,0,0,6,,,,,,,,,5,66,40
8820,note_on,0,0,10,,,,,,,,,10,64,40
8820,note_on,60,0,6,,,,,,,,,5,66,0
8820,note_on,60,0,10,,,,,,,,,10,66,0
8820,note_on,60,0,15,,,,,,,,,2,66,0
8820,note_on,0,0,6,,,,,,,,,5,64,40
8820,note_on,0,0,15,,,,,,,,,2,64,40
8820,note_on,0,0,16,,,,,,,,,3,64,40
8820,note_on,60,0,16,,,,,,,,,3,66,0
8880,note_on,0,0,6,,,,,,,,,5,69,40
8880,note_on,60,0,6,,,,,,,,,5,64,0
8880,note_on,0,0,9,,,,,,,,,8,54,59
8880,note_on,240,0,9,,,,,,,,,8,52,0
8880,note_on,0,0,14,,,,,,,,,14,54,59
8880,note_on,240,0,14,,,,,,,,,14,52,0
8880,note_on,720,0,8,,,,,,,,,7,57,54
8880,note_on,240,0,5,,,,,,,,,4,52,0
8880,note_on,60,0,15,,,,,,,,,2,64,0
8880,note_on,0,0,13,,,,,,,,,13,54,59
8880,note_on,240,0,13,,,,,,,,,13,52,0
8880,note_on,240,0,7,,,,,,,,,6,59,0
8880,note_on,60,0,16,,,,,,,,,3,64,0
8880,note_on,0,0,16,,,,,,,,,3,69,40
8880,note_on,720,0,12,,,,,,,,,12,57,54
8880,note_on,240,0,11,,,,,,,,,11,59,0
8880,note_on,0,0,10,,,,,,,,,10,69,40
8880,note_on,60,0,10,,,,,,,,,10,64,0
8880,note_on,0,0,5,,,,,,,,,4,54,59
8880,note_on,0,0,15,,,,,,,,,2,69,40
9120,note_on,0,0,9,,,,,,,,,8,55,61
9120,note_on,0,0,16,,,,,,,,,3,62,40
9120,note_on,240,0,13,,,,,,,,,13,54,0
9120,note_on,0,0,13,,,,,,,,,13,55,61
9120,note_on,0,0,14,,,,,,,,,14,55,61
9120,note_on,240,0,14,,,,,,,,,14,54,0
9120,note_on,240,0,6,,,,,,,,,5,69,0
9120,note_on,240,0,16,,,,,,,,,3,69,0
9120,note_on,0,0,8,,,,,,,,,7,59,57
9120,note_on,240,0,8,,,,,,,,,7,57,0
9120,note_on,0,0,6,,,,,,,,,5,62,40
9120,note_on,240,0,12,,,,,,,,,12,57,0
9120,note_on,240,0,9,,,,,,,,,8,54,0
9120,note_on,0,0,12,,,,,,,,,12,59,57
9120,note_on,240,0,10,,,,,,,,,10,69,0
9120,note_on,0,0,10,,,,,,,,,10,62,40
9120,note_on,0,0,15,,,,,,,,,2,62,40
9120,note_on,0,0,5,,,,,,,,,4,55,61
9120,note_on,240,0,5,,,,,,,,,4,54,0
9120,note_on,240,0,15,,,,,,,,,2,69,0
9360,note_on,240,0,8,,,,,,,,,7,59,0
9360,note_on,0,0,14,,,,,,,,,14,54,62
9360,note_on,0,0,13,,,,,,,,,13,54,62
9360,note_on,240,0,9,,,,,,,,,8,55,0
9360,note_on,240,0,5,,,,,,,,,4,55,0
9360,note_on,0,0,5,,,,,,,,,4,54,62
9360,note_on,0,0,8,,,,,,,,,7,61,61
9360,note_on,240,0,14,,,,,,,,,14,55,0
9360,note_on,240,0,13,,,,,,,,,13,55,0
9360,note_on,240,0,12,,,,,,,,,12,59,0
9360,note_on,240,0,15,,,,,,,,,2,62,0
9360,note_on,240,0,6,,,,,,,,,5,62,0
9360,note_on,0,0,9,,,,,,,,,8,54,62
9360,note_on,0,0,12,,,,,,,,,12,61,61
9360,note_on,240,0,16,,,,,,,,,3,62,0
9360,note_on,240,0,10,,,,,,,,,10,62,0
9480,note_on,120,0,13,,,,,,,,,13,54,0
9480,note_on,0,0,13,,,,,,,,,13,52,63
9480,note_on,0,0,9,,,,,,,,,8,52,63
9480,note_on,0,0,14,,,,,,,,,14,52,63
9480,note_on,120,0,14,,,,,,,,,14,54,0
9480,note_on,120,0,9,,,,,,,,,8,54,0
9480,note_on,0,0,5,,,,,,,,,4,52,63
9480,note_on,120,0,5,,,,,,,,,4,54,0
9600,note_on,120,0,5,,,,,,,,,4,52,0
9600,note_on,0,0,13,,,,,,,,,13,54,64
9600,note_on,120,0,9,,,,,,,,,8,52,0
9600,note_on,240,0,8,,,,,,,,,7,61,0
9600,note_on,120,0,13,,,,,,,,,13,52,0
9600,note_on,240,0,12,,,,,,,,,12,61,0
9600,note_on,120,0,14,,,,,,,,,14,52,0
9600,note_on,0,0,14,,,,,,,,,14,54,64
9600,note_on,0,0,12,,,,,,,,,12,62,64
9600,note_on,0,0,5,,,,,,,,,4,54,64
9600,note_on,0,0,8,,,,,,,,,7,62,64
9600,note_on,0,0,9,,,,,,,,,8,54,64
9720,note_on,120,0,9,,,,,,,,,8,54,0
9720,note_on,120,0,14,,,,,,,,,14,54,0
9720,note_on,0,0,14,,,,,,,,,14,47,65
9720,note_on,120,0,13,,,,,,,,,13,54,0
9720,note_on,0,0,13,,,,,,,,,13,47,65
9720,note_on,120,0,5,,,,,,,,,4,54,0
9720,note_on,0,0,5,,,,,,,,,4,47,65
9720,note_on,0,0,9,,,,,,,,,8,47,65
9840,note_on,960,0,7,,,,,,,,,6,62,65
9840,note_on,120,0,13,,,,,,,,,13,47,0
9840,note_on,240,0,12,,,,,,,,,12,62,0
9840,note_on,0,0,12,,,,,,,,,12,61,65
9840,note_on,1080,0,4,,,,,,,,,3,62,65
9840,note_on,960,0,11,,,,,,,,,11,62,65
9840,note_on,0,0,13,,,,,,,,,13,59,65
9840,note_on,120,0,5,,,,,,,,,4,47,0
9840,note_on,240,0,8,,,,,,,,,7,62,0
9840,note_on,120,0,14,,,,,,,,,14,47,0
9840,note_on,120,0,9,,,,,,,,,8,47,0
9840,note_on,0,0,9,,,,,,,,,8,59,65
9840,note_on,0,0,8,,,,,,,,,7,61,65
9840,note_on,0,0,14,,,,,,,,,14,59,65
9840,note_on,0,0,5,,,,,,,,,4,59,65
9960,note_on,0,0,8,,,,,,,,,7,59,66
9960,note_on,120,0,12,,,,,,,,,12,61,0
9960,note_on,0,0,12,,,,,,,,,12,59,66
9960,note_on,120,0,8,,,,,,,,,7,61,0
10080,note_on,0,0,7,,,,,,,,,6,64,67
10080,note_on,0,0,4,,,,,,,,,3,64,67
10080,note_on,240,0,4,,,,,,,,,3,62,0
10080,note_on,240,0,7,,,,,,,,,6,62,0
10080,note_on,0,0,11,,,,,,,,,11,64,67
10080,note_on,120,0,12,,,,,,,,,12,59,0
10080,note_on,0,0,8,,,,,,,,,7,61,67
10080,note_on,120,0,8,,,,,,,,,7,59,0
10080,note_on,0,0,12,,,,,,,,,12,61,67
10080,note_on,240,0,11,,,,,,,,,11,62,0
10200,note_on,360,0,5,,,,,,,,,4,59,0
10200,note_on,120,0,8,,,,,,,,,7,61,0
10200,note_on,0,0,8,,,,,,,,,7,54,67
10200,note_on,120,0,12,,,,,,,,,12,61,0
10200,note_on,360,0,14,,,,,,,,,14,59,0
10200,note_on,0,0,5,,,,,,,,,4,57,67
10200,note_on,0,0,13,,,,,,,,,13,57,67
10200,note_on,360,0,13,,,,,,,,,13,59,0
10200,note_on,0,0,9,,,,,,,,,8,57,67
10200,note_on,360,0,9,,,,,,,,,8,59,0
10200,note_on,0,0,14,,,,,,,,,14,57,67
10200,note_on,0,0,12,,,,,,,,,12,54,67
10320,note_on,120,0,12,,,,,,,,,12,54,0
10320,note_on,0,0,12,,,,,,,,,12,66,68
10320,note_on,0,0,11,,,,,,,,,11,66,68
10320,note_on,960,0,15,,,,,,,,,2,69,68
10320,note_on,0,0,8,,,,,,,,,7,66,68
10320,note_on,960,0,10,,,,,,,,,10,69,68
10320,note_on,960,0,16,,,,,,,,,3,69,68
10320,note_on,960,0,6,,,,,,,,,5,69,68
10320,note_on,0,0,7,,,,,,,,,6,66,68
10320,note_on,240,0,4,,,,,,,,,3,64,0
10320,note_on,0,0,4,,,,,,,,,3,66,68
10320,note_on,240,0,7,,,,,,,,,6,64,0
10320,note_on,240,0,11,,,,,,,,,11,64,0
10320,note_on,120,0,8,,,,,,,,,7,54,0
10440,note_on,0,0,13,,,,,,,,,13,62,69
10440,note_on,240,0,13,,,,,,,,,13,57,0
10440,note_on,240,0,14,,,,,,,,,14,57,0
10440,note_on,0,0,14,,,,,,,,,14,62,69
10440,note_on,0,0,5,,,,,,,,,4,62,69
10440,note_on,240,0,5,,,,,,,,,4,57,0
10440,note_on,240,0,9,,,,,,,,,8,57,0
10440,note_on,0,0,9,,,,,,,,,8,62,69
10560,note_on,120,0,9,,,,,,,,,8,62,0
10560,note_on,0,0,7,,,,,,,,,6,67,70
10560,note_on,240,0,10,,,,,,,,,10,69,0
10560,note_on,0,0,10,,,,,,,,,10,71,70
10560,note_on,0,0,6,,,,,,,,,5,71,70
10560,note_on,240,0,6,,,,,,,,,5,69,0
10560,note_on,240,0,7,,,,,,,,,6,66,0
10560,note_on,240,0,11,,,,,,,,,11,66,0
10560,note_on,120,0,5,,,,,,,,,4,62,0
10560,note_on,0,0,5,,,,,,,,,4,55,70
10560,note_on,240,0,4,,,,,,,,,3,66,0
10560,note_on,240,0,16,,,,,,,,,3,69,0
10560,note_on,0,0,9,,,,,,,,,8,55,70
10560,note_on,0,0,11,,,,,,,,,11,67,70
10560,note_on,0,0,16,,,,,,,,,3,71,70
10560,note_on,0,0,4,,,,,,,,,3,67,70
10560,note_on,240,0,15,,,,,,,,,2,69,0
10560,note_on,0,0,15,,,,,,,,,2,71,70
10560,note_on,120,0,13,,,,,,,,,13,62,0
10560,note_on,0,0,13,,,,,,,,,13,55,70
10560,note_on,0,0,14,,,,,,,,,14,55,70
10560,note_on,120,0,14,,,,,,,,,14,62,0
10680,note_on,0,0,5,,,,,,,,,4,59,70
10680,note_on,120,0,5,,,,,,,,,4,55,0
10680,note_on,0,0,12,,,,,,,,,12,64,70
10680,note_on,360,0,12,,,,,,,,,12,66,0
10680,note_on,360,0,8,,,,,,,,,7,66,0
10680,note_on,0,0,8,,,,,,,,,7,64,70
10680,note_on,120,0,13,,,,,,,,,13,55,0
10680,note_on,0,0,13,,,,,,,,,13,59,70
10680,note_on,120,0,9,,,,,,,,,8,55,0
10680,note_on,120,0,14,,,,,,,,,14,55,0
10680,note_on,0,0,14,,,,,,,,,14,59,70
10680,note_on,0,0,9,,,,,,,,,8,59,70
10800,note_on,0,0,4,,,,,,,,,3,66,71
10800,note_on,0,0,5,,,,,,,,,4,57,71
10800,note_on,120,0,5,,,,,,,,,4,59,0
10800,note_on,0,0,10,,,,,,,,,10,73,71
10800,note_on,0,0,6,,,,,,,,,5,73,71
10800,note_on,240,0,6,,,,,,,,,5,71,0
10800,note_on,240,0,10,,,,,,,,,10,71,0
10800,note_on,0,0,14,,,,,,,,,14,57,71
10800,note_on,120,0,14,,,,,,,,,14,59,0
10800,note_on,0,0,9,,,,,,,,,8,57,71
10800,note_on,0,0,13,,,,,,,,,13,57,71
10800,note_on,120,0,9,,,,,,,,,8,59,0
10800,note_on,0,0,15,,,,,,,,,2,73,71
10800,note_on,240,0,15,,,,,,,,,2,71,0
10800,note_on,240,0,4,,,,,,,,,3,67,0
10800,note_on,120,0,13,,,,,,,,,13,59,0
10800,note_on,240,0,16,,,,,,,,,3,71,0
10800,note_on,240,0,11,,,,,,,,,11,67,0
10800,note_on,0,0,11,,,,,,,,,11,66,71
10800,note_on,0,0,16,,,,,,,,,3,73,71
10800,note_on,0,0,7,,,,,,,,,6,66,71
10800,note_on,240,0,7,,,,,,,,,6,67,0
10920,note_on,0,0,12,,,,,,,,,12,69,72
10920,note_on,240,0,12,,,,,,,,,12,64,0
10920,note_on,240,0,8,,,,,,,,,7,64,0
10920,note_on,0,0,8,,,,,,,,,7,69,72
10920,note_on,120,0,7,,,,,,,,,6,66,0
10920,note_on,120,0,13,,,,,,,,,13,57,0
10920,note_on,120,0,5,,,,,,,,,4,57,0
10920,note_on,0,0,13,,,,,,,,,13,55,72
10920,note_on,0,0,14,,,,,,,,,14,55,72
10920,note_on,120,0,14,,,,,,,,,14,57,0
10920,note_on,120,0,9,,,,,,,,,8,57,0
10920,note_on,0,0,11,,,,,,,,,11,64,72
10920,note_on,120,0,11,,,,,,,,,11,66,0
10920,note_on,0,0,9,,,,,,,,,8,55,72
10920,note_on,0,0,5,,,,,,,,,4,55,72
10920,note_on,0,0,7,,,,,,,,,6,64,72
10920,note_on,120,0,4,,,,,,,,,3,66,0
10920,note_on,0,0,4,,,,,,,,,3,64,72
11040,note_on,120,0,9,,,,,,,,,8,55,0
11040,note_on,120,0,11,,,,,,,,,11,64,0
11040,note_on,0,0,8,,,,,,,,,7,62,72
11040,note_on,240,0,6,,,,,,,,,5,73,0
11040,note_on,240,0,16,,,,,,,,,3,73,0
11040,note_on,0,0,13,,,,,,,,,13,54,72
11040,note_on,120,0,13,,,,,,,,,13,55,0
11040,note_on,0,0,9,,,,,,,,,8,54,72
11040,note_on,0,0,12,,,,,,,,,12,62,72
11040,note_on,120,0,14,,,,,,,,,14,55,0
11040,note_on,0,0,14,,,,,,,,,14,54,72
11040,note_on,0,0,11,,,,,,,,,11,66,72
11040,note_on,120,0,4,,,,,,,,,3,64,0
11040,note_on,120,0,8,,,,,,,,,7,69,0
11040,note_on,0,0,16,,,,,,,,,3,74,72
11040,note_on,0,0,15,,,,,,,,,2,74,72
11040,note_on,120,0,7,,,,,,,,,6,64,0
11040,note_on,0,0,6,,,,,,,,,5,74,72
11040,note_on,0,0,7,,,,,,,,,6,66,72
11040,note_on,240,0,15,,,,,,,,,2,73,0
11040,note_on,120,0,12,,,,,,,,,12,69,0
11040,note_on,240,0,10,,,,,,,,,10,73,0
11040,note_on,0,0,10,,,,,,,,,10,74,72
11040,note_on,120,0,5,,,,,,,,,4,55,0
11040,note_on,0,0,5,,,,,,,,,4,54,72
11040,note_on,0,0,4,,,,,,,,,3,66,72
11160,note_on,0,0,12,,,,,,,,,12,66,73
11160,note_on,120,0,7,,,,,,,,,6,66,0
11160,note_on,120,0,11,,,,,,,,,11,66,0
11160,note_on,120,0,12,,,,,,,,,12,62,0
11160,note_on,0,0,8,,,,,,,,,7,66,73
11160,note_on,120,0,8,,,,,,,,,7,62,0
11160,note_on,0,0,7,,,,,,,,,6,59,73
11160,note_on,0,0,11,,,,,,,,,11,59,73
11280,note_on,120,0,11,,,,,,,,,11,59,0
11280,note_on,240,0,16,,,,,,,,,3,74,0
11280,note_on,0,0,16,,,,,,,,,3,73,74
11280,note_on,240,0,6,,,,,,,,,5,74,0
11280,note_on,0,0,6,,,,,,,,,5,73,74
11280,note_on,0,0,11,,,,,,,,,11,71,74
11280,note_on,240,0,15,,,,,,,,,2,74,0
11280,note_on,120,0,12,,,,,,,,,12,66,0
11280,note_on,0,0,8,,,,,,,,,7,64,74
11280,note_on,240,0,13,,,,,,,,,13,54,0
11280,note_on,0,0,13,,,,,,,,,13,54,74
11280,note_on,120,0,8,,,,,,,,,7,66,0
11280,note_on,0,0,7,,,,,,,,,6,71,74
11280,note_on,0,0,4,,,,,,,,,3,71,74
11280,note_on,0,0,10,,,,,,,,,10,73,74
11280,note_on,240,0,4,,,,,,,,,3,66,0
11280,note_on,240,0,10,,,,,,,,,10,74,0
11280,note_on,0,0,12,,,,,,,,,12,64,74
11280,note_on,120,0,7,,,,,,,,,6,59,0
11280,note_on,0,0,15,,,,,,,,,2,73,74
11400,note_on,0,0,12,,,,,,,,,12,62,74
11400,note_on,120,0,12,,,,,,,,,12,64,0
11400,note_on,0,0,10,,,,,,,,,10,71,74
11400,note_on,120,0,10,,,,,,,,,10,73,0
11400,note_on,120,0,6,,,,,,,,,5,73,0
11400,note_on,0,0,6,,,,,,,,,5,71,74
11400,note_on,120,0,15,,,,,,,,,2,73,0
11400,note_on,0,0,16,,,,,,,,,3,71,74
11400,note_on,0,0,15,,,,,,,,,2,71,74
11400,note_on,120,0,16,,,,,,,,,3,73,0
11400,note_on,120,0,8,,,,,,,,,7,64,0
11400,note_on,0,0,8,,,,,,,,,7,62,74
11520,note_on,120,0,8,,,,,,,,,7,62,0
11520,note_on,120,0,6,,,,,,,,,5,71,0
11520,note_on,120,0,15,,,,,,,,,2,71,0
11520,note_on,0,0,15,,,,,,,,,2,73,74
11520,note_on,120,0,12,,,,,,,,,12,62,0
11520,note_on,0,0,12,,,,,,,,,12,61,74
11520,note_on,0,0,8,,,,,,,,,7,61,74
11520,note_on,0,0,16,,,,,,,,,3,73,74
11520,note_on,120,0,10,,,,,,,,,10,71,0
11520,note_on,0,0,6,,,,,,,,,5,73,74
11520,note_on,240,0,13,,,,,,,,,13,54,0
11520,note_on,120,0,16,,,,,,,,,3,71,0
11520,note_on,480,0,5,,,,,,,,,4,54,0
11520,note_on,0,0,10,,,,,,,,,10,73,74
11580,note_on,0,0,9,,,,,,,,,8,52,70
11580,note_on,540,0,9,,,,,,,,,8,54,0
11580,note_on,540,0,14,,,,,,,,,14,54,0
11580,note_on,0,0,14,,,,,,,,,14,52,70
11640,note_on,0,0,15,,,,,,,,,2,66,74
11640,note_on,60,0,9,,,,,,,,,8,52,0
11640,note_on,120,0,15,,,,,,,,,2,73,0
11640,note_on,0,0,16,,,,,,,,,3,66,74
11640,note_on,120,0,16,,,,,,,,,3,73,0
11640,note_on,0,0,7,,,,,,,,,6,69,74
11640,note_on,360,0,7,,,,,,,,,6,71,0
11640,note_on,0,0,9,,,,,,,,,8,54,70
11640,note_on,120,0,10,,,,,,,,,10,73,0
11640,note_on,0,0,10,,,,,,,,,10,66,74
11640,note_on,60,0,14,,,,,,,,,14,52,0
11640,note_on,120,0,6,,,,,,,,,5,73,0
11640,note_on,0,0,6,,,,,,,,,5,66,74
11640,note_on,0,0,14,,,,,,,,,14,54,70
11640,note_on,360,0,4,,,,,,,,,3,71,0
11640,note_on,360,0,11,,,,,,,,,11,71,0
11640,note_on,0,0,4,,,,,,,,,3,69,74
11640,note_on,0,0,11,,,,,,,,,11,69,74
11700,note_on,0,0,14,,,,,,,,,14,55,70
11700,note_on,60,0,9,,,,,,,,,8,54,0
11700,note_on,0,0,9,,,,,,,,,8,55,70
11700,note_on,60,0,14,,,,,,,,,14,54,0
11760,note_on,0,0,12,,,,,,,,,12,61,74
11760,note_on,240,0,12,,,,,,,,,12,61,0
11760,note_on,0,0,14,,,,,,,,,14,54,70
11760,note_on,60,0,14,,,,,,,,,14,55,0
11760,note_on,60,0,9,,,,,,,,,8,55,0
11760,note_on,120,0,6,,,,,,,,,5,66,0
11760,note_on,0,0,16,,,,,,,,,3,78,74
11760,note_on,0,0,10,,,,,,,,,10,78,74
11760,note_on,120,0,16,,,,,,,,,3,66,0
11760,note_on,120,0,15,,,,,,,,,2,66,0
11760,note_on,0,0,15,,,,,,,,,2,78,74
11760,note_on,120,0,10,,,,,,,,,10,66,0
11760,note_on,0,0,6,,,,,,,,,5,78,74
11760,note_on,0,0,9,,,,,,,,,8,54,70
11820,note_on,60,0,9,,,,,,,,,8,54,0
11820,note_on,60,0,14,,,,,,,,,14,54,0
11820,note_on,0,0,9,,,,,,,,,8,52,70
11820,note_on,0,0,14,,,,,,,,,14,52,70
11880,note_on,240,0,4,,,,,,,,,3,69,0
11880,note_on,60,0,9,,,,,,,,,8,52,0
11880,note_on,0,0,7,,,,,,,,,6,74,74
11880,note_on,60,0,14,,,,,,,,,14,52,0
11880,note_on,240,0,7,,,,,,,,,6,69,0
11880,note_on,0,0,4,,,,,,,,,3,74,74
11880,note_on,0,0,9,,,,,,,,,8,50,70
11880,note_on,0,0,14,,,,,,,,,14,50,70
11880,note_on,0,0,11,,,,,,,,,11,74,74
11880,note_on,240,0,11,,,,,,,,,11,69,0
11940,note_on,0,0,9,,,,,,,,,8,49,70
11940,note_on,60,0,9,,,,,,,,,8,50,0
11940,note_on,0,0,14,,,,,,,,,14,49,70
11940,note_on,60,0,14,,,,,,,,,14,50,0
12000,note_on,60,0,9,,,,,,,,,8,49,0
12000,note_on,0,0,11,,,,,,,,,11,67,74
12000,note_on,120,0,11,,,,,,,,,11,74,0
12000,note_on,240,0,12,,,,,,,,,12,61,0
12000,note_on,0,0,9,,,,,,,,,8,47,70
12000,note_on,0,0,4,,,,,,,,,3,67,74
12000,note_on,120,0,4,,,,,,,,,3,74,0
12000,note_on,60,0,14,,,,,,,,,14,49,0
12000,note_on,0,0,14,,,,,,,,,14,47,70
12000,note_on,0,0,7,,,,,,,,,6,67,74
12000,note_on,120,0,7,,,,,,,,,6,74,0
12000,note_on,480,0,8,,,,,,,,,7,61,0
12120,note_on,360,0,15,,,,,,,,,2,78,0
12120,note_on,120,0,4,,,,,,,,,3,67,0
12120,note_on,0,0,4,,,,,,,,,3,71,74
12120,note_on,0,0,15,,,,,,,,,2,71,74
12120,note_on,120,0,11,,,,,,,,,11,67,0
12120,note_on,360,0,6,,,,,,,,,5,78,0
12120,note_on,120,0,7,,,,,,,,,6,67,0
12120,note_on,0,0,7,,,,,,,,,6,71,74
12120,note_on,360,0,10,,,,,,,,,10,78,0
12120,note_on,0,0,10,,,,,,,,,10,71,74
12120,note_on,0,0,11,,,,,,,,,11,71,74
12120,note_on,360,0,16,,,,,,,,,3,78,0
12120,note_on,0,0,16,,,,,,,,,3,71,74
12120,note_on,0,0,6,,,,,,,,,5,71,74
12240,note_on,120,0,6,,,,,,,,,5,71,0
12240,note_on,120,0,15,,,,,,,,,2,71,0
12240,note_on,0,0,10,,,,,,,,,10,76,74
12240,note_on,120,0,11,,,,,,,,,11,71,0
12240,note_on,0,0,15,,,,,,,,,2,76,74
12240,note_on,0,0,11,,,,,,,,,11,69,74
12240,note_on,0,0,6,,,,,,,,,5,76,74
12240,note_on,120,0,10,,,,,,,,,10,71,0
12240,note_on,0,0,9,,,,,,,,,8,49,70
12240,note_on,240,0,14,,,,,,,,,14,47,0
12240,note_on,0,0,14,,,,,,,,,14,49,70
12240,note_on,120,0,7,,,,,,,,,6,71,0
12240,note_on,0,0,7,,,,,,,,,6,69,74
12240,note_on,120,0,4,,,,,,,,,3,71,0
12240,note_on,120,0,16,,,,,,,,,3,71,0
12240,note_on,0,0,16,,,,,,,,,3,76,74
12240,note_on,240,0,9,,,,,,,,,8,47,0
12240,note_on,0,0,4,,,,,,,,,3,69,74
12360,note_on,120,0,11,,,,,,,,,11,69,0
12360,note_on,0,0,11,,,,,,,,,11,67,74
12360,note_on,120,0,7,,,,,,,,,6,69,0
12360,note_on,0,0,7,,,,,,,,,6,67,74
12360,note_on,120,0,4,,,,,,,,,3,69,0
12360,note_on,0,0,4,,,,,,,,,3,67,74
12480,note_on,480,0,8,,,,,,,,,7,62,74
12480,note_on,480,0,12,,,,,,,,,12,62,74
12480,note_on,0,0,7,,,,,,,,,6,66,74
12480,note_on,120,0,7,,,,,,,,,6,67,0
12480,note_on,0,0,9,,,,,,,,,8,50,70
12480,note_on,0,0,11,,,,,,,,,11,66,74
12480,note_on,120,0,11,,,,,,,,,11,67,0
12480,note_on,0,0,14,,,,,,,,,14,50,70
12480,note_on,0,0,4,,,,,,,,,3,66,74
12480,note_on,120,0,4,,,,,,,,,3,67,0
12480,note_on,240,0,14,,,,,,,,,14,49,0
12480,note_on,240,0,9,,,,,,,,,8,49,0
12600,note_on,360,0,6,,,,,,,,,5,76,0
12600,note_on,0,0,6,,,,,,,,,5,74,74
12600,note_on,120,0,14,,,,,,,,,14,50,0
12600,note_on,0,0,14,,,,,,,,,14,54,75
12600,note_on,360,0,10,,,,,,,,,10,76,0
12600,note_on,0,0,10,,,,,,,,,10,74,74
12600,note_on,0,0,9,,,,,,,,,8,54,75
12600,note_on,360,0,16,,,,,,,,,3,76,0
12600,note_on,0,0,16,,,,,,,,,3,74,74
12600,note_on,120,0,9,,,,,,,,,8,50,0
12600,note_on,360,0,15,,,,,,,,,2,76,0
12600,note_on,0,0,15,,,,,,,,,2,74,74
12720,note_on,0,0,9,,,,,,,,,8,59,100
12720,note_on,1200,0,5,,,,,,,,,4,59,100
12720,note_on,1200,0,13,,,,,,,,,13,59,100
12720,note_on,240,0,11,,,,,,,,,11,66,0
12720,note_on,0,0,11,,,,,,,,,11,66,74
12720,note_on,0,0,14,,,,,,,,,14,59,100
12720,note_on,120,0,9,,,,,,,,,8,54,0
12720,note_on,120,0,14,,,,,,,,,14,54,0
12840,note_on,240,0,6,,,,,,,,,5,74,0
12840,note_on,240,0,16,,,,,,,,,3,74,0
12840,note_on,0,0,16,,,,,,,,,3,79,74
12840,note_on,0,0,10,,,,,,,,,10,79,74
12840,note_on,0,0,6,,,,,,,,,5,79,74
12840,note_on,240,0,15,,,,,,,,,2,74,0
12840,note_on,240,0,10,,,,,,,,,10,74,0
12840,note_on,0,0,15,,,,,,,,,2,79,74
12960,note_on,240,0,11,,,,,,,,,11,66,0
12960,note_on,480,0,4,,,,,,,,,3,66,0
12960,note_on,0,0,15,,,,,,,,,2,73,74
12960,note_on,480,0,7,,,,,,,,,6,66,0
12960,note_on,0,0,6,,,,,,,,,5,73,74
12960,note_on,120,0,6,,,,,,,,,5,79,0
12960,note_on,120,0,15,,,,,,,,,2,79,0
12960,note_on,120,0,10,,,,,,,,,10,79,0
12960,note_on,0,0,10,,,,,,,,,10,73,74
12960,note_on,0,0,12,,,,,,,,,12,64,74
12960,note_on,480,0,12,,,,,,,,,12,62,0
12960,note_on,0,0,8,,,,,,,,,7,64,74
12960,note_on,120,0,16,,,,,,,,,3,79,0
12960,note_on,480,0,8,,,,,,,,,7,62,0
12960,note_on,0,0,16,,,,,,,,,3,73,74
13080,note_on,0,0,9,,,,,,,,,8,59,74
13080,note_on,0,0,10,,,,,,,,,10,76,74
13080,note_on,0,0,15,,,,,,,,,2,76,74
13080,note_on,360,0,9,,,,,,,,,8,59,0
13080,note_on,0,0,5,,,,,,,,,4,59,74
13080,note_on,360,0,14,,,,,,,,,14,59,0
13080,note_on,0,0,14,,,,,,,,,14,59,74
13080,note_on,360,0,13,,,,,,,,,13,59,0
13080,note_on,0,0,13,,,,,,,,,13,59,74
13080,note_on,0,0,6,,,,,,,,,5,76,74
13080,note_on,0,0,16,,,,,,,,,3,76,74
13080,note_on,120,0,16,,,,,,,,,3,73,0
13080,note_on,120,0,6,,,,,,,,,5,73,0
13080,note_on,120,0,15,,,,,,,,,2,73,0
13080,note_on,360,0,5,,,,,,,,,4,59,0
13080,note_on,120,0,10,,,,,,,,,10,73,0
13200,note_on,120,0,13,,,,,,,,,13,59,0
13200,note_on,120,0,10,,,,,,,,,10,76,0
13200,note_on,0,0,13,,,,,,,,,13,58,74
13200,note_on,0,0,10,,,,,,,,,10,74,74
13200,note_on,120,0,15,,,,,,,,,2,76,0
13200,note_on,240,0,12,,,,,,,,,12,64,0
13200,note_on,120,0,5,,,,,,,,,4,59,0
13200,note_on,0,0,15,,,,,,,,,2,74,74
13200,note_on,120,0,14,,,,,,,,,14,59,0
13200,note_on,0,0,14,,,,,,,,,14,58,74
13200,note_on,0,0,16,,,,,,,,,3,74,74
13200,note_on,120,0,16,,,,,,,,,3,76,0
13200,note_on,0,0,9,,,,,,,,,8,58,74
13200,note_on,240,0,8,,,,,,,,,7,64,0
13200,note_on,0,0,8,,,,,,,,,7,66,74
13200,note_on,0,0,12,,,,,,,,,12,66,74
13200,note_on,120,0,9,,,,,,,,,8,59,0
13200,note_on,0,0,5,,,,,,,,,4,58,74
13200,note_on,120,0,6,,,,,,,,,5,76,0
13200,note_on,0,0,6,,,,,,,,,5,74,74
13320,note_on,0,0,15,,,,,,,,,2,73,74
13320,note_on,0,0,9,,,,,,,,,8,58,74
13320,note_on,120,0,9,,,,,,,,,8,58,0
13320,note_on,120,0,13,,,,,,,,,13,58,0
13320,note_on,120,0,6,,,,,,,,,5,74,0
13320,note_on,0,0,6,,,,,,,,,5,73,74
13320,note_on,120,0,10,,,,,,,,,10,74,0
13320,note_on,0,0,14,,,,,,,,,14,58,74
13320,note_on,120,0,14,,,,,,,,,14,58,0
13320,note_on,120,0,15,,,,,,,,,2,74,0
13320,note_on,120,0,16,,,,,,,,,3,74,0
13320,note_on,0,0,16,,,,,,,,,3,73,74
13320,note_on,0,0,5,,,,,,,,,4,58,74
13320,note_on,120,0,5,,,,,,,,,4,58,0
13320,note_on,0,0,13,,,,,,,,,13,58,74
13320,note_on,0,0,10,,,,,,,,,10,73,74
13440,note_on,0,0,8,,,,,,,,,7,67,74
13440,note_on,240,0,8,,,,,,,,,7,66,0
13440,note_on,120,0,15,,,,,,,,,2,73,0
13440,note_on,0,0,13,,,,,,,,,13,59,74
13440,note_on,120,0,13,,,,,,,,,13,58,0
13440,note_on,240,0,12,,,,,,,,,12,66,0
13440,note_on,0,0,12,,,,,,,,,12,67,74
13440,note_on,0,0,10,,,,,,,,,10,71,74
13440,note_on,120,0,9,,,,,,,,,8,58,0
13440,note_on,0,0,9,,,,,,,,,8,59,74
13440,note_on,120,0,16,,,,,,,,,3,73,0
13440,note_on,0,0,6,,,,,,,,,5,71,74
13440,note_on,120,0,14,,,,,,,,,14,58,0
13440,note_on,0,0,14,,,,,,,,,14,59,74
13440,note_on,120,0,6,,,,,,,,,5,73,0
13440,note_on,0,0,15,,,,,,,,,2,71,74
13440,note_on,0,0,5,,,,,,,,,4,59,74
13440,note_on,120,0,5,,,,,,,,,4,58,0
13440,note_on,120,0,10,,,,,,,,,10,73,0
13440,note_on,0,0,16,,,,,,,,,3,71,74
13500,note_on,60,0,9,,,,,,,,,8,59,0
13500,note_on,0,0,9,,,,,,,,,8,61,74
13500,note_on,60,0,14,,,,,,,,,14,59,0
13500,note_on,0,0,14,,,,,,,,,14,61,74
13500,note_on,0,0,13,,,,,,,,,13,61,74
13500,note_on,60,0,5,,,,,,,,,4,59,0
13500,note_on,0,0,5,,,,,,,,,4,61,74
13500,note_on,60,0,13,,,,,,,,,13,59,0
13560,note_on,60,0,13,,,,,,,,,13,61,0
13560,note_on,0,0,13,,,,,,,,,13,57,74
13560,note_on,60,0,5,,,,,,,,,4,61,0
13560,note_on,0,0,14,,,,,,,,,14,57,74
13560,note_on,60,0,14,,,,,,,,,14,61,0
13560,note_on,0,0,5,,,,,,,,,4,57,74
13560,note_on,0,0,9,,,,,,,,,8,57,74
13560,note_on,60,0,9,,,,,,,,,8,61,0
13620,note_on,60,0,5,,,,,,,,,4,57,0
13620,note_on,0,0,5,,,,,,,,,4,59,75
13620,note_on,60,0,14,,,,,,,,,14,57,0
13620,note_on,0,0,13,,,,,,,,,13,59,75
13620,note_on,0,0,14,,,,,,,,,14,59,75
13620,note_on,0,0,9,,,,,,,,,8,59,75
13620,note_on,60,0,9,,,,,,,,,8,57,0
13620,note_on,60,0,13,,,,,,,,,13,57,0
13680,note_on,0,0,9,,,,,,,,,8,61,75
13680,note_on,60,0,9,,,,,,,,,8,59,0
13680,note_on,0,0,10,,,,,,,,,10,71,75
13680,note_on,60,0,5,,,,,,,,,4,59,0
13680,note_on,0,0,5,,,,,,,,,4,61,75
13680,note_on,60,0,14,,,,,,,,,14,59,0
13680,note_on,240,0,12,,,,,,,,,12,67,0
13680,note_on,0,0,8,,,,,,,,,7,66,75
13680,note_on,240,0,8,,,,,,,,,7,67,0
13680,note_on,0,0,14,,,,,,,,,14,61,75
13680,note_on,0,0,13,,,,,,,,,13,61,75
13680,note_on,60,0,13,,,,,,,,,13,59,0
13680,note_on,0,0,12,,,,,,,,,12,66,75
13680,note_on,240,0,10,,,,,,,,,10,71,0
13740,note_on,60,0,14,,,,,,,,,14,61,0
13740,note_on,0,0,14,,,,,,,,,14,62,75
13740,note_on,0,0,5,,,,,,,,,4,62,75
13740,note_on,0,0,13,,,,,,,,,13,62,75
13740,note_on,60,0,13,,,,,,,,,13,61,0
13740,note_on,60,0,9,,,,,,,,,8,61,0
13740,note_on,60,0,5,,,,,,,,,4,61,0
13740,note_on,0,0,9,,,,,,,,,8,62,75
13800,note_on,0,0,8,,,,,,,,,7,64,75
13800,note_on,120,0,8,,,,,,,,,7,66,0
13800,note_on,0,0,13,,,,,,,,,13,59,75
13800,note_on,60,0,13,,,,,,,,,13,62,0
13800,note_on,0,0,9,,,,,,,,,8,59,75
13800,note_on,60,0,14,,,,,,,,,14,62,0
13800,note_on,60,0,9,,,,,,,,,8,62,0
13800,note_on,0,0,14,,,,,,,,,14,59,75
13800,note_on,60,0,5,,,,,,,,,4,62,0
13800,note_on,0,0,12,,,,,,,,,12,64,75
13800,note_on,120,0,12,,,,,,,,,12,66,0
13800,note_on,0,0,5,,,,,,,,,4,59,75
13860,note_on,0,0,9,,,,,,,,,8,61,76
13860,note_on,0,0,13,,,,,,,,,13,61,76
13860,note_on,60,0,9,,,,,,,,,8,59,0
13860,note_on,0,0,14,,,,,,,,,14,61,76
13860,note_on,60,0,14,,,,,,,,,14,59,0
13860,note_on,60,0,13,,,,,,,,,13,59,0
13860,note_on,60,0,5,,,,,,,,,4,59,0
13860,note_on,0,0,5,,,,,,,,,4,61,76
13920,note_on,240,0,10,,,,,,,,,10,71,0
13920,note_on,0,0,14,,,,,,,,,14,62,76
13920,note_on,0,0,8,,,,,,,,,7,66,76
13920,note_on,60,0,9,,,,,,,,,8,61,0
13920,note_on,960,0,4,,,,,,,,,3,69,76
13920,note_on,0,0,13,,,,,,,,,13,62,76
13920,note_on,120,0,12,,,,,,,,,12,64,0
13920,note_on,480,0,16,,,,,,,,,3,71,0
13920,note_on,0,0,9,,,,,,,,,8,62,76
13920,note_on,480,0,6,,,,,,,,,5,71,0
13920,note_on,0,0,12,,,,,,,,,12,66,76
13920,note_on,120,0,8,,,,,,,,,7,64,0
13920,note_on,0,0,5,,,,,,,,,4,62,76
13920,note_on,60,0,5,,,,,,,,,4,61,0
13920,note_on,960,0,11,,,,,,,,,11,69,76
13920,note_on,60,0,14,,,,,,,,,14,61,0
13920,note_on,960,0,7,,,,,,,,,6,69,76
13920,note_on,480,0,15,,,,,,,,,2,71,0
13920,note_on,60,0,13,,,,,,,,,13,61,0
13980,note_on,0,0,9,,,,,,,,,8,61,76
13980,note_on,0,0,13,,,,,,,,,13,61,76
13980,note_on,0,0,5,,,,,,,,,4,61,76
13980,note_on,60,0,5,,,,,,,,,4,62,0
13980,note_on,60,0,9,,,,,,,,,8,62,0
13980,note_on,60,0,14,,,,,,,,,14,62,0
13980,note_on,60,0,13,,,,,,,,,13,62,0
13980,note_on,0,0,14,,,,,,,,,14,61,76
14040,note_on,60,0,5,,,,,,,,,4,61,0
14040,note_on,0,0,8,,,,,,,,,7,62,76
14040,note_on,60,0,9,,,,,,,,,8,61,0
14040,note_on,60,0,14,,,,,,,,,14,61,0
14040,note_on,0,0,14,,,,,,,,,14,62,76
14040,note_on,120,0,12,,,,,,,,,12,66,0
14040,note_on,0,0,12,,,,,,,,,12,62,76
14040,note_on,0,0,13,,,,,,,,,13,62,76
14040,note_on,60,0,13,,,,,,,,,13,61,0
14040,note_on,120,0,8,,,,,,,,,7,66,0
14040,note_on,0,0,5,,,,,,,,,4,62,76
14040,note_on,0,0,9,,,,,,,,,8,62,76
14100,note_on,0,0,14,,,,,,,,,14,64,77
14100,note_on,0,0,5,,,,,,,,,4,64,77
14100,note_on,60,0,9,,,,,,,,,8,62,0
14100,note_on,0,0,9,,,,,,,,,8,64,77
14100,note_on,0,0,13,,,,,,,,,13,64,77
14100,note_on,60,0,13,,,,,,,,,13,62,0
14100,note_on,60,0,14,,,,,,,,,14,62,0
14100,note_on,60,0,5,,,,,,,,,4,62,0
14160,note_on,0,0,13,,,,,,,,,13,62,77
14160,note_on,120,0,8,,,,,,,,,7,62,0
14160,note_on,0,0,8,,,,,,,,,7,69,77
14160,note_on,0,0,5,,,,,,,,,4,62,77
14160,note_on,60,0,5,,,,,,,,,4,64,0
14160,note_on,60,0,13,,,,,,,,,13,64,0
14160,note_on,60,0,14,,,,,,,,,14,64,0
14160,note_on,0,0,9,,,,,,,,,8,62,77
14160,note_on,60,0,9,,,,,,,,,8,64,0
14160,note_on,120,0,12,,,,,,,,,12,62,0
14160,note_on,0,0,12,,,,,,,,,12,69,77
14160,note_on,0,0,14,,,,,,,,,14,62,77
14220,note_on,0,0,9,,,,,,,,,8,64,77
14220,note_on,0,0,5,,,,,,,,,4,64,77
14220,note_on,0,0,13,,,,,,,,,13,64,77
14220,note_on,60,0,14,,,,,,,,,14,62,0
14220,note_on,60,0,5,,,,,,,,,4,62,0
14220,note_on,60,0,9,,,,,,,,,8,62,0
14220,note_on,0,0,14,,,,,,,,,14,64,77
14220,note_on,60,0,13,,,,,,,,,13,62,0
14280,note_on,60,0,13,,,,,,,,,13,64,0
14280,note_on,60,0,9,,,,,,,,,8,64,0
14280,note_on,0,0,9,,,,,,,,,8,62,77
14280,note_on,0,0,14,,,,,,,,,14,62,77
14280,note_on,0,0,13,,,,,,,,,13,62,77
14280,note_on,60,0,5,,,,,,,,,4,64,0
14280,note_on,60,0,14,,,,,,,,,14,64,0
14280,note_on,0,0,5,,,,,,,,,4,62,77
14340,note_on,0,0,5,,,,,,,,,4,61,77
14340,note_on,60,0,13,,,,,,,,,13,62,0
14340,note_on,60,0,9,,,,,,,,,8,62,0
14340,note_on,60,0,5,,,,,,,,,4,62,0
14340,note_on,0,0,13,,,,,,,,,13,61,77
14340,note_on,0,0,9,,,,,,,,,8,61,77
14340,note_on,0,0,14,,,,,,,,,14,61,77
14340,note_on,60,0,14,,,,,,,,,14,62,0
14400,note_on,0,0,4,,,,,,,,,3,71,78
14400,note_on,0,0,5,,,,,,,,,4,59,78
14400,note_on,0,0,7,,,,,,,,,6,71,78
14400,note_on,0,0,11,,,,,,,,,11,71,78
14400,note_on,480,0,11,,,,,,,,,11,69,0
14400,note_on,480,0,7,,,,,,,,,6,69,0
14400,note_on,480,0,4,,,,,,,,,3,69,0
14400,note_on,0,0,9,,,,,,,,,8,59,78
14400,note_on,60,0,5,,,,,,,,,4,61,0
14400,note_on,60,0,13,,,,,,,,,13,61,0
14400,note_on,0,0,13,,,,,,,,,13,59,78
14400,note_on,60,0,14,,,,,,,,,14,61,0
14400,note_on,0,0,14,,,,,,,,,14,59,78
14400,note_on,60,0,9,,,,,,,,,8,61,0
14640,note_on,240,0,7,,,,,,,,,6,71,0
14640,note_on,0,0,12,,,,,,,,,12,67,79
14640,note_on,480,0,12,,,,,,,,,12,69,0
14640,note_on,0,0,4,,,,,,,,,3,73,79
14640,note_on,0,0,7,,,,,,,,,6,73,79
14640,note_on,240,0,4,,,,,,,,,3,71,0
14640,note_on,0,0,11,,,,,,,,,11,73,79
14640,note_on,240,0,11,,,,,,,,,11,71,0
14640,note_on,480,0,8,,,,,,,,,7,69,0
14640,note_on,0,0,8,,,,,,,,,7,67,79
14760,note_on,120,0,12,,,,,,,,,12,67,0
14760,note_on,0,0,12,,,,,,,,,12,67,79
14880,note_on,0,0,11,,,,,,,,,11,74,80
14880,note_on,240,0,11,,,,,,,,,11,73,0
14880,note_on,240,0,7,,,,,,,,,6,73,0
14880,note_on,120,0,12,,,,,,,,,12,67,0
14880,note_on,0,0,8,,,,,,,,,7,66,80
14880,note_on,960,0,10,,,,,,,,,10,74,80
14880,note_on,0,0,7,,,,,,,,,6,74,80
14880,note_on,240,0,8,,,,,,,,,7,67,0
14880,note_on,0,0,4,,,,,,,,,3,74,80
14880,note_on,240,0,4,,,,,,,,,3,73,0
14880,note_on,960,0,15,,,,,,,,,2,74,80
14880,note_on,960,0,16,,,,,,,,,3,74,80
14880,note_on,0,0,12,,,,,,,,,12,66,80
14880,note_on,960,0,6,,,,,,,,,5,74,80
14880,note_on,14880,0,2,,,,,,,,,0,74,80
15000,note_on,0,0,5,,,,,,,,,4,61,80
15000,note_on,600,0,9,,,,,,,,,8,59,0
15000,note_on,0,0,9,,,,,,,,,8,61,80
15000,note_on,600,0,13,,,,,,,,,13,59,0
15000,note_on,0,0,13,,,,,,,,,13,61,80
15000,note_on,600,0,14,,,,,,,,,14,59,0
15000,note_on,0,0,14,,,,,,,,,14,61,80
15000,note_on,600,0,5,,,,,,,,,4,59,0
15120,note_on,240,0,7,,,,,,,,,6,74,0
15120,note_on,0,0,7,,,,,,,,,6,73,80
15120,note_on,0,0,14,,,,,,,,,14,62,80
15120,note_on,240,0,11,,,,,,,,,11,74,0
15120,note_on,0,0,11,,,,,,,,,11,73,80
15120,note_on,120,0,5,,,,,,,,,4,61,0
15120,note_on,120,0,13,,,,,,,,,13,61,0
15120,note_on,0,0,4,,,,,,,,,3,73,80
15120,note_on,240,0,4,,,,,,,,,3,74,0
15120,note_on,120,0,9,,,,,,,,,8,61,0
15120,note_on,0,0,9,,,,,,,,,8,62,80
15120,note_on,120,0,14,,,,,,,,,14,61,0
15120,note_on,0,0,5,,,,,,,,,4,62,80
15120,note_on,0,0,13,,,,,,,,,13,62,80
15240,note_on,0,0,4,,,,,,,,,3,71,81
15240,note_on,120,0,4,,,,,,,,,3,73,0
15240,note_on,0,0,7,,,,,,,,,6,71,81
15240,note_on,120,0,7,,,,,,,,,6,73,0
15240,note_on,120,0,11,,,,,,,,,11,73,0
15240,note_on,0,0,11,,,,,,,,,11,71,81
15360,note_on,0,0,14,,,,,,,,,14,57,81
15360,note_on,480,0,6,,,,,,,,,5,74,0
15360,note_on,240,0,14,,,,,,,,,14,62,0
15360,note_on,0,0,8,,,,,,,,,7,64,81
15360,note_on,480,0,8,,,,,,,,,7,66,0
15360,note_on,0,0,15,,,,,,,,,2,76,81
15360,note_on,480,0,15,,,,,,,,,2,74,0
15360,note_on,0,0,5,,,,,,,,,4,57,81
15360,note_on,480,0,12,,,,,,,,,12,66,0
15360,note_on,0,0,12,,,,,,,,,12,64,81
15360,note_on,0,0,6,,,,,,,,,5,76,81
15360,note_on,0,0,4,,,,,,,,,3,73,81
15360,note_on,120,0,4,,,,,,,,,3,71,0
15360,note_on,0,0,16,,,,,,,,,3,76,81
15360,note_on,480,0,16,,,,,,,,,3,74,0
15360,note_on,0,0,2,,,,,,,,,0,76,81
15360,note_on,480,0,2,,,,,,,,,0,74,0
15360,note_on,240,0,5,,,,,,,,,4,62,0
15360,note_on,0,0,13,,,,,,,,,13,57,81
15360,note_on,240,0,13,,,,,,,,,13,62,0
15360,note_on,0,0,7,,,,,,,,,6,73,81
15360,note_on,480,0,10,,,,,,,,,10,74,0
15360,note_on,0,0,10,,,,,,,,,10,76,81
15360,note_on,0,0,9,,,,,,,,,8,57,81
15360,note_on,0,0,11,,,,,,,,,11,73,81
15360,note_on,120,0,11,,,,,,,,,11,71,0
15360,note_on,120,0,7,,,,,,,,,6,71,0
15360,note_on,240,0,9,,,,,,,,,8,62,0
15480,note_on,0,0,11,,,,,,,,,11,69,82
15480,note_on,120,0,11,,,,,,,,,11,73,0
15480,note_on,120,0,7,,,,,,,,,6,73,0
15480,note_on,0,0,7,,,,,,,,,6,69,82
15480,note_on,0,0,13,,,,,,,,,13,57,82
15480,note_on,120,0,13,,,,,,,,,13,57,0
15480,note_on,0,0,4,,,,,,,,,3,69,82
15480,note_on,120,0,4,,,,,,,,,3,73,0
15600,note_on,120,0,11,,,,,,,,,11,69,0
15600,note_on,240,0,12,,,,,,,,,12,64,0
15600,note_on,0,0,11,,,,,,,,,11,74,82
15600,note_on,240,0,5,,,,,,,,,4,57,0
15600,note_on,120,0,7,,,,,,,,,6,69,0
15600,note_on,0,0,9,,,,,,,,,8,55,82
15600,note_on,240,0,9,,,,,,,,,8,57,0
15600,note_on,240,0,15,,,,,,,,,2,76,0
15600,note_on,0,0,15,,,,,,,,,2,78,82
15600,note_on,240,0,6,,,,,,,,,5,76,0
15600,note_on,240,0,16,,,,,,,,,3,76,0
15600,note_on,0,0,12,,,,,,,,,12,57,82
15600,note_on,0,0,5,,,,,,,,,4,55,82
15600,note_on,0,0,13,,,,,,,,,13,55,82
15600,note_on,0,0,10,,,,,,,,,10,78,82
15600,note_on,240,0,8,,,,,,,,,7,64,0
15600,note_on,0,0,8,,,,,,,,,7,57,82
15600,note_on,120,0,13,,,,,,,,,13,57,0
15600,note_on,0,0,4,,,,,,,,,3,74,82
15600,note_on,0,0,6,,,,,,,,,5,78,82
15600,note_on,0,0,14,,,,,,,,,14,55,82
15600,note_on,240,0,14,,,,,,,,,14,57,0
15600,note_on,120,0,4,,,,,,,,,3,69,0
15600,note_on,0,0,2,,,,,,,,,0,78,82
15600,note_on,240,0,2,,,,,,,,,0,76,0
15600,note_on,0,0,7,,,,,,,,,6,74,82
15600,note_on,240,0,10,,,,,,,,,10,76,0
15600,note_on,0,0,16,,,,,,,,,3,78,82
15720,note_on,0,0,14,,,,,,,,,14,54,83
15720,note_on,120,0,9,,,,,,,,,8,55,0
15720,note_on,120,0,14,,,,,,,,,14,55,0
15720,note_on,0,0,9,,,,,,,,,8,54,83
15720,note_on,120,0,5,,,,,,,,,4,55,0
15720,note_on,120,0,13,,,,,,,,,13,55,0
15720,note_on,0,0,13,,,,,,,,,13,54,83
15720,note_on,0,0,5,,,,,,,,,4,54,83
15840,note_on,120,0,13,,,,,,,,,13,54,0
15840,note_on,0,0,13,,,,,,,,,13,52,83
15840,note_on,240,0,6,,,,,,,,,5,78,0
15840,note_on,120,0,5,,,,,,,,,4,54,0
15840,note_on,240,0,8,,,,,,,,,7,57,0
15840,note_on,0,0,16,,,,,,,,,3,79,83
15840,note_on,240,0,16,,,,,,,,,3,78,0
15840,note_on,0,0,15,,,,,,,,,2,79,83
15840,note_on,0,0,5,,,,,,,,,4,52,83
15840,note_on,0,0,8,,,,,,,,,7,59,83
15840,note_on,240,0,15,,,,,,,,,2,78,0
15840,note_on,0,0,6,,,,,,,,,5,79,83
15840,note_on,0,0,9,,,,,,,,,8,52,83
15840,note_on,0,0,14,,,,,,,,,14,52,83
15840,note_on,240,0,2,,,,,,,,,0,78,0
15840,note_on,120,0,9,,,,,,,,,8,54,0
15840,note_on,0,0,2,,,,,,,,,0,79,83
15840,note_on,0,0,10,,,,,,,,,10,79,83
15840,note_on,240,0,12,,,,,,,,,12,57,0
15840,note_on,0,0,12,,,,,,,,,12,59,83
15840,note_on,120,0,14,,,,,,,,,14,54,0
15840,note_on,240,0,10,,,,,,,,,10,78,0
16080,note_on,240,0,6,,,,,,,,,5,79,0
16080,note_on,0,0,5,,,,,,,,,4,57,84
16080,note_on,240,0,5,,,,,,,,,4,52,0
16080,note_on,240,0,15,,,,,,,,,2,79,0
16080,note_on,240,0,9,,,,,,,,,8,52,0
16080,note_on,0,0,15,,,,,,,,,2,78,84
16080,note_on,0,0,7,,,,,,,,,6,73,84
16080,note_on,480,0,7,,,,,,,,,6,74,0
16080,note_on,480,0,11,,,,,,,,,11,74,0
16080,note_on,0,0,11,,,,,,,,,11,73,84
16080,note_on,240,0,16,,,,,,,,,3,79,0
16080,note_on,0,0,8,,,,,,,,,7,61,84
16080,note_on,0,0,4,,,,,,,,,3,73,84
16080,note_on,0,0,12,,,,,,,,,12,61,84
16080,note_on,240,0,10,,,,,,,,,10,79,0
16080,note_on,240,0,12,,,,,,,,,12,59,0
16080,note_on,240,0,14,,,,,,,,,14,52,0
16080,note_on,0,0,6,,,,,,,,,5,78,84
16080,note_on,480,0,4,,,,,,,,,3,74,0
16080,note_on,240,0,2,,,,,,,,,0,79,0
16080,note_on,0,0,2,,,,,,,,,0,78,84
16080,note_on,0,0,14,,,,,,,,,14,57,84
16080,note_on,0,0,16,,,,,,,,,3,78,84
16080,note_on,0,0,9,,,,,,,,,8,57,84
16080,note_on,240,0,13,,,,,,,,,13,52,0
16080,note_on,0,0,10,,,,,,,,,10,78,84
16080,note_on,0,0,13,,,,,,,,,13,57,84
16080,note_on,240,0,8,,,,,,,,,7,59,0
16200,note_on,0,0,11,,,,,,,,,11,73,85
16200,note_on,0,0,10,,,,,,,,,10,76,85
16200,note_on,120,0,6,,,,,,,,,5,78,0
16200,note_on,0,0,6,,,,,,,,,5,76,85
16200,note_on,0,0,15,,,,,,,,,2,76,85
16200,note_on,120,0,15,,,,,,,,,2,78,0
16200,note_on,120,0,11,,,,,,,,,11,73,0
16200,note_on,120,0,10,,,,,,,,,10,78,0
16200,note_on,120,0,16,,,,,,,,,3,78,0
16200,note_on,120,0,2,,,,,,,,,0,78,0
16200,note_on,0,0,2,,,,,,,,,0,76,85
16200,note_on,120,0,13,,,,,,,,,13,57,0
16200,note_on,0,0,16,,,,,,,,,3,76,85
16200,note_on,0,0,13,,,,,,,,,13,57,85
16320,note_on,240,0,9,,,,,,,,,8,57,0
16320,note_on,0,0,8,,,,,,,,,7,62,85
16320,note_on,240,0,8,,,,,,,,,7,61,0
16320,note_on,0,0,9,,,,,,,,,8,50,85
16320,note_on,240,0,4,,,,,,,,,3,73,0
16320,note_on,0,0,15,,,,,,,,,2,78,85
16320,note_on,120,0,15,,,,,,,,,2,76,0
16320,note_on,0,0,12,,,,,,,,,12,62,85
16320,note_on,240,0,12,,,,,,,,,12,61,0
16320,note_on,120,0,16,,,,,,,,,3,76,0
16320,note_on,240,0,5,,,,,,,,,4,57,0
16320,note_on,0,0,5,,,,,,,,,4,50,85
16320,note_on,0,0,2,,,,,,,,,0,78,85
16320,note_on,0,0,6,,,,,,,,,5,78,85
16320,note_on,120,0,6,,,,,,,,,5,76,0
16320,note_on,120,0,13,,,,,,,,,13,57,0
16320,note_on,0,0,13,,,,,,,,,13,50,85
16320,note_on,120,0,2,,,,,,,,,0,76,0
16320,note_on,0,0,10,,,,,,,,,10,78,85
16320,note_on,0,0,16,,,,,,,,,3,78,85
16320,note_on,120,0,10,,,,,,,,,10,76,0
16320,note_on,0,0,4,,,,,,,,,3,71,85
16320,note_on,240,0,7,,,,,,,,,6,73,0
16320,note_on,120,0,11,,,,,,,,,11,73,0
16320,note_on,240,0,14,,,,,,,,,14,57,0
16320,note_on,0,0,14,,,,,,,,,14,50,85
16320,note_on,0,0,11,,,,,,,,,11,71,85
16320,note_on,0,0,7,,,,,,,,,6,71,85
16440,note_on,0,0,2,,,,,,,,,0,74,85
16440,note_on,0,0,10,,,,,,,,,10,74,85
16440,note_on,120,0,2,,,,,,,,,0,78,0
16440,note_on,120,0,15,,,,,,,,,2,78,0
16440,note_on,0,0,6,,,,,,,,,5,74,85
16440,note_on,120,0,6,,,,,,,,,5,78,0
16440,note_on,120,0,10,,,,,,,,,10,78,0
16440,note_on,120,0,16,,,,,,,,,3,78,0
16440,note_on,0,0,16,,,,,,,,,3,74,85
16440,note_on,0,0,15,,,,,,,,,2,74,85
16560,note_on,120,0,15,,,,,,,,,2,74,0
16560,note_on,0,0,12,,,,,,,,,12,61,85
16560,note_on,0,0,16,,,,,,,,,3,79,85
16560,note_on,0,0,5,,,,,,,,,4,52,85
16560,note_on,0,0,2,,,,,,,,,0,79,85
16560,note_on,120,0,2,,,,,,,,,0,74,0
16560,note_on,240,0,14,,,,,,,,,14,50,0
16560,note_on,0,0,6,,,,,,,,,5,79,85
16560,note_on,120,0,6,,,,,,,,,5,74,0
16560,note_on,240,0,13,,,,,,,,,13,50,0
16560,note_on,0,0,13,,,,,,,,,13,52,85
16560,note_on,240,0,5,,,,,,,,,4,50,0
16560,note_on,0,0,15,,,,,,,,,2,79,85
16560,note_on,240,0,12,,,,,,,,,12,62,0
16560,note_on,0,0,14,,,,,,,,,14,52,85
16560,note_on,120,0,16,,,,,,,,,3,74,0
16560,note_on,0,0,10,,,,,,,,,10,79,85
16560,note_on,0,0,9,,,,,,,,,8,52,85
16560,note_on,240,0,9,,,,,,,,,8,50,0
16560,note_on,240,0,8,,,,,,,,,7,62,0
16560,note_on,0,0,8,,,,,,,,,7,61,85
16560,note_on,120,0,10,,,,,,,,,10,74,0
16680,note_on,0,0,12,,,,,,,,,12,59,85
16680,note_on,120,0,12,,,,,,,,,12,61,0
16680,note_on,0,0,8,,,,,,,,,7,59,85
16680,note_on,120,0,8,,,,,,,,,7,61,0
16800,note_on,480,0,7,,,,,,,,,6,71,0
16800,note_on,120,0,12,,,,,,,,,12,59,0
16800,note_on,0,0,12,,,,,,,,,12,61,85
16800,note_on,240,0,9,,,,,,,,,8,52,0
16800,note_on,0,0,7,,,,,,,,,6,69,85
16800,note_on,0,0,5,,,,,,,,,4,45,85
16800,note_on,240,0,5,,,,,,,,,4,52,0
16800,note_on,0,0,9,,,,,,,,,8,45,85
16800,note_on,240,0,14,,,,,,,,,14,52,0
16800,note_on,480,0,11,,,,,,,,,11,71,0
16800,note_on,0,0,14,,,,,,,,,14,45,85
16800,note_on,480,0,4,,,,,,,,,3,71,0
16800,note_on,120,0,8,,,,,,,,,7,59,0
16800,note_on,0,0,8,,,,,,,,,7,61,85
16800,note_on,0,0,4,,,,,,,,,3,69,85
16800,note_on,0,0,11,,,,,,,,,11,69,85
16800,note_on,240,0,13,,,,,,,,,13,52,0
16800,note_on,0,0,13,,,,,,,,,13,45,85
16920,note_on,120,0,8,,,,,,,,,7,61,0
16920,note_on,0,0,8,,,,,,,,,7,57,85
16920,note_on,120,0,12,,,,,,,,,12,61,0
16920,note_on,0,0,12,,,,,,,,,12,57,85
17040,note_on,240,0,4,,,,,,,,,3,69,0
17040,note_on,0,0,2,,,,,,,,,0,78,85
17040,note_on,480,0,6,,,,,,,,,5,79,0
17040,note_on,0,0,4,,,,,,,,,3,62,85
17040,note_on,0,0,8,,,,,,,,,7,62,85
17040,note_on,120,0,8,,,,,,,,,7,57,0
17040,note_on,0,0,6,,,,,,,,,5,78,85
17040,note_on,480,0,2,,,,,,,,,0,79,0
17040,note_on,0,0,16,,,,,,,,,3,78,85
17040,note_on,480,0,10,,,,,,,,,10,79,0
17040,note_on,120,0,12,,,,,,,,,12,57,0
17040,note_on,480,0,16,,,,,,,,,3,79,0
17040,note_on,240,0,7,,,,,,,,,6,69,0
17040,note_on,0,0,7,,,,,,,,,6,62,85
17040,note_on,0,0,11,,,,,,,,,11,62,85
17040,note_on,480,0,15,,,,,,,,,2,79,0
17040,note_on,0,0,15,,,,,,,,,2,78,85
17040,note_on,0,0,10,,,,,,,,,10,78,85
17040,note_on,240,0,11,,,,,,,,,11,69,0
17040,note_on,0,0,12,,,,,,,,,12,62,85
17160,note_on,0,0,10,,,,,,,,,10,78,85
17160,note_on,120,0,10,,,,,,,,,10,78,0
17280,note_on,240,0,15,,,,,,,,,2,78,0
17280,note_on,240,0,11,,,,,,,,,11,62,0
17280,note_on,0,0,16,,,,,,,,,3,76,80
17280,note_on,0,0,15,,,,,,,,,2,76,80
17280,note_on,0,0,11,,,,,,,,,11,64,80
17280,note_on,240,0,6,,,,,,,,,5,78,0
17280,note_on,0,0,7,,,,,,,,,6,64,80
17280,note_on,0,0,2,,,,,,,,,0,76,80
17280,note_on,0,0,6,,,,,,,,,5,76,80
17280,note_on,0,0,4,,,,,,,,,3,64,80
17280,note_on,240,0,4,,,,,,,,,3,62,0
17280,note_on,0,0,10,,,,,,,,,10,76,80
17280,note_on,240,0,7,,,,,,,,,6,62,0
17280,note_on,240,0,16,,,,,,,,,3,78,0
17280,note_on,240,0,2,,,,,,,,,0,78,0
17280,note_on,120,0,10,,,,,,,,,10,78,0
17520,note_on,480,0,12,,,,,,,,,12,62,0
17520,note_on,240,0,4,,,,,,,,,3,64,0
17520,note_on,720,0,13,,,,,,,,,13,45,0
17520,note_on,0,0,13,,,,,,,,,13,46,76
17520,note_on,0,0,4,,,,,,,,,3,66,76
17520,note_on,0,0,12,,,,,,,,,12,61,76
17520,note_on,240,0,7,,,,,,,,,6,64,0
17520,note_on,0,0,11,,,,,,,,,11,66,76
17520,note_on,480,0,8,,,,,,,,,7,62,0
17520,note_on,0,0,7,,,,,,,,,6,66,76
17520,note_on,0,0,9,,,,,,,,,8,46,76
17520,note_on,720,0,9,,,,,,,,,8,45,0
17520,note_on,240,0,11,,,,,,,,,11,64,0
17520,note_on,0,0,14,,,,,,,,,14,46,76
17520,note_on,0,0,5,,,,,,,,,4,46,76
17520,note_on,720,0,5,,,,,,,,,4,45,0
17520,note_on,720,0,14,,,,,,,,,14,45,0
17520,note_on,0,0,8,,,,,,,,,7,61,76
17640,note_on,120,0,12,,,,,,,,,12,61,0
17640,note_on,0,0,12,,,,,,,,,12,61,74
17760,note_on,240,0,14,,,,,,,,,14,46,0
17760,note_on,0,0,14,,,,,,,,,14,47,72
17760,note_on,480,0,10,,,,,,,,,10,76,0
17760,note_on,0,0,8,,,,,,,,,7,59,72
17760,note_on,0,0,9,,,,,,,,,8,47,72
17760,note_on,0,0,6,,,,,,,,,5,74,72
17760,note_on,480,0,6,,,,,,,,,5,76,0
17760,note_on,0,0,4,,,,,,,,,3,67,72
17760,note_on,0,0,12,,,,,,,,,12,59,72
17760,note_on,120,0,12,,,,,,,,,12,61,0
17760,note_on,0,0,11,,,,,,,,,11,67,72
17760,note_on,240,0,11,,,,,,,,,11,66,0
17760,note_on,240,0,8,,,,,,,,,7,61,0
17760,note_on,0,0,2,,,,,,,,,0,74,72
17760,note_on,0,0,10,,,,,,,,,10,74,72
17760,note_on,0,0,15,,,,,,,,,2,74,72
17760,note_on,240,0,5,,,,,,,,,4,46,0
17760,note_on,0,0,5,,,,,,,,,4,47,72
17760,note_on,240,0,7,,,,,,,,,6,66,0
17760,note_on,240,0,9,,,,,,,,,8,46,0
17760,note_on,480,0,2,,,,,,,,,0,76,0
17760,note_on,480,0,16,,,,,,,,,3,76,0
17760,note_on,240,0,13,,,,,,,,,13,46,0
17760,note_on,0,0,13,,,,,,,,,13,47,72
17760,note_on,0,0,16,,,,,,,,,3,74,72
17760,note_on,0,0,7,,,,,,,,,6,67,72
17760,note_on,480,0,15,,,,,,,,,2,76,0
17760,note_on,240,0,4,,,,,,,,,3,66,0
18000,note_on,240,0,11,,,,,,,,,11,67,0
18000,note_on,240,0,14,,,,,,,,,14,47,0
18000,note_on,240,0,7,,,,,,,,,6,67,0
18000,note_on,0,0,14,,,,,,,,,14,49,68
18000,note_on,0,0,4,,,,,,,,,3,66,68
18000,note_on,0,0,11,,,,,,,,,11,66,68
18000,note_on,0,0,7,,,,,,,,,6,66,68
18000,note_on,240,0,4,,,,,,,,,3,67,0
18000,note_on,0,0,5,,,,,,,,,4,49,68
18000,note_on,240,0,9,,,,,,,,,8,47,0
18000,note_on,0,0,9,,,,,,,,,8,49,68
18000,note_on,0,0,13,,,,,,,,,13,49,68
18000,note_on,240,0,13,,,,,,,,,13,47,0
18000,note_on,240,0,5,,,,,,,,,4,47,0
18120,note_on,0,0,11,,,,,,,,,11,64,66
18120,note_on,120,0,11,,,,,,,,,11,66,0
18120,note_on,120,0,7,,,,,,,,,6,66,0
18120,note_on,0,0,7,,,,,,,,,6,64,66
18120,note_on,120,0,4,,,,,,,,,3,66,0
18120,note_on,0,0,4,,,,,,,,,3,64,66
18240,note_on,480,0,12,,,,,,,,,12,59,0
18240,note_on,480,0,10,,,,,,,,,10,74,0
18240,note_on,0,0,12,,,,,,,,,12,57,64
18240,note_on,0,0,9,,,,,,,,,8,50,64
18240,note_on,480,0,16,,,,,,,,,3,74,0
18240,note_on,0,0,4,,,,,,,,,3,66,64
18240,note_on,120,0,4,,,,,,,,,3,64,0
18240,note_on,240,0,9,,,,,,,,,8,49,0
18240,note_on,480,0,2,,,,,,,,,0,74,0
18240,note_on,240,0,13,,,,,,,,,13,49,0
18240,note_on,0,0,7,,,,,,,,,6,66,64
18240,note_on,0,0,5,,,,,,,,,4,50,64
18240,note_on,240,0,5,,,,,,,,,4,49,0
18240,note_on,480,0,15,,,,,,,,,2,74,0
18240,note_on,480,0,8,,,,,,,,,7,59,0
18240,note_on,0,0,11,,,,,,,,,11,66,64
18240,note_on,120,0,11,,,,,,,,,11,64,0
18240,note_on,0,0,14,,,,,,,,,14,50,64
18240,note_on,240,0,14,,,,,,,,,14,49,0
18240,note_on,0,0,13,,,,,,,,,13,50,64
18240,note_on,120,0,7,,,,,,,,,6,64,0
18240,note_on,0,0,8,,,,,,,,,7,57,64
18240,note_on,480,0,6,,,,,,,,,5,74,0
18360,note_on,120,0,11,,,,,,,,,11,66,0
18360,note_on,120,0,7,,,,,,,,,6,66,0
18360,note_on,0,0,11,,,,,,,,,11,62,63
18360,note_on,0,0,4,,,,,,,,,3,62,63
18360,note_on,120,0,4,,,,,,,,,3,66,0
18360,note_on,0,0,7,,,,,,,,,6,62,63
18480,note_on,0,0,8,,,,,,,,,7,64,64
18480,note_on,240,0,8,,,,,,,,,7,57,0
18480,note_on,0,0,4,,,,,,,,,3,69,62
18480,note_on,120,0,4,,,,,,,,,3,62,0
18480,note_on,240,0,13,,,,,,,,,13,50,0
18480,note_on,240,0,9,,,,,,,,,8,50,0
18480,note_on,0,0,9,,,,,,,,,8,48,62
18480,note_on,0,0,13,,,,,,,,,13,48,62
18480,note_on,240,0,14,,,,,,,,,14,50,0
18480,note_on,0,0,14,,,,,,,,,14,48,62
18480,note_on,0,0,5,,,,,,,,,4,48,62
18480,note_on,240,0,12,,,,,,,,,12,57,0
18480,note_on,0,0,7,,,,,,,,,6,69,62
18480,note_on,120,0,7,,,,,,,,,6,62,0
18480,note_on,120,0,11,,,,,,,,,11,62,0
18480,note_on,0,0,11,,,,,,,,,11,69,62
18480,note_on,240,0,5,,,,,,,,,4,50,0
18480,note_on,0,0,12,,,,,,,,,12,64,62
18600,note_on,0,0,13,,,,,,,,,13,48,61
18600,note_on,120,0,8,,,,,,,,,7,64,0
18600,note_on,120,0,13,,,,,,,,,13,48,0
18600,note_on,0,0,8,,,,,,,,,7,64,62
18720,note_on,0,0,14,,,,,,,,,14,47,59
18720,note_on,240,0,14,,,,,,,,,14,48,0
18720,note_on,0,0,5,,,,,,,,,4,47,59
18720,note_on,240,0,5,,,,,,,,,4,48,0
18720,note_on,0,0,9,,,,,,,,,8,47,59
18720,note_on,240,0,9,,,,,,,,,8,48,0
18720,note_on,120,0,8,,,,,,,,,7,64,0
18720,note_on,0,0,8,,,,,,,,,7,63,59
18720,note_on,120,0,13,,,,,,,,,13,48,0
18720,note_on,0,0,13,,,,,,,,,13,47,59
18720,note_on,0,0,12,,,,,,,,,12,63,59
18720,note_on,240,0,12,,,,,,,,,12,64,0
18960,note_on,720,0,6,,,,,,,,,5,76,90
18960,note_on,720,0,10,,,,,,,,,10,76,90
18960,note_on,240,0,5,,,,,,,,,4,47,0
18960,note_on,240,0,12,,,,,,,,,12,63,0
18960,note_on,0,0,5,,,,,,,,,4,52,57
18960,note_on,720,0,15,,,,,,,,,2,76,90
18960,note_on,0,0,14,,,,,,,,,14,52,57
18960,note_on,240,0,8,,,,,,,,,7,63,0
18960,note_on,0,0,8,,,,,,,,,7,59,57
18960,note_on,240,0,14,,,,,,,,,14,47,0
18960,note_on,0,0,12,,,,,,,,,12,59,57
18960,note_on,240,0,13,,,,,,,,,13,47,0
18960,note_on,720,0,16,,,,,,,,,3,76,90
18960,note_on,0,0,7,,,,,,,,,6,67,57
18960,note_on,0,0,4,,,,,,,,,3,67,57
18960,note_on,480,0,4,,,,,,,,,3,69,0
18960,note_on,0,0,11,,,,,,,,,11,67,57
18960,note_on,480,0,11,,,,,,,,,11,69,0
18960,note_on,480,0,7,,,,,,,,,6,69,0
18960,note_on,0,0,13,,,,,,,,,13,52,57
18960,note_on,240,0,9,,,,,,,,,8,47,0
18960,note_on,0,0,9,,,,,,,,,8,52,57
19080,note_on,0,0,11,,,,,,,,,11,67,56
19080,note_on,120,0,11,,,,,,,,,11,67,0
19080,note_on,0,0,13,,,,,,,,,13,52,56
19080,note_on,120,0,13,,,,,,,,,13,52,0
19080,note_on,0,0,12,,,,,,,,,12,59,56
19080,note_on,120,0,12,,,,,,,,,12,59,0
19200,note_on,0,0,14,,,,,,,,,14,45,55
19200,note_on,0,0,4,,,,,,,,,3,66,55
19200,note_on,240,0,4,,,,,,,,,3,67,0
19200,note_on,120,0,13,,,,,,,,,13,52,0
19200,note_on,0,0,13,,,,,,,,,13,45,55
19200,note_on,0,0,11,,,,,,,,,11,66,55
19200,note_on,120,0,11,,,,,,,,,11,67,0
19200,note_on,240,0,5,,,,,,,,,4,52,0
19200,note_on,0,0,7,,,,,,,,,6,66,55
19200,note_on,120,0,12,,,,,,,,,12,59,0
19200,note_on,0,0,12,,,,,,,,,12,60,55
19200,note_on,240,0,7,,,,,,,,,6,67,0
19200,note_on,240,0,14,,,,,,,,,14,52,0
19200,note_on,0,0,5,,,,,,,,,4,45,55
19200,note_on,240,0,9,,,,,,,,,8,52,0
19200,note_on,0,0,9,,,,,,,,,8,45,55
19200,note_on,0,0,8,,,,,,,,,7,60,55
19200,note_on,240,0,8,,,,,,,,,7,59,0
19320,note_on,0,0,6,,,,,,,,,5,76,64
19320,note_on,360,0,6,,,,,,,,,5,76,0
19320,note_on,360,0,16,,,,,,,,,3,76,0
19320,note_on,0,0,16,,,,,,,,,3,76,64
19320,note_on,360,0,10,,,,,,,,,10,76,0
19320,note_on,0,0,10,,,,,,,,,10,76,64
19320,note_on,360,0,15,,,,,,,,,2,76,0
19320,note_on,0,0,15,,,,,,,,,2,76,64
19440,note_on,120,0,6,,,,,,,,,5,76,0
19440,note_on,120,0,16,,,,,,,,,3,76,0
19440,note_on,240,0,12,,,,,,,,,12,60,0
19440,note_on,240,0,8,,,,,,,,,7,60,0
19440,note_on,0,0,8,,,,,,,,,7,59,54
19440,note_on,0,0,9,,,,,,,,,8,47,54
19440,note_on,0,0,12,,,,,,,,,12,59,54
19440,note_on,120,0,15,,,,,,,,,2,76,0
19440,note_on,240,0,5,,,,,,,,,4,45,0
19440,note_on,0,0,5,,,,,,,,,4,47,54
19440,note_on,240,0,13,,,,,,,,,13,45,0
19440,note_on,0,0,13,,,,,,,,,13,47,54
19440,note_on,0,0,16,,,,,,,,,3,75,64
19440,note_on,0,0,15,,,,,,,,,2,75,64
19440,note_on,240,0,9,,,,,,,,,8,45,0
19440,note_on,120,0,10,,,,,,,,,10,76,0
19440,note_on,0,0,14,,,,,,,,,14,47,54
19440,note_on,240,0,14,,,,,,,,,14,45,0
19440,note_on,0,0,10,,,,,,,,,10,75,64
19440,note_on,0,0,6,,,,,,,,,5,75,64
19560,note_on,120,0,16,,,,,,,,,3,75,0
19560,note_on,120,0,6,,,,,,,,,5,75,0
19560,note_on,0,0,6,,,,,,,,,5,75,64
19560,note_on,0,0,15,,,,,,,,,2,75,64
19560,note_on,120,0,15,,,,,,,,,2,75,0
19560,note_on,0,0,16,,,,,,,,,3,75,64
19560,note_on,120,0,10,,,,,,,,,10,75,0
19560,note_on,0,0,10,,,,,,,,,10,75,64
19680,note_on,0,0,11,,,,,,,,,11,64,52
19680,note_on,0,0,16,,,,,,,,,3,76,64
19680,note_on,120,0,6,,,,,,,,,5,75,0
19680,note_on,120,0,16,,,,,,,,,3,75,0
19680,note_on,0,0,14,,,,,,,,,14,40,50
19680,note_on,240,0,14,,,,,,,,,14,47,0
19680,note_on,0,0,10,,,,,,,,,10,76,64
19680,note_on,0,0,13,,,,,,,,,13,52,52
19680,note_on,120,0,10,,,,,,,,,10,75,0
19680,note_on,0,0,12,,,,,,,,,12,55,52
19680,note_on,240,0,12,,,,,,,,,12,59,0
19680,note_on,0,0,4,,,,,,,,,3,64,52
19680,note_on,480,0,4,,,,,,,,,3,66,0
19680,note_on,0,0,7,,,,,,,,,6,64,52
19680,note_on,480,0,7,,,,,,,,,6,66,0
19680,note_on,0,0,6,,,,,,,,,5,76,64
19680,note_on,480,0,11,,,,,,,,,11,66,0
19680,note_on,240,0,13,,,,,,,,,13,47,0
19680,note_on,0,0,5,,,,,,,,,4,40,50
19680,note_on,0,0,9,,,,,,,,,8,40,50
19680,note_on,0,0,15,,,,,,,,,2,76,64
19680,note_on,120,0,15,,,,,,,,,2,75,0
19680,note_on,240,0,8,,,,,,,,,7,59,0
19680,note_on,0,0,8,,,,,,,,,7,55,52
19680,note_on,240,0,9,,,,,,,,,8,47,0
19680,note_on,240,0,5,,,,,,,,,4,47,0
19800,note_on,0,0,15,,,,,,,,,2,74,64
19800,note_on,120,0,16,,,,,,,,,3,76,0
19800,note_on,0,0,6,,,,,,,,,5,74,64
19800,note_on,120,0,6,,,,,,,,,5,76,0
19800,note_on,120,0,10,,,,,,,,,10,76,0
19800,note_on,0,0,16,,,,,,,,,3,74,64
19800,note_on,0,0,10,,,,,,,,,10,74,64
19800,note_on,120,0,15,,,,,,,,,2,76,0
19860,note_on,60,0,10,,,,,,,,,10,74,0
19860,note_on,0,0,10,,,,,,,,,10,72,64
19860,note_on,0,0,16,,,,,,,,,3,72,64
19860,note_on,0,0,6,,,,,,,,,5,72,64
19860,note_on,60,0,6,,,,,,,,,5,74,0
19860,note_on,0,0,15,,,,,,,,,2,72,64
19860,note_on,60,0,15,,,,,,,,,2,74,0
19860,note_on,60,0,16,,,,,,,,,3,74,0
19920,note_on,240,0,12,,,,,,,,,12,55,0
19920,note_on,60,0,16,,,,,,,,,3,72,0
19920,note_on,0,0,16,,,,,,,,,3,71,64
19920,note_on,240,0,9,,,,,,,,,8,40,0
19920,note_on,0,0,14,,,,,,,,,14,67,90
19920,note_on,240,0,4,,,,,,,,,3,64,0
19920,note_on,0,0,4,,,,,,,,,3,67,90
19920,note_on,240,0,11,,,,,,,,,11,64,0
19920,note_on,0,0,15,,,,,,,,,2,71,64
19920,note_on,60,0,10,,,,,,,,,10,72,0
19920,note_on,0,0,10,,,,,,,,,10,71,64
19920,note_on,240,0,14,,,,,,,,,14,40,0
19920,note_on,0,0,11,,,,,,,,,11,67,90
19920,note_on,60,0,6,,,,,,,,,5,72,0
19920,note_on,60,0,15,,,,,,,,,2,72,0
19920,note_on,240,0,7,,,,,,,,,6,64,0
19920,note_on,0,0,7,,,,,,,,,6,67,90
19920,note_on,240,0,13,,,,,,,,,13,52,0
19920,note_on,0,0,6,,,,,,,,,5,71,64
19920,note_on,240,0,8,,,,,,,,,7,55,0
19920,note_on,240,0,5,,,,,,,,,4,40,0
19920,note_on,0,0,9,,,,,,,,,8,67,90
19980,note_on,0,0,6,,,,,,,,,5,72,64
19980,note_on,0,0,15,,,,,,,,,2,72,64
19980,note_on,60,0,15,,,,,,,,,2,71,0
19980,note_on,60,0,16,,,,,,,,,3,71,0
19980,note_on,0,0,16,,,,,,,,,3,72,64
19980,note_on,60,0,10,,,,,,,,,10,71,0
19980,note_on,0,0,10,,,,,,,,,10,72,64
19980,note_on,60,0,6,,,,,,,,,5,71,0
20040,note_on,60,0,16,,,,,,,,,3,72,0
20040,note_on,0,0,15,,,,,,,,,2,69,64
20040,note_on,60,0,6,,,,,,,,,5,72,0
20040,note_on,0,0,6,,,,,,,,,5,69,64
20040,note_on,60,0,10,,,,,,,,,10,72,0
20040,note_on,0,0,10,,,,,,,,,10,69,64
20040,note_on,60,0,15,,,,,,,,,2,72,0
20040,note_on,0,0,16,,,,,,,,,3,69,64
20100,note_on,0,0,15,,,,,,,,,2,71,64
20100,note_on,0,0,6,,,,,,,,,5,71,64
20100,note_on,60,0,10,,,,,,,,,10,69,0
20100,note_on,0,0,10,,,,,,,,,10,71,64
20100,note_on,60,0,15,,,,,,,,,2,69,0
20100,note_on,60,0,16,,,,,,,,,3,69,0
20100,note_on,60,0,6,,,,,,,,,5,69,0
20100,note_on,0,0,16,,,,,,,,,3,71,64
20160,note_on,60,0,6,,,,,,,,,5,71,0
20160,note_on,0,0,6,,,,,,,,,5,72,64
20160,note_on,60,0,15,,,,,,,,,2,71,0
20160,note_on,60,0,10,,,,,,,,,10,71,0
20160,note_on,0,0,10,,,,,,,,,10,72,64
20160,note_on,0,0,15,,,,,,,,,2,72,64
20160,note_on,60,0,16,,,,,,,,,3,71,0
20160,note_on,0,0,16,,,,,,,,,3,72,64
20220,note_on,60,0,16,,,,,,,,,3,72,0
20220,note_on,60,0,10,,,,,,,,,10,72,0
20220,note_on,0,0,10,,,,,,,,,10,71,64
20220,note_on,60,0,15,,,,,,,,,2,72,0
20220,note_on,0,0,15,,,,,,,,,2,71,64
20220,note_on,0,0,16,,,,,,,,,3,71,64
20220,note_on,60,0,6,,,,,,,,,5,72,0
20220,note_on,0,0,6,,,,,,,,,5,71,64
20280,note_on,0,0,15,,,,,,,,,2,72,64
20280,note_on,0,0,14,,,,,,,,,14,67,64
20280,note_on,60,0,10,,,,,,,,,10,71,0
20280,note_on,0,0,10,,,,,,,,,10,72,64
20280,note_on,60,0,6,,,,,,,,,5,71,0
20280,note_on,0,0,6,,,,,,,,,5,72,64
20280,note_on,60,0,15,,,,,,,,,2,71,0
20280,note_on,360,0,9,,,,,,,,,8,67,0
20280,note_on,0,0,9,,,,,,,,,8,67,64
20280,note_on,360,0,11,,,,,,,,,11,67,0
20280,note_on,0,0,7,,,,,,,,,6,67,64
20280,note_on,360,0,14,,,,,,,,,14,67,0
20280,note_on,0,0,4,,,,,,,,,3,67,64
20280,note_on,360,0,4,,,,,,,,,3,67,0
20280,note_on,0,0,11,,,,,,,,,11,67,64
20280,note_on,60,0,16,,,,,,,,,3,71,0
20280,note_on,0,0,16,,,,,,,,,3,72,64
20280,note_on,360,0,7,,,,,,,,,6,67,0
20340,note_on,60,0,10,,,,,,,,,10,72,0
20340,note_on,0,0,10,,,,,,,,,10,74,64
20340,note_on,60,0,6,,,,,,,,,5,72,0
20340,note_on,0,0,16,,,,,,,,,3,74,64
20340,note_on,60,0,16,,,,,,,,,3,72,0
20340,note_on,60,0,15,,,,,,,,,2,72,0
20340,note_on,0,0,15,,,,,,,,,2,74,64
20340,note_on,0,0,6,,,,,,,,,5,74,64
20400,note_on,60,0,6,,,,,,,,,5,74,0
20400,note_on,120,0,14,,,,,,,,,14,67,0
20400,note_on,0,0,14,,,,,,,,,14,66,64
20400,note_on,0,0,6,,,,,,,,,5,72,64
20400,note_on,0,0,9,,,,,,,,,8,66,64
20400,note_on,60,0,15,,,,,,,,,2,74,0
20400,note_on,0,0,7,,,,,,,,,6,66,64
20400,note_on,120,0,7,,,,,,,,,6,67,0
20400,note_on,0,0,4,,,,,,,,,3,66,64
20400,note_on,120,0,4,,,,,,,,,3,67,0
20400,note_on,120,0,11,,,,,,,,,11,67,0
20400,note_on,0,0,15,,,,,,,,,2,72,64
20400,note_on,0,0,16,,,,,,,,,3,72,64
20400,note_on,60,0,16,,,,,,,,,3,74,0
20400,note_on,60,0,10,,,,,,,,,10,74,0
20400,note_on,0,0,10,,,,,,,,,10,72,64
20400,note_on,0,0,11,,,,,,,,,11,66,64
20400,note_on,120,0,9,,,,,,,,,8,67,0
20460,note_on,60,0,15,,,,,,,,,2,72,0
20460,note_on,0,0,15,,,,,,,,,2,76,64
20460,note_on,0,0,16,,,,,,,,,3,76,64
20460,note_on,60,0,10,,,,,,,,,10,72,0
20460,note_on,60,0,6,,,,,,,,,5,72,0
20460,note_on,0,0,10,,,,,,,,,10,76,64
20460,note_on,0,0,6,,,,,,,,,5,76,64
20460,note_on,60,0,16,,,,,,,,,3,72,0
20520,note_on,60,0,15,,,,,,,,,2,76,0
20520,note_on,120,0,4,,,,,,,,,3,66,0
20520,note_on,0,0,15,,,,,,,,,2,74,64
20520,note_on,0,0,10,,,,,,,,,10,74,64
20520,note_on,60,0,10,,,,,,,,,10,76,0
20520,note_on,60,0,16,,,,,,,,,3,76,0
20520,note_on,0,0,16,,,,,,,,,3,74,64
20520,note_on,120,0,14,,,,,,,,,14,66,0
20520,note_on,0,0,14,,,,,,,,,14,66,64
20520,note_on,0,0,4,,,,,,,,,3,66,64
20520,note_on,120,0,9,,,,,,,,,8,66,0
20520,note_on,0,0,11,,,,,,,,,11,66,64
20520,note_on,120,0,11,,,,,,,,,11,66,0
20520,note_on,0,0,6,,,,,,,,,5,74,64
20520,note_on,0,0,7,,,,,,,,,6,66,64
20520,note_on,120,0,7,,,,,,,,,6,66,0
20520,note_on,0,0,9,,,,,,,,,8,66,64
20520,note_on,60,0,6,,,,,,,,,5,76,0
20580,note_on,60,0,15,,,,,,,,,2,74,0
20580,note_on,0,0,15,,,,,,,,,2,72,64
20580,note_on,0,0,16,,,,,,,,,3,72,64
20580,note_on,60,0,16,,,,,,,,,3,74,0
20580,note_on,0,0,6,,,,,,,,,5,72,64
20580,note_on,60,0,6,,,,,,,,,5,74,0
20580,note_on,0,0,10,,,,,,,,,10,72,64
20580,note_on,60,0,10,,,,,,,,,10,74,0
20640,note_on,120,0,9,,,,,,,,,8,66,0
20640,note_on,60,0,10,,,,,,,,,10,72,0
20640,note_on,60,0,15,,,,,,,,,2,72,0
20640,note_on,0,0,11,,,,,,,,,11,67,64
20640,note_on,0,0,9,,,,,,,,,8,67,64
20640,note_on,0,0,10,,,,,,,,,10,71,64
20640,note_on,120,0,11,,,,,,,,,11,66,0
20640,note_on,120,0,14,,,,,,,,,14,66,0
20640,note_on,0,0,4,,,,,,,,,3,67,64
20640,note_on,0,0,16,,,,,,,,,3,71,64
20640,note_on,60,0,16,,,,,,,,,3,72,0
20640,note_on,0,0,14,,,,,,,,,14,67,64
20640,note_on,60,0,6,,,,,,,,,5,72,0
20640,note_on,0,0,6,,,,,,,,,5,71,64
20640,note_on,0,0,7,,,,,,,,,6,67,64
20640,note_on,120,0,4,,,,,,,,,3,66,0
20640,note_on,0,0,15,,,,,,,,,2,71,64
20640,note_on,120,0,7,,,,,,,,,6,66,0
20760,note_on,120,0,7,,,,,,,,,6,67,0
20760,note_on,120,0,15,,,,,,,,,2,71,0
20760,note_on,0,0,16,,,,,,,,,3,73,64
20760,note_on,120,0,6,,,,,,,,,5,71,0
20760,note_on,0,0,11,,,,,,,,,11,66,64
20760,note_on,120,0,11,,,,,,,,,11,67,0
20760,note_on,0,0,7,,,,,,,,,6,66,64
20760,note_on,120,0,16,,,,,,,,,3,71,0
20760,note_on,0,0,6,,,,,,,,,5,73,64
20760,note_on,0,0,15,,,,,,,,,2,73,64
20760,note_on,120,0,14,,,,,,,,,14,67,0
20760,note_on,0,0,4,,,,,,,,,3,66,64
20760,note_on,120,0,4,,,,,,,,,3,67,0
20760,note_on,0,0,14,,,,,,,,,14,66,64
20760,note_on,0,0,10,,,,,,,,,10,73,64
20760,note_on,120,0,10,,,,,,,,,10,71,0
20760,note_on,0,0,9,,,,,,,,,8,66,64
20760,note_on,120,0,9,,,,,,,,,8,67,0
20820,note_on,0,0,10,,,,,,,,,10,73,64
20820,note_on,60,0,10,,,,,,,,,10,73,0
20820,note_on,60,0,7,,,,,,,,,6,66,0
20820,note_on,60,0,4,,,,,,,,,3,66,0
20820,note_on,60,0,9,,,,,,,,,8,66,0
20820,note_on,0,0,9,,,,,,,,,8,64,64
20820,note_on,0,0,14,,,,,,,,,14,64,64
20820,note_on,60,0,11,,,,,,,,,11,66,0
20820,note_on,0,0,11,,,,,,,,,11,64,64
20820,note_on,0,0,7,,,,,,,,,6,64,64
20820,note_on,60,0,14,,,,,,,,,14,66,0
20820,note_on,0,0,4,,,,,,,,,3,64,64
20880,note_on,0,0,15,,,,,,,,,2,74,64
20880,note_on,0,0,4,,,,,,,,,3,62,64
20880,note_on,0,0,11,,,,,,,,,11,62,64
20880,note_on,60,0,11,,,,,,,,,11,64,0
20880,note_on,0,0,14,,,,,,,,,14,59,90
20880,note_on,60,0,14,,,,,,,,,14,64,0
20880,note_on,120,0,15,,,,,,,,,2,73,0
20880,note_on,0,0,9,,,,,,,,,8,59,90
20880,note_on,60,0,4,,,,,,,,,3,64,0
20880,note_on,120,0,6,,,,,,,,,5,73,0
20880,note_on,0,0,6,,,,,,,,,5,74,64
20880,note_on,0,0,7,,,,,,,,,6,62,64
20880,note_on,120,0,16,,,,,,,,,3,73,0
20880,note_on,0,0,16,,,,,,,,,3,74,64
20880,note_on,60,0,9,,,,,,,,,8,64,0
20880,note_on,960,0,8,,,,,,,,,7,59,90
20880,note_on,60,0,10,,,,,,,,,10,73,0
20880,note_on,0,0,10,,,,,,,,,10,74,64
20880,note_on,960,0,12,,,,,,,,,12,59,90
20880,note_on,60,0,7,,,,,,,,,6,64,0
20940,note_on,0,0,4,,,,,,,,,3,64,64
20940,note_on,60,0,4,,,,,,,,,3,62,0
20940,note_on,0,0,7,,,,,,,,,6,64,64
20940,note_on,60,0,7,,,,,,,,,6,62,0
20940,note_on,60,0,11,,,,,,,,,11,62,0
20940,note_on,0,0,11,,,,,,,,,11,64,64
21000,note_on,60,0,4,,,,,,,,,3,64,0
21000,note_on,0,0,7,,,,,,,,,6,61,64
21000,note_on,60,0,11,,,,,,,,,11,64,0
21000,note_on,0,0,11,,,,,,,,,11,61,64
21000,note_on,0,0,4,,,,,,,,,3,66,64
21000,note_on,60,0,7,,,,,,,,,6,64,0
21060,note_on,60,0,4,,,,,,,,,3,66,0
21060,note_on,0,0,4,,,,,,,,,3,62,64
21060,note_on,0,0,7,,,,,,,,,6,62,64
21060,note_on,0,0,11,,,,,,,,,11,62,64
21060,note_on,60,0,11,,,,,,,,,11,61,0
21060,note_on,60,0,7,,,,,,,,,6,61,0
21120,note_on,0,0,4,,,,,,,,,3,64,64
21120,note_on,60,0,4,,,,,,,,,3,62,0
21120,note_on,60,0,11,,,,,,,,,11,62,0
21120,note_on,0,0,15,,,,,,,,,2,67,64
21120,note_on,0,0,11,,,,,,,,,11,64,64
21120,note_on,240,0,6,,,,,,,,,5,74,0
21120,note_on,0,0,7,,,,,,,,,6,64,64
21120,note_on,0,0,10,,,,,,,,,10,67,64
21120,note_on,240,0,10,,,,,,,,,10,74,0
21120,note_on,0,0,16,,,,,,,,,3,67,64
21120,note_on,240,0,16,,,,,,,,,3,74,0
21120,note_on,240,0,15,,,,,,,,,2,74,0
21120,note_on,60,0,7,,,,,,,,,6,62,0
21120,note_on,0,0,6,,,,,,,,,5,67,64
21180,note_on,60,0,7,,,,,,,,,6,64,0
21180,note_on,60,0,4,,,,,,,,,3,64,0
21180,note_on,0,0,4,,,,,,,,,3,62,64
21180,note_on,0,0,7,,,,,,,,,6,62,64
21180,note_on,60,0,11,,,,,,,,,11,64,0
21180,note_on,0,0,11,,,,,,,,,11,62,64
21240,note_on,120,0,6,,,,,,,,,5,67,0
21240,note_on,0,0,8,,,,,,,,,7,59,64
21240,note_on,0,0,11,,,,,,,,,11,64,64
21240,note_on,360,0,12,,,,,,,,,12,59,0
21240,note_on,360,0,8,,,,,,,,,7,59,0
21240,note_on,120,0,10,,,,,,,,,10,67,0
21240,note_on,60,0,11,,,,,,,,,11,62,0
21240,note_on,0,0,6,,,,,,,,,5,64,64
21240,note_on,0,0,16,,,,,,,,,3,64,64
21240,note_on,60,0,7,,,,,,,,,6,62,0
21240,note_on,360,0,14,,,,,,,,,14,59,0
21240,note_on,0,0,14,,,,,,,,,14,59,64
21240,note_on,60,0,4,,,,,,,,,3,62,0
21240,note_on,0,0,4,,,,,,,,,3,64,64
21240,note_on,360,0,9,,,,,,,,,8,59,0
21240,note_on,0,0,9,,,,,,,,,8,59,64
21240,note_on,120,0,16,,,,,,,,,3,67,0
21240,note_on,0,0,15,,,,,,,,,2,64,64
21240,note_on,120,0,15,,,,,,,,,2,67,0
21240,note_on,0,0,7,,,,,,,,,6,64,64
21240,note_on,0,0,12,,,,,,,,,12,59,64
21300,note_on,0,0,4,,,,,,,,,3,66,64
21300,note_on,60,0,4,,,,,,,,,3,64,0
21300,note_on,60,0,7,,,,,,,,,6,64,0
21300,note_on,0,0,11,,,,,,,,,11,66,64
21300,note_on,60,0,11,,,,,,,,,11,64,0
21300,note_on,0,0,7,,,,,,,,,6,66,64
21360,note_on,0,0,12,,,,,,,,,12,58,64
21360,note_on,0,0,9,,,,,,,,,8,58,64
21360,note_on,0,0,14,,,,,,,,,14,58,64
21360,note_on,120,0,14,,,,,,,,,14,59,0
21360,note_on,0,0,6,,,,,,,,,5,73,90
21360,note_on,120,0,6,,,,,,,,,5,64,0
21360,note_on,0,0,8,,,,,,,,,7,58,64
21360,note_on,120,0,8,,,,,,,,,7,59,0
21360,note_on,120,0,10,,,,,,,,,10,73,90
21360,note_on,120,0,12,,,,,,,,,12,59,0
21360,note_on,60,0,7,,,,,,,,,6,66,0
21360,note_on,120,0,9,,,,,,,,,8,59,0
21360,note_on,120,0,16,,,,,,,,,3,64,0
21360,note_on,0,0,16,,,,,,,,,3,73,90
21360,note_on,120,0,15,,,,,,,,,2,64,0
21360,note_on,0,0,15,,,,,,,,,2,73,90
21360,note_on,60,0,11,,,,,,,,,11,66,0
21360,note_on,0,0,11,,,,,,,,,11,64,64
21360,note_on,0,0,4,,,,,,,,,3,64,64
21360,note_on,0,0,7,,,,,,,,,6,64,64
21360,note_on,60,0,4,,,,,,,,,3,66,0
21420,note_on,60,0,4,,,,,,,,,3,64,0
21420,note_on,60,0,11,,,,,,,,,11,64,0
21420,note_on,0,0,4,,,,,,,,,3,67,64
21420,note_on,0,0,11,,,,,,,,,11,67,64
21420,note_on,0,0,7,,,,,,,,,6,67,64
21420,note_on,60,0,7,,,,,,,,,6,64,0
21480,note_on,120,0,14,,,,,,,,,14,58,0
21480,note_on,0,0,14,,,,,,,,,14,58,64
21480,note_on,120,0,9,,,,,,,,,8,58,0
21480,note_on,0,0,9,,,,,,,,,8,58,64
21480,note_on,0,0,11,,,,,,,,,11,66,64
21480,note_on,0,0,12,,,,,,,,,12,58,64
21480,note_on,60,0,7,,,,,,,,,6,67,0
21480,note_on,60,0,11,,,,,,,,,11,67,0
21480,note_on,0,0,8,,,,,,,,,7,58,64
21480,note_on,120,0,8,,,,,,,,,7,58,0
21480,note_on,60,0,4,,,,,,,,,3,67,0
21480,note_on,0,0,4,,,,,,,,,3,66,64
21480,note_on,0,0,7,,,,,,,,,6,66,64
21480,note_on,120,0,12,,,,,,,,,12,58,0
21540,note_on,60,0,7,,,,,,,,,6,66,0
21540,note_on,0,0,7,,,,,,,,,6,64,64
21540,note_on,0,0,4,,,,,,,,,3,64,64
21540,note_on,60,0,11,,,,,,,,,11,66,0
21540,note_on,0,0,11,,,,,,,,,11,64,64
21540,note_on,60,0,4,,,,,,,,,3,66,0
21600,note_on,0,0,8,,,,,,,,,7,59,64
21600,note_on,120,0,9,,,,,,,,,8,58,0
21600,note_on,0,0,14,,,,,,,,,14,59,64
21600,note_on,0,0,7,,,,,,,,,6,62,64
21600,note_on,60,0,7,,,,,,,,,6,64,0
21600,note_on,120,0,14,,,,,,,,,14,58,0
21600,note_on,0,0,12,,,,,,,,,12,59,64
21600,note_on,60,0,4,,,,,,,,,3,64,0
21600,note_on,0,0,4,,,,,,,,,3,62,64
21600,note_on,120,0,8,,,,,,,,,7,58,0
21600,note_on,0,0,9,,,,,,,,,8,59,64
21600,note_on,60,0,11,,,,,,,,,11,64,0
21600,note_on,0,0,11,,,,,,,,,11,62,64
21600,note_on,120,0,12,,,,,,,,,12,58,0
21720,note_on,120,0,4,,,,,,,,,3,62,0
21720,note_on,360,0,10,,,,,,,,,10,73,0
21720,note_on,0,0,10,,,,,,,,,10,73,64
21720,note_on,120,0,11,,,,,,,,,11,62,0
21720,note_on,120,0,14,,,,,,,,,14,59,0
21720,note_on,0,0,11,,,,,,,,,11,64,64
21720,note_on,120,0,9,,,,,,,,,8,59,0
21720,note_on,0,0,9,,,,,,,,,8,57,64
21720,note_on,0,0,14,,,,,,,,,14,57,64
21720,note_on,0,0,7,,,,,,,,,6,64,64
21720,note_on,0,0,12,,,,,,,,,12,57,64
21720,note_on,120,0,12,,,,,,,,,12,59,0
21720,note_on,120,0,7,,,,,,,,,6,62,0
21720,note_on,0,0,4,,,,,,,,,3,64,64
21720,note_on,120,0,8,,,,,,,,,7,59,0
21720,note_on,0,0,8,,,,,,,,,7,57,64
21780,note_on,0,0,14,,,,,,,,,14,55,64
21780,note_on,60,0,8,,,,,,,,,7,57,0
21780,note_on,60,0,9,,,,,,,,,8,57,0
21780,note_on,60,0,14,,,,,,,,,14,57,0
21780,note_on,0,0,11,,,,,,,,,11,64,64
21780,note_on,0,0,12,,,,,,,,,12,55,64
21780,note_on,60,0,12,,,,,,,,,12,57,0
21780,note_on,0,0,9,,,,,,,,,8,55,64
21780,note_on,0,0,8,,,,,,,,,7,55,64
21780,note_on,60,0,11,,,,,,,,,11,64,0
21840,note_on,0,0,12,,,,,,,,,12,54,64
21840,note_on,60,0,12,,,,,,,,,12,55,0
21840,note_on,0,0,7,,,,,,,,,6,66,64
21840,note_on,0,0,8,,,,,,,,,7,54,64
21840,note_on,60,0,8,,,,,,,,,7,55,0
21840,note_on,60,0,11,,,,,,,,,11,64,0
21840,note_on,0,0,11,,,,,,,,,11,66,64
21840,note_on,1920,0,5,,,,,,,,,4,50,90
21840,note_on,60,0,9,,,,,,,,,8,55,0
21840,note_on,0,0,9,,,,,,,,,8,50,90
21840,note_on,120,0,7,,,,,,,,,6,64,0
21840,note_on,1920,0,13,,,,,,,,,13,50,90
21840,note_on,0,0,14,,,,,,,,,14,50,90
21840,note_on,0,0,16,,,,,,,,,3,71,64
21840,note_on,60,0,14,,,,,,,,,14,55,0
21840,note_on,480,0,6,,,,,,,,,5,73,0
21840,note_on,0,0,4,,,,,,,,,3,66,64
21840,note_on,120,0,4,,,,,,,,,3,64,0
21840,note_on,0,0,10,,,,,,,,,10,71,64
21840,note_on,0,0,6,,,,,,,,,5,71,64
21840,note_on,120,0,10,,,,,,,,,10,73,0
21840,note_on,480,0,16,,,,,,,,,3,73,0
21840,note_on,480,0,15,,,,,,,,,2,73,0
21840,note_on,0,0,15,,,,,,,,,2,71,64
21900,note_on,60,0,8,,,,,,,,,7,54,0
21900,note_on,0,0,12,,,,,,,,,12,55,64
21900,note_on,60,0,12,,,,,,,,,12,54,0
21900,note_on,0,0,8,,,,,,,,,7,55,64
21960,note_on,60,0,8,,,,,,,,,7,55,0
21960,note_on,60,0,12,,,,,,,,,12,55,0
21960,note_on,0,0,12,,,,,,,,,12,52,64
21960,note_on,0,0,8,,,,,,,,,7,52,64
21960,note_on,120,0,10,,,,,,,,,10,71,0
21960,note_on,0,0,10,,,,,,,,,10,71,64
22020,note_on,60,0,12,,,,,,,,,12,52,0
22020,note_on,0,0,12,,,,,,,,,12,54,64
22020,note_on,60,0,8,,,,,,,,,7,52,0
22020,note_on,0,0,8,,,,,,,,,7,54,64
22080,note_on,240,0,4,,,,,,,,,3,66,0
22080,note_on,0,0,10,,,,,,,,,10,76,64
22080,note_on,120,0,10,,,,,,,,,10,71,0
22080,note_on,240,0,7,,,,,,,,,6,66,0
22080,note_on,240,0,11,,,,,,,,,11,66,0
22080,note_on,0,0,11,,,,,,,,,11,59,64
22080,note_on,240,0,6,,,,,,,,,5,71,0
22080,note_on,0,0,7,,,,,,,,,6,59,64
22080,note_on,240,0,15,,,,,,,,,2,71,0
22080,note_on,0,0,15,,,,,,,,,2,76,64
22080,note_on,0,0,6,,,,,,,,,5,76,64
22080,note_on,0,0,4,,,,,,,,,3,64,64
22080,note_on,0,0,16,,,,,,,,,3,76,64
22080,note_on,240,0,16,,,,,,,,,3,71,0
22080,note_on,0,0,8,,,,,,,,,7,55,64
22080,note_on,60,0,8,,,,,,,,,7,54,0
22080,note_on,0,0,12,,,,,,,,,12,55,64
22080,note_on,60,0,12,,,,,,,,,12,54,0
22140,note_on,0,0,12,,,,,,,,,12,54,64
22140,note_on,0,0,8,,,,,,,,,7,54,64
22140,note_on,60,0,8,,,,,,,,,7,55,0
22140,note_on,60,0,12,,,,,,,,,12,55,0
22200,note_on,0,0,10,,,,,,,,,10,76,64
22200,note_on,60,0,8,,,,,,,,,7,54,0
22200,note_on,120,0,10,,,,,,,,,10,76,0
22200,note_on,120,0,7,,,,,,,,,6,59,0
22200,note_on,0,0,7,,,,,,,,,6,59,64
22200,note_on,360,0,5,,,,,,,,,4,50,0
22200,note_on,360,0,13,,,,,,,,,13,50,0
22200,note_on,60,0,12,,,,,,,,,12,54,0
22200,note_on,0,0,12,,,,,,,,,12,55,64
22200,note_on,360,0,9,,,,,,,,,8,50,0
22200,note_on,0,0,9,,,,,,,,,8,50,64
22200,note_on,0,0,14,,,,,,,,,14,50,64
22200,note_on,360,0,14,,,,,,,,,14,50,0
22200,note_on,0,0,8,,,,,,,,,7,55,64
22200,note_on,0,0,13,,,,,,,,,13,50,64
22200,note_on,0,0,5,,,,,,,,,4,50,64
22200,note_on,120,0,11,,,,,,,,,11,59,0
22260,note_on,60,0,12,,,,,,,,,12,55,0
22260,note_on,0,0,12,,,,,,,,,12,57,64
22260,note_on,0,0,8,,,,,,,,,7,57,64
22260,note_on,60,0,8,,,,,,,,,7,55,0
22260,note_on,60,0,10,,,,,,,,,10,76,0
22260,note_on,0,0,10,,,,,,,,,10,76,64
22320,note_on,240,0,16,,,,,,,,,3,76,0
22320,note_on,0,0,15,,,,,,,,,2,69,64
22320,note_on,240,0,15,,,,,,,,,2,76,0
22320,note_on,0,0,8,,,,,,,,,7,55,64
22320,note_on,60,0,8,,,,,,,,,7,57,0
22320,note_on,0,0,14,,,,,,,,,14,49,64
22320,note_on,120,0,14,,,,,,,,,14,50,0
22320,note_on,120,0,9,,,,,,,,,8,50,0
22320,note_on,0,0,9,,,,,,,,,8,49,64
22320,note_on,0,0,7,,,,,,,,,6,64,64
22320,note_on,120,0,5,,,,,,,,,4,50,0
22320,note_on,0,0,13,,,,,,,,,13,49,64
22320,note_on,0,0,16,,,,,,,,,3,69,64
22320,note_on,120,0,13,,,,,,,,,13,50,0
22320,note_on,0,0,10,,,,,,,,,10,69,64
22320,note_on,120,0,11,,,,,,,,,11,64,64
22320,note_on,60,0,10,,,,,,,,,10,76,0
22320,note_on,240,0,6,,,,,,,,,5,76,0
22320,note_on,0,0,6,,,,,,,,,5,69,64
22320,note_on,120,0,7,,,,,,,,,6,59,0
22320,note_on,0,0,5,,,,,,,,,4,49,64
22320,note_on,0,0,12,,,,,,,,,12,55,64
22320,note_on,60,0,12,,,,,,,,,12,57,0
22380,note_on,60,0,12,,,,,,,,,12,55,0
22380,note_on,0,0,8,,,,,,,,,7,59,64
22380,note_on,60,0,8,,,,,,,,,7,55,0
22380,note_on,0,0,12,,,,,,,,,12,59,64
22440,note_on,120,0,5,,,,,,,,,4,49,0
22440,note_on,0,0,9,,,,,,,,,8,49,64
22440,note_on,120,0,9,,,,,,,,,8,49,0
22440,note_on,0,0,5,,,,,,,,,4,49,64
22440,note_on,0,0,13,,,,,,,,,13,49,64
22440,note_on,60,0,12,,,,,,,,,12,59,0
22440,note_on,0,0,14,,,,,,,,,14,49,64
22440,note_on,60,0,8,,,,,,,,,7,59,0
22440,note_on,120,0,14,,,,,,,,,14,49,0
22440,note_on,0,0,8,,,,,,,,,7,57,64
22440,note_on,0,0,12,,,,,,,,,12,57,64
22440,note_on,120,0,13,,,,,,,,,13,49,0
22500,note_on,60,0,8,,,,,,,,,7,57,0
22500,note_on,0,0,8,,,,,,,,,7,55,64
22500,note_on,0,0,12,,,,,,,,,12,55,64
22500,note_on,60,0,12,,,,,,,,,12,57,0
22560,note_on,120,0,5,,,,,,,,,4,49,0
22560,note_on,0,0,12,,,,,,,,,12,54,64
22560,note_on,0,0,5,,,,,,,,,4,50,64
22560,note_on,240,0,10,,,,,,,,,10,69,0
22560,note_on,120,0,9,,,,,,,,,8,49,0
22560,note_on,60,0,12,,,,,,,,,12,55,0
22560,note_on,120,0,13,,,,,,,,,13,49,0
22560,note_on,0,0,13,,,,,,,,,13,50,64
22560,note_on,0,0,14,,,,,,,,,14,50,64
22560,note_on,120,0,14,,,,,,,,,14,49,0
22560,note_on,60,0,8,,,,,,,,,7,55,0
22560,note_on,0,0,8,,,,,,,,,7,54,64
22560,note_on,0,0,9,,,,,,,,,8,50,64
22560,note_on,0,0,10,,,,,,,,,10,69,64
22680,note_on,120,0,10,,,,,,,,,10,69,0
22680,note_on,360,0,7,,,,,,,,,6,64,0
22680,note_on,120,0,8,,,,,,,,,7,54,0
22680,note_on,0,0,12,,,,,,,,,12,55,64
22680,note_on,120,0,12,,,,,,,,,12,54,0
22680,note_on,0,0,5,,,,,,,,,4,49,64
22680,note_on,120,0,5,,,,,,,,,4,50,0
22680,note_on,0,0,7,,,,,,,,,6,62,64
22680,note_on,0,0,11,,,,,,,,,11,62,64
22680,note_on,0,0,8,,,,,,,,,7,55,64
22680,note_on,360,0,11,,,,,,,,,11,64,0
22680,note_on,0,0,9,,,,,,,,,8,49,64
22680,note_on,120,0,14,,,,,,,,,14,50,0
22680,note_on,120,0,9,,,,,,,,,8,50,0
22680,note_on,600,0,4,,,,,,,,,3,64,0
22680,note_on,0,0,4,,,,,,,,,3,62,64
22680,note_on,120,0,13,,,,,,,,,13,50,0
22680,note_on,0,0,13,,,,,,,,,13,49,64
22680,note_on,0,0,14,,,,,,,,,14,49,64
22740,note_on,0,0,14,,,,,,,,,14,47,64
22740,note_on,60,0,5,,,,,,,,,4,49,0
22740,note_on,0,0,9,,,,,,,,,8,47,64
22740,note_on,60,0,14,,,,,,,,,14,49,0
22740,note_on,0,0,12,,,,,,,,,12,55,64
22740,note_on,0,0,13,,,,,,,,,13,47,64
22740,note_on,60,0,13,,,,,,,,,13,49,0
22740,note_on,60,0,9,,,,,,,,,8,49,0
22740,note_on,60,0,12,,,,,,,,,12,55,0
22740,note_on,0,0,5,,,,,,,,,4,47,64
22800,note_on,0,0,14,,,,,,,,,14,45,64
22800,note_on,60,0,14,,,,,,,,,14,47,0
22800,note_on,0,0,7,,,,,,,,,6,61,64
22800,note_on,120,0,11,,,,,,,,,11,62,0
22800,note_on,0,0,11,,,,,,,,,11,61,64
22800,note_on,0,0,16,,,,,,,,,3,78,90
22800,note_on,480,0,16,,,,,,,,,3,69,0
22800,note_on,120,0,8,,,,,,,,,7,55,0
22800,note_on,0,0,8,,,,,,,,,7,57,64
22800,note_on,0,0,13,,,,,,,,,13,45,64
22800,note_on,60,0,13,,,,,,,,,13,47,0
22800,note_on,0,0,15,,,,,,,,,2,78,90
22800,note_on,480,0,15,,,,,,,,,2,69,0
22800,note_on,0,0,4,,,,,,,,,3,64,64
22800,note_on,120,0,4,,,,,,,,,3,62,0
22800,note_on,480,0,6,,,,,,,,,5,69,0
22800,note_on,0,0,6,,,,,,,,,5,78,90
22800,note_on,120,0,7,,,,,,,,,6,62,0
22800,note_on,60,0,9,,,,,,,,,8,47,0
22800,note_on,0,0,12,,,,,,,,,12,57,64
22800,note_on,120,0,10,,,,,,,,,10,78,90
22800,note_on,0,0,5,,,,,,,,,4,45,64
22800,note_on,60,0,12,,,,,,,,,12,55,0
22800,note_on,60,0,5,,,,,,,,,4,47,0
22800,note_on,0,0,9,,,,,,,,,8,45,64
22860,note_on,60,0,9,,,,,,,,,8,45,0
22860,note_on,60,0,5,,,,,,,,,4,45,0
22860,note_on,60,0,13,,,,,,,,,13,45,0
22860,note_on,0,0,13,,,,,,,,,13,47,64
22860,note_on,60,0,14,,,,,,,,,14,45,0
22860,note_on,0,0,14,,,,,,,,,14,47,64
22860,note_on,0,0,5,,,,,,,,,4,47,64
22860,note_on,0,0,9,,,,,,,,,8,47,64
22920,note_on,0,0,11,,,,,,,,,11,69,64
22920,note_on,0,0,9,,,,,,,,,8,44,64
22920,note_on,60,0,9,,,,,,,,,8,47,0
22920,note_on,0,0,4,,,,,,,,,3,69,64
22920,note_on,120,0,4,,,,,,,,,3,64,0
22920,note_on,120,0,7,,,,,,,,,6,61,0
22920,note_on,60,0,5,,,,,,,,,4,47,0
22920,note_on,0,0,5,,,,,,,,,4,44,64
22920,note_on,60,0,14,,,,,,,,,14,47,0
22920,note_on,0,0,14,,,,,,,,,14,44,64
22920,note_on,0,0,7,,,,,,,,,6,69,64
22920,note_on,60,0,13,,,,,,,,,13,47,0
22920,note_on,120,0,11,,,,,,,,,11,61,0
22920,note_on,0,0,13,,,,,,,,,13,44,64
22980,note_on,60,0,9,,,,,,,,,8,44,0
22980,note_on,0,0,9,,,,,,,,,8,45,64
22980,note_on,0,0,13,,,,,,,,,13,45,64
22980,note_on,60,0,13,,,,,,,,,13,44,0
22980,note_on,0,0,14,,,,,,,,,14,45,64
22980,note_on,0,0,5,,,,,,,,,4,45,64
22980,note_on,60,0,14,,,,,,,,,14,44,0
22980,note_on,60,0,5,,,,,,,,,4,44,0
23040,note_on,0,0,8,,,,,,,,,7,50,64
23040,note_on,240,0,12,,,,,,,,,12,57,0
23040,note_on,60,0,14,,,,,,,,,14,45,0
23040,note_on,0,0,13,,,,,,,,,13,47,64
23040,note_on,0,0,12,,,,,,,,,12,50,64
23040,note_on,0,0,14,,,,,,,,,14,47,64
23040,note_on,120,0,11,,,,,,,,,11,69,0
23040,note_on,0,0,11,,,,,,,,,11,68,64
23040,note_on,60,0,13,,,,,,,,,13,45,0
23040,note_on,0,0,9,,,,,,,,,8,47,64
23040,note_on,0,0,4,,,,,,,,,3,68,64
23040,note_on,0,0,5,,,,,,,,,4,47,64
23040,note_on,120,0,4,,,,,,,,,3,69,0
23040,note_on,60,0,9,,,,,,,,,8,45,0
23040,note_on,0,0,7,,,,,,,,,6,68,64
23040,note_on,240,0,8,,,,,,,,,7,57,0
23040,note_on,120,0,7,,,,,,,,,6,69,0
23040,note_on,60,0,5,,,,,,,,,4,45,0
23100,note_on,0,0,9,,,,,,,,,8,45,64
23100,note_on,60,0,13,,,,,,,,,13,47,0
23100,note_on,60,0,5,,,,,,,,,4,47,0
23100,note_on,60,0,14,,,,,,,,,14,47,0
23100,note_on,0,0,14,,,,,,,,,14,45,64
23100,note_on,60,0,9,,,,,,,,,8,47,0
23100,note_on,0,0,5,,,,,,,,,4,45,64
23100,note_on,0,0,13,,,,,,,,,13,45,64
23160,note_on,0,0,6,,,,,,,,,5,78,64
23160,note_on,0,0,10,,,,,,,,,10,78,64
23160,note_on,360,0,15,,,,,,,,,2,78,0
23160,note_on,0,0,15,,,,,,,,,2,78,64
23160,note_on,0,0,9,,,,,,,,,8,47,64
23160,note_on,360,0,6,,,,,,,,,5,78,0
23160,note_on,360,0,10,,,,,,,,,10,78,0
23160,note_on,60,0,5,,,,,,,,,4,45,0
23160,note_on,60,0,9,,,,,,,,,8,45,0
23160,note_on,0,0,8,,,,,,,,,7,62,64
23160,note_on,0,0,12,,,,,,,,,12,62,64
23160,note_on,120,0,12,,,,,,,,,12,50,0
23160,note_on,360,0,16,,,,,,,,,3,78,0
23160,note_on,0,0,16,,,,,,,,,3,78,64
23160,note_on,0,0,5,,,,,,,,,4,47,64
23160,note_on,0,0,11,,,,,,,,,11,68,64
23160,note_on,120,0,11,,,,,,,,,11,68,0
23160,note_on,60,0,14,,,,,,,,,14,45,0
23160,note_on,0,0,14,,,,,,,,,14,47,64
23160,note_on,0,0,13,,,,,,,,,13,47,64
23160,note_on,60,0,13,,,,,,,,,13,45,0
23160,note_on,120,0,8,,,,,,,,,7,50,0
23220,note_on,0,0,12,,,,,,,,,12,62,64
23220,note_on,60,0,12,,,,,,,,,12,62,0
23220,note_on,60,0,14,,,,,,,,,14,47,0
23220,note_on,0,0,11,,,,,,,,,11,68,64
23220,note_on,60,0,5,,,,,,,,,4,47,0
23220,note_on,0,0,5,,,,,,,,,4,49,64
23220,note_on,0,0,13,,,,,,,,,13,49,64
23220,note_on,0,0,9,,,,,,,,,8,49,64
23220,note_on,60,0,9,,,,,,,,,8,47,0
23220,note_on,60,0,13,,,,,,,,,13,47,0
23220,note_on,0,0,14,,,,,,,,,14,49,64
23220,note_on,60,0,11,,,,,,,,,11,68,0
23280,note_on,120,0,8,,,,,,,,,7,62,0
23280,note_on,0,0,8,,,,,,,,,7,61,64
23280,note_on,60,0,13,,,,,,,,,13,49,0
23280,note_on,240,0,7,,,,,,,,,6,68,0
23280,note_on,0,0,7,,,,,,,,,6,68,64
23280,note_on,0,0,13,,,,,,,,,13,47,64
23280,note_on,0,0,6,,,,,,,,,5,77,64
23280,note_on,0,0,15,,,,,,,,,2,77,64
23280,note_on,60,0,11,,,,,,,,,11,68,0
23280,note_on,60,0,12,,,,,,,,,12,62,0
23280,note_on,0,0,5,,,,,,,,,4,47,64
23280,note_on,0,0,10,,,,,,,,,10,77,64
23280,note_on,120,0,10,,,,,,,,,10,78,0
23280,note_on,120,0,15,,,,,,,,,2,78,0
23280,note_on,0,0,9,,,,,,,,,8,47,64
23280,note_on,60,0,9,,,,,,,,,8,49,0
23280,note_on,0,0,11,,,,,,,,,11,68,64
23280,note_on,0,0,12,,,,,,,,,12,61,64
23280,note_on,0,0,14,,,,,,,,,14,47,64
23280,note_on,60,0,14,,,,,,,,,14,49,0
23280,note_on,60,0,5,,,,,,,,,4,49,0
23280,note_on,120,0,16,,,,,,,,,3,78,0
23280,note_on,0,0,16,,,,,,,,,3,77,64
23280,note_on,120,0,6,,,,,,,,,5,78,0
23340,note_on,60,0,9,,,,,,,,,8,47,0
23340,note_on,0,0,13,,,,,,,,,13,50,64
23340,note_on,60,0,13,,,,,,,,,13,47,0
23340,note_on,60,0,14,,,,,,,,,14,47,0
23340,note_on,0,0,14,,,,,,,,,14,50,64
23340,note_on,0,0,9,,,,,,,,,8,50,64
23340,note_on,0,0,5,,,,,,,,,4,50,64
23340,note_on,60,0,5,,,,,,,,,4,47,0
23400,note_on,0,0,13,,,,,,,,,13,49,64
23400,note_on,60,0,13,,,,,,,,,13,50,0
23400,note_on,0,0,8,,,,,,,,,7,61,64
23400,note_on,120,0,8,,,,,,,,,7,61,0
23400,note_on,0,0,6,,,,,,,,,5,77,64
23400,note_on,0,0,15,,,,,,,,,2,77,64
23400,note_on,60,0,14,,,,,,,,,14,50,0
23400,note_on,0,0,14,,,,,,,,,14,49,64
23400,note_on,0,0,5,,,,,,,,,4,49,64
23400,note_on,60,0,5,,,,,,,,,4,50,0
23400,note_on,60,0,9,,,,,,,,,8,50,0
23400,note_on,0,0,9,,,,,,,,,8,49,64
23400,note_on,120,0,6,,,,,,,,,5,77,0
23400,note_on,120,0,16,,,,,,,,,3,77,0
23400,note_on,0,0,16,,,,,,,,,3,77,64
23400,note_on,0,0,10,,,,,,,,,10,77,64
23400,note_on,120,0,10,,,,,,,,,10,77,0
23400,note_on,120,0,15,,,,,,,,,2,77,0
23400,note_on,0,0,12,,,,,,,,,12,61,64
23400,note_on,120,0,12,,,,,,,,,12,61,0
23460,note_on,60,0,9,,,,,,,,,8,49,0
23460,note_on,60,0,13,,,,,,,,,13,49,0
23460,note_on,0,0,9,,,,,,,,,8,47,64
23460,note_on,0,0,5,,,,,,,,,4,47,64
23460,note_on,60,0,14,,,,,,,,,14,49,0
23460,note_on,0,0,14,,,,,,,,,14,47,64
23460,note_on,0,0,13,,,,,,,,,13,47,64
23460,note_on,60,0,5,,,,,,,,,4,49,0
23520,note_on,0,0,4,,,,,,,,,3,66,64
23520,note_on,60,0,14,,,,,,,,,14,47,0
23520,note_on,120,0,15,,,,,,,,,2,77,0
23520,note_on,0,0,15,,,,,,,,,2,78,64
23520,note_on,0,0,10,,,,,,,,,10,78,64
23520,note_on,480,0,4,,,,,,,,,3,68,0
23520,note_on,0,0,16,,,,,,,,,3,78,64
23520,note_on,120,0,16,,,,,,,,,3,77,0
23520,note_on,60,0,13,,,,,,,,,13,47,0
23520,note_on,120,0,10,,,,,,,,,10,77,0
23520,note_on,0,0,9,,,,,,,,,8,45,64
23520,note_on,0,0,12,,,,,,,,,12,61,64
23520,note_on,0,0,8,,,,,,,,,7,61,64
23520,note_on,120,0,8,,,,,,,,,7,61,0
23520,note_on,120,0,6,,,,,,,,,5,77,0
23520,note_on,0,0,11,,,,,,,,,11,66,64
23520,note_on,0,0,6,,,,,,,,,5,78,64
23520,note_on,0,0,5,,,,,,,,,4,45,64
23520,note_on,60,0,5,,,,,,,,,4,47,0
23520,note_on,60,0,9,,,,,,,,,8,47,0
23520,note_on,0,0,13,,,,,,,,,13,45,64
23520,note_on,240,0,7,,,,,,,,,6,68,0
23520,note_on,0,0,7,,,,,,,,,6,66,64
23520,note_on,120,0,12,,,,,,,,,12,61,0
23520,note_on,240,0,11,,,,,,,,,11,68,0
23520,note_on,0,0,14,,,,,,,,,14,45,64
23640,note_on,0,0,8,,,,,,,,,7,62,64
23640,note_on,0,0,14,,,,,,,,,14,47,64
23640,note_on,120,0,8,,,,,,,,,7,61,0
23640,note_on,120,0,10,,,,,,,,,10,78,0
23640,note_on,0,0,10,,,,,,,,,10,76,64
23640,note_on,0,0,5,,,,,,,,,4,47,64
23640,note_on,120,0,14,,,,,,,,,14,45,0
23640,note_on,120,0,15,,,,,,,,,2,78,0
23640,note_on,0,0,15,,,,,,,,,2,76,64
23640,note_on,120,0,5,,,,,,,,,4,45,0
23640,note_on,0,0,13,,,,,,,,,13,47,64
23640,note_on,120,0,12,,,,,,,,,12,61,0
23640,note_on,0,0,9,,,,,,,,,8,47,64
23640,note_on,120,0,9,,,,,,,,,8,45,0
23640,note_on,0,0,12,,,,,,,,,12,62,64
23640,note_on,0,0,6,,,,,,,,,5,76,64
23640,note_on,120,0,6,,,,,,,,,5,78,0
23640,note_on,120,0,16,,,,,,,,,3,78,0
23640,note_on,0,0,16,,,,,,,,,3,76,64
23640,note_on,120,0,13,,,,,,,,,13,45,0
23700,note_on,60,0,12,,,,,,,,,12,62,0
23700,note_on,0,0,12,,,,,,,,,12,62,64
23700,note_on,0,0,15,,,,,,,,,2,74,64
23700,note_on,60,0,15,,,,,,,,,2,76,0
23700,note_on,60,0,16,,,,,,,,,3,76,0
23700,note_on,0,0,16,,,,,,,,,3,74,64
23700,note_on,0,0,13,,,,,,,,,13,47,64
23700,note_on,60,0,13,,,,,,,,,13,47,0
23700,note_on,60,0,6,,,,,,,,,5,76,0
23700,note_on,0,0,6,,,,,,,,,5,74,64
23700,note_on,60,0,10,,,,,,,,,10,76,0
23700,note_on,0,0,10,,,,,,,,,10,74,64
23760,note_on,0,0,8,,,,,,,,,7,64,64
23760,note_on,0,0,10,,,,,,,,,10,73,64
23760,note_on,240,0,11,,,,,,,,,11,66,0
23760,note_on,60,0,6,,,,,,,,,5,74,0
23760,note_on,0,0,6,,,,,,,,,5,73,64
23760,note_on,60,0,10,,,,,,,,,10,74,0
23760,note_on,120,0,5,,,,,,,,,4,47,0
23760,note_on,0,0,5,,,,,,,,,4,49,64
23760,note_on,120,0,8,,,,,,,,,7,62,0
23760,note_on,0,0,9,,,,,,,,,8,49,64
23760,note_on,120,0,9,,,,,,,,,8,47,0
23760,note_on,60,0,16,,,,,,,,,3,74,0
23760,note_on,60,0,12,,,,,,,,,12,62,0
23760,note_on,0,0,15,,,,,,,,,2,73,64
23760,note_on,0,0,16,,,,,,,,,3,73,64
23760,note_on,0,0,12,,,,,,,,,12,64,64
23760,note_on,240,0,4,,,,,,,,,3,66,0
23760,note_on,120,0,14,,,,,,,,,14,47,0
23760,note_on,60,0,13,,,,,,,,,13,47,0
23760,note_on,0,0,13,,,,,,,,,13,49,64
23760,note_on,0,0,14,,,,,,,,,14,49,64
23760,note_on,60,0,15,,,,,,,,,2,74,0
23760,note_on,240,0,7,,,,,,,,,6,66,0
23820,note_on,0,0,6,,,,,,,,,5,74,64
23820,note_on,0,0,10,,,,,,,,,10,74,64
23820,note_on,60,0,15,,,,,,,,,2,73,0
23820,note_on,60,0,10,,,,,,,,,10,73,0
23820,note_on,0,0,15,,,,,,,,,2,74,64
23820,note_on,60,0,16,,,,,,,,,3,73,0
23820,note_on,0,0,16,,,,,,,,,3,74,64
23820,note_on,60,0,6,,,,,,,,,5,73,0
23880,note_on,60,0,15,,,,,,,,,2,74,0
23880,note_on,0,0,15,,,,,,,,,2,71,64
23880,note_on,60,0,16,,,,,,,,,3,74,0
23880,note_on,0,0,10,,,,,,,,,10,71,64
23880,note_on,0,0,6,,,,,,,,,5,71,64
23880,note_on,0,0,16,,,,,,,,,3,71,64
23880,note_on,60,0,10,,,,,,,,,10,74,0
23880,note_on,60,0,6,,,,,,,,,5,74,0
23940,note_on,0,0,16,,,,,,,,,3,73,64
23940,note_on,0,0,6,,,,,,,,,5,73,64
23940,note_on,0,0,10,,,,,,,,,10,73,64
23940,note_on,60,0,10,,,,,,,,,10,71,0
23940,note_on,60,0,16,,,,,,,,,3,71,0
23940,note_on,60,0,6,,,,,,,,,5,71,0
23940,note_on,0,0,15,,,,,,,,,2,73,64
23940,note_on,60,0,15,,,,,,,,,2,71,0
24000,note_on,0,0,12,,,,,,,,,12,57,64
24000,note_on,60,0,10,,,,,,,,,10,73,0
24000,note_on,240,0,9,,,,,,,,,8,49,0
24000,note_on,0,0,9,,,,,,,,,8,42,64
24000,note_on,0,0,10,,,,,,,,,10,74,64
24000,note_on,240,0,12,,,,,,,,,12,64,0
24000,note_on,60,0,15,,,,,,,,,2,73,0
24000,note_on,0,0,13,,,,,,,,,13,42,64
24000,note_on,60,0,16,,,,,,,,,3,73,0
24000,note_on,0,0,15,,,,,,,,,2,74,64
24000,note_on,0,0,16,,,,,,,,,3,74,64
24000,note_on,0,0,6,,,,,,,,,5,74,64
24000,note_on,60,0,6,,,,,,,,,5,73,0
24000,note_on,0,0,14,,,,,,,,,14,42,64
24000,note_on,240,0,14,,,,,,,,,14,49,0
24000,note_on,0,0,5,,,,,,,,,4,42,64
24000,note_on,240,0,5,,,,,,,,,4,49,0
24000,note_on,240,0,13,,,,,,,,,13,49,0
24000,note_on,0,0,8,,,,,,,,,7,57,64
24000,note_on,240,0,8,,,,,,,,,7,64,0
24060,note_on,0,0,16,,,,,,,,,3,73,64
24060,note_on,0,0,10,,,,,,,,,10,73,64
24060,note_on,60,0,16,,,,,,,,,3,74,0
24060,note_on,60,0,15,,,,,,,,,2,74,0
24060,note_on,60,0,10,,,,,,,,,10,74,0
24060,note_on,60,0,6,,,,,,,,,5,74,0
24060,note_on,0,0,6,,,,,,,,,5,73,64
24060,note_on,0,0,15,,,,,,,,,2,73,64
24120,note_on,60,0,15,,,,,,,,,2,73,0
24120,note_on,120,0,5,,,,,,,,,4,42,0
24120,note_on,120,0,14,,,,,,,,,14,42,0
24120,note_on,0,0,14,,,,,,,,,14,54,64
24120,note_on,0,0,16,,,,,,,,,3,74,64
24120,note_on,60,0,16,,,,,,,,,3,73,0
24120,note_on,0,0,6,,,,,,,,,5,74,64
24120,note_on,120,0,13,,,,,,,,,13,42,0
24120,note_on,60,0,6,,,,,,,,,5,73,0
24120,note_on,0,0,10,,,,,,,,,10,74,64
24120,note_on,60,0,10,,,,,,,,,10,73,0
24120,note_on,0,0,9,,,,,,,,,8,54,64
24120,note_on,120,0,9,,,,,,,,,8,42,0
24120,note_on,0,0,15,,,,,,,,,2,74,64
24180,note_on,60,0,10,,,,,,,,,10,74,0
24180,note_on,60,0,6,,,,,,,,,5,74,0
24180,note_on,0,0,6,,,,,,,,,5,76,64
24180,note_on,0,0,16,,,,,,,,,3,76,64
24180,note_on,0,0,15,,,,,,,,,2,76,64
24180,note_on,60,0,15,,,,,,,,,2,74,0
24180,note_on,60,0,16,,,,,,,,,3,74,0
24180,note_on,0,0,10,,,,,,,,,10,76,64
24240,note_on,240,0,12,,,,,,,,,12,57,0
24240,note_on,480,0,11,,,,,,,,,11,62,64
24240,note_on,480,0,7,,,,,,,,,6,62,64
24240,note_on,0,0,10,,,,,,,,,10,74,64
24240,note_on,0,0,14,,,,,,,,,14,59,64
24240,note_on,60,0,15,,,,,,,,,2,76,0
24240,note_on,60,0,10,,,,,,,,,10,76,0
24240,note_on,0,0,15,,,,,,,,,2,74,64
24240,note_on,120,0,14,,,,,,,,,14,54,0
24240,note_on,0,0,16,,,,,,,,,3,74,64
24240,note_on,480,0,4,,,,,,,,,3,62,64
24240,note_on,120,0,13,,,,,,,,,13,59,64
24240,note_on,60,0,16,,,,,,,,,3,76,0
24240,note_on,60,0,6,,,,,,,,,5,76,0
24240,note_on,120,0,9,,,,,,,,,8,54,0
24240,note_on,0,0,9,,,,,,,,,8,59,64
24240,note_on,240,0,8,,,,,,,,,7,57,0
24240,note_on,0,0,6,,,,,,,,,5,74,64
24240,note_on,120,0,5,,,,,,,,,4,59,64
24300,note_on,0,0,16,,,,,,,,,3,78,64
24300,note_on,0,0,15,,,,,,,,,2,78,64
24300,note_on,60,0,15,,,,,,,,,2,74,0
24300,note_on,60,0,10,,,,,,,,,10,74,0
24300,note_on,60,0,6,,,,,,,,,5,74,0
24300,note_on,0,0,10,,,,,,,,,10,78,64
24300,note_on,60,0,16,,,,,,,,,3,74,0
24300,note_on,0,0,6,,,,,,,,,5,78,64
24360,note_on,0,0,15,,,,,,,,,2,76,64
24360,note_on,60,0,6,,,,,,,,,5,78,0
24360,note_on,0,0,6,,,,,,,,,5,76,64
24360,note_on,0,0,16,,,,,,,,,3,76,64
24360,note_on,60,0,10,,,,,,,,,10,78,0
24360,note_on,0,0,10,,,,,,,,,10,76,64
24360,note_on,60,0,15,,,,,,,,,2,78,0
24360,note_on,60,0,16,,,,,,,,,3,78,0
24420,note_on,60,0,15,,,,,,,,,2,76,0
24420,note_on,0,0,15,,,,,,,,,2,74,64
24420,note_on,0,0,10,,,,,,,,,10,74,64
24420,note_on,60,0,10,,,,,,,,,10,76,0
24420,note_on,60,0,16,,,,,,,,,3,76,0
24420,note_on,0,0,16,,,,,,,,,3,74,64
24420,note_on,60,0,6,,,,,,,,,5,76,0
24420,note_on,0,0,6,,,,,,,,,5,74,64
24480,note_on,240,0,11,,,,,,,,,11,62,0
24480,note_on,0,0,11,,,,,,,,,11,64,64
24480,note_on,0,0,10,,,,,,,,,10,73,64
24480,note_on,0,0,7,,,,,,,,,6,64,64
24480,note_on,60,0,6,,,,,,,,,5,74,0
24480,note_on,60,0,10,,,,,,,,,10,74,0
24480,note_on,240,0,4,,,,,,,,,3,62,0
24480,note_on,0,0,6,,,,,,,,,5,73,64
24480,note_on,60,0,15,,,,,,,,,2,74,0
24480,note_on,0,0,15,,,,,,,,,2,73,64
24480,note_on,240,0,7,,,,,,,,,6,62,0
24480,note_on,0,0,16,,,,,,,,,3,73,64
24480,note_on,60,0,16,,,,,,,,,3,74,0
24480,note_on,0,0,4,,,,,,,,,3,64,64
24600,note_on,120,0,10,,,,,,,,,10,73,0
24600,note_on,0,0,10,,,,,,,,,10,73,64
24600,note_on,0,0,14,,,,,,,,,14,57,64
24600,note_on,0,0,9,,,,,,,,,8,57,64
24600,note_on,360,0,14,,,,,,,,,14,59,0
24600,note_on,0,0,13,,,,,,,,,13,57,64
24600,note_on,360,0,13,,,,,,,,,13,59,0
24600,note_on,360,0,5,,,,,,,,,4,59,0
24600,note_on,0,0,5,,,,,,,,,4,57,64
24600,note_on,360,0,9,,,,,,,,,8,59,0
24660,note_on,60,0,10,,,,,,,,,10,73,0
24660,note_on,0,0,10,,,,,,,,,10,73,64
24720,note_on,120,0,5,,,,,,,,,4,57,0
24720,note_on,240,0,4,,,,,,,,,3,64,0
24720,note_on,0,0,4,,,,,,,,,3,66,64
24720,note_on,120,0,14,,,,,,,,,14,57,0
24720,note_on,0,0,14,,,,,,,,,14,55,64
24720,note_on,240,0,11,,,,,,,,,11,64,0
24720,note_on,0,0,11,,,,,,,,,11,66,64
24720,note_on,0,0,13,,,,,,,,,13,55,64
24720,note_on,120,0,13,,,,,,,,,13,57,0
24720,note_on,0,0,16,,,,,,,,,3,78,64
24720,note_on,240,0,6,,,,,,,,,5,73,0
24720,note_on,0,0,7,,,,,,,,,6,66,64
24720,note_on,0,0,6,,,,,,,,,5,78,64
24720,note_on,0,0,9,,,,,,,,,8,55,64
24720,note_on,120,0,9,,,,,,,,,8,57,0
24720,note_on,240,0,16,,,,,,,,,3,73,0
24720,note_on,0,0,15,,,,,,,,,2,78,64
24720,note_on,240,0,15,,,,,,,,,2,73,0
24720,note_on,480,0,12,,,,,,,,,12,57,64
24720,note_on,0,0,5,,,,,,,,,4,55,64
24720,note_on,0,0,10,,,,,,,,,10,78,64
24720,note_on,60,0,10,,,,,,,,,10,73,0
24720,note_on,240,0,7,,,,,,,,,6,64,0
24720,note_on,480,0,8,,,,,,,,,7,57,64
24840,note_on,120,0,13,,,,,,,,,13,55,0
24840,note_on,0,0,13,,,,,,,,,13,54,64
24840,note_on,0,0,9,,,,,,,,,8,54,64
24840,note_on,120,0,9,,,,,,,,,8,55,0
24840,note_on,120,0,5,,,,,,,,,4,55,0
24840,note_on,0,0,5,,,,,,,,,4,54,64
24840,note_on,120,0,14,,,,,,,,,14,55,0
24840,note_on,0,0,14,,,,,,,,,14,54,64
24960,note_on,0,0,8,,,,,,,,,7,59,64
24960,note_on,240,0,12,,,,,,,,,12,57,0
24960,note_on,0,0,12,,,,,,,,,12,59,64
24960,note_on,120,0,5,,,,,,,,,4,54,0
24960,note_on,0,0,5,,,,,,,,,4,52,64
24960,note_on,240,0,15,,,,,,,,,2,78,0
24960,note_on,240,0,8,,,,,,,,,7,57,0
24960,note_on,240,0,16,,,,,,,,,3,78,0
24960,note_on,0,0,16,,,,,,,,,3,71,64
24960,note_on,0,0,11,,,,,,,,,11,67,64
24960,note_on,240,0,11,,,,,,,,,11,66,0
24960,note_on,0,0,14,,,,,,,,,14,52,64
24960,note_on,120,0,14,,,,,,,,,14,54,0
24960,note_on,120,0,13,,,,,,,,,13,54,0
24960,note_on,0,0,13,,,,,,,,,13,52,64
24960,note_on,0,0,4,,,,,,,,,3,67,64
24960,note_on,240,0,4,,,,,,,,,3,66,0
24960,note_on,0,0,10,,,,,,,,,10,71,64
24960,note_on,240,0,10,,,,,,,,,10,78,0
24960,note_on,0,0,15,,,,,,,,,2,71,64
24960,note_on,120,0,9,,,,,,,,,8,54,0
24960,note_on,0,0,9,,,,,,,,,8,52,64
24960,note_on,240,0,7,,,,,,,,,6,66,0
24960,note_on,0,0,6,,,,,,,,,5,71,64
24960,note_on,240,0,6,,,,,,,,,5,78,0
24960,note_on,0,0,7,,,,,,,,,6,67,64
25080,note_on,120,0,13,,,,,,,,,13,52,0
25080,note_on,0,0,13,,,,,,,,,13,52,64
25140,note_on,0,0,13,,,,,,,,,13,52,64
25140,note_on,60,0,13,,,,,,,,,13,52,0
25200,note_on,240,0,7,,,,,,,,,6,67,0
25200,note_on,240,0,16,,,,,,,,,3,71,0
25200,note_on,0,0,11,,,,,,,,,11,66,64
25200,note_on,240,0,11,,,,,,,,,11,67,0
25200,note_on,0,0,13,,,,,,,,,13,57,64
25200,note_on,0,0,14,,,,,,,,,14,57,64
25200,note_on,240,0,14,,,,,,,,,14,52,0
25200,note_on,0,0,4,,,,,,,,,3,66,64
25200,note_on,240,0,6,,,,,,,,,5,71,0
25200,note_on,0,0,9,,,,,,,,,8,57,64
25200,note_on,240,0,9,,,,,,,,,8,52,0
25200,note_on,0,0,5,,,,,,,,,4,57,64
25200,note_on,240,0,5,,,,,,,,,4,52,0
25200,note_on,240,0,15,,,,,,,,,2,71,0
25200,note_on,60,0,13,,,,,,,,,13,52,0
25200,note_on,0,0,7,,,,,,,,,6,66,64
25200,note_on,240,0,4,,,,,,,,,3,67,0
25200,note_on,240,0,8,,,,,,,,,7,59,0
25200,note_on,240,0,12,,,,,,,,,12,59,0
25200,note_on,0,0,8,,,,,,,,,7,61,64
25200,note_on,240,0,10,,,,,,,,,10,71,0
25200,note_on,0,0,12,,,,,,,,,12,61,64
25320,note_on,120,0,11,,,,,,,,,11,66,0
25320,note_on,0,0,7,,,,,,,,,6,64,64
25320,note_on,0,0,4,,,,,,,,,3,64,64
25320,note_on,0,0,11,,,,,,,,,11,64,64
25320,note_on,120,0,4,,,,,,,,,3,66,0
25320,note_on,120,0,7,,,,,,,,,6,66,0
25440,note_on,0,0,13,,,,,,,,,13,50,64
25440,note_on,240,0,13,,,,,,,,,13,57,0
25440,note_on,0,0,14,,,,,,,,,14,50,64
25440,note_on,240,0,14,,,,,,,,,14,57,0
25440,note_on,120,0,11,,,,,,,,,11,64,0
25440,note_on,0,0,11,,,,,,,,,11,66,64
25440,note_on,0,0,7,,,,,,,,,6,66,64
25440,note_on,0,0,12,,,,,,,,,12,62,64
25440,note_on,0,0,8,,,,,,,,,7,62,64
25440,note_on,0,0,4,,,,,,,,,3,66,64
25440,note_on,0,0,9,,,,,,,,,8,50,64
25440,note_on,240,0,9,,,,,,,,,8,57,0
25440,note_on,120,0,4,,,,,,,,,3,64,0
25440,note_on,120,0,7,,,,,,,,,6,64,0
25440,note_on,0,0,5,,,,,,,,,4,50,64
25440,note_on,240,0,5,,,,,,,,,4,57,0
25440,note_on,240,0,8,,,,,,,,,7,61,0
25440,note_on,240,0,12,,,,,,,,,12,61,0
25560,note_on,0,0,7,,,,,,,,,6,62,64
25560,note_on,120,0,7,,,,,,,,,6,66,0
25560,note_on,120,0,11,,,,,,,,,11,66,0
25560,note_on,0,0,14,,,,,,,,,14,62,64
25560,note_on,0,0,4,,,,,,,,,3,62,64
25560,note_on,120,0,4,,,,,,,,,3,66,0
25560,note_on,0,0,9,,,,,,,,,8,62,64
25560,note_on,120,0,9,,,,,,,,,8,50,0
25560,note_on,0,0,11,,,,,,,,,11,62,64
25560,note_on,120,0,14,,,,,,,,,14,50,0
25680,note_on,120,0,4,,,,,,,,,3,62,0
25680,note_on,240,0,13,,,,,,,,,13,50,0
25680,note_on,480,0,10,,,,,,,,,10,74,64
25680,note_on,120,0,7,,,,,,,,,6,62,0
25680,note_on,0,0,7,,,,,,,,,6,67,64
25680,note_on,7440,0,2,,,,,,,,,0,74,64
25680,note_on,480,0,6,,,,,,,,,5,74,64
25680,note_on,240,0,5,,,,,,,,,4,50,0
25680,note_on,480,0,15,,,,,,,,,2,74,64
25680,note_on,0,0,8,,,,,,,,,7,61,64
25680,note_on,240,0,8,,,,,,,,,7,62,0
25680,note_on,120,0,11,,,,,,,,,11,62,0
25680,note_on,240,0,12,,,,,,,,,12,62,0
25680,note_on,0,0,12,,,,,,,,,12,61,64
25680,note_on,120,0,9,,,,,,,,,8,62,0
25680,note_on,0,0,9,,,,,,,,,8,61,64
25680,note_on,0,0,14,,,,,,,,,14,61,64
25680,note_on,120,0,14,,,,,,,,,14,62,0
25680,note_on,480,0,16,,,,,,,,,3,74,64
25680,note_on,0,0,11,,,,,,,,,11,67,64
25680,note_on,0,0,4,,,,,,,,,3,67,64
25800,note_on,120,0,9,,,,,,,,,8,61,0
25800,note_on,0,0,9,,,,,,,,,8,59,64
25800,note_on,120,0,12,,,,,,,,,12,61,0
25800,note_on,0,0,12,,,,,,,,,12,59,64
25800,note_on,120,0,8,,,,,,,,,7,61,0
25800,note_on,0,0,8,,,,,,,,,7,59,64
25800,note_on,120,0,14,,,,,,,,,14,61,0
25800,note_on,0,0,14,,,,,,,,,14,59,64
25920,note_on,240,0,16,,,,,,,,,3,74,0
25920,note_on,0,0,16,,,,,,,,,3,76,64
25920,note_on,0,0,6,,,,,,,,,5,76,64
25920,note_on,240,0,6,,,,,,,,,5,74,0
25920,note_on,120,0,8,,,,,,,,,7,59,0
25920,note_on,0,0,8,,,,,,,,,7,61,64
25920,note_on,240,0,2,,,,,,,,,0,74,0
25920,note_on,0,0,2,,,,,,,,,0,76,64
25920,note_on,120,0,12,,,,,,,,,12,59,0
25920,note_on,120,0,14,,,,,,,,,14,59,0
25920,note_on,0,0,14,,,,,,,,,14,61,64
25920,note_on,0,0,9,,,,,,,,,8,61,64
25920,note_on,240,0,10,,,,,,,,,10,74,0
25920,note_on,240,0,15,,,,,,,,,2,74,0
25920,note_on,0,0,15,,,,,,,,,2,76,64
25920,note_on,0,0,12,,,,,,,,,12,61,64
25920,note_on,120,0,9,,,,,,,,,8,59,0
25920,note_on,0,0,10,,,,,,,,,10,76,64
26040,note_on,0,0,9,,,,,,,,,8,57,64
26040,note_on,120,0,9,,,,,,,,,8,61,0
26040,note_on,120,0,12,,,,,,,,,12,61,0
26040,note_on,0,0,14,,,,,,,,,14,57,64
26040,note_on,0,0,12,,,,,,,,,12,57,64
26040,note_on,120,0,8,,,,,,,,,7,61,0
26040,note_on,0,0,8,,,,,,,,,7,57,64
26040,note_on,120,0,14,,,,,,,,,14,61,0
26160,note_on,240,0,6,,,,,,,,,5,76,0
26160,note_on,0,0,6,,,,,,,,,5,78,64
26160,note_on,0,0,11,,,,,,,,,11,66,64
26160,note_on,0,0,9,,,,,,,,,8,62,64
26160,note_on,0,0,7,,,,,,,,,6,66,64
26160,note_on,480,0,7,,,,,,,,,6,67,0
26160,note_on,0,0,10,,,,,,,,,10,78,64
26160,note_on,240,0,10,,,,,,,,,10,76,0
26160,note_on,480,0,11,,,,,,,,,11,67,0
26160,note_on,240,0,15,,,,,,,,,2,76,0
26160,note_on,120,0,8,,,,,,,,,7,57,0
26160,note_on,240,0,2,,,,,,,,,0,76,0
26160,note_on,120,0,14,,,,,,,,,14,57,0
26160,note_on,0,0,8,,,,,,,,,7,62,64
26160,note_on,0,0,14,,,,,,,,,14,62,64
26160,note_on,0,0,4,,,,,,,,,3,66,64
26160,note_on,0,0,2,,,,,,,,,0,78,64
26160,note_on,120,0,12,,,,,,,,,12,57,0
26160,note_on,0,0,12,,,,,,,,,12,62,64
26160,note_on,0,0,16,,,,,,,,,3,78,64
26160,note_on,0,0,15,,,,,,,,,2,78,64
26160,note_on,480,0,4,,,,,,,,,3,67,0
26160,note_on,120,0,9,,,,,,,,,8,57,0
26160,note_on,240,0,16,,,,,,,,,3,76,0
26280,note_on,120,0,11,,,,,,,,,11,66,0
26280,note_on,0,0,11,,,,,,,,,11,66,64
26400,note_on,0,0,16,,,,,,,,,3,79,64
26400,note_on,240,0,15,,,,,,,,,2,78,0
26400,note_on,240,0,7,,,,,,,,,6,66,0
26400,note_on,240,0,2,,,,,,,,,0,78,0
26400,note_on,0,0,2,,,,,,,,,0,79,64
26400,note_on,0,0,7,,,,,,,,,6,64,64
26400,note_on,240,0,16,,,,,,,,,3,78,0
26400,note_on,0,0,4,,,,,,,,,3,64,64
26400,note_on,0,0,10,,,,,,,,,10,79,64
26400,note_on,240,0,6,,,,,,,,,5,78,0
26400,note_on,0,0,6,,,,,,,,,5,79,64
26400,note_on,0,0,11,,,,,,,,,11,64,64
26400,note_on,120,0,11,,,,,,,,,11,66,0
26400,note_on,240,0,4,,,,,,,,,3,66,0
26400,note_on,0,0,15,,,,,,,,,2,79,64
26400,note_on,240,0,10,,,,,,,,,10,78,0
26640,note_on,0,0,14,,,,,,,,,14,60,64
26640,note_on,240,0,6,,,,,,,,,5,79,0
26640,note_on,0,0,6,,,,,,,,,5,78,64
26640,note_on,480,0,14,,,,,,,,,14,62,0
26640,note_on,240,0,2,,,,,,,,,0,79,0
26640,note_on,0,0,9,,,,,,,,,8,60,64
26640,note_on,480,0,9,,,,,,,,,8,62,0
26640,note_on,0,0,16,,,,,,,,,3,78,64
26640,note_on,0,0,15,,,,,,,,,2,78,64
26640,note_on,240,0,15,,,,,,,,,2,79,0
26640,note_on,240,0,16,,,,,,,,,3,79,0
26640,note_on,0,0,2,,,,,,,,,0,78,64
26640,note_on,0,0,12,,,,,,,,,12,60,64
26640,note_on,0,0,8,,,,,,,,,7,60,64
26640,note_on,480,0,8,,,,,,,,,7,62,0
26640,note_on,0,0,10,,,,,,,,,10,78,64
26640,note_on,240,0,10,,,,,,,,,10,79,0
26640,note_on,480,0,12,,,,,,,,,12,62,0
26760,note_on,0,0,2,,,,,,,,,0,76,64
26760,note_on,120,0,16,,,,,,,,,3,78,0
26760,note_on,120,0,12,,,,,,,,,12,60,0
26760,note_on,0,0,12,,,,,,,,,12,60,64
26760,note_on,120,0,2,,,,,,,,,0,78,0
26760,note_on,0,0,16,,,,,,,,,3,76,64
26760,note_on,0,0,15,,,,,,,,,2,76,64
26760,note_on,120,0,15,,,,,,,,,2,78,0
26760,note_on,0,0,10,,,,,,,,,10,76,64
26760,note_on,0,0,6,,,,,,,,,5,76,64
26760,note_on,120,0,6,,,,,,,,,5,78,0
26760,note_on,120,0,10,,,,,,,,,10,78,0
26880,note_on,0,0,16,,,,,,,,,3,78,64
26880,note_on,0,0,12,,,,,,,,,12,60,64
26880,note_on,120,0,12,,,,,,,,,12,60,0
26880,note_on,480,0,11,,,,,,,,,11,64,0
26880,note_on,0,0,11,,,,,,,,,11,62,64
26880,note_on,0,0,6,,,,,,,,,5,78,64
26880,note_on,120,0,16,,,,,,,,,3,76,0
26880,note_on,120,0,6,,,,,,,,,5,76,0
26880,note_on,120,0,15,,,,,,,,,2,76,0
26880,note_on,0,0,7,,,,,,,,,6,62,64
26880,note_on,480,0,7,,,,,,,,,6,64,0
26880,note_on,0,0,15,,,,,,,,,2,78,64
26880,note_on,0,0,2,,,,,,,,,0,78,64
26880,note_on,0,0,10,,,,,,,,,10,78,64
26880,note_on,120,0,10,,,,,,,,,10,76,0
26880,note_on,0,0,4,,,,,,,,,3,62,64
26880,note_on,480,0,4,,,,,,,,,3,64,0
26880,note_on,120,0,2,,,,,,,,,0,76,0
27000,note_on,120,0,15,,,,,,,,,2,78,0
27000,note_on,0,0,6,,,,,,,,,5,74,64
27000,note_on,120,0,6,,,,,,,,,5,78,0
27000,note_on,0,0,2,,,,,,,,,0,74,64
27000,note_on,120,0,2,,,,,,,,,0,78,0
27000,note_on,0,0,16,,,,,,,,,3,74,64
27000,note_on,0,0,15,,,,,,,,,2,74,64
27000,note_on,0,0,10,,,,,,,,,10,74,64
27000,note_on,120,0,10,,,,,,,,,10,78,0
27000,note_on,120,0,16,,,,,,,,,3,78,0
27120,note_on,240,0,4,,,,,,,,,3,62,0
27120,note_on,0,0,6,,,,,,,,,5,79,64
27120,note_on,120,0,6,,,,,,,,,5,74,0
27120,note_on,0,0,9,,,,,,,,,8,59,64
27120,note_on,480,0,9,,,,,,,,,8,60,0
27120,note_on,0,0,12,,,,,,,,,12,59,64
27120,note_on,240,0,12,,,,,,,,,12,60,0
27120,note_on,0,0,2,,,,,,,,,0,79,64
27120,note_on,120,0,2,,,,,,,,,0,74,0
27120,note_on,0,0,15,,,,,,,,,2,79,64
27120,note_on,0,0,16,,,,,,,,,3,79,64
27120,note_on,240,0,7,,,,,,,,,6,62,0
27120,note_on,120,0,16,,,,,,,,,3,74,0
27120,note_on,480,0,14,,,,,,,,,14,60,0
27120,note_on,480,0,8,,,,,,,,,7,60,0
27120,note_on,120,0,15,,,,,,,,,2,74,0
27120,note_on,0,0,10,,,,,,,,,10,79,64
27120,note_on,120,0,10,,,,,,,,,10,74,0
27120,note_on,0,0,8,,,,,,,,,7,59,64
27120,note_on,0,0,14,,,,,,,,,14,59,64
27120,note_on,240,0,11,,,,,,,,,11,62,0
27360,note_on,0,0,9,,,,,,,,,8,50,64
27360,note_on,240,0,9,,,,,,,,,8,59,0
27360,note_on,240,0,8,,,,,,,,,7,59,0
27360,note_on,0,0,12,,,,,,,,,12,57,64
27360,note_on,240,0,12,,,,,,,,,12,59,0
27360,note_on,240,0,14,,,,,,,,,14,59,0
27360,note_on,0,0,8,,,,,,,,,7,57,64
27360,note_on,0,0,14,,,,,,,,,14,57,64
27360,note_on,1680,0,13,,,,,,,,,13,50,64
27360,note_on,1680,0,5,,,,,,,,,4,50,64
27360,note_on,0,0,9,,,,,,,,,8,57,64
27360,note_on,0,0,14,,,,,,,,,14,50,64
27480,note_on,360,0,11,,,,,,,,,11,74,90
27480,note_on,360,0,4,,,,,,,,,3,74,90
27480,note_on,360,0,7,,,,,,,,,6,74,90
27600,note_on,0,0,15,,,,,,,,,2,78,64
27600,note_on,480,0,2,,,,,,,,,0,79,0
27600,note_on,480,0,16,,,,,,,,,3,79,0
27600,note_on,0,0,10,,,,,,,,,10,78,64
27600,note_on,480,0,10,,,,,,,,,10,79,0
27600,note_on,480,0,15,,,,,,,,,2,79,0
27600,note_on,0,0,16,,,,,,,,,3,78,64
27600,note_on,0,0,2,,,,,,,,,0,78,64
27600,note_on,480,0,6,,,,,,,,,5,79,0
27600,note_on,0,0,6,,,,,,,,,5,78,64
27720,note_on,240,0,7,,,,,,,,,6,74,0
27720,note_on,0,0,7,,,,,,,,,6,74,64
27720,note_on,0,0,11,,,,,,,,,11,74,64
27720,note_on,240,0,11,,,,,,,,,11,74,0
27720,note_on,0,0,4,,,,,,,,,3,74,64
27720,note_on,0,0,10,,,,,,,,,10,78,64
27720,note_on,120,0,10,,,,,,,,,10,78,0
27720,note_on,240,0,4,,,,,,,,,3,74,0
27840,note_on,0,0,9,,,,,,,,,8,50,0
27840,note_on,0,0,9,,,,,,,,,8,52,64
27840,note_on,0,0,6,,,,,,,,,5,76,64
27840,note_on,0,0,16,,,,,,,,,3,76,64
27840,note_on,480,0,9,,,,,,,,,8,57,0
27840,note_on,120,0,10,,,,,,,,,10,78,0
27840,note_on,0,0,10,,,,,,,,,10,76,64
27840,note_on,0,0,11,,,,,,,,,11,73,64
27840,note_on,120,0,11,,,,,,,,,11,74,0
27840,note_on,480,0,12,,,,,,,,,12,57,0
27840,note_on,120,0,4,,,,,,,,,3,74,0
27840,note_on,480,0,13,,,,,,,,,13,50,0
27840,note_on,0,0,13,,,,,,,,,13,52,64
27840,note_on,0,0,5,,,,,,,,,4,52,64
27840,note_on,480,0,5,,,,,,,,,4,50,0
27840,note_on,120,0,7,,,,,,,,,6,74,0
27840,note_on,480,0,14,,,,,,,,,14,57,0
27840,note_on,0,0,14,,,,,,,,,14,50,0
27840,note_on,240,0,15,,,,,,,,,2,78,0
27840,note_on,240,0,16,,,,,,,,,3,78,0
27840,note_on,0,0,15,,,,,,,,,2,76,64
27840,note_on,240,0,6,,,,,,,,,5,78,0
27840,note_on,0,0,4,,,,,,,,,3,73,64
27840,note_on,0,0,2,,,,,,,,,0,76,64
27840,note_on,240,0,2,,,,,,,,,0,78,0
27840,note_on,0,0,7,,,,,,,,,6,73,64
27840,note_on,480,0,8,,,,,,,,,7,57,0
27840,note_on,0,0,14,,,,,,,,,14,52,64
27960,note_on,120,0,11,,,,,,,,,11,73,0
27960,note_on,120,0,4,,,,,,,,,3,73,0
27960,note_on,0,0,4,,,,,,,,,3,73,64
27960,note_on,0,0,11,,,,,,,,,11,73,64
27960,note_on,120,0,10,,,,,,,,,10,76,0
27960,note_on,0,0,7,,,,,,,,,6,73,64
27960,note_on,120,0,7,,,,,,,,,6,73,0
27960,note_on,0,0,10,,,,,,,,,10,76,64
28080,note_on,120,0,10,,,,,,,,,10,76,0
28080,note_on,0,0,10,,,,,,,,,10,74,64
28080,note_on,120,0,11,,,,,,,,,11,73,0
28080,note_on,0,0,11,,,,,,,,,11,74,64
28080,note_on,240,0,8,,,,,,,,,7,57,64
28080,note_on,0,0,14,,,,,,,,,14,54,64
28080,note_on,240,0,14,,,,,,,,,14,52,0
28080,note_on,0,0,9,,,,,,,,,8,54,64
28080,note_on,120,0,4,,,,,,,,,3,73,0
28080,note_on,240,0,6,,,,,,,,,5,76,0
28080,note_on,240,0,16,,,,,,,,,3,76,0
28080,note_on,0,0,16,,,,,,,,,3,74,64
28080,note_on,240,0,5,,,,,,,,,4,52,0
28080,note_on,240,0,15,,,,,,,,,2,76,0
28080,note_on,0,0,15,,,,,,,,,2,74,64
28080,note_on,0,0,2,,,,,,,,,0,74,64
28080,note_on,240,0,2,,,,,,,,,0,76,0
28080,note_on,0,0,6,,,,,,,,,5,74,64
28080,note_on,240,0,9,,,,,,,,,8,52,0
28080,note_on,240,0,12,,,,,,,,,12,57,64
28080,note_on,0,0,5,,,,,,,,,4,54,64
28080,note_on,0,0,7,,,,,,,,,6,74,64
28080,note_on,0,0,4,,,,,,,,,3,74,64
28080,note_on,0,0,13,,,,,,,,,13,54,64
28080,note_on,120,0,7,,,,,,,,,6,73,0
28080,note_on,240,0,13,,,,,,,,,13,52,0
28140,note_on,60,0,4,,,,,,,,,3,74,0
28140,note_on,0,0,7,,,,,,,,,6,73,64
28140,note_on,60,0,11,,,,,,,,,11,74,0
28140,note_on,0,0,11,,,,,,,,,11,73,64
28140,note_on,60,0,7,,,,,,,,,6,74,0
28140,note_on,0,0,4,,,,,,,,,3,73,64
28200,note_on,60,0,4,,,,,,,,,3,73,0
28200,note_on,60,0,7,,,,,,,,,6,73,0
28200,note_on,60,0,11,,,,,,,,,11,73,0
28200,note_on,0,0,11,,,,,,,,,11,71,64
28200,note_on,0,0,4,,,,,,,,,3,71,64
28200,note_on,0,0,7,,,,,,,,,6,71,64
28260,note_on,0,0,11,,,,,,,,,11,69,64
28260,note_on,60,0,7,,,,,,,,,6,71,0
28260,note_on,0,0,4,,,,,,,,,3,69,64
28260,note_on,60,0,11,,,,,,,,,11,71,0
28260,note_on,0,0,7,,,,,,,,,6,69,64
28260,note_on,60,0,4,,,,,,,,,3,71,0
28320,note_on,60,0,11,,,,,,,,,11,69,0
28320,note_on,0,0,11,,,,,,,,,11,67,64
28320,note_on,0,0,4,,,,,,,,,3,67,64
28320,note_on,0,0,9,,,,,,,,,8,55,64
28320,note_on,240,0,9,,,,,,,,,8,54,0
28320,note_on,60,0,4,,,,,,,,,3,69,0
28320,note_on,0,0,12,,,,,,,,,12,59,64
28320,note_on,0,0,5,,,,,,,,,4,55,64
28320,note_on,240,0,12,,,,,,,,,12,57,0
28320,note_on,240,0,14,,,,,,,,,14,54,0
28320,note_on,0,0,14,,,,,,,,,14,55,64
28320,note_on,0,0,8,,,,,,,,,7,59,64
28320,note_on,240,0,8,,,,,,,,,7,57,0
28320,note_on,240,0,5,,,,,,,,,4,54,0
28320,note_on,60,0,7,,,,,,,,,6,69,0
28320,note_on,0,0,7,,,,,,,,,6,67,64
28320,note_on,240,0,13,,,,,,,,,13,54,0
28320,note_on,0,0,13,,,,,,,,,13,55,64
28440,note_on,0,0,7,,,,,,,,,6,62,64
28440,note_on,120,0,11,,,,,,,,,11,67,0
28440,note_on,120,0,7,,,,,,,,,6,67,0
28440,note_on,0,0,4,,,,,,,,,3,62,64
28440,note_on,120,0,4,,,,,,,,,3,67,0
28440,note_on,0,0,16,,,,,,,,,3,71,64
28440,note_on,360,0,15,,,,,,,,,2,74,0
28440,note_on,0,0,11,,,,,,,,,11,62,64
28440,note_on,360,0,16,,,,,,,,,3,74,0
28440,note_on,0,0,6,,,,,,,,,5,71,64
28440,note_on,360,0,6,,,,,,,,,5,74,0
28440,note_on,0,0,15,,,,,,,,,2,71,64
28440,note_on,360,0,10,,,,,,,,,10,74,0
28440,note_on,0,0,10,,,,,,,,,10,71,64
28500,note_on,0,0,11,,,,,,,,,11,62,64
28500,note_on,60,0,11,,,,,,,,,11,62,0
28560,note_on,0,0,14,,,,,,,,,14,54,64
28560,note_on,0,0,8,,,,,,,,,7,61,64
28560,note_on,240,0,5,,,,,,,,,4,55,0
28560,note_on,0,0,5,,,,,,,,,4,54,64
28560,note_on,240,0,8,,,,,,,,,7,59,0
28560,note_on,480,0,2,,,,,,,,,0,74,0
28560,note_on,0,0,12,,,,,,,,,12,61,64
28560,note_on,240,0,14,,,,,,,,,14,55,0
28560,note_on,240,0,12,,,,,,,,,12,59,0
28560,note_on,0,0,13,,,,,,,,,13,54,64
28560,note_on,60,0,11,,,,,,,,,11,62,0
28560,note_on,0,0,10,,,,,,,,,10,71,64
28560,note_on,120,0,10,,,,,,,,,10,71,0
28560,note_on,0,0,7,,,,,,,,,6,67,64
28560,note_on,240,0,13,,,,,,,,,13,55,0
28560,note_on,120,0,7,,,,,,,,,6,62,0
28560,note_on,120,0,4,,,,,,,,,3,62,0
28560,note_on,0,0,9,,,,,,,,,8,54,64
28560,note_on,240,0,9,,,,,,,,,8,55,0
28560,note_on,0,0,11,,,,,,,,,11,67,64
28560,note_on,0,0,4,,,,,,,,,3,67,64
28680,note_on,0,0,10,,,,,,,,,10,71,64
28680,note_on,120,0,14,,,,,,,,,14,54,0
28680,note_on,0,0,14,,,,,,,,,14,52,64
28680,note_on,240,0,15,,,,,,,,,2,71,0
28680,note_on,0,0,15,,,,,,,,,2,71,64
28680,note_on,120,0,10,,,,,,,,,10,71,0
28680,note_on,0,0,13,,,,,,,,,13,52,64
28680,note_on,120,0,13,,,,,,,,,13,54,0
28680,note_on,240,0,6,,,,,,,,,5,71,0
28680,note_on,240,0,16,,,,,,,,,3,71,0
28680,note_on,0,0,16,,,,,,,,,3,71,64
28680,note_on,0,0,9,,,,,,,,,8,52,64
28680,note_on,120,0,5,,,,,,,,,4,54,0
28680,note_on,120,0,9,,,,,,,,,8,54,0
28680,note_on,0,0,6,,,,,,,,,5,71,64
28680,note_on,0,0,5,,,,,,,,,4,52,64
28800,note_on,0,0,14,,,,,,,,,14,54,64
28800,note_on,120,0,13,,,,,,,,,13,52,0
28800,note_on,0,0,13,,,,,,,,,13,54,64
28800,note_on,0,0,15,,,,,,,,,2,69,64
28800,note_on,120,0,15,,,,,,,,,2,71,0
28800,note_on,120,0,6,,,,,,,,,5,71,0
28800,note_on,120,0,16,,,,,,,,,3,71,0
28800,note_on,0,0,16,,,,,,,,,3,69,64
28800,note_on,0,0,8,,,,,,,,,7,62,64
28800,note_on,240,0,8,,,,,,,,,7,61,0
28800,note_on,0,0,6,,,,,,,,,5,69,64
28800,note_on,0,0,5,,,,,,,,,4,54,64
28800,note_on,120,0,14,,,,,,,,,14,52,0
28800,note_on,120,0,10,,,,,,,,,10,71,0
28800,note_on,0,0,10,,,,,,,,,10,69,64
28800,note_on,120,0,9,,,,,,,,,8,52,0
28800,note_on,0,0,12,,,,,,,,,12,62,64
28800,note_on,0,0,9,,,,,,,,,8,54,64
28800,note_on,120,0,5,,,,,,,,,4,52,0
28800,note_on,240,0,12,,,,,,,,,12,61,0
28920,note_on,120,0,5,,,,,,,,,4,54,0
28920,note_on,360,0,4,,,,,,,,,3,67,0
28920,note_on,0,0,4,,,,,,,,,3,66,65
28920,note_on,360,0,11,,,,,,,,,11,67,0
28920,note_on,120,0,9,,,,,,,,,8,54,0
28920,note_on,120,0,16,,,,,,,,,3,69,0
28920,note_on,0,0,14,,,,,,,,,14,50,65
28920,note_on,0,0,16,,,,,,,,,3,69,65
28920,note_on,0,0,9,,,,,,,,,8,50,65
28920,note_on,360,0,7,,,,,,,,,6,67,0
28920,note_on,120,0,13,,,,,,,,,13,54,0
28920,note_on,0,0,11,,,,,,,,,11,66,65
28920,note_on,0,0,10,,,,,,,,,10,69,65
28920,note_on,120,0,15,,,,,,,,,2,69,0
28920,note_on,0,0,15,,,,,,,,,2,69,65
28920,note_on,120,0,6,,,,,,,,,5,69,0
28920,note_on,0,0,6,,,,,,,,,5,69,65
28920,note_on,0,0,13,,,,,,,,,13,50,65
28920,note_on,120,0,10,,,,,,,,,10,69,0
28920,note_on,120,0,14,,,,,,,,,14,54,0
28920,note_on,0,0,5,,,,,,,,,4,50,65
28920,note_on,0,0,7,,,,,,,,,6,66,65
28980,note_on,0,0,10,,,,,,,,,10,69,65
28980,note_on,60,0,10,,,,,,,,,10,69,0
29040,note_on,120,0,16,,,,,,,,,3,69,0
29040,note_on,0,0,7,,,,,,,,,6,62,65
29040,note_on,0,0,13,,,,,,,,,13,55,65
29040,note_on,120,0,13,,,,,,,,,13,50,0
29040,note_on,120,0,14,,,,,,,,,14,50,0
29040,note_on,0,0,14,,,,,,,,,14,55,65
29040,note_on,0,0,4,,,,,,,,,3,62,65
29040,note_on,120,0,4,,,,,,,,,3,66,0
29040,note_on,120,0,7,,,,,,,,,6,66,0
29040,note_on,120,0,15,,,,,,,,,2,69,0
29040,note_on,0,0,15,,,,,,,,,2,71,65
29040,note_on,0,0,5,,,,,,,,,4,55,65
29040,note_on,120,0,5,,,,,,,,,4,50,0
29040,note_on,60,0,10,,,,,,,,,10,69,0
29040,note_on,0,0,16,,,,,,,,,3,71,65
29040,note_on,0,0,11,,,,,,,,,11,62,65
29040,note_on,0,0,10,,,,,,,,,10,71,65
29040,note_on,240,0,8,,,,,,,,,7,62,0
29040,note_on,0,0,8,,,,,,,,,7,61,65
29040,note_on,120,0,9,,,,,,,,,8,50,0
29040,note_on,0,0,9,,,,,,,,,8,55,65
29040,note_on,240,0,12,,,,,,,,,12,62,0
29040,note_on,0,0,12,,,,,,,,,12,61,65
29040,note_on,120,0,11,,,,,,,,,11,66,0
29040,note_on,0,0,6,,,,,,,,,5,71,65
29040,note_on,120,0,6,,,,,,,,,5,69,0
29160,note_on,120,0,8,,,,,,,,,7,61,0
29160,note_on,120,0,12,,,,,,,,,12,61,0
29160,note_on,0,0,12,,,,,,,,,12,59,66
29160,note_on,0,0,8,,,,,,,,,7,59,66
29280,note_on,240,0,11,,,,,,,,,11,62,0
29280,note_on,240,0,7,,,,,,,,,6,62,0
29280,note_on,240,0,16,,,,,,,,,3,71,0
29280,note_on,0,0,4,,,,,,,,,3,64,67
29280,note_on,120,0,8,,,,,,,,,7,59,0
29280,note_on,240,0,4,,,,,,,,,3,62,0
29280,note_on,0,0,7,,,,,,,,,6,64,67
29280,note_on,0,0,16,,,,,,,,,3,64,67
29280,note_on,0,0,8,,,,,,,,,7,61,67
29280,note_on,0,0,15,,,,,,,,,2,64,67
29280,note_on,240,0,15,,,,,,,,,2,71,0
29280,note_on,240,0,10,,,,,,,,,10,71,0
29280,note_on,0,0,6,,,,,,,,,5,64,67
29280,note_on,0,0,12,,,,,,,,,12,61,67
29280,note_on,120,0,12,,,,,,,,,12,59,0
29280,note_on,0,0,10,,,,,,,,,10,64,67
29280,note_on,0,0,11,,,,,,,,,11,64,67
29280,note_on,240,0,6,,,,,,,,,5,71,0
29400,note_on,120,0,15,,,,,,,,,2,64,0
29400,note_on,0,0,8,,,,,,,,,7,57,67
29400,note_on,0,0,12,,,,,,,,,12,57,67
29400,note_on,120,0,12,,,,,,,,,12,61,0
29400,note_on,120,0,10,,,,,,,,,10,64,0
29400,note_on,120,0,8,,,,,,,,,7,61,0
29400,note_on,120,0,6,,,,,,,,,5,64,0
29400,note_on,120,0,16,,,,,,,,,3,64,0
29520,note_on,120,0,15,,,,,,,,,2,69,68
29520,note_on,480,0,5,,,,,,,,,4,55,0
29520,note_on,0,0,7,,,,,,,,,6,66,68
29520,note_on,240,0,7,,,,,,,,,6,64,0
29520,note_on,120,0,12,,,,,,,,,12,57,0
29520,note_on,0,0,5,,,,,,,,,4,54,68
29520,note_on,480,0,9,,,,,,,,,8,55,0
29520,note_on,120,0,16,,,,,,,,,3,69,68
29520,note_on,240,0,4,,,,,,,,,3,64,0
29520,note_on,0,0,9,,,,,,,,,8,54,68
29520,note_on,120,0,6,,,,,,,,,5,69,68
29520,note_on,0,0,14,,,,,,,,,14,54,68
29520,note_on,480,0,14,,,,,,,,,14,55,0
29520,note_on,0,0,4,,,,,,,,,3,66,68
29520,note_on,0,0,12,,,,,,,,,12,62,68
29520,note_on,0,0,13,,,,,,,,,13,54,68
29520,note_on,0,0,8,,,,,,,,,7,62,68
29520,note_on,120,0,10,,,,,,,,,10,69,68
29520,note_on,0,0,11,,,,,,,,,11,66,68
29520,note_on,120,0,8,,,,,,,,,7,57,0
29520,note_on,240,0,11,,,,,,,,,11,64,0
29520,note_on,480,0,13,,,,,,,,,13,55,0
29640,note_on,120,0,13,,,,,,,,,13,54,0
29640,note_on,0,0,13,,,,,,,,,13,54,69
29760,note_on,240,0,7,,,,,,,,,6,66,0
29760,note_on,0,0,7,,,,,,,,,6,67,70
29760,note_on,240,0,9,,,,,,,,,8,54,0
29760,note_on,0,0,9,,,,,,,,,8,52,70
29760,note_on,240,0,10,,,,,,,,,10,69,0
29760,note_on,240,0,5,,,,,,,,,4,54,0
29760,note_on,0,0,14,,,,,,,,,14,52,70
29760,note_on,0,0,6,,,,,,,,,5,71,70
29760,note_on,240,0,6,,,,,,,,,5,69,0
29760,note_on,0,0,10,,,,,,,,,10,71,70
29760,note_on,240,0,11,,,,,,,,,11,66,0
29760,note_on,0,0,13,,,,,,,,,13,52,70
29760,note_on,240,0,16,,,,,,,,,3,69,0
29760,note_on,0,0,16,,,,,,,,,3,71,70
29760,note_on,240,0,15,,,,,,,,,2,69,0
29760,note_on,120,0,13,,,,,,,,,13,54,0
29760,note_on,0,0,11,,,,,,,,,11,67,70
29760,note_on,240,0,14,,,,,,,,,14,54,0
29760,note_on,240,0,4,,,,,,,,,3,66,0
29760,note_on,0,0,4,,,,,,,,,3,67,70
29760,note_on,0,0,15,,,,,,,,,2,71,70
29760,note_on,0,0,5,,,,,,,,,4,52,70
30000,note_on,240,0,15,,,,,,,,,2,71,0
30000,note_on,480,0,12,,,,,,,,,12,62,0
30000,note_on,240,0,4,,,,,,,,,3,67,0
30000,note_on,0,0,12,,,,,,,,,12,61,71
30000,note_on,0,0,13,,,,,,,,,13,57,71
30000,note_on,240,0,13,,,,,,,,,13,52,0
30000,note_on,0,0,15,,,,,,,,,2,73,71
30000,note_on,0,0,9,,,,,,,,,8,57,71
30000,note_on,240,0,7,,,,,,,,,6,67,0
30000,note_on,0,0,5,,,,,,,,,4,57,71
30000,note_on,240,0,5,,,,,,,,,4,52,0
30000,note_on,240,0,10,,,,,,,,,10,71,0
30000,note_on,480,0,8,,,,,,,,,7,62,0
30000,note_on,0,0,8,,,,,,,,,7,61,71
30000,note_on,0,0,10,,,,,,,,,10,73,71
30000,note_on,0,0,4,,,,,,,,,3,66,71
30000,note_on,0,0,16,,,,,,,,,3,73,71
30000,note_on,240,0,16,,,,,,,,,3,71,0
30000,note_on,240,0,6,,,,,,,,,5,71,0
30000,note_on,240,0,14,,,,,,,,,14,52,0
30000,note_on,0,0,14,,,,,,,,,14,57,71
30000,note_on,240,0,11,,,,,,,,,11,67,0
30000,note_on,0,0,11,,,,,,,,,11,66,71
30000,note_on,240,0,9,,,,,,,,,8,52,0
30000,note_on,0,0,7,,,,,,,,,6,66,71
30000,note_on,0,0,6,,,,,,,,,5,73,71
30120,note_on,120,0,11,,,,,,,,,11,66,0
30120,note_on,0,0,11,,,,,,,,,11,64,72
30120,note_on,0,0,4,,,,,,,,,3,64,72
30120,note_on,0,0,12,,,,,,,,,12,61,72
30120,note_on,120,0,12,,,,,,,,,12,61,0
30120,note_on,0,0,7,,,,,,,,,6,64,72
30120,note_on,120,0,4,,,,,,,,,3,66,0
30120,note_on,120,0,7,,,,,,,,,6,66,0
30240,note_on,240,0,15,,,,,,,,,2,73,0
30240,note_on,0,0,6,,,,,,,,,5,74,72
30240,note_on,0,0,4,,,,,,,,,3,66,72
30240,note_on,240,0,14,,,,,,,,,14,57,0
30240,note_on,0,0,14,,,,,,,,,14,50,72
30240,note_on,0,0,8,,,,,,,,,7,57,72
30240,note_on,0,0,9,,,,,,,,,8,50,72
30240,note_on,240,0,9,,,,,,,,,8,57,0
30240,note_on,120,0,12,,,,,,,,,12,61,0
30240,note_on,0,0,13,,,,,,,,,13,50,72
30240,note_on,120,0,11,,,,,,,,,11,64,0
30240,note_on,0,0,11,,,,,,,,,11,66,72
30240,note_on,0,0,10,,,,,,,,,10,74,72
30240,note_on,0,0,15,,,,,,,,,2,74,72
30240,note_on,240,0,10,,,,,,,,,10,73,0
30240,note_on,240,0,6,,,,,,,,,5,73,0
30240,note_on,0,0,12,,,,,,,,,12,57,72
30240,note_on,120,0,7,,,,,,,,,6,64,0
30240,note_on,0,0,7,,,,,,,,,6,66,72
30240,note_on,240,0,8,,,,,,,,,7,61,0
30240,note_on,240,0,16,,,,,,,,,3,73,0
30240,note_on,0,0,16,,,,,,,,,3,74,72
30240,note_on,240,0,5,,,,,,,,,4,57,0
30240,note_on,120,0,4,,,,,,,,,3,64,0
30240,note_on,0,0,5,,,,,,,,,4,50,72
30240,note_on,240,0,13,,,,,,,,,13,57,0
30360,note_on,120,0,8,,,,,,,,,7,57,0
30360,note_on,120,0,5,,,,,,,,,4,50,0
30360,note_on,0,0,5,,,,,,,,,4,54,64
30360,note_on,0,0,8,,,,,,,,,7,66,73
30360,note_on,120,0,13,,,,,,,,,13,50,0
30360,note_on,120,0,9,,,,,,,,,8,50,0
30360,note_on,120,0,14,,,,,,,,,14,50,0
30360,note_on,0,0,14,,,,,,,,,14,54,64
30360,note_on,120,0,11,,,,,,,,,11,66,0
30360,note_on,0,0,11,,,,,,,,,11,62,73
30360,note_on,120,0,7,,,,,,,,,6,66,0
30360,note_on,0,0,7,,,,,,,,,6,62,73
30360,note_on,120,0,4,,,,,,,,,3,66,0
30360,note_on,0,0,12,,,,,,,,,12,66,73
30360,note_on,120,0,12,,,,,,,,,12,57,0
30360,note_on,0,0,9,,,,,,,,,8,54,64
30360,note_on,0,0,4,,,,,,,,,3,62,73
30480,note_on,0,0,16,,,,,,,,,3,73,74
30480,note_on,240,0,16,,,,,,,,,3,74,0
30480,note_on,120,0,5,,,,,,,,,4,54,0
30480,note_on,0,0,10,,,,,,,,,10,73,74
30480,note_on,0,0,6,,,,,,,,,5,73,74
30480,note_on,240,0,6,,,,,,,,,5,74,0
30480,note_on,0,0,9,,,,,,,,,8,59,74
30480,note_on,120,0,9,,,,,,,,,8,54,0
30480,note_on,0,0,4,,,,,,,,,3,67,74
30480,note_on,120,0,12,,,,,,,,,12,66,0
30480,note_on,0,0,12,,,,,,,,,12,64,74
30480,note_on,120,0,13,,,,,,,,,13,59,74
30480,note_on,120,0,11,,,,,,,,,11,62,0
30480,note_on,0,0,11,,,,,,,,,11,67,74
30480,note_on,0,0,5,,,,,,,,,4,59,74
30480,note_on,120,0,8,,,,,,,,,7,66,0
30480,note_on,240,0,10,,,,,,,,,10,74,0
30480,note_on,120,0,7,,,,,,,,,6,62,0
30480,note_on,0,0,7,,,,,,,,,6,67,74
30480,note_on,0,0,8,,,,,,,,,7,64,74
30480,note_on,0,0,15,,,,,,,,,2,73,74
30480,note_on,120,0,14,,,,,,,,,14,54,0
30480,note_on,0,0,14,,,,,,,,,14,59,74
30480,note_on,1920,0,2,,,,,,,,,0,74,64
30480,note_on,240,0,15,,,,,,,,,2,74,0
30480,note_on,120,0,4,,,,,,,,,3,62,0
30600,note_on,0,0,15,,,,,,,,,2,71,74
30600,note_on,120,0,6,,,,,,,,,5,73,0
30600,note_on,120,0,10,,,,,,,,,10,73,0
30600,note_on,0,0,10,,,,,,,,,10,71,74
30600,note_on,0,0,6,,,,,,,,,5,71,74
30600,note_on,0,0,8,,,,,,,,,7,62,74
30600,note_on,120,0,8,,,,,,,,,7,64,0
30600,note_on,120,0,15,,,,,,,,,2,73,0
30600,note_on,0,0,12,,,,,,,,,12,62,74
30600,note_on,120,0,12,,,,,,,,,12,64,0
30600,note_on,0,0,16,,,,,,,,,3,71,74
30600,note_on,120,0,16,,,,,,,,,3,73,0
30720,note_on,0,0,2,,,,,,,,,0,76,64
30720,note_on,120,0,12,,,,,,,,,12,62,0
30720,note_on,0,0,12,,,,,,,,,12,61,75
30720,note_on,0,0,15,,,,,,,,,2,73,75
30720,note_on,120,0,15,,,,,,,,,2,71,0
30720,note_on,240,0,2,,,,,,,,,0,74,0
30720,note_on,120,0,6,,,,,,,,,5,71,0
30720,note_on,0,0,8,,,,,,,,,7,61,75
30720,note_on,0,0,16,,,,,,,,,3,73,75
30720,note_on,120,0,16,,,,,,,,,3,71,0
30720,note_on,120,0,10,,,,,,,,,10,71,0
30720,note_on,120,0,8,,,,,,,,,7,62,0
30720,note_on,0,0,10,,,,,,,,,10,73,75
30720,note_on,0,0,6,,,,,,,,,5,73,75
30840,note_on,120,0,8,,,,,,,,,7,61,0
30840,note_on,0,0,8,,,,,,,,,7,64,75
30840,note_on,0,0,10,,,,,,,,,10,69,75
30840,note_on,120,0,10,,,,,,,,,10,73,0
30840,note_on,120,0,15,,,,,,,,,2,73,0
30840,note_on,0,0,14,,,,,,,,,14,61,75
30840,note_on,360,0,5,,,,,,,,,4,59,0
30840,note_on,0,0,5,,,,,,,,,4,61,75
30840,note_on,360,0,9,,,,,,,,,8,59,0
30840,note_on,0,0,9,,,,,,,,,8,61,75
30840,note_on,120,0,12,,,,,,,,,12,61,0
30840,note_on,0,0,12,,,,,,,,,12,64,75
30840,note_on,0,0,16,,,,,,,,,3,69,75
30840,note_on,360,0,14,,,,,,,,,14,59,0
30840,note_on,0,0,15,,,,,,,,,2,69,75
30840,note_on,120,0,16,,,,,,,,,3,73,0
30840,note_on,120,0,6,,,,,,,,,5,73,0
30840,note_on,0,0,6,,,,,,,,,5,69,75
30840,note_on,0,0,13,,,,,,,,,13,61,75
30840,note_on,360,0,13,,,,,,,,,13,59,0
30960,note_on,240,0,2,,,,,,,,,0,76,0
30960,note_on,0,0,9,,,,,,,,,8,62,76
30960,note_on,120,0,9,,,,,,,,,8,61,0
30960,note_on,120,0,13,,,,,,,,,13,61,0
30960,note_on,0,0,13,,,,,,,,,13,62,76
30960,note_on,0,0,5,,,,,,,,,4,62,76
30960,note_on,0,0,2,,,,,,,,,0,81,64
30960,note_on,0,0,2,,,,,,,,,0,78,64
30960,note_on,120,0,10,,,,,,,,,10,69,0
30960,note_on,0,0,8,,,,,,,,,7,62,76
30960,note_on,120,0,8,,,,,,,,,7,64,0
30960,note_on,0,0,6,,,,,,,,,5,74,76
30960,note_on,120,0,6,,,,,,,,,5,69,0
30960,note_on,480,0,4,,,,,,,,,3,67,0
30960,note_on,0,0,4,,,,,,,,,3,66,76
30960,note_on,480,0,11,,,,,,,,,11,67,0
30960,note_on,0,0,11,,,,,,,,,11,66,76
30960,note_on,120,0,14,,,,,,,,,14,61,0
30960,note_on,0,0,14,,,,,,,,,14,62,76
30960,note_on,0,0,10,,,,,,,,,10,74,76
30960,note_on,120,0,12,,,,,,,,,12,64,0
30960,note_on,120,0,5,,,,,,,,,4,61,0
30960,note_on,0,0,15,,,,,,,,,2,74,76
30960,note_on,0,0,12,,,,,,,,,12,62,76
30960,note_on,480,0,7,,,,,,,,,6,67,0
30960,note_on,120,0,16,,,,,,,,,3,69,0
30960,note_on,0,0,7,,,,,,,,,6,66,76
30960,note_on,0,0,16,,,,,,,,,3,74,76
30960,note_on,120,0,15,,,,,,,,,2,69,0
31020,note_on,0,0,5,,,,,,,,,4,60,76
31020,note_on,60,0,13,,,,,,,,,13,62,0
31020,note_on,0,0,13,,,,,,,,,13,60,76
31020,note_on,0,0,9,,,,,,,,,8,60,76
31020,note_on,60,0,9,,,,,,,,,8,62,0
31020,note_on,0,0,14,,,,,,,,,14,60,76
31020,note_on,60,0,5,,,,,,,,,4,62,0
31020,note_on,60,0,14,,,,,,,,,14,62,0
31080,note_on,120,0,8,,,,,,,,,7,62,0
31080,note_on,0,0,14,,,,,,,,,14,59,76
31080,note_on,60,0,14,,,,,,,,,14,60,0
31080,note_on,120,0,11,,,,,,,,,11,66,0
31080,note_on,0,0,5,,,,,,,,,4,59,76
31080,note_on,0,0,8,,,,,,,,,7,66,76
31080,note_on,0,0,9,,,,,,,,,8,59,76
31080,note_on,0,0,11,,,,,,,,,11,66,76
31080,note_on,60,0,9,,,,,,,,,8,60,0
31080,note_on,120,0,12,,,,,,,,,12,62,0
31080,note_on,60,0,5,,,,,,,,,4,60,0
31080,note_on,60,0,13,,,,,,,,,13,60,0
31080,note_on,0,0,12,,,,,,,,,12,66,76
31080,note_on,0,0,13,,,,,,,,,13,59,76
31140,note_on,60,0,9,,,,,,,,,8,59,0
31140,note_on,60,0,5,,,,,,,,,4,59,0
31140,note_on,0,0,14,,,,,,,,,14,57,76
31140,note_on,60,0,14,,,,,,,,,14,59,0
31140,note_on,0,0,5,,,,,,,,,4,57,76
31140,note_on,0,0,9,,,,,,,,,8,57,76
31140,note_on,0,0,13,,,,,,,,,13,57,76
31140,note_on,60,0,13,,,,,,,,,13,59,0
31200,note_on,60,0,9,,,,,,,,,8,57,0
31200,note_on,120,0,12,,,,,,,,,12,66,0
31200,note_on,60,0,14,,,,,,,,,14,57,0
31200,note_on,0,0,14,,,,,,,,,14,55,76
31200,note_on,0,0,13,,,,,,,,,13,55,76
31200,note_on,0,0,12,,,,,,,,,12,59,76
31200,note_on,0,0,11,,,,,,,,,11,64,76
31200,note_on,120,0,11,,,,,,,,,11,66,0
31200,note_on,0,0,7,,,,,,,,,6,64,76
31200,note_on,0,0,2,,,,,,,,,0,83,64
31200,note_on,0,0,8,,,,,,,,,7,59,76
31200,note_on,120,0,8,,,,,,,,,7,66,0
31200,note_on,0,0,2,,,,,,,,,0,81,0
31200,note_on,240,0,2,,,,,,,,,0,78,0
31200,note_on,0,0,2,,,,,,,,,0,79,64
31200,note_on,0,0,9,,,,,,,,,8,55,76
31200,note_on,60,0,5,,,,,,,,,4,57,0
31200,note_on,60,0,13,,,,,,,,,13,57,0
31200,note_on,240,0,4,,,,,,,,,3,66,0
31200,note_on,0,0,4,,,,,,,,,3,64,76
31200,note_on,240,0,7,,,,,,,,,6,66,0
31200,note_on,0,0,5,,,,,,,,,4,55,76
31320,note_on,120,0,9,,,,,,,,,8,55,0
31320,note_on,120,0,14,,,,,,,,,14,55,0
31320,note_on,0,0,14,,,,,,,,,14,52,77
31320,note_on,0,0,13,,,,,,,,,13,54,77
31320,note_on,0,0,9,,,,,,,,,8,52,77
31320,note_on,120,0,13,,,,,,,,,13,55,0
31320,note_on,120,0,5,,,,,,,,,4,55,0
31320,note_on,0,0,5,,,,,,,,,4,52,77
31380,note_on,60,0,13,,,,,,,,,13,54,0
31380,note_on,0,0,13,,,,,,,,,13,52,77
31440,note_on,240,0,8,,,,,,,,,7,59,0
31440,note_on,480,0,10,,,,,,,,,10,74,0
31440,note_on,0,0,10,,,,,,,,,10,73,77
31440,note_on,0,0,14,,,,,,,,,14,57,77
31440,note_on,120,0,14,,,,,,,,,14,52,0
31440,note_on,0,0,8,,,,,,,,,7,57,77
31440,note_on,480,0,16,,,,,,,,,3,74,0
31440,note_on,0,0,2,,,,,,,,,0,85,64
31440,note_on,0,0,9,,,,,,,,,8,57,77
31440,note_on,0,0,2,,,,,,,,,0,83,0
31440,note_on,120,0,9,,,,,,,,,8,52,0
31440,note_on,0,0,5,,,,,,,,,4,57,77
31440,note_on,120,0,5,,,,,,,,,4,52,0
31440,note_on,480,0,15,,,,,,,,,2,74,0
31440,note_on,0,0,16,,,,,,,,,3,73,77
31440,note_on,0,0,2,,,,,,,,,0,78,64
31440,note_on,240,0,2,,,,,,,,,0,79,0
31440,note_on,0,0,15,,,,,,,,,2,73,77
31440,note_on,240,0,12,,,,,,,,,12,59,0
31440,note_on,60,0,13,,,,,,,,,13,52,0
31440,note_on,0,0,12,,,,,,,,,12,57,77
31440,note_on,0,0,6,,,,,,,,,5,73,77
31440,note_on,480,0,6,,,,,,,,,5,74,0
31440,note_on,0,0,13,,,,,,,,,13,57,77
31560,note_on,0,0,10,,,,,,,,,10,73,77
31560,note_on,0,0,2,,,,,,,,,0,76,64
31560,note_on,120,0,2,,,,,,,,,0,78,0
31560,note_on,120,0,10,,,,,,,,,10,73,0
31680,note_on,120,0,10,,,,,,,,,10,73,0
31680,note_on,480,0,4,,,,,,,,,3,64,0
31680,note_on,0,0,2,,,,,,,,,0,78,64
31680,note_on,0,0,2,,,,,,,,,0,86,64
31680,note_on,0,0,2,,,,,,,,,0,85,0
31680,note_on,120,0,2,,,,,,,,,0,76,0
31680,note_on,0,0,9,,,,,,,,,8,50,78
31680,note_on,0,0,4,,,,,,,,,3,62,78
31680,note_on,0,0,10,,,,,,,,,10,71,78
31680,note_on,240,0,15,,,,,,,,,2,73,0
31680,note_on,0,0,7,,,,,,,,,6,62,78
31680,note_on,240,0,9,,,,,,,,,8,57,0
31680,note_on,0,0,13,,,,,,,,,13,50,78
31680,note_on,240,0,13,,,,,,,,,13,57,0
31680,note_on,480,0,11,,,,,,,,,11,64,0
31680,note_on,0,0,11,,,,,,,,,11,62,78
31680,note_on,0,0,16,,,,,,,,,3,71,78
31680,note_on,480,0,7,,,,,,,,,6,64,0
31680,note_on,0,0,15,,,,,,,,,2,71,78
31680,note_on,0,0,5,,,,,,,,,4,50,78
31680,note_on,240,0,14,,,,,,,,,14,57,0
31680,note_on,0,0,14,,,,,,,,,14,50,78
31680,note_on,240,0,5,,,,,,,,,4,57,0
31680,note_on,240,0,16,,,,,,,,,3,73,0
31680,note_on,0,0,6,,,,,,,,,5,71,78
31680,note_on,240,0,6,,,,,,,,,5,73,0
31800,note_on,0,0,2,,,,,,,,,0,74,64
31800,note_on,120,0,2,,,,,,,,,0,78,0
31920,note_on,0,0,2,,,,,,,,,0,86,0
31920,note_on,0,0,12,,,,,,,,,12,55,78
31920,note_on,480,0,12,,,,,,,,,12,57,0
31920,note_on,0,0,8,,,,,,,,,7,55,78
31920,note_on,0,0,2,,,,,,,,,0,85,64
31920,note_on,480,0,8,,,,,,,,,7,57,0
31920,note_on,0,0,2,,,,,,,,,0,79,64
31920,note_on,120,0,2,,,,,,,,,0,74,0
32040,note_on,0,0,2,,,,,,,,,0,83,64
32040,note_on,120,0,2,,,,,,,,,0,85,0
32040,note_on,120,0,12,,,,,,,,,12,55,0
32040,note_on,0,0,12,,,,,,,,,12,55,78
32160,note_on,0,0,2,,,,,,,,,0,85,64
32160,note_on,120,0,12,,,,,,,,,12,55,0
32160,note_on,240,0,8,,,,,,,,,7,55,0
32160,note_on,0,0,8,,,,,,,,,7,57,79
32160,note_on,480,0,11,,,,,,,,,11,62,0
32160,note_on,0,0,12,,,,,,,,,12,57,79
32160,note_on,480,0,7,,,,,,,,,6,62,0
32160,note_on,120,0,2,,,,,,,,,0,83,0
32160,note_on,480,0,4,,,,,,,,,3,62,0
32160,note_on,0,0,14,,,,,,,,,14,57,79
32160,note_on,0,0,10,,,,,,,,,10,69,79
32160,note_on,480,0,10,,,,,,,,,10,71,0
32160,note_on,480,0,14,,,,,,,,,14,50,0
32160,note_on,480,0,6,,,,,,,,,5,71,0
32160,note_on,0,0,9,,,,,,,,,8,57,79
32160,note_on,480,0,9,,,,,,,,,8,50,0
32160,note_on,0,0,6,,,,,,,,,5,69,79
32160,note_on,480,0,5,,,,,,,,,4,50,0
32160,note_on,480,0,16,,,,,,,,,3,71,0
32160,note_on,480,0,13,,,,,,,,,13,50,0
32160,note_on,0,0,15,,,,,,,,,2,69,79
32160,note_on,480,0,15,,,,,,,,,2,71,0
32160,note_on,0,0,16,,,,,,,,,3,69,79
32280,note_on,120,0,2,,,,,,,,,0,85,0
32280,note_on,0,0,2,,,,,,,,,0,81,64
32400,note_on,0,0,8,,,,,,,,,7,59,79
32400,note_on,120,0,2,,,,,,,,,0,81,0
32400,note_on,0,0,14,,,,,,,,,14,59,79
32400,note_on,240,0,14,,,,,,,,,14,57,0
32400,note_on,0,0,2,,,,,,,,,0,78,64
32400,note_on,0,0,2,,,,,,,,,0,86,64
32400,note_on,0,0,12,,,,,,,,,12,59,79
32400,note_on,240,0,12,,,,,,,,,12,57,0
32400,note_on,240,0,8,,,,,,,,,7,57,0
32400,note_on,0,0,2,,,,,,,,,0,79,0
32400,note_on,0,0,9,,,,,,,,,8,59,79
32400,note_on,240,0,9,,,,,,,,,8,57,0
32400,note_on,240,0,7,,,,,,,,,6,62,79
32400,note_on,240,0,11,,,,,,,,,11,62,79
32400,note_on,240,0,4,,,,,,,,,3,62,79
32640,note_on,0,0,9,,,,,,,,,8,55,80
32640,note_on,0,0,7,,,,,,,,,6,64,80
32640,note_on,0,0,11,,,,,,,,,11,64,80
32640,note_on,240,0,11,,,,,,,,,11,62,0
32640,note_on,240,0,12,,,,,,,,,12,59,0
32640,note_on,0,0,12,,,,,,,,,12,55,80
32640,note_on,480,0,15,,,,,,,,,2,69,0
32640,note_on,240,0,14,,,,,,,,,14,59,0
32640,note_on,0,0,14,,,,,,,,,14,55,80
32640,note_on,0,0,8,,,,,,,,,7,55,80
32640,note_on,480,0,10,,,,,,,,,10,69,0
32640,note_on,240,0,8,,,,,,,,,7,59,0
32640,note_on,240,0,4,,,,,,,,,3,62,0
32640,note_on,0,0,4,,,,,,,,,3,64,80
32640,note_on,480,0,16,,,,,,,,,3,69,0
32640,note_on,240,0,7,,,,,,,,,6,62,0
32640,note_on,480,0,6,,,,,,,,,5,69,0
32640,note_on,0,0,2,,,,,,,,,0,76,64
32640,note_on,240,0,2,,,,,,,,,0,78,0
32640,note_on,240,0,9,,,,,,,,,8,59,0
32880,note_on,240,0,14,,,,,,,,,14,55,0
32880,note_on,0,0,14,,,,,,,,,14,57,81
32880,note_on,0,0,11,,,,,,,,,11,66,81
32880,note_on,240,0,7,,,,,,,,,6,64,0
32880,note_on,0,0,12,,,,,,,,,12,57,81
32880,note_on,0,0,8,,,,,,,,,7,57,81
32880,note_on,240,0,8,,,,,,,,,7,55,0
32880,note_on,0,0,7,,,,,,,,,6,66,81
32880,note_on,0,0,9,,,,,,,,,8,57,81
32880,note_on,0,0,2,,,,,,,,,0,85,64
32880,note_on,240,0,2,,,,,,,,,0,86,0
32880,note_on,240,0,9,,,,,,,,,8,55,0
32880,note_on,0,0,4,,,,,,,,,3,66,81
32880,note_on,240,0,4,,,,,,,,,3,64,0
32880,note_on,240,0,11,,,,,,,,,11,64,0
32880,note_on,240,0,12,,,,,,,,,12,55,0
33120,note_on,240,0,12,,,,,,,,,12,57,0
33120,note_on,0,0,12,,,,,,,,,12,59,83
33120,note_on,240,0,9,,,,,,,,,8,57,0
33120,note_on,0,0,9,,,,,,,,,8,59,83
33120,note_on,240,0,8,,,,,,,,,7,57,0
33120,note_on,0,0,7,,,,,,,,,6,67,83
33120,note_on,240,0,4,,,,,,,,,3,66,0
33120,note_on,0,0,4,,,,,,,,,3,67,83
33120,note_on,0,0,8,,,,,,,,,7,59,83
33120,note_on,240,0,11,,,,,,,,,11,66,0
33120,note_on,240,0,2,,,,,,,,,0,85,0
33120,note_on,0,0,2,,,,,,,,,0,76,0
33120,note_on,0,0,2,,,,,,,,,0,83,64
33120,note_on,240,0,7,,,,,,,,,6,66,0
33120,note_on,0,0,11,,,,,,,,,11,67,83
33120,note_on,240,0,14,,,,,,,,,14,57,0
33120,note_on,0,0,14,,,,,,,,,14,59,83
33120,note_on,0,0,2,,,,,,,,,0,74,64
33360,note_on,240,0,11,,,,,,,,,11,67,0
33360,note_on,0,0,11,,,,,,,,,11,66,84
33360,note_on,240,0,7,,,,,,,,,6,67,0
33360,note_on,0,0,7,,,,,,,,,6,66,84
33360,note_on,240,0,4,,,,,,,,,3,67,0
33360,note_on,0,0,12,,,,,,,,,12,61,84
33360,note_on,240,0,12,,,,,,,,,12,59,0
33360,note_on,0,0,9,,,,,,,,,8,61,84
33360,note_on,0,0,8,,,,,,,,,7,61,84
33360,note_on,0,0,4,,,,,,,,,3,66,84
33360,note_on,240,0,14,,,,,,,,,14,59,0
33360,note_on,240,0,2,,,,,,,,,0,74,0
33360,note_on,240,0,9,,,,,,,,,8,59,0
33360,note_on,240,0,8,,,,,,,,,7,59,0
33360,note_on,0,0,14,,,,,,,,,14,61,84
33480,note_on,0,0,4,,,,,,,,,3,64,84
33480,note_on,0,0,11,,,,,,,,,11,64,84
33480,note_on,120,0,11,,,,,,,,,11,66,0
33480,note_on,120,0,4,,,,,,,,,3,66,0
33480,note_on,120,0,7,,,,,,,,,6,66,0
33480,note_on,0,0,7,,,,,,,,,6,64,84
33600,note_on,240,0,2,,,,,,,,,0,83,0
33600,note_on,960,0,10,,,,,,,,,10,74,85
33600,note_on,960,0,6,,,,,,,,,5,74,85
33600,note_on,240,0,9,,,,,,,,,8,61,0
33600,note_on,0,0,4,,,,,,,,,3,66,85
33600,note_on,120,0,4,,,,,,,,,3,64,0
33600,note_on,0,0,2,,,,,,,,,0,81,64
33600,note_on,0,0,8,,,,,,,,,7,62,85
33600,note_on,240,0,8,,,,,,,,,7,61,0
33600,note_on,0,0,14,,,,,,,,,14,62,85
33600,note_on,240,0,12,,,,,,,,,12,61,0
33600,note_on,0,0,2,,,,,,,,,0,74,64
33600,note_on,0,0,9,,,,,,,,,8,62,85
33600,note_on,960,0,15,,,,,,,,,2,74,85
33600,note_on,120,0,7,,,,,,,,,6,64,0
33600,note_on,960,0,16,,,,,,,,,3,74,85
33600,note_on,0,0,11,,,,,,,,,11,66,85
33600,note_on,120,0,11,,,,,,,,,11,64,0
33600,note_on,0,0,7,,,,,,,,,6,66,85
33600,note_on,0,0,12,,,,,,,,,12,62,85
33600,note_on,240,0,14,,,,,,,,,14,61,0
33720,note_on,0,0,2,,,,,,,,,0,79,64
33720,note_on,0,0,7,,,,,,,,,6,62,86
33720,note_on,120,0,4,,,,,,,,,3,66,0
33720,note_on,0,0,4,,,,,,,,,3,62,86
33720,note_on,120,0,7,,,,,,,,,6,66,0
33720,note_on,120,0,2,,,,,,,,,0,81,0
33720,note_on,0,0,11,,,,,,,,,11,62,86
33720,note_on,120,0,11,,,,,,,,,11,66,0
33780,note_on,0,0,2,,,,,,,,,0,78,64
33780,note_on,60,0,2,,,,,,,,,0,79,0
33840,note_on,0,0,14,,,,,,,,,14,61,86
33840,note_on,0,0,2,,,,,,,,,0,79,64
33840,note_on,60,0,2,,,,,,,,,0,78,0
33840,note_on,240,0,14,,,,,,,,,14,62,0
33840,note_on,240,0,9,,,,,,,,,8,62,0
33840,note_on,0,0,12,,,,,,,,,12,61,86
33840,note_on,0,0,9,,,,,,,,,8,61,86
33840,note_on,120,0,7,,,,,,,,,6,62,0
33840,note_on,0,0,7,,,,,,,,,6,67,86
33840,note_on,120,0,11,,,,,,,,,11,62,0
33840,note_on,0,0,11,,,,,,,,,11,67,86
33840,note_on,0,0,8,,,,,,,,,7,61,86
33840,note_on,0,0,4,,,,,,,,,3,67,86
33840,note_on,120,0,4,,,,,,,,,3,62,0
33840,note_on,240,0,12,,,,,,,,,12,62,0
33840,note_on,240,0,8,,,,,,,,,7,62,0
33960,note_on,120,0,9,,,,,,,,,8,61,0
33960,note_on,120,0,12,,,,,,,,,12,61,0
33960,note_on,120,0,14,,,,,,,,,14,61,0
33960,note_on,0,0,14,,,,,,,,,14,59,87
33960,note_on,0,0,9,,,,,,,,,8,59,87
33960,note_on,120,0,8,,,,,,,,,7,61,0
33960,note_on,0,0,8,,,,,,,,,7,59,87
33960,note_on,0,0,12,,,,,,,,,12,59,87
34080,note_on,1920,0,5,,,,,,,,,4,45,88
34080,note_on,0,0,10,,,,,,,,,10,76,88
34080,note_on,0,0,16,,,,,,,,,3,76,88
34080,note_on,480,0,16,,,,,,,,,3,74,0
34080,note_on,480,0,10,,,,,,,,,10,74,0
34080,note_on,34080,0,3,,,,,,,,,1,45,64
34080,note_on,120,0,8,,,,,,,,,7,59,0
34080,note_on,120,0,12,,,,,,,,,12,59,0
34080,note_on,0,0,12,,,,,,,,,12,61,88
34080,note_on,0,0,8,,,,,,,,,7,61,88
34080,note_on,1920,0,13,,,,,,,,,13,45,88
34080,note_on,120,0,9,,,,,,,,,8,59,0
34080,note_on,0,0,9,,,,,,,,,8,45,88
34080,note_on,0,0,15,,,,,,,,,2,76,88
34080,note_on,0,0,2,,,,,,,,,0,76,64
34080,note_on,0,0,2,,,,,,,,,0,69,64
34080,note_on,480,0,15,,,,,,,,,2,74,0
34080,note_on,240,0,2,,,,,,,,,0,74,0
34080,note_on,120,0,14,,,,,,,,,14,59,0
34080,note_on,0,0,14,,,,,,,,,14,45,88
34080,note_on,0,0,6,,,,,,,,,5,76,88
34080,note_on,480,0,6,,,,,,,,,5,74,0
34200,note_on,0,0,12,,,,,,,,,12,57,88
34200,note_on,0,0,8,,,,,,,,,7,57,88
34200,note_on,120,0,8,,,,,,,,,7,61,0
34200,note_on,120,0,12,,,,,,,,,12,61,0
34320,note_on,0,0,8,,,,,,,,,7,62,89
34320,note_on,120,0,8,,,,,,,,,7,57,0
34320,note_on,0,0,10,,,,,,,,,10,78,89
34320,note_on,0,0,11,,,,,,,,,11,66,89
34320,note_on,240,0,10,,,,,,,,,10,76,0
34320,note_on,480,0,7,,,,,,,,,6,67,0
34320,note_on,0,0,7,,,,,,,,,6,66,89
34320,note_on,0,0,4,,,,,,,,,3,66,89
34320,note_on,480,0,4,,,,,,,,,3,67,0
34320,note_on,480,0,11,,,,,,,,,11,67,0
34320,note_on,240,0,16,,,,,,,,,3,76,0
34320,note_on,0,0,15,,,,,,,,,2,78,89
34320,note_on,240,0,6,,,,,,,,,5,76,0
34320,note_on,0,0,6,,,,,,,,,5,78,89
34320,note_on,0,0,2,,,,,,,,,0,78,64
34320,note_on,0,0,2,,,,,,,,,0,78,64
34320,note_on,240,0,15,,,,,,,,,2,76,0
34320,note_on,240,0,2,,,,,,,,,0,76,0
34320,note_on,0,0,2,,,,,,,,,0,79,0
34320,note_on,0,0,12,,,,,,,,,12,62,89
34320,note_on,120,0,12,,,,,,,,,12,57,0
34320,note_on,0,0,16,,,,,,,,,3,78,89
34560,note_on,240,0,15,,,,,,,,,2,78,0
34560,note_on,0,0,6,,,,,,,,,5,79,90
34560,note_on,240,0,6,,,,,,,,,5,78,0
34560,note_on,0,0,14,,,,,,,,,14,47,90
34560,note_on,0,0,3,,,,,,,,,1,50,64
34560,note_on,0,0,15,,,,,,,,,2,79,90
34560,note_on,480,0,14,,,,,,,,,14,45,0
34560,note_on,480,0,13,,,,,,,,,13,45,0
34560,note_on,240,0,10,,,,,,,,,10,78,0
34560,note_on,0,0,13,,,,,,,,,13,47,90
34560,note_on,480,0,3,,,,,,,,,1,45,0
34560,note_on,0,0,2,,,,,,,,,0,62,64
34560,note_on,0,0,2,,,,,,,,,0,79,64
34560,note_on,0,0,2,,,,,,,,,0,69,0
34560,note_on,240,0,2,,,,,,,,,0,78,0
34560,note_on,0,0,9,,,,,,,,,8,47,90
34560,note_on,0,0,10,,,,,,,,,10,79,90
34560,note_on,480,0,9,,,,,,,,,8,45,0
34560,note_on,0,0,16,,,,,,,,,3,79,90
34560,note_on,480,0,5,,,,,,,,,4,45,0
34560,note_on,240,0,16,,,,,,,,,3,78,0
34560,note_on,0,0,5,,,,,,,,,4,47,90
34680,note_on,0,0,8,,,,,,,,,7,61,90
34680,note_on,360,0,8,,,,,,,,,7,62,0
34680,note_on,360,0,4,,,,,,,,,3,66,0
34680,note_on,360,0,7,,,,,,,,,6,66,0
34680,note_on,120,0,2,,,,,,,,,0,78,0
34680,note_on,0,0,7,,,,,,,,,6,64,90
34680,note_on,0,0,4,,,,,,,,,3,64,90
34680,note_on,0,0,2,,,,,,,,,0,76,90
34680,note_on,0,0,11,,,,,,,,,11,64,90
34680,note_on,360,0,11,,,,,,,,,11,66,0
34680,note_on,360,0,12,,,,,,,,,12,62,0
34680,note_on,0,0,12,,,,,,,,,12,61,90
34740,note_on,0,0,11,,,,,,,,,11,62,90
34740,note_on,60,0,8,,,,,,,,,7,61,0
34740,note_on,0,0,8,,,,,,,,,7,59,90
34740,note_on,60,0,4,,,,,,,,,3,64,0
34740,note_on,0,0,4,,,,,,,,,3,62,90
34740,note_on,0,0,2,,,,,,,,,0,74,90
34740,note_on,0,0,12,,,,,,,,,12,59,90
34740,note_on,60,0,12,,,,,,,,,12,61,0
34740,note_on,60,0,7,,,,,,,,,6,64,0
34740,note_on,60,0,11,,,,,,,,,11,64,0
34740,note_on,60,0,2,,,,,,,,,0,76,0
34740,note_on,0,0,7,,,,,,,,,6,62,90
34800,note_on,240,0,16,,,,,,,,,3,79,0
34800,note_on,240,0,15,,,,,,,,,2,79,0
34800,note_on,60,0,2,,,,,,,,,0,74,0
34800,note_on,0,0,12,,,,,,,,,12,64,90
34800,note_on,60,0,7,,,,,,,,,6,62,0
34800,note_on,60,0,4,,,,,,,,,3,62,0
34800,note_on,60,0,11,,,,,,,,,11,62,0
34800,note_on,0,0,11,,,,,,,,,11,69,90
34800,note_on,0,0,5,,,,,,,,,4,49,90
34800,note_on,240,0,5,,,,,,,,,4,47,0
34800,note_on,240,0,14,,,,,,,,,14,47,0
34800,note_on,0,0,14,,,,,,,,,14,49,90
34800,note_on,0,0,8,,,,,,,,,7,64,90
34800,note_on,0,0,4,,,,,,,,,3,69,90
34800,note_on,60,0,8,,,,,,,,,7,59,0
34800,note_on,0,0,7,,,,,,,,,6,69,90
34800,note_on,0,0,16,,,,,,,,,3,78,90
34800,note_on,0,0,15,,,,,,,,,2,78,90
34800,note_on,240,0,9,,,,,,,,,8,47,0
34800,note_on,240,0,3,,,,,,,,,1,50,0
34800,note_on,0,0,3,,,,,,,,,1,45,64
34800,note_on,0,0,10,,,,,,,,,10,78,90
34800,note_on,0,0,2,,,,,,,,,0,62,0
34800,note_on,240,0,13,,,,,,,,,13,47,0
34800,note_on,0,0,13,,,,,,,,,13,49,90
34800,note_on,0,0,2,,,,,,,,,0,79,0
34800,note_on,0,0,2,,,,,,,,,0,81,90
34800,note_on,0,0,2,,,,,,,,,0,78,64
34800,note_on,240,0,6,,,,,,,,,5,79,0
34800,note_on,0,0,6,,,,,,,,,5,78,90
34800,note_on,60,0,12,,,,,,,,,12,59,0
34800,note_on,0,0,9,,,,,,,,,8,49,90
34800,note_on,240,0,10,,,,,,,,,10,79,0
34920,note_on,0,0,6,,,,,,,,,5,76,90
34920,note_on,120,0,15,,,,,,,,,2,78,0
34920,note_on,0,0,15,,,,,,,,,2,76,90
34920,note_on,0,0,2,,,,,,,,,0,69,64
34920,note_on,0,0,16,,,,,,,,,3,76,90
34920,note_on,120,0,6,,,,,,,,,5,78,0
34920,note_on,0,0,2,,,,,,,,,0,76,64
34920,note_on,120,0,16,,,,,,,,,3,78,0
34920,note_on,120,0,2,,,,,,,,,0,78,0
34920,note_on,120,0,10,,,,,,,,,10,78,0
34920,note_on,0,0,10,,,,,,,,,10,76,90
35040,note_on,240,0,14,,,,,,,,,14,49,0
35040,note_on,0,0,14,,,,,,,,,14,50,90
35040,note_on,0,0,2,,,,,,,,,0,78,64
35040,note_on,0,0,2,,,,,,,,,0,76,0
35040,note_on,0,0,16,,,,,,,,,3,78,90
35040,note_on,0,0,3,,,,,,,,,1,50,64
35040,note_on,240,0,3,,,,,,,,,1,45,0
35040,note_on,240,0,9,,,,,,,,,8,49,0
35040,note_on,120,0,2,,,,,,,,,0,69,0
35040,note_on,240,0,13,,,,,,,,,13,49,0
35040,note_on,240,0,5,,,,,,,,,4,49,0
35040,note_on,0,0,6,,,,,,,,,5,78,90
35040,note_on,0,0,5,,,,,,,,,4,50,90
35040,note_on,120,0,10,,,,,,,,,10,76,0
35040,note_on,0,0,2,,,,,,,,,0,69,64
35040,note_on,0,0,10,,,,,,,,,10,78,90
35040,note_on,0,0,13,,,,,,,,,13,50,90
35040,note_on,120,0,6,,,,,,,,,5,76,0
35040,note_on,0,0,15,,,,,,,,,2,78,90
35040,note_on,120,0,16,,,,,,,,,3,76,0
35040,note_on,120,0,15,,,,,,,,,2,76,0
35040,note_on,0,0,9,,,,,,,,,8,50,90
35160,note_on,0,0,2,,,,,,,,,0,79,90
35160,note_on,0,0,16,,,,,,,,,3,74,90
35160,note_on,0,0,11,,,,,,,,,11,67,90
35160,note_on,360,0,11,,,,,,,,,11,69,0
35160,note_on,0,0,2,,,,,,,,,0,74,64
35160,note_on,0,0,10,,,,,,,,,10,74,90
35160,note_on,0,0,4,,,,,,,,,3,67,90
35160,note_on,120,0,2,,,,,,,,,0,78,0
35160,note_on,0,0,2,,,,,,,,,0,81,0
35160,note_on,360,0,7,,,,,,,,,6,69,0
35160,note_on,120,0,15,,,,,,,,,2,78,0
35160,note_on,0,0,15,,,,,,,,,2,74,90
35160,note_on,360,0,4,,,,,,,,,3,69,0
35160,note_on,120,0,10,,,,,,,,,10,78,0
35160,note_on,0,0,6,,,,,,,,,5,74,90
35160,note_on,120,0,16,,,,,,,,,3,78,0
35160,note_on,0,0,7,,,,,,,,,6,67,90
35160,note_on,360,0,12,,,,,,,,,12,64,0
35160,note_on,0,0,8,,,,,,,,,7,57,90
35160,note_on,360,0,8,,,,,,,,,7,64,0
35160,note_on,0,0,12,,,,,,,,,12,57,90
35160,note_on,120,0,6,,,,,,,,,5,78,0
35220,note_on,60,0,11,,,,,,,,,11,67,0
35220,note_on,0,0,11,,,,,,,,,11,66,90
35220,note_on,0,0,2,,,,,,,,,0,78,90
35220,note_on,60,0,2,,,,,,,,,0,79,0
35220,note_on,0,0,4,,,,,,,,,3,66,90
35220,note_on,60,0,4,,,,,,,,,3,67,0
35220,note_on,60,0,7,,,,,,,,,6,67,0
35220,note_on,0,0,7,,,,,,,,,6,66,90
35280,note_on,60,0,2,,,,,,,,,0,78,0
35280,note_on,120,0,8,,,,,,,,,7,57,0
35280,note_on,0,0,8,,,,,,,,,7,62,90
35280,note_on,0,0,2,,,,,,,,,0,74,0
35280,note_on,0,0,7,,,,,,,,,6,71,90
35280,note_on,0,0,2,,,,,,,,,0,83,90
35280,note_on,240,0,3,,,,,,,,,1,50,0
35280,note_on,0,0,3,,,,,,,,,1,50,64
35280,note_on,0,0,9,,,,,,,,,8,49,90
35280,note_on,240,0,9,,,,,,,,,8,50,0
35280,note_on,240,0,13,,,,,,,,,13,50,0
35280,note_on,0,0,13,,,,,,,,,13,49,90
35280,note_on,120,0,6,,,,,,,,,5,74,0
35280,note_on,0,0,6,,,,,,,,,5,79,90
35280,note_on,60,0,7,,,,,,,,,6,66,0
35280,note_on,120,0,15,,,,,,,,,2,74,0
35280,note_on,0,0,15,,,,,,,,,2,79,90
35280,note_on,0,0,2,,,,,,,,,0,69,0
35280,note_on,120,0,12,,,,,,,,,12,57,0
35280,note_on,0,0,5,,,,,,,,,4,49,90
35280,note_on,240,0,5,,,,,,,,,4,50,0
35280,note_on,0,0,12,,,,,,,,,12,62,90
35280,note_on,240,0,14,,,,,,,,,14,50,0
35280,note_on,0,0,2,,,,,,,,,0,79,64
35280,note_on,0,0,2,,,,,,,,,0,74,64
35280,note_on,120,0,16,,,,,,,,,3,74,0
35280,note_on,60,0,11,,,,,,,,,11,66,0
35280,note_on,0,0,11,,,,,,,,,11,71,90
35280,note_on,0,0,16,,,,,,,,,3,79,90
35280,note_on,0,0,10,,,,,,,,,10,79,90
35280,note_on,0,0,4,,,,,,,,,3,71,90
35280,note_on,60,0,4,,,,,,,,,3,66,0
35280,note_on,120,0,10,,,,,,,,,10,74,0
35280,note_on,0,0,14,,,,,,,,,14,49,90
35400,note_on,120,0,14,,,,,,,,,14,49,0
35400,note_on,120,0,5,,,,,,,,,4,49,0
35400,note_on,0,0,5,,,,,,,,,4,47,90
35400,note_on,120,0,9,,,,,,,,,8,49,0
35400,note_on,0,0,9,,,,,,,,,8,47,90
35400,note_on,120,0,11,,,,,,,,,11,71,0
35400,note_on,120,0,13,,,,,,,,,13,49,0
35400,note_on,0,0,13,,,,,,,,,13,47,90
35400,note_on,0,0,14,,,,,,,,,14,47,90
35400,note_on,0,0,11,,,,,,,,,11,71,90
35520,note_on,120,0,13,,,,,,,,,13,47,0
35520,note_on,0,0,14,,,,,,,,,14,49,90
35520,note_on,0,0,7,,,,,,,,,6,69,90
35520,note_on,120,0,14,,,,,,,,,14,47,0
35520,note_on,0,0,13,,,,,,,,,13,49,90
35520,note_on,120,0,9,,,,,,,,,8,47,0
35520,note_on,0,0,2,,,,,,,,,0,83,0
35520,note_on,0,0,12,,,,,,,,,12,64,90
35520,note_on,240,0,12,,,,,,,,,12,62,0
35520,note_on,120,0,5,,,,,,,,,4,47,0
35520,note_on,0,0,4,,,,,,,,,3,69,90
35520,note_on,240,0,4,,,,,,,,,3,71,0
35520,note_on,0,0,9,,,,,,,,,8,49,90
35520,note_on,0,0,11,,,,,,,,,11,69,90
35520,note_on,120,0,11,,,,,,,,,11,71,0
35520,note_on,0,0,2,,,,,,,,,0,76,64
35520,note_on,0,0,2,,,,,,,,,0,81,90
35520,note_on,0,0,5,,,,,,,,,4,49,90
35520,note_on,240,0,2,,,,,,,,,0,74,0
35520,note_on,240,0,8,,,,,,,,,7,62,0
35520,note_on,240,0,3,,,,,,,,,1,50,0
35520,note_on,0,0,8,,,,,,,,,7,64,90
35520,note_on,0,0,3,,,,,,,,,1,45,64
35520,note_on,240,0,7,,,,,,,,,6,71,0
35640,note_on,0,0,5,,,,,,,,,4,45,90
35640,note_on,120,0,14,,,,,,,,,14,49,0
35640,note_on,0,0,14,,,,,,,,,14,45,90
35640,note_on,0,0,9,,,,,,,,,8,45,90
35640,note_on,120,0,13,,,,,,,,,13,49,0
35640,note_on,120,0,9,,,,,,,,,8,49,0
35640,note_on,120,0,5,,,,,,,,,4,49,0
35640,note_on,0,0,13,,,,,,,,,13,45,90
35760,note_on,0,0,14,,,,,,,,,14,50,90
35760,note_on,0,0,5,,,,,,,,,4,50,90
35760,note_on,0,0,3,,,,,,,,,1,50,64
35760,note_on,120,0,14,,,,,,,,,14,45,0
35760,note_on,240,0,3,,,,,,,,,1,45,0
35760,note_on,120,0,9,,,,,,,,,8,45,0
35760,note_on,120,0,5,,,,,,,,,4,45,0
35760,note_on,480,0,6,,,,,,,,,5,79,0
35760,note_on,0,0,9,,,,,,,,,8,50,90
35760,note_on,0,0,6,,,,,,,,,5,78,90
35760,note_on,480,0,10,,,,,,,,,10,79,0
35760,note_on,0,0,2,,,,,,,,,0,78,64
35760,note_on,480,0,16,,,,,,,,,3,79,0
35760,note_on,240,0,2,,,,,,,,,0,76,0
35760,note_on,0,0,2,,,,,,,,,0,79,0
35760,note_on,0,0,16,,,,,,,,,3,78,90
35760,note_on,0,0,13,,,,,,,,,13,50,90
35760,note_on,120,0,13,,,,,,,,,13,45,0
35760,note_on,240,0,8,,,,,,,,,7,64,0
35760,note_on,0,0,8,,,,,,,,,7,62,90
35760,note_on,480,0,15,,,,,,,,,2,79,0
35760,note_on,0,0,10,,,,,,,,,10,78,90
35760,note_on,0,0,2,,,,,,,,,0,74,64
35760,note_on,240,0,12,,,,,,,,,12,64,0
35760,note_on,0,0,12,,,,,,,,,12,62,90
35760,note_on,0,0,15,,,,,,,,,2,78,90
35880,note_on,120,0,8,,,,,,,,,7,62,0
35880,note_on,0,0,10,,,,,,,,,10,78,90
35880,note_on,120,0,10,,,,,,,,,10,78,0
35880,note_on,0,0,8,,,,,,,,,7,61,90
35880,note_on,0,0,12,,,,,,,,,12,61,90
35880,note_on,120,0,12,,,,,,,,,12,62,0
36000,note_on,0,0,16,,,,,,,,,3,76,90
36000,note_on,0,0,12,,,,,,,,,12,59,90
36000,note_on,120,0,12,,,,,,,,,12,61,0
36000,note_on,240,0,16,,,,,,,,,3,78,0
36000,note_on,0,0,8,,,,,,,,,7,59,90
36000,note_on,0,0,2,,,,,,,,,0,78,0
36000,note_on,0,0,2,,,,,,,,,0,80,90
36000,note_on,0,0,2,,,,,,,,,0,76,64
36000,note_on,0,0,4,,,,,,,,,3,68,90
36000,note_on,480,0,4,,,,,,,,,3,69,0
36000,note_on,0,0,2,,,,,,,,,0,76,64
36000,note_on,0,0,11,,,,,,,,,11,68,90
36000,note_on,480,0,11,,,,,,,,,11,69,0
36000,note_on,0,0,7,,,,,,,,,6,68,90
36000,note_on,480,0,7,,,,,,,,,6,69,0
36000,note_on,240,0,2,,,,,,,,,0,74,0
36000,note_on,120,0,8,,,,,,,,,7,61,0
36000,note_on,240,0,6,,,,,,,,,5,78,0
36000,note_on,240,0,15,,,,,,,,,2,78,0
36000,note_on,0,0,15,,,,,,,,,2,76,90
36000,note_on,0,0,10,,,,,,,,,10,76,90
36000,note_on,0,0,6,,,,,,,,,5,76,90
36000,note_on,0,0,2,,,,,,,,,0,81,0
36000,note_on,120,0,10,,,,,,,,,10,78,0
36240,note_on,0,0,2,,,,,,,,,0,81,116
36240,note_on,480,0,9,,,,,,,,,8,50,0
36240,note_on,0,0,9,,,,,,,,,8,49,90
36240,note_on,240,0,2,,,,,,,,,0,80,0
36240,note_on,0,0,5,,,,,,,,,4,49,90
36240,note_on,0,0,3,,,,,,,,,1,45,64
36240,note_on,0,0,12,,,,,,,,,12,61,90
36240,note_on,480,0,3,,,,,,,,,1,50,0
36240,note_on,240,0,12,,,,,,,,,12,59,0
36240,note_on,480,0,5,,,,,,,,,4,50,0
36240,note_on,0,0,14,,,,,,,,,14,49,90
36240,note_on,0,0,4,,,,,,,,,3,69,116
36240,note_on,480,0,14,,,,,,,,,14,50,0
36240,note_on,480,0,13,,,,,,,,,13,50,0
36240,note_on,0,0,13,,,,,,,,,13,49,90
36240,note_on,240,0,8,,,,,,,,,7,59,0
36240,note_on,0,0,8,,,,,,,,,7,61,90
36240,note_on,0,0,7,,,,,,,,,6,69,116
36240,note_on,240,0,4,,,,,,,,,3,68,0
36240,note_on,0,0,11,,,,,,,,,11,69,116
36240,note_on,240,0,11,,,,,,,,,11,68,0
36240,note_on,240,0,7,,,,,,,,,6,68,0
36360,note_on,120,0,13,,,,,,,,,13,49,0
36360,note_on,0,0,13,,,,,,,,,13,49,90
36360,note_on,120,0,9,,,,,,,,,8,49,0
36360,note_on,0,0,9,,,,,,,,,8,49,80
36360,note_on,0,0,14,,,,,,,,,14,49,80
36360,note_on,0,0,12,,,,,,,,,12,61,90
36360,note_on,120,0,12,,,,,,,,,12,61,0
36360,note_on,120,0,14,,,,,,,,,14,49,0
36480,note_on,120,0,9,,,,,,,,,8,49,0
36480,note_on,0,0,2,,,,,,,,,0,78,64
36480,note_on,0,0,13,,,,,,,,,13,47,86
36480,note_on,120,0,13,,,,,,,,,13,49,0
36480,note_on,0,0,2,,,,,,,,,0,74,64
36480,note_on,0,0,2,,,,,,,,,0,76,0
36480,note_on,240,0,2,,,,,,,,,0,76,0
36480,note_on,240,0,5,,,,,,,,,4,49,0
36480,note_on,0,0,9,,,,,,,,,8,47,86
36480,note_on,0,0,5,,,,,,,,,4,47,86
36480,note_on,0,0,10,,,,,,,,,10,74,86
36480,note_on,0,0,8,,,,,,,,,7,62,86
36480,note_on,0,0,15,,,,,,,,,2,74,86
36480,note_on,480,0,15,,,,,,,,,2,76,0
36480,note_on,240,0,8,,,,,,,,,7,61,0
36480,note_on,120,0,14,,,,,,,,,14,49,0
36480,note_on,0,0,14,,,,,,,,,14,47,86
36480,note_on,480,0,6,,,,,,,,,5,76,0
36480,note_on,0,0,16,,,,,,,,,3,74,86
36480,note_on,480,0,16,,,,,,,,,3,76,0
36480,note_on,120,0,12,,,,,,,,,12,61,0
36480,note_on,0,0,6,,,,,,,,,5,74,86
36480,note_on,0,0,3,,,,,,,,,1,50,64
36480,note_on,240,0,3,,,,,,,,,1,45,0
36480,note_on,0,0,12,,,,,,,,,12,62,86
36480,note_on,480,0,10,,,,,,,,,10,76,0
36600,note_on,0,0,7,,,,,,,,,6,69,85
36600,note_on,0,0,8,,,,,,,,,7,61,85
36600,note_on,120,0,8,,,,,,,,,7,62,0
36600,note_on,0,0,11,,,,,,,,,11,69,85
36600,note_on,360,0,4,,,,,,,,,3,69,0
36600,note_on,0,0,12,,,,,,,,,12,61,85
36600,note_on,0,0,4,,,,,,,,,3,69,85
36600,note_on,360,0,11,,,,,,,,,11,69,0
36600,note_on,360,0,7,,,,,,,,,6,69,0
36600,note_on,120,0,12,,,,,,,,,12,62,0
36720,note_on,0,0,2,,,,,,,,,0,80,64
36720,note_on,120,0,4,,,,,,,,,3,69,0
36720,note_on,0,0,7,,,,,,,,,6,68,83
36720,note_on,240,0,2,,,,,,,,,0,78,0
36720,note_on,120,0,7,,,,,,,,,6,69,0
36720,note_on,0,0,11,,,,,,,,,11,68,83
36720,note_on,0,0,4,,,,,,,,,3,68,83
36720,note_on,120,0,8,,,,,,,,,7,61,0
36720,note_on,0,0,2,,,,,,,,,0,62,64
36720,note_on,0,0,8,,,,,,,,,7,59,83
36720,note_on,0,0,10,,,,,,,,,10,74,109
36720,note_on,240,0,10,,,,,,,,,10,74,0
36720,note_on,0,0,2,,,,,,,,,0,81,0
36720,note_on,120,0,11,,,,,,,,,11,69,0
36720,note_on,0,0,16,,,,,,,,,3,74,109
36720,note_on,0,0,6,,,,,,,,,5,74,109
36720,note_on,0,0,12,,,,,,,,,12,59,83
36720,note_on,120,0,12,,,,,,,,,12,61,0
36720,note_on,240,0,6,,,,,,,,,5,74,0
36720,note_on,240,0,15,,,,,,,,,2,74,0
36720,note_on,0,0,15,,,,,,,,,2,74,109
36720,note_on,240,0,16,,,,,,,,,3,74,0
36840,note_on,120,0,4,,,,,,,,,3,68,0
36840,note_on,120,0,11,,,,,,,,,11,68,0
36840,note_on,0,0,4,,,,,,,,,3,68,82
36840,note_on,0,0,11,,,,,,,,,11,68,82
36840,note_on,0,0,7,,,,,,,,,6,68,82
36840,note_on,120,0,7,,,,,,,,,6,68,0
36960,note_on,480,0,3,,,,,,,,,1,50,0
36960,note_on,120,0,7,,,,,,,,,6,68,0
36960,note_on,0,0,3,,,,,,,,,1,45,64
36960,note_on,0,0,7,,,,,,,,,6,69,80
36960,note_on,0,0,5,,,,,,,,,4,45,80
36960,note_on,240,0,12,,,,,,,,,12,59,0
36960,note_on,0,0,12,,,,,,,,,12,64,80
36960,note_on,120,0,11,,,,,,,,,11,68,0
36960,note_on,0,0,11,,,,,,,,,11,69,80
36960,note_on,480,0,13,,,,,,,,,13,47,0
36960,note_on,0,0,13,,,,,,,,,13,45,80
36960,note_on,240,0,2,,,,,,,,,0,62,0
36960,note_on,0,0,2,,,,,,,,,0,81,64
36960,note_on,0,0,2,,,,,,,,,0,74,0
36960,note_on,240,0,8,,,,,,,,,7,59,0
36960,note_on,0,0,8,,,,,,,,,7,64,80
36960,note_on,0,0,2,,,,,,,,,0,76,64
36960,note_on,0,0,2,,,,,,,,,0,69,64
36960,note_on,0,0,9,,,,,,,,,8,45,80
36960,note_on,0,0,2,,,,,,,,,0,80,0
36960,note_on,0,0,4,,,,,,,,,3,69,80
36960,note_on,480,0,9,,,,,,,,,8,47,0
36960,note_on,120,0,4,,,,,,,,,3,68,0
36960,note_on,480,0,5,,,,,,,,,4,47,0
36960,note_on,480,0,14,,,,,,,,,14,47,0
36960,note_on,0,0,14,,,,,,,,,14,45,80
37020,note_on,60,0,7,,,,,,,,,6,69,0
37020,note_on,0,0,7,,,,,,,,,6,64,80
37020,note_on,0,0,4,,,,,,,,,3,64,80
37020,note_on,60,0,11,,,,,,,,,11,69,0
37020,note_on,0,0,11,,,,,,,,,11,64,80
37020,note_on,60,0,4,,,,,,,,,3,69,0
37080,note_on,360,0,6,,,,,,,,,5,74,0
37080,note_on,0,0,4,,,,,,,,,3,66,79
37080,note_on,60,0,4,,,,,,,,,3,64,0
37080,note_on,0,0,6,,,,,,,,,5,74,79
37080,note_on,360,0,10,,,,,,,,,10,74,0
37080,note_on,0,0,16,,,,,,,,,3,74,79
37080,note_on,360,0,16,,,,,,,,,3,74,0
37080,note_on,360,0,15,,,,,,,,,2,74,0
37080,note_on,0,0,7,,,,,,,,,6,66,79
37080,note_on,60,0,7,,,,,,,,,6,64,0
37080,note_on,0,0,15,,,,,,,,,2,74,79
37080,note_on,60,0,11,,,,,,,,,11,64,0
37080,note_on,0,0,11,,,,,,,,,11,66,79
37080,note_on,0,0,10,,,,,,,,,10,74,79
37140,note_on,0,0,4,,,,,,,,,3,68,78
37140,note_on,60,0,4,,,,,,,,,3,66,0
37140,note_on,0,0,11,,,,,,,,,11,68,78
37140,note_on,60,0,7,,,,,,,,,6,66,0
37140,note_on,0,0,7,,,,,,,,,6,68,78
37140,note_on,60,0,11,,,,,,,,,11,66,0
37200,note_on,0,0,6,,,,,,,,,5,73,78
37200,note_on,120,0,6,,,,,,,,,5,74,0
37200,note_on,0,0,9,,,,,,,,,8,57,104
37200,note_on,240,0,9,,,,,,,,,8,45,0
37200,note_on,0,0,4,,,,,,,,,3,69,78
37200,note_on,60,0,4,,,,,,,,,3,68,0
37200,note_on,240,0,14,,,,,,,,,14,45,0
37200,note_on,0,0,14,,,,,,,,,14,57,104
37200,note_on,0,0,16,,,,,,,,,3,73,78
37200,note_on,240,0,13,,,,,,,,,13,45,0
37200,note_on,120,0,10,,,,,,,,,10,74,0
37200,note_on,0,0,10,,,,,,,,,10,73,78
37200,note_on,120,0,16,,,,,,,,,3,74,0
37200,note_on,0,0,15,,,,,,,,,2,73,78
37200,note_on,240,0,5,,,,,,,,,4,45,0
37200,note_on,0,0,11,,,,,,,,,11,69,78
37200,note_on,60,0,11,,,,,,,,,11,68,0
37200,note_on,0,0,5,,,,,,,,,4,57,104
37200,note_on,60,0,7,,,,,,,,,6,68,0
37200,note_on,0,0,7,,,,,,,,,6,69,78
37200,note_on,0,0,13,,,,,,,,,13,57,104
37200,note_on,120,0,15,,,,,,,,,2,74,0
37260,note_on,60,0,7,,,,,,,,,6,69,0
37260,note_on,60,0,4,,,,,,,,,3,69,0
37260,note_on,0,0,7,,,,,,,,,6,71,77
37260,note_on,0,0,11,,,,,,,,,11,71,77
37260,note_on,60,0,11,,,,,,,,,11,69,0
37260,note_on,0,0,4,,,,,,,,,3,71,77
37320,note_on,0,0,8,,,,,,,,,7,64,76
37320,note_on,360,0,8,,,,,,,,,7,64,0
37320,note_on,0,0,11,,,,,,,,,11,68,76
37320,note_on,60,0,4,,,,,,,,,3,71,0
37320,note_on,60,0,11,,,,,,,,,11,71,0
37320,note_on,0,0,12,,,,,,,,,12,64,76
37320,note_on,360,0,12,,,,,,,,,12,64,0
37320,note_on,0,0,16,,,,,,,,,3,73,76
37320,note_on,120,0,16,,,,,,,,,3,73,0
37320,note_on,0,0,10,,,,,,,,,10,73,76
37320,note_on,0,0,7,,,,,,,,,6,68,76
37320,note_on,60,0,7,,,,,,,,,6,71,0
37320,note_on,0,0,6,,,,,,,,,5,73,76
37320,note_on,120,0,6,,,,,,,,,5,73,0
37320,note_on,120,0,10,,,,,,,,,10,73,0
37320,note_on,0,0,4,,,,,,,,,3,68,76
37320,note_on,0,0,15,,,,,,,,,2,73,76
37320,note_on,120,0,15,,,,,,,,,2,73,0
37380,note_on,60,0,7,,,,,,,,,6,68,0
37380,note_on,0,0,11,,,,,,,,,11,69,76
37380,note_on,0,0,7,,,,,,,,,6,69,76
37380,note_on,60,0,4,,,,,,,,,3,68,0
37380,note_on,0,0,4,,,,,,,,,3,69,76
37380,note_on,60,0,11,,,,,,,,,11,68,0
37440,note_on,0,0,10,,,,,,,,,10,74,75
37440,note_on,0,0,11,,,,,,,,,11,71,75
37440,note_on,120,0,15,,,,,,,,,2,73,0
37440,note_on,120,0,12,,,,,,,,,12,64,0
37440,note_on,0,0,12,,,,,,,,,12,66,75
37440,note_on,0,0,8,,,,,,,,,7,66,75
37440,note_on,0,0,16,,,,,,,,,3,74,75
37440,note_on,120,0,8,,,,,,,,,7,64,0
37440,note_on,60,0,7,,,,,,,,,6,69,0
37440,note_on,0,0,7,,,,,,,,,6,71,75
37440,note_on,120,0,16,,,,,,,,,3,73,0
37440,note_on,120,0,10,,,,,,,,,10,73,0
37440,note_on,60,0,11,,,,,,,,,11,69,0
37440,note_on,0,0,15,,,,,,,,,2,74,75
37440,note_on,60,0,4,,,,,,,,,3,69,0
37440,note_on,0,0,4,,,,,,,,,3,71,75
37440,note_on,0,0,2,,,,,,,,,0,81,0
37440,note_on,0,0,6,,,,,,,,,5,74,75
37440,note_on,120,0,6,,,,,,,,,5,73,0
37440,note_on,0,0,2,,,,,,,,,0,76,0
37440,note_on,480,0,2,,,,,,,,,0,69,0
37440,note_on,480,0,3,,,,,,,,,1,45,0
37500,note_on,60,0,16,,,,,,,,,3,74,0
37500,note_on,0,0,16,,,,,,,,,3,76,75
37500,note_on,60,0,15,,,,,,,,,2,74,0
37500,note_on,0,0,15,,,,,,,,,2,76,75
37500,note_on,60,0,10,,,,,,,,,10,74,0
37500,note_on,0,0,10,,,,,,,,,10,76,75
37500,note_on,60,0,6,,,,,,,,,5,74,0
37500,note_on,0,0,6,,,,,,,,,5,76,75
37560,note_on,0,0,4,,,,,,,,,3,66,75
37560,note_on,360,0,13,,,,,,,,,13,57,0
37560,note_on,0,0,13,,,,,,,,,13,57,75
37560,note_on,0,0,7,,,,,,,,,6,66,75
37560,note_on,120,0,7,,,,,,,,,6,71,0
37560,note_on,0,0,6,,,,,,,,,5,74,75
37560,note_on,60,0,15,,,,,,,,,2,76,0
37560,note_on,0,0,15,,,,,,,,,2,74,75
37560,note_on,0,0,10,,,,,,,,,10,74,75
37560,note_on,60,0,16,,,,,,,,,3,76,0
37560,note_on,360,0,14,,,,,,,,,14,57,0
37560,note_on,360,0,5,,,,,,,,,4,57,0
37560,note_on,60,0,10,,,,,,,,,10,76,0
37560,note_on,120,0,4,,,,,,,,,3,71,0
37560,note_on,60,0,6,,,,,,,,,5,76,0
37560,note_on,0,0,11,,,,,,,,,11,66,75
37560,note_on,0,0,9,,,,,,,,,8,57,75
37560,note_on,360,0,9,,,,,,,,,8,57,0
37560,note_on,120,0,11,,,,,,,,,11,71,0
37560,note_on,0,0,14,,,,,,,,,14,57,75
37560,note_on,0,0,16,,,,,,,,,3,74,75
37560,note_on,0,0,5,,,,,,,,,4,57,75
37620,note_on,60,0,10,,,,,,,,,10,74,0
37620,note_on,0,0,15,,,,,,,,,2,73,75
37620,note_on,60,0,15,,,,,,,,,2,74,0
37620,note_on,0,0,16,,,,,,,,,3,73,75
37620,note_on,60,0,16,,,,,,,,,3,74,0
37620,note_on,0,0,10,,,,,,,,,10,73,75
37620,note_on,0,0,6,,,,,,,,,5,73,75
37620,note_on,60,0,6,,,,,,,,,5,74,0
37680,note_on,0,0,16,,,,,,,,,3,71,75
37680,note_on,0,0,11,,,,,,,,,11,71,75
37680,note_on,120,0,11,,,,,,,,,11,66,0
37680,note_on,0,0,6,,,,,,,,,5,71,75
37680,note_on,60,0,6,,,,,,,,,5,73,0
37680,note_on,0,0,14,,,,,,,,,14,56,75
37680,note_on,120,0,14,,,,,,,,,14,57,0
37680,note_on,60,0,15,,,,,,,,,2,73,0
37680,note_on,0,0,15,,,,,,,,,2,71,75
37680,note_on,120,0,7,,,,,,,,,6,66,0
37680,note_on,240,0,12,,,,,,,,,12,66,0
37680,note_on,0,0,12,,,,,,,,,12,64,75
37680,note_on,60,0,16,,,,,,,,,3,73,0
37680,note_on,0,0,7,,,,,,,,,6,71,75
37680,note_on,240,0,8,,,,,,,,,7,66,0
37680,note_on,120,0,13,,,,,,,,,13,57,0
37680,note_on,120,0,9,,,,,,,,,8,57,0
37680,note_on,0,0,10,,,,,,,,,10,71,75
37680,note_on,0,0,9,,,,,,,,,8,56,75
37680,note_on,0,0,4,,,,,,,,,3,71,75
37680,note_on,120,0,4,,,,,,,,,3,66,0
37680,note_on,0,0,5,,,,,,,,,4,56,75
37680,note_on,120,0,5,,,,,,,,,4,57,0
37680,note_on,0,0,13,,,,,,,,,13,56,75
37680,note_on,60,0,10,,,,,,,,,10,73,0
37680,note_on,0,0,8,,,,,,,,,7,64,75
37740,note_on,0,0,16,,,,,,,,,3,73,75
37740,note_on,60,0,15,,,,,,,,,2,71,0
37740,note_on,0,0,15,,,,,,,,,2,73,75
37740,note_on,60,0,16,,,,,,,,,3,71,0
37740,note_on,60,0,10,,,,,,,,,10,71,0
37740,note_on,0,0,10,,,,,,,,,10,73,75
37740,note_on,60,0,6,,,,,,,,,5,71,0
37740,note_on,0,0,6,,,,,,,,,5,73,75
37800,note_on,60,0,10,,,,,,,,,10,73,0
37800,note_on,0,0,16,,,,,,,,,3,69,75
37800,note_on,0,0,9,,,,,,,,,8,56,75
37800,note_on,120,0,9,,,,,,,,,8,56,0
37800,note_on,0,0,10,,,,,,,,,10,69,75
37800,note_on,0,0,6,,,,,,,,,5,69,75
37800,note_on,60,0,16,,,,,,,,,3,73,0
37800,note_on,0,0,12,,,,,,,,,12,64,75
37800,note_on,120,0,14,,,,,,,,,14,56,0
37800,note_on,0,0,14,,,,,,,,,14,56,75
37800,note_on,120,0,12,,,,,,,,,12,64,0
37800,note_on,120,0,5,,,,,,,,,4,56,0
37800,note_on,0,0,5,,,,,,,,,4,56,75
37800,note_on,60,0,15,,,,,,,,,2,73,0
37800,note_on,120,0,13,,,,,,,,,13,56,0
37800,note_on,0,0,13,,,,,,,,,13,56,75
37800,note_on,0,0,15,,,,,,,,,2,69,75
37800,note_on,60,0,6,,,,,,,,,5,73,0
37800,note_on,120,0,8,,,,,,,,,7,64,0
37800,note_on,0,0,8,,,,,,,,,7,64,75
37860,note_on,0,0,15,,,,,,,,,2,71,75
37860,note_on,60,0,15,,,,,,,,,2,69,0
37860,note_on,0,0,16,,,,,,,,,3,71,75
37860,note_on,60,0,16,,,,,,,,,3,69,0
37860,note_on,60,0,10,,,,,,,,,10,69,0
37860,note_on,0,0,10,,,,,,,,,10,71,75
37860,note_on,0,0,6,,,,,,,,,5,71,75
37860,note_on,60,0,6,,,,,,,,,5,69,0
37920,note_on,60,0,16,,,,,,,,,3,71,0
37920,note_on,120,0,14,,,,,,,,,14,56,0
37920,note_on,120,0,8,,,,,,,,,7,64,0
37920,note_on,0,0,8,,,,,,,,,7,64,64
37920,note_on,0,0,14,,,,,,,,,14,57,75
37920,note_on,0,0,10,,,,,,,,,10,73,75
37920,note_on,120,0,9,,,,,,,,,8,56,0
37920,note_on,0,0,9,,,,,,,,,8,57,75
37920,note_on,60,0,6,,,,,,,,,5,71,0
37920,note_on,0,0,6,,,,,,,,,5,73,75
37920,note_on,60,0,10,,,,,,,,,10,71,0
37920,note_on,0,0,13,,,,,,,,,13,57,75
37920,note_on,120,0,13,,,,,,,,,13,56,0
37920,note_on,0,0,15,,,,,,,,,2,73,75
37920,note_on,60,0,15,,,,,,,,,2,71,0
37920,note_on,120,0,5,,,,,,,,,4,56,0
37920,note_on,0,0,16,,,,,,,,,3,73,75
37920,note_on,0,0,5,,,,,,,,,4,57,75
37980,note_on,60,0,5,,,,,,,,,4,57,0
37980,note_on,60,0,10,,,,,,,,,10,73,0
37980,note_on,0,0,10,,,,,,,,,10,74,75
37980,note_on,60,0,9,,,,,,,,,8,57,0
37980,note_on,60,0,6,,,,,,,,,5,73,0
37980,note_on,60,0,16,,,,,,,,,3,73,0
37980,note_on,60,0,14,,,,,,,,,14,57,0
37980,note_on,0,0,14,,,,,,,,,14,59,75
37980,note_on,0,0,16,,,,,,,,,3,74,75
37980,note_on,0,0,6,,,,,,,,,5,74,75
37980,note_on,0,0,15,,,,,,,,,2,74,75
37980,note_on,60,0,15,,,,,,,,,2,73,0
37980,note_on,0,0,13,,,,,,,,,13,59,75
37980,note_on,60,0,13,,,,,,,,,13,57,0
37980,note_on,0,0,5,,,,,,,,,4,59,75
37980,note_on,0,0,9,,,,,,,,,8,59,75
38040,note_on,0,0,6,,,,,,,,,5,71,75
38040,note_on,0,0,15,,,,,,,,,2,71,75
38040,note_on,60,0,16,,,,,,,,,3,74,0
38040,note_on,60,0,15,,,,,,,,,2,74,0
38040,note_on,0,0,11,,,,,,,,,11,64,75
38040,note_on,0,0,10,,,,,,,,,10,71,75
38040,note_on,60,0,10,,,,,,,,,10,74,0
38040,note_on,360,0,11,,,,,,,,,11,71,0
38040,note_on,60,0,6,,,,,,,,,5,74,0
38040,note_on,0,0,16,,,,,,,,,3,71,75
38040,note_on,0,0,7,,,,,,,,,6,64,75
38040,note_on,60,0,14,,,,,,,,,14,59,0
38040,note_on,0,0,13,,,,,,,,,13,57,75
38040,note_on,60,0,13,,,,,,,,,13,59,0
38040,note_on,0,0,12,,,,,,,,,12,64,75
38040,note_on,0,0,4,,,,,,,,,3,64,75
38040,note_on,360,0,4,,,,,,,,,3,71,0
38040,note_on,240,0,12,,,,,,,,,12,64,0
38040,note_on,60,0,9,,,,,,,,,8,59,0
38040,note_on,360,0,7,,,,,,,,,6,71,0
38040,note_on,0,0,9,,,,,,,,,8,57,75
38040,note_on,60,0,5,,,,,,,,,4,59,0
38040,note_on,0,0,5,,,,,,,,,4,57,75
38040,note_on,0,0,14,,,,,,,,,14,57,75
38100,note_on,60,0,9,,,,,,,,,8,57,0
38100,note_on,60,0,15,,,,,,,,,2,71,0
38100,note_on,60,0,10,,,,,,,,,10,71,0
38100,note_on,0,0,10,,,,,,,,,10,73,75
38100,note_on,60,0,5,,,,,,,,,4,57,0
38100,note_on,0,0,5,,,,,,,,,4,55,75
38100,note_on,60,0,12,,,,,,,,,12,64,0
38100,note_on,0,0,12,,,,,,,,,12,64,75
38100,note_on,0,0,11,,,,,,,,,11,64,75
38100,note_on,60,0,11,,,,,,,,,11,64,0
38100,note_on,0,0,13,,,,,,,,,13,55,75
38100,note_on,0,0,9,,,,,,,,,8,55,75
38100,note_on,0,0,15,,,,,,,,,2,73,75
38100,note_on,60,0,13,,,,,,,,,13,57,0
38100,note_on,0,0,14,,,,,,,,,14,55,75
38100,note_on,60,0,14,,,,,,,,,14,57,0
38100,note_on,0,0,16,,,,,,,,,3,73,75
38100,note_on,60,0,16,,,,,,,,,3,71,0
38100,note_on,60,0,6,,,,,,,,,5,71,0
38100,note_on,0,0,6,,,,,,,,,5,73,75
38160,note_on,0,0,13,,,,,,,,,13,54,75
38160,note_on,0,0,11,,,,,,,,,11,69,75
38160,note_on,60,0,5,,,,,,,,,4,55,0
38160,note_on,120,0,7,,,,,,,,,6,64,0
38160,note_on,0,0,5,,,,,,,,,4,54,75
38160,note_on,60,0,9,,,,,,,,,8,55,0
38160,note_on,0,0,9,,,,,,,,,8,54,75
38160,note_on,60,0,16,,,,,,,,,3,73,0
38160,note_on,0,0,10,,,,,,,,,10,75,75
38160,note_on,60,0,13,,,,,,,,,13,55,0
38160,note_on,0,0,7,,,,,,,,,6,69,75
38160,note_on,0,0,4,,,,,,,,,3,69,75
38160,note_on,60,0,10,,,,,,,,,10,73,0
38160,note_on,60,0,14,,,,,,,,,14,55,0
38160,note_on,0,0,14,,,,,,,,,14,54,75
38160,note_on,60,0,12,,,,,,,,,12,64,0
38160,note_on,0,0,12,,,,,,,,,12,66,75
38160,note_on,0,0,8,,,,,,,,,7,66,75
38160,note_on,240,0,8,,,,,,,,,7,64,0
38160,note_on,60,0,6,,,,,,,,,5,73,0
38160,note_on,0,0,6,,,,,,,,,5,75,75
38160,note_on,60,0,11,,,,,,,,,11,64,0
38160,note_on,60,0,15,,,,,,,,,2,73,0
38160,note_on,0,0,15,,,,,,,,,2,75,75
38160,note_on,120,0,4,,,,,,,,,3,64,0
38160,note_on,0,0,16,,,,,,,,,3,75,75
38220,note_on,0,0,15,,,,,,,,,2,76,75
38220,note_on,60,0,7,,,,,,,,,6,69,0
38220,note_on,0,0,10,,,,,,,,,10,76,75
38220,note_on,0,0,9,,,,,,,,,8,55,75
38220,note_on,60,0,9,,,,,,,,,8,54,0
38220,note_on,0,0,6,,,,,,,,,5,76,75
38220,note_on,60,0,13,,,,,,,,,13,54,0
38220,note_on,60,0,6,,,,,,,,,5,75,0
38220,note_on,60,0,15,,,,,,,,,2,75,0
38220,note_on,0,0,7,,,,,,,,,6,71,75
38220,note_on,0,0,13,,,,,,,,,13,55,75
38220,note_on,60,0,10,,,,,,,,,10,75,0
38220,note_on,0,0,16,,,,,,,,,3,76,75
38220,note_on,0,0,14,,,,,,,,,14,55,75
38220,note_on,60,0,14,,,,,,,,,14,54,0
38220,note_on,60,0,4,,,,,,,,,3,69,0
38220,note_on,60,0,16,,,,,,,,,3,75,0
38220,note_on,60,0,5,,,,,,,,,4,54,0
38220,note_on,0,0,4,,,,,,,,,3,71,75
38220,note_on,0,0,5,,,,,,,,,4,55,75
38280,note_on,0,0,13,,,,,,,,,13,52,75
38280,note_on,60,0,13,,,,,,,,,13,55,0
38280,note_on,60,0,4,,,,,,,,,3,71,0
38280,note_on,60,0,16,,,,,,,,,3,76,0
38280,note_on,60,0,9,,,,,,,,,8,55,0
38280,note_on,0,0,9,,,,,,,,,8,52,75
38280,note_on,60,0,14,,,,,,,,,14,55,0
38280,note_on,0,0,14,,,,,,,,,14,52,75
38280,note_on,0,0,16,,,,,,,,,3,73,75
38280,note_on,0,0,4,,,,,,,,,3,68,75
38280,note_on,60,0,15,,,,,,,,,2,76,0
38280,note_on,0,0,10,,,,,,,,,10,73,75
38280,note_on,60,0,10,,,,,,,,,10,76,0
38280,note_on,0,0,15,,,,,,,,,2,73,75
38280,note_on,60,0,7,,,,,,,,,6,71,0
38280,note_on,0,0,5,,,,,,,,,4,52,75
38280,note_on,60,0,5,,,,,,,,,4,55,0
38280,note_on,0,0,7,,,,,,,,,6,68,75
38280,note_on,0,0,6,,,,,,,,,5,73,75
38280,note_on,60,0,6,,,,,,,,,5,76,0
38340,note_on,0,0,15,,,,,,,,,2,75,75
38340,note_on,0,0,4,,,,,,,,,3,69,75
38340,note_on,60,0,15,,,,,,,,,2,73,0
38340,note_on,0,0,16,,,,,,,,,3,75,75
38340,note_on,60,0,14,,,,,,,,,14,52,0
38340,note_on,60,0,4,,,,,,,,,3,68,0
38340,note_on,0,0,14,,,,,,,,,14,54,75
38340,note_on,0,0,6,,,,,,,,,5,75,75
38340,note_on,0,0,13,,,,,,,,,13,54,75
38340,note_on,0,0,7,,,,,,,,,6,69,75
38340,note_on,60,0,7,,,,,,,,,6,68,0
38340,note_on,60,0,5,,,,,,,,,4,52,0
38340,note_on,60,0,10,,,,,,,,,10,73,0
38340,note_on,0,0,10,,,,,,,,,10,75,75
38340,note_on,0,0,9,,,,,,,,,8,54,75
38340,note_on,60,0,13,,,,,,,,,13,52,0
38340,note_on,60,0,9,,,,,,,,,8,52,0
38340,note_on,60,0,16,,,,,,,,,3,73,0
38340,note_on,60,0,6,,,,,,,,,5,73,0
38340,note_on,0,0,5,,,,,,,,,4,54,75
38400,note_on,240,0,8,,,,,,,,,7,66,0
38400,note_on,0,0,8,,,,,,,,,7,59,76
38400,note_on,0,0,16,,,,,,,,,3,76,76
38400,note_on,60,0,16,,,,,,,,,3,75,0
38400,note_on,0,0,13,,,,,,,,,13,56,76
38400,note_on,60,0,7,,,,,,,,,6,69,0
38400,note_on,0,0,7,,,,,,,,,6,71,76
38400,note_on,60,0,13,,,,,,,,,13,54,0
38400,note_on,0,0,11,,,,,,,,,11,64,76
38400,note_on,0,0,6,,,,,,,,,5,76,76
38400,note_on,60,0,9,,,,,,,,,8,54,0
38400,note_on,60,0,10,,,,,,,,,10,75,0
38400,note_on,0,0,10,,,,,,,,,10,76,76
38400,note_on,60,0,5,,,,,,,,,4,54,0
38400,note_on,0,0,5,,,,,,,,,4,56,76
38400,note_on,60,0,6,,,,,,,,,5,75,0
38400,note_on,0,0,9,,,,,,,,,8,56,76
38400,note_on,240,0,12,,,,,,,,,12,66,0
38400,note_on,0,0,12,,,,,,,,,12,59,76
38400,note_on,0,0,14,,,,,,,,,14,56,76
38400,note_on,0,0,4,,,,,,,,,3,71,76
38400,note_on,0,0,15,,,,,,,,,2,76,76
38400,note_on,60,0,15,,,,,,,,,2,75,0
38400,note_on,240,0,11,,,,,,,,,11,69,0
38400,note_on,60,0,14,,,,,,,,,14,54,0
38400,note_on,60,0,4,,,,,,,,,3,69,0
38460,note_on,0,0,5,,,,,,,,,4,57,76
38460,note_on,0,0,9,,,,,,,,,8,57,76
38460,note_on,0,0,7,,,,,,,,,6,73,80
38460,note_on,60,0,5,,,,,,,,,4,56,0
38460,note_on,0,0,13,,,,,,,,,13,57,76
38460,note_on,60,0,7,,,,,,,,,6,71,0
38460,note_on,0,0,14,,,,,,,,,14,57,76
38460,note_on,60,0,14,,,,,,,,,14,56,0
38460,note_on,0,0,4,,,,,,,,,3,73,80
38460,note_on,60,0,4,,,,,,,,,3,71,0
38460,note_on,60,0,13,,,,,,,,,13,56,0
38460,note_on,60,0,9,,,,,,,,,8,56,0
38520,note_on,120,0,11,,,,,,,,,11,64,0
38520,note_on,60,0,14,,,,,,,,,14,57,0
38520,note_on,0,0,14,,,,,,,,,14,54,77
38520,note_on,60,0,4,,,,,,,,,3,73,0
38520,note_on,0,0,4,,,,,,,,,3,69,80
38520,note_on,0,0,7,,,,,,,,,6,69,80
38520,note_on,60,0,7,,,,,,,,,6,73,0
38520,note_on,0,0,5,,,,,,,,,4,54,77
38520,note_on,0,0,13,,,,,,,,,13,54,77
38520,note_on,60,0,5,,,,,,,,,4,57,0
38520,note_on,0,0,9,,,,,,,,,8,54,77
38520,note_on,60,0,9,,,,,,,,,8,57,0
38520,note_on,60,0,13,,,,,,,,,13,57,0
38580,note_on,0,0,14,,,,,,,,,14,56,77
38580,note_on,0,0,4,,,,,,,,,3,71,80
38580,note_on,60,0,4,,,,,,,,,3,69,0
38580,note_on,60,0,7,,,,,,,,,6,69,0
38580,note_on,60,0,14,,,,,,,,,14,54,0
38580,note_on,60,0,13,,,,,,,,,13,54,0
38580,note_on,60,0,9,,,,,,,,,8,54,0
38580,note_on,0,0,9,,,,,,,,,8,56,77
38580,note_on,0,0,5,,,,,,,,,4,56,77
38580,note_on,60,0,5,,,,,,,,,4,54,0
38580,note_on,0,0,7,,,,,,,,,6,71,80
38580,note_on,0,0,13,,,,,,,,,13,56,77
38640,note_on,0,0,13,,,,,,,,,13,58,77
38640,note_on,60,0,13,,,,,,,,,13,56,0
38640,note_on,240,0,8,,,,,,,,,7,59,0
38640,note_on,0,0,8,,,,,,,,,7,66,77
38640,note_on,60,0,7,,,,,,,,,6,71,0
38640,note_on,0,0,7,,,,,,,,,6,73,77
38640,note_on,0,0,12,,,,,,,,,12,66,77
38640,note_on,240,0,12,,,,,,,,,12,59,0
38640,note_on,0,0,14,,,,,,,,,14,58,77
38640,note_on,60,0,14,,,,,,,,,14,56,0
38640,note_on,120,0,11,,,,,,,,,11,73,77
38640,note_on,0,0,9,,,,,,,,,8,58,77
38640,note_on,60,0,9,,,,,,,,,8,56,0
38640,note_on,60,0,5,,,,,,,,,4,56,0
38640,note_on,0,0,5,,,,,,,,,4,58,77
38640,note_on,0,0,4,,,,,,,,,3,73,77
38640,note_on,60,0,4,,,,,,,,,3,71,0
38700,note_on,0,0,9,,,,,,,,,8,59,78
38700,note_on,60,0,14,,,,,,,,,14,58,0
38700,note_on,0,0,14,,,,,,,,,14,59,78
38700,note_on,60,0,5,,,,,,,,,4,58,0
38700,note_on,0,0,5,,,,,,,,,4,59,78
38700,note_on,60,0,9,,,,,,,,,8,58,0
38700,note_on,0,0,13,,,,,,,,,13,59,78
38700,note_on,60,0,13,,,,,,,,,13,58,0
38760,note_on,60,0,9,,,,,,,,,8,59,0
38760,note_on,0,0,9,,,,,,,,,8,56,78
38760,note_on,60,0,14,,,,,,,,,14,59,0
38760,note_on,0,0,14,,,,,,,,,14,56,78
38760,note_on,0,0,13,,,,,,,,,13,56,78
38760,note_on,60,0,13,,,,,,,,,13,59,0
38760,note_on,0,0,5,,,,,,,,,4,56,78
38760,note_on,60,0,5,,,,,,,,,4,59,0
38820,note_on,0,0,5,,,,,,,,,4,58,78
38820,note_on,0,0,13,,,,,,,,,13,58,78
38820,note_on,60,0,13,,,,,,,,,13,56,0
38820,note_on,60,0,5,,,,,,,,,4,56,0
38820,note_on,0,0,14,,,,,,,,,14,58,78
38820,note_on,60,0,14,,,,,,,,,14,56,0
38820,note_on,0,0,9,,,,,,,,,8,58,78
38820,note_on,60,0,9,,,,,,,,,8,56,0
38880,note_on,0,0,14,,,,,,,,,14,59,79
38880,note_on,0,0,9,,,,,,,,,8,59,79
38880,note_on,60,0,14,,,,,,,,,14,58,0
38880,note_on,60,0,9,,,,,,,,,8,58,0
38880,note_on,60,0,5,,,,,,,,,4,58,0
38880,note_on,0,0,13,,,,,,,,,13,59,79
38880,note_on,60,0,13,,,,,,,,,13,58,0
38880,note_on,0,0,5,,,,,,,,,4,59,79
39000,note_on,600,0,6,,,,,,,,,5,76,0
39000,note_on,0,0,6,,,,,,,,,5,74,79
39000,note_on,600,0,16,,,,,,,,,3,76,0
39000,note_on,0,0,16,,,,,,,,,3,74,79
39000,note_on,0,0,4,,,,,,,,,3,71,79
39000,note_on,0,0,15,,,,,,,,,2,74,79
39000,note_on,600,0,15,,,,,,,,,2,76,0
39000,note_on,360,0,8,,,,,,,,,7,66,0
39000,note_on,360,0,4,,,,,,,,,3,73,0
39000,note_on,600,0,10,,,,,,,,,10,76,0
39000,note_on,0,0,10,,,,,,,,,10,74,79
39000,note_on,360,0,11,,,,,,,,,11,73,0
39000,note_on,0,0,8,,,,,,,,,7,66,79
39000,note_on,0,0,7,,,,,,,,,6,71,79
39000,note_on,360,0,7,,,,,,,,,6,73,0
39000,note_on,360,0,12,,,,,,,,,12,66,0
39000,note_on,0,0,12,,,,,,,,,12,66,79
39000,note_on,0,0,11,,,,,,,,,11,71,79
39060,note_on,60,0,4,,,,,,,,,3,71,0
39060,note_on,0,0,4,,,,,,,,,3,69,80
39060,note_on,60,0,10,,,,,,,,,10,74,0
39060,note_on,0,0,12,,,,,,,,,12,64,79
39060,note_on,0,0,6,,,,,,,,,5,73,79
39060,note_on,0,0,10,,,,,,,,,10,73,79
39060,note_on,60,0,12,,,,,,,,,12,66,0
39060,note_on,0,0,15,,,,,,,,,2,73,79
39060,note_on,0,0,16,,,,,,,,,3,73,79
39060,note_on,60,0,16,,,,,,,,,3,74,0
39060,note_on,0,0,7,,,,,,,,,6,69,80
39060,note_on,60,0,6,,,,,,,,,5,74,0
39060,note_on,60,0,7,,,,,,,,,6,71,0
39060,note_on,60,0,15,,,,,,,,,2,74,0
39060,note_on,0,0,8,,,,,,,,,7,64,79
39060,note_on,60,0,8,,,,,,,,,7,66,0
39120,note_on,60,0,8,,,,,,,,,7,64,0
39120,note_on,60,0,16,,,,,,,,,3,73,0
39120,note_on,60,0,15,,,,,,,,,2,73,0
39120,note_on,0,0,6,,,,,,,,,5,74,80
39120,note_on,60,0,6,,,,,,,,,5,73,0
39120,note_on,0,0,7,,,,,,,,,6,71,80
39120,note_on,60,0,7,,,,,,,,,6,69,0
39120,note_on,0,0,15,,,,,,,,,2,74,80
39120,note_on,0,0,8,,,,,,,,,7,66,80
39120,note_on,0,0,11,,,,,,,,,11,71,80
39120,note_on,120,0,11,,,,,,,,,11,71,0
39120,note_on,60,0,12,,,,,,,,,12,64,0
39120,note_on,0,0,12,,,,,,,,,12,66,80
39120,note_on,0,0,16,,,,,,,,,3,74,80
39120,note_on,60,0,10,,,,,,,,,10,73,0
39120,note_on,0,0,10,,,,,,,,,10,74,80
39120,note_on,60,0,4,,,,,,,,,3,69,0
39120,note_on,0,0,4,,,,,,,,,3,71,80
39180,note_on,60,0,15,,,,,,,,,2,74,0
39180,note_on,0,0,15,,,,,,,,,2,76,80
39180,note_on,0,0,16,,,,,,,,,3,76,80
39180,note_on,60,0,6,,,,,,,,,5,74,0
39180,note_on,0,0,8,,,,,,,,,7,64,75
39180,note_on,60,0,8,,,,,,,,,7,66,0
39180,note_on,60,0,16,,,,,,,,,3,74,0
39180,note_on,60,0,10,,,,,,,,,10,74,0
39180,note_on,0,0,10,,,,,,,,,10,76,80
39180,note_on,0,0,6,,,,,,,,,5,76,80
39240,note_on,0,0,7,,,,,,,,,6,71,80
39240,note_on,60,0,6,,,,,,,,,5,76,0
39240,note_on,0,0,6,,,,,,,,,5,78,80
39240,note_on,0,0,10,,,,,,,,,10,78,80
39240,note_on,60,0,16,,,,,,,,,3,76,0
39240,note_on,120,0,7,,,,,,,,,6,71,0
39240,note_on,0,0,16,,,,,,,,,3,78,80
39240,note_on,120,0,11,,,,,,,,,11,71,0
39240,note_on,0,0,4,,,,,,,,,3,71,80
39240,note_on,0,0,8,,,,,,,,,7,62,78
39240,note_on,60,0,8,,,,,,,,,7,64,0
39240,note_on,120,0,4,,,,,,,,,3,71,0
39240,note_on,0,0,15,,,,,,,,,2,78,80
39240,note_on,60,0,15,,,,,,,,,2,76,0
39240,note_on,120,0,12,,,,,,,,,12,66,0
39240,note_on,0,0,12,,,,,,,,,12,62,80
39240,note_on,0,0,11,,,,,,,,,11,71,80
39240,note_on,60,0,10,,,,,,,,,10,76,0
39300,note_on,0,0,16,,,,,,,,,3,74,81
39300,note_on,0,0,15,,,,,,,,,2,74,81
39300,note_on,60,0,15,,,,,,,,,2,78,0
39300,note_on,0,0,8,,,,,,,,,7,61,80
39300,note_on,60,0,6,,,,,,,,,5,78,0
39300,note_on,60,0,8,,,,,,,,,7,62,0
39300,note_on,0,0,10,,,,,,,,,10,74,81
39300,note_on,60,0,10,,,,,,,,,10,78,0
39300,note_on,0,0,6,,,,,,,,,5,74,81
39300,note_on,60,0,16,,,,,,,,,3,78,0
39360,note_on,0,0,7,,,,,,,,,6,71,81
39360,note_on,120,0,7,,,,,,,,,6,71,0
39360,note_on,0,0,8,,,,,,,,,7,62,81
39360,note_on,120,0,12,,,,,,,,,12,62,0
39360,note_on,0,0,12,,,,,,,,,12,62,81
39360,note_on,0,0,10,,,,,,,,,10,79,81
39360,note_on,60,0,10,,,,,,,,,10,74,0
39360,note_on,120,0,4,,,,,,,,,3,71,0
39360,note_on,0,0,4,,,,,,,,,3,71,81
39360,note_on,60,0,8,,,,,,,,,7,61,0
39360,note_on,0,0,11,,,,,,,,,11,71,81
39360,note_on,60,0,15,,,,,,,,,2,74,0
39360,note_on,0,0,15,,,,,,,,,2,79,81
39360,note_on,60,0,16,,,,,,,,,3,74,0
39360,note_on,0,0,16,,,,,,,,,3,79,81
39360,note_on,0,0,6,,,,,,,,,5,79,81
39360,note_on,60,0,6,,,,,,,,,5,74,0
39360,note_on,120,0,11,,,,,,,,,11,71,0
39480,note_on,0,0,11,,,,,,,,,11,71,82
39480,note_on,600,0,9,,,,,,,,,8,59,0
39480,note_on,0,0,9,,,,,,,,,8,57,82
39480,note_on,0,0,14,,,,,,,,,14,57,82
39480,note_on,600,0,14,,,,,,,,,14,59,0
39480,note_on,0,0,5,,,,,,,,,4,57,82
39480,note_on,600,0,5,,,,,,,,,4,59,0
39480,note_on,600,0,13,,,,,,,,,13,59,0
39480,note_on,120,0,11,,,,,,,,,11,71,0
39480,note_on,0,0,13,,,,,,,,,13,57,82
39540,note_on,60,0,13,,,,,,,,,13,57,0
39540,note_on,0,0,5,,,,,,,,,4,55,82
39540,note_on,60,0,5,,,,,,,,,4,57,0
39540,note_on,0,0,11,,,,,,,,,11,71,82
39540,note_on,60,0,9,,,,,,,,,8,57,0
39540,note_on,0,0,9,,,,,,,,,8,55,82
39540,note_on,0,0,14,,,,,,,,,14,55,82
39540,note_on,0,0,13,,,,,,,,,13,55,82
39540,note_on,60,0,14,,,,,,,,,14,57,0
39540,note_on,60,0,11,,,,,,,,,11,71,0
39600,note_on,0,0,13,,,,,,,,,13,57,82
39600,note_on,240,0,8,,,,,,,,,7,62,0
39600,note_on,0,0,8,,,,,,,,,7,61,82
39600,note_on,240,0,4,,,,,,,,,3,71,0
39600,note_on,240,0,7,,,,,,,,,6,71,0
39600,note_on,0,0,4,,,,,,,,,3,64,82
39600,note_on,60,0,14,,,,,,,,,14,55,0
39600,note_on,60,0,13,,,,,,,,,13,55,0
39600,note_on,0,0,5,,,,,,,,,4,57,82
39600,note_on,0,0,14,,,,,,,,,14,57,82
39600,note_on,0,0,12,,,,,,,,,12,61,82
39600,note_on,60,0,11,,,,,,,,,11,71,0
39600,note_on,0,0,11,,,,,,,,,11,64,82
39600,note_on,240,0,12,,,,,,,,,12,62,0
39600,note_on,0,0,9,,,,,,,,,8,57,82
39600,note_on,60,0,9,,,,,,,,,8,55,0
39600,note_on,0,0,7,,,,,,,,,6,64,82
39600,note_on,60,0,5,,,,,,,,,4,55,0
39660,note_on,60,0,5,,,,,,,,,4,57,0
39660,note_on,0,0,5,,,,,,,,,4,59,83
39660,note_on,0,0,13,,,,,,,,,13,59,83
39660,note_on,60,0,13,,,,,,,,,13,57,0
39660,note_on,0,0,9,,,,,,,,,8,59,83
39660,note_on,60,0,14,,,,,,,,,14,57,0
39660,note_on,0,0,14,,,,,,,,,14,59,83
39660,note_on,60,0,9,,,,,,,,,8,57,0
39720,note_on,60,0,5,,,,,,,,,4,59,0
39720,note_on,0,0,5,,,,,,,,,4,61,83
39720,note_on,0,0,13,,,,,,,,,13,61,83
39720,note_on,60,0,9,,,,,,,,,8,59,0
39720,note_on,0,0,9,,,,,,,,,8,61,83
39720,note_on,0,0,12,,,,,,,,,12,61,83
39720,note_on,120,0,8,,,,,,,,,7,61,0
39720,note_on,0,0,8,,,,,,,,,7,61,83
39720,note_on,120,0,12,,,,,,,,,12,61,0
39720,note_on,0,0,14,,,,,,,,,14,61,83
39720,note_on,60,0,14,,,,,,,,,14,59,0
39720,note_on,60,0,13,,,,,,,,,13,59,0
39780,note_on,60,0,9,,,,,,,,,8,61,0
39780,note_on,0,0,9,,,,,,,,,8,57,83
39780,note_on,0,0,14,,,,,,,,,14,57,83
39780,note_on,60,0,14,,,,,,,,,14,61,0
39780,note_on,0,0,13,,,,,,,,,13,57,83
39780,note_on,0,0,5,,,,,,,,,4,57,83
39780,note_on,60,0,5,,,,,,,,,4,61,0
39780,note_on,60,0,13,,,,,,,,,13,61,0
39840,note_on,240,0,7,,,,,,,,,6,64,0
39840,note_on,0,0,13,,,,,,,,,13,62,84
39840,note_on,0,0,14,,,,,,,,,14,62,84
39840,note_on,60,0,9,,,,,,,,,8,57,0
39840,note_on,0,0,9,,,,,,,,,8,62,84
39840,note_on,60,0,14,,,,,,,,,14,57,0
39840,note_on,60,0,13,,,,,,,,,13,57,0
39840,note_on,0,0,8,,,,,,,,,7,57,84
39840,note_on,0,0,7,,,,,,,,,6,62,84
39840,note_on,0,0,11,,,,,,,,,11,62,84
39840,note_on,0,0,4,,,,,,,,,3,62,84
39840,note_on,240,0,4,,,,,,,,,3,64,0
39840,note_on,0,0,5,,,,,,,,,4,62,84
39840,note_on,240,0,11,,,,,,,,,11,64,0
39840,note_on,120,0,8,,,,,,,,,7,61,0
39840,note_on,60,0,5,,,,,,,,,4,57,0
39840,note_on,0,0,12,,,,,,,,,12,57,84
39840,note_on,120,0,12,,,,,,,,,12,61,0
39960,note_on,120,0,9,,,,,,,,,8,62,0
39960,note_on,120,0,5,,,,,,,,,4,62,0
39960,note_on,0,0,9,,,,,,,,,8,57,84
39960,note_on,0,0,13,,,,,,,,,13,57,84
39960,note_on,0,0,5,,,,,,,,,4,57,84
39960,note_on,120,0,14,,,,,,,,,14,62,0
39960,note_on,0,0,14,,,,,,,,,14,57,84
39960,note_on,120,0,13,,,,,,,,,13,62,0
40080,note_on,0,0,11,,,,,,,,,11,62,85
40080,note_on,0,0,2,,,,,,,,,0,66,64
40080,note_on,240,0,11,,,,,,,,,11,62,0
40080,note_on,720,0,6,,,,,,,,,5,79,0
40080,note_on,0,0,15,,,,,,,,,2,78,85
40080,note_on,0,0,6,,,,,,,,,5,78,85
40080,note_on,2640,0,3,,,,,,,,,1,50,64
40080,note_on,240,0,12,,,,,,,,,12,57,0
40080,note_on,0,0,12,,,,,,,,,12,57,85
40080,note_on,120,0,5,,,,,,,,,4,57,0
40080,note_on,120,0,14,,,,,,,,,14,57,0
40080,note_on,2640,0,2,,,,,,,,,0,74,64
40080,note_on,240,0,8,,,,,,,,,7,57,0
40080,note_on,0,0,5,,,,,,,,,4,62,85
40080,note_on,0,0,8,,,,,,,,,7,57,85
40080,note_on,0,0,9,,,,,,,,,8,62,85
40080,note_on,120,0,9,,,,,,,,,8,57,0
40080,note_on,0,0,14,,,,,,,,,14,62,85
40080,note_on,720,0,10,,,,,,,,,10,79,0
40080,note_on,240,0,4,,,,,,,,,3,62,0
40080,note_on,0,0,16,,,,,,,,,3,78,85
40080,note_on,0,0,7,,,,,,,,,6,62,85
40080,note_on,240,0,7,,,,,,,,,6,62,0
40080,note_on,720,0,15,,,,,,,,,2,79,0
40080,note_on,0,0,13,,,,,,,,,13,62,85
40080,note_on,120,0,13,,,,,,,,,13,57,0
40080,note_on,0,0,4,,,,,,,,,3,62,85
40080,note_on,720,0,16,,,,,,,,,3,79,0
40080,note_on,0,0,10,,,,,,,,,10,78,85
40200,note_on,120,0,10,,,,,,,,,10,78,0
40200,note_on,0,0,10,,,,,,,,,10,78,85
40320,note_on,240,0,8,,,,,,,,,7,57,0
40320,note_on,240,0,11,,,,,,,,,11,62,0
40320,note_on,0,0,2,,,,,,,,,0,74,0
40320,note_on,0,0,2,,,,,,,,,0,76,64
40320,note_on,0,0,2,,,,,,,,,0,69,64
40320,note_on,240,0,16,,,,,,,,,3,78,0
40320,note_on,0,0,7,,,,,,,,,6,64,85
40320,note_on,0,0,6,,,,,,,,,5,76,85
40320,note_on,0,0,11,,,,,,,,,11,64,85
40320,note_on,240,0,12,,,,,,,,,12,57,0
40320,note_on,240,0,6,,,,,,,,,5,78,0
40320,note_on,0,0,10,,,,,,,,,10,76,85
40320,note_on,0,0,15,,,,,,,,,2,76,85
40320,note_on,240,0,15,,,,,,,,,2,78,0
40320,note_on,120,0,10,,,,,,,,,10,78,0
40320,note_on,240,0,2,,,,,,,,,0,66,0
40320,note_on,240,0,4,,,,,,,,,3,62,0
40320,note_on,0,0,4,,,,,,,,,3,64,85
40320,note_on,240,0,7,,,,,,,,,6,62,0
40320,note_on,0,0,16,,,,,,,,,3,76,85
40560,note_on,480,0,9,,,,,,,,,8,62,0
40560,note_on,0,0,9,,,,,,,,,8,60,86
40560,note_on,240,0,11,,,,,,,,,11,64,0
40560,note_on,0,0,11,,,,,,,,,11,66,86
40560,note_on,240,0,4,,,,,,,,,3,64,0
40560,note_on,0,0,4,,,,,,,,,3,66,86
40560,note_on,480,0,5,,,,,,,,,4,62,0
40560,note_on,0,0,3,,,,,,,,,1,45,64
40560,note_on,0,0,13,,,,,,,,,13,60,86
40560,note_on,0,0,5,,,,,,,,,4,60,86
40560,note_on,480,0,13,,,,,,,,,13,62,0
40560,note_on,0,0,14,,,,,,,,,14,60,86
40560,note_on,0,0,2,,,,,,,,,0,78,64
40560,note_on,0,0,2,,,,,,,,,0,81,64
40560,note_on,240,0,2,,,,,,,,,0,76,0
40560,note_on,480,0,3,,,,,,,,,1,50,0
40560,note_on,240,0,7,,,,,,,,,6,64,0
40560,note_on,240,0,8,,,,,,,,,7,57,86
40560,note_on,0,0,7,,,,,,,,,6,66,86
40560,note_on,480,0,14,,,,,,,,,14,62,0
40560,note_on,240,0,12,,,,,,,,,12,57,86
40680,note_on,120,0,13,,,,,,,,,13,60,0
40680,note_on,0,0,13,,,,,,,,,13,60,86
40800,note_on,240,0,4,,,,,,,,,3,66,0
40800,note_on,0,0,9,,,,,,,,,8,59,87
40800,note_on,240,0,9,,,,,,,,,8,60,0
40800,note_on,0,0,14,,,,,,,,,14,59,87
40800,note_on,240,0,14,,,,,,,,,14,60,0
40800,note_on,0,0,2,,,,,,,,,0,79,64
40800,note_on,0,0,4,,,,,,,,,3,67,87
40800,note_on,0,0,2,,,,,,,,,0,76,64
40800,note_on,0,0,7,,,,,,,,,6,67,87
40800,note_on,240,0,7,,,,,,,,,6,66,0
40800,note_on,240,0,5,,,,,,,,,4,60,0
40800,note_on,120,0,13,,,,,,,,,13,60,0
40800,note_on,0,0,11,,,,,,,,,11,67,87
40800,note_on,240,0,11,,,,,,,,,11,66,0
40800,note_on,240,0,3,,,,,,,,,1,45,0
40800,note_on,0,0,2,,,,,,,,,0,83,64
40800,note_on,0,0,2,,,,,,,,,0,69,0
40800,note_on,240,0,2,,,,,,,,,0,78,0
40800,note_on,0,0,8,,,,,,,,,7,59,87
40800,note_on,240,0,12,,,,,,,,,12,57,0
40800,note_on,0,0,12,,,,,,,,,12,59,87
40800,note_on,240,0,8,,,,,,,,,7,57,0
40800,note_on,0,0,5,,,,,,,,,4,59,87
40800,note_on,0,0,13,,,,,,,,,13,59,87
40800,note_on,0,0,2,,,,,,,,,0,81,0
40920,note_on,120,0,2,,,,,,,,,0,76,0
40920,note_on,0,0,2,,,,,,,,,0,78,64
41040,note_on,240,0,12,,,,,,,,,12,59,0
41040,note_on,120,0,2,,,,,,,,,0,78,0
41040,note_on,0,0,2,,,,,,,,,0,79,0
41040,note_on,0,0,2,,,,,,,,,0,83,0
41040,note_on,0,0,2,,,,,,,,,0,85,64
41040,note_on,0,0,4,,,,,,,,,3,66,87
41040,note_on,240,0,4,,,,,,,,,3,67,0
41040,note_on,0,0,11,,,,,,,,,11,66,87
41040,note_on,240,0,11,,,,,,,,,11,67,0
41040,note_on,0,0,12,,,,,,,,,12,61,87
41040,note_on,240,0,7,,,,,,,,,6,67,0
41040,note_on,240,0,8,,,,,,,,,7,59,0
41040,note_on,0,0,7,,,,,,,,,6,66,87
41040,note_on,0,0,2,,,,,,,,,0,78,64
41040,note_on,0,0,2,,,,,,,,,0,79,64
41040,note_on,0,0,8,,,,,,,,,7,61,87
41160,note_on,120,0,2,,,,,,,,,0,79,0
41160,note_on,120,0,11,,,,,,,,,11,66,0
41160,note_on,0,0,2,,,,,,,,,0,81,64
41160,note_on,0,0,2,,,,,,,,,0,76,64
41160,note_on,0,0,4,,,,,,,,,3,64,88
41160,note_on,120,0,4,,,,,,,,,3,66,0
41160,note_on,0,0,11,,,,,,,,,11,64,88
41160,note_on,0,0,7,,,,,,,,,6,64,88
41160,note_on,120,0,7,,,,,,,,,6,66,0
41160,note_on,0,0,2,,,,,,,,,0,78,0
41280,note_on,0,0,12,,,,,,,,,12,62,88
41280,note_on,240,0,12,,,,,,,,,12,61,0
41280,note_on,960,0,16,,,,,,,,,3,76,0
41280,note_on,960,0,6,,,,,,,,,5,76,0
41280,note_on,0,0,16,,,,,,,,,3,74,88
41280,note_on,120,0,7,,,,,,,,,6,64,0
41280,note_on,0,0,2,,,,,,,,,0,86,64
41280,note_on,0,0,8,,,,,,,,,7,62,88
41280,note_on,0,0,2,,,,,,,,,0,78,64
41280,note_on,0,0,2,,,,,,,,,0,85,0
41280,note_on,0,0,2,,,,,,,,,0,76,0
41280,note_on,120,0,2,,,,,,,,,0,81,0
41280,note_on,0,0,15,,,,,,,,,2,74,88
41280,note_on,960,0,15,,,,,,,,,2,76,0
41280,note_on,120,0,11,,,,,,,,,11,64,0
41280,note_on,0,0,2,,,,,,,,,0,83,64
41280,note_on,0,0,11,,,,,,,,,11,66,88
41280,set_tempo,40320,1,0,,,,,,461538,,,,,
41280,note_on,0,0,7,,,,,,,,,6,66,88
41280,note_on,0,0,6,,,,,,,,,5,74,88
41280,note_on,0,0,10,,,,,,,,,10,74,88
41280,note_on,960,0,10,,,,,,,,,10,76,0
41280,note_on,120,0,4,,,,,,,,,3,64,0
41280,note_on,0,0,4,,,,,,,,,3,66,88
41280,note_on,240,0,8,,,,,,,,,7,61,0
41400,note_on,0,0,2,,,,,,,,,0,83,64
41400,note_on,0,0,2,,,,,,,,,0,78,64
41400,note_on,0,0,2,,,,,,,,,0,78,0
41400,note_on,120,0,2,,,,,,,,,0,83,0
41400,note_on,600,0,3,,,,,,,,,1,50,64
41400,note_on,120,0,4,,,,,,,,,3,66,0
41400,note_on,0,0,4,,,,,,,,,3,71,88
41400,note_on,120,0,11,,,,,,,,,11,66,0
41400,note_on,0,0,11,,,,,,,,,11,71,88
41400,note_on,0,0,7,,,,,,,,,6,71,88
41400,note_on,120,0,7,,,,,,,,,6,66,0
41460,note_on,60,0,3,,,,,,,,,1,50,0
41460,note_on,0,0,3,,,,,,,,,1,50,64
41520,note_on,240,0,15,,,,,,,,,2,74,0
41520,note_on,60,0,3,,,,,,,,,1,50,0
41520,note_on,0,0,3,,,,,,,,,1,50,64
41520,note_on,120,0,2,,,,,,,,,0,78,0
41520,note_on,0,0,2,,,,,,,,,0,76,64
41520,note_on,240,0,16,,,,,,,,,3,74,0
41520,note_on,240,0,6,,,,,,,,,5,74,0
41520,note_on,240,0,10,,,,,,,,,10,74,0
41520,note_on,720,0,13,,,,,,,,,13,59,0
41520,note_on,720,0,5,,,,,,,,,4,59,0
41520,note_on,0,0,5,,,,,,,,,4,57,89
41520,note_on,0,0,8,,,,,,,,,7,64,89
41520,note_on,240,0,8,,,,,,,,,7,62,0
41520,note_on,0,0,12,,,,,,,,,12,64,89
41520,note_on,0,0,9,,,,,,,,,8,57,89
41520,note_on,240,0,12,,,,,,,,,12,62,0
41520,note_on,720,0,9,,,,,,,,,8,59,0
41520,note_on,0,0,13,,,,,,,,,13,57,89
41520,note_on,720,0,14,,,,,,,,,14,59,0
41520,note_on,0,0,14,,,,,,,,,14,57,89
41580,note_on,60,0,2,,,,,,,,,0,83,0
41580,note_on,0,0,2,,,,,,,,,0,81,64
41640,note_on,120,0,10,,,,,,,,,10,74,89
41640,note_on,240,0,4,,,,,,,,,3,71,0
41640,note_on,0,0,4,,,,,,,,,3,71,89
41640,note_on,0,0,7,,,,,,,,,6,71,89
41640,note_on,120,0,15,,,,,,,,,2,74,89
41640,note_on,120,0,16,,,,,,,,,3,74,89
41640,note_on,240,0,11,,,,,,,,,11,71,0
41640,note_on,0,0,11,,,,,,,,,11,71,89
41640,note_on,240,0,7,,,,,,,,,6,71,0
41640,note_on,120,0,6,,,,,,,,,5,74,89
41640,note_on,0,0,8,,,,,,,,,7,66,89
41640,note_on,120,0,8,,,,,,,,,7,64,0
41640,note_on,120,0,12,,,,,,,,,12,64,0
41640,note_on,0,0,2,,,,,,,,,0,74,64
41640,note_on,0,0,2,,,,,,,,,0,80,64
41640,note_on,0,0,2,,,,,,,,,0,76,0
41640,note_on,0,0,12,,,,,,,,,12,66,89
41640,note_on,0,0,3,,,,,,,,,1,50,64
41640,note_on,120,0,3,,,,,,,,,1,50,0
41640,note_on,60,0,2,,,,,,,,,0,81,0
41700,note_on,60,0,2,,,,,,,,,0,80,0
41700,note_on,0,0,7,,,,,,,,,6,71,89
41700,note_on,60,0,7,,,,,,,,,6,71,0
41700,note_on,0,0,4,,,,,,,,,3,71,89
41700,note_on,60,0,4,,,,,,,,,3,71,0
41700,note_on,60,0,11,,,,,,,,,11,71,0
41700,note_on,0,0,11,,,,,,,,,11,71,89
41700,note_on,0,0,2,,,,,,,,,0,78,64
41760,note_on,0,0,13,,,,,,,,,13,56,90
41760,note_on,240,0,13,,,,,,,,,13,57,0
41760,note_on,240,0,9,,,,,,,,,8,57,0
41760,note_on,0,0,9,,,,,,,,,8,56,90
41760,note_on,120,0,6,,,,,,,,,5,74,0
41760,note_on,60,0,11,,,,,,,,,11,71,0
41760,note_on,240,0,5,,,,,,,,,4,57,0
41760,note_on,0,0,2,,,,,,,,,0,83,64
41760,note_on,0,0,2,,,,,,,,,0,76,64
41760,note_on,0,0,2,,,,,,,,,0,74,0
41760,note_on,60,0,2,,,,,,,,,0,78,0
41760,note_on,0,0,5,,,,,,,,,4,56,90
41760,note_on,0,0,11,,,,,,,,,11,64,90
41760,note_on,120,0,8,,,,,,,,,7,66,0
41760,note_on,120,0,10,,,,,,,,,10,74,0
41760,note_on,0,0,10,,,,,,,,,10,76,90
41760,note_on,240,0,14,,,,,,,,,14,57,0
41760,note_on,120,0,15,,,,,,,,,2,74,0
41760,note_on,0,0,7,,,,,,,,,6,64,90
41760,note_on,60,0,7,,,,,,,,,6,71,0
41760,note_on,0,0,8,,,,,,,,,7,59,90
41760,note_on,0,0,14,,,,,,,,,14,56,90
41760,note_on,0,0,15,,,,,,,,,2,76,90
41760,note_on,60,0,4,,,,,,,,,3,71,0
41760,note_on,120,0,3,,,,,,,,,1,50,0
41760,note_on,0,0,3,,,,,,,,,1,50,64
41760,note_on,120,0,16,,,,,,,,,3,74,0
41760,note_on,0,0,12,,,,,,,,,12,59,90
41760,note_on,120,0,12,,,,,,,,,12,66,0
41760,note_on,0,0,6,,,,,,,,,5,76,90
41760,note_on,0,0,16,,,,,,,,,3,76,90
41760,note_on,0,0,4,,,,,,,,,3,64,90
41820,note_on,60,0,2,,,,,,,,,0,86,0
41820,note_on,0,0,2,,,,,,,,,0,85,64
41880,note_on,120,0,3,,,,,,,,,1,50,0
41880,note_on,120,0,11,,,,,,,,,11,64,0
41880,note_on,0,0,11,,,,,,,,,11,68,90
41880,note_on,120,0,4,,,,,,,,,3,64,0
41880,note_on,120,0,7,,,,,,,,,6,64,0
41880,note_on,0,0,7,,,,,,,,,6,68,90
41880,note_on,0,0,2,,,,,,,,,0,83,64
41880,note_on,120,0,10,,,,,,,,,10,76,0
41880,note_on,0,0,10,,,,,,,,,10,76,90
41880,note_on,60,0,2,,,,,,,,,0,85,0
41880,note_on,0,0,4,,,,,,,,,3,68,90
41940,note_on,60,0,2,,,,,,,,,0,83,0
41940,note_on,0,0,2,,,,,,,,,0,81,64
42000,note_on,240,0,8,,,,,,,,,7,59,0
42000,note_on,0,0,8,,,,,,,,,7,64,90
42000,note_on,0,0,7,,,,,,,,,6,71,90
42000,note_on,120,0,7,,,,,,,,,6,68,0
42000,note_on,0,0,2,,,,,,,,,0,83,64
42000,note_on,0,0,2,,,,,,,,,0,83,0
42000,note_on,120,0,11,,,,,,,,,11,68,0
42000,note_on,0,0,11,,,,,,,,,11,71,90
42000,note_on,0,0,2,,,,,,,,,0,80,64
42000,note_on,60,0,2,,,,,,,,,0,81,0
42000,note_on,0,0,12,,,,,,,,,12,64,90
42000,note_on,240,0,12,,,,,,,,,12,59,0
42000,note_on,120,0,4,,,,,,,,,3,68,0
42000,note_on,0,0,4,,,,,,,,,3,71,90
42060,note_on,180,0,10,,,,,,,,,10,76,0
42060,note_on,0,0,15,,,,,,,,,2,78,90
42060,note_on,300,0,15,,,,,,,,,2,76,0
42060,note_on,0,0,10,,,,,,,,,10,78,90
42060,note_on,0,0,16,,,,,,,,,3,78,90
42060,note_on,300,0,16,,,,,,,,,3,76,0
42060,note_on,300,0,6,,,,,,,,,5,76,0
42060,note_on,0,0,6,,,,,,,,,5,78,90
42120,note_on,60,0,16,,,,,,,,,3,78,0
42120,note_on,0,0,16,,,,,,,,,3,76,91
42120,note_on,60,0,10,,,,,,,,,10,78,0
42120,note_on,0,0,10,,,,,,,,,10,76,91
42120,note_on,0,0,12,,,,,,,,,12,64,91
42120,note_on,0,0,15,,,,,,,,,2,76,91
42120,note_on,60,0,15,,,,,,,,,2,78,0
42120,note_on,240,0,3,,,,,,,,,1,50,64
42120,note_on,0,0,6,,,,,,,,,5,76,91
42120,note_on,60,0,6,,,,,,,,,5,78,0
42120,note_on,120,0,12,,,,,,,,,12,64,0
42180,note_on,60,0,6,,,,,,,,,5,76,0
42180,note_on,0,0,16,,,,,,,,,3,74,91
42180,note_on,0,0,6,,,,,,,,,5,74,91
42180,note_on,0,0,10,,,,,,,,,10,74,91
42180,note_on,60,0,10,,,,,,,,,10,76,0
42180,note_on,60,0,15,,,,,,,,,2,76,0
42180,note_on,60,0,16,,,,,,,,,3,76,0
42180,note_on,0,0,15,,,,,,,,,2,74,91
42240,note_on,0,0,6,,,,,,,,,5,73,91
42240,note_on,60,0,6,,,,,,,,,5,74,0
42240,note_on,0,0,14,,,,,,,,,14,57,91
42240,note_on,480,0,5,,,,,,,,,4,56,0
42240,note_on,0,0,15,,,,,,,,,2,73,91
42240,note_on,60,0,15,,,,,,,,,2,74,0
42240,note_on,480,0,14,,,,,,,,,14,56,0
42240,note_on,120,0,3,,,,,,,,,1,50,0
42240,note_on,0,0,3,,,,,,,,,1,45,64
42240,note_on,0,0,12,,,,,,,,,12,64,91
42240,note_on,0,0,13,,,,,,,,,13,57,91
42240,note_on,480,0,13,,,,,,,,,13,56,0
42240,note_on,0,0,9,,,,,,,,,8,57,91
42240,note_on,240,0,2,,,,,,,,,0,80,0
42240,note_on,0,0,2,,,,,,,,,0,85,64
42240,note_on,0,0,16,,,,,,,,,3,73,91
42240,note_on,60,0,16,,,,,,,,,3,74,0
42240,note_on,0,0,5,,,,,,,,,4,57,91
42240,note_on,0,0,10,,,,,,,,,10,73,91
42240,note_on,60,0,10,,,,,,,,,10,74,0
42240,note_on,120,0,12,,,,,,,,,12,64,0
42240,note_on,480,0,9,,,,,,,,,8,56,0
42360,note_on,120,0,3,,,,,,,,,1,45,0
42360,note_on,0,0,11,,,,,,,,,11,64,91
42360,note_on,360,0,11,,,,,,,,,11,71,0
42360,note_on,360,0,7,,,,,,,,,6,71,0
42360,note_on,0,0,10,,,,,,,,,10,69,91
42360,note_on,0,0,12,,,,,,,,,12,61,91
42360,note_on,120,0,10,,,,,,,,,10,73,0
42360,note_on,360,0,4,,,,,,,,,3,71,0
42360,note_on,120,0,2,,,,,,,,,0,85,0
42360,note_on,0,0,2,,,,,,,,,0,83,0
42360,note_on,0,0,2,,,,,,,,,0,76,0
42360,note_on,0,0,2,,,,,,,,,0,81,64
42360,note_on,0,0,2,,,,,,,,,0,76,64
42360,note_on,0,0,4,,,,,,,,,3,64,91
42360,note_on,120,0,6,,,,,,,,,5,73,0
42360,note_on,0,0,6,,,,,,,,,5,69,91
42360,note_on,120,0,16,,,,,,,,,3,73,0
42360,note_on,120,0,12,,,,,,,,,12,64,0
42360,note_on,120,0,15,,,,,,,,,2,73,0
42360,note_on,0,0,15,,,,,,,,,2,69,91
42360,note_on,360,0,8,,,,,,,,,7,64,0
42360,note_on,0,0,7,,,,,,,,,6,64,91
42360,note_on,0,0,8,,,,,,,,,7,61,91
42360,note_on,0,0,16,,,,,,,,,3,69,91
42420,note_on,60,0,2,,,,,,,,,0,81,0
42420,note_on,0,0,2,,,,,,,,,0,79,64
42480,note_on,0,0,2,,,,,,,,,0,78,64
42480,note_on,120,0,10,,,,,,,,,10,69,0
42480,note_on,0,0,6,,,,,,,,,5,78,92
42480,note_on,0,0,2,,,,,,,,,0,81,64
42480,note_on,0,0,2,,,,,,,,,0,76,0
42480,note_on,120,0,12,,,,,,,,,12,61,0
42480,note_on,60,0,2,,,,,,,,,0,79,0
42480,note_on,240,0,13,,,,,,,,,13,57,0
42480,note_on,0,0,4,,,,,,,,,3,69,92
42480,note_on,0,0,11,,,,,,,,,11,69,92
42480,note_on,120,0,15,,,,,,,,,2,69,0
42480,note_on,120,0,7,,,,,,,,,6,64,0
42480,note_on,120,0,4,,,,,,,,,3,64,0
42480,note_on,0,0,10,,,,,,,,,10,78,92
42480,note_on,120,0,6,,,,,,,,,5,69,0
42480,note_on,0,0,15,,,,,,,,,2,78,92
42480,note_on,0,0,12,,,,,,,,,12,61,92
42480,note_on,120,0,16,,,,,,,,,3,69,0
42480,note_on,0,0,16,,,,,,,,,3,78,92
42480,note_on,0,0,7,,,,,,,,,6,69,92
42480,note_on,120,0,11,,,,,,,,,11,64,0
42600,note_on,0,0,8,,,,,,,,,7,62,92
42600,note_on,240,0,8,,,,,,,,,7,61,0
42600,note_on,0,0,5,,,,,,,,,4,50,92
42600,note_on,0,0,9,,,,,,,,,8,50,92
42600,note_on,0,0,14,,,,,,,,,14,50,92
42600,note_on,360,0,14,,,,,,,,,14,57,0
42600,note_on,120,0,12,,,,,,,,,12,61,0
42600,note_on,240,0,3,,,,,,,,,1,50,64
42600,note_on,0,0,12,,,,,,,,,12,62,92
42600,note_on,120,0,13,,,,,,,,,13,50,92
42600,note_on,360,0,9,,,,,,,,,8,57,0
42600,note_on,360,0,5,,,,,,,,,4,57,0
42600,note_on,120,0,2,,,,,,,,,0,74,64
42720,note_on,0,0,3,,,,,,,,,1,50,64
42720,note_on,0,0,12,,,,,,,,,12,59,93
42720,note_on,120,0,9,,,,,,,,,8,50,0
42720,note_on,0,0,9,,,,,,,,,8,55,93
42720,note_on,0,0,14,,,,,,,,,14,55,93
42720,note_on,120,0,12,,,,,,,,,12,62,0
42720,note_on,0,0,2,,,,,,,,,0,74,64
42720,note_on,120,0,3,,,,,,,,,1,50,0
42720,note_on,120,0,8,,,,,,,,,7,62,0
42720,note_on,0,0,8,,,,,,,,,7,59,93
42720,note_on,120,0,2,,,,,,,,,0,74,0
42720,note_on,120,0,14,,,,,,,,,14,50,0
42720,note_on,0,0,5,,,,,,,,,4,55,93
42720,note_on,120,0,5,,,,,,,,,4,50,0
42720,note_on,120,0,13,,,,,,,,,13,50,0
42720,note_on,0,0,13,,,,,,,,,13,55,93
42840,note_on,0,0,13,,,,,,,,,13,54,93
42840,note_on,120,0,13,,,,,,,,,13,55,0
42840,note_on,120,0,9,,,,,,,,,8,55,0
42840,note_on,0,0,9,,,,,,,,,8,54,93
42840,note_on,0,0,11,,,,,,,,,11,62,93
42840,note_on,120,0,3,,,,,,,,,1,50,0
42840,note_on,360,0,11,,,,,,,,,11,69,0
42840,note_on,0,0,5,,,,,,,,,4,54,93
42840,note_on,120,0,5,,,,,,,,,4,55,0
42840,note_on,120,0,14,,,,,,,,,14,55,0
42840,note_on,0,0,14,,,,,,,,,14,54,93
42840,note_on,120,0,12,,,,,,,,,12,59,0
42840,note_on,0,0,12,,,,,,,,,12,57,93
42840,note_on,120,0,8,,,,,,,,,7,59,0
42840,note_on,0,0,8,,,,,,,,,7,57,93
42840,note_on,120,0,2,,,,,,,,,0,74,0
42960,note_on,0,0,8,,,,,,,,,7,59,93
42960,note_on,0,0,11,,,,,,,,,11,67,93
42960,note_on,0,0,4,,,,,,,,,3,67,93
42960,note_on,480,0,7,,,,,,,,,6,69,0
42960,note_on,0,0,7,,,,,,,,,6,67,93
42960,note_on,120,0,11,,,,,,,,,11,62,0
42960,note_on,120,0,14,,,,,,,,,14,54,0
42960,note_on,480,0,6,,,,,,,,,5,78,0
42960,note_on,120,0,8,,,,,,,,,7,57,0
42960,note_on,0,0,2,,,,,,,,,0,76,64
42960,note_on,0,0,12,,,,,,,,,12,59,93
42960,note_on,0,0,10,,,,,,,,,10,76,93
42960,note_on,480,0,10,,,,,,,,,10,78,0
42960,note_on,0,0,16,,,,,,,,,3,76,93
42960,note_on,480,0,16,,,,,,,,,3,78,0
42960,note_on,120,0,5,,,,,,,,,4,54,0
42960,note_on,0,0,5,,,,,,,,,4,55,93
42960,note_on,0,0,2,,,,,,,,,0,79,64
42960,note_on,0,0,2,,,,,,,,,0,81,0
42960,note_on,120,0,12,,,,,,,,,12,57,0
42960,note_on,120,0,2,,,,,,,,,0,78,0
42960,note_on,0,0,15,,,,,,,,,2,76,93
42960,note_on,480,0,15,,,,,,,,,2,78,0
42960,note_on,0,0,9,,,,,,,,,8,55,93
42960,note_on,120,0,9,,,,,,,,,8,54,0
42960,note_on,0,0,13,,,,,,,,,13,55,93
42960,note_on,0,0,6,,,,,,,,,5,76,93
42960,note_on,480,0,4,,,,,,,,,3,69,0
42960,note_on,0,0,14,,,,,,,,,14,55,93
42960,note_on,120,0,13,,,,,,,,,13,54,0
43080,note_on,120,0,14,,,,,,,,,14,55,0
43080,note_on,0,0,13,,,,,,,,,13,52,94
43080,note_on,120,0,8,,,,,,,,,7,59,0
43080,note_on,0,0,8,,,,,,,,,7,55,94
43080,note_on,0,0,12,,,,,,,,,12,55,94
43080,note_on,0,0,14,,,,,,,,,14,52,94
43080,note_on,120,0,9,,,,,,,,,8,55,0
43080,note_on,0,0,9,,,,,,,,,8,52,94
43080,note_on,0,0,5,,,,,,,,,4,52,94
43080,note_on,120,0,5,,,,,,,,,4,55,0
43080,note_on,120,0,12,,,,,,,,,12,59,0
43080,note_on,120,0,13,,,,,,,,,13,55,0
43200,note_on,0,0,12,,,,,,,,,12,57,94
43200,note_on,120,0,12,,,,,,,,,12,55,0
43200,note_on,120,0,13,,,,,,,,,13,52,0
43200,note_on,0,0,13,,,,,,,,,13,54,94
43200,note_on,120,0,8,,,,,,,,,7,55,0
43200,note_on,0,0,8,,,,,,,,,7,57,94
43200,note_on,120,0,5,,,,,,,,,4,52,0
43200,note_on,0,0,5,,,,,,,,,4,54,94
43200,note_on,0,0,9,,,,,,,,,8,54,94
43200,note_on,120,0,9,,,,,,,,,8,52,0
43200,note_on,120,0,14,,,,,,,,,14,52,0
43200,note_on,240,0,2,,,,,,,,,0,69,64
43200,note_on,0,0,14,,,,,,,,,14,54,94
43200,note_on,360,0,3,,,,,,,,,1,45,64
43200,set_tempo,1920,1,0,,,,,,526316,,,,,
43320,note_on,0,0,10,,,,,,,,,10,69,94
43320,note_on,360,0,10,,,,,,,,,10,76,0
43320,note_on,360,0,6,,,,,,,,,5,76,0
43320,note_on,0,0,6,,,,,,,,,5,69,94
43320,note_on,0,0,11,,,,,,,,,11,66,94
43320,note_on,120,0,8,,,,,,,,,7,57,0
43320,note_on,360,0,7,,,,,,,,,6,67,0
43320,note_on,0,0,7,,,,,,,,,6,66,94
43320,note_on,360,0,11,,,,,,,,,11,67,0
43320,note_on,0,0,8,,,,,,,,,7,59,94
43320,note_on,120,0,3,,,,,,,,,1,45,0
43320,note_on,120,0,12,,,,,,,,,12,57,0
43320,note_on,360,0,4,,,,,,,,,3,67,0
43320,note_on,0,0,2,,,,,,,,,0,69,64
43320,note_on,0,0,2,,,,,,,,,0,78,64
43320,note_on,0,0,2,,,,,,,,,0,79,0
43320,note_on,0,0,2,,,,,,,,,0,76,0
43320,note_on,120,0,2,,,,,,,,,0,69,0
43320,note_on,0,0,4,,,,,,,,,3,66,94
43320,note_on,360,0,15,,,,,,,,,2,76,0
43320,note_on,0,0,15,,,,,,,,,2,69,94
43320,note_on,360,0,16,,,,,,,,,3,76,0
43320,note_on,0,0,16,,,,,,,,,3,69,94
43320,note_on,0,0,12,,,,,,,,,12,59,94
43380,note_on,0,0,11,,,,,,,,,11,64,95
43380,note_on,0,0,8,,,,,,,,,7,61,95
43380,note_on,0,0,2,,,,,,,,,0,76,64
43380,note_on,0,0,4,,,,,,,,,3,64,95
43380,note_on,60,0,2,,,,,,,,,0,78,0
43380,note_on,0,0,7,,,,,,,,,6,64,95
43380,note_on,60,0,7,,,,,,,,,6,66,0
43380,note_on,60,0,11,,,,,,,,,11,66,0
43380,note_on,60,0,4,,,,,,,,,3,66,0
43380,note_on,60,0,8,,,,,,,,,7,59,0
43380,note_on,60,0,12,,,,,,,,,12,59,0
43380,note_on,0,0,12,,,,,,,,,12,61,95
43440,note_on,0,0,2,,,,,,,,,0,69,0
43440,note_on,0,0,8,,,,,,,,,7,62,95
43440,note_on,0,0,11,,,,,,,,,11,66,95
43440,note_on,60,0,11,,,,,,,,,11,64,0
43440,note_on,0,0,2,,,,,,,,,0,74,64
43440,note_on,0,0,6,,,,,,,,,5,74,95
43440,note_on,60,0,4,,,,,,,,,3,64,0
43440,note_on,0,0,12,,,,,,,,,12,62,95
43440,note_on,60,0,8,,,,,,,,,7,61,0
43440,note_on,60,0,12,,,,,,,,,12,61,0
43440,note_on,120,0,15,,,,,,,,,2,69,0
43440,note_on,0,0,15,,,,,,,,,2,74,95
43440,note_on,120,0,16,,,,,,,,,3,69,0
43440,note_on,0,0,16,,,,,,,,,3,74,95
43440,note_on,0,0,4,,,,,,,,,3,66,95
43440,note_on,0,0,10,,,,,,,,,10,74,95
43440,note_on,0,0,2,,,,,,,,,0,78,64
43440,note_on,120,0,10,,,,,,,,,10,69,0
43440,note_on,60,0,2,,,,,,,,,0,76,0
43440,note_on,120,0,6,,,,,,,,,5,69,0
43440,note_on,240,0,13,,,,,,,,,13,54,0
43440,note_on,60,0,7,,,,,,,,,6,64,0
43440,note_on,0,0,7,,,,,,,,,6,66,95
43440,note_on,0,0,13,,,,,,,,,13,54,95
43560,note_on,360,0,14,,,,,,,,,14,54,0
43560,note_on,0,0,14,,,,,,,,,14,55,95
43560,note_on,120,0,8,,,,,,,,,7,62,0
43560,note_on,0,0,8,,,,,,,,,7,59,95
43560,note_on,0,0,7,,,,,,,,,6,71,95
43560,note_on,360,0,5,,,,,,,,,4,54,0
43560,note_on,0,0,4,,,,,,,,,3,71,95
43560,note_on,120,0,7,,,,,,,,,6,66,0
43560,note_on,360,0,9,,,,,,,,,8,54,0
43560,note_on,0,0,9,,,,,,,,,8,55,95
43560,note_on,0,0,5,,,,,,,,,4,55,95
43560,note_on,120,0,4,,,,,,,,,3,66,0
43560,note_on,120,0,13,,,,,,,,,13,54,0
43560,note_on,240,0,3,,,,,,,,,1,50,64
43560,note_on,0,0,2,,,,,,,,,0,62,64
43560,note_on,120,0,2,,,,,,,,,0,78,0
43560,note_on,0,0,2,,,,,,,,,0,83,64
43560,note_on,120,0,11,,,,,,,,,11,66,0
43560,note_on,0,0,11,,,,,,,,,11,71,95
43560,note_on,0,0,13,,,,,,,,,13,55,95
43560,note_on,0,0,12,,,,,,,,,12,59,95
43560,note_on,120,0,12,,,,,,,,,12,62,0
43680,note_on,120,0,12,,,,,,,,,12,59,0
43680,note_on,0,0,9,,,,,,,,,8,57,96
43680,note_on,120,0,11,,,,,,,,,11,71,0
43680,note_on,0,0,13,,,,,,,,,13,57,96
43680,note_on,120,0,13,,,,,,,,,13,55,0
43680,note_on,120,0,2,,,,,,,,,0,62,0
43680,note_on,0,0,11,,,,,,,,,11,66,96
43680,note_on,0,0,12,,,,,,,,,12,57,96
43680,note_on,120,0,9,,,,,,,,,8,55,0
43680,note_on,0,0,7,,,,,,,,,6,66,96
43680,note_on,0,0,5,,,,,,,,,4,57,96
43680,note_on,0,0,4,,,,,,,,,3,66,96
43680,note_on,120,0,4,,,,,,,,,3,71,0
43680,note_on,0,0,8,,,,,,,,,7,57,96
43680,note_on,120,0,8,,,,,,,,,7,59,0
43680,note_on,0,0,2,,,,,,,,,0,83,0
43680,note_on,0,0,3,,,,,,,,,1,45,64
43680,note_on,120,0,3,,,,,,,,,1,50,0
43680,note_on,0,0,2,,,,,,,,,0,78,64
43680,note_on,0,0,14,,,,,,,,,14,57,96
43680,note_on,120,0,14,,,,,,,,,14,55,0
43680,note_on,0,0,2,,,,,,,,,0,69,64
43680,note_on,120,0,7,,,,,,,,,6,71,0
43680,note_on,120,0,5,,,,,,,,,4,55,0
43710,set_tempo,510,1,0,,,,,,600000,,,,,
43800,note_on,0,0,10,,,,,,,,,10,73,96
43800,note_on,360,0,10,,,,,,,,,10,74,0
43800,note_on,120,0,3,,,,,,,,,1,45,0
43800,note_on,0,0,3,,,,,,,,,1,45,64
43800,note_on,0,0,6,,,,,,,,,5,73,96
43800,note_on,360,0,6,,,,,,,,,5,74,0
43800,note_on,0,0,2,,,,,,,,,0,69,64
43800,note_on,0,0,2,,,,,,,,,0,69,64
43800,note_on,0,0,2,,,,,,,,,0,74,0
43800,note_on,120,0,2,,,,,,,,,0,69,0
43800,note_on,360,0,16,,,,,,,,,3,74,0
43800,note_on,0,0,16,,,,,,,,,3,73,96
43800,note_on,360,0,15,,,,,,,,,2,74,0
43800,note_on,0,0,15,,,,,,,,,2,73,96
43860,note_on,0,0,2,,,,,,,,,0,69,0
43860,note_on,60,0,3,,,,,,,,,1,45,0
43860,note_on,0,0,3,,,,,,,,,1,45,64
43860,note_on,0,0,2,,,,,,,,,0,69,64
43860,note_on,0,0,2,,,,,,,,,0,69,64
43860,note_on,0,0,6,,,,,,,,,5,71,96
43860,note_on,60,0,6,,,,,,,,,5,73,0
43860,note_on,0,0,15,,,,,,,,,2,71,96
43860,note_on,60,0,2,,,,,,,,,0,69,0
43860,note_on,60,0,15,,,,,,,,,2,73,0
43860,note_on,0,0,16,,,,,,,,,3,71,96
43860,note_on,60,0,16,,,,,,,,,3,73,0
43860,note_on,60,0,10,,,,,,,,,10,73,0
43860,note_on,0,0,10,,,,,,,,,10,71,96
43920,note_on,0,0,2,,,,,,,,,0,69,0
43920,note_on,60,0,2,,,,,,,,,0,69,0
43920,note_on,0,0,2,,,,,,,,,0,78,0
43920,note_on,0,0,2,,,,,,,,,0,76,64
43920,note_on,0,0,2,,,,,,,,,0,69,64
43920,note_on,240,0,7,,,,,,,,,6,66,0
43920,note_on,240,0,4,,,,,,,,,3,66,0
43920,note_on,0,0,4,,,,,,,,,3,64,96
43920,note_on,60,0,6,,,,,,,,,5,71,0
43920,note_on,60,0,15,,,,,,,,,2,71,0
43920,note_on,0,0,7,,,,,,,,,6,64,96
43920,note_on,240,0,5,,,,,,,,,4,57,0
43920,note_on,0,0,5,,,,,,,,,4,45,96
43920,note_on,240,0,13,,,,,,,,,13,57,0
43920,note_on,0,0,13,,,,,,,,,13,45,96
43920,note_on,240,0,14,,,,,,,,,14,57,0
43920,note_on,0,0,14,,,,,,,,,14,45,96
43920,note_on,0,0,15,,,,,,,,,2,73,96
43920,note_on,0,0,6,,,,,,,,,5,73,96
43920,note_on,0,0,2,,,,,,,,,0,69,64
43920,note_on,240,0,8,,,,,,,,,7,57,0
43920,note_on,240,0,11,,,,,,,,,11,66,0
43920,note_on,0,0,11,,,,,,,,,11,64,96
43920,note_on,0,0,16,,,,,,,,,3,73,96
43920,note_on,0,0,3,,,,,,,,,1,45,64
43920,note_on,60,0,3,,,,,,,,,1,45,0
43920,note_on,0,0,9,,,,,,,,,8,45,96
43920,note_on,60,0,16,,,,,,,,,3,71,0
43920,note_on,0,0,8,,,,,,,,,7,57,100
43920,note_on,60,0,10,,,,,,,,,10,71,0
43920,note_on,240,0,9,,,,,,,,,8,57,0
43920,note_on,0,0,10,,,,,,,,,10,73,96
44040,note_on,120,0,2,,,,,,,,,0,69,0
44040,note_on,0,0,2,,,,,,,,,0,69,0
44040,note_on,0,0,2,,,,,,,,,0,69,64
44040,note_on,0,0,2,,,,,,,,,0,69,64
44040,note_on,120,0,3,,,,,,,,,1,45,0
44040,note_on,0,0,3,,,,,,,,,1,45,64
44051,set_tempo,341,1,0,,,,,,1500000,,,,,
44160,note_on,0,0,13,,,,,,,,,13,50,97
44160,note_on,240,0,16,,,,,,,,,3,73,0
44160,note_on,240,0,13,,,,,,,,,13,45,0
44160,note_on,0,0,2,,,,,,,,,0,69,0
44160,note_on,240,0,4,,,,,,,,,3,64,0
44160,note_on,240,0,10,,,,,,,,,10,73,0
44160,note_on,0,0,4,,,,,,,,,3,66,97
44160,note_on,0,0,5,,,,,,,,,4,38,97
44160,note_on,240,0,5,,,,,,,,,4,45,0
44160,note_on,240,0,14,,,,,,,,,14,45,0
44160,note_on,0,0,14,,,,,,,,,14,38,97
44160,note_on,240,0,9,,,,,,,,,8,45,0
44160,note_on,0,0,9,,,,,,,,,8,38,97
44160,note_on,0,0,16,,,,,,,,,3,74,97
44160,note_on,240,0,15,,,,,,,,,2,73,0
44160,note_on,0,0,15,,,,,,,,,2,74,97
44160,note_on,0,0,10,,,,,,,,,10,74,97
44160,note_on,0,0,12,,,,,,,,,12,57,97
44160,note_on,480,0,12,,,,,,,,,12,57,0
44160,note_on,0,0,2,,,,,,,,,0,66,64
44160,note_on,0,0,7,,,,,,,,,6,66,97
44160,note_on,0,0,11,,,,,,,,,11,66,97
44160,note_on,240,0,11,,,,,,,,,11,64,0
44160,note_on,240,0,7,,,,,,,,,6,64,0
44160,note_on,0,0,6,,,,,,,,,5,74,97
44160,note_on,240,0,6,,,,,,,,,5,73,0
44160,note_on,0,0,2,,,,,,,,,0,69,64
44160,note_on,0,0,8,,,,,,,,,7,57,97
44160,note_on,0,0,2,,,,,,,,,0,74,64
44160,note_on,120,0,3,,,,,,,,,1,45,0
44160,note_on,0,0,3,,,,,,,,,1,50,64
44160,note_on,120,0,2,,,,,,,,,0,69,0
44160,note_on,240,0,8,,,,,,,,,7,57,0
44160,note_on,0,0,2,,,,,,,,,0,76,0
44165,set_tempo,114,1,0,,,,,,882352,,,,,
44173,set_tempo,8,1,0,,,,,,659340,,,,,
44181,set_tempo,8,1,0,,,,,,750000,,,,,
45120,note_on,960,0,12,,,,,,,,,12,57,0
45120,note_on,960,0,7,,,,,,,,,6,66,0
45120,note_on,960,0,16,,,,,,,,,3,74,0
45120,note_on,960,0,14,,,,,,,,,14,38,0
45120,note_on,960,0,9,,,,,,,,,8,38,0
45120,note_on,960,0,5,,,,,,,,,4,38,0
45120,note_on,960,0,2,,,,,,,,,0,66,0
45120,note_on,0,0,2,,,,,,,,,0,69,0
45120,note_on,0,0,2,,,,,,,,,0,74,0
45120,note_on,960,0,11,,,,,,,,,11,66,0
45120,note_on,960,0,4,,,,,,,,,3,66,0
45120,note_on,960,0,6,,,,,,,,,5,74,0
45120,note_on,960,0,10,,,,,,,,,10,74,0
45120,note_on,960,0,13,,,,,,,,,13,50,0
45120,note_on,960,0,8,,,,,,,,,7,57,0
45120,note_on,960,0,3,,,,,,,,,1,50,0
45120,note_on,960,0,15,,,,,,,,,2,74,0
46080,end_of_track,1899,1,0,,,,,,,,,,,
46080,end_of_track,960,1,6,,,,,,,,,,,
46080,end_of_track,960,1,15,,,,,,,,,,,
46080,end_of_track,960,1,14,,,,,,,,,,,
46080,end_of_track,960,1,5,,,,,,,,,,,
46080,end_of_track,960,1,4,,,,,,,,,,,
46080,end_of_track,960,1,13,,,,,,,,,,,
46080,end_of_track,960,1,12,,,,,,,,,,,
46080,end_of_track,960,1,7,,,,,,,,,,,
46080,end_of_track,960,1,2,,,,,,,,,,,
46080,end_of_track,960,1,11,,,,,,,,,,,
46080,end_of_track,960,1,8,,,,,,,,,,,
46080,end_of_track,960,1,3,,,,,,,,,,,
46080,end_of_track,960,1,10,,,,,,,,,,,
46080,end_of_track,960,1,9,,,,,,,,,,,
46080,end_of_track,46080,1,1,,,,,,,,,,,
46080,end_of_track,960,1,16,,,,,,,,,,,
