tick,type,numerator,denominator,clocks_per_click,notated_32nd_notes_per_beat,time,meta,track,key,tempo,note,velocity,channel
0,time_signature,4,4,24,8,0,1,0,,,,,
0,track_name,,,,,0,1,2,,,,,
0,track_name,,,,,0,1,4,,,,,
0,track_name,,,,,0,1,3,,,,,
0,track_name,,,,,0,1,5,,,,,
0,track_name,,,,,0,1,1,,,,,
0,key_signature,,,,,0,1,0,Eb,,,,
0,set_tempo,,,,,0,1,0,,789473,,,
3584,note_on,,,,,3584,0,1,,,58,96,0
4096,note_off,,,,,512,0,1,,,58,0,0
4096,note_on,,,,,0,0,1,,,63,96,0
4096,note_on,,,,,4096,0,4,,,39,96,3
4096,note_on,,,,,4096,0,5,,,27,96,4
4352,note_off,,,,,256,0,1,,,63,0,0
4352,note_on,,,,,0,0,1,,,65,96,0
4608,note_off,,,,,256,0,1,,,65,0,0
4608,note_on,,,,,0,0,1,,,67,96,0
5120,note_on,,,,,0,0,5,,,27,96,4
5120,note_off,,,,,1024,0,4,,,39,0,3
5120,note_on,,,,,0,0,4,,,39,96,3
5120,note_off,,,,,1024,0,5,,,27,0,4
5120,note_off,,,,,512,0,1,,,67,0,0
5120,note_on,,,,,0,0,1,,,67,96,0
5632,note_on,,,,,0,0,1,,,65,96,0
5632,note_off,,,,,512,0,1,,,67,0,0
6144,note_off,,,,,1024,0,5,,,27,0,4
6144,note_on,,,,,0,0,5,,,27,96,4
6144,note_on,,,,,0,0,4,,,39,96,3
6144,note_off,,,,,1024,0,4,,,39,0,3
6144,note_off,,,,,512,0,1,,,65,0,0
6144,note_on,,,,,0,0,1,,,68,96,0
6656,note_on,,,,,0,0,1,,,67,96,0
6656,note_off,,,,,512,0,1,,,68,0,0
7168,note_on,,,,,0,0,1,,,58,96,0
7168,note_on,,,,,0,0,5,,,31,96,4
7168,note_off,,,,,1024,0,5,,,27,0,4
7168,note_off,,,,,512,0,1,,,67,0,0
7168,note_on,,,,,0,0,4,,,43,96,3
7168,note_off,,,,,1024,0,4,,,39,0,3
7680,note_off,,,,,512,0,1,,,58,0,0
7680,note_on,,,,,0,0,1,,,56,96,0
8192,note_off,,,,,1024,0,4,,,43,0,3
8192,note_off,,,,,512,0,1,,,56,0,0
8192,note_on,,,,,0,0,1,,,67,96,0
8192,note_off,,,,,1024,0,5,,,31,0,4
8192,note_on,,,,,0,0,5,,,32,96,4
8192,note_on,,,,,0,0,4,,,44,96,3
8448,note_off,,,,,256,0,1,,,67,0,0
8448,note_on,,,,,0,0,1,,,63,96,0
8704,note_on,,,,,0,0,1,,,65,96,0
8704,note_off,,,,,256,0,1,,,63,0,0
9216,note_off,,,,,1024,0,5,,,32,0,4
9216,note_on,,,,,0,0,5,,,34,96,4
9216,note_off,,,,,512,0,1,,,65,0,0
9216,note_on,,,,,0,0,1,,,56,96,0
9216,note_on,,,,,0,0,4,,,46,96,3
9216,note_off,,,,,1024,0,4,,,44,0,3
9728,note_off,,,,,512,0,1,,,56,0,0
9728,note_on,,,,,0,0,1,,,55,96,0
10240,note_on,,,,,0,0,4,,,39,96,3
10240,note_off,,,,,1024,0,4,,,46,0,3
10240,note_off,,,,,1024,0,5,,,34,0,4
10240,note_on,,,,,0,0,5,,,27,96,4
10240,note_off,,,,,512,0,1,,,55,0,0
10240,note_on,,,,,0,0,1,,,62,96,0
10752,note_on,,,,,0,0,1,,,63,96,0
10752,note_off,,,,,512,0,1,,,62,0,0
11264,note_off,,,,,1024,0,5,,,27,0,4
11264,note_off,,,,,512,0,1,,,63,0,0
11264,note_off,,,,,1024,0,4,,,39,0,3
11776,note_on,,,,,512,0,1,,,58,96,0
12288,note_on,,,,,0,0,1,,,63,96,0
12288,note_off,,,,,512,0,1,,,58,0,0
12288,note_on,,,,,1024,0,5,,,27,96,4
12288,note_on,,,,,1024,0,4,,,39,96,3
12544,note_off,,,,,256,0,1,,,63,0,0
12544,note_on,,,,,0,0,1,,,65,96,0
12800,note_off,,,,,256,0,1,,,65,0,0
12800,note_on,,,,,0,0,1,,,67,96,0
13312,note_off,,,,,512,0,1,,,67,0,0
13312,note_off,,,,,1024,0,5,,,27,0,4
13312,note_on,,,,,0,0,5,,,27,96,4
13312,note_on,,,,,0,0,1,,,67,96,0
13312,note_on,,,,,0,0,4,,,39,96,3
13312,note_off,,,,,1024,0,4,,,39,0,3
13824,note_off,,,,,512,0,1,,,67,0,0
13824,note_on,,,,,0,0,1,,,65,96,0
14336,note_off,,,,,1024,0,4,,,39,0,3
14336,note_on,,,,,0,0,4,,,39,96,3
14336,note_off,,,,,512,0,1,,,65,0,0
14336,note_on,,,,,0,0,1,,,68,96,0
14336,note_on,,,,,0,0,5,,,27,96,4
14336,note_off,,,,,1024,0,5,,,27,0,4
14848,note_on,,,,,0,0,1,,,67,96,0
14848,note_off,,,,,512,0,1,,,68,0,0
15360,note_on,,,,,0,0,4,,,43,96,3
15360,note_off,,,,,512,0,1,,,67,0,0
15360,note_off,,,,,1024,0,5,,,27,0,4
15360,note_off,,,,,1024,0,4,,,39,0,3
15360,note_on,,,,,0,0,1,,,58,96,0
15360,note_on,,,,,0,0,5,,,31,96,4
15872,note_on,,,,,0,0,1,,,56,96,0
15872,note_off,,,,,512,0,1,,,58,0,0
16384,note_off,,,,,1024,0,4,,,43,0,3
16384,note_on,,,,,0,0,1,,,67,96,0
16384,note_off,,,,,512,0,1,,,56,0,0
16384,note_off,,,,,1024,0,5,,,31,0,4
16384,note_on,,,,,0,0,5,,,32,96,4
16384,note_on,,,,,0,0,4,,,44,96,3
16640,note_off,,,,,256,0,1,,,67,0,0
16640,note_on,,,,,0,0,1,,,63,96,0
16896,note_off,,,,,256,0,1,,,63,0,0
16896,note_on,,,,,0,0,1,,,65,96,0
17408,note_on,,,,,0,0,5,,,34,96,4
17408,note_off,,,,,512,0,1,,,65,0,0
17408,note_on,,,,,0,0,4,,,46,96,3
17408,note_off,,,,,1024,0,4,,,44,0,3
17408,note_off,,,,,1024,0,5,,,32,0,4
17408,note_on,,,,,0,0,1,,,56,96,0
17920,note_off,,,,,512,0,1,,,56,0,0
17920,note_on,,,,,0,0,1,,,55,96,0
18432,note_off,,,,,512,0,1,,,55,0,0
18432,note_on,,,,,0,0,4,,,39,96,3
18432,note_off,,,,,1024,0,4,,,46,0,3
18432,note_on,,,,,0,0,1,,,62,96,0
18432,note_off,,,,,1024,0,5,,,34,0,4
18432,note_on,,,,,0,0,5,,,27,96,4
18944,note_off,,,,,512,0,1,,,62,0,0
18944,note_on,,,,,0,0,1,,,63,96,0
19456,note_off,,,,,1024,0,4,,,39,0,3
19456,note_off,,,,,512,0,1,,,63,0,0
19456,note_off,,,,,1024,0,5,,,27,0,4
19968,note_on,,,,,512,0,1,,,70,96,0
20480,note_on,,,,,0,0,1,,,70,96,0
20480,note_on,,,,,1024,0,4,,,43,96,3
20480,note_on,,,,,1024,0,5,,,31,96,4
20480,note_off,,,,,512,0,1,,,70,0,0
21504,note_off,,,,,1024,0,5,,,31,0,4
21504,note_on,,,,,0,0,5,,,36,96,4
21504,note_on,,,,,0,0,1,,,68,96,0
21504,note_off,,,,,1024,0,4,,,43,0,3
21504,note_on,,,,,0,0,4,,,48,96,3
21504,note_off,,,,,1024,0,1,,,70,0,0
21760,note_on,,,,,0,0,1,,,67,96,0
21760,note_off,,,,,256,0,1,,,68,0,0
22016,note_on,,,,,0,0,1,,,65,96,0
22016,note_off,,,,,256,0,1,,,67,0,0
22272,note_off,,,,,256,0,1,,,65,0,0
22272,note_on,,,,,0,0,1,,,63,96,0
22528,note_off,,,,,1024,0,5,,,36,0,4
22528,note_on,,,,,0,0,5,,,34,96,4
22528,note_off,,,,,1024,0,4,,,48,0,3
22528,note_on,,,,,0,0,1,,,65,96,0
22528,note_off,,,,,256,0,1,,,63,0,0
22528,note_on,,,,,0,0,4,,,46,96,3
22784,note_on,,,,,0,0,1,,,63,96,0
22784,note_off,,,,,256,0,1,,,65,0,0
23040,note_on,,,,,0,0,1,,,62,96,0
23040,note_off,,,,,256,0,1,,,63,0,0
23296,note_off,,,,,256,0,1,,,62,0,0
23296,note_on,,,,,0,0,1,,,60,96,0
23552,note_on,,,,,0,0,4,,,44,96,3
23552,note_on,,,,,0,0,5,,,32,96,4
23552,note_off,,,,,1024,0,5,,,34,0,4
23552,note_on,,,,,0,0,1,,,58,96,0
23552,note_off,,,,,256,0,1,,,60,0,0
23552,note_off,,,,,1024,0,4,,,46,0,3
24064,note_on,,,,,0,0,1,,,60,96,0
24064,note_off,,,,,512,0,1,,,58,0,0
24320,note_off,,,,,256,0,1,,,60,0,0
24320,note_on,,,,,0,0,1,,,62,96,0
24576,note_off,,,,,256,0,1,,,62,0,0
24576,note_on,,,,,0,0,1,,,63,96,0
24576,note_off,,,,,1024,0,4,,,44,0,3
24576,note_on,,,,,0,0,5,,,31,96,4
24576,note_on,,,,,0,0,4,,,43,96,3
24576,note_off,,,,,1024,0,5,,,32,0,4
24832,note_on,,,,,0,0,1,,,65,96,0
24832,note_off,,,,,256,0,1,,,63,0,0
25088,note_on,,,,,0,0,1,,,67,96,0
25088,note_off,,,,,256,0,1,,,65,0,0
25344,note_off,,,,,256,0,1,,,67,0,0
25344,note_on,,,,,0,0,1,,,65,96,0
25600,note_off,,,,,1024,0,5,,,31,0,4
25600,note_on,,,,,0,0,4,,,39,96,3
25600,note_off,,,,,256,0,1,,,65,0,0
25600,note_on,,,,,0,0,5,,,27,96,4
25600,note_on,,,,,0,0,1,,,68,96,0
25600,note_off,,,,,1024,0,4,,,43,0,3
25856,note_on,,,,,0,0,1,,,67,96,0
25856,note_off,,,,,256,0,1,,,68,0,0
26112,note_on,,,,,0,0,1,,,65,96,0
26112,note_off,,,,,256,0,1,,,67,0,0
26368,note_off,,,,,256,0,1,,,65,0,0
26368,note_on,,,,,0,0,1,,,63,96,0
26624,note_off,,,,,1024,0,4,,,39,0,3
26624,note_on,,,,,0,0,4,,,46,96,3
26624,note_on,,,,,0,0,5,,,34,96,4
26624,note_off,,,,,1024,0,5,,,27,0,4
26624,note_off,,,,,256,0,1,,,63,0,0
26624,note_on,,,,,0,0,1,,,67,96,0
27136,note_off,,,,,512,0,1,,,67,0,0
27136,note_on,,,,,0,0,1,,,65,96,0
27648,note_off,,,,,1024,0,4,,,46,0,3
27648,note_on,,,,,0,0,4,,,50,96,3
27648,note_off,,,,,512,0,1,,,65,0,0
27648,note_on,,,,,0,0,5,,,38,96,4
27648,note_off,,,,,1024,0,5,,,34,0,4
28160,note_on,,,,,512,0,1,,,58,96,0
28672,note_off,,,,,1024,0,4,,,50,0,3
28672,note_on,,,,,0,0,4,,,51,96,3
28672,note_on,,,,,0,0,5,,,39,96,4
28672,note_off,,,,,1024,0,5,,,38,0,4
28672,note_off,,,,,512,0,1,,,58,0,0
28672,note_on,,,,,0,0,1,,,67,96,0
29184,note_off,,,,,512,0,1,,,67,0,0
29184,note_on,,,,,0,0,1,,,69,96,0
29696,note_off,,,,,1024,0,4,,,51,0,3
29696,note_on,,,,,0,0,4,,,50,96,3
29696,note_off,,,,,1024,0,5,,,39,0,4
29696,note_on,,,,,0,0,5,,,38,96,4
30208,note_off,,,,,1024,0,1,,,69,0,0
30208,note_on,,,,,0,0,1,,,70,96,0
30720,note_off,,,,,1024,0,4,,,50,0,3
30720,note_on,,,,,0,0,4,,,48,96,3
30720,note_on,,,,,0,0,5,,,36,96,4
30720,note_off,,,,,512,0,1,,,70,0,0
30720,note_on,,,,,0,0,1,,,63,96,0
30720,note_off,,,,,1024,0,5,,,38,0,4
30976,note_off,,,,,256,0,1,,,63,0,0
30976,note_on,,,,,0,0,1,,,62,96,0
31232,note_off,,,,,256,0,1,,,62,0,0
31232,note_on,,,,,0,0,1,,,63,96,0
31744,note_on,,,,,0,0,5,,,39,96,4
31744,note_off,,,,,1024,0,5,,,36,0,4
31744,note_on,,,,,0,0,4,,,51,96,3
31744,note_off,,,,,512,0,1,,,63,0,0
31744,note_off,,,,,1024,0,4,,,48,0,3
32256,note_on,,,,,512,0,1,,,60,96,0
32768,note_on,,,,,0,0,4,,,53,96,3
32768,note_off,,,,,1024,0,4,,,51,0,3
32768,note_off,,,,,1024,0,5,,,39,0,4
32768,note_on,,,,,0,0,5,,,41,96,4
32768,note_off,,,,,512,0,1,,,60,0,0
32768,note_on,,,,,0,0,1,,,69,96,0
33280,note_on,,,,,0,0,1,,,70,96,0
33280,note_off,,,,,512,0,1,,,69,0,0
33792,note_on,,,,,0,0,5,,,43,96,4
33792,note_off,,,,,1024,0,5,,,41,0,4
33792,note_off,,,,,1024,0,4,,,53,0,3
33792,note_on,,,,,0,0,4,,,55,96,3
34304,note_on,,,,,0,0,1,,,72,96,0
34304,note_off,,,,,1024,0,1,,,70,0,0
34816,note_off,,,,,1024,0,5,,,43,0,4
34816,note_off,,,,,1024,0,4,,,55,0,3
34816,note_off,,,,,512,0,1,,,72,0,0
34816,note_on,,,,,0,0,1,,,63,96,0
34816,note_on,,,,,0,0,5,,,45,96,4
34816,note_on,,,,,0,0,4,,,57,96,3
35072,note_off,,,,,256,0,1,,,63,0,0
35072,note_on,,,,,0,0,1,,,62,96,0
35328,note_off,,,,,256,0,1,,,62,0,0
35328,note_on,,,,,0,0,1,,,63,96,0
35840,note_on,,,,,0,0,5,,,41,96,4
35840,note_off,,,,,512,0,1,,,63,0,0
35840,note_on,,,,,0,0,4,,,53,96,3
35840,note_off,,,,,1024,0,4,,,57,0,3
35840,note_off,,,,,1024,0,5,,,45,0,4
36352,note_on,,,,,512,0,1,,,75,96,0
36864,note_on,,,,,0,0,4,,,58,96,3
36864,note_off,,,,,1024,0,4,,,53,0,3
36864,note_off,,,,,1024,0,5,,,41,0,4
36864,note_on,,,,,0,0,5,,,46,96,4
36864,note_off,,,,,512,0,1,,,75,0,0
36864,note_on,,,,,0,0,1,,,74,96,0
37120,note_on,,,,,0,0,1,,,72,96,0
37120,note_off,,,,,256,0,1,,,74,0,0
37376,note_on,,,,,0,0,1,,,70,96,0
37376,note_off,,,,,256,0,1,,,72,0,0
37888,note_on,,,,,0,0,4,,,57,96,3
37888,note_off,,,,,1024,0,5,,,46,0,4
37888,note_on,,,,,0,0,5,,,45,96,4
37888,note_on,,,,,0,0,1,,,70,96,0
37888,note_off,,,,,1024,0,4,,,58,0,3
37888,note_off,,,,,512,0,1,,,70,0,0
38144,note_off,,,,,256,0,1,,,70,0,0
38144,note_on,,,,,0,0,1,,,69,96,0
38400,note_off,,,,,256,0,1,,,69,0,0
38400,note_on,,,,,0,0,1,,,70,96,0
38912,note_off,,,,,1024,0,5,,,45,0,4
38912,note_on,,,,,0,0,4,,,55,96,3
38912,note_on,,,,,0,0,5,,,43,96,4
38912,note_off,,,,,1024,0,4,,,57,0,3
39168,note_off,,,,,768,0,1,,,70,0,0
39168,note_on,,,,,0,0,1,,,69,96,0
39424,note_off,,,,,256,0,1,,,69,0,0
39424,note_on,,,,,0,0,1,,,67,96,0
39680,note_off,,,,,256,0,1,,,67,0,0
39680,note_on,,,,,0,0,1,,,65,96,0
39936,note_on,,,,,0,0,1,,,63,96,0
39936,note_off,,,,,1024,0,4,,,55,0,3
39936,note_on,,,,,0,0,4,,,53,96,3
39936,note_off,,,,,256,0,1,,,65,0,0
39936,note_off,,,,,1024,0,5,,,43,0,4
39936,note_on,,,,,0,0,5,,,41,96,4
40192,note_on,,,,,0,0,1,,,62,96,0
40192,note_off,,,,,256,0,1,,,63,0,0
40448,note_on,,,,,0,0,1,,,60,96,0
40448,note_off,,,,,256,0,1,,,62,0,0
40704,note_on,,,,,0,0,1,,,58,96,0
40704,note_off,,,,,256,0,1,,,60,0,0
40960,note_on,,,,,0,0,5,,,39,96,4
40960,note_on,,,,,0,0,4,,,51,96,3
40960,note_off,,,,,1024,0,4,,,53,0,3
40960,note_off,,,,,256,0,1,,,58,0,0
40960,note_on,,,,,0,0,1,,,60,96,0
40960,note_off,,,,,1024,0,5,,,41,0,4
41216,note_on,,,,,0,0,1,,,62,96,0
41216,note_off,,,,,256,0,1,,,60,0,0
41472,note_off,,,,,256,0,1,,,62,0,0
41472,note_on,,,,,0,0,1,,,63,96,0
41984,note_on,,,,,0,0,5,,,38,96,4
41984,note_on,,,,,0,0,4,,,50,96,3
41984,note_off,,,,,1024,0,5,,,39,0,4
41984,note_off,,,,,1024,0,4,,,51,0,3
41984,note_off,,,,,512,0,1,,,63,0,0
41984,note_on,,,,,0,0,1,,,63,96,0
42240,note_on,,,,,0,0,1,,,62,96,0
42240,note_off,,,,,256,0,1,,,63,0,0
42496,note_off,,,,,256,0,1,,,62,0,0
42496,note_on,,,,,0,0,1,,,63,96,0
43008,note_on,,,,,0,0,4,,,48,96,3
43008,note_off,,,,,1024,0,4,,,50,0,3
43008,note_off,,,,,1024,0,5,,,38,0,4
43008,note_on,,,,,0,0,5,,,36,96,4
43264,note_off,,,,,768,0,1,,,63,0,0
43264,note_on,,,,,0,0,1,,,69,96,0
43520,note_on,,,,,0,0,1,,,70,96,0
43520,note_off,,,,,256,0,1,,,69,0,0
43776,note_off,,,,,256,0,1,,,70,0,0
43776,note_on,,,,,0,0,1,,,72,96,0
44032,note_on,,,,,0,0,5,,,39,96,4
44032,note_off,,,,,256,0,1,,,72,0,0
44032,note_on,,,,,0,0,1,,,70,96,0
44032,note_off,,,,,1024,0,4,,,48,0,3
44032,note_on,,,,,0,0,4,,,51,96,3
44032,note_off,,,,,1024,0,5,,,36,0,4
44288,note_off,,,,,256,0,1,,,70,0,0
44288,note_on,,,,,0,0,1,,,69,96,0
44544,note_off,,,,,256,0,1,,,69,0,0
44544,note_on,,,,,0,0,1,,,67,96,0
44800,note_off,,,,,256,0,1,,,67,0,0
44800,note_on,,,,,0,0,1,,,65,96,0
45056,note_on,,,,,0,0,1,,,70,96,0
45056,note_on,,,,,0,0,4,,,50,96,3
45056,note_off,,,,,1024,0,4,,,51,0,3
45056,note_on,,,,,0,0,5,,,38,96,4
45056,note_off,,,,,1024,0,5,,,39,0,4
45056,note_off,,,,,256,0,1,,,65,0,0
45568,note_off,,,,,512,0,1,,,70,0,0
45568,note_on,,,,,0,0,1,,,65,96,0
45568,note_off,,,,,512,0,4,,,50,0,3
45568,note_on,,,,,0,0,5,,,34,96,4
45568,note_off,,,,,512,0,5,,,38,0,4
45568,note_on,,,,,0,0,4,,,46,96,3
46080,note_off,,,,,512,0,4,,,46,0,3
46080,note_on,,,,,0,0,5,,,41,96,4
46080,note_off,,,,,512,0,1,,,65,0,0
46080,note_on,,,,,0,0,1,,,62,96,0
46080,note_off,,,,,512,0,5,,,34,0,4
46080,note_on,,,,,0,0,4,,,53,96,3
46592,note_off,,,,,512,0,5,,,41,0,4
46592,note_on,,,,,0,0,5,,,29,96,4
46592,note_off,,,,,512,0,1,,,62,0,0
46592,note_on,,,,,0,0,1,,,60,96,0
46592,note_on,,,,,0,0,4,,,41,96,3
46592,note_off,,,,,512,0,4,,,53,0,3
46848,note_on,,,,,0,0,1,,,58,96,0
46848,note_off,,,,,256,0,1,,,60,0,0
47104,note_off,,,,,512,0,5,,,29,0,4
47104,note_on,,,,,0,0,5,,,31,96,4
47104,note_off,,,,,512,0,4,,,41,0,3
47104,note_on,,,,,0,0,4,,,43,96,3
47104,note_on,,,,,0,0,1,,,58,96,0
47104,note_off,,,,,256,0,1,,,58,0,0
47360,note_on,,,,,0,0,1,,,63,96,0
47360,note_off,,,,,256,0,1,,,58,0,0
47616,note_on,,,,,0,0,5,,,33,96,4
47616,note_on,,,,,0,0,1,,,62,96,0
47616,note_off,,,,,256,0,1,,,63,0,0
47616,note_off,,,,,512,0,5,,,31,0,4
47616,note_on,,,,,0,0,4,,,45,96,3
47616,note_off,,,,,512,0,4,,,43,0,3
47872,note_on,,,,,0,0,1,,,60,96,0
47872,note_off,,,,,256,0,1,,,62,0,0
48128,note_off,,,,,512,0,5,,,33,0,4
48128,note_on,,,,,0,0,4,,,46,96,3
48128,note_off,,,,,512,0,4,,,45,0,3
48128,note_on,,,,,0,0,1,,,62,96,0
48128,note_off,,,,,256,0,1,,,60,0,0
48128,note_on,,,,,0,0,5,,,34,96,4
48640,note_off,,,,,512,0,1,,,62,0,0
48640,note_on,,,,,0,0,4,,,38,96,3
48640,note_on,,,,,0,0,1,,,58,96,0
48640,note_off,,,,,512,0,4,,,46,0,3
48640,note_off,,,,,512,0,5,,,34,0,4
48640,note_on,,,,,0,0,5,,,26,96,4
49152,note_off,,,,,512,0,1,,,58,0,0
49152,note_on,,,,,0,0,1,,,55,96,0
49152,note_on,,,,,0,0,4,,,39,96,3
49152,note_off,,,,,512,0,4,,,38,0,3
49152,note_on,,,,,0,0,5,,,27,96,4
49152,note_off,,,,,512,0,5,,,26,0,4
49664,note_on,,,,,0,0,4,,,36,96,3
49664,note_off,,,,,512,0,5,,,27,0,4
49664,note_on,,,,,0,0,5,,,24,96,4
49664,note_off,,,,,512,0,4,,,39,0,3
49920,note_on,,,,,0,0,1,,,57,96,0
49920,note_off,,,,,768,0,1,,,55,0,0
50176,note_on,,,,,0,0,4,,,41,96,3
50176,note_off,,,,,512,0,4,,,36,0,3
50176,note_off,,,,,512,0,5,,,24,0,4
50176,note_on,,,,,0,0,5,,,29,96,4
50176,note_on,,,,,0,0,1,,,57,96,0
50176,note_off,,,,,256,0,1,,,57,0,0
50944,note_on,,,,,0,0,1,,,55,96,0
50944,note_off,,,,,768,0,1,,,57,0,0
51072,note_on,,,,,0,0,1,,,57,96,0
51072,note_off,,,,,128,0,1,,,55,0,0
51200,note_on,,,,,0,0,1,,,58,96,0
51200,note_off,,,,,128,0,1,,,57,0,0
51200,note_off,,,,,1024,0,4,,,41,0,3
51200,note_on,,,,,0,0,5,,,34,96,4
51200,note_off,,,,,1024,0,5,,,29,0,4
51200,note_on,,,,,0,0,4,,,46,96,3
51712,note_off,,,,,512,0,5,,,34,0,4
51712,note_off,,,,,512,0,4,,,46,0,3
51712,note_on,,,,,0,0,4,,,48,96,3
51712,note_on,,,,,0,0,5,,,36,96,4
52224,note_off,,,,,1024,0,1,,,58,0,0
52224,note_off,,,,,512,0,5,,,36,0,4
52224,note_on,,,,,0,0,5,,,34,96,4
52224,note_off,,,,,512,0,4,,,48,0,3
52224,note_on,,,,,0,0,4,,,46,96,3
52736,note_off,,,,,512,0,4,,,46,0,3
52736,note_off,,,,,512,0,5,,,34,0,4
52736,note_on,,,,,0,0,5,,,32,96,4
52736,note_on,,,,,0,0,4,,,44,96,3
52736,note_on,,,,,512,0,1,,,58,96,0
53248,note_off,,,,,512,0,5,,,32,0,4
53248,note_on,,,,,0,0,5,,,31,96,4
53248,note_on,,,,,0,0,4,,,43,96,3
53248,note_on,,,,,0,0,1,,,63,96,0
53248,note_off,,,,,512,0,1,,,58,0,0
53248,note_off,,,,,512,0,4,,,44,0,3
53504,note_off,,,,,256,0,1,,,63,0,0
53504,note_on,,,,,0,0,1,,,65,96,0
53760,note_on,,,,,0,0,5,,,29,96,4
53760,note_off,,,,,512,0,5,,,31,0,4
53760,note_off,,,,,256,0,1,,,65,0,0
53760,note_on,,,,,0,0,1,,,67,96,0
53760,note_on,,,,,0,0,4,,,41,96,3
53760,note_off,,,,,512,0,4,,,43,0,3
54272,note_on,,,,,0,0,4,,,39,96,3
54272,note_off,,,,,512,0,4,,,41,0,3
54272,note_on,,,,,0,0,1,,,67,96,0
54272,note_off,,,,,512,0,1,,,67,0,0
54272,note_off,,,,,512,0,5,,,29,0,4
54272,note_on,,,,,0,0,5,,,27,96,4
54784,note_on,,,,,0,0,4,,,38,96,3
54784,note_off,,,,,512,0,4,,,39,0,3
54784,note_off,,,,,512,0,5,,,27,0,4
54784,note_on,,,,,0,0,5,,,26,96,4
54784,note_off,,,,,512,0,1,,,67,0,0
54784,note_on,,,,,0,0,1,,,65,96,0
55296,note_off,,,,,512,0,1,,,65,0,0
55296,note_off,,,,,512,0,4,,,38,0,3
55296,note_on,,,,,55296,0,2,,,51,96,1
55296,note_off,,,,,512,0,5,,,26,0,4
55296,note_on,,,,,55296,0,3,,,51,96,2
55296,note_on,,,,,0,0,4,,,36,96,3
55296,note_on,,,,,0,0,1,,,68,96,0
55296,note_on,,,,,0,0,5,,,24,96,4
55808,note_on,,,,,0,0,1,,,67,96,0
55808,note_off,,,,,512,0,1,,,68,0,0
56320,note_on,,,,,0,0,2,,,55,96,1
56320,note_off,,,,,1024,0,4,,,36,0,3
56320,note_on,,,,,0,0,4,,,48,96,3
56320,note_off,,,,,1024,0,3,,,51,0,2
56320,note_on,,,,,0,0,3,,,55,96,2
56320,note_off,,,,,1024,0,5,,,24,0,4
56320,note_on,,,,,0,0,5,,,36,96,4
56320,note_off,,,,,512,0,1,,,67,0,0
56320,note_off,,,,,1024,0,2,,,51,0,1
56320,note_on,,,,,0,0,1,,,58,96,0
56832,note_on,,,,,0,0,1,,,56,96,0
56832,note_off,,,,,512,0,1,,,58,0,0
57344,note_on,,,,,0,0,5,,,31,96,4
57344,note_off,,,,,1024,0,5,,,36,0,4
57344,note_off,,,,,1024,0,3,,,55,0,2
57344,note_on,,,,,0,0,3,,,58,96,2
57344,note_off,,,,,512,0,1,,,56,0,0
57344,note_on,,,,,0,0,1,,,67,96,0
57344,note_on,,,,,0,0,2,,,58,96,1
57344,note_off,,,,,1024,0,2,,,55,0,1
57344,note_off,,,,,1024,0,4,,,48,0,3
57344,note_on,,,,,0,0,4,,,43,96,3
57600,note_off,,,,,256,0,1,,,67,0,0
57600,note_on,,,,,0,0,1,,,63,96,0
57856,note_on,,,,,0,0,1,,,65,96,0
57856,note_off,,,,,256,0,1,,,63,0,0
58368,note_on,,,,,0,0,5,,,34,96,4
58368,note_off,,,,,1024,0,5,,,31,0,4
58368,note_on,,,,,0,0,1,,,56,96,0
58368,note_off,,,,,1024,0,4,,,43,0,3
58368,note_off,,,,,1024,0,2,,,58,0,1
58368,note_on,,,,,0,0,2,,,58,96,1
58368,note_on,,,,,0,0,3,,,58,96,2
58368,note_off,,,,,1024,0,3,,,58,0,2
58368,note_on,,,,,0,0,4,,,46,96,3
58368,note_off,,,,,512,0,1,,,65,0,0
58880,note_off,,,,,512,0,1,,,56,0,0
58880,note_on,,,,,0,0,1,,,55,96,0
59392,note_on,,,,,0,0,3,,,58,96,2
59392,note_on,,,,,0,0,1,,,62,96,0
59392,note_off,,,,,1024,0,2,,,58,0,1
59392,note_off,,,,,1024,0,5,,,34,0,4
59392,note_off,,,,,1024,0,4,,,46,0,3
59392,note_on,,,,,0,0,2,,,58,96,1
59392,note_off,,,,,1024,0,3,,,58,0,2
59392,note_off,,,,,512,0,1,,,55,0,0
59392,note_on,,,,,0,0,5,,,27,96,4
59392,note_on,,,,,0,0,4,,,39,96,3
59904,note_on,,,,,0,0,1,,,63,96,0
59904,note_off,,,,,512,0,1,,,62,0,0
60416,note_off,,,,,1024,0,3,,,58,0,2
60416,note_on,,,,,0,0,3,,,58,96,2
60416,note_on,,,,,0,0,2,,,58,96,1
60416,note_off,,,,,1024,0,2,,,58,0,1
60416,note_on,,,,,0,0,5,,,31,96,4
60416,note_off,,,,,512,0,1,,,63,0,0
60416,note_off,,,,,1024,0,4,,,39,0,3
60416,note_on,,,,,0,0,4,,,43,96,3
60416,note_off,,,,,1024,0,5,,,27,0,4
60928,note_on,,,,,512,0,1,,,58,96,0
61440,note_off,,,,,1024,0,3,,,58,0,2
61440,note_off,,,,,512,0,1,,,58,0,0
61440,note_on,,,,,0,0,1,,,63,96,0
61440,note_off,,,,,1024,0,5,,,31,0,4
61440,note_on,,,,,0,0,5,,,32,96,4
61440,note_on,,,,,0,0,3,,,60,96,2
61440,note_off,,,,,1024,0,4,,,43,0,3
61440,note_off,,,,,1024,0,2,,,58,0,1
61440,note_on,,,,,0,0,2,,,60,96,1
61440,note_on,,,,,0,0,4,,,44,96,3
61696,note_off,,,,,256,0,1,,,63,0,0
61696,note_on,,,,,0,0,1,,,65,96,0
61952,note_off,,,,,256,0,1,,,65,0,0
61952,note_on,,,,,0,0,1,,,67,96,0
62464,note_off,,,,,1024,0,4,,,44,0,3
62464,note_on,,,,,0,0,5,,,44,96,4
62464,note_on,,,,,0,0,1,,,67,96,0
62464,note_on,,,,,0,0,4,,,56,96,3
62464,note_off,,,,,1024,0,5,,,32,0,4
62464,note_off,,,,,512,0,1,,,67,0,0
62976,note_on,,,,,0,0,1,,,65,96,0
62976,note_off,,,,,512,0,1,,,67,0,0
63488,note_off,,,,,512,0,1,,,65,0,0
63488,note_on,,,,,0,0,1,,,68,96,0
63488,note_on,,,,,0,0,4,,,50,96,3
63488,note_off,,,,,2048,0,3,,,60,0,2
63488,note_off,,,,,2048,0,2,,,60,0,1
63488,note_on,,,,,0,0,2,,,58,96,1
63488,note_off,,,,,1024,0,5,,,44,0,4
63488,note_on,,,,,0,0,5,,,38,96,4
63488,note_on,,,,,0,0,3,,,58,96,2
63488,note_off,,,,,1024,0,4,,,56,0,3
64000,note_off,,,,,512,0,1,,,68,0,0
64000,note_on,,,,,0,0,1,,,67,96,0
64512,note_on,,,,,0,0,1,,,58,96,0
64512,note_on,,,,,0,0,4,,,51,96,3
64512,note_off,,,,,1024,0,4,,,50,0,3
64512,note_off,,,,,512,0,1,,,67,0,0
64512,note_on,,,,,0,0,5,,,39,96,4
64512,note_off,,,,,1024,0,5,,,38,0,4
65024,note_off,,,,,512,0,1,,,58,0,0
65024,note_on,,,,,0,0,1,,,56,96,0
65536,note_off,,,,,2048,0,3,,,58,0,2
65536,note_on,,,,,0,0,5,,,36,96,4
65536,note_off,,,,,1024,0,4,,,51,0,3
65536,note_on,,,,,0,0,4,,,48,96,3
65536,note_off,,,,,1024,0,5,,,39,0,4
65536,note_off,,,,,512,0,1,,,56,0,0
65536,note_on,,,,,0,0,1,,,67,96,0
65536,note_off,,,,,2048,0,2,,,58,0,1
65792,note_off,,,,,256,0,1,,,67,0,0
65792,note_on,,,,,0,0,1,,,63,96,0
66048,note_off,,,,,256,0,1,,,63,0,0
66048,note_on,,,,,0,0,1,,,65,96,0
66560,note_off,,,,,512,0,1,,,65,0,0
66560,note_off,,,,,1024,0,5,,,36,0,4
66560,note_on,,,,,0,0,5,,,38,96,4
66560,note_on,,,,,0,0,4,,,50,96,3
66560,note_off,,,,,1024,0,4,,,48,0,3
66560,note_on,,,,,0,0,1,,,56,96,0
67072,note_off,,,,,512,0,1,,,56,0,0
67072,note_on,,,,,0,0,1,,,55,96,0
67584,note_off,,,,,1024,0,5,,,38,0,4
67584,note_on,,,,,0,0,5,,,39,96,4
67584,note_off,,,,,1024,0,4,,,50,0,3
67584,note_on,,,,,0,0,1,,,62,96,0
67584,note_off,,,,,512,0,1,,,55,0,0
67584,note_on,,,,,0,0,4,,,51,96,3
68096,note_on,,,,,0,0,1,,,63,96,0
68096,note_off,,,,,512,0,1,,,62,0,0
68608,note_off,,,,,1024,0,4,,,51,0,3
68608,note_on,,,,,3072,0,2,,,58,96,1
68608,note_on,,,,,0,0,5,,,38,96,4
68608,note_off,,,,,512,0,1,,,63,0,0
68608,note_off,,,,,1024,0,5,,,39,0,4
68608,note_on,,,,,0,0,4,,,50,96,3
68608,note_on,,,,,3072,0,3,,,58,96,2
69120,note_on,,,,,512,0,1,,,65,96,0
69632,note_off,,,,,1024,0,3,,,58,0,2
69632,note_off,,,,,1024,0,2,,,58,0,1
69632,note_on,,,,,0,0,2,,,63,96,1
69632,note_on,,,,,0,0,3,,,63,96,2
69632,note_on,,,,,0,0,5,,,36,96,4
69632,note_off,,,,,512,0,1,,,65,0,0
69632,note_on,,,,,0,0,1,,,67,96,0
69632,note_off,,,,,1024,0,5,,,38,0,4
69632,note_off,,,,,1024,0,4,,,50,0,3
69632,note_on,,,,,0,0,4,,,48,96,3
70144,note_on,,,,,0,0,1,,,69,96,0
70144,note_off,,,,,512,0,1,,,67,0,0
70656,note_on,,,,,0,0,5,,,31,96,4
70656,note_off,,,,,1024,0,5,,,36,0,4
70656,note_off,,,,,1024,0,4,,,48,0,3
70656,note_on,,,,,0,0,4,,,43,96,3
70656,note_off,,,,,1024,0,2,,,63,0,1
70656,note_on,,,,,0,0,2,,,58,96,1
70656,note_on,,,,,0,0,3,,,58,96,2
70656,note_off,,,,,1024,0,3,,,63,0,2
71168,note_off,,,,,1024,0,1,,,69,0,0
71168,note_on,,,,,0,0,1,,,70,96,0
71680,note_on,,,,,0,0,5,,,36,96,4
71680,note_off,,,,,1024,0,5,,,31,0,4
71680,note_off,,,,,1024,0,4,,,43,0,3
71680,note_on,,,,,0,0,4,,,48,96,3
71680,note_off,,,,,1024,0,2,,,58,0,1
71680,note_on,,,,,0,0,2,,,63,96,1
71680,note_off,,,,,512,0,1,,,70,0,0
71680,note_off,,,,,1024,0,3,,,58,0,2
71680,note_on,,,,,0,0,3,,,63,96,2
71680,note_on,,,,,0,0,1,,,63,96,0
71936,note_off,,,,,256,0,1,,,63,0,0
71936,note_on,,,,,0,0,1,,,62,96,0
72192,note_on,,,,,0,0,2,,,65,96,1
72192,note_on,,,,,0,0,5,,,38,96,4
72192,note_off,,,,,512,0,5,,,36,0,4
72192,note_on,,,,,0,0,3,,,65,96,2
72192,note_off,,,,,256,0,1,,,62,0,0
72192,note_on,,,,,0,0,1,,,63,96,0
72192,note_off,,,,,512,0,3,,,63,0,2
72192,note_off,,,,,512,0,4,,,48,0,3
72192,note_on,,,,,0,0,4,,,50,96,3
72192,note_off,,,,,512,0,2,,,63,0,1
72704,note_off,,,,,512,0,4,,,50,0,3
72704,note_on,,,,,0,0,4,,,51,96,3
72704,note_on,,,,,0,0,5,,,39,96,4
72704,note_on,,,,,0,0,2,,,67,96,1
72704,note_off,,,,,512,0,5,,,38,0,4
72704,note_off,,,,,512,0,2,,,65,0,1
72704,note_off,,,,,512,0,3,,,65,0,2
72704,note_on,,,,,0,0,3,,,67,96,2
72704,note_off,,,,,512,0,1,,,63,0,0
73216,note_on,,,,,512,0,1,,,63,96,0
73728,note_off,,,,,1024,0,2,,,67,0,1
73728,note_off,,,,,512,0,1,,,63,0,0
73728,note_on,,,,,0,0,1,,,69,96,0
73728,note_on,,,,,0,0,3,,,65,96,2
73728,note_off,,,,,1024,0,3,,,67,0,2
73728,note_on,,,,,0,0,2,,,65,96,1
74240,note_on,,,,,0,0,5,,,38,96,4
74240,note_off,,,,,1536,0,5,,,39,0,4
74240,note_on,,,,,0,0,4,,,50,96,3
74240,note_off,,,,,1536,0,4,,,51,0,3
74240,note_off,,,,,512,0,1,,,69,0,0
74240,note_on,,,,,0,0,1,,,70,96,0
74752,note_off,,,,,512,0,5,,,38,0,4
74752,note_on,,,,,0,0,5,,,31,96,4
74752,note_on,,,,,0,0,4,,,43,96,3
74752,note_off,,,,,512,0,4,,,50,0,3
75264,note_on,,,,,0,0,4,,,45,96,3
75264,note_on,,,,,0,0,1,,,72,96,0
75264,note_off,,,,,1024,0,1,,,70,0,0
75264,note_on,,,,,0,0,2,,,63,96,1
75264,note_off,,,,,512,0,5,,,31,0,4
75264,note_on,,,,,0,0,5,,,33,96,4
75264,note_off,,,,,1536,0,2,,,65,0,1
75264,note_off,,,,,1536,0,3,,,65,0,2
75264,note_on,,,,,0,0,3,,,63,96,2
75264,note_off,,,,,512,0,4,,,43,0,3
75776,note_off,,,,,512,0,4,,,45,0,3
75776,note_on,,,,,0,0,5,,,34,96,4
75776,note_on,,,,,0,0,4,,,46,96,3
75776,note_on,,,,,0,0,2,,,62,96,1
75776,note_off,,,,,512,0,2,,,63,0,1
75776,note_off,,,,,512,0,1,,,72,0,0
75776,note_on,,,,,0,0,1,,,65,96,0
75776,note_on,,,,,0,0,3,,,62,96,2
75776,note_off,,,,,512,0,5,,,33,0,4
75776,note_off,,,,,512,0,3,,,63,0,2
76032,note_off,,,,,256,0,1,,,65,0,0
76032,note_on,,,,,0,0,1,,,63,96,0
76288,note_on,,,,,0,0,4,,,38,96,3
76288,note_off,,,,,512,0,4,,,46,0,3
76288,note_on,,,,,0,0,1,,,65,96,0
76288,note_off,,,,,256,0,1,,,63,0,0
76288,note_off,,,,,512,0,5,,,34,0,4
76288,note_on,,,,,0,0,5,,,26,96,4
76800,note_off,,,,,512,0,4,,,38,0,3
76800,note_off,,,,,512,0,1,,,65,0,0
76800,note_on,,,,,0,0,2,,,60,96,1
76800,note_off,,,,,1024,0,2,,,62,0,1
76800,note_off,,,,,1024,0,3,,,62,0,2
76800,note_on,,,,,0,0,4,,,39,96,3
76800,note_on,,,,,0,0,3,,,60,96,2
76800,note_on,,,,,0,0,5,,,27,96,4
76800,note_off,,,,,512,0,5,,,26,0,4
77312,note_on,,,,,0,0,4,,,41,96,3
77312,note_on,,,,,0,0,5,,,29,96,4
77312,note_off,,,,,512,0,5,,,27,0,4
77312,note_off,,,,,512,0,4,,,39,0,3
77568,note_off,,,,,768,0,3,,,60,0,2
77568,note_on,,,,,0,0,3,,,58,96,2
77568,note_on,,,,,0,0,2,,,58,96,1
77568,note_off,,,,,768,0,2,,,60,0,1
77696,note_off,,,,,128,0,3,,,58,0,2
77696,note_on,,,,,0,0,3,,,60,96,2
77696,note_on,,,,,0,0,2,,,60,96,1
77696,note_off,,,,,128,0,2,,,58,0,1
77824,note_on,,,,,0,0,3,,,58,96,2
77824,note_off,,,,,512,0,4,,,41,0,3
77824,note_off,,,,,128,0,2,,,60,0,1
77824,note_on,,,,,0,0,4,,,46,96,3
77824,note_off,,,,,512,0,5,,,29,0,4
77824,note_on,,,,,0,0,5,,,34,96,4
77824,note_on,,,,,0,0,2,,,58,96,1
77824,note_off,,,,,128,0,3,,,60,0,2
78336,note_on,,,,,0,0,4,,,45,96,3
78336,note_off,,,,,512,0,4,,,46,0,3
78336,note_on,,,,,0,0,5,,,33,96,4
78336,note_off,,,,,512,0,5,,,34,0,4
78848,note_on,,,,,0,0,4,,,46,96,3
78848,note_off,,,,,512,0,4,,,45,0,3
78848,note_on,,,,,0,0,5,,,34,96,4
78848,note_off,,,,,512,0,5,,,33,0,4
79360,note_on,,,,,0,0,4,,,48,96,3
79360,note_off,,,,,512,0,4,,,46,0,3
79360,note_on,,,,,2560,0,1,,,70,96,0
79360,note_on,,,,,0,0,5,,,36,96,4
79360,note_off,,,,,512,0,5,,,34,0,4
79872,note_off,,,,,2048,0,3,,,58,0,2
79872,note_off,,,,,512,0,1,,,70,0,0
79872,note_on,,,,,0,0,1,,,70,96,0
79872,note_on,,,,,0,0,4,,,50,96,3
79872,note_off,,,,,512,0,4,,,48,0,3
79872,note_off,,,,,512,0,5,,,36,0,4
79872,note_on,,,,,0,0,5,,,38,96,4
79872,note_off,,,,,2048,0,2,,,58,0,1
80384,note_off,,,,,512,0,5,,,38,0,4
80384,note_on,,,,,0,0,5,,,34,96,4
80384,note_off,,,,,512,0,4,,,50,0,3
80384,note_on,,,,,0,0,4,,,46,96,3
80896,note_on,,,,,0,0,5,,,39,96,4
80896,note_off,,,,,512,0,5,,,34,0,4
80896,note_on,,,,,0,0,4,,,51,96,3
80896,note_off,,,,,512,0,4,,,46,0,3
80896,note_off,,,,,1024,0,1,,,70,0,0
80896,note_on,,,,,0,0,1,,,68,96,0
81152,note_off,,,,,256,0,1,,,68,0,0
81152,note_on,,,,,0,0,1,,,67,96,0
81408,note_on,,,,,0,0,1,,,65,96,0
81408,note_off,,,,,256,0,1,,,67,0,0
81664,note_off,,,,,256,0,1,,,65,0,0
81664,note_on,,,,,0,0,1,,,63,96,0
81920,note_off,,,,,1024,0,5,,,39,0,4
81920,note_on,,,,,0,0,4,,,46,96,3
81920,note_on,,,,,0,0,5,,,34,96,4
81920,note_on,,,,,0,0,1,,,65,96,0
81920,note_off,,,,,256,0,1,,,63,0,0
81920,note_off,,,,,1024,0,4,,,51,0,3
82176,note_on,,,,,0,0,1,,,63,96,0
82176,note_off,,,,,256,0,1,,,65,0,0
82432,note_on,,,,,0,0,1,,,62,96,0
82432,note_off,,,,,256,0,1,,,63,0,0
82688,note_on,,,,,0,0,1,,,60,96,0
82688,note_off,,,,,256,0,1,,,62,0,0
82944,note_off,,,,,256,0,1,,,60,0,0
82944,note_on,,,,,3072,0,3,,,58,96,2
82944,note_on,,,,,0,0,1,,,58,96,0
82944,note_on,,,,,0,0,5,,,32,96,4
82944,note_off,,,,,1024,0,4,,,46,0,3
82944,note_off,,,,,1024,0,5,,,34,0,4
82944,note_on,,,,,0,0,4,,,44,96,3
82944,note_on,,,,,3072,0,2,,,58,96,1
83456,note_on,,,,,0,0,1,,,60,96,0
83456,note_off,,,,,512,0,1,,,58,0,0
83712,note_on,,,,,0,0,1,,,62,96,0
83712,note_off,,,,,256,0,1,,,60,0,0
83968,note_on,,,,,0,0,5,,,31,96,4
83968,note_off,,,,,1024,0,4,,,44,0,3
83968,note_on,,,,,0,0,4,,,43,96,3
83968,note_on,,,,,0,0,3,,,63,96,2
83968,note_off,,,,,1024,0,5,,,32,0,4
83968,note_off,,,,,256,0,1,,,62,0,0
83968,note_on,,,,,0,0,1,,,63,96,0
83968,note_on,,,,,0,0,2,,,63,96,1
83968,note_off,,,,,1024,0,3,,,58,0,2
83968,note_off,,,,,1024,0,2,,,58,0,1
84224,note_on,,,,,0,0,1,,,65,96,0
84224,note_off,,,,,256,0,1,,,63,0,0
84480,note_off,,,,,256,0,1,,,65,0,0
84480,note_on,,,,,0,0,1,,,67,96,0
84736,note_off,,,,,256,0,1,,,67,0,0
84736,note_on,,,,,0,0,1,,,65,96,0
84992,note_on,,,,,0,0,2,,,58,96,1
84992,note_on,,,,,0,0,5,,,27,96,4
84992,note_off,,,,,1024,0,5,,,31,0,4
84992,note_off,,,,,256,0,1,,,65,0,0
84992,note_on,,,,,0,0,1,,,68,96,0
84992,note_off,,,,,1024,0,3,,,63,0,2
84992,note_on,,,,,0,0,3,,,58,96,2
84992,note_on,,,,,0,0,4,,,39,96,3
84992,note_off,,,,,1024,0,4,,,43,0,3
84992,note_off,,,,,1024,0,2,,,63,0,1
85248,note_off,,,,,256,0,1,,,68,0,0
85248,note_on,,,,,0,0,1,,,67,96,0
85504,note_off,,,,,256,0,1,,,67,0,0
85504,note_on,,,,,0,0,1,,,65,96,0
85760,note_off,,,,,256,0,1,,,65,0,0
85760,note_on,,,,,0,0,1,,,63,96,0
86016,note_off,,,,,1024,0,3,,,58,0,2
86016,note_off,,,,,256,0,1,,,63,0,0
86016,note_on,,,,,0,0,3,,,60,96,2
86016,note_on,,,,,0,0,5,,,32,96,4
86016,note_off,,,,,1024,0,4,,,39,0,3
86016,note_on,,,,,0,0,4,,,44,96,3
86016,note_on,,,,,0,0,1,,,67,96,0
86016,note_off,,,,,1024,0,2,,,58,0,1
86016,note_on,,,,,0,0,2,,,60,96,1
86016,note_off,,,,,1024,0,5,,,27,0,4
86528,note_off,,,,,512,0,4,,,44,0,3
86528,note_on,,,,,0,0,1,,,65,96,0
86528,note_on,,,,,0,0,4,,,46,96,3
86528,note_off,,,,,512,0,1,,,67,0,0
86528,note_on,,,,,0,0,5,,,34,96,4
86528,note_off,,,,,512,0,5,,,32,0,4
87040,note_on,,,,,0,0,4,,,48,96,3
87040,note_off,,,,,512,0,4,,,46,0,3
87040,note_off,,,,,1024,0,3,,,60,0,2
87040,note_on,,,,,0,0,5,,,36,96,4
87040,note_off,,,,,512,0,5,,,34,0,4
87040,note_off,,,,,512,0,1,,,65,0,0
87040,note_on,,,,,0,0,3,,,55,96,2
87040,note_on,,,,,0,0,2,,,55,96,1
87040,note_off,,,,,1024,0,2,,,60,0,1
87552,note_on,,,,,0,0,2,,,56,96,1
87552,note_on,,,,,0,0,3,,,56,96,2
87552,note_off,,,,,512,0,2,,,55,0,1
87552,note_off,,,,,512,0,3,,,55,0,2
87808,note_off,,,,,256,0,3,,,56,0,2
87808,note_on,,,,,0,0,3,,,58,96,2
87808,note_off,,,,,256,0,2,,,56,0,1
87808,note_on,,,,,0,0,2,,,58,96,1
88064,note_on,,,,,0,0,2,,,56,96,1
88064,note_off,,,,,256,0,2,,,58,0,1
88064,note_on,,,,,0,0,5,,,29,96,4
88064,note_off,,,,,1024,0,4,,,48,0,3
88064,note_on,,,,,0,0,4,,,41,96,3
88064,note_on,,,,,0,0,3,,,56,96,2
88064,note_off,,,,,256,0,3,,,58,0,2
88064,note_off,,,,,1024,0,5,,,36,0,4
88576,note_on,,,,,0,0,3,,,55,96,2
88576,note_off,,,,,512,0,3,,,56,0,2
88576,note_off,,,,,512,0,2,,,56,0,1
88576,note_on,,,,,0,0,2,,,55,96,1
89088,note_on,,,,,0,0,4,,,46,96,3
89088,note_off,,,,,512,0,2,,,55,0,1
89088,note_on,,,,,0,0,2,,,53,96,1
89088,note_off,,,,,1024,0,4,,,41,0,3
89088,note_on,,,,,0,0,5,,,34,96,4
89088,note_on,,,,,0,0,3,,,53,96,2
89088,note_off,,,,,512,0,3,,,55,0,2
89088,note_off,,,,,1024,0,5,,,29,0,4
89600,note_on,,,,,0,0,4,,,44,96,3
89600,note_on,,,,,0,0,5,,,32,96,4
89600,note_off,,,,,512,0,5,,,34,0,4
89600,note_off,,,,,512,0,4,,,46,0,3
89600,note_on,,,,,2560,0,1,,,58,96,0
90112,note_off,,,,,512,0,4,,,44,0,3
90112,note_on,,,,,0,0,4,,,43,96,3
90112,note_on,,,,,0,0,5,,,31,96,4
90112,note_off,,,,,512,0,5,,,32,0,4
90112,note_on,,,,,0,0,3,,,51,96,2
90112,note_on,,,,,0,0,1,,,63,96,0
90112,note_off,,,,,512,0,1,,,58,0,0
90112,note_off,,,,,1024,0,2,,,53,0,1
90112,note_on,,,,,0,0,2,,,51,96,1
90112,note_off,,,,,1024,0,3,,,53,0,2
90368,note_off,,,,,256,0,1,,,63,0,0
90368,note_on,,,,,0,0,1,,,65,96,0
90624,note_on,,,,,0,0,1,,,67,96,0
90624,note_off,,,,,256,0,1,,,65,0,0
91136,note_on,,,,,0,0,5,,,39,96,4
91136,note_on,,,,,0,0,4,,,51,96,3
91136,note_off,,,,,1024,0,4,,,43,0,3
91136,note_on,,,,,0,0,1,,,67,96,0
91136,note_off,,,,,1024,0,5,,,31,0,4
91136,note_off,,,,,512,0,1,,,67,0,0
91648,note_on,,,,,0,0,1,,,65,96,0
91648,note_off,,,,,512,0,1,,,67,0,0
92160,note_on,,,,,0,0,4,,,50,96,3
92160,note_off,,,,,1024,0,4,,,51,0,3
92160,note_off,,,,,2048,0,3,,,51,0,2
92160,note_off,,,,,1024,0,5,,,39,0,4
92160,note_off,,,,,512,0,1,,,65,0,0
92160,note_on,,,,,0,0,5,,,38,96,4
92160,note_on,,,,,0,0,1,,,68,96,0
92160,note_off,,,,,2048,0,2,,,51,0,1
92672,note_on,,,,,0,0,1,,,67,96,0
92672,note_off,,,,,512,0,1,,,68,0,0
93184,note_on,,,,,0,0,1,,,58,96,0
93184,note_off,,,,,512,0,1,,,67,0,0
93184,note_on,,,,,0,0,4,,,51,96,3
93184,note_on,,,,,0,0,5,,,39,96,4
93184,note_off,,,,,1024,0,5,,,38,0,4
93184,note_off,,,,,1024,0,4,,,50,0,3
93696,note_off,,,,,512,0,1,,,58,0,0
93696,note_on,,,,,0,0,1,,,56,96,0
94208,note_off,,,,,1024,0,4,,,51,0,3
94208,note_on,,,,,0,0,5,,,32,96,4
94208,note_off,,,,,1024,0,5,,,39,0,4
94208,note_off,,,,,512,0,1,,,56,0,0
94208,note_on,,,,,0,0,1,,,67,96,0
94208,note_on,,,,,0,0,4,,,44,96,3
94464,note_on,,,,,0,0,1,,,63,96,0
94464,note_off,,,,,256,0,1,,,67,0,0
94720,note_off,,,,,256,0,1,,,63,0,0
94720,note_on,,,,,0,0,1,,,65,96,0
95232,note_on,,,,,0,0,4,,,46,96,3
95232,note_off,,,,,1024,0,4,,,44,0,3
95232,note_off,,,,,1024,0,5,,,32,0,4
95232,note_on,,,,,0,0,1,,,56,96,0
95232,note_off,,,,,512,0,1,,,65,0,0
95232,note_on,,,,,0,0,5,,,34,96,4
95744,note_on,,,,,0,0,1,,,55,96,0
95744,note_off,,,,,512,0,1,,,56,0,0
96256,note_on,,,,,0,0,4,,,39,96,3
96256,note_off,,,,,1024,0,5,,,34,0,4
96256,note_on,,,,,0,0,1,,,62,96,0
96256,note_off,,,,,512,0,1,,,55,0,0
96256,note_off,,,,,1024,0,4,,,46,0,3
96256,note_on,,,,,0,0,5,,,27,96,4
96768,note_off,,,,,512,0,1,,,62,0,0
96768,note_on,,,,,0,0,1,,,63,96,0
97280,note_off,,,,,1024,0,5,,,27,0,4
97280,note_off,,,,,1024,0,4,,,39,0,3
97280,note_off,,,,,512,0,1,,,63,0,0
97792,note_on,,,,,512,0,1,,,58,96,0
98304,note_on,,,,,1024,0,4,,,39,96,3
98304,note_on,,,,,1024,0,5,,,27,96,4
98304,note_on,,,,,0,0,1,,,63,96,0
98304,note_off,,,,,512,0,1,,,58,0,0
98560,note_on,,,,,0,0,1,,,65,96,0
98560,note_off,,,,,256,0,1,,,63,0,0
98816,note_on,,,,,0,0,1,,,67,96,0
98816,note_off,,,,,256,0,1,,,65,0,0
99328,note_off,,,,,512,0,1,,,67,0,0
99328,note_on,,,,,0,0,5,,,27,96,4
99328,note_on,,,,,0,0,1,,,67,96,0
99328,note_off,,,,,1024,0,5,,,27,0,4
99328,note_on,,,,,0,0,4,,,39,96,3
99328,note_off,,,,,1024,0,4,,,39,0,3
99840,note_off,,,,,512,0,1,,,67,0,0
99840,note_on,,,,,0,0,1,,,65,96,0
100352,note_off,,,,,1024,0,5,,,27,0,4
100352,note_on,,,,,0,0,5,,,27,96,4
100352,note_on,,,,,0,0,1,,,68,96,0
100352,note_off,,,,,1024,0,4,,,39,0,3
100352,note_on,,,,,0,0,4,,,39,96,3
100352,note_off,,,,,512,0,1,,,65,0,0
100864,note_off,,,,,512,0,1,,,68,0,0
100864,note_on,,,,,0,0,1,,,67,96,0
101376,note_on,,,,,0,0,1,,,58,96,0
101376,note_off,,,,,1024,0,4,,,39,0,3
101376,note_on,,,,,0,0,4,,,43,96,3
101376,note_on,,,,,0,0,5,,,31,96,4
101376,note_off,,,,,1024,0,5,,,27,0,4
101376,note_off,,,,,512,0,1,,,67,0,0
101888,note_on,,,,,0,0,1,,,56,96,0
101888,note_off,,,,,512,0,1,,,58,0,0
102400,note_off,,,,,1024,0,5,,,31,0,4
102400,note_on,,,,,0,0,1,,,67,96,0
102400,note_off,,,,,512,0,1,,,56,0,0
102400,note_on,,,,,0,0,4,,,44,96,3
102400,note_off,,,,,1024,0,4,,,43,0,3
102400,note_on,,,,,0,0,5,,,32,96,4
102656,note_on,,,,,0,0,1,,,63,96,0
102656,note_off,,,,,256,0,1,,,67,0,0
102912,note_on,,,,,0,0,1,,,65,96,0
102912,note_off,,,,,256,0,1,,,63,0,0
103424,note_on,,,,,0,0,4,,,46,96,3
103424,note_off,,,,,512,0,1,,,65,0,0
103424,note_on,,,,,0,0,1,,,56,96,0
103424,note_off,,,,,1024,0,5,,,32,0,4
103424,note_on,,,,,0,0,5,,,34,96,4
103424,note_off,,,,,1024,0,4,,,44,0,3
103936,note_off,,,,,512,0,1,,,56,0,0
103936,note_on,,,,,0,0,1,,,55,96,0
104448,note_off,,,,,512,0,1,,,55,0,0
104448,note_on,,,,,0,0,1,,,62,96,0
104448,note_on,,,,,0,0,4,,,39,96,3
104448,note_on,,,,,0,0,5,,,27,96,4
104448,note_off,,,,,1024,0,5,,,34,0,4
104448,note_off,,,,,1024,0,4,,,46,0,3
104960,note_on,,,,,0,0,1,,,63,96,0
104960,note_off,,,,,512,0,1,,,62,0,0
105472,note_off,,,,,1024,0,5,,,27,0,4
105472,note_off,,,,,1024,0,4,,,39,0,3
105472,note_off,,,,,512,0,1,,,63,0,0
105984,note_on,,,,,512,0,1,,,70,96,0
106496,note_on,,,,,1024,0,5,,,31,96,4
106496,note_on,,,,,1024,0,4,,,43,96,3
106496,note_on,,,,,0,0,1,,,70,96,0
106496,note_off,,,,,512,0,1,,,70,0,0
107520,note_off,,,,,1024,0,4,,,43,0,3
107520,note_on,,,,,0,0,5,,,36,96,4
107520,note_off,,,,,1024,0,5,,,31,0,4
107520,note_off,,,,,1024,0,1,,,70,0,0
107520,note_on,,,,,0,0,1,,,68,96,0
107520,note_on,,,,,0,0,4,,,48,96,3
107776,note_off,,,,,256,0,1,,,68,0,0
107776,note_on,,,,,0,0,1,,,67,96,0
108032,note_off,,,,,256,0,1,,,67,0,0
108032,note_on,,,,,0,0,1,,,65,96,0
108288,note_off,,,,,256,0,1,,,65,0,0
108288,note_on,,,,,0,0,1,,,63,96,0
108544,note_off,,,,,256,0,1,,,63,0,0
108544,note_on,,,,,0,0,1,,,65,96,0
108544,note_off,,,,,1024,0,4,,,48,0,3
108544,note_on,,,,,0,0,5,,,34,96,4
108544,note_off,,,,,1024,0,5,,,36,0,4
108544,note_on,,,,,0,0,4,,,46,96,3
108800,note_on,,,,,0,0,1,,,63,96,0
108800,note_off,,,,,256,0,1,,,65,0,0
109056,note_on,,,,,0,0,1,,,62,96,0
109056,note_off,,,,,256,0,1,,,63,0,0
109312,note_on,,,,,0,0,1,,,60,96,0
109312,note_off,,,,,256,0,1,,,62,0,0
109568,note_on,,,,,0,0,4,,,44,96,3
109568,note_off,,,,,1024,0,4,,,46,0,3
109568,note_off,,,,,1024,0,5,,,34,0,4
109568,note_on,,,,,0,0,5,,,32,96,4
109568,note_off,,,,,256,0,1,,,60,0,0
109568,note_on,,,,,0,0,1,,,58,96,0
110080,note_off,,,,,512,0,1,,,58,0,0
110080,note_on,,,,,0,0,1,,,60,96,0
110336,note_off,,,,,256,0,1,,,60,0,0
110336,note_on,,,,,0,0,1,,,62,96,0
110592,note_off,,,,,1024,0,4,,,44,0,3
110592,note_on,,,,,0,0,4,,,43,96,3
110592,note_on,,,,,0,0,5,,,31,96,4
110592,note_off,,,,,1024,0,5,,,32,0,4
110592,note_off,,,,,256,0,1,,,62,0,0
110592,note_on,,,,,0,0,1,,,63,96,0
110848,note_off,,,,,256,0,1,,,63,0,0
110848,note_on,,,,,0,0,1,,,65,96,0
111104,note_on,,,,,0,0,1,,,67,96,0
111104,note_off,,,,,256,0,1,,,65,0,0
111360,note_off,,,,,256,0,1,,,67,0,0
111360,note_on,,,,,0,0,1,,,65,96,0
111616,note_off,,,,,256,0,1,,,65,0,0
111616,note_on,,,,,0,0,1,,,68,96,0
111616,note_on,,,,,0,0,4,,,39,96,3
111616,note_off,,,,,1024,0,4,,,43,0,3
111616,note_off,,,,,1024,0,5,,,31,0,4
111616,note_on,,,,,0,0,5,,,27,96,4
111872,note_off,,,,,256,0,1,,,68,0,0
111872,note_on,,,,,0,0,1,,,67,96,0
112128,note_on,,,,,0,0,1,,,65,96,0
112128,note_off,,,,,256,0,1,,,67,0,0
112384,note_on,,,,,0,0,1,,,63,96,0
112384,note_off,,,,,256,0,1,,,65,0,0
112640,note_off,,,,,256,0,1,,,63,0,0
112640,note_on,,,,,0,0,1,,,67,96,0
112640,note_off,,,,,1024,0,4,,,39,0,3
112640,note_on,,,,,0,0,4,,,46,96,3
112640,note_off,,,,,1024,0,5,,,27,0,4
112640,note_on,,,,,0,0,5,,,34,96,4
113152,note_off,,,,,512,0,1,,,67,0,0
113152,note_on,,,,,0,0,1,,,65,96,0
113664,note_on,,,,,0,0,5,,,38,96,4
113664,note_off,,,,,512,0,1,,,65,0,0
113664,note_off,,,,,1024,0,5,,,34,0,4
113664,note_on,,,,,0,0,4,,,50,96,3
113664,note_off,,,,,1024,0,4,,,46,0,3
114176,note_on,,,,,512,0,1,,,65,96,0
114688,note_off,,,,,1024,0,5,,,38,0,4
114688,note_on,,,,,0,0,5,,,39,96,4
114688,note_on,,,,,0,0,4,,,51,96,3
114688,note_off,,,,,512,0,1,,,65,0,0
114688,note_on,,,,,0,0,1,,,67,96,0
114688,note_off,,,,,1024,0,4,,,50,0,3
115200,note_on,,,,,0,0,1,,,69,96,0
115200,note_off,,,,,512,0,1,,,67,0,0
115712,note_off,,,,,1024,0,5,,,39,0,4
115712,note_on,,,,,0,0,5,,,38,96,4
115712,note_on,,,,,0,0,4,,,50,96,3
115712,note_off,,,,,1024,0,4,,,51,0,3
116224,note_off,,,,,1024,0,1,,,69,0,0
116224,note_on,,,,,0,0,1,,,70,96,0
116736,note_on,,,,,0,0,1,,,63,96,0
116736,note_off,,,,,1024,0,4,,,50,0,3
116736,note_on,,,,,0,0,5,,,36,96,4
116736,note_off,,,,,1024,0,5,,,38,0,4
116736,note_off,,,,,512,0,1,,,70,0,0
116736,note_on,,,,,0,0,4,,,48,96,3
116992,note_off,,,,,256,0,1,,,63,0,0
116992,note_on,,,,,0,0,1,,,62,96,0
117248,note_off,,,,,256,0,1,,,62,0,0
117248,note_on,,,,,0,0,1,,,63,96,0
117760,note_on,,,,,0,0,5,,,39,96,4
117760,note_on,,,,,0,0,4,,,51,96,3
117760,note_off,,,,,512,0,1,,,63,0,0
117760,note_off,,,,,1024,0,5,,,36,0,4
117760,note_off,,,,,1024,0,4,,,48,0,3
118272,note_on,,,,,512,0,1,,,60,96,0
118784,note_off,,,,,512,0,1,,,60,0,0
118784,note_on,,,,,0,0,1,,,69,96,0
118784,note_on,,,,,0,0,5,,,41,96,4
118784,note_off,,,,,1024,0,4,,,51,0,3
118784,note_on,,,,,0,0,4,,,53,96,3
118784,note_off,,,,,1024,0,5,,,39,0,4
119296,note_on,,,,,0,0,1,,,70,96,0
119296,note_off,,,,,512,0,1,,,69,0,0
119808,note_off,,,,,1024,0,5,,,41,0,4
119808,note_off,,,,,1024,0,4,,,53,0,3
119808,note_on,,,,,0,0,4,,,55,96,3
119808,note_on,,,,,0,0,5,,,43,96,4
120320,note_on,,,,,0,0,1,,,72,96,0
120320,note_off,,,,,1024,0,1,,,70,0,0
120832,note_on,,,,,0,0,1,,,63,96,0
120832,note_on,,,,,0,0,5,,,45,96,4
120832,note_off,,,,,512,0,1,,,72,0,0
120832,note_on,,,,,0,0,4,,,57,96,3
120832,note_off,,,,,1024,0,4,,,55,0,3
120832,note_off,,,,,1024,0,5,,,43,0,4
121088,note_on,,,,,0,0,1,,,62,96,0
121088,note_off,,,,,256,0,1,,,63,0,0
121344,note_off,,,,,256,0,1,,,62,0,0
121344,note_on,,,,,0,0,1,,,63,96,0
121856,note_on,,,,,0,0,5,,,41,96,4
121856,note_off,,,,,512,0,1,,,63,0,0
121856,note_off,,,,,1024,0,5,,,45,0,4
121856,note_on,,,,,0,0,4,,,53,96,3
121856,note_off,,,,,1024,0,4,,,57,0,3
122368,note_on,,,,,512,0,1,,,75,96,0
122880,note_on,,,,,0,0,1,,,74,96,0
122880,note_on,,,,,0,0,4,,,58,96,3
122880,note_off,,,,,512,0,1,,,75,0,0
122880,note_off,,,,,1024,0,4,,,53,0,3
122880,note_on,,,,,0,0,5,,,46,96,4
122880,note_off,,,,,1024,0,5,,,41,0,4
123136,note_off,,,,,256,0,1,,,74,0,0
123136,note_on,,,,,0,0,1,,,72,96,0
123392,note_on,,,,,0,0,1,,,70,96,0
123392,note_off,,,,,256,0,1,,,72,0,0
123904,note_on,,,,,0,0,4,,,57,96,3
123904,note_on,,,,,0,0,5,,,45,96,4
123904,note_off,,,,,1024,0,4,,,58,0,3
123904,note_off,,,,,1024,0,5,,,46,0,4
124160,note_off,,,,,768,0,1,,,70,0,0
124160,note_on,,,,,0,0,1,,,69,96,0
124416,note_off,,,,,256,0,1,,,69,0,0
124416,note_on,,,,,0,0,1,,,70,96,0
124928,note_on,,,,,0,0,4,,,55,96,3
124928,note_off,,,,,1024,0,5,,,45,0,4
124928,note_on,,,,,0,0,5,,,43,96,4
124928,note_off,,,,,1024,0,4,,,57,0,3
125184,note_on,,,,,0,0,1,,,69,96,0
125184,note_off,,,,,768,0,1,,,70,0,0
125440,note_off,,,,,256,0,1,,,69,0,0
125440,note_on,,,,,0,0,1,,,67,96,0
125696,note_on,,,,,0,0,1,,,65,96,0
125696,note_off,,,,,256,0,1,,,67,0,0
125952,note_off,,,,,1024,0,5,,,43,0,4
125952,note_on,,,,,0,0,5,,,41,96,4
125952,note_on,,,,,0,0,4,,,53,96,3
125952,note_off,,,,,1024,0,4,,,55,0,3
125952,note_off,,,,,256,0,1,,,65,0,0
125952,note_on,,,,,0,0,1,,,63,96,0
126208,note_off,,,,,256,0,1,,,63,0,0
126208,note_on,,,,,0,0,1,,,62,96,0
126464,note_off,,,,,256,0,1,,,62,0,0
126464,note_on,,,,,0,0,1,,,60,96,0
126720,note_off,,,,,256,0,1,,,60,0,0
126720,note_on,,,,,0,0,1,,,58,96,0
126976,note_on,,,,,0,0,4,,,51,96,3
126976,note_off,,,,,256,0,1,,,58,0,0
126976,note_off,,,,,1024,0,4,,,53,0,3
126976,note_on,,,,,0,0,5,,,39,96,4
126976,note_off,,,,,1024,0,5,,,41,0,4
126976,note_on,,,,,0,0,1,,,60,96,0
127232,note_on,,,,,0,0,1,,,62,96,0
127232,note_off,,,,,256,0,1,,,60,0,0
127488,note_on,,,,,0,0,1,,,63,96,0
127488,note_off,,,,,256,0,1,,,62,0,0
128000,note_off,,,,,1024,0,4,,,51,0,3
128000,note_off,,,,,512,0,1,,,63,0,0
128000,note_on,,,,,0,0,5,,,38,96,4
128000,note_off,,,,,1024,0,5,,,39,0,4
128000,note_on,,,,,0,0,4,,,50,96,3
128000,note_on,,,,,0,0,1,,,63,96,0
128256,note_off,,,,,256,0,1,,,63,0,0
128256,note_on,,,,,0,0,1,,,62,96,0
128512,note_off,,,,,256,0,1,,,62,0,0
128512,note_on,,,,,0,0,1,,,63,96,0
129024,note_on,,,,,0,0,5,,,36,96,4
129024,note_off,,,,,1024,0,5,,,38,0,4
129024,note_on,,,,,0,0,4,,,48,96,3
129024,note_off,,,,,1024,0,4,,,50,0,3
129280,note_on,,,,,0,0,1,,,69,96,0
129280,note_off,,,,,768,0,1,,,63,0,0
129536,note_on,,,,,0,0,1,,,70,96,0
129536,note_off,,,,,256,0,1,,,69,0,0
129792,note_on,,,,,0,0,1,,,72,96,0
129792,note_off,,,,,256,0,1,,,70,0,0
130048,note_off,,,,,1024,0,4,,,48,0,3
130048,note_on,,,,,0,0,4,,,51,96,3
130048,note_on,,,,,0,0,1,,,70,96,0
130048,note_off,,,,,256,0,1,,,72,0,0
130048,note_off,,,,,1024,0,5,,,36,0,4
130048,note_on,,,,,0,0,5,,,39,96,4
130304,note_off,,,,,256,0,1,,,70,0,0
130304,note_on,,,,,0,0,1,,,69,96,0
130560,note_on,,,,,0,0,1,,,67,96,0
130560,note_off,,,,,256,0,1,,,69,0,0
130816,note_off,,,,,256,0,1,,,67,0,0
130816,note_on,,,,,0,0,1,,,65,96,0
131072,note_off,,,,,1024,0,4,,,51,0,3
131072,note_on,,,,,0,0,5,,,38,96,4
131072,note_off,,,,,1024,0,5,,,39,0,4
131072,note_off,,,,,256,0,1,,,65,0,0
131072,note_on,,,,,0,0,1,,,70,96,0
131072,note_on,,,,,0,0,4,,,50,96,3
131584,note_off,,,,,512,0,1,,,70,0,0
131584,note_on,,,,,0,0,1,,,65,96,0
131584,note_on,,,,,0,0,5,,,34,96,4
131584,note_off,,,,,512,0,5,,,38,0,4
131584,note_off,,,,,512,0,4,,,50,0,3
131584,note_on,,,,,0,0,4,,,46,96,3
132096,note_off,,,,,512,0,1,,,65,0,0
132096,note_off,,,,,512,0,4,,,46,0,3
132096,note_on,,,,,0,0,4,,,53,96,3
132096,note_off,,,,,512,0,5,,,34,0,4
132096,note_on,,,,,0,0,1,,,62,96,0
132096,note_on,,,,,0,0,5,,,41,96,4
132608,note_off,,,,,512,0,4,,,53,0,3
132608,note_on,,,,,0,0,4,,,41,96,3
132608,note_on,,,,,0,0,1,,,60,96,0
132608,note_on,,,,,0,0,5,,,29,96,4
132608,note_off,,,,,512,0,5,,,41,0,4
132608,note_off,,,,,512,0,1,,,62,0,0
132864,note_off,,,,,256,0,1,,,60,0,0
132864,note_on,,,,,0,0,1,,,58,96,0
133120,note_off,,,,,512,0,4,,,41,0,3
133120,note_on,,,,,0,0,1,,,58,96,0
133120,note_on,,,,,0,0,4,,,43,96,3
133120,note_off,,,,,256,0,1,,,58,0,0
133120,note_off,,,,,512,0,5,,,29,0,4
133120,note_on,,,,,0,0,5,,,31,96,4
133376,note_off,,,,,256,0,1,,,58,0,0
133376,note_on,,,,,0,0,1,,,63,96,0
133632,note_off,,,,,512,0,4,,,43,0,3
133632,note_off,,,,,512,0,5,,,31,0,4
133632,note_on,,,,,0,0,5,,,33,96,4
133632,note_on,,,,,0,0,1,,,62,96,0
133632,note_off,,,,,256,0,1,,,63,0,0
133632,note_on,,,,,0,0,4,,,45,96,3
133888,note_on,,,,,0,0,1,,,60,96,0
133888,note_off,,,,,256,0,1,,,62,0,0
134144,note_off,,,,,512,0,5,,,33,0,4
134144,note_off,,,,,512,0,4,,,45,0,3
134144,note_off,,,,,256,0,1,,,60,0,0
134144,note_on,,,,,0,0,1,,,62,96,0
134144,note_on,,,,,0,0,4,,,46,96,3
134144,note_on,,,,,0,0,5,,,34,96,4
134656,note_off,,,,,512,0,4,,,46,0,3
134656,note_on,,,,,0,0,4,,,38,96,3
134656,note_on,,,,,0,0,5,,,26,96,4
134656,note_off,,,,,512,0,5,,,34,0,4
134656,note_off,,,,,512,0,1,,,62,0,0
134656,note_on,,,,,0,0,1,,,58,96,0
135168,note_on,,,,,0,0,1,,,55,96,0
135168,note_on,,,,,0,0,5,,,27,96,4
135168,note_off,,,,,512,0,5,,,26,0,4
135168,note_off,,,,,512,0,4,,,38,0,3
135168,note_on,,,,,0,0,4,,,39,96,3
135168,note_off,,,,,512,0,1,,,58,0,0
135680,note_on,,,,,0,0,5,,,24,96,4
135680,note_on,,,,,0,0,4,,,36,96,3
135680,note_off,,,,,512,0,4,,,39,0,3
135680,note_off,,,,,512,0,5,,,27,0,4
135936,note_on,,,,,0,0,1,,,57,96,0
135936,note_off,,,,,768,0,1,,,55,0,0
136192,note_on,,,,,0,0,1,,,57,96,0
136192,note_off,,,,,256,0,1,,,57,0,0
136192,note_off,,,,,512,0,5,,,24,0,4
136192,note_on,,,,,0,0,5,,,29,96,4
136192,note_on,,,,,0,0,4,,,41,96,3
136192,note_off,,,,,512,0,4,,,36,0,3
136960,note_on,,,,,0,0,1,,,55,96,0
136960,note_off,,,,,768,0,1,,,57,0,0
137088,note_on,,,,,0,0,1,,,57,96,0
137088,note_off,,,,,128,0,1,,,55,0,0
137216,note_on,,,,,0,0,4,,,46,96,3
137216,note_off,,,,,1024,0,4,,,41,0,3
137216,note_off,,,,,1024,0,5,,,29,0,4
137216,note_off,,,,,128,0,1,,,57,0,0
137216,note_on,,,,,0,0,1,,,58,96,0
137216,note_on,,,,,0,0,5,,,34,96,4
137728,note_off,,,,,512,0,5,,,34,0,4
137728,note_off,,,,,512,0,4,,,46,0,3
137728,note_on,,,,,0,0,4,,,48,96,3
137728,note_on,,,,,0,0,5,,,36,96,4
138240,note_off,,,,,1024,0,1,,,58,0,0
138240,note_off,,,,,512,0,4,,,48,0,3
138240,note_on,,,,,0,0,4,,,46,96,3
138240,note_on,,,,,0,0,5,,,34,96,4
138240,note_off,,,,,512,0,5,,,36,0,4
138752,note_off,,,,,512,0,4,,,46,0,3
138752,note_on,,,,,0,0,5,,,32,96,4
138752,note_off,,,,,512,0,5,,,34,0,4
138752,note_on,,,,,0,0,4,,,44,96,3
138752,note_on,,,,,512,0,1,,,58,96,0
139264,note_off,,,,,512,0,1,,,58,0,0
139264,note_off,,,,,512,0,4,,,44,0,3
139264,note_on,,,,,0,0,4,,,43,96,3
139264,note_off,,,,,512,0,5,,,32,0,4
139264,note_on,,,,,0,0,5,,,31,96,4
139264,note_on,,,,,0,0,1,,,63,96,0
139520,note_off,,,,,256,0,1,,,63,0,0
139520,note_on,,,,,0,0,1,,,65,96,0
139776,note_off,,,,,256,0,1,,,65,0,0
139776,note_on,,,,,0,0,1,,,67,96,0
139776,note_on,,,,,0,0,5,,,29,96,4
139776,note_off,,,,,512,0,4,,,43,0,3
139776,note_on,,,,,0,0,4,,,41,96,3
139776,note_off,,,,,512,0,5,,,31,0,4
140288,note_off,,,,,512,0,1,,,67,0,0
140288,note_on,,,,,0,0,5,,,27,96,4
140288,note_off,,,,,512,0,5,,,29,0,4
140288,note_off,,,,,512,0,4,,,41,0,3
140288,note_on,,,,,0,0,4,,,39,96,3
140288,note_on,,,,,0,0,1,,,67,96,0
140800,note_off,,,,,512,0,4,,,39,0,3
140800,note_on,,,,,0,0,4,,,38,96,3
140800,note_on,,,,,0,0,5,,,26,96,4
140800,note_off,,,,,512,0,5,,,27,0,4
140800,note_off,,,,,512,0,1,,,67,0,0
140800,note_on,,,,,0,0,1,,,65,96,0
141312,note_off,,,,,512,0,4,,,38,0,3
141312,note_on,,,,,0,0,4,,,36,96,3
141312,note_on,,,,,49152,0,2,,,51,96,1
141312,note_on,,,,,0,0,5,,,24,96,4
141312,note_off,,,,,512,0,5,,,26,0,4
141312,note_on,,,,,49152,0,3,,,51,96,2
141312,note_off,,,,,512,0,1,,,65,0,0
141312,note_on,,,,,0,0,1,,,68,96,0
141824,note_on,,,,,0,0,1,,,67,96,0
141824,note_off,,,,,512,0,1,,,68,0,0
142336,note_on,,,,,0,0,5,,,36,96,4
142336,note_off,,,,,1024,0,5,,,24,0,4
142336,note_on,,,,,0,0,2,,,55,96,1
142336,note_off,,,,,1024,0,2,,,51,0,1
142336,note_on,,,,,0,0,4,,,48,96,3
142336,note_off,,,,,1024,0,3,,,51,0,2
142336,note_on,,,,,0,0,3,,,55,96,2
142336,note_on,,,,,0,0,1,,,58,96,0
142336,note_off,,,,,512,0,1,,,67,0,0
142336,note_off,,,,,1024,0,4,,,36,0,3
142848,note_off,,,,,512,0,1,,,58,0,0
142848,note_on,,,,,0,0,1,,,56,96,0
143360,note_off,,,,,1024,0,4,,,48,0,3
143360,note_on,,,,,0,0,2,,,58,96,1
143360,note_off,,,,,1024,0,2,,,55,0,1
143360,note_off,,,,,1024,0,5,,,36,0,4
143360,note_on,,,,,0,0,5,,,31,96,4
143360,note_off,,,,,512,0,1,,,56,0,0
143360,note_on,,,,,0,0,1,,,67,96,0
143360,note_off,,,,,1024,0,3,,,55,0,2
143360,note_on,,,,,0,0,3,,,58,96,2
143360,note_on,,,,,0,0,4,,,43,96,3
143616,note_off,,,,,256,0,1,,,67,0,0
143616,note_on,,,,,0,0,1,,,63,96,0
143872,note_off,,,,,256,0,1,,,63,0,0
143872,note_on,,,,,0,0,1,,,65,96,0
144384,note_off,,,,,1024,0,5,,,31,0,4
144384,note_off,,,,,1024,0,3,,,58,0,2
144384,note_on,,,,,0,0,3,,,58,96,2
144384,note_off,,,,,512,0,1,,,65,0,0
144384,note_off,,,,,1024,0,4,,,43,0,3
144384,note_on,,,,,0,0,4,,,46,96,3
144384,note_on,,,,,0,0,2,,,58,96,1
144384,note_off,,,,,1024,0,2,,,58,0,1
144384,note_on,,,,,0,0,5,,,34,96,4
144384,note_on,,,,,0,0,1,,,56,96,0
144896,note_off,,,,,512,0,1,,,56,0,0
144896,note_on,,,,,0,0,1,,,55,96,0
145408,note_off,,,,,1024,0,5,,,34,0,4
145408,note_on,,,,,0,0,1,,,62,96,0
145408,note_off,,,,,512,0,1,,,55,0,0
145408,note_on,,,,,0,0,3,,,58,96,2
145408,note_off,,,,,1024,0,2,,,58,0,1
145408,note_off,,,,,1024,0,3,,,58,0,2
145408,note_on,,,,,0,0,4,,,39,96,3
145408,note_off,,,,,1024,0,4,,,46,0,3
145408,note_on,,,,,0,0,5,,,27,96,4
145408,note_on,,,,,0,0,2,,,58,96,1
145920,note_on,,,,,0,0,1,,,63,96,0
145920,note_off,,,,,512,0,1,,,62,0,0
146432,note_off,,,,,1024,0,5,,,27,0,4
146432,note_off,,,,,1024,0,4,,,39,0,3
146432,note_on,,,,,0,0,4,,,43,96,3
146432,note_on,,,,,0,0,3,,,58,96,2
146432,note_off,,,,,1024,0,3,,,58,0,2
146432,note_off,,,,,512,0,1,,,63,0,0
146432,note_on,,,,,0,0,2,,,58,96,1
146432,note_off,,,,,1024,0,2,,,58,0,1
146432,note_on,,,,,0,0,5,,,31,96,4
146944,note_on,,,,,512,0,1,,,58,96,0
147456,note_on,,,,,0,0,1,,,63,96,0
147456,note_off,,,,,512,0,1,,,58,0,0
147456,note_on,,,,,0,0,5,,,32,96,4
147456,note_off,,,,,1024,0,3,,,58,0,2
147456,note_off,,,,,1024,0,2,,,58,0,1
147456,note_on,,,,,0,0,2,,,60,96,1
147456,note_on,,,,,0,0,4,,,44,96,3
147456,note_off,,,,,1024,0,4,,,43,0,3
147456,note_off,,,,,1024,0,5,,,31,0,4
147456,note_on,,,,,0,0,3,,,60,96,2
147712,note_off,,,,,256,0,1,,,63,0,0
147712,note_on,,,,,0,0,1,,,65,96,0
147968,note_off,,,,,256,0,1,,,65,0,0
147968,note_on,,,,,0,0,1,,,67,96,0
148480,note_off,,,,,512,0,1,,,67,0,0
148480,note_off,,,,,1024,0,4,,,44,0,3
148480,note_on,,,,,0,0,4,,,56,96,3
148480,note_off,,,,,1024,0,5,,,32,0,4
148480,note_on,,,,,0,0,5,,,44,96,4
148480,note_on,,,,,0,0,1,,,67,96,0
148992,note_off,,,,,512,0,1,,,67,0,0
148992,note_on,,,,,0,0,1,,,65,96,0
149504,note_off,,,,,2048,0,3,,,60,0,2
149504,note_on,,,,,0,0,3,,,58,96,2
149504,note_off,,,,,1024,0,4,,,56,0,3
149504,note_on,,,,,0,0,4,,,50,96,3
149504,note_off,,,,,1024,0,5,,,44,0,4
149504,note_off,,,,,2048,0,2,,,60,0,1
149504,note_on,,,,,0,0,1,,,68,96,0
149504,note_off,,,,,512,0,1,,,65,0,0
149504,note_on,,,,,0,0,5,,,38,96,4
149504,note_on,,,,,0,0,2,,,58,96,1
150016,note_on,,,,,0,0,1,,,67,96,0
150016,note_off,,,,,512,0,1,,,68,0,0
150528,note_off,,,,,1024,0,5,,,38,0,4
150528,note_on,,,,,0,0,5,,,39,96,4
150528,note_on,,,,,0,0,4,,,51,96,3
150528,note_off,,,,,1024,0,4,,,50,0,3
150528,note_on,,,,,0,0,1,,,58,96,0
150528,note_off,,,,,512,0,1,,,67,0,0
151040,note_off,,,,,512,0,1,,,58,0,0
151040,note_on,,,,,0,0,1,,,56,96,0
151552,note_on,,,,,0,0,5,,,36,96,4
151552,note_on,,,,,0,0,4,,,48,96,3
151552,note_off,,,,,1024,0,4,,,51,0,3
151552,note_off,,,,,1024,0,5,,,39,0,4
151552,note_off,,,,,2048,0,3,,,58,0,2
151552,note_on,,,,,0,0,1,,,67,96,0
151552,note_off,,,,,512,0,1,,,56,0,0
151552,note_off,,,,,2048,0,2,,,58,0,1
151808,note_on,,,,,0,0,1,,,63,96,0
151808,note_off,,,,,256,0,1,,,67,0,0
152064,note_on,,,,,0,0,1,,,65,96,0
152064,note_off,,,,,256,0,1,,,63,0,0
152576,note_off,,,,,1024,0,5,,,36,0,4
152576,note_on,,,,,0,0,5,,,38,96,4
152576,note_off,,,,,1024,0,4,,,48,0,3
152576,note_on,,,,,0,0,1,,,56,96,0
152576,note_off,,,,,512,0,1,,,65,0,0
152576,note_on,,,,,0,0,4,,,50,96,3
153088,note_on,,,,,0,0,1,,,55,96,0
153088,note_off,,,,,512,0,1,,,56,0,0
153600,note_on,,,,,0,0,4,,,51,96,3
153600,note_off,,,,,1024,0,5,,,38,0,4
153600,note_on,,,,,0,0,5,,,39,96,4
153600,note_off,,,,,512,0,1,,,55,0,0
153600,note_on,,,,,0,0,1,,,62,96,0
153600,note_off,,,,,1024,0,4,,,50,0,3
154112,note_off,,,,,512,0,1,,,62,0,0
154112,note_on,,,,,0,0,1,,,63,96,0
154624,note_off,,,,,1024,0,5,,,39,0,4
154624,note_on,,,,,0,0,5,,,38,96,4
154624,note_on,,,,,0,0,4,,,50,96,3
154624,note_on,,,,,3072,0,2,,,58,96,1
154624,note_off,,,,,1024,0,4,,,51,0,3
154624,note_off,,,,,512,0,1,,,63,0,0
154624,note_on,,,,,3072,0,3,,,58,96,2
155136,note_on,,,,,512,0,1,,,65,96,0
155648,note_off,,,,,1024,0,5,,,38,0,4
155648,note_on,,,,,0,0,5,,,36,96,4
155648,note_off,,,,,512,0,1,,,65,0,0
155648,note_on,,,,,0,0,3,,,63,96,2
155648,note_off,,,,,1024,0,4,,,50,0,3
155648,note_on,,,,,0,0,4,,,48,96,3
155648,note_off,,,,,1024,0,3,,,58,0,2
155648,note_off,,,,,1024,0,2,,,58,0,1
155648,note_on,,,,,0,0,2,,,63,96,1
155648,note_on,,,,,0,0,1,,,67,96,0
156160,note_off,,,,,512,0,1,,,67,0,0
156160,note_on,,,,,0,0,1,,,69,96,0
156672,note_on,,,,,0,0,5,,,31,96,4
156672,note_off,,,,,1024,0,5,,,36,0,4
156672,note_off,,,,,1024,0,3,,,63,0,2
156672,note_on,,,,,0,0,3,,,58,96,2
156672,note_on,,,,,0,0,4,,,43,96,3
156672,note_off,,,,,1024,0,4,,,48,0,3
156672,note_on,,,,,0,0,2,,,58,96,1
156672,note_off,,,,,1024,0,2,,,63,0,1
157184,note_off,,,,,1024,0,1,,,69,0,0
157184,note_on,,,,,0,0,1,,,70,96,0
157696,note_off,,,,,1024,0,4,,,43,0,3
157696,note_off,,,,,512,0,1,,,70,0,0
157696,note_on,,,,,0,0,1,,,63,96,0
157696,note_on,,,,,0,0,4,,,48,96,3
157696,note_off,,,,,1024,0,2,,,58,0,1
157696,note_off,,,,,1024,0,5,,,31,0,4
157696,note_on,,,,,0,0,2,,,63,96,1
157696,note_on,,,,,0,0,3,,,63,96,2
157696,note_off,,,,,1024,0,3,,,58,0,2
157696,note_on,,,,,0,0,5,,,36,96,4
157952,note_off,,,,,256,0,1,,,63,0,0
157952,note_on,,,,,0,0,1,,,62,96,0
158208,note_off,,,,,512,0,5,,,36,0,4
158208,note_on,,,,,0,0,3,,,65,96,2
158208,note_on,,,,,0,0,4,,,50,96,3
158208,note_off,,,,,512,0,4,,,48,0,3
158208,note_on,,,,,0,0,5,,,38,96,4
158208,note_off,,,,,512,0,3,,,63,0,2
158208,note_on,,,,,0,0,2,,,65,96,1
158208,note_off,,,,,512,0,2,,,63,0,1
158208,note_off,,,,,256,0,1,,,62,0,0
158208,note_on,,,,,0,0,1,,,63,96,0
158720,note_off,,,,,512,0,3,,,65,0,2
158720,note_on,,,,,0,0,5,,,39,96,4
158720,note_off,,,,,512,0,5,,,38,0,4
158720,note_on,,,,,0,0,2,,,67,96,1
158720,note_off,,,,,512,0,2,,,65,0,1
158720,note_off,,,,,512,0,4,,,50,0,3
158720,note_on,,,,,0,0,4,,,51,96,3
158720,note_off,,,,,512,0,1,,,63,0,0
158720,note_on,,,,,0,0,3,,,67,96,2
159232,note_on,,,,,512,0,1,,,63,96,0
159744,note_off,,,,,512,0,1,,,63,0,0
159744,note_off,,,,,1024,0,2,,,67,0,1
159744,note_on,,,,,0,0,2,,,65,96,1
159744,note_on,,,,,0,0,3,,,65,96,2
159744,note_off,,,,,1024,0,3,,,67,0,2
159744,note_on,,,,,0,0,1,,,69,96,0
160256,note_on,,,,,0,0,1,,,70,96,0
160256,note_on,,,,,0,0,4,,,50,96,3
160256,note_off,,,,,1536,0,4,,,51,0,3
160256,note_off,,,,,1536,0,5,,,39,0,4
160256,note_off,,,,,512,0,1,,,69,0,0
160256,note_on,,,,,0,0,5,,,38,96,4
160768,note_off,,,,,512,0,4,,,50,0,3
160768,note_on,,,,,0,0,5,,,31,96,4
160768,note_off,,,,,512,0,5,,,38,0,4
160768,note_on,,,,,0,0,4,,,43,96,3
161280,note_on,,,,,0,0,5,,,33,96,4
161280,note_off,,,,,512,0,5,,,31,0,4
161280,note_off,,,,,1024,0,1,,,70,0,0
161280,note_on,,,,,0,0,1,,,72,96,0
161280,note_off,,,,,512,0,4,,,43,0,3
161280,note_on,,,,,0,0,3,,,63,96,2
161280,note_on,,,,,0,0,4,,,45,96,3
161280,note_off,,,,,1536,0,3,,,65,0,2
161280,note_off,,,,,1536,0,2,,,65,0,1
161280,note_on,,,,,0,0,2,,,63,96,1
161792,note_off,,,,,512,0,3,,,63,0,2
161792,note_off,,,,,512,0,4,,,45,0,3
161792,note_on,,,,,0,0,4,,,46,96,3
161792,note_on,,,,,0,0,3,,,62,96,2
161792,note_on,,,,,0,0,5,,,34,96,4
161792,note_on,,,,,0,0,2,,,62,96,1
161792,note_off,,,,,512,0,5,,,33,0,4
161792,note_off,,,,,512,0,1,,,72,0,0
161792,note_on,,,,,0,0,1,,,65,96,0
161792,note_off,,,,,512,0,2,,,63,0,1
162048,note_on,,,,,0,0,1,,,63,96,0
162048,note_off,,,,,256,0,1,,,65,0,0
162304,note_on,,,,,0,0,1,,,65,96,0
162304,note_off,,,,,256,0,1,,,63,0,0
162304,note_off,,,,,512,0,5,,,34,0,4
162304,note_on,,,,,0,0,5,,,26,96,4
162304,note_on,,,,,0,0,4,,,38,96,3
162304,note_off,,,,,512,0,4,,,46,0,3
162816,note_on,,,,,0,0,5,,,27,96,4
162816,note_off,,,,,1024,0,3,,,62,0,2
162816,note_on,,,,,0,0,2,,,60,96,1
162816,note_off,,,,,1024,0,2,,,62,0,1
162816,note_on,,,,,0,0,3,,,60,96,2
162816,note_off,,,,,512,0,1,,,65,0,0
162816,note_off,,,,,512,0,5,,,26,0,4
162816,note_off,,,,,512,0,4,,,38,0,3
162816,note_on,,,,,0,0,4,,,39,96,3
163328,note_on,,,,,0,0,5,,,29,96,4
163328,note_off,,,,,512,0,5,,,27,0,4
163328,note_off,,,,,512,0,4,,,39,0,3
163328,note_on,,,,,0,0,4,,,41,96,3
163584,note_off,,,,,768,0,2,,,60,0,1
163584,note_off,,,,,768,0,3,,,60,0,2
163584,note_on,,,,,0,0,3,,,58,96,2
163584,note_on,,,,,0,0,2,,,58,96,1
163712,note_off,,,,,128,0,3,,,58,0,2
163712,note_on,,,,,0,0,3,,,60,96,2
163712,note_off,,,,,128,0,2,,,58,0,1
163712,note_on,,,,,0,0,2,,,60,96,1
163840,note_on,,,,,0,0,4,,,46,96,3
163840,note_off,,,,,512,0,4,,,41,0,3
163840,note_off,,,,,512,0,5,,,29,0,4
163840,note_on,,,,,0,0,2,,,58,96,1
163840,note_on,,,,,0,0,5,,,34,96,4
163840,note_on,,,,,0,0,3,,,58,96,2
163840,note_off,,,,,128,0,3,,,60,0,2
163840,note_off,,,,,128,0,2,,,60,0,1
164352,note_off,,,,,512,0,4,,,46,0,3
164352,note_off,,,,,512,0,5,,,34,0,4
164352,note_on,,,,,0,0,5,,,33,96,4
164352,note_on,,,,,0,0,4,,,45,96,3
164864,note_off,,,,,512,0,4,,,45,0,3
164864,note_on,,,,,0,0,4,,,46,96,3
164864,note_on,,,,,0,0,5,,,34,96,4
164864,note_off,,,,,512,0,5,,,33,0,4
165376,note_on,,,,,2560,0,1,,,70,96,0
165376,note_off,,,,,512,0,5,,,34,0,4
165376,note_off,,,,,512,0,4,,,46,0,3
165376,note_on,,,,,0,0,4,,,48,96,3
165376,note_on,,,,,0,0,5,,,36,96,4
165888,note_off,,,,,512,0,5,,,36,0,4
165888,note_off,,,,,512,0,1,,,70,0,0
165888,note_off,,,,,2048,0,3,,,58,0,2
165888,note_on,,,,,0,0,4,,,50,96,3
165888,note_off,,,,,2048,0,2,,,58,0,1
165888,note_off,,,,,512,0,4,,,48,0,3
165888,note_on,,,,,0,0,1,,,70,96,0
165888,note_on,,,,,0,0,5,,,38,96,4
166400,note_off,,,,,512,0,4,,,50,0,3
166400,note_on,,,,,0,0,4,,,46,96,3
166400,note_on,,,,,0,0,5,,,34,96,4
166400,note_off,,,,,512,0,5,,,38,0,4
166912,note_on,,,,,0,0,5,,,39,96,4
166912,note_off,,,,,512,0,4,,,46,0,3
166912,note_on,,,,,0,0,4,,,51,96,3
166912,note_on,,,,,0,0,1,,,68,96,0
166912,note_off,,,,,512,0,5,,,34,0,4
166912,note_off,,,,,1024,0,1,,,70,0,0
167168,note_on,,,,,0,0,1,,,67,96,0
167168,note_off,,,,,256,0,1,,,68,0,0
167424,note_off,,,,,256,0,1,,,67,0,0
167424,note_on,,,,,0,0,1,,,65,96,0
167680,note_off,,,,,256,0,1,,,65,0,0
167680,note_on,,,,,0,0,1,,,63,96,0
167936,note_off,,,,,1024,0,4,,,51,0,3
167936,note_on,,,,,0,0,5,,,34,96,4
167936,note_off,,,,,256,0,1,,,63,0,0
167936,note_on,,,,,0,0,1,,,65,96,0
167936,note_on,,,,,0,0,4,,,46,96,3
167936,note_off,,,,,1024,0,5,,,39,0,4
168192,note_off,,,,,256,0,1,,,65,0,0
168192,note_on,,,,,0,0,1,,,63,96,0
168448,note_off,,,,,256,0,1,,,63,0,0
168448,note_on,,,,,0,0,1,,,62,96,0
168704,note_on,,,,,0,0,1,,,60,96,0
168704,note_off,,,,,256,0,1,,,62,0,0
168960,note_on,,,,,3072,0,2,,,58,96,1
168960,note_on,,,,,3072,0,3,,,58,96,2
168960,note_on,,,,,0,0,4,,,44,96,3
168960,note_on,,,,,0,0,5,,,32,96,4
168960,note_off,,,,,1024,0,5,,,34,0,4
168960,note_off,,,,,1024,0,4,,,46,0,3
168960,note_off,,,,,256,0,1,,,60,0,0
168960,note_on,,,,,0,0,1,,,58,96,0
169472,note_on,,,,,0,0,1,,,60,96,0
169472,note_off,,,,,512,0,1,,,58,0,0
169728,note_on,,,,,0,0,1,,,62,96,0
169728,note_off,,,,,256,0,1,,,60,0,0
169984,note_on,,,,,0,0,1,,,63,96,0
169984,note_on,,,,,0,0,2,,,63,96,1
169984,note_off,,,,,1024,0,2,,,58,0,1
169984,note_off,,,,,256,0,1,,,62,0,0
169984,note_on,,,,,0,0,3,,,63,96,2
169984,note_off,,,,,1024,0,3,,,58,0,2
169984,note_off,,,,,1024,0,5,,,32,0,4
169984,note_on,,,,,0,0,5,,,31,96,4
169984,note_off,,,,,1024,0,4,,,44,0,3
169984,note_on,,,,,0,0,4,,,43,96,3
170240,note_on,,,,,0,0,1,,,65,96,0
170240,note_off,,,,,256,0,1,,,63,0,0
170496,note_on,,,,,0,0,1,,,67,96,0
170496,note_off,,,,,256,0,1,,,65,0,0
170752,note_on,,,,,0,0,1,,,65,96,0
170752,note_off,,,,,256,0,1,,,67,0,0
171008,note_on,,,,,0,0,5,,,27,96,4
171008,note_off,,,,,1024,0,5,,,31,0,4
171008,note_off,,,,,1024,0,3,,,63,0,2
171008,note_off,,,,,1024,0,2,,,63,0,1
171008,note_on,,,,,0,0,4,,,39,96,3
171008,note_on,,,,,0,0,3,,,58,96,2
171008,note_on,,,,,0,0,1,,,68,96,0
171008,note_off,,,,,256,0,1,,,65,0,0
171008,note_off,,,,,1024,0,4,,,43,0,3
171008,note_on,,,,,0,0,2,,,58,96,1
171264,note_on,,,,,0,0,1,,,67,96,0
171264,note_off,,,,,256,0,1,,,68,0,0
171520,note_on,,,,,0,0,1,,,65,96,0
171520,note_off,,,,,256,0,1,,,67,0,0
171776,note_on,,,,,0,0,1,,,63,96,0
171776,note_off,,,,,256,0,1,,,65,0,0
172032,note_off,,,,,1024,0,4,,,39,0,3
172032,note_on,,,,,0,0,4,,,44,96,3
172032,note_off,,,,,1024,0,5,,,27,0,4
172032,note_off,,,,,1024,0,2,,,58,0,1
172032,note_on,,,,,0,0,1,,,67,96,0
172032,note_off,,,,,256,0,1,,,63,0,0
172032,note_on,,,,,0,0,3,,,60,96,2
172032,note_on,,,,,0,0,2,,,60,96,1
172032,note_off,,,,,1024,0,3,,,58,0,2
172032,note_on,,,,,0,0,5,,,32,96,4
172544,note_off,,,,,512,0,4,,,44,0,3
172544,note_on,,,,,0,0,4,,,46,96,3
172544,note_off,,,,,512,0,5,,,32,0,4
172544,note_on,,,,,0,0,1,,,65,96,0
172544,note_off,,,,,512,0,1,,,67,0,0
172544,note_on,,,,,0,0,5,,,34,96,4
173056,note_off,,,,,1024,0,2,,,60,0,1
173056,note_on,,,,,0,0,3,,,55,96,2
173056,note_off,,,,,1024,0,3,,,60,0,2
173056,note_off,,,,,512,0,4,,,46,0,3
173056,note_on,,,,,0,0,4,,,48,96,3
173056,note_off,,,,,512,0,5,,,34,0,4
173056,note_on,,,,,0,0,5,,,36,96,4
173056,note_off,,,,,512,0,1,,,65,0,0
173056,note_on,,,,,0,0,2,,,55,96,1
173568,note_on,,,,,0,0,2,,,56,96,1
173568,note_on,,,,,0,0,3,,,56,96,2
173568,note_off,,,,,512,0,3,,,55,0,2
173568,note_off,,,,,512,0,2,,,55,0,1
173824,note_on,,,,,0,0,3,,,58,96,2
173824,note_off,,,,,256,0,3,,,56,0,2
173824,note_on,,,,,0,0,2,,,58,96,1
173824,note_off,,,,,256,0,2,,,56,0,1
174080,note_on,,,,,0,0,3,,,56,96,2
174080,note_off,,,,,256,0,3,,,58,0,2
174080,note_on,,,,,0,0,5,,,29,96,4
174080,note_off,,,,,1024,0,4,,,48,0,3
174080,note_off,,,,,1024,0,5,,,36,0,4
174080,note_on,,,,,0,0,4,,,41,96,3
174080,note_on,,,,,0,0,2,,,56,96,1
174080,note_off,,,,,256,0,2,,,58,0,1
174592,note_on,,,,,0,0,3,,,55,96,2
174592,note_off,,,,,512,0,2,,,56,0,1
174592,note_on,,,,,0,0,2,,,55,96,1
174592,note_off,,,,,512,0,3,,,56,0,2
175104,note_on,,,,,0,0,3,,,53,96,2
175104,note_off,,,,,512,0,3,,,55,0,2
175104,note_off,,,,,1024,0,4,,,41,0,3
175104,note_on,,,,,0,0,4,,,46,96,3
175104,note_off,,,,,1024,0,5,,,29,0,4
175104,note_on,,,,,0,0,2,,,53,96,1
175104,note_off,,,,,512,0,2,,,55,0,1
175104,note_on,,,,,0,0,5,,,34,96,4
175616,note_on,,,,,0,0,5,,,32,96,4
175616,note_off,,,,,512,0,5,,,34,0,4
175616,note_on,,,,,2560,0,1,,,70,96,0
175616,note_on,,,,,0,0,4,,,44,96,3
175616,note_off,,,,,512,0,4,,,46,0,3
176128,note_on,,,,,0,0,4,,,43,96,3
176128,note_off,,,,,1024,0,3,,,53,0,2
176128,note_on,,,,,0,0,5,,,31,96,4
176128,note_off,,,,,512,0,5,,,32,0,4
176128,note_off,,,,,512,0,4,,,44,0,3
176128,note_on,,,,,0,0,3,,,51,96,2
176128,note_on,,,,,0,0,2,,,51,96,1
176128,note_off,,,,,1024,0,2,,,53,0,1
176128,note_off,,,,,512,0,1,,,70,0,0
176128,note_on,,,,,0,0,1,,,70,96,0
177152,note_off,,,,,1024,0,5,,,31,0,4
177152,note_off,,,,,1024,0,1,,,70,0,0
177152,note_on,,,,,0,0,1,,,68,96,0
177152,note_on,,,,,0,0,5,,,36,96,4
177152,note_off,,,,,1024,0,4,,,43,0,3
177152,note_on,,,,,0,0,4,,,48,96,3
177408,note_off,,,,,256,0,1,,,68,0,0
177408,note_on,,,,,0,0,1,,,67,96,0
177664,note_on,,,,,0,0,1,,,65,96,0
177664,note_off,,,,,256,0,1,,,67,0,0
177920,note_on,,,,,0,0,1,,,63,96,0
177920,note_off,,,,,256,0,1,,,65,0,0
178176,note_on,,,,,0,0,4,,,46,96,3
178176,note_off,,,,,1024,0,5,,,36,0,4
178176,note_on,,,,,0,0,5,,,34,96,4
178176,note_off,,,,,256,0,1,,,63,0,0
178176,note_off,,,,,1024,0,4,,,48,0,3
178176,note_on,,,,,0,0,1,,,65,96,0
178176,note_off,,,,,2048,0,2,,,51,0,1
178176,note_off,,,,,2048,0,3,,,51,0,2
178432,note_off,,,,,256,0,1,,,65,0,0
178432,note_on,,,,,0,0,1,,,63,96,0
178688,note_on,,,,,0,0,1,,,62,96,0
178688,note_off,,,,,256,0,1,,,63,0,0
178944,note_off,,,,,256,0,1,,,62,0,0
178944,note_on,,,,,0,0,1,,,60,96,0
179200,note_off,,,,,1024,0,5,,,34,0,4
179200,note_on,,,,,0,0,5,,,32,96,4
179200,note_off,,,,,1024,0,4,,,46,0,3
179200,note_on,,,,,0,0,1,,,58,96,0
179200,note_off,,,,,256,0,1,,,60,0,0
179200,note_on,,,,,0,0,4,,,44,96,3
179712,note_off,,,,,512,0,1,,,58,0,0
179712,note_on,,,,,0,0,1,,,60,96,0
179968,note_off,,,,,256,0,1,,,60,0,0
179968,note_on,,,,,0,0,1,,,62,96,0
180224,note_off,,,,,1024,0,5,,,32,0,4
180224,note_on,,,,,0,0,5,,,31,96,4
180224,note_on,,,,,0,0,4,,,43,96,3
180224,note_off,,,,,1024,0,4,,,44,0,3
180224,note_on,,,,,0,0,1,,,63,96,0
180224,note_off,,,,,256,0,1,,,62,0,0
180480,note_on,,,,,0,0,1,,,65,96,0
180480,note_off,,,,,256,0,1,,,63,0,0
180736,note_on,,,,,0,0,1,,,67,96,0
180736,note_off,,,,,256,0,1,,,65,0,0
180992,note_on,,,,,0,0,1,,,65,96,0
180992,note_off,,,,,256,0,1,,,67,0,0
181248,note_on,,,,,0,0,5,,,27,96,4
181248,note_off,,,,,256,0,1,,,65,0,0
181248,note_on,,,,,0,0,1,,,68,96,0
181248,note_on,,,,,0,0,4,,,39,96,3
181248,note_off,,,,,1024,0,4,,,43,0,3
181248,note_off,,,,,1024,0,5,,,31,0,4
181504,note_off,,,,,256,0,1,,,68,0,0
181504,note_on,,,,,0,0,1,,,67,96,0
181760,note_on,,,,,0,0,1,,,65,96,0
181760,note_off,,,,,256,0,1,,,67,0,0
182016,note_on,,,,,0,0,1,,,63,96,0
182016,note_off,,,,,256,0,1,,,65,0,0
182272,note_off,,,,,1024,0,5,,,27,0,4
182272,note_on,,,,,0,0,1,,,67,96,0
182272,note_off,,,,,1024,0,4,,,39,0,3
182272,note_off,,,,,256,0,1,,,63,0,0
182272,note_on,,,,,0,0,5,,,34,96,4
182272,note_on,,,,,0,0,4,,,46,96,3
182784,note_off,,,,,512,0,1,,,67,0,0
182784,note_on,,,,,0,0,1,,,65,96,0
183296,note_off,,,,,512,0,1,,,65,0,0
183296,note_off,,,,,1024,0,5,,,34,0,4
183296,note_on,,,,,0,0,4,,,50,96,3
183296,note_on,,,,,0,0,5,,,38,96,4
183296,note_off,,,,,1024,0,4,,,46,0,3
183808,note_on,,,,,512,0,1,,,58,96,0
184320,note_on,,,,,0,0,4,,,51,96,3
184320,note_on,,,,,0,0,1,,,67,96,0
184320,note_off,,,,,512,0,1,,,58,0,0
184320,note_on,,,,,0,0,5,,,39,96,4
184320,note_off,,,,,1024,0,5,,,38,0,4
184320,note_off,,,,,1024,0,4,,,50,0,3
184832,note_on,,,,,0,0,1,,,69,96,0
184832,note_off,,,,,512,0,1,,,67,0,0
185344,note_on,,,,,0,0,5,,,38,96,4
185344,note_on,,,,,0,0,4,,,50,96,3
185344,note_off,,,,,1024,0,4,,,51,0,3
185344,note_off,,,,,1024,0,5,,,39,0,4
185856,note_on,,,,,0,0,1,,,70,96,0
185856,note_off,,,,,1024,0,1,,,69,0,0
186368,note_on,,,,,0,0,1,,,63,96,0
186368,note_on,,,,,0,0,4,,,48,96,3
186368,note_off,,,,,1024,0,4,,,50,0,3
186368,note_on,,,,,0,0,5,,,36,96,4
186368,note_off,,,,,512,0,1,,,70,0,0
186368,note_off,,,,,1024,0,5,,,38,0,4
186624,note_on,,,,,0,0,1,,,62,96,0
186624,note_off,,,,,256,0,1,,,63,0,0
186880,note_on,,,,,0,0,1,,,63,96,0
186880,note_off,,,,,256,0,1,,,62,0,0
187392,note_off,,,,,512,0,1,,,63,0,0
187392,note_on,,,,,0,0,5,,,39,96,4
187392,note_off,,,,,1024,0,5,,,36,0,4
187392,note_off,,,,,1024,0,4,,,48,0,3
187392,note_on,,,,,0,0,4,,,51,96,3
187904,note_on,,,,,512,0,1,,,60,96,0
188416,note_off,,,,,512,0,1,,,60,0,0
188416,note_on,,,,,0,0,1,,,69,96,0
188416,note_off,,,,,1024,0,4,,,51,0,3
188416,note_off,,,,,1024,0,5,,,39,0,4
188416,note_on,,,,,0,0,4,,,53,96,3
188416,note_on,,,,,0,0,5,,,41,96,4
188928,note_off,,,,,512,0,1,,,69,0,0
188928,note_on,,,,,0,0,1,,,70,96,0
189440,note_on,,,,,0,0,5,,,43,96,4
189440,note_on,,,,,0,0,4,,,55,96,3
189440,note_off,,,,,1024,0,4,,,53,0,3
189440,note_off,,,,,1024,0,5,,,41,0,4
189952,note_on,,,,,0,0,1,,,72,96,0
189952,note_off,,,,,1024,0,1,,,70,0,0
190464,note_off,,,,,1024,0,5,,,43,0,4
190464,note_on,,,,,0,0,5,,,45,96,4
190464,note_on,,,,,0,0,1,,,63,96,0
190464,note_off,,,,,512,0,1,,,72,0,0
190464,note_on,,,,,0,0,4,,,57,96,3
190464,note_off,,,,,1024,0,4,,,55,0,3
190720,note_off,,,,,256,0,1,,,63,0,0
190720,note_on,,,,,0,0,1,,,62,96,0
190976,note_off,,,,,256,0,1,,,62,0,0
190976,note_on,,,,,0,0,1,,,63,96,0
191488,note_off,,,,,512,0,1,,,63,0,0
191488,note_on,,,,,0,0,5,,,41,96,4
191488,note_off,,,,,1024,0,5,,,45,0,4
191488,note_on,,,,,0,0,4,,,53,96,3
191488,note_off,,,,,1024,0,4,,,57,0,3
192000,note_on,,,,,512,0,1,,,75,96,0
192512,note_off,,,,,1024,0,5,,,41,0,4
192512,note_on,,,,,0,0,4,,,58,96,3
192512,note_off,,,,,1024,0,4,,,53,0,3
192512,note_on,,,,,0,0,1,,,74,96,0
192512,note_off,,,,,512,0,1,,,75,0,0
192512,note_on,,,,,0,0,5,,,46,96,4
192768,note_off,,,,,256,0,1,,,74,0,0
192768,note_on,,,,,0,0,1,,,72,96,0
193024,note_off,,,,,256,0,1,,,72,0,0
193024,note_on,,,,,0,0,1,,,70,96,0
193536,note_off,,,,,1024,0,4,,,58,0,3
193536,note_on,,,,,0,0,4,,,57,96,3
193536,note_on,,,,,0,0,5,,,45,96,4
193536,note_off,,,,,1024,0,5,,,46,0,4
193792,note_on,,,,,0,0,1,,,69,96,0
193792,note_off,,,,,768,0,1,,,70,0,0
194048,note_on,,,,,0,0,1,,,70,96,0
194048,note_off,,,,,256,0,1,,,69,0,0
194560,note_off,,,,,1024,0,5,,,45,0,4
194560,note_on,,,,,0,0,5,,,43,96,4
194560,note_on,,,,,0,0,4,,,55,96,3
194560,note_off,,,,,1024,0,4,,,57,0,3
194816,note_on,,,,,0,0,1,,,69,96,0
194816,note_off,,,,,768,0,1,,,70,0,0
195072,note_off,,,,,256,0,1,,,69,0,0
195072,note_on,,,,,0,0,1,,,67,96,0
195328,note_off,,,,,256,0,1,,,67,0,0
195328,note_on,,,,,0,0,1,,,65,96,0
195584,note_off,,,,,1024,0,5,,,43,0,4
195584,note_on,,,,,0,0,1,,,63,96,0
195584,note_off,,,,,256,0,1,,,65,0,0
195584,note_on,,,,,0,0,5,,,41,96,4
195584,note_off,,,,,1024,0,4,,,55,0,3
195584,note_on,,,,,0,0,4,,,53,96,3
195840,note_off,,,,,256,0,1,,,63,0,0
195840,note_on,,,,,0,0,1,,,62,96,0
196096,note_off,,,,,256,0,1,,,62,0,0
196096,note_on,,,,,0,0,1,,,60,96,0
196352,note_off,,,,,256,0,1,,,60,0,0
196352,note_on,,,,,0,0,1,,,58,96,0
196608,note_off,,,,,256,0,1,,,58,0,0
196608,note_on,,,,,0,0,5,,,39,96,4
196608,note_off,,,,,1024,0,5,,,41,0,4
196608,note_on,,,,,0,0,4,,,51,96,3
196608,note_on,,,,,0,0,1,,,60,96,0
196608,note_off,,,,,1024,0,4,,,53,0,3
196864,note_on,,,,,0,0,1,,,62,96,0
196864,note_off,,,,,256,0,1,,,60,0,0
197120,note_on,,,,,0,0,1,,,63,96,0
197120,note_off,,,,,256,0,1,,,62,0,0
197632,note_off,,,,,1024,0,4,,,51,0,3
197632,note_on,,,,,0,0,4,,,50,96,3
197632,note_off,,,,,512,0,1,,,63,0,0
197632,note_on,,,,,0,0,1,,,63,96,0
197632,note_off,,,,,1024,0,5,,,39,0,4
197632,note_on,,,,,0,0,5,,,38,96,4
197888,note_off,,,,,256,0,1,,,63,0,0
197888,note_on,,,,,0,0,1,,,62,96,0
198144,note_off,,,,,256,0,1,,,62,0,0
198144,note_on,,,,,0,0,1,,,63,96,0
198656,note_off,,,,,1024,0,5,,,38,0,4
198656,note_off,,,,,1024,0,4,,,50,0,3
198656,note_on,,,,,0,0,4,,,48,96,3
198656,note_on,,,,,0,0,5,,,36,96,4
198912,note_off,,,,,768,0,1,,,63,0,0
198912,note_on,,,,,0,0,1,,,69,96,0
199168,note_on,,,,,0,0,1,,,70,96,0
199168,note_off,,,,,256,0,1,,,69,0,0
199424,note_off,,,,,256,0,1,,,70,0,0
199424,note_on,,,,,0,0,1,,,72,96,0
199680,note_on,,,,,0,0,1,,,70,96,0
199680,note_off,,,,,256,0,1,,,72,0,0
199680,note_on,,,,,0,0,5,,,39,96,4
199680,note_off,,,,,1024,0,5,,,36,0,4
199680,note_off,,,,,1024,0,4,,,48,0,3
199680,note_on,,,,,0,0,4,,,51,96,3
199936,note_on,,,,,0,0,1,,,69,96,0
199936,note_off,,,,,256,0,1,,,70,0,0
200192,note_on,,,,,0,0,1,,,67,96,0
200192,note_off,,,,,256,0,1,,,69,0,0
200448,note_off,,,,,256,0,1,,,67,0,0
200448,note_on,,,,,0,0,1,,,65,96,0
200704,note_on,,,,,0,0,4,,,50,96,3
200704,note_off,,,,,1024,0,5,,,39,0,4
200704,note_on,,,,,0,0,5,,,38,96,4
200704,note_off,,,,,256,0,1,,,65,0,0
200704,note_on,,,,,0,0,1,,,70,96,0
200704,note_off,,,,,1024,0,4,,,51,0,3
201216,note_off,,,,,512,0,4,,,50,0,3
201216,note_on,,,,,0,0,4,,,46,96,3
201216,note_on,,,,,0,0,1,,,65,96,0
201216,note_off,,,,,512,0,1,,,70,0,0
201216,note_off,,,,,512,0,5,,,38,0,4
201216,note_on,,,,,0,0,5,,,34,96,4
201728,note_off,,,,,512,0,1,,,65,0,0
201728,note_on,,,,,0,0,4,,,53,96,3
201728,note_off,,,,,512,0,4,,,46,0,3
201728,note_off,,,,,512,0,5,,,34,0,4
201728,note_on,,,,,0,0,5,,,41,96,4
201728,note_on,,,,,0,0,1,,,62,96,0
202240,note_off,,,,,512,0,5,,,41,0,4
202240,note_on,,,,,0,0,1,,,60,96,0
202240,note_on,,,,,0,0,4,,,41,96,3
202240,note_on,,,,,0,0,5,,,29,96,4
202240,note_off,,,,,512,0,4,,,53,0,3
202240,note_off,,,,,512,0,1,,,62,0,0
202496,note_on,,,,,0,0,1,,,58,96,0
202496,note_off,,,,,256,0,1,,,60,0,0
202752,note_on,,,,,0,0,4,,,43,96,3
202752,note_off,,,,,512,0,5,,,29,0,4
202752,note_on,,,,,0,0,5,,,31,96,4
202752,note_off,,,,,256,0,1,,,58,0,0
202752,note_off,,,,,512,0,4,,,41,0,3
202752,note_on,,,,,0,0,1,,,58,96,0
203008,note_off,,,,,256,0,1,,,58,0,0
203008,note_on,,,,,0,0,1,,,63,96,0
203264,note_off,,,,,256,0,1,,,63,0,0
203264,note_on,,,,,0,0,1,,,62,96,0
203264,note_off,,,,,512,0,5,,,31,0,4
203264,note_off,,,,,512,0,4,,,43,0,3
203264,note_on,,,,,0,0,4,,,45,96,3
203264,note_on,,,,,0,0,5,,,33,96,4
203520,note_off,,,,,256,0,1,,,62,0,0
203520,note_on,,,,,0,0,1,,,60,96,0
203776,note_off,,,,,512,0,4,,,45,0,3
203776,note_off,,,,,512,0,5,,,33,0,4
203776,note_on,,,,,0,0,4,,,46,96,3
203776,note_on,,,,,0,0,1,,,62,96,0
203776,note_off,,,,,256,0,1,,,60,0,0
203776,note_on,,,,,0,0,5,,,34,96,4
204288,note_on,,,,,0,0,1,,,58,96,0
204288,note_on,,,,,0,0,4,,,38,96,3
204288,note_off,,,,,512,0,4,,,46,0,3
204288,note_on,,,,,0,0,5,,,26,96,4
204288,note_off,,,,,512,0,1,,,62,0,0
204288,note_off,,,,,512,0,5,,,34,0,4
204800,note_off,,,,,512,0,4,,,38,0,3
204800,note_on,,,,,0,0,4,,,39,96,3
204800,note_on,,,,,0,0,5,,,27,96,4
204800,note_off,,,,,512,0,1,,,58,0,0
204800,note_on,,,,,0,0,1,,,55,96,0
204800,note_off,,,,,512,0,5,,,26,0,4
205312,note_off,,,,,512,0,4,,,39,0,3
205312,note_on,,,,,0,0,4,,,36,96,3
205312,note_on,,,,,0,0,5,,,24,96,4
205312,note_off,,,,,512,0,5,,,27,0,4
205568,note_off,,,,,768,0,1,,,55,0,0
205568,note_on,,,,,0,0,1,,,57,96,0
205824,note_on,,,,,0,0,1,,,57,96,0
205824,note_on,,,,,0,0,4,,,41,96,3
205824,note_off,,,,,512,0,4,,,36,0,3
205824,note_off,,,,,512,0,5,,,24,0,4
205824,note_on,,,,,0,0,5,,,29,96,4
205824,note_off,,,,,256,0,1,,,57,0,0
206592,note_on,,,,,0,0,1,,,55,96,0
206592,note_off,,,,,768,0,1,,,57,0,0
206720,note_on,,,,,0,0,1,,,57,96,0
206720,note_off,,,,,128,0,1,,,55,0,0
206848,note_off,,,,,1024,0,4,,,41,0,3
206848,note_on,,,,,0,0,4,,,46,96,3
206848,note_off,,,,,1024,0,5,,,29,0,4
206848,note_on,,,,,0,0,1,,,58,96,0
206848,note_off,,,,,128,0,1,,,57,0,0
206848,note_on,,,,,0,0,5,,,34,96,4
207360,note_off,,,,,512,0,4,,,46,0,3
207360,note_on,,,,,0,0,4,,,48,96,3
207360,note_on,,,,,0,0,5,,,36,96,4
207360,note_off,,,,,512,0,5,,,34,0,4
207872,note_off,,,,,512,0,4,,,48,0,3
207872,note_on,,,,,0,0,4,,,46,96,3
207872,note_on,,,,,29696,0,2,,,58,96,1
207872,note_on,,,,,0,0,5,,,34,96,4
207872,note_off,,,,,512,0,5,,,36,0,4
207872,note_on,,,,,29696,0,3,,,58,96,2
207872,note_off,,,,,1024,0,1,,,58,0,0
208384,note_on,,,,,0,0,5,,,32,96,4
208384,note_off,,,,,512,0,5,,,34,0,4
208384,note_on,,,,,512,0,1,,,62,96,0
208384,note_off,,,,,512,0,4,,,46,0,3
208384,note_on,,,,,0,0,4,,,44,96,3
208896,note_on,,,,,0,0,2,,,58,96,1
208896,note_off,,,,,512,0,4,,,44,0,3
208896,note_on,,,,,0,0,4,,,43,96,3
208896,note_off,,,,,512,0,5,,,32,0,4
208896,note_off,,,,,1024,0,2,,,58,0,1
208896,note_off,,,,,512,0,1,,,62,0,0
208896,note_on,,,,,0,0,3,,,58,96,2
208896,note_off,,,,,1024,0,3,,,58,0,2
208896,note_on,,,,,0,0,1,,,63,96,0
208896,note_on,,,,,0,0,5,,,31,96,4
209408,note_on,,,,,0,0,5,,,29,96,4
209408,note_off,,,,,512,0,5,,,31,0,4
209408,note_on,,,,,0,0,4,,,41,96,3
209408,note_on,,,,,0,0,1,,,65,96,0
209408,note_off,,,,,512,0,1,,,63,0,0
209408,note_off,,,,,512,0,4,,,43,0,3
209920,note_off,,,,,1024,0,2,,,58,0,1
209920,note_off,,,,,512,0,5,,,29,0,4
209920,note_on,,,,,0,0,5,,,27,96,4
209920,note_on,,,,,0,0,2,,,56,96,1
209920,note_on,,,,,0,0,4,,,39,96,3
209920,note_off,,,,,512,0,4,,,41,0,3
209920,note_on,,,,,0,0,3,,,56,96,2
209920,note_off,,,,,1024,0,3,,,58,0,2
210432,note_off,,,,,512,0,4,,,39,0,3
210432,note_on,,,,,0,0,4,,,38,96,3
210432,note_on,,,,,0,0,5,,,26,96,4
210432,note_off,,,,,512,0,5,,,27,0,4
210432,note_off,,,,,1024,0,1,,,65,0,0
210432,note_on,,,,,0,0,1,,,67,96,0
210944,note_off,,,,,512,0,5,,,26,0,4
210944,note_on,,,,,0,0,1,,,58,96,0
210944,note_on,,,,,0,0,3,,,55,96,2
210944,note_off,,,,,1024,0,3,,,56,0,2
210944,note_on,,,,,0,0,2,,,55,96,1
210944,note_off,,,,,1024,0,2,,,56,0,1
210944,note_on,,,,,0,0,5,,,27,96,4
210944,note_on,,,,,0,0,4,,,39,96,3
210944,note_off,,,,,512,0,4,,,38,0,3
210944,note_off,,,,,512,0,1,,,67,0,0
211200,note_off,,,,,256,0,1,,,58,0,0
211200,note_on,,,,,0,0,1,,,56,96,0
211456,note_on,,,,,0,0,1,,,58,96,0
211456,note_off,,,,,512,0,5,,,27,0,4
211456,note_on,,,,,0,0,5,,,31,96,4
211456,note_on,,,,,0,0,4,,,43,96,3
211456,note_off,,,,,256,0,1,,,56,0,0
211456,note_off,,,,,512,0,4,,,39,0,3
211968,note_on,,,,,0,0,3,,,53,96,2
211968,note_off,,,,,512,0,5,,,31,0,4
211968,note_on,,,,,0,0,5,,,32,96,4
211968,note_off,,,,,512,0,1,,,58,0,0
211968,note_off,,,,,1024,0,3,,,55,0,2
211968,note_on,,,,,0,0,2,,,53,96,1
211968,note_on,,,,,0,0,4,,,44,96,3
211968,note_off,,,,,512,0,4,,,43,0,3
211968,note_off,,,,,1024,0,2,,,55,0,1
212480,note_on,,,,,0,0,5,,,34,96,4
212480,note_on,,,,,512,0,1,,,70,96,0
212480,note_on,,,,,0,0,4,,,46,96,3
212480,note_off,,,,,512,0,4,,,44,0,3
212480,note_off,,,,,512,0,5,,,32,0,4
212992,note_on,,,,,0,0,4,,,48,96,3
212992,note_off,,,,,512,0,4,,,46,0,3
212992,note_off,,,,,512,0,1,,,70,0,0
212992,note_off,,,,,512,0,5,,,34,0,4
212992,note_on,,,,,0,0,3,,,51,96,2
212992,note_off,,,,,1024,0,3,,,53,0,2
212992,note_off,,,,,1024,0,2,,,53,0,1
212992,note_on,,,,,0,0,2,,,51,96,1
212992,note_on,,,,,0,0,5,,,36,96,4
212992,note_on,,,,,0,0,1,,,70,96,0
213504,note_off,,,,,512,0,5,,,36,0,4
213504,note_off,,,,,512,0,4,,,48,0,3
213504,note_on,,,,,0,0,5,,,38,96,4
213504,note_on,,,,,0,0,4,,,50,96,3
214016,note_on,,,,,0,0,4,,,51,96,3
214016,note_off,,,,,512,0,4,,,50,0,3
214016,note_off,,,,,1024,0,1,,,70,0,0
214016,note_off,,,,,512,0,5,,,38,0,4
214016,note_on,,,,,0,0,5,,,39,96,4
214016,note_on,,,,,0,0,1,,,68,96,0
214272,note_off,,,,,256,0,1,,,68,0,0
214272,note_on,,,,,0,0,1,,,67,96,0
214528,note_off,,,,,256,0,1,,,67,0,0
214528,note_on,,,,,0,0,1,,,65,96,0
214784,note_off,,,,,256,0,1,,,65,0,0
214784,note_on,,,,,0,0,1,,,63,96,0
215040,note_off,,,,,256,0,1,,,63,0,0
215040,note_on,,,,,0,0,1,,,65,96,0
215040,note_off,,,,,1024,0,5,,,39,0,4
215040,note_on,,,,,0,0,5,,,34,96,4
215040,note_off,,,,,1024,0,4,,,51,0,3
215040,note_on,,,,,0,0,4,,,46,96,3
215040,note_off,,,,,2048,0,3,,,51,0,2
215040,note_off,,,,,2048,0,2,,,51,0,1
215296,note_on,,,,,0,0,1,,,63,96,0
215296,note_off,,,,,256,0,1,,,65,0,0
215552,note_on,,,,,0,0,1,,,62,96,0
215552,note_off,,,,,256,0,1,,,63,0,0
215808,note_on,,,,,0,0,1,,,60,96,0
215808,note_off,,,,,256,0,1,,,62,0,0
216064,note_off,,,,,1024,0,4,,,46,0,3
216064,note_off,,,,,1024,0,5,,,34,0,4
216064,note_on,,,,,0,0,5,,,32,96,4
216064,note_on,,,,,0,0,4,,,44,96,3
216064,note_on,,,,,0,0,1,,,58,96,0
216064,note_off,,,,,256,0,1,,,60,0,0
216576,note_off,,,,,512,0,1,,,58,0,0
216576,note_on,,,,,0,0,1,,,60,96,0
216832,note_off,,,,,256,0,1,,,60,0,0
216832,note_on,,,,,0,0,1,,,62,96,0
217088,note_off,,,,,1024,0,5,,,32,0,4
217088,note_on,,,,,0,0,1,,,63,96,0
217088,note_off,,,,,256,0,1,,,62,0,0
217088,note_on,,,,,0,0,5,,,31,96,4
217088,note_off,,,,,1024,0,4,,,44,0,3
217088,note_on,,,,,0,0,4,,,43,96,3
217344,note_on,,,,,0,0,1,,,65,96,0
217344,note_off,,,,,256,0,1,,,63,0,0
217600,note_on,,,,,0,0,1,,,67,96,0
217600,note_off,,,,,256,0,1,,,65,0,0
217856,note_off,,,,,256,0,1,,,67,0,0
217856,note_on,,,,,0,0,1,,,65,96,0
218112,note_on,,,,,0,0,4,,,39,96,3
218112,note_off,,,,,1024,0,5,,,31,0,4
218112,note_on,,,,,0,0,5,,,27,96,4
218112,note_off,,,,,256,0,1,,,65,0,0
218112,note_on,,,,,3072,0,2,,,58,96,1
218112,note_on,,,,,3072,0,3,,,58,96,2
218112,note_on,,,,,0,0,1,,,68,96,0
218112,note_off,,,,,1024,0,4,,,43,0,3
218368,note_off,,,,,256,0,1,,,68,0,0
218368,note_on,,,,,0,0,1,,,67,96,0
218624,note_on,,,,,0,0,1,,,65,96,0
218624,note_off,,,,,256,0,1,,,67,0,0
218880,note_on,,,,,0,0,1,,,63,96,0
218880,note_off,,,,,256,0,1,,,65,0,0
219136,note_on,,,,,0,0,1,,,67,96,0
219136,note_off,,,,,1024,0,3,,,58,0,2
219136,note_on,,,,,0,0,3,,,58,96,2
219136,note_off,,,,,256,0,1,,,63,0,0
219136,note_off,,,,,1024,0,2,,,58,0,1
219136,note_on,,,,,0,0,4,,,46,96,3
219136,note_on,,,,,0,0,5,,,34,96,4
219136,note_off,,,,,1024,0,5,,,27,0,4
219136,note_off,,,,,1024,0,4,,,39,0,3
219136,note_on,,,,,0,0,2,,,58,96,1
219648,note_on,,,,,0,0,5,,,36,96,4
219648,note_off,,,,,512,0,5,,,34,0,4
219648,note_off,,,,,512,0,1,,,67,0,0
219648,note_on,,,,,0,0,1,,,65,96,0
219648,note_on,,,,,0,0,4,,,48,96,3
219648,note_off,,,,,512,0,4,,,46,0,3
220160,note_off,,,,,512,0,5,,,36,0,4
220160,note_on,,,,,0,0,5,,,38,96,4
220160,note_off,,,,,512,0,1,,,65,0,0
220160,note_off,,,,,512,0,4,,,48,0,3
220160,note_on,,,,,0,0,4,,,50,96,3
220160,note_on,,,,,0,0,2,,,56,96,1
220160,note_off,,,,,1024,0,2,,,58,0,1
220160,note_on,,,,,0,0,3,,,56,96,2
220160,note_off,,,,,1024,0,3,,,58,0,2
220672,note_off,,,,,512,0,4,,,50,0,3
220672,note_on,,,,,0,0,4,,,46,96,3
220672,note_on,,,,,0,0,5,,,34,96,4
220672,note_off,,,,,512,0,5,,,38,0,4
221184,note_on,,,,,0,0,3,,,55,96,2
221184,note_off,,,,,512,0,4,,,46,0,3
221184,note_on,,,,,0,0,4,,,51,96,3
221184,note_on,,,,,0,0,2,,,55,96,1
221184,note_off,,,,,1024,0,3,,,56,0,2
221184,note_off,,,,,1024,0,2,,,56,0,1
221184,note_on,,,,,0,0,5,,,39,96,4
221184,note_off,,,,,512,0,5,,,34,0,4
221696,note_off,,,,,512,0,4,,,51,0,3
221696,note_on,,,,,0,0,4,,,50,96,3
221696,note_on,,,,,0,0,5,,,38,96,4
221696,note_off,,,,,512,0,5,,,39,0,4
222208,note_on,,,,,0,0,2,,,53,96,1
222208,note_off,,,,,512,0,4,,,50,0,3
222208,note_off,,,,,512,0,5,,,38,0,4
222208,note_on,,,,,0,0,5,,,36,96,4
222208,note_on,,,,,0,0,3,,,53,96,2
222208,note_off,,,,,1024,0,3,,,55,0,2
222208,note_off,,,,,1024,0,2,,,55,0,1
222208,note_on,,,,,0,0,4,,,48,96,3
222720,note_on,,,,,0,0,4,,,47,96,3
222720,note_off,,,,,512,0,4,,,48,0,3
222720,note_on,,,,,2560,0,1,,,67,96,0
222720,note_off,,,,,512,0,5,,,36,0,4
222720,note_on,,,,,0,0,5,,,35,96,4
223232,note_off,,,,,512,0,1,,,67,0,0
223232,note_on,,,,,0,0,5,,,36,96,4
223232,note_off,,,,,512,0,5,,,35,0,4
223232,note_on,,,,,0,0,2,,,51,96,1
223232,note_off,,,,,1024,0,2,,,53,0,1
223232,note_off,,,,,1024,0,3,,,53,0,2
223232,note_on,,,,,0,0,3,,,51,96,2
223232,note_on,,,,,0,0,4,,,48,96,3
223232,note_off,,,,,512,0,4,,,47,0,3
223232,note_on,,,,,0,0,1,,,72,96,0
223488,note_on,,,,,0,0,1,,,74,96,0
223488,note_off,,,,,256,0,1,,,72,0,0
223744,note_off,,,,,512,0,5,,,36,0,4
223744,note_on,,,,,0,0,5,,,43,96,4
223744,note_off,,,,,256,0,1,,,74,0,0
223744,note_on,,,,,0,0,1,,,75,96,0
223744,note_off,,,,,512,0,4,,,48,0,3
223744,note_on,,,,,0,0,4,,,55,96,3
224256,note_on,,,,,0,0,5,,,48,96,4
224256,note_off,,,,,512,0,5,,,43,0,4
224256,note_off,,,,,512,0,4,,,55,0,3
224256,note_on,,,,,0,0,1,,,75,96,0
224256,note_on,,,,,0,0,4,,,60,96,3
224256,note_off,,,,,512,0,1,,,75,0,0
224768,note_on,,,,,0,0,1,,,74,96,0
224768,note_off,,,,,512,0,1,,,75,0,0
224768,note_on,,,,,0,0,5,,,46,96,4
224768,note_off,,,,,512,0,5,,,48,0,4
224768,note_off,,,,,512,0,4,,,60,0,3
224768,note_on,,,,,0,0,4,,,58,96,3
225280,note_on,,,,,0,0,1,,,77,96,0
225280,note_off,,,,,512,0,1,,,74,0,0
225280,note_off,,,,,512,0,4,,,58,0,3
225280,note_on,,,,,0,0,4,,,56,96,3
225280,note_off,,,,,2048,0,3,,,51,0,2
225280,note_off,,,,,2048,0,2,,,51,0,1
225280,note_off,,,,,512,0,5,,,46,0,4
225280,note_on,,,,,0,0,5,,,44,96,4
225792,note_off,,,,,512,0,1,,,77,0,0
225792,note_on,,,,,0,0,1,,,75,96,0
226304,note_off,,,,,1024,0,5,,,44,0,4
226304,note_on,,,,,0,0,5,,,39,96,4
226304,note_off,,,,,512,0,1,,,75,0,0
226304,note_on,,,,,0,0,4,,,51,96,3
226304,note_off,,,,,1024,0,4,,,56,0,3
226304,note_on,,,,,0,0,1,,,67,96,0
226816,note_off,,,,,512,0,1,,,67,0,0
226816,note_on,,,,,0,0,1,,,65,96,0
227328,note_off,,,,,1024,0,5,,,39,0,4
227328,note_on,,,,,0,0,5,,,41,96,4
227328,note_on,,,,,0,0,1,,,75,96,0
227328,note_off,,,,,512,0,1,,,65,0,0
227328,note_on,,,,,0,0,4,,,53,96,3
227328,note_off,,,,,1024,0,4,,,51,0,3
227584,note_off,,,,,256,0,1,,,75,0,0
227584,note_on,,,,,0,0,1,,,72,96,0
227840,note_off,,,,,256,0,1,,,72,0,0
227840,note_on,,,,,0,0,1,,,74,96,0
228352,note_off,,,,,512,0,1,,,74,0,0
228352,note_on,,,,,0,0,1,,,65,96,0
228352,note_off,,,,,1024,0,5,,,41,0,4
228352,note_on,,,,,0,0,5,,,43,96,4
228352,note_off,,,,,1024,0,4,,,53,0,3
228352,note_on,,,,,0,0,4,,,55,96,3
228864,note_off,,,,,512,0,1,,,65,0,0
228864,note_on,,,,,0,0,1,,,63,96,0
229376,note_off,,,,,1024,0,5,,,43,0,4
229376,note_off,,,,,1024,0,4,,,55,0,3
229376,note_on,,,,,0,0,4,,,56,96,3
229376,note_on,,,,,4096,0,3,,,53,96,2
229376,note_on,,,,,0,0,5,,,44,96,4
229376,note_off,,,,,512,0,1,,,63,0,0
229376,note_on,,,,,0,0,1,,,71,96,0
229376,note_on,,,,,4096,0,2,,,53,96,1
229888,note_on,,,,,0,0,5,,,43,96,4
229888,note_off,,,,,512,0,5,,,44,0,4
229888,note_on,,,,,0,0,1,,,72,96,0
229888,note_off,,,,,512,0,1,,,71,0,0
229888,note_on,,,,,0,0,4,,,55,96,3
229888,note_off,,,,,512,0,4,,,56,0,3
230400,note_on,,,,,0,0,3,,,55,96,2
230400,note_on,,,,,0,0,5,,,41,96,4
230400,note_off,,,,,512,0,5,,,43,0,4
230400,note_on,,,,,0,0,2,,,55,96,1
230400,note_off,,,,,512,0,4,,,55,0,3
230400,note_on,,,,,0,0,4,,,53,96,3
230400,note_off,,,,,1024,0,2,,,53,0,1
230400,note_off,,,,,1024,0,3,,,53,0,2
230400,note_off,,,,,512,0,1,,,72,0,0
230912,note_off,,,,,512,0,5,,,41,0,4
230912,note_on,,,,,512,0,1,,,67,96,0
230912,note_on,,,,,0,0,5,,,39,96,4
230912,note_on,,,,,0,0,4,,,51,96,3
230912,note_off,,,,,512,0,4,,,53,0,3
231424,note_off,,,,,512,0,4,,,51,0,3
231424,note_off,,,,,1024,0,3,,,55,0,2
231424,note_on,,,,,0,0,3,,,56,96,2
231424,note_on,,,,,0,0,4,,,53,96,3
231424,note_off,,,,,1024,0,2,,,55,0,1
231424,note_on,,,,,0,0,5,,,41,96,4
231424,note_off,,,,,512,0,1,,,67,0,0
231424,note_on,,,,,0,0,1,,,67,96,0
231424,note_on,,,,,0,0,2,,,56,96,1
231424,note_off,,,,,512,0,5,,,39,0,4
231936,note_off,,,,,512,0,4,,,53,0,3
231936,note_off,,,,,512,0,5,,,41,0,4
231936,note_on,,,,,0,0,5,,,39,96,4
231936,note_on,,,,,0,0,4,,,51,96,3
232448,note_on,,,,,0,0,1,,,65,96,0
232448,note_on,,,,,0,0,4,,,50,96,3
232448,note_off,,,,,1024,0,1,,,67,0,0
232448,note_off,,,,,512,0,4,,,51,0,3
232448,note_off,,,,,512,0,5,,,39,0,4
232448,note_on,,,,,0,0,5,,,38,96,4
232704,note_on,,,,,0,0,1,,,63,96,0
232704,note_off,,,,,256,0,1,,,65,0,0
232960,note_off,,,,,512,0,5,,,38,0,4
232960,note_on,,,,,0,0,5,,,36,96,4
232960,note_off,,,,,512,0,4,,,50,0,3
232960,note_off,,,,,256,0,1,,,63,0,0
232960,note_on,,,,,0,0,1,,,62,96,0
232960,note_on,,,,,0,0,4,,,48,96,3
233216,note_on,,,,,0,0,1,,,60,96,0
233216,note_off,,,,,256,0,1,,,62,0,0
233472,note_on,,,,,0,0,1,,,62,96,0
233472,note_on,,,,,0,0,4,,,47,96,3
233472,note_off,,,,,512,0,4,,,48,0,3
233472,note_off,,,,,512,0,5,,,36,0,4
233472,note_off,,,,,2048,0,3,,,56,0,2
233472,note_on,,,,,0,0,5,,,35,96,4
233472,note_on,,,,,0,0,2,,,55,96,1
233472,note_off,,,,,2048,0,2,,,56,0,1
233472,note_off,,,,,256,0,1,,,60,0,0
233472,note_on,,,,,0,0,3,,,55,96,2
233728,note_on,,,,,0,0,1,,,60,96,0
233728,note_off,,,,,256,0,1,,,62,0,0
233984,note_off,,,,,512,0,5,,,35,0,4
233984,note_on,,,,,0,0,1,,,59,96,0
233984,note_off,,,,,256,0,1,,,60,0,0
233984,note_on,,,,,0,0,5,,,31,96,4
233984,note_off,,,,,512,0,4,,,47,0,3
233984,note_on,,,,,0,0,4,,,43,96,3
234240,note_on,,,,,0,0,1,,,57,96,0
234240,note_off,,,,,256,0,1,,,59,0,0
234496,note_off,,,,,512,0,5,,,31,0,4
234496,note_on,,,,,0,0,4,,,55,96,3
234496,note_on,,,,,0,0,5,,,43,96,4
234496,note_on,,,,,0,0,1,,,55,96,0
234496,note_off,,,,,256,0,1,,,57,0,0
234496,note_off,,,,,512,0,4,,,43,0,3
235008,note_on,,,,,0,0,5,,,41,96,4
235008,note_on,,,,,0,0,1,,,57,96,0
235008,note_off,,,,,512,0,1,,,55,0,0
235008,note_off,,,,,512,0,5,,,43,0,4
235008,note_off,,,,,512,0,4,,,55,0,3
235008,note_on,,,,,0,0,4,,,53,96,3
235264,note_on,,,,,0,0,1,,,59,96,0
235264,note_off,,,,,256,0,1,,,57,0,0
235520,note_off,,,,,2048,0,2,,,55,0,1
235520,note_off,,,,,2048,0,3,,,55,0,2
235520,note_on,,,,,0,0,1,,,60,96,0
235520,note_on,,,,,0,0,4,,,51,96,3
235520,note_off,,,,,256,0,1,,,59,0,0
235520,note_on,,,,,0,0,5,,,39,96,4
235520,note_off,,,,,512,0,5,,,41,0,4
235520,note_off,,,,,512,0,4,,,53,0,3
235776,note_on,,,,,0,0,1,,,62,96,0
235776,note_off,,,,,256,0,1,,,60,0,0
236032,note_on,,,,,0,0,1,,,63,96,0
236032,note_off,,,,,256,0,1,,,62,0,0
236288,note_on,,,,,0,0,1,,,62,96,0
236288,note_off,,,,,256,0,1,,,63,0,0
236544,note_off,,,,,1024,0,4,,,51,0,3
236544,note_on,,,,,0,0,4,,,48,96,3
236544,note_on,,,,,0,0,5,,,36,96,4
236544,note_off,,,,,1024,0,5,,,39,0,4
236544,note_on,,,,,0,0,1,,,65,96,0
236544,note_off,,,,,256,0,1,,,62,0,0
236800,note_off,,,,,256,0,1,,,65,0,0
236800,note_on,,,,,0,0,1,,,63,96,0
237056,note_off,,,,,256,0,1,,,63,0,0
237056,note_on,,,,,0,0,1,,,62,96,0
237312,note_on,,,,,0,0,1,,,60,96,0
237312,note_off,,,,,256,0,1,,,62,0,0
237568,note_off,,,,,1024,0,5,,,36,0,4
237568,note_on,,,,,0,0,5,,,43,96,4
237568,note_off,,,,,1024,0,4,,,48,0,3
237568,note_on,,,,,0,0,4,,,55,96,3
237568,note_off,,,,,256,0,1,,,60,0,0
237568,note_on,,,,,0,0,1,,,63,96,0
238080,note_on,,,,,0,0,1,,,62,96,0
238080,note_off,,,,,512,0,1,,,63,0,0
238592,note_on,,,,,0,0,4,,,59,96,3
238592,note_off,,,,,1024,0,4,,,55,0,3
238592,note_off,,,,,512,0,1,,,62,0,0
238592,note_on,,,,,0,0,5,,,47,96,4
238592,note_off,,,,,1024,0,5,,,43,0,4
239104,note_on,,,,,512,0,1,,,55,96,0
239616,note_off,,,,,512,0,1,,,55,0,0
239616,note_on,,,,,0,0,5,,,48,96,4
239616,note_on,,,,,0,0,4,,,60,96,3
239616,note_off,,,,,1024,0,5,,,47,0,4
239616,note_off,,,,,1024,0,4,,,59,0,3
239616,note_on,,,,,0,0,1,,,63,96,0
240128,note_on,,,,,0,0,1,,,66,96,0
240128,note_off,,,,,512,0,1,,,63,0,0
240640,note_off,,,,,1024,0,4,,,60,0,3
240640,note_on,,,,,0,0,5,,,46,96,4
240640,note_off,,,,,1024,0,5,,,48,0,4
240640,note_on,,,,,0,0,4,,,58,96,3
241152,note_on,,,,,0,0,1,,,67,96,0
241152,note_off,,,,,1024,0,1,,,66,0,0
241664,note_on,,,,,0,0,5,,,45,96,4
241664,note_on,,,,,0,0,1,,,60,96,0
241664,note_off,,,,,512,0,1,,,67,0,0
241664,note_on,,,,,0,0,4,,,57,96,3
241664,note_off,,,,,1024,0,4,,,58,0,3
241664,note_off,,,,,1024,0,5,,,46,0,4
241920,note_on,,,,,0,0,1,,,58,96,0
241920,note_off,,,,,256,0,1,,,60,0,0
242176,note_on,,,,,0,0,1,,,60,96,0
242176,note_off,,,,,256,0,1,,,58,0,0
242688,note_off,,,,,512,0,1,,,60,0,0
242688,note_on,,,,,0,0,5,,,36,96,4
242688,note_off,,,,,1024,0,5,,,45,0,4
242688,note_on,,,,,0,0,4,,,48,96,3
242688,note_off,,,,,1024,0,4,,,57,0,3
243200,note_on,,,,,512,0,1,,,57,96,0
243712,note_off,,,,,1024,0,4,,,48,0,3
243712,note_off,,,,,1024,0,5,,,36,0,4
243712,note_off,,,,,512,0,1,,,57,0,0
243712,note_on,,,,,0,0,1,,,66,96,0
243712,note_on,,,,,0,0,4,,,50,96,3
243712,note_on,,,,,0,0,5,,,38,96,4
244224,note_off,,,,,512,0,1,,,66,0,0
244224,note_on,,,,,0,0,1,,,67,96,0
244736,note_off,,,,,1024,0,4,,,50,0,3
244736,note_on,,,,,0,0,5,,,39,96,4
244736,note_on,,,,,0,0,4,,,51,96,3
244736,note_off,,,,,1024,0,5,,,38,0,4
245248,note_on,,,,,0,0,1,,,69,96,0
245248,note_off,,,,,1024,0,1,,,67,0,0
245760,note_on,,,,,0,0,1,,,60,96,0
245760,note_off,,,,,512,0,1,,,69,0,0
245760,note_on,,,,,0,0,4,,,42,96,3
245760,note_off,,,,,1024,0,4,,,51,0,3
245760,note_on,,,,,0,0,5,,,30,96,4
245760,note_off,,,,,1024,0,5,,,39,0,4
246016,note_on,,,,,0,0,1,,,58,96,0
246016,note_off,,,,,256,0,1,,,60,0,0
246272,note_on,,,,,0,0,1,,,60,96,0
246272,note_off,,,,,256,0,1,,,58,0,0
246784,note_off,,,,,512,0,1,,,60,0,0
246784,note_off,,,,,1024,0,5,,,30,0,4
246784,note_on,,,,,0,0,4,,,38,96,3
246784,note_off,,,,,1024,0,4,,,42,0,3
246784,note_on,,,,,0,0,5,,,26,96,4
247296,note_on,,,,,512,0,1,,,72,96,0
247808,note_off,,,,,1024,0,5,,,26,0,4
247808,note_on,,,,,0,0,1,,,70,96,0
247808,note_on,,,,,0,0,5,,,31,96,4
247808,note_off,,,,,1024,0,4,,,38,0,3
247808,note_on,,,,,0,0,4,,,43,96,3
247808,note_off,,,,,512,0,1,,,72,0,0
248064,note_on,,,,,0,0,1,,,69,96,0
248064,note_off,,,,,256,0,1,,,70,0,0
248320,note_off,,,,,256,0,1,,,69,0,0
248320,note_on,,,,,0,0,1,,,67,96,0
248832,note_on,,,,,0,0,5,,,29,96,4
248832,note_off,,,,,1024,0,4,,,43,0,3
248832,note_on,,,,,0,0,4,,,41,96,3
248832,note_off,,,,,1024,0,5,,,31,0,4
249088,note_off,,,,,768,0,1,,,67,0,0
249088,note_on,,,,,0,0,1,,,66,96,0
249344,note_on,,,,,0,0,1,,,67,96,0
249344,note_off,,,,,256,0,1,,,66,0,0
249856,note_off,,,,,1024,0,4,,,41,0,3
249856,note_on,,,,,0,0,4,,,51,96,3
249856,note_on,,,,,0,0,5,,,39,96,4
249856,note_off,,,,,1024,0,5,,,29,0,4
250112,note_off,,,,,768,0,1,,,67,0,0
250112,note_on,,,,,0,0,1,,,65,96,0
250368,note_off,,,,,256,0,1,,,65,0,0
250368,note_on,,,,,0,0,1,,,63,96,0
250624,note_off,,,,,256,0,1,,,63,0,0
250624,note_on,,,,,0,0,1,,,62,96,0
250880,note_off,,,,,256,0,1,,,62,0,0
250880,note_on,,,,,0,0,1,,,60,96,0
250880,note_on,,,,,0,0,5,,,38,96,4
250880,note_off,,,,,1024,0,4,,,51,0,3
250880,note_off,,,,,1024,0,5,,,39,0,4
250880,note_on,,,,,0,0,4,,,50,96,3
251136,note_off,,,,,256,0,1,,,60,0,0
251136,note_on,,,,,0,0,1,,,58,96,0
251392,note_off,,,,,256,0,1,,,58,0,0
251392,note_on,,,,,0,0,1,,,57,96,0
251648,note_off,,,,,256,0,1,,,57,0,0
251648,note_on,,,,,0,0,1,,,55,96,0
251904,note_off,,,,,1024,0,4,,,50,0,3
251904,note_on,,,,,0,0,1,,,56,96,0
251904,note_off,,,,,256,0,1,,,55,0,0
251904,note_off,,,,,1024,0,5,,,38,0,4
251904,note_on,,,,,0,0,4,,,48,96,3
251904,note_on,,,,,0,0,5,,,36,96,4
252160,note_on,,,,,0,0,1,,,58,96,0
252160,note_off,,,,,256,0,1,,,56,0,0
252416,note_on,,,,,0,0,1,,,60,96,0
252416,note_off,,,,,256,0,1,,,58,0,0
252928,note_on,,,,,0,0,5,,,34,96,4
252928,note_on,,,,,0,0,1,,,60,96,0
252928,note_off,,,,,512,0,1,,,60,0,0
252928,note_on,,,,,0,0,4,,,46,96,3
252928,note_off,,,,,1024,0,4,,,48,0,3
252928,note_off,,,,,1024,0,5,,,36,0,4
253184,note_off,,,,,256,0,1,,,60,0,0
253184,note_on,,,,,0,0,1,,,58,96,0
253440,note_off,,,,,256,0,1,,,58,0,0
253440,note_on,,,,,0,0,1,,,60,96,0
253952,note_off,,,,,1024,0,5,,,34,0,4
253952,note_on,,,,,0,0,5,,,33,96,4
253952,note_on,,,,,0,0,4,,,45,96,3
253952,note_off,,,,,1024,0,4,,,46,0,3
254208,note_off,,,,,768,0,1,,,60,0,0
254208,note_on,,,,,0,0,1,,,66,96,0
254464,note_on,,,,,0,0,1,,,67,96,0
254464,note_off,,,,,256,0,1,,,66,0,0
254720,note_off,,,,,256,0,1,,,67,0,0
254720,note_on,,,,,0,0,1,,,69,96,0
254976,note_off,,,,,256,0,1,,,69,0,0
254976,note_off,,,,,1024,0,4,,,45,0,3
254976,note_on,,,,,0,0,4,,,48,96,3
254976,note_off,,,,,1024,0,5,,,33,0,4
254976,note_on,,,,,0,0,1,,,67,96,0
254976,note_on,,,,,0,0,5,,,36,96,4
255232,note_off,,,,,256,0,1,,,67,0,0
255232,note_on,,,,,0,0,1,,,66,96,0
255488,note_off,,,,,256,0,1,,,66,0,0
255488,note_on,,,,,0,0,1,,,64,96,0
255744,note_on,,,,,0,0,1,,,62,96,0
255744,note_off,,,,,256,0,1,,,64,0,0
256000,note_off,,,,,256,0,1,,,62,0,0
256000,note_on,,,,,0,0,1,,,67,96,0
256000,note_on,,,,,0,0,4,,,46,96,3
256000,note_off,,,,,1024,0,4,,,48,0,3
256000,note_off,,,,,1024,0,5,,,36,0,4
256000,note_on,,,,,0,0,5,,,34,96,4
256512,note_off,,,,,512,0,5,,,34,0,4
256512,note_on,,,,,0,0,4,,,43,96,3
256512,note_on,,,,,0,0,5,,,31,96,4
256512,note_off,,,,,512,0,4,,,46,0,3
256512,note_off,,,,,512,0,1,,,67,0,0
256512,note_on,,,,,0,0,1,,,62,96,0
257024,note_on,,,,,0,0,5,,,38,96,4
257024,note_on,,,,,0,0,1,,,58,96,0
257024,note_off,,,,,512,0,5,,,31,0,4
257024,note_off,,,,,512,0,1,,,62,0,0
257024,note_off,,,,,512,0,4,,,43,0,3
257024,note_on,,,,,0,0,4,,,50,96,3
257536,note_on,,,,,0,0,5,,,26,96,4
257536,note_off,,,,,512,0,5,,,38,0,4
257536,note_on,,,,,0,0,1,,,57,96,0
257536,note_off,,,,,512,0,1,,,58,0,0
257536,note_off,,,,,512,0,4,,,50,0,3
257536,note_on,,,,,0,0,4,,,38,96,3
257792,note_on,,,,,0,0,1,,,55,96,0
257792,note_off,,,,,256,0,1,,,57,0,0
258048,note_on,,,,,0,0,5,,,31,96,4
258048,note_off,,,,,512,0,5,,,26,0,4
258048,note_off,,,,,256,0,1,,,55,0,0
258048,note_on,,,,,0,0,1,,,55,96,0
258048,note_off,,,,,512,0,4,,,38,0,3
258048,note_on,,,,,0,0,4,,,43,96,3
258560,note_off,,,,,512,0,5,,,31,0,4
258560,note_off,,,,,512,0,4,,,43,0,3
258560,note_on,,,,,0,0,5,,,27,96,4
258560,note_on,,,,,0,0,4,,,39,96,3
259072,note_off,,,,,512,0,4,,,39,0,3
259072,note_on,,,,,0,0,5,,,29,96,4
259072,note_off,,,,,1024,0,1,,,55,0,0
259072,note_off,,,,,512,0,5,,,27,0,4
259072,note_on,,,,,23552,0,3,,,58,96,2
259072,note_on,,,,,0,0,4,,,41,96,3
259072,note_on,,,,,23552,0,2,,,58,96,1
259584,note_on,,,,,0,0,4,,,43,96,3
259584,note_off,,,,,512,0,4,,,41,0,3
259584,note_on,,,,,0,0,5,,,31,96,4
259584,note_off,,,,,512,0,5,,,29,0,4
260096,note_off,,,,,1024,0,2,,,58,0,1
260096,note_off,,,,,1024,0,3,,,58,0,2
260096,note_on,,,,,0,0,2,,,60,96,1
260096,note_on,,,,,0,0,5,,,32,96,4
260096,note_off,,,,,512,0,5,,,31,0,4
260096,note_off,,,,,512,0,4,,,43,0,3
260096,note_on,,,,,0,0,4,,,44,96,3
260096,note_on,,,,,0,0,3,,,60,96,2
260608,note_off,,,,,512,0,5,,,32,0,4
260608,note_on,,,,,0,0,5,,,31,96,4
260608,note_on,,,,,0,0,4,,,43,96,3
260608,note_off,,,,,512,0,4,,,44,0,3
261120,note_off,,,,,512,0,5,,,31,0,4
261120,note_on,,,,,0,0,5,,,32,96,4
261120,note_on,,,,,0,0,2,,,62,96,1
261120,note_off,,,,,1024,0,2,,,60,0,1
261120,note_on,,,,,0,0,4,,,44,96,3
261120,note_on,,,,,0,0,3,,,62,96,2
261120,note_off,,,,,1024,0,3,,,60,0,2
261120,note_off,,,,,512,0,4,,,43,0,3
261632,note_off,,,,,512,0,5,,,32,0,4
261632,note_on,,,,,0,0,5,,,34,96,4
261632,note_off,,,,,512,0,4,,,44,0,3
261632,note_on,,,,,0,0,4,,,46,96,3
261632,note_on,,,,,2560,0,1,,,58,96,0
262144,note_on,,,,,0,0,4,,,48,96,3
262144,note_off,,,,,1024,0,3,,,62,0,2
262144,note_on,,,,,0,0,3,,,63,96,2
262144,note_off,,,,,512,0,1,,,58,0,0
262144,note_off,,,,,1024,0,2,,,62,0,1
262144,note_on,,,,,0,0,2,,,63,96,1
262144,note_on,,,,,0,0,1,,,63,96,0
262144,note_on,,,,,0,0,5,,,36,96,4
262144,note_off,,,,,512,0,5,,,34,0,4
262144,note_off,,,,,512,0,4,,,46,0,3
262400,note_off,,,,,256,0,1,,,63,0,0
262400,note_on,,,,,0,0,1,,,65,96,0
262656,note_off,,,,,512,0,5,,,36,0,4
262656,note_off,,,,,256,0,1,,,65,0,0
262656,note_on,,,,,0,0,5,,,34,96,4
262656,note_on,,,,,0,0,4,,,46,96,3
262656,note_off,,,,,512,0,4,,,48,0,3
262656,note_on,,,,,0,0,1,,,67,96,0
263168,note_off,,,,,512,0,1,,,67,0,0
263168,note_on,,,,,0,0,4,,,48,96,3
263168,note_on,,,,,0,0,5,,,36,96,4
263168,note_off,,,,,512,0,5,,,34,0,4
263168,note_off,,,,,512,0,4,,,46,0,3
263168,note_on,,,,,0,0,1,,,67,96,0
263680,note_off,,,,,512,0,1,,,67,0,0
263680,note_on,,,,,0,0,4,,,50,96,3
263680,note_off,,,,,512,0,4,,,48,0,3
263680,note_on,,,,,0,0,5,,,38,96,4
263680,note_on,,,,,0,0,1,,,65,96,0
263680,note_off,,,,,512,0,5,,,36,0,4
264192,note_off,,,,,512,0,1,,,65,0,0
264192,note_on,,,,,0,0,1,,,68,96,0
264192,note_off,,,,,512,0,5,,,38,0,4
264192,note_on,,,,,0,0,5,,,39,96,4
264192,note_off,,,,,512,0,4,,,50,0,3
264192,note_on,,,,,0,0,4,,,51,96,3
264192,note_off,,,,,2048,0,2,,,63,0,1
264192,note_off,,,,,2048,0,3,,,63,0,2
264704,note_on,,,,,0,0,1,,,67,96,0
264704,note_off,,,,,512,0,1,,,68,0,0
265216,note_on,,,,,0,0,4,,,48,96,3
265216,note_on,,,,,0,0,5,,,36,96,4
265216,note_off,,,,,1024,0,5,,,39,0,4
265216,note_on,,,,,0,0,1,,,58,96,0
265216,note_off,,,,,512,0,1,,,67,0,0
265216,note_off,,,,,1024,0,4,,,51,0,3
265728,note_off,,,,,512,0,1,,,58,0,0
265728,note_on,,,,,0,0,1,,,56,96,0
266240,note_on,,,,,0,0,1,,,67,96,0
266240,note_off,,,,,1024,0,4,,,48,0,3
266240,note_off,,,,,1024,0,5,,,36,0,4
266240,note_on,,,,,0,0,5,,,32,96,4
266240,note_off,,,,,512,0,1,,,56,0,0
266240,note_on,,,,,0,0,4,,,44,96,3
266496,note_on,,,,,0,0,1,,,63,96,0
266496,note_off,,,,,256,0,1,,,67,0,0
266752,note_off,,,,,256,0,1,,,63,0,0
266752,note_on,,,,,0,0,1,,,65,96,0
267264,note_on,,,,,0,0,5,,,34,96,4
267264,note_off,,,,,1024,0,5,,,32,0,4
267264,note_off,,,,,1024,0,4,,,44,0,3
267264,note_on,,,,,0,0,1,,,56,96,0
267264,note_off,,,,,512,0,1,,,65,0,0
267264,note_on,,,,,0,0,4,,,46,96,3
267776,note_on,,,,,0,0,1,,,55,96,0
267776,note_off,,,,,512,0,1,,,56,0,0
268288,note_on,,,,,0,0,4,,,48,96,3
268288,note_off,,,,,1024,0,4,,,46,0,3
268288,note_on,,,,,0,0,5,,,36,96,4
268288,note_off,,,,,1024,0,5,,,34,0,4
268288,note_on,,,,,0,0,1,,,62,96,0
268288,note_off,,,,,512,0,1,,,55,0,0
268800,note_off,,,,,512,0,1,,,62,0,0
268800,note_on,,,,,0,0,5,,,34,96,4
268800,note_off,,,,,512,0,5,,,36,0,4
268800,note_on,,,,,0,0,1,,,63,96,0
268800,note_off,,,,,512,0,4,,,48,0,3
268800,note_on,,,,,0,0,4,,,46,96,3
269312,note_off,,,,,512,0,1,,,63,0,0
269312,note_on,,,,,0,0,5,,,36,96,4
269312,note_off,,,,,512,0,5,,,34,0,4
269312,note_off,,,,,512,0,4,,,46,0,3
269312,note_on,,,,,0,0,4,,,48,96,3
269312,note_on,,,,,5120,0,3,,,63,96,2
269312,note_on,,,,,5120,0,2,,,63,96,1
269824,note_off,,,,,512,0,4,,,48,0,3
269824,note_on,,,,,0,0,4,,,50,96,3
269824,note_on,,,,,512,0,1,,,58,96,0
269824,note_on,,,,,0,0,3,,,65,96,2
269824,note_off,,,,,512,0,2,,,63,0,1
269824,note_on,,,,,0,0,2,,,65,96,1
269824,note_off,,,,,512,0,5,,,36,0,4
269824,note_on,,,,,0,0,5,,,38,96,4
269824,note_off,,,,,512,0,3,,,63,0,2
270336,note_off,,,,,512,0,3,,,65,0,2
270336,note_on,,,,,0,0,3,,,67,96,2
270336,note_on,,,,,0,0,2,,,67,96,1
270336,note_off,,,,,512,0,5,,,38,0,4
270336,note_on,,,,,0,0,4,,,51,96,3
270336,note_on,,,,,0,0,5,,,39,96,4
270336,note_off,,,,,512,0,4,,,50,0,3
270336,note_off,,,,,512,0,1,,,58,0,0
270336,note_off,,,,,512,0,2,,,65,0,1
270848,note_on,,,,,0,0,5,,,38,96,4
270848,note_on,,,,,0,0,4,,,50,96,3
270848,note_off,,,,,512,0,5,,,39,0,4
270848,note_off,,,,,512,0,4,,,51,0,3
271360,note_on,,,,,0,0,5,,,39,96,4
271360,note_off,,,,,512,0,4,,,50,0,3
271360,note_on,,,,,0,0,3,,,65,96,2
271360,note_off,,,,,512,0,5,,,38,0,4
271360,note_off,,,,,1024,0,2,,,67,0,1
271360,note_on,,,,,0,0,4,,,51,96,3
271360,note_off,,,,,1024,0,3,,,67,0,2
271360,note_on,,,,,0,0,2,,,65,96,1
271872,note_on,,,,,1536,0,1,,,70,96,0
271872,note_off,,,,,512,0,5,,,39,0,4
271872,note_on,,,,,0,0,5,,,41,96,4
271872,note_off,,,,,512,0,4,,,51,0,3
271872,note_on,,,,,0,0,4,,,53,96,3
272384,note_off,,,,,512,0,5,,,41,0,4
272384,note_on,,,,,0,0,5,,,43,96,4
272384,note_off,,,,,512,0,1,,,70,0,0
272384,note_on,,,,,0,0,1,,,70,96,0
272384,note_on,,,,,0,0,4,,,55,96,3
272384,note_off,,,,,1024,0,2,,,65,0,1
272384,note_on,,,,,0,0,2,,,63,96,1
272384,note_off,,,,,1024,0,3,,,65,0,2
272384,note_off,,,,,512,0,4,,,53,0,3
272384,note_on,,,,,0,0,3,,,63,96,2
272896,note_on,,,,,0,0,4,,,53,96,3
272896,note_off,,,,,512,0,4,,,55,0,3
272896,note_off,,,,,512,0,5,,,43,0,4
272896,note_on,,,,,0,0,5,,,41,96,4
273408,note_on,,,,,0,0,4,,,55,96,3
273408,note_on,,,,,0,0,1,,,68,96,0
273408,note_off,,,,,1024,0,1,,,70,0,0
273408,note_off,,,,,512,0,4,,,53,0,3
273408,note_on,,,,,0,0,5,,,43,96,4
273408,note_off,,,,,512,0,5,,,41,0,4
273664,note_off,,,,,256,0,1,,,68,0,0
273664,note_on,,,,,0,0,1,,,67,96,0
273920,note_off,,,,,512,0,4,,,55,0,3
273920,note_on,,,,,0,0,4,,,56,96,3
273920,note_on,,,,,0,0,5,,,44,96,4
273920,note_off,,,,,256,0,1,,,67,0,0
273920,note_on,,,,,0,0,1,,,65,96,0
273920,note_off,,,,,512,0,5,,,43,0,4
274176,note_off,,,,,256,0,1,,,65,0,0
274176,note_on,,,,,0,0,1,,,63,96,0
274432,note_off,,,,,512,0,5,,,44,0,4
274432,note_off,,,,,2048,0,2,,,63,0,1
274432,note_on,,,,,0,0,4,,,50,96,3
274432,note_off,,,,,512,0,4,,,56,0,3
274432,note_on,,,,,0,0,1,,,65,96,0
274432,note_off,,,,,2048,0,3,,,63,0,2
274432,note_on,,,,,0,0,5,,,38,96,4
274432,note_off,,,,,256,0,1,,,63,0,0
274688,note_off,,,,,256,0,1,,,65,0,0
274688,note_on,,,,,0,0,1,,,63,96,0
274944,note_on,,,,,0,0,5,,,34,96,4
274944,note_off,,,,,512,0,5,,,38,0,4
274944,note_on,,,,,0,0,4,,,46,96,3
274944,note_off,,,,,512,0,4,,,50,0,3
274944,note_on,,,,,0,0,1,,,62,96,0
274944,note_off,,,,,256,0,1,,,63,0,0
275200,note_on,,,,,0,0,1,,,60,96,0
275200,note_off,,,,,256,0,1,,,62,0,0
275456,note_on,,,,,0,0,5,,,46,96,4
275456,note_off,,,,,512,0,5,,,34,0,4
275456,note_on,,,,,0,0,1,,,58,96,0
275456,note_off,,,,,256,0,1,,,60,0,0
275456,note_off,,,,,512,0,4,,,46,0,3
275456,note_on,,,,,0,0,4,,,58,96,3
275968,note_on,,,,,0,0,4,,,56,96,3
275968,note_off,,,,,512,0,4,,,58,0,3
275968,note_on,,,,,0,0,5,,,44,96,4
275968,note_off,,,,,512,0,1,,,58,0,0
275968,note_on,,,,,0,0,1,,,60,96,0
275968,note_off,,,,,512,0,5,,,46,0,4
276224,note_on,,,,,0,0,1,,,62,96,0
276224,note_off,,,,,256,0,1,,,60,0,0
276480,note_on,,,,,0,0,1,,,63,96,0
276480,note_off,,,,,256,0,1,,,62,0,0
276480,note_on,,,,,0,0,5,,,43,96,4
276480,note_off,,,,,512,0,4,,,56,0,3
276480,note_on,,,,,0,0,4,,,55,96,3
276480,note_off,,,,,512,0,5,,,44,0,4
276736,note_off,,,,,256,0,1,,,63,0,0
276736,note_on,,,,,0,0,1,,,65,96,0
276992,note_off,,,,,256,0,1,,,65,0,0
276992,note_on,,,,,0,0,1,,,67,96,0
277248,note_off,,,,,256,0,1,,,67,0,0
277248,note_on,,,,,0,0,1,,,65,96,0
277504,note_off,,,,,256,0,1,,,65,0,0
277504,note_off,,,,,1024,0,5,,,43,0,4
277504,note_on,,,,,0,0,1,,,68,96,0
277504,note_on,,,,,0,0,4,,,51,96,3
277504,note_off,,,,,1024,0,4,,,55,0,3
277504,note_on,,,,,0,0,5,,,39,96,4
277760,note_on,,,,,0,0,1,,,67,96,0
277760,note_off,,,,,256,0,1,,,68,0,0
278016,note_off,,,,,256,0,1,,,67,0,0
278016,note_on,,,,,0,0,1,,,65,96,0
278272,note_off,,,,,256,0,1,,,65,0,0
278272,note_on,,,,,0,0,1,,,63,96,0
278528,note_on,,,,,0,0,4,,,58,96,3
278528,note_on,,,,,0,0,1,,,67,96,0
278528,note_off,,,,,256,0,1,,,63,0,0
278528,note_off,,,,,1024,0,4,,,51,0,3
278528,note_off,,,,,1024,0,5,,,39,0,4
278528,note_on,,,,,0,0,5,,,46,96,4
279040,note_on,,,,,0,0,1,,,65,96,0
279040,note_off,,,,,512,0,1,,,67,0,0
279040,note_off,,,,,512,0,4,,,58,0,3
279040,note_on,,,,,0,0,4,,,56,96,3
279040,note_off,,,,,512,0,5,,,46,0,4
279040,note_on,,,,,0,0,5,,,44,96,4
279552,note_off,,,,,512,0,4,,,56,0,3
279552,note_on,,,,,0,0,4,,,55,96,3
279552,note_on,,,,,5120,0,2,,,58,96,1
279552,note_on,,,,,0,0,5,,,43,96,4
279552,note_on,,,,,5120,0,3,,,58,96,2
279552,note_off,,,,,512,0,1,,,65,0,0
279552,note_off,,,,,512,0,5,,,44,0,4
280064,note_on,,,,,512,0,1,,,63,96,0
280576,note_off,,,,,1024,0,5,,,43,0,4
280576,note_on,,,,,0,0,5,,,44,96,4
280576,note_off,,,,,1024,0,2,,,58,0,1
280576,note_on,,,,,0,0,2,,,63,96,1
280576,note_off,,,,,512,0,1,,,63,0,0
280576,note_off,,,,,1024,0,3,,,58,0,2
280576,note_on,,,,,0,0,3,,,63,96,2
280576,note_off,,,,,1024,0,4,,,55,0,3
280576,note_on,,,,,0,0,1,,,72,96,0
280576,note_on,,,,,0,0,4,,,56,96,3
281088,note_on,,,,,0,0,1,,,74,96,0
281088,note_off,,,,,512,0,1,,,72,0,0
281600,note_off,,,,,1024,0,2,,,63,0,1
281600,note_on,,,,,0,0,5,,,43,96,4
281600,note_on,,,,,0,0,2,,,58,96,1
281600,note_off,,,,,1024,0,5,,,44,0,4
281600,note_on,,,,,0,0,4,,,55,96,3
281600,note_off,,,,,1024,0,4,,,56,0,3
281600,note_on,,,,,0,0,3,,,58,96,2
281600,note_off,,,,,1024,0,3,,,63,0,2
282112,note_on,,,,,0,0,1,,,75,96,0
282112,note_off,,,,,1024,0,1,,,74,0,0
282624,note_off,,,,,1024,0,2,,,58,0,1
282624,note_on,,,,,0,0,3,,,60,96,2
282624,note_off,,,,,1024,0,3,,,58,0,2
282624,note_on,,,,,0,0,2,,,60,96,1
282624,note_off,,,,,1024,0,4,,,55,0,3
282624,note_on,,,,,0,0,5,,,41,96,4
282624,note_off,,,,,1024,0,5,,,43,0,4
282624,note_off,,,,,512,0,1,,,75,0,0
282624,note_on,,,,,0,0,1,,,68,96,0
282624,note_on,,,,,0,0,4,,,53,96,3
282880,note_off,,,,,256,0,1,,,68,0,0
282880,note_on,,,,,0,0,1,,,67,96,0
283136,note_off,,,,,256,0,1,,,67,0,0
283136,note_on,,,,,0,0,1,,,68,96,0
283648,note_off,,,,,512,0,1,,,68,0,0
283648,note_off,,,,,1024,0,4,,,53,0,3
283648,note_on,,,,,0,0,4,,,51,96,3
283648,note_off,,,,,1024,0,2,,,60,0,1
283648,note_on,,,,,0,0,2,,,55,96,1
283648,note_off,,,,,1024,0,3,,,60,0,2
283648,note_on,,,,,0,0,3,,,55,96,2
283648,note_off,,,,,1024,0,5,,,41,0,4
283648,note_on,,,,,0,0,5,,,39,96,4
284160,note_on,,,,,512,0,1,,,72,96,0
284672,note_off,,,,,1024,0,2,,,55,0,1
284672,note_on,,,,,0,0,3,,,56,96,2
284672,note_off,,,,,1024,0,3,,,55,0,2
284672,note_on,,,,,0,0,4,,,53,96,3
284672,note_off,,,,,1024,0,4,,,51,0,3
284672,note_on,,,,,0,0,1,,,74,96,0
284672,note_off,,,,,512,0,1,,,72,0,0
284672,note_off,,,,,1024,0,5,,,39,0,4
284672,note_on,,,,,0,0,2,,,56,96,1
284672,note_on,,,,,0,0,5,,,41,96,4
285184,note_on,,,,,0,0,3,,,55,96,2
285184,note_on,,,,,0,0,1,,,75,96,0
285184,note_off,,,,,512,0,1,,,74,0,0
285184,note_off,,,,,512,0,3,,,56,0,2
285184,note_off,,,,,512,0,2,,,56,0,1
285184,note_on,,,,,0,0,2,,,55,96,1
285696,note_on,,,,,0,0,5,,,34,96,4
285696,note_off,,,,,512,0,3,,,55,0,2
285696,note_on,,,,,0,0,3,,,53,96,2
285696,note_off,,,,,1024,0,4,,,53,0,3
285696,note_on,,,,,0,0,2,,,53,96,1
285696,note_on,,,,,0,0,4,,,46,96,3
285696,note_off,,,,,1024,0,5,,,41,0,4
285696,note_off,,,,,512,0,2,,,55,0,1
286208,note_on,,,,,0,0,1,,,77,96,0
286208,note_off,,,,,1024,0,1,,,75,0,0
286720,note_on,,,,,0,0,1,,,68,96,0
286720,note_off,,,,,512,0,1,,,77,0,0
286720,note_on,,,,,0,0,4,,,48,96,3
286720,note_off,,,,,1024,0,2,,,53,0,1
286720,note_on,,,,,0,0,5,,,36,96,4
286720,note_off,,,,,1024,0,5,,,34,0,4
286720,note_off,,,,,1024,0,3,,,53,0,2
286720,note_on,,,,,0,0,3,,,51,96,2
286720,note_on,,,,,0,0,2,,,51,96,1
286720,note_off,,,,,1024,0,4,,,46,0,3
286976,note_off,,,,,256,0,1,,,68,0,0
286976,note_on,,,,,0,0,1,,,67,96,0
287232,note_on,,,,,0,0,1,,,68,96,0
287232,note_off,,,,,256,0,1,,,67,0,0
287744,note_off,,,,,512,0,1,,,68,0,0
287744,note_off,,,,,1024,0,4,,,48,0,3
287744,note_on,,,,,0,0,4,,,44,96,3
287744,note_on,,,,,0,0,5,,,32,96,4
287744,note_off,,,,,1024,0,5,,,36,0,4
288256,note_on,,,,,512,0,1,,,65,96,0
288768,note_off,,,,,512,0,1,,,65,0,0
288768,note_on,,,,,0,0,1,,,67,96,0
288768,note_on,,,,,0,0,5,,,34,96,4
288768,note_off,,,,,1024,0,5,,,32,0,4
288768,note_on,,,,,0,0,4,,,46,96,3
288768,note_off,,,,,1024,0,4,,,44,0,3
289024,note_off,,,,,256,0,1,,,67,0,0
289024,note_on,,,,,0,0,1,,,65,96,0
289280,note_on,,,,,0,0,1,,,63,96,0
289280,note_off,,,,,256,0,1,,,65,0,0
289792,note_off,,,,,1024,0,4,,,46,0,3
289792,note_on,,,,,0,0,4,,,43,96,3
289792,note_off,,,,,1024,0,5,,,34,0,4
289792,note_on,,,,,0,0,5,,,31,96,4
290048,note_on,,,,,0,0,1,,,62,96,0
290048,note_off,,,,,768,0,1,,,63,0,0
290304,note_off,,,,,256,0,1,,,62,0,0
290304,note_on,,,,,0,0,1,,,63,96,0
290816,note_on,,,,,0,0,5,,,32,96,4
290816,note_off,,,,,1024,0,5,,,31,0,4
290816,note_off,,,,,4096,0,2,,,51,0,1
290816,note_off,,,,,1024,0,4,,,43,0,3
290816,note_on,,,,,0,0,4,,,44,96,3
290816,note_off,,,,,4096,0,3,,,51,0,2
291072,note_on,,,,,0,0,1,,,73,96,0
291072,note_off,,,,,768,0,1,,,63,0,0
291328,note_off,,,,,512,0,4,,,44,0,3
291328,note_off,,,,,512,0,5,,,32,0,4
291328,note_on,,,,,0,0,4,,,43,96,3
291328,note_off,,,,,256,0,1,,,73,0,0
291328,note_on,,,,,0,0,1,,,72,96,0
291328,note_on,,,,,0,0,5,,,31,96,4
291584,note_off,,,,,256,0,1,,,72,0,0
291584,note_on,,,,,0,0,1,,,70,96,0
291840,note_off,,,,,512,0,5,,,31,0,4
291840,note_on,,,,,0,0,5,,,29,96,4
291840,note_on,,,,,0,0,4,,,41,96,3
291840,note_off,,,,,256,0,1,,,70,0,0
291840,note_off,,,,,512,0,4,,,43,0,3
291840,note_on,,,,,0,0,1,,,68,96,0
292096,note_off,,,,,256,0,1,,,68,0,0
292096,note_on,,,,,0,0,1,,,67,96,0
292352,note_off,,,,,256,0,1,,,67,0,0
292352,note_on,,,,,0,0,4,,,39,96,3
292352,note_off,,,,,512,0,4,,,41,0,3
292352,note_on,,,,,0,0,1,,,65,96,0
292352,note_off,,,,,512,0,5,,,29,0,4
292352,note_on,,,,,0,0,5,,,27,96,4
292608,note_on,,,,,0,0,1,,,63,96,0
292608,note_off,,,,,256,0,1,,,65,0,0
292864,note_off,,,,,256,0,1,,,63,0,0
292864,note_on,,,,,0,0,1,,,65,96,0
292864,note_off,,,,,512,0,5,,,27,0,4
292864,note_on,,,,,0,0,5,,,26,96,4
292864,note_off,,,,,512,0,4,,,39,0,3
292864,note_on,,,,,0,0,4,,,38,96,3
293120,note_off,,,,,256,0,1,,,65,0,0
293120,note_on,,,,,0,0,1,,,67,96,0
293376,note_on,,,,,0,0,1,,,68,96,0
293376,note_off,,,,,256,0,1,,,67,0,0
293888,note_on,,,,,0,0,4,,,41,96,3
293888,note_off,,,,,1024,0,4,,,38,0,3
293888,note_on,,,,,0,0,5,,,29,96,4
293888,note_off,,,,,1024,0,5,,,26,0,4
294144,note_off,,,,,768,0,1,,,68,0,0
294144,note_on,,,,,0,0,1,,,67,96,0
294400,note_off,,,,,256,0,1,,,67,0,0
294400,note_on,,,,,0,0,1,,,68,96,0
294912,note_on,,,,,0,0,4,,,46,96,3
294912,note_off,,,,,1024,0,5,,,29,0,4
294912,note_on,,,,,0,0,5,,,34,96,4
294912,note_off,,,,,1024,0,4,,,41,0,3
295168,note_off,,,,,768,0,1,,,68,0,0
295168,note_on,,,,,0,0,1,,,62,96,0
295424,note_off,,,,,512,0,4,,,46,0,3
295424,note_on,,,,,0,0,4,,,48,96,3
295424,note_on,,,,,0,0,5,,,36,96,4
295424,note_off,,,,,512,0,5,,,34,0,4
295424,note_off,,,,,256,0,1,,,62,0,0
295424,note_on,,,,,0,0,1,,,63,96,0
295680,note_off,,,,,256,0,1,,,63,0,0
295680,note_on,,,,,0,0,1,,,65,96,0
295936,note_on,,,,,0,0,5,,,34,96,4
295936,note_off,,,,,512,0,5,,,36,0,4
295936,note_on,,,,,0,0,1,,,63,96,0
295936,note_on,,,,,0,0,4,,,46,96,3
295936,note_off,,,,,512,0,4,,,48,0,3
295936,note_off,,,,,256,0,1,,,65,0,0
296192,note_off,,,,,256,0,1,,,63,0,0
296192,note_on,,,,,0,0,1,,,62,96,0
296448,note_off,,,,,256,0,1,,,62,0,0
296448,note_on,,,,,0,0,1,,,60,96,0
296448,note_on,,,,,0,0,4,,,44,96,3
296448,note_off,,,,,512,0,4,,,46,0,3
296448,note_off,,,,,512,0,5,,,34,0,4
296448,note_on,,,,,0,0,5,,,32,96,4
296704,note_on,,,,,0,0,1,,,58,96,0
296704,note_off,,,,,256,0,1,,,60,0,0
296960,note_off,,,,,512,0,4,,,44,0,3
296960,note_on,,,,,0,0,4,,,43,96,3
296960,note_on,,,,,0,0,5,,,31,96,4
296960,note_off,,,,,512,0,5,,,32,0,4
296960,note_off,,,,,256,0,1,,,58,0,0
296960,note_on,,,,,0,0,1,,,70,96,0
297472,note_off,,,,,512,0,4,,,43,0,3
297472,note_on,,,,,0,0,4,,,48,96,3
297472,note_off,,,,,512,0,5,,,31,0,4
297472,note_on,,,,,0,0,5,,,36,96,4
297472,note_on,,,,,0,0,1,,,63,96,0
297472,note_off,,,,,512,0,1,,,70,0,0
297984,note_on,,,,,0,0,5,,,32,96,4
297984,note_on,,,,,0,0,1,,,67,96,0
297984,note_off,,,,,512,0,1,,,63,0,0
297984,note_off,,,,,512,0,5,,,36,0,4
297984,note_on,,,,,0,0,4,,,44,96,3
297984,note_off,,,,,512,0,4,,,48,0,3
298240,note_off,,,,,256,0,1,,,67,0,0
298240,note_on,,,,,0,0,1,,,65,96,0
298496,note_off,,,,,512,0,4,,,44,0,3
298496,note_off,,,,,512,0,5,,,32,0,4
298496,note_on,,,,,0,0,5,,,34,96,4
298496,note_on,,,,,0,0,4,,,46,96,3
298496,note_on,,,,,0,0,1,,,63,96,0
298496,note_off,,,,,256,0,1,,,65,0,0
298752,note_off,,,,,256,0,1,,,63,0,0
298752,note_on,,,,,0,0,1,,,62,96,0
299008,note_off,,,,,256,0,1,,,62,0,0
299008,note_on,,,,,0,0,1,,,63,96,0
299008,note_on,,,,,0,0,4,,,48,96,3
299008,note_on,,,,,0,0,5,,,36,96,4
299008,note_off,,,,,512,0,5,,,34,0,4
299008,note_off,,,,,512,0,4,,,46,0,3
299264,note_off,,,,,256,0,1,,,63,0,0
299264,note_on,,,,,0,0,1,,,68,96,0
299520,note_on,,,,,0,0,4,,,50,96,3
299520,note_off,,,,,512,0,4,,,48,0,3
299520,note_off,,,,,512,0,5,,,36,0,4
299520,note_on,,,,,0,0,5,,,38,96,4
299520,note_off,,,,,256,0,1,,,68,0,0
299520,note_on,,,,,0,0,1,,,67,96,0
299776,note_on,,,,,0,0,1,,,65,96,0
299776,note_off,,,,,256,0,1,,,67,0,0
300032,note_on,,,,,0,0,5,,,39,96,4
300032,note_on,,,,,0,0,1,,,67,96,0
300032,note_off,,,,,256,0,1,,,65,0,0
300032,note_on,,,,,0,0,4,,,51,96,3
300032,note_off,,,,,512,0,4,,,50,0,3
300032,note_off,,,,,512,0,5,,,38,0,4
300544,note_off,,,,,512,0,4,,,51,0,3
300544,note_on,,,,,0,0,1,,,63,96,0
300544,note_off,,,,,512,0,5,,,39,0,4
300544,note_on,,,,,0,0,5,,,43,96,4
300544,note_off,,,,,512,0,1,,,67,0,0
300544,note_on,,,,,0,0,4,,,55,96,3
301056,note_on,,,,,0,0,5,,,44,96,4
301056,note_off,,,,,512,0,1,,,63,0,0
301056,note_off,,,,,512,0,4,,,55,0,3
301056,note_off,,,,,512,0,5,,,43,0,4
301056,note_on,,,,,0,0,1,,,60,96,0
301056,note_on,,,,,0,0,4,,,56,96,3
301568,note_off,,,,,512,0,4,,,56,0,3
301568,note_on,,,,,0,0,4,,,53,96,3
301568,note_off,,,,,512,0,5,,,44,0,4
301568,note_on,,,,,0,0,5,,,41,96,4
301824,note_on,,,,,0,0,1,,,62,96,0
301824,note_off,,,,,768,0,1,,,60,0,0
302080,note_off,,,,,512,0,4,,,53,0,3
302080,note_on,,,,,0,0,4,,,58,96,3
302080,note_on,,,,,0,0,1,,,62,96,0
302080,note_off,,,,,256,0,1,,,62,0,0
302080,note_on,,,,,0,0,5,,,46,96,4
302080,note_off,,,,,512,0,5,,,41,0,4
302592,note_on,,,,,0,0,5,,,34,96,4
302592,note_on,,,,,0,0,4,,,46,96,3
302592,note_off,,,,,512,0,4,,,58,0,3
302592,note_off,,,,,512,0,5,,,46,0,4
302848,note_off,,,,,768,0,1,,,62,0,0
302848,note_on,,,,,0,0,1,,,63,96,0
303104,note_on,,,,,0,0,5,,,27,96,4
303104,note_on,,,,,0,0,4,,,51,96,3
303104,note_on,,,,,0,0,4,,,39,96,3
303104,note_off,,,,,512,0,4,,,46,0,3
303104,note_off,,,,,512,0,5,,,34,0,4
303104,note_on,,,,,0,0,5,,,39,96,4
303104,note_on,,,,,0,0,1,,,63,96,0
303104,note_off,,,,,256,0,1,,,63,0,0
307200,note_off,,,,,4096,0,4,,,39,0,3
307200,note_off,,,,,0,0,4,,,51,0,3
307200,note_off,,,,,0,0,5,,,39,0,4
307200,note_off,,,,,4096,0,5,,,27,0,4
307200,note_off,,,,,4096,0,1,,,63,0,0
307201,end_of_track,,,,,1,1,4,,,,,
307201,end_of_track,,,,,1,1,1,,,,,
307201,end_of_track,,,,,307201,1,0,,,,,
307201,end_of_track,,,,,16385,1,2,,,,,
307201,end_of_track,,,,,16385,1,3,,,,,
307201,end_of_track,,,,,1,1,5,,,,,
