tick,type,numerator,denominator,clocks_per_click,notated_32nd_notes_per_beat,time,meta,track,key,tempo,note,velocity,channel
0,time_signature,4,4,24,8,0,1,0,,,,,
0,track_name,,,,,0,1,3,,,,,
0,track_name,,,,,0,1,2,,,,,
0,track_name,,,,,0,1,1,,,,,
0,track_name,,,,,0,1,4,,,,,
0,track_name,,,,,0,1,5,,,,,
0,key_signature,,,,,0,1,0,Cm,,,,
0,set_tempo,,,,,0,1,0,,1250000,,,
3584,note_on,,,,,3584,0,1,,,60,96,0
4096,note_off,,,,,512,0,1,,,60,0,0
4096,note_on,,,,,0,0,1,,,65,96,0
4352,note_on,,,,,4352,0,3,,,53,96,2
4480,note_on,,,,,0,0,3,,,55,96,2
4480,note_off,,,,,128,0,3,,,53,0,2
4608,note_off,,,,,128,0,3,,,55,0,2
4608,note_on,,,,,0,0,3,,,56,96,2
4864,note_off,,,,,256,0,3,,,56,0,2
4864,note_on,,,,,0,0,1,,,67,96,0
4864,note_off,,,,,768,0,1,,,65,0,0
4864,note_on,,,,,0,0,3,,,58,96,2
4992,note_on,,,,,0,0,3,,,60,96,2
4992,note_on,,,,,0,0,1,,,68,96,0
4992,note_off,,,,,128,0,1,,,67,0,0
4992,note_off,,,,,128,0,3,,,58,0,2
5120,note_off,,,,,128,0,1,,,68,0,0
5120,note_on,,,,,0,0,3,,,61,96,2
5120,note_on,,,,,0,0,1,,,67,96,0
5120,note_off,,,,,128,0,3,,,60,0,2
5376,note_on,,,,,0,0,3,,,58,96,2
5376,note_off,,,,,256,0,3,,,61,0,2
5632,note_on,,,,,0,0,3,,,52,96,2
5632,note_off,,,,,256,0,3,,,58,0,2
5888,note_off,,,,,256,0,3,,,52,0,2
5888,note_on,,,,,0,0,3,,,60,96,2
5888,note_off,,,,,768,0,1,,,67,0,0
5888,note_on,,,,,0,0,1,,,65,96,0
6016,note_on,,,,,0,0,1,,,67,96,0
6016,note_off,,,,,128,0,1,,,65,0,0
6144,note_off,,,,,256,0,3,,,60,0,2
6144,note_on,,,,,0,0,3,,,53,96,2
6144,note_on,,,,,0,0,1,,,68,96,0
6144,note_off,,,,,128,0,1,,,67,0,0
6400,note_on,,,,,6400,0,2,,,56,96,1
6528,note_off,,,,,128,0,2,,,56,0,1
6528,note_on,,,,,0,0,2,,,58,96,1
6656,note_off,,,,,128,0,2,,,58,0,1
6656,note_on,,,,,0,0,3,,,51,96,2
6656,note_off,,,,,512,0,3,,,53,0,2
6656,note_on,,,,,0,0,2,,,60,96,1
6912,note_off,,,,,256,0,2,,,60,0,1
6912,note_on,,,,,0,0,2,,,62,96,1
7040,note_off,,,,,128,0,2,,,62,0,1
7040,note_on,,,,,0,0,2,,,63,96,1
7168,note_on,,,,,0,0,1,,,70,96,0
7168,note_on,,,,,0,0,3,,,50,96,2
7168,note_off,,,,,512,0,3,,,51,0,2
7168,note_off,,,,,1024,0,1,,,68,0,0
7168,note_off,,,,,128,0,2,,,63,0,1
7168,note_on,,,,,0,0,2,,,65,96,1
7424,note_off,,,,,256,0,2,,,65,0,1
7424,note_on,,,,,0,0,2,,,58,96,1
7680,note_off,,,,,512,0,3,,,50,0,2
7680,note_on,,,,,0,0,1,,,68,96,0
7680,note_off,,,,,512,0,1,,,70,0,0
7680,note_on,,,,,0,0,3,,,46,96,2
7680,note_on,,,,,0,0,2,,,53,96,1
7680,note_off,,,,,256,0,2,,,58,0,1
7936,note_off,,,,,256,0,2,,,53,0,1
7936,note_on,,,,,0,0,2,,,62,96,1
8192,note_off,,,,,512,0,1,,,68,0,0
8192,note_on,,,,,0,0,1,,,67,96,0
8192,note_on,,,,,0,0,3,,,51,96,2
8192,note_off,,,,,512,0,3,,,46,0,2
8448,note_off,,,,,256,0,1,,,67,0,0
8448,note_on,,,,,0,0,1,,,69,96,0
8576,note_off,,,,,128,0,1,,,69,0,0
8576,note_on,,,,,0,0,1,,,71,96,0
8704,note_off,,,,,128,0,1,,,71,0,0
8704,note_on,,,,,0,0,1,,,72,96,0
8704,note_off,,,,,768,0,2,,,62,0,1
8704,note_on,,,,,0,0,2,,,60,96,1
8960,note_on,,,,,0,0,1,,,74,96,0
8960,note_off,,,,,256,0,1,,,72,0,0
9088,note_off,,,,,128,0,1,,,74,0,0
9088,note_on,,,,,0,0,1,,,75,96,0
9216,note_off,,,,,1024,0,3,,,51,0,2
9216,note_on,,,,,0,0,3,,,50,96,2
9216,note_on,,,,,0,0,1,,,77,96,0
9216,note_off,,,,,128,0,1,,,75,0,0
9472,note_on,,,,,0,0,1,,,74,96,0
9472,note_off,,,,,256,0,1,,,77,0,0
9728,note_off,,,,,256,0,1,,,74,0,0
9728,note_on,,,,,0,0,2,,,59,96,1
9728,note_off,,,,,1024,0,2,,,60,0,1
9728,note_on,,,,,0,0,1,,,67,96,0
9984,note_off,,,,,256,0,1,,,67,0,0
9984,note_on,,,,,0,0,1,,,77,96,0
10240,note_off,,,,,1024,0,3,,,50,0,2
10240,note_off,,,,,256,0,1,,,77,0,0
10240,note_on,,,,,0,0,2,,,60,96,1
10240,note_off,,,,,512,0,2,,,59,0,1
10240,note_on,,,,,0,0,1,,,75,96,0
10496,note_on,,,,,256,0,3,,,48,96,2
10624,note_off,,,,,128,0,3,,,48,0,2
10624,note_on,,,,,0,0,3,,,50,96,2
10752,note_off,,,,,128,0,3,,,50,0,2
10752,note_on,,,,,0,0,3,,,51,96,2
11008,note_off,,,,,256,0,3,,,51,0,2
11008,note_on,,,,,0,0,3,,,53,96,2
11136,note_on,,,,,0,0,3,,,55,96,2
11136,note_off,,,,,128,0,3,,,53,0,2
11264,note_off,,,,,1024,0,2,,,60,0,1
11264,note_off,,,,,128,0,3,,,55,0,2
11264,note_on,,,,,0,0,3,,,56,96,2
11264,note_off,,,,,1024,0,1,,,75,0,0
11520,note_on,,,,,256,0,1,,,65,96,0
11648,note_off,,,,,128,0,1,,,65,0,0
11648,note_on,,,,,0,0,1,,,67,96,0
11776,note_off,,,,,128,0,1,,,67,0,0
11776,note_on,,,,,0,0,1,,,68,96,0
12032,note_on,,,,,0,0,1,,,70,96,0
12032,note_off,,,,,256,0,1,,,68,0,0
12160,note_off,,,,,128,0,1,,,70,0,0
12160,note_on,,,,,0,0,1,,,72,96,0
12288,note_off,,,,,128,0,1,,,72,0,0
12288,note_on,,,,,0,0,1,,,73,96,0
12544,note_on,,,,,0,0,3,,,46,96,2
12544,note_off,,,,,1280,0,3,,,56,0,2
12672,note_on,,,,,0,0,3,,,48,96,2
12672,note_off,,,,,128,0,3,,,46,0,2
12800,note_on,,,,,0,0,3,,,49,96,2
12800,note_off,,,,,128,0,3,,,48,0,2
13056,note_on,,,,,0,0,3,,,51,96,2
13056,note_off,,,,,256,0,3,,,49,0,2
13184,note_off,,,,,128,0,3,,,51,0,2
13184,note_on,,,,,0,0,3,,,53,96,2
13312,note_off,,,,,128,0,3,,,53,0,2
13312,note_on,,,,,0,0,3,,,55,96,2
13568,note_off,,,,,1280,0,1,,,73,0,0
13568,note_on,,,,,0,0,1,,,63,96,0
13696,note_on,,,,,0,0,1,,,65,96,0
13696,note_off,,,,,128,0,1,,,63,0,0
13824,note_off,,,,,128,0,1,,,65,0,0
13824,note_on,,,,,0,0,1,,,67,96,0
14080,note_on,,,,,0,0,1,,,68,96,0
14080,note_off,,,,,256,0,1,,,67,0,0
14208,note_off,,,,,128,0,1,,,68,0,0
14208,note_on,,,,,0,0,1,,,70,96,0
14336,note_on,,,,,0,0,1,,,72,96,0
14336,note_off,,,,,128,0,1,,,70,0,0
14592,note_on,,,,,3328,0,2,,,62,96,1
14720,note_on,,,,,0,0,2,,,64,96,1
14720,note_off,,,,,128,0,2,,,62,0,1
14848,note_on,,,,,0,0,2,,,65,96,1
14848,note_off,,,,,128,0,2,,,64,0,1
14848,note_on,,,,,0,0,3,,,53,96,2
14848,note_off,,,,,1536,0,3,,,55,0,2
15104,note_off,,,,,256,0,2,,,65,0,1
15104,note_on,,,,,0,0,2,,,67,96,1
15232,note_on,,,,,0,0,2,,,68,96,1
15232,note_off,,,,,128,0,2,,,67,0,1
15360,note_on,,,,,0,0,2,,,70,96,1
15360,note_off,,,,,128,0,2,,,68,0,1
15616,note_on,,,,,0,0,2,,,67,96,1
15616,note_off,,,,,256,0,2,,,70,0,1
15872,note_off,,,,,256,0,2,,,67,0,1
15872,note_on,,,,,0,0,2,,,60,96,1
15872,note_on,,,,,0,0,3,,,52,96,2
15872,note_off,,,,,1024,0,3,,,53,0,2
16128,note_on,,,,,0,0,2,,,70,96,1
16128,note_off,,,,,256,0,2,,,60,0,1
16384,note_on,,,,,0,0,2,,,68,96,1
16384,note_off,,,,,256,0,2,,,70,0,1
16384,note_on,,,,,0,0,3,,,53,96,2
16384,note_off,,,,,512,0,3,,,52,0,2
16640,note_on,,,,,0,0,3,,,41,96,2
16640,note_off,,,,,256,0,3,,,53,0,2
16768,note_off,,,,,128,0,3,,,41,0,2
16768,note_on,,,,,0,0,3,,,43,96,2
16896,note_off,,,,,512,0,2,,,68,0,1
16896,note_on,,,,,0,0,2,,,67,96,1
16896,note_off,,,,,128,0,3,,,43,0,2
16896,note_on,,,,,0,0,3,,,44,96,2
17152,note_off,,,,,256,0,3,,,44,0,2
17152,note_on,,,,,0,0,3,,,46,96,2
17280,note_on,,,,,0,0,3,,,48,96,2
17280,note_off,,,,,128,0,3,,,46,0,2
17408,note_off,,,,,512,0,2,,,67,0,1
17408,note_on,,,,,0,0,2,,,65,96,1
17408,note_on,,,,,0,0,3,,,49,96,2
17408,note_off,,,,,128,0,3,,,48,0,2
17664,note_off,,,,,256,0,3,,,49,0,2
17664,note_on,,,,,0,0,3,,,46,96,2
17920,note_on,,,,,0,0,3,,,41,96,2
17920,note_off,,,,,3584,0,1,,,72,0,0
17920,note_on,,,,,0,0,1,,,70,96,0
17920,note_on,,,,,0,0,2,,,67,96,1
17920,note_off,,,,,512,0,2,,,65,0,1
17920,note_off,,,,,256,0,3,,,46,0,2
18176,note_on,,,,,0,0,3,,,49,96,2
18176,note_off,,,,,256,0,3,,,41,0,2
18432,note_off,,,,,256,0,3,,,49,0,2
18432,note_on,,,,,0,0,3,,,40,96,2
18432,note_on,,,,,18432,0,4,,,48,96,3
18432,note_on,,,,,18432,0,5,,,36,96,4
18688,note_on,,,,,0,0,1,,,72,96,0
18688,note_off,,,,,768,0,1,,,70,0,0
18816,note_on,,,,,0,0,1,,,70,96,0
18816,note_off,,,,,128,0,1,,,72,0,0
18944,note_off,,,,,128,0,1,,,70,0,0
18944,note_on,,,,,0,0,1,,,68,96,0
18944,note_off,,,,,512,0,3,,,40,0,2
18944,note_on,,,,,0,0,3,,,41,96,2
18944,note_on,,,,,0,0,2,,,65,96,1
18944,note_off,,,,,1024,0,2,,,67,0,1
19200,note_off,,,,,256,0,1,,,68,0,0
19200,note_on,,,,,0,0,1,,,70,96,0
19328,note_on,,,,,0,0,1,,,72,96,0
19328,note_off,,,,,128,0,1,,,70,0,0
19456,note_on,,,,,0,0,3,,,36,96,2
19456,note_off,,,,,512,0,3,,,41,0,2
19456,note_on,,,,,0,0,1,,,73,96,0
19456,note_off,,,,,128,0,1,,,72,0,0
19712,note_on,,,,,0,0,1,,,70,96,0
19712,note_off,,,,,256,0,1,,,73,0,0
19968,note_off,,,,,512,0,3,,,36,0,2
19968,note_off,,,,,256,0,1,,,70,0,0
19968,note_off,,,,,1024,0,2,,,65,0,1
19968,note_on,,,,,0,0,2,,,64,96,1
19968,note_on,,,,,0,0,1,,,67,96,0
19968,note_on,,,,,0,0,3,,,48,96,2
20224,note_on,,,,,0,0,1,,,72,96,0
20224,note_off,,,,,256,0,1,,,67,0,0
20480,note_on,,,,,0,0,2,,,65,96,1
20480,note_off,,,,,512,0,2,,,64,0,1
20480,note_on,,,,,0,0,3,,,49,96,2
20480,note_on,,,,,0,0,5,,,41,96,4
20480,note_off,,,,,2048,0,5,,,36,0,4
20480,note_on,,,,,0,0,4,,,53,96,3
20480,note_off,,,,,2048,0,4,,,48,0,3
20480,note_on,,,,,0,0,1,,,68,96,0
20480,note_off,,,,,256,0,1,,,72,0,0
20480,note_off,,,,,512,0,3,,,48,0,2
20736,note_on,,,,,0,0,2,,,53,96,1
20736,note_off,,,,,256,0,2,,,65,0,1
20864,note_on,,,,,0,0,2,,,55,96,1
20864,note_off,,,,,128,0,2,,,53,0,1
20992,note_off,,,,,512,0,1,,,68,0,0
20992,note_on,,,,,0,0,1,,,65,96,0
20992,note_off,,,,,128,0,2,,,55,0,1
20992,note_off,,,,,512,0,3,,,49,0,2
20992,note_on,,,,,0,0,3,,,48,96,2
20992,note_on,,,,,0,0,2,,,56,96,1
21248,note_on,,,,,0,0,2,,,58,96,1
21248,note_off,,,,,256,0,2,,,56,0,1
21376,note_on,,,,,0,0,2,,,60,96,1
21376,note_off,,,,,128,0,2,,,58,0,1
21504,note_on,,,,,0,0,2,,,61,96,1
21504,note_on,,,,,0,0,5,,,43,96,4
21504,note_off,,,,,512,0,3,,,48,0,2
21504,note_on,,,,,0,0,3,,,46,96,2
21504,note_off,,,,,1024,0,5,,,41,0,4
21504,note_on,,,,,0,0,4,,,55,96,3
21504,note_off,,,,,1024,0,4,,,53,0,3
21504,note_off,,,,,128,0,2,,,60,0,1
21760,note_off,,,,,256,0,2,,,61,0,1
21760,note_on,,,,,0,0,2,,,58,96,1
22016,note_on,,,,,0,0,3,,,48,96,2
22016,note_on,,,,,0,0,1,,,64,96,0
22016,note_off,,,,,256,0,2,,,58,0,1
22016,note_on,,,,,0,0,2,,,55,96,1
22016,note_off,,,,,512,0,3,,,46,0,2
22016,note_off,,,,,1024,0,1,,,65,0,0
22272,note_on,,,,,0,0,2,,,60,96,1
22272,note_off,,,,,256,0,2,,,55,0,1
22528,note_off,,,,,256,0,2,,,60,0,1
22528,note_on,,,,,0,0,2,,,53,96,1
22528,note_on,,,,,0,0,5,,,44,96,4
22528,note_off,,,,,1024,0,5,,,43,0,4
22528,note_off,,,,,512,0,3,,,48,0,2
22528,note_on,,,,,0,0,4,,,56,96,3
22528,note_off,,,,,1024,0,4,,,55,0,3
22528,note_on,,,,,0,0,1,,,65,96,0
22528,note_off,,,,,512,0,1,,,64,0,0
22784,note_on,,,,,256,0,3,,,48,96,2
23040,note_off,,,,,256,0,3,,,48,0,2
23040,note_on,,,,,0,0,3,,,41,96,2
23296,note_on,,,,,0,0,3,,,51,96,2
23296,note_off,,,,,256,0,3,,,41,0,2
23552,note_on,,,,,0,0,4,,,58,96,3
23552,note_off,,,,,1024,0,5,,,44,0,4
23552,note_on,,,,,0,0,5,,,46,96,4
23552,note_on,,,,,0,0,3,,,50,96,2
23552,note_off,,,,,256,0,3,,,51,0,2
23552,note_off,,,,,1024,0,2,,,53,0,1
23552,note_off,,,,,1024,0,4,,,56,0,3
23808,note_on,,,,,256,0,2,,,58,96,1
23936,note_on,,,,,0,0,2,,,60,96,1
23936,note_off,,,,,128,0,2,,,58,0,1
24064,note_off,,,,,512,0,4,,,58,0,3
24064,note_on,,,,,0,0,4,,,56,96,3
24064,note_off,,,,,512,0,5,,,46,0,4
24064,note_on,,,,,0,0,5,,,44,96,4
24064,note_off,,,,,512,0,3,,,50,0,2
24064,note_on,,,,,0,0,2,,,62,96,1
24064,note_off,,,,,128,0,2,,,60,0,1
24064,note_on,,,,,0,0,3,,,46,96,2
24320,note_off,,,,,256,0,2,,,62,0,1
24320,note_on,,,,,0,0,2,,,63,96,1
24448,note_off,,,,,128,0,2,,,63,0,1
24448,note_on,,,,,0,0,2,,,65,96,1
24576,note_on,,,,,0,0,4,,,55,96,3
24576,note_on,,,,,0,0,3,,,51,96,2
24576,note_off,,,,,512,0,4,,,56,0,3
24576,note_off,,,,,128,0,2,,,65,0,1
24576,note_on,,,,,0,0,2,,,67,96,1
24576,note_off,,,,,512,0,5,,,44,0,4
24576,note_on,,,,,0,0,5,,,43,96,4
24576,note_off,,,,,512,0,3,,,46,0,2
24576,note_off,,,,,2048,0,1,,,65,0,0
24832,note_on,,,,,256,0,1,,,69,96,0
24960,note_off,,,,,128,0,1,,,69,0,0
24960,note_on,,,,,0,0,1,,,71,96,0
25088,note_off,,,,,512,0,3,,,51,0,2
25088,note_off,,,,,128,0,1,,,71,0,0
25088,note_on,,,,,0,0,1,,,72,96,0
25088,note_on,,,,,0,0,3,,,50,96,2
25344,note_off,,,,,256,0,1,,,72,0,0
25344,note_on,,,,,0,0,1,,,74,96,0
25344,note_on,,,,,0,0,3,,,48,96,2
25344,note_off,,,,,256,0,3,,,50,0,2
25472,note_off,,,,,128,0,1,,,74,0,0
25472,note_on,,,,,0,0,1,,,75,96,0
25600,note_off,,,,,256,0,3,,,48,0,2
25600,note_on,,,,,0,0,3,,,47,96,2
25600,note_off,,,,,128,0,1,,,75,0,0
25600,note_on,,,,,0,0,1,,,77,96,0
25856,note_on,,,,,0,0,1,,,74,96,0
25856,note_off,,,,,256,0,1,,,77,0,0
26112,note_on,,,,,0,0,1,,,70,96,0
26112,note_off,,,,,1536,0,5,,,43,0,4
26112,note_on,,,,,0,0,5,,,41,96,4
26112,note_on,,,,,0,0,4,,,53,96,3
26112,note_off,,,,,256,0,1,,,74,0,0
26112,note_off,,,,,1536,0,4,,,55,0,3
26112,note_off,,,,,512,0,3,,,47,0,2
26112,note_on,,,,,0,0,3,,,43,96,2
26368,note_off,,,,,256,0,1,,,70,0,0
26368,note_on,,,,,0,0,1,,,74,96,0
26624,note_off,,,,,512,0,3,,,43,0,2
26624,note_off,,,,,512,0,5,,,41,0,4
26624,note_on,,,,,0,0,5,,,39,96,4
26624,note_on,,,,,0,0,4,,,51,96,3
26624,note_off,,,,,512,0,4,,,53,0,3
26624,note_on,,,,,0,0,3,,,48,96,2
26880,note_off,,,,,2304,0,2,,,67,0,1
26880,note_on,,,,,0,0,2,,,63,96,1
27008,note_off,,,,,128,0,2,,,63,0,1
27008,note_on,,,,,0,0,2,,,65,96,1
27136,note_off,,,,,128,0,2,,,65,0,1
27136,note_on,,,,,0,0,1,,,73,96,0
27136,note_off,,,,,768,0,1,,,74,0,0
27136,note_on,,,,,0,0,3,,,46,96,2
27136,note_off,,,,,512,0,3,,,48,0,2
27136,note_on,,,,,0,0,2,,,67,96,1
27392,note_on,,,,,0,0,2,,,68,96,1
27392,note_off,,,,,256,0,2,,,67,0,1
27520,note_off,,,,,128,0,2,,,68,0,1
27520,note_on,,,,,0,0,2,,,70,96,1
27648,note_on,,,,,0,0,5,,,39,96,4
27648,note_off,,,,,1024,0,4,,,51,0,3
27648,note_on,,,,,0,0,3,,,44,96,2
27648,note_off,,,,,512,0,3,,,46,0,2
27648,note_off,,,,,128,0,2,,,70,0,1
27648,note_on,,,,,0,0,2,,,72,96,1
27648,note_on,,,,,0,0,1,,,72,96,0
27648,note_off,,,,,512,0,1,,,73,0,0
27648,note_off,,,,,1024,0,5,,,39,0,4
27648,note_on,,,,,0,0,4,,,51,96,3
27904,note_off,,,,,256,0,2,,,72,0,1
27904,note_on,,,,,0,0,2,,,68,96,1
28160,note_off,,,,,256,0,2,,,68,0,1
28160,note_on,,,,,0,0,2,,,63,96,1
28160,note_off,,,,,512,0,3,,,44,0,2
28160,note_on,,,,,0,0,3,,,56,96,2
28416,note_off,,,,,256,0,2,,,63,0,1
28416,note_on,,,,,0,0,2,,,66,96,1
28672,note_on,,,,,0,0,4,,,53,96,3
28672,note_off,,,,,1024,0,4,,,51,0,3
28672,note_on,,,,,0,0,5,,,41,96,4
28672,note_off,,,,,1024,0,5,,,39,0,4
28672,note_on,,,,,0,0,2,,,65,96,1
28672,note_on,,,,,0,0,3,,,49,96,2
28672,note_off,,,,,512,0,3,,,56,0,2
28672,note_off,,,,,256,0,2,,,66,0,1
28928,note_off,,,,,256,0,2,,,65,0,1
28928,note_off,,,,,1280,0,1,,,72,0,0
28928,note_on,,,,,0,0,1,,,65,96,0
29056,note_off,,,,,128,0,1,,,65,0,0
29056,note_on,,,,,0,0,1,,,67,96,0
29184,note_off,,,,,512,0,3,,,49,0,2
29184,note_on,,,,,0,0,1,,,68,96,0
29184,note_on,,,,,0,0,3,,,48,96,2
29184,note_off,,,,,128,0,1,,,67,0,0
29440,note_off,,,,,256,0,1,,,68,0,0
29440,note_on,,,,,0,0,1,,,70,96,0
29568,note_off,,,,,128,0,1,,,70,0,0
29568,note_on,,,,,0,0,1,,,72,96,0
29696,note_on,,,,,0,0,5,,,41,96,4
29696,note_off,,,,,1024,0,5,,,41,0,4
29696,note_on,,,,,0,0,3,,,46,96,2
29696,note_off,,,,,512,0,3,,,48,0,2
29696,note_on,,,,,0,0,4,,,53,96,3
29696,note_off,,,,,1024,0,4,,,53,0,3
29696,note_on,,,,,0,0,1,,,73,96,0
29696,note_off,,,,,128,0,1,,,72,0,0
29952,note_on,,,,,1024,0,2,,,70,96,1
30208,note_on,,,,,0,0,3,,,58,96,2
30208,note_on,,,,,0,0,2,,,65,96,1
30208,note_off,,,,,512,0,3,,,46,0,2
30208,note_off,,,,,256,0,2,,,70,0,1
30464,note_off,,,,,256,0,2,,,65,0,1
30464,note_on,,,,,0,0,2,,,68,96,1
30720,note_on,,,,,0,0,5,,,43,96,4
30720,note_off,,,,,512,0,3,,,58,0,2
30720,note_on,,,,,0,0,3,,,52,96,2
30720,note_on,,,,,0,0,2,,,67,96,1
30720,note_off,,,,,256,0,2,,,68,0,1
30720,note_off,,,,,1024,0,4,,,53,0,3
30720,note_on,,,,,0,0,4,,,55,96,3
30720,note_off,,,,,1024,0,5,,,41,0,4
30976,note_off,,,,,1280,0,1,,,73,0,0
30976,note_on,,,,,0,0,1,,,70,96,0
31104,note_off,,,,,128,0,1,,,70,0,0
31104,note_on,,,,,0,0,1,,,68,96,0
31232,note_off,,,,,128,0,1,,,68,0,0
31232,note_off,,,,,512,0,2,,,67,0,1
31232,note_on,,,,,0,0,3,,,50,96,2
31232,note_off,,,,,512,0,3,,,52,0,2
31232,note_on,,,,,0,0,1,,,67,96,0
31488,note_on,,,,,0,0,1,,,68,96,0
31488,note_off,,,,,256,0,1,,,67,0,0
31616,note_on,,,,,0,0,1,,,70,96,0
31616,note_off,,,,,128,0,1,,,68,0,0
31744,note_on,,,,,0,0,3,,,48,96,2
31744,note_on,,,,,0,0,5,,,43,96,4
31744,note_off,,,,,1024,0,5,,,43,0,4
31744,note_off,,,,,512,0,3,,,50,0,2
31744,note_on,,,,,0,0,1,,,64,96,0
31744,note_off,,,,,128,0,1,,,70,0,0
31744,note_off,,,,,1024,0,4,,,55,0,3
31744,note_on,,,,,0,0,4,,,55,96,3
32000,note_off,,,,,256,0,3,,,48,0,2
32000,note_on,,,,,0,0,3,,,36,96,2
32000,note_on,,,,,0,0,1,,,67,96,0
32000,note_off,,,,,256,0,1,,,64,0,0
32128,note_off,,,,,128,0,3,,,36,0,2
32128,note_on,,,,,0,0,3,,,38,96,2
32256,note_on,,,,,0,0,1,,,60,96,0
32256,note_off,,,,,128,0,3,,,38,0,2
32256,note_on,,,,,0,0,3,,,40,96,2
32256,note_off,,,,,256,0,1,,,67,0,0
32512,note_off,,,,,256,0,3,,,40,0,2
32512,note_on,,,,,0,0,3,,,41,96,2
32512,note_on,,,,,0,0,1,,,64,96,0
32512,note_off,,,,,256,0,1,,,60,0,0
32640,note_on,,,,,0,0,3,,,43,96,2
32640,note_off,,,,,128,0,3,,,41,0,2
32768,note_off,,,,,128,0,3,,,43,0,2
32768,note_on,,,,,0,0,5,,,36,96,4
32768,note_off,,,,,1024,0,5,,,43,0,4
32768,note_off,,,,,256,0,1,,,64,0,0
32768,note_on,,,,,0,0,1,,,65,96,0
32768,note_off,,,,,1024,0,4,,,55,0,3
32768,note_on,,,,,0,0,4,,,48,96,3
32768,note_on,,,,,0,0,3,,,44,96,2
33024,note_on,,,,,1792,0,2,,,60,96,1
33152,note_off,,,,,128,0,2,,,60,0,1
33152,note_on,,,,,0,0,2,,,62,96,1
33280,note_on,,,,,0,0,3,,,43,96,2
33280,note_on,,,,,0,0,2,,,64,96,1
33280,note_off,,,,,128,0,2,,,62,0,1
33280,note_off,,,,,512,0,1,,,65,0,0
33280,note_off,,,,,512,0,3,,,44,0,2
33536,note_off,,,,,256,0,2,,,64,0,1
33536,note_on,,,,,0,0,2,,,65,96,1
33664,note_off,,,,,128,0,2,,,65,0,1
33664,note_on,,,,,0,0,2,,,67,96,1
33792,note_off,,,,,128,0,2,,,67,0,1
33792,note_on,,,,,0,0,2,,,68,96,1
33792,note_off,,,,,512,0,3,,,43,0,2
33792,note_on,,,,,0,0,3,,,41,96,2
34048,note_on,,,,,768,0,1,,,72,96,0
34176,note_off,,,,,128,0,1,,,72,0,0
34176,note_on,,,,,0,0,1,,,74,96,0
34304,note_off,,,,,128,0,1,,,74,0,0
34304,note_on,,,,,0,0,1,,,76,96,0
34304,note_off,,,,,512,0,2,,,68,0,1
34304,note_off,,,,,512,0,3,,,41,0,2
34304,note_on,,,,,0,0,3,,,36,96,2
34560,note_off,,,,,256,0,1,,,76,0,0
34560,note_on,,,,,0,0,1,,,77,96,0
34688,note_off,,,,,128,0,1,,,77,0,0
34688,note_on,,,,,0,0,1,,,79,96,0
34816,note_off,,,,,512,0,3,,,36,0,2
34816,note_on,,,,,0,0,3,,,39,96,2
34816,note_off,,,,,128,0,1,,,79,0,0
34816,note_on,,,,,0,0,1,,,80,96,0
35072,note_on,,,,,0,0,3,,,48,96,2
35072,note_on,,,,,768,0,2,,,72,96,1
35072,note_off,,,,,256,0,3,,,39,0,2
35200,note_off,,,,,128,0,3,,,48,0,2
35200,note_on,,,,,0,0,3,,,50,96,2
35328,note_off,,,,,128,0,3,,,50,0,2
35328,note_on,,,,,0,0,3,,,52,96,2
35328,note_on,,,,,0,0,1,,,79,96,0
35328,note_off,,,,,512,0,1,,,80,0,0
35584,note_on,,,,,0,0,3,,,53,96,2
35584,note_off,,,,,256,0,3,,,52,0,2
35584,note_on,,,,,0,0,2,,,70,96,1
35584,note_off,,,,,512,0,2,,,72,0,1
35712,note_on,,,,,0,0,3,,,55,96,2
35712,note_off,,,,,128,0,3,,,53,0,2
35840,note_off,,,,,128,0,3,,,55,0,2
35840,note_off,,,,,3072,0,4,,,48,0,3
35840,note_on,,,,,0,0,3,,,56,96,2
35840,note_off,,,,,3072,0,5,,,36,0,4
36096,note_off,,,,,512,0,2,,,70,0,1
36096,note_on,,,,,0,0,2,,,68,96,1
36224,note_off,,,,,128,0,2,,,68,0,1
36224,note_on,,,,,0,0,2,,,67,96,1
36352,note_on,,,,,0,0,3,,,53,96,2
36352,note_off,,,,,512,0,3,,,56,0,2
36352,note_on,,,,,0,0,2,,,68,96,1
36352,note_off,,,,,128,0,2,,,67,0,1
36608,note_off,,,,,1280,0,1,,,79,0,0
36608,note_on,,,,,0,0,1,,,77,96,0
36864,note_off,,,,,512,0,2,,,68,0,1
36864,note_on,,,,,0,0,2,,,67,96,1
36864,note_on,,,,,0,0,3,,,60,96,2
36864,note_off,,,,,512,0,3,,,53,0,2
37120,note_on,,,,,0,0,3,,,55,96,2
37120,note_off,,,,,512,0,1,,,77,0,0
37120,note_off,,,,,256,0,3,,,60,0,2
37120,note_on,,,,,0,0,1,,,76,96,0
37248,note_off,,,,,128,0,1,,,76,0,0
37248,note_on,,,,,0,0,1,,,74,96,0
37376,note_on,,,,,0,0,1,,,76,96,0
37376,note_off,,,,,128,0,1,,,74,0,0
37376,note_off,,,,,256,0,3,,,55,0,2
37376,note_on,,,,,0,0,3,,,48,96,2
37632,note_off,,,,,256,0,3,,,48,0,2
37632,note_on,,,,,0,0,3,,,50,96,2
37632,note_off,,,,,256,0,1,,,76,0,0
37632,note_on,,,,,0,0,1,,,79,96,0
37760,note_off,,,,,128,0,3,,,50,0,2
37760,note_on,,,,,0,0,3,,,52,96,2
37888,note_on,,,,,0,0,2,,,68,96,1
37888,note_off,,,,,128,0,3,,,52,0,2
37888,note_on,,,,,0,0,3,,,53,96,2
37888,note_off,,,,,1024,0,2,,,67,0,1
38144,note_off,,,,,512,0,1,,,79,0,0
38144,note_on,,,,,0,0,1,,,72,96,0
38272,note_off,,,,,128,0,1,,,72,0,0
38272,note_on,,,,,0,0,1,,,73,96,0
38400,note_off,,,,,512,0,2,,,68,0,1
38400,note_off,,,,,512,0,3,,,53,0,2
38400,note_on,,,,,0,0,3,,,48,96,2
38400,note_off,,,,,128,0,1,,,73,0,0
38400,note_on,,,,,0,0,1,,,75,96,0
38656,note_off,,,,,256,0,3,,,48,0,2
38656,note_on,,,,,0,0,3,,,46,96,2
38656,note_on,,,,,0,0,1,,,77,96,0
38656,note_off,,,,,256,0,1,,,75,0,0
38784,note_on,,,,,0,0,1,,,78,96,0
38784,note_off,,,,,128,0,1,,,77,0,0
38912,note_on,,,,,0,0,1,,,78,96,0
38912,note_off,,,,,128,0,1,,,78,0,0
38912,note_on,,,,,512,0,2,,,72,96,1
38912,note_off,,,,,256,0,3,,,46,0,2
38912,note_on,,,,,0,0,3,,,45,96,2
39168,note_on,,,,,0,0,1,,,77,96,0
39168,note_off,,,,,256,0,1,,,78,0,0
39168,note_off,,,,,256,0,3,,,45,0,2
39168,note_on,,,,,0,0,3,,,41,96,2
39296,note_off,,,,,128,0,3,,,41,0,2
39296,note_on,,,,,0,0,3,,,44,96,2
39424,note_off,,,,,256,0,1,,,77,0,0
39424,note_off,,,,,128,0,3,,,44,0,2
39424,note_on,,,,,0,0,1,,,77,96,0
39424,note_on,,,,,0,0,3,,,45,96,2
39680,note_on,,,,,0,0,3,,,46,96,2
39680,note_off,,,,,256,0,3,,,45,0,2
39680,note_off,,,,,256,0,1,,,77,0,0
39680,note_on,,,,,0,0,1,,,75,96,0
39808,note_off,,,,,128,0,3,,,46,0,2
39808,note_on,,,,,0,0,3,,,48,96,2
39936,note_off,,,,,128,0,3,,,48,0,2
39936,note_off,,,,,256,0,1,,,75,0,0
39936,note_on,,,,,0,0,3,,,49,96,2
39936,note_on,,,,,0,0,1,,,75,96,0
40192,note_off,,,,,256,0,1,,,75,0,0
40192,note_on,,,,,0,0,1,,,74,96,0
40192,note_off,,,,,256,0,3,,,49,0,2
40192,note_on,,,,,0,0,3,,,46,96,2
40448,note_off,,,,,256,0,3,,,46,0,2
40448,note_on,,,,,0,0,1,,,74,96,0
40448,note_on,,,,,0,0,3,,,44,96,2
40448,note_on,,,,,0,0,2,,,70,96,1
40448,note_off,,,,,1536,0,2,,,72,0,1
40448,note_off,,,,,256,0,1,,,74,0,0
40704,note_on,,,,,0,0,2,,,68,96,1
40704,note_off,,,,,256,0,2,,,70,0,1
40704,note_off,,,,,256,0,3,,,44,0,2
40704,note_on,,,,,0,0,3,,,46,96,2
40960,note_on,,,,,0,0,2,,,70,96,1
40960,note_off,,,,,256,0,2,,,68,0,1
40960,note_on,,,,,0,0,3,,,40,96,2
40960,note_off,,,,,256,0,3,,,46,0,2
41216,note_off,,,,,768,0,1,,,74,0,0
41216,note_on,,,,,0,0,1,,,67,96,0
41344,note_off,,,,,128,0,1,,,67,0,0
41344,note_on,,,,,0,0,1,,,68,96,0
41472,note_off,,,,,128,0,1,,,68,0,0
41472,note_off,,,,,512,0,2,,,70,0,1
41472,note_on,,,,,0,0,3,,,43,96,2
41472,note_off,,,,,512,0,3,,,40,0,2
41472,note_on,,,,,0,0,1,,,70,96,0
41728,note_off,,,,,256,0,1,,,70,0,0
41728,note_on,,,,,0,0,1,,,72,96,0
41856,note_off,,,,,128,0,1,,,72,0,0
41856,note_on,,,,,0,0,1,,,73,96,0
41984,note_off,,,,,512,0,3,,,43,0,2
41984,note_on,,,,,0,0,3,,,36,96,2
41984,note_on,,,,,512,0,2,,,64,96,1
42240,note_off,,,,,384,0,1,,,73,0,0
42240,note_on,,,,,0,0,1,,,70,96,0
42496,note_on,,,,,0,0,1,,,67,96,0
42496,note_off,,,,,256,0,1,,,70,0,0
42496,note_off,,,,,512,0,3,,,36,0,2
42496,note_on,,,,,0,0,3,,,48,96,2
42752,note_off,,,,,256,0,1,,,67,0,0
42752,note_on,,,,,0,0,1,,,72,96,0
43008,note_off,,,,,512,0,3,,,48,0,2
43008,note_off,,,,,256,0,1,,,72,0,0
43008,note_on,,,,,0,0,1,,,68,96,0
43008,note_off,,,,,1024,0,2,,,64,0,1
43008,note_on,,,,,0,0,3,,,53,96,2
43264,note_on,,,,,256,0,2,,,65,96,1
43392,note_on,,,,,0,0,2,,,67,96,1
43392,note_off,,,,,128,0,2,,,65,0,1
43520,note_off,,,,,128,0,2,,,67,0,1
43520,note_off,,,,,512,0,1,,,68,0,0
43520,note_on,,,,,0,0,3,,,41,96,2
43520,note_off,,,,,512,0,3,,,53,0,2
43520,note_on,,,,,0,0,2,,,68,96,1
43776,note_off,,,,,256,0,2,,,68,0,1
43776,note_on,,,,,0,0,2,,,70,96,1
43904,note_on,,,,,0,0,2,,,72,96,1
43904,note_off,,,,,128,0,2,,,70,0,1
44032,note_off,,,,,512,0,3,,,41,0,2
44032,note_on,,,,,0,0,3,,,46,96,2
44032,note_on,,,,,0,0,2,,,61,96,1
44032,note_off,,,,,128,0,2,,,72,0,1
44288,note_on,,,,,768,0,1,,,70,96,0
44544,note_off,,,,,512,0,2,,,61,0,1
44544,note_off,,,,,256,0,1,,,70,0,0
44544,note_on,,,,,0,0,3,,,49,96,2
44544,note_off,,,,,512,0,3,,,46,0,2
44544,note_on,,,,,0,0,1,,,65,96,0
44800,note_off,,,,,256,0,1,,,65,0,0
44800,note_on,,,,,0,0,1,,,68,96,0
45056,note_off,,,,,512,0,3,,,49,0,2
45056,note_off,,,,,256,0,1,,,68,0,0
45056,note_on,,,,,0,0,1,,,67,96,0
45056,note_on,,,,,0,0,3,,,40,96,2
45312,note_on,,,,,768,0,2,,,60,96,1
45440,note_off,,,,,128,0,2,,,60,0,1
45440,note_on,,,,,0,0,2,,,62,96,1
45568,note_off,,,,,512,0,1,,,67,0,0
45568,note_on,,,,,0,0,2,,,64,96,1
45568,note_off,,,,,128,0,2,,,62,0,1
45568,note_off,,,,,512,0,3,,,40,0,2
45568,note_on,,,,,0,0,3,,,36,96,2
45824,note_on,,,,,0,0,2,,,65,96,1
45824,note_off,,,,,256,0,2,,,64,0,1
45952,note_off,,,,,128,0,2,,,65,0,1
45952,note_on,,,,,0,0,2,,,67,96,1
46080,note_off,,,,,128,0,2,,,67,0,1
46080,note_on,,,,,0,0,2,,,56,96,1
46080,note_off,,,,,512,0,3,,,36,0,2
46080,note_on,,,,,0,0,3,,,41,96,2
46336,note_on,,,,,768,0,1,,,65,96,0
46592,note_off,,,,,512,0,2,,,56,0,1
46592,note_on,,,,,0,0,1,,,59,96,0
46592,note_off,,,,,512,0,3,,,41,0,2
46592,note_on,,,,,0,0,3,,,53,96,2
46592,note_off,,,,,256,0,1,,,65,0,0
46848,note_on,,,,,0,0,1,,,62,96,0
46848,note_off,,,,,256,0,1,,,59,0,0
47104,note_off,,,,,256,0,1,,,62,0,0
47104,note_off,,,,,512,0,3,,,53,0,2
47104,note_on,,,,,0,0,3,,,48,96,2
47104,note_on,,,,,0,0,1,,,63,96,0
47360,note_on,,,,,768,0,2,,,55,96,1
47488,note_on,,,,,0,0,2,,,56,96,1
47488,note_off,,,,,128,0,2,,,55,0,1
47616,note_on,,,,,0,0,2,,,58,96,1
47616,note_off,,,,,128,0,2,,,56,0,1
47872,note_on,,,,,0,0,2,,,60,96,1
47872,note_off,,,,,256,0,2,,,58,0,1
48000,note_on,,,,,0,0,2,,,61,96,1
48000,note_off,,,,,128,0,2,,,60,0,1
48128,note_on,,,,,0,0,2,,,52,96,1
48128,note_off,,,,,128,0,2,,,61,0,1
48128,note_off,,,,,1024,0,1,,,63,0,0
48128,note_off,,,,,1024,0,3,,,48,0,2
48384,note_on,,,,,0,0,2,,,60,96,1
48384,note_off,,,,,256,0,2,,,52,0,1
48384,note_on,,,,,256,0,1,,,60,96,0
48640,note_off,,,,,256,0,2,,,60,0,1
48640,note_on,,,,,0,0,2,,,55,96,1
48896,note_on,,,,,0,0,2,,,58,96,1
48896,note_off,,,,,256,0,2,,,55,0,1
49152,note_off,,,,,256,0,2,,,58,0,1
49152,note_on,,,,,0,0,2,,,56,96,1
49152,note_on,,,,,0,0,1,,,65,96,0
49152,note_off,,,,,768,0,1,,,60,0,0
49408,note_off,,,,,256,0,2,,,56,0,1
49408,note_on,,,,,1280,0,3,,,53,96,2
49536,note_on,,,,,0,0,3,,,55,96,2
49536,note_off,,,,,128,0,3,,,53,0,2
49664,note_on,,,,,0,0,3,,,56,96,2
49664,note_off,,,,,128,0,3,,,55,0,2
49920,note_off,,,,,256,0,3,,,56,0,2
49920,note_off,,,,,768,0,1,,,65,0,0
49920,note_on,,,,,0,0,3,,,58,96,2
49920,note_on,,,,,0,0,1,,,67,96,0
50048,note_on,,,,,0,0,3,,,60,96,2
50048,note_on,,,,,0,0,1,,,68,96,0
50048,note_off,,,,,128,0,3,,,58,0,2
50048,note_off,,,,,128,0,1,,,67,0,0
50176,note_on,,,,,0,0,1,,,67,96,0
50176,note_on,,,,,0,0,3,,,61,96,2
50176,note_off,,,,,128,0,3,,,60,0,2
50176,note_off,,,,,128,0,1,,,68,0,0
50432,note_on,,,,,0,0,3,,,58,96,2
50432,note_off,,,,,256,0,3,,,61,0,2
50688,note_off,,,,,256,0,3,,,58,0,2
50688,note_on,,,,,0,0,3,,,52,96,2
50944,note_off,,,,,768,0,1,,,67,0,0
50944,note_on,,,,,0,0,1,,,65,96,0
50944,note_off,,,,,256,0,3,,,52,0,2
50944,note_on,,,,,0,0,3,,,60,96,2
51072,note_off,,,,,128,0,1,,,65,0,0
51072,note_on,,,,,0,0,1,,,67,96,0
51200,note_on,,,,,0,0,3,,,53,96,2
51200,note_off,,,,,128,0,1,,,67,0,0
51200,note_on,,,,,0,0,1,,,68,96,0
51200,note_off,,,,,256,0,3,,,60,0,2
51456,note_on,,,,,2048,0,2,,,56,96,1
51584,note_on,,,,,0,0,2,,,58,96,1
51584,note_off,,,,,128,0,2,,,56,0,1
51712,note_on,,,,,0,0,3,,,51,96,2
51712,note_off,,,,,512,0,3,,,53,0,2
51712,note_off,,,,,128,0,2,,,58,0,1
51712,note_on,,,,,0,0,2,,,60,96,1
51968,note_off,,,,,256,0,2,,,60,0,1
51968,note_on,,,,,0,0,2,,,62,96,1
52096,note_off,,,,,128,0,2,,,62,0,1
52096,note_on,,,,,0,0,2,,,63,96,1
52224,note_off,,,,,1024,0,1,,,68,0,0
52224,note_on,,,,,0,0,1,,,70,96,0
52224,note_off,,,,,128,0,2,,,63,0,1
52224,note_on,,,,,0,0,2,,,65,96,1
52224,note_on,,,,,0,0,3,,,50,96,2
52224,note_off,,,,,512,0,3,,,51,0,2
52480,note_on,,,,,0,0,2,,,58,96,1
52480,note_off,,,,,256,0,2,,,65,0,1
52736,note_off,,,,,512,0,1,,,70,0,0
52736,note_on,,,,,0,0,1,,,68,96,0
52736,note_on,,,,,0,0,3,,,46,96,2
52736,note_off,,,,,256,0,2,,,58,0,1
52736,note_on,,,,,0,0,2,,,53,96,1
52736,note_off,,,,,512,0,3,,,50,0,2
52992,note_off,,,,,256,0,2,,,53,0,1
52992,note_on,,,,,0,0,2,,,62,96,1
53248,note_on,,,,,0,0,3,,,51,96,2
53248,note_on,,,,,0,0,1,,,67,96,0
53248,note_off,,,,,512,0,3,,,46,0,2
53248,note_off,,,,,512,0,1,,,68,0,0
53504,note_off,,,,,256,0,1,,,67,0,0
53504,note_on,,,,,0,0,1,,,69,96,0
53632,note_off,,,,,128,0,1,,,69,0,0
53632,note_on,,,,,0,0,1,,,71,96,0
53760,note_on,,,,,0,0,2,,,60,96,1
53760,note_off,,,,,128,0,1,,,71,0,0
53760,note_off,,,,,768,0,2,,,62,0,1
53760,note_on,,,,,0,0,1,,,72,96,0
54016,note_off,,,,,256,0,1,,,72,0,0
54016,note_on,,,,,0,0,1,,,74,96,0
54144,note_off,,,,,128,0,1,,,74,0,0
54144,note_on,,,,,0,0,1,,,75,96,0
54272,note_off,,,,,128,0,1,,,75,0,0
54272,note_on,,,,,0,0,1,,,77,96,0
54272,note_off,,,,,1024,0,3,,,51,0,2
54272,note_on,,,,,0,0,3,,,50,96,2
54528,note_off,,,,,256,0,1,,,77,0,0
54528,note_on,,,,,0,0,1,,,74,96,0
54784,note_on,,,,,0,0,2,,,59,96,1
54784,note_off,,,,,1024,0,2,,,60,0,1
54784,note_off,,,,,256,0,1,,,74,0,0
54784,note_on,,,,,0,0,1,,,67,96,0
55040,note_on,,,,,0,0,1,,,77,96,0
55040,note_off,,,,,256,0,1,,,67,0,0
55296,note_on,,,,,0,0,1,,,75,96,0
55296,note_off,,,,,1024,0,3,,,50,0,2
55296,note_on,,,,,0,0,2,,,60,96,1
55296,note_off,,,,,512,0,2,,,59,0,1
55296,note_off,,,,,256,0,1,,,77,0,0
55552,note_on,,,,,256,0,3,,,48,96,2
55680,note_off,,,,,128,0,3,,,48,0,2
55680,note_on,,,,,0,0,3,,,50,96,2
55808,note_on,,,,,0,0,3,,,51,96,2
55808,note_off,,,,,128,0,3,,,50,0,2
56064,note_on,,,,,0,0,3,,,53,96,2
56064,note_off,,,,,256,0,3,,,51,0,2
56192,note_off,,,,,128,0,3,,,53,0,2
56192,note_on,,,,,0,0,3,,,55,96,2
56320,note_off,,,,,1024,0,1,,,75,0,0
56320,note_off,,,,,1024,0,2,,,60,0,1
56320,note_on,,,,,0,0,3,,,56,96,2
56320,note_off,,,,,128,0,3,,,55,0,2
56576,note_on,,,,,256,0,1,,,65,96,0
56704,note_off,,,,,128,0,1,,,65,0,0
56704,note_on,,,,,0,0,1,,,67,96,0
56832,note_off,,,,,128,0,1,,,67,0,0
56832,note_on,,,,,0,0,1,,,68,96,0
57088,note_on,,,,,0,0,1,,,70,96,0
57088,note_off,,,,,256,0,1,,,68,0,0
57216,note_on,,,,,0,0,1,,,72,96,0
57216,note_off,,,,,128,0,1,,,70,0,0
57344,note_off,,,,,128,0,1,,,72,0,0
57344,note_on,,,,,0,0,1,,,73,96,0
57600,note_off,,,,,1280,0,3,,,56,0,2
57600,note_on,,,,,0,0,3,,,46,96,2
57728,note_on,,,,,0,0,3,,,48,96,2
57728,note_off,,,,,128,0,3,,,46,0,2
57856,note_off,,,,,128,0,3,,,48,0,2
57856,note_on,,,,,0,0,3,,,49,96,2
58112,note_on,,,,,0,0,3,,,51,96,2
58112,note_off,,,,,256,0,3,,,49,0,2
58240,note_on,,,,,0,0,3,,,53,96,2
58240,note_off,,,,,128,0,3,,,51,0,2
58368,note_off,,,,,128,0,3,,,53,0,2
58368,note_on,,,,,0,0,3,,,55,96,2
58624,note_off,,,,,1280,0,1,,,73,0,0
58624,note_on,,,,,0,0,1,,,63,96,0
58752,note_off,,,,,128,0,1,,,63,0,0
58752,note_on,,,,,0,0,1,,,65,96,0
58880,note_off,,,,,128,0,1,,,65,0,0
58880,note_on,,,,,0,0,1,,,67,96,0
59136,note_on,,,,,0,0,1,,,68,96,0
59136,note_off,,,,,256,0,1,,,67,0,0
59264,note_off,,,,,128,0,1,,,68,0,0
59264,note_on,,,,,0,0,1,,,70,96,0
59392,note_off,,,,,128,0,1,,,70,0,0
59392,note_on,,,,,0,0,1,,,72,96,0
59648,note_on,,,,,3328,0,2,,,62,96,1
59776,note_off,,,,,128,0,2,,,62,0,1
59776,note_on,,,,,0,0,2,,,64,96,1
59904,note_off,,,,,128,0,2,,,64,0,1
59904,note_on,,,,,0,0,2,,,65,96,1
59904,note_on,,,,,0,0,3,,,53,96,2
59904,note_off,,,,,1536,0,3,,,55,0,2
60160,note_on,,,,,0,0,2,,,67,96,1
60160,note_off,,,,,256,0,2,,,65,0,1
60288,note_off,,,,,128,0,2,,,67,0,1
60288,note_on,,,,,0,0,2,,,68,96,1
60416,note_off,,,,,128,0,2,,,68,0,1
60416,note_on,,,,,0,0,2,,,70,96,1
60672,note_off,,,,,256,0,2,,,70,0,1
60672,note_on,,,,,0,0,2,,,67,96,1
60928,note_off,,,,,1024,0,3,,,53,0,2
60928,note_on,,,,,0,0,3,,,52,96,2
60928,note_on,,,,,0,0,2,,,60,96,1
60928,note_off,,,,,256,0,2,,,67,0,1
61184,note_on,,,,,0,0,2,,,70,96,1
61184,note_off,,,,,256,0,2,,,60,0,1
61440,note_on,,,,,0,0,3,,,53,96,2
61440,note_on,,,,,0,0,2,,,68,96,1
61440,note_off,,,,,256,0,2,,,70,0,1
61440,note_off,,,,,512,0,3,,,52,0,2
61696,note_off,,,,,256,0,3,,,53,0,2
61696,note_on,,,,,0,0,3,,,41,96,2
61824,note_on,,,,,0,0,3,,,43,96,2
61824,note_off,,,,,128,0,3,,,41,0,2
61952,note_on,,,,,0,0,3,,,44,96,2
61952,note_off,,,,,128,0,3,,,43,0,2
61952,note_off,,,,,512,0,2,,,68,0,1
61952,note_on,,,,,0,0,2,,,67,96,1
62208,note_off,,,,,256,0,3,,,44,0,2
62208,note_on,,,,,0,0,3,,,46,96,2
62336,note_off,,,,,128,0,3,,,46,0,2
62336,note_on,,,,,0,0,3,,,48,96,2
62464,note_off,,,,,512,0,2,,,67,0,1
62464,note_on,,,,,0,0,3,,,49,96,2
62464,note_on,,,,,0,0,2,,,65,96,1
62464,note_off,,,,,128,0,3,,,48,0,2
62720,note_off,,,,,256,0,3,,,49,0,2
62720,note_on,,,,,0,0,3,,,46,96,2
62976,note_off,,,,,256,0,3,,,46,0,2
62976,note_on,,,,,0,0,3,,,41,96,2
62976,note_off,,,,,3584,0,1,,,72,0,0
62976,note_on,,,,,0,0,1,,,70,96,0
62976,note_on,,,,,0,0,2,,,67,96,1
62976,note_off,,,,,512,0,2,,,65,0,1
63232,note_off,,,,,256,0,3,,,41,0,2
63232,note_on,,,,,0,0,3,,,49,96,2
63488,note_on,,,,,27648,0,5,,,36,96,4
63488,note_on,,,,,27648,0,4,,,48,96,3
63488,note_on,,,,,0,0,3,,,40,96,2
63488,note_off,,,,,256,0,3,,,49,0,2
63744,note_on,,,,,0,0,1,,,72,96,0
63744,note_off,,,,,768,0,1,,,70,0,0
63872,note_off,,,,,128,0,1,,,72,0,0
63872,note_on,,,,,0,0,1,,,70,96,0
64000,note_off,,,,,512,0,3,,,40,0,2
64000,note_on,,,,,0,0,3,,,41,96,2
64000,note_on,,,,,0,0,1,,,68,96,0
64000,note_off,,,,,128,0,1,,,70,0,0
64000,note_off,,,,,1024,0,2,,,67,0,1
64000,note_on,,,,,0,0,2,,,65,96,1
64256,note_on,,,,,0,0,1,,,70,96,0
64256,note_off,,,,,256,0,1,,,68,0,0
64384,note_off,,,,,128,0,1,,,70,0,0
64384,note_on,,,,,0,0,1,,,72,96,0
64512,note_on,,,,,0,0,1,,,73,96,0
64512,note_off,,,,,128,0,1,,,72,0,0
64512,note_off,,,,,512,0,3,,,41,0,2
64512,note_on,,,,,0,0,3,,,36,96,2
64768,note_off,,,,,256,0,1,,,73,0,0
64768,note_on,,,,,0,0,1,,,70,96,0
65024,note_off,,,,,1024,0,2,,,65,0,1
65024,note_on,,,,,0,0,3,,,48,96,2
65024,note_off,,,,,512,0,3,,,36,0,2
65024,note_on,,,,,0,0,1,,,67,96,0
65024,note_on,,,,,0,0,2,,,64,96,1
65024,note_off,,,,,256,0,1,,,70,0,0
65280,note_on,,,,,0,0,1,,,72,96,0
65280,note_off,,,,,256,0,1,,,67,0,0
65536,note_off,,,,,2048,0,4,,,48,0,3
65536,note_on,,,,,0,0,5,,,41,96,4
65536,note_off,,,,,2048,0,5,,,36,0,4
65536,note_on,,,,,0,0,3,,,49,96,2
65536,note_off,,,,,512,0,3,,,48,0,2
65536,note_on,,,,,0,0,1,,,68,96,0
65536,note_off,,,,,256,0,1,,,72,0,0
65536,note_off,,,,,512,0,2,,,64,0,1
65536,note_on,,,,,0,0,2,,,65,96,1
65536,note_on,,,,,0,0,4,,,53,96,3
65792,note_off,,,,,256,0,2,,,65,0,1
65792,note_on,,,,,0,0,2,,,53,96,1
65920,note_off,,,,,128,0,2,,,53,0,1
65920,note_on,,,,,0,0,2,,,55,96,1
66048,note_off,,,,,512,0,1,,,68,0,0
66048,note_on,,,,,0,0,2,,,56,96,1
66048,note_on,,,,,0,0,1,,,65,96,0
66048,note_on,,,,,0,0,3,,,48,96,2
66048,note_off,,,,,128,0,2,,,55,0,1
66048,note_off,,,,,512,0,3,,,49,0,2
66304,note_off,,,,,256,0,2,,,56,0,1
66304,note_on,,,,,0,0,2,,,58,96,1
66432,note_off,,,,,128,0,2,,,58,0,1
66432,note_on,,,,,0,0,2,,,60,96,1
66560,note_off,,,,,128,0,2,,,60,0,1
66560,note_on,,,,,0,0,2,,,61,96,1
66560,note_on,,,,,0,0,5,,,43,96,4
66560,note_off,,,,,1024,0,5,,,41,0,4
66560,note_on,,,,,0,0,4,,,55,96,3
66560,note_on,,,,,0,0,3,,,46,96,2
66560,note_off,,,,,1024,0,4,,,53,0,3
66560,note_off,,,,,512,0,3,,,48,0,2
66816,note_on,,,,,0,0,2,,,58,96,1
66816,note_off,,,,,256,0,2,,,61,0,1
67072,note_off,,,,,256,0,2,,,58,0,1
67072,note_off,,,,,512,0,3,,,46,0,2
67072,note_on,,,,,0,0,3,,,48,96,2
67072,note_on,,,,,0,0,1,,,64,96,0
67072,note_off,,,,,1024,0,1,,,65,0,0
67072,note_on,,,,,0,0,2,,,55,96,1
67328,note_off,,,,,256,0,2,,,55,0,1
67328,note_on,,,,,0,0,2,,,60,96,1
67584,note_off,,,,,256,0,2,,,60,0,1
67584,note_on,,,,,0,0,2,,,53,96,1
67584,note_off,,,,,1024,0,5,,,43,0,4
67584,note_on,,,,,0,0,1,,,65,96,0
67584,note_on,,,,,0,0,5,,,44,96,4
67584,note_off,,,,,512,0,3,,,48,0,2
67584,note_off,,,,,512,0,1,,,64,0,0
67584,note_off,,,,,1024,0,4,,,55,0,3
67584,note_on,,,,,0,0,4,,,56,96,3
67840,note_on,,,,,256,0,3,,,48,96,2
68096,note_on,,,,,0,0,3,,,41,96,2
68096,note_off,,,,,256,0,3,,,48,0,2
68352,note_off,,,,,256,0,3,,,41,0,2
68352,note_on,,,,,0,0,3,,,51,96,2
68608,note_off,,,,,1024,0,5,,,44,0,4
68608,note_on,,,,,0,0,5,,,46,96,4
68608,note_on,,,,,0,0,4,,,58,96,3
68608,note_off,,,,,1024,0,4,,,56,0,3
68608,note_off,,,,,1024,0,2,,,53,0,1
68608,note_on,,,,,0,0,3,,,50,96,2
68608,note_off,,,,,256,0,3,,,51,0,2
68864,note_on,,,,,256,0,2,,,58,96,1
68992,note_off,,,,,128,0,2,,,58,0,1
68992,note_on,,,,,0,0,2,,,60,96,1
69120,note_off,,,,,512,0,4,,,58,0,3
69120,note_on,,,,,0,0,4,,,56,96,3
69120,note_off,,,,,512,0,3,,,50,0,2
69120,note_on,,,,,0,0,5,,,44,96,4
69120,note_on,,,,,0,0,2,,,62,96,1
69120,note_off,,,,,128,0,2,,,60,0,1
69120,note_on,,,,,0,0,3,,,46,96,2
69120,note_off,,,,,512,0,5,,,46,0,4
69376,note_on,,,,,0,0,2,,,63,96,1
69376,note_off,,,,,256,0,2,,,62,0,1
69504,note_on,,,,,0,0,2,,,65,96,1
69504,note_off,,,,,128,0,2,,,63,0,1
69632,note_off,,,,,128,0,2,,,65,0,1
69632,note_on,,,,,0,0,2,,,67,96,1
69632,note_on,,,,,0,0,3,,,51,96,2
69632,note_on,,,,,0,0,4,,,55,96,3
69632,note_off,,,,,2048,0,1,,,65,0,0
69632,note_off,,,,,512,0,4,,,56,0,3
69632,note_on,,,,,0,0,5,,,43,96,4
69632,note_off,,,,,512,0,5,,,44,0,4
69632,note_off,,,,,512,0,3,,,46,0,2
69888,note_on,,,,,256,0,1,,,69,96,0
70016,note_off,,,,,128,0,1,,,69,0,0
70016,note_on,,,,,0,0,1,,,71,96,0
70144,note_off,,,,,512,0,3,,,51,0,2
70144,note_on,,,,,0,0,3,,,50,96,2
70144,note_off,,,,,128,0,1,,,71,0,0
70144,note_on,,,,,0,0,1,,,72,96,0
70400,note_off,,,,,256,0,1,,,72,0,0
70400,note_on,,,,,0,0,1,,,74,96,0
70400,note_off,,,,,256,0,3,,,50,0,2
70400,note_on,,,,,0,0,3,,,48,96,2
70528,note_off,,,,,128,0,1,,,74,0,0
70528,note_on,,,,,0,0,1,,,75,96,0
70656,note_off,,,,,256,0,3,,,48,0,2
70656,note_on,,,,,0,0,3,,,47,96,2
70656,note_off,,,,,128,0,1,,,75,0,0
70656,note_on,,,,,0,0,1,,,77,96,0
70912,note_off,,,,,256,0,1,,,77,0,0
70912,note_on,,,,,0,0,1,,,74,96,0
71168,note_on,,,,,0,0,1,,,70,96,0
71168,note_off,,,,,256,0,1,,,74,0,0
71168,note_on,,,,,0,0,5,,,41,96,4
71168,note_off,,,,,512,0,3,,,47,0,2
71168,note_on,,,,,0,0,3,,,43,96,2
71168,note_off,,,,,1536,0,4,,,55,0,3
71168,note_on,,,,,0,0,4,,,53,96,3
71168,note_off,,,,,1536,0,5,,,43,0,4
71424,note_on,,,,,0,0,1,,,74,96,0
71424,note_off,,,,,256,0,1,,,70,0,0
71680,note_on,,,,,0,0,4,,,51,96,3
71680,note_off,,,,,512,0,3,,,43,0,2
71680,note_off,,,,,512,0,4,,,53,0,3
71680,note_on,,,,,0,0,5,,,39,96,4
71680,note_on,,,,,0,0,3,,,48,96,2
71680,note_off,,,,,512,0,5,,,41,0,4
71936,note_off,,,,,2304,0,2,,,67,0,1
71936,note_on,,,,,0,0,2,,,63,96,1
72064,note_on,,,,,0,0,2,,,65,96,1
72064,note_off,,,,,128,0,2,,,63,0,1
72192,note_off,,,,,512,0,3,,,48,0,2
72192,note_off,,,,,128,0,2,,,65,0,1
72192,note_on,,,,,0,0,2,,,67,96,1
72192,note_off,,,,,768,0,1,,,74,0,0
72192,note_on,,,,,0,0,1,,,73,96,0
72192,note_on,,,,,0,0,3,,,46,96,2
72448,note_off,,,,,256,0,2,,,67,0,1
72448,note_on,,,,,0,0,2,,,68,96,1
72576,note_off,,,,,128,0,2,,,68,0,1
72576,note_on,,,,,0,0,2,,,70,96,1
72704,note_on,,,,,0,0,2,,,72,96,1
72704,note_off,,,,,128,0,2,,,70,0,1
72704,note_on,,,,,0,0,4,,,51,96,3
72704,note_on,,,,,0,0,3,,,44,96,2
72704,note_off,,,,,1024,0,5,,,39,0,4
72704,note_off,,,,,1024,0,4,,,51,0,3
72704,note_off,,,,,512,0,1,,,73,0,0
72704,note_on,,,,,0,0,1,,,72,96,0
72704,note_on,,,,,0,0,5,,,39,96,4
72704,note_off,,,,,512,0,3,,,46,0,2
72960,note_off,,,,,256,0,2,,,72,0,1
72960,note_on,,,,,0,0,2,,,68,96,1
73216,note_on,,,,,0,0,2,,,63,96,1
73216,note_off,,,,,512,0,3,,,44,0,2
73216,note_off,,,,,256,0,2,,,68,0,1
73216,note_on,,,,,0,0,3,,,56,96,2
73472,note_off,,,,,256,0,2,,,63,0,1
73472,note_on,,,,,0,0,2,,,66,96,1
73728,note_off,,,,,1024,0,5,,,39,0,4
73728,note_on,,,,,0,0,5,,,41,96,4
73728,note_on,,,,,0,0,4,,,53,96,3
73728,note_off,,,,,1024,0,4,,,51,0,3
73728,note_on,,,,,0,0,3,,,49,96,2
73728,note_off,,,,,256,0,2,,,66,0,1
73728,note_off,,,,,512,0,3,,,56,0,2
73728,note_on,,,,,0,0,2,,,65,96,1
73984,note_on,,,,,0,0,1,,,65,96,0
73984,note_off,,,,,1280,0,1,,,72,0,0
73984,note_off,,,,,256,0,2,,,65,0,1
74112,note_on,,,,,0,0,1,,,67,96,0
74112,note_off,,,,,128,0,1,,,65,0,0
74240,note_off,,,,,128,0,1,,,67,0,0
74240,note_on,,,,,0,0,3,,,48,96,2
74240,note_off,,,,,512,0,3,,,49,0,2
74240,note_on,,,,,0,0,1,,,68,96,0
74496,note_off,,,,,256,0,1,,,68,0,0
74496,note_on,,,,,0,0,1,,,70,96,0
74624,note_on,,,,,0,0,1,,,72,96,0
74624,note_off,,,,,128,0,1,,,70,0,0
74752,note_on,,,,,0,0,5,,,41,96,4
74752,note_off,,,,,1024,0,5,,,41,0,4
74752,note_off,,,,,128,0,1,,,72,0,0
74752,note_on,,,,,0,0,1,,,73,96,0
74752,note_on,,,,,0,0,4,,,53,96,3
74752,note_off,,,,,1024,0,4,,,53,0,3
74752,note_off,,,,,512,0,3,,,48,0,2
74752,note_on,,,,,0,0,3,,,46,96,2
75008,note_on,,,,,1024,0,2,,,70,96,1
75264,note_on,,,,,0,0,2,,,65,96,1
75264,note_on,,,,,0,0,3,,,58,96,2
75264,note_off,,,,,256,0,2,,,70,0,1
75264,note_off,,,,,512,0,3,,,46,0,2
75520,note_off,,,,,256,0,2,,,65,0,1
75520,note_on,,,,,0,0,2,,,68,96,1
75776,note_off,,,,,512,0,3,,,58,0,2
75776,note_on,,,,,0,0,3,,,52,96,2
75776,note_off,,,,,1024,0,5,,,41,0,4
75776,note_on,,,,,0,0,5,,,43,96,4
75776,note_off,,,,,256,0,2,,,68,0,1
75776,note_on,,,,,0,0,4,,,55,96,3
75776,note_off,,,,,1024,0,4,,,53,0,3
75776,note_on,,,,,0,0,2,,,67,96,1
76032,note_off,,,,,1280,0,1,,,73,0,0
76032,note_on,,,,,0,0,1,,,70,96,0
76160,note_on,,,,,0,0,1,,,68,96,0
76160,note_off,,,,,128,0,1,,,70,0,0
76288,note_off,,,,,128,0,1,,,68,0,0
76288,note_on,,,,,0,0,3,,,50,96,2
76288,note_off,,,,,512,0,3,,,52,0,2
76288,note_off,,,,,512,0,2,,,67,0,1
76288,note_on,,,,,0,0,1,,,67,96,0
76544,note_on,,,,,0,0,1,,,68,96,0
76544,note_off,,,,,256,0,1,,,67,0,0
76672,note_off,,,,,128,0,1,,,68,0,0
76672,note_on,,,,,0,0,1,,,70,96,0
76800,note_off,,,,,1024,0,4,,,55,0,3
76800,note_on,,,,,0,0,4,,,55,96,3
76800,note_off,,,,,1024,0,5,,,43,0,4
76800,note_on,,,,,0,0,5,,,43,96,4
76800,note_on,,,,,0,0,3,,,48,96,2
76800,note_off,,,,,128,0,1,,,70,0,0
76800,note_on,,,,,0,0,1,,,64,96,0
76800,note_off,,,,,512,0,3,,,50,0,2
77056,note_on,,,,,0,0,3,,,36,96,2
77056,note_off,,,,,256,0,1,,,64,0,0
77056,note_on,,,,,0,0,1,,,67,96,0
77056,note_off,,,,,256,0,3,,,48,0,2
77184,note_off,,,,,128,0,3,,,36,0,2
77184,note_on,,,,,0,0,3,,,38,96,2
77312,note_on,,,,,0,0,1,,,60,96,0
77312,note_off,,,,,256,0,1,,,67,0,0
77312,note_on,,,,,0,0,3,,,40,96,2
77312,note_off,,,,,128,0,3,,,38,0,2
77568,note_off,,,,,256,0,1,,,60,0,0
77568,note_on,,,,,0,0,3,,,41,96,2
77568,note_off,,,,,256,0,3,,,40,0,2
77568,note_on,,,,,0,0,1,,,64,96,0
77696,note_off,,,,,128,0,3,,,41,0,2
77696,note_on,,,,,0,0,3,,,43,96,2
77824,note_on,,,,,0,0,1,,,65,96,0
77824,note_on,,,,,0,0,4,,,48,96,3
77824,note_off,,,,,1024,0,4,,,55,0,3
77824,note_off,,,,,256,0,1,,,64,0,0
77824,note_on,,,,,0,0,3,,,44,96,2
77824,note_off,,,,,128,0,3,,,43,0,2
77824,note_off,,,,,1024,0,5,,,43,0,4
77824,note_on,,,,,0,0,5,,,36,96,4
78080,note_on,,,,,1792,0,2,,,60,96,1
78208,note_on,,,,,0,0,2,,,62,96,1
78208,note_off,,,,,128,0,2,,,60,0,1
78336,note_off,,,,,512,0,1,,,65,0,0
78336,note_off,,,,,128,0,2,,,62,0,1
78336,note_on,,,,,0,0,3,,,43,96,2
78336,note_off,,,,,512,0,3,,,44,0,2
78336,note_on,,,,,0,0,2,,,64,96,1
78592,note_off,,,,,256,0,2,,,64,0,1
78592,note_on,,,,,0,0,2,,,65,96,1
78720,note_off,,,,,128,0,2,,,65,0,1
78720,note_on,,,,,0,0,2,,,67,96,1
78848,note_on,,,,,0,0,2,,,68,96,1
78848,note_off,,,,,128,0,2,,,67,0,1
78848,note_on,,,,,0,0,3,,,41,96,2
78848,note_off,,,,,512,0,3,,,43,0,2
79104,note_on,,,,,768,0,1,,,72,96,0
79232,note_off,,,,,128,0,1,,,72,0,0
79232,note_on,,,,,0,0,1,,,74,96,0
79360,note_off,,,,,512,0,3,,,41,0,2
79360,note_off,,,,,512,0,2,,,68,0,1
79360,note_on,,,,,0,0,3,,,36,96,2
79360,note_off,,,,,128,0,1,,,74,0,0
79360,note_on,,,,,0,0,1,,,76,96,0
79616,note_off,,,,,256,0,1,,,76,0,0
79616,note_on,,,,,0,0,1,,,77,96,0
79744,note_off,,,,,128,0,1,,,77,0,0
79744,note_on,,,,,0,0,1,,,79,96,0
79872,note_on,,,,,0,0,3,,,39,96,2
79872,note_on,,,,,0,0,1,,,80,96,0
79872,note_off,,,,,512,0,3,,,36,0,2
79872,note_off,,,,,128,0,1,,,79,0,0
80128,note_on,,,,,768,0,2,,,72,96,1
80128,note_off,,,,,256,0,3,,,39,0,2
80128,note_on,,,,,0,0,3,,,48,96,2
80256,note_on,,,,,0,0,3,,,50,96,2
80256,note_off,,,,,128,0,3,,,48,0,2
80384,note_off,,,,,512,0,1,,,80,0,0
80384,note_on,,,,,0,0,1,,,79,96,0
80384,note_on,,,,,0,0,3,,,52,96,2
80384,note_off,,,,,128,0,3,,,50,0,2
80640,note_on,,,,,0,0,3,,,53,96,2
80640,note_off,,,,,256,0,3,,,52,0,2
80640,note_off,,,,,512,0,2,,,72,0,1
80640,note_on,,,,,0,0,2,,,70,96,1
80768,note_off,,,,,128,0,3,,,53,0,2
80768,note_on,,,,,0,0,3,,,55,96,2
80896,note_off,,,,,3072,0,4,,,48,0,3
80896,note_off,,,,,3072,0,5,,,36,0,4
80896,note_off,,,,,128,0,3,,,55,0,2
80896,note_on,,,,,0,0,3,,,56,96,2
81152,note_on,,,,,0,0,2,,,68,96,1
81152,note_off,,,,,512,0,2,,,70,0,1
81280,note_off,,,,,128,0,2,,,68,0,1
81280,note_on,,,,,0,0,2,,,67,96,1
81408,note_on,,,,,0,0,3,,,53,96,2
81408,note_on,,,,,0,0,2,,,68,96,1
81408,note_off,,,,,512,0,3,,,56,0,2
81408,note_off,,,,,128,0,2,,,67,0,1
81664,note_off,,,,,1280,0,1,,,79,0,0
81664,note_on,,,,,0,0,1,,,77,96,0
81920,note_on,,,,,0,0,3,,,60,96,2
81920,note_off,,,,,512,0,3,,,53,0,2
81920,note_on,,,,,0,0,2,,,67,96,1
81920,note_off,,,,,512,0,2,,,68,0,1
82176,note_off,,,,,256,0,3,,,60,0,2
82176,note_off,,,,,512,0,1,,,77,0,0
82176,note_on,,,,,0,0,1,,,76,96,0
82176,note_on,,,,,0,0,3,,,55,96,2
82304,note_off,,,,,128,0,1,,,76,0,0
82304,note_on,,,,,0,0,1,,,74,96,0
82432,note_off,,,,,256,0,3,,,55,0,2
82432,note_on,,,,,0,0,1,,,76,96,0
82432,note_off,,,,,128,0,1,,,74,0,0
82432,note_on,,,,,0,0,3,,,48,96,2
82688,note_on,,,,,0,0,1,,,79,96,0
82688,note_off,,,,,256,0,3,,,48,0,2
82688,note_on,,,,,0,0,3,,,50,96,2
82688,note_off,,,,,256,0,1,,,76,0,0
82816,note_on,,,,,0,0,3,,,52,96,2
82816,note_off,,,,,128,0,3,,,50,0,2
82944,note_off,,,,,1024,0,2,,,67,0,1
82944,note_on,,,,,0,0,3,,,53,96,2
82944,note_on,,,,,0,0,2,,,68,96,1
82944,note_off,,,,,128,0,3,,,52,0,2
83200,note_on,,,,,0,0,1,,,72,96,0
83200,note_off,,,,,512,0,1,,,79,0,0
83328,note_off,,,,,128,0,1,,,72,0,0
83328,note_on,,,,,0,0,1,,,73,96,0
83456,note_off,,,,,512,0,2,,,68,0,1
83456,note_on,,,,,0,0,3,,,48,96,2
83456,note_off,,,,,512,0,3,,,53,0,2
83456,note_off,,,,,128,0,1,,,73,0,0
83456,note_on,,,,,0,0,1,,,75,96,0
83712,note_on,,,,,0,0,3,,,46,96,2
83712,note_off,,,,,256,0,3,,,48,0,2
83712,note_on,,,,,0,0,1,,,77,96,0
83712,note_off,,,,,256,0,1,,,75,0,0
83840,note_on,,,,,0,0,1,,,78,96,0
83840,note_off,,,,,128,0,1,,,77,0,0
83968,note_off,,,,,256,0,3,,,46,0,2
83968,note_on,,,,,0,0,3,,,45,96,2
83968,note_on,,,,,0,0,1,,,78,96,0
83968,note_off,,,,,128,0,1,,,78,0,0
83968,note_on,,,,,512,0,2,,,72,96,1
84224,note_off,,,,,256,0,1,,,78,0,0
84224,note_on,,,,,0,0,1,,,77,96,0
84224,note_off,,,,,256,0,3,,,45,0,2
84224,note_on,,,,,0,0,3,,,41,96,2
84352,note_on,,,,,0,0,3,,,44,96,2
84352,note_off,,,,,128,0,3,,,41,0,2
84480,note_on,,,,,0,0,3,,,45,96,2
84480,note_on,,,,,0,0,1,,,77,96,0
84480,note_off,,,,,256,0,1,,,77,0,0
84480,note_off,,,,,128,0,3,,,44,0,2
84736,note_off,,,,,256,0,1,,,77,0,0
84736,note_on,,,,,0,0,3,,,46,96,2
84736,note_off,,,,,256,0,3,,,45,0,2
84736,note_on,,,,,0,0,1,,,75,96,0
84864,note_on,,,,,0,0,3,,,48,96,2
84864,note_off,,,,,128,0,3,,,46,0,2
84992,note_on,,,,,0,0,3,,,49,96,2
84992,note_off,,,,,128,0,3,,,48,0,2
84992,note_off,,,,,256,0,1,,,75,0,0
84992,note_on,,,,,0,0,1,,,75,96,0
85248,note_on,,,,,0,0,3,,,46,96,2
85248,note_off,,,,,256,0,3,,,49,0,2
85248,note_on,,,,,0,0,1,,,74,96,0
85248,note_off,,,,,256,0,1,,,75,0,0
85504,note_on,,,,,0,0,2,,,70,96,1
85504,note_off,,,,,1536,0,2,,,72,0,1
85504,note_off,,,,,256,0,3,,,46,0,2
85504,note_on,,,,,0,0,3,,,44,96,2
85504,note_on,,,,,0,0,1,,,74,96,0
85504,note_off,,,,,256,0,1,,,74,0,0
85760,note_on,,,,,0,0,3,,,46,96,2
85760,note_on,,,,,0,0,2,,,68,96,1
85760,note_off,,,,,256,0,2,,,70,0,1
85760,note_off,,,,,256,0,3,,,44,0,2
86016,note_off,,,,,256,0,2,,,68,0,1
86016,note_on,,,,,0,0,2,,,70,96,1
86016,note_off,,,,,256,0,3,,,46,0,2
86016,note_on,,,,,0,0,3,,,40,96,2
86272,note_on,,,,,0,0,1,,,67,96,0
86272,note_off,,,,,768,0,1,,,74,0,0
86400,note_off,,,,,128,0,1,,,67,0,0
86400,note_on,,,,,0,0,1,,,68,96,0
86528,note_on,,,,,0,0,1,,,70,96,0
86528,note_off,,,,,512,0,3,,,40,0,2
86528,note_on,,,,,0,0,3,,,43,96,2
86528,note_off,,,,,512,0,2,,,70,0,1
86528,note_off,,,,,128,0,1,,,68,0,0
86784,note_off,,,,,256,0,1,,,70,0,0
86784,note_on,,,,,0,0,1,,,72,96,0
86912,note_off,,,,,128,0,1,,,72,0,0
86912,note_on,,,,,0,0,1,,,73,96,0
87040,note_on,,,,,0,0,3,,,36,96,2
87040,note_off,,,,,512,0,3,,,43,0,2
87040,note_on,,,,,512,0,2,,,64,96,1
87296,note_on,,,,,0,0,1,,,70,96,0
87296,note_off,,,,,384,0,1,,,73,0,0
87552,note_off,,,,,256,0,1,,,70,0,0
87552,note_off,,,,,512,0,3,,,36,0,2
87552,note_on,,,,,0,0,3,,,48,96,2
87552,note_on,,,,,0,0,1,,,67,96,0
87808,note_off,,,,,256,0,1,,,67,0,0
87808,note_on,,,,,0,0,1,,,72,96,0
88064,note_off,,,,,1024,0,2,,,64,0,1
88064,note_off,,,,,512,0,3,,,48,0,2
88064,note_on,,,,,0,0,3,,,53,96,2
88064,note_off,,,,,256,0,1,,,72,0,0
88064,note_on,,,,,0,0,1,,,68,96,0
88320,note_on,,,,,256,0,2,,,65,96,1
88448,note_on,,,,,0,0,2,,,67,96,1
88448,note_off,,,,,128,0,2,,,65,0,1
88576,note_off,,,,,512,0,1,,,68,0,0
88576,note_on,,,,,0,0,3,,,41,96,2
88576,note_off,,,,,512,0,3,,,53,0,2
88576,note_off,,,,,128,0,2,,,67,0,1
88576,note_on,,,,,0,0,2,,,68,96,1
88832,note_off,,,,,256,0,2,,,68,0,1
88832,note_on,,,,,0,0,2,,,70,96,1
88960,note_on,,,,,0,0,2,,,72,96,1
88960,note_off,,,,,128,0,2,,,70,0,1
89088,note_on,,,,,0,0,2,,,61,96,1
89088,note_off,,,,,512,0,3,,,41,0,2
89088,note_off,,,,,128,0,2,,,72,0,1
89088,note_on,,,,,0,0,3,,,46,96,2
89344,note_on,,,,,768,0,1,,,70,96,0
89600,note_off,,,,,256,0,1,,,70,0,0
89600,note_on,,,,,0,0,1,,,65,96,0
89600,note_off,,,,,512,0,2,,,61,0,1
89600,note_on,,,,,0,0,3,,,49,96,2
89600,note_off,,,,,512,0,3,,,46,0,2
89856,note_off,,,,,256,0,1,,,65,0,0
89856,note_on,,,,,0,0,1,,,68,96,0
90112,note_off,,,,,256,0,1,,,68,0,0
90112,note_on,,,,,0,0,1,,,67,96,0
90112,note_on,,,,,0,0,3,,,40,96,2
90112,note_off,,,,,512,0,3,,,49,0,2
90368,note_on,,,,,768,0,2,,,60,96,1
90496,note_off,,,,,128,0,2,,,60,0,1
90496,note_on,,,,,0,0,2,,,62,96,1
90624,note_off,,,,,512,0,3,,,40,0,2
90624,note_on,,,,,0,0,3,,,36,96,2
90624,note_off,,,,,512,0,1,,,67,0,0
90624,note_off,,,,,128,0,2,,,62,0,1
90624,note_on,,,,,0,0,2,,,64,96,1
90880,note_off,,,,,256,0,2,,,64,0,1
90880,note_on,,,,,0,0,2,,,65,96,1
91008,note_off,,,,,128,0,2,,,65,0,1
91008,note_on,,,,,0,0,2,,,67,96,1
91136,note_off,,,,,128,0,2,,,67,0,1
91136,note_on,,,,,0,0,2,,,56,96,1
91136,note_on,,,,,0,0,3,,,41,96,2
91136,note_off,,,,,512,0,3,,,36,0,2
91392,note_on,,,,,768,0,1,,,65,96,0
91648,note_on,,,,,0,0,3,,,53,96,2
91648,note_off,,,,,512,0,3,,,41,0,2
91648,note_off,,,,,256,0,1,,,65,0,0
91648,note_on,,,,,0,0,1,,,59,96,0
91648,note_off,,,,,512,0,2,,,56,0,1
91904,note_on,,,,,0,0,1,,,62,96,0
91904,note_off,,,,,256,0,1,,,59,0,0
92160,note_on,,,,,0,0,1,,,63,96,0
92160,note_off,,,,,256,0,1,,,62,0,0
92160,note_on,,,,,0,0,3,,,48,96,2
92160,note_off,,,,,512,0,3,,,53,0,2
92416,note_on,,,,,768,0,2,,,55,96,1
92544,note_off,,,,,128,0,2,,,55,0,1
92544,note_on,,,,,0,0,2,,,56,96,1
92672,note_off,,,,,128,0,2,,,56,0,1
92672,note_on,,,,,0,0,2,,,58,96,1
92928,note_off,,,,,256,0,2,,,58,0,1
92928,note_on,,,,,0,0,2,,,60,96,1
93056,note_on,,,,,0,0,2,,,61,96,1
93056,note_off,,,,,128,0,2,,,60,0,1
93184,note_off,,,,,1024,0,1,,,63,0,0
93184,note_off,,,,,128,0,2,,,61,0,1
93184,note_on,,,,,0,0,2,,,52,96,1
93184,note_off,,,,,1024,0,3,,,48,0,2
93440,note_off,,,,,256,0,2,,,52,0,1
93440,note_on,,,,,256,0,1,,,67,96,0
93440,note_on,,,,,0,0,2,,,60,96,1
93568,note_off,,,,,128,0,1,,,67,0,0
93568,note_on,,,,,0,0,1,,,68,96,0
93696,note_off,,,,,128,0,1,,,68,0,0
93696,note_on,,,,,0,0,1,,,70,96,0
93696,note_off,,,,,256,0,2,,,60,0,1
93696,note_on,,,,,0,0,2,,,55,96,1
93952,note_on,,,,,0,0,2,,,58,96,1
93952,note_off,,,,,256,0,1,,,70,0,0
93952,note_off,,,,,256,0,2,,,55,0,1
93952,note_on,,,,,0,0,1,,,72,96,0
94080,note_off,,,,,128,0,1,,,72,0,0
94080,note_on,,,,,0,0,1,,,73,96,0
94208,note_off,,,,,128,0,1,,,73,0,0
94208,note_on,,,,,0,0,1,,,72,96,0
94208,note_on,,,,,0,0,2,,,56,96,1
94208,note_off,,,,,256,0,2,,,58,0,1
94464,note_off,,,,,256,0,2,,,56,0,1
94464,note_on,,,,,0,0,2,,,60,96,1
94592,note_off,,,,,128,0,2,,,60,0,1
94592,note_on,,,,,0,0,2,,,61,96,1
94720,note_off,,,,,128,0,2,,,61,0,1
94720,note_on,,,,,0,0,2,,,63,96,1
94976,note_off,,,,,256,0,2,,,63,0,1
94976,note_on,,,,,0,0,2,,,65,96,1
95104,note_on,,,,,0,0,2,,,66,96,1
95104,note_off,,,,,128,0,2,,,65,0,1
95232,note_off,,,,,128,0,2,,,66,0,1
95232,note_on,,,,,0,0,2,,,65,96,1
95488,note_on,,,,,2304,0,3,,,49,96,2
95616,note_on,,,,,0,0,3,,,51,96,2
95616,note_off,,,,,128,0,3,,,49,0,2
95744,note_off,,,,,512,0,2,,,65,0,1
95744,note_on,,,,,0,0,2,,,61,96,1
95744,note_off,,,,,128,0,3,,,51,0,2
95744,note_on,,,,,0,0,3,,,53,96,2
96000,note_off,,,,,256,0,3,,,53,0,2
96000,note_on,,,,,0,0,3,,,55,96,2
96128,note_off,,,,,128,0,3,,,55,0,2
96128,note_on,,,,,0,0,3,,,56,96,2
96256,note_on,,,,,0,0,1,,,70,96,0
96256,note_off,,,,,2048,0,1,,,72,0,0
96256,note_off,,,,,128,0,3,,,56,0,2
96256,note_on,,,,,0,0,3,,,55,96,2
96512,note_off,,,,,768,0,2,,,61,0,1
96512,note_on,,,,,0,0,2,,,61,96,1
96768,note_off,,,,,256,0,2,,,61,0,1
96768,note_off,,,,,512,0,3,,,55,0,2
96768,note_on,,,,,0,0,3,,,56,96,2
96768,note_on,,,,,0,0,2,,,60,96,1
97024,note_on,,,,,0,0,1,,,63,96,0
97024,note_off,,,,,768,0,1,,,70,0,0
97280,note_on,,,,,0,0,1,,,68,96,0
97280,note_off,,,,,256,0,1,,,63,0,0
97280,note_off,,,,,512,0,3,,,56,0,2
97280,note_on,,,,,0,0,3,,,53,96,2
97536,note_on,,,,,0,0,2,,,60,96,1
97536,note_off,,,,,768,0,2,,,60,0,1
97792,note_on,,,,,0,0,3,,,50,96,2
97792,note_off,,,,,512,0,3,,,53,0,2
97792,note_on,,,,,0,0,2,,,58,96,1
97792,note_off,,,,,256,0,2,,,60,0,1
98048,note_off,,,,,768,0,1,,,68,0,0
98048,note_on,,,,,0,0,1,,,68,96,0
98304,note_on,,,,,0,0,3,,,52,96,2
98304,note_off,,,,,512,0,3,,,50,0,2
98304,note_on,,,,,0,0,1,,,67,96,0
98304,note_off,,,,,256,0,1,,,68,0,0
98560,note_off,,,,,768,0,2,,,58,0,1
98560,note_on,,,,,0,0,2,,,58,96,1
98816,note_off,,,,,256,0,2,,,58,0,1
98816,note_on,,,,,0,0,2,,,56,96,1
98816,note_off,,,,,512,0,3,,,52,0,2
98816,note_on,,,,,0,0,3,,,53,96,2
99072,note_on,,,,,0,0,1,,,60,96,0
99072,note_off,,,,,768,0,1,,,67,0,0
99328,note_off,,,,,512,0,3,,,53,0,2
99328,note_on,,,,,0,0,3,,,49,96,2
99328,note_on,,,,,0,0,1,,,65,96,0
99328,note_off,,,,,256,0,1,,,60,0,0
99584,note_off,,,,,768,0,2,,,56,0,1
99584,note_on,,,,,0,0,2,,,56,96,1
99840,note_on,,,,,0,0,3,,,46,96,2
99840,note_off,,,,,512,0,3,,,49,0,2
99840,note_on,,,,,0,0,2,,,55,96,1
99840,note_off,,,,,256,0,2,,,56,0,1
100096,note_off,,,,,768,0,1,,,65,0,0
100096,note_on,,,,,0,0,1,,,65,96,0
100352,note_off,,,,,256,0,1,,,65,0,0
100352,note_on,,,,,0,0,1,,,64,96,0
100352,note_on,,,,,19456,0,4,,,60,96,3
100352,note_on,,,,,19456,0,5,,,48,96,4
100608,note_off,,,,,256,0,1,,,64,0,0
100608,note_on,,,,,0,0,1,,,65,96,0
100736,note_off,,,,,128,0,1,,,65,0,0
100736,note_on,,,,,0,0,1,,,67,96,0
100864,note_off,,,,,128,0,1,,,67,0,0
100864,note_on,,,,,0,0,3,,,44,96,2
100864,note_off,,,,,1024,0,3,,,46,0,2
100864,note_off,,,,,1024,0,2,,,55,0,1
100864,note_on,,,,,0,0,2,,,53,96,1
100864,note_on,,,,,0,0,1,,,68,96,0
101120,note_on,,,,,0,0,1,,,70,96,0
101120,note_off,,,,,256,0,1,,,68,0,0
101120,note_off,,,,,256,0,3,,,44,0,2
101120,note_on,,,,,0,0,3,,,41,96,2
101248,note_off,,,,,128,0,1,,,70,0,0
101248,note_on,,,,,0,0,1,,,72,96,0
101376,note_off,,,,,256,0,3,,,41,0,2
101376,note_off,,,,,128,0,1,,,72,0,0
101376,note_on,,,,,0,0,1,,,73,96,0
101376,note_on,,,,,0,0,3,,,48,96,2
101632,note_off,,,,,256,0,1,,,73,0,0
101632,note_on,,,,,0,0,1,,,70,96,0
101888,note_off,,,,,256,0,1,,,70,0,0
101888,note_on,,,,,0,0,2,,,52,96,1
101888,note_on,,,,,0,0,1,,,67,96,0
101888,note_off,,,,,1024,0,2,,,53,0,1
102144,note_on,,,,,0,0,1,,,72,96,0
102144,note_off,,,,,256,0,1,,,67,0,0
102400,note_off,,,,,1024,0,3,,,48,0,2
102400,note_on,,,,,0,0,3,,,41,96,2
102400,note_off,,,,,2048,0,4,,,60,0,3
102400,note_off,,,,,2048,0,5,,,48,0,4
102400,note_on,,,,,0,0,5,,,48,96,4
102400,note_on,,,,,0,0,4,,,60,96,3
102400,note_off,,,,,512,0,2,,,52,0,1
102400,note_off,,,,,256,0,1,,,72,0,0
102400,note_on,,,,,0,0,1,,,68,96,0
102656,note_on,,,,,256,0,2,,,53,96,1
102784,note_off,,,,,128,0,2,,,53,0,1
102784,note_on,,,,,0,0,2,,,55,96,1
102912,note_off,,,,,128,0,2,,,55,0,1
102912,note_off,,,,,512,0,3,,,41,0,2
102912,note_on,,,,,0,0,2,,,56,96,1
103168,note_on,,,,,0,0,2,,,58,96,1
103168,note_off,,,,,256,0,2,,,56,0,1
103296,note_on,,,,,0,0,2,,,60,96,1
103296,note_off,,,,,128,0,2,,,58,0,1
103424,note_on,,,,,0,0,2,,,61,96,1
103424,note_off,,,,,1024,0,5,,,48,0,4
103424,note_on,,,,,0,0,4,,,58,96,3
103424,note_off,,,,,1024,0,4,,,60,0,3
103424,note_off,,,,,128,0,2,,,60,0,1
103424,note_on,,,,,0,0,5,,,46,96,4
103680,note_on,,,,,0,0,2,,,58,96,1
103680,note_off,,,,,256,0,2,,,61,0,1
103936,note_on,,,,,0,0,1,,,66,96,0
103936,note_off,,,,,256,0,2,,,58,0,1
103936,note_on,,,,,0,0,2,,,51,96,1
103936,note_off,,,,,1536,0,1,,,68,0,0
104192,note_off,,,,,256,0,2,,,51,0,1
104192,note_on,,,,,0,0,2,,,61,96,1
104448,note_off,,,,,256,0,2,,,61,0,1
104448,note_on,,,,,0,0,5,,,44,96,4
104448,note_off,,,,,1024,0,5,,,46,0,4
104448,note_on,,,,,0,0,2,,,60,96,1
104448,note_off,,,,,1024,0,4,,,58,0,3
104448,note_on,,,,,0,0,4,,,56,96,3
104704,note_on,,,,,1792,0,3,,,49,96,2
104832,note_off,,,,,128,0,3,,,49,0,2
104832,note_on,,,,,0,0,3,,,51,96,2
104960,note_on,,,,,0,0,1,,,65,96,0
104960,note_off,,,,,1024,0,1,,,66,0,0
104960,note_off,,,,,128,0,3,,,51,0,2
104960,note_on,,,,,0,0,3,,,53,96,2
104960,note_off,,,,,512,0,2,,,60,0,1
104960,note_on,,,,,0,0,2,,,62,96,1
105216,note_off,,,,,256,0,3,,,53,0,2
105216,note_on,,,,,0,0,3,,,55,96,2
105344,note_off,,,,,128,0,3,,,55,0,2
105344,note_on,,,,,0,0,3,,,56,96,2
105472,note_off,,,,,1024,0,5,,,44,0,4
105472,note_on,,,,,0,0,4,,,55,96,3
105472,note_off,,,,,1024,0,4,,,56,0,3
105472,note_off,,,,,128,0,3,,,56,0,2
105472,note_on,,,,,0,0,5,,,43,96,4
105472,note_on,,,,,0,0,3,,,46,96,2
105728,note_off,,,,,768,0,2,,,62,0,1
105728,note_on,,,,,0,0,2,,,58,96,1
105984,note_on,,,,,0,0,1,,,63,96,0
105984,note_off,,,,,1024,0,1,,,65,0,0
105984,note_on,,,,,0,0,2,,,55,96,1
105984,note_off,,,,,256,0,2,,,58,0,1
105984,note_on,,,,,0,0,3,,,51,96,2
105984,note_off,,,,,512,0,3,,,46,0,2
106240,note_on,,,,,0,0,2,,,62,96,1
106240,note_off,,,,,256,0,2,,,55,0,1
106496,note_off,,,,,1024,0,5,,,43,0,4
106496,note_on,,,,,0,0,5,,,44,96,4
106496,note_off,,,,,512,0,3,,,51,0,2
106496,note_on,,,,,0,0,3,,,44,96,2
106496,note_off,,,,,256,0,2,,,62,0,1
106496,note_on,,,,,0,0,2,,,60,96,1
106496,note_off,,,,,1024,0,4,,,55,0,3
106496,note_on,,,,,0,0,4,,,56,96,3
106752,note_on,,,,,0,0,1,,,65,96,0
106752,note_off,,,,,768,0,1,,,63,0,0
106880,note_on,,,,,0,0,1,,,67,96,0
106880,note_off,,,,,128,0,1,,,65,0,0
107008,note_off,,,,,128,0,1,,,67,0,0
107008,note_on,,,,,0,0,3,,,54,96,2
107008,note_off,,,,,512,0,2,,,60,0,1
107008,note_on,,,,,0,0,1,,,68,96,0
107008,note_off,,,,,512,0,3,,,44,0,2
107264,note_off,,,,,256,0,1,,,68,0,0
107264,note_on,,,,,0,0,1,,,70,96,0
107392,note_on,,,,,0,0,1,,,72,96,0
107392,note_off,,,,,128,0,1,,,70,0,0
107520,note_off,,,,,128,0,1,,,72,0,0
107520,note_on,,,,,0,0,1,,,73,96,0
107520,note_off,,,,,512,0,3,,,54,0,2
107520,note_on,,,,,0,0,3,,,53,96,2
107776,note_off,,,,,256,0,1,,,73,0,0
107776,note_on,,,,,0,0,1,,,68,96,0
108032,note_on,,,,,0,0,3,,,49,96,2
108032,note_off,,,,,512,0,3,,,53,0,2
108032,note_on,,,,,0,0,1,,,65,96,0
108032,note_off,,,,,256,0,1,,,68,0,0
108288,note_off,,,,,256,0,1,,,65,0,0
108288,note_on,,,,,0,0,1,,,73,96,0
108544,note_on,,,,,0,0,3,,,44,96,2
108544,note_off,,,,,512,0,3,,,49,0,2
108544,note_off,,,,,256,0,1,,,73,0,0
108544,note_on,,,,,0,0,1,,,72,96,0
108800,note_off,,,,,256,0,1,,,72,0,0
108800,note_on,,,,,0,0,1,,,68,96,0
108928,note_off,,,,,128,0,1,,,68,0,0
108928,note_on,,,,,0,0,1,,,70,96,0
109056,note_off,,,,,512,0,3,,,44,0,2
109056,note_on,,,,,2048,0,2,,,56,96,1
109056,note_off,,,,,128,0,1,,,70,0,0
109056,note_on,,,,,0,0,1,,,72,96,0
109312,note_off,,,,,256,0,1,,,72,0,0
109312,note_on,,,,,0,0,1,,,73,96,0
109312,note_on,,,,,0,0,2,,,58,96,1
109312,note_off,,,,,256,0,2,,,56,0,1
109440,note_off,,,,,128,0,2,,,58,0,1
109440,note_off,,,,,128,0,1,,,73,0,0
109440,note_on,,,,,0,0,1,,,75,96,0
109440,note_on,,,,,0,0,2,,,60,96,1
109568,note_off,,,,,128,0,2,,,60,0,1
109568,note_off,,,,,128,0,1,,,75,0,0
109568,note_on,,,,,0,0,1,,,77,96,0
109568,note_on,,,,,0,0,2,,,61,96,1
109824,note_off,,,,,256,0,1,,,77,0,0
109824,note_on,,,,,0,0,1,,,74,96,0
110080,note_on,,,,,0,0,1,,,70,96,0
110080,note_off,,,,,256,0,1,,,74,0,0
110336,note_on,,,,,0,0,1,,,79,96,0
110336,note_off,,,,,256,0,1,,,70,0,0
110592,note_on,,,,,0,0,1,,,80,96,0
110592,note_off,,,,,4096,0,4,,,56,0,3
110592,note_off,,,,,4096,0,5,,,44,0,4
110592,note_off,,,,,256,0,1,,,79,0,0
110848,note_off,,,,,1280,0,2,,,61,0,1
110848,note_on,,,,,0,0,2,,,60,96,1
110976,note_off,,,,,128,0,2,,,60,0,1
110976,note_on,,,,,0,0,2,,,58,96,1
111104,note_off,,,,,128,0,2,,,58,0,1
111104,note_on,,,,,0,0,2,,,60,96,1
111360,note_off,,,,,256,0,2,,,60,0,1
111360,note_on,,,,,0,0,2,,,61,96,1
111488,note_off,,,,,128,0,2,,,61,0,1
111488,note_on,,,,,0,0,2,,,63,96,1
111616,note_on,,,,,0,0,2,,,65,96,1
111616,note_off,,,,,128,0,2,,,63,0,1
111872,note_off,,,,,1280,0,1,,,80,0,0
111872,note_off,,,,,256,0,2,,,65,0,1
111872,note_on,,,,,0,0,2,,,61,96,1
111872,note_on,,,,,0,0,1,,,77,96,0
112128,note_off,,,,,256,0,1,,,77,0,0
112128,note_off,,,,,256,0,2,,,61,0,1
112128,note_on,,,,,0,0,2,,,58,96,1
112128,note_on,,,,,0,0,1,,,73,96,0
112384,note_on,,,,,0,0,2,,,67,96,1
112384,note_off,,,,,256,0,2,,,58,0,1
112384,note_off,,,,,256,0,1,,,73,0,0
112384,note_on,,,,,0,0,1,,,82,96,0
112640,note_off,,,,,256,0,1,,,82,0,0
112640,note_on,,,,,0,0,1,,,84,96,0
112640,note_off,,,,,256,0,2,,,67,0,1
112640,note_on,,,,,0,0,2,,,68,96,1
112896,note_on,,,,,3840,0,3,,,56,96,2
113024,note_off,,,,,128,0,3,,,56,0,2
113024,note_on,,,,,0,0,3,,,58,96,2
113152,note_on,,,,,0,0,3,,,60,96,2
113152,note_off,,,,,128,0,3,,,58,0,2
113152,note_off,,,,,512,0,2,,,68,0,1
113408,note_off,,,,,256,0,3,,,60,0,2
113408,note_on,,,,,0,0,3,,,62,96,2
113536,note_off,,,,,128,0,3,,,62,0,2
113536,note_on,,,,,0,0,3,,,63,96,2
113664,note_off,,,,,128,0,3,,,63,0,2
113664,note_on,,,,,0,0,3,,,65,96,2
113920,note_off,,,,,1280,0,1,,,84,0,0
113920,note_on,,,,,0,0,1,,,74,96,0
114048,note_on,,,,,0,0,1,,,75,96,0
114048,note_off,,,,,128,0,1,,,74,0,0
114176,note_off,,,,,128,0,1,,,75,0,0
114176,note_on,,,,,0,0,1,,,77,96,0
114432,note_on,,,,,0,0,1,,,79,96,0
114432,note_off,,,,,256,0,1,,,77,0,0
114560,note_on,,,,,0,0,1,,,80,96,0
114560,note_off,,,,,128,0,1,,,79,0,0
114688,note_on,,,,,0,0,1,,,82,96,0
114688,note_off,,,,,128,0,1,,,80,0,0
114944,note_on,,,,,0,0,3,,,55,96,2
114944,note_off,,,,,1280,0,3,,,65,0,2
115072,note_on,,,,,0,0,3,,,56,96,2
115072,note_off,,,,,128,0,3,,,55,0,2
115200,note_off,,,,,128,0,3,,,56,0,2
115200,note_on,,,,,0,0,3,,,58,96,2
115456,note_off,,,,,256,0,3,,,58,0,2
115456,note_on,,,,,0,0,3,,,60,96,2
115584,note_off,,,,,128,0,3,,,60,0,2
115584,note_on,,,,,0,0,3,,,62,96,2
115712,note_off,,,,,128,0,3,,,62,0,2
115712,note_on,,,,,0,0,3,,,63,96,2
115968,note_off,,,,,1280,0,1,,,82,0,0
115968,note_on,,,,,0,0,1,,,72,96,0
116096,note_off,,,,,128,0,1,,,72,0,0
116096,note_on,,,,,0,0,1,,,74,96,0
116224,note_off,,,,,128,0,1,,,74,0,0
116224,note_on,,,,,0,0,1,,,75,96,0
116480,note_off,,,,,256,0,1,,,75,0,0
116480,note_on,,,,,0,0,1,,,77,96,0
116608,note_off,,,,,128,0,1,,,77,0,0
116608,note_on,,,,,0,0,1,,,79,96,0
116736,note_off,,,,,128,0,1,,,79,0,0
116736,note_on,,,,,0,0,1,,,80,96,0
116992,note_off,,,,,1280,0,3,,,63,0,2
116992,note_on,,,,,0,0,3,,,53,96,2
117120,note_on,,,,,0,0,3,,,55,96,2
117120,note_off,,,,,128,0,3,,,53,0,2
117248,note_on,,,,,0,0,3,,,56,96,2
117248,note_off,,,,,128,0,3,,,55,0,2
117504,note_off,,,,,256,0,3,,,56,0,2
117504,note_on,,,,,0,0,3,,,58,96,2
117632,note_on,,,,,0,0,3,,,60,96,2
117632,note_off,,,,,128,0,3,,,58,0,2
117760,note_off,,,,,128,0,3,,,60,0,2
117760,note_on,,,,,0,0,3,,,62,96,2
118016,note_on,,,,,0,0,1,,,70,96,0
118016,note_on,,,,,0,0,3,,,65,96,2
118016,note_off,,,,,256,0,3,,,62,0,2
118016,note_off,,,,,1280,0,1,,,80,0,0
118144,note_off,,,,,128,0,1,,,70,0,0
118144,note_on,,,,,0,0,1,,,72,96,0
118272,note_off,,,,,256,0,3,,,65,0,2
118272,note_on,,,,,0,0,3,,,58,96,2
118272,note_on,,,,,0,0,1,,,74,96,0
118272,note_off,,,,,128,0,1,,,72,0,0
118528,note_on,,,,,0,0,1,,,75,96,0
118528,note_off,,,,,256,0,1,,,74,0,0
118528,note_on,,,,,0,0,3,,,62,96,2
118528,note_off,,,,,256,0,3,,,58,0,2
118656,note_on,,,,,0,0,1,,,77,96,0
118656,note_off,,,,,128,0,1,,,75,0,0
118784,note_off,,,,,128,0,1,,,77,0,0
118784,note_on,,,,,0,0,1,,,79,96,0
118784,note_on,,,,,0,0,3,,,63,96,2
118784,note_off,,,,,256,0,3,,,62,0,2
119040,note_on,,,,,0,0,1,,,75,96,0
119040,note_off,,,,,256,0,1,,,79,0,0
119040,note_off,,,,,256,0,3,,,63,0,2
119040,note_on,,,,,0,0,3,,,51,96,2
119168,note_off,,,,,128,0,3,,,51,0,2
119168,note_on,,,,,0,0,3,,,53,96,2
119296,note_off,,,,,256,0,1,,,75,0,0
119296,note_on,,,,,0,0,1,,,70,96,0
119296,note_on,,,,,0,0,3,,,55,96,2
119296,note_off,,,,,128,0,3,,,53,0,2
119552,note_on,,,,,0,0,1,,,79,96,0
119552,note_off,,,,,256,0,1,,,70,0,0
119552,note_on,,,,,0,0,3,,,56,96,2
119552,note_off,,,,,256,0,3,,,55,0,2
119680,note_off,,,,,128,0,3,,,56,0,2
119680,note_on,,,,,0,0,3,,,58,96,2
119808,note_on,,,,,0,0,1,,,68,96,0
119808,note_off,,,,,256,0,1,,,79,0,0
119808,note_off,,,,,128,0,3,,,58,0,2
119808,note_on,,,,,0,0,3,,,60,96,2
120064,note_on,,,,,0,0,1,,,79,96,0
120064,note_off,,,,,256,0,1,,,68,0,0
120064,note_off,,,,,256,0,3,,,60,0,2
120064,note_on,,,,,0,0,3,,,56,96,2
120320,note_off,,,,,256,0,3,,,56,0,2
120320,note_on,,,,,0,0,3,,,53,96,2
120320,note_on,,,,,0,0,1,,,68,96,0
120320,note_off,,,,,256,0,1,,,79,0,0
120576,note_off,,,,,256,0,3,,,53,0,2
120576,note_on,,,,,0,0,3,,,62,96,2
120576,note_off,,,,,256,0,1,,,68,0,0
120576,note_on,,,,,0,0,1,,,77,96,0
120832,note_off,,,,,256,0,1,,,77,0,0
120832,note_off,,,,,256,0,3,,,62,0,2
120832,note_on,,,,,10240,0,4,,,55,96,3
120832,note_on,,,,,10240,0,5,,,43,96,4
120832,note_on,,,,,0,0,3,,,51,96,2
120832,note_on,,,,,0,0,1,,,70,96,0
121088,note_on,,,,,0,0,1,,,67,96,0
121088,note_off,,,,,256,0,1,,,70,0,0
121216,note_off,,,,,128,0,1,,,67,0,0
121216,note_on,,,,,0,0,1,,,68,96,0
121344,note_off,,,,,128,0,1,,,68,0,0
121344,note_off,,,,,512,0,3,,,51,0,2
121344,note_on,,,,,0,0,1,,,70,96,0
121344,note_on,,,,,0,0,3,,,49,96,2
121600,note_off,,,,,256,0,1,,,70,0,0
121600,note_on,,,,,0,0,1,,,72,96,0
121728,note_off,,,,,128,0,1,,,72,0,0
121728,note_on,,,,,0,0,1,,,73,96,0
121856,note_off,,,,,128,0,1,,,73,0,0
121856,note_on,,,,,0,0,1,,,75,96,0
121856,note_off,,,,,512,0,3,,,49,0,2
121856,note_on,,,,,0,0,3,,,48,96,2
122112,note_off,,,,,256,0,1,,,75,0,0
122112,note_on,,,,,0,0,1,,,70,96,0
122368,note_on,,,,,0,0,1,,,63,96,0
122368,note_off,,,,,256,0,1,,,70,0,0
122368,note_off,,,,,512,0,3,,,48,0,2
122368,note_on,,,,,0,0,3,,,46,96,2
122624,note_on,,,,,0,0,1,,,74,96,0
122624,note_off,,,,,256,0,1,,,63,0,0
122880,note_on,,,,,0,0,1,,,72,96,0
122880,note_off,,,,,256,0,1,,,74,0,0
122880,note_on,,,,,0,0,5,,,44,96,4
122880,note_off,,,,,2048,0,5,,,43,0,4
122880,note_off,,,,,2048,0,4,,,55,0,3
122880,note_on,,,,,0,0,4,,,56,96,3
122880,note_off,,,,,512,0,3,,,46,0,2
122880,note_on,,,,,0,0,3,,,44,96,2
123136,note_off,,,,,256,0,3,,,44,0,2
123136,note_on,,,,,0,0,3,,,41,96,2
123264,note_off,,,,,128,0,3,,,41,0,2
123264,note_on,,,,,0,0,3,,,43,96,2
123392,note_off,,,,,128,0,3,,,43,0,2
123392,note_on,,,,,0,0,3,,,44,96,2
123392,note_on,,,,,10240,0,2,,,68,96,1
123648,note_on,,,,,0,0,3,,,46,96,2
123648,note_off,,,,,256,0,3,,,44,0,2
123776,note_off,,,,,128,0,3,,,46,0,2
123776,note_on,,,,,0,0,3,,,48,96,2
123904,note_off,,,,,1024,0,5,,,44,0,4
123904,note_off,,,,,1024,0,4,,,56,0,3
123904,note_off,,,,,128,0,3,,,48,0,2
123904,note_on,,,,,0,0,4,,,58,96,3
123904,note_on,,,,,0,0,3,,,49,96,2
123904,note_on,,,,,0,0,5,,,46,96,4
124160,note_off,,,,,256,0,3,,,49,0,2
124160,note_on,,,,,0,0,3,,,46,96,2
124416,note_on,,,,,0,0,3,,,43,96,2
124416,note_off,,,,,1536,0,1,,,72,0,0
124416,note_on,,,,,0,0,1,,,70,96,0
124416,note_off,,,,,256,0,3,,,46,0,2
124416,note_off,,,,,1024,0,2,,,68,0,1
124416,note_on,,,,,0,0,2,,,67,96,1
124672,note_on,,,,,0,0,3,,,49,96,2
124672,note_off,,,,,256,0,3,,,43,0,2
124672,note_off,,,,,256,0,2,,,67,0,1
124672,note_on,,,,,0,0,2,,,65,96,1
124928,note_on,,,,,0,0,3,,,40,96,2
124928,note_off,,,,,256,0,3,,,49,0,2
124928,note_on,,,,,0,0,2,,,67,96,1
124928,note_off,,,,,256,0,2,,,65,0,1
124928,note_off,,,,,1024,0,4,,,58,0,3
124928,note_on,,,,,0,0,4,,,60,96,3
124928,note_on,,,,,0,0,5,,,48,96,4
124928,note_off,,,,,1024,0,5,,,46,0,4
125184,note_off,,,,,256,0,3,,,40,0,2
125184,note_on,,,,,0,0,3,,,48,96,2
125312,note_on,,,,,0,0,3,,,50,96,2
125312,note_off,,,,,128,0,3,,,48,0,2
125440,note_on,,,,,0,0,2,,,70,96,1
125440,note_off,,,,,1024,0,1,,,70,0,0
125440,note_off,,,,,512,0,2,,,67,0,1
125440,note_on,,,,,0,0,3,,,52,96,2
125440,note_on,,,,,0,0,1,,,79,96,0
125440,note_off,,,,,128,0,3,,,50,0,2
125696,note_off,,,,,256,0,3,,,52,0,2
125696,note_on,,,,,0,0,3,,,53,96,2
125824,note_off,,,,,128,0,3,,,53,0,2
125824,note_on,,,,,0,0,3,,,55,96,2
125952,note_off,,,,,1024,0,5,,,48,0,4
125952,note_on,,,,,0,0,5,,,48,96,4
125952,note_on,,,,,0,0,4,,,60,96,3
125952,note_on,,,,,0,0,3,,,56,96,2
125952,note_off,,,,,128,0,3,,,55,0,2
125952,note_off,,,,,1024,0,4,,,60,0,3
126208,note_off,,,,,256,0,3,,,56,0,2
126208,note_on,,,,,0,0,3,,,53,96,2
126464,note_off,,,,,256,0,3,,,53,0,2
126464,note_on,,,,,0,0,2,,,68,96,1
126464,note_on,,,,,0,0,3,,,48,96,2
126464,note_on,,,,,0,0,1,,,77,96,0
126464,note_off,,,,,1024,0,1,,,79,0,0
126464,note_off,,,,,1024,0,2,,,70,0,1
126720,note_off,,,,,256,0,1,,,77,0,0
126720,note_on,,,,,0,0,1,,,75,96,0
126720,note_off,,,,,256,0,3,,,48,0,2
126720,note_on,,,,,0,0,3,,,51,96,2
126976,note_on,,,,,0,0,4,,,58,96,3
126976,note_off,,,,,1024,0,5,,,48,0,4
126976,note_on,,,,,0,0,5,,,46,96,4
126976,note_on,,,,,0,0,1,,,77,96,0
126976,note_off,,,,,256,0,1,,,75,0,0
126976,note_off,,,,,256,0,3,,,51,0,2
126976,note_on,,,,,0,0,3,,,50,96,2
126976,note_off,,,,,1024,0,4,,,60,0,3
127232,note_on,,,,,0,0,1,,,70,96,0
127232,note_off,,,,,256,0,1,,,77,0,0
127360,note_on,,,,,0,0,1,,,72,96,0
127360,note_off,,,,,128,0,1,,,70,0,0
127488,note_on,,,,,0,0,2,,,53,96,1
127488,note_off,,,,,1024,0,2,,,68,0,1
127488,note_on,,,,,0,0,3,,,46,96,2
127488,note_off,,,,,512,0,3,,,50,0,2
127488,note_on,,,,,0,0,1,,,74,96,0
127488,note_off,,,,,128,0,1,,,72,0,0
127744,note_off,,,,,256,0,1,,,74,0,0
127744,note_on,,,,,0,0,1,,,75,96,0
127872,note_on,,,,,0,0,1,,,77,96,0
127872,note_off,,,,,128,0,1,,,75,0,0
128000,note_on,,,,,0,0,1,,,79,96,0
128000,note_on,,,,,0,0,2,,,51,96,1
128000,note_off,,,,,512,0,2,,,53,0,1
128000,note_off,,,,,128,0,1,,,77,0,0
128000,note_off,,,,,512,0,3,,,46,0,2
128000,note_on,,,,,0,0,3,,,43,96,2
128256,note_off,,,,,256,0,1,,,79,0,0
128256,note_on,,,,,0,0,1,,,75,96,0
128512,note_on,,,,,0,0,4,,,56,96,3
128512,note_off,,,,,1536,0,4,,,58,0,3
128512,note_off,,,,,256,0,1,,,75,0,0
128512,note_off,,,,,512,0,3,,,43,0,2
128512,note_on,,,,,0,0,2,,,53,96,1
128512,note_off,,,,,512,0,2,,,51,0,1
128512,note_on,,,,,0,0,3,,,46,96,2
128512,note_on,,,,,0,0,1,,,70,96,0
128512,note_off,,,,,1536,0,5,,,46,0,4
128512,note_on,,,,,0,0,5,,,44,96,4
128768,note_off,,,,,256,0,1,,,70,0,0
128768,note_on,,,,,0,0,1,,,74,96,0
129024,note_off,,,,,512,0,2,,,53,0,1
129024,note_on,,,,,0,0,4,,,55,96,3
129024,note_on,,,,,0,0,5,,,43,96,4
129024,note_on,,,,,0,0,3,,,39,96,2
129024,note_off,,,,,512,0,5,,,44,0,4
129024,note_off,,,,,512,0,3,,,46,0,2
129024,note_off,,,,,256,0,1,,,74,0,0
129024,note_on,,,,,0,0,1,,,75,96,0
129024,note_off,,,,,512,0,4,,,56,0,3
129280,note_on,,,,,256,0,2,,,51,96,1
129408,note_off,,,,,128,0,2,,,51,0,1
129408,note_on,,,,,0,0,2,,,53,96,1
129536,note_on,,,,,0,0,3,,,51,96,2
129536,note_off,,,,,128,0,2,,,53,0,1
129536,note_on,,,,,0,0,2,,,55,96,1
129536,note_off,,,,,512,0,3,,,39,0,2
129536,note_off,,,,,512,0,1,,,75,0,0
129792,note_off,,,,,256,0,2,,,55,0,1
129792,note_on,,,,,0,0,2,,,56,96,1
129920,note_off,,,,,128,0,2,,,56,0,1
129920,note_on,,,,,0,0,2,,,58,96,1
130048,note_on,,,,,0,0,5,,,43,96,4
130048,note_off,,,,,128,0,2,,,58,0,1
130048,note_on,,,,,0,0,2,,,60,96,1
130048,note_off,,,,,1024,0,5,,,43,0,4
130048,note_on,,,,,0,0,3,,,52,96,2
130048,note_off,,,,,512,0,3,,,51,0,2
130048,note_off,,,,,1024,0,4,,,55,0,3
130048,note_on,,,,,0,0,4,,,55,96,3
130304,note_on,,,,,0,0,2,,,55,96,1
130304,note_off,,,,,256,0,2,,,60,0,1
130560,note_off,,,,,512,0,3,,,52,0,2
130560,note_on,,,,,0,0,2,,,52,96,1
130560,note_off,,,,,256,0,2,,,55,0,1
130560,note_on,,,,,0,0,3,,,48,96,2
130816,note_off,,,,,256,0,2,,,52,0,1
130816,note_on,,,,,0,0,2,,,58,96,1
131072,note_off,,,,,512,0,3,,,48,0,2
131072,note_off,,,,,1024,0,4,,,55,0,3
131072,note_on,,,,,0,0,4,,,56,96,3
131072,note_on,,,,,0,0,5,,,44,96,4
131072,note_off,,,,,1024,0,5,,,43,0,4
131072,note_on,,,,,0,0,3,,,53,96,2
131072,note_on,,,,,0,0,2,,,56,96,1
131072,note_off,,,,,256,0,2,,,58,0,1
131328,note_on,,,,,1792,0,1,,,65,96,0
131456,note_on,,,,,0,0,1,,,67,96,0
131456,note_off,,,,,128,0,1,,,65,0,0
131584,note_off,,,,,512,0,2,,,56,0,1
131584,note_on,,,,,0,0,1,,,68,96,0
131584,note_off,,,,,128,0,1,,,67,0,0
131584,note_on,,,,,0,0,2,,,53,96,1
131584,note_off,,,,,512,0,3,,,53,0,2
131584,note_on,,,,,0,0,3,,,49,96,2
131840,note_off,,,,,256,0,1,,,68,0,0
131840,note_on,,,,,0,0,1,,,70,96,0
131968,note_off,,,,,128,0,1,,,70,0,0
131968,note_on,,,,,0,0,1,,,72,96,0
132096,note_on,,,,,0,0,4,,,55,96,3
132096,note_off,,,,,1024,0,5,,,44,0,4
132096,note_on,,,,,0,0,1,,,73,96,0
132096,note_on,,,,,0,0,5,,,43,96,4
132096,note_off,,,,,512,0,3,,,49,0,2
132096,note_off,,,,,1024,0,4,,,56,0,3
132096,note_on,,,,,0,0,3,,,46,96,2
132096,note_off,,,,,128,0,1,,,72,0,0
132352,note_off,,,,,256,0,1,,,73,0,0
132352,note_on,,,,,0,0,1,,,70,96,0
132608,note_on,,,,,0,0,1,,,67,96,0
132608,note_on,,,,,0,0,3,,,48,96,2
132608,note_on,,,,,0,0,2,,,52,96,1
132608,note_off,,,,,1024,0,2,,,53,0,1
132608,note_off,,,,,512,0,3,,,46,0,2
132608,note_off,,,,,256,0,1,,,70,0,0
132864,note_off,,,,,256,0,1,,,67,0,0
132864,note_on,,,,,0,0,1,,,72,96,0
133120,note_off,,,,,256,0,1,,,72,0,0
133120,note_on,,,,,0,0,1,,,68,96,0
133120,note_on,,,,,0,0,3,,,53,96,2
133120,note_off,,,,,512,0,3,,,48,0,2
133120,note_off,,,,,1024,0,4,,,55,0,3
133120,note_on,,,,,0,0,4,,,53,96,3
133120,note_off,,,,,512,0,2,,,52,0,1
133120,note_off,,,,,1024,0,5,,,43,0,4
133120,note_on,,,,,0,0,5,,,41,96,4
133376,note_on,,,,,256,0,2,,,67,96,1
133504,note_on,,,,,0,0,2,,,65,96,1
133504,note_off,,,,,128,0,2,,,67,0,1
133632,note_on,,,,,0,0,2,,,63,96,1
133632,note_off,,,,,512,0,3,,,53,0,2
133632,note_on,,,,,0,0,3,,,41,96,2
133632,note_off,,,,,128,0,2,,,65,0,1
133888,note_off,,,,,256,0,2,,,63,0,1
133888,note_on,,,,,0,0,2,,,62,96,1
134016,note_off,,,,,128,0,2,,,62,0,1
134016,note_on,,,,,0,0,2,,,60,96,1
134144,note_off,,,,,512,0,3,,,41,0,2
134144,note_off,,,,,1024,0,4,,,53,0,3
134144,note_on,,,,,0,0,4,,,53,96,3
134144,note_off,,,,,1024,0,5,,,41,0,4
134144,note_on,,,,,0,0,5,,,41,96,4
134144,note_off,,,,,1024,0,1,,,68,0,0
134144,note_on,,,,,0,0,3,,,46,96,2
134144,note_off,,,,,128,0,2,,,60,0,1
134144,note_on,,,,,0,0,2,,,62,96,1
134400,note_off,,,,,256,0,2,,,62,0,1
134400,note_on,,,,,0,0,2,,,58,96,1
134528,note_off,,,,,128,0,2,,,58,0,1
134528,note_on,,,,,0,0,2,,,60,96,1
134656,note_off,,,,,128,0,2,,,60,0,1
134656,note_on,,,,,0,0,2,,,62,96,1
134656,note_on,,,,,0,0,3,,,44,96,2
134656,note_off,,,,,512,0,3,,,46,0,2
134912,note_on,,,,,0,0,2,,,63,96,1
134912,note_off,,,,,256,0,2,,,62,0,1
135040,note_on,,,,,0,0,2,,,65,96,1
135040,note_off,,,,,128,0,2,,,63,0,1
135168,note_off,,,,,512,0,3,,,44,0,2
135168,note_on,,,,,0,0,3,,,43,96,2
135168,note_on,,,,,0,0,4,,,55,96,3
135168,note_off,,,,,1024,0,4,,,53,0,3
135168,note_off,,,,,1024,0,5,,,41,0,4
135168,note_on,,,,,0,0,5,,,43,96,4
135168,note_on,,,,,0,0,2,,,59,96,1
135168,note_off,,,,,128,0,2,,,65,0,1
135424,note_on,,,,,1280,0,1,,,71,96,0
135552,note_off,,,,,128,0,1,,,71,0,0
135552,note_on,,,,,0,0,1,,,72,96,0
135680,note_on,,,,,0,0,3,,,41,96,2
135680,note_off,,,,,512,0,3,,,43,0,2
135680,note_off,,,,,512,0,2,,,59,0,1
135680,note_off,,,,,128,0,1,,,72,0,0
135680,note_on,,,,,0,0,1,,,74,96,0
135936,note_on,,,,,0,0,1,,,75,96,0
135936,note_off,,,,,256,0,1,,,74,0,0
136064,note_off,,,,,128,0,1,,,75,0,0
136064,note_on,,,,,0,0,1,,,77,96,0
136192,note_off,,,,,512,0,3,,,41,0,2
136192,note_on,,,,,0,0,1,,,79,96,0
136192,note_on,,,,,0,0,3,,,39,96,2
136192,note_off,,,,,128,0,1,,,77,0,0
136448,note_on,,,,,768,0,2,,,75,96,1
136704,note_on,,,,,0,0,4,,,53,96,3
136704,note_off,,,,,256,0,2,,,75,0,1
136704,note_on,,,,,0,0,2,,,71,96,1
136704,note_off,,,,,512,0,3,,,39,0,2
136704,note_on,,,,,0,0,3,,,38,96,2
136704,note_on,,,,,0,0,5,,,41,96,4
136704,note_off,,,,,1536,0,4,,,55,0,3
136704,note_off,,,,,1536,0,5,,,43,0,4
136960,note_on,,,,,0,0,2,,,74,96,1
136960,note_off,,,,,256,0,2,,,71,0,1
137216,note_on,,,,,0,0,4,,,51,96,3
137216,note_off,,,,,512,0,5,,,41,0,4
137216,note_on,,,,,0,0,5,,,39,96,4
137216,note_off,,,,,256,0,2,,,74,0,1
137216,note_off,,,,,512,0,4,,,53,0,3
137216,note_off,,,,,512,0,3,,,38,0,2
137216,note_on,,,,,0,0,2,,,67,96,1
137216,note_on,,,,,0,0,3,,,36,96,2
137472,note_off,,,,,256,0,3,,,36,0,2
137472,note_on,,,,,0,0,3,,,48,96,2
137600,note_off,,,,,128,0,3,,,48,0,2
137600,note_on,,,,,0,0,3,,,50,96,2
137728,note_on,,,,,0,0,2,,,72,96,1
137728,note_off,,,,,512,0,2,,,67,0,1
137728,note_off,,,,,128,0,3,,,50,0,2
137728,note_on,,,,,0,0,3,,,51,96,2
137984,note_off,,,,,256,0,3,,,51,0,2
137984,note_off,,,,,1792,0,1,,,79,0,0
137984,note_on,,,,,0,0,1,,,75,96,0
137984,note_on,,,,,0,0,3,,,53,96,2
138112,note_on,,,,,0,0,3,,,55,96,2
138112,note_off,,,,,128,0,3,,,53,0,2
138240,note_on,,,,,0,0,4,,,50,96,3
138240,note_off,,,,,1024,0,4,,,51,0,3
138240,note_on,,,,,0,0,5,,,38,96,4
138240,note_off,,,,,1024,0,5,,,39,0,4
138240,note_on,,,,,0,0,3,,,56,96,2
138240,note_on,,,,,0,0,1,,,77,96,0
138240,note_off,,,,,256,0,1,,,75,0,0
138240,note_off,,,,,128,0,3,,,55,0,2
138496,note_off,,,,,256,0,3,,,56,0,2
138496,note_on,,,,,0,0,3,,,53,96,2
138752,note_off,,,,,1024,0,2,,,72,0,1
138752,note_on,,,,,0,0,2,,,70,96,1
138752,note_off,,,,,256,0,3,,,53,0,2
138752,note_on,,,,,0,0,3,,,50,96,2
139008,note_off,,,,,768,0,1,,,77,0,0
139008,note_on,,,,,0,0,3,,,55,96,2
139008,note_on,,,,,0,0,1,,,74,96,0
139008,note_off,,,,,256,0,3,,,50,0,2
139264,note_on,,,,,0,0,5,,,36,96,4
139264,note_on,,,,,0,0,3,,,52,96,2
139264,note_off,,,,,256,0,3,,,55,0,2
139264,note_on,,,,,0,0,1,,,79,96,0
139264,note_off,,,,,1024,0,5,,,38,0,4
139264,note_off,,,,,256,0,1,,,74,0,0
139264,note_off,,,,,1024,0,4,,,50,0,3
139264,note_on,,,,,0,0,4,,,48,96,3
139520,note_on,,,,,0,0,1,,,72,96,0
139520,note_off,,,,,256,0,1,,,79,0,0
139648,note_on,,,,,0,0,1,,,74,96,0
139648,note_off,,,,,128,0,1,,,72,0,0
139776,note_on,,,,,0,0,1,,,76,96,0
139776,note_off,,,,,1024,0,2,,,70,0,1
139776,note_on,,,,,0,0,2,,,60,96,1
139776,note_off,,,,,128,0,1,,,74,0,0
140032,note_on,,,,,0,0,1,,,77,96,0
140032,note_off,,,,,256,0,1,,,76,0,0
140160,note_on,,,,,0,0,1,,,79,96,0
140160,note_off,,,,,128,0,1,,,77,0,0
140288,note_on,,,,,0,0,1,,,80,96,0
140288,note_off,,,,,128,0,1,,,79,0,0
140288,note_off,,,,,1024,0,3,,,52,0,2
140288,note_on,,,,,0,0,5,,,41,96,4
140288,note_on,,,,,0,0,4,,,53,96,3
140288,note_off,,,,,1024,0,4,,,48,0,3
140288,note_off,,,,,1024,0,5,,,36,0,4
140288,note_on,,,,,0,0,3,,,53,96,2
140544,note_off,,,,,256,0,1,,,80,0,0
140544,note_on,,,,,0,0,1,,,77,96,0
140800,note_on,,,,,0,0,1,,,73,96,0
140800,note_off,,,,,256,0,1,,,77,0,0
140800,note_off,,,,,1024,0,2,,,60,0,1
140800,note_on,,,,,0,0,2,,,65,96,1
141056,note_on,,,,,0,0,1,,,77,96,0
141056,note_off,,,,,256,0,1,,,73,0,0
141312,note_off,,,,,256,0,1,,,77,0,0
141312,note_on,,,,,0,0,1,,,70,96,0
141312,note_on,,,,,0,0,2,,,61,96,1
141312,note_off,,,,,512,0,2,,,65,0,1
141312,note_off,,,,,1024,0,4,,,53,0,3
141312,note_on,,,,,0,0,4,,,55,96,3
141312,note_on,,,,,0,0,5,,,43,96,4
141312,note_off,,,,,1024,0,5,,,41,0,4
141568,note_off,,,,,256,0,1,,,70,0,0
141568,note_on,,,,,0,0,1,,,67,96,0
141696,note_on,,,,,0,0,1,,,68,96,0
141696,note_off,,,,,128,0,1,,,67,0,0
141824,note_on,,,,,0,0,1,,,70,96,0
141824,note_off,,,,,128,0,1,,,68,0,0
141824,note_off,,,,,512,0,2,,,61,0,1
142080,note_on,,,,,0,0,1,,,72,96,0
142080,note_off,,,,,256,0,1,,,70,0,0
142208,note_on,,,,,0,0,1,,,73,96,0
142208,note_off,,,,,128,0,1,,,72,0,0
142336,note_off,,,,,2048,0,3,,,53,0,2
142336,note_off,,,,,1024,0,4,,,55,0,3
142336,note_on,,,,,0,0,4,,,55,96,3
142336,note_off,,,,,128,0,1,,,73,0,0
142336,note_on,,,,,0,0,3,,,52,96,2
142336,note_on,,,,,0,0,1,,,72,96,0
142336,note_off,,,,,1024,0,5,,,43,0,4
142336,note_on,,,,,0,0,5,,,43,96,4
142592,note_on,,,,,768,0,2,,,67,96,1
142848,note_on,,,,,0,0,3,,,51,96,2
142848,note_off,,,,,512,0,3,,,52,0,2
142848,note_off,,,,,256,0,2,,,67,0,1
142848,note_on,,,,,0,0,2,,,60,96,1
143104,note_off,,,,,768,0,1,,,72,0,0
143104,note_on,,,,,0,0,1,,,70,96,0
143360,note_on,,,,,0,0,5,,,41,96,4
143360,note_on,,,,,0,0,1,,,69,96,0
143360,note_off,,,,,256,0,1,,,70,0,0
143360,note_on,,,,,0,0,4,,,53,96,3
143360,note_off,,,,,1024,0,5,,,43,0,4
143360,note_off,,,,,1024,0,4,,,55,0,3
143616,note_on,,,,,0,0,3,,,41,96,2
143616,note_off,,,,,768,0,3,,,51,0,2
143744,note_on,,,,,0,0,3,,,43,96,2
143744,note_off,,,,,128,0,3,,,41,0,2
143872,note_on,,,,,0,0,1,,,72,96,0
143872,note_on,,,,,0,0,3,,,45,96,2
143872,note_off,,,,,128,0,3,,,43,0,2
143872,note_on,,,,,0,0,2,,,63,96,1
143872,note_off,,,,,1024,0,2,,,60,0,1
143872,note_off,,,,,512,0,1,,,69,0,0
144128,note_off,,,,,256,0,3,,,45,0,2
144128,note_on,,,,,0,0,3,,,46,96,2
144256,note_off,,,,,128,0,3,,,46,0,2
144256,note_on,,,,,0,0,3,,,48,96,2
144384,note_off,,,,,128,0,3,,,48,0,2
144384,note_on,,,,,0,0,3,,,49,96,2
144640,note_off,,,,,256,0,3,,,49,0,2
144640,note_on,,,,,0,0,3,,,46,96,2
144768,note_off,,,,,128,0,3,,,46,0,2
144768,note_on,,,,,0,0,3,,,48,96,2
144896,note_off,,,,,128,0,3,,,48,0,2
144896,note_on,,,,,0,0,3,,,49,96,2
144896,note_off,,,,,1024,0,1,,,72,0,0
144896,note_on,,,,,0,0,1,,,70,96,0
144896,note_on,,,,,0,0,2,,,61,96,1
144896,note_off,,,,,1024,0,2,,,63,0,1
145152,note_off,,,,,256,0,3,,,49,0,2
145152,note_on,,,,,0,0,3,,,53,96,2
145280,note_off,,,,,128,0,3,,,53,0,2
145280,note_on,,,,,0,0,3,,,52,96,2
145408,note_off,,,,,512,0,2,,,61,0,1
145408,note_on,,,,,0,0,2,,,60,96,1
145408,note_off,,,,,128,0,3,,,52,0,2
145408,note_on,,,,,0,0,3,,,53,96,2
145664,note_off,,,,,256,0,2,,,60,0,1
145664,note_on,,,,,0,0,2,,,65,96,1
145792,note_off,,,,,896,0,1,,,70,0,0
145792,note_on,,,,,0,0,1,,,67,96,0
145920,note_off,,,,,128,0,1,,,67,0,0
145920,note_on,,,,,0,0,1,,,68,96,0
146176,note_off,,,,,256,0,1,,,68,0,0
146176,note_off,,,,,768,0,3,,,53,0,2
146176,note_on,,,,,0,0,3,,,55,96,2
146176,note_on,,,,,0,0,1,,,70,96,0
146304,note_on,,,,,0,0,1,,,72,96,0
146304,note_off,,,,,128,0,1,,,70,0,0
146304,note_off,,,,,128,0,3,,,55,0,2
146304,note_on,,,,,0,0,3,,,57,96,2
146432,note_on,,,,,0,0,3,,,58,96,2
146432,note_on,,,,,0,0,1,,,73,96,0
146432,note_off,,,,,128,0,1,,,72,0,0
146432,note_off,,,,,128,0,3,,,57,0,2
146688,note_off,,,,,256,0,1,,,73,0,0
146688,note_on,,,,,0,0,1,,,70,96,0
146688,note_on,,,,,0,0,2,,,70,96,1
146688,note_off,,,,,1024,0,2,,,65,0,1
146816,note_off,,,,,128,0,1,,,70,0,0
146816,note_on,,,,,0,0,1,,,72,96,0
146944,note_on,,,,,0,0,1,,,73,96,0
146944,note_off,,,,,128,0,1,,,72,0,0
146944,note_on,,,,,0,0,3,,,46,96,2
146944,note_off,,,,,512,0,3,,,58,0,2
147200,note_on,,,,,0,0,1,,,77,96,0
147200,note_off,,,,,256,0,1,,,73,0,0
147328,note_on,,,,,0,0,1,,,76,96,0
147328,note_off,,,,,128,0,1,,,77,0,0
147456,note_on,,,,,0,0,3,,,53,96,2
147456,note_off,,,,,512,0,3,,,46,0,2
147456,note_on,,,,,0,0,1,,,77,96,0
147456,note_off,,,,,128,0,1,,,76,0,0
147584,note_on,,,,,0,0,2,,,69,96,1
147584,note_off,,,,,896,0,2,,,70,0,1
147712,note_off,,,,,128,0,2,,,69,0,1
147712,note_on,,,,,0,0,2,,,70,96,1
147968,note_off,,,,,512,0,3,,,53,0,2
147968,note_on,,,,,0,0,3,,,41,96,2
147968,note_on,,,,,512,0,1,,,73,96,0
148096,note_on,,,,,0,0,2,,,69,96,1
148096,note_off,,,,,384,0,2,,,70,0,1
148224,note_on,,,,,0,0,2,,,70,96,1
148224,note_off,,,,,128,0,2,,,69,0,1
148480,note_off,,,,,256,0,2,,,70,0,1
148480,note_on,,,,,0,0,2,,,65,96,1
148480,note_off,,,,,512,0,3,,,41,0,2
148608,note_off,,,,,128,0,2,,,65,0,1
148608,note_on,,,,,0,0,2,,,69,96,1
148736,note_on,,,,,0,0,2,,,70,96,1
148736,note_off,,,,,128,0,2,,,69,0,1
148992,note_off,,,,,1024,0,1,,,73,0,0
148992,note_on,,,,,512,0,3,,,53,96,2
148992,note_on,,,,,0,0,1,,,73,96,0
149120,note_off,,,,,384,0,2,,,70,0,1
149120,note_on,,,,,0,0,2,,,69,96,1
149248,note_off,,,,,128,0,2,,,69,0,1
149248,note_on,,,,,0,0,2,,,70,96,1
149504,note_on,,,,,0,0,1,,,77,96,0
149504,note_off,,,,,512,0,1,,,77,0,0
149504,note_off,,,,,512,0,3,,,53,0,2
149504,note_on,,,,,0,0,3,,,53,96,2
149632,note_on,,,,,0,0,2,,,69,96,1
149632,note_off,,,,,384,0,2,,,70,0,1
149760,note_off,,,,,128,0,2,,,69,0,1
149760,note_on,,,,,0,0,2,,,70,96,1
150016,note_off,,,,,512,0,3,,,53,0,2
150016,note_on,,,,,0,0,3,,,41,96,2
150016,note_on,,,,,0,0,1,,,73,96,0
150016,note_off,,,,,512,0,1,,,73,0,0
150144,note_off,,,,,384,0,2,,,70,0,1
150144,note_on,,,,,0,0,2,,,68,96,1
150272,note_on,,,,,0,0,2,,,70,96,1
150272,note_off,,,,,128,0,2,,,68,0,1
150528,note_off,,,,,256,0,2,,,70,0,1
150528,note_on,,,,,0,0,2,,,65,96,1
150528,note_off,,,,,512,0,3,,,41,0,2
150656,note_off,,,,,128,0,2,,,65,0,1
150656,note_on,,,,,0,0,2,,,69,96,1
150784,note_off,,,,,128,0,2,,,69,0,1
150784,note_on,,,,,0,0,2,,,70,96,1
151040,note_on,,,,,512,0,3,,,53,96,2
151040,note_on,,,,,0,0,1,,,73,96,0
151040,note_off,,,,,1024,0,1,,,73,0,0
151168,note_on,,,,,0,0,2,,,69,96,1
151168,note_off,,,,,384,0,2,,,70,0,1
151296,note_on,,,,,0,0,2,,,70,96,1
151296,note_off,,,,,128,0,2,,,69,0,1
151552,note_on,,,,,0,0,3,,,53,96,2
151552,note_off,,,,,512,0,3,,,53,0,2
151552,note_on,,,,,0,0,1,,,76,96,0
151552,note_off,,,,,512,0,1,,,77,0,0
151680,note_off,,,,,384,0,2,,,70,0,1
151680,note_on,,,,,0,0,2,,,69,96,1
151808,note_off,,,,,128,0,2,,,69,0,1
151808,note_on,,,,,0,0,2,,,70,96,1
152064,note_on,,,,,0,0,3,,,41,96,2
152064,note_off,,,,,512,0,3,,,53,0,2
152064,note_on,,,,,0,0,1,,,73,96,0
152064,note_off,,,,,512,0,1,,,73,0,0
152192,note_off,,,,,384,0,2,,,70,0,1
152192,note_on,,,,,0,0,2,,,69,96,1
152320,note_off,,,,,128,0,2,,,69,0,1
152320,note_on,,,,,0,0,2,,,70,96,1
152576,note_on,,,,,0,0,2,,,67,96,1
152576,note_off,,,,,512,0,3,,,41,0,2
152576,note_off,,,,,256,0,2,,,70,0,1
152704,note_on,,,,,0,0,2,,,69,96,1
152704,note_off,,,,,128,0,2,,,67,0,1
152832,note_on,,,,,0,0,2,,,70,96,1
152832,note_off,,,,,128,0,2,,,69,0,1
153088,note_on,,,,,512,0,3,,,53,96,2
153088,note_on,,,,,0,0,1,,,73,96,0
153088,note_off,,,,,1024,0,1,,,73,0,0
153216,note_on,,,,,0,0,2,,,69,96,1
153216,note_off,,,,,384,0,2,,,70,0,1
153344,note_on,,,,,0,0,2,,,70,96,1
153344,note_off,,,,,128,0,2,,,69,0,1
153600,note_on,,,,,0,0,3,,,53,96,2
153600,note_off,,,,,512,0,3,,,53,0,2
153600,note_on,,,,,0,0,1,,,76,96,0
153600,note_off,,,,,512,0,1,,,76,0,0
153728,note_on,,,,,0,0,2,,,69,96,1
153728,note_off,,,,,384,0,2,,,70,0,1
153856,note_on,,,,,0,0,2,,,70,96,1
153856,note_off,,,,,128,0,2,,,69,0,1
154112,note_off,,,,,512,0,3,,,53,0,2
154112,note_on,,,,,0,0,3,,,41,96,2
154112,note_off,,,,,512,0,1,,,73,0,0
154112,note_on,,,,,0,0,1,,,73,96,0
154240,note_off,,,,,384,0,2,,,70,0,1
154240,note_on,,,,,0,0,2,,,69,96,1
154368,note_on,,,,,0,0,2,,,70,96,1
154368,note_off,,,,,128,0,2,,,69,0,1
154624,note_off,,,,,512,0,3,,,41,0,2
154624,note_off,,,,,256,0,2,,,70,0,1
154624,note_on,,,,,0,0,2,,,67,96,1
154752,note_off,,,,,128,0,2,,,67,0,1
154752,note_on,,,,,0,0,2,,,69,96,1
154880,note_off,,,,,128,0,2,,,69,0,1
154880,note_on,,,,,0,0,2,,,70,96,1
155136,note_on,,,,,0,0,1,,,76,96,0
155136,note_on,,,,,512,0,3,,,53,96,2
155136,note_off,,,,,1024,0,1,,,76,0,0
155264,note_off,,,,,384,0,2,,,70,0,1
155264,note_on,,,,,0,0,2,,,69,96,1
155392,note_off,,,,,128,0,2,,,69,0,1
155392,note_on,,,,,0,0,2,,,70,96,1
155648,note_off,,,,,256,0,2,,,70,0,1
155648,note_on,,,,,0,0,2,,,69,96,1
155648,note_on,,,,,0,0,1,,,72,96,0
155648,note_on,,,,,0,0,1,,,77,96,0
155648,note_off,,,,,0,0,1,,,73,0,0
155648,note_off,,,,,512,0,1,,,76,0,0
155648,note_on,,,,,512,0,3,,,41,96,2
159744,note_off,,,,,4096,0,2,,,69,0,1
159744,end_of_track,,,,,0,1,4,,,,,
159744,note_off,,,,,16384,0,4,,,53,0,3
159744,end_of_track,,,,,0,1,3,,,,,
159744,note_off,,,,,0,0,3,,,53,0,2
159744,note_off,,,,,4096,0,3,,,41,0,2
159744,end_of_track,,,,,0,1,2,,,,,
159744,note_off,,,,,4096,0,1,,,77,0,0
159744,note_off,,,,,0,0,1,,,72,0,0
159744,end_of_track,,,,,0,1,1,,,,,
159744,note_off,,,,,16384,0,5,,,41,0,4
159744,end_of_track,,,,,159744,1,0,,,,,
159744,end_of_track,,,,,0,1,5,,,,,
