tick,type,numerator,denominator,clocks_per_click,notated_32nd_notes_per_beat,time,meta,track,key,tempo,note,velocity,channel
0,time_signature,4,4,24,8,0,1,0,,,,,
0,track_name,,,,,0,1,6,,,,,
0,note_on,,,,,0,0,6,,,52,96,5
0,track_name,,,,,0,1,4,,,,,
0,track_name,,,,,0,1,7,,,,,
0,track_name,,,,,0,1,3,,,,,
0,track_name,,,,,0,1,2,,,,,
0,track_name,,,,,0,1,8,,,,,
0,track_name,,,,,0,1,5,,,,,
0,key_signature,,,,,0,1,0,Em,,,,
0,set_tempo,,,,,0,1,0,,833333,,,
0,track_name,,,,,0,1,1,,,,,
1024,note_on,,,,,0,0,6,,,59,96,5
1024,note_off,,,,,1024,0,6,,,52,0,5
1280,note_on,,,,,1280,0,7,,,52,96,6
1536,note_off,,,,,256,0,7,,,52,0,6
1536,note_on,,,,,0,0,7,,,54,96,6
1792,note_on,,,,,0,0,7,,,55,96,6
1792,note_off,,,,,256,0,7,,,54,0,6
2048,note_off,,,,,1024,0,6,,,59,0,5
2048,note_on,,,,,0,0,7,,,49,96,6
2048,note_on,,,,,0,0,6,,,59,96,5
2048,note_off,,,,,256,0,7,,,55,0,6
2304,note_off,,,,,256,0,7,,,49,0,6
2304,note_on,,,,,0,0,7,,,52,96,6
2560,note_off,,,,,256,0,7,,,52,0,6
2560,note_on,,,,,0,0,7,,,55,96,6
2816,note_on,,,,,0,0,6,,,60,96,5
2816,note_off,,,,,768,0,6,,,59,0,5
3072,note_off,,,,,256,0,6,,,60,0,5
3072,note_on,,,,,0,0,6,,,57,96,5
3328,note_off,,,,,768,0,7,,,55,0,6
3328,note_on,,,,,0,0,7,,,55,96,6
3584,note_on,,,,,0,0,7,,,54,96,6
3584,note_off,,,,,256,0,7,,,55,0,6
3840,note_off,,,,,256,0,7,,,54,0,6
3840,note_on,,,,,0,0,7,,,52,96,6
4096,note_off,,,,,256,0,7,,,52,0,6
4096,note_on,,,,,0,0,6,,,59,96,5
4096,note_off,,,,,1024,0,6,,,57,0,5
4096,note_on,,,,,0,0,7,,,51,96,6
4352,note_on,,,,,0,0,7,,,54,96,6
4352,note_off,,,,,256,0,7,,,51,0,6
4608,note_on,,,,,0,0,7,,,57,96,6
4608,note_off,,,,,256,0,7,,,54,0,6
4864,note_on,,,,,0,0,6,,,59,96,5
4864,note_off,,,,,768,0,6,,,59,0,5
5120,note_on,,,,,0,0,6,,,52,96,5
5120,note_off,,,,,256,0,6,,,59,0,5
5376,note_off,,,,,768,0,7,,,57,0,6
5376,note_on,,,,,0,0,7,,,57,96,6
5632,note_on,,,,,0,0,7,,,55,96,6
5632,note_off,,,,,256,0,7,,,57,0,6
5888,note_on,,,,,0,0,6,,,54,96,5
5888,note_off,,,,,768,0,6,,,52,0,5
5888,note_off,,,,,256,0,7,,,55,0,6
5888,note_on,,,,,0,0,7,,,54,96,6
6144,note_off,,,,,256,0,6,,,54,0,5
6144,note_on,,,,,0,0,6,,,55,96,5
6144,note_off,,,,,256,0,7,,,54,0,6
6144,note_on,,,,,0,0,7,,,52,96,6
6144,note_on,,,,,6144,0,5,,,59,96,4
6400,note_on,,,,,0,0,7,,,47,96,6
6400,note_off,,,,,256,0,7,,,52,0,6
6656,note_off,,,,,256,0,7,,,47,0,6
6656,note_on,,,,,0,0,7,,,52,96,6
6912,note_off,,,,,256,0,7,,,52,0,6
6912,note_on,,,,,0,0,7,,,50,96,6
7168,note_off,,,,,256,0,7,,,50,0,6
7168,note_on,,,,,0,0,7,,,48,96,6
7168,note_off,,,,,1024,0,5,,,59,0,4
7168,note_off,,,,,1024,0,6,,,55,0,5
7168,note_on,,,,,0,0,5,,,64,96,4
7168,note_on,,,,,0,0,6,,,55,96,5
7424,note_off,,,,,256,0,7,,,48,0,6
7424,note_on,,,,,0,0,7,,,45,96,6
7680,note_off,,,,,256,0,7,,,45,0,6
7680,note_on,,,,,0,0,7,,,47,96,6
7936,note_off,,,,,256,0,7,,,47,0,6
7936,note_on,,,,,0,0,7,,,48,96,6
8192,note_on,,,,,0,0,5,,,64,96,4
8192,note_on,,,,,0,0,6,,,54,96,5
8192,note_off,,,,,1024,0,5,,,64,0,4
8192,note_on,,,,,0,0,7,,,42,96,6
8192,note_off,,,,,256,0,7,,,48,0,6
8192,note_off,,,,,1024,0,6,,,55,0,5
8448,note_on,,,,,0,0,7,,,45,96,6
8448,note_off,,,,,256,0,7,,,42,0,6
8704,note_on,,,,,0,0,7,,,48,96,6
8704,note_off,,,,,256,0,7,,,45,0,6
8960,note_on,,,,,0,0,5,,,66,96,4
8960,note_off,,,,,768,0,5,,,64,0,4
9216,note_off,,,,,256,0,5,,,66,0,4
9216,note_on,,,,,0,0,5,,,63,96,4
9472,note_on,,,,,0,0,7,,,48,96,6
9472,note_off,,,,,768,0,7,,,48,0,6
9728,note_on,,,,,0,0,7,,,47,96,6
9728,note_off,,,,,256,0,7,,,48,0,6
9984,note_on,,,,,0,0,7,,,45,96,6
9984,note_off,,,,,256,0,7,,,47,0,6
10240,note_off,,,,,256,0,7,,,45,0,6
10240,note_off,,,,,2048,0,6,,,54,0,5
10240,note_off,,,,,1024,0,5,,,63,0,4
10240,note_on,,,,,0,0,5,,,64,96,4
10240,note_on,,,,,0,0,7,,,44,96,6
10240,note_on,,,,,0,0,6,,,52,96,5
10496,note_on,,,,,0,0,7,,,47,96,6
10496,note_off,,,,,256,0,7,,,44,0,6
10752,note_on,,,,,0,0,7,,,52,96,6
10752,note_off,,,,,256,0,7,,,47,0,6
11008,note_on,,,,,0,0,6,,,54,96,5
11008,note_off,,,,,768,0,6,,,52,0,5
11264,note_on,,,,,0,0,6,,,56,96,5
11264,note_off,,,,,1024,0,5,,,64,0,4
11264,note_off,,,,,256,0,6,,,54,0,5
11264,note_on,,,,,0,0,5,,,59,96,4
11520,note_off,,,,,768,0,7,,,52,0,6
11520,note_on,,,,,0,0,7,,,52,96,6
11776,note_off,,,,,256,0,7,,,52,0,6
11776,note_on,,,,,0,0,7,,,50,96,6
12032,note_on,,,,,0,0,5,,,61,96,4
12032,note_off,,,,,768,0,6,,,56,0,5
12032,note_on,,,,,0,0,6,,,58,96,5
12032,note_on,,,,,0,0,7,,,49,96,6
12032,note_off,,,,,256,0,7,,,50,0,6
12032,note_off,,,,,768,0,5,,,59,0,4
12288,note_on,,,,,0,0,7,,,47,96,6
12288,note_off,,,,,256,0,7,,,49,0,6
12288,note_off,,,,,256,0,5,,,61,0,4
12288,note_off,,,,,256,0,6,,,58,0,5
12288,note_on,,,,,0,0,5,,,62,96,4
12288,note_on,,,,,0,0,6,,,59,96,5
12544,note_off,,,,,256,0,7,,,47,0,6
12544,note_on,,,,,0,0,7,,,42,96,6
12800,note_on,,,,,0,0,7,,,47,96,6
12800,note_off,,,,,256,0,7,,,42,0,6
13056,note_off,,,,,256,0,7,,,47,0,6
13056,note_on,,,,,0,0,7,,,45,96,6
13056,note_on,,,,,0,0,6,,,54,96,5
13056,note_off,,,,,768,0,6,,,59,0,5
13312,note_off,,,,,256,0,7,,,45,0,6
13312,note_on,,,,,0,0,5,,,62,96,4
13312,note_off,,,,,1024,0,5,,,62,0,4
13312,note_on,,,,,0,0,6,,,59,96,5
13312,note_off,,,,,256,0,6,,,54,0,5
13312,note_on,,,,,0,0,7,,,43,96,6
13568,note_on,,,,,0,0,7,,,38,96,6
13568,note_off,,,,,256,0,7,,,43,0,6
13824,note_off,,,,,256,0,7,,,38,0,6
13824,note_on,,,,,0,0,7,,,40,96,6
14080,note_off,,,,,768,0,6,,,59,0,5
14080,note_on,,,,,0,0,6,,,57,96,5
14080,note_off,,,,,256,0,7,,,40,0,6
14080,note_on,,,,,0,0,7,,,42,96,6
14336,note_off,,,,,1024,0,5,,,62,0,4
14336,note_off,,,,,256,0,6,,,57,0,5
14336,note_off,,,,,256,0,7,,,42,0,6
14336,note_on,,,,,0,0,7,,,40,96,6
14336,note_on,,,,,0,0,6,,,55,96,5
14336,note_on,,,,,0,0,5,,,61,96,4
14592,note_off,,,,,256,0,7,,,40,0,6
14592,note_on,,,,,0,0,7,,,43,96,6
14848,note_on,,,,,0,0,7,,,47,96,6
14848,note_off,,,,,256,0,7,,,43,0,6
15104,note_on,,,,,0,0,6,,,54,96,5
15104,note_off,,,,,768,0,6,,,55,0,5
15360,note_on,,,,,0,0,6,,,52,96,5
15360,note_off,,,,,256,0,6,,,54,0,5
15616,note_off,,,,,256,0,6,,,52,0,5
15616,note_on,,,,,0,0,6,,,55,96,5
15872,note_off,,,,,1024,0,7,,,47,0,6
15872,note_on,,,,,0,0,7,,,45,96,6
15872,note_off,,,,,256,0,6,,,55,0,5
15872,note_on,,,,,0,0,6,,,54,96,5
16128,note_off,,,,,256,0,6,,,54,0,5
16128,note_on,,,,,0,0,6,,,52,96,5
16384,note_off,,,,,2048,0,5,,,61,0,4
16384,note_off,,,,,256,0,6,,,52,0,5
16384,note_on,,,,,0,0,6,,,51,96,5
16384,note_on,,,,,0,0,5,,,59,96,4
16640,note_on,,,,,0,0,7,,,48,96,6
16640,note_off,,,,,768,0,7,,,45,0,6
16896,note_off,,,,,256,0,7,,,48,0,6
16896,note_on,,,,,0,0,7,,,47,96,6
17152,note_off,,,,,256,0,7,,,47,0,6
17152,note_on,,,,,0,0,7,,,45,96,6
17408,note_off,,,,,1024,0,6,,,51,0,5
17408,note_off,,,,,256,0,7,,,45,0,6
17408,note_on,,,,,0,0,7,,,43,96,6
17664,note_on,,,,,256,0,6,,,51,96,5
17664,note_off,,,,,256,0,7,,,43,0,6
17664,note_on,,,,,0,0,7,,,45,96,6
17920,note_off,,,,,256,0,7,,,45,0,6
17920,note_on,,,,,0,0,7,,,43,96,6
17920,note_on,,,,,0,0,6,,,52,96,5
17920,note_off,,,,,256,0,6,,,51,0,5
18176,note_on,,,,,0,0,7,,,42,96,6
18176,note_off,,,,,256,0,6,,,52,0,5
18176,note_on,,,,,0,0,6,,,54,96,5
18176,note_off,,,,,256,0,7,,,43,0,6
18432,note_off,,,,,256,0,6,,,54,0,5
18432,note_on,,,,,0,0,6,,,55,96,5
18432,note_off,,,,,256,0,7,,,42,0,6
18432,note_on,,,,,0,0,7,,,40,96,6
18432,note_off,,,,,2048,0,5,,,59,0,4
18432,note_on,,,,,18432,0,8,,,40,96,7
18688,note_on,,,,,0,0,6,,,54,96,5
18688,note_off,,,,,256,0,7,,,40,0,6
18688,note_off,,,,,256,0,6,,,55,0,5
18688,note_on,,,,,256,0,5,,,63,96,4
18944,note_on,,,,,0,0,6,,,55,96,5
18944,note_off,,,,,256,0,6,,,54,0,5
18944,note_on,,,,,0,0,5,,,64,96,4
18944,note_off,,,,,256,0,5,,,63,0,4
19200,note_on,,,,,0,0,5,,,66,96,4
19200,note_off,,,,,256,0,5,,,64,0,4
19200,note_off,,,,,256,0,6,,,55,0,5
19200,note_on,,,,,0,0,6,,,57,96,5
19456,note_on,,,,,0,0,6,,,59,96,5
19456,note_off,,,,,256,0,5,,,66,0,4
19456,note_on,,,,,0,0,5,,,67,96,4
19456,note_off,,,,,1024,0,8,,,40,0,7
19456,note_on,,,,,0,0,8,,,47,96,7
19456,note_off,,,,,256,0,6,,,57,0,5
19712,note_on,,,,,0,0,6,,,55,96,5
19712,note_off,,,,,256,0,6,,,59,0,5
19712,note_off,,,,,256,0,5,,,67,0,4
19712,note_on,,,,,0,0,5,,,64,96,4
19968,note_off,,,,,256,0,5,,,64,0,4
19968,note_on,,,,,0,0,5,,,66,96,4
19968,note_off,,,,,256,0,6,,,55,0,5
19968,note_on,,,,,0,0,6,,,57,96,5
20224,note_on,,,,,0,0,5,,,67,96,4
20224,note_off,,,,,256,0,6,,,57,0,5
20224,note_off,,,,,256,0,5,,,66,0,4
20224,note_on,,,,,0,0,6,,,59,96,5
20480,note_off,,,,,256,0,5,,,67,0,4
20480,note_on,,,,,0,0,5,,,61,96,4
20480,note_on,,,,,0,0,6,,,52,96,5
20480,note_on,,,,,0,0,8,,,47,96,7
20480,note_off,,,,,1024,0,8,,,47,0,7
20480,note_off,,,,,256,0,6,,,59,0,5
20736,note_off,,,,,256,0,5,,,61,0,4
20736,note_on,,,,,0,0,5,,,64,96,4
20992,note_off,,,,,256,0,5,,,64,0,4
20992,note_on,,,,,0,0,5,,,67,96,4
21248,note_on,,,,,0,0,6,,,62,96,5
21248,note_off,,,,,768,0,6,,,52,0,5
21504,note_off,,,,,256,0,6,,,62,0,5
21504,note_on,,,,,0,0,6,,,60,96,5
21504,note_off,,,,,1024,0,8,,,47,0,7
21504,note_on,,,,,0,0,8,,,45,96,7
21760,note_off,,,,,768,0,5,,,67,0,4
21760,note_off,,,,,256,0,6,,,60,0,5
21760,note_on,,,,,0,0,6,,,59,96,5
21760,note_on,,,,,0,0,5,,,67,96,4
22016,note_off,,,,,256,0,6,,,59,0,5
22016,note_on,,,,,0,0,6,,,57,96,5
22016,note_on,,,,,0,0,5,,,66,96,4
22016,note_off,,,,,256,0,5,,,67,0,4
22272,note_off,,,,,256,0,6,,,57,0,5
22272,note_on,,,,,0,0,6,,,55,96,5
22272,note_on,,,,,0,0,5,,,64,96,4
22272,note_off,,,,,256,0,5,,,66,0,4
22528,note_on,,,,,0,0,6,,,54,96,5
22528,note_off,,,,,256,0,6,,,55,0,5
22528,note_off,,,,,1024,0,8,,,45,0,7
22528,note_on,,,,,0,0,8,,,47,96,7
22528,note_on,,,,,0,0,5,,,63,96,4
22528,note_off,,,,,256,0,5,,,64,0,4
22784,note_on,,,,,0,0,6,,,47,96,5
22784,note_on,,,,,0,0,5,,,66,96,4
22784,note_off,,,,,256,0,5,,,63,0,4
22784,note_off,,,,,256,0,6,,,54,0,5
23040,note_off,,,,,256,0,6,,,47,0,5
23040,note_on,,,,,0,0,6,,,49,96,5
23040,note_on,,,,,0,0,5,,,69,96,4
23040,note_off,,,,,256,0,5,,,66,0,4
23296,note_off,,,,,256,0,6,,,49,0,5
23296,note_on,,,,,0,0,6,,,51,96,5
23552,note_off,,,,,256,0,6,,,51,0,5
23552,note_on,,,,,0,0,6,,,52,96,5
23552,note_on,,,,,0,0,8,,,40,96,7
23552,note_off,,,,,1024,0,8,,,47,0,7
23808,note_on,,,,,0,0,5,,,69,96,4
23808,note_off,,,,,256,0,6,,,52,0,5
23808,note_on,,,,,0,0,6,,,54,96,5
23808,note_off,,,,,768,0,5,,,69,0,4
24064,note_off,,,,,256,0,6,,,54,0,5
24064,note_on,,,,,0,0,6,,,55,96,5
24064,note_off,,,,,256,0,5,,,69,0,4
24064,note_on,,,,,0,0,5,,,67,96,4
24320,note_off,,,,,256,0,5,,,67,0,4
24320,note_on,,,,,0,0,5,,,66,96,4
24320,note_off,,,,,256,0,6,,,55,0,5
24320,note_on,,,,,0,0,6,,,57,96,5
24576,note_off,,,,,256,0,6,,,57,0,5
24576,note_on,,,,,0,0,8,,,43,96,7
24576,note_off,,,,,1024,0,8,,,40,0,7
24576,note_off,,,,,256,0,5,,,66,0,4
24576,note_on,,,,,0,0,6,,,59,96,5
24576,note_on,,,,,0,0,5,,,64,96,4
24832,note_off,,,,,256,0,5,,,64,0,4
24832,note_on,,,,,0,0,5,,,67,96,4
25088,note_on,,,,,0,0,5,,,71,96,4
25088,note_off,,,,,256,0,5,,,67,0,4
25344,note_off,,,,,768,0,6,,,59,0,5
25344,note_on,,,,,0,0,6,,,57,96,5
25600,note_off,,,,,256,0,6,,,57,0,5
25600,note_on,,,,,0,0,6,,,55,96,5
25600,note_on,,,,,0,0,8,,,43,96,7
25600,note_off,,,,,1024,0,8,,,43,0,7
25856,note_off,,,,,768,0,5,,,71,0,4
25856,note_on,,,,,0,0,6,,,59,96,5
25856,note_off,,,,,256,0,6,,,55,0,5
25856,note_on,,,,,0,0,5,,,67,96,4
26112,note_on,,,,,0,0,5,,,72,96,4
26112,note_off,,,,,256,0,6,,,59,0,5
26112,note_off,,,,,256,0,5,,,67,0,4
26112,note_on,,,,,0,0,6,,,64,96,5
26368,note_off,,,,,256,0,5,,,72,0,4
26368,note_on,,,,,0,0,5,,,71,96,4
26624,note_off,,,,,1024,0,8,,,43,0,7
26624,note_on,,,,,0,0,8,,,42,96,7
26624,note_on,,,,,0,0,5,,,69,96,4
26624,note_off,,,,,256,0,5,,,71,0,4
26880,note_off,,,,,768,0,6,,,64,0,5
26880,note_on,,,,,0,0,6,,,61,96,5
27136,note_off,,,,,256,0,6,,,61,0,5
27136,note_on,,,,,0,0,6,,,66,96,5
27392,note_off,,,,,256,0,6,,,66,0,5
27392,note_on,,,,,0,0,6,,,64,96,5
27648,note_off,,,,,256,0,6,,,64,0,5
27648,note_on,,,,,0,0,6,,,63,96,5
27904,note_on,,,,,0,0,5,,,66,96,4
27904,note_off,,,,,1280,0,5,,,69,0,4
28160,note_on,,,,,0,0,5,,,71,96,4
28160,note_off,,,,,256,0,5,,,66,0,4
28416,note_off,,,,,256,0,5,,,71,0,4
28416,note_on,,,,,0,0,5,,,69,96,4
28672,note_on,,,,,0,0,5,,,67,96,4
28672,note_off,,,,,2048,0,8,,,42,0,7
28672,note_on,,,,,0,0,6,,,64,96,5
28672,note_on,,,,,0,0,8,,,40,96,7
28672,note_off,,,,,256,0,5,,,69,0,4
28672,note_off,,,,,1024,0,6,,,63,0,5
28928,note_on,,,,,0,0,6,,,52,96,5
28928,note_off,,,,,256,0,6,,,64,0,5
29184,note_off,,,,,256,0,6,,,52,0,5
29184,note_on,,,,,0,0,6,,,64,96,5
29440,note_off,,,,,768,0,5,,,67,0,4
29440,note_on,,,,,0,0,5,,,66,96,4
29440,note_on,,,,,0,0,6,,,62,96,5
29440,note_off,,,,,256,0,6,,,64,0,5
29696,note_off,,,,,256,0,6,,,62,0,5
29696,note_on,,,,,0,0,5,,,64,96,4
29696,note_off,,,,,256,0,5,,,66,0,4
29696,note_on,,,,,0,0,6,,,60,96,5
29952,note_on,,,,,0,0,6,,,52,96,5
29952,note_off,,,,,256,0,6,,,60,0,5
30208,note_on,,,,,0,0,6,,,60,96,5
30208,note_off,,,,,256,0,6,,,52,0,5
30464,note_on,,,,,0,0,5,,,62,96,4
30464,note_off,,,,,256,0,6,,,60,0,5
30464,note_off,,,,,768,0,5,,,64,0,4
30464,note_on,,,,,0,0,6,,,59,96,5
30720,note_off,,,,,256,0,5,,,62,0,4
30720,note_on,,,,,0,0,5,,,60,96,4
30720,note_on,,,,,0,0,6,,,57,96,5
30720,note_on,,,,,30720,0,3,,,64,96,2
30720,note_off,,,,,256,0,6,,,59,0,5
30976,note_on,,,,,0,0,6,,,52,96,5
30976,note_off,,,,,256,0,6,,,57,0,5
31232,note_on,,,,,0,0,6,,,57,96,5
31232,note_off,,,,,256,0,6,,,52,0,5
31488,note_off,,,,,768,0,5,,,60,0,4
31488,note_on,,,,,0,0,5,,,62,96,4
31744,note_on,,,,,0,0,5,,,59,96,4
31744,note_on,,,,,0,0,3,,,71,96,2
31744,note_off,,,,,1024,0,3,,,64,0,2
31744,note_off,,,,,256,0,5,,,62,0,4
32000,note_off,,,,,768,0,6,,,57,0,5
32000,note_on,,,,,0,0,6,,,52,96,5
32256,note_on,,,,,0,0,6,,,54,96,5
32256,note_off,,,,,512,0,5,,,59,0,4
32256,note_on,,,,,0,0,5,,,64,96,4
32256,note_off,,,,,256,0,6,,,52,0,5
32512,note_on,,,,,0,0,6,,,55,96,5
32512,note_off,,,,,256,0,6,,,54,0,5
32768,note_off,,,,,4096,0,8,,,40,0,7
32768,note_off,,,,,256,0,6,,,55,0,5
32768,note_on,,,,,0,0,6,,,49,96,5
32768,note_on,,,,,0,0,5,,,67,96,4
32768,note_off,,,,,512,0,5,,,64,0,4
32768,note_off,,,,,1024,0,3,,,71,0,2
32768,note_on,,,,,0,0,3,,,71,96,2
33024,note_on,,,,,0,0,6,,,52,96,5
33024,note_off,,,,,256,0,6,,,49,0,5
33280,note_off,,,,,256,0,6,,,52,0,5
33280,note_on,,,,,0,0,6,,,55,96,5
33280,note_off,,,,,512,0,5,,,67,0,4
33280,note_on,,,,,0,0,5,,,64,96,4
33536,note_off,,,,,768,0,3,,,71,0,2
33536,note_on,,,,,0,0,3,,,72,96,2
33792,note_off,,,,,256,0,3,,,72,0,2
33792,note_off,,,,,512,0,5,,,64,0,4
33792,note_on,,,,,0,0,3,,,69,96,2
33792,note_on,,,,,0,0,5,,,61,96,4
34048,note_off,,,,,768,0,6,,,55,0,5
34048,note_on,,,,,0,0,6,,,55,96,5
34304,note_off,,,,,256,0,6,,,55,0,5
34304,note_on,,,,,0,0,6,,,54,96,5
34304,note_off,,,,,512,0,5,,,61,0,4
34304,note_on,,,,,0,0,5,,,63,96,4
34560,note_off,,,,,256,0,6,,,54,0,5
34560,note_on,,,,,0,0,6,,,52,96,5
34560,note_on,,,,,0,0,5,,,64,96,4
34560,note_off,,,,,256,0,5,,,63,0,4
34816,note_off,,,,,256,0,5,,,64,0,4
34816,note_on,,,,,0,0,5,,,66,96,4
34816,note_off,,,,,1024,0,3,,,69,0,2
34816,note_off,,,,,256,0,6,,,52,0,5
34816,note_on,,,,,0,0,6,,,51,96,5
34816,note_on,,,,,0,0,3,,,71,96,2
35072,note_off,,,,,256,0,5,,,66,0,4
35072,note_on,,,,,0,0,5,,,69,96,4
35072,note_off,,,,,256,0,6,,,51,0,5
35072,note_on,,,,,0,0,6,,,54,96,5
35328,note_on,,,,,0,0,5,,,63,96,4
35328,note_off,,,,,256,0,5,,,69,0,4
35328,note_off,,,,,256,0,6,,,54,0,5
35328,note_on,,,,,0,0,6,,,57,96,5
35584,note_on,,,,,0,0,5,,,59,96,4
35584,note_off,,,,,256,0,5,,,63,0,4
35840,note_off,,,,,1024,0,3,,,71,0,2
35840,note_on,,,,,0,0,3,,,64,96,2
36096,note_off,,,,,512,0,5,,,59,0,4
36096,note_on,,,,,0,0,6,,,57,96,5
36096,note_off,,,,,768,0,6,,,57,0,5
36096,note_on,,,,,0,0,5,,,60,96,4
36352,note_on,,,,,0,0,6,,,55,96,5
36352,note_off,,,,,256,0,6,,,57,0,5
36352,note_off,,,,,256,0,5,,,60,0,4
36352,note_on,,,,,0,0,5,,,59,96,4
36608,note_on,,,,,0,0,6,,,54,96,5
36608,note_on,,,,,0,0,3,,,66,96,2
36608,note_off,,,,,768,0,3,,,64,0,2
36608,note_off,,,,,256,0,6,,,55,0,5
36864,note_on,,,,,0,0,3,,,67,96,2
36864,note_off,,,,,256,0,6,,,54,0,5
36864,note_on,,,,,0,0,6,,,52,96,5
36864,note_off,,,,,256,0,3,,,66,0,2
37120,note_on,,,,,18432,0,7,,,40,96,6
37120,note_off,,,,,256,0,6,,,52,0,5
37376,note_on,,,,,0,0,7,,,52,96,6
37376,note_off,,,,,256,0,7,,,40,0,6
37632,note_on,,,,,0,0,5,,,59,96,4
37632,note_off,,,,,1280,0,5,,,59,0,4
37632,note_on,,,,,0,0,7,,,50,96,6
37632,note_off,,,,,256,0,7,,,52,0,6
37888,note_on,,,,,0,0,7,,,48,96,6
37888,note_off,,,,,256,0,7,,,50,0,6
37888,note_on,,,,,0,0,5,,,64,96,4
37888,note_off,,,,,256,0,5,,,59,0,4
37888,note_on,,,,,0,0,3,,,67,96,2
37888,note_off,,,,,1024,0,3,,,67,0,2
38144,note_on,,,,,0,0,7,,,40,96,6
38144,note_off,,,,,256,0,7,,,48,0,6
38400,note_on,,,,,0,0,7,,,48,96,6
38400,note_off,,,,,256,0,7,,,40,0,6
38656,note_on,,,,,0,0,7,,,47,96,6
38656,note_off,,,,,768,0,5,,,64,0,4
38656,note_on,,,,,0,0,5,,,62,96,4
38656,note_off,,,,,256,0,7,,,48,0,6
38912,note_off,,,,,256,0,5,,,62,0,4
38912,note_on,,,,,0,0,5,,,60,96,4
38912,note_off,,,,,256,0,7,,,47,0,6
38912,note_on,,,,,0,0,7,,,45,96,6
39168,note_on,,,,,0,0,3,,,67,96,2
39168,note_off,,,,,1280,0,3,,,67,0,2
39168,note_off,,,,,256,0,7,,,45,0,6
39168,note_on,,,,,0,0,7,,,48,96,6
39424,note_on,,,,,0,0,3,,,69,96,2
39424,note_off,,,,,256,0,3,,,67,0,2
39424,note_on,,,,,0,0,7,,,52,96,6
39424,note_off,,,,,256,0,7,,,48,0,6
39680,note_on,,,,,0,0,3,,,67,96,2
39680,note_off,,,,,256,0,3,,,69,0,2
39936,note_off,,,,,256,0,3,,,67,0,2
39936,note_on,,,,,0,0,3,,,66,96,2
40192,note_on,,,,,0,0,7,,,50,96,6
40192,note_off,,,,,256,0,3,,,66,0,2
40192,note_on,,,,,0,0,3,,,67,96,2
40192,note_off,,,,,768,0,7,,,52,0,6
40448,note_on,,,,,0,0,7,,,48,96,6
40448,note_off,,,,,256,0,3,,,67,0,2
40448,note_on,,,,,0,0,3,,,64,96,2
40448,note_off,,,,,1536,0,5,,,60,0,4
40448,note_off,,,,,256,0,7,,,50,0,6
40448,note_on,,,,,0,0,5,,,64,96,4
40704,note_on,,,,,0,0,3,,,66,96,2
40704,note_off,,,,,256,0,7,,,48,0,6
40704,note_on,,,,,0,0,7,,,47,96,6
40704,note_off,,,,,256,0,3,,,64,0,2
40960,note_off,,,,,256,0,3,,,66,0,2
40960,note_off,,,,,256,0,7,,,47,0,6
40960,note_on,,,,,0,0,3,,,66,96,2
40960,note_on,,,,,0,0,7,,,46,96,6
41216,note_off,,,,,256,0,7,,,46,0,6
41216,note_on,,,,,0,0,7,,,49,96,6
41472,note_on,,,,,0,0,7,,,54,96,6
41472,note_off,,,,,256,0,7,,,49,0,6
41728,note_off,,,,,256,0,7,,,54,0,6
41728,note_on,,,,,0,0,7,,,46,96,6
41984,note_off,,,,,256,0,7,,,46,0,6
41984,note_on,,,,,0,0,7,,,47,96,6
42240,note_off,,,,,1792,0,5,,,64,0,4
42240,note_on,,,,,0,0,5,,,61,96,4
42496,note_off,,,,,256,0,5,,,61,0,4
42496,note_on,,,,,0,0,5,,,63,96,4
42752,note_off,,,,,768,0,7,,,47,0,6
42752,note_on,,,,,0,0,7,,,47,96,6
42752,note_on,,,,,5632,0,6,,,57,96,5
43008,note_off,,,,,2048,0,3,,,66,0,2
43008,note_on,,,,,0,0,3,,,64,96,2
43008,note_off,,,,,256,0,6,,,57,0,5
43008,note_on,,,,,0,0,5,,,64,96,4
43008,note_off,,,,,512,0,5,,,63,0,4
43008,note_on,,,,,0,0,6,,,56,96,5
43008,note_off,,,,,256,0,7,,,47,0,6
43008,note_on,,,,,0,0,7,,,40,96,6
43264,note_on,,,,,0,0,3,,,59,96,2
43264,note_off,,,,,256,0,3,,,64,0,2
43264,note_off,,,,,256,0,5,,,64,0,4
43520,note_off,,,,,256,0,3,,,59,0,2
43520,note_on,,,,,0,0,3,,,64,96,2
43776,note_on,,,,,0,0,7,,,42,96,6
43776,note_off,,,,,768,0,7,,,40,0,6
43776,note_on,,,,,0,0,6,,,57,96,5
43776,note_off,,,,,768,0,6,,,56,0,5
44032,note_off,,,,,256,0,7,,,42,0,6
44032,note_on,,,,,0,0,7,,,44,96,6
44032,note_on,,,,,0,0,6,,,59,96,5
44032,note_off,,,,,256,0,6,,,57,0,5
44288,note_on,,,,,0,0,3,,,62,96,2
44288,note_off,,,,,768,0,3,,,64,0,2
44544,note_off,,,,,256,0,3,,,62,0,2
44544,note_on,,,,,0,0,3,,,60,96,2
44800,note_on,,,,,0,0,3,,,59,96,2
44800,note_off,,,,,256,0,3,,,60,0,2
44800,note_off,,,,,768,0,7,,,44,0,6
44800,note_on,,,,,0,0,7,,,40,96,6
45056,note_off,,,,,256,0,3,,,59,0,2
45056,note_on,,,,,0,0,3,,,60,96,2
45056,note_on,,,,,0,0,7,,,45,96,6
45056,note_off,,,,,256,0,7,,,40,0,6
45312,note_on,,,,,0,0,6,,,52,96,5
45312,note_off,,,,,1280,0,6,,,59,0,5
45568,note_off,,,,,256,0,6,,,52,0,5
45568,note_on,,,,,0,0,6,,,57,96,5
45824,note_on,,,,,0,0,3,,,62,96,2
45824,note_on,,,,,0,0,7,,,47,96,6
45824,note_off,,,,,768,0,7,,,45,0,6
45824,note_off,,,,,768,0,3,,,60,0,2
46080,note_on,,,,,0,0,3,,,64,96,2
46080,note_off,,,,,256,0,7,,,47,0,6
46080,note_on,,,,,0,0,7,,,48,96,6
46080,note_off,,,,,256,0,3,,,62,0,2
46336,note_off,,,,,768,0,6,,,57,0,5
46336,note_on,,,,,0,0,6,,,60,96,5
46592,note_off,,,,,512,0,3,,,64,0,2
46592,note_on,,,,,0,0,3,,,69,96,2
46592,note_on,,,,,3328,0,5,,,69,96,4
46848,note_off,,,,,768,0,7,,,48,0,6
46848,note_off,,,,,256,0,5,,,69,0,4
46848,note_on,,,,,0,0,5,,,63,96,4
46848,note_on,,,,,0,0,7,,,45,96,6
47104,note_on,,,,,0,0,6,,,59,96,5
47104,note_off,,,,,256,0,5,,,63,0,4
47104,note_off,,,,,512,0,3,,,69,0,2
47104,note_on,,,,,0,0,3,,,68,96,2
47104,note_on,,,,,0,0,5,,,64,96,4
47104,note_on,,,,,0,0,7,,,52,96,6
47104,note_off,,,,,256,0,7,,,45,0,6
47104,note_off,,,,,768,0,6,,,60,0,5
47360,note_on,,,,,0,0,6,,,62,96,5
47360,note_off,,,,,256,0,6,,,59,0,5
47360,note_off,,,,,256,0,3,,,68,0,2
47360,note_on,,,,,0,0,3,,,71,96,2
47616,note_on,,,,,0,0,6,,,60,96,5
47616,note_on,,,,,0,0,3,,,74,96,2
47616,note_off,,,,,256,0,6,,,62,0,5
47616,note_off,,,,,256,0,3,,,71,0,2
47872,note_off,,,,,256,0,6,,,60,0,5
47872,note_on,,,,,0,0,6,,,59,96,5
47872,note_off,,,,,768,0,5,,,64,0,4
47872,note_on,,,,,0,0,5,,,68,96,4
48128,note_off,,,,,512,0,3,,,74,0,2
48128,note_on,,,,,0,0,3,,,72,96,2
48128,note_off,,,,,256,0,6,,,59,0,5
48128,note_off,,,,,256,0,5,,,68,0,4
48128,note_on,,,,,0,0,5,,,69,96,4
48128,note_on,,,,,0,0,6,,,57,96,5
48384,note_on,,,,,0,0,3,,,76,96,2
48384,note_off,,,,,256,0,3,,,72,0,2
48384,note_off,,,,,256,0,6,,,57,0,5
48384,note_on,,,,,0,0,6,,,60,96,5
48640,note_on,,,,,0,0,3,,,81,96,2
48640,note_off,,,,,256,0,3,,,76,0,2
48640,note_off,,,,,256,0,6,,,60,0,5
48640,note_on,,,,,0,0,6,,,59,96,5
48896,note_on,,,,,0,0,6,,,57,96,5
48896,note_off,,,,,256,0,3,,,81,0,2
48896,note_off,,,,,256,0,6,,,59,0,5
48896,note_on,,,,,0,0,3,,,75,96,2
49152,note_on,,,,,0,0,3,,,76,96,2
49152,note_off,,,,,256,0,6,,,57,0,5
49152,note_on,,,,,0,0,6,,,59,96,5
49152,note_off,,,,,256,0,3,,,75,0,2
49408,note_off,,,,,2304,0,7,,,52,0,6
49408,note_on,,,,,0,0,7,,,52,96,6
49664,note_on,,,,,0,0,6,,,64,96,5
49664,note_off,,,,,512,0,6,,,59,0,5
49920,note_off,,,,,256,0,6,,,64,0,5
49920,note_on,,,,,0,0,6,,,63,96,5
50176,note_on,,,,,0,0,6,,,64,96,5
50176,note_off,,,,,256,0,6,,,63,0,5
50432,note_on,,,,,0,0,6,,,59,96,5
50432,note_off,,,,,256,0,6,,,64,0,5
50688,note_off,,,,,2560,0,5,,,69,0,4
50688,note_on,,,,,0,0,5,,,68,96,4
50944,note_on,,,,,0,0,5,,,66,96,4
50944,note_off,,,,,256,0,5,,,68,0,4
51200,note_off,,,,,256,0,5,,,66,0,4
51200,note_on,,,,,0,0,5,,,68,96,4
51456,note_on,,,,,0,0,3,,,71,96,2
51456,note_off,,,,,2304,0,3,,,76,0,2
51712,note_on,,,,,0,0,3,,,76,96,2
51712,note_off,,,,,256,0,3,,,71,0,2
51968,note_on,,,,,0,0,3,,,75,96,2
51968,note_off,,,,,256,0,3,,,76,0,2
52224,note_on,,,,,0,0,3,,,76,96,2
52224,note_on,,,,,52224,0,4,,,76,96,3
52224,note_off,,,,,256,0,3,,,75,0,2
52480,note_off,,,,,256,0,3,,,76,0,2
52480,note_on,,,,,256,0,4,,,71,96,3
52480,note_on,,,,,0,0,3,,,71,96,2
52736,note_off,,,,,256,0,3,,,71,0,2
52736,note_on,,,,,0,0,3,,,64,96,2
53248,note_on,,,,,0,0,6,,,55,96,5
53248,note_off,,,,,512,0,3,,,64,0,2
53248,note_off,,,,,3840,0,7,,,52,0,6
53248,note_off,,,,,0,0,4,,,76,0,3
53248,note_off,,,,,768,0,4,,,71,0,3
53248,note_off,,,,,2048,0,5,,,68,0,4
53248,note_off,,,,,2816,0,6,,,59,0,5
53504,note_on,,,,,256,0,4,,,64,96,3
53760,note_on,,,,,0,0,4,,,62,96,3
53760,note_off,,,,,256,0,4,,,64,0,3
54016,note_off,,,,,256,0,4,,,62,0,3
54016,note_on,,,,,0,0,4,,,60,96,3
54272,note_on,,,,,0,0,6,,,55,96,5
54272,note_on,,,,,0,0,4,,,59,96,3
54272,note_off,,,,,256,0,4,,,60,0,3
54272,note_off,,,,,1024,0,6,,,55,0,5
54528,note_on,,,,,1280,0,7,,,52,96,6
54784,note_off,,,,,256,0,7,,,52,0,6
54784,note_on,,,,,0,0,7,,,50,96,6
55040,note_off,,,,,768,0,4,,,59,0,3
55040,note_on,,,,,0,0,7,,,48,96,6
55040,note_off,,,,,256,0,7,,,50,0,6
55040,note_on,,,,,0,0,4,,,60,96,3
55296,note_on,,,,,0,0,4,,,62,96,3
55296,note_on,,,,,0,0,7,,,47,96,6
55296,note_off,,,,,256,0,7,,,48,0,6
55296,note_off,,,,,256,0,4,,,60,0,3
55296,note_on,,,,,0,0,6,,,55,96,5
55296,note_off,,,,,1024,0,6,,,55,0,5
55552,note_on,,,,,0,0,7,,,50,96,6
55552,note_off,,,,,256,0,7,,,47,0,6
55808,note_off,,,,,256,0,7,,,50,0,6
55808,note_on,,,,,0,0,7,,,43,96,6
56064,note_on,,,,,0,0,6,,,53,96,5
56064,note_off,,,,,768,0,6,,,55,0,5
56320,note_on,,,,,0,0,6,,,52,96,5
56320,note_off,,,,,256,0,6,,,53,0,5
56576,note_on,,,,,0,0,7,,,48,96,6
56576,note_off,,,,,768,0,7,,,43,0,6
56832,note_off,,,,,1536,0,4,,,62,0,3
56832,note_off,,,,,256,0,7,,,48,0,6
56832,note_on,,,,,0,0,4,,,60,96,3
56832,note_on,,,,,0,0,7,,,36,96,6
57088,note_on,,,,,0,0,6,,,54,96,5
57088,note_off,,,,,768,0,6,,,52,0,5
57344,note_off,,,,,512,0,7,,,36,0,6
57344,note_on,,,,,0,0,6,,,55,96,5
57344,note_off,,,,,256,0,6,,,54,0,5
57344,note_on,,,,,0,0,4,,,59,96,3
57344,note_off,,,,,512,0,4,,,60,0,3
57600,note_on,,,,,256,0,7,,,36,96,6
57856,note_off,,,,,256,0,7,,,36,0,6
57856,note_on,,,,,0,0,7,,,52,96,6
58112,note_on,,,,,0,0,4,,,67,96,3
58112,note_off,,,,,768,0,4,,,59,0,3
58368,note_off,,,,,1024,0,6,,,55,0,5
58368,note_on,,,,,0,0,6,,,57,96,5
58624,note_on,,,,,0,0,7,,,42,96,6
58624,note_off,,,,,768,0,7,,,52,0,6
58880,note_on,,,,,0,0,7,,,50,96,6
58880,note_off,,,,,256,0,7,,,42,0,6
59136,note_off,,,,,1024,0,4,,,67,0,3
59136,note_on,,,,,0,0,4,,,66,96,3
59392,note_off,,,,,1024,0,6,,,57,0,5
59392,note_on,,,,,0,0,6,,,59,96,5
59648,note_on,,,,,0,0,7,,,43,96,6
59648,note_off,,,,,768,0,7,,,50,0,6
59904,note_off,,,,,256,0,7,,,43,0,6
59904,note_on,,,,,0,0,7,,,55,96,6
60160,note_off,,,,,1024,0,4,,,66,0,3
60160,note_on,,,,,0,0,4,,,64,96,3
60416,note_off,,,,,1024,0,6,,,59,0,5
60416,note_on,,,,,0,0,6,,,57,96,5
60416,note_off,,,,,256,0,4,,,64,0,3
60416,note_on,,,,,0,0,4,,,72,96,3
60672,note_off,,,,,768,0,7,,,55,0,6
60672,note_on,,,,,0,0,7,,,45,96,6
60928,note_off,,,,,256,0,7,,,45,0,6
60928,note_on,,,,,0,0,7,,,54,96,6
61184,note_on,,,,,0,0,4,,,63,96,3
61184,note_off,,,,,768,0,4,,,72,0,3
61440,note_off,,,,,1024,0,6,,,57,0,5
61440,note_off,,,,,256,0,4,,,63,0,3
61440,note_on,,,,,0,0,4,,,71,96,3
61440,note_on,,,,,0,0,6,,,55,96,5
61696,note_off,,,,,768,0,7,,,54,0,6
61696,note_on,,,,,0,0,7,,,47,96,6
61952,note_on,,,,,0,0,7,,,52,96,6
61952,note_off,,,,,256,0,7,,,47,0,6
62208,note_off,,,,,768,0,4,,,71,0,3
62208,note_on,,,,,0,0,4,,,61,96,3
62464,note_off,,,,,1024,0,6,,,55,0,5
62464,note_off,,,,,256,0,4,,,61,0,3
62464,note_on,,,,,0,0,4,,,69,96,3
62464,note_on,,,,,0,0,6,,,54,96,5
62720,note_on,,,,,0,0,7,,,49,96,6
62720,note_off,,,,,768,0,7,,,52,0,6
62976,note_on,,,,,0,0,7,,,51,96,6
62976,note_off,,,,,256,0,7,,,49,0,6
63232,note_off,,,,,768,0,4,,,69,0,3
63232,note_on,,,,,0,0,4,,,59,96,3
63488,note_on,,,,,0,0,7,,,52,96,6
63488,note_off,,,,,512,0,7,,,51,0,6
63488,note_off,,,,,256,0,4,,,59,0,3
63488,note_on,,,,,0,0,6,,,52,96,5
63488,note_on,,,,,0,0,4,,,67,96,3
63488,note_off,,,,,1024,0,6,,,54,0,5
63744,note_on,,,,,0,0,6,,,64,96,5
63744,note_off,,,,,256,0,6,,,52,0,5
64000,note_on,,,,,0,0,6,,,62,96,5
64000,note_off,,,,,256,0,6,,,64,0,5
64256,note_on,,,,,0,0,6,,,60,96,5
64256,note_off,,,,,256,0,6,,,62,0,5
64512,note_off,,,,,256,0,6,,,60,0,5
64512,note_on,,,,,0,0,6,,,59,96,5
64768,note_on,,,,,0,0,7,,,52,96,6
64768,note_off,,,,,1280,0,7,,,52,0,6
64768,note_off,,,,,1280,0,4,,,67,0,3
64768,note_on,,,,,0,0,4,,,67,96,3
65024,note_off,,,,,256,0,4,,,67,0,3
65024,note_on,,,,,0,0,7,,,50,96,6
65024,note_off,,,,,256,0,7,,,52,0,6
65024,note_on,,,,,0,0,4,,,66,96,3
65280,note_off,,,,,256,0,7,,,50,0,6
65280,note_on,,,,,0,0,4,,,64,96,3
65280,note_off,,,,,256,0,4,,,66,0,3
65280,note_on,,,,,0,0,7,,,49,96,6
65536,note_off,,,,,256,0,4,,,64,0,3
65536,note_on,,,,,0,0,7,,,47,96,6
65536,note_on,,,,,0,0,4,,,62,96,3
65536,note_off,,,,,1024,0,6,,,59,0,5
65536,note_off,,,,,256,0,7,,,49,0,6
65792,note_on,,,,,256,0,6,,,59,96,5
66048,note_off,,,,,256,0,6,,,59,0,5
66048,note_on,,,,,0,0,6,,,57,96,5
66304,note_off,,,,,256,0,6,,,57,0,5
66304,note_on,,,,,0,0,6,,,55,96,5
66560,note_on,,,,,0,0,4,,,62,96,3
66560,note_off,,,,,256,0,6,,,55,0,5
66560,note_on,,,,,0,0,6,,,54,96,5
66560,note_off,,,,,1024,0,4,,,62,0,3
66560,note_off,,,,,1024,0,7,,,47,0,6
66816,note_on,,,,,256,0,7,,,47,96,6
67072,note_off,,,,,256,0,7,,,47,0,6
67072,note_on,,,,,0,0,7,,,45,96,6
67328,note_off,,,,,256,0,7,,,45,0,6
67328,note_on,,,,,0,0,7,,,43,96,6
67328,note_on,,,,,0,0,6,,,55,96,5
67328,note_off,,,,,768,0,6,,,54,0,5
67584,note_on,,,,,0,0,7,,,42,96,6
67584,note_off,,,,,256,0,7,,,43,0,6
67584,note_on,,,,,0,0,6,,,57,96,5
67584,note_off,,,,,256,0,6,,,55,0,5
67584,note_on,,,,,0,0,4,,,62,96,3
67584,note_off,,,,,1024,0,4,,,62,0,3
67840,note_off,,,,,256,0,7,,,42,0,6
67840,note_on,,,,,0,0,7,,,45,96,6
68096,note_on,,,,,0,0,7,,,50,96,6
68096,note_off,,,,,256,0,7,,,45,0,6
68352,note_on,,,,,0,0,4,,,60,96,3
68352,note_off,,,,,768,0,4,,,62,0,3
68608,note_off,,,,,256,0,4,,,60,0,3
68608,note_on,,,,,0,0,4,,,59,96,3
68864,note_on,,,,,0,0,7,,,43,96,6
68864,note_off,,,,,768,0,7,,,50,0,6
69120,note_on,,,,,0,0,7,,,55,96,6
69120,note_on,,,,,0,0,6,,,55,96,5
69120,note_off,,,,,1536,0,6,,,57,0,5
69120,note_off,,,,,256,0,7,,,43,0,6
69376,note_on,,,,,0,0,4,,,61,96,3
69376,note_off,,,,,768,0,4,,,59,0,3
69632,note_off,,,,,256,0,4,,,61,0,3
69632,note_on,,,,,0,0,4,,,62,96,3
69632,note_off,,,,,512,0,7,,,55,0,6
69632,note_off,,,,,512,0,6,,,55,0,5
69632,note_on,,,,,0,0,6,,,54,96,5
69888,note_on,,,,,256,0,7,,,47,96,6
70144,note_on,,,,,0,0,7,,,59,96,6
70144,note_off,,,,,256,0,7,,,47,0,6
70400,note_on,,,,,0,0,6,,,62,96,5
70400,note_off,,,,,768,0,6,,,54,0,5
70656,note_on,,,,,0,0,4,,,64,96,3
70656,note_off,,,,,1024,0,4,,,62,0,3
70912,note_on,,,,,0,0,7,,,49,96,6
70912,note_off,,,,,768,0,7,,,59,0,6
71168,note_on,,,,,0,0,7,,,57,96,6
71168,note_off,,,,,256,0,7,,,49,0,6
71424,note_on,,,,,0,0,6,,,61,96,5
71424,note_off,,,,,1024,0,6,,,62,0,5
71680,note_off,,,,,1024,0,4,,,64,0,3
71680,note_on,,,,,0,0,4,,,66,96,3
71936,note_on,,,,,0,0,7,,,50,96,6
71936,note_off,,,,,768,0,7,,,57,0,6
72192,note_on,,,,,0,0,7,,,62,96,6
72192,note_off,,,,,256,0,7,,,50,0,6
72448,note_on,,,,,0,0,6,,,59,96,5
72448,note_off,,,,,1024,0,6,,,61,0,5
72704,note_on,,,,,0,0,4,,,64,96,3
72704,note_on,,,,,0,0,6,,,67,96,5
72704,note_off,,,,,256,0,6,,,59,0,5
72704,note_off,,,,,1024,0,4,,,66,0,3
72960,note_on,,,,,0,0,7,,,52,96,6
72960,note_off,,,,,768,0,7,,,62,0,6
73216,note_off,,,,,256,0,7,,,52,0,6
73216,note_on,,,,,0,0,7,,,61,96,6
73472,note_on,,,,,0,0,6,,,58,96,5
73472,note_off,,,,,768,0,6,,,67,0,5
73728,note_off,,,,,1024,0,4,,,64,0,3
73728,note_on,,,,,0,0,6,,,66,96,5
73728,note_off,,,,,256,0,6,,,58,0,5
73728,note_on,,,,,0,0,4,,,62,96,3
73984,note_on,,,,,0,0,7,,,54,96,6
73984,note_off,,,,,768,0,7,,,61,0,6
74240,note_on,,,,,0,0,7,,,59,96,6
74240,note_off,,,,,256,0,7,,,54,0,6
74496,note_on,,,,,0,0,6,,,56,96,5
74496,note_off,,,,,768,0,6,,,66,0,5
74752,note_on,,,,,0,0,4,,,61,96,3
74752,note_off,,,,,1024,0,4,,,62,0,3
74752,note_off,,,,,256,0,6,,,56,0,5
74752,note_on,,,,,0,0,6,,,64,96,5
75008,note_on,,,,,0,0,7,,,56,96,6
75008,note_off,,,,,768,0,7,,,59,0,6
75264,note_on,,,,,0,0,7,,,58,96,6
75264,note_off,,,,,256,0,7,,,56,0,6
75520,note_off,,,,,768,0,6,,,64,0,5
75520,note_on,,,,,0,0,6,,,54,96,5
75776,note_on,,,,,0,0,7,,,59,96,6
75776,note_off,,,,,512,0,7,,,58,0,6
75776,note_off,,,,,1024,0,4,,,61,0,3
75776,note_on,,,,,0,0,4,,,59,96,3
75776,note_off,,,,,256,0,6,,,54,0,5
75776,note_on,,,,,0,0,6,,,62,96,5
76032,note_off,,,,,256,0,4,,,59,0,3
76032,note_on,,,,,0,0,4,,,71,96,3
76288,note_off,,,,,512,0,7,,,59,0,6
76288,note_on,,,,,0,0,7,,,47,96,6
76288,note_off,,,,,256,0,4,,,71,0,3
76288,note_on,,,,,0,0,4,,,69,96,3
76544,note_off,,,,,256,0,4,,,69,0,3
76544,note_on,,,,,0,0,4,,,67,96,3
76800,note_off,,,,,256,0,4,,,67,0,3
76800,note_on,,,,,0,0,4,,,66,96,3
77056,note_on,,,,,0,0,7,,,48,96,6
77056,note_off,,,,,768,0,7,,,47,0,6
77056,note_off,,,,,1280,0,6,,,62,0,5
77056,note_on,,,,,0,0,6,,,64,96,5
77312,note_off,,,,,256,0,7,,,48,0,6
77312,note_on,,,,,0,0,7,,,47,96,6
77312,note_off,,,,,256,0,6,,,64,0,5
77312,note_on,,,,,0,0,6,,,62,96,5
77568,note_off,,,,,256,0,7,,,47,0,6
77568,note_on,,,,,0,0,7,,,45,96,6
77568,note_off,,,,,256,0,6,,,62,0,5
77568,note_on,,,,,0,0,6,,,60,96,5
77824,note_off,,,,,1024,0,4,,,66,0,3
77824,note_off,,,,,256,0,6,,,60,0,5
77824,note_on,,,,,0,0,6,,,59,96,5
77824,note_on,,,,,0,0,4,,,67,96,3
77824,note_on,,,,,45056,0,8,,,43,96,7
77824,note_off,,,,,256,0,7,,,45,0,6
77824,note_on,,,,,0,0,7,,,43,96,6
78080,note_off,,,,,256,0,7,,,43,0,6
78080,note_off,,,,,256,0,6,,,59,0,5
78080,note_off,,,,,256,0,4,,,67,0,3
78080,note_on,,,,,0,0,4,,,76,96,3
78336,note_off,,,,,256,0,4,,,76,0,3
78336,note_on,,,,,0,0,4,,,74,96,3
78592,note_on,,,,,0,0,4,,,72,96,3
78592,note_off,,,,,256,0,4,,,74,0,3
78848,note_on,,,,,0,0,8,,,43,96,7
78848,note_off,,,,,1024,0,8,,,43,0,7
78848,note_on,,,,,0,0,4,,,71,96,3
78848,note_off,,,,,256,0,4,,,72,0,3
79104,note_on,,,,,1024,0,6,,,64,96,5
79360,note_on,,,,,0,0,6,,,62,96,5
79360,note_off,,,,,256,0,6,,,64,0,5
79616,note_off,,,,,256,0,6,,,62,0,5
79616,note_on,,,,,0,0,6,,,60,96,5
79616,note_off,,,,,768,0,4,,,71,0,3
79616,note_on,,,,,0,0,4,,,72,96,3
79872,note_on,,,,,0,0,4,,,74,96,3
79872,note_on,,,,,0,0,6,,,59,96,5
79872,note_off,,,,,256,0,6,,,60,0,5
79872,note_off,,,,,256,0,4,,,72,0,3
79872,note_off,,,,,1024,0,8,,,43,0,7
79872,note_on,,,,,0,0,8,,,43,96,7
80128,note_off,,,,,256,0,6,,,59,0,5
80128,note_on,,,,,0,0,6,,,62,96,5
80384,note_off,,,,,256,0,6,,,62,0,5
80384,note_on,,,,,0,0,6,,,55,96,5
80640,note_off,,,,,768,0,4,,,74,0,3
80640,note_on,,,,,0,0,4,,,64,96,3
80896,note_off,,,,,1024,0,8,,,43,0,7
80896,note_on,,,,,0,0,8,,,40,96,7
80896,note_on,,,,,0,0,4,,,72,96,3
80896,note_off,,,,,256,0,4,,,64,0,3
81152,note_off,,,,,768,0,6,,,55,0,5
81152,note_on,,,,,0,0,6,,,60,96,5
81408,note_off,,,,,256,0,6,,,60,0,5
81408,note_on,,,,,0,0,6,,,48,96,5
81664,note_off,,,,,768,0,4,,,72,0,3
81664,note_on,,,,,0,0,4,,,66,96,3
81920,note_off,,,,,1024,0,8,,,40,0,7
81920,note_off,,,,,256,0,4,,,66,0,3
81920,note_on,,,,,0,0,4,,,71,96,3
81920,note_off,,,,,512,0,6,,,48,0,5
81920,note_on,,,,,0,0,8,,,43,96,7
82176,note_on,,,,,256,0,6,,,48,96,5
82432,note_off,,,,,256,0,6,,,48,0,5
82432,note_on,,,,,0,0,6,,,64,96,5
82688,note_on,,,,,0,0,4,,,67,96,3
82688,note_off,,,,,768,0,4,,,71,0,3
82944,note_off,,,,,256,0,4,,,67,0,3
82944,note_on,,,,,0,0,4,,,72,96,3
82944,note_off,,,,,1024,0,8,,,43,0,7
82944,note_on,,,,,0,0,8,,,45,96,7
83200,note_off,,,,,768,0,6,,,64,0,5
83200,note_on,,,,,0,0,6,,,54,96,5
83456,note_on,,,,,0,0,6,,,62,96,5
83456,note_off,,,,,256,0,6,,,54,0,5
83712,note_on,,,,,0,0,4,,,69,96,3
83712,note_off,,,,,768,0,4,,,72,0,3
83968,note_on,,,,,0,0,8,,,47,96,7
83968,note_off,,,,,1024,0,8,,,45,0,7
83968,note_off,,,,,256,0,4,,,69,0,3
83968,note_on,,,,,0,0,4,,,74,96,3
84224,note_off,,,,,768,0,6,,,62,0,5
84224,note_on,,,,,0,0,6,,,55,96,5
84480,note_off,,,,,256,0,6,,,55,0,5
84480,note_on,,,,,0,0,6,,,67,96,5
84736,note_on,,,,,0,0,4,,,71,96,3
84736,note_off,,,,,768,0,4,,,74,0,3
84992,note_off,,,,,256,0,4,,,71,0,3
84992,note_on,,,,,0,0,8,,,45,96,7
84992,note_off,,,,,1024,0,8,,,47,0,7
84992,note_on,,,,,0,0,4,,,72,96,3
85248,note_on,,,,,0,0,6,,,57,96,5
85248,note_off,,,,,768,0,6,,,67,0,5
85504,note_off,,,,,256,0,6,,,57,0,5
85504,note_on,,,,,0,0,6,,,66,96,5
85760,note_off,,,,,768,0,4,,,72,0,3
85760,note_on,,,,,0,0,4,,,63,96,3
86016,note_on,,,,,0,0,8,,,43,96,7
86016,note_off,,,,,1024,0,8,,,45,0,7
86016,note_on,,,,,0,0,4,,,71,96,3
86016,note_off,,,,,256,0,4,,,63,0,3
86272,note_off,,,,,768,0,6,,,66,0,5
86272,note_on,,,,,0,0,6,,,59,96,5
86528,note_on,,,,,0,0,6,,,64,96,5
86528,note_off,,,,,256,0,6,,,59,0,5
86784,note_off,,,,,768,0,4,,,71,0,3
86784,note_on,,,,,0,0,4,,,61,96,3
87040,note_off,,,,,256,0,4,,,61,0,3
87040,note_on,,,,,0,0,4,,,69,96,3
87040,note_off,,,,,1024,0,8,,,43,0,7
87040,note_on,,,,,0,0,8,,,42,96,7
87296,note_on,,,,,0,0,6,,,61,96,5
87296,note_off,,,,,768,0,6,,,64,0,5
87552,note_on,,,,,0,0,6,,,63,96,5
87552,note_off,,,,,256,0,6,,,61,0,5
87808,note_off,,,,,768,0,4,,,69,0,3
87808,note_on,,,,,0,0,4,,,59,96,3
88064,note_off,,,,,256,0,4,,,59,0,3
88064,note_off,,,,,512,0,6,,,63,0,5
88064,note_on,,,,,0,0,8,,,40,96,7
88064,note_on,,,,,0,0,4,,,67,96,3
88064,note_off,,,,,1024,0,8,,,42,0,7
88320,note_on,,,,,256,0,6,,,64,96,5
88576,note_off,,,,,256,0,6,,,64,0,5
88576,note_on,,,,,0,0,6,,,62,96,5
88832,note_off,,,,,256,0,6,,,62,0,5
88832,note_on,,,,,0,0,6,,,60,96,5
89088,note_on,,,,,0,0,6,,,59,96,5
89088,note_off,,,,,256,0,6,,,60,0,5
89088,note_off,,,,,1024,0,4,,,67,0,3
89344,note_off,,,,,256,0,6,,,59,0,5
89344,note_on,,,,,0,0,6,,,57,96,5
89344,note_on,,,,,256,0,4,,,66,96,3
89600,note_off,,,,,256,0,6,,,57,0,5
89600,note_on,,,,,0,0,6,,,55,96,5
89600,note_off,,,,,256,0,4,,,66,0,3
89600,note_on,,,,,0,0,4,,,64,96,3
89856,note_on,,,,,0,0,4,,,63,96,3
89856,note_off,,,,,256,0,4,,,64,0,3
89856,note_on,,,,,0,0,6,,,54,96,5
89856,note_off,,,,,256,0,6,,,55,0,5
90112,note_on,,,,,0,0,6,,,52,96,5
90112,note_off,,,,,2048,0,8,,,40,0,7
90112,note_off,,,,,256,0,6,,,54,0,5
90112,note_on,,,,,36864,0,3,,,67,96,2
90112,note_on,,,,,0,0,4,,,64,96,3
90112,note_off,,,,,256,0,4,,,63,0,3
90368,note_off,,,,,256,0,4,,,64,0,3
90368,note_on,,,,,0,0,4,,,64,96,3
90624,note_off,,,,,256,0,4,,,64,0,3
90624,note_on,,,,,0,0,4,,,62,96,3
90880,note_off,,,,,256,0,4,,,62,0,3
90880,note_on,,,,,0,0,4,,,60,96,3
91136,note_off,,,,,256,0,4,,,60,0,3
91136,note_on,,,,,0,0,3,,,67,96,2
91136,note_on,,,,,0,0,4,,,59,96,3
91136,note_off,,,,,1024,0,3,,,67,0,2
91136,note_off,,,,,1024,0,6,,,52,0,5
91392,note_on,,,,,13312,0,7,,,52,96,6
91648,note_off,,,,,256,0,7,,,52,0,6
91648,note_on,,,,,0,0,7,,,50,96,6
91904,note_off,,,,,256,0,7,,,50,0,6
91904,note_on,,,,,0,0,7,,,48,96,6
91904,note_on,,,,,0,0,4,,,60,96,3
91904,note_off,,,,,768,0,4,,,59,0,3
92160,note_off,,,,,256,0,4,,,60,0,3
92160,note_on,,,,,0,0,4,,,62,96,3
92160,note_on,,,,,0,0,3,,,67,96,2
92160,note_on,,,,,0,0,7,,,47,96,6
92160,note_off,,,,,256,0,7,,,48,0,6
92160,note_off,,,,,1024,0,3,,,67,0,2
92416,note_on,,,,,0,0,7,,,50,96,6
92416,note_off,,,,,256,0,7,,,47,0,6
92672,note_on,,,,,0,0,7,,,43,96,6
92672,note_off,,,,,256,0,7,,,50,0,6
92928,note_off,,,,,768,0,3,,,67,0,2
92928,note_on,,,,,0,0,3,,,65,96,2
93184,note_off,,,,,256,0,3,,,65,0,2
93184,note_on,,,,,0,0,3,,,64,96,2
93440,note_on,,,,,0,0,7,,,48,96,6
93440,note_off,,,,,768,0,7,,,43,0,6
93696,note_on,,,,,0,0,7,,,36,96,6
93696,note_on,,,,,0,0,4,,,60,96,3
93696,note_off,,,,,1536,0,4,,,62,0,3
93696,note_off,,,,,256,0,7,,,48,0,6
93952,note_off,,,,,768,0,3,,,64,0,2
93952,note_on,,,,,0,0,3,,,66,96,2
94208,note_on,,,,,0,0,4,,,59,96,3
94208,note_off,,,,,512,0,4,,,60,0,3
94208,note_on,,,,,0,0,3,,,67,96,2
94208,note_off,,,,,512,0,7,,,36,0,6
94208,note_off,,,,,256,0,3,,,66,0,2
94464,note_on,,,,,256,0,7,,,40,96,6
94720,note_on,,,,,0,0,7,,,52,96,6
94720,note_off,,,,,256,0,7,,,40,0,6
94976,note_off,,,,,768,0,4,,,59,0,3
94976,note_on,,,,,0,0,4,,,55,96,3
95232,note_off,,,,,1024,0,3,,,67,0,2
95232,note_off,,,,,256,0,4,,,55,0,3
95232,note_on,,,,,0,0,4,,,60,96,3
95232,note_on,,,,,0,0,3,,,69,96,2
95488,note_on,,,,,0,0,7,,,42,96,6
95488,note_off,,,,,768,0,7,,,52,0,6
95744,note_off,,,,,256,0,7,,,42,0,6
95744,note_on,,,,,0,0,7,,,50,96,6
96000,note_off,,,,,768,0,4,,,60,0,3
96000,note_on,,,,,0,0,4,,,57,96,3
96256,note_on,,,,,0,0,3,,,71,96,2
96256,note_on,,,,,0,0,4,,,62,96,3
96256,note_off,,,,,1024,0,3,,,69,0,2
96256,note_off,,,,,256,0,4,,,57,0,3
96512,note_on,,,,,0,0,7,,,43,96,6
96512,note_off,,,,,768,0,7,,,50,0,6
96768,note_on,,,,,0,0,7,,,55,96,6
96768,note_off,,,,,256,0,7,,,43,0,6
97024,note_off,,,,,768,0,4,,,62,0,3
97024,note_on,,,,,0,0,4,,,64,96,3
97280,note_on,,,,,0,0,4,,,60,96,3
97280,note_off,,,,,1024,0,3,,,71,0,2
97280,note_on,,,,,0,0,3,,,69,96,2
97280,note_off,,,,,256,0,4,,,64,0,3
97536,note_on,,,,,0,0,7,,,45,96,6
97536,note_off,,,,,768,0,7,,,55,0,6
97792,note_on,,,,,0,0,7,,,54,96,6
97792,note_off,,,,,256,0,7,,,45,0,6
98048,note_on,,,,,0,0,4,,,62,96,3
98048,note_off,,,,,768,0,4,,,60,0,3
98304,note_on,,,,,0,0,4,,,59,96,3
98304,note_off,,,,,256,0,4,,,62,0,3
98304,note_off,,,,,1024,0,3,,,69,0,2
98304,note_on,,,,,0,0,3,,,67,96,2
98560,note_off,,,,,768,0,7,,,54,0,6
98560,note_on,,,,,0,0,7,,,47,96,6
98816,note_on,,,,,0,0,7,,,52,96,6
98816,note_off,,,,,256,0,7,,,47,0,6
99072,note_on,,,,,0,0,4,,,60,96,3
99072,note_off,,,,,768,0,4,,,59,0,3
99328,note_on,,,,,0,0,4,,,57,96,3
99328,note_off,,,,,256,0,4,,,60,0,3
99328,note_off,,,,,1024,0,3,,,67,0,2
99328,note_on,,,,,0,0,3,,,66,96,2
99584,note_on,,,,,0,0,7,,,49,96,6
99584,note_off,,,,,768,0,7,,,52,0,6
99840,note_off,,,,,256,0,7,,,49,0,6
99840,note_on,,,,,0,0,7,,,51,96,6
100096,note_off,,,,,768,0,4,,,57,0,3
100096,note_on,,,,,0,0,4,,,59,96,3
100352,note_on,,,,,0,0,4,,,56,96,3
100352,note_on,,,,,0,0,3,,,64,96,2
100352,note_off,,,,,256,0,4,,,59,0,3
100352,note_off,,,,,1024,0,3,,,66,0,2
100352,note_on,,,,,0,0,7,,,52,96,6
100352,note_off,,,,,512,0,7,,,51,0,6
100608,note_on,,,,,0,0,7,,,48,96,6
100608,note_off,,,,,256,0,7,,,52,0,6
100864,note_off,,,,,256,0,7,,,48,0,6
100864,note_on,,,,,0,0,4,,,57,96,3
100864,note_off,,,,,512,0,4,,,56,0,3
100864,note_on,,,,,0,0,7,,,47,96,6
101120,note_off,,,,,256,0,7,,,47,0,6
101120,note_on,,,,,0,0,7,,,45,96,6
101376,note_off,,,,,512,0,4,,,57,0,3
101376,note_off,,,,,256,0,7,,,45,0,6
101376,note_on,,,,,0,0,7,,,44,96,6
101376,note_on,,,,,0,0,4,,,59,96,3
101632,note_on,,,,,10496,0,6,,,53,96,5
101888,note_on,,,,,0,0,6,,,52,96,5
101888,note_off,,,,,256,0,6,,,53,0,5
102144,note_on,,,,,0,0,6,,,50,96,5
102144,note_off,,,,,256,0,6,,,52,0,5
102400,note_on,,,,,0,0,7,,,45,96,6
102400,note_off,,,,,256,0,6,,,50,0,5
102400,note_on,,,,,0,0,6,,,49,96,5
102400,note_off,,,,,1024,0,7,,,44,0,6
102656,note_off,,,,,1280,0,4,,,59,0,3
102656,note_on,,,,,0,0,4,,,59,96,3
102912,note_off,,,,,256,0,4,,,59,0,3
102912,note_on,,,,,0,0,4,,,57,96,3
103168,note_off,,,,,256,0,4,,,57,0,3
103168,note_on,,,,,0,0,4,,,56,96,3
103424,note_off,,,,,1024,0,6,,,49,0,5
103424,note_off,,,,,256,0,4,,,56,0,3
103424,note_on,,,,,0,0,4,,,57,96,3
103424,note_on,,,,,0,0,6,,,48,96,5
103680,note_off,,,,,3328,0,3,,,64,0,2
103680,note_on,,,,,0,0,3,,,66,96,2
103936,note_on,,,,,0,0,3,,,64,96,2
103936,note_off,,,,,256,0,3,,,66,0,2
104192,note_off,,,,,256,0,3,,,64,0,2
104192,note_on,,,,,0,0,3,,,63,96,2
104448,note_off,,,,,2048,0,7,,,45,0,6
104448,note_on,,,,,0,0,7,,,40,96,6
104448,note_off,,,,,256,0,3,,,63,0,2
104448,note_on,,,,,0,0,3,,,64,96,2
104704,note_on,,,,,0,0,4,,,57,96,3
104704,note_on,,,,,0,0,6,,,48,96,5
104704,note_off,,,,,1280,0,6,,,48,0,5
104704,note_off,,,,,1280,0,4,,,57,0,3
104960,note_off,,,,,256,0,4,,,57,0,3
104960,note_off,,,,,256,0,6,,,48,0,5
104960,note_on,,,,,0,0,4,,,55,96,3
104960,note_on,,,,,0,0,6,,,47,96,5
105216,note_on,,,,,0,0,6,,,45,96,5
105216,note_off,,,,,256,0,6,,,47,0,5
105216,note_off,,,,,256,0,4,,,55,0,3
105216,note_on,,,,,0,0,4,,,54,96,3
105472,note_on,,,,,0,0,6,,,47,96,5
105472,note_on,,,,,0,0,6,,,40,96,5
105472,note_off,,,,,256,0,6,,,45,0,5
105472,note_off,,,,,256,0,4,,,54,0,3
105472,note_on,,,,,0,0,4,,,55,96,3
105728,note_on,,,,,0,0,7,,,40,96,6
105728,note_off,,,,,1280,0,7,,,40,0,6
105984,note_on,,,,,0,0,6,,,52,96,5
105984,note_off,,,,,512,0,6,,,40,0,5
106496,note_off,,,,,512,0,6,,,47,0,5
106496,note_off,,,,,1024,0,4,,,55,0,3
106496,note_on,,,,,0,0,4,,,55,96,3
106496,note_off,,,,,768,0,7,,,40,0,6
106496,note_off,,,,,0,0,6,,,52,0,5
106496,note_off,,,,,2048,0,3,,,64,0,2
106752,note_on,,,,,256,0,3,,,67,96,2
107008,note_on,,,,,0,0,3,,,66,96,2
107008,note_off,,,,,256,0,3,,,67,0,2
107264,note_off,,,,,256,0,3,,,66,0,2
107264,note_on,,,,,0,0,3,,,65,96,2
107520,note_off,,,,,256,0,3,,,65,0,2
107520,note_on,,,,,0,0,3,,,64,96,2
107520,note_on,,,,,0,0,4,,,55,96,3
107520,note_off,,,,,1024,0,4,,,55,0,3
107776,note_off,,,,,256,0,3,,,64,0,2
107776,note_on,,,,,0,0,3,,,63,96,2
108032,note_off,,,,,256,0,3,,,63,0,2
108032,note_on,,,,,0,0,3,,,62,96,2
108288,note_off,,,,,256,0,3,,,62,0,2
108288,note_on,,,,,0,0,3,,,60,96,2
108544,note_on,,,,,0,0,4,,,55,96,3
108544,note_off,,,,,1024,0,4,,,55,0,3
108544,note_on,,,,,0,0,3,,,59,96,2
108544,note_off,,,,,256,0,3,,,60,0,2
108800,note_on,,,,,2304,0,6,,,52,96,5
109056,note_on,,,,,0,0,6,,,51,96,5
109056,note_off,,,,,256,0,6,,,52,0,5
109056,note_off,,,,,512,0,3,,,59,0,2
109056,note_on,,,,,0,0,3,,,60,96,2
109312,note_off,,,,,256,0,3,,,60,0,2
109312,note_on,,,,,0,0,3,,,62,96,2
109312,note_off,,,,,256,0,6,,,51,0,5
109312,note_on,,,,,0,0,6,,,50,96,5
109568,note_off,,,,,1024,0,4,,,55,0,3
109568,note_on,,,,,0,0,4,,,52,96,3
109568,note_on,,,,,0,0,6,,,49,96,5
109568,note_on,,,,,0,0,3,,,64,96,2
109568,note_off,,,,,256,0,3,,,62,0,2
109568,note_off,,,,,256,0,6,,,50,0,5
109824,note_on,,,,,0,0,3,,,66,96,2
109824,note_off,,,,,256,0,3,,,64,0,2
109824,note_off,,,,,256,0,6,,,49,0,5
109824,note_on,,,,,0,0,6,,,48,96,5
110080,note_off,,,,,256,0,3,,,66,0,2
110080,note_on,,,,,0,0,6,,,47,96,5
110080,note_off,,,,,256,0,6,,,48,0,5
110080,note_on,,,,,0,0,3,,,67,96,2
110336,note_on,,,,,0,0,6,,,45,96,5
110336,note_off,,,,,256,0,6,,,47,0,5
110336,note_on,,,,,0,0,3,,,69,96,2
110336,note_off,,,,,256,0,3,,,67,0,2
110592,note_off,,,,,256,0,3,,,69,0,2
110592,note_on,,,,,0,0,4,,,55,96,3
110592,note_off,,,,,1024,0,4,,,52,0,3
110592,note_on,,,,,0,0,6,,,43,96,5
110592,note_off,,,,,256,0,6,,,45,0,5
110592,note_on,,,,,0,0,3,,,71,96,2
110848,note_on,,,,,0,0,3,,,79,96,2
110848,note_on,,,,,0,0,6,,,50,96,5
110848,note_off,,,,,256,0,6,,,43,0,5
110848,note_off,,,,,256,0,3,,,71,0,2
111104,note_off,,,,,256,0,3,,,79,0,2
111104,note_off,,,,,256,0,6,,,50,0,5
111104,note_on,,,,,0,0,6,,,51,96,5
111104,note_on,,,,,0,0,3,,,78,96,2
111360,note_off,,,,,256,0,3,,,78,0,2
111360,note_on,,,,,0,0,3,,,76,96,2
111360,note_off,,,,,256,0,6,,,51,0,5
111360,note_on,,,,,0,0,6,,,52,96,5
111616,note_off,,,,,256,0,3,,,76,0,2
111616,note_on,,,,,0,0,3,,,74,96,2
111616,note_off,,,,,256,0,6,,,52,0,5
111616,note_on,,,,,0,0,6,,,53,96,5
111616,note_off,,,,,1024,0,4,,,55,0,3
111616,note_on,,,,,0,0,4,,,57,96,3
111872,note_on,,,,,0,0,3,,,72,96,2
111872,note_off,,,,,256,0,3,,,74,0,2
111872,note_off,,,,,256,0,6,,,53,0,5
111872,note_on,,,,,0,0,6,,,54,96,5
112128,note_on,,,,,0,0,6,,,55,96,5
112128,note_on,,,,,0,0,3,,,71,96,2
112128,note_off,,,,,256,0,3,,,72,0,2
112128,note_off,,,,,256,0,6,,,54,0,5
112384,note_off,,,,,256,0,3,,,71,0,2
112384,note_on,,,,,0,0,6,,,57,96,5
112384,note_off,,,,,256,0,6,,,55,0,5
112384,note_on,,,,,0,0,3,,,69,96,2
112640,note_on,,,,,0,0,3,,,67,96,2
112640,note_off,,,,,256,0,3,,,69,0,2
112640,note_on,,,,,0,0,4,,,59,96,3
112640,note_off,,,,,1024,0,4,,,57,0,3
112896,note_on,,,,,0,0,6,,,55,96,5
112896,note_off,,,,,512,0,6,,,57,0,5
112896,note_off,,,,,256,0,3,,,67,0,2
112896,note_on,,,,,0,0,3,,,64,96,2
113024,note_on,,,,,0,0,6,,,54,96,5
113024,note_off,,,,,128,0,6,,,55,0,5
113152,note_off,,,,,256,0,3,,,64,0,2
113152,note_on,,,,,0,0,3,,,63,96,2
113152,note_off,,,,,128,0,6,,,54,0,5
113152,note_on,,,,,0,0,6,,,55,96,5
113408,note_on,,,,,0,0,3,,,62,96,2
113408,note_off,,,,,256,0,3,,,63,0,2
113664,note_on,,,,,0,0,4,,,57,96,3
113664,note_off,,,,,256,0,3,,,62,0,2
113664,note_off,,,,,1024,0,4,,,59,0,3
113664,note_on,,,,,0,0,3,,,61,96,2
113920,note_off,,,,,256,0,3,,,61,0,2
113920,note_on,,,,,0,0,3,,,60,96,2
113920,note_on,,,,,0,0,6,,,54,96,5
113920,note_off,,,,,768,0,6,,,55,0,5
114048,note_on,,,,,0,0,6,,,52,96,5
114048,note_off,,,,,128,0,6,,,54,0,5
114176,note_off,,,,,256,0,3,,,60,0,2
114176,note_on,,,,,0,0,3,,,59,96,2
114176,note_off,,,,,128,0,6,,,52,0,5
114176,note_on,,,,,0,0,6,,,54,96,5
114432,note_on,,,,,0,0,3,,,57,96,2
114432,note_off,,,,,256,0,3,,,59,0,2
114688,note_on,,,,,0,0,4,,,55,96,3
114688,note_on,,,,,0,0,3,,,59,96,2
114688,note_off,,,,,512,0,6,,,54,0,5
114688,note_off,,,,,1024,0,4,,,57,0,3
114688,note_off,,,,,256,0,3,,,57,0,2
114944,note_on,,,,,256,0,6,,,55,96,5
115200,note_on,,,,,0,0,6,,,54,96,5
115200,note_off,,,,,256,0,6,,,55,0,5
115456,note_off,,,,,256,0,6,,,54,0,5
115456,note_on,,,,,0,0,6,,,53,96,5
115712,note_on,,,,,0,0,6,,,52,96,5
115712,note_off,,,,,256,0,6,,,53,0,5
115712,note_off,,,,,1024,0,4,,,55,0,3
115712,note_off,,,,,1024,0,3,,,59,0,2
115968,note_off,,,,,256,0,6,,,52,0,5
115968,note_on,,,,,0,0,6,,,51,96,5
116224,note_on,,,,,0,0,6,,,50,96,5
116224,note_off,,,,,256,0,6,,,51,0,5
116480,note_on,,,,,0,0,6,,,48,96,5
116480,note_off,,,,,256,0,6,,,50,0,5
116736,note_on,,,,,0,0,6,,,47,96,5
116736,note_off,,,,,256,0,6,,,48,0,5
116992,note_on,,,,,1280,0,3,,,71,96,2
117248,note_off,,,,,256,0,3,,,71,0,2
117248,note_on,,,,,0,0,6,,,49,96,5
117248,note_on,,,,,0,0,3,,,70,96,2
117248,note_off,,,,,512,0,6,,,47,0,5
117504,note_on,,,,,0,0,6,,,51,96,5
117504,note_off,,,,,256,0,6,,,49,0,5
117504,note_off,,,,,256,0,3,,,70,0,2
117504,note_on,,,,,0,0,3,,,69,96,2
117760,note_off,,,,,256,0,6,,,51,0,5
117760,note_on,,,,,0,0,6,,,52,96,5
117760,note_off,,,,,256,0,3,,,69,0,2
117760,note_on,,,,,0,0,3,,,68,96,2
118016,note_off,,,,,256,0,3,,,68,0,2
118016,note_on,,,,,0,0,3,,,67,96,2
118272,note_on,,,,,0,0,6,,,46,96,5
118272,note_off,,,,,512,0,6,,,52,0,5
118272,note_on,,,,,0,0,3,,,66,96,2
118272,note_off,,,,,256,0,3,,,67,0,2
118528,note_on,,,,,0,0,3,,,64,96,2
118528,note_off,,,,,256,0,3,,,66,0,2
118784,note_on,,,,,0,0,6,,,47,96,5
118784,note_off,,,,,512,0,6,,,46,0,5
118784,note_off,,,,,256,0,3,,,64,0,2
118784,note_on,,,,,0,0,3,,,62,96,2
119040,note_on,,,,,0,0,6,,,50,96,5
119040,note_off,,,,,256,0,6,,,47,0,5
119296,note_on,,,,,0,0,6,,,49,96,5
119296,note_off,,,,,256,0,6,,,50,0,5
119552,note_off,,,,,256,0,6,,,49,0,5
119552,note_on,,,,,0,0,6,,,48,96,5
119808,note_on,,,,,0,0,6,,,47,96,5
119808,note_off,,,,,1024,0,3,,,62,0,2
119808,note_on,,,,,0,0,3,,,62,96,2
119808,note_off,,,,,256,0,6,,,48,0,5
120064,note_off,,,,,256,0,6,,,47,0,5
120064,note_on,,,,,0,0,6,,,46,96,5
120320,note_off,,,,,256,0,6,,,46,0,5
120320,note_on,,,,,0,0,6,,,45,96,5
120576,note_off,,,,,256,0,6,,,45,0,5
120576,note_on,,,,,0,0,6,,,43,96,5
120832,note_off,,,,,256,0,6,,,43,0,5
120832,note_on,,,,,0,0,6,,,42,96,5
120832,note_off,,,,,1024,0,3,,,62,0,2
120832,note_on,,,,,0,0,3,,,62,96,2
121088,note_on,,,,,5376,0,4,,,59,96,3
121344,note_on,,,,,0,0,4,,,58,96,3
121344,note_off,,,,,256,0,4,,,59,0,3
121344,note_on,,,,,0,0,6,,,43,96,5
121344,note_off,,,,,512,0,6,,,42,0,5
121600,note_off,,,,,256,0,4,,,58,0,3
121600,note_on,,,,,0,0,6,,,45,96,5
121600,note_off,,,,,256,0,6,,,43,0,5
121600,note_on,,,,,0,0,4,,,57,96,3
121856,note_off,,,,,1024,0,3,,,62,0,2
121856,note_on,,,,,0,0,4,,,56,96,3
121856,note_off,,,,,256,0,4,,,57,0,3
121856,note_on,,,,,0,0,6,,,47,96,5
121856,note_off,,,,,256,0,6,,,45,0,5
121856,note_on,,,,,0,0,3,,,59,96,2
122112,note_on,,,,,0,0,4,,,55,96,3
122112,note_off,,,,,256,0,4,,,56,0,3
122112,note_off,,,,,256,0,6,,,47,0,5
122112,note_on,,,,,0,0,6,,,49,96,5
122368,note_on,,,,,0,0,4,,,54,96,3
122368,note_off,,,,,256,0,6,,,49,0,5
122368,note_on,,,,,0,0,6,,,50,96,5
122368,note_off,,,,,256,0,4,,,55,0,3
122624,note_off,,,,,256,0,6,,,50,0,5
122624,note_on,,,,,0,0,6,,,52,96,5
122624,note_on,,,,,0,0,4,,,52,96,3
122624,note_off,,,,,256,0,4,,,54,0,3
122880,note_on,,,,,0,0,6,,,54,96,5
122880,note_off,,,,,256,0,6,,,52,0,5
122880,note_on,,,,,0,0,4,,,50,96,3
122880,note_off,,,,,256,0,4,,,52,0,3
122880,note_off,,,,,1024,0,3,,,59,0,2
122880,note_on,,,,,0,0,3,,,62,96,2
123136,note_off,,,,,256,0,4,,,50,0,3
123136,note_on,,,,,0,0,4,,,57,96,3
123136,note_off,,,,,256,0,6,,,54,0,5
123136,note_on,,,,,0,0,6,,,50,96,5
123392,note_on,,,,,0,0,4,,,58,96,3
123392,note_off,,,,,256,0,4,,,57,0,3
123392,note_on,,,,,0,0,6,,,49,96,5
123392,note_off,,,,,256,0,6,,,50,0,5
123648,note_on,,,,,0,0,6,,,47,96,5
123648,note_off,,,,,256,0,6,,,49,0,5
123648,note_on,,,,,0,0,4,,,59,96,3
123648,note_off,,,,,256,0,4,,,58,0,3
123904,note_off,,,,,256,0,6,,,47,0,5
123904,note_off,,,,,256,0,4,,,59,0,3
123904,note_on,,,,,0,0,4,,,60,96,3
123904,note_on,,,,,0,0,6,,,45,96,5
123904,note_on,,,,,0,0,3,,,64,96,2
123904,note_off,,,,,1024,0,3,,,62,0,2
124160,note_off,,,,,256,0,6,,,45,0,5
124160,note_on,,,,,0,0,6,,,43,96,5
124160,note_on,,,,,0,0,4,,,61,96,3
124160,note_off,,,,,256,0,4,,,60,0,3
124416,note_on,,,,,0,0,4,,,62,96,3
124416,note_off,,,,,256,0,6,,,43,0,5
124416,note_on,,,,,0,0,6,,,42,96,5
124416,note_off,,,,,256,0,4,,,61,0,3
124672,note_off,,,,,256,0,4,,,62,0,3
124672,note_on,,,,,0,0,4,,,64,96,3
124672,note_off,,,,,256,0,6,,,42,0,5
124672,note_on,,,,,0,0,6,,,40,96,5
124928,note_off,,,,,256,0,6,,,40,0,5
124928,note_off,,,,,1024,0,3,,,64,0,2
124928,note_on,,,,,0,0,3,,,66,96,2
124928,note_on,,,,,0,0,6,,,38,96,5
125184,note_on,,,,,0,0,6,,,59,96,5
125184,note_on,,,,,0,0,4,,,62,96,3
125184,note_off,,,,,512,0,4,,,64,0,3
125184,note_off,,,,,256,0,6,,,38,0,5
125312,note_on,,,,,0,0,4,,,61,96,3
125312,note_off,,,,,128,0,4,,,62,0,3
125440,note_off,,,,,256,0,6,,,59,0,5
125440,note_off,,,,,128,0,4,,,61,0,3
125440,note_on,,,,,0,0,4,,,62,96,3
125440,note_on,,,,,0,0,6,,,58,96,5
125696,note_off,,,,,256,0,6,,,58,0,5
125696,note_on,,,,,0,0,6,,,57,96,5
125952,note_on,,,,,0,0,3,,,64,96,2
125952,note_off,,,,,1024,0,3,,,66,0,2
125952,note_on,,,,,0,0,6,,,56,96,5
125952,note_off,,,,,256,0,6,,,57,0,5
126208,note_on,,,,,0,0,6,,,55,96,5
126208,note_off,,,,,256,0,6,,,56,0,5
126208,note_off,,,,,768,0,4,,,62,0,3
126208,note_on,,,,,0,0,4,,,61,96,3
126336,note_off,,,,,128,0,4,,,61,0,3
126336,note_on,,,,,0,0,4,,,59,96,3
126464,note_off,,,,,128,0,4,,,59,0,3
126464,note_on,,,,,0,0,6,,,54,96,5
126464,note_off,,,,,256,0,6,,,55,0,5
126464,note_on,,,,,0,0,4,,,61,96,3
126720,note_on,,,,,0,0,6,,,52,96,5
126720,note_off,,,,,256,0,6,,,54,0,5
126976,note_off,,,,,512,0,4,,,61,0,3
126976,note_on,,,,,0,0,6,,,54,96,5
126976,note_off,,,,,1024,0,3,,,64,0,2
126976,note_on,,,,,0,0,3,,,62,96,2
126976,note_off,,,,,256,0,6,,,52,0,5
127232,note_on,,,,,256,0,4,,,62,96,3
127232,note_off,,,,,256,0,6,,,54,0,5
127232,note_on,,,,,0,0,6,,,50,96,5
127488,note_off,,,,,256,0,4,,,62,0,3
127488,note_on,,,,,0,0,6,,,52,96,5
127488,note_on,,,,,0,0,4,,,61,96,3
127488,note_off,,,,,256,0,6,,,50,0,5
127744,note_off,,,,,256,0,6,,,52,0,5
127744,note_off,,,,,256,0,4,,,61,0,3
127744,note_on,,,,,0,0,4,,,60,96,3
127744,note_on,,,,,0,0,6,,,54,96,5
128000,note_off,,,,,256,0,6,,,54,0,5
128000,note_off,,,,,256,0,4,,,60,0,3
128000,note_on,,,,,0,0,4,,,59,96,3
128000,note_on,,,,,0,0,6,,,55,96,5
128000,note_off,,,,,1024,0,3,,,62,0,2
128256,note_off,,,,,256,0,4,,,59,0,3
128256,note_on,,,,,0,0,4,,,58,96,3
128512,note_off,,,,,512,0,6,,,55,0,5
128512,note_on,,,,,0,0,6,,,49,96,5
128512,note_off,,,,,256,0,4,,,58,0,3
128512,note_on,,,,,0,0,4,,,57,96,3
128768,note_off,,,,,256,0,4,,,57,0,3
128768,note_on,,,,,0,0,4,,,55,96,3
129024,note_off,,,,,256,0,4,,,55,0,3
129024,note_off,,,,,512,0,6,,,49,0,5
129024,note_on,,,,,0,0,4,,,54,96,3
129024,note_on,,,,,0,0,6,,,50,96,5
129280,note_on,,,,,0,0,6,,,52,96,5
129280,note_off,,,,,256,0,6,,,50,0,5
129280,note_on,,,,,0,0,4,,,52,96,3
129280,note_off,,,,,256,0,4,,,54,0,3
129536,note_on,,,,,0,0,6,,,51,96,5
129536,note_on,,,,,0,0,4,,,54,96,3
129536,note_off,,,,,256,0,6,,,52,0,5
129536,note_off,,,,,256,0,4,,,52,0,3
129792,note_off,,,,,256,0,6,,,51,0,5
129792,note_off,,,,,256,0,4,,,54,0,3
129792,note_on,,,,,0,0,4,,,56,96,3
129792,note_on,,,,,0,0,6,,,50,96,5
130048,note_off,,,,,256,0,6,,,50,0,5
130048,note_on,,,,,0,0,6,,,49,96,5
130048,note_off,,,,,256,0,4,,,56,0,3
130048,note_on,,,,,0,0,4,,,57,96,3
130304,note_on,,,,,0,0,6,,,48,96,5
130304,note_off,,,,,256,0,6,,,49,0,5
130560,note_off,,,,,256,0,6,,,48,0,5
130560,note_on,,,,,0,0,4,,,51,96,3
130560,note_on,,,,,0,0,6,,,47,96,5
130560,note_off,,,,,512,0,4,,,57,0,3
130816,note_on,,,,,0,0,6,,,45,96,5
130816,note_off,,,,,256,0,6,,,47,0,5
131072,note_off,,,,,256,0,6,,,45,0,5
131072,note_on,,,,,0,0,6,,,43,96,5
131072,note_on,,,,,0,0,4,,,52,96,3
131072,note_off,,,,,512,0,4,,,51,0,3
131072,note_on,,,,,40960,0,8,,,43,96,7
131328,note_on,,,,,0,0,4,,,67,96,3
131328,note_off,,,,,256,0,4,,,52,0,3
131584,note_off,,,,,256,0,4,,,67,0,3
131584,note_on,,,,,0,0,4,,,66,96,3
131584,note_off,,,,,512,0,6,,,43,0,5
131584,note_on,,,,,0,0,6,,,45,96,5
131840,note_on,,,,,0,0,4,,,65,96,3
131840,note_off,,,,,256,0,6,,,45,0,5
131840,note_on,,,,,0,0,6,,,47,96,5
131840,note_off,,,,,256,0,4,,,66,0,3
132096,note_on,,,,,0,0,4,,,64,96,3
132096,note_off,,,,,1024,0,8,,,43,0,7
132096,note_on,,,,,0,0,8,,,43,96,7
132096,note_off,,,,,256,0,6,,,47,0,5
132096,note_on,,,,,0,0,6,,,48,96,5
132096,note_off,,,,,256,0,4,,,65,0,3
132352,note_off,,,,,256,0,6,,,48,0,5
132352,note_on,,,,,0,0,6,,,50,96,5
132352,note_on,,,,,0,0,4,,,63,96,3
132352,note_off,,,,,256,0,4,,,64,0,3
132608,note_off,,,,,256,0,6,,,50,0,5
132608,note_on,,,,,0,0,4,,,62,96,3
132608,note_off,,,,,256,0,4,,,63,0,3
132608,note_on,,,,,0,0,6,,,52,96,5
132864,note_off,,,,,256,0,6,,,52,0,5
132864,note_on,,,,,0,0,4,,,60,96,3
132864,note_off,,,,,256,0,4,,,62,0,3
132864,note_on,,,,,0,0,6,,,54,96,5
133120,note_on,,,,,0,0,6,,,55,96,5
133120,note_off,,,,,256,0,6,,,54,0,5
133120,note_on,,,,,0,0,8,,,43,96,7
133120,note_on,,,,,0,0,4,,,59,96,3
133120,note_off,,,,,256,0,4,,,60,0,3
133120,note_off,,,,,1024,0,8,,,43,0,7
133376,note_off,,,,,256,0,6,,,55,0,5
133376,note_on,,,,,0,0,6,,,52,96,5
133632,note_on,,,,,0,0,4,,,60,96,3
133632,note_off,,,,,256,0,6,,,52,0,5
133632,note_on,,,,,0,0,6,,,51,96,5
133632,note_off,,,,,512,0,4,,,59,0,3
133888,note_on,,,,,0,0,4,,,62,96,3
133888,note_off,,,,,256,0,4,,,60,0,3
133888,note_off,,,,,256,0,6,,,51,0,5
133888,note_on,,,,,0,0,6,,,50,96,5
134144,note_off,,,,,1024,0,8,,,43,0,7
134144,note_on,,,,,0,0,8,,,40,96,7
134144,note_off,,,,,256,0,6,,,50,0,5
134144,note_on,,,,,0,0,6,,,49,96,5
134144,note_on,,,,,0,0,4,,,64,96,3
134144,note_off,,,,,256,0,4,,,62,0,3
134400,note_off,,,,,256,0,6,,,49,0,5
134400,note_on,,,,,0,0,4,,,66,96,3
134400,note_on,,,,,0,0,6,,,48,96,5
134400,note_off,,,,,256,0,4,,,64,0,3
134656,note_off,,,,,256,0,6,,,48,0,5
134656,note_on,,,,,0,0,4,,,67,96,3
134656,note_off,,,,,256,0,4,,,66,0,3
134656,note_on,,,,,0,0,6,,,47,96,5
134912,note_on,,,,,0,0,6,,,45,96,5
134912,note_off,,,,,256,0,6,,,47,0,5
134912,note_off,,,,,256,0,4,,,67,0,3
134912,note_on,,,,,0,0,4,,,69,96,3
135168,note_on,,,,,0,0,6,,,43,96,5
135168,note_on,,,,,0,0,8,,,43,96,7
135168,note_off,,,,,1024,0,8,,,40,0,7
135168,note_off,,,,,256,0,6,,,45,0,5
135168,note_on,,,,,0,0,4,,,71,96,3
135168,note_off,,,,,256,0,4,,,69,0,3
135424,note_on,,,,,0,0,4,,,79,96,3
135424,note_off,,,,,256,0,4,,,71,0,3
135424,note_off,,,,,256,0,6,,,43,0,5
135424,note_on,,,,,0,0,6,,,50,96,5
135680,note_on,,,,,0,0,4,,,78,96,3
135680,note_off,,,,,256,0,6,,,50,0,5
135680,note_on,,,,,0,0,6,,,51,96,5
135680,note_off,,,,,256,0,4,,,79,0,3
135936,note_off,,,,,256,0,6,,,51,0,5
135936,note_off,,,,,256,0,4,,,78,0,3
135936,note_on,,,,,0,0,4,,,76,96,3
135936,note_on,,,,,0,0,6,,,52,96,5
136192,note_off,,,,,256,0,4,,,76,0,3
136192,note_on,,,,,0,0,4,,,74,96,3
136192,note_off,,,,,256,0,6,,,52,0,5
136192,note_on,,,,,0,0,6,,,53,96,5
136192,note_off,,,,,1024,0,8,,,43,0,7
136192,note_on,,,,,0,0,8,,,45,96,7
136448,note_on,,,,,0,0,6,,,54,96,5
136448,note_on,,,,,0,0,4,,,72,96,3
136448,note_off,,,,,256,0,4,,,74,0,3
136448,note_off,,,,,256,0,6,,,53,0,5
136704,note_off,,,,,256,0,6,,,54,0,5
136704,note_on,,,,,0,0,6,,,55,96,5
136704,note_off,,,,,256,0,4,,,72,0,3
136704,note_on,,,,,0,0,4,,,71,96,3
136960,note_off,,,,,256,0,4,,,71,0,3
136960,note_off,,,,,256,0,6,,,55,0,5
136960,note_on,,,,,0,0,6,,,57,96,5
136960,note_on,,,,,0,0,4,,,69,96,3
137216,note_off,,,,,1024,0,8,,,45,0,7
137216,note_on,,,,,0,0,4,,,67,96,3
137216,note_on,,,,,0,0,8,,,47,96,7
137216,note_off,,,,,256,0,4,,,69,0,3
137472,note_off,,,,,256,0,4,,,67,0,3
137472,note_on,,,,,0,0,6,,,55,96,5
137472,note_off,,,,,512,0,6,,,57,0,5
137472,note_on,,,,,0,0,4,,,64,96,3
137600,note_on,,,,,0,0,6,,,54,96,5
137600,note_off,,,,,128,0,6,,,55,0,5
137728,note_off,,,,,128,0,6,,,54,0,5
137728,note_on,,,,,0,0,4,,,63,96,3
137728,note_off,,,,,256,0,4,,,64,0,3
137728,note_on,,,,,0,0,6,,,55,96,5
137984,note_off,,,,,256,0,4,,,63,0,3
137984,note_on,,,,,0,0,4,,,62,96,3
138240,note_off,,,,,256,0,4,,,62,0,3
138240,note_on,,,,,0,0,4,,,61,96,3
138240,note_on,,,,,0,0,8,,,45,96,7
138240,note_off,,,,,1024,0,8,,,47,0,7
138496,note_off,,,,,768,0,6,,,55,0,5
138496,note_on,,,,,0,0,6,,,54,96,5
138496,note_on,,,,,0,0,4,,,60,96,3
138496,note_off,,,,,256,0,4,,,61,0,3
138624,note_off,,,,,128,0,6,,,54,0,5
138624,note_on,,,,,0,0,6,,,52,96,5
138752,note_off,,,,,128,0,6,,,52,0,5
138752,note_on,,,,,0,0,6,,,54,96,5
138752,note_on,,,,,0,0,4,,,59,96,3
138752,note_off,,,,,256,0,4,,,60,0,3
139008,note_on,,,,,0,0,4,,,57,96,3
139008,note_off,,,,,256,0,4,,,59,0,3
139264,note_off,,,,,512,0,6,,,54,0,5
139264,note_on,,,,,11264,0,3,,,67,96,2
139264,note_off,,,,,1024,0,8,,,45,0,7
139264,note_on,,,,,0,0,8,,,43,96,7
139264,note_off,,,,,256,0,4,,,57,0,3
139264,note_on,,,,,0,0,4,,,59,96,3
139520,note_on,,,,,256,0,6,,,55,96,5
139776,note_off,,,,,256,0,6,,,55,0,5
139776,note_on,,,,,0,0,4,,,57,96,3
139776,note_off,,,,,512,0,4,,,59,0,3
139776,note_on,,,,,0,0,6,,,54,96,5
140032,note_on,,,,,0,0,4,,,59,96,3
140032,note_off,,,,,256,0,4,,,57,0,3
140032,note_on,,,,,0,0,6,,,53,96,5
140032,note_off,,,,,256,0,6,,,54,0,5
140288,note_off,,,,,256,0,6,,,53,0,5
140288,note_on,,,,,0,0,6,,,52,96,5
140288,note_off,,,,,1024,0,3,,,67,0,2
140288,note_off,,,,,256,0,4,,,59,0,3
140288,note_on,,,,,0,0,4,,,60,96,3
140288,note_on,,,,,0,0,3,,,67,96,2
140544,note_on,,,,,0,0,4,,,62,96,3
140544,note_off,,,,,256,0,4,,,60,0,3
140544,note_off,,,,,256,0,6,,,52,0,5
140544,note_on,,,,,0,0,6,,,51,96,5
140800,note_on,,,,,0,0,6,,,50,96,5
140800,note_on,,,,,0,0,4,,,64,96,3
140800,note_off,,,,,256,0,6,,,51,0,5
140800,note_off,,,,,256,0,4,,,62,0,3
141056,note_on,,,,,0,0,6,,,48,96,5
141056,note_off,,,,,256,0,4,,,64,0,3
141056,note_on,,,,,0,0,4,,,66,96,3
141056,note_off,,,,,256,0,6,,,50,0,5
141312,note_off,,,,,1024,0,3,,,67,0,2
141312,note_on,,,,,0,0,6,,,47,96,5
141312,note_off,,,,,256,0,6,,,48,0,5
141312,note_off,,,,,256,0,4,,,66,0,3
141312,note_on,,,,,0,0,4,,,67,96,3
141312,note_on,,,,,0,0,3,,,67,96,2
141568,note_off,,,,,256,0,4,,,67,0,3
141568,note_on,,,,,0,0,4,,,64,96,3
141824,note_on,,,,,0,0,6,,,48,96,5
141824,note_on,,,,,0,0,4,,,63,96,3
141824,note_off,,,,,256,0,4,,,64,0,3
141824,note_off,,,,,512,0,6,,,47,0,5
142080,note_on,,,,,0,0,4,,,62,96,3
142080,note_on,,,,,0,0,6,,,50,96,5
142080,note_off,,,,,256,0,6,,,48,0,5
142080,note_off,,,,,256,0,4,,,63,0,3
142336,note_on,,,,,0,0,4,,,61,96,3
142336,note_off,,,,,256,0,6,,,50,0,5
142336,note_on,,,,,0,0,3,,,64,96,2
142336,note_off,,,,,256,0,4,,,62,0,3
142336,note_off,,,,,1024,0,3,,,67,0,2
142336,note_on,,,,,0,0,6,,,52,96,5
142592,note_on,,,,,0,0,4,,,60,96,3
142592,note_off,,,,,256,0,6,,,52,0,5
142592,note_off,,,,,256,0,4,,,61,0,3
142592,note_on,,,,,0,0,6,,,54,96,5
142848,note_off,,,,,256,0,6,,,54,0,5
142848,note_on,,,,,0,0,4,,,59,96,3
142848,note_off,,,,,256,0,4,,,60,0,3
142848,note_on,,,,,0,0,6,,,55,96,5
143104,note_on,,,,,0,0,6,,,57,96,5
143104,note_on,,,,,0,0,4,,,57,96,3
143104,note_off,,,,,256,0,4,,,59,0,3
143104,note_off,,,,,256,0,6,,,55,0,5
143360,note_on,,,,,0,0,3,,,67,96,2
143360,note_off,,,,,1024,0,3,,,64,0,2
143360,note_off,,,,,256,0,4,,,57,0,3
143360,note_on,,,,,0,0,6,,,59,96,5
143360,note_off,,,,,256,0,6,,,57,0,5
143360,note_on,,,,,0,0,4,,,55,96,3
143616,note_off,,,,,256,0,4,,,55,0,3
143616,note_on,,,,,0,0,4,,,62,96,3
143616,note_on,,,,,0,0,6,,,55,96,5
143616,note_off,,,,,256,0,6,,,59,0,5
143872,note_on,,,,,0,0,6,,,54,96,5
143872,note_off,,,,,256,0,6,,,55,0,5
143872,note_off,,,,,256,0,4,,,62,0,3
143872,note_on,,,,,0,0,4,,,63,96,3
144128,note_on,,,,,0,0,6,,,52,96,5
144128,note_off,,,,,256,0,6,,,54,0,5
144128,note_off,,,,,256,0,4,,,63,0,3
144128,note_on,,,,,0,0,4,,,64,96,3
144384,note_on,,,,,0,0,3,,,69,96,2
144384,note_off,,,,,1024,0,3,,,67,0,2
144384,note_on,,,,,0,0,4,,,65,96,3
144384,note_off,,,,,256,0,6,,,52,0,5
144384,note_on,,,,,0,0,6,,,50,96,5
144384,note_off,,,,,256,0,4,,,64,0,3
144640,note_off,,,,,256,0,4,,,65,0,3
144640,note_on,,,,,0,0,4,,,66,96,3
144640,note_on,,,,,0,0,6,,,48,96,5
144640,note_off,,,,,256,0,6,,,50,0,5
144896,note_on,,,,,0,0,6,,,47,96,5
144896,note_off,,,,,256,0,4,,,66,0,3
144896,note_off,,,,,256,0,6,,,48,0,5
144896,note_on,,,,,0,0,4,,,67,96,3
145152,note_off,,,,,256,0,4,,,67,0,3
145152,note_on,,,,,0,0,4,,,69,96,3
145152,note_off,,,,,256,0,6,,,47,0,5
145152,note_on,,,,,0,0,6,,,45,96,5
145408,note_on,,,,,0,0,3,,,71,96,2
145408,note_off,,,,,1024,0,3,,,69,0,2
145408,note_on,,,,,0,0,6,,,43,96,5
145408,note_off,,,,,256,0,6,,,45,0,5
145664,note_off,,,,,256,0,6,,,43,0,5
145664,note_on,,,,,0,0,6,,,64,96,5
145664,note_off,,,,,512,0,4,,,69,0,3
145664,note_on,,,,,0,0,4,,,67,96,3
145792,note_off,,,,,128,0,4,,,67,0,3
145792,note_on,,,,,0,0,4,,,66,96,3
145920,note_on,,,,,0,0,4,,,67,96,3
145920,note_off,,,,,256,0,6,,,64,0,5
145920,note_on,,,,,0,0,6,,,63,96,5
145920,note_off,,,,,128,0,4,,,66,0,3
146176,note_off,,,,,256,0,6,,,63,0,5
146176,note_on,,,,,0,0,6,,,62,96,5
146432,note_off,,,,,256,0,6,,,62,0,5
146432,note_off,,,,,1024,0,3,,,71,0,2
146432,note_on,,,,,0,0,6,,,61,96,5
146432,note_on,,,,,0,0,3,,,69,96,2
146688,note_off,,,,,768,0,4,,,67,0,3
146688,note_on,,,,,0,0,6,,,60,96,5
146688,note_on,,,,,0,0,4,,,66,96,3
146688,note_off,,,,,256,0,6,,,61,0,5
146816,note_on,,,,,0,0,4,,,64,96,3
146816,note_off,,,,,128,0,4,,,66,0,3
146944,note_on,,,,,0,0,4,,,66,96,3
146944,note_off,,,,,128,0,4,,,64,0,3
146944,note_on,,,,,0,0,6,,,59,96,5
146944,note_off,,,,,256,0,6,,,60,0,5
147200,note_on,,,,,0,0,6,,,57,96,5
147200,note_off,,,,,256,0,6,,,59,0,5
147456,note_on,,,,,0,0,6,,,59,96,5
147456,note_off,,,,,256,0,6,,,57,0,5
147456,note_off,,,,,1024,0,3,,,69,0,2
147456,note_on,,,,,0,0,3,,,67,96,2
147456,note_off,,,,,512,0,4,,,66,0,3
147456,note_on,,,,,0,0,4,,,67,96,3
147712,note_on,,,,,0,0,3,,,79,96,2
147712,note_off,,,,,256,0,3,,,67,0,2
147712,note_off,,,,,256,0,6,,,59,0,5
147712,note_on,,,,,0,0,6,,,55,96,5
147968,note_off,,,,,256,0,6,,,55,0,5
147968,note_on,,,,,0,0,6,,,57,96,5
147968,note_off,,,,,512,0,4,,,67,0,3
147968,note_off,,,,,256,0,3,,,79,0,2
147968,note_on,,,,,0,0,3,,,78,96,2
148224,note_on,,,,,0,0,6,,,59,96,5
148224,note_off,,,,,256,0,6,,,57,0,5
148224,note_off,,,,,256,0,3,,,78,0,2
148224,note_on,,,,,0,0,3,,,77,96,2
148480,note_on,,,,,0,0,6,,,60,96,5
148480,note_off,,,,,256,0,6,,,59,0,5
148480,note_off,,,,,256,0,3,,,77,0,2
148480,note_on,,,,,0,0,3,,,76,96,2
148736,note_off,,,,,256,0,3,,,76,0,2
148736,note_on,,,,,0,0,3,,,75,96,2
148736,note_on,,,,,0,0,6,,,62,96,5
148736,note_off,,,,,256,0,6,,,60,0,5
148992,note_on,,,,,0,0,3,,,74,96,2
148992,note_off,,,,,256,0,3,,,75,0,2
148992,note_on,,,,,0,0,6,,,64,96,5
148992,note_off,,,,,256,0,6,,,62,0,5
149248,note_on,,,,,0,0,3,,,72,96,2
149248,note_on,,,,,0,0,6,,,66,96,5
149248,note_off,,,,,256,0,6,,,64,0,5
149248,note_off,,,,,256,0,3,,,74,0,2
149504,note_off,,,,,256,0,3,,,72,0,2
149504,note_on,,,,,0,0,6,,,67,96,5
149504,note_off,,,,,256,0,6,,,66,0,5
149504,note_on,,,,,0,0,3,,,71,96,2
149760,note_on,,,,,43264,0,7,,,47,96,6
149760,note_on,,,,,0,0,7,,,50,96,6
149760,note_off,,,,,256,0,3,,,71,0,2
149760,note_on,,,,,0,0,3,,,75,96,2
149760,note_on,,,,,1792,0,4,,,67,96,3
150016,note_off,,,,,256,0,4,,,67,0,3
150016,note_off,,,,,256,0,7,,,47,0,6
150016,note_off,,,,,0,0,7,,,50,0,6
150016,note_off,,,,,256,0,3,,,75,0,2
150016,note_on,,,,,0,0,3,,,75,96,2
150016,note_on,,,,,0,0,7,,,48,96,6
150016,note_on,,,,,0,0,7,,,51,96,6
150016,note_on,,,,,0,0,4,,,66,96,3
150272,note_off,,,,,0,0,7,,,51,0,6
150272,note_off,,,,,256,0,4,,,66,0,3
150272,note_off,,,,,256,0,3,,,75,0,2
150272,note_on,,,,,0,0,3,,,74,96,2
150272,note_off,,,,,256,0,7,,,48,0,6
150272,note_on,,,,,0,0,4,,,65,96,3
150272,note_on,,,,,0,0,7,,,50,96,6
150272,note_on,,,,,0,0,7,,,53,96,6
150528,note_on,,,,,0,0,4,,,64,96,3
150528,note_off,,,,,256,0,3,,,74,0,2
150528,note_on,,,,,0,0,3,,,73,96,2
150528,note_off,,,,,1024,0,6,,,67,0,5
150528,note_off,,,,,256,0,7,,,50,0,6
150528,note_off,,,,,256,0,4,,,65,0,3
150528,note_on,,,,,0,0,7,,,52,96,6
150528,note_on,,,,,0,0,7,,,55,96,6
150528,note_off,,,,,0,0,7,,,53,0,6
150784,note_off,,,,,256,0,4,,,64,0,3
150784,note_on,,,,,0,0,7,,,57,96,6
150784,note_on,,,,,0,0,3,,,72,96,2
150784,note_on,,,,,0,0,4,,,63,96,3
150784,note_off,,,,,0,0,7,,,55,0,6
150784,note_off,,,,,256,0,7,,,52,0,6
150784,note_on,,,,,0,0,7,,,54,96,6
150784,note_off,,,,,256,0,3,,,73,0,2
151040,note_on,,,,,0,0,3,,,71,96,2
151040,note_off,,,,,256,0,3,,,72,0,2
151040,note_off,,,,,256,0,4,,,63,0,3
151040,note_on,,,,,0,0,4,,,62,96,3
151040,note_off,,,,,256,0,7,,,54,0,6
151040,note_off,,,,,0,0,7,,,57,0,6
151040,note_on,,,,,0,0,7,,,55,96,6
151040,note_on,,,,,0,0,7,,,59,96,6
151296,note_off,,,,,256,0,4,,,62,0,3
151296,note_on,,,,,0,0,4,,,60,96,3
151296,note_on,,,,,0,0,7,,,57,96,6
151296,note_on,,,,,0,0,3,,,69,96,2
151296,note_off,,,,,256,0,3,,,71,0,2
151296,note_on,,,,,0,0,7,,,60,96,6
151296,note_off,,,,,256,0,7,,,55,0,6
151296,note_off,,,,,0,0,7,,,59,0,6
151552,note_on,,,,,0,0,7,,,59,96,6
151552,note_on,,,,,0,0,3,,,67,96,2
151552,note_off,,,,,0,0,7,,,60,0,6
151552,note_off,,,,,256,0,7,,,57,0,6
151552,note_off,,,,,256,0,4,,,60,0,3
151552,note_on,,,,,0,0,4,,,59,96,3
151552,note_off,,,,,256,0,3,,,69,0,2
151552,note_on,,,,,0,0,7,,,62,96,6
152576,note_off,,,,,1024,0,4,,,59,0,3
152576,note_off,,,,,13312,0,8,,,43,0,7
152576,note_off,,,,,1024,0,3,,,67,0,2
152576,note_off,,,,,1024,0,7,,,59,0,6
152576,note_on,,,,,0,0,7,,,64,96,6
152576,note_off,,,,,0,0,7,,,62,0,6
152704,note_on,,,,,2176,0,6,,,67,96,5
152832,note_on,,,,,0,0,6,,,69,96,5
152832,note_off,,,,,128,0,6,,,67,0,5
152960,note_off,,,,,128,0,6,,,69,0,5
152960,note_on,,,,,0,0,6,,,71,96,5
153088,note_off,,,,,128,0,6,,,71,0,5
153088,note_on,,,,,0,0,6,,,72,96,5
153344,note_on,,,,,768,0,4,,,79,96,3
153600,note_on,,,,,0,0,4,,,78,96,3
153600,note_off,,,,,256,0,4,,,79,0,3
153600,note_off,,,,,1024,0,7,,,64,0,6
153600,note_on,,,,,0,0,7,,,62,96,6
153856,note_on,,,,,0,0,6,,,71,96,5
153856,note_off,,,,,768,0,6,,,72,0,5
154112,note_off,,,,,256,0,6,,,71,0,5
154112,note_on,,,,,0,0,6,,,69,96,5
154112,note_off,,,,,512,0,7,,,62,0,6
154112,note_on,,,,,0,0,7,,,60,96,6
154368,note_off,,,,,768,0,4,,,78,0,3
154368,note_on,,,,,0,0,4,,,76,96,3
154624,note_on,,,,,0,0,7,,,59,96,6
154624,note_off,,,,,512,0,7,,,60,0,6
154624,note_off,,,,,256,0,4,,,76,0,3
154624,note_on,,,,,0,0,4,,,74,96,3
154880,note_off,,,,,768,0,6,,,69,0,5
154880,note_on,,,,,0,0,6,,,67,96,5
155136,note_on,,,,,0,0,7,,,57,96,6
155136,note_off,,,,,512,0,7,,,59,0,6
155136,note_off,,,,,256,0,6,,,67,0,5
155136,note_on,,,,,0,0,6,,,66,96,5
155392,note_off,,,,,768,0,4,,,74,0,3
155392,note_on,,,,,0,0,4,,,72,96,3
155648,note_off,,,,,256,0,4,,,72,0,3
155648,note_on,,,,,0,0,4,,,71,96,3
155648,note_on,,,,,0,0,7,,,55,96,6
155648,note_off,,,,,512,0,7,,,57,0,6
155776,note_on,,,,,0,0,6,,,59,96,5
155776,note_off,,,,,640,0,6,,,66,0,5
155904,note_off,,,,,128,0,6,,,59,0,5
155904,note_on,,,,,0,0,6,,,61,96,5
156032,note_off,,,,,128,0,6,,,61,0,5
156032,note_on,,,,,0,0,6,,,63,96,5
156160,note_off,,,,,128,0,6,,,63,0,5
156160,note_on,,,,,0,0,6,,,64,96,5
156288,note_on,,,,,0,0,4,,,67,96,3
156288,note_off,,,,,640,0,4,,,71,0,3
156416,note_on,,,,,0,0,4,,,69,96,3
156416,note_off,,,,,128,0,4,,,67,0,3
156544,note_on,,,,,0,0,4,,,71,96,3
156544,note_off,,,,,128,0,4,,,69,0,3
156672,note_on,,,,,0,0,4,,,72,96,3
156672,note_off,,,,,128,0,4,,,71,0,3
156672,note_off,,,,,1024,0,7,,,55,0,6
156672,note_on,,,,,0,0,7,,,57,96,6
156928,note_off,,,,,768,0,6,,,64,0,5
156928,note_on,,,,,0,0,6,,,67,96,5
156928,note_off,,,,,256,0,4,,,72,0,3
156928,note_on,,,,,0,0,4,,,71,96,3
157184,note_off,,,,,256,0,4,,,71,0,3
157184,note_on,,,,,0,0,4,,,69,96,3
157184,note_off,,,,,256,0,6,,,67,0,5
157184,note_on,,,,,0,0,6,,,66,96,5
157440,note_off,,,,,256,0,6,,,66,0,5
157440,note_on,,,,,0,0,6,,,64,96,5
157696,note_off,,,,,1024,0,7,,,57,0,6
157696,note_on,,,,,0,0,7,,,59,96,6
157696,note_on,,,,,0,0,6,,,62,96,5
157696,note_off,,,,,256,0,6,,,64,0,5
157952,note_on,,,,,0,0,6,,,66,96,5
157952,note_off,,,,,256,0,6,,,62,0,5
158208,note_on,,,,,0,0,4,,,67,96,3
158208,note_off,,,,,1024,0,4,,,69,0,3
158208,note_off,,,,,256,0,6,,,66,0,5
158208,note_on,,,,,0,0,6,,,64,96,5
158464,note_on,,,,,0,0,6,,,62,96,5
158464,note_off,,,,,256,0,6,,,64,0,5
158720,note_on,,,,,0,0,7,,,57,96,6
158720,note_off,,,,,1024,0,7,,,59,0,6
158720,note_on,,,,,0,0,6,,,61,96,5
158720,note_off,,,,,256,0,6,,,62,0,5
158976,note_on,,,,,0,0,6,,,64,96,5
158976,note_off,,,,,256,0,6,,,61,0,5
159232,note_off,,,,,256,0,6,,,64,0,5
159232,note_off,,,,,1024,0,4,,,67,0,3
159232,note_on,,,,,0,0,6,,,62,96,5
159232,note_on,,,,,0,0,4,,,66,96,3
159488,note_on,,,,,0,0,6,,,60,96,5
159488,note_off,,,,,256,0,6,,,62,0,5
159744,note_off,,,,,256,0,6,,,60,0,5
159744,note_on,,,,,0,0,6,,,59,96,5
159744,note_off,,,,,1024,0,7,,,57,0,6
159744,note_on,,,,,0,0,7,,,55,96,6
160000,note_off,,,,,256,0,6,,,59,0,5
160000,note_on,,,,,0,0,6,,,62,96,5
160256,note_on,,,,,0,0,4,,,64,96,3
160256,note_off,,,,,256,0,6,,,62,0,5
160256,note_on,,,,,0,0,6,,,60,96,5
160256,note_off,,,,,1024,0,4,,,66,0,3
160512,note_off,,,,,256,0,6,,,60,0,5
160512,note_on,,,,,0,0,6,,,59,96,5
160768,note_on,,,,,0,0,7,,,54,96,6
160768,note_off,,,,,1024,0,7,,,55,0,6
160768,note_off,,,,,256,0,6,,,59,0,5
160768,note_on,,,,,0,0,6,,,57,96,5
161024,note_off,,,,,256,0,6,,,57,0,5
161024,note_on,,,,,0,0,6,,,60,96,5
161280,note_on,,,,,0,0,4,,,63,96,3
161280,note_off,,,,,1024,0,4,,,64,0,3
161280,note_on,,,,,0,0,6,,,59,96,5
161280,note_off,,,,,256,0,6,,,60,0,5
161536,note_on,,,,,0,0,6,,,57,96,5
161536,note_off,,,,,256,0,6,,,59,0,5
161792,note_off,,,,,256,0,6,,,57,0,5
161792,note_on,,,,,0,0,6,,,55,96,5
161792,note_on,,,,,0,0,7,,,52,96,6
161792,note_off,,,,,512,0,4,,,63,0,3
161792,note_on,,,,,0,0,4,,,64,96,3
161792,note_off,,,,,1024,0,7,,,54,0,6
162048,note_off,,,,,256,0,6,,,55,0,5
162048,note_on,,,,,0,0,6,,,57,96,5
162304,note_off,,,,,256,0,6,,,57,0,5
162304,note_on,,,,,0,0,6,,,55,96,5
162560,note_off,,,,,256,0,6,,,55,0,5
162560,note_on,,,,,0,0,6,,,54,96,5
162816,note_off,,,,,1024,0,7,,,52,0,6
162816,note_off,,,,,256,0,6,,,54,0,5
162816,note_off,,,,,1024,0,4,,,64,0,3
162816,note_on,,,,,0,0,6,,,52,96,5
163072,note_on,,,,,256,0,7,,,55,96,6
163072,note_on,,,,,256,0,4,,,64,96,3
163328,note_on,,,,,0,0,4,,,66,96,3
163328,note_off,,,,,256,0,7,,,55,0,6
163328,note_on,,,,,0,0,7,,,54,96,6
163328,note_off,,,,,256,0,4,,,64,0,3
163584,note_on,,,,,0,0,7,,,52,96,6
163584,note_off,,,,,256,0,7,,,54,0,6
163584,note_off,,,,,256,0,4,,,66,0,3
163584,note_on,,,,,0,0,4,,,67,96,3
163840,note_off,,,,,256,0,7,,,52,0,6
163840,note_off,,,,,256,0,4,,,67,0,3
163840,note_off,,,,,1024,0,6,,,52,0,5
163840,note_on,,,,,0,0,7,,,50,96,6
163840,note_on,,,,,0,0,4,,,69,96,3
164096,note_off,,,,,256,0,7,,,50,0,6
164096,note_on,,,,,0,0,7,,,48,96,6
164352,note_off,,,,,256,0,7,,,48,0,6
164352,note_on,,,,,0,0,7,,,47,96,6
164608,note_off,,,,,256,0,7,,,47,0,6
164608,note_on,,,,,0,0,7,,,45,96,6
164864,note_on,,,,,0,0,4,,,71,96,3
164864,note_off,,,,,256,0,7,,,45,0,6
164864,note_on,,,,,0,0,7,,,43,96,6
164864,note_off,,,,,1024,0,4,,,69,0,3
164992,note_on,,,,,0,0,7,,,50,96,6
164992,note_off,,,,,128,0,7,,,43,0,6
165120,note_off,,,,,128,0,7,,,50,0,6
165120,note_on,,,,,0,0,7,,,52,96,6
165248,note_on,,,,,0,0,7,,,54,96,6
165248,note_off,,,,,128,0,7,,,52,0,6
165376,note_on,,,,,0,0,7,,,55,96,6
165376,note_off,,,,,128,0,7,,,54,0,6
165632,note_on,,,,,1792,0,6,,,62,96,5
165888,note_off,,,,,256,0,6,,,62,0,5
165888,note_on,,,,,0,0,6,,,61,96,5
165888,note_off,,,,,1024,0,4,,,71,0,3
165888,note_on,,,,,0,0,4,,,69,96,3
166144,note_off,,,,,768,0,7,,,55,0,6
166144,note_on,,,,,0,0,7,,,54,96,6
166400,note_on,,,,,0,0,7,,,52,96,6
166400,note_off,,,,,256,0,7,,,54,0,6
166400,note_off,,,,,512,0,4,,,69,0,3
166400,note_on,,,,,0,0,4,,,67,96,3
166656,note_on,,,,,0,0,6,,,59,96,5
166656,note_off,,,,,768,0,6,,,61,0,5
166912,note_off,,,,,512,0,4,,,67,0,3
166912,note_on,,,,,0,0,4,,,66,96,3
166912,note_off,,,,,256,0,6,,,59,0,5
166912,note_on,,,,,0,0,6,,,57,96,5
167168,note_on,,,,,0,0,7,,,50,96,6
167168,note_off,,,,,768,0,7,,,52,0,6
167424,note_on,,,,,0,0,7,,,49,96,6
167424,note_on,,,,,0,0,4,,,64,96,3
167424,note_off,,,,,256,0,7,,,50,0,6
167424,note_off,,,,,512,0,4,,,66,0,3
167680,note_on,,,,,0,0,6,,,55,96,5
167680,note_off,,,,,768,0,6,,,57,0,5
167936,note_off,,,,,512,0,4,,,64,0,3
167936,note_off,,,,,256,0,6,,,55,0,5
167936,note_on,,,,,0,0,4,,,62,96,3
167936,note_on,,,,,0,0,6,,,54,96,5
168064,note_on,,,,,0,0,7,,,42,96,6
168064,note_off,,,,,640,0,7,,,49,0,6
168192,note_off,,,,,128,0,7,,,42,0,6
168192,note_on,,,,,0,0,7,,,44,96,6
168320,note_on,,,,,0,0,7,,,46,96,6
168320,note_off,,,,,128,0,7,,,44,0,6
168448,note_on,,,,,0,0,7,,,47,96,6
168448,note_off,,,,,128,0,7,,,46,0,6
168576,note_on,,,,,0,0,6,,,62,96,5
168576,note_off,,,,,640,0,6,,,54,0,5
168704,note_on,,,,,0,0,6,,,64,96,5
168704,note_off,,,,,128,0,6,,,62,0,5
168832,note_on,,,,,0,0,6,,,66,96,5
168832,note_off,,,,,128,0,6,,,64,0,5
168960,note_on,,,,,0,0,6,,,67,96,5
168960,note_off,,,,,128,0,6,,,66,0,5
168960,note_off,,,,,1024,0,4,,,62,0,3
168960,note_on,,,,,0,0,4,,,64,96,3
169216,note_on,,,,,0,0,6,,,66,96,5
169216,note_off,,,,,768,0,7,,,47,0,6
169216,note_off,,,,,256,0,6,,,67,0,5
169216,note_on,,,,,0,0,7,,,50,96,6
169472,note_off,,,,,256,0,7,,,50,0,6
169472,note_on,,,,,0,0,7,,,49,96,6
169472,note_on,,,,,0,0,6,,,64,96,5
169472,note_off,,,,,256,0,6,,,66,0,5
169728,note_off,,,,,256,0,7,,,49,0,6
169728,note_on,,,,,0,0,7,,,47,96,6
169984,note_on,,,,,0,0,7,,,45,96,6
169984,note_off,,,,,256,0,7,,,47,0,6
169984,note_off,,,,,1024,0,4,,,64,0,3
169984,note_on,,,,,0,0,4,,,66,96,3
170240,note_on,,,,,0,0,7,,,48,96,6
170240,note_off,,,,,256,0,7,,,45,0,6
170496,note_off,,,,,256,0,7,,,48,0,6
170496,note_on,,,,,0,0,6,,,62,96,5
170496,note_off,,,,,1024,0,6,,,64,0,5
170496,note_on,,,,,0,0,7,,,47,96,6
170752,note_off,,,,,256,0,7,,,47,0,6
170752,note_on,,,,,0,0,7,,,45,96,6
171008,note_on,,,,,0,0,7,,,44,96,6
171008,note_off,,,,,256,0,7,,,45,0,6
171008,note_on,,,,,0,0,4,,,64,96,3
171008,note_off,,,,,1024,0,4,,,66,0,3
171264,note_off,,,,,256,0,7,,,44,0,6
171264,note_on,,,,,0,0,7,,,47,96,6
171520,note_off,,,,,1024,0,6,,,62,0,5
171520,note_on,,,,,0,0,6,,,61,96,5
171520,note_off,,,,,256,0,7,,,47,0,6
171520,note_on,,,,,0,0,7,,,45,96,6
171776,note_on,,,,,0,0,7,,,43,96,6
171776,note_off,,,,,256,0,7,,,45,0,6
172032,note_off,,,,,256,0,7,,,43,0,6
172032,note_on,,,,,0,0,7,,,42,96,6
172032,note_on,,,,,0,0,4,,,62,96,3
172032,note_off,,,,,1024,0,4,,,64,0,3
172288,note_on,,,,,0,0,7,,,45,96,6
172288,note_off,,,,,256,0,7,,,42,0,6
172544,note_on,,,,,0,0,6,,,59,96,5
172544,note_on,,,,,0,0,7,,,43,96,6
172544,note_off,,,,,1024,0,6,,,61,0,5
172544,note_off,,,,,256,0,7,,,45,0,6
172800,note_off,,,,,256,0,7,,,43,0,6
172800,note_on,,,,,0,0,7,,,42,96,6
173056,note_on,,,,,0,0,4,,,61,96,3
173056,note_off,,,,,1024,0,4,,,62,0,3
173056,note_off,,,,,256,0,7,,,42,0,6
173056,note_on,,,,,0,0,7,,,40,96,6
173312,note_on,,,,,0,0,7,,,43,96,6
173312,note_off,,,,,256,0,7,,,40,0,6
173568,note_off,,,,,1024,0,6,,,59,0,5
173568,note_on,,,,,0,0,7,,,42,96,6
173568,note_off,,,,,256,0,7,,,43,0,6
173568,note_on,,,,,0,0,6,,,58,96,5
173824,note_off,,,,,256,0,7,,,42,0,6
173824,note_on,,,,,0,0,7,,,40,96,6
174080,note_off,,,,,1024,0,4,,,61,0,3
174080,note_on,,,,,0,0,6,,,59,96,5
174080,note_off,,,,,256,0,7,,,40,0,6
174080,note_on,,,,,0,0,7,,,38,96,6
174080,note_off,,,,,512,0,6,,,58,0,5
174080,note_on,,,,,0,0,4,,,59,96,3
174336,note_off,,,,,256,0,6,,,59,0,5
174336,note_off,,,,,256,0,7,,,38,0,6
174336,note_on,,,,,0,0,7,,,52,96,6
174336,note_on,,,,,0,0,6,,,55,96,5
174592,note_off,,,,,256,0,6,,,55,0,5
174592,note_off,,,,,256,0,7,,,52,0,6
174592,note_on,,,,,0,0,7,,,50,96,6
174592,note_on,,,,,0,0,6,,,54,96,5
174848,note_on,,,,,0,0,7,,,49,96,6
174848,note_off,,,,,256,0,7,,,50,0,6
174848,note_off,,,,,256,0,6,,,54,0,5
174848,note_on,,,,,0,0,6,,,52,96,5
175104,note_off,,,,,1024,0,4,,,59,0,3
175104,note_off,,,,,256,0,7,,,49,0,6
175104,note_off,,,,,256,0,6,,,52,0,5
175104,note_on,,,,,0,0,6,,,50,96,5
175104,note_on,,,,,0,0,7,,,47,96,6
175360,note_on,,,,,256,0,4,,,62,96,3
175360,note_on,,,,,0,0,6,,,59,96,5
175360,note_off,,,,,256,0,6,,,50,0,5
175616,note_on,,,,,0,0,4,,,60,96,3
175616,note_off,,,,,256,0,4,,,62,0,3
175616,note_off,,,,,512,0,7,,,47,0,6
175616,note_on,,,,,0,0,7,,,48,96,6
175616,note_off,,,,,256,0,6,,,59,0,5
175616,note_on,,,,,0,0,6,,,57,96,5
175872,note_on,,,,,0,0,4,,,59,96,3
175872,note_off,,,,,256,0,4,,,60,0,3
175872,note_off,,,,,256,0,6,,,57,0,5
175872,note_on,,,,,0,0,6,,,55,96,5
176128,note_off,,,,,512,0,7,,,48,0,6
176128,note_on,,,,,0,0,7,,,50,96,6
176128,note_off,,,,,256,0,4,,,59,0,3
176128,note_on,,,,,23552,0,8,,,50,96,7
176128,note_off,,,,,256,0,6,,,55,0,5
176128,note_on,,,,,0,0,6,,,54,96,5
176128,note_on,,,,,0,0,4,,,57,96,3
176384,note_on,,,,,0,0,4,,,59,96,3
176384,note_off,,,,,256,0,4,,,57,0,3
176512,note_on,,,,,0,0,4,,,60,96,3
176512,note_off,,,,,128,0,4,,,59,0,3
176640,note_off,,,,,128,0,4,,,60,0,3
176640,note_on,,,,,0,0,4,,,62,96,3
176640,note_off,,,,,512,0,7,,,50,0,6
176640,note_off,,,,,512,0,6,,,54,0,5
176768,note_on,,,,,128,0,6,,,62,96,5
176768,note_off,,,,,128,0,4,,,62,0,3
176896,note_on,,,,,0,0,6,,,64,96,5
176896,note_off,,,,,128,0,6,,,62,0,5
177024,note_off,,,,,128,0,6,,,64,0,5
177024,note_on,,,,,0,0,6,,,66,96,5
177152,note_on,,,,,0,0,6,,,67,96,5
177152,note_off,,,,,128,0,6,,,66,0,5
177152,note_on,,,,,0,0,8,,,52,96,7
177152,note_off,,,,,1024,0,8,,,50,0,7
177280,note_off,,,,,128,0,6,,,67,0,5
177280,note_on,,,,,512,0,4,,,67,96,3
177408,note_off,,,,,128,0,4,,,67,0,3
177408,note_on,,,,,0,0,4,,,69,96,3
177536,note_off,,,,,128,0,4,,,69,0,3
177536,note_on,,,,,0,0,4,,,71,96,3
177664,note_on,,,,,0,0,4,,,72,96,3
177664,note_off,,,,,128,0,4,,,71,0,3
177920,note_on,,,,,640,0,6,,,67,96,5
178176,note_off,,,,,1024,0,8,,,52,0,7
178176,note_on,,,,,0,0,8,,,50,96,7
178176,note_on,,,,,0,0,6,,,66,96,5
178176,note_off,,,,,256,0,6,,,67,0,5
178432,note_on,,,,,0,0,4,,,71,96,3
178432,note_off,,,,,768,0,4,,,72,0,3
178688,note_off,,,,,256,0,4,,,71,0,3
178688,note_off,,,,,512,0,8,,,50,0,7
178688,note_on,,,,,0,0,8,,,48,96,7
178688,note_on,,,,,0,0,4,,,69,96,3
178944,note_off,,,,,768,0,6,,,66,0,5
178944,note_on,,,,,0,0,6,,,64,96,5
179200,note_on,,,,,0,0,6,,,62,96,5
179200,note_off,,,,,512,0,8,,,48,0,7
179200,note_off,,,,,256,0,6,,,64,0,5
179200,note_on,,,,,0,0,8,,,47,96,7
179456,note_off,,,,,768,0,4,,,69,0,3
179456,note_on,,,,,0,0,4,,,67,96,3
179712,note_off,,,,,256,0,4,,,67,0,3
179712,note_off,,,,,512,0,8,,,47,0,7
179712,note_on,,,,,0,0,4,,,66,96,3
179712,note_on,,,,,0,0,8,,,45,96,7
179968,note_off,,,,,768,0,6,,,62,0,5
179968,note_on,,,,,0,0,6,,,60,96,5
180224,note_off,,,,,512,0,8,,,45,0,7
180224,note_on,,,,,0,0,8,,,43,96,7
180224,note_off,,,,,256,0,6,,,60,0,5
180224,note_on,,,,,0,0,6,,,59,96,5
180352,note_off,,,,,640,0,4,,,66,0,3
180352,note_on,,,,,0,0,4,,,59,96,3
180480,note_on,,,,,0,0,4,,,61,96,3
180480,note_off,,,,,128,0,4,,,59,0,3
180608,note_on,,,,,0,0,4,,,63,96,3
180608,note_off,,,,,128,0,4,,,61,0,3
180736,note_on,,,,,0,0,4,,,64,96,3
180736,note_off,,,,,128,0,4,,,63,0,3
180864,note_off,,,,,640,0,6,,,59,0,5
180864,note_on,,,,,0,0,6,,,55,96,5
180992,note_on,,,,,0,0,6,,,57,96,5
180992,note_off,,,,,128,0,6,,,55,0,5
181120,note_off,,,,,128,0,6,,,57,0,5
181120,note_on,,,,,0,0,6,,,59,96,5
181248,note_on,,,,,0,0,6,,,60,96,5
181248,note_off,,,,,128,0,6,,,59,0,5
181248,note_on,,,,,0,0,8,,,45,96,7
181248,note_off,,,,,1024,0,8,,,43,0,7
181504,note_off,,,,,256,0,6,,,60,0,5
181504,note_on,,,,,0,0,6,,,59,96,5
181504,note_on,,,,,0,0,4,,,67,96,3
181504,note_off,,,,,768,0,4,,,64,0,3
181760,note_off,,,,,256,0,6,,,59,0,5
181760,note_on,,,,,0,0,6,,,57,96,5
181760,note_off,,,,,256,0,4,,,67,0,3
181760,note_on,,,,,0,0,4,,,66,96,3
182016,note_off,,,,,256,0,4,,,66,0,3
182016,note_on,,,,,0,0,4,,,64,96,3
182272,note_off,,,,,1024,0,8,,,45,0,7
182272,note_off,,,,,256,0,4,,,64,0,3
182272,note_on,,,,,0,0,4,,,63,96,3
182272,note_on,,,,,0,0,8,,,47,96,7
182528,note_off,,,,,256,0,4,,,63,0,3
182528,note_on,,,,,0,0,4,,,66,96,3
182784,note_on,,,,,0,0,6,,,55,96,5
182784,note_off,,,,,256,0,4,,,66,0,3
182784,note_on,,,,,0,0,4,,,64,96,3
182784,note_off,,,,,1024,0,6,,,57,0,5
183040,note_on,,,,,0,0,4,,,62,96,3
183040,note_off,,,,,256,0,4,,,64,0,3
183296,note_on,,,,,0,0,4,,,61,96,3
183296,note_off,,,,,256,0,4,,,62,0,3
183296,note_on,,,,,0,0,8,,,45,96,7
183296,note_off,,,,,1024,0,8,,,47,0,7
183552,note_on,,,,,0,0,4,,,64,96,3
183552,note_off,,,,,256,0,4,,,61,0,3
183808,note_on,,,,,0,0,4,,,62,96,3
183808,note_off,,,,,1024,0,6,,,55,0,5
183808,note_off,,,,,256,0,4,,,64,0,3
183808,note_on,,,,,0,0,6,,,54,96,5
184064,note_on,,,,,0,0,4,,,60,96,3
184064,note_off,,,,,256,0,4,,,62,0,3
184320,note_on,,,,,0,0,8,,,43,96,7
184320,note_off,,,,,256,0,4,,,60,0,3
184320,note_on,,,,,0,0,4,,,59,96,3
184320,note_off,,,,,1024,0,8,,,45,0,7
184576,note_on,,,,,0,0,4,,,62,96,3
184576,note_off,,,,,256,0,4,,,59,0,3
184832,note_on,,,,,0,0,4,,,60,96,3
184832,note_off,,,,,256,0,4,,,62,0,3
184832,note_off,,,,,1024,0,6,,,54,0,5
184832,note_on,,,,,0,0,6,,,52,96,5
185088,note_off,,,,,256,0,4,,,60,0,3
185088,note_on,,,,,0,0,4,,,59,96,3
185344,note_on,,,,,0,0,4,,,57,96,3
185344,note_off,,,,,1024,0,8,,,43,0,7
185344,note_on,,,,,0,0,8,,,42,96,7
185344,note_off,,,,,256,0,4,,,59,0,3
185600,note_off,,,,,256,0,4,,,57,0,3
185600,note_on,,,,,0,0,4,,,60,96,3
185856,note_on,,,,,0,0,4,,,59,96,3
185856,note_off,,,,,1024,0,6,,,52,0,5
185856,note_on,,,,,0,0,6,,,51,96,5
185856,note_off,,,,,256,0,4,,,60,0,3
186112,note_off,,,,,256,0,4,,,59,0,3
186112,note_on,,,,,0,0,4,,,57,96,3
186368,note_on,,,,,0,0,8,,,40,96,7
186368,note_off,,,,,256,0,4,,,57,0,3
186368,note_on,,,,,0,0,4,,,55,96,3
186368,note_off,,,,,512,0,6,,,51,0,5
186368,note_on,,,,,0,0,6,,,52,96,5
186368,note_off,,,,,1024,0,8,,,42,0,7
186624,note_off,,,,,256,0,4,,,55,0,3
186624,note_on,,,,,0,0,4,,,57,96,3
186880,note_off,,,,,256,0,4,,,57,0,3
186880,note_on,,,,,0,0,4,,,55,96,3
186880,note_off,,,,,512,0,6,,,52,0,5
186880,note_off,,,,,512,0,8,,,40,0,7
186880,note_on,,,,,0,0,8,,,42,96,7
187136,note_off,,,,,256,0,4,,,55,0,3
187136,note_on,,,,,0,0,4,,,54,96,3
187392,note_off,,,,,512,0,8,,,42,0,7
187392,note_on,,,,,0,0,8,,,43,96,7
187392,note_on,,,,,0,0,4,,,52,96,3
187392,note_off,,,,,256,0,4,,,54,0,3
187648,note_on,,,,,0,0,4,,,67,96,3
187648,note_off,,,,,256,0,4,,,52,0,3
187648,note_on,,,,,768,0,6,,,59,96,5
187904,note_on,,,,,0,0,4,,,66,96,3
187904,note_off,,,,,256,0,4,,,67,0,3
187904,note_off,,,,,256,0,6,,,59,0,5
187904,note_on,,,,,0,0,8,,,45,96,7
187904,note_off,,,,,512,0,8,,,43,0,7
187904,note_on,,,,,0,0,6,,,57,96,5
188160,note_off,,,,,256,0,4,,,66,0,3
188160,note_on,,,,,0,0,4,,,64,96,3
188160,note_off,,,,,256,0,6,,,57,0,5
188160,note_on,,,,,0,0,6,,,55,96,5
188416,note_on,,,,,0,0,6,,,62,96,5
188416,note_off,,,,,256,0,6,,,55,0,5
188416,note_on,,,,,11776,0,7,,,54,96,6
188416,note_on,,,,,35840,0,3,,,74,96,2
188416,note_off,,,,,512,0,8,,,45,0,7
188416,note_on,,,,,0,0,8,,,47,96,7
188416,note_off,,,,,256,0,4,,,64,0,3
188544,note_off,,,,,128,0,6,,,62,0,5
188544,note_on,,,,,0,0,6,,,72,96,5
188672,note_off,,,,,128,0,6,,,72,0,5
188672,note_on,,,,,0,0,6,,,71,96,5
188800,note_off,,,,,128,0,6,,,71,0,5
188800,note_on,,,,,0,0,6,,,69,96,5
188928,note_on,,,,,0,0,7,,,55,96,6
188928,note_off,,,,,512,0,7,,,54,0,6
188928,note_on,,,,,0,0,6,,,67,96,5
188928,note_off,,,,,128,0,6,,,69,0,5
189056,note_on,,,,,0,0,7,,,65,96,6
189056,note_off,,,,,128,0,7,,,55,0,6
189184,note_on,,,,,0,0,7,,,64,96,6
189184,note_off,,,,,128,0,7,,,65,0,6
189312,note_off,,,,,128,0,7,,,64,0,6
189312,note_on,,,,,0,0,7,,,62,96,6
189440,note_off,,,,,128,0,7,,,62,0,6
189440,note_off,,,,,1024,0,3,,,74,0,2
189440,note_on,,,,,0,0,8,,,48,96,7
189440,note_off,,,,,1024,0,8,,,47,0,7
189440,note_on,,,,,0,0,7,,,60,96,6
189440,note_on,,,,,0,0,3,,,76,96,2
189568,note_off,,,,,640,0,6,,,67,0,5
189568,note_on,,,,,0,0,6,,,67,96,5
189568,note_on,,,,,0,0,7,,,64,96,6
189568,note_off,,,,,128,0,7,,,60,0,6
189696,note_off,,,,,128,0,7,,,64,0,6
189696,note_on,,,,,0,0,7,,,66,96,6
189696,note_on,,,,,0,0,6,,,69,96,5
189696,note_off,,,,,128,0,6,,,67,0,5
189824,note_on,,,,,0,0,7,,,67,96,6
189824,note_on,,,,,0,0,6,,,71,96,5
189824,note_off,,,,,128,0,6,,,69,0,5
189824,note_off,,,,,128,0,7,,,66,0,6
189952,note_on,,,,,0,0,6,,,72,96,5
189952,note_on,,,,,0,0,7,,,69,96,6
189952,note_off,,,,,128,0,7,,,67,0,6
189952,note_off,,,,,128,0,6,,,71,0,5
190208,note_on,,,,,0,0,7,,,67,96,6
190208,note_off,,,,,256,0,7,,,69,0,6
190464,note_on,,,,,0,0,7,,,66,96,6
190464,note_off,,,,,256,0,7,,,67,0,6
190464,note_on,,,,,0,0,3,,,74,96,2
190464,note_off,,,,,1024,0,3,,,76,0,2
190464,note_off,,,,,1024,0,8,,,48,0,7
190464,note_on,,,,,0,0,8,,,50,96,7
190720,note_on,,,,,0,0,6,,,71,96,5
190720,note_off,,,,,768,0,6,,,72,0,5
190976,note_on,,,,,0,0,6,,,69,96,5
190976,note_off,,,,,256,0,6,,,71,0,5
190976,note_off,,,,,512,0,3,,,74,0,2
190976,note_on,,,,,0,0,3,,,72,96,2
191232,note_off,,,,,768,0,7,,,66,0,6
191232,note_on,,,,,0,0,7,,,64,96,6
191488,note_off,,,,,512,0,3,,,72,0,2
191488,note_on,,,,,0,0,3,,,71,96,2
191488,note_off,,,,,256,0,7,,,64,0,6
191488,note_on,,,,,0,0,7,,,62,96,6
191744,note_on,,,,,0,0,6,,,67,96,5
191744,note_off,,,,,768,0,6,,,69,0,5
192000,note_on,,,,,0,0,6,,,66,96,5
192000,note_off,,,,,256,0,6,,,67,0,5
192000,note_off,,,,,512,0,3,,,71,0,2
192000,note_on,,,,,0,0,3,,,69,96,2
192256,note_off,,,,,768,0,7,,,62,0,6
192256,note_on,,,,,0,0,7,,,60,96,6
192512,note_on,,,,,0,0,8,,,52,96,7
192512,note_on,,,,,0,0,7,,,59,96,6
192512,note_on,,,,,0,0,3,,,67,96,2
192512,note_off,,,,,512,0,3,,,69,0,2
192512,note_off,,,,,2048,0,8,,,50,0,7
192512,note_off,,,,,256,0,7,,,60,0,6
192640,note_on,,,,,0,0,6,,,59,96,5
192640,note_off,,,,,640,0,6,,,66,0,5
192768,note_on,,,,,0,0,6,,,61,96,5
192768,note_off,,,,,128,0,6,,,59,0,5
192896,note_on,,,,,0,0,6,,,63,96,5
192896,note_off,,,,,128,0,6,,,61,0,5
193024,note_on,,,,,0,0,8,,,50,96,7
193024,note_off,,,,,512,0,8,,,52,0,7
193024,note_on,,,,,0,0,6,,,64,96,5
193024,note_off,,,,,128,0,6,,,63,0,5
193152,note_on,,,,,0,0,7,,,55,96,6
193152,note_off,,,,,640,0,7,,,59,0,6
193280,note_off,,,,,128,0,7,,,55,0,6
193280,note_on,,,,,0,0,7,,,57,96,6
193408,note_off,,,,,128,0,7,,,57,0,6
193408,note_on,,,,,0,0,7,,,59,96,6
193536,note_on,,,,,0,0,8,,,48,96,7
193536,note_off,,,,,1024,0,3,,,67,0,2
193536,note_on,,,,,0,0,3,,,69,96,2
193536,note_off,,,,,128,0,7,,,59,0,6
193536,note_on,,,,,0,0,7,,,60,96,6
193536,note_off,,,,,512,0,8,,,50,0,7
193792,note_off,,,,,256,0,7,,,60,0,6
193792,note_on,,,,,0,0,7,,,59,96,6
193792,note_off,,,,,768,0,6,,,64,0,5
193792,note_on,,,,,0,0,6,,,67,96,5
194048,note_on,,,,,0,0,6,,,66,96,5
194048,note_off,,,,,256,0,6,,,67,0,5
194048,note_off,,,,,256,0,7,,,59,0,6
194048,note_on,,,,,0,0,7,,,57,96,6
194304,note_off,,,,,256,0,6,,,66,0,5
194304,note_on,,,,,0,0,6,,,64,96,5
194560,note_off,,,,,1024,0,3,,,69,0,2
194560,note_on,,,,,0,0,3,,,71,96,2
194560,note_off,,,,,1024,0,8,,,48,0,7
194560,note_on,,,,,0,0,6,,,63,96,5
194560,note_on,,,,,0,0,8,,,47,96,7
194560,note_off,,,,,256,0,6,,,64,0,5
194816,note_on,,,,,0,0,6,,,66,96,5
194816,note_off,,,,,256,0,6,,,63,0,5
195072,note_on,,,,,0,0,7,,,55,96,6
195072,note_off,,,,,256,0,6,,,66,0,5
195072,note_on,,,,,0,0,6,,,64,96,5
195072,note_off,,,,,1024,0,7,,,57,0,6
195328,note_off,,,,,256,0,6,,,64,0,5
195328,note_on,,,,,0,0,6,,,62,96,5
195584,note_off,,,,,1024,0,3,,,71,0,2
195584,note_off,,,,,256,0,6,,,62,0,5
195584,note_on,,,,,0,0,6,,,61,96,5
195584,note_on,,,,,0,0,3,,,69,96,2
195840,note_off,,,,,256,0,6,,,61,0,5
195840,note_on,,,,,0,0,6,,,64,96,5
196096,note_off,,,,,1024,0,7,,,55,0,6
196096,note_on,,,,,0,0,7,,,54,96,6
196096,note_off,,,,,256,0,6,,,64,0,5
196096,note_on,,,,,0,0,6,,,62,96,5
196352,note_off,,,,,256,0,6,,,62,0,5
196352,note_on,,,,,0,0,6,,,60,96,5
196608,note_off,,,,,256,0,6,,,60,0,5
196608,note_on,,,,,0,0,3,,,67,96,2
196608,note_off,,,,,1024,0,3,,,69,0,2
196608,note_on,,,,,0,0,6,,,59,96,5
196864,note_off,,,,,256,0,6,,,59,0,5
196864,note_on,,,,,0,0,6,,,62,96,5
197120,note_off,,,,,1024,0,7,,,54,0,6
197120,note_off,,,,,256,0,6,,,62,0,5
197120,note_on,,,,,0,0,6,,,60,96,5
197120,note_on,,,,,0,0,7,,,52,96,6
197376,note_off,,,,,256,0,6,,,60,0,5
197376,note_on,,,,,0,0,6,,,59,96,5
197632,note_off,,,,,1024,0,3,,,67,0,2
197632,note_on,,,,,0,0,3,,,66,96,2
197632,note_on,,,,,0,0,6,,,57,96,5
197632,note_off,,,,,256,0,6,,,59,0,5
197888,note_off,,,,,256,0,6,,,57,0,5
197888,note_on,,,,,0,0,6,,,60,96,5
198144,note_on,,,,,0,0,6,,,59,96,5
198144,note_off,,,,,1024,0,7,,,52,0,6
198144,note_off,,,,,256,0,6,,,60,0,5
198144,note_on,,,,,0,0,7,,,50,96,6
198400,note_on,,,,,0,0,6,,,57,96,5
198400,note_off,,,,,256,0,6,,,59,0,5
198656,note_on,,,,,0,0,8,,,40,96,7
198656,note_off,,,,,4096,0,8,,,47,0,7
198656,note_on,,,,,0,0,6,,,56,96,5
198656,note_off,,,,,256,0,6,,,57,0,5
198656,note_on,,,,,0,0,3,,,64,96,2
198656,note_off,,,,,1024,0,3,,,66,0,2
198784,note_on,,,,,0,0,7,,,47,96,6
198784,note_off,,,,,640,0,7,,,50,0,6
198912,note_on,,,,,0,0,7,,,48,96,6
198912,note_off,,,,,128,0,7,,,47,0,6
199040,note_on,,,,,0,0,7,,,50,96,6
199040,note_off,,,,,128,0,7,,,48,0,6
199168,note_on,,,,,0,0,7,,,52,96,6
199168,note_off,,,,,128,0,7,,,50,0,6
199424,note_off,,,,,256,0,7,,,52,0,6
199424,note_on,,,,,0,0,7,,,50,96,6
199680,note_on,,,,,0,0,7,,,49,96,6
199680,note_off,,,,,256,0,7,,,50,0,6
199936,note_off,,,,,1280,0,6,,,56,0,5
199936,note_on,,,,,0,0,6,,,52,96,5
200192,note_on,,,,,0,0,7,,,48,96,6
200192,note_off,,,,,512,0,7,,,49,0,6
200192,note_on,,,,,0,0,6,,,57,96,5
200192,note_off,,,,,256,0,6,,,52,0,5
200704,note_on,,,,,200704,0,2,,,73,96,1
200704,note_on,,,,,0,0,7,,,52,96,6
200704,note_off,,,,,512,0,7,,,48,0,6
200704,note_on,,,,,2048,0,8,,,47,96,7
200832,note_on,,,,,0,0,3,,,59,96,2
200832,note_off,,,,,2176,0,3,,,64,0,2
200960,note_on,,,,,0,0,3,,,60,96,2
200960,note_off,,,,,128,0,3,,,59,0,2
201088,note_on,,,,,0,0,3,,,62,96,2
201088,note_off,,,,,128,0,3,,,60,0,2
201216,note_off,,,,,1024,0,6,,,57,0,5
201216,note_on,,,,,0,0,6,,,56,96,5
201216,note_off,,,,,512,0,2,,,73,0,1
201216,note_on,,,,,0,0,2,,,72,96,1
201216,note_off,,,,,512,0,7,,,52,0,6
201216,note_on,,,,,0,0,3,,,64,96,2
201216,note_off,,,,,128,0,3,,,62,0,2
201472,note_on,,,,,0,0,3,,,62,96,2
201472,note_off,,,,,256,0,3,,,64,0,2
201728,note_on,,,,,0,0,8,,,45,96,7
201728,note_off,,,,,256,0,3,,,62,0,2
201728,note_off,,,,,1024,0,8,,,47,0,7
201728,note_off,,,,,512,0,6,,,56,0,5
201728,note_on,,,,,0,0,6,,,57,96,5
201728,note_off,,,,,512,0,2,,,72,0,1
201728,note_on,,,,,148480,0,5,,,61,96,4
201984,note_on,,,,,256,0,3,,,64,96,2
202240,note_on,,,,,0,0,3,,,69,96,2
202240,note_off,,,,,256,0,3,,,64,0,2
202240,note_off,,,,,512,0,5,,,61,0,4
202240,note_on,,,,,0,0,5,,,60,96,4
202752,note_off,,,,,512,0,5,,,60,0,4
202752,note_off,,,,,1024,0,6,,,57,0,5
202752,note_off,,,,,1024,0,8,,,45,0,7
202752,note_on,,,,,0,0,5,,,64,96,4
202752,note_on,,,,,0,0,8,,,52,96,7
202752,note_on,,,,,0,0,6,,,59,96,5
202880,note_on,,,,,202880,0,1,,,71,96,0
203008,note_on,,,,,0,0,1,,,72,96,0
203008,note_off,,,,,128,0,1,,,71,0,0
203136,note_off,,,,,128,0,1,,,72,0,0
203136,note_on,,,,,0,0,1,,,74,96,0
203264,note_on,,,,,0,0,1,,,76,96,0
203264,note_off,,,,,128,0,1,,,74,0,0
203264,note_on,,,,,0,0,3,,,68,96,2
203264,note_off,,,,,1024,0,3,,,69,0,2
203520,note_on,,,,,0,0,1,,,74,96,0
203520,note_off,,,,,256,0,1,,,76,0,0
203776,note_on,,,,,0,0,3,,,69,96,2
203776,note_off,,,,,512,0,3,,,68,0,2
203776,note_on,,,,,0,0,6,,,57,96,5
203776,note_off,,,,,1024,0,6,,,59,0,5
203776,note_off,,,,,256,0,1,,,74,0,0
204032,note_on,,,,,256,0,1,,,76,96,0
204288,note_off,,,,,256,0,1,,,76,0,0
204288,note_on,,,,,0,0,1,,,81,96,0
204544,note_off,,,,,256,0,1,,,81,0,0
204544,note_on,,,,,0,0,1,,,75,96,0
204800,note_on,,,,,0,0,1,,,76,96,0
204800,note_on,,,,,3072,0,2,,,72,96,1
204800,note_off,,,,,2048,0,5,,,64,0,4
204800,note_off,,,,,256,0,1,,,75,0,0
204928,note_off,,,,,1152,0,6,,,57,0,5
204928,note_on,,,,,0,0,6,,,59,96,5
205056,note_off,,,,,128,0,6,,,59,0,5
205056,note_on,,,,,0,0,6,,,60,96,5
205184,note_on,,,,,0,0,6,,,62,96,5
205184,note_off,,,,,128,0,6,,,60,0,5
205312,note_on,,,,,0,0,6,,,64,96,5
205312,note_off,,,,,128,0,6,,,62,0,5
205568,note_off,,,,,256,0,6,,,64,0,5
205568,note_on,,,,,0,0,6,,,59,96,5
205568,note_off,,,,,768,0,2,,,72,0,1
205568,note_on,,,,,0,0,2,,,74,96,1
205568,note_off,,,,,1792,0,3,,,69,0,2
205568,note_on,,,,,0,0,3,,,68,96,2
205824,note_on,,,,,0,0,2,,,72,96,1
205824,note_off,,,,,256,0,6,,,59,0,5
205824,note_on,,,,,0,0,6,,,60,96,5
205824,note_off,,,,,256,0,3,,,68,0,2
205824,note_on,,,,,0,0,3,,,69,96,2
205824,note_off,,,,,256,0,2,,,74,0,1
206080,note_off,,,,,256,0,6,,,60,0,5
206080,note_on,,,,,0,0,6,,,56,96,5
206336,note_off,,,,,256,0,6,,,56,0,5
206336,note_on,,,,,0,0,6,,,57,96,5
206592,note_on,,,,,5376,0,7,,,51,96,6
206848,note_off,,,,,256,0,7,,,51,0,6
206848,note_on,,,,,0,0,7,,,52,96,6
206976,note_off,,,,,1152,0,3,,,69,0,2
206976,note_on,,,,,0,0,3,,,68,96,2
207104,note_on,,,,,0,0,3,,,69,96,2
207104,note_off,,,,,128,0,3,,,68,0,2
207232,note_on,,,,,0,0,2,,,71,96,1
207232,note_off,,,,,1408,0,2,,,72,0,1
207360,note_on,,,,,0,0,2,,,72,96,1
207360,note_off,,,,,128,0,2,,,71,0,1
207616,note_off,,,,,512,0,3,,,69,0,2
207616,note_on,,,,,0,0,3,,,68,96,2
207872,note_off,,,,,256,0,3,,,68,0,2
207872,note_on,,,,,0,0,3,,,69,96,2
208128,note_on,,,,,3328,0,5,,,63,96,4
208384,note_off,,,,,256,0,5,,,63,0,4
208384,note_on,,,,,0,0,5,,,64,96,4
208640,note_on,,,,,0,0,1,,,75,96,0
208640,note_off,,,,,3840,0,1,,,76,0,0
208896,note_on,,,,,0,0,2,,,71,96,1
208896,note_on,,,,,0,0,3,,,68,96,2
208896,note_on,,,,,0,0,1,,,76,96,0
208896,note_off,,,,,256,0,1,,,75,0,0
208896,note_on,,,,,0,0,6,,,59,96,5
208896,note_off,,,,,1536,0,2,,,72,0,1
208896,note_off,,,,,1024,0,3,,,69,0,2
208896,note_off,,,,,2560,0,6,,,57,0,5
212992,note_off,,,,,10240,0,8,,,40,0,7
212992,note_off,,,,,4096,0,1,,,76,0,0
212992,end_of_track,,,,,0,1,7,,,,,
212992,note_off,,,,,6144,0,7,,,52,0,6
212992,note_off,,,,,4096,0,6,,,59,0,5
212992,end_of_track,,,,,0,1,6,,,,,
212992,note_off,,,,,0,0,8,,,52,0,7
212992,note_off,,,,,4096,0,3,,,68,0,2
212992,end_of_track,,,,,0,1,3,,,,,
212992,end_of_track,,,,,0,1,5,,,,,
212992,note_off,,,,,4608,0,5,,,64,0,4
212992,end_of_track,,,,,24576,1,4,,,,,
212992,end_of_track,,,,,0,1,2,,,,,
212992,note_off,,,,,4096,0,2,,,71,0,1
212992,end_of_track,,,,,0,1,1,,,,,
212992,end_of_track,,,,,212992,1,0,,,,,
212992,end_of_track,,,,,0,1,8,,,,,
