tick,type,numerator,denominator,clocks_per_click,notated_32nd_notes_per_beat,time,meta,track,key,tempo,note,velocity,channel
0,time_signature,12,8,36,8,0,1,0,,,,,
0,track_name,,,,,0,1,4,,,,,
0,track_name,,,,,0,1,5,,,,,
0,track_name,,,,,0,1,6,,,,,
0,track_name,,,,,0,1,7,,,,,
0,track_name,,,,,0,1,2,,,,,
0,track_name,,,,,0,1,3,,,,,
0,track_name,,,,,0,1,1,,,,,
0,key_signature,,,,,0,1,0,C,,,,
0,set_tempo,,,,,0,1,0,,800000,,,
4608,note_on,,,,,4608,0,3,,,67,96,2
4608,note_on,,,,,4608,0,2,,,67,96,1
5120,note_on,,,,,5120,0,6,,,59,96,5
5120,note_on,,,,,5120,0,5,,,62,96,4
5376,note_off,,,,,256,0,6,,,59,0,5
5376,note_on,,,,,0,0,6,,,57,96,5
5376,note_on,,,,,0,0,5,,,60,96,4
5376,note_off,,,,,256,0,5,,,62,0,4
5632,note_on,,,,,0,0,6,,,59,96,5
5632,note_on,,,,,0,0,5,,,62,96,4
5632,note_off,,,,,256,0,5,,,60,0,4
5632,note_on,,,,,5632,0,7,,,55,96,6
5632,note_off,,,,,256,0,6,,,57,0,5
6144,note_off,,,,,512,0,7,,,55,0,6
6144,note_off,,,,,512,0,5,,,62,0,4
6144,note_on,,,,,0,0,5,,,64,96,4
6144,note_off,,,,,1536,0,2,,,67,0,1
6144,note_on,,,,,0,0,2,,,69,96,1
6144,note_on,,,,,0,0,3,,,69,96,2
6144,note_off,,,,,1536,0,3,,,67,0,2
6144,note_off,,,,,512,0,6,,,59,0,5
6144,note_on,,,,,0,0,6,,,60,96,5
6656,note_off,,,,,512,0,6,,,60,0,5
6656,note_off,,,,,512,0,5,,,64,0,4
6656,note_on,,,,,0,0,5,,,60,96,4
6656,note_on,,,,,0,0,6,,,57,96,5
7168,note_on,,,,,1024,0,7,,,53,96,6
7168,note_on,,,,,0,0,5,,,65,96,4
7168,note_off,,,,,512,0,5,,,60,0,4
7168,note_off,,,,,512,0,6,,,57,0,5
7168,note_on,,,,,0,0,6,,,62,96,5
7680,note_on,,,,,0,0,5,,,62,96,4
7680,note_off,,,,,1536,0,2,,,69,0,1
7680,note_off,,,,,512,0,6,,,62,0,5
7680,note_on,,,,,0,0,6,,,59,96,5
7680,note_off,,,,,512,0,7,,,53,0,6
7680,note_on,,,,,0,0,3,,,67,96,2
7680,note_off,,,,,1536,0,3,,,69,0,2
7680,note_off,,,,,512,0,5,,,65,0,4
7680,note_on,,,,,0,0,2,,,67,96,1
8192,note_off,,,,,512,0,6,,,59,0,5
8192,note_on,,,,,0,0,6,,,55,96,5
8192,note_on,,,,,0,0,5,,,59,96,4
8192,note_off,,,,,512,0,5,,,62,0,4
8704,note_on,,,,,0,0,5,,,64,96,4
8704,note_off,,,,,512,0,5,,,59,0,4
8704,note_on,,,,,0,0,6,,,60,96,5
8704,note_on,,,,,1024,0,7,,,52,96,6
8704,note_off,,,,,512,0,6,,,55,0,5
9216,note_off,,,,,1536,0,2,,,67,0,1
9216,note_on,,,,,0,0,6,,,57,96,5
9216,note_on,,,,,0,0,5,,,60,96,4
9216,note_off,,,,,512,0,5,,,64,0,4
9216,note_off,,,,,512,0,6,,,60,0,5
9216,note_on,,,,,0,0,2,,,65,96,1
9216,note_off,,,,,512,0,7,,,52,0,6
9216,note_on,,,,,0,0,3,,,65,96,2
9216,note_off,,,,,1536,0,3,,,67,0,2
9728,note_on,,,,,0,0,5,,,62,96,4
9728,note_off,,,,,512,0,6,,,57,0,5
9728,note_off,,,,,512,0,5,,,60,0,4
9728,note_on,,,,,0,0,6,,,59,96,5
9984,note_on,,,,,0,0,6,,,57,96,5
9984,note_off,,,,,256,0,5,,,62,0,4
9984,note_on,,,,,0,0,5,,,60,96,4
9984,note_off,,,,,256,0,6,,,59,0,5
10240,note_on,,,,,0,0,6,,,59,96,5
10240,note_on,,,,,0,0,5,,,62,96,4
10240,note_off,,,,,256,0,5,,,60,0,4
10240,note_on,,,,,1024,0,7,,,50,96,6
10240,note_off,,,,,256,0,6,,,57,0,5
10752,note_on,,,,,0,0,5,,,59,96,4
10752,note_off,,,,,512,0,6,,,59,0,5
10752,note_off,,,,,512,0,5,,,62,0,4
10752,note_on,,,,,0,0,3,,,67,96,2
10752,note_off,,,,,1536,0,3,,,65,0,2
10752,note_on,,,,,0,0,6,,,55,96,5
10752,note_on,,,,,0,0,2,,,67,96,1
10752,note_off,,,,,1536,0,2,,,65,0,1
10752,note_off,,,,,512,0,7,,,50,0,6
11264,note_off,,,,,512,0,5,,,59,0,4
11264,note_on,,,,,0,0,5,,,64,96,4
11264,note_off,,,,,512,0,6,,,55,0,5
11264,note_on,,,,,0,0,6,,,60,96,5
11520,note_off,,,,,256,0,5,,,64,0,4
11520,note_on,,,,,0,0,5,,,62,96,4
11520,note_off,,,,,256,0,6,,,60,0,5
11520,note_on,,,,,0,0,6,,,59,96,5
11776,note_off,,,,,256,0,5,,,62,0,4
11776,note_on,,,,,0,0,5,,,64,96,4
11776,note_off,,,,,256,0,6,,,59,0,5
11776,note_on,,,,,0,0,6,,,60,96,5
11776,note_on,,,,,1024,0,7,,,52,96,6
12288,note_off,,,,,512,0,6,,,60,0,5
12288,note_off,,,,,1536,0,2,,,67,0,1
12288,note_off,,,,,512,0,7,,,52,0,6
12288,note_off,,,,,1536,0,3,,,67,0,2
12288,note_on,,,,,0,0,2,,,72,96,1
12288,note_on,,,,,0,0,6,,,57,96,5
12288,note_on,,,,,0,0,3,,,72,96,2
12544,note_off,,,,,256,0,6,,,57,0,5
12544,note_on,,,,,0,0,6,,,55,96,5
12800,note_on,,,,,0,0,5,,,65,96,4
12800,note_off,,,,,256,0,6,,,55,0,5
12800,note_on,,,,,0,0,6,,,57,96,5
12800,note_off,,,,,1024,0,5,,,64,0,4
13056,note_on,,,,,0,0,5,,,67,96,4
13056,note_off,,,,,256,0,6,,,57,0,5
13056,note_on,,,,,0,0,6,,,59,96,5
13056,note_off,,,,,256,0,5,,,65,0,4
13312,note_off,,,,,256,0,5,,,67,0,4
13312,note_off,,,,,256,0,6,,,59,0,5
13312,note_on,,,,,0,0,6,,,60,96,5
13312,note_on,,,,,1024,0,7,,,53,96,6
13312,note_on,,,,,0,0,5,,,69,96,4
13568,note_on,,,,,0,0,5,,,67,96,4
13568,note_off,,,,,256,0,5,,,69,0,4
13824,note_on,,,,,0,0,3,,,74,96,2
13824,note_off,,,,,1536,0,3,,,72,0,2
13824,note_off,,,,,512,0,7,,,53,0,6
13824,note_off,,,,,1536,0,2,,,72,0,1
13824,note_on,,,,,0,0,2,,,74,96,1
13824,note_off,,,,,256,0,5,,,67,0,4
13824,note_on,,,,,0,0,5,,,65,96,4
14336,note_off,,,,,512,0,5,,,65,0,4
14336,note_on,,,,,0,0,5,,,62,96,4
14336,note_on,,,,,0,0,6,,,59,96,5
14336,note_off,,,,,1024,0,6,,,60,0,5
14592,note_on,,,,,0,0,6,,,57,96,5
14592,note_off,,,,,256,0,6,,,59,0,5
14848,note_off,,,,,512,0,5,,,62,0,4
14848,note_on,,,,,0,0,5,,,67,96,4
14848,note_off,,,,,256,0,6,,,57,0,5
14848,note_on,,,,,1024,0,7,,,55,96,6
14848,note_on,,,,,0,0,6,,,59,96,5
15360,note_off,,,,,512,0,6,,,59,0,5
15360,note_on,,,,,0,0,6,,,60,96,5
15360,note_off,,,,,1536,0,3,,,74,0,2
15360,note_off,,,,,1536,0,2,,,74,0,1
15360,note_on,,,,,0,0,7,,,48,96,6
15360,note_off,,,,,512,0,7,,,55,0,6
15360,note_on,,,,,0,0,3,,,72,96,2
15360,note_on,,,,,0,0,5,,,64,96,4
15360,note_off,,,,,512,0,5,,,67,0,4
15360,note_on,,,,,0,0,2,,,72,96,1
15872,note_off,,,,,512,0,6,,,60,0,5
15872,note_on,,,,,0,0,6,,,55,96,5
16128,note_off,,,,,256,0,6,,,55,0,5
16128,note_on,,,,,0,0,6,,,53,96,5
16384,note_on,,,,,0,0,6,,,55,96,5
16384,note_off,,,,,256,0,6,,,53,0,5
16896,note_off,,,,,1536,0,7,,,48,0,6
16896,note_off,,,,,1536,0,3,,,72,0,2
16896,note_off,,,,,512,0,6,,,55,0,5
16896,note_on,,,,,0,0,6,,,48,96,5
16896,note_on,,,,,0,0,3,,,72,96,2
16896,note_off,,,,,1536,0,2,,,72,0,1
16896,note_on,,,,,0,0,2,,,72,96,1
16896,note_off,,,,,1536,0,5,,,64,0,4
17408,note_on,,,,,512,0,5,,,67,96,4
17408,note_off,,,,,512,0,6,,,48,0,5
17408,note_on,,,,,0,0,6,,,64,96,5
17664,note_off,,,,,256,0,5,,,67,0,4
17664,note_on,,,,,0,0,5,,,65,96,4
17664,note_off,,,,,256,0,6,,,64,0,5
17664,note_on,,,,,0,0,6,,,62,96,5
17920,note_off,,,,,256,0,5,,,65,0,4
17920,note_on,,,,,1024,0,7,,,48,96,6
17920,note_on,,,,,0,0,5,,,67,96,4
17920,note_on,,,,,0,0,6,,,64,96,5
17920,note_off,,,,,256,0,6,,,62,0,5
18432,note_on,,,,,0,0,3,,,67,96,2
18432,note_off,,,,,1536,0,3,,,72,0,2
18432,note_off,,,,,512,0,5,,,67,0,4
18432,note_off,,,,,512,0,7,,,48,0,6
18432,note_on,,,,,0,0,2,,,67,96,1
18432,note_on,,,,,0,0,6,,,59,96,5
18432,note_on,,,,,0,0,5,,,62,96,4
18432,note_off,,,,,1536,0,2,,,72,0,1
18432,note_off,,,,,512,0,6,,,64,0,5
18944,note_off,,,,,512,0,6,,,59,0,5
18944,note_on,,,,,0,0,5,,,59,96,4
18944,note_off,,,,,512,0,5,,,62,0,4
18944,note_on,,,,,0,0,6,,,55,96,5
19456,note_on,,,,,1024,0,7,,,52,96,6
19456,note_on,,,,,0,0,6,,,60,96,5
19456,note_on,,,,,0,0,5,,,64,96,4
19456,note_off,,,,,512,0,5,,,59,0,4
19456,note_off,,,,,512,0,6,,,55,0,5
19968,note_off,,,,,512,0,5,,,64,0,4
19968,note_off,,,,,1536,0,2,,,67,0,1
19968,note_off,,,,,512,0,7,,,52,0,6
19968,note_on,,,,,0,0,2,,,69,96,1
19968,note_on,,,,,0,0,3,,,69,96,2
19968,note_on,,,,,0,0,5,,,60,96,4
19968,note_off,,,,,512,0,6,,,60,0,5
19968,note_on,,,,,0,0,6,,,53,96,5
19968,note_off,,,,,1536,0,3,,,67,0,2
20480,note_off,,,,,512,0,5,,,60,0,4
20480,note_on,,,,,0,0,5,,,65,96,4
20480,note_on,,,,,0,0,6,,,62,96,5
20480,note_off,,,,,512,0,6,,,53,0,5
20736,note_off,,,,,256,0,5,,,65,0,4
20736,note_on,,,,,0,0,5,,,64,96,4
20736,note_on,,,,,0,0,6,,,60,96,5
20736,note_off,,,,,256,0,6,,,62,0,5
20992,note_off,,,,,256,0,5,,,64,0,4
20992,note_on,,,,,0,0,5,,,65,96,4
20992,note_on,,,,,1024,0,7,,,50,96,6
20992,note_on,,,,,0,0,3,,,71,96,2
20992,note_off,,,,,1024,0,2,,,69,0,1
20992,note_on,,,,,0,0,2,,,71,96,1
20992,note_off,,,,,256,0,6,,,60,0,5
20992,note_off,,,,,1024,0,3,,,69,0,2
20992,note_on,,,,,0,0,6,,,62,96,5
21504,note_off,,,,,512,0,7,,,50,0,6
21504,note_on,,,,,0,0,5,,,67,96,4
21504,note_off,,,,,512,0,5,,,65,0,4
21504,note_off,,,,,512,0,6,,,62,0,5
21504,note_on,,,,,0,0,6,,,64,96,5
21504,note_off,,,,,512,0,3,,,71,0,2
21504,note_on,,,,,0,0,3,,,72,96,2
21504,note_on,,,,,0,0,2,,,72,96,1
21504,note_off,,,,,512,0,2,,,71,0,1
22016,note_on,,,,,0,0,6,,,52,96,5
22016,note_off,,,,,512,0,6,,,64,0,5
22016,note_off,,,,,512,0,5,,,67,0,4
22016,note_on,,,,,0,0,5,,,69,96,4
22272,note_on,,,,,0,0,5,,,67,96,4
22272,note_off,,,,,256,0,5,,,69,0,4
22528,note_on,,,,,1024,0,7,,,48,96,6
22528,note_on,,,,,0,0,6,,,57,96,5
22528,note_off,,,,,512,0,6,,,52,0,5
22528,note_on,,,,,0,0,5,,,65,96,4
22528,note_off,,,,,256,0,5,,,67,0,4
22784,note_on,,,,,0,0,5,,,64,96,4
22784,note_off,,,,,256,0,5,,,65,0,4
23040,note_on,,,,,0,0,6,,,53,96,5
23040,note_off,,,,,512,0,7,,,48,0,6
23040,note_off,,,,,256,0,5,,,64,0,4
23040,note_off,,,,,1536,0,3,,,72,0,2
23040,note_off,,,,,1536,0,2,,,72,0,1
23040,note_on,,,,,0,0,5,,,62,96,4
23040,note_off,,,,,512,0,6,,,57,0,5
23040,note_on,,,,,0,0,2,,,74,96,1
23040,note_on,,,,,0,0,3,,,74,96,2
23552,note_off,,,,,512,0,5,,,62,0,4
23552,note_off,,,,,512,0,6,,,53,0,5
23552,note_on,,,,,0,0,6,,,50,96,5
23552,note_on,,,,,0,0,5,,,67,96,4
23808,note_off,,,,,256,0,5,,,67,0,4
23808,note_on,,,,,0,0,5,,,65,96,4
24064,note_off,,,,,256,0,5,,,65,0,4
24064,note_off,,,,,512,0,6,,,50,0,5
24064,note_on,,,,,0,0,6,,,55,96,5
24064,note_on,,,,,1024,0,7,,,47,96,6
24064,note_on,,,,,0,0,5,,,67,96,4
24576,note_on,,,,,0,0,3,,,76,96,2
24576,note_on,,,,,0,0,6,,,48,96,5
24576,note_off,,,,,1536,0,2,,,74,0,1
24576,note_on,,,,,0,0,2,,,76,96,1
24576,note_off,,,,,1536,0,3,,,74,0,2
24576,note_off,,,,,512,0,7,,,47,0,6
24576,note_off,,,,,512,0,6,,,55,0,5
24832,note_off,,,,,256,0,6,,,48,0,5
24832,note_on,,,,,0,0,6,,,52,96,5
25088,note_off,,,,,1024,0,5,,,67,0,4
25088,note_on,,,,,0,0,5,,,64,96,4
25088,note_off,,,,,256,0,6,,,52,0,5
25088,note_on,,,,,0,0,6,,,55,96,5
25344,note_on,,,,,0,0,6,,,53,96,5
25344,note_off,,,,,256,0,6,,,55,0,5
25600,note_on,,,,,0,0,6,,,52,96,5
25600,note_off,,,,,256,0,6,,,53,0,5
25600,note_off,,,,,512,0,5,,,64,0,4
25600,note_on,,,,,1024,0,7,,,48,96,6
25600,note_on,,,,,0,0,5,,,67,96,4
25856,note_on,,,,,0,0,6,,,50,96,5
25856,note_off,,,,,256,0,6,,,52,0,5
26112,note_off,,,,,512,0,7,,,48,0,6
26112,note_on,,,,,0,0,2,,,76,96,1
26112,note_off,,,,,1536,0,2,,,76,0,1
26112,note_off,,,,,512,0,5,,,67,0,4
26112,note_on,,,,,0,0,6,,,52,96,5
26112,note_off,,,,,256,0,6,,,50,0,5
26112,note_off,,,,,1536,0,3,,,76,0,2
26112,note_on,,,,,0,0,3,,,76,96,2
26112,note_on,,,,,0,0,5,,,72,96,4
26368,note_off,,,,,256,0,5,,,72,0,4
26368,note_on,,,,,0,0,5,,,71,96,4
26624,note_on,,,,,0,0,6,,,48,96,5
26624,note_off,,,,,512,0,6,,,52,0,5
26624,note_off,,,,,256,0,5,,,71,0,4
26624,note_on,,,,,0,0,5,,,69,96,4
26880,note_on,,,,,0,0,5,,,67,96,4
26880,note_off,,,,,256,0,5,,,69,0,4
27136,note_on,,,,,1024,0,7,,,36,96,6
27136,note_on,,,,,0,0,5,,,69,96,4
27136,note_off,,,,,256,0,5,,,67,0,4
27136,note_off,,,,,512,0,6,,,48,0,5
27136,note_on,,,,,0,0,6,,,60,96,5
27392,note_off,,,,,256,0,5,,,69,0,4
27392,note_on,,,,,0,0,5,,,66,96,4
27648,note_off,,,,,1536,0,2,,,76,0,1
27648,note_on,,,,,0,0,7,,,43,96,6
27648,note_on,,,,,0,0,2,,,74,96,1
27648,note_on,,,,,0,0,3,,,74,96,2
27648,note_off,,,,,1536,0,3,,,76,0,2
27648,note_off,,,,,512,0,7,,,36,0,6
28160,note_on,,,,,0,0,6,,,59,96,5
28160,note_on,,,,,0,0,5,,,67,96,4
28160,note_off,,,,,768,0,5,,,66,0,4
28160,note_off,,,,,1024,0,6,,,60,0,5
28416,note_on,,,,,0,0,6,,,57,96,5
28416,note_off,,,,,256,0,5,,,67,0,4
28416,note_off,,,,,256,0,6,,,59,0,5
28416,note_on,,,,,0,0,5,,,66,96,4
28672,note_on,,,,,0,0,6,,,59,96,5
28672,note_off,,,,,256,0,6,,,57,0,5
28672,note_on,,,,,0,0,5,,,67,96,4
28672,note_off,,,,,256,0,5,,,66,0,4
28928,note_on,,,,,0,0,5,,,69,96,4
28928,note_off,,,,,256,0,5,,,67,0,4
29184,note_off,,,,,1536,0,7,,,43,0,6
29184,note_off,,,,,256,0,5,,,69,0,4
29184,note_on,,,,,0,0,2,,,74,96,1
29184,note_on,,,,,0,0,6,,,55,96,5
29184,note_off,,,,,1536,0,3,,,74,0,2
29184,note_on,,,,,0,0,3,,,74,96,2
29184,note_off,,,,,512,0,6,,,59,0,5
29184,note_on,,,,,0,0,5,,,71,96,4
29184,note_off,,,,,1536,0,2,,,74,0,1
29440,note_off,,,,,256,0,5,,,71,0,4
29440,note_on,,,,,0,0,5,,,69,96,4
29696,note_off,,,,,256,0,5,,,69,0,4
29696,note_on,,,,,0,0,5,,,67,96,4
29696,note_on,,,,,0,0,6,,,59,96,5
29696,note_off,,,,,512,0,6,,,55,0,5
29952,note_off,,,,,256,0,6,,,59,0,5
29952,note_on,,,,,0,0,6,,,57,96,5
29952,note_on,,,,,0,0,5,,,66,96,4
29952,note_off,,,,,256,0,5,,,67,0,4
30208,note_on,,,,,0,0,5,,,67,96,4
30208,note_off,,,,,256,0,5,,,66,0,4
30208,note_on,,,,,0,0,6,,,59,96,5
30208,note_off,,,,,256,0,6,,,57,0,5
30208,note_on,,,,,1024,0,7,,,43,96,6
30464,note_on,,,,,0,0,6,,,55,96,5
30464,note_off,,,,,256,0,6,,,59,0,5
30720,note_off,,,,,256,0,6,,,55,0,5
30720,note_on,,,,,0,0,6,,,48,96,5
30720,note_on,,,,,0,0,2,,,76,96,1
30720,note_on,,,,,0,0,3,,,76,96,2
30720,note_off,,,,,512,0,7,,,43,0,6
30720,note_off,,,,,1536,0,3,,,74,0,2
30720,note_off,,,,,1536,0,2,,,74,0,1
31232,note_on,,,,,0,0,5,,,67,96,4
31232,note_off,,,,,1024,0,5,,,67,0,4
31232,note_off,,,,,512,0,6,,,48,0,5
31232,note_on,,,,,0,0,6,,,60,96,5
31488,note_off,,,,,256,0,6,,,60,0,5
31488,note_on,,,,,0,0,6,,,59,96,5
31744,note_on,,,,,1024,0,7,,,48,96,6
31744,note_on,,,,,0,0,5,,,72,96,4
31744,note_off,,,,,512,0,5,,,67,0,4
31744,note_off,,,,,256,0,6,,,59,0,5
31744,note_on,,,,,0,0,6,,,60,96,5
32256,note_off,,,,,512,0,5,,,72,0,4
32256,note_on,,,,,0,0,5,,,67,96,4
32256,note_off,,,,,1536,0,2,,,76,0,1
32256,note_off,,,,,512,0,7,,,48,0,6
32256,note_off,,,,,512,0,6,,,60,0,5
32256,note_on,,,,,0,0,6,,,52,96,5
32256,note_on,,,,,0,0,2,,,72,96,1
32256,note_on,,,,,0,0,3,,,72,96,2
32256,note_off,,,,,1536,0,3,,,76,0,2
32768,note_off,,,,,512,0,5,,,67,0,4
32768,note_on,,,,,0,0,5,,,64,96,4
32768,note_off,,,,,512,0,6,,,52,0,5
32768,note_on,,,,,0,0,6,,,60,96,5
33024,note_on,,,,,0,0,6,,,59,96,5
33024,note_off,,,,,256,0,6,,,60,0,5
33280,note_off,,,,,256,0,6,,,59,0,5
33280,note_on,,,,,0,0,6,,,60,96,5
33280,note_on,,,,,0,0,5,,,67,96,4
33280,note_off,,,,,512,0,5,,,64,0,4
33280,note_on,,,,,1024,0,7,,,52,96,6
33792,note_off,,,,,512,0,6,,,60,0,5
33792,note_on,,,,,0,0,6,,,53,96,5
33792,note_off,,,,,512,0,7,,,52,0,6
33792,note_on,,,,,0,0,2,,,69,96,1
33792,note_off,,,,,1536,0,3,,,72,0,2
33792,note_on,,,,,0,0,3,,,69,96,2
33792,note_off,,,,,1536,0,2,,,72,0,1
34304,note_off,,,,,1024,0,5,,,67,0,4
34304,note_on,,,,,0,0,6,,,57,96,5
34304,note_on,,,,,0,0,5,,,65,96,4
34304,note_off,,,,,512,0,6,,,53,0,5
34560,note_on,,,,,0,0,5,,,64,96,4
34560,note_off,,,,,256,0,5,,,65,0,4
34816,note_on,,,,,1024,0,7,,,53,96,6
34816,note_on,,,,,0,0,6,,,62,96,5
34816,note_off,,,,,512,0,6,,,57,0,5
34816,note_on,,,,,0,0,5,,,65,96,4
34816,note_off,,,,,256,0,5,,,64,0,4
35328,note_on,,,,,0,0,6,,,59,96,5
35328,note_off,,,,,512,0,6,,,62,0,5
35328,note_off,,,,,1536,0,2,,,69,0,1
35328,note_off,,,,,512,0,7,,,53,0,6
35328,note_on,,,,,0,0,2,,,67,96,1
35328,note_on,,,,,0,0,3,,,67,96,2
35328,note_off,,,,,1536,0,3,,,69,0,2
35840,note_off,,,,,1024,0,5,,,65,0,4
35840,note_on,,,,,0,0,5,,,64,96,4
35840,note_off,,,,,512,0,6,,,59,0,5
35840,note_on,,,,,0,0,6,,,55,96,5
36096,note_on,,,,,0,0,5,,,62,96,4
36096,note_off,,,,,256,0,5,,,64,0,4
36352,note_on,,,,,1024,0,7,,,55,96,6
36352,note_on,,,,,0,0,5,,,64,96,4
36352,note_on,,,,,0,0,6,,,60,96,5
36352,note_off,,,,,512,0,6,,,55,0,5
36352,note_off,,,,,256,0,5,,,62,0,4
36864,note_off,,,,,512,0,5,,,64,0,4
36864,note_on,,,,,0,0,5,,,62,96,4
36864,note_on,,,,,0,0,3,,,71,96,2
36864,note_off,,,,,1536,0,3,,,67,0,2
36864,note_off,,,,,1536,0,2,,,67,0,1
36864,note_on,,,,,0,0,2,,,71,96,1
36864,note_off,,,,,512,0,6,,,60,0,5
36864,note_on,,,,,0,0,6,,,55,96,5
36864,note_off,,,,,512,0,7,,,55,0,6
37120,note_off,,,,,256,0,6,,,55,0,5
37120,note_on,,,,,0,0,6,,,57,96,5
37376,note_on,,,,,0,0,5,,,67,96,4
37376,note_off,,,,,512,0,5,,,62,0,4
37376,note_on,,,,,0,0,6,,,59,96,5
37376,note_off,,,,,256,0,6,,,57,0,5
37632,note_off,,,,,256,0,6,,,59,0,5
37632,note_on,,,,,0,0,6,,,60,96,5
37632,note_off,,,,,256,0,5,,,67,0,4
37632,note_on,,,,,0,0,5,,,66,96,4
37888,note_off,,,,,256,0,6,,,60,0,5
37888,note_on,,,,,1024,0,7,,,43,96,6
37888,note_off,,,,,256,0,5,,,66,0,4
37888,note_on,,,,,0,0,5,,,67,96,4
37888,note_on,,,,,0,0,6,,,62,96,5
38144,note_off,,,,,256,0,6,,,62,0,5
38144,note_on,,,,,0,0,6,,,59,96,5
38400,note_off,,,,,256,0,6,,,59,0,5
38400,note_on,,,,,0,0,6,,,64,96,5
38400,note_off,,,,,1536,0,2,,,71,0,1
38400,note_off,,,,,512,0,7,,,43,0,6
38400,note_off,,,,,1536,0,3,,,71,0,2
38400,note_on,,,,,0,0,3,,,73,96,2
38400,note_on,,,,,0,0,2,,,73,96,1
38656,note_off,,,,,256,0,6,,,64,0,5
38656,note_on,,,,,0,0,6,,,55,96,5
38912,note_off,,,,,1024,0,5,,,67,0,4
38912,note_off,,,,,256,0,6,,,55,0,5
38912,note_on,,,,,0,0,6,,,57,96,5
38912,note_on,,,,,0,0,5,,,67,96,4
39168,note_on,,,,,0,0,6,,,58,96,5
39168,note_off,,,,,256,0,6,,,57,0,5
39168,note_on,,,,,0,0,5,,,66,96,4
39168,note_off,,,,,256,0,5,,,67,0,4
39424,note_on,,,,,1024,0,7,,,40,96,6
39424,note_on,,,,,0,0,5,,,67,96,4
39424,note_off,,,,,256,0,5,,,66,0,4
39424,note_on,,,,,0,0,6,,,57,96,5
39424,note_off,,,,,256,0,6,,,58,0,5
39680,note_on,,,,,0,0,6,,,55,96,5
39680,note_off,,,,,256,0,6,,,57,0,5
39936,note_on,,,,,0,0,2,,,74,96,1
39936,note_on,,,,,0,0,3,,,74,96,2
39936,note_off,,,,,1536,0,3,,,73,0,2
39936,note_off,,,,,256,0,6,,,55,0,5
39936,note_on,,,,,0,0,7,,,38,96,6
39936,note_off,,,,,1536,0,2,,,73,0,1
39936,note_on,,,,,0,0,6,,,57,96,5
39936,note_off,,,,,512,0,7,,,40,0,6
40448,note_on,,,,,0,0,5,,,65,96,4
40448,note_on,,,,,0,0,6,,,50,96,5
40448,note_off,,,,,512,0,6,,,57,0,5
40448,note_off,,,,,1024,0,5,,,67,0,4
40704,note_off,,,,,256,0,5,,,65,0,4
40704,note_on,,,,,0,0,5,,,64,96,4
40960,note_off,,,,,256,0,5,,,64,0,4
40960,note_on,,,,,0,0,5,,,65,96,4
40960,note_off,,,,,512,0,6,,,50,0,5
40960,note_on,,,,,0,0,6,,,62,96,5
41472,note_on,,,,,0,0,6,,,59,96,5
41472,note_off,,,,,1536,0,7,,,38,0,6
41472,note_off,,,,,1536,0,2,,,74,0,1
41472,note_on,,,,,0,0,2,,,67,96,1
41472,note_off,,,,,512,0,6,,,62,0,5
41472,note_on,,,,,0,0,3,,,67,96,2
41472,note_off,,,,,1536,0,3,,,74,0,2
41984,note_off,,,,,512,0,6,,,59,0,5
41984,note_on,,,,,0,0,5,,,64,96,4
41984,note_off,,,,,1024,0,5,,,65,0,4
41984,note_on,,,,,0,0,6,,,55,96,5
42240,note_on,,,,,0,0,5,,,62,96,4
42240,note_off,,,,,256,0,5,,,64,0,4
42496,note_off,,,,,512,0,6,,,55,0,5
42496,note_on,,,,,1024,0,7,,,40,96,6
42496,note_off,,,,,256,0,5,,,62,0,4
42496,note_on,,,,,0,0,5,,,64,96,4
42496,note_on,,,,,0,0,6,,,60,96,5
43008,note_off,,,,,512,0,7,,,40,0,6
43008,note_off,,,,,1536,0,2,,,67,0,1
43008,note_on,,,,,0,0,3,,,72,96,2
43008,note_off,,,,,1536,0,3,,,67,0,2
43008,note_on,,,,,0,0,2,,,72,96,1
43008,note_on,,,,,0,0,6,,,48,96,5
43008,note_off,,,,,512,0,6,,,60,0,5
43264,note_on,,,,,0,0,6,,,52,96,5
43264,note_off,,,,,256,0,6,,,48,0,5
43520,note_off,,,,,256,0,6,,,52,0,5
43520,note_on,,,,,0,0,6,,,53,96,5
43520,note_on,,,,,0,0,5,,,60,96,4
43520,note_off,,,,,1024,0,5,,,64,0,4
43776,note_off,,,,,256,0,6,,,53,0,5
43776,note_on,,,,,0,0,6,,,55,96,5
44032,note_off,,,,,512,0,5,,,60,0,4
44032,note_off,,,,,256,0,6,,,55,0,5
44032,note_on,,,,,0,0,6,,,57,96,5
44032,note_on,,,,,1024,0,7,,,45,96,6
44032,note_on,,,,,0,0,5,,,65,96,4
44288,note_off,,,,,256,0,6,,,57,0,5
44288,note_on,,,,,0,0,6,,,58,96,5
44544,note_off,,,,,1536,0,3,,,72,0,2
44544,note_on,,,,,0,0,6,,,60,96,5
44544,note_off,,,,,512,0,7,,,45,0,6
44544,note_off,,,,,1536,0,2,,,72,0,1
44544,note_on,,,,,0,0,2,,,69,96,1
44544,note_on,,,,,0,0,3,,,69,96,2
44544,note_off,,,,,256,0,6,,,58,0,5
44800,note_off,,,,,256,0,6,,,60,0,5
44800,note_on,,,,,0,0,6,,,62,96,5
45056,note_on,,,,,0,0,5,,,64,96,4
45056,note_off,,,,,1024,0,5,,,65,0,4
45056,note_on,,,,,0,0,6,,,60,96,5
45056,note_off,,,,,256,0,6,,,62,0,5
45312,note_on,,,,,0,0,6,,,58,96,5
45312,note_off,,,,,256,0,6,,,60,0,5
45312,note_on,,,,,0,0,5,,,62,96,4
45312,note_off,,,,,256,0,5,,,64,0,4
45568,note_on,,,,,1024,0,7,,,49,96,6
45568,note_off,,,,,256,0,5,,,62,0,4
45568,note_on,,,,,0,0,5,,,64,96,4
45568,note_off,,,,,256,0,6,,,58,0,5
45568,note_on,,,,,0,0,6,,,57,96,5
46080,note_on,,,,,0,0,2,,,65,96,1
46080,note_off,,,,,512,0,7,,,49,0,6
46080,note_off,,,,,1536,0,2,,,69,0,1
46080,note_on,,,,,0,0,3,,,65,96,2
46080,note_off,,,,,1536,0,3,,,69,0,2
46336,note_off,,,,,768,0,6,,,57,0,5
46336,note_on,,,,,0,0,6,,,50,96,5
46592,note_off,,,,,256,0,6,,,50,0,5
46592,note_on,,,,,0,0,6,,,53,96,5
46592,note_on,,,,,0,0,5,,,62,96,4
46592,note_off,,,,,1024,0,5,,,64,0,4
46848,note_off,,,,,256,0,6,,,53,0,5
46848,note_on,,,,,0,0,5,,,61,96,4
46848,note_off,,,,,256,0,5,,,62,0,4
46848,note_on,,,,,0,0,6,,,57,96,5
47104,note_off,,,,,256,0,5,,,61,0,4
47104,note_on,,,,,0,0,5,,,62,96,4
47104,note_on,,,,,1024,0,7,,,50,96,6
47104,note_on,,,,,0,0,6,,,58,96,5
47104,note_off,,,,,256,0,6,,,57,0,5
47360,note_off,,,,,256,0,5,,,62,0,4
47360,note_on,,,,,0,0,5,,,64,96,4
47616,note_on,,,,,0,0,3,,,69,96,2
47616,note_off,,,,,1536,0,3,,,65,0,2
47616,note_on,,,,,0,0,5,,,65,96,4
47616,note_off,,,,,256,0,5,,,64,0,4
47616,note_on,,,,,0,0,2,,,69,96,1
47616,note_off,,,,,1536,0,2,,,65,0,1
47616,note_off,,,,,512,0,7,,,50,0,6
47616,note_off,,,,,512,0,6,,,58,0,5
47616,note_on,,,,,0,0,6,,,57,96,5
47872,note_off,,,,,256,0,5,,,65,0,4
47872,note_on,,,,,0,0,5,,,67,96,4
47872,note_on,,,,,0,0,6,,,49,96,5
47872,note_off,,,,,256,0,6,,,57,0,5
48128,note_on,,,,,0,0,6,,,50,96,5
48128,note_off,,,,,256,0,5,,,67,0,4
48128,note_on,,,,,0,0,5,,,65,96,4
48128,note_off,,,,,256,0,6,,,49,0,5
48384,note_on,,,,,0,0,6,,,52,96,5
48384,note_on,,,,,0,0,5,,,64,96,4
48384,note_off,,,,,256,0,5,,,65,0,4
48384,note_off,,,,,256,0,6,,,50,0,5
48640,note_on,,,,,0,0,5,,,62,96,4
48640,note_off,,,,,256,0,5,,,64,0,4
48640,note_on,,,,,0,0,6,,,53,96,5
48640,note_on,,,,,1024,0,7,,,45,96,6
48640,note_off,,,,,256,0,6,,,52,0,5
48896,note_on,,,,,0,0,5,,,60,96,4
48896,note_off,,,,,256,0,5,,,62,0,4
49152,note_on,,,,,0,0,5,,,59,96,4
49152,note_off,,,,,256,0,5,,,60,0,4
49152,note_off,,,,,1536,0,3,,,69,0,2
49152,note_on,,,,,0,0,3,,,67,96,2
49152,note_on,,,,,0,0,2,,,67,96,1
49152,note_off,,,,,1536,0,2,,,69,0,1
49152,note_off,,,,,512,0,7,,,45,0,6
49408,note_on,,,,,0,0,5,,,62,96,4
49408,note_off,,,,,256,0,5,,,59,0,4
49664,note_off,,,,,256,0,5,,,62,0,4
49664,note_on,,,,,0,0,6,,,52,96,5
49664,note_off,,,,,1024,0,6,,,53,0,5
49664,note_on,,,,,0,0,5,,,55,96,4
49920,note_on,,,,,0,0,6,,,50,96,5
49920,note_off,,,,,256,0,6,,,52,0,5
50176,note_on,,,,,0,0,5,,,60,96,4
50176,note_on,,,,,1024,0,7,,,48,96,6
50176,note_off,,,,,256,0,6,,,50,0,5
50176,note_on,,,,,0,0,6,,,52,96,5
50176,note_off,,,,,512,0,5,,,55,0,4
50432,note_off,,,,,256,0,6,,,52,0,5
50432,note_off,,,,,256,0,5,,,60,0,4
50432,note_on,,,,,0,0,5,,,62,96,4
50432,note_on,,,,,0,0,6,,,53,96,5
50688,note_on,,,,,0,0,6,,,55,96,5
50688,note_off,,,,,256,0,6,,,53,0,5
50688,note_off,,,,,512,0,7,,,48,0,6
50688,note_on,,,,,0,0,5,,,64,96,4
50688,note_off,,,,,256,0,5,,,62,0,4
50944,note_on,,,,,0,0,5,,,62,96,4
50944,note_off,,,,,256,0,5,,,64,0,4
51200,note_off,,,,,512,0,6,,,55,0,5
51200,note_on,,,,,0,0,6,,,48,96,5
51200,note_off,,,,,256,0,5,,,62,0,4
51200,note_on,,,,,0,0,5,,,64,96,4
51712,note_on,,,,,0,0,6,,,60,96,5
51712,note_on,,,,,1024,0,7,,,52,96,6
51712,note_off,,,,,512,0,6,,,48,0,5
51968,note_on,,,,,0,0,5,,,65,96,4
51968,note_off,,,,,768,0,5,,,64,0,4
52224,note_on,,,,,0,0,5,,,62,96,4
52224,note_off,,,,,256,0,5,,,65,0,4
52224,note_off,,,,,512,0,7,,,52,0,6
52224,note_on,,,,,0,0,3,,,67,96,2
52224,note_off,,,,,3072,0,3,,,67,0,2
52224,note_off,,,,,3072,0,2,,,67,0,1
52224,note_on,,,,,0,0,2,,,67,96,1
52224,note_on,,,,,0,0,7,,,55,96,6
52736,note_off,,,,,1024,0,6,,,60,0,5
52736,note_on,,,,,0,0,6,,,59,96,5
52992,note_off,,,,,768,0,2,,,67,0,1
52992,note_on,,,,,0,0,6,,,57,96,5
52992,note_off,,,,,256,0,6,,,59,0,5
52992,note_on,,,,,0,0,2,,,66,96,1
53248,note_off,,,,,256,0,2,,,66,0,1
53248,note_on,,,,,0,0,6,,,59,96,5
53248,note_off,,,,,1024,0,5,,,62,0,4
53248,note_off,,,,,256,0,6,,,57,0,5
53248,note_on,,,,,0,0,2,,,67,96,1
53504,note_on,,,,,0,0,6,,,60,96,5
53504,note_off,,,,,256,0,6,,,59,0,5
53504,note_off,,,,,256,0,2,,,67,0,1
53504,note_on,,,,,0,0,2,,,69,96,1
53760,note_off,,,,,256,0,2,,,69,0,1
53760,note_on,,,,,0,0,2,,,71,96,1
53760,note_off,,,,,1536,0,3,,,67,0,2
53760,note_off,,,,,256,0,6,,,60,0,5
53760,note_on,,,,,0,0,6,,,62,96,5
54016,note_off,,,,,256,0,2,,,71,0,1
54016,note_on,,,,,0,0,2,,,67,96,1
54016,note_on,,,,,0,0,6,,,59,96,5
54016,note_off,,,,,256,0,6,,,62,0,5
54272,note_off,,,,,256,0,2,,,67,0,1
54272,note_on,,,,,0,0,2,,,69,96,1
54272,note_on,,,,,0,0,6,,,60,96,5
54272,note_off,,,,,256,0,6,,,59,0,5
54528,note_off,,,,,256,0,6,,,60,0,5
54528,note_on,,,,,0,0,6,,,62,96,5
54528,note_off,,,,,256,0,2,,,69,0,1
54528,note_on,,,,,0,0,2,,,71,96,1
54784,note_on,,,,,0,0,2,,,72,96,1
54784,note_off,,,,,256,0,2,,,71,0,1
54784,note_off,,,,,256,0,6,,,62,0,5
54784,note_on,,,,,0,0,6,,,64,96,5
55040,note_off,,,,,256,0,6,,,64,0,5
55040,note_on,,,,,0,0,6,,,65,96,5
55040,note_off,,,,,256,0,2,,,72,0,1
55040,note_on,,,,,0,0,2,,,74,96,1
55296,note_off,,,,,256,0,6,,,65,0,5
55296,note_off,,,,,256,0,2,,,74,0,1
55296,note_on,,,,,0,0,6,,,67,96,5
55296,note_on,,,,,0,0,2,,,76,96,1
55552,note_on,,,,,2304,0,5,,,74,96,4
55808,note_on,,,,,0,0,5,,,72,96,4
55808,note_off,,,,,256,0,5,,,74,0,4
56064,note_on,,,,,0,0,5,,,71,96,4
56064,note_off,,,,,256,0,5,,,72,0,4
56320,note_on,,,,,0,0,5,,,72,96,4
56320,note_off,,,,,256,0,5,,,71,0,4
56576,note_off,,,,,1280,0,2,,,76,0,1
56576,note_on,,,,,0,0,2,,,76,96,1
56832,note_off,,,,,256,0,2,,,76,0,1
56832,note_on,,,,,0,0,2,,,74,96,1
57088,note_on,,,,,0,0,5,,,72,96,4
57088,note_off,,,,,768,0,5,,,72,0,4
57344,note_on,,,,,0,0,5,,,71,96,4
57344,note_off,,,,,256,0,5,,,72,0,4
57600,note_on,,,,,0,0,5,,,69,96,4
57600,note_off,,,,,256,0,5,,,71,0,4
57856,note_off,,,,,256,0,5,,,69,0,4
57856,note_on,,,,,0,0,5,,,71,96,4
58112,note_on,,,,,0,0,6,,,65,96,5
58112,note_off,,,,,2816,0,6,,,67,0,5
58368,note_on,,,,,0,0,6,,,64,96,5
58368,note_off,,,,,256,0,6,,,65,0,5
58368,note_on,,,,,58368,0,1,,,79,96,0
58624,note_off,,,,,1792,0,2,,,74,0,1
58624,note_on,,,,,0,0,2,,,71,96,1
58624,note_on,,,,,0,0,5,,,67,96,4
58624,note_off,,,,,768,0,5,,,71,0,4
58880,note_off,,,,,256,0,5,,,67,0,4
58880,note_on,,,,,0,0,5,,,69,96,4
58880,note_on,,,,,0,0,2,,,72,96,1
58880,note_off,,,,,256,0,2,,,71,0,1
59136,note_on,,,,,0,0,2,,,74,96,1
59136,note_off,,,,,256,0,5,,,69,0,4
59136,note_on,,,,,0,0,5,,,71,96,4
59136,note_off,,,,,256,0,2,,,72,0,1
59392,note_on,,,,,0,0,2,,,76,96,1
59392,note_off,,,,,256,0,2,,,74,0,1
59392,note_on,,,,,0,0,5,,,72,96,4
59392,note_off,,,,,256,0,5,,,71,0,4
59648,note_off,,,,,1280,0,1,,,79,0,0
59648,note_on,,,,,0,0,1,,,81,96,0
59904,note_on,,,,,0,0,5,,,65,96,4
59904,note_on,,,,,0,0,1,,,83,96,0
59904,note_off,,,,,256,0,1,,,81,0,0
59904,note_off,,,,,512,0,5,,,72,0,4
59904,note_off,,,,,512,0,2,,,76,0,1
59904,note_off,,,,,1536,0,6,,,64,0,5
59904,note_on,,,,,0,0,6,,,62,96,5
60160,note_on,,,,,256,0,2,,,81,96,1
60416,note_off,,,,,256,0,2,,,81,0,1
60416,note_on,,,,,0,0,2,,,79,96,1
60672,note_off,,,,,256,0,2,,,79,0,1
60672,note_on,,,,,0,0,2,,,77,96,1
60928,note_off,,,,,256,0,2,,,77,0,1
60928,note_on,,,,,0,0,2,,,76,96,1
61184,note_off,,,,,256,0,2,,,76,0,1
61184,note_on,,,,,0,0,2,,,74,96,1
61440,note_off,,,,,256,0,2,,,74,0,1
61440,note_on,,,,,0,0,2,,,76,96,1
61440,note_on,,,,,0,0,5,,,67,96,4
61440,note_on,,,,,0,0,6,,,60,96,5
61440,note_off,,,,,1536,0,6,,,62,0,5
61440,note_off,,,,,1536,0,1,,,83,0,0
61440,note_off,,,,,1536,0,5,,,65,0,4
61696,note_on,,,,,256,0,1,,,79,96,0
61952,note_on,,,,,0,0,1,,,84,96,0
61952,note_off,,,,,256,0,1,,,79,0,0
62208,note_off,,,,,256,0,1,,,84,0,0
62208,note_on,,,,,0,0,1,,,83,96,0
62208,note_off,,,,,768,0,6,,,60,0,5
62208,note_off,,,,,768,0,5,,,67,0,4
62208,note_on,,,,,0,0,5,,,67,96,4
62208,note_off,,,,,768,0,2,,,76,0,1
62464,note_off,,,,,256,0,1,,,83,0,0
62464,note_on,,,,,0,0,1,,,84,96,0
62464,note_off,,,,,256,0,5,,,67,0,4
62464,note_on,,,,,0,0,5,,,72,96,4
62720,note_off,,,,,256,0,5,,,72,0,4
62720,note_on,,,,,0,0,5,,,71,96,4
62720,note_off,,,,,256,0,1,,,84,0,0
62720,note_on,,,,,0,0,1,,,79,96,0
62976,note_off,,,,,256,0,1,,,79,0,0
62976,note_off,,,,,256,0,5,,,71,0,4
62976,note_on,,,,,768,0,2,,,76,96,1
62976,note_on,,,,,0,0,5,,,72,96,4
63232,note_off,,,,,256,0,2,,,76,0,1
63232,note_on,,,,,0,0,2,,,79,96,1
63232,note_off,,,,,256,0,5,,,72,0,4
63232,note_on,,,,,0,0,5,,,67,96,4
63488,note_off,,,,,256,0,2,,,79,0,1
63488,note_on,,,,,0,0,2,,,72,96,1
63488,note_off,,,,,256,0,5,,,67,0,4
63488,note_on,,,,,0,0,5,,,64,96,4
63744,note_on,,,,,0,0,2,,,76,96,1
63744,note_off,,,,,256,0,2,,,72,0,1
63744,note_on,,,,,0,0,5,,,67,96,4
63744,note_off,,,,,256,0,5,,,64,0,4
64000,note_on,,,,,0,0,2,,,74,96,1
64000,note_off,,,,,256,0,2,,,76,0,1
64000,note_on,,,,,0,0,5,,,65,96,4
64000,note_off,,,,,256,0,5,,,67,0,4
64256,note_on,,,,,0,0,5,,,64,96,4
64256,note_off,,,,,256,0,5,,,65,0,4
64256,note_on,,,,,0,0,2,,,72,96,1
64256,note_off,,,,,256,0,2,,,74,0,1
64512,note_on,,,,,0,0,2,,,74,96,1
64512,note_on,,,,,0,0,5,,,65,96,4
64512,note_off,,,,,256,0,2,,,72,0,1
64512,note_off,,,,,256,0,5,,,64,0,4
64768,note_off,,,,,256,0,2,,,74,0,1
64768,note_on,,,,,0,0,2,,,77,96,1
64768,note_off,,,,,256,0,5,,,65,0,4
64768,note_on,,,,,0,0,5,,,69,96,4
65024,note_off,,,,,256,0,2,,,77,0,1
65024,note_on,,,,,0,0,2,,,71,96,1
65024,note_off,,,,,256,0,5,,,69,0,4
65024,note_on,,,,,0,0,5,,,62,96,4
65280,note_off,,,,,256,0,5,,,62,0,4
65280,note_on,,,,,0,0,5,,,65,96,4
65280,note_on,,,,,0,0,2,,,74,96,1
65280,note_off,,,,,256,0,2,,,71,0,1
65536,note_on,,,,,0,0,2,,,72,96,1
65536,note_off,,,,,256,0,2,,,74,0,1
65536,note_on,,,,,0,0,5,,,64,96,4
65536,note_off,,,,,256,0,5,,,65,0,4
65792,note_on,,,,,0,0,2,,,71,96,1
65792,note_off,,,,,256,0,2,,,72,0,1
65792,note_on,,,,,0,0,5,,,62,96,4
65792,note_off,,,,,256,0,5,,,64,0,4
66048,note_on,,,,,0,0,2,,,72,96,1
66048,note_off,,,,,256,0,2,,,71,0,1
66048,note_on,,,,,0,0,5,,,64,96,4
66048,note_off,,,,,256,0,5,,,62,0,4
66304,note_off,,,,,256,0,2,,,72,0,1
66304,note_on,,,,,0,0,2,,,76,96,1
66304,note_off,,,,,256,0,5,,,64,0,4
66304,note_on,,,,,0,0,5,,,67,96,4
66560,note_off,,,,,256,0,2,,,76,0,1
66560,note_on,,,,,0,0,2,,,69,96,1
66560,note_off,,,,,256,0,5,,,67,0,4
66560,note_on,,,,,0,0,5,,,60,96,4
66816,note_off,,,,,256,0,5,,,60,0,4
66816,note_off,,,,,256,0,2,,,69,0,1
66816,note_on,,,,,0,0,2,,,72,96,1
66816,note_on,,,,,0,0,5,,,64,96,4
67072,note_off,,,,,256,0,5,,,64,0,4
67072,note_on,,,,,0,0,5,,,62,96,4
67072,note_off,,,,,256,0,2,,,72,0,1
67072,note_on,,,,,0,0,2,,,71,96,1
67328,note_on,,,,,0,0,5,,,60,96,4
67328,note_on,,,,,0,0,2,,,69,96,1
67328,note_off,,,,,256,0,5,,,62,0,4
67328,note_off,,,,,256,0,2,,,71,0,1
67584,note_on,,,,,0,0,2,,,71,96,1
67584,note_on,,,,,0,0,5,,,62,96,4
67584,note_off,,,,,256,0,5,,,60,0,4
67584,note_off,,,,,256,0,2,,,69,0,1
67840,note_on,,,,,67840,0,4,,,69,96,3
68096,note_off,,,,,256,0,4,,,69,0,3
68096,note_on,,,,,0,0,4,,,67,96,3
68352,note_on,,,,,0,0,4,,,65,96,3
68352,note_off,,,,,256,0,4,,,67,0,3
68608,note_on,,,,,0,0,4,,,64,96,3
68608,note_off,,,,,256,0,4,,,65,0,3
68864,note_off,,,,,1280,0,5,,,62,0,4
68864,note_on,,,,,0,0,5,,,62,96,4
69120,note_off,,,,,256,0,5,,,62,0,4
69120,note_on,,,,,0,0,5,,,60,96,4
69120,note_off,,,,,16896,0,7,,,55,0,6
69376,note_off,,,,,1792,0,2,,,71,0,1
69376,note_on,,,,,0,0,2,,,74,96,1
69632,note_on,,,,,0,0,2,,,72,96,1
69632,note_off,,,,,256,0,2,,,74,0,1
69888,note_off,,,,,256,0,2,,,72,0,1
69888,note_on,,,,,0,0,2,,,71,96,1
70144,note_on,,,,,0,0,2,,,69,96,1
70144,note_off,,,,,256,0,2,,,71,0,1
70400,note_off,,,,,256,0,2,,,69,0,1
70400,note_on,,,,,0,0,2,,,67,96,1
70656,note_off,,,,,2048,0,4,,,64,0,3
70656,note_on,,,,,0,0,2,,,66,96,1
70656,note_off,,,,,256,0,2,,,67,0,1
70912,note_on,,,,,256,0,4,,,64,96,3
71168,note_off,,,,,256,0,4,,,64,0,3
71168,note_on,,,,,0,0,4,,,62,96,3
71424,note_on,,,,,0,0,5,,,60,96,4
71424,note_off,,,,,2304,0,5,,,60,0,4
71680,note_on,,,,,0,0,5,,,59,96,4
71680,note_off,,,,,256,0,5,,,60,0,4
71936,note_on,,,,,0,0,5,,,57,96,4
71936,note_off,,,,,256,0,5,,,59,0,4
72192,note_off,,,,,1024,0,4,,,62,0,3
72192,note_off,,,,,1536,0,2,,,66,0,1
72192,note_off,,,,,256,0,5,,,57,0,4
72192,note_on,,,,,0,0,5,,,59,96,4
72448,note_on,,,,,256,0,4,,,62,96,3
72704,note_on,,,,,512,0,2,,,67,96,1
72960,note_off,,,,,768,0,5,,,59,0,4
72960,note_on,,,,,0,0,5,,,59,96,4
73216,note_off,,,,,768,0,4,,,62,0,3
73216,note_on,,,,,0,0,4,,,60,96,3
73216,note_on,,,,,0,0,5,,,57,96,4
73216,note_off,,,,,256,0,5,,,59,0,4
73472,note_on,,,,,0,0,2,,,65,96,1
73472,note_off,,,,,768,0,2,,,67,0,1
73728,note_on,,,,,11520,0,6,,,55,96,5
73728,note_off,,,,,512,0,5,,,57,0,4
73728,note_on,,,,,0,0,5,,,59,96,4
73728,note_off,,,,,512,0,4,,,60,0,3
73984,note_on,,,,,0,0,2,,,69,96,1
73984,note_off,,,,,512,0,2,,,65,0,1
74240,note_off,,,,,256,0,2,,,69,0,1
74240,note_on,,,,,0,0,2,,,67,96,1
74496,note_off,,,,,256,0,2,,,67,0,1
74496,note_on,,,,,0,0,2,,,65,96,1
74752,note_on,,,,,0,0,2,,,64,96,1
74752,note_off,,,,,256,0,2,,,65,0,1
75008,note_off,,,,,256,0,2,,,64,0,1
75008,note_on,,,,,0,0,2,,,62,96,1
75264,note_off,,,,,256,0,2,,,62,0,1
75264,note_on,,,,,0,0,2,,,64,96,1
75520,note_off,,,,,1792,0,5,,,59,0,4
75520,note_on,,,,,0,0,5,,,62,96,4
75776,note_off,,,,,256,0,5,,,62,0,4
75776,note_on,,,,,0,0,5,,,60,96,4
76032,note_on,,,,,0,0,5,,,59,96,4
76032,note_off,,,,,256,0,5,,,60,0,4
76288,note_on,,,,,0,0,5,,,60,96,4
76288,note_off,,,,,256,0,5,,,59,0,4
76544,note_off,,,,,1280,0,2,,,64,0,1
76544,note_on,,,,,0,0,2,,,64,96,1
76800,note_off,,,,,256,0,2,,,64,0,1
76800,note_on,,,,,0,0,2,,,62,96,1
77056,note_on,,,,,0,0,5,,,60,96,4
77056,note_off,,,,,768,0,5,,,60,0,4
77312,note_on,,,,,0,0,5,,,59,96,4
77312,note_off,,,,,256,0,5,,,60,0,4
77568,note_on,,,,,0,0,5,,,57,96,4
77568,note_off,,,,,256,0,5,,,59,0,4
77824,note_on,,,,,0,0,5,,,59,96,4
77824,note_off,,,,,256,0,5,,,57,0,4
78080,note_on,,,,,0,0,2,,,64,96,1
78080,note_off,,,,,1280,0,2,,,62,0,1
78336,note_on,,,,,0,0,5,,,57,96,4
78336,note_off,,,,,512,0,5,,,59,0,4
78336,note_off,,,,,256,0,2,,,64,0,1
78336,note_on,,,,,0,0,2,,,66,96,1
78592,note_off,,,,,256,0,5,,,57,0,4
78592,note_off,,,,,256,0,2,,,66,0,1
78592,note_on,,,,,0,0,2,,,67,96,1
78592,note_on,,,,,0,0,5,,,59,96,4
78848,note_on,,,,,0,0,5,,,60,96,4
78848,note_off,,,,,256,0,5,,,59,0,4
78848,note_off,,,,,256,0,2,,,67,0,1
78848,note_on,,,,,0,0,2,,,69,96,1
79104,note_on,,,,,0,0,2,,,71,96,1
79104,note_off,,,,,256,0,2,,,69,0,1
79104,note_off,,,,,256,0,5,,,60,0,4
79104,note_on,,,,,0,0,5,,,62,96,4
79360,note_on,,,,,0,0,2,,,72,96,1
79360,note_off,,,,,256,0,2,,,71,0,1
79360,note_off,,,,,256,0,5,,,62,0,4
79360,note_on,,,,,0,0,5,,,64,96,4
79616,note_on,,,,,0,0,5,,,60,96,4
79616,note_on,,,,,5888,0,4,,,66,96,3
79616,note_off,,,,,256,0,5,,,64,0,4
79872,note_on,,,,,10752,0,7,,,43,96,6
79872,note_on,,,,,0,0,5,,,62,96,4
79872,note_off,,,,,256,0,5,,,60,0,4
79872,note_on,,,,,0,0,4,,,67,96,3
79872,note_off,,,,,256,0,4,,,66,0,3
80128,note_off,,,,,768,0,2,,,72,0,1
80128,note_on,,,,,0,0,2,,,72,96,1
80384,note_off,,,,,256,0,2,,,72,0,1
80384,note_on,,,,,0,0,2,,,71,96,1
80640,note_off,,,,,256,0,2,,,71,0,1
80640,note_on,,,,,0,0,2,,,69,96,1
80896,note_off,,,,,256,0,2,,,69,0,1
80896,note_on,,,,,0,0,2,,,71,96,1
81152,note_on,,,,,0,0,2,,,72,96,1
81152,note_off,,,,,256,0,2,,,71,0,1
81408,note_on,,,,,0,0,4,,,71,96,3
81408,note_off,,,,,256,0,2,,,72,0,1
81408,note_on,,,,,0,0,2,,,74,96,1
81408,note_off,,,,,1536,0,5,,,62,0,4
81408,note_off,,,,,1536,0,4,,,67,0,3
81664,note_off,,,,,7936,0,6,,,55,0,5
81664,note_on,,,,,0,0,6,,,57,96,5
81664,note_on,,,,,0,0,2,,,72,96,1
81664,note_off,,,,,256,0,2,,,74,0,1
81920,note_off,,,,,256,0,2,,,72,0,1
81920,note_on,,,,,0,0,2,,,74,96,1
81920,note_off,,,,,256,0,6,,,57,0,5
81920,note_on,,,,,0,0,6,,,59,96,5
82176,note_on,,,,,0,0,6,,,60,96,5
82176,note_off,,,,,256,0,6,,,59,0,5
82176,note_on,,,,,0,0,2,,,76,96,1
82176,note_off,,,,,256,0,2,,,74,0,1
82432,note_on,,,,,0,0,2,,,78,96,1
82432,note_off,,,,,256,0,6,,,60,0,5
82432,note_off,,,,,256,0,2,,,76,0,1
82432,note_on,,,,,0,0,6,,,62,96,5
82688,note_off,,,,,256,0,2,,,78,0,1
82688,note_on,,,,,0,0,6,,,64,96,5
82688,note_off,,,,,256,0,6,,,62,0,5
82688,note_on,,,,,0,0,2,,,79,96,1
82944,note_on,,,,,0,0,7,,,45,96,6
82944,note_on,,,,,0,0,6,,,60,96,5
82944,note_off,,,,,256,0,6,,,64,0,5
82944,note_off,,,,,3072,0,7,,,43,0,6
82944,note_on,,,,,0,0,4,,,69,96,3
82944,note_off,,,,,1536,0,4,,,71,0,3
83200,note_off,,,,,256,0,6,,,60,0,5
83200,note_on,,,,,0,0,6,,,64,96,5
83456,note_on,,,,,0,0,2,,,72,96,1
83456,note_off,,,,,256,0,6,,,64,0,5
83456,note_on,,,,,0,0,6,,,57,96,5
83456,note_off,,,,,768,0,2,,,79,0,1
83712,note_off,,,,,256,0,6,,,57,0,5
83712,note_on,,,,,0,0,6,,,60,96,5
83968,note_on,,,,,0,0,2,,,77,96,1
83968,note_off,,,,,512,0,2,,,72,0,1
83968,note_on,,,,,0,0,6,,,59,96,5
83968,note_off,,,,,256,0,6,,,60,0,5
84224,note_off,,,,,256,0,6,,,59,0,5
84224,note_on,,,,,0,0,6,,,57,96,5
84480,note_off,,,,,1536,0,4,,,69,0,3
84480,note_off,,,,,256,0,6,,,57,0,5
84480,note_off,,,,,1536,0,7,,,45,0,6
84480,note_on,,,,,0,0,7,,,43,96,6
84480,note_on,,,,,0,0,6,,,59,96,5
84736,note_on,,,,,0,0,6,,,62,96,5
84736,note_off,,,,,256,0,6,,,59,0,5
84992,note_off,,,,,1024,0,2,,,77,0,1
84992,note_on,,,,,0,0,6,,,55,96,5
84992,note_off,,,,,256,0,6,,,62,0,5
84992,note_on,,,,,0,0,2,,,71,96,1
85248,note_on,,,,,0,0,6,,,59,96,5
85248,note_off,,,,,256,0,6,,,55,0,5
85504,note_on,,,,,0,0,6,,,57,96,5
85504,note_off,,,,,256,0,6,,,59,0,5
85504,note_off,,,,,512,0,2,,,71,0,1
85504,note_on,,,,,0,0,2,,,76,96,1
85760,note_off,,,,,256,0,6,,,57,0,5
85760,note_on,,,,,0,0,6,,,55,96,5
86016,note_on,,,,,0,0,7,,,41,96,6
86016,note_off,,,,,1536,0,7,,,43,0,6
86016,note_off,,,,,256,0,6,,,55,0,5
86016,note_on,,,,,0,0,6,,,57,96,5
86272,note_on,,,,,0,0,2,,,79,96,1
86272,note_off,,,,,768,0,2,,,76,0,1
86528,note_off,,,,,256,0,2,,,79,0,1
86528,note_on,,,,,2048,0,4,,,60,96,3
86528,note_on,,,,,0,0,2,,,77,96,1
86784,note_on,,,,,0,0,2,,,76,96,1
86784,note_off,,,,,256,0,2,,,77,0,1
87040,note_on,,,,,0,0,4,,,65,96,3
87040,note_off,,,,,512,0,4,,,60,0,3
87040,note_on,,,,,0,0,2,,,74,96,1
87040,note_off,,,,,256,0,2,,,76,0,1
87296,note_on,,,,,0,0,2,,,72,96,1
87296,note_off,,,,,256,0,2,,,74,0,1
87552,note_off,,,,,1536,0,6,,,57,0,5
87552,note_on,,,,,0,0,2,,,71,96,1
87552,note_off,,,,,256,0,2,,,72,0,1
87552,note_off,,,,,1536,0,7,,,41,0,6
87552,note_on,,,,,0,0,7,,,43,96,6
87552,note_on,,,,,0,0,6,,,55,96,5
87808,note_on,,,,,0,0,2,,,69,96,1
87808,note_off,,,,,256,0,2,,,71,0,1
88064,note_on,,,,,0,0,4,,,59,96,3
88064,note_off,,,,,1024,0,4,,,65,0,3
88064,note_on,,,,,0,0,2,,,67,96,1
88064,note_off,,,,,256,0,2,,,69,0,1
88320,note_off,,,,,256,0,2,,,67,0,1
88320,note_off,,,,,256,0,4,,,59,0,3
88320,note_on,,,,,0,0,4,,,62,96,3
88320,note_on,,,,,0,0,2,,,65,96,1
88576,note_off,,,,,256,0,2,,,65,0,1
88576,note_on,,,,,0,0,2,,,64,96,1
88576,note_off,,,,,256,0,4,,,62,0,3
88576,note_on,,,,,0,0,4,,,60,96,3
88832,note_off,,,,,256,0,2,,,64,0,1
88832,note_off,,,,,256,0,4,,,60,0,3
88832,note_on,,,,,0,0,4,,,59,96,3
88832,note_on,,,,,0,0,2,,,62,96,1
89088,note_off,,,,,256,0,2,,,62,0,1
89088,note_on,,,,,0,0,2,,,64,96,1
89088,note_on,,,,,0,0,7,,,48,96,6
89088,note_on,,,,,0,0,4,,,60,96,3
89088,note_off,,,,,256,0,4,,,59,0,3
89088,note_off,,,,,1536,0,7,,,43,0,6
89344,note_on,,,,,0,0,6,,,52,96,5
89344,note_off,,,,,1792,0,6,,,55,0,5
89344,note_on,,,,,0,0,2,,,67,96,1
89344,note_off,,,,,256,0,2,,,64,0,1
89600,note_off,,,,,256,0,2,,,67,0,1
89600,note_on,,,,,0,0,2,,,69,96,1
89600,note_on,,,,,0,0,6,,,53,96,5
89600,note_off,,,,,256,0,6,,,52,0,5
89856,note_on,,,,,0,0,6,,,55,96,5
89856,note_off,,,,,256,0,6,,,53,0,5
89856,note_off,,,,,256,0,2,,,69,0,1
89856,note_on,,,,,0,0,2,,,71,96,1
90112,note_off,,,,,256,0,2,,,71,0,1
90112,note_on,,,,,0,0,2,,,72,96,1
90112,note_off,,,,,256,0,6,,,55,0,5
90112,note_on,,,,,0,0,6,,,57,96,5
90368,note_on,,,,,0,0,4,,,64,96,3
90368,note_off,,,,,1280,0,4,,,60,0,3
90624,note_off,,,,,1536,0,7,,,48,0,6
90624,note_on,,,,,0,0,7,,,50,96,6
90624,note_on,,,,,0,0,4,,,65,96,3
90624,note_off,,,,,256,0,4,,,64,0,3
90880,note_off,,,,,768,0,2,,,72,0,1
90880,note_on,,,,,0,0,2,,,72,96,1
91136,note_on,,,,,0,0,2,,,71,96,1
91136,note_on,,,,,0,0,6,,,55,96,5
91136,note_off,,,,,1024,0,6,,,57,0,5
91136,note_off,,,,,256,0,2,,,72,0,1
91392,note_off,,,,,256,0,2,,,71,0,1
91392,note_on,,,,,0,0,2,,,69,96,1
91648,note_off,,,,,256,0,2,,,69,0,1
91648,note_off,,,,,512,0,6,,,55,0,5
91648,note_on,,,,,0,0,6,,,53,96,5
91648,note_on,,,,,0,0,2,,,71,96,1
91904,note_on,,,,,0,0,4,,,65,96,3
91904,note_off,,,,,1280,0,4,,,65,0,3
92160,note_on,,,,,0,0,7,,,48,96,6
92160,note_off,,,,,512,0,2,,,71,0,1
92160,note_on,,,,,0,0,2,,,72,96,1
92160,note_off,,,,,512,0,6,,,53,0,5
92160,note_on,,,,,0,0,6,,,55,96,5
92160,note_off,,,,,1536,0,7,,,50,0,6
92416,note_off,,,,,512,0,4,,,65,0,3
92416,note_on,,,,,0,0,4,,,65,96,3
92672,note_on,,,,,0,0,4,,,64,96,3
92672,note_off,,,,,256,0,4,,,65,0,3
92928,note_off,,,,,256,0,4,,,64,0,3
92928,note_on,,,,,0,0,4,,,62,96,3
93184,note_off,,,,,256,0,4,,,62,0,3
93184,note_on,,,,,0,0,4,,,64,96,3
93440,note_on,,,,,0,0,6,,,57,96,5
93440,note_off,,,,,1280,0,6,,,55,0,5
93696,note_on,,,,,0,0,6,,,58,96,5
93696,note_off,,,,,256,0,6,,,57,0,5
93952,note_off,,,,,768,0,4,,,64,0,3
93952,note_on,,,,,0,0,4,,,67,96,3
94208,note_off,,,,,256,0,4,,,67,0,3
94208,note_on,,,,,0,0,4,,,65,96,3
94464,note_off,,,,,256,0,4,,,65,0,3
94464,note_on,,,,,0,0,4,,,64,96,3
94720,note_off,,,,,256,0,4,,,64,0,3
94720,note_on,,,,,0,0,4,,,62,96,3
94976,note_on,,,,,0,0,4,,,60,96,3
94976,note_off,,,,,256,0,4,,,62,0,3
95232,note_off,,,,,3072,0,7,,,48,0,6
95232,note_on,,,,,0,0,4,,,65,96,3
95232,note_off,,,,,256,0,4,,,60,0,3
95488,note_off,,,,,1792,0,6,,,58,0,5
95488,note_on,,,,,0,0,6,,,58,96,5
95744,note_off,,,,,256,0,6,,,58,0,5
95744,note_on,,,,,0,0,6,,,57,96,5
96000,note_off,,,,,256,0,6,,,57,0,5
96000,note_on,,,,,0,0,6,,,55,96,5
96256,note_on,,,,,0,0,6,,,57,96,5
96256,note_off,,,,,256,0,6,,,55,0,5
96512,note_on,,,,,0,0,6,,,59,96,5
96512,note_off,,,,,256,0,6,,,57,0,5
96768,note_off,,,,,256,0,6,,,59,0,5
96768,note_on,,,,,0,0,6,,,60,96,5
97024,note_on,,,,,0,0,4,,,69,96,3
97024,note_off,,,,,1792,0,4,,,65,0,3
97280,note_off,,,,,256,0,4,,,69,0,3
97280,note_on,,,,,0,0,4,,,67,96,3
97536,note_on,,,,,0,0,4,,,65,96,3
97536,note_off,,,,,256,0,4,,,67,0,3
97792,note_off,,,,,256,0,4,,,65,0,3
97792,note_on,,,,,0,0,4,,,64,96,3
98048,note_off,,,,,256,0,4,,,64,0,3
98048,note_on,,,,,0,0,4,,,62,96,3
98304,note_on,,,,,0,0,4,,,64,96,3
98304,note_off,,,,,256,0,4,,,62,0,3
98560,note_off,,,,,1792,0,6,,,60,0,5
98560,note_on,,,,,0,0,6,,,62,96,5
98816,note_on,,,,,0,0,4,,,65,96,3
98816,note_off,,,,,512,0,4,,,64,0,3
98816,note_off,,,,,256,0,6,,,62,0,5
98816,note_on,,,,,0,0,6,,,60,96,5
99072,note_off,,,,,256,0,6,,,60,0,5
99072,note_on,,,,,0,0,6,,,58,96,5
99328,note_off,,,,,512,0,4,,,65,0,3
99328,note_off,,,,,256,0,6,,,58,0,5
99328,note_on,,,,,0,0,6,,,57,96,5
99328,note_on,,,,,0,0,4,,,67,96,3
99584,note_off,,,,,256,0,6,,,57,0,5
99584,note_on,,,,,0,0,6,,,55,96,5
99840,note_on,,,,,0,0,4,,,69,96,3
99840,note_off,,,,,256,0,6,,,55,0,5
99840,note_on,,,,,0,0,6,,,53,96,5
99840,note_off,,,,,512,0,4,,,67,0,3
100096,note_off,,,,,256,0,6,,,53,0,5
100096,note_on,,,,,0,0,6,,,55,96,5
100096,note_off,,,,,7936,0,2,,,72,0,1
100096,note_on,,,,,0,0,2,,,72,96,1
100352,note_off,,,,,256,0,2,,,72,0,1
100352,note_on,,,,,0,0,2,,,74,96,1
100352,note_on,,,,,0,0,6,,,53,96,5
100352,note_off,,,,,256,0,6,,,55,0,5
100608,note_off,,,,,256,0,6,,,53,0,5
100608,note_off,,,,,256,0,2,,,74,0,1
100608,note_on,,,,,0,0,2,,,76,96,1
100608,note_on,,,,,0,0,6,,,52,96,5
100864,note_off,,,,,256,0,2,,,76,0,1
100864,note_on,,,,,0,0,6,,,50,96,5
100864,note_off,,,,,256,0,6,,,52,0,5
100864,note_on,,,,,0,0,2,,,77,96,1
101120,note_on,,,,,0,0,6,,,55,96,5
101120,note_off,,,,,256,0,6,,,50,0,5
101120,note_off,,,,,1280,0,4,,,69,0,3
101120,note_on,,,,,0,0,4,,,71,96,3
101376,note_off,,,,,256,0,4,,,71,0,3
101376,note_off,,,,,256,0,6,,,55,0,5
101376,note_on,,,,,6144,0,7,,,48,96,6
101376,note_on,,,,,0,0,6,,,48,96,5
101376,note_on,,,,,0,0,4,,,72,96,3
101632,note_off,,,,,768,0,2,,,77,0,1
101632,note_on,,,,,0,0,2,,,81,96,1
101888,note_off,,,,,256,0,2,,,81,0,1
101888,note_off,,,,,512,0,6,,,48,0,5
101888,note_on,,,,,0,0,6,,,52,96,5
101888,note_on,,,,,0,0,2,,,79,96,1
102144,note_on,,,,,0,0,2,,,77,96,1
102144,note_off,,,,,256,0,2,,,79,0,1
102400,note_on,,,,,0,0,2,,,76,96,1
102400,note_on,,,,,0,0,6,,,55,96,5
102400,note_off,,,,,256,0,2,,,77,0,1
102400,note_off,,,,,512,0,6,,,52,0,5
102656,note_off,,,,,256,0,2,,,76,0,1
102656,note_on,,,,,0,0,2,,,74,96,1
102912,note_off,,,,,512,0,6,,,55,0,5
102912,note_on,,,,,0,0,2,,,76,96,1
102912,note_off,,,,,256,0,2,,,74,0,1
102912,note_on,,,,,0,0,6,,,60,96,5
102912,note_off,,,,,1536,0,4,,,72,0,3
103168,note_off,,,,,256,0,2,,,76,0,1
103168,note_on,,,,,0,0,2,,,79,96,1
103424,note_off,,,,,256,0,2,,,79,0,1
103424,note_on,,,,,0,0,2,,,77,96,1
103680,note_off,,,,,256,0,2,,,77,0,1
103680,note_on,,,,,0,0,2,,,76,96,1
103936,note_off,,,,,256,0,2,,,76,0,1
103936,note_on,,,,,0,0,2,,,74,96,1
104192,note_off,,,,,256,0,2,,,74,0,1
104192,note_on,,,,,0,0,2,,,72,96,1
104448,note_on,,,,,0,0,2,,,74,96,1
104448,note_off,,,,,256,0,2,,,72,0,1
104448,note_off,,,,,3072,0,7,,,48,0,6
104448,note_on,,,,,0,0,7,,,43,96,6
104704,note_on,,,,,0,0,6,,,60,96,5
104704,note_off,,,,,1792,0,6,,,60,0,5
104960,note_on,,,,,0,0,6,,,59,96,5
104960,note_off,,,,,256,0,6,,,60,0,5
104960,note_on,,,,,2048,0,4,,,62,96,3
105216,note_off,,,,,256,0,6,,,59,0,5
105216,note_on,,,,,0,0,6,,,57,96,5
105472,note_off,,,,,512,0,4,,,62,0,3
105472,note_on,,,,,0,0,6,,,59,96,5
105472,note_off,,,,,256,0,6,,,57,0,5
105472,note_on,,,,,0,0,4,,,67,96,3
105728,note_off,,,,,1280,0,2,,,74,0,1
105728,note_on,,,,,0,0,2,,,74,96,1
105984,note_off,,,,,1536,0,7,,,43,0,6
105984,note_on,,,,,0,0,2,,,72,96,1
105984,note_off,,,,,256,0,2,,,74,0,1
105984,note_on,,,,,0,0,7,,,45,96,6
105984,note_off,,,,,512,0,6,,,59,0,5
105984,note_on,,,,,0,0,6,,,60,96,5
106240,note_on,,,,,0,0,4,,,67,96,3
106240,note_off,,,,,768,0,4,,,67,0,3
106496,note_on,,,,,0,0,4,,,65,96,3
106496,note_off,,,,,256,0,4,,,67,0,3
106752,note_off,,,,,256,0,4,,,65,0,3
106752,note_on,,,,,0,0,4,,,64,96,3
107008,note_off,,,,,256,0,4,,,64,0,3
107008,note_on,,,,,0,0,4,,,65,96,3
107264,note_on,,,,,0,0,7,,,47,96,6
107264,note_off,,,,,1280,0,7,,,45,0,6
107520,note_on,,,,,0,0,7,,,48,96,6
107520,note_on,,,,,0,0,2,,,67,96,1
107520,note_off,,,,,1536,0,2,,,72,0,1
107520,note_off,,,,,256,0,7,,,47,0,6
107776,note_on,,,,,0,0,4,,,65,96,3
107776,note_off,,,,,768,0,4,,,65,0,3
108032,note_on,,,,,0,0,4,,,64,96,3
108032,note_off,,,,,256,0,4,,,65,0,3
108288,note_off,,,,,256,0,4,,,64,0,3
108288,note_on,,,,,0,0,4,,,62,96,3
108544,note_off,,,,,256,0,4,,,62,0,3
108544,note_on,,,,,0,0,4,,,64,96,3
108800,note_off,,,,,1280,0,2,,,67,0,1
108800,note_on,,,,,0,0,2,,,69,96,1
109056,note_on,,,,,0,0,4,,,65,96,3
109056,note_off,,,,,512,0,4,,,64,0,3
109056,note_off,,,,,256,0,2,,,69,0,1
109056,note_off,,,,,1536,0,7,,,48,0,6
109056,note_on,,,,,0,0,7,,,50,96,6
109056,note_off,,,,,3072,0,6,,,60,0,5
109056,note_on,,,,,0,0,2,,,71,96,1
109312,note_on,,,,,256,0,6,,,64,96,5
109568,note_off,,,,,256,0,6,,,64,0,5
109568,note_on,,,,,0,0,6,,,62,96,5
109824,note_off,,,,,256,0,6,,,62,0,5
109824,note_on,,,,,0,0,6,,,60,96,5
110080,note_off,,,,,256,0,6,,,60,0,5
110080,note_on,,,,,0,0,6,,,59,96,5
110336,note_off,,,,,256,0,6,,,59,0,5
110336,note_on,,,,,0,0,6,,,57,96,5
110592,note_off,,,,,1536,0,7,,,50,0,6
110592,note_on,,,,,0,0,7,,,52,96,6
110592,note_off,,,,,256,0,6,,,57,0,5
110592,note_on,,,,,0,0,4,,,67,96,3
110592,note_on,,,,,0,0,6,,,55,96,5
110592,note_off,,,,,1536,0,4,,,65,0,3
110848,note_off,,,,,1792,0,2,,,71,0,1
110848,note_on,,,,,0,0,2,,,71,96,1
111104,note_on,,,,,0,0,6,,,57,96,5
111104,note_off,,,,,512,0,6,,,55,0,5
111104,note_off,,,,,256,0,2,,,71,0,1
111104,note_on,,,,,0,0,2,,,73,96,1
111360,note_on,,,,,0,0,2,,,74,96,1
111360,note_off,,,,,256,0,2,,,73,0,1
111616,note_on,,,,,0,0,6,,,58,96,5
111616,note_off,,,,,512,0,6,,,57,0,5
111616,note_off,,,,,256,0,2,,,74,0,1
111616,note_on,,,,,0,0,2,,,76,96,1
111872,note_on,,,,,0,0,2,,,77,96,1
111872,note_off,,,,,256,0,2,,,76,0,1
112128,note_on,,,,,0,0,7,,,52,96,6
112128,note_off,,,,,1536,0,7,,,52,0,6
112128,note_off,,,,,512,0,6,,,58,0,5
112128,note_off,,,,,256,0,2,,,77,0,1
112128,note_on,,,,,0,0,2,,,73,96,1
112128,note_on,,,,,0,0,6,,,57,96,5
112384,note_on,,,,,0,0,4,,,70,96,3
112384,note_off,,,,,1792,0,4,,,67,0,3
112640,note_off,,,,,256,0,4,,,70,0,3
112640,note_on,,,,,0,0,4,,,69,96,3
112640,note_off,,,,,512,0,6,,,57,0,5
112640,note_on,,,,,0,0,6,,,58,96,5
112896,note_on,,,,,0,0,4,,,67,96,3
112896,note_off,,,,,256,0,4,,,69,0,3
113152,note_on,,,,,0,0,6,,,55,96,5
113152,note_off,,,,,512,0,6,,,58,0,5
113152,note_on,,,,,0,0,4,,,66,96,3
113152,note_off,,,,,256,0,4,,,67,0,3
113408,note_on,,,,,0,0,4,,,67,96,3
113408,note_off,,,,,256,0,4,,,66,0,3
113664,note_on,,,,,0,0,6,,,57,96,5
113664,note_off,,,,,512,0,6,,,55,0,5
113664,note_on,,,,,0,0,2,,,74,96,1
113664,note_off,,,,,1536,0,2,,,73,0,1
113664,note_off,,,,,1536,0,7,,,52,0,6
113664,note_on,,,,,0,0,7,,,50,96,6
113920,note_off,,,,,512,0,4,,,67,0,3
113920,note_on,,,,,0,0,4,,,67,96,3
114176,note_off,,,,,256,0,4,,,67,0,3
114176,note_on,,,,,0,0,4,,,66,96,3
114432,note_off,,,,,256,0,4,,,66,0,3
114432,note_on,,,,,0,0,4,,,64,96,3
114688,note_off,,,,,256,0,4,,,64,0,3
114688,note_on,,,,,0,0,4,,,66,96,3
114944,note_on,,,,,0,0,2,,,72,96,1
114944,note_off,,,,,1280,0,2,,,74,0,1
115200,note_off,,,,,256,0,2,,,72,0,1
115200,note_on,,,,,0,0,2,,,70,96,1
115456,note_on,,,,,0,0,4,,,62,96,3
115456,note_on,,,,,0,0,6,,,54,96,5
115456,note_off,,,,,768,0,4,,,66,0,3
115456,note_off,,,,,1792,0,6,,,57,0,5
115712,note_off,,,,,256,0,4,,,62,0,3
115712,note_on,,,,,0,0,4,,,64,96,3
115712,note_on,,,,,0,0,6,,,55,96,5
115712,note_off,,,,,256,0,6,,,54,0,5
115968,note_off,,,,,256,0,6,,,55,0,5
115968,note_off,,,,,256,0,4,,,64,0,3
115968,note_on,,,,,0,0,4,,,66,96,3
115968,note_on,,,,,0,0,6,,,57,96,5
116224,note_on,,,,,0,0,6,,,58,96,5
116224,note_off,,,,,256,0,6,,,57,0,5
116224,note_on,,,,,0,0,4,,,67,96,3
116224,note_off,,,,,256,0,4,,,66,0,3
116480,note_off,,,,,256,0,6,,,58,0,5
116480,note_on,,,,,0,0,6,,,60,96,5
116736,note_off,,,,,256,0,6,,,60,0,5
116736,note_on,,,,,0,0,6,,,62,96,5
116736,note_off,,,,,1536,0,2,,,70,0,1
116736,note_off,,,,,3072,0,7,,,50,0,6
116736,note_on,,,,,0,0,2,,,69,96,1
116992,note_off,,,,,768,0,4,,,67,0,3
116992,note_on,,,,,0,0,4,,,67,96,3
117248,note_off,,,,,256,0,4,,,67,0,3
117248,note_on,,,,,0,0,4,,,66,96,3
117504,note_off,,,,,256,0,4,,,66,0,3
117504,note_on,,,,,0,0,4,,,64,96,3
117760,note_on,,,,,0,0,4,,,65,96,3
117760,note_off,,,,,256,0,4,,,64,0,3
118016,note_off,,,,,1280,0,2,,,69,0,1
118016,note_on,,,,,0,0,2,,,70,96,1
118272,note_on,,,,,0,0,2,,,72,96,1
118272,note_off,,,,,256,0,2,,,70,0,1
118528,note_off,,,,,1792,0,6,,,62,0,5
118528,note_on,,,,,0,0,6,,,63,96,5
118784,note_off,,,,,256,0,6,,,63,0,5
118784,note_off,,,,,512,0,2,,,72,0,1
118784,note_on,,,,,0,0,6,,,62,96,5
118784,note_on,,,,,0,0,2,,,69,96,1
119040,note_off,,,,,256,0,6,,,62,0,5
119040,note_on,,,,,0,0,6,,,60,96,5
119296,note_off,,,,,256,0,6,,,60,0,5
119296,note_off,,,,,512,0,2,,,69,0,1
119296,note_on,,,,,0,0,2,,,74,96,1
119296,note_on,,,,,0,0,6,,,58,96,5
119552,note_off,,,,,256,0,6,,,58,0,5
119552,note_on,,,,,0,0,6,,,57,96,5
119808,note_off,,,,,256,0,6,,,57,0,5
119808,note_on,,,,,0,0,6,,,55,96,5
119808,note_on,,,,,0,0,2,,,71,96,1
119808,note_off,,,,,512,0,2,,,74,0,1
120064,note_on,,,,,0,0,6,,,57,96,5
120064,note_off,,,,,256,0,6,,,55,0,5
120320,note_on,,,,,0,0,4,,,62,96,3
120320,note_off,,,,,256,0,6,,,57,0,5
120320,note_on,,,,,0,0,6,,,55,96,5
120320,note_off,,,,,2560,0,4,,,65,0,3
120576,note_off,,,,,256,0,6,,,55,0,5
120576,note_on,,,,,0,0,6,,,53,96,5
120832,note_off,,,,,512,0,4,,,62,0,3
120832,note_on,,,,,0,0,4,,,67,96,3
120832,note_on,,,,,0,0,6,,,52,96,5
120832,note_off,,,,,256,0,6,,,53,0,5
121088,note_off,,,,,256,0,6,,,52,0,5
121088,note_on,,,,,0,0,6,,,50,96,5
121344,note_off,,,,,256,0,6,,,50,0,5
121344,note_on,,,,,0,0,6,,,49,96,5
121344,note_on,,,,,0,0,4,,,64,96,3
121344,note_off,,,,,512,0,4,,,67,0,3
121600,note_on,,,,,0,0,2,,,71,96,1
121600,note_off,,,,,1792,0,2,,,71,0,1
121856,note_on,,,,,0,0,2,,,69,96,1
121856,note_off,,,,,256,0,2,,,71,0,1
122112,note_on,,,,,0,0,2,,,67,96,1
122112,note_off,,,,,256,0,2,,,69,0,1
122368,note_on,,,,,0,0,2,,,66,96,1
122368,note_off,,,,,256,0,2,,,67,0,1
122624,note_on,,,,,0,0,2,,,67,96,1
122624,note_off,,,,,256,0,2,,,66,0,1
122880,note_on,,,,,6144,0,7,,,50,96,6
122880,note_off,,,,,1536,0,6,,,49,0,5
122880,note_on,,,,,0,0,6,,,50,96,5
122880,note_off,,,,,256,0,2,,,67,0,1
122880,note_on,,,,,0,0,2,,,66,96,1
123136,note_off,,,,,1792,0,4,,,64,0,3
123136,note_on,,,,,0,0,4,,,64,96,3
123392,note_off,,,,,256,0,4,,,64,0,3
123392,note_on,,,,,0,0,4,,,62,96,3
123648,note_off,,,,,256,0,4,,,62,0,3
123648,note_on,,,,,0,0,4,,,60,96,3
123904,note_off,,,,,256,0,4,,,60,0,3
123904,note_on,,,,,0,0,4,,,59,96,3
124160,note_off,,,,,256,0,4,,,59,0,3
124160,note_on,,,,,0,0,4,,,57,96,3
124416,note_on,,,,,0,0,2,,,67,96,1
124416,note_on,,,,,0,0,4,,,59,96,3
124416,note_off,,,,,256,0,4,,,57,0,3
124416,note_off,,,,,1536,0,6,,,50,0,5
124416,note_off,,,,,1536,0,2,,,66,0,1
124672,note_off,,,,,256,0,2,,,67,0,1
124672,note_on,,,,,0,0,2,,,62,96,1
124928,note_off,,,,,256,0,2,,,62,0,1
124928,note_on,,,,,0,0,2,,,67,96,1
125184,note_on,,,,,0,0,4,,,59,96,3
125184,note_off,,,,,768,0,4,,,59,0,3
125440,note_on,,,,,0,0,4,,,57,96,3
125440,note_off,,,,,256,0,4,,,59,0,3
125696,note_off,,,,,768,0,2,,,67,0,1
125696,note_on,,,,,0,0,2,,,66,96,1
125952,note_off,,,,,512,0,4,,,57,0,3
125952,note_on,,,,,0,0,4,,,55,96,3
125952,note_off,,,,,256,0,2,,,66,0,1
125952,note_on,,,,,0,0,2,,,67,96,1
125952,note_off,,,,,3072,0,7,,,50,0,6
125952,note_on,,,,,0,0,7,,,52,96,6
126208,note_on,,,,,1792,0,6,,,43,96,5
126464,note_on,,,,,0,0,6,,,45,96,5
126464,note_off,,,,,256,0,6,,,43,0,5
126720,note_off,,,,,256,0,6,,,45,0,5
126720,note_on,,,,,0,0,6,,,47,96,5
126976,note_off,,,,,256,0,6,,,47,0,5
126976,note_on,,,,,0,0,6,,,48,96,5
127232,note_off,,,,,256,0,6,,,48,0,5
127232,note_on,,,,,0,0,6,,,50,96,5
127488,note_on,,,,,0,0,7,,,48,96,6
127488,note_on,,,,,0,0,6,,,52,96,5
127488,note_off,,,,,256,0,6,,,50,0,5
127488,note_off,,,,,1536,0,4,,,55,0,3
127488,note_off,,,,,1536,0,7,,,52,0,6
127488,note_off,,,,,1536,0,2,,,67,0,1
127744,note_on,,,,,256,0,4,,,69,96,3
128000,note_on,,,,,0,0,4,,,67,96,3
128000,note_off,,,,,256,0,4,,,69,0,3
128256,note_on,,,,,0,0,4,,,65,96,3
128256,note_off,,,,,256,0,4,,,67,0,3
128512,note_on,,,,,0,0,4,,,64,96,3
128512,note_off,,,,,256,0,4,,,65,0,3
128768,note_on,,,,,0,0,4,,,62,96,3
128768,note_off,,,,,256,0,4,,,64,0,3
129024,note_off,,,,,1536,0,7,,,48,0,6
129024,note_on,,,,,0,0,4,,,60,96,3
129024,note_on,,,,,0,0,7,,,45,96,6
129024,note_off,,,,,256,0,4,,,62,0,3
129280,note_on,,,,,1792,0,2,,,71,96,1
129536,note_on,,,,,0,0,6,,,50,96,5
129536,note_off,,,,,256,0,2,,,71,0,1
129536,note_on,,,,,0,0,2,,,72,96,1
129536,note_off,,,,,2048,0,6,,,52,0,5
129792,note_off,,,,,256,0,2,,,72,0,1
129792,note_on,,,,,0,0,2,,,74,96,1
130048,note_on,,,,,0,0,6,,,48,96,5
130048,note_off,,,,,512,0,6,,,50,0,5
130048,note_off,,,,,256,0,2,,,74,0,1
130048,note_on,,,,,0,0,2,,,76,96,1
130304,note_off,,,,,256,0,2,,,76,0,1
130304,note_on,,,,,0,0,2,,,78,96,1
130560,note_off,,,,,256,0,2,,,78,0,1
130560,note_on,,,,,0,0,2,,,79,96,1
130560,note_off,,,,,1536,0,7,,,45,0,6
130560,note_on,,,,,0,0,7,,,43,96,6
130560,note_on,,,,,0,0,6,,,50,96,5
130560,note_off,,,,,512,0,6,,,48,0,5
130816,note_on,,,,,0,0,4,,,60,96,3
130816,note_off,,,,,1792,0,4,,,60,0,3
131072,note_off,,,,,256,0,4,,,60,0,3
131072,note_on,,,,,0,0,2,,,74,96,1
131072,note_off,,,,,512,0,2,,,79,0,1
131072,note_on,,,,,0,0,4,,,59,96,3
131328,note_on,,,,,0,0,4,,,57,96,3
131328,note_off,,,,,256,0,4,,,59,0,3
131584,note_off,,,,,256,0,4,,,57,0,3
131584,note_on,,,,,0,0,4,,,59,96,3
131584,note_off,,,,,512,0,2,,,74,0,1
131584,note_on,,,,,0,0,2,,,79,96,1
131840,note_on,,,,,0,0,4,,,60,96,3
131840,note_off,,,,,256,0,4,,,59,0,3
131840,note_on,,,,,0,0,7,,,45,96,6
131840,note_off,,,,,1280,0,7,,,43,0,6
132096,note_on,,,,,0,0,4,,,62,96,3
132096,note_off,,,,,256,0,4,,,60,0,3
132096,note_off,,,,,256,0,7,,,45,0,6
132096,note_on,,,,,0,0,7,,,47,96,6
132096,note_on,,,,,0,0,6,,,55,96,5
132096,note_off,,,,,1536,0,6,,,50,0,5
132352,note_off,,,,,768,0,2,,,79,0,1
132352,note_on,,,,,0,0,2,,,77,96,1
132608,note_off,,,,,256,0,2,,,77,0,1
132608,note_on,,,,,0,0,2,,,76,96,1
132864,note_on,,,,,0,0,2,,,74,96,1
132864,note_off,,,,,256,0,2,,,76,0,1
133120,note_off,,,,,256,0,2,,,74,0,1
133120,note_on,,,,,0,0,2,,,73,96,1
133376,note_off,,,,,256,0,2,,,73,0,1
133376,note_on,,,,,0,0,2,,,74,96,1
133632,note_on,,,,,0,0,7,,,49,96,6
133632,note_off,,,,,1536,0,7,,,47,0,6
133632,note_on,,,,,0,0,2,,,76,96,1
133632,note_off,,,,,256,0,2,,,74,0,1
133632,note_off,,,,,1536,0,4,,,62,0,3
133888,note_on,,,,,0,0,6,,,58,96,5
133888,note_off,,,,,1792,0,6,,,55,0,5
133888,note_on,,,,,0,0,2,,,77,96,1
133888,note_off,,,,,256,0,2,,,76,0,1
134144,note_off,,,,,256,0,2,,,77,0,1
134144,note_off,,,,,256,0,6,,,58,0,5
134144,note_on,,,,,0,0,2,,,79,96,1
134144,note_on,,,,,0,0,6,,,57,96,5
134400,note_off,,,,,256,0,2,,,79,0,1
134400,note_on,,,,,0,0,2,,,82,96,1
134400,note_on,,,,,0,0,6,,,55,96,5
134400,note_off,,,,,256,0,6,,,57,0,5
134656,note_off,,,,,256,0,6,,,55,0,5
134656,note_on,,,,,0,0,2,,,81,96,1
134656,note_on,,,,,0,0,6,,,53,96,5
134656,note_off,,,,,256,0,2,,,82,0,1
134912,note_on,,,,,0,0,2,,,79,96,1
134912,note_off,,,,,256,0,2,,,81,0,1
134912,note_on,,,,,0,0,6,,,52,96,5
134912,note_off,,,,,256,0,6,,,53,0,5
135168,note_off,,,,,256,0,6,,,52,0,5
135168,note_on,,,,,0,0,6,,,50,96,5
135168,note_off,,,,,256,0,2,,,79,0,1
135168,note_on,,,,,0,0,7,,,50,96,6
135168,note_off,,,,,1536,0,7,,,49,0,6
135168,note_on,,,,,0,0,2,,,77,96,1
135424,note_on,,,,,1792,0,4,,,76,96,3
135680,note_off,,,,,512,0,6,,,50,0,5
135680,note_on,,,,,0,0,6,,,57,96,5
135680,note_on,,,,,0,0,4,,,74,96,3
135680,note_off,,,,,256,0,4,,,76,0,3
135936,note_off,,,,,256,0,4,,,74,0,3
135936,note_on,,,,,0,0,4,,,72,96,3
136192,note_on,,,,,0,0,6,,,62,96,5
136192,note_off,,,,,512,0,6,,,57,0,5
136192,note_off,,,,,256,0,4,,,72,0,3
136192,note_on,,,,,0,0,4,,,70,96,3
136448,note_off,,,,,256,0,4,,,70,0,3
136448,note_on,,,,,0,0,4,,,69,96,3
136704,note_off,,,,,512,0,6,,,62,0,5
136704,note_off,,,,,256,0,4,,,69,0,3
136704,note_on,,,,,0,0,6,,,55,96,5
136704,note_on,,,,,0,0,4,,,70,96,3
136960,note_off,,,,,1792,0,2,,,77,0,1
136960,note_on,,,,,0,0,2,,,77,96,1
137216,note_on,,,,,0,0,2,,,76,96,1
137216,note_off,,,,,256,0,2,,,77,0,1
137472,note_off,,,,,256,0,2,,,76,0,1
137472,note_on,,,,,0,0,2,,,74,96,1
137472,note_on,,,,,0,0,6,,,67,96,5
137472,note_off,,,,,768,0,6,,,55,0,5
137728,note_on,,,,,0,0,6,,,65,96,5
137728,note_off,,,,,256,0,6,,,67,0,5
137728,note_off,,,,,256,0,2,,,74,0,1
137728,note_on,,,,,0,0,2,,,76,96,1
137984,note_on,,,,,0,0,6,,,64,96,5
137984,note_off,,,,,256,0,6,,,65,0,5
138240,note_on,,,,,0,0,4,,,69,96,3
138240,note_off,,,,,1536,0,4,,,70,0,3
138240,note_off,,,,,3072,0,7,,,50,0,6
138240,note_on,,,,,0,0,6,,,65,96,5
138240,note_off,,,,,256,0,6,,,64,0,5
138496,note_on,,,,,0,0,2,,,79,96,1
138496,note_off,,,,,768,0,2,,,76,0,1
138496,note_off,,,,,256,0,6,,,65,0,5
138496,note_on,,,,,0,0,6,,,64,96,5
138752,note_on,,,,,0,0,6,,,62,96,5
138752,note_off,,,,,256,0,2,,,79,0,1
138752,note_on,,,,,0,0,2,,,77,96,1
138752,note_off,,,,,256,0,6,,,64,0,5
139008,note_off,,,,,256,0,6,,,62,0,5
139008,note_on,,,,,0,0,6,,,64,96,5
139008,note_on,,,,,0,0,2,,,76,96,1
139008,note_off,,,,,256,0,2,,,77,0,1
139264,note_off,,,,,256,0,6,,,64,0,5
139264,note_on,,,,,0,0,6,,,65,96,5
139264,note_on,,,,,0,0,2,,,74,96,1
139264,note_off,,,,,256,0,2,,,76,0,1
139520,note_off,,,,,256,0,2,,,74,0,1
139520,note_on,,,,,0,0,2,,,72,96,1
139776,note_off,,,,,256,0,2,,,72,0,1
139776,note_on,,,,,0,0,2,,,71,96,1
139776,note_on,,,,,0,0,4,,,67,96,3
139776,note_off,,,,,1536,0,4,,,69,0,3
140032,note_on,,,,,0,0,2,,,74,96,1
140032,note_off,,,,,256,0,2,,,71,0,1
140288,note_on,,,,,0,0,6,,,64,96,5
140288,note_off,,,,,256,0,2,,,74,0,1
140288,note_off,,,,,1024,0,6,,,65,0,5
140288,note_on,,,,,0,0,2,,,76,96,1
140544,note_off,,,,,256,0,2,,,76,0,1
140544,note_on,,,,,0,0,4,,,69,96,3
140544,note_off,,,,,768,0,4,,,67,0,3
140544,note_on,,,,,0,0,2,,,77,96,1
140800,note_on,,,,,0,0,4,,,71,96,3
140800,note_on,,,,,0,0,2,,,79,96,1
140800,note_off,,,,,256,0,2,,,77,0,1
140800,note_off,,,,,256,0,4,,,69,0,3
141056,note_off,,,,,256,0,4,,,71,0,3
141056,note_on,,,,,0,0,4,,,73,96,3
141312,note_on,,,,,0,0,6,,,62,96,5
141312,note_off,,,,,1024,0,6,,,64,0,5
141312,note_off,,,,,256,0,4,,,73,0,3
141312,note_on,,,,,0,0,4,,,74,96,3
141568,note_off,,,,,768,0,2,,,79,0,1
141568,note_on,,,,,0,0,6,,,61,96,5
141568,note_off,,,,,256,0,6,,,62,0,5
141568,note_on,,,,,0,0,2,,,82,96,1
141824,note_on,,,,,0,0,6,,,62,96,5
141824,note_off,,,,,256,0,6,,,61,0,5
141824,note_off,,,,,256,0,2,,,82,0,1
141824,note_on,,,,,0,0,2,,,81,96,1
142080,note_on,,,,,0,0,6,,,64,96,5
142080,note_off,,,,,256,0,6,,,62,0,5
142080,note_off,,,,,256,0,2,,,81,0,1
142080,note_on,,,,,0,0,2,,,79,96,1
142336,note_off,,,,,256,0,2,,,79,0,1
142336,note_off,,,,,256,0,6,,,64,0,5
142336,note_on,,,,,0,0,6,,,65,96,5
142336,note_on,,,,,0,0,2,,,77,96,1
142592,note_on,,,,,0,0,2,,,76,96,1
142592,note_on,,,,,0,0,6,,,67,96,5
142592,note_off,,,,,256,0,6,,,65,0,5
142592,note_off,,,,,256,0,2,,,77,0,1
142848,note_on,,,,,0,0,6,,,69,96,5
142848,note_off,,,,,256,0,6,,,67,0,5
142848,note_off,,,,,256,0,2,,,76,0,1
142848,note_on,,,,,0,0,2,,,77,96,1
143104,note_on,,,,,0,0,4,,,76,96,3
143104,note_off,,,,,1792,0,4,,,74,0,3
143104,note_on,,,,,0,0,6,,,67,96,5
143104,note_off,,,,,256,0,6,,,69,0,5
143360,note_off,,,,,256,0,4,,,76,0,3
143360,note_on,,,,,0,0,6,,,65,96,5
143360,note_on,,,,,0,0,4,,,74,96,3
143360,note_off,,,,,256,0,6,,,67,0,5
143616,note_on,,,,,0,0,6,,,64,96,5
143616,note_off,,,,,256,0,6,,,65,0,5
143616,note_off,,,,,256,0,4,,,74,0,3
143616,note_on,,,,,0,0,4,,,72,96,3
143872,note_off,,,,,256,0,6,,,64,0,5
143872,note_on,,,,,0,0,6,,,62,96,5
143872,note_off,,,,,256,0,4,,,72,0,3
143872,note_on,,,,,0,0,4,,,71,96,3
144128,note_on,,,,,0,0,6,,,60,96,5
144128,note_off,,,,,256,0,6,,,62,0,5
144128,note_off,,,,,256,0,4,,,71,0,3
144128,note_on,,,,,0,0,4,,,69,96,3
144384,note_off,,,,,256,0,4,,,69,0,3
144384,note_off,,,,,256,0,6,,,60,0,5
144384,note_on,,,,,0,0,6,,,59,96,5
144384,note_on,,,,,0,0,4,,,67,96,3
144384,note_on,,,,,6144,0,7,,,43,96,6
144640,note_off,,,,,256,0,6,,,59,0,5
144640,note_on,,,,,0,0,6,,,57,96,5
144640,note_off,,,,,1792,0,2,,,77,0,1
144640,note_on,,,,,0,0,2,,,79,96,1
144896,note_off,,,,,256,0,6,,,57,0,5
144896,note_on,,,,,0,0,6,,,59,96,5
144896,note_off,,,,,256,0,2,,,79,0,1
144896,note_on,,,,,0,0,2,,,77,96,1
145152,note_off,,,,,256,0,2,,,77,0,1
145152,note_on,,,,,0,0,2,,,76,96,1
145152,note_on,,,,,0,0,6,,,60,96,5
145152,note_off,,,,,256,0,6,,,59,0,5
145408,note_off,,,,,256,0,2,,,76,0,1
145408,note_on,,,,,0,0,2,,,74,96,1
145408,note_off,,,,,256,0,6,,,60,0,5
145408,note_on,,,,,0,0,6,,,62,96,5
145664,note_off,,,,,256,0,2,,,74,0,1
145664,note_on,,,,,0,0,2,,,72,96,1
145664,note_off,,,,,256,0,6,,,62,0,5
145664,note_on,,,,,0,0,6,,,64,96,5
145920,note_off,,,,,256,0,6,,,64,0,5
145920,note_on,,,,,0,0,6,,,65,96,5
145920,note_off,,,,,1536,0,4,,,67,0,3
145920,note_on,,,,,0,0,2,,,71,96,1
145920,note_off,,,,,256,0,2,,,72,0,1
146176,note_on,,,,,0,0,6,,,64,96,5
146176,note_on,,,,,0,0,2,,,72,96,1
146176,note_off,,,,,256,0,6,,,65,0,5
146176,note_off,,,,,256,0,2,,,71,0,1
146432,note_on,,,,,0,0,6,,,62,96,5
146432,note_off,,,,,256,0,6,,,64,0,5
146432,note_off,,,,,256,0,2,,,72,0,1
146432,note_on,,,,,0,0,2,,,71,96,1
146688,note_off,,,,,256,0,6,,,62,0,5
146688,note_off,,,,,256,0,2,,,71,0,1
146688,note_on,,,,,0,0,2,,,69,96,1
146688,note_on,,,,,0,0,6,,,60,96,5
146944,note_off,,,,,256,0,6,,,60,0,5
146944,note_on,,,,,0,0,2,,,67,96,1
146944,note_on,,,,,0,0,6,,,59,96,5
146944,note_off,,,,,256,0,2,,,69,0,1
147200,note_on,,,,,0,0,6,,,57,96,5
147200,note_off,,,,,256,0,6,,,59,0,5
147200,note_on,,,,,0,0,2,,,65,96,1
147200,note_off,,,,,256,0,2,,,67,0,1
147456,note_off,,,,,256,0,6,,,57,0,5
147456,note_off,,,,,3072,0,7,,,43,0,6
147456,note_on,,,,,0,0,7,,,48,96,6
147456,note_on,,,,,0,0,6,,,55,96,5
147456,note_off,,,,,256,0,2,,,65,0,1
147456,note_on,,,,,0,0,2,,,64,96,1
147712,note_off,,,,,256,0,6,,,55,0,5
147712,note_on,,,,,0,0,6,,,57,96,5
147968,note_off,,,,,256,0,6,,,57,0,5
147968,note_on,,,,,0,0,6,,,55,96,5
148224,note_off,,,,,256,0,6,,,55,0,5
148224,note_on,,,,,0,0,6,,,53,96,5
148480,note_on,,,,,0,0,6,,,52,96,5
148480,note_off,,,,,256,0,6,,,53,0,5
148736,note_off,,,,,256,0,6,,,52,0,5
148736,note_on,,,,,0,0,6,,,50,96,5
148992,note_off,,,,,256,0,6,,,50,0,5
148992,note_on,,,,,0,0,6,,,48,96,5
148992,note_off,,,,,1536,0,7,,,48,0,6
148992,note_on,,,,,0,0,7,,,45,96,6
149248,note_on,,,,,0,0,2,,,60,96,1
149248,note_off,,,,,1792,0,2,,,64,0,1
149248,note_on,,,,,67840,0,5,,,52,96,4
149504,note_off,,,,,256,0,2,,,60,0,1
149504,note_on,,,,,0,0,5,,,53,96,4
149504,note_off,,,,,256,0,5,,,52,0,4
149504,note_on,,,,,0,0,2,,,62,96,1
149760,note_off,,,,,256,0,2,,,62,0,1
149760,note_on,,,,,0,0,2,,,64,96,1
149760,note_on,,,,,0,0,5,,,55,96,4
149760,note_off,,,,,256,0,5,,,53,0,4
150016,note_off,,,,,256,0,2,,,64,0,1
150016,note_on,,,,,0,0,2,,,65,96,1
150016,note_off,,,,,256,0,5,,,55,0,4
150016,note_on,,,,,0,0,5,,,57,96,4
150272,note_off,,,,,256,0,5,,,57,0,4
150272,note_on,,,,,0,0,5,,,58,96,4
150272,note_off,,,,,256,0,2,,,65,0,1
150272,note_on,,,,,0,0,2,,,67,96,1
150528,note_on,,,,,0,0,7,,,41,96,6
150528,note_off,,,,,1536,0,7,,,45,0,6
150528,note_off,,,,,256,0,2,,,67,0,1
150528,note_on,,,,,0,0,2,,,69,96,1
150528,note_on,,,,,0,0,5,,,60,96,4
150528,note_off,,,,,256,0,5,,,58,0,4
150784,note_off,,,,,256,0,2,,,69,0,1
150784,note_on,,,,,0,0,2,,,67,96,1
151040,note_on,,,,,0,0,5,,,57,96,4
151040,note_off,,,,,512,0,5,,,60,0,4
151040,note_on,,,,,0,0,2,,,65,96,1
151040,note_off,,,,,256,0,2,,,67,0,1
151296,note_on,,,,,0,0,2,,,67,96,1
151296,note_off,,,,,256,0,2,,,65,0,1
151552,note_off,,,,,512,0,5,,,57,0,4
151552,note_on,,,,,0,0,5,,,53,96,4
151552,note_off,,,,,256,0,2,,,67,0,1
151552,note_on,,,,,0,0,2,,,69,96,1
151808,note_on,,,,,0,0,7,,,43,96,6
151808,note_off,,,,,1280,0,7,,,41,0,6
151808,note_off,,,,,256,0,2,,,69,0,1
151808,note_on,,,,,0,0,2,,,71,96,1
152064,note_on,,,,,0,0,5,,,52,96,4
152064,note_on,,,,,0,0,7,,,45,96,6
152064,note_off,,,,,256,0,7,,,43,0,6
152064,note_off,,,,,256,0,2,,,71,0,1
152064,note_on,,,,,0,0,2,,,72,96,1
152064,note_off,,,,,512,0,5,,,53,0,4
152320,note_on,,,,,0,0,2,,,71,96,1
152320,note_off,,,,,256,0,2,,,72,0,1
152576,note_off,,,,,256,0,2,,,71,0,1
152576,note_on,,,,,0,0,2,,,69,96,1
152576,note_off,,,,,512,0,5,,,52,0,4
152576,note_on,,,,,0,0,5,,,55,96,4
152832,note_off,,,,,256,0,2,,,69,0,1
152832,note_on,,,,,0,0,2,,,71,96,1
153088,note_off,,,,,256,0,2,,,71,0,1
153088,note_on,,,,,0,0,2,,,72,96,1
153088,note_off,,,,,512,0,5,,,55,0,4
153088,note_on,,,,,0,0,5,,,54,96,4
153344,note_off,,,,,256,0,2,,,72,0,1
153344,note_on,,,,,0,0,2,,,74,96,1
153600,note_off,,,,,512,0,5,,,54,0,4
153600,note_on,,,,,0,0,5,,,55,96,4
153600,note_on,,,,,0,0,2,,,75,96,1
153600,note_off,,,,,256,0,2,,,74,0,1
153600,note_off,,,,,1536,0,7,,,45,0,6
153600,note_on,,,,,0,0,7,,,43,96,6
153856,note_on,,,,,0,0,6,,,47,96,5
153856,note_off,,,,,4864,0,6,,,48,0,5
153856,note_off,,,,,256,0,5,,,55,0,4
153856,note_on,,,,,0,0,5,,,74,96,4
154112,note_off,,,,,256,0,5,,,74,0,4
154112,note_on,,,,,0,0,6,,,48,96,5
154112,note_off,,,,,256,0,6,,,47,0,5
154112,note_on,,,,,0,0,5,,,72,96,4
154368,note_off,,,,,256,0,5,,,72,0,4
154368,note_off,,,,,256,0,6,,,48,0,5
154368,note_on,,,,,0,0,6,,,50,96,5
154368,note_on,,,,,0,0,5,,,71,96,4
154624,note_off,,,,,256,0,5,,,71,0,4
154624,note_on,,,,,0,0,5,,,72,96,4
154624,note_on,,,,,0,0,6,,,51,96,5
154624,note_off,,,,,256,0,6,,,50,0,5
154880,note_off,,,,,1280,0,2,,,75,0,1
154880,note_on,,,,,0,0,6,,,53,96,5
154880,note_on,,,,,0,0,2,,,75,96,1
154880,note_off,,,,,256,0,6,,,51,0,5
155136,note_off,,,,,256,0,2,,,75,0,1
155136,note_off,,,,,256,0,6,,,53,0,5
155136,note_on,,,,,0,0,6,,,55,96,5
155136,note_on,,,,,0,0,2,,,74,96,1
155392,note_off,,,,,256,0,6,,,55,0,5
155392,note_on,,,,,0,0,6,,,57,96,5
155392,note_off,,,,,768,0,5,,,72,0,4
155392,note_on,,,,,0,0,5,,,72,96,4
155648,note_off,,,,,256,0,6,,,57,0,5
155648,note_on,,,,,0,0,6,,,59,96,5
155648,note_off,,,,,256,0,5,,,72,0,4
155648,note_on,,,,,0,0,5,,,71,96,4
155904,note_off,,,,,256,0,6,,,59,0,5
155904,note_off,,,,,256,0,5,,,71,0,4
155904,note_on,,,,,0,0,5,,,69,96,4
155904,note_on,,,,,0,0,6,,,60,96,5
156160,note_on,,,,,0,0,5,,,71,96,4
156160,note_off,,,,,256,0,5,,,69,0,4
156160,note_off,,,,,256,0,6,,,60,0,5
156160,note_on,,,,,0,0,6,,,62,96,5
156416,note_on,,,,,0,0,2,,,74,96,1
156416,note_off,,,,,1280,0,2,,,74,0,1
156416,note_off,,,,,256,0,6,,,62,0,5
156416,note_on,,,,,0,0,6,,,55,96,5
156672,note_on,,,,,0,0,5,,,67,96,4
156672,note_on,,,,,0,0,6,,,63,96,5
156672,note_off,,,,,512,0,5,,,71,0,4
156672,note_off,,,,,256,0,6,,,55,0,5
156928,note_off,,,,,512,0,2,,,74,0,1
156928,note_on,,,,,0,0,2,,,74,96,1
157184,note_on,,,,,0,0,2,,,72,96,1
157184,note_off,,,,,256,0,2,,,74,0,1
157440,note_off,,,,,256,0,2,,,72,0,1
157440,note_on,,,,,0,0,2,,,71,96,1
157696,note_on,,,,,0,0,2,,,72,96,1
157696,note_off,,,,,256,0,2,,,71,0,1
157952,note_off,,,,,1280,0,6,,,63,0,5
157952,note_on,,,,,0,0,6,,,63,96,5
158208,note_off,,,,,256,0,6,,,63,0,5
158208,note_on,,,,,0,0,6,,,62,96,5
158464,note_on,,,,,0,0,2,,,72,96,1
158464,note_off,,,,,768,0,2,,,72,0,1
158720,note_on,,,,,0,0,2,,,71,96,1
158720,note_off,,,,,256,0,2,,,72,0,1
158976,note_off,,,,,256,0,2,,,71,0,1
158976,note_on,,,,,0,0,2,,,69,96,1
159232,note_off,,,,,256,0,2,,,69,0,1
159232,note_on,,,,,0,0,2,,,71,96,1
159232,note_on,,,,,13312,0,4,,,71,96,3
159488,note_off,,,,,256,0,2,,,71,0,1
159488,note_on,,,,,0,0,2,,,74,96,1
159744,note_off,,,,,6144,0,7,,,43,0,6
159744,note_on,,,,,0,0,7,,,43,96,6
159744,note_on,,,,,96768,0,1,,,79,96,0
160000,note_on,,,,,0,0,6,,,65,96,5
160000,note_off,,,,,1792,0,6,,,62,0,5
160256,note_on,,,,,0,0,6,,,64,96,5
160256,note_off,,,,,256,0,6,,,65,0,5
160256,note_off,,,,,768,0,2,,,74,0,1
160256,note_on,,,,,0,0,2,,,77,96,1
160512,note_on,,,,,0,0,6,,,62,96,5
160512,note_off,,,,,256,0,6,,,64,0,5
160768,note_off,,,,,256,0,6,,,62,0,5
160768,note_on,,,,,0,0,6,,,64,96,5
160768,note_on,,,,,0,0,4,,,72,96,3
160768,note_off,,,,,512,0,2,,,77,0,1
160768,note_off,,,,,1536,0,4,,,71,0,3
160768,note_on,,,,,0,0,5,,,70,96,4
160768,note_off,,,,,4096,0,5,,,67,0,4
160768,note_on,,,,,0,0,2,,,76,96,1
161024,note_off,,,,,256,0,6,,,64,0,5
161024,note_on,,,,,0,0,6,,,67,96,5
161280,note_on,,,,,0,0,6,,,66,96,5
161280,note_off,,,,,256,0,6,,,67,0,5
161536,note_off,,,,,256,0,6,,,66,0,5
161536,note_on,,,,,0,0,6,,,64,96,5
161792,note_off,,,,,1024,0,5,,,70,0,4
161792,note_on,,,,,0,0,4,,,72,96,3
161792,note_off,,,,,1024,0,4,,,72,0,3
161792,note_off,,,,,1024,0,2,,,76,0,1
161792,note_on,,,,,0,0,2,,,75,96,1
161792,note_on,,,,,0,0,5,,,69,96,4
161792,note_on,,,,,0,0,6,,,66,96,5
161792,note_off,,,,,256,0,6,,,64,0,5
162048,note_on,,,,,0,0,6,,,69,96,5
162048,note_off,,,,,256,0,6,,,66,0,5
162304,note_off,,,,,256,0,6,,,69,0,5
162304,note_on,,,,,0,0,6,,,67,96,5
162560,note_off,,,,,256,0,6,,,67,0,5
162560,note_on,,,,,0,0,6,,,66,96,5
162816,note_off,,,,,1024,0,5,,,69,0,4
162816,note_off,,,,,256,0,6,,,66,0,5
162816,note_on,,,,,0,0,5,,,67,96,4
162816,note_on,,,,,0,0,2,,,74,96,1
162816,note_off,,,,,1024,0,2,,,75,0,1
162816,note_on,,,,,0,0,6,,,67,96,5
163072,note_off,,,,,1280,0,4,,,72,0,3
163072,note_on,,,,,0,0,4,,,72,96,3
163328,note_off,,,,,512,0,6,,,67,0,5
163328,note_on,,,,,0,0,6,,,62,96,5
163328,note_on,,,,,0,0,4,,,71,96,3
163328,note_off,,,,,256,0,4,,,72,0,3
163584,note_off,,,,,256,0,4,,,71,0,3
163584,note_on,,,,,0,0,4,,,69,96,3
163840,note_off,,,,,256,0,4,,,69,0,3
163840,note_on,,,,,0,0,4,,,71,96,3
163840,note_off,,,,,512,0,6,,,62,0,5
163840,note_on,,,,,0,0,6,,,55,96,5
168960,note_off,,,,,9216,0,1,,,79,0,0
168960,end_of_track,,,,,0,1,1,,,,,
168960,end_of_track,,,,,168960,1,0,,,,,
168960,end_of_track,,,,,0,1,2,,,,,
168960,end_of_track,,,,,0,1,5,,,,,
168960,end_of_track,,,,,0,1,6,,,,,
168960,note_off,,,,,5120,0,6,,,55,0,5
168960,end_of_track,,,,,115200,1,3,,,,,
168960,note_off,,,,,9216,0,7,,,43,0,6
168960,end_of_track,,,,,0,1,4,,,,,
168960,note_off,,,,,5120,0,4,,,71,0,3
168960,note_off,,,,,6144,0,2,,,74,0,1
168960,note_off,,,,,6144,0,5,,,67,0,4
168960,end_of_track,,,,,0,1,7,,,,,
