tick,type,time,meta,track,numerator,denominator,clocks_per_click,notated_32nd_notes_per_beat,key,tempo,program,channel,control,value,note,velocity
0,track_name,0,1,0,,,,,,,,,,,,
0,control_change,0,0,3,,,,,,,,1,7,90,,
0,track_name,0,1,4,,,,,,,,,,,,
0,program_change,0,0,4,,,,,,,48,2,,,,
0,control_change,0,0,4,,,,,,,,2,7,90,,
0,track_name,0,1,5,,,,,,,,,,,,
0,program_change,0,0,5,,,,,,,48,3,,,,
0,control_change,0,0,5,,,,,,,,3,7,90,,
0,track_name,0,1,6,,,,,,,,,,,,
0,program_change,0,0,6,,,,,,,52,4,,,,
0,track_name,0,1,7,,,,,,,,,,,,
0,program_change,0,0,3,,,,,,,48,1,,,,
0,program_change,0,0,7,,,,,,,52,5,,,,
0,program_change,0,0,8,,,,,,,52,6,,,,
0,track_name,0,1,9,,,,,,,,,,,,
0,program_change,0,0,9,,,,,,,52,7,,,,
0,track_name,0,1,10,,,,,,,,,,,,
0,program_change,0,0,10,,,,,,,48,8,,,,
0,control_change,0,0,10,,,,,,,,8,7,90,,
0,track_name,0,1,11,,,,,,,,,,,,
0,program_change,0,0,11,,,,,,,19,10,,,,
0,control_change,0,0,11,,,,,,,,10,7,90,,
0,control_change,0,0,11,,,,,,,,10,7,90,,
0,track_name,0,1,8,,,,,,,,,,,,
0,track_name,0,1,3,,,,,,,,,,,,
0,end_of_track,0,1,12,,,,,,,,,,,,
0,text,0,1,0,,,,,,,,,,,,
0,control_change,0,0,2,,,,,,,,0,7,90,,
0,set_tempo,0,1,0,,,,,,1200000,,,,,,
0,key_signature,0,1,0,,,,,D,,,,,,,
0,time_signature,0,1,0,3,4,24,8,,,,,,,,
0,text,0,1,0,,,,,,,,,,,,
0,end_of_track,0,1,1,,,,,,,,,,,,
0,program_change,0,0,2,,,,,,,73,0,,,,
0,track_name,0,1,1,,,,,,,,,,,,
0,program_change,0,0,1,,,,,,,19,10,,,,
0,track_name,0,1,2,,,,,,,,,,,,
0,text,0,1,0,,,,,,,,,,,,
0,text,0,1,0,,,,,,,,,,,,
240,note_on,240,0,5,,,,,,,,3,,,62,40
240,note_on,240,0,7,,,,,,,,5,,,66,64
240,note_on,240,0,3,,,,,,,,1,,,71,40
240,note_on,240,0,4,,,,,,,,2,,,66,40
300,note_on,0,0,7,,,,,,,,5,,,62,64
300,note_on,60,0,7,,,,,,,,5,,,66,0
360,note_on,0,0,7,,,,,,,,5,,,59,64
360,note_on,0,0,11,,,,,,,,10,,,66,30
360,note_on,60,0,7,,,,,,,,5,,,62,0
360,note_on,0,0,11,,,,,,,,10,,,50,30
360,note_on,0,0,11,,,,,,,,10,,,71,30
360,note_on,360,0,10,,,,,,,,8,,,50,64
360,note_on,360,0,11,,,,,,,,10,,,59,30
420,note_on,0,0,5,,,,,,,,3,,,59,40
420,note_on,180,0,5,,,,,,,,3,,,62,0
438,note_on,78,0,10,,,,,,,,8,,,50,0
459,note_on,39,0,5,,,,,,,,3,,,59,0
480,note_on,0,0,11,,,,,,,,10,,,66,0
480,note_on,0,0,11,,,,,,,,10,,,71,0
480,note_on,21,0,5,,,,,,,,3,,,62,40
480,note_on,0,0,11,,,,,,,,10,,,59,0
480,note_on,120,0,11,,,,,,,,10,,,50,0
480,note_on,42,0,10,,,,,,,,8,,,50,64
480,note_on,0,0,7,,,,,,,,5,,,59,64
480,note_on,120,0,7,,,,,,,,5,,,59,0
540,note_on,60,0,5,,,,,,,,3,,,62,0
540,note_on,0,0,5,,,,,,,,3,,,59,40
558,note_on,78,0,10,,,,,,,,8,,,50,0
579,note_on,39,0,5,,,,,,,,3,,,59,0
600,note_on,600,0,8,,,,,,,,6,,,59,64
600,note_on,0,0,7,,,,,,,,5,,,59,64
600,note_on,42,0,10,,,,,,,,8,,,50,64
600,note_on,120,0,7,,,,,,,,5,,,59,0
600,note_on,21,0,5,,,,,,,,3,,,62,40
660,note_on,0,0,8,,,,,,,,6,,,55,64
660,note_on,60,0,8,,,,,,,,6,,,59,0
660,note_on,60,0,5,,,,,,,,3,,,62,0
660,note_on,0,0,5,,,,,,,,3,,,59,40
678,note_on,78,0,10,,,,,,,,8,,,50,0
699,note_on,39,0,5,,,,,,,,3,,,59,0
720,note_on,120,0,7,,,,,,,,5,,,59,0
720,note_on,0,0,7,,,,,,,,5,,,67,64
720,note_on,21,0,5,,,,,,,,3,,,62,40
720,note_on,480,0,4,,,,,,,,2,,,66,0
720,note_on,240,0,11,,,,,,,,10,,,64,30
720,note_on,0,0,8,,,,,,,,6,,,52,64
720,note_on,42,0,10,,,,,,,,8,,,52,64
720,note_on,0,0,11,,,,,,,,10,,,67,30
720,note_on,0,0,11,,,,,,,,10,,,71,30
720,note_on,0,0,11,,,,,,,,10,,,52,30
720,note_on,60,0,8,,,,,,,,6,,,55,0
720,note_on,0,0,4,,,,,,,,2,,,67,40
780,note_on,0,0,5,,,,,,,,3,,,59,40
780,note_on,60,0,5,,,,,,,,3,,,62,0
798,note_on,78,0,10,,,,,,,,8,,,52,0
819,note_on,39,0,5,,,,,,,,3,,,59,0
840,note_on,21,0,5,,,,,,,,3,,,62,40
840,note_on,0,0,11,,,,,,,,10,,,71,0
840,note_on,0,0,11,,,,,,,,10,,,67,0
840,note_on,120,0,11,,,,,,,,10,,,52,0
840,note_on,0,0,11,,,,,,,,10,,,64,0
840,note_on,42,0,10,,,,,,,,8,,,52,64
840,note_on,0,0,8,,,,,,,,6,,,52,64
840,note_on,120,0,8,,,,,,,,6,,,52,0
900,note_on,60,0,5,,,,,,,,3,,,62,0
900,note_on,0,0,5,,,,,,,,3,,,59,40
918,note_on,78,0,10,,,,,,,,8,,,52,0
939,note_on,39,0,5,,,,,,,,3,,,59,0
960,note_on,120,0,8,,,,,,,,6,,,52,0
960,note_on,42,0,10,,,,,,,,8,,,52,64
960,note_on,21,0,5,,,,,,,,3,,,62,40
960,note_on,0,0,8,,,,,,,,6,,,52,64
1020,note_on,0,0,5,,,,,,,,3,,,59,40
1020,note_on,60,0,5,,,,,,,,3,,,62,0
1038,note_on,78,0,10,,,,,,,,8,,,52,0
1059,note_on,39,0,5,,,,,,,,3,,,59,0
1080,note_on,21,0,5,,,,,,,,3,,,60,40
1080,note_on,0,0,4,,,,,,,,2,,,64,40
1080,note_on,360,0,4,,,,,,,,2,,,67,0
1080,note_on,240,0,11,,,,,,,,10,,,57,30
1080,note_on,0,0,11,,,,,,,,10,,,60,30
1080,note_on,0,0,11,,,,,,,,10,,,64,30
1080,note_on,0,0,8,,,,,,,,6,,,60,64
1080,note_on,42,0,10,,,,,,,,8,,,45,64
1080,note_on,0,0,11,,,,,,,,10,,,67,30
1080,note_on,0,0,11,,,,,,,,10,,,45,30
1080,note_on,120,0,8,,,,,,,,6,,,52,0
1140,note_on,0,0,5,,,,,,,,3,,,59,40
1140,note_on,60,0,5,,,,,,,,3,,,60,0
1158,note_on,78,0,10,,,,,,,,8,,,45,0
1179,note_on,39,0,5,,,,,,,,3,,,59,0
1200,note_on,42,0,10,,,,,,,,8,,,45,64
1200,note_on,480,0,7,,,,,,,,5,,,67,0
1200,note_on,0,0,7,,,,,,,,5,,,66,64
1200,note_on,960,0,3,,,,,,,,1,,,71,0
1200,note_on,0,0,3,,,,,,,,1,,,69,40
1200,note_on,120,0,11,,,,,,,,10,,,45,0
1200,note_on,0,0,11,,,,,,,,10,,,67,0
1200,note_on,0,0,11,,,,,,,,10,,,66,30
1200,note_on,21,0,5,,,,,,,,3,,,60,40
1260,note_on,60,0,5,,,,,,,,3,,,60,0
1260,note_on,0,0,5,,,,,,,,3,,,59,40
1278,note_on,78,0,10,,,,,,,,8,,,45,0
1299,note_on,39,0,5,,,,,,,,3,,,59,0
1320,note_on,240,0,4,,,,,,,,2,,,64,0
1320,note_on,120,0,11,,,,,,,,10,,,66,0
1320,note_on,120,0,7,,,,,,,,5,,,66,0
1320,note_on,0,0,7,,,,,,,,5,,,64,64
1320,note_on,0,0,4,,,,,,,,2,,,69,40
1320,note_on,21,0,5,,,,,,,,3,,,60,40
1320,note_on,0,0,3,,,,,,,,1,,,67,40
1320,note_on,120,0,3,,,,,,,,1,,,69,0
1320,note_on,42,0,10,,,,,,,,8,,,45,64
1380,note_on,0,0,5,,,,,,,,3,,,57,40
1380,note_on,60,0,5,,,,,,,,3,,,60,0
1398,note_on,78,0,10,,,,,,,,8,,,45,0
1419,note_on,39,0,5,,,,,,,,3,,,57,0
1440,note_on,21,0,5,,,,,,,,3,,,66,40
1440,note_on,120,0,11,,,,,,,,10,,,64,0
1440,note_on,0,0,11,,,,,,,,10,,,60,0
1440,note_on,120,0,7,,,,,,,,5,,,64,0
1440,note_on,0,0,7,,,,,,,,5,,,63,64
1440,note_on,0,0,3,,,,,,,,1,,,66,40
1440,note_on,0,0,11,,,,,,,,10,,,60,30
1440,note_on,120,0,3,,,,,,,,1,,,67,0
1440,note_on,0,0,11,,,,,,,,10,,,47,30
1440,note_on,42,0,10,,,,,,,,8,,,47,64
1440,note_on,0,0,11,,,,,,,,10,,,63,30
1440,note_on,0,0,11,,,,,,,,10,,,57,0
1500,note_on,60,0,5,,,,,,,,3,,,66,0
1500,note_on,0,0,5,,,,,,,,3,,,59,40
1518,note_on,78,0,10,,,,,,,,8,,,47,0
1539,note_on,39,0,5,,,,,,,,3,,,59,0
1560,note_on,120,0,11,,,,,,,,10,,,47,0
1560,note_on,0,0,4,,,,,,,,2,,,67,40
1560,note_on,0,0,11,,,,,,,,10,,,60,0
1560,note_on,21,0,5,,,,,,,,3,,,63,40
1560,note_on,240,0,4,,,,,,,,2,,,69,0
1560,note_on,0,0,11,,,,,,,,10,,,59,30
1560,note_on,480,0,8,,,,,,,,6,,,60,0
1560,note_on,0,0,8,,,,,,,,6,,,59,64
1560,note_on,42,0,10,,,,,,,,8,,,47,64
1620,note_on,60,0,5,,,,,,,,3,,,63,0
1620,note_on,0,0,5,,,,,,,,3,,,59,40
1638,note_on,78,0,10,,,,,,,,8,,,47,0
1659,note_on,39,0,5,,,,,,,,3,,,59,0
1680,note_on,42,0,10,,,,,,,,8,,,47,64
1680,note_on,120,0,8,,,,,,,,6,,,59,0
1680,note_on,0,0,8,,,,,,,,6,,,57,64
1680,note_on,0,0,3,,,,,,,,1,,,71,40
1680,note_on,0,0,11,,,,,,,,10,,,63,0
1680,note_on,21,0,5,,,,,,,,3,,,66,40
1680,note_on,120,0,11,,,,,,,,10,,,59,0
1680,note_on,120,0,4,,,,,,,,2,,,67,0
1680,note_on,0,0,4,,,,,,,,2,,,66,40
1680,note_on,240,0,3,,,,,,,,1,,,66,0
1680,note_on,0,0,7,,,,,,,,5,,,63,64
1680,note_on,240,0,7,,,,,,,,5,,,63,0
1740,note_on,60,0,5,,,,,,,,3,,,66,0
1740,note_on,0,0,5,,,,,,,,3,,,59,40
1758,note_on,78,0,10,,,,,,,,8,,,47,0
1779,note_on,39,0,5,,,,,,,,3,,,59,0
1800,note_on,42,0,10,,,,,,,,8,,,41,64
1800,note_on,21,0,5,,,,,,,,3,,,68,40
1800,note_on,0,0,11,,,,,,,,10,,,62,30
1800,note_on,0,0,8,,,,,,,,6,,,56,64
1800,note_on,0,0,11,,,,,,,,10,,,59,30
1800,note_on,120,0,11,,,,,,,,10,,,53,30
1800,note_on,120,0,7,,,,,,,,5,,,63,0
1800,note_on,0,0,11,,,,,,,,10,,,56,30
1800,note_on,0,0,11,,,,,,,,10,,,41,30
1800,note_on,120,0,4,,,,,,,,2,,,66,0
1800,note_on,0,0,4,,,,,,,,2,,,71,40
1800,note_on,120,0,8,,,,,,,,6,,,57,0
1860,note_on,180,0,3,,,,,,,,1,,,71,0
1860,note_on,60,0,5,,,,,,,,3,,,68,0
1860,note_on,0,0,5,,,,,,,,3,,,65,40
1860,note_on,0,0,3,,,,,,,,1,,,73,40
1878,note_on,78,0,10,,,,,,,,8,,,41,0
1899,note_on,39,0,5,,,,,,,,3,,,65,0
1920,note_on,60,0,3,,,,,,,,1,,,73,0
1920,note_on,0,0,11,,,,,,,,10,,,56,0
1920,note_on,21,0,5,,,,,,,,3,,,68,40
1920,note_on,42,0,10,,,,,,,,8,,,41,64
1920,note_on,0,0,11,,,,,,,,10,,,53,0
1920,note_on,0,0,11,,,,,,,,10,,,59,0
1920,note_on,120,0,11,,,,,,,,10,,,41,0
1920,note_on,120,0,7,,,,,,,,5,,,62,64
1920,note_on,0,0,11,,,,,,,,10,,,62,0
1920,note_on,0,0,3,,,,,,,,1,,,71,40
1980,note_on,0,0,7,,,,,,,,5,,,61,64
1980,note_on,60,0,7,,,,,,,,5,,,62,0
1980,note_on,60,0,3,,,,,,,,1,,,71,0
1980,note_on,0,0,3,,,,,,,,1,,,70,40
1980,note_on,0,0,5,,,,,,,,3,,,65,40
1980,note_on,60,0,5,,,,,,,,3,,,68,0
1998,note_on,78,0,10,,,,,,,,8,,,41,0
2019,note_on,39,0,5,,,,,,,,3,,,65,0
2040,note_on,240,0,8,,,,,,,,6,,,56,0
2040,note_on,0,0,8,,,,,,,,6,,,56,64
2040,note_on,0,0,3,,,,,,,,1,,,71,40
2040,note_on,42,0,10,,,,,,,,8,,,41,64
2040,note_on,21,0,5,,,,,,,,3,,,68,40
2040,note_on,0,0,4,,,,,,,,2,,,68,40
2040,note_on,240,0,4,,,,,,,,2,,,71,0
2040,note_on,60,0,7,,,,,,,,5,,,61,0
2040,note_on,0,0,7,,,,,,,,5,,,61,64
2040,note_on,60,0,3,,,,,,,,1,,,70,0
2100,note_on,60,0,5,,,,,,,,3,,,68,0
2100,note_on,60,0,7,,,,,,,,5,,,61,0
2100,note_on,0,0,3,,,,,,,,1,,,73,40
2100,note_on,0,0,7,,,,,,,,5,,,59,64
2100,note_on,60,0,3,,,,,,,,1,,,71,0
2100,note_on,0,0,5,,,,,,,,3,,,65,40
2118,note_on,78,0,10,,,,,,,,8,,,41,0
2139,note_on,39,0,5,,,,,,,,3,,,65,0
2160,note_on,42,0,10,,,,,,,,8,,,42,64
2160,note_on,0,0,7,,,,,,,,5,,,58,64
2160,note_on,120,0,8,,,,,,,,6,,,56,0
2160,note_on,21,0,5,,,,,,,,3,,,70,40
2160,note_on,0,0,3,,,,,,,,1,,,64,40
2160,control_change,2160,0,2,,,,,,,,0,7,90,,
2160,note_on,240,0,11,,,,,,,,10,,,55,30
2160,note_on,0,0,11,,,,,,,,10,,,58,30
2160,note_on,0,0,4,,,,,,,,2,,,67,40
2160,note_on,120,0,4,,,,,,,,2,,,68,0
2160,note_on,0,0,11,,,,,,,,10,,,42,30
2160,note_on,60,0,7,,,,,,,,5,,,59,0
2160,note_on,60,0,3,,,,,,,,1,,,73,0
2220,note_on,60,0,5,,,,,,,,3,,,70,0
2220,note_on,0,0,5,,,,,,,,3,,,61,40
2220,note_on,0,0,4,,,,,,,,2,,,66,40
2220,note_on,60,0,4,,,,,,,,2,,,67,0
2238,note_on,78,0,10,,,,,,,,8,,,42,0
2259,note_on,39,0,4,,,,,,,,2,,,66,0
2259,note_on,39,0,5,,,,,,,,3,,,61,0
2280,note_on,42,0,10,,,,,,,,8,,,42,64
2280,note_on,0,0,11,,,,,,,,10,,,58,30
2280,note_on,0,0,11,,,,,,,,10,,,54,30
2280,note_on,120,0,7,,,,,,,,5,,,58,0
2280,note_on,0,0,11,,,,,,,,10,,,55,0
2280,note_on,0,0,11,,,,,,,,10,,,58,0
2280,note_on,120,0,11,,,,,,,,10,,,42,0
2280,note_on,21,0,5,,,,,,,,3,,,70,40
2280,note_on,120,0,8,,,,,,,,6,,,55,64
2280,note_on,21,0,4,,,,,,,,2,,,64,40
2280,note_on,0,0,7,,,,,,,,5,,,58,64
2340,note_on,60,0,5,,,,,,,,3,,,70,0
2340,note_on,60,0,8,,,,,,,,6,,,55,0
2340,note_on,0,0,8,,,,,,,,6,,,54,64
2340,note_on,0,0,4,,,,,,,,2,,,67,40
2340,note_on,60,0,4,,,,,,,,2,,,64,0
2340,note_on,0,0,5,,,,,,,,3,,,64,40
2358,note_on,78,0,10,,,,,,,,8,,,42,0
2379,note_on,39,0,5,,,,,,,,3,,,64,0
2379,note_on,39,0,4,,,,,,,,2,,,67,0
2400,note_on,120,0,11,,,,,,,,10,,,58,0
2400,note_on,0,0,11,,,,,,,,10,,,54,0
2400,note_on,2400,0,6,,,,,,,,4,,,73,64
2400,note_on,0,0,8,,,,,,,,6,,,54,64
2400,note_on,42,0,10,,,,,,,,8,,,42,64
2400,note_on,240,0,3,,,,,,,,1,,,64,0
2400,note_on,0,0,3,,,,,,,,1,,,73,40
2400,note_on,21,0,4,,,,,,,,2,,,61,40
2400,note_on,21,0,5,,,,,,,,3,,,70,40
2400,note_on,120,0,7,,,,,,,,5,,,58,0
2400,note_on,60,0,8,,,,,,,,6,,,54,0
2460,note_on,60,0,6,,,,,,,,4,,,73,0
2460,note_on,0,0,6,,,,,,,,4,,,70,64
2460,note_on,0,0,5,,,,,,,,3,,,66,40
2460,note_on,60,0,5,,,,,,,,3,,,70,0
2460,note_on,60,0,4,,,,,,,,2,,,61,0
2460,note_on,0,0,4,,,,,,,,2,,,66,40
2460,note_on,60,0,8,,,,,,,,6,,,54,0
2460,note_on,0,0,8,,,,,,,,6,,,52,64
2478,note_on,78,0,10,,,,,,,,8,,,42,0
2499,note_on,39,0,5,,,,,,,,3,,,66,0
2520,note_on,42,0,10,,,,,,,,8,,,47,64
2520,note_on,0,0,11,,,,,,,,10,,,62,30
2520,note_on,120,0,11,,,,,,,,10,,,59,30
2520,note_on,60,0,6,,,,,,,,4,,,70,0
2520,note_on,0,0,6,,,,,,,,4,,,66,64
2520,note_on,60,0,8,,,,,,,,6,,,52,0
2520,note_on,0,0,11,,,,,,,,10,,,47,30
2520,note_on,360,0,2,,,,,,,,0,,,78,40
2520,note_on,0,0,11,,,,,,,,10,,,66,30
2520,note_on,0,0,8,,,,,,,,6,,,50,64
2520,note_on,21,0,5,,,,,,,,3,,,66,40
2550,note_on,0,0,2,,,,,,,,0,,,79,40
2550,note_on,30,0,2,,,,,,,,0,,,78,0
2580,note_on,0,0,5,,,,,,,,3,,,59,40
2580,note_on,120,0,4,,,,,,,,2,,,66,0
2580,note_on,0,0,4,,,,,,,,2,,,64,40
2580,note_on,60,0,5,,,,,,,,3,,,66,0
2580,note_on,30,0,2,,,,,,,,0,,,79,0
2580,note_on,0,0,2,,,,,,,,0,,,78,40
2598,note_on,78,0,10,,,,,,,,8,,,47,0
2610,note_on,30,0,2,,,,,,,,0,,,78,0
2610,note_on,0,0,2,,,,,,,,0,,,76,40
2619,note_on,39,0,5,,,,,,,,3,,,59,0
2640,note_on,0,0,11,,,,,,,,10,,,66,0
2640,note_on,30,0,2,,,,,,,,0,,,76,0
2640,note_on,0,0,2,,,,,,,,0,,,78,40
2640,note_on,0,0,8,,,,,,,,6,,,50,64
2640,note_on,0,0,4,,,,,,,,2,,,62,40
2640,note_on,60,0,4,,,,,,,,2,,,64,0
2640,note_on,42,0,10,,,,,,,,8,,,47,64
2640,note_on,21,0,5,,,,,,,,3,,,66,40
2640,note_on,120,0,8,,,,,,,,6,,,50,0
2640,note_on,0,0,3,,,,,,,,1,,,71,40
2640,note_on,240,0,3,,,,,,,,1,,,73,0
2640,note_on,0,0,11,,,,,,,,10,,,59,0
2640,note_on,0,0,11,,,,,,,,10,,,62,0
2640,note_on,120,0,6,,,,,,,,4,,,66,0
2640,note_on,0,0,6,,,,,,,,4,,,66,64
2640,note_on,120,0,11,,,,,,,,10,,,47,0
2640,note_on,240,0,7,,,,,,,,5,,,62,64
2670,note_on,0,0,2,,,,,,,,0,,,76,40
2670,note_on,30,0,2,,,,,,,,0,,,78,0
2700,note_on,0,0,3,,,,,,,,1,,,70,40
2700,note_on,60,0,3,,,,,,,,1,,,71,0
2700,note_on,0,0,4,,,,,,,,2,,,61,40
2700,note_on,0,0,5,,,,,,,,3,,,61,40
2700,note_on,60,0,4,,,,,,,,2,,,62,0
2700,note_on,60,0,5,,,,,,,,3,,,66,0
2700,note_on,0,0,7,,,,,,,,5,,,64,64
2700,note_on,60,0,7,,,,,,,,5,,,62,0
2700,note_on,30,0,2,,,,,,,,0,,,76,0
2700,note_on,0,0,2,,,,,,,,0,,,74,40
2718,note_on,78,0,10,,,,,,,,8,,,47,0
2730,note_on,0,0,2,,,,,,,,0,,,73,40
2730,note_on,30,0,2,,,,,,,,0,,,74,0
2739,note_on,39,0,5,,,,,,,,3,,,61,0
2760,note_on,60,0,4,,,,,,,,2,,,61,0
2760,note_on,120,0,6,,,,,,,,4,,,66,0
2760,note_on,2760,0,9,,,,,,,,7,,,54,64
2760,note_on,21,0,5,,,,,,,,3,,,66,40
2760,note_on,0,0,7,,,,,,,,5,,,66,64
2760,note_on,60,0,7,,,,,,,,5,,,64,0
2760,note_on,0,0,6,,,,,,,,4,,,66,64
2760,note_on,60,0,3,,,,,,,,1,,,70,0
2760,note_on,0,0,2,,,,,,,,0,,,71,40
2760,note_on,30,0,2,,,,,,,,0,,,73,0
2760,note_on,120,0,8,,,,,,,,6,,,50,0
2760,note_on,0,0,3,,,,,,,,1,,,71,40
2760,note_on,42,0,10,,,,,,,,8,,,47,64
2760,note_on,0,0,4,,,,,,,,2,,,62,40
2790,note_on,30,0,2,,,,,,,,0,,,71,0
2790,note_on,0,0,2,,,,,,,,0,,,74,40
2820,note_on,0,0,9,,,,,,,,7,,,50,64
2820,note_on,30,0,2,,,,,,,,0,,,74,0
2820,note_on,0,0,2,,,,,,,,0,,,73,40
2820,note_on,0,0,5,,,,,,,,3,,,59,40
2820,note_on,60,0,5,,,,,,,,3,,,66,0
2820,note_on,60,0,7,,,,,,,,5,,,66,0
2820,note_on,0,0,7,,,,,,,,5,,,59,64
2820,note_on,60,0,9,,,,,,,,7,,,54,0
2838,note_on,78,0,10,,,,,,,,8,,,47,0
2850,note_on,0,0,2,,,,,,,,0,,,71,40
2850,note_on,30,0,2,,,,,,,,0,,,73,0
2859,note_on,39,0,5,,,,,,,,3,,,59,0
2880,note_on,0,0,2,,,,,,,,0,,,83,40
2880,note_on,30,0,2,,,,,,,,0,,,71,0
2880,note_on,42,0,10,,,,,,,,8,,,43,64
2880,note_on,0,0,9,,,,,,,,7,,,47,64
2880,note_on,0,0,2,,,,,,,,0,,,74,40
2880,note_on,0,0,6,,,,,,,,4,,,74,64
2880,note_on,60,0,9,,,,,,,,7,,,50,0
2880,note_on,0,0,11,,,,,,,,10,,,62,30
2880,note_on,0,0,7,,,,,,,,5,,,67,64
2880,note_on,60,0,7,,,,,,,,5,,,59,0
2880,note_on,21,0,5,,,,,,,,3,,,67,40
2880,note_on,0,0,11,,,,,,,,10,,,67,30
2880,note_on,0,0,11,,,,,,,,10,,,43,30
2880,note_on,240,0,11,,,,,,,,10,,,59,30
2880,note_on,120,0,6,,,,,,,,4,,,66,0
2910,note_on,0,0,2,,,,,,,,0,,,72,40
2910,note_on,30,0,2,,,,,,,,0,,,74,0
2940,note_on,0,0,2,,,,,,,,0,,,74,40
2940,note_on,30,0,2,,,,,,,,0,,,72,0
2940,note_on,0,0,5,,,,,,,,3,,,64,42
2940,note_on,60,0,5,,,,,,,,3,,,67,0
2940,note_on,180,0,4,,,,,,,,2,,,62,0
2940,note_on,0,0,4,,,,,,,,2,,,72,42
2958,note_on,78,0,10,,,,,,,,8,,,43,0
2970,note_on,30,0,2,,,,,,,,0,,,74,0
2970,note_on,0,0,2,,,,,,,,0,,,76,40
2979,note_on,39,0,5,,,,,,,,3,,,64,0
3000,note_on,0,0,4,,,,,,,,2,,,71,44
3000,note_on,60,0,4,,,,,,,,2,,,72,0
3000,note_on,30,0,2,,,,,,,,0,,,76,0
3000,note_on,120,0,11,,,,,,,,10,,,43,0
3000,note_on,21,0,5,,,,,,,,3,,,67,44
3000,note_on,0,0,2,,,,,,,,0,,,74,40
3000,note_on,240,0,8,,,,,,,,6,,,59,66
3000,note_on,0,0,9,,,,,,,,7,,,47,66
3000,note_on,0,0,11,,,,,,,,10,,,67,0
3000,note_on,42,0,10,,,,,,,,8,,,43,64
3000,note_on,120,0,9,,,,,,,,7,,,47,0
3000,note_on,0,0,11,,,,,,,,10,,,59,0
3000,note_on,0,0,11,,,,,,,,10,,,62,0
3030,note_on,30,0,2,,,,,,,,0,,,74,0
3030,note_on,0,0,2,,,,,,,,0,,,72,40
3060,note_on,30,0,2,,,,,,,,0,,,72,0
3060,note_on,0,0,2,,,,,,,,0,,,71,40
3060,note_on,0,0,5,,,,,,,,3,,,64,46
3060,note_on,0,0,8,,,,,,,,6,,,60,67
3060,note_on,60,0,4,,,,,,,,2,,,71,0
3060,note_on,0,0,4,,,,,,,,2,,,69,46
3060,note_on,60,0,8,,,,,,,,6,,,59,0
3060,note_on,60,0,5,,,,,,,,3,,,67,0
3078,note_on,78,0,10,,,,,,,,8,,,43,0
3090,note_on,30,0,2,,,,,,,,0,,,71,0
3090,note_on,0,0,2,,,,,,,,0,,,69,40
3099,note_on,39,0,4,,,,,,,,2,,,69,0
3099,note_on,39,0,5,,,,,,,,3,,,64,0
3120,note_on,0,0,8,,,,,,,,6,,,62,68
3120,note_on,60,0,8,,,,,,,,6,,,60,0
3120,note_on,120,0,9,,,,,,,,7,,,47,0
3120,note_on,0,0,9,,,,,,,,7,,,47,68
3120,note_on,0,0,2,,,,,,,,0,,,67,40
3120,note_on,42,0,10,,,,,,,,8,,,43,64
3120,note_on,21,0,5,,,,,,,,3,,,67,48
3120,note_on,21,0,4,,,,,,,,2,,,71,48
3120,note_on,30,0,2,,,,,,,,0,,,69,0
3150,note_on,30,0,2,,,,,,,,0,,,67,0
3150,note_on,0,0,2,,,,,,,,0,,,71,40
3180,note_on,0,0,2,,,,,,,,0,,,69,40
3180,note_on,30,0,2,,,,,,,,0,,,71,0
3180,note_on,60,0,4,,,,,,,,2,,,71,0
3180,note_on,0,0,4,,,,,,,,2,,,66,50
3180,note_on,60,0,8,,,,,,,,6,,,62,0
3180,note_on,0,0,8,,,,,,,,6,,,55,69
3180,note_on,0,0,5,,,,,,,,3,,,59,50
3180,note_on,60,0,5,,,,,,,,3,,,67,0
3198,note_on,78,0,10,,,,,,,,8,,,43,0
3210,note_on,30,0,2,,,,,,,,0,,,69,0
3210,note_on,0,0,2,,,,,,,,0,,,67,40
3219,note_on,39,0,5,,,,,,,,3,,,59,0
3219,note_on,39,0,4,,,,,,,,2,,,66,0
3240,note_on,0,0,9,,,,,,,,7,,,55,70
3240,note_on,21,0,4,,,,,,,,2,,,67,52
3240,note_on,30,0,2,,,,,,,,0,,,67,0
3240,note_on,0,0,2,,,,,,,,0,,,76,40
3240,note_on,120,0,9,,,,,,,,7,,,47,0
3240,note_on,21,0,5,,,,,,,,3,,,64,52
3240,note_on,42,0,10,,,,,,,,8,,,40,64
3240,note_on,240,0,11,,,,,,,,10,,,52,30
3240,note_on,0,0,11,,,,,,,,10,,,59,30
3240,note_on,60,0,8,,,,,,,,6,,,55,0
3240,note_on,0,0,8,,,,,,,,6,,,64,70
3240,note_on,0,0,11,,,,,,,,10,,,62,30
3240,note_on,0,0,11,,,,,,,,10,,,40,30
3270,note_on,30,0,2,,,,,,,,0,,,83,0
3270,note_on,0,0,2,,,,,,,,0,,,81,40
3300,note_on,60,0,5,,,,,,,,3,,,64,0
3300,note_on,30,0,2,,,,,,,,0,,,81,0
3300,note_on,0,0,2,,,,,,,,0,,,83,40
3300,note_on,540,0,3,,,,,,,,1,,,71,0
3300,note_on,0,0,3,,,,,,,,1,,,69,54
3300,note_on,0,0,5,,,,,,,,3,,,59,54
3300,note_on,420,0,7,,,,,,,,5,,,67,0
3300,note_on,0,0,7,,,,,,,,5,,,66,70
3318,note_on,78,0,10,,,,,,,,8,,,40,0
3330,note_on,0,0,2,,,,,,,,0,,,84,40
3330,note_on,30,0,2,,,,,,,,0,,,83,0
3339,note_on,39,0,5,,,,,,,,3,,,59,0
3360,note_on,0,0,7,,,,,,,,5,,,64,71
3360,note_on,0,0,11,,,,,,,,10,,,52,0
3360,note_on,480,0,6,,,,,,,,4,,,74,0
3360,note_on,0,0,6,,,,,,,,4,,,73,71
3360,note_on,120,0,11,,,,,,,,10,,,40,0
3360,note_on,42,0,10,,,,,,,,8,,,40,64
3360,note_on,60,0,7,,,,,,,,5,,,66,0
3360,note_on,21,0,5,,,,,,,,3,,,64,56
3360,note_on,0,0,11,,,,,,,,10,,,62,0
3360,note_on,0,0,11,,,,,,,,10,,,59,0
3360,note_on,60,0,3,,,,,,,,1,,,69,0
3360,note_on,0,0,3,,,,,,,,1,,,67,56
3360,note_on,30,0,2,,,,,,,,0,,,84,0
3360,note_on,0,0,2,,,,,,,,0,,,83,40
3390,note_on,30,0,2,,,,,,,,0,,,83,0
3390,note_on,0,0,2,,,,,,,,0,,,81,40
3420,note_on,0,0,5,,,,,,,,3,,,59,58
3420,note_on,60,0,5,,,,,,,,3,,,64,0
3420,note_on,0,0,4,,,,,,,,2,,,69,58
3420,note_on,30,0,2,,,,,,,,0,,,81,0
3420,note_on,0,0,2,,,,,,,,0,,,79,40
3420,note_on,0,0,3,,,,,,,,1,,,66,58
3420,note_on,60,0,3,,,,,,,,1,,,67,0
3420,note_on,180,0,4,,,,,,,,2,,,67,0
3438,note_on,78,0,10,,,,,,,,8,,,40,0
3450,note_on,30,0,2,,,,,,,,0,,,79,0
3450,note_on,0,0,2,,,,,,,,0,,,78,40
3459,note_on,39,0,3,,,,,,,,1,,,66,0
3459,note_on,39,0,5,,,,,,,,3,,,59,0
3480,note_on,120,0,6,,,,,,,,4,,,73,0
3480,note_on,0,0,6,,,,,,,,4,,,71,73
3480,note_on,42,0,10,,,,,,,,8,,,40,64
3480,note_on,30,0,2,,,,,,,,0,,,78,0
3480,note_on,0,0,2,,,,,,,,0,,,76,40
3480,note_on,21,0,3,,,,,,,,1,,,67,60
3480,note_on,21,0,5,,,,,,,,3,,,64,60
3480,note_on,60,0,4,,,,,,,,2,,,69,0
3480,note_on,120,0,7,,,,,,,,5,,,64,0
3480,note_on,0,0,4,,,,,,,,2,,,71,60
3480,note_on,0,0,7,,,,,,,,5,,,62,73
3510,note_on,0,0,2,,,,,,,,0,,,79,40
3510,note_on,30,0,2,,,,,,,,0,,,76,0
3540,note_on,0,0,5,,,,,,,,3,,,55,62
3540,note_on,0,0,3,,,,,,,,1,,,64,62
3540,note_on,60,0,3,,,,,,,,1,,,67,0
3540,note_on,0,0,4,,,,,,,,2,,,67,62
3540,note_on,0,0,2,,,,,,,,0,,,78,40
3540,note_on,60,0,5,,,,,,,,3,,,64,0
3540,note_on,60,0,4,,,,,,,,2,,,71,0
3540,note_on,30,0,2,,,,,,,,0,,,79,0
3558,note_on,78,0,10,,,,,,,,8,,,40,0
3570,note_on,0,0,2,,,,,,,,0,,,76,40
3570,note_on,30,0,2,,,,,,,,0,,,78,0
3579,note_on,39,0,3,,,,,,,,1,,,64,0
3579,note_on,39,0,4,,,,,,,,2,,,67,0
3579,note_on,39,0,5,,,,,,,,3,,,55,0
3600,note_on,0,0,11,,,,,,,,10,,,64,30
3600,note_on,240,0,11,,,,,,,,10,,,58,30
3600,note_on,30,0,2,,,,,,,,0,,,76,0
3600,note_on,0,0,11,,,,,,,,10,,,61,30
3600,note_on,0,0,6,,,,,,,,4,,,70,75
3600,note_on,120,0,6,,,,,,,,4,,,71,0
3600,note_on,120,0,7,,,,,,,,5,,,62,0
3600,note_on,0,0,2,,,,,,,,0,,,85,40
3600,note_on,21,0,3,,,,,,,,1,,,70,64
3600,note_on,0,0,11,,,,,,,,10,,,67,30
3600,note_on,21,0,4,,,,,,,,2,,,61,64
3600,note_on,21,0,5,,,,,,,,3,,,61,64
3600,note_on,42,0,10,,,,,,,,8,,,42,64
3600,note_on,0,0,11,,,,,,,,10,,,42,30
3600,note_on,0,0,7,,,,,,,,5,,,61,75
3630,note_on,30,0,2,,,,,,,,0,,,76,0
3630,note_on,0,0,2,,,,,,,,0,,,74,40
3660,note_on,60,0,5,,,,,,,,3,,,61,0
3660,note_on,0,0,2,,,,,,,,0,,,76,40
3660,note_on,30,0,2,,,,,,,,0,,,74,0
3660,note_on,0,0,5,,,,,,,,3,,,64,64
3678,note_on,78,0,10,,,,,,,,8,,,42,0
3690,note_on,0,0,2,,,,,,,,0,,,78,40
3690,note_on,30,0,2,,,,,,,,0,,,76,0
3699,note_on,39,0,5,,,,,,,,3,,,64,0
3720,note_on,120,0,4,,,,,,,,2,,,61,0
3720,note_on,0,0,4,,,,,,,,2,,,66,64
3720,note_on,0,0,11,,,,,,,,10,,,61,0
3720,note_on,0,0,11,,,,,,,,10,,,67,0
3720,note_on,21,0,5,,,,,,,,3,,,54,64
3720,note_on,0,0,11,,,,,,,,10,,,62,30
3720,note_on,0,0,11,,,,,,,,10,,,66,30
3720,note_on,0,0,9,,,,,,,,7,,,54,71
3720,note_on,0,0,11,,,,,,,,10,,,64,0
3720,note_on,42,0,10,,,,,,,,8,,,42,64
3720,note_on,0,0,2,,,,,,,,0,,,76,40
3720,note_on,0,0,2,,,,,,,,0,,,85,0
3720,note_on,30,0,2,,,,,,,,0,,,78,0
3720,note_on,120,0,7,,,,,,,,5,,,61,0
3720,note_on,120,0,3,,,,,,,,1,,,70,0
3720,note_on,0,0,7,,,,,,,,5,,,62,71
3720,note_on,480,0,8,,,,,,,,6,,,64,0
3720,note_on,480,0,9,,,,,,,,7,,,55,0
3720,note_on,120,0,11,,,,,,,,10,,,42,0
3720,note_on,0,0,8,,,,,,,,6,,,62,71
3720,note_on,0,0,3,,,,,,,,1,,,71,64
3750,note_on,0,0,2,,,,,,,,0,,,74,40
3750,note_on,30,0,2,,,,,,,,0,,,76,0
3780,note_on,0,0,2,,,,,,,,0,,,73,40
3780,note_on,30,0,2,,,,,,,,0,,,74,0
3780,note_on,0,0,5,,,,,,,,3,,,61,64
3780,note_on,60,0,5,,,,,,,,3,,,54,0
3798,note_on,78,0,10,,,,,,,,8,,,42,0
3810,note_on,30,0,2,,,,,,,,0,,,73,0
3810,note_on,0,0,2,,,,,,,,0,,,71,40
3819,note_on,39,0,5,,,,,,,,3,,,61,0
3840,note_on,0,0,11,,,,,,,,10,,,62,0
3840,note_on,0,0,11,,,,,,,,10,,,61,30
3840,note_on,0,0,2,,,,,,,,0,,,70,40
3840,note_on,0,0,3,,,,,,,,1,,,73,64
3840,note_on,120,0,8,,,,,,,,6,,,62,0
3840,note_on,30,0,2,,,,,,,,0,,,71,0
3840,note_on,120,0,11,,,,,,,,10,,,66,0
3840,note_on,0,0,11,,,,,,,,10,,,64,30
3840,note_on,120,0,3,,,,,,,,1,,,71,0
3840,note_on,0,0,8,,,,,,,,6,,,61,68
3840,note_on,0,0,6,,,,,,,,4,,,70,68
3840,note_on,21,0,5,,,,,,,,3,,,66,64
3840,note_on,0,0,9,,,,,,,,7,,,52,68
3840,note_on,42,0,10,,,,,,,,8,,,42,64
3840,note_on,120,0,9,,,,,,,,7,,,54,0
3840,note_on,240,0,6,,,,,,,,4,,,70,0
3840,note_on,0,0,7,,,,,,,,5,,,64,68
3840,note_on,120,0,7,,,,,,,,5,,,62,0
3870,note_on,30,0,2,,,,,,,,0,,,70,0
3870,note_on,0,0,2,,,,,,,,0,,,73,40
3900,note_on,0,0,5,,,,,,,,3,,,61,64
3900,note_on,0,0,2,,,,,,,,0,,,71,40
3900,note_on,30,0,2,,,,,,,,0,,,73,0
3900,note_on,60,0,5,,,,,,,,3,,,66,0
3918,note_on,78,0,10,,,,,,,,8,,,42,0
3930,note_on,30,0,2,,,,,,,,0,,,71,0
3930,note_on,0,0,2,,,,,,,,0,,,70,40
3939,note_on,39,0,5,,,,,,,,3,,,61,0
3960,note_on,120,0,6,,,,,,,,4,,,70,0
3960,note_on,0,0,8,,,,,,,,6,,,60,64
3960,note_on,120,0,8,,,,,,,,6,,,61,0
3960,note_on,0,0,11,,,,,,,,10,,,36,30
3960,note_on,42,0,10,,,,,,,,8,,,36,64
3960,note_on,120,0,11,,,,,,,,10,,,64,0
3960,note_on,0,0,11,,,,,,,,10,,,61,0
3960,note_on,0,0,11,,,,,,,,10,,,58,0
3960,note_on,0,0,11,,,,,,,,10,,,63,30
3960,note_on,0,0,11,,,,,,,,10,,,66,30
3960,note_on,0,0,11,,,,,,,,10,,,69,30
3960,note_on,120,0,7,,,,,,,,5,,,64,0
3960,note_on,0,0,11,,,,,,,,10,,,60,30
3960,note_on,120,0,9,,,,,,,,7,,,52,0
3960,note_on,0,0,7,,,,,,,,5,,,66,64
3960,note_on,30,0,2,,,,,,,,0,,,70,0
3960,note_on,0,0,2,,,,,,,,0,,,78,40
3960,note_on,0,0,3,,,,,,,,1,,,75,64
3960,note_on,120,0,3,,,,,,,,1,,,73,0
3960,note_on,21,0,5,,,,,,,,3,,,69,64
3960,note_on,0,0,9,,,,,,,,7,,,51,64
3990,note_on,30,0,2,,,,,,,,0,,,78,0
3990,note_on,0,0,2,,,,,,,,0,,,76,40
4020,note_on,60,0,5,,,,,,,,3,,,69,0
4020,note_on,0,0,5,,,,,,,,3,,,68,62
4020,note_on,0,0,2,,,,,,,,0,,,78,40
4020,note_on,30,0,2,,,,,,,,0,,,76,0
4020,note_on,300,0,4,,,,,,,,2,,,66,0
4020,note_on,0,0,4,,,,,,,,2,,,64,62
4038,note_on,78,0,10,,,,,,,,8,,,36,0
4050,note_on,30,0,2,,,,,,,,0,,,78,0
4050,note_on,0,0,2,,,,,,,,0,,,80,40
4059,note_on,39,0,5,,,,,,,,3,,,68,0
4080,note_on,42,0,10,,,,,,,,8,,,36,64
4080,note_on,30,0,2,,,,,,,,0,,,80,0
4080,note_on,0,0,2,,,,,,,,0,,,78,40
4080,note_on,0,0,4,,,,,,,,2,,,63,60
4080,note_on,60,0,4,,,,,,,,2,,,64,0
4080,note_on,120,0,11,,,,,,,,10,,,36,0
4080,note_on,21,0,5,,,,,,,,3,,,69,60
4080,note_on,120,0,6,,,,,,,,4,,,69,64
4080,note_on,0,0,11,,,,,,,,10,,,68,30
4080,note_on,0,0,11,,,,,,,,10,,,64,30
4080,note_on,0,0,11,,,,,,,,10,,,63,0
4080,note_on,0,0,8,,,,,,,,6,,,61,64
4080,note_on,120,0,8,,,,,,,,6,,,60,0
4080,note_on,0,0,11,,,,,,,,10,,,69,0
4080,note_on,0,0,11,,,,,,,,10,,,66,0
4110,note_on,30,0,2,,,,,,,,0,,,78,0
4110,note_on,0,0,2,,,,,,,,0,,,76,40
4140,note_on,60,0,5,,,,,,,,3,,,69,0
4140,note_on,0,0,4,,,,,,,,2,,,68,58
4140,note_on,0,0,6,,,,,,,,4,,,68,64
4140,note_on,30,0,2,,,,,,,,0,,,76,0
4140,note_on,0,0,5,,,,,,,,3,,,63,58
4140,note_on,60,0,4,,,,,,,,2,,,63,0
4140,note_on,60,0,6,,,,,,,,4,,,69,0
4140,note_on,0,0,2,,,,,,,,0,,,75,40
4158,note_on,78,0,10,,,,,,,,8,,,36,0
4170,note_on,30,0,2,,,,,,,,0,,,75,0
4170,note_on,0,0,2,,,,,,,,0,,,73,40
4179,note_on,39,0,5,,,,,,,,3,,,63,0
4179,note_on,39,0,4,,,,,,,,2,,,68,0
4200,note_on,0,0,11,,,,,,,,10,,,63,30
4200,note_on,0,0,11,,,,,,,,10,,,64,0
4200,note_on,30,0,2,,,,,,,,0,,,73,0
4200,note_on,0,0,2,,,,,,,,0,,,72,40
4200,note_on,60,0,6,,,,,,,,4,,,68,0
4200,note_on,0,0,8,,,,,,,,6,,,63,64
4200,note_on,21,0,4,,,,,,,,2,,,66,56
4200,note_on,120,0,11,,,,,,,,10,,,68,0
4200,note_on,120,0,8,,,,,,,,6,,,61,0
4200,note_on,0,0,3,,,,,,,,1,,,63,56
4200,note_on,0,0,6,,,,,,,,4,,,68,64
4200,note_on,240,0,9,,,,,,,,7,,,51,0
4200,note_on,0,0,9,,,,,,,,7,,,51,64
4200,note_on,42,0,10,,,,,,,,8,,,36,64
4200,note_on,240,0,3,,,,,,,,1,,,75,0
4200,note_on,240,0,7,,,,,,,,5,,,66,0
4200,note_on,0,0,7,,,,,,,,5,,,66,64
4200,note_on,21,0,5,,,,,,,,3,,,68,56
4200,note_on,0,0,11,,,,,,,,10,,,66,30
4230,note_on,0,0,2,,,,,,,,0,,,75,40
4230,note_on,30,0,2,,,,,,,,0,,,72,0
4260,note_on,0,0,6,,,,,,,,4,,,66,64
4260,note_on,0,0,4,,,,,,,,2,,,68,54
4260,note_on,60,0,4,,,,,,,,2,,,66,0
4260,note_on,60,0,6,,,,,,,,4,,,68,0
4260,note_on,0,0,2,,,,,,,,0,,,73,40
4260,note_on,30,0,2,,,,,,,,0,,,75,0
4260,note_on,60,0,5,,,,,,,,3,,,68,0
4260,note_on,0,0,5,,,,,,,,3,,,63,54
4278,note_on,78,0,10,,,,,,,,8,,,36,0
4290,note_on,30,0,2,,,,,,,,0,,,73,0
4290,note_on,0,0,2,,,,,,,,0,,,72,40
4299,note_on,39,0,4,,,,,,,,2,,,68,0
4299,note_on,39,0,5,,,,,,,,3,,,63,0
4320,note_on,120,0,3,,,,,,,,1,,,63,0
4320,note_on,120,0,7,,,,,,,,5,,,66,0
4320,note_on,120,0,9,,,,,,,,7,,,51,0
4320,note_on,21,0,4,,,,,,,,2,,,61,52
4320,note_on,0,0,11,,,,,,,,10,,,37,30
4320,note_on,0,0,11,,,,,,,,10,,,68,30
4320,note_on,0,0,11,,,,,,,,10,,,61,30
4320,note_on,0,0,11,,,,,,,,10,,,57,30
4320,note_on,0,0,11,,,,,,,,10,,,54,30
4320,note_on,0,0,11,,,,,,,,10,,,60,0
4320,note_on,0,0,11,,,,,,,,10,,,63,0
4320,note_on,120,0,11,,,,,,,,10,,,66,0
4320,note_on,0,0,3,,,,,,,,1,,,65,52
4320,note_on,21,0,5,,,,,,,,3,,,68,52
4320,note_on,30,0,2,,,,,,,,0,,,72,0
4320,note_on,0,0,2,,,,,,,,0,,,83,40
4320,note_on,120,0,8,,,,,,,,6,,,63,0
4320,note_on,0,0,8,,,,,,,,6,,,56,64
4320,note_on,60,0,6,,,,,,,,4,,,66,0
4320,note_on,0,0,6,,,,,,,,4,,,65,64
4320,note_on,0,0,2,,,,,,,,0,,,80,40
4320,note_on,42,0,10,,,,,,,,8,,,37,64
4350,note_on,30,0,2,,,,,,,,0,,,83,0
4350,note_on,0,0,2,,,,,,,,0,,,81,40
4380,note_on,0,0,2,,,,,,,,0,,,83,40
4380,note_on,0,0,5,,,,,,,,3,,,61,50
4380,note_on,60,0,5,,,,,,,,3,,,68,0
4380,note_on,30,0,2,,,,,,,,0,,,81,0
4398,note_on,78,0,10,,,,,,,,8,,,37,0
4410,note_on,0,0,2,,,,,,,,0,,,85,40
4410,note_on,30,0,2,,,,,,,,0,,,83,0
4419,note_on,39,0,5,,,,,,,,3,,,61,0
4440,note_on,30,0,2,,,,,,,,0,,,85,0
4440,note_on,42,0,10,,,,,,,,8,,,37,64
4440,note_on,120,0,9,,,,,,,,7,,,50,64
4440,note_on,0,0,11,,,,,,,,10,,,66,30
4440,note_on,0,0,11,,,,,,,,10,,,68,0
4440,note_on,120,0,11,,,,,,,,10,,,37,0
4440,note_on,0,0,3,,,,,,,,1,,,68,48
4440,note_on,120,0,3,,,,,,,,1,,,65,0
4440,note_on,0,0,6,,,,,,,,4,,,65,64
4440,note_on,0,0,2,,,,,,,,0,,,80,0
4440,note_on,0,0,2,,,,,,,,0,,,83,40
4440,note_on,120,0,6,,,,,,,,4,,,65,0
4440,note_on,21,0,5,,,,,,,,3,,,68,48
4440,note_on,120,0,4,,,,,,,,2,,,61,0
4440,note_on,0,0,4,,,,,,,,2,,,65,48
4440,note_on,120,0,7,,,,,,,,5,,,65,64
4470,note_on,30,0,2,,,,,,,,0,,,83,0
4470,note_on,0,0,2,,,,,,,,0,,,81,40
4500,note_on,0,0,9,,,,,,,,7,,,49,64
4500,note_on,30,0,2,,,,,,,,0,,,81,0
4500,note_on,0,0,5,,,,,,,,3,,,59,46
4500,note_on,60,0,9,,,,,,,,7,,,50,0
4500,note_on,60,0,5,,,,,,,,3,,,68,0
4500,note_on,0,0,2,,,,,,,,0,,,80,40
4518,note_on,78,0,10,,,,,,,,8,,,37,0
4530,note_on,0,0,2,,,,,,,,0,,,78,40
4530,note_on,30,0,2,,,,,,,,0,,,80,0
4539,note_on,39,0,5,,,,,,,,3,,,59,0
4560,note_on,0,0,11,,,,,,,,10,,,61,0
4560,note_on,120,0,11,,,,,,,,10,,,66,0
4560,note_on,0,0,11,,,,,,,,10,,,54,0
4560,note_on,30,0,2,,,,,,,,0,,,78,0
4560,note_on,0,0,2,,,,,,,,0,,,77,40
4560,note_on,21,0,5,,,,,,,,3,,,68,44
4560,note_on,0,0,11,,,,,,,,10,,,57,0
4560,note_on,120,0,6,,,,,,,,4,,,65,0
4560,note_on,0,0,9,,,,,,,,7,,,49,64
4560,note_on,240,0,8,,,,,,,,6,,,56,0
4560,note_on,0,0,8,,,,,,,,6,,,56,64
4560,note_on,0,0,7,,,,,,,,5,,,68,64
4560,note_on,120,0,7,,,,,,,,5,,,65,0
4560,note_on,42,0,10,,,,,,,,8,,,37,64
4560,note_on,60,0,9,,,,,,,,7,,,49,0
4590,note_on,0,0,2,,,,,,,,0,,,80,40
4590,note_on,30,0,2,,,,,,,,0,,,77,0
4620,note_on,0,0,9,,,,,,,,7,,,47,64
4620,note_on,60,0,9,,,,,,,,7,,,49,0
4620,note_on,60,0,5,,,,,,,,3,,,68,0
4620,note_on,0,0,5,,,,,,,,3,,,61,42
4620,note_on,0,0,2,,,,,,,,0,,,78,40
4620,note_on,30,0,2,,,,,,,,0,,,80,0
4638,note_on,78,0,10,,,,,,,,8,,,37,0
4650,note_on,0,0,2,,,,,,,,0,,,77,40
4650,note_on,30,0,2,,,,,,,,0,,,78,0
4659,note_on,39,0,5,,,,,,,,3,,,61,0
4680,note_on,0,0,2,,,,,,,,0,,,73,40
4680,note_on,0,0,2,,,,,,,,0,,,81,40
4680,note_on,30,0,2,,,,,,,,0,,,77,0
4680,note_on,120,0,8,,,,,,,,6,,,56,0
4680,note_on,0,0,9,,,,,,,,7,,,45,64
4680,note_on,60,0,9,,,,,,,,7,,,47,0
4680,note_on,0,0,11,,,,,,,,10,,,66,30
4680,note_on,0,0,11,,,,,,,,10,,,42,30
4680,note_on,0,0,7,,,,,,,,5,,,68,64
4680,note_on,120,0,7,,,,,,,,5,,,68,0
4680,note_on,21,0,5,,,,,,,,3,,,69,40
4680,note_on,42,0,10,,,,,,,,8,,,42,64
4680,note_on,120,0,11,,,,,,,,10,,,61,30
4680,note_on,0,0,11,,,,,,,,10,,,62,30
4680,note_on,240,0,4,,,,,,,,2,,,65,0
4680,note_on,0,0,4,,,,,,,,2,,,61,40
4710,note_on,0,0,2,,,,,,,,0,,,71,40
4710,note_on,30,0,2,,,,,,,,0,,,73,0
4740,note_on,30,0,2,,,,,,,,0,,,71,0
4740,note_on,60,0,5,,,,,,,,3,,,69,0
4740,note_on,60,0,7,,,,,,,,5,,,68,0
4740,note_on,0,0,5,,,,,,,,3,,,61,40
4740,note_on,0,0,2,,,,,,,,0,,,73,40
4740,note_on,0,0,7,,,,,,,,5,,,65,64
4740,note_on,60,0,4,,,,,,,,2,,,61,0
4740,note_on,0,0,4,,,,,,,,2,,,59,40
4758,note_on,78,0,10,,,,,,,,8,,,42,0
4770,note_on,30,0,2,,,,,,,,0,,,73,0
4770,note_on,0,0,2,,,,,,,,0,,,74,40
4779,note_on,39,0,5,,,,,,,,3,,,61,0
4779,note_on,39,0,4,,,,,,,,2,,,59,0
4800,note_on,0,0,9,,,,,,,,7,,,45,64
4800,note_on,0,0,2,,,,,,,,0,,,73,40
4800,note_on,0,0,2,,,,,,,,0,,,81,0
4800,note_on,42,0,10,,,,,,,,8,,,42,64
4800,note_on,360,0,3,,,,,,,,1,,,68,0
4800,note_on,0,0,7,,,,,,,,5,,,66,64
4800,note_on,60,0,7,,,,,,,,5,,,65,0
4800,note_on,21,0,4,,,,,,,,2,,,57,40
4800,note_on,120,0,9,,,,,,,,7,,,45,0
4800,note_on,120,0,8,,,,,,,,6,,,57,64
4800,note_on,21,0,5,,,,,,,,3,,,66,40
4800,note_on,0,0,11,,,,,,,,10,,,59,30
4800,note_on,0,0,11,,,,,,,,10,,,61,0
4800,note_on,120,0,11,,,,,,,,10,,,42,0
4800,note_on,0,0,3,,,,,,,,1,,,66,40
4800,note_on,30,0,2,,,,,,,,0,,,74,0
4830,note_on,30,0,2,,,,,,,,0,,,73,0
4830,note_on,0,0,2,,,,,,,,0,,,71,40
4860,note_on,60,0,4,,,,,,,,2,,,57,0
4860,note_on,30,0,2,,,,,,,,0,,,71,0
4860,note_on,0,0,2,,,,,,,,0,,,69,40
4860,note_on,0,0,4,,,,,,,,2,,,56,40
4860,note_on,60,0,5,,,,,,,,3,,,66,0
4860,note_on,0,0,5,,,,,,,,3,,,61,40
4878,note_on,78,0,10,,,,,,,,8,,,42,0
4890,note_on,30,0,2,,,,,,,,0,,,69,0
4890,note_on,0,0,2,,,,,,,,0,,,68,40
4899,note_on,39,0,4,,,,,,,,2,,,56,0
4899,note_on,39,0,5,,,,,,,,3,,,61,0
4920,note_on,0,0,11,,,,,,,,10,,,62,0
4920,note_on,0,0,3,,,,,,,,1,,,69,40
4920,note_on,120,0,3,,,,,,,,1,,,66,0
4920,note_on,120,0,7,,,,,,,,5,,,66,0
4920,note_on,21,0,5,,,,,,,,3,,,66,40
4920,note_on,120,0,9,,,,,,,,7,,,45,0
4920,note_on,120,0,8,,,,,,,,6,,,57,0
4920,note_on,120,0,11,,,,,,,,10,,,59,0
4920,note_on,42,0,10,,,,,,,,8,,,42,64
4920,note_on,0,0,2,,,,,,,,0,,,66,40
4920,note_on,30,0,2,,,,,,,,0,,,68,0
4920,note_on,360,0,6,,,,,,,,4,,,73,64
4920,note_on,21,0,4,,,,,,,,2,,,57,40
4920,note_on,0,0,8,,,,,,,,6,,,61,64
4920,note_on,0,0,11,,,,,,,,10,,,66,0
4950,note_on,0,0,2,,,,,,,,0,,,69,40
4950,note_on,30,0,2,,,,,,,,0,,,66,0
4980,note_on,60,0,4,,,,,,,,2,,,57,0
4980,note_on,0,0,5,,,,,,,,3,,,61,40
4980,note_on,0,0,4,,,,,,,,2,,,61,40
4980,note_on,0,0,6,,,,,,,,4,,,69,64
4980,note_on,60,0,6,,,,,,,,4,,,73,0
4980,note_on,0,0,2,,,,,,,,0,,,68,40
4980,note_on,30,0,2,,,,,,,,0,,,69,0
4980,note_on,60,0,5,,,,,,,,3,,,66,0
4998,note_on,78,0,10,,,,,,,,8,,,42,0
5010,note_on,0,0,2,,,,,,,,0,,,66,40
5010,note_on,30,0,2,,,,,,,,0,,,68,0
5019,note_on,39,0,5,,,,,,,,3,,,61,0
5019,note_on,39,0,4,,,,,,,,2,,,61,0
5040,note_on,0,0,11,,,,,,,,10,,,54,30
5040,note_on,42,0,10,,,,,,,,8,,,38,64
5040,note_on,21,0,5,,,,,,,,3,,,66,40
5040,note_on,120,0,11,,,,,,,,10,,,50,30
5040,note_on,0,0,6,,,,,,,,4,,,66,64
5040,note_on,0,0,8,,,,,,,,6,,,61,64
5040,note_on,120,0,8,,,,,,,,6,,,61,0
5040,note_on,0,0,2,,,,,,,,0,,,78,40
5040,note_on,0,0,2,,,,,,,,0,,,78,40
5040,note_on,30,0,2,,,,,,,,0,,,66,0
5040,note_on,60,0,6,,,,,,,,4,,,69,0
5040,note_on,0,0,11,,,,,,,,10,,,38,30
5040,note_on,0,0,11,,,,,,,,10,,,61,30
5040,note_on,21,0,4,,,,,,,,2,,,66,40
5070,note_on,0,0,2,,,,,,,,0,,,76,40
5070,note_on,30,0,2,,,,,,,,0,,,78,0
5100,note_on,60,0,5,,,,,,,,3,,,66,0
5100,note_on,180,0,3,,,,,,,,1,,,69,0
5100,note_on,30,0,2,,,,,,,,0,,,76,0
5100,note_on,0,0,2,,,,,,,,0,,,78,40
5100,note_on,60,0,8,,,,,,,,6,,,61,0
5100,note_on,0,0,8,,,,,,,,6,,,58,64
5100,note_on,0,0,5,,,,,,,,3,,,61,40
5100,note_on,0,0,3,,,,,,,,1,,,66,40
5118,note_on,78,0,10,,,,,,,,8,,,38,0
5130,note_on,30,0,2,,,,,,,,0,,,78,0
5130,note_on,0,0,2,,,,,,,,0,,,79,40
5139,note_on,39,0,5,,,,,,,,3,,,61,0
5160,note_on,0,0,11,,,,,,,,10,,,61,0
5160,note_on,42,0,10,,,,,,,,8,,,38,64
5160,note_on,120,0,11,,,,,,,,10,,,38,0
5160,note_on,21,0,5,,,,,,,,3,,,66,40
5160,note_on,120,0,6,,,,,,,,4,,,66,0
5160,note_on,0,0,6,,,,,,,,4,,,66,64
5160,note_on,60,0,3,,,,,,,,1,,,66,0
5160,note_on,0,0,11,,,,,,,,10,,,59,30
5160,note_on,0,0,2,,,,,,,,0,,,78,40
5160,note_on,0,0,2,,,,,,,,0,,,78,0
5160,note_on,30,0,2,,,,,,,,0,,,79,0
5160,note_on,0,0,3,,,,,,,,1,,,71,40
5160,note_on,0,0,8,,,,,,,,6,,,59,64
5160,note_on,60,0,8,,,,,,,,6,,,58,0
5190,note_on,0,0,2,,,,,,,,0,,,76,40
5190,note_on,30,0,2,,,,,,,,0,,,78,0
5220,note_on,0,0,4,,,,,,,,2,,,64,40
5220,note_on,180,0,4,,,,,,,,2,,,66,0
5220,note_on,0,0,3,,,,,,,,1,,,73,40
5220,note_on,0,0,5,,,,,,,,3,,,58,40
5220,note_on,60,0,3,,,,,,,,1,,,71,0
5220,note_on,60,0,5,,,,,,,,3,,,66,0
5220,note_on,0,0,2,,,,,,,,0,,,74,40
5220,note_on,30,0,2,,,,,,,,0,,,76,0
5238,note_on,78,0,10,,,,,,,,8,,,38,0
5250,note_on,0,0,2,,,,,,,,0,,,73,40
5250,note_on,30,0,2,,,,,,,,0,,,74,0
5259,note_on,39,0,5,,,,,,,,3,,,58,0
5280,note_on,60,0,4,,,,,,,,2,,,64,0
5280,note_on,360,0,7,,,,,,,,5,,,66,64
5280,note_on,60,0,3,,,,,,,,1,,,73,0
5280,note_on,0,0,3,,,,,,,,1,,,74,40
5280,note_on,21,0,5,,,,,,,,3,,,66,40
5280,note_on,0,0,6,,,,,,,,4,,,66,64
5280,note_on,120,0,6,,,,,,,,4,,,66,0
5280,note_on,0,0,4,,,,,,,,2,,,66,40
5280,note_on,120,0,8,,,,,,,,6,,,59,0
5280,note_on,0,0,11,,,,,,,,10,,,50,0
5280,note_on,0,0,11,,,,,,,,10,,,54,0
5280,note_on,120,0,11,,,,,,,,10,,,59,0
5280,note_on,42,0,10,,,,,,,,8,,,38,64
5280,note_on,30,0,2,,,,,,,,0,,,73,0
5280,note_on,0,0,2,,,,,,,,0,,,71,40
5310,note_on,30,0,2,,,,,,,,0,,,71,0
5310,note_on,0,0,2,,,,,,,,0,,,74,40
5340,note_on,30,0,2,,,,,,,,0,,,74,0
5340,note_on,0,0,2,,,,,,,,0,,,73,40
5340,note_on,0,0,7,,,,,,,,5,,,62,64
5340,note_on,60,0,7,,,,,,,,5,,,66,0
5340,note_on,0,0,4,,,,,,,,2,,,70,40
5340,note_on,60,0,4,,,,,,,,2,,,66,0
5340,note_on,60,0,5,,,,,,,,3,,,66,0
5340,note_on,0,0,5,,,,,,,,3,,,62,40
5358,note_on,78,0,10,,,,,,,,8,,,38,0
5370,note_on,30,0,2,,,,,,,,0,,,73,0
5370,note_on,0,0,2,,,,,,,,0,,,71,40
5379,note_on,39,0,4,,,,,,,,2,,,70,0
5379,note_on,39,0,5,,,,,,,,3,,,62,0
5400,note_on,21,0,5,,,,,,,,3,,,65,40
5400,note_on,0,0,7,,,,,,,,5,,,59,64
5400,note_on,0,0,2,,,,,,,,0,,,74,40
5400,note_on,60,0,7,,,,,,,,5,,,62,0
5400,note_on,21,0,4,,,,,,,,2,,,71,40
5400,note_on,120,0,11,,,,,,,,10,,,55,30
5400,note_on,0,0,11,,,,,,,,10,,,59,30
5400,note_on,0,0,11,,,,,,,,10,,,62,30
5400,note_on,0,0,11,,,,,,,,10,,,65,30
5400,note_on,0,0,11,,,,,,,,10,,,43,30
5400,note_on,30,0,2,,,,,,,,0,,,71,0
5400,note_on,0,0,2,,,,,,,,0,,,83,40
5400,note_on,120,0,6,,,,,,,,4,,,66,0
5400,note_on,42,0,10,,,,,,,,8,,,43,64
5400,note_on,0,0,6,,,,,,,,4,,,74,64
5430,note_on,0,0,2,,,,,,,,0,,,83,0
5430,note_on,0,0,2,,,,,,,,0,,,81,40
5430,note_on,30,0,2,,,,,,,,0,,,74,0
5430,note_on,0,0,2,,,,,,,,0,,,72,40
5460,note_on,60,0,5,,,,,,,,3,,,65,0
5460,note_on,30,0,2,,,,,,,,0,,,72,0
5460,note_on,0,0,2,,,,,,,,0,,,74,40
5460,note_on,0,0,3,,,,,,,,1,,,67,40
5460,note_on,180,0,3,,,,,,,,1,,,74,0
5460,note_on,0,0,2,,,,,,,,0,,,83,40
5460,note_on,0,0,5,,,,,,,,3,,,62,40
5460,note_on,0,0,2,,,,,,,,0,,,81,0
5478,note_on,78,0,10,,,,,,,,8,,,43,0
5490,note_on,0,0,2,,,,,,,,0,,,76,40
5490,note_on,0,0,2,,,,,,,,0,,,84,40
5490,note_on,0,0,2,,,,,,,,0,,,83,0
5490,note_on,30,0,2,,,,,,,,0,,,74,0
5499,note_on,39,0,5,,,,,,,,3,,,62,0
5520,note_on,21,0,5,,,,,,,,3,,,65,40
5520,note_on,0,0,2,,,,,,,,0,,,74,40
5520,note_on,0,0,2,,,,,,,,0,,,83,40
5520,note_on,0,0,2,,,,,,,,0,,,84,0
5520,note_on,30,0,2,,,,,,,,0,,,76,0
5520,note_on,60,0,3,,,,,,,,1,,,67,0
5520,note_on,0,0,3,,,,,,,,1,,,69,40
5520,note_on,0,0,11,,,,,,,,10,,,62,0
5520,note_on,42,0,10,,,,,,,,8,,,43,64
5520,note_on,0,0,11,,,,,,,,10,,,59,0
5520,note_on,0,0,11,,,,,,,,10,,,65,0
5520,note_on,0,0,11,,,,,,,,10,,,55,0
5520,note_on,120,0,11,,,,,,,,10,,,43,0
5520,note_on,0,0,7,,,,,,,,5,,,59,64
5520,note_on,120,0,7,,,,,,,,5,,,59,0
5550,note_on,30,0,2,,,,,,,,0,,,74,0
5550,note_on,0,0,2,,,,,,,,0,,,83,0
5550,note_on,0,0,2,,,,,,,,0,,,81,40
5550,note_on,0,0,2,,,,,,,,0,,,72,40
5580,note_on,0,0,2,,,,,,,,0,,,81,0
5580,note_on,0,0,2,,,,,,,,0,,,79,40
5580,note_on,0,0,2,,,,,,,,0,,,71,40
5580,note_on,0,0,5,,,,,,,,3,,,62,40
5580,note_on,60,0,5,,,,,,,,3,,,65,0
5580,note_on,0,0,3,,,,,,,,1,,,71,40
5580,note_on,60,0,3,,,,,,,,1,,,69,0
5580,note_on,30,0,2,,,,,,,,0,,,72,0
5598,note_on,78,0,10,,,,,,,,8,,,43,0
5610,note_on,30,0,2,,,,,,,,0,,,71,0
5610,note_on,0,0,2,,,,,,,,0,,,69,40
5610,note_on,0,0,2,,,,,,,,0,,,81,40
5610,note_on,0,0,2,,,,,,,,0,,,79,0
5619,note_on,39,0,5,,,,,,,,3,,,62,0
5640,note_on,0,0,2,,,,,,,,0,,,67,40
5640,note_on,0,0,2,,,,,,,,0,,,83,40
5640,note_on,0,0,2,,,,,,,,0,,,81,0
5640,note_on,21,0,5,,,,,,,,3,,,65,40
5640,note_on,30,0,2,,,,,,,,0,,,69,0
5640,note_on,60,0,3,,,,,,,,1,,,71,0
5640,note_on,360,0,8,,,,,,,,6,,,59,64
5640,note_on,120,0,7,,,,,,,,5,,,59,0
5640,note_on,0,0,7,,,,,,,,5,,,59,64
5640,note_on,0,0,3,,,,,,,,1,,,72,40
5640,note_on,42,0,10,,,,,,,,8,,,43,64
5670,note_on,0,0,2,,,,,,,,0,,,71,40
5670,note_on,0,0,2,,,,,,,,0,,,79,40
5670,note_on,0,0,2,,,,,,,,0,,,83,0
5670,note_on,30,0,2,,,,,,,,0,,,67,0
5700,note_on,30,0,2,,,,,,,,0,,,71,0
5700,note_on,0,0,8,,,,,,,,6,,,55,64
5700,note_on,60,0,3,,,,,,,,1,,,72,0
5700,note_on,0,0,3,,,,,,,,1,,,74,40
5700,note_on,0,0,2,,,,,,,,0,,,79,0
5700,note_on,60,0,8,,,,,,,,6,,,59,0
5700,note_on,0,0,2,,,,,,,,0,,,69,40
5700,note_on,0,0,2,,,,,,,,0,,,78,40
5700,note_on,60,0,5,,,,,,,,3,,,65,0
5700,note_on,0,0,5,,,,,,,,3,,,59,40
5718,note_on,78,0,10,,,,,,,,8,,,43,0
5730,note_on,0,0,2,,,,,,,,0,,,67,40
5730,note_on,0,0,2,,,,,,,,0,,,78,0
5730,note_on,0,0,2,,,,,,,,0,,,76,40
5730,note_on,30,0,2,,,,,,,,0,,,69,0
5739,note_on,39,0,5,,,,,,,,3,,,59,0
5760,note_on,0,0,2,,,,,,,,0,,,76,40
5760,note_on,240,0,11,,,,,,,,10,,,55,30
5760,note_on,0,0,11,,,,,,,,10,,,59,30
5760,note_on,60,0,3,,,,,,,,1,,,74,0
5760,note_on,0,0,7,,,,,,,,5,,,67,64
5760,note_on,120,0,7,,,,,,,,5,,,59,0
5760,note_on,0,0,11,,,,,,,,10,,,62,30
5760,note_on,0,0,11,,,,,,,,10,,,48,30
5760,note_on,0,0,2,,,,,,,,0,,,79,40
5760,note_on,60,0,8,,,,,,,,6,,,55,0
5760,note_on,0,0,8,,,,,,,,6,,,52,64
5760,note_on,0,0,3,,,,,,,,1,,,76,40
5760,note_on,42,0,10,,,,,,,,8,,,48,64
5760,note_on,21,0,5,,,,,,,,3,,,60,40
5760,note_on,0,0,2,,,,,,,,0,,,76,0
5760,note_on,30,0,2,,,,,,,,0,,,67,0
5820,note_on,60,0,5,,,,,,,,3,,,60,0
5820,note_on,0,0,3,,,,,,,,1,,,72,40
5820,note_on,60,0,3,,,,,,,,1,,,76,0
5820,note_on,0,0,4,,,,,,,,2,,,67,40
5820,note_on,0,0,5,,,,,,,,3,,,64,40
5820,note_on,420,0,4,,,,,,,,2,,,71,0
5838,note_on,78,0,10,,,,,,,,8,,,48,0
5850,note_on,30,0,3,,,,,,,,1,,,72,0
5850,note_on,30,0,5,,,,,,,,3,,,64,0
5850,note_on,0,0,3,,,,,,,,1,,,74,40
5850,note_on,0,0,5,,,,,,,,3,,,65,40
5880,note_on,0,0,5,,,,,,,,3,,,67,40
5880,note_on,0,0,11,,,,,,,,10,,,55,0
5880,note_on,0,0,4,,,,,,,,2,,,72,40
5880,note_on,0,0,11,,,,,,,,10,,,59,0
5880,note_on,0,0,6,,,,,,,,4,,,72,64
5880,note_on,0,0,8,,,,,,,,6,,,52,64
5880,note_on,0,0,3,,,,,,,,1,,,76,40
5880,note_on,120,0,8,,,,,,,,6,,,52,0
5880,note_on,480,0,6,,,,,,,,4,,,74,0
5880,note_on,60,0,4,,,,,,,,2,,,67,0
5880,note_on,30,0,5,,,,,,,,3,,,65,0
5880,note_on,120,0,11,,,,,,,,10,,,48,0
5880,note_on,42,0,10,,,,,,,,8,,,48,64
5880,note_on,30,0,3,,,,,,,,1,,,74,0
5880,note_on,0,0,11,,,,,,,,10,,,62,0
5940,note_on,0,0,6,,,,,,,,4,,,71,64
5940,note_on,60,0,6,,,,,,,,4,,,72,0
5940,note_on,0,0,5,,,,,,,,3,,,65,40
5940,note_on,0,0,3,,,,,,,,1,,,78,40
5940,note_on,60,0,5,,,,,,,,3,,,67,0
5940,note_on,0,0,4,,,,,,,,2,,,74,40
5940,note_on,60,0,3,,,,,,,,1,,,76,0
5940,note_on,60,0,4,,,,,,,,2,,,72,0
5958,note_on,78,0,10,,,,,,,,8,,,48,0
5979,note_on,39,0,5,,,,,,,,3,,,65,0
5979,note_on,39,0,4,,,,,,,,2,,,74,0
5979,note_on,39,0,3,,,,,,,,1,,,78,0
6000,note_on,1080,0,9,,,,,,,,7,,,52,64
6000,note_on,21,0,4,,,,,,,,2,,,76,40
6000,note_on,0,0,6,,,,,,,,4,,,76,64
6000,note_on,21,0,5,,,,,,,,3,,,64,40
6000,note_on,21,0,3,,,,,,,,1,,,79,40
6000,note_on,60,0,6,,,,,,,,4,,,71,0
6000,note_on,0,0,8,,,,,,,,6,,,52,64
6000,note_on,42,0,10,,,,,,,,8,,,48,64
6000,note_on,120,0,8,,,,,,,,6,,,52,0
6060,note_on,0,0,9,,,,,,,,7,,,48,64
6060,note_on,60,0,9,,,,,,,,7,,,52,0
6060,note_on,60,0,3,,,,,,,,1,,,79,0
6060,note_on,0,0,3,,,,,,,,1,,,76,40
6060,note_on,0,0,5,,,,,,,,3,,,67,40
6060,note_on,60,0,5,,,,,,,,3,,,64,0
6078,note_on,78,0,10,,,,,,,,8,,,48,0
6099,note_on,39,0,5,,,,,,,,3,,,67,0
6099,note_on,39,0,3,,,,,,,,1,,,76,0
6120,note_on,0,0,11,,,,,,,,10,,,70,30
6120,note_on,240,0,11,,,,,,,,10,,,61,30
6120,note_on,60,0,9,,,,,,,,7,,,48,0
6120,note_on,0,0,9,,,,,,,,7,,,46,64
6120,note_on,0,0,11,,,,,,,,10,,,67,30
6120,note_on,0,0,11,,,,,,,,10,,,49,30
6120,note_on,120,0,8,,,,,,,,6,,,52,0
6120,note_on,21,0,3,,,,,,,,1,,,73,40
6120,note_on,120,0,6,,,,,,,,4,,,76,0
6120,note_on,0,0,6,,,,,,,,4,,,76,64
6120,note_on,42,0,10,,,,,,,,8,,,49,64
6120,note_on,0,0,8,,,,,,,,6,,,61,64
6120,note_on,21,0,5,,,,,,,,3,,,67,40
6180,note_on,60,0,5,,,,,,,,3,,,67,0
6180,note_on,0,0,5,,,,,,,,3,,,64,40
6198,note_on,78,0,10,,,,,,,,8,,,49,0
6219,note_on,39,0,5,,,,,,,,3,,,64,0
6240,note_on,120,0,11,,,,,,,,10,,,49,0
6240,note_on,42,0,10,,,,,,,,8,,,49,64
6240,note_on,120,0,9,,,,,,,,7,,,46,0
6240,note_on,0,0,9,,,,,,,,7,,,46,64
6240,note_on,0,0,11,,,,,,,,10,,,61,0
6240,note_on,0,0,11,,,,,,,,10,,,67,0
6240,note_on,21,0,5,,,,,,,,3,,,61,40
6240,note_on,0,0,7,,,,,,,,5,,,66,64
6240,note_on,0,0,11,,,,,,,,10,,,70,0
6240,note_on,480,0,7,,,,,,,,5,,,67,0
6300,note_on,60,0,5,,,,,,,,3,,,61,0
6300,note_on,0,0,5,,,,,,,,3,,,62,40
6318,note_on,78,0,10,,,,,,,,8,,,49,0
6360,note_on,120,0,9,,,,,,,,7,,,46,0
6360,note_on,42,0,10,,,,,,,,8,,,49,64
6360,note_on,0,0,6,,,,,,,,4,,,67,64
6360,note_on,120,0,7,,,,,,,,5,,,66,0
6360,note_on,0,0,7,,,,,,,,5,,,64,64
6360,note_on,0,0,5,,,,,,,,3,,,64,40
6360,note_on,60,0,5,,,,,,,,3,,,62,0
6360,note_on,0,0,9,,,,,,,,7,,,46,64
6360,note_on,240,0,6,,,,,,,,4,,,76,0
6420,note_on,60,0,5,,,,,,,,3,,,64,0
6420,note_on,0,0,5,,,,,,,,3,,,67,40
6438,note_on,78,0,10,,,,,,,,8,,,49,0
6480,note_on,42,0,10,,,,,,,,8,,,46,64
6480,note_on,60,0,5,,,,,,,,3,,,67,0
6480,note_on,120,0,6,,,,,,,,4,,,67,0
6480,note_on,0,0,11,,,,,,,,10,,,61,30
6480,note_on,0,0,11,,,,,,,,10,,,46,30
6480,note_on,0,0,9,,,,,,,,7,,,55,64
6480,note_on,120,0,9,,,,,,,,7,,,46,0
6480,note_on,240,0,11,,,,,,,,10,,,58,30
6480,note_on,0,0,11,,,,,,,,10,,,64,30
6480,note_on,120,0,7,,,,,,,,5,,,64,0
6480,note_on,0,0,7,,,,,,,,5,,,64,64
6480,note_on,0,0,11,,,,,,,,10,,,67,30
6480,note_on,0,0,5,,,,,,,,3,,,58,40
6510,note_on,750,0,2,,,,,,,,0,,,79,0
6510,note_on,0,0,2,,,,,,,,0,,,78,40
6540,note_on,30,0,2,,,,,,,,0,,,78,0
6540,note_on,0,0,2,,,,,,,,0,,,79,40
6558,note_on,78,0,10,,,,,,,,8,,,46,0
6570,note_on,30,0,2,,,,,,,,0,,,79,0
6570,note_on,0,0,2,,,,,,,,0,,,81,40
6600,note_on,0,0,2,,,,,,,,0,,,79,40
6600,note_on,30,0,2,,,,,,,,0,,,81,0
6600,note_on,0,0,11,,,,,,,,10,,,64,0
6600,note_on,0,0,11,,,,,,,,10,,,67,0
6600,note_on,0,0,11,,,,,,,,10,,,61,0
6600,note_on,0,0,11,,,,,,,,10,,,58,0
6600,note_on,120,0,11,,,,,,,,10,,,46,0
6600,note_on,0,0,8,,,,,,,,6,,,59,64
6600,note_on,42,0,10,,,,,,,,8,,,46,64
6600,note_on,120,0,6,,,,,,,,4,,,76,64
6600,note_on,480,0,8,,,,,,,,6,,,61,0
6630,note_on,30,0,2,,,,,,,,0,,,79,0
6630,note_on,0,0,2,,,,,,,,0,,,78,40
6660,note_on,0,0,6,,,,,,,,4,,,74,64
6660,note_on,60,0,6,,,,,,,,4,,,76,0
6660,note_on,0,0,2,,,,,,,,0,,,76,40
6660,note_on,30,0,2,,,,,,,,0,,,78,0
6678,note_on,78,0,10,,,,,,,,8,,,46,0
6690,note_on,0,0,2,,,,,,,,0,,,74,40
6690,note_on,30,0,2,,,,,,,,0,,,76,0
6720,note_on,0,0,2,,,,,,,,0,,,76,40
6720,note_on,30,0,2,,,,,,,,0,,,74,0
6720,note_on,0,0,8,,,,,,,,6,,,58,64
6720,note_on,0,0,7,,,,,,,,5,,,64,64
6720,note_on,42,0,10,,,,,,,,8,,,46,64
6720,note_on,60,0,6,,,,,,,,4,,,74,0
6720,note_on,120,0,8,,,,,,,,6,,,59,0
6720,note_on,240,0,7,,,,,,,,5,,,64,0
6720,note_on,0,0,6,,,,,,,,4,,,73,64
6750,note_on,30,0,2,,,,,,,,0,,,76,0
6750,note_on,0,0,2,,,,,,,,0,,,73,40
6780,note_on,0,0,2,,,,,,,,0,,,74,40
6780,note_on,30,0,2,,,,,,,,0,,,73,0
6780,note_on,60,0,6,,,,,,,,4,,,73,0
6780,note_on,0,0,6,,,,,,,,4,,,71,64
6798,note_on,78,0,10,,,,,,,,8,,,46,0
6810,note_on,30,0,2,,,,,,,,0,,,74,0
6810,note_on,0,0,2,,,,,,,,0,,,76,40
6840,note_on,0,0,2,,,,,,,,0,,,70,40
6840,note_on,0,0,11,,,,,,,,10,,,67,30
6840,note_on,0,0,11,,,,,,,,10,,,42,30
6840,note_on,240,0,11,,,,,,,,10,,,58,30
6840,note_on,42,0,10,,,,,,,,8,,,42,64
6840,note_on,120,0,7,,,,,,,,5,,,64,0
6840,note_on,30,0,2,,,,,,,,0,,,76,0
6840,note_on,0,0,11,,,,,,,,10,,,64,30
6840,note_on,0,0,11,,,,,,,,10,,,61,30
6840,note_on,0,0,8,,,,,,,,6,,,64,64
6840,note_on,120,0,8,,,,,,,,6,,,58,0
6840,note_on,0,0,6,,,,,,,,4,,,70,64
6840,note_on,60,0,6,,,,,,,,4,,,71,0
6870,note_on,0,0,2,,,,,,,,0,,,71,40
6870,note_on,0,0,2,,,,,,,,0,,,74,40
6870,note_on,0,0,2,,,,,,,,0,,,76,0
6870,note_on,30,0,2,,,,,,,,0,,,70,0
6900,note_on,0,0,4,,,,,,,,2,,,73,40
6900,note_on,900,0,4,,,,,,,,2,,,76,0
6900,note_on,0,0,2,,,,,,,,0,,,76,40
6900,note_on,0,0,2,,,,,,,,0,,,74,0
6900,note_on,420,0,5,,,,,,,,3,,,58,0
6900,note_on,0,0,5,,,,,,,,3,,,59,40
6900,note_on,0,0,2,,,,,,,,0,,,73,40
6900,note_on,30,0,2,,,,,,,,0,,,71,0
6918,note_on,78,0,10,,,,,,,,8,,,42,0
6930,note_on,0,0,2,,,,,,,,0,,,76,0
6930,note_on,0,0,2,,,,,,,,0,,,78,40
6930,note_on,0,0,2,,,,,,,,0,,,74,40
6930,note_on,30,0,2,,,,,,,,0,,,73,0
6960,note_on,120,0,7,,,,,,,,5,,,61,64
6960,note_on,60,0,4,,,,,,,,2,,,73,0
6960,note_on,0,0,4,,,,,,,,2,,,70,40
6960,note_on,0,0,2,,,,,,,,0,,,76,40
6960,note_on,30,0,2,,,,,,,,0,,,74,0
6960,note_on,0,0,2,,,,,,,,0,,,78,0
6960,note_on,0,0,9,,,,,,,,7,,,54,64
6960,note_on,0,0,2,,,,,,,,0,,,73,40
6960,note_on,120,0,6,,,,,,,,4,,,70,0
6960,note_on,0,0,5,,,,,,,,3,,,61,40
6960,note_on,60,0,5,,,,,,,,3,,,59,0
6960,note_on,0,0,11,,,,,,,,10,,,67,0
6960,note_on,480,0,9,,,,,,,,7,,,55,0
6960,note_on,0,0,11,,,,,,,,10,,,66,30
6960,note_on,120,0,11,,,,,,,,10,,,42,0
6960,note_on,0,0,6,,,,,,,,4,,,70,64
6960,note_on,42,0,10,,,,,,,,8,,,42,64
6990,note_on,30,0,2,,,,,,,,0,,,73,0
6990,note_on,0,0,2,,,,,,,,0,,,76,0
6990,note_on,0,0,2,,,,,,,,0,,,71,40
6990,note_on,0,0,2,,,,,,,,0,,,74,40
7020,note_on,0,0,2,,,,,,,,0,,,73,40
7020,note_on,0,0,5,,,,,,,,3,,,62,40
7020,note_on,0,0,2,,,,,,,,0,,,70,40
7020,note_on,30,0,2,,,,,,,,0,,,71,0
7020,note_on,60,0,5,,,,,,,,3,,,61,0
7020,note_on,0,0,2,,,,,,,,0,,,74,0
7020,note_on,60,0,4,,,,,,,,2,,,70,0
7020,note_on,0,0,4,,,,,,,,2,,,71,40
7038,note_on,78,0,10,,,,,,,,8,,,42,0
7050,note_on,30,0,2,,,,,,,,0,,,70,0
7050,note_on,0,0,2,,,,,,,,0,,,73,0
7050,note_on,0,0,2,,,,,,,,0,,,71,40
7050,note_on,0,0,2,,,,,,,,0,,,68,40
7059,note_on,39,0,4,,,,,,,,2,,,71,0
7059,note_on,39,0,5,,,,,,,,3,,,62,0
7080,note_on,240,0,8,,,,,,,,6,,,64,0
7080,note_on,21,0,5,,,,,,,,3,,,64,40
7080,note_on,120,0,6,,,,,,,,4,,,70,0
7080,note_on,0,0,8,,,,,,,,6,,,54,64
7080,note_on,120,0,9,,,,,,,,7,,,54,0
7080,note_on,0,0,2,,,,,,,,0,,,71,0
7080,note_on,0,0,2,,,,,,,,0,,,66,40
7080,note_on,120,0,11,,,,,,,,10,,,66,0
7080,note_on,0,0,2,,,,,,,,0,,,70,40
7080,note_on,0,0,7,,,,,,,,5,,,70,64
7080,note_on,30,0,2,,,,,,,,0,,,68,0
7080,note_on,42,0,10,,,,,,,,8,,,42,64
7080,note_on,21,0,4,,,,,,,,2,,,73,40
7080,note_on,0,0,9,,,,,,,,7,,,52,64
7080,note_on,120,0,7,,,,,,,,5,,,61,0
7110,note_on,0,0,2,,,,,,,,0,,,70,40
7110,note_on,0,0,2,,,,,,,,0,,,70,0
7110,note_on,0,0,2,,,,,,,,0,,,73,40
7110,note_on,30,0,2,,,,,,,,0,,,66,0
7140,note_on,60,0,5,,,,,,,,3,,,64,0
7140,note_on,0,0,2,,,,,,,,0,,,68,40
7140,note_on,0,0,2,,,,,,,,0,,,71,40
7140,note_on,0,0,5,,,,,,,,3,,,61,40
7140,note_on,0,0,2,,,,,,,,0,,,73,0
7140,note_on,30,0,2,,,,,,,,0,,,70,0
7140,note_on,60,0,4,,,,,,,,2,,,73,0
7140,note_on,0,0,4,,,,,,,,2,,,64,40
7158,note_on,78,0,10,,,,,,,,8,,,42,0
7170,note_on,30,0,2,,,,,,,,0,,,68,0
7170,note_on,0,0,2,,,,,,,,0,,,70,40
7170,note_on,0,0,2,,,,,,,,0,,,71,0
7170,note_on,0,0,2,,,,,,,,0,,,66,40
7179,note_on,39,0,5,,,,,,,,3,,,61,0
7179,note_on,39,0,4,,,,,,,,2,,,64,0
7200,note_on,1080,0,3,,,,,,,,1,,,73,0
7200,note_on,42,0,10,,,,,,,,8,,,47,64
7200,note_on,120,0,7,,,,,,,,5,,,70,0
7200,note_on,0,0,11,,,,,,,,10,,,61,0
7200,note_on,120,0,11,,,,,,,,10,,,64,0
7200,note_on,0,0,11,,,,,,,,10,,,58,0
7200,note_on,0,0,11,,,,,,,,10,,,59,30
7200,note_on,0,0,11,,,,,,,,10,,,62,30
7200,note_on,0,0,11,,,,,,,,10,,,47,30
7200,note_on,21,0,5,,,,,,,,3,,,54,40
7200,note_on,0,0,7,,,,,,,,5,,,71,64
7200,note_on,0,0,3,,,,,,,,1,,,71,40
7200,note_on,120,0,9,,,,,,,,7,,,52,0
7200,note_on,0,0,9,,,,,,,,7,,,50,64
7200,note_on,0,0,2,,,,,,,,0,,,70,0
7200,note_on,0,0,2,,,,,,,,0,,,78,40
7200,note_on,0,0,2,,,,,,,,0,,,74,40
7200,note_on,21,0,4,,,,,,,,2,,,62,40
7200,note_on,120,0,8,,,,,,,,6,,,54,0
7200,note_on,30,0,2,,,,,,,,0,,,66,0
7230,note_on,30,0,2,,,,,,,,0,,,78,0
7230,note_on,0,0,2,,,,,,,,0,,,76,40
7260,note_on,30,0,2,,,,,,,,0,,,76,0
7260,note_on,0,0,2,,,,,,,,0,,,78,40
7278,note_on,78,0,10,,,,,,,,8,,,47,0
7290,note_on,30,0,2,,,,,,,,0,,,78,0
7290,note_on,0,0,2,,,,,,,,0,,,79,40
7320,note_on,120,0,8,,,,,,,,6,,,59,64
7320,note_on,240,0,6,,,,,,,,4,,,71,64
7320,note_on,30,0,2,,,,,,,,0,,,79,0
7320,note_on,0,0,7,,,,,,,,5,,,62,64
7320,note_on,0,0,2,,,,,,,,0,,,78,40
7320,note_on,0,0,2,,,,,,,,0,,,71,40
7320,note_on,0,0,2,,,,,,,,0,,,74,0
7320,note_on,120,0,7,,,,,,,,5,,,71,0
7320,note_on,42,0,10,,,,,,,,8,,,47,64
7320,note_on,120,0,11,,,,,,,,10,,,47,0
7320,note_on,0,0,11,,,,,,,,10,,,62,0
7320,note_on,0,0,11,,,,,,,,10,,,59,0
7350,note_on,0,0,2,,,,,,,,0,,,76,40
7350,note_on,30,0,2,,,,,,,,0,,,78,0
7380,note_on,30,0,2,,,,,,,,0,,,76,0
7380,note_on,0,0,2,,,,,,,,0,,,74,40
7380,note_on,60,0,6,,,,,,,,4,,,71,0
7380,note_on,0,0,6,,,,,,,,4,,,73,64
7380,note_on,60,0,8,,,,,,,,6,,,59,0
7380,note_on,0,0,8,,,,,,,,6,,,57,64
7380,note_on,60,0,7,,,,,,,,5,,,62,0
7380,note_on,0,0,7,,,,,,,,5,,,64,64
7398,note_on,78,0,10,,,,,,,,8,,,47,0
7410,note_on,30,0,2,,,,,,,,0,,,74,0
7410,note_on,0,0,2,,,,,,,,0,,,73,40
7440,note_on,30,0,2,,,,,,,,0,,,73,0
7440,note_on,0,0,2,,,,,,,,0,,,71,40
7440,note_on,240,0,9,,,,,,,,7,,,50,0
7440,note_on,0,0,8,,,,,,,,6,,,55,64
7440,note_on,60,0,8,,,,,,,,6,,,57,0
7440,note_on,0,0,9,,,,,,,,7,,,50,64
7440,note_on,60,0,6,,,,,,,,4,,,73,0
7440,note_on,42,0,10,,,,,,,,8,,,47,64
7440,note_on,0,0,7,,,,,,,,5,,,66,64
7440,note_on,60,0,7,,,,,,,,5,,,64,0
7440,note_on,0,0,6,,,,,,,,4,,,74,64
7470,note_on,0,0,2,,,,,,,,0,,,74,40
7470,note_on,30,0,2,,,,,,,,0,,,71,0
7500,note_on,60,0,6,,,,,,,,4,,,74,0
7500,note_on,0,0,7,,,,,,,,5,,,62,64
7500,note_on,60,0,7,,,,,,,,5,,,66,0
7500,note_on,0,0,8,,,,,,,,6,,,54,64
7500,note_on,60,0,8,,,,,,,,6,,,55,0
7500,note_on,0,0,2,,,,,,,,0,,,72,40
7500,note_on,0,0,6,,,,,,,,4,,,67,64
7500,note_on,30,0,2,,,,,,,,0,,,74,0
7518,note_on,78,0,10,,,,,,,,8,,,47,0
7530,note_on,30,0,2,,,,,,,,0,,,72,0
7530,note_on,0,0,2,,,,,,,,0,,,71,40
7560,note_on,0,0,8,,,,,,,,6,,,52,64
7560,note_on,120,0,9,,,,,,,,7,,,50,0
7560,note_on,30,0,2,,,,,,,,0,,,71,0
7560,note_on,60,0,8,,,,,,,,6,,,54,0
7560,note_on,0,0,2,,,,,,,,0,,,79,40
7560,note_on,240,0,11,,,,,,,,10,,,59,30
7560,note_on,60,0,7,,,,,,,,5,,,62,0
7560,note_on,0,0,7,,,,,,,,5,,,67,64
7560,note_on,360,0,5,,,,,,,,3,,,54,0
7560,note_on,0,0,5,,,,,,,,3,,,55,40
7560,note_on,0,0,6,,,,,,,,4,,,76,64
7560,note_on,60,0,6,,,,,,,,4,,,67,0
7560,note_on,0,0,11,,,,,,,,10,,,67,30
7560,note_on,0,0,11,,,,,,,,10,,,62,30
7560,note_on,42,0,10,,,,,,,,8,,,47,64
7560,note_on,0,0,11,,,,,,,,10,,,47,30
7560,note_on,360,0,4,,,,,,,,2,,,62,0
7560,note_on,0,0,4,,,,,,,,2,,,64,40
7590,note_on,0,0,2,,,,,,,,0,,,69,40
7590,note_on,30,0,2,,,,,,,,0,,,71,0
7620,note_on,30,0,2,,,,,,,,0,,,69,0
7620,note_on,0,0,2,,,,,,,,0,,,71,40
7620,note_on,0,0,8,,,,,,,,6,,,54,64
7620,note_on,60,0,8,,,,,,,,6,,,52,0
7638,note_on,78,0,10,,,,,,,,8,,,47,0
7650,note_on,30,0,2,,,,,,,,0,,,71,0
7650,note_on,0,0,2,,,,,,,,0,,,72,40
7680,note_on,30,0,2,,,,,,,,0,,,72,0
7680,note_on,0,0,2,,,,,,,,0,,,71,40
7680,note_on,0,0,11,,,,,,,,10,,,67,0
7680,note_on,0,0,11,,,,,,,,10,,,59,0
7680,note_on,120,0,9,,,,,,,,7,,,52,64
7680,note_on,0,0,11,,,,,,,,10,,,62,0
7680,note_on,120,0,11,,,,,,,,10,,,47,0
7680,note_on,42,0,10,,,,,,,,8,,,47,64
7680,note_on,60,0,8,,,,,,,,6,,,54,0
7680,note_on,0,0,8,,,,,,,,6,,,55,64
7710,note_on,0,0,2,,,,,,,,0,,,69,40
7710,note_on,30,0,2,,,,,,,,0,,,71,0
7740,note_on,0,0,2,,,,,,,,0,,,67,40
7740,note_on,30,0,2,,,,,,,,0,,,69,0
7740,note_on,0,0,9,,,,,,,,7,,,54,64
7740,note_on,60,0,9,,,,,,,,7,,,52,0
7740,note_on,60,0,8,,,,,,,,6,,,55,0
7740,note_on,0,0,8,,,,,,,,6,,,57,64
7758,note_on,78,0,10,,,,,,,,8,,,47,0
7770,note_on,30,0,2,,,,,,,,0,,,67,0
7770,note_on,0,0,2,,,,,,,,0,,,66,40
7800,note_on,42,0,10,,,,,,,,8,,,47,64
7800,note_on,0,0,2,,,,,,,,0,,,64,40
7800,note_on,0,0,9,,,,,,,,7,,,55,64
7800,note_on,60,0,9,,,,,,,,7,,,54,0
7800,note_on,60,0,8,,,,,,,,6,,,57,0
7800,note_on,0,0,8,,,,,,,,6,,,59,64
7800,note_on,30,0,2,,,,,,,,0,,,66,0
7830,note_on,0,0,2,,,,,,,,0,,,67,40
7830,note_on,30,0,2,,,,,,,,0,,,64,0
7860,note_on,60,0,9,,,,,,,,7,,,55,0
7860,note_on,0,0,2,,,,,,,,0,,,66,40
7860,note_on,660,0,3,,,,,,,,1,,,71,0
7860,note_on,0,0,3,,,,,,,,1,,,71,40
7860,note_on,60,0,8,,,,,,,,6,,,59,0
7860,note_on,0,0,8,,,,,,,,6,,,55,64
7860,note_on,30,0,2,,,,,,,,0,,,67,0
7860,note_on,0,0,9,,,,,,,,7,,,52,64
7878,note_on,78,0,10,,,,,,,,8,,,47,0
7890,note_on,30,0,2,,,,,,,,0,,,66,0
7890,note_on,0,0,2,,,,,,,,0,,,64,40
7920,note_on,0,0,8,,,,,,,,6,,,61,64
7920,note_on,0,0,3,,,,,,,,1,,,76,40
7920,note_on,60,0,3,,,,,,,,1,,,71,0
7920,note_on,240,0,11,,,,,,,,10,,,61,30
7920,note_on,0,0,11,,,,,,,,10,,,64,30
7920,note_on,0,0,11,,,,,,,,10,,,70,30
7920,note_on,0,0,11,,,,,,,,10,,,47,30
7920,note_on,0,0,9,,,,,,,,7,,,58,64
7920,note_on,30,0,2,,,,,,,,0,,,64,0
7920,note_on,60,0,8,,,,,,,,6,,,55,0
7920,note_on,60,0,9,,,,,,,,7,,,52,0
7920,note_on,0,0,2,,,,,,,,0,,,73,40
7920,note_on,42,0,10,,,,,,,,8,,,47,64
7950,note_on,0,0,2,,,,,,,,0,,,76,40
7950,note_on,30,0,2,,,,,,,,0,,,79,0
7969,note_on,19,0,2,,,,,,,,0,,,76,0
7980,note_on,420,0,5,,,,,,,,3,,,55,0
7980,note_on,0,0,5,,,,,,,,3,,,59,40
7980,note_on,60,0,3,,,,,,,,1,,,76,0
7980,note_on,11,0,2,,,,,,,,0,,,76,40
7980,note_on,0,0,3,,,,,,,,1,,,74,40
7998,note_on,78,0,10,,,,,,,,8,,,47,0
8010,note_on,0,0,2,,,,,,,,0,,,78,40
8010,note_on,30,0,2,,,,,,,,0,,,76,0
8019,note_on,39,0,3,,,,,,,,1,,,74,0
8029,note_on,19,0,2,,,,,,,,0,,,78,0
8040,note_on,0,0,8,,,,,,,,6,,,58,64
8040,note_on,21,0,3,,,,,,,,1,,,73,40
8040,note_on,120,0,9,,,,,,,,7,,,58,0
8040,note_on,0,0,9,,,,,,,,7,,,54,64
8040,note_on,11,0,2,,,,,,,,0,,,78,40
8040,note_on,0,0,11,,,,,,,,10,,,70,0
8040,note_on,0,0,11,,,,,,,,10,,,64,0
8040,note_on,0,0,11,,,,,,,,10,,,61,0
8040,note_on,120,0,11,,,,,,,,10,,,47,0
8040,note_on,60,0,5,,,,,,,,3,,,59,0
8040,note_on,0,0,5,,,,,,,,3,,,58,40
8040,note_on,0,0,7,,,,,,,,5,,,61,64
8040,note_on,480,0,7,,,,,,,,5,,,67,0
8040,note_on,42,0,10,,,,,,,,8,,,47,64
8040,note_on,120,0,8,,,,,,,,6,,,61,0
8070,note_on,0,0,2,,,,,,,,0,,,74,40
8070,note_on,30,0,2,,,,,,,,0,,,78,0
8089,note_on,19,0,2,,,,,,,,0,,,74,0
8100,note_on,11,0,2,,,,,,,,0,,,74,40
8100,note_on,60,0,3,,,,,,,,1,,,73,0
8100,note_on,0,0,3,,,,,,,,1,,,71,40
8118,note_on,78,0,10,,,,,,,,8,,,47,0
8130,note_on,30,0,2,,,,,,,,0,,,74,0
8130,note_on,0,0,2,,,,,,,,0,,,76,40
8139,note_on,39,0,3,,,,,,,,1,,,71,0
8149,note_on,19,0,2,,,,,,,,0,,,76,0
8160,note_on,0,0,6,,,,,,,,4,,,76,64
8160,note_on,120,0,9,,,,,,,,7,,,54,0
8160,note_on,0,0,9,,,,,,,,7,,,58,64
8160,note_on,0,0,7,,,,,,,,5,,,66,64
8160,note_on,120,0,7,,,,,,,,5,,,61,0
8160,note_on,21,0,3,,,,,,,,1,,,70,40
8160,note_on,600,0,6,,,,,,,,4,,,76,0
8160,note_on,42,0,10,,,,,,,,8,,,47,64
8160,note_on,11,0,2,,,,,,,,0,,,76,40
8160,note_on,0,0,8,,,,,,,,6,,,61,64
8160,note_on,120,0,8,,,,,,,,6,,,58,0
8190,note_on,0,0,2,,,,,,,,0,,,73,40
8190,note_on,30,0,2,,,,,,,,0,,,76,0
8209,note_on,19,0,2,,,,,,,,0,,,73,0
8220,note_on,11,0,2,,,,,,,,0,,,73,40
8220,note_on,60,0,3,,,,,,,,1,,,70,0
8220,note_on,0,0,3,,,,,,,,1,,,73,40
8238,note_on,78,0,10,,,,,,,,8,,,47,0
8250,note_on,0,0,2,,,,,,,,0,,,74,40
8250,note_on,30,0,2,,,,,,,,0,,,73,0
8259,note_on,39,0,3,,,,,,,,1,,,73,0
8269,note_on,19,0,2,,,,,,,,0,,,74,0
8280,note_on,11,0,2,,,,,,,,0,,,74,40
8280,note_on,0,0,11,,,,,,,,10,,,71,30
8280,note_on,0,0,11,,,,,,,,10,,,66,30
8280,note_on,240,0,11,,,,,,,,10,,,62,30
8280,note_on,0,0,11,,,,,,,,10,,,47,30
8280,note_on,21,0,3,,,,,,,,1,,,66,40
8280,note_on,0,0,7,,,,,,,,5,,,66,64
8280,note_on,120,0,7,,,,,,,,5,,,66,0
8280,note_on,0,0,8,,,,,,,,6,,,59,64
8280,note_on,120,0,8,,,,,,,,6,,,61,0
8280,note_on,0,0,6,,,,,,,,4,,,74,64
8280,note_on,0,0,4,,,,,,,,2,,,59,40
8280,note_on,42,0,10,,,,,,,,8,,,47,64
8280,note_on,720,0,4,,,,,,,,2,,,64,0
8280,note_on,120,0,6,,,,,,,,4,,,76,0
8280,note_on,0,0,5,,,,,,,,3,,,62,40
8280,note_on,240,0,5,,,,,,,,3,,,58,0
8280,note_on,120,0,9,,,,,,,,7,,,58,0
8280,note_on,0,0,9,,,,,,,,7,,,59,64
8310,note_on,30,0,2,,,,,,,,0,,,73,0
8310,note_on,0,0,2,,,,,,,,0,,,70,40
8329,note_on,19,0,2,,,,,,,,0,,,70,0
8340,note_on,11,0,2,,,,,,,,0,,,70,40
8358,note_on,78,0,10,,,,,,,,8,,,47,0
8370,note_on,30,0,2,,,,,,,,0,,,70,0
8370,note_on,0,0,2,,,,,,,,0,,,71,40
8389,note_on,19,0,2,,,,,,,,0,,,71,0
8400,note_on,0,0,5,,,,,,,,3,,,54,40
8400,note_on,120,0,5,,,,,,,,3,,,62,0
8400,note_on,120,0,6,,,,,,,,4,,,74,0
8400,note_on,120,0,11,,,,,,,,10,,,47,0
8400,note_on,0,0,11,,,,,,,,10,,,66,0
8400,note_on,120,0,3,,,,,,,,1,,,66,0
8400,note_on,120,0,9,,,,,,,,7,,,59,0
8400,note_on,0,0,4,,,,,,,,2,,,66,40
8400,note_on,11,0,2,,,,,,,,0,,,74,0
8400,note_on,0,0,6,,,,,,,,4,,,71,64
8400,note_on,120,0,4,,,,,,,,2,,,59,0
8400,note_on,0,0,9,,,,,,,,7,,,54,64
8400,note_on,0,0,3,,,,,,,,1,,,71,40
8400,note_on,0,0,11,,,,,,,,10,,,71,0
8400,note_on,0,0,11,,,,,,,,10,,,62,0
8400,note_on,0,0,2,,,,,,,,0,,,75,40
8400,note_on,0,0,2,,,,,,,,0,,,71,40
8400,note_on,42,0,10,,,,,,,,8,,,47,64
8400,note_on,120,0,8,,,,,,,,6,,,59,0
8400,note_on,0,0,8,,,,,,,,6,,,59,64
8430,note_on,30,0,2,,,,,,,,0,,,71,0
8430,note_on,0,0,2,,,,,,,,0,,,67,40
8449,note_on,19,0,2,,,,,,,,0,,,67,0
8460,note_on,60,0,9,,,,,,,,7,,,54,0
8460,note_on,0,0,9,,,,,,,,7,,,52,64
8460,note_on,11,0,2,,,,,,,,0,,,67,40
8478,note_on,78,0,10,,,,,,,,8,,,47,0
8490,note_on,30,0,2,,,,,,,,0,,,67,0
8490,note_on,0,0,2,,,,,,,,0,,,69,40
8509,note_on,19,0,2,,,,,,,,0,,,69,0
8520,note_on,0,0,7,,,,,,,,5,,,66,64
8520,note_on,0,0,5,,,,,,,,3,,,57,40
8520,note_on,120,0,5,,,,,,,,3,,,54,0
8520,note_on,11,0,2,,,,,,,,0,,,69,40
8520,note_on,60,0,9,,,,,,,,7,,,52,0
8520,note_on,0,0,9,,,,,,,,7,,,51,64
8520,note_on,240,0,7,,,,,,,,5,,,66,0
8520,note_on,0,0,6,,,,,,,,4,,,72,64
8520,note_on,120,0,6,,,,,,,,4,,,71,0
8520,note_on,120,0,8,,,,,,,,6,,,59,0
8520,note_on,0,0,8,,,,,,,,6,,,57,64
8520,note_on,42,0,10,,,,,,,,8,,,47,64
8550,note_on,30,0,2,,,,,,,,0,,,69,0
8550,note_on,0,0,2,,,,,,,,0,,,66,40
8569,note_on,19,0,2,,,,,,,,0,,,66,0
8580,note_on,60,0,6,,,,,,,,4,,,72,0
8580,note_on,0,0,6,,,,,,,,4,,,71,64
8580,note_on,0,0,9,,,,,,,,7,,,52,64
8580,note_on,60,0,9,,,,,,,,7,,,51,0
8580,note_on,11,0,2,,,,,,,,0,,,66,40
8598,note_on,78,0,10,,,,,,,,8,,,47,0
8610,note_on,0,0,9,,,,,,,,7,,,54,64
8610,note_on,30,0,2,,,,,,,,0,,,66,0
8610,note_on,0,0,2,,,,,,,,0,,,67,40
8610,note_on,30,0,9,,,,,,,,7,,,52,0
8629,note_on,19,0,2,,,,,,,,0,,,67,0
8640,note_on,0,0,8,,,,,,,,6,,,55,64
8640,note_on,120,0,8,,,,,,,,6,,,57,0
8640,note_on,0,0,11,,,,,,,,10,,,66,30
8640,note_on,0,0,11,,,,,,,,10,,,47,30
8640,note_on,240,0,11,,,,,,,,10,,,55,30
8640,note_on,0,0,7,,,,,,,,5,,,64,64
8640,note_on,120,0,7,,,,,,,,5,,,66,0
8640,note_on,0,0,9,,,,,,,,7,,,47,64
8640,note_on,30,0,9,,,,,,,,7,,,54,0
8640,note_on,42,0,10,,,,,,,,8,,,47,64
8640,note_on,120,0,5,,,,,,,,3,,,57,0
8640,note_on,0,0,5,,,,,,,,3,,,55,40
8640,note_on,0,0,6,,,,,,,,4,,,71,64
8640,note_on,11,0,2,,,,,,,,0,,,75,0
8640,note_on,0,0,2,,,,,,,,0,,,76,40
8640,note_on,0,0,2,,,,,,,,0,,,67,40
8640,note_on,60,0,6,,,,,,,,4,,,71,0
8640,note_on,240,0,4,,,,,,,,2,,,66,0
8640,note_on,0,0,4,,,,,,,,2,,,64,40
8670,note_on,30,0,2,,,,,,,,0,,,67,0
8670,note_on,0,0,2,,,,,,,,0,,,64,40
8689,note_on,19,0,2,,,,,,,,0,,,64,0
8700,note_on,60,0,8,,,,,,,,6,,,55,0
8700,note_on,60,0,5,,,,,,,,3,,,55,0
8700,note_on,0,0,4,,,,,,,,2,,,66,41
8700,note_on,60,0,4,,,,,,,,2,,,64,0
8700,note_on,0,0,3,,,,,,,,1,,,69,41
8700,note_on,60,0,6,,,,,,,,4,,,71,0
8700,note_on,0,0,7,,,,,,,,5,,,66,65
8700,note_on,60,0,7,,,,,,,,5,,,64,0
8700,note_on,11,0,2,,,,,,,,0,,,64,40
8700,note_on,300,0,3,,,,,,,,1,,,71,0
8700,note_on,0,0,6,,,,,,,,4,,,69,65
8700,note_on,0,0,5,,,,,,,,3,,,54,41
8700,note_on,0,0,8,,,,,,,,6,,,54,65
8718,note_on,78,0,10,,,,,,,,8,,,47,0
8730,note_on,30,0,2,,,,,,,,0,,,64,0
8730,note_on,0,0,2,,,,,,,,0,,,74,40
8739,note_on,39,0,5,,,,,,,,3,,,54,0
8749,note_on,19,0,2,,,,,,,,0,,,74,0
8760,note_on,60,0,3,,,,,,,,1,,,69,0
8760,note_on,0,0,11,,,,,,,,10,,,56,30
8760,note_on,0,0,11,,,,,,,,10,,,55,0
8760,note_on,0,0,11,,,,,,,,10,,,66,0
8760,note_on,120,0,11,,,,,,,,10,,,47,0
8760,note_on,0,0,8,,,,,,,,6,,,53,65
8760,note_on,0,0,3,,,,,,,,1,,,74,42
8760,note_on,0,0,2,,,,,,,,0,,,74,40
8760,note_on,60,0,7,,,,,,,,5,,,66,0
8760,note_on,60,0,8,,,,,,,,6,,,54,0
8760,note_on,0,0,2,,,,,,,,0,,,77,40
8760,note_on,11,0,2,,,,,,,,0,,,76,0
8760,note_on,42,0,10,,,,,,,,8,,,59,64
8760,note_on,21,0,5,,,,,,,,3,,,53,42
8760,note_on,0,0,7,,,,,,,,5,,,68,65
8760,note_on,0,0,11,,,,,,,,10,,,59,30
8760,note_on,0,0,11,,,,,,,,10,,,65,30
8760,note_on,120,0,9,,,,,,,,7,,,47,0
8760,note_on,0,0,6,,,,,,,,4,,,74,65
8760,note_on,60,0,6,,,,,,,,4,,,69,0
8760,note_on,0,0,9,,,,,,,,7,,,59,65
8760,note_on,60,0,4,,,,,,,,2,,,66,0
8760,note_on,0,0,4,,,,,,,,2,,,68,42
8790,note_on,0,0,2,,,,,,,,0,,,71,40
8790,note_on,30,0,2,,,,,,,,0,,,74,0
8809,note_on,19,0,2,,,,,,,,0,,,71,0
8820,note_on,0,0,8,,,,,,,,6,,,56,66
8820,note_on,60,0,8,,,,,,,,6,,,53,0
8820,note_on,11,0,2,,,,,,,,0,,,71,40
8820,note_on,0,0,5,,,,,,,,3,,,56,43
8820,note_on,60,0,5,,,,,,,,3,,,53,0
8838,note_on,78,0,10,,,,,,,,8,,,59,0
8850,note_on,30,0,2,,,,,,,,0,,,71,0
8850,note_on,0,0,2,,,,,,,,0,,,73,40
8859,note_on,39,0,5,,,,,,,,3,,,56,0
8869,note_on,19,0,2,,,,,,,,0,,,73,0
8880,note_on,120,0,7,,,,,,,,5,,,68,0
8880,note_on,0,0,11,,,,,,,,10,,,66,30
8880,note_on,42,0,10,,,,,,,,8,,,57,64
8880,note_on,120,0,4,,,,,,,,2,,,68,0
8880,note_on,0,0,4,,,,,,,,2,,,69,44
8880,note_on,21,0,5,,,,,,,,3,,,61,44
8880,note_on,0,0,7,,,,,,,,5,,,69,67
8880,note_on,11,0,2,,,,,,,,0,,,73,40
8880,note_on,120,0,9,,,,,,,,7,,,59,0
8880,note_on,0,0,8,,,,,,,,6,,,61,67
8880,note_on,120,0,11,,,,,,,,10,,,59,0
8880,note_on,0,0,11,,,,,,,,10,,,61,30
8880,note_on,0,0,11,,,,,,,,10,,,65,0
8880,note_on,0,0,11,,,,,,,,10,,,56,0
8880,note_on,0,0,11,,,,,,,,10,,,57,30
8880,note_on,0,0,11,,,,,,,,10,,,57,30
8880,note_on,0,0,9,,,,,,,,7,,,57,67
8880,note_on,60,0,8,,,,,,,,6,,,56,0
8910,note_on,30,0,2,,,,,,,,0,,,73,0
8910,note_on,0,0,2,,,,,,,,0,,,69,40
8929,note_on,19,0,2,,,,,,,,0,,,69,0
8940,note_on,0,0,5,,,,,,,,3,,,59,45
8940,note_on,0,0,8,,,,,,,,6,,,59,67
8940,note_on,11,0,2,,,,,,,,0,,,69,40
8940,note_on,60,0,5,,,,,,,,3,,,61,0
8940,note_on,60,0,8,,,,,,,,6,,,61,0
8958,note_on,78,0,10,,,,,,,,8,,,57,0
8970,note_on,0,0,2,,,,,,,,0,,,71,40
8970,note_on,30,0,2,,,,,,,,0,,,69,0
8979,note_on,39,0,5,,,,,,,,3,,,59,0
8989,note_on,19,0,2,,,,,,,,0,,,71,0
9000,note_on,11,0,2,,,,,,,,0,,,71,40
9000,note_on,42,0,10,,,,,,,,8,,,56,64
9000,note_on,0,0,11,,,,,,,,10,,,57,0
9000,note_on,0,0,11,,,,,,,,10,,,61,0
9000,note_on,0,0,11,,,,,,,,10,,,66,0
9000,note_on,0,0,11,,,,,,,,10,,,56,30
9000,note_on,0,0,11,,,,,,,,10,,,56,30
9000,note_on,0,0,11,,,,,,,,10,,,62,30
9000,note_on,0,0,11,,,,,,,,10,,,65,30
9000,note_on,120,0,11,,,,,,,,10,,,57,0
9000,note_on,21,0,5,,,,,,,,3,,,62,46
9000,note_on,240,0,6,,,,,,,,4,,,74,0
9000,note_on,120,0,9,,,,,,,,7,,,57,0
9000,note_on,60,0,8,,,,,,,,6,,,59,0
9000,note_on,0,0,8,,,,,,,,6,,,62,68
9000,note_on,0,0,7,,,,,,,,5,,,71,68
9000,note_on,120,0,7,,,,,,,,5,,,69,0
9000,note_on,0,0,9,,,,,,,,7,,,56,68
9000,note_on,120,0,4,,,,,,,,2,,,69,0
9000,note_on,0,0,4,,,,,,,,2,,,71,46
9030,note_on,0,0,2,,,,,,,,0,,,68,40
9030,note_on,30,0,2,,,,,,,,0,,,71,0
9030,note_on,0,0,2,,,,,,,,0,,,77,0
9030,note_on,0,0,2,,,,,,,,0,,,71,40
9049,note_on,0,0,2,,,,,,,,0,,,71,0
9049,note_on,19,0,2,,,,,,,,0,,,68,0
9060,note_on,0,0,2,,,,,,,,0,,,68,40
9060,note_on,11,0,2,,,,,,,,0,,,71,40
9060,note_on,300,0,3,,,,,,,,1,,,74,0
9060,note_on,0,0,3,,,,,,,,1,,,66,47
9078,note_on,78,0,10,,,,,,,,8,,,56,0
9090,note_on,30,0,2,,,,,,,,0,,,68,0
9090,note_on,0,0,2,,,,,,,,0,,,71,0
9090,note_on,0,0,2,,,,,,,,0,,,86,40
9090,note_on,0,0,2,,,,,,,,0,,,83,40
9109,note_on,19,0,2,,,,,,,,0,,,83,0
9109,note_on,0,0,2,,,,,,,,0,,,86,0
9120,note_on,0,0,9,,,,,,,,7,,,53,69
9120,note_on,0,0,7,,,,,,,,5,,,68,69
9120,note_on,120,0,7,,,,,,,,5,,,71,0
9120,note_on,0,0,11,,,,,,,,10,,,62,30
9120,note_on,0,0,11,,,,,,,,10,,,59,30
9120,note_on,0,0,11,,,,,,,,10,,,53,30
9120,note_on,11,0,2,,,,,,,,0,,,86,40
9120,note_on,0,0,2,,,,,,,,0,,,83,40
9120,note_on,0,0,11,,,,,,,,10,,,53,30
9120,note_on,0,0,11,,,,,,,,10,,,65,0
9120,note_on,0,0,11,,,,,,,,10,,,62,0
9120,note_on,0,0,3,,,,,,,,1,,,68,48
9120,note_on,60,0,3,,,,,,,,1,,,66,0
9120,note_on,120,0,6,,,,,,,,4,,,68,69
9120,note_on,0,0,11,,,,,,,,10,,,56,0
9120,note_on,42,0,10,,,,,,,,8,,,53,64
9120,note_on,120,0,4,,,,,,,,2,,,71,0
9120,note_on,120,0,11,,,,,,,,10,,,56,0
9120,note_on,120,0,9,,,,,,,,7,,,56,0
9120,note_on,0,0,4,,,,,,,,2,,,68,48
9150,note_on,30,0,2,,,,,,,,0,,,83,0
9150,note_on,0,0,2,,,,,,,,0,,,86,0
9150,note_on,0,0,2,,,,,,,,0,,,83,40
9150,note_on,0,0,2,,,,,,,,0,,,80,40
9169,note_on,19,0,2,,,,,,,,0,,,80,0
9169,note_on,0,0,2,,,,,,,,0,,,83,0
9180,note_on,60,0,6,,,,,,,,4,,,68,0
9180,note_on,60,0,3,,,,,,,,1,,,68,0
9180,note_on,0,0,3,,,,,,,,1,,,66,49
9180,note_on,0,0,6,,,,,,,,4,,,66,70
9180,note_on,11,0,2,,,,,,,,0,,,83,40
9180,note_on,0,0,2,,,,,,,,0,,,80,40
9198,note_on,78,0,10,,,,,,,,8,,,53,0
9210,note_on,30,0,2,,,,,,,,0,,,80,0
9210,note_on,0,0,2,,,,,,,,0,,,81,40
9210,note_on,0,0,2,,,,,,,,0,,,85,40
9210,note_on,0,0,2,,,,,,,,0,,,83,0
9219,note_on,39,0,3,,,,,,,,1,,,66,0
9229,note_on,0,0,2,,,,,,,,0,,,85,0
9229,note_on,19,0,2,,,,,,,,0,,,81,0
9240,note_on,0,0,6,,,,,,,,4,,,65,71
9240,note_on,240,0,8,,,,,,,,6,,,62,0
9240,note_on,120,0,11,,,,,,,,10,,,53,0
9240,note_on,0,0,11,,,,,,,,10,,,53,0
9240,note_on,0,0,11,,,,,,,,10,,,59,0
9240,note_on,0,0,11,,,,,,,,10,,,62,0
9240,note_on,0,0,11,,,,,,,,10,,,54,30
9240,note_on,0,0,4,,,,,,,,2,,,61,50
9240,note_on,0,0,11,,,,,,,,10,,,54,30
9240,note_on,0,0,11,,,,,,,,10,,,57,30
9240,note_on,0,0,8,,,,,,,,6,,,57,71
9240,note_on,60,0,6,,,,,,,,4,,,66,0
9240,note_on,120,0,7,,,,,,,,5,,,68,0
9240,note_on,120,0,4,,,,,,,,2,,,68,0
9240,note_on,240,0,5,,,,,,,,3,,,62,0
9240,note_on,0,0,5,,,,,,,,3,,,57,50
9240,note_on,11,0,2,,,,,,,,0,,,85,40
9240,note_on,0,0,2,,,,,,,,0,,,81,40
9240,note_on,42,0,10,,,,,,,,8,,,54,64
9240,note_on,0,0,7,,,,,,,,5,,,61,71
9240,note_on,21,0,3,,,,,,,,1,,,65,50
9240,note_on,0,0,11,,,,,,,,10,,,61,30
9240,note_on,0,0,9,,,,,,,,7,,,54,71
9240,note_on,120,0,9,,,,,,,,7,,,53,0
9270,note_on,0,0,2,,,,,,,,0,,,78,40
9270,note_on,0,0,2,,,,,,,,0,,,85,0
9270,note_on,30,0,2,,,,,,,,0,,,81,0
9270,note_on,0,0,2,,,,,,,,0,,,81,40
9289,note_on,0,0,2,,,,,,,,0,,,81,0
9289,note_on,19,0,2,,,,,,,,0,,,78,0
9300,note_on,0,0,6,,,,,,,,4,,,66,71
9300,note_on,60,0,8,,,,,,,,6,,,57,0
9300,note_on,0,0,8,,,,,,,,6,,,59,71
9300,note_on,0,0,2,,,,,,,,0,,,78,40
9300,note_on,60,0,6,,,,,,,,4,,,65,0
9300,note_on,60,0,3,,,,,,,,1,,,65,0
9300,note_on,0,0,3,,,,,,,,1,,,66,51
9300,note_on,11,0,2,,,,,,,,0,,,81,40
9300,note_on,60,0,5,,,,,,,,3,,,57,0
9300,note_on,0,0,5,,,,,,,,3,,,59,51
9318,note_on,78,0,10,,,,,,,,8,,,54,0
9330,note_on,0,0,2,,,,,,,,0,,,83,40
9330,note_on,0,0,2,,,,,,,,0,,,79,40
9330,note_on,0,0,2,,,,,,,,0,,,81,0
9330,note_on,30,0,2,,,,,,,,0,,,78,0
9330,note_on,30,0,5,,,,,,,,3,,,59,0
9330,note_on,0,0,5,,,,,,,,3,,,61,52
9330,note_on,0,0,8,,,,,,,,6,,,61,72
9330,note_on,30,0,8,,,,,,,,6,,,59,0
9339,note_on,39,0,3,,,,,,,,1,,,66,0
9349,note_on,19,0,2,,,,,,,,0,,,79,0
9349,note_on,0,0,2,,,,,,,,0,,,83,0
9360,note_on,0,0,4,,,,,,,,2,,,67,52
9360,note_on,0,0,8,,,,,,,,6,,,59,72
9360,note_on,120,0,4,,,,,,,,2,,,61,0
9360,note_on,0,0,6,,,,,,,,4,,,74,72
9360,note_on,60,0,6,,,,,,,,4,,,66,0
9360,note_on,30,0,8,,,,,,,,6,,,61,0
9360,note_on,42,0,10,,,,,,,,8,,,47,64
9360,note_on,0,0,2,,,,,,,,0,,,79,40
9360,note_on,0,0,11,,,,,,,,10,,,57,0
9360,note_on,0,0,5,,,,,,,,3,,,59,52
9360,note_on,0,0,11,,,,,,,,10,,,61,0
9360,note_on,0,0,11,,,,,,,,10,,,55,30
9360,note_on,0,0,11,,,,,,,,10,,,66,30
9360,note_on,0,0,11,,,,,,,,10,,,47,30
9360,note_on,120,0,11,,,,,,,,10,,,54,0
9360,note_on,120,0,9,,,,,,,,7,,,54,0
9360,note_on,21,0,3,,,,,,,,1,,,74,52
9360,note_on,11,0,2,,,,,,,,0,,,83,40
9360,note_on,0,0,9,,,,,,,,7,,,47,72
9360,note_on,30,0,5,,,,,,,,3,,,61,0
9360,note_on,0,0,7,,,,,,,,5,,,67,72
9360,note_on,120,0,7,,,,,,,,5,,,61,0
9360,note_on,0,0,11,,,,,,,,10,,,54,0
9390,note_on,0,0,2,,,,,,,,0,,,77,40
9390,note_on,30,0,2,,,,,,,,0,,,79,0
9409,note_on,19,0,2,,,,,,,,0,,,77,0
9420,note_on,11,0,2,,,,,,,,0,,,77,40
9438,note_on,78,0,10,,,,,,,,8,,,47,0
9450,note_on,30,0,2,,,,,,,,0,,,77,0
9450,note_on,0,0,2,,,,,,,,0,,,78,40
9469,note_on,19,0,2,,,,,,,,0,,,78,0
9480,note_on,120,0,3,,,,,,,,1,,,74,0
9480,note_on,0,0,11,,,,,,,,10,,,44,30
9480,note_on,0,0,11,,,,,,,,10,,,65,30
9480,note_on,0,0,11,,,,,,,,10,,,56,30
9480,note_on,0,0,3,,,,,,,,1,,,73,54
9480,note_on,42,0,10,,,,,,,,8,,,44,64
9480,note_on,0,0,11,,,,,,,,10,,,55,0
9480,note_on,120,0,4,,,,,,,,2,,,67,0
9480,note_on,0,0,4,,,,,,,,2,,,59,54
9480,note_on,0,0,7,,,,,,,,5,,,59,73
9480,note_on,0,0,11,,,,,,,,10,,,66,0
9480,note_on,120,0,9,,,,,,,,7,,,47,0
9480,note_on,11,0,2,,,,,,,,0,,,78,40
9480,note_on,0,0,9,,,,,,,,7,,,44,73
9480,note_on,0,0,6,,,,,,,,4,,,73,73
9480,note_on,120,0,6,,,,,,,,4,,,74,0
9480,note_on,120,0,11,,,,,,,,10,,,47,0
9480,note_on,120,0,7,,,,,,,,5,,,67,0
9510,note_on,0,0,2,,,,,,,,0,,,71,40
9510,note_on,30,0,2,,,,,,,,0,,,78,0
9529,note_on,19,0,2,,,,,,,,0,,,71,0
9540,note_on,60,0,3,,,,,,,,1,,,73,0
9540,note_on,0,0,3,,,,,,,,1,,,71,55
9540,note_on,11,0,2,,,,,,,,0,,,71,40
9540,note_on,0,0,8,,,,,,,,6,,,62,74
9540,note_on,180,0,8,,,,,,,,6,,,59,0
9540,note_on,180,0,5,,,,,,,,3,,,59,0
9540,note_on,0,0,5,,,,,,,,3,,,62,55
9540,note_on,0,0,6,,,,,,,,4,,,71,74
9540,note_on,60,0,6,,,,,,,,4,,,73,0
9558,note_on,78,0,10,,,,,,,,8,,,44,0
9570,note_on,0,0,2,,,,,,,,0,,,77,40
9570,note_on,30,0,2,,,,,,,,0,,,71,0
9579,note_on,39,0,3,,,,,,,,1,,,71,0
9589,note_on,19,0,2,,,,,,,,0,,,77,0
9600,note_on,21,0,3,,,,,,,,1,,,69,56
9600,note_on,0,0,8,,,,,,,,6,,,53,75
9600,note_on,0,0,7,,,,,,,,5,,,61,75
9600,note_on,120,0,7,,,,,,,,5,,,59,0
9600,note_on,60,0,5,,,,,,,,3,,,62,0
9600,note_on,60,0,8,,,,,,,,6,,,62,0
9600,note_on,42,0,10,,,,,,,,8,,,49,64
9600,note_on,11,0,2,,,,,,,,0,,,77,40
9600,note_on,0,0,4,,,,,,,,2,,,61,56
9600,note_on,0,0,5,,,,,,,,3,,,53,56
9600,note_on,120,0,4,,,,,,,,2,,,59,0
9600,note_on,60,0,6,,,,,,,,4,,,71,0
9600,note_on,0,0,6,,,,,,,,4,,,69,75
9600,note_on,0,0,9,,,,,,,,7,,,49,75
9600,note_on,120,0,9,,,,,,,,7,,,44,0
9600,note_on,120,0,11,,,,,,,,10,,,44,0
9600,note_on,0,0,11,,,,,,,,10,,,59,30
9600,note_on,0,0,11,,,,,,,,10,,,49,30
9630,note_on,30,0,2,,,,,,,,0,,,77,0
9630,note_on,0,0,2,,,,,,,,0,,,73,40
9649,note_on,19,0,2,,,,,,,,0,,,73,0
9660,note_on,0,0,5,,,,,,,,3,,,56,57
9660,note_on,60,0,6,,,,,,,,4,,,69,0
9660,note_on,0,0,6,,,,,,,,4,,,68,75
9660,note_on,11,0,2,,,,,,,,0,,,73,40
9660,note_on,60,0,8,,,,,,,,6,,,53,0
9660,note_on,0,0,8,,,,,,,,6,,,56,75
9660,note_on,60,0,3,,,,,,,,1,,,69,0
9660,note_on,60,0,5,,,,,,,,3,,,53,0
9660,note_on,0,0,3,,,,,,,,1,,,68,57
9678,note_on,78,0,10,,,,,,,,8,,,49,0
9690,note_on,0,0,2,,,,,,,,0,,,77,40
9690,note_on,30,0,2,,,,,,,,0,,,73,0
9699,note_on,39,0,3,,,,,,,,1,,,68,0
9699,note_on,39,0,5,,,,,,,,3,,,56,0
9709,note_on,19,0,2,,,,,,,,0,,,77,0
9720,note_on,11,0,2,,,,,,,,0,,,78,40
9720,note_on,0,0,6,,,,,,,,4,,,73,76
9720,note_on,120,0,9,,,,,,,,7,,,49,0
9720,note_on,0,0,11,,,,,,,,10,,,61,30
9720,note_on,0,0,11,,,,,,,,10,,,57,30
9720,note_on,0,0,11,,,,,,,,10,,,54,30
9720,note_on,42,0,10,,,,,,,,8,,,42,64
9720,note_on,0,0,11,,,,,,,,10,,,65,0
9720,note_on,21,0,3,,,,,,,,1,,,73,58
9720,note_on,21,0,5,,,,,,,,3,,,54,58
9720,note_on,0,0,11,,,,,,,,10,,,59,0
9720,note_on,0,0,8,,,,,,,,6,,,54,76
9720,note_on,0,0,11,,,,,,,,10,,,42,30
9720,note_on,60,0,6,,,,,,,,4,,,68,0
9720,note_on,0,0,9,,,,,,,,7,,,42,76
9720,note_on,120,0,11,,,,,,,,10,,,49,0
9720,note_on,0,0,11,,,,,,,,10,,,56,0
9720,note_on,60,0,8,,,,,,,,6,,,56,0
9750,note_on,0,0,2,,,,,,,,0,,,80,40
9750,note_on,30,0,2,,,,,,,,0,,,83,0
9780,note_on,180,0,4,,,,,,,,2,,,61,0
9780,note_on,0,0,4,,,,,,,,2,,,66,59
9780,note_on,60,0,5,,,,,,,,3,,,54,0
9780,note_on,0,0,5,,,,,,,,3,,,49,59
9780,note_on,0,0,2,,,,,,,,0,,,81,40
9780,note_on,180,0,7,,,,,,,,5,,,61,0
9780,note_on,30,0,2,,,,,,,,0,,,80,0
9780,note_on,60,0,8,,,,,,,,6,,,54,0
9780,note_on,0,0,8,,,,,,,,6,,,49,77
9780,note_on,0,0,7,,,,,,,,5,,,66,77
9798,note_on,78,0,10,,,,,,,,8,,,42,0
9810,note_on,30,0,2,,,,,,,,0,,,81,0
9810,note_on,0,0,2,,,,,,,,0,,,78,40
9840,note_on,0,0,5,,,,,,,,3,,,61,60
9840,note_on,60,0,5,,,,,,,,3,,,49,0
9840,note_on,60,0,4,,,,,,,,2,,,66,0
9840,note_on,0,0,4,,,,,,,,2,,,66,60
9840,note_on,60,0,8,,,,,,,,6,,,49,0
9840,note_on,0,0,8,,,,,,,,6,,,61,77
9840,note_on,0,0,11,,,,,,,,10,,,61,0
9840,note_on,30,0,2,,,,,,,,0,,,78,0
9840,note_on,0,0,11,,,,,,,,10,,,56,30
9840,note_on,0,0,11,,,,,,,,10,,,54,30
9840,note_on,42,0,10,,,,,,,,8,,,49,64
9840,note_on,120,0,9,,,,,,,,7,,,42,0
9840,note_on,0,0,11,,,,,,,,10,,,57,0
9840,note_on,0,0,11,,,,,,,,10,,,54,0
9840,note_on,120,0,11,,,,,,,,10,,,42,0
9840,note_on,0,0,11,,,,,,,,10,,,49,30
9840,note_on,60,0,7,,,,,,,,5,,,66,0
9840,note_on,0,0,7,,,,,,,,5,,,66,77
9840,note_on,0,0,11,,,,,,,,10,,,61,30
9840,note_on,0,0,2,,,,,,,,0,,,80,40
9870,note_on,30,0,2,,,,,,,,0,,,78,0
9870,note_on,0,0,2,,,,,,,,0,,,77,40
9900,note_on,0,0,7,,,,,,,,5,,,59,78
9900,note_on,0,0,4,,,,,,,,2,,,59,61
9900,note_on,60,0,4,,,,,,,,2,,,66,0
9900,note_on,30,0,2,,,,,,,,0,,,77,0
9900,note_on,0,0,2,,,,,,,,0,,,78,40
9900,note_on,60,0,7,,,,,,,,5,,,66,0
9900,note_on,0,0,6,,,,,,,,4,,,74,78
9900,note_on,180,0,6,,,,,,,,4,,,73,0
9900,note_on,0,0,3,,,,,,,,1,,,74,61
9900,note_on,180,0,3,,,,,,,,1,,,73,0
9918,note_on,78,0,10,,,,,,,,8,,,49,0
9930,note_on,0,0,6,,,,,,,,4,,,73,78
9930,note_on,0,0,2,,,,,,,,0,,,75,40
9930,note_on,30,0,2,,,,,,,,0,,,78,0
9930,note_on,0,0,3,,,,,,,,1,,,73,62
9930,note_on,30,0,3,,,,,,,,1,,,74,0
9930,note_on,30,0,6,,,,,,,,4,,,74,0
9939,note_on,39,0,4,,,,,,,,2,,,59,0
9960,note_on,0,0,5,,,,,,,,3,,,56,62
9960,note_on,60,0,7,,,,,,,,5,,,59,0
9960,note_on,30,0,3,,,,,,,,1,,,73,0
9960,note_on,21,0,4,,,,,,,,2,,,62,62
9960,note_on,0,0,3,,,,,,,,1,,,71,62
9960,note_on,0,0,11,,,,,,,,10,,,54,0
9960,note_on,0,0,8,,,,,,,,6,,,56,79
9960,note_on,30,0,2,,,,,,,,0,,,75,0
9960,note_on,0,0,2,,,,,,,,0,,,78,40
9960,note_on,120,0,11,,,,,,,,10,,,49,0
9960,note_on,0,0,6,,,,,,,,4,,,71,79
9960,note_on,30,0,6,,,,,,,,4,,,73,0
9960,note_on,120,0,5,,,,,,,,3,,,61,0
9960,note_on,120,0,9,,,,,,,,7,,,56,79
9960,note_on,120,0,8,,,,,,,,6,,,61,0
9960,note_on,0,0,7,,,,,,,,5,,,62,79
9960,note_on,42,0,10,,,,,,,,8,,,37,64
9960,note_on,0,0,11,,,,,,,,10,,,53,30
9960,note_on,0,0,11,,,,,,,,10,,,37,30
9975,note_on,15,0,2,,,,,,,,0,,,78,0
9975,note_on,0,0,2,,,,,,,,0,,,77,40
9990,note_on,15,0,2,,,,,,,,0,,,77,0
9990,note_on,0,0,2,,,,,,,,0,,,78,40
9990,note_on,30,0,3,,,,,,,,1,,,71,0
9990,note_on,0,0,6,,,,,,,,4,,,69,79
9990,note_on,30,0,6,,,,,,,,4,,,71,0
9990,note_on,0,0,3,,,,,,,,1,,,69,63
10005,note_on,15,0,2,,,,,,,,0,,,78,0
10005,note_on,0,0,2,,,,,,,,0,,,77,40
10020,note_on,30,0,6,,,,,,,,4,,,69,0
10020,note_on,60,0,7,,,,,,,,5,,,62,0
10020,note_on,0,0,7,,,,,,,,5,,,61,79
10020,note_on,30,0,3,,,,,,,,1,,,69,0
10020,note_on,0,0,3,,,,,,,,1,,,71,63
10020,note_on,0,0,9,,,,,,,,7,,,53,79
10020,note_on,0,0,6,,,,,,,,4,,,71,79
10020,note_on,60,0,9,,,,,,,,7,,,56,0
10020,note_on,0,0,4,,,,,,,,2,,,61,63
10020,note_on,60,0,4,,,,,,,,2,,,62,0
10020,note_on,0,0,2,,,,,,,,0,,,78,40
10020,note_on,0,0,2,,,,,,,,0,,,78,40
10020,note_on,0,0,2,,,,,,,,0,,,80,0
10020,note_on,15,0,2,,,,,,,,0,,,77,0
10035,note_on,0,0,2,,,,,,,,0,,,77,40
10035,note_on,15,0,2,,,,,,,,0,,,78,0
10038,note_on,78,0,10,,,,,,,,8,,,37,0
10050,note_on,0,0,2,,,,,,,,0,,,78,40
10050,note_on,15,0,2,,,,,,,,0,,,77,0
10059,note_on,39,0,4,,,,,,,,2,,,61,0
10080,note_on,0,0,11,,,,,,,,10,,,42,30
10080,note_on,0,0,9,,,,,,,,7,,,49,80
10080,note_on,60,0,9,,,,,,,,7,,,53,0
10080,note_on,0,0,11,,,,,,,,10,,,61,30
10080,note_on,0,0,11,,,,,,,,10,,,56,0
10080,note_on,0,0,11,,,,,,,,10,,,54,30
10080,note_on,0,0,11,,,,,,,,10,,,53,0
10080,note_on,0,0,11,,,,,,,,10,,,61,0
10080,note_on,120,0,11,,,,,,,,10,,,37,0
10080,note_on,42,0,10,,,,,,,,8,,,42,64
10080,note_on,120,0,8,,,,,,,,6,,,56,0
10080,note_on,0,0,8,,,,,,,,6,,,57,80
10080,note_on,0,0,3,,,,,,,,1,,,69,64
10080,note_on,0,0,7,,,,,,,,5,,,61,80
10080,note_on,60,0,7,,,,,,,,5,,,61,0
10080,note_on,60,0,3,,,,,,,,1,,,71,0
10080,note_on,0,0,11,,,,,,,,10,,,57,30
10080,note_on,0,0,6,,,,,,,,4,,,69,80
10080,note_on,60,0,6,,,,,,,,4,,,71,0
10080,note_on,30,0,2,,,,,,,,0,,,78,0
10080,note_on,120,0,5,,,,,,,,3,,,56,0
10080,note_on,0,0,5,,,,,,,,3,,,57,64
10080,note_on,0,0,2,,,,,,,,0,,,78,40
10080,note_on,0,0,2,,,,,,,,0,,,78,0
10080,note_on,0,0,2,,,,,,,,0,,,78,40
10080,note_on,21,0,4,,,,,,,,2,,,61,64
10110,note_on,30,0,2,,,,,,,,0,,,78,0
10110,note_on,0,0,2,,,,,,,,0,,,71,40
10140,note_on,30,0,2,,,,,,,,0,,,71,0
10140,note_on,0,0,2,,,,,,,,0,,,73,40
10140,note_on,0,0,5,,,,,,,,3,,,54,60
10140,note_on,60,0,5,,,,,,,,3,,,57,0
10158,note_on,78,0,10,,,,,,,,8,,,42,0
10170,note_on,30,0,2,,,,,,,,0,,,73,0
10170,note_on,0,0,2,,,,,,,,0,,,74,40
10179,note_on,39,0,5,,,,,,,,3,,,54,0
10200,note_on,21,0,5,,,,,,,,3,,,61,56
10200,note_on,0,0,9,,,,,,,,7,,,49,64
10200,note_on,120,0,9,,,,,,,,7,,,49,0
10200,note_on,120,0,7,,,,,,,,5,,,61,0
10200,note_on,0,0,11,,,,,,,,10,,,61,0
10200,note_on,0,0,11,,,,,,,,10,,,57,0
10200,note_on,0,0,11,,,,,,,,10,,,54,0
10200,note_on,120,0,11,,,,,,,,10,,,42,0
10200,note_on,30,0,2,,,,,,,,0,,,74,0
10200,note_on,0,0,2,,,,,,,,0,,,73,40
10200,note_on,120,0,8,,,,,,,,6,,,57,0
10200,note_on,0,0,4,,,,,,,,2,,,66,56
10200,note_on,120,0,6,,,,,,,,4,,,69,0
10200,note_on,120,0,4,,,,,,,,2,,,61,0
10200,note_on,42,0,10,,,,,,,,8,,,42,64
10230,note_on,30,0,2,,,,,,,,0,,,73,0
10230,note_on,0,0,2,,,,,,,,0,,,71,40
10260,note_on,0,0,2,,,,,,,,0,,,69,40
10260,note_on,30,0,2,,,,,,,,0,,,71,0
10260,note_on,0,0,5,,,,,,,,3,,,53,52
10260,note_on,60,0,5,,,,,,,,3,,,61,0
10260,note_on,180,0,3,,,,,,,,1,,,69,0
10260,note_on,0,0,3,,,,,,,,1,,,71,52
10260,note_on,0,0,4,,,,,,,,2,,,68,52
10260,note_on,60,0,4,,,,,,,,2,,,66,0
10278,note_on,78,0,10,,,,,,,,8,,,42,0
10290,note_on,0,0,2,,,,,,,,0,,,68,40
10290,note_on,30,0,2,,,,,,,,0,,,69,0
10299,note_on,39,0,5,,,,,,,,3,,,53,0
10320,note_on,0,0,2,,,,,,,,0,,,78,0
10320,note_on,0,0,9,,,,,,,,7,,,49,64
10320,note_on,120,0,9,,,,,,,,7,,,49,0
10320,note_on,0,0,4,,,,,,,,2,,,69,48
10320,note_on,60,0,4,,,,,,,,2,,,68,0
10320,note_on,42,0,10,,,,,,,,8,,,42,64
10320,note_on,21,0,5,,,,,,,,3,,,61,48
10320,note_on,30,0,2,,,,,,,,0,,,68,0
10320,note_on,120,0,8,,,,,,,,6,,,61,64
10320,note_on,60,0,3,,,,,,,,1,,,71,0
10320,note_on,0,0,3,,,,,,,,1,,,73,48
10320,note_on,0,0,2,,,,,,,,0,,,66,40
10350,note_on,30,0,2,,,,,,,,0,,,66,0
10350,note_on,0,0,2,,,,,,,,0,,,69,40
10380,note_on,60,0,3,,,,,,,,1,,,73,0
10380,note_on,0,0,3,,,,,,,,1,,,77,44
10380,note_on,0,0,8,,,,,,,,6,,,57,64
10380,note_on,60,0,8,,,,,,,,6,,,61,0
10380,note_on,0,0,2,,,,,,,,0,,,68,40
10380,note_on,60,0,5,,,,,,,,3,,,61,0
10380,note_on,0,0,5,,,,,,,,3,,,57,44
10380,note_on,30,0,2,,,,,,,,0,,,69,0
10398,note_on,78,0,10,,,,,,,,8,,,42,0
10410,note_on,30,0,2,,,,,,,,0,,,68,0
10410,note_on,0,0,2,,,,,,,,0,,,66,40
10419,note_on,39,0,3,,,,,,,,1,,,77,0
10419,note_on,39,0,5,,,,,,,,3,,,57,0
10440,note_on,60,0,8,,,,,,,,6,,,57,0
10440,note_on,0,0,8,,,,,,,,6,,,54,64
10440,note_on,21,0,3,,,,,,,,1,,,78,40
10440,note_on,42,0,10,,,,,,,,8,,,38,64
10440,note_on,120,0,9,,,,,,,,7,,,49,0
10440,note_on,30,0,2,,,,,,,,0,,,66,0
10440,note_on,0,0,11,,,,,,,,10,,,38,30
10440,note_on,0,0,11,,,,,,,,10,,,60,30
10440,note_on,0,0,11,,,,,,,,10,,,57,30
10440,note_on,240,0,11,,,,,,,,10,,,54,30
10440,note_on,0,0,2,,,,,,,,0,,,78,40
10440,note_on,0,0,2,,,,,,,,0,,,81,40
10440,note_on,0,0,9,,,,,,,,7,,,57,64
10440,note_on,21,0,5,,,,,,,,3,,,60,40
10470,note_on,0,0,2,,,,,,,,0,,,81,0
10470,note_on,30,0,2,,,,,,,,0,,,78,0
10470,note_on,0,0,2,,,,,,,,0,,,79,40
10470,note_on,0,0,2,,,,,,,,0,,,76,40
10500,note_on,180,0,4,,,,,,,,2,,,69,0
10500,note_on,0,0,4,,,,,,,,2,,,62,40
10500,note_on,0,0,2,,,,,,,,0,,,78,40
10500,note_on,0,0,2,,,,,,,,0,,,81,40
10500,note_on,0,0,2,,,,,,,,0,,,79,0
10500,note_on,30,0,2,,,,,,,,0,,,76,0
10500,note_on,60,0,5,,,,,,,,3,,,60,0
10500,note_on,0,0,5,,,,,,,,3,,,57,40
10518,note_on,78,0,10,,,,,,,,8,,,38,0
10530,note_on,0,0,2,,,,,,,,0,,,79,40
10530,note_on,30,0,2,,,,,,,,0,,,78,0
10530,note_on,0,0,2,,,,,,,,0,,,81,0
10530,note_on,0,0,2,,,,,,,,0,,,83,40
10539,note_on,39,0,5,,,,,,,,3,,,57,0
10560,note_on,0,0,2,,,,,,,,0,,,78,40
10560,note_on,21,0,5,,,,,,,,3,,,60,40
10560,note_on,0,0,2,,,,,,,,0,,,81,40
10560,note_on,0,0,2,,,,,,,,0,,,83,0
10560,note_on,30,0,2,,,,,,,,0,,,79,0
10560,note_on,0,0,11,,,,,,,,10,,,60,0
10560,note_on,0,0,11,,,,,,,,10,,,54,0
10560,note_on,0,0,11,,,,,,,,10,,,57,0
10560,note_on,120,0,8,,,,,,,,6,,,54,0
10560,note_on,0,0,8,,,,,,,,6,,,54,64
10560,note_on,60,0,4,,,,,,,,2,,,62,0
10560,note_on,0,0,4,,,,,,,,2,,,64,40
10560,note_on,42,0,10,,,,,,,,8,,,38,64
10560,note_on,120,0,11,,,,,,,,10,,,38,0
10590,note_on,30,0,2,,,,,,,,0,,,78,0
10590,note_on,0,0,2,,,,,,,,0,,,76,40
10590,note_on,0,0,2,,,,,,,,0,,,79,40
10590,note_on,0,0,2,,,,,,,,0,,,81,0
10620,note_on,0,0,4,,,,,,,,2,,,66,40
10620,note_on,60,0,4,,,,,,,,2,,,64,0
10620,note_on,0,0,2,,,,,,,,0,,,78,40
10620,note_on,0,0,2,,,,,,,,0,,,74,40
10620,note_on,0,0,5,,,,,,,,3,,,57,40
10620,note_on,60,0,5,,,,,,,,3,,,60,0
10620,note_on,30,0,2,,,,,,,,0,,,76,0
10620,note_on,0,0,2,,,,,,,,0,,,79,0
10638,note_on,78,0,10,,,,,,,,8,,,38,0
10650,note_on,30,0,2,,,,,,,,0,,,74,0
10650,note_on,0,0,2,,,,,,,,0,,,78,0
10650,note_on,0,0,2,,,,,,,,0,,,76,40
10650,note_on,0,0,2,,,,,,,,0,,,76,40
10659,note_on,39,0,5,,,,,,,,3,,,57,0
10680,note_on,120,0,8,,,,,,,,6,,,54,0
10680,note_on,0,0,8,,,,,,,,6,,,54,64
10680,note_on,42,0,10,,,,,,,,8,,,38,64
10680,note_on,480,0,7,,,,,,,,5,,,66,64
10680,note_on,21,0,5,,,,,,,,3,,,60,40
10680,note_on,0,0,2,,,,,,,,0,,,78,40
10680,note_on,0,0,2,,,,,,,,0,,,76,0
10680,note_on,30,0,2,,,,,,,,0,,,76,0
10680,note_on,0,0,4,,,,,,,,2,,,67,40
10680,note_on,60,0,4,,,,,,,,2,,,66,0
10680,note_on,0,0,2,,,,,,,,0,,,74,40
10710,note_on,0,0,2,,,,,,,,0,,,74,40
10710,note_on,30,0,2,,,,,,,,0,,,78,0
10710,note_on,0,0,2,,,,,,,,0,,,74,0
10710,note_on,0,0,2,,,,,,,,0,,,78,40
10740,note_on,30,0,2,,,,,,,,0,,,74,0
10740,note_on,0,0,2,,,,,,,,0,,,78,0
10740,note_on,0,0,2,,,,,,,,0,,,76,40
10740,note_on,0,0,7,,,,,,,,5,,,62,64
10740,note_on,60,0,7,,,,,,,,5,,,66,0
10740,note_on,0,0,4,,,,,,,,2,,,69,40
10740,note_on,0,0,5,,,,,,,,3,,,54,40
10740,note_on,60,0,4,,,,,,,,2,,,67,0
10740,note_on,0,0,2,,,,,,,,0,,,76,40
10740,note_on,60,0,5,,,,,,,,3,,,60,0
10758,note_on,78,0,10,,,,,,,,8,,,38,0
10770,note_on,30,0,2,,,,,,,,0,,,76,0
10770,note_on,0,0,2,,,,,,,,0,,,76,0
10770,note_on,0,0,2,,,,,,,,0,,,74,40
10770,note_on,0,0,2,,,,,,,,0,,,78,40
10779,note_on,39,0,5,,,,,,,,3,,,54,0
10800,note_on,0,0,4,,,,,,,,2,,,71,40
10800,note_on,0,0,2,,,,,,,,0,,,86,40
10800,note_on,60,0,4,,,,,,,,2,,,69,0
10800,note_on,21,0,5,,,,,,,,3,,,55,40
10800,note_on,42,0,10,,,,,,,,8,,,43,64
10800,note_on,120,0,8,,,,,,,,6,,,54,0
10800,note_on,0,0,8,,,,,,,,6,,,62,64
10800,note_on,30,0,2,,,,,,,,0,,,78,0
10800,note_on,0,0,2,,,,,,,,0,,,74,0
10800,note_on,0,0,7,,,,,,,,5,,,59,64
10800,note_on,60,0,7,,,,,,,,5,,,62,0
10800,note_on,0,0,2,,,,,,,,0,,,71,40
10800,note_on,240,0,11,,,,,,,,10,,,55,30
10800,note_on,0,0,11,,,,,,,,10,,,60,30
10800,note_on,0,0,11,,,,,,,,10,,,43,30
10860,note_on,60,0,5,,,,,,,,3,,,55,0
10860,note_on,420,0,3,,,,,,,,1,,,78,0
10860,note_on,0,0,3,,,,,,,,1,,,62,40
10860,note_on,0,0,5,,,,,,,,3,,,59,40
10860,note_on,0,0,4,,,,,,,,2,,,67,40
10860,note_on,60,0,4,,,,,,,,2,,,71,0
10878,note_on,78,0,10,,,,,,,,8,,,43,0
10890,note_on,0,0,5,,,,,,,,3,,,60,40
10890,note_on,30,0,5,,,,,,,,3,,,59,0
10890,note_on,30,0,4,,,,,,,,2,,,67,0
10890,note_on,0,0,4,,,,,,,,2,,,69,40
10920,note_on,120,0,11,,,,,,,,10,,,43,0
10920,note_on,30,0,4,,,,,,,,2,,,69,0
10920,note_on,0,0,4,,,,,,,,2,,,71,40
10920,note_on,0,0,5,,,,,,,,3,,,62,40
10920,note_on,30,0,5,,,,,,,,3,,,60,0
10920,note_on,0,0,9,,,,,,,,7,,,55,64
10920,note_on,480,0,9,,,,,,,,7,,,57,0
10920,note_on,42,0,10,,,,,,,,8,,,43,64
10920,note_on,0,0,11,,,,,,,,10,,,60,0
10920,note_on,0,0,11,,,,,,,,10,,,59,30
10920,note_on,0,0,11,,,,,,,,10,,,55,30
10920,note_on,0,0,11,,,,,,,,10,,,55,0
10920,note_on,0,0,7,,,,,,,,5,,,59,64
10920,note_on,120,0,7,,,,,,,,5,,,59,0
10950,note_on,0,0,4,,,,,,,,2,,,72,40
10950,note_on,30,0,4,,,,,,,,2,,,71,0
10980,note_on,0,0,4,,,,,,,,2,,,74,40
10980,note_on,30,0,4,,,,,,,,2,,,72,0
10980,note_on,60,0,9,,,,,,,,7,,,55,0
10980,note_on,60,0,5,,,,,,,,3,,,62,0
10980,note_on,0,0,9,,,,,,,,7,,,54,64
10980,note_on,0,0,3,,,,,,,,1,,,64,40
10980,note_on,120,0,3,,,,,,,,1,,,62,0
10980,note_on,0,0,5,,,,,,,,3,,,60,40
10998,note_on,78,0,10,,,,,,,,8,,,43,0
11010,note_on,0,0,3,,,,,,,,1,,,66,40
11010,note_on,30,0,3,,,,,,,,1,,,64,0
11040,note_on,120,0,11,,,,,,,,10,,,59,0
11040,note_on,0,0,11,,,,,,,,10,,,55,0
11040,note_on,840,0,6,,,,,,,,4,,,71,64
11040,note_on,60,0,5,,,,,,,,3,,,60,0
11040,note_on,42,0,10,,,,,,,,8,,,43,64
11040,note_on,30,0,3,,,,,,,,1,,,66,0
11040,note_on,0,0,3,,,,,,,,1,,,67,40
11040,note_on,60,0,9,,,,,,,,7,,,54,0
11040,note_on,0,0,9,,,,,,,,7,,,59,64
11040,note_on,0,0,7,,,,,,,,5,,,59,64
11040,note_on,120,0,7,,,,,,,,5,,,59,0
11040,note_on,0,0,5,,,,,,,,3,,,59,40
11070,note_on,0,0,3,,,,,,,,1,,,69,40
11070,note_on,30,0,3,,,,,,,,1,,,67,0
11100,note_on,0,0,3,,,,,,,,1,,,71,40
11100,note_on,30,0,3,,,,,,,,1,,,69,0
11100,note_on,120,0,4,,,,,,,,2,,,74,0
11100,note_on,60,0,5,,,,,,,,3,,,59,0
11100,note_on,0,0,4,,,,,,,,2,,,71,40
11100,note_on,0,0,6,,,,,,,,4,,,67,64
11100,note_on,60,0,6,,,,,,,,4,,,71,0
11100,note_on,0,0,5,,,,,,,,3,,,62,40
11118,note_on,78,0,10,,,,,,,,8,,,43,0
11160,note_on,60,0,5,,,,,,,,3,,,62,0
11160,note_on,0,0,3,,,,,,,,1,,,71,40
11160,note_on,60,0,3,,,,,,,,1,,,71,0
11160,note_on,0,0,6,,,,,,,,4,,,65,64
11160,note_on,60,0,6,,,,,,,,4,,,67,0
11160,note_on,120,0,11,,,,,,,,10,,,61,30
11160,note_on,0,0,4,,,,,,,,2,,,68,40
11160,note_on,120,0,9,,,,,,,,7,,,59,0
11160,note_on,0,0,9,,,,,,,,7,,,59,64
11160,note_on,0,0,11,,,,,,,,10,,,65,30
11160,note_on,0,0,11,,,,,,,,10,,,69,30
11160,note_on,0,0,7,,,,,,,,5,,,68,64
11160,note_on,120,0,7,,,,,,,,5,,,59,0
11160,note_on,60,0,4,,,,,,,,2,,,71,0
11160,note_on,42,0,10,,,,,,,,8,,,44,64
11160,note_on,0,0,5,,,,,,,,3,,,62,40
11160,note_on,0,0,11,,,,,,,,10,,,44,30
11220,note_on,0,0,5,,,,,,,,3,,,59,40
11220,note_on,60,0,5,,,,,,,,3,,,62,0
11238,note_on,78,0,10,,,,,,,,8,,,44,0
11280,note_on,120,0,11,,,,,,,,10,,,44,0
11280,note_on,0,0,11,,,,,,,,10,,,65,0
11280,note_on,42,0,10,,,,,,,,8,,,44,64
11280,note_on,120,0,6,,,,,,,,4,,,65,0
11280,note_on,0,0,6,,,,,,,,4,,,65,64
11280,note_on,0,0,11,,,,,,,,10,,,61,0
11280,note_on,0,0,8,,,,,,,,6,,,61,64
11280,note_on,0,0,5,,,,,,,,3,,,56,40
11280,note_on,0,0,11,,,,,,,,10,,,69,0
11280,note_on,0,0,11,,,,,,,,10,,,61,30
11280,note_on,0,0,11,,,,,,,,10,,,65,30
11280,note_on,0,0,11,,,,,,,,10,,,68,30
11280,note_on,480,0,8,,,,,,,,6,,,62,0
11280,note_on,60,0,5,,,,,,,,3,,,59,0
11340,note_on,0,0,5,,,,,,,,3,,,57,40
11340,note_on,60,0,5,,,,,,,,3,,,56,0
11358,note_on,78,0,10,,,,,,,,8,,,44,0
11379,note_on,39,0,5,,,,,,,,3,,,57,0
11400,note_on,0,0,6,,,,,,,,4,,,65,64
11400,note_on,120,0,6,,,,,,,,4,,,65,0
11400,note_on,21,0,5,,,,,,,,3,,,59,40
11400,note_on,240,0,9,,,,,,,,7,,,59,0
11400,note_on,0,0,11,,,,,,,,10,,,65,0
11400,note_on,120,0,11,,,,,,,,10,,,68,0
11400,note_on,42,0,10,,,,,,,,8,,,44,64
11400,note_on,0,0,8,,,,,,,,6,,,59,64
11400,note_on,0,0,9,,,,,,,,7,,,50,64
11400,note_on,120,0,8,,,,,,,,6,,,61,0
11400,note_on,0,0,11,,,,,,,,10,,,61,0
11460,note_on,60,0,5,,,,,,,,3,,,59,0
11460,note_on,0,0,5,,,,,,,,3,,,62,40
11478,note_on,78,0,10,,,,,,,,8,,,44,0
11499,note_on,39,0,5,,,,,,,,3,,,62,0
11520,note_on,120,0,6,,,,,,,,4,,,65,0
11520,note_on,42,0,10,,,,,,,,8,,,41,64
11520,note_on,120,0,11,,,,,,,,10,,,53,30
11520,note_on,0,0,11,,,,,,,,10,,,56,30
11520,note_on,0,0,11,,,,,,,,10,,,59,30
11520,note_on,0,0,11,,,,,,,,10,,,62,30
11520,note_on,0,0,11,,,,,,,,10,,,41,30
11520,note_on,21,0,5,,,,,,,,3,,,53,40
11520,note_on,120,0,8,,,,,,,,6,,,59,0
11520,note_on,120,0,9,,,,,,,,7,,,50,0
11520,note_on,0,0,6,,,,,,,,4,,,74,64
11520,note_on,0,0,8,,,,,,,,6,,,59,64
11550,note_on,750,0,2,,,,,,,,0,,,86,0
11550,note_on,0,0,2,,,,,,,,0,,,85,40
11580,note_on,30,0,2,,,,,,,,0,,,85,0
11580,note_on,0,0,2,,,,,,,,0,,,86,40
11598,note_on,78,0,10,,,,,,,,8,,,41,0
11610,note_on,30,0,2,,,,,,,,0,,,86,0
11610,note_on,0,0,2,,,,,,,,0,,,88,40
11640,note_on,0,0,7,,,,,,,,5,,,66,64
11640,note_on,0,0,11,,,,,,,,10,,,62,0
11640,note_on,42,0,10,,,,,,,,8,,,41,64
11640,note_on,0,0,11,,,,,,,,10,,,59,0
11640,note_on,30,0,2,,,,,,,,0,,,88,0
11640,note_on,120,0,9,,,,,,,,7,,,59,64
11640,note_on,0,0,2,,,,,,,,0,,,86,40
11640,note_on,0,0,11,,,,,,,,10,,,53,0
11640,note_on,0,0,11,,,,,,,,10,,,56,0
11640,note_on,480,0,7,,,,,,,,5,,,68,0
11640,note_on,120,0,11,,,,,,,,10,,,41,0
11670,note_on,0,0,2,,,,,,,,0,,,85,40
11670,note_on,30,0,2,,,,,,,,0,,,86,0
11700,note_on,0,0,2,,,,,,,,0,,,83,40
11700,note_on,30,0,2,,,,,,,,0,,,85,0
11718,note_on,78,0,10,,,,,,,,8,,,41,0
11730,note_on,30,0,2,,,,,,,,0,,,83,0
11730,note_on,0,0,2,,,,,,,,0,,,81,40
11760,note_on,0,0,2,,,,,,,,0,,,83,40
11760,note_on,30,0,2,,,,,,,,0,,,81,0
11760,note_on,42,0,10,,,,,,,,8,,,41,64
11760,note_on,240,0,8,,,,,,,,6,,,59,0
11760,note_on,0,0,8,,,,,,,,6,,,59,64
11760,note_on,0,0,7,,,,,,,,5,,,65,64
11760,note_on,120,0,7,,,,,,,,5,,,66,0
11790,note_on,30,0,2,,,,,,,,0,,,83,0
11790,note_on,0,0,2,,,,,,,,0,,,80,40
11820,note_on,0,0,9,,,,,,,,7,,,56,64
11820,note_on,30,0,2,,,,,,,,0,,,80,0
11820,note_on,0,0,2,,,,,,,,0,,,81,40
11820,note_on,180,0,9,,,,,,,,7,,,59,0
11838,note_on,78,0,10,,,,,,,,8,,,41,0
11850,note_on,30,0,2,,,,,,,,0,,,81,0
11850,note_on,0,0,2,,,,,,,,0,,,83,40
11880,note_on,0,0,11,,,,,,,,10,,,37,30
11880,note_on,0,0,11,,,,,,,,10,,,62,30
11880,note_on,0,0,11,,,,,,,,10,,,59,30
11880,note_on,0,0,2,,,,,,,,0,,,77,40
11880,note_on,240,0,11,,,,,,,,10,,,49,30
11880,note_on,42,0,10,,,,,,,,8,,,37,64
11880,note_on,120,0,7,,,,,,,,5,,,65,0
11880,note_on,0,0,7,,,,,,,,5,,,71,64
11880,note_on,0,0,9,,,,,,,,7,,,61,64
11880,note_on,60,0,9,,,,,,,,7,,,56,0
11880,note_on,120,0,8,,,,,,,,6,,,59,0
11880,note_on,30,0,2,,,,,,,,0,,,83,0
11910,note_on,30,0,2,,,,,,,,0,,,77,0
11910,note_on,0,0,2,,,,,,,,0,,,69,40
11910,note_on,0,0,2,,,,,,,,0,,,78,40
11910,note_on,0,0,2,,,,,,,,0,,,71,0
11940,note_on,30,0,2,,,,,,,,0,,,69,0
11940,note_on,0,0,2,,,,,,,,0,,,80,40
11940,note_on,0,0,5,,,,,,,,3,,,54,40
11940,note_on,420,0,5,,,,,,,,3,,,53,0
11940,note_on,0,0,2,,,,,,,,0,,,71,40
11940,note_on,780,0,3,,,,,,,,1,,,71,0
11940,note_on,0,0,3,,,,,,,,1,,,68,40
11940,note_on,0,0,2,,,,,,,,0,,,78,0
11958,note_on,78,0,10,,,,,,,,8,,,37,0
11970,note_on,0,0,2,,,,,,,,0,,,81,40
11970,note_on,0,0,2,,,,,,,,0,,,80,0
11970,note_on,30,0,2,,,,,,,,0,,,71,0
11970,note_on,0,0,2,,,,,,,,0,,,73,40
12000,note_on,42,0,10,,,,,,,,8,,,37,64
12000,note_on,0,0,2,,,,,,,,0,,,71,40
12000,note_on,0,0,11,,,,,,,,10,,,57,30
12000,note_on,120,0,11,,,,,,,,10,,,37,0
12000,note_on,0,0,11,,,,,,,,10,,,49,30
12000,note_on,0,0,11,,,,,,,,10,,,62,0
12000,note_on,0,0,11,,,,,,,,10,,,59,0
12000,note_on,0,0,2,,,,,,,,0,,,80,40
12000,note_on,30,0,2,,,,,,,,0,,,73,0
12000,note_on,0,0,11,,,,,,,,10,,,61,30
12000,note_on,0,0,2,,,,,,,,0,,,81,0
12000,note_on,0,0,11,,,,,,,,10,,,49,0
12000,note_on,120,0,8,,,,,,,,6,,,68,64
12000,note_on,0,0,6,,,,,,,,4,,,73,64
12000,note_on,480,0,6,,,,,,,,4,,,74,0
12000,note_on,60,0,5,,,,,,,,3,,,54,0
12000,note_on,0,0,5,,,,,,,,3,,,56,40
12000,note_on,0,0,3,,,,,,,,1,,,65,40
12000,note_on,60,0,3,,,,,,,,1,,,68,0
12030,note_on,30,0,2,,,,,,,,0,,,71,0
12030,note_on,0,0,2,,,,,,,,0,,,80,0
12030,note_on,0,0,2,,,,,,,,0,,,69,40
12030,note_on,0,0,2,,,,,,,,0,,,78,40
12060,note_on,0,0,3,,,,,,,,1,,,66,40
12060,note_on,60,0,3,,,,,,,,1,,,65,0
12060,note_on,60,0,5,,,,,,,,3,,,56,0
12060,note_on,0,0,2,,,,,,,,0,,,68,40
12060,note_on,0,0,2,,,,,,,,0,,,77,40
12060,note_on,0,0,2,,,,,,,,0,,,78,0
12060,note_on,30,0,2,,,,,,,,0,,,69,0
12060,note_on,0,0,5,,,,,,,,3,,,57,40
12078,note_on,78,0,10,,,,,,,,8,,,37,0
12090,note_on,0,0,2,,,,,,,,0,,,66,40
12090,note_on,0,0,2,,,,,,,,0,,,75,40
12090,note_on,30,0,2,,,,,,,,0,,,68,0
12090,note_on,0,0,2,,,,,,,,0,,,77,0
12099,note_on,39,0,5,,,,,,,,3,,,57,0
12099,note_on,39,0,3,,,,,,,,1,,,66,0
12120,note_on,0,0,6,,,,,,,,4,,,71,64
12120,note_on,0,0,11,,,,,,,,10,,,57,0
12120,note_on,0,0,11,,,,,,,,10,,,49,0
12120,note_on,21,0,3,,,,,,,,1,,,68,40
12120,note_on,240,0,9,,,,,,,,7,,,61,0
12120,note_on,0,0,2,,,,,,,,0,,,75,0
12120,note_on,0,0,7,,,,,,,,5,,,61,64
12120,note_on,240,0,7,,,,,,,,5,,,71,0
12120,note_on,120,0,11,,,,,,,,10,,,61,0
12120,note_on,120,0,6,,,,,,,,4,,,73,0
12120,note_on,42,0,10,,,,,,,,8,,,37,64
12120,note_on,30,0,2,,,,,,,,0,,,66,0
12120,note_on,0,0,2,,,,,,,,0,,,65,40
12120,note_on,21,0,5,,,,,,,,3,,,59,40
12120,note_on,0,0,2,,,,,,,,0,,,73,40
12150,note_on,0,0,2,,,,,,,,0,,,68,40
12150,note_on,0,0,2,,,,,,,,0,,,77,40
12150,note_on,30,0,2,,,,,,,,0,,,65,0
12150,note_on,0,0,2,,,,,,,,0,,,73,0
12150,note_on,0,0,5,,,,,,,,3,,,56,40
12150,note_on,30,0,5,,,,,,,,3,,,59,0
12180,note_on,0,0,2,,,,,,,,0,,,77,0
12180,note_on,0,0,5,,,,,,,,3,,,61,40
12180,note_on,30,0,5,,,,,,,,3,,,56,0
12180,note_on,60,0,3,,,,,,,,1,,,68,0
12180,note_on,30,0,2,,,,,,,,0,,,68,0
12180,note_on,0,0,2,,,,,,,,0,,,75,40
12180,note_on,0,0,2,,,,,,,,0,,,66,40
12180,note_on,180,0,8,,,,,,,,6,,,68,0
12180,note_on,0,0,8,,,,,,,,6,,,65,64
12180,note_on,0,0,3,,,,,,,,1,,,71,40
12198,note_on,78,0,10,,,,,,,,8,,,37,0
12210,note_on,0,0,2,,,,,,,,0,,,65,40
12210,note_on,0,0,2,,,,,,,,0,,,73,40
12210,note_on,0,0,2,,,,,,,,0,,,75,0
12210,note_on,30,0,2,,,,,,,,0,,,66,0
12219,note_on,39,0,5,,,,,,,,3,,,61,0
12219,note_on,39,0,3,,,,,,,,1,,,71,0
12240,note_on,60,0,8,,,,,,,,6,,,65,0
12240,note_on,0,0,8,,,,,,,,6,,,66,64
12240,note_on,21,0,5,,,,,,,,3,,,61,40
12240,note_on,1080,0,4,,,,,,,,2,,,68,0
12240,note_on,21,0,3,,,,,,,,1,,,69,40
12240,note_on,120,0,6,,,,,,,,4,,,71,0
12240,note_on,0,0,2,,,,,,,,0,,,73,0
12240,note_on,0,0,6,,,,,,,,4,,,69,64
12240,note_on,0,0,2,,,,,,,,0,,,81,40
12240,note_on,0,0,11,,,,,,,,10,,,57,30
12240,note_on,0,0,11,,,,,,,,10,,,42,30
12240,note_on,42,0,10,,,,,,,,8,,,42,64
12240,note_on,0,0,2,,,,,,,,0,,,73,40
12240,note_on,0,0,4,,,,,,,,2,,,66,40
12240,note_on,30,0,2,,,,,,,,0,,,65,0
12240,note_on,120,0,11,,,,,,,,10,,,54,30
12240,note_on,120,0,7,,,,,,,,5,,,61,0
12270,note_on,0,0,2,,,,,,,,0,,,71,40
12270,note_on,30,0,2,,,,,,,,0,,,73,0
12300,note_on,0,0,2,,,,,,,,0,,,73,40
12300,note_on,30,0,2,,,,,,,,0,,,71,0
12300,note_on,60,0,6,,,,,,,,4,,,69,0
12300,note_on,0,0,6,,,,,,,,4,,,68,64
12318,note_on,78,0,10,,,,,,,,8,,,42,0
12330,note_on,0,0,2,,,,,,,,0,,,74,40
12330,note_on,30,0,2,,,,,,,,0,,,73,0
12360,note_on,42,0,10,,,,,,,,8,,,42,64
12360,note_on,0,0,6,,,,,,,,4,,,69,64
12360,note_on,60,0,6,,,,,,,,4,,,68,0
12360,note_on,0,0,2,,,,,,,,0,,,73,40
12360,note_on,0,0,2,,,,,,,,0,,,81,0
12360,note_on,30,0,2,,,,,,,,0,,,74,0
12360,note_on,120,0,11,,,,,,,,10,,,42,0
12360,note_on,0,0,11,,,,,,,,10,,,57,0
12360,note_on,0,0,11,,,,,,,,10,,,54,0
12360,note_on,0,0,2,,,,,,,,0,,,78,40
12360,note_on,120,0,8,,,,,,,,6,,,66,0
12360,note_on,240,0,9,,,,,,,,7,,,54,64
12360,note_on,120,0,7,,,,,,,,5,,,66,64
12360,note_on,0,0,8,,,,,,,,6,,,57,64
12390,note_on,0,0,2,,,,,,,,0,,,71,40
12390,note_on,30,0,2,,,,,,,,0,,,73,0
12420,note_on,60,0,9,,,,,,,,7,,,54,0
12420,note_on,0,0,2,,,,,,,,0,,,69,40
12420,note_on,0,0,9,,,,,,,,7,,,56,64
12420,note_on,30,0,2,,,,,,,,0,,,71,0
12420,note_on,0,0,8,,,,,,,,6,,,59,64
12420,note_on,60,0,8,,,,,,,,6,,,57,0
12438,note_on,78,0,10,,,,,,,,8,,,42,0
12450,note_on,0,0,2,,,,,,,,0,,,68,40
12450,note_on,30,0,2,,,,,,,,0,,,69,0
12480,note_on,120,0,6,,,,,,,,4,,,69,0
12480,note_on,60,0,9,,,,,,,,7,,,56,0
12480,note_on,0,0,6,,,,,,,,4,,,66,64
12480,note_on,0,0,9,,,,,,,,7,,,57,64
12480,note_on,0,0,2,,,,,,,,0,,,66,40
12480,note_on,42,0,10,,,,,,,,8,,,42,64
12480,note_on,0,0,8,,,,,,,,6,,,61,64
12480,note_on,60,0,8,,,,,,,,6,,,59,0
12480,note_on,30,0,2,,,,,,,,0,,,68,0
12510,note_on,30,0,2,,,,,,,,0,,,66,0
12510,note_on,0,0,2,,,,,,,,0,,,69,40
12540,note_on,180,0,7,,,,,,,,5,,,66,0
12540,note_on,60,0,9,,,,,,,,7,,,57,0
12540,note_on,60,0,8,,,,,,,,6,,,61,0
12540,note_on,0,0,9,,,,,,,,7,,,54,64
12540,note_on,0,0,2,,,,,,,,0,,,68,40
12540,note_on,30,0,2,,,,,,,,0,,,69,0
12540,note_on,0,0,7,,,,,,,,5,,,62,64
12540,note_on,0,0,8,,,,,,,,6,,,57,64
12558,note_on,78,0,10,,,,,,,,8,,,42,0
12570,note_on,0,0,2,,,,,,,,0,,,66,40
12570,note_on,30,0,2,,,,,,,,0,,,68,0
12600,note_on,360,0,4,,,,,,,,2,,,66,0
12600,note_on,42,0,10,,,,,,,,8,,,42,64
12600,note_on,60,0,9,,,,,,,,7,,,54,0
12600,note_on,0,0,4,,,,,,,,2,,,66,40
12600,note_on,60,0,8,,,,,,,,6,,,57,0
12600,note_on,360,0,3,,,,,,,,1,,,69,0
12600,note_on,240,0,11,,,,,,,,10,,,54,30
12600,note_on,0,0,11,,,,,,,,10,,,59,30
12600,note_on,0,0,11,,,,,,,,10,,,62,30
12600,note_on,0,0,11,,,,,,,,10,,,42,30
12600,note_on,0,0,9,,,,,,,,7,,,59,64
12600,note_on,0,0,7,,,,,,,,5,,,59,64
12600,note_on,60,0,7,,,,,,,,5,,,62,0
12600,note_on,360,0,5,,,,,,,,3,,,61,0
12600,note_on,0,0,3,,,,,,,,1,,,71,40
12600,note_on,0,0,5,,,,,,,,3,,,62,40
12600,note_on,30,0,2,,,,,,,,0,,,66,0
12600,note_on,0,0,2,,,,,,,,0,,,74,40
12600,note_on,0,0,8,,,,,,,,6,,,62,64
12630,note_on,30,0,2,,,,,,,,0,,,78,0
12630,note_on,0,0,2,,,,,,,,0,,,76,40
12660,note_on,180,0,6,,,,,,,,4,,,66,0
12660,note_on,30,0,2,,,,,,,,0,,,76,0
12660,note_on,0,0,2,,,,,,,,0,,,78,40
12660,note_on,0,0,6,,,,,,,,4,,,71,64
12678,note_on,78,0,10,,,,,,,,8,,,42,0
12690,note_on,0,0,6,,,,,,,,4,,,70,64
12690,note_on,0,0,2,,,,,,,,0,,,79,40
12690,note_on,30,0,2,,,,,,,,0,,,78,0
12690,note_on,30,0,6,,,,,,,,4,,,71,0
12720,note_on,120,0,7,,,,,,,,5,,,59,0
12720,note_on,42,0,10,,,,,,,,8,,,42,64
12720,note_on,0,0,2,,,,,,,,0,,,78,40
12720,note_on,0,0,11,,,,,,,,10,,,54,0
12720,note_on,30,0,2,,,,,,,,0,,,79,0
12720,note_on,30,0,6,,,,,,,,4,,,70,0
12720,note_on,0,0,11,,,,,,,,10,,,59,0
12720,note_on,0,0,11,,,,,,,,10,,,62,0
12720,note_on,0,0,7,,,,,,,,5,,,62,64
12720,note_on,0,0,6,,,,,,,,4,,,71,64
12720,note_on,120,0,11,,,,,,,,10,,,42,0
12750,note_on,30,0,2,,,,,,,,0,,,78,0
12750,note_on,0,0,2,,,,,,,,0,,,76,40
12780,note_on,30,0,2,,,,,,,,0,,,76,0
12780,note_on,0,0,2,,,,,,,,0,,,74,40
12780,note_on,60,0,7,,,,,,,,5,,,62,0
12780,note_on,0,0,7,,,,,,,,5,,,64,64
12780,note_on,0,0,6,,,,,,,,4,,,73,64
12780,note_on,60,0,6,,,,,,,,4,,,71,0
12798,note_on,78,0,10,,,,,,,,8,,,42,0
12810,note_on,30,0,2,,,,,,,,0,,,74,0
12810,note_on,0,0,2,,,,,,,,0,,,73,40
12840,note_on,0,0,2,,,,,,,,0,,,71,40
12840,note_on,30,0,2,,,,,,,,0,,,73,0
12840,note_on,60,0,6,,,,,,,,4,,,73,0
12840,note_on,42,0,10,,,,,,,,8,,,42,64
12840,note_on,0,0,7,,,,,,,,5,,,66,64
12840,note_on,60,0,7,,,,,,,,5,,,64,0
12840,note_on,0,0,6,,,,,,,,4,,,74,64
12870,note_on,30,0,2,,,,,,,,0,,,71,0
12870,note_on,0,0,2,,,,,,,,0,,,74,40
12900,note_on,60,0,7,,,,,,,,5,,,66,0
12900,note_on,0,0,7,,,,,,,,5,,,62,64
12900,note_on,300,0,4,,,,,,,,2,,,66,0
12900,note_on,0,0,4,,,,,,,,2,,,66,40
12900,note_on,60,0,6,,,,,,,,4,,,74,0
12900,note_on,0,0,6,,,,,,,,4,,,71,64
12900,note_on,0,0,2,,,,,,,,0,,,73,40
12900,note_on,30,0,2,,,,,,,,0,,,74,0
12918,note_on,78,0,10,,,,,,,,8,,,42,0
12930,note_on,0,0,2,,,,,,,,0,,,71,40
12930,note_on,30,0,2,,,,,,,,0,,,73,0
12960,note_on,0,0,7,,,,,,,,5,,,68,64
12960,note_on,60,0,7,,,,,,,,5,,,62,0
12960,note_on,0,0,6,,,,,,,,4,,,65,64
12960,note_on,60,0,4,,,,,,,,2,,,66,0
12960,note_on,60,0,6,,,,,,,,4,,,71,0
12960,note_on,0,0,11,,,,,,,,10,,,59,30
12960,note_on,240,0,11,,,,,,,,10,,,56,30
12960,note_on,0,0,4,,,,,,,,2,,,71,40
12960,note_on,0,0,11,,,,,,,,10,,,65,30
12960,note_on,0,0,11,,,,,,,,10,,,42,30
12960,note_on,0,0,2,,,,,,,,0,,,80,40
12960,note_on,30,0,2,,,,,,,,0,,,71,0
12960,note_on,42,0,10,,,,,,,,8,,,42,64
12990,note_on,0,0,2,,,,,,,,0,,,71,40
12990,note_on,30,0,2,,,,,,,,0,,,74,0
13009,note_on,19,0,2,,,,,,,,0,,,71,0
13020,note_on,11,0,2,,,,,,,,0,,,71,40
13020,note_on,420,0,5,,,,,,,,3,,,62,0
13020,note_on,0,0,5,,,,,,,,3,,,66,40
13020,note_on,60,0,4,,,,,,,,2,,,71,0
13020,note_on,0,0,4,,,,,,,,2,,,69,40
13038,note_on,78,0,10,,,,,,,,8,,,42,0
13050,note_on,0,0,2,,,,,,,,0,,,73,40
13050,note_on,30,0,2,,,,,,,,0,,,71,0
13059,note_on,39,0,4,,,,,,,,2,,,69,0
13069,note_on,19,0,2,,,,,,,,0,,,73,0
13080,note_on,0,0,5,,,,,,,,3,,,65,40
13080,note_on,21,0,4,,,,,,,,2,,,68,40
13080,note_on,11,0,2,,,,,,,,0,,,73,40
13080,note_on,120,0,11,,,,,,,,10,,,42,0
13080,note_on,120,0,7,,,,,,,,5,,,68,0
13080,note_on,0,0,7,,,,,,,,5,,,65,64
13080,note_on,0,0,11,,,,,,,,10,,,56,0
13080,note_on,480,0,8,,,,,,,,6,,,62,0
13080,note_on,0,0,11,,,,,,,,10,,,65,0
13080,note_on,0,0,11,,,,,,,,10,,,59,0
13080,note_on,120,0,6,,,,,,,,4,,,65,0
13080,note_on,0,0,6,,,,,,,,4,,,61,64
13080,note_on,480,0,9,,,,,,,,7,,,59,0
13080,note_on,0,0,8,,,,,,,,6,,,56,64
13080,note_on,60,0,5,,,,,,,,3,,,66,0
13080,note_on,42,0,10,,,,,,,,8,,,42,64
13080,note_on,0,0,9,,,,,,,,7,,,59,64
13110,note_on,0,0,2,,,,,,,,0,,,69,40
13110,note_on,30,0,2,,,,,,,,0,,,73,0
13129,note_on,19,0,2,,,,,,,,0,,,69,0
13140,note_on,60,0,4,,,,,,,,2,,,68,0
13140,note_on,0,0,4,,,,,,,,2,,,66,40
13140,note_on,11,0,2,,,,,,,,0,,,69,40
13158,note_on,78,0,10,,,,,,,,8,,,42,0
13170,note_on,30,0,2,,,,,,,,0,,,69,0
13170,note_on,0,0,2,,,,,,,,0,,,71,40
13179,note_on,39,0,4,,,,,,,,2,,,66,0
13189,note_on,19,0,2,,,,,,,,0,,,71,0
13200,note_on,120,0,9,,,,,,,,7,,,59,0
13200,note_on,42,0,10,,,,,,,,8,,,42,64
13200,note_on,0,0,7,,,,,,,,5,,,68,64
13200,note_on,11,0,2,,,,,,,,0,,,71,40
13200,note_on,0,0,9,,,,,,,,7,,,59,64
13200,note_on,120,0,7,,,,,,,,5,,,65,0
13200,note_on,120,0,8,,,,,,,,6,,,56,0
13200,note_on,0,0,8,,,,,,,,6,,,61,64
13200,note_on,21,0,4,,,,,,,,2,,,65,40
13200,note_on,120,0,6,,,,,,,,4,,,61,0
13200,note_on,0,0,6,,,,,,,,4,,,65,64
13230,note_on,30,0,2,,,,,,,,0,,,71,0
13230,note_on,0,0,2,,,,,,,,0,,,68,40
13249,note_on,19,0,2,,,,,,,,0,,,68,0
13260,note_on,11,0,2,,,,,,,,0,,,68,40
13260,note_on,60,0,4,,,,,,,,2,,,65,0
13260,note_on,0,0,4,,,,,,,,2,,,68,40
13278,note_on,78,0,10,,,,,,,,8,,,42,0
13290,note_on,0,0,2,,,,,,,,0,,,69,40
13290,note_on,30,0,2,,,,,,,,0,,,68,0
13299,note_on,39,0,4,,,,,,,,2,,,68,0
13309,note_on,19,0,2,,,,,,,,0,,,69,0
13320,note_on,120,0,6,,,,,,,,4,,,65,0
13320,note_on,0,0,11,,,,,,,,10,,,42,30
13320,note_on,0,0,11,,,,,,,,10,,,66,30
13320,note_on,0,0,11,,,,,,,,10,,,61,30
13320,note_on,11,0,2,,,,,,,,0,,,69,40
13320,note_on,240,0,11,,,,,,,,10,,,57,30
13320,note_on,0,0,5,,,,,,,,3,,,69,64
13320,note_on,240,0,5,,,,,,,,3,,,65,0
13320,note_on,0,0,9,,,,,,,,7,,,57,64
13320,note_on,0,0,6,,,,,,,,4,,,66,64
13320,note_on,0,0,3,,,,,,,,1,,,66,64
13320,note_on,0,0,7,,,,,,,,5,,,66,64
13320,note_on,120,0,7,,,,,,,,5,,,68,0
13320,note_on,720,0,3,,,,,,,,1,,,71,0
13320,note_on,120,0,9,,,,,,,,7,,,59,0
13320,note_on,42,0,10,,,,,,,,8,,,42,64
13320,note_on,21,0,4,,,,,,,,2,,,61,64
13350,note_on,0,0,2,,,,,,,,0,,,77,40
13350,note_on,30,0,2,,,,,,,,0,,,80,0
13369,note_on,19,0,2,,,,,,,,0,,,77,0
13380,note_on,60,0,6,,,,,,,,4,,,66,0
13380,note_on,60,0,3,,,,,,,,1,,,66,0
13380,note_on,11,0,2,,,,,,,,0,,,77,40
13380,note_on,0,0,6,,,,,,,,4,,,68,67
13380,note_on,0,0,3,,,,,,,,1,,,68,64
13398,note_on,78,0,10,,,,,,,,8,,,42,0
13410,note_on,30,0,2,,,,,,,,0,,,77,0
13410,note_on,0,0,2,,,,,,,,0,,,78,40
13419,note_on,39,0,3,,,,,,,,1,,,68,0
13429,note_on,19,0,2,,,,,,,,0,,,78,0
13440,note_on,120,0,4,,,,,,,,2,,,61,0
13440,note_on,0,0,9,,,,,,,,7,,,54,69
13440,note_on,0,0,11,,,,,,,,10,,,66,0
13440,note_on,0,0,5,,,,,,,,3,,,61,64
13440,note_on,120,0,5,,,,,,,,3,,,69,0
13440,note_on,0,0,11,,,,,,,,10,,,61,0
13440,note_on,0,0,11,,,,,,,,10,,,57,0
13440,note_on,120,0,11,,,,,,,,10,,,42,0
13440,note_on,11,0,2,,,,,,,,0,,,69,0
13440,note_on,0,0,2,,,,,,,,0,,,78,40
13440,note_on,120,0,9,,,,,,,,7,,,57,0
13440,note_on,21,0,3,,,,,,,,1,,,70,64
13440,note_on,0,0,4,,,,,,,,2,,,66,64
13440,note_on,0,0,6,,,,,,,,4,,,70,69
13440,note_on,42,0,10,,,,,,,,8,,,42,64
13440,note_on,0,0,8,,,,,,,,6,,,61,69
13440,note_on,60,0,6,,,,,,,,4,,,68,0
13440,note_on,0,0,2,,,,,,,,0,,,70,40
13440,note_on,240,0,8,,,,,,,,6,,,61,0
13470,note_on,30,0,2,,,,,,,,0,,,78,0
13470,note_on,0,0,2,,,,,,,,0,,,74,40
13489,note_on,19,0,2,,,,,,,,0,,,74,0
13500,note_on,60,0,6,,,,,,,,4,,,70,0
13500,note_on,11,0,2,,,,,,,,0,,,74,40
13500,note_on,60,0,3,,,,,,,,1,,,70,0
13500,note_on,0,0,6,,,,,,,,4,,,71,72
13500,note_on,0,0,3,,,,,,,,1,,,71,64
13518,note_on,78,0,10,,,,,,,,8,,,42,0
13530,note_on,0,0,2,,,,,,,,0,,,76,40
13530,note_on,30,0,2,,,,,,,,0,,,74,0
13539,note_on,39,0,3,,,,,,,,1,,,71,0
13549,note_on,19,0,2,,,,,,,,0,,,76,0
13560,note_on,240,0,7,,,,,,,,5,,,66,0
13560,note_on,60,0,6,,,,,,,,4,,,71,0
13560,note_on,0,0,7,,,,,,,,5,,,61,75
13560,note_on,21,0,3,,,,,,,,1,,,73,64
13560,note_on,120,0,8,,,,,,,,6,,,61,0
13560,note_on,0,0,8,,,,,,,,6,,,61,75
13560,note_on,11,0,2,,,,,,,,0,,,76,40
13560,note_on,0,0,9,,,,,,,,7,,,55,75
13560,note_on,42,0,10,,,,,,,,8,,,42,64
13560,note_on,0,0,4,,,,,,,,2,,,61,64
13560,note_on,120,0,4,,,,,,,,2,,,66,0
13560,note_on,120,0,9,,,,,,,,7,,,54,0
13560,note_on,0,0,6,,,,,,,,4,,,73,75
13590,note_on,0,0,2,,,,,,,,0,,,73,40
13590,note_on,30,0,2,,,,,,,,0,,,76,0
13609,note_on,19,0,2,,,,,,,,0,,,73,0
13620,note_on,60,0,9,,,,,,,,7,,,55,0
13620,note_on,0,0,9,,,,,,,,7,,,54,77
13620,note_on,11,0,2,,,,,,,,0,,,73,40
13620,note_on,60,0,6,,,,,,,,4,,,73,0
13620,note_on,0,0,6,,,,,,,,4,,,66,77
13620,note_on,0,0,3,,,,,,,,1,,,70,64
13620,note_on,60,0,3,,,,,,,,1,,,73,0
13638,note_on,78,0,10,,,,,,,,8,,,42,0
13650,note_on,0,0,2,,,,,,,,0,,,74,40
13650,note_on,30,0,2,,,,,,,,0,,,73,0
13659,note_on,39,0,3,,,,,,,,1,,,70,0
13669,note_on,19,0,2,,,,,,,,0,,,74,0
13680,note_on,21,0,3,,,,,,,,1,,,78,64
13680,note_on,240,0,5,,,,,,,,3,,,61,0
13680,note_on,120,0,8,,,,,,,,6,,,61,0
13680,note_on,0,0,8,,,,,,,,6,,,59,80
13680,note_on,0,0,6,,,,,,,,4,,,78,80
13680,note_on,0,0,9,,,,,,,,7,,,54,80
13680,note_on,60,0,9,,,,,,,,7,,,54,0
13680,note_on,0,0,5,,,,,,,,3,,,59,64
13680,note_on,0,0,2,,,,,,,,0,,,74,40
13680,note_on,0,0,4,,,,,,,,2,,,62,64
13680,note_on,120,0,4,,,,,,,,2,,,61,0
13680,note_on,60,0,6,,,,,,,,4,,,66,0
13680,note_on,0,0,2,,,,,,,,0,,,71,40
13680,note_on,11,0,2,,,,,,,,0,,,70,0
13680,note_on,0,0,11,,,,,,,,10,,,42,30
13680,note_on,240,0,11,,,,,,,,10,,,59,30
13680,note_on,0,0,11,,,,,,,,10,,,62,30
13680,note_on,0,0,7,,,,,,,,5,,,62,80
13680,note_on,120,0,7,,,,,,,,5,,,61,0
13680,note_on,42,0,10,,,,,,,,8,,,42,64
13710,note_on,0,0,2,,,,,,,,0,,,71,40
13710,note_on,30,0,2,,,,,,,,0,,,74,0
13729,note_on,19,0,2,,,,,,,,0,,,71,0
13740,note_on,0,0,5,,,,,,,,3,,,61,64
13740,note_on,60,0,6,,,,,,,,4,,,78,0
13740,note_on,0,0,7,,,,,,,,5,,,61,80
13740,note_on,0,0,9,,,,,,,,7,,,56,80
13740,note_on,60,0,9,,,,,,,,7,,,54,0
13740,note_on,60,0,7,,,,,,,,5,,,62,0
13740,note_on,11,0,2,,,,,,,,0,,,71,40
13740,note_on,0,0,4,,,,,,,,2,,,61,64
13740,note_on,60,0,5,,,,,,,,3,,,59,0
13740,note_on,60,0,8,,,,,,,,6,,,59,0
13740,note_on,0,0,8,,,,,,,,6,,,61,80
13740,note_on,0,0,6,,,,,,,,4,,,76,80
13740,note_on,60,0,4,,,,,,,,2,,,62,0
13740,note_on,0,0,11,,,,,,,,10,,,59,0
13740,note_on,0,0,11,,,,,,,,10,,,61,30
13740,note_on,60,0,11,,,,,,,,10,,,62,0
13758,note_on,78,0,10,,,,,,,,8,,,42,0
13770,note_on,30,0,2,,,,,,,,0,,,71,0
13770,note_on,0,0,2,,,,,,,,0,,,81,40
13779,note_on,39,0,4,,,,,,,,2,,,61,0
13789,note_on,19,0,2,,,,,,,,0,,,81,0
13800,note_on,11,0,2,,,,,,,,0,,,71,0
13800,note_on,0,0,11,,,,,,,,10,,,60,30
13800,note_on,0,0,11,,,,,,,,10,,,57,30
13800,note_on,0,0,11,,,,,,,,10,,,42,0
13800,note_on,60,0,11,,,,,,,,10,,,61,0
13800,note_on,21,0,4,,,,,,,,2,,,60,64
13800,note_on,0,0,2,,,,,,,,0,,,72,40
13800,note_on,0,0,2,,,,,,,,0,,,81,40
13800,note_on,42,0,10,,,,,,,,8,,,54,64
13800,note_on,0,0,3,,,,,,,,1,,,75,64
13800,note_on,60,0,9,,,,,,,,7,,,56,0
13800,note_on,120,0,3,,,,,,,,1,,,78,0
13800,note_on,0,0,9,,,,,,,,7,,,57,80
13800,note_on,60,0,5,,,,,,,,3,,,61,0
13800,note_on,0,0,5,,,,,,,,3,,,63,64
13800,note_on,0,0,11,,,,,,,,10,,,66,30
13800,note_on,60,0,8,,,,,,,,6,,,61,0
13800,note_on,0,0,8,,,,,,,,6,,,63,80
13800,note_on,0,0,11,,,,,,,,10,,,54,30
13800,note_on,60,0,6,,,,,,,,4,,,76,0
13800,note_on,0,0,6,,,,,,,,4,,,75,80
13800,note_on,60,0,7,,,,,,,,5,,,61,0
13800,note_on,0,0,7,,,,,,,,5,,,60,80
13800,note_on,0,0,11,,,,,,,,10,,,63,30
13830,note_on,30,0,2,,,,,,,,0,,,81,0
13830,note_on,0,0,2,,,,,,,,0,,,78,40
13849,note_on,19,0,2,,,,,,,,0,,,78,0
13860,note_on,0,0,3,,,,,,,,1,,,73,64
13860,note_on,60,0,7,,,,,,,,5,,,60,0
13860,note_on,60,0,3,,,,,,,,1,,,75,0
13860,note_on,60,0,4,,,,,,,,2,,,60,0
13860,note_on,0,0,4,,,,,,,,2,,,63,64
13860,note_on,0,0,7,,,,,,,,5,,,63,80
13860,note_on,60,0,6,,,,,,,,4,,,75,0
13860,note_on,0,0,6,,,,,,,,4,,,73,80
13860,note_on,11,0,2,,,,,,,,0,,,78,40
13878,note_on,78,0,10,,,,,,,,8,,,54,0
13890,note_on,30,0,2,,,,,,,,0,,,78,0
13890,note_on,0,0,2,,,,,,,,0,,,80,40
13899,note_on,39,0,3,,,,,,,,1,,,73,0
13899,note_on,39,0,4,,,,,,,,2,,,63,0
13909,note_on,19,0,2,,,,,,,,0,,,80,0
13920,note_on,60,0,7,,,,,,,,5,,,63,0
13920,note_on,0,0,11,,,,,,,,10,,,52,30
13920,note_on,0,0,11,,,,,,,,10,,,70,30
13920,note_on,0,0,11,,,,,,,,10,,,67,30
13920,note_on,0,0,11,,,,,,,,10,,,64,30
13920,note_on,0,0,11,,,,,,,,10,,,61,30
13920,note_on,0,0,11,,,,,,,,10,,,66,0
13920,note_on,0,0,11,,,,,,,,10,,,60,0
13920,note_on,0,0,11,,,,,,,,10,,,57,0
13920,note_on,0,0,11,,,,,,,,10,,,63,0
13920,note_on,21,0,3,,,,,,,,1,,,72,64
13920,note_on,11,0,2,,,,,,,,0,,,80,40
13920,note_on,60,0,6,,,,,,,,4,,,73,0
13920,note_on,120,0,11,,,,,,,,10,,,54,0
13920,note_on,120,0,8,,,,,,,,6,,,63,0
13920,note_on,120,0,5,,,,,,,,3,,,63,0
13920,note_on,0,0,9,,,,,,,,7,,,56,80
13920,note_on,0,0,7,,,,,,,,5,,,68,80
13920,note_on,120,0,9,,,,,,,,7,,,57,0
13920,note_on,42,0,10,,,,,,,,8,,,52,64
13920,note_on,21,0,4,,,,,,,,2,,,68,64
13920,note_on,0,0,5,,,,,,,,3,,,64,64
13920,note_on,0,0,6,,,,,,,,4,,,72,80
13920,note_on,0,0,8,,,,,,,,6,,,64,80
13950,note_on,30,0,2,,,,,,,,0,,,80,0
13950,note_on,0,0,2,,,,,,,,0,,,76,40
13969,note_on,19,0,2,,,,,,,,0,,,76,0
13980,note_on,60,0,6,,,,,,,,4,,,72,0
13980,note_on,0,0,3,,,,,,,,1,,,73,64
13980,note_on,0,0,7,,,,,,,,5,,,66,80
13980,note_on,11,0,2,,,,,,,,0,,,76,40
13980,note_on,60,0,4,,,,,,,,2,,,68,0
13980,note_on,0,0,4,,,,,,,,2,,,66,64
13980,note_on,60,0,7,,,,,,,,5,,,68,0
13980,note_on,0,0,6,,,,,,,,4,,,73,80
13980,note_on,60,0,3,,,,,,,,1,,,72,0
13998,note_on,78,0,10,,,,,,,,8,,,52,0
14010,note_on,30,0,2,,,,,,,,0,,,76,0
14010,note_on,0,0,2,,,,,,,,0,,,78,40
14019,note_on,39,0,3,,,,,,,,1,,,73,0
14019,note_on,39,0,4,,,,,,,,2,,,66,0
14029,note_on,19,0,2,,,,,,,,0,,,78,0
14040,note_on,120,0,9,,,,,,,,7,,,56,0
14040,note_on,60,0,7,,,,,,,,5,,,66,0
14040,note_on,0,0,7,,,,,,,,5,,,69,80
14040,note_on,21,0,3,,,,,,,,1,,,72,64
14040,note_on,0,0,8,,,,,,,,6,,,66,80
14040,note_on,120,0,8,,,,,,,,6,,,64,0
14040,note_on,11,0,2,,,,,,,,0,,,78,40
14040,note_on,42,0,10,,,,,,,,8,,,51,64
14040,note_on,0,0,11,,,,,,,,10,,,51,30
14040,note_on,0,0,11,,,,,,,,10,,,63,30
14040,note_on,0,0,11,,,,,,,,10,,,72,30
14040,note_on,0,0,11,,,,,,,,10,,,69,30
14040,note_on,120,0,11,,,,,,,,10,,,52,0
14040,note_on,0,0,6,,,,,,,,4,,,72,80
14040,note_on,60,0,6,,,,,,,,4,,,73,0
14040,note_on,0,0,11,,,,,,,,10,,,67,0
14040,note_on,0,0,11,,,,,,,,10,,,61,0
14040,note_on,0,0,5,,,,,,,,3,,,66,64
14040,note_on,120,0,5,,,,,,,,3,,,64,0
14040,note_on,0,0,11,,,,,,,,10,,,66,30
14040,note_on,0,0,11,,,,,,,,10,,,64,0
14040,note_on,0,0,11,,,,,,,,10,,,70,0
14040,note_on,21,0,4,,,,,,,,2,,,69,64
14070,note_on,0,0,2,,,,,,,,0,,,72,0
14070,note_on,0,0,2,,,,,,,,0,,,66,40
14070,note_on,30,0,2,,,,,,,,0,,,78,0
14070,note_on,0,0,2,,,,,,,,0,,,75,40
14089,note_on,19,0,2,,,,,,,,0,,,66,0
14089,note_on,0,0,2,,,,,,,,0,,,75,0
14100,note_on,60,0,6,,,,,,,,4,,,72,0
14100,note_on,0,0,11,,,,,,,,10,,,71,30
14100,note_on,60,0,11,,,,,,,,10,,,72,0
14100,note_on,60,0,3,,,,,,,,1,,,72,0
14100,note_on,0,0,2,,,,,,,,0,,,66,40
14100,note_on,11,0,2,,,,,,,,0,,,75,40
14100,note_on,0,0,3,,,,,,,,1,,,73,64
14100,note_on,0,0,6,,,,,,,,4,,,73,80
14118,note_on,78,0,10,,,,,,,,8,,,51,0
14130,note_on,0,0,2,,,,,,,,0,,,81,40
14130,note_on,0,0,2,,,,,,,,0,,,78,40
14130,note_on,0,0,2,,,,,,,,0,,,75,0
14130,note_on,30,0,2,,,,,,,,0,,,66,0
14149,note_on,0,0,2,,,,,,,,0,,,78,0
14149,note_on,19,0,2,,,,,,,,0,,,81,0
14160,note_on,60,0,3,,,,,,,,1,,,73,0
14160,note_on,0,0,11,,,,,,,,10,,,48,30
14160,note_on,0,0,11,,,,,,,,10,,,69,30
14160,note_on,0,0,11,,,,,,,,10,,,66,30
14160,note_on,0,0,11,,,,,,,,10,,,63,30
14160,note_on,0,0,11,,,,,,,,10,,,60,30
14160,note_on,0,0,11,,,,,,,,10,,,69,0
14160,note_on,0,0,11,,,,,,,,10,,,66,0
14160,note_on,0,0,11,,,,,,,,10,,,63,0
14160,note_on,0,0,11,,,,,,,,10,,,51,0
14160,note_on,60,0,11,,,,,,,,10,,,71,0
14160,note_on,11,0,2,,,,,,,,0,,,78,40
14160,note_on,0,0,3,,,,,,,,1,,,75,64
14160,note_on,0,0,2,,,,,,,,0,,,81,40
14160,note_on,120,0,9,,,,,,,,7,,,51,80
14160,note_on,0,0,8,,,,,,,,6,,,63,80
14160,note_on,120,0,5,,,,,,,,3,,,66,0
14160,note_on,0,0,5,,,,,,,,3,,,63,64
14160,note_on,60,0,6,,,,,,,,4,,,73,0
14160,note_on,0,0,6,,,,,,,,4,,,75,80
14160,note_on,42,0,10,,,,,,,,8,,,48,64
14160,note_on,120,0,8,,,,,,,,6,,,66,0
14190,note_on,0,0,2,,,,,,,,0,,,75,40
14190,note_on,0,0,2,,,,,,,,0,,,78,0
14190,note_on,30,0,2,,,,,,,,0,,,81,0
14190,note_on,0,0,2,,,,,,,,0,,,78,40
14209,note_on,19,0,2,,,,,,,,0,,,78,0
14209,note_on,0,0,2,,,,,,,,0,,,75,0
14220,note_on,11,0,2,,,,,,,,0,,,75,40
14220,note_on,0,0,9,,,,,,,,7,,,49,80
14220,note_on,0,0,2,,,,,,,,0,,,78,40
14220,note_on,60,0,9,,,,,,,,7,,,51,0
14238,note_on,78,0,10,,,,,,,,8,,,48,0
14250,note_on,0,0,2,,,,,,,,0,,,76,40
14250,note_on,30,0,2,,,,,,,,0,,,78,0
14250,note_on,0,0,2,,,,,,,,0,,,75,0
14250,note_on,0,0,2,,,,,,,,0,,,80,40
14269,note_on,0,0,2,,,,,,,,0,,,76,0
14269,note_on,19,0,2,,,,,,,,0,,,80,0
14280,note_on,0,0,2,,,,,,,,0,,,80,40
14280,note_on,11,0,2,,,,,,,,0,,,76,40
14280,note_on,0,0,8,,,,,,,,6,,,56,80
14280,note_on,0,0,11,,,,,,,,10,,,49,30
14280,note_on,120,0,8,,,,,,,,6,,,63,0
14280,note_on,0,0,9,,,,,,,,7,,,48,80
14280,note_on,120,0,3,,,,,,,,1,,,75,0
14280,note_on,0,0,3,,,,,,,,1,,,76,64
14280,note_on,0,0,7,,,,,,,,5,,,64,80
14280,note_on,240,0,7,,,,,,,,5,,,69,0
14280,note_on,240,0,4,,,,,,,,2,,,69,0
14280,note_on,0,0,4,,,,,,,,2,,,64,64
14280,note_on,42,0,10,,,,,,,,8,,,49,64
14280,note_on,0,0,11,,,,,,,,10,,,68,30
14280,note_on,60,0,9,,,,,,,,7,,,49,0
14280,note_on,0,0,11,,,,,,,,10,,,61,30
14280,note_on,0,0,11,,,,,,,,10,,,69,0
14280,note_on,0,0,11,,,,,,,,10,,,64,30
14280,note_on,0,0,5,,,,,,,,3,,,56,64
14280,note_on,120,0,5,,,,,,,,3,,,63,0
14280,note_on,120,0,6,,,,,,,,4,,,75,0
14280,note_on,0,0,6,,,,,,,,4,,,76,80
14280,note_on,120,0,11,,,,,,,,10,,,48,0
14280,note_on,0,0,11,,,,,,,,10,,,66,0
14280,note_on,0,0,11,,,,,,,,10,,,60,0
14280,note_on,0,0,11,,,,,,,,10,,,63,0
14310,note_on,0,0,2,,,,,,,,0,,,76,40
14310,note_on,0,0,2,,,,,,,,0,,,73,40
14310,note_on,0,0,2,,,,,,,,0,,,76,0
14310,note_on,30,0,2,,,,,,,,0,,,80,0
14329,note_on,19,0,2,,,,,,,,0,,,76,0
14329,note_on,0,0,2,,,,,,,,0,,,73,0
14340,note_on,0,0,2,,,,,,,,0,,,76,40
14340,note_on,11,0,2,,,,,,,,0,,,73,40
14340,note_on,0,0,7,,,,,,,,5,,,66,80
14340,note_on,60,0,7,,,,,,,,5,,,64,0
14340,note_on,60,0,9,,,,,,,,7,,,48,0
14340,note_on,60,0,4,,,,,,,,2,,,64,0
14340,note_on,0,0,4,,,,,,,,2,,,66,64
14340,note_on,0,0,9,,,,,,,,7,,,49,80
14358,note_on,78,0,10,,,,,,,,8,,,49,0
14370,note_on,0,0,2,,,,,,,,0,,,78,40
14370,note_on,30,0,7,,,,,,,,5,,,66,0
14370,note_on,30,0,2,,,,,,,,0,,,76,0
14370,note_on,0,0,2,,,,,,,,0,,,73,0
14370,note_on,0,0,7,,,,,,,,5,,,68,80
14370,note_on,30,0,4,,,,,,,,2,,,66,0
14370,note_on,0,0,4,,,,,,,,2,,,68,64
14370,note_on,0,0,2,,,,,,,,0,,,74,40
14389,note_on,0,0,2,,,,,,,,0,,,74,0
14389,note_on,19,0,2,,,,,,,,0,,,78,0
14400,note_on,0,0,9,,,,,,,,7,,,57,80
14400,note_on,120,0,6,,,,,,,,4,,,76,0
14400,note_on,0,0,11,,,,,,,,10,,,42,30
14400,note_on,0,0,11,,,,,,,,10,,,73,30
14400,note_on,0,0,11,,,,,,,,10,,,68,30
14400,note_on,0,0,5,,,,,,,,3,,,62,64
14400,note_on,0,0,11,,,,,,,,10,,,61,0
14400,note_on,0,0,11,,,,,,,,10,,,64,0
14400,note_on,120,0,11,,,,,,,,10,,,49,0
14400,note_on,120,0,5,,,,,,,,3,,,56,0
14400,note_on,42,0,10,,,,,,,,8,,,42,64
14400,note_on,0,0,2,,,,,,,,0,,,78,40
14400,note_on,0,0,11,,,,,,,,10,,,68,0
14400,note_on,11,0,2,,,,,,,,0,,,74,40
14400,note_on,0,0,11,,,,,,,,10,,,64,30
14400,note_on,0,0,4,,,,,,,,2,,,66,64
14400,note_on,120,0,3,,,,,,,,1,,,76,0
14400,note_on,30,0,4,,,,,,,,2,,,68,0
14400,note_on,60,0,9,,,,,,,,7,,,49,0
14400,note_on,30,0,7,,,,,,,,5,,,68,0
14400,note_on,0,0,7,,,,,,,,5,,,66,80
14400,note_on,0,0,8,,,,,,,,6,,,62,80
14400,note_on,120,0,8,,,,,,,,6,,,56,0
14430,note_on,30,0,2,,,,,,,,0,,,74,0
14430,note_on,0,0,2,,,,,,,,0,,,72,40
14449,note_on,19,0,2,,,,,,,,0,,,72,0
14460,note_on,11,0,2,,,,,,,,0,,,72,40
14478,note_on,78,0,10,,,,,,,,8,,,42,0
14490,note_on,0,0,2,,,,,,,,0,,,73,40
14490,note_on,30,0,2,,,,,,,,0,,,72,0
14509,note_on,19,0,2,,,,,,,,0,,,73,0
14520,note_on,120,0,9,,,,,,,,7,,,57,0
14520,note_on,0,0,9,,,,,,,,7,,,56,80
14520,note_on,42,0,10,,,,,,,,8,,,39,64
14520,note_on,120,0,3,,,,,,,,1,,,75,64
14520,note_on,11,0,2,,,,,,,,0,,,73,40
14520,note_on,120,0,6,,,,,,,,4,,,75,80
14520,note_on,0,0,8,,,,,,,,6,,,54,80
14520,note_on,0,0,5,,,,,,,,3,,,54,64
14520,note_on,120,0,5,,,,,,,,3,,,62,0
14520,note_on,0,0,11,,,,,,,,10,,,39,30
14520,note_on,0,0,11,,,,,,,,10,,,66,30
14520,note_on,120,0,8,,,,,,,,6,,,62,0
14520,note_on,120,0,11,,,,,,,,10,,,42,0
14520,note_on,0,0,11,,,,,,,,10,,,64,0
14550,note_on,0,0,2,,,,,,,,0,,,66,40
14550,note_on,30,0,2,,,,,,,,0,,,73,0
14569,note_on,19,0,2,,,,,,,,0,,,66,0
14580,note_on,0,0,4,,,,,,,,2,,,69,64
14580,note_on,60,0,9,,,,,,,,7,,,56,0
14580,note_on,0,0,7,,,,,,,,5,,,69,80
14580,note_on,180,0,7,,,,,,,,5,,,66,0
14580,note_on,180,0,4,,,,,,,,2,,,66,0
14580,note_on,11,0,2,,,,,,,,0,,,66,40
14580,note_on,0,0,9,,,,,,,,7,,,54,80
14598,note_on,78,0,10,,,,,,,,8,,,39,0
14610,note_on,0,0,2,,,,,,,,0,,,72,40
14610,note_on,30,0,2,,,,,,,,0,,,66,0
14629,note_on,19,0,2,,,,,,,,0,,,72,0
14640,note_on,120,0,8,,,,,,,,6,,,54,0
14640,note_on,120,0,5,,,,,,,,3,,,54,0
14640,note_on,0,0,5,,,,,,,,3,,,56,64
14640,note_on,0,0,8,,,,,,,,6,,,56,80
14640,note_on,60,0,9,,,,,,,,7,,,54,0
14640,note_on,0,0,9,,,,,,,,7,,,52,80
14640,note_on,0,0,11,,,,,,,,10,,,66,0
14640,note_on,0,0,11,,,,,,,,10,,,68,30
14640,note_on,0,0,7,,,,,,,,5,,,60,80
14640,note_on,0,0,11,,,,,,,,10,,,68,0
14640,note_on,60,0,4,,,,,,,,2,,,69,0
14640,note_on,0,0,4,,,,,,,,2,,,60,64
14640,note_on,0,0,11,,,,,,,,10,,,72,30
14640,note_on,0,0,11,,,,,,,,10,,,44,30
14640,note_on,60,0,7,,,,,,,,5,,,69,0
14640,note_on,120,0,11,,,,,,,,10,,,39,0
14640,note_on,0,0,11,,,,,,,,10,,,73,0
14640,note_on,11,0,2,,,,,,,,0,,,72,40
14640,note_on,42,0,10,,,,,,,,8,,,44,64
14670,note_on,30,0,2,,,,,,,,0,,,72,0
14670,note_on,0,0,2,,,,,,,,0,,,68,40
14689,note_on,19,0,2,,,,,,,,0,,,68,0
14700,note_on,0,0,4,,,,,,,,2,,,63,64
14700,note_on,60,0,4,,,,,,,,2,,,60,0
14700,note_on,0,0,9,,,,,,,,7,,,51,80
14700,note_on,0,0,7,,,,,,,,5,,,63,80
14700,note_on,60,0,9,,,,,,,,7,,,52,0
14700,note_on,0,0,6,,,,,,,,4,,,72,80
14700,note_on,180,0,6,,,,,,,,4,,,75,0
14700,note_on,60,0,7,,,,,,,,5,,,60,0
14700,note_on,11,0,2,,,,,,,,0,,,68,40
14718,note_on,78,0,10,,,,,,,,8,,,44,0
14730,note_on,0,0,2,,,,,,,,0,,,72,40
14730,note_on,30,0,2,,,,,,,,0,,,68,0
14739,note_on,39,0,4,,,,,,,,2,,,63,0
14749,note_on,19,0,2,,,,,,,,0,,,72,0
14760,note_on,42,0,10,,,,,,,,8,,,49,64
14760,note_on,21,0,4,,,,,,,,2,,,61,64
14760,note_on,60,0,7,,,,,,,,5,,,63,0
14760,note_on,240,0,3,,,,,,,,1,,,75,0
14760,note_on,0,0,3,,,,,,,,1,,,73,64
14760,note_on,0,0,7,,,,,,,,5,,,61,80
14760,note_on,120,0,11,,,,,,,,10,,,44,0
14760,note_on,0,0,11,,,,,,,,10,,,72,0
14760,note_on,0,0,6,,,,,,,,4,,,73,80
14760,note_on,60,0,6,,,,,,,,4,,,72,0
14760,note_on,0,0,11,,,,,,,,10,,,68,0
14760,note_on,0,0,11,,,,,,,,10,,,64,30
14760,note_on,0,0,11,,,,,,,,10,,,68,30
14760,note_on,0,0,11,,,,,,,,10,,,73,30
14760,note_on,0,0,11,,,,,,,,10,,,49,30
14760,note_on,11,0,2,,,,,,,,0,,,73,40
14760,note_on,0,0,9,,,,,,,,7,,,52,80
14760,note_on,60,0,9,,,,,,,,7,,,51,0
14790,note_on,30,0,2,,,,,,,,0,,,78,0
14790,note_on,0,0,2,,,,,,,,0,,,75,40
14790,note_on,30,0,3,,,,,,,,1,,,73,0
14790,note_on,0,0,9,,,,,,,,7,,,54,80
14790,note_on,30,0,9,,,,,,,,7,,,52,0
14790,note_on,0,0,3,,,,,,,,1,,,72,64
14790,note_on,30,0,6,,,,,,,,4,,,73,0
14790,note_on,0,0,6,,,,,,,,4,,,68,80
14820,note_on,0,0,7,,,,,,,,5,,,56,80
14820,note_on,0,0,3,,,,,,,,1,,,73,64
14820,note_on,0,0,5,,,,,,,,3,,,61,64
14820,note_on,180,0,5,,,,,,,,3,,,56,0
14820,note_on,30,0,2,,,,,,,,0,,,75,0
14820,note_on,0,0,2,,,,,,,,0,,,76,40
14820,note_on,30,0,6,,,,,,,,4,,,68,0
14820,note_on,180,0,8,,,,,,,,6,,,56,0
14820,note_on,0,0,8,,,,,,,,6,,,61,80
14820,note_on,60,0,7,,,,,,,,5,,,61,0
14820,note_on,60,0,4,,,,,,,,2,,,61,0
14820,note_on,30,0,3,,,,,,,,1,,,72,0
14820,note_on,0,0,6,,,,,,,,4,,,73,80
14820,note_on,0,0,4,,,,,,,,2,,,56,64
14820,note_on,30,0,9,,,,,,,,7,,,54,0
14820,note_on,0,0,9,,,,,,,,7,,,56,80
14838,note_on,78,0,10,,,,,,,,8,,,49,0
14850,note_on,0,0,2,,,,,,,,0,,,73,40
14850,note_on,30,0,2,,,,,,,,0,,,76,0
14850,note_on,30,0,3,,,,,,,,1,,,73,0
14850,note_on,0,0,3,,,,,,,,1,,,75,64
14880,note_on,30,0,2,,,,,,,,0,,,73,0
14880,note_on,0,0,2,,,,,,,,0,,,76,40
14880,note_on,42,0,10,,,,,,,,8,,,56,64
14880,note_on,30,0,3,,,,,,,,1,,,75,0
14880,note_on,0,0,3,,,,,,,,1,,,76,64
14880,note_on,0,0,11,,,,,,,,10,,,56,30
14880,note_on,0,0,11,,,,,,,,10,,,68,30
14880,note_on,0,0,11,,,,,,,,10,,,66,30
14880,note_on,0,0,11,,,,,,,,10,,,61,30
14880,note_on,0,0,11,,,,,,,,10,,,73,0
14880,note_on,0,0,11,,,,,,,,10,,,68,0
14880,note_on,0,0,4,,,,,,,,2,,,68,64
14880,note_on,0,0,11,,,,,,,,10,,,64,0
14880,note_on,120,0,11,,,,,,,,10,,,49,0
14880,note_on,60,0,4,,,,,,,,2,,,56,0
14880,note_on,0,0,5,,,,,,,,3,,,61,64
14880,note_on,60,0,5,,,,,,,,3,,,61,0
14880,note_on,0,0,7,,,,,,,,5,,,68,80
14880,note_on,60,0,7,,,,,,,,5,,,56,0
14880,note_on,60,0,8,,,,,,,,6,,,61,0
14880,note_on,0,0,8,,,,,,,,6,,,61,80
14895,note_on,0,0,2,,,,,,,,0,,,75,40
14895,note_on,15,0,2,,,,,,,,0,,,76,0
14910,note_on,90,0,6,,,,,,,,4,,,73,0
14910,note_on,15,0,2,,,,,,,,0,,,75,0
14910,note_on,0,0,2,,,,,,,,0,,,73,0
14910,note_on,0,0,2,,,,,,,,0,,,72,40
14910,note_on,0,0,2,,,,,,,,0,,,76,40
14910,note_on,0,0,6,,,,,,,,4,,,72,80
14925,note_on,15,0,2,,,,,,,,0,,,76,0
14925,note_on,0,0,2,,,,,,,,0,,,75,40
14940,note_on,30,0,6,,,,,,,,4,,,72,0
14940,note_on,60,0,5,,,,,,,,3,,,61,0
14940,note_on,0,0,2,,,,,,,,0,,,72,0
14940,note_on,0,0,2,,,,,,,,0,,,73,40
14940,note_on,0,0,2,,,,,,,,0,,,76,40
14940,note_on,0,0,5,,,,,,,,3,,,54,64
14940,note_on,0,0,6,,,,,,,,4,,,73,80
14940,note_on,15,0,2,,,,,,,,0,,,75,0
14940,note_on,60,0,8,,,,,,,,6,,,61,0
14940,note_on,60,0,3,,,,,,,,1,,,76,0
14940,note_on,0,0,8,,,,,,,,6,,,54,80
14940,note_on,120,0,9,,,,,,,,7,,,56,0
14940,note_on,0,0,9,,,,,,,,7,,,57,80
14940,note_on,0,0,3,,,,,,,,1,,,75,64
14955,note_on,0,0,2,,,,,,,,0,,,75,40
14955,note_on,15,0,2,,,,,,,,0,,,76,0
14958,note_on,78,0,10,,,,,,,,8,,,56,0
14970,note_on,0,0,2,,,,,,,,0,,,76,40
14970,note_on,0,0,6,,,,,,,,4,,,75,80
14970,note_on,0,0,2,,,,,,,,0,,,73,0
14970,note_on,15,0,2,,,,,,,,0,,,75,0
14970,note_on,0,0,9,,,,,,,,7,,,56,80
14970,note_on,30,0,9,,,,,,,,7,,,57,0
14970,note_on,0,0,2,,,,,,,,0,,,70,40
14970,note_on,30,0,6,,,,,,,,4,,,73,0
14979,note_on,39,0,5,,,,,,,,3,,,54,0
14985,note_on,15,0,2,,,,,,,,0,,,76,0
14985,note_on,0,0,2,,,,,,,,0,,,75,40
15000,note_on,120,0,4,,,,,,,,2,,,68,0
15000,note_on,21,0,5,,,,,,,,3,,,57,64
15000,note_on,42,0,10,,,,,,,,8,,,44,64
15000,note_on,0,0,3,,,,,,,,1,,,68,64
15000,note_on,30,0,9,,,,,,,,7,,,56,0
15000,note_on,0,0,9,,,,,,,,7,,,54,80
15000,note_on,0,0,4,,,,,,,,2,,,63,64
15000,note_on,60,0,8,,,,,,,,6,,,54,0
15000,note_on,0,0,8,,,,,,,,6,,,57,80
15000,note_on,60,0,3,,,,,,,,1,,,75,0
15000,note_on,30,0,6,,,,,,,,4,,,75,0
15000,note_on,0,0,6,,,,,,,,4,,,72,80
15000,note_on,120,0,11,,,,,,,,10,,,56,0
15000,note_on,0,0,11,,,,,,,,10,,,61,0
15000,note_on,15,0,2,,,,,,,,0,,,75,0
15000,note_on,0,0,2,,,,,,,,0,,,70,0
15000,note_on,0,0,2,,,,,,,,0,,,72,40
15000,note_on,0,0,11,,,,,,,,10,,,60,30
15000,note_on,0,0,2,,,,,,,,0,,,76,40
15000,note_on,0,0,11,,,,,,,,10,,,44,30
15000,note_on,0,0,7,,,,,,,,5,,,63,80
15000,note_on,120,0,7,,,,,,,,5,,,68,0
15015,note_on,15,0,2,,,,,,,,0,,,76,0
15015,note_on,0,0,2,,,,,,,,0,,,75,40
15030,note_on,15,0,2,,,,,,,,0,,,75,0
15030,note_on,30,0,9,,,,,,,,7,,,54,0
15030,note_on,0,0,9,,,,,,,,7,,,52,80
15030,note_on,0,0,2,,,,,,,,0,,,76,40
15037,set_tempo,15037,1,0,,,,,,1500000,,,,,,
15045,note_on,0,0,2,,,,,,,,0,,,75,40
15045,note_on,15,0,2,,,,,,,,0,,,76,0
15060,note_on,0,0,8,,,,,,,,6,,,56,80
15060,note_on,60,0,8,,,,,,,,6,,,57,0
15060,note_on,0,0,5,,,,,,,,3,,,56,64
15060,note_on,60,0,5,,,,,,,,3,,,57,0
15060,note_on,15,0,2,,,,,,,,0,,,75,0
15060,note_on,0,0,2,,,,,,,,0,,,73,40
15060,note_on,0,0,9,,,,,,,,7,,,54,80
15060,note_on,30,0,9,,,,,,,,7,,,52,0
15078,note_on,78,0,10,,,,,,,,8,,,44,0
15090,note_on,0,0,2,,,,,,,,0,,,73,40
15090,note_on,90,0,6,,,,,,,,4,,,72,0
15090,note_on,0,0,2,,,,,,,,0,,,72,0
15090,note_on,0,0,6,,,,,,,,4,,,73,80
15090,note_on,30,0,2,,,,,,,,0,,,73,0
15099,note_on,39,0,5,,,,,,,,3,,,56,0
15120,note_on,0,0,8,,,,,,,,6,,,56,80
15120,note_on,60,0,8,,,,,,,,6,,,56,0
15120,note_on,120,0,4,,,,,,,,2,,,63,0
15120,note_on,0,0,4,,,,,,,,2,,,64,64
15120,note_on,30,0,2,,,,,,,,0,,,73,0
15120,note_on,0,0,2,,,,,,,,0,,,73,40
15120,note_on,0,0,2,,,,,,,,0,,,73,40
15120,note_on,120,0,7,,,,,,,,5,,,63,0
15120,note_on,0,0,7,,,,,,,,5,,,64,80
15120,note_on,0,0,11,,,,,,,,10,,,68,30
15120,note_on,21,0,5,,,,,,,,3,,,52,64
15120,note_on,120,0,11,,,,,,,,10,,,44,0
15120,note_on,0,0,11,,,,,,,,10,,,60,0
15120,note_on,0,0,11,,,,,,,,10,,,49,30
15120,note_on,0,0,9,,,,,,,,7,,,52,80
15120,note_on,60,0,9,,,,,,,,7,,,54,0
15120,note_on,0,0,11,,,,,,,,10,,,64,30
15120,note_on,0,0,11,,,,,,,,10,,,66,0
15120,note_on,0,0,11,,,,,,,,10,,,68,0
15120,note_on,42,0,10,,,,,,,,8,,,49,64
15120,note_on,30,0,6,,,,,,,,4,,,73,0
15120,note_on,0,0,6,,,,,,,,4,,,73,80
15120,note_on,0,0,11,,,,,,,,10,,,61,30
15120,set_tempo,83,1,0,,,,,,1200000,,,,,,
15180,note_on,0,0,3,,,,,,,,1,,,66,60
15180,note_on,180,0,3,,,,,,,,1,,,68,0
15180,note_on,60,0,5,,,,,,,,3,,,52,0
15180,note_on,0,0,2,,,,,,,,0,,,80,40
15180,note_on,60,0,2,,,,,,,,0,,,73,0
15180,note_on,0,0,5,,,,,,,,3,,,56,60
15198,note_on,78,0,10,,,,,,,,8,,,49,0
15210,note_on,30,0,2,,,,,,,,0,,,80,0
15210,note_on,0,0,2,,,,,,,,0,,,81,40
15219,note_on,39,0,5,,,,,,,,3,,,56,0
15240,note_on,0,0,7,,,,,,,,5,,,68,64
15240,note_on,30,0,2,,,,,,,,0,,,81,0
15240,note_on,120,0,11,,,,,,,,10,,,49,0
15240,note_on,0,0,11,,,,,,,,10,,,61,0
15240,note_on,120,0,4,,,,,,,,2,,,64,0
15240,note_on,0,0,11,,,,,,,,10,,,68,0
15240,note_on,0,0,9,,,,,,,,7,,,49,80
15240,note_on,120,0,7,,,,,,,,5,,,64,0
15240,note_on,120,0,9,,,,,,,,7,,,52,0
15240,note_on,42,0,10,,,,,,,,8,,,49,64
15240,note_on,0,0,2,,,,,,,,0,,,80,40
15240,note_on,0,0,8,,,,,,,,6,,,61,80
15240,note_on,120,0,8,,,,,,,,6,,,56,0
15240,note_on,0,0,11,,,,,,,,10,,,64,0
15240,note_on,0,0,2,,,,,,,,0,,,76,40
15240,note_on,0,0,2,,,,,,,,0,,,73,0
15240,note_on,21,0,5,,,,,,,,3,,,61,56
15240,note_on,0,0,6,,,,,,,,4,,,73,64
15240,note_on,60,0,3,,,,,,,,1,,,66,0
15240,note_on,120,0,6,,,,,,,,4,,,73,0
15240,note_on,0,0,3,,,,,,,,1,,,64,56
15270,note_on,0,0,2,,,,,,,,0,,,78,40
15270,note_on,30,0,2,,,,,,,,0,,,80,0
15300,note_on,0,0,3,,,,,,,,1,,,68,52
15300,note_on,0,0,2,,,,,,,,0,,,76,40
15300,note_on,30,0,2,,,,,,,,0,,,78,0
15300,note_on,60,0,5,,,,,,,,3,,,61,0
15300,note_on,0,0,5,,,,,,,,3,,,56,52
15300,note_on,60,0,3,,,,,,,,1,,,64,0
15318,note_on,78,0,10,,,,,,,,8,,,49,0
15330,note_on,30,0,2,,,,,,,,0,,,76,0
15330,note_on,0,0,2,,,,,,,,0,,,75,40
15339,note_on,39,0,3,,,,,,,,1,,,68,0
15339,note_on,39,0,5,,,,,,,,3,,,56,0
15360,note_on,120,0,9,,,,,,,,7,,,49,0
15360,note_on,21,0,3,,,,,,,,1,,,73,48
15360,note_on,30,0,2,,,,,,,,0,,,75,0
15360,note_on,42,0,10,,,,,,,,8,,,49,64
15360,note_on,120,0,8,,,,,,,,6,,,61,0
15360,note_on,0,0,7,,,,,,,,5,,,64,64
15360,note_on,21,0,5,,,,,,,,3,,,52,48
15360,note_on,0,0,2,,,,,,,,0,,,73,40
15360,note_on,120,0,7,,,,,,,,5,,,68,0
15390,note_on,30,0,3,,,,,,,,1,,,73,0
15390,note_on,0,0,2,,,,,,,,0,,,76,40
15390,note_on,30,0,2,,,,,,,,0,,,73,0
15390,note_on,30,0,5,,,,,,,,3,,,52,0
15390,note_on,0,0,5,,,,,,,,3,,,55,46
15390,note_on,0,0,3,,,,,,,,1,,,71,46
15420,note_on,30,0,3,,,,,,,,1,,,71,0
15420,note_on,0,0,3,,,,,,,,1,,,70,44
15420,note_on,0,0,2,,,,,,,,0,,,75,40
15420,note_on,30,0,2,,,,,,,,0,,,76,0
15420,note_on,0,0,6,,,,,,,,4,,,76,64
15420,note_on,30,0,5,,,,,,,,3,,,55,0
15420,note_on,180,0,6,,,,,,,,4,,,73,0
15420,note_on,0,0,5,,,,,,,,3,,,54,44
15438,note_on,78,0,10,,,,,,,,8,,,49,0
15450,note_on,0,0,3,,,,,,,,1,,,68,42
15450,note_on,0,0,2,,,,,,,,0,,,73,40
15450,note_on,30,0,2,,,,,,,,0,,,75,0
15450,note_on,30,0,3,,,,,,,,1,,,70,0
15450,note_on,0,0,5,,,,,,,,3,,,52,42
15450,note_on,30,0,5,,,,,,,,3,,,54,0
15480,note_on,60,0,6,,,,,,,,4,,,76,0
15480,note_on,0,0,6,,,,,,,,4,,,70,64
15480,note_on,120,0,7,,,,,,,,5,,,64,0
15480,note_on,0,0,11,,,,,,,,10,,,64,30
15480,note_on,0,0,11,,,,,,,,10,,,61,30
15480,note_on,0,0,2,,,,,,,,0,,,82,40
15480,note_on,30,0,3,,,,,,,,1,,,68,0
15480,note_on,0,0,3,,,,,,,,1,,,66,40
15480,note_on,42,0,10,,,,,,,,8,,,42,64
15480,note_on,240,0,11,,,,,,,,10,,,58,30
15480,note_on,0,0,7,,,,,,,,5,,,61,64
15480,note_on,240,0,4,,,,,,,,2,,,73,40
15480,note_on,30,0,2,,,,,,,,0,,,73,0
15480,note_on,30,0,5,,,,,,,,3,,,52,0
15480,note_on,0,0,5,,,,,,,,3,,,61,40
15480,note_on,0,0,11,,,,,,,,10,,,42,30
15510,note_on,30,0,2,,,,,,,,0,,,76,0
15510,note_on,0,0,2,,,,,,,,0,,,74,40
15540,note_on,60,0,4,,,,,,,,2,,,73,0
15540,note_on,30,0,2,,,,,,,,0,,,74,0
15540,note_on,0,0,2,,,,,,,,0,,,76,40
15540,note_on,60,0,5,,,,,,,,3,,,61,0
15540,note_on,0,0,4,,,,,,,,2,,,71,40
15540,note_on,0,0,5,,,,,,,,3,,,54,40
15558,note_on,78,0,10,,,,,,,,8,,,42,0
15570,note_on,0,0,2,,,,,,,,0,,,78,40
15570,note_on,30,0,2,,,,,,,,0,,,76,0
15579,note_on,39,0,5,,,,,,,,3,,,54,0
15579,note_on,39,0,4,,,,,,,,2,,,71,0
15600,note_on,0,0,11,,,,,,,,10,,,64,0
15600,note_on,0,0,11,,,,,,,,10,,,58,0
15600,note_on,0,0,6,,,,,,,,4,,,73,64
15600,note_on,240,0,8,,,,,,,,6,,,54,64
15600,note_on,21,0,5,,,,,,,,3,,,61,40
15600,note_on,120,0,6,,,,,,,,4,,,70,0
15600,note_on,0,0,7,,,,,,,,5,,,66,64
15600,note_on,120,0,7,,,,,,,,5,,,61,0
15600,note_on,0,0,11,,,,,,,,10,,,61,0
15600,note_on,0,0,2,,,,,,,,0,,,76,40
15600,note_on,240,0,9,,,,,,,,7,,,58,64
15600,note_on,42,0,10,,,,,,,,8,,,42,64
15600,note_on,120,0,11,,,,,,,,10,,,42,0
15600,note_on,21,0,4,,,,,,,,2,,,73,40
15600,note_on,30,0,2,,,,,,,,0,,,78,0
15630,note_on,0,0,2,,,,,,,,0,,,74,40
15630,note_on,30,0,2,,,,,,,,0,,,76,0
15660,note_on,0,0,6,,,,,,,,4,,,70,64
15660,note_on,0,0,2,,,,,,,,0,,,73,40
15660,note_on,30,0,2,,,,,,,,0,,,74,0
15660,note_on,0,0,5,,,,,,,,3,,,54,40
15660,note_on,60,0,5,,,,,,,,3,,,61,0
15660,note_on,0,0,4,,,,,,,,2,,,70,40
15660,note_on,60,0,4,,,,,,,,2,,,73,0
15660,note_on,60,0,6,,,,,,,,4,,,73,0
15678,note_on,78,0,10,,,,,,,,8,,,42,0
15690,note_on,0,0,2,,,,,,,,0,,,71,40
15690,note_on,30,0,2,,,,,,,,0,,,73,0
15699,note_on,39,0,4,,,,,,,,2,,,70,0
15699,note_on,39,0,5,,,,,,,,3,,,54,0
15720,note_on,42,0,10,,,,,,,,8,,,42,64
15720,note_on,21,0,5,,,,,,,,3,,,61,40
15720,note_on,120,0,8,,,,,,,,6,,,54,0
15720,note_on,0,0,7,,,,,,,,5,,,66,64
15720,note_on,120,0,7,,,,,,,,5,,,66,0
15720,note_on,0,0,6,,,,,,,,4,,,66,64
15720,note_on,0,0,2,,,,,,,,0,,,70,40
15720,note_on,21,0,4,,,,,,,,2,,,78,40
15720,note_on,60,0,6,,,,,,,,4,,,70,0
15720,note_on,30,0,2,,,,,,,,0,,,71,0
15720,note_on,0,0,2,,,,,,,,0,,,82,0
15720,note_on,0,0,2,,,,,,,,0,,,85,40
15720,note_on,0,0,8,,,,,,,,6,,,58,64
15750,note_on,0,0,4,,,,,,,,2,,,76,40
15750,note_on,30,0,4,,,,,,,,2,,,78,0
15750,note_on,30,0,2,,,,,,,,0,,,70,0
15750,note_on,0,0,2,,,,,,,,0,,,79,40
15780,note_on,30,0,4,,,,,,,,2,,,76,0
15780,note_on,180,0,9,,,,,,,,7,,,58,0
15780,note_on,0,0,9,,,,,,,,7,,,54,64
15780,note_on,0,0,4,,,,,,,,2,,,74,40
15780,note_on,0,0,2,,,,,,,,0,,,78,40
15780,note_on,60,0,5,,,,,,,,3,,,61,0
15780,note_on,0,0,5,,,,,,,,3,,,54,40
15780,note_on,30,0,2,,,,,,,,0,,,79,0
15780,note_on,60,0,6,,,,,,,,4,,,66,0
15780,note_on,0,0,6,,,,,,,,4,,,73,64
15798,note_on,78,0,10,,,,,,,,8,,,42,0
15810,note_on,30,0,4,,,,,,,,2,,,74,0
15810,note_on,30,0,2,,,,,,,,0,,,78,0
15810,note_on,0,0,4,,,,,,,,2,,,73,40
15810,note_on,0,0,2,,,,,,,,0,,,76,40
15819,note_on,39,0,5,,,,,,,,3,,,54,0
15840,note_on,42,0,10,,,,,,,,8,,,47,64
15840,note_on,21,0,5,,,,,,,,3,,,62,40
15840,note_on,0,0,11,,,,,,,,10,,,47,30
15840,note_on,0,0,9,,,,,,,,7,,,59,64
15840,note_on,30,0,2,,,,,,,,0,,,76,0
15840,note_on,60,0,9,,,,,,,,7,,,54,0
15840,note_on,0,0,2,,,,,,,,0,,,74,40
15840,note_on,60,0,6,,,,,,,,4,,,73,0
15840,note_on,0,0,6,,,,,,,,4,,,74,64
15840,note_on,120,0,7,,,,,,,,5,,,66,0
15840,note_on,0,0,8,,,,,,,,6,,,59,64
15840,note_on,120,0,8,,,,,,,,6,,,58,0
15840,note_on,0,0,7,,,,,,,,5,,,66,64
15840,note_on,240,0,11,,,,,,,,10,,,62,30
15840,note_on,0,0,11,,,,,,,,10,,,66,30
15840,note_on,0,0,11,,,,,,,,10,,,73,30
15840,note_on,0,0,4,,,,,,,,2,,,71,40
15840,note_on,30,0,4,,,,,,,,2,,,73,0
15870,note_on,30,0,2,,,,,,,,0,,,85,0
15870,note_on,0,0,2,,,,,,,,0,,,82,40
15889,note_on,19,0,2,,,,,,,,0,,,82,0
15900,note_on,0,0,3,,,,,,,,1,,,66,40
15900,note_on,420,0,3,,,,,,,,1,,,66,0
15900,note_on,0,0,5,,,,,,,,3,,,54,40
15900,note_on,60,0,5,,,,,,,,3,,,62,0
15900,note_on,11,0,2,,,,,,,,0,,,82,40
15918,note_on,78,0,10,,,,,,,,8,,,47,0
15930,note_on,0,0,2,,,,,,,,0,,,83,40
15930,note_on,30,0,2,,,,,,,,0,,,82,0
15939,note_on,39,0,5,,,,,,,,3,,,54,0
15949,note_on,19,0,2,,,,,,,,0,,,83,0
15960,note_on,60,0,3,,,,,,,,1,,,66,0
15960,note_on,120,0,8,,,,,,,,6,,,59,0
15960,note_on,0,0,8,,,,,,,,6,,,62,64
15960,note_on,21,0,5,,,,,,,,3,,,62,40
15960,note_on,42,0,10,,,,,,,,8,,,47,64
15960,note_on,120,0,11,,,,,,,,10,,,47,0
15960,note_on,0,0,3,,,,,,,,1,,,71,40
15960,note_on,0,0,11,,,,,,,,10,,,73,0
15960,note_on,120,0,9,,,,,,,,7,,,59,0
15960,note_on,0,0,9,,,,,,,,7,,,59,64
15960,note_on,0,0,11,,,,,,,,10,,,71,30
15960,note_on,11,0,2,,,,,,,,0,,,83,40
15990,note_on,0,0,2,,,,,,,,0,,,79,40
15990,note_on,30,0,2,,,,,,,,0,,,83,0
16009,note_on,19,0,2,,,,,,,,0,,,79,0
16020,note_on,0,0,5,,,,,,,,3,,,54,40
16020,note_on,0,0,3,,,,,,,,1,,,74,40
16020,note_on,60,0,3,,,,,,,,1,,,71,0
16020,note_on,60,0,5,,,,,,,,3,,,62,0
16020,note_on,11,0,2,,,,,,,,0,,,79,40
16038,note_on,78,0,10,,,,,,,,8,,,47,0
16050,note_on,0,0,2,,,,,,,,0,,,81,40
16050,note_on,30,0,2,,,,,,,,0,,,79,0
16059,note_on,39,0,3,,,,,,,,1,,,74,0
16059,note_on,39,0,5,,,,,,,,3,,,54,0
16069,note_on,19,0,2,,,,,,,,0,,,81,0
16080,note_on,120,0,8,,,,,,,,6,,,62,0
16080,note_on,0,0,11,,,,,,,,10,,,62,0
16080,note_on,0,0,7,,,,,,,,5,,,66,64
16080,note_on,21,0,5,,,,,,,,3,,,62,40
16080,note_on,0,0,8,,,,,,,,6,,,59,64
16080,note_on,0,0,9,,,,,,,,7,,,62,64
16080,note_on,120,0,9,,,,,,,,7,,,59,0
16080,note_on,120,0,11,,,,,,,,10,,,71,0
16080,note_on,240,0,7,,,,,,,,5,,,66,0
16080,note_on,0,0,11,,,,,,,,10,,,66,0
16080,note_on,42,0,10,,,,,,,,8,,,47,64
16080,note_on,11,0,2,,,,,,,,0,,,81,40
16080,note_on,21,0,3,,,,,,,,1,,,66,40
16110,note_on,0,0,2,,,,,,,,0,,,78,40
16110,note_on,30,0,2,,,,,,,,0,,,81,0
16129,note_on,19,0,2,,,,,,,,0,,,78,0
16140,note_on,60,0,3,,,,,,,,1,,,66,0
16140,note_on,0,0,3,,,,,,,,1,,,71,40
16140,note_on,11,0,2,,,,,,,,0,,,78,40
16140,note_on,0,0,5,,,,,,,,3,,,54,40
16140,note_on,60,0,5,,,,,,,,3,,,62,0
16158,note_on,78,0,10,,,,,,,,8,,,47,0
16170,note_on,30,0,2,,,,,,,,0,,,78,0
16170,note_on,0,0,2,,,,,,,,0,,,80,40
16179,note_on,39,0,5,,,,,,,,3,,,54,0
16179,note_on,39,0,3,,,,,,,,1,,,71,0
16189,note_on,19,0,2,,,,,,,,0,,,80,0
16200,note_on,120,0,7,,,,,,,,5,,,66,0
16200,note_on,0,0,11,,,,,,,,10,,,41,30
16200,note_on,0,0,11,,,,,,,,10,,,71,30
16200,note_on,0,0,11,,,,,,,,10,,,68,30
16200,note_on,0,0,11,,,,,,,,10,,,65,30
16200,note_on,120,0,11,,,,,,,,10,,,62,30
16200,note_on,42,0,10,,,,,,,,8,,,41,64
16200,note_on,21,0,5,,,,,,,,3,,,59,40
16200,note_on,0,0,7,,,,,,,,5,,,59,64
16200,note_on,0,0,8,,,,,,,,6,,,56,64
16200,note_on,120,0,8,,,,,,,,6,,,59,0
16200,note_on,21,0,3,,,,,,,,1,,,68,40
16200,note_on,0,0,9,,,,,,,,7,,,53,64
16200,note_on,120,0,9,,,,,,,,7,,,62,0
16200,note_on,11,0,2,,,,,,,,0,,,80,40
16230,note_on,0,0,2,,,,,,,,0,,,71,40
16230,note_on,30,0,2,,,,,,,,0,,,74,0
16249,note_on,19,0,2,,,,,,,,0,,,71,0
16260,note_on,420,0,4,,,,,,,,2,,,71,0
16260,note_on,0,0,4,,,,,,,,2,,,68,40
16260,note_on,11,0,2,,,,,,,,0,,,71,40
16260,note_on,0,0,5,,,,,,,,3,,,49,40
16260,note_on,60,0,5,,,,,,,,3,,,59,0
16278,note_on,78,0,10,,,,,,,,8,,,41,0
16290,note_on,0,0,2,,,,,,,,0,,,73,40
16290,note_on,30,0,2,,,,,,,,0,,,71,0
16299,note_on,39,0,5,,,,,,,,3,,,49,0
16309,note_on,19,0,2,,,,,,,,0,,,73,0
16320,note_on,0,0,4,,,,,,,,2,,,65,40
16320,note_on,60,0,4,,,,,,,,2,,,68,0
16320,note_on,480,0,6,,,,,,,,4,,,74,0
16320,note_on,0,0,6,,,,,,,,4,,,73,64
16320,note_on,0,0,7,,,,,,,,5,,,68,64
16320,note_on,120,0,7,,,,,,,,5,,,59,0
16320,note_on,120,0,3,,,,,,,,1,,,68,0
16320,note_on,42,0,10,,,,,,,,8,,,41,64
16320,note_on,11,0,2,,,,,,,,0,,,73,40
16320,note_on,0,0,11,,,,,,,,10,,,61,30
16320,note_on,0,0,11,,,,,,,,10,,,62,0
16320,note_on,120,0,11,,,,,,,,10,,,41,0
16320,note_on,21,0,5,,,,,,,,3,,,56,40
16350,note_on,30,0,2,,,,,,,,0,,,73,0
16350,note_on,0,0,2,,,,,,,,0,,,69,40
16369,note_on,19,0,2,,,,,,,,0,,,69,0
16380,note_on,180,0,9,,,,,,,,7,,,53,0
16380,note_on,60,0,4,,,,,,,,2,,,65,0
16380,note_on,11,0,2,,,,,,,,0,,,69,40
16380,note_on,0,0,9,,,,,,,,7,,,53,64
16380,note_on,180,0,8,,,,,,,,6,,,56,0
16380,note_on,60,0,3,,,,,,,,1,,,61,40
16380,note_on,0,0,8,,,,,,,,6,,,61,64
16380,note_on,60,0,5,,,,,,,,3,,,56,0
16380,note_on,0,0,5,,,,,,,,3,,,49,40
16380,note_on,0,0,4,,,,,,,,2,,,73,40
16398,note_on,78,0,10,,,,,,,,8,,,41,0
16410,note_on,30,0,2,,,,,,,,0,,,69,0
16410,note_on,0,0,2,,,,,,,,0,,,71,40
16419,note_on,39,0,5,,,,,,,,3,,,49,0
16419,note_on,39,0,4,,,,,,,,2,,,73,0
16429,note_on,19,0,2,,,,,,,,0,,,71,0
16440,note_on,60,0,9,,,,,,,,7,,,53,0
16440,note_on,0,0,6,,,,,,,,4,,,71,64
16440,note_on,60,0,8,,,,,,,,6,,,61,0
16440,note_on,0,0,8,,,,,,,,6,,,61,64
16440,note_on,21,0,5,,,,,,,,3,,,61,40
16440,note_on,0,0,9,,,,,,,,7,,,53,64
16440,note_on,21,0,4,,,,,,,,2,,,68,40
16440,note_on,0,0,3,,,,,,,,1,,,65,40
16440,note_on,60,0,3,,,,,,,,1,,,61,0
16440,note_on,120,0,7,,,,,,,,5,,,68,0
16440,note_on,120,0,11,,,,,,,,10,,,61,0
16440,note_on,0,0,11,,,,,,,,10,,,59,30
16440,note_on,0,0,7,,,,,,,,5,,,68,64
16440,note_on,42,0,10,,,,,,,,8,,,41,64
16440,note_on,120,0,6,,,,,,,,4,,,73,0
16440,note_on,11,0,2,,,,,,,,0,,,71,40
16470,note_on,0,0,2,,,,,,,,0,,,68,40
16470,note_on,30,0,2,,,,,,,,0,,,71,0
16489,note_on,19,0,2,,,,,,,,0,,,68,0
16500,note_on,60,0,5,,,,,,,,3,,,61,0
16500,note_on,60,0,8,,,,,,,,6,,,61,0
16500,note_on,0,0,4,,,,,,,,2,,,71,40
16500,note_on,0,0,5,,,,,,,,3,,,49,40
16500,note_on,60,0,4,,,,,,,,2,,,68,0
16500,note_on,0,0,8,,,,,,,,6,,,61,64
16500,note_on,0,0,9,,,,,,,,7,,,53,64
16500,note_on,60,0,9,,,,,,,,7,,,53,0
16500,note_on,60,0,3,,,,,,,,1,,,65,0
16500,note_on,0,0,3,,,,,,,,1,,,68,40
16500,note_on,11,0,2,,,,,,,,0,,,68,40
16518,note_on,78,0,10,,,,,,,,8,,,41,0
16530,note_on,30,0,2,,,,,,,,0,,,68,0
16530,note_on,0,0,2,,,,,,,,0,,,69,40
16539,note_on,39,0,5,,,,,,,,3,,,49,0
16539,note_on,39,0,3,,,,,,,,1,,,68,0
16539,note_on,39,0,4,,,,,,,,2,,,71,0
16549,note_on,19,0,2,,,,,,,,0,,,69,0
16560,note_on,21,0,5,,,,,,,,3,,,54,40
16560,note_on,21,0,3,,,,,,,,1,,,73,40
16560,note_on,60,0,9,,,,,,,,7,,,53,0
16560,note_on,0,0,9,,,,,,,,7,,,54,64
16560,note_on,120,0,11,,,,,,,,10,,,59,0
16560,note_on,60,0,8,,,,,,,,6,,,61,0
16560,note_on,0,0,11,,,,,,,,10,,,65,0
16560,note_on,21,0,4,,,,,,,,2,,,69,40
16560,note_on,0,0,11,,,,,,,,10,,,42,30
16560,note_on,11,0,2,,,,,,,,0,,,69,40
16560,note_on,0,0,11,,,,,,,,10,,,59,30
16560,note_on,42,0,10,,,,,,,,8,,,42,64
16560,note_on,0,0,11,,,,,,,,10,,,71,0
16560,note_on,0,0,8,,,,,,,,6,,,61,64
16560,note_on,0,0,11,,,,,,,,10,,,68,0
16560,note_on,0,0,7,,,,,,,,5,,,68,64
16560,note_on,0,0,11,,,,,,,,10,,,68,30
16560,note_on,120,0,7,,,,,,,,5,,,68,0
16560,note_on,120,0,6,,,,,,,,4,,,71,0
16560,note_on,0,0,6,,,,,,,,4,,,69,64
16560,note_on,0,0,11,,,,,,,,10,,,65,30
16590,note_on,0,0,2,,,,,,,,0,,,77,40
16590,note_on,30,0,2,,,,,,,,0,,,80,0
16609,note_on,19,0,2,,,,,,,,0,,,77,0
16620,note_on,60,0,3,,,,,,,,1,,,73,0
16620,note_on,0,0,3,,,,,,,,1,,,71,40
16620,note_on,11,0,2,,,,,,,,0,,,77,40
16620,note_on,60,0,4,,,,,,,,2,,,69,0
16620,note_on,0,0,4,,,,,,,,2,,,74,40
16638,note_on,78,0,10,,,,,,,,8,,,42,0
16650,note_on,0,0,2,,,,,,,,0,,,78,40
16650,note_on,30,0,2,,,,,,,,0,,,77,0
16659,note_on,39,0,4,,,,,,,,2,,,74,0
16659,note_on,39,0,3,,,,,,,,1,,,71,0
16669,note_on,19,0,2,,,,,,,,0,,,78,0
16680,note_on,120,0,11,,,,,,,,10,,,42,0
16680,note_on,21,0,3,,,,,,,,1,,,69,40
16680,note_on,42,0,10,,,,,,,,8,,,42,64
16680,note_on,0,0,11,,,,,,,,10,,,65,0
16680,note_on,0,0,11,,,,,,,,10,,,59,0
16680,note_on,0,0,11,,,,,,,,10,,,68,0
16680,note_on,120,0,7,,,,,,,,5,,,68,0
16680,note_on,0,0,11,,,,,,,,10,,,61,30
16680,note_on,0,0,11,,,,,,,,10,,,66,30
16680,note_on,21,0,4,,,,,,,,2,,,73,40
16680,note_on,0,0,11,,,,,,,,10,,,69,30
16680,note_on,11,0,2,,,,,,,,0,,,78,40
16680,note_on,0,0,7,,,,,,,,5,,,66,64
16710,note_on,30,0,2,,,,,,,,0,,,78,0
16710,note_on,0,0,2,,,,,,,,0,,,74,40
16729,note_on,19,0,2,,,,,,,,0,,,74,0
16740,note_on,0,0,3,,,,,,,,1,,,68,40
16740,note_on,60,0,3,,,,,,,,1,,,69,0
16740,note_on,11,0,2,,,,,,,,0,,,74,40
16740,note_on,0,0,4,,,,,,,,2,,,71,40
16740,note_on,60,0,4,,,,,,,,2,,,73,0
16758,note_on,78,0,10,,,,,,,,8,,,42,0
16770,note_on,30,0,2,,,,,,,,0,,,74,0
16770,note_on,0,0,2,,,,,,,,0,,,76,40
16779,note_on,39,0,4,,,,,,,,2,,,71,0
16779,note_on,39,0,3,,,,,,,,1,,,68,0
16789,note_on,19,0,2,,,,,,,,0,,,76,0
16800,note_on,0,0,9,,,,,,,,7,,,54,64
16800,note_on,240,0,9,,,,,,,,7,,,54,0
16800,note_on,240,0,8,,,,,,,,6,,,61,0
16800,note_on,11,0,2,,,,,,,,0,,,76,40
16800,note_on,120,0,7,,,,,,,,5,,,66,0
16800,note_on,21,0,4,,,,,,,,2,,,69,40
16800,note_on,21,0,3,,,,,,,,1,,,66,40
16800,note_on,240,0,6,,,,,,,,4,,,69,0
16800,note_on,0,0,6,,,,,,,,4,,,69,64
16800,note_on,0,0,8,,,,,,,,6,,,61,64
16800,note_on,42,0,10,,,,,,,,8,,,42,64
16800,note_on,0,0,7,,,,,,,,5,,,66,64
16830,note_on,0,0,2,,,,,,,,0,,,73,40
16830,note_on,30,0,2,,,,,,,,0,,,76,0
16849,note_on,19,0,2,,,,,,,,0,,,73,0
16860,note_on,0,0,4,,,,,,,,2,,,68,40
16860,note_on,0,0,3,,,,,,,,1,,,76,40
16860,note_on,60,0,3,,,,,,,,1,,,66,0
16860,note_on,60,0,4,,,,,,,,2,,,69,0
16860,note_on,11,0,2,,,,,,,,0,,,73,40
16878,note_on,78,0,10,,,,,,,,8,,,42,0
16890,note_on,0,0,2,,,,,,,,0,,,74,40
16890,note_on,30,0,2,,,,,,,,0,,,73,0
16899,note_on,39,0,4,,,,,,,,2,,,68,0
16899,note_on,39,0,3,,,,,,,,1,,,76,0
16909,note_on,19,0,2,,,,,,,,0,,,74,0
16920,note_on,21,0,4,,,,,,,,2,,,66,40
16920,note_on,120,0,6,,,,,,,,4,,,69,0
16920,note_on,120,0,7,,,,,,,,5,,,66,0
16920,note_on,240,0,11,,,,,,,,10,,,69,0
16920,note_on,21,0,3,,,,,,,,1,,,74,40
16920,note_on,11,0,2,,,,,,,,0,,,74,25
16920,note_on,0,0,11,,,,,,,,10,,,66,0
16920,note_on,0,0,11,,,,,,,,10,,,61,0
16920,note_on,120,0,8,,,,,,,,6,,,61,0
16920,note_on,0,0,11,,,,,,,,10,,,62,40
16920,note_on,42,0,10,,,,,,,,8,,,47,64
16920,note_on,120,0,9,,,,,,,,7,,,54,0
16920,note_on,0,0,11,,,,,,,,10,,,69,40
16920,note_on,0,0,11,,,,,,,,10,,,47,40
16920,note_on,0,0,11,,,,,,,,10,,,59,40
16950,note_on,0,0,2,,,,,,,,0,,,66,25
16950,note_on,30,0,2,,,,,,,,0,,,69,0
16969,note_on,19,0,2,,,,,,,,0,,,66,0
16980,note_on,60,0,4,,,,,,,,2,,,66,0
16980,note_on,0,0,4,,,,,,,,2,,,76,39
16980,note_on,0,0,3,,,,,,,,1,,,73,39
16980,note_on,60,0,3,,,,,,,,1,,,74,0
16980,note_on,0,0,5,,,,,,,,3,,,54,39
16980,note_on,420,0,5,,,,,,,,3,,,54,0
16980,note_on,11,0,2,,,,,,,,0,,,66,25
16998,note_on,78,0,10,,,,,,,,8,,,47,0
17010,note_on,30,0,2,,,,,,,,0,,,66,0
17010,note_on,0,0,2,,,,,,,,0,,,74,0
17010,note_on,0,0,2,,,,,,,,0,,,67,25
17010,note_on,0,0,2,,,,,,,,0,,,71,25
17019,note_on,39,0,4,,,,,,,,2,,,76,0
17019,note_on,39,0,3,,,,,,,,1,,,73,0
17029,note_on,19,0,2,,,,,,,,0,,,67,0
17029,note_on,0,0,2,,,,,,,,0,,,71,0
17040,note_on,120,0,11,,,,,,,,10,,,47,0
17040,note_on,21,0,4,,,,,,,,2,,,74,38
17040,note_on,120,0,9,,,,,,,,7,,,59,47
17040,note_on,0,0,2,,,,,,,,0,,,67,25
17040,note_on,21,0,3,,,,,,,,1,,,71,38
17040,note_on,120,0,6,,,,,,,,4,,,67,47
17040,note_on,0,0,5,,,,,,,,3,,,55,38
17040,note_on,60,0,5,,,,,,,,3,,,54,0
17040,note_on,0,0,11,,,,,,,,10,,,67,38
17040,note_on,11,0,2,,,,,,,,0,,,71,25
17040,note_on,42,0,10,,,,,,,,8,,,47,64
17040,note_on,120,0,7,,,,,,,,5,,,62,47
17040,note_on,0,0,11,,,,,,,,10,,,69,0
17040,note_on,120,0,8,,,,,,,,6,,,59,47
17070,note_on,30,0,2,,,,,,,,0,,,67,0
17070,note_on,0,0,2,,,,,,,,0,,,71,25
17070,note_on,0,0,2,,,,,,,,0,,,71,0
17070,note_on,0,0,2,,,,,,,,0,,,74,25
17089,note_on,19,0,2,,,,,,,,0,,,71,0
17089,note_on,0,0,2,,,,,,,,0,,,74,0
17100,note_on,0,0,6,,,,,,,,4,,,66,46
17100,note_on,0,0,4,,,,,,,,2,,,73,37
17100,note_on,60,0,4,,,,,,,,2,,,74,0
17100,note_on,0,0,2,,,,,,,,0,,,71,25
17100,note_on,60,0,6,,,,,,,,4,,,67,0
17100,note_on,11,0,2,,,,,,,,0,,,74,25
17100,note_on,0,0,3,,,,,,,,1,,,69,37
17100,note_on,60,0,5,,,,,,,,3,,,55,0
17100,note_on,0,0,5,,,,,,,,3,,,57,37
17100,note_on,60,0,3,,,,,,,,1,,,71,0
17118,note_on,78,0,10,,,,,,,,8,,,47,0
17130,note_on,30,0,2,,,,,,,,0,,,71,0
17130,note_on,0,0,2,,,,,,,,0,,,74,0
17130,note_on,0,0,2,,,,,,,,0,,,79,25
17130,note_on,0,0,2,,,,,,,,0,,,74,25
17139,note_on,39,0,3,,,,,,,,1,,,69,0
17139,note_on,39,0,4,,,,,,,,2,,,73,0
17149,note_on,19,0,2,,,,,,,,0,,,74,0
17149,note_on,0,0,2,,,,,,,,0,,,79,0
17160,note_on,11,0,2,,,,,,,,0,,,79,25
17160,note_on,0,0,9,,,,,,,,7,,,47,45
17160,note_on,120,0,9,,,,,,,,7,,,59,0
17160,note_on,0,0,5,,,,,,,,3,,,59,37
17160,note_on,60,0,5,,,,,,,,3,,,57,0
17160,note_on,120,0,8,,,,,,,,6,,,59,0
17160,note_on,0,0,8,,,,,,,,6,,,59,45
17160,note_on,21,0,3,,,,,,,,1,,,67,37
17160,note_on,60,0,6,,,,,,,,4,,,66,0
17160,note_on,21,0,4,,,,,,,,2,,,71,37
17160,note_on,0,0,11,,,,,,,,10,,,66,37
17160,note_on,42,0,10,,,,,,,,8,,,47,64
17160,note_on,0,0,2,,,,,,,,0,,,74,25
17160,note_on,0,0,7,,,,,,,,5,,,62,45
17160,note_on,0,0,6,,,,,,,,4,,,67,45
17160,note_on,120,0,11,,,,,,,,10,,,67,0
17160,note_on,120,0,7,,,,,,,,5,,,62,0
17190,note_on,0,0,2,,,,,,,,0,,,79,25
17190,note_on,30,0,2,,,,,,,,0,,,74,0
17190,note_on,0,0,2,,,,,,,,0,,,79,0
17190,note_on,0,0,2,,,,,,,,0,,,83,25
17209,note_on,0,0,2,,,,,,,,0,,,83,0
17209,note_on,19,0,2,,,,,,,,0,,,79,0
17220,note_on,0,0,3,,,,,,,,1,,,74,36
17220,note_on,0,0,5,,,,,,,,3,,,62,36
17220,note_on,60,0,5,,,,,,,,3,,,59,0
17220,note_on,60,0,3,,,,,,,,1,,,67,0
17220,note_on,0,0,2,,,,,,,,0,,,79,25
17220,note_on,11,0,2,,,,,,,,0,,,83,25
17220,note_on,60,0,4,,,,,,,,2,,,71,0
17220,note_on,60,0,6,,,,,,,,4,,,67,0
17220,note_on,0,0,6,,,,,,,,4,,,71,44
17220,note_on,0,0,4,,,,,,,,2,,,59,36
17238,note_on,78,0,10,,,,,,,,8,,,47,0
17250,note_on,0,0,2,,,,,,,,0,,,83,25
17250,note_on,0,0,2,,,,,,,,0,,,86,25
17250,note_on,0,0,2,,,,,,,,0,,,83,0
17250,note_on,30,0,2,,,,,,,,0,,,79,0
17259,note_on,39,0,3,,,,,,,,1,,,74,0
17259,note_on,39,0,4,,,,,,,,2,,,59,0
17269,note_on,0,0,2,,,,,,,,0,,,86,0
17269,note_on,19,0,2,,,,,,,,0,,,83,0
17280,note_on,120,0,9,,,,,,,,7,,,47,0
17280,note_on,0,0,5,,,,,,,,3,,,61,35
17280,note_on,60,0,5,,,,,,,,3,,,62,0
17280,note_on,0,0,7,,,,,,,,5,,,56,42
17280,note_on,120,0,7,,,,,,,,5,,,62,0
17280,note_on,21,0,4,,,,,,,,2,,,68,35
17280,note_on,0,0,9,,,,,,,,7,,,49,42
17280,note_on,0,0,2,,,,,,,,0,,,83,25
17280,note_on,42,0,10,,,,,,,,8,,,49,30
17280,note_on,11,0,2,,,,,,,,0,,,86,25
17280,note_on,0,0,11,,,,,,,,10,,,49,35
17280,note_on,0,0,11,,,,,,,,10,,,65,35
17280,note_on,0,0,11,,,,,,,,10,,,62,35
17280,note_on,0,0,11,,,,,,,,10,,,59,35
17280,note_on,0,0,11,,,,,,,,10,,,59,0
17280,note_on,0,0,11,,,,,,,,10,,,62,0
17280,note_on,0,0,8,,,,,,,,6,,,59,42
17280,note_on,120,0,11,,,,,,,,10,,,66,0
17280,note_on,21,0,3,,,,,,,,1,,,65,35
17280,note_on,120,0,8,,,,,,,,6,,,59,0
17280,note_on,0,0,6,,,,,,,,4,,,65,42
17280,note_on,60,0,6,,,,,,,,4,,,71,0
17310,note_on,30,0,2,,,,,,,,0,,,83,0
17310,note_on,0,0,2,,,,,,,,0,,,77,25
17329,note_on,19,0,2,,,,,,,,0,,,77,0
17340,note_on,11,0,2,,,,,,,,0,,,77,25
17370,note_on,0,0,2,,,,,,,,0,,,80,25
17370,note_on,30,0,2,,,,,,,,0,,,77,0
17389,note_on,19,0,2,,,,,,,,0,,,80,0
17400,note_on,11,0,2,,,,,,,,0,,,80,25
17430,note_on,0,0,2,,,,,,,,0,,,73,25
17430,note_on,30,0,2,,,,,,,,0,,,80,0
17449,note_on,19,0,2,,,,,,,,0,,,73,0
17460,note_on,180,0,9,,,,,,,,7,,,49,0
17460,note_on,0,0,9,,,,,,,,7,,,49,39
17460,note_on,0,0,2,,,,,,,,0,,,73,25
17460,note_on,180,0,7,,,,,,,,5,,,56,0
17460,note_on,0,0,7,,,,,,,,5,,,61,39
17460,note_on,11,0,2,,,,,,,,0,,,86,0
17460,note_on,0,0,2,,,,,,,,0,,,85,25
17460,note_on,0,0,10,,,,,,,,8,,,49,30
17460,note_on,180,0,3,,,,,,,,1,,,65,0
17460,note_on,180,0,10,,,,,,,,8,,,49,0
17460,note_on,180,0,8,,,,,,,,6,,,59,0
17460,note_on,0,0,11,,,,,,,,10,,,59,0
17460,note_on,0,0,8,,,,,,,,6,,,57,39
17460,note_on,180,0,6,,,,,,,,4,,,65,0
17460,note_on,0,0,6,,,,,,,,4,,,69,39
17460,note_on,180,0,5,,,,,,,,3,,,61,0
17460,note_on,180,0,11,,,,,,,,10,,,49,0
17460,note_on,0,0,5,,,,,,,,3,,,53,32
17460,note_on,0,0,11,,,,,,,,10,,,49,32
17460,note_on,0,0,11,,,,,,,,10,,,65,32
17460,note_on,0,0,3,,,,,,,,1,,,68,32
17460,note_on,0,0,11,,,,,,,,10,,,65,0
17460,note_on,0,0,11,,,,,,,,10,,,62,0
17460,note_on,0,0,11,,,,,,,,10,,,61,32
17460,note_on,0,0,4,,,,,,,,2,,,73,32
17460,note_on,180,0,4,,,,,,,,2,,,68,0
17490,note_on,30,0,2,,,,,,,,0,,,73,0
17490,note_on,0,0,2,,,,,,,,0,,,77,25
17509,note_on,19,0,2,,,,,,,,0,,,77,0
17520,note_on,0,0,11,,,,,,,,10,,,61,0
17520,note_on,0,0,11,,,,,,,,10,,,59,32
17520,note_on,60,0,11,,,,,,,,10,,,49,0
17520,note_on,0,0,8,,,,,,,,6,,,59,37
17520,note_on,0,0,11,,,,,,,,10,,,50,32
17520,note_on,60,0,8,,,,,,,,6,,,57,0
17520,note_on,0,0,3,,,,,,,,1,,,66,32
17520,note_on,60,0,3,,,,,,,,1,,,68,0
17520,note_on,60,0,6,,,,,,,,4,,,69,0
17520,note_on,0,0,6,,,,,,,,4,,,66,37
17520,note_on,0,0,11,,,,,,,,10,,,65,0
17520,note_on,0,0,11,,,,,,,,10,,,66,32
17520,note_on,60,0,7,,,,,,,,5,,,61,0
17520,note_on,11,0,2,,,,,,,,0,,,85,0
17520,note_on,0,0,2,,,,,,,,0,,,83,25
17520,note_on,0,0,2,,,,,,,,0,,,78,25
17520,note_on,60,0,9,,,,,,,,7,,,49,0
17520,note_on,0,0,9,,,,,,,,7,,,50,37
17520,note_on,0,0,10,,,,,,,,8,,,50,30
17520,note_on,60,0,10,,,,,,,,8,,,49,0
17520,note_on,60,0,5,,,,,,,,3,,,53,0
17520,note_on,0,0,5,,,,,,,,3,,,59,32
17520,note_on,60,0,4,,,,,,,,2,,,73,0
17520,note_on,0,0,7,,,,,,,,5,,,54,37
17520,note_on,0,0,4,,,,,,,,2,,,66,32
17550,note_on,0,0,2,,,,,,,,0,,,81,25
17550,note_on,30,0,2,,,,,,,,0,,,83,0
17580,note_on,0,0,5,,,,,,,,3,,,62,31
17580,note_on,30,0,2,,,,,,,,0,,,81,0
17580,note_on,0,0,3,,,,,,,,1,,,68,31
17580,note_on,60,0,3,,,,,,,,1,,,66,0
17580,note_on,60,0,5,,,,,,,,3,,,59,0
17580,note_on,0,0,2,,,,,,,,0,,,83,25
17580,note_on,0,0,4,,,,,,,,2,,,71,31
17580,note_on,60,0,4,,,,,,,,2,,,66,0
17598,note_on,78,0,10,,,,,,,,8,,,50,0
17610,note_on,0,0,2,,,,,,,,0,,,80,25
17610,note_on,30,0,3,,,,,,,,1,,,68,0
17610,note_on,0,0,3,,,,,,,,1,,,65,30
17610,note_on,30,0,2,,,,,,,,0,,,83,0
17619,note_on,39,0,4,,,,,,,,2,,,71,0
17619,note_on,39,0,5,,,,,,,,3,,,62,0
17640,note_on,30,0,3,,,,,,,,1,,,65,0
17640,set_tempo,2520,1,0,,,,,,1500000,,,,,,
17640,note_on,21,0,4,,,,,,,,2,,,62,30
17640,note_on,0,0,11,,,,,,,,10,,,59,0
17640,note_on,0,0,11,,,,,,,,10,,,69,30
17640,note_on,42,0,10,,,,,,,,8,,,47,30
17640,note_on,0,0,9,,,,,,,,7,,,47,30
17640,note_on,120,0,9,,,,,,,,7,,,50,0
17640,note_on,0,0,3,,,,,,,,1,,,66,30
17640,note_on,0,0,11,,,,,,,,10,,,47,30
17640,note_on,0,0,11,,,,,,,,10,,,66,0
17640,note_on,0,0,11,,,,,,,,10,,,66,30
17640,note_on,0,0,11,,,,,,,,10,,,59,30
17640,note_on,30,0,2,,,,,,,,0,,,80,0
17640,note_on,21,0,5,,,,,,,,3,,,54,30
17640,note_on,0,0,2,,,,,,,,0,,,81,25
17640,note_on,120,0,11,,,,,,,,10,,,50,0
17640,note_on,0,0,11,,,,,,,,10,,,62,30
17670,note_on,30,0,2,,,,,,,,0,,,81,0
17670,note_on,0,0,2,,,,,,,,0,,,78,0
17670,note_on,0,0,2,,,,,,,,0,,,80,25
17670,note_on,0,0,2,,,,,,,,0,,,77,25
17700,note_on,180,0,8,,,,,,,,6,,,59,0
17700,note_on,0,0,7,,,,,,,,5,,,66,30
17700,note_on,0,0,2,,,,,,,,0,,,78,25
17700,note_on,180,0,6,,,,,,,,4,,,66,0
17700,note_on,60,0,3,,,,,,,,1,,,66,0
17700,note_on,0,0,2,,,,,,,,0,,,81,25
17700,note_on,0,0,2,,,,,,,,0,,,80,0
17700,note_on,0,0,8,,,,,,,,6,,,54,30
17700,note_on,0,0,3,,,,,,,,1,,,74,30
17700,note_on,30,0,2,,,,,,,,0,,,77,0
17700,note_on,0,0,6,,,,,,,,4,,,74,30
17700,note_on,60,0,4,,,,,,,,2,,,62,0
17700,note_on,180,0,7,,,,,,,,5,,,54,0
17700,note_on,0,0,5,,,,,,,,3,,,62,30
17700,note_on,0,0,4,,,,,,,,2,,,66,30
17700,note_on,60,0,5,,,,,,,,3,,,54,0
17718,note_on,78,0,10,,,,,,,,8,,,47,0
17730,note_on,30,0,2,,,,,,,,0,,,78,0
17730,note_on,0,0,2,,,,,,,,0,,,81,0
17730,note_on,0,0,2,,,,,,,,0,,,83,25
17730,note_on,0,0,2,,,,,,,,0,,,80,25
17739,note_on,39,0,4,,,,,,,,2,,,66,0
17749,note_on,19,0,2,,,,,,,,0,,,80,0
17749,note_on,0,0,2,,,,,,,,0,,,83,0
17760,note_on,120,0,9,,,,,,,,7,,,47,0
17760,note_on,60,0,5,,,,,,,,3,,,62,0
17760,note_on,0,0,5,,,,,,,,3,,,56,30
17760,note_on,0,0,9,,,,,,,,7,,,49,30
17760,note_on,0,0,2,,,,,,,,0,,,78,25
17760,note_on,0,0,8,,,,,,,,6,,,61,30
17760,note_on,0,0,6,,,,,,,,4,,,73,30
17760,note_on,60,0,6,,,,,,,,4,,,74,0
17760,note_on,120,0,11,,,,,,,,10,,,47,0
17760,note_on,0,0,11,,,,,,,,10,,,66,0
17760,note_on,0,0,11,,,,,,,,10,,,59,0
17760,note_on,0,0,11,,,,,,,,10,,,62,0
17760,note_on,0,0,11,,,,,,,,10,,,69,0
17760,note_on,0,0,11,,,,,,,,10,,,61,30
17760,note_on,0,0,11,,,,,,,,10,,,66,30
17760,note_on,0,0,11,,,,,,,,10,,,68,30
17760,note_on,0,0,11,,,,,,,,10,,,49,30
17760,note_on,11,0,2,,,,,,,,0,,,80,25
17760,note_on,42,0,10,,,,,,,,8,,,49,30
17760,note_on,60,0,8,,,,,,,,6,,,54,0
17760,note_on,60,0,7,,,,,,,,5,,,66,0
17760,note_on,0,0,7,,,,,,,,5,,,65,30
17760,note_on,21,0,4,,,,,,,,2,,,61,30
17760,note_on,60,0,3,,,,,,,,1,,,74,0
17760,note_on,0,0,3,,,,,,,,1,,,73,30
17775,note_on,15,0,2,,,,,,,,0,,,78,0
17775,note_on,0,0,2,,,,,,,,0,,,77,25
17790,note_on,15,0,2,,,,,,,,0,,,77,0
17790,note_on,0,0,2,,,,,,,,0,,,78,25
17804,set_tempo,164,1,0,,,,,,1764706,,,,,,
17805,note_on,15,0,2,,,,,,,,0,,,78,0
17805,note_on,0,0,2,,,,,,,,0,,,77,25
17820,note_on,0,0,5,,,,,,,,3,,,54,30
17820,note_on,15,0,2,,,,,,,,0,,,77,0
17820,note_on,0,0,2,,,,,,,,0,,,78,25
17820,note_on,0,0,3,,,,,,,,1,,,70,30
17820,note_on,60,0,3,,,,,,,,1,,,73,0
17820,note_on,0,0,6,,,,,,,,4,,,70,30
17820,note_on,60,0,6,,,,,,,,4,,,73,0
17820,note_on,60,0,5,,,,,,,,3,,,56,0
17835,note_on,15,0,2,,,,,,,,0,,,78,0
17835,note_on,0,0,2,,,,,,,,0,,,77,25
17838,note_on,78,0,10,,,,,,,,8,,,49,0
17850,note_on,15,0,2,,,,,,,,0,,,77,0
17850,note_on,0,0,2,,,,,,,,0,,,78,25
17859,note_on,39,0,3,,,,,,,,1,,,70,0
17865,note_on,15,0,2,,,,,,,,0,,,78,0
17865,note_on,0,0,2,,,,,,,,0,,,77,25
17880,note_on,15,0,2,,,,,,,,0,,,77,0
17880,note_on,0,0,2,,,,,,,,0,,,78,25
17880,note_on,42,0,10,,,,,,,,8,,,37,30
17880,note_on,0,0,6,,,,,,,,4,,,71,30
17880,note_on,21,0,3,,,,,,,,1,,,71,30
17880,note_on,0,0,11,,,,,,,,10,,,37,30
17880,note_on,120,0,4,,,,,,,,2,,,61,0
17880,note_on,0,0,4,,,,,,,,2,,,61,30
17880,note_on,0,0,11,,,,,,,,10,,,65,30
17880,note_on,0,0,11,,,,,,,,10,,,66,0
17880,note_on,0,0,5,,,,,,,,3,,,56,30
17880,note_on,60,0,5,,,,,,,,3,,,54,0
17880,note_on,120,0,11,,,,,,,,10,,,49,0
17880,note_on,60,0,6,,,,,,,,4,,,70,0
17895,note_on,0,0,2,,,,,,,,0,,,77,25
17895,note_on,15,0,2,,,,,,,,0,,,78,0
17910,note_on,0,0,2,,,,,,,,0,,,78,25
17910,note_on,15,0,2,,,,,,,,0,,,77,0
17925,note_on,0,0,2,,,,,,,,0,,,77,25
17925,note_on,15,0,2,,,,,,,,0,,,78,0
17940,note_on,15,0,2,,,,,,,,0,,,77,0
17940,note_on,0,0,2,,,,,,,,0,,,78,25
17940,note_on,0,0,2,,,,,,,,0,,,78,25
17940,note_on,0,0,2,,,,,,,,0,,,80,0
17940,note_on,0,0,5,,,,,,,,3,,,61,30
17940,note_on,60,0,5,,,,,,,,3,,,56,0
17949,set_tempo,145,1,0,,,,,,2400000,,,,,,
17958,note_on,78,0,10,,,,,,,,8,,,37,0
17979,note_on,39,0,5,,,,,,,,3,,,61,0
17993,set_tempo,44,1,0,,,,,,1395349,,,,,,
17997,set_tempo,4,1,0,,,,,,1276596,,,,,,
17997,end_of_track,0,1,0,,,,,,,,,,,,
18000,note_on,0,0,3,,,,,,,,1,,,70,30
18000,note_on,120,0,11,,,,,,,,10,,,37,0
18000,note_on,0,0,8,,,,,,,,6,,,61,30
18000,note_on,240,0,8,,,,,,,,6,,,61,0
18000,note_on,42,0,10,,,,,,,,8,,,42,30
18000,note_on,21,0,5,,,,,,,,3,,,61,30
18000,note_on,120,0,4,,,,,,,,2,,,61,0
18000,note_on,120,0,3,,,,,,,,1,,,71,0
18000,note_on,120,0,6,,,,,,,,4,,,71,0
18000,note_on,0,0,11,,,,,,,,10,,,58,30
18000,note_on,0,0,11,,,,,,,,10,,,68,0
18000,note_on,0,0,11,,,,,,,,10,,,65,0
18000,note_on,0,0,11,,,,,,,,10,,,61,30
18000,note_on,0,0,9,,,,,,,,7,,,42,30
18000,note_on,240,0,9,,,,,,,,7,,,49,0
18000,note_on,0,0,11,,,,,,,,10,,,66,30
18000,note_on,0,0,11,,,,,,,,10,,,42,30
18000,note_on,0,0,11,,,,,,,,10,,,61,0
18000,note_on,0,0,7,,,,,,,,5,,,66,30
18000,note_on,240,0,7,,,,,,,,5,,,65,0
18000,note_on,60,0,2,,,,,,,,0,,,78,0
18000,note_on,0,0,2,,,,,,,,0,,,78,0
18000,note_on,0,0,2,,,,,,,,0,,,78,25
18000,note_on,0,0,2,,,,,,,,0,,,78,25
18000,note_on,0,0,4,,,,,,,,2,,,61,30
18000,note_on,0,0,6,,,,,,,,4,,,70,30
18360,note_on,0,0,11,,,,,,,,10,,,61,0
18360,note_on,360,0,11,,,,,,,,10,,,42,0
18360,note_on,0,0,11,,,,,,,,10,,,66,0
18360,note_on,0,0,11,,,,,,,,10,,,58,0
18360,note_on,360,0,4,,,,,,,,2,,,61,0
18360,end_of_track,0,1,7,,,,,,,,,,,,
18360,end_of_track,0,1,4,,,,,,,,,,,,
18360,end_of_track,0,1,11,,,,,,,,,,,,
18360,note_on,360,0,6,,,,,,,,4,,,70,0
18360,end_of_track,0,1,6,,,,,,,,,,,,
18360,end_of_track,0,1,10,,,,,,,,,,,,
18360,note_on,360,0,10,,,,,,,,8,,,42,0
18360,note_on,360,0,9,,,,,,,,7,,,42,0
18360,note_on,360,0,7,,,,,,,,5,,,66,0
18360,end_of_track,0,1,9,,,,,,,,,,,,
18360,end_of_track,0,1,2,,,,,,,,,,,,
18360,end_of_track,0,1,8,,,,,,,,,,,,
18360,note_on,360,0,8,,,,,,,,6,,,61,0
18360,note_on,360,0,5,,,,,,,,3,,,61,0
18360,end_of_track,0,1,5,,,,,,,,,,,,
18360,note_on,360,0,3,,,,,,,,1,,,70,0
18360,end_of_track,0,1,3,,,,,,,,,,,,
18360,note_on,0,0,2,,,,,,,,0,,,78,0
18360,note_on,360,0,2,,,,,,,,0,,,78,0
