tick,type,numerator,denominator,clocks_per_click,notated_32nd_notes_per_beat,time,meta,track,key,tempo,port,program,channel,control,value,note,velocity
0,time_signature,4,4,24,8,0,1,0,,,,,,,,,
0,program_change,,,,,0,0,1,,,,62,0,,,,
0,control_change,,,,,0,0,1,,,,,0,7,110,,
0,control_change,,,,,0,0,1,,,,,0,10,1,,
0,control_change,,,,,0,0,4,,,,,3,10,64,,
0,track_name,,,,,0,1,2,,,,,,,,,
0,program_change,,,,,0,0,4,,,,19,3,,,,
0,track_name,,,,,0,1,4,,,,,,,,,
0,track_name,,,,,0,1,1,,,,,,,,,
0,midi_port,,,,,0,1,4,,,0,,,,,,
0,control_change,,,,,0,0,3,,,,,2,7,105,,
0,program_change,,,,,0,0,3,,,,88,2,,,,
0,track_name,,,,,0,1,3,,,,,,,,,
0,midi_port,,,,,0,1,3,,,0,,,,,,
0,control_change,,,,,0,0,2,,,,,1,10,126,,
0,control_change,,,,,0,0,2,,,,,1,7,95,,
0,program_change,,,,,0,0,2,,,,81,1,,,,
0,control_change,,,,,0,0,3,,,,,2,10,64,,
0,midi_port,,,,,0,1,1,,,0,,,,,,
0,control_change,,,,,0,0,4,,,,,3,7,90,,
0,midi_port,,,,,0,1,2,,,0,,,,,,
0,set_tempo,,,,,0,1,0,,1200000,,,,,,,
0,key_signature,,,,,0,1,0,C,,,,,,,,
120,note_on,,,,,120,0,3,,,,,2,,,43,80
120,note_on,,,,,0,0,3,,,,,2,,,43,80
120,note_on,,,,,0,0,4,,,,,3,,,43,80
120,note_on,,,,,120,0,4,,,,,3,,,43,80
135,note_on,,,,,135,0,2,,,,,1,,,62,80
148,note_on,,,,,13,0,2,,,,,1,,,62,0
150,note_on,,,,,2,0,2,,,,,1,,,64,80
163,note_on,,,,,13,0,2,,,,,1,,,64,0
165,note_on,,,,,2,0,2,,,,,1,,,66,80
178,note_on,,,,,13,0,2,,,,,1,,,66,0
180,note_on,,,,,2,0,2,,,,,1,,,67,80
210,note_on,,,,,210,0,1,,,,,0,,,82,80
225,note_on,,,,,105,0,4,,,,,3,,,43,0
225,note_on,,,,,0,0,4,,,,,3,,,43,0
225,note_on,,,,,105,0,3,,,,,2,,,43,0
225,note_on,,,,,0,0,3,,,,,2,,,43,0
236,note_on,,,,,26,0,1,,,,,0,,,82,0
240,note_on,,,,,15,0,3,,,,,2,,,45,80
240,note_on,,,,,4,0,1,,,,,0,,,72,80
240,note_on,,,,,15,0,4,,,,,3,,,45,80
240,note_on,,,,,0,0,4,,,,,3,,,45,80
240,note_on,,,,,0,0,3,,,,,2,,,45,80
266,note_on,,,,,86,0,2,,,,,1,,,67,0
270,note_on,,,,,4,0,2,,,,,1,,,69,80
283,note_on,,,,,13,0,2,,,,,1,,,69,0
285,note_on,,,,,2,0,2,,,,,1,,,67,80
298,note_on,,,,,13,0,2,,,,,1,,,67,0
300,note_on,,,,,2,0,2,,,,,1,,,66,80
313,note_on,,,,,13,0,2,,,,,1,,,66,0
315,note_on,,,,,2,0,2,,,,,1,,,67,80
318,note_on,,,,,78,0,1,,,,,0,,,72,0
328,note_on,,,,,13,0,2,,,,,1,,,67,0
330,note_on,,,,,2,0,2,,,,,1,,,64,80
330,note_on,,,,,12,0,1,,,,,0,,,81,80
343,note_on,,,,,13,0,2,,,,,1,,,64,0
345,note_on,,,,,105,0,3,,,,,2,,,45,0
345,note_on,,,,,0,0,4,,,,,3,,,45,0
345,note_on,,,,,105,0,4,,,,,3,,,45,0
345,note_on,,,,,0,0,3,,,,,2,,,45,0
345,note_on,,,,,2,0,2,,,,,1,,,66,80
356,note_on,,,,,26,0,1,,,,,0,,,81,0
358,note_on,,,,,13,0,2,,,,,1,,,66,0
360,note_on,,,,,0,0,3,,,,,2,,,46,80
360,note_on,,,,,4,0,1,,,,,0,,,70,80
360,note_on,,,,,0,0,4,,,,,3,,,46,80
360,note_on,,,,,15,0,4,,,,,3,,,46,80
360,note_on,,,,,15,0,3,,,,,2,,,46,80
360,note_on,,,,,2,0,2,,,,,1,,,67,80
373,note_on,,,,,13,0,1,,,,,0,,,70,0
375,note_on,,,,,2,0,1,,,,,0,,,74,80
388,note_on,,,,,13,0,1,,,,,0,,,74,0
390,note_on,,,,,2,0,1,,,,,0,,,76,80
403,note_on,,,,,13,0,1,,,,,0,,,76,0
405,note_on,,,,,2,0,1,,,,,0,,,78,80
418,note_on,,,,,13,0,1,,,,,0,,,78,0
420,note_on,,,,,2,0,1,,,,,0,,,79,80
438,note_on,,,,,78,0,2,,,,,1,,,67,0
450,note_on,,,,,12,0,2,,,,,1,,,74,80
465,note_on,,,,,0,0,3,,,,,2,,,46,0
465,note_on,,,,,105,0,4,,,,,3,,,46,0
465,note_on,,,,,0,0,4,,,,,3,,,46,0
465,note_on,,,,,105,0,3,,,,,2,,,46,0
476,note_on,,,,,26,0,2,,,,,1,,,74,0
480,note_on,,,,,4,0,2,,,,,1,,,62,80
480,note_on,,,,,0,0,4,,,,,3,,,47,80
480,note_on,,,,,15,0,4,,,,,3,,,47,80
480,note_on,,,,,0,0,3,,,,,2,,,47,80
480,note_on,,,,,15,0,3,,,,,2,,,47,80
493,note_on,,,,,73,0,1,,,,,0,,,79,0
495,note_on,,,,,2,0,1,,,,,0,,,79,80
508,note_on,,,,,13,0,1,,,,,0,,,79,0
510,note_on,,,,,2,0,1,,,,,0,,,80,80
523,note_on,,,,,13,0,1,,,,,0,,,80,0
525,note_on,,,,,2,0,1,,,,,0,,,79,80
538,note_on,,,,,13,0,1,,,,,0,,,79,0
540,note_on,,,,,2,0,1,,,,,0,,,77,80
553,note_on,,,,,13,0,1,,,,,0,,,77,0
555,note_on,,,,,2,0,1,,,,,0,,,75,80
558,note_on,,,,,78,0,2,,,,,1,,,62,0
568,note_on,,,,,13,0,1,,,,,0,,,75,0
570,note_on,,,,,12,0,2,,,,,1,,,67,80
570,note_on,,,,,2,0,1,,,,,0,,,77,80
583,note_on,,,,,13,0,1,,,,,0,,,77,0
585,note_on,,,,,2,0,1,,,,,0,,,74,80
585,note_on,,,,,105,0,4,,,,,3,,,47,0
585,note_on,,,,,0,0,4,,,,,3,,,47,0
585,note_on,,,,,105,0,3,,,,,2,,,47,0
585,note_on,,,,,0,0,3,,,,,2,,,47,0
596,note_on,,,,,26,0,2,,,,,1,,,67,0
598,note_on,,,,,13,0,1,,,,,0,,,74,0
600,note_on,,,,,4,0,2,,,,,1,,,60,80
600,note_on,,,,,2,0,1,,,,,0,,,75,80
600,note_on,,,,,0,0,3,,,,,2,,,48,80
600,note_on,,,,,15,0,4,,,,,3,,,48,80
600,note_on,,,,,0,0,4,,,,,3,,,48,80
600,note_on,,,,,15,0,3,,,,,2,,,48,80
613,note_on,,,,,13,0,2,,,,,1,,,60,0
615,note_on,,,,,2,0,2,,,,,1,,,63,80
628,note_on,,,,,13,0,2,,,,,1,,,63,0
630,note_on,,,,,2,0,2,,,,,1,,,65,80
643,note_on,,,,,13,0,2,,,,,1,,,65,0
645,note_on,,,,,2,0,2,,,,,1,,,67,80
658,note_on,,,,,13,0,2,,,,,1,,,67,0
660,note_on,,,,,2,0,2,,,,,1,,,69,80
673,note_on,,,,,73,0,1,,,,,0,,,75,0
675,note_on,,,,,2,0,1,,,,,0,,,84,80
688,note_on,,,,,13,0,1,,,,,0,,,84,0
690,note_on,,,,,2,0,1,,,,,0,,,82,80
703,note_on,,,,,13,0,1,,,,,0,,,82,0
705,note_on,,,,,0,0,4,,,,,3,,,48,0
705,note_on,,,,,105,0,4,,,,,3,,,48,0
705,note_on,,,,,2,0,1,,,,,0,,,84,80
705,note_on,,,,,0,0,3,,,,,2,,,48,0
705,note_on,,,,,105,0,3,,,,,2,,,48,0
718,note_on,,,,,13,0,1,,,,,0,,,84,0
720,note_on,,,,,2,0,1,,,,,0,,,74,80
720,note_on,,,,,0,0,3,,,,,2,,,46,80
720,note_on,,,,,15,0,3,,,,,2,,,46,80
720,note_on,,,,,15,0,4,,,,,3,,,46,80
720,note_on,,,,,0,0,4,,,,,3,,,46,80
733,note_on,,,,,73,0,2,,,,,1,,,69,0
735,note_on,,,,,2,0,2,,,,,1,,,62,80
748,note_on,,,,,13,0,2,,,,,1,,,62,0
750,note_on,,,,,2,0,2,,,,,1,,,64,80
763,note_on,,,,,13,0,2,,,,,1,,,64,0
765,note_on,,,,,2,0,2,,,,,1,,,66,80
778,note_on,,,,,13,0,2,,,,,1,,,66,0
780,note_on,,,,,2,0,2,,,,,1,,,67,80
793,note_on,,,,,73,0,1,,,,,0,,,74,0
795,note_on,,,,,2,0,1,,,,,0,,,82,80
808,note_on,,,,,13,0,1,,,,,0,,,82,0
810,note_on,,,,,2,0,1,,,,,0,,,81,80
823,note_on,,,,,13,0,1,,,,,0,,,81,0
825,note_on,,,,,0,0,3,,,,,2,,,46,0
825,note_on,,,,,105,0,3,,,,,2,,,46,0
825,note_on,,,,,105,0,4,,,,,3,,,46,0
825,note_on,,,,,0,0,4,,,,,3,,,46,0
825,note_on,,,,,2,0,1,,,,,0,,,82,80
838,note_on,,,,,13,0,1,,,,,0,,,82,0
840,note_on,,,,,0,0,3,,,,,2,,,45,80
840,note_on,,,,,15,0,3,,,,,2,,,45,80
840,note_on,,,,,15,0,4,,,,,3,,,45,80
840,note_on,,,,,0,0,4,,,,,3,,,45,80
840,note_on,,,,,2,0,1,,,,,0,,,72,80
853,note_on,,,,,13,0,1,,,,,0,,,72,0
855,note_on,,,,,2,0,1,,,,,0,,,76,80
868,note_on,,,,,13,0,1,,,,,0,,,76,0
870,note_on,,,,,2,0,1,,,,,0,,,78,80
883,note_on,,,,,13,0,1,,,,,0,,,78,0
885,note_on,,,,,2,0,1,,,,,0,,,79,80
898,note_on,,,,,13,0,1,,,,,0,,,79,0
900,note_on,,,,,2,0,1,,,,,0,,,81,80
913,note_on,,,,,133,0,2,,,,,1,,,67,0
915,note_on,,,,,2,0,2,,,,,1,,,72,80
928,note_on,,,,,13,0,2,,,,,1,,,72,0
930,note_on,,,,,2,0,2,,,,,1,,,70,80
943,note_on,,,,,13,0,2,,,,,1,,,70,0
945,note_on,,,,,2,0,2,,,,,1,,,72,80
945,note_on,,,,,105,0,4,,,,,3,,,45,0
945,note_on,,,,,0,0,4,,,,,3,,,45,0
945,note_on,,,,,0,0,3,,,,,2,,,45,0
945,note_on,,,,,105,0,3,,,,,2,,,45,0
958,note_on,,,,,13,0,2,,,,,1,,,72,0
960,note_on,,,,,0,0,3,,,,,2,,,45,80
960,note_on,,,,,2,0,2,,,,,1,,,66,80
960,note_on,,,,,15,0,4,,,,,3,,,45,80
960,note_on,,,,,0,0,4,,,,,3,,,45,80
960,note_on,,,,,15,0,3,,,,,2,,,45,80
973,note_on,,,,,73,0,1,,,,,0,,,81,0
975,note_on,,,,,2,0,1,,,,,0,,,78,80
988,note_on,,,,,13,0,1,,,,,0,,,78,0
990,note_on,,,,,2,0,1,,,,,0,,,79,80
1003,note_on,,,,,13,0,1,,,,,0,,,79,0
1005,note_on,,,,,2,0,1,,,,,0,,,81,80
1018,note_on,,,,,13,0,1,,,,,0,,,81,0
1020,note_on,,,,,2,0,1,,,,,0,,,72,80
1033,note_on,,,,,73,0,2,,,,,1,,,66,0
1035,note_on,,,,,2,0,2,,,,,1,,,69,80
1048,note_on,,,,,13,0,2,,,,,1,,,69,0
1050,note_on,,,,,2,0,2,,,,,1,,,67,80
1063,note_on,,,,,13,0,2,,,,,1,,,67,0
1065,note_on,,,,,0,0,4,,,,,3,,,45,0
1065,note_on,,,,,105,0,4,,,,,3,,,45,0
1065,note_on,,,,,2,0,2,,,,,1,,,69,80
1065,note_on,,,,,0,0,3,,,,,2,,,45,0
1065,note_on,,,,,105,0,3,,,,,2,,,45,0
1078,note_on,,,,,13,0,2,,,,,1,,,69,0
1080,note_on,,,,,2,0,2,,,,,1,,,62,80
1080,note_on,,,,,0,0,3,,,,,2,,,46,80
1080,note_on,,,,,15,0,3,,,,,2,,,46,80
1080,note_on,,,,,15,0,4,,,,,3,,,46,80
1080,note_on,,,,,0,0,4,,,,,3,,,46,80
1093,note_on,,,,,73,0,1,,,,,0,,,72,0
1095,note_on,,,,,2,0,1,,,,,0,,,66,80
1108,note_on,,,,,13,0,1,,,,,0,,,66,0
1110,note_on,,,,,2,0,1,,,,,0,,,67,80
1123,note_on,,,,,13,0,1,,,,,0,,,67,0
1125,note_on,,,,,2,0,1,,,,,0,,,69,80
1138,note_on,,,,,13,0,1,,,,,0,,,69,0
1140,note_on,,,,,2,0,1,,,,,0,,,70,80
1158,note_on,,,,,78,0,2,,,,,1,,,62,0
1170,note_on,,,,,12,0,2,,,,,1,,,62,80
1185,note_on,,,,,105,0,4,,,,,3,,,46,0
1185,note_on,,,,,0,0,4,,,,,3,,,46,0
1185,note_on,,,,,0,0,3,,,,,2,,,46,0
1185,note_on,,,,,105,0,3,,,,,2,,,46,0
1196,note_on,,,,,26,0,2,,,,,1,,,62,0
1200,note_on,,,,,0,0,4,,,,,3,,,48,80
1200,note_on,,,,,15,0,4,,,,,3,,,48,80
1200,note_on,,,,,4,0,2,,,,,1,,,51,80
1200,note_on,,,,,0,0,3,,,,,2,,,48,80
1200,note_on,,,,,15,0,3,,,,,2,,,48,80
1226,note_on,,,,,86,0,1,,,,,0,,,70,0
1230,note_on,,,,,4,0,1,,,,,0,,,72,80
1243,note_on,,,,,13,0,1,,,,,0,,,72,0
1245,note_on,,,,,2,0,1,,,,,0,,,70,80
1258,note_on,,,,,13,0,1,,,,,0,,,70,0
1260,note_on,,,,,2,0,1,,,,,0,,,69,80
1273,note_on,,,,,13,0,1,,,,,0,,,69,0
1275,note_on,,,,,2,0,1,,,,,0,,,70,80
1278,note_on,,,,,78,0,2,,,,,1,,,51,0
1288,note_on,,,,,13,0,1,,,,,0,,,70,0
1290,note_on,,,,,2,0,1,,,,,0,,,67,80
1290,note_on,,,,,12,0,2,,,,,1,,,60,80
1303,note_on,,,,,13,0,1,,,,,0,,,67,0
1305,note_on,,,,,0,0,4,,,,,3,,,48,0
1305,note_on,,,,,0,0,3,,,,,2,,,48,0
1305,note_on,,,,,105,0,3,,,,,2,,,48,0
1305,note_on,,,,,2,0,1,,,,,0,,,69,80
1305,note_on,,,,,105,0,4,,,,,3,,,48,0
1316,note_on,,,,,26,0,2,,,,,1,,,60,0
1318,note_on,,,,,13,0,1,,,,,0,,,69,0
1320,note_on,,,,,4,0,2,,,,,1,,,50,80
1320,note_on,,,,,2,0,1,,,,,0,,,70,80
1320,note_on,,,,,0,0,4,,,,,3,,,50,80
1320,note_on,,,,,15,0,4,,,,,3,,,50,80
1320,note_on,,,,,15,0,3,,,,,2,,,50,80
1320,note_on,,,,,0,0,3,,,,,2,,,50,80
1333,note_on,,,,,13,0,2,,,,,1,,,50,0
1335,note_on,,,,,2,0,2,,,,,1,,,53,80
1348,note_on,,,,,13,0,2,,,,,1,,,53,0
1350,note_on,,,,,2,0,2,,,,,1,,,55,80
1363,note_on,,,,,13,0,2,,,,,1,,,55,0
1365,note_on,,,,,2,0,2,,,,,1,,,57,80
1378,note_on,,,,,13,0,2,,,,,1,,,57,0
1380,note_on,,,,,2,0,2,,,,,1,,,58,80
1398,note_on,,,,,78,0,1,,,,,0,,,70,0
1410,note_on,,,,,12,0,1,,,,,0,,,77,80
1425,note_on,,,,,105,0,4,,,,,3,,,50,0
1425,note_on,,,,,0,0,4,,,,,3,,,50,0
1425,note_on,,,,,105,0,3,,,,,2,,,50,0
1425,note_on,,,,,0,0,3,,,,,2,,,50,0
1436,note_on,,,,,26,0,1,,,,,0,,,77,0
1440,note_on,,,,,15,0,4,,,,,3,,,46,80
1440,note_on,,,,,0,0,4,,,,,3,,,46,80
1440,note_on,,,,,4,0,1,,,,,0,,,68,80
1440,note_on,,,,,15,0,3,,,,,2,,,46,80
1440,note_on,,,,,0,0,3,,,,,2,,,46,80
1453,note_on,,,,,73,0,2,,,,,1,,,58,0
1455,note_on,,,,,2,0,2,,,,,1,,,60,80
1468,note_on,,,,,13,0,2,,,,,1,,,60,0
1470,note_on,,,,,2,0,2,,,,,1,,,62,80
1483,note_on,,,,,13,0,2,,,,,1,,,62,0
1485,note_on,,,,,2,0,2,,,,,1,,,60,80
1498,note_on,,,,,13,0,2,,,,,1,,,60,0
1500,note_on,,,,,2,0,2,,,,,1,,,58,80
1513,note_on,,,,,13,0,2,,,,,1,,,58,0
1515,note_on,,,,,2,0,2,,,,,1,,,60,80
1518,note_on,,,,,78,0,1,,,,,0,,,68,0
1528,note_on,,,,,13,0,2,,,,,1,,,60,0
1530,note_on,,,,,2,0,2,,,,,1,,,56,80
1530,note_on,,,,,12,0,1,,,,,0,,,74,80
1543,note_on,,,,,13,0,2,,,,,1,,,56,0
1545,note_on,,,,,105,0,4,,,,,3,,,46,0
1545,note_on,,,,,0,0,4,,,,,3,,,46,0
1545,note_on,,,,,0,0,3,,,,,2,,,46,0
1545,note_on,,,,,105,0,3,,,,,2,,,46,0
1545,note_on,,,,,2,0,2,,,,,1,,,58,80
1556,note_on,,,,,26,0,1,,,,,0,,,74,0
1558,note_on,,,,,13,0,2,,,,,1,,,58,0
1560,note_on,,,,,4,0,1,,,,,0,,,63,80
1560,note_on,,,,,2,0,2,,,,,1,,,55,80
1560,note_on,,,,,0,0,4,,,,,3,,,51,80
1560,note_on,,,,,15,0,4,,,,,3,,,51,80
1560,note_on,,,,,0,0,3,,,,,2,,,51,80
1560,note_on,,,,,15,0,3,,,,,2,,,51,80
1573,note_on,,,,,13,0,1,,,,,0,,,63,0
1575,note_on,,,,,2,0,1,,,,,0,,,67,80
1588,note_on,,,,,13,0,1,,,,,0,,,67,0
1590,note_on,,,,,2,0,1,,,,,0,,,69,80
1603,note_on,,,,,13,0,1,,,,,0,,,69,0
1605,note_on,,,,,2,0,1,,,,,0,,,70,80
1618,note_on,,,,,13,0,1,,,,,0,,,70,0
1620,note_on,,,,,2,0,1,,,,,0,,,72,80
1633,note_on,,,,,73,0,2,,,,,1,,,55,0
1635,note_on,,,,,2,0,2,,,,,1,,,63,80
1648,note_on,,,,,13,0,2,,,,,1,,,63,0
1650,note_on,,,,,2,0,2,,,,,1,,,62,80
1663,note_on,,,,,13,0,2,,,,,1,,,62,0
1665,note_on,,,,,105,0,4,,,,,3,,,51,0
1665,note_on,,,,,0,0,4,,,,,3,,,51,0
1665,note_on,,,,,2,0,2,,,,,1,,,63,80
1665,note_on,,,,,105,0,3,,,,,2,,,51,0
1665,note_on,,,,,0,0,3,,,,,2,,,51,0
1678,note_on,,,,,13,0,2,,,,,1,,,63,0
1680,note_on,,,,,15,0,4,,,,,3,,,50,80
1680,note_on,,,,,0,0,4,,,,,3,,,50,80
1680,note_on,,,,,2,0,2,,,,,1,,,53,80
1680,note_on,,,,,15,0,3,,,,,2,,,50,80
1680,note_on,,,,,0,0,3,,,,,2,,,50,80
1693,note_on,,,,,73,0,1,,,,,0,,,72,0
1695,note_on,,,,,2,0,1,,,,,0,,,65,80
1708,note_on,,,,,13,0,1,,,,,0,,,65,0
1710,note_on,,,,,2,0,1,,,,,0,,,67,80
1723,note_on,,,,,13,0,1,,,,,0,,,67,0
1725,note_on,,,,,2,0,1,,,,,0,,,69,80
1738,note_on,,,,,13,0,1,,,,,0,,,69,0
1740,note_on,,,,,2,0,1,,,,,0,,,70,80
1753,note_on,,,,,73,0,2,,,,,1,,,53,0
1755,note_on,,,,,2,0,2,,,,,1,,,62,80
1768,note_on,,,,,13,0,2,,,,,1,,,62,0
1770,note_on,,,,,2,0,2,,,,,1,,,60,80
1783,note_on,,,,,13,0,2,,,,,1,,,60,0
1785,note_on,,,,,105,0,4,,,,,3,,,50,0
1785,note_on,,,,,105,0,3,,,,,2,,,50,0
1785,note_on,,,,,0,0,3,,,,,2,,,50,0
1785,note_on,,,,,2,0,2,,,,,1,,,62,80
1785,note_on,,,,,0,0,4,,,,,3,,,50,0
1798,note_on,,,,,13,0,2,,,,,1,,,62,0
1800,note_on,,,,,2,0,2,,,,,1,,,51,80
1800,note_on,,,,,15,0,4,,,,,3,,,48,80
1800,note_on,,,,,0,0,4,,,,,3,,,48,80
1800,note_on,,,,,0,0,3,,,,,2,,,48,80
1800,note_on,,,,,15,0,3,,,,,2,,,48,80
1813,note_on,,,,,13,0,2,,,,,1,,,51,0
1815,note_on,,,,,2,0,2,,,,,1,,,55,80
1828,note_on,,,,,13,0,2,,,,,1,,,55,0
1830,note_on,,,,,2,0,2,,,,,1,,,57,80
1843,note_on,,,,,13,0,2,,,,,1,,,57,0
1845,note_on,,,,,2,0,2,,,,,1,,,58,80
1858,note_on,,,,,13,0,2,,,,,1,,,58,0
1860,note_on,,,,,2,0,2,,,,,1,,,60,80
1873,note_on,,,,,133,0,1,,,,,0,,,70,0
1875,note_on,,,,,2,0,1,,,,,0,,,75,80
1888,note_on,,,,,13,0,1,,,,,0,,,75,0
1890,note_on,,,,,2,0,1,,,,,0,,,74,80
1903,note_on,,,,,13,0,1,,,,,0,,,74,0
1905,note_on,,,,,2,0,1,,,,,0,,,75,80
1918,note_on,,,,,13,0,1,,,,,0,,,75,0
1920,note_on,,,,,2,0,1,,,,,0,,,68,80
1933,note_on,,,,,73,0,2,,,,,1,,,60,0
1935,note_on,,,,,2,0,2,,,,,1,,,56,80
1948,note_on,,,,,13,0,2,,,,,1,,,56,0
1950,note_on,,,,,2,0,2,,,,,1,,,58,80
1963,note_on,,,,,13,0,2,,,,,1,,,58,0
1965,note_on,,,,,2,0,2,,,,,1,,,60,80
1978,note_on,,,,,13,0,2,,,,,1,,,60,0
1980,note_on,,,,,2,0,2,,,,,1,,,51,80
1993,note_on,,,,,73,0,1,,,,,0,,,68,0
1995,note_on,,,,,2,0,1,,,,,0,,,72,80
2008,note_on,,,,,13,0,1,,,,,0,,,72,0
2010,note_on,,,,,2,0,1,,,,,0,,,70,80
2023,note_on,,,,,13,0,1,,,,,0,,,70,0
2025,note_on,,,,,2,0,1,,,,,0,,,72,80
2025,note_on,,,,,225,0,3,,,,,2,,,48,0
2025,note_on,,,,,0,0,3,,,,,2,,,48,0
2025,note_on,,,,,225,0,4,,,,,3,,,48,0
2025,note_on,,,,,0,0,4,,,,,3,,,48,0
2038,note_on,,,,,13,0,1,,,,,0,,,72,0
2040,note_on,,,,,15,0,3,,,,,2,,,46,80
2040,note_on,,,,,2,0,1,,,,,0,,,65,80
2040,note_on,,,,,15,0,4,,,,,3,,,46,80
2040,note_on,,,,,0,0,3,,,,,2,,,46,80
2040,note_on,,,,,0,0,4,,,,,3,,,46,80
2053,note_on,,,,,73,0,2,,,,,1,,,51,0
2055,note_on,,,,,2,0,2,,,,,1,,,50,80
2068,note_on,,,,,13,0,2,,,,,1,,,50,0
2070,note_on,,,,,2,0,2,,,,,1,,,51,80
2083,note_on,,,,,13,0,2,,,,,1,,,51,0
2085,note_on,,,,,2,0,2,,,,,1,,,53,80
2098,note_on,,,,,13,0,2,,,,,1,,,53,0
2100,note_on,,,,,2,0,2,,,,,1,,,55,80
2113,note_on,,,,,73,0,1,,,,,0,,,65,0
2115,note_on,,,,,2,0,1,,,,,0,,,65,80
2128,note_on,,,,,13,0,1,,,,,0,,,65,0
2130,note_on,,,,,2,0,1,,,,,0,,,63,80
2143,note_on,,,,,13,0,1,,,,,0,,,63,0
2145,note_on,,,,,2,0,1,,,,,0,,,62,80
2158,note_on,,,,,13,0,1,,,,,0,,,62,0
2160,note_on,,,,,2,0,1,,,,,0,,,63,80
2173,note_on,,,,,73,0,2,,,,,1,,,55,0
2175,note_on,,,,,2,0,2,,,,,1,,,53,80
2188,note_on,,,,,13,0,2,,,,,1,,,53,0
2190,note_on,,,,,2,0,2,,,,,1,,,55,80
2203,note_on,,,,,13,0,2,,,,,1,,,55,0
2205,note_on,,,,,2,0,2,,,,,1,,,57,80
2218,note_on,,,,,13,0,2,,,,,1,,,57,0
2220,note_on,,,,,2,0,2,,,,,1,,,58,80
2233,note_on,,,,,73,0,1,,,,,0,,,63,0
2235,note_on,,,,,2,0,1,,,,,0,,,63,80
2248,note_on,,,,,13,0,1,,,,,0,,,63,0
2250,note_on,,,,,2,0,1,,,,,0,,,62,80
2263,note_on,,,,,13,0,1,,,,,0,,,62,0
2265,note_on,,,,,225,0,3,,,,,2,,,46,0
2265,note_on,,,,,225,0,4,,,,,3,,,46,0
2265,note_on,,,,,2,0,1,,,,,0,,,60,80
2265,note_on,,,,,0,0,3,,,,,2,,,46,0
2265,note_on,,,,,0,0,4,,,,,3,,,46,0
2278,note_on,,,,,13,0,1,,,,,0,,,60,0
2280,note_on,,,,,2,0,1,,,,,0,,,62,80
2280,note_on,,,,,15,0,3,,,,,2,,,50,80
2280,note_on,,,,,0,0,4,,,,,3,,,50,80
2280,note_on,,,,,0,0,3,,,,,2,,,50,80
2280,note_on,,,,,15,0,4,,,,,3,,,50,80
2293,note_on,,,,,13,0,1,,,,,0,,,62,0
2295,note_on,,,,,2,0,1,,,,,0,,,66,80
2308,note_on,,,,,13,0,1,,,,,0,,,66,0
2310,note_on,,,,,2,0,1,,,,,0,,,67,80
2323,note_on,,,,,13,0,1,,,,,0,,,67,0
2325,note_on,,,,,2,0,1,,,,,0,,,69,80
2338,note_on,,,,,13,0,1,,,,,0,,,69,0
2340,note_on,,,,,2,0,1,,,,,0,,,70,80
2353,note_on,,,,,133,0,2,,,,,1,,,58,0
2355,note_on,,,,,2,0,2,,,,,1,,,55,80
2368,note_on,,,,,13,0,2,,,,,1,,,55,0
2370,note_on,,,,,2,0,2,,,,,1,,,57,80
2383,note_on,,,,,13,0,2,,,,,1,,,57,0
2385,note_on,,,,,0,0,3,,,,,2,,,50,0
2385,note_on,,,,,105,0,3,,,,,2,,,50,0
2385,note_on,,,,,2,0,2,,,,,1,,,58,80
2385,note_on,,,,,0,0,4,,,,,3,,,50,0
2385,note_on,,,,,105,0,4,,,,,3,,,50,0
2398,note_on,,,,,13,0,2,,,,,1,,,58,0
2400,note_on,,,,,2,0,2,,,,,1,,,60,80
2400,note_on,,,,,0,0,4,,,,,3,,,50,80
2400,note_on,,,,,15,0,4,,,,,3,,,50,80
2400,note_on,,,,,15,0,3,,,,,2,,,50,80
2400,note_on,,,,,0,0,3,,,,,2,,,50,80
2413,note_on,,,,,73,0,1,,,,,0,,,70,0
2415,note_on,,,,,2,0,1,,,,,0,,,70,80
2428,note_on,,,,,13,0,1,,,,,0,,,70,0
2430,note_on,,,,,2,0,1,,,,,0,,,69,80
2443,note_on,,,,,13,0,1,,,,,0,,,69,0
2445,note_on,,,,,2,0,1,,,,,0,,,67,80
2458,note_on,,,,,13,0,1,,,,,0,,,67,0
2460,note_on,,,,,2,0,1,,,,,0,,,69,80
2473,note_on,,,,,73,0,2,,,,,1,,,60,0
2475,note_on,,,,,2,0,2,,,,,1,,,60,80
2488,note_on,,,,,13,0,2,,,,,1,,,60,0
2490,note_on,,,,,2,0,2,,,,,1,,,58,80
2503,note_on,,,,,13,0,2,,,,,1,,,58,0
2505,note_on,,,,,2,0,2,,,,,1,,,57,80
2505,note_on,,,,,0,0,4,,,,,3,,,50,0
2505,note_on,,,,,0,0,3,,,,,2,,,50,0
2505,note_on,,,,,105,0,3,,,,,2,,,50,0
2505,note_on,,,,,105,0,4,,,,,3,,,50,0
2518,note_on,,,,,13,0,2,,,,,1,,,57,0
2520,note_on,,,,,15,0,4,,,,,3,,,50,80
2520,note_on,,,,,0,0,4,,,,,3,,,50,80
2520,note_on,,,,,15,0,3,,,,,2,,,50,80
2520,note_on,,,,,2,0,2,,,,,1,,,58,80
2520,note_on,,,,,0,0,3,,,,,2,,,50,80
2533,note_on,,,,,73,0,1,,,,,0,,,69,0
2535,note_on,,,,,2,0,1,,,,,0,,,81,80
2548,note_on,,,,,13,0,1,,,,,0,,,81,0
2550,note_on,,,,,2,0,1,,,,,0,,,79,80
2563,note_on,,,,,13,0,1,,,,,0,,,79,0
2565,note_on,,,,,2,0,1,,,,,0,,,78,80
2578,note_on,,,,,13,0,1,,,,,0,,,78,0
2580,note_on,,,,,2,0,1,,,,,0,,,79,80
2593,note_on,,,,,73,0,2,,,,,1,,,58,0
2595,note_on,,,,,2,0,2,,,,,1,,,70,80
2608,note_on,,,,,13,0,2,,,,,1,,,70,0
2610,note_on,,,,,2,0,2,,,,,1,,,69,80
2623,note_on,,,,,13,0,2,,,,,1,,,69,0
2625,note_on,,,,,105,0,3,,,,,2,,,50,0
2625,note_on,,,,,2,0,2,,,,,1,,,67,80
2625,note_on,,,,,105,0,4,,,,,3,,,50,0
2625,note_on,,,,,0,0,4,,,,,3,,,50,0
2625,note_on,,,,,0,0,3,,,,,2,,,50,0
2638,note_on,,,,,13,0,2,,,,,1,,,67,0
2640,note_on,,,,,15,0,4,,,,,3,,,50,80
2640,note_on,,,,,2,0,2,,,,,1,,,69,80
2640,note_on,,,,,0,0,3,,,,,2,,,50,80
2640,note_on,,,,,0,0,4,,,,,3,,,50,80
2640,note_on,,,,,15,0,3,,,,,2,,,50,80
2653,note_on,,,,,73,0,1,,,,,0,,,79,0
2655,note_on,,,,,2,0,1,,,,,0,,,79,80
2668,note_on,,,,,13,0,1,,,,,0,,,79,0
2670,note_on,,,,,2,0,1,,,,,0,,,77,80
2683,note_on,,,,,13,0,1,,,,,0,,,77,0
2685,note_on,,,,,2,0,1,,,,,0,,,75,80
2698,note_on,,,,,13,0,1,,,,,0,,,75,0
2700,note_on,,,,,2,0,1,,,,,0,,,77,80
2713,note_on,,,,,73,0,2,,,,,1,,,69,0
2715,note_on,,,,,2,0,2,,,,,1,,,67,80
2728,note_on,,,,,13,0,2,,,,,1,,,67,0
2730,note_on,,,,,2,0,2,,,,,1,,,69,80
2743,note_on,,,,,13,0,2,,,,,1,,,69,0
2745,note_on,,,,,0,0,4,,,,,3,,,50,0
2745,note_on,,,,,0,0,3,,,,,2,,,50,0
2745,note_on,,,,,105,0,3,,,,,2,,,50,0
2745,note_on,,,,,2,0,2,,,,,1,,,71,80
2745,note_on,,,,,105,0,4,,,,,3,,,50,0
2758,note_on,,,,,13,0,2,,,,,1,,,71,0
2760,note_on,,,,,15,0,4,,,,,3,,,48,80
2760,note_on,,,,,0,0,3,,,,,2,,,48,80
2760,note_on,,,,,15,0,3,,,,,2,,,48,80
2760,note_on,,,,,2,0,2,,,,,1,,,72,80
2760,note_on,,,,,0,0,4,,,,,3,,,48,80
2773,note_on,,,,,73,0,1,,,,,0,,,77,0
2775,note_on,,,,,2,0,1,,,,,0,,,77,80
2788,note_on,,,,,13,0,1,,,,,0,,,77,0
2790,note_on,,,,,2,0,1,,,,,0,,,75,80
2803,note_on,,,,,13,0,1,,,,,0,,,75,0
2805,note_on,,,,,2,0,1,,,,,0,,,74,80
2818,note_on,,,,,13,0,1,,,,,0,,,74,0
2820,note_on,,,,,2,0,1,,,,,0,,,75,80
2833,note_on,,,,,73,0,2,,,,,1,,,72,0
2835,note_on,,,,,2,0,2,,,,,1,,,60,80
2848,note_on,,,,,13,0,2,,,,,1,,,60,0
2850,note_on,,,,,2,0,2,,,,,1,,,62,80
2863,note_on,,,,,13,0,2,,,,,1,,,62,0
2865,note_on,,,,,0,0,3,,,,,2,,,48,0
2865,note_on,,,,,2,0,2,,,,,1,,,63,80
2865,note_on,,,,,105,0,3,,,,,2,,,48,0
2865,note_on,,,,,105,0,4,,,,,3,,,48,0
2865,note_on,,,,,0,0,4,,,,,3,,,48,0
2878,note_on,,,,,13,0,2,,,,,1,,,63,0
2880,note_on,,,,,0,0,4,,,,,3,,,47,80
2880,note_on,,,,,2,0,2,,,,,1,,,65,80
2880,note_on,,,,,15,0,3,,,,,2,,,47,80
2880,note_on,,,,,0,0,3,,,,,2,,,47,80
2880,note_on,,,,,15,0,4,,,,,3,,,47,80
2893,note_on,,,,,73,0,1,,,,,0,,,75,0
2895,note_on,,,,,2,0,1,,,,,0,,,75,80
2908,note_on,,,,,13,0,1,,,,,0,,,75,0
2910,note_on,,,,,2,0,1,,,,,0,,,74,80
2923,note_on,,,,,13,0,1,,,,,0,,,74,0
2925,note_on,,,,,2,0,1,,,,,0,,,72,80
2938,note_on,,,,,13,0,1,,,,,0,,,72,0
2940,note_on,,,,,2,0,1,,,,,0,,,74,80
2953,note_on,,,,,73,0,2,,,,,1,,,65,0
2955,note_on,,,,,2,0,2,,,,,1,,,65,80
2968,note_on,,,,,13,0,2,,,,,1,,,65,0
2970,note_on,,,,,2,0,2,,,,,1,,,63,80
2983,note_on,,,,,13,0,2,,,,,1,,,63,0
2985,note_on,,,,,105,0,3,,,,,2,,,47,0
2985,note_on,,,,,0,0,3,,,,,2,,,47,0
2985,note_on,,,,,2,0,2,,,,,1,,,62,80
2985,note_on,,,,,105,0,4,,,,,3,,,47,0
2985,note_on,,,,,0,0,4,,,,,3,,,47,0
2998,note_on,,,,,13,0,2,,,,,1,,,62,0
3000,note_on,,,,,0,0,4,,,,,3,,,48,80
3000,note_on,,,,,15,0,4,,,,,3,,,48,80
3000,note_on,,,,,15,0,3,,,,,2,,,48,80
3000,note_on,,,,,2,0,2,,,,,1,,,63,80
3000,note_on,,,,,0,0,3,,,,,2,,,48,80
3013,note_on,,,,,73,0,1,,,,,0,,,74,0
3015,note_on,,,,,2,0,1,,,,,0,,,67,80
3028,note_on,,,,,13,0,1,,,,,0,,,67,0
3030,note_on,,,,,2,0,1,,,,,0,,,69,80
3043,note_on,,,,,13,0,1,,,,,0,,,69,0
3045,note_on,,,,,2,0,1,,,,,0,,,71,80
3058,note_on,,,,,13,0,1,,,,,0,,,71,0
3060,note_on,,,,,2,0,1,,,,,0,,,72,80
3078,note_on,,,,,78,0,2,,,,,1,,,63,0
3090,note_on,,,,,12,0,2,,,,,1,,,63,80
3105,note_on,,,,,105,0,3,,,,,2,,,48,0
3105,note_on,,,,,0,0,3,,,,,2,,,48,0
3105,note_on,,,,,105,0,4,,,,,3,,,48,0
3105,note_on,,,,,0,0,4,,,,,3,,,48,0
3116,note_on,,,,,26,0,2,,,,,1,,,63,0
3120,note_on,,,,,15,0,4,,,,,3,,,48,80
3120,note_on,,,,,15,0,3,,,,,2,,,48,80
3120,note_on,,,,,0,0,4,,,,,3,,,48,80
3120,note_on,,,,,4,0,2,,,,,1,,,53,80
3120,note_on,,,,,0,0,3,,,,,2,,,48,80
3146,note_on,,,,,86,0,1,,,,,0,,,72,0
3150,note_on,,,,,4,0,1,,,,,0,,,74,80
3163,note_on,,,,,13,0,1,,,,,0,,,74,0
3165,note_on,,,,,2,0,1,,,,,0,,,72,80
3178,note_on,,,,,13,0,1,,,,,0,,,72,0
3180,note_on,,,,,2,0,1,,,,,0,,,71,80
3193,note_on,,,,,13,0,1,,,,,0,,,71,0
3195,note_on,,,,,2,0,1,,,,,0,,,72,80
3198,note_on,,,,,78,0,2,,,,,1,,,53,0
3208,note_on,,,,,13,0,1,,,,,0,,,72,0
3210,note_on,,,,,12,0,2,,,,,1,,,62,80
3210,note_on,,,,,2,0,1,,,,,0,,,69,80
3223,note_on,,,,,13,0,1,,,,,0,,,69,0
3225,note_on,,,,,105,0,4,,,,,3,,,48,0
3225,note_on,,,,,0,0,4,,,,,3,,,48,0
3225,note_on,,,,,0,0,3,,,,,2,,,48,0
3225,note_on,,,,,105,0,3,,,,,2,,,48,0
3225,note_on,,,,,2,0,1,,,,,0,,,71,80
3236,note_on,,,,,26,0,2,,,,,1,,,62,0
3238,note_on,,,,,13,0,1,,,,,0,,,71,0
3240,note_on,,,,,4,0,2,,,,,1,,,51,80
3240,note_on,,,,,15,0,4,,,,,3,,,48,80
3240,note_on,,,,,2,0,1,,,,,0,,,72,80
3240,note_on,,,,,0,0,4,,,,,3,,,48,80
3240,note_on,,,,,0,0,3,,,,,2,,,48,80
3240,note_on,,,,,15,0,3,,,,,2,,,48,80
3253,note_on,,,,,13,0,2,,,,,1,,,51,0
3255,note_on,,,,,2,0,2,,,,,1,,,55,80
3268,note_on,,,,,13,0,2,,,,,1,,,55,0
3270,note_on,,,,,2,0,2,,,,,1,,,57,80
3283,note_on,,,,,13,0,2,,,,,1,,,57,0
3285,note_on,,,,,2,0,2,,,,,1,,,59,80
3298,note_on,,,,,13,0,2,,,,,1,,,59,0
3300,note_on,,,,,2,0,2,,,,,1,,,60,80
3318,note_on,,,,,78,0,1,,,,,0,,,72,0
3330,note_on,,,,,12,0,1,,,,,0,,,75,80
3345,note_on,,,,,0,0,4,,,,,3,,,48,0
3345,note_on,,,,,105,0,4,,,,,3,,,48,0
3345,note_on,,,,,105,0,3,,,,,2,,,48,0
3345,note_on,,,,,0,0,3,,,,,2,,,48,0
3356,note_on,,,,,26,0,1,,,,,0,,,75,0
3360,note_on,,,,,4,0,1,,,,,0,,,65,80
3360,note_on,,,,,15,0,3,,,,,2,,,50,80
3360,note_on,,,,,15,0,4,,,,,3,,,50,80
3360,note_on,,,,,0,0,4,,,,,3,,,50,80
3360,note_on,,,,,0,0,3,,,,,2,,,50,80
3386,note_on,,,,,86,0,2,,,,,1,,,60,0
3390,note_on,,,,,4,0,2,,,,,1,,,62,80
3403,note_on,,,,,13,0,2,,,,,1,,,62,0
3405,note_on,,,,,2,0,2,,,,,1,,,60,80
3418,note_on,,,,,13,0,2,,,,,1,,,60,0
3420,note_on,,,,,2,0,2,,,,,1,,,59,80
3433,note_on,,,,,13,0,2,,,,,1,,,59,0
3435,note_on,,,,,2,0,2,,,,,1,,,60,80
3438,note_on,,,,,78,0,1,,,,,0,,,65,0
3448,note_on,,,,,13,0,2,,,,,1,,,60,0
3450,note_on,,,,,2,0,2,,,,,1,,,57,80
3450,note_on,,,,,12,0,1,,,,,0,,,74,80
3463,note_on,,,,,13,0,2,,,,,1,,,57,0
3465,note_on,,,,,105,0,3,,,,,2,,,50,0
3465,note_on,,,,,105,0,4,,,,,3,,,50,0
3465,note_on,,,,,0,0,4,,,,,3,,,50,0
3465,note_on,,,,,0,0,3,,,,,2,,,50,0
3465,note_on,,,,,2,0,2,,,,,1,,,59,80
3476,note_on,,,,,26,0,1,,,,,0,,,74,0
3478,note_on,,,,,13,0,2,,,,,1,,,59,0
3480,note_on,,,,,15,0,3,,,,,2,,,51,80
3480,note_on,,,,,0,0,3,,,,,2,,,51,80
3480,note_on,,,,,4,0,1,,,,,0,,,63,80
3480,note_on,,,,,15,0,4,,,,,3,,,51,80
3480,note_on,,,,,2,0,2,,,,,1,,,60,80
3480,note_on,,,,,0,0,4,,,,,3,,,51,80
3493,note_on,,,,,13,0,1,,,,,0,,,63,0
3495,note_on,,,,,2,0,1,,,,,0,,,67,80
3508,note_on,,,,,13,0,1,,,,,0,,,67,0
3510,note_on,,,,,2,0,1,,,,,0,,,69,80
3523,note_on,,,,,13,0,1,,,,,0,,,69,0
3525,note_on,,,,,2,0,1,,,,,0,,,71,80
3538,note_on,,,,,13,0,1,,,,,0,,,71,0
3540,note_on,,,,,2,0,1,,,,,0,,,72,80
3553,note_on,,,,,73,0,2,,,,,1,,,60,0
3555,note_on,,,,,2,0,2,,,,,1,,,63,80
3568,note_on,,,,,13,0,2,,,,,1,,,63,0
3570,note_on,,,,,2,0,2,,,,,1,,,62,80
3583,note_on,,,,,13,0,2,,,,,1,,,62,0
3585,note_on,,,,,105,0,3,,,,,2,,,51,0
3585,note_on,,,,,0,0,3,,,,,2,,,51,0
3585,note_on,,,,,0,0,4,,,,,3,,,51,0
3585,note_on,,,,,105,0,4,,,,,3,,,51,0
3585,note_on,,,,,2,0,2,,,,,1,,,63,80
3598,note_on,,,,,13,0,2,,,,,1,,,63,0
3600,note_on,,,,,0,0,4,,,,,3,,,51,80
3600,note_on,,,,,15,0,4,,,,,3,,,51,80
3600,note_on,,,,,2,0,2,,,,,1,,,55,80
3600,note_on,,,,,0,0,3,,,,,2,,,51,80
3600,note_on,,,,,15,0,3,,,,,2,,,51,80
3613,note_on,,,,,73,0,1,,,,,0,,,72,0
3615,note_on,,,,,2,0,1,,,,,0,,,71,80
3628,note_on,,,,,13,0,1,,,,,0,,,71,0
3630,note_on,,,,,2,0,1,,,,,0,,,72,80
3643,note_on,,,,,13,0,1,,,,,0,,,72,0
3645,note_on,,,,,2,0,1,,,,,0,,,74,80
3658,note_on,,,,,13,0,1,,,,,0,,,74,0
3660,note_on,,,,,2,0,1,,,,,0,,,75,80
3673,note_on,,,,,73,0,2,,,,,1,,,55,0
3675,note_on,,,,,2,0,2,,,,,1,,,60,80
3688,note_on,,,,,13,0,2,,,,,1,,,60,0
3690,note_on,,,,,2,0,2,,,,,1,,,59,80
3703,note_on,,,,,13,0,2,,,,,1,,,59,0
3705,note_on,,,,,105,0,3,,,,,2,,,51,0
3705,note_on,,,,,0,0,3,,,,,2,,,51,0
3705,note_on,,,,,2,0,2,,,,,1,,,60,80
3705,note_on,,,,,0,0,4,,,,,3,,,51,0
3705,note_on,,,,,105,0,4,,,,,3,,,51,0
3718,note_on,,,,,13,0,2,,,,,1,,,60,0
3720,note_on,,,,,15,0,3,,,,,2,,,50,80
3720,note_on,,,,,15,0,4,,,,,3,,,50,80
3720,note_on,,,,,2,0,2,,,,,1,,,53,80
3720,note_on,,,,,0,0,3,,,,,2,,,50,80
3720,note_on,,,,,0,0,4,,,,,3,,,50,80
3733,note_on,,,,,73,0,1,,,,,0,,,75,0
3735,note_on,,,,,2,0,1,,,,,0,,,75,80
3748,note_on,,,,,13,0,1,,,,,0,,,75,0
3750,note_on,,,,,2,0,1,,,,,0,,,74,80
3763,note_on,,,,,13,0,1,,,,,0,,,74,0
3765,note_on,,,,,2,0,1,,,,,0,,,72,80
3778,note_on,,,,,13,0,1,,,,,0,,,72,0
3780,note_on,,,,,2,0,1,,,,,0,,,71,80
3793,note_on,,,,,13,0,1,,,,,0,,,71,0
3795,note_on,,,,,2,0,1,,,,,0,,,72,80
3808,note_on,,,,,13,0,1,,,,,0,,,72,0
3810,note_on,,,,,2,0,1,,,,,0,,,69,80
3823,note_on,,,,,13,0,1,,,,,0,,,69,0
3825,note_on,,,,,105,0,3,,,,,2,,,50,0
3825,note_on,,,,,2,0,1,,,,,0,,,71,80
3825,note_on,,,,,105,0,4,,,,,3,,,50,0
3825,note_on,,,,,0,0,4,,,,,3,,,50,0
3825,note_on,,,,,0,0,3,,,,,2,,,50,0
3838,note_on,,,,,13,0,1,,,,,0,,,71,0
3840,note_on,,,,,15,0,4,,,,,3,,,48,80
3840,note_on,,,,,0,0,4,,,,,3,,,48,80
3840,note_on,,,,,0,0,3,,,,,2,,,48,80
3840,note_on,,,,,2,0,1,,,,,0,,,72,80
3840,note_on,,,,,15,0,3,,,,,2,,,48,80
3853,note_on,,,,,133,0,2,,,,,1,,,53,0
3855,note_on,,,,,2,0,2,,,,,1,,,56,80
3868,note_on,,,,,13,0,2,,,,,1,,,56,0
3870,note_on,,,,,2,0,2,,,,,1,,,55,80
3883,note_on,,,,,13,0,2,,,,,1,,,55,0
3885,note_on,,,,,2,0,2,,,,,1,,,53,80
3898,note_on,,,,,13,0,2,,,,,1,,,53,0
3900,note_on,,,,,2,0,2,,,,,1,,,51,80
3913,note_on,,,,,13,0,2,,,,,1,,,51,0
3915,note_on,,,,,2,0,2,,,,,1,,,53,80
3928,note_on,,,,,13,0,2,,,,,1,,,53,0
3930,note_on,,,,,2,0,2,,,,,1,,,50,80
3943,note_on,,,,,13,0,2,,,,,1,,,50,0
3945,note_on,,,,,105,0,4,,,,,3,,,48,0
3945,note_on,,,,,0,0,4,,,,,3,,,48,0
3945,note_on,,,,,105,0,3,,,,,2,,,48,0
3945,note_on,,,,,0,0,3,,,,,2,,,48,0
3945,note_on,,,,,2,0,2,,,,,1,,,51,80
3958,note_on,,,,,13,0,2,,,,,1,,,51,0
3960,note_on,,,,,2,0,2,,,,,1,,,53,80
3960,note_on,,,,,0,0,4,,,,,3,,,50,80
3960,note_on,,,,,15,0,4,,,,,3,,,50,80
3960,note_on,,,,,0,0,3,,,,,2,,,50,80
3960,note_on,,,,,15,0,3,,,,,2,,,50,80
3973,note_on,,,,,13,0,2,,,,,1,,,53,0
3975,note_on,,,,,2,0,2,,,,,1,,,51,80
3988,note_on,,,,,13,0,2,,,,,1,,,51,0
3990,note_on,,,,,2,0,2,,,,,1,,,53,80
4003,note_on,,,,,13,0,2,,,,,1,,,53,0
4005,note_on,,,,,2,0,2,,,,,1,,,55,80
4018,note_on,,,,,13,0,2,,,,,1,,,55,0
4020,note_on,,,,,2,0,2,,,,,1,,,56,80
4033,note_on,,,,,193,0,1,,,,,0,,,72,0
4035,note_on,,,,,2,0,1,,,,,0,,,80,80
4048,note_on,,,,,13,0,1,,,,,0,,,80,0
4050,note_on,,,,,2,0,1,,,,,0,,,79,80
4063,note_on,,,,,13,0,1,,,,,0,,,79,0
4065,note_on,,,,,2,0,1,,,,,0,,,80,80
4078,note_on,,,,,13,0,1,,,,,0,,,80,0
4080,note_on,,,,,2,0,1,,,,,0,,,71,80
4093,note_on,,,,,73,0,2,,,,,1,,,56,0
4095,note_on,,,,,2,0,2,,,,,1,,,53,80
4108,note_on,,,,,13,0,2,,,,,1,,,53,0
4110,note_on,,,,,2,0,2,,,,,1,,,55,80
4123,note_on,,,,,13,0,2,,,,,1,,,55,0
4125,note_on,,,,,2,0,2,,,,,1,,,56,80
4138,note_on,,,,,13,0,2,,,,,1,,,56,0
4140,note_on,,,,,2,0,2,,,,,1,,,50,80
4153,note_on,,,,,13,0,2,,,,,1,,,50,0
4153,note_on,,,,,73,0,1,,,,,0,,,71,0
4155,note_on,,,,,2,0,2,,,,,1,,,53,80
4155,note_on,,,,,2,0,1,,,,,0,,,74,80
4168,note_on,,,,,13,0,2,,,,,1,,,53,0
4168,note_on,,,,,13,0,1,,,,,0,,,74,0
4170,note_on,,,,,2,0,1,,,,,0,,,72,80
4170,note_on,,,,,2,0,2,,,,,1,,,51,80
4183,note_on,,,,,13,0,1,,,,,0,,,72,0
4183,note_on,,,,,13,0,2,,,,,1,,,51,0
4185,note_on,,,,,0,0,3,,,,,2,,,50,0
4185,note_on,,,,,225,0,3,,,,,2,,,50,0
4185,note_on,,,,,0,0,4,,,,,3,,,50,0
4185,note_on,,,,,225,0,4,,,,,3,,,50,0
4185,note_on,,,,,2,0,2,,,,,1,,,50,80
4185,note_on,,,,,2,0,1,,,,,0,,,71,80
4198,note_on,,,,,13,0,1,,,,,0,,,71,0
4198,note_on,,,,,13,0,2,,,,,1,,,50,0
4200,note_on,,,,,0,0,3,,,,,2,,,48,80
4200,note_on,,,,,15,0,3,,,,,2,,,48,80
4200,note_on,,,,,2,0,2,,,,,1,,,51,80
4200,note_on,,,,,2,0,1,,,,,0,,,72,80
4200,note_on,,,,,0,0,4,,,,,3,,,48,80
4200,note_on,,,,,15,0,4,,,,,3,,,48,80
4213,note_on,,,,,13,0,1,,,,,0,,,72,0
4215,note_on,,,,,2,0,1,,,,,0,,,71,80
4228,note_on,,,,,13,0,1,,,,,0,,,71,0
4230,note_on,,,,,2,0,1,,,,,0,,,72,80
4243,note_on,,,,,13,0,1,,,,,0,,,72,0
4245,note_on,,,,,2,0,1,,,,,0,,,74,80
4258,note_on,,,,,13,0,1,,,,,0,,,74,0
4260,note_on,,,,,2,0,1,,,,,0,,,75,80
4278,note_on,,,,,78,0,2,,,,,1,,,51,0
4290,note_on,,,,,12,0,2,,,,,1,,,60,80
4316,note_on,,,,,26,0,2,,,,,1,,,60,0
4320,note_on,,,,,4,0,2,,,,,1,,,54,80
4333,note_on,,,,,73,0,1,,,,,0,,,75,0
4335,note_on,,,,,2,0,1,,,,,0,,,77,80
4348,note_on,,,,,13,0,1,,,,,0,,,77,0
4350,note_on,,,,,2,0,1,,,,,0,,,75,80
4363,note_on,,,,,13,0,1,,,,,0,,,75,0
4365,note_on,,,,,2,0,1,,,,,0,,,74,80
4378,note_on,,,,,13,0,1,,,,,0,,,74,0
4380,note_on,,,,,2,0,1,,,,,0,,,72,80
4393,note_on,,,,,13,0,1,,,,,0,,,72,0
4395,note_on,,,,,2,0,1,,,,,0,,,70,80
4398,note_on,,,,,78,0,2,,,,,1,,,54,0
4408,note_on,,,,,13,0,1,,,,,0,,,70,0
4410,note_on,,,,,2,0,1,,,,,0,,,72,80
4410,note_on,,,,,12,0,2,,,,,1,,,57,80
4423,note_on,,,,,13,0,1,,,,,0,,,72,0
4425,note_on,,,,,0,0,3,,,,,2,,,48,0
4425,note_on,,,,,225,0,4,,,,,3,,,48,0
4425,note_on,,,,,0,0,4,,,,,3,,,48,0
4425,note_on,,,,,2,0,1,,,,,0,,,69,80
4425,note_on,,,,,225,0,3,,,,,2,,,48,0
4436,note_on,,,,,26,0,2,,,,,1,,,57,0
4438,note_on,,,,,13,0,1,,,,,0,,,69,0
4440,note_on,,,,,4,0,2,,,,,1,,,50,80
4440,note_on,,,,,2,0,1,,,,,0,,,70,80
4440,note_on,,,,,15,0,3,,,,,2,,,43,80
4440,note_on,,,,,0,0,3,,,,,2,,,43,80
4440,note_on,,,,,15,0,4,,,,,3,,,43,80
4440,note_on,,,,,0,0,4,,,,,3,,,43,80
4453,note_on,,,,,13,0,1,,,,,0,,,70,0
4455,note_on,,,,,2,0,1,,,,,0,,,74,87
4468,note_on,,,,,13,0,1,,,,,0,,,74,0
4470,note_on,,,,,2,0,1,,,,,0,,,76,96
4483,note_on,,,,,13,0,1,,,,,0,,,76,0
4485,note_on,,,,,2,0,1,,,,,0,,,78,98
4498,note_on,,,,,13,0,1,,,,,0,,,78,0
4500,note_on,,,,,2,0,1,,,,,0,,,79,102
4518,note_on,,,,,78,0,2,,,,,1,,,50,0
4530,note_on,,,,,12,0,2,,,,,1,,,70,92
4545,note_on,,,,,105,0,3,,,,,2,,,43,0
4545,note_on,,,,,0,0,4,,,,,3,,,43,0
4545,note_on,,,,,105,0,4,,,,,3,,,43,0
4545,note_on,,,,,0,0,3,,,,,2,,,43,0
4556,note_on,,,,,26,0,2,,,,,1,,,70,0
4560,note_on,,,,,15,0,3,,,,,2,,,45,80
4560,note_on,,,,,4,0,2,,,,,1,,,60,92
4560,note_on,,,,,0,0,3,,,,,2,,,45,80
4560,note_on,,,,,0,0,4,,,,,3,,,45,80
4560,note_on,,,,,15,0,4,,,,,3,,,45,80
4586,note_on,,,,,86,0,1,,,,,0,,,79,0
4590,note_on,,,,,4,0,1,,,,,0,,,81,101
4603,note_on,,,,,13,0,1,,,,,0,,,81,0
4605,note_on,,,,,2,0,1,,,,,0,,,79,101
4618,note_on,,,,,13,0,1,,,,,0,,,79,0
4620,note_on,,,,,2,0,1,,,,,0,,,78,100
4633,note_on,,,,,13,0,1,,,,,0,,,78,0
4635,note_on,,,,,2,0,1,,,,,0,,,79,98
4638,note_on,,,,,78,0,2,,,,,1,,,60,0
4648,note_on,,,,,13,0,1,,,,,0,,,79,0
4650,note_on,,,,,12,0,2,,,,,1,,,69,92
4650,note_on,,,,,2,0,1,,,,,0,,,76,97
4663,note_on,,,,,13,0,1,,,,,0,,,76,0
4665,note_on,,,,,105,0,4,,,,,3,,,45,0
4665,note_on,,,,,0,0,4,,,,,3,,,45,0
4665,note_on,,,,,0,0,3,,,,,2,,,45,0
4665,note_on,,,,,2,0,1,,,,,0,,,78,98
4665,note_on,,,,,105,0,3,,,,,2,,,45,0
4676,note_on,,,,,26,0,2,,,,,1,,,69,0
4678,note_on,,,,,13,0,1,,,,,0,,,78,0
4680,note_on,,,,,15,0,4,,,,,3,,,46,80
4680,note_on,,,,,4,0,2,,,,,1,,,58,92
4680,note_on,,,,,2,0,1,,,,,0,,,79,100
4680,note_on,,,,,0,0,3,,,,,2,,,46,80
4680,note_on,,,,,0,0,4,,,,,3,,,46,80
4680,note_on,,,,,15,0,3,,,,,2,,,46,80
4693,note_on,,,,,13,0,2,,,,,1,,,58,0
4695,note_on,,,,,2,0,2,,,,,1,,,62,92
4708,note_on,,,,,13,0,2,,,,,1,,,62,0
4710,note_on,,,,,2,0,2,,,,,1,,,64,91
4723,note_on,,,,,13,0,2,,,,,1,,,64,0
4725,note_on,,,,,2,0,2,,,,,1,,,66,91
4738,note_on,,,,,13,0,2,,,,,1,,,66,0
4740,note_on,,,,,2,0,2,,,,,1,,,67,91
4758,note_on,,,,,78,0,1,,,,,0,,,79,0
4770,note_on,,,,,12,0,1,,,,,0,,,82,96
4785,note_on,,,,,105,0,3,,,,,2,,,46,0
4785,note_on,,,,,0,0,3,,,,,2,,,46,0
4785,note_on,,,,,0,0,4,,,,,3,,,46,0
4785,note_on,,,,,105,0,4,,,,,3,,,46,0
4796,note_on,,,,,26,0,1,,,,,0,,,82,0
4800,note_on,,,,,15,0,3,,,,,2,,,46,80
4800,note_on,,,,,0,0,3,,,,,2,,,46,80
4800,note_on,,,,,15,0,4,,,,,3,,,46,80
4800,note_on,,,,,0,0,4,,,,,3,,,46,80
4800,note_on,,,,,4,0,1,,,,,0,,,74,95
4813,note_on,,,,,73,0,2,,,,,1,,,67,0
4815,note_on,,,,,2,0,2,,,,,1,,,67,91
4828,note_on,,,,,13,0,2,,,,,1,,,67,0
4830,note_on,,,,,2,0,2,,,,,1,,,68,91
4843,note_on,,,,,13,0,2,,,,,1,,,68,0
4845,note_on,,,,,2,0,2,,,,,1,,,67,91
4858,note_on,,,,,13,0,2,,,,,1,,,67,0
4860,note_on,,,,,2,0,2,,,,,1,,,65,91
4873,note_on,,,,,13,0,2,,,,,1,,,65,0
4875,note_on,,,,,2,0,2,,,,,1,,,63,91
4878,note_on,,,,,78,0,1,,,,,0,,,74,0
4888,note_on,,,,,13,0,2,,,,,1,,,63,0
4890,note_on,,,,,2,0,2,,,,,1,,,65,91
4890,note_on,,,,,12,0,1,,,,,0,,,79,94
4903,note_on,,,,,13,0,2,,,,,1,,,65,0
4905,note_on,,,,,2,0,2,,,,,1,,,62,91
4905,note_on,,,,,105,0,4,,,,,3,,,46,0
4905,note_on,,,,,105,0,3,,,,,2,,,46,0
4905,note_on,,,,,0,0,3,,,,,2,,,46,0
4905,note_on,,,,,0,0,4,,,,,3,,,46,0
4916,note_on,,,,,26,0,1,,,,,0,,,79,0
4918,note_on,,,,,13,0,2,,,,,1,,,62,0
4920,note_on,,,,,0,0,3,,,,,2,,,48,80
4920,note_on,,,,,2,0,2,,,,,1,,,63,91
4920,note_on,,,,,15,0,3,,,,,2,,,48,80
4920,note_on,,,,,0,0,4,,,,,3,,,48,80
4920,note_on,,,,,15,0,4,,,,,3,,,48,80
4920,note_on,,,,,4,0,1,,,,,0,,,67,93
4933,note_on,,,,,13,0,1,,,,,0,,,67,0
4935,note_on,,,,,2,0,1,,,,,0,,,71,93
4948,note_on,,,,,13,0,1,,,,,0,,,71,0
4950,note_on,,,,,2,0,1,,,,,0,,,72,93
4963,note_on,,,,,13,0,1,,,,,0,,,72,0
4965,note_on,,,,,2,0,1,,,,,0,,,74,92
4978,note_on,,,,,13,0,1,,,,,0,,,74,0
4980,note_on,,,,,2,0,1,,,,,0,,,75,91
4993,note_on,,,,,73,0,2,,,,,1,,,63,0
4995,note_on,,,,,2,0,2,,,,,1,,,67,91
5008,note_on,,,,,13,0,2,,,,,1,,,67,0
5010,note_on,,,,,2,0,2,,,,,1,,,65,89
5023,note_on,,,,,13,0,2,,,,,1,,,65,0
5025,note_on,,,,,105,0,4,,,,,3,,,48,0
5025,note_on,,,,,0,0,4,,,,,3,,,48,0
5025,note_on,,,,,0,0,3,,,,,2,,,48,0
5025,note_on,,,,,2,0,2,,,,,1,,,67,89
5025,note_on,,,,,105,0,3,,,,,2,,,48,0
5038,note_on,,,,,13,0,2,,,,,1,,,67,0
5040,note_on,,,,,2,0,2,,,,,1,,,60,89
5040,note_on,,,,,15,0,4,,,,,3,,,48,80
5040,note_on,,,,,0,0,4,,,,,3,,,48,80
5040,note_on,,,,,0,0,3,,,,,2,,,48,80
5040,note_on,,,,,15,0,3,,,,,2,,,48,80
5053,note_on,,,,,73,0,1,,,,,0,,,75,0
5055,note_on,,,,,2,0,1,,,,,0,,,74,92
5068,note_on,,,,,13,0,1,,,,,0,,,74,0
5070,note_on,,,,,2,0,1,,,,,0,,,76,93
5083,note_on,,,,,13,0,1,,,,,0,,,76,0
5085,note_on,,,,,2,0,1,,,,,0,,,78,91
5098,note_on,,,,,13,0,1,,,,,0,,,78,0
5100,note_on,,,,,2,0,1,,,,,0,,,79,89
5113,note_on,,,,,73,0,2,,,,,1,,,60,0
5115,note_on,,,,,2,0,2,,,,,1,,,63,86
5128,note_on,,,,,13,0,2,,,,,1,,,63,0
5130,note_on,,,,,2,0,2,,,,,1,,,62,85
5143,note_on,,,,,13,0,2,,,,,1,,,62,0
5145,note_on,,,,,105,0,3,,,,,2,,,48,0
5145,note_on,,,,,0,0,4,,,,,3,,,48,0
5145,note_on,,,,,105,0,4,,,,,3,,,48,0
5145,note_on,,,,,2,0,2,,,,,1,,,63,85
5145,note_on,,,,,0,0,3,,,,,2,,,48,0
5158,note_on,,,,,13,0,2,,,,,1,,,63,0
5160,note_on,,,,,2,0,2,,,,,1,,,57,85
5160,note_on,,,,,15,0,3,,,,,2,,,50,80
5160,note_on,,,,,0,0,3,,,,,2,,,50,80
5160,note_on,,,,,15,0,4,,,,,3,,,50,80
5160,note_on,,,,,0,0,4,,,,,3,,,50,80
5173,note_on,,,,,73,0,1,,,,,0,,,79,0
5175,note_on,,,,,2,0,1,,,,,0,,,78,89
5188,note_on,,,,,13,0,1,,,,,0,,,78,0
5190,note_on,,,,,2,0,1,,,,,0,,,79,88
5203,note_on,,,,,13,0,1,,,,,0,,,79,0
5205,note_on,,,,,2,0,1,,,,,0,,,81,87
5218,note_on,,,,,13,0,1,,,,,0,,,81,0
5220,note_on,,,,,2,0,1,,,,,0,,,72,87
5233,note_on,,,,,73,0,2,,,,,1,,,57,0
5235,note_on,,,,,2,0,2,,,,,1,,,60,84
5248,note_on,,,,,13,0,2,,,,,1,,,60,0
5250,note_on,,,,,2,0,2,,,,,1,,,58,83
5263,note_on,,,,,13,0,2,,,,,1,,,58,0
5265,note_on,,,,,105,0,3,,,,,2,,,50,0
5265,note_on,,,,,105,0,4,,,,,3,,,50,0
5265,note_on,,,,,2,0,2,,,,,1,,,60,83
5265,note_on,,,,,0,0,3,,,,,2,,,50,0
5265,note_on,,,,,0,0,4,,,,,3,,,50,0
5278,note_on,,,,,13,0,2,,,,,1,,,60,0
5280,note_on,,,,,0,0,3,,,,,2,,,50,80
5280,note_on,,,,,15,0,3,,,,,2,,,50,80
5280,note_on,,,,,15,0,4,,,,,3,,,50,80
5280,note_on,,,,,2,0,2,,,,,1,,,54,81
5280,note_on,,,,,0,0,4,,,,,3,,,50,80
5293,note_on,,,,,73,0,1,,,,,0,,,72,0
5295,note_on,,,,,2,0,1,,,,,0,,,69,85
5308,note_on,,,,,13,0,1,,,,,0,,,69,0
5310,note_on,,,,,2,0,1,,,,,0,,,70,84
5323,note_on,,,,,13,0,1,,,,,0,,,70,0
5325,note_on,,,,,2,0,1,,,,,0,,,72,84
5338,note_on,,,,,13,0,1,,,,,0,,,72,0
5340,note_on,,,,,2,0,1,,,,,0,,,66,82
5353,note_on,,,,,73,0,2,,,,,1,,,54,0
5355,note_on,,,,,2,0,2,,,,,1,,,57,80
5368,note_on,,,,,13,0,2,,,,,1,,,57,0
5370,note_on,,,,,2,0,2,,,,,1,,,55,80
5383,note_on,,,,,13,0,2,,,,,1,,,55,0
5385,note_on,,,,,105,0,4,,,,,3,,,50,0
5385,note_on,,,,,0,0,4,,,,,3,,,50,0
5385,note_on,,,,,2,0,2,,,,,1,,,57,80
5385,note_on,,,,,0,0,3,,,,,2,,,50,0
5385,note_on,,,,,105,0,3,,,,,2,,,50,0
5398,note_on,,,,,13,0,2,,,,,1,,,57,0
5400,note_on,,,,,2,0,2,,,,,1,,,50,80
5400,note_on,,,,,15,0,3,,,,,2,,,50,80
5400,note_on,,,,,0,0,3,,,,,2,,,50,80
5400,note_on,,,,,0,0,4,,,,,3,,,50,80
5400,note_on,,,,,15,0,4,,,,,3,,,50,80
5413,note_on,,,,,13,0,2,,,,,1,,,50,0
5415,note_on,,,,,2,0,2,,,,,1,,,54,80
5428,note_on,,,,,13,0,2,,,,,1,,,54,0
5430,note_on,,,,,2,0,2,,,,,1,,,55,80
5443,note_on,,,,,13,0,2,,,,,1,,,55,0
5445,note_on,,,,,2,0,2,,,,,1,,,57,80
5458,note_on,,,,,13,0,2,,,,,1,,,57,0
5460,note_on,,,,,2,0,2,,,,,1,,,58,80
5478,note_on,,,,,138,0,1,,,,,0,,,66,0
5490,note_on,,,,,12,0,1,,,,,0,,,82,80
5505,note_on,,,,,0,0,4,,,,,3,,,50,0
5505,note_on,,,,,105,0,4,,,,,3,,,50,0
5505,note_on,,,,,105,0,3,,,,,2,,,50,0
5505,note_on,,,,,0,0,3,,,,,2,,,50,0
5516,note_on,,,,,26,0,1,,,,,0,,,82,0
5520,note_on,,,,,4,0,1,,,,,0,,,72,80
5520,note_on,,,,,0,0,4,,,,,3,,,50,80
5520,note_on,,,,,15,0,4,,,,,3,,,50,80
5520,note_on,,,,,15,0,3,,,,,2,,,50,80
5520,note_on,,,,,0,0,3,,,,,2,,,50,80
5546,note_on,,,,,86,0,2,,,,,1,,,58,0
5550,note_on,,,,,4,0,2,,,,,1,,,57,80
5563,note_on,,,,,13,0,2,,,,,1,,,57,0
5565,note_on,,,,,2,0,2,,,,,1,,,55,80
5578,note_on,,,,,13,0,2,,,,,1,,,55,0
5580,note_on,,,,,2,0,2,,,,,1,,,54,80
5593,note_on,,,,,13,0,2,,,,,1,,,54,0
5595,note_on,,,,,2,0,2,,,,,1,,,55,80
5598,note_on,,,,,78,0,1,,,,,0,,,72,0
5608,note_on,,,,,13,0,2,,,,,1,,,55,0
5610,note_on,,,,,2,0,2,,,,,1,,,52,80
5610,note_on,,,,,12,0,1,,,,,0,,,81,80
5623,note_on,,,,,13,0,2,,,,,1,,,52,0
5625,note_on,,,,,2,0,2,,,,,1,,,54,80
5625,note_on,,,,,105,0,4,,,,,3,,,50,0
5625,note_on,,,,,105,0,3,,,,,2,,,50,0
5625,note_on,,,,,0,0,3,,,,,2,,,50,0
5625,note_on,,,,,0,0,4,,,,,3,,,50,0
5636,note_on,,,,,26,0,1,,,,,0,,,81,0
5638,note_on,,,,,13,0,2,,,,,1,,,54,0
5640,note_on,,,,,0,0,4,,,,,3,,,51,80
5640,note_on,,,,,4,0,1,,,,,0,,,70,80
5640,note_on,,,,,15,0,4,,,,,3,,,51,80
5640,note_on,,,,,2,0,2,,,,,1,,,55,80
5640,note_on,,,,,0,0,3,,,,,2,,,51,80
5640,note_on,,,,,15,0,3,,,,,2,,,51,80
5653,note_on,,,,,13,0,1,,,,,0,,,70,0
5655,note_on,,,,,2,0,1,,,,,0,,,67,80
5668,note_on,,,,,13,0,1,,,,,0,,,67,0
5670,note_on,,,,,2,0,1,,,,,0,,,69,80
5683,note_on,,,,,13,0,1,,,,,0,,,69,0
5685,note_on,,,,,2,0,1,,,,,0,,,70,80
5698,note_on,,,,,13,0,1,,,,,0,,,70,0
5700,note_on,,,,,2,0,1,,,,,0,,,72,80
5713,note_on,,,,,73,0,2,,,,,1,,,55,0
5715,note_on,,,,,2,0,2,,,,,1,,,67,80
5728,note_on,,,,,13,0,2,,,,,1,,,67,0
5730,note_on,,,,,2,0,2,,,,,1,,,66,80
5743,note_on,,,,,13,0,2,,,,,1,,,66,0
5745,note_on,,,,,0,0,4,,,,,3,,,51,0
5745,note_on,,,,,105,0,4,,,,,3,,,51,0
5745,note_on,,,,,0,0,3,,,,,2,,,51,0
5745,note_on,,,,,105,0,3,,,,,2,,,51,0
5745,note_on,,,,,2,0,2,,,,,1,,,67,80
5758,note_on,,,,,13,0,2,,,,,1,,,67,0
5760,note_on,,,,,2,0,2,,,,,1,,,55,80
5760,note_on,,,,,15,0,4,,,,,3,,,50,80
5760,note_on,,,,,0,0,4,,,,,3,,,50,80
5760,note_on,,,,,0,0,3,,,,,2,,,50,80
5760,note_on,,,,,15,0,3,,,,,2,,,50,80
5773,note_on,,,,,73,0,1,,,,,0,,,72,0
5775,note_on,,,,,2,0,1,,,,,0,,,66,80
5788,note_on,,,,,13,0,1,,,,,0,,,66,0
5790,note_on,,,,,2,0,1,,,,,0,,,67,80
5803,note_on,,,,,13,0,1,,,,,0,,,67,0
5805,note_on,,,,,2,0,1,,,,,0,,,69,80
5818,note_on,,,,,13,0,1,,,,,0,,,69,0
5820,note_on,,,,,2,0,1,,,,,0,,,70,80
5833,note_on,,,,,73,0,2,,,,,1,,,55,0
5835,note_on,,,,,2,0,2,,,,,1,,,67,80
5848,note_on,,,,,13,0,2,,,,,1,,,67,0
5850,note_on,,,,,2,0,2,,,,,1,,,66,80
5863,note_on,,,,,13,0,2,,,,,1,,,66,0
5865,note_on,,,,,2,0,2,,,,,1,,,67,80
5865,note_on,,,,,0,0,4,,,,,3,,,50,0
5865,note_on,,,,,105,0,4,,,,,3,,,50,0
5865,note_on,,,,,105,0,3,,,,,2,,,50,0
5865,note_on,,,,,0,0,3,,,,,2,,,50,0
5878,note_on,,,,,13,0,2,,,,,1,,,67,0
5880,note_on,,,,,0,0,4,,,,,3,,,48,80
5880,note_on,,,,,15,0,4,,,,,3,,,48,80
5880,note_on,,,,,2,0,2,,,,,1,,,55,80
5880,note_on,,,,,15,0,3,,,,,2,,,48,80
5880,note_on,,,,,0,0,3,,,,,2,,,48,80
5893,note_on,,,,,73,0,1,,,,,0,,,70,0
5895,note_on,,,,,2,0,1,,,,,0,,,70,80
5908,note_on,,,,,13,0,1,,,,,0,,,70,0
5910,note_on,,,,,2,0,1,,,,,0,,,72,80
5923,note_on,,,,,13,0,1,,,,,0,,,72,0
5925,note_on,,,,,2,0,1,,,,,0,,,74,80
5938,note_on,,,,,13,0,1,,,,,0,,,74,0
5940,note_on,,,,,2,0,1,,,,,0,,,75,80
5953,note_on,,,,,73,0,2,,,,,1,,,55,0
5955,note_on,,,,,2,0,2,,,,,1,,,67,80
5968,note_on,,,,,13,0,2,,,,,1,,,67,0
5970,note_on,,,,,2,0,2,,,,,1,,,66,80
5983,note_on,,,,,13,0,2,,,,,1,,,66,0
5985,note_on,,,,,105,0,3,,,,,2,,,48,0
5985,note_on,,,,,105,0,4,,,,,3,,,48,0
5985,note_on,,,,,0,0,4,,,,,3,,,48,0
5985,note_on,,,,,2,0,2,,,,,1,,,67,80
5985,note_on,,,,,0,0,3,,,,,2,,,48,0
5998,note_on,,,,,13,0,2,,,,,1,,,67,0
6000,note_on,,,,,15,0,3,,,,,2,,,46,80
6000,note_on,,,,,0,0,3,,,,,2,,,46,80
6000,note_on,,,,,15,0,4,,,,,3,,,46,80
6000,note_on,,,,,0,0,4,,,,,3,,,46,80
6000,note_on,,,,,2,0,2,,,,,1,,,55,80
6013,note_on,,,,,73,0,1,,,,,0,,,75,0
6015,note_on,,,,,2,0,1,,,,,0,,,69,80
6028,note_on,,,,,13,0,1,,,,,0,,,69,0
6030,note_on,,,,,2,0,1,,,,,0,,,70,80
6043,note_on,,,,,13,0,1,,,,,0,,,70,0
6045,note_on,,,,,2,0,1,,,,,0,,,72,80
6058,note_on,,,,,13,0,1,,,,,0,,,72,0
6060,note_on,,,,,2,0,1,,,,,0,,,74,80
6073,note_on,,,,,73,0,2,,,,,1,,,55,0
6075,note_on,,,,,2,0,2,,,,,1,,,67,80
6088,note_on,,,,,13,0,2,,,,,1,,,67,0
6090,note_on,,,,,2,0,2,,,,,1,,,66,80
6103,note_on,,,,,13,0,2,,,,,1,,,66,0
6105,note_on,,,,,0,0,3,,,,,2,,,46,0
6105,note_on,,,,,2,0,2,,,,,1,,,67,80
6105,note_on,,,,,105,0,4,,,,,3,,,46,0
6105,note_on,,,,,0,0,4,,,,,3,,,46,0
6105,note_on,,,,,105,0,3,,,,,2,,,46,0
6118,note_on,,,,,13,0,2,,,,,1,,,67,0
6120,note_on,,,,,2,0,2,,,,,1,,,55,80
6120,note_on,,,,,15,0,4,,,,,3,,,45,80
6120,note_on,,,,,15,0,3,,,,,2,,,45,80
6120,note_on,,,,,0,0,3,,,,,2,,,45,80
6120,note_on,,,,,0,0,4,,,,,3,,,45,80
6133,note_on,,,,,73,0,1,,,,,0,,,74,0
6135,note_on,,,,,2,0,1,,,,,0,,,67,80
6148,note_on,,,,,13,0,1,,,,,0,,,67,0
6150,note_on,,,,,2,0,1,,,,,0,,,69,80
6163,note_on,,,,,13,0,1,,,,,0,,,69,0
6165,note_on,,,,,2,0,1,,,,,0,,,70,80
6178,note_on,,,,,13,0,1,,,,,0,,,70,0
6180,note_on,,,,,2,0,1,,,,,0,,,72,80
6198,note_on,,,,,78,0,2,,,,,1,,,55,0
6210,note_on,,,,,12,0,2,,,,,1,,,63,80
6236,note_on,,,,,26,0,2,,,,,1,,,63,0
6240,note_on,,,,,4,0,2,,,,,1,,,54,80
6253,note_on,,,,,73,0,1,,,,,0,,,72,0
6255,note_on,,,,,2,0,1,,,,,0,,,74,80
6268,note_on,,,,,13,0,1,,,,,0,,,74,0
6270,note_on,,,,,2,0,1,,,,,0,,,75,80
6283,note_on,,,,,13,0,1,,,,,0,,,75,0
6285,note_on,,,,,2,0,1,,,,,0,,,74,80
6298,note_on,,,,,13,0,1,,,,,0,,,74,0
6300,note_on,,,,,2,0,1,,,,,0,,,72,80
6313,note_on,,,,,13,0,1,,,,,0,,,72,0
6315,note_on,,,,,2,0,1,,,,,0,,,71,80
6318,note_on,,,,,78,0,2,,,,,1,,,54,0
6328,note_on,,,,,13,0,1,,,,,0,,,71,0
6330,note_on,,,,,2,0,1,,,,,0,,,72,80
6330,note_on,,,,,12,0,2,,,,,1,,,57,80
6343,note_on,,,,,13,0,1,,,,,0,,,72,0
6345,note_on,,,,,0,0,3,,,,,2,,,45,0
6345,note_on,,,,,225,0,4,,,,,3,,,45,0
6345,note_on,,,,,2,0,1,,,,,0,,,69,80
6345,note_on,,,,,0,0,4,,,,,3,,,45,0
6345,note_on,,,,,225,0,3,,,,,2,,,45,0
6356,note_on,,,,,26,0,2,,,,,1,,,57,0
6358,note_on,,,,,13,0,1,,,,,0,,,69,0
6358,set_tempo,,,,,6358,1,0,,1276595,,,,,,,
6360,note_on,,,,,0,0,3,,,,,2,,,43,80
6360,note_on,,,,,15,0,3,,,,,2,,,43,80
6360,note_on,,,,,15,0,4,,,,,3,,,43,80
6360,note_on,,,,,4,0,2,,,,,1,,,50,80
6360,note_on,,,,,0,0,4,,,,,3,,,43,80
6360,note_on,,,,,2,0,1,,,,,0,,,71,80
6373,note_on,,,,,13,0,1,,,,,0,,,71,0
6375,note_on,,,,,2,0,1,,,,,0,,,74,100
6388,note_on,,,,,13,0,1,,,,,0,,,74,0
6390,note_on,,,,,2,0,1,,,,,0,,,75,100
6403,note_on,,,,,13,0,1,,,,,0,,,75,0
6405,note_on,,,,,2,0,1,,,,,0,,,77,100
6418,note_on,,,,,13,0,1,,,,,0,,,77,0
6420,note_on,,,,,2,0,1,,,,,0,,,79,100
6433,note_on,,,,,73,0,2,,,,,1,,,50,0
6435,note_on,,,,,2,0,2,,,,,1,,,59,90
6448,note_on,,,,,13,0,2,,,,,1,,,59,0
6450,note_on,,,,,2,0,2,,,,,1,,,60,92
6463,note_on,,,,,13,0,2,,,,,1,,,60,0
6465,note_on,,,,,2,0,2,,,,,1,,,62,91
6478,note_on,,,,,13,0,2,,,,,1,,,62,0
6480,note_on,,,,,2,0,2,,,,,1,,,63,91
6493,note_on,,,,,73,0,1,,,,,0,,,79,0
6495,note_on,,,,,2,0,1,,,,,0,,,75,101
6508,note_on,,,,,13,0,1,,,,,0,,,75,0
6510,note_on,,,,,2,0,1,,,,,0,,,74,101
6523,note_on,,,,,13,0,1,,,,,0,,,74,0
6525,note_on,,,,,2,0,1,,,,,0,,,72,101
6538,note_on,,,,,13,0,1,,,,,0,,,72,0
6540,note_on,,,,,2,0,1,,,,,0,,,77,101
6553,note_on,,,,,73,0,2,,,,,1,,,63,0
6555,note_on,,,,,2,0,2,,,,,1,,,60,91
6568,note_on,,,,,13,0,2,,,,,1,,,60,0
6570,note_on,,,,,2,0,2,,,,,1,,,59,91
6583,note_on,,,,,13,0,2,,,,,1,,,59,0
6585,note_on,,,,,2,0,2,,,,,1,,,57,91
6598,note_on,,,,,13,0,2,,,,,1,,,57,0
6600,note_on,,,,,2,0,2,,,,,1,,,62,91
6613,note_on,,,,,73,0,1,,,,,0,,,77,0
6615,note_on,,,,,2,0,1,,,,,0,,,71,100
6628,note_on,,,,,13,0,1,,,,,0,,,71,0
6630,note_on,,,,,2,0,1,,,,,0,,,72,100
6643,note_on,,,,,13,0,1,,,,,0,,,72,0
6645,note_on,,,,,2,0,1,,,,,0,,,74,100
6658,note_on,,,,,13,0,1,,,,,0,,,74,0
6660,note_on,,,,,2,0,1,,,,,0,,,75,100
6673,note_on,,,,,73,0,2,,,,,1,,,62,0
6675,note_on,,,,,2,0,2,,,,,1,,,55,92
6688,note_on,,,,,13,0,2,,,,,1,,,55,0
6690,note_on,,,,,2,0,2,,,,,1,,,57,91
6703,note_on,,,,,13,0,2,,,,,1,,,57,0
6705,note_on,,,,,2,0,2,,,,,1,,,59,91
6718,note_on,,,,,13,0,2,,,,,1,,,59,0
6720,note_on,,,,,2,0,2,,,,,1,,,60,91
6733,note_on,,,,,73,0,1,,,,,0,,,75,0
6735,note_on,,,,,2,0,1,,,,,0,,,68,101
6748,note_on,,,,,13,0,1,,,,,0,,,68,0
6750,note_on,,,,,2,0,1,,,,,0,,,67,100
6763,note_on,,,,,13,0,1,,,,,0,,,67,0
6765,note_on,,,,,2,0,1,,,,,0,,,65,99
6778,note_on,,,,,13,0,1,,,,,0,,,65,0
6780,note_on,,,,,2,0,1,,,,,0,,,74,99
6793,note_on,,,,,73,0,2,,,,,1,,,60,0
6795,note_on,,,,,2,0,2,,,,,1,,,53,91
6808,note_on,,,,,13,0,2,,,,,1,,,53,0
6810,note_on,,,,,2,0,2,,,,,1,,,51,91
6823,note_on,,,,,13,0,2,,,,,1,,,51,0
6825,note_on,,,,,2,0,2,,,,,1,,,50,90
6838,note_on,,,,,13,0,2,,,,,1,,,50,0
6840,note_on,,,,,2,0,2,,,,,1,,,59,91
6853,note_on,,,,,73,0,1,,,,,0,,,74,0
6855,note_on,,,,,2,0,1,,,,,0,,,72,99
6868,note_on,,,,,13,0,1,,,,,0,,,72,0
6870,note_on,,,,,2,0,1,,,,,0,,,71,98
6883,note_on,,,,,13,0,1,,,,,0,,,71,0
6885,note_on,,,,,2,0,1,,,,,0,,,69,98
6898,note_on,,,,,13,0,1,,,,,0,,,69,0
6900,note_on,,,,,2,0,1,,,,,0,,,67,98
6913,note_on,,,,,13,0,1,,,,,0,,,67,0
6915,note_on,,,,,2,0,1,,,,,0,,,65,99
6928,note_on,,,,,13,0,1,,,,,0,,,65,0
6930,note_on,,,,,2,0,1,,,,,0,,,63,99
6943,note_on,,,,,13,0,1,,,,,0,,,63,0
6945,note_on,,,,,2,0,1,,,,,0,,,62,99
6958,note_on,,,,,13,0,1,,,,,0,,,62,0
6960,note_on,,,,,2,0,1,,,,,0,,,63,99
6973,note_on,,,,,133,0,2,,,,,1,,,59,0
6975,note_on,,,,,2,0,2,,,,,1,,,55,91
6988,note_on,,,,,13,0,2,,,,,1,,,55,0
6990,note_on,,,,,2,0,2,,,,,1,,,57,91
7003,note_on,,,,,13,0,2,,,,,1,,,57,0
7005,note_on,,,,,2,0,2,,,,,1,,,59,91
7012,note_on,,,,,52,0,1,,,,,0,,,63,0
7018,note_on,,,,,13,0,2,,,,,1,,,59,0
7020,note_on,,,,,8,0,1,,,,,0,,,75,100
7020,note_on,,,,,2,0,2,,,,,1,,,60,91
7033,note_on,,,,,13,0,2,,,,,1,,,60,0
7035,note_on,,,,,2,0,2,,,,,1,,,62,91
7048,note_on,,,,,13,0,2,,,,,1,,,62,0
7050,note_on,,,,,2,0,2,,,,,1,,,63,91
7063,note_on,,,,,13,0,2,,,,,1,,,63,0
7065,note_on,,,,,2,0,2,,,,,1,,,65,91
7078,note_on,,,,,13,0,2,,,,,1,,,65,0
7080,note_on,,,,,2,0,2,,,,,1,,,67,91
7093,note_on,,,,,13,0,2,,,,,1,,,67,0
7093,note_on,,,,,73,0,1,,,,,0,,,75,0
7095,note_on,,,,,2,0,1,,,,,0,,,72,101
7095,note_on,,,,,2,0,2,,,,,1,,,63,91
7108,note_on,,,,,13,0,1,,,,,0,,,72,0
7108,note_on,,,,,13,0,2,,,,,1,,,63,0
7110,note_on,,,,,2,0,1,,,,,0,,,71,100
7110,note_on,,,,,2,0,2,,,,,1,,,62,91
7123,note_on,,,,,13,0,1,,,,,0,,,71,0
7123,note_on,,,,,13,0,2,,,,,1,,,62,0
7125,note_on,,,,,2,0,1,,,,,0,,,69,100
7125,note_on,,,,,2,0,2,,,,,1,,,60,91
7138,note_on,,,,,13,0,2,,,,,1,,,60,0
7138,note_on,,,,,13,0,1,,,,,0,,,69,0
7140,note_on,,,,,2,0,2,,,,,1,,,65,91
7140,note_on,,,,,2,0,1,,,,,0,,,74,100
7153,note_on,,,,,13,0,2,,,,,1,,,65,0
7153,note_on,,,,,13,0,1,,,,,0,,,74,0
7155,note_on,,,,,2,0,1,,,,,0,,,71,100
7155,note_on,,,,,2,0,2,,,,,1,,,62,90
7168,note_on,,,,,13,0,2,,,,,1,,,62,0
7168,note_on,,,,,13,0,1,,,,,0,,,71,0
7170,note_on,,,,,2,0,1,,,,,0,,,69,100
7170,note_on,,,,,2,0,2,,,,,1,,,60,90
7183,note_on,,,,,13,0,1,,,,,0,,,69,0
7183,note_on,,,,,13,0,2,,,,,1,,,60,0
7185,note_on,,,,,2,0,2,,,,,1,,,59,90
7185,note_on,,,,,2,0,1,,,,,0,,,67,100
7198,note_on,,,,,13,0,2,,,,,1,,,59,0
7198,note_on,,,,,13,0,1,,,,,0,,,67,0
7200,note_on,,,,,2,0,1,,,,,0,,,72,100
7200,note_on,,,,,2,0,2,,,,,1,,,63,91
7202,set_tempo,,,,,844,1,0,,1276595,,,,,,,
7212,set_tempo,,,,,10,1,0,,1276595,,,,,,,
7213,note_on,,,,,13,0,2,,,,,1,,,63,0
7213,note_on,,,,,13,0,1,,,,,0,,,72,0
7215,note_on,,,,,2,0,2,,,,,1,,,60,90
7215,note_on,,,,,2,0,1,,,,,0,,,69,100
7220,set_tempo,,,,,8,1,0,,1276595,,,,,,,
7228,note_on,,,,,13,0,1,,,,,0,,,69,0
7228,note_on,,,,,13,0,2,,,,,1,,,60,0
7230,note_on,,,,,2,0,1,,,,,0,,,67,100
7230,note_on,,,,,2,0,2,,,,,1,,,59,90
7232,set_tempo,,,,,12,1,0,,1304347,,,,,,,
7242,set_tempo,,,,,10,1,0,,1304347,,,,,,,
7243,note_on,,,,,13,0,1,,,,,0,,,67,0
7243,note_on,,,,,13,0,2,,,,,1,,,59,0
7245,note_on,,,,,2,0,1,,,,,0,,,66,101
7245,note_on,,,,,2,0,2,,,,,1,,,57,90
7258,note_on,,,,,13,0,1,,,,,0,,,66,0
7258,set_tempo,,,,,16,1,0,,1304347,,,,,,,
7258,note_on,,,,,13,0,2,,,,,1,,,57,0
7260,note_on,,,,,2,0,2,,,,,1,,,62,90
7260,note_on,,,,,2,0,1,,,,,0,,,71,102
7268,set_tempo,,,,,10,1,0,,1304347,,,,,,,
7273,note_on,,,,,13,0,1,,,,,0,,,71,0
7273,note_on,,,,,13,0,2,,,,,1,,,62,0
7275,note_on,,,,,2,0,2,,,,,1,,,59,90
7275,note_on,,,,,2,0,1,,,,,0,,,67,102
7288,note_on,,,,,13,0,1,,,,,0,,,67,0
7288,note_on,,,,,13,0,2,,,,,1,,,59,0
7290,note_on,,,,,2,0,2,,,,,1,,,57,90
7290,note_on,,,,,2,0,1,,,,,0,,,66,101
7303,note_on,,,,,13,0,2,,,,,1,,,57,0
7303,note_on,,,,,13,0,1,,,,,0,,,66,0
7305,note_on,,,,,2,0,1,,,,,0,,,64,100
7305,note_on,,,,,2,0,2,,,,,1,,,55,91
7310,set_tempo,,,,,42,1,0,,1333333,,,,,,,
7318,note_on,,,,,13,0,1,,,,,0,,,64,0
7318,set_tempo,,,,,8,1,0,,1304347,,,,,,,
7318,note_on,,,,,13,0,2,,,,,1,,,55,0
7320,note_on,,,,,2,0,1,,,,,0,,,69,100
7320,note_on,,,,,2,0,2,,,,,1,,,60,91
7324,set_tempo,,,,,6,1,0,,1304347,,,,,,,
7328,set_tempo,,,,,4,1,0,,1304347,,,,,,,
7333,note_on,,,,,13,0,1,,,,,0,,,69,0
7333,note_on,,,,,13,0,2,,,,,1,,,60,0
7335,note_on,,,,,2,0,2,,,,,1,,,57,91
7335,note_on,,,,,2,0,1,,,,,0,,,66,100
7340,set_tempo,,,,,12,1,0,,1333333,,,,,,,
7348,note_on,,,,,13,0,2,,,,,1,,,57,0
7348,note_on,,,,,13,0,1,,,,,0,,,66,0
7350,note_on,,,,,2,0,2,,,,,1,,,54,91
7350,note_on,,,,,2,0,1,,,,,0,,,75,100
7363,note_on,,,,,13,0,2,,,,,1,,,54,0
7363,note_on,,,,,13,0,1,,,,,0,,,75,0
7365,note_on,,,,,2,0,1,,,,,0,,,66,100
7365,note_on,,,,,2,0,2,,,,,1,,,57,91
7376,set_tempo,,,,,36,1,0,,1333333,,,,,,,
7378,note_on,,,,,13,0,2,,,,,1,,,57,0
7378,note_on,,,,,13,0,1,,,,,0,,,66,0
7380,note_on,,,,,2,0,1,,,,,0,,,69,100
7380,note_on,,,,,2,0,2,,,,,1,,,60,91
7393,note_on,,,,,13,0,1,,,,,0,,,69,0
7393,note_on,,,,,13,0,2,,,,,1,,,60,0
7395,note_on,,,,,2,0,1,,,,,0,,,66,100
7395,note_on,,,,,2,0,2,,,,,1,,,57,90
7408,note_on,,,,,13,0,2,,,,,1,,,57,0
7408,note_on,,,,,13,0,1,,,,,0,,,66,0
7410,note_on,,,,,2,0,2,,,,,1,,,54,91
7410,note_on,,,,,2,0,1,,,,,0,,,75,100
7414,set_tempo,,,,,38,1,0,,1363636,,,,,,,
7423,note_on,,,,,13,0,2,,,,,1,,,54,0
7423,note_on,,,,,13,0,1,,,,,0,,,75,0
7425,note_on,,,,,2,0,2,,,,,1,,,57,91
7425,note_on,,,,,2,0,1,,,,,0,,,66,100
7438,note_on,,,,,13,0,1,,,,,0,,,66,0
7438,note_on,,,,,13,0,2,,,,,1,,,57,0
7440,note_on,,,,,2,0,2,,,,,1,,,60,91
7440,set_tempo,,,,,26,1,0,,1395348,,,,,,,
7440,note_on,,,,,2,0,1,,,,,0,,,69,100
7444,set_tempo,,,,,4,1,0,,1428571,,,,,,,
7450,set_tempo,,,,,6,1,0,,1395348,,,,,,,
7453,note_on,,,,,13,0,1,,,,,0,,,69,0
7453,note_on,,,,,13,0,2,,,,,1,,,60,0
7455,note_on,,,,,2,0,2,,,,,1,,,57,90
7455,note_on,,,,,2,0,1,,,,,0,,,66,100
7468,note_on,,,,,13,0,1,,,,,0,,,66,0
7468,note_on,,,,,13,0,2,,,,,1,,,57,0
7470,note_on,,,,,2,0,1,,,,,0,,,75,100
7470,note_on,,,,,2,0,2,,,,,1,,,54,91
7483,note_on,,,,,13,0,1,,,,,0,,,75,0
7483,note_on,,,,,13,0,2,,,,,1,,,54,0
7484,set_tempo,,,,,34,1,0,,1428571,,,,,,,
7485,note_on,,,,,2,0,2,,,,,1,,,57,91
7485,note_on,,,,,2,0,1,,,,,0,,,66,100
7492,set_tempo,,,,,8,1,0,,1463414,,,,,,,
7494,set_tempo,,,,,2,1,0,,1500000,,,,,,,
7496,set_tempo,,,,,2,1,0,,1500000,,,,,,,
7498,note_on,,,,,13,0,1,,,,,0,,,66,0
7498,set_tempo,,,,,2,1,0,,1538461,,,,,,,
7498,note_on,,,,,13,0,2,,,,,1,,,57,0
7500,note_on,,,,,2,0,2,,,,,1,,,60,92
7500,note_on,,,,,2,0,1,,,,,0,,,69,100
7508,set_tempo,,,,,10,1,0,,1538461,,,,,,,
7510,set_tempo,,,,,2,1,0,,1621621,,,,,,,
7513,note_on,,,,,13,0,2,,,,,1,,,60,0
7513,note_on,,,,,13,0,1,,,,,0,,,69,0
7514,set_tempo,,,,,4,1,0,,1714285,,,,,,,
7515,note_on,,,,,2,0,1,,,,,0,,,66,100
7515,note_on,,,,,2,0,2,,,,,1,,,57,91
7522,set_tempo,,,,,8,1,0,,1714285,,,,,,,
7526,set_tempo,,,,,4,1,0,,1764705,,,,,,,
7528,note_on,,,,,13,0,2,,,,,1,,,57,0
7528,set_tempo,,,,,2,1,0,,1818181,,,,,,,
7528,note_on,,,,,13,0,1,,,,,0,,,66,0
7530,note_on,,,,,2,0,2,,,,,1,,,54,91
7530,note_on,,,,,2,0,1,,,,,0,,,75,100
7532,set_tempo,,,,,4,1,0,,1875000,,,,,,,
7534,set_tempo,,,,,2,1,0,,2142857,,,,,,,
7536,set_tempo,,,,,2,1,0,,2142857,,,,,,,
7540,set_tempo,,,,,4,1,0,,2222222,,,,,,,
7543,note_on,,,,,13,0,1,,,,,0,,,75,0
7543,note_on,,,,,13,0,2,,,,,1,,,54,0
7544,set_tempo,,,,,4,1,0,,2222222,,,,,,,
7545,note_on,,,,,2,0,1,,,,,0,,,66,100
7545,note_on,,,,,2,0,2,,,,,1,,,57,91
7548,set_tempo,,,,,4,1,0,,2400000,,,,,,,
7558,note_on,,,,,13,0,2,,,,,1,,,57,0
7558,note_on,,,,,13,0,1,,,,,0,,,66,0
7560,note_on,,,,,2,0,2,,,,,1,,,59,91
7560,note_on,,,,,0,0,1,,,,,0,,,74,100
7560,note_on,,,,,2,0,1,,,,,0,,,67,100
7584,set_tempo,,,,,36,1,0,,2608695,,,,,,,
7596,set_tempo,,,,,12,1,0,,2727272,,,,,,,
7604,set_tempo,,,,,8,1,0,,2727272,,,,,,,
7614,set_tempo,,,,,10,1,0,,2857142,,,,,,,
7616,set_tempo,,,,,2,1,0,,2857142,,,,,,,
7620,set_tempo,,,,,4,1,0,,3000000,,,,,,,
7634,set_tempo,,,,,14,1,0,,2857142,,,,,,,
7638,set_tempo,,,,,4,1,0,,4615384,,,,,,,
7642,set_tempo,,,,,4,1,0,,4615384,,,,,,,
7656,set_tempo,,,,,14,1,0,,4285714,,,,,,,
7664,end_of_track,,,,,0,1,0,,,,,,,,,
7664,set_tempo,,,,,8,1,0,,4615384,,,,,,,
7665,note_on,,,,,1305,0,4,,,,,3,,,43,0
7665,note_on,,,,,105,0,2,,,,,1,,,59,0
7665,note_on,,,,,0,0,1,,,,,0,,,67,0
7665,end_of_track,,,,,0,1,1,,,,,,,,,
7665,note_on,,,,,0,0,4,,,,,3,,,43,0
7665,end_of_track,,,,,0,1,2,,,,,,,,,
7665,end_of_track,,,,,0,1,3,,,,,,,,,
7665,note_on,,,,,0,0,3,,,,,2,,,43,0
7665,note_on,,,,,1305,0,3,,,,,2,,,43,0
7665,note_on,,,,,105,0,1,,,,,0,,,74,0
7665,end_of_track,,,,,0,1,4,,,,,,,,,
