tick,type,numerator,denominator,clocks_per_click,notated_32nd_notes_per_beat,time,meta,track,key,tempo,note,velocity,channel
0,time_signature,4,4,24,8,0,1,0,,,,,
0,track_name,,,,,0,1,6,,,,,
0,track_name,,,,,0,1,5,,,,,
0,track_name,,,,,0,1,8,,,,,
0,track_name,,,,,0,1,4,,,,,
0,track_name,,,,,0,1,3,,,,,
0,track_name,,,,,0,1,2,,,,,
0,track_name,,,,,0,1,7,,,,,
0,track_name,,,,,0,1,1,,,,,
0,key_signature,,,,,0,1,0,F,,,,
0,set_tempo,,,,,0,1,0,,750000,,,
3072,note_on,,,,,3072,0,2,,,64,96,1
3072,note_on,,,,,3072,0,4,,,45,96,3
3072,note_on,,,,,3072,0,3,,,61,96,2
3072,note_on,,,,,3072,0,6,,,69,96,5
3072,note_on,,,,,3072,0,5,,,45,96,4
3072,note_on,,,,,3072,0,1,,,69,96,0
3584,note_on,,,,,0,0,5,,,45,96,4
3584,note_off,,,,,512,0,5,,,45,0,4
3584,note_off,,,,,512,0,2,,,64,0,1
3584,note_on,,,,,0,0,2,,,65,96,1
3840,note_on,,,,,0,0,2,,,67,96,1
3840,note_off,,,,,256,0,2,,,65,0,1
4096,note_on,,,,,0,0,5,,,50,96,4
4096,note_off,,,,,512,0,5,,,45,0,4
4096,note_off,,,,,1024,0,6,,,69,0,5
4096,note_on,,,,,0,0,6,,,69,96,5
4096,note_off,,,,,1024,0,1,,,69,0,0
4096,note_on,,,,,0,0,2,,,65,96,1
4096,note_off,,,,,256,0,2,,,67,0,1
4096,note_off,,,,,1024,0,3,,,61,0,2
4096,note_on,,,,,0,0,3,,,62,96,2
4096,note_on,,,,,0,0,4,,,50,96,3
4096,note_on,,,,,0,0,1,,,69,96,0
4096,note_off,,,,,1024,0,4,,,45,0,3
4608,note_on,,,,,0,0,5,,,48,96,4
4608,note_off,,,,,512,0,5,,,50,0,4
4608,note_on,,,,,0,0,4,,,48,96,3
4608,note_off,,,,,512,0,4,,,50,0,3
5120,note_on,,,,,0,0,2,,,65,96,1
5120,note_off,,,,,1024,0,3,,,62,0,2
5120,note_on,,,,,0,0,3,,,62,96,2
5120,note_off,,,,,1024,0,6,,,69,0,5
5120,note_on,,,,,0,0,6,,,70,96,5
5120,note_off,,,,,512,0,4,,,48,0,3
5120,note_off,,,,,512,0,5,,,48,0,4
5120,note_on,,,,,0,0,4,,,46,96,3
5120,note_off,,,,,1024,0,2,,,65,0,1
5120,note_on,,,,,0,0,1,,,70,96,0
5120,note_on,,,,,0,0,5,,,46,96,4
5120,note_off,,,,,1024,0,1,,,69,0,0
5632,note_off,,,,,512,0,1,,,70,0,0
5632,note_off,,,,,512,0,3,,,62,0,2
5632,note_on,,,,,0,0,3,,,58,96,2
5632,note_on,,,,,0,0,5,,,43,96,4
5632,note_off,,,,,512,0,6,,,70,0,5
5632,note_on,,,,,0,0,6,,,72,96,5
5632,note_off,,,,,512,0,5,,,46,0,4
5632,note_on,,,,,0,0,1,,,72,96,0
5888,note_off,,,,,256,0,1,,,72,0,0
5888,note_on,,,,,0,0,6,,,74,96,5
5888,note_on,,,,,0,0,1,,,74,96,0
5888,note_off,,,,,256,0,6,,,72,0,5
6144,note_on,,,,,0,0,5,,,48,96,4
6144,note_off,,,,,1024,0,4,,,46,0,3
6144,note_on,,,,,0,0,4,,,48,96,3
6144,note_off,,,,,256,0,6,,,74,0,5
6144,note_on,,,,,0,0,6,,,72,96,5
6144,note_off,,,,,256,0,1,,,74,0,0
6144,note_off,,,,,1024,0,2,,,65,0,1
6144,note_on,,,,,0,0,3,,,57,96,2
6144,note_off,,,,,512,0,5,,,43,0,4
6144,note_off,,,,,512,0,3,,,58,0,2
6144,note_on,,,,,0,0,1,,,72,96,0
6144,note_on,,,,,0,0,2,,,65,96,1
6656,note_off,,,,,512,0,5,,,48,0,4
6656,note_on,,,,,0,0,2,,,64,96,1
6656,note_off,,,,,512,0,3,,,57,0,2
6656,note_on,,,,,0,0,3,,,55,96,2
6656,note_on,,,,,0,0,5,,,46,96,4
6656,note_off,,,,,512,0,2,,,65,0,1
6912,note_off,,,,,256,0,3,,,55,0,2
6912,note_on,,,,,0,0,3,,,53,96,2
6912,note_off,,,,,256,0,2,,,64,0,1
6912,note_on,,,,,0,0,2,,,62,96,1
7168,note_on,,,,,0,0,6,,,70,96,5
7168,note_off,,,,,1024,0,4,,,48,0,3
7168,note_on,,,,,0,0,3,,,60,96,2
7168,note_off,,,,,256,0,3,,,53,0,2
7168,note_off,,,,,1024,0,1,,,72,0,0
7168,note_on,,,,,0,0,2,,,64,96,1
7168,note_off,,,,,256,0,2,,,62,0,1
7168,note_off,,,,,1024,0,6,,,72,0,5
7168,note_on,,,,,0,0,4,,,48,96,3
7168,note_on,,,,,0,0,1,,,70,96,0
7168,note_on,,,,,0,0,5,,,48,96,4
7168,note_off,,,,,512,0,5,,,46,0,4
7424,note_off,,,,,256,0,1,,,70,0,0
7424,note_on,,,,,0,0,1,,,69,96,0
7680,note_off,,,,,256,0,1,,,69,0,0
7680,note_on,,,,,0,0,1,,,70,96,0
7680,note_off,,,,,512,0,3,,,60,0,2
7680,note_on,,,,,0,0,3,,,60,96,2
7680,note_off,,,,,512,0,5,,,48,0,4
7680,note_on,,,,,0,0,5,,,36,96,4
8192,note_on,,,,,0,0,6,,,69,96,5
8192,note_on,,,,,0,0,1,,,69,96,0
8192,note_off,,,,,1024,0,4,,,48,0,3
8192,note_on,,,,,0,0,4,,,41,96,3
8192,note_off,,,,,512,0,3,,,60,0,2
8192,note_off,,,,,1024,0,6,,,70,0,5
8192,note_off,,,,,512,0,5,,,36,0,4
8192,note_on,,,,,0,0,5,,,41,96,4
8192,note_off,,,,,512,0,1,,,70,0,0
8192,note_on,,,,,0,0,2,,,65,96,1
8192,note_on,,,,,0,0,3,,,60,96,2
8192,note_off,,,,,1024,0,2,,,64,0,1
8704,note_off,,,,,512,0,6,,,69,0,5
8704,note_on,,,,,0,0,6,,,53,96,5
8704,note_on,,,,,8704,0,7,,,60,96,6
8704,note_on,,,,,8704,0,8,,,57,96,7
8704,note_on,,,,,0,0,8,,,53,96,7
8960,note_on,,,,,0,0,7,,,63,96,6
8960,note_off,,,,,256,0,7,,,60,0,6
8960,note_off,,,,,256,0,8,,,57,0,7
8960,note_on,,,,,0,0,8,,,60,96,7
9216,note_off,,,,,256,0,8,,,60,0,7
9216,note_off,,,,,1024,0,3,,,60,0,2
9216,note_on,,,,,0,0,8,,,57,96,7
9216,note_off,,,,,1024,0,2,,,65,0,1
9216,note_off,,,,,1024,0,5,,,41,0,4
9216,note_on,,,,,0,0,6,,,53,96,5
9216,note_off,,,,,1024,0,4,,,41,0,3
9216,note_off,,,,,0,0,8,,,53,0,7
9216,note_off,,,,,1024,0,1,,,69,0,0
9216,note_off,,,,,512,0,6,,,53,0,5
9216,note_off,,,,,256,0,7,,,63,0,6
9216,note_on,,,,,0,0,7,,,63,96,6
9216,note_on,,,,,0,0,8,,,60,96,7
9472,note_off,,,,,256,0,8,,,60,0,7
9472,note_on,,,,,0,0,8,,,58,96,7
9472,note_off,,,,,256,0,7,,,63,0,6
9472,note_on,,,,,0,0,7,,,62,96,6
9728,note_on,,,,,0,0,8,,,53,96,7
9728,note_off,,,,,256,0,7,,,62,0,6
9728,note_on,,,,,0,0,7,,,62,96,6
9728,note_off,,,,,0,0,8,,,57,0,7
9728,note_on,,,,,0,0,8,,,58,96,7
9728,note_off,,,,,256,0,8,,,58,0,7
9728,note_on,,,,,0,0,6,,,53,96,5
9728,note_off,,,,,512,0,6,,,53,0,5
9984,note_off,,,,,256,0,7,,,62,0,6
9984,note_on,,,,,0,0,7,,,60,96,6
9984,note_on,,,,,0,0,8,,,57,96,7
9984,note_off,,,,,256,0,8,,,58,0,7
10240,note_off,,,,,0,0,8,,,53,0,7
10240,note_off,,,,,256,0,8,,,57,0,7
10240,note_off,,,,,256,0,7,,,60,0,6
10240,note_on,,,,,0,0,7,,,62,96,6
10240,note_on,,,,,0,0,8,,,58,96,7
10240,note_on,,,,,0,0,6,,,53,96,5
10240,note_on,,,,,1024,0,5,,,41,96,4
10240,note_off,,,,,512,0,6,,,53,0,5
10496,note_off,,,,,256,0,7,,,62,0,6
10496,note_on,,,,,0,0,7,,,58,96,6
10752,note_on,,,,,0,0,7,,,62,96,6
10752,note_off,,,,,512,0,8,,,58,0,7
10752,note_on,,,,,0,0,8,,,58,96,7
10752,note_on,,,,,0,0,8,,,53,96,7
10752,note_off,,,,,256,0,7,,,58,0,6
10752,note_off,,,,,512,0,6,,,53,0,5
10752,note_on,,,,,0,0,6,,,53,96,5
11008,note_on,,,,,0,0,8,,,57,96,7
11008,note_on,,,,,0,0,8,,,60,96,7
11008,note_off,,,,,256,0,8,,,58,0,7
11008,note_on,,,,,0,0,7,,,65,96,6
11008,note_off,,,,,0,0,8,,,53,0,7
11008,note_off,,,,,256,0,7,,,62,0,6
11264,note_off,,,,,1024,0,5,,,41,0,4
11264,note_on,,,,,0,0,6,,,53,96,5
11264,note_off,,,,,256,0,7,,,65,0,6
11264,note_on,,,,,0,0,7,,,65,96,6
11264,note_on,,,,,0,0,8,,,57,96,7
11264,note_off,,,,,0,0,8,,,57,0,7
11264,note_on,,,,,0,0,8,,,60,96,7
11264,note_off,,,,,256,0,8,,,60,0,7
11264,note_off,,,,,512,0,6,,,53,0,5
11520,note_on,,,,,0,0,7,,,64,96,6
11520,note_on,,,,,0,0,8,,,55,96,7
11520,note_off,,,,,0,0,8,,,57,0,7
11520,note_on,,,,,0,0,8,,,58,96,7
11520,note_off,,,,,256,0,8,,,60,0,7
11520,note_off,,,,,256,0,7,,,65,0,6
11776,note_on,,,,,0,0,6,,,53,96,5
11776,note_off,,,,,512,0,6,,,53,0,5
11776,note_on,,,,,0,0,7,,,64,96,6
11776,note_on,,,,,0,0,8,,,58,96,7
11776,note_off,,,,,0,0,8,,,55,0,7
11776,note_off,,,,,256,0,8,,,58,0,7
11776,note_off,,,,,256,0,7,,,64,0,6
11776,note_on,,,,,0,0,8,,,55,96,7
12032,note_off,,,,,256,0,8,,,58,0,7
12032,note_off,,,,,256,0,7,,,64,0,6
12032,note_off,,,,,0,0,8,,,55,0,7
12032,note_on,,,,,0,0,8,,,53,96,7
12032,note_on,,,,,0,0,7,,,62,96,6
12032,note_on,,,,,0,0,8,,,57,96,7
12288,note_off,,,,,256,0,7,,,62,0,6
12288,note_on,,,,,0,0,7,,,64,96,6
12288,note_on,,,,,1024,0,5,,,41,96,4
12288,note_off,,,,,256,0,8,,,57,0,7
12288,note_off,,,,,0,0,8,,,53,0,7
12288,note_on,,,,,0,0,8,,,55,96,7
12288,note_on,,,,,0,0,8,,,58,96,7
12288,note_on,,,,,0,0,6,,,53,96,5
12288,note_off,,,,,512,0,6,,,53,0,5
12544,note_on,,,,,0,0,8,,,52,96,7
12544,note_off,,,,,256,0,7,,,64,0,6
12544,note_on,,,,,0,0,7,,,58,96,6
12544,note_off,,,,,256,0,8,,,58,0,7
12544,note_on,,,,,0,0,8,,,55,96,7
12544,note_off,,,,,0,0,8,,,55,0,7
12800,note_off,,,,,0,0,8,,,52,0,7
12800,note_off,,,,,256,0,8,,,55,0,7
12800,note_off,,,,,512,0,6,,,53,0,5
12800,note_on,,,,,0,0,6,,,53,96,5
12800,note_on,,,,,0,0,7,,,64,96,6
12800,note_off,,,,,256,0,7,,,58,0,6
12800,note_on,,,,,0,0,8,,,58,96,7
12800,note_on,,,,,0,0,8,,,55,96,7
13056,note_off,,,,,256,0,8,,,58,0,7
13056,note_on,,,,,0,0,7,,,67,96,6
13056,note_off,,,,,256,0,7,,,64,0,6
13056,note_on,,,,,0,0,8,,,58,96,7
13056,note_off,,,,,0,0,8,,,55,0,7
13056,note_on,,,,,0,0,8,,,64,96,7
13312,note_off,,,,,512,0,6,,,53,0,5
13312,note_off,,,,,0,0,8,,,58,0,7
13312,note_on,,,,,0,0,8,,,64,96,7
13312,note_off,,,,,1024,0,5,,,41,0,4
13312,note_on,,,,,0,0,6,,,53,96,5
13312,note_on,,,,,0,0,7,,,67,96,6
13312,note_off,,,,,256,0,7,,,67,0,6
13312,note_off,,,,,256,0,8,,,64,0,7
13312,note_on,,,,,0,0,8,,,58,96,7
13568,note_off,,,,,256,0,7,,,67,0,6
13568,note_on,,,,,0,0,8,,,57,96,7
13568,note_off,,,,,0,0,8,,,58,0,7
13568,note_on,,,,,0,0,8,,,60,96,7
13568,note_on,,,,,0,0,7,,,65,96,6
13568,note_off,,,,,256,0,8,,,64,0,7
13824,note_off,,,,,512,0,6,,,53,0,5
13824,note_on,,,,,0,0,8,,,60,96,7
13824,note_off,,,,,256,0,7,,,65,0,6
13824,note_on,,,,,0,0,7,,,65,96,6
13824,note_off,,,,,256,0,8,,,60,0,7
13824,note_on,,,,,0,0,6,,,53,96,5
13824,note_on,,,,,0,0,8,,,57,96,7
13824,note_off,,,,,0,0,8,,,57,0,7
14080,note_on,,,,,0,0,8,,,58,96,7
14080,note_off,,,,,0,0,8,,,57,0,7
14080,note_on,,,,,0,0,8,,,55,96,7
14080,note_on,,,,,0,0,7,,,64,96,6
14080,note_off,,,,,256,0,7,,,65,0,6
14080,note_off,,,,,256,0,8,,,60,0,7
14336,note_on,,,,,0,0,8,,,57,96,7
14336,note_off,,,,,256,0,7,,,64,0,6
14336,note_on,,,,,1024,0,5,,,41,96,4
14336,note_off,,,,,256,0,8,,,58,0,7
14336,note_on,,,,,0,0,8,,,60,96,7
14336,note_off,,,,,0,0,8,,,55,0,7
14336,note_on,,,,,0,0,7,,,65,96,6
14336,note_off,,,,,512,0,6,,,53,0,5
14336,note_on,,,,,0,0,6,,,53,96,5
14592,note_on,,,,,0,0,7,,,60,96,6
14592,note_off,,,,,256,0,8,,,60,0,7
14592,note_on,,,,,0,0,8,,,57,96,7
14592,note_off,,,,,0,0,8,,,57,0,7
14592,note_on,,,,,0,0,8,,,53,96,7
14592,note_off,,,,,256,0,7,,,65,0,6
14848,note_off,,,,,256,0,8,,,57,0,7
14848,note_on,,,,,0,0,8,,,57,96,7
14848,note_on,,,,,0,0,7,,,65,96,6
14848,note_on,,,,,0,0,8,,,60,96,7
14848,note_off,,,,,256,0,7,,,60,0,6
14848,note_off,,,,,0,0,8,,,53,0,7
15104,note_on,,,,,0,0,7,,,69,96,6
15104,note_off,,,,,256,0,7,,,65,0,6
15104,note_on,,,,,0,0,8,,,60,96,7
15104,note_off,,,,,0,0,8,,,57,0,7
15104,note_on,,,,,0,0,8,,,65,96,7
15104,note_off,,,,,256,0,8,,,60,0,7
15360,note_off,,,,,256,0,8,,,65,0,7
15360,note_on,,,,,0,0,6,,,69,96,5
15360,note_off,,,,,0,0,8,,,60,0,7
15360,note_on,,,,,0,0,8,,,60,96,7
15360,note_on,,,,,6144,0,1,,,69,96,0
15360,note_off,,,,,1024,0,6,,,53,0,5
15360,note_on,,,,,6144,0,2,,,65,96,1
15360,note_on,,,,,0,0,8,,,65,96,7
15360,note_on,,,,,6144,0,3,,,60,96,2
15360,note_on,,,,,6144,0,4,,,53,96,3
15360,note_on,,,,,0,0,5,,,53,96,4
15360,note_on,,,,,0,0,7,,,69,96,6
15360,note_off,,,,,256,0,7,,,69,0,6
15360,note_off,,,,,1024,0,5,,,41,0,4
15616,note_on,,,,,0,0,7,,,67,96,6
15616,note_off,,,,,256,0,7,,,69,0,6
15872,note_on,,,,,0,0,2,,,62,96,1
15872,note_off,,,,,0,0,8,,,60,0,7
15872,note_on,,,,,0,0,8,,,62,96,7
15872,note_on,,,,,0,0,8,,,62,96,7
15872,note_off,,,,,512,0,8,,,65,0,7
15872,note_off,,,,,512,0,1,,,69,0,0
15872,note_on,,,,,0,0,1,,,70,96,0
15872,note_on,,,,,0,0,6,,,70,96,5
15872,note_off,,,,,512,0,6,,,69,0,5
15872,note_off,,,,,512,0,5,,,53,0,4
15872,note_on,,,,,0,0,5,,,53,96,4
15872,note_on,,,,,0,0,3,,,62,96,2
15872,note_off,,,,,512,0,3,,,60,0,2
15872,note_on,,,,,0,0,7,,,67,96,6
15872,note_off,,,,,512,0,2,,,65,0,1
15872,note_off,,,,,256,0,7,,,67,0,6
16128,note_off,,,,,256,0,7,,,67,0,6
16128,note_on,,,,,0,0,7,,,65,96,6
16384,note_on,,,,,0,0,2,,,67,96,1
16384,note_off,,,,,512,0,2,,,62,0,1
16384,note_off,,,,,512,0,1,,,70,0,0
16384,note_off,,,,,512,0,6,,,70,0,5
16384,note_on,,,,,0,0,6,,,72,96,5
16384,note_on,,,,,0,0,1,,,72,96,0
16384,note_off,,,,,1024,0,4,,,53,0,3
16384,note_off,,,,,256,0,7,,,65,0,6
16384,note_on,,,,,0,0,8,,,64,96,7
16384,note_on,,,,,0,0,7,,,67,96,6
16384,note_off,,,,,512,0,8,,,62,0,7
16384,note_on,,,,,0,0,4,,,52,96,3
16384,note_off,,,,,512,0,3,,,62,0,2
16384,note_on,,,,,0,0,3,,,64,96,2
16384,note_on,,,,,0,0,8,,,67,96,7
16384,note_off,,,,,512,0,5,,,53,0,4
16384,note_on,,,,,0,0,5,,,52,96,4
16384,note_off,,,,,0,0,8,,,62,0,7
16640,note_off,,,,,256,0,7,,,67,0,6
16640,note_on,,,,,0,0,7,,,64,96,6
16896,note_on,,,,,0,0,5,,,52,96,4
16896,note_off,,,,,512,0,5,,,52,0,4
16896,note_on,,,,,0,0,2,,,64,96,1
16896,note_off,,,,,512,0,2,,,67,0,1
16896,note_off,,,,,0,0,8,,,64,0,7
16896,note_on,,,,,0,0,8,,,64,96,7
16896,note_on,,,,,0,0,8,,,64,96,7
16896,note_off,,,,,256,0,7,,,64,0,6
16896,note_on,,,,,0,0,7,,,67,96,6
16896,note_off,,,,,512,0,8,,,67,0,7
17152,note_on,,,,,0,0,7,,,72,96,6
17152,note_off,,,,,256,0,7,,,67,0,6
17408,note_on,,,,,0,0,8,,,57,96,7
17408,note_off,,,,,1024,0,4,,,52,0,3
17408,note_off,,,,,1024,0,1,,,72,0,0
17408,note_off,,,,,512,0,8,,,64,0,7
17408,note_on,,,,,0,0,8,,,65,96,7
17408,note_off,,,,,512,0,5,,,52,0,4
17408,note_on,,,,,0,0,5,,,50,96,4
17408,note_off,,,,,0,0,8,,,64,0,7
17408,note_on,,,,,0,0,4,,,50,96,3
17408,note_on,,,,,0,0,1,,,65,96,0
17408,note_off,,,,,512,0,2,,,64,0,1
17408,note_off,,,,,256,0,7,,,72,0,6
17408,note_on,,,,,0,0,7,,,72,96,6
17408,note_off,,,,,1024,0,3,,,64,0,2
17408,note_on,,,,,0,0,2,,,65,96,1
17408,note_on,,,,,0,0,3,,,57,96,2
17408,note_off,,,,,1024,0,6,,,72,0,5
17408,note_on,,,,,0,0,6,,,65,96,5
17664,note_on,,,,,0,0,7,,,70,96,6
17664,note_off,,,,,256,0,7,,,72,0,6
17920,note_off,,,,,0,0,8,,,57,0,7
17920,note_on,,,,,0,0,8,,,53,96,7
17920,note_on,,,,,0,0,7,,,70,96,6
17920,note_off,,,,,256,0,7,,,70,0,6
17920,note_on,,,,,0,0,8,,,62,96,7
17920,note_off,,,,,512,0,5,,,50,0,4
17920,note_on,,,,,0,0,5,,,50,96,4
17920,note_on,,,,,0,0,4,,,62,96,3
17920,note_off,,,,,512,0,4,,,50,0,3
17920,note_on,,,,,0,0,2,,,62,96,1
17920,note_off,,,,,512,0,2,,,65,0,1
17920,note_off,,,,,512,0,3,,,57,0,2
17920,note_off,,,,,512,0,8,,,65,0,7
17920,note_on,,,,,0,0,3,,,53,96,2
18176,note_off,,,,,256,0,7,,,70,0,6
18176,note_on,,,,,0,0,7,,,69,96,6
18432,note_off,,,,,1024,0,6,,,65,0,5
18432,note_on,,,,,0,0,4,,,60,96,3
18432,note_off,,,,,512,0,4,,,62,0,3
18432,note_on,,,,,0,0,3,,,60,96,2
18432,note_on,,,,,0,0,6,,,67,96,5
18432,note_off,,,,,512,0,2,,,62,0,1
18432,note_on,,,,,0,0,7,,,70,96,6
18432,note_on,,,,,0,0,5,,,48,96,4
18432,note_off,,,,,512,0,5,,,50,0,4
18432,note_off,,,,,512,0,3,,,53,0,2
18432,note_on,,,,,0,0,2,,,64,96,1
18432,note_off,,,,,256,0,7,,,69,0,6
18432,note_off,,,,,512,0,8,,,62,0,7
18432,note_on,,,,,0,0,8,,,64,96,7
18432,note_off,,,,,0,0,8,,,53,0,7
18432,note_on,,,,,0,0,8,,,60,96,7
18432,note_off,,,,,1024,0,1,,,65,0,0
18432,note_on,,,,,0,0,1,,,67,96,0
18688,note_on,,,,,0,0,7,,,67,96,6
18688,note_off,,,,,256,0,7,,,70,0,6
18944,note_off,,,,,512,0,5,,,48,0,4
18944,note_on,,,,,0,0,4,,,58,96,3
18944,note_off,,,,,512,0,4,,,60,0,3
18944,note_off,,,,,512,0,8,,,64,0,7
18944,note_off,,,,,0,0,8,,,60,0,7
18944,note_on,,,,,0,0,8,,,64,96,7
18944,note_off,,,,,256,0,7,,,67,0,6
18944,note_on,,,,,0,0,7,,,70,96,6
18944,note_on,,,,,0,0,8,,,60,96,7
18944,note_on,,,,,0,0,5,,,46,96,4
19200,note_on,,,,,0,0,7,,,79,96,6
19200,note_off,,,,,256,0,7,,,70,0,6
19456,note_on,,,,,0,0,3,,,60,96,2
19456,note_off,,,,,512,0,4,,,58,0,3
19456,note_on,,,,,0,0,4,,,57,96,3
19456,note_on,,,,,0,0,8,,,69,96,7
19456,note_off,,,,,512,0,8,,,64,0,7
19456,note_off,,,,,1024,0,1,,,67,0,0
19456,note_on,,,,,0,0,1,,,69,96,0
19456,note_on,,,,,0,0,8,,,60,96,7
19456,note_on,,,,,0,0,5,,,45,96,4
19456,note_off,,,,,0,0,8,,,60,0,7
19456,note_on,,,,,0,0,7,,,79,96,6
19456,note_off,,,,,256,0,7,,,79,0,6
19456,note_off,,,,,1024,0,3,,,60,0,2
19456,note_on,,,,,0,0,2,,,65,96,1
19456,note_off,,,,,1024,0,2,,,64,0,1
19456,note_on,,,,,0,0,6,,,69,96,5
19456,note_off,,,,,1024,0,6,,,67,0,5
19456,note_off,,,,,512,0,5,,,46,0,4
19712,note_on,,,,,0,0,7,,,77,96,6
19712,note_off,,,,,256,0,7,,,79,0,6
19968,note_on,,,,,0,0,5,,,41,96,4
19968,note_on,,,,,0,0,8,,,60,96,7
19968,note_on,,,,,0,0,4,,,53,96,3
19968,note_off,,,,,0,0,8,,,60,0,7
19968,note_on,,,,,0,0,7,,,77,96,6
19968,note_off,,,,,256,0,7,,,77,0,6
19968,note_off,,,,,512,0,8,,,69,0,7
19968,note_on,,,,,0,0,8,,,65,96,7
19968,note_off,,,,,512,0,4,,,57,0,3
19968,note_off,,,,,512,0,5,,,45,0,4
20224,note_on,,,,,0,0,7,,,76,96,6
20224,note_off,,,,,256,0,7,,,77,0,6
20480,note_off,,,,,1024,0,3,,,60,0,2
20480,note_off,,,,,512,0,4,,,53,0,3
20480,note_on,,,,,0,0,4,,,46,96,3
20480,note_off,,,,,1024,0,2,,,65,0,1
20480,note_on,,,,,0,0,2,,,62,96,1
20480,note_on,,,,,0,0,6,,,67,96,5
20480,note_off,,,,,1024,0,6,,,69,0,5
20480,note_on,,,,,0,0,3,,,58,96,2
20480,note_on,,,,,0,0,1,,,67,96,0
20480,note_off,,,,,512,0,5,,,41,0,4
20480,note_on,,,,,0,0,5,,,46,96,4
20480,note_off,,,,,512,0,8,,,65,0,7
20480,note_off,,,,,0,0,8,,,60,0,7
20480,note_on,,,,,0,0,8,,,62,96,7
20480,note_on,,,,,0,0,8,,,58,96,7
20480,note_off,,,,,256,0,7,,,76,0,6
20480,note_on,,,,,0,0,7,,,77,96,6
20480,note_off,,,,,1024,0,1,,,69,0,0
20736,note_on,,,,,0,0,7,,,74,96,6
20736,note_off,,,,,256,0,7,,,77,0,6
20992,note_on,,,,,0,0,5,,,43,96,4
20992,note_off,,,,,256,0,7,,,74,0,6
20992,note_on,,,,,0,0,7,,,77,96,6
20992,note_off,,,,,512,0,4,,,46,0,3
20992,note_on,,,,,0,0,4,,,43,96,3
20992,note_off,,,,,512,0,5,,,46,0,4
20992,note_off,,,,,512,0,8,,,62,0,7
20992,note_on,,,,,0,0,8,,,62,96,7
20992,note_on,,,,,0,0,8,,,58,96,7
20992,note_off,,,,,0,0,8,,,58,0,7
21248,note_off,,,,,256,0,7,,,77,0,6
21248,note_on,,,,,0,0,7,,,82,96,6
21504,note_off,,,,,512,0,8,,,62,0,7
21504,note_on,,,,,0,0,8,,,64,96,7
21504,note_off,,,,,0,0,8,,,58,0,7
21504,note_on,,,,,0,0,8,,,55,96,7
21504,note_off,,,,,512,0,5,,,43,0,4
21504,note_on,,,,,0,0,5,,,48,96,4
21504,note_on,,,,,0,0,3,,,55,96,2
21504,note_on,,,,,0,0,7,,,82,96,6
21504,note_off,,,,,1024,0,3,,,58,0,2
21504,note_off,,,,,512,0,4,,,43,0,3
21504,note_on,,,,,0,0,4,,,48,96,3
21504,note_off,,,,,1024,0,2,,,62,0,1
21504,note_on,,,,,0,0,2,,,64,96,1
21504,note_off,,,,,256,0,7,,,82,0,6
21760,note_off,,,,,256,0,7,,,82,0,6
21760,note_on,,,,,0,0,7,,,76,96,6
22016,note_on,,,,,0,0,8,,,64,96,7
22016,note_off,,,,,512,0,4,,,48,0,3
22016,note_on,,,,,0,0,4,,,36,96,3
22016,note_off,,,,,512,0,8,,,64,0,7
22016,note_on,,,,,0,0,8,,,55,96,7
22016,note_on,,,,,0,0,7,,,76,96,6
22016,note_off,,,,,256,0,7,,,76,0,6
22016,note_off,,,,,512,0,5,,,48,0,4
22016,note_on,,,,,0,0,5,,,36,96,4
22016,note_off,,,,,0,0,8,,,55,0,7
22272,note_off,,,,,256,0,7,,,76,0,6
22272,note_on,,,,,0,0,7,,,77,96,6
22528,note_off,,,,,1024,0,2,,,64,0,1
22528,note_off,,,,,512,0,8,,,64,0,7
22528,note_on,,,,,0,0,8,,,60,96,7
22528,note_off,,,,,0,0,8,,,55,0,7
22528,note_on,,,,,0,0,2,,,60,96,1
22528,note_on,,,,,0,0,5,,,41,96,4
22528,note_off,,,,,512,0,5,,,36,0,4
22528,note_off,,,,,1024,0,3,,,55,0,2
22528,note_on,,,,,0,0,7,,,77,96,6
22528,note_on,,,,,0,0,3,,,57,96,2
22528,note_on,,,,,0,0,8,,,57,96,7
22528,note_off,,,,,2048,0,6,,,67,0,5
22528,note_on,,,,,0,0,6,,,65,96,5
22528,note_on,,,,,0,0,1,,,65,96,0
22528,note_off,,,,,512,0,4,,,36,0,3
22528,note_on,,,,,0,0,4,,,41,96,3
22528,note_off,,,,,256,0,7,,,77,0,6
22528,note_off,,,,,2048,0,1,,,67,0,0
23040,note_off,,,,,512,0,8,,,60,0,7
23040,note_on,,,,,0,0,8,,,53,96,7
23040,note_on,,,,,0,0,7,,,60,96,6
23040,note_on,,,,,0,0,6,,,53,96,5
23040,note_off,,,,,512,0,6,,,65,0,5
23040,note_off,,,,,0,0,8,,,57,0,7
23040,note_on,,,,,0,0,8,,,57,96,7
23040,note_off,,,,,512,0,7,,,77,0,6
23296,note_on,,,,,0,0,8,,,60,96,7
23296,note_off,,,,,256,0,8,,,57,0,7
23296,note_off,,,,,256,0,7,,,60,0,6
23296,note_on,,,,,0,0,7,,,63,96,6
23552,note_on,,,,,0,0,8,,,57,96,7
23552,note_off,,,,,1024,0,3,,,57,0,2
23552,note_off,,,,,512,0,6,,,53,0,5
23552,note_on,,,,,0,0,6,,,53,96,5
23552,note_off,,,,,0,0,8,,,53,0,7
23552,note_on,,,,,0,0,8,,,60,96,7
23552,note_off,,,,,1024,0,2,,,60,0,1
23552,note_off,,,,,1024,0,5,,,41,0,4
23552,note_off,,,,,1024,0,4,,,41,0,3
23552,note_off,,,,,256,0,7,,,63,0,6
23552,note_on,,,,,0,0,7,,,63,96,6
23552,note_off,,,,,256,0,8,,,60,0,7
23552,note_off,,,,,1024,0,1,,,65,0,0
23808,note_off,,,,,256,0,7,,,63,0,6
23808,note_off,,,,,256,0,8,,,60,0,7
23808,note_on,,,,,0,0,8,,,58,96,7
23808,note_on,,,,,0,0,7,,,62,96,6
24064,note_off,,,,,512,0,6,,,53,0,5
24064,note_off,,,,,256,0,7,,,62,0,6
24064,note_on,,,,,0,0,7,,,62,96,6
24064,note_on,,,,,0,0,6,,,53,96,5
24064,note_off,,,,,0,0,8,,,57,0,7
24064,note_off,,,,,256,0,8,,,58,0,7
24064,note_on,,,,,0,0,8,,,58,96,7
24064,note_on,,,,,0,0,8,,,53,96,7
24320,note_off,,,,,256,0,8,,,58,0,7
24320,note_on,,,,,0,0,7,,,60,96,6
24320,note_off,,,,,256,0,7,,,62,0,6
24320,note_on,,,,,0,0,8,,,57,96,7
24576,note_on,,,,,0,0,6,,,53,96,5
24576,note_off,,,,,512,0,6,,,53,0,5
24576,note_off,,,,,256,0,8,,,57,0,7
24576,note_off,,,,,0,0,8,,,53,0,7
24576,note_on,,,,,0,0,8,,,58,96,7
24576,note_on,,,,,1024,0,5,,,41,96,4
24576,note_off,,,,,256,0,7,,,60,0,6
24576,note_on,,,,,0,0,7,,,62,96,6
24832,note_off,,,,,256,0,7,,,62,0,6
24832,note_on,,,,,0,0,7,,,58,96,6
25088,note_on,,,,,0,0,8,,,58,96,7
25088,note_on,,,,,0,0,8,,,53,96,7
25088,note_off,,,,,512,0,8,,,58,0,7
25088,note_on,,,,,0,0,6,,,53,96,5
25088,note_off,,,,,512,0,6,,,53,0,5
25088,note_off,,,,,256,0,7,,,58,0,6
25088,note_on,,,,,0,0,7,,,62,96,6
25344,note_off,,,,,256,0,8,,,58,0,7
25344,note_off,,,,,256,0,7,,,62,0,6
25344,note_on,,,,,0,0,7,,,65,96,6
25344,note_on,,,,,0,0,8,,,60,96,7
25344,note_off,,,,,0,0,8,,,53,0,7
25344,note_on,,,,,0,0,8,,,57,96,7
25600,note_on,,,,,0,0,8,,,57,96,7
25600,note_off,,,,,0,0,8,,,57,0,7
25600,note_on,,,,,0,0,8,,,60,96,7
25600,note_off,,,,,256,0,8,,,60,0,7
25600,note_on,,,,,0,0,6,,,53,96,5
25600,note_on,,,,,0,0,7,,,65,96,6
25600,note_off,,,,,1024,0,5,,,41,0,4
25600,note_off,,,,,512,0,6,,,53,0,5
25600,note_off,,,,,256,0,7,,,65,0,6
25856,note_off,,,,,256,0,7,,,65,0,6
25856,note_on,,,,,0,0,7,,,64,96,6
25856,note_off,,,,,0,0,8,,,57,0,7
25856,note_on,,,,,0,0,8,,,58,96,7
25856,note_off,,,,,256,0,8,,,60,0,7
25856,note_on,,,,,0,0,8,,,55,96,7
26112,note_on,,,,,0,0,7,,,64,96,6
26112,note_off,,,,,256,0,8,,,58,0,7
26112,note_on,,,,,0,0,8,,,58,96,7
26112,note_off,,,,,0,0,8,,,55,0,7
26112,note_on,,,,,0,0,8,,,55,96,7
26112,note_off,,,,,256,0,7,,,64,0,6
26112,note_off,,,,,512,0,6,,,53,0,5
26112,note_on,,,,,0,0,6,,,53,96,5
26368,note_off,,,,,256,0,7,,,64,0,6
26368,note_on,,,,,0,0,8,,,57,96,7
26368,note_off,,,,,0,0,8,,,55,0,7
26368,note_on,,,,,0,0,7,,,62,96,6
26368,note_off,,,,,256,0,8,,,58,0,7
26368,note_on,,,,,0,0,8,,,53,96,7
26624,note_off,,,,,256,0,7,,,62,0,6
26624,note_on,,,,,1024,0,5,,,41,96,4
26624,note_on,,,,,0,0,7,,,64,96,6
26624,note_off,,,,,512,0,6,,,53,0,5
26624,note_off,,,,,0,0,8,,,53,0,7
26624,note_on,,,,,0,0,8,,,58,96,7
26624,note_off,,,,,256,0,8,,,57,0,7
26624,note_on,,,,,0,0,8,,,55,96,7
26624,note_on,,,,,0,0,6,,,53,96,5
26880,note_on,,,,,0,0,7,,,58,96,6
26880,note_on,,,,,0,0,8,,,52,96,7
26880,note_off,,,,,0,0,8,,,55,0,7
26880,note_off,,,,,256,0,7,,,64,0,6
26880,note_off,,,,,256,0,8,,,58,0,7
26880,note_on,,,,,0,0,8,,,55,96,7
27136,note_on,,,,,0,0,6,,,53,96,5
27136,note_off,,,,,512,0,6,,,53,0,5
27136,note_on,,,,,0,0,7,,,64,96,6
27136,note_off,,,,,256,0,7,,,58,0,6
27136,note_off,,,,,256,0,8,,,55,0,7
27136,note_on,,,,,0,0,8,,,58,96,7
27136,note_off,,,,,0,0,8,,,52,0,7
27136,note_on,,,,,0,0,8,,,55,96,7
27392,note_on,,,,,0,0,8,,,58,96,7
27392,note_off,,,,,0,0,8,,,55,0,7
27392,note_on,,,,,0,0,7,,,67,96,6
27392,note_on,,,,,0,0,8,,,64,96,7
27392,note_off,,,,,256,0,7,,,64,0,6
27392,note_off,,,,,256,0,8,,,58,0,7
27648,note_off,,,,,256,0,8,,,64,0,7
27648,note_on,,,,,0,0,8,,,58,96,7
27648,note_off,,,,,0,0,8,,,58,0,7
27648,note_on,,,,,0,0,8,,,64,96,7
27648,note_on,,,,,0,0,6,,,53,96,5
27648,note_off,,,,,1024,0,5,,,41,0,4
27648,note_on,,,,,0,0,7,,,67,96,6
27648,note_off,,,,,256,0,7,,,67,0,6
27648,note_off,,,,,512,0,6,,,53,0,5
27904,note_off,,,,,0,0,8,,,58,0,7
27904,note_on,,,,,0,0,7,,,65,96,6
27904,note_off,,,,,256,0,7,,,67,0,6
27904,note_off,,,,,256,0,8,,,64,0,7
27904,note_on,,,,,0,0,8,,,57,96,7
27904,note_on,,,,,0,0,8,,,60,96,7
28160,note_on,,,,,0,0,8,,,60,96,7
28160,note_on,,,,,0,0,6,,,53,96,5
28160,note_off,,,,,0,0,8,,,57,0,7
28160,note_on,,,,,0,0,8,,,57,96,7
28160,note_off,,,,,256,0,7,,,65,0,6
28160,note_on,,,,,0,0,7,,,65,96,6
28160,note_off,,,,,512,0,6,,,53,0,5
28160,note_off,,,,,256,0,8,,,60,0,7
28416,note_off,,,,,256,0,7,,,65,0,6
28416,note_on,,,,,0,0,7,,,64,96,6
28416,note_off,,,,,256,0,8,,,60,0,7
28416,note_on,,,,,0,0,8,,,58,96,7
28416,note_off,,,,,0,0,8,,,57,0,7
28416,note_on,,,,,0,0,8,,,55,96,7
28672,note_off,,,,,512,0,6,,,53,0,5
28672,note_on,,,,,0,0,7,,,65,96,6
28672,note_off,,,,,256,0,7,,,64,0,6
28672,note_on,,,,,0,0,8,,,57,96,7
28672,note_off,,,,,256,0,8,,,58,0,7
28672,note_on,,,,,0,0,8,,,60,96,7
28672,note_off,,,,,0,0,8,,,55,0,7
28672,note_on,,,,,0,0,6,,,53,96,5
28672,note_on,,,,,1024,0,5,,,41,96,4
28928,note_off,,,,,256,0,8,,,60,0,7
28928,note_off,,,,,256,0,7,,,65,0,6
28928,note_on,,,,,0,0,7,,,60,96,6
28928,note_on,,,,,0,0,8,,,53,96,7
28928,note_on,,,,,0,0,8,,,57,96,7
28928,note_off,,,,,0,0,8,,,57,0,7
29184,note_on,,,,,0,0,7,,,65,96,6
29184,note_off,,,,,256,0,7,,,60,0,6
29184,note_on,,,,,0,0,8,,,57,96,7
29184,note_off,,,,,512,0,5,,,41,0,4
29184,note_off,,,,,256,0,8,,,57,0,7
29184,note_on,,,,,0,0,8,,,60,96,7
29184,note_off,,,,,0,0,8,,,53,0,7
29184,note_on,,,,,0,0,5,,,48,96,4
29440,note_on,,,,,0,0,8,,,60,96,7
29440,note_off,,,,,0,0,8,,,57,0,7
29440,note_on,,,,,0,0,8,,,65,96,7
29440,note_on,,,,,0,0,7,,,69,96,6
29440,note_off,,,,,256,0,7,,,65,0,6
29440,note_off,,,,,256,0,8,,,60,0,7
29696,note_on,,,,,0,0,8,,,60,96,7
29696,note_off,,,,,512,0,5,,,48,0,4
29696,note_on,,,,,6144,0,3,,,60,96,2
29696,note_on,,,,,6144,0,1,,,69,96,0
29696,note_on,,,,,6144,0,2,,,65,96,1
29696,note_off,,,,,0,0,8,,,60,0,7
29696,note_on,,,,,6144,0,4,,,53,96,3
29696,note_on,,,,,0,0,8,,,65,96,7
29696,note_off,,,,,256,0,8,,,65,0,7
29696,note_on,,,,,0,0,5,,,53,96,4
29696,note_off,,,,,256,0,7,,,69,0,6
29696,note_on,,,,,0,0,7,,,69,96,6
29696,note_on,,,,,0,0,6,,,69,96,5
29696,note_off,,,,,1024,0,6,,,53,0,5
29952,note_off,,,,,256,0,7,,,69,0,6
29952,note_on,,,,,0,0,7,,,67,96,6
30208,note_on,,,,,0,0,5,,,52,96,4
30208,note_on,,,,,0,0,8,,,57,96,7
30208,note_off,,,,,0,0,8,,,60,0,7
30208,note_on,,,,,0,0,7,,,67,96,6
30208,note_on,,,,,0,0,4,,,52,96,3
30208,note_off,,,,,512,0,8,,,65,0,7
30208,note_off,,,,,256,0,7,,,67,0,6
30208,note_off,,,,,512,0,5,,,53,0,4
30208,note_on,,,,,0,0,8,,,60,96,7
30208,note_off,,,,,512,0,4,,,53,0,3
30464,note_off,,,,,256,0,7,,,67,0,6
30464,note_on,,,,,0,0,7,,,65,96,6
30720,note_on,,,,,0,0,7,,,65,96,6
30720,note_off,,,,,512,0,8,,,60,0,7
30720,note_off,,,,,1024,0,3,,,60,0,2
30720,note_off,,,,,1024,0,2,,,65,0,1
30720,note_off,,,,,512,0,5,,,52,0,4
30720,note_on,,,,,0,0,3,,,62,96,2
30720,note_off,,,,,256,0,7,,,65,0,6
30720,note_on,,,,,0,0,1,,,69,96,0
30720,note_off,,,,,1024,0,1,,,69,0,0
30720,note_on,,,,,0,0,8,,,62,96,7
30720,note_off,,,,,0,0,8,,,57,0,7
30720,note_on,,,,,0,0,2,,,65,96,1
30720,note_on,,,,,0,0,8,,,57,96,7
30720,note_on,,,,,0,0,4,,,50,96,3
30720,note_on,,,,,0,0,5,,,50,96,4
30720,note_off,,,,,1024,0,6,,,69,0,5
30720,note_off,,,,,512,0,4,,,52,0,3
30720,note_on,,,,,0,0,6,,,69,96,5
30976,note_on,,,,,0,0,7,,,62,96,6
30976,note_off,,,,,256,0,7,,,65,0,6
31232,note_off,,,,,512,0,4,,,50,0,3
31232,note_on,,,,,0,0,4,,,48,96,3
31232,note_on,,,,,0,0,8,,,62,96,7
31232,note_off,,,,,512,0,5,,,50,0,4
31232,note_on,,,,,0,0,5,,,48,96,4
31232,note_on,,,,,0,0,8,,,57,96,7
31232,note_off,,,,,0,0,8,,,57,0,7
31232,note_off,,,,,512,0,8,,,62,0,7
31232,note_on,,,,,0,0,7,,,65,96,6
31232,note_off,,,,,256,0,7,,,62,0,6
31488,note_on,,,,,0,0,7,,,69,96,6
31488,note_off,,,,,256,0,7,,,65,0,6
31744,note_on,,,,,0,0,3,,,62,96,2
31744,note_off,,,,,1024,0,3,,,62,0,2
31744,note_off,,,,,0,0,8,,,57,0,7
31744,note_on,,,,,0,0,4,,,46,96,3
31744,note_off,,,,,512,0,4,,,48,0,3
31744,note_on,,,,,0,0,2,,,65,96,1
31744,note_off,,,,,1024,0,2,,,65,0,1
31744,note_on,,,,,0,0,8,,,62,96,7
31744,note_on,,,,,0,0,8,,,62,96,7
31744,note_off,,,,,512,0,8,,,62,0,7
31744,note_off,,,,,512,0,5,,,48,0,4
31744,note_off,,,,,1024,0,6,,,69,0,5
31744,note_on,,,,,0,0,6,,,70,96,5
31744,note_on,,,,,0,0,5,,,46,96,4
31744,note_off,,,,,1024,0,1,,,69,0,0
31744,note_on,,,,,0,0,7,,,67,96,6
31744,note_off,,,,,256,0,7,,,69,0,6
31744,note_on,,,,,0,0,1,,,70,96,0
32000,note_on,,,,,0,0,7,,,65,96,6
32000,note_off,,,,,256,0,7,,,67,0,6
32256,note_on,,,,,0,0,8,,,62,96,7
32256,note_on,,,,,0,0,8,,,58,96,7
32256,note_off,,,,,512,0,8,,,62,0,7
32256,note_off,,,,,512,0,1,,,70,0,0
32256,note_off,,,,,512,0,2,,,65,0,1
32256,note_off,,,,,512,0,3,,,62,0,2
32256,note_on,,,,,0,0,1,,,72,96,0
32256,note_on,,,,,0,0,2,,,67,96,1
32256,note_off,,,,,512,0,6,,,70,0,5
32256,note_off,,,,,0,0,8,,,62,0,7
32256,note_on,,,,,0,0,3,,,58,96,2
32256,note_on,,,,,0,0,5,,,43,96,4
32256,note_on,,,,,0,0,6,,,72,96,5
32256,note_off,,,,,256,0,7,,,65,0,6
32256,note_on,,,,,0,0,7,,,65,96,6
32256,note_off,,,,,512,0,5,,,46,0,4
32512,note_on,,,,,0,0,6,,,74,96,5
32512,note_on,,,,,0,0,1,,,74,96,0
32512,note_off,,,,,256,0,1,,,72,0,0
32512,note_off,,,,,256,0,7,,,65,0,6
32512,note_on,,,,,0,0,7,,,64,96,6
32512,note_off,,,,,256,0,6,,,72,0,5
32768,note_off,,,,,256,0,6,,,74,0,5
32768,note_on,,,,,0,0,6,,,72,96,5
32768,note_on,,,,,0,0,1,,,72,96,0
32768,note_off,,,,,256,0,1,,,74,0,0
32768,note_off,,,,,512,0,5,,,43,0,4
32768,note_off,,,,,1024,0,4,,,46,0,3
32768,note_on,,,,,0,0,5,,,48,96,4
32768,note_on,,,,,0,0,4,,,48,96,3
32768,note_on,,,,,0,0,2,,,64,96,1
32768,note_on,,,,,0,0,8,,,55,96,7
32768,note_on,,,,,0,0,8,,,60,96,7
32768,note_off,,,,,0,0,8,,,62,0,7
32768,note_off,,,,,512,0,8,,,58,0,7
32768,note_off,,,,,256,0,7,,,64,0,6
32768,note_on,,,,,0,0,7,,,64,96,6
32768,note_off,,,,,512,0,2,,,67,0,1
33280,note_on,,,,,0,0,5,,,46,96,4
33280,note_off,,,,,512,0,5,,,48,0,4
33280,note_off,,,,,512,0,2,,,64,0,1
33280,note_off,,,,,1024,0,3,,,58,0,2
33280,note_on,,,,,0,0,3,,,57,96,2
33280,note_on,,,,,0,0,2,,,65,96,1
33792,note_on,,,,,0,0,6,,,70,96,5
33792,note_off,,,,,1024,0,6,,,72,0,5
33792,note_off,,,,,1024,0,4,,,48,0,3
33792,note_on,,,,,0,0,4,,,48,96,3
33792,note_off,,,,,1024,0,8,,,60,0,7
33792,note_off,,,,,1024,0,1,,,72,0,0
33792,note_on,,,,,0,0,1,,,70,96,0
33792,note_off,,,,,1024,0,7,,,64,0,6
33792,note_off,,,,,512,0,3,,,57,0,2
33792,note_on,,,,,0,0,3,,,55,96,2
33792,note_on,,,,,0,0,5,,,48,96,4
33792,note_off,,,,,512,0,5,,,46,0,4
33792,note_off,,,,,0,0,8,,,55,0,7
34304,note_off,,,,,1024,0,2,,,65,0,1
34304,note_on,,,,,0,0,2,,,64,96,1
34304,note_off,,,,,512,0,3,,,55,0,2
34304,note_on,,,,,0,0,3,,,60,96,2
34304,note_off,,,,,512,0,5,,,48,0,4
34304,note_on,,,,,0,0,5,,,36,96,4
34816,note_on,,,,,0,0,3,,,60,96,2
34816,note_off,,,,,512,0,5,,,36,0,4
34816,note_on,,,,,0,0,6,,,69,96,5
34816,note_off,,,,,1024,0,6,,,70,0,5
34816,note_on,,,,,0,0,5,,,41,96,4
34816,note_on,,,,,0,0,2,,,65,96,1
34816,note_off,,,,,512,0,2,,,64,0,1
34816,note_off,,,,,1024,0,4,,,48,0,3
34816,note_on,,,,,0,0,1,,,69,96,0
34816,note_off,,,,,1024,0,1,,,70,0,0
34816,note_on,,,,,0,0,4,,,41,96,3
34816,note_off,,,,,512,0,3,,,60,0,2
35328,note_on,,,,,1536,0,8,,,69,96,7
35328,note_on,,,,,1536,0,7,,,77,96,6
35328,note_off,,,,,512,0,6,,,69,0,5
35328,note_on,,,,,0,0,6,,,57,96,5
35328,note_on,,,,,0,0,8,,,69,96,7
35584,note_off,,,,,256,0,7,,,77,0,6
35584,note_on,,,,,0,0,7,,,81,96,6
35584,note_off,,,,,256,0,8,,,69,0,7
35584,note_on,,,,,0,0,8,,,72,96,7
35584,note_off,,,,,0,0,8,,,69,0,7
35584,note_on,,,,,0,0,8,,,77,96,7
35840,note_on,,,,,0,0,8,,,72,96,7
35840,note_off,,,,,1024,0,2,,,65,0,1
35840,note_off,,,,,256,0,8,,,77,0,7
35840,note_off,,,,,512,0,6,,,57,0,5
35840,note_on,,,,,0,0,6,,,57,96,5
35840,note_off,,,,,1024,0,1,,,69,0,0
35840,note_off,,,,,1024,0,3,,,60,0,2
35840,note_off,,,,,0,0,8,,,72,0,7
35840,note_on,,,,,0,0,8,,,77,96,7
35840,note_off,,,,,1024,0,4,,,41,0,3
35840,note_off,,,,,1024,0,5,,,41,0,4
35840,note_off,,,,,256,0,7,,,81,0,6
35840,note_on,,,,,0,0,7,,,81,96,6
36096,note_on,,,,,0,0,7,,,79,96,6
36096,note_on,,,,,0,0,8,,,70,96,7
36096,note_off,,,,,0,0,8,,,72,0,7
36096,note_on,,,,,0,0,8,,,76,96,7
36096,note_off,,,,,256,0,8,,,77,0,7
36096,note_off,,,,,256,0,7,,,81,0,6
36352,note_off,,,,,0,0,8,,,70,0,7
36352,note_off,,,,,256,0,7,,,79,0,6
36352,note_on,,,,,0,0,8,,,70,96,7
36352,note_on,,,,,0,0,8,,,76,96,7
36352,note_on,,,,,0,0,7,,,79,96,6
36352,note_off,,,,,256,0,8,,,76,0,7
36352,note_off,,,,,512,0,6,,,57,0,5
36352,note_on,,,,,0,0,6,,,57,96,5
36608,note_on,,,,,0,0,8,,,69,96,7
36608,note_off,,,,,0,0,8,,,70,0,7
36608,note_on,,,,,0,0,8,,,74,96,7
36608,note_off,,,,,256,0,8,,,76,0,7
36608,note_on,,,,,0,0,7,,,77,96,6
36608,note_off,,,,,256,0,7,,,79,0,6
36864,note_on,,,,,0,0,7,,,79,96,6
36864,note_on,,,,,1024,0,5,,,49,96,4
36864,note_off,,,,,256,0,7,,,77,0,6
36864,note_on,,,,,0,0,8,,,76,96,7
36864,note_off,,,,,0,0,8,,,69,0,7
36864,note_off,,,,,256,0,8,,,74,0,7
36864,note_on,,,,,0,0,8,,,69,96,7
36864,note_on,,,,,0,0,6,,,57,96,5
36864,note_off,,,,,512,0,6,,,57,0,5
37120,note_off,,,,,256,0,7,,,79,0,6
37120,note_off,,,,,0,0,8,,,69,0,7
37120,note_on,,,,,0,0,8,,,73,96,7
37120,note_off,,,,,256,0,8,,,76,0,7
37120,note_on,,,,,0,0,8,,,67,96,7
37120,note_on,,,,,0,0,7,,,76,96,6
37376,note_off,,,,,512,0,6,,,57,0,5
37376,note_on,,,,,0,0,8,,,69,96,7
37376,note_on,,,,,0,0,7,,,76,96,6
37376,note_off,,,,,256,0,7,,,76,0,6
37376,note_off,,,,,256,0,8,,,73,0,7
37376,note_on,,,,,0,0,8,,,73,96,7
37376,note_off,,,,,0,0,8,,,67,0,7
37376,note_on,,,,,0,0,6,,,57,96,5
37632,note_on,,,,,0,0,8,,,73,96,7
37632,note_off,,,,,0,0,8,,,69,0,7
37632,note_on,,,,,0,0,7,,,79,96,6
37632,note_off,,,,,256,0,8,,,73,0,7
37632,note_off,,,,,256,0,7,,,76,0,6
37632,note_on,,,,,0,0,8,,,76,96,7
37888,note_off,,,,,512,0,6,,,57,0,5
37888,note_off,,,,,1024,0,5,,,49,0,4
37888,note_on,,,,,0,0,6,,,57,96,5
37888,note_on,,,,,0,0,8,,,73,96,7
37888,note_on,,,,,0,0,7,,,79,96,6
37888,note_off,,,,,256,0,7,,,79,0,6
37888,note_off,,,,,256,0,8,,,76,0,7
37888,note_on,,,,,0,0,8,,,76,96,7
37888,note_off,,,,,0,0,8,,,73,0,7
38144,note_on,,,,,0,0,8,,,74,96,7
38144,note_off,,,,,256,0,8,,,76,0,7
38144,note_on,,,,,0,0,7,,,77,96,6
38144,note_off,,,,,256,0,7,,,79,0,6
38144,note_off,,,,,0,0,8,,,73,0,7
38144,note_on,,,,,0,0,8,,,69,96,7
38400,note_on,,,,,0,0,8,,,69,96,7
38400,note_off,,,,,0,0,8,,,69,0,7
38400,note_on,,,,,0,0,8,,,74,96,7
38400,note_off,,,,,256,0,8,,,74,0,7
38400,note_off,,,,,256,0,7,,,77,0,6
38400,note_on,,,,,0,0,7,,,77,96,6
38400,note_on,,,,,0,0,6,,,57,96,5
38400,note_off,,,,,512,0,6,,,57,0,5
38656,note_off,,,,,256,0,8,,,74,0,7
38656,note_on,,,,,0,0,8,,,67,96,7
38656,note_off,,,,,256,0,7,,,77,0,6
38656,note_on,,,,,0,0,7,,,76,96,6
38656,note_off,,,,,0,0,8,,,69,0,7
38656,note_on,,,,,0,0,8,,,73,96,7
38912,note_off,,,,,0,0,8,,,67,0,7
38912,note_off,,,,,256,0,8,,,73,0,7
38912,note_on,,,,,0,0,8,,,69,96,7
38912,note_on,,,,,0,0,8,,,74,96,7
38912,note_off,,,,,256,0,7,,,76,0,6
38912,note_on,,,,,0,0,6,,,57,96,5
38912,note_off,,,,,512,0,6,,,57,0,5
38912,note_on,,,,,0,0,7,,,77,96,6
38912,note_on,,,,,1024,0,5,,,50,96,4
39168,note_on,,,,,0,0,7,,,74,96,6
39168,note_off,,,,,256,0,8,,,74,0,7
39168,note_on,,,,,0,0,8,,,71,96,7
39168,note_off,,,,,0,0,8,,,69,0,7
39168,note_on,,,,,0,0,8,,,65,96,7
39168,note_off,,,,,256,0,7,,,77,0,6
39424,note_off,,,,,256,0,7,,,74,0,6
39424,note_on,,,,,0,0,7,,,74,96,6
39424,note_off,,,,,512,0,6,,,57,0,5
39424,note_off,,,,,0,0,8,,,65,0,7
39424,note_on,,,,,0,0,8,,,71,96,7
39424,note_off,,,,,256,0,8,,,71,0,7
39424,note_on,,,,,0,0,6,,,57,96,5
39424,note_on,,,,,0,0,8,,,65,96,7
39680,note_off,,,,,256,0,8,,,71,0,7
39680,note_on,,,,,0,0,8,,,74,96,7
39680,note_off,,,,,0,0,8,,,65,0,7
39680,note_on,,,,,0,0,8,,,69,96,7
39680,note_off,,,,,256,0,7,,,74,0,6
39680,note_on,,,,,0,0,7,,,77,96,6
39936,note_on,,,,,0,0,6,,,57,96,5
39936,note_off,,,,,256,0,8,,,74,0,7
39936,note_off,,,,,1024,0,5,,,50,0,4
39936,note_on,,,,,0,0,8,,,74,96,7
39936,note_off,,,,,0,0,8,,,69,0,7
39936,note_on,,,,,0,0,8,,,69,96,7
39936,note_on,,,,,0,0,7,,,77,96,6
39936,note_off,,,,,512,0,6,,,57,0,5
39936,note_off,,,,,256,0,7,,,77,0,6
40192,note_on,,,,,0,0,8,,,67,96,7
40192,note_off,,,,,256,0,7,,,77,0,6
40192,note_on,,,,,0,0,8,,,73,96,7
40192,note_on,,,,,0,0,7,,,76,96,6
40192,note_off,,,,,256,0,8,,,74,0,7
40192,note_off,,,,,0,0,8,,,69,0,7
40448,note_on,,,,,0,0,8,,,73,96,7
40448,note_on,,,,,0,0,8,,,67,96,7
40448,note_off,,,,,256,0,8,,,73,0,7
40448,note_off,,,,,0,0,8,,,67,0,7
40448,note_on,,,,,0,0,7,,,76,96,6
40448,note_off,,,,,256,0,7,,,76,0,6
40448,note_on,,,,,0,0,6,,,57,96,5
40448,note_off,,,,,512,0,6,,,57,0,5
40704,note_off,,,,,256,0,8,,,73,0,7
40704,note_off,,,,,256,0,7,,,76,0,6
40704,note_on,,,,,0,0,8,,,71,96,7
40704,note_off,,,,,0,0,8,,,67,0,7
40704,note_on,,,,,0,0,7,,,74,96,6
40704,note_on,,,,,0,0,8,,,65,96,7
40960,note_off,,,,,0,0,8,,,65,0,7
40960,note_off,,,,,256,0,8,,,71,0,7
40960,note_on,,,,,1024,0,5,,,45,96,4
40960,note_on,,,,,0,0,7,,,74,96,6
40960,note_off,,,,,256,0,7,,,74,0,6
40960,note_off,,,,,512,0,6,,,57,0,5
40960,note_on,,,,,0,0,6,,,57,96,5
40960,note_on,,,,,0,0,8,,,71,96,7
40960,note_on,,,,,0,0,8,,,65,96,7
41216,note_off,,,,,0,0,8,,,65,0,7
41216,note_on,,,,,0,0,8,,,69,96,7
41216,note_off,,,,,256,0,8,,,71,0,7
41216,note_on,,,,,0,0,8,,,64,96,7
41216,note_off,,,,,256,0,7,,,74,0,6
41216,note_on,,,,,0,0,7,,,73,96,6
41472,note_on,,,,,0,0,8,,,64,96,7
41472,note_off,,,,,256,0,8,,,69,0,7
41472,note_on,,,,,0,0,8,,,69,96,7
41472,note_off,,,,,0,0,8,,,64,0,7
41472,note_off,,,,,256,0,7,,,73,0,6
41472,note_on,,,,,0,0,7,,,73,96,6
41728,note_on,,,,,0,0,8,,,67,96,7
41728,note_on,,,,,0,0,7,,,76,96,6
41728,note_off,,,,,0,0,8,,,64,0,7
41728,note_off,,,,,256,0,8,,,69,0,7
41728,note_on,,,,,0,0,8,,,61,96,7
41728,note_off,,,,,256,0,7,,,73,0,6
41984,note_on,,,,,0,0,8,,,65,96,7
41984,note_off,,,,,256,0,7,,,76,0,6
41984,note_on,,,,,0,0,7,,,76,96,6
41984,note_off,,,,,1024,0,6,,,57,0,5
41984,note_on,,,,,0,0,6,,,69,96,5
41984,note_on,,,,,6144,0,4,,,50,96,3
41984,note_off,,,,,0,0,8,,,61,0,7
41984,note_on,,,,,0,0,5,,,50,96,4
41984,note_off,,,,,1024,0,5,,,45,0,4
41984,note_on,,,,,6144,0,1,,,69,96,0
41984,note_on,,,,,6144,0,3,,,53,96,2
41984,note_on,,,,,6144,0,2,,,65,96,1
41984,note_off,,,,,256,0,8,,,67,0,7
41984,note_on,,,,,0,0,8,,,57,96,7
42240,note_on,,,,,0,0,7,,,74,96,6
42240,note_off,,,,,256,0,7,,,76,0,6
42496,note_on,,,,,0,0,1,,,70,96,0
42496,note_off,,,,,512,0,1,,,69,0,0
42496,note_on,,,,,0,0,7,,,74,96,6
42496,note_on,,,,,0,0,5,,,50,96,4
42496,note_on,,,,,0,0,6,,,70,96,5
42496,note_on,,,,,0,0,8,,,65,96,7
42496,note_off,,,,,0,0,8,,,57,0,7
42496,note_off,,,,,512,0,8,,,65,0,7
42496,note_off,,,,,256,0,7,,,74,0,6
42496,note_on,,,,,0,0,8,,,53,96,7
42496,note_off,,,,,512,0,6,,,69,0,5
42496,note_off,,,,,512,0,5,,,50,0,4
42752,note_on,,,,,0,0,7,,,72,96,6
42752,note_on,,,,,0,0,8,,,55,96,7
42752,note_on,,,,,0,0,3,,,55,96,2
42752,note_off,,,,,768,0,3,,,53,0,2
42752,note_off,,,,,256,0,8,,,53,0,7
42752,note_off,,,,,256,0,7,,,74,0,6
43008,note_on,,,,,0,0,6,,,72,96,5
43008,note_off,,,,,1024,0,4,,,50,0,3
43008,note_on,,,,,0,0,4,,,45,96,3
43008,note_off,,,,,256,0,7,,,72,0,6
43008,note_off,,,,,512,0,6,,,70,0,5
43008,note_on,,,,,0,0,7,,,72,96,6
43008,note_off,,,,,512,0,5,,,50,0,4
43008,note_on,,,,,0,0,2,,,65,96,1
43008,note_off,,,,,1024,0,2,,,65,0,1
43008,note_on,,,,,0,0,8,,,57,96,7
43008,note_off,,,,,512,0,1,,,70,0,0
43008,note_on,,,,,0,0,1,,,72,96,0
43008,note_off,,,,,0,0,8,,,55,0,7
43008,note_on,,,,,0,0,8,,,65,96,7
43008,note_off,,,,,256,0,8,,,65,0,7
43008,note_on,,,,,0,0,3,,,57,96,2
43008,note_off,,,,,256,0,3,,,55,0,2
43008,note_on,,,,,0,0,5,,,45,96,4
43264,note_off,,,,,256,0,7,,,72,0,6
43264,note_on,,,,,0,0,7,,,69,96,6
43520,note_off,,,,,256,0,7,,,69,0,6
43520,note_on,,,,,0,0,7,,,69,96,6
43520,note_on,,,,,0,0,2,,,63,96,1
43520,note_off,,,,,512,0,3,,,57,0,2
43520,note_on,,,,,0,0,3,,,55,96,2
43520,note_off,,,,,512,0,5,,,45,0,4
43520,note_on,,,,,0,0,8,,,55,96,7
43520,note_off,,,,,0,0,8,,,57,0,7
43520,note_on,,,,,0,0,5,,,45,96,4
43520,note_off,,,,,512,0,2,,,65,0,1
43520,note_on,,,,,0,0,8,,,63,96,7
43520,note_off,,,,,512,0,8,,,65,0,7
43776,note_on,,,,,0,0,7,,,72,96,6
43776,note_off,,,,,256,0,7,,,69,0,6
44032,note_on,,,,,0,0,6,,,65,96,5
44032,note_off,,,,,1024,0,6,,,72,0,5
44032,note_off,,,,,512,0,8,,,63,0,7
44032,note_on,,,,,0,0,8,,,62,96,7
44032,note_off,,,,,0,0,8,,,55,0,7
44032,note_on,,,,,0,0,8,,,53,96,7
44032,note_on,,,,,0,0,5,,,46,96,4
44032,note_off,,,,,512,0,5,,,45,0,4
44032,note_off,,,,,256,0,7,,,72,0,6
44032,note_on,,,,,0,0,7,,,72,96,6
44032,note_on,,,,,0,0,3,,,53,96,2
44032,note_off,,,,,512,0,3,,,55,0,2
44032,note_off,,,,,1024,0,4,,,45,0,3
44032,note_on,,,,,0,0,2,,,62,96,1
44032,note_off,,,,,512,0,2,,,63,0,1
44032,note_on,,,,,0,0,4,,,46,96,3
44032,note_on,,,,,0,0,1,,,65,96,0
44032,note_off,,,,,1024,0,1,,,72,0,0
44288,note_off,,,,,256,0,7,,,72,0,6
44288,note_on,,,,,0,0,7,,,70,96,6
44544,note_on,,,,,0,0,5,,,46,96,4
44544,note_off,,,,,512,0,8,,,62,0,7
44544,note_on,,,,,0,0,8,,,62,96,7
44544,note_off,,,,,512,0,5,,,46,0,4
44544,note_off,,,,,256,0,7,,,70,0,6
44544,note_on,,,,,0,0,7,,,70,96,6
44800,note_off,,,,,256,0,7,,,70,0,6
44800,note_on,,,,,0,0,7,,,69,96,6
45056,note_off,,,,,0,0,8,,,53,0,7
45056,note_off,,,,,512,0,5,,,46,0,4
45056,note_on,,,,,0,0,3,,,60,96,2
45056,note_off,,,,,1024,0,3,,,53,0,2
45056,note_on,,,,,0,0,5,,,58,96,4
45056,note_on,,,,,0,0,6,,,67,96,5
45056,note_off,,,,,1024,0,6,,,65,0,5
45056,note_off,,,,,512,0,8,,,62,0,7
45056,note_off,,,,,1024,0,2,,,62,0,1
45056,note_on,,,,,0,0,2,,,64,96,1
45056,note_on,,,,,0,0,7,,,67,96,6
45056,note_off,,,,,1024,0,4,,,46,0,3
45056,note_on,,,,,0,0,4,,,58,96,3
45056,note_on,,,,,0,0,8,,,64,96,7
45056,note_off,,,,,1024,0,1,,,65,0,0
45056,note_on,,,,,0,0,1,,,67,96,0
45056,note_on,,,,,0,0,8,,,60,96,7
45056,note_off,,,,,256,0,7,,,69,0,6
45568,note_off,,,,,512,0,5,,,58,0,4
45568,note_on,,,,,0,0,5,,,57,96,4
45568,note_off,,,,,512,0,4,,,58,0,3
45568,note_on,,,,,0,0,4,,,57,96,3
46080,note_on,,,,,0,0,6,,,69,96,5
46080,note_on,,,,,0,0,4,,,55,96,3
46080,note_off,,,,,1024,0,8,,,64,0,7
46080,note_off,,,,,1024,0,6,,,67,0,5
46080,note_off,,,,,512,0,4,,,57,0,3
46080,note_off,,,,,0,0,8,,,60,0,7
46080,note_on,,,,,0,0,5,,,55,96,4
46080,note_off,,,,,512,0,5,,,57,0,4
46080,note_on,,,,,0,0,3,,,60,96,2
46080,note_on,,,,,0,0,2,,,65,96,1
46080,note_off,,,,,1024,0,3,,,60,0,2
46080,note_off,,,,,1024,0,2,,,64,0,1
46080,note_off,,,,,1024,0,1,,,67,0,0
46080,note_off,,,,,1024,0,7,,,67,0,6
46080,note_on,,,,,0,0,1,,,69,96,0
46592,note_on,,,,,0,0,6,,,70,96,5
46592,note_off,,,,,512,0,6,,,69,0,5
46592,note_on,,,,,0,0,4,,,53,96,3
46592,note_on,,,,,0,0,5,,,53,96,4
46592,note_off,,,,,512,0,4,,,55,0,3
46592,note_off,,,,,512,0,1,,,69,0,0
46592,note_on,,,,,0,0,1,,,70,96,0
46592,note_off,,,,,512,0,5,,,55,0,4
47104,note_on,,,,,0,0,3,,,60,96,2
47104,note_off,,,,,1024,0,2,,,65,0,1
47104,note_on,,,,,0,0,2,,,65,96,1
47104,note_off,,,,,512,0,1,,,70,0,0
47104,note_off,,,,,512,0,5,,,53,0,4
47104,note_on,,,,,0,0,1,,,67,96,0
47104,note_off,,,,,512,0,6,,,70,0,5
47104,note_off,,,,,1024,0,3,,,60,0,2
47104,note_off,,,,,512,0,4,,,53,0,3
47104,note_on,,,,,0,0,4,,,60,96,3
47104,note_on,,,,,0,0,5,,,60,96,4
47104,note_on,,,,,0,0,6,,,67,96,5
47616,note_off,,,,,512,0,3,,,60,0,2
47616,note_on,,,,,0,0,3,,,58,96,2
47616,note_off,,,,,512,0,5,,,60,0,4
47616,note_on,,,,,0,0,5,,,60,96,4
47872,note_off,,,,,256,0,3,,,58,0,2
47872,note_on,,,,,0,0,3,,,57,96,2
48128,note_on,,,,,0,0,5,,,52,96,4
48128,note_on,,,,,0,0,3,,,58,96,2
48128,note_off,,,,,256,0,3,,,57,0,2
48128,note_off,,,,,1024,0,4,,,60,0,3
48128,note_off,,,,,512,0,5,,,60,0,4
48128,note_on,,,,,0,0,2,,,64,96,1
48128,note_off,,,,,1024,0,2,,,65,0,1
48128,note_on,,,,,0,0,4,,,48,96,3
48640,note_off,,,,,512,0,5,,,52,0,4
48640,note_on,,,,,0,0,5,,,52,96,4
48640,note_off,,,,,512,0,3,,,58,0,2
48640,note_on,,,,,0,0,3,,,55,96,2
49152,note_off,,,,,1024,0,4,,,48,0,3
49152,note_on,,,,,0,0,4,,,53,96,3
49152,note_on,,,,,0,0,2,,,60,96,1
49152,note_off,,,,,1024,0,2,,,64,0,1
49152,note_off,,,,,2048,0,1,,,67,0,0
49152,note_on,,,,,0,0,5,,,41,96,4
49152,note_on,,,,,0,0,1,,,65,96,0
49152,note_off,,,,,512,0,3,,,55,0,2
49152,note_on,,,,,0,0,6,,,65,96,5
49152,note_on,,,,,0,0,3,,,57,96,2
49152,note_off,,,,,512,0,5,,,52,0,4
49152,note_off,,,,,2048,0,6,,,67,0,5
49664,note_on,,,,,3584,0,8,,,57,96,7
49664,note_off,,,,,512,0,6,,,65,0,5
49664,note_on,,,,,0,0,8,,,53,96,7
49664,note_on,,,,,3584,0,7,,,60,96,6
49664,note_on,,,,,0,0,6,,,53,96,5
49920,note_off,,,,,256,0,8,,,57,0,7
49920,note_on,,,,,0,0,7,,,63,96,6
49920,note_on,,,,,0,0,8,,,60,96,7
49920,note_off,,,,,256,0,7,,,60,0,6
50176,note_on,,,,,0,0,8,,,60,96,7
50176,note_off,,,,,256,0,8,,,60,0,7
50176,note_off,,,,,1024,0,2,,,60,0,1
50176,note_on,,,,,0,0,7,,,63,96,6
50176,note_off,,,,,1024,0,4,,,53,0,3
50176,note_off,,,,,1024,0,5,,,41,0,4
50176,note_off,,,,,0,0,8,,,53,0,7
50176,note_off,,,,,1024,0,1,,,65,0,0
50176,note_off,,,,,1024,0,3,,,57,0,2
50176,note_off,,,,,256,0,7,,,63,0,6
50176,note_on,,,,,0,0,8,,,57,96,7
50176,note_off,,,,,512,0,6,,,53,0,5
50176,note_on,,,,,0,0,6,,,53,96,5
50432,note_off,,,,,256,0,7,,,63,0,6
50432,note_on,,,,,0,0,7,,,62,96,6
50432,note_on,,,,,0,0,8,,,58,96,7
50432,note_off,,,,,256,0,8,,,60,0,7
50688,note_off,,,,,0,0,8,,,57,0,7
50688,note_on,,,,,0,0,6,,,53,96,5
50688,note_off,,,,,512,0,6,,,53,0,5
50688,note_on,,,,,0,0,7,,,62,96,6
50688,note_off,,,,,256,0,7,,,62,0,6
50688,note_off,,,,,256,0,8,,,58,0,7
50688,note_on,,,,,0,0,8,,,58,96,7
50688,note_on,,,,,0,0,8,,,53,96,7
50944,note_on,,,,,0,0,7,,,60,96,6
50944,note_off,,,,,256,0,8,,,58,0,7
50944,note_on,,,,,0,0,8,,,57,96,7
50944,note_off,,,,,256,0,7,,,62,0,6
51200,note_on,,,,,0,0,8,,,58,96,7
51200,note_off,,,,,0,0,8,,,53,0,7
51200,note_off,,,,,256,0,8,,,57,0,7
51200,note_on,,,,,1024,0,5,,,41,96,4
51200,note_off,,,,,512,0,6,,,53,0,5
51200,note_off,,,,,256,0,7,,,60,0,6
51200,note_on,,,,,0,0,6,,,53,96,5
51200,note_on,,,,,0,0,7,,,62,96,6
51456,note_off,,,,,256,0,7,,,62,0,6
51456,note_on,,,,,0,0,7,,,58,96,6
51712,note_on,,,,,0,0,8,,,53,96,7
51712,note_off,,,,,512,0,6,,,53,0,5
51712,note_on,,,,,0,0,6,,,53,96,5
51712,note_off,,,,,256,0,7,,,58,0,6
51712,note_on,,,,,0,0,7,,,62,96,6
51712,note_off,,,,,512,0,8,,,58,0,7
51712,note_on,,,,,0,0,8,,,58,96,7
51968,note_off,,,,,256,0,7,,,62,0,6
51968,note_on,,,,,0,0,7,,,65,96,6
51968,note_on,,,,,0,0,8,,,60,96,7
51968,note_off,,,,,0,0,8,,,53,0,7
51968,note_on,,,,,0,0,8,,,57,96,7
51968,note_off,,,,,256,0,8,,,58,0,7
52224,note_off,,,,,512,0,6,,,53,0,5
52224,note_off,,,,,256,0,8,,,60,0,7
52224,note_on,,,,,0,0,8,,,60,96,7
52224,note_off,,,,,0,0,8,,,57,0,7
52224,note_on,,,,,0,0,8,,,57,96,7
52224,note_on,,,,,0,0,6,,,53,96,5
52224,note_off,,,,,1024,0,5,,,41,0,4
52224,note_on,,,,,0,0,7,,,65,96,6
52224,note_off,,,,,256,0,7,,,65,0,6
52480,note_on,,,,,0,0,8,,,55,96,7
52480,note_off,,,,,0,0,8,,,57,0,7
52480,note_on,,,,,0,0,7,,,64,96,6
52480,note_off,,,,,256,0,7,,,65,0,6
52480,note_off,,,,,256,0,8,,,60,0,7
52480,note_on,,,,,0,0,8,,,58,96,7
52736,note_off,,,,,256,0,7,,,64,0,6
52736,note_off,,,,,512,0,6,,,53,0,5
52736,note_on,,,,,0,0,6,,,53,96,5
52736,note_on,,,,,0,0,8,,,55,96,7
52736,note_on,,,,,0,0,7,,,64,96,6
52736,note_off,,,,,0,0,8,,,55,0,7
52736,note_on,,,,,0,0,8,,,58,96,7
52736,note_off,,,,,256,0,8,,,58,0,7
52992,note_off,,,,,256,0,7,,,64,0,6
52992,note_off,,,,,256,0,8,,,58,0,7
52992,note_on,,,,,0,0,7,,,62,96,6
52992,note_on,,,,,0,0,8,,,57,96,7
52992,note_off,,,,,0,0,8,,,55,0,7
52992,note_on,,,,,0,0,8,,,53,96,7
53248,note_on,,,,,0,0,6,,,53,96,5
53248,note_off,,,,,512,0,6,,,53,0,5
53248,note_off,,,,,256,0,8,,,57,0,7
53248,note_off,,,,,0,0,8,,,53,0,7
53248,note_off,,,,,256,0,7,,,62,0,6
53248,note_on,,,,,1024,0,5,,,41,96,4
53248,note_on,,,,,0,0,8,,,58,96,7
53248,note_on,,,,,0,0,7,,,64,96,6
53248,note_on,,,,,0,0,8,,,55,96,7
53504,note_on,,,,,0,0,7,,,58,96,6
53504,note_off,,,,,256,0,7,,,64,0,6
53504,note_on,,,,,0,0,8,,,52,96,7
53504,note_off,,,,,256,0,8,,,58,0,7
53504,note_on,,,,,0,0,8,,,55,96,7
53504,note_off,,,,,0,0,8,,,55,0,7
53760,note_off,,,,,512,0,6,,,53,0,5
53760,note_on,,,,,0,0,8,,,55,96,7
53760,note_off,,,,,0,0,8,,,52,0,7
53760,note_off,,,,,256,0,8,,,55,0,7
53760,note_on,,,,,0,0,8,,,58,96,7
53760,note_off,,,,,256,0,7,,,58,0,6
53760,note_on,,,,,0,0,7,,,64,96,6
53760,note_on,,,,,0,0,6,,,53,96,5
54016,note_off,,,,,256,0,7,,,64,0,6
54016,note_on,,,,,0,0,7,,,67,96,6
54016,note_off,,,,,256,0,8,,,58,0,7
54016,note_off,,,,,0,0,8,,,55,0,7
54016,note_on,,,,,0,0,8,,,58,96,7
54016,note_on,,,,,0,0,8,,,64,96,7
54272,note_off,,,,,256,0,7,,,67,0,6
54272,note_on,,,,,0,0,7,,,67,96,6
54272,note_on,,,,,0,0,8,,,58,96,7
54272,note_off,,,,,256,0,8,,,64,0,7
54272,note_on,,,,,0,0,8,,,64,96,7
54272,note_off,,,,,0,0,8,,,58,0,7
54272,note_off,,,,,1024,0,5,,,41,0,4
54272,note_off,,,,,512,0,6,,,53,0,5
54272,note_on,,,,,0,0,6,,,53,96,5
54528,note_on,,,,,0,0,8,,,57,96,7
54528,note_off,,,,,256,0,8,,,64,0,7
54528,note_on,,,,,0,0,8,,,60,96,7
54528,note_off,,,,,0,0,8,,,58,0,7
54528,note_on,,,,,0,0,7,,,65,96,6
54528,note_off,,,,,256,0,7,,,67,0,6
54784,note_on,,,,,0,0,7,,,65,96,6
54784,note_off,,,,,256,0,7,,,65,0,6
54784,note_on,,,,,0,0,8,,,57,96,7
54784,note_off,,,,,0,0,8,,,57,0,7
54784,note_on,,,,,0,0,8,,,60,96,7
54784,note_off,,,,,256,0,8,,,60,0,7
54784,note_off,,,,,512,0,6,,,53,0,5
54784,note_on,,,,,0,0,6,,,53,96,5
55040,note_on,,,,,0,0,8,,,58,96,7
55040,note_off,,,,,0,0,8,,,57,0,7
55040,note_on,,,,,0,0,7,,,64,96,6
55040,note_off,,,,,256,0,7,,,65,0,6
55040,note_off,,,,,256,0,8,,,60,0,7
55040,note_on,,,,,0,0,8,,,55,96,7
55296,note_off,,,,,512,0,6,,,53,0,5
55296,note_on,,,,,0,0,6,,,53,96,5
55296,note_on,,,,,0,0,7,,,65,96,6
55296,note_off,,,,,256,0,7,,,64,0,6
55296,note_on,,,,,0,0,8,,,60,96,7
55296,note_on,,,,,0,0,8,,,57,96,7
55296,note_off,,,,,0,0,8,,,55,0,7
55296,note_off,,,,,256,0,8,,,58,0,7
55296,note_on,,,,,1024,0,5,,,41,96,4
55552,note_off,,,,,256,0,8,,,60,0,7
55552,note_on,,,,,0,0,8,,,53,96,7
55552,note_off,,,,,0,0,8,,,57,0,7
55552,note_off,,,,,256,0,7,,,65,0,6
55552,note_on,,,,,0,0,7,,,60,96,6
55552,note_on,,,,,0,0,8,,,57,96,7
55808,note_off,,,,,0,0,8,,,53,0,7
55808,note_on,,,,,0,0,7,,,65,96,6
55808,note_off,,,,,256,0,7,,,60,0,6
55808,note_on,,,,,0,0,8,,,57,96,7
55808,note_on,,,,,0,0,8,,,60,96,7
55808,note_off,,,,,256,0,8,,,57,0,7
55808,note_off,,,,,512,0,5,,,41,0,4
55808,note_on,,,,,0,0,5,,,53,96,4
56064,note_off,,,,,0,0,8,,,57,0,7
56064,note_on,,,,,0,0,8,,,65,96,7
56064,note_off,,,,,256,0,8,,,60,0,7
56064,note_on,,,,,0,0,7,,,69,96,6
56064,note_on,,,,,0,0,8,,,60,96,7
56064,note_off,,,,,256,0,7,,,65,0,6
56320,note_on,,,,,6144,0,4,,,59,96,3
56320,note_on,,,,,6144,0,3,,,62,96,2
56320,note_off,,,,,1024,0,6,,,53,0,5
56320,note_on,,,,,0,0,6,,,67,96,5
56320,note_on,,,,,0,0,5,,,47,96,4
56320,note_off,,,,,0,0,8,,,60,0,7
56320,note_on,,,,,0,0,8,,,62,96,7
56320,note_on,,,,,0,0,8,,,62,96,7
56320,note_off,,,,,256,0,8,,,65,0,7
56320,note_off,,,,,256,0,7,,,69,0,6
56320,note_off,,,,,512,0,5,,,53,0,4
56320,note_on,,,,,0,0,7,,,67,96,6
56320,note_on,,,,,6144,0,2,,,62,96,1
56320,note_on,,,,,6144,0,1,,,67,96,0
56576,note_off,,,,,256,0,7,,,67,0,6
56576,note_on,,,,,0,0,7,,,65,96,6
56832,note_off,,,,,512,0,5,,,47,0,4
56832,note_off,,,,,512,0,4,,,59,0,3
56832,note_on,,,,,0,0,4,,,55,96,3
56832,note_on,,,,,0,0,3,,,59,96,2
56832,note_off,,,,,512,0,3,,,62,0,2
56832,note_off,,,,,256,0,7,,,65,0,6
56832,note_on,,,,,0,0,5,,,43,96,4
56832,note_on,,,,,0,0,8,,,59,96,7
56832,note_off,,,,,0,0,8,,,62,0,7
56832,note_on,,,,,0,0,7,,,65,96,6
56832,note_off,,,,,512,0,8,,,62,0,7
56832,note_on,,,,,0,0,8,,,62,96,7
57088,note_off,,,,,256,0,7,,,65,0,6
57088,note_on,,,,,0,0,7,,,64,96,6
57344,note_off,,,,,0,0,8,,,59,0,7
57344,note_on,,,,,0,0,4,,,60,96,3
57344,note_off,,,,,512,0,4,,,55,0,3
57344,note_on,,,,,0,0,8,,,60,96,7
57344,note_off,,,,,512,0,5,,,43,0,4
57344,note_on,,,,,0,0,5,,,48,96,4
57344,note_off,,,,,256,0,7,,,64,0,6
57344,note_on,,,,,0,0,7,,,64,96,6
57344,note_off,,,,,512,0,8,,,62,0,7
57344,note_on,,,,,0,0,8,,,55,96,7
57344,note_off,,,,,1024,0,1,,,67,0,0
57344,note_off,,,,,1024,0,2,,,62,0,1
57344,note_on,,,,,0,0,3,,,60,96,2
57344,note_off,,,,,512,0,3,,,59,0,2
57344,note_off,,,,,1024,0,6,,,67,0,5
57344,note_on,,,,,0,0,6,,,67,96,5
57344,note_on,,,,,0,0,1,,,67,96,0
57344,note_on,,,,,0,0,2,,,64,96,1
57856,note_on,,,,,0,0,5,,,60,96,4
57856,note_off,,,,,512,0,5,,,48,0,4
58368,note_off,,,,,1024,0,6,,,67,0,5
58368,note_on,,,,,0,0,1,,,69,96,0
58368,note_off,,,,,1024,0,4,,,60,0,3
58368,note_off,,,,,1024,0,1,,,67,0,0
58368,note_on,,,,,0,0,2,,,65,96,1
58368,note_off,,,,,512,0,5,,,60,0,4
58368,note_on,,,,,0,0,5,,,58,96,4
58368,note_on,,,,,0,0,6,,,69,96,5
58368,note_on,,,,,0,0,4,,,58,96,3
58368,note_off,,,,,1024,0,2,,,64,0,1
58368,note_off,,,,,1024,0,8,,,60,0,7
58368,note_off,,,,,1024,0,7,,,64,0,6
58368,note_off,,,,,0,0,8,,,55,0,7
58368,note_off,,,,,1024,0,3,,,60,0,2
58368,note_on,,,,,0,0,3,,,60,96,2
58880,note_off,,,,,512,0,5,,,58,0,4
58880,note_on,,,,,0,0,4,,,57,96,3
58880,note_off,,,,,512,0,4,,,58,0,3
58880,note_on,,,,,0,0,5,,,57,96,4
59392,note_off,,,,,1024,0,1,,,69,0,0
59392,note_off,,,,,512,0,5,,,57,0,4
59392,note_on,,,,,0,0,5,,,55,96,4
59392,note_on,,,,,0,0,6,,,70,96,5
59392,note_on,,,,,0,0,1,,,70,96,0
59392,note_on,,,,,0,0,3,,,62,96,2
59392,note_on,,,,,0,0,4,,,55,96,3
59392,note_off,,,,,512,0,4,,,57,0,3
59392,note_off,,,,,1024,0,3,,,60,0,2
59392,note_off,,,,,1024,0,6,,,69,0,5
59904,note_on,,,,,0,0,2,,,64,96,1
59904,note_off,,,,,1536,0,2,,,65,0,1
59904,note_on,,,,,0,0,3,,,60,96,2
59904,note_off,,,,,512,0,3,,,62,0,2
59904,note_off,,,,,512,0,5,,,55,0,4
59904,note_on,,,,,0,0,5,,,55,96,4
60160,note_off,,,,,256,0,3,,,60,0,2
60160,note_off,,,,,256,0,2,,,64,0,1
60160,note_on,,,,,0,0,3,,,58,96,2
60160,note_on,,,,,0,0,2,,,62,96,1
60416,note_on,,,,,0,0,5,,,48,96,4
60416,note_on,,,,,0,0,3,,,60,96,2
60416,note_off,,,,,512,0,5,,,55,0,4
60416,note_off,,,,,1024,0,4,,,55,0,3
60416,note_off,,,,,256,0,2,,,62,0,1
60416,note_on,,,,,0,0,6,,,69,96,5
60416,note_off,,,,,256,0,3,,,58,0,2
60416,note_on,,,,,0,0,2,,,64,96,1
60416,note_off,,,,,1024,0,1,,,70,0,0
60416,note_on,,,,,0,0,4,,,48,96,3
60416,note_on,,,,,0,0,1,,,70,96,0
60416,note_off,,,,,1024,0,6,,,70,0,5
60928,note_on,,,,,0,0,5,,,48,96,4
60928,note_off,,,,,512,0,5,,,48,0,4
60928,note_on,,,,,0,0,6,,,70,96,5
60928,note_off,,,,,512,0,6,,,69,0,5
61184,note_on,,,,,0,0,6,,,72,96,5
61184,note_off,,,,,768,0,1,,,70,0,0
61184,note_off,,,,,256,0,6,,,70,0,5
61184,note_on,,,,,0,0,1,,,72,96,0
61440,note_off,,,,,1024,0,2,,,64,0,1
61440,note_on,,,,,0,0,2,,,65,96,1
61440,note_on,,,,,0,0,3,,,60,96,2
61440,note_on,,,,,0,0,6,,,69,96,5
61440,note_off,,,,,256,0,6,,,72,0,5
61440,note_on,,,,,0,0,1,,,69,96,0
61440,note_off,,,,,256,0,1,,,72,0,0
61440,note_off,,,,,1024,0,3,,,60,0,2
61440,note_off,,,,,1024,0,4,,,48,0,3
61440,note_on,,,,,0,0,4,,,53,96,3
61440,note_on,,,,,0,0,5,,,41,96,4
61440,note_off,,,,,512,0,5,,,48,0,4
61952,note_off,,,,,512,0,6,,,69,0,5
61952,note_on,,,,,0,0,8,,,57,96,7
61952,note_on,,,,,3584,0,8,,,65,96,7
61952,note_on,,,,,3584,0,7,,,72,96,6
61952,note_on,,,,,0,0,6,,,57,96,5
62208,note_on,,,,,0,0,7,,,77,96,6
62208,note_off,,,,,256,0,7,,,72,0,6
62208,note_on,,,,,0,0,8,,,60,96,7
62208,note_on,,,,,0,0,8,,,69,96,7
62208,note_off,,,,,256,0,8,,,65,0,7
62208,note_off,,,,,0,0,8,,,57,0,7
62464,note_off,,,,,1024,0,4,,,53,0,3
62464,note_off,,,,,1024,0,2,,,65,0,1
62464,note_off,,,,,256,0,8,,,69,0,7
62464,note_on,,,,,0,0,8,,,69,96,7
62464,note_off,,,,,0,0,8,,,60,0,7
62464,note_on,,,,,0,0,8,,,60,96,7
62464,note_off,,,,,256,0,7,,,77,0,6
62464,note_off,,,,,1024,0,5,,,41,0,4
62464,note_on,,,,,0,0,6,,,57,96,5
62464,note_off,,,,,512,0,6,,,57,0,5
62464,note_off,,,,,1024,0,1,,,69,0,0
62464,note_off,,,,,1024,0,3,,,60,0,2
62464,note_on,,,,,0,0,7,,,77,96,6
62720,note_off,,,,,0,0,8,,,60,0,7
62720,note_on,,,,,0,0,8,,,67,96,7
62720,note_off,,,,,256,0,8,,,69,0,7
62720,note_on,,,,,0,0,8,,,58,96,7
62720,note_on,,,,,0,0,7,,,76,96,6
62720,note_off,,,,,256,0,7,,,77,0,6
62976,note_on,,,,,0,0,8,,,58,96,7
62976,note_off,,,,,0,0,8,,,58,0,7
62976,note_on,,,,,0,0,8,,,67,96,7
62976,note_off,,,,,256,0,8,,,67,0,7
62976,note_off,,,,,256,0,7,,,76,0,6
62976,note_off,,,,,512,0,6,,,57,0,5
62976,note_on,,,,,0,0,7,,,76,96,6
62976,note_on,,,,,0,0,6,,,57,96,5
63232,note_off,,,,,0,0,8,,,58,0,7
63232,note_off,,,,,256,0,7,,,76,0,6
63232,note_on,,,,,0,0,7,,,74,96,6
63232,note_off,,,,,256,0,8,,,67,0,7
63232,note_on,,,,,0,0,8,,,65,96,7
63232,note_on,,,,,0,0,8,,,57,96,7
63488,note_on,,,,,0,0,8,,,67,96,7
63488,note_off,,,,,0,0,8,,,57,0,7
63488,note_on,,,,,0,0,8,,,69,96,7
63488,note_off,,,,,256,0,8,,,65,0,7
63488,note_on,,,,,0,0,6,,,57,96,5
63488,note_off,,,,,256,0,7,,,74,0,6
63488,note_on,,,,,0,0,7,,,76,96,6
63488,note_off,,,,,512,0,6,,,57,0,5
63488,note_on,,,,,1024,0,5,,,45,96,4
63744,note_off,,,,,256,0,7,,,76,0,6
63744,note_off,,,,,256,0,8,,,67,0,7
63744,note_on,,,,,0,0,8,,,64,96,7
63744,note_on,,,,,0,0,7,,,73,96,6
64000,note_off,,,,,256,0,8,,,64,0,7
64000,note_on,,,,,0,0,8,,,64,96,7
64000,note_off,,,,,0,0,8,,,69,0,7
64000,note_on,,,,,0,0,8,,,67,96,7
64000,note_off,,,,,512,0,6,,,57,0,5
64000,note_on,,,,,0,0,6,,,57,96,5
64000,note_off,,,,,256,0,7,,,73,0,6
64000,note_on,,,,,0,0,7,,,73,96,6
64256,note_off,,,,,256,0,7,,,73,0,6
64256,note_on,,,,,0,0,7,,,76,96,6
64256,note_off,,,,,256,0,8,,,64,0,7
64256,note_on,,,,,0,0,8,,,67,96,7
64512,note_off,,,,,1024,0,5,,,45,0,4
64512,note_on,,,,,0,0,6,,,57,96,5
64512,note_off,,,,,512,0,6,,,57,0,5
64512,note_on,,,,,0,0,8,,,64,96,7
64512,note_off,,,,,0,0,8,,,67,0,7
64512,note_on,,,,,0,0,8,,,67,96,7
64512,note_off,,,,,256,0,8,,,67,0,7
64512,note_on,,,,,0,0,7,,,76,96,6
64512,note_off,,,,,256,0,7,,,76,0,6
64768,note_on,,,,,0,0,7,,,74,96,6
64768,note_off,,,,,256,0,7,,,76,0,6
64768,note_off,,,,,256,0,8,,,67,0,7
64768,note_on,,,,,0,0,8,,,65,96,7
65024,note_off,,,,,256,0,8,,,65,0,7
65024,note_on,,,,,0,0,8,,,65,96,7
65024,note_off,,,,,0,0,8,,,64,0,7
65024,note_on,,,,,0,0,8,,,69,96,7
65024,note_on,,,,,0,0,6,,,57,96,5
65024,note_off,,,,,256,0,7,,,74,0,6
65024,note_on,,,,,0,0,7,,,74,96,6
65024,note_off,,,,,512,0,6,,,57,0,5
65280,note_on,,,,,0,0,8,,,64,96,7
65280,note_off,,,,,256,0,8,,,65,0,7
65280,note_off,,,,,256,0,7,,,74,0,6
65280,note_on,,,,,0,0,7,,,73,96,6
65536,note_off,,,,,256,0,8,,,64,0,7
65536,note_off,,,,,512,0,6,,,57,0,5
65536,note_off,,,,,256,0,7,,,73,0,6
65536,note_on,,,,,1024,0,5,,,38,96,4
65536,note_off,,,,,0,0,8,,,69,0,7
65536,note_on,,,,,0,0,6,,,57,96,5
65536,note_on,,,,,0,0,8,,,69,96,7
65536,note_on,,,,,0,0,8,,,65,96,7
65536,note_on,,,,,0,0,7,,,74,96,6
65792,note_on,,,,,0,0,7,,,69,96,6
65792,note_off,,,,,256,0,7,,,74,0,6
65792,note_off,,,,,0,0,8,,,69,0,7
65792,note_on,,,,,0,0,8,,,65,96,7
65792,note_on,,,,,0,0,8,,,62,96,7
65792,note_off,,,,,256,0,8,,,65,0,7
66048,note_on,,,,,0,0,6,,,57,96,5
66048,note_off,,,,,0,0,8,,,65,0,7
66048,note_on,,,,,0,0,8,,,62,96,7
66048,note_off,,,,,256,0,8,,,62,0,7
66048,note_off,,,,,512,0,6,,,57,0,5
66048,note_on,,,,,0,0,8,,,65,96,7
66048,note_on,,,,,0,0,7,,,69,96,6
66048,note_off,,,,,256,0,7,,,69,0,6
66304,note_off,,,,,256,0,8,,,62,0,7
66304,note_on,,,,,0,0,7,,,74,96,6
66304,note_off,,,,,256,0,7,,,69,0,6
66304,note_on,,,,,0,0,8,,,69,96,7
66304,note_off,,,,,0,0,8,,,65,0,7
66304,note_on,,,,,0,0,8,,,65,96,7
66560,note_off,,,,,1024,0,5,,,38,0,4
66560,note_on,,,,,0,0,8,,,69,96,7
66560,note_off,,,,,0,0,8,,,69,0,7
66560,note_on,,,,,0,0,8,,,65,96,7
66560,note_off,,,,,256,0,8,,,65,0,7
66560,note_on,,,,,0,0,6,,,57,96,5
66560,note_off,,,,,512,0,6,,,57,0,5
66560,note_off,,,,,256,0,7,,,74,0,6
66560,note_on,,,,,0,0,7,,,74,96,6
66816,note_on,,,,,0,0,8,,,63,96,7
66816,note_off,,,,,256,0,8,,,65,0,7
66816,note_off,,,,,256,0,7,,,74,0,6
66816,note_on,,,,,0,0,7,,,72,96,6
67072,note_off,,,,,256,0,7,,,72,0,6
67072,note_on,,,,,0,0,6,,,57,96,5
67072,note_off,,,,,0,0,8,,,69,0,7
67072,note_on,,,,,0,0,8,,,63,96,7
67072,note_on,,,,,0,0,7,,,72,96,6
67072,note_off,,,,,256,0,8,,,63,0,7
67072,note_on,,,,,0,0,8,,,57,96,7
67072,note_off,,,,,512,0,6,,,57,0,5
67328,note_on,,,,,0,0,8,,,62,96,7
67328,note_off,,,,,256,0,7,,,72,0,6
67328,note_on,,,,,0,0,7,,,70,96,6
67328,note_off,,,,,256,0,8,,,63,0,7
67584,note_off,,,,,512,0,6,,,57,0,5
67584,note_on,,,,,0,0,6,,,57,96,5
67584,note_off,,,,,256,0,7,,,70,0,6
67584,note_on,,,,,0,0,7,,,72,96,6
67584,note_on,,,,,0,0,8,,,69,96,7
67584,note_on,,,,,0,0,8,,,63,96,7
67584,note_on,,,,,1024,0,5,,,42,96,4
67584,note_off,,,,,256,0,8,,,62,0,7
67584,note_off,,,,,0,0,8,,,57,0,7
67840,note_on,,,,,0,0,7,,,69,96,6
67840,note_on,,,,,0,0,8,,,66,96,7
67840,note_off,,,,,0,0,8,,,69,0,7
67840,note_on,,,,,0,0,8,,,60,96,7
67840,note_off,,,,,256,0,8,,,63,0,7
67840,note_off,,,,,256,0,7,,,72,0,6
68096,note_off,,,,,0,0,8,,,66,0,7
68096,note_off,,,,,256,0,8,,,60,0,7
68096,note_on,,,,,0,0,8,,,60,96,7
68096,note_on,,,,,0,0,8,,,66,96,7
68096,note_off,,,,,256,0,7,,,69,0,6
68096,note_on,,,,,0,0,6,,,57,96,5
68096,note_off,,,,,512,0,6,,,57,0,5
68096,note_on,,,,,0,0,7,,,69,96,6
68352,note_off,,,,,256,0,7,,,69,0,6
68352,note_on,,,,,0,0,7,,,72,96,6
68352,note_off,,,,,0,0,8,,,66,0,7
68352,note_on,,,,,0,0,8,,,63,96,7
68352,note_off,,,,,256,0,8,,,60,0,7
68352,note_on,,,,,0,0,8,,,69,96,7
68608,note_off,,,,,256,0,7,,,72,0,6
68608,note_off,,,,,0,0,8,,,69,0,7
68608,note_off,,,,,1024,0,5,,,42,0,4
68608,note_off,,,,,256,0,8,,,63,0,7
68608,note_on,,,,,0,0,8,,,63,96,7
68608,note_on,,,,,0,0,7,,,72,96,6
68608,note_on,,,,,6144,0,3,,,60,96,2
68608,note_on,,,,,0,0,8,,,69,96,7
68608,note_on,,,,,6144,0,1,,,69,96,0
68608,note_on,,,,,6144,0,4,,,54,96,3
68608,note_on,,,,,0,0,6,,,69,96,5
68608,note_off,,,,,512,0,6,,,57,0,5
68608,note_on,,,,,6144,0,2,,,63,96,1
68864,note_on,,,,,0,0,8,,,67,96,7
68864,note_off,,,,,0,0,8,,,69,0,7
68864,note_on,,,,,0,0,8,,,62,96,7
68864,note_off,,,,,256,0,8,,,63,0,7
68864,note_on,,,,,0,0,7,,,71,96,6
68864,note_off,,,,,256,0,7,,,72,0,6
69120,note_off,,,,,0,0,8,,,67,0,7
69120,note_on,,,,,0,0,8,,,62,96,7
69120,note_off,,,,,256,0,8,,,62,0,7
69120,note_on,,,,,0,0,7,,,71,96,6
69120,note_off,,,,,256,0,7,,,71,0,6
69120,note_on,,,,,0,0,8,,,67,96,7
69376,note_on,,,,,0,0,8,,,66,96,7
69376,note_on,,,,,0,0,7,,,69,96,6
69376,note_on,,,,,0,0,8,,,60,96,7
69376,note_off,,,,,256,0,8,,,62,0,7
69376,note_off,,,,,256,0,7,,,71,0,6
69376,note_off,,,,,0,0,8,,,67,0,7
69632,note_on,,,,,0,0,1,,,67,96,0
69632,note_off,,,,,1024,0,1,,,69,0,0
69632,note_off,,,,,1024,0,2,,,63,0,1
69632,note_on,,,,,1024,0,5,,,41,96,4
69632,note_off,,,,,1024,0,6,,,69,0,5
69632,note_on,,,,,0,0,2,,,62,96,1
69632,note_off,,,,,1024,0,4,,,54,0,3
69632,note_off,,,,,256,0,8,,,60,0,7
69632,note_on,,,,,0,0,7,,,71,96,6
69632,note_on,,,,,0,0,8,,,62,96,7
69632,note_on,,,,,0,0,8,,,67,96,7
69632,note_off,,,,,1024,0,3,,,60,0,2
69632,note_on,,,,,0,0,3,,,59,96,2
69632,note_off,,,,,256,0,7,,,69,0,6
69632,note_on,,,,,0,0,6,,,67,96,5
69632,note_on,,,,,0,0,4,,,53,96,3
69632,note_off,,,,,0,0,8,,,66,0,7
69888,note_on,,,,,0,0,7,,,67,96,6
69888,note_off,,,,,256,0,7,,,71,0,6
70144,note_on,,,,,0,0,7,,,67,96,6
70144,note_on,,,,,0,0,5,,,53,96,4
70144,note_off,,,,,512,0,5,,,41,0,4
70144,note_on,,,,,0,0,8,,,59,96,7
70144,note_off,,,,,0,0,8,,,67,0,7
70144,note_on,,,,,0,0,8,,,62,96,7
70144,note_off,,,,,512,0,8,,,62,0,7
70144,note_off,,,,,256,0,7,,,67,0,6
70400,note_on,,,,,0,0,7,,,79,96,6
70400,note_off,,,,,256,0,7,,,67,0,6
70656,note_off,,,,,1024,0,2,,,62,0,1
70656,note_off,,,,,1024,0,3,,,59,0,2
70656,note_on,,,,,0,0,2,,,67,96,1
70656,note_off,,,,,512,0,8,,,62,0,7
70656,note_on,,,,,0,0,8,,,67,96,7
70656,note_off,,,,,0,0,8,,,59,0,7
70656,note_on,,,,,0,0,8,,,60,96,7
70656,note_off,,,,,1024,0,1,,,67,0,0
70656,note_on,,,,,0,0,1,,,72,96,0
70656,note_on,,,,,0,0,3,,,60,96,2
70656,note_off,,,,,1024,0,4,,,53,0,3
70656,note_on,,,,,0,0,4,,,51,96,3
70656,note_on,,,,,0,0,6,,,72,96,5
70656,note_off,,,,,1024,0,6,,,67,0,5
70656,note_on,,,,,0,0,5,,,51,96,4
70656,note_off,,,,,512,0,5,,,53,0,4
70656,note_off,,,,,256,0,7,,,79,0,6
70656,note_on,,,,,0,0,7,,,79,96,6
70912,note_on,,,,,0,0,7,,,77,96,6
70912,note_off,,,,,256,0,7,,,79,0,6
71168,note_off,,,,,256,0,7,,,77,0,6
71168,note_on,,,,,0,0,8,,,67,96,7
71168,note_off,,,,,512,0,8,,,67,0,7
71168,note_on,,,,,0,0,5,,,53,96,4
71168,note_off,,,,,512,0,5,,,51,0,4
71168,note_on,,,,,0,0,1,,,74,96,0
71168,note_off,,,,,512,0,1,,,72,0,0
71168,note_on,,,,,0,0,8,,,60,96,7
71168,note_on,,,,,0,0,7,,,77,96,6
71168,note_off,,,,,0,0,8,,,60,0,7
71168,note_off,,,,,512,0,6,,,72,0,5
71168,note_on,,,,,0,0,6,,,74,96,5
71168,note_on,,,,,0,0,4,,,53,96,3
71168,note_off,,,,,512,0,4,,,51,0,3
71424,note_off,,,,,256,0,7,,,77,0,6
71424,note_on,,,,,0,0,6,,,75,96,5
71424,note_on,,,,,0,0,4,,,55,96,3
71424,note_off,,,,,256,0,1,,,74,0,0
71424,note_off,,,,,256,0,4,,,53,0,3
71424,note_off,,,,,256,0,5,,,53,0,4
71424,note_on,,,,,0,0,5,,,55,96,4
71424,note_off,,,,,256,0,6,,,74,0,5
71424,note_on,,,,,0,0,7,,,75,96,6
71424,note_on,,,,,0,0,1,,,75,96,0
71680,note_on,,,,,0,0,1,,,74,96,0
71680,note_off,,,,,256,0,1,,,75,0,0
71680,note_on,,,,,0,0,2,,,65,96,1
71680,note_off,,,,,256,0,5,,,55,0,4
71680,note_off,,,,,1024,0,2,,,67,0,1
71680,note_off,,,,,256,0,7,,,75,0,6
71680,note_on,,,,,0,0,4,,,56,96,3
71680,note_off,,,,,256,0,4,,,55,0,3
71680,note_on,,,,,0,0,7,,,77,96,6
71680,note_off,,,,,1024,0,3,,,60,0,2
71680,note_on,,,,,0,0,3,,,60,96,2
71680,note_on,,,,,0,0,5,,,56,96,4
71680,note_off,,,,,0,0,8,,,60,0,7
71680,note_on,,,,,0,0,6,,,74,96,5
71680,note_on,,,,,0,0,8,,,60,96,7
71680,note_on,,,,,0,0,8,,,65,96,7
71680,note_off,,,,,512,0,8,,,67,0,7
71680,note_off,,,,,256,0,6,,,75,0,5
71936,note_on,,,,,0,0,7,,,74,96,6
71936,note_off,,,,,256,0,7,,,77,0,6
72192,note_off,,,,,512,0,3,,,60,0,2
72192,note_on,,,,,0,0,3,,,65,96,2
72192,note_on,,,,,0,0,2,,,68,96,1
72192,note_on,,,,,0,0,8,,,68,96,7
72192,note_off,,,,,512,0,8,,,65,0,7
72192,note_off,,,,,0,0,8,,,60,0,7
72192,note_on,,,,,0,0,7,,,74,96,6
72192,note_off,,,,,256,0,7,,,74,0,6
72192,note_on,,,,,0,0,8,,,65,96,7
72192,note_off,,,,,512,0,2,,,65,0,1
72192,note_off,,,,,512,0,4,,,56,0,3
72192,note_on,,,,,0,0,4,,,55,96,3
72192,note_off,,,,,512,0,5,,,56,0,4
72192,note_on,,,,,0,0,5,,,55,96,4
72448,note_on,,,,,0,0,4,,,53,96,3
72448,note_off,,,,,256,0,7,,,74,0,6
72448,note_on,,,,,0,0,5,,,53,96,4
72448,note_off,,,,,256,0,4,,,55,0,3
72448,note_on,,,,,0,0,7,,,77,96,6
72448,note_off,,,,,256,0,5,,,55,0,4
72704,note_off,,,,,256,0,4,,,53,0,3
72704,note_off,,,,,1024,0,6,,,74,0,5
72704,note_off,,,,,256,0,7,,,77,0,6
72704,note_on,,,,,0,0,7,,,77,96,6
72704,note_off,,,,,512,0,3,,,65,0,2
72704,note_on,,,,,0,0,3,,,62,96,2
72704,note_off,,,,,1024,0,1,,,74,0,0
72704,note_on,,,,,0,0,1,,,72,96,0
72704,note_off,,,,,512,0,2,,,68,0,1
72704,note_on,,,,,0,0,8,,,62,96,7
72704,note_on,,,,,0,0,4,,,55,96,3
72704,note_on,,,,,0,0,6,,,72,96,5
72704,note_on,,,,,0,0,5,,,55,96,4
72704,note_off,,,,,0,0,8,,,65,0,7
72704,note_off,,,,,256,0,5,,,53,0,4
72704,note_on,,,,,0,0,2,,,67,96,1
72704,note_on,,,,,0,0,8,,,67,96,7
72704,note_off,,,,,512,0,8,,,68,0,7
72960,note_off,,,,,256,0,7,,,77,0,6
72960,note_on,,,,,0,0,7,,,76,96,6
73216,note_off,,,,,512,0,2,,,67,0,1
73216,note_on,,,,,0,0,2,,,65,96,1
73216,note_off,,,,,512,0,8,,,67,0,7
73216,note_on,,,,,0,0,7,,,76,96,6
73216,note_on,,,,,0,0,6,,,71,96,5
73216,note_off,,,,,512,0,6,,,72,0,5
73216,note_off,,,,,256,0,7,,,76,0,6
73216,note_on,,,,,0,0,5,,,43,96,4
73216,note_on,,,,,0,0,1,,,71,96,0
73216,note_off,,,,,512,0,5,,,55,0,4
73216,note_on,,,,,0,0,8,,,67,96,7
73216,note_off,,,,,0,0,8,,,62,0,7
73216,note_on,,,,,0,0,4,,,43,96,3
73216,note_on,,,,,0,0,8,,,62,96,7
73216,note_off,,,,,512,0,4,,,55,0,3
73216,note_off,,,,,512,0,1,,,72,0,0
73472,note_on,,,,,0,0,7,,,74,96,6
73472,note_off,,,,,256,0,7,,,76,0,6
73728,note_on,,,,,0,0,6,,,72,96,5
73728,note_on,,,,,0,0,1,,,72,96,0
73728,note_on,,,,,0,0,8,,,67,96,7
73728,note_off,,,,,512,0,6,,,71,0,5
73728,note_off,,,,,1024,0,3,,,62,0,2
73728,note_off,,,,,256,0,7,,,74,0,6
73728,note_off,,,,,512,0,1,,,71,0,0
73728,note_on,,,,,0,0,8,,,60,96,7
73728,note_on,,,,,0,0,7,,,76,96,6
73728,note_off,,,,,512,0,4,,,43,0,3
73728,note_off,,,,,0,0,8,,,62,0,7
73728,note_off,,,,,512,0,5,,,43,0,4
73728,note_on,,,,,0,0,5,,,48,96,4
73728,note_off,,,,,512,0,8,,,67,0,7
73728,note_on,,,,,0,0,4,,,48,96,3
73728,note_on,,,,,0,0,3,,,60,96,2
73728,note_on,,,,,0,0,2,,,64,96,1
73728,note_off,,,,,512,0,2,,,65,0,1
74240,note_on,,,,,0,0,6,,,60,96,5
74240,note_on,,,,,0,0,8,,,60,96,7
74240,note_off,,,,,512,0,6,,,72,0,5
74240,note_on,,,,,0,0,7,,,67,96,6
74240,note_off,,,,,512,0,7,,,76,0,6
74240,note_off,,,,,0,0,8,,,60,0,7
74240,note_on,,,,,0,0,8,,,64,96,7
74240,note_off,,,,,512,0,8,,,67,0,7
74496,note_off,,,,,256,0,8,,,64,0,7
74496,note_on,,,,,0,0,7,,,70,96,6
74496,note_off,,,,,256,0,7,,,67,0,6
74496,note_on,,,,,0,0,8,,,67,96,7
74752,note_off,,,,,1024,0,2,,,64,0,1
74752,note_off,,,,,1024,0,1,,,72,0,0
74752,note_off,,,,,1024,0,3,,,60,0,2
74752,note_on,,,,,0,0,7,,,70,96,6
74752,note_off,,,,,256,0,7,,,70,0,6
74752,note_off,,,,,1024,0,4,,,48,0,3
74752,note_off,,,,,1024,0,5,,,48,0,4
74752,note_on,,,,,0,0,8,,,64,96,7
74752,note_off,,,,,0,0,8,,,60,0,7
74752,note_on,,,,,0,0,8,,,67,96,7
74752,note_off,,,,,256,0,8,,,67,0,7
74752,note_on,,,,,0,0,6,,,60,96,5
74752,note_off,,,,,512,0,6,,,60,0,5
75008,note_on,,,,,0,0,8,,,65,96,7
75008,note_on,,,,,0,0,7,,,69,96,6
75008,note_off,,,,,256,0,7,,,70,0,6
75008,note_off,,,,,256,0,8,,,67,0,7
75264,note_off,,,,,256,0,7,,,69,0,6
75264,note_on,,,,,0,0,6,,,60,96,5
75264,note_on,,,,,0,0,7,,,69,96,6
75264,note_off,,,,,0,0,8,,,64,0,7
75264,note_on,,,,,0,0,8,,,60,96,7
75264,note_off,,,,,512,0,6,,,60,0,5
75264,note_on,,,,,0,0,8,,,65,96,7
75264,note_off,,,,,256,0,8,,,65,0,7
75520,note_off,,,,,256,0,8,,,65,0,7
75520,note_off,,,,,256,0,7,,,69,0,6
75520,note_on,,,,,0,0,7,,,67,96,6
75520,note_on,,,,,0,0,8,,,64,96,7
75776,note_off,,,,,256,0,7,,,67,0,6
75776,note_on,,,,,0,0,7,,,69,96,6
75776,note_on,,,,,0,0,8,,,65,96,7
75776,note_off,,,,,0,0,8,,,60,0,7
75776,note_on,,,,,1024,0,5,,,48,96,4
75776,note_off,,,,,256,0,8,,,64,0,7
75776,note_off,,,,,512,0,6,,,60,0,5
75776,note_on,,,,,0,0,6,,,60,96,5
76032,note_on,,,,,0,0,7,,,65,96,6
76032,note_off,,,,,256,0,8,,,65,0,7
76032,note_off,,,,,256,0,7,,,69,0,6
76032,note_on,,,,,0,0,8,,,60,96,7
76288,note_on,,,,,0,0,8,,,60,96,7
76288,note_on,,,,,0,0,8,,,65,96,7
76288,note_on,,,,,0,0,7,,,69,96,6
76288,note_off,,,,,512,0,6,,,60,0,5
76288,note_off,,,,,256,0,7,,,65,0,6
76288,note_on,,,,,0,0,6,,,60,96,5
76288,note_off,,,,,256,0,8,,,60,0,7
76544,note_on,,,,,0,0,7,,,72,96,6
76544,note_on,,,,,0,0,8,,,67,96,7
76544,note_off,,,,,0,0,8,,,60,0,7
76544,note_on,,,,,0,0,8,,,64,96,7
76544,note_off,,,,,256,0,8,,,65,0,7
76544,note_off,,,,,256,0,7,,,69,0,6
76800,note_on,,,,,0,0,8,,,64,96,7
76800,note_off,,,,,256,0,7,,,72,0,6
76800,note_on,,,,,0,0,7,,,72,96,6
76800,note_off,,,,,512,0,6,,,60,0,5
76800,note_on,,,,,0,0,6,,,60,96,5
76800,note_on,,,,,0,0,8,,,67,96,7
76800,note_off,,,,,1024,0,5,,,48,0,4
76800,note_off,,,,,256,0,8,,,67,0,7
76800,note_off,,,,,0,0,8,,,64,0,7
77056,note_off,,,,,256,0,7,,,72,0,6
77056,note_on,,,,,0,0,7,,,71,96,6
77056,note_off,,,,,256,0,8,,,67,0,7
77056,note_on,,,,,0,0,8,,,62,96,7
77056,note_off,,,,,0,0,8,,,64,0,7
77056,note_on,,,,,0,0,8,,,65,96,7
77312,note_on,,,,,0,0,8,,,62,96,7
77312,note_off,,,,,256,0,7,,,71,0,6
77312,note_on,,,,,0,0,7,,,71,96,6
77312,note_off,,,,,512,0,6,,,60,0,5
77312,note_off,,,,,0,0,8,,,62,0,7
77312,note_on,,,,,0,0,6,,,60,96,5
77312,note_off,,,,,256,0,8,,,65,0,7
77312,note_on,,,,,0,0,8,,,65,96,7
77568,note_on,,,,,0,0,8,,,60,96,7
77568,note_on,,,,,0,0,7,,,69,96,6
77568,note_off,,,,,256,0,7,,,71,0,6
77568,note_off,,,,,256,0,8,,,65,0,7
77568,note_on,,,,,0,0,8,,,64,96,7
77568,note_off,,,,,0,0,8,,,62,0,7
77824,note_off,,,,,0,0,8,,,60,0,7
77824,note_on,,,,,0,0,7,,,71,96,6
77824,note_off,,,,,256,0,7,,,69,0,6
77824,note_on,,,,,0,0,8,,,65,96,7
77824,note_on,,,,,0,0,8,,,62,96,7
77824,note_off,,,,,256,0,8,,,64,0,7
77824,note_off,,,,,512,0,6,,,60,0,5
77824,note_on,,,,,0,0,6,,,60,96,5
77824,note_on,,,,,1024,0,5,,,48,96,4
78080,note_off,,,,,256,0,7,,,71,0,6
78080,note_on,,,,,0,0,8,,,59,96,7
78080,note_off,,,,,0,0,8,,,62,0,7
78080,note_on,,,,,0,0,8,,,62,96,7
78080,note_off,,,,,256,0,8,,,65,0,7
78080,note_on,,,,,0,0,7,,,65,96,6
78336,note_on,,,,,0,0,7,,,71,96,6
78336,note_on,,,,,0,0,6,,,60,96,5
78336,note_off,,,,,512,0,6,,,60,0,5
78336,note_off,,,,,256,0,8,,,62,0,7
78336,note_on,,,,,0,0,8,,,65,96,7
78336,note_off,,,,,0,0,8,,,59,0,7
78336,note_on,,,,,0,0,8,,,62,96,7
78336,note_off,,,,,256,0,7,,,65,0,6
78592,note_off,,,,,256,0,8,,,65,0,7
78592,note_off,,,,,256,0,7,,,71,0,6
78592,note_on,,,,,0,0,7,,,74,96,6
78592,note_on,,,,,0,0,8,,,71,96,7
78592,note_on,,,,,0,0,8,,,65,96,7
78592,note_off,,,,,0,0,8,,,62,0,7
78848,note_off,,,,,512,0,6,,,60,0,5
78848,note_off,,,,,256,0,8,,,71,0,7
78848,note_on,,,,,0,0,8,,,71,96,7
78848,note_off,,,,,0,0,8,,,65,0,7
78848,note_on,,,,,0,0,6,,,60,96,5
78848,note_on,,,,,0,0,8,,,65,96,7
78848,note_off,,,,,1024,0,5,,,48,0,4
78848,note_off,,,,,256,0,7,,,74,0,6
78848,note_on,,,,,0,0,7,,,74,96,6
79104,note_off,,,,,0,0,8,,,65,0,7
79104,note_on,,,,,0,0,7,,,72,96,6
79104,note_off,,,,,256,0,7,,,74,0,6
79104,note_off,,,,,256,0,8,,,71,0,7
79104,note_on,,,,,0,0,8,,,64,96,7
79104,note_on,,,,,0,0,8,,,67,96,7
79360,note_on,,,,,0,0,6,,,60,96,5
79360,note_off,,,,,512,0,6,,,60,0,5
79360,note_on,,,,,0,0,7,,,72,96,6
79360,note_off,,,,,256,0,8,,,67,0,7
79360,note_on,,,,,0,0,8,,,67,96,7
79360,note_off,,,,,0,0,8,,,64,0,7
79360,note_on,,,,,0,0,8,,,64,96,7
79360,note_off,,,,,256,0,7,,,72,0,6
79616,note_on,,,,,0,0,7,,,71,96,6
79616,note_off,,,,,256,0,8,,,67,0,7
79616,note_on,,,,,0,0,8,,,62,96,7
79616,note_on,,,,,0,0,8,,,65,96,7
79616,note_off,,,,,0,0,8,,,64,0,7
79616,note_off,,,,,256,0,7,,,72,0,6
79872,note_on,,,,,1024,0,5,,,48,96,4
79872,note_off,,,,,512,0,6,,,60,0,5
79872,note_off,,,,,256,0,8,,,65,0,7
79872,note_on,,,,,0,0,7,,,72,96,6
79872,note_on,,,,,0,0,6,,,60,96,5
79872,note_on,,,,,0,0,8,,,67,96,7
79872,note_off,,,,,256,0,7,,,71,0,6
79872,note_on,,,,,0,0,8,,,64,96,7
79872,note_off,,,,,0,0,8,,,62,0,7
80128,note_on,,,,,0,0,8,,,60,96,7
80128,note_off,,,,,256,0,8,,,67,0,7
80128,note_on,,,,,0,0,8,,,64,96,7
80128,note_off,,,,,0,0,8,,,64,0,7
80128,note_off,,,,,256,0,7,,,72,0,6
80128,note_on,,,,,0,0,7,,,67,96,6
80384,note_off,,,,,0,0,8,,,60,0,7
80384,note_off,,,,,256,0,8,,,64,0,7
80384,note_off,,,,,256,0,7,,,67,0,6
80384,note_on,,,,,0,0,7,,,72,96,6
80384,note_on,,,,,0,0,8,,,67,96,7
80384,note_on,,,,,0,0,8,,,64,96,7
80640,note_on,,,,,0,0,8,,,72,96,7
80640,note_off,,,,,256,0,7,,,72,0,6
80640,note_off,,,,,0,0,8,,,64,0,7
80640,note_on,,,,,0,0,8,,,67,96,7
80640,note_off,,,,,256,0,8,,,67,0,7
80640,note_on,,,,,0,0,7,,,76,96,6
80896,note_on,,,,,0,0,8,,,67,96,7
80896,note_off,,,,,1024,0,5,,,48,0,4
80896,note_on,,,,,0,0,5,,,60,96,4
80896,note_on,,,,,6144,0,1,,,72,96,0
80896,note_on,,,,,0,0,8,,,72,96,7
80896,note_on,,,,,0,0,7,,,76,96,6
80896,note_on,,,,,6144,0,4,,,60,96,3
80896,note_off,,,,,256,0,7,,,76,0,6
80896,note_off,,,,,256,0,8,,,72,0,7
80896,note_on,,,,,0,0,6,,,72,96,5
80896,note_off,,,,,1024,0,6,,,60,0,5
80896,note_on,,,,,6144,0,2,,,67,96,1
80896,note_on,,,,,6144,0,3,,,64,96,2
80896,note_off,,,,,0,0,8,,,67,0,7
81152,note_off,,,,,256,0,7,,,76,0,6
81152,note_on,,,,,0,0,7,,,74,96,6
81408,note_off,,,,,512,0,5,,,60,0,4
81408,note_on,,,,,0,0,8,,,67,96,7
81408,note_off,,,,,512,0,8,,,72,0,7
81408,note_on,,,,,0,0,4,,,58,96,3
81408,note_off,,,,,512,0,4,,,60,0,3
81408,note_off,,,,,0,0,8,,,67,0,7
81408,note_off,,,,,256,0,7,,,74,0,6
81408,note_on,,,,,0,0,8,,,64,96,7
81408,note_on,,,,,0,0,7,,,74,96,6
81408,note_on,,,,,0,0,5,,,58,96,4
81664,note_off,,,,,256,0,7,,,74,0,6
81664,note_on,,,,,0,0,7,,,72,96,6
81920,note_off,,,,,512,0,5,,,58,0,4
81920,note_on,,,,,0,0,4,,,57,96,3
81920,note_off,,,,,512,0,4,,,58,0,3
81920,note_on,,,,,0,0,5,,,57,96,4
81920,note_off,,,,,1024,0,1,,,72,0,0
81920,note_on,,,,,0,0,1,,,72,96,0
81920,note_off,,,,,256,0,7,,,72,0,6
81920,note_off,,,,,0,0,8,,,64,0,7
81920,note_off,,,,,1024,0,3,,,64,0,2
81920,note_on,,,,,0,0,8,,,69,96,7
81920,note_on,,,,,0,0,7,,,77,96,6
81920,note_on,,,,,0,0,3,,,60,96,2
81920,note_on,,,,,0,0,8,,,60,96,7
81920,note_on,,,,,0,0,6,,,72,96,5
81920,note_off,,,,,1024,0,6,,,72,0,5
81920,note_on,,,,,0,0,2,,,65,96,1
81920,note_off,,,,,1024,0,2,,,67,0,1
81920,note_off,,,,,512,0,8,,,67,0,7
82432,note_off,,,,,512,0,4,,,57,0,3
82432,note_off,,,,,512,0,1,,,72,0,0
82432,note_on,,,,,0,0,5,,,55,96,4
82432,note_on,,,,,0,0,4,,,55,96,3
82432,note_on,,,,,0,0,1,,,70,96,0
82432,note_off,,,,,512,0,5,,,57,0,4
82432,note_on,,,,,0,0,6,,,70,96,5
82432,note_off,,,,,512,0,6,,,72,0,5
82944,note_on,,,,,0,0,3,,,60,96,2
82944,note_off,,,,,512,0,4,,,55,0,3
82944,note_on,,,,,0,0,4,,,53,96,3
82944,note_off,,,,,0,0,8,,,60,0,7
82944,note_off,,,,,1024,0,8,,,69,0,7
82944,note_on,,,,,0,0,6,,,69,96,5
82944,note_off,,,,,512,0,6,,,70,0,5
82944,note_off,,,,,1024,0,3,,,60,0,2
82944,note_on,,,,,0,0,2,,,65,96,1
82944,note_off,,,,,1024,0,2,,,65,0,1
82944,note_off,,,,,1024,0,7,,,77,0,6
82944,note_on,,,,,0,0,1,,,69,96,0
82944,note_off,,,,,512,0,1,,,70,0,0
82944,note_on,,,,,0,0,5,,,53,96,4
82944,note_off,,,,,512,0,5,,,55,0,4
83456,note_on,,,,,0,0,5,,,51,96,4
83456,note_off,,,,,512,0,4,,,53,0,3
83456,note_on,,,,,0,0,4,,,51,96,3
83456,note_off,,,,,512,0,5,,,53,0,4
83968,note_on,,,,,0,0,1,,,70,96,0
83968,note_off,,,,,1024,0,1,,,69,0,0
83968,note_off,,,,,512,0,4,,,51,0,3
83968,note_on,,,,,0,0,4,,,50,96,3
83968,note_off,,,,,1024,0,6,,,69,0,5
83968,note_on,,,,,0,0,5,,,50,96,4
83968,note_on,,,,,0,0,6,,,70,96,5
83968,note_off,,,,,1024,0,3,,,60,0,2
83968,note_on,,,,,0,0,3,,,62,96,2
83968,note_off,,,,,1024,0,2,,,65,0,1
83968,note_on,,,,,0,0,2,,,65,96,1
83968,note_off,,,,,512,0,5,,,51,0,4
84480,note_off,,,,,512,0,5,,,50,0,4
84480,note_on,,,,,0,0,5,,,48,96,4
84480,note_off,,,,,512,0,4,,,50,0,3
84480,note_on,,,,,0,0,4,,,48,96,3
84992,note_on,,,,,0,0,4,,,46,96,3
84992,note_on,,,,,0,0,6,,,72,96,5
84992,note_off,,,,,1024,0,6,,,70,0,5
84992,note_off,,,,,512,0,5,,,48,0,4
84992,note_on,,,,,0,0,5,,,46,96,4
84992,note_on,,,,,0,0,1,,,72,96,0
84992,note_off,,,,,1024,0,3,,,62,0,2
84992,note_off,,,,,512,0,4,,,48,0,3
84992,note_on,,,,,0,0,3,,,60,96,2
84992,note_off,,,,,1024,0,1,,,70,0,0
84992,note_on,,,,,0,0,2,,,65,96,1
84992,note_off,,,,,1024,0,2,,,65,0,1
85504,note_off,,,,,512,0,5,,,46,0,4
85504,note_on,,,,,0,0,4,,,45,96,3
85504,note_on,,,,,0,0,5,,,45,96,4
85504,note_on,,,,,0,0,6,,,74,96,5
85504,note_off,,,,,512,0,6,,,72,0,5
85504,note_off,,,,,512,0,4,,,46,0,3
85504,note_off,,,,,512,0,1,,,72,0,0
85504,note_on,,,,,0,0,1,,,74,96,0
85760,note_off,,,,,256,0,1,,,74,0,0
85760,note_on,,,,,0,0,1,,,75,96,0
85760,note_on,,,,,0,0,6,,,75,96,5
85760,note_off,,,,,256,0,6,,,74,0,5
86016,note_off,,,,,1024,0,2,,,65,0,1
86016,note_on,,,,,0,0,1,,,74,96,0
86016,note_off,,,,,512,0,4,,,45,0,3
86016,note_on,,,,,0,0,4,,,46,96,3
86016,note_off,,,,,256,0,6,,,75,0,5
86016,note_off,,,,,512,0,5,,,45,0,4
86016,note_on,,,,,0,0,2,,,65,96,1
86016,note_on,,,,,0,0,6,,,74,96,5
86016,note_on,,,,,0,0,3,,,58,96,2
86016,note_off,,,,,1024,0,3,,,60,0,2
86016,note_on,,,,,0,0,5,,,46,96,4
86016,note_off,,,,,256,0,1,,,75,0,0
86528,note_on,,,,,3584,0,7,,,74,96,6
86528,note_off,,,,,512,0,6,,,74,0,5
86528,note_on,,,,,0,0,8,,,65,96,7
86528,note_on,,,,,0,0,6,,,53,96,5
86528,note_on,,,,,3584,0,8,,,70,96,7
86784,note_off,,,,,256,0,7,,,74,0,6
86784,note_off,,,,,256,0,8,,,70,0,7
86784,note_on,,,,,0,0,7,,,77,96,6
86784,note_on,,,,,0,0,8,,,74,96,7
87040,note_off,,,,,1024,0,4,,,46,0,3
87040,note_off,,,,,1024,0,5,,,46,0,4
87040,note_on,,,,,0,0,6,,,53,96,5
87040,note_on,,,,,0,0,8,,,74,96,7
87040,note_off,,,,,0,0,8,,,65,0,7
87040,note_on,,,,,0,0,8,,,70,96,7
87040,note_off,,,,,1024,0,2,,,65,0,1
87040,note_off,,,,,1024,0,1,,,74,0,0
87040,note_on,,,,,0,0,7,,,77,96,6
87040,note_off,,,,,256,0,7,,,77,0,6
87040,note_off,,,,,1024,0,3,,,58,0,2
87040,note_off,,,,,256,0,8,,,74,0,7
87040,note_off,,,,,512,0,6,,,53,0,5
87296,note_off,,,,,256,0,8,,,74,0,7
87296,note_on,,,,,0,0,8,,,72,96,7
87296,note_on,,,,,0,0,7,,,75,96,6
87296,note_off,,,,,256,0,7,,,77,0,6
87552,note_off,,,,,256,0,8,,,72,0,7
87552,note_on,,,,,0,0,8,,,72,96,7
87552,note_off,,,,,0,0,8,,,70,0,7
87552,note_on,,,,,0,0,7,,,75,96,6
87552,note_off,,,,,256,0,7,,,75,0,6
87552,note_on,,,,,0,0,8,,,65,96,7
87552,note_on,,,,,0,0,6,,,53,96,5
87552,note_off,,,,,512,0,6,,,53,0,5
87808,note_on,,,,,0,0,8,,,70,96,7
87808,note_off,,,,,256,0,7,,,75,0,6
87808,note_off,,,,,256,0,8,,,72,0,7
87808,note_on,,,,,0,0,7,,,74,96,6
88064,note_off,,,,,512,0,6,,,53,0,5
88064,note_on,,,,,0,0,6,,,53,96,5
88064,note_off,,,,,256,0,8,,,70,0,7
88064,note_on,,,,,0,0,8,,,72,96,7
88064,note_off,,,,,0,0,8,,,65,0,7
88064,note_on,,,,,1024,0,5,,,45,96,4
88064,note_off,,,,,256,0,7,,,74,0,6
88064,note_on,,,,,0,0,7,,,75,96,6
88320,note_off,,,,,256,0,8,,,72,0,7
88320,note_on,,,,,0,0,8,,,69,96,7
88320,note_off,,,,,256,0,7,,,75,0,6
88320,note_on,,,,,0,0,7,,,72,96,6
88576,note_off,,,,,256,0,7,,,72,0,6
88576,note_on,,,,,0,0,6,,,53,96,5
88576,note_off,,,,,512,0,6,,,53,0,5
88576,note_on,,,,,0,0,7,,,72,96,6
88576,note_on,,,,,0,0,8,,,65,96,7
88576,note_on,,,,,0,0,8,,,69,96,7
88576,note_off,,,,,256,0,8,,,69,0,7
88832,note_on,,,,,0,0,8,,,72,96,7
88832,note_on,,,,,0,0,7,,,75,96,6
88832,note_off,,,,,256,0,8,,,69,0,7
88832,note_off,,,,,256,0,7,,,72,0,6
89088,note_off,,,,,256,0,8,,,72,0,7
89088,note_on,,,,,0,0,8,,,72,96,7
89088,note_off,,,,,0,0,8,,,65,0,7
89088,note_off,,,,,256,0,7,,,75,0,6
89088,note_on,,,,,0,0,8,,,69,96,7
89088,note_on,,,,,0,0,7,,,75,96,6
89088,note_off,,,,,512,0,6,,,53,0,5
89088,note_off,,,,,1024,0,5,,,45,0,4
89088,note_on,,,,,0,0,6,,,53,96,5
89344,note_off,,,,,256,0,8,,,72,0,7
89344,note_off,,,,,256,0,7,,,75,0,6
89344,note_on,,,,,0,0,8,,,70,96,7
89344,note_on,,,,,0,0,7,,,74,96,6
89600,note_off,,,,,0,0,8,,,69,0,7
89600,note_on,,,,,0,0,7,,,74,96,6
89600,note_on,,,,,0,0,8,,,65,96,7
89600,note_off,,,,,256,0,7,,,74,0,6
89600,note_on,,,,,0,0,8,,,70,96,7
89600,note_off,,,,,512,0,6,,,53,0,5
89600,note_on,,,,,0,0,6,,,53,96,5
89600,note_off,,,,,256,0,8,,,70,0,7
89856,note_off,,,,,256,0,8,,,70,0,7
89856,note_on,,,,,0,0,7,,,72,96,6
89856,note_off,,,,,256,0,7,,,74,0,6
89856,note_on,,,,,0,0,8,,,69,96,7
90112,note_off,,,,,256,0,8,,,69,0,7
90112,note_off,,,,,0,0,8,,,65,0,7
90112,note_on,,,,,0,0,8,,,70,96,7
90112,note_off,,,,,512,0,6,,,53,0,5
90112,note_on,,,,,0,0,6,,,53,96,5
90112,note_off,,,,,256,0,7,,,72,0,6
90112,note_on,,,,,1024,0,5,,,46,96,4
90112,note_on,,,,,0,0,7,,,74,96,6
90368,note_off,,,,,256,0,8,,,70,0,7
90368,note_on,,,,,0,0,8,,,65,96,7
90368,note_on,,,,,0,0,7,,,70,96,6
90368,note_off,,,,,256,0,7,,,74,0,6
90624,note_off,,,,,512,0,6,,,53,0,5
90624,note_on,,,,,0,0,6,,,53,96,5
90624,note_on,,,,,0,0,7,,,70,96,6
90624,note_off,,,,,256,0,7,,,70,0,6
90624,note_off,,,,,256,0,8,,,65,0,7
90624,note_on,,,,,0,0,8,,,62,96,7
90624,note_on,,,,,0,0,8,,,65,96,7
90880,note_off,,,,,256,0,8,,,65,0,7
90880,note_off,,,,,256,0,7,,,70,0,6
90880,note_on,,,,,0,0,7,,,74,96,6
90880,note_off,,,,,0,0,8,,,62,0,7
90880,note_on,,,,,0,0,8,,,70,96,7
90880,note_on,,,,,0,0,8,,,65,96,7
91136,note_off,,,,,256,0,7,,,74,0,6
91136,note_on,,,,,0,0,7,,,74,96,6
91136,note_off,,,,,256,0,8,,,70,0,7
91136,note_on,,,,,0,0,8,,,65,96,7
91136,note_on,,,,,0,0,8,,,70,96,7
91136,note_off,,,,,0,0,8,,,65,0,7
91136,note_off,,,,,512,0,6,,,53,0,5
91136,note_on,,,,,0,0,6,,,53,96,5
91136,note_off,,,,,1024,0,5,,,46,0,4
91392,note_off,,,,,256,0,7,,,74,0,6
91392,note_on,,,,,0,0,7,,,72,96,6
91392,note_off,,,,,256,0,8,,,70,0,7
91392,note_on,,,,,0,0,8,,,69,96,7
91392,note_off,,,,,0,0,8,,,65,0,7
91392,note_on,,,,,0,0,8,,,63,96,7
91648,note_on,,,,,0,0,8,,,63,96,7
91648,note_off,,,,,0,0,8,,,63,0,7
91648,note_on,,,,,0,0,8,,,69,96,7
91648,note_off,,,,,256,0,8,,,69,0,7
91648,note_off,,,,,256,0,7,,,72,0,6
91648,note_on,,,,,0,0,7,,,72,96,6
91648,note_off,,,,,512,0,6,,,53,0,5
91648,note_on,,,,,0,0,6,,,53,96,5
91904,note_on,,,,,0,0,7,,,70,96,6
91904,note_off,,,,,256,0,7,,,72,0,6
91904,note_off,,,,,256,0,8,,,69,0,7
91904,note_on,,,,,0,0,8,,,67,96,7
91904,note_off,,,,,0,0,8,,,63,0,7
91904,note_on,,,,,0,0,8,,,62,96,7
92160,note_off,,,,,512,0,6,,,53,0,5
92160,note_on,,,,,0,0,6,,,53,96,5
92160,note_on,,,,,0,0,8,,,60,96,7
92160,note_on,,,,,0,0,7,,,72,96,6
92160,note_off,,,,,0,0,8,,,62,0,7
92160,note_on,,,,,0,0,8,,,69,96,7
92160,note_off,,,,,256,0,8,,,67,0,7
92160,note_on,,,,,1024,0,5,,,41,96,4
92160,note_off,,,,,256,0,7,,,70,0,6
92416,note_off,,,,,256,0,7,,,72,0,6
92416,note_on,,,,,0,0,7,,,69,96,6
92416,note_off,,,,,256,0,8,,,69,0,7
92416,note_on,,,,,0,0,8,,,65,96,7
92672,note_off,,,,,256,0,7,,,69,0,6
92672,note_off,,,,,256,0,8,,,65,0,7
92672,note_on,,,,,0,0,6,,,57,96,5
92672,note_off,,,,,512,0,6,,,53,0,5
92672,note_on,,,,,0,0,8,,,60,96,7
92672,note_off,,,,,0,0,8,,,60,0,7
92672,note_on,,,,,0,0,8,,,65,96,7
92672,note_on,,,,,0,0,7,,,69,96,6
92928,note_on,,,,,0,0,8,,,69,96,7
92928,note_off,,,,,256,0,8,,,65,0,7
92928,note_on,,,,,0,0,6,,,53,96,5
92928,note_off,,,,,256,0,6,,,57,0,5
92928,note_off,,,,,256,0,7,,,69,0,6
92928,note_on,,,,,0,0,7,,,72,96,6
93184,note_on,,,,,0,0,8,,,69,96,7
93184,note_on,,,,,0,0,8,,,65,96,7
93184,note_off,,,,,1024,0,5,,,41,0,4
93184,note_off,,,,,256,0,6,,,53,0,5
93184,note_off,,,,,256,0,7,,,72,0,6
93184,note_on,,,,,0,0,7,,,72,96,6
93184,note_off,,,,,256,0,8,,,69,0,7
93184,note_on,,,,,0,0,6,,,60,96,5
93184,note_off,,,,,0,0,8,,,60,0,7
93440,note_off,,,,,256,0,8,,,69,0,7
93440,note_off,,,,,256,0,7,,,72,0,6
93440,note_on,,,,,0,0,7,,,70,96,6
93440,note_on,,,,,0,0,8,,,67,96,7
93696,note_on,,,,,0,0,6,,,60,96,5
93696,note_off,,,,,512,0,6,,,60,0,5
93696,note_on,,,,,0,0,8,,,60,96,7
93696,note_off,,,,,0,0,8,,,65,0,7
93696,note_off,,,,,256,0,7,,,70,0,6
93696,note_off,,,,,256,0,8,,,67,0,7
93696,note_on,,,,,0,0,8,,,67,96,7
93696,note_on,,,,,0,0,7,,,70,96,6
93952,note_off,,,,,256,0,7,,,70,0,6
93952,note_off,,,,,256,0,8,,,67,0,7
93952,note_on,,,,,0,0,8,,,65,96,7
93952,note_on,,,,,0,0,7,,,69,96,6
94208,note_on,,,,,1024,0,5,,,40,96,4
94208,note_on,,,,,0,0,8,,,67,96,7
94208,note_off,,,,,256,0,8,,,65,0,7
94208,note_off,,,,,0,0,8,,,60,0,7
94208,note_off,,,,,256,0,7,,,69,0,6
94208,note_off,,,,,512,0,6,,,60,0,5
94208,note_on,,,,,0,0,6,,,60,96,5
94208,note_on,,,,,0,0,7,,,70,96,6
94464,note_off,,,,,256,0,7,,,70,0,6
94464,note_on,,,,,0,0,7,,,67,96,6
94464,note_off,,,,,256,0,8,,,67,0,7
94464,note_on,,,,,0,0,8,,,64,96,7
94720,note_off,,,,,256,0,8,,,64,0,7
94720,note_on,,,,,0,0,8,,,64,96,7
94720,note_on,,,,,0,0,8,,,67,96,7
94720,note_on,,,,,0,0,5,,,43,96,4
94720,note_on,,,,,0,0,6,,,60,96,5
94720,note_off,,,,,512,0,5,,,40,0,4
94720,note_off,,,,,256,0,7,,,67,0,6
94720,note_on,,,,,0,0,7,,,67,96,6
94720,note_off,,,,,512,0,6,,,60,0,5
94976,note_off,,,,,256,0,7,,,67,0,6
94976,note_on,,,,,0,0,7,,,70,96,6
94976,note_on,,,,,0,0,8,,,67,96,7
94976,note_off,,,,,256,0,8,,,64,0,7
95232,note_off,,,,,512,0,5,,,43,0,4
95232,note_on,,,,,8192,0,3,,,60,96,2
95232,note_on,,,,,0,0,7,,,70,96,6
95232,note_off,,,,,256,0,8,,,67,0,7
95232,note_on,,,,,8192,0,2,,,64,96,1
95232,note_off,,,,,512,0,6,,,60,0,5
95232,note_on,,,,,0,0,8,,,64,96,7
95232,note_on,,,,,0,0,8,,,67,96,7
95232,note_on,,,,,0,0,5,,,36,96,4
95232,note_off,,,,,0,0,8,,,67,0,7
95232,note_on,,,,,8192,0,4,,,48,96,3
95232,note_on,,,,,8192,0,1,,,67,96,0
95232,note_on,,,,,0,0,6,,,67,96,5
95232,note_off,,,,,256,0,7,,,70,0,6
95488,note_on,,,,,0,0,8,,,65,96,7
95488,note_off,,,,,256,0,8,,,67,0,7
95488,note_off,,,,,256,0,7,,,70,0,6
95488,note_on,,,,,0,0,7,,,69,96,6
95744,note_on,,,,,0,0,7,,,69,96,6
95744,note_off,,,,,256,0,8,,,65,0,7
95744,note_off,,,,,256,0,7,,,69,0,6
95744,note_on,,,,,0,0,8,,,60,96,7
95744,note_off,,,,,0,0,8,,,64,0,7
95744,note_on,,,,,0,0,8,,,65,96,7
95744,note_off,,,,,512,0,5,,,36,0,4
95744,note_on,,,,,0,0,5,,,48,96,4
96000,note_on,,,,,0,0,7,,,67,96,6
96000,note_off,,,,,256,0,8,,,65,0,7
96000,note_on,,,,,0,0,8,,,64,96,7
96000,note_off,,,,,256,0,7,,,69,0,6
96256,note_off,,,,,1024,0,6,,,67,0,5
96256,note_on,,,,,0,0,6,,,69,96,5
96256,note_off,,,,,1024,0,1,,,67,0,0
96256,note_off,,,,,1024,0,2,,,64,0,1
96256,note_on,,,,,0,0,2,,,65,96,1
96256,note_on,,,,,0,0,1,,,69,96,0
96256,note_on,,,,,0,0,8,,,65,96,7
96256,note_on,,,,,0,0,3,,,60,96,2
96256,note_on,,,,,0,0,4,,,53,96,3
96256,note_off,,,,,1024,0,3,,,60,0,2
96256,note_on,,,,,0,0,8,,,60,96,7
96256,note_off,,,,,512,0,5,,,48,0,4
96256,note_on,,,,,0,0,5,,,53,96,4
96256,note_off,,,,,0,0,8,,,60,0,7
96256,note_off,,,,,1024,0,4,,,48,0,3
96256,note_off,,,,,256,0,8,,,64,0,7
96256,note_on,,,,,0,0,7,,,69,96,6
96256,note_off,,,,,256,0,7,,,67,0,6
96512,note_off,,,,,256,0,7,,,69,0,6
96512,note_on,,,,,0,0,7,,,65,96,6
96768,note_on,,,,,0,0,8,,,65,96,7
96768,note_on,,,,,0,0,5,,,52,96,4
96768,note_on,,,,,0,0,4,,,52,96,3
96768,note_off,,,,,512,0,4,,,53,0,3
96768,note_off,,,,,512,0,8,,,65,0,7
96768,note_off,,,,,0,0,8,,,60,0,7
96768,note_on,,,,,0,0,7,,,65,96,6
96768,note_off,,,,,256,0,7,,,65,0,6
96768,note_on,,,,,0,0,8,,,60,96,7
96768,note_off,,,,,512,0,5,,,53,0,4
97024,note_on,,,,,0,0,7,,,77,96,6
97024,note_off,,,,,256,0,7,,,65,0,6
97280,note_off,,,,,512,0,8,,,65,0,7
97280,note_on,,,,,0,0,8,,,65,96,7
97280,note_off,,,,,0,0,8,,,60,0,7
97280,note_on,,,,,0,0,8,,,62,96,7
97280,note_off,,,,,1024,0,1,,,69,0,0
97280,note_off,,,,,512,0,4,,,52,0,3
97280,note_off,,,,,1024,0,3,,,60,0,2
97280,note_on,,,,,0,0,6,,,69,96,5
97280,note_off,,,,,1024,0,6,,,69,0,5
97280,note_off,,,,,1024,0,2,,,65,0,1
97280,note_on,,,,,0,0,2,,,65,96,1
97280,note_off,,,,,256,0,7,,,77,0,6
97280,note_on,,,,,0,0,3,,,62,96,2
97280,note_on,,,,,0,0,7,,,77,96,6
97280,note_on,,,,,0,0,1,,,69,96,0
97280,note_on,,,,,0,0,5,,,50,96,4
97280,note_off,,,,,512,0,5,,,52,0,4
97280,note_on,,,,,0,0,4,,,50,96,3
97536,note_on,,,,,0,0,7,,,75,96,6
97536,note_off,,,,,256,0,7,,,77,0,6
97792,note_off,,,,,256,0,7,,,75,0,6
97792,note_off,,,,,512,0,4,,,50,0,3
97792,note_on,,,,,0,0,4,,,48,96,3
97792,note_off,,,,,512,0,5,,,50,0,4
97792,note_on,,,,,0,0,7,,,75,96,6
97792,note_off,,,,,512,0,8,,,65,0,7
97792,note_on,,,,,0,0,8,,,65,96,7
97792,note_off,,,,,0,0,8,,,62,0,7
97792,note_on,,,,,0,0,8,,,62,96,7
97792,note_on,,,,,0,0,5,,,48,96,4
98048,note_off,,,,,256,0,7,,,75,0,6
98048,note_on,,,,,0,0,7,,,74,96,6
98304,note_on,,,,,0,0,6,,,67,96,5
98304,note_off,,,,,512,0,4,,,48,0,3
98304,note_off,,,,,1024,0,2,,,65,0,1
98304,note_on,,,,,0,0,2,,,65,96,1
98304,note_on,,,,,0,0,4,,,46,96,3
98304,note_off,,,,,1024,0,3,,,62,0,2
98304,note_on,,,,,0,0,3,,,62,96,2
98304,note_off,,,,,1024,0,6,,,69,0,5
98304,note_off,,,,,1024,0,1,,,69,0,0
98304,note_on,,,,,0,0,7,,,74,96,6
98304,note_off,,,,,256,0,7,,,74,0,6
98304,note_off,,,,,512,0,8,,,65,0,7
98304,note_off,,,,,0,0,8,,,62,0,7
98304,note_on,,,,,0,0,8,,,65,96,7
98304,note_on,,,,,0,0,8,,,62,96,7
98304,note_on,,,,,0,0,1,,,67,96,0
98304,note_on,,,,,0,0,5,,,46,96,4
98304,note_off,,,,,512,0,5,,,48,0,4
98560,note_off,,,,,256,0,7,,,74,0,6
98560,note_on,,,,,0,0,7,,,70,96,6
98816,note_on,,,,,0,0,8,,,64,96,7
98816,note_off,,,,,512,0,5,,,46,0,4
98816,note_off,,,,,512,0,3,,,62,0,2
98816,note_on,,,,,0,0,3,,,64,96,2
98816,note_off,,,,,512,0,8,,,65,0,7
98816,note_on,,,,,0,0,4,,,43,96,3
98816,note_on,,,,,0,0,5,,,43,96,4
98816,note_off,,,,,512,0,2,,,65,0,1
98816,note_on,,,,,0,0,2,,,64,96,1
98816,note_on,,,,,0,0,7,,,70,96,6
98816,note_off,,,,,256,0,7,,,70,0,6
98816,note_on,,,,,0,0,8,,,64,96,7
98816,note_off,,,,,0,0,8,,,62,0,7
98816,note_on,,,,,0,0,6,,,69,96,5
98816,note_off,,,,,512,0,6,,,67,0,5
98816,note_off,,,,,512,0,4,,,46,0,3
99072,note_off,,,,,256,0,2,,,64,0,1
99072,note_on,,,,,0,0,2,,,62,96,1
99072,note_on,,,,,0,0,6,,,70,96,5
99072,note_off,,,,,256,0,6,,,69,0,5
99072,note_on,,,,,0,0,8,,,62,96,7
99072,note_on,,,,,0,0,3,,,65,96,2
99072,note_on,,,,,0,0,7,,,74,96,6
99072,note_off,,,,,256,0,7,,,70,0,6
99072,note_on,,,,,0,0,8,,,65,96,7
99072,note_off,,,,,0,0,8,,,64,0,7
99072,note_off,,,,,256,0,8,,,64,0,7
99072,note_off,,,,,256,0,3,,,64,0,2
99328,note_off,,,,,512,0,4,,,43,0,3
99328,note_on,,,,,0,0,4,,,48,96,3
99328,note_on,,,,,0,0,7,,,72,96,6
99328,note_on,,,,,0,0,1,,,67,96,0
99328,note_off,,,,,256,0,2,,,62,0,1
99328,note_on,,,,,0,0,2,,,64,96,1
99328,note_on,,,,,0,0,3,,,64,96,2
99328,note_off,,,,,512,0,5,,,43,0,4
99328,note_off,,,,,256,0,7,,,74,0,6
99328,note_off,,,,,256,0,8,,,62,0,7
99328,note_on,,,,,0,0,8,,,64,96,7
99328,note_on,,,,,0,0,8,,,64,96,7
99328,note_off,,,,,0,0,8,,,65,0,7
99328,note_off,,,,,1024,0,1,,,67,0,0
99328,note_on,,,,,0,0,5,,,48,96,4
99328,note_off,,,,,256,0,3,,,65,0,2
99328,note_on,,,,,0,0,6,,,67,96,5
99328,note_off,,,,,256,0,6,,,70,0,5
99584,note_on,,,,,0,0,7,,,70,96,6
99584,note_off,,,,,256,0,7,,,72,0,6
99840,note_on,,,,,0,0,5,,,36,96,4
99840,note_off,,,,,512,0,5,,,48,0,4
99840,note_on,,,,,0,0,2,,,64,96,1
99840,note_off,,,,,512,0,2,,,64,0,1
99840,note_on,,,,,0,0,7,,,70,96,6
99840,note_off,,,,,256,0,7,,,70,0,6
99840,note_on,,,,,0,0,3,,,55,96,2
99840,note_off,,,,,512,0,8,,,64,0,7
99840,note_on,,,,,0,0,8,,,64,96,7
99840,note_off,,,,,0,0,8,,,64,0,7
99840,note_off,,,,,512,0,3,,,64,0,2
99840,note_on,,,,,0,0,8,,,60,96,7
100096,note_on,,,,,0,0,7,,,69,96,6
100096,note_off,,,,,256,0,7,,,70,0,6
100352,note_off,,,,,512,0,3,,,55,0,2
100352,note_on,,,,,0,0,3,,,57,96,2
100352,note_off,,,,,512,0,5,,,36,0,4
100352,note_on,,,,,0,0,2,,,65,96,1
100352,note_off,,,,,512,0,2,,,64,0,1
100352,note_on,,,,,0,0,5,,,41,96,4
100352,note_on,,,,,0,0,7,,,69,96,6
100352,note_off,,,,,256,0,7,,,69,0,6
100352,note_off,,,,,512,0,8,,,64,0,7
100352,note_on,,,,,0,0,6,,,65,96,5
100352,note_on,,,,,0,0,8,,,65,96,7
100352,note_off,,,,,0,0,8,,,60,0,7
100352,note_off,,,,,1024,0,4,,,48,0,3
100352,note_off,,,,,1024,0,6,,,67,0,5
100352,note_on,,,,,0,0,1,,,65,96,0
100352,note_on,,,,,0,0,4,,,53,96,3
100352,note_on,,,,,0,0,8,,,60,96,7
100352,note_off,,,,,1024,0,1,,,67,0,0
100864,note_off,,,,,512,0,7,,,69,0,6
100864,note_on,,,,,0,0,8,,,53,96,7
100864,note_off,,,,,512,0,6,,,65,0,5
100864,note_off,,,,,512,0,8,,,65,0,7
100864,note_on,,,,,0,0,7,,,60,96,6
100864,note_on,,,,,0,0,6,,,53,96,5
100864,note_off,,,,,0,0,8,,,60,0,7
100864,note_on,,,,,0,0,8,,,57,96,7
101120,note_off,,,,,256,0,7,,,60,0,6
101120,note_on,,,,,0,0,7,,,63,96,6
101120,note_off,,,,,256,0,8,,,57,0,7
101120,note_on,,,,,0,0,8,,,60,96,7
101376,note_on,,,,,0,0,8,,,57,96,7
101376,note_on,,,,,0,0,7,,,63,96,6
101376,note_on,,,,,0,0,6,,,53,96,5
101376,note_off,,,,,512,0,6,,,53,0,5
101376,note_on,,,,,0,0,8,,,60,96,7
101376,note_off,,,,,256,0,8,,,60,0,7
101376,note_off,,,,,1024,0,3,,,57,0,2
101376,note_off,,,,,1024,0,2,,,65,0,1
101376,note_off,,,,,1024,0,5,,,41,0,4
101376,note_off,,,,,0,0,8,,,53,0,7
101376,note_off,,,,,256,0,7,,,63,0,6
101632,note_on,,,,,0,0,7,,,62,96,6
101632,note_on,,,,,0,0,8,,,58,96,7
101632,note_off,,,,,256,0,7,,,63,0,6
101632,note_off,,,,,256,0,8,,,60,0,7
101888,note_off,,,,,256,0,7,,,62,0,6
101888,note_on,,,,,0,0,7,,,62,96,6
101888,note_on,,,,,512,0,3,,,53,96,2
101888,note_off,,,,,512,0,6,,,53,0,5
101888,note_on,,,,,512,0,2,,,65,96,1
101888,note_on,,,,,0,0,6,,,53,96,5
101888,note_on,,,,,0,0,8,,,53,96,7
101888,note_off,,,,,0,0,8,,,57,0,7
101888,note_on,,,,,0,0,8,,,58,96,7
101888,note_off,,,,,256,0,8,,,58,0,7
102144,note_off,,,,,256,0,7,,,62,0,6
102144,note_off,,,,,256,0,2,,,65,0,1
102144,note_on,,,,,0,0,8,,,57,96,7
102144,note_on,,,,,0,0,2,,,63,96,1
102144,note_off,,,,,256,0,8,,,58,0,7
102144,note_on,,,,,0,0,7,,,60,96,6
102400,note_off,,,,,256,0,8,,,57,0,7
102400,note_on,,,,,1024,0,5,,,41,96,4
102400,note_on,,,,,0,0,7,,,62,96,6
102400,note_on,,,,,0,0,2,,,62,96,1
102400,note_off,,,,,512,0,3,,,53,0,2
102400,note_on,,,,,0,0,3,,,58,96,2
102400,note_off,,,,,512,0,6,,,53,0,5
102400,note_on,,,,,0,0,6,,,53,96,5
102400,note_on,,,,,0,0,8,,,58,96,7
102400,note_off,,,,,256,0,2,,,63,0,1
102400,note_off,,,,,0,0,8,,,53,0,7
102400,note_off,,,,,256,0,7,,,60,0,6
102912,note_off,,,,,512,0,7,,,62,0,6
102912,note_on,,,,,0,0,7,,,62,96,6
102912,note_on,,,,,0,0,6,,,53,96,5
102912,note_on,,,,,0,0,8,,,58,96,7
102912,note_on,,,,,0,0,8,,,53,96,7
102912,note_off,,,,,512,0,6,,,53,0,5
102912,note_off,,,,,512,0,8,,,58,0,7
103168,note_on,,,,,0,0,7,,,65,96,6
103168,note_off,,,,,256,0,7,,,62,0,6
103168,note_on,,,,,0,0,8,,,57,96,7
103168,note_off,,,,,0,0,8,,,53,0,7
103168,note_on,,,,,0,0,8,,,60,96,7
103168,note_off,,,,,256,0,8,,,58,0,7
103424,note_off,,,,,1024,0,5,,,41,0,4
103424,note_on,,,,,0,0,2,,,60,96,1
103424,note_off,,,,,1024,0,2,,,62,0,1
103424,note_off,,,,,1024,0,3,,,58,0,2
103424,note_off,,,,,512,0,6,,,53,0,5
103424,note_off,,,,,256,0,7,,,65,0,6
103424,note_off,,,,,256,0,8,,,60,0,7
103424,note_on,,,,,0,0,8,,,60,96,7
103424,note_off,,,,,0,0,8,,,57,0,7
103424,note_on,,,,,0,0,8,,,57,96,7
103424,note_on,,,,,0,0,6,,,53,96,5
103424,note_on,,,,,0,0,3,,,57,96,2
103424,note_on,,,,,0,0,7,,,65,96,6
103680,note_off,,,,,256,0,7,,,65,0,6
103680,note_on,,,,,0,0,7,,,64,96,6
103680,note_off,,,,,256,0,8,,,60,0,7
103680,note_off,,,,,0,0,8,,,57,0,7
103680,note_on,,,,,0,0,8,,,55,96,7
103680,note_on,,,,,0,0,8,,,58,96,7
103936,note_on,,,,,0,0,8,,,55,96,7
103936,note_on,,,,,0,0,8,,,58,96,7
103936,note_on,,,,,0,0,6,,,53,96,5
103936,note_off,,,,,512,0,6,,,53,0,5
103936,note_off,,,,,256,0,8,,,58,0,7
103936,note_on,,,,,0,0,7,,,64,96,6
103936,note_off,,,,,256,0,7,,,64,0,6
103936,note_off,,,,,0,0,8,,,55,0,7
104192,note_on,,,,,0,0,8,,,53,96,7
104192,note_on,,,,,0,0,7,,,62,96,6
104192,note_off,,,,,0,0,8,,,55,0,7
104192,note_off,,,,,256,0,7,,,64,0,6
104192,note_on,,,,,0,0,8,,,57,96,7
104192,note_off,,,,,256,0,8,,,58,0,7
104448,note_off,,,,,256,0,7,,,62,0,6
104448,note_on,,,,,0,0,6,,,53,96,5
104448,note_off,,,,,1024,0,3,,,57,0,2
104448,note_off,,,,,1024,0,2,,,60,0,1
104448,note_on,,,,,0,0,8,,,55,96,7
104448,note_off,,,,,0,0,8,,,53,0,7
104448,note_on,,,,,0,0,8,,,58,96,7
104448,note_on,,,,,1024,0,5,,,41,96,4
104448,note_off,,,,,256,0,8,,,57,0,7
104448,note_on,,,,,0,0,3,,,55,96,2
104448,note_on,,,,,0,0,2,,,58,96,1
104448,note_off,,,,,512,0,6,,,53,0,5
104448,note_on,,,,,0,0,7,,,64,96,6
104704,note_off,,,,,256,0,8,,,58,0,7
104704,note_off,,,,,0,0,8,,,55,0,7
104704,note_on,,,,,0,0,8,,,52,96,7
104704,note_on,,,,,0,0,8,,,55,96,7
104960,note_off,,,,,256,0,8,,,55,0,7
104960,note_on,,,,,0,0,7,,,64,96,6
104960,note_off,,,,,512,0,7,,,64,0,6
104960,note_off,,,,,512,0,6,,,53,0,5
104960,note_on,,,,,0,0,8,,,55,96,7
104960,note_off,,,,,0,0,8,,,52,0,7
104960,note_on,,,,,0,0,8,,,58,96,7
104960,note_on,,,,,0,0,6,,,53,96,5
105216,note_on,,,,,0,0,8,,,64,96,7
105216,note_off,,,,,0,0,8,,,55,0,7
105216,note_off,,,,,256,0,7,,,64,0,6
105216,note_on,,,,,0,0,7,,,67,96,6
105216,note_off,,,,,256,0,8,,,58,0,7
105216,note_on,,,,,0,0,8,,,58,96,7
105472,note_on,,,,,0,0,8,,,58,96,7
105472,note_off,,,,,1024,0,5,,,41,0,4
105472,note_off,,,,,256,0,7,,,67,0,6
105472,note_off,,,,,0,0,8,,,58,0,7
105472,note_on,,,,,0,0,8,,,64,96,7
105472,note_on,,,,,0,0,6,,,53,96,5
105472,note_off,,,,,256,0,8,,,64,0,7
105472,note_off,,,,,512,0,6,,,53,0,5
105472,note_on,,,,,0,0,7,,,67,96,6
105728,note_off,,,,,256,0,8,,,64,0,7
105728,note_off,,,,,0,0,8,,,58,0,7
105728,note_on,,,,,0,0,8,,,57,96,7
105728,note_off,,,,,256,0,7,,,67,0,6
105728,note_on,,,,,0,0,7,,,65,96,6
105728,note_on,,,,,0,0,8,,,60,96,7
105984,note_on,,,,,0,0,8,,,57,96,7
105984,note_off,,,,,256,0,8,,,60,0,7
105984,note_on,,,,,0,0,8,,,60,96,7
105984,note_off,,,,,0,0,8,,,57,0,7
105984,note_off,,,,,1536,0,3,,,55,0,2
105984,note_off,,,,,256,0,7,,,65,0,6
105984,note_off,,,,,1536,0,2,,,58,0,1
105984,note_on,,,,,0,0,2,,,60,96,1
105984,note_off,,,,,512,0,6,,,53,0,5
105984,note_on,,,,,0,0,6,,,53,96,5
105984,note_on,,,,,0,0,3,,,57,96,2
105984,note_on,,,,,0,0,7,,,65,96,6
106240,note_on,,,,,0,0,8,,,58,96,7
106240,note_off,,,,,256,0,8,,,60,0,7
106240,note_off,,,,,0,0,8,,,57,0,7
106240,note_off,,,,,256,0,7,,,65,0,6
106240,note_on,,,,,0,0,7,,,64,96,6
106240,note_on,,,,,0,0,8,,,55,96,7
106496,note_on,,,,,0,0,3,,,57,96,2
106496,note_on,,,,,0,0,8,,,60,96,7
106496,note_on,,,,,0,0,8,,,57,96,7
106496,note_on,,,,,1024,0,5,,,41,96,4
106496,note_off,,,,,512,0,3,,,57,0,2
106496,note_off,,,,,0,0,8,,,55,0,7
106496,note_off,,,,,256,0,7,,,64,0,6
106496,note_on,,,,,0,0,7,,,65,96,6
106496,note_off,,,,,256,0,8,,,58,0,7
106496,note_off,,,,,512,0,2,,,60,0,1
106496,note_on,,,,,0,0,2,,,60,96,1
106496,note_on,,,,,0,0,6,,,53,96,5
106496,note_off,,,,,512,0,6,,,53,0,5
107008,note_on,,,,,0,0,5,,,46,96,4
107008,note_off,,,,,512,0,5,,,41,0,4
107008,note_on,,,,,0,0,8,,,58,96,7
107008,note_on,,,,,0,0,7,,,74,96,6
107008,note_off,,,,,512,0,7,,,65,0,6
107008,note_on,,,,,0,0,6,,,57,96,5
107008,note_off,,,,,512,0,6,,,53,0,5
107008,note_off,,,,,0,0,8,,,57,0,7
107008,note_on,,,,,0,0,8,,,62,96,7
107008,note_off,,,,,512,0,8,,,60,0,7
107264,note_off,,,,,256,0,6,,,57,0,5
107264,note_off,,,,,256,0,7,,,74,0,6
107264,note_on,,,,,0,0,7,,,72,96,6
107264,note_on,,,,,0,0,6,,,53,96,5
107520,note_on,,,,,0,0,6,,,60,96,5
107520,note_on,,,,,0,0,5,,,48,96,4
107520,note_off,,,,,512,0,8,,,62,0,7
107520,note_off,,,,,256,0,6,,,53,0,5
107520,note_on,,,,,0,0,8,,,55,96,7
107520,note_on,,,,,0,0,8,,,64,96,7
107520,note_off,,,,,0,0,8,,,58,0,7
107520,note_off,,,,,256,0,7,,,72,0,6
107520,note_on,,,,,0,0,7,,,70,96,6
107520,note_off,,,,,512,0,5,,,46,0,4
107776,note_on,,,,,0,0,7,,,69,96,6
107776,note_off,,,,,256,0,7,,,70,0,6
108032,note_off,,,,,512,0,6,,,60,0,5
108032,note_off,,,,,0,0,8,,,55,0,7
108032,note_on,,,,,0,0,5,,,36,96,4
108032,note_off,,,,,512,0,5,,,48,0,4
108032,note_on,,,,,0,0,8,,,55,96,7
108032,note_off,,,,,256,0,7,,,69,0,6
108032,note_on,,,,,0,0,7,,,67,96,6
108032,note_off,,,,,512,0,8,,,64,0,7
108032,note_on,,,,,0,0,8,,,64,96,7
108032,note_on,,,,,0,0,6,,,60,96,5
108288,note_off,,,,,256,0,7,,,67,0,6
108288,note_on,,,,,0,0,7,,,65,96,6
108544,note_on,,,,,0,0,8,,,60,96,7
108544,note_off,,,,,512,0,8,,,64,0,7
108544,note_off,,,,,0,0,8,,,55,0,7
108544,note_on,,,,,0,0,8,,,57,96,7
108544,note_off,,,,,8192,0,1,,,65,0,0
108544,note_off,,,,,512,0,5,,,36,0,4
108544,note_on,,,,,0,0,6,,,57,96,5
108544,note_off,,,,,2048,0,2,,,60,0,1
108544,note_off,,,,,2048,0,3,,,57,0,2
108544,note_on,,,,,0,0,7,,,65,96,6
108544,note_off,,,,,512,0,6,,,60,0,5
108544,note_off,,,,,8192,0,4,,,53,0,3
108544,note_off,,,,,256,0,7,,,65,0,6
108544,note_on,,,,,0,0,5,,,41,96,4
110592,end_of_track,,,,,2048,1,4,,,,,
110592,note_off,,,,,0,0,8,,,57,0,7
110592,note_off,,,,,2048,0,5,,,41,0,4
110592,end_of_track,,,,,0,1,5,,,,,
110592,note_off,,,,,2048,0,7,,,65,0,6
110592,end_of_track,,,,,0,1,7,,,,,
110592,end_of_track,,,,,2048,1,3,,,,,
110592,end_of_track,,,,,0,1,6,,,,,
110592,end_of_track,,,,,2048,1,2,,,,,
110592,note_off,,,,,2048,0,6,,,57,0,5
110592,end_of_track,,,,,2048,1,1,,,,,
110592,note_off,,,,,2048,0,8,,,60,0,7
110592,end_of_track,,,,,110592,1,0,,,,,
110592,end_of_track,,,,,0,1,8,,,,,
