tick,type,tempo,time,meta,track,numerator,denominator,clocks_per_click,notated_32nd_notes_per_beat,program,channel,note,velocity
0,set_tempo,857140,0,1,0,,,,,,,,
0,note_on,,0,0,1,,,,,,0,62,92
0,program_change,,0,0,1,,,,,19,0,,
0,track_name,,0,1,1,,,,,,,,
0,track_name,,0,1,2,,,,,,,,
0,track_name,,0,1,3,,,,,,,,
0,time_signature,,0,1,0,4,4,24,8,,,,
96,note_off,,96,0,1,,,,,,0,62,64
96,note_on,,0,0,1,,,,,,0,61,92
192,note_on,,0,0,1,,,,,,0,62,92
192,note_off,,96,0,1,,,,,,0,61,64
288,note_on,,0,0,1,,,,,,0,57,92
288,note_off,,96,0,1,,,,,,0,62,64
384,note_on,,0,0,1,,,,,,0,62,92
384,note_off,,96,0,1,,,,,,0,57,64
480,note_off,,96,0,1,,,,,,0,62,64
480,note_on,,0,0,1,,,,,,0,57,92
576,note_off,,96,0,1,,,,,,0,57,64
576,note_on,,0,0,1,,,,,,0,64,92
672,note_off,,96,0,1,,,,,,0,64,64
672,note_on,,0,0,1,,,,,,0,57,92
768,note_on,,0,0,1,,,,,,0,74,92
768,note_on,,0,0,1,,,,,,0,65,92
768,note_off,,96,0,1,,,,,,0,57,64
864,note_off,,96,0,1,,,,,,0,65,64
864,note_off,,0,0,1,,,,,,0,74,64
864,note_on,,0,0,1,,,,,,0,73,92
864,note_on,,0,0,1,,,,,,0,64,92
960,note_on,,0,0,1,,,,,,0,65,92
960,note_on,,0,0,1,,,,,,0,74,92
960,note_off,,0,0,1,,,,,,0,73,64
960,note_off,,96,0,1,,,,,,0,64,64
1056,note_off,,96,0,1,,,,,,0,65,64
1056,note_off,,0,0,1,,,,,,0,74,64
1056,note_on,,0,0,1,,,,,,0,69,92
1056,note_on,,0,0,1,,,,,,0,62,92
1152,note_on,,0,0,1,,,,,,0,65,92
1152,note_off,,96,0,1,,,,,,0,62,64
1152,note_on,,0,0,1,,,,,,0,74,92
1152,note_off,,0,0,1,,,,,,0,69,64
1248,note_off,,96,0,1,,,,,,0,65,64
1248,note_off,,0,0,1,,,,,,0,74,64
1248,note_on,,0,0,1,,,,,,0,69,92
1248,note_on,,0,0,1,,,,,,0,62,92
1344,note_off,,96,0,1,,,,,,0,62,64
1344,note_on,,0,0,1,,,,,,0,76,92
1344,note_on,,0,0,1,,,,,,0,67,92
1344,note_off,,0,0,1,,,,,,0,69,64
1440,note_on,,0,0,1,,,,,,0,62,92
1440,note_on,,0,0,1,,,,,,0,69,92
1440,note_off,,96,0,1,,,,,,0,67,64
1440,note_off,,0,0,1,,,,,,0,76,64
1536,note_on,,0,0,1,,,,,,0,77,92
1536,note_on,,0,0,1,,,,,,0,69,92
1536,note_off,,0,0,1,,,,,,0,69,64
1536,note_off,,96,0,1,,,,,,0,62,64
1632,note_on,,0,0,1,,,,,,0,76,92
1632,note_on,,0,0,1,,,,,,0,67,92
1632,note_off,,96,0,1,,,,,,0,77,64
1632,note_off,,0,0,1,,,,,,0,69,64
1728,note_off,,96,0,1,,,,,,0,76,64
1728,note_off,,0,0,1,,,,,,0,67,64
1728,note_on,,0,0,1,,,,,,0,69,92
1728,note_on,,0,0,1,,,,,,0,77,92
1824,note_off,,96,0,1,,,,,,0,77,64
1824,note_on,,0,0,1,,,,,,0,65,92
1824,note_on,,0,0,1,,,,,,0,74,92
1824,note_off,,0,0,1,,,,,,0,69,64
1920,note_on,,0,0,1,,,,,,0,69,92
1920,note_off,,96,0,1,,,,,,0,74,64
1920,note_off,,0,0,1,,,,,,0,65,64
1920,note_on,,0,0,1,,,,,,0,77,92
2016,note_on,,0,0,1,,,,,,0,74,92
2016,note_on,,0,0,1,,,,,,0,65,92
2016,note_off,,0,0,1,,,,,,0,69,64
2016,note_off,,96,0,1,,,,,,0,77,64
2112,note_on,,0,0,1,,,,,,0,79,92
2112,note_on,,0,0,1,,,,,,0,70,92
2112,note_off,,0,0,1,,,,,,0,65,64
2112,note_off,,96,0,1,,,,,,0,74,64
2208,note_off,,0,0,1,,,,,,0,70,64
2208,note_on,,0,0,1,,,,,,0,65,92
2208,note_on,,0,0,1,,,,,,0,74,92
2208,note_off,,96,0,1,,,,,,0,79,64
2304,note_off,,96,0,1,,,,,,0,74,64
2304,note_on,,0,0,1,,,,,,0,67,92
2304,note_on,,0,0,1,,,,,,0,76,92
2304,note_off,,0,0,1,,,,,,0,65,64
2400,note_off,,96,0,1,,,,,,0,76,64
2400,note_off,,0,0,1,,,,,,0,67,64
2400,note_on,,0,0,1,,,,,,0,74,92
2400,note_on,,0,0,1,,,,,,0,65,92
2496,note_on,,0,0,1,,,,,,0,76,92
2496,note_on,,0,0,1,,,,,,0,67,92
2496,note_off,,0,0,1,,,,,,0,65,64
2496,note_off,,96,0,1,,,,,,0,74,64
2592,note_off,,0,0,1,,,,,,0,67,64
2592,note_on,,0,0,1,,,,,,0,64,92
2592,note_off,,96,0,1,,,,,,0,76,64
2592,note_on,,0,0,1,,,,,,0,72,92
2688,note_off,,0,0,1,,,,,,0,64,64
2688,note_on,,0,0,1,,,,,,0,67,92
2688,note_on,,0,0,1,,,,,,0,76,92
2688,note_off,,96,0,1,,,,,,0,72,64
2784,note_off,,96,0,1,,,,,,0,76,64
2784,note_off,,0,0,1,,,,,,0,67,64
2784,note_on,,0,0,1,,,,,,0,64,92
2784,note_on,,0,0,1,,,,,,0,72,92
2880,note_off,,96,0,1,,,,,,0,72,64
2880,note_off,,0,0,1,,,,,,0,64,64
2880,note_on,,0,0,1,,,,,,0,77,92
2880,note_on,,0,0,1,,,,,,0,69,92
2976,note_off,,96,0,1,,,,,,0,77,64
2976,note_on,,0,0,1,,,,,,0,72,92
2976,note_off,,0,0,1,,,,,,0,69,64
2976,note_on,,0,0,1,,,,,,0,64,92
3072,note_on,,0,0,1,,,,,,0,74,92
3072,note_on,,0,0,1,,,,,,0,65,92
3072,note_off,,0,0,1,,,,,,0,64,64
3072,note_off,,96,0,1,,,,,,0,72,64
3168,note_off,,96,0,1,,,,,,0,74,64
3168,note_off,,0,0,1,,,,,,0,65,64
3168,note_on,,0,0,1,,,,,,0,73,92
3168,note_on,,0,0,1,,,,,,0,64,92
3264,note_on,,0,0,1,,,,,,0,74,92
3264,note_on,,0,0,1,,,,,,0,65,92
3264,note_off,,0,0,1,,,,,,0,64,64
3264,note_off,,96,0,1,,,,,,0,73,64
3360,note_on,,0,0,1,,,,,,0,71,92
3360,note_on,,0,0,1,,,,,,0,62,92
3360,note_off,,0,0,1,,,,,,0,65,64
3360,note_off,,96,0,1,,,,,,0,74,64
3456,note_off,,0,0,1,,,,,,0,62,64
3456,note_on,,0,0,1,,,,,,0,65,92
3456,note_on,,0,0,1,,,,,,0,74,92
3456,note_off,,96,0,1,,,,,,0,71,64
3552,note_off,,96,0,1,,,,,,0,74,64
3552,note_off,,0,0,1,,,,,,0,65,64
3552,note_on,,0,0,1,,,,,,0,71,92
3552,note_on,,0,0,1,,,,,,0,62,92
3648,note_off,,96,0,1,,,,,,0,71,64
3648,note_on,,0,0,1,,,,,,0,67,92
3648,note_on,,0,0,1,,,,,,0,76,92
3648,note_off,,0,0,1,,,,,,0,62,64
3744,note_off,,96,0,1,,,,,,0,76,64
3744,note_off,,0,0,1,,,,,,0,67,64
3744,note_on,,0,0,1,,,,,,0,62,92
3744,note_on,,0,0,1,,,,,,0,71,92
3840,note_off,,96,0,1,,,,,,0,71,64
3840,note_on,,0,0,1,,,,,,0,73,92
3840,note_on,,0,0,1,,,,,,0,64,92
3840,note_off,,0,0,1,,,,,,0,62,64
3936,note_on,,0,0,1,,,,,,0,71,92
3936,note_on,,0,0,1,,,,,,0,62,92
3936,note_off,,0,0,1,,,,,,0,64,64
3936,note_off,,96,0,1,,,,,,0,73,64
4032,note_on,,0,0,1,,,,,,0,73,92
4032,note_on,,0,0,1,,,,,,0,64,92
4032,note_off,,0,0,1,,,,,,0,62,64
4032,note_off,,96,0,1,,,,,,0,71,64
4128,note_on,,0,0,1,,,,,,0,69,92
4128,note_on,,0,0,1,,,,,,0,61,92
4128,note_off,,96,0,1,,,,,,0,73,64
4128,note_off,,0,0,1,,,,,,0,64,64
4224,note_off,,96,0,1,,,,,,0,69,64
4224,note_off,,0,0,1,,,,,,0,61,64
4224,note_on,,0,0,1,,,,,,0,57,92
4224,note_on,,0,0,1,,,,,,0,74,92
4320,note_off,,0,0,1,,,,,,0,57,64
4320,note_on,,0,0,1,,,,,,0,65,92
4320,note_on,,0,0,1,,,,,,0,69,92
4320,note_off,,96,0,1,,,,,,0,74,64
4416,note_off,,96,0,1,,,,,,0,69,64
4416,note_off,,0,0,1,,,,,,0,65,64
4416,note_on,,0,0,1,,,,,,0,57,92
4416,note_on,,0,0,1,,,,,,0,76,92
4512,note_on,,0,0,1,,,,,,0,69,92
4512,note_on,,0,0,1,,,,,,0,61,92
4512,note_off,,96,0,1,,,,,,0,76,64
4512,note_off,,0,0,1,,,,,,0,57,64
4608,note_off,,96,0,1,,,,,,0,69,64
4608,note_off,,0,0,1,,,,,,0,61,64
4608,note_on,,0,0,1,,,,,,0,57,92
4608,note_on,,0,0,1,,,,,,0,77,92
4704,note_off,,96,0,1,,,,,,0,77,64
4704,note_off,,0,0,1,,,,,,0,57,64
4704,note_on,,0,0,1,,,,,,0,69,92
4704,note_on,,0,0,1,,,,,,0,62,92
4800,note_on,,0,0,1,,,,,,0,57,92
4800,note_off,,96,0,1,,,,,,0,69,64
4800,note_off,,0,0,1,,,,,,0,62,64
4800,note_on,,0,0,1,,,,,,0,76,92
4896,note_on,,0,0,1,,,,,,0,69,92
4896,note_on,,0,0,1,,,,,,0,61,92
4896,note_off,,0,0,1,,,,,,0,57,64
4896,note_off,,96,0,1,,,,,,0,76,64
4992,note_on,,0,0,1,,,,,,0,77,92
4992,note_on,,0,0,1,,,,,,0,57,92
4992,note_off,,0,0,1,,,,,,0,61,64
4992,note_off,,96,0,1,,,,,,0,69,64
5088,note_on,,0,0,1,,,,,,0,69,92
5088,note_on,,0,0,1,,,,,,0,62,92
5088,note_off,,96,0,1,,,,,,0,77,64
5088,note_off,,0,0,1,,,,,,0,57,64
5184,note_on,,0,0,1,,,,,,0,79,92
5184,note_on,,0,0,1,,,,,,0,57,92
5184,note_off,,0,0,1,,,,,,0,62,64
5184,note_off,,96,0,1,,,,,,0,69,64
5280,note_on,,0,0,1,,,,,,0,69,92
5280,note_off,,0,0,1,,,,,,0,57,64
5280,note_off,,96,0,1,,,,,,0,79,64
5280,note_on,,0,0,1,,,,,,0,64,92
5376,note_on,,0,0,1,,,,,,0,65,92
5376,note_on,,0,0,1,,,,,,0,81,92
5376,note_off,,96,0,1,,,,,,0,69,64
5376,note_off,,0,0,1,,,,,,0,64,64
5472,note_on,,0,0,1,,,,,,0,73,92
5472,note_on,,0,0,1,,,,,,0,64,92
5472,note_off,,0,0,1,,,,,,0,65,64
5472,note_off,,96,0,1,,,,,,0,81,64
5568,note_on,,0,0,1,,,,,,0,74,92
5568,note_on,,0,0,1,,,,,,0,65,92
5568,note_off,,0,0,1,,,,,,0,64,64
5568,note_off,,96,0,1,,,,,,0,73,64
5664,note_on,,0,0,1,,,,,,0,70,92
5664,note_off,,96,0,1,,,,,,0,74,64
5664,note_off,,0,0,1,,,,,,0,65,64
5664,note_on,,0,0,1,,,,,,0,67,92
5760,note_off,,96,0,1,,,,,,0,70,64
5760,note_off,,0,0,1,,,,,,0,67,64
5760,note_on,,0,0,1,,,,,,0,65,92
5760,note_on,,0,0,1,,,,,,0,69,92
5856,note_off,,96,0,1,,,,,,0,69,64
5856,note_off,,0,0,1,,,,,,0,65,64
5856,note_on,,0,0,1,,,,,,0,62,92
5856,note_on,,0,0,1,,,,,,0,74,92
5952,note_on,,0,0,1,,,,,,0,64,92
5952,note_on,,0,0,1,,,,,,0,67,92
5952,note_off,,96,0,1,,,,,,0,74,64
5952,note_off,,0,0,1,,,,,,0,62,64
6048,note_on,,6048,0,2,,,,,,0,57,92
6048,note_on,,0,0,1,,,,,,0,73,92
6048,note_off,,0,0,1,,,,,,0,64,64
6048,note_off,,96,0,1,,,,,,0,67,64
6144,note_on,,0,0,1,,,,,,0,74,92
6144,note_on,,0,0,1,,,,,,0,65,92
6144,note_off,,96,0,1,,,,,,0,73,64
6144,note_off,,96,0,2,,,,,,0,57,64
6144,note_on,,0,0,2,,,,,,0,62,92
6144,note_on,,6144,0,3,,,,,,0,50,102
6144,note_on,,0,0,2,,,,,,0,57,92
6240,note_off,,96,0,3,,,,,,0,50,64
6240,note_on,,0,0,3,,,,,,0,49,102
6336,note_off,,96,0,3,,,,,,0,49,64
6336,note_on,,0,0,3,,,,,,0,50,102
6432,note_on,,0,0,3,,,,,,0,45,102
6432,note_off,,96,0,3,,,,,,0,50,64
6528,note_on,,0,0,3,,,,,,0,50,102
6528,note_off,,96,0,3,,,,,,0,45,64
6528,note_off,,384,0,2,,,,,,0,62,64
6528,note_off,,0,0,1,,,,,,0,65,64
6528,note_off,,384,0,1,,,,,,0,74,64
6528,note_off,,0,0,2,,,,,,0,57,64
6624,note_off,,96,0,3,,,,,,0,50,64
6624,note_on,,0,0,3,,,,,,0,45,102
6720,note_off,,96,0,3,,,,,,0,45,64
6720,note_on,,0,0,3,,,,,,0,52,102
6816,note_off,,96,0,3,,,,,,0,52,64
6816,note_on,,0,0,3,,,,,,0,45,102
6912,note_off,,96,0,3,,,,,,0,45,64
6912,note_on,,0,0,3,,,,,,0,53,102
6912,note_on,,384,0,2,,,,,,0,57,92
6912,note_on,,0,0,2,,,,,,0,62,92
6912,note_on,,384,0,1,,,,,,0,69,92
6912,note_on,,0,0,1,,,,,,0,74,92
7008,note_on,,0,0,3,,,,,,0,52,102
7008,note_off,,96,0,3,,,,,,0,53,64
7104,note_on,,0,0,3,,,,,,0,53,102
7104,note_off,,96,0,3,,,,,,0,52,64
7200,note_off,,96,0,3,,,,,,0,53,64
7200,note_on,,0,0,3,,,,,,0,50,102
7296,note_off,,96,0,3,,,,,,0,50,64
7296,note_off,,0,0,1,,,,,,0,69,64
7296,note_off,,384,0,1,,,,,,0,74,64
7296,note_off,,0,0,2,,,,,,0,57,64
7296,note_off,,384,0,2,,,,,,0,62,64
7296,note_on,,0,0,3,,,,,,0,53,102
7392,note_on,,0,0,3,,,,,,0,50,102
7392,note_off,,96,0,3,,,,,,0,53,64
7488,note_on,,0,0,3,,,,,,0,55,102
7488,note_off,,96,0,3,,,,,,0,50,64
7584,note_off,,96,0,3,,,,,,0,55,64
7584,note_on,,0,0,3,,,,,,0,50,102
7680,note_off,,96,0,3,,,,,,0,50,64
7680,note_on,,0,0,3,,,,,,0,57,102
7680,note_on,,0,0,2,,,,,,0,64,92
7680,note_on,,384,0,2,,,,,,0,57,92
7680,note_on,,384,0,1,,,,,,0,69,92
7680,note_on,,0,0,1,,,,,,0,73,92
7776,note_off,,96,0,1,,,,,,0,73,64
7776,note_on,,0,0,1,,,,,,0,71,92
7872,note_off,,96,0,1,,,,,,0,71,64
7872,note_on,,0,0,1,,,,,,0,73,92
7968,note_off,,96,0,1,,,,,,0,73,64
7968,note_off,,0,0,1,,,,,,0,69,64
7968,note_on,,0,0,1,,,,,,0,69,92
8064,note_off,,0,0,2,,,,,,0,57,64
8064,note_off,,96,0,1,,,,,,0,69,64
8064,note_on,,0,0,1,,,,,,0,73,92
8064,note_off,,384,0,3,,,,,,0,57,64
8064,note_off,,384,0,2,,,,,,0,64,64
8160,note_off,,96,0,1,,,,,,0,73,64
8160,note_on,,0,0,1,,,,,,0,69,92
8256,note_off,,96,0,1,,,,,,0,69,64
8256,note_on,,0,0,1,,,,,,0,74,92
8256,note_on,,192,0,2,,,,,,0,59,92
8352,note_off,,96,0,1,,,,,,0,74,64
8352,note_on,,0,0,1,,,,,,0,69,92
8448,note_off,,192,0,2,,,,,,0,59,64
8448,note_off,,96,0,1,,,,,,0,69,64
8448,note_on,,0,0,1,,,,,,0,69,92
8448,note_on,,0,0,1,,,,,,0,76,92
8448,note_on,,0,0,2,,,,,,0,61,92
8448,note_on,,384,0,3,,,,,,0,45,102
8448,note_on,,0,0,2,,,,,,0,64,92
8544,note_off,,96,0,2,,,,,,0,61,64
8544,note_on,,0,0,1,,,,,,0,74,92
8544,note_off,,96,0,1,,,,,,0,76,64
8544,note_on,,0,0,2,,,,,,0,59,92
8640,note_on,,0,0,2,,,,,,0,61,92
8640,note_on,,0,0,1,,,,,,0,76,92
8640,note_off,,96,0,1,,,,,,0,74,64
8640,note_off,,96,0,2,,,,,,0,59,64
8736,note_off,,96,0,2,,,,,,0,61,64
8736,note_on,,0,0,2,,,,,,0,57,92
8736,note_off,,96,0,1,,,,,,0,76,64
8736,note_on,,0,0,1,,,,,,0,73,92
8832,note_off,,384,0,3,,,,,,0,45,64
8832,note_off,,96,0,2,,,,,,0,57,64
8832,note_off,,0,0,2,,,,,,0,64,64
8832,note_on,,0,0,2,,,,,,0,61,92
8832,note_on,,0,0,1,,,,,,0,76,92
8832,note_off,,0,0,1,,,,,,0,69,64
8832,note_off,,96,0,1,,,,,,0,73,64
8928,note_on,,0,0,1,,,,,,0,73,92
8928,note_off,,96,0,1,,,,,,0,76,64
8928,note_on,,0,0,2,,,,,,0,57,92
8928,note_off,,96,0,2,,,,,,0,61,64
9024,note_on,,0,0,2,,,,,,0,62,92
9024,note_off,,96,0,2,,,,,,0,57,64
9024,note_off,,96,0,1,,,,,,0,73,64
9024,note_on,,0,0,1,,,,,,0,77,92
9120,note_on,,0,0,2,,,,,,0,57,92
9120,note_off,,96,0,2,,,,,,0,62,64
9120,note_off,,96,0,1,,,,,,0,77,64
9120,note_on,,0,0,1,,,,,,0,74,92
9216,note_on,,0,0,2,,,,,,0,64,92
9216,note_off,,96,0,2,,,,,,0,57,64
9216,note_on,,384,0,3,,,,,,0,45,102
9216,note_off,,96,0,1,,,,,,0,74,64
9216,note_on,,0,0,1,,,,,,0,73,92
9216,note_on,,0,0,1,,,,,,0,79,92
9216,note_on,,0,0,1,,,,,,0,69,92
9312,note_on,,0,0,2,,,,,,0,62,92
9312,note_off,,96,0,2,,,,,,0,64,64
9312,note_off,,96,0,1,,,,,,0,79,64
9312,note_on,,0,0,1,,,,,,0,77,92
9408,note_on,,0,0,2,,,,,,0,64,92
9408,note_off,,96,0,2,,,,,,0,62,64
9408,note_off,,96,0,1,,,,,,0,77,64
9408,note_on,,0,0,1,,,,,,0,79,92
9504,note_off,,96,0,2,,,,,,0,64,64
9504,note_on,,0,0,2,,,,,,0,57,92
9504,note_on,,0,0,1,,,,,,0,76,92
9504,note_off,,96,0,1,,,,,,0,79,64
9600,note_off,,96,0,2,,,,,,0,57,64
9600,note_on,,0,0,2,,,,,,0,62,92
9600,note_on,,0,0,1,,,,,,0,79,92
9600,note_off,,0,0,1,,,,,,0,69,64
9600,note_off,,0,0,1,,,,,,0,73,64
9600,note_off,,96,0,1,,,,,,0,76,64
9600,note_off,,384,0,3,,,,,,0,45,64
9696,note_off,,96,0,2,,,,,,0,62,64
9696,note_on,,0,0,2,,,,,,0,57,92
9696,note_off,,96,0,1,,,,,,0,79,64
9696,note_on,,0,0,1,,,,,,0,76,92
9792,note_on,,0,0,2,,,,,,0,61,92
9792,note_off,,96,0,2,,,,,,0,57,64
9792,note_off,,96,0,1,,,,,,0,76,64
9792,note_on,,0,0,1,,,,,,0,81,92
9888,note_off,,96,0,2,,,,,,0,61,64
9888,note_on,,0,0,2,,,,,,0,57,92
9888,note_on,,0,0,1,,,,,,0,76,92
9888,note_off,,96,0,1,,,,,,0,81,64
9984,note_on,,0,0,1,,,,,,0,74,92
9984,note_on,,96,0,2,,,,,,0,62,92
9984,note_on,,0,0,1,,,,,,0,77,92
9984,note_on,,0,0,1,,,,,,0,69,92
9984,note_on,,384,0,3,,,,,,0,50,102
9984,note_off,,96,0,1,,,,,,0,76,64
10080,note_on,,0,0,3,,,,,,0,49,102
10080,note_off,,96,0,3,,,,,,0,50,64
10176,note_on,,0,0,3,,,,,,0,50,102
10176,note_off,,96,0,3,,,,,,0,49,64
10272,note_on,,0,0,3,,,,,,0,45,102
10272,note_off,,96,0,3,,,,,,0,50,64
10368,note_on,,0,0,3,,,,,,0,53,102
10368,note_off,,0,0,1,,,,,,0,74,64
10368,note_off,,0,0,2,,,,,,0,57,64
10368,note_off,,384,0,2,,,,,,0,62,64
10368,note_off,,384,0,1,,,,,,0,77,64
10368,note_off,,0,0,1,,,,,,0,69,64
10368,note_off,,96,0,3,,,,,,0,45,64
10464,note_off,,96,0,3,,,,,,0,53,64
10464,note_on,,0,0,3,,,,,,0,50,102
10560,note_on,,192,0,1,,,,,,0,67,92
10560,note_on,,0,0,1,,,,,,0,70,92
10560,note_on,,0,0,3,,,,,,0,55,102
10560,note_on,,192,0,2,,,,,,0,55,92
10560,note_on,,0,0,2,,,,,,0,62,92
10560,note_off,,96,0,3,,,,,,0,50,64
10656,note_on,,0,0,3,,,,,,0,50,102
10656,note_off,,96,0,3,,,,,,0,55,64
10752,note_on,,0,0,3,,,,,,0,52,102
10752,note_off,,96,0,3,,,,,,0,50,64
10752,note_on,,0,0,2,,,,,,0,60,92
10752,note_off,,0,0,2,,,,,,0,55,64
10752,note_off,,192,0,2,,,,,,0,62,64
10752,note_off,,192,0,1,,,,,,0,70,64
10752,note_off,,0,0,1,,,,,,0,67,64
10752,note_on,,0,0,1,,,,,,0,67,92
10752,note_on,,0,0,1,,,,,,0,70,92
10752,note_on,,0,0,2,,,,,,0,55,92
10848,note_off,,96,0,3,,,,,,0,52,64
10848,note_on,,0,0,3,,,,,,0,50,102
10944,note_off,,96,0,3,,,,,,0,50,64
10944,note_on,,0,0,3,,,,,,0,52,102
11040,note_on,,0,0,3,,,,,,0,48,102
11040,note_off,,96,0,3,,,,,,0,52,64
11136,note_on,,0,0,3,,,,,,0,52,102
11136,note_off,,96,0,3,,,,,,0,48,64
11136,note_off,,384,0,2,,,,,,0,60,64
11136,note_off,,0,0,2,,,,,,0,55,64
11136,note_off,,384,0,1,,,,,,0,70,64
11136,note_off,,0,0,1,,,,,,0,67,64
11232,note_off,,96,0,3,,,,,,0,52,64
11232,note_on,,0,0,3,,,,,,0,48,102
11328,note_on,,0,0,2,,,,,,0,60,92
11328,note_on,,192,0,2,,,,,,0,57,92
11328,note_off,,96,0,3,,,,,,0,48,64
11328,note_on,,192,0,1,,,,,,0,65,92
11328,note_on,,0,0,1,,,,,,0,69,92
11328,note_on,,0,0,3,,,,,,0,53,102
11424,note_off,,96,0,3,,,,,,0,53,64
11424,note_on,,0,0,3,,,,,,0,48,102
11520,note_off,,0,0,2,,,,,,0,57,64
11520,note_on,,0,0,2,,,,,,0,53,92
11520,note_on,,0,0,2,,,,,,0,59,92
11520,note_on,,0,0,3,,,,,,0,50,102
11520,note_on,,0,0,1,,,,,,0,69,92
11520,note_on,,0,0,1,,,,,,0,65,92
11520,note_off,,0,0,1,,,,,,0,65,64
11520,note_off,,192,0,1,,,,,,0,69,64
11520,note_off,,96,0,3,,,,,,0,48,64
11520,note_off,,192,0,2,,,,,,0,60,64
11616,note_off,,96,0,3,,,,,,0,50,64
11616,note_on,,0,0,3,,,,,,0,48,102
11712,note_off,,96,0,3,,,,,,0,48,64
11712,note_on,,0,0,3,,,,,,0,50,102
11808,note_off,,96,0,3,,,,,,0,50,64
11808,note_on,,0,0,3,,,,,,0,47,102
11904,note_on,,0,0,3,,,,,,0,50,102
11904,note_off,,384,0,2,,,,,,0,59,64
11904,note_off,,0,0,2,,,,,,0,53,64
11904,note_off,,384,0,1,,,,,,0,69,64
11904,note_off,,0,0,1,,,,,,0,65,64
11904,note_off,,96,0,3,,,,,,0,47,64
12000,note_off,,96,0,3,,,,,,0,50,64
12000,note_on,,0,0,3,,,,,,0,47,102
12096,note_on,,192,0,1,,,,,,0,64,92
12096,note_on,,0,0,1,,,,,,0,67,92
12096,note_on,,0,0,3,,,,,,0,52,102
12096,note_off,,96,0,3,,,,,,0,47,64
12096,note_on,,0,0,2,,,,,,0,59,92
12096,note_on,,192,0,2,,,,,,0,55,92
12192,note_off,,96,0,3,,,,,,0,52,64
12192,note_on,,0,0,3,,,,,,0,47,102
12288,note_off,,96,0,3,,,,,,0,47,64
12288,note_on,,0,0,3,,,,,,0,49,102
12288,note_off,,192,0,1,,,,,,0,67,64
12288,note_off,,0,0,1,,,,,,0,64,64
12288,note_on,,0,0,1,,,,,,0,64,92
12288,note_on,,0,0,1,,,,,,0,67,92
12288,note_on,,0,0,2,,,,,,0,57,92
12288,note_on,,0,0,2,,,,,,0,52,92
12288,note_off,,0,0,2,,,,,,0,55,64
12288,note_off,,192,0,2,,,,,,0,59,64
12384,note_off,,96,0,3,,,,,,0,49,64
12384,note_on,,0,0,3,,,,,,0,47,102
12480,note_off,,96,0,3,,,,,,0,47,64
12480,note_on,,0,0,3,,,,,,0,49,102
12576,note_on,,0,0,3,,,,,,0,45,102
12576,note_off,,96,0,3,,,,,,0,49,64
12672,note_off,,96,0,3,,,,,,0,45,64
12672,note_on,,0,0,3,,,,,,0,49,102
12672,note_off,,0,0,1,,,,,,0,64,64
12672,note_off,,384,0,2,,,,,,0,57,64
12672,note_off,,384,0,1,,,,,,0,67,64
12672,note_off,,0,0,2,,,,,,0,52,64
12768,note_on,,0,0,3,,,,,,0,45,102
12768,note_off,,96,0,3,,,,,,0,49,64
12864,note_on,,192,0,2,,,,,,0,53,92
12864,note_on,,0,0,1,,,,,,0,65,92
12864,note_on,,192,0,1,,,,,,0,62,92
12864,note_off,,96,0,3,,,,,,0,45,64
12864,note_on,,0,0,3,,,,,,0,50,102
12864,note_on,,0,0,2,,,,,,0,57,92
12960,note_off,,96,0,3,,,,,,0,50,64
12960,note_on,,0,0,3,,,,,,0,45,102
13056,note_off,,192,0,2,,,,,,0,57,64
13056,note_off,,96,0,3,,,,,,0,45,64
13056,note_on,,0,0,1,,,,,,0,67,92
13056,note_on,,0,0,1,,,,,,0,61,92
13056,note_off,,0,0,1,,,,,,0,62,64
13056,note_off,,192,0,1,,,,,,0,65,64
13056,note_on,,0,0,2,,,,,,0,52,92
13056,note_on,,0,0,3,,,,,,0,52,102
13056,note_on,,0,0,2,,,,,,0,57,92
13056,note_off,,0,0,2,,,,,,0,53,64
13152,note_on,,0,0,3,,,,,,0,50,102
13152,note_off,,96,0,3,,,,,,0,52,64
13248,note_off,,96,0,3,,,,,,0,50,64
13248,note_on,,0,0,3,,,,,,0,52,102
13344,note_on,,0,0,3,,,,,,0,45,102
13344,note_off,,96,0,3,,,,,,0,52,64
13440,note_off,,384,0,2,,,,,,0,57,64
13440,note_off,,0,0,2,,,,,,0,52,64
13440,note_on,,0,0,3,,,,,,0,52,102
13440,note_off,,96,0,3,,,,,,0,45,64
13440,note_off,,0,0,1,,,,,,0,61,64
13440,note_off,,384,0,1,,,,,,0,67,64
13536,note_off,,96,0,3,,,,,,0,52,64
13536,note_on,,0,0,3,,,,,,0,45,102
13632,note_on,,192,0,1,,,,,,0,65,92
13632,note_on,,192,0,2,,,,,,0,57,92
13632,note_on,,0,0,2,,,,,,0,62,92
13632,note_off,,96,0,3,,,,,,0,45,64
13632,note_on,,0,0,3,,,,,,0,53,102
13632,note_on,,0,0,1,,,,,,0,69,92
13728,note_on,,0,0,3,,,,,,0,45,102
13728,note_off,,96,0,3,,,,,,0,53,64
13824,note_on,,0,0,1,,,,,,0,70,92
13824,note_off,,96,0,3,,,,,,0,45,64
13824,note_on,,0,0,2,,,,,,0,61,92
13824,note_off,,0,0,1,,,,,,0,65,64
13824,note_on,,0,0,2,,,,,,0,55,92
13824,note_off,,0,0,2,,,,,,0,57,64
13824,note_off,,192,0,2,,,,,,0,62,64
13824,note_on,,0,0,3,,,,,,0,55,102
13824,note_on,,0,0,1,,,,,,0,64,92
13824,note_off,,192,0,1,,,,,,0,69,64
13920,note_on,,0,0,3,,,,,,0,53,102
13920,note_off,,96,0,3,,,,,,0,55,64
14016,note_off,,96,0,3,,,,,,0,53,64
14016,note_on,,0,0,3,,,,,,0,55,102
14112,note_off,,96,0,3,,,,,,0,55,64
14112,note_on,,0,0,3,,,,,,0,45,102
14208,note_off,,384,0,1,,,,,,0,70,64
14208,note_off,,96,0,3,,,,,,0,45,64
14208,note_on,,0,0,3,,,,,,0,55,102
14208,note_off,,0,0,2,,,,,,0,55,64
14208,note_off,,384,0,2,,,,,,0,61,64
14208,note_off,,0,0,1,,,,,,0,64,64
14304,note_off,,96,0,3,,,,,,0,55,64
14304,note_on,,0,0,3,,,,,,0,45,102
14400,note_on,,0,0,1,,,,,,0,69,92
14400,note_on,,192,0,1,,,,,,0,65,92
14400,note_on,,0,0,2,,,,,,0,62,92
14400,note_on,,192,0,2,,,,,,0,57,92
14400,note_on,,0,0,3,,,,,,0,57,102
14400,note_off,,96,0,3,,,,,,0,45,64
14496,note_off,,96,0,3,,,,,,0,57,64
14496,note_on,,0,0,3,,,,,,0,45,102
14592,note_on,,0,0,2,,,,,,0,58,92
14592,note_off,,96,0,3,,,,,,0,45,64
14592,note_off,,192,0,2,,,,,,0,62,64
14592,note_off,,0,0,2,,,,,,0,57,64
14592,note_on,,0,0,1,,,,,,0,67,92
14592,note_on,,0,0,2,,,,,,0,64,92
14592,note_off,,0,0,1,,,,,,0,65,64
14592,note_off,,192,0,1,,,,,,0,69,64
14592,note_on,,0,0,3,,,,,,0,49,102
14592,note_on,,0,0,1,,,,,,0,64,92
14688,note_on,,0,0,2,,,,,,0,57,92
14688,note_off,,96,0,2,,,,,,0,58,64
14784,note_on,,0,0,2,,,,,,0,58,92
14784,note_off,,96,0,2,,,,,,0,57,64
14880,note_off,,96,0,2,,,,,,0,58,64
14880,note_on,,0,0,2,,,,,,0,55,92
14976,note_off,,384,0,1,,,,,,0,67,64
14976,note_off,,0,0,1,,,,,,0,64,64
14976,note_off,,0,0,2,,,,,,0,64,64
14976,note_on,,0,0,2,,,,,,0,57,92
14976,note_off,,384,0,3,,,,,,0,49,64
14976,note_off,,96,0,2,,,,,,0,55,64
15072,note_off,,96,0,2,,,,,,0,57,64
15072,note_on,,0,0,2,,,,,,0,52,92
15168,note_off,,96,0,2,,,,,,0,52,64
15168,note_on,,0,0,2,,,,,,0,57,92
15168,note_on,,0,0,2,,,,,,0,61,92
15168,note_on,,192,0,1,,,,,,0,64,92
15168,note_on,,0,0,1,,,,,,0,67,92
15168,note_on,,192,0,3,,,,,,0,49,102
15264,note_on,,0,0,2,,,,,,0,52,92
15264,note_off,,96,0,2,,,,,,0,57,64
15360,note_off,,0,0,2,,,,,,0,61,64
15360,note_off,,192,0,1,,,,,,0,67,64
15360,note_off,,0,0,1,,,,,,0,64,64
15360,note_on,,0,0,1,,,,,,0,64,92
15360,note_on,,0,0,3,,,,,,0,50,102
15360,note_on,,0,0,2,,,,,,0,61,92
15360,note_off,,192,0,3,,,,,,0,49,64
15360,note_on,,0,0,2,,,,,,0,53,92
15360,note_off,,96,0,2,,,,,,0,52,64
15360,note_on,,0,0,1,,,,,,0,67,92
15456,note_off,,96,0,2,,,,,,0,61,64
15456,note_on,,0,0,2,,,,,,0,59,92
15552,note_off,,96,0,2,,,,,,0,59,64
15552,note_on,,0,0,2,,,,,,0,61,92
15648,note_off,,96,0,2,,,,,,0,61,64
15648,note_on,,0,0,2,,,,,,0,57,92
15744,note_off,,96,0,2,,,,,,0,57,64
15744,note_off,,0,0,2,,,,,,0,53,64
15744,note_on,,0,0,2,,,,,,0,62,92
15744,note_off,,384,0,3,,,,,,0,50,64
15744,note_off,,0,0,1,,,,,,0,64,64
15744,note_off,,384,0,1,,,,,,0,67,64
15840,note_off,,96,0,2,,,,,,0,62,64
15840,note_on,,0,0,2,,,,,,0,57,92
15936,note_on,,0,0,2,,,,,,0,53,92
15936,note_off,,96,0,2,,,,,,0,57,64
15936,note_on,,192,0,3,,,,,,0,50,102
15936,note_on,,192,0,1,,,,,,0,65,92
15936,note_on,,0,0,1,,,,,,0,62,92
16032,note_on,,96,0,2,,,,,,0,57,92
16128,note_on,,0,0,2,,,,,,0,55,92
16128,note_off,,96,0,2,,,,,,0,57,64
16128,note_off,,0,0,2,,,,,,0,53,64
16128,note_off,,192,0,1,,,,,,0,62,64
16128,note_off,,0,0,1,,,,,,0,65,64
16128,note_on,,0,0,1,,,,,,0,62,92
16128,note_on,,0,0,1,,,,,,0,65,92
16128,note_on,,0,0,2,,,,,,0,50,92
16128,note_off,,192,0,3,,,,,,0,50,64
16128,note_on,,0,0,3,,,,,,0,46,102
16224,note_off,,96,0,1,,,,,,0,65,64
16224,note_on,,0,0,1,,,,,,0,64,92
16320,note_on,,0,0,1,,,,,,0,65,92
16320,note_off,,96,0,1,,,,,,0,64,64
16416,note_on,,0,0,1,,,,,,0,62,92
16416,note_off,,0,0,1,,,,,,0,62,64
16416,note_off,,96,0,1,,,,,,0,65,64
16512,note_off,,0,0,2,,,,,,0,50,64
16512,note_off,,384,0,2,,,,,,0,55,64
16512,note_on,,0,0,1,,,,,,0,67,92
16512,note_off,,96,0,1,,,,,,0,62,64
16512,note_off,,384,0,3,,,,,,0,46,64
16608,note_off,,96,0,1,,,,,,0,67,64
16608,note_on,,0,0,1,,,,,,0,62,92
16704,note_on,,0,0,2,,,,,,0,56,92
16704,note_on,,192,0,2,,,,,,0,50,92
16704,note_off,,96,0,1,,,,,,0,62,64
16704,note_on,,0,0,1,,,,,,0,64,92
16704,note_on,,192,0,3,,,,,,0,47,102
16800,note_on,,0,0,1,,,,,,0,62,92
16800,note_off,,96,0,1,,,,,,0,64,64
16896,note_off,,192,0,3,,,,,,0,47,64
16896,note_on,,0,0,3,,,,,,0,45,102
16896,note_off,,96,0,1,,,,,,0,62,64
16896,note_off,,192,0,2,,,,,,0,56,64
16896,note_on,,0,0,1,,,,,,0,65,92
16896,note_on,,0,0,2,,,,,,0,57,92
16896,note_on,,0,0,2,,,,,,0,50,92
16896,note_off,,0,0,2,,,,,,0,50,64
16992,note_on,,96,0,1,,,,,,0,61,92
17088,note_off,,96,0,1,,,,,,0,61,64
17088,note_on,,0,0,1,,,,,,0,62,92
17184,note_off,,288,0,2,,,,,,0,57,64
17184,note_on,,0,0,2,,,,,,0,56,92
17280,note_off,,384,0,3,,,,,,0,45,64
17280,note_on,,0,0,2,,,,,,0,57,92
17280,note_off,,0,0,2,,,,,,0,50,64
17280,note_off,,0,0,1,,,,,,0,65,64
17280,note_off,,192,0,1,,,,,,0,62,64
17280,note_off,,96,0,2,,,,,,0,56,64
17376,note_on,,0,0,2,,,,,,0,53,92
17376,note_off,,96,0,2,,,,,,0,57,64
17472,note_on,,0,0,2,,,,,,0,55,92
17472,note_on,,192,0,3,,,,,,0,45,102
17472,note_off,,96,0,2,,,,,,0,53,64
17472,note_on,,192,0,1,,,,,,0,61,92
17472,note_on,,0,0,1,,,,,,0,64,92
17568,note_on,,96,0,2,,,,,,0,52,92
17664,note_off,,192,0,3,,,,,,0,45,64
17664,note_on,,0,0,3,,,,,,0,50,102
17760,note_off,,288,0,1,,,,,,0,64,64
17760,note_off,,0,0,1,,,,,,0,61,64
17760,note_on,,0,0,1,,,,,,0,61,92
17856,note_off,,0,0,2,,,,,,0,55,64
17856,note_off,,288,0,2,,,,,,0,52,64
17856,note_on,,0,0,1,,,,,,0,62,92
17856,note_off,,96,0,1,,,,,,0,61,64
17952,note_on,,96,0,1,,,,,,0,57,92
18048,note_off,,96,0,1,,,,,,0,57,64
18048,note_on,,0,0,1,,,,,,0,58,92
18144,note_on,,288,0,2,,,,,,0,54,92
18240,note_off,,96,0,2,,,,,,0,54,64
18240,note_on,,0,0,2,,,,,,0,55,92
18336,note_on,,96,0,2,,,,,,0,49,92
18432,note_on,,0,0,2,,,,,,0,50,92
18432,note_off,,96,0,2,,,,,,0,49,64
18528,note_on,,0,0,3,,,,,,0,45,102
18528,note_off,,864,0,3,,,,,,0,50,64
18624,note_on,,0,0,3,,,,,,0,46,102
18624,note_off,,96,0,3,,,,,,0,45,64
18720,note_on,,0,0,3,,,,,,0,43,102
18720,note_off,,96,0,3,,,,,,0,46,64
18816,note_off,,768,0,1,,,,,,0,58,64
18816,note_on,,0,0,3,,,,,,0,50,102
18816,note_off,,96,0,3,,,,,,0,43,64
18816,note_off,,0,0,2,,,,,,0,55,64
18816,note_off,,0,0,1,,,,,,0,62,64
18816,note_off,,384,0,2,,,,,,0,50,64
18912,note_on,,96,0,2,,,,,,0,46,92
18912,note_on,,0,0,2,,,,,,0,52,92
19008,note_on,,0,0,2,,,,,,0,45,92
19008,note_on,,0,0,2,,,,,,0,55,92
19008,note_on,,0,0,3,,,,,,0,38,102
19008,note_off,,96,0,2,,,,,,0,52,64
19008,note_off,,0,0,2,,,,,,0,46,64
19008,note_off,,192,0,3,,,,,,0,50,64
19104,note_on,,0,0,2,,,,,,0,43,92
19104,note_off,,0,0,2,,,,,,0,45,64
19104,note_on,,288,0,1,,,,,,0,61,92
19104,note_off,,96,0,2,,,,,,0,55,64
19200,note_on,,0,0,2,,,,,,0,53,92
19200,note_on,,0,0,1,,,,,,0,62,92
19200,note_off,,96,0,1,,,,,,0,61,64
19200,note_on,,0,0,2,,,,,,0,57,92
19200,note_on,,0,0,2,,,,,,0,45,92
19200,note_on,,0,0,2,,,,,,0,50,92
19200,note_off,,96,0,2,,,,,,0,43,64
19296,note_off,,0,0,2,,,,,,0,50,64
19296,note_off,,0,0,2,,,,,,0,53,64
19296,note_off,,0,0,2,,,,,,0,57,64
19296,note_off,,288,0,3,,,,,,0,38,64
19296,note_on,,0,0,1,,,,,,0,62,92
19296,note_off,,96,0,1,,,,,,0,62,64
19296,note_off,,96,0,2,,,,,,0,45,64
19392,note_on,,0,0,1,,,,,,0,60,92
19392,note_off,,96,0,1,,,,,,0,62,64
19488,note_on,,0,0,1,,,,,,0,58,92
19488,note_off,,96,0,1,,,,,,0,60,64
19584,note_off,,96,0,1,,,,,,0,58,64
19584,note_on,,288,0,2,,,,,,0,57,92
19680,note_off,,96,0,2,,,,,,0,57,64
19680,note_on,,0,0,2,,,,,,0,55,92
19776,note_off,,96,0,2,,,,,,0,55,64
19776,note_on,,0,0,2,,,,,,0,53,92
19872,note_off,,96,0,2,,,,,,0,53,64
19872,note_on,,0,0,2,,,,,,0,52,92
19968,note_off,,96,0,2,,,,,,0,52,64
19968,note_on,,0,0,2,,,,,,0,53,92
20064,note_on,,0,0,2,,,,,,0,52,92
20064,note_off,,96,0,2,,,,,,0,53,64
20160,note_off,,96,0,2,,,,,,0,52,64
20160,note_on,,0,0,2,,,,,,0,53,92
20256,note_on,,0,0,2,,,,,,0,50,92
20256,note_off,,96,0,2,,,,,,0,53,64
20352,note_on,,0,0,2,,,,,,0,57,92
20352,note_off,,96,0,2,,,,,,0,50,64
20448,note_off,,96,0,2,,,,,,0,57,64
20448,note_on,,0,0,2,,,,,,0,53,92
20544,note_on,,0,0,2,,,,,,0,62,92
20544,note_off,,96,0,2,,,,,,0,53,64
20640,note_on,,0,0,2,,,,,,0,57,92
20640,note_off,,96,0,2,,,,,,0,62,64
20736,note_off,,96,0,2,,,,,,0,57,64
20736,note_on,,1152,0,1,,,,,,0,65,92
20832,note_on,,0,0,1,,,,,,0,64,92
20832,note_off,,96,0,1,,,,,,0,65,64
20928,note_on,,0,0,1,,,,,,0,65,92
20928,note_off,,96,0,1,,,,,,0,64,64
21024,note_off,,96,0,1,,,,,,0,65,64
21024,note_on,,0,0,1,,,,,,0,62,92
21120,note_off,,96,0,1,,,,,,0,62,64
21120,note_on,,0,0,1,,,,,,0,69,92
21216,note_on,,0,0,1,,,,,,0,65,92
21216,note_off,,96,0,1,,,,,,0,69,64
21312,note_off,,96,0,1,,,,,,0,65,64
21312,note_on,,0,0,1,,,,,,0,74,92
21408,note_off,,96,0,1,,,,,,0,74,64
21408,note_on,,0,0,1,,,,,,0,69,92
21504,note_off,,96,0,1,,,,,,0,69,64
21504,note_on,,0,0,1,,,,,,0,77,92
21600,note_off,,96,0,1,,,,,,0,77,64
21600,note_on,,0,0,1,,,,,,0,76,92
21696,note_off,,96,0,1,,,,,,0,76,64
21696,note_on,,0,0,1,,,,,,0,77,92
21792,note_off,,96,0,1,,,,,,0,77,64
21792,note_on,,0,0,1,,,,,,0,74,92
21888,note_off,,96,0,1,,,,,,0,74,64
21888,note_on,,0,0,1,,,,,,0,77,92
21984,note_on,,0,0,1,,,,,,0,74,92
21984,note_off,,96,0,1,,,,,,0,77,64
22080,note_off,,96,0,1,,,,,,0,74,64
22080,note_on,,0,0,1,,,,,,0,79,92
22080,note_on,,0,0,1,,,,,,0,67,92
22080,note_on,,1344,0,2,,,,,,0,58,92
22080,note_on,,0,0,2,,,,,,0,62,92
22176,note_off,,96,0,1,,,,,,0,79,64
22176,note_on,,0,0,1,,,,,,0,74,92
22272,note_off,,192,0,2,,,,,,0,62,64
22272,note_on,,0,0,1,,,,,,0,67,92
22272,note_off,,0,0,1,,,,,,0,67,64
22272,note_on,,0,0,1,,,,,,0,76,92
22272,note_on,,0,0,2,,,,,,0,58,92
22272,note_off,,0,0,2,,,,,,0,58,64
22272,note_off,,96,0,1,,,,,,0,74,64
22272,note_on,,0,0,2,,,,,,0,60,92
22368,note_off,,96,0,1,,,,,,0,76,64
22368,note_on,,0,0,1,,,,,,0,74,92
22464,note_off,,96,0,1,,,,,,0,74,64
22464,note_on,,0,0,1,,,,,,0,76,92
22560,note_off,,96,0,1,,,,,,0,76,64
22560,note_on,,0,0,1,,,,,,0,72,92
22656,note_off,,0,0,1,,,,,,0,67,64
22656,note_off,,96,0,1,,,,,,0,72,64
22656,note_on,,0,0,1,,,,,,0,76,92
22656,note_off,,0,0,2,,,,,,0,58,64
22656,note_off,,384,0,2,,,,,,0,60,64
22752,note_on,,0,0,1,,,,,,0,72,92
22752,note_off,,96,0,1,,,,,,0,76,64
22848,note_on,,0,0,1,,,,,,0,77,92
22848,note_off,,96,0,1,,,,,,0,72,64
22848,note_on,,192,0,2,,,,,,0,57,92
22848,note_on,,0,0,2,,,,,,0,60,92
22848,note_on,,0,0,1,,,,,,0,65,92
22944,note_off,,96,0,1,,,,,,0,77,64
22944,note_on,,0,0,1,,,,,,0,72,92
23040,note_off,,0,0,2,,,,,,0,57,64
23040,note_on,,0,0,1,,,,,,0,65,92
23040,note_on,,0,0,2,,,,,,0,57,92
23040,note_on,,0,0,2,,,,,,0,59,92
23040,note_off,,96,0,1,,,,,,0,72,64
23040,note_off,,0,0,1,,,,,,0,65,64
23040,note_off,,192,0,2,,,,,,0,60,64
23040,note_on,,0,0,1,,,,,,0,74,92
23136,note_on,,0,0,1,,,,,,0,72,92
23136,note_off,,96,0,1,,,,,,0,74,64
23232,note_off,,96,0,1,,,,,,0,72,64
23232,note_on,,0,0,1,,,,,,0,74,92
23328,note_off,,96,0,1,,,,,,0,74,64
23328,note_on,,0,0,1,,,,,,0,71,92
23424,note_off,,384,0,2,,,,,,0,59,64
23424,note_off,,0,0,2,,,,,,0,57,64
23424,note_off,,96,0,1,,,,,,0,71,64
23424,note_off,,0,0,1,,,,,,0,65,64
23424,note_on,,0,0,1,,,,,,0,74,92
23520,note_on,,0,0,1,,,,,,0,71,92
23520,note_off,,96,0,1,,,,,,0,74,64
23616,note_on,,0,0,2,,,,,,0,59,92
23616,note_on,,0,0,1,,,,,,0,64,92
23616,note_on,,0,0,1,,,,,,0,76,92
23616,note_on,,192,0,2,,,,,,0,55,92
23616,note_off,,96,0,1,,,,,,0,71,64
23712,note_off,,96,0,1,,,,,,0,76,64
23712,note_on,,0,0,1,,,,,,0,71,92
23808,note_on,,0,0,2,,,,,,0,57,92
23808,note_on,,0,0,1,,,,,,0,73,92
23808,note_off,,0,0,2,,,,,,0,55,64
23808,note_off,,192,0,2,,,,,,0,59,64
23808,note_off,,0,0,1,,,,,,0,64,64
23808,note_on,,0,0,2,,,,,,0,55,92
23808,note_off,,96,0,1,,,,,,0,71,64
23808,note_on,,0,0,1,,,,,,0,64,92
23904,note_off,,96,0,1,,,,,,0,73,64
23904,note_on,,0,0,1,,,,,,0,71,92
24000,note_off,,96,0,1,,,,,,0,71,64
24000,note_on,,0,0,1,,,,,,0,73,92
24096,note_on,,0,0,1,,,,,,0,69,92
24096,note_off,,96,0,1,,,,,,0,73,64
24192,note_on,,0,0,1,,,,,,0,73,92
24192,note_off,,0,0,1,,,,,,0,64,64
24192,note_off,,384,0,2,,,,,,0,57,64
24192,note_off,,0,0,2,,,,,,0,55,64
24192,note_off,,96,0,1,,,,,,0,69,64
24288,note_on,,0,0,1,,,,,,0,69,92
24288,note_off,,96,0,1,,,,,,0,73,64
24384,note_on,,0,0,1,,,,,,0,62,92
24384,note_on,,0,0,1,,,,,,0,74,92
24384,note_on,,192,0,2,,,,,,0,53,92
24384,note_on,,0,0,2,,,,,,0,57,92
24384,note_off,,96,0,1,,,,,,0,69,64
24480,note_on,,0,0,1,,,,,,0,69,92
24480,note_off,,96,0,1,,,,,,0,74,64
24576,note_off,,96,0,1,,,,,,0,69,64
24576,note_off,,0,0,1,,,,,,0,62,64
24576,note_on,,0,0,1,,,,,,0,62,92
24576,note_on,,0,0,1,,,,,,0,76,92
24576,note_off,,192,0,2,,,,,,0,57,64
24576,note_off,,0,0,2,,,,,,0,53,64
24576,note_on,,0,0,2,,,,,,0,55,92
24576,note_on,,0,0,2,,,,,,0,58,92
24672,note_off,,96,0,1,,,,,,0,76,64
24672,note_on,,0,0,1,,,,,,0,74,92
24768,note_off,,96,0,1,,,,,,0,74,64
24768,note_on,,0,0,1,,,,,,0,76,92
24864,note_off,,96,0,1,,,,,,0,76,64
24864,note_on,,0,0,1,,,,,,0,69,92
24960,note_on,,0,0,1,,,,,,0,76,92
24960,note_off,,0,0,1,,,,,,0,62,64
24960,note_off,,96,0,1,,,,,,0,69,64
24960,note_off,,0,0,2,,,,,,0,55,64
24960,note_off,,384,0,2,,,,,,0,58,64
25056,note_off,,96,0,1,,,,,,0,76,64
25056,note_on,,0,0,1,,,,,,0,69,92
25152,note_on,,192,0,2,,,,,,0,57,92
25152,note_off,,96,0,1,,,,,,0,69,64
25152,note_on,,0,0,1,,,,,,0,61,92
25152,note_on,,0,0,1,,,,,,0,77,92
25248,note_on,,0,0,1,,,,,,0,69,92
25248,note_off,,96,0,1,,,,,,0,77,64
25344,note_on,,0,0,2,,,,,,0,62,92
25344,note_off,,0,0,1,,,,,,0,61,64
25344,note_on,,0,0,1,,,,,,0,64,92
25344,note_on,,0,0,1,,,,,,0,79,92
25344,note_off,,192,0,2,,,,,,0,57,64
25344,note_on,,0,0,2,,,,,,0,58,92
25344,note_off,,96,0,1,,,,,,0,69,64
25440,note_off,,96,0,1,,,,,,0,79,64
25440,note_on,,0,0,1,,,,,,0,77,92
25536,note_off,,96,0,1,,,,,,0,77,64
25536,note_on,,0,0,1,,,,,,0,79,92
25632,note_off,,96,0,1,,,,,,0,79,64
25632,note_on,,0,0,1,,,,,,0,69,92
25728,note_off,,384,0,2,,,,,,0,62,64
25728,note_off,,0,0,2,,,,,,0,58,64
25728,note_off,,0,0,1,,,,,,0,64,64
25728,note_off,,96,0,1,,,,,,0,69,64
25728,note_on,,0,0,1,,,,,,0,79,92
25824,note_off,,96,0,1,,,,,,0,79,64
25824,note_on,,0,0,1,,,,,,0,69,92
25920,note_off,,96,0,1,,,,,,0,69,64
25920,note_on,,0,0,1,,,,,,0,65,92
25920,note_on,,0,0,1,,,,,,0,81,92
25920,note_on,,192,0,2,,,,,,0,55,92
25920,note_on,,0,0,2,,,,,,0,62,92
26016,note_on,,0,0,1,,,,,,0,74,92
26016,note_off,,96,0,1,,,,,,0,81,64
26112,note_on,,0,0,1,,,,,,0,73,92
26112,note_off,,96,0,1,,,,,,0,74,64
26112,note_on,,0,0,2,,,,,,0,57,92
26112,note_off,,0,0,2,,,,,,0,55,64
26112,note_off,,192,0,2,,,,,,0,62,64
26112,note_on,,0,0,1,,,,,,0,64,92
26112,note_off,,0,0,1,,,,,,0,65,64
26208,note_off,,96,0,1,,,,,,0,73,64
26208,note_on,,0,0,1,,,,,,0,71,92
26304,note_on,,0,0,1,,,,,,0,73,92
26304,note_off,,0,0,1,,,,,,0,64,64
26304,note_off,,96,0,1,,,,,,0,71,64
26304,note_off,,192,0,2,,,,,,0,57,64
26400,note_off,,96,0,1,,,,,,0,73,64
26400,note_on,,0,0,1,,,,,,0,69,92
26496,note_on,,96,0,1,,,,,,0,79,92
26496,note_on,,0,0,1,,,,,,0,76,92
26496,note_on,,192,0,2,,,,,,0,61,92
26592,note_off,,96,0,2,,,,,,0,61,64
26592,note_on,,0,0,2,,,,,,0,59,92
26688,note_off,,96,0,2,,,,,,0,59,64
26688,note_on,,0,0,1,,,,,,0,79,92
26688,note_off,,192,0,1,,,,,,0,76,64
26688,note_off,,0,0,1,,,,,,0,79,64
26688,note_off,,0,0,1,,,,,,0,69,64
26688,note_on,,0,0,1,,,,,,0,76,92
26688,note_on,,0,0,1,,,,,,0,69,92
26688,note_on,,0,0,2,,,,,,0,61,92
26784,note_on,,0,0,2,,,,,,0,57,92
26784,note_off,,96,0,2,,,,,,0,61,64
26880,note_on,,0,0,1,,,,,,0,69,92
26880,note_off,,192,0,1,,,,,,0,69,64
26880,note_on,,0,0,1,,,,,,0,79,92
26880,note_off,,96,0,2,,,,,,0,57,64
26880,note_on,,0,0,2,,,,,,0,62,92
26880,note_on,,0,0,1,,,,,,0,76,92
26880,note_off,,0,0,1,,,,,,0,76,64
26880,note_off,,0,0,1,,,,,,0,79,64
26976,note_off,,96,0,1,,,,,,0,76,64
26976,note_on,,0,0,1,,,,,,0,74,92
27072,note_on,,0,0,1,,,,,,0,76,92
27072,note_off,,0,0,1,,,,,,0,69,64
27072,note_off,,96,0,1,,,,,,0,74,64
27072,note_off,,0,0,1,,,,,,0,79,64
27072,note_off,,192,0,2,,,,,,0,62,64
27168,note_off,,96,0,1,,,,,,0,76,64
27168,note_on,,0,0,1,,,,,,0,73,92
27264,note_on,,192,0,2,,,,,,0,53,92
27264,note_off,,96,0,1,,,,,,0,73,64
27264,note_on,,0,0,1,,,,,,0,77,92
27264,note_on,,0,0,1,,,,,,0,74,92
27264,note_on,,0,0,1,,,,,,0,69,92
27360,note_off,,96,0,2,,,,,,0,53,64
27360,note_on,,0,0,2,,,,,,0,52,92
27456,note_off,,96,0,2,,,,,,0,52,64
27456,note_off,,192,0,1,,,,,,0,69,64
27456,note_off,,0,0,1,,,,,,0,74,64
27456,note_off,,0,0,1,,,,,,0,77,64
27456,note_on,,0,0,1,,,,,,0,77,92
27456,note_on,,0,0,1,,,,,,0,74,92
27456,note_on,,0,0,1,,,,,,0,69,92
27456,note_on,,0,0,2,,,,,,0,53,92
27552,note_on,,0,0,2,,,,,,0,50,92
27552,note_off,,96,0,2,,,,,,0,53,64
27648,note_on,,0,0,1,,,,,,0,67,92
27648,note_off,,0,0,1,,,,,,0,74,64
27648,note_off,,0,0,1,,,,,,0,77,64
27648,note_on,,0,0,1,,,,,,0,74,92
27648,note_on,,0,0,1,,,,,,0,77,92
27648,note_off,,96,0,2,,,,,,0,50,64
27648,note_on,,0,0,2,,,,,,0,58,92
27648,note_off,,192,0,1,,,,,,0,69,64
27744,note_off,,96,0,1,,,,,,0,77,64
27744,note_on,,0,0,1,,,,,,0,76,92
27840,note_on,,0,0,1,,,,,,0,77,92
27840,note_off,,0,0,1,,,,,,0,67,64
27840,note_off,,192,0,2,,,,,,0,58,64
27840,note_off,,96,0,1,,,,,,0,76,64
27840,note_off,,0,0,1,,,,,,0,74,64
27936,note_on,,0,0,1,,,,,,0,74,92
27936,note_off,,96,0,1,,,,,,0,77,64
28032,note_on,,0,0,1,,,,,,0,76,92
28032,note_off,,96,0,1,,,,,,0,74,64
28032,note_on,,192,0,2,,,,,,0,56,92
28128,note_off,,96,0,2,,,,,,0,56,64
28128,note_on,,0,0,2,,,,,,0,54,92
28224,note_on,,0,0,1,,,,,,0,71,92
28224,note_on,,0,0,1,,,,,,0,74,92
28224,note_on,,0,0,1,,,,,,0,76,92
28224,note_on,,0,0,2,,,,,,0,56,92
28224,note_off,,192,0,1,,,,,,0,76,64
28224,note_off,,96,0,2,,,,,,0,54,64
28320,note_on,,0,0,2,,,,,,0,52,92
28320,note_off,,96,0,2,,,,,,0,56,64
28416,note_on,,0,0,1,,,,,,0,70,92
28416,note_on,,0,0,2,,,,,,0,57,92
28416,note_on,,0,0,1,,,,,,0,76,92
28416,note_on,,0,0,1,,,,,,0,74,92
28416,note_off,,0,0,1,,,,,,0,71,64
28416,note_off,,192,0,1,,,,,,0,76,64
28416,note_off,,96,0,2,,,,,,0,52,64
28416,note_off,,0,0,1,,,,,,0,74,64
28512,note_on,,0,0,1,,,,,,0,69,92
28512,note_off,,96,0,1,,,,,,0,70,64
28608,note_off,,96,0,1,,,,,,0,69,64
28608,note_off,,0,0,1,,,,,,0,74,64
28608,note_off,,0,0,1,,,,,,0,76,64
28608,note_on,,0,0,1,,,,,,0,70,92
28704,note_off,,96,0,1,,,,,,0,70,64
28704,note_on,,0,0,1,,,,,,0,67,92
28800,note_on,,96,0,1,,,,,,0,73,92
28800,note_on,,0,0,1,,,,,,0,76,92
28896,note_on,,0,0,2,,,,,,0,55,92
28896,note_off,,480,0,2,,,,,,0,57,64
28992,note_on,,0,0,2,,,,,,0,57,92
28992,note_on,,0,0,1,,,,,,0,76,92
28992,note_off,,0,0,1,,,,,,0,73,64
28992,note_off,,0,0,1,,,,,,0,67,64
28992,note_on,,0,0,1,,,,,,0,73,92
28992,note_off,,96,0,2,,,,,,0,55,64
28992,note_on,,0,0,1,,,,,,0,67,92
28992,note_off,,192,0,1,,,,,,0,76,64
29088,note_on,,0,0,2,,,,,,0,45,92
29088,note_off,,96,0,2,,,,,,0,57,64
29184,note_off,,0,0,1,,,,,,0,76,64
29184,note_off,,0,0,1,,,,,,0,73,64
29184,note_on,,0,0,1,,,,,,0,65,92
29184,note_on,,0,0,1,,,,,,0,69,92
29184,note_on,,0,0,1,,,,,,0,74,92
29184,note_on,,0,0,2,,,,,,0,50,92
29184,note_off,,96,0,2,,,,,,0,45,64
29184,note_on,,9888,0,3,,,,,,0,50,102
29184,note_off,,192,0,1,,,,,,0,67,64
29280,note_on,,0,0,3,,,,,,0,49,102
29280,note_off,,96,0,3,,,,,,0,50,64
29376,note_on,,0,0,3,,,,,,0,50,102
29376,note_off,,96,0,3,,,,,,0,49,64
29376,note_off,,192,0,1,,,,,,0,74,64
29376,note_off,,0,0,1,,,,,,0,69,64
29376,note_off,,192,0,2,,,,,,0,50,64
29376,note_off,,0,0,1,,,,,,0,65,64
29472,note_on,,0,0,3,,,,,,0,45,102
29472,note_off,,96,0,3,,,,,,0,50,64
29568,note_off,,96,0,3,,,,,,0,45,64
29568,note_on,,0,0,3,,,,,,0,50,102
29664,note_off,,96,0,3,,,,,,0,50,64
29664,note_on,,0,0,3,,,,,,0,45,102
29760,note_off,,96,0,3,,,,,,0,45,64
29760,note_on,,0,0,3,,,,,,0,52,102
29856,note_off,,96,0,3,,,,,,0,52,64
29856,note_on,,0,0,3,,,,,,0,45,102
29952,note_off,,96,0,3,,,,,,0,45,64
29952,note_on,,0,0,3,,,,,,0,53,102
29952,note_on,,576,0,2,,,,,,0,62,92
30048,note_off,,96,0,2,,,,,,0,62,64
30048,note_on,,0,0,2,,,,,,0,61,92
30144,note_off,,96,0,2,,,,,,0,61,64
30144,note_on,,0,0,2,,,,,,0,62,92
30240,note_off,,96,0,2,,,,,,0,62,64
30240,note_on,,0,0,2,,,,,,0,57,92
30336,note_on,,0,0,2,,,,,,0,62,92
30336,note_off,,384,0,3,,,,,,0,53,64
30336,note_off,,96,0,2,,,,,,0,57,64
30432,note_on,,0,0,2,,,,,,0,57,92
30432,note_off,,96,0,2,,,,,,0,62,64
30528,note_off,,96,0,2,,,,,,0,57,64
30528,note_on,,192,0,3,,,,,,0,49,102
30528,note_on,,0,0,2,,,,,,0,64,92
30624,note_on,,0,0,2,,,,,,0,57,92
30624,note_off,,96,0,2,,,,,,0,64,64
30720,note_off,,192,0,3,,,,,,0,49,64
30720,note_on,,0,0,3,,,,,,0,50,102
30720,note_on,,0,0,2,,,,,,0,65,92
30720,note_on,,1344,0,1,,,,,,0,74,92
30720,note_off,,96,0,2,,,,,,0,57,64
30816,note_on,,0,0,1,,,,,,0,73,92
30816,note_off,,96,0,1,,,,,,0,74,64
30912,note_on,,0,0,1,,,,,,0,74,92
30912,note_off,,96,0,1,,,,,,0,73,64
31008,note_off,,96,0,1,,,,,,0,74,64
31008,note_on,,0,0,1,,,,,,0,69,92
31104,note_off,,384,0,2,,,,,,0,65,64
31104,note_on,,0,0,1,,,,,,0,74,92
31104,note_off,,96,0,1,,,,,,0,69,64
31104,note_off,,384,0,3,,,,,,0,50,64
31200,note_on,,0,0,1,,,,,,0,69,92
31200,note_off,,96,0,1,,,,,,0,74,64
31296,note_on,,192,0,2,,,,,,0,61,92
31296,note_off,,96,0,1,,,,,,0,69,64
31296,note_on,,0,0,1,,,,,,0,76,92
31296,note_on,,192,0,3,,,,,,0,45,102
31392,note_off,,96,0,1,,,,,,0,76,64
31392,note_on,,0,0,1,,,,,,0,69,92
31488,note_off,,96,0,1,,,,,,0,69,64
31488,note_on,,0,0,1,,,,,,0,77,92
31488,note_on,,0,0,3,,,,,,0,38,102
31488,note_on,,0,0,2,,,,,,0,62,92
31488,note_off,,192,0,2,,,,,,0,61,64
31488,note_off,,192,0,3,,,,,,0,45,64
31584,note_off,,96,0,1,,,,,,0,77,64
31584,note_on,,0,0,1,,,,,,0,73,92
31680,note_on,,0,0,1,,,,,,0,74,92
31680,note_off,,96,0,1,,,,,,0,73,64
31776,note_on,,0,0,1,,,,,,0,69,92
31776,note_off,,96,0,1,,,,,,0,74,64
31872,note_off,,384,0,3,,,,,,0,38,64
31872,note_off,,384,0,2,,,,,,0,62,64
31872,note_on,,96,0,1,,,,,,0,77,92
31872,note_on,,0,0,1,,,,,,0,74,92
31968,note_on,,96,0,2,,,,,,0,57,92
32064,note_off,,0,0,1,,,,,,0,77,64
32064,note_off,,0,0,1,,,,,,0,69,64
32064,note_on,,0,0,1,,,,,,0,77,92
32064,note_on,,0,0,1,,,,,,0,74,92
32064,note_on,,0,0,1,,,,,,0,69,92
32064,note_on,,192,0,3,,,,,,0,50,102
32064,note_off,,192,0,1,,,,,,0,74,64
32064,note_on,,0,0,2,,,,,,0,62,92
32064,note_off,,96,0,2,,,,,,0,57,64
32160,note_on,,0,0,2,,,,,,0,65,92
32160,note_off,,96,0,2,,,,,,0,62,64
32256,note_on,,0,0,2,,,,,,0,59,92
32256,note_off,,192,0,3,,,,,,0,50,64
32256,note_off,,192,0,1,,,,,,0,69,64
32256,note_off,,96,0,2,,,,,,0,65,64
32256,note_off,,0,0,1,,,,,,0,77,64
32256,note_on,,0,0,1,,,,,,0,67,92
32256,note_on,,0,0,1,,,,,,0,74,92
32256,note_on,,0,0,1,,,,,,0,77,92
32256,note_on,,0,0,3,,,,,,0,43,102
32256,note_off,,0,0,1,,,,,,0,74,64
32352,note_off,,96,0,2,,,,,,0,59,64
32352,note_on,,0,0,2,,,,,,0,57,92
32448,note_off,,96,0,2,,,,,,0,57,64
32448,note_on,,0,0,2,,,,,,0,59,92
32544,note_off,,96,0,2,,,,,,0,59,64
32544,note_on,,0,0,2,,,,,,0,55,92
32640,note_on,,0,0,2,,,,,,0,59,92
32640,note_off,,384,0,3,,,,,,0,43,64
32640,note_off,,384,0,1,,,,,,0,77,64
32640,note_on,,96,0,2,,,,,,0,62,92
32640,note_off,,0,0,1,,,,,,0,74,64
32640,note_off,,0,0,1,,,,,,0,67,64
32736,note_on,,96,0,1,,,,,,0,67,92
32832,note_on,,192,0,3,,,,,,0,55,102
32832,note_off,,96,0,1,,,,,,0,67,64
32832,note_off,,192,0,2,,,,,,0,59,64
32832,note_off,,0,0,2,,,,,,0,62,64
32832,note_off,,0,0,2,,,,,,0,55,64
32832,note_on,,0,0,2,,,,,,0,62,92
32832,note_on,,0,0,2,,,,,,0,55,92
32832,note_on,,0,0,2,,,,,,0,59,92
32832,note_on,,0,0,1,,,,,,0,74,92
32928,note_off,,96,0,1,,,,,,0,74,64
32928,note_on,,0,0,1,,,,,,0,77,92
33024,note_off,,0,0,2,,,,,,0,62,64
33024,note_off,,192,0,3,,,,,,0,55,64
33024,note_on,,0,0,3,,,,,,0,48,102
33024,note_on,,0,0,1,,,,,,0,76,92
33024,note_off,,96,0,1,,,,,,0,77,64
33024,note_on,,0,0,2,,,,,,0,59,92
33024,note_off,,192,0,2,,,,,,0,59,64
33024,note_off,,0,0,2,,,,,,0,55,64
33024,note_on,,0,0,2,,,,,,0,55,92
33024,note_on,,0,0,2,,,,,,0,60,92
33120,note_off,,96,0,1,,,,,,0,76,64
33120,note_on,,0,0,1,,,,,,0,71,92
33216,note_on,,0,0,1,,,,,,0,72,92
33216,note_off,,96,0,1,,,,,,0,71,64
33312,note_off,,96,0,1,,,,,,0,72,64
33312,note_on,,0,0,1,,,,,,0,67,92
33408,note_off,,0,0,2,,,,,,0,60,64
33408,note_off,,384,0,3,,,,,,0,48,64
33408,note_off,,384,0,2,,,,,,0,59,64
33408,note_on,,96,0,1,,,,,,0,76,92
33408,note_on,,0,0,1,,,,,,0,72,92
33408,note_off,,0,0,2,,,,,,0,55,64
33504,note_on,,96,0,2,,,,,,0,55,92
33600,note_off,,96,0,2,,,,,,0,55,64
33600,note_on,,0,0,2,,,,,,0,60,92
33600,note_on,,0,0,1,,,,,,0,67,92
33600,note_on,,0,0,1,,,,,,0,72,92
33600,note_on,,0,0,1,,,,,,0,76,92
33600,note_off,,0,0,1,,,,,,0,76,64
33600,note_off,,192,0,1,,,,,,0,72,64
33600,note_on,,192,0,3,,,,,,0,48,102
33600,note_off,,0,0,1,,,,,,0,67,64
33696,note_off,,96,0,2,,,,,,0,60,64
33696,note_on,,0,0,2,,,,,,0,64,92
33792,note_on,,0,0,2,,,,,,0,57,92
33792,note_off,,192,0,1,,,,,,0,67,64
33792,note_off,,0,0,1,,,,,,0,72,64
33792,note_off,,96,0,2,,,,,,0,64,64
33792,note_on,,0,0,3,,,,,,0,41,102
33792,note_off,,192,0,3,,,,,,0,48,64
33792,note_off,,0,0,1,,,,,,0,76,64
33792,note_on,,0,0,1,,,,,,0,65,92
33792,note_on,,0,0,1,,,,,,0,72,92
33792,note_on,,0,0,1,,,,,,0,76,92
33888,note_off,,96,0,2,,,,,,0,57,64
33888,note_on,,0,0,2,,,,,,0,55,92
33984,note_off,,96,0,2,,,,,,0,55,64
33984,note_on,,0,0,2,,,,,,0,57,92
34080,note_on,,0,0,2,,,,,,0,53,92
34080,note_off,,96,0,2,,,,,,0,57,64
34176,note_off,,0,0,1,,,,,,0,72,64
34176,note_on,,0,0,2,,,,,,0,57,92
34176,note_off,,0,0,1,,,,,,0,65,64
34176,note_off,,384,0,1,,,,,,0,76,64
34176,note_on,,96,0,2,,,,,,0,60,92
34176,note_off,,384,0,3,,,,,,0,41,64
34272,note_on,,96,0,1,,,,,,0,65,92
34368,note_off,,0,0,2,,,,,,0,60,64
34368,note_on,,0,0,2,,,,,,0,53,92
34368,note_off,,0,0,2,,,,,,0,53,64
34368,note_on,,0,0,2,,,,,,0,60,92
34368,note_off,,192,0,2,,,,,,0,57,64
34368,note_on,,0,0,2,,,,,,0,57,92
34368,note_on,,0,0,1,,,,,,0,72,92
34368,note_off,,96,0,1,,,,,,0,65,64
34368,note_on,,192,0,3,,,,,,0,53,102
34464,note_on,,0,0,1,,,,,,0,76,92
34464,note_off,,96,0,1,,,,,,0,72,64
34560,note_on,,0,0,1,,,,,,0,74,92
34560,note_off,,96,0,1,,,,,,0,76,64
34560,note_off,,192,0,2,,,,,,0,53,64
34560,note_on,,0,0,3,,,,,,0,47,102
34560,note_off,,0,0,2,,,,,,0,60,64
34560,note_on,,0,0,2,,,,,,0,53,92
34560,note_on,,0,0,2,,,,,,0,57,92
34560,note_on,,0,0,2,,,,,,0,59,92
34560,note_off,,0,0,2,,,,,,0,57,64
34560,note_off,,192,0,3,,,,,,0,53,64
34656,note_off,,96,0,1,,,,,,0,74,64
34656,note_on,,0,0,1,,,,,,0,69,92
34752,note_off,,96,0,1,,,,,,0,69,64
34752,note_on,,0,0,1,,,,,,0,71,92
34848,note_off,,96,0,1,,,,,,0,71,64
34848,note_on,,0,0,1,,,,,,0,65,92
34944,note_on,,96,0,1,,,,,,0,74,92
34944,note_on,,0,0,1,,,,,,0,71,92
34944,note_off,,0,0,2,,,,,,0,57,64
34944,note_off,,384,0,2,,,,,,0,59,64
34944,note_off,,0,0,2,,,,,,0,53,64
34944,note_off,,384,0,3,,,,,,0,47,64
35040,note_on,,96,0,2,,,,,,0,53,92
35136,note_on,,0,0,2,,,,,,0,59,92
35136,note_on,,0,0,1,,,,,,0,65,92
35136,note_off,,0,0,1,,,,,,0,65,64
35136,note_off,,0,0,1,,,,,,0,74,64
35136,note_off,,192,0,1,,,,,,0,71,64
35136,note_off,,96,0,2,,,,,,0,53,64
35136,note_on,,0,0,1,,,,,,0,71,92
35136,note_on,,0,0,1,,,,,,0,74,92
35136,note_on,,192,0,3,,,,,,0,47,102
35232,note_on,,0,0,2,,,,,,0,62,92
35232,note_off,,96,0,2,,,,,,0,59,64
35328,note_on,,0,0,1,,,,,,0,71,92
35328,note_on,,0,0,1,,,,,,0,64,92
35328,note_off,,0,0,1,,,,,,0,74,64
35328,note_off,,0,0,1,,,,,,0,71,64
35328,note_off,,192,0,1,,,,,,0,65,64
35328,note_off,,96,0,2,,,,,,0,62,64
35328,note_on,,0,0,2,,,,,,0,56,92
35328,note_on,,0,0,3,,,,,,0,40,102
35328,note_on,,0,0,1,,,,,,0,74,92
35328,note_off,,192,0,3,,,,,,0,47,64
35424,note_off,,96,0,2,,,,,,0,56,64
35424,note_on,,0,0,2,,,,,,0,54,92
35520,note_off,,96,0,2,,,,,,0,54,64
35520,note_on,,0,0,2,,,,,,0,56,92
35616,note_off,,96,0,2,,,,,,0,56,64
35616,note_on,,0,0,2,,,,,,0,52,92
35712,note_off,,384,0,1,,,,,,0,74,64
35712,note_on,,0,0,2,,,,,,0,56,92
35712,note_off,,0,0,1,,,,,,0,71,64
35712,note_off,,0,0,1,,,,,,0,64,64
35712,note_off,,384,0,3,,,,,,0,40,64
35712,note_on,,96,0,2,,,,,,0,59,92
35808,note_on,,96,0,1,,,,,,0,64,92
35904,note_on,,0,0,1,,,,,,0,71,92
35904,note_off,,192,0,2,,,,,,0,56,64
35904,note_on,,0,0,2,,,,,,0,56,92
35904,note_on,,192,0,3,,,,,,0,52,102
35904,note_on,,0,0,2,,,,,,0,59,92
35904,note_off,,0,0,2,,,,,,0,52,64
35904,note_off,,0,0,2,,,,,,0,59,64
35904,note_off,,96,0,1,,,,,,0,64,64
35904,note_on,,0,0,2,,,,,,0,52,92
36000,note_off,,96,0,1,,,,,,0,71,64
36000,note_on,,0,0,1,,,,,,0,74,92
36096,note_on,,0,0,2,,,,,,0,52,92
36096,note_on,,0,0,2,,,,,,0,57,92
36096,note_off,,192,0,3,,,,,,0,52,64
36096,note_on,,0,0,3,,,,,,0,45,102
36096,note_off,,192,0,2,,,,,,0,52,64
36096,note_off,,0,0,2,,,,,,0,56,64
36096,note_off,,0,0,2,,,,,,0,59,64
36096,note_off,,96,0,1,,,,,,0,74,64
36096,note_on,,0,0,1,,,,,,0,72,92
36192,note_off,,96,0,1,,,,,,0,72,64
36192,note_on,,0,0,1,,,,,,0,68,92
36288,note_on,,0,0,1,,,,,,0,69,92
36288,note_off,,96,0,1,,,,,,0,68,64
36384,note_off,,96,0,1,,,,,,0,69,64
36384,note_on,,0,0,1,,,,,,0,64,92
36480,note_off,,384,0,3,,,,,,0,45,64
36480,note_off,,96,0,1,,,,,,0,64,64
36480,note_on,,0,0,2,,,,,,0,60,92
36480,note_off,,384,0,2,,,,,,0,57,64
36480,note_off,,0,0,2,,,,,,0,52,64
36576,note_on,,0,0,2,,,,,,0,57,92
36576,note_off,,96,0,2,,,,,,0,60,64
36672,note_off,,96,0,2,,,,,,0,57,64
36672,note_on,,0,0,2,,,,,,0,64,92
36768,note_on,,0,0,2,,,,,,0,56,92
36768,note_off,,96,0,2,,,,,,0,64,64
36864,note_on,,384,0,1,,,,,,0,69,92
36864,note_on,,0,0,2,,,,,,0,55,92
36864,note_off,,96,0,2,,,,,,0,56,64
36960,note_off,,96,0,1,,,,,,0,69,64
36960,note_on,,0,0,2,,,,,,0,52,92
36960,note_off,,96,0,2,,,,,,0,55,64
36960,note_on,,0,0,1,,,,,,0,68,92
37056,note_off,,96,0,2,,,,,,0,52,64
37056,note_on,,0,0,1,,,,,,0,69,92
37056,note_off,,96,0,1,,,,,,0,68,64
37056,note_on,,0,0,2,,,,,,0,48,92
37152,note_off,,96,0,2,,,,,,0,48,64
37152,note_on,,0,0,2,,,,,,0,52,92
37152,note_on,,0,0,1,,,,,,0,64,92
37152,note_off,,96,0,1,,,,,,0,69,64
37248,note_on,,0,0,2,,,,,,0,45,92
37248,note_off,,96,0,2,,,,,,0,52,64
37248,note_on,,0,0,1,,,,,,0,69,92
37248,note_off,,96,0,1,,,,,,0,64,64
37344,note_on,,0,0,1,,,,,,0,64,92
37344,note_off,,96,0,1,,,,,,0,69,64
37440,note_off,,192,0,2,,,,,,0,45,64
37440,note_off,,96,0,1,,,,,,0,64,64
37440,note_on,,0,0,1,,,,,,0,71,92
37536,note_on,,0,0,1,,,,,,0,64,92
37536,note_off,,96,0,1,,,,,,0,71,64
37632,note_on,,0,0,1,,,,,,0,72,92
37632,note_off,,96,0,1,,,,,,0,64,64
37632,note_on,,192,0,2,,,,,,0,57,92
37728,note_off,,96,0,2,,,,,,0,57,64
37728,note_off,,96,0,1,,,,,,0,72,64
37728,note_on,,0,0,1,,,,,,0,71,92
37728,note_on,,0,0,2,,,,,,0,56,92
37824,note_on,,0,0,1,,,,,,0,72,92
37824,note_off,,96,0,1,,,,,,0,71,64
37824,note_off,,96,0,2,,,,,,0,56,64
37824,note_on,,0,0,2,,,,,,0,57,92
37920,note_on,,0,0,2,,,,,,0,52,92
37920,note_off,,96,0,1,,,,,,0,72,64
37920,note_on,,0,0,1,,,,,,0,69,92
37920,note_off,,96,0,2,,,,,,0,57,64
38016,note_off,,96,0,2,,,,,,0,52,64
38016,note_on,,0,0,2,,,,,,0,57,92
38016,note_off,,96,0,1,,,,,,0,69,64
38016,note_on,,0,0,1,,,,,,0,72,92
38112,note_off,,96,0,1,,,,,,0,72,64
38112,note_on,,0,0,2,,,,,,0,52,92
38112,note_on,,0,0,1,,,,,,0,69,92
38112,note_off,,96,0,2,,,,,,0,57,64
38208,note_off,,96,0,2,,,,,,0,52,64
38208,note_on,,0,0,2,,,,,,0,59,92
38208,note_on,,0,0,1,,,,,,0,74,92
38208,note_off,,96,0,1,,,,,,0,69,64
38304,note_off,,96,0,2,,,,,,0,59,64
38304,note_on,,0,0,2,,,,,,0,52,92
38304,note_on,,0,0,1,,,,,,0,69,92
38304,note_off,,96,0,1,,,,,,0,74,64
38400,note_on,,0,0,2,,,,,,0,60,92
38400,note_off,,96,0,2,,,,,,0,52,64
38400,note_off,,96,0,1,,,,,,0,69,64
38400,note_on,,0,0,1,,,,,,0,76,92
38496,note_off,,96,0,1,,,,,,0,76,64
38496,note_on,,0,0,1,,,,,,0,74,92
38496,note_on,,0,0,2,,,,,,0,59,92
38496,note_off,,96,0,2,,,,,,0,60,64
38592,note_off,,96,0,2,,,,,,0,59,64
38592,note_off,,96,0,1,,,,,,0,74,64
38592,note_on,,0,0,2,,,,,,0,60,92
38592,note_on,,0,0,1,,,,,,0,76,92
38688,note_on,,0,0,2,,,,,,0,57,92
38688,note_off,,96,0,2,,,,,,0,60,64
38688,note_on,,0,0,1,,,,,,0,72,92
38688,note_off,,96,0,1,,,,,,0,76,64
38784,note_on,,0,0,2,,,,,,0,60,92
38784,note_off,,96,0,2,,,,,,0,57,64
38784,note_on,,0,0,1,,,,,,0,76,92
38784,note_off,,96,0,1,,,,,,0,72,64
38880,note_off,,96,0,2,,,,,,0,60,64
38880,note_on,,0,0,2,,,,,,0,57,92
38880,note_off,,96,0,1,,,,,,0,76,64
38880,note_on,,0,0,1,,,,,,0,72,92
38976,note_off,,96,0,1,,,,,,0,72,64
38976,note_off,,96,0,2,,,,,,0,57,64
38976,note_on,,0,0,2,,,,,,0,62,92
38976,note_on,,0,0,1,,,,,,0,77,92
39072,note_off,,96,0,2,,,,,,0,62,64
39072,note_on,,0,0,2,,,,,,0,57,92
39072,note_on,,0,0,1,,,,,,0,72,92
39072,note_off,,96,0,1,,,,,,0,77,64
39168,note_on,,0,0,2,,,,,,0,59,92
39168,note_on,,0,0,1,,,,,,0,74,92
39168,note_off,,96,0,2,,,,,,0,57,64
39168,note_off,,96,0,1,,,,,,0,72,64
39264,note_off,,96,0,1,,,,,,0,74,64
39264,note_on,,0,0,2,,,,,,0,57,92
39264,note_off,,96,0,2,,,,,,0,59,64
39264,note_on,,0,0,1,,,,,,0,72,92
39360,note_off,,96,0,2,,,,,,0,57,64
39360,note_on,,0,0,2,,,,,,0,59,92
39360,note_off,,96,0,1,,,,,,0,72,64
39360,note_on,,0,0,1,,,,,,0,74,92
39456,note_on,,0,0,2,,,,,,0,55,92
39456,note_off,,96,0,2,,,,,,0,59,64
39456,note_off,,96,0,1,,,,,,0,74,64
39456,note_on,,0,0,1,,,,,,0,71,92
39552,note_on,,0,0,2,,,,,,0,59,92
39552,note_off,,96,0,2,,,,,,0,55,64
39552,note_off,,96,0,1,,,,,,0,71,64
39552,note_on,,0,0,1,,,,,,0,74,92
39648,note_on,,0,0,2,,,,,,0,55,92
39648,note_off,,96,0,2,,,,,,0,59,64
39648,note_off,,96,0,1,,,,,,0,74,64
39648,note_on,,0,0,1,,,,,,0,71,92
39744,note_on,,0,0,1,,,,,,0,76,92
39744,note_off,,96,0,2,,,,,,0,55,64
39744,note_on,,0,0,2,,,,,,0,60,92
39744,note_off,,96,0,1,,,,,,0,71,64
39840,note_off,,96,0,1,,,,,,0,76,64
39840,note_on,,0,0,1,,,,,,0,71,92
39840,note_on,,0,0,2,,,,,,0,55,92
39840,note_off,,96,0,2,,,,,,0,60,64
39936,note_on,,0,0,2,,,,,,0,57,92
39936,note_on,,0,0,1,,,,,,0,72,92
39936,note_off,,96,0,1,,,,,,0,71,64
39936,note_off,,96,0,2,,,,,,0,55,64
40032,note_off,,96,0,2,,,,,,0,57,64
40032,note_on,,0,0,1,,,,,,0,71,92
40032,note_off,,96,0,1,,,,,,0,72,64
40032,note_on,,0,0,2,,,,,,0,55,92
40128,note_off,,96,0,2,,,,,,0,55,64
40128,note_on,,0,0,2,,,,,,0,57,92
40128,note_on,,0,0,1,,,,,,0,72,92
40128,note_off,,96,0,1,,,,,,0,71,64
40224,note_off,,96,0,1,,,,,,0,72,64
40224,note_off,,96,0,2,,,,,,0,57,64
40224,note_on,,0,0,2,,,,,,0,54,92
40224,note_on,,0,0,1,,,,,,0,69,92
40320,note_off,,96,0,1,,,,,,0,69,64
40320,note_off,,96,0,2,,,,,,0,54,64
40320,note_on,,0,0,1,,,,,,0,72,92
40320,note_on,,0,0,2,,,,,,0,57,92
40416,note_on,,0,0,1,,,,,,0,69,92
40416,note_off,,96,0,2,,,,,,0,57,64
40416,note_on,,0,0,2,,,,,,0,54,92
40416,note_off,,96,0,1,,,,,,0,72,64
40512,note_off,,96,0,1,,,,,,0,69,64
40512,note_on,,0,0,1,,,,,,0,74,92
40512,note_off,,96,0,2,,,,,,0,54,64
40512,note_on,,0,0,2,,,,,,0,59,92
40608,note_on,,0,0,2,,,,,,0,54,92
40608,note_off,,96,0,1,,,,,,0,74,64
40608,note_on,,0,0,1,,,,,,0,69,92
40608,note_off,,96,0,2,,,,,,0,59,64
40704,note_on,,0,0,1,,,,,,0,71,92
40704,note_on,,0,0,2,,,,,,0,56,92
40704,note_off,,96,0,1,,,,,,0,69,64
40704,note_off,,96,0,2,,,,,,0,54,64
40800,note_off,,96,0,2,,,,,,0,56,64
40800,note_on,,0,0,2,,,,,,0,54,92
40800,note_on,,0,0,1,,,,,,0,69,92
40800,note_off,,96,0,1,,,,,,0,71,64
40896,note_off,,96,0,2,,,,,,0,54,64
40896,note_on,,0,0,2,,,,,,0,56,92
40896,note_on,,0,0,1,,,,,,0,71,92
40896,note_off,,96,0,1,,,,,,0,69,64
40992,note_on,,0,0,1,,,,,,0,68,92
40992,note_off,,96,0,1,,,,,,0,71,64
40992,note_on,,0,0,2,,,,,,0,52,92
40992,note_off,,96,0,2,,,,,,0,56,64
41088,note_on,,0,0,2,,,,,,0,57,92
41088,note_off,,96,0,2,,,,,,0,52,64
41088,note_on,,0,0,1,,,,,,0,64,92
41088,note_off,,96,0,1,,,,,,0,68,64
41184,note_on,,0,0,1,,,,,,0,72,92
41184,note_off,,96,0,1,,,,,,0,64,64
41184,note_off,,96,0,2,,,,,,0,57,64
41184,note_on,,0,0,2,,,,,,0,52,92
41280,note_off,,96,0,2,,,,,,0,52,64
41280,note_on,,0,0,1,,,,,,0,64,92
41280,note_on,,0,0,2,,,,,,0,59,92
41280,note_off,,96,0,1,,,,,,0,72,64
41376,note_on,,0,0,2,,,,,,0,52,92
41376,note_off,,96,0,2,,,,,,0,59,64
41376,note_on,,0,0,1,,,,,,0,68,92
41376,note_off,,96,0,1,,,,,,0,64,64
41472,note_off,,96,0,1,,,,,,0,68,64
41472,note_on,,0,0,2,,,,,,0,60,92
41472,note_off,,96,0,2,,,,,,0,52,64
41472,note_on,,0,0,1,,,,,,0,64,92
41568,note_off,,96,0,2,,,,,,0,60,64
41568,note_on,,0,0,2,,,,,,0,52,92
41568,note_off,,96,0,1,,,,,,0,64,64
41568,note_on,,0,0,1,,,,,,0,69,92
41664,note_on,,0,0,2,,,,,,0,59,92
41664,note_off,,96,0,1,,,,,,0,69,64
41664,note_on,,0,0,1,,,,,,0,64,92
41664,note_off,,96,0,2,,,,,,0,52,64
41760,note_on,,0,0,1,,,,,,0,68,92
41760,note_off,,96,0,1,,,,,,0,64,64
41760,note_off,,96,0,2,,,,,,0,59,64
41760,note_on,,0,0,2,,,,,,0,52,92
41856,note_on,,0,0,1,,,,,,0,64,92
41856,note_off,,96,0,1,,,,,,0,68,64
41856,note_off,,96,0,2,,,,,,0,52,64
41856,note_on,,0,0,2,,,,,,0,60,92
41952,note_on,,0,0,1,,,,,,0,69,92
41952,note_off,,96,0,2,,,,,,0,60,64
41952,note_on,,0,0,2,,,,,,0,52,92
41952,note_off,,96,0,1,,,,,,0,64,64
42048,note_off,,96,0,2,,,,,,0,52,64
42048,note_off,,96,0,1,,,,,,0,69,64
42048,note_on,,0,0,1,,,,,,0,64,92
42048,note_on,,0,0,2,,,,,,0,62,92
42144,note_off,,96,0,1,,,,,,0,64,64
42144,note_on,,0,0,2,,,,,,0,52,92
42144,note_off,,96,0,2,,,,,,0,62,64
42144,note_on,,0,0,1,,,,,,0,71,92
42240,note_off,,96,0,2,,,,,,0,52,64
42240,note_off,,96,0,1,,,,,,0,71,64
42240,note_on,,0,0,2,,,,,,0,64,92
42240,note_on,,0,0,1,,,,,,0,72,92
42336,note_off,,96,0,1,,,,,,0,72,64
42336,note_on,,0,0,1,,,,,,0,71,92
42336,note_off,,96,0,2,,,,,,0,64,64
42336,note_on,,0,0,2,,,,,,0,56,92
42432,note_off,,96,0,1,,,,,,0,71,64
42432,note_on,,0,0,1,,,,,,0,72,92
42432,note_on,,0,0,2,,,,,,0,57,92
42432,note_off,,96,0,2,,,,,,0,56,64
42528,note_off,,96,0,1,,,,,,0,72,64
42528,note_on,,0,0,2,,,,,,0,59,92
42528,note_off,,96,0,2,,,,,,0,57,64
42528,note_on,,0,0,1,,,,,,0,74,92
42624,note_on,,0,0,2,,,,,,0,52,92
42624,note_off,,96,0,1,,,,,,0,74,64
42624,note_off,,96,0,2,,,,,,0,59,64
42624,note_on,,0,0,1,,,,,,0,72,92
42720,note_on,,0,0,1,,,,,,0,64,92
42720,note_on,,0,0,2,,,,,,0,57,92
42720,note_off,,96,0,1,,,,,,0,72,64
42720,note_off,,96,0,2,,,,,,0,52,64
42816,note_off,,96,0,2,,,,,,0,57,64
42816,note_on,,0,0,2,,,,,,0,52,92
42816,note_on,,0,0,1,,,,,,0,71,92
42816,note_off,,96,0,1,,,,,,0,64,64
42912,note_off,,96,0,2,,,,,,0,52,64
42912,note_on,,0,0,2,,,,,,0,56,92
42912,note_on,,0,0,1,,,,,,0,62,92
42912,note_off,,96,0,1,,,,,,0,71,64
43008,note_on,,0,0,1,,,,,,0,69,92
43008,note_off,,96,0,1,,,,,,0,62,64
43008,note_on,,0,0,1,,,,,,0,60,92
43008,note_on,,6528,0,3,,,,,,0,45,102
43008,note_on,,0,0,2,,,,,,0,57,92
43008,note_on,,0,0,2,,,,,,0,52,92
43008,note_off,,96,0,2,,,,,,0,56,64
43104,note_on,,0,0,3,,,,,,0,44,102
43104,note_off,,96,0,3,,,,,,0,45,64
43200,note_off,,96,0,3,,,,,,0,44,64
43200,note_on,,0,0,3,,,,,,0,45,102
43296,note_off,,96,0,3,,,,,,0,45,64
43296,note_on,,0,0,3,,,,,,0,40,102
43392,note_off,,384,0,1,,,,,,0,60,64
43392,note_off,,96,0,3,,,,,,0,40,64
43392,note_on,,0,0,3,,,,,,0,45,102
43392,note_off,,0,0,2,,,,,,0,52,64
43392,note_off,,384,0,2,,,,,,0,57,64
43392,note_off,,0,0,1,,,,,,0,69,64
43488,note_on,,0,0,3,,,,,,0,40,102
43488,note_off,,96,0,3,,,,,,0,45,64
43584,note_on,,0,0,3,,,,,,0,47,102
43584,note_off,,96,0,3,,,,,,0,40,64
43680,note_on,,0,0,3,,,,,,0,40,102
43680,note_off,,96,0,3,,,,,,0,47,64
43776,note_on,,0,0,3,,,,,,0,48,102
43776,note_off,,96,0,3,,,,,,0,40,64
43776,note_on,,384,0,1,,,,,,0,77,92
43824,note_on,,0,0,1,,,,,,0,76,92
43824,note_off,,48,0,1,,,,,,0,77,64
43872,note_on,,0,0,1,,,,,,0,77,92
43872,note_off,,96,0,3,,,,,,0,48,64
43872,note_on,,0,0,3,,,,,,0,47,102
43872,note_off,,48,0,1,,,,,,0,76,64
43920,note_off,,48,0,1,,,,,,0,77,64
43920,note_on,,0,0,1,,,,,,0,76,92
43968,note_off,,96,0,3,,,,,,0,47,64
43968,note_on,,0,0,3,,,,,,0,48,102
43968,note_on,,0,0,1,,,,,,0,77,92
43968,note_off,,48,0,1,,,,,,0,76,64
44016,note_on,,0,0,1,,,,,,0,76,92
44016,note_off,,48,0,1,,,,,,0,77,64
44064,note_on,,0,0,1,,,,,,0,77,92
44064,note_off,,48,0,1,,,,,,0,76,64
44064,note_on,,0,0,3,,,,,,0,45,102
44064,note_off,,96,0,3,,,,,,0,48,64
44112,note_off,,48,0,1,,,,,,0,77,64
44112,note_on,,0,0,1,,,,,,0,76,92
44160,note_on,,0,0,3,,,,,,0,48,102
44160,note_off,,96,0,3,,,,,,0,45,64
44160,note_on,,0,0,1,,,,,,0,77,92
44160,note_off,,48,0,1,,,,,,0,76,64
44208,note_on,,0,0,1,,,,,,0,76,92
44208,note_off,,48,0,1,,,,,,0,77,64
44256,note_off,,48,0,1,,,,,,0,76,64
44256,note_on,,0,0,1,,,,,,0,77,92
44256,note_off,,96,0,3,,,,,,0,48,64
44256,note_on,,0,0,3,,,,,,0,45,102
44304,note_off,,48,0,1,,,,,,0,77,64
44304,note_on,,0,0,1,,,,,,0,76,92
44352,note_off,,48,0,1,,,,,,0,76,64
44352,note_on,,0,0,1,,,,,,0,77,92
44352,note_off,,96,0,3,,,,,,0,45,64
44352,note_on,,0,0,3,,,,,,0,50,102
44400,note_off,,48,0,1,,,,,,0,77,64
44400,note_on,,0,0,1,,,,,,0,76,92
44448,note_off,,96,0,3,,,,,,0,50,64
44448,note_on,,0,0,3,,,,,,0,45,102
44448,note_on,,0,0,1,,,,,,0,77,92
44448,note_off,,48,0,1,,,,,,0,76,64
44496,note_off,,48,0,1,,,,,,0,77,64
44496,note_on,,0,0,1,,,,,,0,76,92
44544,note_on,,0,0,3,,,,,,0,52,102
44544,note_on,,1152,0,2,,,,,,0,56,92
44544,note_off,,48,0,1,,,,,,0,76,64
44544,note_on,,0,0,1,,,,,,0,77,92
44544,note_off,,96,0,3,,,,,,0,45,64
44592,note_off,,48,0,1,,,,,,0,77,64
44592,note_on,,0,0,1,,,,,,0,76,92
44640,note_off,,48,0,1,,,,,,0,76,64
44640,note_on,,0,0,1,,,,,,0,77,92
44640,note_on,,0,0,2,,,,,,0,54,92
44640,note_off,,96,0,2,,,,,,0,56,64
44688,note_on,,0,0,1,,,,,,0,76,92
44688,note_off,,48,0,1,,,,,,0,77,64
44736,note_on,,0,0,2,,,,,,0,56,92
44736,note_off,,96,0,2,,,,,,0,54,64
44736,note_on,,0,0,1,,,,,,0,77,92
44736,note_off,,48,0,1,,,,,,0,76,64
44784,note_on,,0,0,1,,,,,,0,76,92
44784,note_off,,48,0,1,,,,,,0,77,64
44832,note_off,,96,0,2,,,,,,0,56,64
44832,note_on,,0,0,2,,,,,,0,52,92
44832,note_on,,0,0,1,,,,,,0,77,92
44832,note_off,,48,0,1,,,,,,0,76,64
44880,note_off,,48,0,1,,,,,,0,77,64
44880,note_on,,0,0,1,,,,,,0,76,92
44928,note_on,,0,0,1,,,,,,0,77,92
44928,note_off,,384,0,3,,,,,,0,52,64
44928,note_off,,48,0,1,,,,,,0,76,64
44928,note_on,,0,0,2,,,,,,0,56,92
44928,note_off,,96,0,2,,,,,,0,52,64
44976,note_on,,0,0,1,,,,,,0,76,92
44976,note_off,,48,0,1,,,,,,0,77,64
45024,note_off,,96,0,2,,,,,,0,56,64
45024,note_on,,0,0,2,,,,,,0,52,92
45024,note_off,,48,0,1,,,,,,0,76,64
45024,note_on,,0,0,1,,,,,,0,77,92
45072,note_on,,0,0,1,,,,,,0,76,92
45072,note_off,,48,0,1,,,,,,0,77,64
45120,note_on,,0,0,1,,,,,,0,77,92
45120,note_off,,48,0,1,,,,,,0,76,64
45120,note_on,,0,0,2,,,,,,0,57,92
45120,note_off,,96,0,2,,,,,,0,52,64
45168,note_off,,48,0,1,,,,,,0,77,64
45168,note_on,,0,0,1,,,,,,0,76,92
45216,note_on,,0,0,1,,,,,,0,77,92
45216,note_on,,0,0,2,,,,,,0,52,92
45216,note_off,,96,0,2,,,,,,0,57,64
45216,note_off,,48,0,1,,,,,,0,76,64
45264,note_off,,48,0,1,,,,,,0,77,64
45264,note_on,,0,0,1,,,,,,0,76,92
45312,note_off,,96,0,2,,,,,,0,52,64
45312,note_on,,0,0,2,,,,,,0,59,92
45312,note_on,,0,0,1,,,,,,0,68,92
45312,note_off,,48,0,1,,,,,,0,76,64
45312,note_on,,0,0,1,,,,,,0,77,92
45312,note_on,,384,0,3,,,,,,0,40,102
45360,note_off,,48,0,1,,,,,,0,77,64
45360,note_on,,0,0,1,,,,,,0,76,92
45408,note_on,,0,0,1,,,,,,0,66,92
45408,note_on,,0,0,2,,,,,,0,57,92
45408,note_on,,0,0,1,,,,,,0,77,92
45408,note_off,,0,0,1,,,,,,0,68,64
45408,note_off,,48,0,1,,,,,,0,76,64
45408,note_off,,96,0,2,,,,,,0,59,64
45456,note_on,,0,0,1,,,,,,0,76,92
45456,note_off,,48,0,1,,,,,,0,77,64
45504,note_off,,48,0,1,,,,,,0,76,64
45504,note_off,,0,0,1,,,,,,0,66,64
45504,note_on,,0,0,1,,,,,,0,77,92
45504,note_on,,0,0,1,,,,,,0,68,92
45504,note_off,,96,0,2,,,,,,0,57,64
45504,note_on,,0,0,2,,,,,,0,59,92
45552,note_on,,0,0,1,,,,,,0,76,92
45552,note_off,,48,0,1,,,,,,0,77,64
45600,note_off,,96,0,2,,,,,,0,59,64
45600,note_on,,0,0,1,,,,,,0,77,92
45600,note_off,,0,0,1,,,,,,0,68,64
45600,note_off,,48,0,1,,,,,,0,76,64
45600,note_on,,0,0,2,,,,,,0,56,92
45600,note_on,,0,0,1,,,,,,0,64,92
45648,note_off,,48,0,1,,,,,,0,77,64
45648,note_on,,0,0,1,,,,,,0,76,92
45696,note_off,,96,0,2,,,,,,0,56,64
45696,note_on,,0,0,2,,,,,,0,59,92
45696,note_off,,384,0,3,,,,,,0,40,64
45696,note_on,,0,0,1,,,,,,0,77,92
45696,note_on,,0,0,1,,,,,,0,68,92
45696,note_off,,0,0,1,,,,,,0,64,64
45696,note_off,,48,0,1,,,,,,0,76,64
45744,note_off,,48,0,1,,,,,,0,77,64
45744,note_on,,0,0,1,,,,,,0,76,92
45792,note_off,,0,0,1,,,,,,0,68,64
45792,note_on,,0,0,1,,,,,,0,77,92
45792,note_off,,48,0,1,,,,,,0,76,64
45792,note_on,,0,0,2,,,,,,0,56,92
45792,note_off,,96,0,2,,,,,,0,59,64
45792,note_on,,0,0,1,,,,,,0,64,92
45840,note_off,,48,0,1,,,,,,0,77,64
45840,note_on,,0,0,1,,,,,,0,76,92
45888,note_off,,96,0,2,,,,,,0,56,64
45888,note_on,,0,0,2,,,,,,0,60,92
45888,note_off,,48,0,1,,,,,,0,76,64
45888,note_off,,0,0,1,,,,,,0,64,64
45888,note_on,,0,0,1,,,,,,0,77,92
45888,note_on,,0,0,1,,,,,,0,69,92
45936,note_on,,0,0,1,,,,,,0,76,92
45936,note_off,,48,0,1,,,,,,0,77,64
45984,note_on,,0,0,2,,,,,,0,57,92
45984,note_off,,48,0,1,,,,,,0,76,64
45984,note_off,,0,0,1,,,,,,0,69,64
45984,note_on,,0,0,1,,,,,,0,77,92
45984,note_on,,0,0,1,,,,,,0,64,92
45984,note_off,,96,0,2,,,,,,0,60,64
46032,note_off,,48,0,1,,,,,,0,77,64
46032,note_on,,0,0,1,,,,,,0,76,92
46080,note_off,,48,0,1,,,,,,0,76,64
46080,note_on,,0,0,1,,,,,,0,77,92
46080,note_on,,0,0,1,,,,,,0,71,92
46080,note_on,,0,0,2,,,,,,0,62,92
46080,note_on,,384,0,3,,,,,,0,52,102
46080,note_off,,96,0,2,,,,,,0,57,64
46080,note_off,,0,0,1,,,,,,0,64,64
46128,note_on,,0,0,1,,,,,,0,76,92
46128,note_off,,48,0,1,,,,,,0,77,64
46176,note_off,,48,0,1,,,,,,0,76,64
46176,note_off,,0,0,1,,,,,,0,71,64
46176,note_on,,0,0,1,,,,,,0,77,92
46176,note_on,,0,0,1,,,,,,0,69,92
46176,note_on,,0,0,2,,,,,,0,60,92
46176,note_off,,96,0,2,,,,,,0,62,64
46224,note_off,,48,0,1,,,,,,0,77,64
46224,note_on,,0,0,1,,,,,,0,76,92
46272,note_off,,48,0,1,,,,,,0,76,64
46272,note_on,,0,0,1,,,,,,0,77,92
46272,note_on,,0,0,1,,,,,,0,71,92
46272,note_off,,96,0,2,,,,,,0,60,64
46272,note_on,,0,0,2,,,,,,0,62,92
46272,note_off,,0,0,1,,,,,,0,69,64
46320,note_off,,48,0,1,,,,,,0,77,64
46320,note_on,,0,0,1,,,,,,0,76,92
46368,note_off,,96,0,2,,,,,,0,62,64
46368,note_on,,0,0,2,,,,,,0,59,92
46368,note_on,,0,0,1,,,,,,0,77,92
46368,note_off,,48,0,1,,,,,,0,76,64
46368,note_on,,0,0,1,,,,,,0,66,92
46368,note_off,,0,0,1,,,,,,0,71,64
46416,note_off,,48,0,1,,,,,,0,77,64
46416,note_on,,0,0,1,,,,,,0,76,92
46464,note_off,,48,0,1,,,,,,0,76,64
46464,note_on,,0,0,2,,,,,,0,62,92
46464,note_off,,96,0,2,,,,,,0,59,64
46464,note_off,,0,0,1,,,,,,0,66,64
46464,note_on,,0,0,1,,,,,,0,68,92
46464,note_on,,0,0,1,,,,,,0,77,92
46464,note_off,,384,0,3,,,,,,0,52,64
46512,note_on,,0,0,1,,,,,,0,76,92
46512,note_off,,48,0,1,,,,,,0,77,64
46560,note_on,,0,0,1,,,,,,0,77,92
46560,note_off,,0,0,1,,,,,,0,68,64
46560,note_off,,48,0,1,,,,,,0,76,64
46560,note_off,,96,0,2,,,,,,0,62,64
46560,note_on,,0,0,2,,,,,,0,59,92
46560,note_on,,0,0,1,,,,,,0,71,92
46608,note_off,,48,0,1,,,,,,0,77,64
46608,note_on,,0,0,1,,,,,,0,76,92
46656,note_on,,0,0,2,,,,,,0,64,92
46656,note_off,,96,0,2,,,,,,0,59,64
46656,note_on,,0,0,1,,,,,,0,77,92
46656,note_on,,0,0,1,,,,,,0,69,92
46656,note_off,,0,0,1,,,,,,0,71,64
46656,note_off,,48,0,1,,,,,,0,76,64
46704,note_on,,0,0,1,,,,,,0,76,92
46704,note_off,,48,0,1,,,,,,0,77,64
46752,note_off,,96,0,2,,,,,,0,64,64
46752,note_on,,0,0,1,,,,,,0,68,92
46752,note_on,,0,0,1,,,,,,0,77,92
46752,note_off,,48,0,1,,,,,,0,76,64
46752,note_on,,0,0,2,,,,,,0,59,92
46752,note_off,,0,0,1,,,,,,0,69,64
46800,note_on,,0,0,1,,,,,,0,76,92
46800,note_off,,48,0,1,,,,,,0,77,64
46848,note_on,,0,0,1,,,,,,0,77,92
46848,note_on,,0,0,2,,,,,,0,60,92
46848,note_off,,96,0,2,,,,,,0,59,64
46848,note_on,,0,0,1,,,,,,0,69,92
46848,note_off,,0,0,1,,,,,,0,68,64
46848,note_off,,48,0,1,,,,,,0,76,64
46848,note_on,,384,0,3,,,,,,0,45,102
46896,note_on,,0,0,1,,,,,,0,76,92
46896,note_off,,48,0,1,,,,,,0,77,64
46944,note_off,,96,0,2,,,,,,0,60,64
46944,note_on,,0,0,2,,,,,,0,59,92
46944,note_on,,0,0,1,,,,,,0,77,92
46944,note_off,,48,0,1,,,,,,0,76,64
46992,note_on,,0,0,1,,,,,,0,76,92
46992,note_off,,48,0,1,,,,,,0,77,64
47040,note_off,,48,0,1,,,,,,0,76,64
47040,note_off,,0,0,1,,,,,,0,69,64
47040,note_on,,0,0,1,,,,,,0,72,92
47040,note_on,,0,0,1,,,,,,0,69,92
47040,note_on,,0,0,1,,,,,,0,76,92
47040,note_on,,0,0,2,,,,,,0,60,92
47040,note_off,,96,0,2,,,,,,0,59,64
47040,note_off,,192,0,3,,,,,,0,45,64
47040,note_on,,0,0,3,,,,,,0,57,102
47136,note_on,,0,0,2,,,,,,0,57,92
47136,note_off,,96,0,2,,,,,,0,60,64
47232,note_on,,0,0,2,,,,,,0,60,92
47232,note_on,,0,0,3,,,,,,0,50,102
47232,note_on,,0,0,1,,,,,,0,77,92
47232,note_off,,96,0,2,,,,,,0,57,64
47232,note_on,,0,0,1,,,,,,0,74,92
47232,note_on,,0,0,1,,,,,,0,69,92
47232,note_off,,0,0,1,,,,,,0,72,64
47232,note_off,,0,0,1,,,,,,0,69,64
47232,note_off,,192,0,1,,,,,,0,76,64
47232,note_off,,192,0,3,,,,,,0,57,64
47328,note_on,,0,0,2,,,,,,0,57,92
47328,note_off,,96,0,2,,,,,,0,60,64
47424,note_off,,96,0,2,,,,,,0,57,64
47424,note_on,,0,0,1,,,,,,0,62,92
47424,note_on,,0,0,1,,,,,,0,69,92
47424,note_on,,0,0,1,,,,,,0,65,92
47424,note_off,,0,0,1,,,,,,0,69,64
47424,note_off,,0,0,1,,,,,,0,74,64
47424,note_off,,192,0,1,,,,,,0,77,64
47424,note_on,,0,0,2,,,,,,0,62,92
47520,note_off,,96,0,2,,,,,,0,62,64
47520,note_on,,0,0,2,,,,,,0,57,92
47616,note_off,,384,0,3,,,,,,0,50,64
47616,note_off,,0,0,1,,,,,,0,62,64
47616,note_on,,0,0,1,,,,,,0,62,92
47616,note_on,,0,0,1,,,,,,0,65,92
47616,note_on,,0,0,1,,,,,,0,67,92
47616,note_off,,0,0,1,,,,,,0,65,64
47616,note_off,,192,0,1,,,,,,0,69,64
47616,note_on,,0,0,2,,,,,,0,59,92
47616,note_off,,96,0,2,,,,,,0,57,64
47712,note_on,,0,0,2,,,,,,0,57,92
47712,note_off,,96,0,2,,,,,,0,59,64
47808,note_on,,0,0,1,,,,,,0,74,92
47808,note_on,,0,0,1,,,,,,0,65,92
47808,note_off,,0,0,1,,,,,,0,65,64
47808,note_off,,192,0,1,,,,,,0,67,64
47808,note_on,,192,0,3,,,,,,0,55,102
47808,note_off,,0,0,1,,,,,,0,62,64
47808,note_on,,0,0,1,,,,,,0,67,92
47808,note_off,,96,0,2,,,,,,0,57,64
47808,note_on,,0,0,2,,,,,,0,59,92
47904,note_off,,96,0,2,,,,,,0,59,64
47904,note_on,,0,0,2,,,,,,0,55,92
48000,note_on,,0,0,2,,,,,,0,59,92
48000,note_off,,96,0,2,,,,,,0,55,64
48000,note_on,,0,0,1,,,,,,0,67,92
48000,note_off,,192,0,3,,,,,,0,55,64
48000,note_on,,0,0,3,,,,,,0,48,102
48000,note_off,,192,0,1,,,,,,0,65,64
48000,note_off,,0,0,1,,,,,,0,67,64
48000,note_off,,0,0,1,,,,,,0,74,64
48000,note_on,,0,0,1,,,,,,0,64,92
48000,note_on,,0,0,1,,,,,,0,76,92
48096,note_on,,0,0,2,,,,,,0,55,92
48096,note_off,,96,0,2,,,,,,0,59,64
48192,note_on,,0,0,1,,,,,,0,60,92
48192,note_off,,0,0,1,,,,,,0,64,64
48192,note_off,,0,0,1,,,,,,0,67,64
48192,note_on,,0,0,1,,,,,,0,64,92
48192,note_off,,96,0,2,,,,,,0,55,64
48192,note_on,,0,0,2,,,,,,0,60,92
48192,note_off,,192,0,1,,,,,,0,76,64
48192,note_on,,0,0,1,,,,,,0,67,92
48288,note_on,,0,0,2,,,,,,0,55,92
48288,note_off,,96,0,2,,,,,,0,60,64
48384,note_off,,0,0,1,,,,,,0,64,64
48384,note_off,,0,0,1,,,,,,0,60,64
48384,note_on,,0,0,1,,,,,,0,65,92
48384,note_on,,0,0,2,,,,,,0,57,92
48384,note_on,,0,0,1,,,,,,0,60,92
48384,note_off,,384,0,3,,,,,,0,48,64
48384,note_off,,96,0,2,,,,,,0,55,64
48384,note_off,,192,0,1,,,,,,0,67,64
48384,note_on,,0,0,1,,,,,,0,64,92
48480,note_off,,96,0,2,,,,,,0,57,64
48480,note_on,,0,0,2,,,,,,0,55,92
48576,note_off,,96,0,2,,,,,,0,55,64
48576,note_on,,0,0,2,,,,,,0,57,92
48576,note_on,,192,0,3,,,,,,0,53,102
48576,note_off,,192,0,1,,,,,,0,60,64
48576,note_off,,0,0,1,,,,,,0,65,64
48576,note_on,,0,0,1,,,,,,0,72,92
48576,note_on,,0,0,1,,,,,,0,64,92
48576,note_on,,0,0,1,,,,,,0,69,92
48576,note_off,,0,0,1,,,,,,0,64,64
48672,note_off,,96,0,2,,,,,,0,57,64
48672,note_on,,0,0,2,,,,,,0,53,92
48768,note_off,,96,0,2,,,,,,0,53,64
48768,note_off,,0,0,1,,,,,,0,69,64
48768,note_on,,0,0,3,,,,,,0,47,102
48768,note_off,,192,0,3,,,,,,0,53,64
48768,note_on,,0,0,2,,,,,,0,57,92
48768,note_on,,0,0,1,,,,,,0,62,92
48768,note_on,,0,0,1,,,,,,0,71,92
48768,note_on,,0,0,1,,,,,,0,74,92
48768,note_off,,192,0,1,,,,,,0,64,64
48768,note_off,,0,0,1,,,,,,0,72,64
48864,note_off,,96,0,2,,,,,,0,57,64
48864,note_on,,0,0,2,,,,,,0,54,92
48960,note_on,,0,0,1,,,,,,0,65,92
48960,note_on,,0,0,1,,,,,,0,59,92
48960,note_off,,0,0,1,,,,,,0,62,64
48960,note_off,,0,0,1,,,,,,0,71,64
48960,note_on,,0,0,1,,,,,,0,62,92
48960,note_off,,96,0,2,,,,,,0,54,64
48960,note_on,,0,0,2,,,,,,0,59,92
48960,note_off,,192,0,1,,,,,,0,74,64
49056,note_off,,96,0,2,,,,,,0,59,64
49056,note_on,,0,0,2,,,,,,0,57,92
49152,note_on,,0,0,1,,,,,,0,62,92
49152,note_off,,192,0,1,,,,,,0,65,64
49152,note_off,,0,0,1,,,,,,0,62,64
49152,note_off,,0,0,1,,,,,,0,59,64
49152,note_on,,0,0,1,,,,,,0,59,92
49152,note_on,,0,0,1,,,,,,0,64,92
49152,note_off,,96,0,2,,,,,,0,57,64
49152,note_on,,0,0,2,,,,,,0,56,92
49152,note_off,,384,0,3,,,,,,0,47,64
49248,note_on,,0,0,2,,,,,,0,54,92
49248,note_off,,96,0,2,,,,,,0,56,64
49344,note_on,,0,0,2,,,,,,0,56,92
49344,note_off,,96,0,2,,,,,,0,54,64
49344,note_on,,192,0,3,,,,,,0,52,102
49440,note_on,,0,0,2,,,,,,0,52,92
49440,note_off,,96,0,2,,,,,,0,56,64
49536,note_off,,0,0,1,,,,,,0,62,64
49536,note_on,,0,0,2,,,,,,0,56,92
49536,note_off,,96,0,2,,,,,,0,52,64
49536,note_off,,0,0,1,,,,,,0,59,64
49536,note_off,,192,0,3,,,,,,0,52,64
49536,note_on,,0,0,3,,,,,,0,40,102
49536,note_off,,384,0,1,,,,,,0,64,64
49632,note_off,,96,0,2,,,,,,0,56,64
49632,note_on,,0,0,2,,,,,,0,52,92
49728,note_on,,192,0,1,,,,,,0,64,92
49728,note_on,,0,0,1,,,,,,0,69,92
49728,note_on,,0,0,2,,,,,,0,57,92
49728,note_off,,96,0,2,,,,,,0,52,64
49728,note_on,,0,0,1,,,,,,0,72,92
49824,note_off,,96,0,2,,,,,,0,57,64
49824,note_on,,0,0,2,,,,,,0,52,92
49920,note_on,,0,0,2,,,,,,0,59,92
49920,note_off,,96,0,2,,,,,,0,52,64
49920,note_off,,384,0,3,,,,,,0,40,64
49920,note_on,,0,0,1,,,,,,0,64,92
49920,note_off,,0,0,1,,,,,,0,64,64
49920,note_off,,0,0,1,,,,,,0,69,64
49920,note_off,,192,0,1,,,,,,0,72,64
49920,note_on,,0,0,1,,,,,,0,74,92
49920,note_on,,0,0,1,,,,,,0,68,92
50016,note_on,,0,0,2,,,,,,0,57,92
50016,note_off,,96,0,2,,,,,,0,59,64
50112,note_on,,0,0,2,,,,,,0,59,92
50112,note_off,,96,0,2,,,,,,0,57,64
50112,note_on,,192,0,3,,,,,,0,52,102
50208,note_off,,96,0,2,,,,,,0,59,64
50208,note_on,,0,0,2,,,,,,0,52,92
50304,note_off,,0,0,1,,,,,,0,68,64
50304,note_off,,0,0,1,,,,,,0,64,64
50304,note_on,,0,0,3,,,,,,0,40,102
50304,note_off,,192,0,3,,,,,,0,52,64
50304,note_off,,96,0,2,,,,,,0,52,64
50304,note_on,,0,0,2,,,,,,0,59,92
50304,note_off,,384,0,1,,,,,,0,74,64
50400,note_on,,0,0,2,,,,,,0,52,92
50400,note_off,,96,0,2,,,,,,0,59,64
50496,note_off,,96,0,2,,,,,,0,52,64
50496,note_on,,192,0,1,,,,,,0,64,92
50496,note_on,,0,0,1,,,,,,0,69,92
50496,note_on,,0,0,2,,,,,,0,60,92
50496,note_on,,0,0,1,,,,,,0,76,92
50592,note_off,,96,0,2,,,,,,0,60,64
50592,note_on,,0,0,2,,,,,,0,52,92
50688,note_off,,192,0,1,,,,,,0,76,64
50688,note_on,,0,0,1,,,,,,0,68,92
50688,note_off,,0,0,1,,,,,,0,64,64
50688,note_off,,384,0,3,,,,,,0,40,64
50688,note_off,,0,0,1,,,,,,0,69,64
50688,note_on,,0,0,2,,,,,,0,62,92
50688,note_on,,0,0,1,,,,,,0,77,92
50688,note_on,,0,0,1,,,,,,0,71,92
50688,note_off,,96,0,2,,,,,,0,52,64
50784,note_on,,0,0,2,,,,,,0,60,92
50784,note_off,,96,0,2,,,,,,0,62,64
50880,note_on,,192,0,3,,,,,,0,52,102
50880,note_on,,0,0,2,,,,,,0,62,92
50880,note_off,,96,0,2,,,,,,0,60,64
50976,note_on,,0,0,2,,,,,,0,52,92
50976,note_off,,96,0,2,,,,,,0,62,64
51072,note_off,,192,0,3,,,,,,0,52,64
51072,note_off,,0,0,1,,,,,,0,71,64
51072,note_off,,0,0,1,,,,,,0,68,64
51072,note_on,,0,0,3,,,,,,0,40,102
51072,note_on,,0,0,2,,,,,,0,62,92
51072,note_off,,384,0,1,,,,,,0,77,64
51072,note_off,,96,0,2,,,,,,0,52,64
51168,note_on,,0,0,2,,,,,,0,52,92
51168,note_off,,96,0,2,,,,,,0,62,64
51264,note_on,,0,0,1,,,,,,0,76,92
51264,note_on,,0,0,1,,,,,,0,72,92
51264,note_off,,96,0,2,,,,,,0,52,64
51264,note_on,,0,0,2,,,,,,0,64,92
51264,note_on,,192,0,1,,,,,,0,69,92
51360,note_off,,96,0,2,,,,,,0,64,64
51360,note_on,,0,0,2,,,,,,0,57,92
51456,note_off,,96,0,2,,,,,,0,57,64
51456,note_on,,0,0,2,,,,,,0,56,92
51456,note_off,,384,0,3,,,,,,0,40,64
51456,note_on,,0,0,1,,,,,,0,74,92
51456,note_on,,0,0,1,,,,,,0,71,92
51456,note_on,,0,0,1,,,,,,0,64,92
51456,note_off,,0,0,1,,,,,,0,69,64
51456,note_off,,0,0,1,,,,,,0,72,64
51456,note_off,,192,0,1,,,,,,0,76,64
51552,note_off,,96,0,2,,,,,,0,56,64
51552,note_on,,0,0,2,,,,,,0,54,92
51648,note_on,,0,0,2,,,,,,0,56,92
51648,note_off,,96,0,2,,,,,,0,54,64
51648,note_on,,192,0,3,,,,,,0,52,102
51744,note_on,,0,0,2,,,,,,0,52,92
51744,note_off,,96,0,2,,,,,,0,56,64
51840,note_off,,384,0,1,,,,,,0,74,64
51840,note_on,,0,0,2,,,,,,0,59,92
51840,note_off,,96,0,2,,,,,,0,52,64
51840,note_on,,0,0,3,,,,,,0,40,102
51840,note_off,,0,0,1,,,,,,0,71,64
51840,note_off,,192,0,3,,,,,,0,52,64
51840,note_off,,0,0,1,,,,,,0,64,64
51936,note_off,,96,0,2,,,,,,0,59,64
51936,note_on,,0,0,2,,,,,,0,56,92
52032,note_on,,0,0,1,,,,,,0,74,92
52032,note_on,,0,0,1,,,,,,0,71,92
52032,note_on,,192,0,1,,,,,,0,68,92
52032,note_off,,96,0,2,,,,,,0,56,64
52032,note_on,,0,0,2,,,,,,0,64,92
52128,note_on,,96,0,2,,,,,,0,59,92
52224,note_off,,384,0,3,,,,,,0,40,64
52224,note_off,,0,0,1,,,,,,0,68,64
52224,note_off,,192,0,1,,,,,,0,74,64
52224,note_on,,0,0,1,,,,,,0,68,92
52224,note_on,,0,0,2,,,,,,0,60,92
52224,note_on,,0,0,1,,,,,,0,71,92
52224,note_on,,0,0,1,,,,,,0,74,92
52224,note_off,,96,0,2,,,,,,0,59,64
52224,note_off,,0,0,1,,,,,,0,71,64
52320,note_on,,0,0,1,,,,,,0,69,92
52320,note_off,,96,0,1,,,,,,0,71,64
52416,note_on,,0,0,1,,,,,,0,71,92
52416,note_off,,96,0,1,,,,,,0,69,64
52416,note_on,,192,0,3,,,,,,0,57,102
52512,note_on,,0,0,1,,,,,,0,68,92
52512,note_off,,0,0,1,,,,,,0,68,64
52512,note_off,,96,0,1,,,,,,0,71,64
52608,note_off,,384,0,2,,,,,,0,60,64
52608,note_on,,0,0,3,,,,,,0,45,102
52608,note_off,,192,0,3,,,,,,0,57,64
52608,note_off,,96,0,1,,,,,,0,68,64
52608,note_off,,0,0,1,,,,,,0,74,64
52608,note_on,,0,0,1,,,,,,0,69,92
52608,note_on,,0,0,1,,,,,,0,72,92
52704,note_on,,0,0,2,,,,,,0,62,92
52704,note_off,,96,0,2,,,,,,0,64,64
52800,note_off,,96,0,2,,,,,,0,62,64
52800,note_on,,0,0,2,,,,,,0,64,92
52800,note_on,,0,0,2,,,,,,0,57,92
52800,note_off,,0,0,1,,,,,,0,69,64
52800,note_on,,0,0,1,,,,,,0,69,92
52800,note_on,,0,0,1,,,,,,0,72,92
52800,note_off,,192,0,1,,,,,,0,72,64
52896,note_off,,96,0,2,,,,,,0,64,64
52896,note_on,,0,0,2,,,,,,0,60,92
52992,note_off,,96,0,2,,,,,,0,60,64
52992,note_off,,0,0,2,,,,,,0,57,64
52992,note_off,,0,0,1,,,,,,0,69,64
52992,note_off,,384,0,3,,,,,,0,45,64
52992,note_on,,0,0,1,,,,,,0,72,92
52992,note_on,,0,0,1,,,,,,0,69,92
52992,note_on,,0,0,2,,,,,,0,65,92
52992,note_on,,0,0,2,,,,,,0,62,92
52992,note_off,,192,0,1,,,,,,0,72,64
53088,note_on,,0,0,1,,,,,,0,71,92
53088,note_off,,96,0,1,,,,,,0,72,64
53184,note_on,,0,0,1,,,,,,0,72,92
53184,note_off,,96,0,1,,,,,,0,71,64
53184,note_on,,192,0,3,,,,,,0,50,102
53280,note_off,,0,0,1,,,,,,0,69,64
53280,note_on,,0,0,1,,,,,,0,69,92
53280,note_off,,96,0,1,,,,,,0,72,64
53376,note_off,,192,0,3,,,,,,0,50,64
53376,note_on,,0,0,3,,,,,,0,38,102
53376,note_off,,96,0,1,,,,,,0,69,64
53376,note_off,,384,0,2,,,,,,0,62,64
53376,note_off,,0,0,2,,,,,,0,65,64
53376,note_on,,0,0,1,,,,,,0,71,92
53472,note_on,,0,0,1,,,,,,0,66,92
53472,note_off,,96,0,1,,,,,,0,71,64
53568,note_on,,0,0,1,,,,,,0,71,92
53568,note_off,,96,0,1,,,,,,0,66,64
53568,note_off,,192,0,3,,,,,,0,38,64
53568,note_on,,0,0,3,,,,,,0,51,102
53568,note_on,,0,0,2,,,,,,0,59,92
53568,note_on,,192,0,2,,,,,,0,54,92
53664,note_on,,96,0,1,,,,,,0,66,92
53760,note_off,,0,0,2,,,,,,0,54,64
53760,note_on,,0,0,2,,,,,,0,52,92
53760,note_on,,0,0,2,,,,,,0,60,92
53760,note_on,,0,0,3,,,,,,0,52,102
53760,note_off,,192,0,2,,,,,,0,59,64
53760,note_off,,192,0,3,,,,,,0,51,64
53760,note_off,,96,0,1,,,,,,0,66,64
53760,note_on,,0,0,1,,,,,,0,68,92
53856,note_off,,96,0,1,,,,,,0,68,64
53856,note_on,,0,0,1,,,,,,0,64,92
53952,note_off,,192,0,3,,,,,,0,52,64
53952,note_off,,0,0,2,,,,,,0,52,64
53952,note_off,,192,0,2,,,,,,0,60,64
53952,note_on,,0,0,3,,,,,,0,51,102
53952,note_on,,0,0,2,,,,,,0,57,92
53952,note_on,,0,0,2,,,,,,0,60,92
53952,note_off,,96,0,1,,,,,,0,64,64
53952,note_off,,0,0,1,,,,,,0,71,64
53952,note_on,,0,0,1,,,,,,0,66,92
53952,note_on,,0,0,1,,,,,,0,69,92
54048,note_off,,96,0,1,,,,,,0,69,64
54048,note_on,,0,0,1,,,,,,0,71,92
54144,note_off,,192,0,2,,,,,,0,60,64
54144,note_off,,0,0,2,,,,,,0,57,64
54144,note_on,,0,0,2,,,,,,0,52,92
54144,note_on,,0,0,2,,,,,,0,59,92
54144,note_off,,192,0,3,,,,,,0,51,64
54144,note_on,,0,0,3,,,,,,0,52,102
54144,note_on,,0,0,1,,,,,,0,68,92
54144,note_on,,0,0,1,,,,,,0,64,92
54144,note_off,,0,0,1,,,,,,0,66,64
54144,note_off,,96,0,1,,,,,,0,71,64
54336,note_on,,0,0,3,,,,,,0,40,102
54336,note_off,,192,0,3,,,,,,0,52,64
54336,note_off,,192,0,1,,,,,,0,64,64
54336,note_on,,0,0,1,,,,,,0,62,92
54432,note_off,,96,0,1,,,,,,0,68,64
54432,note_on,,0,0,1,,,,,,0,69,92
54528,note_on,,0,0,2,,,,,,0,52,92
54528,note_off,,384,0,2,,,,,,0,59,64
54528,note_on,,0,0,2,,,,,,0,57,92
54528,note_on,,0,0,1,,,,,,0,60,92
54528,note_off,,0,0,1,,,,,,0,62,64
54528,note_on,,0,0,1,,,,,,0,69,92
54528,note_off,,0,0,2,,,,,,0,52,64
54528,note_off,,192,0,3,,,,,,0,40,64
54528,note_on,,0,0,3,,,,,,0,45,102
54528,note_off,,96,0,1,,,,,,0,69,64
54624,note_off,,96,0,1,,,,,,0,69,64
54624,note_on,,0,0,1,,,,,,0,64,92
54720,note_off,,96,0,1,,,,,,0,64,64
54720,note_off,,0,0,1,,,,,,0,60,64
54720,note_on,,0,0,1,,,,,,0,60,92
54816,note_off,,288,0,2,,,,,,0,57,64
54816,note_on,,0,0,2,,,,,,0,56,92
54912,note_off,,0,0,2,,,,,,0,52,64
54912,note_off,,96,0,2,,,,,,0,56,64
54912,note_on,,0,0,2,,,,,,0,57,92
54912,note_off,,384,0,3,,,,,,0,45,64
54912,note_off,,192,0,1,,,,,,0,60,64
55008,note_on,,0,0,2,,,,,,0,52,92
55008,note_off,,96,0,2,,,,,,0,57,64
55104,note_off,,96,0,2,,,,,,0,52,64
55104,note_on,,0,0,2,,,,,,0,48,92
55200,note_off,,96,0,2,,,,,,0,48,64
55200,note_on,,0,0,2,,,,,,0,52,92
55296,note_on,,384,0,1,,,,,,0,72,92
55296,note_off,,96,0,2,,,,,,0,52,64
55296,note_on,,0,0,2,,,,,,0,45,92
55392,note_on,,0,0,1,,,,,,0,71,92
55392,note_off,,96,0,1,,,,,,0,72,64
55488,note_off,,192,0,2,,,,,,0,45,64
55488,note_on,,0,0,1,,,,,,0,72,92
55488,note_off,,96,0,1,,,,,,0,71,64
55584,note_off,,96,0,1,,,,,,0,72,64
55584,note_on,,0,0,1,,,,,,0,69,92
55680,note_on,,0,0,1,,,,,,0,76,92
55680,note_off,,96,0,1,,,,,,0,69,64
55680,note_on,,192,0,2,,,,,,0,60,92
55776,note_off,,96,0,2,,,,,,0,60,64
55776,note_on,,0,0,2,,,,,,0,59,92
55776,note_on,,0,0,1,,,,,,0,69,92
55776,note_off,,96,0,1,,,,,,0,76,64
55872,note_off,,96,0,2,,,,,,0,59,64
55872,note_on,,0,0,2,,,,,,0,60,92
55872,note_off,,96,0,1,,,,,,0,69,64
55872,note_on,,0,0,1,,,,,,0,81,92
55968,note_off,,96,0,1,,,,,,0,81,64
55968,note_off,,96,0,2,,,,,,0,60,64
55968,note_on,,0,0,2,,,,,,0,57,92
55968,note_on,,0,0,1,,,,,,0,76,92
56064,note_off,,96,0,1,,,,,,0,76,64
56064,note_off,,96,0,2,,,,,,0,57,64
56064,note_on,,0,0,2,,,,,,0,62,92
56064,note_on,,0,0,1,,,,,,0,77,92
56160,note_on,,96,0,1,,,,,,0,73,92
56256,note_off,,192,0,2,,,,,,0,62,64
56256,note_on,,0,0,1,,,,,,0,74,92
56256,note_off,,96,0,1,,,,,,0,73,64
56352,note_on,,96,0,1,,,,,,0,69,92
56448,note_on,,192,0,2,,,,,,0,65,92
56544,note_off,,96,0,2,,,,,,0,65,64
56544,note_on,,0,0,2,,,,,,0,62,92
56640,note_off,,0,0,1,,,,,,0,77,64
56640,note_off,,0,0,1,,,,,,0,74,64
56640,note_off,,288,0,1,,,,,,0,69,64
56640,note_on,,0,0,2,,,,,,0,69,92
56640,note_off,,96,0,2,,,,,,0,62,64
56736,note_off,,96,0,2,,,,,,0,69,64
56736,note_on,,0,0,2,,,,,,0,57,92
56832,note_on,,192,0,1,,,,,,0,65,92
56832,note_off,,96,0,2,,,,,,0,57,64
56832,note_on,,0,0,2,,,,,,0,62,92
56928,note_on,,0,0,1,,,,,,0,64,92
56928,note_off,,96,0,1,,,,,,0,65,64
57024,note_on,,0,0,2,,,,,,0,50,92
57024,note_off,,192,0,2,,,,,,0,62,64
57024,note_off,,96,0,1,,,,,,0,64,64
57024,note_on,,0,0,1,,,,,,0,65,92
57120,note_off,,96,0,1,,,,,,0,65,64
57120,note_on,,0,0,1,,,,,,0,62,92
57216,note_on,,0,0,2,,,,,,0,53,92
57216,note_off,,96,0,1,,,,,,0,62,64
57216,note_on,,0,0,1,,,,,,0,69,92
57216,note_off,,192,0,2,,,,,,0,50,64
57312,note_off,,96,0,2,,,,,,0,53,64
57312,note_on,,0,0,2,,,,,,0,52,92
57312,note_off,,96,0,1,,,,,,0,69,64
57312,note_on,,0,0,1,,,,,,0,62,92
57408,note_off,,96,0,1,,,,,,0,62,64
57408,note_on,,0,0,1,,,,,,0,74,92
57408,note_on,,0,0,2,,,,,,0,53,92
57408,note_off,,96,0,2,,,,,,0,52,64
57504,note_off,,96,0,2,,,,,,0,53,64
57504,note_on,,0,0,2,,,,,,0,50,92
57504,note_off,,96,0,1,,,,,,0,74,64
57504,note_on,,0,0,1,,,,,,0,69,92
57600,note_off,,96,0,2,,,,,,0,50,64
57600,note_on,,0,0,2,,,,,,0,55,92
57600,note_on,,0,0,1,,,,,,0,71,92
57600,note_off,,96,0,1,,,,,,0,69,64
57696,note_on,,96,0,1,,,,,,0,66,92
57792,note_off,,192,0,2,,,,,,0,55,64
57792,note_off,,96,0,1,,,,,,0,66,64
57792,note_on,,0,0,1,,,,,,0,67,92
57888,note_on,,96,0,1,,,,,,0,62,92
57984,note_on,,192,0,2,,,,,,0,59,92
58080,note_on,,0,0,2,,,,,,0,55,92
58080,note_off,,96,0,2,,,,,,0,59,64
58176,note_off,,288,0,1,,,,,,0,62,64
58176,note_off,,0,0,1,,,,,,0,71,64
58176,note_off,,96,0,2,,,,,,0,55,64
58176,note_on,,0,0,2,,,,,,0,62,92
58176,note_off,,0,0,1,,,,,,0,67,64
58272,note_on,,0,0,2,,,,,,0,50,92
58272,note_off,,96,0,2,,,,,,0,62,64
58368,note_on,,192,0,1,,,,,,0,71,92
58368,note_on,,0,0,2,,,,,,0,55,92
58368,note_off,,96,0,2,,,,,,0,50,64
58464,note_on,,0,0,1,,,,,,0,69,92
58464,note_off,,96,0,1,,,,,,0,71,64
58560,note_on,,0,0,2,,,,,,0,43,92
58560,note_off,,192,0,2,,,,,,0,55,64
58560,note_off,,96,0,1,,,,,,0,69,64
58560,note_on,,0,0,1,,,,,,0,71,92
58656,note_on,,0,0,1,,,,,,0,67,92
58656,note_off,,96,0,1,,,,,,0,71,64
58752,note_off,,192,0,2,,,,,,0,43,64
58752,note_on,,0,0,1,,,,,,0,74,92
58752,note_off,,96,0,1,,,,,,0,67,64
58752,note_on,,0,0,2,,,,,,0,59,92
58848,note_off,,96,0,2,,,,,,0,59,64
58848,note_on,,0,0,1,,,,,,0,67,92
58848,note_off,,96,0,1,,,,,,0,74,64
58848,note_on,,0,0,2,,,,,,0,57,92
58944,note_off,,96,0,2,,,,,,0,57,64
58944,note_on,,0,0,2,,,,,,0,59,92
58944,note_on,,0,0,1,,,,,,0,79,92
58944,note_off,,96,0,1,,,,,,0,67,64
59040,note_off,,96,0,1,,,,,,0,79,64
59040,note_on,,0,0,1,,,,,,0,74,92
59040,note_off,,96,0,2,,,,,,0,59,64
59040,note_on,,0,0,2,,,,,,0,55,92
59136,note_on,,0,0,1,,,,,,0,76,92
59136,note_off,,96,0,2,,,,,,0,55,64
59136,note_off,,96,0,1,,,,,,0,74,64
59136,note_on,,0,0,2,,,,,,0,60,92
59232,note_on,,96,0,1,,,,,,0,71,92
59328,note_off,,96,0,1,,,,,,0,71,64
59328,note_on,,0,0,1,,,,,,0,72,92
59328,note_off,,192,0,2,,,,,,0,60,64
59424,note_on,,96,0,1,,,,,,0,67,92
59520,note_on,,192,0,2,,,,,,0,64,92
59616,note_on,,0,0,2,,,,,,0,60,92
59616,note_off,,96,0,2,,,,,,0,64,64
59712,note_off,,96,0,2,,,,,,0,60,64
59712,note_off,,0,0,1,,,,,,0,76,64
59712,note_off,,0,0,1,,,,,,0,72,64
59712,note_on,,0,0,2,,,,,,0,67,92
59712,note_off,,288,0,1,,,,,,0,67,64
59808,note_on,,0,0,2,,,,,,0,55,92
59808,note_off,,96,0,2,,,,,,0,67,64
59904,note_off,,96,0,2,,,,,,0,55,64
59904,note_on,,0,0,2,,,,,,0,60,92
59904,note_on,,192,0,1,,,,,,0,64,92
60000,note_off,,96,0,1,,,,,,0,64,64
60000,note_on,,0,0,1,,,,,,0,62,92
60096,note_off,,192,0,2,,,,,,0,60,64
60096,note_on,,0,0,2,,,,,,0,48,92
60096,note_off,,96,0,1,,,,,,0,62,64
60096,note_on,,0,0,1,,,,,,0,64,92
60192,note_on,,0,0,1,,,,,,0,60,92
60192,note_off,,96,0,1,,,,,,0,64,64
60288,note_on,,0,0,2,,,,,,0,52,92
60288,note_off,,192,0,2,,,,,,0,48,64
60288,note_off,,96,0,1,,,,,,0,60,64
60288,note_on,,0,0,1,,,,,,0,67,92
60384,note_on,,0,0,1,,,,,,0,60,92
60384,note_on,,0,0,2,,,,,,0,50,92
60384,note_off,,96,0,2,,,,,,0,52,64
60384,note_off,,96,0,1,,,,,,0,67,64
60480,note_off,,96,0,1,,,,,,0,60,64
60480,note_on,,0,0,2,,,,,,0,52,92
60480,note_off,,96,0,2,,,,,,0,50,64
60480,note_on,,0,0,1,,,,,,0,72,92
60576,note_on,,0,0,1,,,,,,0,67,92
60576,note_on,,0,0,2,,,,,,0,48,92
60576,note_off,,96,0,2,,,,,,0,52,64
60576,note_off,,96,0,1,,,,,,0,72,64
60672,note_off,,96,0,2,,,,,,0,48,64
60672,note_off,,96,0,1,,,,,,0,67,64
60672,note_on,,0,0,2,,,,,,0,53,92
60672,note_on,,0,0,1,,,,,,0,69,92
60768,note_on,,96,0,1,,,,,,0,64,92
60864,note_off,,96,0,1,,,,,,0,64,64
60864,note_on,,0,0,1,,,,,,0,65,92
60864,note_off,,192,0,2,,,,,,0,53,64
60960,note_on,,96,0,1,,,,,,0,60,92
61056,note_on,,192,0,2,,,,,,0,57,92
61152,note_on,,0,0,2,,,,,,0,53,92
61152,note_off,,96,0,2,,,,,,0,57,64
61248,note_off,,96,0,2,,,,,,0,53,64
61248,note_on,,0,0,2,,,,,,0,60,92
61248,note_off,,288,0,1,,,,,,0,60,64
61248,note_off,,0,0,1,,,,,,0,65,64
61248,note_off,,0,0,1,,,,,,0,69,64
61344,note_off,,96,0,2,,,,,,0,60,64
61344,note_on,,0,0,2,,,,,,0,48,92
61440,note_on,,0,0,2,,,,,,0,53,92
61440,note_on,,192,0,1,,,,,,0,69,92
61440,note_off,,96,0,2,,,,,,0,48,64
61536,note_on,,0,0,1,,,,,,0,67,92
61536,note_off,,96,0,1,,,,,,0,69,64
61632,note_off,,192,0,2,,,,,,0,53,64
61632,note_on,,0,0,2,,,,,,0,41,92
61632,note_off,,96,0,1,,,,,,0,67,64
61632,note_on,,0,0,1,,,,,,0,69,92
61728,note_off,,96,0,1,,,,,,0,69,64
61728,note_on,,0,0,1,,,,,,0,65,92
61824,note_off,,96,0,1,,,,,,0,65,64
61824,note_on,,0,0,1,,,,,,0,72,92
61824,note_on,,0,0,2,,,,,,0,57,92
61824,note_off,,192,0,2,,,,,,0,41,64
61920,note_on,,0,0,2,,,,,,0,55,92
61920,note_on,,0,0,1,,,,,,0,65,92
61920,note_off,,96,0,1,,,,,,0,72,64
61920,note_off,,96,0,2,,,,,,0,57,64
62016,note_off,,96,0,1,,,,,,0,65,64
62016,note_on,,0,0,1,,,,,,0,77,92
62016,note_on,,0,0,2,,,,,,0,57,92
62016,note_off,,96,0,2,,,,,,0,55,64
62112,note_on,,0,0,2,,,,,,0,53,92
62112,note_on,,0,0,1,,,,,,0,72,92
62112,note_off,,96,0,1,,,,,,0,77,64
62112,note_off,,96,0,2,,,,,,0,57,64
62208,note_off,,96,0,2,,,,,,0,53,64
62208,note_on,,0,0,1,,,,,,0,74,92
62208,note_off,,96,0,1,,,,,,0,72,64
62208,note_on,,0,0,2,,,,,,0,47,92
62304,note_on,,96,0,1,,,,,,0,69,92
62400,note_off,,96,0,1,,,,,,0,69,64
62400,note_off,,192,0,2,,,,,,0,47,64
62400,note_on,,0,0,2,,,,,,0,50,92
62400,note_on,,0,0,1,,,,,,0,71,92
62496,note_on,,96,0,1,,,,,,0,66,92
62592,note_off,,192,0,2,,,,,,0,50,64
62592,note_off,,96,0,1,,,,,,0,66,64
62592,note_on,,0,0,1,,,,,,0,68,92
62592,note_on,,0,0,2,,,,,,0,52,92
62688,note_off,,96,0,2,,,,,,0,52,64
62688,note_on,,0,0,2,,,,,,0,62,92
62784,note_off,,96,0,2,,,,,,0,62,64
62784,note_on,,0,0,2,,,,,,0,64,92
62880,note_off,,96,0,2,,,,,,0,64,64
62880,note_on,,0,0,2,,,,,,0,59,92
62976,note_off,,96,0,2,,,,,,0,59,64
62976,note_on,,0,0,2,,,,,,0,60,92
63072,note_off,,96,0,2,,,,,,0,60,64
63072,note_on,,0,0,2,,,,,,0,56,92
63168,note_on,,0,0,2,,,,,,0,59,92
63168,note_on,,0,0,1,,,,,,0,72,92
63168,note_on,,0,0,1,,,,,,0,69,92
63168,note_on,,0,0,1,,,,,,0,64,92
63168,note_off,,0,0,1,,,,,,0,74,64
63168,note_off,,0,0,1,,,,,,0,71,64
63168,note_off,,576,0,1,,,,,,0,68,64
63168,note_off,,96,0,2,,,,,,0,56,64
63264,note_off,,96,0,2,,,,,,0,59,64
63264,note_on,,0,0,2,,,,,,0,50,92
63360,note_off,,0,0,1,,,,,,0,69,64
63360,note_off,,0,0,1,,,,,,0,64,64
63360,note_on,,0,0,2,,,,,,0,52,92
63360,note_on,,0,0,1,,,,,,0,64,92
63360,note_off,,192,0,1,,,,,,0,72,64
63360,note_off,,96,0,2,,,,,,0,50,64
63456,note_on,,96,0,1,,,,,,0,69,92
63552,note_off,,192,0,2,,,,,,0,52,64
63552,note_on,,96,0,1,,,,,,0,71,92
63552,note_on,,0,0,2,,,,,,0,52,92
63648,note_on,,0,0,1,,,,,,0,68,92
63648,note_off,,96,0,1,,,,,,0,69,64
63744,note_off,,96,0,1,,,,,,0,68,64
63744,note_on,,0,0,2,,,,,,0,57,92
63744,note_off,,192,0,2,,,,,,0,52,64
63744,note_off,,0,0,1,,,,,,0,71,64
63744,note_off,,0,0,1,,,,,,0,64,64
63744,note_on,,0,0,1,,,,,,0,69,92
63840,note_on,,96,0,1,,,,,,0,64,92
63936,note_on,,96,0,1,,,,,,0,60,92
64032,note_off,,288,0,2,,,,,,0,57,64
64032,note_on,,0,0,2,,,,,,0,56,92
64128,note_on,,0,0,2,,,,,,0,57,92
64128,note_off,,96,0,2,,,,,,0,56,64
64224,note_on,,0,0,2,,,,,,0,52,92
64224,note_off,,96,0,2,,,,,,0,57,64
64320,note_on,,0,0,2,,,,,,0,48,92
64320,note_off,,96,0,2,,,,,,0,52,64
64320,note_off,,384,0,1,,,,,,0,60,64
64320,note_off,,0,0,1,,,,,,0,64,64
64320,note_off,,0,0,1,,,,,,0,69,64
64416,note_off,,96,0,2,,,,,,0,48,64
64416,note_on,,0,0,2,,,,,,0,52,92
64512,note_on,,9600,0,3,,,,,,0,57,102
64512,note_on,,0,0,2,,,,,,0,45,92
64512,note_off,,96,0,2,,,,,,0,52,64
64608,note_on,,288,0,1,,,,,,0,76,92
64704,note_off,,96,0,1,,,,,,0,76,64
64704,note_off,,192,0,2,,,,,,0,45,64
64704,note_on,,0,0,1,,,,,,0,77,92
64704,note_off,,192,0,3,,,,,,0,57,64
64704,note_on,,0,0,3,,,,,,0,55,102
64800,note_off,,96,0,1,,,,,,0,77,64
64800,note_on,,0,0,1,,,,,,0,79,92
64896,note_on,,0,0,1,,,,,,0,81,92
64896,note_on,,0,0,3,,,,,,0,53,102
64896,note_off,,192,0,3,,,,,,0,55,64
64896,note_off,,96,0,1,,,,,,0,79,64
64992,note_on,,96,0,1,,,,,,0,74,92
65088,note_on,,0,0,1,,,,,,0,79,92
65088,note_on,,0,0,3,,,,,,0,52,102
65088,note_off,,192,0,3,,,,,,0,53,64
65088,note_off,,96,0,1,,,,,,0,74,64
65088,note_off,,0,0,1,,,,,,0,81,64
65184,note_on,,96,0,1,,,,,,0,73,92
65280,note_off,,96,0,1,,,,,,0,73,64
65280,note_on,,0,0,1,,,,,,0,77,92
65280,note_on,,0,0,1,,,,,,0,74,92
65280,note_off,,0,0,1,,,,,,0,79,64
65280,note_on,,0,0,3,,,,,,0,50,102
65280,note_off,,192,0,3,,,,,,0,52,64
65376,note_on,,672,0,2,,,,,,0,69,92
65472,note_off,,96,0,2,,,,,,0,69,64
65472,note_on,,0,0,2,,,,,,0,70,92
65472,note_off,,192,0,3,,,,,,0,50,64
65472,note_on,,0,0,3,,,,,,0,48,102
65568,note_off,,96,0,2,,,,,,0,70,64
65568,note_on,,0,0,2,,,,,,0,72,92
65664,note_off,,0,0,1,,,,,,0,74,64
65664,note_off,,384,0,1,,,,,,0,77,64
65664,note_on,,0,0,3,,,,,,0,46,102
65664,note_off,,192,0,3,,,,,,0,48,64
65664,note_on,,0,0,2,,,,,,0,74,92
65664,note_off,,96,0,2,,,,,,0,72,64
65760,note_on,,96,0,2,,,,,,0,67,92
65856,note_off,,0,0,2,,,,,,0,74,64
65856,note_off,,96,0,2,,,,,,0,67,64
65856,note_on,,0,0,3,,,,,,0,45,102
65856,note_off,,192,0,3,,,,,,0,46,64
65856,note_on,,0,0,2,,,,,,0,72,92
65952,note_on,,96,0,2,,,,,,0,66,92
66048,note_on,,0,0,2,,,,,,0,67,92
66048,note_off,,96,0,2,,,,,,0,66,64
66048,note_on,,0,0,3,,,,,,0,55,102
66048,note_off,,192,0,3,,,,,,0,45,64
66048,note_on,,0,0,2,,,,,,0,70,92
66048,note_off,,0,0,2,,,,,,0,72,64
66144,note_on,,480,0,1,,,,,,0,74,92
66240,note_off,,192,0,3,,,,,,0,55,64
66240,note_on,,0,0,3,,,,,,0,53,102
66240,note_on,,0,0,1,,,,,,0,76,92
66240,note_off,,96,0,1,,,,,,0,74,64
66336,note_on,,0,0,1,,,,,,0,77,92
66336,note_off,,96,0,1,,,,,,0,76,64
66432,note_off,,192,0,3,,,,,,0,53,64
66432,note_off,,384,0,2,,,,,,0,70,64
66432,note_off,,0,0,2,,,,,,0,67,64
66432,note_on,,0,0,3,,,,,,0,52,102
66432,note_off,,96,0,1,,,,,,0,77,64
66432,note_on,,0,0,1,,,,,,0,79,92
66528,note_on,,96,0,1,,,,,,0,72,92
66624,note_off,,192,0,3,,,,,,0,52,64
66624,note_on,,0,0,3,,,,,,0,50,102
66624,note_off,,96,0,1,,,,,,0,72,64
66624,note_off,,0,0,1,,,,,,0,79,64
66624,note_on,,0,0,1,,,,,,0,77,92
66720,note_on,,96,0,1,,,,,,0,71,92
66816,note_off,,0,0,1,,,,,,0,77,64
66816,note_off,,96,0,1,,,,,,0,71,64
66816,note_on,,0,0,1,,,,,,0,76,92
66816,note_on,,0,0,3,,,,,,0,48,102
66816,note_off,,192,0,3,,,,,,0,50,64
66816,note_on,,0,0,1,,,,,,0,72,92
66912,note_on,,480,0,2,,,,,,0,67,92
67008,note_on,,0,0,3,,,,,,0,46,102
67008,note_off,,192,0,3,,,,,,0,48,64
67008,note_on,,0,0,2,,,,,,0,69,92
67008,note_off,,96,0,2,,,,,,0,67,64
67104,note_on,,0,0,2,,,,,,0,70,92
67104,note_off,,96,0,2,,,,,,0,69,64
67200,note_on,,0,0,2,,,,,,0,72,92
67200,note_off,,96,0,2,,,,,,0,70,64
67200,note_off,,192,0,3,,,,,,0,46,64
67200,note_on,,0,0,3,,,,,,0,45,102
67200,note_off,,384,0,1,,,,,,0,76,64
67200,note_off,,0,0,1,,,,,,0,72,64
67296,note_on,,96,0,2,,,,,,0,65,92
67392,note_off,,192,0,3,,,,,,0,45,64
67392,note_on,,0,0,3,,,,,,0,43,102
67392,note_off,,96,0,2,,,,,,0,65,64
67392,note_off,,0,0,2,,,,,,0,72,64
67392,note_on,,0,0,2,,,,,,0,70,92
67488,note_on,,96,0,2,,,,,,0,64,92
67584,note_off,,96,0,2,,,,,,0,64,64
67584,note_on,,0,0,2,,,,,,0,65,92
67584,note_on,,0,0,2,,,,,,0,69,92
67584,note_on,,0,0,3,,,,,,0,53,102
67584,note_off,,192,0,3,,,,,,0,43,64
67584,note_off,,0,0,2,,,,,,0,70,64
67680,note_on,,480,0,1,,,,,,0,72,92
67776,note_on,,0,0,1,,,,,,0,74,92
67776,note_on,,0,0,3,,,,,,0,51,102
67776,note_off,,192,0,3,,,,,,0,53,64
67776,note_off,,96,0,1,,,,,,0,72,64
67872,note_off,,96,0,1,,,,,,0,74,64
67872,note_on,,0,0,1,,,,,,0,75,92
67968,note_off,,0,0,2,,,,,,0,65,64
67968,note_off,,96,0,1,,,,,,0,75,64
67968,note_on,,0,0,1,,,,,,0,77,92
67968,note_off,,192,0,3,,,,,,0,51,64
67968,note_off,,384,0,2,,,,,,0,69,64
67968,note_on,,0,0,3,,,,,,0,50,102
68064,note_on,,96,0,1,,,,,,0,70,92
68160,note_off,,96,0,1,,,,,,0,70,64
68160,note_off,,0,0,1,,,,,,0,77,64
68160,note_on,,0,0,1,,,,,,0,75,92
68160,note_off,,192,0,3,,,,,,0,50,64
68160,note_on,,0,0,3,,,,,,0,48,102
68256,note_on,,96,0,1,,,,,,0,69,92
68352,note_off,,192,0,3,,,,,,0,48,64
68352,note_on,,0,0,3,,,,,,0,46,102
68352,note_off,,96,0,1,,,,,,0,69,64
68352,note_off,,0,0,1,,,,,,0,75,64
68352,note_on,,0,0,1,,,,,,0,70,92
68352,note_on,,0,0,1,,,,,,0,74,92
68448,note_on,,480,0,2,,,,,,0,65,92
68544,note_off,,192,0,3,,,,,,0,46,64
68544,note_on,,0,0,3,,,,,,0,45,102
68544,note_off,,96,0,2,,,,,,0,65,64
68544,note_off,,192,0,1,,,,,,0,70,64
68544,note_on,,0,0,2,,,,,,0,67,92
68640,note_off,,96,0,2,,,,,,0,67,64
68640,note_on,,0,0,2,,,,,,0,69,92
68736,note_off,,96,0,2,,,,,,0,69,64
68736,note_on,,0,0,2,,,,,,0,70,92
68736,note_off,,192,0,3,,,,,,0,45,64
68736,note_on,,0,0,3,,,,,,0,43,102
68832,note_on,,96,0,2,,,,,,0,64,92
68928,note_on,,0,0,2,,,,,,0,69,92
68928,note_off,,0,0,2,,,,,,0,70,64
68928,note_off,,96,0,2,,,,,,0,64,64
68928,note_on,,0,0,3,,,,,,0,41,102
68928,note_off,,192,0,3,,,,,,0,43,64
69024,note_on,,96,0,2,,,,,,0,62,92
69120,note_on,,0,0,3,,,,,,0,51,102
69120,note_off,,0,0,2,,,,,,0,69,64
69120,note_on,,576,0,1,,,,,,0,67,92
69120,note_off,,96,0,2,,,,,,0,62,64
69120,note_off,,192,0,3,,,,,,0,41,64
69216,note_on,,96,0,2,,,,,,0,58,92
69312,note_off,,96,0,2,,,,,,0,58,64
69312,note_on,,0,0,2,,,,,,0,60,92
69408,note_off,,96,0,2,,,,,,0,60,64
69408,note_on,,0,0,2,,,,,,0,62,92
69504,note_off,,96,0,2,,,,,,0,62,64
69504,note_on,,0,0,2,,,,,,0,63,92
69504,note_off,,384,0,1,,,,,,0,74,64
69504,note_on,,0,0,1,,,,,,0,72,92
69600,note_on,,0,0,1,,,,,,0,66,92
69600,note_off,,96,0,1,,,,,,0,67,64
69600,note_on,,0,0,3,,,,,,0,50,102
69600,note_off,,480,0,3,,,,,,0,51,64
69696,note_off,,96,0,1,,,,,,0,66,64
69696,note_on,,0,0,1,,,,,,0,67,92
69696,note_on,,0,0,3,,,,,,0,51,102
69696,note_off,,96,0,3,,,,,,0,50,64
69792,note_on,,0,0,3,,,,,,0,48,102
69792,note_off,,96,0,3,,,,,,0,51,64
69792,note_on,,0,0,1,,,,,,0,69,92
69792,note_off,,96,0,1,,,,,,0,67,64
69888,note_off,,96,0,1,,,,,,0,69,64
69888,note_off,,384,0,2,,,,,,0,63,64
69888,note_off,,96,0,3,,,,,,0,48,64
69888,note_on,,0,0,3,,,,,,0,50,102
69888,note_on,,0,0,1,,,,,,0,66,92
69984,note_on,,96,0,2,,,,,,0,57,92
70080,note_off,,192,0,3,,,,,,0,50,64
70080,note_on,,0,0,3,,,,,,0,43,102
70080,note_on,,0,0,1,,,,,,0,67,92
70080,note_off,,96,0,2,,,,,,0,57,64
70080,note_on,,0,0,1,,,,,,0,70,92
70080,note_off,,0,0,1,,,,,,0,72,64
70080,note_off,,192,0,1,,,,,,0,66,64
70080,note_on,,0,0,2,,,,,,0,58,92
70176,note_on,,0,0,2,,,,,,0,60,92
70176,note_off,,96,0,2,,,,,,0,58,64
70272,note_on,,0,0,3,,,,,,0,50,102
70272,note_off,,192,0,3,,,,,,0,43,64
70272,note_on,,0,0,1,,,,,,0,69,92
70272,note_off,,192,0,1,,,,,,0,70,64
70272,note_on,,0,0,2,,,,,,0,62,92
70272,note_off,,96,0,2,,,,,,0,60,64
70368,note_off,,96,0,2,,,,,,0,62,64
70368,note_on,,0,0,2,,,,,,0,58,92
70464,note_on,,0,0,3,,,,,,0,38,102
70464,note_off,,192,0,1,,,,,,0,67,64
70464,note_off,,96,0,2,,,,,,0,58,64
70464,note_on,,0,0,2,,,,,,0,60,92
70464,note_off,,192,0,3,,,,,,0,50,64
70464,note_on,,0,0,1,,,,,,0,66,92
70560,note_off,,96,0,2,,,,,,0,60,64
70560,note_on,,0,0,2,,,,,,0,57,92
70656,note_off,,192,0,3,,,,,,0,38,64
70656,note_on,,0,0,3,,,,,,0,43,102
70656,note_off,,0,0,1,,,,,,0,69,64
70656,note_on,,0,0,1,,,,,,0,67,92
70656,note_on,,0,0,1,,,,,,0,62,92
70656,note_off,,192,0,1,,,,,,0,66,64
70656,note_off,,96,0,2,,,,,,0,57,64
70656,note_on,,0,0,2,,,,,,0,58,92
70752,note_on,,0,0,1,,,,,,0,66,92
70752,note_off,,96,0,1,,,,,,0,67,64
70848,note_on,,0,0,1,,,,,,0,67,92
70848,note_off,,96,0,1,,,,,,0,66,64
70944,note_off,,0,0,1,,,,,,0,62,64
70944,note_off,,96,0,1,,,,,,0,67,64
70944,note_on,,0,0,1,,,,,,0,62,92
71040,note_off,,384,0,3,,,,,,0,43,64
71040,note_on,,0,0,1,,,,,,0,67,92
71040,note_off,,96,0,1,,,,,,0,62,64
71040,note_off,,384,0,2,,,,,,0,58,64
71136,note_on,,0,0,1,,,,,,0,62,92
71136,note_off,,96,0,1,,,,,,0,67,64
71232,note_off,,96,0,1,,,,,,0,62,64
71232,note_on,,0,0,1,,,,,,0,69,92
71328,note_on,,0,0,1,,,,,,0,62,92
71328,note_off,,96,0,1,,,,,,0,69,64
71424,note_on,,0,0,1,,,,,,0,62,92
71424,note_on,,0,0,1,,,,,,0,70,92
71424,note_off,,96,0,1,,,,,,0,62,64
71424,note_on,,384,0,3,,,,,,0,55,102
71520,note_off,,96,0,1,,,,,,0,62,64
71520,note_on,,0,0,1,,,,,,0,60,92
71616,note_off,,96,0,1,,,,,,0,60,64
71616,note_on,,0,0,1,,,,,,0,62,92
71712,note_off,,96,0,1,,,,,,0,62,64
71712,note_on,,0,0,1,,,,,,0,55,92
71808,note_off,,384,0,3,,,,,,0,55,64
71808,note_off,,96,0,1,,,,,,0,55,64
71808,note_on,,0,0,1,,,,,,0,62,92
71904,note_off,,96,0,1,,,,,,0,62,64
71904,note_on,,0,0,1,,,,,,0,55,92
72000,note_on,,0,0,1,,,,,,0,64,92
72000,note_off,,96,0,1,,,,,,0,55,64
72096,note_off,,96,0,1,,,,,,0,64,64
72096,note_on,,0,0,1,,,,,,0,55,92
72192,note_off,,96,0,1,,,,,,0,55,64
72192,note_off,,0,0,1,,,,,,0,70,64
72192,note_on,,0,0,1,,,,,,0,69,92
72192,note_on,,0,0,1,,,,,,0,66,92
72192,note_on,,384,0,3,,,,,,0,50,102
72288,note_off,,96,0,1,,,,,,0,69,64
72288,note_on,,0,0,1,,,,,,0,67,92
72384,note_on,,0,0,1,,,,,,0,69,92
72384,note_off,,96,0,1,,,,,,0,67,64
72480,note_on,,0,0,1,,,,,,0,62,92
72480,note_off,,96,0,1,,,,,,0,69,64
72576,note_off,,96,0,1,,,,,,0,62,64
72576,note_on,,0,0,1,,,,,,0,69,92
72576,note_off,,384,0,3,,,,,,0,50,64
72672,note_off,,96,0,1,,,,,,0,69,64
72672,note_on,,0,0,1,,,,,,0,62,92
72768,note_off,,96,0,1,,,,,,0,62,64
72768,note_on,,0,0,1,,,,,,0,70,92
72864,note_off,,96,0,1,,,,,,0,70,64
72864,note_on,,0,0,1,,,,,,0,62,92
72960,note_on,,384,0,3,,,,,,0,38,102
72960,note_off,,96,0,1,,,,,,0,62,64
72960,note_on,,0,0,1,,,,,,0,72,92
73056,note_on,,0,0,1,,,,,,0,64,92
73056,note_off,,96,0,1,,,,,,0,66,64
73152,note_on,,0,0,1,,,,,,0,66,92
73152,note_off,,96,0,1,,,,,,0,64,64
73248,note_on,,0,0,1,,,,,,0,57,92
73248,note_off,,96,0,1,,,,,,0,66,64
73344,note_off,,384,0,3,,,,,,0,38,64
73344,note_on,,0,0,1,,,,,,0,64,92
73344,note_off,,96,0,1,,,,,,0,57,64
73440,note_off,,96,0,1,,,,,,0,64,64
73440,note_on,,0,0,1,,,,,,0,57,92
73536,note_off,,96,0,1,,,,,,0,57,64
73536,note_on,,0,0,1,,,,,,0,66,92
73632,note_off,,96,0,1,,,,,,0,66,64
73632,note_on,,0,0,1,,,,,,0,57,92
73728,note_off,,96,0,1,,,,,,0,57,64
73728,note_off,,0,0,1,,,,,,0,72,64
73728,note_on,,0,0,1,,,,,,0,67,92
73728,note_on,,0,0,1,,,,,,0,70,92
73728,note_on,,384,0,3,,,,,,0,43,102
73824,note_on,,0,0,1,,,,,,0,69,92
73824,note_off,,96,0,1,,,,,,0,70,64
73824,note_on,,0,0,1,,,,,,0,66,92
73824,note_off,,0,0,1,,,,,,0,67,64
73920,note_off,,0,0,1,,,,,,0,66,64
73920,note_on,,0,0,1,,,,,,0,67,92
73920,note_on,,0,0,1,,,,,,0,70,92
73920,note_off,,96,0,1,,,,,,0,69,64
74016,note_off,,96,0,1,,,,,,0,70,64
74016,note_off,,0,0,1,,,,,,0,67,64
74016,note_on,,0,0,1,,,,,,0,62,92
74016,note_on,,0,0,1,,,,,,0,74,92
74112,note_off,,96,0,1,,,,,,0,74,64
74112,note_off,,0,0,1,,,,,,0,62,64
74112,note_on,,0,0,1,,,,,,0,66,92
74112,note_on,,0,0,1,,,,,,0,69,92
74208,note_off,,0,0,1,,,,,,0,66,64
74208,note_off,,96,0,1,,,,,,0,69,64
74208,note_on,,0,0,1,,,,,,0,64,92
74208,note_on,,0,0,1,,,,,,0,67,92
74304,note_off,,96,0,1,,,,,,0,67,64
74304,note_off,,0,0,1,,,,,,0,64,64
74304,note_on,,0,0,1,,,,,,0,66,92
74304,note_on,,0,0,1,,,,,,0,69,92
74400,note_off,,96,0,1,,,,,,0,69,64
74400,note_off,,0,0,1,,,,,,0,66,64
74400,note_on,,0,0,1,,,,,,0,62,92
74400,note_on,,0,0,1,,,,,,0,72,92
74496,note_off,,96,0,1,,,,,,0,72,64
74496,note_off,,0,0,1,,,,,,0,62,64
74496,note_on,,0,0,1,,,,,,0,67,92
74496,note_on,,0,0,1,,,,,,0,70,92
74592,note_on,,0,0,1,,,,,,0,69,92
74592,note_on,,0,0,1,,,,,,0,66,92
74592,note_off,,96,0,1,,,,,,0,70,64
74592,note_off,,0,0,1,,,,,,0,67,64
74688,note_off,,96,0,1,,,,,,0,69,64
74688,note_off,,0,0,1,,,,,,0,66,64
74688,note_on,,0,0,1,,,,,,0,67,92
74688,note_on,,0,0,1,,,,,,0,70,92
74784,note_on,,0,0,1,,,,,,0,74,92
74784,note_off,,96,0,1,,,,,,0,70,64
74784,note_off,,0,0,1,,,,,,0,67,64
74784,note_on,,0,0,1,,,,,,0,62,92
74880,note_off,,96,0,1,,,,,,0,74,64
74880,note_off,,0,0,1,,,,,,0,62,64
74880,note_on,,0,0,1,,,,,,0,66,92
74880,note_on,,0,0,1,,,,,,0,69,92
74976,note_on,,0,0,1,,,,,,0,64,92
74976,note_on,,0,0,1,,,,,,0,67,92
74976,note_off,,96,0,1,,,,,,0,69,64
74976,note_off,,0,0,1,,,,,,0,66,64
75072,note_on,,0,0,1,,,,,,0,66,92
75072,note_on,,0,0,1,,,,,,0,69,92
75072,note_off,,96,0,1,,,,,,0,67,64
75072,note_off,,0,0,1,,,,,,0,64,64
75168,note_off,,96,0,1,,,,,,0,69,64
75168,note_off,,0,0,1,,,,,,0,66,64
75168,note_on,,0,0,1,,,,,,0,62,92
75168,note_on,,0,0,1,,,,,,0,72,92
75264,note_on,,0,0,3,,,,,,0,55,102
75264,note_off,,96,0,1,,,,,,0,72,64
75264,note_off,,0,0,1,,,,,,0,62,64
75264,note_on,,0,0,1,,,,,,0,65,92
75264,note_on,,0,0,1,,,,,,0,71,92
75264,note_off,,1536,0,3,,,,,,0,43,64
75360,note_on,,0,0,1,,,,,,0,69,92
75360,note_off,,96,0,1,,,,,,0,71,64
75360,note_off,,0,0,1,,,,,,0,65,64
75360,note_on,,0,0,1,,,,,,0,63,92
75456,note_off,,96,0,1,,,,,,0,69,64
75456,note_off,,0,0,1,,,,,,0,63,64
75456,note_on,,0,0,1,,,,,,0,65,92
75456,note_on,,0,0,1,,,,,,0,71,92
75552,note_on,,0,0,1,,,,,,0,74,92
75552,note_off,,0,0,1,,,,,,0,65,64
75552,note_on,,0,0,1,,,,,,0,55,92
75552,note_off,,96,0,1,,,,,,0,71,64
75648,note_off,,96,0,1,,,,,,0,74,64
75648,note_off,,0,0,1,,,,,,0,55,64
75648,note_on,,0,0,1,,,,,,0,63,92
75648,note_on,,0,0,1,,,,,,0,72,92
75744,note_off,,96,0,1,,,,,,0,72,64
75744,note_off,,0,0,1,,,,,,0,63,64
75744,note_on,,0,0,1,,,,,,0,62,92
75744,note_on,,0,0,1,,,,,,0,71,92
75840,note_on,,0,0,1,,,,,,0,72,92
75840,note_off,,96,0,1,,,,,,0,71,64
75840,note_off,,0,0,1,,,,,,0,62,64
75840,note_on,,0,0,1,,,,,,0,63,92
75936,note_off,,96,0,1,,,,,,0,72,64
75936,note_off,,0,0,1,,,,,,0,63,64
75936,note_on,,0,0,1,,,,,,0,75,92
75936,note_on,,0,0,1,,,,,,0,60,92
76032,note_on,,0,0,1,,,,,,0,65,92
76032,note_on,,0,0,1,,,,,,0,71,92
76032,note_off,,0,0,1,,,,,,0,60,64
76032,note_off,,96,0,1,,,,,,0,75,64
76128,note_off,,0,0,1,,,,,,0,65,64
76128,note_off,,96,0,1,,,,,,0,71,64
76128,note_on,,0,0,1,,,,,,0,69,92
76128,note_on,,0,0,1,,,,,,0,63,92
76224,note_on,,0,0,1,,,,,,0,65,92
76224,note_on,,0,0,1,,,,,,0,71,92
76224,note_off,,96,0,1,,,,,,0,69,64
76224,note_off,,0,0,1,,,,,,0,63,64
76320,note_off,,96,0,1,,,,,,0,71,64
76320,note_off,,0,0,1,,,,,,0,65,64
76320,note_on,,0,0,1,,,,,,0,74,92
76320,note_on,,0,0,1,,,,,,0,55,92
76416,note_off,,96,0,1,,,,,,0,74,64
76416,note_off,,0,0,1,,,,,,0,55,64
76416,note_on,,0,0,1,,,,,,0,63,92
76416,note_on,,0,0,1,,,,,,0,72,92
76512,note_on,,0,0,1,,,,,,0,62,92
76512,note_on,,0,0,1,,,,,,0,71,92
76512,note_off,,0,0,1,,,,,,0,63,64
76512,note_off,,96,0,1,,,,,,0,72,64
76608,note_off,,0,0,1,,,,,,0,62,64
76608,note_on,,0,0,1,,,,,,0,63,92
76608,note_on,,0,0,1,,,,,,0,72,92
76608,note_off,,96,0,1,,,,,,0,71,64
76704,note_off,,96,0,1,,,,,,0,72,64
76704,note_off,,0,0,1,,,,,,0,63,64
76704,note_on,,0,0,1,,,,,,0,60,92
76704,note_on,,0,0,1,,,,,,0,75,92
76800,note_off,,96,0,1,,,,,,0,75,64
76800,note_off,,0,0,1,,,,,,0,60,64
76800,note_on,,0,0,1,,,,,,0,79,92
76800,note_on,,5760,0,2,,,,,,0,67,92
76800,note_on,,0,0,2,,,,,,0,62,92
76800,note_on,,0,0,1,,,,,,0,71,92
76848,note_on,,0,0,1,,,,,,0,77,92
76848,note_off,,48,0,1,,,,,,0,79,64
76896,note_on,,0,0,3,,,,,,0,53,102
76896,note_off,,1632,0,3,,,,,,0,55,64
76896,note_off,,48,0,1,,,,,,0,77,64
76896,note_on,,0,0,1,,,,,,0,79,92
76944,note_off,,48,0,1,,,,,,0,79,64
76944,note_on,,0,0,1,,,,,,0,77,92
76992,note_off,,48,0,1,,,,,,0,77,64
76992,note_on,,0,0,1,,,,,,0,79,92
76992,note_off,,96,0,3,,,,,,0,53,64
76992,note_on,,0,0,3,,,,,,0,55,102
77040,note_on,,0,0,1,,,,,,0,77,92
77040,note_off,,48,0,1,,,,,,0,79,64
77088,note_on,,0,0,3,,,,,,0,50,102
77088,note_off,,96,0,3,,,,,,0,55,64
77088,note_off,,48,0,1,,,,,,0,77,64
77088,note_on,,0,0,1,,,,,,0,79,92
77136,note_off,,48,0,1,,,,,,0,79,64
77136,note_on,,0,0,1,,,,,,0,77,92
77184,note_on,,0,0,1,,,,,,0,79,92
77184,note_on,,0,0,3,,,,,,0,55,102
77184,note_off,,96,0,3,,,,,,0,50,64
77184,note_off,,48,0,1,,,,,,0,77,64
77232,note_on,,0,0,1,,,,,,0,77,92
77232,note_off,,48,0,1,,,,,,0,79,64
77280,note_off,,96,0,3,,,,,,0,55,64
77280,note_on,,0,0,3,,,,,,0,50,102
77280,note_on,,0,0,1,,,,,,0,79,92
77280,note_off,,48,0,1,,,,,,0,77,64
77328,note_on,,0,0,1,,,,,,0,77,92
77328,note_off,,48,0,1,,,,,,0,79,64
77376,note_off,,96,0,3,,,,,,0,50,64
77376,note_on,,0,0,3,,,,,,0,57,102
77376,note_on,,0,0,1,,,,,,0,79,92
77376,note_off,,48,0,1,,,,,,0,77,64
77424,note_on,,0,0,1,,,,,,0,77,92
77424,note_off,,48,0,1,,,,,,0,79,64
77472,note_on,,0,0,1,,,,,,0,79,92
77472,note_off,,48,0,1,,,,,,0,77,64
77472,note_off,,96,0,3,,,,,,0,57,64
77472,note_on,,0,0,3,,,,,,0,50,102
77520,note_on,,0,0,1,,,,,,0,77,92
77520,note_off,,48,0,1,,,,,,0,79,64
77568,note_on,,0,0,1,,,,,,0,79,92
77568,note_off,,48,0,1,,,,,,0,77,64
77568,note_on,,0,0,3,,,,,,0,59,102
77568,note_off,,96,0,3,,,,,,0,50,64
77616,note_off,,48,0,1,,,,,,0,79,64
77616,note_on,,0,0,1,,,,,,0,77,92
77664,note_on,,0,0,1,,,,,,0,79,92
77664,note_off,,48,0,1,,,,,,0,77,64
77664,note_on,,0,0,3,,,,,,0,57,102
77664,note_off,,96,0,3,,,,,,0,59,64
77712,note_on,,0,0,1,,,,,,0,77,92
77712,note_off,,48,0,1,,,,,,0,79,64
77760,note_on,,0,0,1,,,,,,0,79,92
77760,note_off,,48,0,1,,,,,,0,77,64
77760,note_on,,0,0,3,,,,,,0,59,102
77760,note_off,,96,0,3,,,,,,0,57,64
77808,note_off,,48,0,1,,,,,,0,79,64
77808,note_on,,0,0,1,,,,,,0,77,92
77856,note_on,,0,0,3,,,,,,0,55,102
77856,note_off,,48,0,1,,,,,,0,77,64
77856,note_on,,0,0,1,,,,,,0,79,92
77856,note_off,,96,0,3,,,,,,0,59,64
77904,note_off,,48,0,1,,,,,,0,79,64
77904,note_on,,0,0,1,,,,,,0,77,92
77952,note_on,,0,0,1,,,,,,0,79,92
77952,note_off,,96,0,3,,,,,,0,55,64
77952,note_on,,0,0,3,,,,,,0,59,102
77952,note_off,,48,0,1,,,,,,0,77,64
78000,note_on,,0,0,1,,,,,,0,77,92
78000,note_off,,48,0,1,,,,,,0,79,64
78048,note_on,,0,0,1,,,,,,0,79,92
78048,note_off,,48,0,1,,,,,,0,77,64
78048,note_on,,0,0,3,,,,,,0,55,102
78048,note_off,,96,0,3,,,,,,0,59,64
78096,note_on,,0,0,1,,,,,,0,77,92
78096,note_off,,48,0,1,,,,,,0,79,64
78144,note_off,,48,0,1,,,,,,0,77,64
78144,note_off,,96,0,3,,,,,,0,55,64
78144,note_on,,0,0,3,,,,,,0,62,102
78144,note_on,,0,0,1,,,,,,0,79,92
78192,note_on,,0,0,1,,,,,,0,77,92
78192,note_off,,48,0,1,,,,,,0,79,64
78240,note_on,,0,0,1,,,,,,0,79,92
78240,note_on,,0,0,3,,,,,,0,53,102
78240,note_off,,96,0,3,,,,,,0,62,64
78240,note_off,,48,0,1,,,,,,0,77,64
78288,note_on,,0,0,1,,,,,,0,77,92
78288,note_off,,48,0,1,,,,,,0,79,64
78336,note_on,,0,0,1,,,,,,0,79,92
78336,note_on,,0,0,3,,,,,,0,51,102
78336,note_off,,96,0,3,,,,,,0,53,64
78336,note_off,,48,0,1,,,,,,0,77,64
78384,note_off,,48,0,1,,,,,,0,79,64
78384,note_on,,0,0,1,,,,,,0,77,92
78432,note_off,,0,0,1,,,,,,0,71,64
78432,note_on,,0,0,1,,,,,,0,69,92
78432,note_on,,0,0,1,,,,,,0,79,92
78432,note_off,,48,0,1,,,,,,0,77,64
78480,note_on,,0,0,1,,,,,,0,77,92
78480,note_off,,48,0,1,,,,,,0,79,64
78528,note_on,,0,0,2,,,,,,0,62,92
78528,note_off,,1728,0,2,,,,,,0,62,64
78528,note_off,,0,0,1,,,,,,0,69,64
78528,note_off,,48,0,1,,,,,,0,77,64
78528,note_on,,0,0,1,,,,,,0,71,92
78528,note_on,,0,0,1,,,,,,0,79,92
78576,note_on,,0,0,1,,,,,,0,77,92
78576,note_off,,48,0,1,,,,,,0,79,64
78624,note_off,,48,0,1,,,,,,0,77,64
78624,note_on,,0,0,1,,,,,,0,67,92
78624,note_on,,0,0,1,,,,,,0,79,92
78624,note_off,,0,0,1,,,,,,0,71,64
78672,note_on,,0,0,1,,,,,,0,77,92
78672,note_off,,48,0,1,,,,,,0,79,64
78720,note_off,,0,0,1,,,,,,0,67,64
78720,note_on,,0,0,1,,,,,,0,72,92
78720,note_on,,0,0,1,,,,,,0,75,92
78720,note_off,,192,0,2,,,,,,0,62,64
78720,note_on,,0,0,2,,,,,,0,60,92
78720,note_off,,48,0,1,,,,,,0,77,64
78816,note_off,,96,0,2,,,,,,0,67,64
78816,note_on,,0,0,2,,,,,,0,65,92
78912,note_on,,0,0,3,,,,,,0,51,102
78912,note_off,,96,0,2,,,,,,0,65,64
78912,note_on,,0,0,2,,,,,,0,67,92
78912,note_off,,576,0,3,,,,,,0,51,64
79008,note_on,,0,0,2,,,,,,0,63,92
79008,note_off,,96,0,2,,,,,,0,67,64
79104,note_on,,0,0,2,,,,,,0,68,92
79104,note_on,,0,0,3,,,,,,0,53,102
79104,note_off,,192,0,3,,,,,,0,51,64
79104,note_off,,96,0,2,,,,,,0,63,64
79200,note_off,,480,0,1,,,,,,0,75,64
79200,note_on,,0,0,1,,,,,,0,74,92
79296,note_off,,192,0,2,,,,,,0,60,64
79296,note_on,,0,0,2,,,,,,0,60,92
79296,note_off,,96,0,1,,,,,,0,74,64
79296,note_on,,0,0,1,,,,,,0,75,92
79392,note_off,,96,0,1,,,,,,0,75,64
79392,note_off,,0,0,1,,,,,,0,72,64
79392,note_on,,0,0,1,,,,,,0,72,92
79488,note_on,,0,0,1,,,,,,0,68,92
79488,note_on,,0,0,1,,,,,,0,74,92
79488,note_on,,0,0,2,,,,,,0,65,92
79488,note_off,,192,0,2,,,,,,0,68,64
79488,note_off,,96,0,1,,,,,,0,72,64
79584,note_on,,0,0,2,,,,,,0,59,92
79584,note_off,,96,0,2,,,,,,0,60,64
79680,note_on,,0,0,2,,,,,,0,60,92
79680,note_off,,96,0,2,,,,,,0,59,64
79680,note_off,,576,0,3,,,,,,0,53,64
79680,note_on,,0,0,3,,,,,,0,53,102
79776,note_on,,0,0,2,,,,,,0,62,92
79776,note_off,,96,0,2,,,,,,0,60,64
79872,note_off,,96,0,2,,,,,,0,62,64
79872,note_off,,192,0,3,,,,,,0,53,64
79872,note_on,,0,0,2,,,,,,0,55,92
79872,note_on,,0,0,3,,,,,,0,47,102
79968,note_on,,0,0,2,,,,,,0,65,92
79968,note_off,,96,0,2,,,,,,0,65,64
80064,note_on,,0,0,2,,,,,,0,63,92
80064,note_off,,96,0,2,,,,,,0,65,64
80064,note_off,,192,0,3,,,,,,0,47,64
80064,note_on,,0,0,3,,,,,,0,48,102
80064,note_on,,0,0,1,,,,,,0,67,92
80064,note_off,,576,0,1,,,,,,0,74,64
80064,note_off,,0,0,1,,,,,,0,68,64
80064,note_on,,0,0,1,,,,,,0,72,92
80160,note_on,,0,0,2,,,,,,0,62,92
80160,note_off,,96,0,2,,,,,,0,63,64
80256,note_off,,0,0,2,,,,,,0,55,64
80256,note_on,,0,0,3,,,,,,0,41,102
80256,note_on,,0,0,2,,,,,,0,56,92
80256,note_on,,0,0,2,,,,,,0,62,92
80256,note_off,,96,0,2,,,,,,0,62,64
80256,note_on,,0,0,1,,,,,,0,65,92
80256,note_off,,192,0,3,,,,,,0,48,64
80256,note_off,,192,0,1,,,,,,0,67,64
80448,note_on,,0,0,2,,,,,,0,55,92
80448,note_off,,192,0,3,,,,,,0,41,64
80448,note_on,,0,0,3,,,,,,0,43,102
80448,note_off,,192,0,2,,,,,,0,56,64
80448,note_on,,0,0,1,,,,,,0,71,92
80448,note_off,,192,0,1,,,,,,0,72,64
80544,note_on,,0,0,2,,,,,,0,60,92
80544,note_off,,96,0,2,,,,,,0,62,64
80640,note_off,,192,0,3,,,,,,0,43,64
80640,note_on,,0,0,3,,,,,,0,48,102
80640,note_on,,0,0,2,,,,,,0,55,92
80640,note_on,,0,0,2,,,,,,0,60,92
80640,note_off,,0,0,2,,,,,,0,55,64
80640,note_off,,96,0,2,,,,,,0,60,64
80640,note_on,,0,0,1,,,,,,0,63,92
80640,note_on,,0,0,1,,,,,,0,72,92
80640,note_off,,192,0,1,,,,,,0,71,64
80640,note_off,,0,0,1,,,,,,0,65,64
80736,note_on,,0,0,1,,,,,,0,71,92
80736,note_off,,96,0,1,,,,,,0,72,64
80832,note_off,,96,0,1,,,,,,0,71,64
80832,note_on,,0,0,1,,,,,,0,72,92
80928,note_off,,96,0,1,,,,,,0,72,64
80928,note_on,,0,0,1,,,,,,0,67,92
81024,note_on,,0,0,1,,,,,,0,75,92
81024,note_off,,384,0,3,,,,,,0,48,64
81024,note_off,,384,0,2,,,,,,0,55,64
81024,note_off,,0,0,2,,,,,,0,60,64
81024,note_off,,96,0,1,,,,,,0,67,64
81024,note_off,,0,0,1,,,,,,0,63,64
81120,note_on,,0,0,1,,,,,,0,67,92
81120,note_off,,96,0,1,,,,,,0,75,64
81216,note_on,,192,0,2,,,,,,0,60,92
81216,note_on,,0,0,2,,,,,,0,55,92
81216,note_on,,192,0,3,,,,,,0,51,102
81216,note_off,,96,0,1,,,,,,0,67,64
81216,note_on,,0,0,1,,,,,,0,72,92
81312,note_off,,96,0,1,,,,,,0,72,64
81312,note_on,,0,0,1,,,,,,0,67,92
81408,note_off,,192,0,3,,,,,,0,51,64
81408,note_on,,0,0,1,,,,,,0,69,92
81408,note_on,,0,0,3,,,,,,0,53,102
81408,note_on,,0,0,2,,,,,,0,53,92
81408,note_off,,0,0,2,,,,,,0,60,64
81408,note_off,,96,0,1,,,,,,0,67,64
81408,note_off,,192,0,2,,,,,,0,55,64
81408,note_on,,0,0,2,,,,,,0,60,92
81504,note_on,,0,0,1,,,,,,0,67,92
81504,note_off,,96,0,1,,,,,,0,69,64
81600,note_on,,0,0,1,,,,,,0,69,92
81600,note_off,,96,0,1,,,,,,0,67,64
81696,note_on,,0,0,1,,,,,,0,65,92
81696,note_off,,96,0,1,,,,,,0,69,64
81792,note_off,,384,0,3,,,,,,0,53,64
81792,note_off,,96,0,1,,,,,,0,65,64
81792,note_on,,0,0,1,,,,,,0,72,92
81792,note_off,,384,0,2,,,,,,0,53,64
81792,note_off,,0,0,2,,,,,,0,60,64
81888,note_on,,0,0,1,,,,,,0,65,92
81888,note_off,,96,0,1,,,,,,0,72,64
81984,note_on,,192,0,3,,,,,,0,51,102
81984,note_off,,96,0,1,,,,,,0,65,64
81984,note_on,,0,0,1,,,,,,0,69,92
81984,note_on,,0,0,2,,,,,,0,53,92
81984,note_on,,192,0,2,,,,,,0,60,92
82080,note_off,,96,0,1,,,,,,0,69,64
82080,note_on,,0,0,1,,,,,,0,65,92
82176,note_off,,192,0,2,,,,,,0,53,64
82176,note_on,,0,0,3,,,,,,0,50,102
82176,note_on,,0,0,2,,,,,,0,62,92
82176,note_off,,0,0,2,,,,,,0,60,64
82176,note_off,,96,0,1,,,,,,0,65,64
82176,note_on,,0,0,1,,,,,,0,70,92
82176,note_off,,192,0,3,,,,,,0,51,64
82176,note_on,,0,0,2,,,,,,0,53,92
82272,note_off,,96,0,1,,,,,,0,70,64
82272,note_on,,0,0,1,,,,,,0,69,92
82368,note_off,,96,0,1,,,,,,0,69,64
82368,note_on,,0,0,1,,,,,,0,70,92
82464,note_off,,96,0,1,,,,,,0,70,64
82464,note_on,,0,0,1,,,,,,0,65,92
82560,note_off,,384,0,2,,,,,,0,53,64
82560,note_on,,0,0,1,,,,,,0,74,92
82560,note_off,,96,0,1,,,,,,0,65,64
82560,note_off,,384,0,3,,,,,,0,50,64
82560,note_off,,0,0,2,,,,,,0,62,64
82656,note_off,,96,0,1,,,,,,0,74,64
82656,note_on,,0,0,1,,,,,,0,65,92
82752,note_on,,192,0,3,,,,,,0,50,102
82752,note_on,,0,0,2,,,,,,0,53,92
82752,note_on,,192,0,2,,,,,,0,58,92
82752,note_off,,96,0,1,,,,,,0,65,64
82752,note_on,,0,0,1,,,,,,0,70,92
82848,note_off,,96,0,1,,,,,,0,70,64
82848,note_on,,0,0,1,,,,,,0,65,92
82944,note_off,,0,0,2,,,,,,0,58,64
82944,note_off,,96,0,1,,,,,,0,65,64
82944,note_on,,0,0,2,,,,,,0,51,92
82944,note_on,,0,0,1,,,,,,0,67,92
82944,note_off,,192,0,3,,,,,,0,50,64
82944,note_on,,0,0,3,,,,,,0,51,102
82944,note_off,,192,0,2,,,,,,0,53,64
82944,note_on,,0,0,2,,,,,,0,58,92
83040,note_on,,0,0,1,,,,,,0,65,92
83040,note_off,,96,0,1,,,,,,0,67,64
83136,note_off,,96,0,1,,,,,,0,65,64
83136,note_on,,0,0,1,,,,,,0,67,92
83232,note_off,,96,0,1,,,,,,0,67,64
83232,note_on,,0,0,1,,,,,,0,63,92
83328,note_off,,0,0,2,,,,,,0,51,64
83328,note_off,,384,0,3,,,,,,0,51,64
83328,note_on,,0,0,1,,,,,,0,70,92
83328,note_off,,384,0,2,,,,,,0,58,64
83328,note_off,,96,0,1,,,,,,0,63,64
83424,note_off,,96,0,1,,,,,,0,70,64
83424,note_on,,0,0,1,,,,,,0,63,92
83520,note_on,,192,0,3,,,,,,0,51,102
83520,note_on,,0,0,1,,,,,,0,67,92
83520,note_off,,96,0,1,,,,,,0,63,64
83520,note_on,,192,0,2,,,,,,0,55,92
83520,note_on,,0,0,2,,,,,,0,58,92
83616,note_on,,0,0,1,,,,,,0,63,92
83616,note_off,,96,0,1,,,,,,0,67,64
83712,note_on,,0,0,1,,,,,,0,69,92
83712,note_off,,96,0,1,,,,,,0,63,64
83712,note_off,,192,0,2,,,,,,0,58,64
83712,note_off,,0,0,2,,,,,,0,55,64
83712,note_on,,0,0,2,,,,,,0,53,92
83712,note_on,,0,0,2,,,,,,0,60,92
83712,note_off,,192,0,3,,,,,,0,51,64
83712,note_on,,0,0,3,,,,,,0,51,102
83808,note_off,,96,0,1,,,,,,0,69,64
83808,note_on,,0,0,1,,,,,,0,67,92
83904,note_on,,0,0,1,,,,,,0,69,92
83904,note_off,,96,0,1,,,,,,0,67,64
84000,note_on,,0,0,1,,,,,,0,65,92
84000,note_off,,96,0,1,,,,,,0,69,64
84096,note_on,,0,0,1,,,,,,0,72,92
84096,note_off,,96,0,1,,,,,,0,65,64
84096,note_off,,384,0,3,,,,,,0,51,64
84096,note_off,,384,0,2,,,,,,0,60,64
84096,note_off,,0,0,2,,,,,,0,53,64
84192,note_on,,0,0,1,,,,,,0,65,92
84192,note_off,,96,0,1,,,,,,0,72,64
84288,note_on,,0,0,1,,,,,,0,69,92
84288,note_off,,96,0,1,,,,,,0,65,64
84288,note_on,,192,0,3,,,,,,0,51,102
84288,note_on,,192,0,2,,,,,,0,53,92
84288,note_on,,0,0,2,,,,,,0,60,92
84384,note_on,,0,0,1,,,,,,0,65,92
84384,note_off,,96,0,1,,,,,,0,69,64
84480,note_on,,0,0,1,,,,,,0,70,92
84480,note_off,,96,0,1,,,,,,0,65,64
84480,note_off,,192,0,3,,,,,,0,51,64
84480,note_on,,0,0,3,,,,,,0,50,102
84480,note_off,,192,0,2,,,,,,0,60,64
84480,note_off,,0,0,2,,,,,,0,53,64
84480,note_on,,0,0,2,,,,,,0,53,92
84480,note_on,,0,0,2,,,,,,0,58,92
84576,note_off,,96,0,1,,,,,,0,70,64
84576,note_on,,0,0,1,,,,,,0,69,92
84672,note_off,,96,0,1,,,,,,0,69,64
84672,note_on,,0,0,1,,,,,,0,70,92
84768,note_off,,96,0,1,,,,,,0,70,64
84768,note_on,,0,0,1,,,,,,0,65,92
84864,note_off,,96,0,1,,,,,,0,65,64
84864,note_on,,0,0,1,,,,,,0,74,92
84864,note_off,,0,0,2,,,,,,0,53,64
84864,note_off,,384,0,2,,,,,,0,58,64
84864,note_off,,384,0,3,,,,,,0,50,64
84960,note_off,,96,0,1,,,,,,0,74,64
84960,note_on,,0,0,1,,,,,,0,65,92
85056,note_on,,192,0,3,,,,,,0,50,102
85056,note_on,,0,0,1,,,,,,0,70,92
85056,note_on,,192,0,2,,,,,,0,53,92
85056,note_off,,96,0,1,,,,,,0,65,64
85056,note_on,,0,0,2,,,,,,0,56,92
85152,note_on,,0,0,1,,,,,,0,65,92
85152,note_off,,96,0,1,,,,,,0,70,64
85248,note_off,,192,0,3,,,,,,0,50,64
85248,note_on,,0,0,1,,,,,,0,75,92
85248,note_off,,0,0,2,,,,,,0,53,64
85248,note_on,,0,0,2,,,,,,0,55,92
85248,note_on,,0,0,2,,,,,,0,58,92
85248,note_on,,0,0,3,,,,,,0,55,102
85248,note_off,,96,0,1,,,,,,0,65,64
85248,note_off,,192,0,2,,,,,,0,56,64
85344,note_on,,0,0,1,,,,,,0,74,92
85344,note_off,,96,0,1,,,,,,0,75,64
85440,note_off,,96,0,1,,,,,,0,74,64
85440,note_on,,0,0,1,,,,,,0,75,92
85536,note_off,,96,0,1,,,,,,0,75,64
85536,note_on,,0,0,1,,,,,,0,70,92
85632,note_off,,0,0,2,,,,,,0,55,64
85632,note_off,,384,0,3,,,,,,0,55,64
85632,note_off,,384,0,2,,,,,,0,58,64
85632,note_on,,0,0,1,,,,,,0,79,92
85632,note_off,,96,0,1,,,,,,0,70,64
85728,note_on,,0,0,1,,,,,,0,70,92
85728,note_off,,96,0,1,,,,,,0,79,64
85824,note_on,,192,0,2,,,,,,0,58,92
85824,note_on,,0,0,1,,,,,,0,75,92
85824,note_off,,96,0,1,,,,,,0,70,64
85824,note_on,,0,0,1,,,,,,0,67,92
85824,note_on,,192,0,3,,,,,,0,55,102
85920,note_off,,96,0,1,,,,,,0,75,64
85920,note_on,,0,0,1,,,,,,0,70,92
86016,note_on,,0,0,1,,,,,,0,65,92
86016,note_off,,192,0,2,,,,,,0,58,64
86016,note_off,,96,0,1,,,,,,0,70,64
86016,note_off,,0,0,1,,,,,,0,67,64
86016,note_off,,192,0,3,,,,,,0,55,64
86016,note_on,,0,0,3,,,,,,0,50,102
86016,note_on,,0,0,1,,,,,,0,77,92
86016,note_on,,0,0,2,,,,,,0,58,92
86112,note_on,,0,0,1,,,,,,0,69,92
86112,note_off,,96,0,1,,,,,,0,77,64
86208,note_off,,96,0,1,,,,,,0,69,64
86208,note_on,,0,0,1,,,,,,0,70,92
86304,note_off,,96,0,1,,,,,,0,70,64
86304,note_off,,0,0,1,,,,,,0,65,64
86304,note_on,,0,0,1,,,,,,0,63,92
86304,note_on,,0,0,1,,,,,,0,72,92
86304,note_on,,0,0,3,,,,,,0,51,102
86304,note_off,,288,0,3,,,,,,0,50,64
86400,note_off,,96,0,3,,,,,,0,51,64
86400,note_on,,0,0,1,,,,,,0,62,92
86400,note_on,,0,0,1,,,,,,0,65,92
86400,note_off,,0,0,1,,,,,,0,63,64
86400,note_off,,96,0,1,,,,,,0,72,64
86400,note_on,,0,0,3,,,,,,0,53,102
86496,note_off,,96,0,1,,,,,,0,65,64
86496,note_on,,0,0,1,,,,,,0,70,92
86592,note_off,,192,0,3,,,,,,0,53,64
86592,note_off,,96,0,1,,,,,,0,70,64
86592,note_off,,0,0,1,,,,,,0,62,64
86592,note_on,,0,0,1,,,,,,0,63,92
86592,note_off,,576,0,2,,,,,,0,58,64
86592,note_on,,0,0,2,,,,,,0,53,92
86592,note_on,,0,0,2,,,,,,0,60,92
86592,note_on,,0,0,3,,,,,,0,41,102
86688,note_off,,96,0,1,,,,,,0,63,64
86688,note_on,,0,0,1,,,,,,0,69,92
86784,note_on,,0,0,3,,,,,,0,46,102
86784,note_off,,96,0,1,,,,,,0,69,64
86784,note_on,,0,0,1,,,,,,0,62,92
86784,note_on,,0,0,2,,,,,,0,58,92
86784,note_off,,192,0,3,,,,,,0,41,64
86784,note_on,,0,0,2,,,,,,0,53,92
86784,note_off,,0,0,2,,,,,,0,53,64
86784,note_on,,0,0,1,,,,,,0,70,92
86784,note_off,,192,0,2,,,,,,0,60,64
86880,note_on,,0,0,3,,,,,,0,45,102
86880,note_off,,96,0,3,,,,,,0,46,64
86976,note_on,,0,0,3,,,,,,0,46,102
86976,note_off,,96,0,3,,,,,,0,45,64
87072,note_on,,0,0,3,,,,,,0,41,102
87072,note_off,,96,0,3,,,,,,0,46,64
87168,note_off,,384,0,1,,,,,,0,70,64
87168,note_off,,0,0,1,,,,,,0,62,64
87168,note_on,,0,0,3,,,,,,0,46,102
87168,note_off,,384,0,2,,,,,,0,58,64
87168,note_off,,0,0,2,,,,,,0,53,64
87168,note_off,,96,0,3,,,,,,0,41,64
87264,note_on,,0,0,3,,,,,,0,41,102
87264,note_off,,96,0,3,,,,,,0,46,64
87360,note_on,,192,0,1,,,,,,0,63,92
87360,note_on,,0,0,1,,,,,,0,69,92
87360,note_off,,96,0,3,,,,,,0,41,64
87360,note_on,,192,0,2,,,,,,0,53,92
87360,note_on,,0,0,2,,,,,,0,60,92
87360,note_on,,0,0,3,,,,,,0,48,102
87456,note_on,,0,0,3,,,,,,0,41,102
87456,note_off,,96,0,3,,,,,,0,48,64
87552,note_on,,0,0,1,,,,,,0,70,92
87552,note_on,,0,0,2,,,,,,0,58,92
87552,note_off,,0,0,1,,,,,,0,63,64
87552,note_off,,192,0,1,,,,,,0,69,64
87552,note_off,,96,0,3,,,,,,0,41,64
87552,note_off,,0,0,2,,,,,,0,53,64
87552,note_on,,0,0,3,,,,,,0,50,102
87552,note_on,,0,0,2,,,,,,0,53,92
87552,note_off,,192,0,2,,,,,,0,60,64
87552,note_on,,0,0,1,,,,,,0,62,92
87648,note_off,,96,0,1,,,,,,0,70,64
87648,note_on,,0,0,1,,,,,,0,69,92
87744,note_off,,96,0,1,,,,,,0,69,64
87744,note_on,,0,0,1,,,,,,0,70,92
87840,note_off,,96,0,1,,,,,,0,70,64
87840,note_on,,0,0,1,,,,,,0,65,92
87936,note_off,,0,0,2,,,,,,0,58,64
87936,note_off,,384,0,2,,,,,,0,53,64
87936,note_off,,96,0,1,,,,,,0,65,64
87936,note_off,,0,0,1,,,,,,0,62,64
87936,note_on,,0,0,1,,,,,,0,70,92
87936,note_off,,384,0,3,,,,,,0,50,64
88032,note_on,,0,0,1,,,,,,0,65,92
88032,note_off,,96,0,1,,,,,,0,70,64
88128,note_on,,0,0,1,,,,,,0,72,92
88128,note_on,,0,0,1,,,,,,0,60,92
88128,note_off,,96,0,1,,,,,,0,65,64
88128,note_on,,192,0,3,,,,,,0,53,102
88128,note_on,,192,0,2,,,,,,0,57,92
88224,note_on,,0,0,1,,,,,,0,65,92
88224,note_off,,96,0,1,,,,,,0,72,64
88320,note_off,,0,0,1,,,,,,0,60,64
88320,note_on,,0,0,1,,,,,,0,74,92
88320,note_on,,0,0,2,,,,,,0,58,92
88320,note_off,,192,0,3,,,,,,0,53,64
88320,note_off,,192,0,2,,,,,,0,57,64
88320,note_on,,0,0,1,,,,,,0,65,92
88320,note_off,,96,0,1,,,,,,0,65,64
88320,note_on,,0,0,3,,,,,,0,46,102
88416,note_on,,0,0,1,,,,,,0,63,92
88416,note_off,,96,0,1,,,,,,0,65,64
88512,note_off,,96,0,1,,,,,,0,63,64
88512,note_on,,0,0,1,,,,,,0,65,92
88608,note_off,,96,0,1,,,,,,0,65,64
88608,note_on,,0,0,1,,,,,,0,58,92
88704,note_off,,384,0,2,,,,,,0,58,64
88704,note_on,,0,0,1,,,,,,0,65,92
88704,note_off,,384,0,3,,,,,,0,46,64
88704,note_off,,96,0,1,,,,,,0,58,64
88800,note_off,,96,0,1,,,,,,0,65,64
88800,note_on,,0,0,1,,,,,,0,58,92
88896,note_off,,96,0,1,,,,,,0,58,64
88896,note_on,,0,0,1,,,,,,0,67,92
88992,note_off,,96,0,1,,,,,,0,67,64
88992,note_on,,0,0,1,,,,,,0,58,92
89088,note_on,,384,0,3,,,,,,0,53,102
89088,note_off,,96,0,1,,,,,,0,58,64
89088,note_off,,0,0,1,,,,,,0,74,64
89088,note_on,,0,0,1,,,,,,0,69,92
89088,note_on,,0,0,1,,,,,,0,72,92
89184,note_off,,96,0,1,,,,,,0,72,64
89184,note_on,,0,0,1,,,,,,0,70,92
89280,note_on,,0,0,1,,,,,,0,72,92
89280,note_off,,96,0,1,,,,,,0,70,64
89376,note_on,,0,0,1,,,,,,0,65,92
89376,note_off,,96,0,1,,,,,,0,72,64
89472,note_off,,96,0,1,,,,,,0,65,64
89472,note_on,,0,0,1,,,,,,0,72,92
89472,note_off,,384,0,3,,,,,,0,53,64
89568,note_off,,96,0,1,,,,,,0,72,64
89568,note_on,,0,0,1,,,,,,0,65,92
89664,note_on,,0,0,1,,,,,,0,74,92
89664,note_off,,96,0,1,,,,,,0,65,64
89760,note_off,,96,0,1,,,,,,0,74,64
89760,note_on,,0,0,1,,,,,,0,65,92
89856,note_off,,96,0,1,,,,,,0,65,64
89856,note_off,,0,0,1,,,,,,0,69,64
89856,note_on,,0,0,1,,,,,,0,67,92
89856,note_on,,384,0,3,,,,,,0,48,102
89856,note_on,,0,0,1,,,,,,0,75,92
89952,note_off,,96,0,1,,,,,,0,67,64
89952,note_on,,0,0,1,,,,,,0,65,92
90048,note_off,,96,0,1,,,,,,0,65,64
90048,note_on,,0,0,1,,,,,,0,67,92
90144,note_off,,96,0,1,,,,,,0,67,64
90144,note_on,,0,0,1,,,,,,0,60,92
90240,note_off,,384,0,3,,,,,,0,48,64
90240,note_off,,96,0,1,,,,,,0,60,64
90240,note_on,,0,0,1,,,,,,0,67,92
90336,note_off,,96,0,1,,,,,,0,67,64
90336,note_on,,0,0,1,,,,,,0,60,92
90432,note_off,,96,0,1,,,,,,0,60,64
90432,note_on,,0,0,1,,,,,,0,69,92
90528,note_off,,96,0,1,,,,,,0,69,64
90528,note_on,,0,0,1,,,,,,0,60,92
90624,note_on,,0,0,1,,,,,,0,74,92
90624,note_on,,384,0,3,,,,,,0,55,102
90624,note_on,,0,0,1,,,,,,0,70,92
90624,note_off,,96,0,1,,,,,,0,60,64
90624,note_off,,0,0,1,,,,,,0,75,64
90720,note_off,,96,0,1,,,,,,0,74,64
90720,note_on,,0,0,1,,,,,,0,72,92
90816,note_off,,96,0,1,,,,,,0,72,64
90816,note_on,,0,0,1,,,,,,0,74,92
90912,note_off,,96,0,1,,,,,,0,74,64
90912,note_on,,0,0,1,,,,,,0,67,92
91008,note_off,,384,0,3,,,,,,0,55,64
91008,note_on,,0,0,1,,,,,,0,74,92
91008,note_off,,96,0,1,,,,,,0,67,64
91104,note_off,,96,0,1,,,,,,0,74,64
91104,note_on,,0,0,1,,,,,,0,67,92
91200,note_off,,96,0,1,,,,,,0,67,64
91200,note_on,,0,0,1,,,,,,0,76,92
91296,note_off,,96,0,1,,,,,,0,76,64
91296,note_on,,0,0,1,,,,,,0,67,92
91392,note_off,,96,0,1,,,,,,0,67,64
91392,note_off,,0,0,1,,,,,,0,70,64
91392,note_on,,0,0,1,,,,,,0,69,92
91392,note_on,,384,0,3,,,,,,0,50,102
91392,note_on,,0,0,1,,,,,,0,77,92
91488,note_off,,96,0,1,,,,,,0,77,64
91488,note_off,,0,0,1,,,,,,0,69,64
91488,note_on,,0,0,1,,,,,,0,67,92
91488,note_on,,0,0,1,,,,,,0,76,92
91584,note_off,,192,0,3,,,,,,0,50,64
91584,note_on,,0,0,3,,,,,,0,48,102
91584,note_off,,0,0,1,,,,,,0,67,64
91584,note_off,,96,0,1,,,,,,0,76,64
91584,note_on,,0,0,1,,,,,,0,77,92
91584,note_on,,0,0,1,,,,,,0,69,92
91680,note_off,,0,0,1,,,,,,0,69,64
91680,note_on,,0,0,1,,,,,,0,65,92
91680,note_on,,0,0,1,,,,,,0,74,92
91680,note_off,,96,0,1,,,,,,0,77,64
91776,note_off,,96,0,1,,,,,,0,74,64
91776,note_off,,0,0,1,,,,,,0,65,64
91776,note_on,,0,0,1,,,,,,0,79,92
91776,note_on,,0,0,1,,,,,,0,62,92
91776,note_off,,192,0,3,,,,,,0,48,64
91776,note_on,,0,0,3,,,,,,0,46,102
91872,note_off,,96,0,1,,,,,,0,79,64
91872,note_on,,0,0,1,,,,,,0,76,92
91872,note_on,,0,0,1,,,,,,0,65,92
91872,note_off,,0,0,1,,,,,,0,62,64
91968,note_off,,96,0,1,,,,,,0,76,64
91968,note_off,,0,0,1,,,,,,0,65,64
91968,note_on,,0,0,1,,,,,,0,64,92
91968,note_on,,0,0,1,,,,,,0,77,92
92064,note_off,,0,0,1,,,,,,0,64,64
92064,note_on,,0,0,1,,,,,,0,62,92
92064,note_off,,96,0,1,,,,,,0,77,64
92064,note_on,,0,0,1,,,,,,0,79,92
92160,note_on,,0,0,3,,,,,,0,45,102
92160,note_off,,384,0,3,,,,,,0,46,64
92160,note_off,,96,0,1,,,,,,0,79,64
92160,note_on,,0,0,1,,,,,,0,64,92
92160,note_off,,0,0,1,,,,,,0,62,64
92160,note_on,,0,0,1,,,,,,0,74,92
92208,note_on,,0,0,1,,,,,,0,73,92
92208,note_off,,48,0,1,,,,,,0,74,64
92256,note_off,,48,0,1,,,,,,0,73,64
92256,note_off,,0,0,1,,,,,,0,64,64
92256,note_on,,0,0,1,,,,,,0,74,92
92256,note_on,,0,0,1,,,,,,0,62,92
92304,note_on,,0,0,1,,,,,,0,73,92
92304,note_off,,48,0,1,,,,,,0,74,64
92352,note_off,,48,0,1,,,,,,0,73,64
92352,note_off,,0,0,1,,,,,,0,62,64
92352,note_on,,0,0,1,,,,,,0,74,92
92352,note_on,,0,0,1,,,,,,0,64,92
92400,note_off,,48,0,1,,,,,,0,74,64
92400,note_on,,0,0,1,,,,,,0,73,92
92448,note_off,,48,0,1,,,,,,0,73,64
92448,note_on,,0,0,1,,,,,,0,57,92
92448,note_on,,0,0,1,,,,,,0,74,92
92448,note_off,,0,0,1,,,,,,0,64,64
92496,note_on,,0,0,1,,,,,,0,73,92
92496,note_off,,48,0,1,,,,,,0,74,64
92544,note_off,,0,0,1,,,,,,0,57,64
92544,note_on,,0,0,1,,,,,,0,74,92
92544,note_on,,0,0,1,,,,,,0,64,92
92544,note_off,,384,0,3,,,,,,0,45,64
92544,note_off,,48,0,1,,,,,,0,73,64
92592,note_on,,0,0,1,,,,,,0,73,92
92592,note_off,,48,0,1,,,,,,0,74,64
92640,note_on,,0,0,1,,,,,,0,74,92
92640,note_off,,0,0,1,,,,,,0,64,64
92640,note_off,,48,0,1,,,,,,0,73,64
92640,note_on,,0,0,1,,,,,,0,57,92
92688,note_on,,0,0,1,,,,,,0,73,92
92688,note_off,,48,0,1,,,,,,0,74,64
92736,note_off,,48,0,1,,,,,,0,73,64
92736,note_on,,0,0,1,,,,,,0,74,92
92736,note_on,,0,0,1,,,,,,0,65,92
92736,note_off,,0,0,1,,,,,,0,57,64
92784,note_off,,48,0,1,,,,,,0,74,64
92784,note_on,,0,0,1,,,,,,0,73,92
92832,note_off,,0,0,1,,,,,,0,65,64
92832,note_off,,48,0,1,,,,,,0,73,64
92832,note_on,,0,0,1,,,,,,0,74,92
92832,note_on,,0,0,1,,,,,,0,57,92
92880,note_off,,48,0,1,,,,,,0,74,64
92880,note_on,,0,0,1,,,,,,0,73,92
92928,note_off,,48,0,1,,,,,,0,73,64
92928,note_off,,0,0,1,,,,,,0,57,64
92928,note_on,,0,0,1,,,,,,0,74,92
92928,note_on,,0,0,1,,,,,,0,67,92
92928,note_on,,384,0,3,,,,,,0,45,102
92976,note_on,,0,0,1,,,,,,0,73,92
92976,note_off,,48,0,1,,,,,,0,74,64
93024,note_off,,48,0,1,,,,,,0,73,64
93024,note_on,,0,0,1,,,,,,0,71,92
93120,note_off,,96,0,1,,,,,,0,71,64
93120,note_on,,0,0,1,,,,,,0,73,92
93216,note_off,,96,0,1,,,,,,0,73,64
93216,note_on,,0,0,1,,,,,,0,64,92
93312,note_off,,384,0,3,,,,,,0,45,64
93312,note_on,,0,0,1,,,,,,0,71,92
93312,note_off,,96,0,1,,,,,,0,64,64
93408,note_on,,0,0,1,,,,,,0,64,92
93408,note_off,,96,0,1,,,,,,0,71,64
93504,note_on,,0,0,1,,,,,,0,73,92
93504,note_off,,96,0,1,,,,,,0,64,64
93600,note_off,,96,0,1,,,,,,0,73,64
93600,note_on,,0,0,1,,,,,,0,64,92
93696,note_off,,96,0,1,,,,,,0,64,64
93696,note_off,,0,0,1,,,,,,0,67,64
93696,note_on,,0,0,1,,,,,,0,65,92
93696,note_on,,0,0,1,,,,,,0,74,92
93696,note_on,,384,0,3,,,,,,0,38,102
93792,note_on,,0,0,1,,,,,,0,64,92
93792,note_off,,96,0,1,,,,,,0,74,64
93792,note_on,,0,0,1,,,,,,0,73,92
93792,note_off,,0,0,1,,,,,,0,65,64
93888,note_off,,96,0,1,,,,,,0,73,64
93888,note_off,,0,0,1,,,,,,0,64,64
93888,note_on,,0,0,1,,,,,,0,65,92
93888,note_on,,0,0,1,,,,,,0,74,92
93984,note_off,,96,0,1,,,,,,0,74,64
93984,note_off,,0,0,1,,,,,,0,65,64
93984,note_on,,0,0,1,,,,,,0,57,92
93984,note_on,,0,0,1,,,,,,0,77,92
94080,note_off,,96,0,1,,,,,,0,77,64
94080,note_off,,0,0,1,,,,,,0,57,64
94080,note_on,,0,0,1,,,,,,0,64,92
94080,note_on,,0,0,1,,,,,,0,73,92
94176,note_off,,96,0,1,,,,,,0,73,64
94176,note_off,,0,0,1,,,,,,0,64,64
94176,note_on,,0,0,1,,,,,,0,62,92
94176,note_on,,0,0,1,,,,,,0,71,92
94272,note_off,,0,0,1,,,,,,0,62,64
94272,note_on,,0,0,1,,,,,,0,64,92
94272,note_off,,96,0,1,,,,,,0,71,64
94272,note_on,,0,0,1,,,,,,0,73,92
94368,note_on,,0,0,1,,,,,,0,57,92
94368,note_on,,0,0,1,,,,,,0,76,92
94368,note_off,,0,0,1,,,,,,0,64,64
94368,note_off,,96,0,1,,,,,,0,73,64
94464,note_off,,96,0,1,,,,,,0,76,64
94464,note_off,,0,0,1,,,,,,0,57,64
94464,note_on,,0,0,1,,,,,,0,65,92
94464,note_on,,0,0,1,,,,,,0,74,92
94560,note_off,,96,0,1,,,,,,0,74,64
94560,note_off,,0,0,1,,,,,,0,65,64
94560,note_on,,0,0,1,,,,,,0,64,92
94560,note_on,,0,0,1,,,,,,0,73,92
94656,note_on,,0,0,1,,,,,,0,65,92
94656,note_off,,96,0,1,,,,,,0,73,64
94656,note_off,,0,0,1,,,,,,0,64,64
94656,note_on,,0,0,1,,,,,,0,74,92
94752,note_on,,0,0,1,,,,,,0,57,92
94752,note_off,,0,0,1,,,,,,0,65,64
94752,note_off,,96,0,1,,,,,,0,74,64
94752,note_on,,0,0,1,,,,,,0,77,92
94848,note_on,,0,0,1,,,,,,0,73,92
94848,note_off,,96,0,1,,,,,,0,77,64
94848,note_off,,0,0,1,,,,,,0,57,64
94848,note_on,,0,0,1,,,,,,0,64,92
94944,note_off,,96,0,1,,,,,,0,73,64
94944,note_off,,0,0,1,,,,,,0,64,64
94944,note_on,,0,0,1,,,,,,0,71,92
94944,note_on,,0,0,1,,,,,,0,62,92
95040,note_off,,96,0,1,,,,,,0,71,64
95040,note_off,,0,0,1,,,,,,0,62,64
95040,note_on,,0,0,1,,,,,,0,64,92
95040,note_on,,0,0,1,,,,,,0,73,92
95136,note_on,,0,0,1,,,,,,0,57,92
95136,note_off,,96,0,1,,,,,,0,73,64
95136,note_off,,0,0,1,,,,,,0,64,64
95136,note_on,,0,0,1,,,,,,0,76,92
95232,note_on,,0,0,3,,,,,,0,50,102
95232,note_off,,96,0,1,,,,,,0,76,64
95232,note_off,,0,0,1,,,,,,0,57,64
95232,note_on,,0,0,1,,,,,,0,66,92
95232,note_on,,0,0,1,,,,,,0,72,92
95232,note_off,,1536,0,3,,,,,,0,38,64
95328,note_on,,0,0,1,,,,,,0,70,92
95328,note_off,,96,0,1,,,,,,0,72,64
95328,note_off,,0,0,1,,,,,,0,66,64
95328,note_on,,0,0,1,,,,,,0,64,92
95424,note_off,,96,0,1,,,,,,0,70,64
95424,note_off,,0,0,1,,,,,,0,64,64
95424,note_on,,0,0,1,,,,,,0,72,92
95424,note_on,,0,0,1,,,,,,0,66,92
95520,note_off,,0,0,1,,,,,,0,66,64
95520,note_off,,96,0,1,,,,,,0,72,64
95520,note_on,,0,0,1,,,,,,0,74,92
95520,note_on,,0,0,1,,,,,,0,62,92
95616,note_off,,96,0,1,,,,,,0,74,64
95616,note_off,,0,0,1,,,,,,0,62,64
95616,note_on,,0,0,1,,,,,,0,67,92
95616,note_on,,0,0,1,,,,,,0,70,92
95712,note_off,,96,0,1,,,,,,0,70,64
95712,note_on,,0,0,1,,,,,,0,69,92
95712,note_on,,0,0,1,,,,,,0,66,92
95712,note_off,,0,0,1,,,,,,0,67,64
95808,note_off,,96,0,1,,,,,,0,69,64
95808,note_off,,0,0,1,,,,,,0,66,64
95808,note_on,,0,0,1,,,,,,0,67,92
95808,note_on,,0,0,1,,,,,,0,70,92
95904,note_on,,0,0,1,,,,,,0,74,92
95904,note_off,,96,0,1,,,,,,0,70,64
95904,note_off,,0,0,1,,,,,,0,67,64
95904,note_on,,0,0,1,,,,,,0,62,92
96000,note_on,,0,0,1,,,,,,0,72,92
96000,note_on,,0,0,1,,,,,,0,66,92
96000,note_off,,96,0,1,,,,,,0,74,64
96000,note_off,,0,0,1,,,,,,0,62,64
96096,note_off,,96,0,1,,,,,,0,72,64
96096,note_off,,0,0,1,,,,,,0,66,64
96096,note_on,,0,0,1,,,,,,0,64,92
96096,note_on,,0,0,1,,,,,,0,70,92
96192,note_off,,96,0,1,,,,,,0,70,64
96192,note_off,,0,0,1,,,,,,0,64,64
96192,note_on,,0,0,1,,,,,,0,66,92
96192,note_on,,0,0,1,,,,,,0,72,92
96288,note_off,,96,0,1,,,,,,0,72,64
96288,note_off,,0,0,1,,,,,,0,66,64
96288,note_on,,0,0,1,,,,,,0,62,92
96288,note_on,,0,0,1,,,,,,0,74,92
96384,note_on,,0,0,1,,,,,,0,67,92
96384,note_off,,0,0,1,,,,,,0,62,64
96384,note_on,,0,0,1,,,,,,0,70,92
96384,note_off,,96,0,1,,,,,,0,74,64
96480,note_off,,96,0,1,,,,,,0,70,64
96480,note_off,,0,0,1,,,,,,0,67,64
96480,note_on,,0,0,1,,,,,,0,66,92
96480,note_on,,0,0,1,,,,,,0,69,92
96576,note_off,,96,0,1,,,,,,0,69,64
96576,note_off,,0,0,1,,,,,,0,66,64
96576,note_on,,0,0,1,,,,,,0,67,92
96576,note_on,,0,0,1,,,,,,0,70,92
96672,note_on,,0,0,1,,,,,,0,74,92
96672,note_on,,0,0,1,,,,,,0,62,92
96672,note_off,,96,0,1,,,,,,0,70,64
96672,note_off,,0,0,1,,,,,,0,67,64
96768,note_on,,8064,0,2,,,,,,0,62,92
96768,note_on,,0,0,2,,,,,,0,57,92
96768,note_off,,96,0,1,,,,,,0,74,64
96768,note_off,,0,0,1,,,,,,0,62,64
96768,note_on,,0,0,1,,,,,,0,74,92
96768,note_on,,0,0,1,,,,,,0,66,92
96768,note_on,,0,0,1,,,,,,0,69,92
96816,note_on,,0,0,1,,,,,,0,72,92
96816,note_off,,48,0,1,,,,,,0,74,64
96864,note_off,,1632,0,3,,,,,,0,50,64
96864,note_on,,0,0,3,,,,,,0,48,102
96864,note_on,,0,0,1,,,,,,0,74,92
96864,note_off,,48,0,1,,,,,,0,72,64
96912,note_on,,0,0,1,,,,,,0,72,92
96912,note_off,,48,0,1,,,,,,0,74,64
96960,note_on,,0,0,3,,,,,,0,50,102
96960,note_off,,96,0,3,,,,,,0,48,64
96960,note_off,,48,0,1,,,,,,0,72,64
96960,note_on,,0,0,1,,,,,,0,74,92
97008,note_off,,48,0,1,,,,,,0,74,64
97008,note_on,,0,0,1,,,,,,0,72,92
97056,note_on,,0,0,3,,,,,,0,45,102
97056,note_off,,96,0,3,,,,,,0,50,64
97056,note_on,,0,0,1,,,,,,0,74,92
97056,note_off,,48,0,1,,,,,,0,72,64
97104,note_off,,48,0,1,,,,,,0,74,64
97104,note_on,,0,0,1,,,,,,0,72,92
97152,note_off,,48,0,1,,,,,,0,72,64
97152,note_on,,0,0,1,,,,,,0,74,92
97152,note_on,,0,0,3,,,,,,0,50,102
97152,note_off,,96,0,3,,,,,,0,45,64
97200,note_off,,48,0,1,,,,,,0,74,64
97200,note_on,,0,0,1,,,,,,0,72,92
97248,note_on,,0,0,3,,,,,,0,45,102
97248,note_off,,96,0,3,,,,,,0,50,64
97248,note_on,,0,0,1,,,,,,0,74,92
97248,note_off,,48,0,1,,,,,,0,72,64
97296,note_on,,0,0,1,,,,,,0,72,92
97296,note_off,,48,0,1,,,,,,0,74,64
97344,note_off,,48,0,1,,,,,,0,72,64
97344,note_on,,0,0,3,,,,,,0,52,102
97344,note_on,,0,0,1,,,,,,0,74,92
97344,note_off,,96,0,3,,,,,,0,45,64
97392,note_off,,48,0,1,,,,,,0,74,64
97392,note_on,,0,0,1,,,,,,0,72,92
97440,note_off,,96,0,3,,,,,,0,52,64
97440,note_on,,0,0,3,,,,,,0,45,102
97440,note_on,,0,0,1,,,,,,0,74,92
97440,note_off,,48,0,1,,,,,,0,72,64
97488,note_on,,0,0,1,,,,,,0,72,92
97488,note_off,,48,0,1,,,,,,0,74,64
97536,note_off,,48,0,1,,,,,,0,72,64
97536,note_on,,0,0,1,,,,,,0,74,92
97536,note_off,,96,0,3,,,,,,0,45,64
97536,note_on,,0,0,3,,,,,,0,54,102
97584,note_off,,48,0,1,,,,,,0,74,64
97584,note_on,,0,0,1,,,,,,0,72,92
97632,note_on,,0,0,3,,,,,,0,52,102
97632,note_off,,48,0,1,,,,,,0,72,64
97632,note_on,,0,0,1,,,,,,0,74,92
97632,note_off,,96,0,3,,,,,,0,54,64
97680,note_on,,0,0,1,,,,,,0,72,92
97680,note_off,,48,0,1,,,,,,0,74,64
97728,note_off,,96,0,3,,,,,,0,52,64
97728,note_on,,0,0,3,,,,,,0,54,102
97728,note_on,,0,0,1,,,,,,0,74,92
97728,note_off,,48,0,1,,,,,,0,72,64
97776,note_on,,0,0,1,,,,,,0,72,92
97776,note_off,,48,0,1,,,,,,0,74,64
97824,note_off,,48,0,1,,,,,,0,72,64
97824,note_on,,0,0,1,,,,,,0,74,92
97824,note_on,,0,0,3,,,,,,0,50,102
97824,note_off,,96,0,3,,,,,,0,54,64
97872,note_off,,48,0,1,,,,,,0,74,64
97872,note_on,,0,0,1,,,,,,0,72,92
97920,note_on,,0,0,1,,,,,,0,74,92
97920,note_off,,96,0,3,,,,,,0,50,64
97920,note_on,,0,0,3,,,,,,0,54,102
97920,note_off,,48,0,1,,,,,,0,72,64
97968,note_on,,0,0,1,,,,,,0,72,92
97968,note_off,,48,0,1,,,,,,0,74,64
98016,note_off,,48,0,1,,,,,,0,72,64
98016,note_on,,0,0,1,,,,,,0,74,92
98016,note_off,,96,0,3,,,,,,0,54,64
98016,note_on,,0,0,3,,,,,,0,50,102
98064,note_on,,0,0,1,,,,,,0,72,92
98064,note_off,,48,0,1,,,,,,0,74,64
98112,note_on,,0,0,3,,,,,,0,57,102
98112,note_off,,96,0,3,,,,,,0,50,64
98112,note_off,,48,0,1,,,,,,0,72,64
98112,note_on,,0,0,1,,,,,,0,74,92
98160,note_off,,48,0,1,,,,,,0,74,64
98160,note_on,,0,0,1,,,,,,0,72,92
98208,note_off,,48,0,1,,,,,,0,72,64
98208,note_on,,0,0,1,,,,,,0,74,92
98208,note_off,,96,0,3,,,,,,0,57,64
98208,note_on,,0,0,3,,,,,,0,48,102
98256,note_off,,48,0,1,,,,,,0,74,64
98256,note_on,,0,0,1,,,,,,0,72,92
98304,note_off,,48,0,1,,,,,,0,72,64
98304,note_on,,0,0,1,,,,,,0,74,92
98304,note_off,,96,0,3,,,,,,0,48,64
98304,note_on,,0,0,3,,,,,,0,46,102
98352,note_off,,48,0,1,,,,,,0,74,64
98352,note_on,,0,0,1,,,,,,0,72,92
98400,note_on,,0,0,1,,,,,,0,64,92
98400,note_off,,0,0,1,,,,,,0,66,64
98400,note_off,,48,0,1,,,,,,0,72,64
98400,note_on,,0,0,1,,,,,,0,74,92
98448,note_on,,0,0,1,,,,,,0,72,92
98448,note_off,,48,0,1,,,,,,0,74,64
98496,note_off,,0,0,1,,,,,,0,64,64
98496,note_on,,0,0,1,,,,,,0,74,92
98496,note_on,,0,0,1,,,,,,0,66,92
98496,note_off,,48,0,1,,,,,,0,72,64
98544,note_off,,48,0,1,,,,,,0,74,64
98544,note_on,,0,0,1,,,,,,0,72,92
98592,note_on,,0,0,1,,,,,,0,74,92
98592,note_on,,0,0,1,,,,,,0,62,92
98592,note_off,,0,0,1,,,,,,0,66,64
98592,note_off,,48,0,1,,,,,,0,72,64
98640,note_on,,0,0,1,,,,,,0,72,92
98640,note_off,,48,0,1,,,,,,0,74,64
98688,note_off,,0,0,1,,,,,,0,62,64
98688,note_off,,0,0,1,,,,,,0,69,64
98688,note_on,,0,0,1,,,,,,0,67,92
98688,note_on,,0,0,1,,,,,,0,70,92
98688,note_off,,48,0,1,,,,,,0,72,64
98688,note_on,,0,0,2,,,,,,0,55,92
98688,note_off,,1920,0,2,,,,,,0,57,64
98784,note_on,,0,0,2,,,,,,0,64,92
98784,note_off,,96,0,2,,,,,,0,62,64
98880,note_on,,0,0,2,,,,,,0,61,92
98880,note_off,,96,0,2,,,,,,0,64,64
98880,note_on,,0,0,3,,,,,,0,52,102
98880,note_off,,576,0,3,,,,,,0,46,64
98976,note_off,,96,0,2,,,,,,0,61,64
98976,note_on,,0,0,2,,,,,,0,62,92
99072,note_off,,192,0,3,,,,,,0,52,64
99072,note_off,,96,0,2,,,,,,0,62,64
99072,note_on,,0,0,3,,,,,,0,49,102
99072,note_on,,0,0,2,,,,,,0,64,92
99168,note_on,,0,0,1,,,,,,0,69,92
99168,note_off,,480,0,1,,,,,,0,70,64
99264,note_off,,96,0,1,,,,,,0,69,64
99264,note_on,,0,0,1,,,,,,0,70,92
99264,note_on,,0,0,2,,,,,,0,53,92
99264,note_off,,192,0,2,,,,,,0,55,64
99360,note_off,,96,0,1,,,,,,0,70,64
99360,note_off,,0,0,1,,,,,,0,67,64
99360,note_on,,0,0,1,,,,,,0,67,92
99456,note_on,,96,0,1,,,,,,0,69,92
99456,note_off,,192,0,2,,,,,,0,53,64
99456,note_on,,0,0,2,,,,,,0,52,92
99552,note_on,,0,0,1,,,,,,0,65,92
99552,note_off,,96,0,1,,,,,,0,67,64
99552,note_on,,0,0,2,,,,,,0,62,92
99552,note_off,,96,0,2,,,,,,0,64,64
99648,note_on,,0,0,3,,,,,,0,57,102
99648,note_on,,0,0,2,,,,,,0,64,92
99648,note_on,,0,0,1,,,,,,0,67,92
99648,note_off,,96,0,1,,,,,,0,65,64
99648,note_on,,0,0,2,,,,,,0,57,92
99648,note_off,,0,0,2,,,,,,0,52,64
99648,note_off,,96,0,2,,,,,,0,62,64
99648,note_off,,576,0,3,,,,,,0,49,64
99744,note_on,,0,0,1,,,,,,0,64,92
99744,note_off,,96,0,2,,,,,,0,64,64
99744,note_off,,96,0,1,,,,,,0,67,64
99744,note_on,,0,0,2,,,,,,0,61,92
99840,note_off,,192,0,3,,,,,,0,57,64
99840,note_on,,0,0,3,,,,,,0,50,102
99840,note_on,,0,0,1,,,,,,0,65,92
99840,note_off,,96,0,1,,,,,,0,64,64
99840,note_on,,0,0,2,,,,,,0,62,92
99840,note_off,,96,0,2,,,,,,0,61,64
99936,note_on,,0,0,2,,,,,,0,61,92
99936,note_off,,96,0,1,,,,,,0,65,64
99936,note_off,,96,0,2,,,,,,0,62,64
99936,note_on,,0,0,1,,,,,,0,64,92
100032,note_off,,0,0,1,,,,,,0,69,64
100032,note_on,,0,0,1,,,,,,0,69,92
100032,note_on,,0,0,1,,,,,,0,65,92
100032,note_on,,0,0,3,,,,,,0,53,102
100032,note_off,,96,0,1,,,,,,0,64,64
100032,note_on,,0,0,2,,,,,,0,62,92
100032,note_off,,96,0,2,,,,,,0,61,64
100032,note_off,,192,0,3,,,,,,0,50,64
100128,note_on,,0,0,1,,,,,,0,64,92
100128,note_off,,96,0,1,,,,,,0,65,64
100128,note_on,,0,0,2,,,,,,0,61,92
100128,note_off,,96,0,2,,,,,,0,62,64
100224,note_off,,192,0,3,,,,,,0,53,64
100224,note_on,,0,0,3,,,,,,0,46,102
100224,note_on,,0,0,2,,,,,,0,62,92
100224,note_off,,96,0,2,,,,,,0,61,64
100224,note_on,,0,0,1,,,,,,0,65,92
100224,note_on,,0,0,1,,,,,,0,74,92
100224,note_off,,0,0,1,,,,,,0,69,64
100224,note_off,,96,0,1,,,,,,0,64,64
100320,note_off,,96,0,1,,,,,,0,65,64
100320,note_on,,0,0,1,,,,,,0,69,92
100320,note_on,,0,0,2,,,,,,0,53,92
100320,note_off,,96,0,2,,,,,,0,57,64
100416,note_on,,0,0,2,,,,,,0,55,92
100416,note_on,,0,0,1,,,,,,0,70,92
100416,note_off,,96,0,1,,,,,,0,69,64
100416,note_off,,96,0,2,,,,,,0,53,64
100512,note_on,,0,0,2,,,,,,0,50,92
100512,note_off,,96,0,2,,,,,,0,55,64
100512,note_off,,96,0,1,,,,,,0,70,64
100512,note_on,,0,0,1,,,,,,0,67,92
100608,note_off,,0,0,2,,,,,,0,62,64
100608,note_on,,0,0,2,,,,,,0,64,92
100608,note_on,,0,0,3,,,,,,0,45,102
100608,note_on,,0,0,1,,,,,,0,73,92
100608,note_on,,0,0,1,,,,,,0,69,92
100608,note_off,,384,0,3,,,,,,0,46,64
100608,note_off,,96,0,1,,,,,,0,67,64
100608,note_off,,0,0,1,,,,,,0,74,64
100608,note_on,,0,0,2,,,,,,0,57,92
100608,note_off,,96,0,2,,,,,,0,50,64
100704,note_off,,96,0,1,,,,,,0,73,64
100704,note_on,,0,0,1,,,,,,0,71,92
100800,note_off,,0,0,1,,,,,,0,69,64
100800,note_off,,0,0,2,,,,,,0,64,64
100800,note_off,,192,0,2,,,,,,0,57,64
100800,note_off,,96,0,1,,,,,,0,71,64
100800,note_off,,192,0,3,,,,,,0,45,64
100800,note_on,,0,0,1,,,,,,0,73,92
100896,note_on,,0,0,1,,,,,,0,69,92
100896,note_off,,96,0,1,,,,,,0,73,64
100992,note_on,,192,0,2,,,,,,0,61,92
100992,note_on,,0,0,1,,,,,,0,76,92
100992,note_off,,96,0,1,,,,,,0,69,64
101088,note_on,,0,0,1,,,,,,0,69,92
101088,note_off,,96,0,1,,,,,,0,76,64
101088,note_on,,0,0,2,,,,,,0,59,92
101088,note_off,,96,0,2,,,,,,0,61,64
101184,note_on,,0,0,2,,,,,,0,61,92
101184,note_off,,96,0,2,,,,,,0,59,64
101184,note_off,,96,0,1,,,,,,0,69,64
101184,note_on,,0,0,1,,,,,,0,81,92
101280,note_off,,96,0,2,,,,,,0,61,64
101280,note_off,,96,0,1,,,,,,0,81,64
101280,note_on,,0,0,2,,,,,,0,57,92
101280,note_on,,0,0,1,,,,,,0,76,92
101376,note_off,,96,0,1,,,,,,0,76,64
101376,note_on,,0,0,1,,,,,,0,77,92
101376,note_off,,96,0,2,,,,,,0,57,64
101376,note_on,,0,0,2,,,,,,0,62,92
101472,note_on,,96,0,1,,,,,,0,73,92
101568,note_off,,192,0,2,,,,,,0,62,64
101568,note_on,,0,0,1,,,,,,0,74,92
101568,note_off,,96,0,1,,,,,,0,73,64
101664,note_on,,96,0,1,,,,,,0,69,92
101760,note_on,,192,0,2,,,,,,0,65,92
101856,note_on,,0,0,2,,,,,,0,62,92
101856,note_off,,96,0,2,,,,,,0,65,64
101952,note_on,,0,0,2,,,,,,0,69,92
101952,note_off,,96,0,2,,,,,,0,62,64
101952,note_off,,0,0,1,,,,,,0,77,64
101952,note_off,,0,0,1,,,,,,0,74,64
101952,note_off,,288,0,1,,,,,,0,69,64
102048,note_off,,96,0,2,,,,,,0,69,64
102048,note_on,,0,0,2,,,,,,0,57,92
102144,note_on,,0,0,2,,,,,,0,62,92
102144,note_off,,96,0,2,,,,,,0,57,64
102144,note_on,,192,0,1,,,,,,0,65,92
102240,note_off,,96,0,1,,,,,,0,65,64
102240,note_on,,0,0,1,,,,,,0,64,92
102336,note_on,,0,0,2,,,,,,0,50,92
102336,note_off,,192,0,2,,,,,,0,62,64
102336,note_off,,96,0,1,,,,,,0,64,64
102336,note_on,,0,0,1,,,,,,0,65,92
102432,note_off,,96,0,1,,,,,,0,65,64
102432,note_on,,0,0,1,,,,,,0,62,92
102528,note_on,,0,0,2,,,,,,0,53,92
102528,note_off,,96,0,1,,,,,,0,62,64
102528,note_off,,192,0,2,,,,,,0,50,64
102528,note_on,,0,0,1,,,,,,0,69,92
102624,note_off,,96,0,2,,,,,,0,53,64
102624,note_on,,0,0,2,,,,,,0,52,92
102624,note_off,,96,0,1,,,,,,0,69,64
102624,note_on,,0,0,1,,,,,,0,62,92
102720,note_off,,96,0,2,,,,,,0,52,64
102720,note_on,,0,0,2,,,,,,0,53,92
102720,note_off,,96,0,1,,,,,,0,62,64
102720,note_on,,0,0,1,,,,,,0,74,92
102816,note_off,,96,0,1,,,,,,0,74,64
102816,note_on,,0,0,1,,,,,,0,69,92
102816,note_off,,96,0,2,,,,,,0,53,64
102816,note_on,,0,0,2,,,,,,0,50,92
102912,note_off,,96,0,1,,,,,,0,69,64
102912,note_off,,96,0,2,,,,,,0,50,64
102912,note_on,,0,0,2,,,,,,0,55,92
102912,note_on,,0,0,1,,,,,,0,71,92
103008,note_on,,96,0,1,,,,,,0,66,92
103104,note_off,,192,0,2,,,,,,0,55,64
103104,note_off,,96,0,1,,,,,,0,66,64
103104,note_on,,0,0,1,,,,,,0,67,92
103200,note_on,,96,0,1,,,,,,0,62,92
103296,note_on,,192,0,2,,,,,,0,59,92
103392,note_off,,96,0,2,,,,,,0,59,64
103392,note_on,,0,0,2,,,,,,0,55,92
103488,note_off,,96,0,2,,,,,,0,55,64
103488,note_on,,0,0,2,,,,,,0,62,92
103488,note_off,,0,0,1,,,,,,0,71,64
103488,note_off,,0,0,1,,,,,,0,67,64
103488,note_off,,288,0,1,,,,,,0,62,64
103584,note_off,,96,0,2,,,,,,0,62,64
103584,note_on,,0,0,2,,,,,,0,50,92
103680,note_on,,0,0,2,,,,,,0,55,92
103680,note_off,,96,0,2,,,,,,0,50,64
103680,note_on,,192,0,1,,,,,,0,71,92
103776,note_off,,96,0,1,,,,,,0,71,64
103776,note_on,,0,0,1,,,,,,0,69,92
103872,note_on,,0,0,1,,,,,,0,71,92
103872,note_off,,192,0,2,,,,,,0,55,64
103872,note_on,,0,0,2,,,,,,0,43,92
103872,note_off,,96,0,1,,,,,,0,69,64
103968,note_off,,96,0,1,,,,,,0,71,64
103968,note_on,,0,0,1,,,,,,0,67,92
104064,note_off,,192,0,2,,,,,,0,43,64
104064,note_on,,0,0,2,,,,,,0,59,92
104064,note_off,,96,0,1,,,,,,0,67,64
104064,note_on,,0,0,1,,,,,,0,74,92
104160,note_off,,96,0,2,,,,,,0,59,64
104160,note_on,,0,0,2,,,,,,0,57,92
104160,note_off,,96,0,1,,,,,,0,74,64
104160,note_on,,0,0,1,,,,,,0,67,92
104256,note_off,,96,0,1,,,,,,0,67,64
104256,note_off,,96,0,2,,,,,,0,57,64
104256,note_on,,0,0,2,,,,,,0,59,92
104256,note_on,,0,0,1,,,,,,0,79,92
104352,note_off,,96,0,1,,,,,,0,79,64
104352,note_on,,0,0,1,,,,,,0,74,92
104352,note_off,,96,0,2,,,,,,0,59,64
104352,note_on,,0,0,2,,,,,,0,55,92
104448,note_on,,0,0,1,,,,,,0,76,92
104448,note_off,,96,0,1,,,,,,0,74,64
104448,note_off,,96,0,2,,,,,,0,55,64
104448,note_on,,0,0,2,,,,,,0,60,92
104544,note_on,,96,0,1,,,,,,0,71,92
104640,note_off,,192,0,2,,,,,,0,60,64
104640,note_on,,0,0,1,,,,,,0,72,92
104640,note_off,,96,0,1,,,,,,0,71,64
104736,note_on,,96,0,1,,,,,,0,67,92
104832,note_on,,192,0,2,,,,,,0,64,92
104928,note_off,,96,0,2,,,,,,0,64,64
104928,note_on,,0,0,2,,,,,,0,60,92
105024,note_off,,288,0,1,,,,,,0,67,64
105024,note_on,,0,0,2,,,,,,0,67,92
105024,note_off,,96,0,2,,,,,,0,60,64
105024,note_off,,0,0,1,,,,,,0,76,64
105024,note_off,,0,0,1,,,,,,0,72,64
105120,note_off,,96,0,2,,,,,,0,67,64
105120,note_on,,0,0,2,,,,,,0,55,92
105216,note_on,,0,0,2,,,,,,0,60,92
105216,note_off,,96,0,2,,,,,,0,55,64
105216,note_on,,192,0,1,,,,,,0,64,92
105312,note_off,,96,0,1,,,,,,0,64,64
105312,note_on,,0,0,1,,,,,,0,62,92
105408,note_off,,192,0,2,,,,,,0,60,64
105408,note_on,,0,0,2,,,,,,0,48,92
105408,note_on,,0,0,1,,,,,,0,64,92
105408,note_off,,96,0,1,,,,,,0,62,64
105504,note_on,,0,0,1,,,,,,0,60,92
105504,note_off,,96,0,1,,,,,,0,64,64
105600,note_on,,0,0,1,,,,,,0,67,92
105600,note_off,,96,0,1,,,,,,0,60,64
105600,note_on,,0,0,2,,,,,,0,52,92
105600,note_off,,192,0,2,,,,,,0,48,64
105696,note_off,,96,0,2,,,,,,0,52,64
105696,note_on,,0,0,2,,,,,,0,50,92
105696,note_off,,96,0,1,,,,,,0,67,64
105696,note_on,,0,0,1,,,,,,0,60,92
105792,note_on,,0,0,2,,,,,,0,52,92
105792,note_off,,96,0,2,,,,,,0,50,64
105792,note_off,,96,0,1,,,,,,0,60,64
105792,note_on,,0,0,1,,,,,,0,72,92
105888,note_on,,0,0,2,,,,,,0,48,92
105888,note_off,,96,0,1,,,,,,0,72,64
105888,note_on,,0,0,1,,,,,,0,67,92
105888,note_off,,96,0,2,,,,,,0,52,64
105984,note_on,,0,0,2,,,,,,0,53,92
105984,note_off,,96,0,1,,,,,,0,67,64
105984,note_on,,0,0,1,,,,,,0,69,92
105984,note_off,,96,0,2,,,,,,0,48,64
106080,note_on,,96,0,1,,,,,,0,64,92
106176,note_on,,0,0,1,,,,,,0,65,92
106176,note_off,,192,0,2,,,,,,0,53,64
106176,note_off,,96,0,1,,,,,,0,64,64
106272,note_on,,96,0,1,,,,,,0,60,92
106368,note_on,,192,0,2,,,,,,0,57,92
106464,note_off,,96,0,2,,,,,,0,57,64
106464,note_on,,0,0,2,,,,,,0,53,92
106560,note_on,,0,0,2,,,,,,0,60,92
106560,note_off,,96,0,2,,,,,,0,53,64
106560,note_off,,0,0,1,,,,,,0,65,64
106560,note_off,,0,0,1,,,,,,0,69,64
106560,note_off,,288,0,1,,,,,,0,60,64
106656,note_off,,96,0,2,,,,,,0,60,64
106656,note_on,,0,0,2,,,,,,0,48,92
106752,note_off,,96,0,2,,,,,,0,48,64
106752,note_on,,0,0,2,,,,,,0,53,92
106752,note_on,,192,0,1,,,,,,0,69,92
106848,note_off,,96,0,1,,,,,,0,69,64
106848,note_on,,0,0,1,,,,,,0,67,92
106944,note_off,,96,0,1,,,,,,0,67,64
106944,note_on,,0,0,1,,,,,,0,69,92
106944,note_off,,192,0,2,,,,,,0,53,64
106944,note_on,,0,0,2,,,,,,0,41,92
107040,note_off,,96,0,1,,,,,,0,69,64
107040,note_on,,0,0,1,,,,,,0,65,92
107136,note_on,,0,0,2,,,,,,0,57,92
107136,note_off,,192,0,2,,,,,,0,41,64
107136,note_on,,0,0,1,,,,,,0,72,92
107136,note_off,,96,0,1,,,,,,0,65,64
107232,note_on,,0,0,2,,,,,,0,55,92
107232,note_off,,96,0,1,,,,,,0,72,64
107232,note_on,,0,0,1,,,,,,0,65,92
107232,note_off,,96,0,2,,,,,,0,57,64
107328,note_on,,0,0,2,,,,,,0,57,92
107328,note_off,,96,0,2,,,,,,0,55,64
107328,note_on,,0,0,1,,,,,,0,77,92
107328,note_off,,96,0,1,,,,,,0,65,64
107424,note_on,,0,0,1,,,,,,0,72,92
107424,note_on,,0,0,2,,,,,,0,53,92
107424,note_off,,96,0,2,,,,,,0,57,64
107424,note_off,,96,0,1,,,,,,0,77,64
107520,note_off,,96,0,1,,,,,,0,72,64
107520,note_on,,0,0,2,,,,,,0,58,92
107520,note_off,,96,0,2,,,,,,0,53,64
107520,note_on,,0,0,1,,,,,,0,74,92
107616,note_on,,96,0,1,,,,,,0,69,92
107712,note_off,,192,0,2,,,,,,0,58,64
107712,note_on,,0,0,1,,,,,,0,70,92
107712,note_off,,96,0,1,,,,,,0,69,64
107808,note_on,,96,0,1,,,,,,0,65,92
107904,note_on,,192,0,2,,,,,,0,62,92
108000,note_off,,96,0,2,,,,,,0,62,64
108000,note_on,,0,0,2,,,,,,0,58,92
108096,note_off,,288,0,1,,,,,,0,65,64
108096,note_off,,0,0,1,,,,,,0,70,64
108096,note_off,,0,0,1,,,,,,0,74,64
108096,note_on,,0,0,2,,,,,,0,65,92
108096,note_off,,96,0,2,,,,,,0,58,64
108192,note_on,,0,0,2,,,,,,0,53,92
108192,note_off,,96,0,2,,,,,,0,65,64
108288,note_on,,192,0,1,,,,,,0,62,92
108288,note_on,,0,0,2,,,,,,0,58,92
108288,note_off,,96,0,2,,,,,,0,53,64
108384,note_off,,96,0,1,,,,,,0,62,64
108384,note_on,,0,0,1,,,,,,0,60,92
108480,note_off,,192,0,2,,,,,,0,58,64
108480,note_on,,0,0,2,,,,,,0,46,92
108480,note_off,,96,0,1,,,,,,0,60,64
108480,note_on,,0,0,1,,,,,,0,62,92
108576,note_off,,96,0,1,,,,,,0,62,64
108576,note_on,,0,0,1,,,,,,0,58,92
108672,note_on,,0,0,2,,,,,,0,50,92
108672,note_off,,96,0,1,,,,,,0,58,64
108672,note_on,,0,0,1,,,,,,0,65,92
108672,note_off,,192,0,2,,,,,,0,46,64
108768,note_off,,96,0,1,,,,,,0,65,64
108768,note_on,,0,0,1,,,,,,0,58,92
108768,note_off,,96,0,2,,,,,,0,50,64
108768,note_on,,0,0,2,,,,,,0,48,92
108864,note_on,,0,0,1,,,,,,0,70,92
108864,note_off,,96,0,1,,,,,,0,58,64
108864,note_on,,0,0,2,,,,,,0,50,92
108864,note_off,,96,0,2,,,,,,0,48,64
108960,note_off,,96,0,2,,,,,,0,50,64
108960,note_on,,0,0,2,,,,,,0,46,92
108960,note_off,,96,0,1,,,,,,0,70,64
108960,note_on,,0,0,1,,,,,,0,65,92
109056,note_on,,0,0,2,,,,,,0,52,92
109056,note_off,,96,0,1,,,,,,0,65,64
109056,note_on,,0,0,1,,,,,,0,67,92
109056,note_off,,96,0,2,,,,,,0,46,64
109152,note_on,,96,0,1,,,,,,0,62,92
109248,note_on,,0,0,2,,,,,,0,55,92
109248,note_off,,192,0,2,,,,,,0,52,64
109248,note_off,,96,0,1,,,,,,0,62,64
109248,note_on,,0,0,1,,,,,,0,64,92
109344,note_on,,96,0,1,,,,,,0,59,92
109440,note_off,,192,0,2,,,,,,0,55,64
109440,note_off,,96,0,1,,,,,,0,59,64
109440,note_on,,0,0,1,,,,,,0,61,92
109440,note_on,,0,0,2,,,,,,0,45,92
109536,note_off,,96,0,2,,,,,,0,45,64
109536,note_on,,0,0,2,,,,,,0,55,92
109632,note_on,,0,0,2,,,,,,0,57,92
109632,note_off,,96,0,2,,,,,,0,55,64
109728,note_off,,96,0,2,,,,,,0,57,64
109728,note_on,,0,0,2,,,,,,0,52,92
109824,note_off,,96,0,2,,,,,,0,52,64
109824,note_on,,0,0,2,,,,,,0,53,92
109920,note_off,,96,0,2,,,,,,0,53,64
109920,note_on,,0,0,2,,,,,,0,49,92
110016,note_on,,0,0,1,,,,,,0,65,92
110016,note_on,,0,0,1,,,,,,0,62,92
110016,note_on,,0,0,1,,,,,,0,57,92
110016,note_off,,0,0,1,,,,,,0,67,64
110016,note_off,,576,0,1,,,,,,0,61,64
110016,note_off,,0,0,1,,,,,,0,64,64
110016,note_off,,96,0,2,,,,,,0,49,64
110016,note_on,,0,0,2,,,,,,0,50,92
110112,note_off,,96,0,2,,,,,,0,50,64
110112,note_on,,0,0,2,,,,,,0,43,92
110208,note_on,,0,0,1,,,,,,0,57,92
110208,note_off,,0,0,1,,,,,,0,57,64
110208,note_off,,192,0,1,,,,,,0,65,64
110208,note_off,,0,0,1,,,,,,0,62,64
110208,note_off,,96,0,2,,,,,,0,43,64
110208,note_on,,0,0,2,,,,,,0,45,92
110304,note_on,,96,0,1,,,,,,0,62,92
110400,note_off,,192,0,2,,,,,,0,45,64
110400,note_on,,0,0,2,,,,,,0,45,92
110400,note_on,,96,0,1,,,,,,0,64,92
110496,note_on,,0,0,1,,,,,,0,61,92
110496,note_off,,96,0,1,,,,,,0,62,64
110592,note_off,,96,0,1,,,,,,0,61,64
110592,note_off,,0,0,1,,,,,,0,64,64
110592,note_off,,0,0,1,,,,,,0,57,64
110592,note_on,,0,0,1,,,,,,0,62,92
110592,note_on,,0,0,2,,,,,,0,50,92
110592,note_off,,192,0,2,,,,,,0,45,64
110688,note_on,,96,0,1,,,,,,0,57,92
110784,note_on,,96,0,1,,,,,,0,53,92
110880,note_off,,288,0,2,,,,,,0,50,64
110880,note_on,,0,0,2,,,,,,0,49,92
110976,note_off,,96,0,2,,,,,,0,49,64
110976,note_on,,0,0,2,,,,,,0,50,92
111072,note_off,,96,0,2,,,,,,0,50,64
111072,note_on,,0,0,2,,,,,,0,45,92
111168,note_off,,96,0,2,,,,,,0,45,64
111168,note_on,,0,0,2,,,,,,0,41,92
111168,note_off,,384,0,1,,,,,,0,53,64
111168,note_off,,0,0,1,,,,,,0,57,64
111168,note_off,,0,0,1,,,,,,0,62,64
111264,note_off,,96,0,2,,,,,,0,41,64
111264,note_on,,0,0,2,,,,,,0,45,92
111360,note_on,,10560,0,3,,,,,,0,50,102
111360,note_off,,96,0,2,,,,,,0,45,64
111360,note_on,,0,0,2,,,,,,0,38,92
111456,note_on,,288,0,1,,,,,,0,69,92
111552,note_off,,96,0,1,,,,,,0,69,64
111552,note_off,,192,0,3,,,,,,0,50,64
111552,note_on,,0,0,3,,,,,,0,48,102
111552,note_on,,0,0,1,,,,,,0,70,92
111552,note_off,,192,0,2,,,,,,0,38,64
111648,note_on,,0,0,1,,,,,,0,72,92
111648,note_off,,96,0,1,,,,,,0,70,64
111744,note_off,,96,0,1,,,,,,0,72,64
111744,note_on,,0,0,3,,,,,,0,46,102
111744,note_on,,0,0,1,,,,,,0,74,92
111744,note_off,,192,0,3,,,,,,0,48,64
111840,note_on,,96,0,1,,,,,,0,67,92
111936,note_off,,0,0,1,,,,,,0,74,64
111936,note_on,,0,0,1,,,,,,0,72,92
111936,note_off,,96,0,1,,,,,,0,67,64
111936,note_off,,192,0,3,,,,,,0,46,64
111936,note_on,,0,0,3,,,,,,0,45,102
112032,note_on,,96,0,1,,,,,,0,66,92
112128,note_on,,0,0,1,,,,,,0,67,92
112128,note_off,,192,0,3,,,,,,0,45,64
112128,note_on,,0,0,3,,,,,,0,55,102
112128,note_off,,96,0,1,,,,,,0,66,64
112128,note_off,,0,0,1,,,,,,0,72,64
112128,note_on,,0,0,1,,,,,,0,70,92
112224,note_on,,672,0,2,,,,,,0,62,92
112320,note_off,,96,0,2,,,,,,0,62,64
112320,note_on,,0,0,2,,,,,,0,64,92
112320,note_off,,192,0,3,,,,,,0,55,64
112320,note_on,,0,0,3,,,,,,0,53,102
112416,note_on,,0,0,2,,,,,,0,65,92
112416,note_off,,96,0,2,,,,,,0,64,64
112512,note_off,,0,0,1,,,,,,0,67,64
112512,note_off,,384,0,1,,,,,,0,70,64
112512,note_off,,96,0,2,,,,,,0,65,64
112512,note_on,,0,0,2,,,,,,0,67,92
112512,note_on,,0,0,3,,,,,,0,52,102
112512,note_off,,192,0,3,,,,,,0,53,64
112608,note_on,,96,0,2,,,,,,0,60,92
112704,note_on,,0,0,3,,,,,,0,50,102
112704,note_off,,192,0,3,,,,,,0,52,64
112704,note_off,,96,0,2,,,,,,0,60,64
112704,note_off,,0,0,2,,,,,,0,67,64
112704,note_on,,0,0,2,,,,,,0,65,92
112800,note_on,,96,0,2,,,,,,0,59,92
112896,note_off,,96,0,2,,,,,,0,59,64
112896,note_on,,0,0,2,,,,,,0,64,92
112896,note_on,,0,0,2,,,,,,0,60,92
112896,note_on,,0,0,3,,,,,,0,48,102
112896,note_off,,192,0,3,,,,,,0,50,64
112896,note_off,,0,0,2,,,,,,0,65,64
112992,note_on,,480,0,1,,,,,,0,67,92
113088,note_off,,192,0,3,,,,,,0,48,64
113088,note_on,,0,0,1,,,,,,0,69,92
113088,note_off,,96,0,1,,,,,,0,67,64
113088,note_on,,0,0,3,,,,,,0,46,102
113184,note_off,,96,0,1,,,,,,0,69,64
113184,note_on,,0,0,1,,,,,,0,70,92
113280,note_off,,96,0,1,,,,,,0,70,64
113280,note_on,,0,0,1,,,,,,0,72,92
113280,note_on,,0,0,3,,,,,,0,45,102
113280,note_off,,192,0,3,,,,,,0,46,64
113280,note_off,,0,0,2,,,,,,0,60,64
113280,note_off,,384,0,2,,,,,,0,64,64
113376,note_on,,96,0,1,,,,,,0,65,92
113472,note_off,,96,0,1,,,,,,0,65,64
113472,note_off,,0,0,1,,,,,,0,72,64
113472,note_on,,0,0,1,,,,,,0,70,92
113472,note_off,,192,0,3,,,,,,0,45,64
113472,note_on,,0,0,3,,,,,,0,43,102
113568,note_on,,96,0,1,,,,,,0,64,92
113664,note_off,,96,0,1,,,,,,0,64,64
113664,note_off,,0,0,1,,,,,,0,70,64
113664,note_on,,0,0,1,,,,,,0,65,92
113664,note_on,,0,0,1,,,,,,0,69,92
113664,note_off,,192,0,3,,,,,,0,43,64
113664,note_on,,0,0,3,,,,,,0,53,102
113760,note_on,,480,0,2,,,,,,0,60,92
113856,note_off,,192,0,3,,,,,,0,53,64
113856,note_on,,0,0,2,,,,,,0,62,92
113856,note_on,,0,0,3,,,,,,0,51,102
113856,note_off,,96,0,2,,,,,,0,60,64
113952,note_on,,0,0,2,,,,,,0,63,92
113952,note_off,,96,0,2,,,,,,0,62,64
114048,note_off,,192,0,3,,,,,,0,51,64
114048,note_off,,0,0,1,,,,,,0,65,64
114048,note_off,,384,0,1,,,,,,0,69,64
114048,note_on,,0,0,3,,,,,,0,50,102
114048,note_off,,96,0,2,,,,,,0,63,64
114048,note_on,,0,0,2,,,,,,0,65,92
114144,note_on,,96,0,2,,,,,,0,58,92
114240,note_off,,0,0,2,,,,,,0,65,64
114240,note_on,,0,0,3,,,,,,0,48,102
114240,note_off,,192,0,3,,,,,,0,50,64
114240,note_off,,96,0,2,,,,,,0,58,64
114240,note_on,,0,0,2,,,,,,0,63,92
114336,note_on,,96,0,2,,,,,,0,57,92
114432,note_off,,192,0,3,,,,,,0,48,64
114432,note_on,,0,0,3,,,,,,0,46,102
114432,note_off,,0,0,2,,,,,,0,63,64
114432,note_on,,0,0,2,,,,,,0,62,92
114432,note_on,,0,0,2,,,,,,0,58,92
114432,note_off,,96,0,2,,,,,,0,57,64
114528,note_on,,480,0,1,,,,,,0,65,92
114624,note_on,,0,0,3,,,,,,0,45,102
114624,note_off,,192,0,3,,,,,,0,46,64
114624,note_off,,96,0,1,,,,,,0,65,64
114624,note_on,,0,0,1,,,,,,0,67,92
114720,note_off,,96,0,1,,,,,,0,67,64
114720,note_on,,0,0,1,,,,,,0,69,92
114816,note_off,,96,0,1,,,,,,0,69,64
114816,note_off,,384,0,2,,,,,,0,62,64
114816,note_off,,0,0,2,,,,,,0,58,64
114816,note_on,,0,0,3,,,,,,0,43,102
114816,note_off,,192,0,3,,,,,,0,45,64
114816,note_on,,0,0,1,,,,,,0,70,92
114912,note_on,,96,0,1,,,,,,0,64,92
115008,note_off,,192,0,3,,,,,,0,43,64
115008,note_off,,0,0,1,,,,,,0,70,64
115008,note_off,,96,0,1,,,,,,0,64,64
115008,note_on,,0,0,3,,,,,,0,41,102
115008,note_on,,0,0,1,,,,,,0,69,92
115104,note_on,,96,0,1,,,,,,0,62,92
115200,note_off,,192,0,3,,,,,,0,41,64
115200,note_on,,0,0,3,,,,,,0,52,102
115200,note_off,,96,0,1,,,,,,0,62,64
115200,note_off,,0,0,1,,,,,,0,69,64
115200,note_on,,0,0,1,,,,,,0,64,92
115200,note_on,,0,0,1,,,,,,0,67,92
115296,note_on,,480,0,2,,,,,,0,59,92
115392,note_off,,96,0,2,,,,,,0,59,64
115392,note_off,,192,0,3,,,,,,0,52,64
115392,note_on,,0,0,2,,,,,,0,61,92
115392,note_on,,0,0,3,,,,,,0,50,102
115488,note_on,,0,0,2,,,,,,0,62,92
115488,note_off,,96,0,2,,,,,,0,61,64
115584,note_off,,384,0,1,,,,,,0,67,64
115584,note_off,,0,0,1,,,,,,0,64,64
115584,note_on,,0,0,2,,,,,,0,64,92
115584,note_off,,96,0,2,,,,,,0,62,64
115584,note_off,,192,0,3,,,,,,0,50,64
115584,note_on,,0,0,3,,,,,,0,49,102
115680,note_on,,96,0,2,,,,,,0,57,92
115776,note_on,,0,0,2,,,,,,0,62,92
115776,note_on,,0,0,3,,,,,,0,47,102
115776,note_off,,192,0,3,,,,,,0,49,64
115776,note_off,,0,0,2,,,,,,0,64,64
115776,note_off,,96,0,2,,,,,,0,57,64
115872,note_on,,96,0,2,,,,,,0,56,92
115968,note_off,,192,0,3,,,,,,0,47,64
115968,note_off,,0,0,2,,,,,,0,62,64
115968,note_on,,0,0,2,,,,,,0,61,92
115968,note_off,,96,0,2,,,,,,0,56,64
115968,note_on,,0,0,2,,,,,,0,57,92
115968,note_on,,0,0,3,,,,,,0,45,102
116064,note_on,,480,0,1,,,,,,0,64,92
116160,note_off,,96,0,1,,,,,,0,64,64
116160,note_on,,0,0,3,,,,,,0,43,102
116160,note_on,,0,0,1,,,,,,0,65,92
116160,note_off,,192,0,3,,,,,,0,45,64
116256,note_off,,96,0,1,,,,,,0,65,64
116256,note_on,,0,0,1,,,,,,0,67,92
116352,note_off,,192,0,3,,,,,,0,43,64
116352,note_on,,0,0,3,,,,,,0,41,102
116352,note_off,,96,0,1,,,,,,0,67,64
116352,note_on,,0,0,1,,,,,,0,69,92
116352,note_off,,384,0,2,,,,,,0,61,64
116352,note_off,,0,0,2,,,,,,0,57,64
116448,note_on,,96,0,1,,,,,,0,62,92
116544,note_off,,96,0,1,,,,,,0,62,64
116544,note_off,,0,0,1,,,,,,0,69,64
116544,note_on,,0,0,1,,,,,,0,67,92
116544,note_off,,192,0,3,,,,,,0,41,64
116544,note_on,,0,0,3,,,,,,0,40,102
116640,note_on,,96,0,1,,,,,,0,61,92
116736,note_off,,192,0,3,,,,,,0,40,64
116736,note_off,,96,0,1,,,,,,0,61,64
116736,note_on,,0,0,3,,,,,,0,50,102
116736,note_on,,0,0,1,,,,,,0,65,92
116736,note_on,,0,0,1,,,,,,0,62,92
116736,note_off,,0,0,1,,,,,,0,67,64
116832,note_on,,480,0,2,,,,,,0,57,92
116928,note_on,,0,0,3,,,,,,0,48,102
116928,note_off,,192,0,3,,,,,,0,50,64
116928,note_off,,96,0,2,,,,,,0,57,64
116928,note_on,,0,0,2,,,,,,0,58,92
117024,note_off,,96,0,2,,,,,,0,58,64
117024,note_on,,0,0,2,,,,,,0,60,92
117120,note_off,,384,0,1,,,,,,0,65,64
117120,note_off,,0,0,1,,,,,,0,62,64
117120,note_off,,96,0,2,,,,,,0,60,64
117120,note_on,,0,0,2,,,,,,0,62,92
117120,note_off,,192,0,3,,,,,,0,48,64
117120,note_on,,0,0,3,,,,,,0,46,102
117216,note_on,,96,0,2,,,,,,0,55,92
117312,note_on,,0,0,2,,,,,,0,60,92
117312,note_off,,192,0,3,,,,,,0,46,64
117312,note_on,,0,0,3,,,,,,0,45,102
117312,note_off,,96,0,2,,,,,,0,55,64
117312,note_off,,0,0,2,,,,,,0,62,64
117408,note_on,,96,0,2,,,,,,0,54,92
117504,note_on,,0,0,3,,,,,,0,43,102
117504,note_on,,0,0,2,,,,,,0,58,92
117504,note_off,,96,0,2,,,,,,0,54,64
117504,note_off,,0,0,2,,,,,,0,60,64
117504,note_on,,0,0,2,,,,,,0,55,92
117504,note_off,,192,0,3,,,,,,0,45,64
117600,note_on,,480,0,1,,,,,,0,62,92
117696,note_off,,192,0,3,,,,,,0,43,64
117696,note_on,,0,0,1,,,,,,0,64,92
117696,note_off,,96,0,1,,,,,,0,62,64
117696,note_on,,0,0,3,,,,,,0,41,102
117792,note_on,,0,0,1,,,,,,0,65,92
117792,note_off,,96,0,1,,,,,,0,64,64
117888,note_off,,96,0,1,,,,,,0,65,64
117888,note_on,,0,0,1,,,,,,0,67,92
117888,note_on,,0,0,3,,,,,,0,40,102
117888,note_off,,192,0,3,,,,,,0,41,64
117888,note_off,,0,0,2,,,,,,0,55,64
117888,note_off,,384,0,2,,,,,,0,58,64
117984,note_on,,96,0,1,,,,,,0,61,92
118080,note_off,,96,0,1,,,,,,0,61,64
118080,note_off,,0,0,1,,,,,,0,67,64
118080,note_on,,0,0,1,,,,,,0,65,92
118080,note_on,,0,0,3,,,,,,0,38,102
118080,note_off,,192,0,3,,,,,,0,40,64
118176,note_on,,96,0,1,,,,,,0,59,92
118272,note_on,,0,0,3,,,,,,0,45,102
118272,note_off,,192,0,3,,,,,,0,38,64
118272,note_off,,96,0,1,,,,,,0,59,64
118272,note_on,,0,0,1,,,,,,0,64,92
118272,note_on,,0,0,1,,,,,,0,61,92
118272,note_off,,0,0,1,,,,,,0,65,64
118368,note_on,,480,0,2,,,,,,0,52,92
118464,note_on,,0,0,2,,,,,,0,53,92
118464,note_off,,96,0,2,,,,,,0,52,64
118560,note_off,,96,0,2,,,,,,0,53,64
118560,note_on,,0,0,2,,,,,,0,55,92
118656,note_on,,0,0,2,,,,,,0,57,92
118656,note_off,,0,0,1,,,,,,0,61,64
118656,note_off,,384,0,1,,,,,,0,64,64
118656,note_off,,96,0,2,,,,,,0,55,64
118752,note_on,,96,0,1,,,,,,0,57,92
118752,note_off,,96,0,2,,,,,,0,57,64
118752,note_on,,0,0,2,,,,,,0,53,92
118848,note_on,,0,0,1,,,,,,0,59,92
118848,note_off,,96,0,2,,,,,,0,53,64
118848,note_on,,0,0,2,,,,,,0,55,92
118848,note_off,,96,0,1,,,,,,0,57,64
118944,note_off,,96,0,1,,,,,,0,59,64
118944,note_on,,0,0,2,,,,,,0,52,92
118944,note_off,,96,0,2,,,,,,0,55,64
118944,note_on,,0,0,1,,,,,,0,61,92
119040,note_on,,0,0,2,,,,,,0,53,92
119040,note_off,,96,0,2,,,,,,0,52,64
119040,note_on,,0,0,1,,,,,,0,62,92
119040,note_off,,96,0,1,,,,,,0,61,64
119136,note_on,,0,0,2,,,,,,0,64,92
119136,note_on,,0,0,1,,,,,,0,61,92
119136,note_off,,96,0,2,,,,,,0,53,64
119136,note_off,,96,0,1,,,,,,0,62,64
119232,note_on,,0,0,1,,,,,,0,62,92
119232,note_off,,96,0,1,,,,,,0,61,64
119232,note_on,,0,0,2,,,,,,0,65,92
119232,note_off,,96,0,2,,,,,,0,64,64
119328,note_on,,0,0,2,,,,,,0,67,92
119328,note_off,,96,0,2,,,,,,0,65,64
119328,note_off,,96,0,1,,,,,,0,62,64
119328,note_on,,0,0,1,,,,,,0,59,92
119424,note_off,,96,0,1,,,,,,0,59,64
119424,note_on,,0,0,2,,,,,,0,69,92
119424,note_off,,96,0,2,,,,,,0,67,64
119424,note_on,,0,0,1,,,,,,0,61,92
119520,note_on,,0,0,2,,,,,,0,65,92
119520,note_off,,96,0,2,,,,,,0,69,64
119520,note_on,,0,0,1,,,,,,0,69,92
119520,note_off,,96,0,1,,,,,,0,61,64
119616,note_on,,0,0,1,,,,,,0,71,92
119616,note_off,,96,0,1,,,,,,0,69,64
119616,note_on,,0,0,2,,,,,,0,67,92
119616,note_off,,96,0,2,,,,,,0,65,64
119712,note_on,,0,0,2,,,,,,0,64,92
119712,note_on,,0,0,1,,,,,,0,73,92
119712,note_off,,96,0,2,,,,,,0,67,64
119712,note_off,,96,0,1,,,,,,0,71,64
119808,note_off,,96,0,1,,,,,,0,73,64
119808,note_on,,0,0,1,,,,,,0,74,92
119808,note_off,,96,0,2,,,,,,0,64,64
119808,note_on,,0,0,2,,,,,,0,65,92
119904,note_off,,96,0,1,,,,,,0,74,64
119904,note_on,,0,0,1,,,,,,0,73,92
119904,note_on,,0,0,2,,,,,,0,76,92
119904,note_off,,96,0,2,,,,,,0,65,64
120000,note_off,,96,0,2,,,,,,0,76,64
120000,note_on,,0,0,1,,,,,,0,74,92
120000,note_off,,96,0,1,,,,,,0,73,64
120000,note_on,,0,0,2,,,,,,0,77,92
120096,note_on,,0,0,1,,,,,,0,71,92
120096,note_off,,96,0,2,,,,,,0,77,64
120096,note_off,,96,0,1,,,,,,0,74,64
120096,note_on,,0,0,2,,,,,,0,79,92
120192,note_off,,96,0,2,,,,,,0,79,64
120192,note_off,,96,0,1,,,,,,0,71,64
120192,note_on,,0,0,1,,,,,,0,73,92
120192,note_on,,0,0,2,,,,,,0,81,92
120288,note_off,,96,0,1,,,,,,0,73,64
120288,note_on,,0,0,1,,,,,,0,69,92
120288,note_off,,96,0,2,,,,,,0,81,64
120288,note_on,,0,0,2,,,,,,0,77,92
120384,note_on,,0,0,1,,,,,,0,71,92
120384,note_off,,96,0,1,,,,,,0,69,64
120384,note_off,,96,0,2,,,,,,0,77,64
120384,note_on,,0,0,2,,,,,,0,79,92
120480,note_on,,0,0,2,,,,,,0,76,92
120480,note_off,,96,0,1,,,,,,0,71,64
120480,note_on,,0,0,1,,,,,,0,73,92
120480,note_off,,96,0,2,,,,,,0,79,64
120576,note_off,,96,0,1,,,,,,0,73,64
120576,note_off,,96,0,2,,,,,,0,76,64
120576,note_on,,0,0,2,,,,,,0,77,92
120576,note_on,,0,0,1,,,,,,0,74,92
120672,note_on,,0,0,1,,,,,,0,76,92
120672,note_off,,96,0,2,,,,,,0,77,64
120672,note_on,,0,0,2,,,,,,0,73,92
120672,note_off,,96,0,1,,,,,,0,74,64
120768,note_on,,0,0,2,,,,,,0,74,92
120768,note_on,,0,0,1,,,,,,0,77,92
120768,note_off,,96,0,1,,,,,,0,76,64
120768,note_off,,96,0,2,,,,,,0,73,64
120864,note_on,,0,0,2,,,,,,0,71,92
120864,note_on,,0,0,1,,,,,,0,79,92
120864,note_off,,96,0,1,,,,,,0,77,64
120864,note_off,,96,0,2,,,,,,0,74,64
120960,note_off,,96,0,1,,,,,,0,79,64
120960,note_on,,0,0,1,,,,,,0,81,92
120960,note_on,,0,0,2,,,,,,0,73,92
120960,note_off,,96,0,2,,,,,,0,71,64
121056,note_on,,0,0,2,,,,,,0,69,92
121056,note_off,,96,0,2,,,,,,0,73,64
121056,note_off,,96,0,1,,,,,,0,81,64
121056,note_on,,0,0,1,,,,,,0,77,92
121152,note_on,,0,0,2,,,,,,0,71,92
121152,note_off,,96,0,2,,,,,,0,69,64
121152,note_off,,96,0,1,,,,,,0,77,64
121152,note_on,,0,0,1,,,,,,0,79,92
121248,note_off,,96,0,2,,,,,,0,71,64
121248,note_off,,96,0,1,,,,,,0,79,64
121248,note_on,,0,0,2,,,,,,0,73,92
121248,note_on,,0,0,1,,,,,,0,76,92
121344,note_on,,0,0,3,,,,,,0,50,102
121344,note_on,,0,0,1,,,,,,0,77,92
121344,note_off,,96,0,2,,,,,,0,73,64
121344,note_off,,96,0,1,,,,,,0,76,64
121344,note_off,,3072,0,3,,,,,,0,45,64
121344,note_on,,0,0,2,,,,,,0,74,92
121440,note_off,,96,0,1,,,,,,0,77,64
121440,note_on,,0,0,1,,,,,,0,74,92
121536,note_off,,96,0,1,,,,,,0,74,64
121536,note_on,,0,0,1,,,,,,0,76,92
121632,note_off,,96,0,1,,,,,,0,76,64
121632,note_on,,0,0,1,,,,,,0,73,92
121728,note_on,,0,0,1,,,,,,0,74,92
121728,note_off,,96,0,1,,,,,,0,73,64
121824,note_on,,0,0,3,,,,,,0,49,102
121824,note_off,,480,0,3,,,,,,0,50,64
121824,note_on,,0,0,2,,,,,,0,76,92
121824,note_off,,480,0,2,,,,,,0,74,64
121920,note_on,,0,0,2,,,,,,0,77,92
121920,note_on,,0,0,3,,,,,,0,50,102
121920,note_off,,96,0,3,,,,,,0,49,64
121920,note_off,,96,0,2,,,,,,0,76,64
122016,note_on,,0,0,3,,,,,,0,45,102
122016,note_off,,96,0,3,,,,,,0,50,64
122016,note_on,,0,0,2,,,,,,0,73,92
122016,note_off,,96,0,2,,,,,,0,77,64
122112,note_off,,96,0,2,,,,,,0,73,64
122112,note_on,,0,0,2,,,,,,0,74,92
122112,note_on,,0,0,3,,,,,,0,46,102
122112,note_off,,96,0,3,,,,,,0,45,64
122208,note_off,,480,0,1,,,,,,0,74,64
122208,note_on,,0,0,1,,,,,,0,76,92
122304,note_on,,0,0,1,,,,,,0,77,92
122304,note_off,,96,0,1,,,,,,0,76,64
122400,note_on,,0,0,1,,,,,,0,73,92
122400,note_off,,96,0,1,,,,,,0,77,64
122496,note_on,,0,0,1,,,,,,0,74,92
122496,note_off,,96,0,1,,,,,,0,73,64
122592,note_off,,480,0,3,,,,,,0,46,64
122592,note_on,,0,0,3,,,,,,0,45,102
122592,note_on,,0,0,2,,,,,,0,73,92
122592,note_off,,480,0,2,,,,,,0,74,64
122688,note_on,,0,0,3,,,,,,0,46,102
122688,note_off,,96,0,3,,,,,,0,45,64
122688,note_off,,96,0,2,,,,,,0,73,64
122688,note_on,,0,0,2,,,,,,0,74,92
122784,note_on,,0,0,3,,,,,,0,43,102
122784,note_off,,96,0,3,,,,,,0,46,64
122784,note_off,,288,0,1,,,,,,0,74,64
122784,note_off,,96,0,2,,,,,,0,74,64
122784,note_on,,0,0,2,,,,,,0,76,92
122784,note_on,,0,0,1,,,,,,0,73,92
122880,note_off,,96,0,1,,,,,,0,73,64
122880,note_on,,0,0,1,,,,,,0,74,92
122880,note_off,,96,0,2,,,,,,0,76,64
122880,note_off,,96,0,3,,,,,,0,43,64
122880,note_on,,0,0,2,,,,,,0,77,92
122880,note_on,,0,0,3,,,,,,0,45,102
122976,note_on,,0,0,2,,,,,,0,79,92
122976,note_off,,96,0,1,,,,,,0,74,64
122976,note_on,,0,0,1,,,,,,0,76,92
122976,note_off,,96,0,2,,,,,,0,77,64
123072,note_off,,96,0,2,,,,,,0,79,64
123072,note_on,,0,0,3,,,,,,0,38,102
123072,note_off,,96,0,1,,,,,,0,76,64
123072,note_on,,0,0,1,,,,,,0,77,92
123072,note_on,,0,0,2,,,,,,0,81,92
123072,note_off,,192,0,3,,,,,,0,45,64
123168,note_on,,0,0,1,,,,,,0,79,92
123168,note_off,,96,0,1,,,,,,0,77,64
123168,note_off,,96,0,2,,,,,,0,81,64
123168,note_on,,0,0,2,,,,,,0,74,92
123264,note_off,,192,0,3,,,,,,0,38,64
123264,note_on,,0,0,3,,,,,,0,45,102
123264,note_on,,0,0,1,,,,,,0,81,92
123264,note_off,,96,0,1,,,,,,0,79,64
123264,note_off,,96,0,2,,,,,,0,74,64
123264,note_on,,0,0,2,,,,,,0,73,92
123360,note_off,,96,0,1,,,,,,0,81,64
123360,note_on,,0,0,1,,,,,,0,77,92
123456,note_on,,0,0,1,,,,,,0,79,92
123456,note_off,,96,0,1,,,,,,0,77,64
123552,note_on,,0,0,1,,,,,,0,76,92
123552,note_on,,0,0,2,,,,,,0,73,92
123552,note_off,,96,0,1,,,,,,0,79,64
123552,note_off,,288,0,2,,,,,,0,73,64
123648,note_on,,0,0,3,,,,,,0,38,102
123648,note_on,,0,0,1,,,,,,0,77,92
123648,note_off,,96,0,1,,,,,,0,76,64
123648,note_off,,384,0,3,,,,,,0,45,64
123648,note_on,,0,0,2,,,,,,0,74,92
123648,note_off,,96,0,2,,,,,,0,73,64
123744,note_on,,0,0,2,,,,,,0,73,92
123744,note_off,,96,0,2,,,,,,0,74,64
123840,note_off,,96,0,2,,,,,,0,73,64
123840,note_on,,0,0,2,,,,,,0,74,92
123840,note_on,,0,0,1,,,,,,0,74,92
123840,note_off,,192,0,1,,,,,,0,77,64
123936,note_off,,96,0,2,,,,,,0,74,64
123936,note_on,,0,0,2,,,,,,0,69,92
124032,note_off,,384,0,3,,,,,,0,38,64
124032,note_off,,192,0,1,,,,,,0,74,64
124032,note_on,,0,0,1,,,,,,0,77,92
124032,note_off,,96,0,2,,,,,,0,69,64
124128,note_on,,0,0,1,,,,,,0,69,92
124128,note_off,,96,0,1,,,,,,0,77,64
124224,note_on,,192,0,2,,,,,,0,62,92
124224,note_on,,0,0,2,,,,,,0,57,92
124224,note_on,,0,0,1,,,,,,0,74,92
124224,note_off,,96,0,1,,,,,,0,69,64
124224,note_on,,192,0,3,,,,,,0,53,102
124320,note_on,,0,0,1,,,,,,0,69,92
124320,note_off,,96,0,1,,,,,,0,74,64
124416,note_off,,96,0,1,,,,,,0,69,64
124416,note_on,,0,0,1,,,,,,0,70,92
124416,note_on,,0,0,2,,,,,,0,62,92
124416,note_off,,0,0,2,,,,,,0,62,64
124416,note_on,,0,0,3,,,,,,0,55,102
124416,note_off,,192,0,3,,,,,,0,53,64
124416,note_off,,192,0,2,,,,,,0,57,64
124416,note_on,,0,0,2,,,,,,0,55,92
124512,note_on,,0,0,1,,,,,,0,69,92
124512,note_off,,96,0,1,,,,,,0,70,64
124608,note_on,,0,0,1,,,,,,0,70,92
124608,note_off,,96,0,1,,,,,,0,69,64
124704,note_on,,0,0,1,,,,,,0,67,92
124704,note_off,,96,0,1,,,,,,0,70,64
124800,note_off,,384,0,3,,,,,,0,55,64
124800,note_off,,96,0,1,,,,,,0,67,64
124800,note_off,,0,0,2,,,,,,0,62,64
124800,note_off,,384,0,2,,,,,,0,55,64
124800,note_on,,0,0,1,,,,,,0,74,92
124896,note_off,,96,0,1,,,,,,0,74,64
124896,note_on,,0,0,1,,,,,,0,67,92
124992,note_on,,192,0,3,,,,,,0,53,102
124992,note_off,,96,0,1,,,,,,0,67,64
124992,note_on,,0,0,1,,,,,,0,70,92
124992,note_on,,192,0,2,,,,,,0,55,92
124992,note_on,,0,0,2,,,,,,0,62,92
125088,note_off,,96,0,1,,,,,,0,70,64
125088,note_on,,0,0,1,,,,,,0,67,92
125184,note_on,,0,0,2,,,,,,0,55,92
125184,note_on,,0,0,1,,,,,,0,72,92
125184,note_on,,0,0,2,,,,,,0,60,92
125184,note_off,,0,0,2,,,,,,0,55,64
125184,note_on,,0,0,3,,,,,,0,52,102
125184,note_off,,192,0,3,,,,,,0,53,64
125184,note_off,,96,0,1,,,,,,0,67,64
125184,note_off,,192,0,2,,,,,,0,62,64
125280,note_off,,96,0,1,,,,,,0,72,64
125280,note_on,,0,0,1,,,,,,0,71,92
125376,note_off,,96,0,1,,,,,,0,71,64
125376,note_on,,0,0,1,,,,,,0,72,92
125472,note_off,,96,0,1,,,,,,0,72,64
125472,note_on,,0,0,1,,,,,,0,67,92
125568,note_off,,384,0,2,,,,,,0,60,64
125568,note_off,,0,0,2,,,,,,0,55,64
125568,note_off,,384,0,3,,,,,,0,52,64
125568,note_on,,0,0,1,,,,,,0,76,92
125568,note_off,,96,0,1,,,,,,0,67,64
125664,note_on,,0,0,1,,,,,,0,67,92
125664,note_off,,96,0,1,,,,,,0,76,64
125760,note_on,,0,0,1,,,,,,0,72,92
125760,note_on,,0,0,2,,,,,,0,60,92
125760,note_on,,192,0,2,,,,,,0,55,92
125760,note_on,,192,0,3,,,,,,0,52,102
125760,note_off,,96,0,1,,,,,,0,67,64
125856,note_off,,96,0,1,,,,,,0,72,64
125856,note_on,,0,0,1,,,,,,0,67,92
125952,note_off,,96,0,1,,,,,,0,67,64
125952,note_on,,0,0,1,,,,,,0,69,92
125952,note_on,,0,0,2,,,,,,0,53,92
125952,note_off,,0,0,2,,,,,,0,55,64
125952,note_off,,192,0,2,,,,,,0,60,64
125952,note_off,,192,0,3,,,,,,0,52,64
125952,note_on,,0,0,3,,,,,,0,53,102
125952,note_on,,0,0,2,,,,,,0,60,92
126048,note_on,,0,0,1,,,,,,0,67,92
126048,note_off,,96,0,1,,,,,,0,69,64
126144,note_off,,96,0,1,,,,,,0,67,64
126144,note_on,,0,0,1,,,,,,0,69,92
126240,note_off,,96,0,1,,,,,,0,69,64
126240,note_on,,0,0,1,,,,,,0,65,92
126336,note_off,,384,0,2,,,,,,0,53,64
126336,note_on,,0,0,1,,,,,,0,72,92
126336,note_off,,96,0,1,,,,,,0,65,64
126336,note_off,,0,0,2,,,,,,0,60,64
126336,note_off,,384,0,3,,,,,,0,53,64
126432,note_on,,0,0,1,,,,,,0,65,92
126432,note_off,,96,0,1,,,,,,0,72,64
126528,note_off,,96,0,1,,,,,,0,65,64
126528,note_on,,0,0,1,,,,,,0,69,92
126528,note_on,,192,0,2,,,,,,0,53,92
126528,note_on,,0,0,2,,,,,,0,60,92
126528,note_on,,192,0,3,,,,,,0,52,102
126624,note_on,,0,0,1,,,,,,0,65,92
126624,note_off,,96,0,1,,,,,,0,69,64
126720,note_off,,96,0,1,,,,,,0,65,64
126720,note_on,,0,0,1,,,,,,0,70,92
126720,note_off,,192,0,3,,,,,,0,52,64
126720,note_on,,0,0,2,,,,,,0,62,92
126720,note_on,,0,0,2,,,,,,0,53,92
126720,note_off,,0,0,2,,,,,,0,53,64
126720,note_off,,192,0,2,,,,,,0,60,64
126720,note_on,,0,0,3,,,,,,0,50,102
126816,note_on,,0,0,1,,,,,,0,69,92
126816,note_off,,96,0,1,,,,,,0,70,64
126912,note_on,,0,0,1,,,,,,0,70,92
126912,note_off,,96,0,1,,,,,,0,69,64
127008,note_on,,0,0,1,,,,,,0,65,92
127008,note_off,,96,0,1,,,,,,0,70,64
127104,note_off,,384,0,3,,,,,,0,50,64
127104,note_on,,0,0,1,,,,,,0,74,92
127104,note_off,,384,0,2,,,,,,0,62,64
127104,note_off,,0,0,2,,,,,,0,53,64
127104,note_off,,96,0,1,,,,,,0,65,64
127200,note_off,,96,0,1,,,,,,0,74,64
127200,note_on,,0,0,1,,,,,,0,65,92
127296,note_on,,192,0,3,,,,,,0,50,102
127296,note_off,,96,0,1,,,,,,0,65,64
127296,note_on,,0,0,1,,,,,,0,70,92
127296,note_on,,192,0,2,,,,,,0,58,92
127296,note_on,,0,0,2,,,,,,0,53,92
127392,note_on,,0,0,1,,,,,,0,65,92
127392,note_off,,96,0,1,,,,,,0,70,64
127488,note_off,,96,0,1,,,,,,0,65,64
127488,note_on,,0,0,2,,,,,,0,49,92
127488,note_on,,0,0,2,,,,,,0,58,92
127488,note_on,,0,0,3,,,,,,0,52,102
127488,note_off,,192,0,3,,,,,,0,50,64
127488,note_off,,0,0,2,,,,,,0,58,64
127488,note_off,,192,0,2,,,,,,0,53,64
127488,note_on,,0,0,1,,,,,,0,67,92
127584,note_on,,0,0,1,,,,,,0,65,92
127584,note_off,,96,0,1,,,,,,0,67,64
127680,note_off,,96,0,1,,,,,,0,65,64
127680,note_on,,0,0,1,,,,,,0,67,92
127776,note_off,,96,0,1,,,,,,0,67,64
127776,note_on,,0,0,1,,,,,,0,64,92
127872,note_off,,0,0,2,,,,,,0,49,64
127872,note_off,,384,0,3,,,,,,0,52,64
127872,note_off,,384,0,2,,,,,,0,58,64
127872,note_off,,96,0,1,,,,,,0,64,64
127872,note_on,,0,0,1,,,,,,0,70,92
127968,note_on,,0,0,1,,,,,,0,64,92
127968,note_off,,96,0,1,,,,,,0,70,64
128064,note_on,,192,0,2,,,,,,0,58,92
128064,note_on,,0,0,1,,,,,,0,67,92
128064,note_on,,192,0,3,,,,,,0,50,102
128064,note_on,,0,0,2,,,,,,0,52,92
128064,note_off,,96,0,1,,,,,,0,64,64
128160,note_on,,0,0,1,,,,,,0,64,92
128160,note_off,,96,0,1,,,,,,0,67,64
128256,note_on,,0,0,1,,,,,,0,69,92
128256,note_on,,0,0,2,,,,,,0,52,92
128256,note_off,,96,0,1,,,,,,0,64,64
128256,note_on,,0,0,3,,,,,,0,49,102
128256,note_off,,0,0,2,,,,,,0,58,64
128256,note_off,,192,0,2,,,,,,0,52,64
128256,note_on,,0,0,2,,,,,,0,57,92
128256,note_off,,192,0,3,,,,,,0,50,64
128352,note_on,,0,0,1,,,,,,0,67,92
128352,note_off,,96,0,1,,,,,,0,69,64
128448,note_on,,0,0,1,,,,,,0,69,92
128448,note_off,,96,0,1,,,,,,0,67,64
128544,note_on,,0,0,1,,,,,,0,64,92
128544,note_off,,96,0,1,,,,,,0,69,64
128640,note_off,,0,0,2,,,,,,0,52,64
128640,note_on,,0,0,1,,,,,,0,73,92
128640,note_off,,96,0,1,,,,,,0,64,64
128640,note_off,,384,0,3,,,,,,0,49,64
128640,note_off,,384,0,2,,,,,,0,57,64
128736,note_on,,0,0,1,,,,,,0,69,92
128736,note_off,,96,0,1,,,,,,0,73,64
128832,note_on,,0,0,1,,,,,,0,76,92
128832,note_off,,96,0,1,,,,,,0,69,64
128928,note_off,,96,0,1,,,,,,0,76,64
128928,note_on,,0,0,1,,,,,,0,71,92
129024,note_on,,384,0,3,,,,,,0,55,102
129024,note_on,,384,0,2,,,,,,0,57,92
129024,note_off,,96,0,1,,,,,,0,71,64
129024,note_on,,0,0,1,,,,,,0,64,92
129024,note_on,,0,0,1,,,,,,0,73,92
129120,note_on,,0,0,1,,,,,,0,71,92
129120,note_off,,96,0,1,,,,,,0,73,64
129216,note_on,,0,0,1,,,,,,0,73,92
129216,note_off,,96,0,1,,,,,,0,71,64
129312,note_on,,0,0,1,,,,,,0,69,92
129312,note_off,,96,0,1,,,,,,0,73,64
129408,note_on,,0,0,1,,,,,,0,76,92
129408,note_off,,0,0,1,,,,,,0,64,64
129408,note_off,,96,0,1,,,,,,0,69,64
129408,note_off,,384,0,3,,,,,,0,55,64
129408,note_off,,384,0,2,,,,,,0,57,64
129504,note_on,,0,0,1,,,,,,0,73,92
129504,note_off,,96,0,1,,,,,,0,76,64
129600,note_on,,0,0,1,,,,,,0,64,92
129600,note_on,,0,0,1,,,,,,0,81,92
129600,note_on,,192,0,3,,,,,,0,55,102
129600,note_off,,96,0,1,,,,,,0,73,64
129600,note_on,,192,0,2,,,,,,0,57,92
129696,note_off,,96,0,1,,,,,,0,81,64
129696,note_on,,0,0,1,,,,,,0,73,92
129792,note_on,,0,0,1,,,,,,0,74,92
129792,note_on,,0,0,2,,,,,,0,57,92
129792,note_off,,0,0,1,,,,,,0,64,64
129792,note_off,,192,0,2,,,,,,0,57,64
129792,note_off,,96,0,1,,,,,,0,73,64
129792,note_on,,0,0,3,,,,,,0,53,102
129792,note_off,,192,0,3,,,,,,0,55,64
129792,note_on,,0,0,1,,,,,,0,62,92
129888,note_on,,0,0,1,,,,,,0,73,92
129888,note_off,,96,0,1,,,,,,0,74,64
129984,note_off,,192,0,3,,,,,,0,53,64
129984,note_off,,96,0,1,,,,,,0,73,64
129984,note_off,,0,0,1,,,,,,0,62,64
129984,note_on,,0,0,1,,,,,,0,74,92
129984,note_on,,0,0,1,,,,,,0,65,92
129984,note_on,,0,0,3,,,,,,0,50,102
130080,note_off,,96,0,1,,,,,,0,74,64
130080,note_on,,0,0,1,,,,,,0,76,92
130176,note_off,,96,0,1,,,,,,0,76,64
130176,note_on,,0,0,3,,,,,,0,57,102
130176,note_off,,192,0,3,,,,,,0,50,64
130176,note_off,,384,0,2,,,,,,0,57,64
130176,note_on,,0,0,2,,,,,,0,57,92
130176,note_on,,0,0,1,,,,,,0,73,92
130176,note_on,,0,0,1,,,,,,0,64,92
130176,note_off,,0,0,1,,,,,,0,65,64
130368,note_off,,192,0,3,,,,,,0,57,64
130368,note_on,,0,0,1,,,,,,0,67,92
130368,note_off,,192,0,1,,,,,,0,64,64
130368,note_on,,0,0,3,,,,,,0,45,102
130464,note_off,,96,0,1,,,,,,0,73,64
130464,note_on,,0,0,1,,,,,,0,74,92
130560,note_off,,192,0,3,,,,,,0,45,64
130560,note_on,,0,0,3,,,,,,0,50,102
130560,note_on,,0,0,2,,,,,,0,57,92
130560,note_on,,0,0,1,,,,,,0,74,92
130560,note_on,,0,0,1,,,,,,0,65,92
130560,note_off,,96,0,1,,,,,,0,74,64
130560,note_off,,384,0,2,,,,,,0,57,64
130560,note_off,,0,0,1,,,,,,0,67,64
130656,note_off,,96,0,3,,,,,,0,50,64
130656,note_on,,0,0,3,,,,,,0,49,102
130752,note_off,,96,0,3,,,,,,0,49,64
130752,note_on,,0,0,3,,,,,,0,50,102
130848,note_off,,96,0,3,,,,,,0,50,64
130848,note_on,,0,0,3,,,,,,0,45,102
130944,note_off,,0,0,1,,,,,,0,65,64
130944,note_off,,384,0,1,,,,,,0,74,64
130944,note_off,,96,0,3,,,,,,0,45,64
130944,note_on,,0,0,3,,,,,,0,49,102
130944,note_off,,384,0,2,,,,,,0,57,64
131040,note_on,,0,0,3,,,,,,0,45,102
131040,note_off,,96,0,3,,,,,,0,49,64
131136,note_on,,192,0,1,,,,,,0,69,92
131136,note_off,,96,0,3,,,,,,0,45,64
131136,note_on,,0,0,3,,,,,,0,50,102
131136,note_on,,0,0,1,,,,,,0,74,92
131136,note_on,,192,0,2,,,,,,0,65,92
131136,note_on,,0,0,2,,,,,,0,57,92
131232,note_off,,96,0,3,,,,,,0,50,64
131232,note_on,,0,0,3,,,,,,0,45,102
131328,note_on,,0,0,3,,,,,,0,52,102
131328,note_off,,96,0,3,,,,,,0,45,64
131328,note_off,,192,0,1,,,,,,0,74,64
131328,note_off,,192,0,2,,,,,,0,57,64
131328,note_on,,0,0,1,,,,,,0,67,92
131328,note_on,,0,0,1,,,,,,0,73,92
131328,note_off,,0,0,2,,,,,,0,65,64
131328,note_on,,0,0,2,,,,,,0,64,92
131328,note_on,,0,0,2,,,,,,0,57,92
131328,note_off,,0,0,1,,,,,,0,69,64
131424,note_off,,96,0,3,,,,,,0,52,64
131424,note_on,,0,0,3,,,,,,0,50,102
131520,note_off,,96,0,3,,,,,,0,50,64
131520,note_on,,0,0,3,,,,,,0,52,102
131616,note_off,,96,0,3,,,,,,0,52,64
131616,note_on,,0,0,3,,,,,,0,45,102
131712,note_off,,384,0,2,,,,,,0,57,64
131712,note_off,,0,0,1,,,,,,0,67,64
131712,note_off,,384,0,1,,,,,,0,73,64
131712,note_off,,0,0,2,,,,,,0,64,64
131712,note_on,,0,0,3,,,,,,0,50,102
131712,note_off,,96,0,3,,,,,,0,45,64
131808,note_off,,96,0,3,,,,,,0,50,64
131808,note_on,,0,0,3,,,,,,0,45,102
131904,note_off,,96,0,3,,,,,,0,45,64
131904,note_on,,0,0,1,,,,,,0,73,92
131904,note_on,,0,0,3,,,,,,0,52,102
131904,note_on,,192,0,2,,,,,,0,64,92
131904,note_on,,192,0,1,,,,,,0,67,92
131904,note_on,,0,0,2,,,,,,0,57,92
132000,note_on,,0,0,3,,,,,,0,45,102
132000,note_off,,96,0,3,,,,,,0,52,64
132096,note_on,,0,0,2,,,,,,0,62,92
132096,note_off,,0,0,2,,,,,,0,64,64
132096,note_on,,0,0,2,,,,,,0,57,92
132096,note_off,,0,0,1,,,,,,0,67,64
132096,note_on,,0,0,1,,,,,,0,65,92
132096,note_on,,0,0,1,,,,,,0,74,92
132096,note_off,,96,0,3,,,,,,0,45,64
132096,note_on,,0,0,3,,,,,,0,53,102
132096,note_off,,192,0,2,,,,,,0,57,64
132096,note_off,,192,0,1,,,,,,0,73,64
132192,note_off,,96,0,3,,,,,,0,53,64
132192,note_on,,0,0,3,,,,,,0,52,102
132288,note_off,,96,0,3,,,,,,0,52,64
132288,note_on,,0,0,3,,,,,,0,53,102
132384,note_on,,0,0,3,,,,,,0,45,102
132384,note_off,,96,0,3,,,,,,0,53,64
132480,note_off,,384,0,2,,,,,,0,57,64
132480,note_off,,0,0,2,,,,,,0,62,64
132480,note_on,,0,0,3,,,,,,0,52,102
132480,note_off,,384,0,1,,,,,,0,74,64
132480,note_off,,0,0,1,,,,,,0,65,64
132480,note_off,,96,0,3,,,,,,0,45,64
132576,note_on,,0,0,3,,,,,,0,45,102
132576,note_off,,96,0,3,,,,,,0,52,64
132672,note_on,,192,0,2,,,,,,0,62,92
132672,note_on,,0,0,3,,,,,,0,53,102
132672,note_off,,96,0,3,,,,,,0,45,64
132672,note_on,,0,0,2,,,,,,0,57,92
132672,note_on,,0,0,1,,,,,,0,74,92
132672,note_on,,192,0,1,,,,,,0,69,92
132768,note_off,,96,0,3,,,,,,0,53,64
132768,note_on,,0,0,3,,,,,,0,45,102
132864,note_on,,0,0,3,,,,,,0,55,102
132864,note_off,,192,0,2,,,,,,0,57,64
132864,note_off,,0,0,2,,,,,,0,62,64
132864,note_on,,0,0,2,,,,,,0,62,92
132864,note_on,,0,0,2,,,,,,0,58,92
132864,note_off,,96,0,3,,,,,,0,45,64
132864,note_off,,192,0,1,,,,,,0,74,64
132864,note_off,,0,0,1,,,,,,0,69,64
132864,note_on,,0,0,1,,,,,,0,67,92
132864,note_on,,0,0,1,,,,,,0,76,92
132960,note_off,,96,0,3,,,,,,0,55,64
132960,note_on,,0,0,3,,,,,,0,53,102
133056,note_on,,0,0,3,,,,,,0,55,102
133056,note_off,,96,0,3,,,,,,0,53,64
133152,note_on,,0,0,3,,,,,,0,45,102
133152,note_off,,96,0,3,,,,,,0,55,64
133248,note_off,,96,0,3,,,,,,0,45,64
133248,note_on,,0,0,3,,,,,,0,53,102
133248,note_off,,0,0,2,,,,,,0,62,64
133248,note_off,,384,0,2,,,,,,0,58,64
133248,note_off,,384,0,1,,,,,,0,76,64
133248,note_off,,0,0,1,,,,,,0,67,64
133344,note_on,,0,0,3,,,,,,0,45,102
133344,note_off,,96,0,3,,,,,,0,53,64
133440,note_on,,0,0,3,,,,,,0,55,102
133440,note_off,,96,0,3,,,,,,0,45,64
133440,note_on,,0,0,2,,,,,,0,62,92
133440,note_on,,192,0,1,,,,,,0,70,92
133440,note_on,,192,0,2,,,,,,0,67,92
133440,note_on,,0,0,1,,,,,,0,76,92
133536,note_off,,96,0,3,,,,,,0,55,64
133536,note_on,,0,0,3,,,,,,0,45,102
133632,note_on,,0,0,1,,,,,,0,76,92
133632,note_off,,192,0,2,,,,,,0,62,64
133632,note_on,,0,0,2,,,,,,0,61,92
133632,note_on,,0,0,1,,,,,,0,69,92
133632,note_off,,96,0,3,,,,,,0,45,64
133632,note_on,,0,0,3,,,,,,0,57,102
133632,note_off,,0,0,1,,,,,,0,70,64
133632,note_off,,192,0,1,,,,,,0,76,64
133728,note_on,,0,0,2,,,,,,0,64,92
133728,note_off,,96,0,2,,,,,,0,67,64
133728,note_off,,96,0,1,,,,,,0,76,64
133728,note_on,,0,0,1,,,,,,0,73,92
133824,note_on,,0,0,2,,,,,,0,65,92
133824,note_off,,96,0,2,,,,,,0,64,64
133824,note_off,,96,0,1,,,,,,0,73,64
133824,note_on,,0,0,1,,,,,,0,74,92
133920,note_on,,0,0,2,,,,,,0,67,92
133920,note_off,,96,0,2,,,,,,0,65,64
133920,note_off,,96,0,1,,,,,,0,74,64
133920,note_on,,0,0,1,,,,,,0,76,92
134016,note_off,,0,0,2,,,,,,0,61,64
134016,note_off,,96,0,1,,,,,,0,76,64
134016,note_off,,0,0,1,,,,,,0,69,64
134016,note_on,,0,0,1,,,,,,0,77,92
134016,note_off,,96,0,2,,,,,,0,67,64
134016,note_on,,0,0,2,,,,,,0,69,92
134112,note_off,,96,0,1,,,,,,0,77,64
134112,note_off,,96,0,2,,,,,,0,69,64
134112,note_on,,0,0,2,,,,,,0,65,92
134112,note_on,,0,0,1,,,,,,0,74,92
134208,note_off,,96,0,2,,,,,,0,65,64
134208,note_on,,0,0,2,,,,,,0,67,92
134208,note_off,,96,0,1,,,,,,0,74,64
134208,note_on,,0,0,1,,,,,,0,76,92
134304,note_on,,0,0,2,,,,,,0,64,92
134304,note_off,,96,0,2,,,,,,0,67,64
134304,note_on,,0,0,1,,,,,,0,73,92
134304,note_off,,96,0,1,,,,,,0,76,64
134400,note_on,,0,0,1,,,,,,0,69,92
134400,note_off,,96,0,1,,,,,,0,73,64
134400,note_off,,96,0,2,,,,,,0,64,64
134400,note_on,,0,0,2,,,,,,0,57,92
134400,note_on,,0,0,2,,,,,,0,65,92
134400,note_on,,0,0,1,,,,,,0,74,92
134496,note_off,,96,0,1,,,,,,0,74,64
134496,note_on,,0,0,1,,,,,,0,71,92
134496,note_off,,96,0,2,,,,,,0,65,64
134496,note_on,,0,0,2,,,,,,0,62,92
134592,note_on,,0,0,2,,,,,,0,64,92
134592,note_on,,0,0,1,,,,,,0,73,92
134592,note_off,,96,0,1,,,,,,0,71,64
134592,note_off,,96,0,2,,,,,,0,62,64
134688,note_off,,96,0,1,,,,,,0,73,64
134688,note_on,,0,0,2,,,,,,0,65,92
134688,note_on,,0,0,1,,,,,,0,74,92
134688,note_off,,96,0,2,,,,,,0,64,64
134784,note_on,,0,0,2,,,,,,0,67,92
134784,note_off,,96,0,2,,,,,,0,65,64
134784,note_off,,96,0,1,,,,,,0,74,64
134784,note_on,,0,0,1,,,,,,0,76,92
134880,note_off,,96,0,1,,,,,,0,76,64
134880,note_on,,0,0,1,,,,,,0,73,92
134880,note_on,,0,0,2,,,,,,0,64,92
134880,note_off,,96,0,2,,,,,,0,67,64
134976,note_off,,96,0,1,,,,,,0,73,64
134976,note_on,,0,0,2,,,,,,0,65,92
134976,note_off,,96,0,2,,,,,,0,64,64
134976,note_on,,0,0,1,,,,,,0,74,92
135072,note_on,,0,0,1,,,,,,0,71,92
135072,note_off,,96,0,1,,,,,,0,74,64
135072,note_off,,96,0,2,,,,,,0,65,64
135072,note_on,,0,0,2,,,,,,0,62,92
135168,note_off,,96,0,1,,,,,,0,71,64
135168,note_on,,0,0,1,,,,,,0,73,92
135168,note_off,,96,0,2,,,,,,0,62,64
135168,note_on,,0,0,2,,,,,,0,64,92
135264,note_on,,0,0,1,,,,,,0,69,92
135264,note_off,,0,0,1,,,,,,0,69,64
135264,note_off,,96,0,1,,,,,,0,73,64
135264,note_off,,96,0,2,,,,,,0,64,64
135264,note_on,,0,0,2,,,,,,0,61,92
135360,note_off,,96,0,2,,,,,,0,61,64
135360,note_on,,0,0,2,,,,,,0,62,92
135360,note_on,,96,0,1,,,,,,0,71,92
135456,note_on,,0,0,1,,,,,,0,73,92
135456,note_off,,96,0,2,,,,,,0,62,64
135456,note_on,,0,0,2,,,,,,0,64,92
135456,note_off,,96,0,1,,,,,,0,71,64
135552,note_on,,0,0,2,,,,,,0,65,92
135552,note_off,,96,0,1,,,,,,0,73,64
135552,note_on,,0,0,1,,,,,,0,74,92
135552,note_off,,96,0,2,,,,,,0,64,64
135648,note_off,,96,0,2,,,,,,0,65,64
135648,note_on,,0,0,2,,,,,,0,62,92
135648,note_off,,96,0,1,,,,,,0,74,64
135648,note_on,,0,0,1,,,,,,0,71,92
135744,note_off,,96,0,2,,,,,,0,62,64
135744,note_off,,96,0,1,,,,,,0,71,64
135744,note_on,,0,0,2,,,,,,0,64,92
135744,note_on,,0,0,1,,,,,,0,73,92
135840,note_off,,96,0,1,,,,,,0,73,64
135840,note_off,,0,0,1,,,,,,0,69,64
135840,note_on,,0,0,1,,,,,,0,69,92
135840,note_off,,96,0,2,,,,,,0,64,64
135840,note_on,,0,0,2,,,,,,0,61,92
135936,note_on,,0,0,2,,,,,,0,62,92
135936,note_off,,96,0,2,,,,,,0,61,64
135936,note_off,,96,0,1,,,,,,0,69,64
135936,note_on,,0,0,1,,,,,,0,68,92
135936,note_on,,0,0,1,,,,,,0,71,92
136032,note_on,,0,0,1,,,,,,0,68,92
136032,note_off,,0,0,1,,,,,,0,68,64
136032,note_on,,0,0,2,,,,,,0,59,92
136032,note_off,,96,0,2,,,,,,0,62,64
136032,note_off,,96,0,1,,,,,,0,71,64
136128,note_off,,96,0,1,,,,,,0,68,64
136128,note_on,,0,0,1,,,,,,0,69,92
136128,note_off,,96,0,2,,,,,,0,59,64
136128,note_on,,0,0,2,,,,,,0,61,92
136224,note_off,,96,0,2,,,,,,0,61,64
136224,note_on,,0,0,2,,,,,,0,62,92
136224,note_on,,0,0,1,,,,,,0,71,92
136224,note_off,,96,0,1,,,,,,0,69,64
136320,note_off,,96,0,1,,,,,,0,71,64
136320,note_on,,0,0,1,,,,,,0,73,92
136320,note_off,,96,0,2,,,,,,0,62,64
136320,note_on,,0,0,2,,,,,,0,64,92
136320,note_on,,0,0,1,,,,,,0,69,92
136416,note_on,,0,0,1,,,,,,0,69,92
136416,note_off,,0,0,1,,,,,,0,69,64
136416,note_off,,96,0,1,,,,,,0,73,64
136416,note_off,,96,0,2,,,,,,0,64,64
136416,note_on,,0,0,2,,,,,,0,61,92
136512,note_off,,96,0,1,,,,,,0,69,64
136512,note_on,,0,0,1,,,,,,0,71,92
136512,note_on,,0,0,2,,,,,,0,62,92
136512,note_off,,96,0,2,,,,,,0,61,64
136608,note_on,,0,0,1,,,,,,0,68,92
136608,note_off,,96,0,1,,,,,,0,71,64
136608,note_off,,96,0,2,,,,,,0,62,64
136608,note_on,,0,0,2,,,,,,0,59,92
136704,note_off,,96,0,2,,,,,,0,59,64
136704,note_on,,0,0,2,,,,,,0,61,92
136704,note_off,,96,0,1,,,,,,0,68,64
136704,note_on,,0,0,1,,,,,,0,64,92
136704,note_on,,0,0,1,,,,,,0,69,92
136800,note_on,,0,0,3,,,,,,0,53,102
136800,note_off,,3168,0,3,,,,,,0,57,64
136896,note_off,,192,0,2,,,,,,0,61,64
136896,note_off,,0,0,2,,,,,,0,57,64
136896,note_off,,0,0,1,,,,,,0,64,64
136896,note_on,,0,0,3,,,,,,0,55,102
136896,note_off,,96,0,3,,,,,,0,53,64
136896,note_on,,0,0,2,,,,,,0,57,92
136896,note_on,,0,0,1,,,,,,0,73,92
136896,note_off,,192,0,1,,,,,,0,69,64
136992,note_off,,96,0,3,,,,,,0,55,64
136992,note_off,,96,0,2,,,,,,0,57,64
136992,note_on,,0,0,2,,,,,,0,61,92
136992,note_on,,0,0,3,,,,,,0,52,102
136992,note_off,,96,0,1,,,,,,0,73,64
136992,note_on,,0,0,1,,,,,,0,76,92
137088,note_off,,96,0,2,,,,,,0,61,64
137088,note_on,,0,0,2,,,,,,0,59,92
137088,note_on,,0,0,3,,,,,,0,53,102
137088,note_off,,96,0,3,,,,,,0,52,64
137088,note_off,,96,0,1,,,,,,0,76,64
137088,note_on,,0,0,1,,,,,,0,74,92
137184,note_off,,96,0,3,,,,,,0,53,64
137184,note_on,,0,0,3,,,,,,0,50,102
137184,note_off,,96,0,1,,,,,,0,74,64
137184,note_on,,0,0,1,,,,,,0,77,92
137184,note_on,,0,0,2,,,,,,0,62,92
137184,note_off,,96,0,2,,,,,,0,59,64
137280,note_on,,0,0,1,,,,,,0,76,92
137280,note_off,,96,0,1,,,,,,0,77,64
137280,note_on,,0,0,3,,,,,,0,52,102
137280,note_off,,96,0,3,,,,,,0,50,64
137280,note_on,,0,0,2,,,,,,0,61,92
137280,note_off,,96,0,2,,,,,,0,62,64
137376,note_on,,0,0,3,,,,,,0,49,102
137376,note_off,,96,0,3,,,,,,0,52,64
137376,note_on,,0,0,1,,,,,,0,79,92
137376,note_off,,96,0,1,,,,,,0,76,64
137376,note_on,,0,0,2,,,,,,0,64,92
137376,note_off,,96,0,2,,,,,,0,61,64
137472,note_on,,0,0,2,,,,,,0,62,92
137472,note_off,,96,0,2,,,,,,0,64,64
137472,note_on,,0,0,1,,,,,,0,77,92
137472,note_off,,96,0,1,,,,,,0,79,64
137472,note_off,,96,0,3,,,,,,0,49,64
137472,note_on,,0,0,3,,,,,,0,50,102
137568,note_on,,0,0,3,,,,,,0,46,102
137568,note_off,,96,0,3,,,,,,0,50,64
137664,note_off,,96,0,3,,,,,,0,46,64
137664,note_on,,0,0,3,,,,,,0,48,102
137664,note_off,,192,0,2,,,,,,0,62,64
137664,note_off,,192,0,1,,,,,,0,77,64
137664,note_on,,0,0,1,,,,,,0,66,92
137664,note_on,,0,0,1,,,,,,0,74,92
137760,note_off,,0,0,1,,,,,,0,66,64
137760,note_on,,0,0,1,,,,,,0,78,92
137760,note_on,,0,0,1,,,,,,0,69,92
137760,note_off,,96,0,1,,,,,,0,74,64
137760,note_on,,0,0,3,,,,,,0,45,102
137760,note_off,,96,0,3,,,,,,0,48,64
137856,note_on,,0,0,3,,,,,,0,46,102
137856,note_off,,96,0,1,,,,,,0,78,64
137856,note_off,,0,0,1,,,,,,0,69,64
137856,note_on,,0,0,1,,,,,,0,67,92
137856,note_on,,0,0,1,,,,,,0,76,92
137856,note_off,,96,0,3,,,,,,0,45,64
137952,note_off,,96,0,3,,,,,,0,46,64
137952,note_on,,0,0,3,,,,,,0,43,102
137952,note_off,,0,0,1,,,,,,0,67,64
137952,note_off,,96,0,1,,,,,,0,76,64
137952,note_on,,0,0,1,,,,,,0,79,92
137952,note_on,,0,0,1,,,,,,0,70,92
138048,note_off,,96,0,1,,,,,,0,79,64
138048,note_off,,0,0,1,,,,,,0,70,64
138048,note_off,,96,0,3,,,,,,0,43,64
138048,note_on,,0,0,3,,,,,,0,45,102
138048,note_on,,0,0,1,,,,,,0,69,92
138048,note_on,,0,0,1,,,,,,0,78,92
138144,note_off,,0,0,1,,,,,,0,69,64
138144,note_on,,0,0,3,,,,,,0,42,102
138144,note_off,,96,0,3,,,,,,0,45,64
138144,note_off,,96,0,1,,,,,,0,78,64
138144,note_on,,0,0,1,,,,,,0,72,92
138144,note_on,,0,0,1,,,,,,0,81,92
138240,note_off,,96,0,1,,,,,,0,81,64
138240,note_off,,0,0,1,,,,,,0,72,64
138240,note_on,,0,0,1,,,,,,0,70,92
138240,note_on,,0,0,1,,,,,,0,79,92
138240,note_off,,96,0,3,,,,,,0,42,64
138240,note_on,,0,0,3,,,,,,0,43,102
138336,note_on,,0,0,1,,,,,,0,78,92
138336,note_off,,96,0,1,,,,,,0,79,64
138336,note_off,,0,0,1,,,,,,0,70,64
138336,note_on,,0,0,1,,,,,,0,69,92
138432,note_on,,0,0,1,,,,,,0,79,92
138432,note_on,,0,0,1,,,,,,0,70,92
138432,note_off,,0,0,1,,,,,,0,69,64
138432,note_off,,96,0,1,,,,,,0,78,64
138528,note_off,,96,0,1,,,,,,0,79,64
138528,note_off,,0,0,1,,,,,,0,70,64
138528,note_on,,0,0,1,,,,,,0,62,92
138528,note_on,,0,0,1,,,,,,0,81,92
138624,note_on,,0,0,1,,,,,,0,77,92
138624,note_off,,96,0,1,,,,,,0,81,64
138624,note_off,,0,0,1,,,,,,0,62,64
138624,note_on,,0,0,1,,,,,,0,69,92
138720,note_on,,0,0,1,,,,,,0,76,92
138720,note_off,,96,0,1,,,,,,0,77,64
138720,note_off,,0,0,1,,,,,,0,69,64
138720,note_on,,0,0,1,,,,,,0,67,92
138816,note_off,,96,0,1,,,,,,0,76,64
138816,note_off,,0,0,1,,,,,,0,67,64
138816,note_on,,0,0,1,,,,,,0,69,92
138816,note_on,,0,0,1,,,,,,0,77,92
138912,note_on,,0,0,1,,,,,,0,79,92
138912,note_off,,0,0,1,,,,,,0,69,64
138912,note_off,,96,0,1,,,,,,0,77,64
138912,note_on,,0,0,1,,,,,,0,60,92
139008,note_off,,96,0,1,,,,,,0,79,64
139008,note_off,,0,0,1,,,,,,0,60,64
139008,note_on,,0,0,1,,,,,,0,67,92
139008,note_on,,0,0,1,,,,,,0,76,92
139104,note_off,,96,0,1,,,,,,0,76,64
139104,note_off,,0,0,1,,,,,,0,67,64
139104,note_on,,0,0,1,,,,,,0,65,92
139104,note_on,,0,0,1,,,,,,0,74,92
139200,note_on,,0,0,1,,,,,,0,67,92
139200,note_on,,0,0,1,,,,,,0,76,92
139200,note_off,,96,0,1,,,,,,0,74,64
139200,note_off,,0,0,1,,,,,,0,65,64
139296,note_off,,96,0,1,,,,,,0,76,64
139296,note_off,,0,0,1,,,,,,0,67,64
139296,note_on,,0,0,1,,,,,,0,58,92
139296,note_on,,0,0,1,,,,,,0,77,92
139392,note_on,,0,0,1,,,,,,0,65,92
139392,note_off,,96,0,1,,,,,,0,77,64
139392,note_off,,0,0,1,,,,,,0,58,64
139392,note_on,,0,0,1,,,,,,0,74,92
139488,note_off,,96,0,1,,,,,,0,74,64
139488,note_off,,0,0,1,,,,,,0,65,64
139488,note_on,,0,0,1,,,,,,0,64,92
139488,note_on,,0,0,1,,,,,,0,73,92
139584,note_off,,96,0,1,,,,,,0,73,64
139584,note_off,,0,0,1,,,,,,0,64,64
139584,note_on,,0,0,1,,,,,,0,74,92
139584,note_on,,0,0,1,,,,,,0,65,92
139680,note_off,,96,0,1,,,,,,0,74,64
139680,note_on,,0,0,1,,,,,,0,57,92
139680,note_off,,0,0,1,,,,,,0,65,64
139680,note_on,,0,0,1,,,,,,0,76,92
139776,note_on,,0,0,1,,,,,,0,64,92
139776,note_off,,0,0,1,,,,,,0,57,64
139776,note_on,,0,0,1,,,,,,0,73,92
139776,note_off,,1536,0,3,,,,,,0,43,64
139776,note_on,,0,0,3,,,,,,0,45,102
139776,note_off,,96,0,1,,,,,,0,76,64
139872,note_off,,96,0,1,,,,,,0,73,64
139872,note_off,,0,0,1,,,,,,0,64,64
139872,note_on,,0,0,1,,,,,,0,62,92
139872,note_on,,0,0,1,,,,,,0,71,92
139968,note_off,,96,0,1,,,,,,0,71,64
139968,note_off,,0,0,1,,,,,,0,62,64
139968,note_on,,0,0,1,,,,,,0,64,92
139968,note_on,,0,0,1,,,,,,0,73,92
140064,note_off,,0,0,1,,,,,,0,64,64
140064,note_off,,96,0,1,,,,,,0,73,64
140064,note_on,,0,0,1,,,,,,0,76,92
140064,note_on,,0,0,1,,,,,,0,55,92
140160,note_on,,0,0,1,,,,,,0,74,92
140160,note_on,,0,0,1,,,,,,0,65,92
140160,note_off,,0,0,1,,,,,,0,55,64
140160,note_off,,96,0,1,,,,,,0,76,64
140256,note_on,,0,0,1,,,,,,0,73,92
140256,note_on,,0,0,1,,,,,,0,64,92
140256,note_off,,0,0,1,,,,,,0,65,64
140256,note_off,,96,0,1,,,,,,0,74,64
140352,note_on,,0,0,1,,,,,,0,65,92
140352,note_off,,96,0,1,,,,,,0,73,64
140352,note_off,,0,0,1,,,,,,0,64,64
140352,note_on,,0,0,1,,,,,,0,74,92
140448,note_on,,0,0,1,,,,,,0,77,92
140448,note_off,,96,0,1,,,,,,0,74,64
140448,note_off,,0,0,1,,,,,,0,65,64
140448,note_on,,0,0,1,,,,,,0,57,92
140544,note_off,,96,0,1,,,,,,0,77,64
140544,note_off,,0,0,1,,,,,,0,57,64
140544,note_on,,0,0,1,,,,,,0,67,92
140544,note_on,,0,0,1,,,,,,0,73,92
140640,note_off,,0,0,1,,,,,,0,67,64
140640,note_off,,96,0,1,,,,,,0,73,64
140640,note_on,,0,0,1,,,,,,0,71,92
140640,note_on,,0,0,1,,,,,,0,65,92
140736,note_on,,0,0,1,,,,,,0,73,92
140736,note_off,,96,0,1,,,,,,0,71,64
140736,note_off,,0,0,1,,,,,,0,65,64
140736,note_on,,0,0,1,,,,,,0,67,92
140832,note_on,,0,0,1,,,,,,0,76,92
140832,note_off,,0,0,1,,,,,,0,67,64
140832,note_on,,0,0,1,,,,,,0,58,92
140832,note_off,,96,0,1,,,,,,0,73,64
140928,note_off,,0,0,1,,,,,,0,58,64
140928,note_on,,0,0,1,,,,,,0,65,92
140928,note_off,,96,0,1,,,,,,0,76,64
140928,note_on,,0,0,1,,,,,,0,74,92
141024,note_off,,96,0,1,,,,,,0,74,64
141024,note_on,,0,0,1,,,,,,0,64,92
141024,note_on,,0,0,1,,,,,,0,73,92
141024,note_off,,0,0,1,,,,,,0,65,64
141120,note_off,,96,0,1,,,,,,0,73,64
141120,note_off,,0,0,1,,,,,,0,64,64
141120,note_on,,0,0,1,,,,,,0,74,92
141120,note_on,,0,0,1,,,,,,0,65,92
141216,note_off,,0,0,1,,,,,,0,65,64
141216,note_on,,0,0,1,,,,,,0,57,92
141216,note_on,,0,0,1,,,,,,0,77,92
141216,note_off,,96,0,1,,,,,,0,74,64
141312,note_off,,0,0,1,,,,,,0,57,64
141312,note_on,,0,0,1,,,,,,0,81,92
141312,note_on,,0,0,1,,,,,,0,76,92
141312,note_on,,0,0,1,,,,,,0,69,92
141312,note_off,,96,0,1,,,,,,0,77,64
141312,note_on,,3648,0,2,,,,,,0,64,92
141312,note_on,,0,0,2,,,,,,0,57,92
141312,note_on,,0,0,2,,,,,,0,61,92
141360,note_on,,0,0,1,,,,,,0,79,92
141360,note_off,,48,0,1,,,,,,0,81,64
141408,note_off,,1632,0,3,,,,,,0,45,64
141408,note_on,,0,0,1,,,,,,0,81,92
141408,note_off,,48,0,1,,,,,,0,79,64
141408,note_on,,0,0,3,,,,,,0,43,102
141456,note_off,,48,0,1,,,,,,0,81,64
141456,note_on,,0,0,1,,,,,,0,79,92
141504,note_on,,0,0,3,,,,,,0,45,102
141504,note_off,,96,0,3,,,,,,0,43,64
141504,note_off,,48,0,1,,,,,,0,79,64
141504,note_on,,0,0,1,,,,,,0,81,92
141552,note_on,,0,0,1,,,,,,0,79,92
141552,note_off,,48,0,1,,,,,,0,81,64
141600,note_on,,0,0,1,,,,,,0,81,92
141600,note_off,,48,0,1,,,,,,0,79,64
141600,note_on,,0,0,3,,,,,,0,40,102
141600,note_off,,96,0,3,,,,,,0,45,64
141648,note_off,,48,0,1,,,,,,0,81,64
141648,note_on,,0,0,1,,,,,,0,79,92
141696,note_off,,48,0,1,,,,,,0,79,64
141696,note_on,,0,0,1,,,,,,0,81,92
141696,note_on,,0,0,3,,,,,,0,45,102
141696,note_off,,96,0,3,,,,,,0,40,64
141744,note_off,,48,0,1,,,,,,0,81,64
141744,note_on,,0,0,1,,,,,,0,79,92
141792,note_on,,0,0,1,,,,,,0,81,92
141792,note_off,,48,0,1,,,,,,0,79,64
141792,note_off,,96,0,3,,,,,,0,45,64
141792,note_on,,0,0,3,,,,,,0,40,102
141840,note_off,,48,0,1,,,,,,0,81,64
141840,note_on,,0,0,1,,,,,,0,79,92
141888,note_off,,48,0,1,,,,,,0,79,64
141888,note_on,,0,0,1,,,,,,0,81,92
141888,note_on,,0,0,3,,,,,,0,47,102
141888,note_off,,96,0,3,,,,,,0,40,64
141936,note_off,,48,0,1,,,,,,0,81,64
141936,note_on,,0,0,1,,,,,,0,79,92
141984,note_on,,0,0,1,,,,,,0,81,92
141984,note_off,,96,0,3,,,,,,0,47,64
141984,note_off,,48,0,1,,,,,,0,79,64
141984,note_on,,0,0,3,,,,,,0,40,102
142032,note_off,,48,0,1,,,,,,0,81,64
142032,note_on,,0,0,1,,,,,,0,79,92
142080,note_on,,0,0,1,,,,,,0,81,92
142080,note_on,,0,0,3,,,,,,0,49,102
142080,note_off,,48,0,1,,,,,,0,79,64
142080,note_off,,96,0,3,,,,,,0,40,64
142128,note_off,,48,0,1,,,,,,0,81,64
142128,note_on,,0,0,1,,,,,,0,79,92
142176,note_off,,48,0,1,,,,,,0,79,64
142176,note_on,,0,0,1,,,,,,0,81,92
142176,note_on,,0,0,3,,,,,,0,47,102
142176,note_off,,96,0,3,,,,,,0,49,64
142224,note_on,,0,0,1,,,,,,0,79,92
142224,note_off,,48,0,1,,,,,,0,81,64
142272,note_off,,48,0,1,,,,,,0,79,64
142272,note_on,,0,0,1,,,,,,0,81,92
142272,note_on,,0,0,3,,,,,,0,49,102
142272,note_off,,96,0,3,,,,,,0,47,64
142320,note_off,,48,0,1,,,,,,0,81,64
142320,note_on,,0,0,1,,,,,,0,79,92
142368,note_off,,48,0,1,,,,,,0,79,64
142368,note_on,,0,0,3,,,,,,0,45,102
142368,note_off,,96,0,3,,,,,,0,49,64
142368,note_on,,0,0,1,,,,,,0,81,92
142416,note_on,,0,0,1,,,,,,0,79,92
142416,note_off,,48,0,1,,,,,,0,81,64
142464,note_off,,48,0,1,,,,,,0,79,64
142464,note_off,,96,0,3,,,,,,0,45,64
142464,note_on,,0,0,3,,,,,,0,49,102
142464,note_on,,0,0,1,,,,,,0,81,92
142512,note_on,,0,0,1,,,,,,0,79,92
142512,note_off,,48,0,1,,,,,,0,81,64
142560,note_off,,96,0,3,,,,,,0,49,64
142560,note_off,,48,0,1,,,,,,0,79,64
142560,note_on,,0,0,3,,,,,,0,45,102
142560,note_on,,0,0,1,,,,,,0,81,92
142608,note_on,,0,0,1,,,,,,0,79,92
142608,note_off,,48,0,1,,,,,,0,81,64
142656,note_off,,48,0,1,,,,,,0,79,64
142656,note_on,,0,0,3,,,,,,0,52,102
142656,note_off,,96,0,3,,,,,,0,45,64
142656,note_on,,0,0,1,,,,,,0,81,92
142704,note_on,,0,0,1,,,,,,0,79,92
142704,note_off,,48,0,1,,,,,,0,81,64
142752,note_off,,96,0,3,,,,,,0,52,64
142752,note_on,,0,0,1,,,,,,0,81,92
142752,note_off,,48,0,1,,,,,,0,79,64
142752,note_on,,0,0,3,,,,,,0,43,102
142800,note_off,,48,0,1,,,,,,0,81,64
142800,note_on,,0,0,1,,,,,,0,79,92
142848,note_on,,0,0,1,,,,,,0,81,92
142848,note_on,,0,0,3,,,,,,0,41,102
142848,note_off,,48,0,1,,,,,,0,79,64
142848,note_off,,96,0,3,,,,,,0,43,64
142896,note_on,,0,0,1,,,,,,0,79,92
142896,note_off,,48,0,1,,,,,,0,81,64
142944,note_on,,0,0,1,,,,,,0,69,92
142944,note_off,,0,0,1,,,,,,0,69,64
142944,note_off,,48,0,1,,,,,,0,79,64
142944,note_on,,0,0,1,,,,,,0,81,92
142992,note_off,,48,0,1,,,,,,0,81,64
142992,note_on,,0,0,1,,,,,,0,79,92
143040,note_on,,0,0,1,,,,,,0,74,92
143040,note_off,,0,0,2,,,,,,0,64,64
143040,note_on,,0,0,2,,,,,,0,62,92
143040,note_off,,48,0,1,,,,,,0,79,64
143040,note_off,,0,0,1,,,,,,0,76,64
143040,note_off,,1728,0,2,,,,,,0,61,64
143040,note_on,,0,0,1,,,,,,0,77,92
143136,note_on,,0,0,1,,,,,,0,76,92
143136,note_off,,96,0,1,,,,,,0,77,64
143136,note_off,,288,0,3,,,,,,0,41,64
143136,note_on,,0,0,3,,,,,,0,43,102
143232,note_on,,0,0,3,,,,,,0,45,102
143232,note_off,,96,0,1,,,,,,0,76,64
143232,note_off,,0,0,1,,,,,,0,74,64
143232,note_on,,0,0,1,,,,,,0,77,92
143232,note_off,,0,0,1,,,,,,0,69,64
143232,note_on,,0,0,1,,,,,,0,74,92
143232,note_off,,96,0,3,,,,,,0,43,64
143328,note_on,,96,0,1,,,,,,0,69,92
143424,note_on,,0,0,1,,,,,,0,76,92
143424,note_on,,0,0,1,,,,,,0,73,92
143424,note_off,,0,0,1,,,,,,0,74,64
143424,note_off,,96,0,1,,,,,,0,77,64
143424,note_off,,384,0,2,,,,,,0,62,64
143424,note_off,,0,0,2,,,,,,0,57,64
143424,note_on,,0,0,2,,,,,,0,64,92
143424,note_on,,0,0,2,,,,,,0,57,92
143520,note_off,,96,0,1,,,,,,0,69,64
143520,note_on,,0,0,1,,,,,,0,67,92
143616,note_off,,192,0,2,,,,,,0,57,64
143616,note_off,,0,0,2,,,,,,0,64,64
143616,note_on,,0,0,2,,,,,,0,66,92
143616,note_on,,0,0,2,,,,,,0,55,92
143616,note_on,,0,0,3,,,,,,0,38,102
143616,note_off,,384,0,3,,,,,,0,45,64
143616,note_on,,0,0,1,,,,,,0,74,92
143616,note_off,,0,0,1,,,,,,0,73,64
143616,note_off,,96,0,1,,,,,,0,67,64
143616,note_on,,0,0,1,,,,,,0,66,92
143616,note_off,,0,0,1,,,,,,0,76,64
143712,note_off,,96,0,1,,,,,,0,74,64
143712,note_on,,0,0,1,,,,,,0,73,92
143808,note_off,,96,0,1,,,,,,0,73,64
143808,note_on,,0,0,1,,,,,,0,74,92
143904,note_off,,96,0,1,,,,,,0,74,64
143904,note_on,,0,0,1,,,,,,0,69,92
144000,note_off,,384,0,2,,,,,,0,55,64
144000,note_off,,96,0,1,,,,,,0,69,64
144000,note_off,,0,0,2,,,,,,0,66,64
144000,note_off,,0,0,1,,,,,,0,66,64
144000,note_on,,0,0,1,,,,,,0,78,92
144096,note_on,,0,0,1,,,,,,0,74,92
144096,note_off,,96,0,1,,,,,,0,78,64
144192,note_on,,0,0,2,,,,,,0,57,92
144192,note_on,,192,0,2,,,,,,0,54,92
144192,note_on,,0,0,1,,,,,,0,81,92
144192,note_on,,0,0,1,,,,,,0,62,92
144192,note_off,,96,0,1,,,,,,0,74,64
144288,note_on,,0,0,1,,,,,,0,72,92
144288,note_off,,96,0,1,,,,,,0,81,64
144384,set_tempo,882350,144384,1,0,,,,,,,,
144384,note_off,,0,0,2,,,,,,0,54,64
144384,note_off,,192,0,2,,,,,,0,57,64
144384,note_on,,0,0,2,,,,,,0,58,92
144384,note_on,,0,0,2,,,,,,0,55,92
144384,note_on,,0,0,1,,,,,,0,70,92
144384,note_on,,0,0,1,,,,,,0,62,92
144384,note_off,,0,0,1,,,,,,0,62,64
144384,note_off,,96,0,1,,,,,,0,72,64
144480,note_on,,0,0,1,,,,,,0,69,92
144480,note_off,,96,0,1,,,,,,0,70,64
144576,note_on,,0,0,1,,,,,,0,70,92
144576,note_off,,96,0,1,,,,,,0,69,64
144672,note_on,,0,0,1,,,,,,0,67,92
144672,note_off,,96,0,1,,,,,,0,70,64
144768,note_off,,384,0,2,,,,,,0,58,64
144768,note_off,,0,0,1,,,,,,0,62,64
144768,note_off,,96,0,1,,,,,,0,67,64
144768,note_off,,0,0,2,,,,,,0,55,64
144768,note_on,,0,0,1,,,,,,0,74,92
144864,note_on,,0,0,1,,,,,,0,70,92
144864,note_off,,96,0,1,,,,,,0,74,64
144960,note_on,,192,0,2,,,,,,0,52,92
144960,note_on,,0,0,1,,,,,,0,62,92
144960,note_off,,96,0,1,,,,,,0,70,64
144960,note_on,,0,0,1,,,,,,0,79,92
144960,note_on,,0,0,2,,,,,,0,55,92
145056,note_off,,96,0,1,,,,,,0,79,64
145056,note_on,,0,0,1,,,,,,0,70,92
145152,note_off,,192,0,2,,,,,,0,55,64
145152,note_on,,0,0,2,,,,,,0,57,92
145152,note_off,,96,0,1,,,,,,0,70,64
145152,note_off,,0,0,1,,,,,,0,62,64
145152,note_on,,0,0,1,,,,,,0,62,92
145152,note_on,,0,0,1,,,,,,0,69,92
145152,note_on,,0,0,2,,,,,,0,54,92
145152,note_off,,0,0,2,,,,,,0,52,64
145248,note_on,,0,0,1,,,,,,0,67,92
145248,note_off,,96,0,1,,,,,,0,69,64
145344,note_off,,96,0,1,,,,,,0,67,64
145344,note_on,,0,0,1,,,,,,0,69,92
145440,note_off,,96,0,1,,,,,,0,69,64
145440,note_on,,0,0,1,,,,,,0,66,92
145536,note_off,,384,0,2,,,,,,0,57,64
145536,note_off,,0,0,2,,,,,,0,54,64
145536,note_off,,0,0,1,,,,,,0,62,64
145536,note_on,,0,0,1,,,,,,0,74,92
145536,note_off,,96,0,1,,,,,,0,66,64
145632,note_off,,96,0,1,,,,,,0,74,64
145632,note_on,,0,0,1,,,,,,0,69,92
145728,note_on,,0,0,2,,,,,,0,57,92
145728,note_on,,192,0,2,,,,,,0,50,92
145728,note_on,,0,0,1,,,,,,0,60,92
145728,note_off,,96,0,1,,,,,,0,69,64
145728,note_on,,0,0,1,,,,,,0,78,92
145824,note_off,,96,0,1,,,,,,0,78,64
145824,note_on,,0,0,1,,,,,,0,69,92
145920,note_off,,96,0,1,,,,,,0,69,64
145920,note_on,,0,0,1,,,,,,0,58,92
145920,note_on,,0,0,1,,,,,,0,67,92
145920,note_on,,0,0,2,,,,,,0,55,92
145920,note_on,,0,0,2,,,,,,0,52,92
145920,note_off,,0,0,2,,,,,,0,50,64
145920,note_off,,192,0,2,,,,,,0,57,64
145920,note_off,,0,0,1,,,,,,0,60,64
146016,note_off,,96,0,1,,,,,,0,67,64
146016,note_on,,0,0,1,,,,,,0,66,92
146112,note_on,,0,0,1,,,,,,0,67,92
146112,note_off,,96,0,1,,,,,,0,66,64
146208,note_off,,96,0,1,,,,,,0,67,64
146208,note_on,,0,0,1,,,,,,0,64,92
146304,note_on,,0,0,1,,,,,,0,73,92
146304,note_off,,0,0,1,,,,,,0,58,64
146304,note_off,,384,0,2,,,,,,0,55,64
146304,note_off,,0,0,2,,,,,,0,52,64
146304,note_off,,96,0,1,,,,,,0,64,64
146400,note_off,,96,0,1,,,,,,0,73,64
146400,note_on,,0,0,1,,,,,,0,67,92
146496,note_on,,0,0,2,,,,,,0,55,92
146496,note_off,,96,0,1,,,,,,0,67,64
146496,note_on,,0,0,1,,,,,,0,58,92
146496,note_on,,0,0,1,,,,,,0,76,92
146496,note_on,,192,0,2,,,,,,0,49,92
146592,note_off,,96,0,1,,,,,,0,76,64
146592,note_on,,0,0,1,,,,,,0,67,92
146688,note_off,,192,0,2,,,,,,0,55,64
146688,note_off,,0,0,2,,,,,,0,49,64
146688,note_off,,0,0,1,,,,,,0,58,64
146688,note_on,,0,0,2,,,,,,0,50,92
146688,note_on,,0,0,2,,,,,,0,57,92
146688,note_off,,96,0,1,,,,,,0,67,64
146688,note_on,,0,0,1,,,,,,0,66,92
146688,note_on,,0,0,1,,,,,,0,57,92
146784,note_off,,96,0,1,,,,,,0,66,64
146784,note_on,,0,0,1,,,,,,0,64,92
146880,note_on,,0,0,1,,,,,,0,66,92
146880,note_off,,96,0,1,,,,,,0,64,64
146976,note_off,,96,0,1,,,,,,0,66,64
146976,note_on,,0,0,1,,,,,,0,62,92
147072,note_off,,0,0,2,,,,,,0,50,64
147072,note_off,,384,0,2,,,,,,0,57,64
147072,note_off,,96,0,1,,,,,,0,62,64
147072,note_off,,0,0,1,,,,,,0,57,64
147072,note_on,,0,0,1,,,,,,0,69,92
147168,note_off,,96,0,1,,,,,,0,69,64
147168,note_on,,0,0,1,,,,,,0,66,92
147264,note_off,,96,0,1,,,,,,0,66,64
147264,note_on,,0,0,1,,,,,,0,60,92
147264,note_on,,0,0,1,,,,,,0,74,92
147264,note_on,,192,0,2,,,,,,0,50,92
147264,note_on,,0,0,2,,,,,,0,57,92
147360,note_off,,96,0,1,,,,,,0,74,64
147360,note_on,,0,0,1,,,,,,0,66,92
147456,note_off,,0,0,2,,,,,,0,50,64
147456,note_on,,0,0,2,,,,,,0,50,92
147456,note_on,,0,0,2,,,,,,0,55,92
147456,note_off,,192,0,2,,,,,,0,57,64
147456,set_tempo,923070,3072,1,0,,,,,,,,
147456,note_off,,96,0,1,,,,,,0,66,64
147456,note_off,,0,0,1,,,,,,0,60,64
147456,note_on,,0,0,1,,,,,,0,58,92
147456,note_on,,0,0,1,,,,,,0,64,92
147552,note_on,,0,0,1,,,,,,0,62,92
147552,note_off,,96,0,1,,,,,,0,64,64
147648,note_off,,0,0,2,,,,,,0,50,64
147648,note_off,,192,0,2,,,,,,0,55,64
147648,note_off,,0,0,1,,,,,,0,58,64
147648,note_on,,0,0,1,,,,,,0,64,92
147648,note_off,,96,0,1,,,,,,0,62,64
147744,note_off,,96,0,1,,,,,,0,64,64
147744,note_on,,0,0,1,,,,,,0,74,92
147840,note_on,,0,0,1,,,,,,0,64,92
147840,note_on,,0,0,2,,,,,,0,55,92
147840,note_on,,192,0,2,,,,,,0,50,92
147840,note_off,,96,0,1,,,,,,0,74,64
147840,note_on,,0,0,1,,,,,,0,58,92
147936,note_on,,0,0,1,,,,,,0,62,92
147936,note_off,,96,0,1,,,,,,0,64,64
148032,note_off,,0,0,1,,,,,,0,58,64
148032,note_on,,0,0,1,,,,,,0,64,92
148032,note_off,,192,0,2,,,,,,0,55,64
148032,note_off,,0,0,2,,,,,,0,50,64
148032,note_off,,96,0,1,,,,,,0,62,64
148128,note_off,,96,0,1,,,,,,0,64,64
148128,note_on,,0,0,1,,,,,,0,74,92
148224,note_on,,0,0,1,,,,,,0,64,92
148224,note_on,,0,0,1,,,,,,0,58,92
148224,note_off,,96,0,1,,,,,,0,74,64
148224,note_on,,192,0,2,,,,,,0,50,92
148224,note_on,,0,0,2,,,,,,0,55,92
148320,note_on,,0,0,1,,,,,,0,62,92
148320,note_off,,96,0,1,,,,,,0,64,64
148416,note_off,,0,0,2,,,,,,0,50,64
148416,note_off,,96,0,1,,,,,,0,62,64
148416,note_off,,0,0,1,,,,,,0,58,64
148416,note_on,,0,0,1,,,,,,0,64,92
148416,note_off,,192,0,2,,,,,,0,55,64
148512,note_off,,96,0,1,,,,,,0,64,64
148512,note_on,,0,0,1,,,,,,0,74,92
148608,note_off,,96,0,1,,,,,,0,74,64
148608,note_on,,0,0,1,,,,,,0,58,92
148608,note_on,,0,0,1,,,,,,0,64,92
148608,note_on,,192,0,2,,,,,,0,50,92
148608,note_on,,0,0,2,,,,,,0,55,92
148704,note_off,,96,0,1,,,,,,0,64,64
148704,note_on,,0,0,1,,,,,,0,62,92
148800,note_on,,0,0,1,,,,,,0,64,92
148800,note_off,,0,0,2,,,,,,0,50,64
148800,note_off,,96,0,1,,,,,,0,62,64
148800,note_off,,0,0,1,,,,,,0,58,64
148800,note_off,,192,0,2,,,,,,0,55,64
148896,note_on,,0,0,1,,,,,,0,74,92
148896,note_off,,96,0,1,,,,,,0,64,64
148992,note_on,,0,0,1,,,,,,0,64,92
148992,note_on,,0,0,1,,,,,,0,58,92
148992,note_off,,96,0,1,,,,,,0,74,64
148992,note_on,,0,0,2,,,,,,0,55,92
148992,note_on,,192,0,2,,,,,,0,50,92
149088,note_off,,96,0,1,,,,,,0,64,64
149088,note_on,,0,0,1,,,,,,0,62,92
149184,note_off,,0,0,2,,,,,,0,50,64
149184,note_off,,192,0,2,,,,,,0,55,64
149184,note_off,,96,0,1,,,,,,0,62,64
149184,note_on,,0,0,1,,,,,,0,64,92
149184,note_off,,0,0,1,,,,,,0,58,64
149280,note_off,,96,0,1,,,,,,0,64,64
149280,note_on,,0,0,1,,,,,,0,73,92
149376,note_off,,96,0,1,,,,,,0,73,64
149376,note_on,,192,0,2,,,,,,0,50,92
149376,note_on,,0,0,2,,,,,,0,55,92
149376,note_on,,0,0,1,,,,,,0,58,92
149376,note_on,,0,0,1,,,,,,0,64,92
149472,note_on,,0,0,1,,,,,,0,62,92
149472,note_off,,96,0,1,,,,,,0,64,64
149568,note_off,,192,0,2,,,,,,0,55,64
149568,note_off,,96,0,1,,,,,,0,62,64
149568,note_off,,0,0,2,,,,,,0,50,64
149568,note_on,,0,0,1,,,,,,0,64,92
149568,note_off,,0,0,1,,,,,,0,58,64
149664,note_on,,0,0,1,,,,,,0,73,92
149664,note_off,,96,0,1,,,,,,0,64,64
149760,note_on,,0,0,1,,,,,,0,58,92
149760,note_on,,192,0,2,,,,,,0,50,92
149760,note_on,,0,0,2,,,,,,0,55,92
149760,note_on,,0,0,1,,,,,,0,64,92
149760,note_off,,96,0,1,,,,,,0,73,64
149856,note_off,,96,0,1,,,,,,0,64,64
149856,note_on,,0,0,1,,,,,,0,62,92
149952,note_off,,192,0,2,,,,,,0,55,64
149952,note_off,,0,0,2,,,,,,0,50,64
149952,note_off,,96,0,1,,,,,,0,62,64
149952,note_off,,0,0,1,,,,,,0,58,64
149952,note_on,,0,0,1,,,,,,0,64,92
150048,note_on,,0,0,1,,,,,,0,73,92
150048,note_off,,96,0,1,,,,,,0,64,64
150144,note_on,,0,0,2,,,,,,0,55,92
150144,note_off,,96,0,1,,,,,,0,73,64
150144,note_on,,0,0,1,,,,,,0,58,92
150144,note_on,,0,0,1,,,,,,0,64,92
150144,note_on,,192,0,2,,,,,,0,50,92
150240,note_off,,96,0,1,,,,,,0,64,64
150240,note_on,,0,0,1,,,,,,0,62,92
150336,note_off,,0,0,2,,,,,,0,50,64
150336,note_off,,192,0,2,,,,,,0,55,64
150336,note_on,,0,0,1,,,,,,0,64,92
150336,note_off,,0,0,1,,,,,,0,58,64
150336,note_off,,96,0,1,,,,,,0,62,64
150432,note_on,,0,0,1,,,,,,0,73,92
150432,note_off,,96,0,1,,,,,,0,64,64
150528,note_off,,96,0,1,,,,,,0,73,64
150528,note_on,,0,0,1,,,,,,0,62,92
150528,note_on,,0,0,1,,,,,,0,69,92
150528,note_on,,0,0,1,,,,,,0,74,92
150528,note_on,,0,0,2,,,,,,0,57,92
150528,note_on,,0,0,2,,,,,,0,54,92
150528,set_tempo,1200000,3072,1,0,,,,,,,,
150528,note_on,,192,0,2,,,,,,0,50,92
152064,note_off,,1536,0,1,,,,,,0,74,64
152064,note_off,,0,0,1,,,,,,0,69,64
152064,note_off,,0,0,1,,,,,,0,62,64
152064,set_tempo,1500000,1536,1,0,,,,,,,,
152064,note_off,,1536,0,2,,,,,,0,57,64
152064,note_off,,0,0,2,,,,,,0,54,64
152064,note_off,,0,0,2,,,,,,0,50,64
152064,note_off,,8448,0,3,,,,,,0,38,64
153600,set_tempo,472440,1536,1,0,,,,,,,,
153600,note_on,,1536,0,1,,,,,,0,62,92
154368,note_off,,768,0,1,,,,,,0,62,64
154368,note_on,,0,0,1,,,,,,0,64,92
155136,note_on,,0,0,1,,,,,,0,65,92
155136,note_off,,768,0,1,,,,,,0,64,64
155520,note_on,,0,0,1,,,,,,0,62,92
155520,note_off,,384,0,1,,,,,,0,65,64
155904,note_off,,384,0,1,,,,,,0,62,64
155904,note_on,,0,0,1,,,,,,0,67,92
157056,note_off,,1152,0,1,,,,,,0,67,64
157056,note_on,,0,0,1,,,,,,0,65,92
157440,note_on,,0,0,1,,,,,,0,70,92
157440,note_off,,384,0,1,,,,,,0,65,64
158592,note_on,,0,0,1,,,,,,0,69,92
158592,note_off,,1152,0,1,,,,,,0,70,64
158976,note_on,,0,0,1,,,,,,0,74,92
158976,note_off,,384,0,1,,,,,,0,69,64
160128,note_on,,0,0,1,,,,,,0,72,92
160128,note_off,,1152,0,1,,,,,,0,74,64
160896,note_off,,768,0,1,,,,,,0,72,64
160896,note_on,,0,0,1,,,,,,0,70,92
161664,note_on,,0,0,1,,,,,,0,69,92
161664,note_off,,768,0,1,,,,,,0,70,64
162432,note_on,,0,0,1,,,,,,0,67,92
162432,note_off,,768,0,1,,,,,,0,69,64
163200,note_on,,0,0,1,,,,,,0,65,92
163200,note_off,,768,0,1,,,,,,0,67,64
163584,note_on,,0,0,1,,,,,,0,64,92
163584,note_off,,384,0,1,,,,,,0,65,64
164352,note_on,,0,0,1,,,,,,0,62,92
164352,note_off,,768,0,1,,,,,,0,64,64
164352,note_on,,0,0,1,,,,,,0,69,92
164736,note_off,,384,0,1,,,,,,0,62,64
164736,note_on,,0,0,1,,,,,,0,60,92
165120,note_on,,0,0,1,,,,,,0,71,92
165120,note_on,,0,0,1,,,,,,0,62,92
165120,note_off,,0,0,1,,,,,,0,69,64
165120,note_off,,384,0,1,,,,,,0,60,64
165504,note_on,,0,0,1,,,,,,0,64,92
165504,note_off,,384,0,1,,,,,,0,62,64
165888,note_off,,384,0,1,,,,,,0,64,64
165888,note_off,,0,0,1,,,,,,0,71,64
165888,note_on,,0,0,1,,,,,,0,72,92
165888,note_on,,0,0,1,,,,,,0,57,92
166272,note_on,,0,0,1,,,,,,0,69,92
166272,note_off,,0,0,1,,,,,,0,72,64
166272,note_off,,384,0,1,,,,,,0,57,64
166464,note_on,,192,0,1,,,,,,0,67,92
166656,note_off,,192,0,1,,,,,,0,67,64
166656,note_off,,0,0,1,,,,,,0,69,64
166656,note_on,,0,0,1,,,,,,0,74,92
166656,note_on,,0,0,1,,,,,,0,65,92
167040,note_on,,0,0,1,,,,,,0,64,92
167040,note_off,,384,0,1,,,,,,0,65,64
167232,note_off,,192,0,1,,,,,,0,64,64
167232,note_on,,0,0,1,,,,,,0,62,92
167424,note_off,,192,0,1,,,,,,0,62,64
167424,note_on,,0,0,1,,,,,,0,64,92
167808,note_off,,384,0,1,,,,,,0,64,64
167808,note_off,,0,0,1,,,,,,0,74,64
167808,note_on,,0,0,1,,,,,,0,72,92
167808,note_on,,0,0,1,,,,,,0,57,92
168192,note_on,,0,0,1,,,,,,0,77,92
168192,note_on,,0,0,1,,,,,,0,69,92
168192,note_off,,0,0,1,,,,,,0,72,64
168192,note_off,,384,0,1,,,,,,0,57,64
168576,note_off,,384,0,1,,,,,,0,69,64
168576,note_on,,0,0,1,,,,,,0,67,92
168768,note_off,,192,0,1,,,,,,0,67,64
168768,note_on,,0,0,1,,,,,,0,65,92
168960,note_off,,192,0,1,,,,,,0,65,64
168960,note_on,,0,0,1,,,,,,0,67,92
169344,note_on,,0,0,1,,,,,,0,60,92
169344,note_on,,0,0,1,,,,,,0,76,92
169344,note_off,,0,0,1,,,,,,0,77,64
169344,note_off,,384,0,1,,,,,,0,67,64
169728,note_off,,384,0,1,,,,,,0,60,64
169728,note_off,,0,0,1,,,,,,0,76,64
169728,note_on,,0,0,1,,,,,,0,72,92
169728,note_on,,0,0,1,,,,,,0,81,92
170112,note_off,,384,0,1,,,,,,0,72,64
170112,note_on,,0,0,1,,,,,,0,71,92
170304,note_off,,192,0,1,,,,,,0,71,64
170304,note_on,,0,0,1,,,,,,0,69,92
170496,note_on,,0,0,1,,,,,,0,71,92
170496,note_off,,192,0,1,,,,,,0,69,64
170688,note_on,,0,0,1,,,,,,0,72,92
170688,note_off,,192,0,1,,,,,,0,71,64
170880,note_on,,0,0,1,,,,,,0,71,92
170880,note_on,,0,0,1,,,,,,0,79,92
170880,note_off,,192,0,1,,,,,,0,72,64
170880,note_off,,0,0,1,,,,,,0,81,64
171072,note_off,,192,0,1,,,,,,0,71,64
171072,note_on,,0,0,1,,,,,,0,76,92
171264,note_off,,192,0,1,,,,,,0,76,64
171264,note_on,,0,0,1,,,,,,0,69,92
171456,note_on,,0,0,1,,,,,,0,71,92
171456,note_off,,192,0,1,,,,,,0,69,64
171648,note_off,,192,0,1,,,,,,0,71,64
171648,note_off,,0,0,1,,,,,,0,79,64
171648,note_on,,0,0,1,,,,,,0,77,92
171648,note_on,,0,0,1,,,,,,0,69,92
171840,note_off,,192,0,1,,,,,,0,69,64
171840,note_on,,0,0,1,,,,,,0,74,92
172032,note_off,,192,0,1,,,,,,0,74,64
172032,note_on,,0,0,1,,,,,,0,67,92
172224,note_off,,192,0,1,,,,,,0,67,64
172224,note_on,,0,0,1,,,,,,0,69,92
172416,note_off,,192,0,1,,,,,,0,69,64
172416,note_off,,0,0,1,,,,,,0,77,64
172416,note_on,,0,0,1,,,,,,0,67,92
172416,note_on,,0,0,1,,,,,,0,76,92
172608,note_off,,192,0,1,,,,,,0,67,64
172608,note_on,,0,0,1,,,,,,0,72,92
172800,note_off,,192,0,1,,,,,,0,72,64
172800,note_on,,0,0,1,,,,,,0,65,92
173184,note_on,,0,0,1,,,,,,0,74,92
173184,note_off,,384,0,1,,,,,,0,76,64
173568,note_on,,0,0,1,,,,,,0,64,92
173568,note_off,,384,0,1,,,,,,0,65,64
173952,note_on,,0,0,1,,,,,,0,69,92
173952,note_off,,0,0,1,,,,,,0,74,64
173952,note_off,,384,0,1,,,,,,0,64,64
173952,note_on,,0,0,1,,,,,,0,72,92
174336,note_on,,0,0,1,,,,,,0,72,92
174336,note_off,,384,0,1,,,,,,0,72,64
174384,note_off,,48,0,1,,,,,,0,72,64
174384,note_on,,0,0,1,,,,,,0,71,92
174432,note_off,,48,0,1,,,,,,0,71,64
174432,note_on,,0,0,1,,,,,,0,72,92
174480,note_off,,48,0,1,,,,,,0,72,64
174480,note_on,,0,0,1,,,,,,0,71,92
174528,note_off,,48,0,1,,,,,,0,71,64
174528,note_on,,0,0,1,,,,,,0,72,92
174576,note_off,,48,0,1,,,,,,0,72,64
174576,note_on,,0,0,1,,,,,,0,71,92
174624,note_off,,48,0,1,,,,,,0,71,64
174624,note_on,,0,0,1,,,,,,0,72,92
174672,note_off,,48,0,1,,,,,,0,72,64
174672,note_on,,0,0,1,,,,,,0,71,92
174720,note_off,,0,0,1,,,,,,0,69,64
174720,note_off,,48,0,1,,,,,,0,71,64
174720,note_on,,0,0,1,,,,,,0,72,92
174720,note_on,,0,0,1,,,,,,0,68,92
174768,note_off,,48,0,1,,,,,,0,72,64
174768,note_on,,0,0,1,,,,,,0,71,92
174816,note_on,,0,0,1,,,,,,0,72,92
174816,note_off,,48,0,1,,,,,,0,71,64
174864,note_on,,0,0,1,,,,,,0,71,92
174864,note_off,,48,0,1,,,,,,0,72,64
174912,note_on,,0,0,1,,,,,,0,72,92
174912,note_off,,48,0,1,,,,,,0,71,64
174960,note_on,,0,0,1,,,,,,0,71,92
174960,note_off,,48,0,1,,,,,,0,72,64
175008,note_on,,0,0,1,,,,,,0,72,92
175008,note_off,,48,0,1,,,,,,0,71,64
175056,note_off,,48,0,1,,,,,,0,72,64
175056,note_on,,0,0,1,,,,,,0,71,92
175104,note_off,,48,0,1,,,,,,0,71,64
175104,note_off,,0,0,1,,,,,,0,68,64
175104,note_on,,0,0,1,,,,,,0,69,92
175488,note_on,,384,0,1,,,,,,0,72,92
175872,note_off,,384,0,1,,,,,,0,72,64
175872,note_on,,0,0,1,,,,,,0,77,92
176256,note_off,,384,0,1,,,,,,0,69,64
176256,note_on,,0,0,1,,,,,,0,67,92
176448,note_off,,192,0,1,,,,,,0,67,64
176448,note_on,,0,0,1,,,,,,0,65,92
176640,note_off,,192,0,1,,,,,,0,65,64
176640,note_on,,0,0,1,,,,,,0,67,92
177024,note_off,,0,0,1,,,,,,0,77,64
177024,note_on,,0,0,1,,,,,,0,60,92
177024,note_on,,0,0,1,,,,,,0,76,92
177024,note_off,,384,0,1,,,,,,0,67,64
177216,note_off,,192,0,1,,,,,,0,76,64
177216,note_on,,0,0,1,,,,,,0,74,92
177408,note_off,,192,0,1,,,,,,0,74,64
177408,note_off,,0,0,1,,,,,,0,60,64
177408,note_on,,0,0,1,,,,,,0,65,92
177408,note_on,,0,0,1,,,,,,0,76,92
177792,note_on,,0,0,1,,,,,,0,69,92
177792,note_off,,384,0,1,,,,,,0,76,64
178176,note_off,,384,0,1,,,,,,0,69,64
178176,note_on,,0,0,1,,,,,,0,74,92
178560,note_on,,0,0,1,,,,,,0,64,92
178560,note_off,,384,0,1,,,,,,0,65,64
178752,note_on,,0,0,1,,,,,,0,62,92
178752,note_off,,192,0,1,,,,,,0,64,64
178944,note_on,,0,0,1,,,,,,0,64,92
178944,note_off,,192,0,1,,,,,,0,62,64
179328,note_on,,0,0,1,,,,,,0,57,92
179328,note_on,,0,0,1,,,,,,0,73,92
179328,note_off,,384,0,1,,,,,,0,64,64
179328,note_off,,0,0,1,,,,,,0,74,64
179712,note_off,,384,0,1,,,,,,0,57,64
179712,note_off,,0,0,1,,,,,,0,73,64
179712,note_on,,0,0,1,,,,,,0,62,92
179712,note_on,,0,0,1,,,,,,0,74,92
179712,note_on,,27648,0,2,,,,,,0,50,92
179904,note_off,,192,0,1,,,,,,0,74,64
179904,note_on,,0,0,1,,,,,,0,72,92
180096,note_off,,192,0,1,,,,,,0,72,64
180096,note_on,,0,0,1,,,,,,0,70,92
180288,note_off,,192,0,1,,,,,,0,70,64
180288,note_on,,0,0,1,,,,,,0,69,92
180480,note_on,,0,0,1,,,,,,0,67,92
180480,note_on,,0,0,2,,,,,,0,52,92
180480,note_off,,768,0,2,,,,,,0,50,64
180480,note_off,,192,0,1,,,,,,0,69,64
180864,note_off,,384,0,1,,,,,,0,67,64
180864,note_off,,0,0,1,,,,,,0,62,64
180864,note_on,,0,0,1,,,,,,0,61,92
180864,note_on,,0,0,1,,,,,,0,65,92
181056,note_off,,192,0,1,,,,,,0,65,64
181056,note_on,,0,0,1,,,,,,0,64,92
181248,note_on,,0,0,2,,,,,,0,53,92
181248,note_off,,768,0,2,,,,,,0,52,64
181248,note_off,,0,0,1,,,,,,0,61,64
181248,note_on,,0,0,1,,,,,,0,62,92
181248,note_off,,192,0,1,,,,,,0,64,64
181248,note_on,,0,0,1,,,,,,0,69,92
181632,note_off,,384,0,1,,,,,,0,69,64
181632,note_on,,0,0,1,,,,,,0,74,92
181632,note_off,,384,0,2,,,,,,0,53,64
181632,note_on,,0,0,2,,,,,,0,50,92
181824,note_off,,192,0,1,,,,,,0,74,64
181824,note_on,,0,0,1,,,,,,0,72,92
182016,note_off,,384,0,2,,,,,,0,50,64
182016,note_on,,0,0,1,,,,,,0,70,92
182016,note_on,,0,0,2,,,,,,0,55,92
182016,note_off,,192,0,1,,,,,,0,72,64
182400,note_on,,0,0,1,,,,,,0,64,92
182400,note_off,,384,0,1,,,,,,0,70,64
182400,note_off,,0,0,1,,,,,,0,62,64
182400,note_on,,0,0,1,,,,,,0,69,92
182592,note_off,,192,0,1,,,,,,0,69,64
182592,note_on,,0,0,1,,,,,,0,67,92
182784,note_off,,0,0,1,,,,,,0,64,64
182784,note_on,,0,0,1,,,,,,0,69,92
182784,note_on,,0,0,1,,,,,,0,65,92
182784,note_off,,192,0,1,,,,,,0,67,64
183168,note_off,,384,0,1,,,,,,0,69,64
183168,note_on,,0,0,1,,,,,,0,62,92
183168,note_off,,1152,0,2,,,,,,0,55,64
183168,note_on,,0,0,2,,,,,,0,53,92
183552,note_on,,0,0,1,,,,,,0,74,92
183552,note_on,,0,0,2,,,,,,0,58,92
183552,note_off,,384,0,1,,,,,,0,62,64
183552,note_off,,384,0,2,,,,,,0,53,64
183936,note_off,,384,0,1,,,,,,0,74,64
183936,note_off,,0,0,1,,,,,,0,65,64
183936,note_on,,0,0,1,,,,,,0,72,92
183936,note_on,,0,0,1,,,,,,0,67,92
184128,note_off,,192,0,1,,,,,,0,72,64
184128,note_on,,0,0,1,,,,,,0,70,92
184320,note_off,,192,0,1,,,,,,0,70,64
184320,note_off,,0,0,1,,,,,,0,67,64
184320,note_on,,0,0,1,,,,,,0,72,92
184320,note_on,,0,0,1,,,,,,0,69,92
184704,note_off,,384,0,1,,,,,,0,72,64
184704,note_on,,0,0,1,,,,,,0,65,92
184704,note_off,,1152,0,2,,,,,,0,58,64
184704,note_on,,0,0,2,,,,,,0,57,92
185088,note_off,,384,0,1,,,,,,0,65,64
185088,note_on,,0,0,2,,,,,,0,62,92
185088,note_off,,384,0,2,,,,,,0,57,64
185088,note_on,,0,0,1,,,,,,0,77,92
185472,note_off,,0,0,1,,,,,,0,69,64
185472,note_on,,0,0,1,,,,,,0,76,92
185472,note_on,,0,0,1,,,,,,0,70,92
185472,note_off,,384,0,1,,,,,,0,77,64
185664,note_off,,192,0,1,,,,,,0,76,64
185664,note_on,,0,0,1,,,,,,0,74,92
185856,note_on,,0,0,1,,,,,,0,76,92
185856,note_off,,192,0,1,,,,,,0,74,64
185856,note_on,,0,0,1,,,,,,0,67,92
185856,note_off,,0,0,1,,,,,,0,70,64
186048,note_on,,0,0,1,,,,,,0,77,92
186048,note_off,,192,0,1,,,,,,0,76,64
186240,note_on,,0,0,2,,,,,,0,60,92
186240,note_on,,0,0,1,,,,,,0,76,92
186240,note_on,,0,0,1,,,,,,0,69,92
186240,note_off,,0,0,1,,,,,,0,67,64
186240,note_off,,192,0,1,,,,,,0,77,64
186240,note_off,,1152,0,2,,,,,,0,62,64
186432,note_off,,192,0,1,,,,,,0,76,64
186432,note_on,,0,0,1,,,,,,0,64,92
186432,note_on,,0,0,1,,,,,,0,81,92
186432,note_off,,0,0,1,,,,,,0,69,64
186624,note_off,,192,0,1,,,,,,0,81,64
186624,note_off,,0,0,1,,,,,,0,64,64
186624,note_on,,0,0,1,,,,,,0,65,92
186624,note_on,,0,0,1,,,,,,0,74,92
186816,note_off,,192,0,1,,,,,,0,74,64
186816,note_on,,0,0,1,,,,,,0,76,92
187008,note_off,,192,0,1,,,,,,0,76,64
187008,note_on,,0,0,1,,,,,,0,67,92
187008,note_on,,0,0,2,,,,,,0,58,92
187008,note_off,,768,0,2,,,,,,0,60,64
187008,note_on,,0,0,1,,,,,,0,74,92
187008,note_off,,0,0,1,,,,,,0,65,64
187200,note_off,,192,0,1,,,,,,0,74,64
187200,note_off,,0,0,1,,,,,,0,67,64
187200,note_on,,0,0,1,,,,,,0,62,92
187200,note_on,,0,0,1,,,,,,0,79,92
187392,note_off,,0,0,1,,,,,,0,62,64
187392,note_on,,0,0,1,,,,,,0,64,92
187392,note_on,,0,0,1,,,,,,0,72,92
187392,note_off,,192,0,1,,,,,,0,79,64
187584,note_off,,192,0,1,,,,,,0,72,64
187584,note_on,,0,0,1,,,,,,0,74,92
187776,note_off,,192,0,1,,,,,,0,74,64
187776,note_off,,0,0,1,,,,,,0,64,64
187776,note_on,,0,0,1,,,,,,0,65,92
187776,note_on,,0,0,1,,,,,,0,72,92
187776,note_off,,768,0,2,,,,,,0,58,64
187776,note_on,,0,0,2,,,,,,0,57,92
187968,note_off,,192,0,1,,,,,,0,72,64
187968,note_off,,0,0,1,,,,,,0,65,64
187968,note_on,,0,0,1,,,,,,0,60,92
187968,note_on,,0,0,1,,,,,,0,77,92
188160,note_off,,0,0,1,,,,,,0,60,64
188160,note_on,,0,0,1,,,,,,0,70,92
188160,note_on,,0,0,1,,,,,,0,62,92
188160,note_off,,192,0,1,,,,,,0,77,64
188352,note_off,,192,0,1,,,,,,0,62,64
188352,note_on,,0,0,1,,,,,,0,65,92
188544,note_off,,192,0,1,,,,,,0,65,64
188544,note_on,,0,0,1,,,,,,0,64,92
188544,note_off,,768,0,2,,,,,,0,57,64
188544,note_on,,0,0,2,,,,,,0,55,92
188736,note_off,,192,0,1,,,,,,0,64,64
188736,note_on,,0,0,1,,,,,,0,67,92
188928,note_off,,192,0,1,,,,,,0,67,64
188928,note_off,,0,0,1,,,,,,0,70,64
188928,note_on,,0,0,1,,,,,,0,61,92
188928,note_on,,0,0,1,,,,,,0,69,92
189312,note_on,,0,0,2,,,,,,0,53,92
189312,note_off,,384,0,1,,,,,,0,69,64
189312,note_on,,0,0,1,,,,,,0,74,92
189312,note_on,,0,0,1,,,,,,0,69,92
189312,note_off,,0,0,1,,,,,,0,61,64
189312,note_off,,768,0,2,,,,,,0,55,64
189696,note_off,,384,0,1,,,,,,0,69,64
189696,note_on,,0,0,1,,,,,,0,67,92
189696,note_on,,0,0,2,,,,,,0,53,92
189696,note_off,,384,0,2,,,,,,0,53,64
189744,note_on,,0,0,2,,,,,,0,52,92
189744,note_off,,48,0,2,,,,,,0,53,64
189792,note_on,,0,0,2,,,,,,0,53,92
189792,note_off,,48,0,2,,,,,,0,52,64
189840,note_on,,0,0,2,,,,,,0,52,92
189840,note_off,,48,0,2,,,,,,0,53,64
189888,note_on,,0,0,2,,,,,,0,53,92
189888,note_off,,48,0,2,,,,,,0,52,64
189936,note_on,,0,0,2,,,,,,0,52,92
189936,note_off,,48,0,2,,,,,,0,53,64
189984,note_on,,0,0,2,,,,,,0,53,92
189984,note_off,,48,0,2,,,,,,0,52,64
190032,note_on,,0,0,2,,,,,,0,52,92
190032,note_off,,48,0,2,,,,,,0,53,64
190080,note_off,,48,0,2,,,,,,0,52,64
190080,note_off,,0,0,1,,,,,,0,74,64
190080,note_on,,0,0,1,,,,,,0,65,92
190080,note_on,,0,0,1,,,,,,0,73,92
190080,note_on,,0,0,2,,,,,,0,53,92
190080,note_off,,384,0,1,,,,,,0,67,64
190128,note_off,,48,0,2,,,,,,0,53,64
190128,note_on,,0,0,2,,,,,,0,52,92
190176,note_on,,0,0,2,,,,,,0,53,92
190176,note_off,,48,0,2,,,,,,0,52,64
190224,note_off,,48,0,2,,,,,,0,53,64
190224,note_on,,0,0,2,,,,,,0,52,92
190272,note_off,,192,0,1,,,,,,0,65,64
190272,note_off,,48,0,2,,,,,,0,52,64
190272,note_on,,0,0,2,,,,,,0,53,92
190272,note_on,,0,0,1,,,,,,0,64,92
190320,note_off,,48,0,2,,,,,,0,53,64
190320,note_on,,0,0,2,,,,,,0,52,92
190368,note_off,,48,0,2,,,,,,0,52,64
190368,note_on,,0,0,2,,,,,,0,53,92
190416,note_off,,48,0,2,,,,,,0,53,64
190416,note_on,,0,0,2,,,,,,0,52,92
190464,note_off,,192,0,1,,,,,,0,64,64
190464,note_off,,0,0,1,,,,,,0,73,64
190464,note_off,,48,0,2,,,,,,0,52,64
190464,note_on,,0,0,1,,,,,,0,65,92
190464,note_on,,0,0,2,,,,,,0,50,92
190464,note_on,,0,0,1,,,,,,0,74,92
190848,note_off,,384,0,1,,,,,,0,74,64
190848,note_on,,0,0,1,,,,,,0,77,92
191040,note_on,,0,0,1,,,,,,0,67,92
191040,note_off,,192,0,1,,,,,,0,65,64
191232,note_on,,0,0,1,,,,,,0,69,92
191232,note_off,,192,0,1,,,,,,0,67,64
191232,note_on,,0,0,2,,,,,,0,62,92
191232,note_off,,768,0,2,,,,,,0,50,64
191616,note_on,,0,0,1,,,,,,0,76,92
191616,note_on,,0,0,1,,,,,,0,70,92
191616,note_off,,0,0,1,,,,,,0,77,64
191616,note_off,,384,0,1,,,,,,0,69,64
191808,note_off,,192,0,1,,,,,,0,76,64
191808,note_on,,0,0,1,,,,,,0,74,92
192000,note_on,,0,0,1,,,,,,0,67,92
192000,note_on,,0,0,1,,,,,,0,76,92
192000,note_off,,192,0,1,,,,,,0,74,64
192000,note_off,,0,0,1,,,,,,0,70,64
192384,note_off,,1152,0,2,,,,,,0,62,64
192384,note_on,,0,0,2,,,,,,0,55,92
192768,note_off,,384,0,2,,,,,,0,55,64
192768,note_on,,0,0,2,,,,,,0,60,92
193152,note_on,,0,0,1,,,,,,0,65,92
193152,note_on,,0,0,1,,,,,,0,74,92
193152,note_off,,0,0,1,,,,,,0,67,64
193152,note_off,,1152,0,1,,,,,,0,76,64
193344,note_off,,192,0,1,,,,,,0,74,64
193344,note_on,,0,0,1,,,,,,0,72,92
193344,note_off,,0,0,1,,,,,,0,65,64
193344,note_on,,0,0,1,,,,,,0,64,92
193536,note_on,,0,0,1,,,,,,0,74,92
193536,note_on,,0,0,1,,,,,,0,65,92
193536,note_off,,0,0,1,,,,,,0,64,64
193536,note_off,,192,0,1,,,,,,0,72,64
193920,note_on,,0,0,1,,,,,,0,67,92
193920,note_off,,1152,0,2,,,,,,0,60,64
193920,note_off,,384,0,1,,,,,,0,74,64
193920,note_on,,0,0,2,,,,,,0,59,92
194112,note_off,,192,0,2,,,,,,0,59,64
194112,note_on,,0,0,2,,,,,,0,57,92
194304,note_off,,192,0,2,,,,,,0,57,64
194304,note_on,,0,0,2,,,,,,0,59,92
194304,note_on,,0,0,1,,,,,,0,72,92
194304,note_off,,0,0,1,,,,,,0,65,64
194304,note_off,,384,0,1,,,,,,0,67,64
194304,note_on,,0,0,1,,,,,,0,64,92
194688,note_off,,384,0,2,,,,,,0,59,64
194688,note_on,,0,0,2,,,,,,0,52,92
195072,note_on,,0,0,2,,,,,,0,57,92
195072,note_off,,384,0,2,,,,,,0,52,64
195456,note_on,,0,0,1,,,,,,0,71,92
195456,note_on,,0,0,1,,,,,,0,62,92
195456,note_off,,0,0,1,,,,,,0,64,64
195456,note_off,,1152,0,1,,,,,,0,72,64
195648,note_on,,0,0,1,,,,,,0,69,92
195648,note_off,,192,0,1,,,,,,0,71,64
195648,note_off,,0,0,1,,,,,,0,62,64
195648,note_on,,0,0,1,,,,,,0,60,92
195840,note_off,,0,0,1,,,,,,0,60,64
195840,note_on,,0,0,1,,,,,,0,62,92
195840,note_on,,0,0,1,,,,,,0,71,92
195840,note_off,,192,0,1,,,,,,0,69,64
196224,note_off,,1152,0,2,,,,,,0,57,64
196224,note_on,,0,0,2,,,,,,0,56,92
196224,note_off,,384,0,1,,,,,,0,71,64
196224,note_on,,0,0,1,,,,,,0,64,92
196608,note_on,,44544,0,3,,,,,,0,45,102
196608,note_off,,384,0,2,,,,,,0,56,64
196608,note_on,,0,0,2,,,,,,0,57,92
196608,note_off,,384,0,1,,,,,,0,62,64
196608,note_on,,0,0,1,,,,,,0,60,92
196992,note_on,,0,0,1,,,,,,0,69,92
196992,note_off,,384,0,1,,,,,,0,64,64
197376,note_on,,0,0,1,,,,,,0,62,92
197376,note_off,,384,0,1,,,,,,0,60,64
197376,note_off,,768,0,2,,,,,,0,57,64
197376,note_on,,0,0,3,,,,,,0,47,102
197376,note_off,,768,0,3,,,,,,0,45,64
197760,note_off,,384,0,1,,,,,,0,69,64
197760,note_on,,0,0,1,,,,,,0,68,92
198144,note_off,,384,0,1,,,,,,0,68,64
198144,note_off,,0,0,1,,,,,,0,62,64
198144,note_on,,0,0,1,,,,,,0,69,92
198144,note_on,,0,0,1,,,,,,0,64,92
198144,note_on,,0,0,3,,,,,,0,48,102
198144,note_off,,768,0,3,,,,,,0,47,64
198528,note_off,,384,0,1,,,,,,0,64,64
198528,note_on,,0,0,3,,,,,,0,45,102
198528,note_off,,384,0,3,,,,,,0,48,64
198528,note_on,,1152,0,2,,,,,,0,57,92
198528,note_off,,0,0,1,,,,,,0,69,64
198528,note_on,,0,0,1,,,,,,0,69,92
198720,note_on,,0,0,2,,,,,,0,55,92
198720,note_off,,192,0,2,,,,,,0,57,64
198912,note_on,,0,0,2,,,,,,0,53,92
198912,note_off,,192,0,2,,,,,,0,55,64
198912,note_on,,0,0,3,,,,,,0,50,102
198912,note_off,,384,0,3,,,,,,0,45,64
199296,note_on,,0,0,1,,,,,,0,71,92
199296,note_on,,0,0,1,,,,,,0,68,92
199296,note_off,,768,0,1,,,,,,0,69,64
199296,note_off,,384,0,2,,,,,,0,53,64
199296,note_on,,0,0,2,,,,,,0,52,92
199488,note_off,,192,0,2,,,,,,0,52,64
199488,note_on,,0,0,2,,,,,,0,50,92
199680,note_off,,0,0,1,,,,,,0,68,64
199680,note_on,,0,0,1,,,,,,0,69,92
199680,note_off,,384,0,1,,,,,,0,71,64
199680,note_off,,192,0,2,,,,,,0,50,64
199680,note_on,,0,0,1,,,,,,0,72,92
199680,note_on,,0,0,2,,,,,,0,52,92
200064,note_on,,0,0,2,,,,,,0,45,92
200064,note_off,,384,0,2,,,,,,0,52,64
200064,note_off,,1152,0,3,,,,,,0,50,64
200064,note_on,,0,0,3,,,,,,0,48,102
200448,note_off,,384,0,2,,,,,,0,45,64
200448,note_on,,0,0,3,,,,,,0,53,102
200448,note_off,,384,0,3,,,,,,0,48,64
200448,note_on,,0,0,2,,,,,,0,57,92
200832,note_on,,0,0,2,,,,,,0,55,92
200832,note_on,,0,0,1,,,,,,0,74,92
200832,note_on,,0,0,1,,,,,,0,71,92
200832,note_off,,0,0,1,,,,,,0,69,64
200832,note_off,,384,0,2,,,,,,0,57,64
200832,note_off,,1152,0,1,,,,,,0,72,64
201024,note_off,,192,0,2,,,,,,0,55,64
201024,note_on,,0,0,2,,,,,,0,53,92
201216,note_on,,0,0,1,,,,,,0,76,92
201216,note_on,,0,0,2,,,,,,0,55,92
201216,note_off,,192,0,2,,,,,,0,53,64
201216,note_off,,0,0,1,,,,,,0,71,64
201216,note_on,,0,0,1,,,,,,0,72,92
201216,note_off,,384,0,1,,,,,,0,74,64
201600,note_on,,0,0,3,,,,,,0,52,102
201600,note_off,,1152,0,3,,,,,,0,53,64
201600,note_off,,384,0,2,,,,,,0,55,64
201600,note_on,,0,0,2,,,,,,0,48,92
201984,note_off,,384,0,2,,,,,,0,48,64
201984,note_on,,0,0,2,,,,,,0,60,92
201984,note_on,,0,0,3,,,,,,0,57,102
201984,note_off,,384,0,3,,,,,,0,52,64
202368,note_on,,0,0,2,,,,,,0,59,92
202368,note_on,,0,0,1,,,,,,0,77,92
202368,note_off,,1152,0,1,,,,,,0,76,64
202368,note_off,,384,0,2,,,,,,0,60,64
202560,note_off,,192,0,2,,,,,,0,59,64
202560,note_on,,0,0,2,,,,,,0,57,92
202752,note_on,,0,0,1,,,,,,0,74,92
202752,note_on,,0,0,1,,,,,,0,65,92
202752,note_off,,0,0,1,,,,,,0,72,64
202752,note_off,,384,0,1,,,,,,0,77,64
202752,note_on,,0,0,2,,,,,,0,59,92
202752,note_off,,192,0,2,,,,,,0,57,64
202944,note_on,,0,0,2,,,,,,0,60,92
202944,note_off,,192,0,2,,,,,,0,59,64
203136,note_off,,1152,0,3,,,,,,0,57,64
203136,note_on,,0,0,1,,,,,,0,67,92
203136,note_on,,0,0,1,,,,,,0,76,92
203136,note_off,,0,0,1,,,,,,0,65,64
203136,note_off,,384,0,1,,,,,,0,74,64
203136,note_on,,0,0,2,,,,,,0,59,92
203136,note_off,,192,0,2,,,,,,0,60,64
203136,note_on,,0,0,3,,,,,,0,55,102
203328,note_on,,0,0,1,,,,,,0,71,92
203328,note_off,,192,0,1,,,,,,0,76,64
203328,note_on,,0,0,2,,,,,,0,64,92
203328,note_off,,192,0,2,,,,,,0,59,64
203520,note_on,,0,0,2,,,,,,0,57,92
203520,note_off,,192,0,2,,,,,,0,64,64
203520,note_off,,192,0,1,,,,,,0,71,64
203520,note_off,,0,0,1,,,,,,0,67,64
203520,note_on,,0,0,1,,,,,,0,72,92
203520,note_on,,0,0,1,,,,,,0,64,92
203712,note_off,,192,0,2,,,,,,0,57,64
203712,note_on,,0,0,2,,,,,,0,59,92
203904,note_on,,0,0,1,,,,,,0,65,92
203904,note_on,,0,0,1,,,,,,0,74,92
203904,note_off,,0,0,1,,,,,,0,72,64
203904,note_off,,384,0,1,,,,,,0,64,64
203904,note_off,,768,0,3,,,,,,0,55,64
203904,note_off,,192,0,2,,,,,,0,59,64
203904,note_on,,0,0,3,,,,,,0,53,102
203904,note_on,,0,0,2,,,,,,0,57,92
204096,note_off,,192,0,2,,,,,,0,57,64
204096,note_on,,0,0,2,,,,,,0,62,92
204096,note_off,,192,0,1,,,,,,0,74,64
204096,note_on,,0,0,1,,,,,,0,69,92
204288,note_off,,192,0,2,,,,,,0,62,64
204288,note_on,,0,0,1,,,,,,0,62,92
204288,note_on,,0,0,2,,,,,,0,55,92
204288,note_off,,192,0,1,,,,,,0,69,64
204288,note_on,,0,0,1,,,,,,0,71,92
204288,note_off,,0,0,1,,,,,,0,65,64
204480,note_off,,192,0,2,,,,,,0,55,64
204480,note_on,,0,0,2,,,,,,0,57,92
204672,note_off,,768,0,3,,,,,,0,53,64
204672,note_on,,0,0,3,,,,,,0,52,102
204672,note_off,,192,0,2,,,,,,0,57,64
204672,note_on,,0,0,2,,,,,,0,55,92
204672,note_off,,0,0,1,,,,,,0,62,64
204672,note_on,,0,0,1,,,,,,0,72,92
204672,note_on,,0,0,1,,,,,,0,64,92
204672,note_off,,384,0,1,,,,,,0,71,64
204864,note_off,,192,0,1,,,,,,0,72,64
204864,note_on,,0,0,1,,,,,,0,67,92
204864,note_off,,192,0,2,,,,,,0,55,64
204864,note_on,,0,0,2,,,,,,0,60,92
205056,note_off,,192,0,2,,,,,,0,60,64
205056,note_on,,0,0,2,,,,,,0,53,92
205056,note_on,,0,0,1,,,,,,0,60,92
205056,note_on,,0,0,1,,,,,,0,69,92
205056,note_off,,0,0,1,,,,,,0,64,64
205056,note_off,,192,0,1,,,,,,0,67,64
205248,note_off,,192,0,1,,,,,,0,69,64
205248,note_on,,0,0,1,,,,,,0,72,92
205440,note_on,,0,0,1,,,,,,0,62,92
205440,note_on,,0,0,1,,,,,,0,71,92
205440,note_off,,0,0,1,,,,,,0,60,64
205440,note_off,,768,0,3,,,,,,0,52,64
205440,note_on,,0,0,3,,,,,,0,50,102
205440,note_off,,192,0,1,,,,,,0,72,64
205632,note_on,,0,0,1,,,,,,0,74,92
205632,note_off,,192,0,1,,,,,,0,71,64
205824,note_on,,0,0,1,,,,,,0,68,92
205824,note_off,,192,0,1,,,,,,0,74,64
205824,note_off,,0,0,1,,,,,,0,62,64
205824,note_off,,768,0,2,,,,,,0,53,64
205824,note_on,,0,0,2,,,,,,0,52,92
205824,note_on,,0,0,1,,,,,,0,59,92
206208,note_off,,384,0,2,,,,,,0,52,64
206208,note_on,,0,0,2,,,,,,0,57,92
206208,note_on,,0,0,3,,,,,,0,48,102
206208,note_off,,384,0,1,,,,,,0,59,64
206208,note_on,,0,0,1,,,,,,0,60,92
206208,note_on,,0,0,1,,,,,,0,76,92
206208,note_off,,0,0,1,,,,,,0,68,64
206208,note_off,,768,0,3,,,,,,0,50,64
206592,note_on,,0,0,1,,,,,,0,62,92
206592,note_off,,0,0,1,,,,,,0,76,64
206592,note_off,,384,0,1,,,,,,0,60,64
206592,note_off,,384,0,3,,,,,,0,48,64
206592,note_on,,0,0,3,,,,,,0,48,102
206592,note_on,,0,0,1,,,,,,0,74,92
206688,note_off,,96,0,3,,,,,,0,48,64
206688,note_on,,0,0,3,,,,,,0,47,102
206784,note_on,,0,0,3,,,,,,0,48,102
206784,note_off,,96,0,3,,,,,,0,47,64
206880,note_off,,96,0,3,,,,,,0,48,64
206880,note_on,,0,0,3,,,,,,0,47,102
206976,note_off,,384,0,1,,,,,,0,74,64
206976,note_off,,96,0,3,,,,,,0,47,64
206976,note_on,,0,0,2,,,,,,0,56,92
206976,note_off,,768,0,2,,,,,,0,57,64
206976,note_on,,0,0,3,,,,,,0,48,102
206976,note_on,,0,0,1,,,,,,0,72,92
207072,note_off,,96,0,3,,,,,,0,48,64
207072,note_on,,0,0,3,,,,,,0,47,102
207168,note_off,,96,0,3,,,,,,0,47,64
207168,note_on,,0,0,1,,,,,,0,71,92
207168,note_off,,192,0,1,,,,,,0,72,64
207168,note_on,,0,0,3,,,,,,0,48,102
207264,note_on,,0,0,3,,,,,,0,47,102
207264,note_off,,96,0,3,,,,,,0,48,64
207360,note_on,,0,0,3,,,,,,0,45,102
207360,note_off,,96,0,3,,,,,,0,47,64
207360,note_on,,0,0,1,,,,,,0,72,92
207360,note_on,,0,0,1,,,,,,0,60,92
207360,note_off,,384,0,2,,,,,,0,56,64
207360,note_off,,192,0,1,,,,,,0,71,64
207360,note_off,,0,0,1,,,,,,0,62,64
207360,note_on,,0,0,2,,,,,,0,57,92
207552,note_on,,0,0,2,,,,,,0,64,92
207552,note_off,,192,0,2,,,,,,0,57,64
207744,note_on,,0,0,1,,,,,,0,60,92
207744,note_off,,0,0,1,,,,,,0,60,64
207744,note_off,,384,0,1,,,,,,0,72,64
207744,note_on,,0,0,1,,,,,,0,69,92
207744,note_off,,192,0,2,,,,,,0,64,64
207744,note_on,,0,0,2,,,,,,0,69,92
207936,note_on,,0,0,2,,,,,,0,67,92
207936,note_off,,192,0,2,,,,,,0,69,64
208128,note_off,,768,0,3,,,,,,0,45,64
208128,note_off,,384,0,1,,,,,,0,69,64
208128,note_on,,0,0,3,,,,,,0,57,102
208128,note_off,,192,0,2,,,,,,0,67,64
208128,note_on,,0,0,2,,,,,,0,65,92
208320,note_on,,0,0,2,,,,,,0,64,92
208320,note_off,,192,0,2,,,,,,0,65,64
208512,note_on,,0,0,2,,,,,,0,62,92
208512,note_off,,192,0,2,,,,,,0,64,64
208512,note_off,,384,0,1,,,,,,0,60,64
208512,note_on,,0,0,1,,,,,,0,59,92
208704,note_on,,0,0,2,,,,,,0,60,92
208704,note_off,,192,0,2,,,,,,0,62,64
208704,note_on,,0,0,1,,,,,,0,57,92
208704,note_off,,192,0,1,,,,,,0,59,64
208896,note_on,,0,0,2,,,,,,0,59,92
208896,note_on,,0,0,1,,,,,,0,64,92
208896,note_off,,192,0,2,,,,,,0,60,64
208896,note_off,,192,0,1,,,,,,0,57,64
209280,note_on,,384,0,1,,,,,,0,71,92
209280,note_off,,1152,0,3,,,,,,0,57,64
209280,note_on,,0,0,3,,,,,,0,55,102
209472,note_off,,192,0,3,,,,,,0,55,64
209472,note_on,,0,0,3,,,,,,0,53,102
209664,note_on,,0,0,1,,,,,,0,76,92
209664,note_off,,0,0,1,,,,,,0,64,64
209664,note_off,,384,0,1,,,,,,0,71,64
209664,note_off,,192,0,3,,,,,,0,53,64
209664,note_on,,0,0,3,,,,,,0,55,102
210048,note_on,,384,0,1,,,,,,0,64,92
210048,note_off,,384,0,3,,,,,,0,55,64
210048,note_off,,1152,0,2,,,,,,0,59,64
210048,note_on,,0,0,2,,,,,,0,57,92
210048,note_on,,0,0,3,,,,,,0,48,102
210240,note_off,,192,0,2,,,,,,0,57,64
210240,note_on,,0,0,2,,,,,,0,55,92
210432,note_off,,384,0,3,,,,,,0,48,64
210432,note_on,,0,0,3,,,,,,0,53,102
210432,note_off,,192,0,2,,,,,,0,55,64
210432,note_on,,0,0,2,,,,,,0,57,92
210432,note_off,,384,0,1,,,,,,0,64,64
210432,note_on,,0,0,1,,,,,,0,69,92
210816,note_on,,0,0,1,,,,,,0,74,92
210816,note_off,,384,0,1,,,,,,0,76,64
211008,note_off,,192,0,1,,,,,,0,74,64
211008,note_on,,0,0,1,,,,,,0,72,92
211200,note_on,,0,0,1,,,,,,0,74,92
211200,note_on,,0,0,1,,,,,,0,67,92
211200,note_off,,0,0,1,,,,,,0,69,64
211200,note_off,,192,0,1,,,,,,0,72,64
211200,note_on,,0,0,2,,,,,,0,59,92
211200,note_off,,768,0,2,,,,,,0,57,64
211584,note_off,,0,0,1,,,,,,0,67,64
211584,note_off,,384,0,1,,,,,,0,74,64
211584,note_on,,0,0,1,,,,,,0,67,92
211584,note_on,,0,0,3,,,,,,0,52,102
211584,note_off,,1152,0,3,,,,,,0,53,64
211776,note_on,,0,0,3,,,,,,0,50,102
211776,note_off,,192,0,3,,,,,,0,52,64
211968,note_off,,192,0,3,,,,,,0,50,64
211968,note_on,,384,0,1,,,,,,0,72,92
211968,note_on,,0,0,3,,,,,,0,52,102
211968,note_off,,768,0,2,,,,,,0,59,64
211968,note_on,,0,0,2,,,,,,0,60,92
212352,note_on,,0,0,3,,,,,,0,45,102
212352,note_off,,384,0,3,,,,,,0,52,64
212352,note_on,,0,0,1,,,,,,0,65,92
212352,note_off,,384,0,1,,,,,,0,67,64
212544,note_on,,0,0,1,,,,,,0,64,92
212544,note_off,,192,0,1,,,,,,0,65,64
212736,note_on,,0,0,1,,,,,,0,65,92
212736,note_on,,0,0,3,,,,,,0,50,102
212736,note_off,,384,0,3,,,,,,0,45,64
212736,note_off,,192,0,1,,,,,,0,64,64
212736,note_on,,0,0,2,,,,,,0,62,92
212736,note_off,,768,0,2,,,,,,0,60,64
213120,note_on,,0,0,1,,,,,,0,70,92
213120,note_off,,384,0,1,,,,,,0,72,64
213312,note_on,,0,0,1,,,,,,0,69,92
213312,note_off,,192,0,1,,,,,,0,70,64
213504,note_on,,0,0,1,,,,,,0,70,92
213504,note_on,,0,0,1,,,,,,0,64,92
213504,note_off,,0,0,1,,,,,,0,65,64
213504,note_off,,192,0,1,,,,,,0,69,64
213504,note_off,,768,0,2,,,,,,0,62,64
213504,note_on,,0,0,2,,,,,,0,55,92
213888,note_off,,0,0,1,,,,,,0,64,64
213888,note_off,,1152,0,3,,,,,,0,50,64
213888,note_off,,384,0,1,,,,,,0,70,64
213888,note_on,,0,0,3,,,,,,0,48,102
213888,note_on,,0,0,1,,,,,,0,64,92
214080,note_off,,192,0,3,,,,,,0,48,64
214080,note_on,,0,0,3,,,,,,0,46,102
214272,note_on,,384,0,1,,,,,,0,69,92
214272,note_off,,192,0,3,,,,,,0,46,64
214272,note_on,,0,0,3,,,,,,0,48,102
214656,note_on,,0,0,1,,,,,,0,62,92
214656,note_off,,384,0,1,,,,,,0,64,64
214656,note_off,,1152,0,2,,,,,,0,55,64
214656,note_on,,0,0,2,,,,,,0,53,92
214656,note_on,,0,0,3,,,,,,0,41,102
214656,note_off,,384,0,3,,,,,,0,48,64
214848,note_off,,192,0,2,,,,,,0,53,64
214848,note_on,,0,0,2,,,,,,0,52,92
214848,note_off,,192,0,1,,,,,,0,62,64
214848,note_on,,0,0,1,,,,,,0,61,92
215040,note_off,,192,0,2,,,,,,0,52,64
215040,note_off,,384,0,3,,,,,,0,41,64
215040,note_off,,192,0,1,,,,,,0,61,64
215040,note_on,,0,0,1,,,,,,0,62,92
215040,note_on,,0,0,3,,,,,,0,46,102
215040,note_on,,0,0,2,,,,,,0,50,92
215424,note_off,,384,0,1,,,,,,0,69,64
215424,note_on,,0,0,1,,,,,,0,67,92
215616,note_off,,192,0,1,,,,,,0,67,64
215616,note_on,,0,0,1,,,,,,0,65,92
215808,note_off,,192,0,1,,,,,,0,65,64
215808,note_on,,0,0,1,,,,,,0,67,92
216192,note_on,,0,0,2,,,,,,0,52,92
216192,note_off,,1152,0,2,,,,,,0,50,64
216192,note_off,,384,0,1,,,,,,0,67,64
216192,note_off,,0,0,1,,,,,,0,62,64
216192,note_on,,0,0,3,,,,,,0,45,102
216192,note_off,,1152,0,3,,,,,,0,46,64
216192,note_on,,0,0,1,,,,,,0,61,92
216192,note_on,,0,0,1,,,,,,0,58,92
216384,note_on,,0,0,2,,,,,,0,55,92
216384,note_off,,192,0,3,,,,,,0,45,64
216384,note_on,,0,0,3,,,,,,0,43,102
216384,note_off,,192,0,2,,,,,,0,52,64
216576,note_on,,0,0,3,,,,,,0,45,102
216576,note_off,,384,0,1,,,,,,0,58,64
216576,note_on,,0,0,2,,,,,,0,49,92
216576,note_off,,0,0,1,,,,,,0,61,64
216576,note_on,,0,0,1,,,,,,0,65,92
216576,note_on,,0,0,1,,,,,,0,57,92
216576,note_off,,192,0,3,,,,,,0,43,64
216576,note_off,,192,0,2,,,,,,0,55,64
216768,note_off,,192,0,2,,,,,,0,49,64
216768,note_on,,0,0,2,,,,,,0,52,92
216960,note_off,,192,0,2,,,,,,0,52,64
216960,note_on,,0,0,2,,,,,,0,50,92
216960,note_on,,0,0,3,,,,,,0,38,102
216960,note_off,,384,0,3,,,,,,0,45,64
217152,note_off,,192,0,2,,,,,,0,50,64
217152,note_on,,0,0,2,,,,,,0,53,92
217344,note_on,,0,0,1,,,,,,0,55,92
217344,note_off,,192,0,2,,,,,,0,53,64
217344,note_off,,768,0,1,,,,,,0,57,64
217344,note_on,,0,0,2,,,,,,0,47,92
217344,note_off,,384,0,3,,,,,,0,38,64
217344,note_on,,0,0,3,,,,,,0,43,102
217536,note_off,,192,0,2,,,,,,0,47,64
217536,note_on,,0,0,2,,,,,,0,50,92
217728,note_off,,192,0,2,,,,,,0,50,64
217728,note_on,,0,0,2,,,,,,0,49,92
217728,note_on,,0,0,1,,,,,,0,64,92
217728,note_on,,0,0,1,,,,,,0,57,92
217728,note_off,,0,0,1,,,,,,0,65,64
217728,note_off,,384,0,1,,,,,,0,55,64
217920,note_off,,192,0,2,,,,,,0,49,64
217920,note_on,,0,0,2,,,,,,0,50,92
217920,note_off,,192,0,1,,,,,,0,64,64
217920,note_on,,0,0,1,,,,,,0,58,92
217920,note_on,,0,0,1,,,,,,0,62,92
217920,note_off,,0,0,1,,,,,,0,57,64
218112,note_off,,192,0,1,,,,,,0,62,64
218112,note_off,,0,0,1,,,,,,0,58,64
218112,note_on,,0,0,1,,,,,,0,57,92
218112,note_on,,0,0,1,,,,,,0,61,92
218112,note_on,,0,0,2,,,,,,0,52,92
218112,note_off,,192,0,2,,,,,,0,50,64
218496,note_on,,0,0,2,,,,,,0,53,92
218496,note_off,,384,0,2,,,,,,0,52,64
218496,note_off,,1152,0,3,,,,,,0,43,64
218496,note_on,,0,0,1,,,,,,0,62,92
218496,note_off,,384,0,1,,,,,,0,61,64
218496,note_on,,0,0,3,,,,,,0,41,102
218688,note_off,,192,0,2,,,,,,0,53,64
218688,note_on,,0,0,2,,,,,,0,52,92
218880,note_on,,0,0,1,,,,,,0,67,92
218880,note_on,,0,0,1,,,,,,0,59,92
218880,note_off,,0,0,1,,,,,,0,57,64
218880,note_on,,0,0,2,,,,,,0,50,92
218880,note_off,,192,0,2,,,,,,0,52,64
218880,note_off,,384,0,1,,,,,,0,62,64
219264,note_on,,0,0,2,,,,,,0,55,92
219264,note_off,,384,0,2,,,,,,0,50,64
219264,note_off,,768,0,3,,,,,,0,41,64
219264,note_on,,0,0,3,,,,,,0,40,102
219456,note_on,,0,0,2,,,,,,0,53,92
219456,note_off,,192,0,3,,,,,,0,40,64
219456,note_on,,0,0,3,,,,,,0,38,102
219456,note_off,,192,0,2,,,,,,0,55,64
219648,note_off,,192,0,2,,,,,,0,53,64
219648,note_on,,0,0,2,,,,,,0,52,92
219648,note_off,,768,0,1,,,,,,0,59,64
219648,note_off,,192,0,3,,,,,,0,38,64
219648,note_on,,0,0,3,,,,,,0,40,102
219648,note_on,,0,0,1,,,,,,0,61,92
220032,note_off,,384,0,2,,,,,,0,52,64
220032,note_on,,0,0,3,,,,,,0,45,102
220032,note_off,,384,0,3,,,,,,0,40,64
220032,note_off,,384,0,1,,,,,,0,61,64
220032,note_on,,0,0,2,,,,,,0,50,92
220032,note_off,,0,0,1,,,,,,0,67,64
220032,note_on,,0,0,1,,,,,,0,57,92
220032,note_on,,0,0,1,,,,,,0,65,92
220224,note_on,,0,0,1,,,,,,0,64,92
220224,note_off,,192,0,1,,,,,,0,65,64
220224,note_on,,0,0,2,,,,,,0,49,92
220224,note_off,,192,0,2,,,,,,0,50,64
220416,note_on,,0,0,3,,,,,,0,41,102
220416,note_on,,0,0,1,,,,,,0,65,92
220416,note_on,,0,0,2,,,,,,0,50,92
220416,note_on,,0,0,1,,,,,,0,62,92
220416,note_off,,0,0,1,,,,,,0,57,64
220416,note_off,,192,0,1,,,,,,0,64,64
220416,note_off,,384,0,3,,,,,,0,45,64
220416,note_off,,192,0,2,,,,,,0,49,64
220608,note_off,,192,0,1,,,,,,0,65,64
220608,note_off,,192,0,2,,,,,,0,50,64
220608,note_on,,0,0,2,,,,,,0,52,92
220608,note_on,,0,0,1,,,,,,0,67,92
220800,note_off,,192,0,2,,,,,,0,52,64
220800,note_on,,0,0,2,,,,,,0,53,92
220800,note_on,,0,0,3,,,,,,0,38,102
220800,note_off,,192,0,1,,,,,,0,67,64
220800,note_on,,0,0,1,,,,,,0,69,92
220800,note_off,,384,0,3,,,,,,0,41,64
220992,note_off,,192,0,1,,,,,,0,69,64
220992,note_on,,0,0,1,,,,,,0,71,92
220992,note_off,,192,0,2,,,,,,0,53,64
220992,note_on,,0,0,2,,,,,,0,50,92
221184,note_off,,192,0,1,,,,,,0,71,64
221184,note_on,,0,0,1,,,,,,0,72,92
221184,note_off,,384,0,3,,,,,,0,38,64
221184,note_on,,0,0,3,,,,,,0,40,102
221184,note_on,,0,0,2,,,,,,0,55,92
221184,note_off,,192,0,2,,,,,,0,50,64
221376,note_off,,192,0,2,,,,,,0,55,64
221376,note_on,,0,0,2,,,,,,0,53,92
221568,note_off,,192,0,2,,,,,,0,53,64
221568,note_off,,384,0,1,,,,,,0,62,64
221568,note_on,,0,0,2,,,,,,0,52,92
221568,note_on,,0,0,1,,,,,,0,60,92
221568,note_on,,0,0,3,,,,,,0,45,102
221568,note_off,,384,0,3,,,,,,0,40,64
221760,note_off,,192,0,2,,,,,,0,52,64
221760,note_on,,0,0,2,,,,,,0,50,92
221952,note_off,,384,0,1,,,,,,0,60,64
221952,note_on,,0,0,2,,,,,,0,48,92
221952,note_off,,192,0,2,,,,,,0,50,64
221952,note_on,,0,0,1,,,,,,0,65,92
222144,note_on,,0,0,2,,,,,,0,60,92
222144,note_off,,192,0,2,,,,,,0,48,64
222336,note_on,,0,0,3,,,,,,0,41,102
222336,note_on,,0,0,2,,,,,,0,59,92
222336,note_off,,192,0,2,,,,,,0,60,64
222336,note_off,,768,0,3,,,,,,0,45,64
222336,note_off,,384,0,1,,,,,,0,72,64
222336,note_on,,0,0,1,,,,,,0,74,92
222528,note_on,,0,0,2,,,,,,0,57,92
222528,note_off,,192,0,2,,,,,,0,59,64
222720,note_on,,0,0,1,,,,,,0,76,92
222720,note_off,,384,0,1,,,,,,0,74,64
222720,note_off,,192,0,2,,,,,,0,57,64
222720,note_off,,384,0,3,,,,,,0,41,64
222720,note_on,,0,0,3,,,,,,0,43,102
222720,note_on,,0,0,2,,,,,,0,59,92
222912,note_off,,192,0,2,,,,,,0,59,64
222912,note_on,,0,0,2,,,,,,0,57,92
223104,note_off,,384,0,3,,,,,,0,43,64
223104,note_on,,0,0,3,,,,,,0,48,102
223104,note_off,,384,0,1,,,,,,0,65,64
223104,note_on,,0,0,1,,,,,,0,64,92
223104,note_off,,192,0,2,,,,,,0,57,64
223104,note_on,,0,0,2,,,,,,0,55,92
223296,note_off,,192,0,2,,,,,,0,55,64
223296,note_on,,0,0,2,,,,,,0,53,92
223488,note_on,,0,0,2,,,,,,0,52,92
223488,note_off,,192,0,2,,,,,,0,53,64
223488,note_off,,384,0,1,,,,,,0,64,64
223488,note_on,,0,0,1,,,,,,0,69,92
223680,note_off,,192,0,1,,,,,,0,76,64
223680,note_off,,192,0,2,,,,,,0,52,64
223680,note_on,,0,0,2,,,,,,0,64,92
223680,note_on,,0,0,1,,,,,,0,79,92
223872,note_off,,768,0,3,,,,,,0,48,64
223872,note_on,,0,0,1,,,,,,0,77,92
223872,note_off,,192,0,1,,,,,,0,79,64
223872,note_on,,0,0,3,,,,,,0,45,102
223872,note_off,,192,0,2,,,,,,0,64,64
223872,note_on,,0,0,2,,,,,,0,62,92
224064,note_on,,0,0,1,,,,,,0,76,92
224064,note_off,,192,0,1,,,,,,0,77,64
224064,note_off,,192,0,2,,,,,,0,62,64
224064,note_on,,0,0,2,,,,,,0,60,92
224256,note_on,,0,0,2,,,,,,0,59,92
224256,note_on,,0,0,1,,,,,,0,74,92
224256,note_off,,192,0,1,,,,,,0,76,64
224256,note_off,,384,0,3,,,,,,0,45,64
224256,note_on,,0,0,3,,,,,,0,47,102
224256,note_off,,192,0,2,,,,,,0,60,64
224448,note_off,,192,0,3,,,,,,0,47,64
224448,note_on,,0,0,3,,,,,,0,48,102
224640,note_off,,384,0,1,,,,,,0,69,64
224640,note_on,,0,0,1,,,,,,0,67,92
224640,note_off,,192,0,3,,,,,,0,48,64
224640,note_on,,0,0,3,,,,,,0,47,102
224832,note_on,,0,0,3,,,,,,0,52,102
224832,note_off,,192,0,3,,,,,,0,47,64
225024,note_on,,0,0,2,,,,,,0,60,92
225024,note_on,,0,0,3,,,,,,0,45,102
225024,note_off,,768,0,2,,,,,,0,59,64
225024,note_off,,192,0,3,,,,,,0,52,64
225024,note_off,,384,0,1,,,,,,0,74,64
225024,note_on,,0,0,1,,,,,,0,72,92
225216,note_on,,0,0,3,,,,,,0,47,102
225216,note_off,,192,0,3,,,,,,0,45,64
225408,note_on,,0,0,3,,,,,,0,45,102
225408,note_off,,384,0,2,,,,,,0,60,64
225408,note_on,,0,0,2,,,,,,0,57,92
225408,note_on,,0,0,1,,,,,,0,65,92
225408,note_off,,384,0,1,,,,,,0,67,64
225408,note_off,,192,0,3,,,,,,0,47,64
225600,note_on,,0,0,3,,,,,,0,50,102
225600,note_off,,192,0,3,,,,,,0,45,64
225792,note_on,,0,0,1,,,,,,0,71,92
225792,note_off,,384,0,1,,,,,,0,72,64
225792,note_off,,192,0,3,,,,,,0,50,64
225792,note_on,,0,0,2,,,,,,0,55,92
225792,note_off,,384,0,2,,,,,,0,57,64
225792,note_on,,0,0,3,,,,,,0,43,102
225984,note_on,,0,0,3,,,,,,0,45,102
225984,note_off,,192,0,3,,,,,,0,43,64
226176,note_off,,192,0,3,,,,,,0,45,64
226176,note_on,,0,0,3,,,,,,0,43,102
226176,note_on,,0,0,1,,,,,,0,64,92
226176,note_off,,0,0,1,,,,,,0,65,64
226176,note_off,,384,0,1,,,,,,0,71,64
226176,note_on,,0,0,1,,,,,,0,76,92
226368,note_off,,192,0,3,,,,,,0,43,64
226368,note_on,,0,0,3,,,,,,0,48,102
226560,note_on,,0,0,1,,,,,,0,69,92
226560,note_on,,0,0,3,,,,,,0,41,102
226560,note_off,,384,0,1,,,,,,0,76,64
226560,note_off,,768,0,2,,,,,,0,55,64
226560,note_on,,0,0,2,,,,,,0,57,92
226560,note_off,,192,0,3,,,,,,0,48,64
226752,note_on,,0,0,1,,,,,,0,72,92
226752,note_off,,192,0,1,,,,,,0,69,64
226944,note_on,,0,0,1,,,,,,0,71,92
226944,note_on,,0,0,1,,,,,,0,62,92
226944,note_off,,0,0,1,,,,,,0,64,64
226944,note_off,,192,0,1,,,,,,0,72,64
227136,note_off,,192,0,1,,,,,,0,71,64
227136,note_on,,0,0,1,,,,,,0,74,92
227328,note_on,,0,0,3,,,,,,0,40,102
227328,note_off,,768,0,3,,,,,,0,41,64
227328,note_on,,0,0,2,,,,,,0,59,92
227328,note_off,,768,0,2,,,,,,0,57,64
227328,note_off,,192,0,1,,,,,,0,74,64
227328,note_on,,0,0,1,,,,,,0,68,92
227712,note_off,,384,0,3,,,,,,0,40,64
227712,note_on,,0,0,2,,,,,,0,60,92
227712,note_off,,384,0,2,,,,,,0,59,64
227712,note_on,,0,0,3,,,,,,0,57,102
227712,note_off,,384,0,1,,,,,,0,68,64
227712,note_off,,0,0,1,,,,,,0,62,64
227712,note_on,,0,0,1,,,,,,0,69,92
227712,note_on,,0,0,1,,,,,,0,60,92
228096,note_on,,0,0,2,,,,,,0,62,92
228096,note_off,,0,0,1,,,,,,0,60,64
228096,note_on,,0,0,1,,,,,,0,59,92
228096,note_on,,0,0,1,,,,,,0,77,92
228096,note_off,,384,0,2,,,,,,0,60,64
228096,note_off,,384,0,1,,,,,,0,69,64
228480,note_on,,0,0,2,,,,,,0,64,92
228480,note_off,,768,0,3,,,,,,0,57,64
228480,note_off,,384,0,2,,,,,,0,62,64
228480,note_on,,0,0,3,,,,,,0,55,102
228480,note_off,,384,0,1,,,,,,0,77,64
228480,note_on,,0,0,1,,,,,,0,76,92
228672,note_on,,0,0,1,,,,,,0,74,92
228672,note_off,,192,0,1,,,,,,0,76,64
228864,note_on,,0,0,1,,,,,,0,73,92
228864,note_on,,0,0,1,,,,,,0,57,92
228864,note_off,,0,0,1,,,,,,0,59,64
228864,note_off,,192,0,1,,,,,,0,74,64
229248,note_on,,0,0,2,,,,,,0,62,92
229248,note_off,,768,0,2,,,,,,0,64,64
229248,note_on,,0,0,1,,,,,,0,81,92
229248,note_off,,384,0,1,,,,,,0,73,64
229248,note_off,,768,0,3,,,,,,0,55,64
229248,note_on,,0,0,3,,,,,,0,53,102
229440,note_off,,192,0,3,,,,,,0,53,64
229440,note_off,,192,0,2,,,,,,0,62,64
229440,note_on,,0,0,2,,,,,,0,61,92
229440,note_on,,0,0,3,,,,,,0,52,102
229632,note_on,,0,0,3,,,,,,0,53,102
229632,note_off,,192,0,3,,,,,,0,52,64
229632,note_off,,384,0,1,,,,,,0,57,64
229632,note_on,,0,0,1,,,,,,0,69,92
229632,note_on,,0,0,2,,,,,,0,62,92
229632,note_off,,192,0,2,,,,,,0,61,64
230016,note_on,,0,0,1,,,,,,0,79,92
230016,note_off,,384,0,3,,,,,,0,53,64
230016,note_on,,0,0,3,,,,,,0,47,102
230016,note_off,,384,0,1,,,,,,0,81,64
230208,note_off,,192,0,1,,,,,,0,79,64
230208,note_on,,0,0,1,,,,,,0,77,92
230400,note_off,,384,0,3,,,,,,0,47,64
230400,note_on,,0,0,3,,,,,,0,52,102
230400,note_on,,0,0,1,,,,,,0,67,92
230400,note_on,,0,0,1,,,,,,0,79,92
230400,note_off,,0,0,1,,,,,,0,69,64
230400,note_off,,192,0,1,,,,,,0,77,64
230784,note_off,,1152,0,2,,,,,,0,62,64
230784,note_on,,0,0,2,,,,,,0,60,92
230784,note_on,,0,0,1,,,,,,0,72,92
230784,note_off,,384,0,1,,,,,,0,79,64
230976,note_off,,192,0,2,,,,,,0,60,64
230976,note_on,,0,0,2,,,,,,0,59,92
231168,note_off,,384,0,1,,,,,,0,72,64
231168,note_off,,0,0,1,,,,,,0,67,64
231168,note_on,,0,0,1,,,,,,0,69,92
231168,note_on,,0,0,1,,,,,,0,77,92
231168,note_off,,192,0,2,,,,,,0,59,64
231168,note_on,,0,0,2,,,,,,0,60,92
231552,note_off,,384,0,2,,,,,,0,60,64
231552,note_on,,0,0,2,,,,,,0,53,92
231552,note_off,,1152,0,3,,,,,,0,52,64
231552,note_on,,0,0,3,,,,,,0,50,102
231744,note_off,,192,0,3,,,,,,0,50,64
231744,note_on,,0,0,3,,,,,,0,48,102
231936,note_on,,0,0,3,,,,,,0,50,102
231936,note_off,,192,0,3,,,,,,0,48,64
231936,note_on,,0,0,2,,,,,,0,58,92
231936,note_off,,384,0,2,,,,,,0,53,64
232320,note_off,,0,0,1,,,,,,0,69,64
232320,note_off,,384,0,3,,,,,,0,50,64
232320,note_on,,0,0,1,,,,,,0,76,92
232320,note_on,,0,0,3,,,,,,0,43,102
232320,note_off,,1152,0,1,,,,,,0,77,64
232320,note_on,,0,0,1,,,,,,0,67,92
232512,note_off,,192,0,1,,,,,,0,76,64
232512,note_off,,0,0,1,,,,,,0,67,64
232512,note_on,,0,0,1,,,,,,0,65,92
232512,note_on,,0,0,1,,,,,,0,74,92
232704,note_off,,384,0,3,,,,,,0,43,64
232704,note_off,,192,0,1,,,,,,0,74,64
232704,note_on,,0,0,1,,,,,,0,76,92
232704,note_on,,0,0,1,,,,,,0,64,92
232704,note_off,,0,0,1,,,,,,0,65,64
232704,note_on,,0,0,3,,,,,,0,48,102
233088,note_off,,384,0,1,,,,,,0,76,64
233088,note_off,,1152,0,2,,,,,,0,58,64
233088,note_on,,0,0,2,,,,,,0,57,92
233088,note_on,,0,0,1,,,,,,0,69,92
233280,note_off,,192,0,2,,,,,,0,57,64
233280,note_on,,0,0,2,,,,,,0,55,92
233472,note_off,,192,0,2,,,,,,0,55,64
233472,note_on,,0,0,2,,,,,,0,57,92
233472,note_off,,0,0,1,,,,,,0,64,64
233472,note_on,,0,0,1,,,,,,0,74,92
233472,note_on,,0,0,1,,,,,,0,65,92
233472,note_off,,384,0,1,,,,,,0,69,64
233856,note_on,,0,0,2,,,,,,0,50,92
233856,note_on,,0,0,3,,,,,,0,46,102
233856,note_off,,384,0,2,,,,,,0,57,64
233856,note_off,,1152,0,3,,,,,,0,48,64
234048,note_on,,0,0,3,,,,,,0,45,102
234048,note_off,,192,0,3,,,,,,0,46,64
234240,note_off,,384,0,2,,,,,,0,50,64
234240,note_on,,0,0,2,,,,,,0,55,92
234240,note_on,,0,0,3,,,,,,0,46,102
234240,note_off,,192,0,3,,,,,,0,45,64
234624,note_off,,0,0,1,,,,,,0,65,64
234624,note_on,,0,0,1,,,,,,0,64,92
234624,note_off,,1152,0,1,,,,,,0,74,64
234624,note_on,,0,0,3,,,,,,0,40,102
234624,note_off,,384,0,3,,,,,,0,46,64
234624,note_on,,0,0,1,,,,,,0,72,92
234816,note_off,,0,0,1,,,,,,0,64,64
234816,note_off,,192,0,1,,,,,,0,72,64
234816,note_on,,0,0,1,,,,,,0,70,92
234816,note_on,,0,0,1,,,,,,0,62,92
235008,note_on,,0,0,1,,,,,,0,60,92
235008,note_off,,384,0,3,,,,,,0,40,64
235008,note_on,,0,0,3,,,,,,0,45,102
235008,note_off,,192,0,1,,,,,,0,70,64
235008,note_on,,0,0,1,,,,,,0,72,92
235008,note_off,,0,0,1,,,,,,0,62,64
235392,note_on,,0,0,2,,,,,,0,53,92
235392,note_off,,1152,0,2,,,,,,0,55,64
235392,note_off,,0,0,1,,,,,,0,60,64
235392,note_off,,384,0,1,,,,,,0,72,64
235392,note_on,,0,0,1,,,,,,0,65,92
235584,note_off,,192,0,2,,,,,,0,53,64
235584,note_on,,0,0,2,,,,,,0,52,92
235776,note_on,,384,0,1,,,,,,0,70,92
235776,note_off,,192,0,2,,,,,,0,52,64
235776,note_on,,0,0,2,,,,,,0,50,92
236160,note_off,,384,0,1,,,,,,0,65,64
236160,note_on,,0,0,1,,,,,,0,64,92
236160,note_off,,384,0,2,,,,,,0,50,64
236160,note_on,,0,0,2,,,,,,0,58,92
236160,note_on,,0,0,3,,,,,,0,43,102
236160,note_off,,1152,0,3,,,,,,0,45,64
236352,note_off,,192,0,1,,,,,,0,64,64
236352,note_on,,0,0,1,,,,,,0,62,92
236544,note_on,,0,0,1,,,,,,0,61,92
236544,note_off,,0,0,1,,,,,,0,70,64
236544,note_on,,0,0,1,,,,,,0,69,92
236544,note_on,,0,0,2,,,,,,0,52,92
236544,note_off,,384,0,2,,,,,,0,58,64
236544,note_off,,192,0,1,,,,,,0,62,64
236736,note_off,,192,0,1,,,,,,0,69,64
236736,note_on,,0,0,1,,,,,,0,70,92
236928,note_off,,768,0,3,,,,,,0,43,64
236928,note_off,,192,0,1,,,,,,0,70,64
236928,note_on,,0,0,3,,,,,,0,41,102
236928,note_on,,0,0,2,,,,,,0,53,92
236928,note_on,,0,0,1,,,,,,0,69,92
236928,note_on,,0,0,1,,,,,,0,62,92
236928,note_off,,0,0,1,,,,,,0,61,64
236928,note_off,,384,0,2,,,,,,0,52,64
237120,note_off,,192,0,1,,,,,,0,69,64
237120,note_on,,0,0,1,,,,,,0,60,92
237120,note_on,,0,0,1,,,,,,0,74,92
237120,note_off,,0,0,1,,,,,,0,62,64
237312,note_off,,384,0,2,,,,,,0,53,64
237312,note_off,,192,0,1,,,,,,0,74,64
237312,note_off,,0,0,1,,,,,,0,60,64
237312,note_on,,0,0,1,,,,,,0,59,92
237312,note_on,,0,0,1,,,,,,0,67,92
237312,note_on,,0,0,2,,,,,,0,55,92
237504,note_off,,192,0,1,,,,,,0,67,64
237504,note_on,,0,0,1,,,,,,0,69,92
237696,note_on,,0,0,1,,,,,,0,67,92
237696,note_on,,0,0,1,,,,,,0,61,92
237696,note_off,,0,0,1,,,,,,0,59,64
237696,note_off,,192,0,1,,,,,,0,69,64
237696,note_off,,768,0,3,,,,,,0,41,64
237696,note_on,,0,0,3,,,,,,0,40,102
237888,note_on,,0,0,1,,,,,,0,76,92
237888,note_off,,192,0,1,,,,,,0,67,64
238080,note_off,,192,0,1,,,,,,0,76,64
238080,note_on,,0,0,2,,,,,,0,57,92
238080,note_off,,0,0,1,,,,,,0,61,64
238080,note_off,,768,0,2,,,,,,0,55,64
238080,note_off,,384,0,3,,,,,,0,40,64
238080,note_on,,0,0,3,,,,,,0,38,102
238080,note_on,,0,0,1,,,,,,0,65,92
238080,note_on,,0,0,1,,,,,,0,62,92
238272,note_off,,192,0,1,,,,,,0,65,64
238272,note_on,,0,0,1,,,,,,0,67,92
238464,note_off,,384,0,3,,,,,,0,38,64
238464,note_on,,0,0,3,,,,,,0,50,102
238464,note_off,,192,0,1,,,,,,0,67,64
238464,note_on,,0,0,1,,,,,,0,65,92
238464,note_on,,0,0,2,,,,,,0,53,92
238464,note_off,,384,0,2,,,,,,0,57,64
238656,note_on,,0,0,1,,,,,,0,70,92
238656,note_off,,192,0,1,,,,,,0,65,64
238848,note_on,,0,0,1,,,,,,0,58,92
238848,note_on,,0,0,1,,,,,,0,64,92
238848,note_off,,192,0,1,,,,,,0,70,64
238848,note_off,,0,0,1,,,,,,0,62,64
238848,note_off,,384,0,2,,,,,,0,53,64
238848,note_on,,0,0,2,,,,,,0,55,92
239040,note_off,,192,0,1,,,,,,0,64,64
239040,note_on,,0,0,1,,,,,,0,65,92
239232,note_off,,0,0,1,,,,,,0,58,64
239232,note_on,,0,0,2,,,,,,0,52,92
239232,note_on,,0,0,3,,,,,,0,49,102
239232,note_off,,192,0,1,,,,,,0,65,64
239232,note_off,,768,0,3,,,,,,0,50,64
239232,note_on,,0,0,1,,,,,,0,57,92
239232,note_on,,0,0,1,,,,,,0,64,92
239232,note_off,,384,0,2,,,,,,0,55,64
239424,note_on,,0,0,1,,,,,,0,69,92
239424,note_off,,192,0,1,,,,,,0,64,64
239616,note_off,,0,0,1,,,,,,0,57,64
239616,note_on,,0,0,1,,,,,,0,57,92
239616,note_on,,0,0,1,,,,,,0,65,92
239616,note_off,,384,0,3,,,,,,0,49,64
239616,note_on,,0,0,2,,,,,,0,50,92
239616,note_off,,384,0,2,,,,,,0,52,64
239616,note_off,,192,0,1,,,,,,0,69,64
239616,note_on,,0,0,3,,,,,,0,50,102
239808,note_off,,192,0,1,,,,,,0,65,64
239808,note_on,,0,0,1,,,,,,0,64,92
240000,note_off,,192,0,1,,,,,,0,64,64
240000,note_on,,0,0,1,,,,,,0,62,92
240192,note_off,,192,0,1,,,,,,0,62,64
240192,note_on,,0,0,1,,,,,,0,64,92
240384,note_on,,0,0,1,,,,,,0,65,92
240384,note_on,,0,0,3,,,,,,0,45,102
240384,note_off,,768,0,3,,,,,,0,50,64
240384,note_off,,192,0,1,,,,,,0,64,64
240432,note_off,,48,0,1,,,,,,0,65,64
240432,note_on,,0,0,1,,,,,,0,64,92
240480,note_off,,48,0,1,,,,,,0,64,64
240480,note_on,,0,0,1,,,,,,0,65,92
240528,note_off,,48,0,1,,,,,,0,65,64
240528,note_on,,0,0,1,,,,,,0,64,92
240576,note_on,,0,0,1,,,,,,0,65,92
240576,note_off,,48,0,1,,,,,,0,64,64
240624,note_off,,48,0,1,,,,,,0,65,64
240624,note_on,,0,0,1,,,,,,0,64,92
240672,note_off,,48,0,1,,,,,,0,64,64
240672,note_on,,0,0,1,,,,,,0,65,92
240720,note_off,,48,0,1,,,,,,0,65,64
240720,note_on,,0,0,1,,,,,,0,64,92
240768,note_off,,48,0,1,,,,,,0,64,64
240768,note_on,,0,0,1,,,,,,0,65,92
240768,note_on,,0,0,2,,,,,,0,49,92
240768,note_off,,1152,0,2,,,,,,0,50,64
240816,note_off,,48,0,1,,,,,,0,65,64
240816,note_on,,0,0,1,,,,,,0,64,92
240864,note_off,,48,0,1,,,,,,0,64,64
240864,note_on,,0,0,1,,,,,,0,65,92
240912,note_off,,48,0,1,,,,,,0,65,64
240912,note_on,,0,0,1,,,,,,0,64,92
240960,note_off,,48,0,1,,,,,,0,64,64
240960,note_on,,0,0,1,,,,,,0,65,92
241008,note_off,,48,0,1,,,,,,0,65,64
241008,note_on,,0,0,1,,,,,,0,64,92
241056,note_off,,48,0,1,,,,,,0,64,64
241056,note_on,,0,0,1,,,,,,0,65,92
241104,note_off,,48,0,1,,,,,,0,65,64
241104,note_on,,0,0,1,,,,,,0,64,92
241152,note_on,,0,0,3,,,,,,0,38,102
241152,note_off,,384,0,2,,,,,,0,49,64
241152,note_on,,0,0,2,,,,,,0,50,92
241152,note_off,,768,0,3,,,,,,0,45,64
241152,note_on,,0,0,1,,,,,,0,65,92
241152,note_off,,48,0,1,,,,,,0,64,64
241536,note_on,,0,0,1,,,,,,0,65,92
241536,note_on,,0,0,1,,,,,,0,62,92
241536,note_off,,0,0,1,,,,,,0,57,64
241536,note_off,,384,0,1,,,,,,0,65,64
241920,note_on,,0,0,1,,,,,,0,67,92
241920,note_off,,384,0,1,,,,,,0,62,64
241920,note_off,,768,0,3,,,,,,0,38,64
241920,note_on,,0,0,3,,,,,,0,46,102
242304,note_off,,1152,0,2,,,,,,0,50,64
242304,note_on,,0,0,1,,,,,,0,64,92
242304,note_off,,384,0,1,,,,,,0,65,64
242304,note_on,,0,0,2,,,,,,0,52,92
242496,note_on,,0,0,1,,,,,,0,62,92
242496,note_off,,192,0,1,,,,,,0,64,64
242688,note_on,,0,0,3,,,,,,0,45,102
242688,note_off,,192,0,1,,,,,,0,62,64
242688,note_off,,768,0,3,,,,,,0,46,64
242688,note_off,,384,0,2,,,,,,0,52,64
242688,note_on,,0,0,2,,,,,,0,53,92
242688,note_on,,0,0,1,,,,,,0,60,92
243072,note_off,,384,0,1,,,,,,0,67,64
243072,note_on,,0,0,1,,,,,,0,65,92
243456,note_off,,384,0,1,,,,,,0,65,64
243456,note_off,,0,0,1,,,,,,0,60,64
243456,note_on,,0,0,1,,,,,,0,70,92
243456,note_on,,0,0,1,,,,,,0,62,92
243840,note_on,,0,0,3,,,,,,0,43,102
243840,note_off,,1152,0,3,,,,,,0,45,64
243840,note_off,,384,0,1,,,,,,0,62,64
243840,note_on,,0,0,1,,,,,,0,64,92
243840,note_on,,0,0,2,,,,,,0,55,92
243840,note_off,,1152,0,2,,,,,,0,53,64
244224,note_off,,384,0,1,,,,,,0,64,64
244224,note_on,,0,0,1,,,,,,0,65,92
244224,note_off,,384,0,2,,,,,,0,55,64
244224,note_on,,0,0,2,,,,,,0,57,92
244224,note_on,,0,0,3,,,,,,0,41,102
244224,note_off,,384,0,3,,,,,,0,43,64
244608,note_on,,0,0,1,,,,,,0,69,92
244608,note_off,,384,0,1,,,,,,0,70,64
244992,note_off,,384,0,1,,,,,,0,69,64
244992,note_on,,0,0,1,,,,,,0,74,92
245184,note_off,,960,0,2,,,,,,0,57,64
245184,note_on,,0,0,2,,,,,,0,53,92
245376,note_on,,0,0,1,,,,,,0,70,92
245376,note_off,,1152,0,3,,,,,,0,41,64
245376,note_on,,0,0,3,,,,,,0,43,102
245376,note_on,,0,0,2,,,,,,0,52,92
245376,note_off,,192,0,2,,,,,,0,53,64
245376,note_off,,384,0,1,,,,,,0,65,64
245568,note_on,,0,0,2,,,,,,0,50,92
245568,note_off,,192,0,2,,,,,,0,52,64
245760,note_off,,192,0,2,,,,,,0,50,64
245760,note_on,,0,0,1,,,,,,0,64,92
245760,note_off,,384,0,1,,,,,,0,70,64
245760,note_on,,0,0,2,,,,,,0,57,92
245760,note_on,,0,0,3,,,,,,0,45,102
245760,note_off,,384,0,3,,,,,,0,43,64
245952,note_off,,192,0,1,,,,,,0,64,64
245952,note_on,,0,0,1,,,,,,0,65,92
246144,note_on,,0,0,1,,,,,,0,64,92
246144,note_on,,0,0,1,,,,,,0,72,92
246144,note_off,,0,0,1,,,,,,0,74,64
246144,note_off,,192,0,1,,,,,,0,65,64
246336,note_on,,0,0,1,,,,,,0,69,92
246336,note_off,,192,0,1,,,,,,0,64,64
246336,note_on,,0,0,2,,,,,,0,55,92
246336,note_off,,576,0,2,,,,,,0,57,64
246528,note_on,,0,0,1,,,,,,0,62,92
246528,note_off,,192,0,1,,,,,,0,69,64
246528,note_off,,768,0,3,,,,,,0,45,64
246528,note_off,,192,0,2,,,,,,0,55,64
246528,note_on,,0,0,2,,,,,,0,53,92
246720,note_on,,0,0,1,,,,,,0,64,92
246720,note_off,,192,0,1,,,,,,0,62,64
246912,note_on,,0,0,2,,,,,,0,55,92
246912,note_on,,0,0,1,,,,,,0,62,92
246912,note_on,,0,0,1,,,,,,0,70,92
246912,note_off,,0,0,1,,,,,,0,72,64
246912,note_off,,192,0,1,,,,,,0,64,64
246912,note_off,,384,0,2,,,,,,0,53,64
247104,note_off,,192,0,2,,,,,,0,55,64
247104,note_off,,192,0,1,,,,,,0,62,64
247104,note_on,,0,0,2,,,,,,0,53,92
247104,note_on,,0,0,1,,,,,,0,67,92
247296,note_off,,192,0,1,,,,,,0,67,64
247296,note_on,,0,0,1,,,,,,0,60,92
247296,note_on,,0,0,2,,,,,,0,52,92
247296,note_off,,192,0,2,,,,,,0,53,64
247488,note_off,,192,0,1,,,,,,0,60,64
247488,note_on,,0,0,1,,,,,,0,62,92
247680,note_on,,0,0,2,,,,,,0,53,92
247680,note_off,,384,0,2,,,,,,0,52,64
247680,note_on,,0,0,1,,,,,,0,69,92
247680,note_on,,0,0,1,,,,,,0,60,92
247680,note_off,,0,0,1,,,,,,0,70,64
247680,note_off,,192,0,1,,,,,,0,62,64
247872,note_on,,0,0,2,,,,,,0,52,92
247872,note_off,,192,0,2,,,,,,0,53,64
247872,note_on,,0,0,1,,,,,,0,65,92
247872,note_off,,192,0,1,,,,,,0,60,64
248064,note_on,,0,0,2,,,,,,0,50,92
248064,note_off,,192,0,2,,,,,,0,52,64
248064,note_on,,0,0,1,,,,,,0,58,92
248064,note_off,,192,0,1,,,,,,0,65,64
248256,note_off,,192,0,2,,,,,,0,50,64
248256,note_on,,0,0,2,,,,,,0,53,92
248448,note_on,,0,0,1,,,,,,0,67,92
248448,note_on,,0,0,2,,,,,,0,52,92
248448,note_off,,192,0,2,,,,,,0,53,64
248448,note_off,,384,0,1,,,,,,0,69,64
248640,note_on,,0,0,2,,,,,,0,55,92
248640,note_off,,192,0,2,,,,,,0,52,64
248832,note_off,,384,0,1,,,,,,0,58,64
248832,note_on,,0,0,1,,,,,,0,57,92
248832,note_off,,192,0,2,,,,,,0,55,64
248832,note_on,,0,0,2,,,,,,0,49,92
249024,note_off,,192,0,2,,,,,,0,49,64
249024,note_on,,0,0,2,,,,,,0,52,92
249216,note_off,,0,0,1,,,,,,0,67,64
249216,note_off,,384,0,1,,,,,,0,57,64
249216,note_on,,0,0,1,,,,,,0,65,92
249216,note_on,,0,0,1,,,,,,0,62,92
249216,note_on,,0,0,2,,,,,,0,50,92
249216,note_off,,192,0,2,,,,,,0,52,64
249408,note_off,,192,0,2,,,,,,0,50,64
249408,note_on,,0,0,2,,,,,,0,53,92
249600,note_on,,0,0,1,,,,,,0,64,92
249600,note_off,,192,0,2,,,,,,0,53,64
249600,note_on,,0,0,2,,,,,,0,43,92
249600,note_off,,384,0,1,,,,,,0,65,64
249792,note_off,,192,0,2,,,,,,0,43,64
249792,note_on,,0,0,2,,,,,,0,46,92
249984,note_on,,0,0,1,,,,,,0,60,92
249984,note_off,,384,0,1,,,,,,0,62,64
249984,note_on,,0,0,2,,,,,,0,45,92
249984,note_off,,192,0,2,,,,,,0,46,64
250176,note_off,,192,0,2,,,,,,0,45,64
250176,note_on,,0,0,1,,,,,,0,65,92
250176,note_off,,192,0,1,,,,,,0,64,64
250176,note_on,,0,0,2,,,,,,0,48,92
250368,note_off,,192,0,1,,,,,,0,65,64
250368,note_on,,0,0,1,,,,,,0,62,92
250368,note_off,,192,0,2,,,,,,0,48,64
250368,note_on,,0,0,2,,,,,,0,46,92
250560,note_on,,0,0,2,,,,,,0,50,92
250560,note_off,,192,0,2,,,,,,0,46,64
250752,note_off,,384,0,1,,,,,,0,62,64
250752,note_on,,0,0,2,,,,,,0,43,92
250752,note_off,,192,0,2,,,,,,0,50,64
250752,note_on,,0,0,1,,,,,,0,58,92
250752,note_off,,0,0,1,,,,,,0,60,64
250752,note_on,,0,0,1,,,,,,0,64,92
250944,note_on,,0,0,2,,,,,,0,46,92
250944,note_off,,192,0,2,,,,,,0,43,64
251136,note_off,,384,0,1,,,,,,0,64,64
251136,note_on,,0,0,2,,,,,,0,45,92
251136,note_off,,192,0,2,,,,,,0,46,64
251136,note_on,,0,0,1,,,,,,0,65,92
251136,note_on,,0,0,1,,,,,,0,60,92
251136,note_off,,0,0,1,,,,,,0,58,64
251328,note_off,,192,0,2,,,,,,0,45,64
251328,note_on,,0,0,2,,,,,,0,48,92
251520,note_off,,192,0,2,,,,,,0,48,64
251520,note_on,,0,0,2,,,,,,0,47,92
251520,note_on,,0,0,1,,,,,,0,62,92
251520,note_off,,384,0,1,,,,,,0,60,64
251712,note_on,,0,0,2,,,,,,0,50,92
251712,note_off,,192,0,2,,,,,,0,47,64
251712,note_on,,0,0,1,,,,,,0,67,92
251712,note_off,,192,0,1,,,,,,0,65,64
251904,note_on,,0,0,2,,,,,,0,48,92
251904,note_off,,192,0,1,,,,,,0,67,64
251904,note_on,,0,0,1,,,,,,0,64,92
251904,note_off,,192,0,2,,,,,,0,50,64
252096,note_on,,0,0,2,,,,,,0,52,92
252096,note_off,,192,0,2,,,,,,0,48,64
252288,note_off,,192,0,2,,,,,,0,52,64
252288,note_on,,0,0,1,,,,,,0,66,92
252288,note_on,,0,0,1,,,,,,0,60,92
252288,note_off,,0,0,1,,,,,,0,62,64
252288,note_off,,384,0,1,,,,,,0,64,64
252288,note_on,,0,0,2,,,,,,0,45,92
252480,note_on,,0,0,2,,,,,,0,48,92
252480,note_off,,192,0,2,,,,,,0,45,64
252672,note_off,,192,0,2,,,,,,0,48,64
252672,note_on,,0,0,2,,,,,,0,47,92
252672,note_on,,0,0,1,,,,,,0,62,92
252672,note_on,,0,0,1,,,,,,0,67,92
252672,note_off,,0,0,1,,,,,,0,60,64
252672,note_off,,384,0,1,,,,,,0,66,64
252864,note_off,,192,0,2,,,,,,0,47,64
252864,note_on,,0,0,2,,,,,,0,50,92
253056,note_off,,384,0,1,,,,,,0,62,64
253056,note_on,,0,0,1,,,,,,0,64,92
253056,note_on,,0,0,2,,,,,,0,49,92
253056,note_off,,192,0,2,,,,,,0,50,64
253248,note_on,,0,0,1,,,,,,0,69,92
253248,note_off,,192,0,1,,,,,,0,67,64
253248,note_off,,192,0,2,,,,,,0,49,64
253248,note_on,,0,0,2,,,,,,0,52,92
253440,note_on,,0,0,1,,,,,,0,66,92
253440,note_off,,192,0,1,,,,,,0,69,64
253440,note_on,,0,0,2,,,,,,0,50,92
253440,note_off,,192,0,2,,,,,,0,52,64
253632,note_off,,192,0,2,,,,,,0,50,64
253632,note_on,,0,0,2,,,,,,0,54,92
253824,note_on,,0,0,2,,,,,,0,47,92
253824,note_off,,0,0,1,,,,,,0,64,64
253824,note_off,,192,0,2,,,,,,0,54,64
253824,note_on,,0,0,1,,,,,,0,62,92
253824,note_on,,0,0,1,,,,,,0,68,92
253824,note_off,,384,0,1,,,,,,0,66,64
254016,note_on,,0,0,2,,,,,,0,50,92
254016,note_off,,192,0,2,,,,,,0,47,64
254208,note_off,,0,0,1,,,,,,0,62,64
254208,note_on,,0,0,1,,,,,,0,69,92
254208,note_on,,0,0,1,,,,,,0,64,92
254208,note_on,,0,0,2,,,,,,0,48,92
254208,note_off,,192,0,2,,,,,,0,50,64
254208,note_off,,384,0,1,,,,,,0,68,64
254400,note_off,,192,0,2,,,,,,0,48,64
254400,note_on,,0,0,2,,,,,,0,52,92
254592,note_off,,384,0,1,,,,,,0,64,64
254592,note_on,,0,0,1,,,,,,0,65,92
254592,note_on,,0,0,2,,,,,,0,50,92
254592,note_off,,192,0,2,,,,,,0,52,64
254784,note_off,,192,0,2,,,,,,0,50,64
254784,note_on,,0,0,2,,,,,,0,53,92
254784,note_off,,192,0,1,,,,,,0,69,64
254784,note_on,,0,0,1,,,,,,0,71,92
254976,note_on,,0,0,1,,,,,,0,68,92
254976,note_on,,0,0,1,,,,,,0,59,92
254976,note_on,,0,0,2,,,,,,0,52,92
254976,note_off,,192,0,2,,,,,,0,53,64
254976,note_off,,192,0,1,,,,,,0,71,64
254976,note_off,,0,0,1,,,,,,0,65,64
255168,note_on,,0,0,2,,,,,,0,50,92
255168,note_off,,192,0,2,,,,,,0,52,64
255360,note_off,,0,0,1,,,,,,0,59,64
255360,note_off,,384,0,1,,,,,,0,68,64
255360,note_off,,192,0,2,,,,,,0,50,64
255360,note_on,,0,0,2,,,,,,0,52,92
255360,note_on,,0,0,1,,,,,,0,76,92
255552,note_off,,192,0,2,,,,,,0,52,64
255552,note_on,,0,0,2,,,,,,0,48,92
255744,note_on,,384,0,1,,,,,,0,69,92
255744,note_off,,192,0,2,,,,,,0,48,64
255744,note_on,,0,0,2,,,,,,0,53,92
255936,note_off,,192,0,2,,,,,,0,53,64
255936,note_on,,0,0,2,,,,,,0,57,92
256128,note_off,,192,0,2,,,,,,0,57,64
256128,note_on,,0,0,1,,,,,,0,74,92
256128,note_off,,384,0,1,,,,,,0,76,64
256128,note_on,,0,0,2,,,,,,0,50,92
256320,note_off,,192,0,2,,,,,,0,50,64
256320,note_off,,192,0,1,,,,,,0,74,64
256320,note_on,,0,0,2,,,,,,0,53,92
256320,note_on,,0,0,1,,,,,,0,72,92
256512,note_on,,0,0,1,,,,,,0,74,92
256512,note_off,,192,0,1,,,,,,0,72,64
256512,note_off,,192,0,2,,,,,,0,53,64
256512,note_on,,0,0,2,,,,,,0,47,92
256896,note_off,,384,0,2,,,,,,0,47,64
256896,note_off,,384,0,1,,,,,,0,74,64
256896,note_on,,0,0,2,,,,,,0,52,92
256896,note_on,,0,0,1,,,,,,0,67,92
256896,note_off,,0,0,1,,,,,,0,69,64
257088,note_on,,192,0,1,,,,,,0,65,92
257280,note_off,,192,0,1,,,,,,0,65,64
257280,note_off,,0,0,1,,,,,,0,67,64
257280,note_on,,0,0,1,,,,,,0,67,92
257280,note_on,,0,0,1,,,,,,0,72,92
257664,note_on,,0,0,2,,,,,,0,50,92
257664,note_off,,768,0,2,,,,,,0,52,64
257664,note_on,,0,0,1,,,,,,0,60,92
257664,note_off,,384,0,1,,,,,,0,67,64
257856,note_on,,0,0,2,,,,,,0,48,92
257856,note_off,,192,0,2,,,,,,0,50,64
258048,note_on,,0,0,1,,,,,,0,65,92
258048,note_off,,192,0,2,,,,,,0,48,64
258048,note_on,,0,0,2,,,,,,0,50,92
258048,note_off,,384,0,1,,,,,,0,60,64
258432,note_on,,0,0,1,,,,,,0,71,92
258432,note_off,,384,0,1,,,,,,0,72,64
258432,note_off,,384,0,2,,,,,,0,50,64
258432,note_on,,0,0,2,,,,,,0,43,92
258624,note_off,,192,0,1,,,,,,0,71,64
258624,note_on,,0,0,1,,,,,,0,69,92
258816,note_off,,384,0,2,,,,,,0,43,64
258816,note_on,,0,0,2,,,,,,0,48,92
258816,note_on,,0,0,1,,,,,,0,71,92
258816,note_off,,192,0,1,,,,,,0,69,64
259200,note_off,,0,0,1,,,,,,0,65,64
259200,note_off,,384,0,1,,,,,,0,71,64
259200,note_on,,0,0,1,,,,,,0,64,92
259392,note_on,,192,0,1,,,,,,0,62,92
259584,note_off,,0,0,1,,,,,,0,64,64
259584,note_on,,0,0,1,,,,,,0,64,92
259584,note_on,,0,0,1,,,,,,0,69,92
259584,note_off,,192,0,1,,,,,,0,62,64
259968,note_off,,1152,0,2,,,,,,0,48,64
259968,note_off,,384,0,1,,,,,,0,64,64
259968,note_on,,0,0,1,,,,,,0,57,92
259968,note_on,,0,0,2,,,,,,0,47,92
260160,note_on,,0,0,2,,,,,,0,45,92
260160,note_off,,192,0,2,,,,,,0,47,64
260352,note_on,,0,0,1,,,,,,0,62,92
260352,note_off,,192,0,2,,,,,,0,45,64
260352,note_on,,0,0,2,,,,,,0,47,92
260352,note_off,,384,0,1,,,,,,0,57,64
260736,note_off,,384,0,2,,,,,,0,47,64
260736,note_on,,0,0,2,,,,,,0,40,92
260736,note_on,,0,0,1,,,,,,0,68,92
260736,note_off,,384,0,1,,,,,,0,69,64
261120,note_on,,0,0,1,,,,,,0,69,92
261120,note_off,,384,0,1,,,,,,0,68,64
261120,note_off,,384,0,2,,,,,,0,40,64
261120,note_on,,0,0,2,,,,,,0,45,92
261312,note_on,,0,0,1,,,,,,0,59,92
261312,note_off,,192,0,1,,,,,,0,62,64
261504,note_on,,0,0,1,,,,,,0,60,92
261504,note_off,,192,0,1,,,,,,0,59,64
261696,note_on,,0,0,1,,,,,,0,57,92
261696,note_off,,192,0,1,,,,,,0,60,64
261888,note_off,,192,0,1,,,,,,0,69,64
261888,note_on,,0,0,2,,,,,,0,47,92
261888,note_off,,768,0,2,,,,,,0,45,64
262272,note_off,,384,0,1,,,,,,0,57,64
262272,note_on,,384,0,2,,,,,,0,56,92
262656,note_on,,0,0,2,,,,,,0,57,92
262656,note_on,,0,0,2,,,,,,0,48,92
262656,note_off,,0,0,2,,,,,,0,47,64
262656,note_off,,384,0,2,,,,,,0,56,64
263040,note_on,,0,0,2,,,,,,0,45,92
263040,note_off,,384,0,2,,,,,,0,48,64
263040,note_on,,768,0,1,,,,,,0,81,92
263232,note_off,,192,0,1,,,,,,0,81,64
263232,note_on,,0,0,1,,,,,,0,79,92
263424,note_on,,0,0,2,,,,,,0,50,92
263424,note_off,,384,0,2,,,,,,0,45,64
263424,note_off,,192,0,1,,,,,,0,79,64
263424,note_on,,0,0,1,,,,,,0,77,92
263808,note_on,,0,0,2,,,,,,0,59,92
263808,note_off,,384,0,2,,,,,,0,57,64
263808,note_off,,384,0,1,,,,,,0,77,64
263808,note_on,,0,0,1,,,,,,0,76,92
264000,note_off,,192,0,1,,,,,,0,76,64
264000,note_on,,0,0,1,,,,,,0,74,92
264192,note_on,,0,0,2,,,,,,0,60,92
264192,note_off,,192,0,1,,,,,,0,74,64
264192,note_off,,384,0,2,,,,,,0,59,64
264192,note_on,,0,0,1,,,,,,0,76,92
264576,note_off,,384,0,2,,,,,,0,50,64
264576,note_on,,0,0,2,,,,,,0,48,92
264576,note_on,,0,0,1,,,,,,0,69,92
264576,note_off,,384,0,1,,,,,,0,76,64
264960,note_off,,384,0,1,,,,,,0,69,64
264960,note_on,,0,0,2,,,,,,0,53,92
264960,note_off,,384,0,2,,,,,,0,48,64
264960,note_on,,0,0,1,,,,,,0,81,92
265344,note_on,,0,0,1,,,,,,0,79,92
265344,note_off,,384,0,1,,,,,,0,81,64
265344,note_on,,0,0,2,,,,,,0,62,92
265344,note_off,,384,0,2,,,,,,0,60,64
265536,note_off,,192,0,1,,,,,,0,79,64
265536,note_on,,0,0,1,,,,,,0,77,92
265728,note_off,,384,0,2,,,,,,0,62,64
265728,note_off,,192,0,1,,,,,,0,77,64
265728,note_on,,0,0,1,,,,,,0,79,92
265728,note_on,,0,0,2,,,,,,0,64,92
266112,note_off,,384,0,2,,,,,,0,53,64
266112,note_on,,0,0,2,,,,,,0,52,92
266112,note_on,,0,0,1,,,,,,0,67,92
266112,note_off,,384,0,1,,,,,,0,79,64
266496,note_off,,384,0,2,,,,,,0,52,64
266496,note_on,,0,0,2,,,,,,0,57,92
266496,note_on,,0,0,1,,,,,,0,72,92
266496,note_off,,384,0,1,,,,,,0,67,64
266880,note_on,,0,0,1,,,,,,0,71,92
266880,note_on,,0,0,2,,,,,,0,65,92
266880,note_off,,384,0,2,,,,,,0,64,64
266880,note_off,,384,0,1,,,,,,0,72,64
267072,note_on,,0,0,1,,,,,,0,69,92
267072,note_off,,192,0,1,,,,,,0,71,64
267264,note_on,,0,0,1,,,,,,0,71,92
267264,note_on,,0,0,2,,,,,,0,62,92
267264,note_off,,384,0,2,,,,,,0,65,64
267264,note_off,,192,0,1,,,,,,0,69,64
267456,note_off,,192,0,1,,,,,,0,71,64
267456,note_on,,0,0,1,,,,,,0,72,92
267648,note_on,,0,0,2,,,,,,0,64,92
267648,note_off,,0,0,2,,,,,,0,57,64
267648,note_off,,384,0,2,,,,,,0,62,64
267648,note_on,,0,0,2,,,,,,0,55,92
267648,note_on,,0,0,1,,,,,,0,71,92
267648,note_off,,192,0,1,,,,,,0,72,64
267840,note_on,,0,0,2,,,,,,0,59,92
267840,note_off,,192,0,2,,,,,,0,64,64
267840,note_on,,0,0,1,,,,,,0,76,92
267840,note_off,,192,0,1,,,,,,0,71,64
268032,note_on,,0,0,2,,,,,,0,60,92
268032,note_off,,192,0,2,,,,,,0,59,64
268032,note_on,,0,0,1,,,,,,0,69,92
268032,note_off,,192,0,1,,,,,,0,76,64
268224,note_on,,0,0,1,,,,,,0,71,92
268224,note_off,,192,0,1,,,,,,0,69,64
268416,note_on,,0,0,2,,,,,,0,53,92
268416,note_on,,0,0,2,,,,,,0,62,92
268416,note_on,,0,0,1,,,,,,0,69,92
268416,note_off,,192,0,1,,,,,,0,71,64
268416,note_off,,0,0,2,,,,,,0,55,64
268416,note_off,,384,0,2,,,,,,0,60,64
268608,note_on,,0,0,2,,,,,,0,57,92
268608,note_off,,192,0,2,,,,,,0,62,64
268608,note_on,,0,0,1,,,,,,0,74,92
268608,note_off,,192,0,1,,,,,,0,69,64
268800,note_off,,192,0,2,,,,,,0,57,64
268800,note_off,,192,0,1,,,,,,0,74,64
268800,note_on,,0,0,1,,,,,,0,67,92
268800,note_on,,0,0,2,,,,,,0,59,92
268992,note_off,,192,0,1,,,,,,0,67,64
268992,note_on,,0,0,1,,,,,,0,69,92
269184,note_on,,0,0,1,,,,,,0,67,92
269184,note_on,,0,0,2,,,,,,0,52,92
269184,note_on,,0,0,2,,,,,,0,60,92
269184,note_off,,0,0,2,,,,,,0,53,64
269184,note_off,,384,0,2,,,,,,0,59,64
269184,note_off,,192,0,1,,,,,,0,69,64
269376,note_off,,192,0,1,,,,,,0,67,64
269376,note_on,,0,0,1,,,,,,0,72,92
269376,note_off,,192,0,2,,,,,,0,60,64
269376,note_on,,0,0,2,,,,,,0,55,92
269568,note_off,,192,0,2,,,,,,0,55,64
269568,note_on,,0,0,2,,,,,,0,57,92
269568,note_on,,0,0,1,,,,,,0,65,92
269568,note_off,,192,0,1,,,,,,0,72,64
269760,note_on,,0,0,2,,,,,,0,60,92
269760,note_off,,192,0,2,,,,,,0,57,64
269952,note_off,,0,0,2,,,,,,0,52,64
269952,note_on,,0,0,2,,,,,,0,59,92
269952,note_on,,0,0,2,,,,,,0,50,92
269952,note_off,,192,0,2,,,,,,0,60,64
270144,note_off,,192,0,2,,,,,,0,59,64
270144,note_on,,0,0,2,,,,,,0,62,92
270336,note_off,,768,0,1,,,,,,0,65,64
270336,note_on,,0,0,1,,,,,,0,64,92
270336,note_off,,192,0,2,,,,,,0,62,64
270336,note_on,,0,0,2,,,,,,0,56,92
270720,note_off,,0,0,2,,,,,,0,50,64
270720,note_off,,384,0,2,,,,,,0,56,64
270720,note_on,,0,0,2,,,,,,0,48,92
270720,note_on,,0,0,2,,,,,,0,57,92
270720,note_on,,0,0,1,,,,,,0,76,92
270720,note_off,,384,0,1,,,,,,0,64,64
271104,note_on,,0,0,2,,,,,,0,47,92
271104,note_on,,0,0,1,,,,,,0,74,92
271104,note_off,,384,0,1,,,,,,0,76,64
271104,note_off,,384,0,2,,,,,,0,48,64
271488,note_off,,384,0,2,,,,,,0,57,64
271488,note_on,,0,0,1,,,,,,0,72,92
271488,note_on,,0,0,2,,,,,,0,56,92
271488,note_off,,384,0,1,,,,,,0,74,64
271680,note_on,,0,0,1,,,,,,0,71,92
271680,note_off,,192,0,1,,,,,,0,72,64
271872,note_off,,192,0,1,,,,,,0,71,64
271872,note_off,,0,0,2,,,,,,0,47,64
271872,note_on,,0,0,2,,,,,,0,57,92
271872,note_on,,0,0,1,,,,,,0,72,92
271872,note_on,,0,0,2,,,,,,0,45,92
271872,note_off,,384,0,2,,,,,,0,56,64
272256,note_off,,384,0,2,,,,,,0,57,64
272256,note_off,,0,0,2,,,,,,0,45,64
272256,note_on,,0,0,2,,,,,,0,57,92
272640,note_off,,768,0,1,,,,,,0,72,64
272640,note_on,,0,0,1,,,,,,0,70,92
273024,note_off,,768,0,2,,,,,,0,57,64
273024,note_on,,0,0,2,,,,,,0,55,92
273216,note_on,,0,0,2,,,,,,0,53,92
273216,note_off,,192,0,2,,,,,,0,55,64
273408,note_on,,0,0,2,,,,,,0,55,92
273408,note_off,,192,0,2,,,,,,0,53,64
273408,note_on,,768,0,1,,,,,,0,64,92
273792,note_off,,384,0,1,,,,,,0,70,64
273792,note_on,,0,0,1,,,,,,0,69,92
273792,note_on,,0,0,2,,,,,,0,48,92
273792,note_off,,384,0,2,,,,,,0,55,64
273984,note_off,,192,0,1,,,,,,0,69,64
273984,note_on,,0,0,1,,,,,,0,67,92
274176,note_on,,0,0,2,,,,,,0,53,92
274176,note_off,,384,0,2,,,,,,0,48,64
274176,note_off,,192,0,1,,,,,,0,67,64
274176,note_on,,0,0,1,,,,,,0,69,92
274560,note_on,,0,0,1,,,,,,0,62,92
274560,note_off,,0,0,1,,,,,,0,64,64
274560,note_off,,384,0,1,,,,,,0,69,64
274752,note_on,,192,0,1,,,,,,0,60,92
274944,note_on,,0,0,1,,,,,,0,67,92
274944,note_on,,0,0,1,,,,,,0,59,92
274944,note_off,,0,0,1,,,,,,0,62,64
274944,note_off,,192,0,1,,,,,,0,60,64
275328,note_off,,1152,0,2,,,,,,0,53,64
275328,note_on,,0,0,2,,,,,,0,52,92
275328,note_off,,384,0,1,,,,,,0,59,64
275328,note_on,,0,0,1,,,,,,0,61,92
275520,note_on,,0,0,1,,,,,,0,62,92
275520,note_off,,192,0,1,,,,,,0,61,64
275520,note_on,,0,0,2,,,,,,0,50,92
275520,note_off,,192,0,2,,,,,,0,52,64
275712,note_on,,0,0,1,,,,,,0,61,92
275712,note_on,,0,0,2,,,,,,0,52,92
275712,note_off,,192,0,2,,,,,,0,50,64
275712,note_off,,192,0,1,,,,,,0,62,64
276096,note_off,,384,0,1,,,,,,0,67,64
276096,note_off,,384,0,2,,,,,,0,52,64
276096,note_on,,0,0,2,,,,,,0,45,92
276096,note_on,,0,0,1,,,,,,0,65,92
276288,note_off,,192,0,1,,,,,,0,65,64
276288,note_on,,0,0,1,,,,,,0,64,92
276480,note_off,,384,0,2,,,,,,0,45,64
276480,note_on,,0,0,2,,,,,,0,50,92
276480,note_off,,192,0,1,,,,,,0,64,64
276480,note_off,,0,0,1,,,,,,0,61,64
276480,note_on,,0,0,1,,,,,,0,65,92
276480,note_on,,0,0,1,,,,,,0,62,92
276480,note_on,,29952,0,3,,,,,,0,38,102
276864,note_on,,0,0,1,,,,,,0,59,92
276864,note_off,,384,0,1,,,,,,0,65,64
277248,note_off,,768,0,3,,,,,,0,38,64
277248,note_on,,0,0,3,,,,,,0,40,102
277248,note_off,,0,0,1,,,,,,0,62,64
277248,note_off,,384,0,1,,,,,,0,59,64
277248,note_on,,768,0,2,,,,,,0,55,92
277248,note_on,,0,0,1,,,,,,0,64,92
277632,note_on,,0,0,2,,,,,,0,57,92
277632,note_on,,0,0,2,,,,,,0,49,92
277632,note_off,,0,0,2,,,,,,0,50,64
277632,note_off,,384,0,2,,,,,,0,55,64
277824,note_on,,0,0,2,,,,,,0,58,92
277824,note_off,,192,0,2,,,,,,0,57,64
278016,note_off,,768,0,3,,,,,,0,40,64
278016,note_on,,0,0,3,,,,,,0,41,102
278016,note_on,,0,0,2,,,,,,0,57,92
278016,note_on,,0,0,2,,,,,,0,50,92
278016,note_off,,192,0,2,,,,,,0,58,64
278016,note_off,,0,0,2,,,,,,0,49,64
278400,note_off,,384,0,3,,,,,,0,41,64
278400,note_on,,0,0,3,,,,,,0,38,102
278400,note_off,,1152,0,1,,,,,,0,64,64
278400,note_on,,0,0,1,,,,,,0,62,92
278592,note_off,,192,0,1,,,,,,0,62,64
278592,note_on,,0,0,1,,,,,,0,61,92
278784,note_off,,768,0,2,,,,,,0,57,64
278784,note_on,,0,0,2,,,,,,0,58,92
278784,note_on,,0,0,1,,,,,,0,62,92
278784,note_off,,384,0,3,,,,,,0,38,64
278784,note_on,,0,0,3,,,,,,0,43,102
278784,note_off,,192,0,1,,,,,,0,61,64
279168,note_on,,0,0,2,,,,,,0,57,92
279168,note_off,,0,0,2,,,,,,0,50,64
279168,note_on,,0,0,2,,,,,,0,52,92
279168,note_off,,384,0,2,,,,,,0,58,64
279360,note_off,,192,0,2,,,,,,0,57,64
279360,note_on,,0,0,2,,,,,,0,55,92
279552,note_on,,0,0,2,,,,,,0,53,92
279552,note_on,,0,0,2,,,,,,0,57,92
279552,note_off,,0,0,2,,,,,,0,52,64
279552,note_off,,192,0,2,,,,,,0,55,64
279936,note_on,,0,0,3,,,,,,0,41,102
279936,note_off,,1152,0,3,,,,,,0,43,64
279936,note_off,,384,0,2,,,,,,0,57,64
279936,note_on,,0,0,2,,,,,,0,50,92
280320,note_off,,384,0,3,,,,,,0,41,64
280320,note_off,,384,0,2,,,,,,0,50,64
280320,note_on,,0,0,3,,,,,,0,46,102
280320,note_off,,1536,0,1,,,,,,0,62,64
280320,note_on,,0,0,1,,,,,,0,62,92
280704,note_on,,0,0,1,,,,,,0,64,92
280704,note_on,,0,0,1,,,,,,0,60,92
280704,note_off,,384,0,2,,,,,,0,53,64
280704,note_on,,0,0,2,,,,,,0,55,92
280704,note_off,,384,0,1,,,,,,0,62,64
280896,note_off,,192,0,1,,,,,,0,60,64
280896,note_on,,0,0,1,,,,,,0,58,92
281088,note_on,,0,0,2,,,,,,0,57,92
281088,note_on,,0,0,1,,,,,,0,60,92
281088,note_off,,192,0,1,,,,,,0,58,64
281088,note_off,,0,0,1,,,,,,0,64,64
281088,note_off,,384,0,2,,,,,,0,55,64
281088,note_on,,0,0,1,,,,,,0,65,92
281472,note_on,,0,0,3,,,,,,0,45,102
281472,note_on,,0,0,1,,,,,,0,53,92
281472,note_off,,1152,0,3,,,,,,0,46,64
281472,note_off,,384,0,1,,,,,,0,60,64
281856,note_off,,384,0,1,,,,,,0,53,64
281856,note_off,,0,0,1,,,,,,0,65,64
281856,note_on,,0,0,1,,,,,,0,65,92
281856,note_on,,0,0,3,,,,,,0,50,102
281856,note_off,,384,0,3,,,,,,0,45,64
282240,note_off,,1152,0,2,,,,,,0,57,64
282240,note_on,,0,0,2,,,,,,0,58,92
282240,note_on,,384,0,1,,,,,,0,64,92
282432,note_off,,192,0,1,,,,,,0,64,64
282432,note_on,,0,0,1,,,,,,0,62,92
282624,note_off,,192,0,1,,,,,,0,62,64
282624,note_off,,384,0,2,,,,,,0,58,64
282624,note_on,,0,0,2,,,,,,0,55,92
282624,note_off,,0,0,1,,,,,,0,65,64
282624,note_on,,0,0,1,,,,,,0,70,92
282624,note_on,,0,0,1,,,,,,0,64,92
282816,note_on,,0,0,1,,,,,,0,65,92
282816,note_off,,192,0,1,,,,,,0,64,64
283008,note_off,,1152,0,3,,,,,,0,50,64
283008,note_off,,192,0,1,,,,,,0,65,64
283008,note_on,,0,0,3,,,,,,0,48,102
283008,note_on,,0,0,2,,,,,,0,57,92
283008,note_off,,384,0,2,,,,,,0,55,64
283008,note_on,,0,0,1,,,,,,0,72,92
283008,note_on,,0,0,1,,,,,,0,64,92
283008,note_off,,0,0,1,,,,,,0,70,64
283200,note_on,,0,0,1,,,,,,0,69,92
283200,note_off,,192,0,1,,,,,,0,64,64
283200,note_off,,192,0,2,,,,,,0,57,64
283200,note_on,,0,0,2,,,,,,0,52,92
283392,note_off,,192,0,1,,,,,,0,69,64
283392,note_on,,0,0,1,,,,,,0,69,92
283392,note_on,,0,0,1,,,,,,0,62,92
283392,note_off,,192,0,2,,,,,,0,52,64
283392,note_on,,0,0,2,,,,,,0,53,92
283392,note_off,,0,0,1,,,,,,0,72,64
283584,note_off,,192,0,1,,,,,,0,62,64
283584,note_on,,0,0,1,,,,,,0,64,92
283776,note_off,,768,0,3,,,,,,0,48,64
283776,note_on,,0,0,3,,,,,,0,46,102
283776,note_off,,384,0,2,,,,,,0,53,64
283776,note_on,,0,0,2,,,,,,0,55,92
283776,note_off,,0,0,1,,,,,,0,69,64
283776,note_on,,0,0,1,,,,,,0,62,92
283776,note_off,,192,0,1,,,,,,0,64,64
283776,note_on,,0,0,1,,,,,,0,70,92
283968,note_on,,0,0,2,,,,,,0,50,92
283968,note_off,,192,0,2,,,,,,0,55,64
283968,note_on,,0,0,1,,,,,,0,67,92
283968,note_off,,192,0,1,,,,,,0,62,64
284160,note_on,,0,0,1,,,,,,0,60,92
284160,note_off,,192,0,2,,,,,,0,50,64
284160,note_off,,0,0,1,,,,,,0,70,64
284160,note_on,,0,0,1,,,,,,0,67,92
284160,note_off,,192,0,1,,,,,,0,67,64
284160,note_on,,0,0,2,,,,,,0,52,92
284352,note_off,,192,0,1,,,,,,0,60,64
284352,note_on,,0,0,1,,,,,,0,62,92
284544,note_on,,0,0,3,,,,,,0,45,102
284544,note_off,,768,0,3,,,,,,0,46,64
284544,note_on,,0,0,1,,,,,,0,60,92
284544,note_on,,0,0,2,,,,,,0,53,92
284544,note_off,,192,0,1,,,,,,0,62,64
284544,note_off,,0,0,1,,,,,,0,67,64
284544,note_on,,0,0,1,,,,,,0,69,92
284544,note_off,,384,0,2,,,,,,0,52,64
284736,note_off,,192,0,1,,,,,,0,60,64
284736,note_on,,0,0,1,,,,,,0,65,92
284928,note_off,,192,0,1,,,,,,0,65,64
284928,note_off,,0,0,1,,,,,,0,69,64
284928,note_on,,0,0,1,,,,,,0,58,92
284928,note_on,,0,0,1,,,,,,0,62,92
285120,note_off,,192,0,1,,,,,,0,62,64
285120,note_on,,0,0,1,,,,,,0,65,92
285312,note_on,,0,0,3,,,,,,0,43,102
285312,note_off,,768,0,3,,,,,,0,45,64
285312,note_off,,192,0,1,,,,,,0,65,64
285312,note_on,,0,0,2,,,,,,0,55,92
285312,note_off,,768,0,2,,,,,,0,53,64
285312,note_on,,0,0,1,,,,,,0,64,92
285504,note_off,,192,0,1,,,,,,0,64,64
285504,note_on,,0,0,1,,,,,,0,67,92
285504,note_on,,0,0,2,,,,,,0,53,92
285504,note_off,,192,0,2,,,,,,0,55,64
285696,note_off,,192,0,1,,,,,,0,67,64
285696,note_off,,0,0,1,,,,,,0,58,64
285696,note_on,,0,0,1,,,,,,0,57,92
285696,note_on,,0,0,1,,,,,,0,61,92
285696,note_on,,0,0,2,,,,,,0,52,92
285696,note_off,,192,0,2,,,,,,0,53,64
286080,note_on,,0,0,2,,,,,,0,50,92
286080,note_off,,384,0,2,,,,,,0,52,64
286080,note_on,,0,0,3,,,,,,0,41,102
286080,note_off,,768,0,3,,,,,,0,43,64
286080,note_on,,0,0,1,,,,,,0,69,92
286080,note_off,,384,0,1,,,,,,0,61,64
286464,note_off,,384,0,3,,,,,,0,41,64
286464,note_on,,0,0,3,,,,,,0,40,102
286464,note_on,,0,0,1,,,,,,0,67,92
286464,note_on,,0,0,1,,,,,,0,58,92
286464,note_off,,0,0,1,,,,,,0,57,64
286464,note_off,,384,0,1,,,,,,0,69,64
286848,note_on,,0,0,2,,,,,,0,49,92
286848,note_on,,0,0,1,,,,,,0,65,92
286848,note_on,,0,0,1,,,,,,0,57,92
286848,note_off,,0,0,1,,,,,,0,58,64
286848,note_off,,384,0,1,,,,,,0,67,64
286848,note_off,,768,0,2,,,,,,0,50,64
286848,note_off,,384,0,3,,,,,,0,40,64
286848,note_on,,0,0,3,,,,,,0,45,102
287040,note_off,,192,0,1,,,,,,0,65,64
287040,note_on,,0,0,1,,,,,,0,64,92
287232,note_on,,0,0,3,,,,,,0,38,102
287232,note_off,,384,0,3,,,,,,0,45,64
287232,note_off,,192,0,1,,,,,,0,64,64
287232,note_on,,0,0,1,,,,,,0,65,92
287232,note_on,,0,0,2,,,,,,0,50,92
287232,note_off,,384,0,2,,,,,,0,49,64
287616,note_on,,0,0,1,,,,,,0,65,92
287616,note_off,,384,0,2,,,,,,0,50,64
287616,note_off,,384,0,1,,,,,,0,65,64
287616,note_off,,0,0,1,,,,,,0,57,64
287616,note_on,,0,0,1,,,,,,0,74,92
288000,note_on,,0,0,3,,,,,,0,57,102
288000,note_off,,768,0,3,,,,,,0,38,64
288384,note_off,,768,0,1,,,,,,0,74,64
288384,note_off,,0,0,1,,,,,,0,65,64
288384,note_on,,0,0,1,,,,,,0,64,92
288384,note_on,,0,0,1,,,,,,0,72,92
288576,note_off,,192,0,1,,,,,,0,72,64
288576,note_off,,0,0,1,,,,,,0,64,64
288576,note_on,,0,0,1,,,,,,0,62,92
288576,note_on,,0,0,1,,,,,,0,71,92
288768,note_on,,1152,0,2,,,,,,0,57,92
288768,note_on,,0,0,1,,,,,,0,72,92
288768,note_on,,0,0,1,,,,,,0,64,92
288768,note_off,,0,0,1,,,,,,0,62,64
288768,note_off,,192,0,1,,,,,,0,71,64
289152,note_off,,0,0,1,,,,,,0,64,64
289152,note_off,,384,0,1,,,,,,0,72,64
289152,note_off,,1152,0,3,,,,,,0,57,64
289152,note_on,,0,0,3,,,,,,0,55,102
289152,note_on,,0,0,1,,,,,,0,65,92
289344,note_on,,0,0,3,,,,,,0,53,102
289344,note_off,,192,0,3,,,,,,0,55,64
289536,note_on,,0,0,3,,,,,,0,55,102
289536,note_on,,384,0,1,,,,,,0,70,92
289536,note_off,,192,0,3,,,,,,0,53,64
289920,note_on,,0,0,2,,,,,,0,55,92
289920,note_off,,1152,0,2,,,,,,0,57,64
289920,note_off,,384,0,3,,,,,,0,55,64
289920,note_on,,0,0,1,,,,,,0,64,92
289920,note_off,,384,0,1,,,,,,0,65,64
289920,note_on,,0,0,3,,,,,,0,48,102
290112,note_on,,0,0,2,,,,,,0,53,92
290112,note_off,,192,0,2,,,,,,0,55,64
290304,note_off,,384,0,3,,,,,,0,48,64
290304,note_on,,0,0,3,,,,,,0,53,102
290304,note_on,,0,0,2,,,,,,0,55,92
290304,note_off,,192,0,2,,,,,,0,53,64
290688,note_off,,384,0,2,,,,,,0,55,64
290688,note_on,,0,0,2,,,,,,0,48,92
290688,note_on,,0,0,1,,,,,,0,65,92
290688,note_off,,0,0,1,,,,,,0,70,64
290688,note_off,,768,0,1,,,,,,0,64,64
290688,note_on,,0,0,1,,,,,,0,69,92
290880,note_on,,0,0,1,,,,,,0,67,92
290880,note_on,,0,0,1,,,,,,0,64,92
290880,note_off,,0,0,1,,,,,,0,65,64
290880,note_off,,192,0,1,,,,,,0,69,64
291072,note_off,,192,0,1,,,,,,0,67,64
291072,note_on,,0,0,1,,,,,,0,65,92
291072,note_off,,384,0,2,,,,,,0,48,64
291072,note_on,,0,0,1,,,,,,0,69,92
291072,note_on,,0,0,2,,,,,,0,53,92
291072,note_off,,0,0,1,,,,,,0,64,64
291456,note_off,,384,0,1,,,,,,0,69,64
291456,note_off,,1152,0,3,,,,,,0,53,64
291456,note_on,,0,0,3,,,,,,0,52,102
291456,note_on,,0,0,1,,,,,,0,62,92
291648,note_off,,192,0,3,,,,,,0,52,64
291648,note_on,,0,0,3,,,,,,0,50,102
291840,note_off,,384,0,1,,,,,,0,62,64
291840,note_off,,0,0,1,,,,,,0,65,64
291840,note_on,,0,0,1,,,,,,0,67,92
291840,note_on,,0,0,1,,,,,,0,59,92
291840,note_off,,192,0,3,,,,,,0,50,64
291840,note_on,,0,0,3,,,,,,0,52,102
292224,note_off,,384,0,3,,,,,,0,52,64
292224,note_on,,0,0,3,,,,,,0,45,102
292224,note_off,,1152,0,2,,,,,,0,53,64
292224,note_on,,0,0,2,,,,,,0,52,92
292224,note_on,,0,0,1,,,,,,0,61,92
292224,note_off,,384,0,1,,,,,,0,59,64
292416,note_off,,192,0,2,,,,,,0,52,64
292416,note_on,,0,0,2,,,,,,0,50,92
292608,note_off,,384,0,3,,,,,,0,45,64
292608,note_on,,0,0,3,,,,,,0,50,102
292608,note_off,,192,0,2,,,,,,0,50,64
292608,note_on,,0,0,2,,,,,,0,52,92
292992,note_off,,384,0,2,,,,,,0,52,64
292992,note_off,,0,0,1,,,,,,0,67,64
292992,note_on,,0,0,1,,,,,,0,62,92
292992,note_on,,0,0,1,,,,,,0,65,92
292992,note_off,,768,0,1,,,,,,0,61,64
292992,note_on,,0,0,2,,,,,,0,45,92
293184,note_on,,0,0,1,,,,,,0,64,92
293184,note_off,,0,0,1,,,,,,0,62,64
293184,note_off,,192,0,1,,,,,,0,65,64
293184,note_on,,0,0,1,,,,,,0,61,92
293376,note_off,,192,0,1,,,,,,0,64,64
293376,note_off,,0,0,1,,,,,,0,61,64
293376,note_on,,0,0,1,,,,,,0,62,92
293376,note_on,,0,0,1,,,,,,0,65,92
293376,note_off,,384,0,2,,,,,,0,45,64
293376,note_on,,0,0,2,,,,,,0,50,92
293760,note_on,,0,0,3,,,,,,0,48,102
293760,note_off,,1152,0,3,,,,,,0,50,64
293760,note_off,,384,0,2,,,,,,0,50,64
293760,note_off,,384,0,1,,,,,,0,65,64
293760,note_on,,0,0,2,,,,,,0,55,92
293760,note_on,,0,0,1,,,,,,0,70,92
293952,note_off,,192,0,3,,,,,,0,48,64
293952,note_on,,0,0,3,,,,,,0,46,102
294144,note_off,,192,0,3,,,,,,0,46,64
294144,note_on,,0,0,3,,,,,,0,48,102
294144,note_on,,0,0,1,,,,,,0,64,92
294144,note_off,,384,0,1,,,,,,0,70,64
294144,note_off,,0,0,1,,,,,,0,62,64
294144,note_on,,0,0,1,,,,,,0,60,92
294528,note_on,,0,0,1,,,,,,0,69,92
294528,note_on,,0,0,3,,,,,,0,41,102
294528,note_off,,384,0,3,,,,,,0,48,64
294528,note_off,,384,0,1,,,,,,0,64,64
294528,note_on,,0,0,2,,,,,,0,53,92
294528,note_off,,768,0,2,,,,,,0,55,64
294720,note_off,,192,0,2,,,,,,0,53,64
294720,note_on,,0,0,2,,,,,,0,52,92
294912,note_on,,0,0,3,,,,,,0,46,102
294912,note_on,,0,0,2,,,,,,0,50,92
294912,note_off,,192,0,2,,,,,,0,52,64
294912,note_off,,384,0,1,,,,,,0,60,64
294912,note_off,,384,0,3,,,,,,0,41,64
294912,note_on,,0,0,1,,,,,,0,62,92
295104,note_off,,192,0,2,,,,,,0,50,64
295104,note_on,,0,0,2,,,,,,0,53,92
295296,note_on,,0,0,2,,,,,,0,58,92
295296,note_off,,192,0,2,,,,,,0,53,64
295296,note_off,,384,0,1,,,,,,0,69,64
295296,note_on,,0,0,1,,,,,,0,67,92
295488,note_off,,192,0,1,,,,,,0,67,64
295488,note_off,,192,0,2,,,,,,0,58,64
295488,note_on,,0,0,1,,,,,,0,65,92
295488,note_on,,0,0,2,,,,,,0,57,92
295680,note_off,,0,0,1,,,,,,0,62,64
295680,note_on,,0,0,1,,,,,,0,72,92
295680,note_on,,0,0,2,,,,,,0,55,92
295680,note_off,,192,0,2,,,,,,0,57,64
295680,note_off,,192,0,1,,,,,,0,65,64
295680,note_on,,0,0,1,,,,,,0,64,92
295872,note_on,,0,0,2,,,,,,0,48,92
295872,note_off,,192,0,2,,,,,,0,55,64
296064,note_on,,0,0,3,,,,,,0,45,102
296064,note_off,,1152,0,3,,,,,,0,46,64
296064,note_on,,0,0,2,,,,,,0,60,92
296064,note_off,,192,0,2,,,,,,0,48,64
296256,note_on,,0,0,2,,,,,,0,58,92
296256,note_off,,192,0,2,,,,,,0,60,64
296448,note_on,,0,0,3,,,,,,0,50,102
296448,note_on,,0,0,2,,,,,,0,57,92
296448,note_off,,192,0,2,,,,,,0,58,64
296448,note_off,,768,0,1,,,,,,0,64,64
296448,note_on,,0,0,1,,,,,,0,65,92
296448,note_off,,384,0,3,,,,,,0,45,64
296640,note_off,,192,0,2,,,,,,0,57,64
296640,note_on,,0,0,2,,,,,,0,50,92
296832,note_off,,192,0,2,,,,,,0,50,64
296832,note_on,,0,0,1,,,,,,0,71,92
296832,note_off,,384,0,1,,,,,,0,72,64
296832,note_on,,0,0,2,,,,,,0,62,92
297024,note_on,,0,0,1,,,,,,0,69,92
297024,note_off,,192,0,2,,,,,,0,62,64
297024,note_off,,192,0,1,,,,,,0,71,64
297024,note_on,,0,0,2,,,,,,0,60,92
297216,note_on,,0,0,2,,,,,,0,59,92
297216,note_on,,0,0,1,,,,,,0,77,92
297216,note_off,,192,0,1,,,,,,0,69,64
297216,note_off,,192,0,2,,,,,,0,60,64
297600,note_on,,0,0,1,,,,,,0,67,92
297600,note_off,,384,0,1,,,,,,0,65,64
297600,note_off,,1152,0,3,,,,,,0,50,64
297600,note_on,,0,0,3,,,,,,0,43,102
297984,note_off,,384,0,3,,,,,,0,43,64
297984,note_on,,0,0,1,,,,,,0,69,92
297984,note_on,,0,0,3,,,,,,0,48,102
297984,note_off,,384,0,1,,,,,,0,67,64
297984,note_on,,0,0,2,,,,,,0,60,92
297984,note_off,,768,0,2,,,,,,0,59,64
298368,note_off,,384,0,1,,,,,,0,69,64
298368,note_off,,0,0,1,,,,,,0,77,64
298368,note_on,,0,0,1,,,,,,0,67,92
298368,note_on,,0,0,1,,,,,,0,76,92
298560,note_on,,0,0,2,,,,,,0,58,92
298560,note_off,,576,0,2,,,,,,0,60,64
298752,note_on,,0,0,2,,,,,,0,57,92
298752,note_off,,192,0,2,,,,,,0,58,64
298752,note_on,,0,0,3,,,,,,0,53,102
298752,note_off,,768,0,3,,,,,,0,48,64
299136,note_off,,0,0,1,,,,,,0,67,64
299136,note_on,,0,0,1,,,,,,0,65,92
299136,note_on,,0,0,1,,,,,,0,74,92
299136,note_off,,768,0,1,,,,,,0,76,64
299328,note_on,,0,0,1,,,,,,0,64,92
299328,note_off,,0,0,1,,,,,,0,65,64
299328,note_off,,192,0,1,,,,,,0,74,64
299328,note_on,,0,0,1,,,,,,0,72,92
299520,note_on,,0,0,2,,,,,,0,59,92
299520,note_off,,0,0,1,,,,,,0,64,64
299520,note_on,,0,0,1,,,,,,0,74,92
299520,note_off,,768,0,2,,,,,,0,57,64
299520,note_off,,192,0,1,,,,,,0,72,64
299520,note_on,,0,0,1,,,,,,0,62,92
299904,note_on,,0,0,1,,,,,,0,67,92
299904,note_on,,0,0,3,,,,,,0,52,102
299904,note_off,,1152,0,3,,,,,,0,53,64
299904,note_off,,384,0,1,,,,,,0,74,64
299904,note_off,,0,0,1,,,,,,0,62,64
300096,note_on,,0,0,3,,,,,,0,50,102
300096,note_off,,192,0,3,,,,,,0,52,64
300288,note_off,,768,0,2,,,,,,0,59,64
300288,note_on,,0,0,2,,,,,,0,60,92
300288,note_on,,384,0,1,,,,,,0,72,92
300288,note_on,,0,0,3,,,,,,0,52,102
300288,note_off,,192,0,3,,,,,,0,50,64
300672,note_on,,0,0,3,,,,,,0,45,102
300672,note_on,,0,0,1,,,,,,0,65,92
300672,note_off,,384,0,1,,,,,,0,67,64
300672,note_off,,384,0,3,,,,,,0,52,64
300864,note_on,,0,0,1,,,,,,0,64,92
300864,note_off,,192,0,1,,,,,,0,65,64
301056,note_off,,384,0,3,,,,,,0,45,64
301056,note_on,,0,0,3,,,,,,0,50,102
301056,note_on,,0,0,1,,,,,,0,65,92
301056,note_on,,0,0,2,,,,,,0,53,92
301056,note_off,,768,0,2,,,,,,0,60,64
301056,note_off,,192,0,1,,,,,,0,64,64
301440,note_on,,0,0,1,,,,,,0,58,92
301440,note_off,,0,0,1,,,,,,0,72,64
301440,note_on,,0,0,1,,,,,,0,70,92
301440,note_off,,384,0,1,,,,,,0,65,64
301632,note_off,,192,0,1,,,,,,0,70,64
301632,note_on,,0,0,1,,,,,,0,69,92
301824,note_on,,0,0,2,,,,,,0,55,92
301824,note_off,,768,0,2,,,,,,0,53,64
301824,note_off,,192,0,1,,,,,,0,69,64
301824,note_off,,0,0,1,,,,,,0,58,64
301824,note_on,,0,0,1,,,,,,0,64,92
301824,note_on,,0,0,1,,,,,,0,70,92
302208,note_off,,1152,0,3,,,,,,0,50,64
302208,note_on,,0,0,3,,,,,,0,48,102
302208,note_off,,384,0,1,,,,,,0,70,64
302208,note_off,,0,0,1,,,,,,0,64,64
302208,note_on,,0,0,1,,,,,,0,64,92
302400,note_off,,192,0,3,,,,,,0,48,64
302400,note_on,,0,0,3,,,,,,0,46,102
302592,note_on,,384,0,1,,,,,,0,69,92
302592,note_off,,768,0,2,,,,,,0,55,64
302592,note_on,,0,0,2,,,,,,0,57,92
302592,note_off,,192,0,3,,,,,,0,46,64
302592,note_on,,0,0,3,,,,,,0,48,102
302976,note_off,,384,0,1,,,,,,0,64,64
302976,note_on,,0,0,1,,,,,,0,62,92
302976,note_on,,0,0,3,,,,,,0,41,102
302976,note_off,,384,0,3,,,,,,0,48,64
303168,note_on,,0,0,1,,,,,,0,60,92
303168,note_off,,192,0,1,,,,,,0,62,64
303360,note_off,,192,0,1,,,,,,0,60,64
303360,note_off,,384,0,3,,,,,,0,41,64
303360,note_on,,0,0,3,,,,,,0,46,102
303360,note_on,,0,0,2,,,,,,0,50,92
303360,note_on,,0,0,1,,,,,,0,62,92
303360,note_off,,768,0,2,,,,,,0,57,64
303744,note_off,,0,0,1,,,,,,0,69,64
303744,note_off,,384,0,1,,,,,,0,62,64
303744,note_on,,0,0,1,,,,,,0,55,92
303744,note_on,,0,0,1,,,,,,0,67,92
303936,note_on,,0,0,1,,,,,,0,65,92
303936,note_off,,192,0,1,,,,,,0,67,64
304128,note_off,,768,0,2,,,,,,0,50,64
304128,note_on,,0,0,2,,,,,,0,52,92
304128,note_on,,0,0,1,,,,,,0,67,92
304128,note_on,,0,0,1,,,,,,0,60,92
304128,note_off,,0,0,1,,,,,,0,55,64
304128,note_off,,192,0,1,,,,,,0,65,64
304512,note_on,,0,0,1,,,,,,0,60,92
304512,note_off,,0,0,1,,,,,,0,60,64
304512,note_off,,384,0,1,,,,,,0,67,64
304512,note_on,,0,0,3,,,,,,0,45,102
304512,note_off,,1152,0,3,,,,,,0,46,64
304704,note_on,,0,0,3,,,,,,0,43,102
304704,note_off,,192,0,3,,,,,,0,45,64
304896,note_off,,192,0,3,,,,,,0,43,64
304896,note_off,,768,0,2,,,,,,0,52,64
304896,note_on,,0,0,3,,,,,,0,45,102
304896,note_on,,384,0,1,,,,,,0,65,92
304896,note_on,,0,0,2,,,,,,0,53,92
305280,note_off,,384,0,3,,,,,,0,45,64
305280,note_on,,0,0,3,,,,,,0,38,102
305280,note_off,,384,0,1,,,,,,0,60,64
305280,note_on,,0,0,1,,,,,,0,58,92
305472,note_on,,0,0,1,,,,,,0,57,92
305472,note_off,,192,0,1,,,,,,0,58,64
305664,note_off,,192,0,1,,,,,,0,57,64
305664,note_on,,0,0,1,,,,,,0,58,92
305664,note_on,,0,0,3,,,,,,0,43,102
305664,note_on,,0,0,2,,,,,,0,50,92
305664,note_off,,384,0,3,,,,,,0,38,64
305664,note_off,,768,0,2,,,,,,0,53,64
306048,note_off,,384,0,1,,,,,,0,65,64
306048,note_on,,0,0,1,,,,,,0,64,92
306240,note_off,,192,0,1,,,,,,0,64,64
306240,note_on,,0,0,1,,,,,,0,62,92
306432,note_on,,0,0,3,,,,,,0,36,102
306432,note_off,,192,0,1,,,,,,0,62,64
306432,note_on,,0,0,1,,,,,,0,64,92
306432,note_on,,0,0,2,,,,,,0,48,92
306432,note_off,,768,0,3,,,,,,0,43,64
306432,note_off,,768,0,2,,,,,,0,50,64
306816,note_on,,0,0,1,,,,,,0,57,92
306816,note_off,,384,0,1,,,,,,0,58,64
307008,note_off,,192,0,1,,,,,,0,57,64
307008,note_on,,0,0,1,,,,,,0,55,92
307200,note_off,,768,0,3,,,,,,0,36,64
307200,note_on,,0,0,3,,,,,,0,41,102
307200,note_off,,0,0,1,,,,,,0,64,64
307200,note_on,,0,0,1,,,,,,0,57,92
307200,note_off,,192,0,1,,,,,,0,55,64
307200,note_on,,0,0,1,,,,,,0,65,92
307584,note_off,,1152,0,2,,,,,,0,48,64
307584,note_on,,0,0,2,,,,,,0,53,92
307968,note_off,,768,0,1,,,,,,0,65,64
307968,note_off,,768,0,3,,,,,,0,41,64
307968,note_off,,0,0,1,,,,,,0,57,64
307968,note_on,,0,0,1,,,,,,0,67,92
308352,note_off,,768,0,2,,,,,,0,53,64
308352,note_on,,0,0,2,,,,,,0,52,92
308736,note_on,,768,0,3,,,,,,0,41,102
308736,note_off,,768,0,1,,,,,,0,67,64
308736,note_on,,0,0,1,,,,,,0,69,92
308736,note_on,,0,0,2,,,,,,0,53,92
308736,note_off,,384,0,2,,,,,,0,52,64
308928,note_on,,0,0,2,,,,,,0,48,92
308928,note_off,,192,0,2,,,,,,0,53,64
309120,note_off,,192,0,2,,,,,,0,48,64
309120,note_off,,384,0,1,,,,,,0,69,64
309120,note_on,,0,0,1,,,,,,0,65,92
309120,note_on,,0,0,2,,,,,,0,57,92
309504,note_on,,0,0,3,,,,,,0,43,102
309504,note_on,,384,0,1,,,,,,0,70,92
309504,note_off,,768,0,3,,,,,,0,41,64
309888,note_off,,768,0,2,,,,,,0,57,64
309888,note_on,,0,0,2,,,,,,0,55,92
309888,note_off,,384,0,1,,,,,,0,65,64
309888,note_on,,0,0,1,,,,,,0,64,92
310080,note_off,,192,0,1,,,,,,0,64,64
310080,note_on,,0,0,1,,,,,,0,62,92
310080,note_off,,192,0,2,,,,,,0,55,64
310080,note_on,,0,0,2,,,,,,0,53,92
310272,note_on,,0,0,2,,,,,,0,52,92
310272,note_off,,768,0,3,,,,,,0,43,64
310272,note_off,,192,0,1,,,,,,0,62,64
310272,note_on,,0,0,1,,,,,,0,60,92
310272,note_off,,192,0,2,,,,,,0,53,64
310272,note_on,,0,0,3,,,,,,0,45,102
310464,note_off,,192,0,1,,,,,,0,60,64
310464,note_off,,192,0,2,,,,,,0,52,64
310464,note_on,,0,0,2,,,,,,0,55,92
310464,note_on,,0,0,1,,,,,,0,64,92
310656,note_off,,192,0,1,,,,,,0,64,64
310656,note_on,,0,0,1,,,,,,0,69,92
310656,note_off,,192,0,2,,,,,,0,55,64
310656,note_on,,0,0,3,,,,,,0,41,102
310656,note_off,,384,0,3,,,,,,0,45,64
310656,note_on,,0,0,2,,,,,,0,53,92
310656,note_off,,0,0,1,,,,,,0,70,64
310848,note_on,,0,0,2,,,,,,0,52,92
310848,note_off,,192,0,2,,,,,,0,53,64
311040,note_on,,0,0,2,,,,,,0,50,92
311040,note_off,,384,0,3,,,,,,0,41,64
311040,note_on,,384,0,1,,,,,,0,74,92
311040,note_on,,0,0,3,,,,,,0,46,102
311040,note_off,,192,0,2,,,,,,0,52,64
311232,note_off,,192,0,2,,,,,,0,50,64
311232,note_on,,0,0,2,,,,,,0,53,92
311424,note_off,,384,0,1,,,,,,0,69,64
311424,note_on,,0,0,1,,,,,,0,67,92
311424,note_off,,192,0,2,,,,,,0,53,64
311424,note_on,,0,0,2,,,,,,0,58,92
311616,note_on,,0,0,2,,,,,,0,57,92
311616,note_off,,192,0,2,,,,,,0,58,64
311616,note_off,,192,0,1,,,,,,0,67,64
311616,note_on,,0,0,1,,,,,,0,65,92
311808,note_on,,0,0,2,,,,,,0,55,92
311808,note_off,,192,0,2,,,,,,0,57,64
311808,note_off,,192,0,1,,,,,,0,65,64
311808,note_on,,0,0,1,,,,,,0,64,92
312000,note_off,,192,0,1,,,,,,0,64,64
312000,note_on,,0,0,1,,,,,,0,67,92
312192,note_on,,0,0,1,,,,,,0,72,92
312192,note_off,,1152,0,3,,,,,,0,46,64
312192,note_on,,0,0,3,,,,,,0,45,102
312192,note_off,,192,0,1,,,,,,0,67,64
312192,note_off,,0,0,1,,,,,,0,74,64
312384,note_on,,0,0,2,,,,,,0,67,92
312384,note_off,,576,0,2,,,,,,0,55,64
312576,note_on,,384,0,1,,,,,,0,77,92
312576,note_on,,0,0,2,,,,,,0,65,92
312576,note_off,,384,0,3,,,,,,0,45,64
312576,note_on,,0,0,3,,,,,,0,50,102
312576,note_off,,192,0,2,,,,,,0,67,64
312768,note_off,,192,0,2,,,,,,0,65,64
312768,note_on,,0,0,2,,,,,,0,64,92
312960,note_off,,384,0,1,,,,,,0,72,64
312960,note_on,,0,0,1,,,,,,0,70,92
312960,note_off,,192,0,2,,,,,,0,64,64
312960,note_on,,0,0,2,,,,,,0,62,92
313152,note_on,,0,0,2,,,,,,0,60,92
313152,note_off,,192,0,2,,,,,,0,62,64
313152,note_on,,0,0,1,,,,,,0,69,92
313152,note_off,,192,0,1,,,,,,0,70,64
313344,note_on,,0,0,1,,,,,,0,67,92
313344,note_off,,192,0,1,,,,,,0,69,64
313344,note_off,,192,0,2,,,,,,0,60,64
313344,note_on,,0,0,2,,,,,,0,58,92
313536,note_off,,192,0,1,,,,,,0,67,64
313536,note_on,,0,0,1,,,,,,0,65,92
313728,note_on,,0,0,1,,,,,,0,67,92
313728,note_off,,0,0,1,,,,,,0,77,64
313728,note_off,,192,0,1,,,,,,0,65,64
313728,note_off,,1152,0,3,,,,,,0,50,64
313728,note_on,,0,0,3,,,,,,0,48,102
313728,note_on,,0,0,1,,,,,,0,76,92
313920,note_off,,576,0,2,,,,,,0,58,64
313920,note_on,,0,0,2,,,,,,0,58,92
314112,note_on,,0,0,3,,,,,,0,53,102
314112,note_off,,384,0,3,,,,,,0,48,64
314112,note_off,,192,0,2,,,,,,0,58,64
314112,note_on,,0,0,2,,,,,,0,57,92
314304,note_off,,192,0,2,,,,,,0,57,64
314304,note_on,,0,0,2,,,,,,0,58,92
314496,note_on,,0,0,2,,,,,,0,57,92
314496,note_off,,192,0,2,,,,,,0,58,64
314496,note_off,,768,0,1,,,,,,0,76,64
314496,note_off,,0,0,1,,,,,,0,67,64
314496,note_on,,0,0,1,,,,,,0,65,92
314496,note_on,,0,0,1,,,,,,0,74,92
314688,note_on,,0,0,2,,,,,,0,62,92
314688,note_off,,192,0,2,,,,,,0,57,64
314880,note_on,,0,0,2,,,,,,0,55,92
314880,note_off,,192,0,2,,,,,,0,62,64
314880,note_off,,384,0,1,,,,,,0,65,64
314880,note_on,,0,0,1,,,,,,0,70,92
315072,note_off,,192,0,2,,,,,,0,55,64
315072,note_on,,0,0,2,,,,,,0,57,92
315264,note_off,,384,0,1,,,,,,0,74,64
315264,note_on,,0,0,1,,,,,,0,72,92
315264,note_off,,1152,0,3,,,,,,0,53,64
315264,note_on,,0,0,2,,,,,,0,55,92
315264,note_off,,192,0,2,,,,,,0,57,64
315264,note_on,,0,0,3,,,,,,0,52,102
315456,note_off,,192,0,2,,,,,,0,55,64
315456,note_on,,0,0,2,,,,,,0,60,92
315648,note_off,,384,0,1,,,,,,0,70,64
315648,note_on,,0,0,1,,,,,,0,69,92
315648,note_off,,192,0,2,,,,,,0,60,64
315648,note_on,,0,0,2,,,,,,0,53,92
315840,note_off,,192,0,2,,,,,,0,53,64
315840,note_on,,0,0,2,,,,,,0,55,92
316032,note_on,,0,0,2,,,,,,0,53,92
316032,note_off,,192,0,2,,,,,,0,55,64
316032,note_on,,0,0,1,,,,,,0,70,92
316032,note_on,,0,0,3,,,,,,0,50,102
316032,note_off,,384,0,1,,,,,,0,72,64
316032,note_off,,768,0,3,,,,,,0,52,64
316224,note_off,,192,0,2,,,,,,0,53,64
316224,note_on,,0,0,2,,,,,,0,58,92
316416,note_on,,0,0,1,,,,,,0,67,92
316416,note_on,,0,0,2,,,,,,0,52,92
316416,note_off,,192,0,2,,,,,,0,58,64
316416,note_off,,384,0,1,,,,,,0,69,64
316608,note_off,,192,0,2,,,,,,0,52,64
316608,note_on,,0,0,2,,,,,,0,55,92
316800,note_off,,192,0,2,,,,,,0,55,64
316800,note_on,,0,0,3,,,,,,0,48,102
316800,note_off,,768,0,3,,,,,,0,50,64
316800,note_on,,0,0,1,,,,,,0,69,92
316800,note_off,,384,0,1,,,,,,0,70,64
316800,note_on,,0,0,2,,,,,,0,53,92
316992,note_off,,192,0,2,,,,,,0,53,64
316992,note_on,,0,0,2,,,,,,0,57,92
316992,note_off,,192,0,1,,,,,,0,67,64
316992,note_on,,0,0,1,,,,,,0,65,92
317184,note_off,,192,0,1,,,,,,0,69,64
317184,note_on,,0,0,2,,,,,,0,50,92
317184,note_on,,0,0,1,,,,,,0,67,92
317184,note_off,,192,0,2,,,,,,0,57,64
317376,note_off,,192,0,1,,,,,,0,65,64
317376,note_off,,192,0,2,,,,,,0,50,64
317376,note_on,,0,0,2,,,,,,0,53,92
317376,note_on,,0,0,1,,,,,,0,62,92
317568,note_on,,0,0,1,,,,,,0,60,92
317568,note_on,,0,0,2,,,,,,0,52,92
317568,note_off,,192,0,2,,,,,,0,53,64
317568,note_off,,768,0,3,,,,,,0,48,64
317568,note_on,,0,0,3,,,,,,0,46,102
317568,note_off,,192,0,1,,,,,,0,62,64
317760,note_off,,192,0,2,,,,,,0,52,64
317760,note_on,,0,0,2,,,,,,0,55,92
317952,note_off,,384,0,1,,,,,,0,67,64
317952,note_on,,0,0,1,,,,,,0,65,92
317952,note_off,,192,0,2,,,,,,0,55,64
317952,note_on,,0,0,2,,,,,,0,48,92
318144,note_off,,192,0,1,,,,,,0,60,64
318144,note_on,,0,0,1,,,,,,0,62,92
318336,note_off,,192,0,1,,,,,,0,62,64
318336,note_off,,384,0,2,,,,,,0,48,64
318336,note_on,,0,0,3,,,,,,0,45,102
318336,note_off,,768,0,3,,,,,,0,46,64
318336,note_on,,0,0,2,,,,,,0,60,92
318336,note_on,,0,0,1,,,,,,0,63,92
318720,note_on,,0,0,3,,,,,,0,50,102
318720,note_off,,384,0,3,,,,,,0,45,64
319104,note_off,,0,0,1,,,,,,0,65,64
319104,note_on,,0,0,1,,,,,,0,62,92
319104,note_on,,0,0,2,,,,,,0,58,92
319104,note_on,,0,0,1,,,,,,0,67,92
319104,note_off,,768,0,1,,,,,,0,63,64
319104,note_off,,768,0,2,,,,,,0,60,64
319296,note_off,,192,0,2,,,,,,0,58,64
319296,note_on,,0,0,2,,,,,,0,60,92
319296,note_on,,0,0,1,,,,,,0,63,92
319296,note_off,,192,0,1,,,,,,0,67,64
319296,note_off,,0,0,1,,,,,,0,62,64
319296,note_on,,0,0,1,,,,,,0,69,92
319488,note_off,,192,0,2,,,,,,0,60,64
319488,note_on,,0,0,2,,,,,,0,62,92
319488,note_off,,192,0,1,,,,,,0,69,64
319488,note_on,,0,0,1,,,,,,0,70,92
319488,note_off,,0,0,1,,,,,,0,63,64
319488,note_on,,0,0,1,,,,,,0,65,92
319872,note_off,,1152,0,3,,,,,,0,50,64
319872,note_on,,0,0,3,,,,,,0,48,102
320064,note_off,,192,0,3,,,,,,0,48,64
320064,note_on,,0,0,3,,,,,,0,46,102
320256,note_off,,192,0,3,,,,,,0,46,64
320256,note_on,,0,0,3,,,,,,0,53,102
320640,note_off,,1152,0,1,,,,,,0,70,64
320640,note_on,,0,0,2,,,,,,0,60,92
320640,note_off,,0,0,1,,,,,,0,65,64
320640,note_off,,1152,0,2,,,,,,0,62,64
320640,note_on,,0,0,1,,,,,,0,69,92
320640,note_on,,0,0,1,,,,,,0,65,92
320832,note_off,,0,0,1,,,,,,0,65,64
320832,note_on,,0,0,1,,,,,,0,67,92
320832,note_on,,0,0,1,,,,,,0,64,92
320832,note_off,,192,0,1,,,,,,0,69,64
320832,note_off,,192,0,2,,,,,,0,60,64
320832,note_on,,0,0,2,,,,,,0,58,92
321024,note_off,,192,0,2,,,,,,0,58,64
321024,note_on,,0,0,2,,,,,,0,60,92
321024,note_off,,192,0,1,,,,,,0,67,64
321024,note_off,,0,0,1,,,,,,0,64,64
321024,note_on,,0,0,1,,,,,,0,65,92
321024,note_on,,0,0,1,,,,,,0,69,92
321408,note_off,,384,0,2,,,,,,0,60,64
321408,note_on,,0,0,2,,,,,,0,65,92
321408,note_on,,0,0,1,,,,,,0,74,92
321408,note_on,,0,0,1,,,,,,0,69,92
321408,note_off,,1152,0,3,,,,,,0,53,64
321408,note_off,,384,0,1,,,,,,0,69,64
321408,note_off,,0,0,1,,,,,,0,65,64
321408,note_on,,0,0,3,,,,,,0,52,102
321600,note_on,,0,0,3,,,,,,0,50,102
321600,note_off,,192,0,3,,,,,,0,52,64
321792,note_on,,0,0,3,,,,,,0,57,102
321792,note_off,,192,0,3,,,,,,0,50,64
322176,note_on,,0,0,2,,,,,,0,64,92
322176,note_off,,768,0,2,,,,,,0,65,64
322176,note_on,,0,0,1,,,,,,0,72,92
322176,note_on,,0,0,1,,,,,,0,69,92
322176,note_off,,0,0,1,,,,,,0,69,64
322176,note_off,,768,0,1,,,,,,0,74,64
322368,note_off,,0,0,1,,,,,,0,69,64
322368,note_off,,192,0,1,,,,,,0,72,64
322368,note_on,,0,0,2,,,,,,0,62,92
322368,note_off,,192,0,2,,,,,,0,64,64
322368,note_on,,0,0,1,,,,,,0,71,92
322368,note_on,,0,0,1,,,,,,0,68,92
322560,note_on,,0,0,2,,,,,,0,64,92
322560,note_on,,0,0,1,,,,,,0,72,92
322560,note_off,,0,0,1,,,,,,0,71,64
322560,note_off,,192,0,1,,,,,,0,68,64
322560,note_off,,192,0,2,,,,,,0,62,64
322560,note_on,,0,0,1,,,,,,0,69,92
322944,note_on,,0,0,1,,,,,,0,77,92
322944,note_on,,0,0,3,,,,,,0,55,102
322944,note_on,,0,0,1,,,,,,0,74,92
322944,note_off,,0,0,1,,,,,,0,69,64
322944,note_off,,384,0,1,,,,,,0,72,64
322944,note_off,,1152,0,3,,,,,,0,57,64
322944,note_on,,0,0,2,,,,,,0,57,92
322944,note_off,,384,0,2,,,,,,0,64,64
323136,note_off,,192,0,3,,,,,,0,55,64
323136,note_on,,0,0,3,,,,,,0,53,102
323328,note_off,,384,0,2,,,,,,0,57,64
323328,note_off,,192,0,3,,,,,,0,53,64
323328,note_on,,0,0,3,,,,,,0,55,102
323328,note_on,,0,0,2,,,,,,0,62,92
323328,note_on,,0,0,1,,,,,,0,71,92
323328,note_off,,384,0,1,,,,,,0,74,64
323712,note_off,,384,0,2,,,,,,0,62,64
323712,note_on,,0,0,2,,,,,,0,60,92
323712,note_on,,0,0,1,,,,,,0,76,92
323712,note_on,,0,0,1,,,,,,0,67,92
323712,note_off,,0,0,1,,,,,,0,77,64
323712,note_off,,384,0,1,,,,,,0,71,64
323712,note_off,,384,0,3,,,,,,0,55,64
323712,note_on,,0,0,3,,,,,,0,48,102
323904,note_off,,192,0,2,,,,,,0,60,64
323904,note_on,,0,0,2,,,,,,0,58,92
324096,note_on,,0,0,3,,,,,,0,53,102
324096,note_off,,192,0,2,,,,,,0,58,64
324096,note_on,,0,0,2,,,,,,0,57,92
324096,note_off,,384,0,3,,,,,,0,48,64
324480,note_on,,0,0,1,,,,,,0,65,92
324480,note_off,,0,0,1,,,,,,0,67,64
324480,note_off,,768,0,1,,,,,,0,76,64
324480,note_on,,0,0,1,,,,,,0,74,92
324672,note_off,,192,0,1,,,,,,0,74,64
324672,note_off,,0,0,1,,,,,,0,65,64
324672,note_on,,0,0,1,,,,,,0,64,92
324672,note_on,,0,0,1,,,,,,0,72,92
324864,note_on,,0,0,1,,,,,,0,74,92
324864,note_on,,0,0,1,,,,,,0,65,92
324864,note_off,,0,0,1,,,,,,0,64,64
324864,note_off,,192,0,1,,,,,,0,72,64
325248,note_on,,0,0,1,,,,,,0,59,92
325248,note_on,,0,0,2,,,,,,0,55,92
325248,note_off,,384,0,1,,,,,,0,74,64
325248,note_on,,0,0,3,,,,,,0,52,102
325248,note_off,,1152,0,3,,,,,,0,53,64
325248,note_off,,0,0,1,,,,,,0,65,64
325248,note_on,,0,0,1,,,,,,0,67,92
325248,note_off,,1152,0,2,,,,,,0,57,64
325440,note_off,,192,0,2,,,,,,0,55,64
325440,note_off,,192,0,3,,,,,,0,52,64
325440,note_on,,0,0,2,,,,,,0,53,92
325440,note_on,,0,0,3,,,,,,0,50,102
325632,note_on,,0,0,1,,,,,,0,72,92
325632,note_on,,0,0,1,,,,,,0,64,92
325632,note_off,,384,0,1,,,,,,0,67,64
325632,note_off,,192,0,3,,,,,,0,50,64
325632,note_on,,0,0,2,,,,,,0,55,92
325632,note_on,,0,0,3,,,,,,0,52,102
325632,note_off,,192,0,2,,,,,,0,53,64
325632,note_off,,0,0,1,,,,,,0,59,64
326016,note_off,,384,0,2,,,,,,0,55,64
326016,note_on,,0,0,2,,,,,,0,53,92
326016,note_on,,0,0,3,,,,,,0,45,102
326016,note_off,,384,0,3,,,,,,0,52,64
326208,note_off,,192,0,2,,,,,,0,53,64
326208,note_on,,0,0,2,,,,,,0,52,92
326400,note_off,,192,0,2,,,,,,0,52,64
326400,note_on,,0,0,2,,,,,,0,53,92
326400,note_on,,0,0,1,,,,,,0,62,92
326400,note_off,,768,0,1,,,,,,0,64,64
326400,note_off,,384,0,3,,,,,,0,45,64
326400,note_on,,0,0,3,,,,,,0,50,102
326784,note_on,,0,0,2,,,,,,0,55,92
326784,note_off,,384,0,2,,,,,,0,53,64
326784,note_off,,384,0,3,,,,,,0,50,64
326784,note_on,,0,0,3,,,,,,0,43,102
326784,note_off,,384,0,1,,,,,,0,72,64
326784,note_on,,0,0,1,,,,,,0,71,92
326976,note_on,,0,0,2,,,,,,0,53,92
326976,note_off,,192,0,2,,,,,,0,55,64
327168,note_off,,384,0,3,,,,,,0,43,64
327168,note_on,,0,0,3,,,,,,0,45,102
327168,note_on,,0,0,2,,,,,,0,52,92
327168,note_off,,384,0,1,,,,,,0,71,64
327168,note_off,,192,0,2,,,,,,0,53,64
327168,note_on,,0,0,1,,,,,,0,60,92
327168,note_on,,0,0,1,,,,,,0,72,92
327168,note_off,,0,0,1,,,,,,0,62,64
327360,note_off,,192,0,1,,,,,,0,72,64
327360,note_on,,0,0,1,,,,,,0,74,92
327552,note_off,,384,0,2,,,,,,0,52,64
327552,note_on,,0,0,2,,,,,,0,60,92
327552,note_off,,0,0,1,,,,,,0,60,64
327552,note_on,,0,0,1,,,,,,0,69,92
327552,note_on,,0,0,1,,,,,,0,72,92
327552,note_off,,192,0,1,,,,,,0,74,64
327552,note_off,,384,0,3,,,,,,0,45,64
327552,note_on,,0,0,3,,,,,,0,41,102
327744,note_on,,0,0,1,,,,,,0,74,92
327744,note_off,,192,0,1,,,,,,0,72,64
327936,note_on,,0,0,1,,,,,,0,67,92
327936,note_off,,192,0,1,,,,,,0,74,64
327936,note_off,,384,0,3,,,,,,0,41,64
327936,note_on,,0,0,3,,,,,,0,43,102
327936,note_on,,0,0,1,,,,,,0,76,92
327936,note_off,,0,0,1,,,,,,0,69,64
327984,note_off,,48,0,1,,,,,,0,76,64
327984,note_on,,0,0,1,,,,,,0,74,92
328032,note_on,,0,0,1,,,,,,0,76,92
328032,note_off,,48,0,1,,,,,,0,74,64
328080,note_off,,48,0,1,,,,,,0,76,64
328080,note_on,,0,0,1,,,,,,0,74,92
328128,note_off,,48,0,1,,,,,,0,74,64
328128,note_on,,0,0,1,,,,,,0,76,92
328176,note_off,,48,0,1,,,,,,0,76,64
328176,note_on,,0,0,1,,,,,,0,74,92
328224,note_off,,48,0,1,,,,,,0,74,64
328224,note_on,,0,0,1,,,,,,0,76,92
328272,note_off,,48,0,1,,,,,,0,76,64
328272,note_on,,0,0,1,,,,,,0,74,92
328320,note_on,,0,0,2,,,,,,0,59,92
328320,note_on,,0,0,1,,,,,,0,65,92
328320,note_on,,0,0,1,,,,,,0,76,92
328320,note_off,,0,0,1,,,,,,0,67,64
328320,note_off,,48,0,1,,,,,,0,74,64
328320,note_off,,768,0,2,,,,,,0,60,64
328368,note_off,,48,0,1,,,,,,0,76,64
328368,note_on,,0,0,1,,,,,,0,74,92
328416,note_off,,48,0,1,,,,,,0,74,64
328416,note_on,,0,0,1,,,,,,0,76,92
328464,note_off,,48,0,1,,,,,,0,76,64
328464,note_on,,0,0,1,,,,,,0,74,92
328512,note_off,,48,0,1,,,,,,0,74,64
328512,note_on,,0,0,1,,,,,,0,76,92
328560,note_on,,0,0,1,,,,,,0,74,92
328560,note_off,,48,0,1,,,,,,0,76,64
328608,note_off,,48,0,1,,,,,,0,74,64
328608,note_on,,0,0,1,,,,,,0,76,92
328656,note_off,,48,0,1,,,,,,0,76,64
328656,note_on,,0,0,1,,,,,,0,74,92
328704,note_on,,0,0,2,,,,,,0,60,92
328704,note_off,,384,0,2,,,,,,0,59,64
328704,note_off,,768,0,3,,,,,,0,43,64
328704,note_on,,0,0,3,,,,,,0,36,102
328704,note_on,,0,0,1,,,,,,0,64,92
328704,note_on,,0,0,1,,,,,,0,72,92
328704,note_off,,0,0,1,,,,,,0,65,64
328704,note_off,,48,0,1,,,,,,0,74,64
329088,note_off,,0,0,1,,,,,,0,72,64
329088,note_on,,0,0,1,,,,,,0,72,92
329088,note_on,,0,0,1,,,,,,0,81,92
329088,note_off,,384,0,1,,,,,,0,64,64
329280,note_off,,192,0,1,,,,,,0,81,64
329280,note_on,,0,0,1,,,,,,0,79,92
329472,note_off,,768,0,3,,,,,,0,36,64
329472,note_off,,192,0,1,,,,,,0,79,64
329472,note_on,,0,0,1,,,,,,0,77,92
329472,note_off,,768,0,2,,,,,,0,60,64
329472,note_on,,0,0,2,,,,,,0,62,92
329856,note_on,,0,0,1,,,,,,0,71,92
329856,note_on,,0,0,1,,,,,,0,76,92
329856,note_off,,0,0,1,,,,,,0,72,64
329856,note_off,,384,0,1,,,,,,0,77,64
330048,note_off,,192,0,1,,,,,,0,76,64
330048,note_on,,0,0,1,,,,,,0,74,92
330240,note_on,,0,0,2,,,,,,0,64,92
330240,note_off,,768,0,2,,,,,,0,62,64
330240,note_off,,0,0,1,,,,,,0,71,64
330240,note_on,,0,0,1,,,,,,0,79,92
330240,note_on,,0,0,1,,,,,,0,72,92
330240,note_off,,192,0,1,,,,,,0,74,64
330624,note_off,,384,0,2,,,,,,0,64,64
330624,note_on,,0,0,2,,,,,,0,60,92
330624,note_on,,0,0,1,,,,,,0,77,92
330624,note_off,,384,0,1,,,,,,0,79,64
330624,note_on,,1152,0,3,,,,,,0,48,102
330816,note_on,,0,0,1,,,,,,0,76,92
330816,note_off,,192,0,1,,,,,,0,77,64
331008,note_off,,384,0,3,,,,,,0,48,64
331008,note_on,,0,0,1,,,,,,0,81,92
331008,note_on,,0,0,3,,,,,,0,45,102
331008,note_off,,192,0,1,,,,,,0,76,64
331008,note_off,,384,0,2,,,,,,0,60,64
331008,note_on,,0,0,2,,,,,,0,65,92
331392,note_on,,0,0,1,,,,,,0,74,92
331392,note_off,,384,0,1,,,,,,0,72,64
331392,note_on,,0,0,3,,,,,,0,41,102
331392,note_off,,384,0,3,,,,,,0,45,64
331584,note_on,,0,0,1,,,,,,0,72,92
331584,note_off,,192,0,1,,,,,,0,74,64
331776,note_off,,192,0,1,,,,,,0,72,64
331776,note_off,,384,0,3,,,,,,0,41,64
331776,note_on,,0,0,3,,,,,,0,43,102
331776,note_on,,0,0,1,,,,,,0,71,92
332160,note_on,,0,0,2,,,,,,0,64,92
332160,note_on,,0,0,1,,,,,,0,79,92
332160,note_on,,0,0,1,,,,,,0,70,92
332160,note_off,,384,0,3,,,,,,0,43,64
332160,note_on,,0,0,3,,,,,,0,48,102
332160,note_off,,1152,0,2,,,,,,0,65,64
332160,note_off,,0,0,1,,,,,,0,81,64
332160,note_off,,384,0,1,,,,,,0,71,64
332544,note_off,,384,0,2,,,,,,0,64,64
332544,note_off,,384,0,1,,,,,,0,70,64
332544,note_on,,0,0,1,,,,,,0,69,92
332544,note_on,,0,0,2,,,,,,0,69,92
332928,note_off,,384,0,1,,,,,,0,69,64
332928,note_off,,0,0,1,,,,,,0,79,64
332928,note_on,,0,0,1,,,,,,0,77,92
332928,note_on,,0,0,1,,,,,,0,72,92
332928,note_on,,0,0,3,,,,,,0,45,102
332928,note_off,,768,0,3,,,,,,0,48,64
333120,note_on,,0,0,1,,,,,,0,76,92
333120,note_off,,192,0,1,,,,,,0,77,64
333312,note_off,,384,0,3,,,,,,0,45,64
333312,note_on,,0,0,3,,,,,,0,47,102
333312,note_off,,192,0,1,,,,,,0,76,64
333312,note_on,,0,0,1,,,,,,0,74,92
333696,note_on,,0,0,2,,,,,,0,67,92
333696,note_on,,0,0,3,,,,,,0,52,102
333696,note_off,,1152,0,2,,,,,,0,69,64
333696,note_on,,0,0,1,,,,,,0,71,92
333696,note_on,,0,0,1,,,,,,0,83,92
333696,note_off,,0,0,1,,,,,,0,72,64
333696,note_off,,384,0,1,,,,,,0,74,64
333696,note_off,,384,0,3,,,,,,0,47,64
334080,note_on,,0,0,1,,,,,,0,76,92
334080,note_off,,384,0,1,,,,,,0,71,64
334080,note_on,,0,0,2,,,,,,0,72,92
334080,note_off,,384,0,2,,,,,,0,67,64
334464,note_on,,0,0,3,,,,,,0,48,102
334464,note_off,,768,0,3,,,,,,0,52,64
334464,note_on,,0,0,1,,,,,,0,81,92
334464,note_off,,384,0,1,,,,,,0,83,64
334656,note_on,,0,0,1,,,,,,0,79,92
334656,note_off,,192,0,1,,,,,,0,81,64
334848,note_on,,0,0,1,,,,,,0,78,92
334848,note_on,,0,0,1,,,,,,0,74,92
334848,note_off,,192,0,1,,,,,,0,79,64
334848,note_off,,384,0,3,,,,,,0,48,64
334848,note_on,,0,0,3,,,,,,0,50,102
334848,note_off,,0,0,1,,,,,,0,76,64
335040,note_on,,0,0,3,,,,,,0,52,102
335040,note_off,,192,0,3,,,,,,0,50,64
335232,note_off,,1152,0,2,,,,,,0,72,64
335232,note_on,,0,0,1,,,,,,0,77,92
335232,note_on,,0,0,2,,,,,,0,71,92
335232,note_off,,192,0,3,,,,,,0,52,64
335232,note_on,,0,0,3,,,,,,0,50,102
335232,note_off,,384,0,1,,,,,,0,78,64
335424,note_off,,192,0,3,,,,,,0,50,64
335424,note_on,,0,0,3,,,,,,0,55,102
335616,note_off,,192,0,3,,,,,,0,55,64
335616,note_on,,0,0,3,,,,,,0,48,102
335616,note_off,,384,0,1,,,,,,0,77,64
335616,note_on,,0,0,1,,,,,,0,72,92
335616,note_on,,0,0,1,,,,,,0,76,92
335616,note_off,,0,0,1,,,,,,0,74,64
335808,note_on,,0,0,3,,,,,,0,50,102
335808,note_off,,192,0,3,,,,,,0,48,64
336000,note_on,,0,0,3,,,,,,0,48,102
336000,note_on,,0,0,2,,,,,,0,69,92
336000,note_off,,768,0,2,,,,,,0,71,64
336000,note_on,,0,0,1,,,,,,0,75,92
336000,note_off,,192,0,3,,,,,,0,50,64
336000,note_off,,384,0,1,,,,,,0,76,64
336192,note_off,,192,0,3,,,,,,0,48,64
336192,note_on,,0,0,3,,,,,,0,53,102
336384,note_on,,0,0,1,,,,,,0,74,92
336384,note_on,,0,0,1,,,,,,0,71,92
336384,note_off,,0,0,1,,,,,,0,72,64
336384,note_off,,384,0,1,,,,,,0,75,64
336384,note_off,,192,0,3,,,,,,0,53,64
336384,note_on,,0,0,3,,,,,,0,47,102
336576,note_off,,192,0,3,,,,,,0,47,64
336576,note_on,,0,0,3,,,,,,0,48,102
336768,note_off,,768,0,2,,,,,,0,69,64
336768,note_off,,384,0,1,,,,,,0,74,64
336768,note_on,,0,0,2,,,,,,0,67,92
336768,note_off,,192,0,3,,,,,,0,48,64
336768,note_on,,0,0,3,,,,,,0,47,102
336768,note_on,,0,0,1,,,,,,0,79,92
336960,note_off,,192,0,3,,,,,,0,47,64
336960,note_on,,0,0,3,,,,,,0,52,102
337152,note_off,,192,0,3,,,,,,0,52,64
337152,note_off,,0,0,1,,,,,,0,71,64
337152,note_off,,384,0,1,,,,,,0,79,64
337152,note_on,,0,0,1,,,,,,0,72,92
337152,note_on,,0,0,3,,,,,,0,45,102
337152,note_on,,0,0,1,,,,,,0,69,92
337344,note_on,,0,0,3,,,,,,0,47,102
337344,note_off,,192,0,3,,,,,,0,45,64
337536,note_on,,0,0,2,,,,,,0,65,92
337536,note_off,,768,0,2,,,,,,0,67,64
337536,note_on,,0,0,1,,,,,,0,77,92
337536,note_on,,0,0,3,,,,,,0,45,102
337536,note_off,,384,0,1,,,,,,0,72,64
337536,note_off,,192,0,3,,,,,,0,47,64
337728,note_on,,0,0,3,,,,,,0,50,102
337728,note_off,,192,0,3,,,,,,0,45,64
337920,note_off,,384,0,1,,,,,,0,77,64
337920,note_off,,192,0,3,,,,,,0,50,64
337920,note_on,,0,0,1,,,,,,0,67,92
337920,note_on,,0,0,1,,,,,,0,71,92
337920,note_off,,0,0,1,,,,,,0,69,64
337920,note_on,,0,0,3,,,,,,0,43,102
338304,note_on,,0,0,2,,,,,,0,64,92
338304,note_off,,768,0,2,,,,,,0,65,64
338304,note_off,,384,0,3,,,,,,0,43,64
338304,note_on,,0,0,3,,,,,,0,48,102
338304,note_off,,384,0,1,,,,,,0,71,64
338304,note_on,,0,0,1,,,,,,0,72,92
338688,note_off,,384,0,1,,,,,,0,72,64
338688,note_on,,0,0,1,,,,,,0,74,92
338688,note_off,,0,0,1,,,,,,0,67,64
338688,note_on,,0,0,1,,,,,,0,65,92
338688,note_off,,384,0,2,,,,,,0,64,64
338688,note_on,,0,0,2,,,,,,0,62,92
339072,note_off,,768,0,3,,,,,,0,48,64
339072,note_on,,0,0,1,,,,,,0,67,92
339072,note_on,,0,0,1,,,,,,0,76,92
339072,note_off,,384,0,1,,,,,,0,74,64
339072,note_off,,0,0,1,,,,,,0,65,64
339072,note_on,,0,0,3,,,,,,0,46,102
339264,note_on,,0,0,1,,,,,,0,77,92
339264,note_off,,192,0,1,,,,,,0,76,64
339456,note_off,,768,0,2,,,,,,0,62,64
339456,note_off,,192,0,1,,,,,,0,77,64
339456,note_on,,0,0,1,,,,,,0,76,92
339456,note_on,,0,0,2,,,,,,0,60,92
339840,note_off,,768,0,3,,,,,,0,46,64
339840,note_on,,0,0,3,,,,,,0,45,102
339840,note_off,,384,0,1,,,,,,0,76,64
339840,note_off,,0,0,1,,,,,,0,67,64
339840,note_on,,0,0,1,,,,,,0,65,92
339840,note_on,,0,0,1,,,,,,0,77,92
340032,note_off,,192,0,1,,,,,,0,65,64
340032,note_on,,0,0,1,,,,,,0,64,92
340224,note_on,,0,0,1,,,,,,0,62,92
340224,note_off,,768,0,2,,,,,,0,60,64
340224,note_off,,192,0,1,,,,,,0,64,64
340224,note_off,,0,0,1,,,,,,0,77,64
340224,note_on,,0,0,1,,,,,,0,70,92
340224,note_on,,0,0,2,,,,,,0,53,92
340608,note_on,,0,0,2,,,,,,0,55,92
340608,note_on,,0,0,1,,,,,,0,64,92
340608,note_off,,384,0,1,,,,,,0,62,64
340608,note_off,,384,0,2,,,,,,0,53,64
340608,note_off,,768,0,3,,,,,,0,45,64
340608,note_on,,0,0,3,,,,,,0,43,102
340992,note_on,,0,0,2,,,,,,0,57,92
340992,note_on,,0,0,1,,,,,,0,65,92
340992,note_off,,384,0,1,,,,,,0,64,64
340992,note_off,,384,0,2,,,,,,0,55,64
340992,note_on,,0,0,3,,,,,,0,41,102
340992,note_off,,384,0,3,,,,,,0,43,64
341184,note_off,,192,0,2,,,,,,0,57,64
341184,note_on,,0,0,2,,,,,,0,58,92
341376,note_off,,192,0,2,,,,,,0,58,64
341376,note_on,,0,0,2,,,,,,0,60,92
341376,note_on,,0,0,1,,,,,,0,69,92
341376,note_on,,0,0,3,,,,,,0,53,102
341376,note_off,,384,0,1,,,,,,0,70,64
341376,note_off,,384,0,3,,,,,,0,41,64
341568,note_on,,0,0,1,,,,,,0,63,92
341568,note_off,,192,0,1,,,,,,0,65,64
341760,note_off,,384,0,3,,,,,,0,53,64
341760,note_on,,0,0,1,,,,,,0,62,92
341760,note_on,,0,0,3,,,,,,0,46,102
341760,note_off,,192,0,1,,,,,,0,63,64
342144,note_on,,0,0,2,,,,,,0,58,92
342144,note_off,,768,0,2,,,,,,0,60,64
342144,note_off,,384,0,1,,,,,,0,69,64
342144,note_on,,0,0,1,,,,,,0,67,92
342336,note_off,,192,0,1,,,,,,0,67,64
342336,note_on,,0,0,1,,,,,,0,65,92
342336,note_on,,0,0,2,,,,,,0,57,92
342336,note_off,,192,0,2,,,,,,0,58,64
342528,note_off,,192,0,2,,,,,,0,57,64
342528,note_on,,0,0,2,,,,,,0,55,92
342528,note_off,,192,0,1,,,,,,0,65,64
342528,note_on,,0,0,1,,,,,,0,72,92
342528,note_on,,0,0,1,,,,,,0,64,92
342528,note_off,,0,0,1,,,,,,0,62,64
342912,note_off,,1152,0,3,,,,,,0,46,64
342912,note_on,,0,0,3,,,,,,0,45,102
342912,note_off,,384,0,1,,,,,,0,64,64
342912,note_on,,0,0,2,,,,,,0,57,92
342912,note_on,,0,0,1,,,,,,0,66,92
342912,note_off,,384,0,2,,,,,,0,55,64
343296,note_off,,384,0,2,,,,,,0,57,64
343296,note_on,,0,0,3,,,,,,0,43,102
343296,note_off,,384,0,3,,,,,,0,45,64
343296,note_on,,0,0,1,,,,,,0,67,92
343296,note_off,,384,0,1,,,,,,0,66,64
343296,note_on,,0,0,2,,,,,,0,58,92
343488,note_off,,192,0,2,,,,,,0,58,64
343488,note_on,,0,0,2,,,,,,0,60,92
343680,note_on,,0,0,1,,,,,,0,70,92
343680,note_off,,192,0,2,,,,,,0,60,64
343680,note_on,,0,0,2,,,,,,0,62,92
343680,note_off,,384,0,1,,,,,,0,72,64
343680,note_off,,384,0,3,,,,,,0,43,64
343680,note_on,,0,0,3,,,,,,0,55,102
343872,note_off,,192,0,1,,,,,,0,67,64
343872,note_on,,0,0,1,,,,,,0,65,92
344064,note_on,,0,0,1,,,,,,0,63,92
344064,note_off,,0,0,1,,,,,,0,70,64
344064,note_off,,192,0,1,,,,,,0,65,64
344064,note_on,,0,0,1,,,,,,0,69,92
344064,note_off,,384,0,2,,,,,,0,62,64
344064,note_on,,0,0,2,,,,,,0,60,92
344448,note_off,,384,0,2,,,,,,0,60,64
344448,note_on,,0,0,3,,,,,,0,53,102
344448,note_off,,768,0,3,,,,,,0,55,64
344448,note_on,,0,0,2,,,,,,0,62,92
344448,note_off,,384,0,1,,,,,,0,69,64
344448,note_off,,0,0,1,,,,,,0,63,64
344448,note_on,,0,0,1,,,,,,0,65,92
344448,note_on,,0,0,1,,,,,,0,74,92
344640,note_on,,0,0,3,,,,,,0,51,102
344640,note_off,,192,0,3,,,,,,0,53,64
344832,note_off,,0,0,1,,,,,,0,65,64
344832,note_off,,384,0,1,,,,,,0,74,64
344832,note_off,,192,0,3,,,,,,0,51,64
344832,note_on,,0,0,1,,,,,,0,70,92
344832,note_on,,0,0,3,,,,,,0,53,102
344832,note_on,,0,0,1,,,,,,0,79,92
345216,note_off,,768,0,2,,,,,,0,62,64
345216,note_off,,384,0,3,,,,,,0,53,64
345216,note_on,,0,0,3,,,,,,0,46,102
345216,note_on,,0,0,2,,,,,,0,60,92
345408,note_off,,192,0,2,,,,,,0,60,64
345408,note_on,,0,0,2,,,,,,0,58,92
345600,note_off,,384,0,3,,,,,,0,46,64
345600,note_off,,192,0,2,,,,,,0,58,64
345600,note_on,,0,0,2,,,,,,0,60,92
345600,note_on,,0,0,3,,,,,,0,51,102
345984,note_on,,0,0,1,,,,,,0,68,92
345984,note_on,,0,0,1,,,,,,0,77,92
345984,note_on,,0,0,2,,,,,,0,53,92
345984,note_off,,384,0,2,,,,,,0,60,64
345984,note_off,,1152,0,1,,,,,,0,79,64
345984,note_off,,0,0,1,,,,,,0,70,64
346176,note_on,,0,0,1,,,,,,0,75,92
346176,note_on,,0,0,1,,,,,,0,67,92
346176,note_off,,0,0,1,,,,,,0,68,64
346176,note_off,,192,0,1,,,,,,0,77,64
346368,note_on,,0,0,1,,,,,,0,68,92
346368,note_on,,0,0,1,,,,,,0,77,92
346368,note_off,,384,0,2,,,,,,0,53,64
346368,note_off,,0,0,1,,,,,,0,67,64
346368,note_off,,192,0,1,,,,,,0,75,64
346368,note_on,,0,0,2,,,,,,0,58,92
346752,note_off,,1152,0,3,,,,,,0,51,64
346752,note_on,,0,0,3,,,,,,0,50,102
346752,note_on,,0,0,1,,,,,,0,70,92
346752,note_off,,384,0,1,,,,,,0,77,64
346944,note_off,,192,0,3,,,,,,0,50,64
346944,note_on,,0,0,3,,,,,,0,48,102
347136,note_off,,0,0,1,,,,,,0,68,64
347136,note_on,,0,0,3,,,,,,0,50,102
347136,note_off,,192,0,3,,,,,,0,48,64
347136,note_on,,0,0,1,,,,,,0,75,92
347136,note_on,,0,0,1,,,,,,0,67,92
347136,note_off,,384,0,1,,,,,,0,70,64
347520,note_on,,0,0,2,,,,,,0,57,92
347520,note_on,,0,0,3,,,,,,0,43,102
347520,note_off,,384,0,3,,,,,,0,50,64
347520,note_off,,1152,0,2,,,,,,0,58,64
347712,note_off,,192,0,2,,,,,,0,57,64
347712,note_on,,0,0,2,,,,,,0,55,92
347904,note_off,,192,0,2,,,,,,0,55,64
347904,note_on,,0,0,2,,,,,,0,57,92
347904,note_on,,0,0,3,,,,,,0,48,102
347904,note_off,,384,0,3,,,,,,0,43,64
348288,note_on,,0,0,2,,,,,,0,50,92
348288,note_off,,1152,0,1,,,,,,0,75,64
348288,note_off,,384,0,2,,,,,,0,57,64
348288,note_on,,0,0,1,,,,,,0,74,92
348288,note_off,,0,0,1,,,,,,0,67,64
348288,note_on,,0,0,1,,,,,,0,66,92
348480,note_off,,192,0,1,,,,,,0,74,64
348480,note_off,,0,0,1,,,,,,0,66,64
348480,note_on,,0,0,1,,,,,,0,69,92
348480,note_on,,0,0,1,,,,,,0,72,92
348672,note_on,,0,0,2,,,,,,0,55,92
348672,note_on,,0,0,1,,,,,,0,74,92
348672,note_on,,0,0,1,,,,,,0,62,92
348672,note_off,,0,0,1,,,,,,0,69,64
348672,note_off,,192,0,1,,,,,,0,72,64
348672,note_off,,384,0,2,,,,,,0,50,64
349056,note_off,,384,0,1,,,,,,0,74,64
349056,note_on,,0,0,3,,,,,,0,46,102
349056,note_on,,0,0,1,,,,,,0,67,92
349056,note_off,,1152,0,3,,,,,,0,48,64
349440,note_on,,0,0,1,,,,,,0,64,92
349440,note_off,,384,0,1,,,,,,0,67,64
349440,note_off,,0,0,1,,,,,,0,62,64
349440,note_on,,0,0,1,,,,,,0,72,92
349824,note_on,,0,0,2,,,,,,0,54,92
349824,note_off,,768,0,3,,,,,,0,46,64
349824,note_on,,0,0,3,,,,,,0,45,102
349824,note_off,,1152,0,2,,,,,,0,55,64
349824,note_on,,0,0,1,,,,,,0,69,92
349824,note_off,,384,0,1,,,,,,0,64,64
350208,note_on,,0,0,2,,,,,,0,55,92
350208,note_on,,0,0,1,,,,,,0,62,92
350208,note_off,,384,0,1,,,,,,0,69,64
350208,note_off,,384,0,2,,,,,,0,54,64
350208,note_off,,384,0,3,,,,,,0,45,64
350208,note_on,,0,0,3,,,,,,0,43,102
350592,note_on,,0,0,3,,,,,,0,36,102
350592,note_off,,384,0,3,,,,,,0,43,64
350592,note_off,,384,0,1,,,,,,0,62,64
350592,note_off,,0,0,1,,,,,,0,72,64
350592,note_on,,0,0,1,,,,,,0,67,92
350592,note_on,,0,0,1,,,,,,0,70,92
350592,note_off,,384,0,2,,,,,,0,55,64
350592,note_on,,0,0,2,,,,,,0,63,92
350784,note_off,,192,0,1,,,,,,0,70,64
350784,note_on,,0,0,1,,,,,,0,69,92
350976,note_off,,384,0,3,,,,,,0,36,64
350976,note_off,,192,0,1,,,,,,0,69,64
350976,note_on,,0,0,1,,,,,,0,70,92
350976,note_on,,0,0,3,,,,,,0,38,102
351024,note_on,,0,0,1,,,,,,0,69,92
351024,note_off,,48,0,1,,,,,,0,70,64
351072,note_off,,48,0,1,,,,,,0,69,64
351072,note_on,,0,0,1,,,,,,0,70,92
351120,note_off,,48,0,1,,,,,,0,70,64
351120,note_on,,0,0,1,,,,,,0,69,92
351168,note_off,,48,0,1,,,,,,0,69,64
351168,note_on,,0,0,1,,,,,,0,70,92
351216,note_on,,0,0,1,,,,,,0,69,92
351216,note_off,,48,0,1,,,,,,0,70,64
351264,note_on,,0,0,1,,,,,,0,70,92
351264,note_off,,48,0,1,,,,,,0,69,64
351312,note_on,,0,0,1,,,,,,0,69,92
351312,note_off,,48,0,1,,,,,,0,70,64
351360,note_off,,48,0,1,,,,,,0,69,64
351360,note_off,,0,0,1,,,,,,0,67,64
351360,note_on,,0,0,1,,,,,,0,66,92
351360,note_on,,0,0,2,,,,,,0,62,92
351360,note_off,,768,0,2,,,,,,0,63,64
351360,note_on,,0,0,1,,,,,,0,70,92
351408,note_off,,48,0,1,,,,,,0,70,64
351408,note_on,,0,0,1,,,,,,0,69,92
351456,note_on,,0,0,1,,,,,,0,70,92
351456,note_off,,48,0,1,,,,,,0,69,64
351504,note_off,,48,0,1,,,,,,0,70,64
351504,note_on,,0,0,1,,,,,,0,69,92
351552,note_off,,192,0,2,,,,,,0,62,64
351552,note_on,,0,0,2,,,,,,0,60,92
351552,note_on,,0,0,1,,,,,,0,70,92
351552,note_off,,48,0,1,,,,,,0,69,64
351600,note_on,,0,0,1,,,,,,0,69,92
351600,note_off,,48,0,1,,,,,,0,70,64
351648,note_on,,0,0,1,,,,,,0,70,92
351648,note_off,,48,0,1,,,,,,0,69,64
351696,note_on,,0,0,1,,,,,,0,69,92
351696,note_off,,48,0,1,,,,,,0,70,64
351744,note_on,,0,0,1,,,,,,0,67,92
351744,note_off,,192,0,2,,,,,,0,60,64
351744,note_off,,0,0,1,,,,,,0,66,64
351744,note_on,,0,0,2,,,,,,0,58,92
351744,note_off,,768,0,3,,,,,,0,38,64
351744,note_on,,0,0,3,,,,,,0,43,102
351744,note_off,,48,0,1,,,,,,0,69,64
352128,note_on,,384,0,1,,,,,,0,79,92
352512,note_off,,768,0,3,,,,,,0,43,64
352512,note_off,,384,0,1,,,,,,0,67,64
352512,note_off,,768,0,2,,,,,,0,58,64
352512,note_on,,0,0,2,,,,,,0,60,92
352512,note_on,,0,0,1,,,,,,0,69,92
352896,note_on,,0,0,1,,,,,,0,78,92
352896,note_off,,384,0,1,,,,,,0,79,64
352896,note_on,,0,0,2,,,,,,0,62,92
352896,note_off,,384,0,2,,,,,,0,60,64
353280,note_on,,0,0,1,,,,,,0,70,92
353280,note_on,,0,0,1,,,,,,0,79,92
353280,note_off,,384,0,2,,,,,,0,62,64
353280,note_on,,0,0,2,,,,,,0,55,92
353280,note_off,,0,0,1,,,,,,0,69,64
353280,note_off,,384,0,1,,,,,,0,78,64
353664,note_on,,0,0,1,,,,,,0,67,92
353664,note_off,,384,0,1,,,,,,0,70,64
354048,note_off,,384,0,1,,,,,,0,67,64
354048,note_on,,0,0,2,,,,,,0,57,92
354048,note_off,,768,0,2,,,,,,0,55,64
354048,note_on,,0,0,1,,,,,,0,72,92
354432,note_off,,384,0,1,,,,,,0,79,64
354432,note_on,,0,0,1,,,,,,0,77,92
354624,note_off,,192,0,1,,,,,,0,77,64
354624,note_on,,0,0,1,,,,,,0,75,92
354816,note_on,,0,0,2,,,,,,0,58,92
354816,note_off,,768,0,2,,,,,,0,57,64
354816,note_off,,192,0,1,,,,,,0,75,64
354816,note_on,,0,0,1,,,,,,0,74,92
355200,note_off,,384,0,2,,,,,,0,58,64
355200,note_on,,0,0,2,,,,,,0,55,92
355200,note_off,,384,0,1,,,,,,0,72,64
355200,note_on,,0,0,1,,,,,,0,70,92
355584,note_on,,0,0,1,,,,,,0,75,92
355584,note_on,,0,0,2,,,,,,0,60,92
355584,note_off,,384,0,2,,,,,,0,55,64
355584,note_off,,384,0,1,,,,,,0,70,64
355776,note_on,,0,0,1,,,,,,0,67,92
355776,note_off,,192,0,1,,,,,,0,74,64
355968,note_on,,0,0,1,,,,,,0,69,92
355968,note_off,,192,0,1,,,,,,0,67,64
356160,note_off,,192,0,1,,,,,,0,69,64
356160,note_on,,0,0,1,,,,,,0,72,92
356352,note_off,,192,0,1,,,,,,0,72,64
356352,note_on,,0,0,1,,,,,,0,66,92
356736,note_on,,0,0,2,,,,,,0,58,92
356736,note_on,,0,0,1,,,,,,0,74,92
356736,note_on,,0,0,1,,,,,,0,67,92
356736,note_off,,1152,0,2,,,,,,0,60,64
356736,note_off,,0,0,1,,,,,,0,75,64
356736,note_off,,384,0,1,,,,,,0,66,64
357120,note_on,,0,0,2,,,,,,0,63,92
357120,note_off,,384,0,2,,,,,,0,58,64
357120,note_off,,384,0,1,,,,,,0,74,64
357120,note_on,,0,0,1,,,,,,0,79,92
357312,note_off,,192,0,1,,,,,,0,67,64
357312,note_on,,0,0,1,,,,,,0,66,92
357504,note_on,,0,0,1,,,,,,0,67,92
357504,note_off,,192,0,1,,,,,,0,66,64
357696,note_on,,0,0,1,,,,,,0,69,92
357696,note_off,,192,0,1,,,,,,0,67,64
357888,note_on,,0,0,1,,,,,,0,70,92
357888,note_off,,192,0,1,,,,,,0,69,64
358080,note_on,,0,0,1,,,,,,0,72,92
358080,note_off,,192,0,1,,,,,,0,70,64
358272,note_off,,192,0,1,,,,,,0,72,64
358272,note_on,,0,0,2,,,,,,0,62,92
358272,note_on,,0,0,1,,,,,,0,74,92
358272,note_off,,1152,0,2,,,,,,0,63,64
358272,note_off,,0,0,1,,,,,,0,79,64
358272,note_on,,0,0,1,,,,,,0,77,92
358464,note_off,,192,0,1,,,,,,0,74,64
358464,note_on,,0,0,1,,,,,,0,72,92
358656,note_off,,192,0,1,,,,,,0,72,64
358656,note_on,,0,0,2,,,,,,0,67,92
358656,note_off,,384,0,2,,,,,,0,62,64
358656,note_on,,0,0,1,,,,,,0,70,92
358848,note_off,,192,0,1,,,,,,0,70,64
358848,note_on,,0,0,1,,,,,,0,74,92
359040,note_off,,192,0,1,,,,,,0,74,64
359040,note_off,,0,0,1,,,,,,0,77,64
359040,note_on,,0,0,1,,,,,,0,75,92
359232,note_on,,192,0,1,,,,,,0,70,92
359424,note_off,,192,0,1,,,,,,0,70,64
359424,note_on,,0,0,1,,,,,,0,72,92
359616,note_on,,0,0,1,,,,,,0,69,92
359616,note_off,,192,0,1,,,,,,0,72,64
359808,note_on,,0,0,2,,,,,,0,65,92
359808,note_off,,1152,0,2,,,,,,0,67,64
359808,note_off,,192,0,1,,,,,,0,69,64
359808,note_off,,0,0,1,,,,,,0,75,64
359808,note_on,,0,0,1,,,,,,0,74,92
360000,note_on,,192,0,1,,,,,,0,69,92
360192,note_on,,0,0,1,,,,,,0,70,92
360192,note_off,,192,0,1,,,,,,0,69,64
360384,note_off,,192,0,1,,,,,,0,70,64
360384,note_on,,0,0,1,,,,,,0,67,92
360576,note_off,,192,0,1,,,,,,0,67,64
360576,note_off,,0,0,1,,,,,,0,74,64
360576,note_off,,768,0,2,,,,,,0,65,64
360576,note_on,,0,0,2,,,,,,0,63,92
360576,note_on,,0,0,1,,,,,,0,72,92
360768,note_on,,192,0,1,,,,,,0,67,92
360960,note_off,,192,0,1,,,,,,0,67,64
360960,note_on,,0,0,1,,,,,,0,69,92
361152,note_off,,192,0,1,,,,,,0,69,64
361152,note_on,,0,0,1,,,,,,0,65,92
361344,note_off,,192,0,1,,,,,,0,65,64
361344,note_off,,768,0,2,,,,,,0,63,64
361344,note_on,,0,0,2,,,,,,0,62,92
361344,note_off,,0,0,1,,,,,,0,72,64
361344,note_on,,0,0,1,,,,,,0,70,92
361536,note_on,,192,0,1,,,,,,0,74,92
361728,note_on,,0,0,1,,,,,,0,75,92
361728,note_off,,192,0,1,,,,,,0,74,64
361920,note_on,,0,0,1,,,,,,0,74,92
361920,note_off,,192,0,1,,,,,,0,75,64
362112,note_off,,192,0,1,,,,,,0,74,64
362112,note_on,,0,0,1,,,,,,0,69,92
362112,note_on,,0,0,1,,,,,,0,75,92
362112,note_on,,0,0,2,,,,,,0,60,92
362112,note_off,,768,0,2,,,,,,0,62,64
362112,note_off,,0,0,1,,,,,,0,70,64
362304,note_off,,192,0,1,,,,,,0,75,64
362304,note_off,,0,0,1,,,,,,0,69,64
362304,note_on,,0,0,1,,,,,,0,72,92
362304,note_on,,0,0,1,,,,,,0,67,92
362496,note_off,,192,0,1,,,,,,0,72,64
362496,note_off,,0,0,1,,,,,,0,67,64
362496,note_on,,0,0,1,,,,,,0,66,92
362496,note_on,,0,0,1,,,,,,0,74,92
362688,note_off,,192,0,1,,,,,,0,74,64
362688,note_on,,0,0,1,,,,,,0,75,92
362880,note_on,,0,0,1,,,,,,0,67,92
362880,note_on,,0,0,2,,,,,,0,58,92
362880,note_off,,768,0,2,,,,,,0,60,64
362880,note_off,,192,0,1,,,,,,0,75,64
362880,note_off,,0,0,1,,,,,,0,66,64
362880,note_on,,0,0,1,,,,,,0,74,92
363072,note_off,,192,0,1,,,,,,0,74,64
363072,note_on,,0,0,1,,,,,,0,79,92
363264,note_on,,0,0,1,,,,,,0,72,92
363264,note_off,,192,0,1,,,,,,0,79,64
363264,note_off,,384,0,2,,,,,,0,58,64
363264,note_on,,0,0,2,,,,,,0,57,92
363456,note_off,,192,0,1,,,,,,0,72,64
363456,note_on,,0,0,1,,,,,,0,70,92
363648,note_off,,192,0,1,,,,,,0,70,64
363648,note_off,,0,0,1,,,,,,0,67,64
363648,note_on,,0,0,1,,,,,,0,66,92
363648,note_on,,0,0,1,,,,,,0,72,92
363840,note_off,,192,0,1,,,,,,0,72,64
363840,note_on,,0,0,1,,,,,,0,69,92
364032,note_off,,192,0,1,,,,,,0,69,64
364032,note_on,,0,0,1,,,,,,0,70,92
364032,note_off,,0,0,1,,,,,,0,66,64
364032,note_on,,0,0,1,,,,,,0,67,92
364032,note_on,,0,0,2,,,,,,0,55,92
364032,note_off,,768,0,2,,,,,,0,57,64
364416,note_on,,0,0,1,,,,,,0,79,92
364416,note_off,,384,0,1,,,,,,0,70,64
364800,note_off,,384,0,1,,,,,,0,67,64
364800,note_on,,0,0,2,,,,,,0,62,92
364800,note_off,,768,0,2,,,,,,0,55,64
365184,note_off,,384,0,1,,,,,,0,79,64
365184,note_on,,0,0,1,,,,,,0,77,92
365376,note_off,,192,0,1,,,,,,0,77,64
365376,note_on,,0,0,1,,,,,,0,75,92
365568,note_off,,192,0,1,,,,,,0,75,64
365568,note_on,,0,0,1,,,,,,0,74,92
365568,note_on,,0,0,1,,,,,,0,77,92
365952,note_on,,0,0,2,,,,,,0,60,92
365952,note_off,,1152,0,2,,,,,,0,62,64
365952,note_on,,0,0,1,,,,,,0,70,92
365952,note_off,,384,0,1,,,,,,0,77,64
366144,note_on,,0,0,2,,,,,,0,58,92
366144,note_off,,192,0,2,,,,,,0,60,64
366336,note_on,,0,0,2,,,,,,0,60,92
366336,note_on,,0,0,1,,,,,,0,75,92
366336,note_off,,192,0,2,,,,,,0,58,64
366336,note_off,,384,0,1,,,,,,0,70,64
366720,note_on,,0,0,1,,,,,,0,72,92
366720,note_off,,384,0,2,,,,,,0,60,64
366720,note_off,,384,0,1,,,,,,0,74,64
366720,note_on,,0,0,2,,,,,,0,53,92
366912,note_off,,192,0,1,,,,,,0,72,64
366912,note_on,,0,0,1,,,,,,0,70,92
367104,note_on,,0,0,2,,,,,,0,58,92
367104,note_on,,0,0,1,,,,,,0,72,92
367104,note_off,,192,0,1,,,,,,0,70,64
367104,note_off,,384,0,2,,,,,,0,53,64
367488,note_on,,0,0,1,,,,,,0,74,92
367488,note_off,,0,0,1,,,,,,0,75,64
367488,note_off,,384,0,1,,,,,,0,72,64
367488,note_on,,0,0,1,,,,,,0,65,92
367680,note_on,,0,0,1,,,,,,0,72,92
367680,note_off,,192,0,1,,,,,,0,74,64
367872,note_on,,0,0,1,,,,,,0,74,92
367872,note_on,,0,0,1,,,,,,0,70,92
367872,note_off,,0,0,1,,,,,,0,65,64
367872,note_off,,192,0,1,,,,,,0,72,64
368256,note_on,,0,0,2,,,,,,0,57,92
368256,note_off,,1152,0,2,,,,,,0,58,64
368256,note_off,,384,0,1,,,,,,0,74,64
368256,note_on,,0,0,1,,,,,,0,67,92
368448,note_on,,0,0,2,,,,,,0,55,92
368448,note_off,,192,0,2,,,,,,0,57,64
368640,note_off,,384,0,1,,,,,,0,67,64
368640,note_on,,0,0,1,,,,,,0,72,92
368640,note_on,,0,0,2,,,,,,0,57,92
368640,note_off,,192,0,2,,,,,,0,55,64
369024,note_off,,384,0,1,,,,,,0,70,64
369024,note_on,,0,0,1,,,,,,0,69,92
369024,note_on,,0,0,2,,,,,,0,50,92
369024,note_off,,384,0,2,,,,,,0,57,64
369216,note_off,,192,0,1,,,,,,0,69,64
369216,note_on,,0,0,1,,,,,,0,67,92
369408,note_on,,0,0,2,,,,,,0,55,92
369408,note_off,,384,0,2,,,,,,0,50,64
369408,note_on,,0,0,1,,,,,,0,69,92
369408,note_off,,192,0,1,,,,,,0,67,64
369792,note_on,,0,0,1,,,,,,0,62,92
369792,note_off,,0,0,1,,,,,,0,72,64
369792,note_on,,0,0,1,,,,,,0,70,92
369792,note_off,,384,0,1,,,,,,0,69,64
369984,note_off,,192,0,1,,,,,,0,70,64
369984,note_on,,0,0,1,,,,,,0,69,92
370176,note_off,,0,0,1,,,,,,0,62,64
370176,note_off,,192,0,1,,,,,,0,69,64
370176,note_on,,0,0,1,,,,,,0,67,92
370176,note_on,,0,0,1,,,,,,0,70,92
370560,note_off,,384,0,1,,,,,,0,70,64
370560,note_on,,0,0,1,,,,,,0,63,92
370560,note_off,,1152,0,2,,,,,,0,55,64
370560,note_on,,0,0,2,,,,,,0,53,92
370752,note_on,,0,0,2,,,,,,0,51,92
370752,note_off,,192,0,2,,,,,,0,53,64
370944,note_on,,0,0,1,,,,,,0,68,92
370944,note_off,,384,0,1,,,,,,0,63,64
370944,note_on,,0,0,2,,,,,,0,53,92
370944,note_off,,192,0,2,,,,,,0,51,64
371328,note_off,,384,0,2,,,,,,0,53,64
371328,note_on,,0,0,1,,,,,,0,65,92
371328,note_off,,384,0,1,,,,,,0,67,64
371328,note_on,,0,0,2,,,,,,0,46,92
371520,note_on,,0,0,1,,,,,,0,63,92
371520,note_off,,192,0,1,,,,,,0,65,64
371712,note_off,,384,0,2,,,,,,0,46,64
371712,note_on,,0,0,2,,,,,,0,51,92
371712,note_on,,0,0,1,,,,,,0,65,92
371712,note_off,,192,0,1,,,,,,0,63,64
372096,note_off,,0,0,1,,,,,,0,68,64
372096,note_on,,0,0,1,,,,,,0,67,92
372096,note_on,,0,0,1,,,,,,0,58,92
372096,note_off,,384,0,1,,,,,,0,65,64
372288,note_on,,0,0,1,,,,,,0,65,92
372288,note_off,,192,0,1,,,,,,0,67,64
372480,note_on,,0,0,1,,,,,,0,67,92
372480,note_off,,0,0,1,,,,,,0,58,64
372480,note_off,,192,0,1,,,,,,0,65,64
372480,note_on,,0,0,1,,,,,,0,63,92
372864,note_on,,0,0,1,,,,,,0,72,92
372864,note_on,,0,0,2,,,,,,0,50,92
372864,note_off,,1152,0,2,,,,,,0,51,64
372864,note_off,,384,0,1,,,,,,0,67,64
373056,note_off,,192,0,2,,,,,,0,50,64
373056,note_on,,0,0,2,,,,,,0,48,92
373248,note_off,,192,0,2,,,,,,0,48,64
373248,note_on,,0,0,2,,,,,,0,50,92
373248,note_off,,384,0,1,,,,,,0,63,64
373248,note_on,,0,0,1,,,,,,0,65,92
373632,note_off,,384,0,1,,,,,,0,65,64
373632,note_off,,0,0,1,,,,,,0,72,64
373632,note_off,,384,0,2,,,,,,0,50,64
373632,note_on,,0,0,1,,,,,,0,70,92
373632,note_on,,0,0,2,,,,,,0,43,92
374016,note_off,,384,0,2,,,,,,0,43,64
374016,note_on,,0,0,2,,,,,,0,48,92
374016,note_on,,384,0,1,,,,,,0,75,92
374208,note_off,,192,0,1,,,,,,0,70,64
374208,note_on,,0,0,1,,,,,,0,70,92
374400,note_off,,384,0,2,,,,,,0,48,64
374400,note_on,,0,0,2,,,,,,0,41,92
374400,note_off,,192,0,1,,,,,,0,70,64
374400,note_on,,0,0,1,,,,,,0,69,92
374592,note_on,,0,0,1,,,,,,0,67,92
374592,note_off,,192,0,1,,,,,,0,69,64
374784,note_off,,384,0,2,,,,,,0,41,64
374784,note_on,,0,0,2,,,,,,0,46,92
374784,note_on,,0,0,1,,,,,,0,65,92
374784,note_off,,192,0,1,,,,,,0,67,64
374976,note_on,,0,0,1,,,,,,0,74,92
374976,note_off,,192,0,1,,,,,,0,75,64
375168,note_on,,0,0,2,,,,,,0,39,92
375168,note_off,,384,0,2,,,,,,0,46,64
375168,note_off,,192,0,1,,,,,,0,74,64
375168,note_off,,0,0,1,,,,,,0,65,64
375168,note_on,,0,0,1,,,,,,0,67,92
375168,note_on,,0,0,1,,,,,,0,72,92
375360,note_off,,192,0,1,,,,,,0,72,64
375360,note_on,,0,0,1,,,,,,0,70,92
375552,note_on,,0,0,1,,,,,,0,69,92
375552,note_off,,384,0,2,,,,,,0,39,64
375552,note_on,,0,0,2,,,,,,0,41,92
375552,note_off,,192,0,1,,,,,,0,70,64
375744,note_off,,192,0,1,,,,,,0,67,64
375744,note_on,,0,0,1,,,,,,0,67,92
375936,note_off,,192,0,1,,,,,,0,67,64
375936,note_on,,0,0,1,,,,,,0,65,92
376128,note_off,,192,0,1,,,,,,0,65,64
376128,note_on,,0,0,1,,,,,,0,63,92
376320,note_on,,0,0,1,,,,,,0,70,92
376320,note_off,,0,0,1,,,,,,0,69,64
376320,note_on,,0,0,1,,,,,,0,62,92
376320,note_off,,192,0,1,,,,,,0,63,64
376320,note_off,,768,0,2,,,,,,0,41,64
376320,note_on,,0,0,2,,,,,,0,46,92
376704,note_off,,384,0,1,,,,,,0,70,64
376704,note_on,,0,0,1,,,,,,0,77,92
376704,note_off,,0,0,1,,,,,,0,62,64
376704,note_on,,0,0,1,,,,,,0,74,92
377088,note_on,,0,0,1,,,,,,0,67,92
377088,note_on,,0,0,2,,,,,,0,48,92
377088,note_off,,768,0,2,,,,,,0,46,64
377088,note_off,,384,0,1,,,,,,0,74,64
377280,note_off,,192,0,1,,,,,,0,67,64
377280,note_on,,0,0,1,,,,,,0,69,92
377472,note_off,,192,0,1,,,,,,0,69,64
377472,note_off,,0,0,1,,,,,,0,77,64
377472,note_on,,0,0,1,,,,,,0,75,92
377472,note_on,,0,0,1,,,,,,0,67,92
377664,note_on,,0,0,1,,,,,,0,72,92
377664,note_off,,192,0,1,,,,,,0,67,64
377856,note_on,,0,0,2,,,,,,0,50,92
377856,note_off,,192,0,1,,,,,,0,72,64
377856,note_on,,0,0,1,,,,,,0,65,92
377856,note_off,,768,0,2,,,,,,0,48,64
378048,note_on,,0,0,1,,,,,,0,67,92
378048,note_off,,192,0,1,,,,,,0,65,64
378240,note_on,,0,0,2,,,,,,0,46,92
378240,note_off,,384,0,2,,,,,,0,50,64
378240,note_on,,0,0,1,,,,,,0,74,92
378240,note_off,,0,0,1,,,,,,0,75,64
378240,note_on,,0,0,1,,,,,,0,65,92
378240,note_off,,192,0,1,,,,,,0,67,64
378432,note_on,,0,0,1,,,,,,0,70,92
378432,note_off,,192,0,1,,,,,,0,65,64
378624,note_on,,0,0,1,,,,,,0,67,92
378624,note_off,,192,0,1,,,,,,0,70,64
378624,note_off,,384,0,2,,,,,,0,46,64
378624,note_on,,0,0,2,,,,,,0,51,92
379008,note_on,,0,0,1,,,,,,0,72,92
379008,note_off,,384,0,1,,,,,,0,74,64
379200,note_off,,192,0,1,,,,,,0,72,64
379200,note_on,,0,0,1,,,,,,0,70,92
379392,note_off,,192,0,1,,,,,,0,70,64
379392,note_off,,0,0,1,,,,,,0,67,64
379392,note_on,,0,0,1,,,,,,0,60,92
379392,note_on,,0,0,1,,,,,,0,69,92
379776,note_on,,0,0,2,,,,,,0,50,92
379776,note_on,,0,0,2,,,,,,0,58,92
379776,note_off,,1152,0,2,,,,,,0,51,64
379776,note_off,,384,0,1,,,,,,0,69,64
379776,note_on,,0,0,1,,,,,,0,77,92
379776,note_off,,0,0,1,,,,,,0,60,64
379968,note_off,,192,0,2,,,,,,0,58,64
379968,note_on,,0,0,2,,,,,,0,57,92
380160,note_on,,0,0,2,,,,,,0,55,92
380160,note_on,,0,0,2,,,,,,0,58,92
380160,note_off,,0,0,2,,,,,,0,50,64
380160,note_off,,192,0,2,,,,,,0,57,64
380544,note_off,,768,0,1,,,,,,0,77,64
380544,note_on,,0,0,1,,,,,,0,75,92
380736,note_off,,192,0,1,,,,,,0,75,64
380736,note_on,,0,0,1,,,,,,0,74,92
380928,note_off,,768,0,2,,,,,,0,58,64
380928,note_on,,0,0,2,,,,,,0,63,92
380928,note_off,,192,0,1,,,,,,0,74,64
380928,note_on,,0,0,1,,,,,,0,72,92
381312,note_on,,0,0,2,,,,,,0,53,92
381312,note_on,,0,0,2,,,,,,0,62,92
381312,note_off,,0,0,2,,,,,,0,55,64
381312,note_off,,384,0,1,,,,,,0,72,64
381312,note_off,,384,0,2,,,,,,0,63,64
381312,note_on,,0,0,1,,,,,,0,81,92
381504,note_on,,0,0,2,,,,,,0,60,92
381504,note_off,,192,0,2,,,,,,0,62,64
381696,note_on,,0,0,2,,,,,,0,58,92
381696,note_on,,0,0,2,,,,,,0,62,92
381696,note_off,,0,0,2,,,,,,0,53,64
381696,note_off,,192,0,2,,,,,,0,60,64
382080,note_off,,768,0,1,,,,,,0,81,64
382080,note_on,,0,0,1,,,,,,0,79,92
382272,note_on,,0,0,1,,,,,,0,77,92
382272,note_off,,192,0,1,,,,,,0,79,64
382464,note_on,,0,0,1,,,,,,0,76,92
382464,note_off,,192,0,1,,,,,,0,77,64
382464,note_off,,768,0,2,,,,,,0,62,64
382464,note_on,,0,0,2,,,,,,0,60,92
382656,note_off,,192,0,2,,,,,,0,60,64
382656,note_on,,0,0,2,,,,,,0,62,92
382848,note_on,,0,0,1,,,,,,0,77,92
382848,note_off,,0,0,2,,,,,,0,58,64
382848,note_off,,192,0,2,,,,,,0,62,64
382848,note_off,,384,0,1,,,,,,0,76,64
382848,note_on,,0,0,2,,,,,,0,56,92
382848,note_on,,0,0,2,,,,,,0,60,92
383040,note_off,,192,0,2,,,,,,0,60,64
383040,note_on,,0,0,1,,,,,,0,72,92
383040,note_off,,192,0,1,,,,,,0,77,64
383040,note_on,,0,0,2,,,,,,0,65,92
383232,note_on,,0,0,2,,,,,,0,58,92
383232,note_off,,192,0,2,,,,,,0,65,64
383232,note_on,,0,0,1,,,,,,0,74,92
383232,note_off,,192,0,1,,,,,,0,72,64
383424,note_off,,192,0,2,,,,,,0,58,64
383424,note_on,,0,0,2,,,,,,0,60,92
383616,note_on,,0,0,2,,,,,,0,58,92
383616,note_on,,0,0,1,,,,,,0,75,92
383616,note_off,,384,0,1,,,,,,0,74,64
383616,note_off,,192,0,2,,,,,,0,60,64
383616,note_off,,0,0,2,,,,,,0,56,64
383616,note_on,,0,0,2,,,,,,0,55,92
383808,note_off,,192,0,2,,,,,,0,58,64
383808,note_on,,0,0,1,,,,,,0,70,92
383808,note_off,,192,0,1,,,,,,0,75,64
383808,note_on,,0,0,2,,,,,,0,63,92
384000,note_off,,192,0,1,,,,,,0,70,64
384000,note_on,,0,0,1,,,,,,0,72,92
384000,note_off,,192,0,2,,,,,,0,63,64
384000,note_on,,0,0,2,,,,,,0,57,92
384192,note_off,,192,0,2,,,,,,0,57,64
384192,note_on,,0,0,2,,,,,,0,58,92
384384,note_on,,0,0,2,,,,,,0,57,92
384384,note_off,,0,0,2,,,,,,0,55,64
384384,note_on,,0,0,2,,,,,,0,53,92
384384,note_off,,384,0,1,,,,,,0,72,64
384384,note_on,,0,0,1,,,,,,0,74,92
384384,note_off,,192,0,2,,,,,,0,58,64
384576,note_on,,0,0,1,,,,,,0,69,92
384576,note_off,,192,0,2,,,,,,0,57,64
384576,note_on,,0,0,2,,,,,,0,62,92
384576,note_off,,192,0,1,,,,,,0,74,64
384768,note_off,,192,0,1,,,,,,0,69,64
384768,note_off,,192,0,2,,,,,,0,62,64
384768,note_on,,0,0,2,,,,,,0,55,92
384768,note_on,,0,0,1,,,,,,0,70,92
384960,note_on,,0,0,2,,,,,,0,57,92
384960,note_off,,192,0,2,,,,,,0,55,64
385152,note_on,,0,0,2,,,,,,0,55,92
385152,note_on,,0,0,2,,,,,,0,51,92
385152,note_off,,0,0,2,,,,,,0,53,64
385152,note_off,,384,0,1,,,,,,0,70,64
385152,note_on,,0,0,1,,,,,,0,72,92
385152,note_off,,192,0,2,,,,,,0,57,64
385344,note_on,,0,0,1,,,,,,0,67,92
385344,note_on,,0,0,2,,,,,,0,60,92
385344,note_off,,192,0,2,,,,,,0,55,64
385344,note_off,,192,0,1,,,,,,0,72,64
385536,note_on,,0,0,1,,,,,,0,69,92
385536,note_on,,0,0,2,,,,,,0,53,92
385536,note_off,,192,0,2,,,,,,0,60,64
385536,note_off,,192,0,1,,,,,,0,67,64
385920,note_on,,0,0,1,,,,,,0,70,92
385920,note_off,,384,0,1,,,,,,0,69,64
385920,note_on,,0,0,2,,,,,,0,50,92
385920,note_off,,384,0,2,,,,,,0,51,64
386304,note_off,,384,0,2,,,,,,0,50,64
386304,note_on,,384,0,1,,,,,,0,60,92
386304,note_on,,0,0,2,,,,,,0,51,92
386304,note_off,,0,0,2,,,,,,0,53,64
386688,note_off,,384,0,1,,,,,,0,70,64
386688,note_on,,0,0,1,,,,,,0,68,92
386688,note_on,,0,0,2,,,,,,0,52,92
386688,note_off,,384,0,2,,,,,,0,51,64
386880,note_off,,192,0,1,,,,,,0,68,64
386880,note_on,,0,0,1,,,,,,0,67,92
387072,note_off,,384,0,2,,,,,,0,52,64
387072,note_on,,0,0,1,,,,,,0,68,92
387072,note_off,,192,0,1,,,,,,0,67,64
387072,note_on,,0,0,2,,,,,,0,53,92
387264,note_off,,192,0,1,,,,,,0,60,64
387264,note_on,,0,0,1,,,,,,0,67,92
387456,note_off,,0,0,1,,,,,,0,68,64
387456,note_on,,0,0,1,,,,,,0,69,92
387456,note_on,,0,0,1,,,,,,0,65,92
387456,note_off,,192,0,1,,,,,,0,67,64
387648,note_off,,192,0,1,,,,,,0,65,64
387648,note_on,,0,0,1,,,,,,0,63,92
387840,note_on,,0,0,1,,,,,,0,62,92
387840,note_off,,0,0,1,,,,,,0,69,64
387840,note_off,,192,0,1,,,,,,0,63,64
387840,note_on,,0,0,1,,,,,,0,70,92
388032,note_on,,0,0,1,,,,,,0,60,92
388032,note_off,,192,0,1,,,,,,0,62,64
388224,note_on,,0,0,1,,,,,,0,59,92
388224,note_off,,0,0,1,,,,,,0,70,64
388224,note_off,,192,0,1,,,,,,0,60,64
388224,note_on,,0,0,1,,,,,,0,71,92
388416,note_off,,192,0,1,,,,,,0,59,64
388416,note_on,,0,0,1,,,,,,0,57,92
388608,note_on,,0,0,1,,,,,,0,72,92
388608,note_on,,0,0,1,,,,,,0,55,92
388608,note_off,,0,0,1,,,,,,0,71,64
388608,note_off,,192,0,1,,,,,,0,57,64
388992,note_off,,1920,0,2,,,,,,0,53,64
388992,note_on,,0,0,2,,,,,,0,52,92
389376,note_off,,768,0,1,,,,,,0,55,64
389376,note_on,,0,0,1,,,,,,0,62,92
389376,note_on,,0,0,2,,,,,,0,53,92
389376,note_off,,384,0,2,,,,,,0,52,64
389760,note_on,,0,0,2,,,,,,0,54,92
389760,note_off,,384,0,2,,,,,,0,53,64
389760,note_off,,384,0,1,,,,,,0,72,64
389760,note_on,,0,0,1,,,,,,0,70,92
389952,note_off,,192,0,1,,,,,,0,70,64
389952,note_on,,0,0,1,,,,,,0,69,92
390144,note_on,,0,0,2,,,,,,0,55,92
390144,note_off,,192,0,1,,,,,,0,69,64
390144,note_off,,384,0,2,,,,,,0,54,64
390144,note_on,,0,0,1,,,,,,0,70,92
390336,note_on,,0,0,1,,,,,,0,69,92
390336,note_off,,192,0,1,,,,,,0,62,64
390528,note_off,,192,0,1,,,,,,0,69,64
390528,note_off,,0,0,1,,,,,,0,70,64
390528,note_on,,0,0,1,,,,,,0,71,92
390528,note_on,,0,0,1,,,,,,0,67,92
390720,note_on,,0,0,1,,,,,,0,65,92
390720,note_off,,192,0,1,,,,,,0,67,64
390912,note_off,,192,0,1,,,,,,0,65,64
390912,note_off,,0,0,1,,,,,,0,71,64
390912,note_on,,0,0,1,,,,,,0,72,92
390912,note_on,,0,0,1,,,,,,0,64,92
391104,note_off,,192,0,1,,,,,,0,64,64
391104,note_on,,0,0,1,,,,,,0,62,92
391296,note_off,,192,0,1,,,,,,0,62,64
391296,note_off,,0,0,1,,,,,,0,72,64
391296,note_on,,0,0,1,,,,,,0,61,92
391296,note_on,,0,0,1,,,,,,0,73,92
391488,note_off,,192,0,1,,,,,,0,61,64
391488,note_on,,0,0,1,,,,,,0,59,92
391680,note_off,,192,0,1,,,,,,0,59,64
391680,note_off,,0,0,1,,,,,,0,73,64
391680,note_on,,0,0,1,,,,,,0,57,92
391680,note_on,,0,0,1,,,,,,0,74,92
392064,note_off,,1920,0,2,,,,,,0,55,64
392064,note_on,,0,0,2,,,,,,0,53,92
392448,note_off,,768,0,1,,,,,,0,57,64
392448,note_on,,0,0,2,,,,,,0,58,92
392448,note_off,,384,0,2,,,,,,0,53,64
392832,note_on,,0,0,1,,,,,,0,65,92
392832,note_on,,0,0,1,,,,,,0,72,92
392832,note_off,,384,0,1,,,,,,0,74,64
393024,note_on,,0,0,1,,,,,,0,70,92
393024,note_off,,192,0,1,,,,,,0,72,64
393216,note_off,,192,0,1,,,,,,0,70,64
393216,note_off,,0,0,1,,,,,,0,65,64
393216,note_on,,0,0,1,,,,,,0,72,92
393216,note_on,,0,0,1,,,,,,0,64,92
393600,note_off,,1152,0,2,,,,,,0,58,64
393600,note_off,,384,0,1,,,,,,0,64,64
393600,note_off,,0,0,1,,,,,,0,72,64
393600,note_on,,0,0,1,,,,,,0,63,92
393600,note_on,,0,0,1,,,,,,0,65,92
393600,note_on,,0,0,2,,,,,,0,57,92
393792,note_off,,192,0,2,,,,,,0,57,64
393792,note_on,,0,0,2,,,,,,0,55,92
393984,note_off,,192,0,2,,,,,,0,55,64
393984,note_on,,0,0,2,,,,,,0,57,92
393984,note_off,,384,0,1,,,,,,0,65,64
393984,note_on,,0,0,1,,,,,,0,70,92
393984,note_on,,0,0,1,,,,,,0,62,92
393984,note_off,,0,0,1,,,,,,0,63,64
394368,note_on,,0,0,2,,,,,,0,50,92
394368,note_off,,384,0,2,,,,,,0,57,64
394752,note_off,,384,0,2,,,,,,0,50,64
394752,note_on,,0,0,2,,,,,,0,55,92
395136,note_off,,1152,0,1,,,,,,0,70,64
395136,note_on,,0,0,1,,,,,,0,69,92
395136,note_off,,0,0,1,,,,,,0,62,64
395136,note_on,,0,0,1,,,,,,0,62,92
395328,note_on,,0,0,1,,,,,,0,67,92
395328,note_off,,192,0,1,,,,,,0,69,64
395520,note_off,,0,0,1,,,,,,0,62,64
395520,note_on,,0,0,1,,,,,,0,61,92
395520,note_on,,0,0,1,,,,,,0,69,92
395520,note_off,,192,0,1,,,,,,0,67,64
395904,note_on,,0,0,2,,,,,,0,54,92
395904,note_off,,384,0,1,,,,,,0,69,64
395904,note_off,,0,0,1,,,,,,0,61,64
395904,note_on,,0,0,1,,,,,,0,60,92
395904,note_on,,0,0,1,,,,,,0,62,92
395904,note_off,,1152,0,2,,,,,,0,55,64
396096,note_on,,0,0,2,,,,,,0,52,92
396096,note_off,,192,0,2,,,,,,0,54,64
396288,note_off,,0,0,1,,,,,,0,60,64
396288,note_on,,0,0,1,,,,,,0,59,92
396288,note_on,,0,0,1,,,,,,0,67,92
396288,note_off,,384,0,1,,,,,,0,62,64
396288,note_off,,192,0,2,,,,,,0,52,64
396288,note_on,,0,0,2,,,,,,0,53,92
396672,note_off,,384,0,1,,,,,,0,59,64
396672,note_off,,384,0,2,,,,,,0,53,64
396672,note_on,,0,0,2,,,,,,0,47,92
396672,note_on,,0,0,1,,,,,,0,61,92
396864,note_off,,192,0,1,,,,,,0,61,64
396864,note_on,,0,0,1,,,,,,0,62,92
397056,note_on,,0,0,2,,,,,,0,52,92
397056,note_on,,0,0,1,,,,,,0,61,92
397056,note_off,,192,0,1,,,,,,0,62,64
397056,note_off,,384,0,2,,,,,,0,47,64
397440,note_on,,0,0,1,,,,,,0,65,92
397440,note_off,,384,0,1,,,,,,0,67,64
397632,note_off,,192,0,1,,,,,,0,65,64
397632,note_on,,0,0,1,,,,,,0,64,92
397824,note_off,,0,0,1,,,,,,0,61,64
397824,note_off,,192,0,1,,,,,,0,64,64
397824,note_on,,0,0,1,,,,,,0,62,92
397824,note_on,,0,0,1,,,,,,0,65,92
398208,note_off,,1152,0,2,,,,,,0,52,64
398208,note_on,,0,0,2,,,,,,0,50,92
398400,note_off,,192,0,2,,,,,,0,50,64
398400,note_on,,0,0,2,,,,,,0,49,92
398592,note_off,,768,0,1,,,,,,0,62,64
398592,note_off,,192,0,2,,,,,,0,49,64
398592,note_on,,0,0,2,,,,,,0,50,92
398784,note_on,,0,0,1,,,,,,0,66,92
398784,note_on,,0,0,2,,,,,,0,48,92
398784,note_off,,192,0,2,,,,,,0,50,64
398784,note_off,,192,0,1,,,,,,0,65,64
398976,note_off,,192,0,2,,,,,,0,48,64
398976,note_on,,0,0,2,,,,,,0,46,92
398976,note_on,,0,0,1,,,,,,0,67,92
398976,note_off,,192,0,1,,,,,,0,66,64
399168,note_off,,192,0,2,,,,,,0,46,64
399168,note_on,,0,0,2,,,,,,0,45,92
399168,note_on,,0,0,1,,,,,,0,69,92
399168,note_off,,192,0,1,,,,,,0,67,64
399360,note_off,,192,0,2,,,,,,0,45,64
399360,note_on,,0,0,1,,,,,,0,70,92
399360,note_off,,192,0,1,,,,,,0,69,64
399360,note_on,,0,0,2,,,,,,0,43,92
399552,note_off,,192,0,2,,,,,,0,43,64
399552,note_on,,0,0,2,,,,,,0,57,92
399552,note_off,,192,0,1,,,,,,0,70,64
399552,note_on,,0,0,1,,,,,,0,71,92
399744,note_off,,192,0,1,,,,,,0,71,64
399744,note_on,,0,0,1,,,,,,0,72,92
399744,note_off,,192,0,2,,,,,,0,57,64
399744,note_on,,0,0,2,,,,,,0,55,92
399936,note_off,,192,0,2,,,,,,0,55,64
399936,note_on,,0,0,2,,,,,,0,53,92
399936,note_on,,0,0,1,,,,,,0,74,92
399936,note_off,,192,0,1,,,,,,0,72,64
400128,note_on,,0,0,2,,,,,,0,52,92
400128,note_off,,192,0,2,,,,,,0,53,64
400128,note_off,,192,0,1,,,,,,0,74,64
400128,note_on,,0,0,1,,,,,,0,73,92
400320,note_off,,192,0,2,,,,,,0,52,64
400320,note_on,,0,0,2,,,,,,0,53,92
400320,note_on,,0,0,1,,,,,,0,74,92
400320,note_off,,192,0,1,,,,,,0,73,64
400512,note_on,,0,0,1,,,,,,0,76,92
400512,note_off,,192,0,1,,,,,,0,74,64
400512,note_on,,0,0,2,,,,,,0,52,92
400512,note_off,,192,0,2,,,,,,0,53,64
400560,note_off,,48,0,1,,,,,,0,76,64
400560,note_on,,0,0,1,,,,,,0,74,92
400608,note_off,,48,0,1,,,,,,0,74,64
400608,note_on,,0,0,1,,,,,,0,76,92
400656,note_off,,48,0,1,,,,,,0,76,64
400656,note_on,,0,0,1,,,,,,0,74,92
400704,note_on,,0,0,2,,,,,,0,50,92
400704,note_off,,192,0,2,,,,,,0,52,64
400704,note_off,,48,0,1,,,,,,0,74,64
400704,note_on,,0,0,1,,,,,,0,76,92
400752,note_on,,0,0,1,,,,,,0,74,92
400752,note_off,,48,0,1,,,,,,0,76,64
400800,note_off,,48,0,1,,,,,,0,74,64
400800,note_on,,0,0,1,,,,,,0,76,92
400848,note_off,,48,0,1,,,,,,0,76,64
400848,note_on,,0,0,1,,,,,,0,74,92
400896,note_off,,192,0,2,,,,,,0,50,64
400896,note_on,,0,0,1,,,,,,0,76,92
400896,note_on,,0,0,2,,,,,,0,49,92
400896,note_off,,48,0,1,,,,,,0,74,64
401280,note_on,,0,0,1,,,,,,0,69,92
401280,note_off,,384,0,2,,,,,,0,49,64
401280,note_on,,0,0,2,,,,,,0,50,92
401280,note_off,,384,0,1,,,,,,0,76,64
401472,note_on,,0,0,2,,,,,,0,52,92
401472,note_off,,192,0,2,,,,,,0,50,64
401664,note_on,,0,0,1,,,,,,0,81,92
401664,note_on,,0,0,2,,,,,,0,53,92
401664,note_off,,192,0,2,,,,,,0,52,64
401664,note_off,,384,0,1,,,,,,0,69,64
401856,note_on,,0,0,2,,,,,,0,55,92
401856,note_off,,192,0,2,,,,,,0,53,64
402048,note_on,,0,0,2,,,,,,0,57,92
402048,note_off,,192,0,2,,,,,,0,55,64
402240,note_on,,0,0,2,,,,,,0,53,92
402240,note_off,,192,0,2,,,,,,0,57,64
402432,note_on,,0,0,2,,,,,,0,58,92
402432,note_off,,192,0,2,,,,,,0,53,64
402816,note_off,,1152,0,1,,,,,,0,81,64
402816,note_on,,0,0,1,,,,,,0,79,92
403008,note_off,,192,0,1,,,,,,0,79,64
403008,note_on,,0,0,1,,,,,,0,77,92
403200,note_off,,192,0,1,,,,,,0,77,64
403200,note_on,,0,0,1,,,,,,0,79,92
403584,note_off,,384,0,1,,,,,,0,79,64
403584,note_on,,0,0,1,,,,,,0,72,92
403584,note_off,,1152,0,2,,,,,,0,58,64
403584,note_on,,0,0,2,,,,,,0,57,92
403776,note_on,,0,0,2,,,,,,0,55,92
403776,note_off,,192,0,2,,,,,,0,57,64
403968,note_off,,384,0,1,,,,,,0,72,64
403968,note_on,,0,0,1,,,,,,0,69,92
403968,note_on,,0,0,1,,,,,,0,77,92
403968,note_on,,0,0,2,,,,,,0,57,92
403968,note_off,,192,0,2,,,,,,0,55,64
404352,note_off,,384,0,2,,,,,,0,57,64
404352,note_on,,0,0,2,,,,,,0,50,92
404736,note_off,,384,0,2,,,,,,0,50,64
404736,note_on,,0,0,2,,,,,,0,55,92
404736,note_on,,0,0,2,,,,,,0,58,92
405120,note_off,,1152,0,1,,,,,,0,77,64
405120,note_off,,0,0,1,,,,,,0,69,64
405120,note_on,,0,0,1,,,,,,0,76,92
405120,note_on,,0,0,1,,,,,,0,67,92
405312,note_on,,0,0,1,,,,,,0,74,92
405312,note_on,,0,0,1,,,,,,0,65,92
405312,note_off,,0,0,1,,,,,,0,67,64
405312,note_off,,192,0,1,,,,,,0,76,64
405504,note_off,,0,0,1,,,,,,0,65,64
405504,note_off,,192,0,1,,,,,,0,74,64
405504,note_on,,0,0,1,,,,,,0,76,92
405504,note_on,,0,0,1,,,,,,0,67,92
405888,note_on,,0,0,2,,,,,,0,53,92
405888,note_off,,0,0,2,,,,,,0,55,64
405888,note_off,,1152,0,2,,,,,,0,58,64
405888,note_off,,384,0,1,,,,,,0,76,64
405888,note_off,,0,0,1,,,,,,0,67,64
405888,note_on,,0,0,2,,,,,,0,57,92
405888,note_on,,0,0,1,,,,,,0,61,92
405888,note_on,,0,0,1,,,,,,0,69,92
406080,note_off,,192,0,2,,,,,,0,57,64
406080,note_off,,0,0,2,,,,,,0,53,64
406080,note_on,,0,0,2,,,,,,0,52,92
406080,note_on,,0,0,2,,,,,,0,55,92
406272,note_on,,0,0,2,,,,,,0,53,92
406272,note_off,,192,0,2,,,,,,0,55,64
406272,note_off,,0,0,1,,,,,,0,61,64
406272,note_off,,0,0,2,,,,,,0,52,64
406272,note_on,,0,0,1,,,,,,0,65,92
406272,note_on,,0,0,1,,,,,,0,74,92
406272,note_off,,384,0,1,,,,,,0,69,64
406272,note_on,,0,0,2,,,,,,0,57,92
406656,note_off,,384,0,2,,,,,,0,57,64
406656,note_on,,0,0,2,,,,,,0,62,92
406656,note_on,,0,0,2,,,,,,0,58,92
406656,note_off,,0,0,2,,,,,,0,53,64
407040,note_on,,0,0,2,,,,,,0,58,92
407040,note_on,,0,0,2,,,,,,0,55,92
407040,note_off,,0,0,2,,,,,,0,58,64
407040,note_off,,384,0,2,,,,,,0,62,64
407040,note_off,,768,0,1,,,,,,0,65,64
407040,note_on,,0,0,1,,,,,,0,64,92
407424,note_on,,0,0,1,,,,,,0,73,92
407424,note_off,,384,0,1,,,,,,0,74,64
407424,note_on,,0,0,2,,,,,,0,55,92
407424,note_off,,0,0,2,,,,,,0,55,64
407424,note_off,,384,0,2,,,,,,0,58,64
407424,note_on,,0,0,2,,,,,,0,52,92
407616,note_off,,192,0,1,,,,,,0,73,64
407616,note_on,,0,0,1,,,,,,0,71,92
407808,note_off,,384,0,2,,,,,,0,55,64
407808,note_off,,0,0,2,,,,,,0,52,64
407808,note_on,,0,0,2,,,,,,0,57,92
407808,note_off,,192,0,1,,,,,,0,71,64
407808,note_on,,0,0,1,,,,,,0,72,92
408192,note_on,,384,0,2,,,,,,0,45,92
408192,note_on,,0,0,1,,,,,,0,65,92
408192,note_off,,384,0,1,,,,,,0,64,64
408384,note_off,,192,0,1,,,,,,0,65,64
408384,note_on,,0,0,1,,,,,,0,67,92
408576,note_off,,384,0,2,,,,,,0,45,64
408576,note_off,,0,0,1,,,,,,0,72,64
408576,note_on,,0,0,1,,,,,,0,74,92
408576,note_on,,0,0,1,,,,,,0,65,92
408576,note_on,,56064,0,3,,,,,,0,38,102
408576,note_on,,0,0,2,,,,,,0,50,92
408576,note_off,,192,0,1,,,,,,0,67,64
408960,note_on,,0,0,2,,,,,,0,58,92
408960,note_off,,384,0,2,,,,,,0,57,64
408960,note_on,,0,0,1,,,,,,0,62,92
408960,note_on,,0,0,1,,,,,,0,74,92
408960,note_off,,0,0,1,,,,,,0,74,64
408960,note_off,,384,0,1,,,,,,0,65,64
409152,note_on,,0,0,1,,,,,,0,72,92
409152,note_off,,192,0,1,,,,,,0,74,64
409152,note_off,,192,0,2,,,,,,0,58,64
409152,note_on,,0,0,2,,,,,,0,57,92
409344,note_off,,192,0,1,,,,,,0,72,64
409344,note_on,,0,0,1,,,,,,0,70,92
409344,note_off,,0,0,2,,,,,,0,50,64
409344,note_on,,0,0,2,,,,,,0,55,92
409344,note_on,,0,0,3,,,,,,0,40,102
409344,note_off,,768,0,3,,,,,,0,38,64
409344,note_off,,192,0,2,,,,,,0,57,64
409728,note_on,,0,0,1,,,,,,0,69,92
409728,note_off,,384,0,2,,,,,,0,55,64
409728,note_on,,0,0,2,,,,,,0,53,92
409728,note_off,,384,0,1,,,,,,0,70,64
409728,note_off,,0,0,1,,,,,,0,62,64
409728,note_on,,0,0,1,,,,,,0,61,92
409920,note_on,,0,0,1,,,,,,0,67,92
409920,note_off,,192,0,1,,,,,,0,69,64
409920,note_off,,192,0,2,,,,,,0,53,64
409920,note_on,,0,0,2,,,,,,0,52,92
410112,note_off,,192,0,1,,,,,,0,67,64
410112,note_off,,0,0,1,,,,,,0,61,64
410112,note_on,,0,0,1,,,,,,0,65,92
410112,note_on,,0,0,1,,,,,,0,62,92
410112,note_on,,0,0,3,,,,,,0,41,102
410112,note_off,,768,0,3,,,,,,0,40,64
410112,note_off,,192,0,2,,,,,,0,52,64
410112,note_on,,0,0,2,,,,,,0,50,92
410496,note_off,,384,0,1,,,,,,0,65,64
410496,note_on,,0,0,3,,,,,,0,38,102
410496,note_off,,384,0,3,,,,,,0,41,64
410496,note_off,,384,0,2,,,,,,0,50,64
410496,note_on,,0,0,2,,,,,,0,62,92
410496,note_on,,0,0,1,,,,,,0,70,92
410688,note_off,,192,0,1,,,,,,0,70,64
410688,note_on,,0,0,1,,,,,,0,69,92
410688,note_on,,0,0,2,,,,,,0,60,92
410688,note_off,,192,0,2,,,,,,0,62,64
410880,note_off,,192,0,1,,,,,,0,69,64
410880,note_on,,0,0,3,,,,,,0,43,102
410880,note_off,,384,0,3,,,,,,0,38,64
410880,note_on,,0,0,2,,,,,,0,58,92
410880,note_off,,192,0,2,,,,,,0,60,64
410880,note_off,,0,0,1,,,,,,0,62,64
410880,note_on,,0,0,1,,,,,,0,64,92
410880,note_on,,0,0,1,,,,,,0,67,92
411264,note_on,,0,0,1,,,,,,0,65,92
411264,note_off,,384,0,1,,,,,,0,67,64
411264,note_off,,384,0,2,,,,,,0,58,64
411264,note_on,,0,0,2,,,,,,0,57,92
411456,note_on,,0,0,1,,,,,,0,64,92
411456,note_on,,0,0,2,,,,,,0,55,92
411456,note_off,,0,0,1,,,,,,0,64,64
411456,note_off,,192,0,2,,,,,,0,57,64
411456,note_off,,192,0,1,,,,,,0,65,64
411648,note_off,,192,0,2,,,,,,0,55,64
411648,note_on,,0,0,2,,,,,,0,57,92
411648,note_on,,0,0,1,,,,,,0,65,92
411648,note_on,,0,0,1,,,,,,0,62,92
411648,note_off,,192,0,1,,,,,,0,64,64
412032,note_off,,1152,0,3,,,,,,0,43,64
412032,note_on,,0,0,3,,,,,,0,41,102
412032,note_on,,0,0,1,,,,,,0,77,92
412032,note_off,,0,0,1,,,,,,0,62,64
412032,note_on,,0,0,1,,,,,,0,62,92
412032,note_off,,384,0,2,,,,,,0,57,64
412032,note_on,,0,0,2,,,,,,0,57,92
412032,note_off,,384,0,1,,,,,,0,65,64
412416,note_on,,0,0,2,,,,,,0,62,92
412416,note_off,,384,0,1,,,,,,0,62,64
412416,note_on,,0,0,1,,,,,,0,67,92
412416,note_off,,384,0,2,,,,,,0,57,64
412416,note_off,,384,0,3,,,,,,0,41,64
412416,note_on,,0,0,3,,,,,,0,46,102
412800,note_off,,384,0,1,,,,,,0,77,64
412800,note_on,,0,0,1,,,,,,0,76,92
412992,note_off,,192,0,1,,,,,,0,76,64
412992,note_on,,0,0,1,,,,,,0,74,92
413184,note_off,,768,0,2,,,,,,0,62,64
413184,note_on,,0,0,2,,,,,,0,64,92
413184,note_on,,0,0,1,,,,,,0,73,92
413184,note_off,,192,0,1,,,,,,0,74,64
413568,note_on,,0,0,3,,,,,,0,45,102
413568,note_on,,0,0,1,,,,,,0,81,92
413568,note_off,,0,0,1,,,,,,0,67,64
413568,note_off,,1152,0,3,,,,,,0,46,64
413568,note_on,,0,0,1,,,,,,0,65,92
413568,note_off,,384,0,1,,,,,,0,73,64
413568,note_on,,0,0,2,,,,,,0,62,92
413568,note_off,,384,0,2,,,,,,0,64,64
413760,note_on,,0,0,2,,,,,,0,61,92
413760,note_off,,192,0,2,,,,,,0,62,64
413952,note_off,,384,0,1,,,,,,0,65,64
413952,note_on,,0,0,2,,,,,,0,62,92
413952,note_off,,192,0,2,,,,,,0,61,64
413952,note_off,,384,0,3,,,,,,0,45,64
413952,note_on,,0,0,3,,,,,,0,50,102
413952,note_on,,0,0,1,,,,,,0,70,92
414336,note_off,,384,0,1,,,,,,0,81,64
414336,note_on,,0,0,1,,,,,,0,79,92
414528,note_off,,192,0,1,,,,,,0,79,64
414528,note_on,,0,0,1,,,,,,0,77,92
414720,note_off,,192,0,1,,,,,,0,77,64
414720,note_on,,0,0,1,,,,,,0,76,92
414720,note_off,,768,0,2,,,,,,0,62,64
414720,note_on,,0,0,2,,,,,,0,67,92
415104,note_on,,0,0,2,,,,,,0,65,92
415104,note_off,,384,0,1,,,,,,0,70,64
415104,note_on,,0,0,1,,,,,,0,69,92
415104,note_off,,384,0,2,,,,,,0,67,64
415104,note_on,,0,0,3,,,,,,0,48,102
415104,note_off,,1152,0,3,,,,,,0,50,64
415296,note_off,,192,0,2,,,,,,0,65,64
415296,note_on,,0,0,2,,,,,,0,64,92
415488,note_off,,192,0,2,,,,,,0,64,64
415488,note_on,,0,0,2,,,,,,0,65,92
415488,note_on,,0,0,1,,,,,,0,74,92
415488,note_off,,0,0,1,,,,,,0,76,64
415488,note_off,,384,0,1,,,,,,0,69,64
415680,note_on,,192,0,1,,,,,,0,81,92
415872,note_off,,768,0,3,,,,,,0,48,64
415872,note_on,,0,0,2,,,,,,0,70,92
415872,note_off,,384,0,2,,,,,,0,65,64
415872,note_on,,0,0,1,,,,,,0,79,92
415872,note_on,,0,0,3,,,,,,0,46,102
415872,note_off,,192,0,1,,,,,,0,81,64
416064,note_on,,0,0,2,,,,,,0,69,92
416064,note_off,,192,0,2,,,,,,0,70,64
416064,note_off,,192,0,1,,,,,,0,79,64
416064,note_on,,0,0,1,,,,,,0,77,92
416256,note_on,,0,0,1,,,,,,0,76,92
416256,note_off,,192,0,1,,,,,,0,77,64
416256,note_on,,0,0,2,,,,,,0,67,92
416256,note_off,,192,0,2,,,,,,0,69,64
416448,note_off,,192,0,2,,,,,,0,67,64
416448,note_off,,192,0,1,,,,,,0,76,64
416448,note_on,,0,0,2,,,,,,0,64,92
416448,note_on,,0,0,1,,,,,,0,79,92
416640,note_on,,0,0,2,,,,,,0,69,92
416640,note_on,,0,0,3,,,,,,0,45,102
416640,note_off,,192,0,2,,,,,,0,64,64
416640,note_off,,192,0,1,,,,,,0,79,64
416640,note_off,,0,0,1,,,,,,0,74,64
416640,note_on,,0,0,1,,,,,,0,72,92
416640,note_on,,0,0,1,,,,,,0,77,92
416640,note_off,,768,0,3,,,,,,0,46,64
416832,note_on,,0,0,2,,,,,,0,67,92
416832,note_on,,0,0,1,,,,,,0,76,92
416832,note_off,,192,0,1,,,,,,0,77,64
416832,note_off,,192,0,2,,,,,,0,69,64
417024,note_on,,0,0,2,,,,,,0,65,92
417024,note_off,,192,0,2,,,,,,0,67,64
417024,note_off,,192,0,1,,,,,,0,76,64
417024,note_on,,0,0,1,,,,,,0,74,92
417216,note_on,,0,0,2,,,,,,0,62,92
417216,note_off,,192,0,1,,,,,,0,74,64
417216,note_on,,0,0,1,,,,,,0,77,92
417216,note_off,,192,0,2,,,,,,0,65,64
417408,note_off,,192,0,2,,,,,,0,62,64
417408,note_off,,192,0,1,,,,,,0,77,64
417408,note_off,,0,0,1,,,,,,0,72,64
417408,note_on,,0,0,1,,,,,,0,76,92
417408,note_on,,0,0,1,,,,,,0,70,92
417408,note_off,,768,0,3,,,,,,0,45,64
417408,note_on,,0,0,3,,,,,,0,43,102
417408,note_on,,0,0,2,,,,,,0,67,92
417600,note_off,,192,0,1,,,,,,0,76,64
417600,note_off,,192,0,2,,,,,,0,67,64
417600,note_on,,0,0,2,,,,,,0,65,92
417600,note_on,,0,0,1,,,,,,0,74,92
417792,note_off,,192,0,1,,,,,,0,74,64
417792,note_on,,0,0,1,,,,,,0,73,92
417792,note_on,,0,0,2,,,,,,0,64,92
417792,note_off,,192,0,2,,,,,,0,65,64
417984,note_on,,0,0,1,,,,,,0,76,92
417984,note_off,,192,0,1,,,,,,0,73,64
417984,note_off,,192,0,2,,,,,,0,64,64
417984,note_on,,0,0,2,,,,,,0,61,92
418176,note_off,,192,0,2,,,,,,0,61,64
418176,note_on,,0,0,3,,,,,,0,41,102
418176,note_off,,768,0,3,,,,,,0,43,64
418176,note_on,,0,0,1,,,,,,0,74,92
418176,note_on,,0,0,1,,,,,,0,69,92
418176,note_off,,0,0,1,,,,,,0,70,64
418176,note_on,,0,0,2,,,,,,0,65,92
418176,note_off,,192,0,1,,,,,,0,76,64
418368,note_off,,192,0,2,,,,,,0,65,64
418368,note_on,,0,0,2,,,,,,0,62,92
418368,note_off,,192,0,1,,,,,,0,74,64
418368,note_on,,0,0,1,,,,,,0,77,92
418560,note_off,,384,0,3,,,,,,0,41,64
418560,note_on,,0,0,2,,,,,,0,64,92
418560,note_off,,192,0,2,,,,,,0,62,64
418560,note_on,,0,0,3,,,,,,0,40,102
418560,note_off,,192,0,1,,,,,,0,77,64
418560,note_on,,0,0,1,,,,,,0,71,92
418752,note_off,,192,0,1,,,,,,0,71,64
418752,note_on,,0,0,1,,,,,,0,74,92
418752,note_on,,0,0,2,,,,,,0,62,92
418752,note_off,,192,0,2,,,,,,0,64,64
418944,note_off,,0,0,1,,,,,,0,69,64
418944,note_on,,0,0,1,,,,,,0,67,92
418944,note_on,,0,0,1,,,,,,0,73,92
418944,note_on,,0,0,2,,,,,,0,64,92
418944,note_off,,192,0,2,,,,,,0,62,64
418944,note_off,,192,0,1,,,,,,0,74,64
419136,note_off,,192,0,2,,,,,,0,64,64
419136,note_on,,0,0,1,,,,,,0,76,92
419136,note_off,,192,0,1,,,,,,0,73,64
419136,note_on,,0,0,2,,,,,,0,61,92
419328,note_off,,768,0,3,,,,,,0,40,64
419328,note_off,,192,0,1,,,,,,0,76,64
419328,note_on,,0,0,1,,,,,,0,69,92
419328,note_on,,0,0,3,,,,,,0,38,102
419328,note_on,,0,0,2,,,,,,0,62,92
419328,note_off,,192,0,2,,,,,,0,61,64
419520,note_on,,0,0,2,,,,,,0,61,92
419520,note_off,,192,0,2,,,,,,0,62,64
419712,note_on,,0,0,2,,,,,,0,62,92
419712,note_off,,384,0,1,,,,,,0,69,64
419712,note_on,,0,0,1,,,,,,0,74,92
419712,note_off,,384,0,3,,,,,,0,38,64
419712,note_on,,0,0,3,,,,,,0,41,102
419712,note_off,,0,0,1,,,,,,0,67,64
419712,note_on,,0,0,1,,,,,,0,65,92
419712,note_off,,192,0,2,,,,,,0,61,64
419904,note_off,,192,0,2,,,,,,0,62,64
419904,note_on,,0,0,2,,,,,,0,57,92
420096,note_off,,192,0,2,,,,,,0,57,64
420096,note_on,,0,0,2,,,,,,0,58,92
420096,note_on,,0,0,3,,,,,,0,43,102
420096,note_off,,384,0,1,,,,,,0,65,64
420096,note_on,,0,0,1,,,,,,0,64,92
420096,note_off,,384,0,3,,,,,,0,41,64
420480,note_on,,0,0,2,,,,,,0,57,92
420480,note_off,,384,0,1,,,,,,0,74,64
420480,note_on,,0,0,1,,,,,,0,73,92
420480,note_off,,384,0,2,,,,,,0,58,64
420480,note_on,,0,0,3,,,,,,0,45,102
420480,note_off,,384,0,3,,,,,,0,43,64
420672,note_off,,192,0,2,,,,,,0,57,64
420672,note_on,,0,0,2,,,,,,0,55,92
420864,note_off,,192,0,2,,,,,,0,55,64
420864,note_on,,0,0,2,,,,,,0,53,92
420864,note_off,,384,0,3,,,,,,0,45,64
420864,note_on,,0,0,3,,,,,,0,46,102
420864,note_off,,384,0,1,,,,,,0,73,64
420864,note_on,,0,0,1,,,,,,0,62,92
420864,note_on,,0,0,1,,,,,,0,74,92
420864,note_off,,0,0,1,,,,,,0,64,64
421056,note_off,,192,0,1,,,,,,0,62,64
421056,note_on,,0,0,1,,,,,,0,65,92
421248,note_on,,0,0,1,,,,,,0,64,92
421248,note_off,,0,0,1,,,,,,0,74,64
421248,note_off,,192,0,1,,,,,,0,65,64
421248,note_on,,0,0,2,,,,,,0,55,92
421248,note_off,,384,0,2,,,,,,0,53,64
421440,note_off,,192,0,1,,,,,,0,64,64
421440,note_on,,0,0,1,,,,,,0,67,92
421632,note_off,,192,0,1,,,,,,0,67,64
421632,note_on,,0,0,3,,,,,,0,45,102
421632,note_off,,768,0,3,,,,,,0,46,64
421632,note_on,,0,0,1,,,,,,0,65,92
421632,note_off,,384,0,2,,,,,,0,55,64
421632,note_on,,0,0,2,,,,,,0,48,92
421824,note_on,,0,0,1,,,,,,0,67,92
421824,note_off,,192,0,1,,,,,,0,65,64
422016,note_on,,0,0,2,,,,,,0,55,92
422016,note_on,,0,0,3,,,,,,0,47,102
422016,note_off,,384,0,3,,,,,,0,45,64
422016,note_off,,192,0,1,,,,,,0,67,64
422016,note_on,,0,0,1,,,,,,0,62,92
422016,note_off,,384,0,2,,,,,,0,48,64
422208,note_off,,192,0,1,,,,,,0,62,64
422208,note_on,,0,0,1,,,,,,0,65,92
422400,note_on,,0,0,3,,,,,,0,48,102
422400,note_off,,384,0,3,,,,,,0,47,64
422400,note_off,,192,0,1,,,,,,0,65,64
422400,note_on,,0,0,1,,,,,,0,64,92
422592,note_off,,192,0,1,,,,,,0,64,64
422592,note_on,,0,0,1,,,,,,0,67,92
422784,note_off,,768,0,2,,,,,,0,55,64
422784,note_on,,0,0,1,,,,,,0,66,92
422784,note_off,,192,0,1,,,,,,0,67,64
422784,note_on,,0,0,2,,,,,,0,57,92
422976,note_on,,0,0,1,,,,,,0,69,92
422976,note_off,,192,0,1,,,,,,0,66,64
423168,note_off,,384,0,2,,,,,,0,57,64
423168,note_on,,0,0,2,,,,,,0,50,92
423168,note_off,,768,0,3,,,,,,0,48,64
423168,note_on,,0,0,3,,,,,,0,47,102
423168,note_on,,0,0,1,,,,,,0,67,92
423168,note_off,,192,0,1,,,,,,0,69,64
423360,note_off,,192,0,1,,,,,,0,67,64
423360,note_on,,0,0,1,,,,,,0,69,92
423552,note_on,,0,0,3,,,,,,0,49,102
423552,note_off,,384,0,3,,,,,,0,47,64
423552,note_on,,0,0,1,,,,,,0,64,92
423552,note_off,,192,0,1,,,,,,0,69,64
423552,note_off,,384,0,2,,,,,,0,50,64
423552,note_on,,0,0,2,,,,,,0,57,92
423744,note_off,,192,0,1,,,,,,0,64,64
423744,note_on,,0,0,1,,,,,,0,67,92
423936,note_on,,0,0,3,,,,,,0,50,102
423936,note_off,,384,0,3,,,,,,0,49,64
423936,note_on,,0,0,1,,,,,,0,66,92
423936,note_off,,192,0,1,,,,,,0,67,64
424128,note_on,,0,0,1,,,,,,0,69,92
424128,note_off,,192,0,1,,,,,,0,66,64
424320,note_off,,768,0,2,,,,,,0,57,64
424320,note_off,,192,0,1,,,,,,0,69,64
424320,note_on,,0,0,1,,,,,,0,68,92
424320,note_on,,0,0,2,,,,,,0,59,92
424512,note_off,,192,0,1,,,,,,0,68,64
424512,note_on,,0,0,1,,,,,,0,71,92
424704,note_on,,0,0,2,,,,,,0,52,92
424704,note_off,,192,0,1,,,,,,0,71,64
424704,note_on,,0,0,1,,,,,,0,69,92
424704,note_off,,384,0,2,,,,,,0,59,64
424704,note_on,,0,0,3,,,,,,0,49,102
424704,note_off,,768,0,3,,,,,,0,50,64
424896,note_on,,0,0,1,,,,,,0,71,92
424896,note_off,,192,0,1,,,,,,0,69,64
425088,note_off,,384,0,2,,,,,,0,52,64
425088,note_on,,0,0,2,,,,,,0,59,92
425088,note_on,,0,0,3,,,,,,0,51,102
425088,note_off,,384,0,3,,,,,,0,49,64
425088,note_on,,0,0,1,,,,,,0,66,92
425088,note_off,,192,0,1,,,,,,0,71,64
425280,note_off,,192,0,1,,,,,,0,66,64
425280,note_on,,0,0,1,,,,,,0,69,92
425472,note_off,,384,0,3,,,,,,0,51,64
425472,note_on,,0,0,3,,,,,,0,52,102
425472,note_on,,0,0,1,,,,,,0,68,92
425472,note_off,,192,0,1,,,,,,0,69,64
425664,note_on,,0,0,3,,,,,,0,53,102
425664,note_off,,192,0,3,,,,,,0,52,64
425856,note_off,,192,0,3,,,,,,0,53,64
425856,note_on,,0,0,1,,,,,,0,76,92
425856,note_off,,384,0,1,,,,,,0,68,64
425856,note_on,,0,0,3,,,,,,0,52,102
426048,note_on,,0,0,3,,,,,,0,53,102
426048,note_off,,192,0,3,,,,,,0,52,64
426240,note_off,,192,0,3,,,,,,0,53,64
426240,note_off,,1152,0,2,,,,,,0,59,64
426240,note_on,,0,0,3,,,,,,0,52,102
426432,note_off,,192,0,3,,,,,,0,52,64
426432,note_on,,0,0,3,,,,,,0,53,102
426624,note_off,,192,0,3,,,,,,0,53,64
426624,note_on,,0,0,3,,,,,,0,52,102
426624,note_off,,768,0,1,,,,,,0,76,64
426624,note_on,,0,0,1,,,,,,0,74,92
426816,note_on,,0,0,1,,,,,,0,72,92
426816,note_off,,192,0,3,,,,,,0,52,64
426816,note_off,,192,0,1,,,,,,0,74,64
426816,note_on,,0,0,3,,,,,,0,53,102
427008,note_on,,0,0,1,,,,,,0,74,92
427008,note_off,,192,0,1,,,,,,0,72,64
427008,note_off,,192,0,3,,,,,,0,53,64
427008,note_on,,0,0,3,,,,,,0,53,102
427104,note_on,,0,0,3,,,,,,0,52,102
427104,note_off,,96,0,3,,,,,,0,53,64
427200,note_on,,0,0,3,,,,,,0,53,102
427200,note_off,,96,0,3,,,,,,0,52,64
427296,note_off,,96,0,3,,,,,,0,53,64
427296,note_on,,0,0,3,,,,,,0,52,102
427392,note_off,,96,0,3,,,,,,0,52,64
427392,note_on,,0,0,1,,,,,,0,68,92
427392,note_off,,384,0,1,,,,,,0,74,64
427392,note_on,,1152,0,2,,,,,,0,64,92
427392,note_on,,0,0,3,,,,,,0,53,102
427488,note_off,,96,0,3,,,,,,0,53,64
427488,note_on,,0,0,3,,,,,,0,52,102
427584,note_off,,96,0,3,,,,,,0,52,64
427584,note_on,,0,0,3,,,,,,0,53,102
427680,note_on,,0,0,3,,,,,,0,52,102
427680,note_off,,96,0,3,,,,,,0,53,64
427776,note_off,,96,0,3,,,,,,0,52,64
427776,note_off,,384,0,1,,,,,,0,68,64
427776,note_on,,0,0,1,,,,,,0,72,92
427776,note_on,,0,0,3,,,,,,0,53,102
427872,note_on,,0,0,3,,,,,,0,52,102
427872,note_off,,96,0,3,,,,,,0,53,64
427968,note_off,,96,0,3,,,,,,0,52,64
427968,note_on,,0,0,3,,,,,,0,53,102
428064,note_off,,96,0,3,,,,,,0,53,64
428064,note_on,,0,0,3,,,,,,0,52,102
428160,note_off,,768,0,2,,,,,,0,64,64
428160,note_on,,0,0,2,,,,,,0,62,92
428160,note_on,,0,0,3,,,,,,0,53,102
428160,note_off,,96,0,3,,,,,,0,52,64
428256,note_off,,96,0,3,,,,,,0,53,64
428256,note_on,,0,0,3,,,,,,0,52,102
428352,note_off,,192,0,2,,,,,,0,62,64
428352,note_on,,0,0,2,,,,,,0,60,92
428352,note_off,,96,0,3,,,,,,0,52,64
428352,note_on,,0,0,3,,,,,,0,53,102
428448,note_on,,0,0,3,,,,,,0,52,102
428448,note_off,,96,0,3,,,,,,0,53,64
428544,note_on,,0,0,2,,,,,,0,62,92
428544,note_on,,0,0,3,,,,,,0,53,102
428544,note_off,,192,0,2,,,,,,0,60,64
428544,note_off,,96,0,3,,,,,,0,52,64
428640,note_off,,96,0,3,,,,,,0,53,64
428640,note_on,,0,0,3,,,,,,0,52,102
428736,note_off,,96,0,3,,,,,,0,52,64
428736,note_on,,0,0,3,,,,,,0,53,102
428832,note_off,,96,0,3,,,,,,0,53,64
428832,note_on,,0,0,3,,,,,,0,52,102
428928,note_on,,0,0,2,,,,,,0,56,92
428928,note_off,,1152,0,1,,,,,,0,72,64
428928,note_on,,0,0,1,,,,,,0,71,92
428928,note_off,,96,0,3,,,,,,0,52,64
428928,note_on,,0,0,3,,,,,,0,53,102
428928,note_off,,384,0,2,,,,,,0,62,64
429024,note_on,,0,0,3,,,,,,0,52,102
429024,note_off,,96,0,3,,,,,,0,53,64
429120,note_on,,0,0,3,,,,,,0,53,102
429120,note_off,,192,0,1,,,,,,0,71,64
429120,note_on,,0,0,1,,,,,,0,69,92
429120,note_off,,96,0,3,,,,,,0,52,64
429216,note_off,,96,0,3,,,,,,0,53,64
429216,note_on,,0,0,3,,,,,,0,52,102
429312,note_off,,96,0,3,,,,,,0,52,64
429312,note_on,,0,0,3,,,,,,0,53,102
429312,note_on,,0,0,1,,,,,,0,71,92
429312,note_on,,0,0,2,,,,,,0,60,92
429312,note_off,,192,0,1,,,,,,0,69,64
429312,note_off,,384,0,2,,,,,,0,56,64
429408,note_off,,96,0,3,,,,,,0,53,64
429408,note_on,,0,0,3,,,,,,0,52,102
429504,note_off,,96,0,3,,,,,,0,52,64
429504,note_on,,0,0,3,,,,,,0,53,102
429600,note_off,,96,0,3,,,,,,0,53,64
429600,note_on,,0,0,3,,,,,,0,52,102
429696,note_on,,0,0,1,,,,,,0,64,92
429696,note_off,,384,0,1,,,,,,0,71,64
429696,note_off,,96,0,3,,,,,,0,52,64
429696,note_on,,0,0,3,,,,,,0,53,102
429792,note_off,,96,0,3,,,,,,0,53,64
429792,note_on,,0,0,3,,,,,,0,52,102
429888,note_off,,96,0,3,,,,,,0,52,64
429888,note_on,,0,0,3,,,,,,0,53,102
429984,note_off,,96,0,3,,,,,,0,53,64
429984,note_on,,0,0,3,,,,,,0,52,102
430080,note_off,,96,0,3,,,,,,0,52,64
430080,note_on,,0,0,3,,,,,,0,53,102
430080,note_off,,384,0,1,,,,,,0,64,64
430080,note_on,,0,0,1,,,,,,0,69,92
430176,note_off,,96,0,3,,,,,,0,53,64
430176,note_on,,0,0,3,,,,,,0,52,102
430272,note_on,,0,0,3,,,,,,0,53,102
430272,note_off,,96,0,3,,,,,,0,52,64
430368,note_off,,96,0,3,,,,,,0,53,64
430368,note_on,,0,0,3,,,,,,0,52,102
430464,note_off,,1152,0,2,,,,,,0,60,64
430464,note_off,,96,0,3,,,,,,0,52,64
430464,note_on,,0,0,3,,,,,,0,53,102
430464,note_on,,0,0,2,,,,,,0,59,92
430560,note_off,,96,0,3,,,,,,0,53,64
430560,note_on,,0,0,3,,,,,,0,52,102
430656,note_off,,192,0,2,,,,,,0,59,64
430656,note_on,,0,0,2,,,,,,0,57,92
430656,note_off,,96,0,3,,,,,,0,52,64
430656,note_on,,0,0,3,,,,,,0,53,102
430752,note_off,,96,0,3,,,,,,0,53,64
430752,note_on,,0,0,3,,,,,,0,52,102
430848,note_off,,96,0,3,,,,,,0,52,64
430848,note_on,,0,0,3,,,,,,0,53,102
430848,note_off,,192,0,2,,,,,,0,57,64
430848,note_on,,0,0,2,,,,,,0,59,92
430944,note_on,,0,0,3,,,,,,0,52,102
430944,note_off,,96,0,3,,,,,,0,53,64
431040,note_on,,0,0,1,,,,,,0,66,92
431040,note_off,,960,0,1,,,,,,0,69,64
431040,note_on,,0,0,3,,,,,,0,53,102
431040,note_off,,96,0,3,,,,,,0,52,64
431136,note_on,,0,0,3,,,,,,0,52,102
431136,note_off,,96,0,3,,,,,,0,53,64
431232,note_off,,96,0,3,,,,,,0,52,64
431232,note_on,,0,0,1,,,,,,0,68,92
431232,note_on,,0,0,2,,,,,,0,52,92
431232,note_on,,0,0,3,,,,,,0,53,102
431232,note_off,,384,0,2,,,,,,0,59,64
431232,note_off,,192,0,1,,,,,,0,66,64
431328,note_on,,0,0,3,,,,,,0,52,102
431328,note_off,,96,0,3,,,,,,0,53,64
431424,note_on,,0,0,3,,,,,,0,53,102
431424,note_off,,96,0,3,,,,,,0,52,64
431424,note_on,,0,0,1,,,,,,0,64,92
431424,note_off,,192,0,1,,,,,,0,68,64
431520,note_off,,96,0,3,,,,,,0,53,64
431520,note_on,,0,0,3,,,,,,0,52,102
431616,note_off,,192,0,1,,,,,,0,64,64
431616,note_on,,0,0,2,,,,,,0,57,92
431616,note_off,,96,0,3,,,,,,0,52,64
431616,note_on,,0,0,3,,,,,,0,53,102
431616,note_on,,0,0,1,,,,,,0,72,92
431616,note_off,,384,0,2,,,,,,0,52,64
431712,note_off,,96,0,3,,,,,,0,53,64
431712,note_on,,0,0,3,,,,,,0,52,102
431808,note_off,,96,0,3,,,,,,0,52,64
431808,note_off,,192,0,1,,,,,,0,72,64
431808,note_on,,0,0,3,,,,,,0,53,102
431808,note_on,,0,0,1,,,,,,0,71,92
431904,note_off,,96,0,3,,,,,,0,53,64
431904,note_on,,0,0,3,,,,,,0,52,102
432000,note_on,,0,0,1,,,,,,0,72,92
432000,note_off,,192,0,1,,,,,,0,71,64
432000,note_off,,96,0,3,,,,,,0,52,64
432000,note_on,,0,0,3,,,,,,0,53,102
432096,note_on,,0,0,3,,,,,,0,52,102
432096,note_off,,96,0,3,,,,,,0,53,64
432192,note_off,,192,0,1,,,,,,0,72,64
432192,note_on,,0,0,1,,,,,,0,69,92
432192,note_on,,0,0,3,,,,,,0,53,102
432192,note_off,,96,0,3,,,,,,0,52,64
432288,note_off,,96,0,3,,,,,,0,53,64
432288,note_on,,0,0,3,,,,,,0,52,102
432384,note_off,,192,0,1,,,,,,0,69,64
432384,note_on,,0,0,1,,,,,,0,76,92
432384,note_off,,96,0,3,,,,,,0,52,64
432384,note_on,,0,0,3,,,,,,0,53,102
432480,note_on,,0,0,3,,,,,,0,52,102
432480,note_off,,96,0,3,,,,,,0,53,64
432576,note_on,,0,0,2,,,,,,0,54,92
432576,note_off,,960,0,2,,,,,,0,57,64
432576,note_off,,96,0,3,,,,,,0,52,64
432576,note_on,,0,0,3,,,,,,0,53,102
432672,note_on,,0,0,3,,,,,,0,52,102
432672,note_off,,96,0,3,,,,,,0,53,64
432768,note_on,,0,0,3,,,,,,0,53,102
432768,note_on,,0,0,2,,,,,,0,56,92
432768,note_off,,192,0,2,,,,,,0,54,64
432768,note_off,,96,0,3,,,,,,0,52,64
432864,note_on,,0,0,3,,,,,,0,52,102
432864,note_off,,96,0,3,,,,,,0,53,64
432960,note_on,,0,0,3,,,,,,0,53,102
432960,note_off,,192,0,2,,,,,,0,56,64
432960,note_off,,96,0,3,,,,,,0,52,64
432960,note_on,,0,0,2,,,,,,0,52,92
433056,note_on,,0,0,3,,,,,,0,52,102
433056,note_off,,96,0,3,,,,,,0,53,64
433152,note_off,,192,0,2,,,,,,0,52,64
433152,note_on,,0,0,2,,,,,,0,60,92
433152,note_on,,0,0,3,,,,,,0,53,102
433152,note_off,,96,0,3,,,,,,0,52,64
433248,note_on,,0,0,3,,,,,,0,52,102
433248,note_off,,96,0,3,,,,,,0,53,64
433344,note_off,,960,0,1,,,,,,0,76,64
433344,note_on,,0,0,1,,,,,,0,74,92
433344,note_off,,192,0,2,,,,,,0,60,64
433344,note_off,,96,0,3,,,,,,0,52,64
433344,note_on,,0,0,2,,,,,,0,59,92
433344,note_on,,0,0,3,,,,,,0,53,102
433440,note_off,,96,0,3,,,,,,0,53,64
433440,note_on,,0,0,3,,,,,,0,52,102
433536,note_off,,96,0,3,,,,,,0,52,64
433536,note_on,,0,0,3,,,,,,0,53,102
433536,note_on,,0,0,1,,,,,,0,76,92
433536,note_on,,0,0,1,,,,,,0,81,92
433536,note_off,,192,0,1,,,,,,0,74,64
433536,note_off,,192,0,2,,,,,,0,59,64
433536,note_on,,0,0,2,,,,,,0,60,92
433632,note_off,,96,0,3,,,,,,0,53,64
433632,note_on,,0,0,3,,,,,,0,52,102
433728,note_on,,0,0,2,,,,,,0,57,92
433728,note_on,,0,0,1,,,,,,0,72,92
433728,note_on,,0,0,3,,,,,,0,53,102
433728,note_off,,96,0,3,,,,,,0,52,64
433728,note_off,,192,0,2,,,,,,0,60,64
433728,note_off,,192,0,1,,,,,,0,76,64
433824,note_on,,0,0,3,,,,,,0,52,102
433824,note_off,,96,0,3,,,,,,0,53,64
433920,note_on,,0,0,1,,,,,,0,71,92
433920,note_on,,0,0,2,,,,,,0,64,92
433920,note_off,,192,0,2,,,,,,0,57,64
433920,note_on,,0,0,3,,,,,,0,53,102
433920,note_off,,96,0,3,,,,,,0,52,64
433920,note_off,,192,0,1,,,,,,0,72,64
434016,note_on,,0,0,3,,,,,,0,52,102
434016,note_off,,96,0,3,,,,,,0,53,64
434112,note_off,,96,0,3,,,,,,0,52,64
434112,note_on,,0,0,3,,,,,,0,53,102
434208,note_on,,0,0,3,,,,,,0,52,102
434208,note_off,,96,0,3,,,,,,0,53,64
434304,note_off,,384,0,1,,,,,,0,81,64
434304,note_on,,0,0,3,,,,,,0,53,102
434304,note_off,,96,0,3,,,,,,0,52,64
434304,note_on,,0,0,1,,,,,,0,79,92
434400,note_on,,0,0,3,,,,,,0,52,102
434400,note_off,,96,0,3,,,,,,0,53,64
434496,note_off,,192,0,1,,,,,,0,79,64
434496,note_on,,0,0,1,,,,,,0,77,92
434496,note_on,,0,0,3,,,,,,0,53,102
434496,note_off,,96,0,3,,,,,,0,52,64
434592,note_on,,0,0,3,,,,,,0,52,102
434592,note_off,,96,0,3,,,,,,0,53,64
434688,note_off,,192,0,1,,,,,,0,77,64
434688,note_on,,0,0,1,,,,,,0,79,92
434688,note_on,,0,0,3,,,,,,0,52,102
434688,note_off,,96,0,3,,,,,,0,52,64
434880,note_off,,192,0,1,,,,,,0,71,64
434880,note_on,,0,0,1,,,,,,0,69,92
435072,note_on,,0,0,1,,,,,,0,72,92
435072,note_off,,0,0,1,,,,,,0,79,64
435072,note_off,,192,0,1,,,,,,0,69,64
435072,note_on,,0,0,1,,,,,,0,67,92
435264,note_on,,0,0,2,,,,,,0,62,92
435264,note_off,,1344,0,2,,,,,,0,64,64
435456,note_on,,0,0,2,,,,,,0,60,92
435456,note_on,,0,0,1,,,,,,0,77,92
435456,note_on,,0,0,1,,,,,,0,69,92
435456,note_off,,192,0,2,,,,,,0,62,64
435456,note_off,,384,0,1,,,,,,0,72,64
435456,note_off,,0,0,1,,,,,,0,67,64
435840,note_off,,1152,0,3,,,,,,0,52,64
435840,note_on,,0,0,3,,,,,,0,50,102
436032,note_on,,0,0,3,,,,,,0,48,102
436032,note_off,,192,0,3,,,,,,0,50,64
436224,note_on,,0,0,3,,,,,,0,50,102
436224,note_off,,192,0,3,,,,,,0,48,64
436608,note_on,,0,0,3,,,,,,0,43,102
436608,note_off,,384,0,3,,,,,,0,50,64
436608,note_off,,1152,0,1,,,,,,0,77,64
436608,note_on,,0,0,2,,,,,,0,59,92
436608,note_off,,1152,0,2,,,,,,0,60,64
436608,note_off,,0,0,1,,,,,,0,69,64
436608,note_on,,0,0,1,,,,,,0,67,92
436608,note_on,,0,0,1,,,,,,0,76,92
436800,note_off,,192,0,1,,,,,,0,76,64
436800,note_on,,0,0,1,,,,,,0,74,92
436992,note_on,,0,0,3,,,,,,0,48,102
436992,note_off,,384,0,3,,,,,,0,43,64
436992,note_off,,192,0,1,,,,,,0,74,64
436992,note_on,,0,0,1,,,,,,0,76,92
436992,note_off,,384,0,2,,,,,,0,59,64
436992,note_on,,0,0,2,,,,,,0,60,92
437184,note_on,,0,0,1,,,,,,0,65,92
437184,note_off,,192,0,1,,,,,,0,67,64
437376,note_on,,0,0,1,,,,,,0,69,92
437376,note_on,,0,0,1,,,,,,0,64,92
437376,note_off,,0,0,1,,,,,,0,76,64
437376,note_off,,192,0,1,,,,,,0,65,64
437568,note_off,,576,0,2,,,,,,0,60,64
437568,note_on,,0,0,2,,,,,,0,59,92
437760,note_on,,0,0,2,,,,,,0,57,92
437760,note_off,,192,0,2,,,,,,0,59,64
437760,note_on,,0,0,1,,,,,,0,74,92
437760,note_off,,384,0,1,,,,,,0,69,64
437760,note_off,,0,0,1,,,,,,0,64,64
437760,note_on,,0,0,1,,,,,,0,65,92
438144,note_off,,1152,0,3,,,,,,0,48,64
438144,note_on,,0,0,3,,,,,,0,47,102
438336,note_off,,192,0,3,,,,,,0,47,64
438336,note_on,,0,0,3,,,,,,0,45,102
438528,note_on,,0,0,3,,,,,,0,47,102
438528,note_off,,192,0,3,,,,,,0,45,64
438912,note_on,,0,0,1,,,,,,0,64,92
438912,note_on,,0,0,1,,,,,,0,72,92
438912,note_off,,384,0,3,,,,,,0,47,64
438912,note_on,,0,0,3,,,,,,0,40,102
438912,note_off,,1152,0,1,,,,,,0,74,64
438912,note_on,,0,0,2,,,,,,0,56,92
438912,note_off,,1152,0,2,,,,,,0,57,64
438912,note_off,,0,0,1,,,,,,0,65,64
439104,note_on,,0,0,1,,,,,,0,71,92
439104,note_off,,192,0,1,,,,,,0,72,64
439296,note_off,,192,0,1,,,,,,0,71,64
439296,note_on,,0,0,3,,,,,,0,45,102
439296,note_off,,384,0,3,,,,,,0,40,64
439296,note_on,,0,0,1,,,,,,0,72,92
439296,note_on,,0,0,2,,,,,,0,57,92
439296,note_off,,384,0,2,,,,,,0,56,64
439488,note_off,,192,0,1,,,,,,0,72,64
439488,note_on,,0,0,1,,,,,,0,71,92
439680,note_on,,0,0,3,,,,,,0,48,102
439680,note_off,,384,0,3,,,,,,0,45,64
439680,note_off,,384,0,2,,,,,,0,57,64
439680,note_on,,0,0,2,,,,,,0,64,92
439680,note_on,,0,0,1,,,,,,0,69,92
439680,note_off,,0,0,1,,,,,,0,64,64
439680,note_off,,192,0,1,,,,,,0,71,64
439872,note_on,,192,0,1,,,,,,0,71,92
440064,note_on,,0,0,1,,,,,,0,72,92
440064,note_off,,192,0,1,,,,,,0,71,64
440064,note_off,,384,0,3,,,,,,0,48,64
440064,note_on,,0,0,2,,,,,,0,65,92
440064,note_off,,384,0,2,,,,,,0,64,64
440064,note_on,,0,0,3,,,,,,0,50,102
440112,note_on,,0,0,1,,,,,,0,71,92
440112,note_off,,48,0,1,,,,,,0,72,64
440160,note_on,,0,0,1,,,,,,0,72,92
440160,note_off,,48,0,1,,,,,,0,71,64
440208,note_off,,48,0,1,,,,,,0,72,64
440208,note_on,,0,0,1,,,,,,0,71,92
440256,note_off,,48,0,1,,,,,,0,71,64
440256,note_on,,0,0,1,,,,,,0,72,92
440304,note_off,,48,0,1,,,,,,0,72,64
440304,note_on,,0,0,1,,,,,,0,71,92
440352,note_off,,48,0,1,,,,,,0,71,64
440352,note_on,,0,0,1,,,,,,0,72,92
440400,note_off,,48,0,1,,,,,,0,72,64
440400,note_on,,0,0,1,,,,,,0,71,92
440448,note_off,,0,0,1,,,,,,0,69,64
440448,note_on,,0,0,1,,,,,,0,72,92
440448,note_off,,384,0,3,,,,,,0,50,64
440448,note_off,,384,0,2,,,,,,0,65,64
440448,note_on,,0,0,2,,,,,,0,64,92
440448,note_on,,0,0,3,,,,,,0,52,102
440448,note_on,,0,0,1,,,,,,0,68,92
440448,note_off,,48,0,1,,,,,,0,71,64
440496,note_off,,48,0,1,,,,,,0,72,64
440496,note_on,,0,0,1,,,,,,0,71,92
440544,note_off,,48,0,1,,,,,,0,71,64
440544,note_on,,0,0,1,,,,,,0,72,92
440592,note_off,,48,0,1,,,,,,0,72,64
440592,note_on,,0,0,1,,,,,,0,71,92
440640,note_on,,0,0,2,,,,,,0,62,92
440640,note_off,,48,0,1,,,,,,0,71,64
440640,note_on,,0,0,1,,,,,,0,72,92
440640,note_off,,192,0,2,,,,,,0,64,64
440688,note_on,,0,0,1,,,,,,0,71,92
440688,note_off,,48,0,1,,,,,,0,72,64
440736,note_on,,0,0,1,,,,,,0,72,92
440736,note_off,,48,0,1,,,,,,0,71,64
440784,note_on,,0,0,1,,,,,,0,71,92
440784,note_off,,48,0,1,,,,,,0,72,64
440832,note_off,,0,0,1,,,,,,0,68,64
440832,note_on,,0,0,1,,,,,,0,69,92
440832,note_off,,384,0,3,,,,,,0,52,64
440832,note_off,,192,0,2,,,,,,0,62,64
440832,note_on,,0,0,2,,,,,,0,60,92
440832,note_on,,0,0,3,,,,,,0,45,102
440832,note_off,,48,0,1,,,,,,0,71,64
441024,note_on,,192,0,1,,,,,,0,67,92
441024,note_off,,192,0,2,,,,,,0,60,64
441024,note_on,,0,0,2,,,,,,0,59,92
441216,note_on,,0,0,1,,,,,,0,65,92
441216,note_off,,192,0,2,,,,,,0,59,64
441216,note_on,,0,0,2,,,,,,0,57,92
441216,note_off,,192,0,1,,,,,,0,67,64
441408,note_on,,0,0,1,,,,,,0,64,92
441408,note_off,,192,0,1,,,,,,0,65,64
441600,note_off,,0,0,1,,,,,,0,69,64
441600,note_on,,0,0,1,,,,,,0,71,92
441600,note_on,,0,0,1,,,,,,0,62,92
441600,note_off,,768,0,3,,,,,,0,45,64
441600,note_off,,192,0,1,,,,,,0,64,64
441792,note_off,,192,0,1,,,,,,0,62,64
441792,note_on,,0,0,1,,,,,,0,65,92
441984,note_off,,768,0,2,,,,,,0,57,64
441984,note_on,,0,0,1,,,,,,0,64,92
441984,note_off,,192,0,1,,,,,,0,65,64
441984,note_on,,0,0,2,,,,,,0,56,92
442176,note_on,,0,0,1,,,,,,0,62,92
442176,note_off,,192,0,1,,,,,,0,64,64
442368,note_off,,384,0,2,,,,,,0,56,64
442368,note_on,,0,0,2,,,,,,0,57,92
442368,note_off,,192,0,1,,,,,,0,62,64
442368,note_off,,0,0,1,,,,,,0,71,64
442368,note_on,,0,0,1,,,,,,0,60,92
442368,note_on,,0,0,1,,,,,,0,72,92
442560,note_on,,0,0,1,,,,,,0,62,92
442560,note_off,,192,0,1,,,,,,0,60,64
442752,note_on,,0,0,1,,,,,,0,60,92
442752,note_on,,0,0,1,,,,,,0,69,92
442752,note_off,,0,0,1,,,,,,0,72,64
442752,note_off,,192,0,1,,,,,,0,62,64
442752,note_off,,384,0,2,,,,,,0,57,64
442752,note_on,,0,0,2,,,,,,0,57,92
442944,note_off,,192,0,2,,,,,,0,57,64
442944,note_on,,0,0,2,,,,,,0,55,92
442944,note_on,,0,0,1,,,,,,0,59,92
442944,note_off,,192,0,1,,,,,,0,60,64
443136,note_off,,192,0,2,,,,,,0,55,64
443136,note_on,,0,0,2,,,,,,0,53,92
443136,note_on,,0,0,1,,,,,,0,74,92
443136,note_off,,192,0,1,,,,,,0,59,64
443136,note_on,,0,0,1,,,,,,0,57,92
443136,note_off,,0,0,1,,,,,,0,69,64
443328,note_off,,192,0,1,,,,,,0,57,64
443328,note_on,,0,0,1,,,,,,0,69,92
443520,note_on,,0,0,1,,,,,,0,67,92
443520,note_off,,192,0,1,,,,,,0,69,64
443520,note_on,,0,0,2,,,,,,0,52,92
443520,note_off,,384,0,2,,,,,,0,53,64
443712,note_on,,0,0,2,,,,,,0,50,92
443712,note_off,,192,0,1,,,,,,0,67,64
443712,note_off,,192,0,2,,,,,,0,52,64
443712,note_on,,0,0,1,,,,,,0,65,92
443904,note_on,,0,0,1,,,,,,0,67,92
443904,note_off,,192,0,1,,,,,,0,65,64
443904,note_off,,192,0,2,,,,,,0,50,64
443904,note_on,,0,0,2,,,,,,0,52,92
444096,note_on,,0,0,1,,,,,,0,70,92
444096,note_off,,192,0,1,,,,,,0,67,64
444288,note_on,,0,0,2,,,,,,0,45,92
444288,note_off,,192,0,1,,,,,,0,70,64
444288,note_off,,0,0,1,,,,,,0,74,64
444288,note_on,,0,0,1,,,,,,0,72,92
444288,note_on,,0,0,1,,,,,,0,69,92
444288,note_off,,384,0,2,,,,,,0,52,64
444480,note_on,,0,0,1,,,,,,0,67,92
444480,note_off,,192,0,1,,,,,,0,69,64
444672,note_on,,0,0,1,,,,,,0,65,92
444672,note_on,,0,0,2,,,,,,0,57,92
444672,note_off,,192,0,1,,,,,,0,67,64
444672,note_off,,0,0,1,,,,,,0,72,64
444672,note_on,,0,0,1,,,,,,0,77,92
444672,note_off,,384,0,2,,,,,,0,45,64
444864,note_off,,192,0,1,,,,,,0,65,64
444864,note_on,,0,0,1,,,,,,0,72,92
445056,note_on,,0,0,1,,,,,,0,71,92
445056,note_off,,192,0,1,,,,,,0,72,64
445056,note_on,,0,0,2,,,,,,0,55,92
445056,note_off,,384,0,2,,,,,,0,57,64
445248,note_off,,192,0,2,,,,,,0,55,64
445248,note_on,,0,0,2,,,,,,0,53,92
445248,note_on,,0,0,1,,,,,,0,69,92
445248,note_off,,192,0,1,,,,,,0,71,64
445440,note_on,,0,0,1,,,,,,0,71,92
445440,note_off,,192,0,1,,,,,,0,69,64
445440,note_on,,0,0,2,,,,,,0,55,92
445440,note_off,,192,0,2,,,,,,0,53,64
445632,note_on,,0,0,1,,,,,,0,74,92
445632,note_off,,192,0,1,,,,,,0,71,64
445824,note_on,,0,0,1,,,,,,0,76,92
445824,note_on,,0,0,1,,,,,,0,72,92
445824,note_off,,0,0,1,,,,,,0,77,64
445824,note_on,,0,0,2,,,,,,0,48,92
445824,note_off,,384,0,2,,,,,,0,55,64
445824,note_off,,192,0,1,,,,,,0,74,64
446016,note_off,,192,0,1,,,,,,0,72,64
446016,note_on,,0,0,1,,,,,,0,71,92
446208,note_off,,192,0,1,,,,,,0,71,64
446208,note_off,,384,0,2,,,,,,0,48,64
446208,note_on,,0,0,1,,,,,,0,81,92
446208,note_on,,0,0,2,,,,,,0,60,92
446208,note_off,,0,0,1,,,,,,0,76,64
446208,note_on,,0,0,1,,,,,,0,69,92
446400,note_on,,0,0,1,,,,,,0,76,92
446400,note_off,,192,0,1,,,,,,0,69,64
446592,note_on,,0,0,1,,,,,,0,74,92
446592,note_off,,192,0,1,,,,,,0,76,64
446592,note_on,,0,0,2,,,,,,0,59,92
446592,note_off,,384,0,2,,,,,,0,60,64
446784,note_off,,192,0,2,,,,,,0,59,64
446784,note_on,,0,0,2,,,,,,0,57,92
446784,note_off,,192,0,1,,,,,,0,74,64
446784,note_on,,0,0,1,,,,,,0,72,92
446976,note_off,,192,0,1,,,,,,0,72,64
446976,note_on,,0,0,1,,,,,,0,74,92
446976,note_off,,192,0,2,,,,,,0,57,64
446976,note_on,,0,0,2,,,,,,0,59,92
447168,note_off,,192,0,1,,,,,,0,74,64
447168,note_on,,0,0,1,,,,,,0,72,92
447168,note_on,,0,0,2,,,,,,0,60,92
447168,note_off,,192,0,2,,,,,,0,59,64
447360,note_off,,192,0,1,,,,,,0,72,64
447360,note_off,,0,0,1,,,,,,0,81,64
447360,note_on,,0,0,1,,,,,,0,74,92
447360,note_off,,192,0,2,,,,,,0,60,64
447360,note_on,,0,0,2,,,,,,0,59,92
447360,note_on,,0,0,1,,,,,,0,79,92
447552,note_off,,192,0,1,,,,,,0,74,64
447552,note_off,,192,0,2,,,,,,0,59,64
447552,note_on,,0,0,2,,,,,,0,64,92
447552,note_on,,0,0,1,,,,,,0,67,92
447744,note_off,,192,0,2,,,,,,0,64,64
447744,note_on,,0,0,2,,,,,,0,57,92
447744,note_off,,192,0,1,,,,,,0,67,64
447744,note_on,,0,0,1,,,,,,0,72,92
447936,note_off,,192,0,2,,,,,,0,57,64
447936,note_on,,0,0,2,,,,,,0,59,92
447936,note_on,,0,0,1,,,,,,0,71,92
447936,note_off,,192,0,1,,,,,,0,72,64
448128,note_on,,0,0,1,,,,,,0,77,92
448128,note_off,,0,0,1,,,,,,0,79,64
448128,note_off,,192,0,1,,,,,,0,71,64
448128,note_on,,0,0,1,,,,,,0,72,92
448128,note_off,,192,0,2,,,,,,0,59,64
448128,note_on,,0,0,2,,,,,,0,57,92
448320,note_on,,0,0,2,,,,,,0,62,92
448320,note_off,,192,0,2,,,,,,0,57,64
448320,note_on,,0,0,1,,,,,,0,65,92
448320,note_off,,192,0,1,,,,,,0,72,64
448512,note_off,,192,0,1,,,,,,0,65,64
448512,note_on,,0,0,2,,,,,,0,55,92
448512,note_off,,192,0,2,,,,,,0,62,64
448512,note_on,,0,0,1,,,,,,0,71,92
448704,note_on,,0,0,2,,,,,,0,57,92
448704,note_off,,192,0,2,,,,,,0,55,64
448704,note_on,,0,0,1,,,,,,0,69,92
448704,note_off,,192,0,1,,,,,,0,71,64
448896,note_on,,0,0,2,,,,,,0,55,92
448896,note_off,,192,0,1,,,,,,0,69,64
448896,note_off,,0,0,1,,,,,,0,77,64
448896,note_on,,0,0,1,,,,,,0,76,92
448896,note_on,,0,0,1,,,,,,0,71,92
448896,note_off,,192,0,2,,,,,,0,57,64
449088,note_off,,192,0,1,,,,,,0,71,64
449088,note_off,,192,0,2,,,,,,0,55,64
449088,note_on,,0,0,2,,,,,,0,60,92
449088,note_on,,0,0,1,,,,,,0,64,92
449280,note_on,,0,0,2,,,,,,0,53,92
449280,note_off,,192,0,1,,,,,,0,64,64
449280,note_on,,0,0,1,,,,,,0,69,92
449280,note_off,,192,0,2,,,,,,0,60,64
449472,note_off,,192,0,1,,,,,,0,69,64
449472,note_on,,0,0,1,,,,,,0,68,92
449664,note_off,,0,0,1,,,,,,0,76,64
449664,note_off,,192,0,1,,,,,,0,68,64
449664,note_on,,0,0,1,,,,,,0,74,92
449664,note_on,,0,0,1,,,,,,0,69,92
449856,note_on,,0,0,1,,,,,,0,71,92
449856,note_off,,192,0,1,,,,,,0,69,64
450048,note_on,,0,0,1,,,,,,0,68,92
450048,note_off,,192,0,1,,,,,,0,71,64
450048,note_on,,0,0,2,,,,,,0,52,92
450048,note_off,,768,0,2,,,,,,0,53,64
450432,note_off,,0,0,1,,,,,,0,74,64
450432,note_on,,0,0,1,,,,,,0,72,92
450432,note_off,,384,0,2,,,,,,0,52,64
450432,note_on,,0,0,2,,,,,,0,53,92
450432,note_off,,384,0,1,,,,,,0,68,64
450432,note_on,,0,0,1,,,,,,0,69,92
450624,note_off,,192,0,2,,,,,,0,53,64
450624,note_on,,0,0,2,,,,,,0,52,92
450816,note_off,,384,0,1,,,,,,0,72,64
450816,note_on,,0,0,1,,,,,,0,71,92
450816,note_on,,0,0,2,,,,,,0,50,92
450816,note_off,,192,0,2,,,,,,0,52,64
451008,note_off,,192,0,2,,,,,,0,50,64
451008,note_on,,0,0,2,,,,,,0,53,92
451200,note_off,,0,0,1,,,,,,0,69,64
451200,note_off,,384,0,1,,,,,,0,71,64
451200,note_on,,0,0,1,,,,,,0,67,92
451200,note_on,,0,0,1,,,,,,0,70,92
451200,note_on,,0,0,2,,,,,,0,52,92
451200,note_off,,192,0,2,,,,,,0,53,64
451392,note_off,,192,0,2,,,,,,0,52,64
451392,note_on,,0,0,2,,,,,,0,50,92
451584,note_off,,192,0,2,,,,,,0,50,64
451584,note_on,,0,0,2,,,,,,0,49,92
451584,note_off,,384,0,1,,,,,,0,70,64
451584,note_on,,0,0,1,,,,,,0,69,92
451776,note_on,,0,0,1,,,,,,0,67,92
451776,note_off,,192,0,1,,,,,,0,67,64
451968,note_on,,0,0,1,,,,,,0,65,92
451968,note_off,,192,0,1,,,,,,0,67,64
451968,note_on,,0,0,2,,,,,,0,48,92
451968,note_off,,384,0,2,,,,,,0,49,64
452160,note_on,,0,0,1,,,,,,0,64,92
452160,note_off,,192,0,1,,,,,,0,65,64
452352,note_off,,384,0,2,,,,,,0,48,64
452352,note_on,,0,0,1,,,,,,0,62,92
452352,note_off,,192,0,1,,,,,,0,64,64
452352,note_on,,0,0,2,,,,,,0,47,92
452544,note_on,,0,0,1,,,,,,0,65,92
452544,note_off,,192,0,1,,,,,,0,62,64
452736,note_on,,0,0,1,,,,,,0,67,92
452736,note_off,,0,0,1,,,,,,0,69,64
452736,note_off,,192,0,1,,,,,,0,65,64
452736,note_on,,0,0,1,,,,,,0,64,92
452736,note_off,,384,0,2,,,,,,0,47,64
452736,note_on,,0,0,2,,,,,,0,46,92
452928,note_on,,0,0,1,,,,,,0,62,92
452928,note_off,,192,0,1,,,,,,0,64,64
453120,note_on,,0,0,1,,,,,,0,61,92
453120,note_on,,0,0,2,,,,,,0,45,92
453120,note_off,,384,0,2,,,,,,0,46,64
453120,note_off,,192,0,1,,,,,,0,62,64
453312,note_on,,0,0,1,,,,,,0,79,92
453312,note_off,,192,0,1,,,,,,0,67,64
453504,note_off,,384,0,2,,,,,,0,45,64
453504,note_on,,0,0,1,,,,,,0,77,92
453504,note_off,,192,0,1,,,,,,0,79,64
453504,note_on,,0,0,2,,,,,,0,57,92
453504,note_on,,0,0,1,,,,,,0,60,92
453504,note_off,,0,0,1,,,,,,0,61,64
453696,note_off,,192,0,1,,,,,,0,77,64
453696,note_on,,0,0,1,,,,,,0,76,92
453888,note_on,,0,0,1,,,,,,0,59,92
453888,note_on,,0,0,1,,,,,,0,74,92
453888,note_off,,0,0,1,,,,,,0,60,64
453888,note_off,,192,0,1,,,,,,0,76,64
454080,note_off,,192,0,1,,,,,,0,74,64
454080,note_on,,0,0,1,,,,,,0,77,92
454272,note_on,,0,0,1,,,,,,0,76,92
454272,note_on,,0,0,1,,,,,,0,58,92
454272,note_off,,0,0,1,,,,,,0,59,64
454272,note_on,,0,0,2,,,,,,0,55,92
454272,note_off,,768,0,2,,,,,,0,57,64
454272,note_off,,192,0,1,,,,,,0,77,64
454464,note_off,,192,0,1,,,,,,0,76,64
454464,note_on,,0,0,1,,,,,,0,74,92
454656,note_on,,0,0,1,,,,,,0,57,92
454656,note_off,,192,0,1,,,,,,0,74,64
454656,note_off,,0,0,1,,,,,,0,58,64
454656,note_on,,0,0,1,,,,,,0,73,92
454848,note_on,,0,0,2,,,,,,0,58,92
454848,note_on,,0,0,1,,,,,,0,64,92
454848,note_off,,576,0,2,,,,,,0,55,64
454848,note_off,,192,0,1,,,,,,0,57,64
455040,note_on,,0,0,2,,,,,,0,57,92
455040,note_off,,192,0,2,,,,,,0,58,64
455040,note_off,,192,0,1,,,,,,0,64,64
455040,note_on,,0,0,1,,,,,,0,65,92
455232,note_off,,192,0,1,,,,,,0,65,64
455232,note_on,,0,0,1,,,,,,0,67,92
455232,note_on,,0,0,2,,,,,,0,55,92
455232,note_off,,192,0,2,,,,,,0,57,64
455424,note_off,,192,0,1,,,,,,0,67,64
455424,note_off,,0,0,1,,,,,,0,73,64
455424,note_on,,0,0,1,,,,,,0,69,92
455424,note_off,,192,0,2,,,,,,0,55,64
455424,note_on,,0,0,2,,,,,,0,53,92
455616,note_off,,192,0,2,,,,,,0,53,64
455616,note_on,,0,0,2,,,,,,0,55,92
455616,note_on,,192,0,1,,,,,,0,73,92
455808,note_on,,0,0,1,,,,,,0,74,92
455808,note_off,,192,0,1,,,,,,0,73,64
455808,note_off,,192,0,2,,,,,,0,55,64
455808,note_on,,0,0,2,,,,,,0,53,92
456000,note_on,,0,0,2,,,,,,0,52,92
456000,note_off,,192,0,2,,,,,,0,53,64
456000,note_on,,0,0,1,,,,,,0,76,92
456000,note_off,,192,0,1,,,,,,0,74,64
456192,note_off,,192,0,2,,,,,,0,52,64
456192,note_off,,192,0,1,,,,,,0,76,64
456192,note_on,,0,0,2,,,,,,0,50,92
456192,note_on,,0,0,1,,,,,,0,77,92
456384,note_off,,0,0,1,,,,,,0,69,64
456384,note_on,,0,0,1,,,,,,0,61,92
456384,note_on,,0,0,2,,,,,,0,55,92
456384,note_off,,192,0,1,,,,,,0,77,64
456384,note_off,,192,0,2,,,,,,0,50,64
456576,note_on,,0,0,2,,,,,,0,53,92
456576,note_off,,192,0,2,,,,,,0,55,64
456576,note_off,,192,0,1,,,,,,0,61,64
456576,note_on,,0,0,1,,,,,,0,62,92
456768,note_on,,0,0,2,,,,,,0,52,92
456768,note_off,,192,0,2,,,,,,0,53,64
456768,note_off,,192,0,1,,,,,,0,62,64
456768,note_on,,0,0,1,,,,,,0,64,92
456960,note_on,,0,0,2,,,,,,0,50,92
456960,note_on,,0,0,1,,,,,,0,65,92
456960,note_off,,192,0,2,,,,,,0,52,64
456960,note_off,,192,0,1,,,,,,0,64,64
457152,note_on,,0,0,2,,,,,,0,51,92
457152,note_off,,192,0,2,,,,,,0,50,64
457152,note_on,,192,0,1,,,,,,0,69,92
457344,note_on,,0,0,1,,,,,,0,70,92
457344,note_on,,0,0,2,,,,,,0,50,92
457344,note_off,,192,0,1,,,,,,0,69,64
457344,note_off,,192,0,2,,,,,,0,51,64
457536,note_off,,192,0,1,,,,,,0,70,64
457536,note_on,,0,0,1,,,,,,0,72,92
457536,note_off,,192,0,2,,,,,,0,50,64
457536,note_on,,0,0,2,,,,,,0,48,92
457728,note_on,,0,0,1,,,,,,0,74,92
457728,note_on,,0,0,2,,,,,,0,46,92
457728,note_off,,192,0,2,,,,,,0,48,64
457728,note_off,,192,0,1,,,,,,0,72,64
457920,note_on,,0,0,2,,,,,,0,51,92
457920,note_off,,192,0,2,,,,,,0,46,64
457920,note_off,,192,0,1,,,,,,0,74,64
457920,note_off,,0,0,1,,,,,,0,65,64
457920,note_on,,0,0,1,,,,,,0,57,92
458112,note_on,,0,0,2,,,,,,0,50,92
458112,note_off,,192,0,2,,,,,,0,51,64
458112,note_on,,0,0,1,,,,,,0,58,92
458112,note_off,,192,0,1,,,,,,0,57,64
458304,note_on,,0,0,1,,,,,,0,60,92
458304,note_on,,0,0,2,,,,,,0,48,92
458304,note_off,,192,0,2,,,,,,0,50,64
458304,note_off,,192,0,1,,,,,,0,58,64
458496,note_on,,0,0,2,,,,,,0,46,92
458496,note_on,,0,0,1,,,,,,0,62,92
458496,note_off,,192,0,1,,,,,,0,60,64
458496,note_off,,192,0,2,,,,,,0,48,64
458688,note_on,,0,0,2,,,,,,0,48,92
458688,note_off,,192,0,2,,,,,,0,46,64
458688,note_on,,192,0,1,,,,,,0,66,92
458880,note_off,,192,0,1,,,,,,0,66,64
458880,note_on,,0,0,1,,,,,,0,67,92
458880,note_off,,192,0,2,,,,,,0,48,64
458880,note_on,,0,0,2,,,,,,0,46,92
459072,note_on,,0,0,1,,,,,,0,69,92
459072,note_off,,192,0,2,,,,,,0,46,64
459072,note_on,,0,0,2,,,,,,0,45,92
459072,note_off,,192,0,1,,,,,,0,67,64
459264,note_on,,0,0,2,,,,,,0,43,92
459264,note_off,,192,0,2,,,,,,0,45,64
459264,note_off,,192,0,1,,,,,,0,69,64
459264,note_on,,0,0,1,,,,,,0,70,92
459456,note_off,,192,0,1,,,,,,0,70,64
459456,note_off,,192,0,2,,,,,,0,43,64
459456,note_on,,0,0,1,,,,,,0,72,92
459456,note_on,,0,0,2,,,,,,0,54,92
459456,note_off,,0,0,1,,,,,,0,62,64
459648,note_off,,192,0,2,,,,,,0,54,64
459648,note_off,,192,0,1,,,,,,0,72,64
459648,note_on,,0,0,1,,,,,,0,70,92
459648,note_on,,0,0,2,,,,,,0,55,92
459840,note_off,,192,0,1,,,,,,0,70,64
459840,note_on,,0,0,2,,,,,,0,57,92
459840,note_off,,192,0,2,,,,,,0,55,64
459840,note_on,,0,0,1,,,,,,0,69,92
460032,note_off,,192,0,2,,,,,,0,57,64
460032,note_on,,0,0,1,,,,,,0,67,92
460032,note_on,,0,0,2,,,,,,0,58,92
460032,note_off,,192,0,1,,,,,,0,69,64
460224,note_on,,0,0,2,,,,,,0,59,92
460224,note_off,,192,0,1,,,,,,0,67,64
460224,note_on,,0,0,1,,,,,,0,65,92
460224,note_off,,192,0,2,,,,,,0,58,64
460416,note_off,,192,0,2,,,,,,0,59,64
460416,note_on,,0,0,2,,,,,,0,61,92
460416,note_on,,0,0,1,,,,,,0,64,92
460416,note_off,,192,0,1,,,,,,0,65,64
460608,note_on,,0,0,1,,,,,,0,62,92
460608,note_off,,192,0,2,,,,,,0,61,64
460608,note_on,,0,0,2,,,,,,0,62,92
460608,note_off,,192,0,1,,,,,,0,64,64
460800,note_on,,0,0,1,,,,,,0,64,92
460800,note_on,,0,0,2,,,,,,0,61,92
460800,note_off,,192,0,2,,,,,,0,62,64
460800,note_off,,192,0,1,,,,,,0,62,64
460992,note_on,,0,0,2,,,,,,0,59,92
460992,note_off,,192,0,2,,,,,,0,61,64
460992,note_on,,192,0,1,,,,,,0,69,92
461184,note_on,,0,0,2,,,,,,0,57,92
461184,note_off,,192,0,2,,,,,,0,59,64
461184,note_off,,192,0,1,,,,,,0,69,64
461184,note_on,,0,0,1,,,,,,0,71,92
461376,note_on,,0,0,2,,,,,,0,55,92
461376,note_off,,192,0,2,,,,,,0,57,64
461376,note_off,,192,0,1,,,,,,0,71,64
461376,note_on,,0,0,1,,,,,,0,73,92
461568,note_off,,192,0,2,,,,,,0,55,64
461568,note_off,,0,0,1,,,,,,0,64,64
461568,note_on,,0,0,1,,,,,,0,69,92
461568,note_on,,0,0,1,,,,,,0,74,92
461568,note_off,,192,0,1,,,,,,0,73,64
461568,note_on,,0,0,2,,,,,,0,53,92
461760,note_on,,0,0,1,,,,,,0,76,92
461760,note_off,,192,0,1,,,,,,0,74,64
461760,note_on,,0,0,2,,,,,,0,52,92
461760,note_off,,192,0,2,,,,,,0,53,64
461952,note_on,,0,0,1,,,,,,0,77,92
461952,note_off,,192,0,1,,,,,,0,76,64
461952,note_off,,192,0,2,,,,,,0,52,64
461952,note_on,,0,0,2,,,,,,0,50,92
462144,note_off,,192,0,1,,,,,,0,77,64
462144,note_off,,192,0,2,,,,,,0,50,64
462144,note_on,,0,0,2,,,,,,0,48,92
462144,note_on,,0,0,1,,,,,,0,78,92
462336,note_on,,0,0,2,,,,,,0,46,92
462336,note_off,,192,0,2,,,,,,0,48,64
462336,note_off,,0,0,1,,,,,,0,69,64
462336,note_on,,0,0,1,,,,,,0,67,92
462336,note_on,,0,0,1,,,,,,0,79,92
462336,note_off,,192,0,1,,,,,,0,78,64
462528,note_on,,0,0,1,,,,,,0,73,92
462528,note_off,,192,0,2,,,,,,0,46,64
462528,note_off,,192,0,1,,,,,,0,79,64
462528,note_on,,0,0,2,,,,,,0,58,92
462720,note_on,,0,0,2,,,,,,0,57,92
462720,note_off,,192,0,2,,,,,,0,58,64
462720,note_off,,192,0,1,,,,,,0,73,64
462720,note_off,,0,0,1,,,,,,0,67,64
462720,note_on,,0,0,1,,,,,,0,65,92
462720,note_on,,0,0,1,,,,,,0,74,92
462912,note_off,,192,0,2,,,,,,0,57,64
462912,note_on,,0,0,2,,,,,,0,55,92
462912,note_off,,192,0,1,,,,,,0,74,64
462912,note_on,,0,0,1,,,,,,0,76,92
463104,note_off,,192,0,1,,,,,,0,76,64
463104,note_off,,0,0,1,,,,,,0,65,64
463104,note_on,,0,0,1,,,,,,0,74,92
463104,note_on,,0,0,1,,,,,,0,64,92
463104,note_off,,192,0,2,,,,,,0,55,64
463104,note_on,,0,0,2,,,,,,0,57,92
463152,note_on,,0,0,1,,,,,,0,73,92
463152,note_off,,48,0,1,,,,,,0,74,64
463200,note_on,,0,0,1,,,,,,0,74,92
463200,note_off,,48,0,1,,,,,,0,73,64
463248,note_on,,0,0,1,,,,,,0,73,92
463248,note_off,,48,0,1,,,,,,0,74,64
463296,note_off,,48,0,1,,,,,,0,73,64
463296,note_on,,0,0,1,,,,,,0,74,92
463344,note_off,,48,0,1,,,,,,0,74,64
463344,note_on,,0,0,1,,,,,,0,73,92
463392,note_on,,0,0,1,,,,,,0,74,92
463392,note_off,,48,0,1,,,,,,0,73,64
463440,note_on,,0,0,1,,,,,,0,73,92
463440,note_off,,48,0,1,,,,,,0,74,64
463488,note_off,,48,0,1,,,,,,0,73,64
463488,note_on,,0,0,1,,,,,,0,74,92
463488,note_on,,0,0,2,,,,,,0,45,92
463488,note_off,,384,0,2,,,,,,0,57,64
463536,note_off,,48,0,1,,,,,,0,74,64
463536,note_on,,0,0,1,,,,,,0,73,92
463584,note_on,,0,0,1,,,,,,0,74,92
463584,note_off,,48,0,1,,,,,,0,73,64
463632,note_off,,48,0,1,,,,,,0,74,64
463632,note_on,,0,0,1,,,,,,0,73,92
463680,note_off,,48,0,1,,,,,,0,73,64
463680,note_on,,0,0,1,,,,,,0,74,92
463728,note_on,,0,0,1,,,,,,0,73,92
463728,note_off,,48,0,1,,,,,,0,74,64
463776,note_off,,48,0,1,,,,,,0,73,64
463776,note_on,,0,0,1,,,,,,0,74,92
463824,note_off,,48,0,1,,,,,,0,74,64
463824,note_on,,0,0,1,,,,,,0,73,92
463872,note_off,,48,0,1,,,,,,0,73,64
463872,note_off,,0,0,1,,,,,,0,64,64
463872,note_on,,0,0,1,,,,,,0,62,92
463872,note_on,,0,0,1,,,,,,0,74,92
463872,note_off,,384,0,2,,,,,,0,45,64
463872,note_on,,0,0,2,,,,,,0,50,92
464256,note_off,,384,0,2,,,,,,0,50,64
464256,note_off,,0,0,1,,,,,,0,62,64
464256,note_on,,0,0,1,,,,,,0,62,92
464256,note_on,,0,0,2,,,,,,0,53,92
464256,note_off,,384,0,1,,,,,,0,74,64
464448,note_on,,192,0,1,,,,,,0,64,92
464640,note_off,,192,0,1,,,,,,0,64,64
464640,note_on,,0,0,1,,,,,,0,65,92
464640,note_on,,0,0,2,,,,,,0,55,92
464640,note_off,,384,0,2,,,,,,0,53,64
464688,note_off,,48,0,1,,,,,,0,65,64
464688,note_on,,0,0,1,,,,,,0,64,92
464736,note_off,,48,0,1,,,,,,0,64,64
464736,note_on,,0,0,1,,,,,,0,65,92
464784,note_off,,48,0,1,,,,,,0,65,64
464784,note_on,,0,0,1,,,,,,0,64,92
464832,note_off,,48,0,1,,,,,,0,64,64
464832,note_on,,0,0,1,,,,,,0,65,92
464880,note_off,,48,0,1,,,,,,0,65,64
464880,note_on,,0,0,1,,,,,,0,64,92
464928,note_off,,48,0,1,,,,,,0,64,64
464928,note_on,,0,0,1,,,,,,0,65,92
464976,note_off,,48,0,1,,,,,,0,65,64
464976,note_on,,0,0,1,,,,,,0,64,92
465024,note_off,,384,0,2,,,,,,0,55,64
465024,note_on,,0,0,1,,,,,,0,61,92
465024,note_off,,48,0,1,,,,,,0,64,64
465024,note_off,,0,0,1,,,,,,0,62,64
465024,note_on,,0,0,1,,,,,,0,65,92
465024,note_on,,0,0,2,,,,,,0,57,92
465072,note_off,,48,0,1,,,,,,0,65,64
465072,note_on,,0,0,1,,,,,,0,64,92
465120,note_off,,48,0,1,,,,,,0,64,64
465120,note_on,,0,0,1,,,,,,0,65,92
465168,note_on,,0,0,1,,,,,,0,64,92
465168,note_off,,48,0,1,,,,,,0,65,64
465216,note_off,,48,0,1,,,,,,0,64,64
465216,note_on,,0,0,1,,,,,,0,65,92
465264,note_off,,48,0,1,,,,,,0,65,64
465264,note_on,,0,0,1,,,,,,0,64,92
465312,note_off,,48,0,1,,,,,,0,64,64
465312,note_on,,0,0,1,,,,,,0,65,92
465360,note_off,,48,0,1,,,,,,0,65,64
465360,note_on,,0,0,1,,,,,,0,64,92
465408,note_off,,384,0,2,,,,,,0,57,64
465408,note_on,,0,0,2,,,,,,0,50,92
465408,note_on,,0,0,1,,,,,,0,62,92
465408,note_on,,0,0,1,,,,,,0,65,92
465408,note_off,,0,0,1,,,,,,0,61,64
465408,note_on,,23808,0,3,,,,,,0,38,102
465408,note_off,,48,0,1,,,,,,0,64,64
465600,note_off,,192,0,1,,,,,,0,62,64
465600,note_on,,0,0,1,,,,,,0,60,92
465792,note_off,,192,0,1,,,,,,0,60,64
465792,note_off,,0,0,1,,,,,,0,65,64
465792,note_on,,0,0,1,,,,,,0,58,92
465792,note_on,,0,0,1,,,,,,0,62,92
465792,note_on,,0,0,2,,,,,,0,50,92
465792,note_off,,384,0,2,,,,,,0,50,64
465984,note_off,,192,0,1,,,,,,0,58,64
465984,note_on,,0,0,1,,,,,,0,57,92
466176,note_off,,768,0,3,,,,,,0,38,64
466176,note_off,,192,0,1,,,,,,0,57,64
466176,note_off,,0,0,1,,,,,,0,62,64
466176,note_on,,0,0,1,,,,,,0,55,92
466176,note_on,,0,0,1,,,,,,0,67,92
466176,note_on,,0,0,3,,,,,,0,40,102
466560,note_on,,0,0,2,,,,,,0,49,92
466560,note_off,,768,0,2,,,,,,0,50,64
466560,note_off,,384,0,1,,,,,,0,55,64
466560,note_on,,0,0,1,,,,,,0,57,92
466752,note_on,,0,0,1,,,,,,0,58,92
466752,note_off,,192,0,1,,,,,,0,57,64
466944,note_off,,384,0,2,,,,,,0,49,64
466944,note_on,,0,0,3,,,,,,0,41,102
466944,note_on,,0,0,2,,,,,,0,50,92
466944,note_on,,0,0,1,,,,,,0,57,92
466944,note_off,,768,0,3,,,,,,0,40,64
466944,note_off,,192,0,1,,,,,,0,58,64
467136,note_off,,192,0,2,,,,,,0,50,64
467136,note_on,,0,0,1,,,,,,0,61,92
467136,note_off,,192,0,1,,,,,,0,57,64
467136,note_on,,0,0,2,,,,,,0,57,92
467328,note_off,,192,0,2,,,,,,0,57,64
467328,note_on,,0,0,2,,,,,,0,62,92
467328,note_on,,0,0,3,,,,,,0,38,102
467328,note_off,,384,0,3,,,,,,0,41,64
467328,note_off,,192,0,1,,,,,,0,61,64
467328,note_off,,0,0,1,,,,,,0,67,64
467328,note_on,,0,0,1,,,,,,0,65,92
467520,note_on,,0,0,2,,,,,,0,60,92
467520,note_off,,192,0,2,,,,,,0,62,64
467712,note_on,,0,0,3,,,,,,0,43,102
467712,note_off,,384,0,3,,,,,,0,38,64
467712,note_on,,0,0,2,,,,,,0,58,92
467712,note_off,,192,0,2,,,,,,0,60,64
467712,note_on,,384,0,1,,,,,,0,70,92
467904,note_on,,0,0,2,,,,,,0,57,92
467904,note_off,,192,0,2,,,,,,0,58,64
468096,note_on,,0,0,2,,,,,,0,55,92
468096,note_off,,192,0,2,,,,,,0,57,64
468096,note_on,,0,0,1,,,,,,0,64,92
468096,note_off,,384,0,1,,,,,,0,65,64
468288,note_off,,192,0,1,,,,,,0,64,64
468288,note_on,,0,0,1,,,,,,0,62,92
468288,note_on,,0,0,2,,,,,,0,53,92
468288,note_off,,192,0,2,,,,,,0,55,64
468480,note_off,,192,0,1,,,,,,0,62,64
468480,note_on,,0,0,1,,,,,,0,61,92
468480,note_off,,192,0,2,,,,,,0,53,64
468480,note_on,,0,0,2,,,,,,0,52,92
468864,note_on,,0,0,2,,,,,,0,53,92
468864,note_on,,0,0,3,,,,,,0,41,102
468864,note_off,,1152,0,3,,,,,,0,43,64
468864,note_off,,384,0,2,,,,,,0,52,64
468864,note_on,,0,0,1,,,,,,0,69,92
468864,note_on,,0,0,1,,,,,,0,62,92
468864,note_off,,0,0,1,,,,,,0,70,64
468864,note_off,,384,0,1,,,,,,0,61,64
469056,note_on,,0,0,2,,,,,,0,52,92
469056,note_on,,0,0,1,,,,,,0,64,92
469056,note_off,,192,0,1,,,,,,0,62,64
469056,note_off,,192,0,2,,,,,,0,53,64
469248,note_on,,0,0,2,,,,,,0,50,92
469248,note_off,,192,0,2,,,,,,0,52,64
469248,note_off,,384,0,3,,,,,,0,41,64
469248,note_on,,0,0,1,,,,,,0,65,92
469248,note_on,,0,0,1,,,,,,0,74,92
469248,note_off,,0,0,1,,,,,,0,69,64
469248,note_off,,192,0,1,,,,,,0,64,64
469248,note_on,,0,0,3,,,,,,0,46,102
469440,note_on,,0,0,2,,,,,,0,52,92
469440,note_off,,192,0,2,,,,,,0,50,64
469440,note_on,,0,0,1,,,,,,0,67,92
469440,note_off,,192,0,1,,,,,,0,65,64
469632,note_off,,192,0,1,,,,,,0,67,64
469632,note_on,,0,0,1,,,,,,0,69,92
469632,note_on,,0,0,2,,,,,,0,53,92
469632,note_off,,192,0,2,,,,,,0,52,64
469824,note_off,,192,0,2,,,,,,0,53,64
469824,note_off,,192,0,1,,,,,,0,69,64
469824,note_on,,0,0,1,,,,,,0,70,92
469824,note_on,,0,0,2,,,,,,0,50,92
470016,note_off,,192,0,2,,,,,,0,50,64
470016,note_off,,192,0,1,,,,,,0,70,64
470016,note_on,,0,0,2,,,,,,0,55,92
470016,note_on,,0,0,1,,,,,,0,64,92
470400,note_off,,1152,0,3,,,,,,0,46,64
470400,note_off,,0,0,1,,,,,,0,74,64
470400,note_on,,0,0,3,,,,,,0,45,102
470400,note_on,,0,0,1,,,,,,0,72,92
470400,note_on,,0,0,1,,,,,,0,69,92
470400,note_off,,384,0,1,,,,,,0,64,64
470592,note_off,,576,0,2,,,,,,0,55,64
470592,note_on,,0,0,2,,,,,,0,55,92
470784,note_off,,192,0,2,,,,,,0,55,64
470784,note_off,,384,0,3,,,,,,0,45,64
470784,note_on,,0,0,3,,,,,,0,50,102
470784,note_on,,0,0,2,,,,,,0,53,92
470976,note_off,,192,0,2,,,,,,0,53,64
470976,note_on,,0,0,2,,,,,,0,55,92
471168,note_on,,0,0,1,,,,,,0,70,92
471168,note_off,,0,0,1,,,,,,0,69,64
471168,note_off,,768,0,1,,,,,,0,72,64
471168,note_on,,0,0,2,,,,,,0,53,92
471168,note_off,,192,0,2,,,,,,0,55,64
471360,note_on,,192,0,1,,,,,,0,65,92
471360,note_on,,0,0,2,,,,,,0,58,92
471360,note_off,,192,0,2,,,,,,0,53,64
471552,note_on,,0,0,1,,,,,,0,67,92
471552,note_off,,192,0,1,,,,,,0,65,64
471552,note_on,,0,0,2,,,,,,0,52,92
471552,note_off,,192,0,2,,,,,,0,58,64
471744,note_off,,192,0,2,,,,,,0,52,64
471744,note_on,,0,0,2,,,,,,0,53,92
471936,note_on,,0,0,3,,,,,,0,48,102
471936,note_off,,1152,0,3,,,,,,0,50,64
471936,note_off,,192,0,2,,,,,,0,53,64
471936,note_on,,0,0,1,,,,,,0,69,92
471936,note_off,,0,0,1,,,,,,0,70,64
471936,note_off,,384,0,1,,,,,,0,67,64
471936,note_on,,0,0,2,,,,,,0,52,92
472128,note_off,,192,0,2,,,,,,0,52,64
472128,note_on,,0,0,2,,,,,,0,57,92
472128,note_on,,192,0,1,,,,,,0,64,92
472320,note_off,,192,0,2,,,,,,0,57,64
472320,note_on,,0,0,2,,,,,,0,50,92
472320,note_on,,0,0,1,,,,,,0,65,92
472320,note_off,,192,0,1,,,,,,0,64,64
472512,note_off,,192,0,2,,,,,,0,50,64
472512,note_on,,0,0,2,,,,,,0,52,92
472704,note_off,,384,0,1,,,,,,0,65,64
472704,note_off,,0,0,1,,,,,,0,69,64
472704,note_on,,0,0,1,,,,,,0,67,92
472704,note_on,,0,0,3,,,,,,0,46,102
472704,note_off,,768,0,3,,,,,,0,48,64
472704,note_off,,192,0,2,,,,,,0,52,64
472704,note_on,,0,0,2,,,,,,0,50,92
472896,note_on,,0,0,2,,,,,,0,55,92
472896,note_on,,192,0,1,,,,,,0,62,92
472896,note_off,,192,0,2,,,,,,0,50,64
473088,note_off,,192,0,1,,,,,,0,62,64
473088,note_on,,0,0,1,,,,,,0,64,92
473088,note_on,,0,0,2,,,,,,0,48,92
473088,note_off,,192,0,2,,,,,,0,55,64
473280,note_off,,192,0,1,,,,,,0,64,64
473280,note_on,,0,0,1,,,,,,0,60,92
473472,note_off,,768,0,3,,,,,,0,46,64
473472,note_on,,0,0,3,,,,,,0,45,102
473472,note_on,,0,0,1,,,,,,0,65,92
473472,note_off,,0,0,1,,,,,,0,67,64
473472,note_off,,192,0,1,,,,,,0,60,64
473664,note_on,,192,0,1,,,,,,0,60,92
473856,note_off,,192,0,1,,,,,,0,60,64
473856,note_off,,0,0,1,,,,,,0,65,64
473856,note_off,,768,0,2,,,,,,0,48,64
473856,note_on,,0,0,2,,,,,,0,53,92
473856,note_on,,0,0,1,,,,,,0,70,92
473856,note_on,,0,0,1,,,,,,0,62,92
474048,note_on,,0,0,1,,,,,,0,65,92
474048,note_off,,192,0,1,,,,,,0,62,64
474240,note_on,,0,0,1,,,,,,0,64,92
474240,note_off,,768,0,3,,,,,,0,45,64
474240,note_off,,192,0,1,,,,,,0,65,64
474240,note_on,,0,0,3,,,,,,0,43,102
474240,note_off,,384,0,2,,,,,,0,53,64
474240,note_on,,0,0,2,,,,,,0,55,92
474432,note_off,,192,0,1,,,,,,0,64,64
474432,note_off,,192,0,2,,,,,,0,55,64
474432,note_on,,0,0,1,,,,,,0,67,92
474432,note_on,,0,0,2,,,,,,0,53,92
474624,note_off,,192,0,2,,,,,,0,53,64
474624,note_on,,0,0,2,,,,,,0,52,92
474624,note_off,,192,0,1,,,,,,0,67,64
474624,note_off,,0,0,1,,,,,,0,70,64
474624,note_on,,0,0,1,,,,,,0,61,92
474624,note_on,,0,0,1,,,,,,0,69,92
475008,note_on,,0,0,3,,,,,,0,41,102
475008,note_off,,0,0,1,,,,,,0,61,64
475008,note_on,,0,0,1,,,,,,0,69,92
475008,note_on,,0,0,1,,,,,,0,74,92
475008,note_off,,768,0,3,,,,,,0,43,64
475008,note_off,,384,0,1,,,,,,0,69,64
475008,note_on,,0,0,2,,,,,,0,53,92
475008,note_off,,384,0,2,,,,,,0,52,64
475392,note_off,,384,0,2,,,,,,0,53,64
475392,note_off,,384,0,1,,,,,,0,69,64
475392,note_on,,0,0,1,,,,,,0,67,92
475392,note_off,,384,0,3,,,,,,0,41,64
475392,note_on,,0,0,3,,,,,,0,40,102
475392,note_on,,0,0,2,,,,,,0,55,92
475776,note_on,,0,0,2,,,,,,0,57,92
475776,note_off,,384,0,3,,,,,,0,40,64
475776,note_on,,0,0,3,,,,,,0,45,102
475776,note_off,,384,0,2,,,,,,0,55,64
475776,note_off,,0,0,1,,,,,,0,74,64
475776,note_off,,384,0,1,,,,,,0,67,64
475776,note_on,,0,0,1,,,,,,0,65,92
475776,note_on,,0,0,1,,,,,,0,73,92
475968,note_off,,192,0,1,,,,,,0,65,64
475968,note_on,,0,0,1,,,,,,0,64,92
476160,note_off,,384,0,3,,,,,,0,45,64
476160,note_on,,0,0,3,,,,,,0,38,102
476160,note_off,,192,0,1,,,,,,0,64,64
476160,note_on,,0,0,1,,,,,,0,74,92
476160,note_on,,0,0,1,,,,,,0,65,92
476160,note_off,,0,0,1,,,,,,0,73,64
476544,note_off,,768,0,2,,,,,,0,57,64
476544,note_on,,0,0,2,,,,,,0,62,92
476928,note_off,,768,0,1,,,,,,0,74,64
476928,note_off,,768,0,3,,,,,,0,38,64
476928,note_off,,0,0,1,,,,,,0,65,64
476928,note_on,,0,0,3,,,,,,0,57,102
477312,note_off,,768,0,2,,,,,,0,62,64
477312,note_on,,0,0,2,,,,,,0,60,92
477504,note_off,,192,0,2,,,,,,0,60,64
477504,note_on,,0,0,2,,,,,,0,58,92
477696,note_on,,0,0,2,,,,,,0,60,92
477696,note_off,,192,0,2,,,,,,0,58,64
477696,note_on,,768,0,1,,,,,,0,69,92
477696,note_on,,0,0,1,,,,,,0,77,92
478080,note_off,,384,0,2,,,,,,0,60,64
478080,note_off,,1152,0,3,,,,,,0,57,64
478080,note_on,,0,0,3,,,,,,0,55,102
478080,note_on,,0,0,2,,,,,,0,53,92
478272,note_on,,0,0,3,,,,,,0,53,102
478272,note_off,,192,0,3,,,,,,0,55,64
478464,note_on,,0,0,3,,,,,,0,55,102
478464,note_off,,192,0,3,,,,,,0,53,64
478464,note_off,,384,0,2,,,,,,0,53,64
478464,note_on,,0,0,2,,,,,,0,58,92
478848,note_on,,0,0,1,,,,,,0,76,92
478848,note_on,,0,0,1,,,,,,0,67,92
478848,note_off,,0,0,1,,,,,,0,69,64
478848,note_off,,1152,0,1,,,,,,0,77,64
478848,note_on,,0,0,3,,,,,,0,48,102
478848,note_off,,384,0,3,,,,,,0,55,64
479040,note_on,,0,0,1,,,,,,0,65,92
479040,note_off,,0,0,1,,,,,,0,67,64
479040,note_off,,192,0,1,,,,,,0,76,64
479040,note_on,,0,0,1,,,,,,0,74,92
479232,note_on,,0,0,3,,,,,,0,53,102
479232,note_off,,384,0,3,,,,,,0,48,64
479232,note_on,,0,0,1,,,,,,0,76,92
479232,note_on,,0,0,1,,,,,,0,67,92
479232,note_off,,0,0,1,,,,,,0,65,64
479232,note_off,,192,0,1,,,,,,0,74,64
479616,note_off,,1152,0,2,,,,,,0,58,64
479616,note_on,,0,0,2,,,,,,0,57,92
479616,note_on,,0,0,1,,,,,,0,61,92
479616,note_off,,384,0,1,,,,,,0,76,64
479616,note_off,,0,0,1,,,,,,0,67,64
479616,note_on,,0,0,1,,,,,,0,69,92
479808,note_off,,192,0,2,,,,,,0,57,64
479808,note_on,,0,0,2,,,,,,0,55,92
480000,note_off,,0,0,1,,,,,,0,61,64
480000,note_on,,0,0,1,,,,,,0,65,92
480000,note_on,,0,0,1,,,,,,0,74,92
480000,note_on,,0,0,2,,,,,,0,57,92
480000,note_off,,192,0,2,,,,,,0,55,64
480000,note_off,,384,0,1,,,,,,0,69,64
480384,note_on,,0,0,2,,,,,,0,50,92
480384,note_off,,384,0,2,,,,,,0,57,64
480384,note_off,,1152,0,3,,,,,,0,53,64
480384,note_on,,0,0,3,,,,,,0,52,102
480576,note_off,,192,0,3,,,,,,0,52,64
480576,note_on,,0,0,3,,,,,,0,50,102
480768,note_off,,384,0,2,,,,,,0,50,64
480768,note_on,,0,0,3,,,,,,0,52,102
480768,note_off,,192,0,3,,,,,,0,50,64
480768,note_on,,0,0,2,,,,,,0,55,92
481152,note_on,,0,0,1,,,,,,0,64,92
481152,note_on,,0,0,1,,,,,,0,72,92
481152,note_off,,0,0,1,,,,,,0,65,64
481152,note_off,,1152,0,1,,,,,,0,74,64
481152,note_off,,384,0,3,,,,,,0,52,64
481152,note_on,,0,0,3,,,,,,0,45,102
481344,note_off,,192,0,1,,,,,,0,72,64
481344,note_off,,0,0,1,,,,,,0,64,64
481344,note_on,,0,0,1,,,,,,0,62,92
481344,note_on,,0,0,1,,,,,,0,70,92
481536,note_on,,0,0,3,,,,,,0,50,102
481536,note_off,,384,0,3,,,,,,0,45,64
481536,note_on,,0,0,1,,,,,,0,72,92
481536,note_on,,0,0,1,,,,,,0,64,92
481536,note_off,,0,0,1,,,,,,0,62,64
481536,note_off,,192,0,1,,,,,,0,70,64
481920,note_on,,0,0,2,,,,,,0,53,92
481920,note_on,,0,0,1,,,,,,0,65,92
481920,note_on,,0,0,1,,,,,,0,57,92
481920,note_off,,0,0,1,,,,,,0,64,64
481920,note_off,,384,0,1,,,,,,0,72,64
481920,note_off,,1152,0,2,,,,,,0,55,64
482112,note_on,,0,0,2,,,,,,0,52,92
482112,note_off,,192,0,2,,,,,,0,53,64
482304,note_on,,0,0,1,,,,,,0,70,92
482304,note_off,,0,0,1,,,,,,0,57,64
482304,note_off,,384,0,1,,,,,,0,65,64
482304,note_on,,0,0,1,,,,,,0,62,92
482304,note_off,,192,0,2,,,,,,0,52,64
482304,note_on,,0,0,2,,,,,,0,53,92
482688,note_off,,384,0,2,,,,,,0,53,64
482688,note_on,,0,0,2,,,,,,0,46,92
482688,note_on,,0,0,3,,,,,,0,48,102
482688,note_off,,1152,0,3,,,,,,0,50,64
482880,note_on,,0,0,3,,,,,,0,46,102
482880,note_off,,192,0,3,,,,,,0,48,64
483072,note_off,,384,0,2,,,,,,0,46,64
483072,note_on,,0,0,2,,,,,,0,51,92
483072,note_on,,0,0,3,,,,,,0,48,102
483072,note_off,,192,0,3,,,,,,0,46,64
483456,note_off,,1152,0,1,,,,,,0,70,64
483456,note_on,,0,0,1,,,,,,0,60,92
483456,note_on,,0,0,1,,,,,,0,69,92
483456,note_off,,0,0,1,,,,,,0,62,64
483456,note_off,,384,0,3,,,,,,0,48,64
483456,note_on,,0,0,3,,,,,,0,41,102
483648,note_off,,0,0,1,,,,,,0,60,64
483648,note_on,,0,0,1,,,,,,0,58,92
483648,note_on,,0,0,1,,,,,,0,67,92
483648,note_off,,192,0,1,,,,,,0,69,64
483840,note_off,,192,0,1,,,,,,0,67,64
483840,note_off,,0,0,1,,,,,,0,58,64
483840,note_on,,0,0,1,,,,,,0,60,92
483840,note_on,,0,0,1,,,,,,0,69,92
483840,note_off,,384,0,3,,,,,,0,41,64
483840,note_on,,0,0,3,,,,,,0,46,102
484224,note_off,,1152,0,2,,,,,,0,51,64
484224,note_on,,0,0,2,,,,,,0,50,92
484224,note_on,,0,0,1,,,,,,0,62,92
484224,note_off,,0,0,1,,,,,,0,60,64
484224,note_off,,384,0,1,,,,,,0,69,64
484224,note_on,,0,0,2,,,,,,0,54,92
484416,note_on,,0,0,2,,,,,,0,49,92
484416,note_off,,192,0,2,,,,,,0,50,64
484608,note_on,,0,0,2,,,,,,0,50,92
484608,note_on,,0,0,2,,,,,,0,58,92
484608,note_off,,0,0,2,,,,,,0,54,64
484608,note_off,,192,0,2,,,,,,0,49,64
484608,note_on,,0,0,1,,,,,,0,67,92
484608,note_off,,384,0,1,,,,,,0,62,64
484800,note_on,,0,0,2,,,,,,0,49,92
484800,note_off,,192,0,2,,,,,,0,50,64
484992,note_off,,192,0,2,,,,,,0,49,64
484992,note_on,,0,0,3,,,,,,0,45,102
484992,note_on,,0,0,2,,,,,,0,50,92
484992,note_off,,1152,0,3,,,,,,0,46,64
485184,note_off,,192,0,3,,,,,,0,45,64
485184,note_on,,0,0,3,,,,,,0,43,102
485184,note_off,,192,0,2,,,,,,0,50,64
485184,note_on,,0,0,2,,,,,,0,52,92
485376,note_off,,192,0,2,,,,,,0,52,64
485376,note_on,,0,0,2,,,,,,0,49,92
485376,note_off,,192,0,3,,,,,,0,43,64
485376,note_on,,0,0,3,,,,,,0,45,102
485760,note_on,,0,0,2,,,,,,0,48,92
485760,note_on,,0,0,2,,,,,,0,57,92
485760,note_off,,0,0,2,,,,,,0,58,64
485760,note_off,,384,0,3,,,,,,0,45,64
485760,note_on,,0,0,3,,,,,,0,38,102
485760,note_on,,0,0,1,,,,,,0,65,92
485760,note_off,,384,0,2,,,,,,0,49,64
485760,note_off,,1152,0,1,,,,,,0,67,64
485952,note_on,,0,0,2,,,,,,0,55,92
485952,note_on,,0,0,1,,,,,,0,64,92
485952,note_off,,192,0,2,,,,,,0,57,64
485952,note_off,,192,0,1,,,,,,0,65,64
486144,note_off,,192,0,1,,,,,,0,64,64
486144,note_on,,0,0,3,,,,,,0,43,102
486144,note_on,,0,0,1,,,,,,0,65,92
486144,note_off,,384,0,3,,,,,,0,38,64
486144,note_on,,0,0,2,,,,,,0,57,92
486144,note_off,,0,0,2,,,,,,0,48,64
486144,note_off,,192,0,2,,,,,,0,55,64
486144,note_on,,0,0,2,,,,,,0,47,92
486528,note_on,,0,0,1,,,,,,0,64,92
486528,note_off,,384,0,1,,,,,,0,65,64
486528,note_off,,384,0,2,,,,,,0,47,64
486528,note_on,,0,0,2,,,,,,0,55,92
486528,note_on,,0,0,2,,,,,,0,58,92
486528,note_off,,0,0,2,,,,,,0,57,64
486720,note_off,,192,0,1,,,,,,0,64,64
486720,note_on,,0,0,1,,,,,,0,62,92
486720,note_off,,192,0,2,,,,,,0,55,64
486720,note_on,,0,0,2,,,,,,0,53,92
486912,note_off,,192,0,1,,,,,,0,62,64
486912,note_on,,0,0,1,,,,,,0,61,92
486912,set_tempo,495860,333312,1,0,,,,,,,,
486912,note_off,,192,0,2,,,,,,0,53,64
486912,note_off,,0,0,2,,,,,,0,58,64
486912,note_on,,0,0,2,,,,,,0,52,92
486912,note_on,,0,0,2,,,,,,0,57,92
487296,note_on,,0,0,3,,,,,,0,41,102
487296,note_off,,384,0,2,,,,,,0,52,64
487296,note_on,,0,0,2,,,,,,0,50,92
487296,note_off,,1152,0,3,,,,,,0,43,64
487296,note_off,,384,0,1,,,,,,0,61,64
487296,note_on,,0,0,1,,,,,,0,69,92
487488,note_off,,192,0,2,,,,,,0,57,64
487488,note_on,,0,0,2,,,,,,0,55,92
487680,note_on,,0,0,2,,,,,,0,53,92
487680,note_on,,0,0,3,,,,,,0,46,102
487680,note_off,,384,0,3,,,,,,0,41,64
487680,note_on,,0,0,2,,,,,,0,62,92
487680,note_off,,0,0,2,,,,,,0,50,64
487680,note_off,,192,0,2,,,,,,0,55,64
488064,note_off,,768,0,1,,,,,,0,69,64
488064,note_off,,384,0,2,,,,,,0,53,64
488064,note_on,,0,0,1,,,,,,0,67,92
488064,note_on,,0,0,2,,,,,,0,52,92
488256,note_off,,192,0,2,,,,,,0,52,64
488256,note_on,,0,0,2,,,,,,0,50,92
488448,note_on,,0,0,2,,,,,,0,57,92
488448,note_off,,0,0,2,,,,,,0,62,64
488448,note_off,,192,0,2,,,,,,0,50,64
488448,set_tempo,517240,1536,1,0,,,,,,,,
488448,note_on,,0,0,3,,,,,,0,45,102
488448,note_off,,768,0,3,,,,,,0,46,64
488448,note_on,,0,0,2,,,,,,0,61,92
488832,note_off,,384,0,2,,,,,,0,61,64
488832,note_on,,0,0,2,,,,,,0,65,92
488832,note_on,,0,0,2,,,,,,0,62,92
488832,note_on,,0,0,1,,,,,,0,81,92
488832,note_off,,768,0,1,,,,,,0,67,64
488832,note_on,,0,0,1,,,,,,0,71,92
488832,note_on,,0,0,1,,,,,,0,74,92
489216,note_on,,0,0,2,,,,,,0,64,92
489216,note_off,,384,0,2,,,,,,0,62,64
489216,note_on,,0,0,1,,,,,,0,79,92
489216,note_on,,0,0,1,,,,,,0,76,92
489216,note_on,,0,0,1,,,,,,0,73,92
489216,note_off,,0,0,1,,,,,,0,71,64
489216,note_off,,0,0,1,,,,,,0,74,64
489216,note_on,,0,0,2,,,,,,0,61,92
489216,note_off,,384,0,1,,,,,,0,81,64
489216,note_off,,0,0,2,,,,,,0,65,64
489600,note_on,,0,0,2,,,,,,0,61,92
489600,note_on,,0,0,2,,,,,,0,52,92
489600,note_off,,0,0,2,,,,,,0,57,64
489600,note_off,,0,0,2,,,,,,0,61,64
489600,note_off,,384,0,2,,,,,,0,64,64
489600,note_on,,0,0,2,,,,,,0,55,92
489600,note_off,,0,0,1,,,,,,0,73,64
489600,note_off,,384,0,1,,,,,,0,79,64
489600,note_off,,0,0,1,,,,,,0,76,64
489984,note_off,,0,0,2,,,,,,0,52,64
489984,note_off,,384,0,2,,,,,,0,61,64
489984,note_on,,0,0,2,,,,,,0,62,92
489984,note_on,,0,0,2,,,,,,0,53,92
489984,note_on,,0,0,2,,,,,,0,57,92
489984,set_tempo,540540,1536,1,0,,,,,,,,
489984,note_off,,0,0,2,,,,,,0,55,64
490368,note_on,,768,0,1,,,,,,0,69,92
490368,note_on,,0,0,1,,,,,,0,74,92
490368,note_on,,0,0,1,,,,,,0,77,92
490368,note_off,,0,0,2,,,,,,0,53,64
490368,note_off,,0,0,2,,,,,,0,57,64
490368,note_off,,384,0,2,,,,,,0,62,64
490752,note_on,,0,0,1,,,,,,0,76,92
490752,note_on,,0,0,1,,,,,,0,73,92
490752,note_off,,384,0,1,,,,,,0,77,64
490752,note_off,,0,0,1,,,,,,0,69,64
490752,note_off,,0,0,1,,,,,,0,74,64
490752,note_on,,0,0,1,,,,,,0,67,92
491136,note_off,,0,0,1,,,,,,0,73,64
491136,note_off,,384,0,1,,,,,,0,76,64
491136,note_off,,0,0,1,,,,,,0,67,64
491136,note_on,,0,0,2,,,,,,0,64,92
491136,note_on,,0,0,2,,,,,,0,61,92
491136,note_on,,768,0,2,,,,,,0,55,92
491520,note_off,,0,0,2,,,,,,0,61,64
491520,note_off,,0,0,2,,,,,,0,55,64
491520,note_on,,0,0,2,,,,,,0,57,92
491520,note_on,,0,0,2,,,,,,0,62,92
491520,note_on,,0,0,2,,,,,,0,65,92
491520,set_tempo,571420,1536,1,0,,,,,,,,
491520,note_off,,384,0,2,,,,,,0,64,64
491904,note_on,,0,0,1,,,,,,0,69,92
491904,note_on,,0,0,1,,,,,,0,74,92
491904,note_off,,384,0,2,,,,,,0,65,64
491904,note_off,,0,0,2,,,,,,0,62,64
491904,note_off,,0,0,2,,,,,,0,57,64
491904,note_on,,768,0,1,,,,,,0,65,92
492288,note_on,,0,0,2,,,,,,0,57,92
492288,note_off,,0,0,1,,,,,,0,65,64
492288,note_on,,384,0,2,,,,,,0,45,92
492288,note_on,,0,0,2,,,,,,0,52,92
492288,note_off,,384,0,1,,,,,,0,74,64
492288,note_off,,0,0,1,,,,,,0,69,64
492672,note_on,,384,0,1,,,,,,0,64,92
492672,note_on,,0,0,1,,,,,,0,69,92
492672,note_on,,0,0,1,,,,,,0,73,92
492672,note_on,,0,0,1,,,,,,0,67,92
493056,note_off,,768,0,2,,,,,,0,57,64
493056,note_off,,0,0,2,,,,,,0,52,64
493056,note_off,,0,0,2,,,,,,0,45,64
493056,note_on,,0,0,2,,,,,,0,50,92
493056,note_on,,0,0,2,,,,,,0,57,92
493056,note_off,,4608,0,3,,,,,,0,45,64
493056,note_on,,0,0,3,,,,,,0,38,102
493056,note_on,,0,0,1,,,,,,0,74,92
493056,note_on,,0,0,1,,,,,,0,69,92
493056,note_on,,0,0,1,,,,,,0,66,92
493056,note_on,,0,0,1,,,,,,0,62,92
493056,note_off,,0,0,1,,,,,,0,64,64
493056,note_off,,0,0,1,,,,,,0,67,64
493056,note_off,,0,0,1,,,,,,0,69,64
493056,note_off,,384,0,1,,,,,,0,73,64
493056,set_tempo,1200000,1536,1,0,,,,,,,,
493056,note_on,,0,0,2,,,,,,0,54,92
494592,note_off,,0,0,2,,,,,,0,50,64
494592,note_off,,1536,0,3,,,,,,0,38,64
494592,end_of_track,,0,1,2,,,,,,,,
494592,note_off,,1536,0,1,,,,,,0,74,64
494592,note_off,,0,0,1,,,,,,0,69,64
494592,note_off,,0,0,1,,,,,,0,66,64
494592,note_off,,0,0,1,,,,,,0,62,64
494592,end_of_track,,0,1,1,,,,,,,,
494592,note_off,,1536,0,2,,,,,,0,57,64
494592,note_off,,0,0,2,,,,,,0,54,64
494592,end_of_track,,1536,1,0,,,,,,,,
494592,end_of_track,,0,1,3,,,,,,,,
