tick,type,time,meta,track,frame_rate,hours,minutes,seconds,frames,sub_frames,numerator,denominator,clocks_per_click,notated_32nd_notes_per_beat,key,tempo,port,program,channel,control,value,note,velocity
0,track_name,0,1,0,,,,,,,,,,,,,,,,,,,
0,midi_port,0,1,5,,,,,,,,,,,,,0,,,,,,
0,end_of_track,0,1,4,,,,,,,,,,,,,,,,,,,
0,track_name,0,1,4,,,,,,,,,,,,,,,,,,,
0,midi_port,0,1,4,,,,,,,,,,,,,0,,,,,,
0,note_on,0,0,3,,,,,,,,,,,,,,,2,,,36,95
0,control_change,0,0,3,,,,,,,,,,,,,,,2,10,64,,
0,control_change,0,0,3,,,,,,,,,,,,,,,2,7,100,,
0,program_change,0,0,3,,,,,,,,,,,,,,19,2,,,,
0,track_name,0,1,3,,,,,,,,,,,,,,,,,,,
0,track_name,0,1,5,,,,,,,,,,,,,,,,,,,
0,midi_port,0,1,3,,,,,,,,,,,,,0,,,,,,
0,control_change,0,0,2,,,,,,,,,,,,,,,1,7,100,,
0,program_change,0,0,2,,,,,,,,,,,,,,19,1,,,,
0,track_name,0,1,2,,,,,,,,,,,,,,,,,,,
0,midi_port,0,1,2,,,,,,,,,,,,,0,,,,,,
0,track_name,0,1,13,,,,,,,,,,,,,,,,,,,
0,control_change,0,0,1,,,,,,,,,,,,,,,0,91,127,,
0,control_change,0,0,1,,,,,,,,,,,,,,,0,10,64,,
0,control_change,0,0,1,,,,,,,,,,,,,,,0,7,100,,
0,program_change,0,0,1,,,,,,,,,,,,,,19,0,,,,
0,control_change,0,0,2,,,,,,,,,,,,,,,1,10,64,,
0,track_name,0,1,1,,,,,,,,,,,,,,,,,,,
0,end_of_track,0,1,5,,,,,,,,,,,,,,,,,,,
0,track_name,0,1,6,,,,,,,,,,,,,,,,,,,
0,midi_port,0,1,13,,,,,,,,,,,,,0,,,,,,
0,end_of_track,0,1,12,,,,,,,,,,,,,,,,,,,
0,track_name,0,1,12,,,,,,,,,,,,,,,,,,,
0,midi_port,0,1,12,,,,,,,,,,,,,0,,,,,,
0,end_of_track,0,1,11,,,,,,,,,,,,,,,,,,,
0,track_name,0,1,11,,,,,,,,,,,,,,,,,,,
0,midi_port,0,1,11,,,,,,,,,,,,,0,,,,,,
0,end_of_track,0,1,10,,,,,,,,,,,,,,,,,,,
0,track_name,0,1,10,,,,,,,,,,,,,,,,,,,
0,midi_port,0,1,6,,,,,,,,,,,,,0,,,,,,
0,midi_port,0,1,10,,,,,,,,,,,,,0,,,,,,
0,track_name,0,1,9,,,,,,,,,,,,,,,,,,,
0,midi_port,0,1,9,,,,,,,,,,,,,0,,,,,,
0,end_of_track,0,1,8,,,,,,,,,,,,,,,,,,,
0,track_name,0,1,8,,,,,,,,,,,,,,,,,,,
0,midi_port,0,1,8,,,,,,,,,,,,,0,,,,,,
0,end_of_track,0,1,7,,,,,,,,,,,,,,,,,,,
0,track_name,0,1,7,,,,,,,,,,,,,,,,,,,
0,midi_port,0,1,7,,,,,,,,,,,,,0,,,,,,
0,end_of_track,0,1,6,,,,,,,,,,,,,,,,,,,
0,end_of_track,0,1,9,,,,,,,,,,,,,,,,,,,
0,midi_port,0,1,1,,,,,,,,,,,,,0,,,,,,
0,end_of_track,0,1,13,,,,,,,,,,,,,,,,,,,
0,set_tempo,0,1,0,,,,,,,,,,,,1000000,,,,,,,
0,key_signature,0,1,0,,,,,,,,,,,C,,,,,,,,
0,time_signature,0,1,0,,,,,,,4,4,24,8,,,,,,,,,
0,smpte_offset,0,1,0,25,32,0,3,0,0,,,,,,,,,,,,,
30,note_on,30,0,3,,,,,,,,,,,,,,,2,,,36,0
30,note_on,0,0,3,,,,,,,,,,,,,,,2,,,35,95
60,note_on,30,0,3,,,,,,,,,,,,,,,2,,,35,0
60,note_on,0,0,3,,,,,,,,,,,,,,,2,,,36,95
240,note_on,180,0,3,,,,,,,,,,,,,,,2,,,36,0
300,note_on,60,0,3,,,,,,,,,,,,,,,2,,,31,95
360,note_on,0,0,3,,,,,,,,,,,,,,,2,,,36,95
360,note_on,60,0,3,,,,,,,,,,,,,,,2,,,31,0
420,note_on,60,0,3,,,,,,,,,,,,,,,2,,,36,0
420,note_on,0,0,3,,,,,,,,,,,,,,,2,,,35,95
480,note_on,60,0,3,,,,,,,,,,,,,,,2,,,35,0
480,note_on,0,0,3,,,,,,,,,,,,,,,2,,,36,95
510,note_on,30,0,3,,,,,,,,,,,,,,,2,,,36,0
510,note_on,0,0,3,,,,,,,,,,,,,,,2,,,35,95
540,note_on,30,0,3,,,,,,,,,,,,,,,2,,,35,0
540,note_on,0,0,3,,,,,,,,,,,,,,,2,,,36,95
720,note_on,180,0,3,,,,,,,,,,,,,,,2,,,36,0
780,note_on,60,0,3,,,,,,,,,,,,,,,2,,,36,95
840,note_on,0,0,3,,,,,,,,,,,,,,,2,,,39,95
840,note_on,60,0,3,,,,,,,,,,,,,,,2,,,36,0
900,note_on,60,0,3,,,,,,,,,,,,,,,2,,,39,0
900,note_on,0,0,3,,,,,,,,,,,,,,,2,,,38,95
960,note_on,60,0,3,,,,,,,,,,,,,,,2,,,38,0
960,note_on,0,0,3,,,,,,,,,,,,,,,2,,,39,95
990,note_on,0,0,3,,,,,,,,,,,,,,,2,,,38,95
990,note_on,30,0,3,,,,,,,,,,,,,,,2,,,39,0
1020,note_on,30,0,3,,,,,,,,,,,,,,,2,,,38,0
1020,note_on,0,0,3,,,,,,,,,,,,,,,2,,,39,95
1200,note_on,180,0,3,,,,,,,,,,,,,,,2,,,39,0
1260,note_on,60,0,3,,,,,,,,,,,,,,,2,,,39,95
1320,note_on,60,0,3,,,,,,,,,,,,,,,2,,,39,0
1320,note_on,0,0,3,,,,,,,,,,,,,,,2,,,43,95
1380,note_on,60,0,3,,,,,,,,,,,,,,,2,,,43,0
1380,note_on,0,0,3,,,,,,,,,,,,,,,2,,,41,95
1440,note_on,60,0,3,,,,,,,,,,,,,,,2,,,41,0
1440,note_on,0,0,3,,,,,,,,,,,,,,,2,,,43,95
1470,note_on,30,0,3,,,,,,,,,,,,,,,2,,,43,0
1470,note_on,0,0,3,,,,,,,,,,,,,,,2,,,41,95
1500,note_on,30,0,3,,,,,,,,,,,,,,,2,,,41,0
1500,note_on,0,0,3,,,,,,,,,,,,,,,2,,,43,95
1680,note_on,180,0,3,,,,,,,,,,,,,,,2,,,43,0
1740,note_on,60,0,3,,,,,,,,,,,,,,,2,,,43,95
1800,note_on,60,0,3,,,,,,,,,,,,,,,2,,,43,0
1800,note_on,0,0,3,,,,,,,,,,,,,,,2,,,48,95
1860,note_on,60,0,3,,,,,,,,,,,,,,,2,,,48,0
1860,note_on,0,0,3,,,,,,,,,,,,,,,2,,,47,95
1920,note_on,60,0,3,,,,,,,,,,,,,,,2,,,47,0
1920,note_on,0,0,3,,,,,,,,,,,,,,,2,,,48,95
1950,note_on,30,0,3,,,,,,,,,,,,,,,2,,,48,0
1950,note_on,0,0,3,,,,,,,,,,,,,,,2,,,47,95
1980,note_on,30,0,3,,,,,,,,,,,,,,,2,,,47,0
1980,note_on,0,0,3,,,,,,,,,,,,,,,2,,,48,95
2160,note_on,180,0,3,,,,,,,,,,,,,,,2,,,48,0
2220,note_on,60,0,3,,,,,,,,,,,,,,,2,,,48,95
2280,note_on,0,0,3,,,,,,,,,,,,,,,2,,,43,95
2280,note_on,60,0,3,,,,,,,,,,,,,,,2,,,48,0
2340,note_on,60,0,3,,,,,,,,,,,,,,,2,,,43,0
2340,note_on,0,0,3,,,,,,,,,,,,,,,2,,,46,95
2400,note_on,60,0,3,,,,,,,,,,,,,,,2,,,46,0
2400,note_on,0,0,3,,,,,,,,,,,,,,,2,,,44,95
2460,note_on,60,0,3,,,,,,,,,,,,,,,2,,,44,0
2460,note_on,0,0,3,,,,,,,,,,,,,,,2,,,48,95
2520,note_on,60,0,3,,,,,,,,,,,,,,,2,,,48,0
2520,note_on,0,0,3,,,,,,,,,,,,,,,2,,,41,95
2580,note_on,60,0,3,,,,,,,,,,,,,,,2,,,41,0
2580,note_on,0,0,3,,,,,,,,,,,,,,,2,,,44,95
2640,note_on,60,0,3,,,,,,,,,,,,,,,2,,,44,0
2640,note_on,0,0,3,,,,,,,,,,,,,,,2,,,38,95
2700,note_on,60,0,3,,,,,,,,,,,,,,,2,,,38,0
2700,note_on,0,0,3,,,,,,,,,,,,,,,2,,,46,95
2760,note_on,60,0,3,,,,,,,,,,,,,,,2,,,46,0
2760,note_on,0,0,3,,,,,,,,,,,,,,,2,,,44,95
2820,note_on,60,0,3,,,,,,,,,,,,,,,2,,,44,0
2820,note_on,0,0,3,,,,,,,,,,,,,,,2,,,46,95
2880,note_on,60,0,3,,,,,,,,,,,,,,,2,,,46,0
2880,note_on,0,0,3,,,,,,,,,,,,,,,2,,,43,95
2940,note_on,60,0,3,,,,,,,,,,,,,,,2,,,43,0
2940,note_on,0,0,3,,,,,,,,,,,,,,,2,,,46,95
3000,note_on,60,0,3,,,,,,,,,,,,,,,2,,,46,0
3000,note_on,0,0,3,,,,,,,,,,,,,,,2,,,39,95
3060,note_on,60,0,3,,,,,,,,,,,,,,,2,,,39,0
3060,note_on,0,0,3,,,,,,,,,,,,,,,2,,,43,95
3120,note_on,60,0,3,,,,,,,,,,,,,,,2,,,43,0
3120,note_on,0,0,3,,,,,,,,,,,,,,,2,,,36,95
3180,note_on,60,0,3,,,,,,,,,,,,,,,2,,,36,0
3180,note_on,0,0,3,,,,,,,,,,,,,,,2,,,44,95
3240,note_on,60,0,3,,,,,,,,,,,,,,,2,,,44,0
3240,note_on,0,0,3,,,,,,,,,,,,,,,2,,,43,95
3300,note_on,60,0,3,,,,,,,,,,,,,,,2,,,43,0
3300,note_on,0,0,3,,,,,,,,,,,,,,,2,,,44,95
3360,note_on,60,0,3,,,,,,,,,,,,,,,2,,,44,0
3360,note_on,0,0,3,,,,,,,,,,,,,,,2,,,41,95
3420,note_on,60,0,3,,,,,,,,,,,,,,,2,,,41,0
3420,note_on,0,0,3,,,,,,,,,,,,,,,2,,,44,95
3480,note_on,60,0,3,,,,,,,,,,,,,,,2,,,44,0
3480,note_on,0,0,3,,,,,,,,,,,,,,,2,,,38,95
3540,note_on,60,0,3,,,,,,,,,,,,,,,2,,,38,0
3540,note_on,0,0,3,,,,,,,,,,,,,,,2,,,41,95
3600,note_on,60,0,3,,,,,,,,,,,,,,,2,,,41,0
3600,note_on,0,0,3,,,,,,,,,,,,,,,2,,,35,95
3660,note_on,60,0,3,,,,,,,,,,,,,,,2,,,35,0
3660,note_on,0,0,3,,,,,,,,,,,,,,,2,,,43,95
3720,note_on,60,0,3,,,,,,,,,,,,,,,2,,,43,0
3720,note_on,0,0,3,,,,,,,,,,,,,,,2,,,41,95
3780,note_on,60,0,3,,,,,,,,,,,,,,,2,,,41,0
3780,note_on,0,0,3,,,,,,,,,,,,,,,2,,,43,95
3840,note_on,60,0,3,,,,,,,,,,,,,,,2,,,43,0
3840,note_on,0,0,3,,,,,,,,,,,,,,,2,,,39,95
3900,note_on,60,0,3,,,,,,,,,,,,,,,2,,,39,0
3900,note_on,0,0,3,,,,,,,,,,,,,,,2,,,43,95
3960,note_on,0,0,3,,,,,,,,,,,,,,,2,,,41,95
3960,note_on,60,0,3,,,,,,,,,,,,,,,2,,,43,0
4020,note_on,0,0,3,,,,,,,,,,,,,,,2,,,43,95
4020,note_on,60,0,3,,,,,,,,,,,,,,,2,,,41,0
4080,note_on,0,0,3,,,,,,,,,,,,,,,2,,,38,95
4080,note_on,60,0,3,,,,,,,,,,,,,,,2,,,43,0
4140,note_on,60,0,3,,,,,,,,,,,,,,,2,,,38,0
4140,note_on,0,0,3,,,,,,,,,,,,,,,2,,,43,95
4200,note_on,60,0,3,,,,,,,,,,,,,,,2,,,43,0
4200,note_on,0,0,3,,,,,,,,,,,,,,,2,,,41,95
4260,note_on,60,0,3,,,,,,,,,,,,,,,2,,,41,0
4260,note_on,0,0,3,,,,,,,,,,,,,,,2,,,43,95
4320,note_on,0,0,3,,,,,,,,,,,,,,,2,,,39,95
4320,note_on,60,0,3,,,,,,,,,,,,,,,2,,,43,0
4380,note_on,60,0,3,,,,,,,,,,,,,,,2,,,39,0
4380,note_on,0,0,3,,,,,,,,,,,,,,,2,,,43,95
4440,note_on,60,0,3,,,,,,,,,,,,,,,2,,,43,0
4440,note_on,0,0,3,,,,,,,,,,,,,,,2,,,36,95
4500,note_on,60,0,3,,,,,,,,,,,,,,,2,,,36,0
4500,note_on,0,0,3,,,,,,,,,,,,,,,2,,,41,95
4560,note_on,60,0,3,,,,,,,,,,,,,,,2,,,41,0
4560,note_on,0,0,3,,,,,,,,,,,,,,,2,,,38,95
4620,note_on,60,0,3,,,,,,,,,,,,,,,2,,,38,0
4620,note_on,0,0,3,,,,,,,,,,,,,,,2,,,41,95
4680,note_on,60,0,3,,,,,,,,,,,,,,,2,,,41,0
4680,note_on,0,0,3,,,,,,,,,,,,,,,2,,,34,95
4740,note_on,60,0,3,,,,,,,,,,,,,,,2,,,34,0
4740,note_on,0,0,3,,,,,,,,,,,,,,,2,,,39,95
4800,note_on,60,0,3,,,,,,,,,,,,,,,2,,,39,0
4800,note_on,0,0,3,,,,,,,,,,,,,,,2,,,36,95
4860,note_on,60,0,3,,,,,,,,,,,,,,,2,,,36,0
4860,note_on,0,0,3,,,,,,,,,,,,,,,2,,,39,95
4920,note_on,60,0,3,,,,,,,,,,,,,,,2,,,39,0
4920,note_on,0,0,3,,,,,,,,,,,,,,,2,,,33,95
4980,note_on,60,0,3,,,,,,,,,,,,,,,2,,,33,0
4980,note_on,0,0,3,,,,,,,,,,,,,,,2,,,38,95
5040,note_on,0,0,3,,,,,,,,,,,,,,,2,,,34,95
5040,note_on,60,0,3,,,,,,,,,,,,,,,2,,,38,0
5100,note_on,0,0,3,,,,,,,,,,,,,,,2,,,38,95
5100,note_on,60,0,3,,,,,,,,,,,,,,,2,,,34,0
5160,note_on,0,0,3,,,,,,,,,,,,,,,2,,,31,95
5160,note_on,60,0,3,,,,,,,,,,,,,,,2,,,38,0
5220,note_on,0,0,3,,,,,,,,,,,,,,,2,,,36,95
5220,note_on,60,0,3,,,,,,,,,,,,,,,2,,,31,0
5280,note_on,0,0,3,,,,,,,,,,,,,,,2,,,32,95
5280,note_on,60,0,3,,,,,,,,,,,,,,,2,,,36,0
5340,note_on,60,0,3,,,,,,,,,,,,,,,2,,,32,0
5340,note_on,0,0,3,,,,,,,,,,,,,,,2,,,36,95
5400,note_on,0,0,3,,,,,,,,,,,,,,,2,,,29,95
5400,note_on,60,0,3,,,,,,,,,,,,,,,2,,,36,0
5460,note_on,60,0,3,,,,,,,,,,,,,,,2,,,29,0
5460,note_on,0,0,3,,,,,,,,,,,,,,,2,,,34,95
5520,note_on,60,0,3,,,,,,,,,,,,,,,2,,,34,0
5520,note_on,0,0,3,,,,,,,,,,,,,,,2,,,31,95
5580,note_on,0,0,3,,,,,,,,,,,,,,,2,,,34,95
5580,note_on,60,0,3,,,,,,,,,,,,,,,2,,,31,0
5640,note_on,60,0,3,,,,,,,,,,,,,,,2,,,34,0
5640,note_on,0,0,3,,,,,,,,,,,,,,,2,,,27,95
5700,note_on,60,0,3,,,,,,,,,,,,,,,2,,,27,0
5700,note_on,0,0,3,,,,,,,,,,,,,,,2,,,39,95
5760,note_on,60,0,3,,,,,,,,,,,,,,,2,,,39,0
5760,note_on,0,0,3,,,,,,,,,,,,,,,2,,,36,95
5820,note_on,60,0,3,,,,,,,,,,,,,,,2,,,36,0
5820,note_on,0,0,3,,,,,,,,,,,,,,,2,,,39,95
5880,note_on,60,0,3,,,,,,,,,,,,,,,2,,,39,0
5880,note_on,0,0,3,,,,,,,,,,,,,,,2,,,32,95
5940,note_on,60,0,3,,,,,,,,,,,,,,,2,,,32,0
5940,note_on,0,0,3,,,,,,,,,,,,,,,2,,,41,95
6000,note_on,0,0,3,,,,,,,,,,,,,,,2,,,38,95
6000,note_on,60,0,3,,,,,,,,,,,,,,,2,,,41,0
6060,note_on,60,0,3,,,,,,,,,,,,,,,2,,,38,0
6060,note_on,0,0,3,,,,,,,,,,,,,,,2,,,41,95
6120,note_on,60,0,3,,,,,,,,,,,,,,,2,,,41,0
6120,note_on,0,0,3,,,,,,,,,,,,,,,2,,,35,95
6180,note_on,60,0,3,,,,,,,,,,,,,,,2,,,35,0
6180,note_on,0,0,3,,,,,,,,,,,,,,,2,,,43,95
6240,note_on,60,0,3,,,,,,,,,,,,,,,2,,,43,0
6240,note_on,0,0,3,,,,,,,,,,,,,,,2,,,39,95
6300,note_on,60,0,3,,,,,,,,,,,,,,,2,,,39,0
6300,note_on,0,0,3,,,,,,,,,,,,,,,2,,,43,95
6360,note_on,60,0,3,,,,,,,,,,,,,,,2,,,43,0
6360,note_on,0,0,3,,,,,,,,,,,,,,,2,,,36,95
6420,note_on,60,0,3,,,,,,,,,,,,,,,2,,,36,0
6420,note_on,0,0,3,,,,,,,,,,,,,,,2,,,45,95
6480,note_on,0,0,3,,,,,,,,,,,,,,,2,,,38,95
6480,note_on,60,0,3,,,,,,,,,,,,,,,2,,,45,0
6540,note_on,60,0,3,,,,,,,,,,,,,,,2,,,38,0
6540,note_on,0,0,3,,,,,,,,,,,,,,,2,,,47,95
6600,note_on,60,0,3,,,,,,,,,,,,,,,2,,,47,0
6600,note_on,0,0,3,,,,,,,,,,,,,,,2,,,39,95
6660,note_on,60,0,3,,,,,,,,,,,,,,,2,,,39,0
6660,note_on,0,0,3,,,,,,,,,,,,,,,2,,,48,95
6720,note_on,60,0,3,,,,,,,,,,,,,,,2,,,48,0
6720,note_on,0,0,3,,,,,,,,,,,,,,,2,,,41,95
6780,note_on,0,0,3,,,,,,,,,,,,,,,2,,,44,95
6780,note_on,60,0,3,,,,,,,,,,,,,,,2,,,41,0
6840,note_on,60,0,3,,,,,,,,,,,,,,,2,,,44,0
6840,note_on,0,0,3,,,,,,,,,,,,,,,2,,,38,95
6900,note_on,60,0,3,,,,,,,,,,,,,,,2,,,38,0
6900,note_on,0,0,3,,,,,,,,,,,,,,,2,,,41,95
6960,note_on,0,0,3,,,,,,,,,,,,,,,2,,,39,95
6960,note_on,60,0,3,,,,,,,,,,,,,,,2,,,41,0
7020,note_on,0,0,3,,,,,,,,,,,,,,,2,,,43,95
7020,note_on,60,0,3,,,,,,,,,,,,,,,2,,,39,0
7080,note_on,0,0,3,,,,,,,,,,,,,,,2,,,36,95
7080,note_on,60,0,3,,,,,,,,,,,,,,,2,,,43,0
7140,note_on,0,0,3,,,,,,,,,,,,,,,2,,,39,95
7140,note_on,60,0,3,,,,,,,,,,,,,,,2,,,36,0
7200,set_tempo,7200,1,0,,,,,,,,,,,,1111111,,,,,,,
7200,note_on,0,0,3,,,,,,,,,,,,,,,2,,,29,95
7200,note_on,60,0,3,,,,,,,,,,,,,,,2,,,39,0
7260,note_on,60,0,3,,,,,,,,,,,,,,,2,,,29,0
7260,note_on,0,0,3,,,,,,,,,,,,,,,2,,,44,95
7320,note_on,60,0,3,,,,,,,,,,,,,,,2,,,44,0
7320,note_on,0,0,3,,,,,,,,,,,,,,,2,,,43,95
7380,note_on,0,0,3,,,,,,,,,,,,,,,2,,,41,95
7380,note_on,60,0,3,,,,,,,,,,,,,,,2,,,43,0
7440,note_on,60,0,3,,,,,,,,,,,,,,,2,,,41,0
7440,note_on,0,0,3,,,,,,,,,,,,,,,2,,,43,95
7448,set_tempo,248,1,0,,,,,,,,,,,,1276596,,,,,,,
7470,note_on,0,0,3,,,,,,,,,,,,,,,2,,,42,95
7470,note_on,30,0,3,,,,,,,,,,,,,,,2,,,43,0
7500,note_on,30,0,3,,,,,,,,,,,,,,,2,,,42,0
7500,note_on,0,0,3,,,,,,,,,,,,,,,2,,,43,95
7560,note_on,60,0,3,,,,,,,,,,,,,,,2,,,43,0
7560,note_on,0,0,3,,,,,,,,,,,,,,,2,,,31,95
7680,set_tempo,232,1,0,,,,,,,,,,,,1000000,,,,,,,
7680,note_on,120,0,3,,,,,,,,,,,,,,,2,,,31,0
7680,note_on,0,0,3,,,,,,,,,,,,,,,2,,,36,95
7740,note_on,7740,0,1,,,,,,,,,,,,,,,0,,,67,105
7800,note_on,0,0,1,,,,,,,,,,,,,,,0,,,72,105
7800,note_on,60,0,1,,,,,,,,,,,,,,,0,,,67,0
7860,note_on,60,0,1,,,,,,,,,,,,,,,0,,,72,0
7860,note_on,0,0,1,,,,,,,,,,,,,,,0,,,71,105
7920,note_on,0,0,1,,,,,,,,,,,,,,,0,,,72,105
7920,note_on,60,0,1,,,,,,,,,,,,,,,0,,,71,0
7950,note_on,0,0,1,,,,,,,,,,,,,,,0,,,71,105
7950,note_on,30,0,1,,,,,,,,,,,,,,,0,,,72,0
7980,note_on,30,0,1,,,,,,,,,,,,,,,0,,,71,0
7980,note_on,0,0,1,,,,,,,,,,,,,,,0,,,63,105
7980,note_on,0,0,1,,,,,,,,,,,,,,,0,,,72,105
8040,note_on,60,0,1,,,,,,,,,,,,,,,0,,,63,0
8040,note_on,0,0,1,,,,,,,,,,,,,,,0,,,68,105
8100,note_on,60,0,1,,,,,,,,,,,,,,,0,,,68,0
8100,note_on,0,0,1,,,,,,,,,,,,,,,0,,,67,105
8160,note_on,60,0,1,,,,,,,,,,,,,,,0,,,67,0
8160,note_on,0,0,1,,,,,,,,,,,,,,,0,,,68,105
8220,note_on,0,0,1,,,,,,,,,,,,,,,0,,,72,105
8220,note_on,60,0,1,,,,,,,,,,,,,,,0,,,72,0
8280,note_on,0,0,1,,,,,,,,,,,,,,,0,,,77,105
8280,note_on,60,0,1,,,,,,,,,,,,,,,0,,,72,0
8340,note_on,0,0,1,,,,,,,,,,,,,,,0,,,76,105
8340,note_on,60,0,1,,,,,,,,,,,,,,,0,,,77,0
8400,note_on,0,0,1,,,,,,,,,,,,,,,0,,,77,105
8400,note_on,0,0,1,,,,,,,,,,,,,,,0,,,68,0
8400,note_on,60,0,1,,,,,,,,,,,,,,,0,,,76,0
8460,note_on,8460,0,2,,,,,,,,,,,,,,,1,,,53,95
8520,note_on,120,0,1,,,,,,,,,,,,,,,0,,,68,105
8520,note_on,0,0,2,,,,,,,,,,,,,,,1,,,56,95
8520,note_on,60,0,2,,,,,,,,,,,,,,,1,,,53,0
8580,note_on,60,0,2,,,,,,,,,,,,,,,1,,,56,0
8580,note_on,0,0,2,,,,,,,,,,,,,,,1,,,53,95
8640,note_on,60,0,2,,,,,,,,,,,,,,,1,,,53,0
8640,note_on,0,0,2,,,,,,,,,,,,,,,1,,,60,95
8670,note_on,30,0,2,,,,,,,,,,,,,,,1,,,60,0
8670,note_on,0,0,2,,,,,,,,,,,,,,,1,,,58,95
8700,note_on,0,0,1,,,,,,,,,,,,,,,0,,,68,105
8700,note_on,180,0,1,,,,,,,,,,,,,,,0,,,68,0
8700,note_on,30,0,2,,,,,,,,,,,,,,,1,,,58,0
8700,note_on,0,0,2,,,,,,,,,,,,,,,1,,,60,95
8760,note_on,60,0,1,,,,,,,,,,,,,,,0,,,68,0
8760,note_on,0,0,1,,,,,,,,,,,,,,,0,,,67,105
8820,note_on,60,0,1,,,,,,,,,,,,,,,0,,,77,0
8820,note_on,0,0,1,,,,,,,,,,,,,,,0,,,77,105
8880,note_on,0,0,1,,,,,,,,,,,,,,,0,,,75,105
8880,note_on,60,0,1,,,,,,,,,,,,,,,0,,,77,0
8940,note_on,240,0,2,,,,,,,,,,,,,,,1,,,60,0
8940,note_on,0,0,2,,,,,,,,,,,,,,,1,,,48,95
9000,note_on,60,0,2,,,,,,,,,,,,,,,1,,,48,0
9000,note_on,0,0,2,,,,,,,,,,,,,,,1,,,56,95
9060,note_on,0,0,2,,,,,,,,,,,,,,,1,,,55,95
9060,note_on,60,0,2,,,,,,,,,,,,,,,1,,,56,0
9120,note_on,0,0,2,,,,,,,,,,,,,,,1,,,56,95
9120,note_on,240,0,1,,,,,,,,,,,,,,,0,,,67,0
9120,note_on,0,0,1,,,,,,,,,,,,,,,0,,,65,105
9120,note_on,60,0,2,,,,,,,,,,,,,,,1,,,55,0
9180,note_on,0,0,1,,,,,,,,,,,,,,,0,,,75,105
9180,note_on,60,0,1,,,,,,,,,,,,,,,0,,,75,0
9240,note_on,60,0,1,,,,,,,,,,,,,,,0,,,75,0
9240,note_on,0,0,1,,,,,,,,,,,,,,,0,,,74,105
9255,note_on,0,0,1,,,,,,,,,,,,,,,0,,,75,105
9255,note_on,15,0,1,,,,,,,,,,,,,,,0,,,74,0
9270,note_on,15,0,1,,,,,,,,,,,,,,,0,,,75,0
9270,note_on,0,0,1,,,,,,,,,,,,,,,0,,,74,105
9300,note_on,30,0,1,,,,,,,,,,,,,,,0,,,74,0
9300,note_on,0,0,1,,,,,,,,,,,,,,,0,,,72,105
9360,note_on,0,0,1,,,,,,,,,,,,,,,0,,,74,105
9360,note_on,60,0,1,,,,,,,,,,,,,,,0,,,72,0
9420,note_on,300,0,2,,,,,,,,,,,,,,,1,,,56,0
9420,note_on,0,0,2,,,,,,,,,,,,,,,1,,,56,95
9480,note_on,60,0,2,,,,,,,,,,,,,,,1,,,56,0
9480,note_on,0,0,2,,,,,,,,,,,,,,,1,,,55,95
9480,note_on,0,0,1,,,,,,,,,,,,,,,0,,,67,105
9480,note_on,120,0,1,,,,,,,,,,,,,,,0,,,65,0
9540,note_on,60,0,1,,,,,,,,,,,,,,,0,,,67,0
9540,note_on,0,0,1,,,,,,,,,,,,,,,0,,,68,105
9540,note_on,0,0,2,,,,,,,,,,,,,,,1,,,53,95
9540,note_on,60,0,2,,,,,,,,,,,,,,,1,,,55,0
9600,note_on,60,0,1,,,,,,,,,,,,,,,0,,,68,0
9600,note_on,0,0,2,,,,,,,,,,,,,,,1,,,55,95
9600,note_on,60,0,2,,,,,,,,,,,,,,,1,,,53,0
9600,note_on,0,0,1,,,,,,,,,,,,,,,0,,,63,105
9660,note_on,60,0,1,,,,,,,,,,,,,,,0,,,74,0
9660,note_on,0,0,1,,,,,,,,,,,,,,,0,,,74,105
9720,note_on,0,0,1,,,,,,,,,,,,,,,0,,,72,105
9720,note_on,60,0,1,,,,,,,,,,,,,,,0,,,74,0
9750,note_on,0,0,1,,,,,,,,,,,,,,,0,,,74,105
9750,note_on,30,0,1,,,,,,,,,,,,,,,0,,,72,0
9780,note_on,0,0,1,,,,,,,,,,,,,,,0,,,71,105
9780,note_on,30,0,1,,,,,,,,,,,,,,,0,,,74,0
9840,note_on,0,0,1,,,,,,,,,,,,,,,0,,,72,105
9840,note_on,60,0,1,,,,,,,,,,,,,,,0,,,71,0
9900,note_on,60,0,1,,,,,,,,,,,,,,,0,,,63,0
9900,note_on,0,0,1,,,,,,,,,,,,,,,0,,,63,105
9900,note_on,300,0,2,,,,,,,,,,,,,,,1,,,55,0
9900,note_on,0,0,2,,,,,,,,,,,,,,,1,,,55,95
9960,note_on,60,0,1,,,,,,,,,,,,,,,0,,,63,0
9960,note_on,60,0,2,,,,,,,,,,,,,,,1,,,55,0
9960,note_on,0,0,2,,,,,,,,,,,,,,,1,,,53,95
9960,note_on,0,0,1,,,,,,,,,,,,,,,0,,,65,105
10020,note_on,60,0,2,,,,,,,,,,,,,,,1,,,53,0
10020,note_on,0,0,2,,,,,,,,,,,,,,,1,,,51,95
10020,note_on,60,0,1,,,,,,,,,,,,,,,0,,,65,0
10020,note_on,0,0,1,,,,,,,,,,,,,,,0,,,67,105
10080,note_on,60,0,2,,,,,,,,,,,,,,,1,,,51,0
10080,note_on,60,0,1,,,,,,,,,,,,,,,0,,,67,0
10080,note_on,0,0,1,,,,,,,,,,,,,,,0,,,62,105
10080,note_on,0,0,2,,,,,,,,,,,,,,,1,,,53,95
10140,note_on,60,0,1,,,,,,,,,,,,,,,0,,,72,0
10140,note_on,0,0,1,,,,,,,,,,,,,,,0,,,72,105
10200,note_on,60,0,1,,,,,,,,,,,,,,,0,,,72,0
10200,note_on,0,0,1,,,,,,,,,,,,,,,0,,,74,105
10260,note_on,60,0,1,,,,,,,,,,,,,,,0,,,74,0
10260,note_on,0,0,1,,,,,,,,,,,,,,,0,,,72,105
10320,note_on,60,0,1,,,,,,,,,,,,,,,0,,,72,0
10320,note_on,0,0,1,,,,,,,,,,,,,,,0,,,71,105
10380,note_on,60,0,1,,,,,,,,,,,,,,,0,,,71,0
10380,note_on,0,0,1,,,,,,,,,,,,,,,0,,,72,105
10440,note_on,60,0,1,,,,,,,,,,,,,,,0,,,72,0
10440,note_on,0,0,1,,,,,,,,,,,,,,,0,,,69,105
10500,note_on,60,0,1,,,,,,,,,,,,,,,0,,,69,0
10500,note_on,0,0,1,,,,,,,,,,,,,,,0,,,71,105
10560,note_on,60,0,1,,,,,,,,,,,,,,,0,,,71,0
10560,note_on,0,0,1,,,,,,,,,,,,,,,0,,,62,0
10560,note_on,0,0,1,,,,,,,,,,,,,,,0,,,63,105
10560,note_on,0,0,1,,,,,,,,,,,,,,,0,,,72,105
10560,note_on,0,0,2,,,,,,,,,,,,,,,1,,,55,95
10560,note_on,480,0,2,,,,,,,,,,,,,,,1,,,53,0
10620,note_on,60,0,2,,,,,,,,,,,,,,,1,,,59,95
10680,note_on,0,0,2,,,,,,,,,,,,,,,1,,,60,95
10680,note_on,60,0,2,,,,,,,,,,,,,,,1,,,59,0
10740,note_on,60,0,2,,,,,,,,,,,,,,,1,,,60,0
10740,note_on,0,0,2,,,,,,,,,,,,,,,1,,,58,95
10800,note_on,60,0,2,,,,,,,,,,,,,,,1,,,58,0
10800,note_on,0,0,2,,,,,,,,,,,,,,,1,,,55,0
10800,note_on,0,0,2,,,,,,,,,,,,,,,1,,,57,95
10860,note_on,0,0,2,,,,,,,,,,,,,,,1,,,58,95
10860,note_on,60,0,2,,,,,,,,,,,,,,,1,,,57,0
10920,note_on,60,0,2,,,,,,,,,,,,,,,1,,,58,0
10920,note_on,0,0,2,,,,,,,,,,,,,,,1,,,55,95
10980,note_on,60,0,2,,,,,,,,,,,,,,,1,,,55,0
10980,note_on,0,0,2,,,,,,,,,,,,,,,1,,,57,95
11040,note_on,60,0,2,,,,,,,,,,,,,,,1,,,57,0
11040,note_on,3360,0,3,,,,,,,,,,,,,,,2,,,36,0
11040,note_on,0,0,3,,,,,,,,,,,,,,,2,,,38,95
11040,note_on,480,0,1,,,,,,,,,,,,,,,0,,,63,0
11040,note_on,0,0,1,,,,,,,,,,,,,,,0,,,62,105
11040,note_on,0,0,2,,,,,,,,,,,,,,,1,,,54,95
11100,note_on,60,0,1,,,,,,,,,,,,,,,0,,,72,0
11100,note_on,0,0,1,,,,,,,,,,,,,,,0,,,72,105
11160,note_on,60,0,1,,,,,,,,,,,,,,,0,,,72,0
11160,note_on,0,0,1,,,,,,,,,,,,,,,0,,,74,105
11220,note_on,60,0,1,,,,,,,,,,,,,,,0,,,74,0
11220,note_on,0,0,1,,,,,,,,,,,,,,,0,,,72,105
11280,note_on,60,0,1,,,,,,,,,,,,,,,0,,,72,0
11280,note_on,0,0,1,,,,,,,,,,,,,,,0,,,70,105
11340,note_on,60,0,1,,,,,,,,,,,,,,,0,,,70,0
11340,note_on,0,0,1,,,,,,,,,,,,,,,0,,,72,105
11400,note_on,60,0,1,,,,,,,,,,,,,,,0,,,72,0
11400,note_on,0,0,1,,,,,,,,,,,,,,,0,,,69,105
11460,note_on,60,0,1,,,,,,,,,,,,,,,0,,,69,0
11460,note_on,0,0,1,,,,,,,,,,,,,,,0,,,72,105
11520,note_on,60,0,1,,,,,,,,,,,,,,,0,,,72,0
11520,note_on,0,0,1,,,,,,,,,,,,,,,0,,,70,105
11580,note_on,0,0,2,,,,,,,,,,,,,,,1,,,57,95
11580,note_on,540,0,2,,,,,,,,,,,,,,,1,,,54,0
11640,note_on,0,0,2,,,,,,,,,,,,,,,1,,,58,95
11640,note_on,60,0,2,,,,,,,,,,,,,,,1,,,57,0
11700,note_on,0,0,2,,,,,,,,,,,,,,,1,,,57,95
11700,note_on,60,0,2,,,,,,,,,,,,,,,1,,,58,0
11760,note_on,60,0,2,,,,,,,,,,,,,,,1,,,57,0
11760,note_on,0,0,2,,,,,,,,,,,,,,,1,,,55,95
11820,note_on,0,0,2,,,,,,,,,,,,,,,1,,,57,95
11820,note_on,60,0,2,,,,,,,,,,,,,,,1,,,55,0
11880,note_on,0,0,2,,,,,,,,,,,,,,,1,,,54,95
11880,note_on,60,0,2,,,,,,,,,,,,,,,1,,,57,0
11940,note_on,0,0,2,,,,,,,,,,,,,,,1,,,57,95
11940,note_on,60,0,2,,,,,,,,,,,,,,,1,,,54,0
12000,note_on,0,0,2,,,,,,,,,,,,,,,1,,,55,95
12000,note_on,60,0,2,,,,,,,,,,,,,,,1,,,57,0
12060,note_on,540,0,1,,,,,,,,,,,,,,,0,,,62,0
12060,note_on,0,0,1,,,,,,,,,,,,,,,0,,,66,105
12120,note_on,0,0,1,,,,,,,,,,,,,,,0,,,67,105
12120,note_on,60,0,1,,,,,,,,,,,,,,,0,,,66,0
12180,note_on,0,0,1,,,,,,,,,,,,,,,0,,,65,105
12180,note_on,60,0,1,,,,,,,,,,,,,,,0,,,67,0
12240,note_on,60,0,1,,,,,,,,,,,,,,,0,,,65,0
12240,note_on,0,0,1,,,,,,,,,,,,,,,0,,,64,105
12300,note_on,60,0,1,,,,,,,,,,,,,,,0,,,64,0
12300,note_on,0,0,1,,,,,,,,,,,,,,,0,,,65,105
12360,note_on,0,0,1,,,,,,,,,,,,,,,0,,,62,105
12360,note_on,60,0,1,,,,,,,,,,,,,,,0,,,65,0
12420,note_on,0,0,1,,,,,,,,,,,,,,,0,,,64,105
12420,note_on,60,0,1,,,,,,,,,,,,,,,0,,,62,0
12480,note_on,0,0,1,,,,,,,,,,,,,,,0,,,70,105
12480,note_on,0,0,1,,,,,,,,,,,,,,,0,,,61,105
12480,note_on,0,0,1,,,,,,,,,,,,,,,0,,,70,0
12480,note_on,60,0,1,,,,,,,,,,,,,,,0,,,64,0
12480,note_on,0,0,3,,,,,,,,,,,,,,,2,,,26,95
12480,note_on,480,0,2,,,,,,,,,,,,,,,1,,,55,0
12480,note_on,1440,0,3,,,,,,,,,,,,,,,2,,,38,0
12480,note_on,0,0,2,,,,,,,,,,,,,,,1,,,52,95
12540,note_on,0,0,1,,,,,,,,,,,,,,,0,,,70,105
12540,note_on,60,0,1,,,,,,,,,,,,,,,0,,,70,0
12600,note_on,60,0,1,,,,,,,,,,,,,,,0,,,70,0
12600,note_on,0,0,1,,,,,,,,,,,,,,,0,,,69,105
12660,note_on,60,0,1,,,,,,,,,,,,,,,0,,,69,0
12660,note_on,0,0,1,,,,,,,,,,,,,,,0,,,67,105
12720,note_on,0,0,1,,,,,,,,,,,,,,,0,,,69,105
12720,note_on,60,0,1,,,,,,,,,,,,,,,0,,,67,0
12780,note_on,0,0,1,,,,,,,,,,,,,,,0,,,70,105
12780,note_on,60,0,1,,,,,,,,,,,,,,,0,,,69,0
12840,note_on,60,0,1,,,,,,,,,,,,,,,0,,,70,0
12840,note_on,0,0,1,,,,,,,,,,,,,,,0,,,64,105
12900,note_on,60,0,1,,,,,,,,,,,,,,,0,,,64,0
12900,note_on,0,0,1,,,,,,,,,,,,,,,0,,,67,105
12960,note_on,480,0,2,,,,,,,,,,,,,,,1,,,52,0
12960,set_tempo,5280,1,0,,,,,,,,,,,,1132075,,,,,,,
12960,note_on,60,0,1,,,,,,,,,,,,,,,0,,,67,0
12960,note_on,0,0,1,,,,,,,,,,,,,,,0,,,61,0
12960,note_on,0,0,1,,,,,,,,,,,,,,,0,,,62,105
12960,note_on,0,0,2,,,,,,,,,,,,,,,1,,,57,95
12960,note_on,480,0,3,,,,,,,,,,,,,,,2,,,26,0
12960,note_on,0,0,3,,,,,,,,,,,,,,,2,,,26,95
12960,note_on,0,0,1,,,,,,,,,,,,,,,0,,,66,105
13020,note_on,60,0,3,,,,,,,,,,,,,,,2,,,26,0
13020,note_on,0,0,3,,,,,,,,,,,,,,,2,,,38,95
13080,note_on,60,0,3,,,,,,,,,,,,,,,2,,,38,0
13080,note_on,0,0,3,,,,,,,,,,,,,,,2,,,39,95
13140,note_on,60,0,3,,,,,,,,,,,,,,,2,,,39,0
13140,note_on,0,0,3,,,,,,,,,,,,,,,2,,,38,95
13200,set_tempo,240,1,0,,,,,,,,,,,,1250000,,,,,,,
13200,note_on,60,0,3,,,,,,,,,,,,,,,2,,,38,0
13200,note_on,0,0,3,,,,,,,,,,,,,,,2,,,36,95
13260,note_on,60,0,3,,,,,,,,,,,,,,,2,,,36,0
13260,note_on,0,0,3,,,,,,,,,,,,,,,2,,,34,95
13320,note_on,60,0,3,,,,,,,,,,,,,,,2,,,34,0
13320,note_on,0,0,3,,,,,,,,,,,,,,,2,,,33,95
13380,note_on,60,0,3,,,,,,,,,,,,,,,2,,,33,0
13380,note_on,0,0,3,,,,,,,,,,,,,,,2,,,31,95
13440,note_on,480,0,1,,,,,,,,,,,,,,,0,,,66,0
13440,note_on,480,0,2,,,,,,,,,,,,,,,1,,,57,0
13440,set_tempo,240,1,0,,,,,,,,,,,,1000000,,,,,,,
13440,note_on,60,0,3,,,,,,,,,,,,,,,2,,,31,0
13440,note_on,0,0,3,,,,,,,,,,,,,,,2,,,30,95
13440,note_on,0,0,1,,,,,,,,,,,,,,,0,,,62,0
13500,note_on,60,0,1,,,,,,,,,,,,,,,0,,,74,105
13560,note_on,60,0,1,,,,,,,,,,,,,,,0,,,74,0
13560,note_on,0,0,1,,,,,,,,,,,,,,,0,,,75,105
13620,note_on,60,0,1,,,,,,,,,,,,,,,0,,,75,0
13620,note_on,0,0,1,,,,,,,,,,,,,,,0,,,74,105
13680,note_on,60,0,1,,,,,,,,,,,,,,,0,,,74,0
13680,note_on,0,0,1,,,,,,,,,,,,,,,0,,,72,105
13740,note_on,60,0,1,,,,,,,,,,,,,,,0,,,72,0
13740,note_on,0,0,1,,,,,,,,,,,,,,,0,,,75,105
13800,note_on,0,0,1,,,,,,,,,,,,,,,0,,,74,105
13800,note_on,60,0,1,,,,,,,,,,,,,,,0,,,75,0
13860,note_on,0,0,1,,,,,,,,,,,,,,,0,,,72,105
13860,note_on,60,0,1,,,,,,,,,,,,,,,0,,,74,0
13920,note_on,60,0,1,,,,,,,,,,,,,,,0,,,72,0
13920,note_on,0,0,1,,,,,,,,,,,,,,,0,,,81,105
13980,note_on,60,0,1,,,,,,,,,,,,,,,0,,,72,105
14040,note_on,60,0,1,,,,,,,,,,,,,,,0,,,72,0
14040,note_on,0,0,1,,,,,,,,,,,,,,,0,,,74,105
14100,note_on,60,0,1,,,,,,,,,,,,,,,0,,,74,0
14100,note_on,0,0,1,,,,,,,,,,,,,,,0,,,75,105
14160,note_on,0,0,1,,,,,,,,,,,,,,,0,,,74,105
14160,note_on,60,0,1,,,,,,,,,,,,,,,0,,,75,0
14220,note_on,60,0,1,,,,,,,,,,,,,,,0,,,74,0
14220,note_on,0,0,1,,,,,,,,,,,,,,,0,,,72,105
14280,note_on,60,0,1,,,,,,,,,,,,,,,0,,,72,0
14280,note_on,0,0,1,,,,,,,,,,,,,,,0,,,70,105
14340,note_on,0,0,1,,,,,,,,,,,,,,,0,,,69,105
14340,note_on,60,0,1,,,,,,,,,,,,,,,0,,,70,0
14400,note_on,0,0,3,,,,,,,,,,,,,,,2,,,31,95
14400,note_on,960,0,3,,,,,,,,,,,,,,,2,,,30,0
14400,note_on,0,0,1,,,,,,,,,,,,,,,0,,,74,105
14400,note_on,0,0,1,,,,,,,,,,,,,,,0,,,70,105
14400,note_on,0,0,1,,,,,,,,,,,,,,,0,,,81,0
14400,note_on,60,0,1,,,,,,,,,,,,,,,0,,,69,0
14460,note_on,1020,0,2,,,,,,,,,,,,,,,1,,,66,95
14520,note_on,60,0,2,,,,,,,,,,,,,,,1,,,66,0
14520,note_on,0,0,2,,,,,,,,,,,,,,,1,,,67,95
14580,note_on,60,0,2,,,,,,,,,,,,,,,1,,,67,0
14580,note_on,0,0,2,,,,,,,,,,,,,,,1,,,68,95
14640,note_on,0,0,2,,,,,,,,,,,,,,,1,,,67,95
14640,note_on,60,0,2,,,,,,,,,,,,,,,1,,,68,0
14700,note_on,0,0,2,,,,,,,,,,,,,,,1,,,65,95
14700,note_on,60,0,2,,,,,,,,,,,,,,,1,,,67,0
14760,note_on,0,0,2,,,,,,,,,,,,,,,1,,,63,95
14760,note_on,60,0,2,,,,,,,,,,,,,,,1,,,65,0
14820,note_on,0,0,2,,,,,,,,,,,,,,,1,,,62,95
14820,note_on,60,0,2,,,,,,,,,,,,,,,1,,,63,0
14880,note_on,60,0,2,,,,,,,,,,,,,,,1,,,62,0
14880,note_on,0,0,1,,,,,,,,,,,,,,,0,,,67,105
14880,note_on,480,0,1,,,,,,,,,,,,,,,0,,,70,0
14880,note_on,0,0,2,,,,,,,,,,,,,,,1,,,63,95
14940,note_on,0,0,1,,,,,,,,,,,,,,,0,,,74,105
14940,note_on,60,0,1,,,,,,,,,,,,,,,0,,,74,0
15000,note_on,0,0,1,,,,,,,,,,,,,,,0,,,75,105
15000,note_on,60,0,1,,,,,,,,,,,,,,,0,,,74,0
15060,note_on,60,0,1,,,,,,,,,,,,,,,0,,,75,0
15060,note_on,0,0,1,,,,,,,,,,,,,,,0,,,74,105
15120,note_on,0,0,1,,,,,,,,,,,,,,,0,,,72,105
15120,note_on,60,0,1,,,,,,,,,,,,,,,0,,,74,0
15180,note_on,60,0,1,,,,,,,,,,,,,,,0,,,72,0
15180,note_on,0,0,1,,,,,,,,,,,,,,,0,,,70,105
15240,note_on,60,0,1,,,,,,,,,,,,,,,0,,,70,0
15240,note_on,0,0,1,,,,,,,,,,,,,,,0,,,69,105
15300,note_on,0,0,1,,,,,,,,,,,,,,,0,,,67,105
15300,note_on,60,0,1,,,,,,,,,,,,,,,0,,,69,0
15360,note_on,0,0,1,,,,,,,,,,,,,,,0,,,74,105
15360,note_on,0,0,1,,,,,,,,,,,,,,,0,,,72,105
15360,note_on,0,0,1,,,,,,,,,,,,,,,0,,,67,0
15360,note_on,480,0,2,,,,,,,,,,,,,,,1,,,63,0
15360,note_on,0,0,2,,,,,,,,,,,,,,,1,,,66,95
15360,note_on,60,0,1,,,,,,,,,,,,,,,0,,,67,0
15420,note_on,60,0,2,,,,,,,,,,,,,,,1,,,57,95
15480,note_on,60,0,2,,,,,,,,,,,,,,,1,,,57,0
15480,note_on,0,0,2,,,,,,,,,,,,,,,1,,,58,95
15540,note_on,0,0,2,,,,,,,,,,,,,,,1,,,60,95
15540,note_on,60,0,2,,,,,,,,,,,,,,,1,,,58,0
15600,note_on,0,0,2,,,,,,,,,,,,,,,1,,,58,95
15600,note_on,60,0,2,,,,,,,,,,,,,,,1,,,60,0
15660,note_on,0,0,2,,,,,,,,,,,,,,,1,,,57,95
15660,note_on,60,0,2,,,,,,,,,,,,,,,1,,,58,0
15720,note_on,60,0,2,,,,,,,,,,,,,,,1,,,57,0
15720,note_on,0,0,2,,,,,,,,,,,,,,,1,,,55,95
15780,note_on,60,0,2,,,,,,,,,,,,,,,1,,,55,0
15780,note_on,0,0,2,,,,,,,,,,,,,,,1,,,54,95
15840,note_on,0,0,2,,,,,,,,,,,,,,,1,,,55,95
15840,note_on,60,0,2,,,,,,,,,,,,,,,1,,,54,0
15840,note_on,0,0,2,,,,,,,,,,,,,,,1,,,66,0
15840,note_on,0,0,2,,,,,,,,,,,,,,,1,,,62,95
15840,note_on,0,0,1,,,,,,,,,,,,,,,0,,,79,105
15840,note_on,480,0,1,,,,,,,,,,,,,,,0,,,74,0
15900,note_on,0,0,1,,,,,,,,,,,,,,,0,,,72,105
15900,note_on,60,0,1,,,,,,,,,,,,,,,0,,,72,0
15960,note_on,0,0,1,,,,,,,,,,,,,,,0,,,70,105
15960,note_on,60,0,1,,,,,,,,,,,,,,,0,,,72,0
16020,note_on,0,0,1,,,,,,,,,,,,,,,0,,,69,105
16020,note_on,60,0,1,,,,,,,,,,,,,,,0,,,70,0
16080,note_on,0,0,1,,,,,,,,,,,,,,,0,,,70,105
16080,note_on,60,0,1,,,,,,,,,,,,,,,0,,,69,0
16140,note_on,0,0,1,,,,,,,,,,,,,,,0,,,79,105
16140,note_on,60,0,1,,,,,,,,,,,,,,,0,,,79,0
16200,note_on,0,0,1,,,,,,,,,,,,,,,0,,,77,105
16200,note_on,60,0,1,,,,,,,,,,,,,,,0,,,79,0
16260,note_on,0,0,1,,,,,,,,,,,,,,,0,,,75,105
16260,note_on,60,0,1,,,,,,,,,,,,,,,0,,,77,0
16320,note_on,0,0,2,,,,,,,,,,,,,,,1,,,62,95
16320,note_on,0,0,1,,,,,,,,,,,,,,,0,,,74,105
16320,note_on,480,0,2,,,,,,,,,,,,,,,1,,,62,0
16320,note_on,60,0,1,,,,,,,,,,,,,,,0,,,75,0
16380,note_on,60,0,1,,,,,,,,,,,,,,,0,,,74,0
16380,note_on,0,0,1,,,,,,,,,,,,,,,0,,,75,105
16440,note_on,0,0,1,,,,,,,,,,,,,,,0,,,70,0
16440,note_on,60,0,1,,,,,,,,,,,,,,,0,,,75,0
16440,note_on,0,0,1,,,,,,,,,,,,,,,0,,,69,105
16440,note_on,0,0,1,,,,,,,,,,,,,,,0,,,72,105
16440,note_on,0,0,2,,,,,,,,,,,,,,,1,,,63,95
16440,note_on,120,0,2,,,,,,,,,,,,,,,1,,,62,0
16500,note_on,60,0,1,,,,,,,,,,,,,,,0,,,72,0
16500,note_on,0,0,1,,,,,,,,,,,,,,,0,,,74,105
16560,note_on,0,0,2,,,,,,,,,,,,,,,1,,,62,95
16560,note_on,120,0,2,,,,,,,,,,,,,,,1,,,63,0
16560,note_on,0,0,1,,,,,,,,,,,,,,,0,,,70,105
16560,note_on,0,0,1,,,,,,,,,,,,,,,0,,,69,0
16560,note_on,0,0,1,,,,,,,,,,,,,,,0,,,67,105
16560,note_on,60,0,1,,,,,,,,,,,,,,,0,,,74,0
16620,note_on,60,0,1,,,,,,,,,,,,,,,0,,,70,0
16620,note_on,0,0,1,,,,,,,,,,,,,,,0,,,72,105
16680,note_on,60,0,1,,,,,,,,,,,,,,,0,,,72,0
16680,note_on,0,0,1,,,,,,,,,,,,,,,0,,,67,0
16680,note_on,0,0,1,,,,,,,,,,,,,,,0,,,66,105
16680,note_on,0,0,1,,,,,,,,,,,,,,,0,,,69,105
16680,note_on,0,0,2,,,,,,,,,,,,,,,1,,,60,95
16680,note_on,120,0,2,,,,,,,,,,,,,,,1,,,62,0
16740,note_on,0,0,1,,,,,,,,,,,,,,,0,,,72,105
16740,note_on,60,0,1,,,,,,,,,,,,,,,0,,,69,0
16800,note_on,120,0,2,,,,,,,,,,,,,,,1,,,60,0
16800,note_on,0,0,2,,,,,,,,,,,,,,,1,,,55,0
16800,note_on,0,0,1,,,,,,,,,,,,,,,0,,,67,105
16800,note_on,0,0,1,,,,,,,,,,,,,,,0,,,66,0
16800,note_on,60,0,1,,,,,,,,,,,,,,,0,,,72,0
16800,note_on,0,0,2,,,,,,,,,,,,,,,1,,,62,95
16800,note_on,0,0,1,,,,,,,,,,,,,,,0,,,70,105
16860,note_on,60,0,2,,,,,,,,,,,,,,,1,,,58,95
16920,note_on,60,0,2,,,,,,,,,,,,,,,1,,,58,0
16920,note_on,0,0,2,,,,,,,,,,,,,,,1,,,60,95
16980,note_on,60,0,2,,,,,,,,,,,,,,,1,,,60,0
16980,note_on,0,0,2,,,,,,,,,,,,,,,1,,,62,95
17040,note_on,0,0,2,,,,,,,,,,,,,,,1,,,55,95
17040,note_on,60,0,2,,,,,,,,,,,,,,,1,,,62,0
17100,note_on,0,0,2,,,,,,,,,,,,,,,1,,,57,95
17100,note_on,60,0,2,,,,,,,,,,,,,,,1,,,55,0
17160,note_on,0,0,2,,,,,,,,,,,,,,,1,,,58,95
17160,note_on,60,0,2,,,,,,,,,,,,,,,1,,,57,0
17220,note_on,60,0,2,,,,,,,,,,,,,,,1,,,58,0
17220,note_on,0,0,2,,,,,,,,,,,,,,,1,,,50,95
17280,note_on,0,0,2,,,,,,,,,,,,,,,1,,,62,0
17280,note_on,60,0,2,,,,,,,,,,,,,,,1,,,50,0
17280,note_on,0,0,2,,,,,,,,,,,,,,,1,,,52,95
17280,note_on,0,0,2,,,,,,,,,,,,,,,1,,,60,95
17280,note_on,0,0,3,,,,,,,,,,,,,,,2,,,28,95
17280,note_on,2880,0,3,,,,,,,,,,,,,,,2,,,31,0
17340,note_on,0,0,1,,,,,,,,,,,,,,,0,,,70,105
17340,note_on,540,0,1,,,,,,,,,,,,,,,0,,,70,0
17400,note_on,60,0,1,,,,,,,,,,,,,,,0,,,70,0
17400,note_on,0,0,1,,,,,,,,,,,,,,,0,,,72,105
17460,note_on,0,0,1,,,,,,,,,,,,,,,0,,,73,105
17460,note_on,60,0,1,,,,,,,,,,,,,,,0,,,72,0
17520,note_on,60,0,1,,,,,,,,,,,,,,,0,,,73,0
17520,note_on,0,0,1,,,,,,,,,,,,,,,0,,,67,105
17580,note_on,60,0,1,,,,,,,,,,,,,,,0,,,67,0
17580,note_on,0,0,1,,,,,,,,,,,,,,,0,,,68,105
17640,note_on,60,0,1,,,,,,,,,,,,,,,0,,,68,0
17640,note_on,0,0,1,,,,,,,,,,,,,,,0,,,70,105
17700,note_on,0,0,1,,,,,,,,,,,,,,,0,,,72,105
17700,note_on,60,0,1,,,,,,,,,,,,,,,0,,,70,0
17760,note_on,480,0,3,,,,,,,,,,,,,,,2,,,28,0
17760,note_on,0,0,3,,,,,,,,,,,,,,,2,,,29,95
17760,note_on,0,0,2,,,,,,,,,,,,,,,1,,,48,95
17760,note_on,480,0,2,,,,,,,,,,,,,,,1,,,52,0
17760,note_on,0,0,1,,,,,,,,,,,,,,,0,,,68,105
17760,note_on,60,0,1,,,,,,,,,,,,,,,0,,,72,0
17772,set_tempo,4332,1,0,,,,,,,,,,,,1111111,,,,,,,
17820,note_on,60,0,1,,,,,,,,,,,,,,,0,,,67,0
17820,note_on,0,0,1,,,,,,,,,,,,,,,0,,,67,105
17880,note_on,60,0,1,,,,,,,,,,,,,,,0,,,67,0
17880,note_on,0,0,1,,,,,,,,,,,,,,,0,,,65,105
17940,note_on,60,0,1,,,,,,,,,,,,,,,0,,,65,0
17940,note_on,0,0,1,,,,,,,,,,,,,,,0,,,64,105
18000,note_on,0,0,1,,,,,,,,,,,,,,,0,,,65,105
18000,note_on,60,0,1,,,,,,,,,,,,,,,0,,,64,0
18000,note_on,240,0,2,,,,,,,,,,,,,,,1,,,48,0
18020,set_tempo,248,1,0,,,,,,,,,,,,1250000,,,,,,,
18060,note_on,60,0,2,,,,,,,,,,,,,,,1,,,51,95
18120,note_on,0,0,2,,,,,,,,,,,,,,,1,,,50,95
18120,note_on,60,0,2,,,,,,,,,,,,,,,1,,,51,0
18180,note_on,60,0,2,,,,,,,,,,,,,,,1,,,50,0
18180,note_on,0,0,2,,,,,,,,,,,,,,,1,,,48,95
18240,note_on,0,0,1,,,,,,,,,,,,,,,0,,,68,0
18240,note_on,0,0,2,,,,,,,,,,,,,,,1,,,59,95
18240,note_on,0,0,1,,,,,,,,,,,,,,,0,,,62,105
18240,note_on,0,0,1,,,,,,,,,,,,,,,0,,,67,105
18240,note_on,60,0,2,,,,,,,,,,,,,,,1,,,48,0
18240,note_on,0,0,2,,,,,,,,,,,,,,,1,,,60,0
18240,note_on,0,0,2,,,,,,,,,,,,,,,1,,,47,95
18240,note_on,0,0,2,,,,,,,,,,,,,,,1,,,50,95
18240,note_on,0,0,2,,,,,,,,,,,,,,,1,,,55,95
18240,note_on,240,0,1,,,,,,,,,,,,,,,0,,,65,0
18330,note_on,0,0,2,,,,,,,,,,,,,,,1,,,50,0
18330,note_on,0,0,2,,,,,,,,,,,,,,,1,,,47,0
18330,note_on,90,0,1,,,,,,,,,,,,,,,0,,,67,0
18330,note_on,0,0,1,,,,,,,,,,,,,,,0,,,62,0
18330,note_on,90,0,2,,,,,,,,,,,,,,,1,,,59,0
18330,note_on,0,0,2,,,,,,,,,,,,,,,1,,,55,0
18360,note_on,30,0,1,,,,,,,,,,,,,,,0,,,62,105
18360,note_on,0,0,2,,,,,,,,,,,,,,,1,,,50,95
18360,note_on,0,0,2,,,,,,,,,,,,,,,1,,,55,95
18360,note_on,0,0,2,,,,,,,,,,,,,,,1,,,59,95
18360,note_on,0,0,1,,,,,,,,,,,,,,,0,,,67,105
18360,note_on,30,0,2,,,,,,,,,,,,,,,1,,,47,95
18450,note_on,90,0,2,,,,,,,,,,,,,,,1,,,59,0
18450,note_on,0,0,2,,,,,,,,,,,,,,,1,,,47,0
18450,note_on,0,0,2,,,,,,,,,,,,,,,1,,,50,0
18450,note_on,0,0,2,,,,,,,,,,,,,,,1,,,55,0
18450,note_on,90,0,1,,,,,,,,,,,,,,,0,,,67,0
18450,note_on,0,0,1,,,,,,,,,,,,,,,0,,,62,0
18480,note_on,30,0,1,,,,,,,,,,,,,,,0,,,62,105
18480,note_on,0,0,1,,,,,,,,,,,,,,,0,,,67,105
18480,note_on,0,0,2,,,,,,,,,,,,,,,1,,,59,95
18480,note_on,0,0,2,,,,,,,,,,,,,,,1,,,55,95
18480,note_on,0,0,2,,,,,,,,,,,,,,,1,,,50,95
18480,note_on,30,0,2,,,,,,,,,,,,,,,1,,,47,95
18570,note_on,0,0,1,,,,,,,,,,,,,,,0,,,62,0
18570,note_on,90,0,1,,,,,,,,,,,,,,,0,,,67,0
18570,note_on,0,0,2,,,,,,,,,,,,,,,1,,,50,0
18570,note_on,90,0,2,,,,,,,,,,,,,,,1,,,59,0
18570,note_on,0,0,2,,,,,,,,,,,,,,,1,,,55,0
18570,note_on,0,0,2,,,,,,,,,,,,,,,1,,,47,0
18600,note_on,30,0,1,,,,,,,,,,,,,,,0,,,62,105
18600,note_on,0,0,1,,,,,,,,,,,,,,,0,,,67,105
18600,set_tempo,580,1,0,,,,,,,,,,,,1132075,,,,,,,
18600,note_on,0,0,2,,,,,,,,,,,,,,,1,,,50,95
18600,note_on,0,0,2,,,,,,,,,,,,,,,1,,,55,95
18600,note_on,0,0,2,,,,,,,,,,,,,,,1,,,59,95
18600,note_on,30,0,2,,,,,,,,,,,,,,,1,,,47,95
18690,note_on,90,0,1,,,,,,,,,,,,,,,0,,,62,0
18690,note_on,90,0,2,,,,,,,,,,,,,,,1,,,59,0
18690,note_on,0,0,2,,,,,,,,,,,,,,,1,,,47,0
18690,note_on,0,0,2,,,,,,,,,,,,,,,1,,,50,0
18690,note_on,0,0,2,,,,,,,,,,,,,,,1,,,55,0
18720,note_on,0,0,2,,,,,,,,,,,,,,,1,,,51,95
18720,note_on,30,0,2,,,,,,,,,,,,,,,1,,,60,95
18720,note_on,0,0,2,,,,,,,,,,,,,,,1,,,48,95
18720,note_on,0,0,2,,,,,,,,,,,,,,,1,,,55,95
18720,note_on,960,0,3,,,,,,,,,,,,,,,2,,,29,0
18720,note_on,0,0,3,,,,,,,,,,,,,,,2,,,27,95
18720,note_on,30,0,1,,,,,,,,,,,,,,,0,,,63,105
18780,note_on,60,0,1,,,,,,,,,,,,,,,0,,,67,0
18780,note_on,0,0,1,,,,,,,,,,,,,,,0,,,67,105
18840,note_on,0,0,2,,,,,,,,,,,,,,,1,,,48,0
18840,note_on,0,0,2,,,,,,,,,,,,,,,1,,,51,0
18840,note_on,120,0,2,,,,,,,,,,,,,,,1,,,55,0
18840,note_on,60,0,1,,,,,,,,,,,,,,,0,,,67,0
18840,note_on,0,0,1,,,,,,,,,,,,,,,0,,,72,105
18852,set_tempo,252,1,0,,,,,,,,,,,,1000000,,,,,,,
18900,note_on,0,0,2,,,,,,,,,,,,,,,1,,,60,95
18900,note_on,60,0,2,,,,,,,,,,,,,,,1,,,60,0
18900,note_on,0,0,1,,,,,,,,,,,,,,,0,,,63,105
18900,note_on,60,0,1,,,,,,,,,,,,,,,0,,,63,0
18960,note_on,60,0,1,,,,,,,,,,,,,,,0,,,63,0
18960,note_on,0,0,1,,,,,,,,,,,,,,,0,,,67,105
18960,note_on,0,0,2,,,,,,,,,,,,,,,1,,,63,95
18960,note_on,60,0,2,,,,,,,,,,,,,,,1,,,60,0
19020,note_on,60,0,1,,,,,,,,,,,,,,,0,,,72,0
19020,note_on,0,0,1,,,,,,,,,,,,,,,0,,,72,105
19080,note_on,60,0,1,,,,,,,,,,,,,,,0,,,72,0
19080,note_on,0,0,1,,,,,,,,,,,,,,,0,,,75,105
19140,note_on,0,0,2,,,,,,,,,,,,,,,1,,,63,95
19140,note_on,60,0,1,,,,,,,,,,,,,,,0,,,67,0
19140,note_on,0,0,1,,,,,,,,,,,,,,,0,,,67,105
19140,note_on,180,0,2,,,,,,,,,,,,,,,1,,,63,0
19200,note_on,0,0,1,,,,,,,,,,,,,,,0,,,72,105
19200,note_on,60,0,1,,,,,,,,,,,,,,,0,,,67,0
19200,note_on,60,0,2,,,,,,,,,,,,,,,1,,,63,0
19200,note_on,0,0,2,,,,,,,,,,,,,,,1,,,67,95
19260,note_on,0,0,1,,,,,,,,,,,,,,,0,,,75,105
19260,note_on,60,0,1,,,,,,,,,,,,,,,0,,,75,0
19320,note_on,60,0,1,,,,,,,,,,,,,,,0,,,75,0
19320,note_on,0,0,1,,,,,,,,,,,,,,,0,,,79,105
19380,note_on,0,0,1,,,,,,,,,,,,,,,0,,,74,105
19380,note_on,60,0,1,,,,,,,,,,,,,,,0,,,79,0
19440,note_on,0,0,1,,,,,,,,,,,,,,,0,,,75,105
19440,note_on,60,0,1,,,,,,,,,,,,,,,0,,,74,0
19500,note_on,0,0,1,,,,,,,,,,,,,,,0,,,71,105
19500,note_on,60,0,1,,,,,,,,,,,,,,,0,,,72,0
19560,note_on,0,0,1,,,,,,,,,,,,,,,0,,,72,105
19560,note_on,60,0,1,,,,,,,,,,,,,,,0,,,71,0
19620,note_on,420,0,2,,,,,,,,,,,,,,,1,,,67,0
19620,note_on,0,0,2,,,,,,,,,,,,,,,1,,,67,95
19680,note_on,0,0,2,,,,,,,,,,,,,,,1,,,63,105
19680,note_on,60,0,2,,,,,,,,,,,,,,,1,,,67,0
19720,note_on,0,0,2,,,,,,,,,,,,,,,1,,,65,105
19720,note_on,40,0,2,,,,,,,,,,,,,,,1,,,63,0
19760,note_on,0,0,2,,,,,,,,,,,,,,,1,,,67,105
19760,note_on,40,0,2,,,,,,,,,,,,,,,1,,,65,0
19800,note_on,40,0,2,,,,,,,,,,,,,,,1,,,67,0
19800,note_on,0,0,2,,,,,,,,,,,,,,,1,,,60,105
19840,note_on,40,0,2,,,,,,,,,,,,,,,1,,,60,0
19840,note_on,0,0,2,,,,,,,,,,,,,,,1,,,62,105
19880,note_on,40,0,2,,,,,,,,,,,,,,,1,,,62,0
19880,note_on,0,0,2,,,,,,,,,,,,,,,1,,,63,105
19920,note_on,40,0,2,,,,,,,,,,,,,,,1,,,63,0
19920,note_on,0,0,2,,,,,,,,,,,,,,,1,,,55,105
19980,note_on,0,0,2,,,,,,,,,,,,,,,1,,,60,105
19980,note_on,60,0,2,,,,,,,,,,,,,,,1,,,55,0
20040,note_on,0,0,2,,,,,,,,,,,,,,,1,,,51,105
20040,note_on,60,0,2,,,,,,,,,,,,,,,1,,,60,0
20080,note_on,0,0,2,,,,,,,,,,,,,,,1,,,53,105
20080,note_on,40,0,2,,,,,,,,,,,,,,,1,,,51,0
20120,note_on,0,0,2,,,,,,,,,,,,,,,1,,,55,105
20120,note_on,40,0,2,,,,,,,,,,,,,,,1,,,53,0
20160,note_on,0,0,2,,,,,,,,,,,,,,,1,,,53,95
20160,note_on,40,0,2,,,,,,,,,,,,,,,1,,,55,0
20160,note_on,1440,0,3,,,,,,,,,,,,,,,2,,,27,0
20160,note_on,0,0,3,,,,,,,,,,,,,,,2,,,32,95
20220,note_on,660,0,1,,,,,,,,,,,,,,,0,,,75,0
20220,note_on,0,0,1,,,,,,,,,,,,,,,0,,,75,105
20280,note_on,60,0,1,,,,,,,,,,,,,,,0,,,72,0
20280,note_on,0,0,1,,,,,,,,,,,,,,,0,,,72,105
20340,note_on,0,0,1,,,,,,,,,,,,,,,0,,,75,105
20340,note_on,60,0,1,,,,,,,,,,,,,,,0,,,75,0
20400,note_on,0,0,1,,,,,,,,,,,,,,,0,,,65,105
20400,note_on,60,0,1,,,,,,,,,,,,,,,0,,,72,0
20460,note_on,0,0,1,,,,,,,,,,,,,,,0,,,75,105
20460,note_on,60,0,1,,,,,,,,,,,,,,,0,,,75,0
20520,note_on,0,0,1,,,,,,,,,,,,,,,0,,,74,105
20520,note_on,60,0,1,,,,,,,,,,,,,,,0,,,75,0
20580,note_on,60,0,1,,,,,,,,,,,,,,,0,,,74,0
20580,note_on,0,0,1,,,,,,,,,,,,,,,0,,,72,105
20640,note_on,0,0,2,,,,,,,,,,,,,,,1,,,55,95
20640,note_on,0,0,1,,,,,,,,,,,,,,,0,,,71,105
20640,note_on,60,0,1,,,,,,,,,,,,,,,0,,,72,0
20640,note_on,480,0,3,,,,,,,,,,,,,,,2,,,32,0
20640,note_on,480,0,2,,,,,,,,,,,,,,,1,,,53,0
20640,note_on,0,0,3,,,,,,,,,,,,,,,2,,,31,95
20700,note_on,0,0,1,,,,,,,,,,,,,,,0,,,74,105
20700,note_on,60,0,1,,,,,,,,,,,,,,,0,,,71,0
20760,note_on,0,0,1,,,,,,,,,,,,,,,0,,,67,105
20760,note_on,0,0,1,,,,,,,,,,,,,,,0,,,65,105
20760,note_on,0,0,1,,,,,,,,,,,,,,,0,,,65,0
20760,note_on,60,0,1,,,,,,,,,,,,,,,0,,,74,0
20820,note_on,60,0,1,,,,,,,,,,,,,,,0,,,67,0
20820,note_on,0,0,1,,,,,,,,,,,,,,,0,,,71,105
20880,note_on,240,0,2,,,,,,,,,,,,,,,1,,,63,95
20880,note_on,60,0,1,,,,,,,,,,,,,,,0,,,71,0
20880,note_on,0,0,1,,,,,,,,,,,,,,,0,,,72,105
20880,note_on,0,0,1,,,,,,,,,,,,,,,0,,,65,0
20940,note_on,60,0,1,,,,,,,,,,,,,,,0,,,67,105
21000,note_on,0,0,1,,,,,,,,,,,,,,,0,,,72,105
21000,note_on,60,0,1,,,,,,,,,,,,,,,0,,,72,0
21060,note_on,180,0,2,,,,,,,,,,,,,,,1,,,63,0
21060,note_on,0,0,2,,,,,,,,,,,,,,,1,,,63,95
21120,note_on,60,0,2,,,,,,,,,,,,,,,1,,,63,0
21120,note_on,0,0,2,,,,,,,,,,,,,,,1,,,62,95
21180,note_on,0,0,1,,,,,,,,,,,,,,,0,,,72,105
21180,note_on,180,0,1,,,,,,,,,,,,,,,0,,,72,0
21240,note_on,60,0,1,,,,,,,,,,,,,,,0,,,72,0
21240,note_on,0,0,1,,,,,,,,,,,,,,,0,,,71,105
21300,note_on,60,0,1,,,,,,,,,,,,,,,0,,,71,0
21300,note_on,0,0,1,,,,,,,,,,,,,,,0,,,74,105
21300,note_on,180,0,2,,,,,,,,,,,,,,,1,,,62,0
21300,note_on,0,0,2,,,,,,,,,,,,,,,1,,,65,95
21360,note_on,0,0,2,,,,,,,,,,,,,,,1,,,63,95
21360,note_on,60,0,2,,,,,,,,,,,,,,,1,,,65,0
21360,note_on,60,0,1,,,,,,,,,,,,,,,0,,,74,0
21360,note_on,0,0,1,,,,,,,,,,,,,,,0,,,79,105
21420,note_on,60,0,2,,,,,,,,,,,,,,,1,,,63,0
21420,note_on,60,0,1,,,,,,,,,,,,,,,0,,,79,0
21420,note_on,0,0,1,,,,,,,,,,,,,,,0,,,74,105
21420,note_on,0,0,2,,,,,,,,,,,,,,,1,,,59,95
21480,note_on,0,0,1,,,,,,,,,,,,,,,0,,,75,105
21480,note_on,0,0,2,,,,,,,,,,,,,,,1,,,60,95
21480,note_on,60,0,1,,,,,,,,,,,,,,,0,,,74,0
21480,note_on,60,0,2,,,,,,,,,,,,,,,1,,,59,0
21540,note_on,0,0,2,,,,,,,,,,,,,,,1,,,62,95
21540,note_on,60,0,2,,,,,,,,,,,,,,,1,,,60,0
21540,note_on,60,0,1,,,,,,,,,,,,,,,0,,,75,0
21540,note_on,0,0,1,,,,,,,,,,,,,,,0,,,71,105
21588,set_tempo,2736,1,0,,,,,,,,,,,,1111111,,,,,,,
21600,note_on,60,0,2,,,,,,,,,,,,,,,1,,,62,0
21600,note_on,60,0,1,,,,,,,,,,,,,,,0,,,71,0
21600,note_on,0,0,2,,,,,,,,,,,,,,,1,,,63,95
21600,note_on,0,0,1,,,,,,,,,,,,,,,0,,,72,105
21660,note_on,60,0,1,,,,,,,,,,,,,,,0,,,67,0
21660,note_on,0,0,1,,,,,,,,,,,,,,,0,,,67,105
21720,note_on,60,0,1,,,,,,,,,,,,,,,0,,,67,0
21720,note_on,0,0,1,,,,,,,,,,,,,,,0,,,69,105
21780,note_on,60,0,1,,,,,,,,,,,,,,,0,,,69,0
21780,note_on,0,0,1,,,,,,,,,,,,,,,0,,,67,105
21840,note_on,0,0,1,,,,,,,,,,,,,,,0,,,66,105
21840,note_on,0,0,2,,,,,,,,,,,,,,,1,,,57,95
21840,note_on,60,0,1,,,,,,,,,,,,,,,0,,,67,0
21840,note_on,240,0,2,,,,,,,,,,,,,,,1,,,55,0
21848,set_tempo,260,1,0,,,,,,,,,,,,1333333,,,,,,,
21852,set_tempo,4,1,0,,,,,,,,,,,,1200000,,,,,,,
21900,note_on,0,0,2,,,,,,,,,,,,,,,1,,,63,95
21900,note_on,60,0,2,,,,,,,,,,,,,,,1,,,63,0
21960,note_on,60,0,2,,,,,,,,,,,,,,,1,,,63,0
21960,note_on,0,0,2,,,,,,,,,,,,,,,1,,,62,95
22020,note_on,60,0,2,,,,,,,,,,,,,,,1,,,62,0
22020,note_on,0,0,2,,,,,,,,,,,,,,,1,,,60,95
22080,note_on,240,0,1,,,,,,,,,,,,,,,0,,,66,0
22080,note_on,0,0,1,,,,,,,,,,,,,,,0,,,72,0
22080,note_on,0,0,1,,,,,,,,,,,,,,,0,,,71,105
22080,note_on,0,0,2,,,,,,,,,,,,,,,1,,,55,95
22080,note_on,0,0,2,,,,,,,,,,,,,,,1,,,62,95
22080,note_on,0,0,2,,,,,,,,,,,,,,,1,,,57,0
22080,note_on,60,0,2,,,,,,,,,,,,,,,1,,,60,0
22080,note_on,0,0,1,,,,,,,,,,,,,,,0,,,67,105
22084,set_tempo,232,1,0,,,,,,,,,,,,1132075,,,,,,,
22170,note_on,0,0,2,,,,,,,,,,,,,,,1,,,62,0
22170,note_on,90,0,1,,,,,,,,,,,,,,,0,,,71,0
22170,note_on,0,0,1,,,,,,,,,,,,,,,0,,,67,0
22170,note_on,90,0,2,,,,,,,,,,,,,,,1,,,55,0
22200,note_on,30,0,2,,,,,,,,,,,,,,,1,,,62,95
22200,note_on,0,0,2,,,,,,,,,,,,,,,1,,,55,95
22200,note_on,0,0,1,,,,,,,,,,,,,,,0,,,67,105
22200,note_on,30,0,1,,,,,,,,,,,,,,,0,,,71,105
22290,note_on,90,0,2,,,,,,,,,,,,,,,1,,,55,0
22290,note_on,0,0,1,,,,,,,,,,,,,,,0,,,71,0
22290,note_on,90,0,1,,,,,,,,,,,,,,,0,,,67,0
22290,note_on,0,0,2,,,,,,,,,,,,,,,1,,,62,0
22320,note_on,0,0,2,,,,,,,,,,,,,,,1,,,55,95
22320,note_on,30,0,2,,,,,,,,,,,,,,,1,,,62,95
22320,set_tempo,236,1,0,,,,,,,,,,,,1090909,,,,,,,
22320,note_on,30,0,1,,,,,,,,,,,,,,,0,,,71,105
22320,note_on,0,0,1,,,,,,,,,,,,,,,0,,,67,105
22324,set_tempo,4,1,0,,,,,,,,,,,,1071429,,,,,,,
22328,set_tempo,4,1,0,,,,,,,,,,,,1111111,,,,,,,
22332,set_tempo,4,1,0,,,,,,,,,,,,1071429,,,,,,,
22410,note_on,0,0,2,,,,,,,,,,,,,,,1,,,62,0
22410,note_on,0,0,1,,,,,,,,,,,,,,,0,,,71,0
22410,note_on,90,0,2,,,,,,,,,,,,,,,1,,,55,0
22410,note_on,90,0,1,,,,,,,,,,,,,,,0,,,67,0
22440,note_on,30,0,2,,,,,,,,,,,,,,,1,,,62,95
22440,note_on,30,0,1,,,,,,,,,,,,,,,0,,,71,105
22440,note_on,0,0,1,,,,,,,,,,,,,,,0,,,67,105
22440,note_on,0,0,2,,,,,,,,,,,,,,,1,,,55,95
22464,set_tempo,132,1,0,,,,,,,,,,,,1052632,,,,,,,
22560,note_on,0,0,1,,,,,,,,,,,,,,,0,,,71,0
22560,note_on,120,0,1,,,,,,,,,,,,,,,0,,,67,0
22560,note_on,0,0,2,,,,,,,,,,,,,,,1,,,62,0
22560,note_on,0,0,2,,,,,,,,,,,,,,,1,,,55,95
22560,note_on,0,0,2,,,,,,,,,,,,,,,1,,,60,95
22560,set_tempo,96,1,0,,,,,,,,,,,,1000000,,,,,,,
22560,note_on,120,0,2,,,,,,,,,,,,,,,1,,,55,0
22560,note_on,1920,0,3,,,,,,,,,,,,,,,2,,,31,0
22560,note_on,0,0,3,,,,,,,,,,,,,,,2,,,28,95
22560,note_on,0,0,1,,,,,,,,,,,,,,,0,,,70,105
22560,note_on,0,0,2,,,,,,,,,,,,,,,1,,,48,95
22560,note_on,0,0,2,,,,,,,,,,,,,,,1,,,52,95
22560,note_on,0,0,1,,,,,,,,,,,,,,,0,,,67,105
22564,set_tempo,4,1,0,,,,,,,,,,,,1052632,,,,,,,
22650,note_on,90,0,1,,,,,,,,,,,,,,,0,,,67,0
22650,note_on,0,0,1,,,,,,,,,,,,,,,0,,,70,0
22650,note_on,0,0,2,,,,,,,,,,,,,,,1,,,48,0
22650,note_on,0,0,2,,,,,,,,,,,,,,,1,,,55,0
22650,note_on,0,0,2,,,,,,,,,,,,,,,1,,,60,0
22650,note_on,90,0,2,,,,,,,,,,,,,,,1,,,52,0
22680,note_on,0,0,1,,,,,,,,,,,,,,,0,,,67,105
22680,note_on,30,0,1,,,,,,,,,,,,,,,0,,,70,105
22680,note_on,0,0,2,,,,,,,,,,,,,,,1,,,52,95
22680,note_on,0,0,2,,,,,,,,,,,,,,,1,,,55,95
22680,note_on,0,0,2,,,,,,,,,,,,,,,1,,,48,95
22680,note_on,30,0,2,,,,,,,,,,,,,,,1,,,60,95
22770,note_on,0,0,1,,,,,,,,,,,,,,,0,,,70,0
22770,note_on,90,0,1,,,,,,,,,,,,,,,0,,,67,0
22770,note_on,90,0,2,,,,,,,,,,,,,,,1,,,48,0
22770,note_on,0,0,2,,,,,,,,,,,,,,,1,,,60,0
22770,note_on,0,0,2,,,,,,,,,,,,,,,1,,,52,0
22770,note_on,0,0,2,,,,,,,,,,,,,,,1,,,55,0
22800,note_on,30,0,1,,,,,,,,,,,,,,,0,,,70,105
22800,note_on,0,0,1,,,,,,,,,,,,,,,0,,,67,105
22800,note_on,0,0,2,,,,,,,,,,,,,,,1,,,48,95
22800,note_on,0,0,2,,,,,,,,,,,,,,,1,,,52,95
22800,note_on,0,0,2,,,,,,,,,,,,,,,1,,,60,95
22800,note_on,30,0,2,,,,,,,,,,,,,,,1,,,55,95
22890,note_on,0,0,2,,,,,,,,,,,,,,,1,,,60,0
22890,note_on,0,0,1,,,,,,,,,,,,,,,0,,,70,0
22890,note_on,90,0,1,,,,,,,,,,,,,,,0,,,67,0
22890,note_on,0,0,2,,,,,,,,,,,,,,,1,,,52,0
22890,note_on,0,0,2,,,,,,,,,,,,,,,1,,,55,0
22890,note_on,90,0,2,,,,,,,,,,,,,,,1,,,48,0
22920,note_on,30,0,2,,,,,,,,,,,,,,,1,,,60,95
22920,note_on,0,0,1,,,,,,,,,,,,,,,0,,,67,105
22920,note_on,0,0,2,,,,,,,,,,,,,,,1,,,55,95
22920,note_on,0,0,2,,,,,,,,,,,,,,,1,,,52,95
22920,note_on,30,0,1,,,,,,,,,,,,,,,0,,,70,105
22920,note_on,0,0,2,,,,,,,,,,,,,,,1,,,48,95
23040,note_on,0,0,1,,,,,,,,,,,,,,,0,,,68,105
23040,note_on,0,0,1,,,,,,,,,,,,,,,0,,,65,105
23040,note_on,0,0,1,,,,,,,,,,,,,,,0,,,70,0
23040,note_on,120,0,1,,,,,,,,,,,,,,,0,,,67,0
23040,note_on,0,0,2,,,,,,,,,,,,,,,1,,,52,0
23040,note_on,120,0,2,,,,,,,,,,,,,,,1,,,48,0
23040,set_tempo,476,1,0,,,,,,,,,,,,1000000,,,,,,,
23040,note_on,0,0,2,,,,,,,,,,,,,,,1,,,55,0
23040,note_on,0,0,2,,,,,,,,,,,,,,,1,,,60,0
23040,note_on,0,0,2,,,,,,,,,,,,,,,1,,,48,95
23040,note_on,0,0,2,,,,,,,,,,,,,,,1,,,60,95
23040,note_on,0,0,3,,,,,,,,,,,,,,,2,,,29,95
23040,note_on,480,0,3,,,,,,,,,,,,,,,2,,,28,0
23040,note_on,0,0,2,,,,,,,,,,,,,,,1,,,53,95
23280,note_on,0,0,2,,,,,,,,,,,,,,,1,,,53,0
23280,note_on,240,0,2,,,,,,,,,,,,,,,1,,,60,0
23280,note_on,240,0,1,,,,,,,,,,,,,,,0,,,68,0
23280,note_on,0,0,1,,,,,,,,,,,,,,,0,,,65,0
23280,note_on,0,0,2,,,,,,,,,,,,,,,1,,,48,0
23340,note_on,60,0,1,,,,,,,,,,,,,,,0,,,72,105
23400,note_on,60,0,1,,,,,,,,,,,,,,,0,,,72,0
23400,note_on,0,0,1,,,,,,,,,,,,,,,0,,,67,105
23460,note_on,0,0,1,,,,,,,,,,,,,,,0,,,70,105
23460,note_on,60,0,1,,,,,,,,,,,,,,,0,,,67,0
23520,note_on,0,0,1,,,,,,,,,,,,,,,0,,,72,105
23520,note_on,0,0,1,,,,,,,,,,,,,,,0,,,68,105
23520,note_on,60,0,1,,,,,,,,,,,,,,,0,,,70,0
23580,note_on,300,0,2,,,,,,,,,,,,,,,1,,,65,95
23640,note_on,60,0,2,,,,,,,,,,,,,,,1,,,65,0
23640,note_on,0,0,2,,,,,,,,,,,,,,,1,,,64,95
23700,note_on,0,0,2,,,,,,,,,,,,,,,1,,,60,95
23700,note_on,60,0,2,,,,,,,,,,,,,,,1,,,64,0
23760,note_on,0,0,2,,,,,,,,,,,,,,,1,,,65,95
23760,note_on,60,0,2,,,,,,,,,,,,,,,1,,,60,0
23820,note_on,0,0,1,,,,,,,,,,,,,,,0,,,72,105
23820,note_on,300,0,1,,,,,,,,,,,,,,,0,,,72,0
23880,note_on,60,0,1,,,,,,,,,,,,,,,0,,,72,0
23880,note_on,0,0,1,,,,,,,,,,,,,,,0,,,76,105
23940,note_on,60,0,1,,,,,,,,,,,,,,,0,,,76,0
23940,note_on,0,0,1,,,,,,,,,,,,,,,0,,,72,105
24000,note_on,60,0,1,,,,,,,,,,,,,,,0,,,72,0
24000,note_on,0,0,1,,,,,,,,,,,,,,,0,,,77,105
24060,note_on,0,0,2,,,,,,,,,,,,,,,1,,,65,95
24060,note_on,300,0,2,,,,,,,,,,,,,,,1,,,65,0
24120,note_on,60,0,2,,,,,,,,,,,,,,,1,,,65,0
24120,note_on,0,0,2,,,,,,,,,,,,,,,1,,,64,95
24180,note_on,0,0,2,,,,,,,,,,,,,,,1,,,60,95
24180,note_on,60,0,2,,,,,,,,,,,,,,,1,,,64,0
24240,note_on,60,0,2,,,,,,,,,,,,,,,1,,,60,0
24240,note_on,0,0,2,,,,,,,,,,,,,,,1,,,65,95
24300,note_on,0,0,1,,,,,,,,,,,,,,,0,,,77,105
24300,note_on,300,0,1,,,,,,,,,,,,,,,0,,,77,0
24360,note_on,60,0,1,,,,,,,,,,,,,,,0,,,77,0
24360,note_on,0,0,1,,,,,,,,,,,,,,,0,,,72,105
24420,note_on,60,0,1,,,,,,,,,,,,,,,0,,,72,0
24420,note_on,0,0,1,,,,,,,,,,,,,,,0,,,73,105
24480,note_on,60,0,1,,,,,,,,,,,,,,,0,,,73,0
24480,note_on,0,0,1,,,,,,,,,,,,,,,0,,,72,105
24540,note_on,0,0,2,,,,,,,,,,,,,,,1,,,65,95
24540,note_on,300,0,2,,,,,,,,,,,,,,,1,,,65,0
24600,note_on,0,0,2,,,,,,,,,,,,,,,1,,,64,95
24600,note_on,60,0,2,,,,,,,,,,,,,,,1,,,65,0
24660,note_on,0,0,2,,,,,,,,,,,,,,,1,,,60,95
24660,note_on,60,0,2,,,,,,,,,,,,,,,1,,,64,0
24720,note_on,0,0,2,,,,,,,,,,,,,,,1,,,65,95
24720,note_on,60,0,2,,,,,,,,,,,,,,,1,,,60,0
24780,note_on,0,0,1,,,,,,,,,,,,,,,0,,,77,105
24780,note_on,300,0,1,,,,,,,,,,,,,,,0,,,72,0
24840,note_on,60,0,1,,,,,,,,,,,,,,,0,,,77,0
24840,note_on,0,0,1,,,,,,,,,,,,,,,0,,,68,105
24900,note_on,0,0,1,,,,,,,,,,,,,,,0,,,70,105
24900,note_on,60,0,1,,,,,,,,,,,,,,,0,,,68,0
24960,note_on,60,0,1,,,,,,,,,,,,,,,0,,,70,0
24960,note_on,0,0,1,,,,,,,,,,,,,,,0,,,72,105
24960,note_on,0,0,1,,,,,,,,,,,,,,,0,,,68,0
25020,note_on,60,0,1,,,,,,,,,,,,,,,0,,,67,105
25080,note_on,0,0,1,,,,,,,,,,,,,,,0,,,68,105
25080,note_on,60,0,1,,,,,,,,,,,,,,,0,,,67,0
25140,note_on,0,0,1,,,,,,,,,,,,,,,0,,,70,105
25140,note_on,60,0,1,,,,,,,,,,,,,,,0,,,68,0
25200,note_on,0,0,1,,,,,,,,,,,,,,,0,,,68,105
25200,note_on,480,0,2,,,,,,,,,,,,,,,1,,,65,0
25200,note_on,60,0,1,,,,,,,,,,,,,,,0,,,70,0
25260,note_on,60,0,2,,,,,,,,,,,,,,,1,,,64,95
25320,note_on,0,0,2,,,,,,,,,,,,,,,1,,,65,95
25320,note_on,60,0,2,,,,,,,,,,,,,,,1,,,64,0
25380,note_on,0,0,2,,,,,,,,,,,,,,,1,,,59,95
25380,note_on,60,0,2,,,,,,,,,,,,,,,1,,,65,0
25436,set_tempo,2396,1,0,,,,,,,,,,,,1132075,,,,,,,
25440,set_tempo,4,1,0,,,,,,,,,,,,1000000,,,,,,,
25440,note_on,2400,0,3,,,,,,,,,,,,,,,2,,,29,0
25440,note_on,0,0,2,,,,,,,,,,,,,,,1,,,60,95
25440,note_on,60,0,2,,,,,,,,,,,,,,,1,,,59,0
25440,note_on,0,0,3,,,,,,,,,,,,,,,2,,,24,95
25500,note_on,60,0,2,,,,,,,,,,,,,,,1,,,64,95
25560,note_on,60,0,2,,,,,,,,,,,,,,,1,,,64,0
25560,note_on,0,0,2,,,,,,,,,,,,,,,1,,,65,95
25620,note_on,0,0,1,,,,,,,,,,,,,,,0,,,67,105
25620,note_on,420,0,1,,,,,,,,,,,,,,,0,,,68,0
25680,set_tempo,240,1,0,,,,,,,,,,,,1304348,,,,,,,
25680,note_on,0,0,1,,,,,,,,,,,,,,,0,,,68,105
25680,note_on,60,0,1,,,,,,,,,,,,,,,0,,,67,0
25684,set_tempo,4,1,0,,,,,,,,,,,,1071429,,,,,,,
25740,note_on,0,0,1,,,,,,,,,,,,,,,0,,,70,105
25740,note_on,60,0,1,,,,,,,,,,,,,,,0,,,72,0
25800,note_on,0,0,1,,,,,,,,,,,,,,,0,,,72,105
25800,note_on,60,0,1,,,,,,,,,,,,,,,0,,,70,0
25860,note_on,60,0,1,,,,,,,,,,,,,,,0,,,72,0
25860,note_on,0,0,1,,,,,,,,,,,,,,,0,,,73,105
25920,set_tempo,236,1,0,,,,,,,,,,,,1621622,,,,,,,
25920,note_on,60,0,1,,,,,,,,,,,,,,,0,,,73,0
25920,note_on,0,0,1,,,,,,,,,,,,,,,0,,,72,105
25924,set_tempo,4,1,0,,,,,,,,,,,,1153846,,,,,,,
25980,note_on,60,0,1,,,,,,,,,,,,,,,0,,,72,0
25980,note_on,0,0,1,,,,,,,,,,,,,,,0,,,73,105
26016,set_tempo,92,1,0,,,,,,,,,,,,1363636,,,,,,,
26020,set_tempo,4,1,0,,,,,,,,,,,,1200000,,,,,,,
26040,note_on,0,0,1,,,,,,,,,,,,,,,0,,,70,105
26040,note_on,0,0,1,,,,,,,,,,,,,,,0,,,67,105
26040,note_on,0,0,1,,,,,,,,,,,,,,,0,,,68,0
26040,note_on,60,0,1,,,,,,,,,,,,,,,0,,,73,0
26100,note_on,60,0,1,,,,,,,,,,,,,,,0,,,70,0
26100,note_on,0,0,2,,,,,,,,,,,,,,,1,,,64,95
26100,note_on,540,0,2,,,,,,,,,,,,,,,1,,,65,0
26100,note_on,0,0,1,,,,,,,,,,,,,,,0,,,72,105
26160,note_on,0,0,2,,,,,,,,,,,,,,,1,,,60,0
26160,note_on,60,0,2,,,,,,,,,,,,,,,1,,,64,0
26160,note_on,0,0,1,,,,,,,,,,,,,,,0,,,68,105
26160,note_on,0,0,1,,,,,,,,,,,,,,,0,,,67,0
26160,note_on,60,0,1,,,,,,,,,,,,,,,0,,,72,0
26172,set_tempo,152,1,0,,,,,,,,,,,,1463415,,,,,,,
26176,set_tempo,4,1,0,,,,,,,,,,,,1200000,,,,,,,
26220,note_on,60,0,1,,,,,,,,,,,,,,,0,,,65,105
26280,note_on,120,0,2,,,,,,,,,,,,,,,1,,,59,95
26280,note_on,0,0,2,,,,,,,,,,,,,,,1,,,62,95
26340,note_on,120,0,1,,,,,,,,,,,,,,,0,,,68,0
26340,note_on,0,0,1,,,,,,,,,,,,,,,0,,,67,105
26400,note_on,0,0,2,,,,,,,,,,,,,,,1,,,60,95
26400,note_on,120,0,2,,,,,,,,,,,,,,,1,,,62,0
26400,note_on,0,0,2,,,,,,,,,,,,,,,1,,,59,0
26408,set_tempo,232,1,0,,,,,,,,,,,,1395349,,,,,,,
26460,note_on,0,0,1,,,,,,,,,,,,,,,0,,,64,105
26460,note_on,120,0,1,,,,,,,,,,,,,,,0,,,65,0
26520,note_on,0,0,1,,,,,,,,,,,,,,,0,,,62,105
26520,note_on,60,0,1,,,,,,,,,,,,,,,0,,,64,0
26580,note_on,0,0,1,,,,,,,,,,,,,,,0,,,64,105
26580,note_on,60,0,1,,,,,,,,,,,,,,,0,,,62,0
26640,note_on,240,0,2,,,,,,,,,,,,,,,1,,,55,95
26640,set_tempo,232,1,0,,,,,,,,,,,,2400000,,,,,,,
26700,note_on,120,0,1,,,,,,,,,,,,,,,0,,,67,0
26700,note_on,0,0,1,,,,,,,,,,,,,,,0,,,72,105
26760,note_on,0,0,2,,,,,,,,,,,,,,,1,,,60,0
26760,note_on,120,0,2,,,,,,,,,,,,,,,1,,,55,0
26760,note_on,0,0,2,,,,,,,,,,,,,,,1,,,53,95
26760,note_on,0,0,2,,,,,,,,,,,,,,,1,,,62,95
26760,note_on,0,0,1,,,,,,,,,,,,,,,0,,,65,105
26760,note_on,60,0,1,,,,,,,,,,,,,,,0,,,64,0
26820,note_on,60,0,1,,,,,,,,,,,,,,,0,,,72,0
26820,note_on,0,0,1,,,,,,,,,,,,,,,0,,,71,105
26880,set_tempo,240,1,0,,,,,,,,,,,,1111111,,,,,,,
26880,note_on,60,0,1,,,,,,,,,,,,,,,0,,,71,0
26880,note_on,0,0,1,,,,,,,,,,,,,,,0,,,65,0
26880,note_on,0,0,1,,,,,,,,,,,,,,,0,,,64,105
26880,note_on,0,0,1,,,,,,,,,,,,,,,0,,,60,105
26880,note_on,0,0,1,,,,,,,,,,,,,,,0,,,67,105
26880,note_on,0,0,1,,,,,,,,,,,,,,,0,,,72,105
26880,note_on,1440,0,3,,,,,,,,,,,,,,,2,,,24,0
26880,note_on,0,0,3,,,,,,,,,,,,,,,2,,,36,95
26880,note_on,0,0,2,,,,,,,,,,,,,,,1,,,55,95
26880,note_on,0,0,2,,,,,,,,,,,,,,,1,,,52,95
26880,note_on,0,0,2,,,,,,,,,,,,,,,1,,,53,0
26880,note_on,120,0,2,,,,,,,,,,,,,,,1,,,62,0
27360,note_on,480,0,1,,,,,,,,,,,,,,,0,,,72,0
27360,note_on,0,0,1,,,,,,,,,,,,,,,0,,,67,0
27360,note_on,480,0,3,,,,,,,,,,,,,,,2,,,36,0
27360,note_on,0,0,2,,,,,,,,,,,,,,,1,,,52,0
27360,note_on,480,0,2,,,,,,,,,,,,,,,1,,,55,0
27360,note_on,0,0,1,,,,,,,,,,,,,,,0,,,64,0
27360,note_on,0,0,1,,,,,,,,,,,,,,,0,,,60,0
27840,set_tempo,960,1,0,,,,,,,,,,,,800000,,,,,,,
27840,note_on,480,0,2,,,,,,,,,,,,,,,1,,,48,64
27900,note_on,60,0,2,,,,,,,,,,,,,,,1,,,48,0
27900,note_on,0,0,2,,,,,,,,,,,,,,,1,,,51,64
27960,note_on,60,0,2,,,,,,,,,,,,,,,1,,,51,0
27960,note_on,0,0,2,,,,,,,,,,,,,,,1,,,50,64
28020,note_on,0,0,2,,,,,,,,,,,,,,,1,,,51,64
28020,note_on,60,0,2,,,,,,,,,,,,,,,1,,,50,0
28080,note_on,0,0,2,,,,,,,,,,,,,,,1,,,48,64
28080,note_on,60,0,2,,,,,,,,,,,,,,,1,,,51,0
28170,note_on,90,0,2,,,,,,,,,,,,,,,1,,,48,0
28200,note_on,30,0,2,,,,,,,,,,,,,,,1,,,51,64
28290,note_on,90,0,2,,,,,,,,,,,,,,,1,,,51,0
28320,note_on,30,0,2,,,,,,,,,,,,,,,1,,,50,64
28560,note_on,240,0,2,,,,,,,,,,,,,,,1,,,50,0
28560,note_on,0,0,2,,,,,,,,,,,,,,,1,,,43,64
28740,note_on,180,0,2,,,,,,,,,,,,,,,1,,,43,0
28800,note_on,60,0,2,,,,,,,,,,,,,,,1,,,48,64
28860,note_on,60,0,2,,,,,,,,,,,,,,,1,,,48,0
28860,note_on,0,0,2,,,,,,,,,,,,,,,1,,,51,64
28920,note_on,0,0,2,,,,,,,,,,,,,,,1,,,50,64
28920,note_on,60,0,2,,,,,,,,,,,,,,,1,,,51,0
28980,note_on,0,0,2,,,,,,,,,,,,,,,1,,,51,64
28980,note_on,60,0,2,,,,,,,,,,,,,,,1,,,50,0
29040,note_on,0,0,2,,,,,,,,,,,,,,,1,,,50,64
29040,note_on,60,0,2,,,,,,,,,,,,,,,1,,,51,0
29100,note_on,0,0,2,,,,,,,,,,,,,,,1,,,53,64
29100,note_on,60,0,2,,,,,,,,,,,,,,,1,,,50,0
29160,note_on,60,0,2,,,,,,,,,,,,,,,1,,,53,0
29160,note_on,0,0,2,,,,,,,,,,,,,,,1,,,51,64
29220,note_on,60,0,2,,,,,,,,,,,,,,,1,,,51,0
29220,note_on,0,0,2,,,,,,,,,,,,,,,1,,,53,64
29280,note_on,60,0,2,,,,,,,,,,,,,,,1,,,53,0
29280,note_on,0,0,2,,,,,,,,,,,,,,,1,,,51,64
29520,note_on,0,0,2,,,,,,,,,,,,,,,1,,,48,64
29520,note_on,240,0,2,,,,,,,,,,,,,,,1,,,51,0
29700,note_on,180,0,2,,,,,,,,,,,,,,,1,,,48,0
29760,note_on,60,0,2,,,,,,,,,,,,,,,1,,,51,64
29820,note_on,0,0,2,,,,,,,,,,,,,,,1,,,55,64
29820,note_on,60,0,2,,,,,,,,,,,,,,,1,,,51,0
29880,note_on,0,0,2,,,,,,,,,,,,,,,1,,,53,64
29880,note_on,60,0,2,,,,,,,,,,,,,,,1,,,55,0
29940,note_on,60,0,2,,,,,,,,,,,,,,,1,,,53,0
29940,note_on,0,0,2,,,,,,,,,,,,,,,1,,,55,64
30000,note_on,60,0,2,,,,,,,,,,,,,,,1,,,55,0
30000,note_on,0,0,2,,,,,,,,,,,,,,,1,,,53,64
30060,note_on,60,0,2,,,,,,,,,,,,,,,1,,,53,0
30060,note_on,0,0,2,,,,,,,,,,,,,,,1,,,56,64
30120,note_on,0,0,2,,,,,,,,,,,,,,,1,,,55,64
30120,note_on,60,0,2,,,,,,,,,,,,,,,1,,,56,0
30180,note_on,60,0,2,,,,,,,,,,,,,,,1,,,55,0
30180,note_on,0,0,2,,,,,,,,,,,,,,,1,,,56,64
30240,note_on,60,0,2,,,,,,,,,,,,,,,1,,,56,0
30240,note_on,0,0,2,,,,,,,,,,,,,,,1,,,55,64
30420,note_on,0,0,2,,,,,,,,,,,,,,,1,,,56,64
30420,note_on,180,0,2,,,,,,,,,,,,,,,1,,,55,0
30480,note_on,60,0,2,,,,,,,,,,,,,,,1,,,56,0
30480,note_on,0,0,2,,,,,,,,,,,,,,,1,,,55,64
30540,note_on,0,0,2,,,,,,,,,,,,,,,1,,,53,64
30540,note_on,60,0,2,,,,,,,,,,,,,,,1,,,55,0
30600,note_on,0,0,2,,,,,,,,,,,,,,,1,,,51,64
30600,note_on,60,0,2,,,,,,,,,,,,,,,1,,,53,0
30660,note_on,60,0,2,,,,,,,,,,,,,,,1,,,51,0
30660,note_on,0,0,2,,,,,,,,,,,,,,,1,,,50,64
30720,note_on,0,0,2,,,,,,,,,,,,,,,1,,,51,64
30720,note_on,60,0,2,,,,,,,,,,,,,,,1,,,50,0
30780,note_on,60,0,2,,,,,,,,,,,,,,,1,,,51,0
30780,note_on,0,0,2,,,,,,,,,,,,,,,1,,,50,64
30840,note_on,60,0,2,,,,,,,,,,,,,,,1,,,50,0
30840,note_on,0,0,2,,,,,,,,,,,,,,,1,,,51,64
30900,note_on,60,0,2,,,,,,,,,,,,,,,1,,,51,0
30900,note_on,0,0,2,,,,,,,,,,,,,,,1,,,53,64
30960,note_on,60,0,2,,,,,,,,,,,,,,,1,,,53,0
30960,note_on,0,0,2,,,,,,,,,,,,,,,1,,,50,64
30990,note_on,30,0,2,,,,,,,,,,,,,,,1,,,50,0
30990,note_on,0,0,2,,,,,,,,,,,,,,,1,,,51,64
31020,note_on,0,0,2,,,,,,,,,,,,,,,1,,,50,64
31020,note_on,30,0,2,,,,,,,,,,,,,,,1,,,51,0
31140,note_on,0,0,2,,,,,,,,,,,,,,,1,,,48,64
31140,note_on,120,0,2,,,,,,,,,,,,,,,1,,,50,0
31200,note_on,0,0,2,,,,,,,,,,,,,,,1,,,48,64
31200,note_on,60,0,2,,,,,,,,,,,,,,,1,,,48,0
31320,note_on,0,0,2,,,,,,,,,,,,,,,1,,,46,64
31320,note_on,120,0,2,,,,,,,,,,,,,,,1,,,48,0
31380,note_on,0,0,2,,,,,,,,,,,,,,,1,,,48,64
31380,note_on,60,0,2,,,,,,,,,,,,,,,1,,,46,0
31440,note_on,0,0,2,,,,,,,,,,,,,,,1,,,45,64
31440,note_on,60,0,2,,,,,,,,,,,,,,,1,,,48,0
31470,note_on,0,0,2,,,,,,,,,,,,,,,1,,,46,64
31470,note_on,30,0,2,,,,,,,,,,,,,,,1,,,45,0
31500,note_on,0,0,2,,,,,,,,,,,,,,,1,,,45,64
31500,note_on,30,0,2,,,,,,,,,,,,,,,1,,,46,0
31620,note_on,0,0,2,,,,,,,,,,,,,,,1,,,43,64
31620,note_on,120,0,2,,,,,,,,,,,,,,,1,,,45,0
31680,note_on,0,0,2,,,,,,,,,,,,,,,1,,,43,64
31680,note_on,0,0,2,,,,,,,,,,,,,,,1,,,55,64
31680,note_on,60,0,2,,,,,,,,,,,,,,,1,,,43,0
31740,note_on,0,0,2,,,,,,,,,,,,,,,1,,,58,64
31740,note_on,60,0,2,,,,,,,,,,,,,,,1,,,55,0
31800,note_on,0,0,2,,,,,,,,,,,,,,,1,,,57,64
31800,note_on,60,0,2,,,,,,,,,,,,,,,1,,,58,0
31860,note_on,0,0,2,,,,,,,,,,,,,,,1,,,58,64
31860,note_on,60,0,2,,,,,,,,,,,,,,,1,,,57,0
31920,note_on,0,0,2,,,,,,,,,,,,,,,1,,,43,0
31920,note_on,60,0,2,,,,,,,,,,,,,,,1,,,58,0
31920,note_on,0,0,2,,,,,,,,,,,,,,,1,,,55,64
32016,note_on,96,0,2,,,,,,,,,,,,,,,1,,,55,0
32040,note_on,24,0,2,,,,,,,,,,,,,,,1,,,58,64
32136,note_on,96,0,2,,,,,,,,,,,,,,,1,,,58,0
32160,note_on,24,0,2,,,,,,,,,,,,,,,1,,,57,64
32280,note_on,120,0,2,,,,,,,,,,,,,,,1,,,38,64
32328,note_on,48,0,2,,,,,,,,,,,,,,,1,,,38,0
32340,note_on,12,0,2,,,,,,,,,,,,,,,1,,,40,64
32388,note_on,48,0,2,,,,,,,,,,,,,,,1,,,40,0
32400,note_on,0,0,2,,,,,,,,,,,,,,,1,,,42,64
32400,note_on,0,0,2,,,,,,,,,,,,,,,1,,,50,64
32400,note_on,12,0,2,,,,,,,,,,,,,,,1,,,57,0
32496,note_on,96,0,2,,,,,,,,,,,,,,,1,,,42,0
32520,note_on,24,0,2,,,,,,,,,,,,,,,1,,,40,64
32568,note_on,48,0,2,,,,,,,,,,,,,,,1,,,40,0
32580,note_on,12,0,2,,,,,,,,,,,,,,,1,,,42,64
32592,note_on,12,0,2,,,,,,,,,,,,,,,1,,,50,0
32628,note_on,36,0,2,,,,,,,,,,,,,,,1,,,42,0
32640,note_on,0,0,2,,,,,,,,,,,,,,,1,,,43,64
32640,note_on,12,0,2,,,,,,,,,,,,,,,1,,,55,64
32700,note_on,0,0,2,,,,,,,,,,,,,,,1,,,58,64
32700,note_on,60,0,2,,,,,,,,,,,,,,,1,,,55,0
32760,note_on,0,0,2,,,,,,,,,,,,,,,1,,,55,64
32760,note_on,0,0,2,,,,,,,,,,,,,,,1,,,57,64
32760,note_on,0,0,2,,,,,,,,,,,,,,,1,,,43,0
32760,note_on,60,0,2,,,,,,,,,,,,,,,1,,,58,0
32820,note_on,0,0,2,,,,,,,,,,,,,,,1,,,58,64
32820,note_on,60,0,2,,,,,,,,,,,,,,,1,,,57,0
32880,note_on,0,0,2,,,,,,,,,,,,,,,1,,,54,64
32880,note_on,0,0,2,,,,,,,,,,,,,,,1,,,57,64
32880,note_on,0,0,2,,,,,,,,,,,,,,,1,,,55,0
32880,note_on,60,0,2,,,,,,,,,,,,,,,1,,,58,0
32940,note_on,60,0,2,,,,,,,,,,,,,,,1,,,57,0
32940,note_on,0,0,2,,,,,,,,,,,,,,,1,,,60,64
33000,note_on,0,0,2,,,,,,,,,,,,,,,1,,,50,64
33000,note_on,60,0,2,,,,,,,,,,,,,,,1,,,60,0
33000,note_on,0,0,2,,,,,,,,,,,,,,,1,,,58,64
33000,note_on,0,0,2,,,,,,,,,,,,,,,1,,,54,0
33060,note_on,0,0,2,,,,,,,,,,,,,,,1,,,60,64
33060,note_on,60,0,2,,,,,,,,,,,,,,,1,,,58,0
33120,note_on,0,0,2,,,,,,,,,,,,,,,1,,,55,64
33120,note_on,0,0,2,,,,,,,,,,,,,,,1,,,58,64
33120,note_on,0,0,2,,,,,,,,,,,,,,,1,,,50,0
33120,note_on,60,0,2,,,,,,,,,,,,,,,1,,,60,0
33240,note_on,0,0,2,,,,,,,,,,,,,,,1,,,43,64
33240,note_on,120,0,2,,,,,,,,,,,,,,,1,,,55,0
33300,note_on,0,0,2,,,,,,,,,,,,,,,1,,,45,64
33300,note_on,60,0,2,,,,,,,,,,,,,,,1,,,43,0
33360,note_on,0,0,2,,,,,,,,,,,,,,,1,,,58,0
33360,note_on,60,0,2,,,,,,,,,,,,,,,1,,,45,0
33360,note_on,0,0,2,,,,,,,,,,,,,,,1,,,46,64
33360,note_on,0,0,2,,,,,,,,,,,,,,,1,,,55,64
33480,note_on,0,0,2,,,,,,,,,,,,,,,1,,,45,64
33480,note_on,120,0,2,,,,,,,,,,,,,,,1,,,46,0
33540,note_on,0,0,2,,,,,,,,,,,,,,,1,,,46,64
33540,note_on,60,0,2,,,,,,,,,,,,,,,1,,,45,0
33600,note_on,0,0,2,,,,,,,,,,,,,,,1,,,58,64
33600,note_on,0,0,2,,,,,,,,,,,,,,,1,,,43,64
33600,note_on,0,0,2,,,,,,,,,,,,,,,1,,,55,0
33600,note_on,60,0,2,,,,,,,,,,,,,,,1,,,46,0
33660,note_on,0,0,2,,,,,,,,,,,,,,,1,,,62,64
33660,note_on,60,0,2,,,,,,,,,,,,,,,1,,,58,0
33720,note_on,0,0,2,,,,,,,,,,,,,,,1,,,55,64
33720,note_on,0,0,2,,,,,,,,,,,,,,,1,,,43,0
33720,note_on,60,0,2,,,,,,,,,,,,,,,1,,,62,0
33720,note_on,0,0,2,,,,,,,,,,,,,,,1,,,60,64
33780,note_on,0,0,2,,,,,,,,,,,,,,,1,,,62,64
33780,note_on,60,0,2,,,,,,,,,,,,,,,1,,,60,0
33840,note_on,60,0,2,,,,,,,,,,,,,,,1,,,62,0
33840,note_on,0,0,2,,,,,,,,,,,,,,,1,,,55,0
33840,note_on,0,0,2,,,,,,,,,,,,,,,1,,,51,64
33840,note_on,0,0,2,,,,,,,,,,,,,,,1,,,60,64
33900,note_on,60,0,2,,,,,,,,,,,,,,,1,,,60,0
33900,note_on,0,0,2,,,,,,,,,,,,,,,1,,,63,64
33960,note_on,60,0,2,,,,,,,,,,,,,,,1,,,63,0
33960,note_on,0,0,2,,,,,,,,,,,,,,,1,,,51,0
33960,note_on,0,0,2,,,,,,,,,,,,,,,1,,,48,64
33960,note_on,0,0,2,,,,,,,,,,,,,,,1,,,62,64
34020,note_on,0,0,2,,,,,,,,,,,,,,,1,,,63,64
34020,note_on,60,0,2,,,,,,,,,,,,,,,1,,,62,0
34080,note_on,0,0,2,,,,,,,,,,,,,,,1,,,62,64
34080,note_on,60,0,2,,,,,,,,,,,,,,,1,,,63,0
34200,note_on,120,0,2,,,,,,,,,,,,,,,1,,,48,0
34200,note_on,0,0,2,,,,,,,,,,,,,,,1,,,46,64
34260,note_on,0,0,2,,,,,,,,,,,,,,,1,,,63,64
34260,note_on,60,0,2,,,,,,,,,,,,,,,1,,,62,0
34320,note_on,0,0,2,,,,,,,,,,,,,,,1,,,62,64
34320,note_on,0,0,2,,,,,,,,,,,,,,,1,,,42,64
34320,note_on,0,0,2,,,,,,,,,,,,,,,1,,,46,0
34320,note_on,60,0,2,,,,,,,,,,,,,,,1,,,63,0
34380,note_on,0,0,2,,,,,,,,,,,,,,,1,,,60,64
34380,note_on,60,0,2,,,,,,,,,,,,,,,1,,,62,0
34440,note_on,0,0,2,,,,,,,,,,,,,,,1,,,58,64
34440,note_on,60,0,2,,,,,,,,,,,,,,,1,,,60,0
34500,note_on,0,0,2,,,,,,,,,,,,,,,1,,,57,64
34500,note_on,60,0,2,,,,,,,,,,,,,,,1,,,58,0
34560,note_on,0,0,2,,,,,,,,,,,,,,,1,,,43,64
34560,note_on,0,0,2,,,,,,,,,,,,,,,1,,,58,64
34560,note_on,60,0,2,,,,,,,,,,,,,,,1,,,57,0
34560,note_on,0,0,2,,,,,,,,,,,,,,,1,,,42,0
34620,note_on,0,0,2,,,,,,,,,,,,,,,1,,,57,64
34620,note_on,60,0,2,,,,,,,,,,,,,,,1,,,58,0
34680,note_on,60,0,2,,,,,,,,,,,,,,,1,,,57,0
34680,note_on,0,0,2,,,,,,,,,,,,,,,1,,,43,0
34680,note_on,0,0,2,,,,,,,,,,,,,,,1,,,58,64
34680,note_on,0,0,2,,,,,,,,,,,,,,,1,,,46,64
34740,note_on,0,0,2,,,,,,,,,,,,,,,1,,,60,64
34740,note_on,60,0,2,,,,,,,,,,,,,,,1,,,58,0
34800,note_on,60,0,2,,,,,,,,,,,,,,,1,,,60,0
34800,note_on,0,0,2,,,,,,,,,,,,,,,1,,,57,64
34800,note_on,0,0,2,,,,,,,,,,,,,,,1,,,48,64
34800,note_on,0,0,2,,,,,,,,,,,,,,,1,,,46,0
34830,note_on,0,0,2,,,,,,,,,,,,,,,1,,,58,64
34830,note_on,30,0,2,,,,,,,,,,,,,,,1,,,57,0
34860,note_on,0,0,2,,,,,,,,,,,,,,,1,,,57,64
34860,note_on,30,0,2,,,,,,,,,,,,,,,1,,,58,0
34920,note_on,60,0,2,,,,,,,,,,,,,,,1,,,48,0
34920,note_on,0,0,2,,,,,,,,,,,,,,,1,,,50,64
34980,note_on,60,0,2,,,,,,,,,,,,,,,1,,,57,0
34980,note_on,0,0,2,,,,,,,,,,,,,,,1,,,55,64
35040,note_on,60,0,2,,,,,,,,,,,,,,,1,,,55,0
35040,note_on,0,0,2,,,,,,,,,,,,,,,1,,,55,64
35040,note_on,0,0,2,,,,,,,,,,,,,,,1,,,50,0
35040,note_on,0,0,2,,,,,,,,,,,,,,,1,,,47,64
35100,note_on,0,0,2,,,,,,,,,,,,,,,1,,,53,64
35100,note_on,60,0,2,,,,,,,,,,,,,,,1,,,55,0
35160,note_on,0,0,2,,,,,,,,,,,,,,,1,,,51,64
35160,note_on,0,0,2,,,,,,,,,,,,,,,1,,,48,64
35160,note_on,0,0,2,,,,,,,,,,,,,,,1,,,47,0
35160,note_on,60,0,2,,,,,,,,,,,,,,,1,,,53,0
35220,note_on,0,0,2,,,,,,,,,,,,,,,1,,,53,64
35220,note_on,60,0,2,,,,,,,,,,,,,,,1,,,51,0
35280,note_on,0,0,2,,,,,,,,,,,,,,,1,,,41,64
35280,note_on,0,0,2,,,,,,,,,,,,,,,1,,,48,0
35280,note_on,60,0,2,,,,,,,,,,,,,,,1,,,53,0
35280,note_on,0,0,2,,,,,,,,,,,,,,,1,,,50,64
35310,note_on,30,0,2,,,,,,,,,,,,,,,1,,,50,0
35310,note_on,0,0,2,,,,,,,,,,,,,,,1,,,51,64
35340,note_on,30,0,2,,,,,,,,,,,,,,,1,,,51,0
35340,note_on,0,0,2,,,,,,,,,,,,,,,1,,,50,64
35400,note_on,60,0,2,,,,,,,,,,,,,,,1,,,41,0
35400,note_on,0,0,2,,,,,,,,,,,,,,,1,,,43,64
35460,note_on,60,0,2,,,,,,,,,,,,,,,1,,,50,0
35460,note_on,0,0,2,,,,,,,,,,,,,,,1,,,48,64
35520,note_on,60,0,2,,,,,,,,,,,,,,,1,,,48,0
35520,note_on,0,0,2,,,,,,,,,,,,,,,1,,,43,0
35520,note_on,8160,0,1,,,,,,,,,,,,,,,0,,,60,80
35520,note_on,0,0,2,,,,,,,,,,,,,,,1,,,48,64
35520,note_on,0,0,2,,,,,,,,,,,,,,,1,,,44,64
35580,note_on,60,0,1,,,,,,,,,,,,,,,0,,,60,0
35580,note_on,0,0,1,,,,,,,,,,,,,,,0,,,63,80
35640,note_on,0,0,1,,,,,,,,,,,,,,,0,,,62,80
35640,note_on,60,0,1,,,,,,,,,,,,,,,0,,,63,0
35700,note_on,0,0,1,,,,,,,,,,,,,,,0,,,63,80
35700,note_on,60,0,1,,,,,,,,,,,,,,,0,,,62,0
35760,note_on,60,0,1,,,,,,,,,,,,,,,0,,,63,0
35760,note_on,0,0,1,,,,,,,,,,,,,,,0,,,60,80
35760,note_on,0,0,2,,,,,,,,,,,,,,,1,,,39,64
35760,note_on,0,0,2,,,,,,,,,,,,,,,1,,,48,0
35760,note_on,240,0,2,,,,,,,,,,,,,,,1,,,44,0
35856,note_on,96,0,1,,,,,,,,,,,,,,,0,,,60,0
35880,note_on,120,0,2,,,,,,,,,,,,,,,1,,,39,0
35880,note_on,0,0,2,,,,,,,,,,,,,,,1,,,36,64
35880,note_on,24,0,1,,,,,,,,,,,,,,,0,,,63,80
35976,note_on,96,0,1,,,,,,,,,,,,,,,0,,,63,0
36000,note_on,120,0,2,,,,,,,,,,,,,,,1,,,36,0
36000,note_on,0,0,2,,,,,,,,,,,,,,,1,,,43,64
36000,note_on,24,0,1,,,,,,,,,,,,,,,0,,,62,80
36120,note_on,120,0,2,,,,,,,,,,,,,,,1,,,43,0
36120,note_on,0,0,2,,,,,,,,,,,,,,,1,,,43,64
36180,note_on,60,0,2,,,,,,,,,,,,,,,1,,,43,0
36180,note_on,0,0,2,,,,,,,,,,,,,,,1,,,45,64
36240,note_on,240,0,1,,,,,,,,,,,,,,,0,,,62,0
36240,note_on,0,0,1,,,,,,,,,,,,,,,0,,,55,80
36240,note_on,60,0,2,,,,,,,,,,,,,,,1,,,45,0
36240,note_on,0,0,2,,,,,,,,,,,,,,,1,,,47,64
36360,note_on,0,0,2,,,,,,,,,,,,,,,1,,,45,64
36360,note_on,120,0,2,,,,,,,,,,,,,,,1,,,47,0
36420,note_on,0,0,2,,,,,,,,,,,,,,,1,,,47,64
36420,note_on,60,0,2,,,,,,,,,,,,,,,1,,,45,0
36432,note_on,192,0,1,,,,,,,,,,,,,,,0,,,55,0
36480,note_on,48,0,1,,,,,,,,,,,,,,,0,,,60,80
36480,note_on,0,0,2,,,,,,,,,,,,,,,1,,,48,64
36480,note_on,60,0,2,,,,,,,,,,,,,,,1,,,47,0
36540,note_on,0,0,1,,,,,,,,,,,,,,,0,,,63,80
36540,note_on,60,0,1,,,,,,,,,,,,,,,0,,,60,0
36600,note_on,120,0,2,,,,,,,,,,,,,,,1,,,48,0
36600,note_on,0,0,1,,,,,,,,,,,,,,,0,,,62,80
36600,note_on,60,0,1,,,,,,,,,,,,,,,0,,,63,0
36600,note_on,0,0,2,,,,,,,,,,,,,,,1,,,39,64
36660,note_on,0,0,1,,,,,,,,,,,,,,,0,,,63,80
36660,note_on,60,0,1,,,,,,,,,,,,,,,0,,,62,0
36720,note_on,0,0,2,,,,,,,,,,,,,,,1,,,41,64
36720,note_on,120,0,2,,,,,,,,,,,,,,,1,,,39,0
36720,note_on,60,0,1,,,,,,,,,,,,,,,0,,,63,0
36720,note_on,0,0,1,,,,,,,,,,,,,,,0,,,62,80
36780,note_on,60,0,1,,,,,,,,,,,,,,,0,,,62,0
36780,note_on,0,0,1,,,,,,,,,,,,,,,0,,,65,80
36840,note_on,0,0,1,,,,,,,,,,,,,,,0,,,63,80
36840,note_on,60,0,1,,,,,,,,,,,,,,,0,,,65,0
36840,note_on,0,0,2,,,,,,,,,,,,,,,1,,,43,64
36840,note_on,120,0,2,,,,,,,,,,,,,,,1,,,41,0
36900,note_on,0,0,1,,,,,,,,,,,,,,,0,,,65,80
36900,note_on,60,0,1,,,,,,,,,,,,,,,0,,,63,0
36960,note_on,0,0,1,,,,,,,,,,,,,,,0,,,63,80
36960,note_on,60,0,1,,,,,,,,,,,,,,,0,,,65,0
36960,note_on,120,0,2,,,,,,,,,,,,,,,1,,,43,0
36960,note_on,0,0,2,,,,,,,,,,,,,,,1,,,36,64
37080,note_on,120,0,2,,,,,,,,,,,,,,,1,,,36,0
37080,note_on,0,0,2,,,,,,,,,,,,,,,1,,,48,64
37140,note_on,0,0,2,,,,,,,,,,,,,,,1,,,50,64
37140,note_on,60,0,2,,,,,,,,,,,,,,,1,,,48,0
37200,note_on,0,0,1,,,,,,,,,,,,,,,0,,,60,80
37200,note_on,240,0,1,,,,,,,,,,,,,,,0,,,63,0
37200,note_on,0,0,2,,,,,,,,,,,,,,,1,,,51,64
37200,note_on,60,0,2,,,,,,,,,,,,,,,1,,,50,0
37320,note_on,0,0,2,,,,,,,,,,,,,,,1,,,50,64
37320,note_on,120,0,2,,,,,,,,,,,,,,,1,,,51,0
37380,note_on,0,0,2,,,,,,,,,,,,,,,1,,,51,64
37380,note_on,60,0,2,,,,,,,,,,,,,,,1,,,50,0
37392,note_on,192,0,1,,,,,,,,,,,,,,,0,,,60,0
37440,note_on,60,0,2,,,,,,,,,,,,,,,1,,,51,0
37440,note_on,48,0,1,,,,,,,,,,,,,,,0,,,63,80
37440,note_on,0,0,2,,,,,,,,,,,,,,,1,,,48,64
37500,note_on,0,0,1,,,,,,,,,,,,,,,0,,,67,80
37500,note_on,60,0,1,,,,,,,,,,,,,,,0,,,63,0
37560,note_on,60,0,1,,,,,,,,,,,,,,,0,,,67,0
37560,note_on,0,0,1,,,,,,,,,,,,,,,0,,,65,80
37560,note_on,120,0,2,,,,,,,,,,,,,,,1,,,48,0
37560,note_on,0,0,2,,,,,,,,,,,,,,,1,,,48,64
37560,note_on,0,0,2,,,,,,,,,,,,,,,1,,,60,64
37620,note_on,60,0,1,,,,,,,,,,,,,,,0,,,65,0
37620,note_on,0,0,1,,,,,,,,,,,,,,,0,,,67,80
37680,note_on,0,0,2,,,,,,,,,,,,,,,1,,,53,64
37680,note_on,0,0,2,,,,,,,,,,,,,,,1,,,60,0
37680,note_on,120,0,2,,,,,,,,,,,,,,,1,,,48,0
37680,note_on,0,0,2,,,,,,,,,,,,,,,1,,,56,64
37680,note_on,0,0,1,,,,,,,,,,,,,,,0,,,65,80
37680,note_on,60,0,1,,,,,,,,,,,,,,,0,,,67,0
37740,note_on,60,0,1,,,,,,,,,,,,,,,0,,,65,0
37740,note_on,0,0,1,,,,,,,,,,,,,,,0,,,68,80
37800,note_on,60,0,1,,,,,,,,,,,,,,,0,,,68,0
37800,note_on,0,0,1,,,,,,,,,,,,,,,0,,,67,80
37800,note_on,120,0,2,,,,,,,,,,,,,,,1,,,53,0
37800,note_on,0,0,2,,,,,,,,,,,,,,,1,,,56,0
37800,note_on,0,0,2,,,,,,,,,,,,,,,1,,,53,64
37800,note_on,0,0,2,,,,,,,,,,,,,,,1,,,50,64
37860,note_on,60,0,1,,,,,,,,,,,,,,,0,,,67,0
37860,note_on,0,0,1,,,,,,,,,,,,,,,0,,,68,80
37920,note_on,60,0,1,,,,,,,,,,,,,,,0,,,68,0
37920,note_on,120,0,2,,,,,,,,,,,,,,,1,,,50,0
37920,note_on,0,0,2,,,,,,,,,,,,,,,1,,,55,64
37920,note_on,0,0,2,,,,,,,,,,,,,,,1,,,53,0
37920,note_on,0,0,2,,,,,,,,,,,,,,,1,,,47,64
37920,note_on,0,0,1,,,,,,,,,,,,,,,0,,,67,80
38040,note_on,120,0,2,,,,,,,,,,,,,,,1,,,47,0
38040,note_on,0,0,2,,,,,,,,,,,,,,,1,,,55,0
38040,note_on,0,0,2,,,,,,,,,,,,,,,1,,,51,64
38040,note_on,0,0,2,,,,,,,,,,,,,,,1,,,48,64
38100,note_on,180,0,1,,,,,,,,,,,,,,,0,,,67,0
38100,note_on,0,0,1,,,,,,,,,,,,,,,0,,,68,80
38160,note_on,0,0,2,,,,,,,,,,,,,,,1,,,50,64
38160,note_on,0,0,2,,,,,,,,,,,,,,,1,,,51,0
38160,note_on,120,0,2,,,,,,,,,,,,,,,1,,,48,0
38160,note_on,0,0,2,,,,,,,,,,,,,,,1,,,47,64
38160,note_on,60,0,1,,,,,,,,,,,,,,,0,,,68,0
38160,note_on,0,0,1,,,,,,,,,,,,,,,0,,,67,80
38220,note_on,0,0,1,,,,,,,,,,,,,,,0,,,65,80
38220,note_on,60,0,1,,,,,,,,,,,,,,,0,,,67,0
38280,note_on,60,0,1,,,,,,,,,,,,,,,0,,,65,0
38280,note_on,0,0,2,,,,,,,,,,,,,,,1,,,50,0
38280,note_on,120,0,2,,,,,,,,,,,,,,,1,,,47,0
38280,note_on,0,0,2,,,,,,,,,,,,,,,1,,,55,64
38280,note_on,0,0,1,,,,,,,,,,,,,,,0,,,63,80
38340,note_on,0,0,1,,,,,,,,,,,,,,,0,,,62,80
38340,note_on,60,0,1,,,,,,,,,,,,,,,0,,,63,0
38400,note_on,0,0,1,,,,,,,,,,,,,,,0,,,63,80
38400,note_on,60,0,1,,,,,,,,,,,,,,,0,,,62,0
38400,note_on,120,0,2,,,,,,,,,,,,,,,1,,,55,0
38400,note_on,0,0,2,,,,,,,,,,,,,,,1,,,48,64
38460,note_on,60,0,1,,,,,,,,,,,,,,,0,,,63,0
38460,note_on,0,0,1,,,,,,,,,,,,,,,0,,,62,80
38520,note_on,60,0,1,,,,,,,,,,,,,,,0,,,62,0
38520,note_on,0,0,1,,,,,,,,,,,,,,,0,,,63,80
38520,note_on,120,0,2,,,,,,,,,,,,,,,1,,,55,64
38580,note_on,60,0,1,,,,,,,,,,,,,,,0,,,63,0
38580,note_on,0,0,1,,,,,,,,,,,,,,,0,,,65,80
38640,note_on,60,0,1,,,,,,,,,,,,,,,0,,,65,0
38640,note_on,120,0,2,,,,,,,,,,,,,,,1,,,55,0
38640,note_on,0,0,1,,,,,,,,,,,,,,,0,,,62,80
38640,note_on,0,0,2,,,,,,,,,,,,,,,1,,,54,64
38670,note_on,0,0,1,,,,,,,,,,,,,,,0,,,63,80
38670,note_on,30,0,1,,,,,,,,,,,,,,,0,,,62,0
38700,note_on,0,0,1,,,,,,,,,,,,,,,0,,,62,80
38700,note_on,30,0,1,,,,,,,,,,,,,,,0,,,63,0
38760,note_on,120,0,2,,,,,,,,,,,,,,,1,,,54,0
38760,note_on,0,0,2,,,,,,,,,,,,,,,1,,,48,0
38760,note_on,0,0,2,,,,,,,,,,,,,,,1,,,55,64
38760,note_on,0,0,2,,,,,,,,,,,,,,,1,,,46,64
38820,note_on,0,0,1,,,,,,,,,,,,,,,0,,,60,80
38820,note_on,120,0,1,,,,,,,,,,,,,,,0,,,62,0
38880,note_on,60,0,1,,,,,,,,,,,,,,,0,,,60,0
38880,note_on,0,0,1,,,,,,,,,,,,,,,0,,,60,80
38880,note_on,120,0,2,,,,,,,,,,,,,,,1,,,46,0
38880,note_on,0,0,2,,,,,,,,,,,,,,,1,,,45,64
38880,note_on,0,0,2,,,,,,,,,,,,,,,1,,,54,64
38880,note_on,0,0,2,,,,,,,,,,,,,,,1,,,55,0
39000,note_on,0,0,1,,,,,,,,,,,,,,,0,,,58,80
39000,note_on,0,0,2,,,,,,,,,,,,,,,1,,,43,64
39000,note_on,0,0,2,,,,,,,,,,,,,,,1,,,55,64
39000,note_on,0,0,2,,,,,,,,,,,,,,,1,,,54,0
39000,note_on,120,0,2,,,,,,,,,,,,,,,1,,,45,0
39000,note_on,120,0,1,,,,,,,,,,,,,,,0,,,60,0
39060,note_on,60,0,1,,,,,,,,,,,,,,,0,,,58,0
39060,note_on,0,0,1,,,,,,,,,,,,,,,0,,,60,80
39120,note_on,60,0,1,,,,,,,,,,,,,,,0,,,60,0
39120,note_on,0,0,1,,,,,,,,,,,,,,,0,,,57,80
39120,note_on,0,0,2,,,,,,,,,,,,,,,1,,,48,64
39120,note_on,120,0,2,,,,,,,,,,,,,,,1,,,43,0
39150,note_on,0,0,1,,,,,,,,,,,,,,,0,,,58,80
39150,note_on,30,0,1,,,,,,,,,,,,,,,0,,,57,0
39180,note_on,0,0,1,,,,,,,,,,,,,,,0,,,57,80
39180,note_on,30,0,1,,,,,,,,,,,,,,,0,,,58,0
39240,note_on,0,0,2,,,,,,,,,,,,,,,1,,,54,64
39240,note_on,0,0,2,,,,,,,,,,,,,,,1,,,55,0
39240,note_on,120,0,2,,,,,,,,,,,,,,,1,,,48,0
39240,note_on,0,0,2,,,,,,,,,,,,,,,1,,,50,64
39300,note_on,0,0,1,,,,,,,,,,,,,,,0,,,55,80
39300,note_on,120,0,1,,,,,,,,,,,,,,,0,,,57,0
39360,note_on,0,0,2,,,,,,,,,,,,,,,1,,,43,64
39360,note_on,120,0,2,,,,,,,,,,,,,,,1,,,50,0
39360,note_on,0,0,2,,,,,,,,,,,,,,,1,,,54,0
39360,note_on,0,0,2,,,,,,,,,,,,,,,1,,,55,64
39360,note_on,60,0,1,,,,,,,,,,,,,,,0,,,55,0
39360,note_on,0,0,1,,,,,,,,,,,,,,,0,,,67,90
39420,note_on,60,0,1,,,,,,,,,,,,,,,0,,,67,0
39420,note_on,0,0,1,,,,,,,,,,,,,,,0,,,70,90
39480,note_on,60,0,1,,,,,,,,,,,,,,,0,,,70,0
39480,note_on,0,0,1,,,,,,,,,,,,,,,0,,,69,90
39540,note_on,60,0,1,,,,,,,,,,,,,,,0,,,69,0
39540,note_on,0,0,1,,,,,,,,,,,,,,,0,,,70,90
39600,note_on,0,0,2,,,,,,,,,,,,,,,1,,,43,0
39600,note_on,0,0,1,,,,,,,,,,,,,,,0,,,67,90
39600,note_on,240,0,2,,,,,,,,,,,,,,,1,,,55,0
39600,note_on,60,0,1,,,,,,,,,,,,,,,0,,,70,0
39696,note_on,96,0,1,,,,,,,,,,,,,,,0,,,67,0
39720,note_on,24,0,1,,,,,,,,,,,,,,,0,,,70,90
39816,note_on,96,0,1,,,,,,,,,,,,,,,0,,,70,0
39840,note_on,24,0,1,,,,,,,,,,,,,,,0,,,69,90
39960,note_on,360,0,2,,,,,,,,,,,,,,,1,,,50,64
40020,note_on,0,0,2,,,,,,,,,,,,,,,1,,,52,64
40020,note_on,60,0,2,,,,,,,,,,,,,,,1,,,50,0
40080,note_on,240,0,1,,,,,,,,,,,,,,,0,,,69,0
40080,note_on,0,0,1,,,,,,,,,,,,,,,0,,,62,90
40080,note_on,60,0,2,,,,,,,,,,,,,,,1,,,52,0
40080,note_on,0,0,2,,,,,,,,,,,,,,,1,,,54,64
40200,note_on,0,0,2,,,,,,,,,,,,,,,1,,,52,64
40200,note_on,120,0,2,,,,,,,,,,,,,,,1,,,54,0
40260,note_on,0,0,2,,,,,,,,,,,,,,,1,,,54,64
40260,note_on,60,0,2,,,,,,,,,,,,,,,1,,,52,0
40272,note_on,192,0,1,,,,,,,,,,,,,,,0,,,62,0
40320,note_on,0,0,2,,,,,,,,,,,,,,,1,,,55,64
40320,note_on,60,0,2,,,,,,,,,,,,,,,1,,,54,0
40320,note_on,48,0,1,,,,,,,,,,,,,,,0,,,67,90
40380,note_on,0,0,1,,,,,,,,,,,,,,,0,,,70,90
40380,note_on,60,0,1,,,,,,,,,,,,,,,0,,,67,0
40440,note_on,120,0,2,,,,,,,,,,,,,,,1,,,55,0
40440,note_on,60,0,1,,,,,,,,,,,,,,,0,,,70,0
40440,note_on,0,0,1,,,,,,,,,,,,,,,0,,,69,90
40440,note_on,0,0,2,,,,,,,,,,,,,,,1,,,63,64
40500,note_on,60,0,1,,,,,,,,,,,,,,,0,,,69,0
40500,note_on,0,0,1,,,,,,,,,,,,,,,0,,,70,90
40560,note_on,60,0,1,,,,,,,,,,,,,,,0,,,70,0
40560,note_on,0,0,1,,,,,,,,,,,,,,,0,,,69,90
40560,note_on,120,0,2,,,,,,,,,,,,,,,1,,,63,0
40560,note_on,0,0,2,,,,,,,,,,,,,,,1,,,60,64
40620,note_on,60,0,1,,,,,,,,,,,,,,,0,,,69,0
40620,note_on,0,0,1,,,,,,,,,,,,,,,0,,,72,90
40680,note_on,60,0,1,,,,,,,,,,,,,,,0,,,72,0
40680,note_on,0,0,1,,,,,,,,,,,,,,,0,,,70,90
40680,note_on,120,0,2,,,,,,,,,,,,,,,1,,,60,0
40680,note_on,0,0,2,,,,,,,,,,,,,,,1,,,62,64
40740,note_on,60,0,1,,,,,,,,,,,,,,,0,,,70,0
40740,note_on,0,0,1,,,,,,,,,,,,,,,0,,,72,90
40800,note_on,60,0,1,,,,,,,,,,,,,,,0,,,72,0
40800,note_on,0,0,2,,,,,,,,,,,,,,,1,,,55,64
40800,note_on,0,0,1,,,,,,,,,,,,,,,0,,,70,90
40800,note_on,120,0,2,,,,,,,,,,,,,,,1,,,62,0
40920,note_on,120,0,2,,,,,,,,,,,,,,,1,,,55,0
40920,note_on,0,0,2,,,,,,,,,,,,,,,1,,,55,64
40980,note_on,60,0,2,,,,,,,,,,,,,,,1,,,55,0
40980,note_on,0,0,2,,,,,,,,,,,,,,,1,,,57,64
41040,note_on,0,0,1,,,,,,,,,,,,,,,0,,,67,90
41040,note_on,240,0,1,,,,,,,,,,,,,,,0,,,70,0
41040,note_on,0,0,2,,,,,,,,,,,,,,,1,,,58,64
41040,note_on,60,0,2,,,,,,,,,,,,,,,1,,,57,0
41160,note_on,120,0,2,,,,,,,,,,,,,,,1,,,58,0
41160,note_on,0,0,2,,,,,,,,,,,,,,,1,,,57,64
41220,note_on,60,0,2,,,,,,,,,,,,,,,1,,,57,0
41220,note_on,0,0,2,,,,,,,,,,,,,,,1,,,58,64
41232,note_on,192,0,1,,,,,,,,,,,,,,,0,,,67,0
41280,note_on,60,0,2,,,,,,,,,,,,,,,1,,,58,0
41280,note_on,0,0,2,,,,,,,,,,,,,,,1,,,55,64
41280,note_on,48,0,1,,,,,,,,,,,,,,,0,,,70,90
41340,note_on,0,0,1,,,,,,,,,,,,,,,0,,,74,90
41340,note_on,60,0,1,,,,,,,,,,,,,,,0,,,70,0
41400,note_on,120,0,2,,,,,,,,,,,,,,,1,,,55,0
41400,note_on,60,0,1,,,,,,,,,,,,,,,0,,,74,0
41400,note_on,0,0,2,,,,,,,,,,,,,,,1,,,67,64
41400,note_on,0,0,1,,,,,,,,,,,,,,,0,,,72,90
41460,note_on,0,0,1,,,,,,,,,,,,,,,0,,,74,90
41460,note_on,60,0,1,,,,,,,,,,,,,,,0,,,72,0
41520,note_on,120,0,2,,,,,,,,,,,,,,,1,,,67,0
41520,note_on,0,0,2,,,,,,,,,,,,,,,1,,,63,64
41520,note_on,0,0,1,,,,,,,,,,,,,,,0,,,72,90
41520,note_on,60,0,1,,,,,,,,,,,,,,,0,,,74,0
41580,note_on,60,0,1,,,,,,,,,,,,,,,0,,,72,0
41580,note_on,0,0,1,,,,,,,,,,,,,,,0,,,75,90
41640,note_on,0,0,1,,,,,,,,,,,,,,,0,,,74,90
41640,note_on,60,0,1,,,,,,,,,,,,,,,0,,,75,0
41640,note_on,120,0,2,,,,,,,,,,,,,,,1,,,63,0
41640,note_on,0,0,2,,,,,,,,,,,,,,,1,,,60,64
41700,note_on,60,0,1,,,,,,,,,,,,,,,0,,,74,0
41700,note_on,0,0,1,,,,,,,,,,,,,,,0,,,75,90
41760,note_on,60,0,1,,,,,,,,,,,,,,,0,,,75,0
41760,note_on,0,0,2,,,,,,,,,,,,,,,1,,,54,64
41760,note_on,120,0,2,,,,,,,,,,,,,,,1,,,60,0
41760,note_on,0,0,1,,,,,,,,,,,,,,,0,,,74,90
41880,note_on,120,0,2,,,,,,,,,,,,,,,1,,,54,0
41880,note_on,0,0,2,,,,,,,,,,,,,,,1,,,62,64
41940,note_on,180,0,1,,,,,,,,,,,,,,,0,,,74,0
41940,note_on,0,0,1,,,,,,,,,,,,,,,0,,,75,90
42000,note_on,0,0,1,,,,,,,,,,,,,,,0,,,74,90
42000,note_on,0,0,2,,,,,,,,,,,,,,,1,,,64,64
42000,note_on,120,0,2,,,,,,,,,,,,,,,1,,,62,0
42000,note_on,60,0,1,,,,,,,,,,,,,,,0,,,75,0
42060,note_on,60,0,1,,,,,,,,,,,,,,,0,,,74,0
42060,note_on,0,0,1,,,,,,,,,,,,,,,0,,,72,90
42120,note_on,120,0,2,,,,,,,,,,,,,,,1,,,64,0
42120,note_on,0,0,2,,,,,,,,,,,,,,,1,,,66,64
42120,note_on,0,0,1,,,,,,,,,,,,,,,0,,,70,90
42120,note_on,60,0,1,,,,,,,,,,,,,,,0,,,72,0
42180,note_on,0,0,1,,,,,,,,,,,,,,,0,,,69,90
42180,note_on,60,0,1,,,,,,,,,,,,,,,0,,,70,0
42240,note_on,0,0,1,,,,,,,,,,,,,,,0,,,70,90
42240,note_on,60,0,1,,,,,,,,,,,,,,,0,,,69,0
42240,note_on,120,0,2,,,,,,,,,,,,,,,1,,,66,0
42240,note_on,0,0,2,,,,,,,,,,,,,,,1,,,67,64
42300,note_on,0,0,1,,,,,,,,,,,,,,,0,,,69,90
42300,note_on,60,0,1,,,,,,,,,,,,,,,0,,,70,0
42360,note_on,60,0,1,,,,,,,,,,,,,,,0,,,69,0
42360,note_on,0,0,1,,,,,,,,,,,,,,,0,,,70,90
42420,note_on,0,0,1,,,,,,,,,,,,,,,0,,,72,90
42420,note_on,60,0,1,,,,,,,,,,,,,,,0,,,70,0
42480,note_on,0,0,1,,,,,,,,,,,,,,,0,,,69,90
42480,note_on,60,0,1,,,,,,,,,,,,,,,0,,,72,0
42540,note_on,300,0,2,,,,,,,,,,,,,,,1,,,67,0
42540,note_on,0,0,2,,,,,,,,,,,,,,,1,,,60,64
42600,note_on,60,0,2,,,,,,,,,,,,,,,1,,,60,0
42600,note_on,0,0,1,,,,,,,,,,,,,,,0,,,71,90
42600,note_on,120,0,1,,,,,,,,,,,,,,,0,,,69,0
42600,note_on,0,0,2,,,,,,,,,,,,,,,1,,,65,64
42660,note_on,60,0,1,,,,,,,,,,,,,,,0,,,71,0
42660,note_on,0,0,1,,,,,,,,,,,,,,,0,,,72,90
42720,note_on,0,0,1,,,,,,,,,,,,,,,0,,,71,90
42720,note_on,60,0,1,,,,,,,,,,,,,,,0,,,72,0
42780,note_on,60,0,1,,,,,,,,,,,,,,,0,,,71,0
42780,note_on,0,0,1,,,,,,,,,,,,,,,0,,,67,90
42840,note_on,60,0,1,,,,,,,,,,,,,,,0,,,67,0
42840,note_on,0,0,1,,,,,,,,,,,,,,,0,,,72,90
42840,note_on,240,0,2,,,,,,,,,,,,,,,1,,,65,0
42840,note_on,0,0,2,,,,,,,,,,,,,,,1,,,63,64
42900,note_on,0,0,2,,,,,,,,,,,,,,,1,,,65,64
42900,note_on,60,0,2,,,,,,,,,,,,,,,1,,,63,0
42900,note_on,60,0,1,,,,,,,,,,,,,,,0,,,72,0
42900,note_on,0,0,1,,,,,,,,,,,,,,,0,,,74,90
42960,note_on,0,0,1,,,,,,,,,,,,,,,0,,,71,90
42960,note_on,60,0,2,,,,,,,,,,,,,,,1,,,65,0
42960,note_on,60,0,1,,,,,,,,,,,,,,,0,,,74,0
42960,note_on,0,0,2,,,,,,,,,,,,,,,1,,,62,64
42990,note_on,30,0,1,,,,,,,,,,,,,,,0,,,71,0
42990,note_on,0,0,1,,,,,,,,,,,,,,,0,,,72,90
43020,note_on,0,0,2,,,,,,,,,,,,,,,1,,,68,64
43020,note_on,60,0,2,,,,,,,,,,,,,,,1,,,62,0
43020,note_on,0,0,1,,,,,,,,,,,,,,,0,,,71,90
43020,note_on,30,0,1,,,,,,,,,,,,,,,0,,,72,0
43080,note_on,0,0,2,,,,,,,,,,,,,,,1,,,67,64
43080,note_on,60,0,2,,,,,,,,,,,,,,,1,,,68,0
43140,note_on,0,0,2,,,,,,,,,,,,,,,1,,,65,64
43140,note_on,0,0,1,,,,,,,,,,,,,,,0,,,72,90
43140,note_on,120,0,1,,,,,,,,,,,,,,,0,,,71,0
43140,note_on,60,0,2,,,,,,,,,,,,,,,1,,,67,0
43200,note_on,0,0,1,,,,,,,,,,,,,,,0,,,72,90
43200,note_on,0,0,2,,,,,,,,,,,,,,,1,,,63,64
43200,note_on,60,0,1,,,,,,,,,,,,,,,0,,,72,0
43200,note_on,60,0,2,,,,,,,,,,,,,,,1,,,65,0
43260,note_on,60,0,1,,,,,,,,,,,,,,,0,,,72,0
43260,note_on,0,0,2,,,,,,,,,,,,,,,1,,,67,64
43260,note_on,60,0,2,,,,,,,,,,,,,,,1,,,63,0
43260,note_on,0,0,1,,,,,,,,,,,,,,,0,,,75,90
43320,note_on,60,0,1,,,,,,,,,,,,,,,0,,,75,0
43320,note_on,0,0,2,,,,,,,,,,,,,,,1,,,65,64
43320,note_on,0,0,1,,,,,,,,,,,,,,,0,,,74,90
43320,note_on,60,0,2,,,,,,,,,,,,,,,1,,,67,0
43380,note_on,60,0,2,,,,,,,,,,,,,,,1,,,65,0
43380,note_on,0,0,2,,,,,,,,,,,,,,,1,,,67,64
43380,note_on,60,0,1,,,,,,,,,,,,,,,0,,,74,0
43380,note_on,0,0,1,,,,,,,,,,,,,,,0,,,75,90
43440,note_on,60,0,1,,,,,,,,,,,,,,,0,,,75,0
43440,note_on,0,0,1,,,,,,,,,,,,,,,0,,,72,90
43440,note_on,0,0,2,,,,,,,,,,,,,,,1,,,63,64
43440,note_on,60,0,2,,,,,,,,,,,,,,,1,,,67,0
43500,note_on,60,0,2,,,,,,,,,,,,,,,1,,,63,0
43500,note_on,0,0,2,,,,,,,,,,,,,,,1,,,62,64
43536,note_on,96,0,1,,,,,,,,,,,,,,,0,,,72,0
43560,note_on,60,0,2,,,,,,,,,,,,,,,1,,,62,0
43560,note_on,0,0,2,,,,,,,,,,,,,,,1,,,60,64
43560,note_on,24,0,1,,,,,,,,,,,,,,,0,,,75,90
43656,note_on,96,0,1,,,,,,,,,,,,,,,0,,,75,0
43680,note_on,24,0,1,,,,,,,,,,,,,,,0,,,74,90
43800,note_on,0,0,2,,,,,,,,,,,,,,,1,,,59,64
43800,note_on,240,0,2,,,,,,,,,,,,,,,1,,,60,0
43860,note_on,0,0,2,,,,,,,,,,,,,,,1,,,57,64
43860,note_on,60,0,2,,,,,,,,,,,,,,,1,,,59,0
43920,note_on,60,0,2,,,,,,,,,,,,,,,1,,,57,0
43920,note_on,0,0,2,,,,,,,,,,,,,,,1,,,59,64
43920,note_on,240,0,1,,,,,,,,,,,,,,,0,,,74,0
43920,note_on,0,0,1,,,,,,,,,,,,,,,0,,,67,90
44040,note_on,120,0,2,,,,,,,,,,,,,,,1,,,55,64
44100,note_on,60,0,2,,,,,,,,,,,,,,,1,,,55,0
44100,note_on,0,0,2,,,,,,,,,,,,,,,1,,,53,64
44112,note_on,192,0,1,,,,,,,,,,,,,,,0,,,67,0
44160,note_on,60,0,2,,,,,,,,,,,,,,,1,,,53,0
44160,note_on,0,0,2,,,,,,,,,,,,,,,1,,,59,0
44160,note_on,0,0,2,,,,,,,,,,,,,,,1,,,51,64
44160,note_on,0,0,2,,,,,,,,,,,,,,,1,,,55,64
44160,note_on,48,0,1,,,,,,,,,,,,,,,0,,,72,90
44220,note_on,0,0,1,,,,,,,,,,,,,,,0,,,75,90
44220,note_on,60,0,1,,,,,,,,,,,,,,,0,,,72,0
44280,note_on,60,0,1,,,,,,,,,,,,,,,0,,,75,0
44280,note_on,0,0,2,,,,,,,,,,,,,,,1,,,60,64
44280,note_on,0,0,1,,,,,,,,,,,,,,,0,,,74,90
44280,note_on,120,0,2,,,,,,,,,,,,,,,1,,,55,0
44340,note_on,60,0,1,,,,,,,,,,,,,,,0,,,74,0
44340,note_on,0,0,1,,,,,,,,,,,,,,,0,,,75,90
44400,note_on,60,0,1,,,,,,,,,,,,,,,0,,,75,0
44400,note_on,0,0,1,,,,,,,,,,,,,,,0,,,74,90
44400,note_on,120,0,2,,,,,,,,,,,,,,,1,,,51,0
44400,note_on,0,0,2,,,,,,,,,,,,,,,1,,,53,64
44460,note_on,0,0,1,,,,,,,,,,,,,,,0,,,77,90
44460,note_on,60,0,1,,,,,,,,,,,,,,,0,,,74,0
44520,note_on,120,0,2,,,,,,,,,,,,,,,1,,,53,0
44520,note_on,0,0,2,,,,,,,,,,,,,,,1,,,60,0
44520,note_on,0,0,2,,,,,,,,,,,,,,,1,,,55,64
44520,note_on,0,0,1,,,,,,,,,,,,,,,0,,,75,90
44520,note_on,60,0,1,,,,,,,,,,,,,,,0,,,77,0
44520,note_on,0,0,2,,,,,,,,,,,,,,,1,,,59,64
44580,note_on,0,0,1,,,,,,,,,,,,,,,0,,,77,90
44580,note_on,60,0,1,,,,,,,,,,,,,,,0,,,75,0
44640,note_on,120,0,2,,,,,,,,,,,,,,,1,,,59,0
44640,note_on,0,0,2,,,,,,,,,,,,,,,1,,,55,0
44640,note_on,0,0,2,,,,,,,,,,,,,,,1,,,60,64
44640,note_on,0,0,2,,,,,,,,,,,,,,,1,,,48,64
44640,note_on,0,0,1,,,,,,,,,,,,,,,0,,,75,90
44640,note_on,60,0,1,,,,,,,,,,,,,,,0,,,77,0
44700,note_on,60,0,2,,,,,,,,,,,,,,,1,,,60,0
44700,note_on,0,0,2,,,,,,,,,,,,,,,1,,,55,64
44760,note_on,60,0,2,,,,,,,,,,,,,,,1,,,55,0
44760,note_on,0,0,2,,,,,,,,,,,,,,,1,,,53,64
44820,note_on,60,0,2,,,,,,,,,,,,,,,1,,,53,0
44820,note_on,0,0,2,,,,,,,,,,,,,,,1,,,55,64
44880,note_on,0,0,2,,,,,,,,,,,,,,,1,,,51,64
44880,note_on,240,0,1,,,,,,,,,,,,,,,0,,,75,0
44880,note_on,0,0,1,,,,,,,,,,,,,,,0,,,72,90
44880,note_on,60,0,2,,,,,,,,,,,,,,,1,,,55,0
44940,note_on,60,0,2,,,,,,,,,,,,,,,1,,,51,0
44940,note_on,0,0,2,,,,,,,,,,,,,,,1,,,53,64
45000,note_on,60,0,2,,,,,,,,,,,,,,,1,,,53,0
45000,note_on,0,0,2,,,,,,,,,,,,,,,1,,,51,64
45060,note_on,60,0,2,,,,,,,,,,,,,,,1,,,51,0
45060,note_on,0,0,2,,,,,,,,,,,,,,,1,,,53,64
45072,note_on,192,0,1,,,,,,,,,,,,,,,0,,,72,0
45120,note_on,48,0,1,,,,,,,,,,,,,,,0,,,75,90
45120,note_on,60,0,2,,,,,,,,,,,,,,,1,,,53,0
45120,note_on,0,0,2,,,,,,,,,,,,,,,1,,,55,64
45180,note_on,0,0,1,,,,,,,,,,,,,,,0,,,79,90
45180,note_on,60,0,1,,,,,,,,,,,,,,,0,,,75,0
45240,note_on,120,0,2,,,,,,,,,,,,,,,1,,,55,0
45240,note_on,0,0,1,,,,,,,,,,,,,,,0,,,77,90
45240,note_on,60,0,1,,,,,,,,,,,,,,,0,,,79,0
45240,note_on,0,0,2,,,,,,,,,,,,,,,1,,,60,64
45300,note_on,60,0,1,,,,,,,,,,,,,,,0,,,77,0
45300,note_on,0,0,1,,,,,,,,,,,,,,,0,,,79,90
45360,note_on,0,0,2,,,,,,,,,,,,,,,1,,,50,64
45360,note_on,120,0,2,,,,,,,,,,,,,,,1,,,48,0
45360,note_on,0,0,1,,,,,,,,,,,,,,,0,,,77,90
45360,note_on,60,0,1,,,,,,,,,,,,,,,0,,,79,0
45420,note_on,60,0,1,,,,,,,,,,,,,,,0,,,77,0
45420,note_on,0,0,1,,,,,,,,,,,,,,,0,,,80,90
45480,note_on,60,0,1,,,,,,,,,,,,,,,0,,,80,0
45480,note_on,120,0,2,,,,,,,,,,,,,,,1,,,60,0
45480,note_on,0,0,1,,,,,,,,,,,,,,,0,,,79,90
45480,note_on,0,0,2,,,,,,,,,,,,,,,1,,,59,64
45540,note_on,0,0,1,,,,,,,,,,,,,,,0,,,80,90
45540,note_on,60,0,1,,,,,,,,,,,,,,,0,,,79,0
45600,note_on,0,0,2,,,,,,,,,,,,,,,1,,,50,0
45600,note_on,60,0,1,,,,,,,,,,,,,,,0,,,80,0
45600,note_on,0,0,1,,,,,,,,,,,,,,,0,,,79,90
45600,note_on,0,0,2,,,,,,,,,,,,,,,1,,,51,64
45600,note_on,0,0,2,,,,,,,,,,,,,,,1,,,60,64
45600,note_on,120,0,2,,,,,,,,,,,,,,,1,,,59,0
45720,note_on,0,0,2,,,,,,,,,,,,,,,1,,,55,64
45720,note_on,120,0,2,,,,,,,,,,,,,,,1,,,60,0
45780,note_on,0,0,1,,,,,,,,,,,,,,,0,,,80,90
45780,note_on,180,0,1,,,,,,,,,,,,,,,0,,,79,0
45840,note_on,60,0,1,,,,,,,,,,,,,,,0,,,80,0
45840,note_on,0,0,2,,,,,,,,,,,,,,,1,,,47,64
45840,note_on,120,0,2,,,,,,,,,,,,,,,1,,,51,0
45840,note_on,0,0,1,,,,,,,,,,,,,,,0,,,79,90
45900,note_on,60,0,1,,,,,,,,,,,,,,,0,,,79,0
45900,note_on,0,0,1,,,,,,,,,,,,,,,0,,,77,90
45960,note_on,0,0,2,,,,,,,,,,,,,,,1,,,55,64
45960,note_on,0,0,1,,,,,,,,,,,,,,,0,,,75,90
45960,note_on,60,0,1,,,,,,,,,,,,,,,0,,,77,0
45960,note_on,120,0,2,,,,,,,,,,,,,,,1,,,55,0
46020,note_on,0,0,1,,,,,,,,,,,,,,,0,,,74,90
46020,note_on,60,0,1,,,,,,,,,,,,,,,0,,,75,0
46080,note_on,0,0,1,,,,,,,,,,,,,,,0,,,75,90
46080,note_on,60,0,1,,,,,,,,,,,,,,,0,,,74,0
46080,note_on,120,0,2,,,,,,,,,,,,,,,1,,,47,0
46080,note_on,0,0,2,,,,,,,,,,,,,,,1,,,48,64
46140,note_on,60,0,1,,,,,,,,,,,,,,,0,,,75,0
46140,note_on,0,0,1,,,,,,,,,,,,,,,0,,,74,90
46200,note_on,60,0,1,,,,,,,,,,,,,,,0,,,74,0
46200,note_on,120,0,2,,,,,,,,,,,,,,,1,,,55,0
46200,note_on,0,0,1,,,,,,,,,,,,,,,0,,,75,90
46200,note_on,0,0,2,,,,,,,,,,,,,,,1,,,60,64
46260,note_on,60,0,1,,,,,,,,,,,,,,,0,,,75,0
46260,note_on,0,0,1,,,,,,,,,,,,,,,0,,,77,90
46320,note_on,0,0,2,,,,,,,,,,,,,,,1,,,55,64
46320,note_on,120,0,2,,,,,,,,,,,,,,,1,,,48,0
46320,note_on,60,0,1,,,,,,,,,,,,,,,0,,,77,0
46320,note_on,0,0,1,,,,,,,,,,,,,,,0,,,74,90
46350,note_on,0,0,1,,,,,,,,,,,,,,,0,,,75,90
46350,note_on,30,0,1,,,,,,,,,,,,,,,0,,,74,0
46380,note_on,0,0,1,,,,,,,,,,,,,,,0,,,74,90
46380,note_on,30,0,1,,,,,,,,,,,,,,,0,,,75,0
46440,note_on,0,0,2,,,,,,,,,,,,,,,1,,,59,64
46440,note_on,120,0,2,,,,,,,,,,,,,,,1,,,60,0
46500,note_on,0,0,1,,,,,,,,,,,,,,,0,,,72,90
46500,note_on,120,0,1,,,,,,,,,,,,,,,0,,,74,0
46560,note_on,0,0,2,,,,,,,,,,,,,,,1,,,57,64
46560,note_on,120,0,2,,,,,,,,,,,,,,,1,,,59,0
46560,note_on,0,0,1,,,,,,,,,,,,,,,0,,,72,90
46560,note_on,60,0,1,,,,,,,,,,,,,,,0,,,72,0
46680,note_on,120,0,2,,,,,,,,,,,,,,,1,,,55,0
46680,note_on,0,0,2,,,,,,,,,,,,,,,1,,,55,64
46800,note_on,120,0,2,,,,,,,,,,,,,,,1,,,55,0
46800,note_on,0,0,2,,,,,,,,,,,,,,,1,,,54,64
46860,note_on,300,0,1,,,,,,,,,,,,,,,0,,,72,0
46860,note_on,0,0,1,,,,,,,,,,,,,,,0,,,75,90
46920,note_on,60,0,1,,,,,,,,,,,,,,,0,,,75,0
46920,note_on,0,0,1,,,,,,,,,,,,,,,0,,,74,90
46980,note_on,0,0,1,,,,,,,,,,,,,,,0,,,72,90
46980,note_on,60,0,1,,,,,,,,,,,,,,,0,,,74,0
47040,note_on,240,0,2,,,,,,,,,,,,,,,1,,,54,0
47040,note_on,0,0,1,,,,,,,,,,,,,,,0,,,70,90
47040,note_on,0,0,1,,,,,,,,,,,,,,,0,,,62,90
47040,note_on,60,0,1,,,,,,,,,,,,,,,0,,,72,0
47040,note_on,0,0,2,,,,,,,,,,,,,,,1,,,57,0
47040,note_on,0,0,2,,,,,,,,,,,,,,,1,,,55,64
47100,note_on,0,0,1,,,,,,,,,,,,,,,0,,,72,90
47100,note_on,60,0,1,,,,,,,,,,,,,,,0,,,70,0
47160,note_on,0,0,1,,,,,,,,,,,,,,,0,,,67,90
47160,note_on,0,0,1,,,,,,,,,,,,,,,0,,,62,0
47160,note_on,60,0,1,,,,,,,,,,,,,,,0,,,72,0
47160,note_on,0,0,1,,,,,,,,,,,,,,,0,,,70,90
47220,note_on,60,0,1,,,,,,,,,,,,,,,0,,,70,0
47220,note_on,0,0,1,,,,,,,,,,,,,,,0,,,69,90
47280,note_on,240,0,2,,,,,,,,,,,,,,,1,,,55,0
47280,note_on,0,0,2,,,,,,,,,,,,,,,1,,,60,64
47280,note_on,60,0,1,,,,,,,,,,,,,,,0,,,69,0
47280,note_on,0,0,1,,,,,,,,,,,,,,,0,,,69,90
47310,note_on,30,0,1,,,,,,,,,,,,,,,0,,,69,0
47310,note_on,0,0,1,,,,,,,,,,,,,,,0,,,70,90
47340,note_on,0,0,1,,,,,,,,,,,,,,,0,,,69,90
47340,note_on,30,0,1,,,,,,,,,,,,,,,0,,,70,0
47400,note_on,0,0,1,,,,,,,,,,,,,,,0,,,66,90
47400,note_on,60,0,1,,,,,,,,,,,,,,,0,,,67,0
47400,note_on,0,0,2,,,,,,,,,,,,,,,1,,,62,64
47400,note_on,120,0,2,,,,,,,,,,,,,,,1,,,60,0
47460,note_on,0,0,1,,,,,,,,,,,,,,,0,,,67,90
47460,note_on,60,0,1,,,,,,,,,,,,,,,0,,,69,0
47520,note_on,120,0,2,,,,,,,,,,,,,,,1,,,62,0
47520,note_on,0,0,2,,,,,,,,,,,,,,,1,,,63,64
47520,note_on,60,0,1,,,,,,,,,,,,,,,0,,,67,0
47520,note_on,0,0,1,,,,,,,,,,,,,,,0,,,66,0
47520,note_on,0,0,1,,,,,,,,,,,,,,,0,,,67,90
47580,note_on,60,0,1,,,,,,,,,,,,,,,0,,,79,90
47640,note_on,60,0,1,,,,,,,,,,,,,,,0,,,79,0
47640,note_on,0,0,1,,,,,,,,,,,,,,,0,,,67,0
47640,note_on,0,0,1,,,,,,,,,,,,,,,0,,,71,90
47640,note_on,0,0,1,,,,,,,,,,,,,,,0,,,77,90
47700,note_on,60,0,1,,,,,,,,,,,,,,,0,,,77,0
47700,note_on,0,0,1,,,,,,,,,,,,,,,0,,,79,90
47760,note_on,0,0,1,,,,,,,,,,,,,,,0,,,72,90
47760,note_on,0,0,1,,,,,,,,,,,,,,,0,,,75,90
47760,note_on,0,0,1,,,,,,,,,,,,,,,0,,,71,0
47760,note_on,60,0,1,,,,,,,,,,,,,,,0,,,79,0
47820,note_on,60,0,1,,,,,,,,,,,,,,,0,,,75,0
47820,note_on,0,0,1,,,,,,,,,,,,,,,0,,,72,90
47880,note_on,360,0,2,,,,,,,,,,,,,,,1,,,63,0
47880,note_on,0,0,2,,,,,,,,,,,,,,,1,,,68,64
47880,note_on,60,0,1,,,,,,,,,,,,,,,0,,,72,0
47880,note_on,0,0,1,,,,,,,,,,,,,,,0,,,74,90
47940,note_on,60,0,1,,,,,,,,,,,,,,,0,,,74,0
47940,note_on,0,0,1,,,,,,,,,,,,,,,0,,,75,90
48000,note_on,0,0,2,,,,,,,,,,,,,,,1,,,62,64
48000,note_on,120,0,2,,,,,,,,,,,,,,,1,,,68,0
48000,note_on,0,0,1,,,,,,,,,,,,,,,0,,,77,90
48000,note_on,60,0,1,,,,,,,,,,,,,,,0,,,75,0
48060,note_on,60,0,1,,,,,,,,,,,,,,,0,,,77,0
48060,note_on,0,0,1,,,,,,,,,,,,,,,0,,,80,90
48120,note_on,0,0,1,,,,,,,,,,,,,,,0,,,79,90
48120,note_on,0,0,1,,,,,,,,,,,,,,,0,,,72,90
48120,note_on,60,0,1,,,,,,,,,,,,,,,0,,,80,0
48120,note_on,0,0,1,,,,,,,,,,,,,,,0,,,72,0
48180,note_on,60,0,1,,,,,,,,,,,,,,,0,,,79,0
48180,note_on,0,0,1,,,,,,,,,,,,,,,0,,,80,90
48240,note_on,60,0,1,,,,,,,,,,,,,,,0,,,80,0
48240,note_on,0,0,1,,,,,,,,,,,,,,,0,,,71,90
48240,note_on,0,0,1,,,,,,,,,,,,,,,0,,,74,90
48240,note_on,0,0,1,,,,,,,,,,,,,,,0,,,72,0
48300,note_on,60,0,1,,,,,,,,,,,,,,,0,,,74,0
48300,note_on,0,0,1,,,,,,,,,,,,,,,0,,,77,90
48360,note_on,60,0,1,,,,,,,,,,,,,,,0,,,77,0
48360,note_on,0,0,1,,,,,,,,,,,,,,,0,,,75,90
48360,note_on,360,0,2,,,,,,,,,,,,,,,1,,,62,0
48360,note_on,0,0,2,,,,,,,,,,,,,,,1,,,67,64
48420,note_on,60,0,1,,,,,,,,,,,,,,,0,,,75,0
48420,note_on,0,0,1,,,,,,,,,,,,,,,0,,,74,90
48480,note_on,0,0,1,,,,,,,,,,,,,,,0,,,75,90
48480,note_on,0,0,1,,,,,,,,,,,,,,,0,,,72,90
48480,note_on,60,0,1,,,,,,,,,,,,,,,0,,,74,0
48480,note_on,0,0,2,,,,,,,,,,,,,,,1,,,60,64
48480,note_on,0,0,1,,,,,,,,,,,,,,,0,,,71,0
48480,note_on,120,0,2,,,,,,,,,,,,,,,1,,,67,0
48540,note_on,0,0,2,,,,,,,,,,,,,,,1,,,63,64
48540,note_on,60,0,2,,,,,,,,,,,,,,,1,,,60,0
48540,note_on,60,0,1,,,,,,,,,,,,,,,0,,,75,0
48540,note_on,0,0,1,,,,,,,,,,,,,,,0,,,79,90
48600,note_on,60,0,2,,,,,,,,,,,,,,,1,,,63,0
48600,note_on,0,0,2,,,,,,,,,,,,,,,1,,,62,64
48600,note_on,60,0,1,,,,,,,,,,,,,,,0,,,79,0
48600,note_on,0,0,1,,,,,,,,,,,,,,,0,,,72,0
48600,note_on,0,0,1,,,,,,,,,,,,,,,0,,,77,90
48660,note_on,60,0,2,,,,,,,,,,,,,,,1,,,62,0
48660,note_on,0,0,1,,,,,,,,,,,,,,,0,,,79,90
48660,note_on,0,0,2,,,,,,,,,,,,,,,1,,,63,64
48660,note_on,60,0,1,,,,,,,,,,,,,,,0,,,77,0
48720,note_on,0,0,2,,,,,,,,,,,,,,,1,,,65,64
48720,note_on,60,0,2,,,,,,,,,,,,,,,1,,,63,0
48720,note_on,60,0,1,,,,,,,,,,,,,,,0,,,79,0
48720,note_on,0,0,1,,,,,,,,,,,,,,,0,,,80,90
48780,note_on,0,0,1,,,,,,,,,,,,,,,0,,,79,90
48780,note_on,60,0,1,,,,,,,,,,,,,,,0,,,80,0
48780,note_on,0,0,2,,,,,,,,,,,,,,,1,,,63,64
48780,note_on,60,0,2,,,,,,,,,,,,,,,1,,,65,0
48840,note_on,60,0,1,,,,,,,,,,,,,,,0,,,79,0
48840,note_on,0,0,2,,,,,,,,,,,,,,,1,,,62,64
48840,note_on,60,0,2,,,,,,,,,,,,,,,1,,,63,0
48840,note_on,0,0,1,,,,,,,,,,,,,,,0,,,77,90
48900,note_on,0,0,1,,,,,,,,,,,,,,,0,,,75,90
48900,note_on,0,0,2,,,,,,,,,,,,,,,1,,,60,64
48900,note_on,60,0,1,,,,,,,,,,,,,,,0,,,77,0
48900,note_on,60,0,2,,,,,,,,,,,,,,,1,,,62,0
48960,note_on,60,0,1,,,,,,,,,,,,,,,0,,,75,0
48960,note_on,60,0,2,,,,,,,,,,,,,,,1,,,60,0
48960,note_on,0,0,2,,,,,,,,,,,,,,,1,,,58,64
48960,note_on,0,0,1,,,,,,,,,,,,,,,0,,,74,90
49020,note_on,0,0,1,,,,,,,,,,,,,,,0,,,77,90
49020,note_on,60,0,2,,,,,,,,,,,,,,,1,,,58,0
49020,note_on,0,0,2,,,,,,,,,,,,,,,1,,,62,64
49020,note_on,60,0,1,,,,,,,,,,,,,,,0,,,74,0
49080,note_on,0,0,1,,,,,,,,,,,,,,,0,,,75,90
49080,note_on,60,0,1,,,,,,,,,,,,,,,0,,,77,0
49080,note_on,60,0,2,,,,,,,,,,,,,,,1,,,62,0
49080,note_on,0,0,2,,,,,,,,,,,,,,,1,,,60,64
49140,note_on,60,0,2,,,,,,,,,,,,,,,1,,,60,0
49140,note_on,0,0,2,,,,,,,,,,,,,,,1,,,62,64
49140,note_on,60,0,1,,,,,,,,,,,,,,,0,,,75,0
49140,note_on,0,0,1,,,,,,,,,,,,,,,0,,,77,90
49200,note_on,60,0,2,,,,,,,,,,,,,,,1,,,62,0
49200,note_on,0,0,2,,,,,,,,,,,,,,,1,,,63,64
49200,note_on,60,0,1,,,,,,,,,,,,,,,0,,,77,0
49200,note_on,0,0,1,,,,,,,,,,,,,,,0,,,79,90
49260,note_on,60,0,1,,,,,,,,,,,,,,,0,,,79,0
49260,note_on,0,0,1,,,,,,,,,,,,,,,0,,,77,90
49260,note_on,0,0,2,,,,,,,,,,,,,,,1,,,67,64
49260,note_on,60,0,2,,,,,,,,,,,,,,,1,,,63,0
49320,note_on,60,0,1,,,,,,,,,,,,,,,0,,,77,0
49320,note_on,0,0,1,,,,,,,,,,,,,,,0,,,75,90
49320,note_on,0,0,2,,,,,,,,,,,,,,,1,,,65,64
49320,note_on,60,0,2,,,,,,,,,,,,,,,1,,,67,0
49380,note_on,0,0,2,,,,,,,,,,,,,,,1,,,67,64
49380,note_on,60,0,2,,,,,,,,,,,,,,,1,,,65,0
49380,note_on,0,0,1,,,,,,,,,,,,,,,0,,,74,90
49380,note_on,60,0,1,,,,,,,,,,,,,,,0,,,75,0
49440,note_on,60,0,2,,,,,,,,,,,,,,,1,,,67,0
49440,note_on,60,0,1,,,,,,,,,,,,,,,0,,,74,0
49440,note_on,0,0,2,,,,,,,,,,,,,,,1,,,68,64
49440,note_on,0,0,1,,,,,,,,,,,,,,,0,,,72,90
49500,note_on,0,0,1,,,,,,,,,,,,,,,0,,,74,90
49500,note_on,60,0,1,,,,,,,,,,,,,,,0,,,72,0
49560,note_on,120,0,2,,,,,,,,,,,,,,,1,,,68,0
49560,note_on,0,0,2,,,,,,,,,,,,,,,1,,,67,64
49560,note_on,0,0,1,,,,,,,,,,,,,,,0,,,71,90
49560,note_on,60,0,1,,,,,,,,,,,,,,,0,,,74,0
49620,note_on,60,0,1,,,,,,,,,,,,,,,0,,,71,0
49620,note_on,0,0,1,,,,,,,,,,,,,,,0,,,72,90
49680,note_on,60,0,1,,,,,,,,,,,,,,,0,,,72,0
49680,note_on,0,0,1,,,,,,,,,,,,,,,0,,,74,90
49680,note_on,120,0,2,,,,,,,,,,,,,,,1,,,67,0
49680,note_on,0,0,2,,,,,,,,,,,,,,,1,,,65,64
49740,note_on,0,0,2,,,,,,,,,,,,,,,1,,,67,64
49740,note_on,60,0,2,,,,,,,,,,,,,,,1,,,65,0
49740,note_on,60,0,1,,,,,,,,,,,,,,,0,,,74,0
49740,note_on,0,0,1,,,,,,,,,,,,,,,0,,,75,90
49800,note_on,0,0,1,,,,,,,,,,,,,,,0,,,74,90
49800,note_on,0,0,2,,,,,,,,,,,,,,,1,,,63,64
49800,note_on,60,0,2,,,,,,,,,,,,,,,1,,,67,0
49800,note_on,60,0,1,,,,,,,,,,,,,,,0,,,75,0
49860,note_on,0,0,1,,,,,,,,,,,,,,,0,,,72,90
49860,note_on,60,0,1,,,,,,,,,,,,,,,0,,,74,0
49860,note_on,0,0,2,,,,,,,,,,,,,,,1,,,65,64
49860,note_on,60,0,2,,,,,,,,,,,,,,,1,,,63,0
49920,note_on,60,0,1,,,,,,,,,,,,,,,0,,,72,0
49920,note_on,0,0,1,,,,,,,,,,,,,,,0,,,71,90
49920,note_on,60,0,2,,,,,,,,,,,,,,,1,,,65,0
49920,note_on,0,0,2,,,,,,,,,,,,,,,1,,,67,64
49980,note_on,0,0,1,,,,,,,,,,,,,,,0,,,74,90
49980,note_on,60,0,1,,,,,,,,,,,,,,,0,,,71,0
50040,note_on,0,0,2,,,,,,,,,,,,,,,1,,,65,64
50040,note_on,0,0,1,,,,,,,,,,,,,,,0,,,75,90
50040,note_on,60,0,1,,,,,,,,,,,,,,,0,,,74,0
50040,note_on,120,0,2,,,,,,,,,,,,,,,1,,,67,0
50100,note_on,0,0,1,,,,,,,,,,,,,,,0,,,77,90
50100,note_on,60,0,1,,,,,,,,,,,,,,,0,,,75,0
50160,note_on,120,0,2,,,,,,,,,,,,,,,1,,,65,0
50160,note_on,0,0,1,,,,,,,,,,,,,,,0,,,79,90
50160,note_on,60,0,1,,,,,,,,,,,,,,,0,,,77,0
50160,note_on,0,0,2,,,,,,,,,,,,,,,1,,,63,64
50220,note_on,0,0,1,,,,,,,,,,,,,,,0,,,80,90
50220,note_on,60,0,1,,,,,,,,,,,,,,,0,,,79,0
50280,note_on,60,0,1,,,,,,,,,,,,,,,0,,,80,0
50280,note_on,120,0,2,,,,,,,,,,,,,,,1,,,63,0
50280,note_on,0,0,2,,,,,,,,,,,,,,,1,,,62,64
50280,note_on,0,0,1,,,,,,,,,,,,,,,0,,,79,90
50340,note_on,60,0,1,,,,,,,,,,,,,,,0,,,79,0
50340,note_on,0,0,1,,,,,,,,,,,,,,,0,,,77,90
50400,note_on,60,0,1,,,,,,,,,,,,,,,0,,,77,0
50400,note_on,0,0,1,,,,,,,,,,,,,,,0,,,75,90
50400,note_on,0,0,2,,,,,,,,,,,,,,,1,,,60,90
50400,note_on,120,0,2,,,,,,,,,,,,,,,1,,,62,0
50460,note_on,60,0,2,,,,,,,,,,,,,,,1,,,60,0
50460,note_on,0,0,2,,,,,,,,,,,,,,,1,,,63,90
50460,note_on,60,0,1,,,,,,,,,,,,,,,0,,,75,0
50460,note_on,0,0,1,,,,,,,,,,,,,,,0,,,79,90
50520,note_on,0,0,1,,,,,,,,,,,,,,,0,,,77,90
50520,note_on,0,0,2,,,,,,,,,,,,,,,1,,,62,90
50520,note_on,60,0,2,,,,,,,,,,,,,,,1,,,63,0
50520,note_on,60,0,1,,,,,,,,,,,,,,,0,,,79,0
50580,note_on,60,0,2,,,,,,,,,,,,,,,1,,,62,0
50580,note_on,60,0,1,,,,,,,,,,,,,,,0,,,77,0
50580,note_on,0,0,1,,,,,,,,,,,,,,,0,,,79,90
50580,note_on,0,0,2,,,,,,,,,,,,,,,1,,,63,90
50640,note_on,60,0,1,,,,,,,,,,,,,,,0,,,79,0
50640,note_on,0,0,2,,,,,,,,,,,,,,,1,,,60,90
50640,note_on,0,0,1,,,,,,,,,,,,,,,0,,,75,90
50640,note_on,60,0,2,,,,,,,,,,,,,,,1,,,63,0
50700,note_on,60,0,1,,,,,,,,,,,,,,,0,,,75,0
50700,note_on,0,0,1,,,,,,,,,,,,,,,0,,,79,90
50736,note_on,96,0,2,,,,,,,,,,,,,,,1,,,60,0
50760,note_on,60,0,1,,,,,,,,,,,,,,,0,,,79,0
50760,note_on,0,0,1,,,,,,,,,,,,,,,0,,,77,90
50760,note_on,24,0,2,,,,,,,,,,,,,,,1,,,63,90
50820,note_on,60,0,1,,,,,,,,,,,,,,,0,,,77,0
50820,note_on,0,0,1,,,,,,,,,,,,,,,0,,,79,90
50856,note_on,96,0,2,,,,,,,,,,,,,,,1,,,63,0
50880,note_on,24,0,2,,,,,,,,,,,,,,,1,,,62,90
50880,note_on,60,0,1,,,,,,,,,,,,,,,0,,,79,0
50880,note_on,0,0,1,,,,,,,,,,,,,,,0,,,71,90
50940,note_on,0,0,1,,,,,,,,,,,,,,,0,,,77,90
50940,note_on,60,0,1,,,,,,,,,,,,,,,0,,,71,0
51000,note_on,0,0,1,,,,,,,,,,,,,,,0,,,75,90
51000,note_on,60,0,1,,,,,,,,,,,,,,,0,,,77,0
51060,note_on,0,0,1,,,,,,,,,,,,,,,0,,,77,90
51060,note_on,60,0,1,,,,,,,,,,,,,,,0,,,75,0
51120,note_on,60,0,1,,,,,,,,,,,,,,,0,,,77,0
51120,note_on,0,0,1,,,,,,,,,,,,,,,0,,,71,90
51120,note_on,240,0,2,,,,,,,,,,,,,,,1,,,62,0
51120,note_on,0,0,2,,,,,,,,,,,,,,,1,,,55,90
51180,note_on,0,0,1,,,,,,,,,,,,,,,0,,,77,90
51180,note_on,60,0,1,,,,,,,,,,,,,,,0,,,71,0
51240,note_on,60,0,1,,,,,,,,,,,,,,,0,,,77,0
51240,note_on,0,0,1,,,,,,,,,,,,,,,0,,,75,90
51300,note_on,0,0,1,,,,,,,,,,,,,,,0,,,74,90
51300,note_on,60,0,1,,,,,,,,,,,,,,,0,,,75,0
51360,note_on,0,0,2,,,,,,,,,,,,,,,1,,,60,90
51360,note_on,240,0,2,,,,,,,,,,,,,,,1,,,55,0
51360,note_on,0,0,1,,,,,,,,,,,,,,,0,,,75,90
51360,note_on,60,0,1,,,,,,,,,,,,,,,0,,,74,0
51420,note_on,60,0,2,,,,,,,,,,,,,,,1,,,60,0
51420,note_on,60,0,1,,,,,,,,,,,,,,,0,,,75,0
51420,note_on,0,0,1,,,,,,,,,,,,,,,0,,,79,90
51420,note_on,0,0,2,,,,,,,,,,,,,,,1,,,63,90
51480,note_on,0,0,1,,,,,,,,,,,,,,,0,,,77,90
51480,note_on,60,0,1,,,,,,,,,,,,,,,0,,,79,0
51480,note_on,0,0,2,,,,,,,,,,,,,,,1,,,62,90
51480,note_on,60,0,2,,,,,,,,,,,,,,,1,,,63,0
51540,note_on,0,0,1,,,,,,,,,,,,,,,0,,,79,90
51540,note_on,60,0,2,,,,,,,,,,,,,,,1,,,62,0
51540,note_on,0,0,2,,,,,,,,,,,,,,,1,,,63,90
51540,note_on,60,0,1,,,,,,,,,,,,,,,0,,,77,0
51600,note_on,0,0,1,,,,,,,,,,,,,,,0,,,71,90
51600,note_on,0,0,2,,,,,,,,,,,,,,,1,,,62,90
51600,note_on,60,0,2,,,,,,,,,,,,,,,1,,,63,0
51600,note_on,60,0,1,,,,,,,,,,,,,,,0,,,79,0
51660,note_on,0,0,1,,,,,,,,,,,,,,,0,,,74,90
51660,note_on,60,0,1,,,,,,,,,,,,,,,0,,,71,0
51660,note_on,0,0,2,,,,,,,,,,,,,,,1,,,65,90
51660,note_on,60,0,2,,,,,,,,,,,,,,,1,,,62,0
51720,note_on,60,0,1,,,,,,,,,,,,,,,0,,,74,0
51720,note_on,0,0,1,,,,,,,,,,,,,,,0,,,72,90
51720,note_on,60,0,2,,,,,,,,,,,,,,,1,,,65,0
51720,note_on,0,0,2,,,,,,,,,,,,,,,1,,,63,90
51780,note_on,60,0,1,,,,,,,,,,,,,,,0,,,72,0
51780,note_on,0,0,1,,,,,,,,,,,,,,,0,,,71,90
51780,note_on,0,0,2,,,,,,,,,,,,,,,1,,,65,90
51780,note_on,60,0,2,,,,,,,,,,,,,,,1,,,63,0
51840,note_on,60,0,2,,,,,,,,,,,,,,,1,,,65,0
51840,note_on,60,0,1,,,,,,,,,,,,,,,0,,,71,0
51840,note_on,0,0,1,,,,,,,,,,,,,,,0,,,72,90
51840,note_on,0,0,2,,,,,,,,,,,,,,,1,,,63,90
51900,note_on,60,0,1,,,,,,,,,,,,,,,0,,,72,0
51900,note_on,0,0,1,,,,,,,,,,,,,,,0,,,75,90
51960,note_on,60,0,1,,,,,,,,,,,,,,,0,,,75,0
51960,note_on,0,0,1,,,,,,,,,,,,,,,0,,,74,90
52020,note_on,60,0,1,,,,,,,,,,,,,,,0,,,74,0
52020,note_on,0,0,1,,,,,,,,,,,,,,,0,,,77,90
52032,note_on,192,0,2,,,,,,,,,,,,,,,1,,,63,0
52080,note_on,60,0,1,,,,,,,,,,,,,,,0,,,77,0
52080,note_on,0,0,1,,,,,,,,,,,,,,,0,,,75,90
52080,note_on,48,0,2,,,,,,,,,,,,,,,1,,,60,90
52140,note_on,0,0,1,,,,,,,,,,,,,,,0,,,79,90
52140,note_on,60,0,1,,,,,,,,,,,,,,,0,,,75,0
52200,note_on,0,0,1,,,,,,,,,,,,,,,0,,,77,90
52200,note_on,60,0,1,,,,,,,,,,,,,,,0,,,79,0
52260,note_on,60,0,1,,,,,,,,,,,,,,,0,,,77,0
52260,note_on,0,0,1,,,,,,,,,,,,,,,0,,,80,90
52272,note_on,192,0,2,,,,,,,,,,,,,,,1,,,60,0
52320,note_on,48,0,2,,,,,,,,,,,,,,,1,,,63,90
52320,note_on,60,0,1,,,,,,,,,,,,,,,0,,,80,0
52320,note_on,0,0,1,,,,,,,,,,,,,,,0,,,79,90
52380,note_on,0,0,2,,,,,,,,,,,,,,,1,,,67,90
52380,note_on,60,0,2,,,,,,,,,,,,,,,1,,,63,0
52380,note_on,60,0,1,,,,,,,,,,,,,,,0,,,79,0
52380,note_on,0,0,1,,,,,,,,,,,,,,,0,,,75,90
52440,note_on,60,0,2,,,,,,,,,,,,,,,1,,,67,0
52440,note_on,0,0,2,,,,,,,,,,,,,,,1,,,65,90
52440,note_on,0,0,1,,,,,,,,,,,,,,,0,,,74,90
52440,note_on,60,0,1,,,,,,,,,,,,,,,0,,,75,0
52500,note_on,60,0,1,,,,,,,,,,,,,,,0,,,74,0
52500,note_on,0,0,1,,,,,,,,,,,,,,,0,,,75,90
52500,note_on,60,0,2,,,,,,,,,,,,,,,1,,,65,0
52500,note_on,0,0,2,,,,,,,,,,,,,,,1,,,67,90
52560,note_on,60,0,1,,,,,,,,,,,,,,,0,,,75,0
52560,note_on,0,0,1,,,,,,,,,,,,,,,0,,,74,90
52560,note_on,0,0,2,,,,,,,,,,,,,,,1,,,65,90
52560,note_on,60,0,2,,,,,,,,,,,,,,,1,,,67,0
52620,note_on,60,0,1,,,,,,,,,,,,,,,0,,,74,0
52620,note_on,0,0,1,,,,,,,,,,,,,,,0,,,77,90
52620,note_on,0,0,2,,,,,,,,,,,,,,,1,,,68,90
52620,note_on,60,0,2,,,,,,,,,,,,,,,1,,,65,0
52680,note_on,0,0,1,,,,,,,,,,,,,,,0,,,75,90
52680,note_on,60,0,1,,,,,,,,,,,,,,,0,,,77,0
52680,note_on,60,0,2,,,,,,,,,,,,,,,1,,,68,0
52680,note_on,0,0,2,,,,,,,,,,,,,,,1,,,67,90
52740,note_on,60,0,2,,,,,,,,,,,,,,,1,,,67,0
52740,note_on,0,0,2,,,,,,,,,,,,,,,1,,,68,90
52740,note_on,60,0,1,,,,,,,,,,,,,,,0,,,75,0
52740,note_on,0,0,1,,,,,,,,,,,,,,,0,,,77,90
52800,note_on,60,0,2,,,,,,,,,,,,,,,1,,,68,0
52800,note_on,0,0,2,,,,,,,,,,,,,,,1,,,67,90
52800,note_on,60,0,1,,,,,,,,,,,,,,,0,,,77,0
52800,note_on,0,0,1,,,,,,,,,,,,,,,0,,,71,90
52860,note_on,60,0,1,,,,,,,,,,,,,,,0,,,71,0
52860,note_on,0,0,2,,,,,,,,,,,,,,,1,,,65,90
52860,note_on,60,0,2,,,,,,,,,,,,,,,1,,,67,0
52860,note_on,0,0,1,,,,,,,,,,,,,,,0,,,67,90
52920,note_on,0,0,2,,,,,,,,,,,,,,,1,,,63,90
52920,note_on,60,0,2,,,,,,,,,,,,,,,1,,,65,0
52920,note_on,60,0,1,,,,,,,,,,,,,,,0,,,67,0
52920,note_on,0,0,1,,,,,,,,,,,,,,,0,,,72,90
52980,note_on,60,0,2,,,,,,,,,,,,,,,1,,,63,0
52980,note_on,60,0,1,,,,,,,,,,,,,,,0,,,72,0
52980,note_on,0,0,1,,,,,,,,,,,,,,,0,,,74,90
52980,note_on,0,0,2,,,,,,,,,,,,,,,1,,,65,90
53040,note_on,60,0,2,,,,,,,,,,,,,,,1,,,65,0
53040,note_on,60,0,1,,,,,,,,,,,,,,,0,,,74,0
53040,note_on,0,0,1,,,,,,,,,,,,,,,0,,,71,90
53040,note_on,0,0,2,,,,,,,,,,,,,,,1,,,62,90
53070,note_on,0,0,1,,,,,,,,,,,,,,,0,,,72,90
53070,note_on,30,0,1,,,,,,,,,,,,,,,0,,,71,0
53100,note_on,0,0,1,,,,,,,,,,,,,,,0,,,71,90
53100,note_on,30,0,1,,,,,,,,,,,,,,,0,,,72,0
53220,note_on,0,0,1,,,,,,,,,,,,,,,0,,,71,90
53220,note_on,0,0,2,,,,,,,,,,,,,,,1,,,62,90
53220,note_on,120,0,1,,,,,,,,,,,,,,,0,,,71,0
53220,note_on,180,0,2,,,,,,,,,,,,,,,1,,,62,0
53280,note_on,60,0,1,,,,,,,,,,,,,,,0,,,71,0
53280,note_on,0,0,1,,,,,,,,,,,,,,,0,,,75,90
53280,note_on,0,0,2,,,,,,,,,,,,,,,1,,,60,90
53280,note_on,60,0,2,,,,,,,,,,,,,,,1,,,62,0
53340,note_on,60,0,1,,,,,,,,,,,,,,,0,,,75,0
53340,note_on,0,0,1,,,,,,,,,,,,,,,0,,,66,90
53400,note_on,0,0,2,,,,,,,,,,,,,,,1,,,58,90
53400,note_on,120,0,2,,,,,,,,,,,,,,,1,,,60,0
53400,note_on,0,0,1,,,,,,,,,,,,,,,0,,,67,90
53400,note_on,60,0,1,,,,,,,,,,,,,,,0,,,66,0
53460,note_on,60,0,2,,,,,,,,,,,,,,,1,,,58,0
53460,note_on,0,0,2,,,,,,,,,,,,,,,1,,,60,90
53460,note_on,60,0,1,,,,,,,,,,,,,,,0,,,67,0
53460,note_on,0,0,1,,,,,,,,,,,,,,,0,,,69,90
53520,note_on,60,0,2,,,,,,,,,,,,,,,1,,,60,0
53520,note_on,0,0,2,,,,,,,,,,,,,,,1,,,57,90
53520,note_on,0,0,1,,,,,,,,,,,,,,,0,,,66,90
53520,note_on,60,0,1,,,,,,,,,,,,,,,0,,,69,0
53550,note_on,30,0,2,,,,,,,,,,,,,,,1,,,57,0
53550,note_on,0,0,2,,,,,,,,,,,,,,,1,,,58,90
53550,note_on,30,0,1,,,,,,,,,,,,,,,0,,,66,0
53550,note_on,0,0,1,,,,,,,,,,,,,,,0,,,67,90
53580,note_on,0,0,2,,,,,,,,,,,,,,,1,,,57,90
53580,note_on,30,0,2,,,,,,,,,,,,,,,1,,,58,0
53580,note_on,0,0,1,,,,,,,,,,,,,,,0,,,66,90
53580,note_on,30,0,1,,,,,,,,,,,,,,,0,,,67,0
53700,note_on,0,0,2,,,,,,,,,,,,,,,1,,,55,90
53700,note_on,120,0,2,,,,,,,,,,,,,,,1,,,57,0
53700,note_on,0,0,1,,,,,,,,,,,,,,,0,,,67,90
53700,note_on,120,0,1,,,,,,,,,,,,,,,0,,,66,0
53760,note_on,0,0,2,,,,,,,,,,,,,,,1,,,55,90
53760,note_on,60,0,2,,,,,,,,,,,,,,,1,,,55,0
53760,note_on,0,0,1,,,,,,,,,,,,,,,0,,,67,90
53760,note_on,60,0,1,,,,,,,,,,,,,,,0,,,67,0
53820,note_on,0,0,1,,,,,,,,,,,,,,,0,,,70,90
53820,note_on,60,0,1,,,,,,,,,,,,,,,0,,,67,0
53880,note_on,0,0,1,,,,,,,,,,,,,,,0,,,69,90
53880,note_on,60,0,1,,,,,,,,,,,,,,,0,,,70,0
53940,note_on,0,0,1,,,,,,,,,,,,,,,0,,,70,90
53940,note_on,60,0,1,,,,,,,,,,,,,,,0,,,69,0
54000,note_on,0,0,1,,,,,,,,,,,,,,,0,,,67,90
54000,note_on,60,0,1,,,,,,,,,,,,,,,0,,,70,0
54060,note_on,0,0,2,,,,,,,,,,,,,,,1,,,63,64
54060,note_on,300,0,2,,,,,,,,,,,,,,,1,,,55,0
54120,note_on,0,0,1,,,,,,,,,,,,,,,0,,,70,90
54120,note_on,0,0,1,,,,,,,,,,,,,,,0,,,79,90
54120,note_on,0,0,2,,,,,,,,,,,,,,,1,,,62,90
54120,note_on,60,0,2,,,,,,,,,,,,,,,1,,,63,0
54120,note_on,120,0,1,,,,,,,,,,,,,,,0,,,67,0
54180,note_on,60,0,2,,,,,,,,,,,,,,,1,,,62,0
54180,note_on,0,0,2,,,,,,,,,,,,,,,1,,,60,90
54240,note_on,0,0,1,,,,,,,,,,,,,,,0,,,69,90
54240,note_on,60,0,2,,,,,,,,,,,,,,,1,,,60,0
54240,note_on,0,0,2,,,,,,,,,,,,,,,1,,,62,90
54240,note_on,0,0,1,,,,,,,,,,,,,,,0,,,79,90
54240,note_on,120,0,1,,,,,,,,,,,,,,,0,,,70,0
54240,note_on,0,0,1,,,,,,,,,,,,,,,0,,,79,0
54300,note_on,0,0,1,,,,,,,,,,,,,,,0,,,79,90
54300,note_on,60,0,1,,,,,,,,,,,,,,,0,,,79,0
54360,note_on,0,0,1,,,,,,,,,,,,,,,0,,,78,90
54360,note_on,60,0,1,,,,,,,,,,,,,,,0,,,79,0
54420,note_on,60,0,1,,,,,,,,,,,,,,,0,,,78,0
54420,note_on,0,0,1,,,,,,,,,,,,,,,0,,,76,90
54480,note_on,60,0,1,,,,,,,,,,,,,,,0,,,76,0
54480,note_on,0,0,1,,,,,,,,,,,,,,,0,,,69,0
54480,note_on,0,0,1,,,,,,,,,,,,,,,0,,,78,90
54480,note_on,0,0,1,,,,,,,,,,,,,,,0,,,62,90
54540,note_on,0,0,1,,,,,,,,,,,,,,,0,,,76,90
54540,note_on,60,0,1,,,,,,,,,,,,,,,0,,,78,0
54600,note_on,0,0,2,,,,,,,,,,,,,,,1,,,54,90
54600,note_on,360,0,2,,,,,,,,,,,,,,,1,,,62,0
54600,note_on,0,0,1,,,,,,,,,,,,,,,0,,,74,90
54600,note_on,60,0,1,,,,,,,,,,,,,,,0,,,76,0
54660,note_on,60,0,1,,,,,,,,,,,,,,,0,,,74,0
54660,note_on,0,0,1,,,,,,,,,,,,,,,0,,,72,90
54720,note_on,0,0,1,,,,,,,,,,,,,,,0,,,70,90
54720,note_on,0,0,1,,,,,,,,,,,,,,,0,,,67,90
54720,note_on,0,0,1,,,,,,,,,,,,,,,0,,,62,0
54720,note_on,60,0,1,,,,,,,,,,,,,,,0,,,72,0
54720,note_on,120,0,2,,,,,,,,,,,,,,,1,,,54,0
54720,note_on,0,0,2,,,,,,,,,,,,,,,1,,,55,64
54780,note_on,0,0,1,,,,,,,,,,,,,,,0,,,70,90
54780,note_on,60,0,1,,,,,,,,,,,,,,,0,,,67,0
54840,note_on,0,0,2,,,,,,,,,,,,,,,1,,,63,64
54840,note_on,120,0,2,,,,,,,,,,,,,,,1,,,55,0
54840,note_on,0,0,1,,,,,,,,,,,,,,,0,,,79,90
54840,note_on,60,0,1,,,,,,,,,,,,,,,0,,,70,0
54840,note_on,0,0,1,,,,,,,,,,,,,,,0,,,70,0
54840,note_on,0,0,1,,,,,,,,,,,,,,,0,,,69,90
54900,note_on,60,0,1,,,,,,,,,,,,,,,0,,,69,0
54900,note_on,0,0,1,,,,,,,,,,,,,,,0,,,70,90
54960,note_on,0,0,1,,,,,,,,,,,,,,,0,,,69,90
54960,note_on,0,0,2,,,,,,,,,,,,,,,1,,,60,64
54960,note_on,120,0,2,,,,,,,,,,,,,,,1,,,63,0
54960,note_on,60,0,1,,,,,,,,,,,,,,,0,,,70,0
55020,note_on,60,0,1,,,,,,,,,,,,,,,0,,,69,0
55020,note_on,0,0,1,,,,,,,,,,,,,,,0,,,72,90
55080,note_on,60,0,1,,,,,,,,,,,,,,,0,,,72,0
55080,note_on,0,0,1,,,,,,,,,,,,,,,0,,,79,0
55080,note_on,0,0,1,,,,,,,,,,,,,,,0,,,70,90
55080,note_on,120,0,2,,,,,,,,,,,,,,,1,,,60,0
55080,note_on,0,0,1,,,,,,,,,,,,,,,0,,,78,90
55080,note_on,0,0,2,,,,,,,,,,,,,,,1,,,62,64
55140,note_on,60,0,1,,,,,,,,,,,,,,,0,,,70,0
55140,note_on,0,0,1,,,,,,,,,,,,,,,0,,,72,90
55200,note_on,0,0,1,,,,,,,,,,,,,,,0,,,70,90
55200,note_on,0,0,2,,,,,,,,,,,,,,,1,,,67,64
55200,note_on,120,0,2,,,,,,,,,,,,,,,1,,,62,0
55200,note_on,0,0,1,,,,,,,,,,,,,,,0,,,78,0
55200,note_on,0,0,1,,,,,,,,,,,,,,,0,,,79,90
55200,note_on,60,0,1,,,,,,,,,,,,,,,0,,,72,0
55260,note_on,0,0,1,,,,,,,,,,,,,,,0,,,81,90
55260,note_on,60,0,1,,,,,,,,,,,,,,,0,,,79,0
55320,note_on,0,0,1,,,,,,,,,,,,,,,0,,,79,90
55320,note_on,60,0,1,,,,,,,,,,,,,,,0,,,81,0
55320,note_on,120,0,2,,,,,,,,,,,,,,,1,,,67,0
55320,note_on,0,0,2,,,,,,,,,,,,,,,1,,,65,64
55380,note_on,0,0,1,,,,,,,,,,,,,,,0,,,81,90
55380,note_on,60,0,1,,,,,,,,,,,,,,,0,,,79,0
55440,note_on,0,0,2,,,,,,,,,,,,,,,1,,,63,64
55440,note_on,60,0,1,,,,,,,,,,,,,,,0,,,81,0
55440,note_on,0,0,1,,,,,,,,,,,,,,,0,,,70,0
55440,note_on,0,0,1,,,,,,,,,,,,,,,0,,,67,90
55440,note_on,0,0,1,,,,,,,,,,,,,,,0,,,82,90
55440,note_on,120,0,2,,,,,,,,,,,,,,,1,,,65,0
55500,note_on,60,0,1,,,,,,,,,,,,,,,0,,,82,0
55500,note_on,0,0,1,,,,,,,,,,,,,,,0,,,79,90
55560,note_on,120,0,2,,,,,,,,,,,,,,,1,,,63,0
55560,note_on,0,0,2,,,,,,,,,,,,,,,1,,,60,64
55560,note_on,0,0,1,,,,,,,,,,,,,,,0,,,77,90
55560,note_on,60,0,1,,,,,,,,,,,,,,,0,,,79,0
55620,note_on,60,0,1,,,,,,,,,,,,,,,0,,,77,0
55620,note_on,0,0,1,,,,,,,,,,,,,,,0,,,75,90
55680,note_on,60,0,1,,,,,,,,,,,,,,,0,,,75,0
55680,note_on,0,0,1,,,,,,,,,,,,,,,0,,,67,0
55680,note_on,0,0,2,,,,,,,,,,,,,,,1,,,67,64
55680,note_on,0,0,1,,,,,,,,,,,,,,,0,,,70,90
55680,note_on,0,0,1,,,,,,,,,,,,,,,0,,,74,90
55680,note_on,120,0,2,,,,,,,,,,,,,,,1,,,60,0
55740,note_on,0,0,2,,,,,,,,,,,,,,,1,,,65,64
55740,note_on,60,0,2,,,,,,,,,,,,,,,1,,,67,0
55740,note_on,60,0,1,,,,,,,,,,,,,,,0,,,70,0
55740,note_on,0,0,1,,,,,,,,,,,,,,,0,,,74,90
55800,note_on,0,0,1,,,,,,,,,,,,,,,0,,,74,0
55800,note_on,0,0,1,,,,,,,,,,,,,,,0,,,72,90
55800,note_on,60,0,2,,,,,,,,,,,,,,,1,,,65,0
55800,note_on,0,0,2,,,,,,,,,,,,,,,1,,,63,64
55800,note_on,60,0,1,,,,,,,,,,,,,,,0,,,74,0
55860,note_on,60,0,2,,,,,,,,,,,,,,,1,,,63,0
55860,note_on,0,0,2,,,,,,,,,,,,,,,1,,,62,64
55860,note_on,60,0,1,,,,,,,,,,,,,,,0,,,72,0
55860,note_on,0,0,1,,,,,,,,,,,,,,,0,,,74,90
55920,note_on,60,0,2,,,,,,,,,,,,,,,1,,,62,0
55920,note_on,0,0,1,,,,,,,,,,,,,,,0,,,72,90
55920,note_on,60,0,1,,,,,,,,,,,,,,,0,,,74,0
55920,note_on,0,0,2,,,,,,,,,,,,,,,1,,,63,64
55980,note_on,60,0,2,,,,,,,,,,,,,,,1,,,63,0
55980,note_on,60,0,1,,,,,,,,,,,,,,,0,,,72,0
55980,note_on,0,0,2,,,,,,,,,,,,,,,1,,,67,64
55980,note_on,0,0,1,,,,,,,,,,,,,,,0,,,75,90
56040,note_on,0,0,2,,,,,,,,,,,,,,,1,,,66,64
56040,note_on,0,0,1,,,,,,,,,,,,,,,0,,,74,90
56040,note_on,60,0,1,,,,,,,,,,,,,,,0,,,75,0
56040,note_on,60,0,2,,,,,,,,,,,,,,,1,,,67,0
56100,note_on,0,0,2,,,,,,,,,,,,,,,1,,,67,64
56100,note_on,0,0,1,,,,,,,,,,,,,,,0,,,75,90
56100,note_on,60,0,2,,,,,,,,,,,,,,,1,,,66,0
56100,note_on,60,0,1,,,,,,,,,,,,,,,0,,,74,0
56160,note_on,60,0,2,,,,,,,,,,,,,,,1,,,67,0
56160,note_on,0,0,2,,,,,,,,,,,,,,,1,,,66,64
56160,note_on,60,0,1,,,,,,,,,,,,,,,0,,,75,0
56160,note_on,0,0,1,,,,,,,,,,,,,,,0,,,74,90
56220,note_on,60,0,2,,,,,,,,,,,,,,,1,,,66,0
56220,note_on,0,0,2,,,,,,,,,,,,,,,1,,,69,64
56280,note_on,60,0,2,,,,,,,,,,,,,,,1,,,69,0
56280,note_on,0,0,2,,,,,,,,,,,,,,,1,,,67,64
56340,note_on,0,0,2,,,,,,,,,,,,,,,1,,,69,64
56340,note_on,180,0,1,,,,,,,,,,,,,,,0,,,74,0
56340,note_on,0,0,1,,,,,,,,,,,,,,,0,,,75,90
56340,note_on,60,0,2,,,,,,,,,,,,,,,1,,,67,0
56400,note_on,60,0,1,,,,,,,,,,,,,,,0,,,75,0
56400,note_on,0,0,2,,,,,,,,,,,,,,,1,,,70,64
56400,note_on,0,0,1,,,,,,,,,,,,,,,0,,,74,90
56400,note_on,60,0,2,,,,,,,,,,,,,,,1,,,69,0
56460,note_on,60,0,2,,,,,,,,,,,,,,,1,,,70,0
56460,note_on,0,0,2,,,,,,,,,,,,,,,1,,,69,64
56460,note_on,60,0,1,,,,,,,,,,,,,,,0,,,74,0
56460,note_on,0,0,1,,,,,,,,,,,,,,,0,,,72,90
56520,note_on,60,0,1,,,,,,,,,,,,,,,0,,,72,0
56520,note_on,0,0,1,,,,,,,,,,,,,,,0,,,70,90
56520,note_on,60,0,2,,,,,,,,,,,,,,,1,,,69,0
56520,note_on,0,0,2,,,,,,,,,,,,,,,1,,,67,64
56580,note_on,60,0,2,,,,,,,,,,,,,,,1,,,67,0
56580,note_on,0,0,2,,,,,,,,,,,,,,,1,,,66,64
56580,note_on,60,0,1,,,,,,,,,,,,,,,0,,,70,0
56580,note_on,0,0,1,,,,,,,,,,,,,,,0,,,69,90
56640,note_on,60,0,1,,,,,,,,,,,,,,,0,,,69,0
56640,note_on,0,0,1,,,,,,,,,,,,,,,0,,,70,90
56640,note_on,0,0,2,,,,,,,,,,,,,,,1,,,67,64
56640,note_on,60,0,2,,,,,,,,,,,,,,,1,,,66,0
56700,note_on,60,0,1,,,,,,,,,,,,,,,0,,,70,0
56700,note_on,0,0,1,,,,,,,,,,,,,,,0,,,75,90
56760,note_on,60,0,1,,,,,,,,,,,,,,,0,,,75,0
56760,note_on,0,0,1,,,,,,,,,,,,,,,0,,,70,90
56820,note_on,60,0,1,,,,,,,,,,,,,,,0,,,70,0
56820,note_on,0,0,1,,,,,,,,,,,,,,,0,,,75,90
56880,note_on,0,0,1,,,,,,,,,,,,,,,0,,,69,90
56880,note_on,60,0,1,,,,,,,,,,,,,,,0,,,75,0
56940,note_on,0,0,1,,,,,,,,,,,,,,,0,,,74,90
56940,note_on,60,0,1,,,,,,,,,,,,,,,0,,,69,0
57000,note_on,360,0,2,,,,,,,,,,,,,,,1,,,67,0
57000,note_on,0,0,1,,,,,,,,,,,,,,,0,,,69,90
57000,note_on,0,0,2,,,,,,,,,,,,,,,1,,,65,64
57000,note_on,60,0,1,,,,,,,,,,,,,,,0,,,74,0
57060,note_on,60,0,1,,,,,,,,,,,,,,,0,,,69,0
57060,note_on,0,0,1,,,,,,,,,,,,,,,0,,,74,90
57120,note_on,60,0,1,,,,,,,,,,,,,,,0,,,74,0
57120,note_on,0,0,1,,,,,,,,,,,,,,,0,,,71,90
57180,note_on,60,0,1,,,,,,,,,,,,,,,0,,,71,0
57180,note_on,0,0,1,,,,,,,,,,,,,,,0,,,67,90
57240,note_on,60,0,1,,,,,,,,,,,,,,,0,,,67,0
57240,note_on,0,0,1,,,,,,,,,,,,,,,0,,,69,90
57240,note_on,0,0,2,,,,,,,,,,,,,,,1,,,63,64
57240,note_on,240,0,2,,,,,,,,,,,,,,,1,,,65,0
57300,note_on,0,0,1,,,,,,,,,,,,,,,0,,,71,90
57300,note_on,60,0,2,,,,,,,,,,,,,,,1,,,63,0
57300,note_on,0,0,2,,,,,,,,,,,,,,,1,,,62,64
57300,note_on,60,0,1,,,,,,,,,,,,,,,0,,,69,0
57360,note_on,60,0,2,,,,,,,,,,,,,,,1,,,62,0
57360,note_on,0,0,1,,,,,,,,,,,,,,,0,,,72,90
57360,note_on,60,0,1,,,,,,,,,,,,,,,0,,,71,0
57360,note_on,0,0,2,,,,,,,,,,,,,,,1,,,63,64
57420,note_on,0,0,1,,,,,,,,,,,,,,,0,,,79,90
57420,note_on,60,0,1,,,,,,,,,,,,,,,0,,,72,0
57480,note_on,60,0,1,,,,,,,,,,,,,,,0,,,79,0
57480,note_on,0,0,1,,,,,,,,,,,,,,,0,,,72,90
57480,note_on,0,0,2,,,,,,,,,,,,,,,1,,,68,64
57480,note_on,120,0,2,,,,,,,,,,,,,,,1,,,63,0
57540,note_on,60,0,1,,,,,,,,,,,,,,,0,,,72,0
57540,note_on,0,0,1,,,,,,,,,,,,,,,0,,,79,90
57600,note_on,0,0,2,,,,,,,,,,,,,,,1,,,62,64
57600,note_on,0,0,1,,,,,,,,,,,,,,,0,,,72,90
57600,note_on,60,0,1,,,,,,,,,,,,,,,0,,,79,0
57600,note_on,120,0,2,,,,,,,,,,,,,,,1,,,68,0
57660,note_on,0,0,1,,,,,,,,,,,,,,,0,,,77,90
57660,note_on,60,0,1,,,,,,,,,,,,,,,0,,,72,0
57720,note_on,0,0,1,,,,,,,,,,,,,,,0,,,72,90
57720,note_on,0,0,2,,,,,,,,,,,,,,,1,,,65,64
57720,note_on,120,0,2,,,,,,,,,,,,,,,1,,,62,0
57720,note_on,60,0,1,,,,,,,,,,,,,,,0,,,77,0
57780,note_on,0,0,1,,,,,,,,,,,,,,,0,,,77,90
57780,note_on,60,0,1,,,,,,,,,,,,,,,0,,,72,0
57840,note_on,60,0,1,,,,,,,,,,,,,,,0,,,77,0
57840,note_on,120,0,2,,,,,,,,,,,,,,,1,,,65,0
57840,note_on,0,0,2,,,,,,,,,,,,,,,1,,,67,64
57840,note_on,0,0,1,,,,,,,,,,,,,,,0,,,71,90
57900,note_on,60,0,1,,,,,,,,,,,,,,,0,,,71,0
57900,note_on,0,0,1,,,,,,,,,,,,,,,0,,,77,90
57960,note_on,60,0,1,,,,,,,,,,,,,,,0,,,77,0
57960,note_on,0,0,1,,,,,,,,,,,,,,,0,,,71,90
57960,note_on,120,0,2,,,,,,,,,,,,,,,1,,,67,0
57960,note_on,0,0,2,,,,,,,,,,,,,,,1,,,55,64
58020,note_on,60,0,1,,,,,,,,,,,,,,,0,,,71,0
58020,note_on,0,0,1,,,,,,,,,,,,,,,0,,,77,90
58080,note_on,60,0,1,,,,,,,,,,,,,,,0,,,77,0
58080,note_on,0,0,1,,,,,,,,,,,,,,,0,,,72,90
58080,note_on,120,0,2,,,,,,,,,,,,,,,1,,,55,0
58080,note_on,0,0,2,,,,,,,,,,,,,,,1,,,60,64
58140,note_on,60,0,1,,,,,,,,,,,,,,,0,,,72,0
58140,note_on,0,0,1,,,,,,,,,,,,,,,0,,,75,90
58200,note_on,120,0,2,,,,,,,,,,,,,,,1,,,60,0
58200,note_on,0,0,2,,,,,,,,,,,,,,,1,,,63,64
58200,note_on,60,0,1,,,,,,,,,,,,,,,0,,,75,0
58200,note_on,0,0,1,,,,,,,,,,,,,,,0,,,67,90
58260,note_on,60,0,1,,,,,,,,,,,,,,,0,,,67,0
58260,note_on,0,0,1,,,,,,,,,,,,,,,0,,,72,90
58320,note_on,60,0,1,,,,,,,,,,,,,,,0,,,72,0
58320,note_on,120,0,2,,,,,,,,,,,,,,,1,,,63,0
58320,note_on,0,0,2,,,,,,,,,,,,,,,1,,,62,64
58320,note_on,0,0,1,,,,,,,,,,,,,,,0,,,71,90
58380,note_on,60,0,1,,,,,,,,,,,,,,,0,,,71,0
58380,note_on,0,0,1,,,,,,,,,,,,,,,0,,,68,90
58440,note_on,60,0,1,,,,,,,,,,,,,,,0,,,68,0
58440,note_on,0,0,1,,,,,,,,,,,,,,,0,,,67,90
58440,note_on,0,0,2,,,,,,,,,,,,,,,1,,,59,64
58440,note_on,120,0,2,,,,,,,,,,,,,,,1,,,62,0
58500,note_on,60,0,1,,,,,,,,,,,,,,,0,,,67,0
58500,note_on,0,0,1,,,,,,,,,,,,,,,0,,,65,90
58560,note_on,0,0,2,,,,,,,,,,,,,,,1,,,48,85
58560,note_on,0,0,1,,,,,,,,,,,,,,,0,,,63,90
58560,note_on,0,0,2,,,,,,,,,,,,,,,1,,,60,85
58560,note_on,120,0,2,,,,,,,,,,,,,,,1,,,59,0
58560,note_on,60,0,1,,,,,,,,,,,,,,,0,,,65,0
58620,note_on,0,0,1,,,,,,,,,,,,,,,0,,,67,90
58620,note_on,60,0,1,,,,,,,,,,,,,,,0,,,63,0
58620,note_on,0,0,2,,,,,,,,,,,,,,,1,,,51,85
58620,note_on,60,0,2,,,,,,,,,,,,,,,1,,,48,0
58680,note_on,0,0,1,,,,,,,,,,,,,,,0,,,65,90
58680,note_on,60,0,2,,,,,,,,,,,,,,,1,,,51,0
58680,note_on,60,0,1,,,,,,,,,,,,,,,0,,,67,0
58680,note_on,0,0,2,,,,,,,,,,,,,,,1,,,50,85
58740,note_on,60,0,2,,,,,,,,,,,,,,,1,,,50,0
58740,note_on,0,0,2,,,,,,,,,,,,,,,1,,,51,85
58740,note_on,60,0,1,,,,,,,,,,,,,,,0,,,65,0
58740,note_on,0,0,1,,,,,,,,,,,,,,,0,,,67,90
58800,note_on,60,0,1,,,,,,,,,,,,,,,0,,,67,0
58800,note_on,60,0,2,,,,,,,,,,,,,,,1,,,51,0
58800,note_on,0,0,2,,,,,,,,,,,,,,,1,,,48,85
58800,note_on,0,0,1,,,,,,,,,,,,,,,0,,,63,90
58860,note_on,60,0,2,,,,,,,,,,,,,,,1,,,60,0
58860,note_on,0,0,2,,,,,,,,,,,,,,,1,,,55,85
58920,note_on,0,0,1,,,,,,,,,,,,,,,0,,,63,90
58920,note_on,0,0,2,,,,,,,,,,,,,,,1,,,48,0
58920,note_on,0,0,2,,,,,,,,,,,,,,,1,,,51,85
58920,note_on,0,0,2,,,,,,,,,,,,,,,1,,,60,85
58920,note_on,60,0,2,,,,,,,,,,,,,,,1,,,55,0
58920,note_on,120,0,1,,,,,,,,,,,,,,,0,,,63,0
58980,note_on,60,0,2,,,,,,,,,,,,,,,1,,,60,0
58980,note_on,0,0,2,,,,,,,,,,,,,,,1,,,55,85
59040,note_on,60,0,2,,,,,,,,,,,,,,,1,,,55,0
59040,note_on,0,0,2,,,,,,,,,,,,,,,1,,,51,0
59040,note_on,0,0,2,,,,,,,,,,,,,,,1,,,60,85
59040,note_on,120,0,1,,,,,,,,,,,,,,,0,,,63,0
59040,note_on,0,0,1,,,,,,,,,,,,,,,0,,,65,90
59040,note_on,0,0,2,,,,,,,,,,,,,,,1,,,50,85
59100,note_on,60,0,2,,,,,,,,,,,,,,,1,,,60,0
59100,note_on,0,0,2,,,,,,,,,,,,,,,1,,,53,85
59160,note_on,0,0,1,,,,,,,,,,,,,,,0,,,65,90
59160,note_on,60,0,2,,,,,,,,,,,,,,,1,,,53,0
59160,note_on,120,0,1,,,,,,,,,,,,,,,0,,,65,0
59160,note_on,0,0,2,,,,,,,,,,,,,,,1,,,60,85
59220,note_on,60,0,2,,,,,,,,,,,,,,,1,,,60,0
59220,note_on,0,0,2,,,,,,,,,,,,,,,1,,,53,85
59280,note_on,120,0,1,,,,,,,,,,,,,,,0,,,65,0
59280,note_on,0,0,1,,,,,,,,,,,,,,,0,,,65,90
59280,note_on,60,0,2,,,,,,,,,,,,,,,1,,,53,0
59280,note_on,0,0,2,,,,,,,,,,,,,,,1,,,50,0
59280,note_on,0,0,2,,,,,,,,,,,,,,,1,,,43,85
59280,note_on,0,0,2,,,,,,,,,,,,,,,1,,,59,85
59340,note_on,60,0,2,,,,,,,,,,,,,,,1,,,59,0
59340,note_on,0,0,2,,,,,,,,,,,,,,,1,,,55,85
59400,note_on,120,0,1,,,,,,,,,,,,,,,0,,,65,0
59400,note_on,0,0,1,,,,,,,,,,,,,,,0,,,65,90
59400,note_on,60,0,2,,,,,,,,,,,,,,,1,,,55,0
59400,note_on,0,0,2,,,,,,,,,,,,,,,1,,,59,85
59460,note_on,0,0,2,,,,,,,,,,,,,,,1,,,55,85
59460,note_on,60,0,2,,,,,,,,,,,,,,,1,,,59,0
59520,note_on,0,0,2,,,,,,,,,,,,,,,1,,,55,85
59520,note_on,0,0,2,,,,,,,,,,,,,,,1,,,48,85
59520,note_on,0,0,2,,,,,,,,,,,,,,,1,,,43,0
59520,note_on,60,0,2,,,,,,,,,,,,,,,1,,,55,0
59520,note_on,0,0,1,,,,,,,,,,,,,,,0,,,63,90
59520,note_on,120,0,1,,,,,,,,,,,,,,,0,,,65,0
59580,note_on,60,0,2,,,,,,,,,,,,,,,1,,,48,0
59580,note_on,0,0,2,,,,,,,,,,,,,,,1,,,51,85
59640,note_on,60,0,2,,,,,,,,,,,,,,,1,,,51,0
59640,note_on,0,0,2,,,,,,,,,,,,,,,1,,,50,85
59700,note_on,0,0,2,,,,,,,,,,,,,,,1,,,55,0
59700,note_on,180,0,1,,,,,,,,,,,,,,,0,,,63,0
59700,note_on,0,0,2,,,,,,,,,,,,,,,1,,,55,85
59700,note_on,0,0,2,,,,,,,,,,,,,,,1,,,51,85
59700,note_on,0,0,1,,,,,,,,,,,,,,,0,,,60,90
59700,note_on,60,0,2,,,,,,,,,,,,,,,1,,,50,0
59760,note_on,60,0,2,,,,,,,,,,,,,,,1,,,55,0
59760,note_on,0,0,2,,,,,,,,,,,,,,,1,,,51,0
59760,note_on,0,0,2,,,,,,,,,,,,,,,1,,,50,85
59760,note_on,0,0,2,,,,,,,,,,,,,,,1,,,53,85
59760,note_on,60,0,1,,,,,,,,,,,,,,,0,,,60,0
59760,note_on,0,0,1,,,,,,,,,,,,,,,0,,,59,100
59820,note_on,60,0,2,,,,,,,,,,,,,,,1,,,50,0
59820,note_on,0,0,2,,,,,,,,,,,,,,,1,,,53,85
59820,note_on,0,0,1,,,,,,,,,,,,,,,0,,,62,90
59820,note_on,60,0,1,,,,,,,,,,,,,,,0,,,59,0
59880,note_on,60,0,2,,,,,,,,,,,,,,,1,,,53,0
59880,note_on,0,0,2,,,,,,,,,,,,,,,1,,,51,85
59880,note_on,60,0,1,,,,,,,,,,,,,,,0,,,62,0
59880,note_on,0,0,1,,,,,,,,,,,,,,,0,,,60,90
59940,note_on,0,0,2,,,,,,,,,,,,,,,1,,,53,85
59940,note_on,60,0,2,,,,,,,,,,,,,,,1,,,51,0
59940,note_on,0,0,1,,,,,,,,,,,,,,,0,,,62,90
59940,note_on,60,0,1,,,,,,,,,,,,,,,0,,,60,0
60000,note_on,60,0,1,,,,,,,,,,,,,,,0,,,62,0
60000,note_on,60,0,2,,,,,,,,,,,,,,,1,,,53,0
60000,note_on,0,0,2,,,,,,,,,,,,,,,1,,,55,85
60000,note_on,0,0,2,,,,,,,,,,,,,,,1,,,51,85
60000,note_on,0,0,2,,,,,,,,,,,,,,,1,,,53,0
60000,note_on,0,0,1,,,,,,,,,,,,,,,0,,,60,90
60060,note_on,60,0,1,,,,,,,,,,,,,,,0,,,60,0
60060,note_on,0,0,1,,,,,,,,,,,,,,,0,,,67,90
60120,note_on,0,0,2,,,,,,,,,,,,,,,1,,,55,85
60120,note_on,60,0,1,,,,,,,,,,,,,,,0,,,67,0
60120,note_on,0,0,1,,,,,,,,,,,,,,,0,,,60,90
60120,note_on,120,0,2,,,,,,,,,,,,,,,1,,,55,0
60180,note_on,60,0,1,,,,,,,,,,,,,,,0,,,60,0
60180,note_on,0,0,1,,,,,,,,,,,,,,,0,,,65,90
60240,note_on,0,0,1,,,,,,,,,,,,,,,0,,,60,90
60240,note_on,60,0,1,,,,,,,,,,,,,,,0,,,65,0
60240,note_on,0,0,2,,,,,,,,,,,,,,,1,,,48,85
60240,note_on,120,0,2,,,,,,,,,,,,,,,1,,,51,0
60300,note_on,0,0,1,,,,,,,,,,,,,,,0,,,63,90
60300,note_on,60,0,1,,,,,,,,,,,,,,,0,,,60,0
60360,note_on,120,0,2,,,,,,,,,,,,,,,1,,,55,0
60360,note_on,0,0,2,,,,,,,,,,,,,,,1,,,53,85
60360,note_on,0,0,1,,,,,,,,,,,,,,,0,,,59,100
60360,note_on,60,0,1,,,,,,,,,,,,,,,0,,,63,0
60420,note_on,60,0,1,,,,,,,,,,,,,,,0,,,59,0
60420,note_on,0,0,1,,,,,,,,,,,,,,,0,,,62,90
60480,note_on,120,0,2,,,,,,,,,,,,,,,1,,,53,0
60480,note_on,0,0,2,,,,,,,,,,,,,,,1,,,48,0
60480,note_on,0,0,2,,,,,,,,,,,,,,,1,,,51,85
60480,note_on,0,0,2,,,,,,,,,,,,,,,1,,,55,85
60480,note_on,60,0,1,,,,,,,,,,,,,,,0,,,62,0
60480,note_on,0,0,1,,,,,,,,,,,,,,,0,,,60,90
60540,note_on,60,0,2,,,,,,,,,,,,,,,1,,,51,0
60540,note_on,0,0,2,,,,,,,,,,,,,,,1,,,55,85
60600,note_on,0,0,1,,,,,,,,,,,,,,,0,,,63,90
60600,note_on,60,0,2,,,,,,,,,,,,,,,1,,,55,0
60600,note_on,0,0,2,,,,,,,,,,,,,,,1,,,55,0
60600,note_on,0,0,2,,,,,,,,,,,,,,,1,,,53,85
60600,note_on,0,0,2,,,,,,,,,,,,,,,1,,,60,85
60600,note_on,120,0,1,,,,,,,,,,,,,,,0,,,60,0
60660,note_on,60,0,2,,,,,,,,,,,,,,,1,,,53,0
60660,note_on,0,0,2,,,,,,,,,,,,,,,1,,,55,85
60720,note_on,0,0,1,,,,,,,,,,,,,,,0,,,62,90
60720,note_on,120,0,1,,,,,,,,,,,,,,,0,,,63,0
60720,note_on,60,0,2,,,,,,,,,,,,,,,1,,,55,0
60720,note_on,0,0,2,,,,,,,,,,,,,,,1,,,53,85
60780,note_on,0,0,2,,,,,,,,,,,,,,,1,,,56,85
60780,note_on,60,0,2,,,,,,,,,,,,,,,1,,,53,0
60840,note_on,60,0,2,,,,,,,,,,,,,,,1,,,56,0
60840,note_on,120,0,1,,,,,,,,,,,,,,,0,,,62,0
60840,note_on,0,0,1,,,,,,,,,,,,,,,0,,,65,90
60840,note_on,0,0,2,,,,,,,,,,,,,,,1,,,60,85
60840,note_on,0,0,2,,,,,,,,,,,,,,,1,,,55,85
60840,note_on,0,0,2,,,,,,,,,,,,,,,1,,,60,0
60900,note_on,0,0,2,,,,,,,,,,,,,,,1,,,56,85
60900,note_on,60,0,2,,,,,,,,,,,,,,,1,,,55,0
60960,note_on,0,0,2,,,,,,,,,,,,,,,1,,,55,85
60960,note_on,0,0,2,,,,,,,,,,,,,,,1,,,59,85
60960,note_on,60,0,2,,,,,,,,,,,,,,,1,,,56,0
60960,note_on,0,0,2,,,,,,,,,,,,,,,1,,,60,0
60960,note_on,120,0,1,,,,,,,,,,,,,,,0,,,65,0
60960,note_on,0,0,1,,,,,,,,,,,,,,,0,,,65,90
61020,note_on,60,0,1,,,,,,,,,,,,,,,0,,,65,0
61020,note_on,0,0,1,,,,,,,,,,,,,,,0,,,62,90
61080,note_on,60,0,1,,,,,,,,,,,,,,,0,,,62,0
61080,note_on,0,0,1,,,,,,,,,,,,,,,0,,,63,90
61140,note_on,60,0,1,,,,,,,,,,,,,,,0,,,63,0
61140,note_on,180,0,2,,,,,,,,,,,,,,,1,,,55,0
61140,note_on,0,0,1,,,,,,,,,,,,,,,0,,,65,90
61140,note_on,0,0,2,,,,,,,,,,,,,,,1,,,56,85
61200,note_on,60,0,2,,,,,,,,,,,,,,,1,,,56,0
61200,note_on,60,0,1,,,,,,,,,,,,,,,0,,,65,0
61200,note_on,0,0,2,,,,,,,,,,,,,,,1,,,55,85
61200,note_on,0,0,1,,,,,,,,,,,,,,,0,,,67,90
61260,note_on,60,0,1,,,,,,,,,,,,,,,0,,,67,0
61260,note_on,0,0,2,,,,,,,,,,,,,,,1,,,53,85
61260,note_on,0,0,1,,,,,,,,,,,,,,,0,,,68,90
61260,note_on,60,0,2,,,,,,,,,,,,,,,1,,,55,0
61320,note_on,60,0,2,,,,,,,,,,,,,,,1,,,53,0
61320,note_on,0,0,1,,,,,,,,,,,,,,,0,,,67,90
61320,note_on,60,0,1,,,,,,,,,,,,,,,0,,,68,0
61320,note_on,0,0,2,,,,,,,,,,,,,,,1,,,51,85
61380,note_on,60,0,2,,,,,,,,,,,,,,,1,,,51,0
61380,note_on,0,0,1,,,,,,,,,,,,,,,0,,,65,90
61380,note_on,60,0,1,,,,,,,,,,,,,,,0,,,67,0
61380,note_on,0,0,2,,,,,,,,,,,,,,,1,,,50,85
61440,note_on,0,0,2,,,,,,,,,,,,,,,1,,,59,0
61440,note_on,0,0,2,,,,,,,,,,,,,,,1,,,48,85
61440,note_on,60,0,2,,,,,,,,,,,,,,,1,,,50,0
61440,note_on,60,0,1,,,,,,,,,,,,,,,0,,,65,0
61440,note_on,0,0,1,,,,,,,,,,,,,,,0,,,60,90
61440,note_on,0,0,1,,,,,,,,,,,,,,,0,,,63,90
61500,note_on,0,0,1,,,,,,,,,,,,,,,0,,,62,90
61500,note_on,60,0,1,,,,,,,,,,,,,,,0,,,63,0
61560,note_on,0,0,1,,,,,,,,,,,,,,,0,,,63,90
61560,note_on,60,0,1,,,,,,,,,,,,,,,0,,,62,0
61560,note_on,0,0,2,,,,,,,,,,,,,,,1,,,56,85
61560,note_on,120,0,2,,,,,,,,,,,,,,,1,,,48,0
61620,note_on,60,0,1,,,,,,,,,,,,,,,0,,,63,0
61620,note_on,0,0,1,,,,,,,,,,,,,,,0,,,65,90
61680,note_on,120,0,2,,,,,,,,,,,,,,,1,,,56,0
61680,note_on,0,0,2,,,,,,,,,,,,,,,1,,,53,85
61680,note_on,0,0,1,,,,,,,,,,,,,,,0,,,62,90
61680,note_on,0,0,1,,,,,,,,,,,,,,,0,,,60,0
61680,note_on,60,0,1,,,,,,,,,,,,,,,0,,,65,0
61710,note_on,0,0,1,,,,,,,,,,,,,,,0,,,63,90
61710,note_on,30,0,1,,,,,,,,,,,,,,,0,,,62,0
61740,note_on,0,0,1,,,,,,,,,,,,,,,0,,,62,90
61740,note_on,30,0,1,,,,,,,,,,,,,,,0,,,63,0
61800,note_on,60,0,1,,,,,,,,,,,,,,,0,,,58,90
61800,note_on,120,0,2,,,,,,,,,,,,,,,1,,,53,0
61800,note_on,0,0,2,,,,,,,,,,,,,,,1,,,55,85
61860,note_on,60,0,1,,,,,,,,,,,,,,,0,,,62,0
61860,note_on,0,0,1,,,,,,,,,,,,,,,0,,,62,90
61920,note_on,60,0,1,,,,,,,,,,,,,,,0,,,62,0
61920,note_on,0,0,1,,,,,,,,,,,,,,,0,,,58,0
61920,note_on,0,0,1,,,,,,,,,,,,,,,0,,,60,90
61920,note_on,0,0,1,,,,,,,,,,,,,,,0,,,57,90
61980,note_on,60,0,1,,,,,,,,,,,,,,,0,,,60,0
61980,note_on,0,0,1,,,,,,,,,,,,,,,0,,,72,90
62040,note_on,0,0,1,,,,,,,,,,,,,,,0,,,69,90
62040,note_on,60,0,1,,,,,,,,,,,,,,,0,,,57,0
62040,note_on,240,0,2,,,,,,,,,,,,,,,1,,,55,0
62040,note_on,0,0,2,,,,,,,,,,,,,,,1,,,54,85
62100,note_on,0,0,1,,,,,,,,,,,,,,,0,,,72,90
62100,note_on,60,0,1,,,,,,,,,,,,,,,0,,,72,0
62160,note_on,0,0,1,,,,,,,,,,,,,,,0,,,70,90
62160,note_on,60,0,1,,,,,,,,,,,,,,,0,,,72,0
62160,note_on,120,0,2,,,,,,,,,,,,,,,1,,,54,0
62160,note_on,0,0,2,,,,,,,,,,,,,,,1,,,55,85
62220,note_on,60,0,1,,,,,,,,,,,,,,,0,,,69,0
62220,note_on,0,0,1,,,,,,,,,,,,,,,0,,,67,90
62280,note_on,0,0,2,,,,,,,,,,,,,,,1,,,50,85
62280,note_on,120,0,2,,,,,,,,,,,,,,,1,,,55,0
62280,note_on,60,0,1,,,,,,,,,,,,,,,0,,,67,0
62280,note_on,0,0,1,,,,,,,,,,,,,,,0,,,65,90
62340,note_on,0,0,1,,,,,,,,,,,,,,,0,,,68,90
62340,note_on,60,0,1,,,,,,,,,,,,,,,0,,,70,0
62400,note_on,0,0,2,,,,,,,,,,,,,,,1,,,51,85
62400,note_on,120,0,2,,,,,,,,,,,,,,,1,,,50,0
62400,note_on,60,0,1,,,,,,,,,,,,,,,0,,,68,0
62400,note_on,0,0,1,,,,,,,,,,,,,,,0,,,65,0
62400,note_on,0,0,1,,,,,,,,,,,,,,,0,,,67,90
62460,note_on,60,0,1,,,,,,,,,,,,,,,0,,,79,90
62520,note_on,0,0,2,,,,,,,,,,,,,,,1,,,47,85
62520,note_on,120,0,2,,,,,,,,,,,,,,,1,,,51,0
62520,note_on,60,0,1,,,,,,,,,,,,,,,0,,,67,0
62520,note_on,0,0,1,,,,,,,,,,,,,,,0,,,74,90
62580,note_on,0,0,1,,,,,,,,,,,,,,,0,,,77,90
62580,note_on,60,0,1,,,,,,,,,,,,,,,0,,,79,0
62640,note_on,0,0,2,,,,,,,,,,,,,,,1,,,48,85
62640,note_on,0,0,1,,,,,,,,,,,,,,,0,,,75,90
62640,note_on,60,0,1,,,,,,,,,,,,,,,0,,,77,0
62640,note_on,120,0,2,,,,,,,,,,,,,,,1,,,47,0
62700,note_on,0,0,1,,,,,,,,,,,,,,,0,,,72,90
62700,note_on,60,0,1,,,,,,,,,,,,,,,0,,,74,0
62760,note_on,120,0,2,,,,,,,,,,,,,,,1,,,48,0
62760,note_on,0,0,1,,,,,,,,,,,,,,,0,,,70,90
62760,note_on,60,0,1,,,,,,,,,,,,,,,0,,,72,0
62760,note_on,0,0,2,,,,,,,,,,,,,,,1,,,55,85
62820,note_on,0,0,1,,,,,,,,,,,,,,,0,,,74,90
62820,note_on,60,0,1,,,,,,,,,,,,,,,0,,,75,0
62880,note_on,120,0,2,,,,,,,,,,,,,,,1,,,55,0
62880,note_on,0,0,2,,,,,,,,,,,,,,,1,,,54,85
62880,note_on,60,0,1,,,,,,,,,,,,,,,0,,,74,0
62880,note_on,0,0,1,,,,,,,,,,,,,,,0,,,72,90
62940,note_on,0,0,1,,,,,,,,,,,,,,,0,,,69,90
62940,note_on,60,0,1,,,,,,,,,,,,,,,0,,,70,0
63000,note_on,120,0,2,,,,,,,,,,,,,,,1,,,54,0
63000,note_on,60,0,1,,,,,,,,,,,,,,,0,,,69,0
63000,note_on,0,0,2,,,,,,,,,,,,,,,1,,,55,85
63000,note_on,0,0,1,,,,,,,,,,,,,,,0,,,67,90
63060,note_on,60,0,1,,,,,,,,,,,,,,,0,,,72,0
63060,note_on,0,0,1,,,,,,,,,,,,,,,0,,,70,90
63120,note_on,60,0,1,,,,,,,,,,,,,,,0,,,70,0
63120,note_on,0,0,1,,,,,,,,,,,,,,,0,,,68,90
63120,note_on,0,0,2,,,,,,,,,,,,,,,1,,,60,85
63120,note_on,120,0,2,,,,,,,,,,,,,,,1,,,55,0
63180,note_on,0,0,1,,,,,,,,,,,,,,,0,,,67,90
63180,note_on,60,0,1,,,,,,,,,,,,,,,0,,,67,0
63240,note_on,60,0,1,,,,,,,,,,,,,,,0,,,67,0
63240,note_on,0,0,1,,,,,,,,,,,,,,,0,,,65,90
63240,note_on,120,0,2,,,,,,,,,,,,,,,1,,,60,0
63240,note_on,0,0,2,,,,,,,,,,,,,,,1,,,62,85
63300,note_on,60,0,1,,,,,,,,,,,,,,,0,,,68,0
63300,note_on,0,0,1,,,,,,,,,,,,,,,0,,,70,90
63360,note_on,0,0,1,,,,,,,,,,,,,,,0,,,67,90
63360,note_on,60,0,1,,,,,,,,,,,,,,,0,,,70,0
63360,note_on,0,0,2,,,,,,,,,,,,,,,1,,,63,85
63360,note_on,120,0,2,,,,,,,,,,,,,,,1,,,62,0
63420,note_on,0,0,1,,,,,,,,,,,,,,,0,,,65,90
63420,note_on,60,0,1,,,,,,,,,,,,,,,0,,,65,0
63480,note_on,120,0,2,,,,,,,,,,,,,,,1,,,63,0
63480,note_on,60,0,1,,,,,,,,,,,,,,,0,,,65,0
63480,note_on,0,0,1,,,,,,,,,,,,,,,0,,,63,90
63480,note_on,0,0,2,,,,,,,,,,,,,,,1,,,58,85
63540,note_on,60,0,1,,,,,,,,,,,,,,,0,,,63,0
63540,note_on,0,0,1,,,,,,,,,,,,,,,0,,,62,90
63600,note_on,0,0,2,,,,,,,,,,,,,,,1,,,60,85
63600,note_on,120,0,2,,,,,,,,,,,,,,,1,,,58,0
63600,note_on,60,0,1,,,,,,,,,,,,,,,0,,,62,0
63600,note_on,0,0,1,,,,,,,,,,,,,,,0,,,63,90
63608,set_tempo,35768,1,0,,,,,,,,,,,,833333,,,,,,,
63660,note_on,60,0,1,,,,,,,,,,,,,,,0,,,67,0
63660,note_on,0,0,1,,,,,,,,,,,,,,,0,,,68,90
63720,note_on,0,0,2,,,,,,,,,,,,,,,1,,,58,85
63720,note_on,120,0,2,,,,,,,,,,,,,,,1,,,60,0
63720,note_on,60,0,1,,,,,,,,,,,,,,,0,,,63,0
63720,note_on,0,0,1,,,,,,,,,,,,,,,0,,,62,90
63780,note_on,0,0,1,,,,,,,,,,,,,,,0,,,67,90
63780,note_on,60,0,1,,,,,,,,,,,,,,,0,,,68,0
63840,note_on,0,0,2,,,,,,,,,,,,,,,1,,,56,85
63840,note_on,120,0,2,,,,,,,,,,,,,,,1,,,58,0
63840,note_on,60,0,1,,,,,,,,,,,,,,,0,,,62,0
63840,note_on,0,0,1,,,,,,,,,,,,,,,0,,,60,90
63852,set_tempo,244,1,0,,,,,,,,,,,,895522,,,,,,,
63900,note_on,60,0,1,,,,,,,,,,,,,,,0,,,67,0
63900,note_on,0,0,1,,,,,,,,,,,,,,,0,,,65,90
63960,note_on,60,0,1,,,,,,,,,,,,,,,0,,,60,0
63960,note_on,0,0,2,,,,,,,,,,,,,,,1,,,58,85
63960,note_on,0,0,2,,,,,,,,,,,,,,,1,,,55,85
63960,note_on,120,0,2,,,,,,,,,,,,,,,1,,,56,0
64020,note_on,60,0,1,,,,,,,,,,,,,,,0,,,65,0
64020,note_on,0,0,1,,,,,,,,,,,,,,,0,,,63,90
64080,note_on,0,0,2,,,,,,,,,,,,,,,1,,,56,85
64080,note_on,0,0,2,,,,,,,,,,,,,,,1,,,55,0
64080,note_on,120,0,2,,,,,,,,,,,,,,,1,,,58,0
64080,note_on,0,0,2,,,,,,,,,,,,,,,1,,,53,85
64092,set_tempo,240,1,0,,,,,,,,,,,,952381,,,,,,,
64096,set_tempo,4,1,0,,,,,,,,,,,,895522,,,,,,,
64140,note_on,120,0,1,,,,,,,,,,,,,,,0,,,63,0
64140,note_on,0,0,1,,,,,,,,,,,,,,,0,,,62,90
64200,note_on,0,0,2,,,,,,,,,,,,,,,1,,,55,85
64200,note_on,0,0,2,,,,,,,,,,,,,,,1,,,51,85
64200,note_on,0,0,2,,,,,,,,,,,,,,,1,,,56,0
64200,note_on,120,0,2,,,,,,,,,,,,,,,1,,,53,0
64260,note_on,120,0,1,,,,,,,,,,,,,,,0,,,62,0
64260,note_on,0,0,1,,,,,,,,,,,,,,,0,,,60,90
64320,note_on,120,0,2,,,,,,,,,,,,,,,1,,,55,0
64320,note_on,0,0,2,,,,,,,,,,,,,,,1,,,50,85
64320,note_on,0,0,2,,,,,,,,,,,,,,,1,,,53,85
64320,note_on,0,0,2,,,,,,,,,,,,,,,1,,,51,0
64320,set_tempo,224,1,0,,,,,,,,,,,,909091,,,,,,,
64380,note_on,120,0,1,,,,,,,,,,,,,,,0,,,60,0
64380,note_on,0,0,1,,,,,,,,,,,,,,,0,,,60,90
64440,note_on,0,0,1,,,,,,,,,,,,,,,0,,,62,90
64440,note_on,60,0,1,,,,,,,,,,,,,,,0,,,60,0
64500,note_on,0,0,1,,,,,,,,,,,,,,,0,,,60,90
64500,note_on,60,0,1,,,,,,,,,,,,,,,0,,,62,0
64560,note_on,60,0,1,,,,,,,,,,,,,,,0,,,60,0
64560,note_on,0,0,1,,,,,,,,,,,,,,,0,,,59,90
64560,note_on,0,0,2,,,,,,,,,,,,,,,1,,,43,85
64560,note_on,240,0,2,,,,,,,,,,,,,,,1,,,50,0
64560,note_on,0,0,2,,,,,,,,,,,,,,,1,,,53,0
64560,note_on,0,0,2,,,,,,,,,,,,,,,1,,,55,85
64620,note_on,60,0,1,,,,,,,,,,,,,,,0,,,59,0
64620,note_on,0,0,1,,,,,,,,,,,,,,,0,,,60,90
64680,note_on,0,0,2,,,,,,,,,,,,,,,1,,,53,85
64680,note_on,120,0,2,,,,,,,,,,,,,,,1,,,55,0
64680,note_on,60,0,1,,,,,,,,,,,,,,,0,,,60,0
64680,note_on,0,0,1,,,,,,,,,,,,,,,0,,,57,90
64740,note_on,0,0,1,,,,,,,,,,,,,,,0,,,59,90
64740,note_on,60,0,1,,,,,,,,,,,,,,,0,,,57,0
64800,note_on,120,0,2,,,,,,,,,,,,,,,1,,,53,0
64800,note_on,0,0,2,,,,,,,,,,,,,,,1,,,43,0
64800,note_on,0,0,2,,,,,,,,,,,,,,,1,,,51,85
64800,note_on,0,0,2,,,,,,,,,,,,,,,1,,,48,85
64800,note_on,60,0,1,,,,,,,,,,,,,,,0,,,59,0
64800,note_on,0,0,1,,,,,,,,,,,,,,,0,,,60,110
64812,set_tempo,492,1,0,,,,,,,,,,,,800000,,,,,,,
64860,note_on,0,0,1,,,,,,,,,,,,,,,0,,,63,110
64860,note_on,60,0,1,,,,,,,,,,,,,,,0,,,60,0
64920,note_on,0,0,1,,,,,,,,,,,,,,,0,,,62,110
64920,note_on,60,0,1,,,,,,,,,,,,,,,0,,,63,0
64980,note_on,0,0,1,,,,,,,,,,,,,,,0,,,63,110
64980,note_on,60,0,1,,,,,,,,,,,,,,,0,,,62,0
65040,note_on,60,0,1,,,,,,,,,,,,,,,0,,,63,0
65040,note_on,0,0,2,,,,,,,,,,,,,,,1,,,36,85
65040,note_on,0,0,2,,,,,,,,,,,,,,,1,,,51,0
65040,note_on,240,0,2,,,,,,,,,,,,,,,1,,,48,0
65040,note_on,0,0,1,,,,,,,,,,,,,,,0,,,60,110
65160,note_on,120,0,2,,,,,,,,,,,,,,,1,,,55,85
65160,note_on,120,0,1,,,,,,,,,,,,,,,0,,,60,0
65160,note_on,0,0,1,,,,,,,,,,,,,,,0,,,60,110
65160,note_on,0,0,1,,,,,,,,,,,,,,,0,,,63,110
65280,note_on,120,0,1,,,,,,,,,,,,,,,0,,,63,0
65280,note_on,0,0,1,,,,,,,,,,,,,,,0,,,60,0
65280,note_on,0,0,2,,,,,,,,,,,,,,,1,,,55,85
65280,note_on,0,0,1,,,,,,,,,,,,,,,0,,,62,110
65280,note_on,0,0,1,,,,,,,,,,,,,,,0,,,59,110
65280,note_on,120,0,2,,,,,,,,,,,,,,,1,,,55,0
65280,note_on,0,0,2,,,,,,,,,,,,,,,1,,,43,85
65280,note_on,0,0,2,,,,,,,,,,,,,,,1,,,36,0
65340,note_on,0,0,2,,,,,,,,,,,,,,,1,,,47,85
65340,note_on,60,0,2,,,,,,,,,,,,,,,1,,,43,0
65400,note_on,60,0,2,,,,,,,,,,,,,,,1,,,47,0
65400,note_on,0,0,2,,,,,,,,,,,,,,,1,,,45,85
65460,note_on,0,0,2,,,,,,,,,,,,,,,1,,,47,85
65460,note_on,60,0,2,,,,,,,,,,,,,,,1,,,45,0
65520,note_on,0,0,1,,,,,,,,,,,,,,,0,,,59,110
65520,note_on,0,0,1,,,,,,,,,,,,,,,0,,,59,0
65520,note_on,240,0,1,,,,,,,,,,,,,,,0,,,62,0
65520,note_on,0,0,2,,,,,,,,,,,,,,,1,,,43,85
65520,note_on,0,0,2,,,,,,,,,,,,,,,1,,,55,85
65520,note_on,0,0,2,,,,,,,,,,,,,,,1,,,55,0
65520,note_on,60,0,2,,,,,,,,,,,,,,,1,,,47,0
65520,note_on,0,0,1,,,,,,,,,,,,,,,0,,,62,110
65580,note_on,0,0,2,,,,,,,,,,,,,,,1,,,47,85
65580,note_on,60,0,2,,,,,,,,,,,,,,,1,,,43,0
65640,note_on,0,0,2,,,,,,,,,,,,,,,1,,,45,85
65640,note_on,60,0,2,,,,,,,,,,,,,,,1,,,47,0
65700,note_on,0,0,2,,,,,,,,,,,,,,,1,,,47,85
65700,note_on,60,0,2,,,,,,,,,,,,,,,1,,,45,0
65760,note_on,38400,0,3,,,,,,,,,,,,,,,2,,,36,115
65760,note_on,0,0,1,,,,,,,,,,,,,,,0,,,63,110
65760,note_on,0,0,2,,,,,,,,,,,,,,,1,,,55,85
65760,note_on,0,0,2,,,,,,,,,,,,,,,1,,,55,0
65760,note_on,60,0,2,,,,,,,,,,,,,,,1,,,47,0
65760,note_on,0,0,1,,,,,,,,,,,,,,,0,,,60,110
65760,note_on,240,0,1,,,,,,,,,,,,,,,0,,,62,0
65760,note_on,0,0,1,,,,,,,,,,,,,,,0,,,59,0
65820,note_on,0,0,3,,,,,,,,,,,,,,,2,,,39,115
65820,note_on,60,0,3,,,,,,,,,,,,,,,2,,,36,0
65880,note_on,0,0,3,,,,,,,,,,,,,,,2,,,38,115
65880,note_on,60,0,3,,,,,,,,,,,,,,,2,,,39,0
65940,note_on,0,0,3,,,,,,,,,,,,,,,2,,,39,115
65940,note_on,60,0,3,,,,,,,,,,,,,,,2,,,38,0
66000,note_on,240,0,2,,,,,,,,,,,,,,,1,,,55,0
66000,note_on,0,0,3,,,,,,,,,,,,,,,2,,,36,115
66000,note_on,0,0,1,,,,,,,,,,,,,,,0,,,60,0
66000,note_on,60,0,3,,,,,,,,,,,,,,,2,,,39,0
66000,note_on,240,0,1,,,,,,,,,,,,,,,0,,,63,0
66120,note_on,120,0,3,,,,,,,,,,,,,,,2,,,36,0
66120,note_on,0,0,3,,,,,,,,,,,,,,,2,,,39,115
66120,note_on,120,0,2,,,,,,,,,,,,,,,1,,,60,85
66120,note_on,0,0,2,,,,,,,,,,,,,,,1,,,55,85
66180,note_on,180,0,1,,,,,,,,,,,,,,,0,,,72,110
66180,note_on,0,0,1,,,,,,,,,,,,,,,0,,,67,110
66180,note_on,0,0,1,,,,,,,,,,,,,,,0,,,63,110
66240,note_on,0,0,2,,,,,,,,,,,,,,,1,,,60,0
66240,note_on,120,0,3,,,,,,,,,,,,,,,2,,,39,0
66240,note_on,0,0,2,,,,,,,,,,,,,,,1,,,53,100
66240,note_on,120,0,2,,,,,,,,,,,,,,,1,,,55,0
66240,note_on,0,0,2,,,,,,,,,,,,,,,1,,,56,100
66240,note_on,0,0,1,,,,,,,,,,,,,,,0,,,72,0
66240,note_on,60,0,1,,,,,,,,,,,,,,,0,,,63,0
66240,note_on,0,0,1,,,,,,,,,,,,,,,0,,,67,0
66240,note_on,0,0,3,,,,,,,,,,,,,,,2,,,38,115
66300,note_on,0,0,1,,,,,,,,,,,,,,,0,,,68,110
66300,note_on,60,0,1,,,,,,,,,,,,,,,0,,,72,110
66300,note_on,0,0,1,,,,,,,,,,,,,,,0,,,65,110
66300,note_on,0,0,1,,,,,,,,,,,,,,,0,,,62,110
66360,note_on,60,0,1,,,,,,,,,,,,,,,0,,,62,0
66360,note_on,0,0,1,,,,,,,,,,,,,,,0,,,68,0
66360,note_on,0,0,1,,,,,,,,,,,,,,,0,,,65,0
66360,note_on,120,0,2,,,,,,,,,,,,,,,1,,,56,0
66360,note_on,0,0,2,,,,,,,,,,,,,,,1,,,53,0
66360,note_on,0,0,2,,,,,,,,,,,,,,,1,,,53,100
66360,note_on,0,0,2,,,,,,,,,,,,,,,1,,,56,100
66360,note_on,0,0,1,,,,,,,,,,,,,,,0,,,72,0
66420,note_on,0,0,1,,,,,,,,,,,,,,,0,,,62,110
66420,note_on,0,0,1,,,,,,,,,,,,,,,0,,,65,110
66420,note_on,60,0,1,,,,,,,,,,,,,,,0,,,72,110
66420,note_on,0,0,1,,,,,,,,,,,,,,,0,,,68,110
66480,note_on,60,0,1,,,,,,,,,,,,,,,0,,,62,0
66480,note_on,0,0,1,,,,,,,,,,,,,,,0,,,65,0
66480,note_on,0,0,1,,,,,,,,,,,,,,,0,,,68,0
66480,note_on,0,0,1,,,,,,,,,,,,,,,0,,,72,0
66480,note_on,0,0,2,,,,,,,,,,,,,,,1,,,53,0
66480,note_on,120,0,2,,,,,,,,,,,,,,,1,,,56,0
66480,note_on,0,0,2,,,,,,,,,,,,,,,1,,,55,100
66480,note_on,0,0,2,,,,,,,,,,,,,,,1,,,50,100
66480,note_on,240,0,3,,,,,,,,,,,,,,,2,,,38,0
66480,note_on,0,0,3,,,,,,,,,,,,,,,2,,,31,115
66540,note_on,60,0,1,,,,,,,,,,,,,,,0,,,71,110
66540,note_on,0,0,1,,,,,,,,,,,,,,,0,,,62,110
66540,note_on,0,0,1,,,,,,,,,,,,,,,0,,,67,110
66540,note_on,0,0,1,,,,,,,,,,,,,,,0,,,65,110
66600,note_on,0,0,1,,,,,,,,,,,,,,,0,,,65,0
66600,note_on,0,0,1,,,,,,,,,,,,,,,0,,,71,0
66600,note_on,60,0,1,,,,,,,,,,,,,,,0,,,62,0
66600,note_on,0,0,1,,,,,,,,,,,,,,,0,,,67,0
66600,note_on,120,0,2,,,,,,,,,,,,,,,1,,,55,0
66600,note_on,0,0,2,,,,,,,,,,,,,,,1,,,50,0
66600,note_on,0,0,2,,,,,,,,,,,,,,,1,,,50,100
66600,note_on,0,0,2,,,,,,,,,,,,,,,1,,,55,100
66660,note_on,60,0,1,,,,,,,,,,,,,,,0,,,71,110
66660,note_on,0,0,1,,,,,,,,,,,,,,,0,,,62,110
66660,note_on,0,0,1,,,,,,,,,,,,,,,0,,,65,110
66660,note_on,0,0,1,,,,,,,,,,,,,,,0,,,67,110
66720,note_on,120,0,2,,,,,,,,,,,,,,,1,,,55,0
66720,note_on,0,0,2,,,,,,,,,,,,,,,1,,,50,0
66720,note_on,0,0,1,,,,,,,,,,,,,,,0,,,67,110
66720,note_on,0,0,1,,,,,,,,,,,,,,,0,,,72,110
66720,note_on,240,0,3,,,,,,,,,,,,,,,2,,,31,0
66720,note_on,0,0,3,,,,,,,,,,,,,,,2,,,36,115
66720,note_on,60,0,1,,,,,,,,,,,,,,,0,,,62,0
66720,note_on,0,0,1,,,,,,,,,,,,,,,0,,,71,0
66720,note_on,0,0,1,,,,,,,,,,,,,,,0,,,67,0
66720,note_on,0,0,1,,,,,,,,,,,,,,,0,,,65,0
66720,note_on,0,0,1,,,,,,,,,,,,,,,0,,,60,110
66720,note_on,0,0,1,,,,,,,,,,,,,,,0,,,63,110
66720,note_on,0,0,2,,,,,,,,,,,,,,,1,,,51,100
66720,note_on,0,0,2,,,,,,,,,,,,,,,1,,,55,100
66780,note_on,60,0,3,,,,,,,,,,,,,,,2,,,36,0
66780,note_on,0,0,3,,,,,,,,,,,,,,,2,,,39,115
66840,note_on,0,0,1,,,,,,,,,,,,,,,0,,,63,0
66840,note_on,0,0,1,,,,,,,,,,,,,,,0,,,67,0
66840,note_on,0,0,1,,,,,,,,,,,,,,,0,,,72,0
66840,note_on,120,0,1,,,,,,,,,,,,,,,0,,,60,0
66840,note_on,0,0,2,,,,,,,,,,,,,,,1,,,51,0
66840,note_on,0,0,3,,,,,,,,,,,,,,,2,,,38,115
66840,note_on,60,0,3,,,,,,,,,,,,,,,2,,,39,0
66840,note_on,120,0,2,,,,,,,,,,,,,,,1,,,55,0
66900,note_on,0,0,3,,,,,,,,,,,,,,,2,,,39,115
66900,note_on,60,0,3,,,,,,,,,,,,,,,2,,,38,0
66960,note_on,120,0,2,,,,,,,,,,,,,,,1,,,62,100
66960,note_on,0,0,3,,,,,,,,,,,,,,,2,,,38,115
66960,note_on,60,0,3,,,,,,,,,,,,,,,2,,,39,0
66960,note_on,0,0,1,,,,,,,,,,,,,,,0,,,67,110
66960,note_on,0,0,1,,,,,,,,,,,,,,,0,,,65,110
66960,note_on,0,0,2,,,,,,,,,,,,,,,1,,,59,100
66960,note_on,120,0,1,,,,,,,,,,,,,,,0,,,71,110
67020,note_on,0,0,3,,,,,,,,,,,,,,,2,,,41,115
67020,note_on,60,0,3,,,,,,,,,,,,,,,2,,,38,0
67080,note_on,60,0,3,,,,,,,,,,,,,,,2,,,41,0
67080,note_on,0,0,3,,,,,,,,,,,,,,,2,,,39,115
67080,note_on,0,0,2,,,,,,,,,,,,,,,1,,,62,0
67080,note_on,120,0,2,,,,,,,,,,,,,,,1,,,59,0
67080,note_on,120,0,1,,,,,,,,,,,,,,,0,,,65,0
67080,note_on,0,0,1,,,,,,,,,,,,,,,0,,,67,0
67080,note_on,0,0,1,,,,,,,,,,,,,,,0,,,71,0
67140,note_on,60,0,3,,,,,,,,,,,,,,,2,,,39,0
67140,note_on,0,0,3,,,,,,,,,,,,,,,2,,,41,115
67200,note_on,0,0,3,,,,,,,,,,,,,,,2,,,39,115
67200,note_on,60,0,3,,,,,,,,,,,,,,,2,,,41,0
67200,note_on,120,0,2,,,,,,,,,,,,,,,1,,,55,100
67200,note_on,0,0,2,,,,,,,,,,,,,,,1,,,60,100
67260,note_on,0,0,1,,,,,,,,,,,,,,,0,,,63,110
67260,note_on,0,0,1,,,,,,,,,,,,,,,0,,,67,110
67260,note_on,180,0,1,,,,,,,,,,,,,,,0,,,72,110
67320,note_on,0,0,1,,,,,,,,,,,,,,,0,,,67,0
67320,note_on,120,0,2,,,,,,,,,,,,,,,1,,,60,0
67320,note_on,0,0,2,,,,,,,,,,,,,,,1,,,55,0
67320,note_on,0,0,2,,,,,,,,,,,,,,,1,,,55,100
67320,note_on,0,0,1,,,,,,,,,,,,,,,0,,,72,0
67320,note_on,0,0,2,,,,,,,,,,,,,,,1,,,59,100
67320,note_on,60,0,1,,,,,,,,,,,,,,,0,,,63,0
67320,note_on,0,0,2,,,,,,,,,,,,,,,1,,,53,100
67380,note_on,0,0,1,,,,,,,,,,,,,,,0,,,65,110
67380,note_on,0,0,1,,,,,,,,,,,,,,,0,,,67,110
67380,note_on,60,0,1,,,,,,,,,,,,,,,0,,,74,110
67380,note_on,0,0,1,,,,,,,,,,,,,,,0,,,71,110
67440,note_on,240,0,3,,,,,,,,,,,,,,,2,,,39,0
67440,note_on,0,0,1,,,,,,,,,,,,,,,0,,,74,0
67440,note_on,0,0,2,,,,,,,,,,,,,,,1,,,60,100
67440,note_on,0,0,2,,,,,,,,,,,,,,,1,,,55,100
67440,note_on,0,0,2,,,,,,,,,,,,,,,1,,,51,100
67440,note_on,60,0,1,,,,,,,,,,,,,,,0,,,65,0
67440,note_on,0,0,2,,,,,,,,,,,,,,,1,,,55,0
67440,note_on,120,0,2,,,,,,,,,,,,,,,1,,,59,0
67440,note_on,0,0,3,,,,,,,,,,,,,,,2,,,36,115
67440,note_on,0,0,2,,,,,,,,,,,,,,,1,,,53,0
67440,note_on,0,0,1,,,,,,,,,,,,,,,0,,,67,0
67440,note_on,0,0,1,,,,,,,,,,,,,,,0,,,71,0
67500,note_on,0,0,1,,,,,,,,,,,,,,,0,,,67,110
67500,note_on,0,0,1,,,,,,,,,,,,,,,0,,,72,110
67500,note_on,60,0,1,,,,,,,,,,,,,,,0,,,75,110
67560,note_on,60,0,1,,,,,,,,,,,,,,,0,,,67,0
67560,note_on,120,0,2,,,,,,,,,,,,,,,1,,,60,0
67560,note_on,0,0,2,,,,,,,,,,,,,,,1,,,55,0
67560,note_on,0,0,2,,,,,,,,,,,,,,,1,,,51,0
67560,note_on,0,0,2,,,,,,,,,,,,,,,1,,,50,100
67560,note_on,0,0,2,,,,,,,,,,,,,,,1,,,53,100
67560,note_on,0,0,2,,,,,,,,,,,,,,,1,,,59,100
67560,note_on,0,0,1,,,,,,,,,,,,,,,0,,,72,0
67560,note_on,0,0,1,,,,,,,,,,,,,,,0,,,75,0
67620,note_on,0,0,1,,,,,,,,,,,,,,,0,,,67,110
67620,note_on,0,0,1,,,,,,,,,,,,,,,0,,,74,110
67620,note_on,0,0,1,,,,,,,,,,,,,,,0,,,71,110
67620,note_on,60,0,1,,,,,,,,,,,,,,,0,,,77,110
67680,note_on,0,0,2,,,,,,,,,,,,,,,1,,,63,100
67680,note_on,0,0,2,,,,,,,,,,,,,,,1,,,60,100
67680,note_on,0,0,2,,,,,,,,,,,,,,,1,,,55,100
67680,note_on,240,0,3,,,,,,,,,,,,,,,2,,,36,0
67680,note_on,0,0,3,,,,,,,,,,,,,,,2,,,39,115
67680,note_on,0,0,2,,,,,,,,,,,,,,,1,,,50,0
67680,note_on,0,0,1,,,,,,,,,,,,,,,0,,,67,110
67680,note_on,0,0,2,,,,,,,,,,,,,,,1,,,53,0
67680,note_on,0,0,1,,,,,,,,,,,,,,,0,,,71,0
67680,note_on,120,0,2,,,,,,,,,,,,,,,1,,,59,0
67680,note_on,60,0,1,,,,,,,,,,,,,,,0,,,67,0
67680,note_on,0,0,1,,,,,,,,,,,,,,,0,,,75,110
67680,note_on,0,0,1,,,,,,,,,,,,,,,0,,,77,0
67680,note_on,0,0,1,,,,,,,,,,,,,,,0,,,74,0
67680,note_on,0,0,1,,,,,,,,,,,,,,,0,,,79,110
67680,note_on,0,0,1,,,,,,,,,,,,,,,0,,,72,110
67740,note_on,0,0,3,,,,,,,,,,,,,,,2,,,43,115
67740,note_on,60,0,3,,,,,,,,,,,,,,,2,,,39,0
67800,note_on,120,0,2,,,,,,,,,,,,,,,1,,,55,0
67800,note_on,120,0,1,,,,,,,,,,,,,,,0,,,67,0
67800,note_on,0,0,2,,,,,,,,,,,,,,,1,,,63,0
67800,note_on,60,0,3,,,,,,,,,,,,,,,2,,,43,0
67800,note_on,0,0,3,,,,,,,,,,,,,,,2,,,41,115
67800,note_on,0,0,1,,,,,,,,,,,,,,,0,,,75,0
67800,note_on,0,0,1,,,,,,,,,,,,,,,0,,,79,0
67800,note_on,0,0,2,,,,,,,,,,,,,,,1,,,60,0
67800,note_on,0,0,1,,,,,,,,,,,,,,,0,,,72,0
67860,note_on,0,0,3,,,,,,,,,,,,,,,2,,,43,115
67860,note_on,60,0,3,,,,,,,,,,,,,,,2,,,41,0
67920,note_on,0,0,3,,,,,,,,,,,,,,,2,,,41,115
67920,note_on,120,0,1,,,,,,,,,,,,,,,0,,,72,110
67920,note_on,0,0,1,,,,,,,,,,,,,,,0,,,68,110
67920,note_on,0,0,1,,,,,,,,,,,,,,,0,,,65,110
67920,note_on,0,0,2,,,,,,,,,,,,,,,1,,,56,100
67920,note_on,120,0,2,,,,,,,,,,,,,,,1,,,60,100
67920,note_on,60,0,3,,,,,,,,,,,,,,,2,,,43,0
67980,note_on,60,0,3,,,,,,,,,,,,,,,2,,,41,0
67980,note_on,0,0,3,,,,,,,,,,,,,,,2,,,44,115
68040,note_on,0,0,1,,,,,,,,,,,,,,,0,,,72,0
68040,note_on,0,0,1,,,,,,,,,,,,,,,0,,,68,0
68040,note_on,120,0,2,,,,,,,,,,,,,,,1,,,56,0
68040,note_on,0,0,2,,,,,,,,,,,,,,,1,,,60,0
68040,note_on,120,0,1,,,,,,,,,,,,,,,0,,,65,0
68040,note_on,0,0,3,,,,,,,,,,,,,,,2,,,43,115
68040,note_on,60,0,3,,,,,,,,,,,,,,,2,,,44,0
68100,note_on,60,0,3,,,,,,,,,,,,,,,2,,,43,0
68100,note_on,0,0,3,,,,,,,,,,,,,,,2,,,44,115
68160,note_on,120,0,2,,,,,,,,,,,,,,,1,,,59,100
68160,note_on,120,0,1,,,,,,,,,,,,,,,0,,,71,110
68160,note_on,0,0,1,,,,,,,,,,,,,,,0,,,67,110
68160,note_on,0,0,1,,,,,,,,,,,,,,,0,,,62,110
68160,note_on,0,0,3,,,,,,,,,,,,,,,2,,,43,115
68160,note_on,0,0,2,,,,,,,,,,,,,,,1,,,55,100
68160,note_on,60,0,3,,,,,,,,,,,,,,,2,,,44,0
68220,note_on,0,0,3,,,,,,,,,,,,,,,2,,,44,115
68220,note_on,60,0,3,,,,,,,,,,,,,,,2,,,43,0
68280,note_on,0,0,3,,,,,,,,,,,,,,,2,,,41,115
68280,note_on,60,0,3,,,,,,,,,,,,,,,2,,,44,0
68280,note_on,0,0,2,,,,,,,,,,,,,,,1,,,59,0
68280,note_on,120,0,2,,,,,,,,,,,,,,,1,,,55,0
68280,note_on,120,0,1,,,,,,,,,,,,,,,0,,,62,0
68280,note_on,0,0,1,,,,,,,,,,,,,,,0,,,71,0
68280,note_on,0,0,1,,,,,,,,,,,,,,,0,,,67,0
68340,note_on,0,0,3,,,,,,,,,,,,,,,2,,,43,115
68340,note_on,60,0,3,,,,,,,,,,,,,,,2,,,41,0
68400,note_on,0,0,3,,,,,,,,,,,,,,,2,,,39,115
68400,note_on,60,0,3,,,,,,,,,,,,,,,2,,,43,0
68460,note_on,60,0,3,,,,,,,,,,,,,,,2,,,39,0
68460,note_on,0,0,3,,,,,,,,,,,,,,,2,,,41,115
68520,note_on,60,0,3,,,,,,,,,,,,,,,2,,,41,0
68520,note_on,0,0,3,,,,,,,,,,,,,,,2,,,38,115
68580,note_on,0,0,3,,,,,,,,,,,,,,,2,,,39,115
68580,note_on,60,0,3,,,,,,,,,,,,,,,2,,,38,0
68640,note_on,0,0,1,,,,,,,,,,,,,,,0,,,63,110
68640,note_on,60,0,3,,,,,,,,,,,,,,,2,,,39,0
68640,note_on,0,0,3,,,,,,,,,,,,,,,2,,,36,115
68640,note_on,360,0,2,,,,,,,,,,,,,,,1,,,60,100
68640,note_on,0,0,2,,,,,,,,,,,,,,,1,,,55,100
68640,note_on,0,0,1,,,,,,,,,,,,,,,0,,,67,110
68640,note_on,360,0,1,,,,,,,,,,,,,,,0,,,72,110
68700,note_on,60,0,3,,,,,,,,,,,,,,,2,,,36,0
68700,note_on,0,0,3,,,,,,,,,,,,,,,2,,,38,115
68760,note_on,120,0,1,,,,,,,,,,,,,,,0,,,63,0
68760,note_on,0,0,1,,,,,,,,,,,,,,,0,,,67,0
68760,note_on,0,0,1,,,,,,,,,,,,,,,0,,,72,0
68760,note_on,60,0,3,,,,,,,,,,,,,,,2,,,38,0
68760,note_on,0,0,3,,,,,,,,,,,,,,,2,,,34,115
68760,note_on,0,0,2,,,,,,,,,,,,,,,1,,,60,0
68760,note_on,120,0,2,,,,,,,,,,,,,,,1,,,55,0
68820,note_on,0,0,3,,,,,,,,,,,,,,,2,,,36,115
68820,note_on,60,0,3,,,,,,,,,,,,,,,2,,,34,0
68880,note_on,0,0,3,,,,,,,,,,,,,,,2,,,32,115
68880,note_on,60,0,3,,,,,,,,,,,,,,,2,,,36,0
68940,note_on,0,0,3,,,,,,,,,,,,,,,2,,,34,115
68940,note_on,60,0,3,,,,,,,,,,,,,,,2,,,32,0
69000,note_on,0,0,3,,,,,,,,,,,,,,,2,,,31,115
69000,note_on,60,0,3,,,,,,,,,,,,,,,2,,,34,0
69060,note_on,60,0,3,,,,,,,,,,,,,,,2,,,31,0
69060,note_on,0,0,3,,,,,,,,,,,,,,,2,,,32,115
69120,note_on,60,0,3,,,,,,,,,,,,,,,2,,,32,0
69120,note_on,0,0,3,,,,,,,,,,,,,,,2,,,29,115
69120,note_on,0,0,1,,,,,,,,,,,,,,,0,,,68,110
69120,note_on,0,0,1,,,,,,,,,,,,,,,0,,,72,110
69120,note_on,0,0,2,,,,,,,,,,,,,,,1,,,56,100
69120,note_on,360,0,1,,,,,,,,,,,,,,,0,,,65,110
69120,note_on,360,0,2,,,,,,,,,,,,,,,1,,,60,100
69180,note_on,60,0,3,,,,,,,,,,,,,,,2,,,29,0
69180,note_on,0,0,3,,,,,,,,,,,,,,,2,,,44,115
69240,note_on,120,0,2,,,,,,,,,,,,,,,1,,,56,0
69240,note_on,0,0,2,,,,,,,,,,,,,,,1,,,60,0
69240,note_on,0,0,1,,,,,,,,,,,,,,,0,,,65,0
69240,note_on,120,0,1,,,,,,,,,,,,,,,0,,,72,0
69240,note_on,60,0,3,,,,,,,,,,,,,,,2,,,44,0
69240,note_on,0,0,1,,,,,,,,,,,,,,,0,,,68,0
69240,note_on,0,0,3,,,,,,,,,,,,,,,2,,,43,115
69300,note_on,60,0,3,,,,,,,,,,,,,,,2,,,43,0
69300,note_on,0,0,3,,,,,,,,,,,,,,,2,,,44,115
69360,note_on,60,0,3,,,,,,,,,,,,,,,2,,,44,0
69360,note_on,0,0,3,,,,,,,,,,,,,,,2,,,41,115
69420,note_on,60,0,3,,,,,,,,,,,,,,,2,,,41,0
69420,note_on,0,0,3,,,,,,,,,,,,,,,2,,,43,115
69480,note_on,60,0,3,,,,,,,,,,,,,,,2,,,43,0
69480,note_on,0,0,3,,,,,,,,,,,,,,,2,,,39,115
69540,note_on,60,0,3,,,,,,,,,,,,,,,2,,,39,0
69540,note_on,0,0,3,,,,,,,,,,,,,,,2,,,41,115
69600,note_on,0,0,2,,,,,,,,,,,,,,,1,,,56,100
69600,note_on,360,0,2,,,,,,,,,,,,,,,1,,,62,100
69600,note_on,360,0,1,,,,,,,,,,,,,,,0,,,77,110
69600,note_on,0,0,1,,,,,,,,,,,,,,,0,,,74,110
69600,note_on,0,0,1,,,,,,,,,,,,,,,0,,,71,110
69600,note_on,0,0,1,,,,,,,,,,,,,,,0,,,68,110
69600,note_on,60,0,3,,,,,,,,,,,,,,,2,,,41,0
69600,note_on,0,0,3,,,,,,,,,,,,,,,2,,,38,115
69660,note_on,60,0,3,,,,,,,,,,,,,,,2,,,38,0
69660,note_on,0,0,3,,,,,,,,,,,,,,,2,,,41,115
69720,note_on,0,0,1,,,,,,,,,,,,,,,0,,,71,0
69720,note_on,60,0,3,,,,,,,,,,,,,,,2,,,41,0
69720,note_on,0,0,3,,,,,,,,,,,,,,,2,,,39,115
69720,note_on,0,0,2,,,,,,,,,,,,,,,1,,,62,0
69720,note_on,120,0,1,,,,,,,,,,,,,,,0,,,68,0
69720,note_on,0,0,1,,,,,,,,,,,,,,,0,,,74,0
69720,note_on,0,0,1,,,,,,,,,,,,,,,0,,,77,0
69720,note_on,120,0,2,,,,,,,,,,,,,,,1,,,56,0
69780,note_on,60,0,3,,,,,,,,,,,,,,,2,,,39,0
69780,note_on,0,0,3,,,,,,,,,,,,,,,2,,,41,115
69840,note_on,60,0,3,,,,,,,,,,,,,,,2,,,41,0
69840,note_on,0,0,3,,,,,,,,,,,,,,,2,,,38,115
69900,note_on,60,0,3,,,,,,,,,,,,,,,2,,,38,0
69900,note_on,0,0,3,,,,,,,,,,,,,,,2,,,39,115
69960,note_on,0,0,3,,,,,,,,,,,,,,,2,,,36,115
69960,note_on,60,0,3,,,,,,,,,,,,,,,2,,,39,0
70020,note_on,0,0,3,,,,,,,,,,,,,,,2,,,38,115
70020,note_on,60,0,3,,,,,,,,,,,,,,,2,,,36,0
70080,note_on,0,0,3,,,,,,,,,,,,,,,2,,,35,115
70080,note_on,60,0,3,,,,,,,,,,,,,,,2,,,38,0
70080,note_on,0,0,2,,,,,,,,,,,,,,,1,,,59,100
70080,note_on,0,0,1,,,,,,,,,,,,,,,0,,,74,110
70080,note_on,0,0,1,,,,,,,,,,,,,,,0,,,71,110
70080,note_on,0,0,1,,,,,,,,,,,,,,,0,,,67,110
70080,note_on,360,0,2,,,,,,,,,,,,,,,1,,,62,100
70080,note_on,0,0,2,,,,,,,,,,,,,,,1,,,55,100
70080,note_on,360,0,1,,,,,,,,,,,,,,,0,,,79,110
70140,note_on,0,0,3,,,,,,,,,,,,,,,2,,,38,115
70140,note_on,60,0,3,,,,,,,,,,,,,,,2,,,35,0
70200,note_on,0,0,1,,,,,,,,,,,,,,,0,,,71,0
70200,note_on,0,0,1,,,,,,,,,,,,,,,0,,,74,0
70200,note_on,0,0,3,,,,,,,,,,,,,,,2,,,36,115
70200,note_on,0,0,2,,,,,,,,,,,,,,,1,,,59,0
70200,note_on,120,0,2,,,,,,,,,,,,,,,1,,,55,0
70200,note_on,0,0,1,,,,,,,,,,,,,,,0,,,79,0
70200,note_on,120,0,1,,,,,,,,,,,,,,,0,,,67,0
70200,note_on,0,0,2,,,,,,,,,,,,,,,1,,,62,0
70200,note_on,60,0,3,,,,,,,,,,,,,,,2,,,38,0
70260,note_on,0,0,3,,,,,,,,,,,,,,,2,,,38,115
70260,note_on,60,0,3,,,,,,,,,,,,,,,2,,,36,0
70320,note_on,60,0,3,,,,,,,,,,,,,,,2,,,38,0
70320,note_on,0,0,3,,,,,,,,,,,,,,,2,,,31,115
70380,note_on,60,0,3,,,,,,,,,,,,,,,2,,,31,0
70380,note_on,0,0,3,,,,,,,,,,,,,,,2,,,35,115
70440,note_on,60,0,3,,,,,,,,,,,,,,,2,,,35,0
70440,note_on,0,0,3,,,,,,,,,,,,,,,2,,,33,115
70500,note_on,60,0,3,,,,,,,,,,,,,,,2,,,33,0
70500,note_on,0,0,3,,,,,,,,,,,,,,,2,,,35,115
70560,note_on,360,0,1,,,,,,,,,,,,,,,0,,,67,110
70560,note_on,0,0,1,,,,,,,,,,,,,,,0,,,63,110
70560,note_on,0,0,1,,,,,,,,,,,,,,,0,,,72,110
70560,note_on,0,0,2,,,,,,,,,,,,,,,1,,,55,100
70560,note_on,360,0,2,,,,,,,,,,,,,,,1,,,60,100
70560,note_on,0,0,2,,,,,,,,,,,,,,,1,,,51,100
70560,note_on,60,0,3,,,,,,,,,,,,,,,2,,,35,0
70560,note_on,0,0,3,,,,,,,,,,,,,,,2,,,27,115
70568,set_tempo,5756,1,0,,,,,,,,,,,,857143,,,,,,,
70656,note_on,96,0,2,,,,,,,,,,,,,,,1,,,51,0
70656,note_on,0,0,2,,,,,,,,,,,,,,,1,,,55,0
70656,note_on,0,0,2,,,,,,,,,,,,,,,1,,,60,0
70656,note_on,0,0,1,,,,,,,,,,,,,,,0,,,67,0
70656,note_on,0,0,1,,,,,,,,,,,,,,,0,,,63,0
70656,note_on,96,0,1,,,,,,,,,,,,,,,0,,,72,0
70680,note_on,24,0,1,,,,,,,,,,,,,,,0,,,68,110
70680,note_on,120,0,3,,,,,,,,,,,,,,,2,,,27,0
70680,note_on,0,0,1,,,,,,,,,,,,,,,0,,,65,110
70680,note_on,0,0,2,,,,,,,,,,,,,,,1,,,53,100
70680,note_on,0,0,2,,,,,,,,,,,,,,,1,,,56,100
70680,note_on,24,0,2,,,,,,,,,,,,,,,1,,,62,100
70680,note_on,0,0,3,,,,,,,,,,,,,,,2,,,29,115
70680,note_on,0,0,1,,,,,,,,,,,,,,,0,,,74,110
70776,note_on,0,0,2,,,,,,,,,,,,,,,1,,,62,0
70776,note_on,0,0,2,,,,,,,,,,,,,,,1,,,56,0
70776,note_on,0,0,1,,,,,,,,,,,,,,,0,,,68,0
70776,note_on,0,0,1,,,,,,,,,,,,,,,0,,,65,0
70776,note_on,96,0,1,,,,,,,,,,,,,,,0,,,74,0
70776,note_on,96,0,2,,,,,,,,,,,,,,,1,,,53,0
70800,note_on,120,0,3,,,,,,,,,,,,,,,2,,,29,0
70800,note_on,0,0,1,,,,,,,,,,,,,,,0,,,65,110
70800,note_on,0,0,3,,,,,,,,,,,,,,,2,,,31,115
70800,note_on,0,0,1,,,,,,,,,,,,,,,0,,,71,110
70800,note_on,0,0,2,,,,,,,,,,,,,,,1,,,50,100
70800,note_on,0,0,2,,,,,,,,,,,,,,,1,,,55,100
70800,note_on,24,0,2,,,,,,,,,,,,,,,1,,,59,100
70800,note_on,24,0,1,,,,,,,,,,,,,,,0,,,67,110
70800,note_on,0,0,1,,,,,,,,,,,,,,,0,,,62,110
70808,set_tempo,240,1,0,,,,,,,,,,,,952381,,,,,,,
70944,note_on,144,0,1,,,,,,,,,,,,,,,0,,,71,0
70980,note_on,36,0,1,,,,,,,,,,,,,,,0,,,72,110
70992,note_on,0,0,2,,,,,,,,,,,,,,,1,,,55,0
70992,note_on,0,0,2,,,,,,,,,,,,,,,1,,,59,0
70992,note_on,0,0,1,,,,,,,,,,,,,,,0,,,65,0
70992,note_on,192,0,2,,,,,,,,,,,,,,,1,,,50,0
70992,note_on,12,0,1,,,,,,,,,,,,,,,0,,,67,0
70992,note_on,0,0,1,,,,,,,,,,,,,,,0,,,62,0
71028,note_on,36,0,1,,,,,,,,,,,,,,,0,,,72,0
71040,set_tempo,232,1,0,,,,,,,,,,,,800000,,,,,,,
71040,note_on,0,0,1,,,,,,,,,,,,,,,0,,,67,110
71040,note_on,0,0,1,,,,,,,,,,,,,,,0,,,63,110
71040,note_on,0,0,2,,,,,,,,,,,,,,,1,,,48,100
71040,note_on,0,0,2,,,,,,,,,,,,,,,1,,,51,100
71040,note_on,0,0,2,,,,,,,,,,,,,,,1,,,55,100
71040,note_on,48,0,2,,,,,,,,,,,,,,,1,,,60,100
71040,note_on,12,0,1,,,,,,,,,,,,,,,0,,,72,110
71040,note_on,240,0,3,,,,,,,,,,,,,,,2,,,31,0
71040,note_on,0,0,3,,,,,,,,,,,,,,,2,,,24,115
71100,note_on,60,0,1,,,,,,,,,,,,,,,0,,,72,0
71100,note_on,0,0,1,,,,,,,,,,,,,,,0,,,75,110
71160,note_on,0,0,2,,,,,,,,,,,,,,,1,,,51,0
71160,note_on,120,0,2,,,,,,,,,,,,,,,1,,,48,0
71160,note_on,0,0,2,,,,,,,,,,,,,,,1,,,60,0
71160,note_on,0,0,2,,,,,,,,,,,,,,,1,,,55,0
71160,note_on,60,0,1,,,,,,,,,,,,,,,0,,,75,0
71160,note_on,0,0,1,,,,,,,,,,,,,,,0,,,63,0
71160,note_on,0,0,1,,,,,,,,,,,,,,,0,,,67,0
71160,note_on,0,0,1,,,,,,,,,,,,,,,0,,,74,110
71160,note_on,120,0,3,,,,,,,,,,,,,,,2,,,24,0
71220,note_on,60,0,1,,,,,,,,,,,,,,,0,,,74,0
71220,note_on,0,0,1,,,,,,,,,,,,,,,0,,,75,110
71280,note_on,60,0,1,,,,,,,,,,,,,,,0,,,75,0
71280,note_on,0,0,1,,,,,,,,,,,,,,,0,,,72,110
71340,note_on,0,0,1,,,,,,,,,,,,,,,0,,,75,110
71340,note_on,60,0,1,,,,,,,,,,,,,,,0,,,72,0
71400,note_on,60,0,1,,,,,,,,,,,,,,,0,,,75,0
71400,note_on,0,0,1,,,,,,,,,,,,,,,0,,,74,110
71400,note_on,0,0,1,,,,,,,,,,,,,,,0,,,60,110
71400,note_on,240,0,3,,,,,,,,,,,,,,,2,,,36,115
71400,note_on,240,0,2,,,,,,,,,,,,,,,1,,,55,100
71400,note_on,0,0,2,,,,,,,,,,,,,,,1,,,51,100
71460,note_on,60,0,1,,,,,,,,,,,,,,,0,,,74,0
71460,note_on,0,0,1,,,,,,,,,,,,,,,0,,,75,110
71520,note_on,0,0,2,,,,,,,,,,,,,,,1,,,55,0
71520,note_on,0,0,2,,,,,,,,,,,,,,,1,,,53,100
71520,note_on,0,0,2,,,,,,,,,,,,,,,1,,,55,100
71520,note_on,120,0,3,,,,,,,,,,,,,,,2,,,36,0
71520,note_on,0,0,3,,,,,,,,,,,,,,,2,,,35,115
71520,note_on,120,0,2,,,,,,,,,,,,,,,1,,,51,0
71520,note_on,0,0,2,,,,,,,,,,,,,,,1,,,50,100
71520,note_on,60,0,1,,,,,,,,,,,,,,,0,,,75,0
71520,note_on,0,0,1,,,,,,,,,,,,,,,0,,,60,0
71520,note_on,0,0,1,,,,,,,,,,,,,,,0,,,74,110
71520,note_on,0,0,1,,,,,,,,,,,,,,,0,,,62,110
71580,note_on,60,0,1,,,,,,,,,,,,,,,0,,,74,0
71580,note_on,0,0,1,,,,,,,,,,,,,,,0,,,77,110
71640,note_on,0,0,2,,,,,,,,,,,,,,,1,,,53,0
71640,note_on,0,0,2,,,,,,,,,,,,,,,1,,,55,0
71640,note_on,120,0,3,,,,,,,,,,,,,,,2,,,35,0
71640,note_on,0,0,1,,,,,,,,,,,,,,,0,,,75,110
71640,note_on,120,0,2,,,,,,,,,,,,,,,1,,,50,0
71640,note_on,60,0,1,,,,,,,,,,,,,,,0,,,77,0
71640,note_on,0,0,1,,,,,,,,,,,,,,,0,,,62,0
71700,note_on,60,0,1,,,,,,,,,,,,,,,0,,,75,0
71700,note_on,0,0,1,,,,,,,,,,,,,,,0,,,77,110
71760,note_on,0,0,1,,,,,,,,,,,,,,,0,,,59,110
71760,note_on,60,0,1,,,,,,,,,,,,,,,0,,,77,0
71760,note_on,120,0,3,,,,,,,,,,,,,,,2,,,31,115
71760,note_on,120,0,2,,,,,,,,,,,,,,,1,,,55,100
71760,note_on,0,0,2,,,,,,,,,,,,,,,1,,,50,100
71760,note_on,0,0,1,,,,,,,,,,,,,,,0,,,74,110
71820,note_on,0,0,1,,,,,,,,,,,,,,,0,,,77,110
71820,note_on,60,0,1,,,,,,,,,,,,,,,0,,,74,0
71880,note_on,0,0,1,,,,,,,,,,,,,,,0,,,75,110
71880,note_on,0,0,1,,,,,,,,,,,,,,,0,,,59,0
71880,note_on,60,0,1,,,,,,,,,,,,,,,0,,,77,0
71880,note_on,120,0,3,,,,,,,,,,,,,,,2,,,31,0
71880,note_on,120,0,2,,,,,,,,,,,,,,,1,,,50,0
71880,note_on,0,0,2,,,,,,,,,,,,,,,1,,,55,0
71940,note_on,60,0,1,,,,,,,,,,,,,,,0,,,75,0
71940,note_on,0,0,1,,,,,,,,,,,,,,,0,,,77,110
72000,note_on,0,0,2,,,,,,,,,,,,,,,1,,,48,100
72000,note_on,0,0,1,,,,,,,,,,,,,,,0,,,60,110
72000,note_on,120,0,3,,,,,,,,,,,,,,,2,,,24,115
72000,note_on,60,0,1,,,,,,,,,,,,,,,0,,,77,0
72000,note_on,120,0,2,,,,,,,,,,,,,,,1,,,55,100
72000,note_on,0,0,1,,,,,,,,,,,,,,,0,,,75,110
72060,note_on,0,0,1,,,,,,,,,,,,,,,0,,,60,0
72060,note_on,0,0,1,,,,,,,,,,,,,,,0,,,79,110
72060,note_on,0,0,1,,,,,,,,,,,,,,,0,,,63,110
72060,note_on,60,0,1,,,,,,,,,,,,,,,0,,,75,0
72120,note_on,0,0,2,,,,,,,,,,,,,,,1,,,55,0
72120,note_on,0,0,1,,,,,,,,,,,,,,,0,,,77,110
72120,note_on,0,0,1,,,,,,,,,,,,,,,0,,,62,110
72120,note_on,0,0,1,,,,,,,,,,,,,,,0,,,63,0
72120,note_on,60,0,1,,,,,,,,,,,,,,,0,,,79,0
72120,note_on,120,0,2,,,,,,,,,,,,,,,1,,,48,0
72120,note_on,120,0,3,,,,,,,,,,,,,,,2,,,24,0
72180,note_on,0,0,1,,,,,,,,,,,,,,,0,,,62,0
72180,note_on,0,0,1,,,,,,,,,,,,,,,0,,,79,110
72180,note_on,0,0,1,,,,,,,,,,,,,,,0,,,63,110
72180,note_on,60,0,1,,,,,,,,,,,,,,,0,,,77,0
72240,note_on,0,0,1,,,,,,,,,,,,,,,0,,,75,110
72240,note_on,0,0,1,,,,,,,,,,,,,,,0,,,60,110
72240,note_on,0,0,1,,,,,,,,,,,,,,,0,,,63,0
72240,note_on,60,0,1,,,,,,,,,,,,,,,0,,,79,0
72300,note_on,0,0,1,,,,,,,,,,,,,,,0,,,79,110
72300,note_on,0,0,1,,,,,,,,,,,,,,,0,,,63,110
72300,note_on,0,0,1,,,,,,,,,,,,,,,0,,,60,0
72300,note_on,60,0,1,,,,,,,,,,,,,,,0,,,75,0
72360,note_on,0,0,1,,,,,,,,,,,,,,,0,,,62,110
72360,note_on,0,0,1,,,,,,,,,,,,,,,0,,,63,0
72360,note_on,60,0,1,,,,,,,,,,,,,,,0,,,79,0
72360,note_on,0,0,1,,,,,,,,,,,,,,,0,,,77,110
72420,note_on,0,0,1,,,,,,,,,,,,,,,0,,,79,110
72420,note_on,60,0,1,,,,,,,,,,,,,,,0,,,77,0
72420,note_on,0,0,1,,,,,,,,,,,,,,,0,,,62,0
72420,note_on,0,0,1,,,,,,,,,,,,,,,0,,,63,110
72480,note_on,60,0,1,,,,,,,,,,,,,,,0,,,79,0
72480,note_on,0,0,1,,,,,,,,,,,,,,,0,,,63,0
72480,note_on,0,0,1,,,,,,,,,,,,,,,0,,,62,110
72480,note_on,0,0,1,,,,,,,,,,,,,,,0,,,77,110
72540,note_on,60,0,1,,,,,,,,,,,,,,,0,,,77,0
72540,note_on,0,0,1,,,,,,,,,,,,,,,0,,,62,0
72540,note_on,0,0,1,,,,,,,,,,,,,,,0,,,65,110
72540,note_on,0,0,1,,,,,,,,,,,,,,,0,,,80,110
72600,note_on,0,0,1,,,,,,,,,,,,,,,0,,,63,110
72600,note_on,60,0,1,,,,,,,,,,,,,,,0,,,80,0
72600,note_on,0,0,1,,,,,,,,,,,,,,,0,,,79,110
72600,note_on,0,0,1,,,,,,,,,,,,,,,0,,,65,0
72660,note_on,60,0,1,,,,,,,,,,,,,,,0,,,79,0
72660,note_on,0,0,1,,,,,,,,,,,,,,,0,,,63,0
72660,note_on,0,0,1,,,,,,,,,,,,,,,0,,,65,110
72660,note_on,0,0,1,,,,,,,,,,,,,,,0,,,80,110
72720,note_on,60,0,1,,,,,,,,,,,,,,,0,,,80,0
72720,note_on,0,0,1,,,,,,,,,,,,,,,0,,,65,0
72720,note_on,0,0,1,,,,,,,,,,,,,,,0,,,62,110
72720,note_on,0,0,1,,,,,,,,,,,,,,,0,,,77,110
72780,note_on,0,0,1,,,,,,,,,,,,,,,0,,,65,110
72780,note_on,0,0,1,,,,,,,,,,,,,,,0,,,80,110
72780,note_on,60,0,1,,,,,,,,,,,,,,,0,,,77,0
72780,note_on,0,0,1,,,,,,,,,,,,,,,0,,,62,0
72840,note_on,0,0,1,,,,,,,,,,,,,,,0,,,79,110
72840,note_on,0,0,1,,,,,,,,,,,,,,,0,,,65,0
72840,note_on,0,0,1,,,,,,,,,,,,,,,0,,,63,110
72840,note_on,60,0,1,,,,,,,,,,,,,,,0,,,80,0
72900,note_on,0,0,1,,,,,,,,,,,,,,,0,,,65,110
72900,note_on,60,0,1,,,,,,,,,,,,,,,0,,,79,0
72900,note_on,0,0,1,,,,,,,,,,,,,,,0,,,63,0
72900,note_on,0,0,1,,,,,,,,,,,,,,,0,,,80,110
72960,note_on,0,0,1,,,,,,,,,,,,,,,0,,,79,110
72960,note_on,0,0,1,,,,,,,,,,,,,,,0,,,65,0
72960,note_on,0,0,1,,,,,,,,,,,,,,,0,,,63,110
72960,note_on,60,0,1,,,,,,,,,,,,,,,0,,,80,0
73020,note_on,60,0,1,,,,,,,,,,,,,,,0,,,79,0
73020,note_on,0,0,1,,,,,,,,,,,,,,,0,,,63,0
73020,note_on,0,0,1,,,,,,,,,,,,,,,0,,,67,110
73020,note_on,0,0,1,,,,,,,,,,,,,,,0,,,75,110
73080,note_on,0,0,1,,,,,,,,,,,,,,,0,,,79,110
73080,note_on,0,0,1,,,,,,,,,,,,,,,0,,,67,0
73080,note_on,0,0,1,,,,,,,,,,,,,,,0,,,72,110
73080,note_on,60,0,1,,,,,,,,,,,,,,,0,,,75,0
73140,note_on,60,0,1,,,,,,,,,,,,,,,0,,,79,0
73140,note_on,0,0,1,,,,,,,,,,,,,,,0,,,72,0
73140,note_on,0,0,1,,,,,,,,,,,,,,,0,,,67,110
73140,note_on,0,0,1,,,,,,,,,,,,,,,0,,,75,110
73200,note_on,60,0,1,,,,,,,,,,,,,,,0,,,75,0
73200,note_on,0,0,1,,,,,,,,,,,,,,,0,,,79,110
73200,note_on,0,0,1,,,,,,,,,,,,,,,0,,,63,110
73200,note_on,0,0,1,,,,,,,,,,,,,,,0,,,67,0
73260,note_on,0,0,1,,,,,,,,,,,,,,,0,,,67,110
73260,note_on,0,0,1,,,,,,,,,,,,,,,0,,,63,0
73260,note_on,0,0,1,,,,,,,,,,,,,,,0,,,75,110
73260,note_on,60,0,1,,,,,,,,,,,,,,,0,,,79,0
73320,note_on,0,0,1,,,,,,,,,,,,,,,0,,,67,0
73320,note_on,0,0,1,,,,,,,,,,,,,,,0,,,79,110
73320,note_on,60,0,1,,,,,,,,,,,,,,,0,,,75,0
73320,note_on,0,0,1,,,,,,,,,,,,,,,0,,,72,110
73380,note_on,0,0,1,,,,,,,,,,,,,,,0,,,75,110
73380,note_on,0,0,1,,,,,,,,,,,,,,,0,,,67,110
73380,note_on,0,0,1,,,,,,,,,,,,,,,0,,,72,0
73380,note_on,60,0,1,,,,,,,,,,,,,,,0,,,79,0
73440,note_on,0,0,1,,,,,,,,,,,,,,,0,,,79,110
73440,note_on,60,0,1,,,,,,,,,,,,,,,0,,,75,0
73440,note_on,0,0,1,,,,,,,,,,,,,,,0,,,63,110
73440,note_on,0,0,1,,,,,,,,,,,,,,,0,,,67,0
73500,note_on,60,0,1,,,,,,,,,,,,,,,0,,,79,0
73500,note_on,0,0,1,,,,,,,,,,,,,,,0,,,63,0
73500,note_on,0,0,1,,,,,,,,,,,,,,,0,,,67,110
73500,note_on,0,0,1,,,,,,,,,,,,,,,0,,,75,110
73560,note_on,0,0,1,,,,,,,,,,,,,,,0,,,79,110
73560,note_on,60,0,1,,,,,,,,,,,,,,,0,,,75,0
73560,note_on,0,0,1,,,,,,,,,,,,,,,0,,,72,110
73560,note_on,0,0,1,,,,,,,,,,,,,,,0,,,67,0
73620,note_on,60,0,1,,,,,,,,,,,,,,,0,,,79,0
73620,note_on,0,0,1,,,,,,,,,,,,,,,0,,,67,110
73620,note_on,0,0,1,,,,,,,,,,,,,,,0,,,75,110
73620,note_on,0,0,1,,,,,,,,,,,,,,,0,,,72,0
73680,note_on,60,0,1,,,,,,,,,,,,,,,0,,,75,0
73680,note_on,0,0,1,,,,,,,,,,,,,,,0,,,79,110
73680,note_on,0,0,1,,,,,,,,,,,,,,,0,,,63,110
73680,note_on,0,0,1,,,,,,,,,,,,,,,0,,,67,0
73740,note_on,0,0,1,,,,,,,,,,,,,,,0,,,75,110
73740,note_on,0,0,1,,,,,,,,,,,,,,,0,,,67,110
73740,note_on,0,0,1,,,,,,,,,,,,,,,0,,,63,0
73740,note_on,60,0,1,,,,,,,,,,,,,,,0,,,79,0
73800,note_on,0,0,1,,,,,,,,,,,,,,,0,,,67,0
73800,note_on,0,0,1,,,,,,,,,,,,,,,0,,,79,110
73800,note_on,0,0,1,,,,,,,,,,,,,,,0,,,72,110
73800,note_on,60,0,1,,,,,,,,,,,,,,,0,,,75,0
73860,note_on,0,0,1,,,,,,,,,,,,,,,0,,,75,110
73860,note_on,0,0,1,,,,,,,,,,,,,,,0,,,67,110
73860,note_on,0,0,1,,,,,,,,,,,,,,,0,,,72,0
73860,note_on,60,0,1,,,,,,,,,,,,,,,0,,,79,0
73920,note_on,0,0,1,,,,,,,,,,,,,,,0,,,77,110
73920,note_on,0,0,1,,,,,,,,,,,,,,,0,,,62,110
73920,note_on,0,0,1,,,,,,,,,,,,,,,0,,,67,0
73920,note_on,60,0,1,,,,,,,,,,,,,,,0,,,75,0
73980,note_on,60,0,1,,,,,,,,,,,,,,,0,,,77,0
73980,note_on,0,0,1,,,,,,,,,,,,,,,0,,,65,110
73980,note_on,0,0,1,,,,,,,,,,,,,,,0,,,74,110
73980,note_on,0,0,1,,,,,,,,,,,,,,,0,,,62,0
74040,note_on,60,0,1,,,,,,,,,,,,,,,0,,,74,0
74040,note_on,0,0,1,,,,,,,,,,,,,,,0,,,68,110
74040,note_on,0,0,1,,,,,,,,,,,,,,,0,,,77,110
74040,note_on,0,0,1,,,,,,,,,,,,,,,0,,,65,0
74100,note_on,60,0,1,,,,,,,,,,,,,,,0,,,77,0
74100,note_on,0,0,1,,,,,,,,,,,,,,,0,,,68,0
74100,note_on,0,0,1,,,,,,,,,,,,,,,0,,,65,110
74100,note_on,0,0,1,,,,,,,,,,,,,,,0,,,74,110
74160,note_on,0,0,1,,,,,,,,,,,,,,,0,,,65,0
74160,note_on,0,0,1,,,,,,,,,,,,,,,0,,,62,110
74160,note_on,0,0,1,,,,,,,,,,,,,,,0,,,77,110
74160,note_on,60,0,1,,,,,,,,,,,,,,,0,,,74,0
74220,note_on,0,0,1,,,,,,,,,,,,,,,0,,,74,110
74220,note_on,0,0,1,,,,,,,,,,,,,,,0,,,65,110
74220,note_on,0,0,1,,,,,,,,,,,,,,,0,,,62,0
74220,note_on,60,0,1,,,,,,,,,,,,,,,0,,,77,0
74280,note_on,0,0,1,,,,,,,,,,,,,,,0,,,71,110
74280,note_on,0,0,1,,,,,,,,,,,,,,,0,,,77,110
74280,note_on,0,0,1,,,,,,,,,,,,,,,0,,,65,0
74280,note_on,60,0,1,,,,,,,,,,,,,,,0,,,74,0
74340,note_on,0,0,1,,,,,,,,,,,,,,,0,,,74,110
74340,note_on,60,0,1,,,,,,,,,,,,,,,0,,,77,0
74340,note_on,0,0,1,,,,,,,,,,,,,,,0,,,65,110
74340,note_on,0,0,1,,,,,,,,,,,,,,,0,,,71,0
74400,note_on,60,0,1,,,,,,,,,,,,,,,0,,,74,0
74400,note_on,0,0,1,,,,,,,,,,,,,,,0,,,65,0
74400,note_on,0,0,1,,,,,,,,,,,,,,,0,,,62,110
74400,note_on,0,0,1,,,,,,,,,,,,,,,0,,,77,110
74460,note_on,60,0,1,,,,,,,,,,,,,,,0,,,77,0
74460,note_on,0,0,1,,,,,,,,,,,,,,,0,,,65,110
74460,note_on,0,0,1,,,,,,,,,,,,,,,0,,,74,110
74460,note_on,0,0,1,,,,,,,,,,,,,,,0,,,62,0
74520,note_on,0,0,1,,,,,,,,,,,,,,,0,,,77,110
74520,note_on,0,0,1,,,,,,,,,,,,,,,0,,,68,110
74520,note_on,60,0,1,,,,,,,,,,,,,,,0,,,74,0
74520,note_on,0,0,1,,,,,,,,,,,,,,,0,,,65,0
74580,note_on,0,0,1,,,,,,,,,,,,,,,0,,,74,110
74580,note_on,0,0,1,,,,,,,,,,,,,,,0,,,65,110
74580,note_on,0,0,1,,,,,,,,,,,,,,,0,,,68,0
74580,note_on,60,0,1,,,,,,,,,,,,,,,0,,,77,0
74640,note_on,0,0,1,,,,,,,,,,,,,,,0,,,62,110
74640,note_on,0,0,1,,,,,,,,,,,,,,,0,,,65,0
74640,note_on,60,0,1,,,,,,,,,,,,,,,0,,,74,0
74640,note_on,0,0,1,,,,,,,,,,,,,,,0,,,77,110
74700,note_on,0,0,1,,,,,,,,,,,,,,,0,,,62,0
74700,note_on,60,0,1,,,,,,,,,,,,,,,0,,,77,0
74700,note_on,0,0,1,,,,,,,,,,,,,,,0,,,65,110
74700,note_on,0,0,1,,,,,,,,,,,,,,,0,,,74,110
74760,note_on,60,0,1,,,,,,,,,,,,,,,0,,,74,0
74760,note_on,0,0,1,,,,,,,,,,,,,,,0,,,65,0
74760,note_on,0,0,1,,,,,,,,,,,,,,,0,,,71,110
74760,note_on,0,0,1,,,,,,,,,,,,,,,0,,,77,110
74820,note_on,60,0,1,,,,,,,,,,,,,,,0,,,77,0
74820,note_on,0,0,1,,,,,,,,,,,,,,,0,,,71,0
74820,note_on,0,0,1,,,,,,,,,,,,,,,0,,,65,110
74820,note_on,0,0,1,,,,,,,,,,,,,,,0,,,74,110
74880,note_on,2760,0,3,,,,,,,,,,,,,,,2,,,24,115
74880,note_on,0,0,1,,,,,,,,,,,,,,,0,,,63,110
74880,note_on,0,0,1,,,,,,,,,,,,,,,0,,,75,110
74880,note_on,0,0,1,,,,,,,,,,,,,,,0,,,65,0
74880,note_on,60,0,1,,,,,,,,,,,,,,,0,,,74,0
74880,note_on,0,0,1,,,,,,,,,,,,,,,0,,,72,110
74880,note_on,0,0,2,,,,,,,,,,,,,,,1,,,55,100
74880,note_on,2760,0,2,,,,,,,,,,,,,,,1,,,60,100
74880,note_on,0,0,1,,,,,,,,,,,,,,,0,,,67,110
74940,note_on,0,0,3,,,,,,,,,,,,,,,2,,,27,115
74940,note_on,60,0,3,,,,,,,,,,,,,,,2,,,24,0
75000,note_on,120,0,1,,,,,,,,,,,,,,,0,,,63,0
75000,note_on,120,0,2,,,,,,,,,,,,,,,1,,,55,0
75000,note_on,0,0,3,,,,,,,,,,,,,,,2,,,26,115
75000,note_on,0,0,1,,,,,,,,,,,,,,,0,,,67,0
75000,note_on,0,0,1,,,,,,,,,,,,,,,0,,,72,0
75000,note_on,60,0,3,,,,,,,,,,,,,,,2,,,27,0
75000,note_on,0,0,1,,,,,,,,,,,,,,,0,,,75,0
75000,note_on,0,0,2,,,,,,,,,,,,,,,1,,,60,0
75060,note_on,0,0,3,,,,,,,,,,,,,,,2,,,27,115
75060,note_on,60,0,3,,,,,,,,,,,,,,,2,,,26,0
75120,note_on,0,0,3,,,,,,,,,,,,,,,2,,,24,115
75120,note_on,60,0,3,,,,,,,,,,,,,,,2,,,27,0
75180,note_on,60,0,3,,,,,,,,,,,,,,,2,,,24,0
75180,note_on,0,0,3,,,,,,,,,,,,,,,2,,,27,115
75240,note_on,60,0,3,,,,,,,,,,,,,,,2,,,27,0
75240,note_on,0,0,3,,,,,,,,,,,,,,,2,,,26,115
75300,note_on,0,0,3,,,,,,,,,,,,,,,2,,,27,115
75300,note_on,60,0,3,,,,,,,,,,,,,,,2,,,26,0
75360,note_on,360,0,1,,,,,,,,,,,,,,,0,,,74,110
75360,note_on,0,0,1,,,,,,,,,,,,,,,0,,,71,110
75360,note_on,0,0,1,,,,,,,,,,,,,,,0,,,62,110
75360,note_on,0,0,1,,,,,,,,,,,,,,,0,,,67,110
75360,note_on,360,0,2,,,,,,,,,,,,,,,1,,,59,100
75360,note_on,0,0,2,,,,,,,,,,,,,,,1,,,55,100
75360,note_on,60,0,3,,,,,,,,,,,,,,,2,,,27,0
75360,note_on,0,0,3,,,,,,,,,,,,,,,2,,,26,115
75420,note_on,60,0,3,,,,,,,,,,,,,,,2,,,26,0
75420,note_on,0,0,3,,,,,,,,,,,,,,,2,,,29,115
75480,note_on,60,0,3,,,,,,,,,,,,,,,2,,,29,0
75480,note_on,120,0,2,,,,,,,,,,,,,,,1,,,55,0
75480,note_on,0,0,3,,,,,,,,,,,,,,,2,,,27,115
75480,note_on,0,0,1,,,,,,,,,,,,,,,0,,,67,0
75480,note_on,0,0,1,,,,,,,,,,,,,,,0,,,71,0
75480,note_on,0,0,1,,,,,,,,,,,,,,,0,,,74,0
75480,note_on,120,0,1,,,,,,,,,,,,,,,0,,,62,0
75480,note_on,0,0,2,,,,,,,,,,,,,,,1,,,59,0
75540,note_on,0,0,3,,,,,,,,,,,,,,,2,,,29,115
75540,note_on,60,0,3,,,,,,,,,,,,,,,2,,,27,0
75600,note_on,60,0,3,,,,,,,,,,,,,,,2,,,29,0
75600,note_on,0,0,3,,,,,,,,,,,,,,,2,,,26,115
75660,note_on,0,0,3,,,,,,,,,,,,,,,2,,,29,115
75660,note_on,60,0,3,,,,,,,,,,,,,,,2,,,26,0
75720,note_on,0,0,3,,,,,,,,,,,,,,,2,,,27,115
75720,note_on,60,0,3,,,,,,,,,,,,,,,2,,,29,0
75780,note_on,0,0,3,,,,,,,,,,,,,,,2,,,29,115
75780,note_on,60,0,3,,,,,,,,,,,,,,,2,,,27,0
75840,note_on,0,0,3,,,,,,,,,,,,,,,2,,,27,115
75840,note_on,0,0,1,,,,,,,,,,,,,,,0,,,60,110
75840,note_on,0,0,2,,,,,,,,,,,,,,,1,,,51,100
75840,note_on,360,0,2,,,,,,,,,,,,,,,1,,,55,100
75840,note_on,360,0,1,,,,,,,,,,,,,,,0,,,72,110
75840,note_on,0,0,1,,,,,,,,,,,,,,,0,,,67,110
75840,note_on,0,0,1,,,,,,,,,,,,,,,0,,,63,110
75840,note_on,60,0,3,,,,,,,,,,,,,,,2,,,29,0
75900,note_on,0,0,3,,,,,,,,,,,,,,,2,,,31,115
75900,note_on,60,0,3,,,,,,,,,,,,,,,2,,,27,0
75960,note_on,0,0,2,,,,,,,,,,,,,,,1,,,55,0
75960,note_on,0,0,1,,,,,,,,,,,,,,,0,,,63,0
75960,note_on,0,0,1,,,,,,,,,,,,,,,0,,,67,0
75960,note_on,0,0,1,,,,,,,,,,,,,,,0,,,72,0
75960,note_on,120,0,1,,,,,,,,,,,,,,,0,,,60,0
75960,note_on,120,0,2,,,,,,,,,,,,,,,1,,,51,0
75960,note_on,0,0,3,,,,,,,,,,,,,,,2,,,29,115
75960,note_on,60,0,3,,,,,,,,,,,,,,,2,,,31,0
76020,note_on,0,0,3,,,,,,,,,,,,,,,2,,,31,115
76020,note_on,60,0,3,,,,,,,,,,,,,,,2,,,29,0
76080,note_on,60,0,3,,,,,,,,,,,,,,,2,,,31,0
76080,note_on,0,0,3,,,,,,,,,,,,,,,2,,,27,115
76140,note_on,60,0,3,,,,,,,,,,,,,,,2,,,27,0
76140,note_on,0,0,3,,,,,,,,,,,,,,,2,,,31,115
76200,note_on,60,0,3,,,,,,,,,,,,,,,2,,,31,0
76200,note_on,0,0,3,,,,,,,,,,,,,,,2,,,29,115
76260,note_on,60,0,3,,,,,,,,,,,,,,,2,,,29,0
76260,note_on,0,0,3,,,,,,,,,,,,,,,2,,,31,115
76320,note_on,360,0,1,,,,,,,,,,,,,,,0,,,72,110
76320,note_on,60,0,3,,,,,,,,,,,,,,,2,,,31,0
76320,note_on,0,0,1,,,,,,,,,,,,,,,0,,,60,110
76320,note_on,0,0,3,,,,,,,,,,,,,,,2,,,29,115
76320,note_on,0,0,1,,,,,,,,,,,,,,,0,,,65,110
76320,note_on,0,0,1,,,,,,,,,,,,,,,0,,,68,110
76320,note_on,0,0,2,,,,,,,,,,,,,,,1,,,53,100
76320,note_on,360,0,2,,,,,,,,,,,,,,,1,,,56,100
76324,set_tempo,5284,1,0,,,,,,,,,,,,869565,,,,,,,
76380,note_on,60,0,3,,,,,,,,,,,,,,,2,,,29,0
76380,note_on,0,0,3,,,,,,,,,,,,,,,2,,,32,115
76440,note_on,60,0,3,,,,,,,,,,,,,,,2,,,32,0
76440,note_on,0,0,2,,,,,,,,,,,,,,,1,,,56,0
76440,note_on,0,0,3,,,,,,,,,,,,,,,2,,,31,115
76440,note_on,120,0,1,,,,,,,,,,,,,,,0,,,60,0
76440,note_on,0,0,1,,,,,,,,,,,,,,,0,,,72,0
76440,note_on,0,0,1,,,,,,,,,,,,,,,0,,,68,0
76440,note_on,0,0,1,,,,,,,,,,,,,,,0,,,65,0
76440,note_on,120,0,2,,,,,,,,,,,,,,,1,,,53,0
76500,note_on,0,0,3,,,,,,,,,,,,,,,2,,,32,115
76500,note_on,60,0,3,,,,,,,,,,,,,,,2,,,31,0
76560,note_on,0,0,3,,,,,,,,,,,,,,,2,,,29,115
76560,note_on,60,0,3,,,,,,,,,,,,,,,2,,,32,0
76572,set_tempo,248,1,0,,,,,,,,,,,,983607,,,,,,,
76620,note_on,60,0,3,,,,,,,,,,,,,,,2,,,29,0
76620,note_on,0,0,3,,,,,,,,,,,,,,,2,,,32,115
76680,note_on,0,0,3,,,,,,,,,,,,,,,2,,,31,115
76680,note_on,60,0,3,,,,,,,,,,,,,,,2,,,32,0
76740,note_on,0,0,3,,,,,,,,,,,,,,,2,,,32,115
76740,note_on,60,0,3,,,,,,,,,,,,,,,2,,,31,0
76800,note_on,0,0,3,,,,,,,,,,,,,,,2,,,31,115
76800,note_on,60,0,3,,,,,,,,,,,,,,,2,,,32,0
76800,note_on,360,0,2,,,,,,,,,,,,,,,1,,,50,100
76800,note_on,0,0,2,,,,,,,,,,,,,,,1,,,55,100
76800,note_on,0,0,1,,,,,,,,,,,,,,,0,,,71,110
76800,note_on,0,0,1,,,,,,,,,,,,,,,0,,,67,110
76800,note_on,360,0,1,,,,,,,,,,,,,,,0,,,62,110
76804,set_tempo,232,1,0,,,,,,,,,,,,1250000,,,,,,,
76920,note_on,0,0,1,,,,,,,,,,,,,,,0,,,62,0
76920,note_on,120,0,3,,,,,,,,,,,,,,,2,,,31,0
76920,note_on,0,0,1,,,,,,,,,,,,,,,0,,,67,0
76920,note_on,120,0,1,,,,,,,,,,,,,,,0,,,71,0
76920,note_on,0,0,2,,,,,,,,,,,,,,,1,,,50,0
76920,note_on,120,0,2,,,,,,,,,,,,,,,1,,,55,0
76936,set_tempo,132,1,0,,,,,,,,,,,,895522,,,,,,,
76940,set_tempo,4,1,0,,,,,,,,,,,,833333,,,,,,,
77044,set_tempo,104,1,0,,,,,,,,,,,,779221,,,,,,,
77048,set_tempo,4,1,0,,,,,,,,,,,,821918,,,,,,,
77052,set_tempo,4,1,0,,,,,,,,,,,,789474,,,,,,,
77100,note_on,180,0,1,,,,,,,,,,,,,,,0,,,62,110
77100,note_on,0,0,1,,,,,,,,,,,,,,,0,,,77,110
77136,set_tempo,84,1,0,,,,,,,,,,,,697674,,,,,,,
77160,note_on,60,0,1,,,,,,,,,,,,,,,0,,,77,0
77160,note_on,0,0,1,,,,,,,,,,,,,,,0,,,62,0
77160,note_on,0,0,1,,,,,,,,,,,,,,,0,,,63,110
77160,note_on,0,0,1,,,,,,,,,,,,,,,0,,,79,110
77220,note_on,0,0,1,,,,,,,,,,,,,,,0,,,80,110
77220,note_on,60,0,1,,,,,,,,,,,,,,,0,,,79,0
77220,note_on,0,0,1,,,,,,,,,,,,,,,0,,,63,0
77220,note_on,0,0,1,,,,,,,,,,,,,,,0,,,65,110
77280,note_on,0,0,1,,,,,,,,,,,,,,,0,,,79,110
77280,note_on,60,0,1,,,,,,,,,,,,,,,0,,,80,0
77280,note_on,0,0,1,,,,,,,,,,,,,,,0,,,65,0
77280,note_on,0,0,1,,,,,,,,,,,,,,,0,,,63,110
77340,note_on,60,0,1,,,,,,,,,,,,,,,0,,,79,0
77340,note_on,0,0,1,,,,,,,,,,,,,,,0,,,63,0
77340,note_on,0,0,1,,,,,,,,,,,,,,,0,,,65,110
77340,note_on,0,0,1,,,,,,,,,,,,,,,0,,,80,110
77400,note_on,0,0,1,,,,,,,,,,,,,,,0,,,65,0
77400,note_on,0,0,1,,,,,,,,,,,,,,,0,,,63,110
77400,note_on,0,0,1,,,,,,,,,,,,,,,0,,,79,110
77400,note_on,60,0,1,,,,,,,,,,,,,,,0,,,80,0
77460,note_on,60,0,1,,,,,,,,,,,,,,,0,,,79,0
77460,note_on,0,0,1,,,,,,,,,,,,,,,0,,,63,0
77460,note_on,0,0,1,,,,,,,,,,,,,,,0,,,62,110
77460,note_on,0,0,1,,,,,,,,,,,,,,,0,,,77,110
77520,note_on,0,0,1,,,,,,,,,,,,,,,0,,,75,110
77520,note_on,0,0,1,,,,,,,,,,,,,,,0,,,62,0
77520,note_on,0,0,1,,,,,,,,,,,,,,,0,,,60,110
77520,note_on,60,0,1,,,,,,,,,,,,,,,0,,,77,0
77580,note_on,0,0,1,,,,,,,,,,,,,,,0,,,63,110
77580,note_on,60,0,1,,,,,,,,,,,,,,,0,,,75,0
77580,note_on,0,0,1,,,,,,,,,,,,,,,0,,,60,0
77580,note_on,0,0,1,,,,,,,,,,,,,,,0,,,80,110
77640,note_on,0,0,1,,,,,,,,,,,,,,,0,,,75,110
77640,note_on,0,0,1,,,,,,,,,,,,,,,0,,,60,110
77640,note_on,0,0,1,,,,,,,,,,,,,,,0,,,63,0
77640,note_on,60,0,1,,,,,,,,,,,,,,,0,,,80,0
77700,note_on,0,0,1,,,,,,,,,,,,,,,0,,,80,110
77700,note_on,0,0,1,,,,,,,,,,,,,,,0,,,63,110
77700,note_on,0,0,1,,,,,,,,,,,,,,,0,,,60,0
77700,note_on,60,0,1,,,,,,,,,,,,,,,0,,,75,0
77760,note_on,60,0,1,,,,,,,,,,,,,,,0,,,80,0
77760,note_on,0,0,1,,,,,,,,,,,,,,,0,,,77,110
77760,note_on,0,0,1,,,,,,,,,,,,,,,0,,,63,0
77760,note_on,840,0,2,,,,,,,,,,,,,,,1,,,62,100
77820,note_on,0,0,1,,,,,,,,,,,,,,,0,,,79,110
77820,note_on,60,0,1,,,,,,,,,,,,,,,0,,,77,0
77820,note_on,60,0,2,,,,,,,,,,,,,,,1,,,62,0
77820,note_on,0,0,2,,,,,,,,,,,,,,,1,,,63,100
77880,note_on,0,0,1,,,,,,,,,,,,,,,0,,,77,110
77880,note_on,60,0,1,,,,,,,,,,,,,,,0,,,79,0
77880,note_on,60,0,2,,,,,,,,,,,,,,,1,,,63,0
77880,note_on,0,0,2,,,,,,,,,,,,,,,1,,,62,100
77940,note_on,60,0,1,,,,,,,,,,,,,,,0,,,77,0
77940,note_on,0,0,1,,,,,,,,,,,,,,,0,,,75,110
77940,note_on,0,0,2,,,,,,,,,,,,,,,1,,,60,100
77940,note_on,60,0,2,,,,,,,,,,,,,,,1,,,62,0
78000,note_on,60,0,2,,,,,,,,,,,,,,,1,,,60,0
78000,note_on,0,0,2,,,,,,,,,,,,,,,1,,,59,100
78000,note_on,0,0,1,,,,,,,,,,,,,,,0,,,74,110
78000,note_on,60,0,1,,,,,,,,,,,,,,,0,,,75,0
78060,note_on,60,0,2,,,,,,,,,,,,,,,1,,,59,0
78060,note_on,0,0,2,,,,,,,,,,,,,,,1,,,62,100
78060,note_on,60,0,1,,,,,,,,,,,,,,,0,,,74,0
78060,note_on,0,0,1,,,,,,,,,,,,,,,0,,,79,110
78120,note_on,60,0,1,,,,,,,,,,,,,,,0,,,79,0
78120,note_on,0,0,1,,,,,,,,,,,,,,,0,,,74,110
78120,note_on,0,0,2,,,,,,,,,,,,,,,1,,,59,100
78120,note_on,60,0,2,,,,,,,,,,,,,,,1,,,62,0
78180,note_on,0,0,2,,,,,,,,,,,,,,,1,,,62,100
78180,note_on,60,0,2,,,,,,,,,,,,,,,1,,,59,0
78180,note_on,0,0,1,,,,,,,,,,,,,,,0,,,79,110
78180,note_on,60,0,1,,,,,,,,,,,,,,,0,,,74,0
78240,note_on,0,0,1,,,,,,,,,,,,,,,0,,,75,110
78240,note_on,60,0,2,,,,,,,,,,,,,,,1,,,62,0
78240,note_on,0,0,2,,,,,,,,,,,,,,,1,,,55,100
78240,note_on,60,0,1,,,,,,,,,,,,,,,0,,,79,0
78300,note_on,60,0,1,,,,,,,,,,,,,,,0,,,75,0
78300,note_on,60,0,2,,,,,,,,,,,,,,,1,,,55,0
78300,note_on,0,0,1,,,,,,,,,,,,,,,0,,,77,110
78300,note_on,0,0,2,,,,,,,,,,,,,,,1,,,56,100
78360,note_on,0,0,1,,,,,,,,,,,,,,,0,,,75,110
78360,note_on,60,0,1,,,,,,,,,,,,,,,0,,,77,0
78360,note_on,0,0,2,,,,,,,,,,,,,,,1,,,55,100
78360,note_on,60,0,2,,,,,,,,,,,,,,,1,,,56,0
78420,note_on,0,0,1,,,,,,,,,,,,,,,0,,,74,110
78420,note_on,60,0,1,,,,,,,,,,,,,,,0,,,75,0
78420,note_on,60,0,2,,,,,,,,,,,,,,,1,,,55,0
78420,note_on,0,0,2,,,,,,,,,,,,,,,1,,,53,100
78480,note_on,0,0,1,,,,,,,,,,,,,,,0,,,72,110
78480,note_on,60,0,1,,,,,,,,,,,,,,,0,,,74,0
78480,note_on,0,0,2,,,,,,,,,,,,,,,1,,,51,100
78480,note_on,60,0,2,,,,,,,,,,,,,,,1,,,53,0
78540,note_on,0,0,1,,,,,,,,,,,,,,,0,,,77,110
78540,note_on,60,0,1,,,,,,,,,,,,,,,0,,,72,0
78540,note_on,0,0,2,,,,,,,,,,,,,,,1,,,56,100
78540,note_on,60,0,2,,,,,,,,,,,,,,,1,,,51,0
78600,note_on,0,0,2,,,,,,,,,,,,,,,1,,,51,100
78600,note_on,60,0,1,,,,,,,,,,,,,,,0,,,77,0
78600,note_on,60,0,2,,,,,,,,,,,,,,,1,,,56,0
78600,note_on,0,0,1,,,,,,,,,,,,,,,0,,,72,110
78660,note_on,0,0,1,,,,,,,,,,,,,,,0,,,77,110
78660,note_on,60,0,1,,,,,,,,,,,,,,,0,,,72,0
78660,note_on,0,0,2,,,,,,,,,,,,,,,1,,,56,100
78660,note_on,60,0,2,,,,,,,,,,,,,,,1,,,51,0
78720,note_on,0,0,1,,,,,,,,,,,,,,,0,,,74,110
78720,note_on,0,0,2,,,,,,,,,,,,,,,1,,,53,100
78720,note_on,60,0,2,,,,,,,,,,,,,,,1,,,56,0
78720,note_on,60,0,1,,,,,,,,,,,,,,,0,,,77,0
78780,note_on,0,0,2,,,,,,,,,,,,,,,1,,,55,100
78780,note_on,60,0,1,,,,,,,,,,,,,,,0,,,74,0
78780,note_on,0,0,1,,,,,,,,,,,,,,,0,,,75,110
78780,note_on,60,0,2,,,,,,,,,,,,,,,1,,,53,0
78840,note_on,60,0,1,,,,,,,,,,,,,,,0,,,75,0
78840,note_on,0,0,1,,,,,,,,,,,,,,,0,,,74,110
78840,note_on,0,0,2,,,,,,,,,,,,,,,1,,,53,100
78840,note_on,60,0,2,,,,,,,,,,,,,,,1,,,55,0
78900,note_on,60,0,1,,,,,,,,,,,,,,,0,,,74,0
78900,note_on,0,0,1,,,,,,,,,,,,,,,0,,,72,110
78900,note_on,0,0,2,,,,,,,,,,,,,,,1,,,51,100
78900,note_on,60,0,2,,,,,,,,,,,,,,,1,,,53,0
78960,note_on,60,0,1,,,,,,,,,,,,,,,0,,,72,0
78960,note_on,0,0,1,,,,,,,,,,,,,,,0,,,71,110
78960,note_on,0,0,2,,,,,,,,,,,,,,,1,,,50,100
78960,note_on,60,0,2,,,,,,,,,,,,,,,1,,,51,0
79020,note_on,0,0,1,,,,,,,,,,,,,,,0,,,80,110
79020,note_on,60,0,1,,,,,,,,,,,,,,,0,,,71,0
79020,note_on,0,0,2,,,,,,,,,,,,,,,1,,,53,100
79020,note_on,60,0,2,,,,,,,,,,,,,,,1,,,50,0
79080,note_on,60,0,1,,,,,,,,,,,,,,,0,,,80,0
79080,note_on,0,0,1,,,,,,,,,,,,,,,0,,,71,110
79080,note_on,60,0,2,,,,,,,,,,,,,,,1,,,53,0
79080,note_on,0,0,2,,,,,,,,,,,,,,,1,,,50,100
79140,note_on,60,0,1,,,,,,,,,,,,,,,0,,,71,0
79140,note_on,0,0,1,,,,,,,,,,,,,,,0,,,80,110
79140,note_on,0,0,2,,,,,,,,,,,,,,,1,,,53,100
79140,note_on,60,0,2,,,,,,,,,,,,,,,1,,,50,0
79200,note_on,60,0,2,,,,,,,,,,,,,,,1,,,53,0
79200,note_on,0,0,1,,,,,,,,,,,,,,,0,,,79,110
79200,note_on,60,0,1,,,,,,,,,,,,,,,0,,,80,0
79200,note_on,0,0,2,,,,,,,,,,,,,,,1,,,51,100
79260,note_on,0,0,1,,,,,,,,,,,,,,,0,,,80,110
79260,note_on,60,0,1,,,,,,,,,,,,,,,0,,,79,0
79260,note_on,0,0,2,,,,,,,,,,,,,,,1,,,53,100
79260,note_on,60,0,2,,,,,,,,,,,,,,,1,,,51,0
79320,note_on,60,0,1,,,,,,,,,,,,,,,0,,,80,0
79320,note_on,0,0,2,,,,,,,,,,,,,,,1,,,55,100
79320,note_on,60,0,2,,,,,,,,,,,,,,,1,,,53,0
79320,note_on,0,0,1,,,,,,,,,,,,,,,0,,,75,110
79380,note_on,60,0,2,,,,,,,,,,,,,,,1,,,55,0
79380,note_on,0,0,1,,,,,,,,,,,,,,,0,,,79,110
79380,note_on,60,0,1,,,,,,,,,,,,,,,0,,,75,0
79380,note_on,0,0,2,,,,,,,,,,,,,,,1,,,51,100
79440,note_on,60,0,2,,,,,,,,,,,,,,,1,,,51,0
79440,note_on,0,0,2,,,,,,,,,,,,,,,1,,,50,100
79440,note_on,0,0,1,,,,,,,,,,,,,,,0,,,77,110
79440,note_on,60,0,1,,,,,,,,,,,,,,,0,,,79,0
79500,note_on,60,0,2,,,,,,,,,,,,,,,1,,,50,0
79500,note_on,0,0,1,,,,,,,,,,,,,,,0,,,74,110
79500,note_on,60,0,1,,,,,,,,,,,,,,,0,,,77,0
79500,note_on,0,0,2,,,,,,,,,,,,,,,1,,,59,100
79560,note_on,0,0,2,,,,,,,,,,,,,,,1,,,55,100
79560,note_on,0,0,1,,,,,,,,,,,,,,,0,,,71,110
79560,note_on,60,0,1,,,,,,,,,,,,,,,0,,,74,0
79560,note_on,60,0,2,,,,,,,,,,,,,,,1,,,59,0
79620,note_on,60,0,2,,,,,,,,,,,,,,,1,,,55,0
79620,note_on,0,0,2,,,,,,,,,,,,,,,1,,,59,100
79620,note_on,60,0,1,,,,,,,,,,,,,,,0,,,71,0
79620,note_on,0,0,1,,,,,,,,,,,,,,,0,,,79,110
79680,set_tempo,2544,1,0,,,,,,,,,,,,800000,,,,,,,
79680,note_on,60,0,2,,,,,,,,,,,,,,,1,,,59,0
79680,note_on,0,0,2,,,,,,,,,,,,,,,1,,,60,100
79680,note_on,0,0,1,,,,,,,,,,,,,,,0,,,75,110
79680,note_on,60,0,1,,,,,,,,,,,,,,,0,,,79,0
79740,note_on,0,0,1,,,,,,,,,,,,,,,0,,,72,110
79740,note_on,60,0,1,,,,,,,,,,,,,,,0,,,75,0
79740,note_on,0,0,2,,,,,,,,,,,,,,,1,,,58,100
79740,note_on,60,0,2,,,,,,,,,,,,,,,1,,,60,0
79800,note_on,0,0,1,,,,,,,,,,,,,,,0,,,77,110
79800,note_on,0,0,2,,,,,,,,,,,,,,,1,,,57,100
79800,note_on,60,0,2,,,,,,,,,,,,,,,1,,,58,0
79800,note_on,60,0,1,,,,,,,,,,,,,,,0,,,72,0
79860,note_on,0,0,2,,,,,,,,,,,,,,,1,,,60,100
79860,note_on,60,0,2,,,,,,,,,,,,,,,1,,,57,0
79860,note_on,0,0,1,,,,,,,,,,,,,,,0,,,75,110
79860,note_on,60,0,1,,,,,,,,,,,,,,,0,,,77,0
79920,note_on,0,0,1,,,,,,,,,,,,,,,0,,,74,110
79920,note_on,0,0,2,,,,,,,,,,,,,,,1,,,59,100
79920,note_on,60,0,2,,,,,,,,,,,,,,,1,,,60,0
79920,note_on,60,0,1,,,,,,,,,,,,,,,0,,,75,0
79980,note_on,0,0,1,,,,,,,,,,,,,,,0,,,72,110
79980,note_on,0,0,2,,,,,,,,,,,,,,,1,,,60,100
79980,note_on,60,0,1,,,,,,,,,,,,,,,0,,,74,0
79980,note_on,60,0,2,,,,,,,,,,,,,,,1,,,59,0
80040,note_on,60,0,2,,,,,,,,,,,,,,,1,,,60,0
80040,note_on,0,0,2,,,,,,,,,,,,,,,1,,,62,100
80040,note_on,0,0,1,,,,,,,,,,,,,,,0,,,71,110
80040,note_on,60,0,1,,,,,,,,,,,,,,,0,,,72,0
80100,note_on,0,0,2,,,,,,,,,,,,,,,1,,,59,100
80100,note_on,0,0,1,,,,,,,,,,,,,,,0,,,74,110
80100,note_on,60,0,1,,,,,,,,,,,,,,,0,,,71,0
80100,note_on,60,0,2,,,,,,,,,,,,,,,1,,,62,0
80160,note_on,60,0,1,,,,,,,,,,,,,,,0,,,74,0
80160,note_on,60,0,2,,,,,,,,,,,,,,,1,,,59,0
80160,note_on,0,0,2,,,,,,,,,,,,,,,1,,,57,100
80160,note_on,0,0,1,,,,,,,,,,,,,,,0,,,72,110
80168,set_tempo,488,1,0,,,,,,,,,,,,895522,,,,,,,
80220,note_on,60,0,1,,,,,,,,,,,,,,,0,,,72,0
80220,note_on,0,0,1,,,,,,,,,,,,,,,0,,,69,110
80220,note_on,0,0,2,,,,,,,,,,,,,,,1,,,55,100
80220,note_on,60,0,2,,,,,,,,,,,,,,,1,,,57,0
80280,note_on,0,0,2,,,,,,,,,,,,,,,1,,,54,100
80280,note_on,60,0,2,,,,,,,,,,,,,,,1,,,55,0
80280,note_on,60,0,1,,,,,,,,,,,,,,,0,,,69,0
80280,note_on,0,0,1,,,,,,,,,,,,,,,0,,,74,110
80292,set_tempo,124,1,0,,,,,,,,,,,,1034483,,,,,,,
80340,note_on,60,0,2,,,,,,,,,,,,,,,1,,,54,0
80340,note_on,0,0,1,,,,,,,,,,,,,,,0,,,72,110
80340,note_on,60,0,1,,,,,,,,,,,,,,,0,,,74,0
80340,note_on,0,0,2,,,,,,,,,,,,,,,1,,,57,100
80400,note_on,60,0,2,,,,,,,,,,,,,,,1,,,57,0
80400,note_on,0,0,1,,,,,,,,,,,,,,,0,,,71,110
80400,note_on,60,0,1,,,,,,,,,,,,,,,0,,,72,0
80400,note_on,0,0,2,,,,,,,,,,,,,,,1,,,55,100
80404,set_tempo,112,1,0,,,,,,,,,,,,1132075,,,,,,,
80430,note_on,0,0,2,,,,,,,,,,,,,,,1,,,50,100
80430,note_on,30,0,2,,,,,,,,,,,,,,,1,,,55,0
80460,note_on,0,0,2,,,,,,,,,,,,,,,1,,,47,100
80460,note_on,30,0,2,,,,,,,,,,,,,,,1,,,50,0
80490,note_on,0,0,2,,,,,,,,,,,,,,,1,,,50,100
80490,note_on,30,0,2,,,,,,,,,,,,,,,1,,,47,0
80520,note_on,120,0,1,,,,,,,,,,,,,,,0,,,71,0
80520,note_on,0,0,2,,,,,,,,,,,,,,,1,,,43,100
80520,note_on,30,0,2,,,,,,,,,,,,,,,1,,,50,0
80580,note_on,0,0,2,,,,,,,,,,,,,,,1,,,41,100
80580,note_on,60,0,2,,,,,,,,,,,,,,,1,,,43,0
80640,set_tempo,236,1,0,,,,,,,,,,,,800000,,,,,,,
80640,note_on,60,0,2,,,,,,,,,,,,,,,1,,,41,0
80640,note_on,3720,0,3,,,,,,,,,,,,,,,2,,,28,115
80880,note_on,0,0,1,,,,,,,,,,,,,,,0,,,64,110
80880,note_on,0,0,2,,,,,,,,,,,,,,,1,,,52,100
80880,note_on,0,0,2,,,,,,,,,,,,,,,1,,,48,100
80880,note_on,0,0,1,,,,,,,,,,,,,,,0,,,67,110
80880,note_on,0,0,1,,,,,,,,,,,,,,,0,,,60,110
80880,note_on,360,0,1,,,,,,,,,,,,,,,0,,,72,110
80880,note_on,240,0,2,,,,,,,,,,,,,,,1,,,55,100
80888,set_tempo,248,1,0,,,,,,,,,,,,952381,,,,,,,
81120,note_on,0,0,1,,,,,,,,,,,,,,,0,,,72,0
81120,note_on,480,0,3,,,,,,,,,,,,,,,2,,,28,0
81120,note_on,0,0,1,,,,,,,,,,,,,,,0,,,67,0
81120,note_on,0,0,2,,,,,,,,,,,,,,,1,,,55,0
81120,note_on,0,0,2,,,,,,,,,,,,,,,1,,,52,0
81120,note_on,240,0,2,,,,,,,,,,,,,,,1,,,48,0
81120,note_on,0,0,1,,,,,,,,,,,,,,,0,,,64,0
81120,note_on,240,0,1,,,,,,,,,,,,,,,0,,,60,0
81150,note_on,30,0,2,,,,,,,,,,,,,,,1,,,48,100
81180,note_on,0,0,2,,,,,,,,,,,,,,,1,,,50,100
81180,note_on,30,0,2,,,,,,,,,,,,,,,1,,,48,0
81210,note_on,30,0,2,,,,,,,,,,,,,,,1,,,50,0
81210,note_on,0,0,2,,,,,,,,,,,,,,,1,,,52,100
81240,note_on,30,0,2,,,,,,,,,,,,,,,1,,,52,0
81240,note_on,0,0,2,,,,,,,,,,,,,,,1,,,53,100
81270,note_on,30,0,2,,,,,,,,,,,,,,,1,,,53,0
81270,note_on,0,0,2,,,,,,,,,,,,,,,1,,,55,100
81300,note_on,30,0,2,,,,,,,,,,,,,,,1,,,55,0
81300,note_on,0,0,2,,,,,,,,,,,,,,,1,,,57,100
81330,note_on,30,0,2,,,,,,,,,,,,,,,1,,,57,0
81330,note_on,0,0,2,,,,,,,,,,,,,,,1,,,59,100
81360,note_on,0,0,2,,,,,,,,,,,,,,,1,,,60,100
81360,note_on,30,0,2,,,,,,,,,,,,,,,1,,,59,0
81372,set_tempo,484,1,0,,,,,,,,,,,,857143,,,,,,,
81390,note_on,30,0,2,,,,,,,,,,,,,,,1,,,60,0
81390,note_on,270,0,1,,,,,,,,,,,,,,,0,,,55,110
81420,note_on,30,0,1,,,,,,,,,,,,,,,0,,,55,0
81420,note_on,0,0,1,,,,,,,,,,,,,,,0,,,57,110
81450,note_on,30,0,1,,,,,,,,,,,,,,,0,,,57,0
81450,note_on,0,0,1,,,,,,,,,,,,,,,0,,,59,110
81480,note_on,0,0,1,,,,,,,,,,,,,,,0,,,60,110
81480,note_on,30,0,1,,,,,,,,,,,,,,,0,,,59,0
81492,set_tempo,120,1,0,,,,,,,,,,,,800000,,,,,,,
81510,note_on,0,0,1,,,,,,,,,,,,,,,0,,,62,110
81510,note_on,30,0,1,,,,,,,,,,,,,,,0,,,60,0
81540,note_on,30,0,1,,,,,,,,,,,,,,,0,,,62,0
81540,note_on,0,0,1,,,,,,,,,,,,,,,0,,,64,110
81570,note_on,30,0,1,,,,,,,,,,,,,,,0,,,64,0
81570,note_on,0,0,1,,,,,,,,,,,,,,,0,,,65,110
81600,note_on,30,0,1,,,,,,,,,,,,,,,0,,,65,0
81600,note_on,0,0,1,,,,,,,,,,,,,,,0,,,67,110
81630,note_on,30,0,1,,,,,,,,,,,,,,,0,,,67,0
81630,note_on,0,0,1,,,,,,,,,,,,,,,0,,,72,110
81660,note_on,0,0,1,,,,,,,,,,,,,,,0,,,71,110
81660,note_on,30,0,1,,,,,,,,,,,,,,,0,,,72,0
81690,note_on,0,0,1,,,,,,,,,,,,,,,0,,,69,110
81690,note_on,30,0,1,,,,,,,,,,,,,,,0,,,71,0
81720,note_on,0,0,1,,,,,,,,,,,,,,,0,,,67,110
81720,note_on,30,0,1,,,,,,,,,,,,,,,0,,,69,0
81750,note_on,30,0,1,,,,,,,,,,,,,,,0,,,67,0
81750,note_on,0,0,1,,,,,,,,,,,,,,,0,,,77,110
81780,note_on,30,0,1,,,,,,,,,,,,,,,0,,,77,0
81780,note_on,0,0,1,,,,,,,,,,,,,,,0,,,76,110
81810,note_on,30,0,1,,,,,,,,,,,,,,,0,,,76,0
81810,note_on,0,0,1,,,,,,,,,,,,,,,0,,,74,110
81840,note_on,0,0,1,,,,,,,,,,,,,,,0,,,72,110
81840,note_on,30,0,1,,,,,,,,,,,,,,,0,,,74,0
81844,set_tempo,352,1,0,,,,,,,,,,,,845070,,,,,,,
81870,note_on,30,0,1,,,,,,,,,,,,,,,0,,,72,0
81870,note_on,0,0,1,,,,,,,,,,,,,,,0,,,80,110
81900,note_on,30,0,1,,,,,,,,,,,,,,,0,,,80,0
81900,note_on,0,0,1,,,,,,,,,,,,,,,0,,,79,110
81930,note_on,30,0,1,,,,,,,,,,,,,,,0,,,79,0
81930,note_on,0,0,1,,,,,,,,,,,,,,,0,,,77,110
81960,note_on,30,0,1,,,,,,,,,,,,,,,0,,,77,0
81960,note_on,0,0,1,,,,,,,,,,,,,,,0,,,79,110
81990,note_on,0,0,1,,,,,,,,,,,,,,,0,,,77,110
81990,note_on,30,0,1,,,,,,,,,,,,,,,0,,,79,0
82020,note_on,0,0,1,,,,,,,,,,,,,,,0,,,76,110
82020,note_on,30,0,1,,,,,,,,,,,,,,,0,,,77,0
82050,note_on,0,0,1,,,,,,,,,,,,,,,0,,,74,110
82050,note_on,30,0,1,,,,,,,,,,,,,,,0,,,76,0
82080,note_on,0,0,1,,,,,,,,,,,,,,,0,,,72,110
82080,note_on,30,0,1,,,,,,,,,,,,,,,0,,,74,0
82092,set_tempo,248,1,0,,,,,,,,,,,,937500,,,,,,,
82110,note_on,0,0,1,,,,,,,,,,,,,,,0,,,76,110
82110,note_on,30,0,1,,,,,,,,,,,,,,,0,,,72,0
82140,note_on,0,0,1,,,,,,,,,,,,,,,0,,,74,110
82140,note_on,30,0,1,,,,,,,,,,,,,,,0,,,76,0
82170,note_on,0,0,1,,,,,,,,,,,,,,,0,,,72,110
82170,note_on,30,0,1,,,,,,,,,,,,,,,0,,,74,0
82200,note_on,30,0,1,,,,,,,,,,,,,,,0,,,72,0
82200,note_on,0,0,1,,,,,,,,,,,,,,,0,,,71,110
82230,note_on,30,0,1,,,,,,,,,,,,,,,0,,,71,0
82230,note_on,0,0,1,,,,,,,,,,,,,,,0,,,72,110
82260,note_on,30,0,1,,,,,,,,,,,,,,,0,,,72,0
82260,note_on,0,0,1,,,,,,,,,,,,,,,0,,,69,110
82290,note_on,30,0,1,,,,,,,,,,,,,,,0,,,69,0
82290,note_on,0,0,1,,,,,,,,,,,,,,,0,,,71,110
82320,note_on,30,0,1,,,,,,,,,,,,,,,0,,,71,0
82320,note_on,0,0,1,,,,,,,,,,,,,,,0,,,72,110
82328,set_tempo,236,1,0,,,,,,,,,,,,1071429,,,,,,,
82350,note_on,0,0,1,,,,,,,,,,,,,,,0,,,67,110
82350,note_on,30,0,1,,,,,,,,,,,,,,,0,,,72,0
82380,note_on,0,0,1,,,,,,,,,,,,,,,0,,,68,110
82380,note_on,30,0,1,,,,,,,,,,,,,,,0,,,67,0
82410,note_on,30,0,1,,,,,,,,,,,,,,,0,,,68,0
82410,note_on,0,0,1,,,,,,,,,,,,,,,0,,,70,110
82432,set_tempo,104,1,0,,,,,,,,,,,,1363636,,,,,,,
82436,set_tempo,4,1,0,,,,,,,,,,,,2068966,,,,,,,
82440,note_on,30,0,1,,,,,,,,,,,,,,,0,,,70,0
82440,note_on,0,0,1,,,,,,,,,,,,,,,0,,,68,110
82470,note_on,30,0,1,,,,,,,,,,,,,,,0,,,68,0
82470,note_on,0,0,1,,,,,,,,,,,,,,,0,,,70,110
82500,note_on,30,0,1,,,,,,,,,,,,,,,0,,,70,0
82500,note_on,0,0,1,,,,,,,,,,,,,,,0,,,68,110
82500,note_on,0,0,1,,,,,,,,,,,,,,,0,,,68,110
82515,note_on,0,0,1,,,,,,,,,,,,,,,0,,,68,110
82515,note_on,15,0,1,,,,,,,,,,,,,,,0,,,68,0
82515,note_on,0,0,1,,,,,,,,,,,,,,,0,,,68,0
82530,note_on,15,0,1,,,,,,,,,,,,,,,0,,,68,0
82530,note_on,0,0,1,,,,,,,,,,,,,,,0,,,67,110
82560,note_on,1440,0,3,,,,,,,,,,,,,,,2,,,29,115
82560,set_tempo,124,1,0,,,,,,,,,,,,1052632,,,,,,,
82560,note_on,0,0,1,,,,,,,,,,,,,,,0,,,68,110
82560,note_on,30,0,1,,,,,,,,,,,,,,,0,,,67,0
82590,note_on,0,0,1,,,,,,,,,,,,,,,0,,,60,110
82590,note_on,30,0,1,,,,,,,,,,,,,,,0,,,68,0
82620,note_on,30,0,1,,,,,,,,,,,,,,,0,,,60,0
82620,note_on,0,0,1,,,,,,,,,,,,,,,0,,,62,110
82650,note_on,30,0,1,,,,,,,,,,,,,,,0,,,62,0
82650,note_on,0,0,1,,,,,,,,,,,,,,,0,,,64,110
82680,note_on,30,0,1,,,,,,,,,,,,,,,0,,,64,0
82680,note_on,0,0,1,,,,,,,,,,,,,,,0,,,65,110
82710,note_on,0,0,1,,,,,,,,,,,,,,,0,,,67,110
82710,note_on,30,0,1,,,,,,,,,,,,,,,0,,,65,0
82740,note_on,0,0,1,,,,,,,,,,,,,,,0,,,68,110
82740,note_on,30,0,1,,,,,,,,,,,,,,,0,,,67,0
82770,note_on,0,0,1,,,,,,,,,,,,,,,0,,,70,110
82770,note_on,30,0,1,,,,,,,,,,,,,,,0,,,68,0
82800,note_on,30,0,1,,,,,,,,,,,,,,,0,,,70,0
82800,note_on,0,0,1,,,,,,,,,,,,,,,0,,,68,110
82800,set_tempo,240,1,0,,,,,,,,,,,,923077,,,,,,,
82830,note_on,0,0,1,,,,,,,,,,,,,,,0,,,65,110
82830,note_on,30,0,1,,,,,,,,,,,,,,,0,,,68,0
82860,note_on,0,0,1,,,,,,,,,,,,,,,0,,,67,110
82860,note_on,30,0,1,,,,,,,,,,,,,,,0,,,65,0
82890,note_on,30,0,1,,,,,,,,,,,,,,,0,,,67,0
82890,note_on,0,0,1,,,,,,,,,,,,,,,0,,,68,110
82920,note_on,30,0,1,,,,,,,,,,,,,,,0,,,68,0
82920,note_on,0,0,1,,,,,,,,,,,,,,,0,,,70,110
82950,note_on,0,0,1,,,,,,,,,,,,,,,0,,,73,110
82950,note_on,30,0,1,,,,,,,,,,,,,,,0,,,70,0
82980,note_on,30,0,1,,,,,,,,,,,,,,,0,,,73,0
82980,note_on,0,0,1,,,,,,,,,,,,,,,0,,,72,110
83010,note_on,0,0,1,,,,,,,,,,,,,,,0,,,70,110
83010,note_on,30,0,1,,,,,,,,,,,,,,,0,,,72,0
83040,note_on,30,0,1,,,,,,,,,,,,,,,0,,,70,0
83040,note_on,0,0,1,,,,,,,,,,,,,,,0,,,72,110
83040,note_on,480,0,3,,,,,,,,,,,,,,,2,,,29,0
83040,set_tempo,240,1,0,,,,,,,,,,,,845070,,,,,,,
83070,note_on,30,0,1,,,,,,,,,,,,,,,0,,,72,0
83070,note_on,0,0,1,,,,,,,,,,,,,,,0,,,70,110
83100,note_on,30,0,1,,,,,,,,,,,,,,,0,,,70,0
83100,note_on,0,0,1,,,,,,,,,,,,,,,0,,,68,110
83130,note_on,30,0,1,,,,,,,,,,,,,,,0,,,68,0
83130,note_on,0,0,1,,,,,,,,,,,,,,,0,,,67,110
83160,note_on,30,0,1,,,,,,,,,,,,,,,0,,,67,0
83160,note_on,0,0,1,,,,,,,,,,,,,,,0,,,65,110
83190,note_on,30,0,1,,,,,,,,,,,,,,,0,,,65,0
83190,note_on,0,0,1,,,,,,,,,,,,,,,0,,,70,110
83220,note_on,0,0,1,,,,,,,,,,,,,,,0,,,68,110
83220,note_on,30,0,1,,,,,,,,,,,,,,,0,,,70,0
83250,note_on,0,0,1,,,,,,,,,,,,,,,0,,,67,110
83250,note_on,30,0,1,,,,,,,,,,,,,,,0,,,68,0
83280,note_on,30,0,1,,,,,,,,,,,,,,,0,,,67,0
83280,note_on,0,0,1,,,,,,,,,,,,,,,0,,,65,110
83292,set_tempo,252,1,0,,,,,,,,,,,,967742,,,,,,,
83310,note_on,30,0,1,,,,,,,,,,,,,,,0,,,65,0
83310,note_on,0,0,1,,,,,,,,,,,,,,,0,,,61,110
83340,note_on,30,0,1,,,,,,,,,,,,,,,0,,,61,0
83340,note_on,0,0,1,,,,,,,,,,,,,,,0,,,60,110
83370,note_on,30,0,1,,,,,,,,,,,,,,,0,,,60,0
83370,note_on,0,0,1,,,,,,,,,,,,,,,0,,,59,110
83400,note_on,0,0,1,,,,,,,,,,,,,,,0,,,60,110
83400,note_on,30,0,1,,,,,,,,,,,,,,,0,,,59,0
83412,set_tempo,120,1,0,,,,,,,,,,,,1090909,,,,,,,
83430,note_on,0,0,1,,,,,,,,,,,,,,,0,,,62,110
83430,note_on,30,0,1,,,,,,,,,,,,,,,0,,,60,0
83460,note_on,30,0,1,,,,,,,,,,,,,,,0,,,62,0
83460,note_on,0,0,1,,,,,,,,,,,,,,,0,,,64,110
83490,note_on,0,0,1,,,,,,,,,,,,,,,0,,,65,110
83490,note_on,30,0,1,,,,,,,,,,,,,,,0,,,64,0
83520,note_on,0,0,1,,,,,,,,,,,,,,,0,,,67,110
83520,note_on,30,0,1,,,,,,,,,,,,,,,0,,,65,0
83520,set_tempo,108,1,0,,,,,,,,,,,,1111111,,,,,,,
83550,note_on,30,0,1,,,,,,,,,,,,,,,0,,,65,110
83580,note_on,0,0,1,,,,,,,,,,,,,,,0,,,64,110
83580,note_on,30,0,1,,,,,,,,,,,,,,,0,,,65,0
83610,note_on,0,0,1,,,,,,,,,,,,,,,0,,,62,110
83610,note_on,30,0,1,,,,,,,,,,,,,,,0,,,64,0
83640,note_on,0,0,1,,,,,,,,,,,,,,,0,,,64,110
83640,note_on,30,0,1,,,,,,,,,,,,,,,0,,,62,0
83656,set_tempo,136,1,0,,,,,,,,,,,,1578947,,,,,,,
83670,note_on,2280,0,2,,,,,,,,,,,,,,,1,,,62,100
83700,note_on,30,0,2,,,,,,,,,,,,,,,1,,,62,0
83700,note_on,0,0,2,,,,,,,,,,,,,,,1,,,60,100
83730,note_on,0,0,2,,,,,,,,,,,,,,,1,,,59,100
83730,note_on,30,0,2,,,,,,,,,,,,,,,1,,,60,0
83756,set_tempo,100,1,0,,,,,,,,,,,,2222222,,,,,,,
83760,note_on,30,0,2,,,,,,,,,,,,,,,1,,,59,0
83760,note_on,0,0,2,,,,,,,,,,,,,,,1,,,60,100
83790,note_on,30,0,2,,,,,,,,,,,,,,,1,,,56,100
83820,note_on,0,0,2,,,,,,,,,,,,,,,1,,,55,100
83820,note_on,30,0,2,,,,,,,,,,,,,,,1,,,56,0
83850,note_on,0,0,2,,,,,,,,,,,,,,,1,,,53,100
83850,note_on,30,0,2,,,,,,,,,,,,,,,1,,,55,0
83880,note_on,30,0,2,,,,,,,,,,,,,,,1,,,53,0
83880,note_on,0,0,2,,,,,,,,,,,,,,,1,,,55,100
83884,set_tempo,128,1,0,,,,,,,,,,,,2857143,,,,,,,
83910,note_on,30,0,2,,,,,,,,,,,,,,,1,,,55,0
83910,note_on,0,0,2,,,,,,,,,,,,,,,1,,,52,100
83940,note_on,0,0,2,,,,,,,,,,,,,,,1,,,53,100
83940,note_on,30,0,2,,,,,,,,,,,,,,,1,,,52,0
83970,note_on,0,0,2,,,,,,,,,,,,,,,1,,,55,100
83970,note_on,30,0,2,,,,,,,,,,,,,,,1,,,53,0
84000,note_on,30,0,2,,,,,,,,,,,,,,,1,,,48,100
84000,note_on,0,0,2,,,,,,,,,,,,,,,1,,,52,100
84000,note_on,960,0,3,,,,,,,,,,,,,,,2,,,24,115
84008,set_tempo,124,1,0,,,,,,,,,,,,1200000,,,,,,,
84072,set_tempo,64,1,0,,,,,,,,,,,,1304348,,,,,,,
84076,set_tempo,4,1,0,,,,,,,,,,,,1200000,,,,,,,
84480,note_on,0,0,2,,,,,,,,,,,,,,,1,,,55,0
84480,note_on,0,0,2,,,,,,,,,,,,,,,1,,,60,0
84480,note_on,0,0,1,,,,,,,,,,,,,,,0,,,67,0
84480,end_of_track,0,1,2,,,,,,,,,,,,,,,,,,,
84480,note_on,480,0,3,,,,,,,,,,,,,,,2,,,24,0
84480,note_on,480,0,2,,,,,,,,,,,,,,,1,,,52,0
84480,set_tempo,404,1,0,,,,,,,,,,,,800000,,,,,,,
84480,end_of_track,0,1,0,,,,,,,,,,,,,,,,,,,
84480,end_of_track,0,1,3,,,,,,,,,,,,,,,,,,,
84480,note_on,840,0,1,,,,,,,,,,,,,,,0,,,64,0
84480,end_of_track,0,1,1,,,,,,,,,,,,,,,,,,,
84480,note_on,0,0,2,,,,,,,,,,,,,,,1,,,48,0
