tick,type,time,meta,track,frame_rate,hours,minutes,seconds,frames,sub_frames,numerator,denominator,clocks_per_click,notated_32nd_notes_per_beat,key,tempo,port,program,channel,control,value,note,velocity
0,track_name,0,1,0,,,,,,,,,,,,,,,,,,,
0,end_of_track,0,1,7,,,,,,,,,,,,,,,,,,,
0,track_name,0,1,7,,,,,,,,,,,,,,,,,,,
0,midi_port,0,1,7,,,,,,,,,,,,,0,,,,,,
0,end_of_track,0,1,6,,,,,,,,,,,,,,,,,,,
0,track_name,0,1,6,,,,,,,,,,,,,,,,,,,
0,midi_port,0,1,6,,,,,,,,,,,,,0,,,,,,
0,end_of_track,0,1,5,,,,,,,,,,,,,,,,,,,
0,track_name,0,1,5,,,,,,,,,,,,,,,,,,,
0,midi_port,0,1,5,,,,,,,,,,,,,0,,,,,,
0,midi_port,0,1,8,,,,,,,,,,,,,0,,,,,,
0,end_of_track,0,1,4,,,,,,,,,,,,,,,,,,,
0,midi_port,0,1,4,,,,,,,,,,,,,0,,,,,,
0,end_of_track,0,1,3,,,,,,,,,,,,,,,,,,,
0,track_name,0,1,3,,,,,,,,,,,,,,,,,,,
0,midi_port,0,1,3,,,,,,,,,,,,,0,,,,,,
0,note_on,0,0,2,,,,,,,,,,,,,,,1,,,48,100
0,control_change,0,0,2,,,,,,,,,,,,,,,1,10,59,,
0,control_change,0,0,2,,,,,,,,,,,,,,,1,7,100,,
0,program_change,0,0,2,,,,,,,,,,,,,,24,1,,,,
0,track_name,0,1,2,,,,,,,,,,,,,,,,,,,
0,track_name,0,1,4,,,,,,,,,,,,,,,,,,,
0,track_name,0,1,8,,,,,,,,,,,,,,,,,,,
0,end_of_track,0,1,8,,,,,,,,,,,,,,,,,,,
0,midi_port,0,1,9,,,,,,,,,,,,,0,,,,,,
0,midi_port,0,1,16,,,,,,,,,,,,,0,,,,,,
0,end_of_track,0,1,15,,,,,,,,,,,,,,,,,,,
0,track_name,0,1,15,,,,,,,,,,,,,,,,,,,
0,midi_port,0,1,15,,,,,,,,,,,,,0,,,,,,
0,end_of_track,0,1,14,,,,,,,,,,,,,,,,,,,
0,track_name,0,1,14,,,,,,,,,,,,,,,,,,,
0,midi_port,0,1,14,,,,,,,,,,,,,0,,,,,,
0,end_of_track,0,1,13,,,,,,,,,,,,,,,,,,,
0,track_name,0,1,13,,,,,,,,,,,,,,,,,,,
0,midi_port,0,1,13,,,,,,,,,,,,,0,,,,,,
0,end_of_track,0,1,12,,,,,,,,,,,,,,,,,,,
0,track_name,0,1,12,,,,,,,,,,,,,,,,,,,
0,midi_port,0,1,12,,,,,,,,,,,,,0,,,,,,
0,end_of_track,0,1,11,,,,,,,,,,,,,,,,,,,
0,track_name,0,1,11,,,,,,,,,,,,,,,,,,,
0,midi_port,0,1,11,,,,,,,,,,,,,0,,,,,,
0,end_of_track,0,1,10,,,,,,,,,,,,,,,,,,,
0,track_name,0,1,10,,,,,,,,,,,,,,,,,,,
0,midi_port,0,1,10,,,,,,,,,,,,,0,,,,,,
0,end_of_track,0,1,9,,,,,,,,,,,,,,,,,,,
0,track_name,0,1,9,,,,,,,,,,,,,,,,,,,
0,midi_port,0,1,2,,,,,,,,,,,,,0,,,,,,
0,track_name,0,1,16,,,,,,,,,,,,,,,,,,,
0,end_of_track,0,1,16,,,,,,,,,,,,,,,,,,,
0,time_signature,0,1,0,,,,,,,4,4,24,8,,,,,,,,,
0,key_signature,0,1,0,,,,,,,,,,,Eb,,,,,,,,
0,smpte_offset,0,1,0,25,32,0,3,0,0,,,,,,,,,,,,,
0,copyright,0,1,0,,,,,,,,,,,,,,,,,,,
0,control_change,0,0,1,,,,,,,,,,,,,,,0,10,69,,
0,control_change,0,0,1,,,,,,,,,,,,,,,0,7,100,,
0,text,0,1,0,,,,,,,,,,,,,,,,,,,
0,program_change,0,0,1,,,,,,,,,,,,,,24,0,,,,
0,track_name,0,1,1,,,,,,,,,,,,,,,,,,,
0,midi_port,0,1,1,,,,,,,,,,,,,0,,,,,,
0,set_tempo,0,1,0,,,,,,,,,,,,750000,,,,,,,
240,note_on,240,0,1,,,,,,,,,,,,,,,0,,,72,100
360,note_on,120,0,1,,,,,,,,,,,,,,,0,,,72,0
360,note_on,0,0,1,,,,,,,,,,,,,,,0,,,74,100
480,note_on,480,0,2,,,,,,,,,,,,,,,1,,,48,0
480,note_on,120,0,1,,,,,,,,,,,,,,,0,,,74,0
480,note_on,0,0,1,,,,,,,,,,,,,,,0,,,75,100
720,note_on,240,0,1,,,,,,,,,,,,,,,0,,,75,0
720,note_on,0,0,1,,,,,,,,,,,,,,,0,,,79,100
960,note_on,240,0,1,,,,,,,,,,,,,,,0,,,79,0
960,note_on,0,0,1,,,,,,,,,,,,,,,0,,,83,100
1200,note_on,240,0,1,,,,,,,,,,,,,,,0,,,83,0
1200,note_on,0,0,1,,,,,,,,,,,,,,,0,,,84,100
1440,note_on,960,0,2,,,,,,,,,,,,,,,1,,,46,100
1440,note_on,240,0,1,,,,,,,,,,,,,,,0,,,84,0
1680,note_on,240,0,1,,,,,,,,,,,,,,,0,,,84,100
1920,note_on,240,0,1,,,,,,,,,,,,,,,0,,,84,0
1920,note_on,480,0,2,,,,,,,,,,,,,,,1,,,46,0
1920,note_on,0,0,2,,,,,,,,,,,,,,,1,,,44,100
2160,note_on,240,0,1,,,,,,,,,,,,,,,0,,,72,100
2280,note_on,120,0,1,,,,,,,,,,,,,,,0,,,72,0
2280,note_on,0,0,1,,,,,,,,,,,,,,,0,,,74,100
2400,note_on,480,0,2,,,,,,,,,,,,,,,1,,,44,0
2400,note_on,0,0,1,,,,,,,,,,,,,,,0,,,75,100
2400,note_on,120,0,1,,,,,,,,,,,,,,,0,,,74,0
2640,note_on,240,0,1,,,,,,,,,,,,,,,0,,,75,0
2640,note_on,0,0,1,,,,,,,,,,,,,,,0,,,79,100
2880,note_on,240,0,1,,,,,,,,,,,,,,,0,,,79,0
2880,note_on,0,0,1,,,,,,,,,,,,,,,0,,,83,100
3120,note_on,240,0,1,,,,,,,,,,,,,,,0,,,83,0
3120,note_on,0,0,1,,,,,,,,,,,,,,,0,,,84,100
3360,note_on,960,0,2,,,,,,,,,,,,,,,1,,,43,100
3360,note_on,240,0,1,,,,,,,,,,,,,,,0,,,84,0
3600,note_on,240,0,1,,,,,,,,,,,,,,,0,,,84,100
3840,note_on,240,0,1,,,,,,,,,,,,,,,0,,,84,0
3840,note_on,0,0,2,,,,,,,,,,,,,,,1,,,41,100
3840,note_on,480,0,2,,,,,,,,,,,,,,,1,,,43,0
4080,note_on,240,0,1,,,,,,,,,,,,,,,0,,,72,100
4200,note_on,120,0,1,,,,,,,,,,,,,,,0,,,72,0
4200,note_on,0,0,1,,,,,,,,,,,,,,,0,,,74,100
4320,note_on,120,0,1,,,,,,,,,,,,,,,0,,,74,0
4320,note_on,0,0,1,,,,,,,,,,,,,,,0,,,75,100
4320,note_on,480,0,2,,,,,,,,,,,,,,,1,,,41,0
4560,note_on,240,0,1,,,,,,,,,,,,,,,0,,,75,0
4560,note_on,0,0,1,,,,,,,,,,,,,,,0,,,79,100
4800,note_on,0,0,1,,,,,,,,,,,,,,,0,,,83,100
4800,note_on,240,0,1,,,,,,,,,,,,,,,0,,,79,0
5040,note_on,240,0,1,,,,,,,,,,,,,,,0,,,83,0
5040,note_on,0,0,1,,,,,,,,,,,,,,,0,,,84,100
5280,note_on,960,0,2,,,,,,,,,,,,,,,1,,,39,100
5280,note_on,240,0,1,,,,,,,,,,,,,,,0,,,84,0
5520,note_on,240,0,1,,,,,,,,,,,,,,,0,,,84,100
5760,note_on,240,0,1,,,,,,,,,,,,,,,0,,,84,0
5760,note_on,0,0,2,,,,,,,,,,,,,,,1,,,41,100
5760,note_on,480,0,2,,,,,,,,,,,,,,,1,,,39,0
5880,note_on,120,0,1,,,,,,,,,,,,,,,0,,,82,100
6000,note_on,120,0,1,,,,,,,,,,,,,,,0,,,82,0
6000,note_on,0,0,1,,,,,,,,,,,,,,,0,,,80,100
6120,note_on,120,0,1,,,,,,,,,,,,,,,0,,,80,0
6120,note_on,0,0,1,,,,,,,,,,,,,,,0,,,79,100
6240,note_on,480,0,2,,,,,,,,,,,,,,,1,,,41,0
6240,note_on,0,0,1,,,,,,,,,,,,,,,0,,,77,100
6240,note_on,120,0,1,,,,,,,,,,,,,,,0,,,79,0
6360,note_on,0,0,1,,,,,,,,,,,,,,,0,,,75,100
6360,note_on,120,0,1,,,,,,,,,,,,,,,0,,,77,0
6480,note_on,0,0,1,,,,,,,,,,,,,,,0,,,74,100
6480,note_on,120,0,1,,,,,,,,,,,,,,,0,,,75,0
6600,note_on,0,0,1,,,,,,,,,,,,,,,0,,,72,100
6600,note_on,120,0,1,,,,,,,,,,,,,,,0,,,74,0
6720,note_on,480,0,2,,,,,,,,,,,,,,,1,,,43,100
6720,note_on,0,0,1,,,,,,,,,,,,,,,0,,,71,100
6720,note_on,120,0,1,,,,,,,,,,,,,,,0,,,72,0
6840,note_on,0,0,1,,,,,,,,,,,,,,,0,,,72,100
6840,note_on,120,0,1,,,,,,,,,,,,,,,0,,,71,0
6960,note_on,120,0,1,,,,,,,,,,,,,,,0,,,72,0
6960,note_on,0,0,1,,,,,,,,,,,,,,,0,,,74,100
7080,note_on,120,0,1,,,,,,,,,,,,,,,0,,,74,0
7080,note_on,0,0,1,,,,,,,,,,,,,,,0,,,68,100
7200,note_on,120,0,1,,,,,,,,,,,,,,,0,,,68,0
7200,note_on,0,0,1,,,,,,,,,,,,,,,0,,,67,100
7200,note_on,480,0,2,,,,,,,,,,,,,,,1,,,43,0
7440,note_on,0,0,1,,,,,,,,,,,,,,,0,,,77,100
7440,note_on,240,0,1,,,,,,,,,,,,,,,0,,,67,0
7680,note_on,0,0,1,,,,,,,,,,,,,,,0,,,75,100
7680,note_on,480,0,2,,,,,,,,,,,,,,,1,,,36,100
7680,note_on,240,0,1,,,,,,,,,,,,,,,0,,,77,0
7800,note_on,120,0,1,,,,,,,,,,,,,,,0,,,75,0
7800,note_on,0,0,1,,,,,,,,,,,,,,,0,,,74,100
7920,note_on,120,0,1,,,,,,,,,,,,,,,0,,,74,0
7920,note_on,0,0,1,,,,,,,,,,,,,,,0,,,72,100
8160,note_on,480,0,2,,,,,,,,,,,,,,,1,,,36,0
8160,note_on,0,0,2,,,,,,,,,,,,,,,1,,,51,100
8160,note_on,240,0,1,,,,,,,,,,,,,,,0,,,72,0
8280,note_on,120,0,1,,,,,,,,,,,,,,,0,,,71,100
8400,note_on,0,0,1,,,,,,,,,,,,,,,0,,,72,100
8400,note_on,120,0,1,,,,,,,,,,,,,,,0,,,71,0
8520,note_on,0,0,1,,,,,,,,,,,,,,,0,,,74,100
8520,note_on,120,0,1,,,,,,,,,,,,,,,0,,,72,0
8640,note_on,0,0,2,,,,,,,,,,,,,,,1,,,56,100
8640,note_on,120,0,1,,,,,,,,,,,,,,,0,,,74,0
8640,note_on,480,0,2,,,,,,,,,,,,,,,1,,,51,0
8640,note_on,0,0,1,,,,,,,,,,,,,,,0,,,75,100
8760,note_on,120,0,1,,,,,,,,,,,,,,,0,,,75,0
8760,note_on,0,0,1,,,,,,,,,,,,,,,0,,,79,100
8880,note_on,120,0,1,,,,,,,,,,,,,,,0,,,79,0
8880,note_on,0,0,1,,,,,,,,,,,,,,,0,,,77,100
9000,note_on,120,0,1,,,,,,,,,,,,,,,0,,,77,0
9000,note_on,0,0,1,,,,,,,,,,,,,,,0,,,75,100
9120,note_on,480,0,2,,,,,,,,,,,,,,,1,,,56,0
9120,note_on,120,0,1,,,,,,,,,,,,,,,0,,,75,0
9120,note_on,0,0,1,,,,,,,,,,,,,,,0,,,80,100
9120,note_on,0,0,2,,,,,,,,,,,,,,,1,,,36,100
9240,note_on,120,0,1,,,,,,,,,,,,,,,0,,,80,0
9240,note_on,0,0,1,,,,,,,,,,,,,,,0,,,79,100
9360,note_on,120,0,1,,,,,,,,,,,,,,,0,,,79,0
9360,note_on,0,0,1,,,,,,,,,,,,,,,0,,,77,100
9480,note_on,120,0,1,,,,,,,,,,,,,,,0,,,77,0
9480,note_on,0,0,1,,,,,,,,,,,,,,,0,,,75,100
9600,note_on,120,0,1,,,,,,,,,,,,,,,0,,,75,0
9600,note_on,0,0,1,,,,,,,,,,,,,,,0,,,77,100
9600,note_on,0,0,2,,,,,,,,,,,,,,,1,,,38,100
9600,note_on,480,0,2,,,,,,,,,,,,,,,1,,,36,0
9720,note_on,120,0,1,,,,,,,,,,,,,,,0,,,77,0
9720,note_on,0,0,1,,,,,,,,,,,,,,,0,,,80,100
9840,note_on,0,0,1,,,,,,,,,,,,,,,0,,,70,100
9840,note_on,120,0,1,,,,,,,,,,,,,,,0,,,80,0
10080,note_on,240,0,1,,,,,,,,,,,,,,,0,,,70,0
10080,note_on,480,0,2,,,,,,,,,,,,,,,1,,,38,0
10080,note_on,0,0,2,,,,,,,,,,,,,,,1,,,53,100
10200,note_on,120,0,1,,,,,,,,,,,,,,,0,,,72,100
10320,note_on,0,0,1,,,,,,,,,,,,,,,0,,,74,100
10320,note_on,120,0,1,,,,,,,,,,,,,,,0,,,72,0
10440,note_on,120,0,1,,,,,,,,,,,,,,,0,,,74,0
10440,note_on,0,0,1,,,,,,,,,,,,,,,0,,,75,100
10560,note_on,480,0,2,,,,,,,,,,,,,,,1,,,53,0
10560,note_on,0,0,2,,,,,,,,,,,,,,,1,,,58,100
10560,note_on,120,0,1,,,,,,,,,,,,,,,0,,,75,0
10560,note_on,0,0,1,,,,,,,,,,,,,,,0,,,77,100
10680,note_on,0,0,1,,,,,,,,,,,,,,,0,,,80,100
10680,note_on,120,0,1,,,,,,,,,,,,,,,0,,,77,0
10800,note_on,0,0,1,,,,,,,,,,,,,,,0,,,79,100
10800,note_on,120,0,1,,,,,,,,,,,,,,,0,,,80,0
10920,note_on,0,0,1,,,,,,,,,,,,,,,0,,,77,100
10920,note_on,120,0,1,,,,,,,,,,,,,,,0,,,79,0
11040,note_on,120,0,1,,,,,,,,,,,,,,,0,,,77,0
11040,note_on,0,0,1,,,,,,,,,,,,,,,0,,,82,100
11040,note_on,0,0,2,,,,,,,,,,,,,,,1,,,38,100
11040,note_on,480,0,2,,,,,,,,,,,,,,,1,,,58,0
11160,note_on,120,0,1,,,,,,,,,,,,,,,0,,,82,0
11160,note_on,0,0,1,,,,,,,,,,,,,,,0,,,80,100
11280,note_on,0,0,1,,,,,,,,,,,,,,,0,,,79,100
11280,note_on,120,0,1,,,,,,,,,,,,,,,0,,,80,0
11400,note_on,120,0,1,,,,,,,,,,,,,,,0,,,79,0
11400,note_on,0,0,1,,,,,,,,,,,,,,,0,,,77,100
11520,note_on,0,0,2,,,,,,,,,,,,,,,1,,,39,100
11520,note_on,480,0,2,,,,,,,,,,,,,,,1,,,38,0
11520,note_on,120,0,1,,,,,,,,,,,,,,,0,,,77,0
11520,note_on,0,0,1,,,,,,,,,,,,,,,0,,,79,100
11640,note_on,120,0,1,,,,,,,,,,,,,,,0,,,79,0
11640,note_on,0,0,1,,,,,,,,,,,,,,,0,,,77,100
11760,note_on,120,0,1,,,,,,,,,,,,,,,0,,,77,0
11760,note_on,0,0,1,,,,,,,,,,,,,,,0,,,79,100
11880,note_on,0,0,1,,,,,,,,,,,,,,,0,,,82,100
11880,note_on,120,0,1,,,,,,,,,,,,,,,0,,,79,0
12000,note_on,120,0,1,,,,,,,,,,,,,,,0,,,82,0
12000,note_on,0,0,2,,,,,,,,,,,,,,,1,,,56,100
12000,note_on,0,0,1,,,,,,,,,,,,,,,0,,,74,100
12000,note_on,480,0,2,,,,,,,,,,,,,,,1,,,39,0
12120,note_on,120,0,1,,,,,,,,,,,,,,,0,,,74,0
12120,note_on,0,0,1,,,,,,,,,,,,,,,0,,,72,100
12240,note_on,120,0,1,,,,,,,,,,,,,,,0,,,72,0
12240,note_on,0,0,1,,,,,,,,,,,,,,,0,,,74,100
12360,note_on,120,0,1,,,,,,,,,,,,,,,0,,,74,0
12360,note_on,0,0,1,,,,,,,,,,,,,,,0,,,82,100
12480,note_on,120,0,1,,,,,,,,,,,,,,,0,,,82,0
12480,note_on,0,0,1,,,,,,,,,,,,,,,0,,,75,100
12480,note_on,0,0,2,,,,,,,,,,,,,,,1,,,55,100
12480,note_on,480,0,2,,,,,,,,,,,,,,,1,,,56,0
12600,note_on,120,0,1,,,,,,,,,,,,,,,0,,,75,0
12600,note_on,0,0,1,,,,,,,,,,,,,,,0,,,74,100
12720,note_on,120,0,1,,,,,,,,,,,,,,,0,,,74,0
12720,note_on,0,0,1,,,,,,,,,,,,,,,0,,,75,100
12840,note_on,120,0,1,,,,,,,,,,,,,,,0,,,75,0
12840,note_on,0,0,1,,,,,,,,,,,,,,,0,,,82,100
12960,note_on,120,0,1,,,,,,,,,,,,,,,0,,,82,0
12960,note_on,0,0,1,,,,,,,,,,,,,,,0,,,77,100
12960,note_on,0,0,2,,,,,,,,,,,,,,,1,,,58,100
12960,note_on,480,0,2,,,,,,,,,,,,,,,1,,,55,0
13080,note_on,120,0,1,,,,,,,,,,,,,,,0,,,77,0
13080,note_on,0,0,1,,,,,,,,,,,,,,,0,,,75,100
13200,note_on,120,0,1,,,,,,,,,,,,,,,0,,,75,0
13200,note_on,0,0,1,,,,,,,,,,,,,,,0,,,77,100
13320,note_on,120,0,1,,,,,,,,,,,,,,,0,,,77,0
13320,note_on,0,0,1,,,,,,,,,,,,,,,0,,,80,100
13440,note_on,0,0,1,,,,,,,,,,,,,,,0,,,79,100
13440,note_on,120,0,1,,,,,,,,,,,,,,,0,,,80,0
13440,note_on,480,0,2,,,,,,,,,,,,,,,1,,,58,0
13440,note_on,0,0,2,,,,,,,,,,,,,,,1,,,39,100
13560,note_on,120,0,1,,,,,,,,,,,,,,,0,,,79,0
13560,note_on,0,0,1,,,,,,,,,,,,,,,0,,,77,100
13680,note_on,120,0,1,,,,,,,,,,,,,,,0,,,77,0
13680,note_on,0,0,1,,,,,,,,,,,,,,,0,,,79,100
13800,note_on,120,0,1,,,,,,,,,,,,,,,0,,,79,0
13800,note_on,0,0,1,,,,,,,,,,,,,,,0,,,75,100
13920,note_on,0,0,2,,,,,,,,,,,,,,,1,,,51,100
13920,note_on,480,0,2,,,,,,,,,,,,,,,1,,,39,0
13920,note_on,120,0,1,,,,,,,,,,,,,,,0,,,75,0
13920,note_on,0,0,1,,,,,,,,,,,,,,,0,,,79,100
14040,note_on,120,0,1,,,,,,,,,,,,,,,0,,,79,0
14040,note_on,0,0,1,,,,,,,,,,,,,,,0,,,74,100
14160,note_on,120,0,1,,,,,,,,,,,,,,,0,,,74,0
14160,note_on,0,0,1,,,,,,,,,,,,,,,0,,,79,100
14280,note_on,120,0,1,,,,,,,,,,,,,,,0,,,79,0
14280,note_on,0,0,1,,,,,,,,,,,,,,,0,,,72,100
14400,note_on,120,0,1,,,,,,,,,,,,,,,0,,,72,0
14400,note_on,0,0,1,,,,,,,,,,,,,,,0,,,71,100
14400,note_on,480,0,2,,,,,,,,,,,,,,,1,,,51,0
14400,note_on,0,0,2,,,,,,,,,,,,,,,1,,,50,100
14520,note_on,120,0,1,,,,,,,,,,,,,,,0,,,71,0
14520,note_on,0,0,1,,,,,,,,,,,,,,,0,,,69,100
14640,note_on,120,0,1,,,,,,,,,,,,,,,0,,,69,0
14640,note_on,0,0,1,,,,,,,,,,,,,,,0,,,71,100
14760,note_on,120,0,1,,,,,,,,,,,,,,,0,,,71,0
14760,note_on,0,0,1,,,,,,,,,,,,,,,0,,,80,100
14880,note_on,0,0,1,,,,,,,,,,,,,,,0,,,71,100
14880,note_on,480,0,2,,,,,,,,,,,,,,,1,,,50,0
14880,note_on,0,0,2,,,,,,,,,,,,,,,1,,,43,100
14880,note_on,120,0,1,,,,,,,,,,,,,,,0,,,80,0
15000,note_on,120,0,1,,,,,,,,,,,,,,,0,,,71,0
15000,note_on,0,0,1,,,,,,,,,,,,,,,0,,,79,100
15120,note_on,0,0,1,,,,,,,,,,,,,,,0,,,71,100
15120,note_on,120,0,1,,,,,,,,,,,,,,,0,,,79,0
15240,note_on,120,0,1,,,,,,,,,,,,,,,0,,,71,0
15240,note_on,0,0,1,,,,,,,,,,,,,,,0,,,77,100
15360,note_on,0,0,2,,,,,,,,,,,,,,,1,,,48,100
15360,note_on,0,0,1,,,,,,,,,,,,,,,0,,,75,100
15360,note_on,120,0,1,,,,,,,,,,,,,,,0,,,77,0
15360,note_on,480,0,2,,,,,,,,,,,,,,,1,,,43,0
15480,note_on,120,0,1,,,,,,,,,,,,,,,0,,,75,0
15480,note_on,0,0,1,,,,,,,,,,,,,,,0,,,74,100
15600,note_on,0,0,1,,,,,,,,,,,,,,,0,,,75,100
15600,note_on,120,0,1,,,,,,,,,,,,,,,0,,,74,0
15720,note_on,120,0,1,,,,,,,,,,,,,,,0,,,75,0
15720,note_on,0,0,1,,,,,,,,,,,,,,,0,,,79,100
15840,note_on,0,0,2,,,,,,,,,,,,,,,1,,,58,100
15840,note_on,120,0,1,,,,,,,,,,,,,,,0,,,79,0
15840,note_on,0,0,1,,,,,,,,,,,,,,,0,,,84,100
15840,note_on,480,0,2,,,,,,,,,,,,,,,1,,,48,0
16080,note_on,240,0,1,,,,,,,,,,,,,,,0,,,84,0
16080,note_on,0,0,1,,,,,,,,,,,,,,,0,,,87,100
16320,note_on,0,0,2,,,,,,,,,,,,,,,1,,,57,100
16320,note_on,480,0,2,,,,,,,,,,,,,,,1,,,58,0
16440,note_on,360,0,1,,,,,,,,,,,,,,,0,,,87,0
16440,note_on,0,0,1,,,,,,,,,,,,,,,0,,,79,100
16560,note_on,0,0,1,,,,,,,,,,,,,,,0,,,78,100
16560,note_on,120,0,1,,,,,,,,,,,,,,,0,,,79,0
16800,note_on,480,0,2,,,,,,,,,,,,,,,1,,,57,0
16800,note_on,0,0,2,,,,,,,,,,,,,,,1,,,55,100
16920,note_on,0,0,1,,,,,,,,,,,,,,,0,,,79,100
16920,note_on,360,0,1,,,,,,,,,,,,,,,0,,,78,0
17040,note_on,120,0,1,,,,,,,,,,,,,,,0,,,79,0
17040,note_on,0,0,1,,,,,,,,,,,,,,,0,,,81,100
17160,note_on,120,0,1,,,,,,,,,,,,,,,0,,,81,0
17160,note_on,0,0,1,,,,,,,,,,,,,,,0,,,82,100
17280,note_on,120,0,1,,,,,,,,,,,,,,,0,,,82,0
17280,note_on,0,0,2,,,,,,,,,,,,,,,1,,,54,100
17280,note_on,480,0,2,,,,,,,,,,,,,,,1,,,55,0
17280,note_on,0,0,1,,,,,,,,,,,,,,,0,,,84,100
17400,note_on,120,0,1,,,,,,,,,,,,,,,0,,,84,0
17400,note_on,0,0,1,,,,,,,,,,,,,,,0,,,75,100
17520,note_on,120,0,1,,,,,,,,,,,,,,,0,,,75,0
17520,note_on,0,0,1,,,,,,,,,,,,,,,0,,,74,100
17760,note_on,0,0,2,,,,,,,,,,,,,,,1,,,57,100
17760,note_on,480,0,2,,,,,,,,,,,,,,,1,,,54,0
17880,note_on,0,0,1,,,,,,,,,,,,,,,0,,,76,100
17880,note_on,360,0,1,,,,,,,,,,,,,,,0,,,74,0
18000,note_on,120,0,1,,,,,,,,,,,,,,,0,,,76,0
18000,note_on,0,0,1,,,,,,,,,,,,,,,0,,,78,100
18120,note_on,0,0,1,,,,,,,,,,,,,,,0,,,79,100
18120,note_on,120,0,1,,,,,,,,,,,,,,,0,,,78,0
18240,note_on,480,0,2,,,,,,,,,,,,,,,1,,,57,0
18240,note_on,0,0,2,,,,,,,,,,,,,,,1,,,54,100
18240,note_on,120,0,1,,,,,,,,,,,,,,,0,,,79,0
18240,note_on,0,0,1,,,,,,,,,,,,,,,0,,,81,100
18360,note_on,120,0,1,,,,,,,,,,,,,,,0,,,81,0
18360,note_on,0,0,1,,,,,,,,,,,,,,,0,,,71,100
18480,note_on,120,0,1,,,,,,,,,,,,,,,0,,,71,0
18480,note_on,0,0,1,,,,,,,,,,,,,,,0,,,72,100
18720,note_on,480,0,2,,,,,,,,,,,,,,,1,,,54,0
18720,note_on,0,0,2,,,,,,,,,,,,,,,1,,,50,100
18840,note_on,0,0,1,,,,,,,,,,,,,,,0,,,75,100
18840,note_on,360,0,1,,,,,,,,,,,,,,,0,,,72,0
18960,note_on,120,0,1,,,,,,,,,,,,,,,0,,,75,0
18960,note_on,0,0,1,,,,,,,,,,,,,,,0,,,74,100
19080,note_on,120,0,1,,,,,,,,,,,,,,,0,,,74,0
19080,note_on,0,0,1,,,,,,,,,,,,,,,0,,,72,100
19200,note_on,120,0,1,,,,,,,,,,,,,,,0,,,72,0
19200,note_on,0,0,1,,,,,,,,,,,,,,,0,,,70,100
19200,note_on,0,0,2,,,,,,,,,,,,,,,1,,,55,100
19200,note_on,480,0,2,,,,,,,,,,,,,,,1,,,50,0
19320,note_on,120,0,1,,,,,,,,,,,,,,,0,,,70,0
19320,note_on,0,0,1,,,,,,,,,,,,,,,0,,,74,100
19440,note_on,120,0,1,,,,,,,,,,,,,,,0,,,74,0
19440,note_on,0,0,1,,,,,,,,,,,,,,,0,,,79,100
19560,note_on,120,0,1,,,,,,,,,,,,,,,0,,,79,0
19560,note_on,0,0,1,,,,,,,,,,,,,,,0,,,78,100
19680,note_on,120,0,1,,,,,,,,,,,,,,,0,,,78,0
19680,note_on,0,0,1,,,,,,,,,,,,,,,0,,,79,100
19680,note_on,480,0,2,,,,,,,,,,,,,,,1,,,55,0
19680,note_on,0,0,2,,,,,,,,,,,,,,,1,,,38,100
19800,note_on,120,0,1,,,,,,,,,,,,,,,0,,,79,0
19800,note_on,0,0,1,,,,,,,,,,,,,,,0,,,74,100
19920,note_on,120,0,1,,,,,,,,,,,,,,,0,,,74,0
19920,note_on,0,0,1,,,,,,,,,,,,,,,0,,,75,100
20040,note_on,0,0,1,,,,,,,,,,,,,,,0,,,73,100
20040,note_on,120,0,1,,,,,,,,,,,,,,,0,,,75,0
20160,note_on,120,0,1,,,,,,,,,,,,,,,0,,,73,0
20160,note_on,0,0,1,,,,,,,,,,,,,,,0,,,74,100
20160,note_on,480,0,2,,,,,,,,,,,,,,,1,,,38,0
20160,note_on,0,0,2,,,,,,,,,,,,,,,1,,,54,100
20280,note_on,120,0,1,,,,,,,,,,,,,,,0,,,74,0
20280,note_on,0,0,1,,,,,,,,,,,,,,,0,,,78,100
20400,note_on,120,0,1,,,,,,,,,,,,,,,0,,,78,0
20400,note_on,0,0,1,,,,,,,,,,,,,,,0,,,81,100
20520,note_on,120,0,1,,,,,,,,,,,,,,,0,,,81,0
20520,note_on,0,0,1,,,,,,,,,,,,,,,0,,,79,100
20640,note_on,120,0,1,,,,,,,,,,,,,,,0,,,79,0
20640,note_on,0,0,1,,,,,,,,,,,,,,,0,,,81,100
20640,note_on,0,0,2,,,,,,,,,,,,,,,1,,,38,100
20640,note_on,480,0,2,,,,,,,,,,,,,,,1,,,54,0
20760,note_on,0,0,1,,,,,,,,,,,,,,,0,,,74,100
20760,note_on,120,0,1,,,,,,,,,,,,,,,0,,,81,0
20880,note_on,0,0,1,,,,,,,,,,,,,,,0,,,75,100
20880,note_on,120,0,1,,,,,,,,,,,,,,,0,,,74,0
21000,note_on,0,0,1,,,,,,,,,,,,,,,0,,,73,100
21000,note_on,120,0,1,,,,,,,,,,,,,,,0,,,75,0
21120,note_on,0,0,1,,,,,,,,,,,,,,,0,,,74,100
21120,note_on,120,0,1,,,,,,,,,,,,,,,0,,,73,0
21120,note_on,480,0,2,,,,,,,,,,,,,,,1,,,38,0
21120,note_on,0,0,2,,,,,,,,,,,,,,,1,,,55,100
21240,note_on,120,0,1,,,,,,,,,,,,,,,0,,,74,0
21240,note_on,0,0,1,,,,,,,,,,,,,,,0,,,79,100
21360,note_on,0,0,1,,,,,,,,,,,,,,,0,,,82,100
21360,note_on,120,0,1,,,,,,,,,,,,,,,0,,,79,0
21480,note_on,0,0,1,,,,,,,,,,,,,,,0,,,81,100
21480,note_on,120,0,1,,,,,,,,,,,,,,,0,,,82,0
21600,note_on,0,0,2,,,,,,,,,,,,,,,1,,,38,100
21600,note_on,0,0,1,,,,,,,,,,,,,,,0,,,82,100
21600,note_on,120,0,1,,,,,,,,,,,,,,,0,,,81,0
21600,note_on,480,0,2,,,,,,,,,,,,,,,1,,,55,0
21720,note_on,0,0,1,,,,,,,,,,,,,,,0,,,74,100
21720,note_on,120,0,1,,,,,,,,,,,,,,,0,,,82,0
21840,note_on,0,0,1,,,,,,,,,,,,,,,0,,,75,100
21840,note_on,120,0,1,,,,,,,,,,,,,,,0,,,74,0
21960,note_on,0,0,1,,,,,,,,,,,,,,,0,,,73,100
21960,note_on,120,0,1,,,,,,,,,,,,,,,0,,,75,0
22080,note_on,480,0,2,,,,,,,,,,,,,,,1,,,38,0
22080,note_on,0,0,1,,,,,,,,,,,,,,,0,,,74,100
22080,note_on,120,0,1,,,,,,,,,,,,,,,0,,,73,0
22080,note_on,0,0,2,,,,,,,,,,,,,,,1,,,54,100
22200,note_on,0,0,1,,,,,,,,,,,,,,,0,,,81,100
22200,note_on,120,0,1,,,,,,,,,,,,,,,0,,,74,0
22320,note_on,0,0,1,,,,,,,,,,,,,,,0,,,84,100
22320,note_on,120,0,1,,,,,,,,,,,,,,,0,,,81,0
22560,note_on,480,0,2,,,,,,,,,,,,,,,1,,,54,0
22560,note_on,0,0,2,,,,,,,,,,,,,,,1,,,38,100
22680,note_on,0,0,1,,,,,,,,,,,,,,,0,,,75,100
22680,note_on,360,0,1,,,,,,,,,,,,,,,0,,,84,0
22800,note_on,0,0,1,,,,,,,,,,,,,,,0,,,74,100
22800,note_on,120,0,1,,,,,,,,,,,,,,,0,,,75,0
22920,note_on,0,0,1,,,,,,,,,,,,,,,0,,,72,100
22920,note_on,120,0,1,,,,,,,,,,,,,,,0,,,74,0
23040,note_on,0,0,2,,,,,,,,,,,,,,,1,,,55,100
23040,note_on,480,0,2,,,,,,,,,,,,,,,1,,,38,0
23040,note_on,120,0,1,,,,,,,,,,,,,,,0,,,72,0
23040,note_on,0,0,1,,,,,,,,,,,,,,,0,,,70,100
23160,note_on,120,0,1,,,,,,,,,,,,,,,0,,,70,0
23160,note_on,0,0,1,,,,,,,,,,,,,,,0,,,74,100
23280,note_on,120,0,1,,,,,,,,,,,,,,,0,,,74,0
23280,note_on,0,0,1,,,,,,,,,,,,,,,0,,,79,100
23280,note_on,0,0,2,,,,,,,,,,,,,,,1,,,51,100
23280,note_on,240,0,2,,,,,,,,,,,,,,,1,,,55,0
23400,note_on,0,0,1,,,,,,,,,,,,,,,0,,,81,100
23400,note_on,120,0,1,,,,,,,,,,,,,,,0,,,79,0
23520,note_on,0,0,1,,,,,,,,,,,,,,,0,,,82,100
23520,note_on,0,0,2,,,,,,,,,,,,,,,1,,,48,100
23520,note_on,240,0,2,,,,,,,,,,,,,,,1,,,51,0
23520,note_on,120,0,1,,,,,,,,,,,,,,,0,,,81,0
23760,note_on,0,0,2,,,,,,,,,,,,,,,1,,,50,100
23760,note_on,240,0,2,,,,,,,,,,,,,,,1,,,48,0
23760,marker,23760,1,0,,,,,,,,,,,,,,,,,,,
23760,note_on,240,0,1,,,,,,,,,,,,,,,0,,,82,0
23760,note_on,0,0,1,,,,,,,,,,,,,,,0,,,82,100
23800,note_on,40,0,1,,,,,,,,,,,,,,,0,,,82,0
23800,note_on,0,0,1,,,,,,,,,,,,,,,0,,,81,100
23840,note_on,40,0,1,,,,,,,,,,,,,,,0,,,81,0
23840,note_on,0,0,1,,,,,,,,,,,,,,,0,,,82,100
23880,note_on,40,0,1,,,,,,,,,,,,,,,0,,,82,0
23880,note_on,0,0,1,,,,,,,,,,,,,,,0,,,81,100
24000,note_on,120,0,1,,,,,,,,,,,,,,,0,,,81,0
24000,note_on,240,0,2,,,,,,,,,,,,,,,1,,,50,0
24000,note_on,0,0,2,,,,,,,,,,,,,,,1,,,51,100
24000,note_on,0,0,1,,,,,,,,,,,,,,,0,,,79,100
24120,note_on,0,0,1,,,,,,,,,,,,,,,0,,,72,100
24120,note_on,120,0,1,,,,,,,,,,,,,,,0,,,79,0
24240,note_on,0,0,1,,,,,,,,,,,,,,,0,,,71,100
24240,note_on,120,0,1,,,,,,,,,,,,,,,0,,,72,0
24480,note_on,480,0,2,,,,,,,,,,,,,,,1,,,51,0
24480,note_on,0,0,2,,,,,,,,,,,,,,,1,,,50,100
24600,note_on,360,0,1,,,,,,,,,,,,,,,0,,,71,0
24600,note_on,0,0,1,,,,,,,,,,,,,,,0,,,74,100
24720,note_on,120,0,1,,,,,,,,,,,,,,,0,,,74,0
24720,note_on,0,0,1,,,,,,,,,,,,,,,0,,,75,100
24840,note_on,0,0,1,,,,,,,,,,,,,,,0,,,77,100
24840,note_on,120,0,1,,,,,,,,,,,,,,,0,,,75,0
24960,note_on,0,0,1,,,,,,,,,,,,,,,0,,,75,100
24960,note_on,120,0,1,,,,,,,,,,,,,,,0,,,77,0
24960,note_on,480,0,2,,,,,,,,,,,,,,,1,,,50,0
24960,note_on,0,0,2,,,,,,,,,,,,,,,1,,,48,100
25080,note_on,120,0,1,,,,,,,,,,,,,,,0,,,75,0
25080,note_on,0,0,1,,,,,,,,,,,,,,,0,,,68,100
25200,note_on,120,0,1,,,,,,,,,,,,,,,0,,,68,0
25200,note_on,0,0,1,,,,,,,,,,,,,,,0,,,67,100
25440,note_on,480,0,2,,,,,,,,,,,,,,,1,,,48,0
25440,note_on,0,0,2,,,,,,,,,,,,,,,1,,,46,100
25560,note_on,360,0,1,,,,,,,,,,,,,,,0,,,67,0
25560,note_on,0,0,1,,,,,,,,,,,,,,,0,,,70,100
25680,note_on,120,0,1,,,,,,,,,,,,,,,0,,,70,0
25680,note_on,0,0,1,,,,,,,,,,,,,,,0,,,72,100
25800,note_on,120,0,1,,,,,,,,,,,,,,,0,,,72,0
25800,note_on,0,0,1,,,,,,,,,,,,,,,0,,,74,100
25920,note_on,0,0,1,,,,,,,,,,,,,,,0,,,72,100
25920,note_on,120,0,1,,,,,,,,,,,,,,,0,,,74,0
25920,note_on,480,0,2,,,,,,,,,,,,,,,1,,,46,0
25920,note_on,0,0,2,,,,,,,,,,,,,,,1,,,45,100
26040,note_on,0,0,1,,,,,,,,,,,,,,,0,,,67,100
26040,note_on,120,0,1,,,,,,,,,,,,,,,0,,,72,0
26160,note_on,120,0,1,,,,,,,,,,,,,,,0,,,67,0
26160,note_on,0,0,1,,,,,,,,,,,,,,,0,,,66,100
26400,note_on,0,0,2,,,,,,,,,,,,,,,1,,,38,100
26400,note_on,480,0,2,,,,,,,,,,,,,,,1,,,45,0
26520,note_on,360,0,1,,,,,,,,,,,,,,,0,,,66,0
26520,note_on,0,0,1,,,,,,,,,,,,,,,0,,,87,100
26640,note_on,0,0,1,,,,,,,,,,,,,,,0,,,86,100
26640,note_on,120,0,1,,,,,,,,,,,,,,,0,,,87,0
26760,note_on,120,0,1,,,,,,,,,,,,,,,0,,,86,0
26760,note_on,0,0,1,,,,,,,,,,,,,,,0,,,84,100
26880,note_on,120,0,1,,,,,,,,,,,,,,,0,,,84,0
26880,note_on,0,0,2,,,,,,,,,,,,,,,1,,,43,100
26880,note_on,480,0,2,,,,,,,,,,,,,,,1,,,38,0
26880,note_on,0,0,1,,,,,,,,,,,,,,,0,,,82,100
27000,note_on,120,0,1,,,,,,,,,,,,,,,0,,,82,0
27000,note_on,0,0,1,,,,,,,,,,,,,,,0,,,84,100
27120,note_on,240,0,2,,,,,,,,,,,,,,,1,,,43,0
27120,note_on,0,0,2,,,,,,,,,,,,,,,1,,,46,100
27120,note_on,0,0,1,,,,,,,,,,,,,,,0,,,86,100
27120,note_on,120,0,1,,,,,,,,,,,,,,,0,,,84,0
27240,note_on,0,0,1,,,,,,,,,,,,,,,0,,,79,100
27240,note_on,120,0,1,,,,,,,,,,,,,,,0,,,86,0
27360,note_on,120,0,1,,,,,,,,,,,,,,,0,,,79,0
27360,note_on,0,0,1,,,,,,,,,,,,,,,0,,,82,100
27360,note_on,240,0,2,,,,,,,,,,,,,,,1,,,46,0
27360,note_on,0,0,2,,,,,,,,,,,,,,,1,,,48,100
27480,note_on,120,0,1,,,,,,,,,,,,,,,0,,,82,0
27480,note_on,0,0,1,,,,,,,,,,,,,,,0,,,81,100
27600,note_on,120,0,1,,,,,,,,,,,,,,,0,,,81,0
27600,note_on,0,0,1,,,,,,,,,,,,,,,0,,,79,100
27600,note_on,240,0,2,,,,,,,,,,,,,,,1,,,48,0
27600,note_on,0,0,2,,,,,,,,,,,,,,,1,,,50,100
27720,note_on,0,0,1,,,,,,,,,,,,,,,0,,,78,100
27720,note_on,120,0,1,,,,,,,,,,,,,,,0,,,79,0
27840,note_on,240,0,2,,,,,,,,,,,,,,,1,,,50,0
27840,note_on,120,0,1,,,,,,,,,,,,,,,0,,,78,0
27840,note_on,0,0,1,,,,,,,,,,,,,,,0,,,79,100
27840,note_on,0,0,2,,,,,,,,,,,,,,,1,,,51,100
27960,note_on,120,0,1,,,,,,,,,,,,,,,0,,,79,0
27960,note_on,0,0,1,,,,,,,,,,,,,,,0,,,82,100
28080,note_on,120,0,1,,,,,,,,,,,,,,,0,,,82,0
28080,note_on,0,0,1,,,,,,,,,,,,,,,0,,,73,100
28080,note_on,0,0,2,,,,,,,,,,,,,,,1,,,55,100
28080,note_on,240,0,2,,,,,,,,,,,,,,,1,,,51,0
28320,note_on,0,0,2,,,,,,,,,,,,,,,1,,,58,100
28320,note_on,240,0,2,,,,,,,,,,,,,,,1,,,55,0
28440,note_on,360,0,1,,,,,,,,,,,,,,,0,,,73,0
28440,note_on,0,0,1,,,,,,,,,,,,,,,0,,,76,100
28560,note_on,240,0,2,,,,,,,,,,,,,,,1,,,58,0
28560,note_on,0,0,2,,,,,,,,,,,,,,,1,,,52,100
28560,note_on,120,0,1,,,,,,,,,,,,,,,0,,,76,0
28560,note_on,0,0,1,,,,,,,,,,,,,,,0,,,74,100
28680,note_on,0,0,1,,,,,,,,,,,,,,,0,,,73,100
28680,note_on,120,0,1,,,,,,,,,,,,,,,0,,,74,0
28800,note_on,120,0,1,,,,,,,,,,,,,,,0,,,73,0
28800,note_on,240,0,2,,,,,,,,,,,,,,,1,,,52,0
28800,note_on,0,0,2,,,,,,,,,,,,,,,1,,,54,100
28800,note_on,0,0,1,,,,,,,,,,,,,,,0,,,74,100
28920,note_on,0,0,1,,,,,,,,,,,,,,,0,,,76,100
28920,note_on,120,0,1,,,,,,,,,,,,,,,0,,,74,0
29040,note_on,0,0,1,,,,,,,,,,,,,,,0,,,78,100
29040,note_on,120,0,1,,,,,,,,,,,,,,,0,,,76,0
29040,note_on,0,0,2,,,,,,,,,,,,,,,1,,,57,100
29040,note_on,240,0,2,,,,,,,,,,,,,,,1,,,54,0
29160,note_on,0,0,1,,,,,,,,,,,,,,,0,,,79,100
29160,note_on,120,0,1,,,,,,,,,,,,,,,0,,,78,0
29280,note_on,120,0,1,,,,,,,,,,,,,,,0,,,79,0
29280,note_on,240,0,2,,,,,,,,,,,,,,,1,,,57,0
29280,note_on,0,0,1,,,,,,,,,,,,,,,0,,,81,100
29280,note_on,0,0,2,,,,,,,,,,,,,,,1,,,54,100
29520,note_on,0,0,2,,,,,,,,,,,,,,,1,,,50,100
29520,note_on,0,0,1,,,,,,,,,,,,,,,0,,,72,100
29520,note_on,240,0,2,,,,,,,,,,,,,,,1,,,54,0
29520,note_on,240,0,1,,,,,,,,,,,,,,,0,,,81,0
29760,note_on,0,0,2,,,,,,,,,,,,,,,1,,,55,100
29760,note_on,240,0,2,,,,,,,,,,,,,,,1,,,50,0
29760,note_on,0,0,1,,,,,,,,,,,,,,,0,,,70,100
29760,note_on,240,0,1,,,,,,,,,,,,,,,0,,,72,0
30000,note_on,0,0,1,,,,,,,,,,,,,,,0,,,79,100
30000,note_on,0,0,2,,,,,,,,,,,,,,,1,,,51,100
30000,note_on,240,0,2,,,,,,,,,,,,,,,1,,,55,0
30000,note_on,240,0,1,,,,,,,,,,,,,,,0,,,70,0
30240,note_on,0,0,2,,,,,,,,,,,,,,,1,,,48,100
30240,note_on,240,0,2,,,,,,,,,,,,,,,1,,,51,0
30240,note_on,240,0,1,,,,,,,,,,,,,,,0,,,79,0
30240,note_on,0,0,1,,,,,,,,,,,,,,,0,,,69,100
30480,note_on,240,0,2,,,,,,,,,,,,,,,1,,,48,0
30480,note_on,0,0,2,,,,,,,,,,,,,,,1,,,50,100
30480,note_on,0,0,1,,,,,,,,,,,,,,,0,,,78,100
30480,note_on,240,0,1,,,,,,,,,,,,,,,0,,,69,0
30720,note_on,240,0,1,,,,,,,,,,,,,,,0,,,78,0
30720,note_on,0,0,2,,,,,,,,,,,,,,,1,,,43,100
30720,note_on,240,0,2,,,,,,,,,,,,,,,1,,,50,0
30960,note_on,240,0,1,,,,,,,,,,,,,,,0,,,67,100
31080,note_on,0,0,1,,,,,,,,,,,,,,,0,,,69,100
31080,note_on,120,0,1,,,,,,,,,,,,,,,0,,,67,0
31200,note_on,0,0,1,,,,,,,,,,,,,,,0,,,70,100
31200,note_on,120,0,1,,,,,,,,,,,,,,,0,,,69,0
31200,note_on,480,0,2,,,,,,,,,,,,,,,1,,,43,0
31440,note_on,0,0,1,,,,,,,,,,,,,,,0,,,74,100
31440,note_on,240,0,1,,,,,,,,,,,,,,,0,,,70,0
31680,note_on,240,0,1,,,,,,,,,,,,,,,0,,,74,0
31680,note_on,0,0,1,,,,,,,,,,,,,,,0,,,78,100
31920,note_on,240,0,1,,,,,,,,,,,,,,,0,,,78,0
31920,note_on,0,0,1,,,,,,,,,,,,,,,0,,,79,100
32160,note_on,240,0,1,,,,,,,,,,,,,,,0,,,79,0
32160,note_on,960,0,2,,,,,,,,,,,,,,,1,,,41,100
32400,note_on,240,0,1,,,,,,,,,,,,,,,0,,,79,100
32640,note_on,480,0,2,,,,,,,,,,,,,,,1,,,41,0
32640,note_on,0,0,2,,,,,,,,,,,,,,,1,,,39,100
32640,note_on,240,0,1,,,,,,,,,,,,,,,0,,,79,0
32880,note_on,240,0,1,,,,,,,,,,,,,,,0,,,67,100
33000,note_on,0,0,1,,,,,,,,,,,,,,,0,,,69,100
33000,note_on,120,0,1,,,,,,,,,,,,,,,0,,,67,0
33120,note_on,0,0,1,,,,,,,,,,,,,,,0,,,70,100
33120,note_on,120,0,1,,,,,,,,,,,,,,,0,,,69,0
33120,note_on,480,0,2,,,,,,,,,,,,,,,1,,,39,0
33360,note_on,240,0,1,,,,,,,,,,,,,,,0,,,70,0
33360,note_on,0,0,1,,,,,,,,,,,,,,,0,,,74,100
33600,note_on,0,0,1,,,,,,,,,,,,,,,0,,,78,100
33600,note_on,240,0,1,,,,,,,,,,,,,,,0,,,74,0
33840,note_on,0,0,1,,,,,,,,,,,,,,,0,,,79,100
33840,note_on,240,0,1,,,,,,,,,,,,,,,0,,,78,0
34080,note_on,240,0,1,,,,,,,,,,,,,,,0,,,79,0
34080,note_on,960,0,2,,,,,,,,,,,,,,,1,,,38,100
34320,note_on,240,0,1,,,,,,,,,,,,,,,0,,,79,100
34560,note_on,0,0,2,,,,,,,,,,,,,,,1,,,36,100
34560,note_on,480,0,2,,,,,,,,,,,,,,,1,,,38,0
34560,note_on,240,0,1,,,,,,,,,,,,,,,0,,,79,0
34800,note_on,240,0,1,,,,,,,,,,,,,,,0,,,67,100
34920,note_on,0,0,1,,,,,,,,,,,,,,,0,,,69,100
34920,note_on,120,0,1,,,,,,,,,,,,,,,0,,,67,0
35040,note_on,0,0,1,,,,,,,,,,,,,,,0,,,70,100
35040,note_on,480,0,2,,,,,,,,,,,,,,,1,,,36,0
35040,note_on,120,0,1,,,,,,,,,,,,,,,0,,,69,0
35280,note_on,0,0,1,,,,,,,,,,,,,,,0,,,74,100
35280,note_on,240,0,1,,,,,,,,,,,,,,,0,,,70,0
35520,note_on,0,0,1,,,,,,,,,,,,,,,0,,,78,100
35520,note_on,240,0,1,,,,,,,,,,,,,,,0,,,74,0
35760,note_on,0,0,1,,,,,,,,,,,,,,,0,,,79,100
35760,note_on,240,0,1,,,,,,,,,,,,,,,0,,,78,0
36000,note_on,240,0,1,,,,,,,,,,,,,,,0,,,79,0
36000,note_on,960,0,2,,,,,,,,,,,,,,,1,,,34,100
36240,note_on,240,0,1,,,,,,,,,,,,,,,0,,,79,100
36480,note_on,0,0,2,,,,,,,,,,,,,,,1,,,36,100
36480,note_on,480,0,2,,,,,,,,,,,,,,,1,,,34,0
36480,note_on,240,0,1,,,,,,,,,,,,,,,0,,,79,0
36600,note_on,120,0,1,,,,,,,,,,,,,,,0,,,77,100
36720,note_on,120,0,1,,,,,,,,,,,,,,,0,,,77,0
36720,note_on,0,0,1,,,,,,,,,,,,,,,0,,,75,100
36840,note_on,0,0,1,,,,,,,,,,,,,,,0,,,74,100
36840,note_on,120,0,1,,,,,,,,,,,,,,,0,,,75,0
36960,note_on,120,0,1,,,,,,,,,,,,,,,0,,,74,0
36960,note_on,0,0,1,,,,,,,,,,,,,,,0,,,72,100
36960,note_on,480,0,2,,,,,,,,,,,,,,,1,,,36,0
37080,note_on,120,0,1,,,,,,,,,,,,,,,0,,,72,0
37080,note_on,0,0,1,,,,,,,,,,,,,,,0,,,70,100
37200,note_on,0,0,1,,,,,,,,,,,,,,,0,,,69,100
37200,note_on,120,0,1,,,,,,,,,,,,,,,0,,,70,0
37320,note_on,0,0,1,,,,,,,,,,,,,,,0,,,67,100
37320,note_on,120,0,1,,,,,,,,,,,,,,,0,,,69,0
37440,note_on,480,0,2,,,,,,,,,,,,,,,1,,,38,100
37440,note_on,120,0,1,,,,,,,,,,,,,,,0,,,67,0
37440,note_on,0,0,1,,,,,,,,,,,,,,,0,,,66,100
37560,note_on,120,0,1,,,,,,,,,,,,,,,0,,,66,0
37560,note_on,0,0,1,,,,,,,,,,,,,,,0,,,67,100
37680,note_on,120,0,1,,,,,,,,,,,,,,,0,,,67,0
37680,note_on,0,0,1,,,,,,,,,,,,,,,0,,,69,100
37800,note_on,0,0,1,,,,,,,,,,,,,,,0,,,63,100
37800,note_on,120,0,1,,,,,,,,,,,,,,,0,,,69,0
37920,note_on,0,0,1,,,,,,,,,,,,,,,0,,,62,100
37920,note_on,480,0,2,,,,,,,,,,,,,,,1,,,38,0
37920,note_on,120,0,1,,,,,,,,,,,,,,,0,,,63,0
38160,note_on,240,0,1,,,,,,,,,,,,,,,0,,,62,0
38160,note_on,0,0,1,,,,,,,,,,,,,,,0,,,72,100
38400,note_on,240,0,1,,,,,,,,,,,,,,,0,,,72,0
38400,note_on,0,0,1,,,,,,,,,,,,,,,0,,,70,100
38400,note_on,480,0,2,,,,,,,,,,,,,,,1,,,43,100
38520,note_on,120,0,1,,,,,,,,,,,,,,,0,,,70,0
38520,note_on,0,0,1,,,,,,,,,,,,,,,0,,,69,100
38640,note_on,0,0,1,,,,,,,,,,,,,,,0,,,67,100
38640,note_on,120,0,1,,,,,,,,,,,,,,,0,,,69,0
38880,note_on,480,0,2,,,,,,,,,,,,,,,1,,,43,0
38880,note_on,0,0,2,,,,,,,,,,,,,,,1,,,46,100
38880,note_on,240,0,1,,,,,,,,,,,,,,,0,,,67,0
39000,note_on,120,0,1,,,,,,,,,,,,,,,0,,,66,100
39120,note_on,0,0,1,,,,,,,,,,,,,,,0,,,67,100
39120,note_on,120,0,1,,,,,,,,,,,,,,,0,,,66,0
39240,note_on,0,0,1,,,,,,,,,,,,,,,0,,,69,100
39240,note_on,120,0,1,,,,,,,,,,,,,,,0,,,67,0
39360,note_on,0,0,1,,,,,,,,,,,,,,,0,,,70,100
39360,note_on,120,0,1,,,,,,,,,,,,,,,0,,,69,0
39360,note_on,480,0,2,,,,,,,,,,,,,,,1,,,46,0
39360,note_on,0,0,2,,,,,,,,,,,,,,,1,,,51,100
39480,note_on,0,0,1,,,,,,,,,,,,,,,0,,,74,100
39480,note_on,120,0,1,,,,,,,,,,,,,,,0,,,70,0
39600,note_on,120,0,1,,,,,,,,,,,,,,,0,,,74,0
39600,note_on,0,0,1,,,,,,,,,,,,,,,0,,,72,100
39720,note_on,0,0,1,,,,,,,,,,,,,,,0,,,70,100
39720,note_on,120,0,1,,,,,,,,,,,,,,,0,,,72,0
39840,note_on,0,0,2,,,,,,,,,,,,,,,1,,,43,100
39840,note_on,480,0,2,,,,,,,,,,,,,,,1,,,51,0
39840,note_on,0,0,1,,,,,,,,,,,,,,,0,,,75,100
39840,note_on,120,0,1,,,,,,,,,,,,,,,0,,,70,0
39960,note_on,0,0,1,,,,,,,,,,,,,,,0,,,74,100
39960,note_on,120,0,1,,,,,,,,,,,,,,,0,,,75,0
40080,note_on,0,0,1,,,,,,,,,,,,,,,0,,,72,100
40080,note_on,120,0,1,,,,,,,,,,,,,,,0,,,74,0
40200,note_on,0,0,1,,,,,,,,,,,,,,,0,,,70,100
40200,note_on,120,0,1,,,,,,,,,,,,,,,0,,,72,0
40320,note_on,0,0,2,,,,,,,,,,,,,,,1,,,44,100
40320,note_on,0,0,1,,,,,,,,,,,,,,,0,,,72,100
40320,note_on,120,0,1,,,,,,,,,,,,,,,0,,,70,0
40320,note_on,480,0,2,,,,,,,,,,,,,,,1,,,43,0
40440,note_on,0,0,1,,,,,,,,,,,,,,,0,,,75,100
40440,note_on,120,0,1,,,,,,,,,,,,,,,0,,,72,0
40560,note_on,0,0,1,,,,,,,,,,,,,,,0,,,74,100
40560,note_on,120,0,1,,,,,,,,,,,,,,,0,,,75,0
40680,note_on,0,0,1,,,,,,,,,,,,,,,0,,,72,100
40680,note_on,120,0,1,,,,,,,,,,,,,,,0,,,74,0
40800,note_on,120,0,1,,,,,,,,,,,,,,,0,,,72,0
40800,note_on,0,0,1,,,,,,,,,,,,,,,0,,,71,100
40800,note_on,0,0,2,,,,,,,,,,,,,,,1,,,53,100
40800,note_on,480,0,2,,,,,,,,,,,,,,,1,,,44,0
40920,note_on,120,0,1,,,,,,,,,,,,,,,0,,,71,0
40920,note_on,0,0,1,,,,,,,,,,,,,,,0,,,72,100
41040,note_on,120,0,1,,,,,,,,,,,,,,,0,,,72,0
41040,note_on,0,0,1,,,,,,,,,,,,,,,0,,,74,100
41160,note_on,120,0,1,,,,,,,,,,,,,,,0,,,74,0
41160,note_on,0,0,1,,,,,,,,,,,,,,,0,,,75,100
41280,note_on,0,0,1,,,,,,,,,,,,,,,0,,,77,100
41280,note_on,0,0,2,,,,,,,,,,,,,,,1,,,50,100
41280,note_on,480,0,2,,,,,,,,,,,,,,,1,,,53,0
41280,note_on,120,0,1,,,,,,,,,,,,,,,0,,,75,0
41400,note_on,0,0,1,,,,,,,,,,,,,,,0,,,80,100
41400,note_on,120,0,1,,,,,,,,,,,,,,,0,,,77,0
41520,note_on,0,0,1,,,,,,,,,,,,,,,0,,,79,100
41520,note_on,120,0,1,,,,,,,,,,,,,,,0,,,80,0
41640,note_on,120,0,1,,,,,,,,,,,,,,,0,,,79,0
41640,note_on,0,0,1,,,,,,,,,,,,,,,0,,,77,100
41760,note_on,120,0,1,,,,,,,,,,,,,,,0,,,77,0
41760,note_on,0,0,1,,,,,,,,,,,,,,,0,,,79,100
41760,note_on,480,0,2,,,,,,,,,,,,,,,1,,,50,0
41760,note_on,0,0,2,,,,,,,,,,,,,,,1,,,47,100
41880,note_on,120,0,1,,,,,,,,,,,,,,,0,,,79,0
41880,note_on,0,0,1,,,,,,,,,,,,,,,0,,,77,100
42000,note_on,120,0,1,,,,,,,,,,,,,,,0,,,77,0
42000,note_on,0,0,1,,,,,,,,,,,,,,,0,,,75,100
42120,note_on,120,0,1,,,,,,,,,,,,,,,0,,,75,0
42120,note_on,0,0,1,,,,,,,,,,,,,,,0,,,74,100
42240,note_on,0,0,2,,,,,,,,,,,,,,,1,,,48,100
42240,note_on,480,0,2,,,,,,,,,,,,,,,1,,,47,0
42240,note_on,0,0,1,,,,,,,,,,,,,,,0,,,75,100
42240,note_on,120,0,1,,,,,,,,,,,,,,,0,,,74,0
42360,note_on,120,0,1,,,,,,,,,,,,,,,0,,,75,0
42360,note_on,0,0,1,,,,,,,,,,,,,,,0,,,74,100
42480,note_on,120,0,1,,,,,,,,,,,,,,,0,,,74,0
42480,note_on,0,0,1,,,,,,,,,,,,,,,0,,,72,100
42720,note_on,240,0,1,,,,,,,,,,,,,,,0,,,72,0
42720,note_on,480,0,2,,,,,,,,,,,,,,,1,,,48,0
42720,note_on,0,0,2,,,,,,,,,,,,,,,1,,,51,100
42840,note_on,120,0,1,,,,,,,,,,,,,,,0,,,71,100
42960,note_on,120,0,1,,,,,,,,,,,,,,,0,,,71,0
42960,note_on,0,0,1,,,,,,,,,,,,,,,0,,,72,100
43080,note_on,120,0,1,,,,,,,,,,,,,,,0,,,72,0
43080,note_on,0,0,1,,,,,,,,,,,,,,,0,,,74,100
43200,note_on,480,0,2,,,,,,,,,,,,,,,1,,,51,0
43200,note_on,120,0,1,,,,,,,,,,,,,,,0,,,74,0
43200,note_on,0,0,2,,,,,,,,,,,,,,,1,,,56,100
43200,note_on,0,0,1,,,,,,,,,,,,,,,0,,,75,100
43320,note_on,120,0,1,,,,,,,,,,,,,,,0,,,75,0
43320,note_on,0,0,1,,,,,,,,,,,,,,,0,,,79,100
43440,note_on,120,0,1,,,,,,,,,,,,,,,0,,,79,0
43440,note_on,0,0,1,,,,,,,,,,,,,,,0,,,77,100
43560,note_on,120,0,1,,,,,,,,,,,,,,,0,,,77,0
43560,note_on,0,0,1,,,,,,,,,,,,,,,0,,,75,100
43680,note_on,0,0,1,,,,,,,,,,,,,,,0,,,80,100
43680,note_on,120,0,1,,,,,,,,,,,,,,,0,,,75,0
43680,note_on,0,0,2,,,,,,,,,,,,,,,1,,,48,100
43680,note_on,480,0,2,,,,,,,,,,,,,,,1,,,56,0
43800,note_on,120,0,1,,,,,,,,,,,,,,,0,,,80,0
43800,note_on,0,0,1,,,,,,,,,,,,,,,0,,,79,100
43920,note_on,0,0,1,,,,,,,,,,,,,,,0,,,77,100
43920,note_on,120,0,1,,,,,,,,,,,,,,,0,,,79,0
44040,note_on,0,0,1,,,,,,,,,,,,,,,0,,,75,100
44040,note_on,120,0,1,,,,,,,,,,,,,,,0,,,77,0
44160,note_on,0,0,2,,,,,,,,,,,,,,,1,,,50,100
44160,note_on,480,0,2,,,,,,,,,,,,,,,1,,,48,0
44160,note_on,0,0,1,,,,,,,,,,,,,,,0,,,77,100
44160,note_on,120,0,1,,,,,,,,,,,,,,,0,,,75,0
44280,note_on,120,0,1,,,,,,,,,,,,,,,0,,,77,0
44280,note_on,0,0,1,,,,,,,,,,,,,,,0,,,80,100
44400,note_on,120,0,1,,,,,,,,,,,,,,,0,,,80,0
44400,note_on,0,0,1,,,,,,,,,,,,,,,0,,,79,100
44520,note_on,120,0,1,,,,,,,,,,,,,,,0,,,79,0
44520,note_on,0,0,1,,,,,,,,,,,,,,,0,,,77,100
44640,note_on,0,0,2,,,,,,,,,,,,,,,1,,,58,100
44640,note_on,480,0,2,,,,,,,,,,,,,,,1,,,50,0
44640,note_on,120,0,1,,,,,,,,,,,,,,,0,,,77,0
44640,note_on,0,0,1,,,,,,,,,,,,,,,0,,,76,100
44760,note_on,120,0,1,,,,,,,,,,,,,,,0,,,76,0
44760,note_on,0,0,1,,,,,,,,,,,,,,,0,,,77,100
44880,note_on,120,0,1,,,,,,,,,,,,,,,0,,,77,0
44880,note_on,0,0,1,,,,,,,,,,,,,,,0,,,79,100
45000,note_on,120,0,1,,,,,,,,,,,,,,,0,,,79,0
45000,note_on,0,0,1,,,,,,,,,,,,,,,0,,,80,100
45120,note_on,0,0,1,,,,,,,,,,,,,,,0,,,82,100
45120,note_on,120,0,1,,,,,,,,,,,,,,,0,,,80,0
45120,note_on,480,0,2,,,,,,,,,,,,,,,1,,,58,0
45120,note_on,0,0,2,,,,,,,,,,,,,,,1,,,55,100
45240,note_on,120,0,1,,,,,,,,,,,,,,,0,,,82,0
45240,note_on,0,0,1,,,,,,,,,,,,,,,0,,,85,100
45360,note_on,120,0,1,,,,,,,,,,,,,,,0,,,85,0
45360,note_on,0,0,1,,,,,,,,,,,,,,,0,,,84,100
45480,note_on,120,0,1,,,,,,,,,,,,,,,0,,,84,0
45480,note_on,0,0,1,,,,,,,,,,,,,,,0,,,82,100
45600,note_on,0,0,2,,,,,,,,,,,,,,,1,,,52,100
45600,note_on,480,0,2,,,,,,,,,,,,,,,1,,,55,0
45600,note_on,120,0,1,,,,,,,,,,,,,,,0,,,82,0
45600,note_on,0,0,1,,,,,,,,,,,,,,,0,,,84,100
45720,note_on,120,0,1,,,,,,,,,,,,,,,0,,,84,0
45720,note_on,0,0,1,,,,,,,,,,,,,,,0,,,82,100
45840,note_on,120,0,1,,,,,,,,,,,,,,,0,,,82,0
45840,note_on,0,0,1,,,,,,,,,,,,,,,0,,,80,100
45960,note_on,0,0,1,,,,,,,,,,,,,,,0,,,79,100
45960,note_on,120,0,1,,,,,,,,,,,,,,,0,,,80,0
46080,note_on,0,0,1,,,,,,,,,,,,,,,0,,,80,100
46080,note_on,120,0,1,,,,,,,,,,,,,,,0,,,79,0
46080,note_on,480,0,2,,,,,,,,,,,,,,,1,,,52,0
46080,note_on,0,0,2,,,,,,,,,,,,,,,1,,,53,100
46200,note_on,120,0,1,,,,,,,,,,,,,,,0,,,80,0
46200,note_on,0,0,1,,,,,,,,,,,,,,,0,,,79,100
46320,note_on,120,0,1,,,,,,,,,,,,,,,0,,,79,0
46320,note_on,0,0,1,,,,,,,,,,,,,,,0,,,80,100
46440,note_on,0,0,1,,,,,,,,,,,,,,,0,,,84,100
46440,note_on,120,0,1,,,,,,,,,,,,,,,0,,,80,0
46560,note_on,0,0,1,,,,,,,,,,,,,,,0,,,76,100
46560,note_on,120,0,1,,,,,,,,,,,,,,,0,,,84,0
46560,note_on,0,0,2,,,,,,,,,,,,,,,1,,,46,100
46560,note_on,480,0,2,,,,,,,,,,,,,,,1,,,53,0
46680,note_on,120,0,1,,,,,,,,,,,,,,,0,,,76,0
46680,note_on,0,0,1,,,,,,,,,,,,,,,0,,,74,100
46800,note_on,120,0,1,,,,,,,,,,,,,,,0,,,74,0
46800,note_on,0,0,1,,,,,,,,,,,,,,,0,,,76,100
46920,note_on,120,0,1,,,,,,,,,,,,,,,0,,,76,0
46920,note_on,0,0,1,,,,,,,,,,,,,,,0,,,84,100
47040,note_on,0,0,2,,,,,,,,,,,,,,,1,,,44,100
47040,note_on,120,0,1,,,,,,,,,,,,,,,0,,,84,0
47040,note_on,0,0,1,,,,,,,,,,,,,,,0,,,77,100
47040,note_on,480,0,2,,,,,,,,,,,,,,,1,,,46,0
47160,note_on,120,0,1,,,,,,,,,,,,,,,0,,,77,0
47160,note_on,0,0,1,,,,,,,,,,,,,,,0,,,76,100
47280,note_on,120,0,1,,,,,,,,,,,,,,,0,,,76,0
47280,note_on,0,0,1,,,,,,,,,,,,,,,0,,,77,100
47400,note_on,0,0,1,,,,,,,,,,,,,,,0,,,84,100
47400,note_on,120,0,1,,,,,,,,,,,,,,,0,,,77,0
47520,note_on,0,0,1,,,,,,,,,,,,,,,0,,,79,100
47520,note_on,480,0,2,,,,,,,,,,,,,,,1,,,44,0
47520,note_on,120,0,1,,,,,,,,,,,,,,,0,,,84,0
47520,note_on,0,0,2,,,,,,,,,,,,,,,1,,,48,100
47640,note_on,120,0,1,,,,,,,,,,,,,,,0,,,79,0
47640,note_on,0,0,1,,,,,,,,,,,,,,,0,,,77,100
47760,note_on,0,0,1,,,,,,,,,,,,,,,0,,,79,100
47760,note_on,120,0,1,,,,,,,,,,,,,,,0,,,77,0
47880,note_on,0,0,1,,,,,,,,,,,,,,,0,,,82,100
47880,note_on,120,0,1,,,,,,,,,,,,,,,0,,,79,0
48000,note_on,0,0,1,,,,,,,,,,,,,,,0,,,80,100
48000,note_on,120,0,1,,,,,,,,,,,,,,,0,,,82,0
48000,note_on,0,0,2,,,,,,,,,,,,,,,1,,,41,100
48000,note_on,480,0,2,,,,,,,,,,,,,,,1,,,48,0
48120,note_on,0,0,1,,,,,,,,,,,,,,,0,,,79,100
48120,note_on,120,0,1,,,,,,,,,,,,,,,0,,,80,0
48240,note_on,0,0,1,,,,,,,,,,,,,,,0,,,77,100
48240,note_on,120,0,1,,,,,,,,,,,,,,,0,,,79,0
48360,note_on,0,0,1,,,,,,,,,,,,,,,0,,,79,100
48360,note_on,120,0,1,,,,,,,,,,,,,,,0,,,77,0
48480,note_on,0,0,2,,,,,,,,,,,,,,,1,,,53,100
48480,note_on,480,0,2,,,,,,,,,,,,,,,1,,,41,0
48480,note_on,120,0,1,,,,,,,,,,,,,,,0,,,79,0
48480,note_on,0,0,1,,,,,,,,,,,,,,,0,,,80,100
48600,note_on,120,0,1,,,,,,,,,,,,,,,0,,,80,0
48600,note_on,0,0,1,,,,,,,,,,,,,,,0,,,77,100
48720,note_on,120,0,1,,,,,,,,,,,,,,,0,,,77,0
48720,note_on,0,0,1,,,,,,,,,,,,,,,0,,,80,100
48840,note_on,120,0,1,,,,,,,,,,,,,,,0,,,80,0
48840,note_on,0,0,1,,,,,,,,,,,,,,,0,,,75,100
48960,note_on,120,0,1,,,,,,,,,,,,,,,0,,,75,0
48960,note_on,0,0,2,,,,,,,,,,,,,,,1,,,58,100
48960,note_on,480,0,2,,,,,,,,,,,,,,,1,,,53,0
48960,note_on,0,0,1,,,,,,,,,,,,,,,0,,,73,100
49080,note_on,120,0,1,,,,,,,,,,,,,,,0,,,73,0
49080,note_on,0,0,1,,,,,,,,,,,,,,,0,,,72,100
49200,note_on,0,0,2,,,,,,,,,,,,,,,1,,,44,100
49200,note_on,240,0,2,,,,,,,,,,,,,,,1,,,58,0
49200,note_on,120,0,1,,,,,,,,,,,,,,,0,,,72,0
49200,note_on,0,0,1,,,,,,,,,,,,,,,0,,,73,100
49320,note_on,120,0,1,,,,,,,,,,,,,,,0,,,73,0
49320,note_on,0,0,1,,,,,,,,,,,,,,,0,,,84,100
49440,note_on,0,0,1,,,,,,,,,,,,,,,0,,,73,100
49440,note_on,120,0,1,,,,,,,,,,,,,,,0,,,84,0
49440,note_on,240,0,2,,,,,,,,,,,,,,,1,,,44,0
49440,note_on,0,0,2,,,,,,,,,,,,,,,1,,,43,100
49560,note_on,0,0,1,,,,,,,,,,,,,,,0,,,82,100
49560,note_on,120,0,1,,,,,,,,,,,,,,,0,,,73,0
49680,note_on,120,0,1,,,,,,,,,,,,,,,0,,,82,0
49680,note_on,0,0,1,,,,,,,,,,,,,,,0,,,73,100
49680,note_on,240,0,2,,,,,,,,,,,,,,,1,,,43,0
49680,note_on,0,0,2,,,,,,,,,,,,,,,1,,,41,100
49800,note_on,120,0,1,,,,,,,,,,,,,,,0,,,73,0
49800,note_on,0,0,1,,,,,,,,,,,,,,,0,,,80,100
49920,note_on,240,0,2,,,,,,,,,,,,,,,1,,,41,0
49920,note_on,0,0,2,,,,,,,,,,,,,,,1,,,39,100
49920,note_on,120,0,1,,,,,,,,,,,,,,,0,,,80,0
49920,note_on,0,0,1,,,,,,,,,,,,,,,0,,,79,100
50040,note_on,0,0,1,,,,,,,,,,,,,,,0,,,77,100
50040,note_on,120,0,1,,,,,,,,,,,,,,,0,,,79,0
50160,note_on,120,0,1,,,,,,,,,,,,,,,0,,,77,0
50160,note_on,0,0,1,,,,,,,,,,,,,,,0,,,75,100
50280,note_on,0,0,1,,,,,,,,,,,,,,,0,,,77,100
50280,note_on,120,0,1,,,,,,,,,,,,,,,0,,,75,0
50400,note_on,480,0,2,,,,,,,,,,,,,,,1,,,39,0
50400,note_on,0,0,2,,,,,,,,,,,,,,,1,,,51,100
50400,note_on,0,0,1,,,,,,,,,,,,,,,0,,,79,100
50400,note_on,120,0,1,,,,,,,,,,,,,,,0,,,77,0
50520,note_on,0,0,1,,,,,,,,,,,,,,,0,,,75,100
50520,note_on,120,0,1,,,,,,,,,,,,,,,0,,,79,0
50640,note_on,0,0,1,,,,,,,,,,,,,,,0,,,79,100
50640,note_on,120,0,1,,,,,,,,,,,,,,,0,,,75,0
50760,note_on,0,0,1,,,,,,,,,,,,,,,0,,,73,100
50760,note_on,120,0,1,,,,,,,,,,,,,,,0,,,79,0
50880,note_on,0,0,1,,,,,,,,,,,,,,,0,,,72,100
50880,note_on,120,0,1,,,,,,,,,,,,,,,0,,,73,0
50880,note_on,480,0,2,,,,,,,,,,,,,,,1,,,51,0
50880,note_on,0,0,2,,,,,,,,,,,,,,,1,,,44,100
51000,note_on,0,0,1,,,,,,,,,,,,,,,0,,,70,100
51000,note_on,120,0,1,,,,,,,,,,,,,,,0,,,72,0
51120,note_on,120,0,1,,,,,,,,,,,,,,,0,,,70,0
51120,note_on,240,0,2,,,,,,,,,,,,,,,1,,,44,0
51120,note_on,0,0,2,,,,,,,,,,,,,,,1,,,55,100
51120,note_on,0,0,1,,,,,,,,,,,,,,,0,,,72,100
51240,note_on,120,0,1,,,,,,,,,,,,,,,0,,,72,0
51240,note_on,0,0,1,,,,,,,,,,,,,,,0,,,82,100
51360,note_on,0,0,1,,,,,,,,,,,,,,,0,,,72,100
51360,note_on,120,0,1,,,,,,,,,,,,,,,0,,,82,0
51360,note_on,240,0,2,,,,,,,,,,,,,,,1,,,55,0
51360,note_on,0,0,2,,,,,,,,,,,,,,,1,,,53,100
51480,note_on,120,0,1,,,,,,,,,,,,,,,0,,,72,0
51480,note_on,0,0,1,,,,,,,,,,,,,,,0,,,80,100
51600,note_on,0,0,2,,,,,,,,,,,,,,,1,,,51,100
51600,note_on,240,0,2,,,,,,,,,,,,,,,1,,,53,0
51600,note_on,120,0,1,,,,,,,,,,,,,,,0,,,80,0
51600,note_on,0,0,1,,,,,,,,,,,,,,,0,,,72,100
51720,note_on,120,0,1,,,,,,,,,,,,,,,0,,,72,0
51720,note_on,0,0,1,,,,,,,,,,,,,,,0,,,79,100
51840,note_on,0,0,2,,,,,,,,,,,,,,,1,,,49,100
51840,note_on,240,0,2,,,,,,,,,,,,,,,1,,,51,0
51840,note_on,120,0,1,,,,,,,,,,,,,,,0,,,79,0
51840,note_on,0,0,1,,,,,,,,,,,,,,,0,,,77,100
51960,note_on,0,0,1,,,,,,,,,,,,,,,0,,,75,100
51960,note_on,120,0,1,,,,,,,,,,,,,,,0,,,77,0
52080,note_on,120,0,1,,,,,,,,,,,,,,,0,,,75,0
52080,note_on,0,0,1,,,,,,,,,,,,,,,0,,,73,100
52080,note_on,240,0,2,,,,,,,,,,,,,,,1,,,49,0
52080,note_on,0,0,2,,,,,,,,,,,,,,,1,,,48,100
52200,note_on,120,0,1,,,,,,,,,,,,,,,0,,,73,0
52200,note_on,0,0,1,,,,,,,,,,,,,,,0,,,75,100
52320,note_on,0,0,2,,,,,,,,,,,,,,,1,,,46,100
52320,note_on,240,0,2,,,,,,,,,,,,,,,1,,,48,0
52320,note_on,0,0,1,,,,,,,,,,,,,,,0,,,77,100
52320,note_on,120,0,1,,,,,,,,,,,,,,,0,,,75,0
52440,note_on,120,0,1,,,,,,,,,,,,,,,0,,,77,0
52440,note_on,0,0,1,,,,,,,,,,,,,,,0,,,73,100
52560,note_on,0,0,2,,,,,,,,,,,,,,,1,,,44,100
52560,note_on,120,0,1,,,,,,,,,,,,,,,0,,,73,0
52560,note_on,0,0,1,,,,,,,,,,,,,,,0,,,77,100
52560,note_on,240,0,2,,,,,,,,,,,,,,,1,,,46,0
52680,note_on,120,0,1,,,,,,,,,,,,,,,0,,,77,0
52680,note_on,0,0,1,,,,,,,,,,,,,,,0,,,72,100
52800,note_on,120,0,1,,,,,,,,,,,,,,,0,,,72,0
52800,note_on,0,0,1,,,,,,,,,,,,,,,0,,,70,100
52800,note_on,240,0,2,,,,,,,,,,,,,,,1,,,44,0
52800,note_on,0,0,2,,,,,,,,,,,,,,,1,,,43,100
52920,note_on,0,0,1,,,,,,,,,,,,,,,0,,,68,100
52920,note_on,120,0,1,,,,,,,,,,,,,,,0,,,70,0
53040,note_on,0,0,2,,,,,,,,,,,,,,,1,,,53,100
53040,note_on,240,0,2,,,,,,,,,,,,,,,1,,,43,0
53040,note_on,120,0,1,,,,,,,,,,,,,,,0,,,68,0
53040,note_on,0,0,1,,,,,,,,,,,,,,,0,,,70,100
53160,note_on,0,0,1,,,,,,,,,,,,,,,0,,,80,100
53160,note_on,120,0,1,,,,,,,,,,,,,,,0,,,70,0
53280,note_on,0,0,2,,,,,,,,,,,,,,,1,,,52,100
53280,note_on,0,0,1,,,,,,,,,,,,,,,0,,,70,100
53280,note_on,120,0,1,,,,,,,,,,,,,,,0,,,80,0
53280,note_on,240,0,2,,,,,,,,,,,,,,,1,,,53,0
53400,note_on,120,0,1,,,,,,,,,,,,,,,0,,,70,0
53400,note_on,0,0,1,,,,,,,,,,,,,,,0,,,79,100
53520,note_on,0,0,2,,,,,,,,,,,,,,,1,,,55,100
53520,note_on,0,0,1,,,,,,,,,,,,,,,0,,,70,100
53520,note_on,120,0,1,,,,,,,,,,,,,,,0,,,79,0
53520,note_on,240,0,2,,,,,,,,,,,,,,,1,,,52,0
53640,note_on,0,0,1,,,,,,,,,,,,,,,0,,,77,100
53640,note_on,120,0,1,,,,,,,,,,,,,,,0,,,70,0
53760,note_on,0,0,2,,,,,,,,,,,,,,,1,,,36,100
53760,note_on,0,0,1,,,,,,,,,,,,,,,0,,,76,100
53760,note_on,120,0,1,,,,,,,,,,,,,,,0,,,77,0
53760,note_on,240,0,2,,,,,,,,,,,,,,,1,,,55,0
53880,note_on,0,0,1,,,,,,,,,,,,,,,0,,,74,100
53880,note_on,120,0,1,,,,,,,,,,,,,,,0,,,76,0
54000,note_on,0,0,1,,,,,,,,,,,,,,,0,,,72,100
54000,note_on,120,0,1,,,,,,,,,,,,,,,0,,,74,0
54240,note_on,240,0,1,,,,,,,,,,,,,,,0,,,72,0
54240,note_on,0,0,2,,,,,,,,,,,,,,,1,,,48,100
54240,note_on,480,0,2,,,,,,,,,,,,,,,1,,,36,0
54360,note_on,120,0,1,,,,,,,,,,,,,,,0,,,67,100
54480,note_on,0,0,1,,,,,,,,,,,,,,,0,,,68,100
54480,note_on,120,0,1,,,,,,,,,,,,,,,0,,,67,0
54600,note_on,120,0,1,,,,,,,,,,,,,,,0,,,68,0
54600,note_on,0,0,1,,,,,,,,,,,,,,,0,,,70,100
54720,note_on,120,0,1,,,,,,,,,,,,,,,0,,,70,0
54720,note_on,0,0,2,,,,,,,,,,,,,,,1,,,43,100
54720,note_on,480,0,2,,,,,,,,,,,,,,,1,,,48,0
54720,note_on,0,0,1,,,,,,,,,,,,,,,0,,,64,100
54840,note_on,120,0,1,,,,,,,,,,,,,,,0,,,64,0
54840,note_on,0,0,1,,,,,,,,,,,,,,,0,,,73,100
54960,note_on,120,0,1,,,,,,,,,,,,,,,0,,,73,0
54960,note_on,0,0,1,,,,,,,,,,,,,,,0,,,72,100
55080,note_on,120,0,1,,,,,,,,,,,,,,,0,,,72,0
55080,note_on,0,0,1,,,,,,,,,,,,,,,0,,,70,100
55200,note_on,0,0,2,,,,,,,,,,,,,,,1,,,52,100
55200,note_on,480,0,2,,,,,,,,,,,,,,,1,,,43,0
55200,note_on,120,0,1,,,,,,,,,,,,,,,0,,,70,0
55200,note_on,0,0,1,,,,,,,,,,,,,,,0,,,79,100
55320,note_on,0,0,1,,,,,,,,,,,,,,,0,,,70,100
55320,note_on,120,0,1,,,,,,,,,,,,,,,0,,,79,0
55440,note_on,120,0,1,,,,,,,,,,,,,,,0,,,70,0
55440,note_on,0,0,1,,,,,,,,,,,,,,,0,,,68,100
55560,note_on,120,0,1,,,,,,,,,,,,,,,0,,,68,0
55560,note_on,0,0,1,,,,,,,,,,,,,,,0,,,67,100
55680,note_on,0,0,1,,,,,,,,,,,,,,,0,,,68,100
55680,note_on,480,0,2,,,,,,,,,,,,,,,1,,,52,0
55680,note_on,0,0,2,,,,,,,,,,,,,,,1,,,36,100
55680,note_on,120,0,1,,,,,,,,,,,,,,,0,,,67,0
55800,note_on,120,0,1,,,,,,,,,,,,,,,0,,,68,0
55800,note_on,0,0,1,,,,,,,,,,,,,,,0,,,72,100
55920,note_on,120,0,1,,,,,,,,,,,,,,,0,,,72,0
55920,note_on,0,0,1,,,,,,,,,,,,,,,0,,,70,100
56040,note_on,120,0,1,,,,,,,,,,,,,,,0,,,70,0
56040,note_on,0,0,1,,,,,,,,,,,,,,,0,,,68,100
56160,note_on,480,0,2,,,,,,,,,,,,,,,1,,,36,0
56160,note_on,120,0,1,,,,,,,,,,,,,,,0,,,68,0
56160,note_on,0,0,1,,,,,,,,,,,,,,,0,,,77,100
56160,note_on,0,0,2,,,,,,,,,,,,,,,1,,,48,100
56280,note_on,0,0,1,,,,,,,,,,,,,,,0,,,68,100
56280,note_on,120,0,1,,,,,,,,,,,,,,,0,,,77,0
56400,note_on,0,0,1,,,,,,,,,,,,,,,0,,,67,100
56400,note_on,120,0,1,,,,,,,,,,,,,,,0,,,68,0
56520,note_on,0,0,1,,,,,,,,,,,,,,,0,,,65,100
56520,note_on,120,0,1,,,,,,,,,,,,,,,0,,,67,0
56640,note_on,0,0,2,,,,,,,,,,,,,,,1,,,43,100
56640,note_on,120,0,1,,,,,,,,,,,,,,,0,,,65,0
56640,note_on,0,0,1,,,,,,,,,,,,,,,0,,,64,100
56640,note_on,480,0,2,,,,,,,,,,,,,,,1,,,48,0
56760,note_on,120,0,1,,,,,,,,,,,,,,,0,,,64,0
56760,note_on,0,0,1,,,,,,,,,,,,,,,0,,,73,100
56880,note_on,0,0,1,,,,,,,,,,,,,,,0,,,72,100
56880,note_on,120,0,1,,,,,,,,,,,,,,,0,,,73,0
57000,note_on,0,0,1,,,,,,,,,,,,,,,0,,,70,100
57000,note_on,120,0,1,,,,,,,,,,,,,,,0,,,72,0
57120,note_on,480,0,2,,,,,,,,,,,,,,,1,,,43,0
57120,note_on,0,0,2,,,,,,,,,,,,,,,1,,,52,100
57120,note_on,0,0,1,,,,,,,,,,,,,,,0,,,79,100
57120,note_on,120,0,1,,,,,,,,,,,,,,,0,,,70,0
57240,note_on,0,0,1,,,,,,,,,,,,,,,0,,,70,100
57240,note_on,120,0,1,,,,,,,,,,,,,,,0,,,79,0
57360,note_on,0,0,1,,,,,,,,,,,,,,,0,,,68,100
57360,note_on,120,0,1,,,,,,,,,,,,,,,0,,,70,0
57480,note_on,120,0,1,,,,,,,,,,,,,,,0,,,68,0
57480,note_on,0,0,1,,,,,,,,,,,,,,,0,,,67,100
57600,note_on,120,0,1,,,,,,,,,,,,,,,0,,,67,0
57600,note_on,480,0,2,,,,,,,,,,,,,,,1,,,52,0
57600,note_on,0,0,2,,,,,,,,,,,,,,,1,,,41,100
57600,note_on,0,0,1,,,,,,,,,,,,,,,0,,,68,100
57720,note_on,0,0,1,,,,,,,,,,,,,,,0,,,72,100
57720,note_on,120,0,1,,,,,,,,,,,,,,,0,,,68,0
57840,note_on,120,0,1,,,,,,,,,,,,,,,0,,,72,0
57840,note_on,0,0,1,,,,,,,,,,,,,,,0,,,70,100
57960,note_on,120,0,1,,,,,,,,,,,,,,,0,,,70,0
57960,note_on,0,0,1,,,,,,,,,,,,,,,0,,,68,100
58080,note_on,480,0,2,,,,,,,,,,,,,,,1,,,41,0
58080,note_on,0,0,2,,,,,,,,,,,,,,,1,,,44,100
58080,note_on,0,0,1,,,,,,,,,,,,,,,0,,,77,100
58080,note_on,120,0,1,,,,,,,,,,,,,,,0,,,68,0
58200,note_on,120,0,1,,,,,,,,,,,,,,,0,,,77,0
58200,note_on,0,0,1,,,,,,,,,,,,,,,0,,,68,100
58320,note_on,120,0,1,,,,,,,,,,,,,,,0,,,68,0
58320,note_on,0,0,1,,,,,,,,,,,,,,,0,,,67,100
58440,note_on,120,0,1,,,,,,,,,,,,,,,0,,,67,0
58440,note_on,0,0,1,,,,,,,,,,,,,,,0,,,65,100
58560,note_on,120,0,1,,,,,,,,,,,,,,,0,,,65,0
58560,note_on,480,0,2,,,,,,,,,,,,,,,1,,,44,0
58560,note_on,0,0,2,,,,,,,,,,,,,,,1,,,46,100
58560,note_on,0,0,1,,,,,,,,,,,,,,,0,,,66,100
58680,note_on,120,0,1,,,,,,,,,,,,,,,0,,,66,0
58680,note_on,0,0,1,,,,,,,,,,,,,,,0,,,68,100
58800,note_on,0,0,1,,,,,,,,,,,,,,,0,,,66,100
58800,note_on,120,0,1,,,,,,,,,,,,,,,0,,,68,0
58920,note_on,0,0,1,,,,,,,,,,,,,,,0,,,65,100
58920,note_on,120,0,1,,,,,,,,,,,,,,,0,,,66,0
59040,note_on,480,0,2,,,,,,,,,,,,,,,1,,,46,0
59040,note_on,0,0,1,,,,,,,,,,,,,,,0,,,66,100
59040,note_on,120,0,1,,,,,,,,,,,,,,,0,,,65,0
59160,note_on,0,0,1,,,,,,,,,,,,,,,0,,,71,100
59160,note_on,120,0,1,,,,,,,,,,,,,,,0,,,66,0
59280,note_on,120,0,1,,,,,,,,,,,,,,,0,,,71,0
59280,note_on,0,0,1,,,,,,,,,,,,,,,0,,,70,100
59280,note_on,240,0,2,,,,,,,,,,,,,,,1,,,48,100
59400,note_on,120,0,1,,,,,,,,,,,,,,,0,,,70,0
59400,note_on,0,0,1,,,,,,,,,,,,,,,0,,,69,100
59520,note_on,0,0,1,,,,,,,,,,,,,,,0,,,70,100
59520,note_on,120,0,1,,,,,,,,,,,,,,,0,,,69,0
59520,note_on,0,0,2,,,,,,,,,,,,,,,1,,,49,100
59520,note_on,240,0,2,,,,,,,,,,,,,,,1,,,48,0
59640,note_on,0,0,1,,,,,,,,,,,,,,,0,,,71,100
59640,note_on,120,0,1,,,,,,,,,,,,,,,0,,,70,0
59760,note_on,120,0,1,,,,,,,,,,,,,,,0,,,71,0
59760,note_on,0,0,1,,,,,,,,,,,,,,,0,,,70,100
59880,note_on,120,0,1,,,,,,,,,,,,,,,0,,,70,0
59880,note_on,0,0,1,,,,,,,,,,,,,,,0,,,69,100
60000,note_on,480,0,2,,,,,,,,,,,,,,,1,,,49,0
60000,note_on,120,0,1,,,,,,,,,,,,,,,0,,,69,0
60000,note_on,0,0,1,,,,,,,,,,,,,,,0,,,70,100
60120,note_on,120,0,1,,,,,,,,,,,,,,,0,,,70,0
60120,note_on,0,0,1,,,,,,,,,,,,,,,0,,,78,100
60240,note_on,240,0,2,,,,,,,,,,,,,,,1,,,43,100
60240,note_on,120,0,1,,,,,,,,,,,,,,,0,,,78,0
60240,note_on,0,0,1,,,,,,,,,,,,,,,0,,,77,100
60360,note_on,120,0,1,,,,,,,,,,,,,,,0,,,77,0
60360,note_on,0,0,1,,,,,,,,,,,,,,,0,,,76,100
60480,note_on,0,0,2,,,,,,,,,,,,,,,1,,,44,100
60480,note_on,120,0,1,,,,,,,,,,,,,,,0,,,76,0
60480,note_on,0,0,1,,,,,,,,,,,,,,,0,,,77,100
60480,note_on,240,0,2,,,,,,,,,,,,,,,1,,,43,0
60720,note_on,240,0,1,,,,,,,,,,,,,,,0,,,77,0
60720,note_on,0,0,2,,,,,,,,,,,,,,,1,,,41,100
60720,note_on,0,0,1,,,,,,,,,,,,,,,0,,,72,100
60720,note_on,240,0,2,,,,,,,,,,,,,,,1,,,44,0
60960,note_on,240,0,2,,,,,,,,,,,,,,,1,,,41,0
60960,note_on,0,0,2,,,,,,,,,,,,,,,1,,,48,100
60960,note_on,240,0,1,,,,,,,,,,,,,,,0,,,72,0
60960,note_on,0,0,1,,,,,,,,,,,,,,,0,,,82,100
61080,note_on,120,0,1,,,,,,,,,,,,,,,0,,,82,0
61080,note_on,0,0,1,,,,,,,,,,,,,,,0,,,80,100
61200,note_on,120,0,1,,,,,,,,,,,,,,,0,,,80,0
61200,note_on,0,0,1,,,,,,,,,,,,,,,0,,,80,100
61200,marker,37440,1,0,,,,,,,,,,,,,,,,,,,
61200,note_on,0,0,2,,,,,,,,,,,,,,,1,,,36,100
61200,note_on,240,0,2,,,,,,,,,,,,,,,1,,,48,0
61230,note_on,0,0,1,,,,,,,,,,,,,,,0,,,79,100
61230,note_on,30,0,1,,,,,,,,,,,,,,,0,,,80,0
61260,note_on,30,0,1,,,,,,,,,,,,,,,0,,,79,0
61260,note_on,0,0,1,,,,,,,,,,,,,,,0,,,80,100
61290,note_on,30,0,1,,,,,,,,,,,,,,,0,,,80,0
61290,note_on,0,0,1,,,,,,,,,,,,,,,0,,,79,100
61320,note_on,30,0,1,,,,,,,,,,,,,,,0,,,79,0
61320,note_on,0,0,1,,,,,,,,,,,,,,,0,,,77,100
61440,note_on,0,0,2,,,,,,,,,,,,,,,1,,,41,100
61440,note_on,240,0,2,,,,,,,,,,,,,,,1,,,36,0
61440,note_on,0,0,1,,,,,,,,,,,,,,,0,,,77,100
61440,note_on,120,0,1,,,,,,,,,,,,,,,0,,,77,0
61680,note_on,0,0,1,,,,,,,,,,,,,,,0,,,80,100
61680,note_on,240,0,1,,,,,,,,,,,,,,,0,,,77,0
61800,note_on,120,0,1,,,,,,,,,,,,,,,0,,,80,0
61800,note_on,0,0,1,,,,,,,,,,,,,,,0,,,77,100
61920,note_on,480,0,2,,,,,,,,,,,,,,,1,,,41,0
61920,note_on,120,0,1,,,,,,,,,,,,,,,0,,,77,0
61920,note_on,0,0,1,,,,,,,,,,,,,,,0,,,72,100
62160,note_on,0,0,1,,,,,,,,,,,,,,,0,,,73,100
62160,note_on,240,0,2,,,,,,,,,,,,,,,1,,,53,100
62160,note_on,240,0,1,,,,,,,,,,,,,,,0,,,72,0
62280,note_on,120,0,2,,,,,,,,,,,,,,,1,,,53,0
62280,note_on,0,0,2,,,,,,,,,,,,,,,1,,,52,100
62400,note_on,240,0,1,,,,,,,,,,,,,,,0,,,73,0
62400,note_on,0,0,2,,,,,,,,,,,,,,,1,,,53,100
62400,note_on,120,0,2,,,,,,,,,,,,,,,1,,,52,0
62640,note_on,240,0,1,,,,,,,,,,,,,,,0,,,79,100
62760,note_on,120,0,1,,,,,,,,,,,,,,,0,,,79,0
62760,note_on,0,0,1,,,,,,,,,,,,,,,0,,,80,100
62880,note_on,120,0,1,,,,,,,,,,,,,,,0,,,80,0
62880,note_on,0,0,1,,,,,,,,,,,,,,,0,,,84,100
62880,note_on,480,0,2,,,,,,,,,,,,,,,1,,,53,0
63120,note_on,240,0,2,,,,,,,,,,,,,,,1,,,41,100
63120,note_on,0,0,1,,,,,,,,,,,,,,,0,,,85,100
63120,note_on,240,0,1,,,,,,,,,,,,,,,0,,,84,0
63360,note_on,240,0,2,,,,,,,,,,,,,,,1,,,41,0
63360,note_on,240,0,1,,,,,,,,,,,,,,,0,,,85,0
63360,note_on,0,0,2,,,,,,,,,,,,,,,1,,,39,100
63600,note_on,240,0,1,,,,,,,,,,,,,,,0,,,79,100
63720,note_on,0,0,1,,,,,,,,,,,,,,,0,,,75,100
63720,note_on,120,0,1,,,,,,,,,,,,,,,0,,,79,0
63840,note_on,480,0,2,,,,,,,,,,,,,,,1,,,39,0
63840,note_on,0,0,1,,,,,,,,,,,,,,,0,,,71,100
63840,note_on,120,0,1,,,,,,,,,,,,,,,0,,,75,0
64080,note_on,240,0,2,,,,,,,,,,,,,,,1,,,51,100
64080,note_on,0,0,1,,,,,,,,,,,,,,,0,,,72,100
64080,note_on,240,0,1,,,,,,,,,,,,,,,0,,,71,0
64200,note_on,120,0,2,,,,,,,,,,,,,,,1,,,51,0
64200,note_on,0,0,2,,,,,,,,,,,,,,,1,,,50,100
64320,note_on,240,0,1,,,,,,,,,,,,,,,0,,,72,0
64320,note_on,120,0,2,,,,,,,,,,,,,,,1,,,50,0
64320,note_on,0,0,2,,,,,,,,,,,,,,,1,,,51,100
64560,note_on,240,0,1,,,,,,,,,,,,,,,0,,,78,100
64680,note_on,120,0,1,,,,,,,,,,,,,,,0,,,78,0
64680,note_on,0,0,1,,,,,,,,,,,,,,,0,,,79,100
64800,note_on,120,0,1,,,,,,,,,,,,,,,0,,,79,0
64800,note_on,0,0,1,,,,,,,,,,,,,,,0,,,83,100
64800,note_on,480,0,2,,,,,,,,,,,,,,,1,,,51,0
65040,note_on,240,0,2,,,,,,,,,,,,,,,1,,,39,100
65040,note_on,0,0,1,,,,,,,,,,,,,,,0,,,84,100
65040,note_on,240,0,1,,,,,,,,,,,,,,,0,,,83,0
65280,note_on,240,0,1,,,,,,,,,,,,,,,0,,,84,0
65280,note_on,240,0,2,,,,,,,,,,,,,,,1,,,39,0
65280,note_on,0,0,2,,,,,,,,,,,,,,,1,,,38,100
65400,note_on,120,0,1,,,,,,,,,,,,,,,0,,,82,100
65520,note_on,0,0,1,,,,,,,,,,,,,,,0,,,80,100
65520,note_on,120,0,1,,,,,,,,,,,,,,,0,,,82,0
65640,note_on,0,0,1,,,,,,,,,,,,,,,0,,,79,100
65640,note_on,120,0,1,,,,,,,,,,,,,,,0,,,80,0
65760,note_on,120,0,1,,,,,,,,,,,,,,,0,,,79,0
65760,note_on,0,0,1,,,,,,,,,,,,,,,0,,,77,100
65760,note_on,480,0,2,,,,,,,,,,,,,,,1,,,38,0
65880,note_on,120,0,1,,,,,,,,,,,,,,,0,,,77,0
65880,note_on,0,0,1,,,,,,,,,,,,,,,0,,,75,100
66000,note_on,0,0,1,,,,,,,,,,,,,,,0,,,74,100
66000,note_on,120,0,1,,,,,,,,,,,,,,,0,,,75,0
66120,note_on,0,0,1,,,,,,,,,,,,,,,0,,,72,100
66120,note_on,120,0,1,,,,,,,,,,,,,,,0,,,74,0
66240,note_on,0,0,1,,,,,,,,,,,,,,,0,,,71,100
66240,note_on,120,0,1,,,,,,,,,,,,,,,0,,,72,0
66240,note_on,480,0,2,,,,,,,,,,,,,,,1,,,43,100
66360,note_on,0,0,1,,,,,,,,,,,,,,,0,,,72,100
66360,note_on,120,0,1,,,,,,,,,,,,,,,0,,,71,0
66480,note_on,0,0,1,,,,,,,,,,,,,,,0,,,74,100
66480,note_on,120,0,1,,,,,,,,,,,,,,,0,,,72,0
66600,note_on,120,0,1,,,,,,,,,,,,,,,0,,,74,0
66600,note_on,0,0,1,,,,,,,,,,,,,,,0,,,68,100
66720,note_on,120,0,1,,,,,,,,,,,,,,,0,,,68,0
66720,note_on,0,0,1,,,,,,,,,,,,,,,0,,,67,100
66720,note_on,480,0,2,,,,,,,,,,,,,,,1,,,43,0
66840,note_on,120,0,1,,,,,,,,,,,,,,,0,,,67,0
66840,note_on,0,0,1,,,,,,,,,,,,,,,0,,,77,100
66960,note_on,120,0,1,,,,,,,,,,,,,,,0,,,77,0
66960,note_on,0,0,1,,,,,,,,,,,,,,,0,,,75,100
67080,note_on,120,0,1,,,,,,,,,,,,,,,0,,,75,0
67080,note_on,0,0,1,,,,,,,,,,,,,,,0,,,74,100
67200,note_on,480,0,2,,,,,,,,,,,,,,,1,,,36,100
67200,note_on,0,0,1,,,,,,,,,,,,,,,0,,,75,100
67200,note_on,120,0,1,,,,,,,,,,,,,,,0,,,74,0
67320,note_on,0,0,1,,,,,,,,,,,,,,,0,,,74,100
67320,note_on,120,0,1,,,,,,,,,,,,,,,0,,,75,0
67440,note_on,120,0,1,,,,,,,,,,,,,,,0,,,74,0
67440,note_on,0,0,1,,,,,,,,,,,,,,,0,,,75,100
67560,note_on,120,0,1,,,,,,,,,,,,,,,0,,,75,0
67560,note_on,0,0,1,,,,,,,,,,,,,,,0,,,79,100
67680,note_on,120,0,1,,,,,,,,,,,,,,,0,,,79,0
67680,note_on,0,0,1,,,,,,,,,,,,,,,0,,,71,100
67680,note_on,480,0,2,,,,,,,,,,,,,,,1,,,36,0
67680,note_on,0,0,2,,,,,,,,,,,,,,,1,,,53,100
67800,note_on,120,0,1,,,,,,,,,,,,,,,0,,,71,0
67800,note_on,0,0,1,,,,,,,,,,,,,,,0,,,69,100
67920,note_on,120,0,1,,,,,,,,,,,,,,,0,,,69,0
67920,note_on,0,0,1,,,,,,,,,,,,,,,0,,,71,100
68040,note_on,120,0,1,,,,,,,,,,,,,,,0,,,71,0
68040,note_on,0,0,1,,,,,,,,,,,,,,,0,,,79,100
68160,note_on,0,0,2,,,,,,,,,,,,,,,1,,,51,100
68160,note_on,120,0,1,,,,,,,,,,,,,,,0,,,79,0
68160,note_on,0,0,1,,,,,,,,,,,,,,,0,,,72,100
68160,note_on,480,0,2,,,,,,,,,,,,,,,1,,,53,0
68280,note_on,120,0,1,,,,,,,,,,,,,,,0,,,72,0
68280,note_on,0,0,1,,,,,,,,,,,,,,,0,,,71,100
68400,note_on,0,0,1,,,,,,,,,,,,,,,0,,,72,100
68400,note_on,120,0,1,,,,,,,,,,,,,,,0,,,71,0
68520,note_on,120,0,1,,,,,,,,,,,,,,,0,,,72,0
68520,note_on,0,0,1,,,,,,,,,,,,,,,0,,,79,100
68640,note_on,0,0,1,,,,,,,,,,,,,,,0,,,74,100
68640,note_on,0,0,2,,,,,,,,,,,,,,,1,,,55,100
68640,note_on,480,0,2,,,,,,,,,,,,,,,1,,,51,0
68640,note_on,120,0,1,,,,,,,,,,,,,,,0,,,79,0
68760,note_on,0,0,1,,,,,,,,,,,,,,,0,,,72,100
68760,note_on,120,0,1,,,,,,,,,,,,,,,0,,,74,0
68880,note_on,0,0,1,,,,,,,,,,,,,,,0,,,74,100
68880,note_on,120,0,1,,,,,,,,,,,,,,,0,,,72,0
69000,note_on,0,0,1,,,,,,,,,,,,,,,0,,,77,100
69000,note_on,120,0,1,,,,,,,,,,,,,,,0,,,74,0
69120,note_on,120,0,1,,,,,,,,,,,,,,,0,,,77,0
69120,note_on,0,0,2,,,,,,,,,,,,,,,1,,,48,100
69120,note_on,480,0,2,,,,,,,,,,,,,,,1,,,55,0
69120,note_on,0,0,1,,,,,,,,,,,,,,,0,,,75,100
69240,note_on,120,0,1,,,,,,,,,,,,,,,0,,,75,0
69240,note_on,0,0,1,,,,,,,,,,,,,,,0,,,74,100
69360,note_on,0,0,1,,,,,,,,,,,,,,,0,,,72,100
69360,note_on,120,0,1,,,,,,,,,,,,,,,0,,,74,0
69480,note_on,120,0,1,,,,,,,,,,,,,,,0,,,72,0
69480,note_on,0,0,1,,,,,,,,,,,,,,,0,,,74,100
69600,note_on,480,0,2,,,,,,,,,,,,,,,1,,,48,0
69600,note_on,0,0,2,,,,,,,,,,,,,,,1,,,36,100
69600,note_on,120,0,1,,,,,,,,,,,,,,,0,,,74,0
69600,note_on,0,0,1,,,,,,,,,,,,,,,0,,,75,100
69720,note_on,0,0,1,,,,,,,,,,,,,,,0,,,72,100
69720,note_on,120,0,1,,,,,,,,,,,,,,,0,,,75,0
69840,note_on,0,0,1,,,,,,,,,,,,,,,0,,,75,100
69840,note_on,120,0,1,,,,,,,,,,,,,,,0,,,72,0
69960,note_on,120,0,1,,,,,,,,,,,,,,,0,,,75,0
69960,note_on,0,0,1,,,,,,,,,,,,,,,0,,,70,100
70080,note_on,120,0,1,,,,,,,,,,,,,,,0,,,70,0
70080,note_on,0,0,1,,,,,,,,,,,,,,,0,,,68,100
70080,note_on,480,0,2,,,,,,,,,,,,,,,1,,,36,0
70080,note_on,0,0,2,,,,,,,,,,,,,,,1,,,41,100
70200,note_on,120,0,1,,,,,,,,,,,,,,,0,,,68,0
70200,note_on,0,0,1,,,,,,,,,,,,,,,0,,,67,100
70320,note_on,0,0,1,,,,,,,,,,,,,,,0,,,68,100
70320,note_on,120,0,1,,,,,,,,,,,,,,,0,,,67,0
70320,note_on,240,0,2,,,,,,,,,,,,,,,1,,,41,0
70320,note_on,0,0,2,,,,,,,,,,,,,,,1,,,51,100
70440,note_on,120,0,1,,,,,,,,,,,,,,,0,,,68,0
70440,note_on,0,0,1,,,,,,,,,,,,,,,0,,,79,100
70560,note_on,0,0,2,,,,,,,,,,,,,,,1,,,50,100
70560,note_on,240,0,2,,,,,,,,,,,,,,,1,,,51,0
70560,note_on,0,0,1,,,,,,,,,,,,,,,0,,,68,100
70560,note_on,120,0,1,,,,,,,,,,,,,,,0,,,79,0
70680,note_on,0,0,1,,,,,,,,,,,,,,,0,,,77,100
70680,note_on,120,0,1,,,,,,,,,,,,,,,0,,,68,0
70800,note_on,120,0,1,,,,,,,,,,,,,,,0,,,77,0
70800,note_on,0,0,1,,,,,,,,,,,,,,,0,,,68,100
70800,note_on,0,0,2,,,,,,,,,,,,,,,1,,,48,100
70800,note_on,240,0,2,,,,,,,,,,,,,,,1,,,50,0
70920,note_on,120,0,1,,,,,,,,,,,,,,,0,,,68,0
70920,note_on,0,0,1,,,,,,,,,,,,,,,0,,,75,100
71040,note_on,0,0,1,,,,,,,,,,,,,,,0,,,74,100
71040,note_on,0,0,2,,,,,,,,,,,,,,,1,,,46,100
71040,note_on,240,0,2,,,,,,,,,,,,,,,1,,,48,0
71040,note_on,120,0,1,,,,,,,,,,,,,,,0,,,75,0
71160,note_on,0,0,1,,,,,,,,,,,,,,,0,,,72,100
71160,note_on,120,0,1,,,,,,,,,,,,,,,0,,,74,0
71280,note_on,0,0,1,,,,,,,,,,,,,,,0,,,70,100
71280,note_on,120,0,1,,,,,,,,,,,,,,,0,,,72,0
71400,note_on,0,0,1,,,,,,,,,,,,,,,0,,,72,100
71400,note_on,120,0,1,,,,,,,,,,,,,,,0,,,70,0
71520,note_on,0,0,1,,,,,,,,,,,,,,,0,,,74,100
71520,note_on,120,0,1,,,,,,,,,,,,,,,0,,,72,0
71520,note_on,480,0,2,,,,,,,,,,,,,,,1,,,46,0
71520,note_on,0,0,2,,,,,,,,,,,,,,,1,,,34,100
71640,note_on,0,0,1,,,,,,,,,,,,,,,0,,,70,100
71640,note_on,120,0,1,,,,,,,,,,,,,,,0,,,74,0
71760,note_on,120,0,1,,,,,,,,,,,,,,,0,,,70,0
71760,note_on,0,0,1,,,,,,,,,,,,,,,0,,,74,100
71880,note_on,120,0,1,,,,,,,,,,,,,,,0,,,74,0
71880,note_on,0,0,1,,,,,,,,,,,,,,,0,,,68,100
72000,note_on,120,0,1,,,,,,,,,,,,,,,0,,,68,0
72000,note_on,0,0,1,,,,,,,,,,,,,,,0,,,67,100
72000,note_on,0,0,2,,,,,,,,,,,,,,,1,,,39,100
72000,note_on,480,0,2,,,,,,,,,,,,,,,1,,,34,0
72120,note_on,120,0,1,,,,,,,,,,,,,,,0,,,67,0
72120,note_on,0,0,1,,,,,,,,,,,,,,,0,,,65,100
72240,note_on,120,0,1,,,,,,,,,,,,,,,0,,,65,0
72240,note_on,0,0,1,,,,,,,,,,,,,,,0,,,67,100
72240,note_on,0,0,2,,,,,,,,,,,,,,,1,,,50,100
72240,note_on,240,0,2,,,,,,,,,,,,,,,1,,,39,0
72360,note_on,120,0,1,,,,,,,,,,,,,,,0,,,67,0
72360,note_on,0,0,1,,,,,,,,,,,,,,,0,,,77,100
72480,note_on,120,0,1,,,,,,,,,,,,,,,0,,,77,0
72480,note_on,0,0,2,,,,,,,,,,,,,,,1,,,48,100
72480,note_on,0,0,1,,,,,,,,,,,,,,,0,,,67,100
72480,note_on,240,0,2,,,,,,,,,,,,,,,1,,,50,0
72600,note_on,120,0,1,,,,,,,,,,,,,,,0,,,67,0
72600,note_on,0,0,1,,,,,,,,,,,,,,,0,,,75,100
72720,note_on,120,0,1,,,,,,,,,,,,,,,0,,,75,0
72720,note_on,0,0,1,,,,,,,,,,,,,,,0,,,67,100
72720,note_on,0,0,2,,,,,,,,,,,,,,,1,,,46,100
72720,note_on,240,0,2,,,,,,,,,,,,,,,1,,,48,0
72840,note_on,120,0,1,,,,,,,,,,,,,,,0,,,67,0
72840,note_on,0,0,1,,,,,,,,,,,,,,,0,,,74,100
72960,note_on,120,0,1,,,,,,,,,,,,,,,0,,,74,0
72960,note_on,0,0,1,,,,,,,,,,,,,,,0,,,72,100
72960,note_on,240,0,2,,,,,,,,,,,,,,,1,,,46,0
72960,note_on,0,0,2,,,,,,,,,,,,,,,1,,,44,100
73080,note_on,120,0,1,,,,,,,,,,,,,,,0,,,72,0
73080,note_on,0,0,1,,,,,,,,,,,,,,,0,,,70,100
73200,note_on,0,0,2,,,,,,,,,,,,,,,1,,,43,100
73200,note_on,0,0,1,,,,,,,,,,,,,,,0,,,68,100
73200,note_on,120,0,1,,,,,,,,,,,,,,,0,,,70,0
73200,note_on,240,0,2,,,,,,,,,,,,,,,1,,,44,0
73320,note_on,0,0,1,,,,,,,,,,,,,,,0,,,70,100
73320,note_on,120,0,1,,,,,,,,,,,,,,,0,,,68,0
73440,note_on,0,0,1,,,,,,,,,,,,,,,0,,,72,100
73440,note_on,0,0,2,,,,,,,,,,,,,,,1,,,41,100
73440,note_on,240,0,2,,,,,,,,,,,,,,,1,,,43,0
73440,note_on,120,0,1,,,,,,,,,,,,,,,0,,,70,0
73560,note_on,120,0,1,,,,,,,,,,,,,,,0,,,72,0
73560,note_on,0,0,1,,,,,,,,,,,,,,,0,,,68,100
73680,note_on,0,0,1,,,,,,,,,,,,,,,0,,,72,100
73680,note_on,120,0,1,,,,,,,,,,,,,,,0,,,68,0
73680,note_on,240,0,2,,,,,,,,,,,,,,,1,,,41,0
73680,note_on,0,0,2,,,,,,,,,,,,,,,1,,,39,100
73800,note_on,120,0,1,,,,,,,,,,,,,,,0,,,72,0
73800,note_on,0,0,1,,,,,,,,,,,,,,,0,,,67,100
73920,note_on,240,0,2,,,,,,,,,,,,,,,1,,,39,0
73920,note_on,0,0,2,,,,,,,,,,,,,,,1,,,38,100
73920,note_on,120,0,1,,,,,,,,,,,,,,,0,,,67,0
73920,note_on,0,0,1,,,,,,,,,,,,,,,0,,,66,100
74040,note_on,120,0,1,,,,,,,,,,,,,,,0,,,66,0
74040,note_on,0,0,1,,,,,,,,,,,,,,,0,,,64,100
74160,note_on,0,0,2,,,,,,,,,,,,,,,1,,,48,100
74160,note_on,0,0,1,,,,,,,,,,,,,,,0,,,66,100
74160,note_on,120,0,1,,,,,,,,,,,,,,,0,,,64,0
74160,note_on,240,0,2,,,,,,,,,,,,,,,1,,,38,0
74280,note_on,0,0,1,,,,,,,,,,,,,,,0,,,75,100
74280,note_on,120,0,1,,,,,,,,,,,,,,,0,,,66,0
74400,note_on,240,0,2,,,,,,,,,,,,,,,1,,,48,0
74400,note_on,0,0,2,,,,,,,,,,,,,,,1,,,45,100
74400,note_on,120,0,1,,,,,,,,,,,,,,,0,,,75,0
74400,note_on,0,0,1,,,,,,,,,,,,,,,0,,,66,100
74520,note_on,0,0,1,,,,,,,,,,,,,,,0,,,74,100
74520,note_on,120,0,1,,,,,,,,,,,,,,,0,,,66,0
74640,note_on,0,0,1,,,,,,,,,,,,,,,0,,,66,100
74640,note_on,120,0,1,,,,,,,,,,,,,,,0,,,74,0
74640,note_on,240,0,2,,,,,,,,,,,,,,,1,,,45,0
74640,note_on,0,0,2,,,,,,,,,,,,,,,1,,,50,100
74760,note_on,120,0,1,,,,,,,,,,,,,,,0,,,66,0
74760,note_on,0,0,1,,,,,,,,,,,,,,,0,,,72,100
74880,note_on,120,0,1,,,,,,,,,,,,,,,0,,,72,0
74880,note_on,0,0,1,,,,,,,,,,,,,,,0,,,71,100
74880,note_on,240,0,2,,,,,,,,,,,,,,,1,,,50,0
74880,note_on,0,0,2,,,,,,,,,,,,,,,1,,,43,100
75000,note_on,0,0,1,,,,,,,,,,,,,,,0,,,80,100
75000,note_on,120,0,1,,,,,,,,,,,,,,,0,,,71,0
75120,note_on,120,0,1,,,,,,,,,,,,,,,0,,,80,0
75120,note_on,0,0,1,,,,,,,,,,,,,,,0,,,79,100
75240,note_on,120,0,1,,,,,,,,,,,,,,,0,,,79,0
75240,note_on,0,0,1,,,,,,,,,,,,,,,0,,,77,100
75360,note_on,0,0,2,,,,,,,,,,,,,,,1,,,43,100
75360,note_on,120,0,1,,,,,,,,,,,,,,,0,,,77,0
75360,note_on,0,0,1,,,,,,,,,,,,,,,0,,,86,100
75360,note_on,480,0,2,,,,,,,,,,,,,,,1,,,43,0
75480,note_on,120,0,1,,,,,,,,,,,,,,,0,,,86,0
75480,note_on,0,0,1,,,,,,,,,,,,,,,0,,,80,100
75600,note_on,0,0,1,,,,,,,,,,,,,,,0,,,79,100
75600,note_on,120,0,1,,,,,,,,,,,,,,,0,,,80,0
75720,note_on,120,0,1,,,,,,,,,,,,,,,0,,,79,0
75720,note_on,0,0,1,,,,,,,,,,,,,,,0,,,77,100
75840,note_on,120,0,1,,,,,,,,,,,,,,,0,,,77,0
75840,note_on,480,0,2,,,,,,,,,,,,,,,1,,,43,0
75840,note_on,0,0,2,,,,,,,,,,,,,,,1,,,43,100
75840,note_on,0,0,1,,,,,,,,,,,,,,,0,,,71,100
75960,note_on,120,0,1,,,,,,,,,,,,,,,0,,,71,0
75960,note_on,0,0,1,,,,,,,,,,,,,,,0,,,80,100
76080,note_on,120,0,1,,,,,,,,,,,,,,,0,,,80,0
76080,note_on,0,0,1,,,,,,,,,,,,,,,0,,,79,100
76200,note_on,120,0,1,,,,,,,,,,,,,,,0,,,79,0
76200,note_on,0,0,1,,,,,,,,,,,,,,,0,,,77,100
76320,note_on,480,0,2,,,,,,,,,,,,,,,1,,,43,0
76320,note_on,0,0,1,,,,,,,,,,,,,,,0,,,86,100
76320,note_on,120,0,1,,,,,,,,,,,,,,,0,,,77,0
76440,note_on,0,0,1,,,,,,,,,,,,,,,0,,,80,100
76440,note_on,120,0,1,,,,,,,,,,,,,,,0,,,86,0
76560,note_on,120,0,1,,,,,,,,,,,,,,,0,,,80,0
76560,note_on,0,0,1,,,,,,,,,,,,,,,0,,,79,100
76680,note_on,0,0,1,,,,,,,,,,,,,,,0,,,77,100
76680,note_on,120,0,1,,,,,,,,,,,,,,,0,,,79,0
76800,note_on,0,0,1,,,,,,,,,,,,,,,0,,,76,100
76800,note_on,120,0,1,,,,,,,,,,,,,,,0,,,77,0
76800,note_on,480,0,2,,,,,,,,,,,,,,,1,,,36,100
76920,note_on,120,0,1,,,,,,,,,,,,,,,0,,,76,0
76920,note_on,0,0,1,,,,,,,,,,,,,,,0,,,73,100
77040,note_on,120,0,1,,,,,,,,,,,,,,,0,,,73,0
77040,note_on,0,0,1,,,,,,,,,,,,,,,0,,,72,100
77160,note_on,0,0,1,,,,,,,,,,,,,,,0,,,70,100
77160,note_on,120,0,1,,,,,,,,,,,,,,,0,,,72,0
77280,note_on,120,0,1,,,,,,,,,,,,,,,0,,,70,0
77280,note_on,0,0,2,,,,,,,,,,,,,,,1,,,36,100
77280,note_on,480,0,2,,,,,,,,,,,,,,,1,,,36,0
77280,note_on,0,0,1,,,,,,,,,,,,,,,0,,,79,100
77400,note_on,0,0,1,,,,,,,,,,,,,,,0,,,73,100
77400,note_on,120,0,1,,,,,,,,,,,,,,,0,,,79,0
77520,note_on,0,0,1,,,,,,,,,,,,,,,0,,,72,100
77520,note_on,120,0,1,,,,,,,,,,,,,,,0,,,73,0
77640,note_on,0,0,1,,,,,,,,,,,,,,,0,,,70,100
77640,note_on,120,0,1,,,,,,,,,,,,,,,0,,,72,0
77760,note_on,0,0,2,,,,,,,,,,,,,,,1,,,36,100
77760,note_on,480,0,2,,,,,,,,,,,,,,,1,,,36,0
77760,note_on,120,0,1,,,,,,,,,,,,,,,0,,,70,0
77760,note_on,0,0,1,,,,,,,,,,,,,,,0,,,64,100
77880,note_on,0,0,1,,,,,,,,,,,,,,,0,,,73,100
77880,note_on,120,0,1,,,,,,,,,,,,,,,0,,,64,0
78000,note_on,120,0,1,,,,,,,,,,,,,,,0,,,73,0
78000,note_on,0,0,1,,,,,,,,,,,,,,,0,,,72,100
78120,note_on,120,0,1,,,,,,,,,,,,,,,0,,,72,0
78120,note_on,0,0,1,,,,,,,,,,,,,,,0,,,70,100
78240,note_on,480,0,2,,,,,,,,,,,,,,,1,,,36,0
78240,note_on,120,0,1,,,,,,,,,,,,,,,0,,,70,0
78240,note_on,0,0,1,,,,,,,,,,,,,,,0,,,79,100
78360,note_on,120,0,1,,,,,,,,,,,,,,,0,,,79,0
78360,note_on,0,0,1,,,,,,,,,,,,,,,0,,,73,100
78480,note_on,0,0,1,,,,,,,,,,,,,,,0,,,72,100
78480,note_on,120,0,1,,,,,,,,,,,,,,,0,,,73,0
78600,note_on,0,0,1,,,,,,,,,,,,,,,0,,,70,100
78600,note_on,120,0,1,,,,,,,,,,,,,,,0,,,72,0
78720,note_on,120,0,1,,,,,,,,,,,,,,,0,,,70,0
78720,note_on,0,0,1,,,,,,,,,,,,,,,0,,,69,100
78720,note_on,480,0,2,,,,,,,,,,,,,,,1,,,41,100
78840,note_on,0,0,1,,,,,,,,,,,,,,,0,,,78,100
78840,note_on,120,0,1,,,,,,,,,,,,,,,0,,,69,0
78960,note_on,120,0,1,,,,,,,,,,,,,,,0,,,78,0
78960,note_on,0,0,1,,,,,,,,,,,,,,,0,,,77,100
79080,note_on,0,0,1,,,,,,,,,,,,,,,0,,,75,100
79080,note_on,120,0,1,,,,,,,,,,,,,,,0,,,77,0
79200,note_on,0,0,1,,,,,,,,,,,,,,,0,,,84,100
79200,note_on,0,0,2,,,,,,,,,,,,,,,1,,,41,100
79200,note_on,480,0,2,,,,,,,,,,,,,,,1,,,41,0
79200,note_on,120,0,1,,,,,,,,,,,,,,,0,,,75,0
79320,note_on,120,0,1,,,,,,,,,,,,,,,0,,,84,0
79320,note_on,0,0,1,,,,,,,,,,,,,,,0,,,78,100
79440,note_on,120,0,1,,,,,,,,,,,,,,,0,,,78,0
79440,note_on,0,0,1,,,,,,,,,,,,,,,0,,,77,100
79560,note_on,120,0,1,,,,,,,,,,,,,,,0,,,77,0
79560,note_on,0,0,1,,,,,,,,,,,,,,,0,,,75,100
79680,note_on,120,0,1,,,,,,,,,,,,,,,0,,,75,0
79680,note_on,480,0,2,,,,,,,,,,,,,,,1,,,41,0
79680,note_on,0,0,2,,,,,,,,,,,,,,,1,,,41,100
79680,note_on,0,0,1,,,,,,,,,,,,,,,0,,,69,100
79800,note_on,120,0,1,,,,,,,,,,,,,,,0,,,69,0
79800,note_on,0,0,1,,,,,,,,,,,,,,,0,,,78,100
79920,note_on,120,0,1,,,,,,,,,,,,,,,0,,,78,0
79920,note_on,0,0,1,,,,,,,,,,,,,,,0,,,77,100
80040,note_on,0,0,1,,,,,,,,,,,,,,,0,,,75,100
80040,note_on,120,0,1,,,,,,,,,,,,,,,0,,,77,0
80160,note_on,120,0,1,,,,,,,,,,,,,,,0,,,75,0
80160,note_on,0,0,1,,,,,,,,,,,,,,,0,,,84,100
80160,note_on,480,0,2,,,,,,,,,,,,,,,1,,,41,0
80280,note_on,0,0,1,,,,,,,,,,,,,,,0,,,78,100
80280,note_on,120,0,1,,,,,,,,,,,,,,,0,,,84,0
80400,note_on,120,0,1,,,,,,,,,,,,,,,0,,,78,0
80400,note_on,0,0,1,,,,,,,,,,,,,,,0,,,77,100
80520,note_on,120,0,1,,,,,,,,,,,,,,,0,,,77,0
80520,note_on,0,0,1,,,,,,,,,,,,,,,0,,,75,100
80640,note_on,480,0,2,,,,,,,,,,,,,,,1,,,34,100
80640,note_on,120,0,1,,,,,,,,,,,,,,,0,,,75,0
80640,note_on,0,0,1,,,,,,,,,,,,,,,0,,,74,100
80760,note_on,0,0,1,,,,,,,,,,,,,,,0,,,71,100
80760,note_on,120,0,1,,,,,,,,,,,,,,,0,,,74,0
80880,note_on,0,0,1,,,,,,,,,,,,,,,0,,,70,100
80880,note_on,120,0,1,,,,,,,,,,,,,,,0,,,71,0
81000,note_on,0,0,1,,,,,,,,,,,,,,,0,,,68,100
81000,note_on,120,0,1,,,,,,,,,,,,,,,0,,,70,0
81120,note_on,0,0,2,,,,,,,,,,,,,,,1,,,34,100
81120,note_on,480,0,2,,,,,,,,,,,,,,,1,,,34,0
81120,note_on,120,0,1,,,,,,,,,,,,,,,0,,,68,0
81120,note_on,0,0,1,,,,,,,,,,,,,,,0,,,77,100
81240,note_on,0,0,1,,,,,,,,,,,,,,,0,,,71,100
81240,note_on,120,0,1,,,,,,,,,,,,,,,0,,,77,0
81360,note_on,120,0,1,,,,,,,,,,,,,,,0,,,71,0
81360,note_on,0,0,1,,,,,,,,,,,,,,,0,,,70,100
81480,note_on,120,0,1,,,,,,,,,,,,,,,0,,,70,0
81480,note_on,0,0,1,,,,,,,,,,,,,,,0,,,68,100
81600,note_on,480,0,2,,,,,,,,,,,,,,,1,,,34,0
81600,note_on,0,0,2,,,,,,,,,,,,,,,1,,,34,100
81600,note_on,120,0,1,,,,,,,,,,,,,,,0,,,68,0
81600,note_on,0,0,1,,,,,,,,,,,,,,,0,,,62,100
81720,note_on,0,0,1,,,,,,,,,,,,,,,0,,,71,100
81720,note_on,120,0,1,,,,,,,,,,,,,,,0,,,62,0
81840,note_on,0,0,1,,,,,,,,,,,,,,,0,,,70,100
81840,note_on,120,0,1,,,,,,,,,,,,,,,0,,,71,0
81960,note_on,120,0,1,,,,,,,,,,,,,,,0,,,70,0
81960,note_on,0,0,1,,,,,,,,,,,,,,,0,,,68,100
82080,note_on,0,0,1,,,,,,,,,,,,,,,0,,,77,100
82080,note_on,480,0,2,,,,,,,,,,,,,,,1,,,34,0
82080,note_on,120,0,1,,,,,,,,,,,,,,,0,,,68,0
82200,note_on,120,0,1,,,,,,,,,,,,,,,0,,,77,0
82200,note_on,0,0,1,,,,,,,,,,,,,,,0,,,71,100
82320,note_on,0,0,1,,,,,,,,,,,,,,,0,,,70,100
82320,note_on,120,0,1,,,,,,,,,,,,,,,0,,,71,0
82440,note_on,120,0,1,,,,,,,,,,,,,,,0,,,70,0
82440,note_on,0,0,1,,,,,,,,,,,,,,,0,,,68,100
82560,note_on,480,0,2,,,,,,,,,,,,,,,1,,,39,100
82560,note_on,0,0,1,,,,,,,,,,,,,,,0,,,67,100
82560,note_on,120,0,1,,,,,,,,,,,,,,,0,,,68,0
82680,note_on,120,0,1,,,,,,,,,,,,,,,0,,,67,0
82680,note_on,0,0,1,,,,,,,,,,,,,,,0,,,76,100
82800,note_on,0,0,1,,,,,,,,,,,,,,,0,,,75,100
82800,note_on,120,0,1,,,,,,,,,,,,,,,0,,,76,0
82920,note_on,0,0,1,,,,,,,,,,,,,,,0,,,73,100
82920,note_on,120,0,1,,,,,,,,,,,,,,,0,,,75,0
83040,note_on,120,0,1,,,,,,,,,,,,,,,0,,,73,0
83040,note_on,0,0,2,,,,,,,,,,,,,,,1,,,39,100
83040,note_on,0,0,1,,,,,,,,,,,,,,,0,,,82,100
83040,note_on,480,0,2,,,,,,,,,,,,,,,1,,,39,0
83160,note_on,120,0,1,,,,,,,,,,,,,,,0,,,82,0
83160,note_on,0,0,1,,,,,,,,,,,,,,,0,,,76,100
83280,note_on,120,0,1,,,,,,,,,,,,,,,0,,,76,0
83280,note_on,0,0,1,,,,,,,,,,,,,,,0,,,75,100
83400,note_on,120,0,1,,,,,,,,,,,,,,,0,,,75,0
83400,note_on,0,0,1,,,,,,,,,,,,,,,0,,,73,100
83520,note_on,0,0,1,,,,,,,,,,,,,,,0,,,67,100
83520,note_on,120,0,1,,,,,,,,,,,,,,,0,,,73,0
83520,note_on,0,0,2,,,,,,,,,,,,,,,1,,,39,100
83520,note_on,480,0,2,,,,,,,,,,,,,,,1,,,39,0
83640,note_on,120,0,1,,,,,,,,,,,,,,,0,,,67,0
83640,note_on,0,0,1,,,,,,,,,,,,,,,0,,,76,100
83760,note_on,120,0,1,,,,,,,,,,,,,,,0,,,76,0
83760,note_on,0,0,1,,,,,,,,,,,,,,,0,,,75,100
83880,note_on,120,0,1,,,,,,,,,,,,,,,0,,,75,0
83880,note_on,0,0,1,,,,,,,,,,,,,,,0,,,73,100
84000,note_on,480,0,2,,,,,,,,,,,,,,,1,,,39,0
84000,note_on,0,0,1,,,,,,,,,,,,,,,0,,,82,100
84000,note_on,120,0,1,,,,,,,,,,,,,,,0,,,73,0
84120,note_on,120,0,1,,,,,,,,,,,,,,,0,,,82,0
84120,note_on,0,0,1,,,,,,,,,,,,,,,0,,,76,100
84240,note_on,120,0,1,,,,,,,,,,,,,,,0,,,76,0
84240,note_on,0,0,1,,,,,,,,,,,,,,,0,,,75,100
84360,note_on,120,0,1,,,,,,,,,,,,,,,0,,,75,0
84360,note_on,0,0,1,,,,,,,,,,,,,,,0,,,73,100
84480,note_on,0,0,1,,,,,,,,,,,,,,,0,,,72,100
84480,note_on,480,0,2,,,,,,,,,,,,,,,1,,,32,100
84480,note_on,120,0,1,,,,,,,,,,,,,,,0,,,73,0
84600,note_on,120,0,1,,,,,,,,,,,,,,,0,,,72,0
84600,note_on,0,0,1,,,,,,,,,,,,,,,0,,,71,100
84720,note_on,120,0,1,,,,,,,,,,,,,,,0,,,71,0
84720,note_on,0,0,1,,,,,,,,,,,,,,,0,,,72,100
84840,note_on,0,0,1,,,,,,,,,,,,,,,0,,,76,100
84840,note_on,120,0,1,,,,,,,,,,,,,,,0,,,72,0
84960,note_on,120,0,1,,,,,,,,,,,,,,,0,,,76,0
84960,note_on,0,0,1,,,,,,,,,,,,,,,0,,,77,100
84960,note_on,480,0,2,,,,,,,,,,,,,,,1,,,32,0
84960,note_on,0,0,2,,,,,,,,,,,,,,,1,,,44,100
85200,note_on,240,0,1,,,,,,,,,,,,,,,0,,,77,0
85200,note_on,0,0,1,,,,,,,,,,,,,,,0,,,80,100
85440,note_on,480,0,2,,,,,,,,,,,,,,,1,,,44,0
85440,note_on,0,0,2,,,,,,,,,,,,,,,1,,,38,100
85560,note_on,360,0,1,,,,,,,,,,,,,,,0,,,80,0
85560,note_on,0,0,1,,,,,,,,,,,,,,,0,,,72,100
85680,note_on,120,0,1,,,,,,,,,,,,,,,0,,,72,0
85680,note_on,0,0,1,,,,,,,,,,,,,,,0,,,71,100
85920,note_on,0,0,2,,,,,,,,,,,,,,,1,,,53,100
85920,note_on,480,0,2,,,,,,,,,,,,,,,1,,,38,0
86040,note_on,360,0,1,,,,,,,,,,,,,,,0,,,71,0
86040,note_on,0,0,1,,,,,,,,,,,,,,,0,,,72,100
86160,note_on,120,0,1,,,,,,,,,,,,,,,0,,,72,0
86160,note_on,0,0,1,,,,,,,,,,,,,,,0,,,74,100
86280,note_on,0,0,1,,,,,,,,,,,,,,,0,,,75,100
86280,note_on,120,0,1,,,,,,,,,,,,,,,0,,,74,0
86400,note_on,120,0,1,,,,,,,,,,,,,,,0,,,75,0
86400,note_on,0,0,1,,,,,,,,,,,,,,,0,,,77,100
86400,note_on,480,0,2,,,,,,,,,,,,,,,1,,,53,0
86400,note_on,0,0,2,,,,,,,,,,,,,,,1,,,47,100
86520,note_on,120,0,1,,,,,,,,,,,,,,,0,,,77,0
86520,note_on,0,0,1,,,,,,,,,,,,,,,0,,,68,100
86640,note_on,120,0,1,,,,,,,,,,,,,,,0,,,68,0
86640,note_on,0,0,1,,,,,,,,,,,,,,,0,,,67,100
86880,note_on,0,0,2,,,,,,,,,,,,,,,1,,,50,100
86880,note_on,480,0,2,,,,,,,,,,,,,,,1,,,47,0
87000,note_on,360,0,1,,,,,,,,,,,,,,,0,,,67,0
87000,note_on,0,0,1,,,,,,,,,,,,,,,0,,,69,100
87120,note_on,0,0,1,,,,,,,,,,,,,,,0,,,71,100
87120,note_on,120,0,1,,,,,,,,,,,,,,,0,,,69,0
87240,note_on,0,0,1,,,,,,,,,,,,,,,0,,,72,100
87240,note_on,120,0,1,,,,,,,,,,,,,,,0,,,71,0
87360,note_on,120,0,1,,,,,,,,,,,,,,,0,,,72,0
87360,note_on,0,0,1,,,,,,,,,,,,,,,0,,,74,100
87360,note_on,480,0,2,,,,,,,,,,,,,,,1,,,50,0
87360,note_on,0,0,2,,,,,,,,,,,,,,,1,,,43,100
87480,note_on,0,0,1,,,,,,,,,,,,,,,0,,,64,100
87480,note_on,120,0,1,,,,,,,,,,,,,,,0,,,74,0
87600,note_on,0,0,1,,,,,,,,,,,,,,,0,,,65,100
87600,note_on,120,0,1,,,,,,,,,,,,,,,0,,,64,0
87840,note_on,480,0,2,,,,,,,,,,,,,,,1,,,43,0
87840,note_on,0,0,2,,,,,,,,,,,,,,,1,,,47,100
87960,note_on,360,0,1,,,,,,,,,,,,,,,0,,,65,0
87960,note_on,0,0,1,,,,,,,,,,,,,,,0,,,68,100
88080,note_on,120,0,1,,,,,,,,,,,,,,,0,,,68,0
88080,note_on,0,0,1,,,,,,,,,,,,,,,0,,,67,100
88200,note_on,120,0,1,,,,,,,,,,,,,,,0,,,67,0
88200,note_on,0,0,1,,,,,,,,,,,,,,,0,,,65,100
88320,note_on,0,0,2,,,,,,,,,,,,,,,1,,,48,100
88320,note_on,480,0,2,,,,,,,,,,,,,,,1,,,47,0
88320,note_on,0,0,1,,,,,,,,,,,,,,,0,,,63,100
88320,note_on,120,0,1,,,,,,,,,,,,,,,0,,,65,0
88440,note_on,0,0,1,,,,,,,,,,,,,,,0,,,67,100
88440,note_on,120,0,1,,,,,,,,,,,,,,,0,,,63,0
88560,note_on,0,0,1,,,,,,,,,,,,,,,0,,,72,100
88560,note_on,120,0,1,,,,,,,,,,,,,,,0,,,67,0
88680,note_on,0,0,1,,,,,,,,,,,,,,,0,,,71,100
88680,note_on,120,0,1,,,,,,,,,,,,,,,0,,,72,0
88800,note_on,0,0,2,,,,,,,,,,,,,,,1,,,43,100
88800,note_on,0,0,1,,,,,,,,,,,,,,,0,,,72,100
88800,note_on,480,0,2,,,,,,,,,,,,,,,1,,,48,0
88800,note_on,120,0,1,,,,,,,,,,,,,,,0,,,71,0
88920,note_on,0,0,1,,,,,,,,,,,,,,,0,,,67,100
88920,note_on,120,0,1,,,,,,,,,,,,,,,0,,,72,0
89040,note_on,0,0,1,,,,,,,,,,,,,,,0,,,68,100
89040,note_on,120,0,1,,,,,,,,,,,,,,,0,,,67,0
89160,note_on,120,0,1,,,,,,,,,,,,,,,0,,,68,0
89160,note_on,0,0,1,,,,,,,,,,,,,,,0,,,66,100
89280,note_on,0,0,1,,,,,,,,,,,,,,,0,,,67,100
89280,note_on,0,0,2,,,,,,,,,,,,,,,1,,,47,100
89280,note_on,480,0,2,,,,,,,,,,,,,,,1,,,43,0
89280,note_on,120,0,1,,,,,,,,,,,,,,,0,,,66,0
89400,note_on,120,0,1,,,,,,,,,,,,,,,0,,,67,0
89400,note_on,0,0,1,,,,,,,,,,,,,,,0,,,71,100
89520,note_on,120,0,1,,,,,,,,,,,,,,,0,,,71,0
89520,note_on,0,0,1,,,,,,,,,,,,,,,0,,,74,100
89640,note_on,0,0,1,,,,,,,,,,,,,,,0,,,72,100
89640,note_on,120,0,1,,,,,,,,,,,,,,,0,,,74,0
89760,note_on,120,0,1,,,,,,,,,,,,,,,0,,,72,0
89760,note_on,480,0,2,,,,,,,,,,,,,,,1,,,47,0
89760,note_on,0,0,2,,,,,,,,,,,,,,,1,,,43,100
89760,note_on,0,0,1,,,,,,,,,,,,,,,0,,,74,100
89880,note_on,0,0,1,,,,,,,,,,,,,,,0,,,67,100
89880,note_on,120,0,1,,,,,,,,,,,,,,,0,,,74,0
90000,note_on,0,0,1,,,,,,,,,,,,,,,0,,,68,100
90000,note_on,120,0,1,,,,,,,,,,,,,,,0,,,67,0
90120,note_on,0,0,1,,,,,,,,,,,,,,,0,,,66,100
90120,note_on,120,0,1,,,,,,,,,,,,,,,0,,,68,0
90240,note_on,0,0,2,,,,,,,,,,,,,,,1,,,48,100
90240,note_on,0,0,1,,,,,,,,,,,,,,,0,,,67,100
90240,note_on,120,0,1,,,,,,,,,,,,,,,0,,,66,0
90240,note_on,480,0,2,,,,,,,,,,,,,,,1,,,43,0
90360,note_on,0,0,1,,,,,,,,,,,,,,,0,,,72,100
90360,note_on,120,0,1,,,,,,,,,,,,,,,0,,,67,0
90480,note_on,0,0,1,,,,,,,,,,,,,,,0,,,75,100
90480,note_on,120,0,1,,,,,,,,,,,,,,,0,,,72,0
90600,note_on,0,0,1,,,,,,,,,,,,,,,0,,,74,100
90600,note_on,120,0,1,,,,,,,,,,,,,,,0,,,75,0
90720,note_on,480,0,2,,,,,,,,,,,,,,,1,,,48,0
90720,note_on,120,0,1,,,,,,,,,,,,,,,0,,,74,0
90720,note_on,0,0,1,,,,,,,,,,,,,,,0,,,75,100
90720,note_on,0,0,2,,,,,,,,,,,,,,,1,,,43,100
90840,note_on,120,0,1,,,,,,,,,,,,,,,0,,,75,0
90840,note_on,0,0,1,,,,,,,,,,,,,,,0,,,67,100
90960,note_on,120,0,1,,,,,,,,,,,,,,,0,,,67,0
90960,note_on,0,0,1,,,,,,,,,,,,,,,0,,,68,100
91080,note_on,120,0,1,,,,,,,,,,,,,,,0,,,68,0
91080,note_on,0,0,1,,,,,,,,,,,,,,,0,,,66,100
91200,note_on,480,0,2,,,,,,,,,,,,,,,1,,,43,0
91200,note_on,0,0,2,,,,,,,,,,,,,,,1,,,47,100
91200,note_on,0,0,1,,,,,,,,,,,,,,,0,,,67,100
91200,note_on,120,0,1,,,,,,,,,,,,,,,0,,,66,0
91320,note_on,0,0,1,,,,,,,,,,,,,,,0,,,74,100
91320,note_on,120,0,1,,,,,,,,,,,,,,,0,,,67,0
91440,note_on,0,0,1,,,,,,,,,,,,,,,0,,,77,100
91440,note_on,120,0,1,,,,,,,,,,,,,,,0,,,74,0
91680,note_on,480,0,2,,,,,,,,,,,,,,,1,,,47,0
91680,note_on,0,0,2,,,,,,,,,,,,,,,1,,,43,100
91800,note_on,360,0,1,,,,,,,,,,,,,,,0,,,77,0
91800,note_on,0,0,1,,,,,,,,,,,,,,,0,,,80,100
91920,note_on,0,0,1,,,,,,,,,,,,,,,0,,,79,100
91920,note_on,120,0,1,,,,,,,,,,,,,,,0,,,80,0
92040,note_on,0,0,1,,,,,,,,,,,,,,,0,,,77,100
92040,note_on,120,0,1,,,,,,,,,,,,,,,0,,,79,0
92160,note_on,0,0,2,,,,,,,,,,,,,,,1,,,48,100
92160,note_on,480,0,2,,,,,,,,,,,,,,,1,,,43,0
92160,note_on,120,0,1,,,,,,,,,,,,,,,0,,,77,0
92160,note_on,0,0,1,,,,,,,,,,,,,,,0,,,75,100
92280,note_on,120,0,1,,,,,,,,,,,,,,,0,,,75,0
92280,note_on,0,0,1,,,,,,,,,,,,,,,0,,,79,100
92400,note_on,0,0,1,,,,,,,,,,,,,,,0,,,84,100
92400,note_on,120,0,1,,,,,,,,,,,,,,,0,,,79,0
92400,note_on,240,0,2,,,,,,,,,,,,,,,1,,,48,0
92400,note_on,0,0,2,,,,,,,,,,,,,,,1,,,44,100
92520,note_on,0,0,1,,,,,,,,,,,,,,,0,,,86,100
92520,note_on,120,0,1,,,,,,,,,,,,,,,0,,,84,0
92640,note_on,0,0,1,,,,,,,,,,,,,,,0,,,87,100
92640,note_on,240,0,2,,,,,,,,,,,,,,,1,,,44,0
92640,note_on,0,0,2,,,,,,,,,,,,,,,1,,,41,100
92640,note_on,120,0,1,,,,,,,,,,,,,,,0,,,86,0
92880,note_on,0,0,2,,,,,,,,,,,,,,,1,,,43,100
92880,note_on,240,0,2,,,,,,,,,,,,,,,1,,,41,0
92880,note_on,240,0,1,,,,,,,,,,,,,,,0,,,87,0
92880,note_on,0,0,1,,,,,,,,,,,,,,,0,,,86,100
93120,note_on,240,0,1,,,,,,,,,,,,,,,0,,,86,0
93120,note_on,0,0,1,,,,,,,,,,,,,,,0,,,84,100
93120,note_on,240,0,2,,,,,,,,,,,,,,,1,,,43,0
93120,note_on,0,0,2,,,,,,,,,,,,,,,1,,,44,100
93240,note_on,120,0,1,,,,,,,,,,,,,,,0,,,84,0
93240,note_on,0,0,1,,,,,,,,,,,,,,,0,,,77,100
93360,note_on,0,0,1,,,,,,,,,,,,,,,0,,,76,100
93360,note_on,120,0,1,,,,,,,,,,,,,,,0,,,77,0
93600,note_on,480,0,2,,,,,,,,,,,,,,,1,,,44,0
93600,note_on,0,0,2,,,,,,,,,,,,,,,1,,,43,100
93720,note_on,360,0,1,,,,,,,,,,,,,,,0,,,76,0
93720,note_on,0,0,1,,,,,,,,,,,,,,,0,,,79,100
93840,note_on,120,0,1,,,,,,,,,,,,,,,0,,,79,0
93840,note_on,0,0,1,,,,,,,,,,,,,,,0,,,80,100
93960,note_on,120,0,1,,,,,,,,,,,,,,,0,,,80,0
93960,note_on,0,0,1,,,,,,,,,,,,,,,0,,,82,100
94080,note_on,480,0,2,,,,,,,,,,,,,,,1,,,43,0
94080,note_on,0,0,2,,,,,,,,,,,,,,,1,,,41,100
94080,note_on,120,0,1,,,,,,,,,,,,,,,0,,,82,0
94080,note_on,0,0,1,,,,,,,,,,,,,,,0,,,80,100
94200,note_on,0,0,1,,,,,,,,,,,,,,,0,,,73,100
94200,note_on,120,0,1,,,,,,,,,,,,,,,0,,,80,0
94320,note_on,120,0,1,,,,,,,,,,,,,,,0,,,73,0
94320,note_on,0,0,1,,,,,,,,,,,,,,,0,,,72,100
94560,note_on,0,0,2,,,,,,,,,,,,,,,1,,,39,100
94560,note_on,480,0,2,,,,,,,,,,,,,,,1,,,41,0
94680,note_on,360,0,1,,,,,,,,,,,,,,,0,,,72,0
94680,note_on,0,0,1,,,,,,,,,,,,,,,0,,,75,100
94800,note_on,120,0,1,,,,,,,,,,,,,,,0,,,75,0
94800,note_on,0,0,1,,,,,,,,,,,,,,,0,,,77,100
94920,note_on,0,0,1,,,,,,,,,,,,,,,0,,,79,100
94920,note_on,120,0,1,,,,,,,,,,,,,,,0,,,77,0
95040,note_on,480,0,2,,,,,,,,,,,,,,,1,,,39,0
95040,note_on,0,0,2,,,,,,,,,,,,,,,1,,,38,100
95040,note_on,0,0,1,,,,,,,,,,,,,,,0,,,77,100
95040,note_on,120,0,1,,,,,,,,,,,,,,,0,,,79,0
95160,note_on,0,0,1,,,,,,,,,,,,,,,0,,,72,100
95160,note_on,120,0,1,,,,,,,,,,,,,,,0,,,77,0
95280,note_on,120,0,1,,,,,,,,,,,,,,,0,,,72,0
95280,note_on,0,0,1,,,,,,,,,,,,,,,0,,,71,100
95520,note_on,0,0,2,,,,,,,,,,,,,,,1,,,43,100
95520,note_on,480,0,2,,,,,,,,,,,,,,,1,,,38,0
95640,note_on,360,0,1,,,,,,,,,,,,,,,0,,,71,0
95640,note_on,0,0,1,,,,,,,,,,,,,,,0,,,68,100
95760,note_on,120,0,1,,,,,,,,,,,,,,,0,,,68,0
95760,note_on,0,0,1,,,,,,,,,,,,,,,0,,,67,100
95880,note_on,120,0,1,,,,,,,,,,,,,,,0,,,67,0
95880,note_on,0,0,1,,,,,,,,,,,,,,,0,,,65,100
96000,note_on,0,0,2,,,,,,,,,,,,,,,1,,,36,100
96000,note_on,120,0,1,,,,,,,,,,,,,,,0,,,65,0
96000,note_on,0,0,1,,,,,,,,,,,,,,,0,,,63,100
96000,note_on,480,0,2,,,,,,,,,,,,,,,1,,,43,0
96120,note_on,120,0,1,,,,,,,,,,,,,,,0,,,63,0
96120,note_on,0,0,1,,,,,,,,,,,,,,,0,,,65,100
96240,note_on,0,0,1,,,,,,,,,,,,,,,0,,,63,100
96240,note_on,120,0,1,,,,,,,,,,,,,,,0,,,65,0
96360,note_on,0,0,1,,,,,,,,,,,,,,,0,,,62,100
96360,note_on,120,0,1,,,,,,,,,,,,,,,0,,,63,0
96480,note_on,0,0,1,,,,,,,,,,,,,,,0,,,63,100
96480,note_on,480,0,2,,,,,,,,,,,,,,,1,,,36,0
96480,note_on,120,0,1,,,,,,,,,,,,,,,0,,,62,0
96600,note_on,0,0,1,,,,,,,,,,,,,,,0,,,68,100
96600,note_on,120,0,1,,,,,,,,,,,,,,,0,,,63,0
96720,note_on,240,0,2,,,,,,,,,,,,,,,1,,,38,100
96720,note_on,0,0,1,,,,,,,,,,,,,,,0,,,67,100
96720,note_on,120,0,1,,,,,,,,,,,,,,,0,,,68,0
96840,note_on,0,0,1,,,,,,,,,,,,,,,0,,,66,100
96840,note_on,120,0,1,,,,,,,,,,,,,,,0,,,67,0
96960,note_on,0,0,2,,,,,,,,,,,,,,,1,,,39,100
96960,note_on,240,0,2,,,,,,,,,,,,,,,1,,,38,0
96960,note_on,0,0,1,,,,,,,,,,,,,,,0,,,67,100
96960,note_on,120,0,1,,,,,,,,,,,,,,,0,,,66,0
97080,note_on,0,0,1,,,,,,,,,,,,,,,0,,,68,100
97080,note_on,120,0,1,,,,,,,,,,,,,,,0,,,67,0
97200,note_on,120,0,1,,,,,,,,,,,,,,,0,,,68,0
97200,note_on,0,0,1,,,,,,,,,,,,,,,0,,,67,100
97320,note_on,120,0,1,,,,,,,,,,,,,,,0,,,67,0
97320,note_on,0,0,1,,,,,,,,,,,,,,,0,,,66,100
97440,note_on,480,0,2,,,,,,,,,,,,,,,1,,,39,0
97440,note_on,120,0,1,,,,,,,,,,,,,,,0,,,66,0
97440,note_on,0,0,1,,,,,,,,,,,,,,,0,,,67,100
97560,note_on,120,0,1,,,,,,,,,,,,,,,0,,,67,0
97560,note_on,0,0,1,,,,,,,,,,,,,,,0,,,73,100
97680,note_on,240,0,2,,,,,,,,,,,,,,,1,,,41,100
97680,note_on,120,0,1,,,,,,,,,,,,,,,0,,,73,0
97680,note_on,0,0,1,,,,,,,,,,,,,,,0,,,72,100
97800,note_on,120,0,1,,,,,,,,,,,,,,,0,,,72,0
97800,note_on,0,0,1,,,,,,,,,,,,,,,0,,,71,100
97920,note_on,240,0,2,,,,,,,,,,,,,,,1,,,41,0
97920,note_on,0,0,2,,,,,,,,,,,,,,,1,,,39,100
97920,note_on,0,0,1,,,,,,,,,,,,,,,0,,,72,100
97920,note_on,120,0,1,,,,,,,,,,,,,,,0,,,71,0
98160,note_on,240,0,2,,,,,,,,,,,,,,,1,,,39,0
98160,note_on,240,0,1,,,,,,,,,,,,,,,0,,,72,0
98160,note_on,0,0,2,,,,,,,,,,,,,,,1,,,36,100
98160,note_on,0,0,1,,,,,,,,,,,,,,,0,,,67,100
98400,note_on,240,0,1,,,,,,,,,,,,,,,0,,,67,0
98400,note_on,0,0,1,,,,,,,,,,,,,,,0,,,77,100
98400,note_on,240,0,2,,,,,,,,,,,,,,,1,,,36,0
98400,note_on,0,0,2,,,,,,,,,,,,,,,1,,,43,100
98520,note_on,0,0,1,,,,,,,,,,,,,,,0,,,75,100
98520,note_on,120,0,1,,,,,,,,,,,,,,,0,,,77,0
98640,note_on,240,0,2,,,,,,,,,,,,,,,1,,,43,0
98640,note_on,0,0,2,,,,,,,,,,,,,,,1,,,43,100
98640,note_on,0,0,1,,,,,,,,,,,,,,,0,,,74,100
98640,note_on,120,0,1,,,,,,,,,,,,,,,0,,,75,0
98760,note_on,120,0,1,,,,,,,,,,,,,,,0,,,74,0
98760,note_on,0,0,1,,,,,,,,,,,,,,,0,,,72,100
98880,note_on,240,0,2,,,,,,,,,,,,,,,1,,,43,0
98880,note_on,0,0,2,,,,,,,,,,,,,,,1,,,45,100
98880,note_on,0,0,2,,,,,,,,,,,,,,,1,,,54,100
98880,note_on,120,0,1,,,,,,,,,,,,,,,0,,,72,0
98880,note_on,0,0,1,,,,,,,,,,,,,,,0,,,72,100
99000,note_on,120,0,1,,,,,,,,,,,,,,,0,,,72,0
99000,note_on,0,0,1,,,,,,,,,,,,,,,0,,,74,100
99120,note_on,0,0,1,,,,,,,,,,,,,,,0,,,75,100
99120,note_on,120,0,1,,,,,,,,,,,,,,,0,,,74,0
99240,note_on,0,0,1,,,,,,,,,,,,,,,0,,,72,100
99240,note_on,120,0,1,,,,,,,,,,,,,,,0,,,75,0
99360,note_on,480,0,2,,,,,,,,,,,,,,,1,,,45,0
99360,note_on,120,0,1,,,,,,,,,,,,,,,0,,,72,0
99360,note_on,0,0,1,,,,,,,,,,,,,,,0,,,75,100
99360,note_on,0,0,2,,,,,,,,,,,,,,,1,,,54,0
99480,note_on,120,0,1,,,,,,,,,,,,,,,0,,,75,0
99480,note_on,0,0,1,,,,,,,,,,,,,,,0,,,74,100
99600,note_on,120,0,1,,,,,,,,,,,,,,,0,,,74,0
99600,note_on,0,0,1,,,,,,,,,,,,,,,0,,,72,100
99720,note_on,120,0,1,,,,,,,,,,,,,,,0,,,72,0
99720,note_on,0,0,1,,,,,,,,,,,,,,,0,,,70,100
99840,note_on,480,0,2,,,,,,,,,,,,,,,1,,,51,100
99840,note_on,0,0,2,,,,,,,,,,,,,,,1,,,48,100
99840,note_on,0,0,1,,,,,,,,,,,,,,,0,,,69,100
99840,note_on,120,0,1,,,,,,,,,,,,,,,0,,,70,0
99960,note_on,0,0,1,,,,,,,,,,,,,,,0,,,70,100
99960,note_on,120,0,1,,,,,,,,,,,,,,,0,,,69,0
100080,note_on,120,0,1,,,,,,,,,,,,,,,0,,,70,0
100080,note_on,0,0,1,,,,,,,,,,,,,,,0,,,72,100
100200,note_on,120,0,1,,,,,,,,,,,,,,,0,,,72,0
100200,note_on,0,0,1,,,,,,,,,,,,,,,0,,,69,100
100320,note_on,480,0,2,,,,,,,,,,,,,,,1,,,48,0
100320,note_on,120,0,1,,,,,,,,,,,,,,,0,,,69,0
100320,note_on,0,0,2,,,,,,,,,,,,,,,1,,,51,0
100320,note_on,0,0,1,,,,,,,,,,,,,,,0,,,72,100
100440,note_on,120,0,1,,,,,,,,,,,,,,,0,,,72,0
100440,note_on,0,0,1,,,,,,,,,,,,,,,0,,,70,100
100560,note_on,120,0,1,,,,,,,,,,,,,,,0,,,70,0
100560,note_on,0,0,1,,,,,,,,,,,,,,,0,,,69,100
100680,note_on,120,0,1,,,,,,,,,,,,,,,0,,,69,0
100680,note_on,0,0,1,,,,,,,,,,,,,,,0,,,67,100
100800,note_on,0,0,2,,,,,,,,,,,,,,,1,,,50,100
100800,note_on,480,0,2,,,,,,,,,,,,,,,1,,,38,100
100800,set_tempo,39600,1,0,,,,,,,,,,,,1000000,,,,,,,
100800,note_on,0,0,1,,,,,,,,,,,,,,,0,,,66,100
100800,note_on,120,0,1,,,,,,,,,,,,,,,0,,,67,0
100800,note_on,0,0,1,,,,,,,,,,,,,,,0,,,72,100
101280,note_on,480,0,2,,,,,,,,,,,,,,,1,,,50,0
101280,note_on,480,0,1,,,,,,,,,,,,,,,0,,,72,0
101280,note_on,0,0,1,,,,,,,,,,,,,,,0,,,66,0
101280,note_on,0,0,2,,,,,,,,,,,,,,,1,,,38,0
101280,set_tempo,480,1,0,,,,,,,,,,,,500000,,,,,,,
101760,note_on,0,0,2,,,,,,,,,,,,,,,1,,,41,100
101760,note_on,480,0,2,,,,,,,,,,,,,,,1,,,50,100
101760,set_tempo,480,1,0,,,,,,,,,,,,1000000,,,,,,,
101760,note_on,480,0,1,,,,,,,,,,,,,,,0,,,71,100
101760,note_on,0,0,1,,,,,,,,,,,,,,,0,,,67,100
102240,note_on,0,0,2,,,,,,,,,,,,,,,1,,,50,0
102240,set_tempo,480,1,0,,,,,,,,,,,,750000,,,,,,,
102240,end_of_track,0,1,0,,,,,,,,,,,,,,,,,,,
102240,note_on,480,0,2,,,,,,,,,,,,,,,1,,,41,0
102240,note_on,480,0,1,,,,,,,,,,,,,,,0,,,67,0
102240,note_on,0,0,1,,,,,,,,,,,,,,,0,,,71,0
102360,note_on,120,0,1,,,,,,,,,,,,,,,0,,,67,100
102480,note_on,120,0,1,,,,,,,,,,,,,,,0,,,67,0
102480,note_on,0,0,1,,,,,,,,,,,,,,,0,,,69,100
102600,note_on,0,0,1,,,,,,,,,,,,,,,0,,,71,100
102600,note_on,120,0,1,,,,,,,,,,,,,,,0,,,69,0
102720,note_on,120,0,1,,,,,,,,,,,,,,,0,,,71,0
102720,note_on,0,0,1,,,,,,,,,,,,,,,0,,,72,100
102720,note_on,480,0,2,,,,,,,,,,,,,,,1,,,55,100
102720,note_on,0,0,2,,,,,,,,,,,,,,,1,,,39,100
102840,note_on,120,0,1,,,,,,,,,,,,,,,0,,,72,0
102840,note_on,0,0,1,,,,,,,,,,,,,,,0,,,74,100
102960,note_on,0,0,1,,,,,,,,,,,,,,,0,,,75,100
102960,note_on,120,0,1,,,,,,,,,,,,,,,0,,,74,0
103080,note_on,0,0,1,,,,,,,,,,,,,,,0,,,77,100
103080,note_on,120,0,1,,,,,,,,,,,,,,,0,,,75,0
103200,note_on,0,0,1,,,,,,,,,,,,,,,0,,,79,100
103200,note_on,120,0,1,,,,,,,,,,,,,,,0,,,77,0
103200,note_on,480,0,2,,,,,,,,,,,,,,,1,,,39,0
103200,note_on,0,0,2,,,,,,,,,,,,,,,1,,,55,0
103320,note_on,0,0,1,,,,,,,,,,,,,,,0,,,77,100
103320,note_on,120,0,1,,,,,,,,,,,,,,,0,,,79,0
103440,note_on,0,0,1,,,,,,,,,,,,,,,0,,,80,100
103440,note_on,120,0,1,,,,,,,,,,,,,,,0,,,77,0
103560,note_on,0,0,1,,,,,,,,,,,,,,,0,,,79,100
103560,note_on,120,0,1,,,,,,,,,,,,,,,0,,,80,0
103680,note_on,120,0,1,,,,,,,,,,,,,,,0,,,79,0
103680,note_on,0,0,2,,,,,,,,,,,,,,,1,,,50,100
103680,note_on,0,0,1,,,,,,,,,,,,,,,0,,,77,100
103680,note_on,0,0,2,,,,,,,,,,,,,,,1,,,55,100
103680,note_on,480,0,2,,,,,,,,,,,,,,,1,,,47,100
103800,note_on,120,0,1,,,,,,,,,,,,,,,0,,,77,0
103800,note_on,0,0,1,,,,,,,,,,,,,,,0,,,75,100
103920,note_on,120,0,1,,,,,,,,,,,,,,,0,,,75,0
103920,note_on,0,0,1,,,,,,,,,,,,,,,0,,,74,100
104040,note_on,0,0,1,,,,,,,,,,,,,,,0,,,72,100
104040,note_on,120,0,1,,,,,,,,,,,,,,,0,,,74,0
104160,note_on,0,0,2,,,,,,,,,,,,,,,1,,,47,0
104160,note_on,0,0,1,,,,,,,,,,,,,,,0,,,71,100
104160,note_on,120,0,1,,,,,,,,,,,,,,,0,,,72,0
104160,note_on,480,0,2,,,,,,,,,,,,,,,1,,,55,0
104160,note_on,0,0,2,,,,,,,,,,,,,,,1,,,50,0
104280,note_on,120,0,1,,,,,,,,,,,,,,,0,,,71,0
104280,note_on,0,0,1,,,,,,,,,,,,,,,0,,,68,100
104400,note_on,120,0,1,,,,,,,,,,,,,,,0,,,68,0
104400,note_on,0,0,1,,,,,,,,,,,,,,,0,,,67,100
104520,note_on,120,0,1,,,,,,,,,,,,,,,0,,,67,0
104520,note_on,0,0,1,,,,,,,,,,,,,,,0,,,65,100
104640,note_on,120,0,1,,,,,,,,,,,,,,,0,,,65,0
104640,note_on,0,0,1,,,,,,,,,,,,,,,0,,,63,100
104640,note_on,480,0,2,,,,,,,,,,,,,,,1,,,48,100
104880,note_on,0,0,1,,,,,,,,,,,,,,,0,,,84,100
104880,note_on,240,0,1,,,,,,,,,,,,,,,0,,,63,0
104880,note_on,240,0,2,,,,,,,,,,,,,,,1,,,48,0
104880,note_on,0,0,2,,,,,,,,,,,,,,,1,,,44,100
105120,note_on,0,0,2,,,,,,,,,,,,,,,1,,,41,100
105120,note_on,240,0,2,,,,,,,,,,,,,,,1,,,44,0
105120,note_on,240,0,1,,,,,,,,,,,,,,,0,,,84,0
105120,note_on,0,0,1,,,,,,,,,,,,,,,0,,,62,100
105360,note_on,240,0,1,,,,,,,,,,,,,,,0,,,62,0
105360,note_on,0,0,1,,,,,,,,,,,,,,,0,,,83,100
105360,note_on,0,0,2,,,,,,,,,,,,,,,1,,,43,100
105360,note_on,240,0,2,,,,,,,,,,,,,,,1,,,41,0
105600,note_on,240,0,2,,,,,,,,,,,,,,,1,,,43,0
105600,note_on,0,0,2,,,,,,,,,,,,,,,1,,,36,100
105600,note_on,0,0,2,,,,,,,,,,,,,,,1,,,48,100
105600,note_on,240,0,1,,,,,,,,,,,,,,,0,,,83,0
105600,note_on,0,0,1,,,,,,,,,,,,,,,0,,,75,100
105600,note_on,0,0,1,,,,,,,,,,,,,,,0,,,72,100
105600,note_on,0,0,1,,,,,,,,,,,,,,,0,,,79,100
105600,note_on,0,0,1,,,,,,,,,,,,,,,0,,,84,100
106080,note_on,0,0,2,,,,,,,,,,,,,,,1,,,48,0
106080,note_on,480,0,2,,,,,,,,,,,,,,,1,,,36,0
106080,note_on,0,0,1,,,,,,,,,,,,,,,0,,,79,0
106080,note_on,480,0,1,,,,,,,,,,,,,,,0,,,84,0
106080,note_on,0,0,1,,,,,,,,,,,,,,,0,,,75,0
106080,end_of_track,0,1,1,,,,,,,,,,,,,,,,,,,
106080,end_of_track,0,1,2,,,,,,,,,,,,,,,,,,,
106080,note_on,0,0,1,,,,,,,,,,,,,,,0,,,72,0
