tick,type,tempo,time,meta,track,numerator,denominator,clocks_per_click,notated_32nd_notes_per_beat,program,channel,note,velocity
0,set_tempo,909090,0,1,0,,,,,,,,
0,time_signature,,0,1,0,4,4,24,8,,,,
0,track_name,,0,1,2,,,,,,,,
0,note_on,,0,0,3,,,,,,0,52,102
0,track_name,,0,1,3,,,,,,,,
0,track_name,,0,1,1,,,,,,,,
0,program_change,,0,0,1,,,,,19,0,,
384,note_on,,384,0,2,,,,,,0,55,92
384,note_on,,384,0,1,,,,,,0,64,92
384,note_on,,0,0,1,,,,,,0,67,92
384,note_on,,0,0,1,,,,,,0,71,92
768,note_off,,768,0,3,,,,,,0,52,64
768,note_on,,0,0,1,,,,,,0,69,92
768,note_on,,0,0,1,,,,,,0,66,92
768,note_on,,0,0,3,,,,,,0,54,102
768,note_off,,384,0,1,,,,,,0,71,64
768,note_on,,0,0,2,,,,,,0,57,92
768,note_off,,0,0,1,,,,,,0,67,64
768,note_off,,384,0,2,,,,,,0,55,64
960,note_off,,192,0,1,,,,,,0,64,64
960,note_on,,0,0,1,,,,,,0,64,92
1152,note_off,,384,0,3,,,,,,0,54,64
1152,note_on,,0,0,2,,,,,,0,54,92
1152,note_off,,384,0,2,,,,,,0,57,64
1152,note_on,,0,0,3,,,,,,0,47,102
1152,note_on,,0,0,2,,,,,,0,59,92
1152,note_off,,192,0,1,,,,,,0,64,64
1152,note_off,,0,0,1,,,,,,0,66,64
1152,note_on,,0,0,1,,,,,,0,63,92
1344,note_off,,192,0,1,,,,,,0,69,64
1344,note_on,,0,0,1,,,,,,0,71,92
1536,note_on,,0,0,3,,,,,,0,52,102
1536,note_off,,0,0,2,,,,,,0,54,64
1536,note_off,,384,0,2,,,,,,0,59,64
1536,note_off,,192,0,1,,,,,,0,71,64
1536,note_off,,384,0,3,,,,,,0,47,64
1536,note_on,,0,0,1,,,,,,0,67,92
1536,note_off,,0,0,1,,,,,,0,63,64
1536,note_on,,0,0,2,,,,,,0,59,92
1536,note_on,,0,0,2,,,,,,0,54,92
1728,note_on,,192,0,1,,,,,,0,59,92
1920,note_off,,384,0,2,,,,,,0,59,64
1920,note_off,,0,0,2,,,,,,0,54,64
1920,note_on,,0,0,1,,,,,,0,64,92
1920,note_off,,192,0,1,,,,,,0,59,64
1920,note_off,,384,0,3,,,,,,0,52,64
2112,note_on,,192,0,3,,,,,,0,43,102
2112,note_on,,192,0,2,,,,,,0,52,92
2112,note_off,,192,0,1,,,,,,0,64,64
2112,note_off,,0,0,1,,,,,,0,67,64
2112,note_on,,0,0,1,,,,,,0,67,92
2112,note_on,,0,0,1,,,,,,0,59,92
2112,note_on,,0,0,1,,,,,,0,64,92
2304,note_off,,192,0,3,,,,,,0,43,64
2304,note_on,,0,0,3,,,,,,0,45,102
2304,note_on,,0,0,2,,,,,,0,52,92
2304,note_off,,192,0,2,,,,,,0,52,64
2304,note_on,,0,0,1,,,,,,0,60,92
2304,note_off,,0,0,1,,,,,,0,59,64
2304,note_off,,192,0,1,,,,,,0,64,64
2496,note_off,,192,0,1,,,,,,0,67,64
2496,note_on,,0,0,1,,,,,,0,67,92
2688,note_on,,0,0,2,,,,,,0,57,92
2688,note_off,,192,0,1,,,,,,0,67,64
2688,note_on,,0,0,1,,,,,,0,66,92
2688,note_on,,0,0,1,,,,,,0,60,92
2688,note_off,,384,0,2,,,,,,0,52,64
2688,note_off,,0,0,1,,,,,,0,60,64
2880,note_off,,192,0,1,,,,,,0,66,64
2880,note_on,,0,0,1,,,,,,0,64,92
2880,note_off,,192,0,2,,,,,,0,57,64
2880,note_on,,0,0,2,,,,,,0,54,92
3072,note_off,,768,0,3,,,,,,0,45,64
3072,note_on,,0,0,3,,,,,,0,47,102
3072,note_on,,0,0,1,,,,,,0,63,92
3072,note_on,,0,0,2,,,,,,0,54,92
3072,note_off,,192,0,1,,,,,,0,64,64
3072,note_off,,0,0,1,,,,,,0,60,64
3072,note_on,,0,0,1,,,,,,0,59,92
3072,note_off,,192,0,2,,,,,,0,54,64
3264,note_off,,192,0,1,,,,,,0,63,64
3264,note_off,,0,0,1,,,,,,0,59,64
3264,note_on,,0,0,1,,,,,,0,59,92
3456,note_off,,384,0,2,,,,,,0,54,64
3456,note_off,,192,0,1,,,,,,0,59,64
3456,note_on,,0,0,1,,,,,,0,71,92
3456,note_on,,0,0,1,,,,,,0,64,92
3648,note_on,,192,0,2,,,,,,0,55,92
3840,note_on,,0,0,1,,,,,,0,69,92
3840,note_on,,0,0,2,,,,,,0,54,92
3840,note_off,,192,0,2,,,,,,0,55,64
3840,note_off,,384,0,1,,,,,,0,71,64
4032,note_on,,0,0,1,,,,,,0,64,92
4032,note_off,,192,0,1,,,,,,0,64,64
4224,note_off,,192,0,1,,,,,,0,64,64
4224,note_on,,0,0,1,,,,,,0,63,92
4224,note_on,,0,0,2,,,,,,0,59,92
4224,note_off,,384,0,2,,,,,,0,54,64
4416,note_off,,192,0,1,,,,,,0,69,64
4416,note_on,,0,0,1,,,,,,0,71,92
4608,note_off,,192,0,1,,,,,,0,71,64
4608,note_on,,0,0,3,,,,,,0,52,102
4608,note_off,,0,0,1,,,,,,0,63,64
4608,note_on,,0,0,1,,,,,,0,67,92
4608,note_on,,0,0,1,,,,,,0,64,92
4608,note_off,,1536,0,3,,,,,,0,47,64
4800,note_off,,192,0,1,,,,,,0,67,64
4800,note_on,,0,0,1,,,,,,0,69,92
4992,note_off,,384,0,3,,,,,,0,52,64
4992,note_on,,0,0,3,,,,,,0,50,102
4992,note_on,,0,0,2,,,,,,0,59,92
4992,note_off,,768,0,2,,,,,,0,59,64
4992,note_off,,192,0,1,,,,,,0,69,64
4992,note_off,,0,0,1,,,,,,0,64,64
4992,note_on,,0,0,1,,,,,,0,66,92
4992,note_on,,0,0,1,,,,,,0,71,92
5376,note_off,,384,0,2,,,,,,0,59,64
5376,note_off,,384,0,1,,,,,,0,66,64
5376,note_on,,0,0,2,,,,,,0,52,92
5376,note_on,,0,0,3,,,,,,0,48,102
5376,note_off,,384,0,3,,,,,,0,50,64
5376,note_on,,0,0,1,,,,,,0,64,92
5760,note_off,,384,0,1,,,,,,0,71,64
5760,note_on,,0,0,1,,,,,,0,69,92
5952,note_off,,576,0,2,,,,,,0,52,64
5952,note_on,,0,0,2,,,,,,0,54,92
6144,note_on,,0,0,3,,,,,,0,47,102
6144,note_off,,768,0,3,,,,,,0,48,64
6144,note_on,,0,0,2,,,,,,0,55,92
6144,note_off,,192,0,2,,,,,,0,54,64
6144,note_off,,384,0,1,,,,,,0,69,64
6144,note_on,,0,0,1,,,,,,0,71,92
6528,note_on,,0,0,2,,,,,,0,54,92
6528,note_off,,384,0,2,,,,,,0,55,64
6528,note_on,,0,0,1,,,,,,0,63,92
6528,note_off,,384,0,1,,,,,,0,64,64
6720,note_on,,0,0,1,,,,,,0,69,92
6720,note_off,,192,0,1,,,,,,0,71,64
6912,note_off,,0,0,1,,,,,,0,63,64
6912,note_on,,0,0,1,,,,,,0,68,92
6912,note_off,,192,0,1,,,,,,0,69,64
6912,note_off,,768,0,3,,,,,,0,47,64
6912,note_on,,0,0,3,,,,,,0,52,102
6912,note_off,,384,0,2,,,,,,0,54,64
6912,note_on,,0,0,2,,,,,,0,52,92
7104,note_on,,192,0,1,,,,,,0,62,92
7296,note_off,,384,0,2,,,,,,0,52,64
7296,note_on,,0,0,2,,,,,,0,56,92
7296,note_off,,192,0,1,,,,,,0,62,64
7296,note_off,,0,0,1,,,,,,0,68,64
7296,note_on,,0,0,1,,,,,,0,60,92
7488,note_on,,0,0,1,,,,,,0,59,92
7488,note_off,,192,0,1,,,,,,0,60,64
7680,note_on,,0,0,2,,,,,,0,57,92
7680,note_off,,192,0,1,,,,,,0,59,64
7680,note_on,,0,0,1,,,,,,0,60,92
7680,note_on,,0,0,2,,,,,,0,54,92
7680,note_off,,384,0,2,,,,,,0,56,64
7680,note_on,,0,0,3,,,,,,0,45,102
7680,note_off,,768,0,3,,,,,,0,52,64
7872,note_on,,192,0,1,,,,,,0,64,92
8064,note_on,,0,0,3,,,,,,0,48,102
8064,note_off,,384,0,3,,,,,,0,45,64
8064,note_off,,384,0,2,,,,,,0,57,64
8064,note_on,,0,0,2,,,,,,0,60,92
8064,note_on,,0,0,1,,,,,,0,69,92
8064,note_off,,192,0,1,,,,,,0,60,64
8064,note_off,,0,0,2,,,,,,0,54,64
8256,note_on,,0,0,2,,,,,,0,59,92
8256,note_on,,0,0,1,,,,,,0,67,92
8256,note_off,,192,0,1,,,,,,0,69,64
8256,note_off,,192,0,2,,,,,,0,60,64
8448,note_off,,0,0,1,,,,,,0,64,64
8448,note_on,,0,0,1,,,,,,0,66,92
8448,note_on,,0,0,3,,,,,,0,50,102
8448,note_off,,384,0,3,,,,,,0,48,64
8448,note_off,,192,0,2,,,,,,0,59,64
8448,note_on,,0,0,2,,,,,,0,57,92
8448,note_on,,0,0,1,,,,,,0,62,92
8448,note_off,,192,0,1,,,,,,0,67,64
8640,note_off,,0,0,1,,,,,,0,62,64
8640,note_on,,0,0,1,,,,,,0,62,92
8640,note_off,,192,0,1,,,,,,0,66,64
8832,note_on,,0,0,1,,,,,,0,74,92
8832,note_off,,192,0,1,,,,,,0,62,64
8832,note_on,,0,0,1,,,,,,0,67,92
8832,note_off,,384,0,2,,,,,,0,57,64
9024,note_on,,192,0,2,,,,,,0,59,92
9216,note_off,,192,0,2,,,,,,0,59,64
9216,note_on,,0,0,1,,,,,,0,72,92
9216,note_off,,384,0,1,,,,,,0,74,64
9216,note_on,,0,0,2,,,,,,0,59,92
9408,note_on,,0,0,1,,,,,,0,67,92
9408,note_off,,192,0,1,,,,,,0,67,64
9600,note_off,,192,0,1,,,,,,0,67,64
9600,note_off,,1152,0,3,,,,,,0,50,64
9600,note_on,,0,0,3,,,,,,0,50,102
9600,note_on,,0,0,1,,,,,,0,66,92
9792,note_on,,0,0,1,,,,,,0,74,92
9792,note_off,,192,0,1,,,,,,0,72,64
9984,note_on,,0,0,3,,,,,,0,43,102
9984,note_off,,768,0,2,,,,,,0,59,64
9984,note_off,,384,0,3,,,,,,0,50,64
9984,note_on,,0,0,2,,,,,,0,59,92
9984,note_on,,0,0,2,,,,,,0,55,92
9984,note_off,,192,0,1,,,,,,0,74,64
9984,note_off,,0,0,1,,,,,,0,66,64
9984,note_on,,0,0,1,,,,,,0,71,92
10176,note_on,,192,0,1,,,,,,0,62,92
10368,note_off,,192,0,1,,,,,,0,62,64
10368,note_on,,0,0,2,,,,,,0,59,92
10368,note_on,,0,0,1,,,,,,0,67,92
10368,note_off,,384,0,3,,,,,,0,43,64
10368,note_on,,0,0,3,,,,,,0,47,102
10368,note_off,,0,0,2,,,,,,0,55,64
10368,note_off,,384,0,2,,,,,,0,59,64
10560,note_off,,192,0,2,,,,,,0,59,64
10560,note_on,,0,0,2,,,,,,0,57,92
10560,note_on,,0,0,1,,,,,,0,66,92
10560,note_off,,192,0,1,,,,,,0,67,64
10752,note_off,,192,0,1,,,,,,0,66,64
10752,note_off,,384,0,3,,,,,,0,47,64
10752,note_on,,0,0,1,,,,,,0,64,92
10752,note_on,,0,0,3,,,,,,0,48,102
10752,note_on,,0,0,2,,,,,,0,55,92
10752,note_off,,192,0,2,,,,,,0,57,64
10944,note_on,,0,0,1,,,,,,0,69,92
10944,note_off,,192,0,2,,,,,,0,55,64
10944,note_on,,0,0,2,,,,,,0,54,92
10944,note_off,,192,0,1,,,,,,0,71,64
11136,note_off,,384,0,3,,,,,,0,48,64
11136,note_off,,0,0,1,,,,,,0,64,64
11136,note_off,,192,0,2,,,,,,0,54,64
11136,note_on,,0,0,2,,,,,,0,57,92
11136,note_on,,0,0,1,,,,,,0,72,92
11136,note_off,,192,0,1,,,,,,0,69,64
11328,note_on,,192,0,3,,,,,,0,45,102
11328,note_on,,192,0,1,,,,,,0,64,92
11520,note_on,,0,0,1,,,,,,0,66,92
11520,note_off,,192,0,3,,,,,,0,45,64
11520,note_on,,0,0,3,,,,,,0,50,102
11520,note_off,,192,0,1,,,,,,0,64,64
11520,note_off,,384,0,2,,,,,,0,57,64
11520,note_on,,0,0,2,,,,,,0,57,92
11712,note_on,,0,0,1,,,,,,0,69,92
11712,note_off,,192,0,1,,,,,,0,72,64
11904,note_on,,0,0,3,,,,,,0,43,102
11904,note_off,,384,0,3,,,,,,0,50,64
11904,note_off,,0,0,1,,,,,,0,66,64
11904,note_on,,0,0,1,,,,,,0,62,92
11904,note_off,,192,0,1,,,,,,0,69,64
11904,note_on,,0,0,1,,,,,,0,71,92
11904,note_on,,0,0,2,,,,,,0,55,92
11904,note_off,,384,0,2,,,,,,0,57,64
12096,note_on,,0,0,1,,,,,,0,72,92
12096,note_off,,192,0,1,,,,,,0,71,64
12288,note_on,,0,0,1,,,,,,0,69,92
12288,note_off,,0,0,1,,,,,,0,62,64
12288,note_off,,192,0,1,,,,,,0,72,64
12288,note_off,,384,0,3,,,,,,0,43,64
12288,note_on,,0,0,3,,,,,,0,50,102
12288,note_on,,0,0,1,,,,,,0,62,92
12672,note_off,,768,0,2,,,,,,0,55,64
12672,note_on,,0,0,2,,,,,,0,54,92
12864,note_on,,0,0,1,,,,,,0,60,92
12864,note_off,,576,0,1,,,,,,0,62,64
13056,note_on,,0,0,1,,,,,,0,67,92
13056,note_off,,192,0,1,,,,,,0,60,64
13056,note_on,,0,0,2,,,,,,0,55,92
13056,note_off,,384,0,2,,,,,,0,54,64
13056,note_off,,0,0,1,,,,,,0,69,64
13056,note_on,,0,0,3,,,,,,0,43,102
13056,note_off,,768,0,3,,,,,,0,50,64
13056,note_on,,0,0,1,,,,,,0,59,92
13248,note_off,,192,0,1,,,,,,0,59,64
13248,note_off,,0,0,1,,,,,,0,67,64
13248,note_on,,0,0,1,,,,,,0,69,92
13248,note_on,,0,0,1,,,,,,0,60,92
13440,note_on,,0,0,3,,,,,,0,55,102
13440,note_on,,0,0,1,,,,,,0,62,92
13440,note_off,,0,0,1,,,,,,0,69,64
13440,note_off,,192,0,1,,,,,,0,60,64
13440,note_off,,384,0,3,,,,,,0,43,64
13440,note_off,,384,0,2,,,,,,0,55,64
13440,note_on,,0,0,2,,,,,,0,55,92
13440,note_on,,0,0,1,,,,,,0,71,92
13632,note_on,,0,0,3,,,,,,0,54,102
13632,note_off,,192,0,3,,,,,,0,55,64
13824,note_off,,384,0,1,,,,,,0,62,64
13824,note_on,,0,0,3,,,,,,0,52,102
13824,note_off,,192,0,3,,,,,,0,54,64
13824,note_on,,0,0,1,,,,,,0,67,92
14016,note_on,,0,0,1,,,,,,0,73,92
14016,note_off,,192,0,1,,,,,,0,71,64
14208,note_on,,0,0,3,,,,,,0,50,102
14208,note_off,,384,0,3,,,,,,0,52,64
14208,note_on,,0,0,1,,,,,,0,74,92
14208,note_off,,192,0,1,,,,,,0,73,64
14208,note_on,,0,0,2,,,,,,0,57,92
14208,note_off,,768,0,2,,,,,,0,55,64
14400,note_on,,0,0,1,,,,,,0,66,92
14400,note_off,,192,0,1,,,,,,0,67,64
14592,note_on,,0,0,1,,,,,,0,64,92
14592,note_off,,384,0,2,,,,,,0,57,64
14592,note_on,,0,0,2,,,,,,0,59,92
14592,note_off,,192,0,1,,,,,,0,66,64
14592,note_on,,0,0,3,,,,,,0,55,102
14592,note_off,,384,0,3,,,,,,0,50,64
14784,note_on,,0,0,1,,,,,,0,74,92
14784,note_off,,192,0,1,,,,,,0,74,64
14976,note_off,,384,0,2,,,,,,0,59,64
14976,note_off,,384,0,3,,,,,,0,55,64
14976,note_on,,0,0,3,,,,,,0,57,102
14976,note_off,,192,0,1,,,,,,0,74,64
14976,note_on,,0,0,1,,,,,,0,73,92
14976,note_on,,0,0,2,,,,,,0,57,92
15168,note_off,,192,0,1,,,,,,0,64,64
15168,note_on,,0,0,1,,,,,,0,67,92
15360,note_on,,0,0,1,,,,,,0,66,92
15360,note_on,,0,0,1,,,,,,0,74,92
15360,note_on,,0,0,3,,,,,,0,50,102
15360,note_off,,192,0,1,,,,,,0,67,64
15360,note_off,,384,0,3,,,,,,0,57,64
15360,note_off,,0,0,1,,,,,,0,73,64
15552,note_off,,576,0,2,,,,,,0,57,64
15552,note_off,,192,0,1,,,,,,0,66,64
15552,note_on,,0,0,1,,,,,,0,62,92
15552,note_on,,0,0,2,,,,,,0,54,92
15744,note_on,,0,0,1,,,,,,0,64,92
15744,note_on,,0,0,2,,,,,,0,55,92
15744,note_off,,192,0,1,,,,,,0,62,64
15744,note_off,,0,0,1,,,,,,0,74,64
15744,note_off,,192,0,2,,,,,,0,54,64
15744,note_off,,384,0,3,,,,,,0,50,64
15936,note_off,,192,0,1,,,,,,0,64,64
15936,note_on,,0,0,1,,,,,,0,66,92
15936,note_off,,192,0,2,,,,,,0,55,64
15936,note_on,,0,0,2,,,,,,0,57,92
16128,note_off,,192,0,2,,,,,,0,57,64
16128,note_on,,0,0,2,,,,,,0,59,92
16128,note_off,,192,0,1,,,,,,0,66,64
16128,note_on,,0,0,1,,,,,,0,67,92
16128,note_on,,384,0,3,,,,,,0,47,102
16320,note_off,,192,0,1,,,,,,0,67,64
16320,note_on,,0,0,1,,,,,,0,69,92
16320,note_off,,192,0,2,,,,,,0,59,64
16320,note_on,,0,0,2,,,,,,0,60,92
16512,note_on,,0,0,1,,,,,,0,71,92
16512,note_off,,192,0,2,,,,,,0,60,64
16512,note_off,,384,0,3,,,,,,0,47,64
16512,note_off,,192,0,1,,,,,,0,69,64
16512,note_on,,0,0,2,,,,,,0,62,92
16704,note_on,,0,0,2,,,,,,0,55,92
16704,note_on,,192,0,1,,,,,,0,74,92
16704,note_off,,192,0,2,,,,,,0,62,64
16896,note_on,,384,0,3,,,,,,0,48,102
16896,note_off,,192,0,2,,,,,,0,55,64
16896,note_on,,0,0,2,,,,,,0,55,92
16896,note_off,,192,0,1,,,,,,0,74,64
16896,note_on,,0,0,1,,,,,,0,76,92
17088,note_off,,192,0,1,,,,,,0,71,64
17088,note_on,,0,0,1,,,,,,0,71,92
17280,note_on,,0,0,1,,,,,,0,69,92
17280,note_off,,384,0,2,,,,,,0,55,64
17280,note_on,,0,0,2,,,,,,0,57,92
17280,note_off,,192,0,1,,,,,,0,71,64
17472,note_off,,192,0,1,,,,,,0,69,64
17472,note_on,,0,0,1,,,,,,0,67,92
17664,note_off,,192,0,1,,,,,,0,67,64
17664,note_off,,0,0,1,,,,,,0,76,64
17664,note_on,,0,0,1,,,,,,0,66,92
17664,note_on,,0,0,1,,,,,,0,74,92
17856,note_off,,192,0,1,,,,,,0,66,64
17856,note_on,,0,0,1,,,,,,0,62,92
18048,note_off,,768,0,2,,,,,,0,57,64
18048,note_on,,0,0,2,,,,,,0,55,92
18048,note_off,,192,0,1,,,,,,0,62,64
18048,note_on,,0,0,1,,,,,,0,67,92
18048,note_off,,1152,0,3,,,,,,0,48,64
18048,note_on,,0,0,3,,,,,,0,47,102
18240,note_off,,192,0,1,,,,,,0,67,64
18240,note_on,,0,0,1,,,,,,0,66,92
18432,note_on,,0,0,1,,,,,,0,72,92
18432,note_off,,0,0,1,,,,,,0,74,64
18432,note_off,,192,0,1,,,,,,0,66,64
18432,note_on,,0,0,1,,,,,,0,64,92
18624,note_off,,192,0,1,,,,,,0,64,64
18624,note_on,,0,0,1,,,,,,0,60,92
18816,note_off,,192,0,1,,,,,,0,60,64
18816,note_on,,0,0,1,,,,,,0,66,92
18816,note_off,,768,0,3,,,,,,0,47,64
18816,note_on,,0,0,2,,,,,,0,54,92
18816,note_off,,768,0,2,,,,,,0,55,64
18816,note_on,,0,0,3,,,,,,0,45,102
19008,note_on,,0,0,1,,,,,,0,64,92
19008,note_off,,192,0,1,,,,,,0,66,64
19200,note_off,,0,0,1,,,,,,0,72,64
19200,note_on,,0,0,1,,,,,,0,63,92
19200,note_on,,0,0,1,,,,,,0,71,92
19200,note_off,,192,0,1,,,,,,0,64,64
19392,note_off,,192,0,1,,,,,,0,63,64
19392,note_on,,0,0,1,,,,,,0,59,92
19584,note_on,,0,0,3,,,,,,0,43,102
19584,note_off,,768,0,3,,,,,,0,45,64
19584,note_off,,768,0,2,,,,,,0,54,64
19584,note_on,,0,0,2,,,,,,0,52,92
19584,note_on,,0,0,1,,,,,,0,64,92
19584,note_off,,192,0,1,,,,,,0,59,64
19776,note_on,,0,0,1,,,,,,0,73,92
19776,note_off,,192,0,1,,,,,,0,71,64
19968,note_on,,0,0,1,,,,,,0,70,92
19968,note_off,,192,0,1,,,,,,0,73,64
19968,note_off,,384,0,3,,,,,,0,43,64
19968,note_off,,384,0,2,,,,,,0,52,64
19968,note_on,,0,0,2,,,,,,0,54,92
19968,note_on,,0,0,3,,,,,,0,42,102
20160,note_off,,192,0,1,,,,,,0,64,64
20160,note_on,,0,0,1,,,,,,0,64,92
20352,note_on,,0,0,3,,,,,,0,47,102
20352,note_off,,384,0,3,,,,,,0,42,64
20352,note_off,,192,0,1,,,,,,0,64,64
20352,note_on,,0,0,1,,,,,,0,62,92
20352,note_on,,0,0,2,,,,,,0,54,92
20352,note_off,,384,0,2,,,,,,0,54,64
20352,note_off,,0,0,1,,,,,,0,70,64
20544,note_on,,192,0,1,,,,,,0,71,92
20736,note_off,,192,0,1,,,,,,0,62,64
20736,note_on,,0,0,1,,,,,,0,61,92
20736,note_on,,0,0,3,,,,,,0,54,102
20736,note_off,,384,0,3,,,,,,0,47,64
20928,note_off,,192,0,1,,,,,,0,71,64
20928,note_on,,0,0,1,,,,,,0,71,92
21120,note_off,,384,0,3,,,,,,0,54,64
21120,note_on,,0,0,3,,,,,,0,42,102
21120,note_off,,768,0,2,,,,,,0,54,64
21120,note_on,,0,0,2,,,,,,0,54,92
21120,note_off,,192,0,1,,,,,,0,61,64
21120,note_on,,0,0,1,,,,,,0,61,92
21312,note_off,,192,0,1,,,,,,0,71,64
21312,note_on,,0,0,1,,,,,,0,70,92
21504,note_on,,0,0,2,,,,,,0,54,92
21504,note_off,,384,0,3,,,,,,0,42,64
21504,note_on,,0,0,1,,,,,,0,62,92
21504,note_on,,0,0,3,,,,,,0,47,102
21504,note_off,,192,0,1,,,,,,0,70,64
21504,note_on,,0,0,1,,,,,,0,71,92
21504,note_off,,0,0,1,,,,,,0,61,64
21504,note_off,,384,0,2,,,,,,0,54,64
21696,note_off,,192,0,1,,,,,,0,62,64
21696,note_off,,0,0,1,,,,,,0,71,64
21696,note_on,,0,0,1,,,,,,0,64,92
21696,note_on,,0,0,1,,,,,,0,73,92
21888,note_on,,0,0,2,,,,,,0,59,92
21888,note_on,,0,0,3,,,,,,0,59,102
21888,note_off,,384,0,3,,,,,,0,47,64
21888,note_on,,0,0,1,,,,,,0,66,92
21888,note_off,,0,0,1,,,,,,0,73,64
21888,note_off,,192,0,1,,,,,,0,64,64
21888,note_off,,384,0,2,,,,,,0,54,64
21888,note_on,,0,0,1,,,,,,0,74,92
22080,note_on,,0,0,1,,,,,,0,76,92
22080,note_off,,192,0,1,,,,,,0,74,64
22272,note_off,,384,0,2,,,,,,0,59,64
22272,note_off,,192,0,1,,,,,,0,76,64
22272,note_on,,0,0,1,,,,,,0,78,92
22272,note_on,,0,0,1,,,,,,0,66,92
22272,note_off,,0,0,1,,,,,,0,66,64
22272,note_on,,0,0,2,,,,,,0,61,92
22464,note_off,,192,0,1,,,,,,0,78,64
22464,note_on,,0,0,1,,,,,,0,73,92
22656,note_off,,768,0,3,,,,,,0,59,64
22656,note_off,,192,0,1,,,,,,0,73,64
22656,note_on,,0,0,1,,,,,,0,78,92
22656,note_on,,0,0,3,,,,,,0,58,102
22848,note_off,,192,0,1,,,,,,0,78,64
22848,note_on,,0,0,1,,,,,,0,76,92
23040,note_off,,384,0,3,,,,,,0,58,64
23040,note_off,,768,0,2,,,,,,0,61,64
23040,note_on,,0,0,2,,,,,,0,62,92
23040,note_off,,192,0,1,,,,,,0,76,64
23040,note_off,,0,0,1,,,,,,0,66,64
23040,note_on,,0,0,1,,,,,,0,66,92
23040,note_on,,0,0,1,,,,,,0,74,92
23040,note_on,,0,0,3,,,,,,0,59,102
23232,note_off,,192,0,1,,,,,,0,74,64
23232,note_on,,0,0,1,,,,,,0,71,92
23424,note_on,,0,0,1,,,,,,0,76,92
23424,note_on,,0,0,1,,,,,,0,64,92
23424,note_off,,192,0,1,,,,,,0,71,64
23424,note_off,,0,0,1,,,,,,0,66,64
23424,note_off,,384,0,3,,,,,,0,59,64
23424,note_on,,0,0,3,,,,,,0,55,102
23424,note_off,,384,0,2,,,,,,0,62,64
23424,note_on,,0,0,2,,,,,,0,59,92
23616,note_on,,0,0,1,,,,,,0,74,92
23616,note_off,,192,0,1,,,,,,0,76,64
23808,note_on,,0,0,1,,,,,,0,72,92
23808,note_off,,192,0,1,,,,,,0,74,64
23808,note_on,,0,0,2,,,,,,0,57,92
23808,note_off,,384,0,2,,,,,,0,59,64
24000,note_on,,0,0,1,,,,,,0,69,92
24000,note_off,,192,0,1,,,,,,0,72,64
24192,note_on,,0,0,1,,,,,,0,74,92
24192,note_off,,768,0,3,,,,,,0,55,64
24192,note_on,,0,0,3,,,,,,0,54,102
24192,note_off,,0,0,1,,,,,,0,64,64
24192,note_off,,192,0,1,,,,,,0,69,64
24192,note_on,,0,0,1,,,,,,0,62,92
24384,note_on,,0,0,1,,,,,,0,72,92
24384,note_off,,192,0,1,,,,,,0,74,64
24576,note_off,,768,0,2,,,,,,0,57,64
24576,note_off,,192,0,1,,,,,,0,72,64
24576,note_on,,0,0,1,,,,,,0,71,92
24576,note_on,,0,0,2,,,,,,0,55,92
24768,note_on,,0,0,1,,,,,,0,67,92
24768,note_off,,192,0,1,,,,,,0,71,64
24960,note_on,,0,0,3,,,,,,0,52,102
24960,note_off,,768,0,3,,,,,,0,54,64
24960,note_on,,0,0,1,,,,,,0,60,92
24960,note_on,,0,0,1,,,,,,0,72,92
24960,note_off,,0,0,1,,,,,,0,62,64
24960,note_off,,192,0,1,,,,,,0,67,64
25152,note_on,,0,0,1,,,,,,0,71,92
25152,note_off,,192,0,1,,,,,,0,72,64
25344,note_on,,0,0,1,,,,,,0,69,92
25344,note_off,,192,0,1,,,,,,0,71,64
25344,note_off,,768,0,2,,,,,,0,55,64
25344,note_on,,0,0,2,,,,,,0,54,92
25536,note_on,,0,0,1,,,,,,0,66,92
25536,note_off,,192,0,1,,,,,,0,69,64
25728,note_on,,0,0,1,,,,,,0,71,92
25728,note_off,,768,0,3,,,,,,0,52,64
25728,note_off,,0,0,1,,,,,,0,60,64
25728,note_off,,192,0,1,,,,,,0,66,64
25728,note_on,,0,0,1,,,,,,0,59,92
25728,note_on,,0,0,3,,,,,,0,51,102
25920,note_off,,192,0,1,,,,,,0,71,64
25920,note_on,,0,0,1,,,,,,0,69,92
26112,note_off,,192,0,1,,,,,,0,69,64
26112,note_on,,0,0,2,,,,,,0,55,92
26112,note_off,,768,0,2,,,,,,0,54,64
26112,note_on,,0,0,1,,,,,,0,67,92
26112,note_on,,0,0,3,,,,,,0,52,102
26112,note_off,,384,0,3,,,,,,0,51,64
26112,note_on,,0,0,1,,,,,,0,64,92
26304,note_off,,192,0,2,,,,,,0,55,64
26304,note_on,,0,0,2,,,,,,0,59,92
26496,note_off,,384,0,1,,,,,,0,67,64
26496,note_off,,0,0,1,,,,,,0,64,64
26496,note_off,,0,0,1,,,,,,0,59,64
26496,note_on,,0,0,1,,,,,,0,76,92
26496,note_on,,0,0,1,,,,,,0,71,92
26496,note_on,,0,0,2,,,,,,0,64,92
26496,note_off,,384,0,3,,,,,,0,52,64
26496,note_on,,0,0,3,,,,,,0,52,102
26496,note_on,,0,0,1,,,,,,0,79,92
26496,note_off,,192,0,2,,,,,,0,59,64
26688,note_off,,192,0,2,,,,,,0,64,64
26688,note_on,,0,0,2,,,,,,0,62,92
26880,note_on,,0,0,1,,,,,,0,69,92
26880,note_on,,0,0,3,,,,,,0,45,102
26880,note_off,,384,0,1,,,,,,0,71,64
26880,note_off,,384,0,3,,,,,,0,52,64
26880,note_on,,0,0,2,,,,,,0,60,92
26880,note_off,,192,0,2,,,,,,0,62,64
27072,note_on,,0,0,2,,,,,,0,57,92
27072,note_off,,192,0,2,,,,,,0,60,64
27264,note_off,,384,0,1,,,,,,0,76,64
27264,note_off,,384,0,3,,,,,,0,45,64
27264,note_on,,0,0,3,,,,,,0,50,102
27264,note_on,,0,0,1,,,,,,0,78,92
27264,note_on,,0,0,1,,,,,,0,74,92
27264,note_off,,192,0,2,,,,,,0,57,64
27264,note_off,,0,0,1,,,,,,0,79,64
27264,note_on,,0,0,2,,,,,,0,62,92
27456,note_off,,192,0,2,,,,,,0,62,64
27456,note_on,,0,0,2,,,,,,0,60,92
27648,note_off,,384,0,1,,,,,,0,69,64
27648,note_on,,0,0,1,,,,,,0,67,92
27648,note_on,,0,0,3,,,,,,0,43,102
27648,note_off,,384,0,3,,,,,,0,50,64
27648,note_on,,0,0,2,,,,,,0,59,92
27648,note_off,,192,0,2,,,,,,0,60,64
27840,note_off,,192,0,2,,,,,,0,59,64
27840,note_on,,0,0,2,,,,,,0,55,92
28032,note_off,,192,0,2,,,,,,0,55,64
28032,note_on,,0,0,2,,,,,,0,60,92
28032,note_off,,0,0,1,,,,,,0,74,64
28032,note_on,,0,0,1,,,,,,0,72,92
28032,note_on,,0,0,1,,,,,,0,76,92
28032,note_off,,384,0,3,,,,,,0,43,64
28032,note_on,,0,0,3,,,,,,0,48,102
28032,note_off,,384,0,1,,,,,,0,78,64
28224,note_off,,192,0,2,,,,,,0,60,64
28224,note_on,,0,0,2,,,,,,0,59,92
28416,note_off,,384,0,1,,,,,,0,67,64
28416,note_on,,0,0,1,,,,,,0,66,92
28416,note_off,,384,0,3,,,,,,0,48,64
28416,note_on,,0,0,3,,,,,,0,42,102
28416,note_off,,192,0,2,,,,,,0,59,64
28416,note_on,,0,0,2,,,,,,0,57,92
28608,note_off,,192,0,2,,,,,,0,57,64
28608,note_on,,0,0,2,,,,,,0,54,92
28800,note_on,,0,0,1,,,,,,0,74,92
28800,note_on,,0,0,2,,,,,,0,59,92
28800,note_on,,0,0,3,,,,,,0,47,102
28800,note_off,,384,0,3,,,,,,0,42,64
28800,note_on,,0,0,1,,,,,,0,71,92
28800,note_off,,192,0,2,,,,,,0,54,64
28800,note_off,,384,0,1,,,,,,0,76,64
28800,note_off,,0,0,1,,,,,,0,72,64
28992,note_off,,192,0,2,,,,,,0,59,64
28992,note_on,,0,0,2,,,,,,0,57,92
29184,note_on,,0,0,1,,,,,,0,64,92
29184,note_on,,0,0,3,,,,,,0,40,102
29184,note_off,,384,0,3,,,,,,0,47,64
29184,note_on,,0,0,2,,,,,,0,55,92
29184,note_off,,192,0,2,,,,,,0,57,64
29184,note_off,,384,0,1,,,,,,0,66,64
29376,note_off,,192,0,2,,,,,,0,55,64
29376,note_on,,0,0,2,,,,,,0,52,92
29568,note_on,,0,0,1,,,,,,0,72,92
29568,note_on,,0,0,1,,,,,,0,69,92
29568,note_off,,192,0,2,,,,,,0,52,64
29568,note_off,,384,0,1,,,,,,0,74,64
29568,note_on,,0,0,3,,,,,,0,45,102
29568,note_on,,0,0,2,,,,,,0,57,92
29568,note_off,,0,0,1,,,,,,0,71,64
29568,note_off,,384,0,3,,,,,,0,40,64
29760,note_on,,0,0,2,,,,,,0,55,92
29760,note_off,,192,0,2,,,,,,0,57,64
29952,note_on,,0,0,2,,,,,,0,54,92
29952,note_off,,384,0,3,,,,,,0,45,64
29952,note_on,,0,0,3,,,,,,0,38,102
29952,note_off,,192,0,2,,,,,,0,55,64
29952,note_on,,0,0,1,,,,,,0,62,92
29952,note_off,,384,0,1,,,,,,0,64,64
30144,note_off,,192,0,2,,,,,,0,54,64
30144,note_on,,0,0,2,,,,,,0,50,92
30336,note_off,,384,0,3,,,,,,0,38,64
30336,note_on,,0,0,3,,,,,,0,43,102
30336,note_on,,0,0,1,,,,,,0,67,92
30336,note_on,,0,0,1,,,,,,0,71,92
30336,note_off,,0,0,1,,,,,,0,69,64
30336,note_off,,384,0,1,,,,,,0,72,64
30336,note_off,,192,0,2,,,,,,0,50,64
30336,note_on,,0,0,2,,,,,,0,55,92
30528,note_off,,192,0,2,,,,,,0,55,64
30528,note_on,,0,0,2,,,,,,0,50,92
30720,note_on,,0,0,1,,,,,,0,64,92
30720,note_off,,384,0,3,,,,,,0,43,64
30720,note_on,,0,0,3,,,,,,0,48,102
30720,note_off,,384,0,1,,,,,,0,67,64
30720,note_on,,0,0,2,,,,,,0,52,92
30720,note_off,,0,0,1,,,,,,0,62,64
30720,note_off,,192,0,2,,,,,,0,50,64
30912,note_off,,192,0,1,,,,,,0,64,64
30912,note_off,,0,0,1,,,,,,0,71,64
30912,note_on,,0,0,1,,,,,,0,64,92
31104,note_on,,0,0,1,,,,,,0,69,92
31104,note_on,,0,0,2,,,,,,0,52,92
31104,note_on,,0,0,2,,,,,,0,57,92
31104,note_off,,384,0,2,,,,,,0,52,64
31104,note_on,,0,0,3,,,,,,0,49,102
31104,note_off,,384,0,3,,,,,,0,48,64
31104,note_off,,192,0,1,,,,,,0,64,64
31296,note_on,,0,0,1,,,,,,0,67,92
31296,note_off,,192,0,1,,,,,,0,69,64
31488,note_on,,0,0,1,,,,,,0,66,92
31488,note_on,,0,0,3,,,,,,0,50,102
31488,note_off,,384,0,3,,,,,,0,49,64
31488,note_on,,0,0,2,,,,,,0,54,92
31488,note_off,,192,0,1,,,,,,0,67,64
31488,note_off,,384,0,2,,,,,,0,52,64
31680,note_off,,192,0,1,,,,,,0,66,64
31680,note_on,,0,0,1,,,,,,0,62,92
31872,note_off,,384,0,2,,,,,,0,54,64
31872,note_off,,0,0,2,,,,,,0,57,64
31872,note_off,,192,0,1,,,,,,0,62,64
31872,note_on,,0,0,1,,,,,,0,71,92
31872,note_on,,0,0,2,,,,,,0,59,92
31872,note_on,,0,0,2,,,,,,0,54,92
31872,note_off,,384,0,3,,,,,,0,50,64
31872,note_on,,0,0,3,,,,,,0,51,102
32064,note_off,,192,0,1,,,,,,0,71,64
32064,note_on,,0,0,1,,,,,,0,69,92
32256,note_off,,384,0,2,,,,,,0,54,64
32256,note_on,,0,0,2,,,,,,0,52,92
32256,note_on,,0,0,3,,,,,,0,52,102
32256,note_on,,0,0,1,,,,,,0,67,92
32256,note_off,,192,0,1,,,,,,0,69,64
32256,note_off,,384,0,3,,,,,,0,51,64
32448,note_on,,0,0,2,,,,,,0,54,92
32448,note_off,,192,0,2,,,,,,0,52,64
32640,note_off,,384,0,3,,,,,,0,52,64
32640,note_on,,0,0,1,,,,,,0,76,92
32640,note_on,,0,0,2,,,,,,0,55,92
32640,note_off,,0,0,2,,,,,,0,59,64
32640,note_off,,192,0,2,,,,,,0,54,64
32640,note_on,,0,0,1,,,,,,0,71,92
32640,note_off,,384,0,1,,,,,,0,67,64
32832,note_off,,192,0,2,,,,,,0,55,64
32832,note_on,,0,0,2,,,,,,0,57,92
33024,note_on,,0,0,1,,,,,,0,75,92
33024,note_on,,0,0,2,,,,,,0,59,92
33024,note_off,,192,0,2,,,,,,0,57,64
33024,note_off,,0,0,1,,,,,,0,71,64
33024,note_off,,384,0,1,,,,,,0,76,64
33024,note_on,,384,0,3,,,,,,0,47,102
33216,note_off,,192,0,2,,,,,,0,59,64
33216,note_on,,192,0,1,,,,,,0,69,92
33216,note_on,,0,0,2,,,,,,0,60,92
33408,note_off,,192,0,2,,,,,,0,60,64
33408,note_on,,0,0,1,,,,,,0,67,92
33408,note_off,,192,0,1,,,,,,0,69,64
33408,note_on,,0,0,2,,,,,,0,59,92
33408,note_off,,384,0,3,,,,,,0,47,64
33600,note_off,,192,0,1,,,,,,0,67,64
33600,note_off,,192,0,2,,,,,,0,59,64
33600,note_on,,0,0,1,,,,,,0,66,92
33600,note_on,,0,0,2,,,,,,0,57,92
33792,note_off,,0,0,1,,,,,,0,75,64
33792,note_on,,0,0,1,,,,,,0,64,92
33792,note_on,,0,0,2,,,,,,0,56,92
33792,note_off,,192,0,1,,,,,,0,66,64
33792,note_off,,192,0,2,,,,,,0,57,64
33792,note_on,,384,0,3,,,,,,0,52,102
33984,note_on,,0,0,2,,,,,,0,59,92
33984,note_off,,192,0,2,,,,,,0,56,64
33984,note_on,,192,0,1,,,,,,0,74,92
34176,note_on,,0,0,2,,,,,,0,57,92
34176,note_off,,192,0,2,,,,,,0,59,64
34176,note_off,,384,0,3,,,,,,0,52,64
34176,note_off,,192,0,1,,,,,,0,74,64
34176,note_on,,0,0,1,,,,,,0,72,92
34368,note_off,,192,0,2,,,,,,0,57,64
34368,note_on,,0,0,2,,,,,,0,56,92
34368,note_on,,0,0,1,,,,,,0,71,92
34368,note_off,,192,0,1,,,,,,0,72,64
34560,note_on,,0,0,2,,,,,,0,57,92
34560,note_on,,0,0,1,,,,,,0,72,92
34560,note_on,,384,0,3,,,,,,0,45,102
34560,note_off,,192,0,1,,,,,,0,71,64
34560,note_off,,192,0,2,,,,,,0,56,64
34752,note_off,,192,0,1,,,,,,0,72,64
34752,note_on,,0,0,1,,,,,,0,69,92
34944,note_off,,384,0,3,,,,,,0,45,64
34944,note_off,,0,0,1,,,,,,0,64,64
34944,note_on,,0,0,1,,,,,,0,65,92
34944,note_off,,384,0,2,,,,,,0,57,64
34944,note_off,,192,0,1,,,,,,0,69,64
35136,note_off,,192,0,1,,,,,,0,65,64
35136,note_on,,0,0,1,,,,,,0,69,92
35328,note_off,,192,0,1,,,,,,0,69,64
35328,note_on,,0,0,1,,,,,,0,59,92
35328,note_on,,0,0,1,,,,,,0,63,92
35328,note_on,,384,0,2,,,,,,0,54,92
35328,note_on,,384,0,3,,,,,,0,45,102
35712,note_on,,0,0,2,,,,,,0,55,92
35712,note_off,,384,0,2,,,,,,0,54,64
35712,note_off,,384,0,3,,,,,,0,45,64
35712,note_on,,0,0,3,,,,,,0,43,102
35712,note_off,,384,0,1,,,,,,0,63,64
35712,note_off,,0,0,1,,,,,,0,59,64
35712,note_on,,0,0,1,,,,,,0,64,92
35712,note_on,,0,0,1,,,,,,0,59,92
35904,note_off,,192,0,3,,,,,,0,43,64
35904,note_on,,0,0,3,,,,,,0,45,102
36096,note_on,,0,0,3,,,,,,0,47,102
36096,note_off,,192,0,3,,,,,,0,45,64
36096,note_on,,0,0,2,,,,,,0,55,92
36096,note_off,,384,0,2,,,,,,0,55,64
36096,note_off,,384,0,1,,,,,,0,59,64
36096,note_on,,0,0,1,,,,,,0,59,92
36480,note_off,,384,0,1,,,,,,0,64,64
36480,note_on,,0,0,2,,,,,,0,54,92
36480,note_off,,384,0,2,,,,,,0,55,64
36480,note_on,,0,0,1,,,,,,0,63,92
36864,note_on,,0,0,1,,,,,,0,64,92
36864,note_off,,768,0,3,,,,,,0,47,64
36864,note_on,,0,0,3,,,,,,0,40,102
36864,note_off,,384,0,1,,,,,,0,63,64
36864,note_on,,0,0,2,,,,,,0,55,92
36864,note_on,,0,0,2,,,,,,0,52,92
36864,note_off,,384,0,2,,,,,,0,54,64
36864,note_off,,0,0,1,,,,,,0,59,64
36864,note_on,,0,0,1,,,,,,0,59,92
38400,set_tempo,576920,38400,1,0,,,,,,,,
38400,note_off,,1536,0,3,,,,,,0,40,64
38400,note_off,,0,0,2,,,,,,0,52,64
38400,note_off,,1536,0,2,,,,,,0,55,64
38400,note_off,,0,0,1,,,,,,0,59,64
38400,note_off,,1536,0,1,,,,,,0,64,64
39936,time_signature,,1536,1,0,3,4,24,8,,,,
39936,note_on,,0,0,1,,,,,,0,64,92
39936,program_change,,1536,0,1,,,,,19,0,,
41088,note_on,,0,0,1,,,,,,0,66,92
41088,note_off,,1152,0,1,,,,,,0,64,64
42240,note_on,,0,0,1,,,,,,0,67,92
42240,note_off,,1152,0,1,,,,,,0,66,64
43008,note_on,,0,0,1,,,,,,0,68,92
43008,note_off,,768,0,1,,,,,,0,67,64
43392,note_off,,384,0,1,,,,,,0,68,64
43392,note_on,,0,0,1,,,,,,0,69,92
44160,note_on,,0,0,1,,,,,,0,70,92
44160,note_off,,768,0,1,,,,,,0,69,64
44544,note_on,,0,0,1,,,,,,0,71,92
44544,note_off,,384,0,1,,,,,,0,70,64
44928,note_off,,384,0,1,,,,,,0,71,64
44928,note_on,,0,0,1,,,,,,0,69,92
45312,note_off,,384,0,1,,,,,,0,69,64
45312,note_on,,0,0,1,,,,,,0,67,92
45696,note_off,,384,0,1,,,,,,0,67,64
45696,note_on,,0,0,1,,,,,,0,69,92
46080,note_off,,384,0,1,,,,,,0,69,64
46080,note_on,,0,0,1,,,,,,0,66,92
46464,note_off,,384,0,1,,,,,,0,66,64
46464,note_on,,0,0,1,,,,,,0,71,92
46848,note_off,,384,0,1,,,,,,0,71,64
46848,note_on,,0,0,1,,,,,,0,67,92
47232,note_on,,0,0,1,,,,,,0,69,92
47232,note_off,,384,0,1,,,,,,0,67,64
47424,note_on,,0,0,1,,,,,,0,67,92
47424,note_off,,192,0,1,,,,,,0,69,64
47616,note_off,,192,0,1,,,,,,0,67,64
47616,note_on,,0,0,1,,,,,,0,66,92
47808,note_off,,192,0,1,,,,,,0,66,64
47808,note_on,,0,0,1,,,,,,0,64,92
48000,note_on,,0,0,1,,,,,,0,59,92
48000,note_on,,0,0,1,,,,,,0,62,92
48000,note_off,,192,0,1,,,,,,0,64,64
48384,note_off,,384,0,1,,,,,,0,62,64
48384,note_on,,0,0,1,,,,,,0,66,92
48768,note_off,,384,0,1,,,,,,0,66,64
48768,note_on,,0,0,1,,,,,,0,71,92
49152,note_off,,384,0,1,,,,,,0,59,64
49152,note_on,,0,0,1,,,,,,0,61,92
49536,note_off,,384,0,1,,,,,,0,71,64
49536,note_on,,0,0,1,,,,,,0,64,92
49920,note_off,,384,0,1,,,,,,0,64,64
49920,note_on,,0,0,1,,,,,,0,69,92
50304,note_off,,384,0,1,,,,,,0,61,64
50304,note_on,,0,0,1,,,,,,0,62,92
50688,note_on,,0,0,1,,,,,,0,66,92
50688,note_off,,384,0,1,,,,,,0,69,64
51072,note_on,,0,0,1,,,,,,0,71,92
51072,note_on,,0,0,1,,,,,,0,63,92
51072,note_off,,0,0,1,,,,,,0,62,64
51072,note_off,,384,0,1,,,,,,0,66,64
51456,note_on,,0,0,1,,,,,,0,64,92
51456,note_off,,384,0,1,,,,,,0,63,64
51840,note_on,,0,0,1,,,,,,0,68,92
51840,note_off,,384,0,1,,,,,,0,71,64
52224,note_on,,0,0,1,,,,,,0,65,92
52224,note_off,,384,0,1,,,,,,0,68,64
52224,note_on,,0,0,1,,,,,,0,73,92
52224,note_off,,0,0,1,,,,,,0,64,64
52608,note_on,,0,0,1,,,,,,0,70,92
52608,note_on,,0,0,1,,,,,,0,66,92
52608,note_off,,0,0,1,,,,,,0,65,64
52608,note_off,,384,0,1,,,,,,0,73,64
52992,note_on,,0,0,1,,,,,,0,64,92
52992,note_off,,384,0,1,,,,,,0,66,64
53376,note_on,,0,0,1,,,,,,0,62,92
53376,note_on,,0,0,1,,,,,,0,71,92
53376,note_off,,0,0,1,,,,,,0,70,64
53376,note_off,,384,0,1,,,,,,0,64,64
53760,note_on,,0,0,1,,,,,,0,64,92
53760,note_off,,384,0,1,,,,,,0,62,64
54144,note_off,,384,0,1,,,,,,0,64,64
54144,note_on,,0,0,1,,,,,,0,61,92
54528,note_off,,384,0,1,,,,,,0,61,64
54528,note_off,,0,0,1,,,,,,0,71,64
54528,note_on,,0,0,1,,,,,,0,66,92
54528,note_on,,0,0,1,,,,,,0,70,92
54912,note_off,,384,0,1,,,,,,0,70,64
54912,note_off,,0,0,1,,,,,,0,66,64
54912,note_on,,0,0,1,,,,,,0,69,92
54912,note_on,,0,0,1,,,,,,0,63,92
55296,note_off,,384,0,1,,,,,,0,63,64
55296,note_on,,0,0,1,,,,,,0,59,92
55680,note_off,,384,0,1,,,,,,0,59,64
55680,note_off,,0,0,1,,,,,,0,69,64
55680,note_on,,0,0,1,,,,,,0,64,92
55680,note_on,,0,0,1,,,,,,0,67,92
56064,note_off,,384,0,1,,,,,,0,67,64
56064,note_on,,0,0,1,,,,,,0,66,92
56448,note_off,,384,0,1,,,,,,0,66,64
56448,note_on,,0,0,1,,,,,,0,67,92
56640,note_off,,192,0,1,,,,,,0,67,64
56640,note_on,,0,0,1,,,,,,0,69,92
56832,note_on,,0,0,1,,,,,,0,63,92
56832,note_off,,0,0,1,,,,,,0,64,64
56832,note_off,,192,0,1,,,,,,0,69,64
56832,note_on,,0,0,1,,,,,,0,71,92
57024,note_on,,0,0,1,,,,,,0,69,92
57024,note_off,,192,0,1,,,,,,0,71,64
57216,note_on,,0,0,1,,,,,,0,64,92
57216,note_off,,0,0,1,,,,,,0,63,64
57216,note_off,,192,0,1,,,,,,0,69,64
57216,note_on,,18816,0,2,,,,,,0,52,92
57216,note_on,,0,0,1,,,,,,0,67,92
57600,note_on,,0,0,1,,,,,,0,71,92
57600,note_off,,384,0,1,,,,,,0,67,64
57984,note_on,,0,0,1,,,,,,0,67,92
57984,note_on,,0,0,1,,,,,,0,76,92
57984,note_off,,0,0,1,,,,,,0,64,64
57984,note_off,,384,0,1,,,,,,0,71,64
58368,note_on,,0,0,2,,,,,,0,54,92
58368,note_off,,1152,0,2,,,,,,0,52,64
58368,note_on,,0,0,1,,,,,,0,69,92
58368,note_off,,384,0,1,,,,,,0,67,64
58752,note_on,,0,0,1,,,,,,0,74,92
58752,note_off,,384,0,1,,,,,,0,76,64
59136,note_off,,384,0,1,,,,,,0,74,64
59136,note_on,,0,0,1,,,,,,0,72,92
59520,note_on,,0,0,1,,,,,,0,71,92
59520,note_off,,384,0,1,,,,,,0,72,64
59520,note_on,,0,0,2,,,,,,0,55,92
59520,note_off,,1152,0,2,,,,,,0,54,64
59904,note_off,,384,0,1,,,,,,0,69,64
59904,note_on,,0,0,1,,,,,,0,67,92
60096,note_off,,192,0,1,,,,,,0,67,64
60096,note_on,,0,0,1,,,,,,0,66,92
60288,note_on,,0,0,1,,,,,,0,64,92
60288,note_off,,192,0,1,,,,,,0,66,64
60288,note_on,,0,0,2,,,,,,0,56,92
60288,note_off,,768,0,2,,,,,,0,55,64
60480,note_on,,0,0,1,,,,,,0,62,92
60480,note_off,,192,0,1,,,,,,0,64,64
60672,note_off,,0,0,1,,,,,,0,71,64
60672,note_on,,0,0,1,,,,,,0,61,92
60672,note_on,,0,0,1,,,,,,0,73,92
60672,note_on,,0,0,2,,,,,,0,57,92
60672,note_off,,384,0,2,,,,,,0,56,64
60672,note_off,,192,0,1,,,,,,0,62,64
61056,note_off,,384,0,1,,,,,,0,61,64
61056,note_on,,0,0,1,,,,,,0,69,92
61248,note_off,,192,0,1,,,,,,0,69,64
61248,note_on,,0,0,1,,,,,,0,67,92
61440,note_on,,0,0,2,,,,,,0,58,92
61440,note_off,,768,0,2,,,,,,0,57,64
61440,note_off,,192,0,1,,,,,,0,67,64
61440,note_on,,0,0,1,,,,,,0,66,92
61632,note_off,,192,0,1,,,,,,0,66,64
61632,note_on,,0,0,1,,,,,,0,64,92
61824,note_on,,23424,0,3,,,,,,0,47,102
61824,note_off,,192,0,1,,,,,,0,64,64
61824,note_off,,0,0,1,,,,,,0,73,64
61824,note_on,,0,0,1,,,,,,0,74,92
61824,note_on,,0,0,1,,,,,,0,62,92
61824,note_on,,0,0,2,,,,,,0,59,92
61824,note_off,,384,0,2,,,,,,0,58,64
62208,note_off,,384,0,1,,,,,,0,62,64
62208,note_on,,0,0,2,,,,,,0,61,92
62208,note_off,,384,0,2,,,,,,0,59,64
62208,note_off,,0,0,1,,,,,,0,74,64
62208,note_on,,0,0,1,,,,,,0,73,92
62208,note_on,,0,0,1,,,,,,0,64,92
62592,note_on,,0,0,2,,,,,,0,62,92
62592,note_on,,0,0,1,,,,,,0,71,92
62592,note_on,,0,0,1,,,,,,0,66,92
62592,note_off,,384,0,2,,,,,,0,61,64
62592,note_off,,0,0,1,,,,,,0,73,64
62592,note_off,,384,0,1,,,,,,0,64,64
62976,note_on,,0,0,3,,,,,,0,49,102
62976,note_on,,0,0,2,,,,,,0,61,92
62976,note_off,,384,0,2,,,,,,0,62,64
62976,note_off,,1152,0,3,,,,,,0,47,64
62976,note_on,,0,0,1,,,,,,0,64,92
62976,note_off,,384,0,1,,,,,,0,66,64
63360,note_off,,384,0,2,,,,,,0,61,64
63360,note_off,,0,0,1,,,,,,0,71,64
63360,note_off,,384,0,1,,,,,,0,64,64
63360,note_on,,0,0,2,,,,,,0,64,92
63360,note_on,,0,0,1,,,,,,0,73,92
63552,note_off,,192,0,2,,,,,,0,64,64
63552,note_on,,0,0,2,,,,,,0,62,92
63552,note_on,,0,0,1,,,,,,0,71,92
63552,note_off,,192,0,1,,,,,,0,73,64
63744,note_off,,192,0,1,,,,,,0,71,64
63744,note_off,,192,0,2,,,,,,0,62,64
63744,note_on,,0,0,2,,,,,,0,61,92
63744,note_on,,0,0,1,,,,,,0,64,92
63744,note_on,,0,0,1,,,,,,0,70,92
64128,note_on,,0,0,1,,,,,,0,66,92
64128,note_off,,0,0,1,,,,,,0,64,64
64128,note_on,,0,0,2,,,,,,0,59,92
64128,note_on,,0,0,1,,,,,,0,71,92
64128,note_off,,384,0,2,,,,,,0,61,64
64128,note_off,,384,0,1,,,,,,0,70,64
64128,note_off,,1152,0,3,,,,,,0,49,64
64128,note_on,,0,0,3,,,,,,0,50,102
64512,note_on,,0,0,2,,,,,,0,62,92
64512,note_off,,384,0,2,,,,,,0,59,64
64704,note_off,,192,0,2,,,,,,0,62,64
64704,note_on,,0,0,2,,,,,,0,60,92
64896,note_on,,0,0,1,,,,,,0,71,92
64896,note_on,,0,0,2,,,,,,0,59,92
64896,note_off,,192,0,2,,,,,,0,60,64
64896,note_off,,768,0,3,,,,,,0,50,64
64896,note_on,,0,0,3,,,,,,0,51,102
64896,note_off,,768,0,1,,,,,,0,71,64
65088,note_off,,192,0,2,,,,,,0,59,64
65088,note_on,,0,0,2,,,,,,0,57,92
65280,note_off,,384,0,3,,,,,,0,51,64
65280,note_on,,0,0,3,,,,,,0,52,102
65280,note_off,,192,0,2,,,,,,0,57,64
65280,note_on,,0,0,2,,,,,,0,56,92
65280,note_off,,384,0,1,,,,,,0,71,64
65280,note_off,,0,0,1,,,,,,0,66,64
65280,note_on,,0,0,1,,,,,,0,68,92
65280,note_on,,0,0,1,,,,,,0,71,92
65664,note_on,,0,0,2,,,,,,0,64,92
65664,note_off,,384,0,2,,,,,,0,56,64
65856,note_on,,0,0,2,,,,,,0,62,92
65856,note_off,,192,0,2,,,,,,0,64,64
66048,note_off,,768,0,1,,,,,,0,71,64
66048,note_on,,0,0,1,,,,,,0,73,92
66048,note_off,,768,0,3,,,,,,0,52,64
66048,note_off,,192,0,2,,,,,,0,62,64
66048,note_on,,0,0,2,,,,,,0,61,92
66048,note_on,,0,0,3,,,,,,0,53,102
66240,note_off,,192,0,2,,,,,,0,61,64
66240,note_on,,0,0,2,,,,,,0,59,92
66432,note_off,,384,0,3,,,,,,0,53,64
66432,note_on,,0,0,1,,,,,,0,70,92
66432,note_off,,0,0,1,,,,,,0,68,64
66432,note_off,,384,0,1,,,,,,0,73,64
66432,note_off,,192,0,2,,,,,,0,59,64
66432,note_on,,0,0,1,,,,,,0,73,92
66432,note_on,,0,0,3,,,,,,0,54,102
66432,note_on,,0,0,2,,,,,,0,58,92
66816,note_on,,0,0,3,,,,,,0,52,102
66816,note_off,,384,0,3,,,,,,0,54,64
67200,note_on,,0,0,1,,,,,,0,66,92
67200,note_on,,0,0,1,,,,,,0,74,92
67200,note_off,,0,0,1,,,,,,0,70,64
67200,note_off,,768,0,1,,,,,,0,73,64
67200,note_off,,768,0,2,,,,,,0,58,64
67200,note_on,,0,0,2,,,,,,0,59,92
67200,note_off,,384,0,3,,,,,,0,52,64
67200,note_on,,0,0,3,,,,,,0,50,102
67584,note_on,,0,0,1,,,,,,0,67,92
67584,note_on,,0,0,1,,,,,,0,73,92
67584,note_off,,0,0,1,,,,,,0,66,64
67584,note_off,,384,0,1,,,,,,0,74,64
67584,note_off,,384,0,3,,,,,,0,50,64
67584,note_on,,0,0,3,,,,,,0,52,102
67968,note_off,,384,0,3,,,,,,0,52,64
67968,note_on,,0,0,3,,,,,,0,49,102
68352,note_on,,0,0,1,,,,,,0,66,92
68352,note_off,,768,0,1,,,,,,0,67,64
68352,note_off,,384,0,3,,,,,,0,49,64
68352,note_off,,1152,0,2,,,,,,0,59,64
68352,note_on,,0,0,2,,,,,,0,58,92
68352,note_on,,0,0,3,,,,,,0,54,102
68736,note_on,,0,0,1,,,,,,0,66,92
68736,note_on,,0,0,1,,,,,,0,74,92
68736,note_off,,0,0,1,,,,,,0,73,64
68736,note_off,,384,0,1,,,,,,0,66,64
68736,note_off,,384,0,2,,,,,,0,58,64
68736,note_on,,0,0,2,,,,,,0,59,92
68736,note_on,,0,0,3,,,,,,0,47,102
68736,note_off,,384,0,3,,,,,,0,54,64
69120,note_off,,384,0,3,,,,,,0,47,64
69120,note_on,,0,0,3,,,,,,0,49,102
69312,note_off,,576,0,1,,,,,,0,74,64
69312,note_on,,0,0,1,,,,,,0,73,92
69504,note_on,,0,0,1,,,,,,0,71,92
69504,note_on,,0,0,1,,,,,,0,66,92
69504,note_off,,192,0,1,,,,,,0,73,64
69504,note_off,,384,0,3,,,,,,0,49,64
69504,note_on,,0,0,3,,,,,,0,50,102
69504,note_off,,0,0,1,,,,,,0,66,64
69696,note_on,,0,0,2,,,,,,0,57,92
69696,note_off,,960,0,2,,,,,,0,59,64
69888,note_on,,0,0,1,,,,,,0,64,92
69888,note_on,,0,0,2,,,,,,0,55,92
69888,note_off,,192,0,2,,,,,,0,57,64
69888,note_on,,0,0,3,,,,,,0,52,102
69888,note_off,,384,0,1,,,,,,0,66,64
69888,note_off,,384,0,3,,,,,,0,50,64
70080,note_on,,0,0,1,,,,,,0,73,92
70080,note_off,,192,0,1,,,,,,0,71,64
70272,note_on,,0,0,3,,,,,,0,54,102
70272,note_off,,0,0,1,,,,,,0,64,64
70272,note_off,,384,0,3,,,,,,0,52,64
70272,note_on,,0,0,1,,,,,,0,64,92
70272,note_on,,0,0,1,,,,,,0,70,92
70272,note_off,,192,0,1,,,,,,0,73,64
70272,note_off,,384,0,2,,,,,,0,55,64
70272,note_on,,0,0,2,,,,,,0,54,92
70656,note_off,,384,0,3,,,,,,0,54,64
70656,note_on,,0,0,3,,,,,,0,42,102
70848,note_on,,0,0,1,,,,,,0,71,92
70848,note_off,,576,0,1,,,,,,0,70,64
71040,note_off,,768,0,2,,,,,,0,54,64
71040,note_on,,0,0,3,,,,,,0,47,102
71040,note_on,,0,0,2,,,,,,0,54,92
71040,note_on,,0,0,1,,,,,,0,62,92
71040,note_on,,0,0,1,,,,,,0,71,92
71040,note_off,,384,0,3,,,,,,0,42,64
71040,note_off,,192,0,1,,,,,,0,71,64
71040,note_off,,0,0,1,,,,,,0,64,64
71424,note_off,,384,0,1,,,,,,0,71,64
71424,note_on,,0,0,1,,,,,,0,66,92
71808,note_off,,768,0,3,,,,,,0,47,64
71808,note_off,,384,0,1,,,,,,0,66,64
71808,note_on,,0,0,1,,,,,,0,74,92
72192,note_off,,1152,0,2,,,,,,0,54,64
72192,note_on,,0,0,2,,,,,,0,55,92
72192,note_on,,0,0,2,,,,,,0,59,92
72192,note_off,,384,0,1,,,,,,0,62,64
72576,note_off,,384,0,1,,,,,,0,74,64
72576,note_on,,0,0,1,,,,,,0,71,92
72960,note_off,,384,0,1,,,,,,0,71,64
72960,note_on,,0,0,1,,,,,,0,76,92
73344,note_on,,0,0,2,,,,,,0,61,92
73344,note_on,,0,0,2,,,,,,0,57,92
73344,note_off,,0,0,2,,,,,,0,55,64
73344,note_off,,1152,0,2,,,,,,0,59,64
73728,note_off,,768,0,1,,,,,,0,76,64
73728,note_on,,0,0,1,,,,,,0,73,92
74112,note_on,,0,0,1,,,,,,0,78,92
74112,note_off,,384,0,1,,,,,,0,73,64
74112,note_on,,0,0,2,,,,,,0,58,92
74112,note_off,,768,0,2,,,,,,0,57,64
74496,note_off,,384,0,2,,,,,,0,58,64
74496,note_on,,0,0,2,,,,,,0,59,92
74496,note_off,,0,0,2,,,,,,0,61,64
74496,note_on,,384,0,1,,,,,,0,62,92
74880,note_on,,0,0,1,,,,,,0,71,92
74880,note_off,,384,0,1,,,,,,0,78,64
75264,note_off,,0,0,1,,,,,,0,62,64
75264,note_on,,0,0,1,,,,,,0,69,92
75264,note_off,,384,0,1,,,,,,0,71,64
75264,note_on,,0,0,1,,,,,,0,63,92
75648,note_on,,0,0,1,,,,,,0,64,92
75648,note_off,,384,0,1,,,,,,0,63,64
75648,note_on,,3840,0,3,,,,,,0,52,102
75648,note_off,,1152,0,2,,,,,,0,59,64
75840,note_on,,192,0,2,,,,,,0,60,92
76032,note_on,,0,0,1,,,,,,0,67,92
76032,note_on,,0,0,2,,,,,,0,59,92
76032,note_off,,192,0,2,,,,,,0,60,64
76032,note_off,,384,0,1,,,,,,0,69,64
76224,note_on,,0,0,2,,,,,,0,57,92
76224,note_off,,192,0,2,,,,,,0,59,64
76224,note_on,,0,0,1,,,,,,0,66,92
76224,note_off,,192,0,1,,,,,,0,67,64
76416,note_on,,0,0,1,,,,,,0,67,92
76416,note_off,,0,0,1,,,,,,0,64,64
76416,note_off,,192,0,2,,,,,,0,57,64
76416,note_on,,0,0,2,,,,,,0,59,92
76416,note_off,,192,0,1,,,,,,0,66,64
76416,note_on,,0,0,1,,,,,,0,64,92
76800,note_on,,0,0,1,,,,,,0,69,92
76800,note_off,,384,0,2,,,,,,0,59,64
76800,note_on,,0,0,2,,,,,,0,57,92
76800,note_off,,384,0,1,,,,,,0,67,64
76800,note_off,,1152,0,3,,,,,,0,52,64
76800,note_on,,0,0,3,,,,,,0,54,102
77184,note_on,,0,0,1,,,,,,0,62,92
77184,note_off,,384,0,1,,,,,,0,64,64
77568,note_on,,0,0,1,,,,,,0,60,92
77568,note_off,,384,0,1,,,,,,0,62,64
77952,note_off,,384,0,1,,,,,,0,60,64
77952,note_on,,0,0,3,,,,,,0,55,102
77952,note_off,,1152,0,3,,,,,,0,54,64
77952,note_off,,1152,0,2,,,,,,0,57,64
77952,note_on,,0,0,2,,,,,,0,59,92
77952,note_off,,0,0,1,,,,,,0,69,64
78336,note_on,,384,0,1,,,,,,0,64,92
78336,note_on,,0,0,1,,,,,,0,79,92
78528,note_off,,192,0,1,,,,,,0,79,64
78528,note_on,,0,0,1,,,,,,0,78,92
78720,note_off,,768,0,3,,,,,,0,55,64
78720,note_on,,0,0,3,,,,,,0,56,102
78720,note_on,,0,0,1,,,,,,0,76,92
78720,note_off,,192,0,1,,,,,,0,78,64
78912,note_off,,192,0,1,,,,,,0,76,64
78912,note_on,,0,0,1,,,,,,0,74,92
79104,note_on,,0,0,3,,,,,,0,57,102
79104,note_off,,384,0,3,,,,,,0,56,64
79104,note_on,,0,0,2,,,,,,0,61,92
79104,note_off,,1152,0,2,,,,,,0,59,64
79104,note_off,,192,0,1,,,,,,0,74,64
79104,note_on,,0,0,1,,,,,,0,73,92
79488,note_on,,0,0,1,,,,,,0,66,92
79488,note_off,,0,0,1,,,,,,0,64,64
79488,note_off,,384,0,1,,,,,,0,73,64
79488,note_on,,0,0,1,,,,,,0,81,92
79680,note_off,,192,0,1,,,,,,0,81,64
79680,note_on,,0,0,1,,,,,,0,79,92
79872,note_off,,192,0,1,,,,,,0,79,64
79872,note_on,,0,0,1,,,,,,0,78,92
79872,note_off,,768,0,3,,,,,,0,57,64
79872,note_on,,0,0,3,,,,,,0,58,102
80064,note_on,,0,0,1,,,,,,0,76,92
80064,note_off,,192,0,1,,,,,,0,78,64
80256,note_on,,0,0,1,,,,,,0,75,92
80256,note_off,,192,0,1,,,,,,0,76,64
80256,note_on,,0,0,3,,,,,,0,59,102
80256,note_on,,0,0,2,,,,,,0,59,92
80256,note_off,,1152,0,2,,,,,,0,61,64
80256,note_off,,384,0,3,,,,,,0,58,64
80640,note_on,,0,0,3,,,,,,0,57,102
80640,note_off,,384,0,3,,,,,,0,59,64
81024,note_off,,768,0,2,,,,,,0,59,64
81024,note_on,,0,0,2,,,,,,0,59,92
81024,note_off,,768,0,1,,,,,,0,75,64
81024,note_on,,0,0,3,,,,,,0,55,102
81024,note_off,,384,0,3,,,,,,0,57,64
81024,note_on,,0,0,1,,,,,,0,76,92
81024,note_off,,0,0,1,,,,,,0,66,64
81024,note_on,,0,0,1,,,,,,0,67,92
81408,note_on,,0,0,3,,,,,,0,54,102
81408,note_off,,384,0,3,,,,,,0,55,64
81408,note_on,,0,0,2,,,,,,0,60,92
81408,note_off,,384,0,2,,,,,,0,59,64
81408,note_on,,0,0,1,,,,,,0,69,92
81408,note_off,,384,0,1,,,,,,0,67,64
81792,note_on,,0,0,1,,,,,,0,67,92
81792,note_on,,0,0,2,,,,,,0,59,92
81792,note_off,,384,0,2,,,,,,0,60,64
81792,note_off,,384,0,1,,,,,,0,69,64
82176,note_off,,384,0,1,,,,,,0,67,64
82176,note_off,,0,0,1,,,,,,0,76,64
82176,note_on,,0,0,1,,,,,,0,75,92
82176,note_on,,0,0,1,,,,,,0,66,92
82176,note_off,,384,0,2,,,,,,0,59,64
82176,note_on,,0,0,2,,,,,,0,57,92
82560,note_on,,0,0,2,,,,,,0,59,92
82560,note_on,,0,0,3,,,,,,0,52,102
82560,note_off,,1152,0,3,,,,,,0,54,64
82560,note_off,,384,0,2,,,,,,0,57,64
82560,note_off,,384,0,1,,,,,,0,66,64
82560,note_off,,0,0,1,,,,,,0,75,64
82560,note_on,,0,0,1,,,,,,0,67,92
82560,note_on,,0,0,1,,,,,,0,76,92
82944,note_on,,0,0,1,,,,,,0,68,92
82944,note_on,,0,0,1,,,,,,0,74,92
82944,note_off,,384,0,1,,,,,,0,76,64
82944,note_off,,0,0,1,,,,,,0,67,64
83328,note_off,,768,0,2,,,,,,0,59,64
83328,note_on,,0,0,2,,,,,,0,57,92
83328,note_off,,384,0,1,,,,,,0,74,64
83328,note_off,,0,0,1,,,,,,0,68,64
83328,note_on,,0,0,1,,,,,,0,72,92
83328,note_on,,0,0,1,,,,,,0,64,92
83712,note_off,,1152,0,3,,,,,,0,52,64
83712,note_on,,0,0,3,,,,,,0,51,102
83712,note_on,,0,0,1,,,,,,0,66,92
83712,note_off,,0,0,1,,,,,,0,64,64
83712,note_off,,384,0,1,,,,,,0,72,64
83712,note_on,,0,0,1,,,,,,0,71,92
84096,note_off,,768,0,2,,,,,,0,57,64
84096,note_on,,0,0,2,,,,,,0,51,92
84288,note_off,,192,0,2,,,,,,0,51,64
84288,note_on,,0,0,2,,,,,,0,52,92
84480,note_off,,192,0,2,,,,,,0,52,64
84480,note_on,,0,0,2,,,,,,0,54,92
84480,note_off,,768,0,3,,,,,,0,51,64
84480,note_on,,0,0,3,,,,,,0,50,102
84672,note_off,,192,0,2,,,,,,0,54,64
84672,note_on,,0,0,2,,,,,,0,56,92
84864,note_on,,0,0,1,,,,,,0,69,92
84864,note_on,,0,0,1,,,,,,0,64,92
84864,note_off,,0,0,1,,,,,,0,66,64
84864,note_off,,1152,0,1,,,,,,0,71,64
84864,note_on,,0,0,3,,,,,,0,49,102
84864,note_off,,192,0,2,,,,,,0,56,64
84864,note_on,,0,0,2,,,,,,0,57,92
84864,note_off,,384,0,3,,,,,,0,50,64
85248,note_off,,384,0,2,,,,,,0,57,64
85248,note_on,,0,0,2,,,,,,0,49,92
85440,note_off,,192,0,2,,,,,,0,49,64
85440,note_on,,0,0,2,,,,,,0,50,92
85632,note_on,,0,0,2,,,,,,0,52,92
85632,note_on,,0,0,3,,,,,,0,48,102
85632,note_off,,192,0,2,,,,,,0,50,64
85632,note_off,,768,0,3,,,,,,0,49,64
85824,note_off,,192,0,2,,,,,,0,52,64
85824,note_on,,0,0,2,,,,,,0,54,92
86016,note_off,,1152,0,1,,,,,,0,69,64
86016,note_on,,0,0,2,,,,,,0,55,92
86016,note_off,,192,0,2,,,,,,0,54,64
86016,note_on,,0,0,3,,,,,,0,47,102
86016,note_off,,384,0,3,,,,,,0,48,64
86016,note_on,,0,0,1,,,,,,0,64,92
86016,note_off,,0,0,1,,,,,,0,64,64
86016,note_on,,0,0,1,,,,,,0,67,92
86400,note_on,,0,0,2,,,,,,0,57,92
86400,note_off,,384,0,2,,,,,,0,55,64
86784,note_on,,0,0,1,,,,,,0,66,92
86784,note_on,,0,0,2,,,,,,0,59,92
86784,note_off,,384,0,2,,,,,,0,57,64
86784,note_off,,768,0,1,,,,,,0,67,64
86784,note_off,,0,0,1,,,,,,0,64,64
86784,note_on,,0,0,1,,,,,,0,62,92
87168,note_off,,384,0,1,,,,,,0,66,64
87168,note_on,,0,0,2,,,,,,0,55,92
87168,note_off,,384,0,2,,,,,,0,59,64
87168,note_off,,0,0,1,,,,,,0,62,64
87168,note_on,,0,0,1,,,,,,0,61,92
87168,note_on,,0,0,1,,,,,,0,64,92
87552,note_on,,0,0,2,,,,,,0,54,92
87552,note_on,,0,0,1,,,,,,0,64,92
87552,note_on,,0,0,1,,,,,,0,61,92
87552,note_off,,1536,0,3,,,,,,0,47,64
87552,note_off,,0,0,1,,,,,,0,61,64
87552,note_off,,384,0,2,,,,,,0,55,64
87552,note_off,,384,0,1,,,,,,0,64,64
87552,note_on,,0,0,3,,,,,,0,46,102
88128,note_off,,576,0,1,,,,,,0,64,64
88128,note_on,,0,0,1,,,,,,0,63,92
88224,note_on,,0,0,1,,,,,,0,64,92
88224,note_off,,96,0,1,,,,,,0,63,64
88320,note_on,,768,0,2,,,,,,0,59,92
88320,note_off,,96,0,1,,,,,,0,64,64
88320,note_on,,0,0,3,,,,,,0,45,102
88320,note_off,,0,0,1,,,,,,0,61,64
88320,note_on,,0,0,1,,,,,,0,63,92
88320,note_off,,768,0,3,,,,,,0,46,64
88896,note_off,,576,0,1,,,,,,0,63,64
88896,note_on,,0,0,1,,,,,,0,61,92
88992,note_off,,96,0,1,,,,,,0,61,64
88992,note_on,,0,0,1,,,,,,0,63,92
89088,note_off,,96,0,1,,,,,,0,63,64
89088,note_off,,768,0,3,,,,,,0,45,64
89088,note_on,,0,0,3,,,,,,0,43,102
89088,note_on,,0,0,2,,,,,,0,59,92
89088,note_on,,0,0,2,,,,,,0,52,92
89088,note_off,,0,0,2,,,,,,0,54,64
89088,note_off,,768,0,2,,,,,,0,59,64
89088,note_on,,0,0,1,,,,,,0,64,92
89472,note_off,,384,0,2,,,,,,0,59,64
89472,note_on,,0,0,2,,,,,,0,57,92
89472,note_on,,0,0,3,,,,,,0,48,102
89472,note_off,,384,0,3,,,,,,0,43,64
89664,note_off,,192,0,2,,,,,,0,52,64
89664,note_on,,0,0,2,,,,,,0,54,92
89856,note_on,,0,0,2,,,,,,0,59,92
89856,note_off,,768,0,1,,,,,,0,64,64
89856,note_on,,0,0,1,,,,,,0,64,92
89856,note_on,,0,0,2,,,,,,0,55,92
89856,note_on,,0,0,3,,,,,,0,47,102
89856,note_off,,384,0,3,,,,,,0,48,64
89856,note_off,,192,0,2,,,,,,0,54,64
89856,note_off,,0,0,2,,,,,,0,57,64
90048,note_off,,192,0,2,,,,,,0,55,64
90048,note_on,,0,0,2,,,,,,0,52,92
90240,note_on,,0,0,2,,,,,,0,54,92
90240,note_off,,192,0,2,,,,,,0,52,64
90432,note_off,,576,0,1,,,,,,0,64,64
90432,note_on,,0,0,1,,,,,,0,63,92
90624,note_on,,0,0,2,,,,,,0,55,92
90624,note_off,,384,0,2,,,,,,0,54,64
90624,note_on,,0,0,1,,,,,,0,64,92
90624,note_on,,0,0,3,,,,,,0,52,102
90624,note_off,,192,0,1,,,,,,0,63,64
90624,note_off,,768,0,3,,,,,,0,47,64
91008,note_off,,384,0,2,,,,,,0,59,64
91008,note_on,,0,0,2,,,,,,0,52,92
91200,note_off,,192,0,2,,,,,,0,52,64
91200,note_off,,0,0,2,,,,,,0,55,64
91200,note_on,,0,0,2,,,,,,0,54,92
91200,note_on,,0,0,2,,,,,,0,57,92
91392,note_off,,192,0,2,,,,,,0,57,64
91392,note_off,,0,0,2,,,,,,0,54,64
91392,note_on,,0,0,2,,,,,,0,55,92
91392,note_on,,0,0,2,,,,,,0,59,92
91584,note_on,,0,0,2,,,,,,0,61,92
91584,note_on,,0,0,2,,,,,,0,57,92
91584,note_off,,0,0,2,,,,,,0,55,64
91584,note_off,,192,0,2,,,,,,0,59,64
91776,note_off,,1152,0,1,,,,,,0,64,64
91776,note_on,,0,0,1,,,,,,0,63,92
91776,note_off,,0,0,2,,,,,,0,57,64
91776,note_on,,0,0,2,,,,,,0,59,92
91776,note_off,,192,0,2,,,,,,0,61,64
91776,note_on,,0,0,2,,,,,,0,63,92
92160,note_off,,384,0,2,,,,,,0,63,64
92160,note_off,,0,0,2,,,,,,0,59,64
92160,note_on,,0,0,2,,,,,,0,51,92
92160,note_on,,0,0,2,,,,,,0,54,92
92352,note_off,,0,0,2,,,,,,0,51,64
92352,note_on,,0,0,2,,,,,,0,52,92
92352,note_on,,0,0,2,,,,,,0,56,92
92352,note_off,,192,0,2,,,,,,0,54,64
92544,note_off,,192,0,2,,,,,,0,56,64
92544,note_off,,0,0,2,,,,,,0,52,64
92544,note_on,,0,0,2,,,,,,0,54,92
92544,note_on,,0,0,2,,,,,,0,57,92
92544,note_off,,768,0,1,,,,,,0,63,64
92544,note_on,,0,0,1,,,,,,0,62,92
92736,note_off,,192,0,2,,,,,,0,57,64
92736,note_on,,0,0,2,,,,,,0,56,92
92736,note_on,,0,0,2,,,,,,0,59,92
92736,note_off,,0,0,2,,,,,,0,54,64
92928,note_off,,192,0,2,,,,,,0,59,64
92928,note_off,,0,0,2,,,,,,0,56,64
92928,note_on,,0,0,2,,,,,,0,45,92
92928,note_on,,0,0,2,,,,,,0,57,92
92928,note_on,,0,0,1,,,,,,0,61,92
92928,note_off,,384,0,1,,,,,,0,62,64
92928,note_off,,2304,0,3,,,,,,0,52,64
93120,note_on,,0,0,2,,,,,,0,47,92
93120,note_off,,192,0,2,,,,,,0,45,64
93312,note_on,,0,0,2,,,,,,0,49,92
93312,note_off,,192,0,2,,,,,,0,47,64
93312,note_on,,0,0,2,,,,,,0,52,92
93312,note_off,,0,0,2,,,,,,0,57,64
93504,note_off,,0,0,2,,,,,,0,52,64
93504,note_off,,192,0,2,,,,,,0,49,64
93504,note_on,,0,0,2,,,,,,0,54,92
93504,note_on,,0,0,2,,,,,,0,50,92
93696,note_on,,0,0,1,,,,,,0,60,92
93696,note_off,,192,0,2,,,,,,0,50,64
93696,note_off,,0,0,2,,,,,,0,54,64
93696,note_on,,0,0,2,,,,,,0,55,92
93696,note_on,,0,0,2,,,,,,0,52,92
93696,note_off,,768,0,1,,,,,,0,61,64
93888,note_on,,0,0,2,,,,,,0,54,92
93888,note_off,,0,0,2,,,,,,0,55,64
93888,note_on,,0,0,2,,,,,,0,57,92
93888,note_off,,192,0,2,,,,,,0,52,64
94080,note_on,,0,0,2,,,,,,0,55,92
94080,note_off,,192,0,2,,,,,,0,54,64
94080,note_off,,0,0,2,,,,,,0,57,64
94080,note_on,,0,0,1,,,,,,0,59,92
94080,note_on,,0,0,1,,,,,,0,71,92
94080,note_off,,384,0,1,,,,,,0,60,64
94272,note_off,,192,0,2,,,,,,0,55,64
94272,note_on,,0,0,2,,,,,,0,54,92
94464,note_on,,0,0,1,,,,,,0,61,92
94464,note_on,,0,0,2,,,,,,0,52,92
94464,note_off,,192,0,2,,,,,,0,54,64
94464,note_off,,384,0,1,,,,,,0,59,64
94656,note_off,,192,0,2,,,,,,0,52,64
94656,note_off,,192,0,1,,,,,,0,61,64
94656,note_on,,0,0,2,,,,,,0,50,92
94656,note_on,,0,0,1,,,,,,0,62,92
94848,note_on,,0,0,1,,,,,,0,64,92
94848,note_off,,192,0,1,,,,,,0,62,64
94848,note_on,,0,0,2,,,,,,0,49,92
94848,note_off,,192,0,2,,,,,,0,50,64
95040,note_on,,0,0,1,,,,,,0,66,92
95040,note_off,,192,0,2,,,,,,0,49,64
95040,note_on,,0,0,2,,,,,,0,47,92
95040,note_off,,192,0,1,,,,,,0,64,64
95232,note_on,,0,0,2,,,,,,0,49,92
95232,note_on,,0,0,1,,,,,,0,64,92
95232,note_on,,0,0,1,,,,,,0,69,92
95232,note_off,,192,0,2,,,,,,0,47,64
95232,note_off,,0,0,1,,,,,,0,71,64
95232,note_off,,192,0,1,,,,,,0,66,64
95424,note_on,,0,0,1,,,,,,0,62,92
95424,note_off,,192,0,2,,,,,,0,49,64
95424,note_on,,0,0,2,,,,,,0,47,92
95424,note_off,,192,0,1,,,,,,0,64,64
95616,note_on,,0,0,2,,,,,,0,45,92
95616,note_off,,192,0,2,,,,,,0,47,64
95616,note_off,,192,0,1,,,,,,0,62,64
95616,note_on,,0,0,1,,,,,,0,61,92
95808,note_on,,0,0,1,,,,,,0,63,92
95808,note_off,,192,0,1,,,,,,0,61,64
95808,note_off,,192,0,2,,,,,,0,45,64
95808,note_on,,0,0,2,,,,,,0,47,92
96000,note_on,,0,0,1,,,,,,0,64,92
96000,note_off,,192,0,1,,,,,,0,63,64
96000,note_off,,192,0,2,,,,,,0,47,64
96000,note_on,,0,0,2,,,,,,0,49,92
96192,note_on,,0,0,1,,,,,,0,66,92
96192,note_off,,192,0,2,,,,,,0,49,64
96192,note_on,,0,0,2,,,,,,0,51,92
96192,note_off,,192,0,1,,,,,,0,64,64
96384,note_on,,0,0,2,,,,,,0,52,92
96384,note_off,,192,0,2,,,,,,0,51,64
96384,note_off,,192,0,1,,,,,,0,66,64
96384,note_off,,0,0,1,,,,,,0,69,64
96384,note_on,,0,0,1,,,,,,0,68,92
96768,note_on,,0,0,2,,,,,,0,40,92
96768,note_off,,384,0,2,,,,,,0,52,64
96768,note_off,,384,0,1,,,,,,0,68,64
96768,note_on,,0,0,1,,,,,,0,68,92
96960,note_on,,192,0,1,,,,,,0,69,92
97152,note_off,,384,0,2,,,,,,0,40,64
97152,note_off,,0,0,1,,,,,,0,68,64
97152,note_on,,0,0,1,,,,,,0,67,92
97152,note_on,,0,0,1,,,,,,0,71,92
97152,note_off,,192,0,1,,,,,,0,69,64
97152,note_on,,0,0,2,,,,,,0,52,92
97344,note_off,,192,0,1,,,,,,0,71,64
97344,note_on,,0,0,1,,,,,,0,73,92
97536,note_off,,384,0,2,,,,,,0,52,64
97536,note_on,,0,0,2,,,,,,0,47,92
97536,note_on,,0,0,1,,,,,,0,66,92
97536,note_off,,0,0,1,,,,,,0,67,64
97536,note_on,,0,0,1,,,,,,0,74,92
97536,note_off,,192,0,1,,,,,,0,73,64
97728,note_off,,192,0,2,,,,,,0,47,64
97728,note_on,,0,0,2,,,,,,0,49,92
97920,note_off,,192,0,2,,,,,,0,49,64
97920,note_on,,0,0,2,,,,,,0,50,92
97920,note_on,,0,0,1,,,,,,0,66,92
97920,note_off,,0,0,1,,,,,,0,66,64
97920,note_off,,384,0,1,,,,,,0,74,64
98112,note_on,,192,0,1,,,,,,0,67,92
98304,note_off,,192,0,1,,,,,,0,67,64
98304,note_off,,0,0,1,,,,,,0,66,64
98304,note_on,,0,0,1,,,,,,0,65,92
98304,note_on,,0,0,1,,,,,,0,69,92
98304,note_off,,384,0,2,,,,,,0,50,64
98304,note_on,,0,0,2,,,,,,0,38,92
98496,note_off,,192,0,1,,,,,,0,69,64
98496,note_on,,0,0,1,,,,,,0,71,92
98688,note_on,,0,0,2,,,,,,0,45,92
98688,note_on,,0,0,1,,,,,,0,72,92
98688,note_on,,0,0,1,,,,,,0,64,92
98688,note_off,,0,0,1,,,,,,0,65,64
98688,note_off,,192,0,1,,,,,,0,71,64
98688,note_off,,384,0,2,,,,,,0,38,64
98880,note_off,,192,0,2,,,,,,0,45,64
98880,note_on,,0,0,2,,,,,,0,47,92
99072,note_off,,384,0,1,,,,,,0,64,64
99072,note_off,,192,0,2,,,,,,0,47,64
99072,note_on,,0,0,2,,,,,,0,48,92
99072,note_on,,0,0,1,,,,,,0,69,92
99264,note_off,,192,0,2,,,,,,0,48,64
99264,note_on,,0,0,2,,,,,,0,50,92
99456,note_on,,0,0,1,,,,,,0,71,92
99456,note_on,,0,0,1,,,,,,0,68,92
99456,note_off,,0,0,1,,,,,,0,72,64
99456,note_off,,384,0,1,,,,,,0,69,64
99456,note_off,,192,0,2,,,,,,0,50,64
99456,note_on,,0,0,2,,,,,,0,52,92
99648,note_on,,0,0,2,,,,,,0,50,92
99648,note_off,,192,0,2,,,,,,0,52,64
99840,note_on,,0,0,2,,,,,,0,48,92
99840,note_off,,192,0,2,,,,,,0,50,64
99840,note_off,,0,0,1,,,,,,0,68,64
99840,note_on,,0,0,1,,,,,,0,64,92
99840,note_on,,0,0,1,,,,,,0,69,92
99840,note_off,,384,0,1,,,,,,0,71,64
100032,note_off,,192,0,2,,,,,,0,48,64
100032,note_on,,0,0,1,,,,,,0,60,92
100032,note_off,,192,0,1,,,,,,0,64,64
100032,note_on,,0,0,2,,,,,,0,45,92
100224,note_on,,0,0,1,,,,,,0,65,92
100224,note_on,,0,0,2,,,,,,0,50,92
100224,note_off,,192,0,2,,,,,,0,45,64
100224,note_off,,192,0,1,,,,,,0,60,64
100416,note_off,,192,0,2,,,,,,0,50,64
100416,note_on,,0,0,2,,,,,,0,47,92
100416,note_off,,192,0,1,,,,,,0,65,64
100416,note_on,,0,0,1,,,,,,0,62,92
100608,note_on,,0,0,2,,,,,,0,52,92
100608,note_off,,192,0,2,,,,,,0,47,64
100608,note_off,,192,0,1,,,,,,0,62,64
100608,note_on,,0,0,1,,,,,,0,59,92
100800,note_off,,192,0,2,,,,,,0,52,64
100800,note_on,,0,0,1,,,,,,0,68,92
100800,note_on,,0,0,2,,,,,,0,40,92
100800,note_off,,192,0,1,,,,,,0,69,64
100992,note_off,,0,0,1,,,,,,0,59,64
100992,note_on,,0,0,1,,,,,,0,60,92
100992,note_on,,0,0,1,,,,,,0,69,92
100992,note_off,,192,0,1,,,,,,0,68,64
100992,note_on,,8064,0,3,,,,,,0,45,102
100992,note_off,,192,0,2,,,,,,0,40,64
100992,note_on,,0,0,2,,,,,,0,52,92
101184,note_on,,0,0,1,,,,,,0,71,92
101184,note_on,,0,0,1,,,,,,0,62,92
101184,note_off,,0,0,1,,,,,,0,60,64
101184,note_off,,192,0,1,,,,,,0,69,64
101376,note_off,,0,0,1,,,,,,0,62,64
101376,note_on,,0,0,1,,,,,,0,64,92
101376,note_on,,0,0,1,,,,,,0,72,92
101376,note_off,,192,0,1,,,,,,0,71,64
101376,note_off,,384,0,2,,,,,,0,52,64
101376,note_on,,0,0,2,,,,,,0,57,92
101568,note_off,,192,0,2,,,,,,0,57,64
101568,note_on,,0,0,2,,,,,,0,55,92
101760,note_on,,0,0,1,,,,,,0,69,92
101760,note_off,,192,0,2,,,,,,0,55,64
101760,note_off,,384,0,1,,,,,,0,64,64
101760,note_on,,0,0,2,,,,,,0,53,92
101952,note_off,,192,0,2,,,,,,0,53,64
101952,note_on,,0,0,2,,,,,,0,52,92
102144,note_off,,192,0,2,,,,,,0,52,64
102144,note_on,,0,0,2,,,,,,0,50,92
102144,note_on,,0,0,1,,,,,,0,74,92
102144,note_off,,384,0,1,,,,,,0,72,64
102144,note_off,,1152,0,3,,,,,,0,45,64
102144,note_on,,0,0,3,,,,,,0,47,102
102336,note_on,,0,0,1,,,,,,0,72,92
102336,note_off,,192,0,1,,,,,,0,69,64
102528,note_on,,0,0,1,,,,,,0,71,92
102528,note_off,,192,0,1,,,,,,0,72,64
102528,note_off,,384,0,2,,,,,,0,50,64
102528,note_on,,0,0,2,,,,,,0,55,92
102720,note_on,,0,0,1,,,,,,0,69,92
102720,note_off,,192,0,1,,,,,,0,71,64
102912,note_off,,192,0,1,,,,,,0,69,64
102912,note_on,,0,0,1,,,,,,0,67,92
103104,note_on,,0,0,1,,,,,,0,65,92
103104,note_off,,192,0,1,,,,,,0,67,64
103296,note_on,,0,0,1,,,,,,0,76,92
103296,note_on,,0,0,1,,,,,,0,64,92
103296,note_off,,0,0,1,,,,,,0,74,64
103296,note_off,,192,0,1,,,,,,0,65,64
103296,note_off,,1152,0,3,,,,,,0,47,64
103296,note_on,,0,0,3,,,,,,0,48,102
103488,note_off,,192,0,1,,,,,,0,76,64
103488,note_on,,0,0,1,,,,,,0,74,92
103680,note_on,,0,0,1,,,,,,0,72,92
103680,note_off,,192,0,1,,,,,,0,74,64
103680,note_off,,1152,0,2,,,,,,0,55,64
103680,note_on,,0,0,2,,,,,,0,57,92
103872,note_off,,192,0,1,,,,,,0,72,64
103872,note_on,,0,0,1,,,,,,0,71,92
104064,note_off,,192,0,1,,,,,,0,71,64
104064,note_on,,0,0,1,,,,,,0,69,92
104064,note_on,,0,0,3,,,,,,0,49,102
104064,note_off,,768,0,3,,,,,,0,48,64
104256,note_on,,0,0,1,,,,,,0,67,92
104256,note_off,,192,0,1,,,,,,0,69,64
104448,note_on,,0,0,1,,,,,,0,62,92
104448,note_on,,0,0,3,,,,,,0,50,102
104448,note_off,,192,0,1,,,,,,0,67,64
104448,note_on,,0,0,1,,,,,,0,66,92
104448,note_off,,384,0,3,,,,,,0,49,64
104448,note_off,,0,0,1,,,,,,0,64,64
104832,note_on,,0,0,1,,,,,,0,74,92
104832,note_off,,384,0,1,,,,,,0,62,64
104832,note_on,,0,0,2,,,,,,0,59,92
104832,note_off,,1152,0,2,,,,,,0,57,64
105024,note_on,,0,0,1,,,,,,0,72,92
105024,note_off,,192,0,1,,,,,,0,74,64
105216,note_off,,768,0,3,,,,,,0,50,64
105216,note_off,,192,0,1,,,,,,0,72,64
105216,note_on,,0,0,3,,,,,,0,51,102
105216,note_on,,0,0,1,,,,,,0,71,92
105408,note_on,,0,0,1,,,,,,0,69,92
105408,note_off,,192,0,1,,,,,,0,71,64
105600,note_off,,0,0,1,,,,,,0,66,64
105600,note_off,,192,0,1,,,,,,0,69,64
105600,note_on,,0,0,1,,,,,,0,67,92
105600,note_off,,384,0,3,,,,,,0,51,64
105600,note_on,,0,0,1,,,,,,0,64,92
105600,note_on,,0,0,3,,,,,,0,52,102
105792,note_off,,960,0,2,,,,,,0,59,64
105792,note_on,,0,0,2,,,,,,0,59,92
105984,note_off,,384,0,1,,,,,,0,64,64
105984,note_off,,192,0,2,,,,,,0,59,64
105984,note_on,,0,0,2,,,,,,0,64,92
106176,note_on,,0,0,2,,,,,,0,62,92
106176,note_off,,192,0,2,,,,,,0,64,64
106368,note_off,,384,0,1,,,,,,0,67,64
106368,note_on,,0,0,1,,,,,,0,68,92
106368,note_on,,0,0,2,,,,,,0,60,92
106368,note_off,,192,0,2,,,,,,0,62,64
106368,note_on,,0,0,1,,,,,,0,64,92
106560,note_off,,192,0,2,,,,,,0,60,64
106560,note_on,,0,0,2,,,,,,0,59,92
106752,note_on,,0,0,2,,,,,,0,57,92
106752,note_off,,1152,0,3,,,,,,0,52,64
106752,note_on,,0,0,3,,,,,,0,54,102
106752,note_on,,0,0,1,,,,,,0,69,92
106752,note_off,,384,0,1,,,,,,0,68,64
106752,note_off,,192,0,2,,,,,,0,59,64
106944,note_off,,192,0,1,,,,,,0,64,64
106944,note_on,,0,0,1,,,,,,0,64,92
107136,note_on,,0,0,1,,,,,,0,69,92
107136,note_off,,0,0,1,,,,,,0,69,64
107136,note_off,,192,0,1,,,,,,0,64,64
107328,note_on,,192,0,1,,,,,,0,67,92
107520,note_off,,768,0,2,,,,,,0,57,64
107520,note_on,,0,0,1,,,,,,0,66,92
107520,note_on,,0,0,1,,,,,,0,70,92
107520,note_off,,0,0,1,,,,,,0,69,64
107520,note_off,,192,0,1,,,,,,0,67,64
107520,note_on,,0,0,2,,,,,,0,61,92
107712,note_on,,0,0,1,,,,,,0,64,92
107712,note_off,,192,0,1,,,,,,0,66,64
107904,note_on,,0,0,2,,,,,,0,59,92
107904,note_on,,0,0,3,,,,,,0,55,102
107904,note_off,,1152,0,3,,,,,,0,54,64
107904,note_off,,384,0,2,,,,,,0,61,64
107904,note_off,,192,0,1,,,,,,0,64,64
107904,note_off,,0,0,1,,,,,,0,70,64
107904,note_on,,0,0,1,,,,,,0,71,92
107904,note_on,,0,0,1,,,,,,0,62,92
108096,note_off,,192,0,1,,,,,,0,62,64
108096,note_on,,0,0,1,,,,,,0,64,92
108192,note_off,,96,0,1,,,,,,0,64,64
108192,note_on,,0,0,1,,,,,,0,66,92
108288,note_off,,96,0,1,,,,,,0,66,64
108288,note_on,,0,0,1,,,,,,0,67,92
108288,note_on,,0,0,2,,,,,,0,64,92
108288,note_off,,384,0,2,,,,,,0,59,64
108480,note_on,,0,0,1,,,,,,0,69,92
108480,note_off,,192,0,1,,,,,,0,67,64
108672,note_off,,192,0,1,,,,,,0,69,64
108672,note_on,,0,0,1,,,,,,0,71,92
108672,note_off,,768,0,3,,,,,,0,55,64
108672,note_on,,0,0,3,,,,,,0,56,102
108672,note_off,,0,0,1,,,,,,0,71,64
108864,note_on,,0,0,2,,,,,,0,62,92
108864,note_off,,576,0,2,,,,,,0,64,64
109056,note_on,,384,0,1,,,,,,0,73,92
109056,note_off,,384,0,3,,,,,,0,56,64
109056,note_off,,192,0,2,,,,,,0,62,64
109056,note_on,,0,0,2,,,,,,0,61,92
109056,note_on,,0,0,3,,,,,,0,57,102
109248,note_off,,192,0,1,,,,,,0,71,64
109248,note_on,,0,0,1,,,,,,0,69,92
109344,note_on,,0,0,1,,,,,,0,68,92
109344,note_off,,96,0,1,,,,,,0,69,64
109440,note_off,,384,0,2,,,,,,0,61,64
109440,note_off,,96,0,1,,,,,,0,68,64
109440,note_on,,0,0,1,,,,,,0,69,92
109440,note_on,,0,0,2,,,,,,0,66,92
109632,note_on,,0,0,1,,,,,,0,71,92
109632,note_off,,192,0,1,,,,,,0,69,64
109824,note_off,,768,0,3,,,,,,0,57,64
109824,note_on,,0,0,1,,,,,,0,73,92
109824,note_off,,0,0,1,,,,,,0,73,64
109824,note_off,,192,0,1,,,,,,0,71,64
109824,note_on,,0,0,3,,,,,,0,58,102
110016,note_off,,576,0,2,,,,,,0,66,64
110016,note_on,,0,0,2,,,,,,0,64,92
110208,note_off,,192,0,2,,,,,,0,64,64
110208,note_on,,384,0,1,,,,,,0,74,92
110208,note_on,,0,0,3,,,,,,0,59,102
110208,note_off,,384,0,3,,,,,,0,58,64
110208,note_on,,0,0,2,,,,,,0,62,92
110400,note_on,,0,0,1,,,,,,0,71,92
110400,note_off,,192,0,1,,,,,,0,73,64
110496,note_on,,0,0,1,,,,,,0,70,92
110496,note_off,,96,0,1,,,,,,0,71,64
110592,note_off,,96,0,1,,,,,,0,70,64
110592,note_on,,0,0,2,,,,,,0,67,92
110592,note_off,,384,0,2,,,,,,0,62,64
110592,note_on,,0,0,1,,,,,,0,71,92
110784,note_on,,0,0,2,,,,,,0,66,92
110784,note_off,,192,0,2,,,,,,0,67,64
110784,note_off,,192,0,1,,,,,,0,71,64
110784,note_on,,0,0,1,,,,,,0,69,92
110976,note_off,,192,0,1,,,,,,0,69,64
110976,note_on,,0,0,1,,,,,,0,67,92
110976,note_on,,0,0,2,,,,,,0,64,92
110976,note_off,,192,0,2,,,,,,0,66,64
111168,note_on,,0,0,1,,,,,,0,66,92
111168,note_off,,192,0,1,,,,,,0,67,64
111168,note_on,,0,0,2,,,,,,0,62,92
111168,note_off,,192,0,2,,,,,,0,64,64
111360,note_off,,0,0,1,,,,,,0,74,64
111360,note_on,,0,0,1,,,,,,0,73,92
111360,note_off,,192,0,1,,,,,,0,66,64
111360,note_on,,0,0,1,,,,,,0,67,92
111360,note_off,,192,0,2,,,,,,0,62,64
111360,note_on,,0,0,2,,,,,,0,64,92
111552,note_off,,192,0,2,,,,,,0,64,64
111552,note_on,,0,0,2,,,,,,0,62,92
111744,note_on,,0,0,3,,,,,,0,58,102
111744,note_off,,1536,0,3,,,,,,0,59,64
111744,note_off,,384,0,1,,,,,,0,67,64
111744,note_on,,0,0,2,,,,,,0,61,92
111744,note_off,,192,0,2,,,,,,0,62,64
111744,note_on,,0,0,1,,,,,,0,66,92
111936,note_on,,0,0,2,,,,,,0,62,92
111936,note_off,,192,0,2,,,,,,0,61,64
112032,note_on,,0,0,2,,,,,,0,64,92
112032,note_off,,96,0,2,,,,,,0,62,64
112128,note_off,,96,0,2,,,,,,0,64,64
112128,note_on,,0,0,2,,,,,,0,62,92
112320,note_on,,0,0,2,,,,,,0,61,92
112320,note_off,,192,0,2,,,,,,0,62,64
112512,note_on,,0,0,2,,,,,,0,62,92
112512,note_off,,192,0,2,,,,,,0,61,64
112512,note_on,,0,0,3,,,,,,0,59,102
112512,note_off,,768,0,3,,,,,,0,58,64
112704,note_off,,0,0,1,,,,,,0,73,64
112704,note_on,,0,0,1,,,,,,0,66,92
112704,note_off,,960,0,1,,,,,,0,66,64
112896,note_on,,192,0,1,,,,,,0,71,92
113088,note_on,,0,0,1,,,,,,0,69,92
113088,note_off,,192,0,1,,,,,,0,71,64
113280,note_on,,0,0,1,,,,,,0,67,92
113280,note_off,,0,0,1,,,,,,0,66,64
113280,note_off,,768,0,3,,,,,,0,59,64
113280,note_on,,0,0,3,,,,,,0,51,102
113280,note_off,,768,0,2,,,,,,0,62,64
113280,note_on,,0,0,2,,,,,,0,59,92
113280,note_off,,192,0,1,,,,,,0,69,64
113472,note_on,,0,0,1,,,,,,0,66,92
113472,note_off,,192,0,1,,,,,,0,67,64
113664,note_off,,384,0,3,,,,,,0,51,64
113664,note_on,,0,0,3,,,,,,0,52,102
113664,note_on,,0,0,1,,,,,,0,67,92
113664,note_off,,192,0,1,,,,,,0,66,64
113664,note_off,,384,0,2,,,,,,0,59,64
113664,note_on,,0,0,1,,,,,,0,76,92
113856,note_on,,192,0,2,,,,,,0,59,92
114048,note_on,,0,0,2,,,,,,0,60,92
114048,note_off,,192,0,2,,,,,,0,59,64
114240,note_on,,0,0,2,,,,,,0,59,92
114240,note_off,,192,0,2,,,,,,0,60,64
114240,note_on,,576,0,1,,,,,,0,74,92
114432,note_off,,192,0,2,,,,,,0,59,64
114432,note_off,,192,0,1,,,,,,0,74,64
114432,note_on,,0,0,1,,,,,,0,72,92
114432,note_on,,0,0,2,,,,,,0,57,92
114624,note_off,,192,0,2,,,,,,0,57,64
114624,note_on,,0,0,1,,,,,,0,71,92
114624,note_off,,192,0,1,,,,,,0,72,64
114624,note_on,,0,0,2,,,,,,0,55,92
114816,note_off,,192,0,2,,,,,,0,55,64
114816,note_on,,0,0,3,,,,,,0,54,102
114816,note_on,,0,0,2,,,,,,0,57,92
114816,note_off,,192,0,1,,,,,,0,71,64
114816,note_off,,0,0,1,,,,,,0,76,64
114816,note_off,,0,0,1,,,,,,0,67,64
114816,note_on,,0,0,1,,,,,,0,74,92
114816,note_on,,0,0,1,,,,,,0,69,92
114816,note_off,,1152,0,3,,,,,,0,52,64
115008,note_off,,192,0,1,,,,,,0,69,64
115008,note_on,,0,0,1,,,,,,0,67,92
115200,note_off,,192,0,1,,,,,,0,67,64
115200,note_on,,0,0,1,,,,,,0,66,92
115392,note_off,,576,0,2,,,,,,0,57,64
115392,note_on,,0,0,2,,,,,,0,64,92
115584,note_off,,192,0,2,,,,,,0,64,64
115584,note_on,,0,0,2,,,,,,0,62,92
115776,note_off,,192,0,2,,,,,,0,62,64
115776,note_on,,0,0,2,,,,,,0,60,92
115968,note_off,,192,0,2,,,,,,0,60,64
115968,note_on,,0,0,2,,,,,,0,59,92
115968,note_off,,768,0,1,,,,,,0,66,64
115968,note_off,,1152,0,3,,,,,,0,54,64
115968,note_on,,0,0,3,,,,,,0,55,102
116160,note_on,,0,0,1,,,,,,0,74,92
116160,note_off,,192,0,1,,,,,,0,74,64
116352,note_on,,0,0,1,,,,,,0,64,92
116352,note_off,,192,0,1,,,,,,0,74,64
116352,note_on,,0,0,1,,,,,,0,79,92
116544,note_off,,192,0,1,,,,,,0,79,64
116544,note_on,,0,0,1,,,,,,0,78,92
116736,note_off,,768,0,3,,,,,,0,55,64
116736,note_off,,192,0,1,,,,,,0,78,64
116736,note_on,,0,0,1,,,,,,0,76,92
116736,note_on,,0,0,3,,,,,,0,56,102
116928,note_off,,192,0,1,,,,,,0,76,64
116928,note_on,,0,0,1,,,,,,0,74,92
117120,note_off,,1152,0,2,,,,,,0,59,64
117120,note_on,,0,0,2,,,,,,0,61,92
117120,note_off,,384,0,3,,,,,,0,56,64
117120,note_on,,0,0,1,,,,,,0,73,92
117120,note_off,,192,0,1,,,,,,0,74,64
117120,note_on,,0,0,3,,,,,,0,57,102
117312,note_on,,0,0,1,,,,,,0,64,92
117312,note_off,,192,0,1,,,,,,0,64,64
117504,note_on,,0,0,1,,,,,,0,66,92
117504,note_on,,0,0,1,,,,,,0,81,92
117504,note_off,,192,0,1,,,,,,0,64,64
117504,note_off,,0,0,1,,,,,,0,73,64
117696,note_off,,192,0,1,,,,,,0,81,64
117696,note_on,,0,0,1,,,,,,0,79,92
117888,note_off,,768,0,3,,,,,,0,57,64
117888,note_on,,0,0,3,,,,,,0,58,102
117888,note_off,,192,0,1,,,,,,0,79,64
117888,note_on,,0,0,1,,,,,,0,78,92
118080,note_on,,0,0,1,,,,,,0,76,92
118080,note_off,,192,0,1,,,,,,0,78,64
118272,note_off,,1152,0,2,,,,,,0,61,64
118272,note_on,,0,0,1,,,,,,0,75,92
118272,note_on,,0,0,3,,,,,,0,59,102
118272,note_off,,384,0,3,,,,,,0,58,64
118272,note_on,,0,0,2,,,,,,0,59,92
118272,note_off,,192,0,1,,,,,,0,76,64
118656,note_off,,384,0,3,,,,,,0,59,64
118656,note_on,,0,0,3,,,,,,0,57,102
119040,note_off,,384,0,3,,,,,,0,57,64
119040,note_on,,0,0,3,,,,,,0,55,102
119040,note_on,,0,0,1,,,,,,0,76,92
119040,note_off,,768,0,1,,,,,,0,75,64
119040,note_on,,0,0,2,,,,,,0,59,92
119040,note_on,,0,0,1,,,,,,0,67,92
119040,note_off,,768,0,2,,,,,,0,59,64
119040,note_off,,0,0,1,,,,,,0,66,64
119424,note_off,,384,0,1,,,,,,0,67,64
119424,note_off,,384,0,3,,,,,,0,55,64
119424,note_on,,0,0,2,,,,,,0,60,92
119424,note_on,,0,0,3,,,,,,0,54,102
119424,note_off,,384,0,2,,,,,,0,59,64
119424,note_on,,0,0,1,,,,,,0,69,92
119808,note_on,,0,0,2,,,,,,0,59,92
119808,note_off,,384,0,2,,,,,,0,60,64
119808,note_off,,384,0,1,,,,,,0,69,64
119808,note_on,,0,0,1,,,,,,0,67,92
120192,note_on,,0,0,1,,,,,,0,75,92
120192,note_on,,0,0,1,,,,,,0,66,92
120192,note_on,,0,0,2,,,,,,0,57,92
120192,note_off,,384,0,2,,,,,,0,59,64
120192,note_off,,0,0,1,,,,,,0,76,64
120192,note_off,,384,0,1,,,,,,0,67,64
120576,note_on,,0,0,2,,,,,,0,59,92
120576,note_off,,384,0,2,,,,,,0,57,64
120576,set_tempo,638290,80640,1,0,,,,,,,,
120576,time_signature,,0,1,0,6,4,24,8,,,,
120576,note_on,,0,0,3,,,,,,0,52,102
120576,note_on,,0,0,1,,,,,,0,76,92
120576,note_off,,384,0,1,,,,,,0,66,64
120576,note_off,,0,0,1,,,,,,0,75,64
120576,note_on,,0,0,1,,,,,,0,67,92
120576,note_off,,1152,0,3,,,,,,0,54,64
121344,note_off,,768,0,2,,,,,,0,59,64
121344,note_on,,0,0,3,,,,,,0,59,102
121344,note_on,,0,0,2,,,,,,0,59,92
121344,note_off,,768,0,3,,,,,,0,52,64
121344,note_off,,768,0,1,,,,,,0,76,64
121344,note_on,,0,0,1,,,,,,0,64,92
122112,note_off,,768,0,3,,,,,,0,59,64
122112,note_on,,0,0,3,,,,,,0,47,102
122112,note_off,,0,0,1,,,,,,0,67,64
122112,note_on,,0,0,1,,,,,,0,63,92
122112,note_on,,0,0,1,,,,,,0,66,92
122112,note_off,,768,0,1,,,,,,0,64,64
122496,note_off,,1152,0,2,,,,,,0,59,64
122496,note_on,,0,0,2,,,,,,0,57,92
122880,note_off,,0,0,1,,,,,,0,63,64
122880,note_on,,0,0,1,,,,,,0,64,92
122880,set_tempo,705880,2304,1,0,,,,,,,,
122880,note_off,,384,0,2,,,,,,0,57,64
122880,note_on,,0,0,2,,,,,,0,52,92
122880,note_on,,0,0,2,,,,,,0,55,92
122880,note_on,,0,0,2,,,,,,0,59,92
122880,note_off,,768,0,3,,,,,,0,47,64
122880,note_on,,0,0,3,,,,,,0,40,102
122880,note_off,,768,0,1,,,,,,0,66,64
125184,note_off,,0,0,2,,,,,,0,52,64
125184,note_off,,2304,0,3,,,,,,0,40,64
125184,end_of_track,,0,1,2,,,,,,,,
125184,note_off,,2304,0,1,,,,,,0,64,64
125184,end_of_track,,0,1,1,,,,,,,,
125184,note_off,,2304,0,2,,,,,,0,59,64
125184,note_off,,0,0,2,,,,,,0,55,64
125184,end_of_track,,2304,1,0,,,,,,,,
125184,end_of_track,,0,1,3,,,,,,,,
