tick,type,key,time,meta,track,frame_rate,hours,minutes,seconds,frames,sub_frames,data,tempo,numerator,denominator,clocks_per_click,notated_32nd_notes_per_beat,port,program,channel,control,value,note,velocity
0,key_signature,C,0,1,0,,,,,,,,,,,,,,,,,,,
0,midi_port,,0,1,1,,,,,,,,,,,,,0,,,,,,
0,control_change,,0,0,1,,,,,,,,,,,,,,,3,93,0,,
0,control_change,,0,0,1,,,,,,,,,,,,,,,3,7,127,,
0,control_change,,0,0,1,,,,,,,,,,,,,,,3,10,64,,
0,control_change,,0,0,1,,,,,,,,,,,,,,,3,91,127,,
0,track_name,,0,1,1,,,,,,,,,,,,,,,,,,,
0,time_signature,,0,1,0,,,,,,,,,4,4,24,8,,,,,,,
0,set_tempo,,0,1,0,,,,,,,,1200000,,,,,,,,,,,
0,program_change,,0,0,1,,,,,,,,,,,,,,19,3,,,,
0,sysex,,0,0,0,,,,,,,"(65, 16, 66, 18, 64, 20, 34, 127, 11)",,,,,,,,,,,,
0,sysex,,0,0,0,,,,,,,"(65, 16, 66, 18, 64, 20, 0, 8, 19, 17)",,,,,,,,,,,,
0,sysex,,0,0,0,,,,,,,"(65, 16, 66, 18, 64, 1, 52, 127, 12)",,,,,,,,,,,,
0,sysex,,0,0,0,,,,,,,"(65, 16, 66, 18, 64, 1, 51, 127, 13)",,,,,,,,,,,,
0,sysex,,0,0,0,,,,,,,"(65, 16, 66, 18, 64, 0, 127, 0, 65)",,,,,,,,,,,,
0,sequencer_specific,,0,1,0,,,,,,,"(0, 0, 0, 106, 0, 3, 68, 69, 70, 65, 85, 76, 84, 46, 87, 86, 66)",,,,,,,,,,,,
0,smpte_offset,,0,1,0,25,32,0,0,0,0,,,,,,,,,,,,,
0,sysex,,0,0,0,,,,,,,"(65, 16, 66, 18, 64, 20, 0, 8, 19, 17)",,,,,,,,,,,,
0,sysex,,0,0,0,,,,,,,"(65, 16, 66, 18, 64, 20, 25, 127, 20)",,,,,,,,,,,,
150,note_on,,150,0,1,,,,,,,,,,,,,,,3,,,72,127
164,set_tempo,,164,1,0,,,,,,,,1500000,,,,,,,,,,,
173,note_on,,23,0,1,,,,,,,,,,,,,,,3,,,72,0
180,note_on,,7,0,1,,,,,,,,,,,,,,,3,,,76,127
203,note_on,,23,0,1,,,,,,,,,,,,,,,3,,,76,0
210,note_on,,7,0,1,,,,,,,,,,,,,,,3,,,79,127
216,set_tempo,,52,1,0,,,,,,,,1200000,,,,,,,,,,,
222,note_on,,12,0,1,,,,,,,,,,,,,,,3,,,79,0
225,note_on,,3,0,1,,,,,,,,,,,,,,,3,,,71,127
237,note_on,,12,0,1,,,,,,,,,,,,,,,3,,,71,0
240,note_on,,3,0,1,,,,,,,,,,,,,,,3,,,77,127
241,set_tempo,,25,1,0,,,,,,,,2142857,,,,,,,,,,,
244,set_tempo,,3,1,0,,,,,,,,1875000,,,,,,,,,,,
263,note_on,,23,0,1,,,,,,,,,,,,,,,3,,,77,0
279,set_tempo,,35,1,0,,,,,,,,1428571,,,,,,,,,,,
283,set_tempo,,4,1,0,,,,,,,,1764705,,,,,,,,,,,
330,set_tempo,,47,1,0,,,,,,,,1200000,,,,,,,,,,,
390,note_on,,127,0,1,,,,,,,,,,,,,,,3,,,69,127
413,note_on,,23,0,1,,,,,,,,,,,,,,,3,,,69,0
416,set_tempo,,86,1,0,,,,,,,,1500000,,,,,,,,,,,
420,note_on,,7,0,1,,,,,,,,,,,,,,,3,,,71,127
443,note_on,,23,0,1,,,,,,,,,,,,,,,3,,,71,0
450,note_on,,7,0,1,,,,,,,,,,,,,,,3,,,74,127
456,set_tempo,,40,1,0,,,,,,,,1200000,,,,,,,,,,,
462,note_on,,12,0,1,,,,,,,,,,,,,,,3,,,74,0
465,note_on,,3,0,1,,,,,,,,,,,,,,,3,,,67,127
477,note_on,,12,0,1,,,,,,,,,,,,,,,3,,,67,0
480,note_on,,3,0,1,,,,,,,,,,,,,,,3,,,76,127
481,set_tempo,,25,1,0,,,,,,,,1764705,,,,,,,,,,,
503,note_on,,23,0,1,,,,,,,,,,,,,,,3,,,76,0
517,set_tempo,,36,1,0,,,,,,,,1200000,,,,,,,,,,,
540,set_tempo,,23,1,0,,,,,,,,1666666,,,,,,,,,,,
545,set_tempo,,5,1,0,,,,,,,,1875000,,,,,,,,,,,
586,set_tempo,,41,1,0,,,,,,,,1200000,,,,,,,,,,,
590,set_tempo,,4,1,0,,,,,,,,1132075,,,,,,,,,,,
600,note_on,,97,0,1,,,,,,,,,,,,,,,3,,,72,127
612,note_on,,12,0,1,,,,,,,,,,,,,,,3,,,72,0
615,note_on,,3,0,1,,,,,,,,,,,,,,,3,,,71,127
627,note_on,,12,0,1,,,,,,,,,,,,,,,3,,,71,0
630,note_on,,3,0,1,,,,,,,,,,,,,,,3,,,69,127
642,note_on,,12,0,1,,,,,,,,,,,,,,,3,,,69,0
645,note_on,,3,0,1,,,,,,,,,,,,,,,3,,,67,127
657,note_on,,12,0,1,,,,,,,,,,,,,,,3,,,67,0
660,note_on,,3,0,1,,,,,,,,,,,,,,,3,,,65,127
672,note_on,,12,0,1,,,,,,,,,,,,,,,3,,,65,0
675,note_on,,3,0,1,,,,,,,,,,,,,,,3,,,64,127
687,note_on,,12,0,1,,,,,,,,,,,,,,,3,,,64,0
690,note_on,,3,0,1,,,,,,,,,,,,,,,3,,,62,127
702,note_on,,12,0,1,,,,,,,,,,,,,,,3,,,62,0
705,note_on,,3,0,1,,,,,,,,,,,,,,,3,,,60,127
717,note_on,,12,0,1,,,,,,,,,,,,,,,3,,,60,0
720,note_on,,3,0,1,,,,,,,,,,,,,,,3,,,59,127
732,note_on,,12,0,1,,,,,,,,,,,,,,,3,,,59,0
735,note_on,,3,0,1,,,,,,,,,,,,,,,3,,,62,127
747,note_on,,12,0,1,,,,,,,,,,,,,,,3,,,62,0
750,note_on,,3,0,1,,,,,,,,,,,,,,,3,,,65,127
762,note_on,,12,0,1,,,,,,,,,,,,,,,3,,,65,0
765,note_on,,3,0,1,,,,,,,,,,,,,,,3,,,59,127
770,set_tempo,,180,1,0,,,,,,,,1304347,,,,,,,,,,,
777,note_on,,12,0,1,,,,,,,,,,,,,,,3,,,59,0
780,note_on,,3,0,1,,,,,,,,,,,,,,,3,,,60,127
803,note_on,,23,0,1,,,,,,,,,,,,,,,3,,,60,0
810,note_on,,7,0,1,,,,,,,,,,,,,,,3,,,48,127
815,set_tempo,,45,1,0,,,,,,,,1714285,,,,,,,,,,,
833,note_on,,23,0,1,,,,,,,,,,,,,,,3,,,48,0
900,set_tempo,,85,1,0,,,,,,,,1200000,,,,,,,,,,,
920,set_tempo,,20,1,0,,,,,,,,1132075,,,,,,,,,,,
975,note_on,,142,0,1,,,,,,,,,,,,,,,3,,,60,127
987,note_on,,12,0,1,,,,,,,,,,,,,,,3,,,60,0
990,note_on,,3,0,1,,,,,,,,,,,,,,,3,,,62,127
1002,note_on,,12,0,1,,,,,,,,,,,,,,,3,,,62,0
1005,note_on,,3,0,1,,,,,,,,,,,,,,,3,,,64,127
1017,note_on,,12,0,1,,,,,,,,,,,,,,,3,,,64,0
1020,note_on,,3,0,1,,,,,,,,,,,,,,,3,,,65,127
1032,note_on,,12,0,1,,,,,,,,,,,,,,,3,,,65,0
1035,note_on,,3,0,1,,,,,,,,,,,,,,,3,,,64,127
1047,note_on,,12,0,1,,,,,,,,,,,,,,,3,,,64,0
1050,note_on,,3,0,1,,,,,,,,,,,,,,,3,,,62,127
1062,note_on,,12,0,1,,,,,,,,,,,,,,,3,,,62,0
1065,note_on,,3,0,1,,,,,,,,,,,,,,,3,,,60,127
1077,note_on,,12,0,1,,,,,,,,,,,,,,,3,,,60,0
1080,note_on,,3,0,1,,,,,,,,,,,,,,,3,,,62,127
1092,note_on,,12,0,1,,,,,,,,,,,,,,,3,,,62,0
1095,note_on,,3,0,1,,,,,,,,,,,,,,,3,,,60,127
1107,note_on,,12,0,1,,,,,,,,,,,,,,,3,,,60,0
1110,note_on,,3,0,1,,,,,,,,,,,,,,,3,,,59,127
1122,note_on,,12,0,1,,,,,,,,,,,,,,,3,,,59,0
1125,note_on,,3,0,1,,,,,,,,,,,,,,,3,,,57,127
1137,note_on,,12,0,1,,,,,,,,,,,,,,,3,,,57,0
1140,note_on,,3,0,1,,,,,,,,,,,,,,,3,,,59,127
1152,note_on,,12,0,1,,,,,,,,,,,,,,,3,,,59,0
1155,note_on,,3,0,1,,,,,,,,,,,,,,,3,,,55,127
1167,note_on,,12,0,1,,,,,,,,,,,,,,,3,,,55,0
1170,note_on,,3,0,1,,,,,,,,,,,,,,,3,,,57,127
1182,note_on,,12,0,1,,,,,,,,,,,,,,,3,,,57,0
1185,note_on,,3,0,1,,,,,,,,,,,,,,,3,,,59,127
1197,note_on,,12,0,1,,,,,,,,,,,,,,,3,,,59,0
1200,note_on,,3,0,1,,,,,,,,,,,,,,,3,,,60,127
1212,note_on,,12,0,1,,,,,,,,,,,,,,,3,,,60,0
1215,note_on,,3,0,1,,,,,,,,,,,,,,,3,,,62,127
1227,note_on,,12,0,1,,,,,,,,,,,,,,,3,,,62,0
1230,note_on,,3,0,1,,,,,,,,,,,,,,,3,,,64,127
1242,note_on,,12,0,1,,,,,,,,,,,,,,,3,,,64,0
1245,note_on,,3,0,1,,,,,,,,,,,,,,,3,,,65,127
1257,note_on,,12,0,1,,,,,,,,,,,,,,,3,,,65,0
1260,note_on,,3,0,1,,,,,,,,,,,,,,,3,,,67,127
1272,note_on,,12,0,1,,,,,,,,,,,,,,,3,,,67,0
1275,note_on,,3,0,1,,,,,,,,,,,,,,,3,,,65,127
1287,note_on,,12,0,1,,,,,,,,,,,,,,,3,,,65,0
1290,note_on,,3,0,1,,,,,,,,,,,,,,,3,,,64,127
1302,note_on,,12,0,1,,,,,,,,,,,,,,,3,,,64,0
1305,note_on,,3,0,1,,,,,,,,,,,,,,,3,,,62,127
1317,note_on,,12,0,1,,,,,,,,,,,,,,,3,,,62,0
1320,note_on,,3,0,1,,,,,,,,,,,,,,,3,,,64,127
1332,note_on,,12,0,1,,,,,,,,,,,,,,,3,,,64,0
1335,note_on,,3,0,1,,,,,,,,,,,,,,,3,,,60,127
1347,note_on,,12,0,1,,,,,,,,,,,,,,,3,,,60,0
1350,note_on,,3,0,1,,,,,,,,,,,,,,,3,,,62,127
1362,note_on,,12,0,1,,,,,,,,,,,,,,,3,,,62,0
1365,note_on,,3,0,1,,,,,,,,,,,,,,,3,,,64,127
1377,note_on,,12,0,1,,,,,,,,,,,,,,,3,,,64,0
1380,note_on,,3,0,1,,,,,,,,,,,,,,,3,,,65,127
1392,note_on,,12,0,1,,,,,,,,,,,,,,,3,,,65,0
1395,note_on,,3,0,1,,,,,,,,,,,,,,,3,,,67,127
1407,note_on,,12,0,1,,,,,,,,,,,,,,,3,,,67,0
1410,note_on,,3,0,1,,,,,,,,,,,,,,,3,,,69,127
1422,note_on,,12,0,1,,,,,,,,,,,,,,,3,,,69,0
1425,note_on,,3,0,1,,,,,,,,,,,,,,,3,,,71,127
1437,note_on,,12,0,1,,,,,,,,,,,,,,,3,,,71,0
1440,note_on,,3,0,1,,,,,,,,,,,,,,,3,,,72,127
1452,note_on,,12,0,1,,,,,,,,,,,,,,,3,,,72,0
1455,note_on,,3,0,1,,,,,,,,,,,,,,,3,,,71,127
1467,note_on,,12,0,1,,,,,,,,,,,,,,,3,,,71,0
1470,note_on,,3,0,1,,,,,,,,,,,,,,,3,,,69,127
1482,note_on,,12,0,1,,,,,,,,,,,,,,,3,,,69,0
1485,note_on,,3,0,1,,,,,,,,,,,,,,,3,,,67,127
1497,note_on,,12,0,1,,,,,,,,,,,,,,,3,,,67,0
1500,note_on,,3,0,1,,,,,,,,,,,,,,,3,,,69,127
1512,note_on,,12,0,1,,,,,,,,,,,,,,,3,,,69,0
1515,note_on,,3,0,1,,,,,,,,,,,,,,,3,,,67,127
1527,note_on,,12,0,1,,,,,,,,,,,,,,,3,,,67,0
1530,note_on,,3,0,1,,,,,,,,,,,,,,,3,,,65,127
1542,note_on,,12,0,1,,,,,,,,,,,,,,,3,,,65,0
1545,note_on,,3,0,1,,,,,,,,,,,,,,,3,,,64,127
1557,note_on,,12,0,1,,,,,,,,,,,,,,,3,,,64,0
1560,note_on,,3,0,1,,,,,,,,,,,,,,,3,,,77,127
1572,note_on,,12,0,1,,,,,,,,,,,,,,,3,,,77,0
1575,note_on,,3,0,1,,,,,,,,,,,,,,,3,,,76,127
1587,note_on,,12,0,1,,,,,,,,,,,,,,,3,,,76,0
1590,note_on,,3,0,1,,,,,,,,,,,,,,,3,,,74,127
1602,note_on,,12,0,1,,,,,,,,,,,,,,,3,,,74,0
1605,note_on,,3,0,1,,,,,,,,,,,,,,,3,,,72,127
1617,note_on,,12,0,1,,,,,,,,,,,,,,,3,,,72,0
1620,note_on,,3,0,1,,,,,,,,,,,,,,,3,,,74,127
1632,note_on,,12,0,1,,,,,,,,,,,,,,,3,,,74,0
1635,note_on,,3,0,1,,,,,,,,,,,,,,,3,,,72,127
1647,note_on,,12,0,1,,,,,,,,,,,,,,,3,,,72,0
1650,note_on,,3,0,1,,,,,,,,,,,,,,,3,,,71,127
1662,note_on,,12,0,1,,,,,,,,,,,,,,,3,,,71,0
1665,note_on,,3,0,1,,,,,,,,,,,,,,,3,,,69,127
1677,note_on,,12,0,1,,,,,,,,,,,,,,,3,,,69,0
1680,note_on,,3,0,1,,,,,,,,,,,,,,,3,,,71,127
1692,note_on,,12,0,1,,,,,,,,,,,,,,,3,,,71,0
1695,note_on,,3,0,1,,,,,,,,,,,,,,,3,,,67,127
1707,note_on,,12,0,1,,,,,,,,,,,,,,,3,,,67,0
1710,note_on,,3,0,1,,,,,,,,,,,,,,,3,,,69,127
1722,note_on,,12,0,1,,,,,,,,,,,,,,,3,,,69,0
1725,note_on,,3,0,1,,,,,,,,,,,,,,,3,,,71,127
1737,note_on,,12,0,1,,,,,,,,,,,,,,,3,,,71,0
1740,note_on,,3,0,1,,,,,,,,,,,,,,,3,,,72,127
1752,note_on,,12,0,1,,,,,,,,,,,,,,,3,,,72,0
1755,note_on,,3,0,1,,,,,,,,,,,,,,,3,,,74,127
1767,note_on,,12,0,1,,,,,,,,,,,,,,,3,,,74,0
1770,note_on,,3,0,1,,,,,,,,,,,,,,,3,,,76,127
1782,note_on,,12,0,1,,,,,,,,,,,,,,,3,,,76,0
1785,note_on,,3,0,1,,,,,,,,,,,,,,,3,,,77,127
1797,note_on,,12,0,1,,,,,,,,,,,,,,,3,,,77,0
1800,note_on,,3,0,1,,,,,,,,,,,,,,,3,,,79,127
1812,note_on,,12,0,1,,,,,,,,,,,,,,,3,,,79,0
1815,note_on,,3,0,1,,,,,,,,,,,,,,,3,,,77,127
1827,note_on,,12,0,1,,,,,,,,,,,,,,,3,,,77,0
1830,note_on,,3,0,1,,,,,,,,,,,,,,,3,,,76,127
1842,note_on,,12,0,1,,,,,,,,,,,,,,,3,,,76,0
1845,note_on,,3,0,1,,,,,,,,,,,,,,,3,,,74,127
1857,note_on,,12,0,1,,,,,,,,,,,,,,,3,,,74,0
1860,note_on,,3,0,1,,,,,,,,,,,,,,,3,,,76,127
1872,note_on,,12,0,1,,,,,,,,,,,,,,,3,,,76,0
1875,note_on,,3,0,1,,,,,,,,,,,,,,,3,,,74,127
1887,note_on,,12,0,1,,,,,,,,,,,,,,,3,,,74,0
1890,note_on,,3,0,1,,,,,,,,,,,,,,,3,,,72,127
1902,note_on,,12,0,1,,,,,,,,,,,,,,,3,,,72,0
1905,note_on,,3,0,1,,,,,,,,,,,,,,,3,,,71,127
1917,note_on,,12,0,1,,,,,,,,,,,,,,,3,,,71,0
1920,note_on,,3,0,1,,,,,,,,,,,,,,,3,,,81,127
1932,note_on,,12,0,1,,,,,,,,,,,,,,,3,,,81,0
1935,note_on,,3,0,1,,,,,,,,,,,,,,,3,,,79,127
1947,note_on,,12,0,1,,,,,,,,,,,,,,,3,,,79,0
1950,note_on,,3,0,1,,,,,,,,,,,,,,,3,,,77,127
1962,note_on,,12,0,1,,,,,,,,,,,,,,,3,,,77,0
1965,note_on,,3,0,1,,,,,,,,,,,,,,,3,,,76,127
1977,note_on,,12,0,1,,,,,,,,,,,,,,,3,,,76,0
1980,note_on,,3,0,1,,,,,,,,,,,,,,,3,,,77,127
1992,note_on,,12,0,1,,,,,,,,,,,,,,,3,,,77,0
1995,note_on,,3,0,1,,,,,,,,,,,,,,,3,,,76,127
2007,note_on,,12,0,1,,,,,,,,,,,,,,,3,,,76,0
2010,note_on,,3,0,1,,,,,,,,,,,,,,,3,,,74,127
2022,note_on,,12,0,1,,,,,,,,,,,,,,,3,,,74,0
2025,note_on,,3,0,1,,,,,,,,,,,,,,,3,,,72,127
2037,note_on,,12,0,1,,,,,,,,,,,,,,,3,,,72,0
2040,note_on,,3,0,1,,,,,,,,,,,,,,,3,,,82,127
2052,note_on,,12,0,1,,,,,,,,,,,,,,,3,,,82,0
2055,note_on,,3,0,1,,,,,,,,,,,,,,,3,,,81,127
2067,note_on,,12,0,1,,,,,,,,,,,,,,,3,,,81,0
2070,note_on,,3,0,1,,,,,,,,,,,,,,,3,,,79,127
2082,note_on,,12,0,1,,,,,,,,,,,,,,,3,,,79,0
2085,note_on,,3,0,1,,,,,,,,,,,,,,,3,,,77,127
2097,note_on,,12,0,1,,,,,,,,,,,,,,,3,,,77,0
2100,note_on,,3,0,1,,,,,,,,,,,,,,,3,,,79,127
2112,note_on,,12,0,1,,,,,,,,,,,,,,,3,,,79,0
2115,note_on,,3,0,1,,,,,,,,,,,,,,,3,,,77,127
2127,note_on,,12,0,1,,,,,,,,,,,,,,,3,,,77,0
2130,note_on,,3,0,1,,,,,,,,,,,,,,,3,,,76,127
2142,note_on,,12,0,1,,,,,,,,,,,,,,,3,,,76,0
2145,note_on,,3,0,1,,,,,,,,,,,,,,,3,,,74,127
2157,note_on,,12,0,1,,,,,,,,,,,,,,,3,,,74,0
2160,note_on,,3,0,1,,,,,,,,,,,,,,,3,,,82,127
2172,note_on,,12,0,1,,,,,,,,,,,,,,,3,,,82,0
2175,note_on,,3,0,1,,,,,,,,,,,,,,,3,,,81,127
2187,note_on,,12,0,1,,,,,,,,,,,,,,,3,,,81,0
2190,note_on,,3,0,1,,,,,,,,,,,,,,,3,,,79,127
2202,note_on,,12,0,1,,,,,,,,,,,,,,,3,,,79,0
2205,note_on,,3,0,1,,,,,,,,,,,,,,,3,,,77,127
2217,note_on,,12,0,1,,,,,,,,,,,,,,,3,,,77,0
2220,note_on,,3,0,1,,,,,,,,,,,,,,,3,,,79,127
2232,note_on,,12,0,1,,,,,,,,,,,,,,,3,,,79,0
2235,note_on,,3,0,1,,,,,,,,,,,,,,,3,,,77,127
2247,note_on,,12,0,1,,,,,,,,,,,,,,,3,,,77,0
2250,note_on,,3,0,1,,,,,,,,,,,,,,,3,,,76,127
2262,note_on,,12,0,1,,,,,,,,,,,,,,,3,,,76,0
2265,note_on,,3,0,1,,,,,,,,,,,,,,,3,,,74,127
2277,note_on,,12,0,1,,,,,,,,,,,,,,,3,,,74,0
2280,note_on,,3,0,1,,,,,,,,,,,,,,,3,,,77,127
2292,note_on,,12,0,1,,,,,,,,,,,,,,,3,,,77,0
2295,note_on,,3,0,1,,,,,,,,,,,,,,,3,,,76,127
2307,note_on,,12,0,1,,,,,,,,,,,,,,,3,,,76,0
2310,note_on,,3,0,1,,,,,,,,,,,,,,,3,,,74,127
2322,note_on,,12,0,1,,,,,,,,,,,,,,,3,,,74,0
2325,note_on,,3,0,1,,,,,,,,,,,,,,,3,,,72,127
2337,note_on,,12,0,1,,,,,,,,,,,,,,,3,,,72,0
2340,note_on,,3,0,1,,,,,,,,,,,,,,,3,,,74,127
2352,note_on,,12,0,1,,,,,,,,,,,,,,,3,,,74,0
2355,note_on,,3,0,1,,,,,,,,,,,,,,,3,,,72,127
2367,note_on,,12,0,1,,,,,,,,,,,,,,,3,,,72,0
2370,note_on,,3,0,1,,,,,,,,,,,,,,,3,,,71,127
2382,note_on,,12,0,1,,,,,,,,,,,,,,,3,,,71,0
2385,note_on,,3,0,1,,,,,,,,,,,,,,,3,,,69,127
2397,note_on,,12,0,1,,,,,,,,,,,,,,,3,,,69,0
2400,note_on,,3,0,1,,,,,,,,,,,,,,,3,,,77,127
2412,note_on,,12,0,1,,,,,,,,,,,,,,,3,,,77,0
2415,note_on,,3,0,1,,,,,,,,,,,,,,,3,,,76,127
2427,note_on,,12,0,1,,,,,,,,,,,,,,,3,,,76,0
2430,note_on,,3,0,1,,,,,,,,,,,,,,,3,,,74,127
2442,note_on,,12,0,1,,,,,,,,,,,,,,,3,,,74,0
2445,note_on,,3,0,1,,,,,,,,,,,,,,,3,,,72,127
2457,note_on,,12,0,1,,,,,,,,,,,,,,,3,,,72,0
2460,note_on,,3,0,1,,,,,,,,,,,,,,,3,,,74,127
2472,note_on,,12,0,1,,,,,,,,,,,,,,,3,,,74,0
2475,note_on,,3,0,1,,,,,,,,,,,,,,,3,,,72,127
2487,note_on,,12,0,1,,,,,,,,,,,,,,,3,,,72,0
2490,note_on,,3,0,1,,,,,,,,,,,,,,,3,,,71,127
2502,note_on,,12,0,1,,,,,,,,,,,,,,,3,,,71,0
2505,note_on,,3,0,1,,,,,,,,,,,,,,,3,,,69,127
2517,note_on,,12,0,1,,,,,,,,,,,,,,,3,,,69,0
2520,note_on,,3,0,1,,,,,,,,,,,,,,,3,,,79,127
2532,note_on,,12,0,1,,,,,,,,,,,,,,,3,,,79,0
2535,note_on,,3,0,1,,,,,,,,,,,,,,,3,,,77,127
2547,note_on,,12,0,1,,,,,,,,,,,,,,,3,,,77,0
2550,note_on,,3,0,1,,,,,,,,,,,,,,,3,,,76,127
2562,note_on,,12,0,1,,,,,,,,,,,,,,,3,,,76,0
2565,note_on,,3,0,1,,,,,,,,,,,,,,,3,,,74,127
2577,note_on,,12,0,1,,,,,,,,,,,,,,,3,,,74,0
2580,note_on,,3,0,1,,,,,,,,,,,,,,,3,,,76,127
2592,note_on,,12,0,1,,,,,,,,,,,,,,,3,,,76,0
2595,note_on,,3,0,1,,,,,,,,,,,,,,,3,,,74,127
2607,note_on,,12,0,1,,,,,,,,,,,,,,,3,,,74,0
2610,note_on,,3,0,1,,,,,,,,,,,,,,,3,,,72,127
2622,note_on,,12,0,1,,,,,,,,,,,,,,,3,,,72,0
2625,note_on,,3,0,1,,,,,,,,,,,,,,,3,,,71,127
2637,note_on,,12,0,1,,,,,,,,,,,,,,,3,,,71,0
2640,note_on,,3,0,1,,,,,,,,,,,,,,,3,,,72,127
2652,note_on,,12,0,1,,,,,,,,,,,,,,,3,,,72,0
2655,note_on,,3,0,1,,,,,,,,,,,,,,,3,,,71,127
2667,note_on,,12,0,1,,,,,,,,,,,,,,,3,,,71,0
2670,note_on,,3,0,1,,,,,,,,,,,,,,,3,,,69,127
2682,note_on,,12,0,1,,,,,,,,,,,,,,,3,,,69,0
2685,note_on,,3,0,1,,,,,,,,,,,,,,,3,,,67,127
2697,note_on,,12,0,1,,,,,,,,,,,,,,,3,,,67,0
2700,note_on,,3,0,1,,,,,,,,,,,,,,,3,,,69,127
2712,note_on,,12,0,1,,,,,,,,,,,,,,,3,,,69,0
2715,note_on,,3,0,1,,,,,,,,,,,,,,,3,,,67,127
2727,note_on,,12,0,1,,,,,,,,,,,,,,,3,,,67,0
2730,note_on,,3,0,1,,,,,,,,,,,,,,,3,,,65,127
2742,note_on,,12,0,1,,,,,,,,,,,,,,,3,,,65,0
2745,note_on,,3,0,1,,,,,,,,,,,,,,,3,,,64,127
2757,note_on,,12,0,1,,,,,,,,,,,,,,,3,,,64,0
2760,note_on,,3,0,1,,,,,,,,,,,,,,,3,,,65,127
2772,note_on,,12,0,1,,,,,,,,,,,,,,,3,,,65,0
2775,note_on,,3,0,1,,,,,,,,,,,,,,,3,,,64,127
2787,note_on,,12,0,1,,,,,,,,,,,,,,,3,,,64,0
2790,note_on,,3,0,1,,,,,,,,,,,,,,,3,,,62,127
2802,note_on,,12,0,1,,,,,,,,,,,,,,,3,,,62,0
2805,note_on,,3,0,1,,,,,,,,,,,,,,,3,,,60,127
2817,note_on,,12,0,1,,,,,,,,,,,,,,,3,,,60,0
2820,note_on,,3,0,1,,,,,,,,,,,,,,,3,,,59,127
2832,note_on,,12,0,1,,,,,,,,,,,,,,,3,,,59,0
2835,note_on,,3,0,1,,,,,,,,,,,,,,,3,,,60,127
2847,note_on,,12,0,1,,,,,,,,,,,,,,,3,,,60,0
2850,note_on,,3,0,1,,,,,,,,,,,,,,,3,,,62,127
2862,note_on,,12,0,1,,,,,,,,,,,,,,,3,,,62,0
2865,note_on,,3,0,1,,,,,,,,,,,,,,,3,,,64,127
2877,note_on,,12,0,1,,,,,,,,,,,,,,,3,,,64,0
2880,note_on,,3,0,1,,,,,,,,,,,,,,,3,,,65,127
2892,note_on,,12,0,1,,,,,,,,,,,,,,,3,,,65,0
2895,note_on,,3,0,1,,,,,,,,,,,,,,,3,,,64,127
2907,note_on,,12,0,1,,,,,,,,,,,,,,,3,,,64,0
2910,note_on,,3,0,1,,,,,,,,,,,,,,,3,,,62,127
2922,note_on,,12,0,1,,,,,,,,,,,,,,,3,,,62,0
2925,note_on,,3,0,1,,,,,,,,,,,,,,,3,,,60,127
2937,note_on,,12,0,1,,,,,,,,,,,,,,,3,,,60,0
2940,note_on,,3,0,1,,,,,,,,,,,,,,,3,,,59,127
2952,note_on,,12,0,1,,,,,,,,,,,,,,,3,,,59,0
2955,note_on,,3,0,1,,,,,,,,,,,,,,,3,,,57,127
2967,note_on,,12,0,1,,,,,,,,,,,,,,,3,,,57,0
2970,note_on,,3,0,1,,,,,,,,,,,,,,,3,,,55,127
2982,note_on,,12,0,1,,,,,,,,,,,,,,,3,,,55,0
2985,note_on,,3,0,1,,,,,,,,,,,,,,,3,,,53,127
2997,note_on,,12,0,1,,,,,,,,,,,,,,,3,,,53,0
3000,note_on,,3,0,1,,,,,,,,,,,,,,,3,,,52,127
3012,note_on,,12,0,1,,,,,,,,,,,,,,,3,,,52,0
3015,note_on,,3,0,1,,,,,,,,,,,,,,,3,,,60,127
3027,note_on,,12,0,1,,,,,,,,,,,,,,,3,,,60,0
3030,note_on,,3,0,1,,,,,,,,,,,,,,,3,,,59,127
3042,note_on,,12,0,1,,,,,,,,,,,,,,,3,,,59,0
3045,note_on,,3,0,1,,,,,,,,,,,,,,,3,,,57,127
3057,note_on,,12,0,1,,,,,,,,,,,,,,,3,,,57,0
3060,note_on,,3,0,1,,,,,,,,,,,,,,,3,,,55,127
3072,note_on,,12,0,1,,,,,,,,,,,,,,,3,,,55,0
3075,note_on,,3,0,1,,,,,,,,,,,,,,,3,,,53,127
3087,note_on,,12,0,1,,,,,,,,,,,,,,,3,,,53,0
3090,note_on,,3,0,1,,,,,,,,,,,,,,,3,,,52,127
3102,note_on,,12,0,1,,,,,,,,,,,,,,,3,,,52,0
3105,note_on,,3,0,1,,,,,,,,,,,,,,,3,,,50,127
3117,note_on,,12,0,1,,,,,,,,,,,,,,,3,,,50,0
3120,note_on,,3,0,1,,,,,,,,,,,,,,,3,,,52,127
3132,note_on,,12,0,1,,,,,,,,,,,,,,,3,,,52,0
3135,note_on,,3,0,1,,,,,,,,,,,,,,,3,,,53,127
3147,note_on,,12,0,1,,,,,,,,,,,,,,,3,,,53,0
3150,note_on,,3,0,1,,,,,,,,,,,,,,,3,,,55,127
3162,note_on,,12,0,1,,,,,,,,,,,,,,,3,,,55,0
3165,note_on,,3,0,1,,,,,,,,,,,,,,,3,,,53,127
3177,note_on,,12,0,1,,,,,,,,,,,,,,,3,,,53,0
3180,note_on,,3,0,1,,,,,,,,,,,,,,,3,,,52,127
3192,note_on,,12,0,1,,,,,,,,,,,,,,,3,,,52,0
3195,note_on,,3,0,1,,,,,,,,,,,,,,,3,,,50,127
3207,note_on,,12,0,1,,,,,,,,,,,,,,,3,,,50,0
3210,note_on,,3,0,1,,,,,,,,,,,,,,,3,,,48,127
3222,note_on,,12,0,1,,,,,,,,,,,,,,,3,,,48,0
3225,note_on,,3,0,1,,,,,,,,,,,,,,,3,,,47,127
3237,note_on,,12,0,1,,,,,,,,,,,,,,,3,,,47,0
3240,note_on,,3,0,1,,,,,,,,,,,,,,,3,,,48,127
3252,note_on,,12,0,1,,,,,,,,,,,,,,,3,,,48,0
3255,note_on,,3,0,1,,,,,,,,,,,,,,,3,,,43,127
3267,note_on,,12,0,1,,,,,,,,,,,,,,,3,,,43,0
3270,note_on,,3,0,1,,,,,,,,,,,,,,,3,,,45,127
3282,note_on,,12,0,1,,,,,,,,,,,,,,,3,,,45,0
3285,note_on,,3,0,1,,,,,,,,,,,,,,,3,,,47,127
3297,note_on,,12,0,1,,,,,,,,,,,,,,,3,,,47,0
3300,note_on,,3,0,1,,,,,,,,,,,,,,,3,,,48,127
3312,note_on,,12,0,1,,,,,,,,,,,,,,,3,,,48,0
3315,note_on,,3,0,1,,,,,,,,,,,,,,,3,,,50,127
3327,note_on,,12,0,1,,,,,,,,,,,,,,,3,,,50,0
3330,note_on,,3,0,1,,,,,,,,,,,,,,,3,,,52,127
3342,note_on,,12,0,1,,,,,,,,,,,,,,,3,,,52,0
3345,note_on,,3,0,1,,,,,,,,,,,,,,,3,,,53,127
3357,note_on,,12,0,1,,,,,,,,,,,,,,,3,,,53,0
3360,note_on,,3,0,1,,,,,,,,,,,,,,,3,,,55,127
3372,note_on,,12,0,1,,,,,,,,,,,,,,,3,,,55,0
3375,note_on,,3,0,1,,,,,,,,,,,,,,,3,,,53,127
3387,note_on,,12,0,1,,,,,,,,,,,,,,,3,,,53,0
3390,note_on,,3,0,1,,,,,,,,,,,,,,,3,,,52,127
3402,note_on,,12,0,1,,,,,,,,,,,,,,,3,,,52,0
3405,note_on,,3,0,1,,,,,,,,,,,,,,,3,,,50,127
3417,note_on,,12,0,1,,,,,,,,,,,,,,,3,,,50,0
3420,note_on,,3,0,1,,,,,,,,,,,,,,,3,,,52,127
3432,note_on,,12,0,1,,,,,,,,,,,,,,,3,,,52,0
3435,note_on,,3,0,1,,,,,,,,,,,,,,,3,,,53,127
3447,note_on,,12,0,1,,,,,,,,,,,,,,,3,,,53,0
3450,note_on,,3,0,1,,,,,,,,,,,,,,,3,,,55,127
3462,note_on,,12,0,1,,,,,,,,,,,,,,,3,,,55,0
3465,note_on,,3,0,1,,,,,,,,,,,,,,,3,,,57,127
3477,note_on,,12,0,1,,,,,,,,,,,,,,,3,,,57,0
3480,note_on,,3,0,1,,,,,,,,,,,,,,,3,,,58,127
3492,note_on,,12,0,1,,,,,,,,,,,,,,,3,,,58,0
3495,note_on,,3,0,1,,,,,,,,,,,,,,,3,,,55,127
3507,note_on,,12,0,1,,,,,,,,,,,,,,,3,,,55,0
3510,note_on,,3,0,1,,,,,,,,,,,,,,,3,,,57,127
3522,note_on,,12,0,1,,,,,,,,,,,,,,,3,,,57,0
3525,note_on,,3,0,1,,,,,,,,,,,,,,,3,,,58,127
3537,note_on,,12,0,1,,,,,,,,,,,,,,,3,,,58,0
3540,note_on,,3,0,1,,,,,,,,,,,,,,,3,,,60,127
3552,note_on,,12,0,1,,,,,,,,,,,,,,,3,,,60,0
3555,note_on,,3,0,1,,,,,,,,,,,,,,,3,,,62,127
3567,note_on,,12,0,1,,,,,,,,,,,,,,,3,,,62,0
3570,note_on,,3,0,1,,,,,,,,,,,,,,,3,,,64,127
3582,note_on,,12,0,1,,,,,,,,,,,,,,,3,,,64,0
3585,note_on,,3,0,1,,,,,,,,,,,,,,,3,,,65,127
3597,note_on,,12,0,1,,,,,,,,,,,,,,,3,,,65,0
3600,note_on,,3,0,1,,,,,,,,,,,,,,,3,,,67,127
3612,note_on,,12,0,1,,,,,,,,,,,,,,,3,,,67,0
3615,note_on,,3,0,1,,,,,,,,,,,,,,,3,,,65,127
3627,note_on,,12,0,1,,,,,,,,,,,,,,,3,,,65,0
3630,note_on,,3,0,1,,,,,,,,,,,,,,,3,,,64,127
3642,note_on,,12,0,1,,,,,,,,,,,,,,,3,,,64,0
3645,note_on,,3,0,1,,,,,,,,,,,,,,,3,,,62,127
3657,note_on,,12,0,1,,,,,,,,,,,,,,,3,,,62,0
3660,note_on,,3,0,1,,,,,,,,,,,,,,,3,,,64,127
3672,note_on,,12,0,1,,,,,,,,,,,,,,,3,,,64,0
3675,note_on,,3,0,1,,,,,,,,,,,,,,,3,,,65,127
3687,note_on,,12,0,1,,,,,,,,,,,,,,,3,,,65,0
3690,note_on,,3,0,1,,,,,,,,,,,,,,,3,,,67,127
3702,note_on,,12,0,1,,,,,,,,,,,,,,,3,,,67,0
3705,note_on,,3,0,1,,,,,,,,,,,,,,,3,,,69,127
3717,note_on,,12,0,1,,,,,,,,,,,,,,,3,,,69,0
3720,note_on,,3,0,1,,,,,,,,,,,,,,,3,,,70,127
3720,note_on,,0,0,1,,,,,,,,,,,,,,,3,,,36,127
3732,note_on,,12,0,1,,,,,,,,,,,,,,,3,,,70,0
3735,note_on,,3,0,1,,,,,,,,,,,,,,,3,,,67,127
3747,note_on,,12,0,1,,,,,,,,,,,,,,,3,,,67,0
3750,note_on,,3,0,1,,,,,,,,,,,,,,,3,,,64,127
3762,note_on,,12,0,1,,,,,,,,,,,,,,,3,,,64,0
3765,note_on,,3,0,1,,,,,,,,,,,,,,,3,,,60,127
3777,note_on,,12,0,1,,,,,,,,,,,,,,,3,,,60,0
3780,note_on,,3,0,1,,,,,,,,,,,,,,,3,,,55,127
3792,note_on,,0,0,1,,,,,,,,,,,,,,,3,,,55,0
3792,note_on,,12,0,1,,,,,,,,,,,,,,,3,,,36,0
3795,note_on,,3,0,1,,,,,,,,,,,,,,,3,,,52,127
3807,note_on,,12,0,1,,,,,,,,,,,,,,,3,,,52,0
3810,note_on,,3,0,1,,,,,,,,,,,,,,,3,,,48,127
3833,note_on,,23,0,1,,,,,,,,,,,,,,,3,,,48,0
3960,note_on,,127,0,1,,,,,,,,,,,,,,,3,,,48,127
3972,note_on,,12,0,1,,,,,,,,,,,,,,,3,,,48,0
3975,note_on,,3,0,1,,,,,,,,,,,,,,,3,,,50,127
3987,note_on,,12,0,1,,,,,,,,,,,,,,,3,,,50,0
3990,note_on,,3,0,1,,,,,,,,,,,,,,,3,,,52,127
4002,note_on,,12,0,1,,,,,,,,,,,,,,,3,,,52,0
4005,note_on,,3,0,1,,,,,,,,,,,,,,,3,,,53,127
4017,note_on,,12,0,1,,,,,,,,,,,,,,,3,,,53,0
4020,note_on,,3,0,1,,,,,,,,,,,,,,,3,,,52,127
4032,note_on,,12,0,1,,,,,,,,,,,,,,,3,,,52,0
4035,note_on,,3,0,1,,,,,,,,,,,,,,,3,,,50,127
4047,note_on,,12,0,1,,,,,,,,,,,,,,,3,,,50,0
4050,note_on,,3,0,1,,,,,,,,,,,,,,,3,,,48,127
4062,note_on,,12,0,1,,,,,,,,,,,,,,,3,,,48,0
4065,note_on,,3,0,1,,,,,,,,,,,,,,,3,,,50,127
4077,note_on,,12,0,1,,,,,,,,,,,,,,,3,,,50,0
4080,note_on,,3,0,1,,,,,,,,,,,,,,,3,,,52,127
4092,note_on,,12,0,1,,,,,,,,,,,,,,,3,,,52,0
4095,note_on,,3,0,1,,,,,,,,,,,,,,,3,,,53,127
4107,note_on,,12,0,1,,,,,,,,,,,,,,,3,,,53,0
4110,note_on,,3,0,1,,,,,,,,,,,,,,,3,,,52,127
4122,note_on,,12,0,1,,,,,,,,,,,,,,,3,,,52,0
4125,note_on,,3,0,1,,,,,,,,,,,,,,,3,,,50,127
4137,note_on,,12,0,1,,,,,,,,,,,,,,,3,,,50,0
4140,note_on,,3,0,1,,,,,,,,,,,,,,,3,,,48,127
4152,note_on,,12,0,1,,,,,,,,,,,,,,,3,,,48,0
4155,note_on,,3,0,1,,,,,,,,,,,,,,,3,,,50,127
4167,note_on,,12,0,1,,,,,,,,,,,,,,,3,,,50,0
4170,note_on,,3,0,1,,,,,,,,,,,,,,,3,,,52,127
4182,note_on,,12,0,1,,,,,,,,,,,,,,,3,,,52,0
4185,note_on,,3,0,1,,,,,,,,,,,,,,,3,,,53,127
4197,note_on,,12,0,1,,,,,,,,,,,,,,,3,,,53,0
4200,note_on,,3,0,1,,,,,,,,,,,,,,,3,,,55,127
4212,note_on,,12,0,1,,,,,,,,,,,,,,,3,,,55,0
4215,note_on,,3,0,1,,,,,,,,,,,,,,,3,,,53,127
4227,note_on,,12,0,1,,,,,,,,,,,,,,,3,,,53,0
4230,note_on,,3,0,1,,,,,,,,,,,,,,,3,,,52,127
4242,note_on,,12,0,1,,,,,,,,,,,,,,,3,,,52,0
4245,note_on,,3,0,1,,,,,,,,,,,,,,,3,,,53,127
4257,note_on,,12,0,1,,,,,,,,,,,,,,,3,,,53,0
4260,note_on,,3,0,1,,,,,,,,,,,,,,,3,,,55,127
4272,note_on,,12,0,1,,,,,,,,,,,,,,,3,,,55,0
4275,note_on,,3,0,1,,,,,,,,,,,,,,,3,,,57,127
4287,note_on,,12,0,1,,,,,,,,,,,,,,,3,,,57,0
4290,note_on,,3,0,1,,,,,,,,,,,,,,,3,,,55,127
4302,note_on,,12,0,1,,,,,,,,,,,,,,,3,,,55,0
4305,note_on,,3,0,1,,,,,,,,,,,,,,,3,,,53,127
4317,note_on,,12,0,1,,,,,,,,,,,,,,,3,,,53,0
4320,note_on,,3,0,1,,,,,,,,,,,,,,,3,,,52,127
4332,note_on,,12,0,1,,,,,,,,,,,,,,,3,,,52,0
4335,note_on,,3,0,1,,,,,,,,,,,,,,,3,,,53,127
4347,note_on,,12,0,1,,,,,,,,,,,,,,,3,,,53,0
4350,note_on,,3,0,1,,,,,,,,,,,,,,,3,,,55,127
4362,note_on,,12,0,1,,,,,,,,,,,,,,,3,,,55,0
4365,note_on,,3,0,1,,,,,,,,,,,,,,,3,,,57,127
4377,note_on,,12,0,1,,,,,,,,,,,,,,,3,,,57,0
4380,note_on,,3,0,1,,,,,,,,,,,,,,,3,,,55,127
4392,note_on,,12,0,1,,,,,,,,,,,,,,,3,,,55,0
4395,note_on,,3,0,1,,,,,,,,,,,,,,,3,,,53,127
4407,note_on,,12,0,1,,,,,,,,,,,,,,,3,,,53,0
4410,note_on,,3,0,1,,,,,,,,,,,,,,,3,,,52,127
4422,note_on,,12,0,1,,,,,,,,,,,,,,,3,,,52,0
4425,note_on,,3,0,1,,,,,,,,,,,,,,,3,,,53,127
4437,note_on,,12,0,1,,,,,,,,,,,,,,,3,,,53,0
4440,note_on,,3,0,1,,,,,,,,,,,,,,,3,,,55,127
4452,note_on,,12,0,1,,,,,,,,,,,,,,,3,,,55,0
4455,note_on,,3,0,1,,,,,,,,,,,,,,,3,,,57,127
4467,note_on,,12,0,1,,,,,,,,,,,,,,,3,,,57,0
4470,note_on,,3,0,1,,,,,,,,,,,,,,,3,,,58,127
4482,note_on,,12,0,1,,,,,,,,,,,,,,,3,,,58,0
4485,note_on,,3,0,1,,,,,,,,,,,,,,,3,,,57,127
4497,note_on,,12,0,1,,,,,,,,,,,,,,,3,,,57,0
4500,note_on,,3,0,1,,,,,,,,,,,,,,,3,,,55,127
4512,note_on,,12,0,1,,,,,,,,,,,,,,,3,,,55,0
4515,note_on,,3,0,1,,,,,,,,,,,,,,,3,,,57,127
4527,note_on,,12,0,1,,,,,,,,,,,,,,,3,,,57,0
4530,note_on,,3,0,1,,,,,,,,,,,,,,,3,,,58,127
4542,note_on,,12,0,1,,,,,,,,,,,,,,,3,,,58,0
4545,note_on,,3,0,1,,,,,,,,,,,,,,,3,,,60,127
4557,note_on,,12,0,1,,,,,,,,,,,,,,,3,,,60,0
4560,note_on,,3,0,1,,,,,,,,,,,,,,,3,,,58,127
4572,note_on,,12,0,1,,,,,,,,,,,,,,,3,,,58,0
4575,note_on,,3,0,1,,,,,,,,,,,,,,,3,,,57,127
4587,note_on,,12,0,1,,,,,,,,,,,,,,,3,,,57,0
4590,note_on,,3,0,1,,,,,,,,,,,,,,,3,,,55,127
4602,note_on,,12,0,1,,,,,,,,,,,,,,,3,,,55,0
4605,note_on,,3,0,1,,,,,,,,,,,,,,,3,,,57,127
4617,note_on,,12,0,1,,,,,,,,,,,,,,,3,,,57,0
4620,note_on,,3,0,1,,,,,,,,,,,,,,,3,,,58,127
4632,note_on,,12,0,1,,,,,,,,,,,,,,,3,,,58,0
4635,note_on,,3,0,1,,,,,,,,,,,,,,,3,,,60,127
4647,note_on,,12,0,1,,,,,,,,,,,,,,,3,,,60,0
4650,note_on,,3,0,1,,,,,,,,,,,,,,,3,,,62,127
4662,note_on,,12,0,1,,,,,,,,,,,,,,,3,,,62,0
4665,note_on,,3,0,1,,,,,,,,,,,,,,,3,,,64,127
4677,note_on,,12,0,1,,,,,,,,,,,,,,,3,,,64,0
4680,note_on,,3,0,1,,,,,,,,,,,,,,,3,,,65,127
4680,note_on,,0,0,1,,,,,,,,,,,,,,,3,,,36,127
4692,note_on,,12,0,1,,,,,,,,,,,,,,,3,,,65,0
4695,note_on,,3,0,1,,,,,,,,,,,,,,,3,,,67,127
4707,note_on,,12,0,1,,,,,,,,,,,,,,,3,,,67,0
4710,note_on,,3,0,1,,,,,,,,,,,,,,,3,,,69,127
4722,note_on,,12,0,1,,,,,,,,,,,,,,,3,,,69,0
4725,note_on,,3,0,1,,,,,,,,,,,,,,,3,,,64,127
4737,note_on,,12,0,1,,,,,,,,,,,,,,,3,,,64,0
4740,note_on,,3,0,1,,,,,,,,,,,,,,,3,,,65,127
4748,note_on,,8,0,1,,,,,,,,,,,,,,,3,,,36,0
4752,note_on,,4,0,1,,,,,,,,,,,,,,,3,,,65,0
4755,note_on,,3,0,1,,,,,,,,,,,,,,,3,,,60,127
4767,note_on,,12,0,1,,,,,,,,,,,,,,,3,,,60,0
4770,note_on,,3,0,1,,,,,,,,,,,,,,,3,,,57,127
4782,note_on,,12,0,1,,,,,,,,,,,,,,,3,,,57,0
4785,note_on,,3,0,1,,,,,,,,,,,,,,,3,,,53,127
4797,note_on,,12,0,1,,,,,,,,,,,,,,,3,,,53,0
4920,note_on,,123,0,1,,,,,,,,,,,,,,,3,,,77,127
4932,note_on,,12,0,1,,,,,,,,,,,,,,,3,,,77,0
4935,note_on,,3,0,1,,,,,,,,,,,,,,,3,,,76,127
4947,note_on,,12,0,1,,,,,,,,,,,,,,,3,,,76,0
4950,note_on,,3,0,1,,,,,,,,,,,,,,,3,,,74,127
4962,note_on,,12,0,1,,,,,,,,,,,,,,,3,,,74,0
4965,note_on,,3,0,1,,,,,,,,,,,,,,,3,,,72,127
4977,note_on,,12,0,1,,,,,,,,,,,,,,,3,,,72,0
4980,note_on,,3,0,1,,,,,,,,,,,,,,,3,,,71,127
4992,note_on,,12,0,1,,,,,,,,,,,,,,,3,,,71,0
4995,note_on,,3,0,1,,,,,,,,,,,,,,,3,,,69,127
5007,note_on,,12,0,1,,,,,,,,,,,,,,,3,,,69,0
5010,note_on,,3,0,1,,,,,,,,,,,,,,,3,,,67,127
5022,note_on,,12,0,1,,,,,,,,,,,,,,,3,,,67,0
5025,note_on,,3,0,1,,,,,,,,,,,,,,,3,,,65,127
5037,note_on,,12,0,1,,,,,,,,,,,,,,,3,,,65,0
5040,note_on,,3,0,1,,,,,,,,,,,,,,,3,,,64,127
5052,note_on,,12,0,1,,,,,,,,,,,,,,,3,,,64,0
5055,note_on,,3,0,1,,,,,,,,,,,,,,,3,,,62,127
5067,note_on,,12,0,1,,,,,,,,,,,,,,,3,,,62,0
5070,note_on,,3,0,1,,,,,,,,,,,,,,,3,,,60,127
5082,note_on,,12,0,1,,,,,,,,,,,,,,,3,,,60,0
5085,note_on,,3,0,1,,,,,,,,,,,,,,,3,,,59,127
5097,note_on,,12,0,1,,,,,,,,,,,,,,,3,,,59,0
5100,note_on,,3,0,1,,,,,,,,,,,,,,,3,,,79,127
5112,note_on,,12,0,1,,,,,,,,,,,,,,,3,,,79,0
5115,note_on,,3,0,1,,,,,,,,,,,,,,,3,,,77,127
5127,note_on,,12,0,1,,,,,,,,,,,,,,,3,,,77,0
5130,note_on,,3,0,1,,,,,,,,,,,,,,,3,,,76,127
5142,note_on,,12,0,1,,,,,,,,,,,,,,,3,,,76,0
5145,note_on,,3,0,1,,,,,,,,,,,,,,,3,,,74,127
5157,note_on,,12,0,1,,,,,,,,,,,,,,,3,,,74,0
5160,note_on,,3,0,1,,,,,,,,,,,,,,,3,,,77,127
5172,note_on,,12,0,1,,,,,,,,,,,,,,,3,,,77,0
5175,note_on,,3,0,1,,,,,,,,,,,,,,,3,,,76,127
5187,note_on,,12,0,1,,,,,,,,,,,,,,,3,,,76,0
5190,note_on,,3,0,1,,,,,,,,,,,,,,,3,,,74,127
5202,note_on,,12,0,1,,,,,,,,,,,,,,,3,,,74,0
5205,note_on,,3,0,1,,,,,,,,,,,,,,,3,,,72,127
5217,note_on,,12,0,1,,,,,,,,,,,,,,,3,,,72,0
5220,note_on,,3,0,1,,,,,,,,,,,,,,,3,,,71,127
5232,note_on,,12,0,1,,,,,,,,,,,,,,,3,,,71,0
5235,note_on,,3,0,1,,,,,,,,,,,,,,,3,,,69,127
5247,note_on,,12,0,1,,,,,,,,,,,,,,,3,,,69,0
5250,note_on,,3,0,1,,,,,,,,,,,,,,,3,,,67,127
5262,note_on,,12,0,1,,,,,,,,,,,,,,,3,,,67,0
5265,note_on,,3,0,1,,,,,,,,,,,,,,,3,,,65,127
5277,note_on,,12,0,1,,,,,,,,,,,,,,,3,,,65,0
5280,note_on,,3,0,1,,,,,,,,,,,,,,,3,,,64,127
5292,note_on,,12,0,1,,,,,,,,,,,,,,,3,,,64,0
5295,note_on,,3,0,1,,,,,,,,,,,,,,,3,,,62,127
5307,note_on,,12,0,1,,,,,,,,,,,,,,,3,,,62,0
5310,note_on,,3,0,1,,,,,,,,,,,,,,,3,,,60,127
5322,note_on,,12,0,1,,,,,,,,,,,,,,,3,,,60,0
5325,note_on,,3,0,1,,,,,,,,,,,,,,,3,,,59,127
5340,note_on,,15,0,1,,,,,,,,,,,,,,,3,,,74,127
5352,note_on,,12,0,1,,,,,,,,,,,,,,,3,,,74,0
5355,note_on,,3,0,1,,,,,,,,,,,,,,,3,,,69,127
5367,note_on,,12,0,1,,,,,,,,,,,,,,,3,,,69,0
5370,note_on,,3,0,1,,,,,,,,,,,,,,,3,,,67,127
5382,note_on,,12,0,1,,,,,,,,,,,,,,,3,,,67,0
5385,note_on,,3,0,1,,,,,,,,,,,,,,,3,,,65,127
5391,note_on,,6,0,1,,,,,,,,,,,,,,,3,,,59,0
5397,note_on,,6,0,1,,,,,,,,,,,,,,,3,,,65,0
5400,note_on,,3,0,1,,,,,,,,,,,,,,,3,,,60,127
5400,note_on,,0,0,1,,,,,,,,,,,,,,,3,,,64,127
5400,note_on,,0,0,1,,,,,,,,,,,,,,,3,,,36,127
5412,note_on,,12,0,1,,,,,,,,,,,,,,,3,,,64,0
5415,note_on,,3,0,1,,,,,,,,,,,,,,,3,,,67,127
5425,note_on,,10,0,1,,,,,,,,,,,,,,,3,,,60,0
5427,note_on,,2,0,1,,,,,,,,,,,,,,,3,,,67,0
5430,note_on,,3,0,1,,,,,,,,,,,,,,,3,,,72,127
5442,note_on,,12,0,1,,,,,,,,,,,,,,,3,,,72,0
5445,note_on,,3,0,1,,,,,,,,,,,,,,,3,,,67,127
5457,note_on,,12,0,1,,,,,,,,,,,,,,,3,,,67,0
5459,note_on,,2,0,1,,,,,,,,,,,,,,,3,,,36,0
5460,note_on,,1,0,1,,,,,,,,,,,,,,,3,,,64,127
5472,note_on,,12,0,1,,,,,,,,,,,,,,,3,,,64,0
5475,note_on,,3,0,1,,,,,,,,,,,,,,,3,,,67,127
5487,note_on,,12,0,1,,,,,,,,,,,,,,,3,,,67,0
5490,note_on,,3,0,1,,,,,,,,,,,,,,,3,,,64,127
5502,note_on,,12,0,1,,,,,,,,,,,,,,,3,,,64,0
5505,note_on,,3,0,1,,,,,,,,,,,,,,,3,,,59,127
5517,note_on,,12,0,1,,,,,,,,,,,,,,,3,,,59,0
5520,note_on,,3,0,1,,,,,,,,,,,,,,,3,,,60,127
5532,note_on,,12,0,1,,,,,,,,,,,,,,,3,,,60,0
5535,note_on,,3,0,1,,,,,,,,,,,,,,,3,,,64,127
5547,note_on,,12,0,1,,,,,,,,,,,,,,,3,,,64,0
5550,note_on,,3,0,1,,,,,,,,,,,,,,,3,,,60,127
5562,note_on,,12,0,1,,,,,,,,,,,,,,,3,,,60,0
5565,note_on,,3,0,1,,,,,,,,,,,,,,,3,,,55,127
5577,note_on,,12,0,1,,,,,,,,,,,,,,,3,,,55,0
5580,note_on,,3,0,1,,,,,,,,,,,,,,,3,,,52,127
5592,note_on,,12,0,1,,,,,,,,,,,,,,,3,,,52,0
5595,note_on,,3,0,1,,,,,,,,,,,,,,,3,,,55,127
5607,note_on,,12,0,1,,,,,,,,,,,,,,,3,,,55,0
5610,note_on,,3,0,1,,,,,,,,,,,,,,,3,,,52,127
5622,note_on,,12,0,1,,,,,,,,,,,,,,,3,,,52,0
5625,note_on,,3,0,1,,,,,,,,,,,,,,,3,,,48,127
5637,note_on,,12,0,1,,,,,,,,,,,,,,,3,,,48,0
5640,note_on,,3,0,1,,,,,,,,,,,,,,,3,,,52,127
5652,note_on,,12,0,1,,,,,,,,,,,,,,,3,,,52,0
5655,note_on,,3,0,1,,,,,,,,,,,,,,,3,,,55,127
5667,note_on,,12,0,1,,,,,,,,,,,,,,,3,,,55,0
5670,note_on,,3,0,1,,,,,,,,,,,,,,,3,,,60,127
5682,note_on,,12,0,1,,,,,,,,,,,,,,,3,,,60,0
5685,note_on,,3,0,1,,,,,,,,,,,,,,,3,,,55,127
5697,note_on,,12,0,1,,,,,,,,,,,,,,,3,,,55,0
5700,note_on,,3,0,1,,,,,,,,,,,,,,,3,,,52,127
5712,note_on,,12,0,1,,,,,,,,,,,,,,,3,,,52,0
5715,note_on,,3,0,1,,,,,,,,,,,,,,,3,,,48,127
5727,note_on,,12,0,1,,,,,,,,,,,,,,,3,,,48,0
5730,note_on,,3,0,1,,,,,,,,,,,,,,,3,,,43,127
5742,note_on,,12,0,1,,,,,,,,,,,,,,,3,,,43,0
5745,note_on,,3,0,1,,,,,,,,,,,,,,,3,,,48,127
5757,note_on,,12,0,1,,,,,,,,,,,,,,,3,,,48,0
5760,note_on,,3,0,1,,,,,,,,,,,,,,,3,,,36,127
5781,set_tempo,,4861,1,0,,,,,,,,1764705,,,,,,,,,,,
5807,note_on,,47,0,1,,,,,,,,,,,,,,,3,,,36,0
5868,set_tempo,,87,1,0,,,,,,,,1200000,,,,,,,,,,,
5880,set_tempo,,12,1,0,,,,,,,,1000000,,,,,,,,,,,
5893,set_tempo,,13,1,0,,,,,,,,1090909,,,,,,,,,,,
5910,note_on,,103,0,1,,,,,,,,,,,,,,,3,,,48,127
5933,note_on,,23,0,1,,,,,,,,,,,,,,,3,,,48,0
5940,note_on,,7,0,1,,,,,,,,,,,,,,,3,,,55,127
5948,set_tempo,,55,1,0,,,,,,,,681818,,,,,,,,,,,
5952,set_tempo,,4,1,0,,,,,,,,1090909,,,,,,,,,,,
5963,note_on,,23,0,1,,,,,,,,,,,,,,,3,,,55,0
5970,note_on,,7,0,1,,,,,,,,,,,,,,,3,,,43,127
5993,note_on,,23,0,1,,,,,,,,,,,,,,,3,,,43,0
6000,note_on,,7,0,1,,,,,,,,,,,,,,,3,,,48,127
6000,set_tempo,,48,1,0,,,,,,,,1250000,,,,,,,,,,,
6001,set_tempo,,1,1,0,,,,,,,,1428571,,,,,,,,,,,
6047,note_on,,47,0,1,,,,,,,,,,,,,,,3,,,48,0
6055,set_tempo,,54,1,0,,,,,,,,1818181,,,,,,,,,,,
6060,set_tempo,,5,1,0,,,,,,,,2142857,,,,,,,,,,,
6120,note_on,,73,0,1,,,,,,,,,,,,,,,3,,,48,127
6130,set_tempo,,70,1,0,,,,,,,,1090909,,,,,,,,,,,
6135,set_tempo,,5,1,0,,,,,,,,1016949,,,,,,,,,,,
6136,set_tempo,,1,1,0,,,,,,,,937500,,,,,,,,,,,
6143,note_on,,23,0,1,,,,,,,,,,,,,,,3,,,48,0
6150,note_on,,7,0,1,,,,,,,,,,,,,,,3,,,52,127
6173,note_on,,23,0,1,,,,,,,,,,,,,,,3,,,52,0
6180,note_on,,7,0,1,,,,,,,,,,,,,,,3,,,50,127
6203,note_on,,23,0,1,,,,,,,,,,,,,,,3,,,50,0
6210,note_on,,7,0,1,,,,,,,,,,,,,,,3,,,53,127
6233,note_on,,23,0,1,,,,,,,,,,,,,,,3,,,53,0
6240,note_on,,7,0,1,,,,,,,,,,,,,,,3,,,52,127
6263,note_on,,23,0,1,,,,,,,,,,,,,,,3,,,52,0
6268,set_tempo,,132,1,0,,,,,,,,967741,,,,,,,,,,,
6270,note_on,,7,0,1,,,,,,,,,,,,,,,3,,,55,127
6273,set_tempo,,5,1,0,,,,,,,,937500,,,,,,,,,,,
6293,note_on,,23,0,1,,,,,,,,,,,,,,,3,,,55,0
6300,note_on,,7,0,1,,,,,,,,,,,,,,,3,,,54,127
6320,set_tempo,,47,1,0,,,,,,,,937500,,,,,,,,,,,
6323,note_on,,23,0,1,,,,,,,,,,,,,,,3,,,54,0
6330,note_on,,7,0,1,,,,,,,,,,,,,,,3,,,57,127
6353,note_on,,23,0,1,,,,,,,,,,,,,,,3,,,57,0
6360,set_tempo,,40,1,0,,,,,,,,923076,,,,,,,,,,,
6360,note_on,,7,0,1,,,,,,,,,,,,,,,3,,,55,127
6383,note_on,,23,0,1,,,,,,,,,,,,,,,3,,,55,0
6386,set_tempo,,26,1,0,,,,,,,,937500,,,,,,,,,,,
6390,note_on,,7,0,1,,,,,,,,,,,,,,,3,,,59,127
6406,set_tempo,,20,1,0,,,,,,,,923076,,,,,,,,,,,
6413,note_on,,23,0,1,,,,,,,,,,,,,,,3,,,59,0
6420,note_on,,7,0,1,,,,,,,,,,,,,,,3,,,57,127
6423,set_tempo,,17,1,0,,,,,,,,937500,,,,,,,,,,,
6443,note_on,,23,0,1,,,,,,,,,,,,,,,3,,,57,0
6450,note_on,,7,0,1,,,,,,,,,,,,,,,3,,,60,127
6473,note_on,,23,0,1,,,,,,,,,,,,,,,3,,,60,0
6480,note_on,,7,0,1,,,,,,,,,,,,,,,3,,,59,127
6498,set_tempo,,75,1,0,,,,,,,,1090909,,,,,,,,,,,
6502,set_tempo,,4,1,0,,,,,,,,1153846,,,,,,,,,,,
6503,note_on,,23,0,1,,,,,,,,,,,,,,,3,,,59,0
6506,set_tempo,,4,1,0,,,,,,,,1250000,,,,,,,,,,,
6510,note_on,,7,0,1,,,,,,,,,,,,,,,3,,,62,127
6533,note_on,,23,0,1,,,,,,,,,,,,,,,3,,,62,0
6540,note_on,,7,0,1,,,,,,,,,,,,,,,3,,,43,127
6540,note_on,,0,0,1,,,,,,,,,,,,,,,3,,,55,127
6546,set_tempo,,40,1,0,,,,,,,,2857142,,,,,,,,,,,
6563,note_on,,0,0,1,,,,,,,,,,,,,,,3,,,55,0
6563,note_on,,23,0,1,,,,,,,,,,,,,,,3,,,43,0
6600,set_tempo,,54,1,0,,,,,,,,923076,,,,,,,,,,,
6646,set_tempo,,46,1,0,,,,,,,,1071428,,,,,,,,,,,
6690,note_on,,127,0,1,,,,,,,,,,,,,,,3,,,60,127
6696,set_tempo,,50,1,0,,,,,,,,937500,,,,,,,,,,,
6698,set_tempo,,2,1,0,,,,,,,,1016949,,,,,,,,,,,
6703,set_tempo,,5,1,0,,,,,,,,937500,,,,,,,,,,,
6713,note_on,,23,0,1,,,,,,,,,,,,,,,3,,,60,0
6720,note_on,,7,0,1,,,,,,,,,,,,,,,3,,,59,127
6743,note_on,,23,0,1,,,,,,,,,,,,,,,3,,,59,0
6750,note_on,,7,0,1,,,,,,,,,,,,,,,3,,,62,127
6773,note_on,,23,0,1,,,,,,,,,,,,,,,3,,,62,0
6780,note_on,,7,0,1,,,,,,,,,,,,,,,3,,,57,127
6782,set_tempo,,79,1,0,,,,,,,,983606,,,,,,,,,,,
6803,note_on,,23,0,1,,,,,,,,,,,,,,,3,,,57,0
6810,note_on,,7,0,1,,,,,,,,,,,,,,,3,,,60,127
6833,note_on,,23,0,1,,,,,,,,,,,,,,,3,,,60,0
6840,note_on,,7,0,1,,,,,,,,,,,,,,,3,,,59,127
6863,note_on,,23,0,1,,,,,,,,,,,,,,,3,,,59,0
6870,note_on,,7,0,1,,,,,,,,,,,,,,,3,,,62,127
6872,set_tempo,,90,1,0,,,,,,,,1090909,,,,,,,,,,,
6874,set_tempo,,2,1,0,,,,,,,,1200000,,,,,,,,,,,
6876,set_tempo,,2,1,0,,,,,,,,1304347,,,,,,,,,,,
6878,set_tempo,,2,1,0,,,,,,,,1428571,,,,,,,,,,,
6893,note_on,,23,0,1,,,,,,,,,,,,,,,3,,,62,0
6900,note_on,,0,0,1,,,,,,,,,,,,,,,3,,,55,127
6900,note_on,,7,0,1,,,,,,,,,,,,,,,3,,,43,127
6905,set_tempo,,27,1,0,,,,,,,,2857142,,,,,,,,,,,
6923,note_on,,0,0,1,,,,,,,,,,,,,,,3,,,55,0
6923,note_on,,23,0,1,,,,,,,,,,,,,,,3,,,43,0
6960,set_tempo,,55,1,0,,,,,,,,895522,,,,,,,,,,,
6996,set_tempo,,36,1,0,,,,,,,,1071428,,,,,,,,,,,
7024,set_tempo,,28,1,0,,,,,,,,1000000,,,,,,,,,,,
7027,set_tempo,,3,1,0,,,,,,,,967741,,,,,,,,,,,
7050,note_on,,127,0,1,,,,,,,,,,,,,,,3,,,60,127
7073,note_on,,23,0,1,,,,,,,,,,,,,,,3,,,60,0
7080,note_on,,7,0,1,,,,,,,,,,,,,,,3,,,59,127
7103,note_on,,23,0,1,,,,,,,,,,,,,,,3,,,59,0
7110,note_on,,7,0,1,,,,,,,,,,,,,,,3,,,62,127
7133,note_on,,23,0,1,,,,,,,,,,,,,,,3,,,62,0
7140,note_on,,7,0,1,,,,,,,,,,,,,,,3,,,55,127
7163,note_on,,23,0,1,,,,,,,,,,,,,,,3,,,55,0
7170,note_on,,7,0,1,,,,,,,,,,,,,,,3,,,59,127
7193,note_on,,23,0,1,,,,,,,,,,,,,,,3,,,59,0
7200,note_on,,7,0,1,,,,,,,,,,,,,,,3,,,57,127
7223,note_on,,23,0,1,,,,,,,,,,,,,,,3,,,57,0
7230,note_on,,7,0,1,,,,,,,,,,,,,,,3,,,60,127
7253,note_on,,23,0,1,,,,,,,,,,,,,,,3,,,60,0
7260,note_on,,7,0,1,,,,,,,,,,,,,,,3,,,54,127
7283,note_on,,23,0,1,,,,,,,,,,,,,,,3,,,54,0
7290,note_on,,7,0,1,,,,,,,,,,,,,,,3,,,57,127
7313,note_on,,23,0,1,,,,,,,,,,,,,,,3,,,57,0
7320,note_on,,7,0,1,,,,,,,,,,,,,,,3,,,55,127
7330,set_tempo,,303,1,0,,,,,,,,1090909,,,,,,,,,,,
7342,set_tempo,,12,1,0,,,,,,,,1153846,,,,,,,,,,,
7343,note_on,,23,0,1,,,,,,,,,,,,,,,3,,,55,0
7348,set_tempo,,6,1,0,,,,,,,,1250000,,,,,,,,,,,
7350,note_on,,7,0,1,,,,,,,,,,,,,,,3,,,57,127
7352,set_tempo,,4,1,0,,,,,,,,1428571,,,,,,,,,,,
7373,note_on,,23,0,1,,,,,,,,,,,,,,,3,,,57,0
7380,note_on,,7,0,1,,,,,,,,,,,,,,,3,,,47,127
7380,note_on,,0,0,1,,,,,,,,,,,,,,,3,,,59,127
7383,set_tempo,,31,1,0,,,,,,,,2307692,,,,,,,,,,,
7386,set_tempo,,3,1,0,,,,,,,,3000000,,,,,,,,,,,
7403,note_on,,0,0,1,,,,,,,,,,,,,,,3,,,59,0
7403,note_on,,23,0,1,,,,,,,,,,,,,,,3,,,47,0
7441,set_tempo,,55,1,0,,,,,,,,869565,,,,,,,,,,,
7478,set_tempo,,37,1,0,,,,,,,,1071428,,,,,,,,,,,
7485,set_tempo,,7,1,0,,,,,,,,967741,,,,,,,,,,,
7486,set_tempo,,1,1,0,,,,,,,,1016949,,,,,,,,,,,
7490,set_tempo,,4,1,0,,,,,,,,967741,,,,,,,,,,,
7530,note_on,,127,0,1,,,,,,,,,,,,,,,3,,,57,127
7553,note_on,,23,0,1,,,,,,,,,,,,,,,3,,,57,0
7560,note_on,,7,0,1,,,,,,,,,,,,,,,3,,,55,127
7583,note_on,,23,0,1,,,,,,,,,,,,,,,3,,,55,0
7590,note_on,,7,0,1,,,,,,,,,,,,,,,3,,,59,127
7613,note_on,,23,0,1,,,,,,,,,,,,,,,3,,,59,0
7620,note_on,,7,0,1,,,,,,,,,,,,,,,3,,,54,127
7643,note_on,,23,0,1,,,,,,,,,,,,,,,3,,,54,0
7650,note_on,,7,0,1,,,,,,,,,,,,,,,3,,,57,127
7673,note_on,,23,0,1,,,,,,,,,,,,,,,3,,,57,0
7680,note_on,,7,0,1,,,,,,,,,,,,,,,3,,,55,127
7700,set_tempo,,210,1,0,,,,,,,,1090909,,,,,,,,,,,
7702,set_tempo,,2,1,0,,,,,,,,1250000,,,,,,,,,,,
7703,note_on,,23,0,1,,,,,,,,,,,,,,,3,,,55,0
7708,set_tempo,,6,1,0,,,,,,,,1428571,,,,,,,,,,,
7710,note_on,,7,0,1,,,,,,,,,,,,,,,3,,,57,127
7733,note_on,,23,0,1,,,,,,,,,,,,,,,3,,,57,0
7740,note_on,,0,0,1,,,,,,,,,,,,,,,3,,,59,127
7740,note_on,,7,0,1,,,,,,,,,,,,,,,3,,,47,127
7745,set_tempo,,37,1,0,,,,,,,,2727272,,,,,,,,,,,
7748,set_tempo,,3,1,0,,,,,,,,3000000,,,,,,,,,,,
7763,note_on,,0,0,1,,,,,,,,,,,,,,,3,,,59,0
7763,note_on,,23,0,1,,,,,,,,,,,,,,,3,,,47,0
7801,set_tempo,,53,1,0,,,,,,,,869565,,,,,,,,,,,
7843,set_tempo,,42,1,0,,,,,,,,1071428,,,,,,,,,,,
7861,set_tempo,,18,1,0,,,,,,,,1000000,,,,,,,,,,,
7865,set_tempo,,4,1,0,,,,,,,,983606,,,,,,,,,,,
7873,set_tempo,,8,1,0,,,,,,,,967741,,,,,,,,,,,
7890,note_on,,127,0,1,,,,,,,,,,,,,,,3,,,55,127
7913,note_on,,23,0,1,,,,,,,,,,,,,,,3,,,55,0
7920,note_on,,7,0,1,,,,,,,,,,,,,,,3,,,53,127
7943,note_on,,23,0,1,,,,,,,,,,,,,,,3,,,53,0
7950,note_on,,7,0,1,,,,,,,,,,,,,,,3,,,55,127
7973,note_on,,23,0,1,,,,,,,,,,,,,,,3,,,55,0
7980,note_on,,7,0,1,,,,,,,,,,,,,,,3,,,52,127
8003,note_on,,23,0,1,,,,,,,,,,,,,,,3,,,52,0
8010,note_on,,7,0,1,,,,,,,,,,,,,,,3,,,55,127
8033,note_on,,23,0,1,,,,,,,,,,,,,,,3,,,55,0
8040,note_on,,7,0,1,,,,,,,,,,,,,,,3,,,53,127
8063,note_on,,23,0,1,,,,,,,,,,,,,,,3,,,53,0
8070,note_on,,7,0,1,,,,,,,,,,,,,,,3,,,55,127
8093,note_on,,23,0,1,,,,,,,,,,,,,,,3,,,55,0
8100,note_on,,7,0,1,,,,,,,,,,,,,,,3,,,47,127
8123,note_on,,23,0,1,,,,,,,,,,,,,,,3,,,47,0
8130,note_on,,7,0,1,,,,,,,,,,,,,,,3,,,55,127
8153,note_on,,23,0,1,,,,,,,,,,,,,,,3,,,55,0
8160,note_on,,7,0,1,,,,,,,,,,,,,,,3,,,53,127
8183,note_on,,23,0,1,,,,,,,,,,,,,,,3,,,53,0
8190,note_on,,7,0,1,,,,,,,,,,,,,,,3,,,55,127
8213,note_on,,23,0,1,,,,,,,,,,,,,,,3,,,55,0
8220,note_on,,7,0,1,,,,,,,,,,,,,,,3,,,52,127
8243,note_on,,23,0,1,,,,,,,,,,,,,,,3,,,52,0
8250,note_on,,7,0,1,,,,,,,,,,,,,,,3,,,55,127
8273,note_on,,23,0,1,,,,,,,,,,,,,,,3,,,55,0
8280,note_on,,7,0,1,,,,,,,,,,,,,,,3,,,53,127
8303,note_on,,23,0,1,,,,,,,,,,,,,,,3,,,53,0
8310,note_on,,7,0,1,,,,,,,,,,,,,,,3,,,55,127
8333,note_on,,23,0,1,,,,,,,,,,,,,,,3,,,55,0
8340,note_on,,7,0,1,,,,,,,,,,,,,,,3,,,47,127
8363,note_on,,23,0,1,,,,,,,,,,,,,,,3,,,47,0
8370,note_on,,7,0,1,,,,,,,,,,,,,,,3,,,53,127
8393,note_on,,23,0,1,,,,,,,,,,,,,,,3,,,53,0
8400,note_on,,7,0,1,,,,,,,,,,,,,,,3,,,52,127
8423,note_on,,23,0,1,,,,,,,,,,,,,,,3,,,52,0
8430,note_on,,7,0,1,,,,,,,,,,,,,,,3,,,53,127
8453,note_on,,23,0,1,,,,,,,,,,,,,,,3,,,53,0
8460,note_on,,7,0,1,,,,,,,,,,,,,,,3,,,50,127
8483,note_on,,23,0,1,,,,,,,,,,,,,,,3,,,50,0
8490,note_on,,7,0,1,,,,,,,,,,,,,,,3,,,53,127
8513,note_on,,23,0,1,,,,,,,,,,,,,,,3,,,53,0
8520,note_on,,7,0,1,,,,,,,,,,,,,,,3,,,52,127
8543,note_on,,23,0,1,,,,,,,,,,,,,,,3,,,52,0
8546,set_tempo,,673,1,0,,,,,,,,1132075,,,,,,,,,,,
8548,set_tempo,,2,1,0,,,,,,,,1304347,,,,,,,,,,,
8550,note_on,,7,0,1,,,,,,,,,,,,,,,3,,,55,127
8573,note_on,,23,0,1,,,,,,,,,,,,,,,3,,,55,0
8580,note_on,,7,0,1,,,,,,,,,,,,,,,3,,,48,127
8581,set_tempo,,33,1,0,,,,,,,,2727272,,,,,,,,,,,
8584,set_tempo,,3,1,0,,,,,,,,3000000,,,,,,,,,,,
8603,note_on,,23,0,1,,,,,,,,,,,,,,,3,,,48,0
8641,set_tempo,,57,1,0,,,,,,,,845070,,,,,,,,,,,
8643,set_tempo,,2,1,0,,,,,,,,689655,,,,,,,,,,,
8711,set_tempo,,68,1,0,,,,,,,,1052631,,,,,,,,,,,
8714,set_tempo,,3,1,0,,,,,,,,1000000,,,,,,,,,,,
8715,set_tempo,,1,1,0,,,,,,,,967741,,,,,,,,,,,
8730,note_on,,127,0,1,,,,,,,,,,,,,,,3,,,53,127
8753,note_on,,23,0,1,,,,,,,,,,,,,,,3,,,53,0
8760,note_on,,7,0,1,,,,,,,,,,,,,,,3,,,52,127
8783,note_on,,23,0,1,,,,,,,,,,,,,,,3,,,52,0
8790,note_on,,7,0,1,,,,,,,,,,,,,,,3,,,53,127
8813,note_on,,23,0,1,,,,,,,,,,,,,,,3,,,53,0
8820,note_on,,7,0,1,,,,,,,,,,,,,,,3,,,50,127
8843,note_on,,23,0,1,,,,,,,,,,,,,,,3,,,50,0
8850,note_on,,7,0,1,,,,,,,,,,,,,,,3,,,53,127
8873,note_on,,23,0,1,,,,,,,,,,,,,,,3,,,53,0
8880,note_on,,7,0,1,,,,,,,,,,,,,,,3,,,52,127
8903,note_on,,23,0,1,,,,,,,,,,,,,,,3,,,52,0
8910,set_tempo,,195,1,0,,,,,,,,1200000,,,,,,,,,,,
8910,note_on,,7,0,1,,,,,,,,,,,,,,,3,,,55,127
8912,set_tempo,,2,1,0,,,,,,,,1333333,,,,,,,,,,,
8933,note_on,,23,0,1,,,,,,,,,,,,,,,3,,,55,0
8940,note_on,,7,0,1,,,,,,,,,,,,,,,3,,,48,127
8943,set_tempo,,31,1,0,,,,,,,,2500000,,,,,,,,,,,
8946,set_tempo,,3,1,0,,,,,,,,3000000,,,,,,,,,,,
8963,note_on,,23,0,1,,,,,,,,,,,,,,,3,,,48,0
9001,set_tempo,,55,1,0,,,,,,,,689655,,,,,,,,,,,
9090,set_tempo,,89,1,0,,,,,,,,1052631,,,,,,,,,,,
9090,note_on,,127,0,1,,,,,,,,,,,,,,,3,,,58,127
9110,set_tempo,,20,1,0,,,,,,,,967741,,,,,,,,,,,
9113,note_on,,23,0,1,,,,,,,,,,,,,,,3,,,58,0
9120,note_on,,7,0,1,,,,,,,,,,,,,,,3,,,57,127
9120,set_tempo,,10,1,0,,,,,,,,1000000,,,,,,,,,,,
9143,note_on,,23,0,1,,,,,,,,,,,,,,,3,,,57,0
9150,set_tempo,,30,1,0,,,,,,,,967741,,,,,,,,,,,
9150,note_on,,7,0,1,,,,,,,,,,,,,,,3,,,58,127
9165,set_tempo,,15,1,0,,,,,,,,937500,,,,,,,,,,,
9173,note_on,,23,0,1,,,,,,,,,,,,,,,3,,,58,0
9180,note_on,,7,0,1,,,,,,,,,,,,,,,3,,,55,127
9203,note_on,,23,0,1,,,,,,,,,,,,,,,3,,,55,0
9210,note_on,,7,0,1,,,,,,,,,,,,,,,3,,,58,127
9233,note_on,,23,0,1,,,,,,,,,,,,,,,3,,,58,0
9240,note_on,,7,0,1,,,,,,,,,,,,,,,3,,,57,127
9263,note_on,,23,0,1,,,,,,,,,,,,,,,3,,,57,0
9270,note_on,,7,0,1,,,,,,,,,,,,,,,3,,,60,127
9293,note_on,,23,0,1,,,,,,,,,,,,,,,3,,,60,0
9300,note_on,,7,0,1,,,,,,,,,,,,,,,3,,,53,127
9323,note_on,,23,0,1,,,,,,,,,,,,,,,3,,,53,0
9330,note_on,,7,0,1,,,,,,,,,,,,,,,3,,,57,127
9353,note_on,,23,0,1,,,,,,,,,,,,,,,3,,,57,0
9360,note_on,,7,0,1,,,,,,,,,,,,,,,3,,,55,127
9383,note_on,,23,0,1,,,,,,,,,,,,,,,3,,,55,0
9390,note_on,,7,0,1,,,,,,,,,,,,,,,3,,,57,127
9413,note_on,,23,0,1,,,,,,,,,,,,,,,3,,,57,0
9420,note_on,,7,0,1,,,,,,,,,,,,,,,3,,,52,127
9443,note_on,,23,0,1,,,,,,,,,,,,,,,3,,,52,0
9450,note_on,,7,0,1,,,,,,,,,,,,,,,3,,,55,127
9473,note_on,,23,0,1,,,,,,,,,,,,,,,3,,,55,0
9480,note_on,,7,0,1,,,,,,,,,,,,,,,3,,,53,127
9503,note_on,,23,0,1,,,,,,,,,,,,,,,3,,,53,0
9510,note_on,,7,0,1,,,,,,,,,,,,,,,3,,,57,127
9533,note_on,,23,0,1,,,,,,,,,,,,,,,3,,,57,0
9540,note_on,,7,0,1,,,,,,,,,,,,,,,3,,,50,127
9563,note_on,,23,0,1,,,,,,,,,,,,,,,3,,,50,0
9570,note_on,,7,0,1,,,,,,,,,,,,,,,3,,,53,127
9593,note_on,,23,0,1,,,,,,,,,,,,,,,3,,,53,0
9600,note_on,,7,0,1,,,,,,,,,,,,,,,3,,,52,127
9623,note_on,,23,0,1,,,,,,,,,,,,,,,3,,,52,0
9630,note_on,,7,0,1,,,,,,,,,,,,,,,3,,,53,127
9653,note_on,,23,0,1,,,,,,,,,,,,,,,3,,,53,0
9660,note_on,,7,0,1,,,,,,,,,,,,,,,3,,,48,127
9683,note_on,,23,0,1,,,,,,,,,,,,,,,3,,,48,0
9690,note_on,,7,0,1,,,,,,,,,,,,,,,3,,,52,127
9713,note_on,,23,0,1,,,,,,,,,,,,,,,3,,,52,0
9720,note_on,,7,0,1,,,,,,,,,,,,,,,3,,,50,127
9743,note_on,,23,0,1,,,,,,,,,,,,,,,3,,,50,0
9750,note_on,,7,0,1,,,,,,,,,,,,,,,3,,,53,127
9773,note_on,,23,0,1,,,,,,,,,,,,,,,3,,,53,0
9780,note_on,,7,0,1,,,,,,,,,,,,,,,3,,,47,127
9803,note_on,,23,0,1,,,,,,,,,,,,,,,3,,,47,0
9810,note_on,,7,0,1,,,,,,,,,,,,,,,3,,,55,127
9833,note_on,,23,0,1,,,,,,,,,,,,,,,3,,,55,0
9840,note_on,,7,0,1,,,,,,,,,,,,,,,3,,,53,127
9863,note_on,,23,0,1,,,,,,,,,,,,,,,3,,,53,0
9870,note_on,,7,0,1,,,,,,,,,,,,,,,3,,,55,127
9893,note_on,,23,0,1,,,,,,,,,,,,,,,3,,,55,0
9900,note_on,,7,0,1,,,,,,,,,,,,,,,3,,,50,127
9923,note_on,,23,0,1,,,,,,,,,,,,,,,3,,,50,0
9930,note_on,,7,0,1,,,,,,,,,,,,,,,3,,,53,127
9953,note_on,,23,0,1,,,,,,,,,,,,,,,3,,,53,0
9960,note_on,,7,0,1,,,,,,,,,,,,,,,3,,,52,127
9983,note_on,,23,0,1,,,,,,,,,,,,,,,3,,,52,0
9990,note_on,,7,0,1,,,,,,,,,,,,,,,3,,,55,127
10013,note_on,,23,0,1,,,,,,,,,,,,,,,3,,,55,0
10020,note_on,,7,0,1,,,,,,,,,,,,,,,3,,,48,127
10043,note_on,,23,0,1,,,,,,,,,,,,,,,3,,,48,0
10050,note_on,,7,0,1,,,,,,,,,,,,,,,3,,,60,127
10073,note_on,,23,0,1,,,,,,,,,,,,,,,3,,,60,0
10080,note_on,,7,0,1,,,,,,,,,,,,,,,3,,,54,127
10103,note_on,,23,0,1,,,,,,,,,,,,,,,3,,,54,0
10110,note_on,,7,0,1,,,,,,,,,,,,,,,3,,,57,127
10133,note_on,,23,0,1,,,,,,,,,,,,,,,3,,,57,0
10140,note_on,,7,0,1,,,,,,,,,,,,,,,3,,,50,127
10163,note_on,,23,0,1,,,,,,,,,,,,,,,3,,,50,0
10170,note_on,,7,0,1,,,,,,,,,,,,,,,3,,,60,127
10193,note_on,,23,0,1,,,,,,,,,,,,,,,3,,,60,0
10200,note_on,,7,0,1,,,,,,,,,,,,,,,3,,,54,127
10223,note_on,,23,0,1,,,,,,,,,,,,,,,3,,,54,0
10230,note_on,,7,0,1,,,,,,,,,,,,,,,3,,,57,127
10253,note_on,,23,0,1,,,,,,,,,,,,,,,3,,,57,0
10260,note_on,,7,0,1,,,,,,,,,,,,,,,3,,,50,127
10283,note_on,,23,0,1,,,,,,,,,,,,,,,3,,,50,0
10290,note_on,,7,0,1,,,,,,,,,,,,,,,3,,,60,127
10313,note_on,,23,0,1,,,,,,,,,,,,,,,3,,,60,0
10320,note_on,,7,0,1,,,,,,,,,,,,,,,3,,,57,127
10343,note_on,,23,0,1,,,,,,,,,,,,,,,3,,,57,0
10350,note_on,,7,0,1,,,,,,,,,,,,,,,3,,,60,127
10373,note_on,,23,0,1,,,,,,,,,,,,,,,3,,,60,0
10380,note_on,,7,0,1,,,,,,,,,,,,,,,3,,,54,127
10403,note_on,,23,0,1,,,,,,,,,,,,,,,3,,,54,0
10410,note_on,,7,0,1,,,,,,,,,,,,,,,3,,,57,127
10433,note_on,,23,0,1,,,,,,,,,,,,,,,3,,,57,0
10440,note_on,,7,0,1,,,,,,,,,,,,,,,3,,,55,127
10463,note_on,,23,0,1,,,,,,,,,,,,,,,3,,,55,0
10470,note_on,,7,0,1,,,,,,,,,,,,,,,3,,,59,127
10493,note_on,,23,0,1,,,,,,,,,,,,,,,3,,,59,0
10500,note_on,,7,0,1,,,,,,,,,,,,,,,3,,,50,127
10523,note_on,,23,0,1,,,,,,,,,,,,,,,3,,,50,0
10530,note_on,,7,0,1,,,,,,,,,,,,,,,3,,,62,127
10553,note_on,,23,0,1,,,,,,,,,,,,,,,3,,,62,0
10560,note_on,,7,0,1,,,,,,,,,,,,,,,3,,,55,127
10583,note_on,,23,0,1,,,,,,,,,,,,,,,3,,,55,0
10590,note_on,,7,0,1,,,,,,,,,,,,,,,3,,,59,127
10613,note_on,,23,0,1,,,,,,,,,,,,,,,3,,,59,0
10620,note_on,,7,0,1,,,,,,,,,,,,,,,3,,,50,127
10643,note_on,,23,0,1,,,,,,,,,,,,,,,3,,,50,0
10650,note_on,,7,0,1,,,,,,,,,,,,,,,3,,,62,127
10673,note_on,,23,0,1,,,,,,,,,,,,,,,3,,,62,0
10680,note_on,,7,0,1,,,,,,,,,,,,,,,3,,,59,127
10703,note_on,,23,0,1,,,,,,,,,,,,,,,3,,,59,0
10710,note_on,,7,0,1,,,,,,,,,,,,,,,3,,,62,127
10733,note_on,,23,0,1,,,,,,,,,,,,,,,3,,,62,0
10740,note_on,,7,0,1,,,,,,,,,,,,,,,3,,,55,127
10763,note_on,,23,0,1,,,,,,,,,,,,,,,3,,,55,0
10770,note_on,,7,0,1,,,,,,,,,,,,,,,3,,,59,127
10793,note_on,,23,0,1,,,,,,,,,,,,,,,3,,,59,0
10800,note_on,,7,0,1,,,,,,,,,,,,,,,3,,,50,127
10823,note_on,,23,0,1,,,,,,,,,,,,,,,3,,,50,0
10830,note_on,,7,0,1,,,,,,,,,,,,,,,3,,,55,127
10853,note_on,,23,0,1,,,,,,,,,,,,,,,3,,,55,0
10860,note_on,,7,0,1,,,,,,,,,,,,,,,3,,,43,127
10883,note_on,,23,0,1,,,,,,,,,,,,,,,3,,,43,0
10890,note_on,,7,0,1,,,,,,,,,,,,,,,3,,,62,127
10913,note_on,,23,0,1,,,,,,,,,,,,,,,3,,,62,0
10920,note_on,,7,0,1,,,,,,,,,,,,,,,3,,,59,127
10943,note_on,,23,0,1,,,,,,,,,,,,,,,3,,,59,0
10950,note_on,,7,0,1,,,,,,,,,,,,,,,3,,,62,127
10973,note_on,,23,0,1,,,,,,,,,,,,,,,3,,,62,0
10980,note_on,,7,0,1,,,,,,,,,,,,,,,3,,,55,127
11003,note_on,,23,0,1,,,,,,,,,,,,,,,3,,,55,0
11010,note_on,,7,0,1,,,,,,,,,,,,,,,3,,,59,127
11033,note_on,,23,0,1,,,,,,,,,,,,,,,3,,,59,0
11040,note_on,,7,0,1,,,,,,,,,,,,,,,3,,,50,127
11063,note_on,,23,0,1,,,,,,,,,,,,,,,3,,,50,0
11070,note_on,,7,0,1,,,,,,,,,,,,,,,3,,,55,127
11093,note_on,,23,0,1,,,,,,,,,,,,,,,3,,,55,0
11100,note_on,,7,0,1,,,,,,,,,,,,,,,3,,,43,127
11123,note_on,,23,0,1,,,,,,,,,,,,,,,3,,,43,0
11130,note_on,,7,0,1,,,,,,,,,,,,,,,3,,,55,127
11153,note_on,,23,0,1,,,,,,,,,,,,,,,3,,,55,0
11160,note_on,,7,0,1,,,,,,,,,,,,,,,3,,,53,127
11175,note_on,,15,0,1,,,,,,,,,,,,,,,3,,,53,0
11179,note_on,,4,0,1,,,,,,,,,,,,,,,3,,,55,127
11195,note_on,,16,0,1,,,,,,,,,,,,,,,3,,,55,0
11199,note_on,,4,0,1,,,,,,,,,,,,,,,3,,,53,127
11215,note_on,,16,0,1,,,,,,,,,,,,,,,3,,,53,0
11220,note_on,,5,0,1,,,,,,,,,,,,,,,3,,,52,127
11235,note_on,,15,0,1,,,,,,,,,,,,,,,3,,,52,0
11239,note_on,,4,0,1,,,,,,,,,,,,,,,3,,,53,127
11255,note_on,,16,0,1,,,,,,,,,,,,,,,3,,,53,0
11259,note_on,,4,0,1,,,,,,,,,,,,,,,3,,,52,127
11275,note_on,,16,0,1,,,,,,,,,,,,,,,3,,,52,0
11280,note_on,,5,0,1,,,,,,,,,,,,,,,3,,,50,127
11303,note_on,,23,0,1,,,,,,,,,,,,,,,3,,,50,0
11310,note_on,,7,0,1,,,,,,,,,,,,,,,3,,,53,127
11333,note_on,,23,0,1,,,,,,,,,,,,,,,3,,,53,0
11340,note_on,,7,0,1,,,,,,,,,,,,,,,3,,,52,127
11363,note_on,,23,0,1,,,,,,,,,,,,,,,3,,,52,0
11370,note_on,,7,0,1,,,,,,,,,,,,,,,3,,,53,127
11393,note_on,,23,0,1,,,,,,,,,,,,,,,3,,,53,0
11400,note_on,,7,0,1,,,,,,,,,,,,,,,3,,,50,127
11415,note_on,,15,0,1,,,,,,,,,,,,,,,3,,,50,0
11419,note_on,,4,0,1,,,,,,,,,,,,,,,3,,,52,127
11435,note_on,,16,0,1,,,,,,,,,,,,,,,3,,,52,0
11439,note_on,,4,0,1,,,,,,,,,,,,,,,3,,,50,127
11455,note_on,,16,0,1,,,,,,,,,,,,,,,3,,,50,0
11460,note_on,,5,0,1,,,,,,,,,,,,,,,3,,,48,127
11475,note_on,,15,0,1,,,,,,,,,,,,,,,3,,,48,0
11479,note_on,,4,0,1,,,,,,,,,,,,,,,3,,,50,127
11495,note_on,,16,0,1,,,,,,,,,,,,,,,3,,,50,0
11499,note_on,,4,0,1,,,,,,,,,,,,,,,3,,,48,127
11515,note_on,,16,0,1,,,,,,,,,,,,,,,3,,,48,0
11520,note_on,,5,0,1,,,,,,,,,,,,,,,3,,,47,127
11522,set_tempo,,2357,1,0,,,,,,,,1111111,,,,,,,,,,,
11532,note_on,,12,0,1,,,,,,,,,,,,,,,3,,,47,0
11535,note_on,,3,0,1,,,,,,,,,,,,,,,3,,,48,127
11540,note_on,,5,0,1,,,,,,,,,,,,,,,3,,,48,0
11542,note_on,,2,0,1,,,,,,,,,,,,,,,3,,,47,127
11548,note_on,,6,0,1,,,,,,,,,,,,,,,3,,,47,0
11550,note_on,,2,0,1,,,,,,,,,,,,,,,3,,,48,127
11555,note_on,,5,0,1,,,,,,,,,,,,,,,3,,,48,0
11557,note_on,,2,0,1,,,,,,,,,,,,,,,3,,,47,127
11563,note_on,,6,0,1,,,,,,,,,,,,,,,3,,,47,0
11565,note_on,,2,0,1,,,,,,,,,,,,,,,3,,,48,127
11577,note_on,,12,0,1,,,,,,,,,,,,,,,3,,,48,0
11580,note_on,,3,0,1,,,,,,,,,,,,,,,3,,,47,127
11603,note_on,,23,0,1,,,,,,,,,,,,,,,3,,,47,0
11608,set_tempo,,86,1,0,,,,,,,,1016949,,,,,,,,,,,
11610,note_on,,7,0,1,,,,,,,,,,,,,,,3,,,50,127
11620,set_tempo,,12,1,0,,,,,,,,967741,,,,,,,,,,,
11633,note_on,,23,0,1,,,,,,,,,,,,,,,3,,,50,0
11640,note_on,,7,0,1,,,,,,,,,,,,,,,3,,,48,127
11650,set_tempo,,30,1,0,,,,,,,,937500,,,,,,,,,,,
11663,note_on,,23,0,1,,,,,,,,,,,,,,,3,,,48,0
11670,note_on,,7,0,1,,,,,,,,,,,,,,,3,,,52,127
11693,note_on,,23,0,1,,,,,,,,,,,,,,,3,,,52,0
11700,note_on,,7,0,1,,,,,,,,,,,,,,,3,,,50,127
11723,note_on,,23,0,1,,,,,,,,,,,,,,,3,,,50,0
11730,note_on,,7,0,1,,,,,,,,,,,,,,,3,,,53,127
11753,note_on,,23,0,1,,,,,,,,,,,,,,,3,,,53,0
11760,note_on,,7,0,1,,,,,,,,,,,,,,,3,,,52,127
11783,note_on,,23,0,1,,,,,,,,,,,,,,,3,,,52,0
11790,note_on,,7,0,1,,,,,,,,,,,,,,,3,,,55,127
11813,note_on,,23,0,1,,,,,,,,,,,,,,,3,,,55,0
11820,note_on,,7,0,1,,,,,,,,,,,,,,,3,,,47,127
11843,note_on,,23,0,1,,,,,,,,,,,,,,,3,,,47,0
11850,note_on,,7,0,1,,,,,,,,,,,,,,,3,,,50,127
11873,note_on,,23,0,1,,,,,,,,,,,,,,,3,,,50,0
11880,note_on,,7,0,1,,,,,,,,,,,,,,,3,,,48,127
11907,note_on,,27,0,1,,,,,,,,,,,,,,,3,,,48,0
11910,note_on,,3,0,1,,,,,,,,,,,,,,,3,,,50,127
11924,note_on,,14,0,1,,,,,,,,,,,,,,,3,,,50,0
11925,note_on,,1,0,1,,,,,,,,,,,,,,,3,,,52,127
11937,note_on,,12,0,1,,,,,,,,,,,,,,,3,,,52,0
11940,note_on,,3,0,1,,,,,,,,,,,,,,,3,,,50,127
11967,note_on,,27,0,1,,,,,,,,,,,,,,,3,,,50,0
11970,note_on,,3,0,1,,,,,,,,,,,,,,,3,,,52,127
11984,note_on,,14,0,1,,,,,,,,,,,,,,,3,,,52,0
11985,note_on,,1,0,1,,,,,,,,,,,,,,,3,,,53,127
11997,note_on,,12,0,1,,,,,,,,,,,,,,,3,,,53,0
12000,note_on,,3,0,1,,,,,,,,,,,,,,,3,,,52,127
12023,note_on,,23,0,1,,,,,,,,,,,,,,,3,,,52,0
12030,note_on,,7,0,1,,,,,,,,,,,,,,,3,,,55,127
12053,note_on,,23,0,1,,,,,,,,,,,,,,,3,,,55,0
12060,note_on,,7,0,1,,,,,,,,,,,,,,,3,,,48,127
12083,note_on,,23,0,1,,,,,,,,,,,,,,,3,,,48,0
12090,note_on,,7,0,1,,,,,,,,,,,,,,,3,,,52,127
12113,note_on,,23,0,1,,,,,,,,,,,,,,,3,,,52,0
12120,note_on,,7,0,1,,,,,,,,,,,,,,,3,,,50,127
12143,note_on,,23,0,1,,,,,,,,,,,,,,,3,,,50,0
12150,note_on,,7,0,1,,,,,,,,,,,,,,,3,,,53,127
12173,note_on,,23,0,1,,,,,,,,,,,,,,,3,,,53,0
12180,note_on,,7,0,1,,,,,,,,,,,,,,,3,,,52,127
12203,note_on,,23,0,1,,,,,,,,,,,,,,,3,,,52,0
12210,note_on,,7,0,1,,,,,,,,,,,,,,,3,,,55,127
12233,note_on,,23,0,1,,,,,,,,,,,,,,,3,,,55,0
12240,note_on,,7,0,1,,,,,,,,,,,,,,,3,,,53,127
12263,note_on,,23,0,1,,,,,,,,,,,,,,,3,,,53,0
12270,note_on,,7,0,1,,,,,,,,,,,,,,,3,,,57,127
12293,note_on,,23,0,1,,,,,,,,,,,,,,,3,,,57,0
12300,note_on,,7,0,1,,,,,,,,,,,,,,,3,,,49,127
12323,note_on,,23,0,1,,,,,,,,,,,,,,,3,,,49,0
12330,note_on,,7,0,1,,,,,,,,,,,,,,,3,,,52,127
12353,note_on,,23,0,1,,,,,,,,,,,,,,,3,,,52,0
12360,note_on,,7,0,1,,,,,,,,,,,,,,,3,,,50,127
12387,note_on,,27,0,1,,,,,,,,,,,,,,,3,,,50,0
12390,note_on,,3,0,1,,,,,,,,,,,,,,,3,,,52,127
12404,note_on,,14,0,1,,,,,,,,,,,,,,,3,,,52,0
12405,note_on,,1,0,1,,,,,,,,,,,,,,,3,,,53,127
12417,note_on,,12,0,1,,,,,,,,,,,,,,,3,,,53,0
12420,note_on,,3,0,1,,,,,,,,,,,,,,,3,,,52,127
12447,note_on,,27,0,1,,,,,,,,,,,,,,,3,,,52,0
12450,note_on,,3,0,1,,,,,,,,,,,,,,,3,,,53,127
12464,note_on,,14,0,1,,,,,,,,,,,,,,,3,,,53,0
12465,note_on,,1,0,1,,,,,,,,,,,,,,,3,,,55,127
12477,note_on,,12,0,1,,,,,,,,,,,,,,,3,,,55,0
12480,note_on,,3,0,1,,,,,,,,,,,,,,,3,,,53,127
12503,note_on,,23,0,1,,,,,,,,,,,,,,,3,,,53,0
12510,note_on,,7,0,1,,,,,,,,,,,,,,,3,,,57,127
12533,note_on,,23,0,1,,,,,,,,,,,,,,,3,,,57,0
12540,note_on,,7,0,1,,,,,,,,,,,,,,,3,,,50,127
12563,note_on,,23,0,1,,,,,,,,,,,,,,,3,,,50,0
12570,note_on,,7,0,1,,,,,,,,,,,,,,,3,,,53,127
12593,note_on,,23,0,1,,,,,,,,,,,,,,,3,,,53,0
12600,note_on,,7,0,1,,,,,,,,,,,,,,,3,,,52,127
12627,note_on,,27,0,1,,,,,,,,,,,,,,,3,,,52,0
12630,note_on,,3,0,1,,,,,,,,,,,,,,,3,,,53,127
12644,note_on,,14,0,1,,,,,,,,,,,,,,,3,,,53,0
12645,note_on,,1,0,1,,,,,,,,,,,,,,,3,,,55,127
12657,note_on,,12,0,1,,,,,,,,,,,,,,,3,,,55,0
12660,note_on,,3,0,1,,,,,,,,,,,,,,,3,,,53,127
12687,note_on,,27,0,1,,,,,,,,,,,,,,,3,,,53,0
12690,note_on,,3,0,1,,,,,,,,,,,,,,,3,,,55,127
12704,note_on,,14,0,1,,,,,,,,,,,,,,,3,,,55,0
12705,note_on,,1,0,1,,,,,,,,,,,,,,,3,,,57,127
12717,note_on,,12,0,1,,,,,,,,,,,,,,,3,,,57,0
12720,note_on,,3,0,1,,,,,,,,,,,,,,,3,,,47,127
12743,note_on,,23,0,1,,,,,,,,,,,,,,,3,,,47,0
12750,note_on,,7,0,1,,,,,,,,,,,,,,,3,,,55,127
12773,note_on,,23,0,1,,,,,,,,,,,,,,,3,,,55,0
12780,note_on,,7,0,1,,,,,,,,,,,,,,,3,,,48,127
12803,note_on,,23,0,1,,,,,,,,,,,,,,,3,,,48,0
12810,note_on,,7,0,1,,,,,,,,,,,,,,,3,,,50,127
12833,note_on,,23,0,1,,,,,,,,,,,,,,,3,,,50,0
12840,note_on,,7,0,1,,,,,,,,,,,,,,,3,,,43,127
12847,set_tempo,,1197,1,0,,,,,,,,1000000,,,,,,,,,,,
12863,note_on,,23,0,1,,,,,,,,,,,,,,,3,,,43,0
12870,note_on,,7,0,1,,,,,,,,,,,,,,,3,,,52,127
12893,note_on,,23,0,1,,,,,,,,,,,,,,,3,,,52,0
12900,note_on,,7,0,1,,,,,,,,,,,,,,,3,,,50,127
12905,note_on,,5,0,1,,,,,,,,,,,,,,,3,,,50,0
12907,note_on,,2,0,1,,,,,,,,,,,,,,,3,,,52,127
12913,note_on,,6,0,1,,,,,,,,,,,,,,,3,,,52,0
12915,note_on,,2,0,1,,,,,,,,,,,,,,,3,,,50,127
12920,note_on,,5,0,1,,,,,,,,,,,,,,,3,,,50,0
12922,note_on,,2,0,1,,,,,,,,,,,,,,,3,,,52,127
12928,note_on,,6,0,1,,,,,,,,,,,,,,,3,,,52,0
12930,note_on,,2,0,1,,,,,,,,,,,,,,,3,,,50,127
12935,note_on,,5,0,1,,,,,,,,,,,,,,,3,,,50,0
12937,note_on,,2,0,1,,,,,,,,,,,,,,,3,,,52,127
12943,note_on,,6,0,1,,,,,,,,,,,,,,,3,,,52,0
12945,note_on,,2,0,1,,,,,,,,,,,,,,,3,,,50,127
12957,note_on,,12,0,1,,,,,,,,,,,,,,,3,,,50,0
12960,note_on,,3,0,1,,,,,,,,,,,,,,,3,,,48,127
12960,set_tempo,,113,1,0,,,,,,,,967741,,,,,,,,,,,
12962,set_tempo,,2,1,0,,,,,,,,731707,,,,,,,,,,,
13030,note_on,,70,0,1,,,,,,,,,,,,,,,3,,,48,0
13032,set_tempo,,70,1,0,,,,,,,,6000000,,,,,,,,,,,
13047,set_tempo,,15,1,0,,,,,,,,937500,,,,,,,,,,,
13050,note_on,,20,0,1,,,,,,,,,,,,,,,3,,,58,127
13050,set_tempo,,3,1,0,,,,,,,,1000000,,,,,,,,,,,
13067,set_tempo,,17,1,0,,,,,,,,983606,,,,,,,,,,,
13073,note_on,,23,0,1,,,,,,,,,,,,,,,3,,,58,0
13080,set_tempo,,13,1,0,,,,,,,,1000000,,,,,,,,,,,
13080,note_on,,7,0,1,,,,,,,,,,,,,,,3,,,52,127
13092,set_tempo,,12,1,0,,,,,,,,983606,,,,,,,,,,,
13103,note_on,,23,0,1,,,,,,,,,,,,,,,3,,,52,0
13107,set_tempo,,15,1,0,,,,,,,,1000000,,,,,,,,,,,
13110,note_on,,7,0,1,,,,,,,,,,,,,,,3,,,55,127
13115,set_tempo,,8,1,0,,,,,,,,983606,,,,,,,,,,,
13120,set_tempo,,5,1,0,,,,,,,,967741,,,,,,,,,,,
13125,set_tempo,,5,1,0,,,,,,,,983606,,,,,,,,,,,
13133,note_on,,23,0,1,,,,,,,,,,,,,,,3,,,55,0
13135,set_tempo,,10,1,0,,,,,,,,967741,,,,,,,,,,,
13140,note_on,,7,0,1,,,,,,,,,,,,,,,3,,,48,127
13152,set_tempo,,17,1,0,,,,,,,,937500,,,,,,,,,,,
13163,note_on,,23,0,1,,,,,,,,,,,,,,,3,,,48,0
13170,note_on,,7,0,1,,,,,,,,,,,,,,,3,,,58,127
13193,note_on,,23,0,1,,,,,,,,,,,,,,,3,,,58,0
13200,note_on,,7,0,1,,,,,,,,,,,,,,,3,,,52,127
13223,note_on,,23,0,1,,,,,,,,,,,,,,,3,,,52,0
13230,note_on,,7,0,1,,,,,,,,,,,,,,,3,,,55,127
13253,note_on,,23,0,1,,,,,,,,,,,,,,,3,,,55,0
13260,note_on,,7,0,1,,,,,,,,,,,,,,,3,,,48,127
13283,note_on,,23,0,1,,,,,,,,,,,,,,,3,,,48,0
13290,note_on,,7,0,1,,,,,,,,,,,,,,,3,,,58,127
13313,note_on,,23,0,1,,,,,,,,,,,,,,,3,,,58,0
13320,note_on,,7,0,1,,,,,,,,,,,,,,,3,,,57,127
13343,note_on,,23,0,1,,,,,,,,,,,,,,,3,,,57,0
13350,note_on,,7,0,1,,,,,,,,,,,,,,,3,,,60,127
13373,note_on,,23,0,1,,,,,,,,,,,,,,,3,,,60,0
13380,note_on,,7,0,1,,,,,,,,,,,,,,,3,,,53,127
13403,note_on,,23,0,1,,,,,,,,,,,,,,,3,,,53,0
13410,note_on,,7,0,1,,,,,,,,,,,,,,,3,,,55,127
13433,note_on,,23,0,1,,,,,,,,,,,,,,,3,,,55,0
13440,note_on,,7,0,1,,,,,,,,,,,,,,,3,,,52,127
13463,note_on,,23,0,1,,,,,,,,,,,,,,,3,,,52,0
13470,note_on,,7,0,1,,,,,,,,,,,,,,,3,,,55,127
13493,note_on,,23,0,1,,,,,,,,,,,,,,,3,,,55,0
13500,note_on,,7,0,1,,,,,,,,,,,,,,,3,,,48,127
13523,note_on,,23,0,1,,,,,,,,,,,,,,,3,,,48,0
13530,note_on,,7,0,1,,,,,,,,,,,,,,,3,,,60,127
13553,note_on,,23,0,1,,,,,,,,,,,,,,,3,,,60,0
13560,note_on,,7,0,1,,,,,,,,,,,,,,,3,,,58,127
13575,note_on,,15,0,1,,,,,,,,,,,,,,,3,,,58,0
13579,note_on,,4,0,1,,,,,,,,,,,,,,,3,,,60,127
13595,note_on,,16,0,1,,,,,,,,,,,,,,,3,,,60,0
13599,note_on,,4,0,1,,,,,,,,,,,,,,,3,,,58,127
13615,note_on,,16,0,1,,,,,,,,,,,,,,,3,,,58,0
13620,note_on,,5,0,1,,,,,,,,,,,,,,,3,,,57,127
13635,note_on,,15,0,1,,,,,,,,,,,,,,,3,,,57,0
13639,note_on,,4,0,1,,,,,,,,,,,,,,,3,,,58,127
13655,note_on,,16,0,1,,,,,,,,,,,,,,,3,,,58,0
13659,note_on,,4,0,1,,,,,,,,,,,,,,,3,,,57,127
13675,note_on,,16,0,1,,,,,,,,,,,,,,,3,,,57,0
13680,note_on,,5,0,1,,,,,,,,,,,,,,,3,,,55,127
13695,note_on,,15,0,1,,,,,,,,,,,,,,,3,,,55,0
13699,note_on,,4,0,1,,,,,,,,,,,,,,,3,,,57,127
13715,note_on,,16,0,1,,,,,,,,,,,,,,,3,,,57,0
13719,note_on,,4,0,1,,,,,,,,,,,,,,,3,,,55,127
13735,note_on,,16,0,1,,,,,,,,,,,,,,,3,,,55,0
13740,note_on,,5,0,1,,,,,,,,,,,,,,,3,,,53,127
13755,note_on,,15,0,1,,,,,,,,,,,,,,,3,,,53,0
13759,note_on,,4,0,1,,,,,,,,,,,,,,,3,,,55,127
13775,note_on,,16,0,1,,,,,,,,,,,,,,,3,,,55,0
13779,note_on,,4,0,1,,,,,,,,,,,,,,,3,,,53,127
13795,note_on,,16,0,1,,,,,,,,,,,,,,,3,,,53,0
13800,note_on,,5,0,1,,,,,,,,,,,,,,,3,,,52,127
13815,note_on,,15,0,1,,,,,,,,,,,,,,,3,,,52,0
13819,note_on,,4,0,1,,,,,,,,,,,,,,,3,,,53,127
13835,note_on,,16,0,1,,,,,,,,,,,,,,,3,,,53,0
13839,note_on,,4,0,1,,,,,,,,,,,,,,,3,,,52,127
13855,note_on,,16,0,1,,,,,,,,,,,,,,,3,,,52,0
13860,note_on,,5,0,1,,,,,,,,,,,,,,,3,,,50,127
13875,note_on,,15,0,1,,,,,,,,,,,,,,,3,,,50,0
13879,note_on,,4,0,1,,,,,,,,,,,,,,,3,,,52,127
13895,note_on,,16,0,1,,,,,,,,,,,,,,,3,,,52,0
13899,note_on,,4,0,1,,,,,,,,,,,,,,,3,,,50,127
13915,note_on,,16,0,1,,,,,,,,,,,,,,,3,,,50,0
13920,note_on,,5,0,1,,,,,,,,,,,,,,,3,,,48,127
13935,note_on,,15,0,1,,,,,,,,,,,,,,,3,,,48,0
13939,note_on,,4,0,1,,,,,,,,,,,,,,,3,,,50,127
13955,note_on,,16,0,1,,,,,,,,,,,,,,,3,,,50,0
13959,note_on,,4,0,1,,,,,,,,,,,,,,,3,,,48,127
13975,note_on,,16,0,1,,,,,,,,,,,,,,,3,,,48,0
13980,note_on,,5,0,1,,,,,,,,,,,,,,,3,,,46,127
13995,note_on,,15,0,1,,,,,,,,,,,,,,,3,,,46,0
13999,note_on,,4,0,1,,,,,,,,,,,,,,,3,,,48,127
14015,note_on,,16,0,1,,,,,,,,,,,,,,,3,,,48,0
14019,note_on,,4,0,1,,,,,,,,,,,,,,,3,,,46,127
14035,note_on,,16,0,1,,,,,,,,,,,,,,,3,,,46,0
14040,note_on,,5,0,1,,,,,,,,,,,,,,,3,,,45,127
14055,note_on,,15,0,1,,,,,,,,,,,,,,,3,,,45,0
14059,note_on,,4,0,1,,,,,,,,,,,,,,,3,,,46,127
14075,note_on,,16,0,1,,,,,,,,,,,,,,,3,,,46,0
14079,note_on,,4,0,1,,,,,,,,,,,,,,,3,,,45,127
14095,note_on,,16,0,1,,,,,,,,,,,,,,,3,,,45,0
14100,note_on,,5,0,1,,,,,,,,,,,,,,,3,,,43,127
14115,note_on,,15,0,1,,,,,,,,,,,,,,,3,,,43,0
14119,note_on,,4,0,1,,,,,,,,,,,,,,,3,,,45,127
14135,note_on,,16,0,1,,,,,,,,,,,,,,,3,,,45,0
14139,note_on,,4,0,1,,,,,,,,,,,,,,,3,,,43,127
14155,note_on,,16,0,1,,,,,,,,,,,,,,,3,,,43,0
14160,note_on,,5,0,1,,,,,,,,,,,,,,,3,,,41,127
14183,note_on,,23,0,1,,,,,,,,,,,,,,,3,,,41,0
14190,note_on,,7,0,1,,,,,,,,,,,,,,,3,,,43,127
14202,note_on,,12,0,1,,,,,,,,,,,,,,,3,,,43,0
14205,note_on,,3,0,1,,,,,,,,,,,,,,,3,,,41,127
14217,note_on,,12,0,1,,,,,,,,,,,,,,,3,,,41,0
14220,note_on,,3,0,1,,,,,,,,,,,,,,,3,,,40,127
14243,note_on,,23,0,1,,,,,,,,,,,,,,,3,,,40,0
14250,note_on,,7,0,1,,,,,,,,,,,,,,,3,,,41,127
14273,note_on,,23,0,1,,,,,,,,,,,,,,,3,,,41,0
14280,note_on,,7,0,1,,,,,,,,,,,,,,,3,,,43,127
14298,set_tempo,,1146,1,0,,,,,,,,1250000,,,,,,,,,,,
14350,note_on,,70,0,1,,,,,,,,,,,,,,,3,,,43,0
14370,note_on,,20,0,1,,,,,,,,,,,,,,,3,,,54,127
14370,set_tempo,,72,1,0,,,,,,,,1016949,,,,,,,,,,,
14393,note_on,,23,0,1,,,,,,,,,,,,,,,3,,,54,0
14400,note_on,,7,0,1,,,,,,,,,,,,,,,3,,,55,127
14435,note_on,,35,0,1,,,,,,,,,,,,,,,3,,,55,0
14445,note_on,,10,0,1,,,,,,,,,,,,,,,3,,,54,127
14457,note_on,,12,0,1,,,,,,,,,,,,,,,3,,,54,0
14460,note_on,,3,0,1,,,,,,,,,,,,,,,3,,,55,127
14495,note_on,,35,0,1,,,,,,,,,,,,,,,3,,,55,0
14505,note_on,,10,0,1,,,,,,,,,,,,,,,3,,,54,127
14517,note_on,,12,0,1,,,,,,,,,,,,,,,3,,,54,0
14520,note_on,,3,0,1,,,,,,,,,,,,,,,3,,,55,127
14555,note_on,,35,0,1,,,,,,,,,,,,,,,3,,,55,0
14565,note_on,,10,0,1,,,,,,,,,,,,,,,3,,,54,127
14577,note_on,,12,0,1,,,,,,,,,,,,,,,3,,,54,0
14580,note_on,,3,0,1,,,,,,,,,,,,,,,3,,,55,127
14615,note_on,,35,0,1,,,,,,,,,,,,,,,3,,,55,0
14625,note_on,,10,0,1,,,,,,,,,,,,,,,3,,,54,127
14637,note_on,,12,0,1,,,,,,,,,,,,,,,3,,,54,0
14640,note_on,,3,0,1,,,,,,,,,,,,,,,3,,,55,127
14652,note_on,,12,0,1,,,,,,,,,,,,,,,3,,,55,0
14655,note_on,,3,0,1,,,,,,,,,,,,,,,3,,,53,127
14667,note_on,,12,0,1,,,,,,,,,,,,,,,3,,,53,0
14670,note_on,,3,0,1,,,,,,,,,,,,,,,3,,,52,127
14682,note_on,,12,0,1,,,,,,,,,,,,,,,3,,,52,0
14685,note_on,,3,0,1,,,,,,,,,,,,,,,3,,,53,127
14697,note_on,,12,0,1,,,,,,,,,,,,,,,3,,,53,0
14700,note_on,,3,0,1,,,,,,,,,,,,,,,3,,,55,127
14712,note_on,,12,0,1,,,,,,,,,,,,,,,3,,,55,0
14715,note_on,,3,0,1,,,,,,,,,,,,,,,3,,,53,127
14727,note_on,,12,0,1,,,,,,,,,,,,,,,3,,,53,0
14730,note_on,,3,0,1,,,,,,,,,,,,,,,3,,,52,127
14742,note_on,,12,0,1,,,,,,,,,,,,,,,3,,,52,0
14745,note_on,,3,0,1,,,,,,,,,,,,,,,3,,,53,127
14757,note_on,,12,0,1,,,,,,,,,,,,,,,3,,,53,0
14760,set_tempo,,390,1,0,,,,,,,,1250000,,,,,,,,,,,
14760,note_on,,3,0,1,,,,,,,,,,,,,,,3,,,55,127
14795,note_on,,35,0,1,,,,,,,,,,,,,,,3,,,55,0
14805,note_on,,10,0,1,,,,,,,,,,,,,,,3,,,47,127
14817,note_on,,12,0,1,,,,,,,,,,,,,,,3,,,47,0
14820,note_on,,3,0,1,,,,,,,,,,,,,,,3,,,48,127
14855,note_on,,35,0,1,,,,,,,,,,,,,,,3,,,48,0
14865,note_on,,10,0,1,,,,,,,,,,,,,,,3,,,41,127
14877,note_on,,12,0,1,,,,,,,,,,,,,,,3,,,41,0
14880,note_on,,3,0,1,,,,,,,,,,,,,,,3,,,43,127
14950,note_on,,70,0,1,,,,,,,,,,,,,,,3,,,43,0
14970,note_on,,20,0,1,,,,,,,,,,,,,,,3,,,77,127
14970,note_on,,0,0,1,,,,,,,,,,,,,,,3,,,67,127
14970,note_on,,0,0,1,,,,,,,,,,,,,,,3,,,71,127
14970,note_on,,0,0,1,,,,,,,,,,,,,,,3,,,55,127
14970,note_on,,0,0,1,,,,,,,,,,,,,,,3,,,62,127
14970,note_on,,0,0,1,,,,,,,,,,,,,,,3,,,43,127
14983,set_tempo,,223,1,0,,,,,,,,983606,,,,,,,,,,,
14993,note_on,,0,0,1,,,,,,,,,,,,,,,3,,,43,0
14993,note_on,,0,0,1,,,,,,,,,,,,,,,3,,,62,0
14993,note_on,,0,0,1,,,,,,,,,,,,,,,3,,,55,0
14993,note_on,,23,0,1,,,,,,,,,,,,,,,3,,,77,0
14993,note_on,,0,0,1,,,,,,,,,,,,,,,3,,,71,0
14993,note_on,,0,0,1,,,,,,,,,,,,,,,3,,,67,0
15000,note_on,,7,0,1,,,,,,,,,,,,,,,3,,,76,127
15000,note_on,,0,0,1,,,,,,,,,,,,,,,3,,,67,127
15000,note_on,,0,0,1,,,,,,,,,,,,,,,3,,,72,127
15000,note_on,,0,0,1,,,,,,,,,,,,,,,3,,,55,127
15000,note_on,,0,0,1,,,,,,,,,,,,,,,3,,,60,127
15000,note_on,,0,0,1,,,,,,,,,,,,,,,3,,,48,127
15047,note_on,,0,0,1,,,,,,,,,,,,,,,3,,,55,0
15047,note_on,,47,0,1,,,,,,,,,,,,,,,3,,,67,0
15047,note_on,,0,0,1,,,,,,,,,,,,,,,3,,,72,0
15047,note_on,,0,0,1,,,,,,,,,,,,,,,3,,,48,0
15060,note_on,,13,0,1,,,,,,,,,,,,,,,3,,,36,127
15070,note_on,,10,0,1,,,,,,,,,,,,,,,3,,,76,0
15070,note_on,,0,0,1,,,,,,,,,,,,,,,3,,,60,0
15090,note_on,,20,0,1,,,,,,,,,,,,,,,3,,,67,127
15090,note_on,,0,0,1,,,,,,,,,,,,,,,3,,,64,127
15113,note_on,,0,0,1,,,,,,,,,,,,,,,3,,,64,0
15113,note_on,,23,0,1,,,,,,,,,,,,,,,3,,,67,0
15114,note_on,,1,0,1,,,,,,,,,,,,,,,3,,,36,0
15120,note_on,,6,0,1,,,,,,,,,,,,,,,3,,,69,127
15120,note_on,,0,0,1,,,,,,,,,,,,,,,3,,,65,127
15143,note_on,,23,0,1,,,,,,,,,,,,,,,3,,,69,0
15150,note_on,,7,0,1,,,,,,,,,,,,,,,3,,,71,127
15162,note_on,,12,0,1,,,,,,,,,,,,,,,3,,,71,0
15165,note_on,,3,0,1,,,,,,,,,,,,,,,3,,,72,127
15167,note_on,,2,0,1,,,,,,,,,,,,,,,3,,,65,0
15177,note_on,,10,0,1,,,,,,,,,,,,,,,3,,,72,0
15180,note_on,,0,0,1,,,,,,,,,,,,,,,3,,,62,127
15180,note_on,,3,0,1,,,,,,,,,,,,,,,3,,,71,127
15203,note_on,,23,0,1,,,,,,,,,,,,,,,3,,,71,0
15210,note_on,,7,0,1,,,,,,,,,,,,,,,3,,,72,127
15222,note_on,,12,0,1,,,,,,,,,,,,,,,3,,,72,0
15225,note_on,,3,0,1,,,,,,,,,,,,,,,3,,,74,127
15227,note_on,,2,0,1,,,,,,,,,,,,,,,3,,,62,0
15237,note_on,,10,0,1,,,,,,,,,,,,,,,3,,,74,0
15240,note_on,,3,0,1,,,,,,,,,,,,,,,3,,,72,127
15240,note_on,,0,0,1,,,,,,,,,,,,,,,3,,,64,127
15263,note_on,,23,0,1,,,,,,,,,,,,,,,3,,,72,0
15270,note_on,,7,0,1,,,,,,,,,,,,,,,3,,,74,127
15282,note_on,,12,0,1,,,,,,,,,,,,,,,3,,,74,0
15285,note_on,,3,0,1,,,,,,,,,,,,,,,3,,,76,127
15287,note_on,,2,0,1,,,,,,,,,,,,,,,3,,,64,0
15297,note_on,,10,0,1,,,,,,,,,,,,,,,3,,,76,0
15300,note_on,,3,0,1,,,,,,,,,,,,,,,3,,,74,127
15300,note_on,,0,0,1,,,,,,,,,,,,,,,3,,,59,127
15323,note_on,,23,0,1,,,,,,,,,,,,,,,3,,,74,0
15330,note_on,,7,0,1,,,,,,,,,,,,,,,3,,,76,127
15342,note_on,,12,0,1,,,,,,,,,,,,,,,3,,,76,0
15345,note_on,,3,0,1,,,,,,,,,,,,,,,3,,,77,127
15347,note_on,,2,0,1,,,,,,,,,,,,,,,3,,,59,0
15357,note_on,,10,0,1,,,,,,,,,,,,,,,3,,,77,0
15360,note_on,,3,0,1,,,,,,,,,,,,,,,3,,,76,127
15360,note_on,,0,0,1,,,,,,,,,,,,,,,3,,,60,127
15383,note_on,,23,0,1,,,,,,,,,,,,,,,3,,,76,0
15390,note_on,,7,0,1,,,,,,,,,,,,,,,3,,,77,127
15402,note_on,,12,0,1,,,,,,,,,,,,,,,3,,,77,0
15405,note_on,,3,0,1,,,,,,,,,,,,,,,3,,,79,127
15407,note_on,,2,0,1,,,,,,,,,,,,,,,3,,,60,0
15417,note_on,,10,0,1,,,,,,,,,,,,,,,3,,,79,0
15420,note_on,,3,0,1,,,,,,,,,,,,,,,3,,,77,127
15420,note_on,,0,0,1,,,,,,,,,,,,,,,3,,,62,127
15443,note_on,,23,0,1,,,,,,,,,,,,,,,3,,,77,0
15450,note_on,,7,0,1,,,,,,,,,,,,,,,3,,,79,127
15462,note_on,,12,0,1,,,,,,,,,,,,,,,3,,,79,0
15465,note_on,,3,0,1,,,,,,,,,,,,,,,3,,,81,127
15467,note_on,,2,0,1,,,,,,,,,,,,,,,3,,,62,0
15477,note_on,,10,0,1,,,,,,,,,,,,,,,3,,,81,0
15480,note_on,,3,0,1,,,,,,,,,,,,,,,3,,,79,127
15480,note_on,,0,0,1,,,,,,,,,,,,,,,3,,,64,127
15480,note_on,,0,0,1,,,,,,,,,,,,,,,3,,,48,127
15510,note_on,,30,0,1,,,,,,,,,,,,,,,3,,,67,127
15527,note_on,,17,0,1,,,,,,,,,,,,,,,3,,,79,0
15533,note_on,,6,0,1,,,,,,,,,,,,,,,3,,,67,0
15534,note_on,,1,0,1,,,,,,,,,,,,,,,3,,,48,0
15540,note_on,,6,0,1,,,,,,,,,,,,,,,3,,,72,127
15550,note_on,,10,0,1,,,,,,,,,,,,,,,3,,,64,0
15570,note_on,,20,0,1,,,,,,,,,,,,,,,3,,,52,127
15587,note_on,,17,0,1,,,,,,,,,,,,,,,3,,,72,0
15593,note_on,,6,0,1,,,,,,,,,,,,,,,3,,,52,0
15600,note_on,,7,0,1,,,,,,,,,,,,,,,3,,,53,127
15630,note_on,,30,0,1,,,,,,,,,,,,,,,3,,,69,127
15653,note_on,,23,0,1,,,,,,,,,,,,,,,3,,,69,0
15660,note_on,,7,0,1,,,,,,,,,,,,,,,3,,,77,127
15660,note_on,,0,0,1,,,,,,,,,,,,,,,3,,,74,127
15670,note_on,,10,0,1,,,,,,,,,,,,,,,3,,,53,0
15683,note_on,,13,0,1,,,,,,,,,,,,,,,3,,,74,0
15690,note_on,,0,0,1,,,,,,,,,,,,,,,3,,,50,127
15690,note_on,,7,0,1,,,,,,,,,,,,,,,3,,,69,127
15713,note_on,,23,0,1,,,,,,,,,,,,,,,3,,,69,0
15713,note_on,,0,0,1,,,,,,,,,,,,,,,3,,,50,0
15720,note_on,,7,0,1,,,,,,,,,,,,,,,3,,,71,127
15720,note_on,,0,0,1,,,,,,,,,,,,,,,3,,,55,127
15750,note_on,,30,0,1,,,,,,,,,,,,,,,3,,,62,127
15761,note_on,,11,0,1,,,,,,,,,,,,,,,3,,,77,0
15767,note_on,,6,0,1,,,,,,,,,,,,,,,3,,,71,0
15767,note_on,,0,0,1,,,,,,,,,,,,,,,3,,,55,0
15773,note_on,,6,0,1,,,,,,,,,,,,,,,3,,,62,0
15780,note_on,,7,0,1,,,,,,,,,,,,,,,3,,,76,127
15780,note_on,,0,0,1,,,,,,,,,,,,,,,3,,,72,127
15780,note_on,,0,0,1,,,,,,,,,,,,,,,3,,,64,127
15803,note_on,,23,0,1,,,,,,,,,,,,,,,3,,,64,0
15810,note_on,,7,0,1,,,,,,,,,,,,,,,3,,,60,127
15827,note_on,,17,0,1,,,,,,,,,,,,,,,3,,,76,0
15833,note_on,,6,0,1,,,,,,,,,,,,,,,3,,,60,0
15840,note_on,,7,0,1,,,,,,,,,,,,,,,3,,,74,127
15840,note_on,,0,0,1,,,,,,,,,,,,,,,3,,,67,127
15857,note_on,,17,0,1,,,,,,,,,,,,,,,3,,,72,0
15870,note_on,,13,0,1,,,,,,,,,,,,,,,3,,,69,127
15893,note_on,,23,0,1,,,,,,,,,,,,,,,3,,,69,0
15900,note_on,,7,0,1,,,,,,,,,,,,,,,3,,,71,127
15900,note_on,,0,0,1,,,,,,,,,,,,,,,3,,,55,127
15910,note_on,,10,0,1,,,,,,,,,,,,,,,3,,,67,0
15930,note_on,,20,0,1,,,,,,,,,,,,,,,3,,,65,127
15935,note_on,,5,0,1,,,,,,,,,,,,,,,3,,,74,0
15947,note_on,,12,0,1,,,,,,,,,,,,,,,3,,,71,0
15947,note_on,,0,0,1,,,,,,,,,,,,,,,3,,,55,0
15953,note_on,,6,0,1,,,,,,,,,,,,,,,3,,,65,0
15960,note_on,,0,0,1,,,,,,,,,,,,,,,3,,,48,127
15960,note_on,,0,0,1,,,,,,,,,,,,,,,3,,,60,127
15960,note_on,,0,0,1,,,,,,,,,,,,,,,3,,,67,127
15960,note_on,,7,0,1,,,,,,,,,,,,,,,3,,,72,127
15960,note_on,,0,0,1,,,,,,,,,,,,,,,3,,,60,127
15983,note_on,,23,0,1,,,,,,,,,,,,,,,3,,,60,0
15990,note_on,,7,0,1,,,,,,,,,,,,,,,3,,,55,127
16007,note_on,,17,0,1,,,,,,,,,,,,,,,3,,,72,0
16007,note_on,,0,0,1,,,,,,,,,,,,,,,3,,,67,0
16007,note_on,,0,0,1,,,,,,,,,,,,,,,3,,,60,0
16013,note_on,,6,0,1,,,,,,,,,,,,,,,3,,,55,0
16020,note_on,,7,0,1,,,,,,,,,,,,,,,3,,,48,127
16023,note_on,,3,0,1,,,,,,,,,,,,,,,3,,,48,0
16043,note_on,,20,0,1,,,,,,,,,,,,,,,3,,,48,0
16050,note_on,,7,0,1,,,,,,,,,,,,,,,3,,,76,127
16050,note_on,,0,0,1,,,,,,,,,,,,,,,3,,,71,127
16050,note_on,,0,0,1,,,,,,,,,,,,,,,3,,,55,127
16073,note_on,,23,0,1,,,,,,,,,,,,,,,3,,,76,0
16073,note_on,,0,0,1,,,,,,,,,,,,,,,3,,,71,0
16073,note_on,,0,0,1,,,,,,,,,,,,,,,3,,,55,0
16080,note_on,,7,0,1,,,,,,,,,,,,,,,3,,,77,127
16080,note_on,,0,0,1,,,,,,,,,,,,,,,3,,,72,127
16080,note_on,,0,0,1,,,,,,,,,,,,,,,3,,,57,127
16103,note_on,,23,0,1,,,,,,,,,,,,,,,3,,,57,0
16110,note_on,,7,0,1,,,,,,,,,,,,,,,3,,,59,127
16122,note_on,,12,0,1,,,,,,,,,,,,,,,3,,,59,0
16125,note_on,,3,0,1,,,,,,,,,,,,,,,3,,,60,127
16127,note_on,,2,0,1,,,,,,,,,,,,,,,3,,,77,0
16127,note_on,,0,0,1,,,,,,,,,,,,,,,3,,,72,0
16137,note_on,,10,0,1,,,,,,,,,,,,,,,3,,,60,0
16140,note_on,,0,0,1,,,,,,,,,,,,,,,3,,,67,127
16140,note_on,,0,0,1,,,,,,,,,,,,,,,3,,,59,127
16140,note_on,,3,0,1,,,,,,,,,,,,,,,3,,,74,127
16163,note_on,,23,0,1,,,,,,,,,,,,,,,3,,,59,0
16170,note_on,,7,0,1,,,,,,,,,,,,,,,3,,,60,127
16182,note_on,,12,0,1,,,,,,,,,,,,,,,3,,,60,0
16185,note_on,,3,0,1,,,,,,,,,,,,,,,3,,,62,127
16187,note_on,,0,0,1,,,,,,,,,,,,,,,3,,,67,0
16187,note_on,,2,0,1,,,,,,,,,,,,,,,3,,,74,0
16197,note_on,,10,0,1,,,,,,,,,,,,,,,3,,,62,0
16200,note_on,,3,0,1,,,,,,,,,,,,,,,3,,,76,127
16200,note_on,,0,0,1,,,,,,,,,,,,,,,3,,,67,127
16200,note_on,,0,0,1,,,,,,,,,,,,,,,3,,,60,127
16223,note_on,,23,0,1,,,,,,,,,,,,,,,3,,,60,0
16230,note_on,,7,0,1,,,,,,,,,,,,,,,3,,,62,127
16242,note_on,,12,0,1,,,,,,,,,,,,,,,3,,,62,0
16245,note_on,,3,0,1,,,,,,,,,,,,,,,3,,,64,127
16247,note_on,,2,0,1,,,,,,,,,,,,,,,3,,,76,0
16247,note_on,,0,0,1,,,,,,,,,,,,,,,3,,,67,0
16257,note_on,,10,0,1,,,,,,,,,,,,,,,3,,,64,0
16260,note_on,,3,0,1,,,,,,,,,,,,,,,3,,,71,127
16260,note_on,,0,0,1,,,,,,,,,,,,,,,3,,,65,127
16260,note_on,,0,0,1,,,,,,,,,,,,,,,3,,,62,127
16283,note_on,,23,0,1,,,,,,,,,,,,,,,3,,,62,0
16290,note_on,,7,0,1,,,,,,,,,,,,,,,3,,,64,127
16302,note_on,,12,0,1,,,,,,,,,,,,,,,3,,,64,0
16305,note_on,,3,0,1,,,,,,,,,,,,,,,3,,,65,127
16307,note_on,,2,0,1,,,,,,,,,,,,,,,3,,,71,0
16307,note_on,,0,0,1,,,,,,,,,,,,,,,3,,,65,0
16317,note_on,,10,0,1,,,,,,,,,,,,,,,3,,,65,0
16320,note_on,,3,0,1,,,,,,,,,,,,,,,3,,,72,127
16320,note_on,,0,0,1,,,,,,,,,,,,,,,3,,,67,127
16320,note_on,,0,0,1,,,,,,,,,,,,,,,3,,,64,127
16343,note_on,,23,0,1,,,,,,,,,,,,,,,3,,,64,0
16350,note_on,,7,0,1,,,,,,,,,,,,,,,3,,,65,127
16362,note_on,,12,0,1,,,,,,,,,,,,,,,3,,,65,0
16365,note_on,,3,0,1,,,,,,,,,,,,,,,3,,,67,127
16367,note_on,,0,0,1,,,,,,,,,,,,,,,3,,,67,0
16367,note_on,,2,0,1,,,,,,,,,,,,,,,3,,,72,0
16377,note_on,,10,0,1,,,,,,,,,,,,,,,3,,,67,0
16380,note_on,,3,0,1,,,,,,,,,,,,,,,3,,,74,127
16380,note_on,,0,0,1,,,,,,,,,,,,,,,3,,,71,127
16380,note_on,,0,0,1,,,,,,,,,,,,,,,3,,,65,127
16403,note_on,,23,0,1,,,,,,,,,,,,,,,3,,,65,0
16410,note_on,,7,0,1,,,,,,,,,,,,,,,3,,,67,127
16422,note_on,,12,0,1,,,,,,,,,,,,,,,3,,,67,0
16425,note_on,,3,0,1,,,,,,,,,,,,,,,3,,,69,127
16427,note_on,,2,0,1,,,,,,,,,,,,,,,3,,,74,0
16427,note_on,,0,0,1,,,,,,,,,,,,,,,3,,,71,0
16437,note_on,,10,0,1,,,,,,,,,,,,,,,3,,,69,0
16440,note_on,,3,0,1,,,,,,,,,,,,,,,3,,,76,127
16440,note_on,,0,0,1,,,,,,,,,,,,,,,3,,,67,127
16440,note_on,,0,0,1,,,,,,,,,,,,,,,3,,,48,127
16440,note_on,,0,0,1,,,,,,,,,,,,,,,3,,,72,127
16463,note_on,,23,0,1,,,,,,,,,,,,,,,3,,,76,0
16470,note_on,,7,0,1,,,,,,,,,,,,,,,3,,,79,127
16487,note_on,,0,0,1,,,,,,,,,,,,,,,3,,,67,0
16487,note_on,,17,0,1,,,,,,,,,,,,,,,3,,,72,0
16493,note_on,,6,0,1,,,,,,,,,,,,,,,3,,,79,0
16500,note_on,,7,0,1,,,,,,,,,,,,,,,3,,,84,127
16503,note_on,,3,0,1,,,,,,,,,,,,,,,3,,,48,0
16530,note_on,,27,0,1,,,,,,,,,,,,,,,3,,,76,127
16547,note_on,,17,0,1,,,,,,,,,,,,,,,3,,,84,0
16553,note_on,,6,0,1,,,,,,,,,,,,,,,3,,,76,0
16560,note_on,,7,0,1,,,,,,,,,,,,,,,3,,,77,127
16590,note_on,,30,0,1,,,,,,,,,,,,,,,3,,,81,127
16613,note_on,,23,0,1,,,,,,,,,,,,,,,3,,,81,0
16620,note_on,,0,0,1,,,,,,,,,,,,,,,3,,,65,127
16620,note_on,,7,0,1,,,,,,,,,,,,,,,3,,,86,127
16630,note_on,,10,0,1,,,,,,,,,,,,,,,3,,,77,0
16643,note_on,,13,0,1,,,,,,,,,,,,,,,3,,,86,0
16650,note_on,,7,0,1,,,,,,,,,,,,,,,3,,,81,127
16650,note_on,,0,0,1,,,,,,,,,,,,,,,3,,,74,127
16673,note_on,,23,0,1,,,,,,,,,,,,,,,3,,,81,0
16673,note_on,,0,0,1,,,,,,,,,,,,,,,3,,,74,0
16680,note_on,,0,0,1,,,,,,,,,,,,,,,3,,,83,127
16680,note_on,,7,0,1,,,,,,,,,,,,,,,3,,,79,127
16710,note_on,,30,0,1,,,,,,,,,,,,,,,3,,,74,127
16721,note_on,,11,0,1,,,,,,,,,,,,,,,3,,,65,0
16727,note_on,,6,0,1,,,,,,,,,,,,,,,3,,,79,0
16727,note_on,,0,0,1,,,,,,,,,,,,,,,3,,,83,0
16733,note_on,,6,0,1,,,,,,,,,,,,,,,3,,,74,0
16740,note_on,,7,0,1,,,,,,,,,,,,,,,3,,,79,127
16740,note_on,,0,0,1,,,,,,,,,,,,,,,3,,,84,127
16740,note_on,,0,0,1,,,,,,,,,,,,,,,3,,,76,127
16740,note_on,,0,0,1,,,,,,,,,,,,,,,3,,,64,127
16763,note_on,,23,0,1,,,,,,,,,,,,,,,3,,,76,0
16770,note_on,,7,0,1,,,,,,,,,,,,,,,3,,,72,127
16787,note_on,,17,0,1,,,,,,,,,,,,,,,3,,,79,0
16787,note_on,,0,0,1,,,,,,,,,,,,,,,3,,,84,0
16787,note_on,,0,0,1,,,,,,,,,,,,,,,3,,,64,0
16793,note_on,,6,0,1,,,,,,,,,,,,,,,3,,,72,0
16800,note_on,,7,0,1,,,,,,,,,,,,,,,3,,,77,127
16800,note_on,,0,0,1,,,,,,,,,,,,,,,3,,,74,127
16800,note_on,,0,0,1,,,,,,,,,,,,,,,3,,,62,127
16830,note_on,,30,0,1,,,,,,,,,,,,,,,3,,,81,127
16847,note_on,,0,0,1,,,,,,,,,,,,,,,3,,,62,0
16847,note_on,,17,0,1,,,,,,,,,,,,,,,3,,,74,0
16853,note_on,,6,0,1,,,,,,,,,,,,,,,3,,,81,0
16860,note_on,,0,0,1,,,,,,,,,,,,,,,3,,,74,127
16860,note_on,,7,0,1,,,,,,,,,,,,,,,3,,,83,127
16860,note_on,,0,0,1,,,,,,,,,,,,,,,3,,,67,127
16877,note_on,,17,0,1,,,,,,,,,,,,,,,3,,,77,0
16883,note_on,,6,0,1,,,,,,,,,,,,,,,3,,,83,0
16890,note_on,,7,0,1,,,,,,,,,,,,,,,3,,,77,127
16907,note_on,,17,0,1,,,,,,,,,,,,,,,3,,,74,0
16907,note_on,,0,0,1,,,,,,,,,,,,,,,3,,,67,0
16913,note_on,,6,0,1,,,,,,,,,,,,,,,3,,,77,0
16920,note_on,,0,0,1,,,,,,,,,,,,,,,3,,,48,127
16920,note_on,,0,0,1,,,,,,,,,,,,,,,3,,,60,127
16920,note_on,,0,0,1,,,,,,,,,,,,,,,3,,,76,127
16920,note_on,,7,0,1,,,,,,,,,,,,,,,3,,,79,127
16920,note_on,,0,0,1,,,,,,,,,,,,,,,3,,,84,127
16943,note_on,,23,0,1,,,,,,,,,,,,,,,3,,,60,0
16950,note_on,,7,0,1,,,,,,,,,,,,,,,3,,,67,127
16967,note_on,,17,0,1,,,,,,,,,,,,,,,3,,,79,0
16967,note_on,,0,0,1,,,,,,,,,,,,,,,3,,,84,0
16967,note_on,,0,0,1,,,,,,,,,,,,,,,3,,,76,0
16973,note_on,,6,0,1,,,,,,,,,,,,,,,3,,,67,0
16979,note_on,,6,0,1,,,,,,,,,,,,,,,3,,,48,0
16980,note_on,,1,0,1,,,,,,,,,,,,,,,3,,,72,127
17003,note_on,,23,0,1,,,,,,,,,,,,,,,3,,,72,0
17010,note_on,,7,0,1,,,,,,,,,,,,,,,3,,,77,127
17033,note_on,,23,0,1,,,,,,,,,,,,,,,3,,,77,0
17040,note_on,,7,0,1,,,,,,,,,,,,,,,3,,,76,127
17063,note_on,,23,0,1,,,,,,,,,,,,,,,3,,,76,0
17070,note_on,,7,0,1,,,,,,,,,,,,,,,3,,,79,127
17093,note_on,,23,0,1,,,,,,,,,,,,,,,3,,,79,0
17100,note_on,,7,0,1,,,,,,,,,,,,,,,3,,,72,127
17123,note_on,,23,0,1,,,,,,,,,,,,,,,3,,,72,0
17130,note_on,,7,0,1,,,,,,,,,,,,,,,3,,,76,127
17153,note_on,,23,0,1,,,,,,,,,,,,,,,3,,,76,0
17160,note_on,,7,0,1,,,,,,,,,,,,,,,3,,,71,127
17183,note_on,,23,0,1,,,,,,,,,,,,,,,3,,,71,0
17190,note_on,,7,0,1,,,,,,,,,,,,,,,3,,,74,127
17213,note_on,,23,0,1,,,,,,,,,,,,,,,3,,,74,0
17220,note_on,,7,0,1,,,,,,,,,,,,,,,3,,,67,127
17243,note_on,,23,0,1,,,,,,,,,,,,,,,3,,,67,0
17250,note_on,,7,0,1,,,,,,,,,,,,,,,3,,,65,127
17273,note_on,,23,0,1,,,,,,,,,,,,,,,3,,,65,0
17280,note_on,,0,0,1,,,,,,,,,,,,,,,3,,,67,127
17280,note_on,,7,0,1,,,,,,,,,,,,,,,3,,,72,127
17280,note_on,,0,0,1,,,,,,,,,,,,,,,3,,,64,127
17303,note_on,,23,0,1,,,,,,,,,,,,,,,3,,,64,0
17310,note_on,,7,0,1,,,,,,,,,,,,,,,3,,,67,127
17330,note_on,,20,0,1,,,,,,,,,,,,,,,3,,,67,0
17340,note_on,,10,0,1,,,,,,,,,,,,,,,3,,,60,127
17350,note_on,,10,0,1,,,,,,,,,,,,,,,3,,,72,0
17353,note_on,,3,0,1,,,,,,,,,,,,,,,3,,,67,0
17363,note_on,,10,0,1,,,,,,,,,,,,,,,3,,,60,0
17370,note_on,,0,0,1,,,,,,,,,,,,,,,3,,,64,127
17370,note_on,,7,0,1,,,,,,,,,,,,,,,3,,,72,127
17370,note_on,,0,0,1,,,,,,,,,,,,,,,3,,,67,127
17393,note_on,,23,0,1,,,,,,,,,,,,,,,3,,,72,0
17393,note_on,,0,0,1,,,,,,,,,,,,,,,3,,,67,0
17393,note_on,,0,0,1,,,,,,,,,,,,,,,3,,,64,0
17400,note_on,,7,0,1,,,,,,,,,,,,,,,3,,,74,127
17400,note_on,,0,0,1,,,,,,,,,,,,,,,3,,,59,127
17400,note_on,,0,0,1,,,,,,,,,,,,,,,3,,,67,127
17423,note_on,,23,0,1,,,,,,,,,,,,,,,3,,,59,0
17430,note_on,,7,0,1,,,,,,,,,,,,,,,3,,,62,127
17447,note_on,,17,0,1,,,,,,,,,,,,,,,3,,,74,0
17447,note_on,,0,0,1,,,,,,,,,,,,,,,3,,,67,0
17453,note_on,,6,0,1,,,,,,,,,,,,,,,3,,,62,0
17460,note_on,,7,0,1,,,,,,,,,,,,,,,3,,,55,127
17483,note_on,,23,0,1,,,,,,,,,,,,,,,3,,,55,0
17490,note_on,,7,0,1,,,,,,,,,,,,,,,3,,,53,127
17513,note_on,,23,0,1,,,,,,,,,,,,,,,3,,,53,0
17520,note_on,,0,0,1,,,,,,,,,,,,,,,3,,,52,127
17520,note_on,,7,0,1,,,,,,,,,,,,,,,3,,,76,127
17520,note_on,,0,0,1,,,,,,,,,,,,,,,3,,,67,127
17520,note_on,,0,0,1,,,,,,,,,,,,,,,3,,,60,127
17543,note_on,,23,0,1,,,,,,,,,,,,,,,3,,,52,0
17550,note_on,,7,0,1,,,,,,,,,,,,,,,3,,,55,127
17573,note_on,,23,0,1,,,,,,,,,,,,,,,3,,,55,0
17580,note_on,,7,0,1,,,,,,,,,,,,,,,3,,,48,127
17590,note_on,,0,0,1,,,,,,,,,,,,,,,3,,,67,0
17590,note_on,,0,0,1,,,,,,,,,,,,,,,3,,,60,0
17590,note_on,,10,0,1,,,,,,,,,,,,,,,3,,,76,0
17603,note_on,,13,0,1,,,,,,,,,,,,,,,3,,,48,0
17610,note_on,,7,0,1,,,,,,,,,,,,,,,3,,,74,127
17610,note_on,,0,0,1,,,,,,,,,,,,,,,3,,,67,127
17610,note_on,,0,0,1,,,,,,,,,,,,,,,3,,,59,127
17610,note_on,,0,0,1,,,,,,,,,,,,,,,3,,,52,127
17633,note_on,,0,0,1,,,,,,,,,,,,,,,3,,,52,0
17633,note_on,,0,0,1,,,,,,,,,,,,,,,3,,,67,0
17633,note_on,,0,0,1,,,,,,,,,,,,,,,3,,,59,0
17633,note_on,,23,0,1,,,,,,,,,,,,,,,3,,,74,0
17640,note_on,,0,0,1,,,,,,,,,,,,,,,3,,,45,127
17640,note_on,,0,0,1,,,,,,,,,,,,,,,3,,,67,127
17640,note_on,,0,0,1,,,,,,,,,,,,,,,3,,,57,127
17640,note_on,,7,0,1,,,,,,,,,,,,,,,3,,,72,127
17663,note_on,,23,0,1,,,,,,,,,,,,,,,3,,,67,0
17663,note_on,,0,0,1,,,,,,,,,,,,,,,3,,,45,0
17670,note_on,,0,0,1,,,,,,,,,,,,,,,3,,,50,127
17670,note_on,,7,0,1,,,,,,,,,,,,,,,3,,,66,127
17687,note_on,,17,0,1,,,,,,,,,,,,,,,3,,,72,0
17687,note_on,,0,0,1,,,,,,,,,,,,,,,3,,,57,0
17693,note_on,,6,0,1,,,,,,,,,,,,,,,3,,,66,0
17693,note_on,,0,0,1,,,,,,,,,,,,,,,3,,,50,0
17700,note_on,,7,0,1,,,,,,,,,,,,,,,3,,,71,127
17700,note_on,,0,0,1,,,,,,,,,,,,,,,3,,,59,127
17700,note_on,,0,0,1,,,,,,,,,,,,,,,3,,,43,127
17700,note_on,,0,0,1,,,,,,,,,,,,,,,3,,,67,127
17723,note_on,,23,0,1,,,,,,,,,,,,,,,3,,,59,0
17730,note_on,,7,0,1,,,,,,,,,,,,,,,3,,,60,127
17747,note_on,,17,0,1,,,,,,,,,,,,,,,3,,,71,0
17747,note_on,,0,0,1,,,,,,,,,,,,,,,3,,,43,0
17753,note_on,,6,0,1,,,,,,,,,,,,,,,3,,,60,0
17760,note_on,,7,0,1,,,,,,,,,,,,,,,3,,,69,127
17760,note_on,,0,0,1,,,,,,,,,,,,,,,3,,,62,127
17760,note_on,,0,0,1,,,,,,,,,,,,,,,3,,,50,127
17777,note_on,,17,0,1,,,,,,,,,,,,,,,3,,,67,0
17790,note_on,,13,0,1,,,,,,,,,,,,,,,3,,,64,127
17807,note_on,,17,0,1,,,,,,,,,,,,,,,3,,,50,0
17813,note_on,,6,0,1,,,,,,,,,,,,,,,3,,,64,0
17820,note_on,,7,0,1,,,,,,,,,,,,,,,3,,,66,127
17820,note_on,,0,0,1,,,,,,,,,,,,,,,3,,,38,127
17830,note_on,,10,0,1,,,,,,,,,,,,,,,3,,,62,0
17850,note_on,,20,0,1,,,,,,,,,,,,,,,3,,,60,127
17855,note_on,,5,0,1,,,,,,,,,,,,,,,3,,,69,0
17867,note_on,,0,0,1,,,,,,,,,,,,,,,3,,,38,0
17867,note_on,,12,0,1,,,,,,,,,,,,,,,3,,,66,0
17873,note_on,,6,0,1,,,,,,,,,,,,,,,3,,,60,0
17880,note_on,,7,0,1,,,,,,,,,,,,,,,3,,,67,127
17880,note_on,,0,0,1,,,,,,,,,,,,,,,3,,,62,127
17880,note_on,,0,0,1,,,,,,,,,,,,,,,3,,,59,127
17880,note_on,,0,0,1,,,,,,,,,,,,,,,3,,,43,127
17927,note_on,,47,0,1,,,,,,,,,,,,,,,3,,,62,0
17927,note_on,,0,0,1,,,,,,,,,,,,,,,3,,,43,0
17950,note_on,,23,0,1,,,,,,,,,,,,,,,3,,,67,0
17950,note_on,,0,0,1,,,,,,,,,,,,,,,3,,,59,0
17970,note_on,,20,0,1,,,,,,,,,,,,,,,3,,,62,127
17970,note_on,,0,0,1,,,,,,,,,,,,,,,3,,,59,127
17993,note_on,,0,0,1,,,,,,,,,,,,,,,3,,,59,0
17993,note_on,,23,0,1,,,,,,,,,,,,,,,3,,,62,0
18000,note_on,,7,0,1,,,,,,,,,,,,,,,3,,,64,127
18000,note_on,,0,0,1,,,,,,,,,,,,,,,3,,,60,127
18023,note_on,,23,0,1,,,,,,,,,,,,,,,3,,,64,0
18030,note_on,,7,0,1,,,,,,,,,,,,,,,3,,,66,127
18042,note_on,,12,0,1,,,,,,,,,,,,,,,3,,,66,0
18045,note_on,,3,0,1,,,,,,,,,,,,,,,3,,,67,127
18047,note_on,,2,0,1,,,,,,,,,,,,,,,3,,,60,0
18057,note_on,,10,0,1,,,,,,,,,,,,,,,3,,,67,0
18060,note_on,,3,0,1,,,,,,,,,,,,,,,3,,,66,127
18060,note_on,,0,0,1,,,,,,,,,,,,,,,3,,,57,127
18083,note_on,,23,0,1,,,,,,,,,,,,,,,3,,,66,0
18090,note_on,,7,0,1,,,,,,,,,,,,,,,3,,,67,127
18102,note_on,,12,0,1,,,,,,,,,,,,,,,3,,,67,0
18105,note_on,,3,0,1,,,,,,,,,,,,,,,3,,,69,127
18107,note_on,,2,0,1,,,,,,,,,,,,,,,3,,,57,0
18117,note_on,,10,0,1,,,,,,,,,,,,,,,3,,,69,0
18120,note_on,,3,0,1,,,,,,,,,,,,,,,3,,,67,127
18120,note_on,,0,0,1,,,,,,,,,,,,,,,3,,,59,127
18143,note_on,,23,0,1,,,,,,,,,,,,,,,3,,,67,0
18150,note_on,,7,0,1,,,,,,,,,,,,,,,3,,,69,127
18162,note_on,,12,0,1,,,,,,,,,,,,,,,3,,,69,0
18165,note_on,,3,0,1,,,,,,,,,,,,,,,3,,,71,127
18167,note_on,,2,0,1,,,,,,,,,,,,,,,3,,,59,0
18177,note_on,,10,0,1,,,,,,,,,,,,,,,3,,,71,0
18180,note_on,,3,0,1,,,,,,,,,,,,,,,3,,,69,127
18180,note_on,,0,0,1,,,,,,,,,,,,,,,3,,,54,127
18203,note_on,,23,0,1,,,,,,,,,,,,,,,3,,,69,0
18210,note_on,,7,0,1,,,,,,,,,,,,,,,3,,,71,127
18222,note_on,,12,0,1,,,,,,,,,,,,,,,3,,,71,0
18225,note_on,,3,0,1,,,,,,,,,,,,,,,3,,,72,127
18227,note_on,,2,0,1,,,,,,,,,,,,,,,3,,,54,0
18237,note_on,,10,0,1,,,,,,,,,,,,,,,3,,,72,0
18240,note_on,,3,0,1,,,,,,,,,,,,,,,3,,,71,127
18240,note_on,,0,0,1,,,,,,,,,,,,,,,3,,,55,127
18263,note_on,,23,0,1,,,,,,,,,,,,,,,3,,,71,0
18270,note_on,,7,0,1,,,,,,,,,,,,,,,3,,,72,127
18282,note_on,,12,0,1,,,,,,,,,,,,,,,3,,,72,0
18285,note_on,,3,0,1,,,,,,,,,,,,,,,3,,,74,127
18287,note_on,,2,0,1,,,,,,,,,,,,,,,3,,,55,0
18297,note_on,,10,0,1,,,,,,,,,,,,,,,3,,,74,0
18300,note_on,,3,0,1,,,,,,,,,,,,,,,3,,,72,127
18300,note_on,,0,0,1,,,,,,,,,,,,,,,3,,,57,127
18323,note_on,,23,0,1,,,,,,,,,,,,,,,3,,,72,0
18330,note_on,,7,0,1,,,,,,,,,,,,,,,3,,,74,127
18342,note_on,,12,0,1,,,,,,,,,,,,,,,3,,,74,0
18345,note_on,,3,0,1,,,,,,,,,,,,,,,3,,,76,127
18347,note_on,,2,0,1,,,,,,,,,,,,,,,3,,,57,0
18357,note_on,,10,0,1,,,,,,,,,,,,,,,3,,,76,0
18360,note_on,,3,0,1,,,,,,,,,,,,,,,3,,,74,127
18360,note_on,,0,0,1,,,,,,,,,,,,,,,3,,,59,127
18360,note_on,,0,0,1,,,,,,,,,,,,,,,3,,,43,127
18390,note_on,,30,0,1,,,,,,,,,,,,,,,3,,,62,127
18407,note_on,,17,0,1,,,,,,,,,,,,,,,3,,,74,0
18413,note_on,,6,0,1,,,,,,,,,,,,,,,3,,,62,0
18419,note_on,,6,0,1,,,,,,,,,,,,,,,3,,,43,0
18420,note_on,,1,0,1,,,,,,,,,,,,,,,3,,,67,127
18430,note_on,,10,0,1,,,,,,,,,,,,,,,3,,,59,0
18450,note_on,,20,0,1,,,,,,,,,,,,,,,3,,,47,127
18467,note_on,,17,0,1,,,,,,,,,,,,,,,3,,,67,0
18473,note_on,,6,0,1,,,,,,,,,,,,,,,3,,,47,0
18480,note_on,,7,0,1,,,,,,,,,,,,,,,3,,,48,127
18510,note_on,,30,0,1,,,,,,,,,,,,,,,3,,,64,127
18533,note_on,,23,0,1,,,,,,,,,,,,,,,3,,,64,0
18540,note_on,,0,0,1,,,,,,,,,,,,,,,3,,,69,127
18540,note_on,,7,0,1,,,,,,,,,,,,,,,3,,,72,127
18550,note_on,,10,0,1,,,,,,,,,,,,,,,3,,,48,0
18563,note_on,,13,0,1,,,,,,,,,,,,,,,3,,,69,0
18570,note_on,,7,0,1,,,,,,,,,,,,,,,3,,,64,127
18570,note_on,,0,0,1,,,,,,,,,,,,,,,3,,,45,127
18593,note_on,,23,0,1,,,,,,,,,,,,,,,3,,,64,0
18593,note_on,,0,0,1,,,,,,,,,,,,,,,3,,,45,0
18600,note_on,,7,0,1,,,,,,,,,,,,,,,3,,,66,127
18600,note_on,,0,0,1,,,,,,,,,,,,,,,3,,,50,127
18630,note_on,,30,0,1,,,,,,,,,,,,,,,3,,,57,127
18641,note_on,,11,0,1,,,,,,,,,,,,,,,3,,,72,0
18647,note_on,,6,0,1,,,,,,,,,,,,,,,3,,,66,0
18647,note_on,,0,0,1,,,,,,,,,,,,,,,3,,,50,0
18653,note_on,,6,0,1,,,,,,,,,,,,,,,3,,,57,0
18660,note_on,,0,0,1,,,,,,,,,,,,,,,3,,,59,127
18660,note_on,,0,0,1,,,,,,,,,,,,,,,3,,,67,127
18660,note_on,,7,0,1,,,,,,,,,,,,,,,3,,,71,127
18683,note_on,,23,0,1,,,,,,,,,,,,,,,3,,,59,0
18690,note_on,,7,0,1,,,,,,,,,,,,,,,3,,,55,127
18707,note_on,,17,0,1,,,,,,,,,,,,,,,3,,,71,0
18713,note_on,,6,0,1,,,,,,,,,,,,,,,3,,,55,0
18720,note_on,,7,0,1,,,,,,,,,,,,,,,3,,,69,127
18720,note_on,,0,0,1,,,,,,,,,,,,,,,3,,,62,127
18737,note_on,,17,0,1,,,,,,,,,,,,,,,3,,,67,0
18750,note_on,,13,0,1,,,,,,,,,,,,,,,3,,,64,127
18773,note_on,,23,0,1,,,,,,,,,,,,,,,3,,,64,0
18780,note_on,,0,0,1,,,,,,,,,,,,,,,3,,,50,127
18780,note_on,,7,0,1,,,,,,,,,,,,,,,3,,,66,127
18790,note_on,,10,0,1,,,,,,,,,,,,,,,3,,,62,0
18810,note_on,,20,0,1,,,,,,,,,,,,,,,3,,,60,127
18815,note_on,,5,0,1,,,,,,,,,,,,,,,3,,,69,0
18827,note_on,,12,0,1,,,,,,,,,,,,,,,3,,,66,0
18827,note_on,,0,0,1,,,,,,,,,,,,,,,3,,,50,0
18833,note_on,,6,0,1,,,,,,,,,,,,,,,3,,,60,0
18840,note_on,,7,0,1,,,,,,,,,,,,,,,3,,,67,127
18840,note_on,,0,0,1,,,,,,,,,,,,,,,3,,,62,127
18840,note_on,,0,0,1,,,,,,,,,,,,,,,3,,,59,127
18840,note_on,,0,0,1,,,,,,,,,,,,,,,3,,,55,127
18840,note_on,,0,0,1,,,,,,,,,,,,,,,3,,,43,127
18863,note_on,,23,0,1,,,,,,,,,,,,,,,3,,,55,0
18870,note_on,,7,0,1,,,,,,,,,,,,,,,3,,,50,127
18887,note_on,,17,0,1,,,,,,,,,,,,,,,3,,,67,0
18887,note_on,,0,0,1,,,,,,,,,,,,,,,3,,,59,0
18887,note_on,,0,0,1,,,,,,,,,,,,,,,3,,,62,0
18893,note_on,,6,0,1,,,,,,,,,,,,,,,3,,,50,0
18899,note_on,,6,0,1,,,,,,,,,,,,,,,3,,,43,0
18900,note_on,,1,0,1,,,,,,,,,,,,,,,3,,,43,127
18923,note_on,,23,0,1,,,,,,,,,,,,,,,3,,,43,0
18930,note_on,,7,0,1,,,,,,,,,,,,,,,3,,,71,127
18930,note_on,,0,0,1,,,,,,,,,,,,,,,3,,,66,127
18930,note_on,,0,0,1,,,,,,,,,,,,,,,3,,,50,127
18953,note_on,,0,0,1,,,,,,,,,,,,,,,3,,,66,0
18953,note_on,,0,0,1,,,,,,,,,,,,,,,3,,,50,0
18953,note_on,,23,0,1,,,,,,,,,,,,,,,3,,,71,0
18960,note_on,,7,0,1,,,,,,,,,,,,,,,3,,,72,127
18960,note_on,,0,0,1,,,,,,,,,,,,,,,3,,,67,127
18960,note_on,,0,0,1,,,,,,,,,,,,,,,3,,,52,127
18983,note_on,,23,0,1,,,,,,,,,,,,,,,3,,,52,0
18990,note_on,,7,0,1,,,,,,,,,,,,,,,3,,,54,127
19002,note_on,,12,0,1,,,,,,,,,,,,,,,3,,,54,0
19005,note_on,,3,0,1,,,,,,,,,,,,,,,3,,,55,127
19007,note_on,,0,0,1,,,,,,,,,,,,,,,3,,,67,0
19007,note_on,,2,0,1,,,,,,,,,,,,,,,3,,,72,0
19017,note_on,,10,0,1,,,,,,,,,,,,,,,3,,,55,0
19020,note_on,,0,0,1,,,,,,,,,,,,,,,3,,,62,127
19020,note_on,,3,0,1,,,,,,,,,,,,,,,3,,,69,127
19020,note_on,,0,0,1,,,,,,,,,,,,,,,3,,,54,127
19043,note_on,,23,0,1,,,,,,,,,,,,,,,3,,,54,0
19050,note_on,,7,0,1,,,,,,,,,,,,,,,3,,,55,127
19062,note_on,,12,0,1,,,,,,,,,,,,,,,3,,,55,0
19065,note_on,,3,0,1,,,,,,,,,,,,,,,3,,,57,127
19067,note_on,,2,0,1,,,,,,,,,,,,,,,3,,,69,0
19067,note_on,,0,0,1,,,,,,,,,,,,,,,3,,,62,0
19077,note_on,,10,0,1,,,,,,,,,,,,,,,3,,,57,0
19080,note_on,,3,0,1,,,,,,,,,,,,,,,3,,,71,127
19080,note_on,,0,0,1,,,,,,,,,,,,,,,3,,,62,127
19080,note_on,,0,0,1,,,,,,,,,,,,,,,3,,,55,127
19103,note_on,,23,0,1,,,,,,,,,,,,,,,3,,,55,0
19110,note_on,,7,0,1,,,,,,,,,,,,,,,3,,,57,127
19122,note_on,,12,0,1,,,,,,,,,,,,,,,3,,,57,0
19125,note_on,,3,0,1,,,,,,,,,,,,,,,3,,,59,127
19127,note_on,,0,0,1,,,,,,,,,,,,,,,3,,,62,0
19127,note_on,,2,0,1,,,,,,,,,,,,,,,3,,,71,0
19137,note_on,,10,0,1,,,,,,,,,,,,,,,3,,,59,0
19140,note_on,,0,0,1,,,,,,,,,,,,,,,3,,,57,127
19140,note_on,,3,0,1,,,,,,,,,,,,,,,3,,,66,127
19140,note_on,,0,0,1,,,,,,,,,,,,,,,3,,,60,127
19163,note_on,,23,0,1,,,,,,,,,,,,,,,3,,,57,0
19170,note_on,,7,0,1,,,,,,,,,,,,,,,3,,,59,127
19182,note_on,,12,0,1,,,,,,,,,,,,,,,3,,,59,0
19185,note_on,,3,0,1,,,,,,,,,,,,,,,3,,,60,127
19187,note_on,,0,0,1,,,,,,,,,,,,,,,3,,,60,0
19187,note_on,,2,0,1,,,,,,,,,,,,,,,3,,,66,0
19197,note_on,,10,0,1,,,,,,,,,,,,,,,3,,,60,0
19200,note_on,,3,0,1,,,,,,,,,,,,,,,3,,,67,127
19200,note_on,,0,0,1,,,,,,,,,,,,,,,3,,,62,127
19200,note_on,,0,0,1,,,,,,,,,,,,,,,3,,,59,127
19223,note_on,,23,0,1,,,,,,,,,,,,,,,3,,,59,0
19230,note_on,,7,0,1,,,,,,,,,,,,,,,3,,,60,127
19242,note_on,,12,0,1,,,,,,,,,,,,,,,3,,,60,0
19245,note_on,,3,0,1,,,,,,,,,,,,,,,3,,,62,127
19247,note_on,,2,0,1,,,,,,,,,,,,,,,3,,,67,0
19247,note_on,,0,0,1,,,,,,,,,,,,,,,3,,,62,0
19257,note_on,,10,0,1,,,,,,,,,,,,,,,3,,,62,0
19260,note_on,,3,0,1,,,,,,,,,,,,,,,3,,,69,127
19260,note_on,,0,0,1,,,,,,,,,,,,,,,3,,,66,127
19260,note_on,,0,0,1,,,,,,,,,,,,,,,3,,,60,127
19283,note_on,,23,0,1,,,,,,,,,,,,,,,3,,,60,0
19290,note_on,,7,0,1,,,,,,,,,,,,,,,3,,,62,127
19302,note_on,,12,0,1,,,,,,,,,,,,,,,3,,,62,0
19305,note_on,,3,0,1,,,,,,,,,,,,,,,3,,,64,127
19307,note_on,,2,0,1,,,,,,,,,,,,,,,3,,,69,0
19307,note_on,,0,0,1,,,,,,,,,,,,,,,3,,,66,0
19317,note_on,,10,0,1,,,,,,,,,,,,,,,3,,,64,0
19320,note_on,,3,0,1,,,,,,,,,,,,,,,3,,,71,127
19320,note_on,,0,0,1,,,,,,,,,,,,,,,3,,,67,127
19320,note_on,,0,0,1,,,,,,,,,,,,,,,3,,,62,127
19320,note_on,,0,0,1,,,,,,,,,,,,,,,3,,,43,127
19343,note_on,,23,0,1,,,,,,,,,,,,,,,3,,,71,0
19350,note_on,,7,0,1,,,,,,,,,,,,,,,3,,,74,127
19367,note_on,,17,0,1,,,,,,,,,,,,,,,3,,,67,0
19367,note_on,,0,0,1,,,,,,,,,,,,,,,3,,,62,0
19373,note_on,,6,0,1,,,,,,,,,,,,,,,3,,,74,0
19380,note_on,,7,0,1,,,,,,,,,,,,,,,3,,,79,127
19383,note_on,,3,0,1,,,,,,,,,,,,,,,3,,,43,0
19410,note_on,,27,0,1,,,,,,,,,,,,,,,3,,,71,127
19427,note_on,,17,0,1,,,,,,,,,,,,,,,3,,,79,0
19433,note_on,,6,0,1,,,,,,,,,,,,,,,3,,,71,0
19440,note_on,,7,0,1,,,,,,,,,,,,,,,3,,,72,127
19470,note_on,,30,0,1,,,,,,,,,,,,,,,3,,,76,127
19493,note_on,,23,0,1,,,,,,,,,,,,,,,3,,,76,0
19500,note_on,,7,0,1,,,,,,,,,,,,,,,3,,,81,127
19500,note_on,,0,0,1,,,,,,,,,,,,,,,3,,,60,127
19510,note_on,,10,0,1,,,,,,,,,,,,,,,3,,,72,0
19523,note_on,,13,0,1,,,,,,,,,,,,,,,3,,,81,0
19530,note_on,,7,0,1,,,,,,,,,,,,,,,3,,,76,127
19530,note_on,,0,0,1,,,,,,,,,,,,,,,3,,,69,127
19547,note_on,,17,0,1,,,,,,,,,,,,,,,3,,,60,0
19553,note_on,,6,0,1,,,,,,,,,,,,,,,3,,,76,0
19553,note_on,,0,0,1,,,,,,,,,,,,,,,3,,,69,0
19560,note_on,,7,0,1,,,,,,,,,,,,,,,3,,,74,127
19560,note_on,,0,0,1,,,,,,,,,,,,,,,3,,,78,127
19560,note_on,,0,0,1,,,,,,,,,,,,,,,3,,,60,127
19590,note_on,,30,0,1,,,,,,,,,,,,,,,3,,,69,127
19607,note_on,,17,0,1,,,,,,,,,,,,,,,3,,,74,0
19607,note_on,,0,0,1,,,,,,,,,,,,,,,3,,,78,0
19607,note_on,,0,0,1,,,,,,,,,,,,,,,3,,,60,0
19613,note_on,,6,0,1,,,,,,,,,,,,,,,3,,,69,0
19620,note_on,,7,0,1,,,,,,,,,,,,,,,3,,,74,127
19620,note_on,,0,0,1,,,,,,,,,,,,,,,3,,,71,127
19620,note_on,,0,0,1,,,,,,,,,,,,,,,3,,,59,127
19620,note_on,,0,0,1,,,,,,,,,,,,,,,3,,,79,127
19643,note_on,,23,0,1,,,,,,,,,,,,,,,3,,,71,0
19650,note_on,,7,0,1,,,,,,,,,,,,,,,3,,,67,127
19667,note_on,,17,0,1,,,,,,,,,,,,,,,3,,,74,0
19667,note_on,,0,0,1,,,,,,,,,,,,,,,3,,,79,0
19667,note_on,,0,0,1,,,,,,,,,,,,,,,3,,,59,0
19673,note_on,,6,0,1,,,,,,,,,,,,,,,3,,,67,0
19680,note_on,,0,0,1,,,,,,,,,,,,,,,3,,,72,127
19680,note_on,,0,0,1,,,,,,,,,,,,,,,3,,,57,127
19680,note_on,,7,0,1,,,,,,,,,,,,,,,3,,,69,127
19710,note_on,,30,0,1,,,,,,,,,,,,,,,3,,,76,127
19727,note_on,,17,0,1,,,,,,,,,,,,,,,3,,,69,0
19727,note_on,,0,0,1,,,,,,,,,,,,,,,3,,,57,0
19733,note_on,,6,0,1,,,,,,,,,,,,,,,3,,,76,0
19740,note_on,,0,0,1,,,,,,,,,,,,,,,3,,,62,127
19740,note_on,,7,0,1,,,,,,,,,,,,,,,3,,,78,127
19740,note_on,,0,0,1,,,,,,,,,,,,,,,3,,,69,127
19757,note_on,,17,0,1,,,,,,,,,,,,,,,3,,,72,0
19770,note_on,,13,0,1,,,,,,,,,,,,,,,3,,,72,127
19787,note_on,,17,0,1,,,,,,,,,,,,,,,3,,,62,0
19790,note_on,,3,0,1,,,,,,,,,,,,,,,3,,,78,0
19790,note_on,,0,0,1,,,,,,,,,,,,,,,3,,,69,0
19793,note_on,,3,0,1,,,,,,,,,,,,,,,3,,,72,0
19800,note_on,,7,0,1,,,,,,,,,,,,,,,3,,,74,127
19800,note_on,,0,0,1,,,,,,,,,,,,,,,3,,,79,127
19800,note_on,,0,0,1,,,,,,,,,,,,,,,3,,,71,127
19800,note_on,,0,0,1,,,,,,,,,,,,,,,3,,,55,127
19800,note_on,,0,0,1,,,,,,,,,,,,,,,3,,,43,127
19823,note_on,,23,0,1,,,,,,,,,,,,,,,3,,,55,0
19830,note_on,,7,0,1,,,,,,,,,,,,,,,3,,,62,127
19847,note_on,,17,0,1,,,,,,,,,,,,,,,3,,,74,0
19847,note_on,,0,0,1,,,,,,,,,,,,,,,3,,,79,0
19847,note_on,,0,0,1,,,,,,,,,,,,,,,3,,,71,0
19853,note_on,,6,0,1,,,,,,,,,,,,,,,3,,,62,0
19860,note_on,,7,0,1,,,,,,,,,,,,,,,3,,,67,127
19868,note_on,,8,0,1,,,,,,,,,,,,,,,3,,,43,0
19883,note_on,,15,0,1,,,,,,,,,,,,,,,3,,,67,0
19890,note_on,,7,0,1,,,,,,,,,,,,,,,3,,,72,127
19913,note_on,,23,0,1,,,,,,,,,,,,,,,3,,,72,0
19920,note_on,,7,0,1,,,,,,,,,,,,,,,3,,,71,127
19943,note_on,,23,0,1,,,,,,,,,,,,,,,3,,,71,0
19950,note_on,,7,0,1,,,,,,,,,,,,,,,3,,,74,127
19973,note_on,,23,0,1,,,,,,,,,,,,,,,3,,,74,0
19980,note_on,,7,0,1,,,,,,,,,,,,,,,3,,,67,127
20003,note_on,,23,0,1,,,,,,,,,,,,,,,3,,,67,0
20010,note_on,,7,0,1,,,,,,,,,,,,,,,3,,,71,127
20033,note_on,,23,0,1,,,,,,,,,,,,,,,3,,,71,0
20040,note_on,,7,0,1,,,,,,,,,,,,,,,3,,,66,127
20063,note_on,,23,0,1,,,,,,,,,,,,,,,3,,,66,0
20070,note_on,,7,0,1,,,,,,,,,,,,,,,3,,,69,127
20093,note_on,,23,0,1,,,,,,,,,,,,,,,3,,,69,0
20100,note_on,,7,0,1,,,,,,,,,,,,,,,3,,,62,127
20123,note_on,,23,0,1,,,,,,,,,,,,,,,3,,,62,0
20130,note_on,,7,0,1,,,,,,,,,,,,,,,3,,,60,127
20153,note_on,,23,0,1,,,,,,,,,,,,,,,3,,,60,0
20160,note_on,,7,0,1,,,,,,,,,,,,,,,3,,,67,127
20160,note_on,,0,0,1,,,,,,,,,,,,,,,3,,,62,127
20160,note_on,,0,0,1,,,,,,,,,,,,,,,3,,,59,127
20183,note_on,,23,0,1,,,,,,,,,,,,,,,3,,,59,0
20190,note_on,,7,0,1,,,,,,,,,,,,,,,3,,,62,127
20210,note_on,,20,0,1,,,,,,,,,,,,,,,3,,,62,0
20220,note_on,,10,0,1,,,,,,,,,,,,,,,3,,,55,127
20230,note_on,,10,0,1,,,,,,,,,,,,,,,3,,,67,0
20233,note_on,,3,0,1,,,,,,,,,,,,,,,3,,,62,0
20243,note_on,,10,0,1,,,,,,,,,,,,,,,3,,,55,0
20250,note_on,,7,0,1,,,,,,,,,,,,,,,3,,,67,127
20250,note_on,,0,0,1,,,,,,,,,,,,,,,3,,,62,127
20250,note_on,,0,0,1,,,,,,,,,,,,,,,3,,,59,127
20273,note_on,,0,0,1,,,,,,,,,,,,,,,3,,,62,0
20273,note_on,,0,0,1,,,,,,,,,,,,,,,3,,,59,0
20273,note_on,,23,0,1,,,,,,,,,,,,,,,3,,,67,0
20280,note_on,,7,0,1,,,,,,,,,,,,,,,3,,,69,127
20280,note_on,,0,0,1,,,,,,,,,,,,,,,3,,,62,127
20280,note_on,,0,0,1,,,,,,,,,,,,,,,3,,,54,127
20303,note_on,,23,0,1,,,,,,,,,,,,,,,3,,,54,0
20310,note_on,,7,0,1,,,,,,,,,,,,,,,3,,,57,127
20327,note_on,,17,0,1,,,,,,,,,,,,,,,3,,,69,0
20327,note_on,,0,0,1,,,,,,,,,,,,,,,3,,,62,0
20333,note_on,,6,0,1,,,,,,,,,,,,,,,3,,,57,0
20340,note_on,,7,0,1,,,,,,,,,,,,,,,3,,,50,127
20363,note_on,,23,0,1,,,,,,,,,,,,,,,3,,,50,0
20370,note_on,,7,0,1,,,,,,,,,,,,,,,3,,,60,127
20393,note_on,,23,0,1,,,,,,,,,,,,,,,3,,,60,0
20400,note_on,,7,0,1,,,,,,,,,,,,,,,3,,,71,127
20400,note_on,,0,0,1,,,,,,,,,,,,,,,3,,,62,127
20400,note_on,,0,0,1,,,,,,,,,,,,,,,3,,,55,127
20400,note_on,,0,0,1,,,,,,,,,,,,,,,3,,,59,127
20423,note_on,,23,0,1,,,,,,,,,,,,,,,3,,,59,0
20430,note_on,,7,0,1,,,,,,,,,,,,,,,3,,,62,127
20450,note_on,,20,0,1,,,,,,,,,,,,,,,3,,,62,0
20460,note_on,,10,0,1,,,,,,,,,,,,,,,3,,,55,127
20470,note_on,,0,0,1,,,,,,,,,,,,,,,3,,,55,0
20470,note_on,,10,0,1,,,,,,,,,,,,,,,3,,,71,0
20473,note_on,,3,0,1,,,,,,,,,,,,,,,3,,,62,0
20483,note_on,,10,0,1,,,,,,,,,,,,,,,3,,,55,0
20490,note_on,,7,0,1,,,,,,,,,,,,,,,3,,,71,127
20490,note_on,,0,0,1,,,,,,,,,,,,,,,3,,,62,127
20490,note_on,,0,0,1,,,,,,,,,,,,,,,3,,,55,127
20490,note_on,,0,0,1,,,,,,,,,,,,,,,3,,,59,127
20513,note_on,,23,0,1,,,,,,,,,,,,,,,3,,,71,0
20513,note_on,,0,0,1,,,,,,,,,,,,,,,3,,,62,0
20513,note_on,,0,0,1,,,,,,,,,,,,,,,3,,,55,0
20513,note_on,,0,0,1,,,,,,,,,,,,,,,3,,,59,0
20520,note_on,,7,0,1,,,,,,,,,,,,,,,3,,,72,127
20520,note_on,,0,0,1,,,,,,,,,,,,,,,3,,,64,127
20520,note_on,,0,0,1,,,,,,,,,,,,,,,3,,,55,127
20520,note_on,,0,0,1,,,,,,,,,,,,,,,3,,,52,127
20567,note_on,,47,0,1,,,,,,,,,,,,,,,3,,,72,0
20567,note_on,,0,0,1,,,,,,,,,,,,,,,3,,,64,0
20567,note_on,,0,0,1,,,,,,,,,,,,,,,3,,,55,0
20567,note_on,,0,0,1,,,,,,,,,,,,,,,3,,,52,0
20580,note_on,,13,0,1,,,,,,,,,,,,,,,3,,,74,127
20580,note_on,,0,0,1,,,,,,,,,,,,,,,3,,,64,127
20580,note_on,,0,0,1,,,,,,,,,,,,,,,3,,,55,127
20580,note_on,,0,0,1,,,,,,,,,,,,,,,3,,,48,127
20603,note_on,,23,0,1,,,,,,,,,,,,,,,3,,,74,0
20610,note_on,,7,0,1,,,,,,,,,,,,,,,3,,,76,127
20627,note_on,,0,0,1,,,,,,,,,,,,,,,3,,,55,0
20627,note_on,,0,0,1,,,,,,,,,,,,,,,3,,,48,0
20627,note_on,,17,0,1,,,,,,,,,,,,,,,3,,,64,0
20633,note_on,,6,0,1,,,,,,,,,,,,,,,3,,,76,0
20640,note_on,,7,0,1,,,,,,,,,,,,,,,3,,,71,127
20640,note_on,,0,0,1,,,,,,,,,,,,,,,3,,,62,127
20640,note_on,,0,0,1,,,,,,,,,,,,,,,3,,,55,127
20640,note_on,,0,0,1,,,,,,,,,,,,,,,3,,,50,127
20687,note_on,,0,0,1,,,,,,,,,,,,,,,3,,,50,0
20687,note_on,,47,0,1,,,,,,,,,,,,,,,3,,,71,0
20687,note_on,,0,0,1,,,,,,,,,,,,,,,3,,,62,0
20687,note_on,,0,0,1,,,,,,,,,,,,,,,3,,,55,0
20700,note_on,,0,0,1,,,,,,,,,,,,,,,3,,,38,127
20700,note_on,,0,0,1,,,,,,,,,,,,,,,3,,,60,127
20700,note_on,,0,0,1,,,,,,,,,,,,,,,3,,,54,127
20700,note_on,,13,0,1,,,,,,,,,,,,,,,3,,,69,127
20723,note_on,,23,0,1,,,,,,,,,,,,,,,3,,,69,0
20730,note_on,,7,0,1,,,,,,,,,,,,,,,3,,,67,127
20747,note_on,,17,0,1,,,,,,,,,,,,,,,3,,,60,0
20747,note_on,,0,0,1,,,,,,,,,,,,,,,3,,,54,0
20747,note_on,,0,0,1,,,,,,,,,,,,,,,3,,,38,0
20753,note_on,,6,0,1,,,,,,,,,,,,,,,3,,,67,0
20760,note_on,,0,0,1,,,,,,,,,,,,,,,3,,,55,127
20760,note_on,,7,0,1,,,,,,,,,,,,,,,3,,,67,127
20760,note_on,,0,0,1,,,,,,,,,,,,,,,3,,,59,127
20760,note_on,,0,0,1,,,,,,,,,,,,,,,3,,,43,127
20807,note_on,,0,0,1,,,,,,,,,,,,,,,3,,,43,0
20807,note_on,,0,0,1,,,,,,,,,,,,,,,3,,,55,0
20807,note_on,,0,0,1,,,,,,,,,,,,,,,3,,,59,0
20807,note_on,,47,0,1,,,,,,,,,,,,,,,3,,,67,0
20850,note_on,,43,0,1,,,,,,,,,,,,,,,3,,,72,127
20873,note_on,,23,0,1,,,,,,,,,,,,,,,3,,,72,0
20880,note_on,,7,0,1,,,,,,,,,,,,,,,3,,,71,127
20903,note_on,,23,0,1,,,,,,,,,,,,,,,3,,,71,0
20910,note_on,,7,0,1,,,,,,,,,,,,,,,3,,,74,127
20933,note_on,,23,0,1,,,,,,,,,,,,,,,3,,,74,0
20940,note_on,,7,0,1,,,,,,,,,,,,,,,3,,,67,127
20963,note_on,,23,0,1,,,,,,,,,,,,,,,3,,,67,0
20970,note_on,,7,0,1,,,,,,,,,,,,,,,3,,,71,127
20993,note_on,,23,0,1,,,,,,,,,,,,,,,3,,,71,0
21000,note_on,,7,0,1,,,,,,,,,,,,,,,3,,,66,127
21023,note_on,,23,0,1,,,,,,,,,,,,,,,3,,,66,0
21030,note_on,,7,0,1,,,,,,,,,,,,,,,3,,,69,127
21053,note_on,,23,0,1,,,,,,,,,,,,,,,3,,,69,0
21060,note_on,,7,0,1,,,,,,,,,,,,,,,3,,,62,127
21083,note_on,,23,0,1,,,,,,,,,,,,,,,3,,,62,0
21090,note_on,,7,0,1,,,,,,,,,,,,,,,3,,,60,127
21113,note_on,,23,0,1,,,,,,,,,,,,,,,3,,,60,0
21120,note_on,,0,0,1,,,,,,,,,,,,,,,3,,,59,127
21120,note_on,,7,0,1,,,,,,,,,,,,,,,3,,,67,127
21120,note_on,,0,0,1,,,,,,,,,,,,,,,3,,,62,127
21143,note_on,,23,0,1,,,,,,,,,,,,,,,3,,,59,0
21150,note_on,,7,0,1,,,,,,,,,,,,,,,3,,,62,127
21170,note_on,,20,0,1,,,,,,,,,,,,,,,3,,,62,0
21180,note_on,,10,0,1,,,,,,,,,,,,,,,3,,,55,127
21190,note_on,,10,0,1,,,,,,,,,,,,,,,3,,,67,0
21193,note_on,,3,0,1,,,,,,,,,,,,,,,3,,,62,0
21203,note_on,,10,0,1,,,,,,,,,,,,,,,3,,,55,0
21210,note_on,,0,0,1,,,,,,,,,,,,,,,3,,,62,127
21210,note_on,,0,0,1,,,,,,,,,,,,,,,3,,,59,127
21210,note_on,,7,0,1,,,,,,,,,,,,,,,3,,,67,127
21233,note_on,,0,0,1,,,,,,,,,,,,,,,3,,,62,0
21233,note_on,,23,0,1,,,,,,,,,,,,,,,3,,,67,0
21233,note_on,,0,0,1,,,,,,,,,,,,,,,3,,,59,0
21240,note_on,,7,0,1,,,,,,,,,,,,,,,3,,,69,127
21240,note_on,,0,0,1,,,,,,,,,,,,,,,3,,,62,127
21240,note_on,,0,0,1,,,,,,,,,,,,,,,3,,,54,127
21263,note_on,,23,0,1,,,,,,,,,,,,,,,3,,,54,0
21270,note_on,,7,0,1,,,,,,,,,,,,,,,3,,,57,127
21287,note_on,,17,0,1,,,,,,,,,,,,,,,3,,,69,0
21287,note_on,,0,0,1,,,,,,,,,,,,,,,3,,,62,0
21293,note_on,,6,0,1,,,,,,,,,,,,,,,3,,,57,0
21300,note_on,,7,0,1,,,,,,,,,,,,,,,3,,,50,127
21323,note_on,,23,0,1,,,,,,,,,,,,,,,3,,,50,0
21330,note_on,,7,0,1,,,,,,,,,,,,,,,3,,,48,127
21353,note_on,,23,0,1,,,,,,,,,,,,,,,3,,,48,0
21360,note_on,,7,0,1,,,,,,,,,,,,,,,3,,,71,127
21360,note_on,,0,0,1,,,,,,,,,,,,,,,3,,,62,127
21360,note_on,,0,0,1,,,,,,,,,,,,,,,3,,,55,127
21360,note_on,,0,0,1,,,,,,,,,,,,,,,3,,,47,127
21383,note_on,,23,0,1,,,,,,,,,,,,,,,3,,,47,0
21390,note_on,,7,0,1,,,,,,,,,,,,,,,3,,,50,127
21407,note_on,,0,0,1,,,,,,,,,,,,,,,3,,,55,0
21407,note_on,,17,0,1,,,,,,,,,,,,,,,3,,,71,0
21407,note_on,,0,0,1,,,,,,,,,,,,,,,3,,,62,0
21413,note_on,,6,0,1,,,,,,,,,,,,,,,3,,,50,0
21420,note_on,,7,0,1,,,,,,,,,,,,,,,3,,,43,127
21443,note_on,,23,0,1,,,,,,,,,,,,,,,3,,,43,0
21450,note_on,,7,0,1,,,,,,,,,,,,,,,3,,,47,127
21473,note_on,,23,0,1,,,,,,,,,,,,,,,3,,,47,0
21480,note_on,,7,0,1,,,,,,,,,,,,,,,3,,,40,127
21527,note_on,,47,0,1,,,,,,,,,,,,,,,3,,,40,0
21540,note_on,,0,0,1,,,,,,,,,,,,,,,3,,,52,127
21540,note_on,,13,0,1,,,,,,,,,,,,,,,3,,,67,127
21540,note_on,,0,0,1,,,,,,,,,,,,,,,3,,,71,127
21540,note_on,,0,0,1,,,,,,,,,,,,,,,3,,,64,127
21540,note_on,,0,0,1,,,,,,,,,,,,,,,3,,,59,127
21587,note_on,,0,0,1,,,,,,,,,,,,,,,3,,,59,0
21587,note_on,,47,0,1,,,,,,,,,,,,,,,3,,,67,0
21587,note_on,,0,0,1,,,,,,,,,,,,,,,3,,,71,0
21587,note_on,,0,0,1,,,,,,,,,,,,,,,3,,,64,0
21587,note_on,,0,0,1,,,,,,,,,,,,,,,3,,,52,0
21600,note_on,,0,0,1,,,,,,,,,,,,,,,3,,,49,127
21600,note_on,,0,0,1,,,,,,,,,,,,,,,3,,,57,127
21600,note_on,,13,0,1,,,,,,,,,,,,,,,3,,,67,127
21600,note_on,,0,0,1,,,,,,,,,,,,,,,3,,,76,127
21600,note_on,,0,0,1,,,,,,,,,,,,,,,3,,,64,127
21614,note_on,,14,0,1,,,,,,,,,,,,,,,3,,,49,0
21615,note_on,,1,0,1,,,,,,,,,,,,,,,3,,,52,127
21629,note_on,,14,0,1,,,,,,,,,,,,,,,3,,,52,0
21630,note_on,,1,0,1,,,,,,,,,,,,,,,3,,,49,127
21644,note_on,,14,0,1,,,,,,,,,,,,,,,3,,,49,0
21645,note_on,,1,0,1,,,,,,,,,,,,,,,3,,,52,127
21659,note_on,,14,0,1,,,,,,,,,,,,,,,3,,,52,0
21660,note_on,,1,0,1,,,,,,,,,,,,,,,3,,,49,127
21670,note_on,,10,0,1,,,,,,,,,,,,,,,3,,,67,0
21670,note_on,,0,0,1,,,,,,,,,,,,,,,3,,,76,0
21670,note_on,,0,0,1,,,,,,,,,,,,,,,3,,,64,0
21670,note_on,,0,0,1,,,,,,,,,,,,,,,3,,,57,0
21674,note_on,,4,0,1,,,,,,,,,,,,,,,3,,,49,0
21675,note_on,,1,0,1,,,,,,,,,,,,,,,3,,,52,127
21689,note_on,,14,0,1,,,,,,,,,,,,,,,3,,,52,0
21690,note_on,,0,0,1,,,,,,,,,,,,,,,3,,,76,127
21690,note_on,,0,0,1,,,,,,,,,,,,,,,3,,,49,127
21690,note_on,,1,0,1,,,,,,,,,,,,,,,3,,,67,127
21690,note_on,,0,0,1,,,,,,,,,,,,,,,3,,,64,127
21690,note_on,,0,0,1,,,,,,,,,,,,,,,3,,,57,127
21713,note_on,,23,0,1,,,,,,,,,,,,,,,3,,,67,0
21713,note_on,,0,0,1,,,,,,,,,,,,,,,3,,,76,0
21713,note_on,,0,0,1,,,,,,,,,,,,,,,3,,,64,0
21713,note_on,,0,0,1,,,,,,,,,,,,,,,3,,,57,0
21713,note_on,,0,0,1,,,,,,,,,,,,,,,3,,,49,0
21720,note_on,,0,0,1,,,,,,,,,,,,,,,3,,,50,127
21720,note_on,,0,0,1,,,,,,,,,,,,,,,3,,,57,127
21720,note_on,,0,0,1,,,,,,,,,,,,,,,3,,,62,127
21720,note_on,,7,0,1,,,,,,,,,,,,,,,3,,,65,127
21720,note_on,,0,0,1,,,,,,,,,,,,,,,3,,,69,127
21767,note_on,,47,0,1,,,,,,,,,,,,,,,3,,,65,0
21767,note_on,,0,0,1,,,,,,,,,,,,,,,3,,,69,0
21767,note_on,,0,0,1,,,,,,,,,,,,,,,3,,,62,0
21767,note_on,,0,0,1,,,,,,,,,,,,,,,3,,,57,0
21767,note_on,,0,0,1,,,,,,,,,,,,,,,3,,,50,0
21780,note_on,,13,0,1,,,,,,,,,,,,,,,3,,,38,127
21810,note_on,,30,0,1,,,,,,,,,,,,,,,3,,,79,127
21833,note_on,,23,0,1,,,,,,,,,,,,,,,3,,,79,0
21839,note_on,,6,0,1,,,,,,,,,,,,,,,3,,,38,0
21840,note_on,,1,0,1,,,,,,,,,,,,,,,3,,,77,127
21863,note_on,,23,0,1,,,,,,,,,,,,,,,3,,,77,0
21870,note_on,,7,0,1,,,,,,,,,,,,,,,3,,,81,127
21893,note_on,,23,0,1,,,,,,,,,,,,,,,3,,,81,0
21900,note_on,,7,0,1,,,,,,,,,,,,,,,3,,,74,127
21923,note_on,,23,0,1,,,,,,,,,,,,,,,3,,,74,0
21930,note_on,,7,0,1,,,,,,,,,,,,,,,3,,,77,127
21953,note_on,,23,0,1,,,,,,,,,,,,,,,3,,,77,0
21960,note_on,,7,0,1,,,,,,,,,,,,,,,3,,,73,127
21983,note_on,,23,0,1,,,,,,,,,,,,,,,3,,,73,0
21990,note_on,,7,0,1,,,,,,,,,,,,,,,3,,,76,127
22013,note_on,,23,0,1,,,,,,,,,,,,,,,3,,,76,0
22020,note_on,,7,0,1,,,,,,,,,,,,,,,3,,,69,127
22043,note_on,,23,0,1,,,,,,,,,,,,,,,3,,,69,0
22050,note_on,,7,0,1,,,,,,,,,,,,,,,3,,,67,127
22073,note_on,,23,0,1,,,,,,,,,,,,,,,3,,,67,0
22080,note_on,,7,0,1,,,,,,,,,,,,,,,3,,,74,127
22080,note_on,,0,0,1,,,,,,,,,,,,,,,3,,,69,127
22080,note_on,,0,0,1,,,,,,,,,,,,,,,3,,,65,127
22103,note_on,,23,0,1,,,,,,,,,,,,,,,3,,,65,0
22110,note_on,,7,0,1,,,,,,,,,,,,,,,3,,,69,127
22130,note_on,,20,0,1,,,,,,,,,,,,,,,3,,,69,0
22140,note_on,,10,0,1,,,,,,,,,,,,,,,3,,,62,127
22150,note_on,,10,0,1,,,,,,,,,,,,,,,3,,,74,0
22153,note_on,,3,0,1,,,,,,,,,,,,,,,3,,,69,0
22163,note_on,,10,0,1,,,,,,,,,,,,,,,3,,,62,0
22170,note_on,,7,0,1,,,,,,,,,,,,,,,3,,,74,127
22170,note_on,,0,0,1,,,,,,,,,,,,,,,3,,,69,127
22170,note_on,,0,0,1,,,,,,,,,,,,,,,3,,,65,127
22193,note_on,,23,0,1,,,,,,,,,,,,,,,3,,,74,0
22193,note_on,,0,0,1,,,,,,,,,,,,,,,3,,,69,0
22193,note_on,,0,0,1,,,,,,,,,,,,,,,3,,,65,0
22200,note_on,,0,0,1,,,,,,,,,,,,,,,3,,,61,127
22200,note_on,,7,0,1,,,,,,,,,,,,,,,3,,,76,127
22200,note_on,,0,0,1,,,,,,,,,,,,,,,3,,,69,127
22223,note_on,,23,0,1,,,,,,,,,,,,,,,3,,,61,0
22230,note_on,,7,0,1,,,,,,,,,,,,,,,3,,,64,127
22247,note_on,,17,0,1,,,,,,,,,,,,,,,3,,,76,0
22247,note_on,,0,0,1,,,,,,,,,,,,,,,3,,,69,0
22253,note_on,,6,0,1,,,,,,,,,,,,,,,3,,,64,0
22260,note_on,,7,0,1,,,,,,,,,,,,,,,3,,,57,127
22283,note_on,,23,0,1,,,,,,,,,,,,,,,3,,,57,0
22290,note_on,,7,0,1,,,,,,,,,,,,,,,3,,,55,127
22313,note_on,,23,0,1,,,,,,,,,,,,,,,3,,,55,0
22320,note_on,,7,0,1,,,,,,,,,,,,,,,3,,,77,127
22320,note_on,,0,0,1,,,,,,,,,,,,,,,3,,,69,127
22320,note_on,,0,0,1,,,,,,,,,,,,,,,3,,,62,127
22320,note_on,,0,0,1,,,,,,,,,,,,,,,3,,,53,127
22343,note_on,,23,0,1,,,,,,,,,,,,,,,3,,,53,0
22350,note_on,,7,0,1,,,,,,,,,,,,,,,3,,,57,127
22367,note_on,,0,0,1,,,,,,,,,,,,,,,3,,,69,0
22367,note_on,,0,0,1,,,,,,,,,,,,,,,3,,,62,0
22367,note_on,,17,0,1,,,,,,,,,,,,,,,3,,,77,0
22373,note_on,,6,0,1,,,,,,,,,,,,,,,3,,,57,0
22380,note_on,,7,0,1,,,,,,,,,,,,,,,3,,,50,127
22403,note_on,,23,0,1,,,,,,,,,,,,,,,3,,,50,0
22410,note_on,,7,0,1,,,,,,,,,,,,,,,3,,,53,127
22433,note_on,,23,0,1,,,,,,,,,,,,,,,3,,,53,0
22440,note_on,,7,0,1,,,,,,,,,,,,,,,3,,,46,127
22487,note_on,,47,0,1,,,,,,,,,,,,,,,3,,,46,0
22500,note_on,,0,0,1,,,,,,,,,,,,,,,3,,,62,127
22500,note_on,,0,0,1,,,,,,,,,,,,,,,3,,,74,127
22500,note_on,,0,0,1,,,,,,,,,,,,,,,3,,,58,127
22500,note_on,,13,0,1,,,,,,,,,,,,,,,3,,,77,127
22500,note_on,,0,0,1,,,,,,,,,,,,,,,3,,,70,127
22547,note_on,,47,0,1,,,,,,,,,,,,,,,3,,,77,0
22547,note_on,,0,0,1,,,,,,,,,,,,,,,3,,,70,0
22547,note_on,,0,0,1,,,,,,,,,,,,,,,3,,,74,0
22547,note_on,,0,0,1,,,,,,,,,,,,,,,3,,,62,0
22547,note_on,,0,0,1,,,,,,,,,,,,,,,3,,,58,0
22560,note_on,,0,0,1,,,,,,,,,,,,,,,3,,,64,127
22560,note_on,,0,0,1,,,,,,,,,,,,,,,3,,,74,127
22560,note_on,,0,0,1,,,,,,,,,,,,,,,3,,,56,127
22560,note_on,,13,0,1,,,,,,,,,,,,,,,3,,,76,127
22560,note_on,,0,0,1,,,,,,,,,,,,,,,3,,,71,127
22574,note_on,,14,0,1,,,,,,,,,,,,,,,3,,,56,0
22575,note_on,,1,0,1,,,,,,,,,,,,,,,3,,,59,127
22589,note_on,,14,0,1,,,,,,,,,,,,,,,3,,,59,0
22590,note_on,,1,0,1,,,,,,,,,,,,,,,3,,,56,127
22604,note_on,,14,0,1,,,,,,,,,,,,,,,3,,,56,0
22605,note_on,,1,0,1,,,,,,,,,,,,,,,3,,,59,127
22607,note_on,,2,0,1,,,,,,,,,,,,,,,3,,,76,0
22619,note_on,,12,0,1,,,,,,,,,,,,,,,3,,,59,0
22620,note_on,,0,0,1,,,,,,,,,,,,,,,3,,,56,127
22620,note_on,,1,0,1,,,,,,,,,,,,,,,3,,,83,127
22630,note_on,,0,0,1,,,,,,,,,,,,,,,3,,,64,0
22630,note_on,,0,0,1,,,,,,,,,,,,,,,3,,,74,0
22630,note_on,,10,0,1,,,,,,,,,,,,,,,3,,,71,0
22634,note_on,,4,0,1,,,,,,,,,,,,,,,3,,,56,0
22635,note_on,,1,0,1,,,,,,,,,,,,,,,3,,,59,127
22643,note_on,,8,0,1,,,,,,,,,,,,,,,3,,,83,0
22649,note_on,,6,0,1,,,,,,,,,,,,,,,3,,,59,0
22650,note_on,,1,0,1,,,,,,,,,,,,,,,3,,,76,127
22650,note_on,,0,0,1,,,,,,,,,,,,,,,3,,,71,127
22650,note_on,,0,0,1,,,,,,,,,,,,,,,3,,,74,127
22650,note_on,,0,0,1,,,,,,,,,,,,,,,3,,,64,127
22650,note_on,,0,0,1,,,,,,,,,,,,,,,3,,,56,127
22673,note_on,,0,0,1,,,,,,,,,,,,,,,3,,,56,0
22673,note_on,,0,0,1,,,,,,,,,,,,,,,3,,,64,0
22673,note_on,,23,0,1,,,,,,,,,,,,,,,3,,,76,0
22673,note_on,,0,0,1,,,,,,,,,,,,,,,3,,,71,0
22673,note_on,,0,0,1,,,,,,,,,,,,,,,3,,,74,0
22680,note_on,,7,0,1,,,,,,,,,,,,,,,3,,,72,127
22680,note_on,,0,0,1,,,,,,,,,,,,,,,3,,,76,127
22680,note_on,,0,0,1,,,,,,,,,,,,,,,3,,,69,127
22680,note_on,,0,0,1,,,,,,,,,,,,,,,3,,,64,127
22680,note_on,,0,0,1,,,,,,,,,,,,,,,3,,,57,127
22727,note_on,,0,0,1,,,,,,,,,,,,,,,3,,,57,0
22727,note_on,,0,0,1,,,,,,,,,,,,,,,3,,,64,0
22727,note_on,,0,0,1,,,,,,,,,,,,,,,3,,,76,0
22727,note_on,,47,0,1,,,,,,,,,,,,,,,3,,,72,0
22727,note_on,,0,0,1,,,,,,,,,,,,,,,3,,,69,0
22740,note_on,,13,0,1,,,,,,,,,,,,,,,3,,,45,127
22770,note_on,,30,0,1,,,,,,,,,,,,,,,3,,,74,127
22793,note_on,,23,0,1,,,,,,,,,,,,,,,3,,,74,0
22794,note_on,,1,0,1,,,,,,,,,,,,,,,3,,,45,0
22800,note_on,,6,0,1,,,,,,,,,,,,,,,3,,,72,127
22823,note_on,,23,0,1,,,,,,,,,,,,,,,3,,,72,0
22830,note_on,,7,0,1,,,,,,,,,,,,,,,3,,,76,127
22853,note_on,,23,0,1,,,,,,,,,,,,,,,3,,,76,0
22860,note_on,,7,0,1,,,,,,,,,,,,,,,3,,,69,127
22883,note_on,,23,0,1,,,,,,,,,,,,,,,3,,,69,0
22890,note_on,,7,0,1,,,,,,,,,,,,,,,3,,,72,127
22913,note_on,,23,0,1,,,,,,,,,,,,,,,3,,,72,0
22920,note_on,,7,0,1,,,,,,,,,,,,,,,3,,,68,127
22943,note_on,,23,0,1,,,,,,,,,,,,,,,3,,,68,0
22950,note_on,,7,0,1,,,,,,,,,,,,,,,3,,,71,127
22973,note_on,,23,0,1,,,,,,,,,,,,,,,3,,,71,0
22980,note_on,,7,0,1,,,,,,,,,,,,,,,3,,,64,127
23003,note_on,,23,0,1,,,,,,,,,,,,,,,3,,,64,0
23010,note_on,,7,0,1,,,,,,,,,,,,,,,3,,,62,127
23033,note_on,,23,0,1,,,,,,,,,,,,,,,3,,,62,0
23040,note_on,,0,0,1,,,,,,,,,,,,,,,3,,,64,127
23040,note_on,,0,0,1,,,,,,,,,,,,,,,3,,,60,127
23040,note_on,,7,0,1,,,,,,,,,,,,,,,3,,,69,127
23063,note_on,,23,0,1,,,,,,,,,,,,,,,3,,,60,0
23070,note_on,,7,0,1,,,,,,,,,,,,,,,3,,,64,127
23090,note_on,,20,0,1,,,,,,,,,,,,,,,3,,,64,0
23100,note_on,,10,0,1,,,,,,,,,,,,,,,3,,,57,127
23110,note_on,,10,0,1,,,,,,,,,,,,,,,3,,,69,0
23113,note_on,,3,0,1,,,,,,,,,,,,,,,3,,,64,0
23123,note_on,,10,0,1,,,,,,,,,,,,,,,3,,,57,0
23130,note_on,,0,0,1,,,,,,,,,,,,,,,3,,,64,127
23130,note_on,,0,0,1,,,,,,,,,,,,,,,3,,,60,127
23130,note_on,,7,0,1,,,,,,,,,,,,,,,3,,,69,127
23153,note_on,,23,0,1,,,,,,,,,,,,,,,3,,,69,0
23153,note_on,,0,0,1,,,,,,,,,,,,,,,3,,,64,0
23153,note_on,,0,0,1,,,,,,,,,,,,,,,3,,,60,0
23160,note_on,,0,0,1,,,,,,,,,,,,,,,3,,,56,127
23160,note_on,,7,0,1,,,,,,,,,,,,,,,3,,,71,127
23160,note_on,,0,0,1,,,,,,,,,,,,,,,3,,,64,127
23183,note_on,,23,0,1,,,,,,,,,,,,,,,3,,,56,0
23190,note_on,,7,0,1,,,,,,,,,,,,,,,3,,,59,127
23207,note_on,,17,0,1,,,,,,,,,,,,,,,3,,,71,0
23207,note_on,,0,0,1,,,,,,,,,,,,,,,3,,,64,0
23213,note_on,,6,0,1,,,,,,,,,,,,,,,3,,,59,0
23220,note_on,,7,0,1,,,,,,,,,,,,,,,3,,,52,127
23243,note_on,,23,0,1,,,,,,,,,,,,,,,3,,,52,0
23250,note_on,,7,0,1,,,,,,,,,,,,,,,3,,,50,127
23273,note_on,,23,0,1,,,,,,,,,,,,,,,3,,,50,0
23280,note_on,,0,0,1,,,,,,,,,,,,,,,3,,,48,127
23280,note_on,,7,0,1,,,,,,,,,,,,,,,3,,,72,127
23280,note_on,,0,0,1,,,,,,,,,,,,,,,3,,,64,127
23280,note_on,,0,0,1,,,,,,,,,,,,,,,3,,,57,127
23303,note_on,,23,0,1,,,,,,,,,,,,,,,3,,,48,0
23310,note_on,,7,0,1,,,,,,,,,,,,,,,3,,,52,127
23327,note_on,,17,0,1,,,,,,,,,,,,,,,3,,,72,0
23327,note_on,,0,0,1,,,,,,,,,,,,,,,3,,,64,0
23327,note_on,,0,0,1,,,,,,,,,,,,,,,3,,,57,0
23333,note_on,,6,0,1,,,,,,,,,,,,,,,3,,,52,0
23340,note_on,,7,0,1,,,,,,,,,,,,,,,3,,,45,127
23363,note_on,,23,0,1,,,,,,,,,,,,,,,3,,,45,0
23370,note_on,,7,0,1,,,,,,,,,,,,,,,3,,,48,127
23393,note_on,,23,0,1,,,,,,,,,,,,,,,3,,,48,0
23400,note_on,,7,0,1,,,,,,,,,,,,,,,3,,,41,127
23447,note_on,,47,0,1,,,,,,,,,,,,,,,3,,,41,0
23460,note_on,,0,0,1,,,,,,,,,,,,,,,3,,,53,127
23460,note_on,,0,0,1,,,,,,,,,,,,,,,3,,,57,127
23460,note_on,,0,0,1,,,,,,,,,,,,,,,3,,,65,127
23460,note_on,,13,0,1,,,,,,,,,,,,,,,3,,,69,127
23460,note_on,,0,0,1,,,,,,,,,,,,,,,3,,,72,127
23507,note_on,,47,0,1,,,,,,,,,,,,,,,3,,,69,0
23507,note_on,,0,0,1,,,,,,,,,,,,,,,3,,,72,0
23507,note_on,,0,0,1,,,,,,,,,,,,,,,3,,,65,0
23507,note_on,,0,0,1,,,,,,,,,,,,,,,3,,,57,0
23507,note_on,,0,0,1,,,,,,,,,,,,,,,3,,,53,0
23520,note_on,,0,0,1,,,,,,,,,,,,,,,3,,,66,127
23520,note_on,,13,0,1,,,,,,,,,,,,,,,3,,,71,127
23520,note_on,,0,0,1,,,,,,,,,,,,,,,3,,,69,127
23520,note_on,,0,0,1,,,,,,,,,,,,,,,3,,,59,127
23520,note_on,,0,0,1,,,,,,,,,,,,,,,3,,,51,127
23534,note_on,,14,0,1,,,,,,,,,,,,,,,3,,,51,0
23535,note_on,,1,0,1,,,,,,,,,,,,,,,3,,,54,127
23549,note_on,,14,0,1,,,,,,,,,,,,,,,3,,,54,0
23550,note_on,,1,0,1,,,,,,,,,,,,,,,3,,,51,127
23564,note_on,,14,0,1,,,,,,,,,,,,,,,3,,,51,0
23565,note_on,,1,0,1,,,,,,,,,,,,,,,3,,,54,127
23567,note_on,,2,0,1,,,,,,,,,,,,,,,3,,,71,0
23579,note_on,,12,0,1,,,,,,,,,,,,,,,3,,,54,0
23580,note_on,,1,0,1,,,,,,,,,,,,,,,3,,,78,127
23580,note_on,,0,0,1,,,,,,,,,,,,,,,3,,,51,127
23590,note_on,,10,0,1,,,,,,,,,,,,,,,3,,,66,0
23590,note_on,,0,0,1,,,,,,,,,,,,,,,3,,,69,0
23590,note_on,,0,0,1,,,,,,,,,,,,,,,3,,,59,0
23594,note_on,,4,0,1,,,,,,,,,,,,,,,3,,,51,0
23595,note_on,,1,0,1,,,,,,,,,,,,,,,3,,,54,127
23603,note_on,,8,0,1,,,,,,,,,,,,,,,3,,,78,0
23609,note_on,,6,0,1,,,,,,,,,,,,,,,3,,,54,0
23610,note_on,,1,0,1,,,,,,,,,,,,,,,3,,,71,127
23610,note_on,,0,0,1,,,,,,,,,,,,,,,3,,,66,127
23610,note_on,,0,0,1,,,,,,,,,,,,,,,3,,,69,127
23610,note_on,,0,0,1,,,,,,,,,,,,,,,3,,,59,127
23610,note_on,,0,0,1,,,,,,,,,,,,,,,3,,,51,127
23633,note_on,,0,0,1,,,,,,,,,,,,,,,3,,,66,0
23633,note_on,,0,0,1,,,,,,,,,,,,,,,3,,,51,0
23633,note_on,,0,0,1,,,,,,,,,,,,,,,3,,,69,0
23633,note_on,,23,0,1,,,,,,,,,,,,,,,3,,,71,0
23633,note_on,,0,0,1,,,,,,,,,,,,,,,3,,,59,0
23640,note_on,,7,0,1,,,,,,,,,,,,,,,3,,,68,127
23640,note_on,,0,0,1,,,,,,,,,,,,,,,3,,,71,127
23640,note_on,,0,0,1,,,,,,,,,,,,,,,3,,,64,127
23640,note_on,,0,0,1,,,,,,,,,,,,,,,3,,,59,127
23640,note_on,,0,0,1,,,,,,,,,,,,,,,3,,,52,127
23687,note_on,,47,0,1,,,,,,,,,,,,,,,3,,,68,0
23687,note_on,,0,0,1,,,,,,,,,,,,,,,3,,,71,0
23687,note_on,,0,0,1,,,,,,,,,,,,,,,3,,,64,0
23687,note_on,,0,0,1,,,,,,,,,,,,,,,3,,,59,0
23687,note_on,,0,0,1,,,,,,,,,,,,,,,3,,,52,0
23700,note_on,,13,0,1,,,,,,,,,,,,,,,3,,,40,127
23730,note_on,,0,0,1,,,,,,,,,,,,,,,3,,,60,127
23730,note_on,,30,0,1,,,,,,,,,,,,,,,3,,,64,127
23753,note_on,,23,0,1,,,,,,,,,,,,,,,3,,,64,0
23753,note_on,,0,0,1,,,,,,,,,,,,,,,3,,,60,0
23759,note_on,,6,0,1,,,,,,,,,,,,,,,3,,,40,0
23760,note_on,,0,0,1,,,,,,,,,,,,,,,3,,,62,127
23760,note_on,,1,0,1,,,,,,,,,,,,,,,3,,,66,127
23783,note_on,,23,0,1,,,,,,,,,,,,,,,3,,,66,0
23790,note_on,,7,0,1,,,,,,,,,,,,,,,3,,,68,127
23802,note_on,,12,0,1,,,,,,,,,,,,,,,3,,,68,0
23805,note_on,,3,0,1,,,,,,,,,,,,,,,3,,,69,127
23807,note_on,,2,0,1,,,,,,,,,,,,,,,3,,,62,0
23817,note_on,,10,0,1,,,,,,,,,,,,,,,3,,,69,0
23820,note_on,,3,0,1,,,,,,,,,,,,,,,3,,,68,127
23820,note_on,,0,0,1,,,,,,,,,,,,,,,3,,,59,127
23843,note_on,,23,0,1,,,,,,,,,,,,,,,3,,,68,0
23850,note_on,,7,0,1,,,,,,,,,,,,,,,3,,,69,127
23862,note_on,,12,0,1,,,,,,,,,,,,,,,3,,,69,0
23865,note_on,,3,0,1,,,,,,,,,,,,,,,3,,,71,127
23867,note_on,,2,0,1,,,,,,,,,,,,,,,3,,,59,0
23877,note_on,,10,0,1,,,,,,,,,,,,,,,3,,,71,0
23880,note_on,,3,0,1,,,,,,,,,,,,,,,3,,,69,127
23880,note_on,,0,0,1,,,,,,,,,,,,,,,3,,,60,127
23903,note_on,,23,0,1,,,,,,,,,,,,,,,3,,,69,0
23910,note_on,,7,0,1,,,,,,,,,,,,,,,3,,,71,127
23922,note_on,,12,0,1,,,,,,,,,,,,,,,3,,,71,0
23925,note_on,,3,0,1,,,,,,,,,,,,,,,3,,,72,127
23927,note_on,,2,0,1,,,,,,,,,,,,,,,3,,,60,0
23937,note_on,,10,0,1,,,,,,,,,,,,,,,3,,,72,0
23940,note_on,,0,0,1,,,,,,,,,,,,,,,3,,,56,127
23940,note_on,,3,0,1,,,,,,,,,,,,,,,3,,,71,127
23963,note_on,,23,0,1,,,,,,,,,,,,,,,3,,,71,0
23970,note_on,,7,0,1,,,,,,,,,,,,,,,3,,,72,127
23982,note_on,,12,0,1,,,,,,,,,,,,,,,3,,,72,0
23985,note_on,,3,0,1,,,,,,,,,,,,,,,3,,,74,127
23987,note_on,,2,0,1,,,,,,,,,,,,,,,3,,,56,0
23997,note_on,,10,0,1,,,,,,,,,,,,,,,3,,,74,0
24000,note_on,,3,0,1,,,,,,,,,,,,,,,3,,,72,127
24000,note_on,,0,0,1,,,,,,,,,,,,,,,3,,,57,127
24023,note_on,,23,0,1,,,,,,,,,,,,,,,3,,,72,0
24030,note_on,,7,0,1,,,,,,,,,,,,,,,3,,,74,127
24042,note_on,,12,0,1,,,,,,,,,,,,,,,3,,,74,0
24045,note_on,,3,0,1,,,,,,,,,,,,,,,3,,,76,127
24047,note_on,,2,0,1,,,,,,,,,,,,,,,3,,,57,0
24057,note_on,,10,0,1,,,,,,,,,,,,,,,3,,,76,0
24060,note_on,,3,0,1,,,,,,,,,,,,,,,3,,,74,127
24060,note_on,,0,0,1,,,,,,,,,,,,,,,3,,,59,127
24083,note_on,,23,0,1,,,,,,,,,,,,,,,3,,,74,0
24090,note_on,,7,0,1,,,,,,,,,,,,,,,3,,,76,127
24102,note_on,,12,0,1,,,,,,,,,,,,,,,3,,,76,0
24105,note_on,,3,0,1,,,,,,,,,,,,,,,3,,,77,127
24107,note_on,,2,0,1,,,,,,,,,,,,,,,3,,,59,0
24117,note_on,,10,0,1,,,,,,,,,,,,,,,3,,,77,0
24120,note_on,,0,0,1,,,,,,,,,,,,,,,3,,,45,127
24120,note_on,,0,0,1,,,,,,,,,,,,,,,3,,,60,127
24120,note_on,,3,0,1,,,,,,,,,,,,,,,3,,,76,127
24150,note_on,,30,0,1,,,,,,,,,,,,,,,3,,,64,127
24167,note_on,,17,0,1,,,,,,,,,,,,,,,3,,,76,0
24173,note_on,,6,0,1,,,,,,,,,,,,,,,3,,,64,0
24179,note_on,,6,0,1,,,,,,,,,,,,,,,3,,,45,0
24180,note_on,,1,0,1,,,,,,,,,,,,,,,3,,,69,127
24190,note_on,,10,0,1,,,,,,,,,,,,,,,3,,,60,0
24210,note_on,,20,0,1,,,,,,,,,,,,,,,3,,,48,127
24227,note_on,,17,0,1,,,,,,,,,,,,,,,3,,,69,0
24233,note_on,,6,0,1,,,,,,,,,,,,,,,3,,,48,0
24240,note_on,,7,0,1,,,,,,,,,,,,,,,3,,,50,127
24270,note_on,,30,0,1,,,,,,,,,,,,,,,3,,,66,127
24293,note_on,,23,0,1,,,,,,,,,,,,,,,3,,,66,0
24300,note_on,,0,0,1,,,,,,,,,,,,,,,3,,,71,127
24300,note_on,,7,0,1,,,,,,,,,,,,,,,3,,,74,127
24310,note_on,,10,0,1,,,,,,,,,,,,,,,3,,,50,0
24323,note_on,,13,0,1,,,,,,,,,,,,,,,3,,,71,0
24330,note_on,,0,0,1,,,,,,,,,,,,,,,3,,,47,127
24330,note_on,,7,0,1,,,,,,,,,,,,,,,3,,,66,127
24353,note_on,,23,0,1,,,,,,,,,,,,,,,3,,,66,0
24353,note_on,,0,0,1,,,,,,,,,,,,,,,3,,,47,0
24360,note_on,,0,0,1,,,,,,,,,,,,,,,3,,,52,127
24360,note_on,,7,0,1,,,,,,,,,,,,,,,3,,,68,127
24390,note_on,,30,0,1,,,,,,,,,,,,,,,3,,,59,127
24401,note_on,,11,0,1,,,,,,,,,,,,,,,3,,,74,0
24407,note_on,,6,0,1,,,,,,,,,,,,,,,3,,,68,0
24407,note_on,,0,0,1,,,,,,,,,,,,,,,3,,,52,0
24413,note_on,,6,0,1,,,,,,,,,,,,,,,3,,,59,0
24420,note_on,,0,0,1,,,,,,,,,,,,,,,3,,,69,127
24420,note_on,,7,0,1,,,,,,,,,,,,,,,3,,,72,127
24420,note_on,,0,0,1,,,,,,,,,,,,,,,3,,,60,127
24443,note_on,,23,0,1,,,,,,,,,,,,,,,3,,,60,0
24450,note_on,,7,0,1,,,,,,,,,,,,,,,3,,,57,127
24467,note_on,,17,0,1,,,,,,,,,,,,,,,3,,,72,0
24473,note_on,,6,0,1,,,,,,,,,,,,,,,3,,,57,0
24480,note_on,,7,0,1,,,,,,,,,,,,,,,3,,,71,127
24480,note_on,,0,0,1,,,,,,,,,,,,,,,3,,,64,127
24497,note_on,,17,0,1,,,,,,,,,,,,,,,3,,,69,0
24510,note_on,,13,0,1,,,,,,,,,,,,,,,3,,,66,127
24533,note_on,,23,0,1,,,,,,,,,,,,,,,3,,,66,0
24540,note_on,,0,0,1,,,,,,,,,,,,,,,3,,,52,127
24540,note_on,,7,0,1,,,,,,,,,,,,,,,3,,,68,127
24550,note_on,,10,0,1,,,,,,,,,,,,,,,3,,,64,0
24570,note_on,,20,0,1,,,,,,,,,,,,,,,3,,,62,127
24575,note_on,,5,0,1,,,,,,,,,,,,,,,3,,,71,0
24587,note_on,,12,0,1,,,,,,,,,,,,,,,3,,,68,0
24587,note_on,,0,0,1,,,,,,,,,,,,,,,3,,,52,0
24593,note_on,,6,0,1,,,,,,,,,,,,,,,3,,,62,0
24600,note_on,,0,0,1,,,,,,,,,,,,,,,3,,,45,127
24600,note_on,,0,0,1,,,,,,,,,,,,,,,3,,,57,127
24600,note_on,,0,0,1,,,,,,,,,,,,,,,3,,,64,127
24600,note_on,,0,0,1,,,,,,,,,,,,,,,3,,,60,127
24600,note_on,,7,0,1,,,,,,,,,,,,,,,3,,,69,127
24623,note_on,,23,0,1,,,,,,,,,,,,,,,3,,,57,0
24630,note_on,,7,0,1,,,,,,,,,,,,,,,3,,,52,127
24647,note_on,,17,0,1,,,,,,,,,,,,,,,3,,,69,0
24647,note_on,,0,0,1,,,,,,,,,,,,,,,3,,,64,0
24647,note_on,,0,0,1,,,,,,,,,,,,,,,3,,,60,0
24653,note_on,,6,0,1,,,,,,,,,,,,,,,3,,,52,0
24659,note_on,,6,0,1,,,,,,,,,,,,,,,3,,,45,0
24660,note_on,,1,0,1,,,,,,,,,,,,,,,3,,,45,127
24683,note_on,,23,0,1,,,,,,,,,,,,,,,3,,,45,0
24690,note_on,,0,0,1,,,,,,,,,,,,,,,3,,,68,127
24690,note_on,,0,0,1,,,,,,,,,,,,,,,3,,,52,127
24690,note_on,,7,0,1,,,,,,,,,,,,,,,3,,,72,127
24713,note_on,,23,0,1,,,,,,,,,,,,,,,3,,,72,0
24713,note_on,,0,0,1,,,,,,,,,,,,,,,3,,,68,0
24713,note_on,,0,0,1,,,,,,,,,,,,,,,3,,,52,0
24720,note_on,,7,0,1,,,,,,,,,,,,,,,3,,,74,127
24720,note_on,,0,0,1,,,,,,,,,,,,,,,3,,,69,127
24720,note_on,,0,0,1,,,,,,,,,,,,,,,3,,,54,127
24743,note_on,,23,0,1,,,,,,,,,,,,,,,3,,,54,0
24750,note_on,,7,0,1,,,,,,,,,,,,,,,3,,,56,127
24762,note_on,,12,0,1,,,,,,,,,,,,,,,3,,,56,0
24765,note_on,,3,0,1,,,,,,,,,,,,,,,3,,,57,127
24767,note_on,,2,0,1,,,,,,,,,,,,,,,3,,,74,0
24767,note_on,,0,0,1,,,,,,,,,,,,,,,3,,,69,0
24777,note_on,,10,0,1,,,,,,,,,,,,,,,3,,,57,0
24780,note_on,,3,0,1,,,,,,,,,,,,,,,3,,,71,127
24780,note_on,,0,0,1,,,,,,,,,,,,,,,3,,,64,127
24780,note_on,,0,0,1,,,,,,,,,,,,,,,3,,,56,127
24803,note_on,,23,0,1,,,,,,,,,,,,,,,3,,,56,0
24810,note_on,,7,0,1,,,,,,,,,,,,,,,3,,,57,127
24822,note_on,,12,0,1,,,,,,,,,,,,,,,3,,,57,0
24825,note_on,,3,0,1,,,,,,,,,,,,,,,3,,,59,127
24827,note_on,,0,0,1,,,,,,,,,,,,,,,3,,,64,0
24827,note_on,,2,0,1,,,,,,,,,,,,,,,3,,,71,0
24837,note_on,,10,0,1,,,,,,,,,,,,,,,3,,,59,0
24840,note_on,,3,0,1,,,,,,,,,,,,,,,3,,,72,127
24840,note_on,,0,0,1,,,,,,,,,,,,,,,3,,,64,127
24840,note_on,,0,0,1,,,,,,,,,,,,,,,3,,,57,127
24863,note_on,,23,0,1,,,,,,,,,,,,,,,3,,,57,0
24870,note_on,,7,0,1,,,,,,,,,,,,,,,3,,,59,127
24882,note_on,,12,0,1,,,,,,,,,,,,,,,3,,,59,0
24885,note_on,,3,0,1,,,,,,,,,,,,,,,3,,,60,127
24887,note_on,,0,0,1,,,,,,,,,,,,,,,3,,,64,0
24887,note_on,,2,0,1,,,,,,,,,,,,,,,3,,,72,0
24897,note_on,,10,0,1,,,,,,,,,,,,,,,3,,,60,0
24900,note_on,,3,0,1,,,,,,,,,,,,,,,3,,,68,127
24900,note_on,,0,0,1,,,,,,,,,,,,,,,3,,,62,127
24900,note_on,,0,0,1,,,,,,,,,,,,,,,3,,,59,127
24923,note_on,,23,0,1,,,,,,,,,,,,,,,3,,,59,0
24930,note_on,,7,0,1,,,,,,,,,,,,,,,3,,,60,127
24942,note_on,,12,0,1,,,,,,,,,,,,,,,3,,,60,0
24945,note_on,,3,0,1,,,,,,,,,,,,,,,3,,,62,127
24947,note_on,,0,0,1,,,,,,,,,,,,,,,3,,,62,0
24947,note_on,,2,0,1,,,,,,,,,,,,,,,3,,,68,0
24957,note_on,,10,0,1,,,,,,,,,,,,,,,3,,,62,0
24960,note_on,,3,0,1,,,,,,,,,,,,,,,3,,,69,127
24960,note_on,,0,0,1,,,,,,,,,,,,,,,3,,,64,127
24960,note_on,,0,0,1,,,,,,,,,,,,,,,3,,,60,127
24983,note_on,,23,0,1,,,,,,,,,,,,,,,3,,,60,0
24990,note_on,,7,0,1,,,,,,,,,,,,,,,3,,,62,127
25002,note_on,,12,0,1,,,,,,,,,,,,,,,3,,,62,0
25005,note_on,,3,0,1,,,,,,,,,,,,,,,3,,,64,127
25007,note_on,,2,0,1,,,,,,,,,,,,,,,3,,,69,0
25007,note_on,,0,0,1,,,,,,,,,,,,,,,3,,,64,0
25017,note_on,,10,0,1,,,,,,,,,,,,,,,3,,,64,0
25020,note_on,,0,0,1,,,,,,,,,,,,,,,3,,,68,127
25020,note_on,,0,0,1,,,,,,,,,,,,,,,3,,,62,127
25020,note_on,,3,0,1,,,,,,,,,,,,,,,3,,,71,127
25043,note_on,,23,0,1,,,,,,,,,,,,,,,3,,,62,0
25050,note_on,,7,0,1,,,,,,,,,,,,,,,3,,,64,127
25062,note_on,,12,0,1,,,,,,,,,,,,,,,3,,,64,0
25065,note_on,,3,0,1,,,,,,,,,,,,,,,3,,,65,127
25067,note_on,,2,0,1,,,,,,,,,,,,,,,3,,,71,0
25067,note_on,,0,0,1,,,,,,,,,,,,,,,3,,,68,0
25077,note_on,,10,0,1,,,,,,,,,,,,,,,3,,,65,0
25080,note_on,,0,0,1,,,,,,,,,,,,,,,3,,,45,127
25080,note_on,,0,0,1,,,,,,,,,,,,,,,3,,,69,127
25080,note_on,,0,0,1,,,,,,,,,,,,,,,3,,,64,127
25080,note_on,,3,0,1,,,,,,,,,,,,,,,3,,,72,127
25103,note_on,,23,0,1,,,,,,,,,,,,,,,3,,,72,0
25110,note_on,,7,0,1,,,,,,,,,,,,,,,3,,,76,127
25127,note_on,,17,0,1,,,,,,,,,,,,,,,3,,,69,0
25127,note_on,,0,0,1,,,,,,,,,,,,,,,3,,,64,0
25133,note_on,,6,0,1,,,,,,,,,,,,,,,3,,,76,0
25139,note_on,,6,0,1,,,,,,,,,,,,,,,3,,,45,0
25140,note_on,,1,0,1,,,,,,,,,,,,,,,3,,,81,127
25170,note_on,,30,0,1,,,,,,,,,,,,,,,3,,,72,127
25187,note_on,,17,0,1,,,,,,,,,,,,,,,3,,,81,0
25193,note_on,,6,0,1,,,,,,,,,,,,,,,3,,,72,0
25200,note_on,,7,0,1,,,,,,,,,,,,,,,3,,,74,127
25230,note_on,,30,0,1,,,,,,,,,,,,,,,3,,,78,127
25253,note_on,,23,0,1,,,,,,,,,,,,,,,3,,,78,0
25260,note_on,,7,0,1,,,,,,,,,,,,,,,3,,,83,127
25260,note_on,,0,0,1,,,,,,,,,,,,,,,3,,,62,127
25270,note_on,,10,0,1,,,,,,,,,,,,,,,3,,,74,0
25283,note_on,,13,0,1,,,,,,,,,,,,,,,3,,,83,0
25290,note_on,,7,0,1,,,,,,,,,,,,,,,3,,,78,127
25290,note_on,,0,0,1,,,,,,,,,,,,,,,3,,,71,127
25313,note_on,,23,0,1,,,,,,,,,,,,,,,3,,,78,0
25313,note_on,,0,0,1,,,,,,,,,,,,,,,3,,,71,0
25320,note_on,,7,0,1,,,,,,,,,,,,,,,3,,,76,127
25320,note_on,,0,0,1,,,,,,,,,,,,,,,3,,,80,127
25350,note_on,,30,0,1,,,,,,,,,,,,,,,3,,,71,127
25361,note_on,,11,0,1,,,,,,,,,,,,,,,3,,,62,0
25367,note_on,,6,0,1,,,,,,,,,,,,,,,3,,,76,0
25367,note_on,,0,0,1,,,,,,,,,,,,,,,3,,,80,0
25373,note_on,,6,0,1,,,,,,,,,,,,,,,3,,,71,0
25380,note_on,,0,0,1,,,,,,,,,,,,,,,3,,,60,127
25380,note_on,,7,0,1,,,,,,,,,,,,,,,3,,,76,127
25380,note_on,,0,0,1,,,,,,,,,,,,,,,3,,,81,127
25380,note_on,,0,0,1,,,,,,,,,,,,,,,3,,,72,127
25403,note_on,,23,0,1,,,,,,,,,,,,,,,3,,,72,0
25410,note_on,,7,0,1,,,,,,,,,,,,,,,3,,,69,127
25427,note_on,,17,0,1,,,,,,,,,,,,,,,3,,,76,0
25427,note_on,,0,0,1,,,,,,,,,,,,,,,3,,,81,0
25427,note_on,,0,0,1,,,,,,,,,,,,,,,3,,,60,0
25433,note_on,,6,0,1,,,,,,,,,,,,,,,3,,,69,0
25440,note_on,,7,0,1,,,,,,,,,,,,,,,3,,,71,127
25440,note_on,,0,0,1,,,,,,,,,,,,,,,3,,,74,127
25440,note_on,,0,0,1,,,,,,,,,,,,,,,3,,,59,127
25470,note_on,,30,0,1,,,,,,,,,,,,,,,3,,,78,127
25487,note_on,,0,0,1,,,,,,,,,,,,,,,3,,,59,0
25487,note_on,,17,0,1,,,,,,,,,,,,,,,3,,,71,0
25493,note_on,,6,0,1,,,,,,,,,,,,,,,3,,,78,0
25500,note_on,,7,0,1,,,,,,,,,,,,,,,3,,,80,127
25500,note_on,,0,0,1,,,,,,,,,,,,,,,3,,,71,127
25500,note_on,,0,0,1,,,,,,,,,,,,,,,3,,,64,127
25517,note_on,,17,0,1,,,,,,,,,,,,,,,3,,,74,0
25530,note_on,,13,0,1,,,,,,,,,,,,,,,3,,,74,127
25547,note_on,,17,0,1,,,,,,,,,,,,,,,3,,,64,0
25550,note_on,,3,0,1,,,,,,,,,,,,,,,3,,,80,0
25550,note_on,,0,0,1,,,,,,,,,,,,,,,3,,,71,0
25553,note_on,,3,0,1,,,,,,,,,,,,,,,3,,,74,0
25560,note_on,,7,0,1,,,,,,,,,,,,,,,3,,,76,127
25560,note_on,,0,0,1,,,,,,,,,,,,,,,3,,,81,127
25560,note_on,,0,0,1,,,,,,,,,,,,,,,3,,,72,127
25560,note_on,,0,0,1,,,,,,,,,,,,,,,3,,,57,127
25560,note_on,,0,0,1,,,,,,,,,,,,,,,3,,,45,127
25583,note_on,,23,0,1,,,,,,,,,,,,,,,3,,,57,0
25590,note_on,,7,0,1,,,,,,,,,,,,,,,3,,,64,127
25607,note_on,,0,0,1,,,,,,,,,,,,,,,3,,,72,0
25607,note_on,,0,0,1,,,,,,,,,,,,,,,3,,,81,0
25607,note_on,,17,0,1,,,,,,,,,,,,,,,3,,,76,0
25613,note_on,,6,0,1,,,,,,,,,,,,,,,3,,,64,0
25619,note_on,,6,0,1,,,,,,,,,,,,,,,3,,,45,0
25620,note_on,,1,0,1,,,,,,,,,,,,,,,3,,,69,127
25643,note_on,,23,0,1,,,,,,,,,,,,,,,3,,,69,0
25650,note_on,,7,0,1,,,,,,,,,,,,,,,3,,,74,127
25673,note_on,,23,0,1,,,,,,,,,,,,,,,3,,,74,0
25680,note_on,,7,0,1,,,,,,,,,,,,,,,3,,,72,127
25703,note_on,,23,0,1,,,,,,,,,,,,,,,3,,,72,0
25710,note_on,,7,0,1,,,,,,,,,,,,,,,3,,,76,127
25733,note_on,,23,0,1,,,,,,,,,,,,,,,3,,,76,0
25740,note_on,,7,0,1,,,,,,,,,,,,,,,3,,,69,127
25763,note_on,,23,0,1,,,,,,,,,,,,,,,3,,,69,0
25770,note_on,,7,0,1,,,,,,,,,,,,,,,3,,,72,127
25793,note_on,,23,0,1,,,,,,,,,,,,,,,3,,,72,0
25800,note_on,,7,0,1,,,,,,,,,,,,,,,3,,,68,127
25823,note_on,,23,0,1,,,,,,,,,,,,,,,3,,,68,0
25830,note_on,,7,0,1,,,,,,,,,,,,,,,3,,,71,127
25853,note_on,,23,0,1,,,,,,,,,,,,,,,3,,,71,0
25860,note_on,,7,0,1,,,,,,,,,,,,,,,3,,,64,127
25883,note_on,,23,0,1,,,,,,,,,,,,,,,3,,,64,0
25890,note_on,,7,0,1,,,,,,,,,,,,,,,3,,,62,127
25913,note_on,,23,0,1,,,,,,,,,,,,,,,3,,,62,0
25920,note_on,,7,0,1,,,,,,,,,,,,,,,3,,,69,127
25920,note_on,,0,0,1,,,,,,,,,,,,,,,3,,,64,127
25920,note_on,,0,0,1,,,,,,,,,,,,,,,3,,,60,127
25943,note_on,,23,0,1,,,,,,,,,,,,,,,3,,,60,0
25950,note_on,,7,0,1,,,,,,,,,,,,,,,3,,,64,127
25970,note_on,,20,0,1,,,,,,,,,,,,,,,3,,,64,0
25980,note_on,,10,0,1,,,,,,,,,,,,,,,3,,,57,127
25990,note_on,,10,0,1,,,,,,,,,,,,,,,3,,,69,0
25993,note_on,,3,0,1,,,,,,,,,,,,,,,3,,,64,0
26003,note_on,,10,0,1,,,,,,,,,,,,,,,3,,,57,0
26010,note_on,,7,0,1,,,,,,,,,,,,,,,3,,,69,127
26010,note_on,,0,0,1,,,,,,,,,,,,,,,3,,,64,127
26010,note_on,,0,0,1,,,,,,,,,,,,,,,3,,,60,127
26033,note_on,,23,0,1,,,,,,,,,,,,,,,3,,,69,0
26033,note_on,,0,0,1,,,,,,,,,,,,,,,3,,,64,0
26033,note_on,,0,0,1,,,,,,,,,,,,,,,3,,,60,0
26040,note_on,,7,0,1,,,,,,,,,,,,,,,3,,,71,127
26040,note_on,,0,0,1,,,,,,,,,,,,,,,3,,,64,127
26040,note_on,,0,0,1,,,,,,,,,,,,,,,3,,,56,127
26063,note_on,,23,0,1,,,,,,,,,,,,,,,3,,,56,0
26070,note_on,,7,0,1,,,,,,,,,,,,,,,3,,,59,127
26087,note_on,,17,0,1,,,,,,,,,,,,,,,3,,,71,0
26087,note_on,,0,0,1,,,,,,,,,,,,,,,3,,,64,0
26093,note_on,,6,0,1,,,,,,,,,,,,,,,3,,,59,0
26100,note_on,,7,0,1,,,,,,,,,,,,,,,3,,,52,127
26123,note_on,,23,0,1,,,,,,,,,,,,,,,3,,,52,0
26130,note_on,,7,0,1,,,,,,,,,,,,,,,3,,,50,127
26153,note_on,,23,0,1,,,,,,,,,,,,,,,3,,,50,0
26160,note_on,,0,0,1,,,,,,,,,,,,,,,3,,,48,127
26160,note_on,,0,0,1,,,,,,,,,,,,,,,3,,,57,127
26160,note_on,,7,0,1,,,,,,,,,,,,,,,3,,,72,127
26160,note_on,,0,0,1,,,,,,,,,,,,,,,3,,,64,127
26183,note_on,,23,0,1,,,,,,,,,,,,,,,3,,,48,0
26190,note_on,,7,0,1,,,,,,,,,,,,,,,3,,,52,127
26207,note_on,,17,0,1,,,,,,,,,,,,,,,3,,,72,0
26207,note_on,,0,0,1,,,,,,,,,,,,,,,3,,,64,0
26207,note_on,,0,0,1,,,,,,,,,,,,,,,3,,,57,0
26213,note_on,,6,0,1,,,,,,,,,,,,,,,3,,,52,0
26220,note_on,,7,0,1,,,,,,,,,,,,,,,3,,,45,127
26243,note_on,,23,0,1,,,,,,,,,,,,,,,3,,,45,0
26250,note_on,,7,0,1,,,,,,,,,,,,,,,3,,,48,127
26273,note_on,,23,0,1,,,,,,,,,,,,,,,3,,,48,0
26280,note_on,,7,0,1,,,,,,,,,,,,,,,3,,,38,127
26310,note_on,,30,0,1,,,,,,,,,,,,,,,3,,,72,127
26327,note_on,,17,0,1,,,,,,,,,,,,,,,3,,,38,0
26333,note_on,,6,0,1,,,,,,,,,,,,,,,3,,,72,0
26340,note_on,,7,0,1,,,,,,,,,,,,,,,3,,,74,127
26363,note_on,,23,0,1,,,,,,,,,,,,,,,3,,,74,0
26370,note_on,,7,0,1,,,,,,,,,,,,,,,3,,,76,127
26393,note_on,,23,0,1,,,,,,,,,,,,,,,3,,,76,0
26400,note_on,,7,0,1,,,,,,,,,,,,,,,3,,,77,127
26430,note_on,,30,0,1,,,,,,,,,,,,,,,3,,,72,127
26430,note_on,,0,0,1,,,,,,,,,,,,,,,3,,,64,127
26447,note_on,,17,0,1,,,,,,,,,,,,,,,3,,,77,0
26453,note_on,,6,0,1,,,,,,,,,,,,,,,3,,,72,0
26453,note_on,,0,0,1,,,,,,,,,,,,,,,3,,,64,0
26460,note_on,,7,0,1,,,,,,,,,,,,,,,3,,,71,127
26460,note_on,,0,0,1,,,,,,,,,,,,,,,3,,,62,127
26460,note_on,,0,0,1,,,,,,,,,,,,,,,3,,,50,127
26483,note_on,,23,0,1,,,,,,,,,,,,,,,3,,,71,0
26483,note_on,,0,0,1,,,,,,,,,,,,,,,3,,,62,0
26490,note_on,,7,0,1,,,,,,,,,,,,,,,3,,,69,127
26490,note_on,,0,0,1,,,,,,,,,,,,,,,3,,,60,127
26510,note_on,,20,0,1,,,,,,,,,,,,,,,3,,,50,0
26513,note_on,,3,0,1,,,,,,,,,,,,,,,3,,,69,0
26513,note_on,,0,0,1,,,,,,,,,,,,,,,3,,,60,0
26520,note_on,,0,0,1,,,,,,,,,,,,,,,3,,,59,127
26520,note_on,,0,0,1,,,,,,,,,,,,,,,3,,,52,127
26520,note_on,,7,0,1,,,,,,,,,,,,,,,3,,,68,127
26550,note_on,,30,0,1,,,,,,,,,,,,,,,3,,,71,127
26567,note_on,,0,0,1,,,,,,,,,,,,,,,3,,,52,0
26567,note_on,,17,0,1,,,,,,,,,,,,,,,3,,,68,0
26567,note_on,,0,0,1,,,,,,,,,,,,,,,3,,,59,0
26573,note_on,,6,0,1,,,,,,,,,,,,,,,3,,,71,0
26580,note_on,,7,0,1,,,,,,,,,,,,,,,3,,,72,127
26603,note_on,,23,0,1,,,,,,,,,,,,,,,3,,,72,0
26610,note_on,,7,0,1,,,,,,,,,,,,,,,3,,,74,127
26633,note_on,,23,0,1,,,,,,,,,,,,,,,3,,,74,0
26640,note_on,,7,0,1,,,,,,,,,,,,,,,3,,,76,127
26670,note_on,,0,0,1,,,,,,,,,,,,,,,3,,,62,127
26670,note_on,,30,0,1,,,,,,,,,,,,,,,3,,,68,127
26687,note_on,,17,0,1,,,,,,,,,,,,,,,3,,,76,0
26693,note_on,,6,0,1,,,,,,,,,,,,,,,3,,,68,0
26693,note_on,,0,0,1,,,,,,,,,,,,,,,3,,,62,0
26700,note_on,,7,0,1,,,,,,,,,,,,,,,3,,,69,127
26700,note_on,,0,0,1,,,,,,,,,,,,,,,3,,,60,127
26700,note_on,,0,0,1,,,,,,,,,,,,,,,3,,,52,127
26723,note_on,,23,0,1,,,,,,,,,,,,,,,3,,,69,0
26723,note_on,,0,0,1,,,,,,,,,,,,,,,3,,,60,0
26730,note_on,,7,0,1,,,,,,,,,,,,,,,3,,,71,127
26730,note_on,,0,0,1,,,,,,,,,,,,,,,3,,,59,127
26753,note_on,,23,0,1,,,,,,,,,,,,,,,3,,,71,0
26753,note_on,,0,0,1,,,,,,,,,,,,,,,3,,,59,0
26754,note_on,,1,0,1,,,,,,,,,,,,,,,3,,,52,0
26760,note_on,,0,0,1,,,,,,,,,,,,,,,3,,,57,127
26760,note_on,,6,0,1,,,,,,,,,,,,,,,3,,,72,127
26760,note_on,,0,0,1,,,,,,,,,,,,,,,3,,,57,127
26790,note_on,,30,0,1,,,,,,,,,,,,,,,3,,,76,127
26807,note_on,,17,0,1,,,,,,,,,,,,,,,3,,,72,0
26807,note_on,,0,0,1,,,,,,,,,,,,,,,3,,,57,0
26807,note_on,,0,0,1,,,,,,,,,,,,,,,3,,,57,0
26813,note_on,,6,0,1,,,,,,,,,,,,,,,3,,,76,0
26820,note_on,,7,0,1,,,,,,,,,,,,,,,3,,,78,127
26843,note_on,,23,0,1,,,,,,,,,,,,,,,3,,,78,0
26850,note_on,,7,0,1,,,,,,,,,,,,,,,3,,,80,127
26873,note_on,,23,0,1,,,,,,,,,,,,,,,3,,,80,0
26880,note_on,,7,0,1,,,,,,,,,,,,,,,3,,,81,127
26910,note_on,,0,0,1,,,,,,,,,,,,,,,3,,,67,127
26910,note_on,,30,0,1,,,,,,,,,,,,,,,3,,,73,127
26927,note_on,,17,0,1,,,,,,,,,,,,,,,3,,,81,0
26933,note_on,,6,0,1,,,,,,,,,,,,,,,3,,,73,0
26933,note_on,,0,0,1,,,,,,,,,,,,,,,3,,,67,0
26940,note_on,,7,0,1,,,,,,,,,,,,,,,3,,,74,127
26940,note_on,,0,0,1,,,,,,,,,,,,,,,3,,,65,127
26940,note_on,,0,0,1,,,,,,,,,,,,,,,3,,,57,127
26963,note_on,,23,0,1,,,,,,,,,,,,,,,3,,,74,0
26963,note_on,,0,0,1,,,,,,,,,,,,,,,3,,,65,0
26970,note_on,,7,0,1,,,,,,,,,,,,,,,3,,,76,127
26970,note_on,,0,0,1,,,,,,,,,,,,,,,3,,,64,127
26993,note_on,,23,0,1,,,,,,,,,,,,,,,3,,,76,0
26993,note_on,,0,0,1,,,,,,,,,,,,,,,3,,,64,0
26994,note_on,,1,0,1,,,,,,,,,,,,,,,3,,,57,0
27000,note_on,,6,0,1,,,,,,,,,,,,,,,3,,,77,127
27000,note_on,,0,0,1,,,,,,,,,,,,,,,3,,,62,127
27000,note_on,,0,0,1,,,,,,,,,,,,,,,3,,,62,127
27030,note_on,,30,0,1,,,,,,,,,,,,,,,3,,,83,127
27047,note_on,,0,0,1,,,,,,,,,,,,,,,3,,,62,0
27047,note_on,,17,0,1,,,,,,,,,,,,,,,3,,,77,0
27047,note_on,,0,0,1,,,,,,,,,,,,,,,3,,,62,0
27053,note_on,,6,0,1,,,,,,,,,,,,,,,3,,,83,0
27060,note_on,,7,0,1,,,,,,,,,,,,,,,3,,,81,127
27083,note_on,,23,0,1,,,,,,,,,,,,,,,3,,,81,0
27090,note_on,,7,0,1,,,,,,,,,,,,,,,3,,,80,127
27113,note_on,,23,0,1,,,,,,,,,,,,,,,3,,,80,0
27120,note_on,,7,0,1,,,,,,,,,,,,,,,3,,,81,127
27150,note_on,,30,0,1,,,,,,,,,,,,,,,3,,,74,127
27150,note_on,,0,0,1,,,,,,,,,,,,,,,3,,,65,127
27167,note_on,,17,0,1,,,,,,,,,,,,,,,3,,,81,0
27173,note_on,,0,0,1,,,,,,,,,,,,,,,3,,,65,0
27173,note_on,,6,0,1,,,,,,,,,,,,,,,3,,,74,0
27180,note_on,,7,0,1,,,,,,,,,,,,,,,3,,,72,127
27180,note_on,,0,0,1,,,,,,,,,,,,,,,3,,,64,127
27180,note_on,,0,0,1,,,,,,,,,,,,,,,3,,,52,127
27203,note_on,,23,0,1,,,,,,,,,,,,,,,3,,,72,0
27203,note_on,,0,0,1,,,,,,,,,,,,,,,3,,,64,0
27210,note_on,,7,0,1,,,,,,,,,,,,,,,3,,,80,127
27210,note_on,,0,0,1,,,,,,,,,,,,,,,3,,,71,127
27210,note_on,,0,0,1,,,,,,,,,,,,,,,3,,,62,127
27233,note_on,,0,0,1,,,,,,,,,,,,,,,3,,,62,0
27233,note_on,,0,0,1,,,,,,,,,,,,,,,3,,,71,0
27233,note_on,,23,0,1,,,,,,,,,,,,,,,3,,,80,0
27239,note_on,,6,0,1,,,,,,,,,,,,,,,3,,,52,0
27240,note_on,,1,0,1,,,,,,,,,,,,,,,3,,,81,127
27240,note_on,,0,0,1,,,,,,,,,,,,,,,3,,,72,127
27240,note_on,,0,0,1,,,,,,,,,,,,,,,3,,,64,127
27240,note_on,,0,0,1,,,,,,,,,,,,,,,3,,,57,127
27287,note_on,,47,0,1,,,,,,,,,,,,,,,3,,,81,0
27287,note_on,,0,0,1,,,,,,,,,,,,,,,3,,,72,0
27287,note_on,,0,0,1,,,,,,,,,,,,,,,3,,,64,0
27287,note_on,,0,0,1,,,,,,,,,,,,,,,3,,,57,0
27300,note_on,,0,0,1,,,,,,,,,,,,,,,3,,,50,127
27300,note_on,,13,0,1,,,,,,,,,,,,,,,3,,,77,127
27300,note_on,,0,0,1,,,,,,,,,,,,,,,3,,,65,127
27300,note_on,,0,0,1,,,,,,,,,,,,,,,3,,,69,127
27323,note_on,,23,0,1,,,,,,,,,,,,,,,3,,,77,0
27330,note_on,,7,0,1,,,,,,,,,,,,,,,3,,,71,127
27347,note_on,,17,0,1,,,,,,,,,,,,,,,3,,,69,0
27347,note_on,,0,0,1,,,,,,,,,,,,,,,3,,,65,0
27353,note_on,,6,0,1,,,,,,,,,,,,,,,3,,,71,0
27359,note_on,,6,0,1,,,,,,,,,,,,,,,3,,,50,0
27360,note_on,,0,0,1,,,,,,,,,,,,,,,3,,,52,127
27360,note_on,,0,0,1,,,,,,,,,,,,,,,3,,,69,127
27360,note_on,,1,0,1,,,,,,,,,,,,,,,3,,,72,127
27360,note_on,,0,0,1,,,,,,,,,,,,,,,3,,,64,127
27407,note_on,,0,0,1,,,,,,,,,,,,,,,3,,,52,0
27407,note_on,,47,0,1,,,,,,,,,,,,,,,3,,,72,0
27407,note_on,,0,0,1,,,,,,,,,,,,,,,3,,,69,0
27407,note_on,,0,0,1,,,,,,,,,,,,,,,3,,,64,0
27420,note_on,,0,0,1,,,,,,,,,,,,,,,3,,,40,127
27420,note_on,,0,0,1,,,,,,,,,,,,,,,3,,,68,127
27420,note_on,,13,0,1,,,,,,,,,,,,,,,3,,,71,127
27420,note_on,,0,0,1,,,,,,,,,,,,,,,3,,,62,127
27443,note_on,,23,0,1,,,,,,,,,,,,,,,3,,,71,0
27450,note_on,,7,0,1,,,,,,,,,,,,,,,3,,,69,127
27467,note_on,,17,0,1,,,,,,,,,,,,,,,3,,,68,0
27467,note_on,,0,0,1,,,,,,,,,,,,,,,3,,,62,0
27473,note_on,,6,0,1,,,,,,,,,,,,,,,3,,,69,0
27479,note_on,,6,0,1,,,,,,,,,,,,,,,3,,,40,0
27480,note_on,,1,0,1,,,,,,,,,,,,,,,3,,,69,127
27480,note_on,,0,0,1,,,,,,,,,,,,,,,3,,,64,127
27480,note_on,,0,0,1,,,,,,,,,,,,,,,3,,,60,127
27480,note_on,,0,0,1,,,,,,,,,,,,,,,3,,,45,127
27527,note_on,,0,0,1,,,,,,,,,,,,,,,3,,,45,0
27527,note_on,,0,0,1,,,,,,,,,,,,,,,3,,,64,0
27527,note_on,,47,0,1,,,,,,,,,,,,,,,3,,,69,0
27527,note_on,,0,0,1,,,,,,,,,,,,,,,3,,,60,0
27570,note_on,,43,0,1,,,,,,,,,,,,,,,3,,,62,127
27593,note_on,,23,0,1,,,,,,,,,,,,,,,3,,,62,0
27600,note_on,,7,0,1,,,,,,,,,,,,,,,3,,,60,127
27623,note_on,,23,0,1,,,,,,,,,,,,,,,3,,,60,0
27630,note_on,,7,0,1,,,,,,,,,,,,,,,3,,,64,127
27653,note_on,,23,0,1,,,,,,,,,,,,,,,3,,,64,0
27660,note_on,,7,0,1,,,,,,,,,,,,,,,3,,,57,127
27683,note_on,,23,0,1,,,,,,,,,,,,,,,3,,,57,0
27690,note_on,,7,0,1,,,,,,,,,,,,,,,3,,,69,127
27713,note_on,,23,0,1,,,,,,,,,,,,,,,3,,,69,0
27720,note_on,,7,0,1,,,,,,,,,,,,,,,3,,,68,127
27720,note_on,,0,0,1,,,,,,,,,,,,,,,3,,,64,127
27743,note_on,,23,0,1,,,,,,,,,,,,,,,3,,,68,0
27750,note_on,,7,0,1,,,,,,,,,,,,,,,3,,,71,127
27767,note_on,,17,0,1,,,,,,,,,,,,,,,3,,,64,0
27773,note_on,,6,0,1,,,,,,,,,,,,,,,3,,,71,0
27780,note_on,,0,0,1,,,,,,,,,,,,,,,3,,,56,127
27780,note_on,,7,0,1,,,,,,,,,,,,,,,3,,,64,127
27803,note_on,,23,0,1,,,,,,,,,,,,,,,3,,,64,0
27810,note_on,,7,0,1,,,,,,,,,,,,,,,3,,,74,127
27827,note_on,,17,0,1,,,,,,,,,,,,,,,3,,,56,0
27833,note_on,,6,0,1,,,,,,,,,,,,,,,3,,,74,0
27840,note_on,,0,0,1,,,,,,,,,,,,,,,3,,,64,127
27840,note_on,,7,0,1,,,,,,,,,,,,,,,3,,,72,127
27840,note_on,,0,0,1,,,,,,,,,,,,,,,3,,,57,127
27863,note_on,,23,0,1,,,,,,,,,,,,,,,3,,,72,0
27870,note_on,,7,0,1,,,,,,,,,,,,,,,3,,,76,127
27887,note_on,,17,0,1,,,,,,,,,,,,,,,3,,,64,0
27887,note_on,,0,0,1,,,,,,,,,,,,,,,3,,,57,0
27893,note_on,,6,0,1,,,,,,,,,,,,,,,3,,,76,0
27900,note_on,,7,0,1,,,,,,,,,,,,,,,3,,,69,127
27900,note_on,,0,0,1,,,,,,,,,,,,,,,3,,,53,127
27900,note_on,,0,0,1,,,,,,,,,,,,,,,3,,,62,127
27923,note_on,,23,0,1,,,,,,,,,,,,,,,3,,,69,0
27930,note_on,,7,0,1,,,,,,,,,,,,,,,3,,,81,127
27947,note_on,,17,0,1,,,,,,,,,,,,,,,3,,,62,0
27947,note_on,,0,0,1,,,,,,,,,,,,,,,3,,,53,0
27953,note_on,,6,0,1,,,,,,,,,,,,,,,3,,,81,0
27960,note_on,,0,0,1,,,,,,,,,,,,,,,3,,,52,127
27960,note_on,,0,0,1,,,,,,,,,,,,,,,3,,,64,127
27960,note_on,,7,0,1,,,,,,,,,,,,,,,3,,,80,127
27983,note_on,,23,0,1,,,,,,,,,,,,,,,3,,,80,0
27990,note_on,,7,0,1,,,,,,,,,,,,,,,3,,,83,127
28007,note_on,,17,0,1,,,,,,,,,,,,,,,3,,,64,0
28007,note_on,,0,0,1,,,,,,,,,,,,,,,3,,,52,0
28013,note_on,,6,0,1,,,,,,,,,,,,,,,3,,,83,0
28020,note_on,,7,0,1,,,,,,,,,,,,,,,3,,,76,127
28020,note_on,,0,0,1,,,,,,,,,,,,,,,3,,,76,127
28043,note_on,,23,0,1,,,,,,,,,,,,,,,3,,,76,0
28050,note_on,,7,0,1,,,,,,,,,,,,,,,3,,,62,127
28073,note_on,,23,0,1,,,,,,,,,,,,,,,3,,,62,0
28080,note_on,,7,0,1,,,,,,,,,,,,,,,3,,,81,127
28080,note_on,,0,0,1,,,,,,,,,,,,,,,3,,,61,127
28103,note_on,,23,0,1,,,,,,,,,,,,,,,3,,,61,0
28110,note_on,,7,0,1,,,,,,,,,,,,,,,3,,,64,127
28133,note_on,,23,0,1,,,,,,,,,,,,,,,3,,,64,0
28140,note_on,,7,0,1,,,,,,,,,,,,,,,3,,,57,127
28150,note_on,,10,0,1,,,,,,,,,,,,,,,3,,,81,0
28163,note_on,,13,0,1,,,,,,,,,,,,,,,3,,,57,0
28169,note_on,,6,0,1,,,,,,,,,,,,,,,3,,,76,0
28170,note_on,,1,0,1,,,,,,,,,,,,,,,3,,,79,127
28193,note_on,,23,0,1,,,,,,,,,,,,,,,3,,,79,0
28200,note_on,,0,0,1,,,,,,,,,,,,,,,3,,,62,127
28200,note_on,,7,0,1,,,,,,,,,,,,,,,3,,,77,127
28223,note_on,,23,0,1,,,,,,,,,,,,,,,3,,,77,0
28230,note_on,,7,0,1,,,,,,,,,,,,,,,3,,,81,127
28247,note_on,,17,0,1,,,,,,,,,,,,,,,3,,,62,0
28253,note_on,,6,0,1,,,,,,,,,,,,,,,3,,,81,0
28260,note_on,,7,0,1,,,,,,,,,,,,,,,3,,,74,127
28260,note_on,,0,0,1,,,,,,,,,,,,,,,3,,,65,127
28283,note_on,,23,0,1,,,,,,,,,,,,,,,3,,,74,0
28290,note_on,,7,0,1,,,,,,,,,,,,,,,3,,,72,127
28307,note_on,,17,0,1,,,,,,,,,,,,,,,3,,,65,0
28313,note_on,,6,0,1,,,,,,,,,,,,,,,3,,,72,0
28320,note_on,,7,0,1,,,,,,,,,,,,,,,3,,,71,127
28320,note_on,,0,0,1,,,,,,,,,,,,,,,3,,,67,127
28343,note_on,,23,0,1,,,,,,,,,,,,,,,3,,,71,0
28350,note_on,,7,0,1,,,,,,,,,,,,,,,3,,,74,127
28367,note_on,,17,0,1,,,,,,,,,,,,,,,3,,,67,0
28373,note_on,,6,0,1,,,,,,,,,,,,,,,3,,,74,0
28380,note_on,,7,0,1,,,,,,,,,,,,,,,3,,,67,127
28403,note_on,,23,0,1,,,,,,,,,,,,,,,3,,,67,0
28410,note_on,,7,0,1,,,,,,,,,,,,,,,3,,,65,127
28433,note_on,,23,0,1,,,,,,,,,,,,,,,3,,,65,0
28440,note_on,,7,0,1,,,,,,,,,,,,,,,3,,,72,127
28440,note_on,,0,0,1,,,,,,,,,,,,,,,3,,,67,127
28440,note_on,,0,0,1,,,,,,,,,,,,,,,3,,,64,127
28463,note_on,,23,0,1,,,,,,,,,,,,,,,3,,,64,0
28470,note_on,,7,0,1,,,,,,,,,,,,,,,3,,,67,127
28487,note_on,,17,0,1,,,,,,,,,,,,,,,3,,,72,0
28487,note_on,,0,0,1,,,,,,,,,,,,,,,3,,,67,0
28493,note_on,,6,0,1,,,,,,,,,,,,,,,3,,,67,0
28500,note_on,,7,0,1,,,,,,,,,,,,,,,3,,,60,127
28523,note_on,,23,0,1,,,,,,,,,,,,,,,3,,,60,0
28530,note_on,,7,0,1,,,,,,,,,,,,,,,3,,,59,127
28553,note_on,,23,0,1,,,,,,,,,,,,,,,3,,,59,0
28560,note_on,,7,0,1,,,,,,,,,,,,,,,3,,,72,127
28560,note_on,,0,0,1,,,,,,,,,,,,,,,3,,,69,127
28560,note_on,,0,0,1,,,,,,,,,,,,,,,3,,,57,127
28583,note_on,,23,0,1,,,,,,,,,,,,,,,3,,,57,0
28590,note_on,,7,0,1,,,,,,,,,,,,,,,3,,,60,127
28607,note_on,,0,0,1,,,,,,,,,,,,,,,3,,,69,0
28607,note_on,,17,0,1,,,,,,,,,,,,,,,3,,,72,0
28613,note_on,,6,0,1,,,,,,,,,,,,,,,3,,,60,0
28620,note_on,,7,0,1,,,,,,,,,,,,,,,3,,,54,127
28643,note_on,,23,0,1,,,,,,,,,,,,,,,3,,,54,0
28650,note_on,,7,0,1,,,,,,,,,,,,,,,3,,,67,127
28650,note_on,,0,0,1,,,,,,,,,,,,,,,3,,,52,127
28673,note_on,,0,0,1,,,,,,,,,,,,,,,3,,,52,0
28673,note_on,,23,0,1,,,,,,,,,,,,,,,3,,,67,0
28680,note_on,,7,0,1,,,,,,,,,,,,,,,3,,,66,127
28680,note_on,,0,0,1,,,,,,,,,,,,,,,3,,,51,127
28710,note_on,,30,0,1,,,,,,,,,,,,,,,3,,,71,127
28727,note_on,,17,0,1,,,,,,,,,,,,,,,3,,,66,0
28727,note_on,,0,0,1,,,,,,,,,,,,,,,3,,,51,0
28733,note_on,,6,0,1,,,,,,,,,,,,,,,3,,,71,0
28740,note_on,,7,0,1,,,,,,,,,,,,,,,3,,,67,127
28740,note_on,,0,0,1,,,,,,,,,,,,,,,3,,,52,127
28770,note_on,,30,0,1,,,,,,,,,,,,,,,3,,,76,127
28787,note_on,,17,0,1,,,,,,,,,,,,,,,3,,,67,0
28787,note_on,,0,0,1,,,,,,,,,,,,,,,3,,,52,0
28800,note_on,,13,0,1,,,,,,,,,,,,,,,3,,,72,127
28800,note_on,,0,0,1,,,,,,,,,,,,,,,3,,,45,127
28823,note_on,,23,0,1,,,,,,,,,,,,,,,3,,,72,0
28830,note_on,,7,0,1,,,,,,,,,,,,,,,3,,,69,127
28844,note_on,,14,0,1,,,,,,,,,,,,,,,3,,,76,0
28847,note_on,,3,0,1,,,,,,,,,,,,,,,3,,,45,0
28853,note_on,,6,0,1,,,,,,,,,,,,,,,3,,,69,0
28860,note_on,,0,0,1,,,,,,,,,,,,,,,3,,,66,127
28860,note_on,,0,0,1,,,,,,,,,,,,,,,3,,,47,127
28860,note_on,,7,0,1,,,,,,,,,,,,,,,3,,,75,127
28883,note_on,,23,0,1,,,,,,,,,,,,,,,3,,,66,0
28890,note_on,,7,0,1,,,,,,,,,,,,,,,3,,,69,127
28907,note_on,,17,0,1,,,,,,,,,,,,,,,3,,,75,0
28907,note_on,,0,0,1,,,,,,,,,,,,,,,3,,,47,0
28913,note_on,,6,0,1,,,,,,,,,,,,,,,3,,,69,0
28920,note_on,,7,0,1,,,,,,,,,,,,,,,3,,,76,127
28920,note_on,,0,0,1,,,,,,,,,,,,,,,3,,,67,127
28920,note_on,,0,0,1,,,,,,,,,,,,,,,3,,,40,127
28920,note_on,,0,0,1,,,,,,,,,,,,,,,3,,,40,127
28943,note_on,,23,0,1,,,,,,,,,,,,,,,3,,,67,0
28950,note_on,,7,0,1,,,,,,,,,,,,,,,3,,,71,127
28967,note_on,,0,0,1,,,,,,,,,,,,,,,3,,,40,0
28967,note_on,,17,0,1,,,,,,,,,,,,,,,3,,,76,0
28973,note_on,,6,0,1,,,,,,,,,,,,,,,3,,,71,0
28979,note_on,,6,0,1,,,,,,,,,,,,,,,3,,,40,0
28980,note_on,,1,0,1,,,,,,,,,,,,,,,3,,,64,127
29003,note_on,,23,0,1,,,,,,,,,,,,,,,3,,,64,0
29010,note_on,,7,0,1,,,,,,,,,,,,,,,3,,,59,127
29010,note_on,,0,0,1,,,,,,,,,,,,,,,3,,,55,127
29033,note_on,,23,0,1,,,,,,,,,,,,,,,3,,,59,0
29033,note_on,,0,0,1,,,,,,,,,,,,,,,3,,,55,0
29040,note_on,,7,0,1,,,,,,,,,,,,,,,3,,,61,127
29040,note_on,,0,0,1,,,,,,,,,,,,,,,3,,,57,127
29063,note_on,,23,0,1,,,,,,,,,,,,,,,3,,,61,0
29070,note_on,,7,0,1,,,,,,,,,,,,,,,3,,,63,127
29082,note_on,,12,0,1,,,,,,,,,,,,,,,3,,,63,0
29085,note_on,,3,0,1,,,,,,,,,,,,,,,3,,,64,127
29087,note_on,,2,0,1,,,,,,,,,,,,,,,3,,,57,0
29097,note_on,,10,0,1,,,,,,,,,,,,,,,3,,,64,0
29100,note_on,,3,0,1,,,,,,,,,,,,,,,3,,,63,127
29100,note_on,,0,0,1,,,,,,,,,,,,,,,3,,,54,127
29123,note_on,,23,0,1,,,,,,,,,,,,,,,3,,,63,0
29130,note_on,,7,0,1,,,,,,,,,,,,,,,3,,,64,127
29142,note_on,,12,0,1,,,,,,,,,,,,,,,3,,,64,0
29145,note_on,,3,0,1,,,,,,,,,,,,,,,3,,,66,127
29147,note_on,,2,0,1,,,,,,,,,,,,,,,3,,,54,0
29157,note_on,,10,0,1,,,,,,,,,,,,,,,3,,,66,0
29160,note_on,,0,0,1,,,,,,,,,,,,,,,3,,,55,127
29160,note_on,,3,0,1,,,,,,,,,,,,,,,3,,,64,127
29183,note_on,,23,0,1,,,,,,,,,,,,,,,3,,,64,0
29190,note_on,,7,0,1,,,,,,,,,,,,,,,3,,,66,127
29202,note_on,,12,0,1,,,,,,,,,,,,,,,3,,,66,0
29205,note_on,,3,0,1,,,,,,,,,,,,,,,3,,,67,127
29207,note_on,,2,0,1,,,,,,,,,,,,,,,3,,,55,0
29217,note_on,,10,0,1,,,,,,,,,,,,,,,3,,,67,0
29220,note_on,,3,0,1,,,,,,,,,,,,,,,3,,,66,127
29220,note_on,,0,0,1,,,,,,,,,,,,,,,3,,,51,127
29243,note_on,,23,0,1,,,,,,,,,,,,,,,3,,,66,0
29250,note_on,,7,0,1,,,,,,,,,,,,,,,3,,,67,127
29262,note_on,,12,0,1,,,,,,,,,,,,,,,3,,,67,0
29265,note_on,,3,0,1,,,,,,,,,,,,,,,3,,,69,127
29267,note_on,,2,0,1,,,,,,,,,,,,,,,3,,,51,0
29277,note_on,,10,0,1,,,,,,,,,,,,,,,3,,,69,0
29280,note_on,,3,0,1,,,,,,,,,,,,,,,3,,,67,127
29280,note_on,,0,0,1,,,,,,,,,,,,,,,3,,,52,127
29303,note_on,,23,0,1,,,,,,,,,,,,,,,3,,,67,0
29310,note_on,,7,0,1,,,,,,,,,,,,,,,3,,,69,127
29322,note_on,,12,0,1,,,,,,,,,,,,,,,3,,,69,0
29325,note_on,,3,0,1,,,,,,,,,,,,,,,3,,,71,127
29327,note_on,,2,0,1,,,,,,,,,,,,,,,3,,,52,0
29337,note_on,,10,0,1,,,,,,,,,,,,,,,3,,,71,0
29340,note_on,,3,0,1,,,,,,,,,,,,,,,3,,,69,127
29340,note_on,,0,0,1,,,,,,,,,,,,,,,3,,,54,127
29363,note_on,,23,0,1,,,,,,,,,,,,,,,3,,,69,0
29370,note_on,,7,0,1,,,,,,,,,,,,,,,3,,,71,127
29382,note_on,,12,0,1,,,,,,,,,,,,,,,3,,,71,0
29385,note_on,,3,0,1,,,,,,,,,,,,,,,3,,,72,127
29387,note_on,,2,0,1,,,,,,,,,,,,,,,3,,,54,0
29397,note_on,,10,0,1,,,,,,,,,,,,,,,3,,,72,0
29400,note_on,,0,0,1,,,,,,,,,,,,,,,3,,,40,127
29400,note_on,,3,0,1,,,,,,,,,,,,,,,3,,,71,127
29400,note_on,,0,0,1,,,,,,,,,,,,,,,3,,,55,127
29430,note_on,,30,0,1,,,,,,,,,,,,,,,3,,,59,127
29447,note_on,,17,0,1,,,,,,,,,,,,,,,3,,,71,0
29453,note_on,,6,0,1,,,,,,,,,,,,,,,3,,,59,0
29459,note_on,,6,0,1,,,,,,,,,,,,,,,3,,,40,0
29460,note_on,,1,0,1,,,,,,,,,,,,,,,3,,,64,127
29470,note_on,,10,0,1,,,,,,,,,,,,,,,3,,,55,0
29490,note_on,,20,0,1,,,,,,,,,,,,,,,3,,,43,127
29507,note_on,,17,0,1,,,,,,,,,,,,,,,3,,,64,0
29513,note_on,,6,0,1,,,,,,,,,,,,,,,3,,,43,0
29520,note_on,,7,0,1,,,,,,,,,,,,,,,3,,,45,127
29550,note_on,,30,0,1,,,,,,,,,,,,,,,3,,,61,127
29573,note_on,,23,0,1,,,,,,,,,,,,,,,3,,,61,0
29580,note_on,,7,0,1,,,,,,,,,,,,,,,3,,,69,127
29580,note_on,,0,0,1,,,,,,,,,,,,,,,3,,,66,127
29590,note_on,,10,0,1,,,,,,,,,,,,,,,3,,,45,0
29603,note_on,,13,0,1,,,,,,,,,,,,,,,3,,,66,0
29610,note_on,,7,0,1,,,,,,,,,,,,,,,3,,,61,127
29610,note_on,,0,0,1,,,,,,,,,,,,,,,3,,,42,127
29633,note_on,,23,0,1,,,,,,,,,,,,,,,3,,,61,0
29633,note_on,,0,0,1,,,,,,,,,,,,,,,3,,,42,0
29640,note_on,,0,0,1,,,,,,,,,,,,,,,3,,,47,127
29640,note_on,,7,0,1,,,,,,,,,,,,,,,3,,,63,127
29670,note_on,,30,0,1,,,,,,,,,,,,,,,3,,,54,127
29681,note_on,,11,0,1,,,,,,,,,,,,,,,3,,,69,0
29687,note_on,,6,0,1,,,,,,,,,,,,,,,3,,,63,0
29687,note_on,,0,0,1,,,,,,,,,,,,,,,3,,,47,0
29693,note_on,,6,0,1,,,,,,,,,,,,,,,3,,,54,0
29700,note_on,,7,0,1,,,,,,,,,,,,,,,3,,,67,127
29700,note_on,,0,0,1,,,,,,,,,,,,,,,3,,,64,127
29700,note_on,,0,0,1,,,,,,,,,,,,,,,3,,,55,127
29723,note_on,,23,0,1,,,,,,,,,,,,,,,3,,,55,0
29730,note_on,,7,0,1,,,,,,,,,,,,,,,3,,,52,127
29747,note_on,,17,0,1,,,,,,,,,,,,,,,3,,,67,0
29753,note_on,,6,0,1,,,,,,,,,,,,,,,3,,,52,0
29760,note_on,,7,0,1,,,,,,,,,,,,,,,3,,,66,127
29760,note_on,,0,0,1,,,,,,,,,,,,,,,3,,,59,127
29777,note_on,,17,0,1,,,,,,,,,,,,,,,3,,,64,0
29790,note_on,,13,0,1,,,,,,,,,,,,,,,3,,,61,127
29813,note_on,,23,0,1,,,,,,,,,,,,,,,3,,,61,0
29820,note_on,,7,0,1,,,,,,,,,,,,,,,3,,,63,127
29820,note_on,,0,0,1,,,,,,,,,,,,,,,3,,,47,127
29830,note_on,,10,0,1,,,,,,,,,,,,,,,3,,,59,0
29850,note_on,,20,0,1,,,,,,,,,,,,,,,3,,,57,127
29855,note_on,,5,0,1,,,,,,,,,,,,,,,3,,,66,0
29867,note_on,,0,0,1,,,,,,,,,,,,,,,3,,,47,0
29867,note_on,,12,0,1,,,,,,,,,,,,,,,3,,,63,0
29873,note_on,,6,0,1,,,,,,,,,,,,,,,3,,,57,0
29880,note_on,,7,0,1,,,,,,,,,,,,,,,3,,,64,127
29880,note_on,,0,0,1,,,,,,,,,,,,,,,3,,,59,127
29880,note_on,,0,0,1,,,,,,,,,,,,,,,3,,,55,127
29880,note_on,,0,0,1,,,,,,,,,,,,,,,3,,,40,127
29880,note_on,,0,0,1,,,,,,,,,,,,,,,3,,,52,127
29903,note_on,,23,0,1,,,,,,,,,,,,,,,3,,,52,0
29910,note_on,,7,0,1,,,,,,,,,,,,,,,3,,,47,127
29927,note_on,,17,0,1,,,,,,,,,,,,,,,3,,,64,0
29927,note_on,,0,0,1,,,,,,,,,,,,,,,3,,,59,0
29927,note_on,,0,0,1,,,,,,,,,,,,,,,3,,,55,0
29933,note_on,,6,0,1,,,,,,,,,,,,,,,3,,,47,0
29939,note_on,,6,0,1,,,,,,,,,,,,,,,3,,,40,0
29940,note_on,,1,0,1,,,,,,,,,,,,,,,3,,,40,127
29963,note_on,,23,0,1,,,,,,,,,,,,,,,3,,,40,0
29970,note_on,,7,0,1,,,,,,,,,,,,,,,3,,,67,127
29970,note_on,,0,0,1,,,,,,,,,,,,,,,3,,,63,127
29970,note_on,,0,0,1,,,,,,,,,,,,,,,3,,,47,127
29993,note_on,,23,0,1,,,,,,,,,,,,,,,3,,,67,0
29993,note_on,,0,0,1,,,,,,,,,,,,,,,3,,,63,0
29993,note_on,,0,0,1,,,,,,,,,,,,,,,3,,,47,0
30000,note_on,,7,0,1,,,,,,,,,,,,,,,3,,,69,127
30000,note_on,,0,0,1,,,,,,,,,,,,,,,3,,,64,127
30000,note_on,,0,0,1,,,,,,,,,,,,,,,3,,,49,127
30023,note_on,,23,0,1,,,,,,,,,,,,,,,3,,,49,0
30030,note_on,,7,0,1,,,,,,,,,,,,,,,3,,,51,127
30042,note_on,,12,0,1,,,,,,,,,,,,,,,3,,,51,0
30045,note_on,,3,0,1,,,,,,,,,,,,,,,3,,,52,127
30047,note_on,,2,0,1,,,,,,,,,,,,,,,3,,,69,0
30047,note_on,,0,0,1,,,,,,,,,,,,,,,3,,,64,0
30057,note_on,,10,0,1,,,,,,,,,,,,,,,3,,,52,0
30060,note_on,,3,0,1,,,,,,,,,,,,,,,3,,,66,127
30060,note_on,,0,0,1,,,,,,,,,,,,,,,3,,,59,127
30060,note_on,,0,0,1,,,,,,,,,,,,,,,3,,,51,127
30083,note_on,,23,0,1,,,,,,,,,,,,,,,3,,,51,0
30090,note_on,,7,0,1,,,,,,,,,,,,,,,3,,,52,127
30102,note_on,,12,0,1,,,,,,,,,,,,,,,3,,,52,0
30105,note_on,,3,0,1,,,,,,,,,,,,,,,3,,,54,127
30107,note_on,,0,0,1,,,,,,,,,,,,,,,3,,,59,0
30107,note_on,,2,0,1,,,,,,,,,,,,,,,3,,,66,0
30117,note_on,,10,0,1,,,,,,,,,,,,,,,3,,,54,0
30120,note_on,,3,0,1,,,,,,,,,,,,,,,3,,,67,127
30120,note_on,,0,0,1,,,,,,,,,,,,,,,3,,,59,127
30120,note_on,,0,0,1,,,,,,,,,,,,,,,3,,,52,127
30143,note_on,,23,0,1,,,,,,,,,,,,,,,3,,,52,0
30150,note_on,,7,0,1,,,,,,,,,,,,,,,3,,,54,127
30162,note_on,,12,0,1,,,,,,,,,,,,,,,3,,,54,0
30165,note_on,,3,0,1,,,,,,,,,,,,,,,3,,,55,127
30167,note_on,,2,0,1,,,,,,,,,,,,,,,3,,,67,0
30167,note_on,,0,0,1,,,,,,,,,,,,,,,3,,,59,0
30177,note_on,,10,0,1,,,,,,,,,,,,,,,3,,,55,0
30180,note_on,,0,0,1,,,,,,,,,,,,,,,3,,,54,127
30180,note_on,,3,0,1,,,,,,,,,,,,,,,3,,,63,127
30180,note_on,,0,0,1,,,,,,,,,,,,,,,3,,,57,127
30203,note_on,,23,0,1,,,,,,,,,,,,,,,3,,,54,0
30210,note_on,,7,0,1,,,,,,,,,,,,,,,3,,,55,127
30222,note_on,,12,0,1,,,,,,,,,,,,,,,3,,,55,0
30225,note_on,,3,0,1,,,,,,,,,,,,,,,3,,,57,127
30227,note_on,,2,0,1,,,,,,,,,,,,,,,3,,,63,0
30227,note_on,,0,0,1,,,,,,,,,,,,,,,3,,,57,0
30237,note_on,,10,0,1,,,,,,,,,,,,,,,3,,,57,0
30240,note_on,,3,0,1,,,,,,,,,,,,,,,3,,,64,127
30240,note_on,,0,0,1,,,,,,,,,,,,,,,3,,,59,127
30240,note_on,,0,0,1,,,,,,,,,,,,,,,3,,,55,127
30263,note_on,,23,0,1,,,,,,,,,,,,,,,3,,,55,0
30270,note_on,,7,0,1,,,,,,,,,,,,,,,3,,,57,127
30282,note_on,,12,0,1,,,,,,,,,,,,,,,3,,,57,0
30285,note_on,,3,0,1,,,,,,,,,,,,,,,3,,,59,127
30287,note_on,,2,0,1,,,,,,,,,,,,,,,3,,,64,0
30287,note_on,,0,0,1,,,,,,,,,,,,,,,3,,,59,0
30297,note_on,,10,0,1,,,,,,,,,,,,,,,3,,,59,0
30300,note_on,,3,0,1,,,,,,,,,,,,,,,3,,,66,127
30300,note_on,,0,0,1,,,,,,,,,,,,,,,3,,,57,127
30300,note_on,,0,0,1,,,,,,,,,,,,,,,3,,,63,127
30323,note_on,,23,0,1,,,,,,,,,,,,,,,3,,,57,0
30330,note_on,,7,0,1,,,,,,,,,,,,,,,3,,,59,127
30342,note_on,,12,0,1,,,,,,,,,,,,,,,3,,,59,0
30345,note_on,,3,0,1,,,,,,,,,,,,,,,3,,,60,127
30347,note_on,,0,0,1,,,,,,,,,,,,,,,3,,,63,0
30347,note_on,,2,0,1,,,,,,,,,,,,,,,3,,,66,0
30357,note_on,,10,0,1,,,,,,,,,,,,,,,3,,,60,0
30360,note_on,,0,0,1,,,,,,,,,,,,,,,3,,,40,127
30360,note_on,,3,0,1,,,,,,,,,,,,,,,3,,,67,127
30360,note_on,,0,0,1,,,,,,,,,,,,,,,3,,,64,127
30360,note_on,,0,0,1,,,,,,,,,,,,,,,3,,,59,127
30383,note_on,,23,0,1,,,,,,,,,,,,,,,3,,,67,0
30390,note_on,,7,0,1,,,,,,,,,,,,,,,3,,,71,127
30407,note_on,,17,0,1,,,,,,,,,,,,,,,3,,,64,0
30407,note_on,,0,0,1,,,,,,,,,,,,,,,3,,,59,0
30413,note_on,,6,0,1,,,,,,,,,,,,,,,3,,,71,0
30420,note_on,,7,0,1,,,,,,,,,,,,,,,3,,,76,127
30423,note_on,,3,0,1,,,,,,,,,,,,,,,3,,,40,0
30450,note_on,,27,0,1,,,,,,,,,,,,,,,3,,,67,127
30467,note_on,,17,0,1,,,,,,,,,,,,,,,3,,,76,0
30473,note_on,,6,0,1,,,,,,,,,,,,,,,3,,,67,0
30480,note_on,,7,0,1,,,,,,,,,,,,,,,3,,,69,127
30510,note_on,,30,0,1,,,,,,,,,,,,,,,3,,,73,127
30533,note_on,,23,0,1,,,,,,,,,,,,,,,3,,,73,0
30540,note_on,,0,0,1,,,,,,,,,,,,,,,3,,,57,127
30540,note_on,,7,0,1,,,,,,,,,,,,,,,3,,,78,127
30550,note_on,,10,0,1,,,,,,,,,,,,,,,3,,,69,0
30563,note_on,,13,0,1,,,,,,,,,,,,,,,3,,,78,0
30570,note_on,,7,0,1,,,,,,,,,,,,,,,3,,,73,127
30570,note_on,,0,0,1,,,,,,,,,,,,,,,3,,,66,127
30593,note_on,,23,0,1,,,,,,,,,,,,,,,3,,,73,0
30593,note_on,,0,0,1,,,,,,,,,,,,,,,3,,,66,0
30600,note_on,,7,0,1,,,,,,,,,,,,,,,3,,,71,127
30600,note_on,,0,0,1,,,,,,,,,,,,,,,3,,,75,127
30630,note_on,,30,0,1,,,,,,,,,,,,,,,3,,,66,127
30641,note_on,,11,0,1,,,,,,,,,,,,,,,3,,,57,0
30647,note_on,,0,0,1,,,,,,,,,,,,,,,3,,,75,0
30647,note_on,,6,0,1,,,,,,,,,,,,,,,3,,,71,0
30653,note_on,,6,0,1,,,,,,,,,,,,,,,3,,,66,0
30660,note_on,,7,0,1,,,,,,,,,,,,,,,3,,,71,127
30660,note_on,,0,0,1,,,,,,,,,,,,,,,3,,,76,127
30660,note_on,,0,0,1,,,,,,,,,,,,,,,3,,,67,127
30660,note_on,,0,0,1,,,,,,,,,,,,,,,3,,,55,127
30683,note_on,,23,0,1,,,,,,,,,,,,,,,3,,,67,0
30690,note_on,,7,0,1,,,,,,,,,,,,,,,3,,,64,127
30707,note_on,,0,0,1,,,,,,,,,,,,,,,3,,,55,0
30707,note_on,,0,0,1,,,,,,,,,,,,,,,3,,,76,0
30707,note_on,,17,0,1,,,,,,,,,,,,,,,3,,,71,0
30713,note_on,,6,0,1,,,,,,,,,,,,,,,3,,,64,0
30720,note_on,,0,0,1,,,,,,,,,,,,,,,3,,,54,127
30720,note_on,,7,0,1,,,,,,,,,,,,,,,3,,,66,127
30720,note_on,,0,0,1,,,,,,,,,,,,,,,3,,,69,127
30750,note_on,,30,0,1,,,,,,,,,,,,,,,3,,,73,127
30767,note_on,,0,0,1,,,,,,,,,,,,,,,3,,,54,0
30767,note_on,,17,0,1,,,,,,,,,,,,,,,3,,,66,0
30773,note_on,,6,0,1,,,,,,,,,,,,,,,3,,,73,0
30780,note_on,,7,0,1,,,,,,,,,,,,,,,3,,,75,127
30780,note_on,,0,0,1,,,,,,,,,,,,,,,3,,,66,127
30780,note_on,,0,0,1,,,,,,,,,,,,,,,3,,,59,127
30797,note_on,,17,0,1,,,,,,,,,,,,,,,3,,,69,0
30810,note_on,,13,0,1,,,,,,,,,,,,,,,3,,,69,127
30827,note_on,,17,0,1,,,,,,,,,,,,,,,3,,,59,0
30830,note_on,,0,0,1,,,,,,,,,,,,,,,3,,,66,0
30830,note_on,,3,0,1,,,,,,,,,,,,,,,3,,,75,0
30833,note_on,,3,0,1,,,,,,,,,,,,,,,3,,,69,0
30840,note_on,,7,0,1,,,,,,,,,,,,,,,3,,,71,127
30840,note_on,,0,0,1,,,,,,,,,,,,,,,3,,,76,127
30840,note_on,,0,0,1,,,,,,,,,,,,,,,3,,,67,127
30840,note_on,,0,0,1,,,,,,,,,,,,,,,3,,,52,127
30840,note_on,,0,0,1,,,,,,,,,,,,,,,3,,,40,127
30863,note_on,,23,0,1,,,,,,,,,,,,,,,3,,,52,0
30870,note_on,,7,0,1,,,,,,,,,,,,,,,3,,,59,127
30887,note_on,,17,0,1,,,,,,,,,,,,,,,3,,,71,0
30887,note_on,,0,0,1,,,,,,,,,,,,,,,3,,,76,0
30887,note_on,,0,0,1,,,,,,,,,,,,,,,3,,,67,0
30893,note_on,,6,0,1,,,,,,,,,,,,,,,3,,,59,0
30899,note_on,,6,0,1,,,,,,,,,,,,,,,3,,,40,0
30900,note_on,,1,0,1,,,,,,,,,,,,,,,3,,,64,127
30923,note_on,,23,0,1,,,,,,,,,,,,,,,3,,,64,0
30930,note_on,,7,0,1,,,,,,,,,,,,,,,3,,,81,127
30953,note_on,,23,0,1,,,,,,,,,,,,,,,3,,,81,0
30960,note_on,,7,0,1,,,,,,,,,,,,,,,3,,,79,127
30983,note_on,,23,0,1,,,,,,,,,,,,,,,3,,,79,0
30990,note_on,,7,0,1,,,,,,,,,,,,,,,3,,,83,127
31013,note_on,,23,0,1,,,,,,,,,,,,,,,3,,,83,0
31020,note_on,,7,0,1,,,,,,,,,,,,,,,3,,,76,127
31043,note_on,,23,0,1,,,,,,,,,,,,,,,3,,,76,0
31050,note_on,,7,0,1,,,,,,,,,,,,,,,3,,,79,127
31073,note_on,,23,0,1,,,,,,,,,,,,,,,3,,,79,0
31080,note_on,,7,0,1,,,,,,,,,,,,,,,3,,,75,127
31103,note_on,,23,0,1,,,,,,,,,,,,,,,3,,,75,0
31110,note_on,,7,0,1,,,,,,,,,,,,,,,3,,,78,127
31133,note_on,,23,0,1,,,,,,,,,,,,,,,3,,,78,0
31140,note_on,,7,0,1,,,,,,,,,,,,,,,3,,,71,127
31163,note_on,,23,0,1,,,,,,,,,,,,,,,3,,,71,0
31170,note_on,,7,0,1,,,,,,,,,,,,,,,3,,,69,127
31193,note_on,,23,0,1,,,,,,,,,,,,,,,3,,,69,0
31200,note_on,,7,0,1,,,,,,,,,,,,,,,3,,,76,127
31200,note_on,,0,0,1,,,,,,,,,,,,,,,3,,,71,127
31200,note_on,,0,0,1,,,,,,,,,,,,,,,3,,,67,127
31223,note_on,,23,0,1,,,,,,,,,,,,,,,3,,,67,0
31230,note_on,,7,0,1,,,,,,,,,,,,,,,3,,,71,127
31250,note_on,,20,0,1,,,,,,,,,,,,,,,3,,,71,0
31260,note_on,,10,0,1,,,,,,,,,,,,,,,3,,,64,127
31270,note_on,,10,0,1,,,,,,,,,,,,,,,3,,,76,0
31273,note_on,,3,0,1,,,,,,,,,,,,,,,3,,,71,0
31283,note_on,,10,0,1,,,,,,,,,,,,,,,3,,,64,0
31290,note_on,,7,0,1,,,,,,,,,,,,,,,3,,,76,127
31290,note_on,,0,0,1,,,,,,,,,,,,,,,3,,,71,127
31290,note_on,,0,0,1,,,,,,,,,,,,,,,3,,,67,127
31313,note_on,,0,0,1,,,,,,,,,,,,,,,3,,,71,0
31313,note_on,,0,0,1,,,,,,,,,,,,,,,3,,,67,0
31313,note_on,,23,0,1,,,,,,,,,,,,,,,3,,,76,0
31320,note_on,,7,0,1,,,,,,,,,,,,,,,3,,,78,127
31320,note_on,,0,0,1,,,,,,,,,,,,,,,3,,,71,127
31320,note_on,,0,0,1,,,,,,,,,,,,,,,3,,,63,127
31343,note_on,,23,0,1,,,,,,,,,,,,,,,3,,,63,0
31350,note_on,,7,0,1,,,,,,,,,,,,,,,3,,,66,127
31367,note_on,,0,0,1,,,,,,,,,,,,,,,3,,,71,0
31367,note_on,,17,0,1,,,,,,,,,,,,,,,3,,,78,0
31373,note_on,,6,0,1,,,,,,,,,,,,,,,3,,,66,0
31380,note_on,,7,0,1,,,,,,,,,,,,,,,3,,,59,127
31403,note_on,,23,0,1,,,,,,,,,,,,,,,3,,,59,0
31410,note_on,,7,0,1,,,,,,,,,,,,,,,3,,,57,127
31433,note_on,,23,0,1,,,,,,,,,,,,,,,3,,,57,0
31440,note_on,,7,0,1,,,,,,,,,,,,,,,3,,,79,127
31440,note_on,,0,0,1,,,,,,,,,,,,,,,3,,,71,127
31440,note_on,,0,0,1,,,,,,,,,,,,,,,3,,,64,127
31440,note_on,,0,0,1,,,,,,,,,,,,,,,3,,,55,127
31463,note_on,,23,0,1,,,,,,,,,,,,,,,3,,,55,0
31470,note_on,,7,0,1,,,,,,,,,,,,,,,3,,,59,127
31493,note_on,,23,0,1,,,,,,,,,,,,,,,3,,,59,0
31500,note_on,,7,0,1,,,,,,,,,,,,,,,3,,,52,127
31510,note_on,,10,0,1,,,,,,,,,,,,,,,3,,,79,0
31510,note_on,,0,0,1,,,,,,,,,,,,,,,3,,,71,0
31510,note_on,,0,0,1,,,,,,,,,,,,,,,3,,,64,0
31523,note_on,,13,0,1,,,,,,,,,,,,,,,3,,,52,0
31530,note_on,,0,0,1,,,,,,,,,,,,,,,3,,,55,127
31530,note_on,,0,0,1,,,,,,,,,,,,,,,3,,,71,127
31530,note_on,,7,0,1,,,,,,,,,,,,,,,3,,,79,127
31530,note_on,,0,0,1,,,,,,,,,,,,,,,3,,,64,127
31553,note_on,,0,0,1,,,,,,,,,,,,,,,3,,,55,0
31553,note_on,,23,0,1,,,,,,,,,,,,,,,3,,,79,0
31553,note_on,,0,0,1,,,,,,,,,,,,,,,3,,,64,0
31553,note_on,,0,0,1,,,,,,,,,,,,,,,3,,,71,0
31560,note_on,,0,0,1,,,,,,,,,,,,,,,3,,,48,127
31560,note_on,,7,0,1,,,,,,,,,,,,,,,3,,,81,127
31560,note_on,,0,0,1,,,,,,,,,,,,,,,3,,,69,127
31560,note_on,,0,0,1,,,,,,,,,,,,,,,3,,,64,127
31607,note_on,,47,0,1,,,,,,,,,,,,,,,3,,,81,0
31607,note_on,,0,0,1,,,,,,,,,,,,,,,3,,,69,0
31607,note_on,,0,0,1,,,,,,,,,,,,,,,3,,,64,0
31607,note_on,,0,0,1,,,,,,,,,,,,,,,3,,,48,0
31620,note_on,,13,0,1,,,,,,,,,,,,,,,3,,,79,127
31620,note_on,,0,0,1,,,,,,,,,,,,,,,3,,,64,127
31620,note_on,,0,0,1,,,,,,,,,,,,,,,3,,,57,127
31620,note_on,,0,0,1,,,,,,,,,,,,,,,3,,,72,127
31643,note_on,,23,0,1,,,,,,,,,,,,,,,3,,,79,0
31650,note_on,,7,0,1,,,,,,,,,,,,,,,3,,,78,127
31667,note_on,,17,0,1,,,,,,,,,,,,,,,3,,,72,0
31667,note_on,,0,0,1,,,,,,,,,,,,,,,3,,,64,0
31667,note_on,,0,0,1,,,,,,,,,,,,,,,3,,,57,0
31673,note_on,,6,0,1,,,,,,,,,,,,,,,3,,,78,0
31680,note_on,,7,0,1,,,,,,,,,,,,,,,3,,,79,127
31680,note_on,,0,0,1,,,,,,,,,,,,,,,3,,,71,127
31680,note_on,,0,0,1,,,,,,,,,,,,,,,3,,,64,127
31680,note_on,,0,0,1,,,,,,,,,,,,,,,3,,,59,127
31727,note_on,,0,0,1,,,,,,,,,,,,,,,3,,,71,0
31727,note_on,,0,0,1,,,,,,,,,,,,,,,3,,,64,0
31727,note_on,,0,0,1,,,,,,,,,,,,,,,3,,,59,0
31727,note_on,,47,0,1,,,,,,,,,,,,,,,3,,,79,0
31740,note_on,,13,0,1,,,,,,,,,,,,,,,3,,,78,127
31740,note_on,,0,0,1,,,,,,,,,,,,,,,3,,,69,127
31740,note_on,,0,0,1,,,,,,,,,,,,,,,3,,,63,127
31740,note_on,,0,0,1,,,,,,,,,,,,,,,3,,,47,127
31763,note_on,,23,0,1,,,,,,,,,,,,,,,3,,,78,0
31770,note_on,,7,0,1,,,,,,,,,,,,,,,3,,,76,127
31787,note_on,,0,0,1,,,,,,,,,,,,,,,3,,,63,0
31787,note_on,,0,0,1,,,,,,,,,,,,,,,3,,,47,0
31787,note_on,,17,0,1,,,,,,,,,,,,,,,3,,,69,0
31793,note_on,,6,0,1,,,,,,,,,,,,,,,3,,,76,0
31800,note_on,,7,0,1,,,,,,,,,,,,,,,3,,,76,127
31800,note_on,,0,0,1,,,,,,,,,,,,,,,3,,,64,127
31800,note_on,,0,0,1,,,,,,,,,,,,,,,3,,,52,127
31800,note_on,,0,0,1,,,,,,,,,,,,,,,3,,,67,127
31847,note_on,,47,0,1,,,,,,,,,,,,,,,3,,,76,0
31847,note_on,,0,0,1,,,,,,,,,,,,,,,3,,,52,0
31847,note_on,,0,0,1,,,,,,,,,,,,,,,3,,,64,0
31847,note_on,,0,0,1,,,,,,,,,,,,,,,3,,,67,0
31860,note_on,,13,0,1,,,,,,,,,,,,,,,3,,,40,127
31890,note_on,,30,0,1,,,,,,,,,,,,,,,3,,,78,127
31890,note_on,,0,0,1,,,,,,,,,,,,,,,3,,,63,127
31907,note_on,,17,0,1,,,,,,,,,,,,,,,3,,,40,0
31913,note_on,,6,0,1,,,,,,,,,,,,,,,3,,,78,0
31913,note_on,,0,0,1,,,,,,,,,,,,,,,3,,,63,0
31920,note_on,,7,0,1,,,,,,,,,,,,,,,3,,,79,127
31920,note_on,,0,0,1,,,,,,,,,,,,,,,3,,,64,127
31943,note_on,,23,0,1,,,,,,,,,,,,,,,3,,,79,0
31943,note_on,,0,0,1,,,,,,,,,,,,,,,3,,,64,0
31950,note_on,,7,0,1,,,,,,,,,,,,,,,3,,,83,127
31950,note_on,,0,0,1,,,,,,,,,,,,,,,3,,,67,127
31973,note_on,,23,0,1,,,,,,,,,,,,,,,3,,,83,0
31973,note_on,,0,0,1,,,,,,,,,,,,,,,3,,,67,0
31980,note_on,,0,0,1,,,,,,,,,,,,,,,3,,,66,127
31980,note_on,,7,0,1,,,,,,,,,,,,,,,3,,,75,127
32003,note_on,,0,0,1,,,,,,,,,,,,,,,3,,,66,0
32003,note_on,,23,0,1,,,,,,,,,,,,,,,3,,,75,0
32010,note_on,,7,0,1,,,,,,,,,,,,,,,3,,,78,127
32010,note_on,,0,0,1,,,,,,,,,,,,,,,3,,,69,127
32033,note_on,,23,0,1,,,,,,,,,,,,,,,3,,,78,0
32033,note_on,,0,0,1,,,,,,,,,,,,,,,3,,,69,0
32040,note_on,,7,0,1,,,,,,,,,,,,,,,3,,,76,127
32040,note_on,,0,0,1,,,,,,,,,,,,,,,3,,,71,127
32040,note_on,,0,0,1,,,,,,,,,,,,,,,3,,,67,127
32070,note_on,,30,0,1,,,,,,,,,,,,,,,3,,,52,127
32087,note_on,,0,0,1,,,,,,,,,,,,,,,3,,,71,0
32087,note_on,,17,0,1,,,,,,,,,,,,,,,3,,,76,0
32087,note_on,,0,0,1,,,,,,,,,,,,,,,3,,,67,0
32093,note_on,,6,0,1,,,,,,,,,,,,,,,3,,,52,0
32100,note_on,,7,0,1,,,,,,,,,,,,,,,3,,,40,127
32123,note_on,,23,0,1,,,,,,,,,,,,,,,3,,,40,0
32130,note_on,,7,0,1,,,,,,,,,,,,,,,3,,,75,127
32130,note_on,,0,0,1,,,,,,,,,,,,,,,3,,,66,127
32153,note_on,,0,0,1,,,,,,,,,,,,,,,3,,,66,0
32153,note_on,,23,0,1,,,,,,,,,,,,,,,3,,,75,0
32160,note_on,,0,0,1,,,,,,,,,,,,,,,3,,,67,127
32160,note_on,,7,0,1,,,,,,,,,,,,,,,3,,,76,127
32183,note_on,,0,0,1,,,,,,,,,,,,,,,3,,,67,0
32183,note_on,,23,0,1,,,,,,,,,,,,,,,3,,,76,0
32190,note_on,,0,0,1,,,,,,,,,,,,,,,3,,,71,127
32190,note_on,,7,0,1,,,,,,,,,,,,,,,3,,,79,127
32213,note_on,,23,0,1,,,,,,,,,,,,,,,3,,,79,0
32213,note_on,,0,0,1,,,,,,,,,,,,,,,3,,,71,0
32220,note_on,,7,0,1,,,,,,,,,,,,,,,3,,,78,127
32220,note_on,,0,0,1,,,,,,,,,,,,,,,3,,,63,127
32243,note_on,,23,0,1,,,,,,,,,,,,,,,3,,,78,0
32243,note_on,,0,0,1,,,,,,,,,,,,,,,3,,,63,0
32250,note_on,,0,0,1,,,,,,,,,,,,,,,3,,,66,127
32250,note_on,,7,0,1,,,,,,,,,,,,,,,3,,,81,127
32273,note_on,,0,0,1,,,,,,,,,,,,,,,3,,,66,0
32273,note_on,,23,0,1,,,,,,,,,,,,,,,3,,,81,0
32280,note_on,,7,0,1,,,,,,,,,,,,,,,3,,,79,127
32280,note_on,,0,0,1,,,,,,,,,,,,,,,3,,,71,127
32280,note_on,,0,0,1,,,,,,,,,,,,,,,3,,,64,127
32310,note_on,,30,0,1,,,,,,,,,,,,,,,3,,,52,127
32327,note_on,,17,0,1,,,,,,,,,,,,,,,3,,,79,0
32327,note_on,,0,0,1,,,,,,,,,,,,,,,3,,,64,0
32327,note_on,,0,0,1,,,,,,,,,,,,,,,3,,,71,0
32333,note_on,,6,0,1,,,,,,,,,,,,,,,3,,,52,0
32340,note_on,,7,0,1,,,,,,,,,,,,,,,3,,,40,127
32363,note_on,,23,0,1,,,,,,,,,,,,,,,3,,,40,0
32370,note_on,,7,0,1,,,,,,,,,,,,,,,3,,,78,127
32370,note_on,,0,0,1,,,,,,,,,,,,,,,3,,,63,127
32393,note_on,,23,0,1,,,,,,,,,,,,,,,3,,,78,0
32393,note_on,,0,0,1,,,,,,,,,,,,,,,3,,,63,0
32400,note_on,,7,0,1,,,,,,,,,,,,,,,3,,,80,127
32400,note_on,,0,0,1,,,,,,,,,,,,,,,3,,,64,127
32423,note_on,,0,0,1,,,,,,,,,,,,,,,3,,,64,0
32423,note_on,,23,0,1,,,,,,,,,,,,,,,3,,,80,0
32430,note_on,,7,0,1,,,,,,,,,,,,,,,3,,,81,127
32430,note_on,,0,0,1,,,,,,,,,,,,,,,3,,,65,127
32453,note_on,,23,0,1,,,,,,,,,,,,,,,3,,,81,0
32453,note_on,,0,0,1,,,,,,,,,,,,,,,3,,,65,0
32460,note_on,,7,0,1,,,,,,,,,,,,,,,3,,,80,127
32460,note_on,,0,0,1,,,,,,,,,,,,,,,3,,,59,127
32483,note_on,,0,0,1,,,,,,,,,,,,,,,3,,,59,0
32483,note_on,,23,0,1,,,,,,,,,,,,,,,3,,,80,0
32490,note_on,,0,0,1,,,,,,,,,,,,,,,3,,,62,127
32490,note_on,,7,0,1,,,,,,,,,,,,,,,3,,,83,127
32513,note_on,,0,0,1,,,,,,,,,,,,,,,3,,,62,0
32513,note_on,,23,0,1,,,,,,,,,,,,,,,3,,,83,0
32520,note_on,,7,0,1,,,,,,,,,,,,,,,3,,,81,127
32520,note_on,,0,0,1,,,,,,,,,,,,,,,3,,,60,127
32520,note_on,,0,0,1,,,,,,,,,,,,,,,3,,,64,127
32550,note_on,,30,0,1,,,,,,,,,,,,,,,3,,,57,127
32567,note_on,,17,0,1,,,,,,,,,,,,,,,3,,,81,0
32567,note_on,,0,0,1,,,,,,,,,,,,,,,3,,,64,0
32567,note_on,,0,0,1,,,,,,,,,,,,,,,3,,,60,0
32573,note_on,,6,0,1,,,,,,,,,,,,,,,3,,,57,0
32580,note_on,,7,0,1,,,,,,,,,,,,,,,3,,,45,127
32603,note_on,,23,0,1,,,,,,,,,,,,,,,3,,,45,0
32610,note_on,,0,0,1,,,,,,,,,,,,,,,3,,,56,127
32610,note_on,,7,0,1,,,,,,,,,,,,,,,3,,,71,127
32633,note_on,,23,0,1,,,,,,,,,,,,,,,3,,,71,0
32633,note_on,,0,0,1,,,,,,,,,,,,,,,3,,,56,0
32640,note_on,,7,0,1,,,,,,,,,,,,,,,3,,,72,127
32640,note_on,,0,0,1,,,,,,,,,,,,,,,3,,,57,127
32663,note_on,,23,0,1,,,,,,,,,,,,,,,3,,,72,0
32663,note_on,,0,0,1,,,,,,,,,,,,,,,3,,,57,0
32670,note_on,,7,0,1,,,,,,,,,,,,,,,3,,,76,127
32670,note_on,,0,0,1,,,,,,,,,,,,,,,3,,,60,127
32693,note_on,,0,0,1,,,,,,,,,,,,,,,3,,,60,0
32693,note_on,,23,0,1,,,,,,,,,,,,,,,3,,,76,0
32700,note_on,,7,0,1,,,,,,,,,,,,,,,3,,,68,127
32700,note_on,,0,0,1,,,,,,,,,,,,,,,3,,,59,127
32723,note_on,,23,0,1,,,,,,,,,,,,,,,3,,,68,0
32723,note_on,,0,0,1,,,,,,,,,,,,,,,3,,,59,0
32730,note_on,,7,0,1,,,,,,,,,,,,,,,3,,,71,127
32730,note_on,,0,0,1,,,,,,,,,,,,,,,3,,,62,127
32753,note_on,,23,0,1,,,,,,,,,,,,,,,3,,,71,0
32753,note_on,,0,0,1,,,,,,,,,,,,,,,3,,,62,0
32760,note_on,,0,0,1,,,,,,,,,,,,,,,3,,,64,127
32760,note_on,,7,0,1,,,,,,,,,,,,,,,3,,,69,127
32760,note_on,,0,0,1,,,,,,,,,,,,,,,3,,,60,127
32790,note_on,,30,0,1,,,,,,,,,,,,,,,3,,,57,127
32807,note_on,,17,0,1,,,,,,,,,,,,,,,3,,,69,0
32807,note_on,,0,0,1,,,,,,,,,,,,,,,3,,,64,0
32807,note_on,,0,0,1,,,,,,,,,,,,,,,3,,,60,0
32813,note_on,,6,0,1,,,,,,,,,,,,,,,3,,,57,0
32820,note_on,,7,0,1,,,,,,,,,,,,,,,3,,,45,127
32843,note_on,,23,0,1,,,,,,,,,,,,,,,3,,,45,0
32850,note_on,,7,0,1,,,,,,,,,,,,,,,3,,,68,127
32850,note_on,,0,0,1,,,,,,,,,,,,,,,3,,,59,127
32873,note_on,,23,0,1,,,,,,,,,,,,,,,3,,,68,0
32873,note_on,,0,0,1,,,,,,,,,,,,,,,3,,,59,0
32880,note_on,,0,0,1,,,,,,,,,,,,,,,3,,,60,127
32880,note_on,,7,0,1,,,,,,,,,,,,,,,3,,,69,127
32903,note_on,,0,0,1,,,,,,,,,,,,,,,3,,,60,0
32903,note_on,,23,0,1,,,,,,,,,,,,,,,3,,,69,0
32910,note_on,,7,0,1,,,,,,,,,,,,,,,3,,,72,127
32910,note_on,,0,0,1,,,,,,,,,,,,,,,3,,,64,127
32933,note_on,,23,0,1,,,,,,,,,,,,,,,3,,,72,0
32933,note_on,,0,0,1,,,,,,,,,,,,,,,3,,,64,0
32940,note_on,,7,0,1,,,,,,,,,,,,,,,3,,,71,127
32940,note_on,,0,0,1,,,,,,,,,,,,,,,3,,,56,127
32963,note_on,,23,0,1,,,,,,,,,,,,,,,3,,,71,0
32963,note_on,,0,0,1,,,,,,,,,,,,,,,3,,,56,0
32970,note_on,,7,0,1,,,,,,,,,,,,,,,3,,,74,127
32970,note_on,,0,0,1,,,,,,,,,,,,,,,3,,,59,127
32993,note_on,,23,0,1,,,,,,,,,,,,,,,3,,,74,0
32993,note_on,,0,0,1,,,,,,,,,,,,,,,3,,,59,0
33000,note_on,,0,0,1,,,,,,,,,,,,,,,3,,,64,127
33000,note_on,,0,0,1,,,,,,,,,,,,,,,3,,,57,127
33000,note_on,,7,0,1,,,,,,,,,,,,,,,3,,,72,127
33030,note_on,,30,0,1,,,,,,,,,,,,,,,3,,,57,127
33047,note_on,,0,0,1,,,,,,,,,,,,,,,3,,,57,0
33047,note_on,,17,0,1,,,,,,,,,,,,,,,3,,,72,0
33047,note_on,,0,0,1,,,,,,,,,,,,,,,3,,,64,0
33053,note_on,,6,0,1,,,,,,,,,,,,,,,3,,,57,0
33060,note_on,,7,0,1,,,,,,,,,,,,,,,3,,,45,127
33083,note_on,,23,0,1,,,,,,,,,,,,,,,3,,,45,0
33090,note_on,,7,0,1,,,,,,,,,,,,,,,3,,,71,127
33090,note_on,,0,0,1,,,,,,,,,,,,,,,3,,,56,127
33113,note_on,,0,0,1,,,,,,,,,,,,,,,3,,,56,0
33113,note_on,,23,0,1,,,,,,,,,,,,,,,3,,,71,0
33120,note_on,,7,0,1,,,,,,,,,,,,,,,3,,,72,127
33120,note_on,,0,0,1,,,,,,,,,,,,,,,3,,,57,127
33143,note_on,,23,0,1,,,,,,,,,,,,,,,3,,,72,0
33143,note_on,,0,0,1,,,,,,,,,,,,,,,3,,,57,0
33150,note_on,,0,0,1,,,,,,,,,,,,,,,3,,,60,127
33150,note_on,,7,0,1,,,,,,,,,,,,,,,3,,,76,127
33173,note_on,,0,0,1,,,,,,,,,,,,,,,3,,,60,0
33173,note_on,,23,0,1,,,,,,,,,,,,,,,3,,,76,0
33180,note_on,,7,0,1,,,,,,,,,,,,,,,3,,,74,127
33180,note_on,,0,0,1,,,,,,,,,,,,,,,3,,,59,127
33203,note_on,,0,0,1,,,,,,,,,,,,,,,3,,,59,0
33203,note_on,,23,0,1,,,,,,,,,,,,,,,3,,,74,0
33210,note_on,,7,0,1,,,,,,,,,,,,,,,3,,,77,127
33210,note_on,,0,0,1,,,,,,,,,,,,,,,3,,,62,127
33233,note_on,,23,0,1,,,,,,,,,,,,,,,3,,,77,0
33233,note_on,,0,0,1,,,,,,,,,,,,,,,3,,,62,0
33240,note_on,,0,0,1,,,,,,,,,,,,,,,3,,,60,127
33240,note_on,,7,0,1,,,,,,,,,,,,,,,3,,,76,127
33263,note_on,,23,0,1,,,,,,,,,,,,,,,3,,,76,0
33263,note_on,,0,0,1,,,,,,,,,,,,,,,3,,,60,0
33270,note_on,,0,0,1,,,,,,,,,,,,,,,3,,,64,127
33270,note_on,,7,0,1,,,,,,,,,,,,,,,3,,,79,127
33293,note_on,,0,0,1,,,,,,,,,,,,,,,3,,,64,0
33293,note_on,,23,0,1,,,,,,,,,,,,,,,3,,,79,0
33300,note_on,,0,0,1,,,,,,,,,,,,,,,3,,,62,127
33300,note_on,,7,0,1,,,,,,,,,,,,,,,3,,,77,127
33300,note_on,,0,0,1,,,,,,,,,,,,,,,3,,,57,127
33323,note_on,,23,0,1,,,,,,,,,,,,,,,3,,,77,0
33323,note_on,,0,0,1,,,,,,,,,,,,,,,3,,,62,0
33330,note_on,,7,0,1,,,,,,,,,,,,,,,3,,,81,127
33330,note_on,,0,0,1,,,,,,,,,,,,,,,3,,,65,127
33347,note_on,,17,0,1,,,,,,,,,,,,,,,3,,,57,0
33353,note_on,,6,0,1,,,,,,,,,,,,,,,3,,,81,0
33353,note_on,,0,0,1,,,,,,,,,,,,,,,3,,,65,0
33360,note_on,,7,0,1,,,,,,,,,,,,,,,3,,,79,127
33360,note_on,,0,0,1,,,,,,,,,,,,,,,3,,,64,127
33360,note_on,,0,0,1,,,,,,,,,,,,,,,3,,,52,127
33383,note_on,,23,0,1,,,,,,,,,,,,,,,3,,,79,0
33383,note_on,,0,0,1,,,,,,,,,,,,,,,3,,,64,0
33390,note_on,,7,0,1,,,,,,,,,,,,,,,3,,,81,127
33390,note_on,,0,0,1,,,,,,,,,,,,,,,3,,,65,127
33407,note_on,,17,0,1,,,,,,,,,,,,,,,3,,,52,0
33413,note_on,,0,0,1,,,,,,,,,,,,,,,3,,,65,0
33413,note_on,,6,0,1,,,,,,,,,,,,,,,3,,,81,0
33420,note_on,,0,0,1,,,,,,,,,,,,,,,3,,,53,127
33420,note_on,,7,0,1,,,,,,,,,,,,,,,3,,,77,127
33420,note_on,,0,0,1,,,,,,,,,,,,,,,3,,,62,127
33443,note_on,,23,0,1,,,,,,,,,,,,,,,3,,,77,0
33443,note_on,,0,0,1,,,,,,,,,,,,,,,3,,,62,0
33450,note_on,,7,0,1,,,,,,,,,,,,,,,3,,,76,127
33450,note_on,,0,0,1,,,,,,,,,,,,,,,3,,,60,127
33467,note_on,,17,0,1,,,,,,,,,,,,,,,3,,,53,0
33473,note_on,,6,0,1,,,,,,,,,,,,,,,3,,,76,0
33473,note_on,,0,0,1,,,,,,,,,,,,,,,3,,,60,0
33480,note_on,,0,0,1,,,,,,,,,,,,,,,3,,,59,127
33480,note_on,,0,0,1,,,,,,,,,,,,,,,3,,,67,127
33480,note_on,,7,0,1,,,,,,,,,,,,,,,3,,,74,127
33510,note_on,,30,0,1,,,,,,,,,,,,,,,3,,,55,127
33527,note_on,,17,0,1,,,,,,,,,,,,,,,3,,,74,0
33527,note_on,,0,0,1,,,,,,,,,,,,,,,3,,,67,0
33527,note_on,,0,0,1,,,,,,,,,,,,,,,3,,,59,0
33533,note_on,,6,0,1,,,,,,,,,,,,,,,3,,,55,0
33540,note_on,,7,0,1,,,,,,,,,,,,,,,3,,,43,127
33563,note_on,,23,0,1,,,,,,,,,,,,,,,3,,,43,0
33570,note_on,,0,0,1,,,,,,,,,,,,,,,3,,,57,127
33570,note_on,,7,0,1,,,,,,,,,,,,,,,3,,,66,127
33593,note_on,,23,0,1,,,,,,,,,,,,,,,3,,,66,0
33593,note_on,,0,0,1,,,,,,,,,,,,,,,3,,,57,0
33600,note_on,,7,0,1,,,,,,,,,,,,,,,3,,,67,127
33600,note_on,,0,0,1,,,,,,,,,,,,,,,3,,,59,127
33623,note_on,,23,0,1,,,,,,,,,,,,,,,3,,,67,0
33623,note_on,,0,0,1,,,,,,,,,,,,,,,3,,,59,0
33630,note_on,,7,0,1,,,,,,,,,,,,,,,3,,,71,127
33630,note_on,,0,0,1,,,,,,,,,,,,,,,3,,,62,127
33653,note_on,,23,0,1,,,,,,,,,,,,,,,3,,,71,0
33653,note_on,,0,0,1,,,,,,,,,,,,,,,3,,,62,0
33660,note_on,,0,0,1,,,,,,,,,,,,,,,3,,,54,127
33660,note_on,,7,0,1,,,,,,,,,,,,,,,3,,,69,127
33683,note_on,,0,0,1,,,,,,,,,,,,,,,3,,,54,0
33683,note_on,,23,0,1,,,,,,,,,,,,,,,3,,,69,0
33690,note_on,,7,0,1,,,,,,,,,,,,,,,3,,,72,127
33690,note_on,,0,0,1,,,,,,,,,,,,,,,3,,,57,127
33713,note_on,,23,0,1,,,,,,,,,,,,,,,3,,,72,0
33713,note_on,,0,0,1,,,,,,,,,,,,,,,3,,,57,0
33720,note_on,,7,0,1,,,,,,,,,,,,,,,3,,,71,127
33720,note_on,,0,0,1,,,,,,,,,,,,,,,3,,,55,127
33750,note_on,,30,0,1,,,,,,,,,,,,,,,3,,,55,127
33767,note_on,,0,0,1,,,,,,,,,,,,,,,3,,,55,0
33767,note_on,,17,0,1,,,,,,,,,,,,,,,3,,,71,0
33773,note_on,,6,0,1,,,,,,,,,,,,,,,3,,,55,0
33780,note_on,,7,0,1,,,,,,,,,,,,,,,3,,,43,127
33803,note_on,,23,0,1,,,,,,,,,,,,,,,3,,,43,0
33810,note_on,,7,0,1,,,,,,,,,,,,,,,3,,,69,127
33810,note_on,,0,0,1,,,,,,,,,,,,,,,3,,,62,127
33810,note_on,,0,0,1,,,,,,,,,,,,,,,3,,,54,127
33833,note_on,,23,0,1,,,,,,,,,,,,,,,3,,,69,0
33833,note_on,,0,0,1,,,,,,,,,,,,,,,3,,,62,0
33833,note_on,,0,0,1,,,,,,,,,,,,,,,3,,,54,0
33840,note_on,,0,0,1,,,,,,,,,,,,,,,3,,,55,127
33840,note_on,,0,0,1,,,,,,,,,,,,,,,3,,,62,127
33840,note_on,,7,0,1,,,,,,,,,,,,,,,3,,,71,127
33863,note_on,,23,0,1,,,,,,,,,,,,,,,3,,,62,0
33863,note_on,,0,0,1,,,,,,,,,,,,,,,3,,,55,0
33870,note_on,,7,0,1,,,,,,,,,,,,,,,3,,,67,127
33870,note_on,,0,0,1,,,,,,,,,,,,,,,3,,,59,127
33887,note_on,,17,0,1,,,,,,,,,,,,,,,3,,,71,0
33893,note_on,,6,0,1,,,,,,,,,,,,,,,3,,,67,0
33893,note_on,,0,0,1,,,,,,,,,,,,,,,3,,,59,0
33900,note_on,,7,0,1,,,,,,,,,,,,,,,3,,,72,127
33900,note_on,,0,0,1,,,,,,,,,,,,,,,3,,,57,127
33900,note_on,,0,0,1,,,,,,,,,,,,,,,3,,,66,127
33923,note_on,,0,0,1,,,,,,,,,,,,,,,3,,,57,0
33923,note_on,,23,0,1,,,,,,,,,,,,,,,3,,,66,0
33930,note_on,,7,0,1,,,,,,,,,,,,,,,3,,,69,127
33930,note_on,,0,0,1,,,,,,,,,,,,,,,3,,,60,127
33947,note_on,,17,0,1,,,,,,,,,,,,,,,3,,,72,0
33953,note_on,,6,0,1,,,,,,,,,,,,,,,3,,,69,0
33953,note_on,,0,0,1,,,,,,,,,,,,,,,3,,,60,0
33960,note_on,,0,0,1,,,,,,,,,,,,,,,3,,,67,127
33960,note_on,,0,0,1,,,,,,,,,,,,,,,3,,,59,127
33960,note_on,,7,0,1,,,,,,,,,,,,,,,3,,,74,127
33990,note_on,,30,0,1,,,,,,,,,,,,,,,3,,,55,127
34007,note_on,,17,0,1,,,,,,,,,,,,,,,3,,,74,0
34007,note_on,,0,0,1,,,,,,,,,,,,,,,3,,,67,0
34007,note_on,,0,0,1,,,,,,,,,,,,,,,3,,,59,0
34013,note_on,,6,0,1,,,,,,,,,,,,,,,3,,,55,0
34020,note_on,,7,0,1,,,,,,,,,,,,,,,3,,,43,127
34043,note_on,,23,0,1,,,,,,,,,,,,,,,3,,,43,0
34050,note_on,,7,0,1,,,,,,,,,,,,,,,3,,,55,127
34073,note_on,,23,0,1,,,,,,,,,,,,,,,3,,,55,0
34080,note_on,,7,0,1,,,,,,,,,,,,,,,3,,,52,127
34103,note_on,,23,0,1,,,,,,,,,,,,,,,3,,,52,0
34110,note_on,,7,0,1,,,,,,,,,,,,,,,3,,,53,127
34133,note_on,,23,0,1,,,,,,,,,,,,,,,3,,,53,0
34140,note_on,,7,0,1,,,,,,,,,,,,,,,3,,,50,127
34163,note_on,,23,0,1,,,,,,,,,,,,,,,3,,,50,0
34170,note_on,,7,0,1,,,,,,,,,,,,,,,3,,,52,127
34193,note_on,,23,0,1,,,,,,,,,,,,,,,3,,,52,0
34200,note_on,,7,0,1,,,,,,,,,,,,,,,3,,,49,127
34223,note_on,,23,0,1,,,,,,,,,,,,,,,3,,,49,0
34230,note_on,,7,0,1,,,,,,,,,,,,,,,3,,,50,127
34253,note_on,,23,0,1,,,,,,,,,,,,,,,3,,,50,0
34260,note_on,,7,0,1,,,,,,,,,,,,,,,3,,,76,127
34260,note_on,,0,0,1,,,,,,,,,,,,,,,3,,,79,127
34260,note_on,,0,0,1,,,,,,,,,,,,,,,3,,,69,127
34260,note_on,,0,0,1,,,,,,,,,,,,,,,3,,,64,127
34260,note_on,,0,0,1,,,,,,,,,,,,,,,3,,,57,127
34260,note_on,,0,0,1,,,,,,,,,,,,,,,3,,,47,127
34283,note_on,,23,0,1,,,,,,,,,,,,,,,3,,,47,0
34290,note_on,,7,0,1,,,,,,,,,,,,,,,3,,,50,127
34307,note_on,,0,0,1,,,,,,,,,,,,,,,3,,,64,0
34307,note_on,,0,0,1,,,,,,,,,,,,,,,3,,,57,0
34307,note_on,,0,0,1,,,,,,,,,,,,,,,3,,,69,0
34307,note_on,,17,0,1,,,,,,,,,,,,,,,3,,,76,0
34307,note_on,,0,0,1,,,,,,,,,,,,,,,3,,,79,0
34313,note_on,,6,0,1,,,,,,,,,,,,,,,3,,,50,0
34320,note_on,,7,0,1,,,,,,,,,,,,,,,3,,,76,127
34320,note_on,,0,0,1,,,,,,,,,,,,,,,3,,,79,127
34320,note_on,,0,0,1,,,,,,,,,,,,,,,3,,,69,127
34320,note_on,,0,0,1,,,,,,,,,,,,,,,3,,,64,127
34320,note_on,,0,0,1,,,,,,,,,,,,,,,3,,,57,127
34320,note_on,,0,0,1,,,,,,,,,,,,,,,3,,,49,127
34343,note_on,,23,0,1,,,,,,,,,,,,,,,3,,,49,0
34350,note_on,,7,0,1,,,,,,,,,,,,,,,3,,,50,127
34373,note_on,,23,0,1,,,,,,,,,,,,,,,3,,,50,0
34380,note_on,,7,0,1,,,,,,,,,,,,,,,3,,,47,127
34390,note_on,,10,0,1,,,,,,,,,,,,,,,3,,,76,0
34390,note_on,,0,0,1,,,,,,,,,,,,,,,3,,,79,0
34390,note_on,,0,0,1,,,,,,,,,,,,,,,3,,,69,0
34390,note_on,,0,0,1,,,,,,,,,,,,,,,3,,,64,0
34390,note_on,,0,0,1,,,,,,,,,,,,,,,3,,,57,0
34403,note_on,,13,0,1,,,,,,,,,,,,,,,3,,,47,0
34410,note_on,,0,0,1,,,,,,,,,,,,,,,3,,,49,127
34410,note_on,,0,0,1,,,,,,,,,,,,,,,3,,,57,127
34410,note_on,,0,0,1,,,,,,,,,,,,,,,3,,,64,127
34410,note_on,,0,0,1,,,,,,,,,,,,,,,3,,,69,127
34410,note_on,,7,0,1,,,,,,,,,,,,,,,3,,,76,127
34410,note_on,,0,0,1,,,,,,,,,,,,,,,3,,,79,127
34433,note_on,,23,0,1,,,,,,,,,,,,,,,3,,,76,0
34433,note_on,,0,0,1,,,,,,,,,,,,,,,3,,,79,0
34433,note_on,,0,0,1,,,,,,,,,,,,,,,3,,,69,0
34433,note_on,,0,0,1,,,,,,,,,,,,,,,3,,,64,0
34433,note_on,,0,0,1,,,,,,,,,,,,,,,3,,,57,0
34433,note_on,,0,0,1,,,,,,,,,,,,,,,3,,,49,0
34440,note_on,,0,0,1,,,,,,,,,,,,,,,3,,,50,127
34440,note_on,,0,0,1,,,,,,,,,,,,,,,3,,,62,127
34440,note_on,,0,0,1,,,,,,,,,,,,,,,3,,,65,127
34440,note_on,,0,0,1,,,,,,,,,,,,,,,3,,,69,127
34440,note_on,,7,0,1,,,,,,,,,,,,,,,3,,,74,127
34440,note_on,,0,0,1,,,,,,,,,,,,,,,3,,,77,127
34463,note_on,,23,0,1,,,,,,,,,,,,,,,3,,,50,0
34470,note_on,,7,0,1,,,,,,,,,,,,,,,3,,,53,127
34487,note_on,,0,0,1,,,,,,,,,,,,,,,3,,,62,0
34487,note_on,,17,0,1,,,,,,,,,,,,,,,3,,,74,0
34487,note_on,,0,0,1,,,,,,,,,,,,,,,3,,,77,0
34487,note_on,,0,0,1,,,,,,,,,,,,,,,3,,,69,0
34487,note_on,,0,0,1,,,,,,,,,,,,,,,3,,,65,0
34493,note_on,,6,0,1,,,,,,,,,,,,,,,3,,,53,0
34500,note_on,,7,0,1,,,,,,,,,,,,,,,3,,,52,127
34523,note_on,,23,0,1,,,,,,,,,,,,,,,3,,,52,0
34530,note_on,,7,0,1,,,,,,,,,,,,,,,3,,,53,127
34553,note_on,,23,0,1,,,,,,,,,,,,,,,3,,,53,0
34560,note_on,,7,0,1,,,,,,,,,,,,,,,3,,,50,127
34583,note_on,,23,0,1,,,,,,,,,,,,,,,3,,,50,0
34590,note_on,,7,0,1,,,,,,,,,,,,,,,3,,,52,127
34613,note_on,,23,0,1,,,,,,,,,,,,,,,3,,,52,0
34620,note_on,,7,0,1,,,,,,,,,,,,,,,3,,,48,127
34643,note_on,,23,0,1,,,,,,,,,,,,,,,3,,,48,0
34650,note_on,,7,0,1,,,,,,,,,,,,,,,3,,,50,127
34673,note_on,,23,0,1,,,,,,,,,,,,,,,3,,,50,0
34680,note_on,,7,0,1,,,,,,,,,,,,,,,3,,,47,127
34703,note_on,,23,0,1,,,,,,,,,,,,,,,3,,,47,0
34710,note_on,,7,0,1,,,,,,,,,,,,,,,3,,,50,127
34733,note_on,,23,0,1,,,,,,,,,,,,,,,3,,,50,0
34740,note_on,,0,0,1,,,,,,,,,,,,,,,3,,,48,127
34740,note_on,,0,0,1,,,,,,,,,,,,,,,3,,,62,127
34740,note_on,,0,0,1,,,,,,,,,,,,,,,3,,,55,127
34740,note_on,,0,0,1,,,,,,,,,,,,,,,3,,,77,127
34740,note_on,,7,0,1,,,,,,,,,,,,,,,3,,,74,127
34740,note_on,,0,0,1,,,,,,,,,,,,,,,3,,,67,127
34763,note_on,,23,0,1,,,,,,,,,,,,,,,3,,,48,0
34770,note_on,,7,0,1,,,,,,,,,,,,,,,3,,,50,127
34787,note_on,,17,0,1,,,,,,,,,,,,,,,3,,,74,0
34787,note_on,,0,0,1,,,,,,,,,,,,,,,3,,,77,0
34787,note_on,,0,0,1,,,,,,,,,,,,,,,3,,,67,0
34787,note_on,,0,0,1,,,,,,,,,,,,,,,3,,,62,0
34787,note_on,,0,0,1,,,,,,,,,,,,,,,3,,,55,0
34793,note_on,,6,0,1,,,,,,,,,,,,,,,3,,,50,0
34800,note_on,,0,0,1,,,,,,,,,,,,,,,3,,,47,127
34800,note_on,,0,0,1,,,,,,,,,,,,,,,3,,,55,127
34800,note_on,,0,0,1,,,,,,,,,,,,,,,3,,,62,127
34800,note_on,,7,0,1,,,,,,,,,,,,,,,3,,,74,127
34800,note_on,,0,0,1,,,,,,,,,,,,,,,3,,,77,127
34800,note_on,,0,0,1,,,,,,,,,,,,,,,3,,,67,127
34823,note_on,,23,0,1,,,,,,,,,,,,,,,3,,,47,0
34830,note_on,,7,0,1,,,,,,,,,,,,,,,3,,,48,127
34853,note_on,,23,0,1,,,,,,,,,,,,,,,3,,,48,0
34860,note_on,,7,0,1,,,,,,,,,,,,,,,3,,,45,127
34870,note_on,,0,0,1,,,,,,,,,,,,,,,3,,,62,0
34870,note_on,,0,0,1,,,,,,,,,,,,,,,3,,,55,0
34870,note_on,,0,0,1,,,,,,,,,,,,,,,3,,,67,0
34870,note_on,,10,0,1,,,,,,,,,,,,,,,3,,,74,0
34870,note_on,,0,0,1,,,,,,,,,,,,,,,3,,,77,0
34883,note_on,,13,0,1,,,,,,,,,,,,,,,3,,,45,0
34890,note_on,,0,0,1,,,,,,,,,,,,,,,3,,,55,127
34890,note_on,,0,0,1,,,,,,,,,,,,,,,3,,,62,127
34890,note_on,,0,0,1,,,,,,,,,,,,,,,3,,,47,127
34890,note_on,,0,0,1,,,,,,,,,,,,,,,3,,,77,127
34890,note_on,,7,0,1,,,,,,,,,,,,,,,3,,,74,127
34890,note_on,,0,0,1,,,,,,,,,,,,,,,3,,,67,127
34913,note_on,,23,0,1,,,,,,,,,,,,,,,3,,,74,0
34913,note_on,,0,0,1,,,,,,,,,,,,,,,3,,,77,0
34913,note_on,,0,0,1,,,,,,,,,,,,,,,3,,,67,0
34913,note_on,,0,0,1,,,,,,,,,,,,,,,3,,,62,0
34913,note_on,,0,0,1,,,,,,,,,,,,,,,3,,,55,0
34913,note_on,,0,0,1,,,,,,,,,,,,,,,3,,,47,0
34920,note_on,,0,0,1,,,,,,,,,,,,,,,3,,,60,127
34920,note_on,,0,0,1,,,,,,,,,,,,,,,3,,,48,127
34920,note_on,,0,0,1,,,,,,,,,,,,,,,3,,,64,127
34920,note_on,,7,0,1,,,,,,,,,,,,,,,3,,,72,127
34920,note_on,,0,0,1,,,,,,,,,,,,,,,3,,,76,127
34920,note_on,,0,0,1,,,,,,,,,,,,,,,3,,,67,127
34943,note_on,,23,0,1,,,,,,,,,,,,,,,3,,,48,0
34950,note_on,,7,0,1,,,,,,,,,,,,,,,3,,,52,127
34967,note_on,,17,0,1,,,,,,,,,,,,,,,3,,,72,0
34967,note_on,,0,0,1,,,,,,,,,,,,,,,3,,,76,0
34967,note_on,,0,0,1,,,,,,,,,,,,,,,3,,,67,0
34967,note_on,,0,0,1,,,,,,,,,,,,,,,3,,,64,0
34967,note_on,,0,0,1,,,,,,,,,,,,,,,3,,,60,0
34973,note_on,,6,0,1,,,,,,,,,,,,,,,3,,,52,0
34980,note_on,,7,0,1,,,,,,,,,,,,,,,3,,,50,127
35003,note_on,,23,0,1,,,,,,,,,,,,,,,3,,,50,0
35010,note_on,,7,0,1,,,,,,,,,,,,,,,3,,,52,127
35033,note_on,,23,0,1,,,,,,,,,,,,,,,3,,,52,0
35040,note_on,,7,0,1,,,,,,,,,,,,,,,3,,,48,127
35063,note_on,,23,0,1,,,,,,,,,,,,,,,3,,,48,0
35070,note_on,,7,0,1,,,,,,,,,,,,,,,3,,,50,127
35093,note_on,,23,0,1,,,,,,,,,,,,,,,3,,,50,0
35100,note_on,,0,0,1,,,,,,,,,,,,,,,3,,,47,127
35100,note_on,,0,0,1,,,,,,,,,,,,,,,3,,,60,127
35100,note_on,,0,0,1,,,,,,,,,,,,,,,3,,,67,127
35100,note_on,,0,0,1,,,,,,,,,,,,,,,3,,,76,127
35100,note_on,,7,0,1,,,,,,,,,,,,,,,3,,,72,127
35123,note_on,,23,0,1,,,,,,,,,,,,,,,3,,,47,0
35130,set_tempo,,20147,1,0,,,,,,,,1090909,,,,,,,,,,,
35130,note_on,,7,0,1,,,,,,,,,,,,,,,3,,,48,127
35143,set_tempo,,13,1,0,,,,,,,,1052631,,,,,,,,,,,
35147,note_on,,0,0,1,,,,,,,,,,,,,,,3,,,60,0
35147,note_on,,17,0,1,,,,,,,,,,,,,,,3,,,72,0
35147,note_on,,0,0,1,,,,,,,,,,,,,,,3,,,76,0
35147,note_on,,0,0,1,,,,,,,,,,,,,,,3,,,67,0
35150,set_tempo,,7,1,0,,,,,,,,1090909,,,,,,,,,,,
35153,note_on,,6,0,1,,,,,,,,,,,,,,,3,,,48,0
35156,set_tempo,,6,1,0,,,,,,,,1071428,,,,,,,,,,,
35160,note_on,,7,0,1,,,,,,,,,,,,,,,3,,,77,127
35160,note_on,,0,0,1,,,,,,,,,,,,,,,3,,,72,127
35160,note_on,,0,0,1,,,,,,,,,,,,,,,3,,,65,127
35160,note_on,,0,0,1,,,,,,,,,,,,,,,3,,,60,127
35160,note_on,,0,0,1,,,,,,,,,,,,,,,3,,,45,127
35170,set_tempo,,14,1,0,,,,,,,,1052631,,,,,,,,,,,
35183,note_on,,23,0,1,,,,,,,,,,,,,,,3,,,45,0
35190,note_on,,7,0,1,,,,,,,,,,,,,,,3,,,57,127
35207,note_on,,0,0,1,,,,,,,,,,,,,,,3,,,60,0
35207,note_on,,0,0,1,,,,,,,,,,,,,,,3,,,65,0
35207,note_on,,0,0,1,,,,,,,,,,,,,,,3,,,72,0
35207,note_on,,17,0,1,,,,,,,,,,,,,,,3,,,77,0
35213,note_on,,6,0,1,,,,,,,,,,,,,,,3,,,57,0
35220,note_on,,0,0,1,,,,,,,,,,,,,,,3,,,71,127
35220,note_on,,0,0,1,,,,,,,,,,,,,,,3,,,67,127
35220,note_on,,0,0,1,,,,,,,,,,,,,,,3,,,64,127
35220,note_on,,0,0,1,,,,,,,,,,,,,,,3,,,55,127
35220,note_on,,7,0,1,,,,,,,,,,,,,,,3,,,76,127
35223,set_tempo,,53,1,0,,,,,,,,1016949,,,,,,,,,,,
35243,note_on,,23,0,1,,,,,,,,,,,,,,,3,,,55,0
35243,set_tempo,,20,1,0,,,,,,,,1052631,,,,,,,,,,,
35250,note_on,,7,0,1,,,,,,,,,,,,,,,3,,,57,127
35267,note_on,,17,0,1,,,,,,,,,,,,,,,3,,,76,0
35267,note_on,,0,0,1,,,,,,,,,,,,,,,3,,,71,0
35267,note_on,,0,0,1,,,,,,,,,,,,,,,3,,,67,0
35267,note_on,,0,0,1,,,,,,,,,,,,,,,3,,,64,0
35273,note_on,,6,0,1,,,,,,,,,,,,,,,3,,,57,0
35280,note_on,,0,0,1,,,,,,,,,,,,,,,3,,,57,127
35280,note_on,,0,0,1,,,,,,,,,,,,,,,3,,,53,127
35280,note_on,,7,0,1,,,,,,,,,,,,,,,3,,,74,127
35280,note_on,,0,0,1,,,,,,,,,,,,,,,3,,,62,127
35280,note_on,,0,0,1,,,,,,,,,,,,,,,3,,,69,127
35290,set_tempo,,47,1,0,,,,,,,,1016949,,,,,,,,,,,
35296,set_tempo,,6,1,0,,,,,,,,1052631,,,,,,,,,,,
35303,note_on,,23,0,1,,,,,,,,,,,,,,,3,,,53,0
35310,note_on,,7,0,1,,,,,,,,,,,,,,,3,,,55,127
35327,note_on,,0,0,1,,,,,,,,,,,,,,,3,,,62,0
35327,note_on,,0,0,1,,,,,,,,,,,,,,,3,,,69,0
35327,note_on,,17,0,1,,,,,,,,,,,,,,,3,,,74,0
35327,note_on,,0,0,1,,,,,,,,,,,,,,,3,,,57,0
35333,note_on,,6,0,1,,,,,,,,,,,,,,,3,,,55,0
35340,note_on,,0,0,1,,,,,,,,,,,,,,,3,,,52,127
35340,note_on,,0,0,1,,,,,,,,,,,,,,,3,,,60,127
35340,note_on,,0,0,1,,,,,,,,,,,,,,,3,,,64,127
35340,note_on,,0,0,1,,,,,,,,,,,,,,,3,,,67,127
35340,note_on,,7,0,1,,,,,,,,,,,,,,,3,,,72,127
35363,note_on,,23,0,1,,,,,,,,,,,,,,,3,,,52,0
35370,set_tempo,,74,1,0,,,,,,,,1016949,,,,,,,,,,,
35370,note_on,,7,0,1,,,,,,,,,,,,,,,3,,,53,127
35387,note_on,,0,0,1,,,,,,,,,,,,,,,3,,,60,0
35387,note_on,,0,0,1,,,,,,,,,,,,,,,3,,,64,0
35387,note_on,,0,0,1,,,,,,,,,,,,,,,3,,,67,0
35387,note_on,,17,0,1,,,,,,,,,,,,,,,3,,,72,0
35390,set_tempo,,20,1,0,,,,,,,,1052631,,,,,,,,,,,
35393,note_on,,6,0,1,,,,,,,,,,,,,,,3,,,53,0
35400,note_on,,0,0,1,,,,,,,,,,,,,,,3,,,50,127
35400,note_on,,7,0,1,,,,,,,,,,,,,,,3,,,77,127
35400,note_on,,0,0,1,,,,,,,,,,,,,,,3,,,71,127
35400,note_on,,0,0,1,,,,,,,,,,,,,,,3,,,65,127
35400,note_on,,0,0,1,,,,,,,,,,,,,,,3,,,62,127
35423,note_on,,23,0,1,,,,,,,,,,,,,,,3,,,50,0
35430,note_on,,7,0,1,,,,,,,,,,,,,,,3,,,52,127
35443,set_tempo,,53,1,0,,,,,,,,1016949,,,,,,,,,,,
35447,note_on,,0,0,1,,,,,,,,,,,,,,,3,,,65,0
35447,note_on,,17,0,1,,,,,,,,,,,,,,,3,,,77,0
35447,note_on,,0,0,1,,,,,,,,,,,,,,,3,,,62,0
35447,note_on,,0,0,1,,,,,,,,,,,,,,,3,,,71,0
35453,note_on,,6,0,1,,,,,,,,,,,,,,,3,,,52,0
35460,note_on,,0,0,1,,,,,,,,,,,,,,,3,,,48,127
35460,note_on,,0,0,1,,,,,,,,,,,,,,,3,,,64,127
35460,note_on,,0,0,1,,,,,,,,,,,,,,,3,,,67,127
35460,set_tempo,,17,1,0,,,,,,,,1052631,,,,,,,,,,,
35460,note_on,,7,0,1,,,,,,,,,,,,,,,3,,,76,127
35460,note_on,,0,0,1,,,,,,,,,,,,,,,3,,,72,127
35483,note_on,,23,0,1,,,,,,,,,,,,,,,3,,,48,0
35490,note_on,,7,0,1,,,,,,,,,,,,,,,3,,,50,127
35503,set_tempo,,43,1,0,,,,,,,,1016949,,,,,,,,,,,
35507,note_on,,0,0,1,,,,,,,,,,,,,,,3,,,64,0
35507,note_on,,0,0,1,,,,,,,,,,,,,,,3,,,72,0
35507,note_on,,17,0,1,,,,,,,,,,,,,,,3,,,76,0
35507,note_on,,0,0,1,,,,,,,,,,,,,,,3,,,67,0
35510,set_tempo,,7,1,0,,,,,,,,1052631,,,,,,,,,,,
35513,note_on,,6,0,1,,,,,,,,,,,,,,,3,,,50,0
35516,set_tempo,,6,1,0,,,,,,,,1016949,,,,,,,,,,,
35520,note_on,,0,0,1,,,,,,,,,,,,,,,3,,,47,127
35520,note_on,,0,0,1,,,,,,,,,,,,,,,3,,,59,127
35520,note_on,,0,0,1,,,,,,,,,,,,,,,3,,,62,127
35520,note_on,,0,0,1,,,,,,,,,,,,,,,3,,,67,127
35520,note_on,,7,0,1,,,,,,,,,,,,,,,3,,,74,127
35533,set_tempo,,17,1,0,,,,,,,,1052631,,,,,,,,,,,
35543,note_on,,23,0,1,,,,,,,,,,,,,,,3,,,47,0
35550,note_on,,7,0,1,,,,,,,,,,,,,,,3,,,48,127
35550,set_tempo,,17,1,0,,,,,,,,1090909,,,,,,,,,,,
35563,set_tempo,,13,1,0,,,,,,,,1071428,,,,,,,,,,,
35567,note_on,,0,0,1,,,,,,,,,,,,,,,3,,,67,0
35567,note_on,,17,0,1,,,,,,,,,,,,,,,3,,,74,0
35567,note_on,,0,0,1,,,,,,,,,,,,,,,3,,,62,0
35567,note_on,,0,0,1,,,,,,,,,,,,,,,3,,,59,0
35570,set_tempo,,7,1,0,,,,,,,,1052631,,,,,,,,,,,
35573,note_on,,6,0,1,,,,,,,,,,,,,,,3,,,48,0
35580,note_on,,7,0,1,,,,,,,,,,,,,,,3,,,72,127
35580,note_on,,0,0,1,,,,,,,,,,,,,,,3,,,69,127
35580,set_tempo,,10,1,0,,,,,,,,1071428,,,,,,,,,,,
35580,note_on,,0,0,1,,,,,,,,,,,,,,,3,,,65,127
35580,note_on,,0,0,1,,,,,,,,,,,,,,,3,,,60,127
35580,note_on,,0,0,1,,,,,,,,,,,,,,,3,,,45,127
35593,set_tempo,,13,1,0,,,,,,,,1052631,,,,,,,,,,,
35603,note_on,,23,0,1,,,,,,,,,,,,,,,3,,,45,0
35610,note_on,,7,0,1,,,,,,,,,,,,,,,3,,,47,127
35616,set_tempo,,23,1,0,,,,,,,,1071428,,,,,,,,,,,
35623,set_tempo,,7,1,0,,,,,,,,1052631,,,,,,,,,,,
35627,note_on,,17,0,1,,,,,,,,,,,,,,,3,,,72,0
35627,note_on,,0,0,1,,,,,,,,,,,,,,,3,,,69,0
35627,note_on,,0,0,1,,,,,,,,,,,,,,,3,,,65,0
35627,note_on,,0,0,1,,,,,,,,,,,,,,,3,,,60,0
35633,note_on,,6,0,1,,,,,,,,,,,,,,,3,,,47,0
35636,set_tempo,,13,1,0,,,,,,,,1090909,,,,,,,,,,,
35640,note_on,,0,0,1,,,,,,,,,,,,,,,3,,,71,127
35640,note_on,,0,0,1,,,,,,,,,,,,,,,3,,,62,127
35640,note_on,,0,0,1,,,,,,,,,,,,,,,3,,,77,127
35640,note_on,,0,0,1,,,,,,,,,,,,,,,3,,,43,127
35640,note_on,,7,0,1,,,,,,,,,,,,,,,3,,,74,127
35640,set_tempo,,4,1,0,,,,,,,,1578947,,,,,,,,,,,
35730,set_tempo,,90,1,0,,,,,,,,2400000,,,,,,,,,,,
35735,note_on,,0,0,1,,,,,,,,,,,,,,,3,,,71,0
35735,note_on,,95,0,1,,,,,,,,,,,,,,,3,,,74,0
35735,note_on,,0,0,1,,,,,,,,,,,,,,,3,,,77,0
35735,note_on,,0,0,1,,,,,,,,,,,,,,,3,,,62,0
35735,note_on,,0,0,1,,,,,,,,,,,,,,,3,,,43,0
35766,set_tempo,,36,1,0,,,,,,,,983606,,,,,,,,,,,
35790,note_on,,0,0,1,,,,,,,,,,,,,,,3,,,59,127
35790,note_on,,55,0,1,,,,,,,,,,,,,,,3,,,74,127
35813,note_on,,23,0,1,,,,,,,,,,,,,,,3,,,74,0
35813,note_on,,0,0,1,,,,,,,,,,,,,,,3,,,59,0
35820,note_on,,7,0,1,,,,,,,,,,,,,,,3,,,76,127
35820,note_on,,0,0,1,,,,,,,,,,,,,,,3,,,60,127
35843,note_on,,23,0,1,,,,,,,,,,,,,,,3,,,76,0
35843,note_on,,0,0,1,,,,,,,,,,,,,,,3,,,60,0
35850,note_on,,7,0,1,,,,,,,,,,,,,,,3,,,77,127
35850,note_on,,0,0,1,,,,,,,,,,,,,,,3,,,62,127
35873,note_on,,23,0,1,,,,,,,,,,,,,,,3,,,77,0
35873,note_on,,0,0,1,,,,,,,,,,,,,,,3,,,62,0
35880,note_on,,0,0,1,,,,,,,,,,,,,,,3,,,64,127
35880,note_on,,7,0,1,,,,,,,,,,,,,,,3,,,79,127
35910,note_on,,30,0,1,,,,,,,,,,,,,,,3,,,50,127
35927,note_on,,17,0,1,,,,,,,,,,,,,,,3,,,79,0
35927,note_on,,0,0,1,,,,,,,,,,,,,,,3,,,64,0
35933,note_on,,6,0,1,,,,,,,,,,,,,,,3,,,50,0
35940,note_on,,0,0,1,,,,,,,,,,,,,,,3,,,52,127
35940,note_on,,7,0,1,,,,,,,,,,,,,,,3,,,72,127
35940,note_on,,0,0,1,,,,,,,,,,,,,,,3,,,64,127
35963,note_on,,23,0,1,,,,,,,,,,,,,,,3,,,72,0
35963,note_on,,0,0,1,,,,,,,,,,,,,,,3,,,64,0
35963,note_on,,0,0,1,,,,,,,,,,,,,,,3,,,52,0
35970,note_on,,0,0,1,,,,,,,,,,,,,,,3,,,65,127
35970,note_on,,0,0,1,,,,,,,,,,,,,,,3,,,48,127
35970,note_on,,7,0,1,,,,,,,,,,,,,,,3,,,74,127
35993,note_on,,23,0,1,,,,,,,,,,,,,,,3,,,74,0
35993,note_on,,0,0,1,,,,,,,,,,,,,,,3,,,65,0
35993,note_on,,0,0,1,,,,,,,,,,,,,,,3,,,48,0
36000,note_on,,7,0,1,,,,,,,,,,,,,,,3,,,71,127
36000,note_on,,0,0,1,,,,,,,,,,,,,,,3,,,62,127
36000,note_on,,0,0,1,,,,,,,,,,,,,,,3,,,55,127
36023,note_on,,0,0,1,,,,,,,,,,,,,,,3,,,62,0
36023,note_on,,23,0,1,,,,,,,,,,,,,,,3,,,71,0
36030,note_on,,7,0,1,,,,,,,,,,,,,,,3,,,74,127
36030,note_on,,0,0,1,,,,,,,,,,,,,,,3,,,65,127
36047,note_on,,17,0,1,,,,,,,,,,,,,,,3,,,55,0
36053,note_on,,0,0,1,,,,,,,,,,,,,,,3,,,65,0
36053,note_on,,6,0,1,,,,,,,,,,,,,,,3,,,74,0
36060,note_on,,0,0,1,,,,,,,,,,,,,,,3,,,64,127
36060,note_on,,0,0,1,,,,,,,,,,,,,,,3,,,43,127
36060,note_on,,7,0,1,,,,,,,,,,,,,,,3,,,72,127
36083,note_on,,23,0,1,,,,,,,,,,,,,,,3,,,72,0
36083,note_on,,0,0,1,,,,,,,,,,,,,,,3,,,64,0
36090,note_on,,7,0,1,,,,,,,,,,,,,,,3,,,71,127
36090,note_on,,0,0,1,,,,,,,,,,,,,,,3,,,65,127
36090,note_on,,0,0,1,,,,,,,,,,,,,,,3,,,62,127
36107,note_on,,17,0,1,,,,,,,,,,,,,,,3,,,43,0
36113,note_on,,6,0,1,,,,,,,,,,,,,,,3,,,71,0
36113,note_on,,0,0,1,,,,,,,,,,,,,,,3,,,65,0
36113,note_on,,0,0,1,,,,,,,,,,,,,,,3,,,62,0
36120,note_on,,0,0,1,,,,,,,,,,,,,,,3,,,60,127
36120,note_on,,7,0,1,,,,,,,,,,,,,,,3,,,67,127
36120,note_on,,0,0,1,,,,,,,,,,,,,,,3,,,72,127
36120,note_on,,0,0,1,,,,,,,,,,,,,,,3,,,64,127
36150,note_on,,30,0,1,,,,,,,,,,,,,,,3,,,48,127
36167,note_on,,0,0,1,,,,,,,,,,,,,,,3,,,72,0
36167,note_on,,0,0,1,,,,,,,,,,,,,,,3,,,60,0
36167,note_on,,17,0,1,,,,,,,,,,,,,,,3,,,67,0
36167,note_on,,0,0,1,,,,,,,,,,,,,,,3,,,64,0
36173,note_on,,6,0,1,,,,,,,,,,,,,,,3,,,48,0
36180,note_on,,7,0,1,,,,,,,,,,,,,,,3,,,36,127
36203,note_on,,23,0,1,,,,,,,,,,,,,,,3,,,36,0
36210,note_on,,7,0,1,,,,,,,,,,,,,,,3,,,71,127
36210,note_on,,0,0,1,,,,,,,,,,,,,,,3,,,62,127
36233,note_on,,23,0,1,,,,,,,,,,,,,,,3,,,71,0
36233,note_on,,0,0,1,,,,,,,,,,,,,,,3,,,62,0
36240,note_on,,7,0,1,,,,,,,,,,,,,,,3,,,72,127
36240,note_on,,0,0,1,,,,,,,,,,,,,,,3,,,64,127
36263,note_on,,23,0,1,,,,,,,,,,,,,,,3,,,72,0
36263,note_on,,0,0,1,,,,,,,,,,,,,,,3,,,64,0
36270,note_on,,7,0,1,,,,,,,,,,,,,,,3,,,76,127
36270,note_on,,0,0,1,,,,,,,,,,,,,,,3,,,67,127
36293,note_on,,0,0,1,,,,,,,,,,,,,,,3,,,67,0
36293,note_on,,23,0,1,,,,,,,,,,,,,,,3,,,76,0
36300,note_on,,7,0,1,,,,,,,,,,,,,,,3,,,74,127
36300,note_on,,0,0,1,,,,,,,,,,,,,,,3,,,59,127
36323,note_on,,23,0,1,,,,,,,,,,,,,,,3,,,74,0
36323,note_on,,0,0,1,,,,,,,,,,,,,,,3,,,59,0
36330,note_on,,7,0,1,,,,,,,,,,,,,,,3,,,77,127
36330,note_on,,0,0,1,,,,,,,,,,,,,,,3,,,62,127
36353,note_on,,23,0,1,,,,,,,,,,,,,,,3,,,77,0
36353,note_on,,0,0,1,,,,,,,,,,,,,,,3,,,62,0
36360,note_on,,0,0,1,,,,,,,,,,,,,,,3,,,60,127
36360,note_on,,7,0,1,,,,,,,,,,,,,,,3,,,76,127
36360,note_on,,0,0,1,,,,,,,,,,,,,,,3,,,67,127
36390,note_on,,30,0,1,,,,,,,,,,,,,,,3,,,48,127
36407,note_on,,17,0,1,,,,,,,,,,,,,,,3,,,76,0
36407,note_on,,0,0,1,,,,,,,,,,,,,,,3,,,67,0
36407,note_on,,0,0,1,,,,,,,,,,,,,,,3,,,60,0
36413,note_on,,6,0,1,,,,,,,,,,,,,,,3,,,48,0
36420,note_on,,7,0,1,,,,,,,,,,,,,,,3,,,36,127
36443,note_on,,23,0,1,,,,,,,,,,,,,,,3,,,36,0
36450,note_on,,7,0,1,,,,,,,,,,,,,,,3,,,74,127
36450,note_on,,0,0,1,,,,,,,,,,,,,,,3,,,59,127
36473,note_on,,23,0,1,,,,,,,,,,,,,,,3,,,74,0
36473,note_on,,0,0,1,,,,,,,,,,,,,,,3,,,59,0
36480,note_on,,7,0,1,,,,,,,,,,,,,,,3,,,76,127
36480,note_on,,0,0,1,,,,,,,,,,,,,,,3,,,60,127
36503,note_on,,0,0,1,,,,,,,,,,,,,,,3,,,60,0
36503,note_on,,23,0,1,,,,,,,,,,,,,,,3,,,76,0
36510,note_on,,7,0,1,,,,,,,,,,,,,,,3,,,79,127
36510,note_on,,0,0,1,,,,,,,,,,,,,,,3,,,64,127
36533,note_on,,0,0,1,,,,,,,,,,,,,,,3,,,64,0
36533,note_on,,23,0,1,,,,,,,,,,,,,,,3,,,79,0
36540,note_on,,7,0,1,,,,,,,,,,,,,,,3,,,71,127
36540,note_on,,0,0,1,,,,,,,,,,,,,,,3,,,62,127
36563,note_on,,23,0,1,,,,,,,,,,,,,,,3,,,71,0
36563,note_on,,0,0,1,,,,,,,,,,,,,,,3,,,62,0
36570,note_on,,7,0,1,,,,,,,,,,,,,,,3,,,74,127
36570,note_on,,0,0,1,,,,,,,,,,,,,,,3,,,65,127
36593,note_on,,23,0,1,,,,,,,,,,,,,,,3,,,74,0
36593,note_on,,0,0,1,,,,,,,,,,,,,,,3,,,65,0
36600,note_on,,7,0,1,,,,,,,,,,,,,,,3,,,72,127
36600,note_on,,0,0,1,,,,,,,,,,,,,,,3,,,64,127
36600,note_on,,0,0,1,,,,,,,,,,,,,,,3,,,67,127
36630,note_on,,30,0,1,,,,,,,,,,,,,,,3,,,48,127
36647,note_on,,17,0,1,,,,,,,,,,,,,,,3,,,72,0
36647,note_on,,0,0,1,,,,,,,,,,,,,,,3,,,67,0
36647,note_on,,0,0,1,,,,,,,,,,,,,,,3,,,64,0
36653,note_on,,6,0,1,,,,,,,,,,,,,,,3,,,48,0
36660,note_on,,7,0,1,,,,,,,,,,,,,,,3,,,36,127
36683,note_on,,23,0,1,,,,,,,,,,,,,,,3,,,36,0
36690,note_on,,0,0,1,,,,,,,,,,,,,,,3,,,64,127
36690,note_on,,7,0,1,,,,,,,,,,,,,,,3,,,67,127
36713,note_on,,23,0,1,,,,,,,,,,,,,,,3,,,67,0
36713,note_on,,0,0,1,,,,,,,,,,,,,,,3,,,64,0
36720,note_on,,7,0,1,,,,,,,,,,,,,,,3,,,69,127
36720,note_on,,0,0,1,,,,,,,,,,,,,,,3,,,65,127
36743,note_on,,23,0,1,,,,,,,,,,,,,,,3,,,69,0
36750,note_on,,7,0,1,,,,,,,,,,,,,,,3,,,71,127
36762,note_on,,12,0,1,,,,,,,,,,,,,,,3,,,71,0
36765,note_on,,3,0,1,,,,,,,,,,,,,,,3,,,72,127
36767,note_on,,2,0,1,,,,,,,,,,,,,,,3,,,65,0
36777,note_on,,10,0,1,,,,,,,,,,,,,,,3,,,72,0
36780,note_on,,3,0,1,,,,,,,,,,,,,,,3,,,71,127
36780,note_on,,0,0,1,,,,,,,,,,,,,,,3,,,62,127
36803,note_on,,23,0,1,,,,,,,,,,,,,,,3,,,71,0
36810,note_on,,7,0,1,,,,,,,,,,,,,,,3,,,72,127
36822,note_on,,12,0,1,,,,,,,,,,,,,,,3,,,72,0
36825,note_on,,3,0,1,,,,,,,,,,,,,,,3,,,74,127
36827,note_on,,2,0,1,,,,,,,,,,,,,,,3,,,62,0
36837,note_on,,10,0,1,,,,,,,,,,,,,,,3,,,74,0
36840,note_on,,3,0,1,,,,,,,,,,,,,,,3,,,72,127
36840,note_on,,0,0,1,,,,,,,,,,,,,,,3,,,64,127
36863,note_on,,23,0,1,,,,,,,,,,,,,,,3,,,72,0
36870,note_on,,7,0,1,,,,,,,,,,,,,,,3,,,74,127
36882,note_on,,12,0,1,,,,,,,,,,,,,,,3,,,74,0
36885,note_on,,3,0,1,,,,,,,,,,,,,,,3,,,76,127
36887,note_on,,2,0,1,,,,,,,,,,,,,,,3,,,64,0
36897,note_on,,10,0,1,,,,,,,,,,,,,,,3,,,76,0
36900,note_on,,3,0,1,,,,,,,,,,,,,,,3,,,74,127
36900,note_on,,0,0,1,,,,,,,,,,,,,,,3,,,59,127
36923,note_on,,23,0,1,,,,,,,,,,,,,,,3,,,74,0
36930,note_on,,7,0,1,,,,,,,,,,,,,,,3,,,76,127
36942,note_on,,12,0,1,,,,,,,,,,,,,,,3,,,76,0
36945,note_on,,3,0,1,,,,,,,,,,,,,,,3,,,77,127
36947,note_on,,2,0,1,,,,,,,,,,,,,,,3,,,59,0
36957,note_on,,10,0,1,,,,,,,,,,,,,,,3,,,77,0
36960,note_on,,3,0,1,,,,,,,,,,,,,,,3,,,76,127
36960,note_on,,0,0,1,,,,,,,,,,,,,,,3,,,60,127
36983,note_on,,23,0,1,,,,,,,,,,,,,,,3,,,76,0
36990,note_on,,7,0,1,,,,,,,,,,,,,,,3,,,77,127
37002,note_on,,12,0,1,,,,,,,,,,,,,,,3,,,77,0
37005,note_on,,3,0,1,,,,,,,,,,,,,,,3,,,79,127
37007,note_on,,2,0,1,,,,,,,,,,,,,,,3,,,60,0
37017,note_on,,10,0,1,,,,,,,,,,,,,,,3,,,79,0
37020,note_on,,0,0,1,,,,,,,,,,,,,,,3,,,62,127
37020,note_on,,3,0,1,,,,,,,,,,,,,,,3,,,77,127
37043,note_on,,23,0,1,,,,,,,,,,,,,,,3,,,77,0
37050,note_on,,7,0,1,,,,,,,,,,,,,,,3,,,79,127
37062,note_on,,12,0,1,,,,,,,,,,,,,,,3,,,79,0
37065,note_on,,3,0,1,,,,,,,,,,,,,,,3,,,81,127
37067,note_on,,2,0,1,,,,,,,,,,,,,,,3,,,62,0
37077,note_on,,10,0,1,,,,,,,,,,,,,,,3,,,81,0
37080,note_on,,0,0,1,,,,,,,,,,,,,,,3,,,36,127
37080,note_on,,0,0,1,,,,,,,,,,,,,,,3,,,64,127
37080,note_on,,3,0,1,,,,,,,,,,,,,,,3,,,79,127
37110,note_on,,30,0,1,,,,,,,,,,,,,,,3,,,67,127
37127,note_on,,17,0,1,,,,,,,,,,,,,,,3,,,79,0
37133,note_on,,6,0,1,,,,,,,,,,,,,,,3,,,67,0
37139,note_on,,6,0,1,,,,,,,,,,,,,,,3,,,36,0
37140,note_on,,1,0,1,,,,,,,,,,,,,,,3,,,72,127
37150,note_on,,10,0,1,,,,,,,,,,,,,,,3,,,64,0
37170,note_on,,20,0,1,,,,,,,,,,,,,,,3,,,52,127
37187,note_on,,17,0,1,,,,,,,,,,,,,,,3,,,72,0
37193,note_on,,6,0,1,,,,,,,,,,,,,,,3,,,52,0
37200,note_on,,7,0,1,,,,,,,,,,,,,,,3,,,53,127
37230,note_on,,30,0,1,,,,,,,,,,,,,,,3,,,69,127
37253,note_on,,23,0,1,,,,,,,,,,,,,,,3,,,69,0
37260,note_on,,7,0,1,,,,,,,,,,,,,,,3,,,77,127
37260,note_on,,0,0,1,,,,,,,,,,,,,,,3,,,74,127
37270,note_on,,10,0,1,,,,,,,,,,,,,,,3,,,53,0
37283,note_on,,13,0,1,,,,,,,,,,,,,,,3,,,74,0
37290,note_on,,7,0,1,,,,,,,,,,,,,,,3,,,69,127
37290,note_on,,0,0,1,,,,,,,,,,,,,,,3,,,50,127
37313,note_on,,23,0,1,,,,,,,,,,,,,,,3,,,69,0
37313,note_on,,0,0,1,,,,,,,,,,,,,,,3,,,50,0
37320,note_on,,0,0,1,,,,,,,,,,,,,,,3,,,55,127
37320,note_on,,7,0,1,,,,,,,,,,,,,,,3,,,71,127
37350,note_on,,30,0,1,,,,,,,,,,,,,,,3,,,62,127
37361,note_on,,11,0,1,,,,,,,,,,,,,,,3,,,77,0
37367,note_on,,6,0,1,,,,,,,,,,,,,,,3,,,71,0
37367,note_on,,0,0,1,,,,,,,,,,,,,,,3,,,55,0
37373,note_on,,6,0,1,,,,,,,,,,,,,,,3,,,62,0
37380,note_on,,0,0,1,,,,,,,,,,,,,,,3,,,64,127
37380,note_on,,7,0,1,,,,,,,,,,,,,,,3,,,76,127
37380,note_on,,0,0,1,,,,,,,,,,,,,,,3,,,72,127
37403,note_on,,23,0,1,,,,,,,,,,,,,,,3,,,64,0
37410,note_on,,7,0,1,,,,,,,,,,,,,,,3,,,60,127
37427,note_on,,17,0,1,,,,,,,,,,,,,,,3,,,76,0
37433,note_on,,6,0,1,,,,,,,,,,,,,,,3,,,60,0
37440,note_on,,7,0,1,,,,,,,,,,,,,,,3,,,74,127
37440,note_on,,0,0,1,,,,,,,,,,,,,,,3,,,67,127
37457,note_on,,17,0,1,,,,,,,,,,,,,,,3,,,72,0
37470,note_on,,13,0,1,,,,,,,,,,,,,,,3,,,69,127
37493,note_on,,23,0,1,,,,,,,,,,,,,,,3,,,69,0
37500,note_on,,7,0,1,,,,,,,,,,,,,,,3,,,71,127
37500,note_on,,0,0,1,,,,,,,,,,,,,,,3,,,55,127
37510,note_on,,10,0,1,,,,,,,,,,,,,,,3,,,67,0
37530,note_on,,20,0,1,,,,,,,,,,,,,,,3,,,65,127
37535,note_on,,5,0,1,,,,,,,,,,,,,,,3,,,74,0
37547,note_on,,12,0,1,,,,,,,,,,,,,,,3,,,71,0
37547,note_on,,0,0,1,,,,,,,,,,,,,,,3,,,55,0
37553,note_on,,6,0,1,,,,,,,,,,,,,,,3,,,65,0
37560,note_on,,0,0,1,,,,,,,,,,,,,,,3,,,36,127
37560,note_on,,7,0,1,,,,,,,,,,,,,,,3,,,72,127
37560,note_on,,0,0,1,,,,,,,,,,,,,,,3,,,64,127
37560,note_on,,0,0,1,,,,,,,,,,,,,,,3,,,60,127
37560,note_on,,0,0,1,,,,,,,,,,,,,,,3,,,67,127
37583,note_on,,23,0,1,,,,,,,,,,,,,,,3,,,60,0
37590,note_on,,7,0,1,,,,,,,,,,,,,,,3,,,55,127
37607,note_on,,17,0,1,,,,,,,,,,,,,,,3,,,72,0
37607,note_on,,0,0,1,,,,,,,,,,,,,,,3,,,67,0
37607,note_on,,0,0,1,,,,,,,,,,,,,,,3,,,64,0
37613,note_on,,6,0,1,,,,,,,,,,,,,,,3,,,55,0
37619,note_on,,6,0,1,,,,,,,,,,,,,,,3,,,36,0
37620,note_on,,1,0,1,,,,,,,,,,,,,,,3,,,48,127
37643,note_on,,23,0,1,,,,,,,,,,,,,,,3,,,48,0
37650,note_on,,0,0,1,,,,,,,,,,,,,,,3,,,71,127
37650,note_on,,0,0,1,,,,,,,,,,,,,,,3,,,55,127
37650,note_on,,7,0,1,,,,,,,,,,,,,,,3,,,76,127
37673,note_on,,23,0,1,,,,,,,,,,,,,,,3,,,76,0
37673,note_on,,0,0,1,,,,,,,,,,,,,,,3,,,71,0
37673,note_on,,0,0,1,,,,,,,,,,,,,,,3,,,55,0
37680,note_on,,0,0,1,,,,,,,,,,,,,,,3,,,57,127
37680,note_on,,7,0,1,,,,,,,,,,,,,,,3,,,77,127
37680,note_on,,0,0,1,,,,,,,,,,,,,,,3,,,72,127
37703,note_on,,23,0,1,,,,,,,,,,,,,,,3,,,57,0
37710,note_on,,7,0,1,,,,,,,,,,,,,,,3,,,59,127
37722,note_on,,12,0,1,,,,,,,,,,,,,,,3,,,59,0
37725,note_on,,3,0,1,,,,,,,,,,,,,,,3,,,60,127
37727,note_on,,2,0,1,,,,,,,,,,,,,,,3,,,77,0
37727,note_on,,0,0,1,,,,,,,,,,,,,,,3,,,72,0
37737,note_on,,10,0,1,,,,,,,,,,,,,,,3,,,60,0
37740,note_on,,3,0,1,,,,,,,,,,,,,,,3,,,74,127
37740,note_on,,0,0,1,,,,,,,,,,,,,,,3,,,67,127
37740,note_on,,0,0,1,,,,,,,,,,,,,,,3,,,59,127
37763,note_on,,23,0,1,,,,,,,,,,,,,,,3,,,59,0
37770,note_on,,7,0,1,,,,,,,,,,,,,,,3,,,60,127
37782,note_on,,12,0,1,,,,,,,,,,,,,,,3,,,60,0
37785,note_on,,3,0,1,,,,,,,,,,,,,,,3,,,62,127
37787,note_on,,2,0,1,,,,,,,,,,,,,,,3,,,74,0
37787,note_on,,0,0,1,,,,,,,,,,,,,,,3,,,67,0
37797,note_on,,10,0,1,,,,,,,,,,,,,,,3,,,62,0
37800,note_on,,0,0,1,,,,,,,,,,,,,,,3,,,60,127
37800,note_on,,3,0,1,,,,,,,,,,,,,,,3,,,76,127
37800,note_on,,0,0,1,,,,,,,,,,,,,,,3,,,67,127
37823,note_on,,23,0,1,,,,,,,,,,,,,,,3,,,60,0
37830,note_on,,7,0,1,,,,,,,,,,,,,,,3,,,62,127
37842,note_on,,12,0,1,,,,,,,,,,,,,,,3,,,62,0
37845,note_on,,3,0,1,,,,,,,,,,,,,,,3,,,64,127
37847,note_on,,2,0,1,,,,,,,,,,,,,,,3,,,76,0
37847,note_on,,0,0,1,,,,,,,,,,,,,,,3,,,67,0
37857,note_on,,10,0,1,,,,,,,,,,,,,,,3,,,64,0
37860,note_on,,3,0,1,,,,,,,,,,,,,,,3,,,71,127
37860,note_on,,0,0,1,,,,,,,,,,,,,,,3,,,65,127
37860,note_on,,0,0,1,,,,,,,,,,,,,,,3,,,62,127
37883,note_on,,23,0,1,,,,,,,,,,,,,,,3,,,62,0
37890,note_on,,7,0,1,,,,,,,,,,,,,,,3,,,64,127
37902,note_on,,12,0,1,,,,,,,,,,,,,,,3,,,64,0
37905,note_on,,3,0,1,,,,,,,,,,,,,,,3,,,65,127
37907,note_on,,0,0,1,,,,,,,,,,,,,,,3,,,65,0
37907,note_on,,2,0,1,,,,,,,,,,,,,,,3,,,71,0
37917,note_on,,10,0,1,,,,,,,,,,,,,,,3,,,65,0
37920,note_on,,0,0,1,,,,,,,,,,,,,,,3,,,67,127
37920,note_on,,0,0,1,,,,,,,,,,,,,,,3,,,64,127
37920,note_on,,3,0,1,,,,,,,,,,,,,,,3,,,72,127
37943,note_on,,23,0,1,,,,,,,,,,,,,,,3,,,64,0
37950,note_on,,7,0,1,,,,,,,,,,,,,,,3,,,65,127
37962,note_on,,12,0,1,,,,,,,,,,,,,,,3,,,65,0
37965,note_on,,3,0,1,,,,,,,,,,,,,,,3,,,67,127
37967,note_on,,2,0,1,,,,,,,,,,,,,,,3,,,72,0
37967,note_on,,0,0,1,,,,,,,,,,,,,,,3,,,67,0
37977,note_on,,10,0,1,,,,,,,,,,,,,,,3,,,67,0
37980,note_on,,3,0,1,,,,,,,,,,,,,,,3,,,74,127
37980,note_on,,0,0,1,,,,,,,,,,,,,,,3,,,71,127
37980,note_on,,0,0,1,,,,,,,,,,,,,,,3,,,65,127
38003,note_on,,23,0,1,,,,,,,,,,,,,,,3,,,65,0
38010,note_on,,7,0,1,,,,,,,,,,,,,,,3,,,67,127
38022,note_on,,12,0,1,,,,,,,,,,,,,,,3,,,67,0
38025,note_on,,3,0,1,,,,,,,,,,,,,,,3,,,69,127
38027,note_on,,2,0,1,,,,,,,,,,,,,,,3,,,74,0
38027,note_on,,0,0,1,,,,,,,,,,,,,,,3,,,71,0
38037,note_on,,10,0,1,,,,,,,,,,,,,,,3,,,69,0
38040,note_on,,3,0,1,,,,,,,,,,,,,,,3,,,76,127
38040,note_on,,0,0,1,,,,,,,,,,,,,,,3,,,72,127
38040,note_on,,0,0,1,,,,,,,,,,,,,,,3,,,67,127
38040,note_on,,0,0,1,,,,,,,,,,,,,,,3,,,36,127
38063,note_on,,23,0,1,,,,,,,,,,,,,,,3,,,76,0
38070,note_on,,7,0,1,,,,,,,,,,,,,,,3,,,79,127
38087,note_on,,17,0,1,,,,,,,,,,,,,,,3,,,72,0
38087,note_on,,0,0,1,,,,,,,,,,,,,,,3,,,67,0
38093,note_on,,6,0,1,,,,,,,,,,,,,,,3,,,79,0
38099,note_on,,6,0,1,,,,,,,,,,,,,,,3,,,36,0
38100,note_on,,1,0,1,,,,,,,,,,,,,,,3,,,84,127
38130,note_on,,30,0,1,,,,,,,,,,,,,,,3,,,76,127
38147,note_on,,17,0,1,,,,,,,,,,,,,,,3,,,84,0
38153,note_on,,6,0,1,,,,,,,,,,,,,,,3,,,76,0
38160,note_on,,7,0,1,,,,,,,,,,,,,,,3,,,77,127
38190,note_on,,30,0,1,,,,,,,,,,,,,,,3,,,81,127
38213,note_on,,23,0,1,,,,,,,,,,,,,,,3,,,81,0
38220,note_on,,7,0,1,,,,,,,,,,,,,,,3,,,86,127
38220,note_on,,0,0,1,,,,,,,,,,,,,,,3,,,65,127
38230,note_on,,10,0,1,,,,,,,,,,,,,,,3,,,77,0
38243,note_on,,13,0,1,,,,,,,,,,,,,,,3,,,86,0
38250,note_on,,7,0,1,,,,,,,,,,,,,,,3,,,81,127
38250,note_on,,0,0,1,,,,,,,,,,,,,,,3,,,74,127
38273,note_on,,23,0,1,,,,,,,,,,,,,,,3,,,81,0
38273,note_on,,0,0,1,,,,,,,,,,,,,,,3,,,74,0
38280,note_on,,7,0,1,,,,,,,,,,,,,,,3,,,79,127
38280,note_on,,0,0,1,,,,,,,,,,,,,,,3,,,83,127
38310,note_on,,30,0,1,,,,,,,,,,,,,,,3,,,74,127
38321,note_on,,11,0,1,,,,,,,,,,,,,,,3,,,65,0
38327,note_on,,6,0,1,,,,,,,,,,,,,,,3,,,79,0
38327,note_on,,0,0,1,,,,,,,,,,,,,,,3,,,83,0
38333,note_on,,6,0,1,,,,,,,,,,,,,,,3,,,74,0
38340,note_on,,7,0,1,,,,,,,,,,,,,,,3,,,79,127
38340,note_on,,0,0,1,,,,,,,,,,,,,,,3,,,84,127
38340,note_on,,0,0,1,,,,,,,,,,,,,,,3,,,76,127
38340,note_on,,0,0,1,,,,,,,,,,,,,,,3,,,64,127
38363,note_on,,23,0,1,,,,,,,,,,,,,,,3,,,76,0
38370,note_on,,7,0,1,,,,,,,,,,,,,,,3,,,72,127
38387,note_on,,17,0,1,,,,,,,,,,,,,,,3,,,79,0
38387,note_on,,0,0,1,,,,,,,,,,,,,,,3,,,84,0
38387,note_on,,0,0,1,,,,,,,,,,,,,,,3,,,64,0
38393,note_on,,6,0,1,,,,,,,,,,,,,,,3,,,72,0
38400,note_on,,0,0,1,,,,,,,,,,,,,,,3,,,62,127
38400,note_on,,0,0,1,,,,,,,,,,,,,,,3,,,77,127
38400,note_on,,7,0,1,,,,,,,,,,,,,,,3,,,74,127
38430,note_on,,30,0,1,,,,,,,,,,,,,,,3,,,81,127
38447,note_on,,17,0,1,,,,,,,,,,,,,,,3,,,74,0
38447,note_on,,0,0,1,,,,,,,,,,,,,,,3,,,62,0
38453,note_on,,6,0,1,,,,,,,,,,,,,,,3,,,81,0
38460,note_on,,7,0,1,,,,,,,,,,,,,,,3,,,83,127
38460,note_on,,0,0,1,,,,,,,,,,,,,,,3,,,74,127
38460,note_on,,0,0,1,,,,,,,,,,,,,,,3,,,67,127
38477,note_on,,17,0,1,,,,,,,,,,,,,,,3,,,77,0
38490,note_on,,13,0,1,,,,,,,,,,,,,,,3,,,77,127
38507,note_on,,17,0,1,,,,,,,,,,,,,,,3,,,67,0
38510,note_on,,3,0,1,,,,,,,,,,,,,,,3,,,83,0
38510,note_on,,0,0,1,,,,,,,,,,,,,,,3,,,74,0
38513,note_on,,3,0,1,,,,,,,,,,,,,,,3,,,77,0
38520,note_on,,0,0,1,,,,,,,,,,,,,,,3,,,36,127
38520,note_on,,0,0,1,,,,,,,,,,,,,,,3,,,84,127
38520,note_on,,7,0,1,,,,,,,,,,,,,,,3,,,79,127
38520,note_on,,0,0,1,,,,,,,,,,,,,,,3,,,76,127
38520,note_on,,0,0,1,,,,,,,,,,,,,,,3,,,60,127
38543,note_on,,23,0,1,,,,,,,,,,,,,,,3,,,60,0
38550,note_on,,7,0,1,,,,,,,,,,,,,,,3,,,67,127
38567,note_on,,17,0,1,,,,,,,,,,,,,,,3,,,79,0
38567,note_on,,0,0,1,,,,,,,,,,,,,,,3,,,84,0
38567,note_on,,0,0,1,,,,,,,,,,,,,,,3,,,76,0
38573,note_on,,6,0,1,,,,,,,,,,,,,,,3,,,67,0
38580,note_on,,7,0,1,,,,,,,,,,,,,,,3,,,72,127
38583,note_on,,3,0,1,,,,,,,,,,,,,,,3,,,36,0
38603,note_on,,20,0,1,,,,,,,,,,,,,,,3,,,72,0
38610,note_on,,7,0,1,,,,,,,,,,,,,,,3,,,82,127
38633,note_on,,23,0,1,,,,,,,,,,,,,,,3,,,82,0
38640,note_on,,7,0,1,,,,,,,,,,,,,,,3,,,81,127
38640,set_tempo,,2874,1,0,,,,,,,,1000000,,,,,,,,,,,
38660,set_tempo,,20,1,0,,,,,,,,1000000,,,,,,,,,,,
38663,note_on,,23,0,1,,,,,,,,,,,,,,,3,,,81,0
38666,set_tempo,,6,1,0,,,,,,,,983606,,,,,,,,,,,
38670,note_on,,7,0,1,,,,,,,,,,,,,,,3,,,84,127
38673,set_tempo,,7,1,0,,,,,,,,1000000,,,,,,,,,,,
38676,set_tempo,,3,1,0,,,,,,,,1000000,,,,,,,,,,,
38693,note_on,,23,0,1,,,,,,,,,,,,,,,3,,,84,0
38693,set_tempo,,17,1,0,,,,,,,,1000000,,,,,,,,,,,
38700,note_on,,7,0,1,,,,,,,,,,,,,,,3,,,77,127
38700,set_tempo,,7,1,0,,,,,,,,1016949,,,,,,,,,,,
38706,set_tempo,,6,1,0,,,,,,,,1052631,,,,,,,,,,,
38713,set_tempo,,7,1,0,,,,,,,,1016949,,,,,,,,,,,
38723,note_on,,23,0,1,,,,,,,,,,,,,,,3,,,77,0
38730,note_on,,7,0,1,,,,,,,,,,,,,,,3,,,81,127
38753,note_on,,23,0,1,,,,,,,,,,,,,,,3,,,81,0
38753,set_tempo,,40,1,0,,,,,,,,1052631,,,,,,,,,,,
38760,note_on,,7,0,1,,,,,,,,,,,,,,,3,,,76,127
38760,set_tempo,,7,1,0,,,,,,,,1016949,,,,,,,,,,,
38766,set_tempo,,6,1,0,,,,,,,,1000000,,,,,,,,,,,
38780,set_tempo,,14,1,0,,,,,,,,1000000,,,,,,,,,,,
38783,note_on,,23,0,1,,,,,,,,,,,,,,,3,,,76,0
38790,note_on,,7,0,1,,,,,,,,,,,,,,,3,,,79,127
38790,set_tempo,,10,1,0,,,,,,,,1000000,,,,,,,,,,,
38800,set_tempo,,10,1,0,,,,,,,,1016949,,,,,,,,,,,
38813,set_tempo,,13,1,0,,,,,,,,1052631,,,,,,,,,,,
38813,note_on,,23,0,1,,,,,,,,,,,,,,,3,,,79,0
38820,note_on,,7,0,1,,,,,,,,,,,,,,,3,,,72,127
38833,set_tempo,,20,1,0,,,,,,,,1016949,,,,,,,,,,,
38840,set_tempo,,7,1,0,,,,,,,,1000000,,,,,,,,,,,
38843,note_on,,23,0,1,,,,,,,,,,,,,,,3,,,72,0
38846,set_tempo,,6,1,0,,,,,,,,1016949,,,,,,,,,,,
38850,note_on,,7,0,1,,,,,,,,,,,,,,,3,,,70,127
38856,set_tempo,,10,1,0,,,,,,,,1000000,,,,,,,,,,,
38873,note_on,,23,0,1,,,,,,,,,,,,,,,3,,,70,0
38880,note_on,,7,0,1,,,,,,,,,,,,,,,3,,,77,127
38880,note_on,,0,0,1,,,,,,,,,,,,,,,3,,,69,127
38880,note_on,,0,0,1,,,,,,,,,,,,,,,3,,,72,127
38903,note_on,,23,0,1,,,,,,,,,,,,,,,3,,,69,0
38910,note_on,,7,0,1,,,,,,,,,,,,,,,3,,,72,127
38926,set_tempo,,70,1,0,,,,,,,,1016949,,,,,,,,,,,
38930,note_on,,20,0,1,,,,,,,,,,,,,,,3,,,72,0
38940,note_on,,10,0,1,,,,,,,,,,,,,,,3,,,65,127
38950,note_on,,10,0,1,,,,,,,,,,,,,,,3,,,77,0
38953,set_tempo,,27,1,0,,,,,,,,1000000,,,,,,,,,,,
38953,note_on,,3,0,1,,,,,,,,,,,,,,,3,,,72,0
38963,note_on,,10,0,1,,,,,,,,,,,,,,,3,,,65,0
38966,set_tempo,,13,1,0,,,,,,,,1016949,,,,,,,,,,,
38970,set_tempo,,4,1,0,,,,,,,,1052631,,,,,,,,,,,
38970,note_on,,0,0,1,,,,,,,,,,,,,,,3,,,69,127
38970,note_on,,0,0,1,,,,,,,,,,,,,,,3,,,72,127
38970,note_on,,7,0,1,,,,,,,,,,,,,,,3,,,77,127
38973,set_tempo,,3,1,0,,,,,,,,1016949,,,,,,,,,,,
38980,set_tempo,,7,1,0,,,,,,,,1000000,,,,,,,,,,,
38993,note_on,,23,0,1,,,,,,,,,,,,,,,3,,,77,0
38993,note_on,,0,0,1,,,,,,,,,,,,,,,3,,,72,0
38993,note_on,,0,0,1,,,,,,,,,,,,,,,3,,,69,0
39000,note_on,,0,0,1,,,,,,,,,,,,,,,3,,,36,127
39000,note_on,,0,0,1,,,,,,,,,,,,,,,3,,,64,127
39000,note_on,,0,0,1,,,,,,,,,,,,,,,3,,,72,127
39000,note_on,,7,0,1,,,,,,,,,,,,,,,3,,,79,127
39000,set_tempo,,20,1,0,,,,,,,,1016949,,,,,,,,,,,
39020,set_tempo,,20,1,0,,,,,,,,1000000,,,,,,,,,,,
39023,note_on,,23,0,1,,,,,,,,,,,,,,,3,,,64,0
39026,set_tempo,,6,1,0,,,,,,,,1016949,,,,,,,,,,,
39030,note_on,,7,0,1,,,,,,,,,,,,,,,3,,,67,127
39046,set_tempo,,20,1,0,,,,,,,,1052631,,,,,,,,,,,
39047,note_on,,17,0,1,,,,,,,,,,,,,,,3,,,79,0
39047,note_on,,0,0,1,,,,,,,,,,,,,,,3,,,72,0
39053,note_on,,6,0,1,,,,,,,,,,,,,,,3,,,67,0
39059,note_on,,6,0,1,,,,,,,,,,,,,,,3,,,36,0
39060,note_on,,1,0,1,,,,,,,,,,,,,,,3,,,60,127
39066,set_tempo,,20,1,0,,,,,,,,1016949,,,,,,,,,,,
39083,note_on,,23,0,1,,,,,,,,,,,,,,,3,,,60,0
39090,note_on,,7,0,1,,,,,,,,,,,,,,,3,,,70,127
39106,set_tempo,,40,1,0,,,,,,,,1052631,,,,,,,,,,,
39113,note_on,,23,0,1,,,,,,,,,,,,,,,3,,,70,0
39113,set_tempo,,7,1,0,,,,,,,,1016949,,,,,,,,,,,
39120,note_on,,7,0,1,,,,,,,,,,,,,,,3,,,68,127
39120,set_tempo,,7,1,0,,,,,,,,1052631,,,,,,,,,,,
39123,set_tempo,,3,1,0,,,,,,,,1016949,,,,,,,,,,,
39133,set_tempo,,10,1,0,,,,,,,,1071428,,,,,,,,,,,
39140,set_tempo,,7,1,0,,,,,,,,1016949,,,,,,,,,,,
39143,note_on,,23,0,1,,,,,,,,,,,,,,,3,,,68,0
39146,set_tempo,,6,1,0,,,,,,,,1000000,,,,,,,,,,,
39150,note_on,,7,0,1,,,,,,,,,,,,,,,3,,,72,127
39153,set_tempo,,7,1,0,,,,,,,,1016949,,,,,,,,,,,
39163,set_tempo,,10,1,0,,,,,,,,1052631,,,,,,,,,,,
39166,set_tempo,,3,1,0,,,,,,,,1000000,,,,,,,,,,,
39173,note_on,,23,0,1,,,,,,,,,,,,,,,3,,,72,0
39180,note_on,,7,0,1,,,,,,,,,,,,,,,3,,,65,127
39203,note_on,,23,0,1,,,,,,,,,,,,,,,3,,,65,0
39206,set_tempo,,40,1,0,,,,,,,,1052631,,,,,,,,,,,
39210,note_on,,7,0,1,,,,,,,,,,,,,,,3,,,68,127
39213,set_tempo,,7,1,0,,,,,,,,1016949,,,,,,,,,,,
39226,set_tempo,,13,1,0,,,,,,,,1000000,,,,,,,,,,,
39233,note_on,,23,0,1,,,,,,,,,,,,,,,3,,,68,0
39240,note_on,,7,0,1,,,,,,,,,,,,,,,3,,,64,127
39240,set_tempo,,14,1,0,,,,,,,,1016949,,,,,,,,,,,
39246,set_tempo,,6,1,0,,,,,,,,1052631,,,,,,,,,,,
39250,set_tempo,,4,1,0,,,,,,,,1071428,,,,,,,,,,,
39263,note_on,,23,0,1,,,,,,,,,,,,,,,3,,,64,0
39270,note_on,,7,0,1,,,,,,,,,,,,,,,3,,,67,127
39286,set_tempo,,36,1,0,,,,,,,,1016949,,,,,,,,,,,
39293,note_on,,23,0,1,,,,,,,,,,,,,,,3,,,67,0
39300,note_on,,7,0,1,,,,,,,,,,,,,,,3,,,60,127
39313,set_tempo,,27,1,0,,,,,,,,1052631,,,,,,,,,,,
39323,note_on,,23,0,1,,,,,,,,,,,,,,,3,,,60,0
39326,set_tempo,,13,1,0,,,,,,,,1071428,,,,,,,,,,,
39330,note_on,,7,0,1,,,,,,,,,,,,,,,3,,,58,127
39340,set_tempo,,14,1,0,,,,,,,,1090909,,,,,,,,,,,
39350,set_tempo,,10,1,0,,,,,,,,1071428,,,,,,,,,,,
39353,set_tempo,,3,1,0,,,,,,,,1052631,,,,,,,,,,,
39353,note_on,,23,0,1,,,,,,,,,,,,,,,3,,,58,0
39356,set_tempo,,3,1,0,,,,,,,,1052631,,,,,,,,,,,
39360,note_on,,7,0,1,,,,,,,,,,,,,,,3,,,56,127
39373,set_tempo,,17,1,0,,,,,,,,1071428,,,,,,,,,,,
39383,note_on,,23,0,1,,,,,,,,,,,,,,,3,,,56,0
39390,note_on,,7,0,1,,,,,,,,,,,,,,,3,,,60,127
39400,set_tempo,,27,1,0,,,,,,,,1090909,,,,,,,,,,,
39406,set_tempo,,6,1,0,,,,,,,,1090909,,,,,,,,,,,
39410,set_tempo,,4,1,0,,,,,,,,1090909,,,,,,,,,,,
39413,note_on,,23,0,1,,,,,,,,,,,,,,,3,,,60,0
39416,set_tempo,,6,1,0,,,,,,,,1071428,,,,,,,,,,,
39420,note_on,,7,0,1,,,,,,,,,,,,,,,3,,,53,127
39443,set_tempo,,27,1,0,,,,,,,,1090909,,,,,,,,,,,
39443,note_on,,23,0,1,,,,,,,,,,,,,,,3,,,53,0
39450,note_on,,7,0,1,,,,,,,,,,,,,,,3,,,56,127
39473,note_on,,23,0,1,,,,,,,,,,,,,,,3,,,56,0
39480,note_on,,7,0,1,,,,,,,,,,,,,,,3,,,52,127
39483,set_tempo,,40,1,0,,,,,,,,1071428,,,,,,,,,,,
39503,note_on,,23,0,1,,,,,,,,,,,,,,,3,,,52,0
39510,note_on,,7,0,1,,,,,,,,,,,,,,,3,,,55,127
39516,set_tempo,,33,1,0,,,,,,,,1090909,,,,,,,,,,,
39526,set_tempo,,10,1,0,,,,,,,,1071428,,,,,,,,,,,
39533,note_on,,23,0,1,,,,,,,,,,,,,,,3,,,55,0
39540,note_on,,7,0,1,,,,,,,,,,,,,,,3,,,48,127
39543,set_tempo,,17,1,0,,,,,,,,1090909,,,,,,,,,,,
39556,set_tempo,,13,1,0,,,,,,,,1071428,,,,,,,,,,,
39563,note_on,,23,0,1,,,,,,,,,,,,,,,3,,,48,0
39570,set_tempo,,14,1,0,,,,,,,,1090909,,,,,,,,,,,
39570,note_on,,7,0,1,,,,,,,,,,,,,,,3,,,46,127
39576,set_tempo,,6,1,0,,,,,,,,1071428,,,,,,,,,,,
39583,set_tempo,,7,1,0,,,,,,,,1090909,,,,,,,,,,,
39593,note_on,,23,0,1,,,,,,,,,,,,,,,3,,,46,0
39600,note_on,,7,0,1,,,,,,,,,,,,,,,3,,,44,127
39623,note_on,,23,0,1,,,,,,,,,,,,,,,3,,,44,0
39630,set_tempo,,47,1,0,,,,,,,,1090909,,,,,,,,,,,
39630,note_on,,7,0,1,,,,,,,,,,,,,,,3,,,48,127
39636,set_tempo,,6,1,0,,,,,,,,1111111,,,,,,,,,,,
39643,set_tempo,,7,1,0,,,,,,,,1090909,,,,,,,,,,,
39650,set_tempo,,7,1,0,,,,,,,,1132075,,,,,,,,,,,
39653,note_on,,23,0,1,,,,,,,,,,,,,,,3,,,48,0
39660,note_on,,7,0,1,,,,,,,,,,,,,,,3,,,41,127
39676,set_tempo,,26,1,0,,,,,,,,1111111,,,,,,,,,,,
39683,note_on,,23,0,1,,,,,,,,,,,,,,,3,,,41,0
39690,note_on,,7,0,1,,,,,,,,,,,,,,,3,,,44,127
39696,set_tempo,,20,1,0,,,,,,,,1090909,,,,,,,,,,,
39700,set_tempo,,4,1,0,,,,,,,,1111111,,,,,,,,,,,
39710,set_tempo,,10,1,0,,,,,,,,1111111,,,,,,,,,,,
39713,note_on,,23,0,1,,,,,,,,,,,,,,,3,,,44,0
39716,set_tempo,,6,1,0,,,,,,,,1132075,,,,,,,,,,,
39720,note_on,,7,0,1,,,,,,,,,,,,,,,3,,,36,127
39723,set_tempo,,7,1,0,,,,,,,,1153846,,,,,,,,,,,
39730,set_tempo,,7,1,0,,,,,,,,1200000,,,,,,,,,,,
39733,set_tempo,,3,1,0,,,,,,,,1153846,,,,,,,,,,,
39736,set_tempo,,3,1,0,,,,,,,,1132075,,,,,,,,,,,
39743,set_tempo,,7,1,0,,,,,,,,1153846,,,,,,,,,,,
39756,set_tempo,,13,1,0,,,,,,,,1200000,,,,,,,,,,,
39780,note_on,,0,0,1,,,,,,,,,,,,,,,3,,,77,127
39780,note_on,,60,0,1,,,,,,,,,,,,,,,3,,,72,127
39780,note_on,,0,0,1,,,,,,,,,,,,,,,3,,,60,127
39780,note_on,,0,0,1,,,,,,,,,,,,,,,3,,,68,127
39780,note_on,,0,0,1,,,,,,,,,,,,,,,3,,,65,127
39783,set_tempo,,27,1,0,,,,,,,,1200000,,,,,,,,,,,
39796,set_tempo,,13,1,0,,,,,,,,1250000,,,,,,,,,,,
39803,set_tempo,,7,1,0,,,,,,,,1250000,,,,,,,,,,,
39827,note_on,,47,0,1,,,,,,,,,,,,,,,3,,,72,0
39827,note_on,,0,0,1,,,,,,,,,,,,,,,3,,,77,0
39827,note_on,,0,0,1,,,,,,,,,,,,,,,3,,,68,0
39827,note_on,,0,0,1,,,,,,,,,,,,,,,3,,,65,0
39827,note_on,,0,0,1,,,,,,,,,,,,,,,3,,,60,0
39840,note_on,,13,0,1,,,,,,,,,,,,,,,3,,,71,127
39840,note_on,,0,0,1,,,,,,,,,,,,,,,3,,,68,127
39840,note_on,,0,0,1,,,,,,,,,,,,,,,3,,,65,127
39840,note_on,,0,0,1,,,,,,,,,,,,,,,3,,,62,127
39840,set_tempo,,37,1,0,,,,,,,,1428571,,,,,,,,,,,
39887,note_on,,47,0,1,,,,,,,,,,,,,,,3,,,68,0
39887,note_on,,0,0,1,,,,,,,,,,,,,,,3,,,65,0
39887,note_on,,0,0,1,,,,,,,,,,,,,,,3,,,62,0
39900,note_on,,13,0,1,,,,,,,,,,,,,,,3,,,67,127
39900,note_on,,0,0,1,,,,,,,,,,,,,,,3,,,55,127
39900,note_on,,0,0,1,,,,,,,,,,,,,,,3,,,62,127
39910,note_on,,10,0,1,,,,,,,,,,,,,,,3,,,71,0
39923,note_on,,0,0,1,,,,,,,,,,,,,,,3,,,67,0
39923,note_on,,13,0,1,,,,,,,,,,,,,,,3,,,36,0
39930,set_tempo,,90,1,0,,,,,,,,3333333,,,,,,,,,,,
39930,note_on,,0,0,1,,,,,,,,,,,,,,,3,,,65,127
39930,note_on,,7,0,1,,,,,,,,,,,,,,,3,,,71,127
39947,note_on,,0,0,1,,,,,,,,,,,,,,,3,,,55,0
39947,note_on,,17,0,1,,,,,,,,,,,,,,,3,,,62,0
39953,note_on,,6,0,1,,,,,,,,,,,,,,,3,,,71,0
39953,note_on,,0,0,1,,,,,,,,,,,,,,,3,,,65,0
39960,note_on,,0,0,1,,,,,,,,,,,,,,,3,,,55,127
39960,note_on,,7,0,1,,,,,,,,,,,,,,,3,,,67,127
39960,note_on,,0,0,1,,,,,,,,,,,,,,,3,,,72,127
39960,note_on,,0,0,1,,,,,,,,,,,,,,,3,,,64,127
39960,note_on,,0,0,1,,,,,,,,,,,,,,,3,,,67,127
39960,note_on,,0,0,1,,,,,,,,,,,,,,,3,,,60,127
39960,note_on,,0,0,1,,,,,,,,,,,,,,,3,,,36,127
39970,set_tempo,,40,1,0,,,,,,,,2400000,,,,,,,,,,,
40080,set_tempo,,110,1,0,,,,,,,,1666666,,,,,,,,,,,
40105,set_tempo,,25,1,0,,,,,,,,1200000,,,,,,,,,,,
40125,set_tempo,,20,1,0,,,,,,,,1052631,,,,,,,,,,,
40326,set_tempo,,201,1,0,,,,,,,,333333,,,,,,,,,,,
40379,note_on,,0,0,1,,,,,,,,,,,,,,,3,,,36,0
40379,note_on,,0,0,1,,,,,,,,,,,,,,,3,,,55,0
40379,note_on,,0,0,1,,,,,,,,,,,,,,,3,,,60,0
40379,note_on,,0,0,1,,,,,,,,,,,,,,,3,,,67,0
40379,note_on,,0,0,1,,,,,,,,,,,,,,,3,,,64,0
40379,note_on,,0,0,1,,,,,,,,,,,,,,,3,,,72,0
40379,note_on,,419,0,1,,,,,,,,,,,,,,,3,,,67,0
40800,control_change,,0,0,1,,,,,,,,,,,,,,,3,7,90,,
40800,set_tempo,,474,1,0,,,,,,,,550458,,,,,,,,,,,
40800,control_change,,421,0,1,,,,,,,,,,,,,,,3,7,90,,
40800,control_change,,0,0,1,,,,,,,,,,,,,,,3,7,90,,
40920,note_on,,0,0,1,,,,,,,,,,,,,,,3,,,60,127
40920,note_on,,0,0,1,,,,,,,,,,,,,,,3,,,69,127
40920,note_on,,0,0,1,,,,,,,,,,,,,,,3,,,45,127
40920,note_on,,120,0,1,,,,,,,,,,,,,,,3,,,76,127
40943,note_on,,23,0,1,,,,,,,,,,,,,,,3,,,76,0
40950,note_on,,7,0,1,,,,,,,,,,,,,,,3,,,74,127
40973,note_on,,23,0,1,,,,,,,,,,,,,,,3,,,74,0
40980,note_on,,7,0,1,,,,,,,,,,,,,,,3,,,76,127
41123,note_on,,143,0,1,,,,,,,,,,,,,,,3,,,45,0
41160,note_on,,37,0,1,,,,,,,,,,,,,,,3,,,57,127
41352,note_on,,192,0,1,,,,,,,,,,,,,,,3,,,69,0
41363,note_on,,11,0,1,,,,,,,,,,,,,,,3,,,57,0
41370,note_on,,7,0,1,,,,,,,,,,,,,,,3,,,60,0
41372,note_on,,2,0,1,,,,,,,,,,,,,,,3,,,76,0
41400,note_on,,28,0,1,,,,,,,,,,,,,,,3,,,57,127
41603,note_on,,203,0,1,,,,,,,,,,,,,,,3,,,57,0
41640,note_on,,37,0,1,,,,,,,,,,,,,,,3,,,76,127
41640,note_on,,0,0,1,,,,,,,,,,,,,,,3,,,69,127
41640,note_on,,0,0,1,,,,,,,,,,,,,,,3,,,60,127
41640,note_on,,0,0,1,,,,,,,,,,,,,,,3,,,45,127
41843,note_on,,0,0,1,,,,,,,,,,,,,,,3,,,45,0
41843,note_on,,203,0,1,,,,,,,,,,,,,,,3,,,76,0
41856,note_on,,13,0,1,,,,,,,,,,,,,,,3,,,69,0
41865,note_on,,9,0,1,,,,,,,,,,,,,,,3,,,60,0
41880,note_on,,15,0,1,,,,,,,,,,,,,,,3,,,76,127
41880,note_on,,0,0,1,,,,,,,,,,,,,,,3,,,71,127
41880,note_on,,0,0,1,,,,,,,,,,,,,,,3,,,59,127
41880,note_on,,0,0,1,,,,,,,,,,,,,,,3,,,44,127
42029,note_on,,149,0,1,,,,,,,,,,,,,,,3,,,76,0
42060,note_on,,31,0,1,,,,,,,,,,,,,,,3,,,83,127
42083,note_on,,23,0,1,,,,,,,,,,,,,,,3,,,44,0
42119,note_on,,36,0,1,,,,,,,,,,,,,,,3,,,83,0
42120,note_on,,0,0,1,,,,,,,,,,,,,,,3,,,56,127
42120,note_on,,1,0,1,,,,,,,,,,,,,,,3,,,80,127
42269,note_on,,149,0,1,,,,,,,,,,,,,,,3,,,80,0
42300,note_on,,31,0,1,,,,,,,,,,,,,,,3,,,83,127
42312,note_on,,12,0,1,,,,,,,,,,,,,,,3,,,71,0
42323,note_on,,11,0,1,,,,,,,,,,,,,,,3,,,56,0
42330,note_on,,7,0,1,,,,,,,,,,,,,,,3,,,59,0
42359,note_on,,29,0,1,,,,,,,,,,,,,,,3,,,83,0
42360,note_on,,1,0,1,,,,,,,,,,,,,,,3,,,76,127
42360,note_on,,0,0,1,,,,,,,,,,,,,,,3,,,56,127
42383,note_on,,23,0,1,,,,,,,,,,,,,,,3,,,76,0
42390,note_on,,7,0,1,,,,,,,,,,,,,,,3,,,74,127
42413,note_on,,23,0,1,,,,,,,,,,,,,,,3,,,74,0
42420,note_on,,7,0,1,,,,,,,,,,,,,,,3,,,76,127
42432,note_on,,12,0,1,,,,,,,,,,,,,,,3,,,76,0
42435,note_on,,3,0,1,,,,,,,,,,,,,,,3,,,74,127
42447,note_on,,12,0,1,,,,,,,,,,,,,,,3,,,74,0
42450,note_on,,3,0,1,,,,,,,,,,,,,,,3,,,76,127
42462,note_on,,12,0,1,,,,,,,,,,,,,,,3,,,76,0
42465,note_on,,3,0,1,,,,,,,,,,,,,,,3,,,74,127
42477,note_on,,12,0,1,,,,,,,,,,,,,,,3,,,74,0
42480,note_on,,3,0,1,,,,,,,,,,,,,,,3,,,72,127
42492,note_on,,12,0,1,,,,,,,,,,,,,,,3,,,72,0
42495,note_on,,3,0,1,,,,,,,,,,,,,,,3,,,74,127
42563,note_on,,68,0,1,,,,,,,,,,,,,,,3,,,56,0
42600,note_on,,37,0,1,,,,,,,,,,,,,,,3,,,71,127
42600,note_on,,0,0,1,,,,,,,,,,,,,,,3,,,64,127
42600,note_on,,0,0,1,,,,,,,,,,,,,,,3,,,44,127
42684,note_on,,84,0,1,,,,,,,,,,,,,,,3,,,74,0
42720,note_on,,36,0,1,,,,,,,,,,,,,,,3,,,74,127
42803,note_on,,83,0,1,,,,,,,,,,,,,,,3,,,71,0
42803,note_on,,0,0,1,,,,,,,,,,,,,,,3,,,64,0
42803,note_on,,0,0,1,,,,,,,,,,,,,,,3,,,44,0
42815,note_on,,12,0,1,,,,,,,,,,,,,,,3,,,74,0
42840,note_on,,0,0,1,,,,,,,,,,,,,,,3,,,64,127
42840,note_on,,0,0,1,,,,,,,,,,,,,,,3,,,71,127
42840,note_on,,25,0,1,,,,,,,,,,,,,,,3,,,74,127
42840,note_on,,0,0,1,,,,,,,,,,,,,,,3,,,45,127
42935,note_on,,95,0,1,,,,,,,,,,,,,,,3,,,74,0
42960,note_on,,25,0,1,,,,,,,,,,,,,,,3,,,72,127
43043,note_on,,83,0,1,,,,,,,,,,,,,,,3,,,45,0
43055,note_on,,12,0,1,,,,,,,,,,,,,,,3,,,72,0
43061,note_on,,6,0,1,,,,,,,,,,,,,,,3,,,71,0
43080,note_on,,19,0,1,,,,,,,,,,,,,,,3,,,72,127
43080,note_on,,0,0,1,,,,,,,,,,,,,,,3,,,57,127
43080,note_on,,0,0,1,,,,,,,,,,,,,,,3,,,69,127
43283,note_on,,203,0,1,,,,,,,,,,,,,,,3,,,57,0
43295,note_on,,12,0,1,,,,,,,,,,,,,,,3,,,64,0
43296,note_on,,1,0,1,,,,,,,,,,,,,,,3,,,69,0
43310,note_on,,14,0,1,,,,,,,,,,,,,,,3,,,72,0
43320,note_on,,10,0,1,,,,,,,,,,,,,,,3,,,57,127
43523,note_on,,203,0,1,,,,,,,,,,,,,,,3,,,57,0
43560,note_on,,37,0,1,,,,,,,,,,,,,,,3,,,72,127
43560,note_on,,0,0,1,,,,,,,,,,,,,,,3,,,69,127
43560,note_on,,0,0,1,,,,,,,,,,,,,,,3,,,64,127
43560,note_on,,0,0,1,,,,,,,,,,,,,,,3,,,45,127
43763,note_on,,203,0,1,,,,,,,,,,,,,,,3,,,72,0
43763,note_on,,0,0,1,,,,,,,,,,,,,,,3,,,45,0
43781,note_on,,18,0,1,,,,,,,,,,,,,,,3,,,69,0
43781,note_on,,0,0,1,,,,,,,,,,,,,,,3,,,64,0
43800,note_on,,19,0,1,,,,,,,,,,,,,,,3,,,72,127
43800,note_on,,0,0,1,,,,,,,,,,,,,,,3,,,62,127
43800,note_on,,0,0,1,,,,,,,,,,,,,,,3,,,50,127
43800,note_on,,0,0,1,,,,,,,,,,,,,,,3,,,65,127
43949,note_on,,149,0,1,,,,,,,,,,,,,,,3,,,72,0
43980,note_on,,31,0,1,,,,,,,,,,,,,,,3,,,77,127
44003,note_on,,23,0,1,,,,,,,,,,,,,,,3,,,50,0
44039,note_on,,36,0,1,,,,,,,,,,,,,,,3,,,77,0
44040,note_on,,1,0,1,,,,,,,,,,,,,,,3,,,74,127
44040,note_on,,0,0,1,,,,,,,,,,,,,,,3,,,62,127
44202,note_on,,162,0,1,,,,,,,,,,,,,,,3,,,74,0
44219,note_on,,17,0,1,,,,,,,,,,,,,,,3,,,62,0
44220,note_on,,1,0,1,,,,,,,,,,,,,,,3,,,77,127
44232,note_on,,12,0,1,,,,,,,,,,,,,,,3,,,65,0
44274,note_on,,42,0,1,,,,,,,,,,,,,,,3,,,77,0
44279,note_on,,5,0,1,,,,,,,,,,,,,,,3,,,62,0
44280,note_on,,1,0,1,,,,,,,,,,,,,,,3,,,70,127
44280,note_on,,0,0,1,,,,,,,,,,,,,,,3,,,62,127
44483,note_on,,203,0,1,,,,,,,,,,,,,,,3,,,62,0
44520,note_on,,0,0,1,,,,,,,,,,,,,,,3,,,50,127
44520,note_on,,0,0,1,,,,,,,,,,,,,,,3,,,62,127
44520,note_on,,37,0,1,,,,,,,,,,,,,,,3,,,65,127
44591,note_on,,71,0,1,,,,,,,,,,,,,,,3,,,70,0
44640,note_on,,49,0,1,,,,,,,,,,,,,,,3,,,74,127
44723,note_on,,83,0,1,,,,,,,,,,,,,,,3,,,50,0
44741,note_on,,18,0,1,,,,,,,,,,,,,,,3,,,65,0
44741,note_on,,0,0,1,,,,,,,,,,,,,,,3,,,62,0
44753,note_on,,12,0,1,,,,,,,,,,,,,,,3,,,74,0
44760,note_on,,7,0,1,,,,,,,,,,,,,,,3,,,68,127
44760,note_on,,0,0,1,,,,,,,,,,,,,,,3,,,59,127
44760,note_on,,0,0,1,,,,,,,,,,,,,,,3,,,50,127
44760,note_on,,0,0,1,,,,,,,,,,,,,,,3,,,64,127
44868,note_on,,108,0,1,,,,,,,,,,,,,,,3,,,68,0
44880,note_on,,12,0,1,,,,,,,,,,,,,,,3,,,66,127
44963,note_on,,83,0,1,,,,,,,,,,,,,,,3,,,50,0
44988,note_on,,25,0,1,,,,,,,,,,,,,,,3,,,66,0
45000,note_on,,0,0,1,,,,,,,,,,,,,,,3,,,62,127
45000,note_on,,12,0,1,,,,,,,,,,,,,,,3,,,68,127
45203,note_on,,203,0,1,,,,,,,,,,,,,,,3,,,62,0
45206,note_on,,3,0,1,,,,,,,,,,,,,,,3,,,64,0
45210,note_on,,4,0,1,,,,,,,,,,,,,,,3,,,59,0
45230,note_on,,20,0,1,,,,,,,,,,,,,,,3,,,68,0
45240,note_on,,10,0,1,,,,,,,,,,,,,,,3,,,62,127
45360,note_on,,120,0,1,,,,,,,,,,,,,,,3,,,68,127
45443,note_on,,83,0,1,,,,,,,,,,,,,,,3,,,62,0
45468,note_on,,25,0,1,,,,,,,,,,,,,,,3,,,68,0
45480,note_on,,0,0,1,,,,,,,,,,,,,,,3,,,59,127
45480,note_on,,0,0,1,,,,,,,,,,,,,,,3,,,64,127
45480,note_on,,0,0,1,,,,,,,,,,,,,,,3,,,50,127
45480,note_on,,12,0,1,,,,,,,,,,,,,,,3,,,76,127
45629,note_on,,149,0,1,,,,,,,,,,,,,,,3,,,76,0
45660,note_on,,31,0,1,,,,,,,,,,,,,,,3,,,68,127
45683,note_on,,23,0,1,,,,,,,,,,,,,,,3,,,64,0
45683,note_on,,0,0,1,,,,,,,,,,,,,,,3,,,50,0
45705,note_on,,22,0,1,,,,,,,,,,,,,,,3,,,59,0
45719,note_on,,14,0,1,,,,,,,,,,,,,,,3,,,68,0
45720,note_on,,0,0,1,,,,,,,,,,,,,,,3,,,64,127
45720,note_on,,0,0,1,,,,,,,,,,,,,,,3,,,57,127
45720,note_on,,0,0,1,,,,,,,,,,,,,,,3,,,48,127
45720,note_on,,1,0,1,,,,,,,,,,,,,,,3,,,69,127
45833,note_on,,113,0,1,,,,,,,,,,,,,,,3,,,69,0
45840,note_on,,7,0,1,,,,,,,,,,,,,,,3,,,68,127
45923,note_on,,83,0,1,,,,,,,,,,,,,,,3,,,48,0
45948,note_on,,25,0,1,,,,,,,,,,,,,,,3,,,68,0
45960,note_on,,12,0,1,,,,,,,,,,,,,,,3,,,69,127
45960,note_on,,0,0,1,,,,,,,,,,,,,,,3,,,60,127
46161,note_on,,201,0,1,,,,,,,,,,,,,,,3,,,64,0
46163,note_on,,2,0,1,,,,,,,,,,,,,,,3,,,60,0
46170,note_on,,7,0,1,,,,,,,,,,,,,,,3,,,57,0
46190,note_on,,20,0,1,,,,,,,,,,,,,,,3,,,69,0
46200,note_on,,10,0,1,,,,,,,,,,,,,,,3,,,60,127
46320,note_on,,120,0,1,,,,,,,,,,,,,,,3,,,69,127
46403,note_on,,83,0,1,,,,,,,,,,,,,,,3,,,60,0
46433,note_on,,30,0,1,,,,,,,,,,,,,,,3,,,69,0
46440,note_on,,7,0,1,,,,,,,,,,,,,,,3,,,71,127
46440,note_on,,0,0,1,,,,,,,,,,,,,,,3,,,48,127
46440,note_on,,0,0,1,,,,,,,,,,,,,,,3,,,64,127
46440,note_on,,0,0,1,,,,,,,,,,,,,,,3,,,69,127
46607,note_on,,167,0,1,,,,,,,,,,,,,,,3,,,71,0
46620,note_on,,13,0,1,,,,,,,,,,,,,,,3,,,72,127
46643,note_on,,23,0,1,,,,,,,,,,,,,,,3,,,69,0
46643,note_on,,0,0,1,,,,,,,,,,,,,,,3,,,48,0
46665,note_on,,22,0,1,,,,,,,,,,,,,,,3,,,64,0
46679,note_on,,14,0,1,,,,,,,,,,,,,,,3,,,72,0
46680,note_on,,1,0,1,,,,,,,,,,,,,,,3,,,74,127
46680,note_on,,0,0,1,,,,,,,,,,,,,,,3,,,69,127
46680,note_on,,0,0,1,,,,,,,,,,,,,,,3,,,62,127
46680,note_on,,0,0,1,,,,,,,,,,,,,,,3,,,47,127
46775,note_on,,95,0,1,,,,,,,,,,,,,,,3,,,74,0
46800,note_on,,25,0,1,,,,,,,,,,,,,,,3,,,76,127
46859,note_on,,59,0,1,,,,,,,,,,,,,,,3,,,76,0
46860,note_on,,1,0,1,,,,,,,,,,,,,,,3,,,77,127
46883,note_on,,23,0,1,,,,,,,,,,,,,,,3,,,47,0
46914,note_on,,31,0,1,,,,,,,,,,,,,,,3,,,77,0
46920,note_on,,6,0,1,,,,,,,,,,,,,,,3,,,71,127
46920,note_on,,0,0,1,,,,,,,,,,,,,,,3,,,59,127
47015,note_on,,95,0,1,,,,,,,,,,,,,,,3,,,71,0
47040,note_on,,25,0,1,,,,,,,,,,,,,,,3,,,72,127
47099,note_on,,59,0,1,,,,,,,,,,,,,,,3,,,72,0
47100,note_on,,1,0,1,,,,,,,,,,,,,,,3,,,74,127
47121,note_on,,21,0,1,,,,,,,,,,,,,,,3,,,69,0
47123,note_on,,2,0,1,,,,,,,,,,,,,,,3,,,59,0
47130,note_on,,7,0,1,,,,,,,,,,,,,,,3,,,62,0
47159,note_on,,29,0,1,,,,,,,,,,,,,,,3,,,74,0
47160,note_on,,0,0,1,,,,,,,,,,,,,,,3,,,59,127
47160,note_on,,1,0,1,,,,,,,,,,,,,,,3,,,68,127
47309,note_on,,149,0,1,,,,,,,,,,,,,,,3,,,68,0
47340,note_on,,31,0,1,,,,,,,,,,,,,,,3,,,74,127
47363,note_on,,23,0,1,,,,,,,,,,,,,,,3,,,59,0
47394,note_on,,31,0,1,,,,,,,,,,,,,,,3,,,74,0
47400,note_on,,6,0,1,,,,,,,,,,,,,,,3,,,68,127
47400,note_on,,0,0,1,,,,,,,,,,,,,,,3,,,64,127
47400,note_on,,0,0,1,,,,,,,,,,,,,,,3,,,59,127
47400,note_on,,0,0,1,,,,,,,,,,,,,,,3,,,52,127
47549,note_on,,149,0,1,,,,,,,,,,,,,,,3,,,68,0
47580,note_on,,31,0,1,,,,,,,,,,,,,,,3,,,74,127
47603,note_on,,23,0,1,,,,,,,,,,,,,,,3,,,64,0
47603,note_on,,0,0,1,,,,,,,,,,,,,,,3,,,52,0
47621,note_on,,18,0,1,,,,,,,,,,,,,,,3,,,59,0
47627,note_on,,6,0,1,,,,,,,,,,,,,,,3,,,74,0
47640,note_on,,13,0,1,,,,,,,,,,,,,,,3,,,74,127
47640,note_on,,0,0,1,,,,,,,,,,,,,,,3,,,64,127
47640,note_on,,0,0,1,,,,,,,,,,,,,,,3,,,57,127
47640,note_on,,0,0,1,,,,,,,,,,,,,,,3,,,45,127
47735,note_on,,95,0,1,,,,,,,,,,,,,,,3,,,74,0
47760,note_on,,25,0,1,,,,,,,,,,,,,,,3,,,72,127
47843,note_on,,83,0,1,,,,,,,,,,,,,,,3,,,45,0
47855,note_on,,12,0,1,,,,,,,,,,,,,,,3,,,72,0
47880,note_on,,25,0,1,,,,,,,,,,,,,,,3,,,72,127
47880,note_on,,0,0,1,,,,,,,,,,,,,,,3,,,57,127
47939,note_on,,59,0,1,,,,,,,,,,,,,,,3,,,72,0
47940,note_on,,1,0,1,,,,,,,,,,,,,,,3,,,71,127
47999,note_on,,59,0,1,,,,,,,,,,,,,,,3,,,71,0
48000,note_on,,1,0,1,,,,,,,,,,,,,,,3,,,69,127
48059,note_on,,59,0,1,,,,,,,,,,,,,,,3,,,57,0
48081,note_on,,22,0,1,,,,,,,,,,,,,,,3,,,64,0
48113,note_on,,32,0,1,,,,,,,,,,,,,,,3,,,69,0
48120,note_on,,7,0,1,,,,,,,,,,,,,,,3,,,78,127
48120,note_on,,0,0,1,,,,,,,,,,,,,,,3,,,57,127
48123,note_on,,3,0,1,,,,,,,,,,,,,,,3,,,57,0
48228,note_on,,105,0,1,,,,,,,,,,,,,,,3,,,78,0
48240,note_on,,12,0,1,,,,,,,,,,,,,,,3,,,79,127
48294,note_on,,54,0,1,,,,,,,,,,,,,,,3,,,79,0
48300,note_on,,6,0,1,,,,,,,,,,,,,,,3,,,81,127
48323,note_on,,23,0,1,,,,,,,,,,,,,,,3,,,57,0
48359,note_on,,36,0,1,,,,,,,,,,,,,,,3,,,81,0
48360,note_on,,0,0,1,,,,,,,,,,,,,,,3,,,45,127
48360,note_on,,1,0,1,,,,,,,,,,,,,,,3,,,78,127
48360,note_on,,0,0,1,,,,,,,,,,,,,,,3,,,72,127
48360,note_on,,0,0,1,,,,,,,,,,,,,,,3,,,69,127
48468,note_on,,108,0,1,,,,,,,,,,,,,,,3,,,78,0
48480,note_on,,12,0,1,,,,,,,,,,,,,,,3,,,79,127
48539,note_on,,59,0,1,,,,,,,,,,,,,,,3,,,79,0
48540,note_on,,1,0,1,,,,,,,,,,,,,,,3,,,81,127
48563,note_on,,23,0,1,,,,,,,,,,,,,,,3,,,45,0
48576,note_on,,13,0,1,,,,,,,,,,,,,,,3,,,72,0
48576,note_on,,0,0,1,,,,,,,,,,,,,,,3,,,69,0
48594,note_on,,18,0,1,,,,,,,,,,,,,,,3,,,81,0
48600,note_on,,0,0,1,,,,,,,,,,,,,,,3,,,45,127
48600,note_on,,6,0,1,,,,,,,,,,,,,,,3,,,75,127
48600,note_on,,0,0,1,,,,,,,,,,,,,,,3,,,71,127
48600,note_on,,0,0,1,,,,,,,,,,,,,,,3,,,66,127
48713,note_on,,113,0,1,,,,,,,,,,,,,,,3,,,75,0
48720,note_on,,7,0,1,,,,,,,,,,,,,,,3,,,73,127
48803,note_on,,83,0,1,,,,,,,,,,,,,,,3,,,45,0
48833,note_on,,30,0,1,,,,,,,,,,,,,,,3,,,73,0
48840,note_on,,7,0,1,,,,,,,,,,,,,,,3,,,75,127
48840,note_on,,0,0,1,,,,,,,,,,,,,,,3,,,57,127
49037,note_on,,197,0,1,,,,,,,,,,,,,,,3,,,71,0
49043,note_on,,6,0,1,,,,,,,,,,,,,,,3,,,57,0
49050,note_on,,7,0,1,,,,,,,,,,,,,,,3,,,66,0
49070,note_on,,20,0,1,,,,,,,,,,,,,,,3,,,75,0
49080,note_on,,10,0,1,,,,,,,,,,,,,,,3,,,57,127
49200,note_on,,120,0,1,,,,,,,,,,,,,,,3,,,75,127
49283,note_on,,83,0,1,,,,,,,,,,,,,,,3,,,57,0
49313,note_on,,30,0,1,,,,,,,,,,,,,,,3,,,75,0
49320,note_on,,0,0,1,,,,,,,,,,,,,,,3,,,45,127
49320,note_on,,0,0,1,,,,,,,,,,,,,,,3,,,71,127
49320,note_on,,7,0,1,,,,,,,,,,,,,,,3,,,83,127
49320,note_on,,0,0,1,,,,,,,,,,,,,,,3,,,66,127
49469,note_on,,149,0,1,,,,,,,,,,,,,,,3,,,83,0
49500,note_on,,31,0,1,,,,,,,,,,,,,,,3,,,75,127
49523,note_on,,23,0,1,,,,,,,,,,,,,,,3,,,71,0
49523,note_on,,0,0,1,,,,,,,,,,,,,,,3,,,45,0
49536,note_on,,13,0,1,,,,,,,,,,,,,,,3,,,66,0
49554,note_on,,18,0,1,,,,,,,,,,,,,,,3,,,75,0
49560,note_on,,6,0,1,,,,,,,,,,,,,,,3,,,76,127
49560,note_on,,0,0,1,,,,,,,,,,,,,,,3,,,71,127
49560,note_on,,0,0,1,,,,,,,,,,,,,,,3,,,64,127
49560,note_on,,0,0,1,,,,,,,,,,,,,,,3,,,43,127
49668,note_on,,108,0,1,,,,,,,,,,,,,,,3,,,76,0
49680,note_on,,12,0,1,,,,,,,,,,,,,,,3,,,75,127
49763,note_on,,83,0,1,,,,,,,,,,,,,,,3,,,43,0
49793,note_on,,30,0,1,,,,,,,,,,,,,,,3,,,75,0
49800,note_on,,7,0,1,,,,,,,,,,,,,,,3,,,76,127
49800,note_on,,0,0,1,,,,,,,,,,,,,,,3,,,55,127
49997,note_on,,197,0,1,,,,,,,,,,,,,,,3,,,71,0
50003,note_on,,6,0,1,,,,,,,,,,,,,,,3,,,76,0
50003,note_on,,0,0,1,,,,,,,,,,,,,,,3,,,55,0
50010,note_on,,7,0,1,,,,,,,,,,,,,,,3,,,64,0
50040,note_on,,0,0,1,,,,,,,,,,,,,,,3,,,55,127
50040,note_on,,30,0,1,,,,,,,,,,,,,,,3,,,76,127
50144,note_on,,104,0,1,,,,,,,,,,,,,,,3,,,76,0
50160,note_on,,16,0,1,,,,,,,,,,,,,,,3,,,78,127
50219,note_on,,59,0,1,,,,,,,,,,,,,,,3,,,78,0
50220,note_on,,1,0,1,,,,,,,,,,,,,,,3,,,79,127
50243,note_on,,23,0,1,,,,,,,,,,,,,,,3,,,55,0
50279,note_on,,36,0,1,,,,,,,,,,,,,,,3,,,79,0
50280,note_on,,1,0,1,,,,,,,,,,,,,,,3,,,76,127
50280,note_on,,0,0,1,,,,,,,,,,,,,,,3,,,71,127
50280,note_on,,0,0,1,,,,,,,,,,,,,,,3,,,64,127
50280,note_on,,0,0,1,,,,,,,,,,,,,,,3,,,43,127
50451,note_on,,171,0,1,,,,,,,,,,,,,,,3,,,76,0
50460,note_on,,9,0,1,,,,,,,,,,,,,,,3,,,79,127
50483,note_on,,23,0,1,,,,,,,,,,,,,,,3,,,64,0
50483,note_on,,0,0,1,,,,,,,,,,,,,,,3,,,43,0
50501,note_on,,18,0,1,,,,,,,,,,,,,,,3,,,71,0
50514,note_on,,13,0,1,,,,,,,,,,,,,,,3,,,79,0
50520,note_on,,0,0,1,,,,,,,,,,,,,,,3,,,69,127
50520,note_on,,6,0,1,,,,,,,,,,,,,,,3,,,73,127
50520,note_on,,0,0,1,,,,,,,,,,,,,,,3,,,64,127
50520,note_on,,0,0,1,,,,,,,,,,,,,,,3,,,43,127
50628,note_on,,108,0,1,,,,,,,,,,,,,,,3,,,73,0
50640,note_on,,12,0,1,,,,,,,,,,,,,,,3,,,71,127
50723,note_on,,83,0,1,,,,,,,,,,,,,,,3,,,43,0
50748,note_on,,25,0,1,,,,,,,,,,,,,,,3,,,71,0
50760,note_on,,12,0,1,,,,,,,,,,,,,,,3,,,73,127
50760,note_on,,0,0,1,,,,,,,,,,,,,,,3,,,55,127
50963,note_on,,203,0,1,,,,,,,,,,,,,,,3,,,73,0
50963,note_on,,0,0,1,,,,,,,,,,,,,,,3,,,55,0
50966,note_on,,3,0,1,,,,,,,,,,,,,,,3,,,69,0
50970,note_on,,4,0,1,,,,,,,,,,,,,,,3,,,64,0
51000,note_on,,30,0,1,,,,,,,,,,,,,,,3,,,81,127
51000,note_on,,0,0,1,,,,,,,,,,,,,,,3,,,55,127
51203,note_on,,203,0,1,,,,,,,,,,,,,,,3,,,55,0
51240,note_on,,37,0,1,,,,,,,,,,,,,,,3,,,73,127
51240,note_on,,0,0,1,,,,,,,,,,,,,,,3,,,64,127
51240,note_on,,0,0,1,,,,,,,,,,,,,,,3,,,43,127
51443,note_on,,203,0,1,,,,,,,,,,,,,,,3,,,43,0
51456,note_on,,13,0,1,,,,,,,,,,,,,,,3,,,73,0
51461,note_on,,5,0,1,,,,,,,,,,,,,,,3,,,64,0
51480,note_on,,19,0,1,,,,,,,,,,,,,,,3,,,75,127
51480,note_on,,0,0,1,,,,,,,,,,,,,,,3,,,66,127
51480,note_on,,0,0,1,,,,,,,,,,,,,,,3,,,42,127
51540,note_on,,60,0,1,,,,,,,,,,,,,,,3,,,81,0
51600,note_on,,60,0,1,,,,,,,,,,,,,,,3,,,83,127
51659,note_on,,59,0,1,,,,,,,,,,,,,,,3,,,83,0
51660,note_on,,1,0,1,,,,,,,,,,,,,,,3,,,84,127
51683,note_on,,23,0,1,,,,,,,,,,,,,,,3,,,42,0
51714,note_on,,31,0,1,,,,,,,,,,,,,,,3,,,84,0
51720,note_on,,6,0,1,,,,,,,,,,,,,,,3,,,81,127
51720,note_on,,0,0,1,,,,,,,,,,,,,,,3,,,54,127
51882,note_on,,162,0,1,,,,,,,,,,,,,,,3,,,81,0
51900,note_on,,18,0,1,,,,,,,,,,,,,,,3,,,84,127
51923,note_on,,23,0,1,,,,,,,,,,,,,,,3,,,54,0
51926,note_on,,3,0,1,,,,,,,,,,,,,,,3,,,75,0
51926,note_on,,0,0,1,,,,,,,,,,,,,,,3,,,66,0
51959,note_on,,33,0,1,,,,,,,,,,,,,,,3,,,84,0
51960,note_on,,1,0,1,,,,,,,,,,,,,,,3,,,75,127
51960,note_on,,0,0,1,,,,,,,,,,,,,,,3,,,87,127
51960,note_on,,0,0,1,,,,,,,,,,,,,,,3,,,54,127
52109,note_on,,149,0,1,,,,,,,,,,,,,,,3,,,75,0
52118,note_on,,9,0,1,,,,,,,,,,,,,,,3,,,87,0
52140,note_on,,22,0,1,,,,,,,,,,,,,,,3,,,81,127
52163,note_on,,23,0,1,,,,,,,,,,,,,,,3,,,54,0
52194,note_on,,31,0,1,,,,,,,,,,,,,,,3,,,81,0
52200,note_on,,6,0,1,,,,,,,,,,,,,,,3,,,79,127
52200,note_on,,0,0,1,,,,,,,,,,,,,,,3,,,75,127
52200,note_on,,0,0,1,,,,,,,,,,,,,,,3,,,66,127
52200,note_on,,0,0,1,,,,,,,,,,,,,,,3,,,47,127
52362,note_on,,162,0,1,,,,,,,,,,,,,,,3,,,79,0
52380,note_on,,18,0,1,,,,,,,,,,,,,,,3,,,78,127
52403,note_on,,23,0,1,,,,,,,,,,,,,,,3,,,47,0
52421,note_on,,0,0,1,,,,,,,,,,,,,,,3,,,66,0
52421,note_on,,18,0,1,,,,,,,,,,,,,,,3,,,75,0
52439,note_on,,18,0,1,,,,,,,,,,,,,,,3,,,78,0
52440,note_on,,1,0,1,,,,,,,,,,,,,,,3,,,79,127
52440,note_on,,0,0,1,,,,,,,,,,,,,,,3,,,76,127
52440,note_on,,0,0,1,,,,,,,,,,,,,,,3,,,64,127
52440,note_on,,0,0,1,,,,,,,,,,,,,,,3,,,40,127
52643,note_on,,203,0,1,,,,,,,,,,,,,,,3,,,40,0
52680,note_on,,37,0,1,,,,,,,,,,,,,,,3,,,52,127
52883,note_on,,203,0,1,,,,,,,,,,,,,,,3,,,52,0
52890,note_on,,7,0,1,,,,,,,,,,,,,,,3,,,79,0
52895,note_on,,5,0,1,,,,,,,,,,,,,,,3,,,64,0
52920,note_on,,25,0,1,,,,,,,,,,,,,,,3,,,52,127
52989,note_on,,69,0,1,,,,,,,,,,,,,,,3,,,76,0
53040,note_on,,51,0,1,,,,,,,,,,,,,,,3,,,78,127
53123,note_on,,83,0,1,,,,,,,,,,,,,,,3,,,52,0
53148,note_on,,25,0,1,,,,,,,,,,,,,,,3,,,78,0
53160,note_on,,12,0,1,,,,,,,,,,,,,,,3,,,79,127
53160,note_on,,0,0,1,,,,,,,,,,,,,,,3,,,71,127
53160,note_on,,0,0,1,,,,,,,,,,,,,,,3,,,64,127
53160,note_on,,0,0,1,,,,,,,,,,,,,,,3,,,40,127
53327,note_on,,167,0,1,,,,,,,,,,,,,,,3,,,79,0
53340,note_on,,13,0,1,,,,,,,,,,,,,,,3,,,81,127
53363,note_on,,23,0,1,,,,,,,,,,,,,,,3,,,40,0
53381,note_on,,18,0,1,,,,,,,,,,,,,,,3,,,71,0
53381,note_on,,0,0,1,,,,,,,,,,,,,,,3,,,64,0
53387,note_on,,6,0,1,,,,,,,,,,,,,,,3,,,81,0
53400,note_on,,0,0,1,,,,,,,,,,,,,,,3,,,60,127
53400,note_on,,0,0,1,,,,,,,,,,,,,,,3,,,69,127
53400,note_on,,13,0,1,,,,,,,,,,,,,,,3,,,77,127
53400,note_on,,0,0,1,,,,,,,,,,,,,,,3,,,45,127
53412,note_on,,12,0,1,,,,,,,,,,,,,,,3,,,77,0
53415,note_on,,3,0,1,,,,,,,,,,,,,,,3,,,76,127
53427,note_on,,12,0,1,,,,,,,,,,,,,,,3,,,76,0
53430,note_on,,3,0,1,,,,,,,,,,,,,,,3,,,77,127
53552,note_on,,122,0,1,,,,,,,,,,,,,,,3,,,77,0
53580,note_on,,28,0,1,,,,,,,,,,,,,,,3,,,76,127
53603,note_on,,23,0,1,,,,,,,,,,,,,,,3,,,45,0
53627,note_on,,24,0,1,,,,,,,,,,,,,,,3,,,76,0
53640,note_on,,13,0,1,,,,,,,,,,,,,,,3,,,77,127
53640,note_on,,0,0,1,,,,,,,,,,,,,,,3,,,57,127
53652,note_on,,12,0,1,,,,,,,,,,,,,,,3,,,77,0
53655,note_on,,3,0,1,,,,,,,,,,,,,,,3,,,76,127
53667,note_on,,12,0,1,,,,,,,,,,,,,,,3,,,76,0
53670,note_on,,3,0,1,,,,,,,,,,,,,,,3,,,77,127
53792,note_on,,122,0,1,,,,,,,,,,,,,,,3,,,77,0
53820,note_on,,28,0,1,,,,,,,,,,,,,,,3,,,76,127
53843,note_on,,23,0,1,,,,,,,,,,,,,,,3,,,57,0
53846,note_on,,3,0,1,,,,,,,,,,,,,,,3,,,69,0
53850,note_on,,4,0,1,,,,,,,,,,,,,,,3,,,60,0
53867,note_on,,17,0,1,,,,,,,,,,,,,,,3,,,76,0
53880,note_on,,13,0,1,,,,,,,,,,,,,,,3,,,77,127
53880,note_on,,0,0,1,,,,,,,,,,,,,,,3,,,57,127
53903,note_on,,23,0,1,,,,,,,,,,,,,,,3,,,77,0
53910,note_on,,7,0,1,,,,,,,,,,,,,,,3,,,76,127
53933,note_on,,23,0,1,,,,,,,,,,,,,,,3,,,76,0
53940,note_on,,7,0,1,,,,,,,,,,,,,,,3,,,77,127
53952,note_on,,12,0,1,,,,,,,,,,,,,,,3,,,77,0
53955,note_on,,3,0,1,,,,,,,,,,,,,,,3,,,76,127
53967,note_on,,12,0,1,,,,,,,,,,,,,,,3,,,76,0
53970,note_on,,3,0,1,,,,,,,,,,,,,,,3,,,77,127
53982,note_on,,12,0,1,,,,,,,,,,,,,,,3,,,77,0
53985,note_on,,3,0,1,,,,,,,,,,,,,,,3,,,76,127
53997,note_on,,12,0,1,,,,,,,,,,,,,,,3,,,76,0
54000,note_on,,3,0,1,,,,,,,,,,,,,,,3,,,77,127
54047,note_on,,47,0,1,,,,,,,,,,,,,,,3,,,77,0
54060,note_on,,13,0,1,,,,,,,,,,,,,,,3,,,76,127
54083,note_on,,23,0,1,,,,,,,,,,,,,,,3,,,57,0
54119,note_on,,36,0,1,,,,,,,,,,,,,,,3,,,76,0
54120,note_on,,1,0,1,,,,,,,,,,,,,,,3,,,77,127
54120,note_on,,0,0,1,,,,,,,,,,,,,,,3,,,69,127
54120,note_on,,0,0,1,,,,,,,,,,,,,,,3,,,60,127
54120,note_on,,0,0,1,,,,,,,,,,,,,,,3,,,45,127
54180,note_on,,60,0,1,,,,,,,,,,,,,,,3,,,79,127
54183,note_on,,3,0,1,,,,,,,,,,,,,,,3,,,77,0
54234,note_on,,51,0,1,,,,,,,,,,,,,,,3,,,79,0
54240,note_on,,6,0,1,,,,,,,,,,,,,,,3,,,81,127
54299,note_on,,59,0,1,,,,,,,,,,,,,,,3,,,81,0
54300,note_on,,1,0,1,,,,,,,,,,,,,,,3,,,75,127
54323,note_on,,23,0,1,,,,,,,,,,,,,,,3,,,45,0
54341,note_on,,18,0,1,,,,,,,,,,,,,,,3,,,69,0
54345,note_on,,4,0,1,,,,,,,,,,,,,,,3,,,60,0
54347,note_on,,2,0,1,,,,,,,,,,,,,,,3,,,75,0
54360,note_on,,0,0,1,,,,,,,,,,,,,,,3,,,61,127
54360,note_on,,0,0,1,,,,,,,,,,,,,,,3,,,67,127
54360,note_on,,13,0,1,,,,,,,,,,,,,,,3,,,76,127
54360,note_on,,0,0,1,,,,,,,,,,,,,,,3,,,46,127
54509,note_on,,149,0,1,,,,,,,,,,,,,,,3,,,76,0
54540,note_on,,31,0,1,,,,,,,,,,,,,,,3,,,75,127
54563,note_on,,23,0,1,,,,,,,,,,,,,,,3,,,46,0
54587,note_on,,24,0,1,,,,,,,,,,,,,,,3,,,75,0
54600,note_on,,13,0,1,,,,,,,,,,,,,,,3,,,76,127
54600,note_on,,0,0,1,,,,,,,,,,,,,,,3,,,58,127
54749,note_on,,149,0,1,,,,,,,,,,,,,,,3,,,76,0
54780,note_on,,31,0,1,,,,,,,,,,,,,,,3,,,75,127
54803,note_on,,23,0,1,,,,,,,,,,,,,,,3,,,58,0
54806,note_on,,3,0,1,,,,,,,,,,,,,,,3,,,67,0
54810,note_on,,4,0,1,,,,,,,,,,,,,,,3,,,61,0
54827,note_on,,17,0,1,,,,,,,,,,,,,,,3,,,75,0
54840,note_on,,13,0,1,,,,,,,,,,,,,,,3,,,76,127
54840,note_on,,0,0,1,,,,,,,,,,,,,,,3,,,58,127
54989,note_on,,149,0,1,,,,,,,,,,,,,,,3,,,76,0
55020,note_on,,31,0,1,,,,,,,,,,,,,,,3,,,75,127
55043,note_on,,23,0,1,,,,,,,,,,,,,,,3,,,58,0
55067,note_on,,24,0,1,,,,,,,,,,,,,,,3,,,75,0
55080,note_on,,13,0,1,,,,,,,,,,,,,,,3,,,76,127
55080,note_on,,0,0,1,,,,,,,,,,,,,,,3,,,67,127
55080,note_on,,0,0,1,,,,,,,,,,,,,,,3,,,61,127
55080,note_on,,0,0,1,,,,,,,,,,,,,,,3,,,46,127
55229,note_on,,149,0,1,,,,,,,,,,,,,,,3,,,76,0
55260,note_on,,31,0,1,,,,,,,,,,,,,,,3,,,75,127
55283,note_on,,23,0,1,,,,,,,,,,,,,,,3,,,67,0
55283,note_on,,0,0,1,,,,,,,,,,,,,,,3,,,46,0
55305,note_on,,22,0,1,,,,,,,,,,,,,,,3,,,61,0
55307,note_on,,2,0,1,,,,,,,,,,,,,,,3,,,75,0
55320,note_on,,13,0,1,,,,,,,,,,,,,,,3,,,76,127
55320,note_on,,0,0,1,,,,,,,,,,,,,,,3,,,59,127
55320,note_on,,0,0,1,,,,,,,,,,,,,,,3,,,47,127
55320,note_on,,0,0,1,,,,,,,,,,,,,,,3,,,67,127
55428,note_on,,108,0,1,,,,,,,,,,,,,,,3,,,67,0
55433,note_on,,5,0,1,,,,,,,,,,,,,,,3,,,76,0
55440,note_on,,0,0,1,,,,,,,,,,,,,,,3,,,71,127
55440,note_on,,7,0,1,,,,,,,,,,,,,,,3,,,78,127
55490,note_on,,50,0,1,,,,,,,,,,,,,,,3,,,78,0
55500,note_on,,10,0,1,,,,,,,,,,,,,,,3,,,79,127
55523,note_on,,23,0,1,,,,,,,,,,,,,,,3,,,47,0
55553,note_on,,30,0,1,,,,,,,,,,,,,,,3,,,71,0
55554,note_on,,1,0,1,,,,,,,,,,,,,,,3,,,79,0
55560,note_on,,0,0,1,,,,,,,,,,,,,,,3,,,69,127
55560,note_on,,0,0,1,,,,,,,,,,,,,,,3,,,59,127
55560,note_on,,6,0,1,,,,,,,,,,,,,,,3,,,78,127
55668,note_on,,108,0,1,,,,,,,,,,,,,,,3,,,78,0
55673,note_on,,5,0,1,,,,,,,,,,,,,,,3,,,69,0
55680,note_on,,7,0,1,,,,,,,,,,,,,,,3,,,79,127
55680,note_on,,0,0,1,,,,,,,,,,,,,,,3,,,72,127
55739,note_on,,0,0,1,,,,,,,,,,,,,,,3,,,79,0
55739,note_on,,59,0,1,,,,,,,,,,,,,,,3,,,59,0
55740,note_on,,1,0,1,,,,,,,,,,,,,,,3,,,81,127
55799,note_on,,59,0,1,,,,,,,,,,,,,,,3,,,59,0
55799,note_on,,0,0,1,,,,,,,,,,,,,,,3,,,81,0
55800,note_on,,1,0,1,,,,,,,,,,,,,,,3,,,75,127
55800,note_on,,0,0,1,,,,,,,,,,,,,,,3,,,66,127
55800,note_on,,0,0,1,,,,,,,,,,,,,,,3,,,59,127
55802,note_on,,2,0,1,,,,,,,,,,,,,,,3,,,72,0
55854,note_on,,52,0,1,,,,,,,,,,,,,,,3,,,75,0
55860,note_on,,6,0,1,,,,,,,,,,,,,,,3,,,76,127
55887,note_on,,27,0,1,,,,,,,,,,,,,,,3,,,76,0
55890,note_on,,3,0,1,,,,,,,,,,,,,,,3,,,75,127
55902,note_on,,12,0,1,,,,,,,,,,,,,,,3,,,75,0
55905,note_on,,3,0,1,,,,,,,,,,,,,,,3,,,76,127
55917,note_on,,12,0,1,,,,,,,,,,,,,,,3,,,76,0
55920,note_on,,3,0,1,,,,,,,,,,,,,,,3,,,75,127
55932,note_on,,12,0,1,,,,,,,,,,,,,,,3,,,75,0
55935,note_on,,3,0,1,,,,,,,,,,,,,,,3,,,76,127
55947,note_on,,12,0,1,,,,,,,,,,,,,,,3,,,76,0
55950,note_on,,3,0,1,,,,,,,,,,,,,,,3,,,75,127
55962,note_on,,12,0,1,,,,,,,,,,,,,,,3,,,75,0
55965,note_on,,3,0,1,,,,,,,,,,,,,,,3,,,76,127
55977,note_on,,12,0,1,,,,,,,,,,,,,,,3,,,76,0
55980,note_on,,3,0,1,,,,,,,,,,,,,,,3,,,75,127
56003,note_on,,0,0,1,,,,,,,,,,,,,,,3,,,59,0
56003,note_on,,23,0,1,,,,,,,,,,,,,,,3,,,66,0
56040,note_on,,37,0,1,,,,,,,,,,,,,,,3,,,66,127
56040,note_on,,0,0,1,,,,,,,,,,,,,,,3,,,59,127
56040,note_on,,0,0,1,,,,,,,,,,,,,,,3,,,47,127
56129,note_on,,89,0,1,,,,,,,,,,,,,,,3,,,75,0
56160,note_on,,31,0,1,,,,,,,,,,,,,,,3,,,76,127
56241,note_on,,81,0,1,,,,,,,,,,,,,,,3,,,76,0
56243,note_on,,0,0,1,,,,,,,,,,,,,,,3,,,47,0
56243,note_on,,2,0,1,,,,,,,,,,,,,,,3,,,59,0
56270,note_on,,27,0,1,,,,,,,,,,,,,,,3,,,66,0
56280,note_on,,10,0,1,,,,,,,,,,,,,,,3,,,76,127
56280,note_on,,0,0,1,,,,,,,,,,,,,,,3,,,68,127
56280,note_on,,0,0,1,,,,,,,,,,,,,,,3,,,40,127
56280,note_on,,0,0,1,,,,,,,,,,,,,,,3,,,59,127
56483,note_on,,203,0,1,,,,,,,,,,,,,,,3,,,40,0
56520,note_on,,37,0,1,,,,,,,,,,,,,,,3,,,52,127
56721,note_on,,201,0,1,,,,,,,,,,,,,,,3,,,68,0
56723,note_on,,2,0,1,,,,,,,,,,,,,,,3,,,52,0
56726,note_on,,3,0,1,,,,,,,,,,,,,,,3,,,59,0
56730,note_on,,4,0,1,,,,,,,,,,,,,,,3,,,76,0
56760,note_on,,30,0,1,,,,,,,,,,,,,,,3,,,52,127
56880,note_on,,120,0,1,,,,,,,,,,,,,,,3,,,78,127
56963,note_on,,83,0,1,,,,,,,,,,,,,,,3,,,52,0
56993,note_on,,30,0,1,,,,,,,,,,,,,,,3,,,78,0
57000,note_on,,0,0,1,,,,,,,,,,,,,,,3,,,50,127
57000,note_on,,7,0,1,,,,,,,,,,,,,,,3,,,79,127
57000,note_on,,0,0,1,,,,,,,,,,,,,,,3,,,71,127
57000,note_on,,0,0,1,,,,,,,,,,,,,,,3,,,64,127
57167,note_on,,167,0,1,,,,,,,,,,,,,,,3,,,79,0
57180,note_on,,13,0,1,,,,,,,,,,,,,,,3,,,78,127
57203,note_on,,0,0,1,,,,,,,,,,,,,,,3,,,50,0
57203,note_on,,23,0,1,,,,,,,,,,,,,,,3,,,64,0
57225,note_on,,22,0,1,,,,,,,,,,,,,,,3,,,71,0
57234,note_on,,9,0,1,,,,,,,,,,,,,,,3,,,78,0
57240,note_on,,6,0,1,,,,,,,,,,,,,,,3,,,79,127
57240,note_on,,0,0,1,,,,,,,,,,,,,,,3,,,69,127
57240,note_on,,0,0,1,,,,,,,,,,,,,,,3,,,64,127
57240,note_on,,0,0,1,,,,,,,,,,,,,,,3,,,49,127
57407,note_on,,167,0,1,,,,,,,,,,,,,,,3,,,79,0
57420,note_on,,13,0,1,,,,,,,,,,,,,,,3,,,76,127
57443,note_on,,23,0,1,,,,,,,,,,,,,,,3,,,49,0
57474,note_on,,31,0,1,,,,,,,,,,,,,,,3,,,76,0
57480,note_on,,6,0,1,,,,,,,,,,,,,,,3,,,69,127
57480,note_on,,0,0,1,,,,,,,,,,,,,,,3,,,61,127
57618,note_on,,138,0,1,,,,,,,,,,,,,,,3,,,69,0
57660,note_on,,42,0,1,,,,,,,,,,,,,,,3,,,76,127
57683,note_on,,23,0,1,,,,,,,,,,,,,,,3,,,61,0
57690,note_on,,7,0,1,,,,,,,,,,,,,,,3,,,64,0
57714,note_on,,24,0,1,,,,,,,,,,,,,,,3,,,76,0
57720,note_on,,6,0,1,,,,,,,,,,,,,,,3,,,79,127
57720,note_on,,0,0,1,,,,,,,,,,,,,,,3,,,61,127
57723,note_on,,3,0,1,,,,,,,,,,,,,,,3,,,69,0
57828,note_on,,105,0,1,,,,,,,,,,,,,,,3,,,79,0
57840,note_on,,12,0,1,,,,,,,,,,,,,,,3,,,81,127
57894,note_on,,54,0,1,,,,,,,,,,,,,,,3,,,81,0
57900,note_on,,6,0,1,,,,,,,,,,,,,,,3,,,82,127
57923,note_on,,23,0,1,,,,,,,,,,,,,,,3,,,61,0
57959,note_on,,36,0,1,,,,,,,,,,,,,,,3,,,82,0
57960,note_on,,1,0,1,,,,,,,,,,,,,,,3,,,81,127
57960,note_on,,0,0,1,,,,,,,,,,,,,,,3,,,64,127
57960,note_on,,0,0,1,,,,,,,,,,,,,,,3,,,49,127
57960,note_on,,0,0,1,,,,,,,,,,,,,,,3,,,69,127
58100,note_on,,140,0,1,,,,,,,,,,,,,,,3,,,81,0
58140,note_on,,40,0,1,,,,,,,,,,,,,,,3,,,79,127
58163,note_on,,23,0,1,,,,,,,,,,,,,,,3,,,69,0
58163,note_on,,0,0,1,,,,,,,,,,,,,,,3,,,64,0
58163,note_on,,0,0,1,,,,,,,,,,,,,,,3,,,49,0
58187,note_on,,24,0,1,,,,,,,,,,,,,,,3,,,79,0
58200,note_on,,13,0,1,,,,,,,,,,,,,,,3,,,79,127
58200,note_on,,0,0,1,,,,,,,,,,,,,,,3,,,69,127
58200,note_on,,0,0,1,,,,,,,,,,,,,,,3,,,64,127
58200,note_on,,0,0,1,,,,,,,,,,,,,,,3,,,50,127
58308,note_on,,108,0,1,,,,,,,,,,,,,,,3,,,79,0
58320,note_on,,12,0,1,,,,,,,,,,,,,,,3,,,77,127
58403,note_on,,83,0,1,,,,,,,,,,,,,,,3,,,50,0
58415,note_on,,12,0,1,,,,,,,,,,,,,,,3,,,77,0
58430,note_on,,15,0,1,,,,,,,,,,,,,,,3,,,64,0
58440,note_on,,10,0,1,,,,,,,,,,,,,,,3,,,77,127
58440,note_on,,0,0,1,,,,,,,,,,,,,,,3,,,62,127
58440,note_on,,0,0,1,,,,,,,,,,,,,,,3,,,62,127
58641,note_on,,201,0,1,,,,,,,,,,,,,,,3,,,69,0
58643,note_on,,2,0,1,,,,,,,,,,,,,,,3,,,62,0
58674,note_on,,31,0,1,,,,,,,,,,,,,,,3,,,77,0
58674,note_on,,0,0,1,,,,,,,,,,,,,,,3,,,62,0
58680,note_on,,6,0,1,,,,,,,,,,,,,,,3,,,62,127
58800,note_on,,120,0,1,,,,,,,,,,,,,,,3,,,76,127
58883,note_on,,83,0,1,,,,,,,,,,,,,,,3,,,62,0
58913,note_on,,30,0,1,,,,,,,,,,,,,,,3,,,76,0
58920,note_on,,0,0,1,,,,,,,,,,,,,,,3,,,50,127
58920,note_on,,7,0,1,,,,,,,,,,,,,,,3,,,77,127
58920,note_on,,0,0,1,,,,,,,,,,,,,,,3,,,69,127
58920,note_on,,0,0,1,,,,,,,,,,,,,,,3,,,62,127
59087,note_on,,167,0,1,,,,,,,,,,,,,,,3,,,77,0
59100,note_on,,13,0,1,,,,,,,,,,,,,,,3,,,76,127
59123,note_on,,23,0,1,,,,,,,,,,,,,,,3,,,62,0
59123,note_on,,0,0,1,,,,,,,,,,,,,,,3,,,50,0
59150,note_on,,27,0,1,,,,,,,,,,,,,,,3,,,69,0
59159,note_on,,9,0,1,,,,,,,,,,,,,,,3,,,76,0
59160,note_on,,0,0,1,,,,,,,,,,,,,,,3,,,62,127
59160,note_on,,0,0,1,,,,,,,,,,,,,,,3,,,47,127
59160,note_on,,1,0,1,,,,,,,,,,,,,,,3,,,77,127
59160,note_on,,0,0,1,,,,,,,,,,,,,,,3,,,67,127
59331,note_on,,171,0,1,,,,,,,,,,,,,,,3,,,77,0
59340,note_on,,9,0,1,,,,,,,,,,,,,,,3,,,74,127
59363,note_on,,23,0,1,,,,,,,,,,,,,,,3,,,47,0
59399,note_on,,36,0,1,,,,,,,,,,,,,,,3,,,74,0
59400,note_on,,1,0,1,,,,,,,,,,,,,,,3,,,67,127
59400,note_on,,0,0,1,,,,,,,,,,,,,,,3,,,59,127
59543,note_on,,143,0,1,,,,,,,,,,,,,,,3,,,67,0
59580,note_on,,37,0,1,,,,,,,,,,,,,,,3,,,74,127
59603,note_on,,23,0,1,,,,,,,,,,,,,,,3,,,59,0
59625,note_on,,22,0,1,,,,,,,,,,,,,,,3,,,67,0
59628,note_on,,3,0,1,,,,,,,,,,,,,,,3,,,62,0
59634,note_on,,6,0,1,,,,,,,,,,,,,,,3,,,74,0
59640,note_on,,6,0,1,,,,,,,,,,,,,,,3,,,77,127
59640,note_on,,0,0,1,,,,,,,,,,,,,,,3,,,59,127
59748,note_on,,108,0,1,,,,,,,,,,,,,,,3,,,77,0
59760,note_on,,12,0,1,,,,,,,,,,,,,,,3,,,79,127
59819,note_on,,59,0,1,,,,,,,,,,,,,,,3,,,79,0
59820,note_on,,1,0,1,,,,,,,,,,,,,,,3,,,81,127
59843,note_on,,23,0,1,,,,,,,,,,,,,,,3,,,59,0
59874,note_on,,31,0,1,,,,,,,,,,,,,,,3,,,81,0
59880,note_on,,6,0,1,,,,,,,,,,,,,,,3,,,79,127
59880,note_on,,0,0,1,,,,,,,,,,,,,,,3,,,67,127
59880,note_on,,0,0,1,,,,,,,,,,,,,,,3,,,62,127
59880,note_on,,0,0,1,,,,,,,,,,,,,,,3,,,47,127
60029,note_on,,149,0,1,,,,,,,,,,,,,,,3,,,79,0
60060,note_on,,31,0,1,,,,,,,,,,,,,,,3,,,77,127
60083,note_on,,0,0,1,,,,,,,,,,,,,,,3,,,47,0
60083,note_on,,23,0,1,,,,,,,,,,,,,,,3,,,67,0
60083,note_on,,0,0,1,,,,,,,,,,,,,,,3,,,62,0
60107,note_on,,24,0,1,,,,,,,,,,,,,,,3,,,77,0
60120,note_on,,0,0,1,,,,,,,,,,,,,,,3,,,67,127
60120,note_on,,0,0,1,,,,,,,,,,,,,,,3,,,62,127
60120,note_on,,0,0,1,,,,,,,,,,,,,,,3,,,48,127
60120,note_on,,13,0,1,,,,,,,,,,,,,,,3,,,77,127
60228,note_on,,108,0,1,,,,,,,,,,,,,,,3,,,77,0
60240,note_on,,12,0,1,,,,,,,,,,,,,,,3,,,76,127
60323,note_on,,83,0,1,,,,,,,,,,,,,,,3,,,48,0
60335,note_on,,12,0,1,,,,,,,,,,,,,,,3,,,76,0
60341,note_on,,6,0,1,,,,,,,,,,,,,,,3,,,62,0
60360,note_on,,19,0,1,,,,,,,,,,,,,,,3,,,76,127
60360,note_on,,0,0,1,,,,,,,,,,,,,,,3,,,60,127
60360,note_on,,0,0,1,,,,,,,,,,,,,,,3,,,60,127
60563,note_on,,203,0,1,,,,,,,,,,,,,,,3,,,60,0
60575,note_on,,12,0,1,,,,,,,,,,,,,,,3,,,67,0
60590,note_on,,15,0,1,,,,,,,,,,,,,,,3,,,76,0
60590,note_on,,0,0,1,,,,,,,,,,,,,,,3,,,60,0
60600,note_on,,10,0,1,,,,,,,,,,,,,,,3,,,60,127
60720,note_on,,120,0,1,,,,,,,,,,,,,,,3,,,76,127
60803,note_on,,83,0,1,,,,,,,,,,,,,,,3,,,60,0
60833,note_on,,30,0,1,,,,,,,,,,,,,,,3,,,76,0
60840,note_on,,7,0,1,,,,,,,,,,,,,,,3,,,77,127
60840,note_on,,0,0,1,,,,,,,,,,,,,,,3,,,69,127
60840,note_on,,0,0,1,,,,,,,,,,,,,,,3,,,64,127
60840,note_on,,0,0,1,,,,,,,,,,,,,,,3,,,48,127
61007,note_on,,167,0,1,,,,,,,,,,,,,,,3,,,77,0
61020,note_on,,13,0,1,,,,,,,,,,,,,,,3,,,76,127
61043,note_on,,23,0,1,,,,,,,,,,,,,,,3,,,64,0
61043,note_on,,0,0,1,,,,,,,,,,,,,,,3,,,48,0
61061,note_on,,18,0,1,,,,,,,,,,,,,,,3,,,69,0
61079,note_on,,18,0,1,,,,,,,,,,,,,,,3,,,76,0
61080,note_on,,1,0,1,,,,,,,,,,,,,,,3,,,74,127
61080,note_on,,0,0,1,,,,,,,,,,,,,,,3,,,71,127
61080,note_on,,0,0,1,,,,,,,,,,,,,,,3,,,64,127
61080,note_on,,0,0,1,,,,,,,,,,,,,,,3,,,44,127
61247,note_on,,167,0,1,,,,,,,,,,,,,,,3,,,74,0
61260,note_on,,13,0,1,,,,,,,,,,,,,,,3,,,71,127
61283,note_on,,23,0,1,,,,,,,,,,,,,,,3,,,44,0
61301,note_on,,18,0,1,,,,,,,,,,,,,,,3,,,71,0
61320,note_on,,0,0,1,,,,,,,,,,,,,,,3,,,56,127
61320,note_on,,19,0,1,,,,,,,,,,,,,,,3,,,64,127
61463,note_on,,143,0,1,,,,,,,,,,,,,,,3,,,64,0
61500,note_on,,37,0,1,,,,,,,,,,,,,,,3,,,71,127
61523,note_on,,23,0,1,,,,,,,,,,,,,,,3,,,56,0
61535,note_on,,12,0,1,,,,,,,,,,,,,,,3,,,71,0
61554,note_on,,19,0,1,,,,,,,,,,,,,,,3,,,64,0
61560,note_on,,6,0,1,,,,,,,,,,,,,,,3,,,74,127
61560,note_on,,0,0,1,,,,,,,,,,,,,,,3,,,56,127
61568,note_on,,8,0,1,,,,,,,,,,,,,,,3,,,71,0
61673,note_on,,105,0,1,,,,,,,,,,,,,,,3,,,74,0
61680,note_on,,7,0,1,,,,,,,,,,,,,,,3,,,76,127
61739,note_on,,59,0,1,,,,,,,,,,,,,,,3,,,76,0
61740,note_on,,1,0,1,,,,,,,,,,,,,,,3,,,77,127
61763,note_on,,23,0,1,,,,,,,,,,,,,,,3,,,56,0
61787,note_on,,24,0,1,,,,,,,,,,,,,,,3,,,77,0
61800,note_on,,13,0,1,,,,,,,,,,,,,,,3,,,76,127
61800,note_on,,0,0,1,,,,,,,,,,,,,,,3,,,71,127
61800,note_on,,0,0,1,,,,,,,,,,,,,,,3,,,64,127
61800,note_on,,0,0,1,,,,,,,,,,,,,,,3,,,44,127
61812,note_on,,12,0,1,,,,,,,,,,,,,,,3,,,76,0
61815,note_on,,3,0,1,,,,,,,,,,,,,,,3,,,74,127
61827,note_on,,12,0,1,,,,,,,,,,,,,,,3,,,74,0
61830,note_on,,3,0,1,,,,,,,,,,,,,,,3,,,76,127
61842,note_on,,12,0,1,,,,,,,,,,,,,,,3,,,76,0
61845,note_on,,3,0,1,,,,,,,,,,,,,,,3,,,74,127
61953,note_on,,108,0,1,,,,,,,,,,,,,,,3,,,74,0
61980,note_on,,27,0,1,,,,,,,,,,,,,,,3,,,74,127
62003,note_on,,0,0,1,,,,,,,,,,,,,,,3,,,44,0
62003,note_on,,0,0,1,,,,,,,,,,,,,,,3,,,64,0
62003,note_on,,23,0,1,,,,,,,,,,,,,,,3,,,71,0
62027,note_on,,24,0,1,,,,,,,,,,,,,,,3,,,74,0
62040,note_on,,13,0,1,,,,,,,,,,,,,,,3,,,74,127
62040,note_on,,0,0,1,,,,,,,,,,,,,,,3,,,71,127
62040,note_on,,0,0,1,,,,,,,,,,,,,,,3,,,64,127
62040,note_on,,0,0,1,,,,,,,,,,,,,,,3,,,45,127
62148,note_on,,108,0,1,,,,,,,,,,,,,,,3,,,74,0
62160,note_on,,12,0,1,,,,,,,,,,,,,,,3,,,72,127
62228,note_on,,68,0,1,,,,,,,,,,,,,,,3,,,72,0
62243,note_on,,15,0,1,,,,,,,,,,,,,,,3,,,45,0
62274,note_on,,31,0,1,,,,,,,,,,,,,,,3,,,71,0
62280,note_on,,0,0,1,,,,,,,,,,,,,,,3,,,57,127
62280,note_on,,6,0,1,,,,,,,,,,,,,,,3,,,72,127
62280,note_on,,0,0,1,,,,,,,,,,,,,,,3,,,69,127
62483,note_on,,203,0,1,,,,,,,,,,,,,,,3,,,57,0
62495,note_on,,12,0,1,,,,,,,,,,,,,,,3,,,64,0
62505,note_on,,10,0,1,,,,,,,,,,,,,,,3,,,69,0
62510,note_on,,5,0,1,,,,,,,,,,,,,,,3,,,72,0
62520,note_on,,10,0,1,,,,,,,,,,,,,,,3,,,57,127
62640,note_on,,120,0,1,,,,,,,,,,,,,,,3,,,72,127
62723,note_on,,83,0,1,,,,,,,,,,,,,,,3,,,57,0
62753,note_on,,30,0,1,,,,,,,,,,,,,,,3,,,72,0
62760,note_on,,0,0,1,,,,,,,,,,,,,,,3,,,45,127
62760,note_on,,0,0,1,,,,,,,,,,,,,,,3,,,69,127
62760,note_on,,7,0,1,,,,,,,,,,,,,,,3,,,74,127
62760,note_on,,0,0,1,,,,,,,,,,,,,,,3,,,64,127
62931,note_on,,171,0,1,,,,,,,,,,,,,,,3,,,74,0
62940,note_on,,9,0,1,,,,,,,,,,,,,,,3,,,72,127
62963,note_on,,23,0,1,,,,,,,,,,,,,,,3,,,45,0
62976,note_on,,13,0,1,,,,,,,,,,,,,,,3,,,64,0
62990,note_on,,14,0,1,,,,,,,,,,,,,,,3,,,69,0
62999,note_on,,9,0,1,,,,,,,,,,,,,,,3,,,72,0
63000,note_on,,1,0,1,,,,,,,,,,,,,,,3,,,70,127
63000,note_on,,0,0,1,,,,,,,,,,,,,,,3,,,67,127
63000,note_on,,0,0,1,,,,,,,,,,,,,,,3,,,60,127
63000,note_on,,0,0,1,,,,,,,,,,,,,,,3,,,40,127
63167,note_on,,167,0,1,,,,,,,,,,,,,,,3,,,70,0
63180,note_on,,13,0,1,,,,,,,,,,,,,,,3,,,67,127
63203,note_on,,23,0,1,,,,,,,,,,,,,,,3,,,40,0
63221,note_on,,18,0,1,,,,,,,,,,,,,,,3,,,67,0
63240,note_on,,19,0,1,,,,,,,,,,,,,,,3,,,60,127
63240,note_on,,0,0,1,,,,,,,,,,,,,,,3,,,52,127
63387,note_on,,147,0,1,,,,,,,,,,,,,,,3,,,60,0
63420,note_on,,33,0,1,,,,,,,,,,,,,,,3,,,67,127
63443,note_on,,23,0,1,,,,,,,,,,,,,,,3,,,52,0
63450,note_on,,7,0,1,,,,,,,,,,,,,,,3,,,67,0
63470,note_on,,20,0,1,,,,,,,,,,,,,,,3,,,60,0
63480,note_on,,10,0,1,,,,,,,,,,,,,,,3,,,70,127
63480,note_on,,0,0,1,,,,,,,,,,,,,,,3,,,52,127
63497,note_on,,17,0,1,,,,,,,,,,,,,,,3,,,67,0
63588,note_on,,91,0,1,,,,,,,,,,,,,,,3,,,70,0
63600,note_on,,12,0,1,,,,,,,,,,,,,,,3,,,72,127
63659,note_on,,59,0,1,,,,,,,,,,,,,,,3,,,72,0
63660,note_on,,1,0,1,,,,,,,,,,,,,,,3,,,74,127
63683,note_on,,23,0,1,,,,,,,,,,,,,,,3,,,52,0
63714,note_on,,31,0,1,,,,,,,,,,,,,,,3,,,74,0
63720,note_on,,6,0,1,,,,,,,,,,,,,,,3,,,70,127
63720,note_on,,0,0,1,,,,,,,,,,,,,,,3,,,67,127
63720,note_on,,0,0,1,,,,,,,,,,,,,,,3,,,60,127
63720,note_on,,0,0,1,,,,,,,,,,,,,,,3,,,40,127
63869,note_on,,149,0,1,,,,,,,,,,,,,,,3,,,70,0
63900,note_on,,31,0,1,,,,,,,,,,,,,,,3,,,70,127
63923,note_on,,23,0,1,,,,,,,,,,,,,,,3,,,67,0
63923,note_on,,0,0,1,,,,,,,,,,,,,,,3,,,60,0
63923,note_on,,0,0,1,,,,,,,,,,,,,,,3,,,40,0
63947,note_on,,24,0,1,,,,,,,,,,,,,,,3,,,70,0
63960,note_on,,0,0,1,,,,,,,,,,,,,,,3,,,67,127
63960,note_on,,0,0,1,,,,,,,,,,,,,,,3,,,60,127
63960,note_on,,0,0,1,,,,,,,,,,,,,,,3,,,41,127
63960,note_on,,13,0,1,,,,,,,,,,,,,,,3,,,70,127
64068,note_on,,108,0,1,,,,,,,,,,,,,,,3,,,70,0
64080,note_on,,12,0,1,,,,,,,,,,,,,,,3,,,69,127
64163,note_on,,83,0,1,,,,,,,,,,,,,,,3,,,41,0
64175,note_on,,12,0,1,,,,,,,,,,,,,,,3,,,69,0
64176,note_on,,1,0,1,,,,,,,,,,,,,,,3,,,67,0
64200,note_on,,24,0,1,,,,,,,,,,,,,,,3,,,69,127
64200,note_on,,0,0,1,,,,,,,,,,,,,,,3,,,65,127
64200,note_on,,0,0,1,,,,,,,,,,,,,,,3,,,53,127
64403,note_on,,203,0,1,,,,,,,,,,,,,,,3,,,53,0
64424,note_on,,21,0,1,,,,,,,,,,,,,,,3,,,60,0
64430,note_on,,6,0,1,,,,,,,,,,,,,,,3,,,69,0
64430,note_on,,0,0,1,,,,,,,,,,,,,,,3,,,65,0
64440,note_on,,10,0,1,,,,,,,,,,,,,,,3,,,53,127
64560,note_on,,120,0,1,,,,,,,,,,,,,,,3,,,69,127
64643,note_on,,83,0,1,,,,,,,,,,,,,,,3,,,53,0
64668,note_on,,25,0,1,,,,,,,,,,,,,,,3,,,69,0
64680,note_on,,12,0,1,,,,,,,,,,,,,,,3,,,70,127
64680,note_on,,0,0,1,,,,,,,,,,,,,,,3,,,62,127
64680,note_on,,0,0,1,,,,,,,,,,,,,,,3,,,57,127
64680,note_on,,0,0,1,,,,,,,,,,,,,,,3,,,41,127
64847,note_on,,167,0,1,,,,,,,,,,,,,,,3,,,70,0
64860,note_on,,13,0,1,,,,,,,,,,,,,,,3,,,69,127
64883,note_on,,23,0,1,,,,,,,,,,,,,,,3,,,57,0
64883,note_on,,0,0,1,,,,,,,,,,,,,,,3,,,41,0
64910,note_on,,27,0,1,,,,,,,,,,,,,,,3,,,62,0
64919,note_on,,9,0,1,,,,,,,,,,,,,,,3,,,69,0
64920,note_on,,0,0,1,,,,,,,,,,,,,,,3,,,57,127
64920,note_on,,0,0,1,,,,,,,,,,,,,,,3,,,49,127
64920,note_on,,0,0,1,,,,,,,,,,,,,,,3,,,64,127
64920,note_on,,1,0,1,,,,,,,,,,,,,,,3,,,67,127
65087,note_on,,167,0,1,,,,,,,,,,,,,,,3,,,67,0
65100,note_on,,13,0,1,,,,,,,,,,,,,,,3,,,64,127
65123,note_on,,23,0,1,,,,,,,,,,,,,,,3,,,49,0
65141,note_on,,18,0,1,,,,,,,,,,,,,,,3,,,64,0
65160,note_on,,19,0,1,,,,,,,,,,,,,,,3,,,57,127
65160,note_on,,0,0,1,,,,,,,,,,,,,,,3,,,61,127
65307,note_on,,147,0,1,,,,,,,,,,,,,,,3,,,57,0
65340,note_on,,33,0,1,,,,,,,,,,,,,,,3,,,64,127
65363,note_on,,23,0,1,,,,,,,,,,,,,,,3,,,61,0
65375,note_on,,12,0,1,,,,,,,,,,,,,,,3,,,64,0
65399,note_on,,24,0,1,,,,,,,,,,,,,,,3,,,57,0
65400,note_on,,1,0,1,,,,,,,,,,,,,,,3,,,67,127
65400,note_on,,0,0,1,,,,,,,,,,,,,,,3,,,61,127
65403,note_on,,3,0,1,,,,,,,,,,,,,,,3,,,64,0
65508,note_on,,105,0,1,,,,,,,,,,,,,,,3,,,67,0
65520,note_on,,12,0,1,,,,,,,,,,,,,,,3,,,69,127
65579,note_on,,59,0,1,,,,,,,,,,,,,,,3,,,69,0
65580,note_on,,1,0,1,,,,,,,,,,,,,,,3,,,70,127
65603,note_on,,23,0,1,,,,,,,,,,,,,,,3,,,61,0
65639,note_on,,36,0,1,,,,,,,,,,,,,,,3,,,70,0
65640,note_on,,0,0,1,,,,,,,,,,,,,,,3,,,49,127
65640,note_on,,0,0,1,,,,,,,,,,,,,,,3,,,57,127
65640,note_on,,1,0,1,,,,,,,,,,,,,,,3,,,67,127
65640,note_on,,0,0,1,,,,,,,,,,,,,,,3,,,64,127
65789,note_on,,149,0,1,,,,,,,,,,,,,,,3,,,67,0
65820,note_on,,31,0,1,,,,,,,,,,,,,,,3,,,67,127
65843,note_on,,23,0,1,,,,,,,,,,,,,,,3,,,64,0
65843,note_on,,0,0,1,,,,,,,,,,,,,,,3,,,57,0
65843,note_on,,0,0,1,,,,,,,,,,,,,,,3,,,49,0
65867,note_on,,24,0,1,,,,,,,,,,,,,,,3,,,67,0
65880,note_on,,13,0,1,,,,,,,,,,,,,,,3,,,67,127
65880,note_on,,0,0,1,,,,,,,,,,,,,,,3,,,64,127
65880,note_on,,0,0,1,,,,,,,,,,,,,,,3,,,50,127
65880,note_on,,0,0,1,,,,,,,,,,,,,,,3,,,57,127
65988,note_on,,108,0,1,,,,,,,,,,,,,,,3,,,67,0
66000,note_on,,12,0,1,,,,,,,,,,,,,,,3,,,65,127
66083,note_on,,83,0,1,,,,,,,,,,,,,,,3,,,50,0
66095,note_on,,12,0,1,,,,,,,,,,,,,,,3,,,65,0
66105,note_on,,10,0,1,,,,,,,,,,,,,,,3,,,64,0
66120,note_on,,0,0,1,,,,,,,,,,,,,,,3,,,62,127
66120,note_on,,0,0,1,,,,,,,,,,,,,,,3,,,62,127
66120,note_on,,15,0,1,,,,,,,,,,,,,,,3,,,65,127
66323,note_on,,203,0,1,,,,,,,,,,,,,,,3,,,65,0
66323,note_on,,0,0,1,,,,,,,,,,,,,,,3,,,62,0
66335,note_on,,12,0,1,,,,,,,,,,,,,,,3,,,57,0
66350,note_on,,15,0,1,,,,,,,,,,,,,,,3,,,62,0
66360,note_on,,10,0,1,,,,,,,,,,,,,,,3,,,65,127
66360,note_on,,0,0,1,,,,,,,,,,,,,,,3,,,62,127
66419,note_on,,59,0,1,,,,,,,,,,,,,,,3,,,65,0
66420,note_on,,1,0,1,,,,,,,,,,,,,,,3,,,64,127
66474,note_on,,54,0,1,,,,,,,,,,,,,,,3,,,64,0
66480,note_on,,6,0,1,,,,,,,,,,,,,,,3,,,62,127
66563,note_on,,83,0,1,,,,,,,,,,,,,,,3,,,62,0
66575,note_on,,12,0,1,,,,,,,,,,,,,,,3,,,62,0
66600,note_on,,25,0,1,,,,,,,,,,,,,,,3,,,69,127
66600,note_on,,0,0,1,,,,,,,,,,,,,,,3,,,65,127
66600,note_on,,0,0,1,,,,,,,,,,,,,,,3,,,62,127
66600,note_on,,0,0,1,,,,,,,,,,,,,,,3,,,50,127
66660,note_on,,60,0,1,,,,,,,,,,,,,,,3,,,67,127
66668,note_on,,8,0,1,,,,,,,,,,,,,,,3,,,69,0
66719,note_on,,51,0,1,,,,,,,,,,,,,,,3,,,67,0
66720,note_on,,1,0,1,,,,,,,,,,,,,,,3,,,65,127
66803,note_on,,0,0,1,,,,,,,,,,,,,,,3,,,50,0
66803,note_on,,0,0,1,,,,,,,,,,,,,,,3,,,62,0
66803,note_on,,83,0,1,,,,,,,,,,,,,,,3,,,65,0
66833,note_on,,30,0,1,,,,,,,,,,,,,,,3,,,65,0
66840,note_on,,0,0,1,,,,,,,,,,,,,,,3,,,62,127
66840,note_on,,0,0,1,,,,,,,,,,,,,,,3,,,43,127
66840,note_on,,7,0,1,,,,,,,,,,,,,,,3,,,70,127
66840,note_on,,0,0,1,,,,,,,,,,,,,,,3,,,67,127
66899,note_on,,59,0,1,,,,,,,,,,,,,,,3,,,70,0
66900,note_on,,1,0,1,,,,,,,,,,,,,,,3,,,69,127
66959,note_on,,59,0,1,,,,,,,,,,,,,,,3,,,69,0
66960,note_on,,1,0,1,,,,,,,,,,,,,,,3,,,67,127
67043,note_on,,83,0,1,,,,,,,,,,,,,,,3,,,67,0
67043,note_on,,0,0,1,,,,,,,,,,,,,,,3,,,43,0
67080,note_on,,37,0,1,,,,,,,,,,,,,,,3,,,74,127
67080,note_on,,0,0,1,,,,,,,,,,,,,,,3,,,55,127
67140,note_on,,60,0,1,,,,,,,,,,,,,,,3,,,72,127
67148,note_on,,8,0,1,,,,,,,,,,,,,,,3,,,74,0
67199,note_on,,51,0,1,,,,,,,,,,,,,,,3,,,72,0
67200,note_on,,1,0,1,,,,,,,,,,,,,,,3,,,70,127
67283,note_on,,83,0,1,,,,,,,,,,,,,,,3,,,55,0
67286,note_on,,3,0,1,,,,,,,,,,,,,,,3,,,62,0
67295,note_on,,9,0,1,,,,,,,,,,,,,,,3,,,70,0
67302,note_on,,7,0,1,,,,,,,,,,,,,,,3,,,67,0
67320,note_on,,18,0,1,,,,,,,,,,,,,,,3,,,79,127
67320,note_on,,0,0,1,,,,,,,,,,,,,,,3,,,55,127
67433,note_on,,113,0,1,,,,,,,,,,,,,,,3,,,79,0
67440,note_on,,7,0,1,,,,,,,,,,,,,,,3,,,81,127
67499,note_on,,59,0,1,,,,,,,,,,,,,,,3,,,81,0
67500,note_on,,1,0,1,,,,,,,,,,,,,,,3,,,82,127
67523,note_on,,23,0,1,,,,,,,,,,,,,,,3,,,55,0
67559,note_on,,36,0,1,,,,,,,,,,,,,,,3,,,82,0
67560,note_on,,1,0,1,,,,,,,,,,,,,,,3,,,75,127
67560,note_on,,0,0,1,,,,,,,,,,,,,,,3,,,70,127
67560,note_on,,0,0,1,,,,,,,,,,,,,,,3,,,67,127
67560,note_on,,0,0,1,,,,,,,,,,,,,,,3,,,43,127
67709,note_on,,149,0,1,,,,,,,,,,,,,,,3,,,75,0
67740,note_on,,31,0,1,,,,,,,,,,,,,,,3,,,79,127
67763,note_on,,23,0,1,,,,,,,,,,,,,,,3,,,43,0
67781,note_on,,18,0,1,,,,,,,,,,,,,,,3,,,67,0
67785,note_on,,4,0,1,,,,,,,,,,,,,,,3,,,70,0
67787,note_on,,2,0,1,,,,,,,,,,,,,,,3,,,79,0
67800,note_on,,13,0,1,,,,,,,,,,,,,,,3,,,79,127
67800,note_on,,0,0,1,,,,,,,,,,,,,,,3,,,69,127
67800,note_on,,0,0,1,,,,,,,,,,,,,,,3,,,64,127
67800,note_on,,0,0,1,,,,,,,,,,,,,,,3,,,43,127
67913,note_on,,113,0,1,,,,,,,,,,,,,,,3,,,79,0
67920,note_on,,7,0,1,,,,,,,,,,,,,,,3,,,73,127
67997,note_on,,77,0,1,,,,,,,,,,,,,,,3,,,73,0
68003,note_on,,6,0,1,,,,,,,,,,,,,,,3,,,43,0
68040,note_on,,0,0,1,,,,,,,,,,,,,,,3,,,55,127
68040,note_on,,37,0,1,,,,,,,,,,,,,,,3,,,73,127
68243,note_on,,203,0,1,,,,,,,,,,,,,,,3,,,55,0
68246,note_on,,3,0,1,,,,,,,,,,,,,,,3,,,69,0
68255,note_on,,9,0,1,,,,,,,,,,,,,,,3,,,64,0
68274,note_on,,19,0,1,,,,,,,,,,,,,,,3,,,73,0
68280,note_on,,6,0,1,,,,,,,,,,,,,,,3,,,55,127
68400,note_on,,120,0,1,,,,,,,,,,,,,,,3,,,73,127
68483,note_on,,83,0,1,,,,,,,,,,,,,,,3,,,55,0
68513,note_on,,30,0,1,,,,,,,,,,,,,,,3,,,73,0
68520,note_on,,7,0,1,,,,,,,,,,,,,,,3,,,81,127
68520,note_on,,0,0,1,,,,,,,,,,,,,,,3,,,69,127
68520,note_on,,0,0,1,,,,,,,,,,,,,,,3,,,64,127
68520,note_on,,0,0,1,,,,,,,,,,,,,,,3,,,43,127
68687,note_on,,167,0,1,,,,,,,,,,,,,,,3,,,81,0
68700,note_on,,13,0,1,,,,,,,,,,,,,,,3,,,73,127
68723,note_on,,0,0,1,,,,,,,,,,,,,,,3,,,43,0
68723,note_on,,23,0,1,,,,,,,,,,,,,,,3,,,69,0
68741,note_on,,18,0,1,,,,,,,,,,,,,,,3,,,64,0
68759,note_on,,18,0,1,,,,,,,,,,,,,,,3,,,73,0
68760,note_on,,1,0,1,,,,,,,,,,,,,,,3,,,74,127
68760,note_on,,0,0,1,,,,,,,,,,,,,,,3,,,69,127
68760,note_on,,0,0,1,,,,,,,,,,,,,,,3,,,62,127
68760,note_on,,0,0,1,,,,,,,,,,,,,,,3,,,41,127
68909,note_on,,149,0,1,,,,,,,,,,,,,,,3,,,74,0
68940,note_on,,31,0,1,,,,,,,,,,,,,,,3,,,76,127
68963,note_on,,23,0,1,,,,,,,,,,,,,,,3,,,62,0
68963,note_on,,0,0,1,,,,,,,,,,,,,,,3,,,41,0
68976,note_on,,13,0,1,,,,,,,,,,,,,,,3,,,69,0
68999,note_on,,23,0,1,,,,,,,,,,,,,,,3,,,76,0
69000,note_on,,1,0,1,,,,,,,,,,,,,,,3,,,74,127
69000,note_on,,0,0,1,,,,,,,,,,,,,,,3,,,70,127
69000,note_on,,0,0,1,,,,,,,,,,,,,,,3,,,62,127
69000,note_on,,0,0,1,,,,,,,,,,,,,,,3,,,43,127
69054,note_on,,54,0,1,,,,,,,,,,,,,,,3,,,74,0
69060,note_on,,6,0,1,,,,,,,,,,,,,,,3,,,73,127
69114,note_on,,54,0,1,,,,,,,,,,,,,,,3,,,73,0
69120,note_on,,6,0,1,,,,,,,,,,,,,,,3,,,74,127
69179,note_on,,59,0,1,,,,,,,,,,,,,,,3,,,74,0
69180,note_on,,1,0,1,,,,,,,,,,,,,,,3,,,76,127
69203,note_on,,0,0,1,,,,,,,,,,,,,,,3,,,43,0
69203,note_on,,23,0,1,,,,,,,,,,,,,,,3,,,62,0
69225,note_on,,22,0,1,,,,,,,,,,,,,,,3,,,70,0
69227,note_on,,2,0,1,,,,,,,,,,,,,,,3,,,76,0
69240,note_on,,13,0,1,,,,,,,,,,,,,,,3,,,76,127
69240,note_on,,0,0,1,,,,,,,,,,,,,,,3,,,69,127
69240,note_on,,0,0,1,,,,,,,,,,,,,,,3,,,62,127
69240,note_on,,0,0,1,,,,,,,,,,,,,,,3,,,45,127
69263,note_on,,23,0,1,,,,,,,,,,,,,,,3,,,76,0
69270,note_on,,7,0,1,,,,,,,,,,,,,,,3,,,77,127
69293,note_on,,23,0,1,,,,,,,,,,,,,,,3,,,77,0
69300,note_on,,7,0,1,,,,,,,,,,,,,,,3,,,76,127
69312,note_on,,12,0,1,,,,,,,,,,,,,,,3,,,76,0
69315,note_on,,3,0,1,,,,,,,,,,,,,,,3,,,77,127
69327,note_on,,12,0,1,,,,,,,,,,,,,,,3,,,77,0
69330,note_on,,3,0,1,,,,,,,,,,,,,,,3,,,76,127
69342,note_on,,12,0,1,,,,,,,,,,,,,,,3,,,76,0
69345,note_on,,3,0,1,,,,,,,,,,,,,,,3,,,77,127
69357,note_on,,12,0,1,,,,,,,,,,,,,,,3,,,77,0
69360,note_on,,3,0,1,,,,,,,,,,,,,,,3,,,76,127
69372,note_on,,12,0,1,,,,,,,,,,,,,,,3,,,76,0
69375,note_on,,3,0,1,,,,,,,,,,,,,,,3,,,77,127
69387,note_on,,12,0,1,,,,,,,,,,,,,,,3,,,77,0
69390,note_on,,3,0,1,,,,,,,,,,,,,,,3,,,76,127
69402,note_on,,12,0,1,,,,,,,,,,,,,,,3,,,76,0
69405,note_on,,3,0,1,,,,,,,,,,,,,,,3,,,77,127
69417,note_on,,12,0,1,,,,,,,,,,,,,,,3,,,77,0
69420,note_on,,3,0,1,,,,,,,,,,,,,,,3,,,76,127
69443,note_on,,23,0,1,,,,,,,,,,,,,,,3,,,45,0
69461,note_on,,18,0,1,,,,,,,,,,,,,,,3,,,69,0
69470,note_on,,9,0,1,,,,,,,,,,,,,,,3,,,62,0
69480,note_on,,0,0,1,,,,,,,,,,,,,,,3,,,45,127
69480,note_on,,0,0,1,,,,,,,,,,,,,,,3,,,61,127
69480,note_on,,10,0,1,,,,,,,,,,,,,,,3,,,67,127
69569,note_on,,89,0,1,,,,,,,,,,,,,,,3,,,76,0
69600,note_on,,31,0,1,,,,,,,,,,,,,,,3,,,74,127
69683,note_on,,83,0,1,,,,,,,,,,,,,,,3,,,45,0
69695,note_on,,12,0,1,,,,,,,,,,,,,,,3,,,74,0
69705,note_on,,10,0,1,,,,,,,,,,,,,,,3,,,61,0
69714,note_on,,9,0,1,,,,,,,,,,,,,,,3,,,67,0
69720,note_on,,0,0,1,,,,,,,,,,,,,,,3,,,62,127
69720,note_on,,6,0,1,,,,,,,,,,,,,,,3,,,74,127
69720,note_on,,0,0,1,,,,,,,,,,,,,,,3,,,65,127
69720,note_on,,0,0,1,,,,,,,,,,,,,,,3,,,38,127
69923,note_on,,203,0,1,,,,,,,,,,,,,,,3,,,38,0
69960,note_on,,37,0,1,,,,,,,,,,,,,,,3,,,50,127
70163,note_on,,203,0,1,,,,,,,,,,,,,,,3,,,50,0
70170,note_on,,0,0,1,,,,,,,,,,,,,,,3,,,62,0
70170,note_on,,7,0,1,,,,,,,,,,,,,,,3,,,74,0
70184,note_on,,14,0,1,,,,,,,,,,,,,,,3,,,65,0
70200,note_on,,16,0,1,,,,,,,,,,,,,,,3,,,50,127
70320,note_on,,120,0,1,,,,,,,,,,,,,,,3,,,74,127
70403,note_on,,83,0,1,,,,,,,,,,,,,,,3,,,50,0
70433,note_on,,30,0,1,,,,,,,,,,,,,,,3,,,74,0
70440,note_on,,0,0,1,,,,,,,,,,,,,,,3,,,38,127
70440,note_on,,7,0,1,,,,,,,,,,,,,,,3,,,76,127
70440,note_on,,0,0,1,,,,,,,,,,,,,,,3,,,69,127
70440,note_on,,0,0,1,,,,,,,,,,,,,,,3,,,62,127
70611,note_on,,171,0,1,,,,,,,,,,,,,,,3,,,76,0
70620,note_on,,9,0,1,,,,,,,,,,,,,,,3,,,77,127
70643,note_on,,23,0,1,,,,,,,,,,,,,,,3,,,62,0
70643,note_on,,0,0,1,,,,,,,,,,,,,,,3,,,38,0
70661,note_on,,18,0,1,,,,,,,,,,,,,,,3,,,69,0
70679,note_on,,18,0,1,,,,,,,,,,,,,,,3,,,77,0
70680,note_on,,1,0,1,,,,,,,,,,,,,,,3,,,71,127
70680,note_on,,0,0,1,,,,,,,,,,,,,,,3,,,67,127
70680,note_on,,0,0,1,,,,,,,,,,,,,,,3,,,62,127
70680,note_on,,0,0,1,,,,,,,,,,,,,,,3,,,43,127
70829,note_on,,149,0,1,,,,,,,,,,,,,,,3,,,71,0
70860,note_on,,31,0,1,,,,,,,,,,,,,,,3,,,77,127
70883,note_on,,23,0,1,,,,,,,,,,,,,,,3,,,43,0
70919,note_on,,36,0,1,,,,,,,,,,,,,,,3,,,77,0
70920,note_on,,0,0,1,,,,,,,,,,,,,,,3,,,55,127
70920,note_on,,1,0,1,,,,,,,,,,,,,,,3,,,71,127
71069,note_on,,149,0,1,,,,,,,,,,,,,,,3,,,71,0
71100,note_on,,31,0,1,,,,,,,,,,,,,,,3,,,77,127
71123,note_on,,23,0,1,,,,,,,,,,,,,,,3,,,55,0
71126,note_on,,3,0,1,,,,,,,,,,,,,,,3,,,67,0
71126,note_on,,0,0,1,,,,,,,,,,,,,,,3,,,62,0
71159,note_on,,33,0,1,,,,,,,,,,,,,,,3,,,77,0
71160,note_on,,1,0,1,,,,,,,,,,,,,,,3,,,67,127
71160,note_on,,0,0,1,,,,,,,,,,,,,,,3,,,55,127
71309,note_on,,149,0,1,,,,,,,,,,,,,,,3,,,67,0
71340,note_on,,31,0,1,,,,,,,,,,,,,,,3,,,77,127
71363,note_on,,23,0,1,,,,,,,,,,,,,,,3,,,55,0
71399,note_on,,36,0,1,,,,,,,,,,,,,,,3,,,77,0
71400,note_on,,0,0,1,,,,,,,,,,,,,,,3,,,43,127
71400,note_on,,1,0,1,,,,,,,,,,,,,,,3,,,76,127
71400,note_on,,0,0,1,,,,,,,,,,,,,,,3,,,67,127
71400,note_on,,0,0,1,,,,,,,,,,,,,,,3,,,62,127
71567,note_on,,167,0,1,,,,,,,,,,,,,,,3,,,76,0
71580,note_on,,13,0,1,,,,,,,,,,,,,,,3,,,74,127
71603,note_on,,23,0,1,,,,,,,,,,,,,,,3,,,67,0
71603,note_on,,0,0,1,,,,,,,,,,,,,,,3,,,43,0
71621,note_on,,18,0,1,,,,,,,,,,,,,,,3,,,62,0
71639,note_on,,18,0,1,,,,,,,,,,,,,,,3,,,74,0
71640,note_on,,1,0,1,,,,,,,,,,,,,,,3,,,76,127
71640,note_on,,0,0,1,,,,,,,,,,,,,,,3,,,67,127
71640,note_on,,0,0,1,,,,,,,,,,,,,,,3,,,60,127
71640,note_on,,0,0,1,,,,,,,,,,,,,,,3,,,48,127
71843,note_on,,203,0,1,,,,,,,,,,,,,,,3,,,48,0
71880,note_on,,37,0,1,,,,,,,,,,,,,,,3,,,60,127
71951,note_on,,71,0,1,,,,,,,,,,,,,,,3,,,76,0
72000,note_on,,49,0,1,,,,,,,,,,,,,,,3,,,74,127
72059,note_on,,59,0,1,,,,,,,,,,,,,,,3,,,60,0
72095,note_on,,36,0,1,,,,,,,,,,,,,,,3,,,67,0
72113,note_on,,18,0,1,,,,,,,,,,,,,,,3,,,74,0
72114,note_on,,1,0,1,,,,,,,,,,,,,,,3,,,60,0
72120,note_on,,6,0,1,,,,,,,,,,,,,,,3,,,72,127
72120,note_on,,0,0,1,,,,,,,,,,,,,,,3,,,60,127
72287,note_on,,167,0,1,,,,,,,,,,,,,,,3,,,72,0
72300,note_on,,13,0,1,,,,,,,,,,,,,,,3,,,71,127
72323,note_on,,23,0,1,,,,,,,,,,,,,,,3,,,60,0
72359,note_on,,36,0,1,,,,,,,,,,,,,,,3,,,71,0
72360,note_on,,0,0,1,,,,,,,,,,,,,,,3,,,48,127
72360,note_on,,0,0,1,,,,,,,,,,,,,,,3,,,64,127
72360,note_on,,0,0,1,,,,,,,,,,,,,,,3,,,60,127
72360,note_on,,1,0,1,,,,,,,,,,,,,,,3,,,69,127
72522,note_on,,162,0,1,,,,,,,,,,,,,,,3,,,69,0
72540,note_on,,18,0,1,,,,,,,,,,,,,,,3,,,67,127
72563,note_on,,23,0,1,,,,,,,,,,,,,,,3,,,48,0
72581,note_on,,18,0,1,,,,,,,,,,,,,,,3,,,64,0
72590,note_on,,9,0,1,,,,,,,,,,,,,,,3,,,60,0
72594,note_on,,4,0,1,,,,,,,,,,,,,,,3,,,67,0
72600,note_on,,0,0,1,,,,,,,,,,,,,,,3,,,57,127
72600,note_on,,6,0,1,,,,,,,,,,,,,,,3,,,66,127
72600,note_on,,0,0,1,,,,,,,,,,,,,,,3,,,62,127
72600,note_on,,0,0,1,,,,,,,,,,,,,,,3,,,48,127
72749,note_on,,149,0,1,,,,,,,,,,,,,,,3,,,66,0
72780,note_on,,31,0,1,,,,,,,,,,,,,,,3,,,74,127
72803,note_on,,23,0,1,,,,,,,,,,,,,,,3,,,48,0
72839,note_on,,36,0,1,,,,,,,,,,,,,,,3,,,74,0
72840,note_on,,0,0,1,,,,,,,,,,,,,,,3,,,60,127
72840,note_on,,1,0,1,,,,,,,,,,,,,,,3,,,66,127
72989,note_on,,149,0,1,,,,,,,,,,,,,,,3,,,66,0
73020,note_on,,31,0,1,,,,,,,,,,,,,,,3,,,74,127
73043,note_on,,23,0,1,,,,,,,,,,,,,,,3,,,60,0
73050,note_on,,7,0,1,,,,,,,,,,,,,,,3,,,62,0
73050,note_on,,0,0,1,,,,,,,,,,,,,,,3,,,57,0
73079,note_on,,29,0,1,,,,,,,,,,,,,,,3,,,74,0
73080,note_on,,1,0,1,,,,,,,,,,,,,,,3,,,68,127
73080,note_on,,0,0,1,,,,,,,,,,,,,,,3,,,59,127
73229,note_on,,149,0,1,,,,,,,,,,,,,,,3,,,68,0
73260,note_on,,31,0,1,,,,,,,,,,,,,,,3,,,74,127
73283,note_on,,23,0,1,,,,,,,,,,,,,,,3,,,59,0
73319,note_on,,36,0,1,,,,,,,,,,,,,,,3,,,74,0
73320,note_on,,0,0,1,,,,,,,,,,,,,,,3,,,52,127
73320,note_on,,0,0,1,,,,,,,,,,,,,,,3,,,64,127
73320,note_on,,1,0,1,,,,,,,,,,,,,,,3,,,72,127
73320,note_on,,0,0,1,,,,,,,,,,,,,,,3,,,56,127
73491,note_on,,171,0,1,,,,,,,,,,,,,,,3,,,72,0
73500,note_on,,9,0,1,,,,,,,,,,,,,,,3,,,71,127
73523,note_on,,23,0,1,,,,,,,,,,,,,,,3,,,64,0
73523,note_on,,0,0,1,,,,,,,,,,,,,,,3,,,52,0
73545,note_on,,22,0,1,,,,,,,,,,,,,,,3,,,56,0
73559,note_on,,14,0,1,,,,,,,,,,,,,,,3,,,71,0
73560,note_on,,1,0,1,,,,,,,,,,,,,,,3,,,72,127
73560,note_on,,0,0,1,,,,,,,,,,,,,,,3,,,64,127
73560,note_on,,0,0,1,,,,,,,,,,,,,,,3,,,57,127
73560,note_on,,0,0,1,,,,,,,,,,,,,,,3,,,45,127
73763,note_on,,203,0,1,,,,,,,,,,,,,,,3,,,45,0
73800,note_on,,37,0,1,,,,,,,,,,,,,,,3,,,57,127
73979,note_on,,179,0,1,,,,,,,,,,,,,,,3,,,57,0
74006,note_on,,27,0,1,,,,,,,,,,,,,,,3,,,72,0
74006,note_on,,0,0,1,,,,,,,,,,,,,,,3,,,64,0
74034,note_on,,28,0,1,,,,,,,,,,,,,,,3,,,57,0
74040,note_on,,6,0,1,,,,,,,,,,,,,,,3,,,57,127
74160,note_on,,120,0,1,,,,,,,,,,,,,,,3,,,81,127
74243,note_on,,83,0,1,,,,,,,,,,,,,,,3,,,57,0
74268,note_on,,25,0,1,,,,,,,,,,,,,,,3,,,81,0
74280,note_on,,12,0,1,,,,,,,,,,,,,,,3,,,79,127
74280,note_on,,0,0,1,,,,,,,,,,,,,,,3,,,64,127
74280,note_on,,0,0,1,,,,,,,,,,,,,,,3,,,64,127
74280,note_on,,0,0,1,,,,,,,,,,,,,,,3,,,45,127
74447,note_on,,167,0,1,,,,,,,,,,,,,,,3,,,79,0
74460,note_on,,13,0,1,,,,,,,,,,,,,,,3,,,81,127
74483,note_on,,23,0,1,,,,,,,,,,,,,,,3,,,45,0
74501,note_on,,18,0,1,,,,,,,,,,,,,,,3,,,64,0
74501,note_on,,0,0,1,,,,,,,,,,,,,,,3,,,64,0
74519,note_on,,18,0,1,,,,,,,,,,,,,,,3,,,81,0
74520,note_on,,1,0,1,,,,,,,,,,,,,,,3,,,82,127
74520,note_on,,0,0,1,,,,,,,,,,,,,,,3,,,65,127
74520,note_on,,0,0,1,,,,,,,,,,,,,,,3,,,65,127
74520,note_on,,0,0,1,,,,,,,,,,,,,,,3,,,38,127
74691,note_on,,171,0,1,,,,,,,,,,,,,,,3,,,82,0
74700,note_on,,9,0,1,,,,,,,,,,,,,,,3,,,77,127
74723,note_on,,23,0,1,,,,,,,,,,,,,,,3,,,38,0
74759,note_on,,36,0,1,,,,,,,,,,,,,,,3,,,77,0
74760,note_on,,1,0,1,,,,,,,,,,,,,,,3,,,74,127
74760,note_on,,0,0,1,,,,,,,,,,,,,,,3,,,50,127
74927,note_on,,167,0,1,,,,,,,,,,,,,,,3,,,74,0
74940,note_on,,13,0,1,,,,,,,,,,,,,,,3,,,77,127
74963,note_on,,23,0,1,,,,,,,,,,,,,,,3,,,50,0
74966,note_on,,3,0,1,,,,,,,,,,,,,,,3,,,65,0
74970,note_on,,4,0,1,,,,,,,,,,,,,,,3,,,65,0
74999,note_on,,29,0,1,,,,,,,,,,,,,,,3,,,77,0
75000,note_on,,1,0,1,,,,,,,,,,,,,,,3,,,70,127
75000,note_on,,0,0,1,,,,,,,,,,,,,,,3,,,50,127
75149,note_on,,149,0,1,,,,,,,,,,,,,,,3,,,70,0
75180,note_on,,31,0,1,,,,,,,,,,,,,,,3,,,77,127
75203,note_on,,23,0,1,,,,,,,,,,,,,,,3,,,50,0
75239,note_on,,36,0,1,,,,,,,,,,,,,,,3,,,77,0
75240,note_on,,0,0,1,,,,,,,,,,,,,,,3,,,62,127
75240,note_on,,0,0,1,,,,,,,,,,,,,,,3,,,38,127
75240,note_on,,1,0,1,,,,,,,,,,,,,,,3,,,82,127
75240,note_on,,0,0,1,,,,,,,,,,,,,,,3,,,65,127
75402,note_on,,162,0,1,,,,,,,,,,,,,,,3,,,82,0
75420,note_on,,18,0,1,,,,,,,,,,,,,,,3,,,69,127
75443,note_on,,23,0,1,,,,,,,,,,,,,,,3,,,38,0
75461,note_on,,18,0,1,,,,,,,,,,,,,,,3,,,65,0
75465,note_on,,4,0,1,,,,,,,,,,,,,,,3,,,62,0
75479,note_on,,14,0,1,,,,,,,,,,,,,,,3,,,69,0
75480,note_on,,1,0,1,,,,,,,,,,,,,,,3,,,68,127
75480,note_on,,0,0,1,,,,,,,,,,,,,,,3,,,64,127
75480,note_on,,0,0,1,,,,,,,,,,,,,,,3,,,59,127
75480,note_on,,0,0,1,,,,,,,,,,,,,,,3,,,38,127
75539,note_on,,59,0,1,,,,,,,,,,,,,,,3,,,68,0
75540,note_on,,1,0,1,,,,,,,,,,,,,,,3,,,66,127
75600,note_on,,60,0,1,,,,,,,,,,,,,,,3,,,64,127
75603,note_on,,3,0,1,,,,,,,,,,,,,,,3,,,66,0
75683,note_on,,0,0,1,,,,,,,,,,,,,,,3,,,38,0
75683,note_on,,80,0,1,,,,,,,,,,,,,,,3,,,64,0
75705,note_on,,22,0,1,,,,,,,,,,,,,,,3,,,59,0
75717,note_on,,12,0,1,,,,,,,,,,,,,,,3,,,64,0
75720,note_on,,3,0,1,,,,,,,,,,,,,,,3,,,69,127
75720,note_on,,0,0,1,,,,,,,,,,,,,,,3,,,54,127
75720,note_on,,0,0,1,,,,,,,,,,,,,,,3,,,50,127
75779,note_on,,59,0,1,,,,,,,,,,,,,,,3,,,69,0
75780,note_on,,1,0,1,,,,,,,,,,,,,,,3,,,68,127
75839,note_on,,59,0,1,,,,,,,,,,,,,,,3,,,68,0
75840,note_on,,1,0,1,,,,,,,,,,,,,,,3,,,66,127
75923,note_on,,83,0,1,,,,,,,,,,,,,,,3,,,50,0
75935,note_on,,12,0,1,,,,,,,,,,,,,,,3,,,66,0
75936,note_on,,1,0,1,,,,,,,,,,,,,,,3,,,54,0
75960,note_on,,0,0,1,,,,,,,,,,,,,,,3,,,50,127
75960,note_on,,24,0,1,,,,,,,,,,,,,,,3,,,71,127
75960,note_on,,0,0,1,,,,,,,,,,,,,,,3,,,56,127
76019,note_on,,59,0,1,,,,,,,,,,,,,,,3,,,71,0
76020,note_on,,1,0,1,,,,,,,,,,,,,,,3,,,69,127
76079,note_on,,59,0,1,,,,,,,,,,,,,,,3,,,69,0
76080,note_on,,1,0,1,,,,,,,,,,,,,,,3,,,68,127
76163,note_on,,83,0,1,,,,,,,,,,,,,,,3,,,50,0
76175,note_on,,12,0,1,,,,,,,,,,,,,,,3,,,68,0
76181,note_on,,6,0,1,,,,,,,,,,,,,,,3,,,56,0
76200,note_on,,19,0,1,,,,,,,,,,,,,,,3,,,72,127
76200,note_on,,0,0,1,,,,,,,,,,,,,,,3,,,64,127
76200,note_on,,0,0,1,,,,,,,,,,,,,,,3,,,57,127
76200,note_on,,0,0,1,,,,,,,,,,,,,,,3,,,48,127
76260,note_on,,60,0,1,,,,,,,,,,,,,,,3,,,71,127
76263,note_on,,3,0,1,,,,,,,,,,,,,,,3,,,72,0
76308,note_on,,45,0,1,,,,,,,,,,,,,,,3,,,64,0
76314,note_on,,6,0,1,,,,,,,,,,,,,,,3,,,71,0
76320,note_on,,0,0,1,,,,,,,,,,,,,,,3,,,66,127
76320,note_on,,6,0,1,,,,,,,,,,,,,,,3,,,69,127
76403,note_on,,83,0,1,,,,,,,,,,,,,,,3,,,48,0
76415,note_on,,12,0,1,,,,,,,,,,,,,,,3,,,69,0
76421,note_on,,6,0,1,,,,,,,,,,,,,,,3,,,57,0
76437,note_on,,16,0,1,,,,,,,,,,,,,,,3,,,66,0
76440,note_on,,3,0,1,,,,,,,,,,,,,,,3,,,74,127
76440,note_on,,0,0,1,,,,,,,,,,,,,,,3,,,68,127
76440,note_on,,0,0,1,,,,,,,,,,,,,,,3,,,59,127
76440,note_on,,0,0,1,,,,,,,,,,,,,,,3,,,47,127
76607,note_on,,167,0,1,,,,,,,,,,,,,,,3,,,74,0
76620,note_on,,13,0,1,,,,,,,,,,,,,,,3,,,76,127
76643,note_on,,23,0,1,,,,,,,,,,,,,,,3,,,47,0
76665,note_on,,22,0,1,,,,,,,,,,,,,,,3,,,59,0
76670,note_on,,5,0,1,,,,,,,,,,,,,,,3,,,68,0
76679,note_on,,9,0,1,,,,,,,,,,,,,,,3,,,76,0
76680,note_on,,1,0,1,,,,,,,,,,,,,,,3,,,72,127
76680,note_on,,0,0,1,,,,,,,,,,,,,,,3,,,69,127
76680,note_on,,0,0,1,,,,,,,,,,,,,,,3,,,60,127
76680,note_on,,0,0,1,,,,,,,,,,,,,,,3,,,45,127
76847,note_on,,167,0,1,,,,,,,,,,,,,,,3,,,72,0
76851,note_on,,4,0,1,,,,,,,,,,,,,,,3,,,60,0
76860,note_on,,9,0,1,,,,,,,,,,,,,,,3,,,71,127
76860,note_on,,0,0,1,,,,,,,,,,,,,,,3,,,62,127
76883,note_on,,23,0,1,,,,,,,,,,,,,,,3,,,69,0
76883,note_on,,0,0,1,,,,,,,,,,,,,,,3,,,45,0
76901,note_on,,18,0,1,,,,,,,,,,,,,,,3,,,71,0
76919,note_on,,18,0,1,,,,,,,,,,,,,,,3,,,62,0
76920,note_on,,1,0,1,,,,,,,,,,,,,,,3,,,71,127
76920,note_on,,0,0,1,,,,,,,,,,,,,,,3,,,69,127
76920,note_on,,0,0,1,,,,,,,,,,,,,,,3,,,64,127
76920,note_on,,0,0,1,,,,,,,,,,,,,,,3,,,52,127
76974,note_on,,54,0,1,,,,,,,,,,,,,,,3,,,71,0
76980,note_on,,6,0,1,,,,,,,,,,,,,,,3,,,72,127
77007,note_on,,27,0,1,,,,,,,,,,,,,,,3,,,72,0
77010,note_on,,3,0,1,,,,,,,,,,,,,,,3,,,71,127
77033,note_on,,23,0,1,,,,,,,,,,,,,,,3,,,71,0
77040,note_on,,7,0,1,,,,,,,,,,,,,,,3,,,72,127
77063,note_on,,23,0,1,,,,,,,,,,,,,,,3,,,72,0
77070,note_on,,7,0,1,,,,,,,,,,,,,,,3,,,71,127
77082,note_on,,12,0,1,,,,,,,,,,,,,,,3,,,71,0
77085,note_on,,3,0,1,,,,,,,,,,,,,,,3,,,72,127
77097,note_on,,12,0,1,,,,,,,,,,,,,,,3,,,72,0
77100,note_on,,3,0,1,,,,,,,,,,,,,,,3,,,71,127
77112,note_on,,12,0,1,,,,,,,,,,,,,,,3,,,71,0
77115,note_on,,3,0,1,,,,,,,,,,,,,,,3,,,72,127
77123,note_on,,8,0,1,,,,,,,,,,,,,,,3,,,52,0
77127,note_on,,4,0,1,,,,,,,,,,,,,,,3,,,72,0
77130,note_on,,3,0,1,,,,,,,,,,,,,,,3,,,71,127
77141,note_on,,11,0,1,,,,,,,,,,,,,,,3,,,69,0
77142,note_on,,1,0,1,,,,,,,,,,,,,,,3,,,71,0
77145,note_on,,3,0,1,,,,,,,,,,,,,,,3,,,72,127
77150,note_on,,5,0,1,,,,,,,,,,,,,,,3,,,64,0
77157,note_on,,7,0,1,,,,,,,,,,,,,,,3,,,72,0
77160,note_on,,0,0,1,,,,,,,,,,,,,,,3,,,68,127
77160,note_on,,0,0,1,,,,,,,,,,,,,,,3,,,62,127
77160,note_on,,0,0,1,,,,,,,,,,,,,,,3,,,40,127
77160,note_on,,3,0,1,,,,,,,,,,,,,,,3,,,71,127
77273,note_on,,113,0,1,,,,,,,,,,,,,,,3,,,71,0
77280,note_on,,7,0,1,,,,,,,,,,,,,,,3,,,69,127
77363,note_on,,83,0,1,,,,,,,,,,,,,,,3,,,40,0
77375,note_on,,12,0,1,,,,,,,,,,,,,,,3,,,69,0
77381,note_on,,6,0,1,,,,,,,,,,,,,,,3,,,68,0
77381,note_on,,0,0,1,,,,,,,,,,,,,,,3,,,62,0
77400,note_on,,0,0,1,,,,,,,,,,,,,,,3,,,45,127
77400,note_on,,19,0,1,,,,,,,,,,,,,,,3,,,69,127
77400,note_on,,0,0,1,,,,,,,,,,,,,,,3,,,69,127
77400,note_on,,0,0,1,,,,,,,,,,,,,,,3,,,60,127
77640,note_on,,240,0,1,,,,,,,,,,,,,,,3,,,57,127
77819,note_on,,179,0,1,,,,,,,,,,,,,,,3,,,45,0
77841,note_on,,22,0,1,,,,,,,,,,,,,,,3,,,69,0
77843,note_on,,2,0,1,,,,,,,,,,,,,,,3,,,57,0
77850,note_on,,7,0,1,,,,,,,,,,,,,,,3,,,69,0
77850,note_on,,0,0,1,,,,,,,,,,,,,,,3,,,60,0
77880,note_on,,30,0,1,,,,,,,,,,,,,,,3,,,57,127
78000,note_on,,120,0,1,,,,,,,,,,,,,,,3,,,81,127
78083,note_on,,83,0,1,,,,,,,,,,,,,,,3,,,57,0
78108,note_on,,25,0,1,,,,,,,,,,,,,,,3,,,81,0
78120,note_on,,0,0,1,,,,,,,,,,,,,,,3,,,45,127
78120,note_on,,0,0,1,,,,,,,,,,,,,,,3,,,72,127
78120,note_on,,12,0,1,,,,,,,,,,,,,,,3,,,79,127
78120,note_on,,0,0,1,,,,,,,,,,,,,,,3,,,64,127
78291,note_on,,171,0,1,,,,,,,,,,,,,,,3,,,79,0
78300,note_on,,9,0,1,,,,,,,,,,,,,,,3,,,81,127
78323,note_on,,23,0,1,,,,,,,,,,,,,,,3,,,45,0
78341,note_on,,18,0,1,,,,,,,,,,,,,,,3,,,64,0
78345,note_on,,4,0,1,,,,,,,,,,,,,,,3,,,72,0
78354,note_on,,9,0,1,,,,,,,,,,,,,,,3,,,81,0
78360,note_on,,0,0,1,,,,,,,,,,,,,,,3,,,74,127
78360,note_on,,0,0,1,,,,,,,,,,,,,,,3,,,65,127
78360,note_on,,0,0,1,,,,,,,,,,,,,,,3,,,38,127
78360,note_on,,6,0,1,,,,,,,,,,,,,,,3,,,82,127
78527,note_on,,167,0,1,,,,,,,,,,,,,,,3,,,82,0
78540,note_on,,13,0,1,,,,,,,,,,,,,,,3,,,77,127
78563,note_on,,23,0,1,,,,,,,,,,,,,,,3,,,38,0
78594,note_on,,31,0,1,,,,,,,,,,,,,,,3,,,77,0
78600,note_on,,0,0,1,,,,,,,,,,,,,,,3,,,50,127
78600,note_on,,6,0,1,,,,,,,,,,,,,,,3,,,74,127
78761,note_on,,161,0,1,,,,,,,,,,,,,,,3,,,74,0
78780,note_on,,19,0,1,,,,,,,,,,,,,,,3,,,77,127
78803,note_on,,23,0,1,,,,,,,,,,,,,,,3,,,50,0
78815,note_on,,12,0,1,,,,,,,,,,,,,,,3,,,65,0
78830,note_on,,15,0,1,,,,,,,,,,,,,,,3,,,74,0
78839,note_on,,9,0,1,,,,,,,,,,,,,,,3,,,77,0
78840,note_on,,1,0,1,,,,,,,,,,,,,,,3,,,70,127
78840,note_on,,0,0,1,,,,,,,,,,,,,,,3,,,50,127
79002,note_on,,162,0,1,,,,,,,,,,,,,,,3,,,70,0
79020,note_on,,18,0,1,,,,,,,,,,,,,,,3,,,77,127
79043,note_on,,23,0,1,,,,,,,,,,,,,,,3,,,50,0
79074,note_on,,31,0,1,,,,,,,,,,,,,,,3,,,77,0
79080,note_on,,6,0,1,,,,,,,,,,,,,,,3,,,82,127
79080,note_on,,0,0,1,,,,,,,,,,,,,,,3,,,65,127
79080,note_on,,0,0,1,,,,,,,,,,,,,,,3,,,62,127
79080,note_on,,0,0,1,,,,,,,,,,,,,,,3,,,38,127
79242,note_on,,162,0,1,,,,,,,,,,,,,,,3,,,82,0
79260,note_on,,18,0,1,,,,,,,,,,,,,,,3,,,69,127
79283,note_on,,23,0,1,,,,,,,,,,,,,,,3,,,38,0
79301,note_on,,18,0,1,,,,,,,,,,,,,,,3,,,65,0
79301,note_on,,0,0,1,,,,,,,,,,,,,,,3,,,62,0
79310,note_on,,9,0,1,,,,,,,,,,,,,,,3,,,69,0
79320,note_on,,0,0,1,,,,,,,,,,,,,,,3,,,38,127
79320,note_on,,10,0,1,,,,,,,,,,,,,,,3,,,68,127
79320,note_on,,0,0,1,,,,,,,,,,,,,,,3,,,64,127
79320,note_on,,0,0,1,,,,,,,,,,,,,,,3,,,59,127
79323,set_tempo,,38523,1,0,,,,,,,,576923,,,,,,,,,,,
79380,note_on,,60,0,1,,,,,,,,,,,,,,,3,,,66,127
79388,note_on,,8,0,1,,,,,,,,,,,,,,,3,,,68,0
79439,note_on,,51,0,1,,,,,,,,,,,,,,,3,,,66,0
79440,note_on,,1,0,1,,,,,,,,,,,,,,,3,,,64,127
79523,note_on,,83,0,1,,,,,,,,,,,,,,,3,,,64,0
79523,note_on,,0,0,1,,,,,,,,,,,,,,,3,,,38,0
79541,note_on,,18,0,1,,,,,,,,,,,,,,,3,,,59,0
79560,note_on,,19,0,1,,,,,,,,,,,,,,,3,,,69,127
79560,note_on,,0,0,1,,,,,,,,,,,,,,,3,,,54,127
79560,note_on,,0,0,1,,,,,,,,,,,,,,,3,,,50,127
79566,note_on,,6,0,1,,,,,,,,,,,,,,,3,,,64,0
79619,note_on,,53,0,1,,,,,,,,,,,,,,,3,,,69,0
79620,note_on,,1,0,1,,,,,,,,,,,,,,,3,,,68,127
79679,note_on,,59,0,1,,,,,,,,,,,,,,,3,,,68,0
79680,note_on,,1,0,1,,,,,,,,,,,,,,,3,,,66,127
79763,note_on,,83,0,1,,,,,,,,,,,,,,,3,,,50,0
79775,note_on,,12,0,1,,,,,,,,,,,,,,,3,,,66,0
79781,note_on,,6,0,1,,,,,,,,,,,,,,,3,,,54,0
79800,note_on,,0,0,1,,,,,,,,,,,,,,,3,,,56,127
79800,note_on,,0,0,1,,,,,,,,,,,,,,,3,,,50,127
79800,note_on,,19,0,1,,,,,,,,,,,,,,,3,,,71,127
79859,note_on,,59,0,1,,,,,,,,,,,,,,,3,,,71,0
79860,note_on,,1,0,1,,,,,,,,,,,,,,,3,,,69,127
79919,note_on,,59,0,1,,,,,,,,,,,,,,,3,,,69,0
79920,note_on,,1,0,1,,,,,,,,,,,,,,,3,,,68,127
80003,note_on,,83,0,1,,,,,,,,,,,,,,,3,,,50,0
80015,note_on,,12,0,1,,,,,,,,,,,,,,,3,,,68,0
80016,note_on,,1,0,1,,,,,,,,,,,,,,,3,,,56,0
80040,note_on,,24,0,1,,,,,,,,,,,,,,,3,,,72,127
80040,note_on,,0,0,1,,,,,,,,,,,,,,,3,,,64,127
80040,note_on,,0,0,1,,,,,,,,,,,,,,,3,,,57,127
80040,note_on,,0,0,1,,,,,,,,,,,,,,,3,,,48,127
80099,note_on,,59,0,1,,,,,,,,,,,,,,,3,,,72,0
80100,note_on,,1,0,1,,,,,,,,,,,,,,,3,,,71,127
80154,note_on,,54,0,1,,,,,,,,,,,,,,,3,,,71,0
80157,note_on,,3,0,1,,,,,,,,,,,,,,,3,,,64,0
80160,note_on,,0,0,1,,,,,,,,,,,,,,,3,,,66,127
80160,note_on,,3,0,1,,,,,,,,,,,,,,,3,,,69,127
80243,note_on,,83,0,1,,,,,,,,,,,,,,,3,,,48,0
80255,note_on,,12,0,1,,,,,,,,,,,,,,,3,,,69,0
80265,note_on,,10,0,1,,,,,,,,,,,,,,,3,,,57,0
80270,set_tempo,,947,1,0,,,,,,,,612244,,,,,,,,,,,
80273,note_on,,8,0,1,,,,,,,,,,,,,,,3,,,66,0
80280,note_on,,7,0,1,,,,,,,,,,,,,,,3,,,74,127
80280,note_on,,0,0,1,,,,,,,,,,,,,,,3,,,68,127
80280,note_on,,0,0,1,,,,,,,,,,,,,,,3,,,59,127
80280,note_on,,0,0,1,,,,,,,,,,,,,,,3,,,47,127
80429,note_on,,149,0,1,,,,,,,,,,,,,,,3,,,74,0
80460,note_on,,31,0,1,,,,,,,,,,,,,,,3,,,76,127
80483,note_on,,23,0,1,,,,,,,,,,,,,,,3,,,47,0
80496,note_on,,13,0,1,,,,,,,,,,,,,,,3,,,59,0
80501,note_on,,5,0,1,,,,,,,,,,,,,,,3,,,68,0
80519,note_on,,18,0,1,,,,,,,,,,,,,,,3,,,76,0
80520,note_on,,1,0,1,,,,,,,,,,,,,,,3,,,72,127
80520,note_on,,0,0,1,,,,,,,,,,,,,,,3,,,69,127
80520,note_on,,0,0,1,,,,,,,,,,,,,,,3,,,60,127
80520,note_on,,0,0,1,,,,,,,,,,,,,,,3,,,45,127
80691,note_on,,171,0,1,,,,,,,,,,,,,,,3,,,72,0
80691,note_on,,0,0,1,,,,,,,,,,,,,,,3,,,60,0
80700,note_on,,9,0,1,,,,,,,,,,,,,,,3,,,71,127
80700,note_on,,0,0,1,,,,,,,,,,,,,,,3,,,62,127
80723,note_on,,0,0,1,,,,,,,,,,,,,,,3,,,45,0
80723,note_on,,23,0,1,,,,,,,,,,,,,,,3,,,69,0
80741,note_on,,18,0,1,,,,,,,,,,,,,,,3,,,71,0
80760,note_on,,0,0,1,,,,,,,,,,,,,,,3,,,52,127
80760,note_on,,0,0,1,,,,,,,,,,,,,,,3,,,69,127
80760,note_on,,19,0,1,,,,,,,,,,,,,,,3,,,71,127
80760,note_on,,0,0,1,,,,,,,,,,,,,,,3,,,64,127
80763,note_on,,3,0,1,,,,,,,,,,,,,,,3,,,62,0
80814,note_on,,51,0,1,,,,,,,,,,,,,,,3,,,71,0
80820,note_on,,6,0,1,,,,,,,,,,,,,,,3,,,72,127
80874,note_on,,54,0,1,,,,,,,,,,,,,,,3,,,72,0
80880,note_on,,6,0,1,,,,,,,,,,,,,,,3,,,71,127
80907,note_on,,27,0,1,,,,,,,,,,,,,,,3,,,71,0
80910,note_on,,3,0,1,,,,,,,,,,,,,,,3,,,72,127
80922,note_on,,12,0,1,,,,,,,,,,,,,,,3,,,72,0
80925,note_on,,3,0,1,,,,,,,,,,,,,,,3,,,71,127
80937,note_on,,12,0,1,,,,,,,,,,,,,,,3,,,71,0
80940,note_on,,3,0,1,,,,,,,,,,,,,,,3,,,72,127
80952,note_on,,12,0,1,,,,,,,,,,,,,,,3,,,72,0
80955,note_on,,3,0,1,,,,,,,,,,,,,,,3,,,71,127
80963,note_on,,8,0,1,,,,,,,,,,,,,,,3,,,52,0
80967,note_on,,4,0,1,,,,,,,,,,,,,,,3,,,71,0
80970,note_on,,3,0,1,,,,,,,,,,,,,,,3,,,72,127
80982,note_on,,12,0,1,,,,,,,,,,,,,,,3,,,72,0
80985,note_on,,3,0,1,,,,,,,,,,,,,,,3,,,69,0
80985,note_on,,0,0,1,,,,,,,,,,,,,,,3,,,71,127
80990,note_on,,5,0,1,,,,,,,,,,,,,,,3,,,64,0
80997,note_on,,7,0,1,,,,,,,,,,,,,,,3,,,71,0
81000,note_on,,3,0,1,,,,,,,,,,,,,,,3,,,72,127
81000,note_on,,0,0,1,,,,,,,,,,,,,,,3,,,68,127
81000,note_on,,0,0,1,,,,,,,,,,,,,,,3,,,62,127
81000,note_on,,0,0,1,,,,,,,,,,,,,,,3,,,40,127
81012,note_on,,12,0,1,,,,,,,,,,,,,,,3,,,72,0
81015,note_on,,3,0,1,,,,,,,,,,,,,,,3,,,71,127
81027,note_on,,12,0,1,,,,,,,,,,,,,,,3,,,71,0
81030,note_on,,3,0,1,,,,,,,,,,,,,,,3,,,72,127
81042,note_on,,12,0,1,,,,,,,,,,,,,,,3,,,72,0
81045,note_on,,3,0,1,,,,,,,,,,,,,,,3,,,71,127
81105,note_on,,60,0,1,,,,,,,,,,,,,,,3,,,71,0
81120,note_on,,15,0,1,,,,,,,,,,,,,,,3,,,69,127
81120,set_tempo,,850,1,0,,,,,,,,659340,,,,,,,,,,,
81203,note_on,,83,0,1,,,,,,,,,,,,,,,3,,,40,0
81212,note_on,,9,0,1,,,,,,,,,,,,,,,3,,,68,0
81215,note_on,,3,0,1,,,,,,,,,,,,,,,3,,,69,0
81225,note_on,,10,0,1,,,,,,,,,,,,,,,3,,,62,0
81240,note_on,,15,0,1,,,,,,,,,,,,,,,3,,,69,127
81240,note_on,,0,0,1,,,,,,,,,,,,,,,3,,,69,127
81240,note_on,,0,0,1,,,,,,,,,,,,,,,3,,,60,127
81240,note_on,,0,0,1,,,,,,,,,,,,,,,3,,,45,127
81659,note_on,,419,0,1,,,,,,,,,,,,,,,3,,,45,0
81695,note_on,,36,0,1,,,,,,,,,,,,,,,3,,,60,0
81699,note_on,,4,0,1,,,,,,,,,,,,,,,3,,,69,0
81789,note_on,,90,0,1,,,,,,,,,,,,,,,3,,,69,0
81840,note_on,,51,0,1,,,,,,,,,,,,,,,3,,,71,127
81850,set_tempo,,730,1,0,,,,,,,,594059,,,,,,,,,,,
81935,note_on,,95,0,1,,,,,,,,,,,,,,,3,,,71,0
81960,note_on,,25,0,1,,,,,,,,,,,,,,,3,,,72,127
81987,note_on,,27,0,1,,,,,,,,,,,,,,,3,,,72,0
81990,note_on,,3,0,1,,,,,,,,,,,,,,,3,,,71,127
82002,note_on,,12,0,1,,,,,,,,,,,,,,,3,,,71,0
82005,note_on,,3,0,1,,,,,,,,,,,,,,,3,,,72,127
82017,note_on,,12,0,1,,,,,,,,,,,,,,,3,,,72,0
82020,note_on,,3,0,1,,,,,,,,,,,,,,,3,,,71,127
82032,note_on,,12,0,1,,,,,,,,,,,,,,,3,,,71,0
82035,note_on,,3,0,1,,,,,,,,,,,,,,,3,,,72,127
82047,note_on,,12,0,1,,,,,,,,,,,,,,,3,,,72,0
82050,note_on,,3,0,1,,,,,,,,,,,,,,,3,,,71,127
82062,note_on,,12,0,1,,,,,,,,,,,,,,,3,,,71,0
82065,note_on,,3,0,1,,,,,,,,,,,,,,,3,,,72,127
82077,note_on,,12,0,1,,,,,,,,,,,,,,,3,,,72,0
82080,note_on,,3,0,1,,,,,,,,,,,,,,,3,,,71,127
82092,note_on,,12,0,1,,,,,,,,,,,,,,,3,,,71,0
82095,note_on,,3,0,1,,,,,,,,,,,,,,,3,,,72,127
82107,note_on,,12,0,1,,,,,,,,,,,,,,,3,,,72,0
82110,note_on,,3,0,1,,,,,,,,,,,,,,,3,,,71,127
82137,note_on,,27,0,1,,,,,,,,,,,,,,,3,,,71,0
82140,note_on,,3,0,1,,,,,,,,,,,,,,,3,,,69,127
82167,note_on,,27,0,1,,,,,,,,,,,,,,,3,,,69,0
82170,note_on,,3,0,1,,,,,,,,,,,,,,,3,,,71,127
82197,note_on,,27,0,1,,,,,,,,,,,,,,,3,,,71,0
82200,note_on,,3,0,1,,,,,,,,,,,,,,,3,,,72,127
82320,set_tempo,,470,1,0,,,,,,,,535714,,,,,,,,,,,
82330,set_tempo,,10,1,0,,,,,,,,535714,,,,,,,,,,,
82340,set_tempo,,10,1,0,,,,,,,,545454,,,,,,,,,,,
82420,set_tempo,,80,1,0,,,,,,,,550458,,,,,,,,,,,
82460,set_tempo,,40,1,0,,,,,,,,555555,,,,,,,,,,,
82524,note_on,,324,0,1,,,,,,,,,,,,,,,3,,,72,0
82560,note_on,,36,0,1,,,,,,,,,,,,,,,3,,,70,127
82580,set_tempo,,120,1,0,,,,,,,,560747,,,,,,,,,,,
82600,set_tempo,,20,1,0,,,,,,,,566037,,,,,,,,,,,
82620,set_tempo,,20,1,0,,,,,,,,571428,,,,,,,,,,,
82668,note_on,,108,0,1,,,,,,,,,,,,,,,3,,,70,0
82680,note_on,,12,0,1,,,,,,,,,,,,,,,3,,,69,127
82720,set_tempo,,100,1,0,,,,,,,,566037,,,,,,,,,,,
82788,note_on,,108,0,1,,,,,,,,,,,,,,,3,,,69,0
82800,note_on,,12,0,1,,,,,,,,,,,,,,,3,,,67,127
82820,set_tempo,,100,1,0,,,,,,,,571428,,,,,,,,,,,
82860,set_tempo,,40,1,0,,,,,,,,576923,,,,,,,,,,,
82908,note_on,,108,0,1,,,,,,,,,,,,,,,3,,,67,0
82920,note_on,,12,0,1,,,,,,,,,,,,,,,3,,,66,127
82970,set_tempo,,110,1,0,,,,,,,,576923,,,,,,,,,,,
83028,note_on,,108,0,1,,,,,,,,,,,,,,,3,,,66,0
83040,note_on,,12,0,1,,,,,,,,,,,,,,,3,,,64,127
83140,set_tempo,,170,1,0,,,,,,,,582524,,,,,,,,,,,
83148,note_on,,108,0,1,,,,,,,,,,,,,,,3,,,64,0
83160,note_on,,12,0,1,,,,,,,,,,,,,,,3,,,62,127
83200,set_tempo,,60,1,0,,,,,,,,576923,,,,,,,,,,,
83240,set_tempo,,40,1,0,,,,,,,,582524,,,,,,,,,,,
83268,note_on,,108,0,1,,,,,,,,,,,,,,,3,,,62,0
83280,note_on,,12,0,1,,,,,,,,,,,,,,,3,,,60,127
83320,set_tempo,,80,1,0,,,,,,,,588235,,,,,,,,,,,
83370,set_tempo,,50,1,0,,,,,,,,594059,,,,,,,,,,,
83388,note_on,,108,0,1,,,,,,,,,,,,,,,3,,,60,0
83400,note_on,,12,0,1,,,,,,,,,,,,,,,3,,,58,127
83508,note_on,,108,0,1,,,,,,,,,,,,,,,3,,,58,0
83520,note_on,,12,0,1,,,,,,,,,,,,,,,3,,,57,127
83540,set_tempo,,170,1,0,,,,,,,,600000,,,,,,,,,,,
83560,set_tempo,,20,1,0,,,,,,,,612244,,,,,,,,,,,
83600,set_tempo,,40,1,0,,,,,,,,618556,,,,,,,,,,,
83628,note_on,,108,0,1,,,,,,,,,,,,,,,3,,,57,0
83640,note_on,,12,0,1,,,,,,,,,,,,,,,3,,,55,127
83650,set_tempo,,50,1,0,,,,,,,,625000,,,,,,,,,,,
83740,set_tempo,,90,1,0,,,,,,,,625000,,,,,,,,,,,
83748,note_on,,108,0,1,,,,,,,,,,,,,,,3,,,55,0
83760,set_tempo,,20,1,0,,,,,,,,638297,,,,,,,,,,,
83760,note_on,,12,0,1,,,,,,,,,,,,,,,3,,,54,127
83868,note_on,,108,0,1,,,,,,,,,,,,,,,3,,,54,0
83870,set_tempo,,110,1,0,,,,,,,,681818,,,,,,,,,,,
83880,note_on,,12,0,1,,,,,,,,,,,,,,,3,,,52,127
83988,note_on,,108,0,1,,,,,,,,,,,,,,,3,,,52,0
83990,set_tempo,,120,1,0,,,,,,,,789473,,,,,,,,,,,
84000,note_on,,12,0,1,,,,,,,,,,,,,,,3,,,50,127
84030,set_tempo,,40,1,0,,,,,,,,1000000,,,,,,,,,,,
84108,note_on,,108,0,1,,,,,,,,,,,,,,,3,,,50,0
84120,control_change,,12,0,1,,,,,,,,,,,,,,,3,7,110,,
84120,note_on,,0,0,1,,,,,,,,,,,,,,,3,,,72,127
84120,note_on,,0,0,1,,,,,,,,,,,,,,,3,,,57,127
84120,note_on,,0,0,1,,,,,,,,,,,,,,,3,,,54,127
84120,note_on,,0,0,1,,,,,,,,,,,,,,,3,,,69,127
84120,note_on,,0,0,1,,,,,,,,,,,,,,,3,,,63,127
84120,note_on,,0,0,1,,,,,,,,,,,,,,,3,,,42,127
84120,control_change,,0,0,1,,,,,,,,,,,,,,,3,7,110,,
84120,control_change,,0,0,1,,,,,,,,,,,,,,,3,7,110,,
84250,set_tempo,,220,1,0,,,,,,,,545454,,,,,,,,,,,
84971,note_on,,851,0,1,,,,,,,,,,,,,,,3,,,42,0
85080,note_on,,109,0,1,,,,,,,,,,,,,,,3,,,46,127
85403,note_on,,323,0,1,,,,,,,,,,,,,,,3,,,69,0
85560,note_on,,157,0,1,,,,,,,,,,,,,,,3,,,67,127
85763,note_on,,203,0,1,,,,,,,,,,,,,,,3,,,67,0
85800,note_on,,37,0,1,,,,,,,,,,,,,,,3,,,66,127
85835,note_on,,0,0,1,,,,,,,,,,,,,,,3,,,63,0
85835,note_on,,35,0,1,,,,,,,,,,,,,,,3,,,72,0
85853,note_on,,18,0,1,,,,,,,,,,,,,,,3,,,54,0
85857,note_on,,4,0,1,,,,,,,,,,,,,,,3,,,57,0
86003,note_on,,146,0,1,,,,,,,,,,,,,,,3,,,66,0
86040,note_on,,0,0,1,,,,,,,,,,,,,,,3,,,62,127
86040,note_on,,0,0,1,,,,,,,,,,,,,,,3,,,67,127
86040,note_on,,0,0,1,,,,,,,,,,,,,,,3,,,55,127
86040,note_on,,0,0,1,,,,,,,,,,,,,,,3,,,58,127
86040,note_on,,37,0,1,,,,,,,,,,,,,,,3,,,70,127
86363,note_on,,323,0,1,,,,,,,,,,,,,,,3,,,46,0
86520,note_on,,157,0,1,,,,,,,,,,,,,,,3,,,58,127
86640,note_on,,120,0,1,,,,,,,,,,,,,,,3,,,74,127
86748,note_on,,108,0,1,,,,,,,,,,,,,,,3,,,74,0
86760,note_on,,12,0,1,,,,,,,,,,,,,,,3,,,76,127
86891,note_on,,131,0,1,,,,,,,,,,,,,,,3,,,58,0
86891,note_on,,0,0,1,,,,,,,,,,,,,,,3,,,55,0
86891,note_on,,0,0,1,,,,,,,,,,,,,,,3,,,67,0
86891,note_on,,0,0,1,,,,,,,,,,,,,,,3,,,62,0
86922,note_on,,31,0,1,,,,,,,,,,,,,,,3,,,76,0
86940,note_on,,18,0,1,,,,,,,,,,,,,,,3,,,77,127
86961,note_on,,21,0,1,,,,,,,,,,,,,,,3,,,58,0
86994,note_on,,33,0,1,,,,,,,,,,,,,,,3,,,77,0
87000,note_on,,0,0,1,,,,,,,,,,,,,,,3,,,61,127
87000,note_on,,6,0,1,,,,,,,,,,,,,,,3,,,79,127
87000,note_on,,0,0,1,,,,,,,,,,,,,,,3,,,64,127
87000,note_on,,0,0,1,,,,,,,,,,,,,,,3,,,49,127
87000,note_on,,0,0,1,,,,,,,,,,,,,,,3,,,76,127
87000,note_on,,0,0,1,,,,,,,,,,,,,,,3,,,55,127
87323,note_on,,323,0,1,,,,,,,,,,,,,,,3,,,70,0
87437,note_on,,114,0,1,,,,,,,,,,,,,,,3,,,55,0
87480,note_on,,43,0,1,,,,,,,,,,,,,,,3,,,69,127
87480,note_on,,0,0,1,,,,,,,,,,,,,,,3,,,57,127
87683,note_on,,203,0,1,,,,,,,,,,,,,,,3,,,69,0
87720,note_on,,37,0,1,,,,,,,,,,,,,,,3,,,67,127
87851,note_on,,0,0,1,,,,,,,,,,,,,,,3,,,49,0
87851,note_on,,131,0,1,,,,,,,,,,,,,,,3,,,64,0
87899,note_on,,48,0,1,,,,,,,,,,,,,,,3,,,57,0
87923,note_on,,24,0,1,,,,,,,,,,,,,,,3,,,67,0
87960,note_on,,0,0,1,,,,,,,,,,,,,,,3,,,41,127
87960,note_on,,0,0,1,,,,,,,,,,,,,,,3,,,65,127
87960,note_on,,0,0,1,,,,,,,,,,,,,,,3,,,57,127
87960,note_on,,37,0,1,,,,,,,,,,,,,,,3,,,69,127
88283,note_on,,323,0,1,,,,,,,,,,,,,,,3,,,76,0
88296,note_on,,13,0,1,,,,,,,,,,,,,,,3,,,79,0
88301,note_on,,5,0,1,,,,,,,,,,,,,,,3,,,61,0
88379,note_on,,78,0,1,,,,,,,,,,,,,,,3,,,41,0
88440,note_on,,0,0,1,,,,,,,,,,,,,,,3,,,74,127
88440,note_on,,0,0,1,,,,,,,,,,,,,,,3,,,53,127
88440,note_on,,0,0,1,,,,,,,,,,,,,,,3,,,62,127
88440,note_on,,61,0,1,,,,,,,,,,,,,,,3,,,77,127
88643,note_on,,203,0,1,,,,,,,,,,,,,,,3,,,74,0
88680,note_on,,37,0,1,,,,,,,,,,,,,,,3,,,72,127
88811,note_on,,131,0,1,,,,,,,,,,,,,,,3,,,69,0
88811,note_on,,0,0,1,,,,,,,,,,,,,,,3,,,65,0
88838,note_on,,27,0,1,,,,,,,,,,,,,,,3,,,57,0
88859,note_on,,21,0,1,,,,,,,,,,,,,,,3,,,53,0
88883,note_on,,24,0,1,,,,,,,,,,,,,,,3,,,72,0
88920,note_on,,0,0,1,,,,,,,,,,,,,,,3,,,56,127
88920,note_on,,0,0,1,,,,,,,,,,,,,,,3,,,74,127
88920,note_on,,0,0,1,,,,,,,,,,,,,,,3,,,59,127
88920,note_on,,0,0,1,,,,,,,,,,,,,,,3,,,44,127
88920,control_change,,0,0,1,,,,,,,,,,,,,,,3,7,127,,
88920,control_change,,0,0,1,,,,,,,,,,,,,,,3,7,127,,
88920,control_change,,37,0,1,,,,,,,,,,,,,,,3,7,127,,
88920,note_on,,0,0,1,,,,,,,,,,,,,,,3,,,71,127
89304,note_on,,384,0,1,,,,,,,,,,,,,,,3,,,77,0
89309,note_on,,5,0,1,,,,,,,,,,,,,,,3,,,62,0
89400,note_on,,91,0,1,,,,,,,,,,,,,,,3,,,76,127
89400,note_on,,0,0,1,,,,,,,,,,,,,,,3,,,64,127
89555,note_on,,155,0,1,,,,,,,,,,,,,,,3,,,74,0
89640,note_on,,85,0,1,,,,,,,,,,,,,,,3,,,74,127
89771,note_on,,0,0,1,,,,,,,,,,,,,,,3,,,44,0
89771,note_on,,131,0,1,,,,,,,,,,,,,,,3,,,59,0
89880,note_on,,109,0,1,,,,,,,,,,,,,,,3,,,60,127
89880,note_on,,0,0,1,,,,,,,,,,,,,,,3,,,48,127
90203,note_on,,323,0,1,,,,,,,,,,,,,,,3,,,71,0
90221,note_on,,18,0,1,,,,,,,,,,,,,,,3,,,56,0
90275,note_on,,54,0,1,,,,,,,,,,,,,,,3,,,74,0
90299,note_on,,24,0,1,,,,,,,,,,,,,,,3,,,48,0
90360,note_on,,0,0,1,,,,,,,,,,,,,,,3,,,57,127
90360,note_on,,0,0,1,,,,,,,,,,,,,,,3,,,72,127
90360,note_on,,0,0,1,,,,,,,,,,,,,,,3,,,60,127
90360,note_on,,61,0,1,,,,,,,,,,,,,,,3,,,69,127
90563,note_on,,203,0,1,,,,,,,,,,,,,,,3,,,69,0
90600,note_on,,37,0,1,,,,,,,,,,,,,,,3,,,67,127
90701,note_on,,101,0,1,,,,,,,,,,,,,,,3,,,76,0
90705,note_on,,4,0,1,,,,,,,,,,,,,,,3,,,64,0
90731,note_on,,26,0,1,,,,,,,,,,,,,,,3,,,60,0
90779,note_on,,48,0,1,,,,,,,,,,,,,,,3,,,60,0
90803,note_on,,24,0,1,,,,,,,,,,,,,,,3,,,67,0
90840,note_on,,0,0,1,,,,,,,,,,,,,,,3,,,66,127
90840,note_on,,0,0,1,,,,,,,,,,,,,,,3,,,54,127
90840,note_on,,0,0,1,,,,,,,,,,,,,,,3,,,63,127
90840,note_on,,0,0,1,,,,,,,,,,,,,,,3,,,51,127
90840,note_on,,37,0,1,,,,,,,,,,,,,,,3,,,78,127
91211,note_on,,371,0,1,,,,,,,,,,,,,,,3,,,72,0
91233,note_on,,22,0,1,,,,,,,,,,,,,,,3,,,57,0
91320,note_on,,87,0,1,,,,,,,,,,,,,,,3,,,59,127
91320,note_on,,0,0,1,,,,,,,,,,,,,,,3,,,71,127
91523,note_on,,203,0,1,,,,,,,,,,,,,,,3,,,71,0
91560,note_on,,37,0,1,,,,,,,,,,,,,,,3,,,69,127
91691,note_on,,131,0,1,,,,,,,,,,,,,,,3,,,66,0
91691,note_on,,0,0,1,,,,,,,,,,,,,,,3,,,51,0
91713,note_on,,22,0,1,,,,,,,,,,,,,,,3,,,54,0
91739,note_on,,26,0,1,,,,,,,,,,,,,,,3,,,59,0
91763,note_on,,24,0,1,,,,,,,,,,,,,,,3,,,69,0
91800,note_on,,37,0,1,,,,,,,,,,,,,,,3,,,67,127
91800,note_on,,0,0,1,,,,,,,,,,,,,,,3,,,55,127
91800,note_on,,0,0,1,,,,,,,,,,,,,,,3,,,59,127
91800,note_on,,0,0,1,,,,,,,,,,,,,,,3,,,71,127
91800,note_on,,0,0,1,,,,,,,,,,,,,,,3,,,43,127
92123,note_on,,323,0,1,,,,,,,,,,,,,,,3,,,63,0
92141,note_on,,18,0,1,,,,,,,,,,,,,,,3,,,78,0
92219,note_on,,78,0,1,,,,,,,,,,,,,,,3,,,43,0
92280,note_on,,0,0,1,,,,,,,,,,,,,,,3,,,55,127
92280,note_on,,61,0,1,,,,,,,,,,,,,,,3,,,76,127
92280,note_on,,0,0,1,,,,,,,,,,,,,,,3,,,64,127
92435,note_on,,155,0,1,,,,,,,,,,,,,,,3,,,71,0
92520,note_on,,85,0,1,,,,,,,,,,,,,,,3,,,71,127
92651,note_on,,131,0,1,,,,,,,,,,,,,,,3,,,67,0
92651,note_on,,0,0,1,,,,,,,,,,,,,,,3,,,55,0
92669,note_on,,18,0,1,,,,,,,,,,,,,,,3,,,59,0
92699,note_on,,30,0,1,,,,,,,,,,,,,,,3,,,64,0
92717,note_on,,18,0,1,,,,,,,,,,,,,,,3,,,55,0
92723,note_on,,6,0,1,,,,,,,,,,,,,,,3,,,71,0
92760,note_on,,0,0,1,,,,,,,,,,,,,,,3,,,60,127
92760,note_on,,0,0,1,,,,,,,,,,,,,,,3,,,64,127
92760,note_on,,0,0,1,,,,,,,,,,,,,,,3,,,72,127
92760,note_on,,0,0,1,,,,,,,,,,,,,,,3,,,67,127
92760,note_on,,0,0,1,,,,,,,,,,,,,,,3,,,57,127
92760,note_on,,37,0,1,,,,,,,,,,,,,,,3,,,69,127
93179,note_on,,419,0,1,,,,,,,,,,,,,,,3,,,67,0
93197,note_on,,18,0,1,,,,,,,,,,,,,,,3,,,64,0
93240,note_on,,43,0,1,,,,,,,,,,,,,,,3,,,65,127
93338,note_on,,98,0,1,,,,,,,,,,,,,,,3,,,76,0
93480,note_on,,142,0,1,,,,,,,,,,,,,,,3,,,76,127
93611,note_on,,131,0,1,,,,,,,,,,,,,,,3,,,57,0
93624,note_on,,13,0,1,,,,,,,,,,,,,,,3,,,60,0
93696,note_on,,72,0,1,,,,,,,,,,,,,,,3,,,76,0
93720,note_on,,24,0,1,,,,,,,,,,,,,,,3,,,74,127
93720,note_on,,0,0,1,,,,,,,,,,,,,,,3,,,62,127
93720,note_on,,0,0,1,,,,,,,,,,,,,,,3,,,59,127
93827,note_on,,107,0,1,,,,,,,,,,,,,,,3,,,72,0
93960,note_on,,133,0,1,,,,,,,,,,,,,,,3,,,72,127
94043,note_on,,83,0,1,,,,,,,,,,,,,,,3,,,69,0
94091,note_on,,48,0,1,,,,,,,,,,,,,,,3,,,65,0
94163,note_on,,72,0,1,,,,,,,,,,,,,,,3,,,72,0
94200,note_on,,37,0,1,,,,,,,,,,,,,,,3,,,71,127
94200,note_on,,0,0,1,,,,,,,,,,,,,,,3,,,67,127
94403,note_on,,203,0,1,,,,,,,,,,,,,,,3,,,71,0
94403,note_on,,0,0,1,,,,,,,,,,,,,,,3,,,67,0
94440,note_on,,0,0,1,,,,,,,,,,,,,,,3,,,65,127
94440,note_on,,37,0,1,,,,,,,,,,,,,,,3,,,69,127
94571,note_on,,131,0,1,,,,,,,,,,,,,,,3,,,59,0
94589,note_on,,18,0,1,,,,,,,,,,,,,,,3,,,62,0
94643,note_on,,54,0,1,,,,,,,,,,,,,,,3,,,69,0
94680,note_on,,0,0,1,,,,,,,,,,,,,,,3,,,59,127
94680,note_on,,0,0,1,,,,,,,,,,,,,,,3,,,52,127
94680,note_on,,0,0,1,,,,,,,,,,,,,,,3,,,67,127
94680,note_on,,0,0,1,,,,,,,,,,,,,,,3,,,55,127
94680,note_on,,37,0,1,,,,,,,,,,,,,,,3,,,62,127
94859,note_on,,179,0,1,,,,,,,,,,,,,,,3,,,65,0
94920,note_on,,61,0,1,,,,,,,,,,,,,,,3,,,65,127
95016,note_on,,96,0,1,,,,,,,,,,,,,,,3,,,74,0
95099,note_on,,83,0,1,,,,,,,,,,,,,,,3,,,62,0
95121,note_on,,22,0,1,,,,,,,,,,,,,,,3,,,59,0
95123,note_on,,2,0,1,,,,,,,,,,,,,,,3,,,65,0
95160,note_on,,37,0,1,,,,,,,,,,,,,,,3,,,72,127
95160,note_on,,0,0,1,,,,,,,,,,,,,,,3,,,64,127
95160,note_on,,0,0,1,,,,,,,,,,,,,,,3,,,60,127
95160,note_on,,0,0,1,,,,,,,,,,,,,,,3,,,64,127
95363,note_on,,203,0,1,,,,,,,,,,,,,,,3,,,64,0
95400,note_on,,37,0,1,,,,,,,,,,,,,,,3,,,62,127
95531,note_on,,131,0,1,,,,,,,,,,,,,,,3,,,52,0
95544,note_on,,13,0,1,,,,,,,,,,,,,,,3,,,55,0
95579,note_on,,35,0,1,,,,,,,,,,,,,,,3,,,72,0
95601,note_on,,22,0,1,,,,,,,,,,,,,,,3,,,60,0
95603,note_on,,2,0,1,,,,,,,,,,,,,,,3,,,62,0
95640,note_on,,37,0,1,,,,,,,,,,,,,,,3,,,72,127
95640,note_on,,0,0,1,,,,,,,,,,,,,,,3,,,56,127
95640,note_on,,0,0,1,,,,,,,,,,,,,,,3,,,60,127
95880,note_on,,240,0,1,,,,,,,,,,,,,,,3,,,48,127
95963,note_on,,83,0,1,,,,,,,,,,,,,,,3,,,67,0
96011,note_on,,48,0,1,,,,,,,,,,,,,,,3,,,64,0
96083,note_on,,72,0,1,,,,,,,,,,,,,,,3,,,48,0
96120,note_on,,0,0,1,,,,,,,,,,,,,,,3,,,53,127
96120,note_on,,37,0,1,,,,,,,,,,,,,,,3,,,65,127
96120,note_on,,0,0,1,,,,,,,,,,,,,,,3,,,65,127
96288,note_on,,168,0,1,,,,,,,,,,,,,,,3,,,56,0
96360,note_on,,72,0,1,,,,,,,,,,,,,,,3,,,47,127
96539,note_on,,179,0,1,,,,,,,,,,,,,,,3,,,65,0
96539,note_on,,0,0,1,,,,,,,,,,,,,,,3,,,65,0
96539,note_on,,0,0,1,,,,,,,,,,,,,,,3,,,53,0
96576,note_on,,37,0,1,,,,,,,,,,,,,,,3,,,47,0
96600,note_on,,24,0,1,,,,,,,,,,,,,,,3,,,64,127
96600,note_on,,0,0,1,,,,,,,,,,,,,,,3,,,48,127
96600,note_on,,0,0,1,,,,,,,,,,,,,,,3,,,56,127
96600,note_on,,0,0,1,,,,,,,,,,,,,,,3,,,48,127
96803,note_on,,203,0,1,,,,,,,,,,,,,,,3,,,64,0
96840,note_on,,37,0,1,,,,,,,,,,,,,,,3,,,60,127
96923,note_on,,83,0,1,,,,,,,,,,,,,,,3,,,60,0
97080,note_on,,157,0,1,,,,,,,,,,,,,,,3,,,65,127
97235,note_on,,155,0,1,,,,,,,,,,,,,,,3,,,56,0
97320,note_on,,85,0,1,,,,,,,,,,,,,,,3,,,55,127
97368,note_on,,48,0,1,,,,,,,,,,,,,,,3,,,72,0
97464,note_on,,96,0,1,,,,,,,,,,,,,,,3,,,48,0
97475,note_on,,11,0,1,,,,,,,,,,,,,,,3,,,60,0
97523,note_on,,48,0,1,,,,,,,,,,,,,,,3,,,55,0
97560,note_on,,37,0,1,,,,,,,,,,,,,,,3,,,71,127
97560,note_on,,0,0,1,,,,,,,,,,,,,,,3,,,50,127
97560,note_on,,0,0,1,,,,,,,,,,,,,,,3,,,53,127
97560,note_on,,0,0,1,,,,,,,,,,,,,,,3,,,62,127
98039,note_on,,479,0,1,,,,,,,,,,,,,,,3,,,65,0
98160,note_on,,121,0,1,,,,,,,,,,,,,,,3,,,68,127
98160,set_tempo,,13910,1,0,,,,,,,,645161,,,,,,,,,,,
98255,note_on,,95,0,1,,,,,,,,,,,,,,,3,,,68,0
98280,note_on,,25,0,1,,,,,,,,,,,,,,,3,,,67,127
98280,set_tempo,,120,1,0,,,,,,,,731707,,,,,,,,,,,
98315,note_on,,35,0,1,,,,,,,,,,,,,,,3,,,48,0
98375,note_on,,60,0,1,,,,,,,,,,,,,,,3,,,67,0
98393,note_on,,0,0,1,,,,,,,,,,,,,,,3,,,50,0
98393,note_on,,18,0,1,,,,,,,,,,,,,,,3,,,71,0
98400,set_tempo,,120,1,0,,,,,,,,983606,,,,,,,,,,,
98400,note_on,,7,0,1,,,,,,,,,,,,,,,3,,,65,127
98411,note_on,,0,0,1,,,,,,,,,,,,,,,3,,,62,0
98411,note_on,,11,0,1,,,,,,,,,,,,,,,3,,,53,0
98495,note_on,,84,0,1,,,,,,,,,,,,,,,3,,,65,0
98520,note_on,,0,0,1,,,,,,,,,,,,,,,3,,,60,127
98520,note_on,,0,0,1,,,,,,,,,,,,,,,3,,,36,127
98520,note_on,,25,0,1,,,,,,,,,,,,,,,3,,,72,127
98520,note_on,,0,0,1,,,,,,,,,,,,,,,3,,,64,127
98520,note_on,,0,0,1,,,,,,,,,,,,,,,3,,,55,127
98520,note_on,,0,0,1,,,,,,,,,,,,,,,3,,,48,127
98520,note_on,,0,0,1,,,,,,,,,,,,,,,3,,,52,127
98640,set_tempo,,240,1,0,,,,,,,,530973,,,,,,,,,,,
99360,set_tempo,,720,1,0,,,,,,,,674157,,,,,,,,,,,
100235,note_on,,0,0,1,,,,,,,,,,,,,,,3,,,64,0
100235,note_on,,0,0,1,,,,,,,,,,,,,,,3,,,55,0
100235,note_on,,0,0,1,,,,,,,,,,,,,,,3,,,48,0
100235,note_on,,0,0,1,,,,,,,,,,,,,,,3,,,52,0
100235,note_on,,0,0,1,,,,,,,,,,,,,,,3,,,60,0
100235,note_on,,0,0,1,,,,,,,,,,,,,,,3,,,36,0
100235,note_on,,1715,0,1,,,,,,,,,,,,,,,3,,,72,0
100800,set_tempo,,1440,1,0,,,,,,,,674157,,,,,,,,,,,
100920,note_on,,685,0,1,,,,,,,,,,,,,,,3,,,60,127
100967,note_on,,47,0,1,,,,,,,,,,,,,,,3,,,60,0
100980,note_on,,13,0,1,,,,,,,,,,,,,,,3,,,64,127
101003,note_on,,23,0,1,,,,,,,,,,,,,,,3,,,64,0
101010,note_on,,7,0,1,,,,,,,,,,,,,,,3,,,62,127
101033,note_on,,23,0,1,,,,,,,,,,,,,,,3,,,62,0
101040,note_on,,7,0,1,,,,,,,,,,,,,,,3,,,64,127
101087,note_on,,47,0,1,,,,,,,,,,,,,,,3,,,64,0
101100,note_on,,13,0,1,,,,,,,,,,,,,,,3,,,60,127
101147,note_on,,47,0,1,,,,,,,,,,,,,,,3,,,60,0
101160,note_on,,13,0,1,,,,,,,,,,,,,,,3,,,64,127
101207,note_on,,47,0,1,,,,,,,,,,,,,,,3,,,64,0
101220,note_on,,13,0,1,,,,,,,,,,,,,,,3,,,60,127
101267,note_on,,47,0,1,,,,,,,,,,,,,,,3,,,60,0
101280,note_on,,13,0,1,,,,,,,,,,,,,,,3,,,67,127
101327,note_on,,47,0,1,,,,,,,,,,,,,,,3,,,67,0
101580,note_on,,253,0,1,,,,,,,,,,,,,,,3,,,67,127
101627,note_on,,47,0,1,,,,,,,,,,,,,,,3,,,67,0
101640,note_on,,13,0,1,,,,,,,,,,,,,,,3,,,64,127
101687,note_on,,47,0,1,,,,,,,,,,,,,,,3,,,64,0
101700,note_on,,13,0,1,,,,,,,,,,,,,,,3,,,67,127
101723,note_on,,23,0,1,,,,,,,,,,,,,,,3,,,67,0
101730,note_on,,7,0,1,,,,,,,,,,,,,,,3,,,65,127
101753,note_on,,23,0,1,,,,,,,,,,,,,,,3,,,65,0
101760,note_on,,7,0,1,,,,,,,,,,,,,,,3,,,67,127
101807,note_on,,47,0,1,,,,,,,,,,,,,,,3,,,67,0
101820,note_on,,13,0,1,,,,,,,,,,,,,,,3,,,64,127
101867,note_on,,47,0,1,,,,,,,,,,,,,,,3,,,64,0
101880,note_on,,13,0,1,,,,,,,,,,,,,,,3,,,67,127
101927,note_on,,47,0,1,,,,,,,,,,,,,,,3,,,67,0
101940,note_on,,13,0,1,,,,,,,,,,,,,,,3,,,64,127
101987,note_on,,47,0,1,,,,,,,,,,,,,,,3,,,64,0
102000,note_on,,13,0,1,,,,,,,,,,,,,,,3,,,69,127
102047,note_on,,47,0,1,,,,,,,,,,,,,,,3,,,69,0
102300,note_on,,253,0,1,,,,,,,,,,,,,,,3,,,69,127
102347,note_on,,47,0,1,,,,,,,,,,,,,,,3,,,69,0
102360,note_on,,13,0,1,,,,,,,,,,,,,,,3,,,65,127
102407,note_on,,47,0,1,,,,,,,,,,,,,,,3,,,65,0
102420,note_on,,13,0,1,,,,,,,,,,,,,,,3,,,69,127
102443,note_on,,23,0,1,,,,,,,,,,,,,,,3,,,69,0
102450,note_on,,7,0,1,,,,,,,,,,,,,,,3,,,67,127
102473,note_on,,23,0,1,,,,,,,,,,,,,,,3,,,67,0
102480,note_on,,7,0,1,,,,,,,,,,,,,,,3,,,69,127
102527,note_on,,47,0,1,,,,,,,,,,,,,,,3,,,69,0
102540,note_on,,13,0,1,,,,,,,,,,,,,,,3,,,65,127
102587,note_on,,47,0,1,,,,,,,,,,,,,,,3,,,65,0
102600,note_on,,13,0,1,,,,,,,,,,,,,,,3,,,69,127
102647,note_on,,47,0,1,,,,,,,,,,,,,,,3,,,69,0
102660,note_on,,13,0,1,,,,,,,,,,,,,,,3,,,65,127
102707,note_on,,47,0,1,,,,,,,,,,,,,,,3,,,65,0
102720,note_on,,13,0,1,,,,,,,,,,,,,,,3,,,72,127
102767,note_on,,47,0,1,,,,,,,,,,,,,,,3,,,72,0
103020,note_on,,253,0,1,,,,,,,,,,,,,,,3,,,72,127
103067,note_on,,47,0,1,,,,,,,,,,,,,,,3,,,72,0
103080,note_on,,13,0,1,,,,,,,,,,,,,,,3,,,71,127
103103,note_on,,23,0,1,,,,,,,,,,,,,,,3,,,71,0
103110,note_on,,7,0,1,,,,,,,,,,,,,,,3,,,74,127
103133,note_on,,23,0,1,,,,,,,,,,,,,,,3,,,74,0
103140,note_on,,7,0,1,,,,,,,,,,,,,,,3,,,67,127
103163,note_on,,23,0,1,,,,,,,,,,,,,,,3,,,67,0
103170,note_on,,7,0,1,,,,,,,,,,,,,,,3,,,74,127
103193,note_on,,23,0,1,,,,,,,,,,,,,,,3,,,74,0
103200,note_on,,7,0,1,,,,,,,,,,,,,,,3,,,69,127
103223,note_on,,23,0,1,,,,,,,,,,,,,,,3,,,69,0
103230,note_on,,7,0,1,,,,,,,,,,,,,,,3,,,74,127
103253,note_on,,23,0,1,,,,,,,,,,,,,,,3,,,74,0
103260,note_on,,7,0,1,,,,,,,,,,,,,,,3,,,71,127
103283,note_on,,23,0,1,,,,,,,,,,,,,,,3,,,71,0
103290,note_on,,7,0,1,,,,,,,,,,,,,,,3,,,74,127
103313,note_on,,23,0,1,,,,,,,,,,,,,,,3,,,74,0
103320,note_on,,7,0,1,,,,,,,,,,,,,,,3,,,69,127
103343,note_on,,23,0,1,,,,,,,,,,,,,,,3,,,69,0
103350,note_on,,7,0,1,,,,,,,,,,,,,,,3,,,74,127
103373,note_on,,23,0,1,,,,,,,,,,,,,,,3,,,74,0
103380,note_on,,7,0,1,,,,,,,,,,,,,,,3,,,71,127
103403,note_on,,23,0,1,,,,,,,,,,,,,,,3,,,71,0
103410,note_on,,7,0,1,,,,,,,,,,,,,,,3,,,74,127
103433,note_on,,23,0,1,,,,,,,,,,,,,,,3,,,74,0
103440,note_on,,7,0,1,,,,,,,,,,,,,,,3,,,72,127
103463,note_on,,23,0,1,,,,,,,,,,,,,,,3,,,72,0
103470,note_on,,7,0,1,,,,,,,,,,,,,,,3,,,74,127
103493,note_on,,23,0,1,,,,,,,,,,,,,,,3,,,74,0
103500,note_on,,7,0,1,,,,,,,,,,,,,,,3,,,71,127
103523,note_on,,23,0,1,,,,,,,,,,,,,,,3,,,71,0
103530,note_on,,7,0,1,,,,,,,,,,,,,,,3,,,74,127
103553,note_on,,23,0,1,,,,,,,,,,,,,,,3,,,74,0
103560,note_on,,7,0,1,,,,,,,,,,,,,,,3,,,69,127
103583,note_on,,23,0,1,,,,,,,,,,,,,,,3,,,69,0
103590,note_on,,7,0,1,,,,,,,,,,,,,,,3,,,74,127
103613,note_on,,23,0,1,,,,,,,,,,,,,,,3,,,74,0
103620,note_on,,7,0,1,,,,,,,,,,,,,,,3,,,71,127
103643,note_on,,23,0,1,,,,,,,,,,,,,,,3,,,71,0
103650,note_on,,7,0,1,,,,,,,,,,,,,,,3,,,74,127
103673,note_on,,23,0,1,,,,,,,,,,,,,,,3,,,74,0
103680,note_on,,7,0,1,,,,,,,,,,,,,,,3,,,67,127
103703,note_on,,23,0,1,,,,,,,,,,,,,,,3,,,67,0
103710,note_on,,7,0,1,,,,,,,,,,,,,,,3,,,74,127
103733,note_on,,23,0,1,,,,,,,,,,,,,,,3,,,74,0
103740,note_on,,7,0,1,,,,,,,,,,,,,,,3,,,65,127
103763,note_on,,23,0,1,,,,,,,,,,,,,,,3,,,65,0
103770,note_on,,7,0,1,,,,,,,,,,,,,,,3,,,74,127
103793,note_on,,23,0,1,,,,,,,,,,,,,,,3,,,74,0
103800,note_on,,7,0,1,,,,,,,,,,,,,,,3,,,64,127
103847,note_on,,47,0,1,,,,,,,,,,,,,,,3,,,64,0
103860,note_on,,13,0,1,,,,,,,,,,,,,,,3,,,72,127
103907,note_on,,47,0,1,,,,,,,,,,,,,,,3,,,72,0
103920,note_on,,13,0,1,,,,,,,,,,,,,,,3,,,66,127
103967,note_on,,47,0,1,,,,,,,,,,,,,,,3,,,66,0
103980,note_on,,13,0,1,,,,,,,,,,,,,,,3,,,67,127
104027,note_on,,47,0,1,,,,,,,,,,,,,,,3,,,67,0
104040,note_on,,13,0,1,,,,,,,,,,,,,,,3,,,69,127
104054,note_on,,14,0,1,,,,,,,,,,,,,,,3,,,69,0
104055,note_on,,1,0,1,,,,,,,,,,,,,,,3,,,67,127
104069,note_on,,14,0,1,,,,,,,,,,,,,,,3,,,67,0
104070,note_on,,1,0,1,,,,,,,,,,,,,,,3,,,69,127
104084,note_on,,14,0,1,,,,,,,,,,,,,,,3,,,69,0
104085,note_on,,1,0,1,,,,,,,,,,,,,,,3,,,67,127
104085,note_on,,0,0,1,,,,,,,,,,,,,,,3,,,67,127
104126,note_on,,41,0,1,,,,,,,,,,,,,,,3,,,67,0
104126,note_on,,0,0,1,,,,,,,,,,,,,,,3,,,67,0
104130,note_on,,4,0,1,,,,,,,,,,,,,,,3,,,66,127
104153,note_on,,23,0,1,,,,,,,,,,,,,,,3,,,66,0
104160,note_on,,7,0,1,,,,,,,,,,,,,,,3,,,67,127
104160,note_on,,0,0,1,,,,,,,,,,,,,,,3,,,55,127
104207,note_on,,47,0,1,,,,,,,,,,,,,,,3,,,67,0
104207,note_on,,0,0,1,,,,,,,,,,,,,,,3,,,55,0
104220,note_on,,13,0,1,,,,,,,,,,,,,,,3,,,59,127
104243,note_on,,23,0,1,,,,,,,,,,,,,,,3,,,59,0
104250,note_on,,7,0,1,,,,,,,,,,,,,,,3,,,57,127
104273,note_on,,23,0,1,,,,,,,,,,,,,,,3,,,57,0
104280,note_on,,7,0,1,,,,,,,,,,,,,,,3,,,59,127
104327,note_on,,47,0,1,,,,,,,,,,,,,,,3,,,59,0
104340,note_on,,13,0,1,,,,,,,,,,,,,,,3,,,55,127
104387,note_on,,47,0,1,,,,,,,,,,,,,,,3,,,55,0
104400,note_on,,13,0,1,,,,,,,,,,,,,,,3,,,59,127
104447,note_on,,47,0,1,,,,,,,,,,,,,,,3,,,59,0
104460,note_on,,13,0,1,,,,,,,,,,,,,,,3,,,79,127
104460,note_on,,0,0,1,,,,,,,,,,,,,,,3,,,55,127
104507,note_on,,47,0,1,,,,,,,,,,,,,,,3,,,79,0
104507,note_on,,0,0,1,,,,,,,,,,,,,,,3,,,55,0
104520,note_on,,13,0,1,,,,,,,,,,,,,,,3,,,76,127
104520,note_on,,0,0,1,,,,,,,,,,,,,,,3,,,60,127
104543,note_on,,23,0,1,,,,,,,,,,,,,,,3,,,76,0
104550,note_on,,7,0,1,,,,,,,,,,,,,,,3,,,77,127
104567,note_on,,17,0,1,,,,,,,,,,,,,,,3,,,60,0
104573,note_on,,6,0,1,,,,,,,,,,,,,,,3,,,77,0
104580,note_on,,7,0,1,,,,,,,,,,,,,,,3,,,79,127
104603,note_on,,23,0,1,,,,,,,,,,,,,,,3,,,79,0
104610,note_on,,7,0,1,,,,,,,,,,,,,,,3,,,77,127
104633,note_on,,23,0,1,,,,,,,,,,,,,,,3,,,77,0
104640,note_on,,7,0,1,,,,,,,,,,,,,,,3,,,76,127
104663,note_on,,23,0,1,,,,,,,,,,,,,,,3,,,76,0
104670,note_on,,7,0,1,,,,,,,,,,,,,,,3,,,74,127
104693,note_on,,23,0,1,,,,,,,,,,,,,,,3,,,74,0
104700,note_on,,7,0,1,,,,,,,,,,,,,,,3,,,76,127
104723,note_on,,23,0,1,,,,,,,,,,,,,,,3,,,76,0
104730,note_on,,7,0,1,,,,,,,,,,,,,,,3,,,77,127
104753,note_on,,23,0,1,,,,,,,,,,,,,,,3,,,77,0
104760,note_on,,7,0,1,,,,,,,,,,,,,,,3,,,79,127
104783,note_on,,23,0,1,,,,,,,,,,,,,,,3,,,79,0
104790,note_on,,7,0,1,,,,,,,,,,,,,,,3,,,77,127
104813,note_on,,23,0,1,,,,,,,,,,,,,,,3,,,77,0
104820,note_on,,7,0,1,,,,,,,,,,,,,,,3,,,76,127
104820,note_on,,0,0,1,,,,,,,,,,,,,,,3,,,60,127
104843,note_on,,23,0,1,,,,,,,,,,,,,,,3,,,76,0
104850,note_on,,7,0,1,,,,,,,,,,,,,,,3,,,77,127
104867,note_on,,17,0,1,,,,,,,,,,,,,,,3,,,60,0
104873,note_on,,6,0,1,,,,,,,,,,,,,,,3,,,77,0
104880,note_on,,7,0,1,,,,,,,,,,,,,,,3,,,74,127
104880,note_on,,0,0,1,,,,,,,,,,,,,,,3,,,59,127
104927,note_on,,47,0,1,,,,,,,,,,,,,,,3,,,74,0
104927,note_on,,0,0,1,,,,,,,,,,,,,,,3,,,59,0
104940,note_on,,13,0,1,,,,,,,,,,,,,,,3,,,62,127
104963,note_on,,23,0,1,,,,,,,,,,,,,,,3,,,62,0
104970,note_on,,7,0,1,,,,,,,,,,,,,,,3,,,60,127
104993,note_on,,23,0,1,,,,,,,,,,,,,,,3,,,60,0
105000,note_on,,7,0,1,,,,,,,,,,,,,,,3,,,62,127
105047,note_on,,47,0,1,,,,,,,,,,,,,,,3,,,62,0
105060,note_on,,13,0,1,,,,,,,,,,,,,,,3,,,59,127
105107,note_on,,47,0,1,,,,,,,,,,,,,,,3,,,59,0
105120,note_on,,13,0,1,,,,,,,,,,,,,,,3,,,62,127
105167,note_on,,47,0,1,,,,,,,,,,,,,,,3,,,62,0
105180,note_on,,0,0,1,,,,,,,,,,,,,,,3,,,59,127
105180,note_on,,13,0,1,,,,,,,,,,,,,,,3,,,74,127
105227,note_on,,47,0,1,,,,,,,,,,,,,,,3,,,74,0
105227,note_on,,0,0,1,,,,,,,,,,,,,,,3,,,59,0
105240,note_on,,13,0,1,,,,,,,,,,,,,,,3,,,79,127
105240,note_on,,0,0,1,,,,,,,,,,,,,,,3,,,64,127
105263,note_on,,23,0,1,,,,,,,,,,,,,,,3,,,79,0
105270,note_on,,7,0,1,,,,,,,,,,,,,,,3,,,81,127
105287,note_on,,17,0,1,,,,,,,,,,,,,,,3,,,64,0
105293,note_on,,6,0,1,,,,,,,,,,,,,,,3,,,81,0
105300,note_on,,7,0,1,,,,,,,,,,,,,,,3,,,83,127
105323,note_on,,23,0,1,,,,,,,,,,,,,,,3,,,83,0
105330,note_on,,7,0,1,,,,,,,,,,,,,,,3,,,81,127
105353,note_on,,23,0,1,,,,,,,,,,,,,,,3,,,81,0
105360,note_on,,7,0,1,,,,,,,,,,,,,,,3,,,79,127
105383,note_on,,23,0,1,,,,,,,,,,,,,,,3,,,79,0
105390,note_on,,7,0,1,,,,,,,,,,,,,,,3,,,78,127
105413,note_on,,23,0,1,,,,,,,,,,,,,,,3,,,78,0
105420,note_on,,7,0,1,,,,,,,,,,,,,,,3,,,79,127
105443,note_on,,23,0,1,,,,,,,,,,,,,,,3,,,79,0
105450,note_on,,7,0,1,,,,,,,,,,,,,,,3,,,81,127
105473,note_on,,23,0,1,,,,,,,,,,,,,,,3,,,81,0
105480,note_on,,7,0,1,,,,,,,,,,,,,,,3,,,83,127
105503,note_on,,23,0,1,,,,,,,,,,,,,,,3,,,83,0
105510,note_on,,7,0,1,,,,,,,,,,,,,,,3,,,81,127
105533,note_on,,23,0,1,,,,,,,,,,,,,,,3,,,81,0
105540,note_on,,7,0,1,,,,,,,,,,,,,,,3,,,79,127
105540,note_on,,0,0,1,,,,,,,,,,,,,,,3,,,64,127
105563,note_on,,23,0,1,,,,,,,,,,,,,,,3,,,79,0
105570,note_on,,7,0,1,,,,,,,,,,,,,,,3,,,77,127
105587,note_on,,17,0,1,,,,,,,,,,,,,,,3,,,64,0
105593,note_on,,6,0,1,,,,,,,,,,,,,,,3,,,77,0
105600,note_on,,0,0,1,,,,,,,,,,,,,,,3,,,60,127
105600,note_on,,7,0,1,,,,,,,,,,,,,,,3,,,76,127
105647,note_on,,0,0,1,,,,,,,,,,,,,,,3,,,60,0
105647,note_on,,47,0,1,,,,,,,,,,,,,,,3,,,76,0
105660,note_on,,13,0,1,,,,,,,,,,,,,,,3,,,64,127
105683,note_on,,23,0,1,,,,,,,,,,,,,,,3,,,64,0
105690,note_on,,7,0,1,,,,,,,,,,,,,,,3,,,62,127
105713,note_on,,23,0,1,,,,,,,,,,,,,,,3,,,62,0
105720,note_on,,7,0,1,,,,,,,,,,,,,,,3,,,64,127
105767,note_on,,47,0,1,,,,,,,,,,,,,,,3,,,64,0
105780,note_on,,13,0,1,,,,,,,,,,,,,,,3,,,60,127
105827,note_on,,47,0,1,,,,,,,,,,,,,,,3,,,60,0
105840,note_on,,13,0,1,,,,,,,,,,,,,,,3,,,64,127
105887,note_on,,47,0,1,,,,,,,,,,,,,,,3,,,64,0
105900,note_on,,0,0,1,,,,,,,,,,,,,,,3,,,60,127
105900,note_on,,13,0,1,,,,,,,,,,,,,,,3,,,76,127
105947,note_on,,0,0,1,,,,,,,,,,,,,,,3,,,60,0
105947,note_on,,47,0,1,,,,,,,,,,,,,,,3,,,76,0
105960,note_on,,0,0,1,,,,,,,,,,,,,,,3,,,67,127
105960,note_on,,13,0,1,,,,,,,,,,,,,,,3,,,71,127
105983,note_on,,23,0,1,,,,,,,,,,,,,,,3,,,71,0
105990,note_on,,7,0,1,,,,,,,,,,,,,,,3,,,72,127
106007,note_on,,17,0,1,,,,,,,,,,,,,,,3,,,67,0
106013,note_on,,6,0,1,,,,,,,,,,,,,,,3,,,72,0
106020,note_on,,7,0,1,,,,,,,,,,,,,,,3,,,74,127
106043,note_on,,23,0,1,,,,,,,,,,,,,,,3,,,74,0
106050,note_on,,7,0,1,,,,,,,,,,,,,,,3,,,72,127
106073,note_on,,23,0,1,,,,,,,,,,,,,,,3,,,72,0
106080,note_on,,7,0,1,,,,,,,,,,,,,,,3,,,71,127
106103,note_on,,23,0,1,,,,,,,,,,,,,,,3,,,71,0
106110,note_on,,7,0,1,,,,,,,,,,,,,,,3,,,69,127
106133,note_on,,23,0,1,,,,,,,,,,,,,,,3,,,69,0
106140,note_on,,7,0,1,,,,,,,,,,,,,,,3,,,71,127
106163,note_on,,23,0,1,,,,,,,,,,,,,,,3,,,71,0
106170,note_on,,7,0,1,,,,,,,,,,,,,,,3,,,72,127
106193,note_on,,23,0,1,,,,,,,,,,,,,,,3,,,72,0
106200,note_on,,7,0,1,,,,,,,,,,,,,,,3,,,74,127
106223,note_on,,23,0,1,,,,,,,,,,,,,,,3,,,74,0
106230,note_on,,7,0,1,,,,,,,,,,,,,,,3,,,72,127
106253,note_on,,23,0,1,,,,,,,,,,,,,,,3,,,72,0
106260,note_on,,7,0,1,,,,,,,,,,,,,,,3,,,74,127
106260,note_on,,0,0,1,,,,,,,,,,,,,,,3,,,67,127
106283,note_on,,23,0,1,,,,,,,,,,,,,,,3,,,74,0
106290,note_on,,7,0,1,,,,,,,,,,,,,,,3,,,71,127
106307,note_on,,17,0,1,,,,,,,,,,,,,,,3,,,67,0
106313,note_on,,6,0,1,,,,,,,,,,,,,,,3,,,71,0
106320,note_on,,7,0,1,,,,,,,,,,,,,,,3,,,72,127
106320,note_on,,0,0,1,,,,,,,,,,,,,,,3,,,64,127
106343,note_on,,23,0,1,,,,,,,,,,,,,,,3,,,64,0
106350,note_on,,7,0,1,,,,,,,,,,,,,,,3,,,67,127
106367,note_on,,17,0,1,,,,,,,,,,,,,,,3,,,72,0
106373,note_on,,6,0,1,,,,,,,,,,,,,,,3,,,67,0
106380,note_on,,7,0,1,,,,,,,,,,,,,,,3,,,60,127
106403,note_on,,23,0,1,,,,,,,,,,,,,,,3,,,60,0
106410,note_on,,7,0,1,,,,,,,,,,,,,,,3,,,67,127
106433,note_on,,23,0,1,,,,,,,,,,,,,,,3,,,67,0
106440,note_on,,7,0,1,,,,,,,,,,,,,,,3,,,71,127
106440,note_on,,0,0,1,,,,,,,,,,,,,,,3,,,62,127
106463,note_on,,23,0,1,,,,,,,,,,,,,,,3,,,62,0
106470,note_on,,7,0,1,,,,,,,,,,,,,,,3,,,67,127
106487,note_on,,17,0,1,,,,,,,,,,,,,,,3,,,71,0
106493,note_on,,6,0,1,,,,,,,,,,,,,,,3,,,67,0
106500,note_on,,7,0,1,,,,,,,,,,,,,,,3,,,72,127
106500,note_on,,0,0,1,,,,,,,,,,,,,,,3,,,64,127
106523,note_on,,23,0,1,,,,,,,,,,,,,,,3,,,64,0
106530,note_on,,7,0,1,,,,,,,,,,,,,,,3,,,67,127
106547,note_on,,17,0,1,,,,,,,,,,,,,,,3,,,72,0
106553,note_on,,6,0,1,,,,,,,,,,,,,,,3,,,67,0
106560,note_on,,0,0,1,,,,,,,,,,,,,,,3,,,62,127
106560,note_on,,7,0,1,,,,,,,,,,,,,,,3,,,71,127
106583,note_on,,23,0,1,,,,,,,,,,,,,,,3,,,62,0
106590,note_on,,7,0,1,,,,,,,,,,,,,,,3,,,67,127
106607,note_on,,17,0,1,,,,,,,,,,,,,,,3,,,71,0
106613,note_on,,6,0,1,,,,,,,,,,,,,,,3,,,67,0
106620,note_on,,7,0,1,,,,,,,,,,,,,,,3,,,72,127
106620,note_on,,0,0,1,,,,,,,,,,,,,,,3,,,64,127
106643,note_on,,23,0,1,,,,,,,,,,,,,,,3,,,64,0
106650,note_on,,7,0,1,,,,,,,,,,,,,,,3,,,67,127
106667,note_on,,17,0,1,,,,,,,,,,,,,,,3,,,72,0
106673,note_on,,6,0,1,,,,,,,,,,,,,,,3,,,67,0
106680,note_on,,7,0,1,,,,,,,,,,,,,,,3,,,74,127
106680,note_on,,0,0,1,,,,,,,,,,,,,,,3,,,65,127
106703,note_on,,23,0,1,,,,,,,,,,,,,,,3,,,65,0
106710,note_on,,7,0,1,,,,,,,,,,,,,,,3,,,67,127
106727,note_on,,17,0,1,,,,,,,,,,,,,,,3,,,74,0
106733,note_on,,6,0,1,,,,,,,,,,,,,,,3,,,67,0
106740,note_on,,0,0,1,,,,,,,,,,,,,,,3,,,64,127
106740,note_on,,7,0,1,,,,,,,,,,,,,,,3,,,72,127
106763,note_on,,23,0,1,,,,,,,,,,,,,,,3,,,64,0
106770,note_on,,7,0,1,,,,,,,,,,,,,,,3,,,67,127
106787,note_on,,17,0,1,,,,,,,,,,,,,,,3,,,72,0
106793,note_on,,6,0,1,,,,,,,,,,,,,,,3,,,67,0
106800,note_on,,7,0,1,,,,,,,,,,,,,,,3,,,71,127
106800,note_on,,0,0,1,,,,,,,,,,,,,,,3,,,62,127
106823,note_on,,23,0,1,,,,,,,,,,,,,,,3,,,62,0
106830,note_on,,7,0,1,,,,,,,,,,,,,,,3,,,67,127
106847,note_on,,17,0,1,,,,,,,,,,,,,,,3,,,71,0
106853,note_on,,6,0,1,,,,,,,,,,,,,,,3,,,67,0
106860,note_on,,0,0,1,,,,,,,,,,,,,,,3,,,64,127
106860,note_on,,7,0,1,,,,,,,,,,,,,,,3,,,72,127
106883,note_on,,23,0,1,,,,,,,,,,,,,,,3,,,64,0
106890,note_on,,7,0,1,,,,,,,,,,,,,,,3,,,67,127
106907,note_on,,17,0,1,,,,,,,,,,,,,,,3,,,72,0
106913,note_on,,6,0,1,,,,,,,,,,,,,,,3,,,67,0
106920,note_on,,0,0,1,,,,,,,,,,,,,,,3,,,60,127
106920,note_on,,7,0,1,,,,,,,,,,,,,,,3,,,76,127
106943,note_on,,23,0,1,,,,,,,,,,,,,,,3,,,60,0
106950,note_on,,7,0,1,,,,,,,,,,,,,,,3,,,67,127
106967,note_on,,17,0,1,,,,,,,,,,,,,,,3,,,76,0
106973,note_on,,6,0,1,,,,,,,,,,,,,,,3,,,67,0
106980,note_on,,0,0,1,,,,,,,,,,,,,,,3,,,58,127
106980,note_on,,7,0,1,,,,,,,,,,,,,,,3,,,72,127
107003,note_on,,23,0,1,,,,,,,,,,,,,,,3,,,58,0
107010,note_on,,7,0,1,,,,,,,,,,,,,,,3,,,67,127
107027,note_on,,17,0,1,,,,,,,,,,,,,,,3,,,72,0
107033,note_on,,6,0,1,,,,,,,,,,,,,,,3,,,67,0
107040,note_on,,0,0,1,,,,,,,,,,,,,,,3,,,57,127
107040,note_on,,7,0,1,,,,,,,,,,,,,,,3,,,77,127
107063,note_on,,23,0,1,,,,,,,,,,,,,,,3,,,77,0
107070,note_on,,7,0,1,,,,,,,,,,,,,,,3,,,79,127
107087,note_on,,17,0,1,,,,,,,,,,,,,,,3,,,57,0
107093,note_on,,6,0,1,,,,,,,,,,,,,,,3,,,79,0
107100,note_on,,0,0,1,,,,,,,,,,,,,,,3,,,65,127
107100,note_on,,7,0,1,,,,,,,,,,,,,,,3,,,81,127
107123,note_on,,23,0,1,,,,,,,,,,,,,,,3,,,81,0
107130,note_on,,7,0,1,,,,,,,,,,,,,,,3,,,79,127
107147,note_on,,17,0,1,,,,,,,,,,,,,,,3,,,65,0
107153,note_on,,6,0,1,,,,,,,,,,,,,,,3,,,79,0
107160,note_on,,7,0,1,,,,,,,,,,,,,,,3,,,77,127
107160,note_on,,0,0,1,,,,,,,,,,,,,,,3,,,59,127
107183,note_on,,23,0,1,,,,,,,,,,,,,,,3,,,77,0
107190,note_on,,7,0,1,,,,,,,,,,,,,,,3,,,79,127
107207,note_on,,17,0,1,,,,,,,,,,,,,,,3,,,59,0
107213,note_on,,6,0,1,,,,,,,,,,,,,,,3,,,79,0
107220,note_on,,0,0,1,,,,,,,,,,,,,,,3,,,60,127
107220,note_on,,7,0,1,,,,,,,,,,,,,,,3,,,76,127
107243,note_on,,23,0,1,,,,,,,,,,,,,,,3,,,76,0
107250,note_on,,7,0,1,,,,,,,,,,,,,,,3,,,77,127
107267,note_on,,17,0,1,,,,,,,,,,,,,,,3,,,60,0
107273,note_on,,6,0,1,,,,,,,,,,,,,,,3,,,77,0
107280,note_on,,7,0,1,,,,,,,,,,,,,,,3,,,74,127
107280,note_on,,0,0,1,,,,,,,,,,,,,,,3,,,62,127
107294,note_on,,14,0,1,,,,,,,,,,,,,,,3,,,62,0
107295,note_on,,1,0,1,,,,,,,,,,,,,,,3,,,60,127
107303,note_on,,8,0,1,,,,,,,,,,,,,,,3,,,74,0
107309,note_on,,6,0,1,,,,,,,,,,,,,,,3,,,60,0
107310,note_on,,0,0,1,,,,,,,,,,,,,,,3,,,62,127
107310,note_on,,1,0,1,,,,,,,,,,,,,,,3,,,77,127
107324,note_on,,14,0,1,,,,,,,,,,,,,,,3,,,62,0
107325,note_on,,1,0,1,,,,,,,,,,,,,,,3,,,60,127
107333,note_on,,8,0,1,,,,,,,,,,,,,,,3,,,77,0
107340,note_on,,7,0,1,,,,,,,,,,,,,,,3,,,76,127
107363,note_on,,23,0,1,,,,,,,,,,,,,,,3,,,76,0
107366,note_on,,3,0,1,,,,,,,,,,,,,,,3,,,60,0
107370,note_on,,4,0,1,,,,,,,,,,,,,,,3,,,74,127
107370,note_on,,0,0,1,,,,,,,,,,,,,,,3,,,59,127
107393,note_on,,0,0,1,,,,,,,,,,,,,,,3,,,59,0
107393,note_on,,23,0,1,,,,,,,,,,,,,,,3,,,74,0
107400,note_on,,7,0,1,,,,,,,,,,,,,,,3,,,76,127
107400,note_on,,0,0,1,,,,,,,,,,,,,,,3,,,60,127
107400,note_on,,0,0,1,,,,,,,,,,,,,,,3,,,48,127
107447,note_on,,47,0,1,,,,,,,,,,,,,,,3,,,76,0
107447,note_on,,0,0,1,,,,,,,,,,,,,,,3,,,60,0
107447,note_on,,0,0,1,,,,,,,,,,,,,,,3,,,48,0
107460,note_on,,13,0,1,,,,,,,,,,,,,,,3,,,79,127
107460,note_on,,0,0,1,,,,,,,,,,,,,,,3,,,52,127
107483,note_on,,0,0,1,,,,,,,,,,,,,,,3,,,52,0
107483,note_on,,23,0,1,,,,,,,,,,,,,,,3,,,79,0
107490,note_on,,7,0,1,,,,,,,,,,,,,,,3,,,77,127
107490,note_on,,0,0,1,,,,,,,,,,,,,,,3,,,50,127
107513,note_on,,0,0,1,,,,,,,,,,,,,,,3,,,50,0
107513,note_on,,23,0,1,,,,,,,,,,,,,,,3,,,77,0
107520,note_on,,7,0,1,,,,,,,,,,,,,,,3,,,79,127
107520,note_on,,0,0,1,,,,,,,,,,,,,,,3,,,52,127
107567,note_on,,47,0,1,,,,,,,,,,,,,,,3,,,79,0
107567,note_on,,0,0,1,,,,,,,,,,,,,,,3,,,52,0
107580,note_on,,0,0,1,,,,,,,,,,,,,,,3,,,48,127
107580,note_on,,13,0,1,,,,,,,,,,,,,,,3,,,76,127
107627,note_on,,47,0,1,,,,,,,,,,,,,,,3,,,76,0
107627,note_on,,0,0,1,,,,,,,,,,,,,,,3,,,48,0
107640,note_on,,13,0,1,,,,,,,,,,,,,,,3,,,79,127
107640,note_on,,0,0,1,,,,,,,,,,,,,,,3,,,52,127
107687,note_on,,47,0,1,,,,,,,,,,,,,,,3,,,79,0
107687,note_on,,0,0,1,,,,,,,,,,,,,,,3,,,52,0
107700,note_on,,13,0,1,,,,,,,,,,,,,,,3,,,76,127
107700,note_on,,0,0,1,,,,,,,,,,,,,,,3,,,48,127
107700,note_on,,0,0,1,,,,,,,,,,,,,,,3,,,72,127
107747,note_on,,0,0,1,,,,,,,,,,,,,,,3,,,72,0
107747,note_on,,0,0,1,,,,,,,,,,,,,,,3,,,48,0
107747,note_on,,47,0,1,,,,,,,,,,,,,,,3,,,76,0
107760,note_on,,0,0,1,,,,,,,,,,,,,,,3,,,71,127
107760,note_on,,0,0,1,,,,,,,,,,,,,,,3,,,55,127
107760,note_on,,13,0,1,,,,,,,,,,,,,,,3,,,74,127
107783,note_on,,23,0,1,,,,,,,,,,,,,,,3,,,71,0
107790,note_on,,7,0,1,,,,,,,,,,,,,,,3,,,72,127
107807,note_on,,17,0,1,,,,,,,,,,,,,,,3,,,74,0
107807,note_on,,0,0,1,,,,,,,,,,,,,,,3,,,55,0
107813,note_on,,6,0,1,,,,,,,,,,,,,,,3,,,72,0
107820,note_on,,7,0,1,,,,,,,,,,,,,,,3,,,74,127
107843,note_on,,23,0,1,,,,,,,,,,,,,,,3,,,74,0
107850,note_on,,7,0,1,,,,,,,,,,,,,,,3,,,72,127
107873,note_on,,23,0,1,,,,,,,,,,,,,,,3,,,72,0
107880,note_on,,7,0,1,,,,,,,,,,,,,,,3,,,71,127
107903,note_on,,23,0,1,,,,,,,,,,,,,,,3,,,71,0
107910,note_on,,7,0,1,,,,,,,,,,,,,,,3,,,69,127
107933,note_on,,23,0,1,,,,,,,,,,,,,,,3,,,69,0
107940,note_on,,7,0,1,,,,,,,,,,,,,,,3,,,71,127
107963,note_on,,23,0,1,,,,,,,,,,,,,,,3,,,71,0
107970,note_on,,7,0,1,,,,,,,,,,,,,,,3,,,72,127
107993,note_on,,23,0,1,,,,,,,,,,,,,,,3,,,72,0
108000,note_on,,7,0,1,,,,,,,,,,,,,,,3,,,74,127
108023,note_on,,23,0,1,,,,,,,,,,,,,,,3,,,74,0
108030,note_on,,7,0,1,,,,,,,,,,,,,,,3,,,72,127
108053,note_on,,23,0,1,,,,,,,,,,,,,,,3,,,72,0
108060,note_on,,0,0,1,,,,,,,,,,,,,,,3,,,55,127
108060,note_on,,0,0,1,,,,,,,,,,,,,,,3,,,71,127
108060,note_on,,7,0,1,,,,,,,,,,,,,,,3,,,74,127
108083,note_on,,23,0,1,,,,,,,,,,,,,,,3,,,71,0
108090,note_on,,7,0,1,,,,,,,,,,,,,,,3,,,69,127
108107,note_on,,0,0,1,,,,,,,,,,,,,,,3,,,55,0
108107,note_on,,17,0,1,,,,,,,,,,,,,,,3,,,74,0
108113,note_on,,6,0,1,,,,,,,,,,,,,,,3,,,69,0
108120,note_on,,0,0,1,,,,,,,,,,,,,,,3,,,52,127
108120,note_on,,0,0,1,,,,,,,,,,,,,,,3,,,67,127
108120,note_on,,7,0,1,,,,,,,,,,,,,,,3,,,79,127
108167,note_on,,47,0,1,,,,,,,,,,,,,,,3,,,79,0
108167,note_on,,0,0,1,,,,,,,,,,,,,,,3,,,52,0
108167,note_on,,0,0,1,,,,,,,,,,,,,,,3,,,67,0
108180,note_on,,0,0,1,,,,,,,,,,,,,,,3,,,55,127
108180,note_on,,13,0,1,,,,,,,,,,,,,,,3,,,83,127
108203,note_on,,23,0,1,,,,,,,,,,,,,,,3,,,83,0
108203,note_on,,0,0,1,,,,,,,,,,,,,,,3,,,55,0
108210,note_on,,0,0,1,,,,,,,,,,,,,,,3,,,53,127
108210,note_on,,7,0,1,,,,,,,,,,,,,,,3,,,81,127
108233,note_on,,0,0,1,,,,,,,,,,,,,,,3,,,53,0
108233,note_on,,23,0,1,,,,,,,,,,,,,,,3,,,81,0
108240,note_on,,0,0,1,,,,,,,,,,,,,,,3,,,55,127
108240,note_on,,7,0,1,,,,,,,,,,,,,,,3,,,83,127
108287,note_on,,0,0,1,,,,,,,,,,,,,,,3,,,55,0
108287,note_on,,47,0,1,,,,,,,,,,,,,,,3,,,83,0
108300,note_on,,0,0,1,,,,,,,,,,,,,,,3,,,52,127
108300,note_on,,13,0,1,,,,,,,,,,,,,,,3,,,79,127
108347,note_on,,0,0,1,,,,,,,,,,,,,,,3,,,52,0
108347,note_on,,47,0,1,,,,,,,,,,,,,,,3,,,79,0
108360,note_on,,13,0,1,,,,,,,,,,,,,,,3,,,83,127
108360,note_on,,0,0,1,,,,,,,,,,,,,,,3,,,55,127
108407,note_on,,47,0,1,,,,,,,,,,,,,,,3,,,83,0
108407,note_on,,0,0,1,,,,,,,,,,,,,,,3,,,55,0
108420,note_on,,13,0,1,,,,,,,,,,,,,,,3,,,79,127
108420,note_on,,0,0,1,,,,,,,,,,,,,,,3,,,52,127
108420,note_on,,0,0,1,,,,,,,,,,,,,,,3,,,76,127
108467,note_on,,47,0,1,,,,,,,,,,,,,,,3,,,79,0
108467,note_on,,0,0,1,,,,,,,,,,,,,,,3,,,76,0
108467,note_on,,0,0,1,,,,,,,,,,,,,,,3,,,52,0
108480,note_on,,13,0,1,,,,,,,,,,,,,,,3,,,76,127
108480,note_on,,0,0,1,,,,,,,,,,,,,,,3,,,72,127
108480,note_on,,0,0,1,,,,,,,,,,,,,,,3,,,57,127
108503,note_on,,23,0,1,,,,,,,,,,,,,,,3,,,72,0
108510,note_on,,7,0,1,,,,,,,,,,,,,,,3,,,74,127
108527,note_on,,0,0,1,,,,,,,,,,,,,,,3,,,57,0
108527,note_on,,17,0,1,,,,,,,,,,,,,,,3,,,76,0
108533,note_on,,6,0,1,,,,,,,,,,,,,,,3,,,74,0
108540,note_on,,7,0,1,,,,,,,,,,,,,,,3,,,76,127
108563,note_on,,23,0,1,,,,,,,,,,,,,,,3,,,76,0
108570,note_on,,7,0,1,,,,,,,,,,,,,,,3,,,74,127
108593,note_on,,23,0,1,,,,,,,,,,,,,,,3,,,74,0
108600,note_on,,7,0,1,,,,,,,,,,,,,,,3,,,72,127
108623,note_on,,23,0,1,,,,,,,,,,,,,,,3,,,72,0
108630,note_on,,7,0,1,,,,,,,,,,,,,,,3,,,71,127
108653,note_on,,23,0,1,,,,,,,,,,,,,,,3,,,71,0
108660,note_on,,7,0,1,,,,,,,,,,,,,,,3,,,72,127
108683,note_on,,23,0,1,,,,,,,,,,,,,,,3,,,72,0
108690,note_on,,7,0,1,,,,,,,,,,,,,,,3,,,74,127
108713,note_on,,23,0,1,,,,,,,,,,,,,,,3,,,74,0
108720,note_on,,7,0,1,,,,,,,,,,,,,,,3,,,76,127
108743,note_on,,23,0,1,,,,,,,,,,,,,,,3,,,76,0
108750,note_on,,7,0,1,,,,,,,,,,,,,,,3,,,74,127
108773,note_on,,23,0,1,,,,,,,,,,,,,,,3,,,74,0
108780,note_on,,0,0,1,,,,,,,,,,,,,,,3,,,57,127
108780,note_on,,0,0,1,,,,,,,,,,,,,,,3,,,72,127
108780,note_on,,7,0,1,,,,,,,,,,,,,,,3,,,76,127
108803,note_on,,23,0,1,,,,,,,,,,,,,,,3,,,72,0
108810,note_on,,7,0,1,,,,,,,,,,,,,,,3,,,71,127
108827,note_on,,0,0,1,,,,,,,,,,,,,,,3,,,57,0
108827,note_on,,17,0,1,,,,,,,,,,,,,,,3,,,76,0
108833,note_on,,6,0,1,,,,,,,,,,,,,,,3,,,71,0
108840,note_on,,7,0,1,,,,,,,,,,,,,,,3,,,81,127
108840,note_on,,0,0,1,,,,,,,,,,,,,,,3,,,69,127
108840,note_on,,0,0,1,,,,,,,,,,,,,,,3,,,53,127
108887,note_on,,0,0,1,,,,,,,,,,,,,,,3,,,53,0
108887,note_on,,47,0,1,,,,,,,,,,,,,,,3,,,81,0
108887,note_on,,0,0,1,,,,,,,,,,,,,,,3,,,69,0
108900,note_on,,13,0,1,,,,,,,,,,,,,,,3,,,84,127
108900,note_on,,0,0,1,,,,,,,,,,,,,,,3,,,57,127
108923,note_on,,0,0,1,,,,,,,,,,,,,,,3,,,57,0
108923,note_on,,23,0,1,,,,,,,,,,,,,,,3,,,84,0
108930,note_on,,7,0,1,,,,,,,,,,,,,,,3,,,82,127
108930,note_on,,0,0,1,,,,,,,,,,,,,,,3,,,55,127
108953,note_on,,23,0,1,,,,,,,,,,,,,,,3,,,82,0
108953,note_on,,0,0,1,,,,,,,,,,,,,,,3,,,55,0
108960,note_on,,7,0,1,,,,,,,,,,,,,,,3,,,84,127
108960,note_on,,0,0,1,,,,,,,,,,,,,,,3,,,57,127
109007,note_on,,0,0,1,,,,,,,,,,,,,,,3,,,57,0
109007,note_on,,47,0,1,,,,,,,,,,,,,,,3,,,84,0
109020,note_on,,0,0,1,,,,,,,,,,,,,,,3,,,53,127
109020,note_on,,13,0,1,,,,,,,,,,,,,,,3,,,81,127
109067,note_on,,0,0,1,,,,,,,,,,,,,,,3,,,53,0
109067,note_on,,47,0,1,,,,,,,,,,,,,,,3,,,81,0
109080,note_on,,0,0,1,,,,,,,,,,,,,,,3,,,57,127
109080,note_on,,13,0,1,,,,,,,,,,,,,,,3,,,84,127
109127,note_on,,47,0,1,,,,,,,,,,,,,,,3,,,84,0
109127,note_on,,0,0,1,,,,,,,,,,,,,,,3,,,57,0
109140,note_on,,0,0,1,,,,,,,,,,,,,,,3,,,65,127
109140,note_on,,0,0,1,,,,,,,,,,,,,,,3,,,53,127
109140,note_on,,13,0,1,,,,,,,,,,,,,,,3,,,81,127
109187,note_on,,47,0,1,,,,,,,,,,,,,,,3,,,81,0
109187,note_on,,0,0,1,,,,,,,,,,,,,,,3,,,65,0
109187,note_on,,0,0,1,,,,,,,,,,,,,,,3,,,53,0
109200,note_on,,13,0,1,,,,,,,,,,,,,,,3,,,79,127
109200,note_on,,0,0,1,,,,,,,,,,,,,,,3,,,64,127
109200,note_on,,0,0,1,,,,,,,,,,,,,,,3,,,60,127
109223,note_on,,23,0,1,,,,,,,,,,,,,,,3,,,64,0
109230,note_on,,7,0,1,,,,,,,,,,,,,,,3,,,65,127
109247,note_on,,0,0,1,,,,,,,,,,,,,,,3,,,60,0
109247,note_on,,17,0,1,,,,,,,,,,,,,,,3,,,79,0
109253,note_on,,6,0,1,,,,,,,,,,,,,,,3,,,65,0
109260,note_on,,7,0,1,,,,,,,,,,,,,,,3,,,67,127
109283,note_on,,23,0,1,,,,,,,,,,,,,,,3,,,67,0
109290,note_on,,7,0,1,,,,,,,,,,,,,,,3,,,65,127
109313,note_on,,23,0,1,,,,,,,,,,,,,,,3,,,65,0
109320,note_on,,7,0,1,,,,,,,,,,,,,,,3,,,64,127
109343,note_on,,23,0,1,,,,,,,,,,,,,,,3,,,64,0
109350,note_on,,7,0,1,,,,,,,,,,,,,,,3,,,62,127
109373,note_on,,23,0,1,,,,,,,,,,,,,,,3,,,62,0
109380,note_on,,7,0,1,,,,,,,,,,,,,,,3,,,64,127
109403,note_on,,23,0,1,,,,,,,,,,,,,,,3,,,64,0
109410,note_on,,7,0,1,,,,,,,,,,,,,,,3,,,65,127
109433,note_on,,23,0,1,,,,,,,,,,,,,,,3,,,65,0
109440,note_on,,7,0,1,,,,,,,,,,,,,,,3,,,67,127
109463,note_on,,23,0,1,,,,,,,,,,,,,,,3,,,67,0
109470,note_on,,7,0,1,,,,,,,,,,,,,,,3,,,65,127
109493,note_on,,23,0,1,,,,,,,,,,,,,,,3,,,65,0
109500,note_on,,7,0,1,,,,,,,,,,,,,,,3,,,79,127
109500,note_on,,0,0,1,,,,,,,,,,,,,,,3,,,64,127
109500,note_on,,0,0,1,,,,,,,,,,,,,,,3,,,60,127
109523,note_on,,23,0,1,,,,,,,,,,,,,,,3,,,64,0
109530,note_on,,7,0,1,,,,,,,,,,,,,,,3,,,65,127
109547,note_on,,0,0,1,,,,,,,,,,,,,,,3,,,60,0
109547,note_on,,17,0,1,,,,,,,,,,,,,,,3,,,79,0
109553,note_on,,6,0,1,,,,,,,,,,,,,,,3,,,65,0
109560,note_on,,7,0,1,,,,,,,,,,,,,,,3,,,79,127
109560,note_on,,0,0,1,,,,,,,,,,,,,,,3,,,62,127
109560,note_on,,0,0,1,,,,,,,,,,,,,,,3,,,59,127
109583,note_on,,23,0,1,,,,,,,,,,,,,,,3,,,59,0
109590,note_on,,7,0,1,,,,,,,,,,,,,,,3,,,62,127
109607,note_on,,0,0,1,,,,,,,,,,,,,,,3,,,62,0
109607,note_on,,17,0,1,,,,,,,,,,,,,,,3,,,79,0
109613,note_on,,6,0,1,,,,,,,,,,,,,,,3,,,62,0
109620,note_on,,0,0,1,,,,,,,,,,,,,,,3,,,55,127
109620,note_on,,7,0,1,,,,,,,,,,,,,,,3,,,71,127
109643,note_on,,23,0,1,,,,,,,,,,,,,,,3,,,55,0
109650,note_on,,7,0,1,,,,,,,,,,,,,,,3,,,62,127
109667,note_on,,17,0,1,,,,,,,,,,,,,,,3,,,71,0
109673,note_on,,6,0,1,,,,,,,,,,,,,,,3,,,62,0
109680,note_on,,7,0,1,,,,,,,,,,,,,,,3,,,72,127
109680,note_on,,0,0,1,,,,,,,,,,,,,,,3,,,66,127
109680,note_on,,0,0,1,,,,,,,,,,,,,,,3,,,57,127
109703,note_on,,23,0,1,,,,,,,,,,,,,,,3,,,57,0
109710,note_on,,7,0,1,,,,,,,,,,,,,,,3,,,62,127
109727,note_on,,17,0,1,,,,,,,,,,,,,,,3,,,72,0
109727,note_on,,0,0,1,,,,,,,,,,,,,,,3,,,66,0
109733,note_on,,6,0,1,,,,,,,,,,,,,,,3,,,62,0
109740,note_on,,0,0,1,,,,,,,,,,,,,,,3,,,59,127
109740,note_on,,7,0,1,,,,,,,,,,,,,,,3,,,74,127
109740,note_on,,0,0,1,,,,,,,,,,,,,,,3,,,67,127
109763,note_on,,23,0,1,,,,,,,,,,,,,,,3,,,59,0
109770,note_on,,7,0,1,,,,,,,,,,,,,,,3,,,62,127
109787,note_on,,0,0,1,,,,,,,,,,,,,,,3,,,67,0
109787,note_on,,17,0,1,,,,,,,,,,,,,,,3,,,74,0
109793,note_on,,6,0,1,,,,,,,,,,,,,,,3,,,62,0
109800,note_on,,0,0,1,,,,,,,,,,,,,,,3,,,57,127
109800,note_on,,0,0,1,,,,,,,,,,,,,,,3,,,66,127
109800,note_on,,7,0,1,,,,,,,,,,,,,,,3,,,72,127
109823,note_on,,23,0,1,,,,,,,,,,,,,,,3,,,57,0
109830,note_on,,7,0,1,,,,,,,,,,,,,,,3,,,62,127
109847,note_on,,17,0,1,,,,,,,,,,,,,,,3,,,72,0
109847,note_on,,0,0,1,,,,,,,,,,,,,,,3,,,66,0
109853,note_on,,6,0,1,,,,,,,,,,,,,,,3,,,62,0
109860,note_on,,0,0,1,,,,,,,,,,,,,,,3,,,59,127
109860,note_on,,0,0,1,,,,,,,,,,,,,,,3,,,67,127
109860,note_on,,7,0,1,,,,,,,,,,,,,,,3,,,74,127
109883,note_on,,23,0,1,,,,,,,,,,,,,,,3,,,59,0
109890,note_on,,7,0,1,,,,,,,,,,,,,,,3,,,62,127
109907,note_on,,0,0,1,,,,,,,,,,,,,,,3,,,67,0
109907,note_on,,17,0,1,,,,,,,,,,,,,,,3,,,74,0
109913,note_on,,6,0,1,,,,,,,,,,,,,,,3,,,62,0
109920,note_on,,0,0,1,,,,,,,,,,,,,,,3,,,67,127
109920,note_on,,0,0,1,,,,,,,,,,,,,,,3,,,60,127
109920,note_on,,7,0,1,,,,,,,,,,,,,,,3,,,76,127
109943,note_on,,23,0,1,,,,,,,,,,,,,,,3,,,60,0
109950,note_on,,7,0,1,,,,,,,,,,,,,,,3,,,62,127
109967,note_on,,17,0,1,,,,,,,,,,,,,,,3,,,76,0
109967,note_on,,0,0,1,,,,,,,,,,,,,,,3,,,67,0
109973,note_on,,6,0,1,,,,,,,,,,,,,,,3,,,62,0
109980,note_on,,7,0,1,,,,,,,,,,,,,,,3,,,74,127
109980,note_on,,0,0,1,,,,,,,,,,,,,,,3,,,67,127
109980,note_on,,0,0,1,,,,,,,,,,,,,,,3,,,59,127
110003,note_on,,23,0,1,,,,,,,,,,,,,,,3,,,59,0
110010,note_on,,7,0,1,,,,,,,,,,,,,,,3,,,62,127
110027,note_on,,17,0,1,,,,,,,,,,,,,,,3,,,74,0
110027,note_on,,0,0,1,,,,,,,,,,,,,,,3,,,67,0
110033,note_on,,6,0,1,,,,,,,,,,,,,,,3,,,62,0
110040,note_on,,7,0,1,,,,,,,,,,,,,,,3,,,72,127
110040,note_on,,0,0,1,,,,,,,,,,,,,,,3,,,66,127
110040,note_on,,0,0,1,,,,,,,,,,,,,,,3,,,57,127
110063,note_on,,23,0,1,,,,,,,,,,,,,,,3,,,57,0
110070,note_on,,7,0,1,,,,,,,,,,,,,,,3,,,62,127
110087,note_on,,17,0,1,,,,,,,,,,,,,,,3,,,72,0
110087,note_on,,0,0,1,,,,,,,,,,,,,,,3,,,66,0
110093,note_on,,6,0,1,,,,,,,,,,,,,,,3,,,62,0
110100,note_on,,7,0,1,,,,,,,,,,,,,,,3,,,74,127
110100,note_on,,0,0,1,,,,,,,,,,,,,,,3,,,67,127
110100,note_on,,0,0,1,,,,,,,,,,,,,,,3,,,59,127
110123,note_on,,23,0,1,,,,,,,,,,,,,,,3,,,59,0
110130,note_on,,7,0,1,,,,,,,,,,,,,,,3,,,62,127
110147,note_on,,17,0,1,,,,,,,,,,,,,,,3,,,74,0
110153,note_on,,6,0,1,,,,,,,,,,,,,,,3,,,62,0
110160,note_on,,0,0,1,,,,,,,,,,,,,,,3,,,55,127
110160,note_on,,7,0,1,,,,,,,,,,,,,,,3,,,71,127
110183,note_on,,23,0,1,,,,,,,,,,,,,,,3,,,55,0
110190,note_on,,7,0,1,,,,,,,,,,,,,,,3,,,62,127
110195,note_on,,5,0,1,,,,,,,,,,,,,,,3,,,67,0
110213,note_on,,18,0,1,,,,,,,,,,,,,,,3,,,62,0
110220,note_on,,7,0,1,,,,,,,,,,,,,,,3,,,67,127
110220,note_on,,0,0,1,,,,,,,,,,,,,,,3,,,53,127
110243,note_on,,23,0,1,,,,,,,,,,,,,,,3,,,53,0
110250,note_on,,7,0,1,,,,,,,,,,,,,,,3,,,62,127
110255,note_on,,5,0,1,,,,,,,,,,,,,,,3,,,71,0
110267,note_on,,12,0,1,,,,,,,,,,,,,,,3,,,67,0
110273,note_on,,6,0,1,,,,,,,,,,,,,,,3,,,62,0
110280,note_on,,0,0,1,,,,,,,,,,,,,,,3,,,67,127
110280,note_on,,0,0,1,,,,,,,,,,,,,,,3,,,52,127
110280,note_on,,7,0,1,,,,,,,,,,,,,,,3,,,72,127
110303,note_on,,23,0,1,,,,,,,,,,,,,,,3,,,67,0
110310,note_on,,7,0,1,,,,,,,,,,,,,,,3,,,65,127
110327,note_on,,0,0,1,,,,,,,,,,,,,,,3,,,52,0
110327,note_on,,17,0,1,,,,,,,,,,,,,,,3,,,72,0
110333,note_on,,6,0,1,,,,,,,,,,,,,,,3,,,65,0
110340,note_on,,0,0,1,,,,,,,,,,,,,,,3,,,60,127
110340,note_on,,7,0,1,,,,,,,,,,,,,,,3,,,64,127
110370,note_on,,30,0,1,,,,,,,,,,,,,,,3,,,67,127
110387,note_on,,17,0,1,,,,,,,,,,,,,,,3,,,64,0
110387,note_on,,0,0,1,,,,,,,,,,,,,,,3,,,60,0
110393,note_on,,6,0,1,,,,,,,,,,,,,,,3,,,67,0
110400,note_on,,0,0,1,,,,,,,,,,,,,,,3,,,54,127
110400,note_on,,7,0,1,,,,,,,,,,,,,,,3,,,69,127
110430,note_on,,30,0,1,,,,,,,,,,,,,,,3,,,62,127
110447,note_on,,0,0,1,,,,,,,,,,,,,,,3,,,54,0
110447,note_on,,17,0,1,,,,,,,,,,,,,,,3,,,69,0
110453,note_on,,6,0,1,,,,,,,,,,,,,,,3,,,62,0
110460,note_on,,0,0,1,,,,,,,,,,,,,,,3,,,55,127
110460,note_on,,7,0,1,,,,,,,,,,,,,,,3,,,71,127
110490,note_on,,30,0,1,,,,,,,,,,,,,,,3,,,67,127
110507,note_on,,0,0,1,,,,,,,,,,,,,,,3,,,55,0
110507,note_on,,17,0,1,,,,,,,,,,,,,,,3,,,71,0
110513,note_on,,6,0,1,,,,,,,,,,,,,,,3,,,67,0
110520,note_on,,7,0,1,,,,,,,,,,,,,,,3,,,72,127
110520,note_on,,0,0,1,,,,,,,,,,,,,,,3,,,57,127
110534,note_on,,14,0,1,,,,,,,,,,,,,,,3,,,57,0
110535,note_on,,1,0,1,,,,,,,,,,,,,,,3,,,55,127
110549,note_on,,14,0,1,,,,,,,,,,,,,,,3,,,55,0
110550,note_on,,0,0,1,,,,,,,,,,,,,,,3,,,57,127
110550,note_on,,1,0,1,,,,,,,,,,,,,,,3,,,69,127
110564,note_on,,14,0,1,,,,,,,,,,,,,,,3,,,57,0
110565,note_on,,1,0,1,,,,,,,,,,,,,,,3,,,55,127
110567,note_on,,2,0,1,,,,,,,,,,,,,,,3,,,72,0
110573,note_on,,6,0,1,,,,,,,,,,,,,,,3,,,69,0
110580,note_on,,7,0,1,,,,,,,,,,,,,,,3,,,74,127
110606,note_on,,26,0,1,,,,,,,,,,,,,,,3,,,55,0
110610,note_on,,0,0,1,,,,,,,,,,,,,,,3,,,54,127
110610,note_on,,4,0,1,,,,,,,,,,,,,,,3,,,69,127
110627,note_on,,17,0,1,,,,,,,,,,,,,,,3,,,74,0
110633,note_on,,0,0,1,,,,,,,,,,,,,,,3,,,54,0
110633,note_on,,6,0,1,,,,,,,,,,,,,,,3,,,69,0
110640,note_on,,0,0,1,,,,,,,,,,,,,,,3,,,67,127
110640,note_on,,7,0,1,,,,,,,,,,,,,,,3,,,71,127
110640,note_on,,0,0,1,,,,,,,,,,,,,,,3,,,43,127
110640,note_on,,0,0,1,,,,,,,,,,,,,,,3,,,55,127
110687,note_on,,47,0,1,,,,,,,,,,,,,,,3,,,71,0
110687,note_on,,0,0,1,,,,,,,,,,,,,,,3,,,67,0
110687,note_on,,0,0,1,,,,,,,,,,,,,,,3,,,55,0
110687,note_on,,0,0,1,,,,,,,,,,,,,,,3,,,43,0
110700,note_on,,13,0,1,,,,,,,,,,,,,,,3,,,74,127
110700,note_on,,0,0,1,,,,,,,,,,,,,,,3,,,47,127
110723,note_on,,23,0,1,,,,,,,,,,,,,,,3,,,74,0
110723,note_on,,0,0,1,,,,,,,,,,,,,,,3,,,47,0
110730,note_on,,0,0,1,,,,,,,,,,,,,,,3,,,45,127
110730,note_on,,7,0,1,,,,,,,,,,,,,,,3,,,72,127
110753,note_on,,0,0,1,,,,,,,,,,,,,,,3,,,45,0
110753,note_on,,23,0,1,,,,,,,,,,,,,,,3,,,72,0
110760,note_on,,7,0,1,,,,,,,,,,,,,,,3,,,74,127
110760,note_on,,0,0,1,,,,,,,,,,,,,,,3,,,47,127
110807,note_on,,47,0,1,,,,,,,,,,,,,,,3,,,74,0
110807,note_on,,0,0,1,,,,,,,,,,,,,,,3,,,47,0
110820,note_on,,13,0,1,,,,,,,,,,,,,,,3,,,71,127
110820,note_on,,0,0,1,,,,,,,,,,,,,,,3,,,43,127
110867,note_on,,47,0,1,,,,,,,,,,,,,,,3,,,71,0
110867,note_on,,0,0,1,,,,,,,,,,,,,,,3,,,43,0
110880,note_on,,0,0,1,,,,,,,,,,,,,,,3,,,47,127
110880,note_on,,13,0,1,,,,,,,,,,,,,,,3,,,74,127
110927,note_on,,0,0,1,,,,,,,,,,,,,,,3,,,47,0
110927,note_on,,47,0,1,,,,,,,,,,,,,,,3,,,74,0
110940,note_on,,0,0,1,,,,,,,,,,,,,,,3,,,71,127
110940,note_on,,0,0,1,,,,,,,,,,,,,,,3,,,67,127
110940,note_on,,0,0,1,,,,,,,,,,,,,,,3,,,43,127
110940,note_on,,13,0,1,,,,,,,,,,,,,,,3,,,74,127
110987,note_on,,47,0,1,,,,,,,,,,,,,,,3,,,74,0
110987,note_on,,0,0,1,,,,,,,,,,,,,,,3,,,71,0
110987,note_on,,0,0,1,,,,,,,,,,,,,,,3,,,67,0
110987,note_on,,0,0,1,,,,,,,,,,,,,,,3,,,43,0
111000,note_on,,0,0,1,,,,,,,,,,,,,,,3,,,48,127
111000,note_on,,0,0,1,,,,,,,,,,,,,,,3,,,64,127
111000,note_on,,0,0,1,,,,,,,,,,,,,,,3,,,67,127
111000,note_on,,13,0,1,,,,,,,,,,,,,,,3,,,72,127
111023,note_on,,23,0,1,,,,,,,,,,,,,,,3,,,72,0
111023,note_on,,0,0,1,,,,,,,,,,,,,,,3,,,64,0
111030,note_on,,7,0,1,,,,,,,,,,,,,,,3,,,74,127
111030,note_on,,0,0,1,,,,,,,,,,,,,,,3,,,65,127
111047,note_on,,17,0,1,,,,,,,,,,,,,,,3,,,67,0
111047,note_on,,0,0,1,,,,,,,,,,,,,,,3,,,48,0
111053,note_on,,6,0,1,,,,,,,,,,,,,,,3,,,74,0
111053,note_on,,0,0,1,,,,,,,,,,,,,,,3,,,65,0
111060,note_on,,7,0,1,,,,,,,,,,,,,,,3,,,76,127
111060,note_on,,0,0,1,,,,,,,,,,,,,,,3,,,67,127
111083,note_on,,0,0,1,,,,,,,,,,,,,,,3,,,67,0
111083,note_on,,23,0,1,,,,,,,,,,,,,,,3,,,76,0
111090,note_on,,7,0,1,,,,,,,,,,,,,,,3,,,74,127
111090,note_on,,0,0,1,,,,,,,,,,,,,,,3,,,65,127
111113,note_on,,0,0,1,,,,,,,,,,,,,,,3,,,65,0
111113,note_on,,23,0,1,,,,,,,,,,,,,,,3,,,74,0
111120,note_on,,7,0,1,,,,,,,,,,,,,,,3,,,72,127
111120,note_on,,0,0,1,,,,,,,,,,,,,,,3,,,64,127
111143,note_on,,23,0,1,,,,,,,,,,,,,,,3,,,72,0
111143,note_on,,0,0,1,,,,,,,,,,,,,,,3,,,64,0
111150,note_on,,7,0,1,,,,,,,,,,,,,,,3,,,71,127
111150,note_on,,0,0,1,,,,,,,,,,,,,,,3,,,62,127
111173,note_on,,0,0,1,,,,,,,,,,,,,,,3,,,62,0
111173,note_on,,23,0,1,,,,,,,,,,,,,,,3,,,71,0
111180,note_on,,7,0,1,,,,,,,,,,,,,,,3,,,72,127
111180,note_on,,0,0,1,,,,,,,,,,,,,,,3,,,64,127
111203,note_on,,23,0,1,,,,,,,,,,,,,,,3,,,64,0
111210,note_on,,7,0,1,,,,,,,,,,,,,,,3,,,65,127
111227,note_on,,17,0,1,,,,,,,,,,,,,,,3,,,72,0
111233,note_on,,6,0,1,,,,,,,,,,,,,,,3,,,65,0
111240,note_on,,7,0,1,,,,,,,,,,,,,,,3,,,76,127
111240,note_on,,0,0,1,,,,,,,,,,,,,,,3,,,67,127
111263,note_on,,23,0,1,,,,,,,,,,,,,,,3,,,67,0
111270,note_on,,7,0,1,,,,,,,,,,,,,,,3,,,65,127
111287,note_on,,17,0,1,,,,,,,,,,,,,,,3,,,76,0
111293,note_on,,6,0,1,,,,,,,,,,,,,,,3,,,65,0
111300,note_on,,0,0,1,,,,,,,,,,,,,,,3,,,64,127
111300,note_on,,0,0,1,,,,,,,,,,,,,,,3,,,48,127
111300,note_on,,7,0,1,,,,,,,,,,,,,,,3,,,72,127
111300,note_on,,0,0,1,,,,,,,,,,,,,,,3,,,67,127
111323,note_on,,23,0,1,,,,,,,,,,,,,,,3,,,64,0
111330,note_on,,7,0,1,,,,,,,,,,,,,,,3,,,65,127
111347,note_on,,0,0,1,,,,,,,,,,,,,,,3,,,48,0
111347,note_on,,0,0,1,,,,,,,,,,,,,,,3,,,67,0
111347,note_on,,17,0,1,,,,,,,,,,,,,,,3,,,72,0
111353,note_on,,6,0,1,,,,,,,,,,,,,,,3,,,65,0
111360,note_on,,0,0,1,,,,,,,,,,,,,,,3,,,62,127
111360,note_on,,0,0,1,,,,,,,,,,,,,,,3,,,74,127
111360,note_on,,7,0,1,,,,,,,,,,,,,,,3,,,79,127
111360,note_on,,0,0,1,,,,,,,,,,,,,,,3,,,47,127
111407,note_on,,0,0,1,,,,,,,,,,,,,,,3,,,47,0
111407,note_on,,47,0,1,,,,,,,,,,,,,,,3,,,79,0
111407,note_on,,0,0,1,,,,,,,,,,,,,,,3,,,74,0
111407,note_on,,0,0,1,,,,,,,,,,,,,,,3,,,62,0
111420,note_on,,13,0,1,,,,,,,,,,,,,,,3,,,77,127
111420,note_on,,0,0,1,,,,,,,,,,,,,,,3,,,50,127
111443,note_on,,23,0,1,,,,,,,,,,,,,,,3,,,77,0
111443,note_on,,0,0,1,,,,,,,,,,,,,,,3,,,50,0
111450,note_on,,0,0,1,,,,,,,,,,,,,,,3,,,48,127
111450,note_on,,7,0,1,,,,,,,,,,,,,,,3,,,76,127
111473,note_on,,0,0,1,,,,,,,,,,,,,,,3,,,48,0
111473,note_on,,23,0,1,,,,,,,,,,,,,,,3,,,76,0
111480,note_on,,0,0,1,,,,,,,,,,,,,,,3,,,50,127
111480,note_on,,7,0,1,,,,,,,,,,,,,,,3,,,77,127
111527,note_on,,47,0,1,,,,,,,,,,,,,,,3,,,77,0
111527,note_on,,0,0,1,,,,,,,,,,,,,,,3,,,50,0
111540,note_on,,0,0,1,,,,,,,,,,,,,,,3,,,47,127
111540,note_on,,13,0,1,,,,,,,,,,,,,,,3,,,74,127
111587,note_on,,0,0,1,,,,,,,,,,,,,,,3,,,47,0
111587,note_on,,47,0,1,,,,,,,,,,,,,,,3,,,74,0
111600,note_on,,13,0,1,,,,,,,,,,,,,,,3,,,77,127
111600,note_on,,0,0,1,,,,,,,,,,,,,,,3,,,50,127
111647,note_on,,0,0,1,,,,,,,,,,,,,,,3,,,50,0
111647,note_on,,47,0,1,,,,,,,,,,,,,,,3,,,77,0
111660,note_on,,0,0,1,,,,,,,,,,,,,,,3,,,47,127
111660,note_on,,0,0,1,,,,,,,,,,,,,,,3,,,74,127
111660,note_on,,0,0,1,,,,,,,,,,,,,,,3,,,62,127
111660,note_on,,13,0,1,,,,,,,,,,,,,,,3,,,79,127
111707,note_on,,0,0,1,,,,,,,,,,,,,,,3,,,47,0
111707,note_on,,0,0,1,,,,,,,,,,,,,,,3,,,62,0
111707,note_on,,0,0,1,,,,,,,,,,,,,,,3,,,74,0
111707,note_on,,47,0,1,,,,,,,,,,,,,,,3,,,79,0
111720,note_on,,0,0,1,,,,,,,,,,,,,,,3,,,67,127
111720,note_on,,0,0,1,,,,,,,,,,,,,,,3,,,72,127
111720,note_on,,13,0,1,,,,,,,,,,,,,,,3,,,76,127
111720,note_on,,0,0,1,,,,,,,,,,,,,,,3,,,52,127
111743,note_on,,0,0,1,,,,,,,,,,,,,,,3,,,67,0
111743,note_on,,23,0,1,,,,,,,,,,,,,,,3,,,76,0
111750,note_on,,0,0,1,,,,,,,,,,,,,,,3,,,69,127
111750,note_on,,7,0,1,,,,,,,,,,,,,,,3,,,77,127
111767,note_on,,17,0,1,,,,,,,,,,,,,,,3,,,72,0
111767,note_on,,0,0,1,,,,,,,,,,,,,,,3,,,52,0
111773,note_on,,0,0,1,,,,,,,,,,,,,,,3,,,69,0
111773,note_on,,6,0,1,,,,,,,,,,,,,,,3,,,77,0
111780,note_on,,7,0,1,,,,,,,,,,,,,,,3,,,79,127
111780,note_on,,0,0,1,,,,,,,,,,,,,,,3,,,71,127
111803,note_on,,23,0,1,,,,,,,,,,,,,,,3,,,79,0
111803,note_on,,0,0,1,,,,,,,,,,,,,,,3,,,71,0
111810,note_on,,0,0,1,,,,,,,,,,,,,,,3,,,69,127
111810,note_on,,7,0,1,,,,,,,,,,,,,,,3,,,77,127
111833,note_on,,0,0,1,,,,,,,,,,,,,,,3,,,69,0
111833,note_on,,23,0,1,,,,,,,,,,,,,,,3,,,77,0
111840,note_on,,0,0,1,,,,,,,,,,,,,,,3,,,67,127
111840,note_on,,7,0,1,,,,,,,,,,,,,,,3,,,76,127
111863,note_on,,23,0,1,,,,,,,,,,,,,,,3,,,76,0
111863,note_on,,0,0,1,,,,,,,,,,,,,,,3,,,67,0
111870,note_on,,0,0,1,,,,,,,,,,,,,,,3,,,65,127
111870,note_on,,7,0,1,,,,,,,,,,,,,,,3,,,74,127
111893,note_on,,0,0,1,,,,,,,,,,,,,,,3,,,65,0
111893,note_on,,23,0,1,,,,,,,,,,,,,,,3,,,74,0
111900,note_on,,7,0,1,,,,,,,,,,,,,,,3,,,76,127
111900,note_on,,0,0,1,,,,,,,,,,,,,,,3,,,67,127
111923,note_on,,23,0,1,,,,,,,,,,,,,,,3,,,67,0
111930,note_on,,7,0,1,,,,,,,,,,,,,,,3,,,69,127
111947,note_on,,17,0,1,,,,,,,,,,,,,,,3,,,76,0
111953,note_on,,6,0,1,,,,,,,,,,,,,,,3,,,69,0
111960,note_on,,7,0,1,,,,,,,,,,,,,,,3,,,79,127
111960,note_on,,0,0,1,,,,,,,,,,,,,,,3,,,71,127
111983,note_on,,23,0,1,,,,,,,,,,,,,,,3,,,71,0
111990,note_on,,7,0,1,,,,,,,,,,,,,,,3,,,69,127
112007,note_on,,17,0,1,,,,,,,,,,,,,,,3,,,79,0
112013,note_on,,6,0,1,,,,,,,,,,,,,,,3,,,69,0
112020,note_on,,0,0,1,,,,,,,,,,,,,,,3,,,67,127
112020,note_on,,0,0,1,,,,,,,,,,,,,,,3,,,72,127
112020,note_on,,7,0,1,,,,,,,,,,,,,,,3,,,76,127
112020,note_on,,0,0,1,,,,,,,,,,,,,,,3,,,52,127
112043,note_on,,23,0,1,,,,,,,,,,,,,,,3,,,67,0
112050,note_on,,7,0,1,,,,,,,,,,,,,,,3,,,65,127
112067,note_on,,0,0,1,,,,,,,,,,,,,,,3,,,52,0
112067,note_on,,0,0,1,,,,,,,,,,,,,,,3,,,72,0
112067,note_on,,17,0,1,,,,,,,,,,,,,,,3,,,76,0
112073,note_on,,6,0,1,,,,,,,,,,,,,,,3,,,65,0
112080,note_on,,0,0,1,,,,,,,,,,,,,,,3,,,76,127
112080,note_on,,7,0,1,,,,,,,,,,,,,,,3,,,84,127
112080,note_on,,0,0,1,,,,,,,,,,,,,,,3,,,48,127
112080,note_on,,0,0,1,,,,,,,,,,,,,,,3,,,64,127
112127,note_on,,47,0,1,,,,,,,,,,,,,,,3,,,84,0
112127,note_on,,0,0,1,,,,,,,,,,,,,,,3,,,76,0
112127,note_on,,0,0,1,,,,,,,,,,,,,,,3,,,64,0
112127,note_on,,0,0,1,,,,,,,,,,,,,,,3,,,48,0
112140,note_on,,13,0,1,,,,,,,,,,,,,,,3,,,79,127
112140,note_on,,0,0,1,,,,,,,,,,,,,,,3,,,52,127
112163,note_on,,23,0,1,,,,,,,,,,,,,,,3,,,79,0
112163,note_on,,0,0,1,,,,,,,,,,,,,,,3,,,52,0
112170,note_on,,7,0,1,,,,,,,,,,,,,,,3,,,77,127
112170,note_on,,0,0,1,,,,,,,,,,,,,,,3,,,50,127
112193,note_on,,0,0,1,,,,,,,,,,,,,,,3,,,50,0
112193,note_on,,23,0,1,,,,,,,,,,,,,,,3,,,77,0
112200,note_on,,7,0,1,,,,,,,,,,,,,,,3,,,79,127
112200,note_on,,0,0,1,,,,,,,,,,,,,,,3,,,52,127
112247,note_on,,47,0,1,,,,,,,,,,,,,,,3,,,79,0
112247,note_on,,0,0,1,,,,,,,,,,,,,,,3,,,52,0
112260,note_on,,13,0,1,,,,,,,,,,,,,,,3,,,76,127
112260,note_on,,0,0,1,,,,,,,,,,,,,,,3,,,48,127
112307,note_on,,0,0,1,,,,,,,,,,,,,,,3,,,48,0
112307,note_on,,47,0,1,,,,,,,,,,,,,,,3,,,76,0
112320,note_on,,0,0,1,,,,,,,,,,,,,,,3,,,52,127
112320,note_on,,13,0,1,,,,,,,,,,,,,,,3,,,79,127
112367,note_on,,47,0,1,,,,,,,,,,,,,,,3,,,79,0
112367,note_on,,0,0,1,,,,,,,,,,,,,,,3,,,52,0
112380,note_on,,0,0,1,,,,,,,,,,,,,,,3,,,48,127
112380,note_on,,13,0,1,,,,,,,,,,,,,,,3,,,79,127
112380,note_on,,0,0,1,,,,,,,,,,,,,,,3,,,76,127
112380,note_on,,0,0,1,,,,,,,,,,,,,,,3,,,60,127
112427,note_on,,0,0,1,,,,,,,,,,,,,,,3,,,76,0
112427,note_on,,0,0,1,,,,,,,,,,,,,,,3,,,60,0
112427,note_on,,0,0,1,,,,,,,,,,,,,,,3,,,48,0
112427,note_on,,47,0,1,,,,,,,,,,,,,,,3,,,79,0
112440,note_on,,13,0,1,,,,,,,,,,,,,,,3,,,79,127
112440,note_on,,0,0,1,,,,,,,,,,,,,,,3,,,74,127
112440,note_on,,0,0,1,,,,,,,,,,,,,,,3,,,59,127
112440,note_on,,0,0,1,,,,,,,,,,,,,,,3,,,55,127
112463,note_on,,0,0,1,,,,,,,,,,,,,,,3,,,59,0
112463,note_on,,23,0,1,,,,,,,,,,,,,,,3,,,79,0
112470,note_on,,7,0,1,,,,,,,,,,,,,,,3,,,81,127
112470,note_on,,0,0,1,,,,,,,,,,,,,,,3,,,60,127
112487,note_on,,17,0,1,,,,,,,,,,,,,,,3,,,74,0
112487,note_on,,0,0,1,,,,,,,,,,,,,,,3,,,55,0
112493,note_on,,6,0,1,,,,,,,,,,,,,,,3,,,81,0
112493,note_on,,0,0,1,,,,,,,,,,,,,,,3,,,60,0
112500,note_on,,7,0,1,,,,,,,,,,,,,,,3,,,83,127
112500,note_on,,0,0,1,,,,,,,,,,,,,,,3,,,62,127
112523,note_on,,23,0,1,,,,,,,,,,,,,,,3,,,83,0
112523,note_on,,0,0,1,,,,,,,,,,,,,,,3,,,62,0
112530,note_on,,0,0,1,,,,,,,,,,,,,,,3,,,60,127
112530,note_on,,7,0,1,,,,,,,,,,,,,,,3,,,81,127
112553,note_on,,23,0,1,,,,,,,,,,,,,,,3,,,81,0
112553,note_on,,0,0,1,,,,,,,,,,,,,,,3,,,60,0
112560,note_on,,7,0,1,,,,,,,,,,,,,,,3,,,79,127
112560,note_on,,0,0,1,,,,,,,,,,,,,,,3,,,59,127
112583,note_on,,23,0,1,,,,,,,,,,,,,,,3,,,79,0
112583,note_on,,0,0,1,,,,,,,,,,,,,,,3,,,59,0
112590,note_on,,0,0,1,,,,,,,,,,,,,,,3,,,57,127
112590,note_on,,7,0,1,,,,,,,,,,,,,,,3,,,78,127
112613,note_on,,23,0,1,,,,,,,,,,,,,,,3,,,78,0
112613,note_on,,0,0,1,,,,,,,,,,,,,,,3,,,57,0
112620,note_on,,7,0,1,,,,,,,,,,,,,,,3,,,79,127
112620,note_on,,0,0,1,,,,,,,,,,,,,,,3,,,59,127
112643,note_on,,23,0,1,,,,,,,,,,,,,,,3,,,59,0
112650,note_on,,7,0,1,,,,,,,,,,,,,,,3,,,60,127
112667,note_on,,17,0,1,,,,,,,,,,,,,,,3,,,79,0
112673,note_on,,6,0,1,,,,,,,,,,,,,,,3,,,60,0
112680,note_on,,0,0,1,,,,,,,,,,,,,,,3,,,62,127
112680,note_on,,7,0,1,,,,,,,,,,,,,,,3,,,83,127
112703,note_on,,23,0,1,,,,,,,,,,,,,,,3,,,62,0
112710,note_on,,7,0,1,,,,,,,,,,,,,,,3,,,60,127
112727,note_on,,17,0,1,,,,,,,,,,,,,,,3,,,83,0
112733,note_on,,6,0,1,,,,,,,,,,,,,,,3,,,60,0
112740,note_on,,7,0,1,,,,,,,,,,,,,,,3,,,79,127
112740,note_on,,0,0,1,,,,,,,,,,,,,,,3,,,74,127
112740,note_on,,0,0,1,,,,,,,,,,,,,,,3,,,59,127
112740,note_on,,0,0,1,,,,,,,,,,,,,,,3,,,55,127
112763,note_on,,23,0,1,,,,,,,,,,,,,,,3,,,59,0
112770,note_on,,7,0,1,,,,,,,,,,,,,,,3,,,57,127
112787,note_on,,0,0,1,,,,,,,,,,,,,,,3,,,74,0
112787,note_on,,0,0,1,,,,,,,,,,,,,,,3,,,55,0
112787,note_on,,17,0,1,,,,,,,,,,,,,,,3,,,79,0
112793,note_on,,6,0,1,,,,,,,,,,,,,,,3,,,57,0
112800,note_on,,7,0,1,,,,,,,,,,,,,,,3,,,84,127
112800,note_on,,0,0,1,,,,,,,,,,,,,,,3,,,76,127
112800,note_on,,0,0,1,,,,,,,,,,,,,,,3,,,55,127
112800,note_on,,0,0,1,,,,,,,,,,,,,,,3,,,52,127
112823,note_on,,23,0,1,,,,,,,,,,,,,,,3,,,52,0
112830,note_on,,7,0,1,,,,,,,,,,,,,,,3,,,55,127
112847,note_on,,0,0,1,,,,,,,,,,,,,,,3,,,55,0
112847,note_on,,17,0,1,,,,,,,,,,,,,,,3,,,84,0
112847,note_on,,0,0,1,,,,,,,,,,,,,,,3,,,76,0
112853,note_on,,6,0,1,,,,,,,,,,,,,,,3,,,55,0
112860,note_on,,7,0,1,,,,,,,,,,,,,,,3,,,48,127
112883,note_on,,23,0,1,,,,,,,,,,,,,,,3,,,48,0
112890,note_on,,7,0,1,,,,,,,,,,,,,,,3,,,55,127
112913,note_on,,23,0,1,,,,,,,,,,,,,,,3,,,55,0
112920,note_on,,0,0,1,,,,,,,,,,,,,,,3,,,65,127
112920,note_on,,0,0,1,,,,,,,,,,,,,,,3,,,62,127
112920,note_on,,0,0,1,,,,,,,,,,,,,,,3,,,50,127
112920,note_on,,7,0,1,,,,,,,,,,,,,,,3,,,71,127
112943,note_on,,23,0,1,,,,,,,,,,,,,,,3,,,50,0
112950,note_on,,7,0,1,,,,,,,,,,,,,,,3,,,55,127
112967,note_on,,0,0,1,,,,,,,,,,,,,,,3,,,62,0
112967,note_on,,0,0,1,,,,,,,,,,,,,,,3,,,65,0
112967,note_on,,17,0,1,,,,,,,,,,,,,,,3,,,71,0
112973,note_on,,6,0,1,,,,,,,,,,,,,,,3,,,55,0
112980,note_on,,0,0,1,,,,,,,,,,,,,,,3,,,52,127
112980,note_on,,0,0,1,,,,,,,,,,,,,,,3,,,60,127
112980,note_on,,0,0,1,,,,,,,,,,,,,,,3,,,67,127
112980,note_on,,7,0,1,,,,,,,,,,,,,,,3,,,72,127
113003,note_on,,23,0,1,,,,,,,,,,,,,,,3,,,52,0
113010,note_on,,7,0,1,,,,,,,,,,,,,,,3,,,55,127
113027,note_on,,0,0,1,,,,,,,,,,,,,,,3,,,67,0
113027,note_on,,0,0,1,,,,,,,,,,,,,,,3,,,60,0
113027,note_on,,17,0,1,,,,,,,,,,,,,,,3,,,72,0
113033,note_on,,6,0,1,,,,,,,,,,,,,,,3,,,55,0
113040,note_on,,7,0,1,,,,,,,,,,,,,,,3,,,71,127
113040,note_on,,0,0,1,,,,,,,,,,,,,,,3,,,65,127
113040,note_on,,0,0,1,,,,,,,,,,,,,,,3,,,62,127
113040,note_on,,0,0,1,,,,,,,,,,,,,,,3,,,50,127
113063,note_on,,23,0,1,,,,,,,,,,,,,,,3,,,50,0
113070,note_on,,7,0,1,,,,,,,,,,,,,,,3,,,55,127
113087,note_on,,17,0,1,,,,,,,,,,,,,,,3,,,71,0
113087,note_on,,0,0,1,,,,,,,,,,,,,,,3,,,62,0
113087,note_on,,0,0,1,,,,,,,,,,,,,,,3,,,65,0
113093,note_on,,6,0,1,,,,,,,,,,,,,,,3,,,55,0
113100,note_on,,0,0,1,,,,,,,,,,,,,,,3,,,60,127
113100,note_on,,7,0,1,,,,,,,,,,,,,,,3,,,72,127
113100,note_on,,0,0,1,,,,,,,,,,,,,,,3,,,52,127
113100,note_on,,0,0,1,,,,,,,,,,,,,,,3,,,67,127
113123,note_on,,23,0,1,,,,,,,,,,,,,,,3,,,52,0
113130,note_on,,7,0,1,,,,,,,,,,,,,,,3,,,55,127
113147,note_on,,0,0,1,,,,,,,,,,,,,,,3,,,67,0
113147,note_on,,0,0,1,,,,,,,,,,,,,,,3,,,60,0
113147,note_on,,17,0,1,,,,,,,,,,,,,,,3,,,72,0
113153,note_on,,6,0,1,,,,,,,,,,,,,,,3,,,55,0
113160,note_on,,0,0,1,,,,,,,,,,,,,,,3,,,69,127
113160,note_on,,0,0,1,,,,,,,,,,,,,,,3,,,57,127
113160,note_on,,0,0,1,,,,,,,,,,,,,,,3,,,53,127
113160,note_on,,7,0,1,,,,,,,,,,,,,,,3,,,74,127
113183,note_on,,23,0,1,,,,,,,,,,,,,,,3,,,53,0
113190,note_on,,7,0,1,,,,,,,,,,,,,,,3,,,55,127
113207,note_on,,0,0,1,,,,,,,,,,,,,,,3,,,69,0
113207,note_on,,17,0,1,,,,,,,,,,,,,,,3,,,74,0
113207,note_on,,0,0,1,,,,,,,,,,,,,,,3,,,57,0
113213,note_on,,6,0,1,,,,,,,,,,,,,,,3,,,55,0
113220,note_on,,7,0,1,,,,,,,,,,,,,,,3,,,72,127
113220,note_on,,0,0,1,,,,,,,,,,,,,,,3,,,60,127
113220,note_on,,0,0,1,,,,,,,,,,,,,,,3,,,52,127
113220,note_on,,0,0,1,,,,,,,,,,,,,,,3,,,67,127
113243,note_on,,23,0,1,,,,,,,,,,,,,,,3,,,52,0
113250,note_on,,7,0,1,,,,,,,,,,,,,,,3,,,55,127
113267,note_on,,17,0,1,,,,,,,,,,,,,,,3,,,72,0
113267,note_on,,0,0,1,,,,,,,,,,,,,,,3,,,60,0
113267,note_on,,0,0,1,,,,,,,,,,,,,,,3,,,67,0
113273,note_on,,6,0,1,,,,,,,,,,,,,,,3,,,55,0
113280,note_on,,7,0,1,,,,,,,,,,,,,,,3,,,71,127
113280,note_on,,0,0,1,,,,,,,,,,,,,,,3,,,65,127
113280,note_on,,0,0,1,,,,,,,,,,,,,,,3,,,62,127
113280,note_on,,0,0,1,,,,,,,,,,,,,,,3,,,50,127
113303,note_on,,23,0,1,,,,,,,,,,,,,,,3,,,50,0
113310,note_on,,7,0,1,,,,,,,,,,,,,,,3,,,55,127
113327,note_on,,17,0,1,,,,,,,,,,,,,,,3,,,71,0
113327,note_on,,0,0,1,,,,,,,,,,,,,,,3,,,65,0
113327,note_on,,0,0,1,,,,,,,,,,,,,,,3,,,62,0
113333,note_on,,6,0,1,,,,,,,,,,,,,,,3,,,55,0
113340,note_on,,7,0,1,,,,,,,,,,,,,,,3,,,72,127
113340,note_on,,0,0,1,,,,,,,,,,,,,,,3,,,67,127
113340,note_on,,0,0,1,,,,,,,,,,,,,,,3,,,60,127
113340,note_on,,0,0,1,,,,,,,,,,,,,,,3,,,52,127
113363,note_on,,23,0,1,,,,,,,,,,,,,,,3,,,52,0
113370,note_on,,7,0,1,,,,,,,,,,,,,,,3,,,55,127
113387,note_on,,0,0,1,,,,,,,,,,,,,,,3,,,67,0
113387,note_on,,0,0,1,,,,,,,,,,,,,,,3,,,60,0
113387,note_on,,17,0,1,,,,,,,,,,,,,,,3,,,72,0
113393,note_on,,6,0,1,,,,,,,,,,,,,,,3,,,55,0
113400,note_on,,0,0,1,,,,,,,,,,,,,,,3,,,60,127
113400,note_on,,0,0,1,,,,,,,,,,,,,,,3,,,48,127
113400,note_on,,0,0,1,,,,,,,,,,,,,,,3,,,67,127
113400,note_on,,7,0,1,,,,,,,,,,,,,,,3,,,76,127
113423,note_on,,23,0,1,,,,,,,,,,,,,,,3,,,48,0
113430,note_on,,7,0,1,,,,,,,,,,,,,,,3,,,55,127
113447,note_on,,0,0,1,,,,,,,,,,,,,,,3,,,60,0
113447,note_on,,0,0,1,,,,,,,,,,,,,,,3,,,67,0
113447,note_on,,17,0,1,,,,,,,,,,,,,,,3,,,76,0
113453,note_on,,6,0,1,,,,,,,,,,,,,,,3,,,55,0
113460,note_on,,0,0,1,,,,,,,,,,,,,,,3,,,46,127
113460,note_on,,0,0,1,,,,,,,,,,,,,,,3,,,67,127
113460,note_on,,7,0,1,,,,,,,,,,,,,,,3,,,72,127
113460,note_on,,0,0,1,,,,,,,,,,,,,,,3,,,64,127
113483,note_on,,23,0,1,,,,,,,,,,,,,,,3,,,46,0
113490,note_on,,7,0,1,,,,,,,,,,,,,,,3,,,55,127
113507,note_on,,0,0,1,,,,,,,,,,,,,,,3,,,64,0
113507,note_on,,0,0,1,,,,,,,,,,,,,,,3,,,67,0
113507,note_on,,17,0,1,,,,,,,,,,,,,,,3,,,72,0
113513,note_on,,6,0,1,,,,,,,,,,,,,,,3,,,55,0
113520,note_on,,0,0,1,,,,,,,,,,,,,,,3,,,45,127
113520,note_on,,0,0,1,,,,,,,,,,,,,,,3,,,60,127
113520,note_on,,0,0,1,,,,,,,,,,,,,,,3,,,65,127
113520,note_on,,7,0,1,,,,,,,,,,,,,,,3,,,77,127
113543,note_on,,23,0,1,,,,,,,,,,,,,,,3,,,60,0
113550,note_on,,7,0,1,,,,,,,,,,,,,,,3,,,58,127
113567,note_on,,0,0,1,,,,,,,,,,,,,,,3,,,45,0
113567,note_on,,0,0,1,,,,,,,,,,,,,,,3,,,65,0
113567,note_on,,17,0,1,,,,,,,,,,,,,,,3,,,77,0
113573,note_on,,6,0,1,,,,,,,,,,,,,,,3,,,58,0
113580,note_on,,0,0,1,,,,,,,,,,,,,,,3,,,53,127
113580,note_on,,0,0,1,,,,,,,,,,,,,,,3,,,57,127
113580,note_on,,7,0,1,,,,,,,,,,,,,,,3,,,65,127
113610,note_on,,30,0,1,,,,,,,,,,,,,,,3,,,60,127
113627,note_on,,0,0,1,,,,,,,,,,,,,,,3,,,53,0
113627,note_on,,0,0,1,,,,,,,,,,,,,,,3,,,57,0
113627,note_on,,17,0,1,,,,,,,,,,,,,,,3,,,65,0
113633,note_on,,6,0,1,,,,,,,,,,,,,,,3,,,60,0
113640,note_on,,0,0,1,,,,,,,,,,,,,,,3,,,47,127
113640,note_on,,0,0,1,,,,,,,,,,,,,,,3,,,62,127
113640,note_on,,7,0,1,,,,,,,,,,,,,,,3,,,67,127
113670,note_on,,30,0,1,,,,,,,,,,,,,,,3,,,55,127
113687,note_on,,17,0,1,,,,,,,,,,,,,,,3,,,67,0
113687,note_on,,0,0,1,,,,,,,,,,,,,,,3,,,47,0
113687,note_on,,0,0,1,,,,,,,,,,,,,,,3,,,62,0
113693,note_on,,6,0,1,,,,,,,,,,,,,,,3,,,55,0
113700,note_on,,0,0,1,,,,,,,,,,,,,,,3,,,64,127
113700,note_on,,0,0,1,,,,,,,,,,,,,,,3,,,48,127
113700,note_on,,7,0,1,,,,,,,,,,,,,,,3,,,67,127
113730,note_on,,30,0,1,,,,,,,,,,,,,,,3,,,60,127
113747,note_on,,17,0,1,,,,,,,,,,,,,,,3,,,67,0
113747,note_on,,0,0,1,,,,,,,,,,,,,,,3,,,64,0
113747,note_on,,0,0,1,,,,,,,,,,,,,,,3,,,48,0
113753,note_on,,6,0,1,,,,,,,,,,,,,,,3,,,60,0
113760,note_on,,7,0,1,,,,,,,,,,,,,,,3,,,65,127
113760,note_on,,0,0,1,,,,,,,,,,,,,,,3,,,57,127
113760,note_on,,0,0,1,,,,,,,,,,,,,,,3,,,50,127
113774,note_on,,14,0,1,,,,,,,,,,,,,,,3,,,50,0
113775,note_on,,1,0,1,,,,,,,,,,,,,,,3,,,48,127
113789,note_on,,14,0,1,,,,,,,,,,,,,,,3,,,48,0
113790,note_on,,1,0,1,,,,,,,,,,,,,,,3,,,62,127
113790,note_on,,0,0,1,,,,,,,,,,,,,,,3,,,50,127
113804,note_on,,14,0,1,,,,,,,,,,,,,,,3,,,50,0
113805,note_on,,1,0,1,,,,,,,,,,,,,,,3,,,48,127
113807,note_on,,0,0,1,,,,,,,,,,,,,,,3,,,57,0
113807,note_on,,2,0,1,,,,,,,,,,,,,,,3,,,65,0
113813,note_on,,6,0,1,,,,,,,,,,,,,,,3,,,62,0
113820,note_on,,7,0,1,,,,,,,,,,,,,,,3,,,67,127
113820,note_on,,0,0,1,,,,,,,,,,,,,,,3,,,55,127
113846,note_on,,26,0,1,,,,,,,,,,,,,,,3,,,48,0
113850,note_on,,4,0,1,,,,,,,,,,,,,,,3,,,62,127
113850,note_on,,0,0,1,,,,,,,,,,,,,,,3,,,47,127
113867,note_on,,17,0,1,,,,,,,,,,,,,,,3,,,67,0
113867,note_on,,0,0,1,,,,,,,,,,,,,,,3,,,55,0
113873,note_on,,6,0,1,,,,,,,,,,,,,,,3,,,62,0
113873,note_on,,0,0,1,,,,,,,,,,,,,,,3,,,47,0
113880,note_on,,0,0,1,,,,,,,,,,,,,,,3,,,60,127
113880,note_on,,0,0,1,,,,,,,,,,,,,,,3,,,48,127
113880,note_on,,0,0,1,,,,,,,,,,,,,,,3,,,55,127
113880,note_on,,7,0,1,,,,,,,,,,,,,,,3,,,64,127
113903,note_on,,23,0,1,,,,,,,,,,,,,,,3,,,64,0
113910,note_on,,7,0,1,,,,,,,,,,,,,,,3,,,65,127
113927,note_on,,17,0,1,,,,,,,,,,,,,,,3,,,60,0
113927,note_on,,0,0,1,,,,,,,,,,,,,,,3,,,55,0
113927,note_on,,0,0,1,,,,,,,,,,,,,,,3,,,48,0
113933,note_on,,6,0,1,,,,,,,,,,,,,,,3,,,65,0
113940,note_on,,7,0,1,,,,,,,,,,,,,,,3,,,67,127
113940,note_on,,0,0,1,,,,,,,,,,,,,,,3,,,52,127
113963,note_on,,23,0,1,,,,,,,,,,,,,,,3,,,67,0
113970,note_on,,7,0,1,,,,,,,,,,,,,,,3,,,65,127
113987,note_on,,17,0,1,,,,,,,,,,,,,,,3,,,52,0
113993,note_on,,6,0,1,,,,,,,,,,,,,,,3,,,65,0
114000,note_on,,7,0,1,,,,,,,,,,,,,,,3,,,64,127
114000,note_on,,0,0,1,,,,,,,,,,,,,,,3,,,62,127
114000,note_on,,0,0,1,,,,,,,,,,,,,,,3,,,55,127
114000,note_on,,0,0,1,,,,,,,,,,,,,,,3,,,47,127
114023,note_on,,23,0,1,,,,,,,,,,,,,,,3,,,64,0
114030,note_on,,7,0,1,,,,,,,,,,,,,,,3,,,62,127
114047,note_on,,17,0,1,,,,,,,,,,,,,,,3,,,62,0
114047,note_on,,0,0,1,,,,,,,,,,,,,,,3,,,55,0
114047,note_on,,0,0,1,,,,,,,,,,,,,,,3,,,47,0
114053,note_on,,6,0,1,,,,,,,,,,,,,,,3,,,62,0
114060,note_on,,7,0,1,,,,,,,,,,,,,,,3,,,64,127
114060,note_on,,0,0,1,,,,,,,,,,,,,,,3,,,60,127
114060,note_on,,0,0,1,,,,,,,,,,,,,,,3,,,55,127
114060,note_on,,0,0,1,,,,,,,,,,,,,,,3,,,48,127
114083,note_on,,23,0,1,,,,,,,,,,,,,,,3,,,64,0
114090,note_on,,7,0,1,,,,,,,,,,,,,,,3,,,67,127
114107,note_on,,17,0,1,,,,,,,,,,,,,,,3,,,60,0
114107,note_on,,0,0,1,,,,,,,,,,,,,,,3,,,55,0
114107,note_on,,0,0,1,,,,,,,,,,,,,,,3,,,48,0
114113,note_on,,6,0,1,,,,,,,,,,,,,,,3,,,67,0
114120,note_on,,0,0,1,,,,,,,,,,,,,,,3,,,52,127
114120,note_on,,7,0,1,,,,,,,,,,,,,,,3,,,72,127
114143,note_on,,23,0,1,,,,,,,,,,,,,,,3,,,72,0
114150,note_on,,7,0,1,,,,,,,,,,,,,,,3,,,71,127
114167,note_on,,17,0,1,,,,,,,,,,,,,,,3,,,52,0
114173,note_on,,6,0,1,,,,,,,,,,,,,,,3,,,71,0
114180,note_on,,0,0,1,,,,,,,,,,,,,,,3,,,48,127
114180,note_on,,0,0,1,,,,,,,,,,,,,,,3,,,60,127
114180,note_on,,7,0,1,,,,,,,,,,,,,,,3,,,69,127
114180,note_on,,0,0,1,,,,,,,,,,,,,,,3,,,64,127
114203,note_on,,23,0,1,,,,,,,,,,,,,,,3,,,69,0
114210,note_on,,7,0,1,,,,,,,,,,,,,,,3,,,67,127
114227,note_on,,17,0,1,,,,,,,,,,,,,,,3,,,64,0
114227,note_on,,0,0,1,,,,,,,,,,,,,,,3,,,48,0
114227,note_on,,0,0,1,,,,,,,,,,,,,,,3,,,60,0
114233,note_on,,6,0,1,,,,,,,,,,,,,,,3,,,67,0
114240,note_on,,0,0,1,,,,,,,,,,,,,,,3,,,50,127
114240,note_on,,7,0,1,,,,,,,,,,,,,,,3,,,65,127
114240,note_on,,0,0,1,,,,,,,,,,,,,,,3,,,62,127
114240,note_on,,0,0,1,,,,,,,,,,,,,,,3,,,57,127
114263,note_on,,23,0,1,,,,,,,,,,,,,,,3,,,65,0
114270,note_on,,7,0,1,,,,,,,,,,,,,,,3,,,67,127
114287,note_on,,17,0,1,,,,,,,,,,,,,,,3,,,62,0
114287,note_on,,0,0,1,,,,,,,,,,,,,,,3,,,57,0
114287,note_on,,0,0,1,,,,,,,,,,,,,,,3,,,50,0
114293,note_on,,6,0,1,,,,,,,,,,,,,,,3,,,67,0
114300,note_on,,7,0,1,,,,,,,,,,,,,,,3,,,69,127
114300,note_on,,0,0,1,,,,,,,,,,,,,,,3,,,53,127
114323,note_on,,23,0,1,,,,,,,,,,,,,,,3,,,69,0
114330,note_on,,7,0,1,,,,,,,,,,,,,,,3,,,67,127
114347,note_on,,17,0,1,,,,,,,,,,,,,,,3,,,53,0
114353,note_on,,6,0,1,,,,,,,,,,,,,,,3,,,67,0
114360,note_on,,0,0,1,,,,,,,,,,,,,,,3,,,49,127
114360,note_on,,7,0,1,,,,,,,,,,,,,,,3,,,65,127
114360,note_on,,0,0,1,,,,,,,,,,,,,,,3,,,64,127
114360,note_on,,0,0,1,,,,,,,,,,,,,,,3,,,57,127
114383,note_on,,23,0,1,,,,,,,,,,,,,,,3,,,65,0
114390,note_on,,7,0,1,,,,,,,,,,,,,,,3,,,64,127
114407,note_on,,17,0,1,,,,,,,,,,,,,,,3,,,64,0
114407,note_on,,0,0,1,,,,,,,,,,,,,,,3,,,57,0
114407,note_on,,0,0,1,,,,,,,,,,,,,,,3,,,49,0
114413,note_on,,6,0,1,,,,,,,,,,,,,,,3,,,64,0
114420,note_on,,7,0,1,,,,,,,,,,,,,,,3,,,65,127
114420,note_on,,0,0,1,,,,,,,,,,,,,,,3,,,62,127
114420,note_on,,0,0,1,,,,,,,,,,,,,,,3,,,57,127
114420,note_on,,0,0,1,,,,,,,,,,,,,,,3,,,50,127
114443,note_on,,23,0,1,,,,,,,,,,,,,,,3,,,65,0
114450,note_on,,7,0,1,,,,,,,,,,,,,,,3,,,69,127
114467,note_on,,17,0,1,,,,,,,,,,,,,,,3,,,62,0
114467,note_on,,0,0,1,,,,,,,,,,,,,,,3,,,57,0
114467,note_on,,0,0,1,,,,,,,,,,,,,,,3,,,50,0
114473,note_on,,6,0,1,,,,,,,,,,,,,,,3,,,69,0
114480,note_on,,7,0,1,,,,,,,,,,,,,,,3,,,74,127
114480,note_on,,0,0,1,,,,,,,,,,,,,,,3,,,53,127
114503,note_on,,23,0,1,,,,,,,,,,,,,,,3,,,74,0
114510,note_on,,7,0,1,,,,,,,,,,,,,,,3,,,72,127
114527,note_on,,17,0,1,,,,,,,,,,,,,,,3,,,53,0
114533,note_on,,6,0,1,,,,,,,,,,,,,,,3,,,72,0
114540,note_on,,7,0,1,,,,,,,,,,,,,,,3,,,71,127
114540,note_on,,0,0,1,,,,,,,,,,,,,,,3,,,65,127
114540,note_on,,0,0,1,,,,,,,,,,,,,,,3,,,62,127
114540,note_on,,0,0,1,,,,,,,,,,,,,,,3,,,50,127
114563,note_on,,23,0,1,,,,,,,,,,,,,,,3,,,71,0
114570,note_on,,7,0,1,,,,,,,,,,,,,,,3,,,69,127
114587,note_on,,0,0,1,,,,,,,,,,,,,,,3,,,50,0
114587,note_on,,17,0,1,,,,,,,,,,,,,,,3,,,65,0
114587,note_on,,0,0,1,,,,,,,,,,,,,,,3,,,62,0
114593,note_on,,6,0,1,,,,,,,,,,,,,,,3,,,69,0
114600,note_on,,0,0,1,,,,,,,,,,,,,,,3,,,64,127
114600,note_on,,0,0,1,,,,,,,,,,,,,,,3,,,59,127
114600,note_on,,0,0,1,,,,,,,,,,,,,,,3,,,52,127
114600,note_on,,7,0,1,,,,,,,,,,,,,,,3,,,67,127
114623,note_on,,23,0,1,,,,,,,,,,,,,,,3,,,67,0
114630,note_on,,7,0,1,,,,,,,,,,,,,,,3,,,69,127
114647,note_on,,17,0,1,,,,,,,,,,,,,,,3,,,64,0
114647,note_on,,0,0,1,,,,,,,,,,,,,,,3,,,59,0
114647,note_on,,0,0,1,,,,,,,,,,,,,,,3,,,52,0
114653,note_on,,6,0,1,,,,,,,,,,,,,,,3,,,69,0
114660,note_on,,7,0,1,,,,,,,,,,,,,,,3,,,71,127
114660,note_on,,0,0,1,,,,,,,,,,,,,,,3,,,55,127
114683,note_on,,23,0,1,,,,,,,,,,,,,,,3,,,71,0
114690,note_on,,7,0,1,,,,,,,,,,,,,,,3,,,69,127
114707,note_on,,17,0,1,,,,,,,,,,,,,,,3,,,55,0
114713,note_on,,6,0,1,,,,,,,,,,,,,,,3,,,69,0
114720,note_on,,0,0,1,,,,,,,,,,,,,,,3,,,51,127
114720,note_on,,0,0,1,,,,,,,,,,,,,,,3,,,59,127
114720,note_on,,0,0,1,,,,,,,,,,,,,,,3,,,66,127
114720,note_on,,7,0,1,,,,,,,,,,,,,,,3,,,67,127
114743,note_on,,23,0,1,,,,,,,,,,,,,,,3,,,67,0
114750,note_on,,7,0,1,,,,,,,,,,,,,,,3,,,66,127
114767,note_on,,0,0,1,,,,,,,,,,,,,,,3,,,59,0
114767,note_on,,0,0,1,,,,,,,,,,,,,,,3,,,51,0
114767,note_on,,17,0,1,,,,,,,,,,,,,,,3,,,66,0
114773,note_on,,6,0,1,,,,,,,,,,,,,,,3,,,66,0
114780,note_on,,7,0,1,,,,,,,,,,,,,,,3,,,67,127
114780,note_on,,0,0,1,,,,,,,,,,,,,,,3,,,64,127
114780,note_on,,0,0,1,,,,,,,,,,,,,,,3,,,59,127
114780,note_on,,0,0,1,,,,,,,,,,,,,,,3,,,52,127
114803,note_on,,23,0,1,,,,,,,,,,,,,,,3,,,67,0
114810,note_on,,7,0,1,,,,,,,,,,,,,,,3,,,71,127
114827,note_on,,0,0,1,,,,,,,,,,,,,,,3,,,59,0
114827,note_on,,0,0,1,,,,,,,,,,,,,,,3,,,52,0
114827,note_on,,17,0,1,,,,,,,,,,,,,,,3,,,64,0
114833,note_on,,6,0,1,,,,,,,,,,,,,,,3,,,71,0
114840,note_on,,7,0,1,,,,,,,,,,,,,,,3,,,76,127
114840,note_on,,0,0,1,,,,,,,,,,,,,,,3,,,55,127
114863,note_on,,23,0,1,,,,,,,,,,,,,,,3,,,76,0
114870,note_on,,7,0,1,,,,,,,,,,,,,,,3,,,74,127
114887,note_on,,17,0,1,,,,,,,,,,,,,,,3,,,55,0
114893,note_on,,6,0,1,,,,,,,,,,,,,,,3,,,74,0
114900,note_on,,0,0,1,,,,,,,,,,,,,,,3,,,52,127
114900,note_on,,0,0,1,,,,,,,,,,,,,,,3,,,64,127
114900,note_on,,0,0,1,,,,,,,,,,,,,,,3,,,67,127
114900,note_on,,7,0,1,,,,,,,,,,,,,,,3,,,72,127
114923,note_on,,23,0,1,,,,,,,,,,,,,,,3,,,72,0
114930,note_on,,7,0,1,,,,,,,,,,,,,,,3,,,71,127
114947,note_on,,0,0,1,,,,,,,,,,,,,,,3,,,52,0
114947,note_on,,17,0,1,,,,,,,,,,,,,,,3,,,67,0
114947,note_on,,0,0,1,,,,,,,,,,,,,,,3,,,64,0
114953,note_on,,6,0,1,,,,,,,,,,,,,,,3,,,71,0
114960,note_on,,0,0,1,,,,,,,,,,,,,,,3,,,65,127
114960,note_on,,0,0,1,,,,,,,,,,,,,,,3,,,60,127
114960,note_on,,0,0,1,,,,,,,,,,,,,,,3,,,53,127
114960,note_on,,7,0,1,,,,,,,,,,,,,,,3,,,69,127
114983,note_on,,23,0,1,,,,,,,,,,,,,,,3,,,69,0
114990,note_on,,7,0,1,,,,,,,,,,,,,,,3,,,70,127
115007,note_on,,0,0,1,,,,,,,,,,,,,,,3,,,53,0
115007,note_on,,17,0,1,,,,,,,,,,,,,,,3,,,65,0
115007,note_on,,0,0,1,,,,,,,,,,,,,,,3,,,60,0
115013,note_on,,6,0,1,,,,,,,,,,,,,,,3,,,70,0
115020,note_on,,7,0,1,,,,,,,,,,,,,,,3,,,72,127
115020,note_on,,0,0,1,,,,,,,,,,,,,,,3,,,57,127
115043,note_on,,23,0,1,,,,,,,,,,,,,,,3,,,72,0
115050,note_on,,7,0,1,,,,,,,,,,,,,,,3,,,71,127
115067,note_on,,17,0,1,,,,,,,,,,,,,,,3,,,57,0
115073,note_on,,6,0,1,,,,,,,,,,,,,,,3,,,71,0
115080,note_on,,7,0,1,,,,,,,,,,,,,,,3,,,69,127
115080,note_on,,0,0,1,,,,,,,,,,,,,,,3,,,67,127
115080,note_on,,0,0,1,,,,,,,,,,,,,,,3,,,52,127
115080,note_on,,0,0,1,,,,,,,,,,,,,,,3,,,60,127
115103,note_on,,23,0,1,,,,,,,,,,,,,,,3,,,69,0
115110,note_on,,7,0,1,,,,,,,,,,,,,,,3,,,67,127
115127,note_on,,17,0,1,,,,,,,,,,,,,,,3,,,67,0
115127,note_on,,0,0,1,,,,,,,,,,,,,,,3,,,60,0
115127,note_on,,0,0,1,,,,,,,,,,,,,,,3,,,52,0
115133,note_on,,6,0,1,,,,,,,,,,,,,,,3,,,67,0
115140,note_on,,7,0,1,,,,,,,,,,,,,,,3,,,69,127
115140,note_on,,0,0,1,,,,,,,,,,,,,,,3,,,65,127
115140,note_on,,0,0,1,,,,,,,,,,,,,,,3,,,60,127
115140,note_on,,0,0,1,,,,,,,,,,,,,,,3,,,53,127
115163,note_on,,23,0,1,,,,,,,,,,,,,,,3,,,69,0
115170,note_on,,7,0,1,,,,,,,,,,,,,,,3,,,72,127
115187,note_on,,0,0,1,,,,,,,,,,,,,,,3,,,60,0
115187,note_on,,0,0,1,,,,,,,,,,,,,,,3,,,53,0
115187,note_on,,17,0,1,,,,,,,,,,,,,,,3,,,65,0
115193,note_on,,6,0,1,,,,,,,,,,,,,,,3,,,72,0
115200,note_on,,7,0,1,,,,,,,,,,,,,,,3,,,77,127
115200,note_on,,0,0,1,,,,,,,,,,,,,,,3,,,57,127
115223,note_on,,23,0,1,,,,,,,,,,,,,,,3,,,77,0
115230,note_on,,7,0,1,,,,,,,,,,,,,,,3,,,76,127
115247,note_on,,17,0,1,,,,,,,,,,,,,,,3,,,57,0
115253,note_on,,6,0,1,,,,,,,,,,,,,,,3,,,76,0
115260,note_on,,0,0,1,,,,,,,,,,,,,,,3,,,69,127
115260,note_on,,0,0,1,,,,,,,,,,,,,,,3,,,65,127
115260,note_on,,0,0,1,,,,,,,,,,,,,,,3,,,53,127
115260,note_on,,7,0,1,,,,,,,,,,,,,,,3,,,74,127
115283,note_on,,23,0,1,,,,,,,,,,,,,,,3,,,74,0
115290,note_on,,7,0,1,,,,,,,,,,,,,,,3,,,72,127
115307,note_on,,17,0,1,,,,,,,,,,,,,,,3,,,69,0
115307,note_on,,0,0,1,,,,,,,,,,,,,,,3,,,65,0
115307,note_on,,0,0,1,,,,,,,,,,,,,,,3,,,53,0
115313,note_on,,6,0,1,,,,,,,,,,,,,,,3,,,72,0
115320,note_on,,7,0,1,,,,,,,,,,,,,,,3,,,71,127
115320,note_on,,0,0,1,,,,,,,,,,,,,,,3,,,67,127
115320,note_on,,0,0,1,,,,,,,,,,,,,,,3,,,62,127
115320,note_on,,0,0,1,,,,,,,,,,,,,,,3,,,55,127
115343,note_on,,23,0,1,,,,,,,,,,,,,,,3,,,67,0
115350,note_on,,7,0,1,,,,,,,,,,,,,,,3,,,69,127
115367,note_on,,0,0,1,,,,,,,,,,,,,,,3,,,62,0
115367,note_on,,17,0,1,,,,,,,,,,,,,,,3,,,71,0
115367,note_on,,0,0,1,,,,,,,,,,,,,,,3,,,55,0
115373,note_on,,6,0,1,,,,,,,,,,,,,,,3,,,69,0
115380,note_on,,7,0,1,,,,,,,,,,,,,,,3,,,71,127
115403,note_on,,23,0,1,,,,,,,,,,,,,,,3,,,71,0
115410,note_on,,7,0,1,,,,,,,,,,,,,,,3,,,69,127
115433,note_on,,23,0,1,,,,,,,,,,,,,,,3,,,69,0
115440,note_on,,7,0,1,,,,,,,,,,,,,,,3,,,71,127
115440,note_on,,0,0,1,,,,,,,,,,,,,,,3,,,67,127
115440,note_on,,0,0,1,,,,,,,,,,,,,,,3,,,62,127
115440,note_on,,0,0,1,,,,,,,,,,,,,,,3,,,55,127
115463,note_on,,23,0,1,,,,,,,,,,,,,,,3,,,67,0
115470,note_on,,7,0,1,,,,,,,,,,,,,,,3,,,65,127
115487,note_on,,17,0,1,,,,,,,,,,,,,,,3,,,71,0
115487,note_on,,0,0,1,,,,,,,,,,,,,,,3,,,62,0
115487,note_on,,0,0,1,,,,,,,,,,,,,,,3,,,55,0
115493,note_on,,6,0,1,,,,,,,,,,,,,,,3,,,65,0
115500,note_on,,7,0,1,,,,,,,,,,,,,,,3,,,72,127
115500,note_on,,0,0,1,,,,,,,,,,,,,,,3,,,64,127
115500,note_on,,0,0,1,,,,,,,,,,,,,,,3,,,57,127
115500,note_on,,0,0,1,,,,,,,,,,,,,,,3,,,60,127
115523,note_on,,23,0,1,,,,,,,,,,,,,,,3,,,60,0
115530,note_on,,7,0,1,,,,,,,,,,,,,,,3,,,62,127
115547,note_on,,17,0,1,,,,,,,,,,,,,,,3,,,72,0
115547,note_on,,0,0,1,,,,,,,,,,,,,,,3,,,64,0
115547,note_on,,0,0,1,,,,,,,,,,,,,,,3,,,57,0
115553,note_on,,6,0,1,,,,,,,,,,,,,,,3,,,62,0
115560,note_on,,7,0,1,,,,,,,,,,,,,,,3,,,64,127
115583,note_on,,23,0,1,,,,,,,,,,,,,,,3,,,64,0
115590,note_on,,7,0,1,,,,,,,,,,,,,,,3,,,62,127
115613,note_on,,23,0,1,,,,,,,,,,,,,,,3,,,62,0
115620,note_on,,0,0,1,,,,,,,,,,,,,,,3,,,64,127
115620,note_on,,0,0,1,,,,,,,,,,,,,,,3,,,60,127
115620,note_on,,0,0,1,,,,,,,,,,,,,,,3,,,57,127
115620,note_on,,7,0,1,,,,,,,,,,,,,,,3,,,72,127
115643,note_on,,23,0,1,,,,,,,,,,,,,,,3,,,60,0
115650,note_on,,7,0,1,,,,,,,,,,,,,,,3,,,59,127
115667,note_on,,17,0,1,,,,,,,,,,,,,,,3,,,72,0
115667,note_on,,0,0,1,,,,,,,,,,,,,,,3,,,57,0
115667,note_on,,0,0,1,,,,,,,,,,,,,,,3,,,64,0
115673,note_on,,6,0,1,,,,,,,,,,,,,,,3,,,59,0
115680,note_on,,0,0,1,,,,,,,,,,,,,,,3,,,57,127
115680,note_on,,0,0,1,,,,,,,,,,,,,,,3,,,54,127
115680,note_on,,7,0,1,,,,,,,,,,,,,,,3,,,62,127
115710,note_on,,30,0,1,,,,,,,,,,,,,,,3,,,72,127
115727,note_on,,17,0,1,,,,,,,,,,,,,,,3,,,62,0
115727,note_on,,0,0,1,,,,,,,,,,,,,,,3,,,57,0
115727,note_on,,0,0,1,,,,,,,,,,,,,,,3,,,54,0
115733,note_on,,6,0,1,,,,,,,,,,,,,,,3,,,72,0
115740,note_on,,0,0,1,,,,,,,,,,,,,,,3,,,55,127
115740,note_on,,7,0,1,,,,,,,,,,,,,,,3,,,71,127
115740,note_on,,0,0,1,,,,,,,,,,,,,,,3,,,55,127
115770,note_on,,30,0,1,,,,,,,,,,,,,,,3,,,62,127
115787,note_on,,17,0,1,,,,,,,,,,,,,,,3,,,71,0
115787,note_on,,0,0,1,,,,,,,,,,,,,,,3,,,55,0
115787,note_on,,0,0,1,,,,,,,,,,,,,,,3,,,55,0
115793,note_on,,6,0,1,,,,,,,,,,,,,,,3,,,62,0
115800,note_on,,7,0,1,,,,,,,,,,,,,,,3,,,60,127
115800,note_on,,0,0,1,,,,,,,,,,,,,,,3,,,52,127
115800,note_on,,0,0,1,,,,,,,,,,,,,,,3,,,48,127
115830,note_on,,30,0,1,,,,,,,,,,,,,,,3,,,69,127
115847,note_on,,0,0,1,,,,,,,,,,,,,,,3,,,48,0
115847,note_on,,0,0,1,,,,,,,,,,,,,,,3,,,52,0
115847,note_on,,17,0,1,,,,,,,,,,,,,,,3,,,60,0
115853,note_on,,6,0,1,,,,,,,,,,,,,,,3,,,69,0
115860,note_on,,0,0,1,,,,,,,,,,,,,,,3,,,50,127
115860,note_on,,0,0,1,,,,,,,,,,,,,,,3,,,50,127
115860,note_on,,7,0,1,,,,,,,,,,,,,,,3,,,59,127
115890,note_on,,30,0,1,,,,,,,,,,,,,,,3,,,62,127
115907,note_on,,0,0,1,,,,,,,,,,,,,,,3,,,50,0
115907,note_on,,0,0,1,,,,,,,,,,,,,,,3,,,50,0
115907,note_on,,17,0,1,,,,,,,,,,,,,,,3,,,59,0
115913,note_on,,6,0,1,,,,,,,,,,,,,,,3,,,62,0
115920,note_on,,0,0,1,,,,,,,,,,,,,,,3,,,48,127
115920,note_on,,7,0,1,,,,,,,,,,,,,,,3,,,67,127
115950,note_on,,30,0,1,,,,,,,,,,,,,,,3,,,59,127
115967,note_on,,0,0,1,,,,,,,,,,,,,,,3,,,48,0
115967,note_on,,17,0,1,,,,,,,,,,,,,,,3,,,67,0
115973,note_on,,6,0,1,,,,,,,,,,,,,,,3,,,59,0
115980,note_on,,0,0,1,,,,,,,,,,,,,,,3,,,50,127
115980,note_on,,7,0,1,,,,,,,,,,,,,,,3,,,57,127
116010,note_on,,30,0,1,,,,,,,,,,,,,,,3,,,66,127
116027,note_on,,0,0,1,,,,,,,,,,,,,,,3,,,50,0
116027,note_on,,17,0,1,,,,,,,,,,,,,,,3,,,57,0
116033,note_on,,6,0,1,,,,,,,,,,,,,,,3,,,66,0
116040,note_on,,0,0,1,,,,,,,,,,,,,,,3,,,43,127
116040,note_on,,0,0,1,,,,,,,,,,,,,,,3,,,55,127
116040,note_on,,0,0,1,,,,,,,,,,,,,,,3,,,59,127
116040,note_on,,7,0,1,,,,,,,,,,,,,,,3,,,67,127
116087,note_on,,0,0,1,,,,,,,,,,,,,,,3,,,59,0
116087,note_on,,0,0,1,,,,,,,,,,,,,,,3,,,43,0
116087,note_on,,47,0,1,,,,,,,,,,,,,,,3,,,67,0
116087,note_on,,0,0,1,,,,,,,,,,,,,,,3,,,55,0
116100,note_on,,13,0,1,,,,,,,,,,,,,,,3,,,59,127
116123,note_on,,23,0,1,,,,,,,,,,,,,,,3,,,59,0
116130,note_on,,7,0,1,,,,,,,,,,,,,,,3,,,57,127
116153,note_on,,23,0,1,,,,,,,,,,,,,,,3,,,57,0
116160,note_on,,7,0,1,,,,,,,,,,,,,,,3,,,59,127
116207,note_on,,47,0,1,,,,,,,,,,,,,,,3,,,59,0
116220,note_on,,13,0,1,,,,,,,,,,,,,,,3,,,55,127
116267,note_on,,47,0,1,,,,,,,,,,,,,,,3,,,55,0
116280,note_on,,13,0,1,,,,,,,,,,,,,,,3,,,59,127
116327,note_on,,47,0,1,,,,,,,,,,,,,,,3,,,59,0
116340,note_on,,0,0,1,,,,,,,,,,,,,,,3,,,55,127
116340,note_on,,0,0,1,,,,,,,,,,,,,,,3,,,71,127
116340,note_on,,13,0,1,,,,,,,,,,,,,,,3,,,79,127
116387,note_on,,0,0,1,,,,,,,,,,,,,,,3,,,55,0
116387,note_on,,47,0,1,,,,,,,,,,,,,,,3,,,79,0
116387,note_on,,0,0,1,,,,,,,,,,,,,,,3,,,71,0
116400,note_on,,13,0,1,,,,,,,,,,,,,,,3,,,76,127
116400,note_on,,0,0,1,,,,,,,,,,,,,,,3,,,60,127
116400,note_on,,0,0,1,,,,,,,,,,,,,,,3,,,67,127
116423,note_on,,23,0,1,,,,,,,,,,,,,,,3,,,76,0
116430,note_on,,7,0,1,,,,,,,,,,,,,,,3,,,77,127
116447,note_on,,17,0,1,,,,,,,,,,,,,,,3,,,67,0
116447,note_on,,0,0,1,,,,,,,,,,,,,,,3,,,60,0
116453,note_on,,6,0,1,,,,,,,,,,,,,,,3,,,77,0
116460,note_on,,7,0,1,,,,,,,,,,,,,,,3,,,79,127
116460,note_on,,0,0,1,,,,,,,,,,,,,,,3,,,64,127
116483,note_on,,23,0,1,,,,,,,,,,,,,,,3,,,79,0
116490,note_on,,7,0,1,,,,,,,,,,,,,,,3,,,77,127
116507,note_on,,17,0,1,,,,,,,,,,,,,,,3,,,64,0
116513,note_on,,6,0,1,,,,,,,,,,,,,,,3,,,77,0
116520,note_on,,0,0,1,,,,,,,,,,,,,,,3,,,65,127
116520,note_on,,7,0,1,,,,,,,,,,,,,,,3,,,76,127
116543,note_on,,23,0,1,,,,,,,,,,,,,,,3,,,76,0
116550,note_on,,7,0,1,,,,,,,,,,,,,,,3,,,74,127
116567,note_on,,17,0,1,,,,,,,,,,,,,,,3,,,65,0
116573,note_on,,6,0,1,,,,,,,,,,,,,,,3,,,74,0
116580,note_on,,7,0,1,,,,,,,,,,,,,,,3,,,76,127
116580,note_on,,0,0,1,,,,,,,,,,,,,,,3,,,67,127
116603,note_on,,23,0,1,,,,,,,,,,,,,,,3,,,76,0
116610,note_on,,7,0,1,,,,,,,,,,,,,,,3,,,77,127
116627,note_on,,17,0,1,,,,,,,,,,,,,,,3,,,67,0
116633,note_on,,6,0,1,,,,,,,,,,,,,,,3,,,77,0
116640,note_on,,7,0,1,,,,,,,,,,,,,,,3,,,79,127
116640,note_on,,0,0,1,,,,,,,,,,,,,,,3,,,64,127
116663,note_on,,23,0,1,,,,,,,,,,,,,,,3,,,79,0
116670,note_on,,7,0,1,,,,,,,,,,,,,,,3,,,77,127
116687,note_on,,17,0,1,,,,,,,,,,,,,,,3,,,64,0
116693,note_on,,6,0,1,,,,,,,,,,,,,,,3,,,77,0
116700,note_on,,7,0,1,,,,,,,,,,,,,,,3,,,76,127
116700,note_on,,0,0,1,,,,,,,,,,,,,,,3,,,66,127
116700,note_on,,0,0,1,,,,,,,,,,,,,,,3,,,60,127
116723,note_on,,23,0,1,,,,,,,,,,,,,,,3,,,76,0
116730,note_on,,7,0,1,,,,,,,,,,,,,,,3,,,77,127
116747,note_on,,17,0,1,,,,,,,,,,,,,,,3,,,66,0
116747,note_on,,0,0,1,,,,,,,,,,,,,,,3,,,60,0
116753,note_on,,6,0,1,,,,,,,,,,,,,,,3,,,77,0
116760,note_on,,7,0,1,,,,,,,,,,,,,,,3,,,74,127
116760,note_on,,0,0,1,,,,,,,,,,,,,,,3,,,67,127
116760,note_on,,0,0,1,,,,,,,,,,,,,,,3,,,59,127
116807,note_on,,47,0,1,,,,,,,,,,,,,,,3,,,74,0
116807,note_on,,0,0,1,,,,,,,,,,,,,,,3,,,67,0
116807,note_on,,0,0,1,,,,,,,,,,,,,,,3,,,59,0
116820,note_on,,13,0,1,,,,,,,,,,,,,,,3,,,62,127
116843,note_on,,23,0,1,,,,,,,,,,,,,,,3,,,62,0
116850,note_on,,7,0,1,,,,,,,,,,,,,,,3,,,60,127
116873,note_on,,23,0,1,,,,,,,,,,,,,,,3,,,60,0
116880,note_on,,7,0,1,,,,,,,,,,,,,,,3,,,62,127
116927,note_on,,47,0,1,,,,,,,,,,,,,,,3,,,62,0
116940,note_on,,13,0,1,,,,,,,,,,,,,,,3,,,59,127
116987,note_on,,47,0,1,,,,,,,,,,,,,,,3,,,59,0
117000,note_on,,13,0,1,,,,,,,,,,,,,,,3,,,62,127
117047,note_on,,47,0,1,,,,,,,,,,,,,,,3,,,62,0
117060,note_on,,13,0,1,,,,,,,,,,,,,,,3,,,74,127
117060,note_on,,0,0,1,,,,,,,,,,,,,,,3,,,74,127
117060,note_on,,0,0,1,,,,,,,,,,,,,,,3,,,59,127
117107,note_on,,47,0,1,,,,,,,,,,,,,,,3,,,74,0
117107,note_on,,0,0,1,,,,,,,,,,,,,,,3,,,74,0
117107,note_on,,0,0,1,,,,,,,,,,,,,,,3,,,59,0
117120,note_on,,0,0,1,,,,,,,,,,,,,,,3,,,71,127
117120,note_on,,0,0,1,,,,,,,,,,,,,,,3,,,64,127
117120,note_on,,13,0,1,,,,,,,,,,,,,,,3,,,79,127
117143,note_on,,23,0,1,,,,,,,,,,,,,,,3,,,79,0
117150,note_on,,7,0,1,,,,,,,,,,,,,,,3,,,81,127
117167,note_on,,0,0,1,,,,,,,,,,,,,,,3,,,64,0
117167,note_on,,17,0,1,,,,,,,,,,,,,,,3,,,71,0
117173,note_on,,6,0,1,,,,,,,,,,,,,,,3,,,81,0
117180,note_on,,0,0,1,,,,,,,,,,,,,,,3,,,67,127
117180,note_on,,7,0,1,,,,,,,,,,,,,,,3,,,83,127
117203,note_on,,23,0,1,,,,,,,,,,,,,,,3,,,83,0
117210,note_on,,7,0,1,,,,,,,,,,,,,,,3,,,81,127
117227,note_on,,17,0,1,,,,,,,,,,,,,,,3,,,67,0
117233,note_on,,6,0,1,,,,,,,,,,,,,,,3,,,81,0
117240,note_on,,0,0,1,,,,,,,,,,,,,,,3,,,69,127
117240,note_on,,7,0,1,,,,,,,,,,,,,,,3,,,79,127
117263,note_on,,23,0,1,,,,,,,,,,,,,,,3,,,79,0
117270,note_on,,7,0,1,,,,,,,,,,,,,,,3,,,78,127
117287,note_on,,17,0,1,,,,,,,,,,,,,,,3,,,69,0
117293,note_on,,6,0,1,,,,,,,,,,,,,,,3,,,78,0
117300,note_on,,7,0,1,,,,,,,,,,,,,,,3,,,79,127
117300,note_on,,0,0,1,,,,,,,,,,,,,,,3,,,71,127
117323,note_on,,23,0,1,,,,,,,,,,,,,,,3,,,79,0
117330,note_on,,7,0,1,,,,,,,,,,,,,,,3,,,81,127
117347,note_on,,17,0,1,,,,,,,,,,,,,,,3,,,71,0
117353,note_on,,6,0,1,,,,,,,,,,,,,,,3,,,81,0
117360,note_on,,7,0,1,,,,,,,,,,,,,,,3,,,83,127
117360,note_on,,0,0,1,,,,,,,,,,,,,,,3,,,67,127
117383,note_on,,23,0,1,,,,,,,,,,,,,,,3,,,83,0
117390,note_on,,7,0,1,,,,,,,,,,,,,,,3,,,81,127
117407,note_on,,17,0,1,,,,,,,,,,,,,,,3,,,67,0
117413,note_on,,6,0,1,,,,,,,,,,,,,,,3,,,81,0
117420,note_on,,0,0,1,,,,,,,,,,,,,,,3,,,64,127
117420,note_on,,7,0,1,,,,,,,,,,,,,,,3,,,79,127
117420,note_on,,0,0,1,,,,,,,,,,,,,,,3,,,71,127
117443,note_on,,23,0,1,,,,,,,,,,,,,,,3,,,79,0
117450,note_on,,7,0,1,,,,,,,,,,,,,,,3,,,78,127
117467,note_on,,0,0,1,,,,,,,,,,,,,,,3,,,64,0
117467,note_on,,17,0,1,,,,,,,,,,,,,,,3,,,71,0
117473,note_on,,6,0,1,,,,,,,,,,,,,,,3,,,78,0
117480,note_on,,0,0,1,,,,,,,,,,,,,,,3,,,60,127
117480,note_on,,7,0,1,,,,,,,,,,,,,,,3,,,76,127
117480,note_on,,0,0,1,,,,,,,,,,,,,,,3,,,72,127
117527,note_on,,0,0,1,,,,,,,,,,,,,,,3,,,60,0
117527,note_on,,0,0,1,,,,,,,,,,,,,,,3,,,72,0
117527,note_on,,47,0,1,,,,,,,,,,,,,,,3,,,76,0
117540,note_on,,13,0,1,,,,,,,,,,,,,,,3,,,64,127
117563,note_on,,23,0,1,,,,,,,,,,,,,,,3,,,64,0
117570,note_on,,7,0,1,,,,,,,,,,,,,,,3,,,62,127
117593,note_on,,23,0,1,,,,,,,,,,,,,,,3,,,62,0
117600,note_on,,7,0,1,,,,,,,,,,,,,,,3,,,64,127
117647,note_on,,47,0,1,,,,,,,,,,,,,,,3,,,64,0
117660,note_on,,13,0,1,,,,,,,,,,,,,,,3,,,60,127
117707,note_on,,47,0,1,,,,,,,,,,,,,,,3,,,60,0
117720,note_on,,13,0,1,,,,,,,,,,,,,,,3,,,64,127
117767,note_on,,47,0,1,,,,,,,,,,,,,,,3,,,64,0
117780,note_on,,0,0,1,,,,,,,,,,,,,,,3,,,60,127
117780,note_on,,0,0,1,,,,,,,,,,,,,,,3,,,72,127
117780,note_on,,13,0,1,,,,,,,,,,,,,,,3,,,76,127
117827,note_on,,0,0,1,,,,,,,,,,,,,,,3,,,72,0
117827,note_on,,47,0,1,,,,,,,,,,,,,,,3,,,76,0
117827,note_on,,0,0,1,,,,,,,,,,,,,,,3,,,60,0
117840,note_on,,0,0,1,,,,,,,,,,,,,,,3,,,67,127
117840,note_on,,0,0,1,,,,,,,,,,,,,,,3,,,71,127
117840,note_on,,13,0,1,,,,,,,,,,,,,,,3,,,79,127
117863,note_on,,0,0,1,,,,,,,,,,,,,,,3,,,71,0
117863,note_on,,23,0,1,,,,,,,,,,,,,,,3,,,79,0
117870,note_on,,0,0,1,,,,,,,,,,,,,,,3,,,72,127
117870,note_on,,7,0,1,,,,,,,,,,,,,,,3,,,81,127
117887,note_on,,17,0,1,,,,,,,,,,,,,,,3,,,67,0
117893,note_on,,6,0,1,,,,,,,,,,,,,,,3,,,81,0
117893,note_on,,0,0,1,,,,,,,,,,,,,,,3,,,72,0
117900,note_on,,7,0,1,,,,,,,,,,,,,,,3,,,83,127
117900,note_on,,0,0,1,,,,,,,,,,,,,,,3,,,74,127
117923,note_on,,23,0,1,,,,,,,,,,,,,,,3,,,83,0
117923,note_on,,0,0,1,,,,,,,,,,,,,,,3,,,74,0
117930,note_on,,7,0,1,,,,,,,,,,,,,,,3,,,81,127
117930,note_on,,0,0,1,,,,,,,,,,,,,,,3,,,72,127
117953,note_on,,23,0,1,,,,,,,,,,,,,,,3,,,81,0
117953,note_on,,0,0,1,,,,,,,,,,,,,,,3,,,72,0
117960,note_on,,7,0,1,,,,,,,,,,,,,,,3,,,79,127
117960,note_on,,0,0,1,,,,,,,,,,,,,,,3,,,71,127
117983,note_on,,23,0,1,,,,,,,,,,,,,,,3,,,79,0
117983,note_on,,0,0,1,,,,,,,,,,,,,,,3,,,71,0
117990,note_on,,7,0,1,,,,,,,,,,,,,,,3,,,78,127
117990,note_on,,0,0,1,,,,,,,,,,,,,,,3,,,69,127
118013,note_on,,23,0,1,,,,,,,,,,,,,,,3,,,78,0
118013,note_on,,0,0,1,,,,,,,,,,,,,,,3,,,69,0
118020,note_on,,7,0,1,,,,,,,,,,,,,,,3,,,79,127
118020,note_on,,0,0,1,,,,,,,,,,,,,,,3,,,71,127
118043,note_on,,23,0,1,,,,,,,,,,,,,,,3,,,79,0
118043,note_on,,0,0,1,,,,,,,,,,,,,,,3,,,71,0
118050,note_on,,7,0,1,,,,,,,,,,,,,,,3,,,81,127
118050,note_on,,0,0,1,,,,,,,,,,,,,,,3,,,72,127
118073,note_on,,23,0,1,,,,,,,,,,,,,,,3,,,81,0
118073,note_on,,0,0,1,,,,,,,,,,,,,,,3,,,72,0
118080,note_on,,7,0,1,,,,,,,,,,,,,,,3,,,83,127
118080,note_on,,0,0,1,,,,,,,,,,,,,,,3,,,74,127
118103,note_on,,0,0,1,,,,,,,,,,,,,,,3,,,74,0
118103,note_on,,23,0,1,,,,,,,,,,,,,,,3,,,83,0
118110,note_on,,0,0,1,,,,,,,,,,,,,,,3,,,72,127
118110,note_on,,7,0,1,,,,,,,,,,,,,,,3,,,81,127
118133,note_on,,0,0,1,,,,,,,,,,,,,,,3,,,72,0
118133,note_on,,23,0,1,,,,,,,,,,,,,,,3,,,81,0
118140,note_on,,7,0,1,,,,,,,,,,,,,,,3,,,83,127
118140,note_on,,0,0,1,,,,,,,,,,,,,,,3,,,74,127
118140,note_on,,0,0,1,,,,,,,,,,,,,,,3,,,67,127
118163,note_on,,23,0,1,,,,,,,,,,,,,,,3,,,83,0
118163,note_on,,0,0,1,,,,,,,,,,,,,,,3,,,74,0
118170,note_on,,0,0,1,,,,,,,,,,,,,,,3,,,71,127
118170,note_on,,7,0,1,,,,,,,,,,,,,,,3,,,79,127
118187,note_on,,17,0,1,,,,,,,,,,,,,,,3,,,67,0
118193,note_on,,0,0,1,,,,,,,,,,,,,,,3,,,71,0
118193,note_on,,6,0,1,,,,,,,,,,,,,,,3,,,79,0
118200,note_on,,7,0,1,,,,,,,,,,,,,,,3,,,84,127
118200,note_on,,0,0,1,,,,,,,,,,,,,,,3,,,72,127
118200,note_on,,0,0,1,,,,,,,,,,,,,,,3,,,64,127
118223,note_on,,23,0,1,,,,,,,,,,,,,,,3,,,64,0
118230,note_on,,7,0,1,,,,,,,,,,,,,,,3,,,67,127
118247,note_on,,17,0,1,,,,,,,,,,,,,,,3,,,84,0
118247,note_on,,0,0,1,,,,,,,,,,,,,,,3,,,72,0
118253,note_on,,6,0,1,,,,,,,,,,,,,,,3,,,67,0
118260,note_on,,7,0,1,,,,,,,,,,,,,,,3,,,76,127
118260,note_on,,0,0,1,,,,,,,,,,,,,,,3,,,60,127
118283,note_on,,23,0,1,,,,,,,,,,,,,,,3,,,60,0
118290,note_on,,7,0,1,,,,,,,,,,,,,,,3,,,67,127
118307,note_on,,17,0,1,,,,,,,,,,,,,,,3,,,76,0
118313,note_on,,6,0,1,,,,,,,,,,,,,,,3,,,67,0
118320,note_on,,0,0,1,,,,,,,,,,,,,,,3,,,62,127
118320,note_on,,0,0,1,,,,,,,,,,,,,,,3,,,71,127
118320,note_on,,7,0,1,,,,,,,,,,,,,,,3,,,77,127
118343,note_on,,23,0,1,,,,,,,,,,,,,,,3,,,62,0
118350,note_on,,7,0,1,,,,,,,,,,,,,,,3,,,67,127
118367,note_on,,17,0,1,,,,,,,,,,,,,,,3,,,77,0
118367,note_on,,0,0,1,,,,,,,,,,,,,,,3,,,71,0
118373,note_on,,6,0,1,,,,,,,,,,,,,,,3,,,67,0
118380,note_on,,7,0,1,,,,,,,,,,,,,,,3,,,79,127
118380,note_on,,0,0,1,,,,,,,,,,,,,,,3,,,72,127
118380,note_on,,0,0,1,,,,,,,,,,,,,,,3,,,64,127
118403,note_on,,23,0,1,,,,,,,,,,,,,,,3,,,64,0
118410,note_on,,7,0,1,,,,,,,,,,,,,,,3,,,67,127
118427,note_on,,0,0,1,,,,,,,,,,,,,,,3,,,72,0
118427,note_on,,17,0,1,,,,,,,,,,,,,,,3,,,79,0
118433,note_on,,6,0,1,,,,,,,,,,,,,,,3,,,67,0
118440,note_on,,7,0,1,,,,,,,,,,,,,,,3,,,77,127
118440,note_on,,0,0,1,,,,,,,,,,,,,,,3,,,71,127
118440,note_on,,0,0,1,,,,,,,,,,,,,,,3,,,62,127
118463,note_on,,23,0,1,,,,,,,,,,,,,,,3,,,62,0
118470,note_on,,7,0,1,,,,,,,,,,,,,,,3,,,67,127
118487,note_on,,0,0,1,,,,,,,,,,,,,,,3,,,71,0
118487,note_on,,17,0,1,,,,,,,,,,,,,,,3,,,77,0
118493,note_on,,6,0,1,,,,,,,,,,,,,,,3,,,67,0
118500,note_on,,7,0,1,,,,,,,,,,,,,,,3,,,79,127
118500,note_on,,0,0,1,,,,,,,,,,,,,,,3,,,72,127
118500,note_on,,0,0,1,,,,,,,,,,,,,,,3,,,64,127
118523,note_on,,23,0,1,,,,,,,,,,,,,,,3,,,64,0
118530,note_on,,7,0,1,,,,,,,,,,,,,,,3,,,67,127
118547,note_on,,17,0,1,,,,,,,,,,,,,,,3,,,79,0
118547,note_on,,0,0,1,,,,,,,,,,,,,,,3,,,72,0
118553,note_on,,6,0,1,,,,,,,,,,,,,,,3,,,67,0
118560,note_on,,0,0,1,,,,,,,,,,,,,,,3,,,65,127
118560,note_on,,7,0,1,,,,,,,,,,,,,,,3,,,81,127
118560,note_on,,0,0,1,,,,,,,,,,,,,,,3,,,72,127
118583,note_on,,23,0,1,,,,,,,,,,,,,,,3,,,65,0
118590,note_on,,7,0,1,,,,,,,,,,,,,,,3,,,67,127
118607,note_on,,17,0,1,,,,,,,,,,,,,,,3,,,81,0
118607,note_on,,0,0,1,,,,,,,,,,,,,,,3,,,72,0
118613,note_on,,6,0,1,,,,,,,,,,,,,,,3,,,67,0
118620,note_on,,7,0,1,,,,,,,,,,,,,,,3,,,79,127
118620,note_on,,0,0,1,,,,,,,,,,,,,,,3,,,64,127
118620,note_on,,0,0,1,,,,,,,,,,,,,,,3,,,72,127
118643,note_on,,23,0,1,,,,,,,,,,,,,,,3,,,64,0
118650,note_on,,7,0,1,,,,,,,,,,,,,,,3,,,67,127
118667,note_on,,17,0,1,,,,,,,,,,,,,,,3,,,79,0
118667,note_on,,0,0,1,,,,,,,,,,,,,,,3,,,72,0
118673,note_on,,6,0,1,,,,,,,,,,,,,,,3,,,67,0
118680,note_on,,7,0,1,,,,,,,,,,,,,,,3,,,77,127
118680,note_on,,0,0,1,,,,,,,,,,,,,,,3,,,71,127
118680,note_on,,0,0,1,,,,,,,,,,,,,,,3,,,62,127
118703,note_on,,23,0,1,,,,,,,,,,,,,,,3,,,62,0
118710,note_on,,7,0,1,,,,,,,,,,,,,,,3,,,67,127
118727,note_on,,0,0,1,,,,,,,,,,,,,,,3,,,71,0
118727,note_on,,17,0,1,,,,,,,,,,,,,,,3,,,77,0
118733,note_on,,6,0,1,,,,,,,,,,,,,,,3,,,67,0
118740,note_on,,7,0,1,,,,,,,,,,,,,,,3,,,79,127
118740,note_on,,0,0,1,,,,,,,,,,,,,,,3,,,72,127
118740,note_on,,0,0,1,,,,,,,,,,,,,,,3,,,64,127
118763,note_on,,23,0,1,,,,,,,,,,,,,,,3,,,64,0
118770,note_on,,7,0,1,,,,,,,,,,,,,,,3,,,67,127
118787,note_on,,0,0,1,,,,,,,,,,,,,,,3,,,72,0
118787,note_on,,17,0,1,,,,,,,,,,,,,,,3,,,79,0
118793,note_on,,6,0,1,,,,,,,,,,,,,,,3,,,67,0
118800,note_on,,0,0,1,,,,,,,,,,,,,,,3,,,72,127
118800,note_on,,0,0,1,,,,,,,,,,,,,,,3,,,60,127
118800,note_on,,7,0,1,,,,,,,,,,,,,,,3,,,76,127
118823,note_on,,23,0,1,,,,,,,,,,,,,,,3,,,60,0
118830,note_on,,7,0,1,,,,,,,,,,,,,,,3,,,67,127
118847,note_on,,17,0,1,,,,,,,,,,,,,,,3,,,76,0
118847,note_on,,0,0,1,,,,,,,,,,,,,,,3,,,72,0
118853,note_on,,6,0,1,,,,,,,,,,,,,,,3,,,67,0
118860,note_on,,7,0,1,,,,,,,,,,,,,,,3,,,72,127
118860,note_on,,0,0,1,,,,,,,,,,,,,,,3,,,64,127
118860,note_on,,0,0,1,,,,,,,,,,,,,,,3,,,58,127
118883,note_on,,23,0,1,,,,,,,,,,,,,,,3,,,58,0
118890,note_on,,7,0,1,,,,,,,,,,,,,,,3,,,67,127
118907,note_on,,17,0,1,,,,,,,,,,,,,,,3,,,72,0
118907,note_on,,0,0,1,,,,,,,,,,,,,,,3,,,64,0
118913,note_on,,6,0,1,,,,,,,,,,,,,,,3,,,67,0
118920,note_on,,0,0,1,,,,,,,,,,,,,,,3,,,57,127
118920,note_on,,7,0,1,,,,,,,,,,,,,,,3,,,77,127
118920,note_on,,0,0,1,,,,,,,,,,,,,,,3,,,65,127
118943,note_on,,23,0,1,,,,,,,,,,,,,,,3,,,65,0
118950,note_on,,7,0,1,,,,,,,,,,,,,,,3,,,67,127
118967,note_on,,17,0,1,,,,,,,,,,,,,,,3,,,77,0
118967,note_on,,0,0,1,,,,,,,,,,,,,,,3,,,57,0
118973,note_on,,6,0,1,,,,,,,,,,,,,,,3,,,67,0
118980,note_on,,7,0,1,,,,,,,,,,,,,,,3,,,69,127
118980,note_on,,0,0,1,,,,,,,,,,,,,,,3,,,65,127
119003,note_on,,23,0,1,,,,,,,,,,,,,,,3,,,69,0
119010,note_on,,7,0,1,,,,,,,,,,,,,,,3,,,67,127
119027,note_on,,17,0,1,,,,,,,,,,,,,,,3,,,65,0
119033,note_on,,6,0,1,,,,,,,,,,,,,,,3,,,67,0
119040,note_on,,7,0,1,,,,,,,,,,,,,,,3,,,65,127
119040,note_on,,0,0,1,,,,,,,,,,,,,,,3,,,59,127
119063,note_on,,23,0,1,,,,,,,,,,,,,,,3,,,65,0
119070,note_on,,7,0,1,,,,,,,,,,,,,,,3,,,67,127
119087,note_on,,17,0,1,,,,,,,,,,,,,,,3,,,59,0
119093,note_on,,6,0,1,,,,,,,,,,,,,,,3,,,67,0
119100,note_on,,0,0,1,,,,,,,,,,,,,,,3,,,60,127
119100,note_on,,7,0,1,,,,,,,,,,,,,,,3,,,64,127
119130,note_on,,30,0,1,,,,,,,,,,,,,,,3,,,72,127
119147,note_on,,17,0,1,,,,,,,,,,,,,,,3,,,64,0
119147,note_on,,0,0,1,,,,,,,,,,,,,,,3,,,60,0
119153,note_on,,6,0,1,,,,,,,,,,,,,,,3,,,72,0
119160,note_on,,7,0,1,,,,,,,,,,,,,,,3,,,74,127
119160,note_on,,0,0,1,,,,,,,,,,,,,,,3,,,62,127
119174,note_on,,14,0,1,,,,,,,,,,,,,,,3,,,62,0
119175,note_on,,1,0,1,,,,,,,,,,,,,,,3,,,60,127
119189,note_on,,14,0,1,,,,,,,,,,,,,,,3,,,60,0
119190,note_on,,1,0,1,,,,,,,,,,,,,,,3,,,65,127
119190,note_on,,0,0,1,,,,,,,,,,,,,,,3,,,62,127
119204,note_on,,14,0,1,,,,,,,,,,,,,,,3,,,62,0
119205,note_on,,1,0,1,,,,,,,,,,,,,,,3,,,60,127
119213,note_on,,8,0,1,,,,,,,,,,,,,,,3,,,65,0
119220,note_on,,7,0,1,,,,,,,,,,,,,,,3,,,67,127
119243,note_on,,23,0,1,,,,,,,,,,,,,,,3,,,67,0
119246,note_on,,3,0,1,,,,,,,,,,,,,,,3,,,60,0
119250,note_on,,4,0,1,,,,,,,,,,,,,,,3,,,62,127
119250,note_on,,0,0,1,,,,,,,,,,,,,,,3,,,59,127
119255,note_on,,5,0,1,,,,,,,,,,,,,,,3,,,74,0
119273,note_on,,18,0,1,,,,,,,,,,,,,,,3,,,62,0
119273,note_on,,0,0,1,,,,,,,,,,,,,,,3,,,59,0
119280,note_on,,7,0,1,,,,,,,,,,,,,,,3,,,64,127
119280,note_on,,0,0,1,,,,,,,,,,,,,,,3,,,60,127
119310,note_on,,30,0,1,,,,,,,,,,,,,,,3,,,67,127
119327,note_on,,17,0,1,,,,,,,,,,,,,,,3,,,64,0
119327,note_on,,0,0,1,,,,,,,,,,,,,,,3,,,60,0
119333,note_on,,6,0,1,,,,,,,,,,,,,,,3,,,67,0
119340,note_on,,7,0,1,,,,,,,,,,,,,,,3,,,72,127
119340,note_on,,0,0,1,,,,,,,,,,,,,,,3,,,57,127
119370,note_on,,30,0,1,,,,,,,,,,,,,,,3,,,62,127
119387,note_on,,17,0,1,,,,,,,,,,,,,,,3,,,72,0
119387,note_on,,0,0,1,,,,,,,,,,,,,,,3,,,57,0
119393,note_on,,6,0,1,,,,,,,,,,,,,,,3,,,62,0
119400,note_on,,7,0,1,,,,,,,,,,,,,,,3,,,67,127
119400,note_on,,0,0,1,,,,,,,,,,,,,,,3,,,64,127
119400,note_on,,0,0,1,,,,,,,,,,,,,,,3,,,52,127
119423,note_on,,23,0,1,,,,,,,,,,,,,,,3,,,64,0
119430,note_on,,7,0,1,,,,,,,,,,,,,,,3,,,60,127
119447,note_on,,0,0,1,,,,,,,,,,,,,,,3,,,52,0
119447,note_on,,17,0,1,,,,,,,,,,,,,,,3,,,67,0
119453,note_on,,6,0,1,,,,,,,,,,,,,,,3,,,60,0
119460,note_on,,7,0,1,,,,,,,,,,,,,,,3,,,69,127
119460,note_on,,0,0,1,,,,,,,,,,,,,,,3,,,53,127
119490,note_on,,30,0,1,,,,,,,,,,,,,,,3,,,60,127
119507,note_on,,0,0,1,,,,,,,,,,,,,,,3,,,53,0
119507,note_on,,17,0,1,,,,,,,,,,,,,,,3,,,69,0
119513,note_on,,6,0,1,,,,,,,,,,,,,,,3,,,60,0
119520,note_on,,0,0,1,,,,,,,,,,,,,,,3,,,55,127
119520,note_on,,7,0,1,,,,,,,,,,,,,,,3,,,59,127
119550,note_on,,30,0,1,,,,,,,,,,,,,,,3,,,67,127
119567,note_on,,17,0,1,,,,,,,,,,,,,,,3,,,55,0
119573,note_on,,6,0,1,,,,,,,,,,,,,,,3,,,67,0
119580,note_on,,0,0,1,,,,,,,,,,,,,,,3,,,43,127
119580,note_on,,7,0,1,,,,,,,,,,,,,,,3,,,62,127
119603,note_on,,23,0,1,,,,,,,,,,,,,,,3,,,62,0
119610,note_on,,7,0,1,,,,,,,,,,,,,,,3,,,65,127
119615,note_on,,5,0,1,,,,,,,,,,,,,,,3,,,59,0
119627,note_on,,12,0,1,,,,,,,,,,,,,,,3,,,43,0
119633,note_on,,6,0,1,,,,,,,,,,,,,,,3,,,65,0
119640,note_on,,0,0,1,,,,,,,,,,,,,,,3,,,48,127
119640,note_on,,0,0,1,,,,,,,,,,,,,,,3,,,48,127
119640,note_on,,0,0,1,,,,,,,,,,,,,,,3,,,60,127
119640,note_on,,7,0,1,,,,,,,,,,,,,,,3,,,64,127
119687,note_on,,0,0,1,,,,,,,,,,,,,,,3,,,48,0
119687,note_on,,47,0,1,,,,,,,,,,,,,,,3,,,64,0
119687,note_on,,0,0,1,,,,,,,,,,,,,,,3,,,60,0
119687,note_on,,0,0,1,,,,,,,,,,,,,,,3,,,48,0
119700,note_on,,0,0,1,,,,,,,,,,,,,,,3,,,52,127
119700,note_on,,13,0,1,,,,,,,,,,,,,,,3,,,36,127
119723,note_on,,23,0,1,,,,,,,,,,,,,,,3,,,52,0
119730,note_on,,7,0,1,,,,,,,,,,,,,,,3,,,50,127
119747,note_on,,17,0,1,,,,,,,,,,,,,,,3,,,36,0
119753,note_on,,6,0,1,,,,,,,,,,,,,,,3,,,50,0
119760,note_on,,7,0,1,,,,,,,,,,,,,,,3,,,52,127
119807,note_on,,47,0,1,,,,,,,,,,,,,,,3,,,52,0
119820,note_on,,13,0,1,,,,,,,,,,,,,,,3,,,48,127
119867,note_on,,47,0,1,,,,,,,,,,,,,,,3,,,48,0
119880,note_on,,13,0,1,,,,,,,,,,,,,,,3,,,52,127
119927,note_on,,47,0,1,,,,,,,,,,,,,,,3,,,52,0
119940,note_on,,0,0,1,,,,,,,,,,,,,,,3,,,48,127
119940,note_on,,13,0,1,,,,,,,,,,,,,,,3,,,64,127
119940,note_on,,0,0,1,,,,,,,,,,,,,,,3,,,60,127
119987,note_on,,0,0,1,,,,,,,,,,,,,,,3,,,48,0
119987,note_on,,0,0,1,,,,,,,,,,,,,,,3,,,60,0
119987,note_on,,47,0,1,,,,,,,,,,,,,,,3,,,64,0
120000,note_on,,0,0,1,,,,,,,,,,,,,,,3,,,59,127
120000,note_on,,0,0,1,,,,,,,,,,,,,,,3,,,55,127
120000,note_on,,13,0,1,,,,,,,,,,,,,,,3,,,62,127
120023,note_on,,23,0,1,,,,,,,,,,,,,,,3,,,62,0
120023,note_on,,0,0,1,,,,,,,,,,,,,,,3,,,59,0
120030,note_on,,7,0,1,,,,,,,,,,,,,,,3,,,67,127
120030,note_on,,0,0,1,,,,,,,,,,,,,,,3,,,60,127
120047,note_on,,17,0,1,,,,,,,,,,,,,,,3,,,55,0
120053,note_on,,0,0,1,,,,,,,,,,,,,,,3,,,60,0
120053,note_on,,6,0,1,,,,,,,,,,,,,,,3,,,67,0
120060,note_on,,0,0,1,,,,,,,,,,,,,,,3,,,62,127
120060,note_on,,7,0,1,,,,,,,,,,,,,,,3,,,71,127
120083,note_on,,0,0,1,,,,,,,,,,,,,,,3,,,62,0
120083,note_on,,23,0,1,,,,,,,,,,,,,,,3,,,71,0
120090,note_on,,7,0,1,,,,,,,,,,,,,,,3,,,69,127
120090,note_on,,0,0,1,,,,,,,,,,,,,,,3,,,60,127
120113,note_on,,23,0,1,,,,,,,,,,,,,,,3,,,69,0
120113,note_on,,0,0,1,,,,,,,,,,,,,,,3,,,60,0
120120,note_on,,7,0,1,,,,,,,,,,,,,,,3,,,67,127
120120,note_on,,0,0,1,,,,,,,,,,,,,,,3,,,59,127
120143,note_on,,0,0,1,,,,,,,,,,,,,,,3,,,59,0
120143,note_on,,23,0,1,,,,,,,,,,,,,,,3,,,67,0
120150,note_on,,7,0,1,,,,,,,,,,,,,,,3,,,66,127
120150,note_on,,0,0,1,,,,,,,,,,,,,,,3,,,57,127
120173,note_on,,23,0,1,,,,,,,,,,,,,,,3,,,66,0
120173,note_on,,0,0,1,,,,,,,,,,,,,,,3,,,57,0
120180,note_on,,7,0,1,,,,,,,,,,,,,,,3,,,67,127
120180,note_on,,0,0,1,,,,,,,,,,,,,,,3,,,59,127
120203,note_on,,23,0,1,,,,,,,,,,,,,,,3,,,59,0
120210,note_on,,7,0,1,,,,,,,,,,,,,,,3,,,60,127
120227,note_on,,17,0,1,,,,,,,,,,,,,,,3,,,67,0
120233,note_on,,6,0,1,,,,,,,,,,,,,,,3,,,60,0
120240,note_on,,7,0,1,,,,,,,,,,,,,,,3,,,71,127
120240,note_on,,0,0,1,,,,,,,,,,,,,,,3,,,62,127
120263,note_on,,23,0,1,,,,,,,,,,,,,,,3,,,62,0
120270,note_on,,7,0,1,,,,,,,,,,,,,,,3,,,60,127
120287,note_on,,17,0,1,,,,,,,,,,,,,,,3,,,71,0
120293,note_on,,6,0,1,,,,,,,,,,,,,,,3,,,60,0
120300,note_on,,7,0,1,,,,,,,,,,,,,,,3,,,67,127
120300,note_on,,0,0,1,,,,,,,,,,,,,,,3,,,59,127
120300,note_on,,0,0,1,,,,,,,,,,,,,,,3,,,55,127
120323,note_on,,23,0,1,,,,,,,,,,,,,,,3,,,59,0
120330,note_on,,7,0,1,,,,,,,,,,,,,,,3,,,57,127
120347,note_on,,17,0,1,,,,,,,,,,,,,,,3,,,67,0
120347,note_on,,0,0,1,,,,,,,,,,,,,,,3,,,55,0
120353,note_on,,6,0,1,,,,,,,,,,,,,,,3,,,57,0
120360,note_on,,0,0,1,,,,,,,,,,,,,,,3,,,52,127
120360,note_on,,0,0,1,,,,,,,,,,,,,,,3,,,55,127
120360,note_on,,7,0,1,,,,,,,,,,,,,,,3,,,72,127
120407,note_on,,0,0,1,,,,,,,,,,,,,,,3,,,52,0
120407,note_on,,0,0,1,,,,,,,,,,,,,,,3,,,55,0
120407,note_on,,47,0,1,,,,,,,,,,,,,,,3,,,72,0
120420,note_on,,13,0,1,,,,,,,,,,,,,,,3,,,55,127
120443,note_on,,23,0,1,,,,,,,,,,,,,,,3,,,55,0
120450,note_on,,7,0,1,,,,,,,,,,,,,,,3,,,53,127
120473,note_on,,23,0,1,,,,,,,,,,,,,,,3,,,53,0
120480,note_on,,7,0,1,,,,,,,,,,,,,,,3,,,55,127
120527,note_on,,47,0,1,,,,,,,,,,,,,,,3,,,55,0
120540,note_on,,13,0,1,,,,,,,,,,,,,,,3,,,52,127
120587,note_on,,47,0,1,,,,,,,,,,,,,,,3,,,52,0
120600,note_on,,13,0,1,,,,,,,,,,,,,,,3,,,55,127
120647,note_on,,47,0,1,,,,,,,,,,,,,,,3,,,55,0
120660,note_on,,0,0,1,,,,,,,,,,,,,,,3,,,64,127
120660,note_on,,0,0,1,,,,,,,,,,,,,,,3,,,52,127
120660,note_on,,13,0,1,,,,,,,,,,,,,,,3,,,72,127
120707,note_on,,0,0,1,,,,,,,,,,,,,,,3,,,64,0
120707,note_on,,0,0,1,,,,,,,,,,,,,,,3,,,52,0
120707,note_on,,47,0,1,,,,,,,,,,,,,,,3,,,72,0
120720,note_on,,0,0,1,,,,,,,,,,,,,,,3,,,57,127
120720,note_on,,13,0,1,,,,,,,,,,,,,,,3,,,69,127
120720,note_on,,0,0,1,,,,,,,,,,,,,,,3,,,60,127
120743,note_on,,0,0,1,,,,,,,,,,,,,,,3,,,60,0
120743,note_on,,23,0,1,,,,,,,,,,,,,,,3,,,69,0
120750,note_on,,0,0,1,,,,,,,,,,,,,,,3,,,62,127
120750,note_on,,7,0,1,,,,,,,,,,,,,,,3,,,71,127
120767,note_on,,17,0,1,,,,,,,,,,,,,,,3,,,57,0
120773,note_on,,6,0,1,,,,,,,,,,,,,,,3,,,71,0
120773,note_on,,0,0,1,,,,,,,,,,,,,,,3,,,62,0
120780,note_on,,0,0,1,,,,,,,,,,,,,,,3,,,64,127
120780,note_on,,7,0,1,,,,,,,,,,,,,,,3,,,72,127
120803,note_on,,23,0,1,,,,,,,,,,,,,,,3,,,72,0
120803,note_on,,0,0,1,,,,,,,,,,,,,,,3,,,64,0
120810,note_on,,7,0,1,,,,,,,,,,,,,,,3,,,71,127
120810,note_on,,0,0,1,,,,,,,,,,,,,,,3,,,62,127
120833,note_on,,0,0,1,,,,,,,,,,,,,,,3,,,62,0
120833,note_on,,23,0,1,,,,,,,,,,,,,,,3,,,71,0
120840,note_on,,7,0,1,,,,,,,,,,,,,,,3,,,69,127
120840,note_on,,0,0,1,,,,,,,,,,,,,,,3,,,60,127
120863,note_on,,0,0,1,,,,,,,,,,,,,,,3,,,60,0
120863,note_on,,23,0,1,,,,,,,,,,,,,,,3,,,69,0
120870,note_on,,7,0,1,,,,,,,,,,,,,,,3,,,68,127
120870,note_on,,0,0,1,,,,,,,,,,,,,,,3,,,59,127
120893,note_on,,23,0,1,,,,,,,,,,,,,,,3,,,68,0
120893,note_on,,0,0,1,,,,,,,,,,,,,,,3,,,59,0
120900,note_on,,7,0,1,,,,,,,,,,,,,,,3,,,69,127
120900,note_on,,0,0,1,,,,,,,,,,,,,,,3,,,60,127
120923,note_on,,23,0,1,,,,,,,,,,,,,,,3,,,60,0
120930,note_on,,7,0,1,,,,,,,,,,,,,,,3,,,62,127
120947,note_on,,17,0,1,,,,,,,,,,,,,,,3,,,69,0
120953,note_on,,6,0,1,,,,,,,,,,,,,,,3,,,62,0
120960,note_on,,7,0,1,,,,,,,,,,,,,,,3,,,72,127
120960,note_on,,0,0,1,,,,,,,,,,,,,,,3,,,64,127
120983,note_on,,23,0,1,,,,,,,,,,,,,,,3,,,64,0
120990,note_on,,7,0,1,,,,,,,,,,,,,,,3,,,62,127
121007,note_on,,17,0,1,,,,,,,,,,,,,,,3,,,72,0
121013,note_on,,6,0,1,,,,,,,,,,,,,,,3,,,62,0
121020,note_on,,0,0,1,,,,,,,,,,,,,,,3,,,60,127
121020,note_on,,7,0,1,,,,,,,,,,,,,,,3,,,64,127
121020,note_on,,0,0,1,,,,,,,,,,,,,,,3,,,57,127
121043,note_on,,23,0,1,,,,,,,,,,,,,,,3,,,60,0
121050,note_on,,7,0,1,,,,,,,,,,,,,,,3,,,58,127
121067,note_on,,17,0,1,,,,,,,,,,,,,,,3,,,64,0
121067,note_on,,0,0,1,,,,,,,,,,,,,,,3,,,57,0
121073,note_on,,6,0,1,,,,,,,,,,,,,,,3,,,58,0
121080,note_on,,7,0,1,,,,,,,,,,,,,,,3,,,65,127
121080,note_on,,0,0,1,,,,,,,,,,,,,,,3,,,57,127
121080,note_on,,0,0,1,,,,,,,,,,,,,,,3,,,53,127
121127,note_on,,47,0,1,,,,,,,,,,,,,,,3,,,65,0
121127,note_on,,0,0,1,,,,,,,,,,,,,,,3,,,53,0
121127,note_on,,0,0,1,,,,,,,,,,,,,,,3,,,57,0
121140,note_on,,13,0,1,,,,,,,,,,,,,,,3,,,57,127
121163,note_on,,23,0,1,,,,,,,,,,,,,,,3,,,57,0
121170,note_on,,7,0,1,,,,,,,,,,,,,,,3,,,55,127
121193,note_on,,23,0,1,,,,,,,,,,,,,,,3,,,55,0
121200,note_on,,7,0,1,,,,,,,,,,,,,,,3,,,57,127
121247,note_on,,47,0,1,,,,,,,,,,,,,,,3,,,57,0
121260,note_on,,13,0,1,,,,,,,,,,,,,,,3,,,53,127
121307,note_on,,47,0,1,,,,,,,,,,,,,,,3,,,53,0
121320,note_on,,13,0,1,,,,,,,,,,,,,,,3,,,57,127
121367,note_on,,47,0,1,,,,,,,,,,,,,,,3,,,57,0
121380,note_on,,13,0,1,,,,,,,,,,,,,,,3,,,65,127
121380,note_on,,0,0,1,,,,,,,,,,,,,,,3,,,57,127
121380,note_on,,0,0,1,,,,,,,,,,,,,,,3,,,53,127
121427,note_on,,47,0,1,,,,,,,,,,,,,,,3,,,65,0
121427,note_on,,0,0,1,,,,,,,,,,,,,,,3,,,57,0
121427,note_on,,0,0,1,,,,,,,,,,,,,,,3,,,53,0
121440,note_on,,0,0,1,,,,,,,,,,,,,,,3,,,55,127
121440,note_on,,13,0,1,,,,,,,,,,,,,,,3,,,64,127
121440,note_on,,0,0,1,,,,,,,,,,,,,,,3,,,60,127
121463,note_on,,23,0,1,,,,,,,,,,,,,,,3,,,64,0
121470,note_on,,7,0,1,,,,,,,,,,,,,,,3,,,65,127
121487,note_on,,17,0,1,,,,,,,,,,,,,,,3,,,55,0
121487,note_on,,0,0,1,,,,,,,,,,,,,,,3,,,60,0
121493,note_on,,6,0,1,,,,,,,,,,,,,,,3,,,65,0
121500,note_on,,7,0,1,,,,,,,,,,,,,,,3,,,67,127
121500,note_on,,0,0,1,,,,,,,,,,,,,,,3,,,52,127
121523,note_on,,23,0,1,,,,,,,,,,,,,,,3,,,67,0
121530,note_on,,7,0,1,,,,,,,,,,,,,,,3,,,65,127
121547,note_on,,17,0,1,,,,,,,,,,,,,,,3,,,52,0
121553,note_on,,6,0,1,,,,,,,,,,,,,,,3,,,65,0
121560,note_on,,7,0,1,,,,,,,,,,,,,,,3,,,64,127
121560,note_on,,0,0,1,,,,,,,,,,,,,,,3,,,53,127
121583,note_on,,23,0,1,,,,,,,,,,,,,,,3,,,64,0
121590,note_on,,7,0,1,,,,,,,,,,,,,,,3,,,62,127
121607,note_on,,17,0,1,,,,,,,,,,,,,,,3,,,53,0
121613,note_on,,6,0,1,,,,,,,,,,,,,,,3,,,62,0
121620,note_on,,0,0,1,,,,,,,,,,,,,,,3,,,55,127
121620,note_on,,7,0,1,,,,,,,,,,,,,,,3,,,64,127
121643,note_on,,23,0,1,,,,,,,,,,,,,,,3,,,64,0
121650,note_on,,7,0,1,,,,,,,,,,,,,,,3,,,65,127
121667,note_on,,17,0,1,,,,,,,,,,,,,,,3,,,55,0
121673,note_on,,6,0,1,,,,,,,,,,,,,,,3,,,65,0
121680,note_on,,0,0,1,,,,,,,,,,,,,,,3,,,52,127
121680,note_on,,7,0,1,,,,,,,,,,,,,,,3,,,67,127
121703,note_on,,23,0,1,,,,,,,,,,,,,,,3,,,67,0
121710,note_on,,7,0,1,,,,,,,,,,,,,,,3,,,65,127
121727,note_on,,17,0,1,,,,,,,,,,,,,,,3,,,52,0
121733,note_on,,6,0,1,,,,,,,,,,,,,,,3,,,65,0
121740,note_on,,0,0,1,,,,,,,,,,,,,,,3,,,54,127
121740,note_on,,7,0,1,,,,,,,,,,,,,,,3,,,64,127
121740,note_on,,0,0,1,,,,,,,,,,,,,,,3,,,60,127
121763,note_on,,23,0,1,,,,,,,,,,,,,,,3,,,64,0
121770,note_on,,7,0,1,,,,,,,,,,,,,,,3,,,66,127
121787,note_on,,0,0,1,,,,,,,,,,,,,,,3,,,60,0
121787,note_on,,17,0,1,,,,,,,,,,,,,,,3,,,54,0
121793,note_on,,6,0,1,,,,,,,,,,,,,,,3,,,66,0
121800,note_on,,0,0,1,,,,,,,,,,,,,,,3,,,55,127
121800,note_on,,0,0,1,,,,,,,,,,,,,,,3,,,59,127
121800,note_on,,7,0,1,,,,,,,,,,,,,,,3,,,62,127
121823,note_on,,23,0,1,,,,,,,,,,,,,,,3,,,59,0
121830,note_on,,7,0,1,,,,,,,,,,,,,,,3,,,62,127
121847,note_on,,0,0,1,,,,,,,,,,,,,,,3,,,55,0
121847,note_on,,17,0,1,,,,,,,,,,,,,,,3,,,62,0
121853,note_on,,6,0,1,,,,,,,,,,,,,,,3,,,62,0
121860,note_on,,0,0,1,,,,,,,,,,,,,,,3,,,59,127
121860,note_on,,7,0,1,,,,,,,,,,,,,,,3,,,67,127
121860,note_on,,0,0,1,,,,,,,,,,,,,,,3,,,55,127
121883,note_on,,23,0,1,,,,,,,,,,,,,,,3,,,55,0
121890,note_on,,7,0,1,,,,,,,,,,,,,,,3,,,62,127
121907,note_on,,17,0,1,,,,,,,,,,,,,,,3,,,67,0
121907,note_on,,0,0,1,,,,,,,,,,,,,,,3,,,59,0
121913,note_on,,6,0,1,,,,,,,,,,,,,,,3,,,62,0
121920,note_on,,0,0,1,,,,,,,,,,,,,,,3,,,60,127
121920,note_on,,0,0,1,,,,,,,,,,,,,,,3,,,57,127
121920,note_on,,7,0,1,,,,,,,,,,,,,,,3,,,66,127
121943,note_on,,23,0,1,,,,,,,,,,,,,,,3,,,57,0
121950,note_on,,7,0,1,,,,,,,,,,,,,,,3,,,62,127
121967,note_on,,17,0,1,,,,,,,,,,,,,,,3,,,66,0
121967,note_on,,0,0,1,,,,,,,,,,,,,,,3,,,60,0
121973,note_on,,6,0,1,,,,,,,,,,,,,,,3,,,62,0
121980,note_on,,7,0,1,,,,,,,,,,,,,,,3,,,67,127
121980,note_on,,0,0,1,,,,,,,,,,,,,,,3,,,62,127
121980,note_on,,0,0,1,,,,,,,,,,,,,,,3,,,59,127
122003,note_on,,23,0,1,,,,,,,,,,,,,,,3,,,59,0
122010,note_on,,7,0,1,,,,,,,,,,,,,,,3,,,62,127
122027,note_on,,17,0,1,,,,,,,,,,,,,,,3,,,67,0
122027,note_on,,0,0,1,,,,,,,,,,,,,,,3,,,62,0
122033,note_on,,6,0,1,,,,,,,,,,,,,,,3,,,62,0
122040,note_on,,7,0,1,,,,,,,,,,,,,,,3,,,66,127
122040,note_on,,0,0,1,,,,,,,,,,,,,,,3,,,60,127
122040,note_on,,0,0,1,,,,,,,,,,,,,,,3,,,57,127
122063,note_on,,23,0,1,,,,,,,,,,,,,,,3,,,57,0
122070,note_on,,7,0,1,,,,,,,,,,,,,,,3,,,62,127
122087,note_on,,0,0,1,,,,,,,,,,,,,,,3,,,60,0
122087,note_on,,17,0,1,,,,,,,,,,,,,,,3,,,66,0
122093,note_on,,6,0,1,,,,,,,,,,,,,,,3,,,62,0
122100,note_on,,7,0,1,,,,,,,,,,,,,,,3,,,67,127
122100,note_on,,0,0,1,,,,,,,,,,,,,,,3,,,62,127
122100,note_on,,0,0,1,,,,,,,,,,,,,,,3,,,59,127
122123,note_on,,23,0,1,,,,,,,,,,,,,,,3,,,59,0
122130,note_on,,7,0,1,,,,,,,,,,,,,,,3,,,62,127
122147,note_on,,17,0,1,,,,,,,,,,,,,,,3,,,67,0
122147,note_on,,0,0,1,,,,,,,,,,,,,,,3,,,62,0
122153,note_on,,6,0,1,,,,,,,,,,,,,,,3,,,62,0
122160,note_on,,0,0,1,,,,,,,,,,,,,,,3,,,60,127
122160,note_on,,0,0,1,,,,,,,,,,,,,,,3,,,64,127
122160,note_on,,7,0,1,,,,,,,,,,,,,,,3,,,69,127
122183,note_on,,23,0,1,,,,,,,,,,,,,,,3,,,60,0
122190,note_on,,7,0,1,,,,,,,,,,,,,,,3,,,62,127
122207,note_on,,17,0,1,,,,,,,,,,,,,,,3,,,69,0
122207,note_on,,0,0,1,,,,,,,,,,,,,,,3,,,64,0
122213,note_on,,6,0,1,,,,,,,,,,,,,,,3,,,62,0
122220,note_on,,0,0,1,,,,,,,,,,,,,,,3,,,62,127
122220,note_on,,0,0,1,,,,,,,,,,,,,,,3,,,59,127
122220,note_on,,7,0,1,,,,,,,,,,,,,,,3,,,67,127
122243,note_on,,23,0,1,,,,,,,,,,,,,,,3,,,59,0
122250,note_on,,7,0,1,,,,,,,,,,,,,,,3,,,62,127
122267,note_on,,17,0,1,,,,,,,,,,,,,,,3,,,67,0
122267,note_on,,0,0,1,,,,,,,,,,,,,,,3,,,62,0
122273,note_on,,6,0,1,,,,,,,,,,,,,,,3,,,62,0
122280,note_on,,7,0,1,,,,,,,,,,,,,,,3,,,66,127
122280,note_on,,0,0,1,,,,,,,,,,,,,,,3,,,60,127
122280,note_on,,0,0,1,,,,,,,,,,,,,,,3,,,57,127
122303,note_on,,23,0,1,,,,,,,,,,,,,,,3,,,57,0
122310,note_on,,7,0,1,,,,,,,,,,,,,,,3,,,62,127
122327,note_on,,17,0,1,,,,,,,,,,,,,,,3,,,66,0
122327,note_on,,0,0,1,,,,,,,,,,,,,,,3,,,60,0
122333,note_on,,6,0,1,,,,,,,,,,,,,,,3,,,62,0
122340,note_on,,7,0,1,,,,,,,,,,,,,,,3,,,67,127
122340,note_on,,0,0,1,,,,,,,,,,,,,,,3,,,62,127
122340,note_on,,0,0,1,,,,,,,,,,,,,,,3,,,59,127
122363,note_on,,23,0,1,,,,,,,,,,,,,,,3,,,59,0
122370,note_on,,7,0,1,,,,,,,,,,,,,,,3,,,62,127
122387,note_on,,0,0,1,,,,,,,,,,,,,,,3,,,62,0
122387,note_on,,17,0,1,,,,,,,,,,,,,,,3,,,67,0
122393,note_on,,6,0,1,,,,,,,,,,,,,,,3,,,62,0
122400,note_on,,0,0,1,,,,,,,,,,,,,,,3,,,55,127
122400,note_on,,0,0,1,,,,,,,,,,,,,,,3,,,62,127
122400,note_on,,7,0,1,,,,,,,,,,,,,,,3,,,71,127
122423,note_on,,23,0,1,,,,,,,,,,,,,,,3,,,55,0
122430,note_on,,7,0,1,,,,,,,,,,,,,,,3,,,62,127
122447,note_on,,0,0,1,,,,,,,,,,,,,,,3,,,62,0
122447,note_on,,17,0,1,,,,,,,,,,,,,,,3,,,71,0
122453,note_on,,6,0,1,,,,,,,,,,,,,,,3,,,62,0
122460,note_on,,0,0,1,,,,,,,,,,,,,,,3,,,53,127
122460,note_on,,0,0,1,,,,,,,,,,,,,,,3,,,59,127
122460,note_on,,7,0,1,,,,,,,,,,,,,,,3,,,67,127
122483,note_on,,23,0,1,,,,,,,,,,,,,,,3,,,53,0
122490,note_on,,7,0,1,,,,,,,,,,,,,,,3,,,62,127
122507,note_on,,17,0,1,,,,,,,,,,,,,,,3,,,67,0
122507,note_on,,0,0,1,,,,,,,,,,,,,,,3,,,59,0
122513,note_on,,6,0,1,,,,,,,,,,,,,,,3,,,62,0
122520,note_on,,7,0,1,,,,,,,,,,,,,,,3,,,72,127
122520,note_on,,0,0,1,,,,,,,,,,,,,,,3,,,55,127
122520,note_on,,0,0,1,,,,,,,,,,,,,,,3,,,52,127
122543,note_on,,23,0,1,,,,,,,,,,,,,,,3,,,72,0
122550,note_on,,7,0,1,,,,,,,,,,,,,,,3,,,67,127
122567,note_on,,0,0,1,,,,,,,,,,,,,,,3,,,52,0
122567,note_on,,17,0,1,,,,,,,,,,,,,,,3,,,55,0
122573,note_on,,6,0,1,,,,,,,,,,,,,,,3,,,67,0
122580,note_on,,0,0,1,,,,,,,,,,,,,,,3,,,60,127
122580,note_on,,7,0,1,,,,,,,,,,,,,,,3,,,72,127
122610,note_on,,30,0,1,,,,,,,,,,,,,,,3,,,64,127
122627,note_on,,0,0,1,,,,,,,,,,,,,,,3,,,60,0
122627,note_on,,17,0,1,,,,,,,,,,,,,,,3,,,72,0
122633,note_on,,6,0,1,,,,,,,,,,,,,,,3,,,64,0
122640,note_on,,0,0,1,,,,,,,,,,,,,,,3,,,54,127
122640,note_on,,7,0,1,,,,,,,,,,,,,,,3,,,62,127
122670,note_on,,30,0,1,,,,,,,,,,,,,,,3,,,72,127
122687,note_on,,17,0,1,,,,,,,,,,,,,,,3,,,62,0
122687,note_on,,0,0,1,,,,,,,,,,,,,,,3,,,54,0
122693,note_on,,6,0,1,,,,,,,,,,,,,,,3,,,72,0
122700,note_on,,0,0,1,,,,,,,,,,,,,,,3,,,55,127
122700,note_on,,7,0,1,,,,,,,,,,,,,,,3,,,62,127
122730,note_on,,30,0,1,,,,,,,,,,,,,,,3,,,71,127
122747,note_on,,17,0,1,,,,,,,,,,,,,,,3,,,62,0
122747,note_on,,0,0,1,,,,,,,,,,,,,,,3,,,55,0
122753,note_on,,6,0,1,,,,,,,,,,,,,,,3,,,71,0
122760,note_on,,7,0,1,,,,,,,,,,,,,,,3,,,69,127
122760,note_on,,0,0,1,,,,,,,,,,,,,,,3,,,57,127
122774,note_on,,14,0,1,,,,,,,,,,,,,,,3,,,57,0
122775,note_on,,1,0,1,,,,,,,,,,,,,,,3,,,55,127
122789,note_on,,14,0,1,,,,,,,,,,,,,,,3,,,55,0
122790,note_on,,0,0,1,,,,,,,,,,,,,,,3,,,57,127
122790,note_on,,1,0,1,,,,,,,,,,,,,,,3,,,60,127
122804,note_on,,14,0,1,,,,,,,,,,,,,,,3,,,57,0
122805,note_on,,1,0,1,,,,,,,,,,,,,,,3,,,55,127
122813,note_on,,8,0,1,,,,,,,,,,,,,,,3,,,60,0
122820,note_on,,7,0,1,,,,,,,,,,,,,,,3,,,62,127
122843,note_on,,23,0,1,,,,,,,,,,,,,,,3,,,62,0
122846,note_on,,3,0,1,,,,,,,,,,,,,,,3,,,55,0
122850,note_on,,4,0,1,,,,,,,,,,,,,,,3,,,57,127
122850,note_on,,0,0,1,,,,,,,,,,,,,,,3,,,54,127
122855,note_on,,5,0,1,,,,,,,,,,,,,,,3,,,69,0
122873,note_on,,18,0,1,,,,,,,,,,,,,,,3,,,57,0
122873,note_on,,0,0,1,,,,,,,,,,,,,,,3,,,54,0
122880,note_on,,7,0,1,,,,,,,,,,,,,,,3,,,59,127
122880,note_on,,0,0,1,,,,,,,,,,,,,,,3,,,55,127
122910,note_on,,30,0,1,,,,,,,,,,,,,,,3,,,62,127
122927,note_on,,17,0,1,,,,,,,,,,,,,,,3,,,59,0
122933,note_on,,6,0,1,,,,,,,,,,,,,,,3,,,62,0
122940,note_on,,7,0,1,,,,,,,,,,,,,,,3,,,67,127
122950,note_on,,10,0,1,,,,,,,,,,,,,,,3,,,55,0
122970,note_on,,20,0,1,,,,,,,,,,,,,,,3,,,57,127
122970,note_on,,0,0,1,,,,,,,,,,,,,,,3,,,54,127
122987,note_on,,17,0,1,,,,,,,,,,,,,,,3,,,67,0
122993,note_on,,0,0,1,,,,,,,,,,,,,,,3,,,54,0
122993,note_on,,6,0,1,,,,,,,,,,,,,,,3,,,57,0
123000,note_on,,7,0,1,,,,,,,,,,,,,,,3,,,59,127
123000,note_on,,0,0,1,,,,,,,,,,,,,,,3,,,55,127
123023,note_on,,23,0,1,,,,,,,,,,,,,,,3,,,55,0
123030,note_on,,0,0,1,,,,,,,,,,,,,,,3,,,50,127
123030,note_on,,7,0,1,,,,,,,,,,,,,,,3,,,66,127
123047,note_on,,17,0,1,,,,,,,,,,,,,,,3,,,59,0
123053,note_on,,0,0,1,,,,,,,,,,,,,,,3,,,50,0
123053,note_on,,6,0,1,,,,,,,,,,,,,,,3,,,66,0
123060,note_on,,0,0,1,,,,,,,,,,,,,,,3,,,52,127
123060,note_on,,7,0,1,,,,,,,,,,,,,,,3,,,67,127
123083,note_on,,23,0,1,,,,,,,,,,,,,,,3,,,52,0
123090,note_on,,0,0,1,,,,,,,,,,,,,,,3,,,47,127
123090,note_on,,7,0,1,,,,,,,,,,,,,,,3,,,62,127
123107,note_on,,17,0,1,,,,,,,,,,,,,,,3,,,67,0
123113,note_on,,0,0,1,,,,,,,,,,,,,,,3,,,47,0
123113,note_on,,6,0,1,,,,,,,,,,,,,,,3,,,62,0
123120,note_on,,0,0,1,,,,,,,,,,,,,,,3,,,48,127
123120,note_on,,7,0,1,,,,,,,,,,,,,,,3,,,67,127
123120,note_on,,0,0,1,,,,,,,,,,,,,,,3,,,64,127
123143,note_on,,23,0,1,,,,,,,,,,,,,,,3,,,64,0
123143,note_on,,0,0,1,,,,,,,,,,,,,,,3,,,48,0
123150,note_on,,7,0,1,,,,,,,,,,,,,,,3,,,60,127
123150,note_on,,0,0,1,,,,,,,,,,,,,,,3,,,45,127
123173,note_on,,0,0,1,,,,,,,,,,,,,,,3,,,45,0
123173,note_on,,23,0,1,,,,,,,,,,,,,,,3,,,60,0
123180,note_on,,0,0,1,,,,,,,,,,,,,,,3,,,50,127
123180,note_on,,7,0,1,,,,,,,,,,,,,,,3,,,57,127
123190,note_on,,10,0,1,,,,,,,,,,,,,,,3,,,67,0
123203,note_on,,13,0,1,,,,,,,,,,,,,,,3,,,57,0
123210,note_on,,0,0,1,,,,,,,,,,,,,,,3,,,62,127
123210,note_on,,7,0,1,,,,,,,,,,,,,,,3,,,66,127
123227,note_on,,17,0,1,,,,,,,,,,,,,,,3,,,50,0
123233,note_on,,0,0,1,,,,,,,,,,,,,,,3,,,62,0
123233,note_on,,6,0,1,,,,,,,,,,,,,,,3,,,66,0
123240,note_on,,7,0,1,,,,,,,,,,,,,,,3,,,67,127
123240,note_on,,0,0,1,,,,,,,,,,,,,,,3,,,59,127
123240,note_on,,0,0,1,,,,,,,,,,,,,,,3,,,43,127
123287,note_on,,47,0,1,,,,,,,,,,,,,,,3,,,67,0
123287,note_on,,0,0,1,,,,,,,,,,,,,,,3,,,43,0
123287,note_on,,0,0,1,,,,,,,,,,,,,,,3,,,59,0
123300,note_on,,13,0,1,,,,,,,,,,,,,,,3,,,71,127
123300,note_on,,0,0,1,,,,,,,,,,,,,,,3,,,62,127
123323,note_on,,23,0,1,,,,,,,,,,,,,,,3,,,71,0
123323,note_on,,0,0,1,,,,,,,,,,,,,,,3,,,62,0
123330,note_on,,7,0,1,,,,,,,,,,,,,,,3,,,69,127
123330,note_on,,0,0,1,,,,,,,,,,,,,,,3,,,60,127
123353,note_on,,23,0,1,,,,,,,,,,,,,,,3,,,69,0
123353,note_on,,0,0,1,,,,,,,,,,,,,,,3,,,60,0
123360,note_on,,7,0,1,,,,,,,,,,,,,,,3,,,71,127
123360,note_on,,0,0,1,,,,,,,,,,,,,,,3,,,62,127
123407,note_on,,0,0,1,,,,,,,,,,,,,,,3,,,62,0
123407,note_on,,47,0,1,,,,,,,,,,,,,,,3,,,71,0
123420,note_on,,13,0,1,,,,,,,,,,,,,,,3,,,67,127
123420,note_on,,0,0,1,,,,,,,,,,,,,,,3,,,59,127
123467,note_on,,47,0,1,,,,,,,,,,,,,,,3,,,67,0
123467,note_on,,0,0,1,,,,,,,,,,,,,,,3,,,59,0
123480,note_on,,13,0,1,,,,,,,,,,,,,,,3,,,71,127
123480,note_on,,0,0,1,,,,,,,,,,,,,,,3,,,62,127
123527,note_on,,0,0,1,,,,,,,,,,,,,,,3,,,62,0
123527,note_on,,47,0,1,,,,,,,,,,,,,,,3,,,71,0
123540,note_on,,0,0,1,,,,,,,,,,,,,,,3,,,59,127
123540,note_on,,0,0,1,,,,,,,,,,,,,,,3,,,62,127
123540,note_on,,13,0,1,,,,,,,,,,,,,,,3,,,67,127
123587,note_on,,0,0,1,,,,,,,,,,,,,,,3,,,59,0
123587,note_on,,47,0,1,,,,,,,,,,,,,,,3,,,67,0
123587,note_on,,0,0,1,,,,,,,,,,,,,,,3,,,62,0
123600,note_on,,13,0,1,,,,,,,,,,,,,,,3,,,72,127
123600,note_on,,0,0,1,,,,,,,,,,,,,,,3,,,67,127
123600,note_on,,0,0,1,,,,,,,,,,,,,,,3,,,64,127
123630,note_on,,30,0,1,,,,,,,,,,,,,,,3,,,52,127
123647,note_on,,17,0,1,,,,,,,,,,,,,,,3,,,72,0
123647,note_on,,0,0,1,,,,,,,,,,,,,,,3,,,67,0
123647,note_on,,0,0,1,,,,,,,,,,,,,,,3,,,64,0
123653,note_on,,6,0,1,,,,,,,,,,,,,,,3,,,52,0
123660,note_on,,7,0,1,,,,,,,,,,,,,,,3,,,55,127
123683,note_on,,23,0,1,,,,,,,,,,,,,,,3,,,55,0
123690,note_on,,7,0,1,,,,,,,,,,,,,,,3,,,50,127
123713,note_on,,23,0,1,,,,,,,,,,,,,,,3,,,50,0
123720,note_on,,7,0,1,,,,,,,,,,,,,,,3,,,52,127
123743,note_on,,23,0,1,,,,,,,,,,,,,,,3,,,52,0
123750,note_on,,7,0,1,,,,,,,,,,,,,,,3,,,47,127
123773,note_on,,23,0,1,,,,,,,,,,,,,,,3,,,47,0
123780,note_on,,7,0,1,,,,,,,,,,,,,,,3,,,48,127
123810,note_on,,30,0,1,,,,,,,,,,,,,,,3,,,64,127
123827,note_on,,17,0,1,,,,,,,,,,,,,,,3,,,48,0
123833,note_on,,6,0,1,,,,,,,,,,,,,,,3,,,64,0
123840,note_on,,7,0,1,,,,,,,,,,,,,,,3,,,67,127
123840,note_on,,0,0,1,,,,,,,,,,,,,,,3,,,52,127
123863,note_on,,23,0,1,,,,,,,,,,,,,,,3,,,67,0
123870,note_on,,7,0,1,,,,,,,,,,,,,,,3,,,62,127
123887,note_on,,17,0,1,,,,,,,,,,,,,,,3,,,52,0
123893,note_on,,6,0,1,,,,,,,,,,,,,,,3,,,62,0
123900,note_on,,7,0,1,,,,,,,,,,,,,,,3,,,72,127
123900,note_on,,0,0,1,,,,,,,,,,,,,,,3,,,67,127
123900,note_on,,0,0,1,,,,,,,,,,,,,,,3,,,64,127
123900,note_on,,0,0,1,,,,,,,,,,,,,,,3,,,48,127
123923,note_on,,23,0,1,,,,,,,,,,,,,,,3,,,64,0
123930,note_on,,7,0,1,,,,,,,,,,,,,,,3,,,60,127
123947,note_on,,17,0,1,,,,,,,,,,,,,,,3,,,72,0
123947,note_on,,0,0,1,,,,,,,,,,,,,,,3,,,67,0
123947,note_on,,0,0,1,,,,,,,,,,,,,,,3,,,48,0
123953,note_on,,6,0,1,,,,,,,,,,,,,,,3,,,60,0
123960,note_on,,7,0,1,,,,,,,,,,,,,,,3,,,71,127
123960,note_on,,0,0,1,,,,,,,,,,,,,,,3,,,67,127
123960,note_on,,0,0,1,,,,,,,,,,,,,,,3,,,55,127
123960,note_on,,0,0,1,,,,,,,,,,,,,,,3,,,62,127
124007,note_on,,47,0,1,,,,,,,,,,,,,,,3,,,71,0
124007,note_on,,0,0,1,,,,,,,,,,,,,,,3,,,67,0
124007,note_on,,0,0,1,,,,,,,,,,,,,,,3,,,55,0
124007,note_on,,0,0,1,,,,,,,,,,,,,,,3,,,62,0
124020,note_on,,13,0,1,,,,,,,,,,,,,,,3,,,74,127
124020,note_on,,0,0,1,,,,,,,,,,,,,,,3,,,71,127
124043,note_on,,0,0,1,,,,,,,,,,,,,,,3,,,71,0
124043,note_on,,23,0,1,,,,,,,,,,,,,,,3,,,74,0
124050,note_on,,0,0,1,,,,,,,,,,,,,,,3,,,69,127
124050,note_on,,7,0,1,,,,,,,,,,,,,,,3,,,72,127
124073,note_on,,0,0,1,,,,,,,,,,,,,,,3,,,69,0
124073,note_on,,23,0,1,,,,,,,,,,,,,,,3,,,72,0
124080,note_on,,0,0,1,,,,,,,,,,,,,,,3,,,71,127
124080,note_on,,7,0,1,,,,,,,,,,,,,,,3,,,74,127
124127,note_on,,0,0,1,,,,,,,,,,,,,,,3,,,71,0
124127,note_on,,47,0,1,,,,,,,,,,,,,,,3,,,74,0
124140,note_on,,0,0,1,,,,,,,,,,,,,,,3,,,67,127
124140,note_on,,13,0,1,,,,,,,,,,,,,,,3,,,71,127
124187,note_on,,47,0,1,,,,,,,,,,,,,,,3,,,71,0
124187,note_on,,0,0,1,,,,,,,,,,,,,,,3,,,67,0
124200,note_on,,13,0,1,,,,,,,,,,,,,,,3,,,74,127
124200,note_on,,0,0,1,,,,,,,,,,,,,,,3,,,67,127
124200,note_on,,0,0,1,,,,,,,,,,,,,,,3,,,59,127
124247,note_on,,0,0,1,,,,,,,,,,,,,,,3,,,67,0
124247,note_on,,0,0,1,,,,,,,,,,,,,,,3,,,59,0
124247,note_on,,47,0,1,,,,,,,,,,,,,,,3,,,74,0
124260,note_on,,0,0,1,,,,,,,,,,,,,,,3,,,71,127
124260,note_on,,0,0,1,,,,,,,,,,,,,,,3,,,55,127
124260,note_on,,13,0,1,,,,,,,,,,,,,,,3,,,71,127
124307,note_on,,47,0,1,,,,,,,,,,,,,,,3,,,71,0
124307,note_on,,0,0,1,,,,,,,,,,,,,,,3,,,71,0
124307,note_on,,0,0,1,,,,,,,,,,,,,,,3,,,55,0
124320,note_on,,13,0,1,,,,,,,,,,,,,,,3,,,76,127
124320,note_on,,0,0,1,,,,,,,,,,,,,,,3,,,67,127
124320,note_on,,0,0,1,,,,,,,,,,,,,,,3,,,52,127
124350,note_on,,30,0,1,,,,,,,,,,,,,,,3,,,55,127
124367,note_on,,17,0,1,,,,,,,,,,,,,,,3,,,76,0
124367,note_on,,0,0,1,,,,,,,,,,,,,,,3,,,67,0
124367,note_on,,0,0,1,,,,,,,,,,,,,,,3,,,52,0
124373,note_on,,6,0,1,,,,,,,,,,,,,,,3,,,55,0
124380,note_on,,7,0,1,,,,,,,,,,,,,,,3,,,57,127
124403,note_on,,23,0,1,,,,,,,,,,,,,,,3,,,57,0
124410,note_on,,7,0,1,,,,,,,,,,,,,,,3,,,54,127
124433,note_on,,23,0,1,,,,,,,,,,,,,,,3,,,54,0
124440,note_on,,7,0,1,,,,,,,,,,,,,,,3,,,55,127
124463,note_on,,23,0,1,,,,,,,,,,,,,,,3,,,55,0
124470,note_on,,7,0,1,,,,,,,,,,,,,,,3,,,51,127
124493,note_on,,23,0,1,,,,,,,,,,,,,,,3,,,51,0
124500,note_on,,7,0,1,,,,,,,,,,,,,,,3,,,52,127
124530,note_on,,30,0,1,,,,,,,,,,,,,,,3,,,67,127
124547,note_on,,17,0,1,,,,,,,,,,,,,,,3,,,52,0
124553,note_on,,6,0,1,,,,,,,,,,,,,,,3,,,67,0
124560,note_on,,0,0,1,,,,,,,,,,,,,,,3,,,55,127
124560,note_on,,7,0,1,,,,,,,,,,,,,,,3,,,71,127
124583,note_on,,23,0,1,,,,,,,,,,,,,,,3,,,71,0
124590,note_on,,7,0,1,,,,,,,,,,,,,,,3,,,66,127
124607,note_on,,17,0,1,,,,,,,,,,,,,,,3,,,55,0
124613,note_on,,6,0,1,,,,,,,,,,,,,,,3,,,66,0
124620,note_on,,0,0,1,,,,,,,,,,,,,,,3,,,67,127
124620,note_on,,0,0,1,,,,,,,,,,,,,,,3,,,71,127
124620,note_on,,7,0,1,,,,,,,,,,,,,,,3,,,76,127
124620,note_on,,0,0,1,,,,,,,,,,,,,,,3,,,52,127
124643,note_on,,23,0,1,,,,,,,,,,,,,,,3,,,67,0
124650,note_on,,7,0,1,,,,,,,,,,,,,,,3,,,64,127
124667,note_on,,17,0,1,,,,,,,,,,,,,,,3,,,76,0
124667,note_on,,0,0,1,,,,,,,,,,,,,,,3,,,71,0
124667,note_on,,0,0,1,,,,,,,,,,,,,,,3,,,52,0
124680,note_on,,0,0,1,,,,,,,,,,,,,,,3,,,69,127
124680,note_on,,0,0,1,,,,,,,,,,,,,,,3,,,57,127
124680,note_on,,13,0,1,,,,,,,,,,,,,,,3,,,72,127
124724,note_on,,44,0,1,,,,,,,,,,,,,,,3,,,64,0
124727,note_on,,0,0,1,,,,,,,,,,,,,,,3,,,57,0
124727,note_on,,0,0,1,,,,,,,,,,,,,,,3,,,69,0
124727,note_on,,3,0,1,,,,,,,,,,,,,,,3,,,72,0
124740,note_on,,13,0,1,,,,,,,,,,,,,,,3,,,76,127
124740,note_on,,0,0,1,,,,,,,,,,,,,,,3,,,60,127
124763,note_on,,0,0,1,,,,,,,,,,,,,,,3,,,60,0
124763,note_on,,23,0,1,,,,,,,,,,,,,,,3,,,76,0
124770,note_on,,0,0,1,,,,,,,,,,,,,,,3,,,59,127
124770,note_on,,7,0,1,,,,,,,,,,,,,,,3,,,74,127
124793,note_on,,0,0,1,,,,,,,,,,,,,,,3,,,59,0
124793,note_on,,23,0,1,,,,,,,,,,,,,,,3,,,74,0
124800,note_on,,7,0,1,,,,,,,,,,,,,,,3,,,76,127
124800,note_on,,0,0,1,,,,,,,,,,,,,,,3,,,60,127
124847,note_on,,0,0,1,,,,,,,,,,,,,,,3,,,60,0
124847,note_on,,47,0,1,,,,,,,,,,,,,,,3,,,76,0
124860,note_on,,13,0,1,,,,,,,,,,,,,,,3,,,72,127
124860,note_on,,0,0,1,,,,,,,,,,,,,,,3,,,57,127
124907,note_on,,47,0,1,,,,,,,,,,,,,,,3,,,72,0
124907,note_on,,0,0,1,,,,,,,,,,,,,,,3,,,57,0
124920,note_on,,13,0,1,,,,,,,,,,,,,,,3,,,76,127
124920,note_on,,0,0,1,,,,,,,,,,,,,,,3,,,60,127
124967,note_on,,47,0,1,,,,,,,,,,,,,,,3,,,76,0
124967,note_on,,0,0,1,,,,,,,,,,,,,,,3,,,60,0
124980,note_on,,13,0,1,,,,,,,,,,,,,,,3,,,72,127
124980,note_on,,0,0,1,,,,,,,,,,,,,,,3,,,57,127
124980,note_on,,0,0,1,,,,,,,,,,,,,,,3,,,64,127
125027,note_on,,47,0,1,,,,,,,,,,,,,,,3,,,72,0
125027,note_on,,0,0,1,,,,,,,,,,,,,,,3,,,64,0
125027,note_on,,0,0,1,,,,,,,,,,,,,,,3,,,57,0
125040,note_on,,13,0,1,,,,,,,,,,,,,,,3,,,79,127
125040,note_on,,0,0,1,,,,,,,,,,,,,,,3,,,62,127
125040,note_on,,0,0,1,,,,,,,,,,,,,,,3,,,59,127
125070,note_on,,30,0,1,,,,,,,,,,,,,,,3,,,59,127
125087,note_on,,17,0,1,,,,,,,,,,,,,,,3,,,79,0
125087,note_on,,0,0,1,,,,,,,,,,,,,,,3,,,59,0
125087,note_on,,0,0,1,,,,,,,,,,,,,,,3,,,62,0
125093,note_on,,6,0,1,,,,,,,,,,,,,,,3,,,59,0
125100,note_on,,7,0,1,,,,,,,,,,,,,,,3,,,62,127
125123,note_on,,23,0,1,,,,,,,,,,,,,,,3,,,62,0
125130,note_on,,7,0,1,,,,,,,,,,,,,,,3,,,57,127
125153,note_on,,23,0,1,,,,,,,,,,,,,,,3,,,57,0
125160,note_on,,7,0,1,,,,,,,,,,,,,,,3,,,59,127
125183,note_on,,23,0,1,,,,,,,,,,,,,,,3,,,59,0
125190,note_on,,7,0,1,,,,,,,,,,,,,,,3,,,54,127
125213,note_on,,23,0,1,,,,,,,,,,,,,,,3,,,54,0
125220,note_on,,7,0,1,,,,,,,,,,,,,,,3,,,55,127
125250,note_on,,30,0,1,,,,,,,,,,,,,,,3,,,71,127
125267,note_on,,17,0,1,,,,,,,,,,,,,,,3,,,55,0
125273,note_on,,6,0,1,,,,,,,,,,,,,,,3,,,71,0
125280,note_on,,7,0,1,,,,,,,,,,,,,,,3,,,74,127
125280,note_on,,0,0,1,,,,,,,,,,,,,,,3,,,59,127
125303,note_on,,23,0,1,,,,,,,,,,,,,,,3,,,74,0
125310,note_on,,7,0,1,,,,,,,,,,,,,,,3,,,69,127
125327,note_on,,17,0,1,,,,,,,,,,,,,,,3,,,59,0
125333,note_on,,6,0,1,,,,,,,,,,,,,,,3,,,69,0
125340,note_on,,7,0,1,,,,,,,,,,,,,,,3,,,79,127
125340,note_on,,0,0,1,,,,,,,,,,,,,,,3,,,71,127
125340,note_on,,0,0,1,,,,,,,,,,,,,,,3,,,55,127
125340,note_on,,0,0,1,,,,,,,,,,,,,,,3,,,74,127
125363,note_on,,23,0,1,,,,,,,,,,,,,,,3,,,71,0
125370,note_on,,7,0,1,,,,,,,,,,,,,,,3,,,67,127
125387,note_on,,17,0,1,,,,,,,,,,,,,,,3,,,79,0
125387,note_on,,0,0,1,,,,,,,,,,,,,,,3,,,74,0
125387,note_on,,0,0,1,,,,,,,,,,,,,,,3,,,55,0
125400,note_on,,0,0,1,,,,,,,,,,,,,,,3,,,60,127
125400,note_on,,13,0,1,,,,,,,,,,,,,,,3,,,76,127
125400,note_on,,0,0,1,,,,,,,,,,,,,,,3,,,72,127
125423,note_on,,23,0,1,,,,,,,,,,,,,,,3,,,76,0
125430,note_on,,7,0,1,,,,,,,,,,,,,,,3,,,79,127
125444,note_on,,14,0,1,,,,,,,,,,,,,,,3,,,67,0
125447,note_on,,3,0,1,,,,,,,,,,,,,,,3,,,72,0
125447,note_on,,0,0,1,,,,,,,,,,,,,,,3,,,60,0
125453,note_on,,6,0,1,,,,,,,,,,,,,,,3,,,79,0
125460,note_on,,7,0,1,,,,,,,,,,,,,,,3,,,72,127
125460,note_on,,0,0,1,,,,,,,,,,,,,,,3,,,64,127
125460,note_on,,0,0,1,,,,,,,,,,,,,,,3,,,67,127
125483,note_on,,23,0,1,,,,,,,,,,,,,,,3,,,72,0
125490,note_on,,7,0,1,,,,,,,,,,,,,,,3,,,79,127
125507,note_on,,17,0,1,,,,,,,,,,,,,,,3,,,67,0
125507,note_on,,0,0,1,,,,,,,,,,,,,,,3,,,64,0
125513,note_on,,6,0,1,,,,,,,,,,,,,,,3,,,79,0
125520,note_on,,0,0,1,,,,,,,,,,,,,,,3,,,60,127
125520,note_on,,7,0,1,,,,,,,,,,,,,,,3,,,74,127
125520,note_on,,0,0,1,,,,,,,,,,,,,,,3,,,71,127
125520,note_on,,0,0,1,,,,,,,,,,,,,,,3,,,65,127
125543,note_on,,23,0,1,,,,,,,,,,,,,,,3,,,74,0
125550,note_on,,7,0,1,,,,,,,,,,,,,,,3,,,79,127
125567,note_on,,17,0,1,,,,,,,,,,,,,,,3,,,71,0
125567,note_on,,0,0,1,,,,,,,,,,,,,,,3,,,65,0
125567,note_on,,0,0,1,,,,,,,,,,,,,,,3,,,60,0
125573,note_on,,6,0,1,,,,,,,,,,,,,,,3,,,79,0
125580,note_on,,7,0,1,,,,,,,,,,,,,,,3,,,76,127
125580,note_on,,0,0,1,,,,,,,,,,,,,,,3,,,60,127
125580,note_on,,0,0,1,,,,,,,,,,,,,,,3,,,72,127
125580,note_on,,0,0,1,,,,,,,,,,,,,,,3,,,67,127
125603,note_on,,23,0,1,,,,,,,,,,,,,,,3,,,76,0
125610,note_on,,7,0,1,,,,,,,,,,,,,,,3,,,79,127
125627,note_on,,17,0,1,,,,,,,,,,,,,,,3,,,72,0
125627,note_on,,0,0,1,,,,,,,,,,,,,,,3,,,67,0
125627,note_on,,0,0,1,,,,,,,,,,,,,,,3,,,60,0
125633,note_on,,6,0,1,,,,,,,,,,,,,,,3,,,79,0
125640,note_on,,7,0,1,,,,,,,,,,,,,,,3,,,74,127
125640,note_on,,0,0,1,,,,,,,,,,,,,,,3,,,71,127
125640,note_on,,0,0,1,,,,,,,,,,,,,,,3,,,65,127
125640,note_on,,0,0,1,,,,,,,,,,,,,,,3,,,48,127
125663,note_on,,23,0,1,,,,,,,,,,,,,,,3,,,74,0
125670,note_on,,7,0,1,,,,,,,,,,,,,,,3,,,79,127
125687,note_on,,17,0,1,,,,,,,,,,,,,,,3,,,71,0
125687,note_on,,0,0,1,,,,,,,,,,,,,,,3,,,65,0
125687,note_on,,0,0,1,,,,,,,,,,,,,,,3,,,48,0
125693,note_on,,6,0,1,,,,,,,,,,,,,,,3,,,79,0
125700,note_on,,7,0,1,,,,,,,,,,,,,,,3,,,76,127
125700,note_on,,0,0,1,,,,,,,,,,,,,,,3,,,72,127
125700,note_on,,0,0,1,,,,,,,,,,,,,,,3,,,60,127
125700,note_on,,0,0,1,,,,,,,,,,,,,,,3,,,67,127
125723,note_on,,23,0,1,,,,,,,,,,,,,,,3,,,76,0
125730,note_on,,7,0,1,,,,,,,,,,,,,,,3,,,79,127
125747,note_on,,17,0,1,,,,,,,,,,,,,,,3,,,72,0
125747,note_on,,0,0,1,,,,,,,,,,,,,,,3,,,67,0
125747,note_on,,0,0,1,,,,,,,,,,,,,,,3,,,60,0
125753,note_on,,6,0,1,,,,,,,,,,,,,,,3,,,79,0
125760,note_on,,0,0,1,,,,,,,,,,,,,,,3,,,60,127
125760,note_on,,0,0,1,,,,,,,,,,,,,,,3,,,69,127
125760,note_on,,7,0,1,,,,,,,,,,,,,,,3,,,77,127
125760,note_on,,0,0,1,,,,,,,,,,,,,,,3,,,72,127
125783,note_on,,23,0,1,,,,,,,,,,,,,,,3,,,77,0
125790,note_on,,7,0,1,,,,,,,,,,,,,,,3,,,79,127
125807,note_on,,17,0,1,,,,,,,,,,,,,,,3,,,72,0
125807,note_on,,0,0,1,,,,,,,,,,,,,,,3,,,69,0
125807,note_on,,0,0,1,,,,,,,,,,,,,,,3,,,60,0
125813,note_on,,6,0,1,,,,,,,,,,,,,,,3,,,79,0
125820,note_on,,7,0,1,,,,,,,,,,,,,,,3,,,76,127
125820,note_on,,0,0,1,,,,,,,,,,,,,,,3,,,72,127
125820,note_on,,0,0,1,,,,,,,,,,,,,,,3,,,48,127
125820,note_on,,0,0,1,,,,,,,,,,,,,,,3,,,67,127
125843,note_on,,23,0,1,,,,,,,,,,,,,,,3,,,76,0
125850,note_on,,7,0,1,,,,,,,,,,,,,,,3,,,79,127
125867,note_on,,17,0,1,,,,,,,,,,,,,,,3,,,72,0
125867,note_on,,0,0,1,,,,,,,,,,,,,,,3,,,67,0
125867,note_on,,0,0,1,,,,,,,,,,,,,,,3,,,48,0
125873,note_on,,6,0,1,,,,,,,,,,,,,,,3,,,79,0
125880,note_on,,7,0,1,,,,,,,,,,,,,,,3,,,74,127
125880,note_on,,0,0,1,,,,,,,,,,,,,,,3,,,65,127
125880,note_on,,0,0,1,,,,,,,,,,,,,,,3,,,60,127
125880,note_on,,0,0,1,,,,,,,,,,,,,,,3,,,71,127
125903,note_on,,23,0,1,,,,,,,,,,,,,,,3,,,74,0
125910,note_on,,7,0,1,,,,,,,,,,,,,,,3,,,79,127
125927,note_on,,17,0,1,,,,,,,,,,,,,,,3,,,71,0
125927,note_on,,0,0,1,,,,,,,,,,,,,,,3,,,65,0
125927,note_on,,0,0,1,,,,,,,,,,,,,,,3,,,60,0
125933,note_on,,6,0,1,,,,,,,,,,,,,,,3,,,79,0
125940,note_on,,7,0,1,,,,,,,,,,,,,,,3,,,76,127
125940,note_on,,0,0,1,,,,,,,,,,,,,,,3,,,67,127
125940,note_on,,0,0,1,,,,,,,,,,,,,,,3,,,60,127
125940,note_on,,0,0,1,,,,,,,,,,,,,,,3,,,72,127
125963,note_on,,23,0,1,,,,,,,,,,,,,,,3,,,76,0
125970,note_on,,7,0,1,,,,,,,,,,,,,,,3,,,79,127
125987,note_on,,0,0,1,,,,,,,,,,,,,,,3,,,60,0
125987,note_on,,0,0,1,,,,,,,,,,,,,,,3,,,67,0
125987,note_on,,17,0,1,,,,,,,,,,,,,,,3,,,72,0
125993,note_on,,6,0,1,,,,,,,,,,,,,,,3,,,79,0
126000,note_on,,0,0,1,,,,,,,,,,,,,,,3,,,48,127
126000,note_on,,0,0,1,,,,,,,,,,,,,,,3,,,64,127
126000,note_on,,0,0,1,,,,,,,,,,,,,,,3,,,67,127
126000,note_on,,7,0,1,,,,,,,,,,,,,,,3,,,72,127
126023,note_on,,23,0,1,,,,,,,,,,,,,,,3,,,72,0
126030,note_on,,7,0,1,,,,,,,,,,,,,,,3,,,79,127
126047,note_on,,0,0,1,,,,,,,,,,,,,,,3,,,48,0
126047,note_on,,0,0,1,,,,,,,,,,,,,,,3,,,64,0
126047,note_on,,17,0,1,,,,,,,,,,,,,,,3,,,67,0
126053,note_on,,6,0,1,,,,,,,,,,,,,,,3,,,79,0
126060,note_on,,7,0,1,,,,,,,,,,,,,,,3,,,70,127
126060,note_on,,0,0,1,,,,,,,,,,,,,,,3,,,67,127
126060,note_on,,0,0,1,,,,,,,,,,,,,,,3,,,60,127
126060,note_on,,0,0,1,,,,,,,,,,,,,,,3,,,52,127
126083,note_on,,23,0,1,,,,,,,,,,,,,,,3,,,70,0
126090,note_on,,7,0,1,,,,,,,,,,,,,,,3,,,79,127
126107,note_on,,17,0,1,,,,,,,,,,,,,,,3,,,67,0
126107,note_on,,0,0,1,,,,,,,,,,,,,,,3,,,60,0
126107,note_on,,0,0,1,,,,,,,,,,,,,,,3,,,52,0
126113,note_on,,6,0,1,,,,,,,,,,,,,,,3,,,79,0
126120,note_on,,7,0,1,,,,,,,,,,,,,,,3,,,69,127
126120,note_on,,0,0,1,,,,,,,,,,,,,,,3,,,65,127
126120,note_on,,0,0,1,,,,,,,,,,,,,,,3,,,60,127
126120,note_on,,0,0,1,,,,,,,,,,,,,,,3,,,53,127
126143,note_on,,23,0,1,,,,,,,,,,,,,,,3,,,65,0
126150,note_on,,7,0,1,,,,,,,,,,,,,,,3,,,67,127
126167,note_on,,17,0,1,,,,,,,,,,,,,,,3,,,69,0
126167,note_on,,0,0,1,,,,,,,,,,,,,,,3,,,53,0
126167,note_on,,0,0,1,,,,,,,,,,,,,,,3,,,60,0
126173,note_on,,6,0,1,,,,,,,,,,,,,,,3,,,67,0
126180,note_on,,0,0,1,,,,,,,,,,,,,,,3,,,65,127
126180,note_on,,0,0,1,,,,,,,,,,,,,,,3,,,62,127
126180,note_on,,0,0,1,,,,,,,,,,,,,,,3,,,50,127
126180,note_on,,7,0,1,,,,,,,,,,,,,,,3,,,77,127
126203,note_on,,23,0,1,,,,,,,,,,,,,,,3,,,65,0
126210,note_on,,7,0,1,,,,,,,,,,,,,,,3,,,64,127
126227,note_on,,17,0,1,,,,,,,,,,,,,,,3,,,77,0
126227,note_on,,0,0,1,,,,,,,,,,,,,,,3,,,62,0
126227,note_on,,0,0,1,,,,,,,,,,,,,,,3,,,50,0
126233,note_on,,6,0,1,,,,,,,,,,,,,,,3,,,64,0
126240,note_on,,0,0,1,,,,,,,,,,,,,,,3,,,62,127
126240,note_on,,0,0,1,,,,,,,,,,,,,,,3,,,62,127
126240,note_on,,0,0,1,,,,,,,,,,,,,,,3,,,55,127
126240,note_on,,7,0,1,,,,,,,,,,,,,,,3,,,71,127
126263,note_on,,23,0,1,,,,,,,,,,,,,,,3,,,62,0
126270,note_on,,7,0,1,,,,,,,,,,,,,,,3,,,65,127
126287,note_on,,17,0,1,,,,,,,,,,,,,,,3,,,71,0
126287,note_on,,0,0,1,,,,,,,,,,,,,,,3,,,62,0
126287,note_on,,0,0,1,,,,,,,,,,,,,,,3,,,55,0
126293,note_on,,6,0,1,,,,,,,,,,,,,,,3,,,65,0
126300,note_on,,7,0,1,,,,,,,,,,,,,,,3,,,72,127
126300,note_on,,0,0,1,,,,,,,,,,,,,,,3,,,64,127
126300,note_on,,0,0,1,,,,,,,,,,,,,,,3,,,60,127
126300,note_on,,0,0,1,,,,,,,,,,,,,,,3,,,48,127
126323,note_on,,23,0,1,,,,,,,,,,,,,,,3,,,64,0
126330,note_on,,7,0,1,,,,,,,,,,,,,,,3,,,65,127
126347,note_on,,17,0,1,,,,,,,,,,,,,,,3,,,72,0
126347,note_on,,0,0,1,,,,,,,,,,,,,,,3,,,60,0
126347,note_on,,0,0,1,,,,,,,,,,,,,,,3,,,48,0
126353,note_on,,6,0,1,,,,,,,,,,,,,,,3,,,65,0
126360,note_on,,0,0,1,,,,,,,,,,,,,,,3,,,55,127
126360,note_on,,0,0,1,,,,,,,,,,,,,,,3,,,62,127
126360,note_on,,0,0,1,,,,,,,,,,,,,,,3,,,67,127
126360,note_on,,7,0,1,,,,,,,,,,,,,,,3,,,74,127
126374,note_on,,14,0,1,,,,,,,,,,,,,,,3,,,74,0
126375,note_on,,1,0,1,,,,,,,,,,,,,,,3,,,72,127
126383,note_on,,8,0,1,,,,,,,,,,,,,,,3,,,62,0
126389,note_on,,6,0,1,,,,,,,,,,,,,,,3,,,72,0
126390,note_on,,0,0,1,,,,,,,,,,,,,,,3,,,65,127
126390,note_on,,1,0,1,,,,,,,,,,,,,,,3,,,74,127
126404,note_on,,14,0,1,,,,,,,,,,,,,,,3,,,74,0
126405,note_on,,1,0,1,,,,,,,,,,,,,,,3,,,72,127
126407,note_on,,2,0,1,,,,,,,,,,,,,,,3,,,55,0
126413,note_on,,6,0,1,,,,,,,,,,,,,,,3,,,65,0
126420,note_on,,0,0,1,,,,,,,,,,,,,,,3,,,43,127
126420,note_on,,7,0,1,,,,,,,,,,,,,,,3,,,64,127
126443,note_on,,23,0,1,,,,,,,,,,,,,,,3,,,64,0
126446,note_on,,3,0,1,,,,,,,,,,,,,,,3,,,72,0
126450,note_on,,4,0,1,,,,,,,,,,,,,,,3,,,71,127
126450,note_on,,0,0,1,,,,,,,,,,,,,,,3,,,62,127
126455,note_on,,5,0,1,,,,,,,,,,,,,,,3,,,67,0
126467,note_on,,12,0,1,,,,,,,,,,,,,,,3,,,43,0
126473,note_on,,0,0,1,,,,,,,,,,,,,,,3,,,62,0
126473,note_on,,6,0,1,,,,,,,,,,,,,,,3,,,71,0
126480,note_on,,0,0,1,,,,,,,,,,,,,,,3,,,64,127
126480,note_on,,7,0,1,,,,,,,,,,,,,,,3,,,72,127
126480,note_on,,0,0,1,,,,,,,,,,,,,,,3,,,48,127
126480,note_on,,0,0,1,,,,,,,,,,,,,,,3,,,67,127
126503,note_on,,23,0,1,,,,,,,,,,,,,,,3,,,64,0
126510,note_on,,7,0,1,,,,,,,,,,,,,,,3,,,65,127
126527,note_on,,0,0,1,,,,,,,,,,,,,,,3,,,48,0
126527,note_on,,17,0,1,,,,,,,,,,,,,,,3,,,72,0
126527,note_on,,0,0,1,,,,,,,,,,,,,,,3,,,67,0
126533,note_on,,6,0,1,,,,,,,,,,,,,,,3,,,65,0
126540,note_on,,7,0,1,,,,,,,,,,,,,,,3,,,76,127
126540,note_on,,0,0,1,,,,,,,,,,,,,,,3,,,67,127
126563,note_on,,23,0,1,,,,,,,,,,,,,,,3,,,67,0
126570,note_on,,7,0,1,,,,,,,,,,,,,,,3,,,65,127
126587,note_on,,17,0,1,,,,,,,,,,,,,,,3,,,76,0
126593,note_on,,6,0,1,,,,,,,,,,,,,,,3,,,65,0
126600,note_on,,7,0,1,,,,,,,,,,,,,,,3,,,71,127
126600,note_on,,0,0,1,,,,,,,,,,,,,,,3,,,64,127
126600,note_on,,0,0,1,,,,,,,,,,,,,,,3,,,55,127
126623,note_on,,23,0,1,,,,,,,,,,,,,,,3,,,64,0
126630,note_on,,7,0,1,,,,,,,,,,,,,,,3,,,62,127
126647,note_on,,17,0,1,,,,,,,,,,,,,,,3,,,71,0
126647,note_on,,0,0,1,,,,,,,,,,,,,,,3,,,55,0
126653,note_on,,6,0,1,,,,,,,,,,,,,,,3,,,62,0
126660,note_on,,7,0,1,,,,,,,,,,,,,,,3,,,72,127
126660,note_on,,0,0,1,,,,,,,,,,,,,,,3,,,64,127
126660,note_on,,0,0,1,,,,,,,,,,,,,,,3,,,48,127
126683,note_on,,23,0,1,,,,,,,,,,,,,,,3,,,64,0
126690,note_on,,7,0,1,,,,,,,,,,,,,,,3,,,67,127
126707,note_on,,17,0,1,,,,,,,,,,,,,,,3,,,72,0
126707,note_on,,0,0,1,,,,,,,,,,,,,,,3,,,48,0
126713,note_on,,6,0,1,,,,,,,,,,,,,,,3,,,67,0
126720,note_on,,7,0,1,,,,,,,,,,,,,,,3,,,76,127
126720,note_on,,0,0,1,,,,,,,,,,,,,,,3,,,72,127
126743,note_on,,23,0,1,,,,,,,,,,,,,,,3,,,72,0
126750,note_on,,7,0,1,,,,,,,,,,,,,,,3,,,71,127
126767,note_on,,17,0,1,,,,,,,,,,,,,,,3,,,76,0
126773,note_on,,6,0,1,,,,,,,,,,,,,,,3,,,71,0
126780,note_on,,7,0,1,,,,,,,,,,,,,,,3,,,73,127
126780,note_on,,0,0,1,,,,,,,,,,,,,,,3,,,69,127
126780,note_on,,0,0,1,,,,,,,,,,,,,,,3,,,57,127
126803,note_on,,23,0,1,,,,,,,,,,,,,,,3,,,69,0
126810,note_on,,7,0,1,,,,,,,,,,,,,,,3,,,67,127
126827,note_on,,0,0,1,,,,,,,,,,,,,,,3,,,57,0
126827,note_on,,17,0,1,,,,,,,,,,,,,,,3,,,73,0
126833,note_on,,6,0,1,,,,,,,,,,,,,,,3,,,67,0
126840,note_on,,7,0,1,,,,,,,,,,,,,,,3,,,74,127
126840,note_on,,0,0,1,,,,,,,,,,,,,,,3,,,65,127
126840,note_on,,0,0,1,,,,,,,,,,,,,,,3,,,50,127
126863,note_on,,23,0,1,,,,,,,,,,,,,,,3,,,65,0
126870,note_on,,7,0,1,,,,,,,,,,,,,,,3,,,67,127
126887,note_on,,0,0,1,,,,,,,,,,,,,,,3,,,50,0
126887,note_on,,17,0,1,,,,,,,,,,,,,,,3,,,74,0
126893,note_on,,6,0,1,,,,,,,,,,,,,,,3,,,67,0
126900,note_on,,7,0,1,,,,,,,,,,,,,,,3,,,77,127
126900,note_on,,0,0,1,,,,,,,,,,,,,,,3,,,69,127
126923,note_on,,23,0,1,,,,,,,,,,,,,,,3,,,69,0
126930,note_on,,7,0,1,,,,,,,,,,,,,,,3,,,67,127
126947,note_on,,17,0,1,,,,,,,,,,,,,,,3,,,77,0
126953,note_on,,6,0,1,,,,,,,,,,,,,,,3,,,67,0
126960,note_on,,7,0,1,,,,,,,,,,,,,,,3,,,73,127
126960,note_on,,0,0,1,,,,,,,,,,,,,,,3,,,57,127
126960,note_on,,0,0,1,,,,,,,,,,,,,,,3,,,65,127
126983,note_on,,23,0,1,,,,,,,,,,,,,,,3,,,65,0
126990,note_on,,7,0,1,,,,,,,,,,,,,,,3,,,64,127
127007,note_on,,0,0,1,,,,,,,,,,,,,,,3,,,57,0
127007,note_on,,17,0,1,,,,,,,,,,,,,,,3,,,73,0
127013,note_on,,6,0,1,,,,,,,,,,,,,,,3,,,64,0
127020,note_on,,0,0,1,,,,,,,,,,,,,,,3,,,50,127
127020,note_on,,0,0,1,,,,,,,,,,,,,,,3,,,65,127
127020,note_on,,7,0,1,,,,,,,,,,,,,,,3,,,74,127
127043,note_on,,23,0,1,,,,,,,,,,,,,,,3,,,65,0
127050,note_on,,7,0,1,,,,,,,,,,,,,,,3,,,69,127
127067,note_on,,0,0,1,,,,,,,,,,,,,,,3,,,50,0
127067,note_on,,17,0,1,,,,,,,,,,,,,,,3,,,74,0
127073,note_on,,6,0,1,,,,,,,,,,,,,,,3,,,69,0
127080,note_on,,7,0,1,,,,,,,,,,,,,,,3,,,77,127
127080,note_on,,0,0,1,,,,,,,,,,,,,,,3,,,74,127
127103,note_on,,23,0,1,,,,,,,,,,,,,,,3,,,74,0
127110,note_on,,7,0,1,,,,,,,,,,,,,,,3,,,72,127
127127,note_on,,17,0,1,,,,,,,,,,,,,,,3,,,77,0
127133,note_on,,6,0,1,,,,,,,,,,,,,,,3,,,72,0
127140,note_on,,0,0,1,,,,,,,,,,,,,,,3,,,59,127
127140,note_on,,0,0,1,,,,,,,,,,,,,,,3,,,71,127
127140,note_on,,7,0,1,,,,,,,,,,,,,,,3,,,75,127
127163,note_on,,23,0,1,,,,,,,,,,,,,,,3,,,71,0
127170,note_on,,7,0,1,,,,,,,,,,,,,,,3,,,69,127
127187,note_on,,0,0,1,,,,,,,,,,,,,,,3,,,59,0
127187,note_on,,17,0,1,,,,,,,,,,,,,,,3,,,75,0
127193,note_on,,6,0,1,,,,,,,,,,,,,,,3,,,69,0
127200,note_on,,0,0,1,,,,,,,,,,,,,,,3,,,52,127
127200,note_on,,0,0,1,,,,,,,,,,,,,,,3,,,67,127
127200,note_on,,7,0,1,,,,,,,,,,,,,,,3,,,76,127
127223,note_on,,23,0,1,,,,,,,,,,,,,,,3,,,67,0
127230,note_on,,7,0,1,,,,,,,,,,,,,,,3,,,69,127
127247,note_on,,0,0,1,,,,,,,,,,,,,,,3,,,52,0
127247,note_on,,17,0,1,,,,,,,,,,,,,,,3,,,76,0
127253,note_on,,6,0,1,,,,,,,,,,,,,,,3,,,69,0
127260,note_on,,7,0,1,,,,,,,,,,,,,,,3,,,79,127
127260,note_on,,0,0,1,,,,,,,,,,,,,,,3,,,71,127
127283,note_on,,23,0,1,,,,,,,,,,,,,,,3,,,71,0
127290,note_on,,7,0,1,,,,,,,,,,,,,,,3,,,69,127
127307,note_on,,17,0,1,,,,,,,,,,,,,,,3,,,79,0
127313,note_on,,6,0,1,,,,,,,,,,,,,,,3,,,69,0
127320,note_on,,7,0,1,,,,,,,,,,,,,,,3,,,75,127
127320,note_on,,0,0,1,,,,,,,,,,,,,,,3,,,67,127
127320,note_on,,0,0,1,,,,,,,,,,,,,,,3,,,59,127
127343,note_on,,23,0,1,,,,,,,,,,,,,,,3,,,67,0
127350,note_on,,7,0,1,,,,,,,,,,,,,,,3,,,66,127
127367,note_on,,17,0,1,,,,,,,,,,,,,,,3,,,75,0
127367,note_on,,0,0,1,,,,,,,,,,,,,,,3,,,59,0
127373,note_on,,6,0,1,,,,,,,,,,,,,,,3,,,66,0
127380,note_on,,7,0,1,,,,,,,,,,,,,,,3,,,76,127
127380,note_on,,0,0,1,,,,,,,,,,,,,,,3,,,67,127
127380,note_on,,0,0,1,,,,,,,,,,,,,,,3,,,52,127
127403,note_on,,23,0,1,,,,,,,,,,,,,,,3,,,67,0
127410,note_on,,7,0,1,,,,,,,,,,,,,,,3,,,71,127
127427,note_on,,17,0,1,,,,,,,,,,,,,,,3,,,76,0
127427,note_on,,0,0,1,,,,,,,,,,,,,,,3,,,52,0
127433,note_on,,6,0,1,,,,,,,,,,,,,,,3,,,71,0
127440,note_on,,7,0,1,,,,,,,,,,,,,,,3,,,79,127
127440,note_on,,0,0,1,,,,,,,,,,,,,,,3,,,76,127
127463,note_on,,23,0,1,,,,,,,,,,,,,,,3,,,76,0
127470,note_on,,7,0,1,,,,,,,,,,,,,,,3,,,74,127
127487,note_on,,17,0,1,,,,,,,,,,,,,,,3,,,79,0
127493,note_on,,6,0,1,,,,,,,,,,,,,,,3,,,74,0
127500,note_on,,7,0,1,,,,,,,,,,,,,,,3,,,76,127
127500,note_on,,0,0,1,,,,,,,,,,,,,,,3,,,72,127
127500,note_on,,0,0,1,,,,,,,,,,,,,,,3,,,55,127
127523,note_on,,23,0,1,,,,,,,,,,,,,,,3,,,72,0
127530,note_on,,7,0,1,,,,,,,,,,,,,,,3,,,71,127
127547,note_on,,17,0,1,,,,,,,,,,,,,,,3,,,76,0
127547,note_on,,0,0,1,,,,,,,,,,,,,,,3,,,55,0
127553,note_on,,6,0,1,,,,,,,,,,,,,,,3,,,71,0
127560,note_on,,7,0,1,,,,,,,,,,,,,,,3,,,78,127
127560,note_on,,0,0,1,,,,,,,,,,,,,,,3,,,57,127
127560,note_on,,0,0,1,,,,,,,,,,,,,,,3,,,69,127
127583,note_on,,23,0,1,,,,,,,,,,,,,,,3,,,78,0
127583,note_on,,0,0,1,,,,,,,,,,,,,,,3,,,69,0
127590,note_on,,7,0,1,,,,,,,,,,,,,,,3,,,79,127
127590,note_on,,0,0,1,,,,,,,,,,,,,,,3,,,71,127
127607,note_on,,17,0,1,,,,,,,,,,,,,,,3,,,57,0
127613,note_on,,6,0,1,,,,,,,,,,,,,,,3,,,79,0
127613,note_on,,0,0,1,,,,,,,,,,,,,,,3,,,71,0
127620,note_on,,7,0,1,,,,,,,,,,,,,,,3,,,81,127
127620,note_on,,0,0,1,,,,,,,,,,,,,,,3,,,72,127
127643,note_on,,23,0,1,,,,,,,,,,,,,,,3,,,81,0
127643,note_on,,0,0,1,,,,,,,,,,,,,,,3,,,72,0
127650,note_on,,7,0,1,,,,,,,,,,,,,,,3,,,79,127
127650,note_on,,0,0,1,,,,,,,,,,,,,,,3,,,71,127
127673,note_on,,23,0,1,,,,,,,,,,,,,,,3,,,79,0
127673,note_on,,0,0,1,,,,,,,,,,,,,,,3,,,71,0
127680,note_on,,7,0,1,,,,,,,,,,,,,,,3,,,78,127
127680,note_on,,0,0,1,,,,,,,,,,,,,,,3,,,69,127
127680,note_on,,0,0,1,,,,,,,,,,,,,,,3,,,57,127
127703,note_on,,23,0,1,,,,,,,,,,,,,,,3,,,78,0
127703,note_on,,0,0,1,,,,,,,,,,,,,,,3,,,69,0
127710,note_on,,7,0,1,,,,,,,,,,,,,,,3,,,76,127
127710,note_on,,0,0,1,,,,,,,,,,,,,,,3,,,67,127
127727,note_on,,17,0,1,,,,,,,,,,,,,,,3,,,57,0
127733,note_on,,6,0,1,,,,,,,,,,,,,,,3,,,76,0
127733,note_on,,0,0,1,,,,,,,,,,,,,,,3,,,67,0
127740,note_on,,7,0,1,,,,,,,,,,,,,,,3,,,75,127
127740,note_on,,0,0,1,,,,,,,,,,,,,,,3,,,66,127
127740,note_on,,0,0,1,,,,,,,,,,,,,,,3,,,59,127
127763,note_on,,23,0,1,,,,,,,,,,,,,,,3,,,59,0
127770,note_on,,7,0,1,,,,,,,,,,,,,,,3,,,60,127
127787,note_on,,17,0,1,,,,,,,,,,,,,,,3,,,75,0
127787,note_on,,0,0,1,,,,,,,,,,,,,,,3,,,66,0
127793,note_on,,6,0,1,,,,,,,,,,,,,,,3,,,60,0
127800,note_on,,7,0,1,,,,,,,,,,,,,,,3,,,57,127
127823,note_on,,23,0,1,,,,,,,,,,,,,,,3,,,57,0
127830,note_on,,7,0,1,,,,,,,,,,,,,,,3,,,59,127
127853,note_on,,23,0,1,,,,,,,,,,,,,,,3,,,59,0
127860,note_on,,0,0,1,,,,,,,,,,,,,,,3,,,71,127
127860,note_on,,0,0,1,,,,,,,,,,,,,,,3,,,55,127
127860,note_on,,7,0,1,,,,,,,,,,,,,,,3,,,76,127
127883,note_on,,23,0,1,,,,,,,,,,,,,,,3,,,55,0
127890,note_on,,7,0,1,,,,,,,,,,,,,,,3,,,59,127
127907,note_on,,0,0,1,,,,,,,,,,,,,,,3,,,71,0
127907,note_on,,17,0,1,,,,,,,,,,,,,,,3,,,76,0
127913,note_on,,6,0,1,,,,,,,,,,,,,,,3,,,59,0
127920,note_on,,0,0,1,,,,,,,,,,,,,,,3,,,57,127
127920,note_on,,7,0,1,,,,,,,,,,,,,,,3,,,77,127
127920,note_on,,0,0,1,,,,,,,,,,,,,,,3,,,72,127
127943,note_on,,23,0,1,,,,,,,,,,,,,,,3,,,57,0
127950,note_on,,7,0,1,,,,,,,,,,,,,,,3,,,59,127
127967,note_on,,17,0,1,,,,,,,,,,,,,,,3,,,77,0
127967,note_on,,0,0,1,,,,,,,,,,,,,,,3,,,72,0
127973,note_on,,6,0,1,,,,,,,,,,,,,,,3,,,59,0
127980,note_on,,7,0,1,,,,,,,,,,,,,,,3,,,76,127
127980,note_on,,0,0,1,,,,,,,,,,,,,,,3,,,71,127
127980,note_on,,0,0,1,,,,,,,,,,,,,,,3,,,55,127
128003,note_on,,23,0,1,,,,,,,,,,,,,,,3,,,55,0
128010,note_on,,7,0,1,,,,,,,,,,,,,,,3,,,57,127
128027,note_on,,17,0,1,,,,,,,,,,,,,,,3,,,76,0
128027,note_on,,0,0,1,,,,,,,,,,,,,,,3,,,71,0
128033,note_on,,6,0,1,,,,,,,,,,,,,,,3,,,57,0
128040,note_on,,7,0,1,,,,,,,,,,,,,,,3,,,75,127
128040,note_on,,0,0,1,,,,,,,,,,,,,,,3,,,69,127
128040,note_on,,0,0,1,,,,,,,,,,,,,,,3,,,54,127
128063,note_on,,23,0,1,,,,,,,,,,,,,,,3,,,54,0
128070,note_on,,7,0,1,,,,,,,,,,,,,,,3,,,57,127
128087,note_on,,17,0,1,,,,,,,,,,,,,,,3,,,75,0
128087,note_on,,0,0,1,,,,,,,,,,,,,,,3,,,69,0
128093,note_on,,6,0,1,,,,,,,,,,,,,,,3,,,57,0
128100,note_on,,7,0,1,,,,,,,,,,,,,,,3,,,76,127
128100,note_on,,0,0,1,,,,,,,,,,,,,,,3,,,71,127
128100,note_on,,0,0,1,,,,,,,,,,,,,,,3,,,55,127
128123,note_on,,23,0,1,,,,,,,,,,,,,,,3,,,55,0
128130,note_on,,7,0,1,,,,,,,,,,,,,,,3,,,57,127
128147,note_on,,17,0,1,,,,,,,,,,,,,,,3,,,76,0
128147,note_on,,0,0,1,,,,,,,,,,,,,,,3,,,71,0
128153,note_on,,6,0,1,,,,,,,,,,,,,,,3,,,57,0
128160,note_on,,0,0,1,,,,,,,,,,,,,,,3,,,54,127
128160,note_on,,7,0,1,,,,,,,,,,,,,,,3,,,75,127
128160,note_on,,0,0,1,,,,,,,,,,,,,,,3,,,69,127
128183,note_on,,23,0,1,,,,,,,,,,,,,,,3,,,69,0
128183,note_on,,0,0,1,,,,,,,,,,,,,,,3,,,54,0
128190,note_on,,7,0,1,,,,,,,,,,,,,,,3,,,72,127
128190,note_on,,0,0,1,,,,,,,,,,,,,,,3,,,57,127
128207,note_on,,17,0,1,,,,,,,,,,,,,,,3,,,75,0
128213,note_on,,6,0,1,,,,,,,,,,,,,,,3,,,72,0
128213,note_on,,0,0,1,,,,,,,,,,,,,,,3,,,57,0
128220,note_on,,0,0,1,,,,,,,,,,,,,,,3,,,55,127
128220,note_on,,0,0,1,,,,,,,,,,,,,,,3,,,71,127
128220,note_on,,7,0,1,,,,,,,,,,,,,,,3,,,76,127
128243,note_on,,23,0,1,,,,,,,,,,,,,,,3,,,76,0
128243,note_on,,0,0,1,,,,,,,,,,,,,,,3,,,55,0
128250,note_on,,0,0,1,,,,,,,,,,,,,,,3,,,59,127
128250,note_on,,7,0,1,,,,,,,,,,,,,,,3,,,79,127
128267,note_on,,17,0,1,,,,,,,,,,,,,,,3,,,71,0
128273,note_on,,0,0,1,,,,,,,,,,,,,,,3,,,59,0
128273,note_on,,6,0,1,,,,,,,,,,,,,,,3,,,79,0
128280,note_on,,0,0,1,,,,,,,,,,,,,,,3,,,57,127
128280,note_on,,0,0,1,,,,,,,,,,,,,,,3,,,72,127
128280,note_on,,7,0,1,,,,,,,,,,,,,,,3,,,78,127
128303,note_on,,0,0,1,,,,,,,,,,,,,,,3,,,57,0
128303,note_on,,23,0,1,,,,,,,,,,,,,,,3,,,78,0
128310,note_on,,0,0,1,,,,,,,,,,,,,,,3,,,60,127
128310,note_on,,7,0,1,,,,,,,,,,,,,,,3,,,81,127
128327,note_on,,17,0,1,,,,,,,,,,,,,,,3,,,72,0
128333,note_on,,0,0,1,,,,,,,,,,,,,,,3,,,60,0
128333,note_on,,6,0,1,,,,,,,,,,,,,,,3,,,81,0
128340,note_on,,0,0,1,,,,,,,,,,,,,,,3,,,59,127
128340,note_on,,0,0,1,,,,,,,,,,,,,,,3,,,66,127
128340,note_on,,7,0,1,,,,,,,,,,,,,,,3,,,75,127
128363,note_on,,23,0,1,,,,,,,,,,,,,,,3,,,59,0
128370,note_on,,7,0,1,,,,,,,,,,,,,,,3,,,60,127
128393,note_on,,23,0,1,,,,,,,,,,,,,,,3,,,60,0
128400,note_on,,7,0,1,,,,,,,,,,,,,,,3,,,57,127
128410,note_on,,0,0,1,,,,,,,,,,,,,,,3,,,66,0
128410,note_on,,10,0,1,,,,,,,,,,,,,,,3,,,75,0
128423,note_on,,13,0,1,,,,,,,,,,,,,,,3,,,57,0
128430,note_on,,7,0,1,,,,,,,,,,,,,,,3,,,75,127
128430,note_on,,0,0,1,,,,,,,,,,,,,,,3,,,66,127
128430,note_on,,0,0,1,,,,,,,,,,,,,,,3,,,59,127
128453,note_on,,0,0,1,,,,,,,,,,,,,,,3,,,59,0
128453,note_on,,0,0,1,,,,,,,,,,,,,,,3,,,66,0
128453,note_on,,23,0,1,,,,,,,,,,,,,,,3,,,75,0
128460,note_on,,0,0,1,,,,,,,,,,,,,,,3,,,55,127
128460,note_on,,0,0,1,,,,,,,,,,,,,,,3,,,71,127
128460,note_on,,7,0,1,,,,,,,,,,,,,,,3,,,76,127
128483,note_on,,23,0,1,,,,,,,,,,,,,,,3,,,76,0
128483,note_on,,0,0,1,,,,,,,,,,,,,,,3,,,55,0
128483,note_on,,0,0,1,,,,,,,,,,,,,,,3,,,71,0
128490,note_on,,7,0,1,,,,,,,,,,,,,,,3,,,78,127
128490,note_on,,0,0,1,,,,,,,,,,,,,,,3,,,72,127
128490,note_on,,0,0,1,,,,,,,,,,,,,,,3,,,57,127
128513,note_on,,0,0,1,,,,,,,,,,,,,,,3,,,57,0
128513,note_on,,23,0,1,,,,,,,,,,,,,,,3,,,78,0
128513,note_on,,0,0,1,,,,,,,,,,,,,,,3,,,72,0
128520,note_on,,7,0,1,,,,,,,,,,,,,,,3,,,75,127
128520,note_on,,0,0,1,,,,,,,,,,,,,,,3,,,66,127
128520,note_on,,0,0,1,,,,,,,,,,,,,,,3,,,59,127
128567,note_on,,47,0,1,,,,,,,,,,,,,,,3,,,59,0
128580,note_on,,13,0,1,,,,,,,,,,,,,,,3,,,47,127
128590,note_on,,10,0,1,,,,,,,,,,,,,,,3,,,75,0
128590,note_on,,0,0,1,,,,,,,,,,,,,,,3,,,66,0
128610,note_on,,20,0,1,,,,,,,,,,,,,,,3,,,76,127
128610,note_on,,0,0,1,,,,,,,,,,,,,,,3,,,64,127
128627,note_on,,17,0,1,,,,,,,,,,,,,,,3,,,47,0
128633,note_on,,6,0,1,,,,,,,,,,,,,,,3,,,76,0
128633,note_on,,0,0,1,,,,,,,,,,,,,,,3,,,64,0
128640,note_on,,7,0,1,,,,,,,,,,,,,,,3,,,76,127
128640,note_on,,0,0,1,,,,,,,,,,,,,,,3,,,64,127
128640,note_on,,0,0,1,,,,,,,,,,,,,,,3,,,64,127
128640,note_on,,0,0,1,,,,,,,,,,,,,,,3,,,52,127
128663,note_on,,23,0,1,,,,,,,,,,,,,,,3,,,76,0
128670,note_on,,7,0,1,,,,,,,,,,,,,,,3,,,78,127
128687,note_on,,0,0,1,,,,,,,,,,,,,,,3,,,64,0
128687,note_on,,0,0,1,,,,,,,,,,,,,,,3,,,52,0
128687,note_on,,17,0,1,,,,,,,,,,,,,,,3,,,64,0
128693,note_on,,6,0,1,,,,,,,,,,,,,,,3,,,78,0
128700,note_on,,7,0,1,,,,,,,,,,,,,,,3,,,76,127
128700,note_on,,0,0,1,,,,,,,,,,,,,,,3,,,67,127
128723,note_on,,23,0,1,,,,,,,,,,,,,,,3,,,76,0
128723,note_on,,0,0,1,,,,,,,,,,,,,,,3,,,67,0
128730,note_on,,7,0,1,,,,,,,,,,,,,,,3,,,75,127
128730,note_on,,0,0,1,,,,,,,,,,,,,,,3,,,66,127
128753,note_on,,23,0,1,,,,,,,,,,,,,,,3,,,75,0
128753,note_on,,0,0,1,,,,,,,,,,,,,,,3,,,66,0
128760,note_on,,7,0,1,,,,,,,,,,,,,,,3,,,76,127
128760,note_on,,0,0,1,,,,,,,,,,,,,,,3,,,67,127
128783,note_on,,23,0,1,,,,,,,,,,,,,,,3,,,76,0
128790,note_on,,7,0,1,,,,,,,,,,,,,,,3,,,78,127
128807,note_on,,17,0,1,,,,,,,,,,,,,,,3,,,67,0
128813,note_on,,6,0,1,,,,,,,,,,,,,,,3,,,78,0
128820,note_on,,0,0,1,,,,,,,,,,,,,,,3,,,64,127
128820,note_on,,7,0,1,,,,,,,,,,,,,,,3,,,79,127
128843,note_on,,23,0,1,,,,,,,,,,,,,,,3,,,79,0
128850,note_on,,7,0,1,,,,,,,,,,,,,,,3,,,78,127
128867,note_on,,17,0,1,,,,,,,,,,,,,,,3,,,64,0
128873,note_on,,6,0,1,,,,,,,,,,,,,,,3,,,78,0
128880,note_on,,0,0,1,,,,,,,,,,,,,,,3,,,67,127
128880,note_on,,7,0,1,,,,,,,,,,,,,,,3,,,76,127
128903,note_on,,23,0,1,,,,,,,,,,,,,,,3,,,76,0
128910,note_on,,7,0,1,,,,,,,,,,,,,,,3,,,75,127
128927,note_on,,17,0,1,,,,,,,,,,,,,,,3,,,67,0
128933,note_on,,6,0,1,,,,,,,,,,,,,,,3,,,75,0
128940,note_on,,0,0,1,,,,,,,,,,,,,,,3,,,64,127
128940,note_on,,7,0,1,,,,,,,,,,,,,,,3,,,76,127
128963,note_on,,23,0,1,,,,,,,,,,,,,,,3,,,76,0
128970,note_on,,7,0,1,,,,,,,,,,,,,,,3,,,78,127
128987,note_on,,17,0,1,,,,,,,,,,,,,,,3,,,64,0
128993,note_on,,6,0,1,,,,,,,,,,,,,,,3,,,78,0
129000,note_on,,0,0,1,,,,,,,,,,,,,,,3,,,71,127
129000,note_on,,7,0,1,,,,,,,,,,,,,,,3,,,75,127
129023,note_on,,23,0,1,,,,,,,,,,,,,,,3,,,75,0
129030,note_on,,7,0,1,,,,,,,,,,,,,,,3,,,76,127
129047,note_on,,17,0,1,,,,,,,,,,,,,,,3,,,71,0
129053,note_on,,6,0,1,,,,,,,,,,,,,,,3,,,76,0
129060,note_on,,7,0,1,,,,,,,,,,,,,,,3,,,78,127
129083,note_on,,23,0,1,,,,,,,,,,,,,,,3,,,78,0
129090,note_on,,7,0,1,,,,,,,,,,,,,,,3,,,76,127
129113,note_on,,23,0,1,,,,,,,,,,,,,,,3,,,76,0
129120,note_on,,7,0,1,,,,,,,,,,,,,,,3,,,75,127
129143,note_on,,23,0,1,,,,,,,,,,,,,,,3,,,75,0
129150,note_on,,7,0,1,,,,,,,,,,,,,,,3,,,73,127
129173,note_on,,23,0,1,,,,,,,,,,,,,,,3,,,73,0
129180,note_on,,7,0,1,,,,,,,,,,,,,,,3,,,75,127
129203,note_on,,23,0,1,,,,,,,,,,,,,,,3,,,75,0
129210,note_on,,7,0,1,,,,,,,,,,,,,,,3,,,76,127
129233,note_on,,23,0,1,,,,,,,,,,,,,,,3,,,76,0
129240,note_on,,7,0,1,,,,,,,,,,,,,,,3,,,78,127
129263,note_on,,23,0,1,,,,,,,,,,,,,,,3,,,78,0
129270,note_on,,7,0,1,,,,,,,,,,,,,,,3,,,76,127
129293,note_on,,23,0,1,,,,,,,,,,,,,,,3,,,76,0
129300,note_on,,7,0,1,,,,,,,,,,,,,,,3,,,78,127
129300,note_on,,0,0,1,,,,,,,,,,,,,,,3,,,71,127
129323,note_on,,23,0,1,,,,,,,,,,,,,,,3,,,78,0
129330,note_on,,7,0,1,,,,,,,,,,,,,,,3,,,75,127
129347,note_on,,17,0,1,,,,,,,,,,,,,,,3,,,71,0
129353,note_on,,6,0,1,,,,,,,,,,,,,,,3,,,75,0
129360,note_on,,7,0,1,,,,,,,,,,,,,,,3,,,76,127
129360,note_on,,0,0,1,,,,,,,,,,,,,,,3,,,67,127
129383,note_on,,23,0,1,,,,,,,,,,,,,,,3,,,76,0
129390,note_on,,7,0,1,,,,,,,,,,,,,,,3,,,78,127
129407,note_on,,17,0,1,,,,,,,,,,,,,,,3,,,67,0
129413,note_on,,6,0,1,,,,,,,,,,,,,,,3,,,78,0
129420,note_on,,7,0,1,,,,,,,,,,,,,,,3,,,79,127
129420,note_on,,0,0,1,,,,,,,,,,,,,,,3,,,71,127
129443,note_on,,23,0,1,,,,,,,,,,,,,,,3,,,79,0
129443,note_on,,0,0,1,,,,,,,,,,,,,,,3,,,71,0
129450,note_on,,0,0,1,,,,,,,,,,,,,,,3,,,69,127
129450,note_on,,7,0,1,,,,,,,,,,,,,,,3,,,78,127
129473,note_on,,0,0,1,,,,,,,,,,,,,,,3,,,69,0
129473,note_on,,23,0,1,,,,,,,,,,,,,,,3,,,78,0
129480,note_on,,0,0,1,,,,,,,,,,,,,,,3,,,71,127
129480,note_on,,7,0,1,,,,,,,,,,,,,,,3,,,76,127
129503,note_on,,23,0,1,,,,,,,,,,,,,,,3,,,76,0
129510,note_on,,7,0,1,,,,,,,,,,,,,,,3,,,75,127
129527,note_on,,17,0,1,,,,,,,,,,,,,,,3,,,71,0
129533,note_on,,6,0,1,,,,,,,,,,,,,,,3,,,75,0
129540,note_on,,0,0,1,,,,,,,,,,,,,,,3,,,67,127
129540,note_on,,7,0,1,,,,,,,,,,,,,,,3,,,76,127
129563,note_on,,23,0,1,,,,,,,,,,,,,,,3,,,76,0
129570,note_on,,7,0,1,,,,,,,,,,,,,,,3,,,78,127
129587,note_on,,17,0,1,,,,,,,,,,,,,,,3,,,67,0
129593,note_on,,6,0,1,,,,,,,,,,,,,,,3,,,78,0
129600,note_on,,0,0,1,,,,,,,,,,,,,,,3,,,71,127
129600,note_on,,7,0,1,,,,,,,,,,,,,,,3,,,79,127
129623,note_on,,23,0,1,,,,,,,,,,,,,,,3,,,79,0
129630,note_on,,7,0,1,,,,,,,,,,,,,,,3,,,78,127
129647,note_on,,17,0,1,,,,,,,,,,,,,,,3,,,71,0
129653,note_on,,6,0,1,,,,,,,,,,,,,,,3,,,78,0
129660,note_on,,0,0,1,,,,,,,,,,,,,,,3,,,67,127
129660,note_on,,7,0,1,,,,,,,,,,,,,,,3,,,76,127
129683,note_on,,23,0,1,,,,,,,,,,,,,,,3,,,76,0
129690,note_on,,7,0,1,,,,,,,,,,,,,,,3,,,75,127
129707,note_on,,17,0,1,,,,,,,,,,,,,,,3,,,67,0
129713,note_on,,6,0,1,,,,,,,,,,,,,,,3,,,75,0
129720,note_on,,0,0,1,,,,,,,,,,,,,,,3,,,72,127
129720,note_on,,7,0,1,,,,,,,,,,,,,,,3,,,76,127
129743,note_on,,23,0,1,,,,,,,,,,,,,,,3,,,76,0
129750,note_on,,7,0,1,,,,,,,,,,,,,,,3,,,78,127
129767,note_on,,17,0,1,,,,,,,,,,,,,,,3,,,72,0
129773,note_on,,6,0,1,,,,,,,,,,,,,,,3,,,78,0
129780,note_on,,7,0,1,,,,,,,,,,,,,,,3,,,79,127
129803,note_on,,23,0,1,,,,,,,,,,,,,,,3,,,79,0
129810,note_on,,7,0,1,,,,,,,,,,,,,,,3,,,78,127
129833,note_on,,23,0,1,,,,,,,,,,,,,,,3,,,78,0
129840,note_on,,7,0,1,,,,,,,,,,,,,,,3,,,76,127
129863,note_on,,23,0,1,,,,,,,,,,,,,,,3,,,76,0
129870,note_on,,7,0,1,,,,,,,,,,,,,,,3,,,75,127
129893,note_on,,23,0,1,,,,,,,,,,,,,,,3,,,75,0
129900,note_on,,7,0,1,,,,,,,,,,,,,,,3,,,76,127
129923,note_on,,23,0,1,,,,,,,,,,,,,,,3,,,76,0
129930,note_on,,7,0,1,,,,,,,,,,,,,,,3,,,78,127
129953,note_on,,23,0,1,,,,,,,,,,,,,,,3,,,78,0
129960,note_on,,7,0,1,,,,,,,,,,,,,,,3,,,79,127
129983,note_on,,23,0,1,,,,,,,,,,,,,,,3,,,79,0
129990,note_on,,7,0,1,,,,,,,,,,,,,,,3,,,78,127
130013,note_on,,23,0,1,,,,,,,,,,,,,,,3,,,78,0
130020,note_on,,0,0,1,,,,,,,,,,,,,,,3,,,72,127
130020,note_on,,7,0,1,,,,,,,,,,,,,,,3,,,79,127
130043,note_on,,23,0,1,,,,,,,,,,,,,,,3,,,79,0
130050,note_on,,7,0,1,,,,,,,,,,,,,,,3,,,76,127
130067,note_on,,17,0,1,,,,,,,,,,,,,,,3,,,72,0
130073,note_on,,6,0,1,,,,,,,,,,,,,,,3,,,76,0
130080,note_on,,0,0,1,,,,,,,,,,,,,,,3,,,69,127
130080,note_on,,7,0,1,,,,,,,,,,,,,,,3,,,78,127
130103,note_on,,23,0,1,,,,,,,,,,,,,,,3,,,78,0
130110,note_on,,7,0,1,,,,,,,,,,,,,,,3,,,79,127
130127,note_on,,17,0,1,,,,,,,,,,,,,,,3,,,69,0
130133,note_on,,6,0,1,,,,,,,,,,,,,,,3,,,79,0
130140,note_on,,7,0,1,,,,,,,,,,,,,,,3,,,81,127
130140,note_on,,0,0,1,,,,,,,,,,,,,,,3,,,72,127
130163,note_on,,23,0,1,,,,,,,,,,,,,,,3,,,81,0
130163,note_on,,0,0,1,,,,,,,,,,,,,,,3,,,72,0
130170,note_on,,0,0,1,,,,,,,,,,,,,,,3,,,71,127
130170,note_on,,7,0,1,,,,,,,,,,,,,,,3,,,79,127
130193,note_on,,23,0,1,,,,,,,,,,,,,,,3,,,79,0
130193,note_on,,0,0,1,,,,,,,,,,,,,,,3,,,71,0
130200,note_on,,7,0,1,,,,,,,,,,,,,,,3,,,78,127
130200,note_on,,0,0,1,,,,,,,,,,,,,,,3,,,72,127
130223,note_on,,23,0,1,,,,,,,,,,,,,,,3,,,78,0
130230,note_on,,7,0,1,,,,,,,,,,,,,,,3,,,76,127
130247,note_on,,17,0,1,,,,,,,,,,,,,,,3,,,72,0
130253,note_on,,6,0,1,,,,,,,,,,,,,,,3,,,76,0
130260,note_on,,7,0,1,,,,,,,,,,,,,,,3,,,78,127
130260,note_on,,0,0,1,,,,,,,,,,,,,,,3,,,69,127
130283,note_on,,23,0,1,,,,,,,,,,,,,,,3,,,78,0
130290,note_on,,7,0,1,,,,,,,,,,,,,,,3,,,79,127
130307,note_on,,17,0,1,,,,,,,,,,,,,,,3,,,69,0
130313,note_on,,6,0,1,,,,,,,,,,,,,,,3,,,79,0
130320,note_on,,7,0,1,,,,,,,,,,,,,,,3,,,81,127
130320,note_on,,0,0,1,,,,,,,,,,,,,,,3,,,72,127
130343,note_on,,23,0,1,,,,,,,,,,,,,,,3,,,81,0
130350,note_on,,7,0,1,,,,,,,,,,,,,,,3,,,79,127
130367,note_on,,17,0,1,,,,,,,,,,,,,,,3,,,72,0
130373,note_on,,6,0,1,,,,,,,,,,,,,,,3,,,79,0
130380,note_on,,7,0,1,,,,,,,,,,,,,,,3,,,81,127
130380,note_on,,0,0,1,,,,,,,,,,,,,,,3,,,69,127
130403,note_on,,23,0,1,,,,,,,,,,,,,,,3,,,81,0
130410,note_on,,7,0,1,,,,,,,,,,,,,,,3,,,78,127
130427,note_on,,17,0,1,,,,,,,,,,,,,,,3,,,69,0
130433,note_on,,6,0,1,,,,,,,,,,,,,,,3,,,78,0
130440,note_on,,7,0,1,,,,,,,,,,,,,,,3,,,79,127
130440,note_on,,0,0,1,,,,,,,,,,,,,,,3,,,76,127
130463,note_on,,23,0,1,,,,,,,,,,,,,,,3,,,79,0
130470,note_on,,7,0,1,,,,,,,,,,,,,,,3,,,81,127
130487,note_on,,17,0,1,,,,,,,,,,,,,,,3,,,76,0
130493,note_on,,6,0,1,,,,,,,,,,,,,,,3,,,81,0
130500,note_on,,7,0,1,,,,,,,,,,,,,,,3,,,83,127
130523,note_on,,23,0,1,,,,,,,,,,,,,,,3,,,83,0
130530,note_on,,7,0,1,,,,,,,,,,,,,,,3,,,81,127
130553,note_on,,23,0,1,,,,,,,,,,,,,,,3,,,81,0
130560,note_on,,7,0,1,,,,,,,,,,,,,,,3,,,79,127
130583,note_on,,23,0,1,,,,,,,,,,,,,,,3,,,79,0
130590,note_on,,7,0,1,,,,,,,,,,,,,,,3,,,78,127
130613,note_on,,23,0,1,,,,,,,,,,,,,,,3,,,78,0
130620,note_on,,7,0,1,,,,,,,,,,,,,,,3,,,79,127
130643,note_on,,23,0,1,,,,,,,,,,,,,,,3,,,79,0
130650,note_on,,7,0,1,,,,,,,,,,,,,,,3,,,81,127
130673,note_on,,23,0,1,,,,,,,,,,,,,,,3,,,81,0
130680,note_on,,7,0,1,,,,,,,,,,,,,,,3,,,83,127
130703,note_on,,23,0,1,,,,,,,,,,,,,,,3,,,83,0
130710,note_on,,7,0,1,,,,,,,,,,,,,,,3,,,81,127
130733,note_on,,23,0,1,,,,,,,,,,,,,,,3,,,81,0
130740,note_on,,0,0,1,,,,,,,,,,,,,,,3,,,76,127
130740,note_on,,7,0,1,,,,,,,,,,,,,,,3,,,79,127
130763,note_on,,23,0,1,,,,,,,,,,,,,,,3,,,79,0
130770,note_on,,7,0,1,,,,,,,,,,,,,,,3,,,81,127
130787,note_on,,17,0,1,,,,,,,,,,,,,,,3,,,76,0
130793,note_on,,6,0,1,,,,,,,,,,,,,,,3,,,81,0
130800,note_on,,7,0,1,,,,,,,,,,,,,,,3,,,78,127
130800,note_on,,0,0,1,,,,,,,,,,,,,,,3,,,74,127
130823,note_on,,23,0,1,,,,,,,,,,,,,,,3,,,74,0
130830,note_on,,7,0,1,,,,,,,,,,,,,,,3,,,78,127
130847,note_on,,17,0,1,,,,,,,,,,,,,,,3,,,78,0
130853,note_on,,6,0,1,,,,,,,,,,,,,,,3,,,78,0
130860,note_on,,7,0,1,,,,,,,,,,,,,,,3,,,83,127
130860,note_on,,0,0,1,,,,,,,,,,,,,,,3,,,71,127
130883,note_on,,23,0,1,,,,,,,,,,,,,,,3,,,71,0
130890,note_on,,7,0,1,,,,,,,,,,,,,,,3,,,78,127
130907,note_on,,17,0,1,,,,,,,,,,,,,,,3,,,83,0
130913,note_on,,6,0,1,,,,,,,,,,,,,,,3,,,78,0
130920,note_on,,0,0,1,,,,,,,,,,,,,,,3,,,73,127
130920,note_on,,7,0,1,,,,,,,,,,,,,,,3,,,82,127
130943,note_on,,23,0,1,,,,,,,,,,,,,,,3,,,73,0
130950,note_on,,7,0,1,,,,,,,,,,,,,,,3,,,78,127
130967,note_on,,17,0,1,,,,,,,,,,,,,,,3,,,82,0
130973,note_on,,6,0,1,,,,,,,,,,,,,,,3,,,78,0
130980,note_on,,0,0,1,,,,,,,,,,,,,,,3,,,74,127
130980,note_on,,7,0,1,,,,,,,,,,,,,,,3,,,83,127
131003,note_on,,23,0,1,,,,,,,,,,,,,,,3,,,74,0
131010,note_on,,7,0,1,,,,,,,,,,,,,,,3,,,78,127
131027,note_on,,17,0,1,,,,,,,,,,,,,,,3,,,83,0
131033,note_on,,6,0,1,,,,,,,,,,,,,,,3,,,78,0
131040,note_on,,0,0,1,,,,,,,,,,,,,,,3,,,73,127
131040,note_on,,7,0,1,,,,,,,,,,,,,,,3,,,71,127
131063,note_on,,23,0,1,,,,,,,,,,,,,,,3,,,73,0
131070,note_on,,7,0,1,,,,,,,,,,,,,,,3,,,78,127
131087,note_on,,17,0,1,,,,,,,,,,,,,,,3,,,71,0
131093,note_on,,6,0,1,,,,,,,,,,,,,,,3,,,78,0
131100,note_on,,7,0,1,,,,,,,,,,,,,,,3,,,83,127
131100,note_on,,0,0,1,,,,,,,,,,,,,,,3,,,74,127
131123,note_on,,23,0,1,,,,,,,,,,,,,,,3,,,74,0
131130,note_on,,7,0,1,,,,,,,,,,,,,,,3,,,78,127
131147,note_on,,17,0,1,,,,,,,,,,,,,,,3,,,83,0
131153,note_on,,6,0,1,,,,,,,,,,,,,,,3,,,78,0
131160,note_on,,0,0,1,,,,,,,,,,,,,,,3,,,76,127
131160,note_on,,7,0,1,,,,,,,,,,,,,,,3,,,73,127
131183,note_on,,23,0,1,,,,,,,,,,,,,,,3,,,76,0
131190,note_on,,7,0,1,,,,,,,,,,,,,,,3,,,78,127
131207,note_on,,17,0,1,,,,,,,,,,,,,,,3,,,73,0
131213,note_on,,6,0,1,,,,,,,,,,,,,,,3,,,78,0
131220,note_on,,0,0,1,,,,,,,,,,,,,,,3,,,74,127
131220,note_on,,7,0,1,,,,,,,,,,,,,,,3,,,83,127
131243,note_on,,23,0,1,,,,,,,,,,,,,,,3,,,74,0
131250,note_on,,7,0,1,,,,,,,,,,,,,,,3,,,78,127
131267,note_on,,17,0,1,,,,,,,,,,,,,,,3,,,83,0
131273,note_on,,6,0,1,,,,,,,,,,,,,,,3,,,78,0
131280,note_on,,7,0,1,,,,,,,,,,,,,,,3,,,82,127
131280,note_on,,0,0,1,,,,,,,,,,,,,,,3,,,73,127
131303,note_on,,23,0,1,,,,,,,,,,,,,,,3,,,73,0
131310,note_on,,7,0,1,,,,,,,,,,,,,,,3,,,78,127
131327,note_on,,17,0,1,,,,,,,,,,,,,,,3,,,82,0
131333,note_on,,6,0,1,,,,,,,,,,,,,,,3,,,78,0
131340,note_on,,7,0,1,,,,,,,,,,,,,,,3,,,83,127
131340,note_on,,0,0,1,,,,,,,,,,,,,,,3,,,74,127
131363,note_on,,23,0,1,,,,,,,,,,,,,,,3,,,74,0
131370,note_on,,7,0,1,,,,,,,,,,,,,,,3,,,78,127
131387,note_on,,17,0,1,,,,,,,,,,,,,,,3,,,83,0
131393,note_on,,6,0,1,,,,,,,,,,,,,,,3,,,78,0
131400,note_on,,7,0,1,,,,,,,,,,,,,,,3,,,74,127
131400,note_on,,0,0,1,,,,,,,,,,,,,,,3,,,71,127
131423,note_on,,23,0,1,,,,,,,,,,,,,,,3,,,71,0
131430,note_on,,7,0,1,,,,,,,,,,,,,,,3,,,78,127
131447,note_on,,17,0,1,,,,,,,,,,,,,,,3,,,74,0
131453,note_on,,6,0,1,,,,,,,,,,,,,,,3,,,78,0
131460,note_on,,7,0,1,,,,,,,,,,,,,,,3,,,73,127
131460,note_on,,0,0,1,,,,,,,,,,,,,,,3,,,69,127
131483,note_on,,23,0,1,,,,,,,,,,,,,,,3,,,69,0
131490,note_on,,7,0,1,,,,,,,,,,,,,,,3,,,78,127
131507,note_on,,17,0,1,,,,,,,,,,,,,,,3,,,73,0
131513,note_on,,6,0,1,,,,,,,,,,,,,,,3,,,78,0
131520,note_on,,0,0,1,,,,,,,,,,,,,,,3,,,68,127
131520,note_on,,7,0,1,,,,,,,,,,,,,,,3,,,71,127
131543,note_on,,23,0,1,,,,,,,,,,,,,,,3,,,71,0
131550,note_on,,7,0,1,,,,,,,,,,,,,,,3,,,78,127
131567,note_on,,17,0,1,,,,,,,,,,,,,,,3,,,68,0
131573,note_on,,6,0,1,,,,,,,,,,,,,,,3,,,78,0
131580,note_on,,7,0,1,,,,,,,,,,,,,,,3,,,76,127
131580,note_on,,0,0,1,,,,,,,,,,,,,,,3,,,76,127
131603,note_on,,23,0,1,,,,,,,,,,,,,,,3,,,76,0
131610,note_on,,7,0,1,,,,,,,,,,,,,,,3,,,79,127
131627,note_on,,17,0,1,,,,,,,,,,,,,,,3,,,76,0
131633,note_on,,6,0,1,,,,,,,,,,,,,,,3,,,79,0
131640,note_on,,7,0,1,,,,,,,,,,,,,,,3,,,78,127
131640,note_on,,0,0,1,,,,,,,,,,,,,,,3,,,70,127
131663,note_on,,23,0,1,,,,,,,,,,,,,,,3,,,78,0
131670,note_on,,7,0,1,,,,,,,,,,,,,,,3,,,76,127
131687,note_on,,17,0,1,,,,,,,,,,,,,,,3,,,70,0
131693,note_on,,6,0,1,,,,,,,,,,,,,,,3,,,76,0
131700,note_on,,7,0,1,,,,,,,,,,,,,,,3,,,74,127
131700,note_on,,0,0,1,,,,,,,,,,,,,,,3,,,71,127
131723,note_on,,23,0,1,,,,,,,,,,,,,,,3,,,74,0
131730,note_on,,7,0,1,,,,,,,,,,,,,,,3,,,76,127
131747,note_on,,17,0,1,,,,,,,,,,,,,,,3,,,71,0
131753,note_on,,6,0,1,,,,,,,,,,,,,,,3,,,76,0
131760,note_on,,7,0,1,,,,,,,,,,,,,,,3,,,73,127
131760,note_on,,0,0,1,,,,,,,,,,,,,,,3,,,71,127
131783,note_on,,23,0,1,,,,,,,,,,,,,,,3,,,73,0
131787,note_on,,4,0,1,,,,,,,,,,,,,,,3,,,71,0
131790,note_on,,3,0,1,,,,,,,,,,,,,,,3,,,76,127
131790,note_on,,0,0,1,,,,,,,,,,,,,,,3,,,72,127
131804,note_on,,14,0,1,,,,,,,,,,,,,,,3,,,72,0
131805,note_on,,1,0,1,,,,,,,,,,,,,,,3,,,71,127
131813,note_on,,8,0,1,,,,,,,,,,,,,,,3,,,76,0
131819,note_on,,6,0,1,,,,,,,,,,,,,,,3,,,71,0
131820,note_on,,0,0,1,,,,,,,,,,,,,,,3,,,69,127
131820,note_on,,1,0,1,,,,,,,,,,,,,,,3,,,74,127
131843,note_on,,23,0,1,,,,,,,,,,,,,,,3,,,74,0
131850,note_on,,7,0,1,,,,,,,,,,,,,,,3,,,73,127
131867,note_on,,17,0,1,,,,,,,,,,,,,,,3,,,69,0
131873,note_on,,6,0,1,,,,,,,,,,,,,,,3,,,73,0
131880,note_on,,7,0,1,,,,,,,,,,,,,,,3,,,75,127
131880,note_on,,0,0,1,,,,,,,,,,,,,,,3,,,59,127
131880,note_on,,0,0,1,,,,,,,,,,,,,,,3,,,69,127
131903,note_on,,23,0,1,,,,,,,,,,,,,,,3,,,75,0
131910,note_on,,7,0,1,,,,,,,,,,,,,,,3,,,76,127
131927,note_on,,0,0,1,,,,,,,,,,,,,,,3,,,59,0
131927,note_on,,17,0,1,,,,,,,,,,,,,,,3,,,69,0
131933,note_on,,6,0,1,,,,,,,,,,,,,,,3,,,76,0
131940,note_on,,0,0,1,,,,,,,,,,,,,,,3,,,63,127
131940,note_on,,7,0,1,,,,,,,,,,,,,,,3,,,78,127
131963,note_on,,0,0,1,,,,,,,,,,,,,,,3,,,63,0
131963,note_on,,23,0,1,,,,,,,,,,,,,,,3,,,78,0
131970,note_on,,7,0,1,,,,,,,,,,,,,,,3,,,76,127
131970,note_on,,0,0,1,,,,,,,,,,,,,,,3,,,61,127
131993,note_on,,0,0,1,,,,,,,,,,,,,,,3,,,61,0
131993,note_on,,23,0,1,,,,,,,,,,,,,,,3,,,76,0
132000,note_on,,7,0,1,,,,,,,,,,,,,,,3,,,75,127
132000,note_on,,0,0,1,,,,,,,,,,,,,,,3,,,63,127
132023,note_on,,23,0,1,,,,,,,,,,,,,,,3,,,75,0
132030,note_on,,7,0,1,,,,,,,,,,,,,,,3,,,73,127
132047,note_on,,17,0,1,,,,,,,,,,,,,,,3,,,63,0
132053,note_on,,6,0,1,,,,,,,,,,,,,,,3,,,73,0
132060,note_on,,7,0,1,,,,,,,,,,,,,,,3,,,75,127
132060,note_on,,0,0,1,,,,,,,,,,,,,,,3,,,59,127
132083,note_on,,23,0,1,,,,,,,,,,,,,,,3,,,75,0
132090,note_on,,7,0,1,,,,,,,,,,,,,,,3,,,76,127
132107,note_on,,17,0,1,,,,,,,,,,,,,,,3,,,59,0
132113,note_on,,6,0,1,,,,,,,,,,,,,,,3,,,76,0
132120,note_on,,7,0,1,,,,,,,,,,,,,,,3,,,78,127
132120,note_on,,0,0,1,,,,,,,,,,,,,,,3,,,63,127
132143,note_on,,23,0,1,,,,,,,,,,,,,,,3,,,78,0
132150,note_on,,7,0,1,,,,,,,,,,,,,,,3,,,76,127
132167,note_on,,17,0,1,,,,,,,,,,,,,,,3,,,63,0
132173,note_on,,6,0,1,,,,,,,,,,,,,,,3,,,76,0
132180,note_on,,0,0,1,,,,,,,,,,,,,,,3,,,69,127
132180,note_on,,7,0,1,,,,,,,,,,,,,,,3,,,78,127
132180,note_on,,0,0,1,,,,,,,,,,,,,,,3,,,59,127
132203,note_on,,23,0,1,,,,,,,,,,,,,,,3,,,78,0
132210,note_on,,7,0,1,,,,,,,,,,,,,,,3,,,75,127
132227,note_on,,17,0,1,,,,,,,,,,,,,,,3,,,69,0
132227,note_on,,0,0,1,,,,,,,,,,,,,,,3,,,59,0
132233,note_on,,6,0,1,,,,,,,,,,,,,,,3,,,75,0
132240,note_on,,0,0,1,,,,,,,,,,,,,,,3,,,64,127
132240,note_on,,7,0,1,,,,,,,,,,,,,,,3,,,76,127
132240,note_on,,0,0,1,,,,,,,,,,,,,,,3,,,67,127
132263,note_on,,23,0,1,,,,,,,,,,,,,,,3,,,76,0
132270,note_on,,7,0,1,,,,,,,,,,,,,,,3,,,78,127
132287,note_on,,17,0,1,,,,,,,,,,,,,,,3,,,67,0
132287,note_on,,0,0,1,,,,,,,,,,,,,,,3,,,64,0
132293,note_on,,6,0,1,,,,,,,,,,,,,,,3,,,78,0
132300,note_on,,7,0,1,,,,,,,,,,,,,,,3,,,79,127
132300,note_on,,0,0,1,,,,,,,,,,,,,,,3,,,71,127
132323,note_on,,23,0,1,,,,,,,,,,,,,,,3,,,79,0
132323,note_on,,0,0,1,,,,,,,,,,,,,,,3,,,71,0
132330,note_on,,7,0,1,,,,,,,,,,,,,,,3,,,78,127
132330,note_on,,0,0,1,,,,,,,,,,,,,,,3,,,69,127
132353,note_on,,23,0,1,,,,,,,,,,,,,,,3,,,78,0
132353,note_on,,0,0,1,,,,,,,,,,,,,,,3,,,69,0
132360,note_on,,7,0,1,,,,,,,,,,,,,,,3,,,76,127
132360,note_on,,0,0,1,,,,,,,,,,,,,,,3,,,71,127
132383,note_on,,23,0,1,,,,,,,,,,,,,,,3,,,76,0
132390,note_on,,7,0,1,,,,,,,,,,,,,,,3,,,75,127
132407,note_on,,17,0,1,,,,,,,,,,,,,,,3,,,71,0
132413,note_on,,6,0,1,,,,,,,,,,,,,,,3,,,75,0
132420,note_on,,7,0,1,,,,,,,,,,,,,,,3,,,76,127
132420,note_on,,0,0,1,,,,,,,,,,,,,,,3,,,67,127
132443,note_on,,23,0,1,,,,,,,,,,,,,,,3,,,76,0
132450,note_on,,7,0,1,,,,,,,,,,,,,,,3,,,78,127
132467,note_on,,17,0,1,,,,,,,,,,,,,,,3,,,67,0
132473,note_on,,6,0,1,,,,,,,,,,,,,,,3,,,78,0
132480,note_on,,7,0,1,,,,,,,,,,,,,,,3,,,79,127
132480,note_on,,0,0,1,,,,,,,,,,,,,,,3,,,71,127
132503,note_on,,23,0,1,,,,,,,,,,,,,,,3,,,79,0
132510,note_on,,7,0,1,,,,,,,,,,,,,,,3,,,78,127
132527,note_on,,17,0,1,,,,,,,,,,,,,,,3,,,71,0
132533,note_on,,6,0,1,,,,,,,,,,,,,,,3,,,78,0
132540,note_on,,7,0,1,,,,,,,,,,,,,,,3,,,76,127
132540,note_on,,0,0,1,,,,,,,,,,,,,,,3,,,67,127
132540,note_on,,0,0,1,,,,,,,,,,,,,,,3,,,64,127
132563,note_on,,23,0,1,,,,,,,,,,,,,,,3,,,76,0
132570,note_on,,7,0,1,,,,,,,,,,,,,,,3,,,79,127
132587,note_on,,17,0,1,,,,,,,,,,,,,,,3,,,67,0
132587,note_on,,0,0,1,,,,,,,,,,,,,,,3,,,64,0
132593,note_on,,6,0,1,,,,,,,,,,,,,,,3,,,79,0
132600,note_on,,0,0,1,,,,,,,,,,,,,,,3,,,63,127
132600,note_on,,0,0,1,,,,,,,,,,,,,,,3,,,71,127
132600,note_on,,7,0,1,,,,,,,,,,,,,,,3,,,78,127
132623,note_on,,23,0,1,,,,,,,,,,,,,,,3,,,78,0
132630,note_on,,7,0,1,,,,,,,,,,,,,,,3,,,79,127
132647,note_on,,17,0,1,,,,,,,,,,,,,,,3,,,71,0
132647,note_on,,0,0,1,,,,,,,,,,,,,,,3,,,63,0
132653,note_on,,6,0,1,,,,,,,,,,,,,,,3,,,79,0
132660,note_on,,0,0,1,,,,,,,,,,,,,,,3,,,66,127
132660,note_on,,7,0,1,,,,,,,,,,,,,,,3,,,81,127
132683,note_on,,23,0,1,,,,,,,,,,,,,,,3,,,81,0
132683,note_on,,0,0,1,,,,,,,,,,,,,,,3,,,66,0
132690,note_on,,7,0,1,,,,,,,,,,,,,,,3,,,79,127
132690,note_on,,0,0,1,,,,,,,,,,,,,,,3,,,64,127
132713,note_on,,0,0,1,,,,,,,,,,,,,,,3,,,64,0
132713,note_on,,23,0,1,,,,,,,,,,,,,,,3,,,79,0
132720,note_on,,0,0,1,,,,,,,,,,,,,,,3,,,66,127
132720,note_on,,7,0,1,,,,,,,,,,,,,,,3,,,78,127
132743,note_on,,23,0,1,,,,,,,,,,,,,,,3,,,78,0
132750,note_on,,7,0,1,,,,,,,,,,,,,,,3,,,76,127
132767,note_on,,17,0,1,,,,,,,,,,,,,,,3,,,66,0
132773,note_on,,6,0,1,,,,,,,,,,,,,,,3,,,76,0
132780,note_on,,7,0,1,,,,,,,,,,,,,,,3,,,78,127
132780,note_on,,0,0,1,,,,,,,,,,,,,,,3,,,63,127
132803,note_on,,23,0,1,,,,,,,,,,,,,,,3,,,78,0
132810,note_on,,7,0,1,,,,,,,,,,,,,,,3,,,79,127
132827,note_on,,17,0,1,,,,,,,,,,,,,,,3,,,63,0
132833,note_on,,6,0,1,,,,,,,,,,,,,,,3,,,79,0
132840,note_on,,7,0,1,,,,,,,,,,,,,,,3,,,81,127
132840,note_on,,0,0,1,,,,,,,,,,,,,,,3,,,66,127
132863,note_on,,23,0,1,,,,,,,,,,,,,,,3,,,81,0
132870,note_on,,7,0,1,,,,,,,,,,,,,,,3,,,79,127
132887,note_on,,17,0,1,,,,,,,,,,,,,,,3,,,66,0
132893,note_on,,6,0,1,,,,,,,,,,,,,,,3,,,79,0
132900,note_on,,7,0,1,,,,,,,,,,,,,,,3,,,78,127
132900,note_on,,0,0,1,,,,,,,,,,,,,,,3,,,71,127
132900,note_on,,0,0,1,,,,,,,,,,,,,,,3,,,63,127
132923,note_on,,23,0,1,,,,,,,,,,,,,,,3,,,78,0
132930,note_on,,7,0,1,,,,,,,,,,,,,,,3,,,79,127
132947,note_on,,17,0,1,,,,,,,,,,,,,,,3,,,71,0
132947,note_on,,0,0,1,,,,,,,,,,,,,,,3,,,63,0
132953,note_on,,6,0,1,,,,,,,,,,,,,,,3,,,79,0
132960,note_on,,7,0,1,,,,,,,,,,,,,,,3,,,76,127
132960,note_on,,0,0,1,,,,,,,,,,,,,,,3,,,67,127
132960,note_on,,0,0,1,,,,,,,,,,,,,,,3,,,71,127
132983,note_on,,23,0,1,,,,,,,,,,,,,,,3,,,76,0
132990,note_on,,7,0,1,,,,,,,,,,,,,,,3,,,78,127
133007,note_on,,17,0,1,,,,,,,,,,,,,,,3,,,71,0
133007,note_on,,0,0,1,,,,,,,,,,,,,,,3,,,67,0
133013,note_on,,6,0,1,,,,,,,,,,,,,,,3,,,78,0
133020,note_on,,0,0,1,,,,,,,,,,,,,,,3,,,76,127
133020,note_on,,7,0,1,,,,,,,,,,,,,,,3,,,79,127
133043,note_on,,0,0,1,,,,,,,,,,,,,,,3,,,76,0
133043,note_on,,23,0,1,,,,,,,,,,,,,,,3,,,79,0
133050,note_on,,0,0,1,,,,,,,,,,,,,,,3,,,75,127
133050,note_on,,7,0,1,,,,,,,,,,,,,,,3,,,78,127
133073,note_on,,0,0,1,,,,,,,,,,,,,,,3,,,75,0
133073,note_on,,23,0,1,,,,,,,,,,,,,,,3,,,78,0
133080,note_on,,0,0,1,,,,,,,,,,,,,,,3,,,76,127
133080,note_on,,7,0,1,,,,,,,,,,,,,,,3,,,76,127
133103,note_on,,23,0,1,,,,,,,,,,,,,,,3,,,76,0
133110,note_on,,7,0,1,,,,,,,,,,,,,,,3,,,78,127
133127,note_on,,17,0,1,,,,,,,,,,,,,,,3,,,76,0
133133,note_on,,6,0,1,,,,,,,,,,,,,,,3,,,78,0
133140,note_on,,0,0,1,,,,,,,,,,,,,,,3,,,71,127
133140,note_on,,7,0,1,,,,,,,,,,,,,,,3,,,79,127
133163,note_on,,23,0,1,,,,,,,,,,,,,,,3,,,79,0
133170,note_on,,7,0,1,,,,,,,,,,,,,,,3,,,81,127
133187,note_on,,17,0,1,,,,,,,,,,,,,,,3,,,71,0
133193,note_on,,6,0,1,,,,,,,,,,,,,,,3,,,81,0
133200,note_on,,0,0,1,,,,,,,,,,,,,,,3,,,76,127
133200,note_on,,7,0,1,,,,,,,,,,,,,,,3,,,79,127
133223,note_on,,23,0,1,,,,,,,,,,,,,,,3,,,79,0
133230,note_on,,7,0,1,,,,,,,,,,,,,,,3,,,78,127
133247,note_on,,17,0,1,,,,,,,,,,,,,,,3,,,76,0
133253,note_on,,6,0,1,,,,,,,,,,,,,,,3,,,78,0
133260,note_on,,0,0,1,,,,,,,,,,,,,,,3,,,67,127
133260,note_on,,7,0,1,,,,,,,,,,,,,,,3,,,76,127
133260,note_on,,0,0,1,,,,,,,,,,,,,,,3,,,71,127
133283,note_on,,23,0,1,,,,,,,,,,,,,,,3,,,76,0
133290,note_on,,7,0,1,,,,,,,,,,,,,,,3,,,75,127
133307,note_on,,0,0,1,,,,,,,,,,,,,,,3,,,67,0
133307,note_on,,17,0,1,,,,,,,,,,,,,,,3,,,71,0
133313,note_on,,6,0,1,,,,,,,,,,,,,,,3,,,75,0
133320,note_on,,7,0,1,,,,,,,,,,,,,,,3,,,76,127
133320,note_on,,0,0,1,,,,,,,,,,,,,,,3,,,64,127
133320,note_on,,0,0,1,,,,,,,,,,,,,,,3,,,67,127
133343,note_on,,23,0,1,,,,,,,,,,,,,,,3,,,76,0
133350,note_on,,7,0,1,,,,,,,,,,,,,,,3,,,79,127
133367,note_on,,0,0,1,,,,,,,,,,,,,,,3,,,64,0
133367,note_on,,17,0,1,,,,,,,,,,,,,,,3,,,67,0
133373,note_on,,6,0,1,,,,,,,,,,,,,,,3,,,79,0
133380,note_on,,0,0,1,,,,,,,,,,,,,,,3,,,67,127
133380,note_on,,7,0,1,,,,,,,,,,,,,,,3,,,83,127
133403,note_on,,23,0,1,,,,,,,,,,,,,,,3,,,83,0
133403,note_on,,0,0,1,,,,,,,,,,,,,,,3,,,67,0
133410,note_on,,0,0,1,,,,,,,,,,,,,,,3,,,66,127
133410,note_on,,7,0,1,,,,,,,,,,,,,,,3,,,81,127
133433,note_on,,0,0,1,,,,,,,,,,,,,,,3,,,66,0
133433,note_on,,23,0,1,,,,,,,,,,,,,,,3,,,81,0
133440,note_on,,7,0,1,,,,,,,,,,,,,,,3,,,79,127
133440,note_on,,0,0,1,,,,,,,,,,,,,,,3,,,67,127
133463,note_on,,23,0,1,,,,,,,,,,,,,,,3,,,79,0
133470,note_on,,7,0,1,,,,,,,,,,,,,,,3,,,78,127
133487,note_on,,17,0,1,,,,,,,,,,,,,,,3,,,67,0
133493,note_on,,6,0,1,,,,,,,,,,,,,,,3,,,78,0
133500,note_on,,7,0,1,,,,,,,,,,,,,,,3,,,79,127
133500,note_on,,0,0,1,,,,,,,,,,,,,,,3,,,64,127
133523,note_on,,23,0,1,,,,,,,,,,,,,,,3,,,79,0
133530,note_on,,7,0,1,,,,,,,,,,,,,,,3,,,81,127
133547,note_on,,17,0,1,,,,,,,,,,,,,,,3,,,64,0
133553,note_on,,6,0,1,,,,,,,,,,,,,,,3,,,81,0
133560,note_on,,7,0,1,,,,,,,,,,,,,,,3,,,83,127
133560,note_on,,0,0,1,,,,,,,,,,,,,,,3,,,67,127
133583,note_on,,23,0,1,,,,,,,,,,,,,,,3,,,83,0
133590,note_on,,7,0,1,,,,,,,,,,,,,,,3,,,81,127
133607,note_on,,17,0,1,,,,,,,,,,,,,,,3,,,67,0
133613,note_on,,6,0,1,,,,,,,,,,,,,,,3,,,81,0
133620,note_on,,7,0,1,,,,,,,,,,,,,,,3,,,79,127
133620,note_on,,0,0,1,,,,,,,,,,,,,,,3,,,64,127
133620,note_on,,0,0,1,,,,,,,,,,,,,,,3,,,76,127
133643,note_on,,23,0,1,,,,,,,,,,,,,,,3,,,79,0
133650,note_on,,7,0,1,,,,,,,,,,,,,,,3,,,81,127
133667,note_on,,17,0,1,,,,,,,,,,,,,,,3,,,76,0
133667,note_on,,0,0,1,,,,,,,,,,,,,,,3,,,64,0
133673,note_on,,6,0,1,,,,,,,,,,,,,,,3,,,81,0
133680,note_on,,7,0,1,,,,,,,,,,,,,,,3,,,78,127
133680,note_on,,0,0,1,,,,,,,,,,,,,,,3,,,75,127
133680,note_on,,0,0,1,,,,,,,,,,,,,,,3,,,71,127
133703,note_on,,23,0,1,,,,,,,,,,,,,,,3,,,78,0
133710,note_on,,7,0,1,,,,,,,,,,,,,,,3,,,79,127
133727,note_on,,0,0,1,,,,,,,,,,,,,,,3,,,71,0
133727,note_on,,17,0,1,,,,,,,,,,,,,,,3,,,75,0
133733,note_on,,6,0,1,,,,,,,,,,,,,,,3,,,79,0
133740,note_on,,7,0,1,,,,,,,,,,,,,,,3,,,81,127
133740,note_on,,0,0,1,,,,,,,,,,,,,,,3,,,78,127
133763,note_on,,23,0,1,,,,,,,,,,,,,,,3,,,81,0
133770,note_on,,7,0,1,,,,,,,,,,,,,,,3,,,83,127
133787,note_on,,17,0,1,,,,,,,,,,,,,,,3,,,78,0
133793,note_on,,6,0,1,,,,,,,,,,,,,,,3,,,83,0
133800,note_on,,7,0,1,,,,,,,,,,,,,,,3,,,79,127
133800,note_on,,0,0,1,,,,,,,,,,,,,,,3,,,76,127
133823,note_on,,23,0,1,,,,,,,,,,,,,,,3,,,79,0
133830,note_on,,7,0,1,,,,,,,,,,,,,,,3,,,81,127
133847,note_on,,17,0,1,,,,,,,,,,,,,,,3,,,76,0
133853,note_on,,6,0,1,,,,,,,,,,,,,,,3,,,81,0
133860,note_on,,7,0,1,,,,,,,,,,,,,,,3,,,78,127
133860,note_on,,0,0,1,,,,,,,,,,,,,,,3,,,75,127
133883,note_on,,23,0,1,,,,,,,,,,,,,,,3,,,78,0
133890,note_on,,7,0,1,,,,,,,,,,,,,,,3,,,79,127
133907,note_on,,17,0,1,,,,,,,,,,,,,,,3,,,75,0
133913,note_on,,6,0,1,,,,,,,,,,,,,,,3,,,79,0
133920,note_on,,0,0,1,,,,,,,,,,,,,,,3,,,78,127
133920,note_on,,7,0,1,,,,,,,,,,,,,,,3,,,81,127
133943,note_on,,23,0,1,,,,,,,,,,,,,,,3,,,81,0
133950,note_on,,7,0,1,,,,,,,,,,,,,,,3,,,79,127
133967,note_on,,17,0,1,,,,,,,,,,,,,,,3,,,78,0
133973,note_on,,6,0,1,,,,,,,,,,,,,,,3,,,79,0
133980,note_on,,7,0,1,,,,,,,,,,,,,,,3,,,78,127
133980,note_on,,0,0,1,,,,,,,,,,,,,,,3,,,71,127
133980,note_on,,0,0,1,,,,,,,,,,,,,,,3,,,75,127
134003,note_on,,23,0,1,,,,,,,,,,,,,,,3,,,78,0
134010,note_on,,7,0,1,,,,,,,,,,,,,,,3,,,79,127
134027,note_on,,0,0,1,,,,,,,,,,,,,,,3,,,71,0
134027,note_on,,17,0,1,,,,,,,,,,,,,,,3,,,75,0
134033,note_on,,6,0,1,,,,,,,,,,,,,,,3,,,79,0
134040,note_on,,0,0,1,,,,,,,,,,,,,,,3,,,67,127
134040,note_on,,7,0,1,,,,,,,,,,,,,,,3,,,76,127
134040,note_on,,0,0,1,,,,,,,,,,,,,,,3,,,76,127
134063,note_on,,23,0,1,,,,,,,,,,,,,,,3,,,67,0
134070,note_on,,7,0,1,,,,,,,,,,,,,,,3,,,71,127
134087,note_on,,17,0,1,,,,,,,,,,,,,,,3,,,76,0
134087,note_on,,0,0,1,,,,,,,,,,,,,,,3,,,76,0
134093,note_on,,6,0,1,,,,,,,,,,,,,,,3,,,71,0
134100,note_on,,0,0,1,,,,,,,,,,,,,,,3,,,76,127
134100,note_on,,0,0,1,,,,,,,,,,,,,,,3,,,64,127
134100,note_on,,7,0,1,,,,,,,,,,,,,,,3,,,79,127
134123,note_on,,23,0,1,,,,,,,,,,,,,,,3,,,64,0
134130,note_on,,7,0,1,,,,,,,,,,,,,,,3,,,71,127
134147,note_on,,0,0,1,,,,,,,,,,,,,,,3,,,76,0
134147,note_on,,17,0,1,,,,,,,,,,,,,,,3,,,79,0
134153,note_on,,6,0,1,,,,,,,,,,,,,,,3,,,71,0
134160,note_on,,7,0,1,,,,,,,,,,,,,,,3,,,81,127
134160,note_on,,0,0,1,,,,,,,,,,,,,,,3,,,75,127
134160,note_on,,0,0,1,,,,,,,,,,,,,,,3,,,66,127
134183,note_on,,23,0,1,,,,,,,,,,,,,,,3,,,66,0
134190,note_on,,7,0,1,,,,,,,,,,,,,,,3,,,71,127
134207,note_on,,0,0,1,,,,,,,,,,,,,,,3,,,75,0
134207,note_on,,17,0,1,,,,,,,,,,,,,,,3,,,81,0
134213,note_on,,6,0,1,,,,,,,,,,,,,,,3,,,71,0
134220,note_on,,7,0,1,,,,,,,,,,,,,,,3,,,83,127
134220,note_on,,0,0,1,,,,,,,,,,,,,,,3,,,76,127
134220,note_on,,0,0,1,,,,,,,,,,,,,,,3,,,67,127
134243,note_on,,23,0,1,,,,,,,,,,,,,,,3,,,67,0
134250,note_on,,7,0,1,,,,,,,,,,,,,,,3,,,71,127
134267,note_on,,0,0,1,,,,,,,,,,,,,,,3,,,76,0
134267,note_on,,17,0,1,,,,,,,,,,,,,,,3,,,83,0
134273,note_on,,6,0,1,,,,,,,,,,,,,,,3,,,71,0
134280,note_on,,7,0,1,,,,,,,,,,,,,,,3,,,81,127
134280,note_on,,0,0,1,,,,,,,,,,,,,,,3,,,66,127
134280,note_on,,0,0,1,,,,,,,,,,,,,,,3,,,75,127
134303,note_on,,23,0,1,,,,,,,,,,,,,,,3,,,66,0
134310,note_on,,7,0,1,,,,,,,,,,,,,,,3,,,71,127
134327,note_on,,17,0,1,,,,,,,,,,,,,,,3,,,81,0
134327,note_on,,0,0,1,,,,,,,,,,,,,,,3,,,75,0
134333,note_on,,6,0,1,,,,,,,,,,,,,,,3,,,71,0
134340,note_on,,7,0,1,,,,,,,,,,,,,,,3,,,83,127
134340,note_on,,0,0,1,,,,,,,,,,,,,,,3,,,67,127
134340,note_on,,0,0,1,,,,,,,,,,,,,,,3,,,76,127
134363,note_on,,23,0,1,,,,,,,,,,,,,,,3,,,67,0
134370,note_on,,7,0,1,,,,,,,,,,,,,,,3,,,71,127
134387,note_on,,0,0,1,,,,,,,,,,,,,,,3,,,76,0
134387,note_on,,17,0,1,,,,,,,,,,,,,,,3,,,83,0
134393,note_on,,6,0,1,,,,,,,,,,,,,,,3,,,71,0
134400,note_on,,0,0,1,,,,,,,,,,,,,,,3,,,69,127
134400,note_on,,0,0,1,,,,,,,,,,,,,,,3,,,76,127
134400,note_on,,7,0,1,,,,,,,,,,,,,,,3,,,84,127
134423,note_on,,23,0,1,,,,,,,,,,,,,,,3,,,69,0
134430,note_on,,7,0,1,,,,,,,,,,,,,,,3,,,71,127
134447,note_on,,17,0,1,,,,,,,,,,,,,,,3,,,84,0
134447,note_on,,0,0,1,,,,,,,,,,,,,,,3,,,76,0
134453,note_on,,6,0,1,,,,,,,,,,,,,,,3,,,71,0
134460,note_on,,7,0,1,,,,,,,,,,,,,,,3,,,83,127
134460,note_on,,0,0,1,,,,,,,,,,,,,,,3,,,76,127
134460,note_on,,0,0,1,,,,,,,,,,,,,,,3,,,67,127
134483,note_on,,23,0,1,,,,,,,,,,,,,,,3,,,67,0
134490,note_on,,7,0,1,,,,,,,,,,,,,,,3,,,71,127
134507,note_on,,0,0,1,,,,,,,,,,,,,,,3,,,76,0
134507,note_on,,17,0,1,,,,,,,,,,,,,,,3,,,83,0
134513,note_on,,6,0,1,,,,,,,,,,,,,,,3,,,71,0
134520,note_on,,0,0,1,,,,,,,,,,,,,,,3,,,75,127
134520,note_on,,7,0,1,,,,,,,,,,,,,,,3,,,81,127
134520,note_on,,0,0,1,,,,,,,,,,,,,,,3,,,66,127
134543,note_on,,23,0,1,,,,,,,,,,,,,,,3,,,66,0
134550,note_on,,7,0,1,,,,,,,,,,,,,,,3,,,71,127
134567,note_on,,17,0,1,,,,,,,,,,,,,,,3,,,81,0
134567,note_on,,0,0,1,,,,,,,,,,,,,,,3,,,75,0
134573,note_on,,6,0,1,,,,,,,,,,,,,,,3,,,71,0
134580,note_on,,0,0,1,,,,,,,,,,,,,,,3,,,76,127
134580,note_on,,0,0,1,,,,,,,,,,,,,,,3,,,67,127
134580,note_on,,7,0,1,,,,,,,,,,,,,,,3,,,83,127
134603,note_on,,23,0,1,,,,,,,,,,,,,,,3,,,67,0
134610,note_on,,7,0,1,,,,,,,,,,,,,,,3,,,71,127
134627,note_on,,0,0,1,,,,,,,,,,,,,,,3,,,76,0
134627,note_on,,17,0,1,,,,,,,,,,,,,,,3,,,83,0
134633,note_on,,6,0,1,,,,,,,,,,,,,,,3,,,71,0
134640,note_on,,0,0,1,,,,,,,,,,,,,,,3,,,64,127
134640,note_on,,7,0,1,,,,,,,,,,,,,,,3,,,79,127
134663,note_on,,23,0,1,,,,,,,,,,,,,,,3,,,64,0
134670,note_on,,7,0,1,,,,,,,,,,,,,,,3,,,71,127
134687,note_on,,17,0,1,,,,,,,,,,,,,,,3,,,79,0
134693,note_on,,6,0,1,,,,,,,,,,,,,,,3,,,71,0
134700,note_on,,7,0,1,,,,,,,,,,,,,,,3,,,77,127
134700,note_on,,0,0,1,,,,,,,,,,,,,,,3,,,62,127
134723,note_on,,23,0,1,,,,,,,,,,,,,,,3,,,62,0
134730,note_on,,7,0,1,,,,,,,,,,,,,,,3,,,71,127
134747,note_on,,17,0,1,,,,,,,,,,,,,,,3,,,77,0
134753,note_on,,6,0,1,,,,,,,,,,,,,,,3,,,71,0
134760,note_on,,7,0,1,,,,,,,,,,,,,,,3,,,76,127
134760,note_on,,0,0,1,,,,,,,,,,,,,,,3,,,61,127
134790,note_on,,30,0,1,,,,,,,,,,,,,,,3,,,79,127
134807,note_on,,17,0,1,,,,,,,,,,,,,,,3,,,76,0
134807,note_on,,0,0,1,,,,,,,,,,,,,,,3,,,61,0
134813,note_on,,6,0,1,,,,,,,,,,,,,,,3,,,79,0
134820,note_on,,7,0,1,,,,,,,,,,,,,,,3,,,78,127
134820,note_on,,0,0,1,,,,,,,,,,,,,,,3,,,69,127
134843,note_on,,23,0,1,,,,,,,,,,,,,,,3,,,78,0
134850,note_on,,7,0,1,,,,,,,,,,,,,,,3,,,76,127
134867,note_on,,17,0,1,,,,,,,,,,,,,,,3,,,69,0
134873,note_on,,6,0,1,,,,,,,,,,,,,,,3,,,76,0
134880,note_on,,7,0,1,,,,,,,,,,,,,,,3,,,78,127
134880,note_on,,0,0,1,,,,,,,,,,,,,,,3,,,63,127
134880,note_on,,0,0,1,,,,,,,,,,,,,,,3,,,69,127
134903,note_on,,23,0,1,,,,,,,,,,,,,,,3,,,78,0
134910,note_on,,7,0,1,,,,,,,,,,,,,,,3,,,79,127
134927,note_on,,17,0,1,,,,,,,,,,,,,,,3,,,69,0
134927,note_on,,0,0,1,,,,,,,,,,,,,,,3,,,63,0
134933,note_on,,6,0,1,,,,,,,,,,,,,,,3,,,79,0
134940,note_on,,7,0,1,,,,,,,,,,,,,,,3,,,76,127
134940,note_on,,0,0,1,,,,,,,,,,,,,,,3,,,67,127
134940,note_on,,0,0,1,,,,,,,,,,,,,,,3,,,64,127
134963,note_on,,23,0,1,,,,,,,,,,,,,,,3,,,76,0
134970,note_on,,7,0,1,,,,,,,,,,,,,,,3,,,79,127
134987,note_on,,0,0,1,,,,,,,,,,,,,,,3,,,64,0
134987,note_on,,17,0,1,,,,,,,,,,,,,,,3,,,67,0
134993,note_on,,6,0,1,,,,,,,,,,,,,,,3,,,79,0
135000,note_on,,7,0,1,,,,,,,,,,,,,,,3,,,81,127
135000,note_on,,0,0,1,,,,,,,,,,,,,,,3,,,66,127
135000,note_on,,0,0,1,,,,,,,,,,,,,,,3,,,64,127
135023,note_on,,23,0,1,,,,,,,,,,,,,,,3,,,81,0
135030,note_on,,7,0,1,,,,,,,,,,,,,,,3,,,84,127
135030,note_on,,0,0,1,,,,,,,,,,,,,,,3,,,65,127
135031,note_on,,1,0,1,,,,,,,,,,,,,,,3,,,64,0
135044,note_on,,13,0,1,,,,,,,,,,,,,,,3,,,65,0
135045,note_on,,1,0,1,,,,,,,,,,,,,,,3,,,64,127
135047,note_on,,2,0,1,,,,,,,,,,,,,,,3,,,66,0
135053,note_on,,6,0,1,,,,,,,,,,,,,,,3,,,84,0
135059,note_on,,6,0,1,,,,,,,,,,,,,,,3,,,64,0
135060,note_on,,0,0,1,,,,,,,,,,,,,,,3,,,63,127
135060,note_on,,0,0,1,,,,,,,,,,,,,,,3,,,71,127
135060,note_on,,1,0,1,,,,,,,,,,,,,,,3,,,78,127
135083,note_on,,23,0,1,,,,,,,,,,,,,,,3,,,78,0
135090,note_on,,7,0,1,,,,,,,,,,,,,,,3,,,81,127
135107,note_on,,0,0,1,,,,,,,,,,,,,,,3,,,63,0
135107,note_on,,17,0,1,,,,,,,,,,,,,,,3,,,71,0
135113,note_on,,6,0,1,,,,,,,,,,,,,,,3,,,81,0
135120,note_on,,7,0,1,,,,,,,,,,,,,,,3,,,79,127
135120,note_on,,0,0,1,,,,,,,,,,,,,,,3,,,64,127
135150,note_on,,30,0,1,,,,,,,,,,,,,,,3,,,71,127
135167,note_on,,0,0,1,,,,,,,,,,,,,,,3,,,64,0
135167,note_on,,17,0,1,,,,,,,,,,,,,,,3,,,79,0
135173,note_on,,6,0,1,,,,,,,,,,,,,,,3,,,71,0
135180,note_on,,7,0,1,,,,,,,,,,,,,,,3,,,76,127
135203,note_on,,23,0,1,,,,,,,,,,,,,,,3,,,76,0
135210,note_on,,7,0,1,,,,,,,,,,,,,,,3,,,77,127
135233,note_on,,23,0,1,,,,,,,,,,,,,,,3,,,77,0
135240,note_on,,7,0,1,,,,,,,,,,,,,,,3,,,80,127
135240,note_on,,0,0,1,,,,,,,,,,,,,,,3,,,71,127
135240,note_on,,0,0,1,,,,,,,,,,,,,,,3,,,64,127
135263,note_on,,23,0,1,,,,,,,,,,,,,,,3,,,71,0
135270,note_on,,7,0,1,,,,,,,,,,,,,,,3,,,74,127
135287,note_on,,17,0,1,,,,,,,,,,,,,,,3,,,80,0
135287,note_on,,0,0,1,,,,,,,,,,,,,,,3,,,64,0
135293,note_on,,6,0,1,,,,,,,,,,,,,,,3,,,74,0
135300,note_on,,7,0,1,,,,,,,,,,,,,,,3,,,81,127
135300,note_on,,0,0,1,,,,,,,,,,,,,,,3,,,72,127
135300,note_on,,0,0,1,,,,,,,,,,,,,,,3,,,57,127
135323,note_on,,23,0,1,,,,,,,,,,,,,,,3,,,57,0
135330,note_on,,7,0,1,,,,,,,,,,,,,,,3,,,64,127
135347,note_on,,0,0,1,,,,,,,,,,,,,,,3,,,72,0
135347,note_on,,17,0,1,,,,,,,,,,,,,,,3,,,81,0
135353,note_on,,6,0,1,,,,,,,,,,,,,,,3,,,64,0
135360,note_on,,7,0,1,,,,,,,,,,,,,,,3,,,67,127
135383,note_on,,23,0,1,,,,,,,,,,,,,,,3,,,67,0
135390,note_on,,7,0,1,,,,,,,,,,,,,,,3,,,69,127
135413,note_on,,23,0,1,,,,,,,,,,,,,,,3,,,69,0
135420,note_on,,0,0,1,,,,,,,,,,,,,,,3,,,64,127
135420,note_on,,7,0,1,,,,,,,,,,,,,,,3,,,81,127
135420,note_on,,0,0,1,,,,,,,,,,,,,,,3,,,73,127
135443,note_on,,23,0,1,,,,,,,,,,,,,,,3,,,64,0
135450,note_on,,7,0,1,,,,,,,,,,,,,,,3,,,67,127
135467,note_on,,17,0,1,,,,,,,,,,,,,,,3,,,81,0
135467,note_on,,0,0,1,,,,,,,,,,,,,,,3,,,73,0
135473,note_on,,6,0,1,,,,,,,,,,,,,,,3,,,67,0
135480,note_on,,7,0,1,,,,,,,,,,,,,,,3,,,81,127
135480,note_on,,0,0,1,,,,,,,,,,,,,,,3,,,74,127
135480,note_on,,0,0,1,,,,,,,,,,,,,,,3,,,66,127
135503,note_on,,23,0,1,,,,,,,,,,,,,,,3,,,74,0
135510,note_on,,7,0,1,,,,,,,,,,,,,,,3,,,69,127
135527,note_on,,17,0,1,,,,,,,,,,,,,,,3,,,81,0
135527,note_on,,0,0,1,,,,,,,,,,,,,,,3,,,66,0
135533,note_on,,6,0,1,,,,,,,,,,,,,,,3,,,69,0
135540,note_on,,7,0,1,,,,,,,,,,,,,,,3,,,72,127
135563,note_on,,23,0,1,,,,,,,,,,,,,,,3,,,72,0
135570,note_on,,7,0,1,,,,,,,,,,,,,,,3,,,74,127
135593,note_on,,23,0,1,,,,,,,,,,,,,,,3,,,74,0
135600,note_on,,0,0,1,,,,,,,,,,,,,,,3,,,66,127
135600,note_on,,7,0,1,,,,,,,,,,,,,,,3,,,69,127
135623,note_on,,23,0,1,,,,,,,,,,,,,,,3,,,69,0
135630,note_on,,7,0,1,,,,,,,,,,,,,,,3,,,72,127
135647,note_on,,17,0,1,,,,,,,,,,,,,,,3,,,66,0
135653,note_on,,6,0,1,,,,,,,,,,,,,,,3,,,72,0
135660,note_on,,7,0,1,,,,,,,,,,,,,,,3,,,71,127
135660,note_on,,0,0,1,,,,,,,,,,,,,,,3,,,67,127
135690,note_on,,30,0,1,,,,,,,,,,,,,,,3,,,74,127
135707,note_on,,17,0,1,,,,,,,,,,,,,,,3,,,71,0
135707,note_on,,0,0,1,,,,,,,,,,,,,,,3,,,67,0
135713,note_on,,6,0,1,,,,,,,,,,,,,,,3,,,74,0
135720,note_on,,7,0,1,,,,,,,,,,,,,,,3,,,79,127
135743,note_on,,23,0,1,,,,,,,,,,,,,,,3,,,79,0
135750,note_on,,7,0,1,,,,,,,,,,,,,,,3,,,81,127
135773,note_on,,23,0,1,,,,,,,,,,,,,,,3,,,81,0
135780,note_on,,0,0,1,,,,,,,,,,,,,,,3,,,67,127
135780,note_on,,0,0,1,,,,,,,,,,,,,,,3,,,71,127
135780,note_on,,7,0,1,,,,,,,,,,,,,,,3,,,74,127
135803,note_on,,23,0,1,,,,,,,,,,,,,,,3,,,74,0
135810,note_on,,7,0,1,,,,,,,,,,,,,,,3,,,77,127
135827,note_on,,0,0,1,,,,,,,,,,,,,,,3,,,67,0
135827,note_on,,17,0,1,,,,,,,,,,,,,,,3,,,71,0
135833,note_on,,6,0,1,,,,,,,,,,,,,,,3,,,77,0
135840,note_on,,0,0,1,,,,,,,,,,,,,,,3,,,60,127
135840,note_on,,7,0,1,,,,,,,,,,,,,,,3,,,76,127
135870,note_on,,30,0,1,,,,,,,,,,,,,,,3,,,67,127
135887,note_on,,17,0,1,,,,,,,,,,,,,,,3,,,76,0
135887,note_on,,0,0,1,,,,,,,,,,,,,,,3,,,60,0
135893,note_on,,6,0,1,,,,,,,,,,,,,,,3,,,67,0
135900,note_on,,7,0,1,,,,,,,,,,,,,,,3,,,69,127
135923,note_on,,23,0,1,,,,,,,,,,,,,,,3,,,69,0
135930,note_on,,7,0,1,,,,,,,,,,,,,,,3,,,71,127
135953,note_on,,23,0,1,,,,,,,,,,,,,,,3,,,71,0
135960,note_on,,0,0,1,,,,,,,,,,,,,,,3,,,64,127
135960,note_on,,0,0,1,,,,,,,,,,,,,,,3,,,57,127
135960,note_on,,7,0,1,,,,,,,,,,,,,,,3,,,72,127
135983,note_on,,23,0,1,,,,,,,,,,,,,,,3,,,64,0
135990,note_on,,7,0,1,,,,,,,,,,,,,,,3,,,67,127
136007,note_on,,0,0,1,,,,,,,,,,,,,,,3,,,57,0
136007,note_on,,17,0,1,,,,,,,,,,,,,,,3,,,72,0
136013,note_on,,6,0,1,,,,,,,,,,,,,,,3,,,67,0
136020,note_on,,0,0,1,,,,,,,,,,,,,,,3,,,62,127
136020,note_on,,7,0,1,,,,,,,,,,,,,,,3,,,66,127
136050,note_on,,30,0,1,,,,,,,,,,,,,,,3,,,72,127
136067,note_on,,0,0,1,,,,,,,,,,,,,,,3,,,62,0
136067,note_on,,17,0,1,,,,,,,,,,,,,,,3,,,66,0
136073,note_on,,6,0,1,,,,,,,,,,,,,,,3,,,72,0
136080,note_on,,7,0,1,,,,,,,,,,,,,,,3,,,74,127
136103,note_on,,23,0,1,,,,,,,,,,,,,,,3,,,74,0
136110,note_on,,7,0,1,,,,,,,,,,,,,,,3,,,76,127
136133,note_on,,23,0,1,,,,,,,,,,,,,,,3,,,76,0
136140,note_on,,0,0,1,,,,,,,,,,,,,,,3,,,62,127
136140,note_on,,0,0,1,,,,,,,,,,,,,,,3,,,66,127
136140,note_on,,7,0,1,,,,,,,,,,,,,,,3,,,69,127
136163,note_on,,23,0,1,,,,,,,,,,,,,,,3,,,69,0
136170,note_on,,7,0,1,,,,,,,,,,,,,,,3,,,72,127
136187,note_on,,0,0,1,,,,,,,,,,,,,,,3,,,62,0
136187,note_on,,17,0,1,,,,,,,,,,,,,,,3,,,66,0
136193,note_on,,6,0,1,,,,,,,,,,,,,,,3,,,72,0
136200,note_on,,0,0,1,,,,,,,,,,,,,,,3,,,55,127
136200,note_on,,7,0,1,,,,,,,,,,,,,,,3,,,71,127
136230,note_on,,30,0,1,,,,,,,,,,,,,,,3,,,66,127
136247,note_on,,17,0,1,,,,,,,,,,,,,,,3,,,71,0
136247,note_on,,0,0,1,,,,,,,,,,,,,,,3,,,55,0
136253,note_on,,6,0,1,,,,,,,,,,,,,,,3,,,66,0
136260,note_on,,7,0,1,,,,,,,,,,,,,,,3,,,67,127
136283,note_on,,23,0,1,,,,,,,,,,,,,,,3,,,67,0
136290,note_on,,7,0,1,,,,,,,,,,,,,,,3,,,69,127
136313,note_on,,23,0,1,,,,,,,,,,,,,,,3,,,69,0
136320,note_on,,0,0,1,,,,,,,,,,,,,,,3,,,55,127
136320,note_on,,0,0,1,,,,,,,,,,,,,,,3,,,62,127
136320,note_on,,7,0,1,,,,,,,,,,,,,,,3,,,71,127
136343,note_on,,23,0,1,,,,,,,,,,,,,,,3,,,62,0
136350,note_on,,7,0,1,,,,,,,,,,,,,,,3,,,65,127
136367,note_on,,0,0,1,,,,,,,,,,,,,,,3,,,55,0
136367,note_on,,17,0,1,,,,,,,,,,,,,,,3,,,71,0
136373,note_on,,6,0,1,,,,,,,,,,,,,,,3,,,65,0
136380,note_on,,0,0,1,,,,,,,,,,,,,,,3,,,60,127
136380,note_on,,7,0,1,,,,,,,,,,,,,,,3,,,64,127
136410,note_on,,30,0,1,,,,,,,,,,,,,,,3,,,67,127
136427,note_on,,0,0,1,,,,,,,,,,,,,,,3,,,60,0
136427,note_on,,17,0,1,,,,,,,,,,,,,,,3,,,64,0
136433,note_on,,6,0,1,,,,,,,,,,,,,,,3,,,67,0
136440,note_on,,7,0,1,,,,,,,,,,,,,,,3,,,69,127
136463,note_on,,23,0,1,,,,,,,,,,,,,,,3,,,69,0
136470,note_on,,7,0,1,,,,,,,,,,,,,,,3,,,71,127
136493,note_on,,23,0,1,,,,,,,,,,,,,,,3,,,71,0
136500,note_on,,0,0,1,,,,,,,,,,,,,,,3,,,64,127
136500,note_on,,0,0,1,,,,,,,,,,,,,,,3,,,60,127
136500,note_on,,7,0,1,,,,,,,,,,,,,,,3,,,64,127
136523,note_on,,23,0,1,,,,,,,,,,,,,,,3,,,64,0
136530,note_on,,7,0,1,,,,,,,,,,,,,,,3,,,67,127
136547,note_on,,17,0,1,,,,,,,,,,,,,,,3,,,64,0
136547,note_on,,0,0,1,,,,,,,,,,,,,,,3,,,60,0
136553,note_on,,6,0,1,,,,,,,,,,,,,,,3,,,67,0
136560,note_on,,7,0,1,,,,,,,,,,,,,,,3,,,66,127
136560,note_on,,0,0,1,,,,,,,,,,,,,,,3,,,62,127
136560,note_on,,0,0,1,,,,,,,,,,,,,,,3,,,50,127
136560,note_on,,0,0,1,,,,,,,,,,,,,,,3,,,60,127
136607,note_on,,47,0,1,,,,,,,,,,,,,,,3,,,66,0
136607,note_on,,0,0,1,,,,,,,,,,,,,,,3,,,62,0
136607,note_on,,0,0,1,,,,,,,,,,,,,,,3,,,60,0
136607,note_on,,0,0,1,,,,,,,,,,,,,,,3,,,50,0
136620,note_on,,13,0,1,,,,,,,,,,,,,,,3,,,69,127
136620,note_on,,0,0,1,,,,,,,,,,,,,,,3,,,54,127
136643,note_on,,0,0,1,,,,,,,,,,,,,,,3,,,54,0
136643,note_on,,23,0,1,,,,,,,,,,,,,,,3,,,69,0
136650,note_on,,7,0,1,,,,,,,,,,,,,,,3,,,67,127
136650,note_on,,0,0,1,,,,,,,,,,,,,,,3,,,52,127
136673,note_on,,23,0,1,,,,,,,,,,,,,,,3,,,67,0
136673,note_on,,0,0,1,,,,,,,,,,,,,,,3,,,52,0
136680,note_on,,7,0,1,,,,,,,,,,,,,,,3,,,69,127
136680,note_on,,0,0,1,,,,,,,,,,,,,,,3,,,54,127
136727,note_on,,47,0,1,,,,,,,,,,,,,,,3,,,69,0
136727,note_on,,0,0,1,,,,,,,,,,,,,,,3,,,54,0
136740,note_on,,13,0,1,,,,,,,,,,,,,,,3,,,66,127
136740,note_on,,0,0,1,,,,,,,,,,,,,,,3,,,50,127
136787,note_on,,47,0,1,,,,,,,,,,,,,,,3,,,66,0
136787,note_on,,0,0,1,,,,,,,,,,,,,,,3,,,50,0
136800,note_on,,13,0,1,,,,,,,,,,,,,,,3,,,69,127
136800,note_on,,0,0,1,,,,,,,,,,,,,,,3,,,54,127
136847,note_on,,47,0,1,,,,,,,,,,,,,,,3,,,69,0
136847,note_on,,0,0,1,,,,,,,,,,,,,,,3,,,54,0
136860,note_on,,0,0,1,,,,,,,,,,,,,,,3,,,60,127
136860,note_on,,0,0,1,,,,,,,,,,,,,,,3,,,62,127
136860,note_on,,13,0,1,,,,,,,,,,,,,,,3,,,66,127
136860,note_on,,0,0,1,,,,,,,,,,,,,,,3,,,50,127
136907,note_on,,0,0,1,,,,,,,,,,,,,,,3,,,62,0
136907,note_on,,0,0,1,,,,,,,,,,,,,,,3,,,60,0
136907,note_on,,0,0,1,,,,,,,,,,,,,,,3,,,50,0
136907,note_on,,47,0,1,,,,,,,,,,,,,,,3,,,66,0
136920,note_on,,0,0,1,,,,,,,,,,,,,,,3,,,55,127
136920,note_on,,13,0,1,,,,,,,,,,,,,,,3,,,67,127
136920,note_on,,0,0,1,,,,,,,,,,,,,,,3,,,62,127
136920,note_on,,0,0,1,,,,,,,,,,,,,,,3,,,59,127
136943,note_on,,0,0,1,,,,,,,,,,,,,,,3,,,59,0
136943,note_on,,23,0,1,,,,,,,,,,,,,,,3,,,67,0
136950,note_on,,7,0,1,,,,,,,,,,,,,,,3,,,69,127
136950,note_on,,0,0,1,,,,,,,,,,,,,,,3,,,60,127
136967,note_on,,17,0,1,,,,,,,,,,,,,,,3,,,62,0
136967,note_on,,0,0,1,,,,,,,,,,,,,,,3,,,55,0
136973,note_on,,6,0,1,,,,,,,,,,,,,,,3,,,69,0
136973,note_on,,0,0,1,,,,,,,,,,,,,,,3,,,60,0
136980,note_on,,7,0,1,,,,,,,,,,,,,,,3,,,71,127
136980,note_on,,0,0,1,,,,,,,,,,,,,,,3,,,62,127
137003,note_on,,23,0,1,,,,,,,,,,,,,,,3,,,71,0
137003,note_on,,0,0,1,,,,,,,,,,,,,,,3,,,62,0
137010,note_on,,7,0,1,,,,,,,,,,,,,,,3,,,69,127
137010,note_on,,0,0,1,,,,,,,,,,,,,,,3,,,60,127
137033,note_on,,0,0,1,,,,,,,,,,,,,,,3,,,60,0
137033,note_on,,23,0,1,,,,,,,,,,,,,,,3,,,69,0
137040,note_on,,7,0,1,,,,,,,,,,,,,,,3,,,67,127
137040,note_on,,0,0,1,,,,,,,,,,,,,,,3,,,59,127
137063,note_on,,23,0,1,,,,,,,,,,,,,,,3,,,67,0
137063,note_on,,0,0,1,,,,,,,,,,,,,,,3,,,59,0
137070,note_on,,7,0,1,,,,,,,,,,,,,,,3,,,66,127
137070,note_on,,0,0,1,,,,,,,,,,,,,,,3,,,57,127
137093,note_on,,23,0,1,,,,,,,,,,,,,,,3,,,66,0
137093,note_on,,0,0,1,,,,,,,,,,,,,,,3,,,57,0
137100,note_on,,7,0,1,,,,,,,,,,,,,,,3,,,67,127
137100,note_on,,0,0,1,,,,,,,,,,,,,,,3,,,59,127
137123,note_on,,23,0,1,,,,,,,,,,,,,,,3,,,59,0
137130,note_on,,7,0,1,,,,,,,,,,,,,,,3,,,60,127
137147,note_on,,17,0,1,,,,,,,,,,,,,,,3,,,67,0
137153,note_on,,6,0,1,,,,,,,,,,,,,,,3,,,60,0
137160,note_on,,0,0,1,,,,,,,,,,,,,,,3,,,62,127
137160,note_on,,7,0,1,,,,,,,,,,,,,,,3,,,71,127
137183,note_on,,23,0,1,,,,,,,,,,,,,,,3,,,62,0
137190,note_on,,7,0,1,,,,,,,,,,,,,,,3,,,60,127
137207,note_on,,17,0,1,,,,,,,,,,,,,,,3,,,71,0
137213,note_on,,6,0,1,,,,,,,,,,,,,,,3,,,60,0
137220,note_on,,0,0,1,,,,,,,,,,,,,,,3,,,59,127
137220,note_on,,0,0,1,,,,,,,,,,,,,,,3,,,55,127
137220,note_on,,7,0,1,,,,,,,,,,,,,,,3,,,67,127
137220,note_on,,0,0,1,,,,,,,,,,,,,,,3,,,62,127
137243,note_on,,23,0,1,,,,,,,,,,,,,,,3,,,59,0
137250,note_on,,7,0,1,,,,,,,,,,,,,,,3,,,60,127
137267,note_on,,17,0,1,,,,,,,,,,,,,,,3,,,67,0
137267,note_on,,0,0,1,,,,,,,,,,,,,,,3,,,62,0
137267,note_on,,0,0,1,,,,,,,,,,,,,,,3,,,55,0
137273,note_on,,6,0,1,,,,,,,,,,,,,,,3,,,60,0
137280,note_on,,7,0,1,,,,,,,,,,,,,,,3,,,74,127
137280,note_on,,0,0,1,,,,,,,,,,,,,,,3,,,62,127
137280,note_on,,0,0,1,,,,,,,,,,,,,,,3,,,57,127
137280,note_on,,0,0,1,,,,,,,,,,,,,,,3,,,54,127
137327,note_on,,47,0,1,,,,,,,,,,,,,,,3,,,74,0
137327,note_on,,0,0,1,,,,,,,,,,,,,,,3,,,57,0
137327,note_on,,0,0,1,,,,,,,,,,,,,,,3,,,54,0
137327,note_on,,0,0,1,,,,,,,,,,,,,,,3,,,62,0
137340,note_on,,13,0,1,,,,,,,,,,,,,,,3,,,66,127
137340,note_on,,0,0,1,,,,,,,,,,,,,,,3,,,57,127
137363,note_on,,23,0,1,,,,,,,,,,,,,,,3,,,66,0
137363,note_on,,0,0,1,,,,,,,,,,,,,,,3,,,57,0
137370,note_on,,0,0,1,,,,,,,,,,,,,,,3,,,55,127
137370,note_on,,7,0,1,,,,,,,,,,,,,,,3,,,64,127
137393,note_on,,0,0,1,,,,,,,,,,,,,,,3,,,55,0
137393,note_on,,23,0,1,,,,,,,,,,,,,,,3,,,64,0
137400,note_on,,7,0,1,,,,,,,,,,,,,,,3,,,66,127
137400,note_on,,0,0,1,,,,,,,,,,,,,,,3,,,57,127
137447,note_on,,47,0,1,,,,,,,,,,,,,,,3,,,66,0
137447,note_on,,0,0,1,,,,,,,,,,,,,,,3,,,57,0
137460,note_on,,13,0,1,,,,,,,,,,,,,,,3,,,62,127
137460,note_on,,0,0,1,,,,,,,,,,,,,,,3,,,54,127
137507,note_on,,0,0,1,,,,,,,,,,,,,,,3,,,54,0
137507,note_on,,47,0,1,,,,,,,,,,,,,,,3,,,62,0
137520,note_on,,13,0,1,,,,,,,,,,,,,,,3,,,66,127
137520,note_on,,0,0,1,,,,,,,,,,,,,,,3,,,57,127
137567,note_on,,47,0,1,,,,,,,,,,,,,,,3,,,66,0
137567,note_on,,0,0,1,,,,,,,,,,,,,,,3,,,57,0
137580,note_on,,13,0,1,,,,,,,,,,,,,,,3,,,74,127
137580,note_on,,0,0,1,,,,,,,,,,,,,,,3,,,62,127
137580,note_on,,0,0,1,,,,,,,,,,,,,,,3,,,57,127
137580,note_on,,0,0,1,,,,,,,,,,,,,,,3,,,54,127
137627,note_on,,47,0,1,,,,,,,,,,,,,,,3,,,74,0
137627,note_on,,0,0,1,,,,,,,,,,,,,,,3,,,62,0
137627,note_on,,0,0,1,,,,,,,,,,,,,,,3,,,57,0
137627,note_on,,0,0,1,,,,,,,,,,,,,,,3,,,54,0
137640,note_on,,13,0,1,,,,,,,,,,,,,,,3,,,79,127
137640,note_on,,0,0,1,,,,,,,,,,,,,,,3,,,62,127
137640,note_on,,0,0,1,,,,,,,,,,,,,,,3,,,59,127
137640,note_on,,0,0,1,,,,,,,,,,,,,,,3,,,59,127
137663,note_on,,0,0,1,,,,,,,,,,,,,,,3,,,59,0
137663,note_on,,23,0,1,,,,,,,,,,,,,,,3,,,79,0
137670,note_on,,0,0,1,,,,,,,,,,,,,,,3,,,60,127
137670,note_on,,7,0,1,,,,,,,,,,,,,,,3,,,81,127
137687,note_on,,17,0,1,,,,,,,,,,,,,,,3,,,62,0
137687,note_on,,0,0,1,,,,,,,,,,,,,,,3,,,59,0
137693,note_on,,6,0,1,,,,,,,,,,,,,,,3,,,81,0
137693,note_on,,0,0,1,,,,,,,,,,,,,,,3,,,60,0
137700,note_on,,7,0,1,,,,,,,,,,,,,,,3,,,83,127
137700,note_on,,0,0,1,,,,,,,,,,,,,,,3,,,62,127
137723,note_on,,23,0,1,,,,,,,,,,,,,,,3,,,83,0
137723,note_on,,0,0,1,,,,,,,,,,,,,,,3,,,62,0
137730,note_on,,7,0,1,,,,,,,,,,,,,,,3,,,81,127
137730,note_on,,0,0,1,,,,,,,,,,,,,,,3,,,60,127
137753,note_on,,23,0,1,,,,,,,,,,,,,,,3,,,81,0
137753,note_on,,0,0,1,,,,,,,,,,,,,,,3,,,60,0
137760,note_on,,7,0,1,,,,,,,,,,,,,,,3,,,79,127
137760,note_on,,0,0,1,,,,,,,,,,,,,,,3,,,59,127
137783,note_on,,0,0,1,,,,,,,,,,,,,,,3,,,59,0
137783,note_on,,23,0,1,,,,,,,,,,,,,,,3,,,79,0
137790,note_on,,7,0,1,,,,,,,,,,,,,,,3,,,78,127
137790,note_on,,0,0,1,,,,,,,,,,,,,,,3,,,57,127
137813,note_on,,23,0,1,,,,,,,,,,,,,,,3,,,78,0
137813,note_on,,0,0,1,,,,,,,,,,,,,,,3,,,57,0
137820,note_on,,7,0,1,,,,,,,,,,,,,,,3,,,79,127
137820,note_on,,0,0,1,,,,,,,,,,,,,,,3,,,59,127
137843,note_on,,23,0,1,,,,,,,,,,,,,,,3,,,79,0
137843,note_on,,0,0,1,,,,,,,,,,,,,,,3,,,59,0
137850,note_on,,7,0,1,,,,,,,,,,,,,,,3,,,81,127
137850,note_on,,0,0,1,,,,,,,,,,,,,,,3,,,60,127
137873,note_on,,23,0,1,,,,,,,,,,,,,,,3,,,81,0
137873,note_on,,0,0,1,,,,,,,,,,,,,,,3,,,60,0
137880,note_on,,7,0,1,,,,,,,,,,,,,,,3,,,83,127
137880,note_on,,0,0,1,,,,,,,,,,,,,,,3,,,62,127
137903,note_on,,23,0,1,,,,,,,,,,,,,,,3,,,83,0
137903,note_on,,0,0,1,,,,,,,,,,,,,,,3,,,62,0
137910,note_on,,7,0,1,,,,,,,,,,,,,,,3,,,81,127
137910,note_on,,0,0,1,,,,,,,,,,,,,,,3,,,60,127
137933,note_on,,23,0,1,,,,,,,,,,,,,,,3,,,81,0
137933,note_on,,0,0,1,,,,,,,,,,,,,,,3,,,60,0
137940,note_on,,0,0,1,,,,,,,,,,,,,,,3,,,59,127
137940,note_on,,7,0,1,,,,,,,,,,,,,,,3,,,79,127
137940,note_on,,0,0,1,,,,,,,,,,,,,,,3,,,59,127
137940,note_on,,0,0,1,,,,,,,,,,,,,,,3,,,62,127
137963,note_on,,23,0,1,,,,,,,,,,,,,,,3,,,79,0
137963,note_on,,0,0,1,,,,,,,,,,,,,,,3,,,59,0
137970,note_on,,7,0,1,,,,,,,,,,,,,,,3,,,78,127
137970,note_on,,0,0,1,,,,,,,,,,,,,,,3,,,57,127
137987,note_on,,17,0,1,,,,,,,,,,,,,,,3,,,62,0
137987,note_on,,0,0,1,,,,,,,,,,,,,,,3,,,59,0
137993,note_on,,6,0,1,,,,,,,,,,,,,,,3,,,78,0
137993,note_on,,0,0,1,,,,,,,,,,,,,,,3,,,57,0
138000,note_on,,7,0,1,,,,,,,,,,,,,,,3,,,76,127
138000,note_on,,0,0,1,,,,,,,,,,,,,,,3,,,71,127
138000,note_on,,0,0,1,,,,,,,,,,,,,,,3,,,59,127
138000,note_on,,0,0,1,,,,,,,,,,,,,,,3,,,55,127
138023,note_on,,23,0,1,,,,,,,,,,,,,,,3,,,76,0
138030,note_on,,7,0,1,,,,,,,,,,,,,,,3,,,78,127
138047,note_on,,17,0,1,,,,,,,,,,,,,,,3,,,71,0
138047,note_on,,0,0,1,,,,,,,,,,,,,,,3,,,59,0
138047,note_on,,0,0,1,,,,,,,,,,,,,,,3,,,55,0
138053,note_on,,6,0,1,,,,,,,,,,,,,,,3,,,78,0
138060,note_on,,0,0,1,,,,,,,,,,,,,,,3,,,59,127
138060,note_on,,7,0,1,,,,,,,,,,,,,,,3,,,79,127
138083,note_on,,23,0,1,,,,,,,,,,,,,,,3,,,79,0
138083,note_on,,0,0,1,,,,,,,,,,,,,,,3,,,59,0
138090,note_on,,7,0,1,,,,,,,,,,,,,,,3,,,78,127
138090,note_on,,0,0,1,,,,,,,,,,,,,,,3,,,57,127
138113,note_on,,23,0,1,,,,,,,,,,,,,,,3,,,78,0
138113,note_on,,0,0,1,,,,,,,,,,,,,,,3,,,57,0
138120,note_on,,7,0,1,,,,,,,,,,,,,,,3,,,76,127
138120,note_on,,0,0,1,,,,,,,,,,,,,,,3,,,59,127
138143,note_on,,23,0,1,,,,,,,,,,,,,,,3,,,76,0
138150,note_on,,7,0,1,,,,,,,,,,,,,,,3,,,74,127
138167,note_on,,17,0,1,,,,,,,,,,,,,,,3,,,59,0
138173,note_on,,6,0,1,,,,,,,,,,,,,,,3,,,74,0
138180,note_on,,7,0,1,,,,,,,,,,,,,,,3,,,76,127
138180,note_on,,0,0,1,,,,,,,,,,,,,,,3,,,71,127
138180,note_on,,0,0,1,,,,,,,,,,,,,,,3,,,67,127
138180,note_on,,0,0,1,,,,,,,,,,,,,,,3,,,55,127
138203,note_on,,23,0,1,,,,,,,,,,,,,,,3,,,76,0
138210,note_on,,7,0,1,,,,,,,,,,,,,,,3,,,78,127
138227,note_on,,17,0,1,,,,,,,,,,,,,,,3,,,71,0
138227,note_on,,0,0,1,,,,,,,,,,,,,,,3,,,67,0
138227,note_on,,0,0,1,,,,,,,,,,,,,,,3,,,55,0
138233,note_on,,6,0,1,,,,,,,,,,,,,,,3,,,78,0
138240,note_on,,7,0,1,,,,,,,,,,,,,,,3,,,79,127
138240,note_on,,0,0,1,,,,,,,,,,,,,,,3,,,59,127
138263,note_on,,23,0,1,,,,,,,,,,,,,,,3,,,79,0
138270,note_on,,7,0,1,,,,,,,,,,,,,,,3,,,78,127
138287,note_on,,17,0,1,,,,,,,,,,,,,,,3,,,59,0
138293,note_on,,6,0,1,,,,,,,,,,,,,,,3,,,78,0
138300,note_on,,0,0,1,,,,,,,,,,,,,,,3,,,73,127
138300,note_on,,0,0,1,,,,,,,,,,,,,,,3,,,67,127
138300,note_on,,0,0,1,,,,,,,,,,,,,,,3,,,55,127
138300,note_on,,7,0,1,,,,,,,,,,,,,,,3,,,76,127
138323,note_on,,23,0,1,,,,,,,,,,,,,,,3,,,76,0
138330,note_on,,7,0,1,,,,,,,,,,,,,,,3,,,79,127
138347,note_on,,17,0,1,,,,,,,,,,,,,,,3,,,73,0
138347,note_on,,0,0,1,,,,,,,,,,,,,,,3,,,67,0
138347,note_on,,0,0,1,,,,,,,,,,,,,,,3,,,55,0
138353,note_on,,6,0,1,,,,,,,,,,,,,,,3,,,79,0
138360,note_on,,7,0,1,,,,,,,,,,,,,,,3,,,78,127
138360,note_on,,0,0,1,,,,,,,,,,,,,,,3,,,74,127
138360,note_on,,0,0,1,,,,,,,,,,,,,,,3,,,69,127
138360,note_on,,0,0,1,,,,,,,,,,,,,,,3,,,62,127
138383,note_on,,23,0,1,,,,,,,,,,,,,,,3,,,78,0
138383,note_on,,0,0,1,,,,,,,,,,,,,,,3,,,69,0
138390,note_on,,0,0,1,,,,,,,,,,,,,,,3,,,71,127
138390,note_on,,7,0,1,,,,,,,,,,,,,,,3,,,79,127
138407,note_on,,17,0,1,,,,,,,,,,,,,,,3,,,74,0
138407,note_on,,0,0,1,,,,,,,,,,,,,,,3,,,62,0
138413,note_on,,6,0,1,,,,,,,,,,,,,,,3,,,79,0
138413,note_on,,0,0,1,,,,,,,,,,,,,,,3,,,71,0
138420,note_on,,7,0,1,,,,,,,,,,,,,,,3,,,81,127
138420,note_on,,0,0,1,,,,,,,,,,,,,,,3,,,72,127
138443,note_on,,23,0,1,,,,,,,,,,,,,,,3,,,81,0
138443,note_on,,0,0,1,,,,,,,,,,,,,,,3,,,72,0
138450,note_on,,0,0,1,,,,,,,,,,,,,,,3,,,71,127
138450,note_on,,7,0,1,,,,,,,,,,,,,,,3,,,79,127
138473,note_on,,23,0,1,,,,,,,,,,,,,,,3,,,79,0
138473,note_on,,0,0,1,,,,,,,,,,,,,,,3,,,71,0
138480,note_on,,7,0,1,,,,,,,,,,,,,,,3,,,78,127
138480,note_on,,0,0,1,,,,,,,,,,,,,,,3,,,69,127
138503,note_on,,0,0,1,,,,,,,,,,,,,,,3,,,69,0
138503,note_on,,23,0,1,,,,,,,,,,,,,,,3,,,78,0
138510,note_on,,7,0,1,,,,,,,,,,,,,,,3,,,76,127
138510,note_on,,0,0,1,,,,,,,,,,,,,,,3,,,67,127
138533,note_on,,23,0,1,,,,,,,,,,,,,,,3,,,76,0
138533,note_on,,0,0,1,,,,,,,,,,,,,,,3,,,67,0
138540,note_on,,7,0,1,,,,,,,,,,,,,,,3,,,78,127
138540,note_on,,0,0,1,,,,,,,,,,,,,,,3,,,74,127
138540,note_on,,0,0,1,,,,,,,,,,,,,,,3,,,69,127
138563,note_on,,23,0,1,,,,,,,,,,,,,,,3,,,78,0
138570,note_on,,7,0,1,,,,,,,,,,,,,,,3,,,79,127
138587,note_on,,17,0,1,,,,,,,,,,,,,,,3,,,74,0
138587,note_on,,0,0,1,,,,,,,,,,,,,,,3,,,69,0
138593,note_on,,6,0,1,,,,,,,,,,,,,,,3,,,79,0
138600,note_on,,7,0,1,,,,,,,,,,,,,,,3,,,81,127
138600,note_on,,0,0,1,,,,,,,,,,,,,,,3,,,66,127
138600,note_on,,0,0,1,,,,,,,,,,,,,,,3,,,62,127
138623,note_on,,23,0,1,,,,,,,,,,,,,,,3,,,81,0
138630,note_on,,7,0,1,,,,,,,,,,,,,,,3,,,79,127
138647,note_on,,0,0,1,,,,,,,,,,,,,,,3,,,62,0
138647,note_on,,17,0,1,,,,,,,,,,,,,,,3,,,66,0
138653,note_on,,6,0,1,,,,,,,,,,,,,,,3,,,79,0
138660,note_on,,0,0,1,,,,,,,,,,,,,,,3,,,66,127
138660,note_on,,0,0,1,,,,,,,,,,,,,,,3,,,69,127
138660,note_on,,7,0,1,,,,,,,,,,,,,,,3,,,78,127
138660,note_on,,0,0,1,,,,,,,,,,,,,,,3,,,62,127
138683,note_on,,23,0,1,,,,,,,,,,,,,,,3,,,78,0
138690,note_on,,7,0,1,,,,,,,,,,,,,,,3,,,76,127
138707,note_on,,0,0,1,,,,,,,,,,,,,,,3,,,62,0
138707,note_on,,0,0,1,,,,,,,,,,,,,,,3,,,66,0
138707,note_on,,17,0,1,,,,,,,,,,,,,,,3,,,69,0
138713,note_on,,6,0,1,,,,,,,,,,,,,,,3,,,76,0
138720,note_on,,0,0,1,,,,,,,,,,,,,,,3,,,71,127
138720,note_on,,7,0,1,,,,,,,,,,,,,,,3,,,74,127
138720,note_on,,0,0,1,,,,,,,,,,,,,,,3,,,59,127
138720,note_on,,0,0,1,,,,,,,,,,,,,,,3,,,67,127
138743,note_on,,23,0,1,,,,,,,,,,,,,,,3,,,74,0
138743,note_on,,0,0,1,,,,,,,,,,,,,,,3,,,59,0
138750,note_on,,7,0,1,,,,,,,,,,,,,,,3,,,79,127
138750,note_on,,0,0,1,,,,,,,,,,,,,,,3,,,62,127
138767,note_on,,17,0,1,,,,,,,,,,,,,,,3,,,71,0
138767,note_on,,0,0,1,,,,,,,,,,,,,,,3,,,67,0
138773,note_on,,6,0,1,,,,,,,,,,,,,,,3,,,79,0
138773,note_on,,0,0,1,,,,,,,,,,,,,,,3,,,62,0
138780,note_on,,0,0,1,,,,,,,,,,,,,,,3,,,55,127
138780,note_on,,7,0,1,,,,,,,,,,,,,,,3,,,71,127
138803,note_on,,0,0,1,,,,,,,,,,,,,,,3,,,55,0
138803,note_on,,23,0,1,,,,,,,,,,,,,,,3,,,71,0
138810,note_on,,7,0,1,,,,,,,,,,,,,,,3,,,79,127
138810,note_on,,0,0,1,,,,,,,,,,,,,,,3,,,62,127
138833,note_on,,23,0,1,,,,,,,,,,,,,,,3,,,79,0
138833,note_on,,0,0,1,,,,,,,,,,,,,,,3,,,62,0
138840,note_on,,7,0,1,,,,,,,,,,,,,,,3,,,72,127
138840,note_on,,0,0,1,,,,,,,,,,,,,,,3,,,57,127
138863,note_on,,23,0,1,,,,,,,,,,,,,,,3,,,72,0
138863,note_on,,0,0,1,,,,,,,,,,,,,,,3,,,57,0
138870,note_on,,0,0,1,,,,,,,,,,,,,,,3,,,62,127
138870,note_on,,7,0,1,,,,,,,,,,,,,,,3,,,79,127
138893,note_on,,0,0,1,,,,,,,,,,,,,,,3,,,62,0
138893,note_on,,23,0,1,,,,,,,,,,,,,,,3,,,79,0
138900,note_on,,0,0,1,,,,,,,,,,,,,,,3,,,62,127
138900,note_on,,0,0,1,,,,,,,,,,,,,,,3,,,59,127
138900,note_on,,0,0,1,,,,,,,,,,,,,,,3,,,67,127
138900,note_on,,7,0,1,,,,,,,,,,,,,,,3,,,74,127
138923,note_on,,23,0,1,,,,,,,,,,,,,,,3,,,74,0
138923,note_on,,0,0,1,,,,,,,,,,,,,,,3,,,59,0
138930,note_on,,0,0,1,,,,,,,,,,,,,,,3,,,62,127
138930,note_on,,7,0,1,,,,,,,,,,,,,,,3,,,79,127
138947,note_on,,0,0,1,,,,,,,,,,,,,,,3,,,62,0
138947,note_on,,17,0,1,,,,,,,,,,,,,,,3,,,67,0
138953,note_on,,0,0,1,,,,,,,,,,,,,,,3,,,62,0
138953,note_on,,6,0,1,,,,,,,,,,,,,,,3,,,79,0
138960,note_on,,7,0,1,,,,,,,,,,,,,,,3,,,72,127
138960,note_on,,0,0,1,,,,,,,,,,,,,,,3,,,57,127
138983,note_on,,0,0,1,,,,,,,,,,,,,,,3,,,57,0
138983,note_on,,23,0,1,,,,,,,,,,,,,,,3,,,72,0
138990,note_on,,7,0,1,,,,,,,,,,,,,,,3,,,79,127
138990,note_on,,0,0,1,,,,,,,,,,,,,,,3,,,62,127
139013,note_on,,0,0,1,,,,,,,,,,,,,,,3,,,62,0
139013,note_on,,23,0,1,,,,,,,,,,,,,,,3,,,79,0
139020,note_on,,7,0,1,,,,,,,,,,,,,,,3,,,74,127
139020,note_on,,0,0,1,,,,,,,,,,,,,,,3,,,67,127
139020,note_on,,0,0,1,,,,,,,,,,,,,,,3,,,62,127
139020,note_on,,0,0,1,,,,,,,,,,,,,,,3,,,59,127
139043,note_on,,23,0,1,,,,,,,,,,,,,,,3,,,74,0
139043,note_on,,0,0,1,,,,,,,,,,,,,,,3,,,59,0
139050,note_on,,0,0,1,,,,,,,,,,,,,,,3,,,62,127
139050,note_on,,7,0,1,,,,,,,,,,,,,,,3,,,79,127
139067,note_on,,17,0,1,,,,,,,,,,,,,,,3,,,67,0
139067,note_on,,0,0,1,,,,,,,,,,,,,,,3,,,62,0
139073,note_on,,6,0,1,,,,,,,,,,,,,,,3,,,79,0
139073,note_on,,0,0,1,,,,,,,,,,,,,,,3,,,62,0
139080,note_on,,0,0,1,,,,,,,,,,,,,,,3,,,60,127
139080,note_on,,0,0,1,,,,,,,,,,,,,,,3,,,60,127
139080,note_on,,7,0,1,,,,,,,,,,,,,,,3,,,76,127
139080,note_on,,0,0,1,,,,,,,,,,,,,,,3,,,67,127
139103,note_on,,23,0,1,,,,,,,,,,,,,,,3,,,76,0
139103,note_on,,0,0,1,,,,,,,,,,,,,,,3,,,60,0
139110,note_on,,0,0,1,,,,,,,,,,,,,,,3,,,62,127
139110,note_on,,7,0,1,,,,,,,,,,,,,,,3,,,79,127
139127,note_on,,17,0,1,,,,,,,,,,,,,,,3,,,67,0
139127,note_on,,0,0,1,,,,,,,,,,,,,,,3,,,60,0
139133,note_on,,6,0,1,,,,,,,,,,,,,,,3,,,79,0
139133,note_on,,0,0,1,,,,,,,,,,,,,,,3,,,62,0
139140,note_on,,7,0,1,,,,,,,,,,,,,,,3,,,74,127
139140,note_on,,0,0,1,,,,,,,,,,,,,,,3,,,62,127
139140,note_on,,0,0,1,,,,,,,,,,,,,,,3,,,59,127
139140,note_on,,0,0,1,,,,,,,,,,,,,,,3,,,67,127
139163,note_on,,0,0,1,,,,,,,,,,,,,,,3,,,59,0
139163,note_on,,23,0,1,,,,,,,,,,,,,,,3,,,74,0
139170,note_on,,7,0,1,,,,,,,,,,,,,,,3,,,79,127
139170,note_on,,0,0,1,,,,,,,,,,,,,,,3,,,62,127
139187,note_on,,0,0,1,,,,,,,,,,,,,,,3,,,62,0
139187,note_on,,17,0,1,,,,,,,,,,,,,,,3,,,67,0
139193,note_on,,0,0,1,,,,,,,,,,,,,,,3,,,62,0
139193,note_on,,6,0,1,,,,,,,,,,,,,,,3,,,79,0
139200,note_on,,0,0,1,,,,,,,,,,,,,,,3,,,57,127
139200,note_on,,0,0,1,,,,,,,,,,,,,,,3,,,66,127
139200,note_on,,0,0,1,,,,,,,,,,,,,,,3,,,69,127
139200,note_on,,7,0,1,,,,,,,,,,,,,,,3,,,72,127
139223,note_on,,23,0,1,,,,,,,,,,,,,,,3,,,72,0
139223,note_on,,0,0,1,,,,,,,,,,,,,,,3,,,57,0
139230,note_on,,0,0,1,,,,,,,,,,,,,,,3,,,62,127
139230,note_on,,7,0,1,,,,,,,,,,,,,,,3,,,79,127
139247,note_on,,0,0,1,,,,,,,,,,,,,,,3,,,66,0
139247,note_on,,17,0,1,,,,,,,,,,,,,,,3,,,69,0
139253,note_on,,0,0,1,,,,,,,,,,,,,,,3,,,62,0
139253,note_on,,6,0,1,,,,,,,,,,,,,,,3,,,79,0
139260,note_on,,0,0,1,,,,,,,,,,,,,,,3,,,62,127
139260,note_on,,0,0,1,,,,,,,,,,,,,,,3,,,67,127
139260,note_on,,0,0,1,,,,,,,,,,,,,,,3,,,59,127
139260,note_on,,7,0,1,,,,,,,,,,,,,,,3,,,74,127
139283,note_on,,23,0,1,,,,,,,,,,,,,,,3,,,74,0
139283,note_on,,0,0,1,,,,,,,,,,,,,,,3,,,59,0
139290,note_on,,0,0,1,,,,,,,,,,,,,,,3,,,62,127
139290,note_on,,7,0,1,,,,,,,,,,,,,,,3,,,79,127
139307,note_on,,0,0,1,,,,,,,,,,,,,,,3,,,62,0
139307,note_on,,17,0,1,,,,,,,,,,,,,,,3,,,67,0
139313,note_on,,6,0,1,,,,,,,,,,,,,,,3,,,79,0
139313,note_on,,0,0,1,,,,,,,,,,,,,,,3,,,62,0
139320,note_on,,0,0,1,,,,,,,,,,,,,,,3,,,55,127
139320,note_on,,0,0,1,,,,,,,,,,,,,,,3,,,62,127
139320,note_on,,0,0,1,,,,,,,,,,,,,,,3,,,67,127
139320,note_on,,7,0,1,,,,,,,,,,,,,,,3,,,71,127
139343,note_on,,0,0,1,,,,,,,,,,,,,,,3,,,55,0
139343,note_on,,23,0,1,,,,,,,,,,,,,,,3,,,71,0
139350,note_on,,0,0,1,,,,,,,,,,,,,,,3,,,62,127
139350,note_on,,7,0,1,,,,,,,,,,,,,,,3,,,79,127
139367,note_on,,0,0,1,,,,,,,,,,,,,,,3,,,62,0
139367,note_on,,17,0,1,,,,,,,,,,,,,,,3,,,67,0
139373,note_on,,0,0,1,,,,,,,,,,,,,,,3,,,62,0
139373,note_on,,6,0,1,,,,,,,,,,,,,,,3,,,79,0
139380,note_on,,0,0,1,,,,,,,,,,,,,,,3,,,62,127
139380,note_on,,0,0,1,,,,,,,,,,,,,,,3,,,59,127
139380,note_on,,7,0,1,,,,,,,,,,,,,,,3,,,67,127
139380,note_on,,0,0,1,,,,,,,,,,,,,,,3,,,53,127
139403,note_on,,23,0,1,,,,,,,,,,,,,,,3,,,67,0
139403,note_on,,0,0,1,,,,,,,,,,,,,,,3,,,53,0
139410,note_on,,7,0,1,,,,,,,,,,,,,,,3,,,79,127
139410,note_on,,0,0,1,,,,,,,,,,,,,,,3,,,62,127
139427,note_on,,17,0,1,,,,,,,,,,,,,,,3,,,62,0
139427,note_on,,0,0,1,,,,,,,,,,,,,,,3,,,59,0
139433,note_on,,6,0,1,,,,,,,,,,,,,,,3,,,79,0
139433,note_on,,0,0,1,,,,,,,,,,,,,,,3,,,62,0
139440,note_on,,7,0,1,,,,,,,,,,,,,,,3,,,72,127
139440,note_on,,0,0,1,,,,,,,,,,,,,,,3,,,64,127
139440,note_on,,0,0,1,,,,,,,,,,,,,,,3,,,55,127
139440,note_on,,0,0,1,,,,,,,,,,,,,,,3,,,52,127
139463,note_on,,23,0,1,,,,,,,,,,,,,,,3,,,72,0
139470,note_on,,7,0,1,,,,,,,,,,,,,,,3,,,74,127
139487,note_on,,17,0,1,,,,,,,,,,,,,,,3,,,64,0
139487,note_on,,0,0,1,,,,,,,,,,,,,,,3,,,52,0
139487,note_on,,0,0,1,,,,,,,,,,,,,,,3,,,55,0
139493,note_on,,6,0,1,,,,,,,,,,,,,,,3,,,74,0
139500,note_on,,0,0,1,,,,,,,,,,,,,,,3,,,67,127
139500,note_on,,0,0,1,,,,,,,,,,,,,,,3,,,55,127
139500,note_on,,0,0,1,,,,,,,,,,,,,,,3,,,60,127
139500,note_on,,7,0,1,,,,,,,,,,,,,,,3,,,76,127
139523,note_on,,23,0,1,,,,,,,,,,,,,,,3,,,76,0
139530,note_on,,7,0,1,,,,,,,,,,,,,,,3,,,74,127
139547,note_on,,17,0,1,,,,,,,,,,,,,,,3,,,67,0
139547,note_on,,0,0,1,,,,,,,,,,,,,,,3,,,55,0
139547,note_on,,0,0,1,,,,,,,,,,,,,,,3,,,60,0
139553,note_on,,6,0,1,,,,,,,,,,,,,,,3,,,74,0
139560,note_on,,0,0,1,,,,,,,,,,,,,,,3,,,69,127
139560,note_on,,0,0,1,,,,,,,,,,,,,,,3,,,62,127
139560,note_on,,0,0,1,,,,,,,,,,,,,,,3,,,54,127
139560,note_on,,7,0,1,,,,,,,,,,,,,,,3,,,72,127
139583,note_on,,23,0,1,,,,,,,,,,,,,,,3,,,72,0
139590,note_on,,7,0,1,,,,,,,,,,,,,,,3,,,74,127
139607,note_on,,17,0,1,,,,,,,,,,,,,,,3,,,69,0
139607,note_on,,0,0,1,,,,,,,,,,,,,,,3,,,62,0
139607,note_on,,0,0,1,,,,,,,,,,,,,,,3,,,54,0
139613,note_on,,6,0,1,,,,,,,,,,,,,,,3,,,74,0
139620,note_on,,0,0,1,,,,,,,,,,,,,,,3,,,67,127
139620,note_on,,0,0,1,,,,,,,,,,,,,,,3,,,62,127
139620,note_on,,0,0,1,,,,,,,,,,,,,,,3,,,55,127
139620,note_on,,7,0,1,,,,,,,,,,,,,,,3,,,71,127
139643,note_on,,23,0,1,,,,,,,,,,,,,,,3,,,71,0
139650,note_on,,7,0,1,,,,,,,,,,,,,,,3,,,72,127
139667,note_on,,17,0,1,,,,,,,,,,,,,,,3,,,67,0
139667,note_on,,0,0,1,,,,,,,,,,,,,,,3,,,62,0
139667,note_on,,0,0,1,,,,,,,,,,,,,,,3,,,55,0
139673,note_on,,6,0,1,,,,,,,,,,,,,,,3,,,72,0
139680,note_on,,0,0,1,,,,,,,,,,,,,,,3,,,60,127
139680,note_on,,0,0,1,,,,,,,,,,,,,,,3,,,57,127
139680,note_on,,7,0,1,,,,,,,,,,,,,,,3,,,69,127
139680,note_on,,0,0,1,,,,,,,,,,,,,,,3,,,64,127
139694,note_on,,14,0,1,,,,,,,,,,,,,,,3,,,57,0
139695,note_on,,1,0,1,,,,,,,,,,,,,,,3,,,55,127
139703,note_on,,8,0,1,,,,,,,,,,,,,,,3,,,69,0
139709,note_on,,6,0,1,,,,,,,,,,,,,,,3,,,55,0
139710,note_on,,1,0,1,,,,,,,,,,,,,,,3,,,72,127
139710,note_on,,0,0,1,,,,,,,,,,,,,,,3,,,57,127
139724,note_on,,14,0,1,,,,,,,,,,,,,,,3,,,57,0
139725,note_on,,1,0,1,,,,,,,,,,,,,,,3,,,55,127
139727,note_on,,2,0,1,,,,,,,,,,,,,,,3,,,64,0
139727,note_on,,0,0,1,,,,,,,,,,,,,,,3,,,60,0
139733,note_on,,6,0,1,,,,,,,,,,,,,,,3,,,72,0
139740,note_on,,7,0,1,,,,,,,,,,,,,,,3,,,71,127
139740,note_on,,0,0,1,,,,,,,,,,,,,,,3,,,62,127
139740,note_on,,0,0,1,,,,,,,,,,,,,,,3,,,57,127
139763,note_on,,23,0,1,,,,,,,,,,,,,,,3,,,71,0
139766,note_on,,3,0,1,,,,,,,,,,,,,,,3,,,55,0
139770,note_on,,4,0,1,,,,,,,,,,,,,,,3,,,69,127
139770,note_on,,0,0,1,,,,,,,,,,,,,,,3,,,54,127
139787,note_on,,17,0,1,,,,,,,,,,,,,,,3,,,62,0
139787,note_on,,0,0,1,,,,,,,,,,,,,,,3,,,57,0
139793,note_on,,6,0,1,,,,,,,,,,,,,,,3,,,69,0
139793,note_on,,0,0,1,,,,,,,,,,,,,,,3,,,54,0
139800,note_on,,7,0,1,,,,,,,,,,,,,,,3,,,67,127
139800,note_on,,0,0,1,,,,,,,,,,,,,,,3,,,62,127
139800,note_on,,0,0,1,,,,,,,,,,,,,,,3,,,59,127
139800,note_on,,0,0,1,,,,,,,,,,,,,,,3,,,55,127
139823,note_on,,23,0,1,,,,,,,,,,,,,,,3,,,67,0
139830,note_on,,7,0,1,,,,,,,,,,,,,,,3,,,69,127
139847,note_on,,17,0,1,,,,,,,,,,,,,,,3,,,62,0
139847,note_on,,0,0,1,,,,,,,,,,,,,,,3,,,55,0
139847,note_on,,0,0,1,,,,,,,,,,,,,,,3,,,59,0
139853,note_on,,6,0,1,,,,,,,,,,,,,,,3,,,69,0
139860,note_on,,7,0,1,,,,,,,,,,,,,,,3,,,71,127
139860,note_on,,0,0,1,,,,,,,,,,,,,,,3,,,62,127
139883,note_on,,23,0,1,,,,,,,,,,,,,,,3,,,71,0
139890,note_on,,7,0,1,,,,,,,,,,,,,,,3,,,69,127
139907,note_on,,17,0,1,,,,,,,,,,,,,,,3,,,62,0
139913,note_on,,6,0,1,,,,,,,,,,,,,,,3,,,69,0
139920,note_on,,0,0,1,,,,,,,,,,,,,,,3,,,60,127
139920,note_on,,7,0,1,,,,,,,,,,,,,,,3,,,67,127
139920,note_on,,0,0,1,,,,,,,,,,,,,,,3,,,57,127
139943,note_on,,23,0,1,,,,,,,,,,,,,,,3,,,67,0
139950,note_on,,7,0,1,,,,,,,,,,,,,,,3,,,66,127
139967,note_on,,17,0,1,,,,,,,,,,,,,,,3,,,60,0
139967,note_on,,0,0,1,,,,,,,,,,,,,,,3,,,57,0
139973,note_on,,6,0,1,,,,,,,,,,,,,,,3,,,66,0
139980,note_on,,7,0,1,,,,,,,,,,,,,,,3,,,67,127
139980,note_on,,0,0,1,,,,,,,,,,,,,,,3,,,62,127
139980,note_on,,0,0,1,,,,,,,,,,,,,,,3,,,59,127
140003,note_on,,23,0,1,,,,,,,,,,,,,,,3,,,67,0
140010,note_on,,7,0,1,,,,,,,,,,,,,,,3,,,71,127
140027,note_on,,0,0,1,,,,,,,,,,,,,,,3,,,59,0
140027,note_on,,17,0,1,,,,,,,,,,,,,,,3,,,62,0
140033,note_on,,6,0,1,,,,,,,,,,,,,,,3,,,71,0
140040,note_on,,0,0,1,,,,,,,,,,,,,,,3,,,55,127
140040,note_on,,0,0,1,,,,,,,,,,,,,,,3,,,59,127
140040,note_on,,7,0,1,,,,,,,,,,,,,,,3,,,76,127
140063,note_on,,23,0,1,,,,,,,,,,,,,,,3,,,76,0
140070,note_on,,7,0,1,,,,,,,,,,,,,,,3,,,74,127
140087,note_on,,0,0,1,,,,,,,,,,,,,,,3,,,55,0
140087,note_on,,17,0,1,,,,,,,,,,,,,,,3,,,59,0
140093,note_on,,6,0,1,,,,,,,,,,,,,,,3,,,74,0
140100,note_on,,0,0,1,,,,,,,,,,,,,,,3,,,43,127
140100,note_on,,0,0,1,,,,,,,,,,,,,,,3,,,59,127
140100,note_on,,0,0,1,,,,,,,,,,,,,,,3,,,64,127
140100,note_on,,7,0,1,,,,,,,,,,,,,,,3,,,72,127
140123,note_on,,23,0,1,,,,,,,,,,,,,,,3,,,72,0
140130,note_on,,7,0,1,,,,,,,,,,,,,,,3,,,71,127
140147,note_on,,0,0,1,,,,,,,,,,,,,,,3,,,43,0
140147,note_on,,0,0,1,,,,,,,,,,,,,,,3,,,59,0
140147,note_on,,17,0,1,,,,,,,,,,,,,,,3,,,64,0
140153,note_on,,6,0,1,,,,,,,,,,,,,,,3,,,71,0
140160,note_on,,7,0,1,,,,,,,,,,,,,,,3,,,69,127
140160,note_on,,0,0,1,,,,,,,,,,,,,,,3,,,45,127
140160,note_on,,0,0,1,,,,,,,,,,,,,,,3,,,60,127
140160,note_on,,0,0,1,,,,,,,,,,,,,,,3,,,64,127
140183,note_on,,23,0,1,,,,,,,,,,,,,,,3,,,69,0
140190,note_on,,7,0,1,,,,,,,,,,,,,,,3,,,71,127
140207,note_on,,17,0,1,,,,,,,,,,,,,,,3,,,64,0
140207,note_on,,0,0,1,,,,,,,,,,,,,,,3,,,45,0
140207,note_on,,0,0,1,,,,,,,,,,,,,,,3,,,60,0
140213,note_on,,6,0,1,,,,,,,,,,,,,,,3,,,71,0
140220,note_on,,0,0,1,,,,,,,,,,,,,,,3,,,64,127
140220,note_on,,7,0,1,,,,,,,,,,,,,,,3,,,72,127
140243,note_on,,23,0,1,,,,,,,,,,,,,,,3,,,72,0
140250,note_on,,7,0,1,,,,,,,,,,,,,,,3,,,71,127
140267,note_on,,17,0,1,,,,,,,,,,,,,,,3,,,64,0
140273,note_on,,6,0,1,,,,,,,,,,,,,,,3,,,71,0
140280,note_on,,7,0,1,,,,,,,,,,,,,,,3,,,69,127
140280,note_on,,0,0,1,,,,,,,,,,,,,,,3,,,62,127
140280,note_on,,0,0,1,,,,,,,,,,,,,,,3,,,59,127
140303,note_on,,23,0,1,,,,,,,,,,,,,,,3,,,69,0
140310,note_on,,7,0,1,,,,,,,,,,,,,,,3,,,68,127
140327,note_on,,17,0,1,,,,,,,,,,,,,,,3,,,62,0
140327,note_on,,0,0,1,,,,,,,,,,,,,,,3,,,59,0
140333,note_on,,6,0,1,,,,,,,,,,,,,,,3,,,68,0
140340,note_on,,0,0,1,,,,,,,,,,,,,,,3,,,60,127
140340,note_on,,0,0,1,,,,,,,,,,,,,,,3,,,64,127
140340,note_on,,7,0,1,,,,,,,,,,,,,,,3,,,69,127
140363,note_on,,23,0,1,,,,,,,,,,,,,,,3,,,69,0
140370,note_on,,7,0,1,,,,,,,,,,,,,,,3,,,72,127
140387,note_on,,0,0,1,,,,,,,,,,,,,,,3,,,60,0
140387,note_on,,17,0,1,,,,,,,,,,,,,,,3,,,64,0
140393,note_on,,6,0,1,,,,,,,,,,,,,,,3,,,72,0
140400,note_on,,0,0,1,,,,,,,,,,,,,,,3,,,57,127
140400,note_on,,0,0,1,,,,,,,,,,,,,,,3,,,60,127
140400,note_on,,7,0,1,,,,,,,,,,,,,,,3,,,78,127
140423,note_on,,23,0,1,,,,,,,,,,,,,,,3,,,78,0
140430,note_on,,7,0,1,,,,,,,,,,,,,,,3,,,76,127
140447,note_on,,17,0,1,,,,,,,,,,,,,,,3,,,60,0
140447,note_on,,0,0,1,,,,,,,,,,,,,,,3,,,57,0
140453,note_on,,6,0,1,,,,,,,,,,,,,,,3,,,76,0
140460,note_on,,0,0,1,,,,,,,,,,,,,,,3,,,66,127
140460,note_on,,0,0,1,,,,,,,,,,,,,,,3,,,60,127
140460,note_on,,0,0,1,,,,,,,,,,,,,,,3,,,45,127
140460,note_on,,7,0,1,,,,,,,,,,,,,,,3,,,74,127
140483,note_on,,23,0,1,,,,,,,,,,,,,,,3,,,74,0
140490,note_on,,7,0,1,,,,,,,,,,,,,,,3,,,72,127
140507,note_on,,17,0,1,,,,,,,,,,,,,,,3,,,66,0
140507,note_on,,0,0,1,,,,,,,,,,,,,,,3,,,60,0
140507,note_on,,0,0,1,,,,,,,,,,,,,,,3,,,45,0
140513,note_on,,6,0,1,,,,,,,,,,,,,,,3,,,72,0
140520,note_on,,0,0,1,,,,,,,,,,,,,,,3,,,47,127
140520,note_on,,0,0,1,,,,,,,,,,,,,,,3,,,62,127
140520,note_on,,7,0,1,,,,,,,,,,,,,,,3,,,71,127
140520,note_on,,0,0,1,,,,,,,,,,,,,,,3,,,67,127
140543,note_on,,23,0,1,,,,,,,,,,,,,,,3,,,71,0
140550,note_on,,7,0,1,,,,,,,,,,,,,,,3,,,72,127
140567,note_on,,17,0,1,,,,,,,,,,,,,,,3,,,67,0
140567,note_on,,0,0,1,,,,,,,,,,,,,,,3,,,62,0
140567,note_on,,0,0,1,,,,,,,,,,,,,,,3,,,47,0
140573,note_on,,6,0,1,,,,,,,,,,,,,,,3,,,72,0
140580,note_on,,7,0,1,,,,,,,,,,,,,,,3,,,74,127
140580,note_on,,0,0,1,,,,,,,,,,,,,,,3,,,59,127
140603,note_on,,23,0,1,,,,,,,,,,,,,,,3,,,74,0
140610,note_on,,7,0,1,,,,,,,,,,,,,,,3,,,72,127
140627,note_on,,17,0,1,,,,,,,,,,,,,,,3,,,59,0
140633,note_on,,6,0,1,,,,,,,,,,,,,,,3,,,72,0
140640,note_on,,0,0,1,,,,,,,,,,,,,,,3,,,60,127
140640,note_on,,0,0,1,,,,,,,,,,,,,,,3,,,66,127
140640,note_on,,7,0,1,,,,,,,,,,,,,,,3,,,71,127
140663,note_on,,23,0,1,,,,,,,,,,,,,,,3,,,71,0
140670,note_on,,7,0,1,,,,,,,,,,,,,,,3,,,69,127
140687,note_on,,0,0,1,,,,,,,,,,,,,,,3,,,60,0
140687,note_on,,17,0,1,,,,,,,,,,,,,,,3,,,66,0
140693,note_on,,6,0,1,,,,,,,,,,,,,,,3,,,69,0
140700,note_on,,0,0,1,,,,,,,,,,,,,,,3,,,62,127
140700,note_on,,7,0,1,,,,,,,,,,,,,,,3,,,71,127
140700,note_on,,0,0,1,,,,,,,,,,,,,,,3,,,67,127
140723,note_on,,23,0,1,,,,,,,,,,,,,,,3,,,71,0
140730,note_on,,7,0,1,,,,,,,,,,,,,,,3,,,74,127
140747,note_on,,0,0,1,,,,,,,,,,,,,,,3,,,62,0
140747,note_on,,17,0,1,,,,,,,,,,,,,,,3,,,67,0
140753,note_on,,6,0,1,,,,,,,,,,,,,,,3,,,74,0
140760,note_on,,0,0,1,,,,,,,,,,,,,,,3,,,62,127
140760,note_on,,0,0,1,,,,,,,,,,,,,,,3,,,59,127
140760,note_on,,7,0,1,,,,,,,,,,,,,,,3,,,79,127
140783,note_on,,23,0,1,,,,,,,,,,,,,,,3,,,79,0
140790,note_on,,7,0,1,,,,,,,,,,,,,,,3,,,77,127
140807,note_on,,0,0,1,,,,,,,,,,,,,,,3,,,59,0
140807,note_on,,17,0,1,,,,,,,,,,,,,,,3,,,62,0
140813,note_on,,6,0,1,,,,,,,,,,,,,,,3,,,77,0
140820,note_on,,7,0,1,,,,,,,,,,,,,,,3,,,76,127
140820,note_on,,0,0,1,,,,,,,,,,,,,,,3,,,67,127
140820,note_on,,0,0,1,,,,,,,,,,,,,,,3,,,62,127
140820,note_on,,0,0,1,,,,,,,,,,,,,,,3,,,47,127
140843,note_on,,23,0,1,,,,,,,,,,,,,,,3,,,76,0
140850,note_on,,7,0,1,,,,,,,,,,,,,,,3,,,74,127
140867,note_on,,0,0,1,,,,,,,,,,,,,,,3,,,62,0
140867,note_on,,0,0,1,,,,,,,,,,,,,,,3,,,47,0
140867,note_on,,17,0,1,,,,,,,,,,,,,,,3,,,67,0
140873,note_on,,6,0,1,,,,,,,,,,,,,,,3,,,74,0
140880,note_on,,7,0,1,,,,,,,,,,,,,,,3,,,72,127
140880,note_on,,0,0,1,,,,,,,,,,,,,,,3,,,67,127
140880,note_on,,0,0,1,,,,,,,,,,,,,,,3,,,64,127
140880,note_on,,0,0,1,,,,,,,,,,,,,,,3,,,48,127
140903,note_on,,23,0,1,,,,,,,,,,,,,,,3,,,72,0
140910,note_on,,7,0,1,,,,,,,,,,,,,,,3,,,74,127
140927,note_on,,0,0,1,,,,,,,,,,,,,,,3,,,48,0
140927,note_on,,17,0,1,,,,,,,,,,,,,,,3,,,67,0
140927,note_on,,0,0,1,,,,,,,,,,,,,,,3,,,64,0
140933,note_on,,6,0,1,,,,,,,,,,,,,,,3,,,74,0
140940,note_on,,7,0,1,,,,,,,,,,,,,,,3,,,76,127
140940,note_on,,0,0,1,,,,,,,,,,,,,,,3,,,67,127
140963,note_on,,23,0,1,,,,,,,,,,,,,,,3,,,76,0
140970,note_on,,7,0,1,,,,,,,,,,,,,,,3,,,74,127
140987,note_on,,17,0,1,,,,,,,,,,,,,,,3,,,67,0
140993,note_on,,6,0,1,,,,,,,,,,,,,,,3,,,74,0
141000,note_on,,7,0,1,,,,,,,,,,,,,,,3,,,72,127
141000,note_on,,0,0,1,,,,,,,,,,,,,,,3,,,62,127
141000,note_on,,0,0,1,,,,,,,,,,,,,,,3,,,65,127
141023,note_on,,23,0,1,,,,,,,,,,,,,,,3,,,72,0
141030,note_on,,7,0,1,,,,,,,,,,,,,,,3,,,71,127
141047,note_on,,0,0,1,,,,,,,,,,,,,,,3,,,62,0
141047,note_on,,17,0,1,,,,,,,,,,,,,,,3,,,65,0
141053,note_on,,6,0,1,,,,,,,,,,,,,,,3,,,71,0
141060,note_on,,0,0,1,,,,,,,,,,,,,,,3,,,67,127
141060,note_on,,7,0,1,,,,,,,,,,,,,,,3,,,72,127
141060,note_on,,0,0,1,,,,,,,,,,,,,,,3,,,64,127
141083,note_on,,23,0,1,,,,,,,,,,,,,,,3,,,72,0
141090,note_on,,7,0,1,,,,,,,,,,,,,,,3,,,76,127
141107,note_on,,17,0,1,,,,,,,,,,,,,,,3,,,67,0
141107,note_on,,0,0,1,,,,,,,,,,,,,,,3,,,64,0
141113,note_on,,6,0,1,,,,,,,,,,,,,,,3,,,76,0
141120,note_on,,0,0,1,,,,,,,,,,,,,,,3,,,64,127
141120,note_on,,0,0,1,,,,,,,,,,,,,,,3,,,60,127
141120,note_on,,7,0,1,,,,,,,,,,,,,,,3,,,81,127
141143,note_on,,23,0,1,,,,,,,,,,,,,,,3,,,81,0
141150,note_on,,7,0,1,,,,,,,,,,,,,,,3,,,79,127
141167,note_on,,0,0,1,,,,,,,,,,,,,,,3,,,60,0
141167,note_on,,17,0,1,,,,,,,,,,,,,,,3,,,64,0
141173,note_on,,6,0,1,,,,,,,,,,,,,,,3,,,79,0
141180,note_on,,0,0,1,,,,,,,,,,,,,,,3,,,48,127
141180,note_on,,0,0,1,,,,,,,,,,,,,,,3,,,64,127
141180,note_on,,0,0,1,,,,,,,,,,,,,,,3,,,69,127
141180,note_on,,7,0,1,,,,,,,,,,,,,,,3,,,78,127
141203,note_on,,23,0,1,,,,,,,,,,,,,,,3,,,78,0
141210,note_on,,7,0,1,,,,,,,,,,,,,,,3,,,76,127
141227,note_on,,17,0,1,,,,,,,,,,,,,,,3,,,69,0
141227,note_on,,0,0,1,,,,,,,,,,,,,,,3,,,64,0
141227,note_on,,0,0,1,,,,,,,,,,,,,,,3,,,48,0
141233,note_on,,6,0,1,,,,,,,,,,,,,,,3,,,76,0
141240,note_on,,0,0,1,,,,,,,,,,,,,,,3,,,60,127
141240,note_on,,0,0,1,,,,,,,,,,,,,,,3,,,66,127
141240,note_on,,0,0,1,,,,,,,,,,,,,,,3,,,69,127
141240,note_on,,7,0,1,,,,,,,,,,,,,,,3,,,74,127
141263,note_on,,23,0,1,,,,,,,,,,,,,,,3,,,66,0
141270,note_on,,7,0,1,,,,,,,,,,,,,,,3,,,64,127
141287,note_on,,0,0,1,,,,,,,,,,,,,,,3,,,60,0
141287,note_on,,0,0,1,,,,,,,,,,,,,,,3,,,69,0
141287,note_on,,17,0,1,,,,,,,,,,,,,,,3,,,74,0
141293,note_on,,6,0,1,,,,,,,,,,,,,,,3,,,64,0
141300,note_on,,7,0,1,,,,,,,,,,,,,,,3,,,62,127
141323,note_on,,23,0,1,,,,,,,,,,,,,,,3,,,62,0
141330,note_on,,7,0,1,,,,,,,,,,,,,,,3,,,60,127
141353,note_on,,23,0,1,,,,,,,,,,,,,,,3,,,60,0
141360,note_on,,7,0,1,,,,,,,,,,,,,,,3,,,74,127
141360,note_on,,0,0,1,,,,,,,,,,,,,,,3,,,66,127
141360,note_on,,0,0,1,,,,,,,,,,,,,,,3,,,60,127
141360,note_on,,0,0,1,,,,,,,,,,,,,,,3,,,59,127
141383,note_on,,23,0,1,,,,,,,,,,,,,,,3,,,59,0
141390,note_on,,7,0,1,,,,,,,,,,,,,,,3,,,57,127
141407,note_on,,0,0,1,,,,,,,,,,,,,,,3,,,66,0
141407,note_on,,0,0,1,,,,,,,,,,,,,,,3,,,60,0
141407,note_on,,17,0,1,,,,,,,,,,,,,,,3,,,74,0
141413,note_on,,6,0,1,,,,,,,,,,,,,,,3,,,57,0
141420,note_on,,0,0,1,,,,,,,,,,,,,,,3,,,59,127
141420,note_on,,0,0,1,,,,,,,,,,,,,,,3,,,55,127
141420,note_on,,0,0,1,,,,,,,,,,,,,,,3,,,67,127
141420,note_on,,7,0,1,,,,,,,,,,,,,,,3,,,74,127
141443,note_on,,23,0,1,,,,,,,,,,,,,,,3,,,55,0
141450,note_on,,7,0,1,,,,,,,,,,,,,,,3,,,54,127
141467,note_on,,17,0,1,,,,,,,,,,,,,,,3,,,74,0
141467,note_on,,0,0,1,,,,,,,,,,,,,,,3,,,59,0
141467,note_on,,0,0,1,,,,,,,,,,,,,,,3,,,67,0
141473,note_on,,6,0,1,,,,,,,,,,,,,,,3,,,54,0
141480,note_on,,7,0,1,,,,,,,,,,,,,,,3,,,52,127
141503,note_on,,23,0,1,,,,,,,,,,,,,,,3,,,52,0
141510,note_on,,7,0,1,,,,,,,,,,,,,,,3,,,50,127
141533,note_on,,23,0,1,,,,,,,,,,,,,,,3,,,50,0
141540,note_on,,7,0,1,,,,,,,,,,,,,,,3,,,74,127
141540,note_on,,0,0,1,,,,,,,,,,,,,,,3,,,55,127
141540,note_on,,0,0,1,,,,,,,,,,,,,,,3,,,67,127
141540,note_on,,0,0,1,,,,,,,,,,,,,,,3,,,48,127
141563,note_on,,23,0,1,,,,,,,,,,,,,,,3,,,48,0
141570,note_on,,7,0,1,,,,,,,,,,,,,,,3,,,47,127
141587,note_on,,0,0,1,,,,,,,,,,,,,,,3,,,55,0
141587,note_on,,0,0,1,,,,,,,,,,,,,,,3,,,67,0
141587,note_on,,17,0,1,,,,,,,,,,,,,,,3,,,74,0
141593,note_on,,6,0,1,,,,,,,,,,,,,,,3,,,47,0
141600,note_on,,0,0,1,,,,,,,,,,,,,,,3,,,55,127
141600,note_on,,0,0,1,,,,,,,,,,,,,,,3,,,45,127
141600,note_on,,0,0,1,,,,,,,,,,,,,,,3,,,64,127
141600,note_on,,7,0,1,,,,,,,,,,,,,,,3,,,72,127
141623,note_on,,23,0,1,,,,,,,,,,,,,,,3,,,45,0
141630,note_on,,7,0,1,,,,,,,,,,,,,,,3,,,43,127
141647,note_on,,0,0,1,,,,,,,,,,,,,,,3,,,55,0
141647,note_on,,17,0,1,,,,,,,,,,,,,,,3,,,64,0
141653,note_on,,6,0,1,,,,,,,,,,,,,,,3,,,43,0
141660,note_on,,0,0,1,,,,,,,,,,,,,,,3,,,45,127
141660,note_on,,7,0,1,,,,,,,,,,,,,,,3,,,62,127
141660,note_on,,0,0,1,,,,,,,,,,,,,,,3,,,54,127
141683,note_on,,23,0,1,,,,,,,,,,,,,,,3,,,45,0
141690,note_on,,7,0,1,,,,,,,,,,,,,,,3,,,42,127
141695,note_on,,5,0,1,,,,,,,,,,,,,,,3,,,72,0
141707,note_on,,12,0,1,,,,,,,,,,,,,,,3,,,54,0
141713,note_on,,6,0,1,,,,,,,,,,,,,,,3,,,42,0
141720,note_on,,7,0,1,,,,,,,,,,,,,,,3,,,71,127
141720,note_on,,0,0,1,,,,,,,,,,,,,,,3,,,43,127
141720,note_on,,0,0,1,,,,,,,,,,,,,,,3,,,55,127
141755,note_on,,35,0,1,,,,,,,,,,,,,,,3,,,62,0
141767,note_on,,0,0,1,,,,,,,,,,,,,,,3,,,43,0
141767,note_on,,12,0,1,,,,,,,,,,,,,,,3,,,71,0
141780,note_on,,13,0,1,,,,,,,,,,,,,,,3,,,69,127
141780,note_on,,0,0,1,,,,,,,,,,,,,,,3,,,64,127
141780,note_on,,0,0,1,,,,,,,,,,,,,,,3,,,48,127
141803,note_on,,23,0,1,,,,,,,,,,,,,,,3,,,48,0
141810,note_on,,7,0,1,,,,,,,,,,,,,,,3,,,47,127
141821,note_on,,11,0,1,,,,,,,,,,,,,,,3,,,55,0
141821,note_on,,0,0,1,,,,,,,,,,,,,,,3,,,47,0
141825,note_on,,4,0,1,,,,,,,,,,,,,,,3,,,48,127
141827,note_on,,0,0,1,,,,,,,,,,,,,,,3,,,64,0
141827,note_on,,2,0,1,,,,,,,,,,,,,,,3,,,69,0
141836,note_on,,9,0,1,,,,,,,,,,,,,,,3,,,48,0
141840,note_on,,4,0,1,,,,,,,,,,,,,,,3,,,62,127
141840,note_on,,0,0,1,,,,,,,,,,,,,,,3,,,50,127
141840,note_on,,0,0,1,,,,,,,,,,,,,,,3,,,54,127
141870,note_on,,30,0,1,,,,,,,,,,,,,,,3,,,71,127
141887,note_on,,17,0,1,,,,,,,,,,,,,,,3,,,50,0
141893,note_on,,6,0,1,,,,,,,,,,,,,,,3,,,71,0
141900,note_on,,0,0,1,,,,,,,,,,,,,,,3,,,38,127
141900,note_on,,7,0,1,,,,,,,,,,,,,,,3,,,67,127
141923,note_on,,23,0,1,,,,,,,,,,,,,,,3,,,67,0
141930,note_on,,7,0,1,,,,,,,,,,,,,,,3,,,69,127
141935,note_on,,5,0,1,,,,,,,,,,,,,,,3,,,62,0
141935,note_on,,0,0,1,,,,,,,,,,,,,,,3,,,54,0
141947,note_on,,12,0,1,,,,,,,,,,,,,,,3,,,38,0
141953,note_on,,6,0,1,,,,,,,,,,,,,,,3,,,69,0
141960,note_on,,0,0,1,,,,,,,,,,,,,,,3,,,43,127
141960,note_on,,0,0,1,,,,,,,,,,,,,,,3,,,55,127
141960,note_on,,7,0,1,,,,,,,,,,,,,,,3,,,71,127
141990,note_on,,30,0,1,,,,,,,,,,,,,,,3,,,62,127
142007,note_on,,17,0,1,,,,,,,,,,,,,,,3,,,71,0
142007,note_on,,0,0,1,,,,,,,,,,,,,,,3,,,55,0
142007,note_on,,0,0,1,,,,,,,,,,,,,,,3,,,43,0
142013,note_on,,6,0,1,,,,,,,,,,,,,,,3,,,62,0
142020,note_on,,7,0,1,,,,,,,,,,,,,,,3,,,67,127
142043,note_on,,23,0,1,,,,,,,,,,,,,,,3,,,67,0
142050,note_on,,7,0,1,,,,,,,,,,,,,,,3,,,65,127
142073,note_on,,23,0,1,,,,,,,,,,,,,,,3,,,65,0
142080,note_on,,7,0,1,,,,,,,,,,,,,,,3,,,64,127
142080,note_on,,0,0,1,,,,,,,,,,,,,,,3,,,55,127
142103,note_on,,23,0,1,,,,,,,,,,,,,,,3,,,64,0
142110,note_on,,7,0,1,,,,,,,,,,,,,,,3,,,62,127
142127,note_on,,17,0,1,,,,,,,,,,,,,,,3,,,55,0
142133,note_on,,6,0,1,,,,,,,,,,,,,,,3,,,62,0
142140,note_on,,7,0,1,,,,,,,,,,,,,,,3,,,60,127
142140,note_on,,0,0,1,,,,,,,,,,,,,,,3,,,57,127
142170,note_on,,30,0,1,,,,,,,,,,,,,,,3,,,71,127
142187,note_on,,17,0,1,,,,,,,,,,,,,,,3,,,60,0
142187,note_on,,0,0,1,,,,,,,,,,,,,,,3,,,57,0
142193,note_on,,6,0,1,,,,,,,,,,,,,,,3,,,71,0
142200,note_on,,7,0,1,,,,,,,,,,,,,,,3,,,69,127
142223,note_on,,23,0,1,,,,,,,,,,,,,,,3,,,69,0
142230,note_on,,7,0,1,,,,,,,,,,,,,,,3,,,67,127
142253,note_on,,23,0,1,,,,,,,,,,,,,,,3,,,67,0
142260,note_on,,7,0,1,,,,,,,,,,,,,,,3,,,65,127
142260,note_on,,0,0,1,,,,,,,,,,,,,,,3,,,45,127
142283,note_on,,23,0,1,,,,,,,,,,,,,,,3,,,65,0
142290,note_on,,7,0,1,,,,,,,,,,,,,,,3,,,64,127
142307,note_on,,17,0,1,,,,,,,,,,,,,,,3,,,45,0
142313,note_on,,6,0,1,,,,,,,,,,,,,,,3,,,64,0
142320,note_on,,7,0,1,,,,,,,,,,,,,,,3,,,65,127
142320,note_on,,0,0,1,,,,,,,,,,,,,,,3,,,50,127
142350,note_on,,30,0,1,,,,,,,,,,,,,,,3,,,60,127
142367,note_on,,0,0,1,,,,,,,,,,,,,,,3,,,50,0
142367,note_on,,17,0,1,,,,,,,,,,,,,,,3,,,65,0
142373,note_on,,6,0,1,,,,,,,,,,,,,,,3,,,60,0
142380,note_on,,7,0,1,,,,,,,,,,,,,,,3,,,65,127
142403,note_on,,23,0,1,,,,,,,,,,,,,,,3,,,65,0
142410,note_on,,7,0,1,,,,,,,,,,,,,,,3,,,64,127
142433,note_on,,23,0,1,,,,,,,,,,,,,,,3,,,64,0
142440,note_on,,7,0,1,,,,,,,,,,,,,,,3,,,62,127
142440,note_on,,0,0,1,,,,,,,,,,,,,,,3,,,50,127
142463,note_on,,23,0,1,,,,,,,,,,,,,,,3,,,62,0
142470,note_on,,7,0,1,,,,,,,,,,,,,,,3,,,60,127
142487,note_on,,17,0,1,,,,,,,,,,,,,,,3,,,50,0
142493,note_on,,6,0,1,,,,,,,,,,,,,,,3,,,60,0
142500,note_on,,0,0,1,,,,,,,,,,,,,,,3,,,55,127
142500,note_on,,7,0,1,,,,,,,,,,,,,,,3,,,59,127
142530,note_on,,30,0,1,,,,,,,,,,,,,,,3,,,69,127
142547,note_on,,0,0,1,,,,,,,,,,,,,,,3,,,55,0
142547,note_on,,17,0,1,,,,,,,,,,,,,,,3,,,59,0
142553,note_on,,6,0,1,,,,,,,,,,,,,,,3,,,69,0
142560,note_on,,7,0,1,,,,,,,,,,,,,,,3,,,67,127
142583,note_on,,23,0,1,,,,,,,,,,,,,,,3,,,67,0
142590,note_on,,7,0,1,,,,,,,,,,,,,,,3,,,65,127
142613,note_on,,23,0,1,,,,,,,,,,,,,,,3,,,65,0
142620,note_on,,7,0,1,,,,,,,,,,,,,,,3,,,64,127
142620,note_on,,0,0,1,,,,,,,,,,,,,,,3,,,59,127
142620,note_on,,0,0,1,,,,,,,,,,,,,,,3,,,55,127
142643,note_on,,23,0,1,,,,,,,,,,,,,,,3,,,64,0
142650,note_on,,7,0,1,,,,,,,,,,,,,,,3,,,62,127
142667,note_on,,17,0,1,,,,,,,,,,,,,,,3,,,59,0
142667,note_on,,0,0,1,,,,,,,,,,,,,,,3,,,55,0
142673,note_on,,6,0,1,,,,,,,,,,,,,,,3,,,62,0
142680,note_on,,7,0,1,,,,,,,,,,,,,,,3,,,64,127
142680,note_on,,0,0,1,,,,,,,,,,,,,,,3,,,60,127
142710,note_on,,30,0,1,,,,,,,,,,,,,,,3,,,74,127
142727,note_on,,17,0,1,,,,,,,,,,,,,,,3,,,64,0
142727,note_on,,0,0,1,,,,,,,,,,,,,,,3,,,60,0
142733,note_on,,6,0,1,,,,,,,,,,,,,,,3,,,74,0
142740,note_on,,7,0,1,,,,,,,,,,,,,,,3,,,72,127
142763,note_on,,23,0,1,,,,,,,,,,,,,,,3,,,72,0
142770,note_on,,7,0,1,,,,,,,,,,,,,,,3,,,70,127
142793,note_on,,23,0,1,,,,,,,,,,,,,,,3,,,70,0
142800,note_on,,0,0,1,,,,,,,,,,,,,,,3,,,60,127
142800,note_on,,7,0,1,,,,,,,,,,,,,,,3,,,69,127
142800,note_on,,0,0,1,,,,,,,,,,,,,,,3,,,64,127
142823,note_on,,23,0,1,,,,,,,,,,,,,,,3,,,69,0
142830,note_on,,7,0,1,,,,,,,,,,,,,,,3,,,67,127
142847,note_on,,0,0,1,,,,,,,,,,,,,,,3,,,60,0
142847,note_on,,17,0,1,,,,,,,,,,,,,,,3,,,64,0
142853,note_on,,6,0,1,,,,,,,,,,,,,,,3,,,67,0
142860,note_on,,7,0,1,,,,,,,,,,,,,,,3,,,69,127
142860,note_on,,0,0,1,,,,,,,,,,,,,,,3,,,65,127
142890,note_on,,30,0,1,,,,,,,,,,,,,,,3,,,79,127
142907,note_on,,0,0,1,,,,,,,,,,,,,,,3,,,65,0
142907,note_on,,17,0,1,,,,,,,,,,,,,,,3,,,69,0
142913,note_on,,6,0,1,,,,,,,,,,,,,,,3,,,79,0
142920,note_on,,7,0,1,,,,,,,,,,,,,,,3,,,77,127
142943,note_on,,23,0,1,,,,,,,,,,,,,,,3,,,77,0
142950,note_on,,7,0,1,,,,,,,,,,,,,,,3,,,76,127
142973,note_on,,23,0,1,,,,,,,,,,,,,,,3,,,76,0
142980,note_on,,0,0,1,,,,,,,,,,,,,,,3,,,65,127
142980,note_on,,0,0,1,,,,,,,,,,,,,,,3,,,69,127
142980,note_on,,7,0,1,,,,,,,,,,,,,,,3,,,74,127
143003,note_on,,23,0,1,,,,,,,,,,,,,,,3,,,74,0
143010,note_on,,7,0,1,,,,,,,,,,,,,,,3,,,72,127
143027,note_on,,0,0,1,,,,,,,,,,,,,,,3,,,65,0
143027,note_on,,17,0,1,,,,,,,,,,,,,,,3,,,69,0
143033,note_on,,6,0,1,,,,,,,,,,,,,,,3,,,72,0
143040,note_on,,7,0,1,,,,,,,,,,,,,,,3,,,71,127
143040,note_on,,0,0,1,,,,,,,,,,,,,,,3,,,65,127
143040,note_on,,0,0,1,,,,,,,,,,,,,,,3,,,71,127
143063,note_on,,23,0,1,,,,,,,,,,,,,,,3,,,71,0
143070,note_on,,7,0,1,,,,,,,,,,,,,,,3,,,74,127
143087,note_on,,17,0,1,,,,,,,,,,,,,,,3,,,71,0
143093,note_on,,6,0,1,,,,,,,,,,,,,,,3,,,74,0
143100,note_on,,7,0,1,,,,,,,,,,,,,,,3,,,79,127
143130,note_on,,30,0,1,,,,,,,,,,,,,,,3,,,71,127
143135,note_on,,5,0,1,,,,,,,,,,,,,,,3,,,65,0
143147,note_on,,12,0,1,,,,,,,,,,,,,,,3,,,79,0
143153,note_on,,6,0,1,,,,,,,,,,,,,,,3,,,71,0
143160,note_on,,7,0,1,,,,,,,,,,,,,,,3,,,72,127
143160,note_on,,0,0,1,,,,,,,,,,,,,,,3,,,64,127
143190,note_on,,30,0,1,,,,,,,,,,,,,,,3,,,79,127
143207,note_on,,17,0,1,,,,,,,,,,,,,,,3,,,72,0
143207,note_on,,0,0,1,,,,,,,,,,,,,,,3,,,64,0
143213,note_on,,6,0,1,,,,,,,,,,,,,,,3,,,79,0
143220,note_on,,7,0,1,,,,,,,,,,,,,,,3,,,69,127
143220,note_on,,0,0,1,,,,,,,,,,,,,,,3,,,65,127
143250,note_on,,30,0,1,,,,,,,,,,,,,,,3,,,79,127
143267,note_on,,0,0,1,,,,,,,,,,,,,,,3,,,65,0
143267,note_on,,17,0,1,,,,,,,,,,,,,,,3,,,69,0
143273,note_on,,6,0,1,,,,,,,,,,,,,,,3,,,79,0
143280,note_on,,0,0,1,,,,,,,,,,,,,,,3,,,62,127
143280,note_on,,7,0,1,,,,,,,,,,,,,,,3,,,77,127
143310,note_on,,30,0,1,,,,,,,,,,,,,,,3,,,69,127
143327,note_on,,0,0,1,,,,,,,,,,,,,,,3,,,62,0
143327,note_on,,17,0,1,,,,,,,,,,,,,,,3,,,77,0
143333,note_on,,6,0,1,,,,,,,,,,,,,,,3,,,69,0
143340,note_on,,0,0,1,,,,,,,,,,,,,,,3,,,59,127
143340,note_on,,7,0,1,,,,,,,,,,,,,,,3,,,67,127
143370,note_on,,30,0,1,,,,,,,,,,,,,,,3,,,77,127
143387,note_on,,0,0,1,,,,,,,,,,,,,,,3,,,59,0
143387,note_on,,17,0,1,,,,,,,,,,,,,,,3,,,67,0
143393,note_on,,6,0,1,,,,,,,,,,,,,,,3,,,77,0
143400,note_on,,7,0,1,,,,,,,,,,,,,,,3,,,67,127
143400,note_on,,0,0,1,,,,,,,,,,,,,,,3,,,60,127
143430,note_on,,30,0,1,,,,,,,,,,,,,,,3,,,77,127
143447,note_on,,0,0,1,,,,,,,,,,,,,,,3,,,60,0
143447,note_on,,17,0,1,,,,,,,,,,,,,,,3,,,67,0
143453,note_on,,6,0,1,,,,,,,,,,,,,,,3,,,77,0
143460,note_on,,0,0,1,,,,,,,,,,,,,,,3,,,48,127
143460,note_on,,7,0,1,,,,,,,,,,,,,,,3,,,76,127
143490,note_on,,30,0,1,,,,,,,,,,,,,,,3,,,67,127
143507,note_on,,0,0,1,,,,,,,,,,,,,,,3,,,48,0
143507,note_on,,17,0,1,,,,,,,,,,,,,,,3,,,76,0
143513,note_on,,6,0,1,,,,,,,,,,,,,,,3,,,67,0
143520,note_on,,7,0,1,,,,,,,,,,,,,,,3,,,65,127
143520,note_on,,0,0,1,,,,,,,,,,,,,,,3,,,45,127
143550,note_on,,30,0,1,,,,,,,,,,,,,,,3,,,76,127
143567,note_on,,0,0,1,,,,,,,,,,,,,,,3,,,45,0
143567,note_on,,17,0,1,,,,,,,,,,,,,,,3,,,65,0
143573,note_on,,6,0,1,,,,,,,,,,,,,,,3,,,76,0
143580,note_on,,0,0,1,,,,,,,,,,,,,,,3,,,47,127
143580,note_on,,7,0,1,,,,,,,,,,,,,,,3,,,74,127
143610,note_on,,30,0,1,,,,,,,,,,,,,,,3,,,65,127
143627,note_on,,17,0,1,,,,,,,,,,,,,,,3,,,74,0
143627,note_on,,0,0,1,,,,,,,,,,,,,,,3,,,47,0
143633,note_on,,6,0,1,,,,,,,,,,,,,,,3,,,65,0
143640,note_on,,7,0,1,,,,,,,,,,,,,,,3,,,64,127
143640,note_on,,0,0,1,,,,,,,,,,,,,,,3,,,48,127
143670,note_on,,30,0,1,,,,,,,,,,,,,,,3,,,67,127
143687,note_on,,17,0,1,,,,,,,,,,,,,,,3,,,64,0
143687,note_on,,0,0,1,,,,,,,,,,,,,,,3,,,48,0
143693,note_on,,6,0,1,,,,,,,,,,,,,,,3,,,67,0
143700,note_on,,7,0,1,,,,,,,,,,,,,,,3,,,72,127
143700,note_on,,0,0,1,,,,,,,,,,,,,,,3,,,52,127
143730,note_on,,30,0,1,,,,,,,,,,,,,,,3,,,64,127
143747,note_on,,17,0,1,,,,,,,,,,,,,,,3,,,72,0
143747,note_on,,0,0,1,,,,,,,,,,,,,,,3,,,52,0
143753,note_on,,6,0,1,,,,,,,,,,,,,,,3,,,64,0
143760,note_on,,7,0,1,,,,,,,,,,,,,,,3,,,62,127
143760,note_on,,0,0,1,,,,,,,,,,,,,,,3,,,53,127
143790,note_on,,30,0,1,,,,,,,,,,,,,,,3,,,72,127
143807,note_on,,0,0,1,,,,,,,,,,,,,,,3,,,53,0
143807,note_on,,17,0,1,,,,,,,,,,,,,,,3,,,62,0
143813,note_on,,6,0,1,,,,,,,,,,,,,,,3,,,72,0
143820,note_on,,0,0,1,,,,,,,,,,,,,,,3,,,55,127
143820,note_on,,7,0,1,,,,,,,,,,,,,,,3,,,70,127
143850,note_on,,30,0,1,,,,,,,,,,,,,,,3,,,62,127
143867,note_on,,0,0,1,,,,,,,,,,,,,,,3,,,55,0
143867,note_on,,17,0,1,,,,,,,,,,,,,,,3,,,70,0
143873,note_on,,6,0,1,,,,,,,,,,,,,,,3,,,62,0
143880,note_on,,0,0,1,,,,,,,,,,,,,,,3,,,48,127
143880,note_on,,7,0,1,,,,,,,,,,,,,,,3,,,64,127
143910,note_on,,30,0,1,,,,,,,,,,,,,,,3,,,70,127
143927,note_on,,17,0,1,,,,,,,,,,,,,,,3,,,48,0
143933,note_on,,6,0,1,,,,,,,,,,,,,,,3,,,70,0
143940,note_on,,0,0,1,,,,,,,,,,,,,,,3,,,53,127
143940,note_on,,7,0,1,,,,,,,,,,,,,,,3,,,69,127
143957,note_on,,17,0,1,,,,,,,,,,,,,,,3,,,64,0
143970,note_on,,13,0,1,,,,,,,,,,,,,,,3,,,57,127
143987,note_on,,17,0,1,,,,,,,,,,,,,,,3,,,53,0
143993,note_on,,6,0,1,,,,,,,,,,,,,,,3,,,57,0
144000,note_on,,7,0,1,,,,,,,,,,,,,,,3,,,62,127
144010,note_on,,10,0,1,,,,,,,,,,,,,,,3,,,69,0
144030,note_on,,20,0,1,,,,,,,,,,,,,,,3,,,69,127
144053,note_on,,23,0,1,,,,,,,,,,,,,,,3,,,69,0
144060,note_on,,0,0,1,,,,,,,,,,,,,,,3,,,52,127
144060,note_on,,7,0,1,,,,,,,,,,,,,,,3,,,67,127
144070,note_on,,10,0,1,,,,,,,,,,,,,,,3,,,62,0
144090,note_on,,20,0,1,,,,,,,,,,,,,,,3,,,62,127
144107,note_on,,17,0,1,,,,,,,,,,,,,,,3,,,52,0
144113,note_on,,6,0,1,,,,,,,,,,,,,,,3,,,62,0
144120,note_on,,0,0,1,,,,,,,,,,,,,,,3,,,57,127
144120,note_on,,7,0,1,,,,,,,,,,,,,,,3,,,60,127
144137,note_on,,17,0,1,,,,,,,,,,,,,,,3,,,67,0
144150,note_on,,13,0,1,,,,,,,,,,,,,,,3,,,67,127
144167,note_on,,17,0,1,,,,,,,,,,,,,,,3,,,57,0
144173,note_on,,6,0,1,,,,,,,,,,,,,,,3,,,67,0
144180,note_on,,7,0,1,,,,,,,,,,,,,,,3,,,65,127
144180,note_on,,0,0,1,,,,,,,,,,,,,,,3,,,50,127
144190,note_on,,10,0,1,,,,,,,,,,,,,,,3,,,60,0
144210,note_on,,20,0,1,,,,,,,,,,,,,,,3,,,60,127
144227,note_on,,17,0,1,,,,,,,,,,,,,,,3,,,50,0
144233,note_on,,6,0,1,,,,,,,,,,,,,,,3,,,60,0
144240,note_on,,0,0,1,,,,,,,,,,,,,,,3,,,55,127
144240,note_on,,7,0,1,,,,,,,,,,,,,,,3,,,59,127
144250,note_on,,10,0,1,,,,,,,,,,,,,,,3,,,65,0
144270,note_on,,20,0,1,,,,,,,,,,,,,,,3,,,65,127
144287,note_on,,0,0,1,,,,,,,,,,,,,,,3,,,55,0
144287,note_on,,17,0,1,,,,,,,,,,,,,,,3,,,59,0
144293,note_on,,6,0,1,,,,,,,,,,,,,,,3,,,65,0
144300,note_on,,7,0,1,,,,,,,,,,,,,,,3,,,60,127
144300,note_on,,0,0,1,,,,,,,,,,,,,,,3,,,48,127
144330,note_on,,30,0,1,,,,,,,,,,,,,,,3,,,65,127
144347,note_on,,0,0,1,,,,,,,,,,,,,,,3,,,48,0
144347,note_on,,17,0,1,,,,,,,,,,,,,,,3,,,60,0
144353,note_on,,6,0,1,,,,,,,,,,,,,,,3,,,65,0
144360,note_on,,7,0,1,,,,,,,,,,,,,,,3,,,55,127
144390,note_on,,30,0,1,,,,,,,,,,,,,,,3,,,64,127
144407,note_on,,17,0,1,,,,,,,,,,,,,,,3,,,55,0
144413,note_on,,6,0,1,,,,,,,,,,,,,,,3,,,64,0
144420,note_on,,0,0,1,,,,,,,,,,,,,,,3,,,48,127
144420,note_on,,7,0,1,,,,,,,,,,,,,,,3,,,58,127
144450,note_on,,30,0,1,,,,,,,,,,,,,,,3,,,64,127
144467,note_on,,0,0,1,,,,,,,,,,,,,,,3,,,48,0
144467,note_on,,17,0,1,,,,,,,,,,,,,,,3,,,58,0
144473,note_on,,6,0,1,,,,,,,,,,,,,,,3,,,64,0
144480,note_on,,0,0,1,,,,,,,,,,,,,,,3,,,53,127
144480,note_on,,7,0,1,,,,,,,,,,,,,,,3,,,57,127
144510,note_on,,30,0,1,,,,,,,,,,,,,,,3,,,64,127
144527,note_on,,17,0,1,,,,,,,,,,,,,,,3,,,53,0
144533,note_on,,6,0,1,,,,,,,,,,,,,,,3,,,64,0
144540,note_on,,7,0,1,,,,,,,,,,,,,,,3,,,62,127
144540,note_on,,0,0,1,,,,,,,,,,,,,,,3,,,41,127
144563,note_on,,23,0,1,,,,,,,,,,,,,,,3,,,62,0
144570,note_on,,7,0,1,,,,,,,,,,,,,,,3,,,65,127
144575,note_on,,5,0,1,,,,,,,,,,,,,,,3,,,57,0
144587,note_on,,12,0,1,,,,,,,,,,,,,,,3,,,41,0
144593,note_on,,6,0,1,,,,,,,,,,,,,,,3,,,65,0
144600,note_on,,7,0,1,,,,,,,,,,,,,,,3,,,57,127
144600,note_on,,0,0,1,,,,,,,,,,,,,,,3,,,57,127
144600,note_on,,0,0,1,,,,,,,,,,,,,,,3,,,53,127
144623,note_on,,23,0,1,,,,,,,,,,,,,,,3,,,57,0
144630,note_on,,7,0,1,,,,,,,,,,,,,,,3,,,60,127
144647,note_on,,17,0,1,,,,,,,,,,,,,,,3,,,57,0
144653,note_on,,6,0,1,,,,,,,,,,,,,,,3,,,60,0
144660,note_on,,7,0,1,,,,,,,,,,,,,,,3,,,59,127
144660,note_on,,0,0,1,,,,,,,,,,,,,,,3,,,55,127
144677,note_on,,17,0,1,,,,,,,,,,,,,,,3,,,53,0
144690,note_on,,13,0,1,,,,,,,,,,,,,,,3,,,53,127
144707,note_on,,17,0,1,,,,,,,,,,,,,,,3,,,59,0
144713,note_on,,6,0,1,,,,,,,,,,,,,,,3,,,53,0
144720,note_on,,7,0,1,,,,,,,,,,,,,,,3,,,52,127
144750,note_on,,30,0,1,,,,,,,,,,,,,,,3,,,60,127
144755,note_on,,5,0,1,,,,,,,,,,,,,,,3,,,55,0
144767,note_on,,12,0,1,,,,,,,,,,,,,,,3,,,52,0
144780,note_on,,13,0,1,,,,,,,,,,,,,,,3,,,57,127
144780,note_on,,0,0,1,,,,,,,,,,,,,,,3,,,51,127
144803,note_on,,23,0,1,,,,,,,,,,,,,,,3,,,57,0
144810,note_on,,7,0,1,,,,,,,,,,,,,,,3,,,54,127
144824,note_on,,14,0,1,,,,,,,,,,,,,,,3,,,60,0
144827,note_on,,3,0,1,,,,,,,,,,,,,,,3,,,51,0
144833,note_on,,6,0,1,,,,,,,,,,,,,,,3,,,54,0
144840,note_on,,7,0,1,,,,,,,,,,,,,,,3,,,59,127
144840,note_on,,0,0,1,,,,,,,,,,,,,,,3,,,55,127
144840,note_on,,0,0,1,,,,,,,,,,,,,,,3,,,50,127
144840,note_on,,0,0,1,,,,,,,,,,,,,,,3,,,43,127
144887,note_on,,47,0,1,,,,,,,,,,,,,,,3,,,59,0
144887,note_on,,0,0,1,,,,,,,,,,,,,,,3,,,55,0
144887,note_on,,0,0,1,,,,,,,,,,,,,,,3,,,43,0
144887,note_on,,0,0,1,,,,,,,,,,,,,,,3,,,50,0
144900,note_on,,13,0,1,,,,,,,,,,,,,,,3,,,47,127
144923,note_on,,23,0,1,,,,,,,,,,,,,,,3,,,47,0
144930,note_on,,7,0,1,,,,,,,,,,,,,,,3,,,45,127
144953,note_on,,23,0,1,,,,,,,,,,,,,,,3,,,45,0
144960,note_on,,7,0,1,,,,,,,,,,,,,,,3,,,47,127
145007,note_on,,47,0,1,,,,,,,,,,,,,,,3,,,47,0
145020,note_on,,13,0,1,,,,,,,,,,,,,,,3,,,43,127
145050,note_on,,30,0,1,,,,,,,,,,,,,,,3,,,60,127
145067,note_on,,17,0,1,,,,,,,,,,,,,,,3,,,43,0
145073,note_on,,6,0,1,,,,,,,,,,,,,,,3,,,60,0
145080,note_on,,7,0,1,,,,,,,,,,,,,,,3,,,62,127
145080,note_on,,0,0,1,,,,,,,,,,,,,,,3,,,47,127
145110,note_on,,30,0,1,,,,,,,,,,,,,,,3,,,57,127
145127,note_on,,17,0,1,,,,,,,,,,,,,,,3,,,62,0
145127,note_on,,0,0,1,,,,,,,,,,,,,,,3,,,47,0
145133,note_on,,6,0,1,,,,,,,,,,,,,,,3,,,57,0
145140,note_on,,7,0,1,,,,,,,,,,,,,,,3,,,59,127
145140,note_on,,0,0,1,,,,,,,,,,,,,,,3,,,43,127
145170,note_on,,30,0,1,,,,,,,,,,,,,,,3,,,53,127
145187,note_on,,17,0,1,,,,,,,,,,,,,,,3,,,59,0
145187,note_on,,0,0,1,,,,,,,,,,,,,,,3,,,43,0
145193,note_on,,6,0,1,,,,,,,,,,,,,,,3,,,53,0
145200,note_on,,7,0,1,,,,,,,,,,,,,,,3,,,60,127
145200,note_on,,0,0,1,,,,,,,,,,,,,,,3,,,55,127
145200,note_on,,0,0,1,,,,,,,,,,,,,,,3,,,48,127
145200,note_on,,0,0,1,,,,,,,,,,,,,,,3,,,52,127
145223,note_on,,23,0,1,,,,,,,,,,,,,,,3,,,60,0
145230,note_on,,7,0,1,,,,,,,,,,,,,,,3,,,65,127
145247,note_on,,17,0,1,,,,,,,,,,,,,,,3,,,55,0
145247,note_on,,0,0,1,,,,,,,,,,,,,,,3,,,52,0
145247,note_on,,0,0,1,,,,,,,,,,,,,,,3,,,48,0
145253,note_on,,6,0,1,,,,,,,,,,,,,,,3,,,65,0
145260,note_on,,7,0,1,,,,,,,,,,,,,,,3,,,67,127
145290,note_on,,30,0,1,,,,,,,,,,,,,,,3,,,62,127
145307,note_on,,17,0,1,,,,,,,,,,,,,,,3,,,67,0
145313,note_on,,6,0,1,,,,,,,,,,,,,,,3,,,62,0
145320,note_on,,7,0,1,,,,,,,,,,,,,,,3,,,64,127
145350,note_on,,30,0,1,,,,,,,,,,,,,,,3,,,59,127
145367,note_on,,17,0,1,,,,,,,,,,,,,,,3,,,64,0
145373,note_on,,6,0,1,,,,,,,,,,,,,,,3,,,59,0
145380,note_on,,7,0,1,,,,,,,,,,,,,,,3,,,60,127
145410,note_on,,30,0,1,,,,,,,,,,,,,,,3,,,67,127
145427,note_on,,17,0,1,,,,,,,,,,,,,,,3,,,60,0
145433,note_on,,6,0,1,,,,,,,,,,,,,,,3,,,67,0
145440,note_on,,7,0,1,,,,,,,,,,,,,,,3,,,69,127
145470,note_on,,30,0,1,,,,,,,,,,,,,,,3,,,64,127
145487,note_on,,17,0,1,,,,,,,,,,,,,,,3,,,69,0
145493,note_on,,6,0,1,,,,,,,,,,,,,,,3,,,64,0
145500,note_on,,0,0,1,,,,,,,,,,,,,,,3,,,48,127
145500,note_on,,7,0,1,,,,,,,,,,,,,,,3,,,66,127
145530,note_on,,30,0,1,,,,,,,,,,,,,,,3,,,62,127
145547,note_on,,0,0,1,,,,,,,,,,,,,,,3,,,48,0
145547,note_on,,17,0,1,,,,,,,,,,,,,,,3,,,66,0
145560,note_on,,0,0,1,,,,,,,,,,,,,,,3,,,47,127
145560,note_on,,0,0,1,,,,,,,,,,,,,,,3,,,67,127
145560,note_on,,13,0,1,,,,,,,,,,,,,,,3,,,71,127
145583,note_on,,23,0,1,,,,,,,,,,,,,,,3,,,71,0
145590,note_on,,7,0,1,,,,,,,,,,,,,,,3,,,72,127
145604,note_on,,14,0,1,,,,,,,,,,,,,,,3,,,62,0
145607,note_on,,0,0,1,,,,,,,,,,,,,,,3,,,47,0
145607,note_on,,3,0,1,,,,,,,,,,,,,,,3,,,67,0
145613,note_on,,6,0,1,,,,,,,,,,,,,,,3,,,72,0
145620,note_on,,0,0,1,,,,,,,,,,,,,,,3,,,50,127
145620,note_on,,7,0,1,,,,,,,,,,,,,,,3,,,71,127
145643,note_on,,0,0,1,,,,,,,,,,,,,,,3,,,50,0
145643,note_on,,23,0,1,,,,,,,,,,,,,,,3,,,71,0
145650,note_on,,0,0,1,,,,,,,,,,,,,,,3,,,48,127
145650,note_on,,7,0,1,,,,,,,,,,,,,,,3,,,69,127
145673,note_on,,0,0,1,,,,,,,,,,,,,,,3,,,48,0
145673,note_on,,23,0,1,,,,,,,,,,,,,,,3,,,69,0
145680,note_on,,0,0,1,,,,,,,,,,,,,,,3,,,50,127
145680,note_on,,7,0,1,,,,,,,,,,,,,,,3,,,71,127
145703,note_on,,23,0,1,,,,,,,,,,,,,,,3,,,71,0
145710,note_on,,7,0,1,,,,,,,,,,,,,,,3,,,66,127
145727,note_on,,17,0,1,,,,,,,,,,,,,,,3,,,50,0
145733,note_on,,6,0,1,,,,,,,,,,,,,,,3,,,66,0
145740,note_on,,0,0,1,,,,,,,,,,,,,,,3,,,47,127
145740,note_on,,7,0,1,,,,,,,,,,,,,,,3,,,67,127
145763,note_on,,23,0,1,,,,,,,,,,,,,,,3,,,67,0
145770,note_on,,7,0,1,,,,,,,,,,,,,,,3,,,69,127
145787,note_on,,17,0,1,,,,,,,,,,,,,,,3,,,47,0
145793,note_on,,6,0,1,,,,,,,,,,,,,,,3,,,69,0
145800,note_on,,0,0,1,,,,,,,,,,,,,,,3,,,50,127
145800,note_on,,7,0,1,,,,,,,,,,,,,,,3,,,71,127
145830,note_on,,30,0,1,,,,,,,,,,,,,,,3,,,66,127
145847,note_on,,17,0,1,,,,,,,,,,,,,,,3,,,71,0
145847,note_on,,0,0,1,,,,,,,,,,,,,,,3,,,50,0
145853,note_on,,6,0,1,,,,,,,,,,,,,,,3,,,66,0
145860,note_on,,7,0,1,,,,,,,,,,,,,,,3,,,67,127
145860,note_on,,0,0,1,,,,,,,,,,,,,,,3,,,47,127
145890,note_on,,30,0,1,,,,,,,,,,,,,,,3,,,62,127
145907,note_on,,17,0,1,,,,,,,,,,,,,,,3,,,47,0
145913,note_on,,6,0,1,,,,,,,,,,,,,,,3,,,62,0
145920,note_on,,7,0,1,,,,,,,,,,,,,,,3,,,59,127
145920,note_on,,0,0,1,,,,,,,,,,,,,,,3,,,52,127
145950,note_on,,30,0,1,,,,,,,,,,,,,,,3,,,78,127
145961,note_on,,11,0,1,,,,,,,,,,,,,,,3,,,67,0
145967,note_on,,6,0,1,,,,,,,,,,,,,,,3,,,59,0
145967,note_on,,0,0,1,,,,,,,,,,,,,,,3,,,52,0
145973,note_on,,6,0,1,,,,,,,,,,,,,,,3,,,78,0
145980,note_on,,7,0,1,,,,,,,,,,,,,,,3,,,79,127
146010,note_on,,30,0,1,,,,,,,,,,,,,,,3,,,74,127
146027,note_on,,17,0,1,,,,,,,,,,,,,,,3,,,79,0
146033,note_on,,6,0,1,,,,,,,,,,,,,,,3,,,74,0
146040,note_on,,7,0,1,,,,,,,,,,,,,,,3,,,76,127
146070,note_on,,30,0,1,,,,,,,,,,,,,,,3,,,71,127
146087,note_on,,17,0,1,,,,,,,,,,,,,,,3,,,76,0
146093,note_on,,6,0,1,,,,,,,,,,,,,,,3,,,71,0
146100,note_on,,7,0,1,,,,,,,,,,,,,,,3,,,72,127
146130,note_on,,30,0,1,,,,,,,,,,,,,,,3,,,74,127
146147,note_on,,17,0,1,,,,,,,,,,,,,,,3,,,72,0
146153,note_on,,6,0,1,,,,,,,,,,,,,,,3,,,74,0
146160,note_on,,7,0,1,,,,,,,,,,,,,,,3,,,76,127
146190,note_on,,30,0,1,,,,,,,,,,,,,,,3,,,71,127
146213,note_on,,23,0,1,,,,,,,,,,,,,,,3,,,71,0
146220,note_on,,7,0,1,,,,,,,,,,,,,,,3,,,72,127
146220,note_on,,0,0,1,,,,,,,,,,,,,,,3,,,52,127
146250,note_on,,30,0,1,,,,,,,,,,,,,,,3,,,66,127
146267,note_on,,17,0,1,,,,,,,,,,,,,,,3,,,52,0
146273,note_on,,6,0,1,,,,,,,,,,,,,,,3,,,66,0
146280,note_on,,7,0,1,,,,,,,,,,,,,,,3,,,67,127
146280,note_on,,0,0,1,,,,,,,,,,,,,,,3,,,48,127
146291,note_on,,11,0,1,,,,,,,,,,,,,,,3,,,76,0
146310,note_on,,19,0,1,,,,,,,,,,,,,,,3,,,74,127
146321,note_on,,11,0,1,,,,,,,,,,,,,,,3,,,72,0
146327,note_on,,6,0,1,,,,,,,,,,,,,,,3,,,67,0
146327,note_on,,0,0,1,,,,,,,,,,,,,,,3,,,48,0
146333,note_on,,6,0,1,,,,,,,,,,,,,,,3,,,74,0
146340,note_on,,7,0,1,,,,,,,,,,,,,,,3,,,72,127
146340,note_on,,0,0,1,,,,,,,,,,,,,,,3,,,52,127
146363,note_on,,23,0,1,,,,,,,,,,,,,,,3,,,72,0
146363,note_on,,0,0,1,,,,,,,,,,,,,,,3,,,52,0
146370,note_on,,0,0,1,,,,,,,,,,,,,,,3,,,50,127
146370,note_on,,7,0,1,,,,,,,,,,,,,,,3,,,71,127
146393,note_on,,0,0,1,,,,,,,,,,,,,,,3,,,50,0
146393,note_on,,23,0,1,,,,,,,,,,,,,,,3,,,71,0
146400,note_on,,0,0,1,,,,,,,,,,,,,,,3,,,52,127
146400,note_on,,7,0,1,,,,,,,,,,,,,,,3,,,72,127
146423,note_on,,23,0,1,,,,,,,,,,,,,,,3,,,72,0
146430,note_on,,7,0,1,,,,,,,,,,,,,,,3,,,67,127
146447,note_on,,17,0,1,,,,,,,,,,,,,,,3,,,52,0
146453,note_on,,6,0,1,,,,,,,,,,,,,,,3,,,67,0
146460,note_on,,0,0,1,,,,,,,,,,,,,,,3,,,48,127
146460,note_on,,7,0,1,,,,,,,,,,,,,,,3,,,69,127
146483,note_on,,23,0,1,,,,,,,,,,,,,,,3,,,69,0
146490,note_on,,7,0,1,,,,,,,,,,,,,,,3,,,71,127
146507,note_on,,17,0,1,,,,,,,,,,,,,,,3,,,48,0
146513,note_on,,6,0,1,,,,,,,,,,,,,,,3,,,71,0
146520,note_on,,0,0,1,,,,,,,,,,,,,,,3,,,52,127
146520,note_on,,7,0,1,,,,,,,,,,,,,,,3,,,72,127
146550,note_on,,30,0,1,,,,,,,,,,,,,,,3,,,67,127
146567,note_on,,0,0,1,,,,,,,,,,,,,,,3,,,52,0
146567,note_on,,17,0,1,,,,,,,,,,,,,,,3,,,72,0
146573,note_on,,6,0,1,,,,,,,,,,,,,,,3,,,67,0
146580,note_on,,7,0,1,,,,,,,,,,,,,,,3,,,69,127
146580,note_on,,0,0,1,,,,,,,,,,,,,,,3,,,48,127
146610,note_on,,30,0,1,,,,,,,,,,,,,,,3,,,66,127
146627,note_on,,17,0,1,,,,,,,,,,,,,,,3,,,69,0
146627,note_on,,0,0,1,,,,,,,,,,,,,,,3,,,48,0
146633,note_on,,6,0,1,,,,,,,,,,,,,,,3,,,66,0
146640,note_on,,7,0,1,,,,,,,,,,,,,,,3,,,67,127
146640,note_on,,0,0,1,,,,,,,,,,,,,,,3,,,62,127
146640,note_on,,0,0,1,,,,,,,,,,,,,,,3,,,55,127
146670,note_on,,30,0,1,,,,,,,,,,,,,,,3,,,72,127
146687,note_on,,17,0,1,,,,,,,,,,,,,,,3,,,67,0
146687,note_on,,0,0,1,,,,,,,,,,,,,,,3,,,55,0
146687,note_on,,0,0,1,,,,,,,,,,,,,,,3,,,62,0
146693,note_on,,6,0,1,,,,,,,,,,,,,,,3,,,72,0
146700,note_on,,7,0,1,,,,,,,,,,,,,,,3,,,74,127
146730,note_on,,30,0,1,,,,,,,,,,,,,,,3,,,69,127
146747,note_on,,17,0,1,,,,,,,,,,,,,,,3,,,74,0
146753,note_on,,6,0,1,,,,,,,,,,,,,,,3,,,69,0
146760,note_on,,7,0,1,,,,,,,,,,,,,,,3,,,71,127
146790,note_on,,30,0,1,,,,,,,,,,,,,,,3,,,66,127
146807,note_on,,17,0,1,,,,,,,,,,,,,,,3,,,71,0
146813,note_on,,6,0,1,,,,,,,,,,,,,,,3,,,66,0
146820,note_on,,7,0,1,,,,,,,,,,,,,,,3,,,67,127
146850,note_on,,30,0,1,,,,,,,,,,,,,,,3,,,69,127
146867,note_on,,17,0,1,,,,,,,,,,,,,,,3,,,67,0
146873,note_on,,6,0,1,,,,,,,,,,,,,,,3,,,69,0
146880,note_on,,7,0,1,,,,,,,,,,,,,,,3,,,71,127
146910,note_on,,30,0,1,,,,,,,,,,,,,,,3,,,66,127
146933,note_on,,23,0,1,,,,,,,,,,,,,,,3,,,66,0
146940,note_on,,7,0,1,,,,,,,,,,,,,,,3,,,67,127
146940,note_on,,0,0,1,,,,,,,,,,,,,,,3,,,55,127
146970,note_on,,30,0,1,,,,,,,,,,,,,,,3,,,62,127
146975,note_on,,5,0,1,,,,,,,,,,,,,,,3,,,71,0
146987,note_on,,12,0,1,,,,,,,,,,,,,,,3,,,67,0
146987,note_on,,0,0,1,,,,,,,,,,,,,,,3,,,55,0
146993,note_on,,6,0,1,,,,,,,,,,,,,,,3,,,62,0
147000,note_on,,7,0,1,,,,,,,,,,,,,,,3,,,72,127
147000,note_on,,0,0,1,,,,,,,,,,,,,,,3,,,67,127
147000,note_on,,0,0,1,,,,,,,,,,,,,,,3,,,64,127
147000,note_on,,0,0,1,,,,,,,,,,,,,,,3,,,52,127
147023,note_on,,23,0,1,,,,,,,,,,,,,,,3,,,52,0
147030,note_on,,7,0,1,,,,,,,,,,,,,,,3,,,55,127
147047,note_on,,0,0,1,,,,,,,,,,,,,,,3,,,67,0
147047,note_on,,17,0,1,,,,,,,,,,,,,,,3,,,72,0
147047,note_on,,0,0,1,,,,,,,,,,,,,,,3,,,64,0
147053,note_on,,6,0,1,,,,,,,,,,,,,,,3,,,55,0
147060,note_on,,7,0,1,,,,,,,,,,,,,,,3,,,48,127
147083,note_on,,23,0,1,,,,,,,,,,,,,,,3,,,48,0
147090,note_on,,7,0,1,,,,,,,,,,,,,,,3,,,55,127
147113,note_on,,23,0,1,,,,,,,,,,,,,,,3,,,55,0
147120,note_on,,0,0,1,,,,,,,,,,,,,,,3,,,65,127
147120,note_on,,0,0,1,,,,,,,,,,,,,,,3,,,62,127
147120,note_on,,0,0,1,,,,,,,,,,,,,,,3,,,50,127
147120,note_on,,7,0,1,,,,,,,,,,,,,,,3,,,71,127
147143,note_on,,23,0,1,,,,,,,,,,,,,,,3,,,50,0
147150,note_on,,7,0,1,,,,,,,,,,,,,,,3,,,55,127
147167,note_on,,0,0,1,,,,,,,,,,,,,,,3,,,62,0
147167,note_on,,0,0,1,,,,,,,,,,,,,,,3,,,65,0
147167,note_on,,17,0,1,,,,,,,,,,,,,,,3,,,71,0
147173,note_on,,6,0,1,,,,,,,,,,,,,,,3,,,55,0
147180,note_on,,0,0,1,,,,,,,,,,,,,,,3,,,52,127
147180,note_on,,0,0,1,,,,,,,,,,,,,,,3,,,60,127
147180,note_on,,0,0,1,,,,,,,,,,,,,,,3,,,67,127
147180,note_on,,7,0,1,,,,,,,,,,,,,,,3,,,72,127
147203,note_on,,23,0,1,,,,,,,,,,,,,,,3,,,52,0
147210,note_on,,7,0,1,,,,,,,,,,,,,,,3,,,55,127
147227,note_on,,0,0,1,,,,,,,,,,,,,,,3,,,67,0
147227,note_on,,0,0,1,,,,,,,,,,,,,,,3,,,60,0
147227,note_on,,17,0,1,,,,,,,,,,,,,,,3,,,72,0
147233,note_on,,6,0,1,,,,,,,,,,,,,,,3,,,55,0
147240,note_on,,7,0,1,,,,,,,,,,,,,,,3,,,71,127
147240,note_on,,0,0,1,,,,,,,,,,,,,,,3,,,65,127
147240,note_on,,0,0,1,,,,,,,,,,,,,,,3,,,62,127
147240,note_on,,0,0,1,,,,,,,,,,,,,,,3,,,50,127
147263,note_on,,23,0,1,,,,,,,,,,,,,,,3,,,50,0
147270,note_on,,7,0,1,,,,,,,,,,,,,,,3,,,55,127
147287,note_on,,17,0,1,,,,,,,,,,,,,,,3,,,71,0
147287,note_on,,0,0,1,,,,,,,,,,,,,,,3,,,62,0
147287,note_on,,0,0,1,,,,,,,,,,,,,,,3,,,65,0
147293,note_on,,6,0,1,,,,,,,,,,,,,,,3,,,55,0
147300,note_on,,0,0,1,,,,,,,,,,,,,,,3,,,67,127
147300,note_on,,0,0,1,,,,,,,,,,,,,,,3,,,52,127
147300,note_on,,0,0,1,,,,,,,,,,,,,,,3,,,60,127
147300,note_on,,7,0,1,,,,,,,,,,,,,,,3,,,72,127
147323,note_on,,23,0,1,,,,,,,,,,,,,,,3,,,52,0
147330,note_on,,7,0,1,,,,,,,,,,,,,,,3,,,55,127
147347,note_on,,17,0,1,,,,,,,,,,,,,,,3,,,72,0
147347,note_on,,0,0,1,,,,,,,,,,,,,,,3,,,67,0
147347,note_on,,0,0,1,,,,,,,,,,,,,,,3,,,60,0
147353,note_on,,6,0,1,,,,,,,,,,,,,,,3,,,55,0
147360,note_on,,0,0,1,,,,,,,,,,,,,,,3,,,53,127
147360,note_on,,0,0,1,,,,,,,,,,,,,,,3,,,57,127
147360,note_on,,0,0,1,,,,,,,,,,,,,,,3,,,69,127
147360,note_on,,7,0,1,,,,,,,,,,,,,,,3,,,74,127
147383,note_on,,23,0,1,,,,,,,,,,,,,,,3,,,53,0
147390,note_on,,7,0,1,,,,,,,,,,,,,,,3,,,55,127
147407,note_on,,0,0,1,,,,,,,,,,,,,,,3,,,57,0
147407,note_on,,17,0,1,,,,,,,,,,,,,,,3,,,74,0
147407,note_on,,0,0,1,,,,,,,,,,,,,,,3,,,69,0
147413,note_on,,6,0,1,,,,,,,,,,,,,,,3,,,55,0
147420,note_on,,0,0,1,,,,,,,,,,,,,,,3,,,60,127
147420,note_on,,0,0,1,,,,,,,,,,,,,,,3,,,67,127
147420,note_on,,7,0,1,,,,,,,,,,,,,,,3,,,72,127
147420,note_on,,0,0,1,,,,,,,,,,,,,,,3,,,52,127
147443,note_on,,23,0,1,,,,,,,,,,,,,,,3,,,52,0
147450,note_on,,7,0,1,,,,,,,,,,,,,,,3,,,55,127
147467,note_on,,17,0,1,,,,,,,,,,,,,,,3,,,72,0
147467,note_on,,0,0,1,,,,,,,,,,,,,,,3,,,67,0
147467,note_on,,0,0,1,,,,,,,,,,,,,,,3,,,60,0
147473,note_on,,6,0,1,,,,,,,,,,,,,,,3,,,55,0
147480,note_on,,0,0,1,,,,,,,,,,,,,,,3,,,50,127
147480,note_on,,0,0,1,,,,,,,,,,,,,,,3,,,62,127
147480,note_on,,0,0,1,,,,,,,,,,,,,,,3,,,65,127
147480,note_on,,7,0,1,,,,,,,,,,,,,,,3,,,71,127
147503,note_on,,23,0,1,,,,,,,,,,,,,,,3,,,50,0
147510,note_on,,7,0,1,,,,,,,,,,,,,,,3,,,55,127
147527,note_on,,0,0,1,,,,,,,,,,,,,,,3,,,62,0
147527,note_on,,17,0,1,,,,,,,,,,,,,,,3,,,71,0
147527,note_on,,0,0,1,,,,,,,,,,,,,,,3,,,65,0
147533,note_on,,6,0,1,,,,,,,,,,,,,,,3,,,55,0
147540,note_on,,0,0,1,,,,,,,,,,,,,,,3,,,52,127
147540,note_on,,0,0,1,,,,,,,,,,,,,,,3,,,60,127
147540,note_on,,0,0,1,,,,,,,,,,,,,,,3,,,67,127
147540,note_on,,7,0,1,,,,,,,,,,,,,,,3,,,72,127
147563,note_on,,23,0,1,,,,,,,,,,,,,,,3,,,52,0
147570,note_on,,7,0,1,,,,,,,,,,,,,,,3,,,55,127
147587,note_on,,0,0,1,,,,,,,,,,,,,,,3,,,67,0
147587,note_on,,0,0,1,,,,,,,,,,,,,,,3,,,60,0
147587,note_on,,17,0,1,,,,,,,,,,,,,,,3,,,72,0
147593,note_on,,6,0,1,,,,,,,,,,,,,,,3,,,55,0
147600,note_on,,7,0,1,,,,,,,,,,,,,,,3,,,48,127
147623,note_on,,23,0,1,,,,,,,,,,,,,,,3,,,48,0
147630,note_on,,7,0,1,,,,,,,,,,,,,,,3,,,55,127
147653,note_on,,23,0,1,,,,,,,,,,,,,,,3,,,55,0
147660,note_on,,7,0,1,,,,,,,,,,,,,,,3,,,46,127
147683,note_on,,23,0,1,,,,,,,,,,,,,,,3,,,46,0
147690,note_on,,7,0,1,,,,,,,,,,,,,,,3,,,55,127
147713,note_on,,23,0,1,,,,,,,,,,,,,,,3,,,55,0
147720,note_on,,7,0,1,,,,,,,,,,,,,,,3,,,45,127
147750,note_on,,30,0,1,,,,,,,,,,,,,,,3,,,67,127
147767,note_on,,17,0,1,,,,,,,,,,,,,,,3,,,45,0
147773,note_on,,6,0,1,,,,,,,,,,,,,,,3,,,67,0
147780,note_on,,7,0,1,,,,,,,,,,,,,,,3,,,69,127
147780,note_on,,0,0,1,,,,,,,,,,,,,,,3,,,53,127
147803,note_on,,23,0,1,,,,,,,,,,,,,,,3,,,69,0
147810,note_on,,7,0,1,,,,,,,,,,,,,,,3,,,65,127
147827,note_on,,17,0,1,,,,,,,,,,,,,,,3,,,53,0
147833,note_on,,6,0,1,,,,,,,,,,,,,,,3,,,65,0
147840,note_on,,0,0,1,,,,,,,,,,,,,,,3,,,47,127
147840,note_on,,7,0,1,,,,,,,,,,,,,,,3,,,67,127
147870,note_on,,30,0,1,,,,,,,,,,,,,,,3,,,62,127
147887,note_on,,17,0,1,,,,,,,,,,,,,,,3,,,47,0
147893,note_on,,6,0,1,,,,,,,,,,,,,,,3,,,62,0
147900,note_on,,7,0,1,,,,,,,,,,,,,,,3,,,64,127
147900,note_on,,0,0,1,,,,,,,,,,,,,,,3,,,48,127
147930,note_on,,30,0,1,,,,,,,,,,,,,,,3,,,55,127
147941,note_on,,11,0,1,,,,,,,,,,,,,,,3,,,67,0
147947,note_on,,6,0,1,,,,,,,,,,,,,,,3,,,64,0
147947,note_on,,0,0,1,,,,,,,,,,,,,,,3,,,48,0
147953,note_on,,6,0,1,,,,,,,,,,,,,,,3,,,55,0
147960,note_on,,7,0,1,,,,,,,,,,,,,,,3,,,65,127
147960,note_on,,0,0,1,,,,,,,,,,,,,,,3,,,62,127
147960,note_on,,0,0,1,,,,,,,,,,,,,,,3,,,57,127
147960,note_on,,0,0,1,,,,,,,,,,,,,,,3,,,50,127
147974,note_on,,14,0,1,,,,,,,,,,,,,,,3,,,50,0
147975,note_on,,1,0,1,,,,,,,,,,,,,,,3,,,48,127
147983,note_on,,8,0,1,,,,,,,,,,,,,,,3,,,57,0
147989,note_on,,6,0,1,,,,,,,,,,,,,,,3,,,48,0
147990,note_on,,0,0,1,,,,,,,,,,,,,,,3,,,50,127
147990,note_on,,1,0,1,,,,,,,,,,,,,,,3,,,53,127
148004,note_on,,14,0,1,,,,,,,,,,,,,,,3,,,50,0
148005,note_on,,1,0,1,,,,,,,,,,,,,,,3,,,48,127
148013,note_on,,8,0,1,,,,,,,,,,,,,,,3,,,53,0
148020,note_on,,7,0,1,,,,,,,,,,,,,,,3,,,55,127
148046,note_on,,26,0,1,,,,,,,,,,,,,,,3,,,48,0
148050,note_on,,4,0,1,,,,,,,,,,,,,,,3,,,50,127
148050,note_on,,0,0,1,,,,,,,,,,,,,,,3,,,47,127
148073,note_on,,23,0,1,,,,,,,,,,,,,,,3,,,50,0
148073,note_on,,0,0,1,,,,,,,,,,,,,,,3,,,47,0
148080,note_on,,7,0,1,,,,,,,,,,,,,,,3,,,52,127
148080,note_on,,0,0,1,,,,,,,,,,,,,,,3,,,48,127
148091,note_on,,11,0,1,,,,,,,,,,,,,,,3,,,65,0
148091,note_on,,0,0,1,,,,,,,,,,,,,,,3,,,62,0
148097,note_on,,6,0,1,,,,,,,,,,,,,,,3,,,55,0
148103,note_on,,6,0,1,,,,,,,,,,,,,,,3,,,52,0
148110,note_on,,7,0,1,,,,,,,,,,,,,,,3,,,65,127
148127,note_on,,17,0,1,,,,,,,,,,,,,,,3,,,48,0
148130,set_tempo,,47330,1,0,,,,,,,,722891,,,,,,,,,,,
148133,note_on,,6,0,1,,,,,,,,,,,,,,,3,,,65,0
148140,note_on,,7,0,1,,,,,,,,,,,,,,,3,,,67,127
148163,note_on,,23,0,1,,,,,,,,,,,,,,,3,,,67,0
148170,note_on,,7,0,1,,,,,,,,,,,,,,,3,,,62,127
148193,note_on,,23,0,1,,,,,,,,,,,,,,,3,,,62,0
148200,note_on,,7,0,1,,,,,,,,,,,,,,,3,,,64,127
148230,note_on,,30,0,1,,,,,,,,,,,,,,,3,,,59,127
148253,note_on,,23,0,1,,,,,,,,,,,,,,,3,,,59,0
148260,note_on,,7,0,1,,,,,,,,,,,,,,,3,,,60,127
148277,note_on,,17,0,1,,,,,,,,,,,,,,,3,,,64,0
148283,note_on,,6,0,1,,,,,,,,,,,,,,,3,,,60,0
148290,note_on,,7,0,1,,,,,,,,,,,,,,,3,,,59,127
148313,note_on,,23,0,1,,,,,,,,,,,,,,,3,,,59,0
148320,note_on,,7,0,1,,,,,,,,,,,,,,,3,,,60,127
148343,note_on,,23,0,1,,,,,,,,,,,,,,,3,,,60,0
148350,note_on,,7,0,1,,,,,,,,,,,,,,,3,,,55,127
148373,note_on,,23,0,1,,,,,,,,,,,,,,,3,,,55,0
148380,note_on,,7,0,1,,,,,,,,,,,,,,,3,,,57,127
148403,note_on,,23,0,1,,,,,,,,,,,,,,,3,,,57,0
148410,note_on,,7,0,1,,,,,,,,,,,,,,,3,,,54,127
148433,note_on,,23,0,1,,,,,,,,,,,,,,,3,,,54,0
148440,note_on,,7,0,1,,,,,,,,,,,,,,,3,,,55,127
148463,note_on,,23,0,1,,,,,,,,,,,,,,,3,,,55,0
148470,note_on,,7,0,1,,,,,,,,,,,,,,,3,,,54,127
148493,note_on,,23,0,1,,,,,,,,,,,,,,,3,,,54,0
148500,note_on,,7,0,1,,,,,,,,,,,,,,,3,,,55,127
148523,note_on,,23,0,1,,,,,,,,,,,,,,,3,,,55,0
148530,note_on,,7,0,1,,,,,,,,,,,,,,,3,,,50,127
148553,note_on,,23,0,1,,,,,,,,,,,,,,,3,,,50,0
148560,note_on,,7,0,1,,,,,,,,,,,,,,,3,,,52,127
148583,note_on,,23,0,1,,,,,,,,,,,,,,,3,,,52,0
148590,note_on,,7,0,1,,,,,,,,,,,,,,,3,,,47,127
148613,note_on,,23,0,1,,,,,,,,,,,,,,,3,,,47,0
148620,note_on,,7,0,1,,,,,,,,,,,,,,,3,,,48,127
148643,note_on,,23,0,1,,,,,,,,,,,,,,,3,,,48,0
148650,note_on,,7,0,1,,,,,,,,,,,,,,,3,,,47,127
148673,note_on,,23,0,1,,,,,,,,,,,,,,,3,,,47,0
148680,note_on,,7,0,1,,,,,,,,,,,,,,,3,,,48,127
148685,set_tempo,,555,1,0,,,,,,,,789473,,,,,,,,,,,
148703,note_on,,23,0,1,,,,,,,,,,,,,,,3,,,48,0
148710,note_on,,7,0,1,,,,,,,,,,,,,,,3,,,43,127
148733,note_on,,23,0,1,,,,,,,,,,,,,,,3,,,43,0
148740,note_on,,7,0,1,,,,,,,,,,,,,,,3,,,45,127
148763,note_on,,23,0,1,,,,,,,,,,,,,,,3,,,45,0
148770,note_on,,7,0,1,,,,,,,,,,,,,,,3,,,42,127
148793,note_on,,23,0,1,,,,,,,,,,,,,,,3,,,42,0
148800,note_on,,7,0,1,,,,,,,,,,,,,,,3,,,43,127
148815,note_on,,15,0,1,,,,,,,,,,,,,,,3,,,55,127
148826,note_on,,11,0,1,,,,,,,,,,,,,,,3,,,55,0
148830,note_on,,4,0,1,,,,,,,,,,,,,,,3,,,57,127
148840,set_tempo,,155,1,0,,,,,,,,869565,,,,,,,,,,,
148841,note_on,,11,0,1,,,,,,,,,,,,,,,3,,,57,0
148845,note_on,,4,0,1,,,,,,,,,,,,,,,3,,,59,127
148853,set_tempo,,13,1,0,,,,,,,,1000000,,,,,,,,,,,
148856,note_on,,11,0,1,,,,,,,,,,,,,,,3,,,59,0
148860,note_on,,4,0,1,,,,,,,,,,,,,,,3,,,60,127
148871,note_on,,11,0,1,,,,,,,,,,,,,,,3,,,60,0
148875,note_on,,4,0,1,,,,,,,,,,,,,,,3,,,62,127
148886,note_on,,11,0,1,,,,,,,,,,,,,,,3,,,62,0
148890,note_on,,4,0,1,,,,,,,,,,,,,,,3,,,64,127
148901,note_on,,11,0,1,,,,,,,,,,,,,,,3,,,64,0
148905,note_on,,4,0,1,,,,,,,,,,,,,,,3,,,65,127
148916,note_on,,11,0,1,,,,,,,,,,,,,,,3,,,65,0
148920,note_on,,4,0,1,,,,,,,,,,,,,,,3,,,67,127
148931,note_on,,11,0,1,,,,,,,,,,,,,,,3,,,67,0
148935,note_on,,4,0,1,,,,,,,,,,,,,,,3,,,69,127
148946,note_on,,11,0,1,,,,,,,,,,,,,,,3,,,69,0
148950,note_on,,4,0,1,,,,,,,,,,,,,,,3,,,71,127
148961,note_on,,11,0,1,,,,,,,,,,,,,,,3,,,71,0
148965,note_on,,4,0,1,,,,,,,,,,,,,,,3,,,67,127
148976,note_on,,11,0,1,,,,,,,,,,,,,,,3,,,67,0
148980,note_on,,4,0,1,,,,,,,,,,,,,,,3,,,72,127
149010,note_on,,30,0,1,,,,,,,,,,,,,,,3,,,67,127
149010,note_on,,0,0,1,,,,,,,,,,,,,,,3,,,60,127
149010,note_on,,0,0,1,,,,,,,,,,,,,,,3,,,64,127
149033,note_on,,23,0,1,,,,,,,,,,,,,,,3,,,67,0
149033,note_on,,0,0,1,,,,,,,,,,,,,,,3,,,64,0
149033,note_on,,0,0,1,,,,,,,,,,,,,,,3,,,60,0
149040,set_tempo,,187,1,0,,,,,,,,833333,,,,,,,,,,,
149040,note_on,,7,0,1,,,,,,,,,,,,,,,3,,,65,127
149040,note_on,,0,0,1,,,,,,,,,,,,,,,3,,,62,127
149040,note_on,,0,0,1,,,,,,,,,,,,,,,3,,,55,127
149075,note_on,,35,0,1,,,,,,,,,,,,,,,3,,,72,0
149100,note_on,,25,0,1,,,,,,,,,,,,,,,3,,,71,127
149111,note_on,,11,0,1,,,,,,,,,,,,,,,3,,,43,0
149135,note_on,,24,0,1,,,,,,,,,,,,,,,3,,,65,0
149135,note_on,,0,0,1,,,,,,,,,,,,,,,3,,,62,0
149135,note_on,,0,0,1,,,,,,,,,,,,,,,3,,,55,0
149147,note_on,,12,0,1,,,,,,,,,,,,,,,3,,,71,0
149160,note_on,,13,0,1,,,,,,,,,,,,,,,3,,,72,127
149160,note_on,,0,0,1,,,,,,,,,,,,,,,3,,,67,127
149160,note_on,,0,0,1,,,,,,,,,,,,,,,3,,,64,127
149160,note_on,,0,0,1,,,,,,,,,,,,,,,3,,,60,127
149160,note_on,,0,0,1,,,,,,,,,,,,,,,3,,,36,127
149183,note_on,,23,0,1,,,,,,,,,,,,,,,3,,,72,0
149190,note_on,,7,0,1,,,,,,,,,,,,,,,3,,,74,127
149210,set_tempo,,170,1,0,,,,,,,,697674,,,,,,,,,,,
149213,note_on,,23,0,1,,,,,,,,,,,,,,,3,,,74,0
149220,note_on,,7,0,1,,,,,,,,,,,,,,,3,,,76,127
149243,note_on,,23,0,1,,,,,,,,,,,,,,,3,,,76,0
149250,note_on,,7,0,1,,,,,,,,,,,,,,,3,,,71,127
149255,note_on,,0,0,1,,,,,,,,,,,,,,,3,,,60,0
149255,note_on,,0,0,1,,,,,,,,,,,,,,,3,,,64,0
149255,note_on,,5,0,1,,,,,,,,,,,,,,,3,,,67,0
149273,note_on,,18,0,1,,,,,,,,,,,,,,,3,,,71,0
149280,note_on,,0,0,1,,,,,,,,,,,,,,,3,,,57,127
149280,note_on,,0,0,1,,,,,,,,,,,,,,,3,,,65,127
149280,note_on,,7,0,1,,,,,,,,,,,,,,,3,,,72,127
149280,note_on,,0,0,1,,,,,,,,,,,,,,,3,,,60,127
149303,note_on,,23,0,1,,,,,,,,,,,,,,,3,,,72,0
149310,note_on,,7,0,1,,,,,,,,,,,,,,,3,,,69,127
149327,note_on,,17,0,1,,,,,,,,,,,,,,,3,,,65,0
149327,note_on,,0,0,1,,,,,,,,,,,,,,,3,,,60,0
149327,note_on,,0,0,1,,,,,,,,,,,,,,,3,,,57,0
149333,note_on,,6,0,1,,,,,,,,,,,,,,,3,,,69,0
149340,note_on,,0,0,1,,,,,,,,,,,,,,,3,,,65,127
149340,note_on,,0,0,1,,,,,,,,,,,,,,,3,,,62,127
149340,note_on,,0,0,1,,,,,,,,,,,,,,,3,,,57,127
149340,note_on,,7,0,1,,,,,,,,,,,,,,,3,,,70,127
149363,note_on,,23,0,1,,,,,,,,,,,,,,,3,,,70,0
149370,note_on,,7,0,1,,,,,,,,,,,,,,,3,,,72,127
149393,note_on,,23,0,1,,,,,,,,,,,,,,,3,,,72,0
149400,set_tempo,,190,1,0,,,,,,,,731707,,,,,,,,,,,
149400,note_on,,7,0,1,,,,,,,,,,,,,,,3,,,74,127
149423,note_on,,23,0,1,,,,,,,,,,,,,,,3,,,74,0
149430,note_on,,7,0,1,,,,,,,,,,,,,,,3,,,69,127
149435,note_on,,5,0,1,,,,,,,,,,,,,,,3,,,65,0
149435,note_on,,0,0,1,,,,,,,,,,,,,,,3,,,62,0
149435,note_on,,0,0,1,,,,,,,,,,,,,,,3,,,57,0
149453,note_on,,18,0,1,,,,,,,,,,,,,,,3,,,69,0
149460,note_on,,7,0,1,,,,,,,,,,,,,,,3,,,70,127
149460,note_on,,0,0,1,,,,,,,,,,,,,,,3,,,58,127
149460,note_on,,0,0,1,,,,,,,,,,,,,,,3,,,55,127
149460,note_on,,0,0,1,,,,,,,,,,,,,,,3,,,64,127
149483,note_on,,23,0,1,,,,,,,,,,,,,,,3,,,70,0
149490,note_on,,7,0,1,,,,,,,,,,,,,,,3,,,67,127
149507,note_on,,17,0,1,,,,,,,,,,,,,,,3,,,64,0
149507,note_on,,0,0,1,,,,,,,,,,,,,,,3,,,58,0
149507,note_on,,0,0,1,,,,,,,,,,,,,,,3,,,55,0
149513,note_on,,6,0,1,,,,,,,,,,,,,,,3,,,67,0
149520,note_on,,7,0,1,,,,,,,,,,,,,,,3,,,69,127
149520,note_on,,0,0,1,,,,,,,,,,,,,,,3,,,60,127
149520,note_on,,0,0,1,,,,,,,,,,,,,,,3,,,55,127
149520,note_on,,0,0,1,,,,,,,,,,,,,,,3,,,64,127
149543,note_on,,23,0,1,,,,,,,,,,,,,,,3,,,69,0
149550,note_on,,7,0,1,,,,,,,,,,,,,,,3,,,70,127
149570,set_tempo,,170,1,0,,,,,,,,769230,,,,,,,,,,,
149573,note_on,,23,0,1,,,,,,,,,,,,,,,3,,,70,0
149580,note_on,,7,0,1,,,,,,,,,,,,,,,3,,,72,127
149603,note_on,,23,0,1,,,,,,,,,,,,,,,3,,,72,0
149610,note_on,,7,0,1,,,,,,,,,,,,,,,3,,,67,127
149615,note_on,,0,0,1,,,,,,,,,,,,,,,3,,,55,0
149615,note_on,,0,0,1,,,,,,,,,,,,,,,3,,,60,0
149615,note_on,,5,0,1,,,,,,,,,,,,,,,3,,,64,0
149633,note_on,,18,0,1,,,,,,,,,,,,,,,3,,,67,0
149640,note_on,,7,0,1,,,,,,,,,,,,,,,3,,,69,127
149640,note_on,,0,0,1,,,,,,,,,,,,,,,3,,,57,127
149640,note_on,,0,0,1,,,,,,,,,,,,,,,3,,,53,127
149640,note_on,,0,0,1,,,,,,,,,,,,,,,3,,,62,127
149663,note_on,,23,0,1,,,,,,,,,,,,,,,3,,,69,0
149670,note_on,,7,0,1,,,,,,,,,,,,,,,3,,,65,127
149687,note_on,,17,0,1,,,,,,,,,,,,,,,3,,,62,0
149687,note_on,,0,0,1,,,,,,,,,,,,,,,3,,,57,0
149687,note_on,,0,0,1,,,,,,,,,,,,,,,3,,,53,0
149693,note_on,,6,0,1,,,,,,,,,,,,,,,3,,,65,0
149700,note_on,,7,0,1,,,,,,,,,,,,,,,3,,,67,127
149700,note_on,,0,0,1,,,,,,,,,,,,,,,3,,,62,127
149700,note_on,,0,0,1,,,,,,,,,,,,,,,3,,,53,127
149700,set_tempo,,130,1,0,,,,,,,,800000,,,,,,,,,,,
149700,note_on,,0,0,1,,,,,,,,,,,,,,,3,,,59,127
149723,note_on,,23,0,1,,,,,,,,,,,,,,,3,,,67,0
149730,note_on,,7,0,1,,,,,,,,,,,,,,,3,,,69,127
149753,note_on,,23,0,1,,,,,,,,,,,,,,,3,,,69,0
149760,note_on,,7,0,1,,,,,,,,,,,,,,,3,,,71,127
149783,note_on,,23,0,1,,,,,,,,,,,,,,,3,,,71,0
149790,note_on,,7,0,1,,,,,,,,,,,,,,,3,,,65,127
149795,note_on,,5,0,1,,,,,,,,,,,,,,,3,,,62,0
149795,note_on,,0,0,1,,,,,,,,,,,,,,,3,,,53,0
149795,note_on,,0,0,1,,,,,,,,,,,,,,,3,,,59,0
149813,note_on,,18,0,1,,,,,,,,,,,,,,,3,,,65,0
149820,note_on,,0,0,1,,,,,,,,,,,,,,,3,,,52,127
149820,note_on,,0,0,1,,,,,,,,,,,,,,,3,,,55,127
149820,note_on,,7,0,1,,,,,,,,,,,,,,,3,,,67,127
149820,note_on,,0,0,1,,,,,,,,,,,,,,,3,,,60,127
149843,note_on,,23,0,1,,,,,,,,,,,,,,,3,,,67,0
149850,note_on,,7,0,1,,,,,,,,,,,,,,,3,,,64,127
149867,note_on,,0,0,1,,,,,,,,,,,,,,,3,,,52,0
149867,note_on,,0,0,1,,,,,,,,,,,,,,,3,,,55,0
149867,note_on,,17,0,1,,,,,,,,,,,,,,,3,,,60,0
149873,note_on,,6,0,1,,,,,,,,,,,,,,,3,,,64,0
149880,note_on,,0,0,1,,,,,,,,,,,,,,,3,,,52,127
149880,note_on,,0,0,1,,,,,,,,,,,,,,,3,,,60,127
149880,note_on,,0,0,1,,,,,,,,,,,,,,,3,,,57,127
149880,note_on,,7,0,1,,,,,,,,,,,,,,,3,,,65,127
149903,note_on,,23,0,1,,,,,,,,,,,,,,,3,,,65,0
149910,set_tempo,,210,1,0,,,,,,,,722891,,,,,,,,,,,
149910,note_on,,7,0,1,,,,,,,,,,,,,,,3,,,67,127
149933,note_on,,23,0,1,,,,,,,,,,,,,,,3,,,67,0
149940,note_on,,7,0,1,,,,,,,,,,,,,,,3,,,69,127
149963,note_on,,23,0,1,,,,,,,,,,,,,,,3,,,69,0
149970,note_on,,7,0,1,,,,,,,,,,,,,,,3,,,64,127
149975,note_on,,0,0,1,,,,,,,,,,,,,,,3,,,52,0
149975,note_on,,5,0,1,,,,,,,,,,,,,,,3,,,60,0
149975,note_on,,0,0,1,,,,,,,,,,,,,,,3,,,57,0
149993,note_on,,18,0,1,,,,,,,,,,,,,,,3,,,64,0
150000,note_on,,7,0,1,,,,,,,,,,,,,,,3,,,65,127
150023,note_on,,23,0,1,,,,,,,,,,,,,,,3,,,65,0
150030,note_on,,7,0,1,,,,,,,,,,,,,,,3,,,67,127
150053,note_on,,23,0,1,,,,,,,,,,,,,,,3,,,67,0
150060,note_on,,7,0,1,,,,,,,,,,,,,,,3,,,69,127
150083,note_on,,23,0,1,,,,,,,,,,,,,,,3,,,69,0
150090,note_on,,7,0,1,,,,,,,,,,,,,,,3,,,64,127
150113,note_on,,23,0,1,,,,,,,,,,,,,,,3,,,64,0
150120,note_on,,7,0,1,,,,,,,,,,,,,,,3,,,65,127
150143,note_on,,23,0,1,,,,,,,,,,,,,,,3,,,65,0
150150,note_on,,7,0,1,,,,,,,,,,,,,,,3,,,60,127
150173,note_on,,23,0,1,,,,,,,,,,,,,,,3,,,60,0
150180,note_on,,7,0,1,,,,,,,,,,,,,,,3,,,62,127
150203,note_on,,23,0,1,,,,,,,,,,,,,,,3,,,62,0
150210,note_on,,7,0,1,,,,,,,,,,,,,,,3,,,57,127
150233,note_on,,23,0,1,,,,,,,,,,,,,,,3,,,57,0
150240,note_on,,0,0,1,,,,,,,,,,,,,,,3,,,50,127
150240,note_on,,0,0,1,,,,,,,,,,,,,,,3,,,59,127
150240,note_on,,7,0,1,,,,,,,,,,,,,,,3,,,55,127
150240,note_on,,0,0,1,,,,,,,,,,,,,,,3,,,53,127
150250,set_tempo,,340,1,0,,,,,,,,750000,,,,,,,,,,,
150263,note_on,,23,0,1,,,,,,,,,,,,,,,3,,,59,0
150270,note_on,,7,0,1,,,,,,,,,,,,,,,3,,,60,127
150293,note_on,,23,0,1,,,,,,,,,,,,,,,3,,,60,0
150300,note_on,,7,0,1,,,,,,,,,,,,,,,3,,,62,127
150323,note_on,,23,0,1,,,,,,,,,,,,,,,3,,,62,0
150330,note_on,,7,0,1,,,,,,,,,,,,,,,3,,,57,127
150335,note_on,,0,0,1,,,,,,,,,,,,,,,3,,,50,0
150335,note_on,,0,0,1,,,,,,,,,,,,,,,3,,,53,0
150335,note_on,,5,0,1,,,,,,,,,,,,,,,3,,,55,0
150353,note_on,,18,0,1,,,,,,,,,,,,,,,3,,,57,0
150360,note_on,,7,0,1,,,,,,,,,,,,,,,3,,,59,127
150383,note_on,,23,0,1,,,,,,,,,,,,,,,3,,,59,0
150390,note_on,,7,0,1,,,,,,,,,,,,,,,3,,,60,127
150413,note_on,,23,0,1,,,,,,,,,,,,,,,3,,,60,0
150420,note_on,,7,0,1,,,,,,,,,,,,,,,3,,,62,127
150443,note_on,,23,0,1,,,,,,,,,,,,,,,3,,,62,0
150450,note_on,,7,0,1,,,,,,,,,,,,,,,3,,,57,127
150473,note_on,,23,0,1,,,,,,,,,,,,,,,3,,,57,0
150480,note_on,,7,0,1,,,,,,,,,,,,,,,3,,,59,127
150503,note_on,,23,0,1,,,,,,,,,,,,,,,3,,,59,0
150510,note_on,,7,0,1,,,,,,,,,,,,,,,3,,,54,127
150533,note_on,,23,0,1,,,,,,,,,,,,,,,3,,,54,0
150540,note_on,,7,0,1,,,,,,,,,,,,,,,3,,,55,127
150551,note_on,,11,0,1,,,,,,,,,,,,,,,3,,,36,0
150563,note_on,,12,0,1,,,,,,,,,,,,,,,3,,,55,0
150570,note_on,,7,0,1,,,,,,,,,,,,,,,3,,,50,127
150593,note_on,,23,0,1,,,,,,,,,,,,,,,3,,,50,0
150600,note_on,,7,0,1,,,,,,,,,,,,,,,3,,,48,127
150600,note_on,,0,0,1,,,,,,,,,,,,,,,3,,,52,127
150623,note_on,,23,0,1,,,,,,,,,,,,,,,3,,,52,0
150630,note_on,,7,0,1,,,,,,,,,,,,,,,3,,,55,127
150650,set_tempo,,400,1,0,,,,,,,,789473,,,,,,,,,,,
150653,note_on,,23,0,1,,,,,,,,,,,,,,,3,,,55,0
150660,note_on,,7,0,1,,,,,,,,,,,,,,,3,,,60,127
150683,note_on,,23,0,1,,,,,,,,,,,,,,,3,,,60,0
150690,note_on,,7,0,1,,,,,,,,,,,,,,,3,,,54,127
150695,note_on,,5,0,1,,,,,,,,,,,,,,,3,,,48,0
150713,note_on,,18,0,1,,,,,,,,,,,,,,,3,,,54,0
150720,note_on,,7,0,1,,,,,,,,,,,,,,,3,,,55,127
150743,note_on,,23,0,1,,,,,,,,,,,,,,,3,,,55,0
150750,note_on,,7,0,1,,,,,,,,,,,,,,,3,,,50,127
150773,note_on,,23,0,1,,,,,,,,,,,,,,,3,,,50,0
150780,note_on,,7,0,1,,,,,,,,,,,,,,,3,,,52,127
150803,note_on,,23,0,1,,,,,,,,,,,,,,,3,,,52,0
150810,note_on,,7,0,1,,,,,,,,,,,,,,,3,,,53,127
150833,note_on,,23,0,1,,,,,,,,,,,,,,,3,,,53,0
150840,note_on,,7,0,1,,,,,,,,,,,,,,,3,,,55,127
150863,note_on,,23,0,1,,,,,,,,,,,,,,,3,,,55,0
150870,note_on,,7,0,1,,,,,,,,,,,,,,,3,,,50,127
150893,note_on,,23,0,1,,,,,,,,,,,,,,,3,,,50,0
150900,note_on,,7,0,1,,,,,,,,,,,,,,,3,,,52,127
150923,note_on,,23,0,1,,,,,,,,,,,,,,,3,,,52,0
150930,note_on,,7,0,1,,,,,,,,,,,,,,,3,,,47,127
150953,note_on,,23,0,1,,,,,,,,,,,,,,,3,,,47,0
150960,note_on,,7,0,1,,,,,,,,,,,,,,,3,,,48,127
150983,note_on,,23,0,1,,,,,,,,,,,,,,,3,,,48,0
150990,note_on,,7,0,1,,,,,,,,,,,,,,,3,,,50,127
151013,note_on,,23,0,1,,,,,,,,,,,,,,,3,,,50,0
151020,note_on,,7,0,1,,,,,,,,,,,,,,,3,,,52,127
151030,set_tempo,,380,1,0,,,,,,,,821917,,,,,,,,,,,
151043,note_on,,23,0,1,,,,,,,,,,,,,,,3,,,52,0
151050,note_on,,7,0,1,,,,,,,,,,,,,,,3,,,47,127
151073,note_on,,23,0,1,,,,,,,,,,,,,,,3,,,47,0
151080,note_on,,7,0,1,,,,,,,,,,,,,,,3,,,48,127
151103,note_on,,23,0,1,,,,,,,,,,,,,,,3,,,48,0
151110,note_on,,7,0,1,,,,,,,,,,,,,,,3,,,42,127
151133,note_on,,23,0,1,,,,,,,,,,,,,,,3,,,42,0
151140,note_on,,7,0,1,,,,,,,,,,,,,,,3,,,43,127
151150,set_tempo,,120,1,0,,,,,,,,869565,,,,,,,,,,,
151163,note_on,,23,0,1,,,,,,,,,,,,,,,3,,,43,0
151170,note_on,,7,0,1,,,,,,,,,,,,,,,3,,,48,127
151193,note_on,,23,0,1,,,,,,,,,,,,,,,3,,,48,0
151200,note_on,,7,0,1,,,,,,,,,,,,,,,3,,,43,127
151200,set_tempo,,50,1,0,,,,,,,,1000000,,,,,,,,,,,
151223,note_on,,23,0,1,,,,,,,,,,,,,,,3,,,43,0
151230,note_on,,7,0,1,,,,,,,,,,,,,,,3,,,38,127
151236,set_tempo,,36,1,0,,,,,,,,1428571,,,,,,,,,,,
151253,note_on,,23,0,1,,,,,,,,,,,,,,,3,,,38,0
151260,set_tempo,,24,1,0,,,,,,,,2727272,,,,,,,,,,,
151260,note_on,,7,0,1,,,,,,,,,,,,,,,3,,,40,127
151283,note_on,,23,0,1,,,,,,,,,,,,,,,3,,,40,0
151290,note_on,,7,0,1,,,,,,,,,,,,,,,3,,,36,127
151290,set_tempo,,30,1,0,,,,,,,,4285714,,,,,,,,,,,
151290,end_of_track,,0,1,0,,,,,,,,,,,,,,,,,,,
151320,note_on,,30,0,1,,,,,,,,,,,,,,,3,,,64,127
151320,note_on,,0,0,1,,,,,,,,,,,,,,,3,,,60,127
151320,note_on,,0,0,1,,,,,,,,,,,,,,,3,,,55,127
151320,note_on,,0,0,1,,,,,,,,,,,,,,,3,,,48,127
151412,note_on,,92,0,1,,,,,,,,,,,,,,,3,,,36,0
151415,note_on,,0,0,1,,,,,,,,,,,,,,,3,,,48,0
151415,note_on,,3,0,1,,,,,,,,,,,,,,,3,,,64,0
151415,note_on,,0,0,1,,,,,,,,,,,,,,,3,,,60,0
151415,note_on,,0,0,1,,,,,,,,,,,,,,,3,,,55,0
151415,end_of_track,,0,1,1,,,,,,,,,,,,,,,,,,,
