tick,type,time,meta,track,frame_rate,hours,minutes,seconds,frames,sub_frames,numerator,denominator,clocks_per_click,notated_32nd_notes_per_beat,key,tempo,port,program,channel,control,value,note,velocity
0,track_name,0,1,0,,,,,,,,,,,,,,,,,,,
0,midi_port,0,1,3,,,,,,,,,,,,,0,,,,,,
0,track_name,0,1,3,,,,,,,,,,,,,,,,,,,
0,note_on,0,0,2,,,,,,,,,,,,,,,1,,,52,93
0,control_change,0,0,2,,,,,,,,,,,,,,,1,10,64,,
0,control_change,0,0,2,,,,,,,,,,,,,,,1,7,100,,
0,program_change,0,0,2,,,,,,,,,,,,,,0,1,,,,
0,track_name,0,1,2,,,,,,,,,,,,,,,,,,,
0,midi_port,0,1,2,,,,,,,,,,,,,0,,,,,,
0,note_on,0,0,1,,,,,,,,,,,,,,,0,,,60,93
0,control_change,0,0,1,,,,,,,,,,,,,,,0,10,64,,
0,control_change,0,0,1,,,,,,,,,,,,,,,0,7,100,,
0,program_change,0,0,1,,,,,,,,,,,,,,0,0,,,,
0,track_name,0,1,1,,,,,,,,,,,,,,,,,,,
0,midi_port,0,1,1,,,,,,,,,,,,,0,,,,,,
0,end_of_track,0,1,3,,,,,,,,,,,,,,,,,,,
0,smpte_offset,0,1,0,25,32,0,3,0,0,,,,,,,,,,,,,
0,key_signature,0,1,0,,,,,,,,,,,C,,,,,,,,
0,time_signature,0,1,0,,,,,,,1,4,24,8,,,,,,,,,
0,set_tempo,0,1,0,,,,,,,,,,,,300000,,,,,,,
96,note_on,96,0,2,,,,,,,,,,,,,,,1,,,52,0
96,note_on,96,0,1,,,,,,,,,,,,,,,0,,,60,0
120,note_on,24,0,1,,,,,,,,,,,,,,,0,,,62,93
120,note_on,24,0,2,,,,,,,,,,,,,,,1,,,50,93
216,note_on,96,0,2,,,,,,,,,,,,,,,1,,,50,0
216,note_on,96,0,1,,,,,,,,,,,,,,,0,,,62,0
240,time_signature,240,1,0,,,,,,,4,4,24,8,,,,,,,,,
240,note_on,24,0,2,,,,,,,,,,,,,,,1,,,48,93
240,note_on,24,0,1,,,,,,,,,,,,,,,0,,,64,93
336,note_on,96,0,2,,,,,,,,,,,,,,,1,,,48,0
360,note_on,24,0,2,,,,,,,,,,,,,,,1,,,47,93
432,note_on,192,0,1,,,,,,,,,,,,,,,0,,,64,0
456,note_on,96,0,2,,,,,,,,,,,,,,,1,,,47,0
480,note_on,24,0,2,,,,,,,,,,,,,,,1,,,45,93
480,note_on,48,0,1,,,,,,,,,,,,,,,0,,,65,93
576,note_on,96,0,2,,,,,,,,,,,,,,,1,,,45,0
600,note_on,24,0,2,,,,,,,,,,,,,,,1,,,47,93
672,note_on,192,0,1,,,,,,,,,,,,,,,0,,,65,0
696,note_on,96,0,2,,,,,,,,,,,,,,,1,,,47,0
720,note_on,24,0,2,,,,,,,,,,,,,,,1,,,48,93
720,note_on,48,0,1,,,,,,,,,,,,,,,0,,,64,93
816,note_on,96,0,2,,,,,,,,,,,,,,,1,,,48,0
840,note_on,24,0,2,,,,,,,,,,,,,,,1,,,47,93
912,note_on,192,0,1,,,,,,,,,,,,,,,0,,,64,0
936,note_on,96,0,2,,,,,,,,,,,,,,,1,,,47,0
960,note_on,24,0,2,,,,,,,,,,,,,,,1,,,45,93
960,note_on,48,0,1,,,,,,,,,,,,,,,0,,,62,93
1056,note_on,96,0,2,,,,,,,,,,,,,,,1,,,45,0
1080,note_on,24,0,2,,,,,,,,,,,,,,,1,,,47,93
1152,note_on,192,0,1,,,,,,,,,,,,,,,0,,,62,0
1176,note_on,96,0,2,,,,,,,,,,,,,,,1,,,47,0
1200,note_on,24,0,2,,,,,,,,,,,,,,,1,,,48,93
1200,note_on,48,0,1,,,,,,,,,,,,,,,0,,,64,93
1296,note_on,96,0,2,,,,,,,,,,,,,,,1,,,48,0
1320,note_on,24,0,2,,,,,,,,,,,,,,,1,,,47,93
1380,note_on,180,0,1,,,,,,,,,,,,,,,0,,,64,0
1416,note_on,96,0,2,,,,,,,,,,,,,,,1,,,47,0
1440,note_on,24,0,2,,,,,,,,,,,,,,,1,,,45,93
1440,note_on,60,0,1,,,,,,,,,,,,,,,0,,,57,93
1536,note_on,96,0,2,,,,,,,,,,,,,,,1,,,45,0
1560,note_on,24,0,2,,,,,,,,,,,,,,,1,,,47,93
1656,note_on,96,0,2,,,,,,,,,,,,,,,1,,,47,0
1680,note_on,24,0,2,,,,,,,,,,,,,,,1,,,48,93
1776,note_on,96,0,2,,,,,,,,,,,,,,,1,,,48,0
1800,note_on,24,0,2,,,,,,,,,,,,,,,1,,,50,93
1824,note_on,384,0,1,,,,,,,,,,,,,,,0,,,57,0
1896,note_on,96,0,2,,,,,,,,,,,,,,,1,,,50,0
1920,note_on,96,0,1,,,,,,,,,,,,,,,0,,,56,93
1920,note_on,24,0,2,,,,,,,,,,,,,,,1,,,52,93
2016,note_on,96,0,2,,,,,,,,,,,,,,,1,,,52,0
2040,note_on,24,0,2,,,,,,,,,,,,,,,1,,,50,93
2112,note_on,192,0,1,,,,,,,,,,,,,,,0,,,56,0
2136,note_on,96,0,2,,,,,,,,,,,,,,,1,,,50,0
2160,note_on,48,0,1,,,,,,,,,,,,,,,0,,,57,93
2160,note_on,24,0,2,,,,,,,,,,,,,,,1,,,48,93
2256,note_on,96,0,2,,,,,,,,,,,,,,,1,,,48,0
2280,note_on,24,0,2,,,,,,,,,,,,,,,1,,,47,93
2352,note_on,192,0,1,,,,,,,,,,,,,,,0,,,57,0
2376,note_on,96,0,2,,,,,,,,,,,,,,,1,,,47,0
2400,note_on,48,0,1,,,,,,,,,,,,,,,0,,,65,93
2400,note_on,24,0,2,,,,,,,,,,,,,,,1,,,45,93
2496,note_on,96,0,2,,,,,,,,,,,,,,,1,,,45,0
2520,note_on,24,0,2,,,,,,,,,,,,,,,1,,,47,93
2592,note_on,192,0,1,,,,,,,,,,,,,,,0,,,65,0
2616,note_on,96,0,2,,,,,,,,,,,,,,,1,,,47,0
2640,note_on,48,0,1,,,,,,,,,,,,,,,0,,,64,93
2640,note_on,24,0,2,,,,,,,,,,,,,,,1,,,48,93
2736,note_on,96,0,2,,,,,,,,,,,,,,,1,,,48,0
2760,note_on,24,0,2,,,,,,,,,,,,,,,1,,,47,93
2832,note_on,192,0,1,,,,,,,,,,,,,,,0,,,64,0
2856,note_on,96,0,2,,,,,,,,,,,,,,,1,,,47,0
2880,note_on,48,0,1,,,,,,,,,,,,,,,0,,,62,93
2880,note_on,24,0,2,,,,,,,,,,,,,,,1,,,45,93
2976,note_on,96,0,2,,,,,,,,,,,,,,,1,,,45,0
3000,note_on,24,0,2,,,,,,,,,,,,,,,1,,,47,93
3072,note_on,192,0,1,,,,,,,,,,,,,,,0,,,62,0
3096,note_on,96,0,2,,,,,,,,,,,,,,,1,,,47,0
3120,note_on,24,0,2,,,,,,,,,,,,,,,1,,,48,93
3120,note_on,48,0,1,,,,,,,,,,,,,,,0,,,64,93
3216,note_on,96,0,2,,,,,,,,,,,,,,,1,,,48,0
3240,note_on,24,0,2,,,,,,,,,,,,,,,1,,,47,93
3300,note_on,180,0,1,,,,,,,,,,,,,,,0,,,64,0
3336,note_on,96,0,2,,,,,,,,,,,,,,,1,,,47,0
3360,note_on,24,0,2,,,,,,,,,,,,,,,1,,,45,93
3360,note_on,60,0,1,,,,,,,,,,,,,,,0,,,57,93
3456,note_on,96,0,2,,,,,,,,,,,,,,,1,,,45,0
3480,note_on,24,0,2,,,,,,,,,,,,,,,1,,,47,93
3576,note_on,96,0,2,,,,,,,,,,,,,,,1,,,47,0
3600,note_on,24,0,2,,,,,,,,,,,,,,,1,,,48,93
3696,note_on,96,0,2,,,,,,,,,,,,,,,1,,,48,0
3720,note_on,24,0,2,,,,,,,,,,,,,,,1,,,50,93
3744,note_on,384,0,1,,,,,,,,,,,,,,,0,,,57,0
3816,note_on,96,0,2,,,,,,,,,,,,,,,1,,,50,0
3840,note_on,96,0,1,,,,,,,,,,,,,,,0,,,56,93
3840,note_on,24,0,2,,,,,,,,,,,,,,,1,,,52,93
3936,note_on,96,0,2,,,,,,,,,,,,,,,1,,,52,0
3960,note_on,24,0,2,,,,,,,,,,,,,,,1,,,50,93
4032,note_on,192,0,1,,,,,,,,,,,,,,,0,,,56,0
4056,note_on,96,0,2,,,,,,,,,,,,,,,1,,,50,0
4080,note_on,48,0,1,,,,,,,,,,,,,,,0,,,57,93
4080,note_on,24,0,2,,,,,,,,,,,,,,,1,,,48,93
4176,note_on,96,0,2,,,,,,,,,,,,,,,1,,,48,0
4200,note_on,24,0,2,,,,,,,,,,,,,,,1,,,47,93
4260,note_on,180,0,1,,,,,,,,,,,,,,,0,,,57,0
4296,note_on,96,0,2,,,,,,,,,,,,,,,1,,,47,0
4320,note_on,60,0,1,,,,,,,,,,,,,,,0,,,65,93
4320,note_on,24,0,2,,,,,,,,,,,,,,,1,,,45,93
4416,note_on,96,0,2,,,,,,,,,,,,,,,1,,,45,0
4440,note_on,24,0,2,,,,,,,,,,,,,,,1,,,47,93
4512,note_on,192,0,1,,,,,,,,,,,,,,,0,,,65,0
4536,note_on,96,0,2,,,,,,,,,,,,,,,1,,,47,0
4560,note_on,48,0,1,,,,,,,,,,,,,,,0,,,64,93
4560,note_on,24,0,2,,,,,,,,,,,,,,,1,,,48,93
4656,note_on,96,0,2,,,,,,,,,,,,,,,1,,,48,0
4680,note_on,24,0,2,,,,,,,,,,,,,,,1,,,47,93
4752,note_on,192,0,1,,,,,,,,,,,,,,,0,,,64,0
4776,note_on,96,0,2,,,,,,,,,,,,,,,1,,,47,0
4800,note_on,24,0,2,,,,,,,,,,,,,,,1,,,45,93
4800,note_on,48,0,1,,,,,,,,,,,,,,,0,,,62,93
4896,note_on,96,0,2,,,,,,,,,,,,,,,1,,,45,0
4920,note_on,24,0,2,,,,,,,,,,,,,,,1,,,47,93
4992,note_on,192,0,1,,,,,,,,,,,,,,,0,,,62,0
5016,note_on,96,0,2,,,,,,,,,,,,,,,1,,,47,0
5040,note_on,24,0,2,,,,,,,,,,,,,,,1,,,48,93
5040,note_on,48,0,1,,,,,,,,,,,,,,,0,,,69,93
5136,note_on,96,0,2,,,,,,,,,,,,,,,1,,,48,0
5160,note_on,24,0,2,,,,,,,,,,,,,,,1,,,47,93
5232,note_on,192,0,1,,,,,,,,,,,,,,,0,,,69,0
5256,note_on,96,0,2,,,,,,,,,,,,,,,1,,,47,0
5280,note_on,24,0,2,,,,,,,,,,,,,,,1,,,45,93
5280,note_on,48,0,1,,,,,,,,,,,,,,,0,,,67,93
5376,note_on,96,0,1,,,,,,,,,,,,,,,0,,,67,0
5376,note_on,96,0,2,,,,,,,,,,,,,,,1,,,45,0
5400,note_on,24,0,2,,,,,,,,,,,,,,,1,,,47,93
5400,note_on,24,0,1,,,,,,,,,,,,,,,0,,,65,93
5496,note_on,96,0,1,,,,,,,,,,,,,,,0,,,65,0
5496,note_on,96,0,2,,,,,,,,,,,,,,,1,,,47,0
5520,note_on,24,0,2,,,,,,,,,,,,,,,1,,,48,93
5520,note_on,24,0,1,,,,,,,,,,,,,,,0,,,64,93
5616,note_on,96,0,2,,,,,,,,,,,,,,,1,,,48,0
5640,note_on,24,0,2,,,,,,,,,,,,,,,1,,,50,93
5712,note_on,192,0,1,,,,,,,,,,,,,,,0,,,64,0
5736,note_on,96,0,2,,,,,,,,,,,,,,,1,,,50,0
5760,note_on,48,0,1,,,,,,,,,,,,,,,0,,,62,93
5760,note_on,24,0,2,,,,,,,,,,,,,,,1,,,52,93
5856,note_on,96,0,2,,,,,,,,,,,,,,,1,,,52,0
5880,note_on,24,0,2,,,,,,,,,,,,,,,1,,,53,93
5952,note_on,192,0,1,,,,,,,,,,,,,,,0,,,62,0
5976,note_on,96,0,2,,,,,,,,,,,,,,,1,,,53,0
6000,note_on,48,0,1,,,,,,,,,,,,,,,0,,,60,93
6000,note_on,24,0,2,,,,,,,,,,,,,,,1,,,52,93
6024,note_on,24,0,1,,,,,,,,,,,,,,,0,,,60,0
6030,note_on,6,0,1,,,,,,,,,,,,,,,0,,,62,93
6054,note_on,24,0,1,,,,,,,,,,,,,,,0,,,62,0
6060,note_on,6,0,1,,,,,,,,,,,,,,,0,,,60,93
6096,note_on,96,0,2,,,,,,,,,,,,,,,1,,,52,0
6120,note_on,24,0,2,,,,,,,,,,,,,,,1,,,50,93
6216,note_on,156,0,1,,,,,,,,,,,,,,,0,,,60,0
6216,note_on,96,0,2,,,,,,,,,,,,,,,1,,,50,0
6240,note_on,24,0,1,,,,,,,,,,,,,,,0,,,59,93
6240,note_on,24,0,2,,,,,,,,,,,,,,,1,,,48,93
6336,note_on,96,0,1,,,,,,,,,,,,,,,0,,,59,0
6336,note_on,96,0,2,,,,,,,,,,,,,,,1,,,48,0
6360,note_on,24,0,1,,,,,,,,,,,,,,,0,,,60,93
6360,note_on,24,0,2,,,,,,,,,,,,,,,1,,,47,93
6456,note_on,96,0,1,,,,,,,,,,,,,,,0,,,60,0
6456,note_on,96,0,2,,,,,,,,,,,,,,,1,,,47,0
6480,note_on,24,0,1,,,,,,,,,,,,,,,0,,,62,93
6480,note_on,24,0,2,,,,,,,,,,,,,,,1,,,45,93
6576,note_on,96,0,1,,,,,,,,,,,,,,,0,,,62,0
6576,note_on,96,0,2,,,,,,,,,,,,,,,1,,,45,0
6600,note_on,24,0,2,,,,,,,,,,,,,,,1,,,44,93
6600,note_on,24,0,1,,,,,,,,,,,,,,,0,,,59,93
6696,note_on,96,0,2,,,,,,,,,,,,,,,1,,,44,0
6696,note_on,96,0,1,,,,,,,,,,,,,,,0,,,59,0
6720,note_on,24,0,2,,,,,,,,,,,,,,,1,,,45,93
6720,note_on,24,0,1,,,,,,,,,,,,,,,0,,,60,93
6816,note_on,96,0,1,,,,,,,,,,,,,,,0,,,60,0
6840,note_on,24,0,1,,,,,,,,,,,,,,,0,,,57,93
6912,note_on,192,0,2,,,,,,,,,,,,,,,1,,,45,0
6936,note_on,96,0,1,,,,,,,,,,,,,,,0,,,57,0
6960,note_on,24,0,1,,,,,,,,,,,,,,,0,,,59,93
6960,note_on,48,0,2,,,,,,,,,,,,,,,1,,,40,93
7056,note_on,96,0,1,,,,,,,,,,,,,,,0,,,59,0
7080,note_on,24,0,1,,,,,,,,,,,,,,,0,,,57,93
7176,note_on,96,0,1,,,,,,,,,,,,,,,0,,,57,0
7200,note_on,24,0,1,,,,,,,,,,,,,,,0,,,56,93
7296,note_on,96,0,1,,,,,,,,,,,,,,,0,,,56,0
7320,note_on,24,0,1,,,,,,,,,,,,,,,0,,,57,93
7416,note_on,96,0,1,,,,,,,,,,,,,,,0,,,57,0
7440,note_on,24,0,1,,,,,,,,,,,,,,,0,,,59,93
7536,note_on,576,0,2,,,,,,,,,,,,,,,1,,,40,0
7536,note_on,96,0,1,,,,,,,,,,,,,,,0,,,59,0
7560,note_on,24,0,1,,,,,,,,,,,,,,,0,,,60,93
7656,note_on,96,0,1,,,,,,,,,,,,,,,0,,,60,0
7680,note_on,144,0,2,,,,,,,,,,,,,,,1,,,52,93
7680,note_on,24,0,1,,,,,,,,,,,,,,,0,,,62,93
7776,note_on,96,0,2,,,,,,,,,,,,,,,1,,,52,0
7776,note_on,96,0,1,,,,,,,,,,,,,,,0,,,62,0
7800,note_on,24,0,1,,,,,,,,,,,,,,,0,,,59,93
7800,note_on,24,0,2,,,,,,,,,,,,,,,1,,,53,93
7896,note_on,96,0,2,,,,,,,,,,,,,,,1,,,53,0
7896,note_on,96,0,1,,,,,,,,,,,,,,,0,,,59,0
7920,note_on,24,0,2,,,,,,,,,,,,,,,1,,,52,93
7920,note_on,24,0,1,,,,,,,,,,,,,,,0,,,60,93
8016,note_on,96,0,1,,,,,,,,,,,,,,,0,,,60,0
8040,note_on,24,0,1,,,,,,,,,,,,,,,0,,,62,93
8112,note_on,192,0,2,,,,,,,,,,,,,,,1,,,52,0
8136,note_on,96,0,1,,,,,,,,,,,,,,,0,,,62,0
8160,note_on,24,0,1,,,,,,,,,,,,,,,0,,,64,93
8160,note_on,48,0,2,,,,,,,,,,,,,,,1,,,50,93
8256,note_on,96,0,1,,,,,,,,,,,,,,,0,,,64,0
8280,note_on,24,0,1,,,,,,,,,,,,,,,0,,,65,93
8352,note_on,192,0,2,,,,,,,,,,,,,,,1,,,50,0
8376,note_on,96,0,1,,,,,,,,,,,,,,,0,,,65,0
8400,note_on,24,0,1,,,,,,,,,,,,,,,0,,,64,93
8400,note_on,48,0,2,,,,,,,,,,,,,,,1,,,48,93
8496,note_on,96,0,1,,,,,,,,,,,,,,,0,,,64,0
8520,note_on,24,0,1,,,,,,,,,,,,,,,0,,,62,93
8592,note_on,192,0,2,,,,,,,,,,,,,,,1,,,48,0
8616,note_on,96,0,1,,,,,,,,,,,,,,,0,,,62,0
8640,note_on,24,0,1,,,,,,,,,,,,,,,0,,,60,93
8640,note_on,48,0,2,,,,,,,,,,,,,,,1,,,47,93
8736,note_on,96,0,1,,,,,,,,,,,,,,,0,,,60,0
8760,note_on,24,0,1,,,,,,,,,,,,,,,0,,,62,93
8832,note_on,192,0,2,,,,,,,,,,,,,,,1,,,47,0
8856,note_on,96,0,1,,,,,,,,,,,,,,,0,,,62,0
8880,note_on,48,0,2,,,,,,,,,,,,,,,1,,,48,93
8880,note_on,24,0,1,,,,,,,,,,,,,,,0,,,64,93
8976,note_on,96,0,1,,,,,,,,,,,,,,,0,,,64,0
9000,note_on,24,0,1,,,,,,,,,,,,,,,0,,,62,93
9072,note_on,192,0,2,,,,,,,,,,,,,,,1,,,48,0
9096,note_on,96,0,1,,,,,,,,,,,,,,,0,,,62,0
9120,note_on,48,0,2,,,,,,,,,,,,,,,1,,,45,93
9120,note_on,24,0,1,,,,,,,,,,,,,,,0,,,60,93
9216,note_on,96,0,2,,,,,,,,,,,,,,,1,,,45,0
9216,note_on,96,0,1,,,,,,,,,,,,,,,0,,,60,0
9240,note_on,24,0,1,,,,,,,,,,,,,,,0,,,59,93
9240,note_on,24,0,2,,,,,,,,,,,,,,,1,,,47,93
9336,note_on,96,0,2,,,,,,,,,,,,,,,1,,,47,0
9336,note_on,96,0,1,,,,,,,,,,,,,,,0,,,59,0
9360,note_on,24,0,1,,,,,,,,,,,,,,,0,,,57,93
9360,note_on,24,0,2,,,,,,,,,,,,,,,1,,,48,93
9456,note_on,96,0,2,,,,,,,,,,,,,,,1,,,48,0
9456,note_on,96,0,1,,,,,,,,,,,,,,,0,,,57,0
9480,note_on,24,0,2,,,,,,,,,,,,,,,1,,,50,93
9480,note_on,24,0,1,,,,,,,,,,,,,,,0,,,59,93
9576,note_on,96,0,1,,,,,,,,,,,,,,,0,,,59,0
9576,note_on,96,0,2,,,,,,,,,,,,,,,1,,,50,0
9600,note_on,24,0,2,,,,,,,,,,,,,,,1,,,52,93
9600,note_on,24,0,1,,,,,,,,,,,,,,,0,,,60,93
9696,note_on,96,0,1,,,,,,,,,,,,,,,0,,,60,0
9696,note_on,96,0,2,,,,,,,,,,,,,,,1,,,52,0
9720,note_on,24,0,2,,,,,,,,,,,,,,,1,,,53,93
9720,note_on,24,0,1,,,,,,,,,,,,,,,0,,,62,93
9816,note_on,96,0,2,,,,,,,,,,,,,,,1,,,53,0
9816,note_on,96,0,1,,,,,,,,,,,,,,,0,,,62,0
9840,note_on,24,0,2,,,,,,,,,,,,,,,1,,,55,93
9840,note_on,24,0,1,,,,,,,,,,,,,,,0,,,64,93
9936,note_on,96,0,1,,,,,,,,,,,,,,,0,,,64,0
9960,note_on,24,0,1,,,,,,,,,,,,,,,0,,,65,93
10032,note_on,192,0,2,,,,,,,,,,,,,,,1,,,55,0
10056,note_on,96,0,1,,,,,,,,,,,,,,,0,,,65,0
10080,note_on,48,0,2,,,,,,,,,,,,,,,1,,,53,93
10080,note_on,24,0,1,,,,,,,,,,,,,,,0,,,67,93
10176,note_on,96,0,1,,,,,,,,,,,,,,,0,,,67,0
10200,note_on,24,0,1,,,,,,,,,,,,,,,0,,,69,93
10272,note_on,192,0,2,,,,,,,,,,,,,,,1,,,53,0
10296,note_on,96,0,1,,,,,,,,,,,,,,,0,,,69,0
10320,note_on,48,0,2,,,,,,,,,,,,,,,1,,,52,93
10320,note_on,24,0,1,,,,,,,,,,,,,,,0,,,67,93
10416,note_on,96,0,1,,,,,,,,,,,,,,,0,,,67,0
10440,note_on,24,0,1,,,,,,,,,,,,,,,0,,,65,93
10512,note_on,192,0,2,,,,,,,,,,,,,,,1,,,52,0
10536,note_on,96,0,1,,,,,,,,,,,,,,,0,,,65,0
10560,note_on,48,0,2,,,,,,,,,,,,,,,1,,,50,93
10560,note_on,24,0,1,,,,,,,,,,,,,,,0,,,64,93
10656,note_on,96,0,1,,,,,,,,,,,,,,,0,,,64,0
10680,note_on,24,0,1,,,,,,,,,,,,,,,0,,,65,93
10752,note_on,192,0,2,,,,,,,,,,,,,,,1,,,50,0
10776,note_on,96,0,1,,,,,,,,,,,,,,,0,,,65,0
10800,note_on,24,0,1,,,,,,,,,,,,,,,0,,,67,93
10800,note_on,48,0,2,,,,,,,,,,,,,,,1,,,52,93
10896,note_on,96,0,1,,,,,,,,,,,,,,,0,,,67,0
10920,note_on,24,0,1,,,,,,,,,,,,,,,0,,,65,93
10980,note_on,180,0,2,,,,,,,,,,,,,,,1,,,52,0
11016,note_on,96,0,1,,,,,,,,,,,,,,,0,,,65,0
11040,note_on,24,0,1,,,,,,,,,,,,,,,0,,,64,93
11040,note_on,60,0,2,,,,,,,,,,,,,,,1,,,48,93
11136,note_on,96,0,1,,,,,,,,,,,,,,,0,,,64,0
11136,note_on,96,0,2,,,,,,,,,,,,,,,1,,,48,0
11160,note_on,24,0,1,,,,,,,,,,,,,,,0,,,62,93
11160,note_on,24,0,2,,,,,,,,,,,,,,,1,,,50,93
11256,note_on,96,0,1,,,,,,,,,,,,,,,0,,,62,0
11256,note_on,96,0,2,,,,,,,,,,,,,,,1,,,50,0
11280,note_on,24,0,1,,,,,,,,,,,,,,,0,,,60,93
11280,note_on,24,0,2,,,,,,,,,,,,,,,1,,,52,93
11376,note_on,96,0,1,,,,,,,,,,,,,,,0,,,60,0
11376,note_on,96,0,2,,,,,,,,,,,,,,,1,,,52,0
11400,note_on,24,0,1,,,,,,,,,,,,,,,0,,,62,93
11400,note_on,24,0,2,,,,,,,,,,,,,,,1,,,54,93
11496,note_on,96,0,1,,,,,,,,,,,,,,,0,,,62,0
11496,note_on,96,0,2,,,,,,,,,,,,,,,1,,,54,0
11520,note_on,24,0,1,,,,,,,,,,,,,,,0,,,64,93
11520,note_on,24,0,2,,,,,,,,,,,,,,,1,,,55,93
11616,note_on,96,0,2,,,,,,,,,,,,,,,1,,,55,0
11616,note_on,96,0,1,,,,,,,,,,,,,,,0,,,64,0
11640,note_on,24,0,2,,,,,,,,,,,,,,,1,,,57,93
11640,note_on,24,0,1,,,,,,,,,,,,,,,0,,,66,93
11736,note_on,96,0,2,,,,,,,,,,,,,,,1,,,57,0
11736,note_on,96,0,1,,,,,,,,,,,,,,,0,,,66,0
11760,note_on,24,0,2,,,,,,,,,,,,,,,1,,,59,93
11760,note_on,24,0,1,,,,,,,,,,,,,,,0,,,67,93
11856,note_on,96,0,1,,,,,,,,,,,,,,,0,,,67,0
11880,note_on,24,0,1,,,,,,,,,,,,,,,0,,,69,93
11952,note_on,192,0,2,,,,,,,,,,,,,,,1,,,59,0
11976,note_on,96,0,1,,,,,,,,,,,,,,,0,,,69,0
12000,note_on,24,0,1,,,,,,,,,,,,,,,0,,,71,93
12000,note_on,48,0,2,,,,,,,,,,,,,,,1,,,57,93
12096,note_on,96,0,1,,,,,,,,,,,,,,,0,,,71,0
12120,note_on,24,0,1,,,,,,,,,,,,,,,0,,,72,93
12192,note_on,192,0,2,,,,,,,,,,,,,,,1,,,57,0
12216,note_on,96,0,1,,,,,,,,,,,,,,,0,,,72,0
12240,note_on,48,0,2,,,,,,,,,,,,,,,1,,,55,93
12240,note_on,24,0,1,,,,,,,,,,,,,,,0,,,71,93
12336,note_on,96,0,1,,,,,,,,,,,,,,,0,,,71,0
12360,note_on,24,0,1,,,,,,,,,,,,,,,0,,,69,93
12432,note_on,192,0,2,,,,,,,,,,,,,,,1,,,55,0
12456,note_on,96,0,1,,,,,,,,,,,,,,,0,,,69,0
12480,note_on,48,0,2,,,,,,,,,,,,,,,1,,,54,93
12480,note_on,24,0,1,,,,,,,,,,,,,,,0,,,67,93
12576,note_on,96,0,1,,,,,,,,,,,,,,,0,,,67,0
12600,note_on,24,0,1,,,,,,,,,,,,,,,0,,,69,93
12672,note_on,192,0,2,,,,,,,,,,,,,,,1,,,54,0
12696,note_on,96,0,1,,,,,,,,,,,,,,,0,,,69,0
12720,note_on,48,0,2,,,,,,,,,,,,,,,1,,,55,93
12720,note_on,24,0,1,,,,,,,,,,,,,,,0,,,71,93
12816,note_on,96,0,1,,,,,,,,,,,,,,,0,,,71,0
12840,note_on,24,0,1,,,,,,,,,,,,,,,0,,,69,93
12900,note_on,180,0,2,,,,,,,,,,,,,,,1,,,55,0
12936,note_on,96,0,1,,,,,,,,,,,,,,,0,,,69,0
12960,note_on,60,0,2,,,,,,,,,,,,,,,1,,,52,93
12960,note_on,24,0,1,,,,,,,,,,,,,,,0,,,67,93
13056,note_on,96,0,1,,,,,,,,,,,,,,,0,,,67,0
13080,note_on,24,0,1,,,,,,,,,,,,,,,0,,,66,93
13152,note_on,192,0,2,,,,,,,,,,,,,,,1,,,52,0
13176,note_on,96,0,1,,,,,,,,,,,,,,,0,,,66,0
13200,note_on,24,0,1,,,,,,,,,,,,,,,0,,,64,93
13200,note_on,48,0,2,,,,,,,,,,,,,,,1,,,60,93
13296,note_on,96,0,1,,,,,,,,,,,,,,,0,,,64,0
13320,note_on,24,0,1,,,,,,,,,,,,,,,0,,,63,93
13392,note_on,192,0,2,,,,,,,,,,,,,,,1,,,60,0
13416,note_on,96,0,1,,,,,,,,,,,,,,,0,,,63,0
13440,note_on,24,0,1,,,,,,,,,,,,,,,0,,,64,93
13440,note_on,48,0,2,,,,,,,,,,,,,,,1,,,57,93
13536,note_on,96,0,1,,,,,,,,,,,,,,,0,,,64,0
13560,note_on,24,0,1,,,,,,,,,,,,,,,0,,,66,93
13632,note_on,192,0,2,,,,,,,,,,,,,,,1,,,57,0
13656,note_on,96,0,1,,,,,,,,,,,,,,,0,,,66,0
13680,note_on,48,0,2,,,,,,,,,,,,,,,1,,,57,93
13680,note_on,24,0,1,,,,,,,,,,,,,,,0,,,59,93
13776,note_on,96,0,2,,,,,,,,,,,,,,,1,,,57,0
13800,note_on,24,0,2,,,,,,,,,,,,,,,1,,,55,93
13872,note_on,192,0,1,,,,,,,,,,,,,,,0,,,59,0
13896,note_on,96,0,2,,,,,,,,,,,,,,,1,,,55,0
13920,note_on,24,0,2,,,,,,,,,,,,,,,1,,,54,93
13920,note_on,48,0,1,,,,,,,,,,,,,,,0,,,67,93
14016,note_on,96,0,2,,,,,,,,,,,,,,,1,,,54,0
14040,note_on,24,0,2,,,,,,,,,,,,,,,1,,,52,93
14136,note_on,96,0,2,,,,,,,,,,,,,,,1,,,52,0
14160,note_on,24,0,2,,,,,,,,,,,,,,,1,,,59,93
14256,note_on,336,0,1,,,,,,,,,,,,,,,0,,,67,0
14280,note_on,24,0,1,,,,,,,,,,,,,,,0,,,66,93
14340,note_on,180,0,2,,,,,,,,,,,,,,,1,,,59,0
14376,note_on,96,0,1,,,,,,,,,,,,,,,0,,,66,0
14400,note_on,60,0,2,,,,,,,,,,,,,,,1,,,47,93
14400,note_on,24,0,1,,,,,,,,,,,,,,,0,,,64,93
14496,note_on,96,0,1,,,,,,,,,,,,,,,0,,,64,0
14520,note_on,24,0,1,,,,,,,,,,,,,,,0,,,63,93
14580,note_on,180,0,2,,,,,,,,,,,,,,,1,,,47,0
14616,note_on,96,0,1,,,,,,,,,,,,,,,0,,,63,0
14640,note_on,60,0,2,,,,,,,,,,,,,,,1,,,52,93
14640,time_signature,14400,1,0,,,,,,,3,4,24,8,,,,,,,,,
14640,note_on,24,0,1,,,,,,,,,,,,,,,0,,,64,93
14820,note_on,180,0,2,,,,,,,,,,,,,,,1,,,52,0
14880,note_on,60,0,2,,,,,,,,,,,,,,,1,,,47,93
15060,note_on,180,0,2,,,,,,,,,,,,,,,1,,,47,0
15120,note_on,60,0,2,,,,,,,,,,,,,,,1,,,40,93
15216,note_on,576,0,1,,,,,,,,,,,,,,,0,,,64,0
15312,note_on,192,0,2,,,,,,,,,,,,,,,1,,,40,0
15360,note_on,144,0,1,,,,,,,,,,,,,,,0,,,60,93
15360,note_on,48,0,2,,,,,,,,,,,,,,,1,,,52,93
15360,time_signature,720,1,0,,,,,,,1,4,24,8,,,,,,,,,
15456,note_on,96,0,2,,,,,,,,,,,,,,,1,,,52,0
15456,note_on,96,0,1,,,,,,,,,,,,,,,0,,,60,0
15480,note_on,24,0,1,,,,,,,,,,,,,,,0,,,62,93
15480,note_on,24,0,2,,,,,,,,,,,,,,,1,,,50,93
15576,note_on,96,0,1,,,,,,,,,,,,,,,0,,,62,0
15576,note_on,96,0,2,,,,,,,,,,,,,,,1,,,50,0
15600,note_on,24,0,1,,,,,,,,,,,,,,,0,,,64,93
15600,note_on,24,0,2,,,,,,,,,,,,,,,1,,,48,93
15600,time_signature,240,1,0,,,,,,,4,4,24,8,,,,,,,,,
15696,note_on,96,0,2,,,,,,,,,,,,,,,1,,,48,0
15720,note_on,24,0,2,,,,,,,,,,,,,,,1,,,47,93
15792,note_on,192,0,1,,,,,,,,,,,,,,,0,,,64,0
15816,note_on,96,0,2,,,,,,,,,,,,,,,1,,,47,0
15840,note_on,24,0,2,,,,,,,,,,,,,,,1,,,45,93
15840,note_on,48,0,1,,,,,,,,,,,,,,,0,,,65,93
15936,note_on,96,0,2,,,,,,,,,,,,,,,1,,,45,0
15960,note_on,24,0,2,,,,,,,,,,,,,,,1,,,47,93
16032,note_on,192,0,1,,,,,,,,,,,,,,,0,,,65,0
16056,note_on,96,0,2,,,,,,,,,,,,,,,1,,,47,0
16080,note_on,48,0,1,,,,,,,,,,,,,,,0,,,64,93
16080,note_on,24,0,2,,,,,,,,,,,,,,,1,,,48,93
16176,note_on,96,0,2,,,,,,,,,,,,,,,1,,,48,0
16200,note_on,24,0,2,,,,,,,,,,,,,,,1,,,47,93
16272,note_on,192,0,1,,,,,,,,,,,,,,,0,,,64,0
16296,note_on,96,0,2,,,,,,,,,,,,,,,1,,,47,0
16320,note_on,48,0,1,,,,,,,,,,,,,,,0,,,62,93
16320,note_on,24,0,2,,,,,,,,,,,,,,,1,,,45,93
16416,note_on,96,0,2,,,,,,,,,,,,,,,1,,,45,0
16440,note_on,24,0,2,,,,,,,,,,,,,,,1,,,47,93
16512,note_on,192,0,1,,,,,,,,,,,,,,,0,,,62,0
16536,note_on,96,0,2,,,,,,,,,,,,,,,1,,,47,0
16560,note_on,48,0,1,,,,,,,,,,,,,,,0,,,64,93
16560,note_on,24,0,2,,,,,,,,,,,,,,,1,,,48,93
16656,note_on,96,0,2,,,,,,,,,,,,,,,1,,,48,0
16680,note_on,24,0,2,,,,,,,,,,,,,,,1,,,47,93
16740,note_on,180,0,1,,,,,,,,,,,,,,,0,,,64,0
16776,note_on,96,0,2,,,,,,,,,,,,,,,1,,,47,0
16800,note_on,60,0,1,,,,,,,,,,,,,,,0,,,57,93
16800,note_on,24,0,2,,,,,,,,,,,,,,,1,,,45,93
16896,note_on,96,0,2,,,,,,,,,,,,,,,1,,,45,0
16920,note_on,24,0,2,,,,,,,,,,,,,,,1,,,47,93
17016,note_on,96,0,2,,,,,,,,,,,,,,,1,,,47,0
17040,note_on,24,0,2,,,,,,,,,,,,,,,1,,,48,93
17136,note_on,96,0,2,,,,,,,,,,,,,,,1,,,48,0
17160,note_on,24,0,2,,,,,,,,,,,,,,,1,,,50,93
17184,note_on,384,0,1,,,,,,,,,,,,,,,0,,,57,0
17256,note_on,96,0,2,,,,,,,,,,,,,,,1,,,50,0
17280,note_on,24,0,2,,,,,,,,,,,,,,,1,,,52,93
17280,note_on,96,0,1,,,,,,,,,,,,,,,0,,,56,93
17376,note_on,96,0,2,,,,,,,,,,,,,,,1,,,52,0
17400,note_on,24,0,2,,,,,,,,,,,,,,,1,,,50,93
17472,note_on,192,0,1,,,,,,,,,,,,,,,0,,,56,0
17496,note_on,96,0,2,,,,,,,,,,,,,,,1,,,50,0
17520,note_on,48,0,1,,,,,,,,,,,,,,,0,,,57,93
17520,note_on,24,0,2,,,,,,,,,,,,,,,1,,,48,93
17616,note_on,96,0,2,,,,,,,,,,,,,,,1,,,48,0
17640,note_on,24,0,2,,,,,,,,,,,,,,,1,,,47,93
17712,note_on,192,0,1,,,,,,,,,,,,,,,0,,,57,0
17736,note_on,96,0,2,,,,,,,,,,,,,,,1,,,47,0
17760,note_on,48,0,1,,,,,,,,,,,,,,,0,,,65,93
17760,note_on,24,0,2,,,,,,,,,,,,,,,1,,,45,93
17856,note_on,96,0,2,,,,,,,,,,,,,,,1,,,45,0
17880,note_on,24,0,2,,,,,,,,,,,,,,,1,,,47,93
17952,note_on,192,0,1,,,,,,,,,,,,,,,0,,,65,0
17976,note_on,96,0,2,,,,,,,,,,,,,,,1,,,47,0
18000,note_on,48,0,1,,,,,,,,,,,,,,,0,,,64,93
18000,note_on,24,0,2,,,,,,,,,,,,,,,1,,,48,93
18096,note_on,96,0,2,,,,,,,,,,,,,,,1,,,48,0
18120,note_on,24,0,2,,,,,,,,,,,,,,,1,,,47,93
18192,note_on,192,0,1,,,,,,,,,,,,,,,0,,,64,0
18216,note_on,96,0,2,,,,,,,,,,,,,,,1,,,47,0
18240,note_on,24,0,2,,,,,,,,,,,,,,,1,,,45,93
18240,note_on,48,0,1,,,,,,,,,,,,,,,0,,,62,93
18336,note_on,96,0,2,,,,,,,,,,,,,,,1,,,45,0
18360,note_on,24,0,2,,,,,,,,,,,,,,,1,,,47,93
18432,note_on,192,0,1,,,,,,,,,,,,,,,0,,,62,0
18456,note_on,96,0,2,,,,,,,,,,,,,,,1,,,47,0
18480,note_on,24,0,2,,,,,,,,,,,,,,,1,,,48,93
18480,note_on,48,0,1,,,,,,,,,,,,,,,0,,,64,93
18576,note_on,96,0,2,,,,,,,,,,,,,,,1,,,48,0
18600,note_on,24,0,2,,,,,,,,,,,,,,,1,,,47,93
18660,note_on,180,0,1,,,,,,,,,,,,,,,0,,,64,0
18696,note_on,96,0,2,,,,,,,,,,,,,,,1,,,47,0
18720,note_on,24,0,2,,,,,,,,,,,,,,,1,,,45,93
18720,note_on,60,0,1,,,,,,,,,,,,,,,0,,,57,93
18816,note_on,96,0,2,,,,,,,,,,,,,,,1,,,45,0
18840,note_on,24,0,2,,,,,,,,,,,,,,,1,,,47,93
18936,note_on,96,0,2,,,,,,,,,,,,,,,1,,,47,0
18960,note_on,24,0,2,,,,,,,,,,,,,,,1,,,48,93
19056,note_on,96,0,2,,,,,,,,,,,,,,,1,,,48,0
19080,note_on,24,0,2,,,,,,,,,,,,,,,1,,,50,93
19104,note_on,384,0,1,,,,,,,,,,,,,,,0,,,57,0
19176,note_on,96,0,2,,,,,,,,,,,,,,,1,,,50,0
19200,note_on,96,0,1,,,,,,,,,,,,,,,0,,,56,93
19200,note_on,24,0,2,,,,,,,,,,,,,,,1,,,52,93
19296,note_on,96,0,2,,,,,,,,,,,,,,,1,,,52,0
19320,note_on,24,0,2,,,,,,,,,,,,,,,1,,,50,93
19392,note_on,192,0,1,,,,,,,,,,,,,,,0,,,56,0
19416,note_on,96,0,2,,,,,,,,,,,,,,,1,,,50,0
19440,note_on,48,0,1,,,,,,,,,,,,,,,0,,,57,93
19440,note_on,24,0,2,,,,,,,,,,,,,,,1,,,48,93
19536,note_on,96,0,2,,,,,,,,,,,,,,,1,,,48,0
19560,note_on,24,0,2,,,,,,,,,,,,,,,1,,,47,93
19620,note_on,180,0,1,,,,,,,,,,,,,,,0,,,57,0
19656,note_on,96,0,2,,,,,,,,,,,,,,,1,,,47,0
19680,note_on,60,0,1,,,,,,,,,,,,,,,0,,,65,93
19680,note_on,24,0,2,,,,,,,,,,,,,,,1,,,45,93
19776,note_on,96,0,2,,,,,,,,,,,,,,,1,,,45,0
19800,note_on,24,0,2,,,,,,,,,,,,,,,1,,,47,93
19872,note_on,192,0,1,,,,,,,,,,,,,,,0,,,65,0
19896,note_on,96,0,2,,,,,,,,,,,,,,,1,,,47,0
19920,note_on,48,0,1,,,,,,,,,,,,,,,0,,,64,93
19920,note_on,24,0,2,,,,,,,,,,,,,,,1,,,48,93
20016,note_on,96,0,2,,,,,,,,,,,,,,,1,,,48,0
20040,note_on,24,0,2,,,,,,,,,,,,,,,1,,,47,93
20112,note_on,192,0,1,,,,,,,,,,,,,,,0,,,64,0
20136,note_on,96,0,2,,,,,,,,,,,,,,,1,,,47,0
20160,note_on,24,0,2,,,,,,,,,,,,,,,1,,,45,93
20160,note_on,48,0,1,,,,,,,,,,,,,,,0,,,62,93
20256,note_on,96,0,2,,,,,,,,,,,,,,,1,,,45,0
20280,note_on,24,0,2,,,,,,,,,,,,,,,1,,,47,93
20352,note_on,192,0,1,,,,,,,,,,,,,,,0,,,62,0
20376,note_on,96,0,2,,,,,,,,,,,,,,,1,,,47,0
20400,note_on,24,0,2,,,,,,,,,,,,,,,1,,,48,93
20400,note_on,48,0,1,,,,,,,,,,,,,,,0,,,69,93
20496,note_on,96,0,2,,,,,,,,,,,,,,,1,,,48,0
20520,note_on,24,0,2,,,,,,,,,,,,,,,1,,,47,93
20592,note_on,192,0,1,,,,,,,,,,,,,,,0,,,69,0
20616,note_on,96,0,2,,,,,,,,,,,,,,,1,,,47,0
20640,note_on,48,0,1,,,,,,,,,,,,,,,0,,,67,93
20640,note_on,24,0,2,,,,,,,,,,,,,,,1,,,45,93
20736,note_on,96,0,1,,,,,,,,,,,,,,,0,,,67,0
20736,note_on,96,0,2,,,,,,,,,,,,,,,1,,,45,0
20760,note_on,24,0,1,,,,,,,,,,,,,,,0,,,65,93
20760,note_on,24,0,2,,,,,,,,,,,,,,,1,,,47,93
20856,note_on,96,0,1,,,,,,,,,,,,,,,0,,,65,0
20856,note_on,96,0,2,,,,,,,,,,,,,,,1,,,47,0
20880,note_on,24,0,2,,,,,,,,,,,,,,,1,,,48,93
20880,note_on,24,0,1,,,,,,,,,,,,,,,0,,,64,93
20976,note_on,96,0,2,,,,,,,,,,,,,,,1,,,48,0
21000,note_on,24,0,2,,,,,,,,,,,,,,,1,,,50,93
21072,note_on,192,0,1,,,,,,,,,,,,,,,0,,,64,0
21096,note_on,96,0,2,,,,,,,,,,,,,,,1,,,50,0
21120,note_on,48,0,1,,,,,,,,,,,,,,,0,,,62,93
21120,note_on,24,0,2,,,,,,,,,,,,,,,1,,,52,93
21216,note_on,96,0,2,,,,,,,,,,,,,,,1,,,52,0
21240,note_on,24,0,2,,,,,,,,,,,,,,,1,,,53,93
21312,note_on,192,0,1,,,,,,,,,,,,,,,0,,,62,0
21336,note_on,96,0,2,,,,,,,,,,,,,,,1,,,53,0
21360,note_on,48,0,1,,,,,,,,,,,,,,,0,,,60,93
21360,note_on,24,0,2,,,,,,,,,,,,,,,1,,,52,93
21384,note_on,24,0,1,,,,,,,,,,,,,,,0,,,60,0
21390,note_on,6,0,1,,,,,,,,,,,,,,,0,,,62,93
21414,note_on,24,0,1,,,,,,,,,,,,,,,0,,,62,0
21420,note_on,6,0,1,,,,,,,,,,,,,,,0,,,60,93
21456,note_on,96,0,2,,,,,,,,,,,,,,,1,,,52,0
21480,note_on,24,0,2,,,,,,,,,,,,,,,1,,,50,93
21576,note_on,96,0,2,,,,,,,,,,,,,,,1,,,50,0
21576,note_on,156,0,1,,,,,,,,,,,,,,,0,,,60,0
21600,note_on,24,0,2,,,,,,,,,,,,,,,1,,,48,93
21600,note_on,24,0,1,,,,,,,,,,,,,,,0,,,59,93
21696,note_on,96,0,2,,,,,,,,,,,,,,,1,,,48,0
21696,note_on,96,0,1,,,,,,,,,,,,,,,0,,,59,0
21720,note_on,24,0,2,,,,,,,,,,,,,,,1,,,47,93
21720,note_on,24,0,1,,,,,,,,,,,,,,,0,,,60,93
21816,note_on,96,0,1,,,,,,,,,,,,,,,0,,,60,0
21816,note_on,96,0,2,,,,,,,,,,,,,,,1,,,47,0
21840,note_on,24,0,1,,,,,,,,,,,,,,,0,,,62,93
21840,note_on,24,0,2,,,,,,,,,,,,,,,1,,,45,93
21936,note_on,96,0,1,,,,,,,,,,,,,,,0,,,62,0
21936,note_on,96,0,2,,,,,,,,,,,,,,,1,,,45,0
21960,note_on,24,0,1,,,,,,,,,,,,,,,0,,,59,93
21960,note_on,24,0,2,,,,,,,,,,,,,,,1,,,44,93
22056,note_on,96,0,1,,,,,,,,,,,,,,,0,,,59,0
22056,note_on,96,0,2,,,,,,,,,,,,,,,1,,,44,0
22080,note_on,24,0,1,,,,,,,,,,,,,,,0,,,60,93
22080,note_on,24,0,2,,,,,,,,,,,,,,,1,,,45,93
22176,note_on,96,0,1,,,,,,,,,,,,,,,0,,,60,0
22200,note_on,24,0,1,,,,,,,,,,,,,,,0,,,57,93
22272,note_on,192,0,2,,,,,,,,,,,,,,,1,,,45,0
22296,note_on,96,0,1,,,,,,,,,,,,,,,0,,,57,0
22320,note_on,48,0,2,,,,,,,,,,,,,,,1,,,40,93
22320,note_on,24,0,1,,,,,,,,,,,,,,,0,,,59,93
22416,note_on,96,0,1,,,,,,,,,,,,,,,0,,,59,0
22440,note_on,24,0,1,,,,,,,,,,,,,,,0,,,57,93
22536,note_on,96,0,1,,,,,,,,,,,,,,,0,,,57,0
22560,note_on,24,0,1,,,,,,,,,,,,,,,0,,,56,93
22656,note_on,96,0,1,,,,,,,,,,,,,,,0,,,56,0
22680,note_on,24,0,1,,,,,,,,,,,,,,,0,,,57,93
22776,note_on,96,0,1,,,,,,,,,,,,,,,0,,,57,0
22800,note_on,24,0,1,,,,,,,,,,,,,,,0,,,59,93
22896,note_on,576,0,2,,,,,,,,,,,,,,,1,,,40,0
22896,note_on,96,0,1,,,,,,,,,,,,,,,0,,,59,0
22920,note_on,24,0,1,,,,,,,,,,,,,,,0,,,60,93
23016,note_on,96,0,1,,,,,,,,,,,,,,,0,,,60,0
23040,note_on,144,0,2,,,,,,,,,,,,,,,1,,,52,93
23040,note_on,24,0,1,,,,,,,,,,,,,,,0,,,62,93
23136,note_on,96,0,2,,,,,,,,,,,,,,,1,,,52,0
23136,note_on,96,0,1,,,,,,,,,,,,,,,0,,,62,0
23160,note_on,24,0,2,,,,,,,,,,,,,,,1,,,53,93
23160,note_on,24,0,1,,,,,,,,,,,,,,,0,,,59,93
23256,note_on,96,0,2,,,,,,,,,,,,,,,1,,,53,0
23256,note_on,96,0,1,,,,,,,,,,,,,,,0,,,59,0
23280,note_on,24,0,2,,,,,,,,,,,,,,,1,,,52,93
23280,note_on,24,0,1,,,,,,,,,,,,,,,0,,,60,93
23376,note_on,96,0,1,,,,,,,,,,,,,,,0,,,60,0
23400,note_on,24,0,1,,,,,,,,,,,,,,,0,,,62,93
23472,note_on,192,0,2,,,,,,,,,,,,,,,1,,,52,0
23496,note_on,96,0,1,,,,,,,,,,,,,,,0,,,62,0
23520,note_on,48,0,2,,,,,,,,,,,,,,,1,,,50,93
23520,note_on,24,0,1,,,,,,,,,,,,,,,0,,,64,93
23616,note_on,96,0,1,,,,,,,,,,,,,,,0,,,64,0
23640,note_on,24,0,1,,,,,,,,,,,,,,,0,,,65,93
23712,note_on,192,0,2,,,,,,,,,,,,,,,1,,,50,0
23736,note_on,96,0,1,,,,,,,,,,,,,,,0,,,65,0
23760,note_on,48,0,2,,,,,,,,,,,,,,,1,,,48,93
23760,note_on,24,0,1,,,,,,,,,,,,,,,0,,,64,93
23856,note_on,96,0,1,,,,,,,,,,,,,,,0,,,64,0
23880,note_on,24,0,1,,,,,,,,,,,,,,,0,,,62,93
23952,note_on,192,0,2,,,,,,,,,,,,,,,1,,,48,0
23976,note_on,96,0,1,,,,,,,,,,,,,,,0,,,62,0
24000,note_on,48,0,2,,,,,,,,,,,,,,,1,,,47,93
24000,note_on,24,0,1,,,,,,,,,,,,,,,0,,,60,93
24096,note_on,96,0,1,,,,,,,,,,,,,,,0,,,60,0
24120,note_on,24,0,1,,,,,,,,,,,,,,,0,,,62,93
24192,note_on,192,0,2,,,,,,,,,,,,,,,1,,,47,0
24216,note_on,96,0,1,,,,,,,,,,,,,,,0,,,62,0
24240,note_on,48,0,2,,,,,,,,,,,,,,,1,,,48,93
24240,note_on,24,0,1,,,,,,,,,,,,,,,0,,,64,93
24336,note_on,96,0,1,,,,,,,,,,,,,,,0,,,64,0
24360,note_on,24,0,1,,,,,,,,,,,,,,,0,,,62,93
24432,note_on,192,0,2,,,,,,,,,,,,,,,1,,,48,0
24456,note_on,96,0,1,,,,,,,,,,,,,,,0,,,62,0
24480,note_on,24,0,1,,,,,,,,,,,,,,,0,,,60,93
24480,note_on,48,0,2,,,,,,,,,,,,,,,1,,,45,93
24576,note_on,96,0,1,,,,,,,,,,,,,,,0,,,60,0
24576,note_on,96,0,2,,,,,,,,,,,,,,,1,,,45,0
24600,note_on,24,0,1,,,,,,,,,,,,,,,0,,,59,93
24600,note_on,24,0,2,,,,,,,,,,,,,,,1,,,47,93
24696,note_on,96,0,2,,,,,,,,,,,,,,,1,,,47,0
24696,note_on,96,0,1,,,,,,,,,,,,,,,0,,,59,0
24720,note_on,24,0,1,,,,,,,,,,,,,,,0,,,57,93
24720,note_on,24,0,2,,,,,,,,,,,,,,,1,,,48,93
24816,note_on,96,0,1,,,,,,,,,,,,,,,0,,,57,0
24816,note_on,96,0,2,,,,,,,,,,,,,,,1,,,48,0
24840,note_on,24,0,1,,,,,,,,,,,,,,,0,,,59,93
24840,note_on,24,0,2,,,,,,,,,,,,,,,1,,,50,93
24936,note_on,96,0,1,,,,,,,,,,,,,,,0,,,59,0
24936,note_on,96,0,2,,,,,,,,,,,,,,,1,,,50,0
24960,note_on,24,0,2,,,,,,,,,,,,,,,1,,,52,93
24960,note_on,24,0,1,,,,,,,,,,,,,,,0,,,60,93
25056,note_on,96,0,1,,,,,,,,,,,,,,,0,,,60,0
25056,note_on,96,0,2,,,,,,,,,,,,,,,1,,,52,0
25080,note_on,24,0,2,,,,,,,,,,,,,,,1,,,53,93
25080,note_on,24,0,1,,,,,,,,,,,,,,,0,,,62,93
25176,note_on,96,0,2,,,,,,,,,,,,,,,1,,,53,0
25176,note_on,96,0,1,,,,,,,,,,,,,,,0,,,62,0
25200,note_on,24,0,2,,,,,,,,,,,,,,,1,,,55,93
25200,note_on,24,0,1,,,,,,,,,,,,,,,0,,,64,93
25296,note_on,96,0,1,,,,,,,,,,,,,,,0,,,64,0
25320,note_on,24,0,1,,,,,,,,,,,,,,,0,,,65,93
25392,note_on,192,0,2,,,,,,,,,,,,,,,1,,,55,0
25416,note_on,96,0,1,,,,,,,,,,,,,,,0,,,65,0
25440,note_on,24,0,1,,,,,,,,,,,,,,,0,,,67,93
25440,note_on,48,0,2,,,,,,,,,,,,,,,1,,,53,93
25536,note_on,96,0,1,,,,,,,,,,,,,,,0,,,67,0
25560,note_on,24,0,1,,,,,,,,,,,,,,,0,,,69,93
25632,note_on,192,0,2,,,,,,,,,,,,,,,1,,,53,0
25656,note_on,96,0,1,,,,,,,,,,,,,,,0,,,69,0
25680,note_on,24,0,1,,,,,,,,,,,,,,,0,,,67,93
25680,note_on,48,0,2,,,,,,,,,,,,,,,1,,,52,93
25776,note_on,96,0,1,,,,,,,,,,,,,,,0,,,67,0
25800,note_on,24,0,1,,,,,,,,,,,,,,,0,,,65,93
25872,note_on,192,0,2,,,,,,,,,,,,,,,1,,,52,0
25896,note_on,96,0,1,,,,,,,,,,,,,,,0,,,65,0
25920,note_on,24,0,1,,,,,,,,,,,,,,,0,,,64,93
25920,note_on,48,0,2,,,,,,,,,,,,,,,1,,,50,93
26016,note_on,96,0,1,,,,,,,,,,,,,,,0,,,64,0
26040,note_on,24,0,1,,,,,,,,,,,,,,,0,,,65,93
26112,note_on,192,0,2,,,,,,,,,,,,,,,1,,,50,0
26136,note_on,96,0,1,,,,,,,,,,,,,,,0,,,65,0
26160,note_on,24,0,1,,,,,,,,,,,,,,,0,,,67,93
26160,note_on,48,0,2,,,,,,,,,,,,,,,1,,,52,93
26256,note_on,96,0,1,,,,,,,,,,,,,,,0,,,67,0
26280,note_on,24,0,1,,,,,,,,,,,,,,,0,,,65,93
26340,note_on,180,0,2,,,,,,,,,,,,,,,1,,,52,0
26376,note_on,96,0,1,,,,,,,,,,,,,,,0,,,65,0
26400,note_on,24,0,1,,,,,,,,,,,,,,,0,,,64,93
26400,note_on,60,0,2,,,,,,,,,,,,,,,1,,,48,93
26496,note_on,96,0,1,,,,,,,,,,,,,,,0,,,64,0
26496,note_on,96,0,2,,,,,,,,,,,,,,,1,,,48,0
26520,note_on,24,0,2,,,,,,,,,,,,,,,1,,,50,93
26520,note_on,24,0,1,,,,,,,,,,,,,,,0,,,62,93
26616,note_on,96,0,1,,,,,,,,,,,,,,,0,,,62,0
26616,note_on,96,0,2,,,,,,,,,,,,,,,1,,,50,0
26640,note_on,24,0,2,,,,,,,,,,,,,,,1,,,52,93
26640,note_on,24,0,1,,,,,,,,,,,,,,,0,,,60,93
26736,note_on,96,0,1,,,,,,,,,,,,,,,0,,,60,0
26736,note_on,96,0,2,,,,,,,,,,,,,,,1,,,52,0
26760,note_on,24,0,1,,,,,,,,,,,,,,,0,,,62,93
26760,note_on,24,0,2,,,,,,,,,,,,,,,1,,,54,93
26856,note_on,96,0,1,,,,,,,,,,,,,,,0,,,62,0
26856,note_on,96,0,2,,,,,,,,,,,,,,,1,,,54,0
26880,note_on,24,0,2,,,,,,,,,,,,,,,1,,,55,93
26880,note_on,24,0,1,,,,,,,,,,,,,,,0,,,64,93
26976,note_on,96,0,1,,,,,,,,,,,,,,,0,,,64,0
26976,note_on,96,0,2,,,,,,,,,,,,,,,1,,,55,0
27000,note_on,24,0,2,,,,,,,,,,,,,,,1,,,57,93
27000,note_on,24,0,1,,,,,,,,,,,,,,,0,,,66,93
27096,note_on,96,0,1,,,,,,,,,,,,,,,0,,,66,0
27096,note_on,96,0,2,,,,,,,,,,,,,,,1,,,57,0
27120,note_on,24,0,1,,,,,,,,,,,,,,,0,,,67,93
27120,note_on,24,0,2,,,,,,,,,,,,,,,1,,,59,93
27216,note_on,96,0,1,,,,,,,,,,,,,,,0,,,67,0
27240,note_on,24,0,1,,,,,,,,,,,,,,,0,,,69,93
27312,note_on,192,0,2,,,,,,,,,,,,,,,1,,,59,0
27336,note_on,96,0,1,,,,,,,,,,,,,,,0,,,69,0
27360,note_on,48,0,2,,,,,,,,,,,,,,,1,,,57,93
27360,note_on,24,0,1,,,,,,,,,,,,,,,0,,,71,93
27456,note_on,96,0,1,,,,,,,,,,,,,,,0,,,71,0
27480,note_on,24,0,1,,,,,,,,,,,,,,,0,,,72,93
27552,note_on,192,0,2,,,,,,,,,,,,,,,1,,,57,0
27576,note_on,96,0,1,,,,,,,,,,,,,,,0,,,72,0
27600,note_on,24,0,1,,,,,,,,,,,,,,,0,,,71,93
27600,note_on,48,0,2,,,,,,,,,,,,,,,1,,,55,93
27696,note_on,96,0,1,,,,,,,,,,,,,,,0,,,71,0
27720,note_on,24,0,1,,,,,,,,,,,,,,,0,,,69,93
27792,note_on,192,0,2,,,,,,,,,,,,,,,1,,,55,0
27816,note_on,96,0,1,,,,,,,,,,,,,,,0,,,69,0
27840,note_on,24,0,1,,,,,,,,,,,,,,,0,,,67,93
27840,note_on,48,0,2,,,,,,,,,,,,,,,1,,,54,93
27936,note_on,96,0,1,,,,,,,,,,,,,,,0,,,67,0
27960,note_on,24,0,1,,,,,,,,,,,,,,,0,,,69,93
28032,note_on,192,0,2,,,,,,,,,,,,,,,1,,,54,0
28056,note_on,96,0,1,,,,,,,,,,,,,,,0,,,69,0
28080,note_on,48,0,2,,,,,,,,,,,,,,,1,,,55,93
28080,note_on,24,0,1,,,,,,,,,,,,,,,0,,,71,93
28176,note_on,96,0,1,,,,,,,,,,,,,,,0,,,71,0
28200,note_on,24,0,1,,,,,,,,,,,,,,,0,,,69,93
28260,note_on,180,0,2,,,,,,,,,,,,,,,1,,,55,0
28296,note_on,96,0,1,,,,,,,,,,,,,,,0,,,69,0
28320,note_on,60,0,2,,,,,,,,,,,,,,,1,,,52,93
28320,note_on,24,0,1,,,,,,,,,,,,,,,0,,,67,93
28416,note_on,96,0,1,,,,,,,,,,,,,,,0,,,67,0
28440,note_on,24,0,1,,,,,,,,,,,,,,,0,,,66,93
28512,note_on,192,0,2,,,,,,,,,,,,,,,1,,,52,0
28536,note_on,96,0,1,,,,,,,,,,,,,,,0,,,66,0
28560,note_on,48,0,2,,,,,,,,,,,,,,,1,,,60,93
28560,note_on,24,0,1,,,,,,,,,,,,,,,0,,,64,93
28656,note_on,96,0,1,,,,,,,,,,,,,,,0,,,64,0
28680,note_on,24,0,1,,,,,,,,,,,,,,,0,,,63,93
28752,note_on,192,0,2,,,,,,,,,,,,,,,1,,,60,0
28776,note_on,96,0,1,,,,,,,,,,,,,,,0,,,63,0
28800,note_on,24,0,1,,,,,,,,,,,,,,,0,,,64,93
28800,note_on,48,0,2,,,,,,,,,,,,,,,1,,,57,93
28896,note_on,96,0,1,,,,,,,,,,,,,,,0,,,64,0
28920,note_on,24,0,1,,,,,,,,,,,,,,,0,,,66,93
28992,note_on,192,0,2,,,,,,,,,,,,,,,1,,,57,0
29016,note_on,96,0,1,,,,,,,,,,,,,,,0,,,66,0
29040,note_on,48,0,2,,,,,,,,,,,,,,,1,,,57,93
29040,note_on,24,0,1,,,,,,,,,,,,,,,0,,,59,93
29136,note_on,96,0,2,,,,,,,,,,,,,,,1,,,57,0
29160,note_on,24,0,2,,,,,,,,,,,,,,,1,,,55,93
29232,note_on,192,0,1,,,,,,,,,,,,,,,0,,,59,0
29256,note_on,96,0,2,,,,,,,,,,,,,,,1,,,55,0
29280,note_on,24,0,2,,,,,,,,,,,,,,,1,,,54,93
29280,note_on,48,0,1,,,,,,,,,,,,,,,0,,,67,93
29376,note_on,96,0,2,,,,,,,,,,,,,,,1,,,54,0
29400,note_on,24,0,2,,,,,,,,,,,,,,,1,,,52,93
29496,note_on,96,0,2,,,,,,,,,,,,,,,1,,,52,0
29520,note_on,24,0,2,,,,,,,,,,,,,,,1,,,59,93
29616,note_on,336,0,1,,,,,,,,,,,,,,,0,,,67,0
29640,note_on,24,0,1,,,,,,,,,,,,,,,0,,,66,93
29700,note_on,180,0,2,,,,,,,,,,,,,,,1,,,59,0
29736,note_on,96,0,1,,,,,,,,,,,,,,,0,,,66,0
29760,note_on,24,0,1,,,,,,,,,,,,,,,0,,,64,93
29760,note_on,60,0,2,,,,,,,,,,,,,,,1,,,47,93
29856,note_on,96,0,1,,,,,,,,,,,,,,,0,,,64,0
29880,note_on,24,0,1,,,,,,,,,,,,,,,0,,,63,93
29940,note_on,180,0,2,,,,,,,,,,,,,,,1,,,47,0
29976,note_on,96,0,1,,,,,,,,,,,,,,,0,,,63,0
30000,note_on,24,0,1,,,,,,,,,,,,,,,0,,,64,93
30000,time_signature,14400,1,0,,,,,,,3,4,24,8,,,,,,,,,
30000,note_on,60,0,2,,,,,,,,,,,,,,,1,,,52,93
30180,note_on,180,0,2,,,,,,,,,,,,,,,1,,,52,0
30240,note_on,60,0,2,,,,,,,,,,,,,,,1,,,47,93
30420,note_on,180,0,2,,,,,,,,,,,,,,,1,,,47,0
30480,note_on,60,0,2,,,,,,,,,,,,,,,1,,,40,93
30576,note_on,576,0,1,,,,,,,,,,,,,,,0,,,64,0
30672,note_on,192,0,2,,,,,,,,,,,,,,,1,,,40,0
30720,note_on,48,0,2,,,,,,,,,,,,,,,1,,,52,93
30720,note_on,144,0,1,,,,,,,,,,,,,,,0,,,64,93
30720,time_signature,720,1,0,,,,,,,1,4,24,8,,,,,,,,,
30816,note_on,96,0,2,,,,,,,,,,,,,,,1,,,52,0
30816,note_on,96,0,1,,,,,,,,,,,,,,,0,,,64,0
30840,note_on,24,0,2,,,,,,,,,,,,,,,1,,,53,93
30840,note_on,24,0,1,,,,,,,,,,,,,,,0,,,62,93
30936,note_on,96,0,2,,,,,,,,,,,,,,,1,,,53,0
30936,note_on,96,0,1,,,,,,,,,,,,,,,0,,,62,0
30960,time_signature,240,1,0,,,,,,,4,4,24,8,,,,,,,,,
30960,note_on,24,0,2,,,,,,,,,,,,,,,1,,,55,93
30960,note_on,24,0,1,,,,,,,,,,,,,,,0,,,61,93
31056,note_on,96,0,2,,,,,,,,,,,,,,,1,,,55,0
31080,note_on,24,0,2,,,,,,,,,,,,,,,1,,,53,93
31152,note_on,192,0,1,,,,,,,,,,,,,,,0,,,61,0
31176,note_on,96,0,2,,,,,,,,,,,,,,,1,,,53,0
31200,note_on,48,0,1,,,,,,,,,,,,,,,0,,,59,93
31200,note_on,24,0,2,,,,,,,,,,,,,,,1,,,52,93
31296,note_on,96,0,2,,,,,,,,,,,,,,,1,,,52,0
31320,note_on,24,0,2,,,,,,,,,,,,,,,1,,,53,93
31392,note_on,192,0,1,,,,,,,,,,,,,,,0,,,59,0
31416,note_on,96,0,2,,,,,,,,,,,,,,,1,,,53,0
31440,note_on,48,0,1,,,,,,,,,,,,,,,0,,,61,93
31440,note_on,24,0,2,,,,,,,,,,,,,,,1,,,55,93
31536,note_on,96,0,2,,,,,,,,,,,,,,,1,,,55,0
31560,note_on,24,0,2,,,,,,,,,,,,,,,1,,,53,93
31632,note_on,192,0,1,,,,,,,,,,,,,,,0,,,61,0
31656,note_on,96,0,2,,,,,,,,,,,,,,,1,,,53,0
31680,note_on,24,0,2,,,,,,,,,,,,,,,1,,,52,93
31680,note_on,48,0,1,,,,,,,,,,,,,,,0,,,62,93
31776,note_on,96,0,2,,,,,,,,,,,,,,,1,,,52,0
31800,note_on,24,0,2,,,,,,,,,,,,,,,1,,,53,93
31872,note_on,192,0,1,,,,,,,,,,,,,,,0,,,62,0
31896,note_on,96,0,2,,,,,,,,,,,,,,,1,,,53,0
31920,note_on,24,0,2,,,,,,,,,,,,,,,1,,,55,93
31920,note_on,48,0,1,,,,,,,,,,,,,,,0,,,64,93
32016,note_on,96,0,2,,,,,,,,,,,,,,,1,,,55,0
32016,note_on,96,0,1,,,,,,,,,,,,,,,0,,,64,0
32040,note_on,24,0,2,,,,,,,,,,,,,,,1,,,53,93
32040,note_on,24,0,1,,,,,,,,,,,,,,,0,,,67,93
32136,note_on,96,0,2,,,,,,,,,,,,,,,1,,,53,0
32136,note_on,96,0,1,,,,,,,,,,,,,,,0,,,67,0
32160,note_on,24,0,2,,,,,,,,,,,,,,,1,,,52,93
32160,note_on,24,0,1,,,,,,,,,,,,,,,0,,,70,93
32256,note_on,96,0,2,,,,,,,,,,,,,,,1,,,52,0
32280,note_on,24,0,2,,,,,,,,,,,,,,,1,,,53,93
32376,note_on,96,0,2,,,,,,,,,,,,,,,1,,,53,0
32400,note_on,24,0,2,,,,,,,,,,,,,,,1,,,55,93
32544,note_on,384,0,1,,,,,,,,,,,,,,,0,,,70,0
32580,note_on,180,0,2,,,,,,,,,,,,,,,1,,,55,0
32640,note_on,60,0,2,,,,,,,,,,,,,,,1,,,49,93
32640,note_on,96,0,1,,,,,,,,,,,,,,,0,,,69,93
32736,note_on,96,0,1,,,,,,,,,,,,,,,0,,,69,0
32760,note_on,24,0,1,,,,,,,,,,,,,,,0,,,67,93
32832,note_on,192,0,2,,,,,,,,,,,,,,,1,,,49,0
32856,note_on,96,0,1,,,,,,,,,,,,,,,0,,,67,0
32880,note_on,48,0,2,,,,,,,,,,,,,,,1,,,50,93
32880,note_on,24,0,1,,,,,,,,,,,,,,,0,,,65,93
32976,note_on,96,0,1,,,,,,,,,,,,,,,0,,,65,0
33000,note_on,24,0,1,,,,,,,,,,,,,,,0,,,64,93
33072,note_on,192,0,2,,,,,,,,,,,,,,,1,,,50,0
33096,note_on,96,0,1,,,,,,,,,,,,,,,0,,,64,0
33120,note_on,24,0,1,,,,,,,,,,,,,,,0,,,65,93
33120,note_on,48,0,2,,,,,,,,,,,,,,,1,,,46,93
33216,note_on,96,0,1,,,,,,,,,,,,,,,0,,,65,0
33240,note_on,24,0,1,,,,,,,,,,,,,,,0,,,74,93
33312,note_on,192,0,2,,,,,,,,,,,,,,,1,,,46,0
33336,note_on,96,0,1,,,,,,,,,,,,,,,0,,,74,0
33360,note_on,24,0,1,,,,,,,,,,,,,,,0,,,73,93
33360,note_on,48,0,2,,,,,,,,,,,,,,,1,,,43,93
33456,note_on,96,0,1,,,,,,,,,,,,,,,0,,,73,0
33480,note_on,24,0,1,,,,,,,,,,,,,,,0,,,71,93
33552,note_on,192,0,2,,,,,,,,,,,,,,,1,,,43,0
33576,note_on,96,0,1,,,,,,,,,,,,,,,0,,,71,0
33600,note_on,48,0,2,,,,,,,,,,,,,,,1,,,45,93
33600,note_on,24,0,1,,,,,,,,,,,,,,,0,,,69,93
33696,note_on,96,0,1,,,,,,,,,,,,,,,0,,,69,0
33720,note_on,24,0,1,,,,,,,,,,,,,,,0,,,67,93
33792,note_on,192,0,2,,,,,,,,,,,,,,,1,,,45,0
33816,note_on,96,0,1,,,,,,,,,,,,,,,0,,,67,0
33840,note_on,24,0,1,,,,,,,,,,,,,,,0,,,65,93
33840,note_on,48,0,2,,,,,,,,,,,,,,,1,,,38,93
33936,note_on,96,0,1,,,,,,,,,,,,,,,0,,,65,0
33960,note_on,24,0,1,,,,,,,,,,,,,,,0,,,67,93
34056,note_on,96,0,1,,,,,,,,,,,,,,,0,,,67,0
34080,note_on,24,0,1,,,,,,,,,,,,,,,0,,,69,93
34176,note_on,96,0,1,,,,,,,,,,,,,,,0,,,69,0
34200,note_on,24,0,1,,,,,,,,,,,,,,,0,,,67,93
34296,note_on,96,0,1,,,,,,,,,,,,,,,0,,,67,0
34320,note_on,24,0,1,,,,,,,,,,,,,,,0,,,65,93
34416,note_on,96,0,1,,,,,,,,,,,,,,,0,,,65,0
34416,note_on,576,0,2,,,,,,,,,,,,,,,1,,,38,0
34440,note_on,24,0,1,,,,,,,,,,,,,,,0,,,64,93
34536,note_on,96,0,1,,,,,,,,,,,,,,,0,,,64,0
34560,note_on,144,0,2,,,,,,,,,,,,,,,1,,,50,93
34560,note_on,24,0,1,,,,,,,,,,,,,,,0,,,62,93
34656,note_on,96,0,2,,,,,,,,,,,,,,,1,,,50,0
34656,note_on,96,0,1,,,,,,,,,,,,,,,0,,,62,0
34680,note_on,24,0,1,,,,,,,,,,,,,,,0,,,60,93
34680,note_on,24,0,2,,,,,,,,,,,,,,,1,,,52,93
34776,note_on,96,0,2,,,,,,,,,,,,,,,1,,,52,0
34776,note_on,96,0,1,,,,,,,,,,,,,,,0,,,60,0
34800,note_on,24,0,1,,,,,,,,,,,,,,,0,,,59,93
34800,note_on,24,0,2,,,,,,,,,,,,,,,1,,,53,93
34896,note_on,96,0,2,,,,,,,,,,,,,,,1,,,53,0
34920,note_on,24,0,2,,,,,,,,,,,,,,,1,,,52,93
34992,note_on,192,0,1,,,,,,,,,,,,,,,0,,,59,0
35016,note_on,96,0,2,,,,,,,,,,,,,,,1,,,52,0
35040,note_on,48,0,1,,,,,,,,,,,,,,,0,,,59,93
35040,note_on,24,0,2,,,,,,,,,,,,,,,1,,,50,93
35136,note_on,96,0,1,,,,,,,,,,,,,,,0,,,59,0
35136,note_on,96,0,2,,,,,,,,,,,,,,,1,,,50,0
35160,note_on,24,0,1,,,,,,,,,,,,,,,0,,,57,93
35160,note_on,24,0,2,,,,,,,,,,,,,,,1,,,52,93
35256,note_on,96,0,1,,,,,,,,,,,,,,,0,,,57,0
35256,note_on,96,0,2,,,,,,,,,,,,,,,1,,,52,0
35280,note_on,24,0,2,,,,,,,,,,,,,,,1,,,53,93
35280,note_on,24,0,1,,,,,,,,,,,,,,,0,,,59,93
35376,note_on,96,0,2,,,,,,,,,,,,,,,1,,,53,0
35400,note_on,24,0,2,,,,,,,,,,,,,,,1,,,52,93
35472,note_on,192,0,1,,,,,,,,,,,,,,,0,,,59,0
35496,note_on,96,0,2,,,,,,,,,,,,,,,1,,,52,0
35520,note_on,48,0,1,,,,,,,,,,,,,,,0,,,59,93
35520,note_on,24,0,2,,,,,,,,,,,,,,,1,,,50,93
35616,note_on,96,0,1,,,,,,,,,,,,,,,0,,,59,0
35616,note_on,96,0,2,,,,,,,,,,,,,,,1,,,50,0
35640,note_on,24,0,1,,,,,,,,,,,,,,,0,,,60,93
35640,note_on,24,0,2,,,,,,,,,,,,,,,1,,,52,93
35736,note_on,96,0,2,,,,,,,,,,,,,,,1,,,52,0
35736,note_on,96,0,1,,,,,,,,,,,,,,,0,,,60,0
35760,note_on,24,0,1,,,,,,,,,,,,,,,0,,,62,93
35760,note_on,24,0,2,,,,,,,,,,,,,,,1,,,53,93
35856,note_on,96,0,1,,,,,,,,,,,,,,,0,,,62,0
35856,note_on,96,0,2,,,,,,,,,,,,,,,1,,,53,0
35880,note_on,24,0,1,,,,,,,,,,,,,,,0,,,65,93
35880,note_on,24,0,2,,,,,,,,,,,,,,,1,,,52,93
35976,note_on,96,0,1,,,,,,,,,,,,,,,0,,,65,0
35976,note_on,96,0,2,,,,,,,,,,,,,,,1,,,52,0
36000,note_on,24,0,2,,,,,,,,,,,,,,,1,,,50,93
36000,note_on,24,0,1,,,,,,,,,,,,,,,0,,,69,93
36096,note_on,96,0,2,,,,,,,,,,,,,,,1,,,50,0
36120,note_on,24,0,2,,,,,,,,,,,,,,,1,,,52,93
36216,note_on,96,0,2,,,,,,,,,,,,,,,1,,,52,0
36240,note_on,24,0,2,,,,,,,,,,,,,,,1,,,53,93
36336,note_on,96,0,2,,,,,,,,,,,,,,,1,,,53,0
36360,note_on,24,0,2,,,,,,,,,,,,,,,1,,,55,93
36384,note_on,384,0,1,,,,,,,,,,,,,,,0,,,69,0
36456,note_on,96,0,2,,,,,,,,,,,,,,,1,,,55,0
36480,note_on,96,0,1,,,,,,,,,,,,,,,0,,,67,93
36480,note_on,24,0,2,,,,,,,,,,,,,,,1,,,57,93
36576,note_on,96,0,2,,,,,,,,,,,,,,,1,,,57,0
36576,note_on,96,0,1,,,,,,,,,,,,,,,0,,,67,0
36600,note_on,24,0,1,,,,,,,,,,,,,,,0,,,65,93
36600,note_on,24,0,2,,,,,,,,,,,,,,,1,,,59,93
36696,note_on,96,0,2,,,,,,,,,,,,,,,1,,,59,0
36696,note_on,96,0,1,,,,,,,,,,,,,,,0,,,65,0
36720,note_on,24,0,2,,,,,,,,,,,,,,,1,,,60,93
36720,note_on,24,0,1,,,,,,,,,,,,,,,0,,,64,93
36816,note_on,96,0,1,,,,,,,,,,,,,,,0,,,64,0
36840,note_on,24,0,1,,,,,,,,,,,,,,,0,,,62,93
36900,note_on,180,0,2,,,,,,,,,,,,,,,1,,,60,0
36936,note_on,96,0,1,,,,,,,,,,,,,,,0,,,62,0
36960,note_on,60,0,2,,,,,,,,,,,,,,,1,,,57,93
36960,note_on,24,0,1,,,,,,,,,,,,,,,0,,,64,93
37056,note_on,96,0,1,,,,,,,,,,,,,,,0,,,64,0
37080,note_on,24,0,1,,,,,,,,,,,,,,,0,,,72,93
37152,note_on,192,0,2,,,,,,,,,,,,,,,1,,,57,0
37176,note_on,96,0,1,,,,,,,,,,,,,,,0,,,72,0
37200,note_on,48,0,2,,,,,,,,,,,,,,,1,,,53,93
37200,note_on,24,0,1,,,,,,,,,,,,,,,0,,,71,93
37296,note_on,96,0,1,,,,,,,,,,,,,,,0,,,71,0
37320,note_on,24,0,1,,,,,,,,,,,,,,,0,,,69,93
37392,note_on,192,0,2,,,,,,,,,,,,,,,1,,,53,0
37416,note_on,96,0,1,,,,,,,,,,,,,,,0,,,69,0
37440,note_on,24,0,1,,,,,,,,,,,,,,,0,,,67,93
37440,note_on,48,0,2,,,,,,,,,,,,,,,1,,,55,93
37536,note_on,96,0,1,,,,,,,,,,,,,,,0,,,67,0
37560,note_on,24,0,1,,,,,,,,,,,,,,,0,,,65,93
37632,note_on,192,0,2,,,,,,,,,,,,,,,1,,,55,0
37656,note_on,96,0,1,,,,,,,,,,,,,,,0,,,65,0
37680,note_on,48,0,2,,,,,,,,,,,,,,,1,,,48,93
37680,note_on,24,0,1,,,,,,,,,,,,,,,0,,,64,93
37776,note_on,96,0,1,,,,,,,,,,,,,,,0,,,64,0
37800,note_on,24,0,1,,,,,,,,,,,,,,,0,,,65,93
37896,note_on,96,0,1,,,,,,,,,,,,,,,0,,,65,0
37920,note_on,24,0,1,,,,,,,,,,,,,,,0,,,67,93
38016,note_on,96,0,1,,,,,,,,,,,,,,,0,,,67,0
38040,note_on,24,0,1,,,,,,,,,,,,,,,0,,,65,93
38136,note_on,96,0,1,,,,,,,,,,,,,,,0,,,65,0
38160,note_on,24,0,1,,,,,,,,,,,,,,,0,,,64,93
38256,note_on,576,0,2,,,,,,,,,,,,,,,1,,,48,0
38256,note_on,96,0,1,,,,,,,,,,,,,,,0,,,64,0
38280,note_on,24,0,1,,,,,,,,,,,,,,,0,,,62,93
38280,note_on,24,0,2,,,,,,,,,,,,,,,1,,,53,93
38376,note_on,96,0,1,,,,,,,,,,,,,,,0,,,62,0
38376,note_on,96,0,2,,,,,,,,,,,,,,,1,,,53,0
38400,note_on,24,0,1,,,,,,,,,,,,,,,0,,,60,93
38400,note_on,24,0,2,,,,,,,,,,,,,,,1,,,52,93
38496,note_on,96,0,1,,,,,,,,,,,,,,,0,,,60,0
38496,note_on,96,0,2,,,,,,,,,,,,,,,1,,,52,0
38520,note_on,24,0,1,,,,,,,,,,,,,,,0,,,59,93
38520,note_on,24,0,2,,,,,,,,,,,,,,,1,,,50,93
38616,note_on,96,0,2,,,,,,,,,,,,,,,1,,,50,0
38616,note_on,96,0,1,,,,,,,,,,,,,,,0,,,59,0
38640,note_on,24,0,2,,,,,,,,,,,,,,,1,,,48,93
38640,note_on,24,0,1,,,,,,,,,,,,,,,0,,,57,93
38730,note_on,90,0,1,,,,,,,,,,,,,,,0,,,57,0
38736,note_on,96,0,2,,,,,,,,,,,,,,,1,,,48,0
38760,note_on,24,0,2,,,,,,,,,,,,,,,1,,,47,93
38760,note_on,30,0,1,,,,,,,,,,,,,,,0,,,67,93
38856,note_on,96,0,2,,,,,,,,,,,,,,,1,,,47,0
38856,note_on,96,0,1,,,,,,,,,,,,,,,0,,,67,0
38880,note_on,24,0,1,,,,,,,,,,,,,,,0,,,65,93
38880,note_on,24,0,2,,,,,,,,,,,,,,,1,,,48,93
38976,note_on,96,0,1,,,,,,,,,,,,,,,0,,,65,0
39000,note_on,24,0,1,,,,,,,,,,,,,,,0,,,64,93
39096,note_on,96,0,1,,,,,,,,,,,,,,,0,,,64,0
39120,note_on,24,0,1,,,,,,,,,,,,,,,0,,,65,93
39216,note_on,336,0,2,,,,,,,,,,,,,,,1,,,48,0
39240,note_on,24,0,2,,,,,,,,,,,,,,,1,,,52,93
39300,note_on,180,0,1,,,,,,,,,,,,,,,0,,,65,0
39336,note_on,96,0,2,,,,,,,,,,,,,,,1,,,52,0
39360,note_on,60,0,1,,,,,,,,,,,,,,,0,,,57,93
39360,note_on,24,0,2,,,,,,,,,,,,,,,1,,,50,93
39456,note_on,96,0,2,,,,,,,,,,,,,,,1,,,50,0
39480,note_on,24,0,2,,,,,,,,,,,,,,,1,,,48,93
39540,note_on,180,0,1,,,,,,,,,,,,,,,0,,,57,0
39576,note_on,96,0,2,,,,,,,,,,,,,,,1,,,48,0
39600,note_on,24,0,2,,,,,,,,,,,,,,,1,,,56,93
39600,note_on,0,0,2,,,,,,,,,,,,,,,1,,,47,93
39696,note_on,96,0,2,,,,,,,,,,,,,,,1,,,47,0
39696,note_on,0,0,2,,,,,,,,,,,,,,,1,,,56,0
39720,note_on,24,0,2,,,,,,,,,,,,,,,1,,,45,93
39720,note_on,0,0,2,,,,,,,,,,,,,,,1,,,54,93
39816,note_on,96,0,2,,,,,,,,,,,,,,,1,,,54,0
39816,note_on,0,0,2,,,,,,,,,,,,,,,1,,,45,0
39840,note_on,24,0,2,,,,,,,,,,,,,,,1,,,56,93
39840,note_on,0,0,2,,,,,,,,,,,,,,,1,,,47,93
39936,note_on,96,0,2,,,,,,,,,,,,,,,1,,,56,0
39960,note_on,24,0,2,,,,,,,,,,,,,,,1,,,65,93
40056,note_on,96,0,2,,,,,,,,,,,,,,,1,,,65,0
40080,note_on,24,0,2,,,,,,,,,,,,,,,1,,,64,93
40176,note_on,96,0,2,,,,,,,,,,,,,,,1,,,47,0
40200,note_on,24,0,2,,,,,,,,,,,,,,,1,,,50,93
40260,note_on,60,0,2,,,,,,,,,,,,,,,1,,,64,0
40296,note_on,36,0,2,,,,,,,,,,,,,,,1,,,50,0
40320,note_on,24,0,2,,,,,,,,,,,,,,,1,,,48,93
40320,note_on,0,0,2,,,,,,,,,,,,,,,1,,,55,93
40416,note_on,96,0,2,,,,,,,,,,,,,,,1,,,48,0
40440,note_on,24,0,2,,,,,,,,,,,,,,,1,,,47,93
40500,note_on,60,0,2,,,,,,,,,,,,,,,1,,,55,0
40536,note_on,36,0,2,,,,,,,,,,,,,,,1,,,47,0
40560,note_on,24,0,2,,,,,,,,,,,,,,,1,,,54,93
40560,note_on,0,0,2,,,,,,,,,,,,,,,1,,,45,93
40656,note_on,96,0,2,,,,,,,,,,,,,,,1,,,45,0
40656,note_on,0,0,2,,,,,,,,,,,,,,,1,,,54,0
40680,note_on,24,0,2,,,,,,,,,,,,,,,1,,,52,93
40680,note_on,0,0,2,,,,,,,,,,,,,,,1,,,44,93
40776,note_on,0,0,2,,,,,,,,,,,,,,,1,,,52,0
40776,note_on,96,0,2,,,,,,,,,,,,,,,1,,,44,0
40800,note_on,24,0,2,,,,,,,,,,,,,,,1,,,53,93
40800,note_on,0,0,2,,,,,,,,,,,,,,,1,,,45,93
40896,note_on,96,0,2,,,,,,,,,,,,,,,1,,,53,0
40920,note_on,24,0,2,,,,,,,,,,,,,,,1,,,64,93
41016,note_on,96,0,2,,,,,,,,,,,,,,,1,,,64,0
41040,note_on,24,0,2,,,,,,,,,,,,,,,1,,,62,93
41136,note_on,0,0,2,,,,,,,,,,,,,,,1,,,45,0
41136,note_on,96,0,2,,,,,,,,,,,,,,,1,,,62,0
41160,note_on,0,0,2,,,,,,,,,,,,,,,1,,,60,93
41160,note_on,24,0,2,,,,,,,,,,,,,,,1,,,47,93
41256,note_on,96,0,2,,,,,,,,,,,,,,,1,,,60,0
41256,note_on,0,0,2,,,,,,,,,,,,,,,1,,,47,0
41280,note_on,24,0,2,,,,,,,,,,,,,,,1,,,48,93
41280,note_on,0,0,2,,,,,,,,,,,,,,,1,,,59,93
41376,note_on,0,0,2,,,,,,,,,,,,,,,1,,,48,0
41376,note_on,96,0,2,,,,,,,,,,,,,,,1,,,59,0
41400,note_on,0,0,2,,,,,,,,,,,,,,,1,,,57,93
41400,note_on,24,0,2,,,,,,,,,,,,,,,1,,,50,93
41496,note_on,0,0,2,,,,,,,,,,,,,,,1,,,50,0
41496,note_on,96,0,2,,,,,,,,,,,,,,,1,,,57,0
41520,note_on,1980,0,1,,,,,,,,,,,,,,,0,,,69,93
41520,note_on,24,0,2,,,,,,,,,,,,,,,1,,,52,93
41616,note_on,96,0,2,,,,,,,,,,,,,,,1,,,52,0
41616,note_on,96,0,1,,,,,,,,,,,,,,,0,,,69,0
41640,note_on,24,0,2,,,,,,,,,,,,,,,1,,,51,93
41640,note_on,24,0,1,,,,,,,,,,,,,,,0,,,68,93
41736,note_on,96,0,2,,,,,,,,,,,,,,,1,,,51,0
41736,note_on,96,0,1,,,,,,,,,,,,,,,0,,,68,0
41760,note_on,24,0,2,,,,,,,,,,,,,,,1,,,52,93
41760,note_on,24,0,1,,,,,,,,,,,,,,,0,,,66,93
41856,note_on,96,0,1,,,,,,,,,,,,,,,0,,,66,0
41880,note_on,24,0,1,,,,,,,,,,,,,,,0,,,64,93
41976,note_on,96,0,1,,,,,,,,,,,,,,,0,,,64,0
42000,note_on,24,0,1,,,,,,,,,,,,,,,0,,,71,93
42096,note_on,336,0,2,,,,,,,,,,,,,,,1,,,52,0
42120,note_on,24,0,2,,,,,,,,,,,,,,,1,,,50,93
42180,note_on,180,0,1,,,,,,,,,,,,,,,0,,,71,0
42216,note_on,96,0,2,,,,,,,,,,,,,,,1,,,50,0
42240,note_on,24,0,2,,,,,,,,,,,,,,,1,,,48,93
42240,note_on,60,0,1,,,,,,,,,,,,,,,0,,,64,93
42336,note_on,96,0,1,,,,,,,,,,,,,,,0,,,64,0
42336,note_on,96,0,2,,,,,,,,,,,,,,,1,,,48,0
42360,note_on,24,0,1,,,,,,,,,,,,,,,0,,,62,93
42360,note_on,24,0,2,,,,,,,,,,,,,,,1,,,47,93
42456,note_on,96,0,1,,,,,,,,,,,,,,,0,,,62,0
42456,note_on,96,0,2,,,,,,,,,,,,,,,1,,,47,0
42480,note_on,24,0,1,,,,,,,,,,,,,,,0,,,64,93
42480,note_on,24,0,2,,,,,,,,,,,,,,,1,,,45,93
42576,note_on,96,0,2,,,,,,,,,,,,,,,1,,,45,0
42600,note_on,24,0,2,,,,,,,,,,,,,,,1,,,44,93
42672,note_on,192,0,1,,,,,,,,,,,,,,,0,,,64,0
42696,note_on,96,0,2,,,,,,,,,,,,,,,1,,,44,0
42720,note_on,48,0,1,,,,,,,,,,,,,,,0,,,74,93
42720,note_on,24,0,2,,,,,,,,,,,,,,,1,,,42,93
42816,note_on,96,0,2,,,,,,,,,,,,,,,1,,,42,0
42840,note_on,24,0,2,,,,,,,,,,,,,,,1,,,44,93
42912,note_on,192,0,1,,,,,,,,,,,,,,,0,,,74,0
42936,note_on,96,0,2,,,,,,,,,,,,,,,1,,,44,0
42960,note_on,48,0,1,,,,,,,,,,,,,,,0,,,72,93
42960,note_on,24,0,2,,,,,,,,,,,,,,,1,,,45,93
43056,note_on,96,0,2,,,,,,,,,,,,,,,1,,,45,0
43080,note_on,24,0,2,,,,,,,,,,,,,,,1,,,44,93
43152,note_on,192,0,1,,,,,,,,,,,,,,,0,,,72,0
43176,note_on,96,0,2,,,,,,,,,,,,,,,1,,,44,0
43200,note_on,48,0,1,,,,,,,,,,,,,,,0,,,71,93
43200,note_on,24,0,2,,,,,,,,,,,,,,,1,,,42,93
43296,note_on,96,0,2,,,,,,,,,,,,,,,1,,,42,0
43320,note_on,24,0,2,,,,,,,,,,,,,,,1,,,44,93
43392,note_on,192,0,1,,,,,,,,,,,,,,,0,,,71,0
43416,note_on,96,0,2,,,,,,,,,,,,,,,1,,,44,0
43440,note_on,48,0,1,,,,,,,,,,,,,,,0,,,72,93
43440,note_on,24,0,2,,,,,,,,,,,,,,,1,,,45,93
43536,note_on,96,0,2,,,,,,,,,,,,,,,1,,,45,0
43560,note_on,24,0,2,,,,,,,,,,,,,,,1,,,47,93
43620,note_on,180,0,1,,,,,,,,,,,,,,,0,,,72,0
43656,note_on,96,0,2,,,,,,,,,,,,,,,1,,,47,0
43680,note_on,60,0,1,,,,,,,,,,,,,,,0,,,64,113
43680,note_on,24,0,2,,,,,,,,,,,,,,,1,,,48,93
43776,note_on,96,0,2,,,,,,,,,,,,,,,1,,,48,0
43800,note_on,24,0,2,,,,,,,,,,,,,,,1,,,50,93
43896,note_on,96,0,2,,,,,,,,,,,,,,,1,,,50,0
43920,note_on,24,0,2,,,,,,,,,,,,,,,1,,,52,93
44016,note_on,96,0,2,,,,,,,,,,,,,,,1,,,52,0
44040,note_on,24,0,2,,,,,,,,,,,,,,,1,,,54,93
44064,note_on,384,0,1,,,,,,,,,,,,,,,0,,,64,0
44136,note_on,96,0,2,,,,,,,,,,,,,,,1,,,54,0
44160,note_on,24,0,2,,,,,,,,,,,,,,,1,,,56,93
44160,note_on,96,0,1,,,,,,,,,,,,,,,0,,,62,93
44256,note_on,96,0,2,,,,,,,,,,,,,,,1,,,56,0
44256,note_on,96,0,1,,,,,,,,,,,,,,,0,,,62,0
44280,note_on,24,0,1,,,,,,,,,,,,,,,0,,,60,93
44280,note_on,24,0,2,,,,,,,,,,,,,,,1,,,57,93
44376,note_on,96,0,1,,,,,,,,,,,,,,,0,,,60,0
44376,note_on,96,0,2,,,,,,,,,,,,,,,1,,,57,0
44400,note_on,24,0,2,,,,,,,,,,,,,,,1,,,56,93
44400,note_on,24,0,1,,,,,,,,,,,,,,,0,,,62,93
44496,note_on,96,0,2,,,,,,,,,,,,,,,1,,,56,0
44520,note_on,24,0,2,,,,,,,,,,,,,,,1,,,57,93
44592,note_on,192,0,1,,,,,,,,,,,,,,,0,,,62,0
44616,note_on,96,0,2,,,,,,,,,,,,,,,1,,,57,0
44640,note_on,48,0,1,,,,,,,,,,,,,,,0,,,72,93
44640,note_on,24,0,2,,,,,,,,,,,,,,,1,,,59,93
44736,note_on,96,0,2,,,,,,,,,,,,,,,1,,,59,0
44760,note_on,24,0,2,,,,,,,,,,,,,,,1,,,57,93
44832,note_on,192,0,1,,,,,,,,,,,,,,,0,,,72,0
44856,note_on,96,0,2,,,,,,,,,,,,,,,1,,,57,0
44880,note_on,24,0,2,,,,,,,,,,,,,,,1,,,56,93
44880,note_on,48,0,1,,,,,,,,,,,,,,,0,,,71,93
44976,note_on,96,0,2,,,,,,,,,,,,,,,1,,,56,0
44976,note_on,96,0,1,,,,,,,,,,,,,,,0,,,71,0
45000,note_on,24,0,2,,,,,,,,,,,,,,,1,,,57,93
45000,note_on,24,0,1,,,,,,,,,,,,,,,0,,,69,93
45096,note_on,96,0,1,,,,,,,,,,,,,,,0,,,69,0
45096,note_on,96,0,2,,,,,,,,,,,,,,,1,,,57,0
45120,note_on,24,0,2,,,,,,,,,,,,,,,1,,,59,93
45120,note_on,24,0,1,,,,,,,,,,,,,,,0,,,68,93
45216,note_on,96,0,2,,,,,,,,,,,,,,,1,,,59,0
45216,note_on,96,0,1,,,,,,,,,,,,,,,0,,,68,0
45240,note_on,24,0,1,,,,,,,,,,,,,,,0,,,69,93
45240,note_on,24,0,2,,,,,,,,,,,,,,,1,,,57,93
45336,note_on,96,0,1,,,,,,,,,,,,,,,0,,,69,0
45336,note_on,96,0,2,,,,,,,,,,,,,,,1,,,57,0
45360,note_on,24,0,2,,,,,,,,,,,,,,,1,,,56,93
45360,note_on,24,0,1,,,,,,,,,,,,,,,0,,,71,93
45456,note_on,96,0,2,,,,,,,,,,,,,,,1,,,56,0
45480,note_on,24,0,2,,,,,,,,,,,,,,,1,,,54,93
45540,note_on,180,0,1,,,,,,,,,,,,,,,0,,,71,0
45576,note_on,96,0,2,,,,,,,,,,,,,,,1,,,54,0
45600,note_on,60,0,1,,,,,,,,,,,,,,,0,,,62,113
45600,note_on,24,0,2,,,,,,,,,,,,,,,1,,,52,93
45696,note_on,96,0,2,,,,,,,,,,,,,,,1,,,52,0
45720,note_on,24,0,2,,,,,,,,,,,,,,,1,,,50,93
45816,note_on,96,0,2,,,,,,,,,,,,,,,1,,,50,0
45840,note_on,24,0,2,,,,,,,,,,,,,,,1,,,48,93
45936,note_on,96,0,2,,,,,,,,,,,,,,,1,,,48,0
45960,note_on,24,0,2,,,,,,,,,,,,,,,1,,,47,93
45984,note_on,384,0,1,,,,,,,,,,,,,,,0,,,62,0
46056,note_on,96,0,2,,,,,,,,,,,,,,,1,,,47,0
46080,note_on,96,0,1,,,,,,,,,,,,,,,0,,,60,93
46080,note_on,24,0,2,,,,,,,,,,,,,,,1,,,45,93
46176,note_on,96,0,1,,,,,,,,,,,,,,,0,,,60,0
46176,note_on,96,0,2,,,,,,,,,,,,,,,1,,,45,0
46200,note_on,24,0,2,,,,,,,,,,,,,,,1,,,44,93
46200,note_on,24,0,1,,,,,,,,,,,,,,,0,,,59,93
46296,note_on,96,0,2,,,,,,,,,,,,,,,1,,,44,0
46296,note_on,96,0,1,,,,,,,,,,,,,,,0,,,59,0
46320,note_on,24,0,2,,,,,,,,,,,,,,,1,,,45,93
46320,note_on,24,0,1,,,,,,,,,,,,,,,0,,,60,93
46416,note_on,96,0,1,,,,,,,,,,,,,,,0,,,60,0
46440,note_on,24,0,1,,,,,,,,,,,,,,,0,,,69,93
46500,note_on,180,0,2,,,,,,,,,,,,,,,1,,,45,0
46536,note_on,96,0,1,,,,,,,,,,,,,,,0,,,69,0
46560,note_on,60,0,2,,,,,,,,,,,,,,,1,,,48,93
46560,note_on,24,0,1,,,,,,,,,,,,,,,0,,,67,93
46656,note_on,96,0,1,,,,,,,,,,,,,,,0,,,67,0
46680,note_on,24,0,1,,,,,,,,,,,,,,,0,,,64,93
46752,note_on,192,0,2,,,,,,,,,,,,,,,1,,,48,0
46776,note_on,96,0,1,,,,,,,,,,,,,,,0,,,64,0
46800,note_on,48,0,2,,,,,,,,,,,,,,,1,,,47,93
46800,note_on,24,0,1,,,,,,,,,,,,,,,0,,,65,93
46896,note_on,96,0,1,,,,,,,,,,,,,,,0,,,65,0
46920,note_on,24,0,1,,,,,,,,,,,,,,,0,,,64,93
46992,note_on,192,0,2,,,,,,,,,,,,,,,1,,,47,0
47016,note_on,96,0,1,,,,,,,,,,,,,,,0,,,64,0
47040,note_on,24,0,1,,,,,,,,,,,,,,,0,,,62,93
47040,note_on,48,0,2,,,,,,,,,,,,,,,1,,,45,93
47136,note_on,96,0,1,,,,,,,,,,,,,,,0,,,62,0
47160,note_on,24,0,1,,,,,,,,,,,,,,,0,,,60,93
47232,note_on,192,0,2,,,,,,,,,,,,,,,1,,,45,0
47256,note_on,96,0,1,,,,,,,,,,,,,,,0,,,60,0
47280,note_on,48,0,2,,,,,,,,,,,,,,,1,,,44,93
47280,note_on,24,0,1,,,,,,,,,,,,,,,0,,,59,93
47376,note_on,96,0,1,,,,,,,,,,,,,,,0,,,59,0
47400,note_on,24,0,1,,,,,,,,,,,,,,,0,,,65,93
47472,note_on,192,0,2,,,,,,,,,,,,,,,1,,,44,0
47496,note_on,96,0,1,,,,,,,,,,,,,,,0,,,65,0
47520,note_on,48,0,2,,,,,,,,,,,,,,,1,,,45,93
47520,note_on,24,0,1,,,,,,,,,,,,,,,0,,,64,93
47616,note_on,96,0,1,,,,,,,,,,,,,,,0,,,64,0
47640,note_on,24,0,1,,,,,,,,,,,,,,,0,,,60,93
47712,note_on,192,0,2,,,,,,,,,,,,,,,1,,,45,0
47736,note_on,96,0,1,,,,,,,,,,,,,,,0,,,60,0
47760,note_on,48,0,2,,,,,,,,,,,,,,,1,,,41,93
47760,note_on,24,0,1,,,,,,,,,,,,,,,0,,,62,93
47856,note_on,96,0,1,,,,,,,,,,,,,,,0,,,62,0
47880,note_on,24,0,1,,,,,,,,,,,,,,,0,,,60,93
47952,note_on,192,0,2,,,,,,,,,,,,,,,1,,,41,0
47976,note_on,96,0,1,,,,,,,,,,,,,,,0,,,60,0
48000,note_on,48,0,2,,,,,,,,,,,,,,,1,,,38,93
48000,note_on,24,0,1,,,,,,,,,,,,,,,0,,,59,93
48096,note_on,96,0,1,,,,,,,,,,,,,,,0,,,59,0
48120,note_on,24,0,1,,,,,,,,,,,,,,,0,,,57,93
48192,note_on,192,0,2,,,,,,,,,,,,,,,1,,,38,0
48216,note_on,96,0,1,,,,,,,,,,,,,,,0,,,57,0
48240,note_on,48,0,2,,,,,,,,,,,,,,,1,,,40,93
48240,note_on,24,0,1,,,,,,,,,,,,,,,0,,,56,93
48336,note_on,96,0,1,,,,,,,,,,,,,,,0,,,56,0
48360,note_on,24,0,1,,,,,,,,,,,,,,,0,,,62,93
48420,note_on,180,0,2,,,,,,,,,,,,,,,1,,,40,0
48456,note_on,96,0,1,,,,,,,,,,,,,,,0,,,62,0
48480,note_on,60,0,2,,,,,,,,,,,,,,,1,,,45,93
48480,note_on,24,0,1,,,,,,,,,,,,,,,0,,,60,93
48576,note_on,96,0,1,,,,,,,,,,,,,,,0,,,60,0
48600,note_on,24,0,1,,,,,,,,,,,,,,,0,,,57,93
48660,note_on,180,0,2,,,,,,,,,,,,,,,1,,,45,0
48696,note_on,96,0,1,,,,,,,,,,,,,,,0,,,57,0
48720,note_on,60,0,2,,,,,,,,,,,,,,,1,,,52,93
48720,note_on,24,0,1,,,,,,,,,,,,,,,0,,,60,93
48816,note_on,96,0,1,,,,,,,,,,,,,,,0,,,60,0
48840,note_on,24,0,1,,,,,,,,,,,,,,,0,,,59,93
48900,note_on,180,0,2,,,,,,,,,,,,,,,1,,,52,0
48936,note_on,96,0,1,,,,,,,,,,,,,,,0,,,59,0
48960,note_on,24,0,1,,,,,,,,,,,,,,,0,,,57,93
48960,note_on,60,0,2,,,,,,,,,,,,,,,1,,,40,93
49056,note_on,96,0,1,,,,,,,,,,,,,,,0,,,57,0
49080,note_on,24,0,1,,,,,,,,,,,,,,,0,,,56,93
49140,note_on,180,0,2,,,,,,,,,,,,,,,1,,,40,0
49176,note_on,96,0,1,,,,,,,,,,,,,,,0,,,56,0
49200,note_on,24,0,1,,,,,,,,,,,,,,,0,,,57,93
49200,note_on,60,0,2,,,,,,,,,,,,,,,1,,,45,93
49200,time_signature,18240,1,0,,,,,,,3,4,24,8,,,,,,,,,
49440,note_on,240,0,2,,,,,,,,,,,,,,,1,,,40,93
49620,note_on,180,0,2,,,,,,,,,,,,,,,1,,,40,0
49680,note_on,60,0,2,,,,,,,,,,,,,,,1,,,33,93
49776,note_on,576,0,1,,,,,,,,,,,,,,,0,,,57,0
49776,note_on,96,0,2,,,,,,,,,,,,,,,1,,,45,0
49872,note_on,96,0,2,,,,,,,,,,,,,,,1,,,33,0
49920,note_on,48,0,2,,,,,,,,,,,,,,,1,,,52,93
49920,time_signature,720,1,0,,,,,,,1,4,24,8,,,,,,,,,
49920,note_on,144,0,1,,,,,,,,,,,,,,,0,,,64,93
50016,note_on,96,0,1,,,,,,,,,,,,,,,0,,,64,0
50016,note_on,96,0,2,,,,,,,,,,,,,,,1,,,52,0
50040,note_on,24,0,2,,,,,,,,,,,,,,,1,,,53,93
50040,note_on,24,0,1,,,,,,,,,,,,,,,0,,,62,93
50136,note_on,96,0,2,,,,,,,,,,,,,,,1,,,53,0
50136,note_on,96,0,1,,,,,,,,,,,,,,,0,,,62,0
50160,note_on,24,0,2,,,,,,,,,,,,,,,1,,,55,93
50160,note_on,24,0,1,,,,,,,,,,,,,,,0,,,61,93
50160,time_signature,240,1,0,,,,,,,4,4,24,8,,,,,,,,,
50256,note_on,96,0,2,,,,,,,,,,,,,,,1,,,55,0
50280,note_on,24,0,2,,,,,,,,,,,,,,,1,,,53,93
50352,note_on,192,0,1,,,,,,,,,,,,,,,0,,,61,0
50376,note_on,96,0,2,,,,,,,,,,,,,,,1,,,53,0
50400,note_on,24,0,2,,,,,,,,,,,,,,,1,,,52,93
50400,note_on,48,0,1,,,,,,,,,,,,,,,0,,,59,93
50496,note_on,96,0,2,,,,,,,,,,,,,,,1,,,52,0
50520,note_on,24,0,2,,,,,,,,,,,,,,,1,,,53,93
50592,note_on,192,0,1,,,,,,,,,,,,,,,0,,,59,0
50616,note_on,96,0,2,,,,,,,,,,,,,,,1,,,53,0
50640,note_on,48,0,1,,,,,,,,,,,,,,,0,,,61,93
50640,note_on,24,0,2,,,,,,,,,,,,,,,1,,,55,93
50736,note_on,96,0,2,,,,,,,,,,,,,,,1,,,55,0
50760,note_on,24,0,2,,,,,,,,,,,,,,,1,,,53,93
50832,note_on,192,0,1,,,,,,,,,,,,,,,0,,,61,0
50856,note_on,96,0,2,,,,,,,,,,,,,,,1,,,53,0
50880,note_on,48,0,1,,,,,,,,,,,,,,,0,,,62,93
50880,note_on,24,0,2,,,,,,,,,,,,,,,1,,,52,93
50976,note_on,96,0,2,,,,,,,,,,,,,,,1,,,52,0
51000,note_on,24,0,2,,,,,,,,,,,,,,,1,,,53,93
51072,note_on,192,0,1,,,,,,,,,,,,,,,0,,,62,0
51096,note_on,96,0,2,,,,,,,,,,,,,,,1,,,53,0
51120,note_on,48,0,1,,,,,,,,,,,,,,,0,,,64,93
51120,note_on,24,0,2,,,,,,,,,,,,,,,1,,,55,93
51216,note_on,96,0,1,,,,,,,,,,,,,,,0,,,64,0
51216,note_on,96,0,2,,,,,,,,,,,,,,,1,,,55,0
51240,note_on,24,0,1,,,,,,,,,,,,,,,0,,,67,93
51240,note_on,24,0,2,,,,,,,,,,,,,,,1,,,53,93
51336,note_on,96,0,1,,,,,,,,,,,,,,,0,,,67,0
51336,note_on,96,0,2,,,,,,,,,,,,,,,1,,,53,0
51360,note_on,24,0,2,,,,,,,,,,,,,,,1,,,52,93
51360,note_on,24,0,1,,,,,,,,,,,,,,,0,,,70,93
51456,note_on,96,0,2,,,,,,,,,,,,,,,1,,,52,0
51480,note_on,24,0,2,,,,,,,,,,,,,,,1,,,53,93
51576,note_on,96,0,2,,,,,,,,,,,,,,,1,,,53,0
51600,note_on,24,0,2,,,,,,,,,,,,,,,1,,,55,93
51744,note_on,384,0,1,,,,,,,,,,,,,,,0,,,70,0
51780,note_on,180,0,2,,,,,,,,,,,,,,,1,,,55,0
51840,note_on,60,0,2,,,,,,,,,,,,,,,1,,,49,93
51840,note_on,96,0,1,,,,,,,,,,,,,,,0,,,69,93
51936,note_on,96,0,1,,,,,,,,,,,,,,,0,,,69,0
51960,note_on,24,0,1,,,,,,,,,,,,,,,0,,,67,93
52032,note_on,192,0,2,,,,,,,,,,,,,,,1,,,49,0
52056,note_on,96,0,1,,,,,,,,,,,,,,,0,,,67,0
52080,note_on,48,0,2,,,,,,,,,,,,,,,1,,,50,93
52080,note_on,24,0,1,,,,,,,,,,,,,,,0,,,65,93
52176,note_on,96,0,1,,,,,,,,,,,,,,,0,,,65,0
52200,note_on,24,0,1,,,,,,,,,,,,,,,0,,,64,93
52272,note_on,192,0,2,,,,,,,,,,,,,,,1,,,50,0
52296,note_on,96,0,1,,,,,,,,,,,,,,,0,,,64,0
52320,note_on,24,0,1,,,,,,,,,,,,,,,0,,,65,93
52320,note_on,48,0,2,,,,,,,,,,,,,,,1,,,46,93
52416,note_on,96,0,1,,,,,,,,,,,,,,,0,,,65,0
52440,note_on,24,0,1,,,,,,,,,,,,,,,0,,,74,93
52512,note_on,192,0,2,,,,,,,,,,,,,,,1,,,46,0
52536,note_on,96,0,1,,,,,,,,,,,,,,,0,,,74,0
52560,note_on,24,0,1,,,,,,,,,,,,,,,0,,,73,93
52560,note_on,48,0,2,,,,,,,,,,,,,,,1,,,43,93
52656,note_on,96,0,1,,,,,,,,,,,,,,,0,,,73,0
52680,note_on,24,0,1,,,,,,,,,,,,,,,0,,,71,93
52752,note_on,192,0,2,,,,,,,,,,,,,,,1,,,43,0
52776,note_on,96,0,1,,,,,,,,,,,,,,,0,,,71,0
52800,note_on,48,0,2,,,,,,,,,,,,,,,1,,,45,93
52800,note_on,24,0,1,,,,,,,,,,,,,,,0,,,69,93
52896,note_on,96,0,1,,,,,,,,,,,,,,,0,,,69,0
52920,note_on,24,0,1,,,,,,,,,,,,,,,0,,,67,93
52992,note_on,192,0,2,,,,,,,,,,,,,,,1,,,45,0
53016,note_on,96,0,1,,,,,,,,,,,,,,,0,,,67,0
53040,note_on,48,0,2,,,,,,,,,,,,,,,1,,,38,93
53040,note_on,24,0,1,,,,,,,,,,,,,,,0,,,65,93
53136,note_on,96,0,1,,,,,,,,,,,,,,,0,,,65,0
53160,note_on,24,0,1,,,,,,,,,,,,,,,0,,,67,93
53256,note_on,96,0,1,,,,,,,,,,,,,,,0,,,67,0
53280,note_on,24,0,1,,,,,,,,,,,,,,,0,,,69,93
53376,note_on,96,0,1,,,,,,,,,,,,,,,0,,,69,0
53400,note_on,24,0,1,,,,,,,,,,,,,,,0,,,67,93
53496,note_on,96,0,1,,,,,,,,,,,,,,,0,,,67,0
53520,note_on,24,0,1,,,,,,,,,,,,,,,0,,,65,93
53616,note_on,576,0,2,,,,,,,,,,,,,,,1,,,38,0
53616,note_on,96,0,1,,,,,,,,,,,,,,,0,,,65,0
53640,note_on,24,0,1,,,,,,,,,,,,,,,0,,,64,93
53736,note_on,96,0,1,,,,,,,,,,,,,,,0,,,64,0
53760,note_on,144,0,2,,,,,,,,,,,,,,,1,,,50,93
53760,note_on,24,0,1,,,,,,,,,,,,,,,0,,,62,93
53856,note_on,96,0,2,,,,,,,,,,,,,,,1,,,50,0
53856,note_on,96,0,1,,,,,,,,,,,,,,,0,,,62,0
53880,note_on,24,0,1,,,,,,,,,,,,,,,0,,,60,93
53880,note_on,24,0,2,,,,,,,,,,,,,,,1,,,52,93
53976,note_on,96,0,2,,,,,,,,,,,,,,,1,,,52,0
53976,note_on,96,0,1,,,,,,,,,,,,,,,0,,,60,0
54000,note_on,24,0,2,,,,,,,,,,,,,,,1,,,53,93
54000,note_on,24,0,1,,,,,,,,,,,,,,,0,,,59,93
54096,note_on,96,0,2,,,,,,,,,,,,,,,1,,,53,0
54120,note_on,24,0,2,,,,,,,,,,,,,,,1,,,52,93
54192,note_on,192,0,1,,,,,,,,,,,,,,,0,,,59,0
54216,note_on,96,0,2,,,,,,,,,,,,,,,1,,,52,0
54240,note_on,48,0,1,,,,,,,,,,,,,,,0,,,59,93
54240,note_on,24,0,2,,,,,,,,,,,,,,,1,,,50,93
54336,note_on,96,0,2,,,,,,,,,,,,,,,1,,,50,0
54336,note_on,96,0,1,,,,,,,,,,,,,,,0,,,59,0
54360,note_on,24,0,1,,,,,,,,,,,,,,,0,,,57,93
54360,note_on,24,0,2,,,,,,,,,,,,,,,1,,,52,93
54456,note_on,96,0,2,,,,,,,,,,,,,,,1,,,52,0
54456,note_on,96,0,1,,,,,,,,,,,,,,,0,,,57,0
54480,note_on,24,0,1,,,,,,,,,,,,,,,0,,,59,93
54480,note_on,24,0,2,,,,,,,,,,,,,,,1,,,53,93
54576,note_on,96,0,2,,,,,,,,,,,,,,,1,,,53,0
54600,note_on,24,0,2,,,,,,,,,,,,,,,1,,,52,93
54672,note_on,192,0,1,,,,,,,,,,,,,,,0,,,59,0
54696,note_on,96,0,2,,,,,,,,,,,,,,,1,,,52,0
54720,note_on,48,0,1,,,,,,,,,,,,,,,0,,,59,93
54720,note_on,24,0,2,,,,,,,,,,,,,,,1,,,50,93
54816,note_on,96,0,2,,,,,,,,,,,,,,,1,,,50,0
54816,note_on,96,0,1,,,,,,,,,,,,,,,0,,,59,0
54840,note_on,24,0,2,,,,,,,,,,,,,,,1,,,52,93
54840,note_on,24,0,1,,,,,,,,,,,,,,,0,,,60,93
54936,note_on,96,0,2,,,,,,,,,,,,,,,1,,,52,0
54936,note_on,96,0,1,,,,,,,,,,,,,,,0,,,60,0
54960,note_on,24,0,2,,,,,,,,,,,,,,,1,,,53,93
54960,note_on,24,0,1,,,,,,,,,,,,,,,0,,,62,93
55056,note_on,96,0,2,,,,,,,,,,,,,,,1,,,53,0
55056,note_on,96,0,1,,,,,,,,,,,,,,,0,,,62,0
55080,note_on,24,0,1,,,,,,,,,,,,,,,0,,,65,93
55080,note_on,24,0,2,,,,,,,,,,,,,,,1,,,52,93
55176,note_on,96,0,1,,,,,,,,,,,,,,,0,,,65,0
55176,note_on,96,0,2,,,,,,,,,,,,,,,1,,,52,0
55200,note_on,24,0,1,,,,,,,,,,,,,,,0,,,69,93
55200,note_on,24,0,2,,,,,,,,,,,,,,,1,,,50,93
55296,note_on,96,0,2,,,,,,,,,,,,,,,1,,,50,0
55320,note_on,24,0,2,,,,,,,,,,,,,,,1,,,52,93
55416,note_on,96,0,2,,,,,,,,,,,,,,,1,,,52,0
55440,note_on,24,0,2,,,,,,,,,,,,,,,1,,,53,93
55536,note_on,96,0,2,,,,,,,,,,,,,,,1,,,53,0
55560,note_on,24,0,2,,,,,,,,,,,,,,,1,,,55,93
55584,note_on,384,0,1,,,,,,,,,,,,,,,0,,,69,0
55656,note_on,96,0,2,,,,,,,,,,,,,,,1,,,55,0
55680,note_on,24,0,2,,,,,,,,,,,,,,,1,,,57,93
55680,note_on,96,0,1,,,,,,,,,,,,,,,0,,,67,93
55776,note_on,96,0,2,,,,,,,,,,,,,,,1,,,57,0
55776,note_on,96,0,1,,,,,,,,,,,,,,,0,,,67,0
55800,note_on,24,0,2,,,,,,,,,,,,,,,1,,,59,93
55800,note_on,24,0,1,,,,,,,,,,,,,,,0,,,65,93
55896,note_on,96,0,2,,,,,,,,,,,,,,,1,,,59,0
55896,note_on,96,0,1,,,,,,,,,,,,,,,0,,,65,0
55920,note_on,24,0,2,,,,,,,,,,,,,,,1,,,60,93
55920,note_on,24,0,1,,,,,,,,,,,,,,,0,,,64,93
56016,note_on,96,0,1,,,,,,,,,,,,,,,0,,,64,0
56040,note_on,24,0,1,,,,,,,,,,,,,,,0,,,62,93
56100,note_on,180,0,2,,,,,,,,,,,,,,,1,,,60,0
56136,note_on,96,0,1,,,,,,,,,,,,,,,0,,,62,0
56160,note_on,60,0,2,,,,,,,,,,,,,,,1,,,57,93
56160,note_on,24,0,1,,,,,,,,,,,,,,,0,,,64,93
56256,note_on,96,0,1,,,,,,,,,,,,,,,0,,,64,0
56280,note_on,24,0,1,,,,,,,,,,,,,,,0,,,72,93
56352,note_on,192,0,2,,,,,,,,,,,,,,,1,,,57,0
56376,note_on,96,0,1,,,,,,,,,,,,,,,0,,,72,0
56400,note_on,24,0,1,,,,,,,,,,,,,,,0,,,71,93
56400,note_on,48,0,2,,,,,,,,,,,,,,,1,,,53,93
56496,note_on,96,0,1,,,,,,,,,,,,,,,0,,,71,0
56520,note_on,24,0,1,,,,,,,,,,,,,,,0,,,69,93
56592,note_on,192,0,2,,,,,,,,,,,,,,,1,,,53,0
56616,note_on,96,0,1,,,,,,,,,,,,,,,0,,,69,0
56640,note_on,24,0,1,,,,,,,,,,,,,,,0,,,67,93
56640,note_on,48,0,2,,,,,,,,,,,,,,,1,,,55,93
56736,note_on,96,0,1,,,,,,,,,,,,,,,0,,,67,0
56760,note_on,24,0,1,,,,,,,,,,,,,,,0,,,65,93
56832,note_on,192,0,2,,,,,,,,,,,,,,,1,,,55,0
56856,note_on,96,0,1,,,,,,,,,,,,,,,0,,,65,0
56880,note_on,24,0,1,,,,,,,,,,,,,,,0,,,64,93
56880,note_on,48,0,2,,,,,,,,,,,,,,,1,,,48,93
56976,note_on,96,0,1,,,,,,,,,,,,,,,0,,,64,0
57000,note_on,24,0,1,,,,,,,,,,,,,,,0,,,65,93
57096,note_on,96,0,1,,,,,,,,,,,,,,,0,,,65,0
57120,note_on,24,0,1,,,,,,,,,,,,,,,0,,,67,93
57216,note_on,96,0,1,,,,,,,,,,,,,,,0,,,67,0
57240,note_on,24,0,1,,,,,,,,,,,,,,,0,,,65,93
57336,note_on,96,0,1,,,,,,,,,,,,,,,0,,,65,0
57360,note_on,24,0,1,,,,,,,,,,,,,,,0,,,64,93
57456,note_on,96,0,1,,,,,,,,,,,,,,,0,,,64,0
57456,note_on,576,0,2,,,,,,,,,,,,,,,1,,,48,0
57480,note_on,24,0,1,,,,,,,,,,,,,,,0,,,62,93
57480,note_on,24,0,2,,,,,,,,,,,,,,,1,,,53,93
57576,note_on,96,0,2,,,,,,,,,,,,,,,1,,,53,0
57576,note_on,96,0,1,,,,,,,,,,,,,,,0,,,62,0
57600,note_on,24,0,1,,,,,,,,,,,,,,,0,,,60,93
57600,note_on,24,0,2,,,,,,,,,,,,,,,1,,,52,93
57696,note_on,96,0,2,,,,,,,,,,,,,,,1,,,52,0
57696,note_on,96,0,1,,,,,,,,,,,,,,,0,,,60,0
57720,note_on,24,0,2,,,,,,,,,,,,,,,1,,,50,93
57720,note_on,24,0,1,,,,,,,,,,,,,,,0,,,59,93
57816,note_on,96,0,1,,,,,,,,,,,,,,,0,,,59,0
57816,note_on,96,0,2,,,,,,,,,,,,,,,1,,,50,0
57840,note_on,24,0,1,,,,,,,,,,,,,,,0,,,57,93
57840,note_on,24,0,2,,,,,,,,,,,,,,,1,,,48,93
57930,note_on,90,0,1,,,,,,,,,,,,,,,0,,,57,0
57936,note_on,96,0,2,,,,,,,,,,,,,,,1,,,48,0
57960,note_on,24,0,2,,,,,,,,,,,,,,,1,,,47,93
57960,note_on,30,0,1,,,,,,,,,,,,,,,0,,,67,93
58056,note_on,96,0,2,,,,,,,,,,,,,,,1,,,47,0
58056,note_on,96,0,1,,,,,,,,,,,,,,,0,,,67,0
58080,note_on,24,0,1,,,,,,,,,,,,,,,0,,,65,93
58080,note_on,24,0,2,,,,,,,,,,,,,,,1,,,48,93
58176,note_on,96,0,1,,,,,,,,,,,,,,,0,,,65,0
58200,note_on,24,0,1,,,,,,,,,,,,,,,0,,,64,93
58296,note_on,96,0,1,,,,,,,,,,,,,,,0,,,64,0
58320,note_on,24,0,1,,,,,,,,,,,,,,,0,,,65,93
58416,note_on,336,0,2,,,,,,,,,,,,,,,1,,,48,0
58440,note_on,24,0,2,,,,,,,,,,,,,,,1,,,52,93
58500,note_on,180,0,1,,,,,,,,,,,,,,,0,,,65,0
58536,note_on,96,0,2,,,,,,,,,,,,,,,1,,,52,0
58560,note_on,24,0,2,,,,,,,,,,,,,,,1,,,50,93
58560,note_on,60,0,1,,,,,,,,,,,,,,,0,,,57,93
58656,note_on,96,0,2,,,,,,,,,,,,,,,1,,,50,0
58680,note_on,24,0,2,,,,,,,,,,,,,,,1,,,48,93
58740,note_on,180,0,1,,,,,,,,,,,,,,,0,,,57,0
58776,note_on,96,0,2,,,,,,,,,,,,,,,1,,,48,0
58800,note_on,24,0,2,,,,,,,,,,,,,,,1,,,56,93
58800,note_on,0,0,2,,,,,,,,,,,,,,,1,,,47,93
58896,note_on,96,0,2,,,,,,,,,,,,,,,1,,,47,0
58896,note_on,0,0,2,,,,,,,,,,,,,,,1,,,56,0
58920,note_on,24,0,2,,,,,,,,,,,,,,,1,,,45,93
58920,note_on,0,0,2,,,,,,,,,,,,,,,1,,,54,93
59016,note_on,96,0,2,,,,,,,,,,,,,,,1,,,54,0
59016,note_on,0,0,2,,,,,,,,,,,,,,,1,,,45,0
59040,note_on,24,0,2,,,,,,,,,,,,,,,1,,,56,93
59040,note_on,0,0,2,,,,,,,,,,,,,,,1,,,47,93
59136,note_on,96,0,2,,,,,,,,,,,,,,,1,,,56,0
59160,note_on,24,0,2,,,,,,,,,,,,,,,1,,,65,93
59256,note_on,96,0,2,,,,,,,,,,,,,,,1,,,65,0
59280,note_on,24,0,2,,,,,,,,,,,,,,,1,,,64,93
59376,note_on,96,0,2,,,,,,,,,,,,,,,1,,,47,0
59400,note_on,24,0,2,,,,,,,,,,,,,,,1,,,50,93
59460,note_on,60,0,2,,,,,,,,,,,,,,,1,,,64,0
59496,note_on,36,0,2,,,,,,,,,,,,,,,1,,,50,0
59520,note_on,24,0,2,,,,,,,,,,,,,,,1,,,48,93
59520,note_on,0,0,2,,,,,,,,,,,,,,,1,,,55,93
59616,note_on,96,0,2,,,,,,,,,,,,,,,1,,,48,0
59640,note_on,24,0,2,,,,,,,,,,,,,,,1,,,47,93
59700,note_on,60,0,2,,,,,,,,,,,,,,,1,,,55,0
59736,note_on,36,0,2,,,,,,,,,,,,,,,1,,,47,0
59760,note_on,24,0,2,,,,,,,,,,,,,,,1,,,54,93
59760,note_on,0,0,2,,,,,,,,,,,,,,,1,,,45,93
59856,note_on,0,0,2,,,,,,,,,,,,,,,1,,,54,0
59856,note_on,96,0,2,,,,,,,,,,,,,,,1,,,45,0
59880,note_on,24,0,2,,,,,,,,,,,,,,,1,,,52,93
59880,note_on,0,0,2,,,,,,,,,,,,,,,1,,,44,93
59976,note_on,96,0,2,,,,,,,,,,,,,,,1,,,44,0
59976,note_on,0,0,2,,,,,,,,,,,,,,,1,,,52,0
60000,note_on,24,0,2,,,,,,,,,,,,,,,1,,,53,93
60000,note_on,0,0,2,,,,,,,,,,,,,,,1,,,45,93
60096,note_on,96,0,2,,,,,,,,,,,,,,,1,,,53,0
60120,note_on,24,0,2,,,,,,,,,,,,,,,1,,,64,93
60216,note_on,96,0,2,,,,,,,,,,,,,,,1,,,64,0
60240,note_on,24,0,2,,,,,,,,,,,,,,,1,,,62,93
60336,note_on,96,0,2,,,,,,,,,,,,,,,1,,,62,0
60336,note_on,0,0,2,,,,,,,,,,,,,,,1,,,45,0
60360,note_on,0,0,2,,,,,,,,,,,,,,,1,,,60,93
60360,note_on,24,0,2,,,,,,,,,,,,,,,1,,,47,93
60456,note_on,96,0,2,,,,,,,,,,,,,,,1,,,60,0
60456,note_on,0,0,2,,,,,,,,,,,,,,,1,,,47,0
60480,note_on,24,0,2,,,,,,,,,,,,,,,1,,,48,93
60480,note_on,0,0,2,,,,,,,,,,,,,,,1,,,59,93
60576,note_on,96,0,2,,,,,,,,,,,,,,,1,,,59,0
60576,note_on,0,0,2,,,,,,,,,,,,,,,1,,,48,0
60600,note_on,24,0,2,,,,,,,,,,,,,,,1,,,50,93
60600,note_on,0,0,2,,,,,,,,,,,,,,,1,,,57,93
60696,note_on,96,0,2,,,,,,,,,,,,,,,1,,,57,0
60696,note_on,0,0,2,,,,,,,,,,,,,,,1,,,50,0
60720,note_on,24,0,2,,,,,,,,,,,,,,,1,,,52,93
60720,note_on,1980,0,1,,,,,,,,,,,,,,,0,,,69,93
60816,note_on,96,0,1,,,,,,,,,,,,,,,0,,,69,0
60816,note_on,96,0,2,,,,,,,,,,,,,,,1,,,52,0
60840,note_on,24,0,1,,,,,,,,,,,,,,,0,,,68,93
60840,note_on,24,0,2,,,,,,,,,,,,,,,1,,,51,93
60936,note_on,96,0,2,,,,,,,,,,,,,,,1,,,51,0
60936,note_on,96,0,1,,,,,,,,,,,,,,,0,,,68,0
60960,note_on,24,0,2,,,,,,,,,,,,,,,1,,,52,93
60960,note_on,24,0,1,,,,,,,,,,,,,,,0,,,66,93
61056,note_on,96,0,1,,,,,,,,,,,,,,,0,,,66,0
61080,note_on,24,0,1,,,,,,,,,,,,,,,0,,,64,93
61176,note_on,96,0,1,,,,,,,,,,,,,,,0,,,64,0
61200,note_on,24,0,1,,,,,,,,,,,,,,,0,,,71,93
61296,note_on,336,0,2,,,,,,,,,,,,,,,1,,,52,0
61320,note_on,24,0,2,,,,,,,,,,,,,,,1,,,50,93
61380,note_on,180,0,1,,,,,,,,,,,,,,,0,,,71,0
61416,note_on,96,0,2,,,,,,,,,,,,,,,1,,,50,0
61440,note_on,60,0,1,,,,,,,,,,,,,,,0,,,64,93
61440,note_on,24,0,2,,,,,,,,,,,,,,,1,,,48,93
61536,note_on,96,0,1,,,,,,,,,,,,,,,0,,,64,0
61536,note_on,96,0,2,,,,,,,,,,,,,,,1,,,48,0
61560,note_on,24,0,1,,,,,,,,,,,,,,,0,,,62,93
61560,note_on,24,0,2,,,,,,,,,,,,,,,1,,,47,93
61656,note_on,96,0,1,,,,,,,,,,,,,,,0,,,62,0
61656,note_on,96,0,2,,,,,,,,,,,,,,,1,,,47,0
61680,note_on,24,0,1,,,,,,,,,,,,,,,0,,,64,93
61680,note_on,24,0,2,,,,,,,,,,,,,,,1,,,45,93
61776,note_on,96,0,2,,,,,,,,,,,,,,,1,,,45,0
61800,note_on,24,0,2,,,,,,,,,,,,,,,1,,,44,93
61872,note_on,192,0,1,,,,,,,,,,,,,,,0,,,64,0
61896,note_on,96,0,2,,,,,,,,,,,,,,,1,,,44,0
61920,note_on,24,0,2,,,,,,,,,,,,,,,1,,,42,93
61920,note_on,48,0,1,,,,,,,,,,,,,,,0,,,74,93
62016,note_on,96,0,2,,,,,,,,,,,,,,,1,,,42,0
62040,note_on,24,0,2,,,,,,,,,,,,,,,1,,,44,93
62112,note_on,192,0,1,,,,,,,,,,,,,,,0,,,74,0
62136,note_on,96,0,2,,,,,,,,,,,,,,,1,,,44,0
62160,note_on,24,0,2,,,,,,,,,,,,,,,1,,,45,93
62160,note_on,48,0,1,,,,,,,,,,,,,,,0,,,72,93
62256,note_on,96,0,2,,,,,,,,,,,,,,,1,,,45,0
62280,note_on,24,0,2,,,,,,,,,,,,,,,1,,,44,93
62352,note_on,192,0,1,,,,,,,,,,,,,,,0,,,72,0
62376,note_on,96,0,2,,,,,,,,,,,,,,,1,,,44,0
62400,note_on,24,0,2,,,,,,,,,,,,,,,1,,,42,93
62400,note_on,48,0,1,,,,,,,,,,,,,,,0,,,71,93
62496,note_on,96,0,2,,,,,,,,,,,,,,,1,,,42,0
62520,note_on,24,0,2,,,,,,,,,,,,,,,1,,,44,93
62592,note_on,192,0,1,,,,,,,,,,,,,,,0,,,71,0
62616,note_on,96,0,2,,,,,,,,,,,,,,,1,,,44,0
62640,note_on,24,0,2,,,,,,,,,,,,,,,1,,,45,93
62640,note_on,48,0,1,,,,,,,,,,,,,,,0,,,72,93
62736,note_on,96,0,2,,,,,,,,,,,,,,,1,,,45,0
62760,note_on,24,0,2,,,,,,,,,,,,,,,1,,,47,93
62820,note_on,180,0,1,,,,,,,,,,,,,,,0,,,72,0
62856,note_on,96,0,2,,,,,,,,,,,,,,,1,,,47,0
62880,note_on,24,0,2,,,,,,,,,,,,,,,1,,,48,93
62880,note_on,60,0,1,,,,,,,,,,,,,,,0,,,64,113
62976,note_on,96,0,2,,,,,,,,,,,,,,,1,,,48,0
63000,note_on,24,0,2,,,,,,,,,,,,,,,1,,,50,93
63096,note_on,96,0,2,,,,,,,,,,,,,,,1,,,50,0
63120,note_on,24,0,2,,,,,,,,,,,,,,,1,,,52,93
63216,note_on,96,0,2,,,,,,,,,,,,,,,1,,,52,0
63240,note_on,24,0,2,,,,,,,,,,,,,,,1,,,54,93
63264,note_on,384,0,1,,,,,,,,,,,,,,,0,,,64,0
63336,note_on,96,0,2,,,,,,,,,,,,,,,1,,,54,0
63360,note_on,96,0,1,,,,,,,,,,,,,,,0,,,62,93
63360,note_on,24,0,2,,,,,,,,,,,,,,,1,,,56,93
63456,note_on,96,0,2,,,,,,,,,,,,,,,1,,,56,0
63456,note_on,96,0,1,,,,,,,,,,,,,,,0,,,62,0
63480,note_on,24,0,1,,,,,,,,,,,,,,,0,,,60,93
63480,note_on,24,0,2,,,,,,,,,,,,,,,1,,,57,93
63576,note_on,96,0,2,,,,,,,,,,,,,,,1,,,57,0
63576,note_on,96,0,1,,,,,,,,,,,,,,,0,,,60,0
63600,note_on,24,0,1,,,,,,,,,,,,,,,0,,,62,93
63600,note_on,24,0,2,,,,,,,,,,,,,,,1,,,56,93
63696,note_on,96,0,2,,,,,,,,,,,,,,,1,,,56,0
63720,note_on,24,0,2,,,,,,,,,,,,,,,1,,,57,93
63792,note_on,192,0,1,,,,,,,,,,,,,,,0,,,62,0
63816,note_on,96,0,2,,,,,,,,,,,,,,,1,,,57,0
63840,note_on,48,0,1,,,,,,,,,,,,,,,0,,,72,93
63840,note_on,24,0,2,,,,,,,,,,,,,,,1,,,59,93
63936,note_on,96,0,2,,,,,,,,,,,,,,,1,,,59,0
63960,note_on,24,0,2,,,,,,,,,,,,,,,1,,,57,93
64032,note_on,192,0,1,,,,,,,,,,,,,,,0,,,72,0
64056,note_on,96,0,2,,,,,,,,,,,,,,,1,,,57,0
64080,note_on,24,0,2,,,,,,,,,,,,,,,1,,,56,93
64080,note_on,48,0,1,,,,,,,,,,,,,,,0,,,71,93
64176,note_on,96,0,1,,,,,,,,,,,,,,,0,,,71,0
64176,note_on,96,0,2,,,,,,,,,,,,,,,1,,,56,0
64200,note_on,24,0,1,,,,,,,,,,,,,,,0,,,69,93
64200,note_on,24,0,2,,,,,,,,,,,,,,,1,,,57,93
64296,note_on,96,0,2,,,,,,,,,,,,,,,1,,,57,0
64296,note_on,96,0,1,,,,,,,,,,,,,,,0,,,69,0
64320,note_on,24,0,1,,,,,,,,,,,,,,,0,,,68,93
64320,note_on,24,0,2,,,,,,,,,,,,,,,1,,,59,93
64416,note_on,96,0,1,,,,,,,,,,,,,,,0,,,68,0
64416,note_on,96,0,2,,,,,,,,,,,,,,,1,,,59,0
64440,note_on,24,0,2,,,,,,,,,,,,,,,1,,,57,93
64440,note_on,24,0,1,,,,,,,,,,,,,,,0,,,69,93
64536,note_on,96,0,1,,,,,,,,,,,,,,,0,,,69,0
64536,note_on,96,0,2,,,,,,,,,,,,,,,1,,,57,0
64560,note_on,24,0,2,,,,,,,,,,,,,,,1,,,56,93
64560,note_on,24,0,1,,,,,,,,,,,,,,,0,,,71,93
64656,note_on,96,0,2,,,,,,,,,,,,,,,1,,,56,0
64680,note_on,24,0,2,,,,,,,,,,,,,,,1,,,54,93
64740,note_on,180,0,1,,,,,,,,,,,,,,,0,,,71,0
64776,note_on,96,0,2,,,,,,,,,,,,,,,1,,,54,0
64800,note_on,24,0,2,,,,,,,,,,,,,,,1,,,52,93
64800,note_on,60,0,1,,,,,,,,,,,,,,,0,,,62,113
64896,note_on,96,0,2,,,,,,,,,,,,,,,1,,,52,0
64920,note_on,24,0,2,,,,,,,,,,,,,,,1,,,50,93
65016,note_on,96,0,2,,,,,,,,,,,,,,,1,,,50,0
65040,note_on,24,0,2,,,,,,,,,,,,,,,1,,,48,93
65136,note_on,96,0,2,,,,,,,,,,,,,,,1,,,48,0
65160,note_on,24,0,2,,,,,,,,,,,,,,,1,,,47,93
65184,note_on,384,0,1,,,,,,,,,,,,,,,0,,,62,0
65256,note_on,96,0,2,,,,,,,,,,,,,,,1,,,47,0
65280,note_on,24,0,2,,,,,,,,,,,,,,,1,,,45,93
65280,note_on,96,0,1,,,,,,,,,,,,,,,0,,,60,93
65376,note_on,96,0,2,,,,,,,,,,,,,,,1,,,45,0
65376,note_on,96,0,1,,,,,,,,,,,,,,,0,,,60,0
65400,note_on,24,0,1,,,,,,,,,,,,,,,0,,,59,93
65400,note_on,24,0,2,,,,,,,,,,,,,,,1,,,44,93
65496,note_on,96,0,1,,,,,,,,,,,,,,,0,,,59,0
65496,note_on,96,0,2,,,,,,,,,,,,,,,1,,,44,0
65520,note_on,24,0,1,,,,,,,,,,,,,,,0,,,60,93
65520,note_on,24,0,2,,,,,,,,,,,,,,,1,,,45,93
65616,note_on,96,0,1,,,,,,,,,,,,,,,0,,,60,0
65640,note_on,24,0,1,,,,,,,,,,,,,,,0,,,69,93
65700,note_on,180,0,2,,,,,,,,,,,,,,,1,,,45,0
65736,note_on,96,0,1,,,,,,,,,,,,,,,0,,,69,0
65760,note_on,24,0,1,,,,,,,,,,,,,,,0,,,67,93
65760,note_on,60,0,2,,,,,,,,,,,,,,,1,,,48,93
65856,note_on,96,0,1,,,,,,,,,,,,,,,0,,,67,0
65880,note_on,24,0,1,,,,,,,,,,,,,,,0,,,64,93
65952,note_on,192,0,2,,,,,,,,,,,,,,,1,,,48,0
65976,note_on,96,0,1,,,,,,,,,,,,,,,0,,,64,0
66000,note_on,24,0,1,,,,,,,,,,,,,,,0,,,65,93
66000,note_on,48,0,2,,,,,,,,,,,,,,,1,,,47,93
66096,note_on,96,0,1,,,,,,,,,,,,,,,0,,,65,0
66120,note_on,24,0,1,,,,,,,,,,,,,,,0,,,64,93
66192,note_on,192,0,2,,,,,,,,,,,,,,,1,,,47,0
66216,note_on,96,0,1,,,,,,,,,,,,,,,0,,,64,0
66240,note_on,48,0,2,,,,,,,,,,,,,,,1,,,45,93
66240,note_on,24,0,1,,,,,,,,,,,,,,,0,,,62,93
66336,note_on,96,0,1,,,,,,,,,,,,,,,0,,,62,0
66360,note_on,24,0,1,,,,,,,,,,,,,,,0,,,60,93
66432,note_on,192,0,2,,,,,,,,,,,,,,,1,,,45,0
66456,note_on,96,0,1,,,,,,,,,,,,,,,0,,,60,0
66480,note_on,48,0,2,,,,,,,,,,,,,,,1,,,44,93
66480,note_on,24,0,1,,,,,,,,,,,,,,,0,,,59,93
66576,note_on,96,0,1,,,,,,,,,,,,,,,0,,,59,0
66600,note_on,24,0,1,,,,,,,,,,,,,,,0,,,65,93
66672,note_on,192,0,2,,,,,,,,,,,,,,,1,,,44,0
66696,note_on,96,0,1,,,,,,,,,,,,,,,0,,,65,0
66720,note_on,48,0,2,,,,,,,,,,,,,,,1,,,45,93
66720,note_on,24,0,1,,,,,,,,,,,,,,,0,,,64,93
66816,note_on,96,0,1,,,,,,,,,,,,,,,0,,,64,0
66840,note_on,24,0,1,,,,,,,,,,,,,,,0,,,60,93
66912,note_on,192,0,2,,,,,,,,,,,,,,,1,,,45,0
66936,note_on,96,0,1,,,,,,,,,,,,,,,0,,,60,0
66960,note_on,48,0,2,,,,,,,,,,,,,,,1,,,41,93
66960,note_on,24,0,1,,,,,,,,,,,,,,,0,,,62,93
67056,note_on,96,0,1,,,,,,,,,,,,,,,0,,,62,0
67080,note_on,24,0,1,,,,,,,,,,,,,,,0,,,60,93
67152,note_on,192,0,2,,,,,,,,,,,,,,,1,,,41,0
67176,note_on,96,0,1,,,,,,,,,,,,,,,0,,,60,0
67200,note_on,24,0,1,,,,,,,,,,,,,,,0,,,59,93
67200,note_on,48,0,2,,,,,,,,,,,,,,,1,,,38,93
67296,note_on,96,0,1,,,,,,,,,,,,,,,0,,,59,0
67320,note_on,24,0,1,,,,,,,,,,,,,,,0,,,57,93
67392,note_on,192,0,2,,,,,,,,,,,,,,,1,,,38,0
67416,note_on,96,0,1,,,,,,,,,,,,,,,0,,,57,0
67440,note_on,48,0,2,,,,,,,,,,,,,,,1,,,40,93
67440,note_on,24,0,1,,,,,,,,,,,,,,,0,,,56,93
67536,note_on,96,0,1,,,,,,,,,,,,,,,0,,,56,0
67560,note_on,24,0,1,,,,,,,,,,,,,,,0,,,62,93
67620,note_on,180,0,2,,,,,,,,,,,,,,,1,,,40,0
67656,note_on,96,0,1,,,,,,,,,,,,,,,0,,,62,0
67680,note_on,24,0,1,,,,,,,,,,,,,,,0,,,60,93
67680,note_on,60,0,2,,,,,,,,,,,,,,,1,,,45,93
67776,note_on,96,0,1,,,,,,,,,,,,,,,0,,,60,0
67800,note_on,24,0,1,,,,,,,,,,,,,,,0,,,57,93
67860,note_on,180,0,2,,,,,,,,,,,,,,,1,,,45,0
67896,note_on,96,0,1,,,,,,,,,,,,,,,0,,,57,0
67920,note_on,24,0,1,,,,,,,,,,,,,,,0,,,60,93
67920,note_on,60,0,2,,,,,,,,,,,,,,,1,,,52,93
68016,note_on,96,0,1,,,,,,,,,,,,,,,0,,,60,0
68040,note_on,24,0,1,,,,,,,,,,,,,,,0,,,59,93
68100,note_on,180,0,2,,,,,,,,,,,,,,,1,,,52,0
68136,note_on,96,0,1,,,,,,,,,,,,,,,0,,,59,0
68160,note_on,24,0,1,,,,,,,,,,,,,,,0,,,57,93
68160,note_on,60,0,2,,,,,,,,,,,,,,,1,,,40,93
68256,note_on,96,0,1,,,,,,,,,,,,,,,0,,,57,0
68280,note_on,24,0,1,,,,,,,,,,,,,,,0,,,56,93
68340,note_on,180,0,2,,,,,,,,,,,,,,,1,,,40,0
68376,note_on,96,0,1,,,,,,,,,,,,,,,0,,,56,0
68400,note_on,60,0,2,,,,,,,,,,,,,,,1,,,45,93
68400,end_of_track,0,1,0,,,,,,,,,,,,,,,,,,,
68400,note_on,24,0,1,,,,,,,,,,,,,,,0,,,57,93
68400,time_signature,18240,1,0,,,,,,,3,4,24,8,,,,,,,,,
68640,note_on,240,0,2,,,,,,,,,,,,,,,1,,,40,93
68820,note_on,180,0,2,,,,,,,,,,,,,,,1,,,40,0
68880,note_on,60,0,2,,,,,,,,,,,,,,,1,,,33,93
68976,note_on,96,0,2,,,,,,,,,,,,,,,1,,,45,0
68976,note_on,576,0,1,,,,,,,,,,,,,,,0,,,57,0
68976,end_of_track,0,1,1,,,,,,,,,,,,,,,,,,,
69072,note_on,96,0,2,,,,,,,,,,,,,,,1,,,33,0
69072,end_of_track,0,1,2,,,,,,,,,,,,,,,,,,,
