tick,type,tempo,time,meta,track,numerator,denominator,clocks_per_click,notated_32nd_notes_per_beat,program,channel,note,velocity
0,set_tempo,967740,0,1,0,,,,,,,,
0,track_name,,0,1,3,,,,,,,,
0,note_on,,0,0,3,,,,,,0,45,102
0,program_change,,0,0,1,,,,,19,0,,
0,track_name,,0,1,1,,,,,,,,
0,track_name,,0,1,2,,,,,,,,
0,time_signature,,0,1,0,4,4,24,8,,,,
192,note_on,,192,0,1,,,,,,0,45,92
240,note_on,,48,0,1,,,,,,0,48,92
288,note_off,,48,0,1,,,,,,0,48,64
288,note_on,,0,0,1,,,,,,0,52,92
336,note_on,,0,0,1,,,,,,0,48,92
336,note_off,,48,0,1,,,,,,0,52,64
384,note_on,,0,0,1,,,,,,0,48,92
384,note_off,,0,0,1,,,,,,0,45,64
384,note_off,,48,0,1,,,,,,0,48,64
432,note_on,,48,0,1,,,,,,0,52,92
480,note_on,,0,0,1,,,,,,0,57,92
480,note_off,,48,0,1,,,,,,0,52,64
528,note_on,,0,0,1,,,,,,0,52,92
528,note_off,,48,0,1,,,,,,0,57,64
576,note_off,,48,0,1,,,,,,0,52,64
576,note_on,,0,0,1,,,,,,0,52,92
576,note_off,,0,0,1,,,,,,0,48,64
624,note_on,,48,0,1,,,,,,0,57,92
672,note_off,,48,0,1,,,,,,0,57,64
672,note_on,,0,0,1,,,,,,0,60,92
720,note_on,,0,0,1,,,,,,0,57,92
720,note_off,,48,0,1,,,,,,0,60,64
768,note_off,,48,0,1,,,,,,0,57,64
768,note_off,,0,0,1,,,,,,0,52,64
768,note_on,,0,0,1,,,,,,0,48,92
816,note_on,,48,0,1,,,,,,0,52,92
864,note_on,,0,0,1,,,,,,0,57,92
864,note_off,,48,0,1,,,,,,0,52,64
912,note_on,,0,0,1,,,,,,0,52,92
912,note_off,,48,0,1,,,,,,0,57,64
960,note_on,,0,0,1,,,,,,0,52,92
960,note_off,,0,0,1,,,,,,0,48,64
960,note_off,,48,0,1,,,,,,0,52,64
1008,note_on,,48,0,1,,,,,,0,57,92
1056,note_off,,48,0,1,,,,,,0,57,64
1056,note_on,,0,0,1,,,,,,0,60,92
1104,note_off,,48,0,1,,,,,,0,60,64
1104,note_on,,0,0,1,,,,,,0,57,92
1152,note_on,,0,0,1,,,,,,0,57,92
1152,note_off,,48,0,1,,,,,,0,57,64
1152,note_off,,0,0,1,,,,,,0,52,64
1200,note_on,,48,0,1,,,,,,0,60,92
1248,note_on,,0,0,1,,,,,,0,64,92
1248,note_off,,48,0,1,,,,,,0,60,64
1296,note_off,,48,0,1,,,,,,0,64,64
1296,note_on,,0,0,1,,,,,,0,60,92
1344,note_off,,48,0,1,,,,,,0,60,64
1344,note_off,,0,0,1,,,,,,0,57,64
1344,note_on,,0,0,1,,,,,,0,52,92
1392,note_on,,48,0,1,,,,,,0,57,92
1440,note_on,,0,0,1,,,,,,0,60,92
1440,note_off,,48,0,1,,,,,,0,57,64
1488,note_off,,48,0,1,,,,,,0,60,64
1488,note_on,,0,0,1,,,,,,0,57,92
1536,note_on,,0,0,1,,,,,,0,57,92
1536,note_off,,48,0,1,,,,,,0,57,64
1536,note_off,,0,0,1,,,,,,0,52,64
1584,note_on,,48,0,1,,,,,,0,60,92
1632,note_on,,0,0,1,,,,,,0,64,92
1632,note_off,,48,0,1,,,,,,0,60,64
1680,note_on,,0,0,1,,,,,,0,60,92
1680,note_off,,48,0,1,,,,,,0,64,64
1728,note_off,,48,0,1,,,,,,0,60,64
1728,note_on,,0,0,1,,,,,,0,60,92
1728,note_off,,0,0,1,,,,,,0,57,64
1776,note_on,,48,0,1,,,,,,0,64,92
1824,note_off,,48,0,1,,,,,,0,64,64
1824,note_on,,0,0,1,,,,,,0,69,92
1872,note_off,,48,0,1,,,,,,0,69,64
1872,note_on,,0,0,1,,,,,,0,64,92
1920,note_off,,48,0,1,,,,,,0,64,64
1920,note_off,,0,0,1,,,,,,0,60,64
1920,note_on,,0,0,1,,,,,,0,64,92
1968,note_on,,48,0,1,,,,,,0,69,92
2016,note_off,,48,0,1,,,,,,0,69,64
2016,note_on,,0,0,1,,,,,,0,72,92
2064,note_off,,48,0,1,,,,,,0,72,64
2064,note_on,,0,0,1,,,,,,0,69,92
2112,note_on,,0,0,1,,,,,,0,60,92
2112,note_off,,0,0,1,,,,,,0,64,64
2112,note_off,,48,0,1,,,,,,0,69,64
2160,note_on,,48,0,1,,,,,,0,64,92
2208,note_off,,48,0,1,,,,,,0,64,64
2208,note_on,,0,0,1,,,,,,0,69,92
2256,note_on,,0,0,1,,,,,,0,64,92
2256,note_off,,48,0,1,,,,,,0,69,64
2304,note_on,,0,0,1,,,,,,0,64,92
2304,note_off,,0,0,1,,,,,,0,60,64
2304,note_off,,48,0,1,,,,,,0,64,64
2352,note_on,,48,0,1,,,,,,0,69,92
2400,note_off,,48,0,1,,,,,,0,69,64
2400,note_on,,0,0,1,,,,,,0,72,92
2448,note_off,,48,0,1,,,,,,0,72,64
2448,note_on,,0,0,1,,,,,,0,69,92
2496,note_off,,48,0,1,,,,,,0,69,64
2496,note_off,,0,0,1,,,,,,0,64,64
2496,note_on,,0,0,1,,,,,,0,69,92
2544,note_on,,48,0,1,,,,,,0,72,92
2592,note_on,,0,0,1,,,,,,0,76,92
2592,note_off,,48,0,1,,,,,,0,72,64
2640,note_off,,48,0,1,,,,,,0,76,64
2640,note_on,,0,0,1,,,,,,0,72,92
2688,note_off,,0,0,1,,,,,,0,69,64
2688,note_on,,0,0,1,,,,,,0,72,92
2688,note_off,,48,0,1,,,,,,0,72,64
2736,note_off,,48,0,1,,,,,,0,72,64
2736,note_on,,0,0,1,,,,,,0,81,92
2784,note_off,,48,0,1,,,,,,0,81,64
2784,note_on,,0,0,1,,,,,,0,79,92
2832,note_on,,0,0,1,,,,,,0,77,92
2832,note_off,,48,0,1,,,,,,0,79,64
2880,note_on,,0,0,1,,,,,,0,76,92
2880,note_off,,48,0,1,,,,,,0,77,64
2928,note_on,,0,0,1,,,,,,0,74,92
2928,note_off,,48,0,1,,,,,,0,76,64
2976,note_on,,0,0,1,,,,,,0,72,92
2976,note_off,,48,0,1,,,,,,0,74,64
3024,note_off,,48,0,1,,,,,,0,72,64
3024,note_on,,0,0,1,,,,,,0,71,92
3072,note_on,,0,0,1,,,,,,0,69,92
3072,note_off,,48,0,1,,,,,,0,71,64
3120,note_on,,0,0,1,,,,,,0,76,92
3120,note_off,,48,0,1,,,,,,0,69,64
3168,note_on,,0,0,1,,,,,,0,74,92
3168,note_off,,48,0,1,,,,,,0,76,64
3216,note_on,,0,0,1,,,,,,0,72,92
3216,note_off,,48,0,1,,,,,,0,74,64
3264,note_on,,0,0,1,,,,,,0,71,92
3264,note_off,,48,0,1,,,,,,0,72,64
3312,note_off,,48,0,1,,,,,,0,71,64
3312,note_on,,0,0,1,,,,,,0,69,92
3360,note_on,,0,0,1,,,,,,0,68,92
3360,note_off,,48,0,1,,,,,,0,69,64
3408,note_on,,0,0,1,,,,,,0,66,92
3408,note_off,,48,0,1,,,,,,0,68,64
3456,note_off,,48,0,1,,,,,,0,66,64
3456,note_on,,0,0,1,,,,,,0,64,92
3504,note_on,,0,0,1,,,,,,0,69,92
3504,note_off,,48,0,1,,,,,,0,64,64
3552,note_off,,48,0,1,,,,,,0,69,64
3552,note_on,,0,0,1,,,,,,0,67,92
3600,note_on,,0,0,1,,,,,,0,65,92
3600,note_off,,48,0,1,,,,,,0,67,64
3648,note_on,,0,0,1,,,,,,0,64,92
3648,note_off,,48,0,1,,,,,,0,65,64
3696,note_on,,0,0,1,,,,,,0,62,92
3696,note_off,,48,0,1,,,,,,0,64,64
3744,note_on,,0,0,1,,,,,,0,60,92
3744,note_off,,48,0,1,,,,,,0,62,64
3792,note_on,,0,0,1,,,,,,0,59,92
3792,note_off,,48,0,1,,,,,,0,60,64
3840,note_off,,48,0,1,,,,,,0,59,64
3840,note_on,,0,0,1,,,,,,0,57,92
3888,note_on,,0,0,1,,,,,,0,64,92
3888,note_off,,48,0,1,,,,,,0,57,64
3936,note_on,,0,0,1,,,,,,0,62,92
3936,note_off,,48,0,1,,,,,,0,64,64
3984,note_on,,0,0,1,,,,,,0,60,92
3984,note_off,,48,0,1,,,,,,0,62,64
4032,note_on,,0,0,1,,,,,,0,59,92
4032,note_off,,48,0,1,,,,,,0,60,64
4080,note_on,,4080,0,2,,,,,,0,57,92
4080,note_off,,48,0,1,,,,,,0,59,64
4128,note_on,,0,0,2,,,,,,0,56,92
4128,note_off,,48,0,2,,,,,,0,57,64
4176,note_on,,0,0,2,,,,,,0,54,92
4176,note_off,,48,0,2,,,,,,0,56,64
4224,note_on,,0,0,2,,,,,,0,52,92
4224,note_off,,48,0,2,,,,,,0,54,64
4272,note_on,,0,0,2,,,,,,0,57,92
4272,note_off,,48,0,2,,,,,,0,52,64
4320,note_on,,0,0,2,,,,,,0,55,92
4320,note_off,,48,0,2,,,,,,0,57,64
4368,note_on,,0,0,2,,,,,,0,53,92
4368,note_off,,48,0,2,,,,,,0,55,64
4416,note_on,,0,0,2,,,,,,0,52,92
4416,note_off,,48,0,2,,,,,,0,53,64
4464,note_on,,0,0,2,,,,,,0,50,92
4464,note_off,,48,0,2,,,,,,0,52,64
4512,note_on,,0,0,2,,,,,,0,48,92
4512,note_off,,48,0,2,,,,,,0,50,64
4560,note_on,,0,0,2,,,,,,0,47,92
4560,note_off,,48,0,2,,,,,,0,48,64
4608,note_off,,4608,0,3,,,,,,0,45,64
4608,note_on,,0,0,2,,,,,,0,45,92
4608,note_off,,48,0,2,,,,,,0,47,64
4800,note_on,,0,0,1,,,,,,0,72,92
4800,note_on,,0,0,2,,,,,,0,39,92
4800,note_off,,192,0,2,,,,,,0,45,64
4800,note_on,,720,0,1,,,,,,0,66,92
4800,note_on,,0,0,1,,,,,,0,69,92
4992,note_off,,0,0,1,,,,,,0,66,64
4992,note_off,,192,0,1,,,,,,0,72,64
4992,note_on,,384,0,3,,,,,,0,40,102
4992,note_off,,192,0,2,,,,,,0,39,64
4992,note_on,,0,0,1,,,,,,0,71,92
4992,note_on,,0,0,1,,,,,,0,69,92
4992,note_off,,0,0,1,,,,,,0,69,64
5184,note_on,,0,0,1,,,,,,0,67,92
5184,note_off,,192,0,1,,,,,,0,69,64
5280,note_on,,0,0,1,,,,,,0,66,92
5280,note_off,,96,0,1,,,,,,0,67,64
5376,note_off,,96,0,1,,,,,,0,66,64
5376,note_on,,0,0,1,,,,,,0,67,92
5424,note_on,,432,0,2,,,,,,0,52,92
5424,note_off,,48,0,1,,,,,,0,67,64
5472,note_off,,48,0,2,,,,,,0,52,64
5472,note_on,,0,0,2,,,,,,0,54,92
5520,note_off,,48,0,2,,,,,,0,54,64
5520,note_on,,0,0,2,,,,,,0,55,92
5568,note_off,,144,0,1,,,,,,0,71,64
5568,note_off,,48,0,2,,,,,,0,55,64
5568,note_on,,0,0,2,,,,,,0,57,92
5616,note_on,,0,0,2,,,,,,0,59,92
5616,note_off,,48,0,2,,,,,,0,57,64
5664,note_on,,96,0,1,,,,,,0,61,92
5664,note_off,,48,0,2,,,,,,0,59,64
5712,note_on,,0,0,1,,,,,,0,63,92
5712,note_off,,48,0,1,,,,,,0,61,64
5760,note_off,,48,0,1,,,,,,0,63,64
5760,note_on,,0,0,1,,,,,,0,64,92
5808,note_off,,48,0,1,,,,,,0,64,64
5808,note_on,,0,0,1,,,,,,0,59,92
5856,note_on,,0,0,1,,,,,,0,61,92
5856,note_off,,48,0,1,,,,,,0,59,64
5904,note_off,,48,0,1,,,,,,0,61,64
5904,note_on,,0,0,1,,,,,,0,63,92
5952,note_on,,0,0,1,,,,,,0,64,92
5952,note_off,,48,0,1,,,,,,0,63,64
6000,note_on,,0,0,1,,,,,,0,66,92
6000,note_off,,48,0,1,,,,,,0,64,64
6048,note_on,,0,0,1,,,,,,0,67,92
6048,note_off,,48,0,1,,,,,,0,66,64
6096,note_on,,0,0,1,,,,,,0,69,92
6096,note_off,,48,0,1,,,,,,0,67,64
6144,note_on,,0,0,1,,,,,,0,67,92
6144,note_off,,48,0,1,,,,,,0,69,64
6192,note_on,,0,0,1,,,,,,0,71,92
6192,note_off,,48,0,1,,,,,,0,67,64
6240,note_off,,48,0,1,,,,,,0,71,64
6240,note_on,,0,0,1,,,,,,0,73,92
6288,note_off,,48,0,1,,,,,,0,73,64
6288,note_on,,0,0,1,,,,,,0,75,92
6336,note_on,,0,0,1,,,,,,0,76,92
6336,note_off,,48,0,1,,,,,,0,75,64
6384,note_on,,0,0,1,,,,,,0,78,92
6384,note_off,,48,0,1,,,,,,0,76,64
6432,note_off,,48,0,1,,,,,,0,78,64
6432,note_on,,0,0,1,,,,,,0,79,92
6480,note_off,,48,0,1,,,,,,0,79,64
6480,note_on,,0,0,1,,,,,,0,81,92
6528,note_off,,48,0,1,,,,,,0,81,64
6528,note_on,,0,0,1,,,,,,0,79,92
6576,note_off,,48,0,1,,,,,,0,79,64
6576,note_on,,0,0,1,,,,,,0,76,92
6624,note_off,,48,0,1,,,,,,0,76,64
6624,note_on,,0,0,1,,,,,,0,71,92
6672,note_off,,48,0,1,,,,,,0,71,64
6672,note_on,,0,0,1,,,,,,0,67,92
6720,note_off,,48,0,1,,,,,,0,67,64
6720,note_on,,0,0,1,,,,,,0,76,92
6768,note_off,,48,0,1,,,,,,0,76,64
6768,note_on,,0,0,1,,,,,,0,71,92
6816,note_off,,48,0,1,,,,,,0,71,64
6816,note_on,,0,0,1,,,,,,0,67,92
6864,note_off,,48,0,1,,,,,,0,67,64
6864,note_on,,0,0,1,,,,,,0,64,92
6912,note_off,,48,0,1,,,,,,0,64,64
6912,note_on,,0,0,1,,,,,,0,59,92
6960,note_on,,0,0,1,,,,,,0,64,92
6960,note_off,,48,0,1,,,,,,0,59,64
7008,note_off,,48,0,1,,,,,,0,64,64
7008,note_on,,0,0,1,,,,,,0,67,92
7056,note_off,,48,0,1,,,,,,0,67,64
7056,note_on,,0,0,1,,,,,,0,71,92
7104,note_on,,0,0,1,,,,,,0,67,92
7104,note_off,,48,0,1,,,,,,0,71,64
7152,note_off,,48,0,1,,,,,,0,67,64
7152,note_on,,0,0,1,,,,,,0,64,92
7200,note_off,,48,0,1,,,,,,0,64,64
7200,note_on,,0,0,1,,,,,,0,59,92
7248,note_on,,0,0,1,,,,,,0,55,92
7248,note_off,,48,0,1,,,,,,0,59,64
7296,note_off,,48,0,1,,,,,,0,55,64
7296,note_on,,0,0,1,,,,,,0,52,92
7344,note_off,,48,0,1,,,,,,0,52,64
7344,note_on,,0,0,1,,,,,,0,55,92
7392,note_off,,48,0,1,,,,,,0,55,64
7392,note_on,,0,0,1,,,,,,0,59,92
7440,note_off,,48,0,1,,,,,,0,59,64
7440,note_on,,0,0,1,,,,,,0,64,92
7488,note_off,,48,0,1,,,,,,0,64,64
7488,note_on,,0,0,1,,,,,,0,59,92
7536,note_off,,48,0,1,,,,,,0,59,64
7536,note_on,,0,0,1,,,,,,0,55,92
7584,note_off,,48,0,1,,,,,,0,55,64
7584,note_on,,0,0,1,,,,,,0,52,92
7632,note_off,,48,0,1,,,,,,0,52,64
7632,note_on,,0,0,1,,,,,,0,47,92
7680,note_off,,48,0,1,,,,,,0,47,64
7680,note_on,,0,0,1,,,,,,0,43,92
7728,note_off,,48,0,1,,,,,,0,43,64
7728,note_on,,0,0,1,,,,,,0,47,92
7776,note_off,,48,0,1,,,,,,0,47,64
7776,note_on,,0,0,1,,,,,,0,52,92
7824,note_on,,0,0,1,,,,,,0,55,92
7824,note_off,,48,0,1,,,,,,0,52,64
7872,note_off,,48,0,1,,,,,,0,55,64
7872,note_on,,0,0,1,,,,,,0,52,92
7920,note_off,,48,0,1,,,,,,0,52,64
7920,note_on,,0,0,1,,,,,,0,47,92
7968,note_off,,48,0,1,,,,,,0,47,64
7968,note_on,,0,0,1,,,,,,0,43,92
8016,note_off,,48,0,1,,,,,,0,43,64
8016,note_on,,0,0,1,,,,,,0,40,92
8064,note_on,,0,0,1,,,,,,0,43,92
8064,note_off,,48,0,1,,,,,,0,40,64
8112,note_on,,0,0,1,,,,,,0,47,92
8112,note_off,,48,0,1,,,,,,0,43,64
8160,note_on,,0,0,1,,,,,,0,52,92
8160,note_off,,48,0,1,,,,,,0,47,64
8208,note_on,,0,0,1,,,,,,0,55,92
8208,note_off,,48,0,1,,,,,,0,52,64
8256,note_on,,0,0,1,,,,,,0,59,92
8256,note_off,,48,0,1,,,,,,0,55,64
8304,note_on,,0,0,1,,,,,,0,55,92
8304,note_off,,48,0,1,,,,,,0,59,64
8352,note_off,,48,0,1,,,,,,0,55,64
8352,note_on,,0,0,1,,,,,,0,52,92
8400,note_off,,48,0,1,,,,,,0,52,64
8400,note_on,,0,0,1,,,,,,0,47,92
8448,note_on,,0,0,1,,,,,,0,52,92
8448,note_off,,48,0,1,,,,,,0,47,64
8496,note_off,,48,0,1,,,,,,0,52,64
8496,note_on,,0,0,1,,,,,,0,55,92
8544,note_off,,48,0,1,,,,,,0,55,64
8544,note_on,,0,0,1,,,,,,0,59,92
8592,note_off,,48,0,1,,,,,,0,59,64
8592,note_on,,0,0,1,,,,,,0,64,92
8640,note_off,,48,0,1,,,,,,0,64,64
8640,note_on,,0,0,1,,,,,,0,67,92
8688,note_off,,48,0,1,,,,,,0,67,64
8688,note_on,,0,0,1,,,,,,0,64,92
8736,note_off,,48,0,1,,,,,,0,64,64
8736,note_on,,3072,0,2,,,,,,0,59,92
8784,note_off,,48,0,2,,,,,,0,59,64
8784,note_on,,0,0,2,,,,,,0,52,92
8832,note_off,,48,0,2,,,,,,0,52,64
8832,note_on,,0,0,2,,,,,,0,55,92
8880,note_off,,48,0,2,,,,,,0,55,64
8880,note_on,,0,0,2,,,,,,0,59,92
8928,note_on,,192,0,1,,,,,,0,64,92
8928,note_off,,48,0,2,,,,,,0,59,64
8976,note_on,,0,0,1,,,,,,0,67,92
8976,note_off,,48,0,1,,,,,,0,64,64
9024,note_on,,0,0,1,,,,,,0,64,92
9024,note_off,,48,0,1,,,,,,0,67,64
9072,note_on,,0,0,1,,,,,,0,59,92
9072,note_off,,48,0,1,,,,,,0,64,64
9120,note_on,,192,0,2,,,,,,0,55,92
9120,note_off,,48,0,1,,,,,,0,59,64
9168,note_off,,48,0,2,,,,,,0,55,64
9168,note_on,,0,0,2,,,,,,0,52,92
9216,note_on,,0,0,1,,,,,,0,76,92
9216,note_on,,96,0,1,,,,,,0,67,92
9216,note_off,,48,0,2,,,,,,0,52,64
9216,note_off,,4224,0,3,,,,,,0,40,64
9216,note_on,,0,0,3,,,,,,0,49,102
9216,note_on,,0,0,1,,,,,,0,70,92
9792,note_on,,0,0,1,,,,,,0,67,92
9792,note_off,,576,0,1,,,,,,0,67,64
9984,note_on,,768,0,2,,,,,,0,50,92
9984,note_on,,0,0,3,,,,,,0,50,102
9984,note_off,,768,0,3,,,,,,0,49,64
9984,note_on,,0,0,1,,,,,,0,74,92
9984,note_off,,0,0,1,,,,,,0,76,64
9984,note_off,,192,0,1,,,,,,0,67,64
9984,note_on,,0,0,1,,,,,,0,65,92
9984,note_on,,0,0,1,,,,,,0,69,92
9984,note_off,,0,0,1,,,,,,0,70,64
10032,note_on,,0,0,2,,,,,,0,52,92
10032,note_off,,48,0,2,,,,,,0,50,64
10080,note_on,,0,0,2,,,,,,0,53,92
10080,note_off,,48,0,2,,,,,,0,52,64
10128,note_on,,0,0,2,,,,,,0,55,92
10128,note_off,,48,0,2,,,,,,0,53,64
10176,note_off,,0,0,1,,,,,,0,69,64
10176,note_off,,0,0,1,,,,,,0,65,64
10176,note_off,,48,0,2,,,,,,0,55,64
10176,note_on,,0,0,2,,,,,,0,57,92
10176,note_off,,192,0,1,,,,,,0,74,64
10224,note_on,,0,0,2,,,,,,0,59,92
10224,note_off,,48,0,2,,,,,,0,57,64
10272,note_on,,0,0,2,,,,,,0,61,92
10272,note_off,,48,0,2,,,,,,0,59,64
10320,note_on,,0,0,2,,,,,,0,62,92
10320,note_off,,48,0,2,,,,,,0,61,64
10368,note_on,,0,0,2,,,,,,0,57,92
10368,note_off,,48,0,2,,,,,,0,62,64
10416,note_off,,48,0,2,,,,,,0,57,64
10416,note_on,,0,0,2,,,,,,0,59,92
10464,note_off,,48,0,2,,,,,,0,59,64
10464,note_on,,0,0,2,,,,,,0,61,92
10512,note_on,,0,0,2,,,,,,0,62,92
10512,note_off,,48,0,2,,,,,,0,61,64
10560,note_on,,384,0,1,,,,,,0,64,92
10560,note_off,,48,0,2,,,,,,0,62,64
10608,note_off,,48,0,1,,,,,,0,64,64
10608,note_on,,0,0,1,,,,,,0,65,92
10656,note_off,,48,0,1,,,,,,0,65,64
10656,note_on,,0,0,1,,,,,,0,67,92
10704,note_off,,48,0,1,,,,,,0,67,64
10704,note_on,,0,0,1,,,,,,0,69,92
10752,note_off,,48,0,1,,,,,,0,69,64
10752,note_on,,0,0,1,,,,,,0,62,92
10800,note_off,,48,0,1,,,,,,0,62,64
10800,note_on,,0,0,1,,,,,,0,64,92
10848,note_off,,48,0,1,,,,,,0,64,64
10848,note_on,,0,0,1,,,,,,0,65,92
10896,note_off,,48,0,1,,,,,,0,65,64
10896,note_on,,0,0,1,,,,,,0,67,92
10944,note_off,,48,0,1,,,,,,0,67,64
10944,note_on,,0,0,1,,,,,,0,69,92
10992,note_on,,0,0,1,,,,,,0,71,92
10992,note_off,,48,0,1,,,,,,0,69,64
11040,note_on,,0,0,1,,,,,,0,73,92
11040,note_off,,48,0,1,,,,,,0,71,64
11088,note_on,,0,0,1,,,,,,0,69,92
11088,note_off,,48,0,1,,,,,,0,73,64
11136,note_on,,0,0,1,,,,,,0,74,92
11136,note_off,,48,0,1,,,,,,0,69,64
11184,note_off,,48,0,1,,,,,,0,74,64
11184,note_on,,0,0,1,,,,,,0,69,92
11232,note_on,,0,0,1,,,,,,0,65,92
11232,note_off,,48,0,1,,,,,,0,69,64
11280,note_off,,48,0,1,,,,,,0,65,64
11280,note_on,,0,0,1,,,,,,0,62,92
11328,note_off,,48,0,1,,,,,,0,62,64
11328,note_on,,0,0,1,,,,,,0,69,92
11376,note_on,,0,0,1,,,,,,0,65,92
11376,note_off,,48,0,1,,,,,,0,69,64
11424,note_off,,48,0,1,,,,,,0,65,64
11424,note_on,,0,0,1,,,,,,0,62,92
11472,note_on,,0,0,1,,,,,,0,57,92
11472,note_off,,48,0,1,,,,,,0,62,64
11520,note_on,,0,0,1,,,,,,0,77,92
11520,note_off,,48,0,1,,,,,,0,57,64
11568,note_on,,0,0,1,,,,,,0,74,92
11568,note_off,,48,0,1,,,,,,0,77,64
11616,note_on,,0,0,1,,,,,,0,69,92
11616,note_off,,48,0,1,,,,,,0,74,64
11664,note_off,,48,0,1,,,,,,0,69,64
11664,note_on,,0,0,1,,,,,,0,65,92
11712,note_off,,48,0,1,,,,,,0,65,64
11712,note_on,,0,0,1,,,,,,0,74,92
11760,note_off,,48,0,1,,,,,,0,74,64
11760,note_on,,0,0,1,,,,,,0,69,92
11808,note_off,,48,0,1,,,,,,0,69,64
11808,note_on,,0,0,1,,,,,,0,65,92
11856,note_off,,48,0,1,,,,,,0,65,64
11856,note_on,,0,0,1,,,,,,0,62,92
11904,note_off,,48,0,1,,,,,,0,62,64
11904,note_on,,0,0,1,,,,,,0,65,92
11952,note_on,,0,0,1,,,,,,0,62,92
11952,note_off,,48,0,1,,,,,,0,65,64
12000,note_off,,48,0,1,,,,,,0,62,64
12000,note_on,,1440,0,2,,,,,,0,57,92
12048,note_off,,48,0,2,,,,,,0,57,64
12048,note_on,,0,0,2,,,,,,0,53,92
12096,note_off,,48,0,2,,,,,,0,53,64
12096,note_on,,0,0,2,,,,,,0,62,92
12144,note_on,,0,0,2,,,,,,0,57,92
12144,note_off,,48,0,2,,,,,,0,62,64
12192,note_off,,48,0,2,,,,,,0,57,64
12192,note_on,,0,0,2,,,,,,0,53,92
12240,note_off,,48,0,2,,,,,,0,53,64
12240,note_on,,0,0,2,,,,,,0,50,92
12288,note_on,,0,0,1,,,,,,0,74,92
12288,note_off,,48,0,2,,,,,,0,50,64
12288,note_on,,288,0,1,,,,,,0,65,92
12288,note_on,,0,0,1,,,,,,0,67,92
12288,note_on,,0,0,3,,,,,,0,47,102
12288,note_off,,2304,0,3,,,,,,0,50,64
12864,note_on,,0,0,1,,,,,,0,65,92
12864,note_off,,576,0,1,,,,,,0,65,64
13056,note_on,,0,0,1,,,,,,0,72,92
13056,note_on,,0,0,1,,,,,,0,64,92
13056,note_off,,0,0,1,,,,,,0,67,64
13056,note_off,,0,0,1,,,,,,0,74,64
13056,note_off,,192,0,1,,,,,,0,65,64
13056,note_on,,0,0,1,,,,,,0,67,92
13056,note_on,,768,0,2,,,,,,0,48,92
13056,note_on,,0,0,3,,,,,,0,48,102
13056,note_off,,768,0,3,,,,,,0,47,64
13104,note_off,,48,0,2,,,,,,0,48,64
13104,note_on,,0,0,2,,,,,,0,50,92
13152,note_off,,48,0,2,,,,,,0,50,64
13152,note_on,,0,0,2,,,,,,0,52,92
13200,note_off,,48,0,2,,,,,,0,52,64
13200,note_on,,0,0,2,,,,,,0,53,92
13248,note_on,,0,0,2,,,,,,0,55,92
13248,note_off,,48,0,2,,,,,,0,53,64
13248,note_off,,0,0,1,,,,,,0,67,64
13248,note_off,,192,0,1,,,,,,0,72,64
13248,note_off,,0,0,1,,,,,,0,64,64
13296,note_on,,0,0,2,,,,,,0,57,92
13296,note_off,,48,0,2,,,,,,0,55,64
13344,note_on,,0,0,2,,,,,,0,59,92
13344,note_off,,48,0,2,,,,,,0,57,64
13392,note_on,,0,0,2,,,,,,0,60,92
13392,note_off,,48,0,2,,,,,,0,59,64
13440,note_off,,48,0,2,,,,,,0,60,64
13440,note_on,,0,0,2,,,,,,0,55,92
13488,note_on,,0,0,2,,,,,,0,57,92
13488,note_off,,48,0,2,,,,,,0,55,64
13536,note_on,,0,0,2,,,,,,0,59,92
13536,note_off,,48,0,2,,,,,,0,57,64
13584,note_on,,0,0,2,,,,,,0,60,92
13584,note_off,,48,0,2,,,,,,0,59,64
13632,note_on,,384,0,1,,,,,,0,62,92
13632,note_off,,48,0,2,,,,,,0,60,64
13680,note_on,,0,0,1,,,,,,0,64,92
13680,note_off,,48,0,1,,,,,,0,62,64
13728,note_off,,48,0,1,,,,,,0,64,64
13728,note_on,,0,0,1,,,,,,0,65,92
13776,note_on,,0,0,1,,,,,,0,67,92
13776,note_off,,48,0,1,,,,,,0,65,64
13824,note_on,,0,0,1,,,,,,0,60,92
13824,note_off,,48,0,1,,,,,,0,67,64
13872,note_off,,48,0,1,,,,,,0,60,64
13872,note_on,,0,0,1,,,,,,0,72,92
13920,note_on,,0,0,1,,,,,,0,71,92
13920,note_off,,48,0,1,,,,,,0,72,64
13968,note_off,,48,0,1,,,,,,0,71,64
13968,note_on,,0,0,1,,,,,,0,69,92
14016,note_off,,48,0,1,,,,,,0,69,64
14016,note_on,,0,0,1,,,,,,0,67,92
14064,note_off,,48,0,1,,,,,,0,67,64
14064,note_on,,0,0,1,,,,,,0,65,92
14112,note_off,,48,0,1,,,,,,0,65,64
14112,note_on,,0,0,1,,,,,,0,64,92
14160,note_on,,0,0,1,,,,,,0,62,92
14160,note_off,,48,0,1,,,,,,0,64,64
14208,note_off,,48,0,1,,,,,,0,62,64
14208,note_on,,0,0,1,,,,,,0,60,92
14256,note_off,,48,0,1,,,,,,0,60,64
14256,note_on,,0,0,1,,,,,,0,79,92
14304,note_off,,48,0,1,,,,,,0,79,64
14304,note_on,,0,0,1,,,,,,0,77,92
14352,note_on,,0,0,1,,,,,,0,76,92
14352,note_off,,48,0,1,,,,,,0,77,64
14400,note_on,,0,0,1,,,,,,0,74,92
14400,note_off,,48,0,1,,,,,,0,76,64
14448,note_off,,48,0,1,,,,,,0,74,64
14448,note_on,,0,0,1,,,,,,0,72,92
14496,note_off,,48,0,1,,,,,,0,72,64
14496,note_on,,0,0,1,,,,,,0,71,92
14544,note_off,,48,0,1,,,,,,0,71,64
14544,note_on,,0,0,1,,,,,,0,69,92
14592,note_on,,0,0,1,,,,,,0,67,92
14592,note_off,,48,0,1,,,,,,0,69,64
14640,note_off,,48,0,1,,,,,,0,67,64
14640,note_on,,0,0,1,,,,,,0,84,92
14688,note_off,,48,0,1,,,,,,0,84,64
14688,note_on,,0,0,1,,,,,,0,83,92
14736,note_off,,48,0,1,,,,,,0,83,64
14736,note_on,,0,0,1,,,,,,0,81,92
14784,note_off,,48,0,1,,,,,,0,81,64
14784,note_on,,0,0,1,,,,,,0,79,92
14832,note_on,,0,0,1,,,,,,0,77,92
14832,note_off,,48,0,1,,,,,,0,79,64
14880,note_off,,48,0,1,,,,,,0,77,64
14880,note_on,,0,0,1,,,,,,0,76,92
14928,note_on,,0,0,1,,,,,,0,74,92
14928,note_off,,48,0,1,,,,,,0,76,64
14976,note_on,,0,0,1,,,,,,0,72,92
14976,note_off,,48,0,1,,,,,,0,74,64
15024,note_off,,48,0,1,,,,,,0,72,64
15024,note_on,,0,0,1,,,,,,0,72,92
15072,note_off,,48,0,1,,,,,,0,72,64
15072,note_on,,0,0,1,,,,,,0,71,92
15120,note_off,,48,0,1,,,,,,0,71,64
15120,note_on,,0,0,1,,,,,,0,69,92
15168,note_on,,0,0,1,,,,,,0,67,92
15168,note_off,,48,0,1,,,,,,0,69,64
15216,note_off,,48,0,1,,,,,,0,67,64
15216,note_on,,0,0,1,,,,,,0,65,92
15264,note_off,,48,0,1,,,,,,0,65,64
15264,note_on,,0,0,1,,,,,,0,64,92
15312,note_off,,48,0,1,,,,,,0,64,64
15312,note_on,,0,0,1,,,,,,0,62,92
15360,note_off,,48,0,1,,,,,,0,62,64
15360,note_on,,0,0,1,,,,,,0,60,92
15744,note_on,,0,0,1,,,,,,0,69,92
15744,note_on,,0,0,1,,,,,,0,63,92
15744,note_on,,0,0,1,,,,,,0,72,92
15744,note_off,,384,0,1,,,,,,0,60,64
15744,note_off,,2688,0,3,,,,,,0,48,64
15744,note_on,,0,0,3,,,,,,0,42,102
16128,note_off,,384,0,1,,,,,,0,63,64
16128,note_on,,0,0,1,,,,,,0,72,92
16128,note_on,,0,0,1,,,,,,0,67,92
16128,note_off,,0,0,1,,,,,,0,72,64
16128,note_off,,0,0,1,,,,,,0,69,64
16128,note_on,,0,0,3,,,,,,0,43,102
16128,note_on,,0,0,1,,,,,,0,62,92
16128,note_off,,384,0,3,,,,,,0,42,64
16512,note_off,,384,0,1,,,,,,0,72,64
16512,note_on,,0,0,1,,,,,,0,71,92
16704,note_off,,192,0,1,,,,,,0,67,64
16704,note_on,,0,0,1,,,,,,0,65,92
16896,note_off,,768,0,3,,,,,,0,43,64
16896,note_off,,192,0,1,,,,,,0,65,64
16896,note_off,,0,0,1,,,,,,0,71,64
16896,note_off,,0,0,1,,,,,,0,62,64
16896,set_tempo,857140,16896,1,0,,,,,,,,
16896,note_on,,0,0,1,,,,,,0,72,92
16896,note_on,,3264,0,2,,,,,,0,48,92
16896,note_on,,0,0,1,,,,,,0,60,92
16896,note_on,,0,0,1,,,,,,0,64,92
16992,note_on,,0,0,1,,,,,,0,67,92
16992,note_off,,96,0,1,,,,,,0,72,64
17088,note_off,,192,0,2,,,,,,0,48,64
17088,note_off,,96,0,1,,,,,,0,67,64
17088,note_off,,0,0,1,,,,,,0,64,64
17088,note_off,,0,0,1,,,,,,0,60,64
17088,note_on,,0,0,1,,,,,,0,64,92
17184,note_off,,96,0,1,,,,,,0,64,64
17184,note_on,,0,0,1,,,,,,0,60,92
17280,note_on,,0,0,1,,,,,,0,64,92
17280,note_off,,96,0,1,,,,,,0,60,64
17376,note_off,,96,0,1,,,,,,0,64,64
17376,note_on,,0,0,1,,,,,,0,67,92
17472,note_off,,96,0,1,,,,,,0,67,64
17472,note_on,,0,0,1,,,,,,0,72,92
17568,note_off,,96,0,1,,,,,,0,72,64
17568,note_on,,0,0,1,,,,,,0,76,92
17664,note_on,,0,0,1,,,,,,0,74,92
17664,note_off,,96,0,1,,,,,,0,76,64
17760,note_off,,96,0,1,,,,,,0,74,64
17760,note_on,,0,0,1,,,,,,0,71,92
17856,note_off,,96,0,1,,,,,,0,71,64
17856,note_on,,0,0,1,,,,,,0,67,92
17952,note_off,,96,0,1,,,,,,0,67,64
17952,note_on,,0,0,1,,,,,,0,62,92
18048,note_off,,96,0,1,,,,,,0,62,64
18048,note_on,,0,0,1,,,,,,0,67,92
18144,note_off,,96,0,1,,,,,,0,67,64
18144,note_on,,0,0,1,,,,,,0,62,92
18240,note_off,,96,0,1,,,,,,0,62,64
18240,note_on,,0,0,1,,,,,,0,59,92
18336,note_off,,96,0,1,,,,,,0,59,64
18336,note_on,,0,0,1,,,,,,0,55,92
18432,note_on,,0,0,1,,,,,,0,74,92
18432,note_off,,96,0,1,,,,,,0,55,64
18528,note_off,,96,0,1,,,,,,0,74,64
18528,note_on,,0,0,1,,,,,,0,71,92
18624,note_off,,96,0,1,,,,,,0,71,64
18624,note_on,,0,0,1,,,,,,0,67,92
18720,note_off,,96,0,1,,,,,,0,67,64
18720,note_on,,0,0,1,,,,,,0,62,92
18816,note_off,,96,0,1,,,,,,0,62,64
18816,note_on,,0,0,1,,,,,,0,67,92
18912,note_off,,96,0,1,,,,,,0,67,64
18912,note_on,,0,0,1,,,,,,0,71,92
19008,note_off,,96,0,1,,,,,,0,71,64
19008,note_on,,0,0,1,,,,,,0,74,92
19104,note_on,,0,0,1,,,,,,0,77,92
19104,note_off,,96,0,1,,,,,,0,74,64
19200,note_off,,96,0,1,,,,,,0,77,64
19200,note_on,,0,0,1,,,,,,0,76,92
19296,note_off,,96,0,1,,,,,,0,76,64
19296,note_on,,0,0,1,,,,,,0,72,92
19392,note_off,,96,0,1,,,,,,0,72,64
19392,note_on,,0,0,1,,,,,,0,67,92
19488,note_off,,96,0,1,,,,,,0,67,64
19488,note_on,,0,0,1,,,,,,0,64,92
19584,note_off,,96,0,1,,,,,,0,64,64
19584,note_on,,0,0,1,,,,,,0,72,92
19680,note_on,,0,0,1,,,,,,0,67,92
19680,note_off,,96,0,1,,,,,,0,72,64
19776,note_off,,96,0,1,,,,,,0,67,64
19776,note_on,,0,0,1,,,,,,0,64,92
19872,note_off,,96,0,1,,,,,,0,64,64
19872,note_on,,0,0,1,,,,,,0,60,92
19968,note_on,,0,0,1,,,,,,0,84,92
19968,note_off,,96,0,1,,,,,,0,60,64
20064,note_off,,96,0,1,,,,,,0,84,64
20064,note_on,,0,0,1,,,,,,0,79,92
20160,note_off,,96,0,1,,,,,,0,79,64
20160,note_on,,0,0,1,,,,,,0,76,92
20256,note_off,,96,0,1,,,,,,0,76,64
20256,note_on,,0,0,1,,,,,,0,72,92
20352,note_off,,96,0,1,,,,,,0,72,64
20352,note_on,,0,0,1,,,,,,0,74,92
20448,note_off,,96,0,1,,,,,,0,74,64
20448,note_on,,0,0,1,,,,,,0,78,92
20544,note_off,,96,0,1,,,,,,0,78,64
20544,note_on,,0,0,1,,,,,,0,81,92
20640,note_off,,96,0,1,,,,,,0,81,64
20640,note_on,,0,0,1,,,,,,0,84,92
20736,note_off,,96,0,1,,,,,,0,84,64
20736,note_on,,0,0,1,,,,,,0,83,92
20832,note_on,,0,0,1,,,,,,0,79,92
20832,note_off,,96,0,1,,,,,,0,83,64
20928,note_off,,96,0,1,,,,,,0,79,64
20928,note_on,,0,0,1,,,,,,0,74,92
21024,note_off,,96,0,1,,,,,,0,74,64
21024,note_on,,0,0,1,,,,,,0,71,92
21120,note_off,,96,0,1,,,,,,0,71,64
21120,note_on,,0,0,1,,,,,,0,79,92
21216,note_off,,96,0,1,,,,,,0,79,64
21216,note_on,,0,0,1,,,,,,0,74,92
21312,note_off,,96,0,1,,,,,,0,74,64
21312,note_on,,0,0,1,,,,,,0,71,92
21408,note_on,,0,0,1,,,,,,0,67,92
21408,note_off,,96,0,1,,,,,,0,71,64
21504,note_off,,96,0,1,,,,,,0,67,64
21504,note_on,,0,0,1,,,,,,0,79,92
21600,note_off,,96,0,1,,,,,,0,79,64
21600,note_on,,0,0,1,,,,,,0,74,92
21696,note_off,,96,0,1,,,,,,0,74,64
21696,note_on,,0,0,1,,,,,,0,71,92
21792,note_off,,96,0,1,,,,,,0,71,64
21792,note_on,,0,0,1,,,,,,0,67,92
21888,note_on,,0,0,1,,,,,,0,69,92
21888,note_off,,96,0,1,,,,,,0,67,64
21984,note_off,,96,0,1,,,,,,0,69,64
21984,note_on,,0,0,1,,,,,,0,73,92
22080,note_off,,96,0,1,,,,,,0,73,64
22080,note_on,,0,0,1,,,,,,0,76,92
22176,note_on,,0,0,1,,,,,,0,79,92
22176,note_off,,96,0,1,,,,,,0,76,64
22272,note_on,,0,0,1,,,,,,0,77,92
22272,note_off,,96,0,1,,,,,,0,79,64
22368,note_on,,0,0,1,,,,,,0,74,92
22368,note_off,,96,0,1,,,,,,0,77,64
22464,note_on,,0,0,1,,,,,,0,69,92
22464,note_off,,96,0,1,,,,,,0,74,64
22560,note_on,,0,0,1,,,,,,0,65,92
22560,note_off,,96,0,1,,,,,,0,69,64
22656,note_off,,96,0,1,,,,,,0,65,64
22656,note_on,,0,0,1,,,,,,0,74,92
22752,note_off,,96,0,1,,,,,,0,74,64
22752,note_on,,0,0,1,,,,,,0,69,92
22848,note_on,,0,0,1,,,,,,0,65,92
22848,note_off,,96,0,1,,,,,,0,69,64
22944,note_on,,0,0,1,,,,,,0,62,92
22944,note_off,,96,0,1,,,,,,0,65,64
23040,note_off,,96,0,1,,,,,,0,62,64
23040,note_on,,0,0,1,,,,,,0,74,92
23136,note_off,,96,0,1,,,,,,0,74,64
23136,note_on,,0,0,1,,,,,,0,69,92
23232,note_off,,96,0,1,,,,,,0,69,64
23232,note_on,,0,0,1,,,,,,0,65,92
23328,note_off,,96,0,1,,,,,,0,65,64
23328,note_on,,0,0,1,,,,,,0,62,92
23424,note_off,,96,0,1,,,,,,0,62,64
23424,note_on,,0,0,1,,,,,,0,64,92
23520,note_off,,96,0,1,,,,,,0,64,64
23520,note_on,,0,0,1,,,,,,0,68,92
23616,note_off,,96,0,1,,,,,,0,68,64
23616,note_on,,0,0,1,,,,,,0,71,92
23712,note_on,,0,0,1,,,,,,0,74,92
23712,note_off,,96,0,1,,,,,,0,71,64
23808,note_on,,0,0,1,,,,,,0,72,92
23808,note_off,,96,0,1,,,,,,0,74,64
23904,note_on,,0,0,1,,,,,,0,69,92
23904,note_off,,96,0,1,,,,,,0,72,64
24000,note_on,,0,0,1,,,,,,0,64,92
24000,note_off,,96,0,1,,,,,,0,69,64
24096,note_on,,0,0,1,,,,,,0,60,92
24096,note_off,,96,0,1,,,,,,0,64,64
24192,note_off,,96,0,1,,,,,,0,60,64
24192,note_on,,0,0,1,,,,,,0,69,92
24288,note_on,,0,0,1,,,,,,0,64,92
24288,note_off,,96,0,1,,,,,,0,69,64
24384,note_off,,96,0,1,,,,,,0,64,64
24384,note_on,,7296,0,2,,,,,,0,60,92
24480,note_off,,96,0,2,,,,,,0,60,64
24480,note_on,,0,0,2,,,,,,0,57,92
24576,note_on,,192,0,1,,,,,,0,69,92
24576,note_off,,96,0,2,,,,,,0,57,64
24672,note_on,,0,0,1,,,,,,0,64,92
24672,note_off,,96,0,1,,,,,,0,69,64
24768,note_off,,96,0,1,,,,,,0,64,64
24768,note_on,,192,0,2,,,,,,0,60,92
24864,note_on,,0,0,2,,,,,,0,57,92
24864,note_off,,96,0,2,,,,,,0,60,64
24960,note_on,,0,0,2,,,,,,0,59,92
24960,note_off,,96,0,2,,,,,,0,57,64
25056,note_on,,0,0,2,,,,,,0,63,92
25056,note_off,,96,0,2,,,,,,0,59,64
25152,note_off,,96,0,2,,,,,,0,63,64
25152,note_on,,384,0,1,,,,,,0,66,92
25248,note_on,,0,0,1,,,,,,0,69,92
25248,note_off,,96,0,1,,,,,,0,66,64
25344,note_on,,0,0,1,,,,,,0,67,92
25344,note_off,,96,0,1,,,,,,0,69,64
25440,note_off,,96,0,1,,,,,,0,67,64
25440,note_on,,0,0,1,,,,,,0,64,92
25536,note_off,,96,0,1,,,,,,0,64,64
25536,note_on,,384,0,2,,,,,,0,59,92
25632,note_on,,0,0,2,,,,,,0,55,92
25632,note_off,,96,0,2,,,,,,0,59,64
25728,note_off,,96,0,2,,,,,,0,55,64
25728,note_on,,192,0,1,,,,,,0,64,92
25824,note_on,,0,0,1,,,,,,0,59,92
25824,note_off,,96,0,1,,,,,,0,64,64
25920,note_on,,192,0,2,,,,,,0,55,92
25920,note_off,,96,0,1,,,,,,0,59,64
26016,note_off,,96,0,2,,,,,,0,55,64
26016,note_on,,0,0,2,,,,,,0,52,92
26112,note_off,,96,0,2,,,,,,0,52,64
26112,note_on,,192,0,1,,,,,,0,76,92
26208,note_off,,96,0,1,,,,,,0,76,64
26208,note_on,,0,0,1,,,,,,0,71,92
26304,note_off,,96,0,1,,,,,,0,71,64
26304,note_on,,0,0,1,,,,,,0,67,92
26400,note_off,,96,0,1,,,,,,0,67,64
26400,note_on,,0,0,1,,,,,,0,64,92
26496,note_off,,96,0,1,,,,,,0,64,64
26496,note_on,,0,0,1,,,,,,0,66,92
26592,note_off,,96,0,1,,,,,,0,66,64
26592,note_on,,0,0,1,,,,,,0,70,92
26688,note_off,,96,0,1,,,,,,0,70,64
26688,note_on,,0,0,1,,,,,,0,73,92
26784,note_off,,96,0,1,,,,,,0,73,64
26784,note_on,,0,0,1,,,,,,0,76,92
26880,note_off,,96,0,1,,,,,,0,76,64
26880,note_on,,0,0,1,,,,,,0,74,92
26976,note_off,,96,0,1,,,,,,0,74,64
26976,note_on,,0,0,1,,,,,,0,71,92
27072,note_off,,96,0,1,,,,,,0,71,64
27072,note_on,,0,0,1,,,,,,0,66,92
27168,note_on,,0,0,1,,,,,,0,62,92
27168,note_off,,96,0,1,,,,,,0,66,64
27264,note_off,,96,0,1,,,,,,0,62,64
27264,note_on,,0,0,1,,,,,,0,71,92
27360,note_off,,96,0,1,,,,,,0,71,64
27360,note_on,,0,0,1,,,,,,0,66,92
27456,note_off,,96,0,1,,,,,,0,66,64
27456,note_on,,0,0,1,,,,,,0,62,92
27552,note_off,,96,0,1,,,,,,0,62,64
27552,note_on,,0,0,1,,,,,,0,59,92
27648,note_off,,96,0,1,,,,,,0,59,64
27648,note_on,,0,0,1,,,,,,0,71,92
27744,note_on,,0,0,1,,,,,,0,66,92
27744,note_off,,96,0,1,,,,,,0,71,64
27840,note_on,,0,0,1,,,,,,0,62,92
27840,note_off,,96,0,1,,,,,,0,66,64
27936,note_off,,96,0,1,,,,,,0,62,64
27936,note_on,,0,0,1,,,,,,0,59,92
28032,note_off,,96,0,1,,,,,,0,59,64
28032,note_on,,0,0,1,,,,,,0,61,92
28128,note_off,,96,0,1,,,,,,0,61,64
28128,note_on,,0,0,1,,,,,,0,65,92
28224,note_off,,96,0,1,,,,,,0,65,64
28224,note_on,,0,0,1,,,,,,0,68,92
28320,note_off,,96,0,1,,,,,,0,68,64
28320,note_on,,0,0,1,,,,,,0,71,92
28416,note_off,,96,0,1,,,,,,0,71,64
28416,note_on,,0,0,1,,,,,,0,69,92
28512,note_off,,96,0,1,,,,,,0,69,64
28512,note_on,,0,0,1,,,,,,0,66,92
28608,note_on,,2496,0,2,,,,,,0,61,92
28608,note_off,,96,0,1,,,,,,0,66,64
28704,note_off,,96,0,2,,,,,,0,61,64
28704,note_on,,0,0,2,,,,,,0,57,92
28800,note_off,,96,0,2,,,,,,0,57,64
28800,note_on,,192,0,1,,,,,,0,66,92
28896,note_off,,96,0,1,,,,,,0,66,64
28896,note_on,,0,0,1,,,,,,0,61,92
28992,note_on,,192,0,2,,,,,,0,57,92
28992,note_off,,96,0,1,,,,,,0,61,64
29088,note_off,,96,0,2,,,,,,0,57,64
29088,note_on,,0,0,2,,,,,,0,54,92
29184,note_off,,96,0,2,,,,,,0,54,64
29184,note_on,,192,0,1,,,,,,0,78,92
29280,note_off,,96,0,1,,,,,,0,78,64
29280,note_on,,0,0,1,,,,,,0,73,92
29376,note_off,,96,0,1,,,,,,0,73,64
29376,note_on,,0,0,1,,,,,,0,69,92
29472,note_on,,0,0,1,,,,,,0,66,92
29472,note_off,,96,0,1,,,,,,0,69,64
29568,note_on,,0,0,1,,,,,,0,68,92
29568,note_off,,96,0,1,,,,,,0,66,64
29664,note_on,,0,0,1,,,,,,0,71,92
29664,note_off,,96,0,1,,,,,,0,68,64
29760,note_on,,0,0,1,,,,,,0,76,92
29760,note_off,,96,0,1,,,,,,0,71,64
29856,note_on,,0,0,1,,,,,,0,83,92
29856,note_off,,96,0,1,,,,,,0,76,64
29952,note_on,,0,0,1,,,,,,0,81,92
29952,note_off,,96,0,1,,,,,,0,83,64
30048,note_off,,96,0,1,,,,,,0,81,64
30048,note_on,,0,0,1,,,,,,0,76,92
30144,note_off,,96,0,1,,,,,,0,76,64
30144,note_on,,0,0,1,,,,,,0,73,92
30240,note_off,,96,0,1,,,,,,0,73,64
30240,note_on,,0,0,1,,,,,,0,69,92
30336,note_off,,96,0,1,,,,,,0,69,64
30336,note_on,,0,0,1,,,,,,0,69,92
30432,note_off,,96,0,1,,,,,,0,69,64
30432,note_on,,0,0,1,,,,,,0,64,92
30528,note_on,,0,0,1,,,,,,0,61,92
30528,note_off,,96,0,1,,,,,,0,64,64
30624,note_off,,96,0,1,,,,,,0,61,64
30624,note_on,,0,0,1,,,,,,0,57,92
30720,note_off,,96,0,1,,,,,,0,57,64
30720,note_on,,0,0,1,,,,,,0,69,92
30816,note_off,,96,0,1,,,,,,0,69,64
30816,note_on,,0,0,1,,,,,,0,64,92
30912,note_on,,0,0,1,,,,,,0,61,92
30912,note_off,,96,0,1,,,,,,0,64,64
31008,note_on,,0,0,1,,,,,,0,57,92
31008,note_off,,96,0,1,,,,,,0,61,64
31104,note_off,,96,0,1,,,,,,0,57,64
31104,note_on,,0,0,1,,,,,,0,61,92
31200,note_off,,96,0,1,,,,,,0,61,64
31200,note_on,,0,0,1,,,,,,0,64,92
31296,note_off,,96,0,1,,,,,,0,64,64
31296,note_on,,0,0,1,,,,,,0,69,92
31392,note_on,,0,0,1,,,,,,0,76,92
31392,note_off,,96,0,1,,,,,,0,69,64
31488,note_on,,0,0,1,,,,,,0,74,92
31488,note_off,,96,0,1,,,,,,0,76,64
31584,note_on,,0,0,1,,,,,,0,69,92
31584,note_off,,96,0,1,,,,,,0,74,64
31680,note_off,,96,0,1,,,,,,0,69,64
31680,note_on,,0,0,1,,,,,,0,66,92
31776,note_off,,96,0,1,,,,,,0,66,64
31776,note_on,,0,0,1,,,,,,0,62,92
31872,note_off,,96,0,1,,,,,,0,62,64
31872,note_on,,2688,0,2,,,,,,0,62,92
31968,note_off,,96,0,2,,,,,,0,62,64
31968,note_on,,0,0,2,,,,,,0,57,92
32064,note_off,,96,0,2,,,,,,0,57,64
32064,note_on,,0,0,2,,,,,,0,54,92
32160,note_off,,96,0,2,,,,,,0,54,64
32160,note_on,,0,0,2,,,,,,0,50,92
32256,note_off,,96,0,2,,,,,,0,50,64
32256,note_on,,384,0,1,,,,,,0,74,92
32352,note_on,,0,0,1,,,,,,0,69,92
32352,note_off,,96,0,1,,,,,,0,74,64
32448,note_on,,0,0,1,,,,,,0,66,92
32448,note_off,,96,0,1,,,,,,0,69,64
32544,note_on,,0,0,1,,,,,,0,62,92
32544,note_off,,96,0,1,,,,,,0,66,64
32640,note_on,,0,0,1,,,,,,0,66,92
32640,note_off,,96,0,1,,,,,,0,62,64
32736,note_off,,96,0,1,,,,,,0,66,64
32736,note_on,,0,0,1,,,,,,0,69,92
32832,note_off,,96,0,1,,,,,,0,69,64
32832,note_on,,0,0,1,,,,,,0,74,92
32928,note_off,,96,0,1,,,,,,0,74,64
32928,note_on,,0,0,1,,,,,,0,81,92
33024,note_off,,96,0,1,,,,,,0,81,64
33024,note_on,,0,0,1,,,,,,0,79,92
33120,note_on,,0,0,1,,,,,,0,74,92
33120,note_off,,96,0,1,,,,,,0,79,64
33216,note_off,,96,0,1,,,,,,0,74,64
33216,note_on,,0,0,1,,,,,,0,71,92
33312,note_off,,96,0,1,,,,,,0,71,64
33312,note_on,,0,0,1,,,,,,0,67,92
33408,note_off,,96,0,1,,,,,,0,67,64
33408,note_on,,0,0,1,,,,,,0,67,92
33504,note_off,,96,0,1,,,,,,0,67,64
33504,note_on,,0,0,1,,,,,,0,62,92
33600,note_on,,1344,0,2,,,,,,0,59,92
33600,note_off,,96,0,1,,,,,,0,62,64
33696,note_off,,96,0,2,,,,,,0,59,64
33696,note_on,,0,0,2,,,,,,0,55,92
33792,note_on,,192,0,1,,,,,,0,67,92
33792,note_off,,96,0,2,,,,,,0,55,64
33888,note_off,,96,0,1,,,,,,0,67,64
33888,note_on,,0,0,1,,,,,,0,62,92
33984,note_off,,96,0,1,,,,,,0,62,64
33984,note_on,,192,0,2,,,,,,0,59,92
34080,note_off,,96,0,2,,,,,,0,59,64
34080,note_on,,0,0,2,,,,,,0,55,92
34176,note_off,,96,0,2,,,,,,0,55,64
34176,note_on,,0,0,2,,,,,,0,57,92
34272,note_off,,96,0,2,,,,,,0,57,64
34272,note_on,,0,0,2,,,,,,0,61,92
34368,note_on,,384,0,1,,,,,,0,64,92
34368,note_off,,96,0,2,,,,,,0,61,64
34464,note_off,,96,0,1,,,,,,0,64,64
34464,note_on,,0,0,1,,,,,,0,67,92
34560,note_off,,96,0,1,,,,,,0,67,64
34560,note_on,,0,0,1,,,,,,0,65,92
34656,note_off,,96,0,1,,,,,,0,65,64
34656,note_on,,0,0,1,,,,,,0,62,92
34752,note_off,,96,0,1,,,,,,0,62,64
34752,note_on,,384,0,2,,,,,,0,57,92
34848,note_off,,96,0,2,,,,,,0,57,64
34848,note_on,,0,0,2,,,,,,0,53,92
34944,note_off,,96,0,2,,,,,,0,53,64
34944,note_on,,0,0,2,,,,,,0,62,92
35040,note_off,,96,0,2,,,,,,0,62,64
35040,note_on,,0,0,2,,,,,,0,57,92
35136,note_on,,0,0,2,,,,,,0,53,92
35136,note_off,,96,0,2,,,,,,0,57,64
35232,note_on,,0,0,2,,,,,,0,50,92
35232,note_off,,96,0,2,,,,,,0,53,64
35328,note_on,,576,0,1,,,,,,0,74,92
35328,note_off,,96,0,2,,,,,,0,50,64
35424,note_off,,96,0,1,,,,,,0,74,64
35424,note_on,,0,0,1,,,,,,0,69,92
35520,note_on,,0,0,1,,,,,,0,65,92
35520,note_off,,96,0,1,,,,,,0,69,64
35616,note_on,,0,0,1,,,,,,0,62,92
35616,note_off,,96,0,1,,,,,,0,65,64
35712,note_on,,0,0,1,,,,,,0,65,92
35712,note_off,,96,0,1,,,,,,0,62,64
35808,note_on,,0,0,1,,,,,,0,69,92
35808,note_off,,96,0,1,,,,,,0,65,64
35904,note_off,,96,0,1,,,,,,0,69,64
35904,note_on,,0,0,1,,,,,,0,74,92
36000,note_off,,96,0,1,,,,,,0,74,64
36000,note_on,,0,0,1,,,,,,0,77,92
36096,note_on,,768,0,2,,,,,,0,59,92
36096,note_on,,19200,0,3,,,,,,0,52,102
36096,note_on,,0,0,1,,,,,,0,68,92
36096,note_off,,96,0,1,,,,,,0,77,64
36192,note_on,,0,0,1,,,,,,0,66,92
36192,note_on,,0,0,2,,,,,,0,57,92
36192,note_off,,96,0,1,,,,,,0,68,64
36192,note_off,,96,0,2,,,,,,0,59,64
36288,note_off,,96,0,1,,,,,,0,66,64
36288,note_on,,0,0,1,,,,,,0,64,92
36288,note_on,,0,0,2,,,,,,0,56,92
36288,note_off,,96,0,2,,,,,,0,57,64
36384,note_on,,0,0,1,,,,,,0,68,92
36384,note_off,,96,0,1,,,,,,0,64,64
36384,note_on,,0,0,2,,,,,,0,59,92
36384,note_off,,96,0,2,,,,,,0,56,64
36480,note_on,,0,0,1,,,,,,0,69,92
36480,note_on,,0,0,2,,,,,,0,60,92
36480,note_off,,96,0,2,,,,,,0,59,64
36480,note_off,,96,0,1,,,,,,0,68,64
36576,note_off,,96,0,2,,,,,,0,60,64
36576,note_off,,96,0,1,,,,,,0,69,64
36576,note_on,,0,0,1,,,,,,0,72,92
36576,note_on,,0,0,2,,,,,,0,64,92
36672,note_off,,96,0,1,,,,,,0,72,64
36672,note_on,,0,0,1,,,,,,0,71,92
36672,note_off,,96,0,2,,,,,,0,64,64
36672,note_on,,0,0,2,,,,,,0,62,92
36768,note_off,,96,0,2,,,,,,0,62,64
36768,note_on,,0,0,2,,,,,,0,60,92
36768,note_on,,0,0,1,,,,,,0,69,92
36768,note_off,,96,0,1,,,,,,0,71,64
36864,note_off,,96,0,1,,,,,,0,69,64
36864,note_off,,96,0,2,,,,,,0,60,64
36864,note_on,,0,0,2,,,,,,0,59,92
36864,note_on,,0,0,1,,,,,,0,68,92
36960,note_off,,96,0,2,,,,,,0,59,64
36960,note_on,,0,0,2,,,,,,0,60,92
36960,note_on,,0,0,1,,,,,,0,76,92
36960,note_off,,96,0,1,,,,,,0,68,64
37056,note_on,,0,0,1,,,,,,0,74,92
37056,note_off,,96,0,1,,,,,,0,76,64
37056,note_on,,0,0,2,,,,,,0,59,92
37056,note_off,,96,0,2,,,,,,0,60,64
37152,note_off,,96,0,1,,,,,,0,74,64
37152,note_on,,0,0,2,,,,,,0,57,92
37152,note_off,,96,0,2,,,,,,0,59,64
37152,note_on,,0,0,1,,,,,,0,72,92
37248,note_on,,0,0,1,,,,,,0,71,92
37248,note_on,,0,0,2,,,,,,0,56,92
37248,note_off,,96,0,1,,,,,,0,72,64
37248,note_off,,96,0,2,,,,,,0,57,64
37344,note_off,,96,0,2,,,,,,0,56,64
37344,note_on,,0,0,2,,,,,,0,64,92
37344,note_off,,96,0,1,,,,,,0,71,64
37344,note_on,,0,0,1,,,,,,0,72,92
37440,note_off,,96,0,1,,,,,,0,72,64
37440,note_on,,0,0,2,,,,,,0,62,92
37440,note_on,,0,0,1,,,,,,0,71,92
37440,note_off,,96,0,2,,,,,,0,64,64
37536,note_off,,96,0,2,,,,,,0,62,64
37536,note_on,,0,0,1,,,,,,0,69,92
37536,note_off,,96,0,1,,,,,,0,71,64
37536,note_on,,0,0,2,,,,,,0,60,92
37632,note_on,,0,0,1,,,,,,0,68,92
37632,note_off,,96,0,1,,,,,,0,69,64
37632,note_off,,96,0,2,,,,,,0,60,64
37632,note_on,,0,0,2,,,,,,0,59,92
37728,note_on,,0,0,1,,,,,,0,76,92
37728,note_off,,96,0,1,,,,,,0,68,64
37728,note_off,,96,0,2,,,,,,0,59,64
37728,note_on,,0,0,2,,,,,,0,60,92
37824,note_on,,0,0,1,,,,,,0,74,92
37824,note_off,,96,0,2,,,,,,0,60,64
37824,note_on,,0,0,2,,,,,,0,59,92
37824,note_off,,96,0,1,,,,,,0,76,64
37920,note_on,,0,0,2,,,,,,0,57,92
37920,note_off,,96,0,2,,,,,,0,59,64
37920,note_off,,96,0,1,,,,,,0,74,64
37920,note_on,,0,0,1,,,,,,0,72,92
38016,note_off,,96,0,1,,,,,,0,72,64
38016,note_on,,0,0,1,,,,,,0,71,92
38016,note_on,,0,0,2,,,,,,0,56,92
38016,note_off,,96,0,2,,,,,,0,57,64
38112,note_on,,0,0,2,,,,,,0,64,92
38112,note_off,,96,0,2,,,,,,0,56,64
38112,note_off,,96,0,1,,,,,,0,71,64
38112,note_on,,0,0,1,,,,,,0,72,92
38208,note_off,,96,0,2,,,,,,0,64,64
38208,note_off,,96,0,1,,,,,,0,72,64
38208,note_on,,0,0,2,,,,,,0,62,92
38208,note_on,,0,0,1,,,,,,0,71,92
38304,note_off,,96,0,2,,,,,,0,62,64
38304,note_on,,0,0,1,,,,,,0,69,92
38304,note_off,,96,0,1,,,,,,0,71,64
38304,note_on,,0,0,2,,,,,,0,60,92
38400,note_on,,0,0,2,,,,,,0,59,92
38400,note_off,,96,0,2,,,,,,0,60,64
38400,note_off,,96,0,1,,,,,,0,69,64
38400,note_on,,0,0,1,,,,,,0,68,92
38496,note_on,,0,0,1,,,,,,0,69,92
38496,note_off,,96,0,1,,,,,,0,68,64
38496,note_off,,96,0,2,,,,,,0,59,64
38496,note_on,,0,0,2,,,,,,0,60,92
38592,note_on,,0,0,1,,,,,,0,71,92
38592,note_off,,96,0,1,,,,,,0,69,64
38592,note_off,,96,0,2,,,,,,0,60,64
38592,note_on,,0,0,2,,,,,,0,62,92
38688,note_on,,0,0,1,,,,,,0,69,92
38688,note_off,,96,0,1,,,,,,0,71,64
38688,note_on,,0,0,2,,,,,,0,60,92
38688,note_off,,96,0,2,,,,,,0,62,64
38784,note_off,,96,0,1,,,,,,0,69,64
38784,note_on,,0,0,1,,,,,,0,68,92
38784,note_on,,0,0,2,,,,,,0,59,92
38784,note_off,,96,0,2,,,,,,0,60,64
38880,note_off,,96,0,2,,,,,,0,59,64
38880,note_off,,96,0,1,,,,,,0,68,64
38880,note_on,,0,0,2,,,,,,0,62,92
38880,note_on,,0,0,1,,,,,,0,71,92
38976,note_on,,0,0,1,,,,,,0,69,92
38976,note_off,,96,0,2,,,,,,0,62,64
38976,note_on,,0,0,2,,,,,,0,60,92
38976,note_off,,96,0,1,,,,,,0,71,64
39072,note_on,,0,0,1,,,,,,0,68,92
39072,note_off,,96,0,1,,,,,,0,69,64
39072,note_on,,0,0,2,,,,,,0,59,92
39072,note_off,,96,0,2,,,,,,0,60,64
39168,note_off,,96,0,2,,,,,,0,59,64
39168,note_on,,0,0,2,,,,,,0,60,92
39168,note_off,,96,0,1,,,,,,0,68,64
39168,note_on,,0,0,1,,,,,,0,69,92
39264,note_off,,96,0,2,,,,,,0,60,64
39264,note_off,,96,0,1,,,,,,0,69,64
39264,note_on,,0,0,1,,,,,,0,71,92
39264,note_on,,0,0,2,,,,,,0,62,92
39360,note_on,,0,0,1,,,,,,0,72,92
39360,note_off,,96,0,2,,,,,,0,62,64
39360,note_on,,0,0,2,,,,,,0,64,92
39360,note_off,,96,0,1,,,,,,0,71,64
39456,note_on,,0,0,1,,,,,,0,71,92
39456,note_off,,96,0,1,,,,,,0,72,64
39456,note_off,,96,0,2,,,,,,0,64,64
39456,note_on,,0,0,2,,,,,,0,62,92
39552,note_on,,0,0,1,,,,,,0,69,92
39552,note_on,,0,0,2,,,,,,0,60,92
39552,note_off,,96,0,2,,,,,,0,62,64
39552,note_off,,96,0,1,,,,,,0,71,64
39648,note_off,,96,0,2,,,,,,0,60,64
39648,note_on,,0,0,1,,,,,,0,72,92
39648,note_off,,96,0,1,,,,,,0,69,64
39648,note_on,,0,0,2,,,,,,0,64,92
39744,note_off,,96,0,2,,,,,,0,64,64
39744,note_on,,0,0,2,,,,,,0,62,92
39744,note_off,,96,0,1,,,,,,0,72,64
39744,note_on,,0,0,1,,,,,,0,71,92
39840,note_off,,96,0,1,,,,,,0,71,64
39840,note_off,,96,0,2,,,,,,0,62,64
39840,note_on,,0,0,2,,,,,,0,60,92
39840,note_on,,0,0,1,,,,,,0,69,92
39936,note_on,,0,0,1,,,,,,0,68,92
39936,note_off,,96,0,2,,,,,,0,60,64
39936,note_on,,0,0,2,,,,,,0,59,92
39936,note_off,,96,0,1,,,,,,0,69,64
40032,note_off,,96,0,1,,,,,,0,68,64
40032,note_on,,0,0,1,,,,,,0,71,92
40032,note_off,,96,0,2,,,,,,0,59,64
40032,note_on,,0,0,2,,,,,,0,56,92
40128,note_off,,96,0,2,,,,,,0,56,64
40128,note_on,,0,0,1,,,,,,0,72,92
40128,note_off,,96,0,1,,,,,,0,71,64
40128,note_on,,0,0,2,,,,,,0,57,92
40224,note_off,,96,0,2,,,,,,0,57,64
40224,note_on,,0,0,2,,,,,,0,59,92
40224,note_on,,0,0,1,,,,,,0,74,92
40224,note_off,,96,0,1,,,,,,0,72,64
40320,note_off,,96,0,1,,,,,,0,74,64
40320,note_on,,0,0,1,,,,,,0,76,92
40320,note_off,,96,0,2,,,,,,0,59,64
40320,note_on,,0,0,2,,,,,,0,60,92
40416,note_on,,0,0,2,,,,,,0,59,92
40416,note_off,,96,0,2,,,,,,0,60,64
40416,note_on,,0,0,1,,,,,,0,68,92
40416,note_off,,96,0,1,,,,,,0,76,64
40512,note_off,,96,0,2,,,,,,0,59,64
40512,note_off,,96,0,1,,,,,,0,68,64
40512,note_on,,0,0,1,,,,,,0,69,92
40512,note_on,,0,0,2,,,,,,0,60,92
40608,note_off,,96,0,2,,,,,,0,60,64
40608,note_on,,0,0,2,,,,,,0,62,92
40608,note_off,,96,0,1,,,,,,0,69,64
40608,note_on,,0,0,1,,,,,,0,71,92
40704,note_off,,96,0,1,,,,,,0,71,64
40704,note_on,,0,0,1,,,,,,0,69,92
40704,note_off,,96,0,2,,,,,,0,62,64
40704,note_on,,0,0,2,,,,,,0,60,92
40896,note_off,,192,0,2,,,,,,0,60,64
40896,note_on,,0,0,2,,,,,,0,62,92
40896,note_off,,192,0,1,,,,,,0,69,64
40896,note_on,,0,0,1,,,,,,0,71,92
40992,note_on,,0,0,1,,,,,,0,72,92
40992,note_off,,96,0,1,,,,,,0,71,64
40992,note_on,,0,0,2,,,,,,0,64,92
40992,note_off,,96,0,2,,,,,,0,62,64
41088,note_off,,96,0,2,,,,,,0,64,64
41088,note_on,,0,0,2,,,,,,0,62,92
41088,note_off,,96,0,1,,,,,,0,72,64
41088,note_on,,0,0,1,,,,,,0,71,92
41376,note_off,,288,0,1,,,,,,0,71,64
41376,note_on,,0,0,1,,,,,,0,69,92
41376,note_off,,288,0,2,,,,,,0,62,64
41376,note_on,,0,0,2,,,,,,0,60,92
41472,note_off,,96,0,1,,,,,,0,69,64
41472,note_on,,0,0,1,,,,,,0,68,92
41472,note_off,,96,0,2,,,,,,0,60,64
41472,note_on,,0,0,2,,,,,,0,59,92
41568,note_on,,0,0,1,,,,,,0,64,92
41568,note_off,,96,0,1,,,,,,0,68,64
41664,note_off,,96,0,1,,,,,,0,64,64
41664,note_on,,0,0,2,,,,,,0,60,92
41664,note_on,,0,0,1,,,,,,0,69,92
41664,note_off,,192,0,2,,,,,,0,59,64
41760,note_on,,0,0,1,,,,,,0,64,92
41760,note_off,,96,0,1,,,,,,0,69,64
41856,note_on,,0,0,2,,,,,,0,56,92
41856,note_on,,0,0,1,,,,,,0,71,92
41856,note_off,,96,0,1,,,,,,0,64,64
41856,note_off,,192,0,2,,,,,,0,60,64
41952,note_on,,0,0,1,,,,,,0,64,92
41952,note_off,,96,0,1,,,,,,0,71,64
42048,note_off,,192,0,2,,,,,,0,56,64
42048,note_on,,0,0,1,,,,,,0,72,92
42048,note_off,,96,0,1,,,,,,0,64,64
42048,note_on,,0,0,2,,,,,,0,57,92
42144,note_on,,0,0,1,,,,,,0,64,92
42144,note_off,,96,0,1,,,,,,0,72,64
42240,note_on,,0,0,2,,,,,,0,59,92
42240,note_off,,192,0,2,,,,,,0,57,64
42240,note_off,,96,0,1,,,,,,0,64,64
42240,note_on,,0,0,1,,,,,,0,68,92
42336,note_off,,96,0,1,,,,,,0,68,64
42336,note_on,,0,0,1,,,,,,0,64,92
42432,note_off,,192,0,2,,,,,,0,59,64
42432,note_off,,96,0,1,,,,,,0,64,64
42432,note_on,,0,0,1,,,,,,0,69,92
42432,note_on,,0,0,2,,,,,,0,60,92
42528,note_off,,96,0,1,,,,,,0,69,64
42528,note_on,,0,0,1,,,,,,0,64,92
42624,note_off,,96,0,1,,,,,,0,64,64
42624,note_on,,0,0,1,,,,,,0,71,92
42624,note_on,,0,0,2,,,,,,0,56,92
42624,note_off,,192,0,2,,,,,,0,60,64
42720,note_on,,0,0,1,,,,,,0,64,92
42720,note_off,,96,0,1,,,,,,0,71,64
42816,note_off,,96,0,1,,,,,,0,64,64
42816,note_on,,0,0,1,,,,,,0,72,92
42816,note_on,,0,0,2,,,,,,0,57,92
42816,note_off,,192,0,2,,,,,,0,56,64
42912,note_off,,96,0,1,,,,,,0,72,64
42912,note_on,,0,0,1,,,,,,0,64,92
43008,note_off,,192,0,2,,,,,,0,57,64
43008,note_on,,0,0,2,,,,,,0,59,92
43008,note_off,,96,0,1,,,,,,0,64,64
43008,set_tempo,923070,26112,1,0,,,,,,,,
43056,note_on,,48,0,1,,,,,,0,68,92
43104,note_on,,0,0,1,,,,,,0,64,92
43104,note_off,,48,0,1,,,,,,0,68,64
43152,note_on,,0,0,1,,,,,,0,68,92
43152,note_off,,48,0,1,,,,,,0,64,64
43200,note_off,,48,0,1,,,,,,0,68,64
43200,note_on,,0,0,2,,,,,,0,60,92
43200,note_off,,192,0,2,,,,,,0,59,64
43248,note_on,,48,0,1,,,,,,0,69,92
43296,note_off,,48,0,1,,,,,,0,69,64
43296,note_on,,0,0,1,,,,,,0,64,92
43344,note_off,,48,0,1,,,,,,0,64,64
43344,note_on,,0,0,1,,,,,,0,69,92
43392,note_off,,192,0,2,,,,,,0,60,64
43392,note_on,,0,0,2,,,,,,0,56,92
43392,note_off,,48,0,1,,,,,,0,69,64
43440,note_on,,48,0,1,,,,,,0,71,92
43488,note_off,,48,0,1,,,,,,0,71,64
43488,note_on,,0,0,1,,,,,,0,64,92
43536,note_off,,48,0,1,,,,,,0,64,64
43536,note_on,,0,0,1,,,,,,0,71,92
43584,note_off,,48,0,1,,,,,,0,71,64
43584,note_on,,0,0,2,,,,,,0,57,92
43584,note_off,,192,0,2,,,,,,0,56,64
43632,note_on,,48,0,1,,,,,,0,72,92
43680,note_on,,0,0,1,,,,,,0,64,92
43680,note_off,,48,0,1,,,,,,0,72,64
43728,note_off,,48,0,1,,,,,,0,64,64
43728,note_on,,0,0,1,,,,,,0,72,92
43776,note_off,,48,0,1,,,,,,0,72,64
43776,note_on,,0,0,2,,,,,,0,59,92
43776,note_off,,192,0,2,,,,,,0,57,64
43824,note_on,,48,0,1,,,,,,0,68,92
43872,note_off,,48,0,1,,,,,,0,68,64
43872,note_on,,0,0,1,,,,,,0,64,92
43920,note_off,,48,0,1,,,,,,0,64,64
43920,note_on,,0,0,1,,,,,,0,68,92
43968,note_on,,0,0,2,,,,,,0,60,92
43968,note_off,,192,0,2,,,,,,0,59,64
43968,note_off,,48,0,1,,,,,,0,68,64
44016,note_on,,48,0,1,,,,,,0,69,92
44064,note_on,,0,0,1,,,,,,0,64,92
44064,note_off,,48,0,1,,,,,,0,69,64
44112,note_off,,48,0,1,,,,,,0,64,64
44112,note_on,,0,0,1,,,,,,0,69,92
44160,note_off,,48,0,1,,,,,,0,69,64
44160,note_on,,0,0,2,,,,,,0,56,92
44160,note_off,,192,0,2,,,,,,0,60,64
44208,note_on,,48,0,1,,,,,,0,71,92
44256,note_on,,0,0,1,,,,,,0,64,92
44256,note_off,,48,0,1,,,,,,0,71,64
44304,note_on,,0,0,1,,,,,,0,71,92
44304,note_off,,48,0,1,,,,,,0,64,64
44352,note_on,,0,0,2,,,,,,0,57,92
44352,note_off,,192,0,2,,,,,,0,56,64
44352,note_off,,48,0,1,,,,,,0,71,64
44400,note_on,,48,0,1,,,,,,0,72,92
44448,note_off,,48,0,1,,,,,,0,72,64
44448,note_on,,0,0,1,,,,,,0,64,92
44496,note_off,,48,0,1,,,,,,0,64,64
44496,note_on,,0,0,1,,,,,,0,72,92
44544,note_off,,48,0,1,,,,,,0,72,64
44544,note_off,,192,0,2,,,,,,0,57,64
44544,note_on,,0,0,1,,,,,,0,68,92
44544,note_on,,0,0,2,,,,,,0,59,92
44640,note_off,,96,0,1,,,,,,0,68,64
44640,note_on,,0,0,1,,,,,,0,64,92
44736,note_off,,192,0,2,,,,,,0,59,64
44736,note_on,,0,0,2,,,,,,0,60,92
44736,note_off,,96,0,1,,,,,,0,64,64
44736,note_on,,0,0,1,,,,,,0,69,92
44928,note_off,,192,0,2,,,,,,0,60,64
44928,note_on,,0,0,2,,,,,,0,59,92
44928,note_off,,192,0,1,,,,,,0,69,64
44928,note_on,,0,0,1,,,,,,0,69,92
45120,note_off,,192,0,2,,,,,,0,59,64
45120,note_off,,192,0,1,,,,,,0,69,64
45120,note_on,,0,0,1,,,,,,0,64,92
45120,note_on,,0,0,1,,,,,,0,68,92
45216,note_off,,96,0,1,,,,,,0,64,64
45216,note_on,,0,0,1,,,,,,0,62,92
45312,note_on,,0,0,1,,,,,,0,61,92
45312,note_on,,0,0,1,,,,,,0,69,92
45312,note_on,,0,0,3,,,,,,0,57,102
45312,note_off,,96,0,1,,,,,,0,62,64
45312,note_off,,9216,0,3,,,,,,0,52,64
45312,note_off,,0,0,1,,,,,,0,68,64
45504,note_on,,0,0,1,,,,,,0,62,92
45504,note_off,,192,0,1,,,,,,0,61,64
45600,note_off,,96,0,1,,,,,,0,69,64
45600,note_on,,0,0,1,,,,,,0,71,92
45696,note_off,,96,0,1,,,,,,0,71,64
45696,note_off,,0,0,1,,,,,,0,62,64
45696,note_on,,0,0,1,,,,,,0,64,92
45696,note_on,,0,0,1,,,,,,0,73,92
45888,note_off,,192,0,1,,,,,,0,64,64
45888,note_on,,0,0,1,,,,,,0,65,92
45984,note_off,,96,0,1,,,,,,0,73,64
45984,note_on,,0,0,1,,,,,,0,74,92
46080,note_off,,96,0,1,,,,,,0,74,64
46080,note_off,,0,0,1,,,,,,0,65,64
46080,note_on,,0,0,1,,,,,,0,64,92
46080,note_on,,0,0,1,,,,,,0,73,92
46176,note_off,,96,0,1,,,,,,0,73,64
46176,note_on,,0,0,1,,,,,,0,69,92
46272,note_off,,96,0,1,,,,,,0,69,64
46272,note_off,,0,0,1,,,,,,0,64,64
46272,note_on,,0,0,1,,,,,,0,65,92
46272,note_on,,0,0,1,,,,,,0,74,92
46368,note_off,,96,0,1,,,,,,0,74,64
46368,note_on,,0,0,1,,,,,,0,69,92
46464,note_off,,96,0,1,,,,,,0,69,64
46464,note_off,,0,0,1,,,,,,0,65,64
46464,note_on,,0,0,1,,,,,,0,61,92
46464,note_on,,0,0,1,,,,,,0,76,92
46560,note_on,,0,0,1,,,,,,0,69,92
46560,note_off,,96,0,1,,,,,,0,76,64
46656,note_off,,96,0,1,,,,,,0,69,64
46656,note_off,,0,0,1,,,,,,0,61,64
46656,note_on,,0,0,1,,,,,,0,62,92
46656,note_on,,0,0,1,,,,,,0,77,92
46752,note_off,,96,0,1,,,,,,0,77,64
46752,note_on,,0,0,1,,,,,,0,69,92
46848,note_off,,96,0,1,,,,,,0,69,64
46848,note_off,,0,0,1,,,,,,0,62,64
46848,note_on,,0,0,1,,,,,,0,64,92
46848,note_on,,0,0,1,,,,,,0,73,92
46944,note_off,,96,0,1,,,,,,0,73,64
46944,note_on,,0,0,1,,,,,,0,69,92
47040,note_on,,0,0,1,,,,,,0,74,92
47040,note_off,,96,0,1,,,,,,0,69,64
47040,note_off,,0,0,1,,,,,,0,64,64
47040,note_on,,0,0,1,,,,,,0,65,92
47136,note_off,,96,0,1,,,,,,0,74,64
47136,note_on,,0,0,1,,,,,,0,69,92
47232,note_on,,0,0,1,,,,,,0,61,92
47232,note_off,,96,0,1,,,,,,0,69,64
47232,note_off,,0,0,1,,,,,,0,65,64
47232,note_on,,0,0,1,,,,,,0,76,92
47328,note_off,,96,0,1,,,,,,0,76,64
47328,note_on,,0,0,1,,,,,,0,69,92
47424,note_on,,0,0,1,,,,,,0,77,92
47424,note_on,,0,0,1,,,,,,0,62,92
47424,note_off,,0,0,1,,,,,,0,61,64
47424,note_off,,96,0,1,,,,,,0,69,64
47520,note_off,,96,0,1,,,,,,0,77,64
47520,note_on,,0,0,1,,,,,,0,69,92
47616,note_on,,0,0,1,,,,,,0,64,92
47616,note_off,,0,0,1,,,,,,0,62,64
47616,note_off,,96,0,1,,,,,,0,69,64
47664,note_on,,48,0,1,,,,,,0,73,92
47712,note_off,,48,0,1,,,,,,0,73,64
47712,note_on,,0,0,1,,,,,,0,69,92
47760,note_on,,0,0,1,,,,,,0,73,92
47760,note_off,,48,0,1,,,,,,0,69,64
47808,note_on,,0,0,1,,,,,,0,65,92
47808,note_off,,0,0,1,,,,,,0,64,64
47808,note_off,,48,0,1,,,,,,0,73,64
47856,note_on,,48,0,1,,,,,,0,74,92
47904,note_off,,48,0,1,,,,,,0,74,64
47904,note_on,,0,0,1,,,,,,0,69,92
47952,note_off,,48,0,1,,,,,,0,69,64
47952,note_on,,0,0,1,,,,,,0,74,92
48000,note_off,,48,0,1,,,,,,0,74,64
48000,note_off,,0,0,1,,,,,,0,65,64
48000,note_on,,0,0,1,,,,,,0,61,92
48048,note_on,,48,0,1,,,,,,0,76,92
48096,note_off,,48,0,1,,,,,,0,76,64
48096,note_on,,0,0,1,,,,,,0,69,92
48144,note_off,,48,0,1,,,,,,0,69,64
48144,note_on,,0,0,1,,,,,,0,76,92
48192,note_on,,0,0,1,,,,,,0,62,92
48192,note_off,,0,0,1,,,,,,0,61,64
48192,note_off,,48,0,1,,,,,,0,76,64
48240,note_on,,48,0,1,,,,,,0,77,92
48288,note_on,,0,0,1,,,,,,0,69,92
48288,note_off,,48,0,1,,,,,,0,77,64
48336,note_on,,0,0,1,,,,,,0,77,92
48336,note_off,,48,0,1,,,,,,0,69,64
48384,note_on,,0,0,1,,,,,,0,64,92
48384,note_off,,0,0,1,,,,,,0,62,64
48384,note_off,,48,0,1,,,,,,0,77,64
48432,note_on,,48,0,1,,,,,,0,73,92
48480,note_off,,48,0,1,,,,,,0,73,64
48480,note_on,,0,0,1,,,,,,0,69,92
48528,note_off,,48,0,1,,,,,,0,69,64
48528,note_on,,0,0,1,,,,,,0,73,92
48576,note_off,,48,0,1,,,,,,0,73,64
48576,note_off,,0,0,1,,,,,,0,64,64
48576,note_on,,0,0,1,,,,,,0,65,92
48624,note_on,,48,0,1,,,,,,0,74,92
48672,note_off,,48,0,1,,,,,,0,74,64
48672,note_on,,0,0,1,,,,,,0,69,92
48720,note_off,,48,0,1,,,,,,0,69,64
48720,note_on,,0,0,1,,,,,,0,74,92
48768,note_off,,48,0,1,,,,,,0,74,64
48768,note_off,,0,0,1,,,,,,0,65,64
48768,note_on,,0,0,1,,,,,,0,61,92
48816,note_on,,48,0,1,,,,,,0,76,92
48864,note_on,,0,0,1,,,,,,0,69,92
48864,note_off,,48,0,1,,,,,,0,76,64
48912,note_on,,0,0,1,,,,,,0,76,92
48912,note_off,,48,0,1,,,,,,0,69,64
48960,note_off,,0,0,1,,,,,,0,61,64
48960,note_on,,0,0,1,,,,,,0,62,92
48960,note_off,,48,0,1,,,,,,0,76,64
49008,note_on,,48,0,1,,,,,,0,77,92
49056,note_on,,0,0,1,,,,,,0,69,92
49056,note_off,,48,0,1,,,,,,0,77,64
49104,note_off,,48,0,1,,,,,,0,69,64
49104,note_on,,0,0,1,,,,,,0,77,92
49152,note_off,,48,0,1,,,,,,0,77,64
49152,note_on,,0,0,1,,,,,,0,73,92
49152,note_on,,0,0,1,,,,,,0,64,92
49152,note_off,,0,0,1,,,,,,0,62,64
49248,note_off,,96,0,1,,,,,,0,73,64
49248,note_on,,0,0,1,,,,,,0,69,92
49344,note_off,,96,0,1,,,,,,0,69,64
49344,note_off,,0,0,1,,,,,,0,64,64
49344,note_on,,0,0,1,,,,,,0,74,92
49344,note_on,,0,0,1,,,,,,0,65,92
49536,note_on,,0,0,1,,,,,,0,64,92
49536,note_off,,0,0,1,,,,,,0,74,64
49536,note_off,,192,0,1,,,,,,0,65,64
49536,note_on,,0,0,1,,,,,,0,74,92
49728,note_off,,192,0,1,,,,,,0,64,64
49728,note_off,,0,0,1,,,,,,0,74,64
49728,note_on,,0,0,1,,,,,,0,69,92
49728,note_on,,0,0,1,,,,,,0,73,92
49824,note_off,,96,0,1,,,,,,0,69,64
49824,note_on,,0,0,1,,,,,,0,67,92
49920,note_on,,0,0,1,,,,,,0,66,92
49920,note_on,,0,0,1,,,,,,0,74,92
49920,note_on,,0,0,3,,,,,,0,62,102
49920,note_off,,96,0,1,,,,,,0,67,64
49920,note_off,,0,0,1,,,,,,0,73,64
49920,note_off,,4608,0,3,,,,,,0,57,64
50112,note_off,,192,0,1,,,,,,0,66,64
50112,note_on,,0,0,1,,,,,,0,67,92
50208,note_off,,96,0,1,,,,,,0,74,64
50208,note_on,,0,0,1,,,,,,0,76,92
50304,note_on,,0,0,1,,,,,,0,69,92
50304,note_off,,96,0,1,,,,,,0,76,64
50304,note_off,,0,0,1,,,,,,0,67,64
50304,note_on,,0,0,1,,,,,,0,78,92
50496,note_off,,192,0,1,,,,,,0,69,64
50496,note_on,,0,0,1,,,,,,0,70,92
50592,note_off,,96,0,1,,,,,,0,78,64
50592,note_on,,0,0,1,,,,,,0,79,92
50688,note_on,,0,0,1,,,,,,0,78,92
50688,note_off,,0,0,1,,,,,,0,70,64
50688,note_off,,96,0,1,,,,,,0,79,64
50688,note_on,,0,0,1,,,,,,0,69,92
50784,note_on,,0,0,1,,,,,,0,74,92
50784,note_off,,96,0,1,,,,,,0,78,64
50880,note_off,,0,0,1,,,,,,0,69,64
50880,note_on,,0,0,1,,,,,,0,79,92
50880,note_on,,0,0,1,,,,,,0,70,92
50880,note_off,,96,0,1,,,,,,0,74,64
50976,note_off,,96,0,1,,,,,,0,79,64
50976,note_on,,0,0,1,,,,,,0,74,92
51072,note_on,,0,0,1,,,,,,0,66,92
51072,note_off,,96,0,1,,,,,,0,74,64
51072,note_off,,0,0,1,,,,,,0,70,64
51072,note_on,,0,0,1,,,,,,0,81,92
51168,note_off,,96,0,1,,,,,,0,81,64
51168,note_on,,0,0,1,,,,,,0,74,92
51264,note_on,,0,0,1,,,,,,0,67,92
51264,note_on,,0,0,1,,,,,,0,82,92
51264,note_off,,0,0,1,,,,,,0,66,64
51264,note_off,,96,0,1,,,,,,0,74,64
51360,note_off,,96,0,1,,,,,,0,82,64
51360,note_on,,0,0,1,,,,,,0,74,92
51456,note_on,,0,0,1,,,,,,0,69,92
51456,note_on,,0,0,1,,,,,,0,78,92
51456,note_off,,0,0,1,,,,,,0,67,64
51456,note_off,,96,0,1,,,,,,0,74,64
51552,note_on,,0,0,1,,,,,,0,74,92
51552,note_off,,96,0,1,,,,,,0,78,64
51648,note_off,,96,0,1,,,,,,0,74,64
51648,note_off,,0,0,1,,,,,,0,69,64
51648,note_on,,0,0,1,,,,,,0,79,92
51648,note_on,,0,0,1,,,,,,0,70,92
51744,note_off,,96,0,1,,,,,,0,79,64
51744,note_on,,0,0,1,,,,,,0,74,92
51840,note_on,,0,0,1,,,,,,0,66,92
51840,note_on,,0,0,1,,,,,,0,81,92
51840,note_off,,96,0,1,,,,,,0,74,64
51840,note_off,,0,0,1,,,,,,0,70,64
51936,note_off,,96,0,1,,,,,,0,81,64
51936,note_on,,0,0,1,,,,,,0,74,92
52032,note_on,,0,0,1,,,,,,0,82,92
52032,note_on,,0,0,1,,,,,,0,67,92
52032,note_off,,0,0,1,,,,,,0,66,64
52032,note_off,,96,0,1,,,,,,0,74,64
52128,note_off,,96,0,1,,,,,,0,82,64
52128,note_on,,0,0,1,,,,,,0,74,92
52224,note_off,,96,0,1,,,,,,0,74,64
52224,note_off,,0,0,1,,,,,,0,67,64
52224,note_on,,0,0,1,,,,,,0,69,92
52272,note_on,,48,0,1,,,,,,0,78,92
52320,note_on,,0,0,1,,,,,,0,74,92
52320,note_off,,48,0,1,,,,,,0,78,64
52368,note_off,,48,0,1,,,,,,0,74,64
52368,note_on,,0,0,1,,,,,,0,78,92
52416,note_on,,0,0,1,,,,,,0,70,92
52416,note_off,,48,0,1,,,,,,0,78,64
52416,note_off,,0,0,1,,,,,,0,69,64
52464,note_on,,48,0,1,,,,,,0,79,92
52512,note_on,,0,0,1,,,,,,0,74,92
52512,note_off,,48,0,1,,,,,,0,79,64
52560,note_off,,48,0,1,,,,,,0,74,64
52560,note_on,,0,0,1,,,,,,0,79,92
52608,note_off,,48,0,1,,,,,,0,79,64
52608,note_on,,0,0,1,,,,,,0,66,92
52608,note_off,,0,0,1,,,,,,0,70,64
52656,note_on,,48,0,1,,,,,,0,81,92
52704,note_on,,0,0,1,,,,,,0,74,92
52704,note_off,,48,0,1,,,,,,0,81,64
52752,note_off,,48,0,1,,,,,,0,74,64
52752,note_on,,0,0,1,,,,,,0,81,92
52800,note_off,,0,0,1,,,,,,0,66,64
52800,note_off,,48,0,1,,,,,,0,81,64
52800,note_on,,0,0,1,,,,,,0,67,92
52848,note_on,,48,0,1,,,,,,0,82,92
52896,note_off,,48,0,1,,,,,,0,82,64
52896,note_on,,0,0,1,,,,,,0,74,92
52944,note_off,,48,0,1,,,,,,0,74,64
52944,note_on,,0,0,1,,,,,,0,82,92
52992,note_on,,0,0,1,,,,,,0,69,92
52992,note_off,,48,0,1,,,,,,0,82,64
52992,note_off,,0,0,1,,,,,,0,67,64
53040,note_on,,48,0,1,,,,,,0,78,92
53088,note_off,,48,0,1,,,,,,0,78,64
53088,note_on,,0,0,1,,,,,,0,74,92
53136,note_on,,0,0,1,,,,,,0,78,92
53136,note_off,,48,0,1,,,,,,0,74,64
53184,note_off,,0,0,1,,,,,,0,69,64
53184,note_off,,48,0,1,,,,,,0,78,64
53184,note_on,,0,0,1,,,,,,0,70,92
53232,note_on,,48,0,1,,,,,,0,79,92
53280,note_off,,48,0,1,,,,,,0,79,64
53280,note_on,,0,0,1,,,,,,0,74,92
53328,note_on,,0,0,1,,,,,,0,79,92
53328,note_off,,48,0,1,,,,,,0,74,64
53376,note_off,,48,0,1,,,,,,0,79,64
53376,note_off,,0,0,1,,,,,,0,70,64
53376,note_on,,0,0,1,,,,,,0,66,92
53424,note_on,,48,0,1,,,,,,0,81,92
53472,note_off,,48,0,1,,,,,,0,81,64
53472,note_on,,0,0,1,,,,,,0,74,92
53520,note_off,,48,0,1,,,,,,0,74,64
53520,note_on,,0,0,1,,,,,,0,81,92
53568,note_off,,48,0,1,,,,,,0,81,64
53568,note_off,,0,0,1,,,,,,0,66,64
53568,note_on,,0,0,1,,,,,,0,67,92
53616,note_on,,48,0,1,,,,,,0,82,92
53664,note_off,,48,0,1,,,,,,0,82,64
53664,note_on,,0,0,1,,,,,,0,74,92
53712,note_on,,0,0,1,,,,,,0,82,92
53712,note_off,,48,0,1,,,,,,0,74,64
53760,note_off,,48,0,1,,,,,,0,82,64
53760,note_off,,0,0,1,,,,,,0,67,64
53760,note_on,,0,0,1,,,,,,0,78,92
53760,note_on,,0,0,1,,,,,,0,69,92
53856,note_off,,96,0,1,,,,,,0,78,64
53856,note_on,,0,0,1,,,,,,0,74,92
53952,note_off,,96,0,1,,,,,,0,74,64
53952,note_off,,0,0,1,,,,,,0,69,64
53952,note_on,,0,0,1,,,,,,0,79,92
53952,note_on,,0,0,1,,,,,,0,70,92
54144,note_off,,192,0,1,,,,,,0,70,64
54144,note_off,,0,0,1,,,,,,0,79,64
54144,note_on,,0,0,1,,,,,,0,69,92
54144,note_on,,0,0,1,,,,,,0,79,92
54432,note_off,,288,0,1,,,,,,0,79,64
54432,note_on,,0,0,1,,,,,,0,78,92
54528,note_off,,0,0,1,,,,,,0,69,64
54528,note_on,,0,0,1,,,,,,0,67,92
54528,note_on,,0,0,1,,,,,,0,79,92
54528,note_off,,96,0,1,,,,,,0,78,64
54528,note_on,,0,0,3,,,,,,0,55,102
54528,note_off,,4608,0,3,,,,,,0,62,64
54720,note_off,,192,0,1,,,,,,0,79,64
54720,note_off,,0,0,1,,,,,,0,67,64
54720,note_on,,0,0,1,,,,,,0,74,92
54720,note_on,,0,0,1,,,,,,0,82,92
54816,note_off,,96,0,1,,,,,,0,82,64
54816,note_off,,0,0,1,,,,,,0,74,64
54816,note_on,,0,0,1,,,,,,0,72,92
54816,note_on,,0,0,1,,,,,,0,81,92
54912,note_on,,0,0,1,,,,,,0,70,92
54912,note_off,,96,0,1,,,,,,0,81,64
54912,note_off,,0,0,1,,,,,,0,72,64
54912,note_on,,0,0,1,,,,,,0,79,92
55008,note_on,,0,0,1,,,,,,0,77,92
55008,note_on,,0,0,1,,,,,,0,69,92
55008,note_off,,0,0,1,,,,,,0,70,64
55008,note_off,,96,0,1,,,,,,0,79,64
55104,note_off,,96,0,1,,,,,,0,77,64
55104,note_off,,0,0,1,,,,,,0,69,64
55104,note_on,,0,0,1,,,,,,0,67,92
55104,note_on,,0,0,1,,,,,,0,76,92
55200,note_off,,96,0,1,,,,,,0,76,64
55200,note_off,,0,0,1,,,,,,0,67,64
55200,note_on,,0,0,1,,,,,,0,65,92
55200,note_on,,0,0,1,,,,,,0,74,92
55296,note_off,,0,0,1,,,,,,0,65,64
55296,note_on,,0,0,1,,,,,,0,73,92
55296,note_on,,0,0,1,,,,,,0,64,92
55296,note_off,,768,0,3,,,,,,0,55,64
55296,note_on,,0,0,3,,,,,,0,57,102
55296,note_off,,96,0,1,,,,,,0,74,64
55392,note_off,,96,0,1,,,,,,0,73,64
55392,note_on,,0,0,1,,,,,,0,69,92
55488,note_off,,96,0,1,,,,,,0,69,64
55488,note_off,,0,0,1,,,,,,0,64,64
55488,note_on,,0,0,1,,,,,,0,74,92
55488,note_on,,0,0,1,,,,,,0,65,92
55584,note_off,,96,0,1,,,,,,0,74,64
55584,note_on,,0,0,1,,,,,,0,69,92
55680,note_on,,0,0,1,,,,,,0,76,92
55680,note_on,,0,0,1,,,,,,0,61,92
55680,note_off,,96,0,1,,,,,,0,69,64
55680,note_off,,0,0,1,,,,,,0,65,64
55776,note_off,,96,0,1,,,,,,0,76,64
55776,note_on,,0,0,1,,,,,,0,69,92
55872,note_off,,96,0,1,,,,,,0,69,64
55872,note_off,,0,0,1,,,,,,0,61,64
55872,note_on,,0,0,1,,,,,,0,77,92
55872,note_on,,0,0,1,,,,,,0,62,92
55968,note_on,,0,0,1,,,,,,0,69,92
55968,note_off,,96,0,1,,,,,,0,77,64
56064,note_on,,0,0,1,,,,,,0,73,92
56064,note_on,,0,0,1,,,,,,0,64,92
56064,note_off,,96,0,1,,,,,,0,69,64
56064,note_off,,0,0,1,,,,,,0,62,64
56160,note_off,,96,0,1,,,,,,0,73,64
56160,note_on,,0,0,1,,,,,,0,69,92
56256,note_off,,96,0,1,,,,,,0,69,64
56256,note_off,,0,0,1,,,,,,0,64,64
56256,note_on,,0,0,1,,,,,,0,74,92
56256,note_on,,0,0,1,,,,,,0,65,92
56352,note_off,,96,0,1,,,,,,0,74,64
56352,note_on,,0,0,1,,,,,,0,69,92
56448,note_on,,0,0,1,,,,,,0,61,92
56448,note_on,,0,0,1,,,,,,0,76,92
56448,note_off,,0,0,1,,,,,,0,65,64
56448,note_off,,96,0,1,,,,,,0,69,64
56544,note_off,,96,0,1,,,,,,0,76,64
56544,note_on,,0,0,1,,,,,,0,69,92
56640,note_off,,96,0,1,,,,,,0,69,64
56640,note_off,,0,0,1,,,,,,0,61,64
56640,note_on,,0,0,1,,,,,,0,77,92
56640,note_on,,0,0,1,,,,,,0,62,92
56736,note_on,,0,0,1,,,,,,0,69,92
56736,note_off,,96,0,1,,,,,,0,77,64
56832,note_on,,0,0,1,,,,,,0,64,92
56832,note_off,,0,0,1,,,,,,0,62,64
56832,note_off,,96,0,1,,,,,,0,69,64
56880,note_on,,48,0,1,,,,,,0,73,92
56928,note_off,,48,0,1,,,,,,0,73,64
56928,note_on,,0,0,1,,,,,,0,69,92
56976,note_off,,48,0,1,,,,,,0,69,64
56976,note_on,,0,0,1,,,,,,0,73,92
57024,note_off,,48,0,1,,,,,,0,73,64
57024,note_off,,0,0,1,,,,,,0,64,64
57024,note_on,,0,0,1,,,,,,0,65,92
57072,note_on,,48,0,1,,,,,,0,74,92
57120,note_off,,48,0,1,,,,,,0,74,64
57120,note_on,,0,0,1,,,,,,0,69,92
57168,note_off,,48,0,1,,,,,,0,69,64
57168,note_on,,0,0,1,,,,,,0,74,92
57216,note_off,,48,0,1,,,,,,0,74,64
57216,note_off,,0,0,1,,,,,,0,65,64
57216,note_on,,0,0,1,,,,,,0,61,92
57264,note_on,,48,0,1,,,,,,0,76,92
57312,note_off,,48,0,1,,,,,,0,76,64
57312,note_on,,0,0,1,,,,,,0,69,92
57360,note_on,,0,0,1,,,,,,0,76,92
57360,note_off,,48,0,1,,,,,,0,69,64
57408,note_off,,48,0,1,,,,,,0,76,64
57408,note_off,,0,0,1,,,,,,0,61,64
57408,note_on,,0,0,1,,,,,,0,62,92
57456,note_on,,48,0,1,,,,,,0,77,92
57504,note_off,,48,0,1,,,,,,0,77,64
57504,note_on,,0,0,1,,,,,,0,69,92
57552,note_off,,48,0,1,,,,,,0,69,64
57552,note_on,,0,0,1,,,,,,0,77,92
57600,note_off,,0,0,1,,,,,,0,62,64
57600,note_on,,0,0,1,,,,,,0,64,92
57600,note_off,,48,0,1,,,,,,0,77,64
57648,note_on,,48,0,1,,,,,,0,73,92
57696,note_off,,48,0,1,,,,,,0,73,64
57696,note_on,,0,0,1,,,,,,0,69,92
57744,note_off,,48,0,1,,,,,,0,69,64
57744,note_on,,0,0,1,,,,,,0,73,92
57792,note_off,,48,0,1,,,,,,0,73,64
57792,note_off,,0,0,1,,,,,,0,64,64
57792,note_on,,0,0,1,,,,,,0,65,92
57840,note_on,,48,0,1,,,,,,0,74,92
57888,note_on,,0,0,1,,,,,,0,69,92
57888,note_off,,48,0,1,,,,,,0,74,64
57936,note_off,,48,0,1,,,,,,0,69,64
57936,note_on,,0,0,1,,,,,,0,74,92
57984,note_off,,48,0,1,,,,,,0,74,64
57984,note_off,,0,0,1,,,,,,0,65,64
57984,note_on,,0,0,1,,,,,,0,61,92
58032,note_on,,48,0,1,,,,,,0,76,92
58080,note_off,,48,0,1,,,,,,0,76,64
58080,note_on,,0,0,1,,,,,,0,69,92
58128,note_off,,48,0,1,,,,,,0,69,64
58128,note_on,,0,0,1,,,,,,0,76,92
58176,note_on,,0,0,1,,,,,,0,62,92
58176,note_off,,0,0,1,,,,,,0,61,64
58176,note_off,,48,0,1,,,,,,0,76,64
58224,note_on,,48,0,1,,,,,,0,77,92
58272,note_off,,48,0,1,,,,,,0,77,64
58272,note_on,,0,0,1,,,,,,0,69,92
58320,note_off,,48,0,1,,,,,,0,69,64
58320,note_on,,0,0,1,,,,,,0,77,92
58368,note_off,,48,0,1,,,,,,0,77,64
58368,note_off,,0,0,1,,,,,,0,62,64
58368,note_on,,0,0,1,,,,,,0,73,92
58368,note_on,,0,0,1,,,,,,0,64,92
58464,note_on,,0,0,1,,,,,,0,69,92
58464,note_off,,96,0,1,,,,,,0,73,64
58560,note_off,,96,0,1,,,,,,0,69,64
58560,note_off,,0,0,1,,,,,,0,64,64
58560,note_on,,0,0,1,,,,,,0,74,92
58560,note_on,,0,0,1,,,,,,0,65,92
58752,note_off,,192,0,1,,,,,,0,65,64
58752,note_off,,0,0,1,,,,,,0,74,64
58752,note_on,,0,0,1,,,,,,0,64,92
58752,note_on,,0,0,1,,,,,,0,74,92
59040,note_off,,288,0,1,,,,,,0,74,64
59040,note_on,,0,0,1,,,,,,0,73,92
59136,note_on,,0,0,3,,,,,,0,50,102
59136,note_on,,0,0,1,,,,,,0,74,92
59136,note_off,,96,0,1,,,,,,0,73,64
59136,note_off,,0,0,1,,,,,,0,64,64
59136,note_off,,3840,0,3,,,,,,0,57,64
59136,note_on,,0,0,1,,,,,,0,62,92
59328,note_off,,192,0,1,,,,,,0,74,64
59328,note_off,,0,0,1,,,,,,0,62,64
59328,note_on,,0,0,1,,,,,,0,69,92
59328,note_on,,0,0,1,,,,,,0,77,92
59424,note_on,,0,0,1,,,,,,0,76,92
59424,note_off,,96,0,1,,,,,,0,77,64
59424,note_off,,0,0,1,,,,,,0,69,64
59424,note_on,,0,0,1,,,,,,0,67,92
59520,note_off,,96,0,1,,,,,,0,76,64
59520,note_off,,0,0,1,,,,,,0,67,64
59520,note_on,,0,0,1,,,,,,0,65,92
59520,note_on,,0,0,1,,,,,,0,74,92
59616,note_off,,96,0,1,,,,,,0,74,64
59616,note_on,,0,0,1,,,,,,0,72,92
59616,note_on,,0,0,1,,,,,,0,64,92
59616,note_off,,0,0,1,,,,,,0,65,64
59712,note_on,,0,0,1,,,,,,0,62,92
59712,note_off,,0,0,1,,,,,,0,64,64
59712,note_off,,96,0,1,,,,,,0,72,64
59712,note_on,,0,0,1,,,,,,0,71,92
59808,note_on,,0,0,1,,,,,,0,60,92
59808,note_on,,0,0,1,,,,,,0,69,92
59808,note_off,,0,0,1,,,,,,0,62,64
59808,note_off,,96,0,1,,,,,,0,71,64
59904,note_off,,768,0,3,,,,,,0,50,64
59904,note_on,,0,0,3,,,,,,0,52,102
59904,note_on,,14784,0,2,,,,,,0,59,92
59904,note_off,,96,0,1,,,,,,0,69,64
59904,note_off,,0,0,1,,,,,,0,60,64
59904,note_on,,0,0,1,,,,,,0,68,92
60000,note_off,,96,0,1,,,,,,0,68,64
60000,note_on,,0,0,1,,,,,,0,64,92
60096,note_on,,0,0,1,,,,,,0,69,92
60096,note_on,,0,0,2,,,,,,0,60,92
60096,note_off,,192,0,2,,,,,,0,59,64
60096,note_off,,96,0,1,,,,,,0,64,64
60192,note_on,,0,0,1,,,,,,0,64,92
60192,note_off,,96,0,1,,,,,,0,69,64
60288,note_off,,192,0,2,,,,,,0,60,64
60288,note_on,,0,0,2,,,,,,0,56,92
60288,note_on,,0,0,1,,,,,,0,71,92
60288,note_off,,96,0,1,,,,,,0,64,64
60384,note_on,,0,0,1,,,,,,0,64,92
60384,note_off,,96,0,1,,,,,,0,71,64
60480,note_on,,0,0,2,,,,,,0,57,92
60480,note_off,,192,0,2,,,,,,0,56,64
60480,note_off,,96,0,1,,,,,,0,64,64
60480,note_on,,0,0,1,,,,,,0,72,92
60576,note_off,,96,0,1,,,,,,0,72,64
60576,note_on,,0,0,1,,,,,,0,64,92
60672,note_off,,192,0,2,,,,,,0,57,64
60672,note_off,,96,0,1,,,,,,0,64,64
60672,note_on,,0,0,1,,,,,,0,68,92
60672,note_on,,0,0,2,,,,,,0,59,92
60768,note_off,,96,0,1,,,,,,0,68,64
60768,note_on,,0,0,1,,,,,,0,64,92
60864,note_on,,0,0,2,,,,,,0,60,92
60864,note_off,,192,0,2,,,,,,0,59,64
60864,note_on,,0,0,1,,,,,,0,69,92
60864,note_off,,96,0,1,,,,,,0,64,64
60960,note_off,,96,0,1,,,,,,0,69,64
60960,note_on,,0,0,1,,,,,,0,64,92
61056,note_off,,96,0,1,,,,,,0,64,64
61056,note_on,,0,0,1,,,,,,0,71,92
61056,note_off,,192,0,2,,,,,,0,60,64
61056,note_on,,0,0,2,,,,,,0,56,92
61152,note_off,,96,0,1,,,,,,0,71,64
61152,note_on,,0,0,1,,,,,,0,64,92
61248,note_off,,192,0,2,,,,,,0,56,64
61248,note_on,,0,0,2,,,,,,0,57,92
61248,note_off,,96,0,1,,,,,,0,64,64
61248,note_on,,0,0,1,,,,,,0,72,92
61344,note_on,,0,0,1,,,,,,0,64,92
61344,note_off,,96,0,1,,,,,,0,72,64
61440,note_off,,96,0,1,,,,,,0,64,64
61440,note_on,,0,0,2,,,,,,0,59,92
61440,note_off,,192,0,2,,,,,,0,57,64
61488,note_on,,48,0,1,,,,,,0,68,92
61536,note_off,,48,0,1,,,,,,0,68,64
61536,note_on,,0,0,1,,,,,,0,64,92
61584,note_on,,0,0,1,,,,,,0,68,92
61584,note_off,,48,0,1,,,,,,0,64,64
61632,note_off,,192,0,2,,,,,,0,59,64
61632,note_on,,0,0,2,,,,,,0,60,92
61632,note_off,,48,0,1,,,,,,0,68,64
61680,note_on,,48,0,1,,,,,,0,69,92
61728,note_on,,0,0,1,,,,,,0,64,92
61728,note_off,,48,0,1,,,,,,0,69,64
61776,note_on,,0,0,1,,,,,,0,69,92
61776,note_off,,48,0,1,,,,,,0,64,64
61824,note_on,,0,0,2,,,,,,0,56,92
61824,note_off,,192,0,2,,,,,,0,60,64
61824,note_off,,48,0,1,,,,,,0,69,64
61872,note_on,,48,0,1,,,,,,0,71,92
61920,note_off,,48,0,1,,,,,,0,71,64
61920,note_on,,0,0,1,,,,,,0,64,92
61968,note_off,,48,0,1,,,,,,0,64,64
61968,note_on,,0,0,1,,,,,,0,71,92
62016,note_off,,192,0,2,,,,,,0,56,64
62016,note_off,,48,0,1,,,,,,0,71,64
62016,note_on,,0,0,2,,,,,,0,57,92
62064,note_on,,48,0,1,,,,,,0,72,92
62112,note_on,,0,0,1,,,,,,0,64,92
62112,note_off,,48,0,1,,,,,,0,72,64
62160,note_on,,0,0,1,,,,,,0,72,92
62160,note_off,,48,0,1,,,,,,0,64,64
62208,note_off,,48,0,1,,,,,,0,72,64
62208,note_on,,0,0,2,,,,,,0,59,92
62208,note_off,,192,0,2,,,,,,0,57,64
62256,note_on,,48,0,1,,,,,,0,68,92
62304,note_on,,0,0,1,,,,,,0,64,92
62304,note_off,,48,0,1,,,,,,0,68,64
62352,note_on,,0,0,1,,,,,,0,68,92
62352,note_off,,48,0,1,,,,,,0,64,64
62400,note_off,,192,0,2,,,,,,0,59,64
62400,note_on,,0,0,2,,,,,,0,60,92
62400,note_off,,48,0,1,,,,,,0,68,64
62448,note_on,,48,0,1,,,,,,0,69,92
62496,note_on,,0,0,1,,,,,,0,64,92
62496,note_off,,48,0,1,,,,,,0,69,64
62544,note_on,,0,0,1,,,,,,0,69,92
62544,note_off,,48,0,1,,,,,,0,64,64
62592,note_off,,48,0,1,,,,,,0,69,64
62592,note_off,,192,0,2,,,,,,0,60,64
62592,note_on,,0,0,2,,,,,,0,56,92
62640,note_on,,48,0,1,,,,,,0,71,92
62688,note_off,,48,0,1,,,,,,0,71,64
62688,note_on,,0,0,1,,,,,,0,64,92
62736,note_on,,0,0,1,,,,,,0,71,92
62736,note_off,,48,0,1,,,,,,0,64,64
62784,note_off,,192,0,2,,,,,,0,56,64
62784,note_off,,48,0,1,,,,,,0,71,64
62784,note_on,,0,0,2,,,,,,0,57,92
62832,note_on,,48,0,1,,,,,,0,72,92
62880,note_off,,48,0,1,,,,,,0,72,64
62880,note_on,,0,0,1,,,,,,0,64,92
62928,note_off,,48,0,1,,,,,,0,64,64
62928,note_on,,0,0,1,,,,,,0,72,92
62976,note_off,,48,0,1,,,,,,0,72,64
62976,note_on,,0,0,2,,,,,,0,59,92
62976,note_off,,192,0,2,,,,,,0,57,64
62976,note_on,,0,0,1,,,,,,0,68,92
63072,note_off,,96,0,1,,,,,,0,68,64
63072,note_on,,0,0,1,,,,,,0,66,92
63072,note_on,,0,0,2,,,,,,0,57,92
63072,note_off,,96,0,2,,,,,,0,59,64
63168,note_on,,0,0,2,,,,,,0,56,92
63168,note_off,,96,0,2,,,,,,0,57,64
63168,note_on,,0,0,1,,,,,,0,64,92
63168,note_off,,96,0,1,,,,,,0,66,64
63264,note_on,,0,0,2,,,,,,0,59,92
63264,note_on,,0,0,1,,,,,,0,68,92
63264,note_off,,96,0,1,,,,,,0,64,64
63264,note_off,,96,0,2,,,,,,0,56,64
63360,note_off,,96,0,2,,,,,,0,59,64
63360,note_on,,0,0,2,,,,,,0,60,92
63360,note_on,,0,0,1,,,,,,0,69,92
63360,note_off,,96,0,1,,,,,,0,68,64
63456,note_off,,96,0,2,,,,,,0,60,64
63456,note_on,,0,0,2,,,,,,0,59,92
63456,note_on,,0,0,1,,,,,,0,68,92
63456,note_off,,96,0,1,,,,,,0,69,64
63552,note_off,,96,0,2,,,,,,0,59,64
63552,note_on,,0,0,1,,,,,,0,66,92
63552,note_off,,96,0,1,,,,,,0,68,64
63552,note_on,,0,0,2,,,,,,0,57,92
63648,note_on,,0,0,1,,,,,,0,69,92
63648,note_off,,96,0,1,,,,,,0,66,64
63648,note_on,,0,0,2,,,,,,0,60,92
63648,note_off,,96,0,2,,,,,,0,57,64
63744,note_on,,0,0,2,,,,,,0,59,92
63744,note_off,,96,0,2,,,,,,0,60,64
63744,note_on,,0,0,1,,,,,,0,68,92
63744,note_off,,96,0,1,,,,,,0,69,64
63840,note_off,,96,0,2,,,,,,0,59,64
63840,note_on,,0,0,2,,,,,,0,57,92
63840,note_off,,96,0,1,,,,,,0,68,64
63840,note_on,,0,0,1,,,,,,0,66,92
63936,note_on,,0,0,2,,,,,,0,56,92
63936,note_on,,0,0,1,,,,,,0,64,92
63936,note_off,,96,0,2,,,,,,0,57,64
63936,note_off,,96,0,1,,,,,,0,66,64
64032,note_off,,96,0,1,,,,,,0,64,64
64032,note_off,,96,0,2,,,,,,0,56,64
64032,note_on,,0,0,2,,,,,,0,59,92
64032,note_on,,0,0,1,,,,,,0,68,92
64128,note_on,,0,0,1,,,,,,0,69,92
64128,note_off,,96,0,2,,,,,,0,59,64
64128,note_on,,0,0,2,,,,,,0,60,92
64128,note_off,,96,0,1,,,,,,0,68,64
64224,note_off,,96,0,1,,,,,,0,69,64
64224,note_on,,0,0,1,,,,,,0,72,92
64224,note_off,,96,0,2,,,,,,0,60,64
64224,note_on,,0,0,2,,,,,,0,64,92
64320,note_on,,0,0,2,,,,,,0,62,92
64320,note_off,,96,0,1,,,,,,0,72,64
64320,note_on,,0,0,1,,,,,,0,71,92
64320,note_off,,96,0,2,,,,,,0,64,64
64416,note_off,,96,0,1,,,,,,0,71,64
64416,note_on,,0,0,1,,,,,,0,69,92
64416,note_off,,96,0,2,,,,,,0,62,64
64416,note_on,,0,0,2,,,,,,0,60,92
64512,note_off,,96,0,1,,,,,,0,69,64
64512,note_on,,0,0,1,,,,,,0,68,92
64512,note_off,,96,0,2,,,,,,0,60,64
64512,note_on,,0,0,2,,,,,,0,59,92
64608,note_off,,96,0,1,,,,,,0,68,64
64608,note_on,,0,0,2,,,,,,0,60,92
64608,note_off,,96,0,2,,,,,,0,59,64
64608,note_on,,0,0,1,,,,,,0,69,92
64704,note_on,,0,0,2,,,,,,0,62,92
64704,note_off,,96,0,2,,,,,,0,60,64
64704,note_on,,0,0,1,,,,,,0,71,92
64704,note_off,,96,0,1,,,,,,0,69,64
64800,note_on,,0,0,1,,,,,,0,69,92
64800,note_off,,96,0,1,,,,,,0,71,64
64800,note_on,,0,0,2,,,,,,0,60,92
64800,note_off,,96,0,2,,,,,,0,62,64
64896,note_on,,0,0,2,,,,,,0,59,92
64896,note_off,,96,0,1,,,,,,0,69,64
64896,note_on,,0,0,1,,,,,,0,68,92
64896,note_off,,96,0,2,,,,,,0,60,64
64992,note_on,,0,0,1,,,,,,0,71,92
64992,note_off,,96,0,1,,,,,,0,68,64
64992,note_off,,96,0,2,,,,,,0,59,64
64992,note_on,,0,0,2,,,,,,0,62,92
65088,note_on,,0,0,1,,,,,,0,69,92
65088,note_off,,96,0,1,,,,,,0,71,64
65088,note_on,,0,0,2,,,,,,0,60,92
65088,note_off,,96,0,2,,,,,,0,62,64
65184,note_on,,0,0,2,,,,,,0,59,92
65184,note_off,,96,0,1,,,,,,0,69,64
65184,note_off,,96,0,2,,,,,,0,60,64
65184,note_on,,0,0,1,,,,,,0,68,92
65280,note_off,,96,0,2,,,,,,0,59,64
65280,note_on,,0,0,2,,,,,,0,60,92
65280,note_off,,96,0,1,,,,,,0,68,64
65280,note_on,,0,0,1,,,,,,0,69,92
65376,note_off,,96,0,2,,,,,,0,60,64
65376,note_on,,0,0,2,,,,,,0,62,92
65376,note_off,,96,0,1,,,,,,0,69,64
65376,note_on,,0,0,1,,,,,,0,71,92
65472,note_off,,96,0,1,,,,,,0,71,64
65472,note_on,,0,0,1,,,,,,0,72,92
65472,note_on,,0,0,2,,,,,,0,64,92
65472,note_off,,96,0,2,,,,,,0,62,64
65568,note_on,,0,0,2,,,,,,0,62,92
65568,note_off,,96,0,2,,,,,,0,64,64
65568,note_on,,0,0,1,,,,,,0,71,92
65568,note_off,,96,0,1,,,,,,0,72,64
65664,note_on,,0,0,1,,,,,,0,69,92
65664,note_off,,96,0,1,,,,,,0,71,64
65664,note_on,,0,0,2,,,,,,0,60,92
65664,note_off,,96,0,2,,,,,,0,62,64
65760,note_on,,0,0,1,,,,,,0,72,92
65760,note_off,,96,0,1,,,,,,0,69,64
65760,note_on,,0,0,2,,,,,,0,64,92
65760,note_off,,96,0,2,,,,,,0,60,64
65856,note_off,,96,0,1,,,,,,0,72,64
65856,note_on,,0,0,2,,,,,,0,62,92
65856,note_off,,96,0,2,,,,,,0,64,64
65856,note_on,,0,0,1,,,,,,0,71,92
65952,note_off,,96,0,1,,,,,,0,71,64
65952,note_off,,96,0,2,,,,,,0,62,64
65952,note_on,,0,0,1,,,,,,0,69,92
65952,note_on,,0,0,2,,,,,,0,60,92
66048,note_off,,96,0,1,,,,,,0,69,64
66048,note_off,,96,0,2,,,,,,0,60,64
66048,note_on,,0,0,1,,,,,,0,68,92
66048,note_on,,0,0,2,,,,,,0,59,92
66144,note_on,,0,0,1,,,,,,0,69,92
66144,note_off,,96,0,2,,,,,,0,59,64
66144,note_on,,0,0,2,,,,,,0,60,92
66144,note_off,,96,0,1,,,,,,0,68,64
66240,note_on,,0,0,2,,,,,,0,62,92
66240,note_off,,96,0,2,,,,,,0,60,64
66240,note_off,,96,0,1,,,,,,0,69,64
66240,note_on,,0,0,1,,,,,,0,71,92
66336,note_off,,96,0,2,,,,,,0,62,64
66336,note_off,,96,0,1,,,,,,0,71,64
66336,note_on,,0,0,1,,,,,,0,69,92
66336,note_on,,0,0,2,,,,,,0,60,92
66432,note_off,,96,0,2,,,,,,0,60,64
66432,note_on,,0,0,2,,,,,,0,59,92
66432,note_off,,96,0,1,,,,,,0,69,64
66432,note_on,,0,0,1,,,,,,0,68,92
66528,note_on,,0,0,1,,,,,,0,71,92
66528,note_on,,0,0,2,,,,,,0,62,92
66528,note_off,,96,0,2,,,,,,0,59,64
66528,note_off,,96,0,1,,,,,,0,68,64
66624,note_off,,96,0,2,,,,,,0,62,64
66624,note_off,,96,0,1,,,,,,0,71,64
66624,note_on,,0,0,1,,,,,,0,69,92
66624,note_on,,0,0,2,,,,,,0,60,92
66720,note_on,,0,0,1,,,,,,0,68,92
66720,note_on,,0,0,2,,,,,,0,59,92
66720,note_off,,96,0,1,,,,,,0,69,64
66720,note_off,,96,0,2,,,,,,0,60,64
66816,note_on,,0,0,1,,,,,,0,69,92
66816,note_off,,96,0,1,,,,,,0,68,64
66816,note_off,,96,0,2,,,,,,0,59,64
66816,note_on,,0,0,2,,,,,,0,60,92
66912,note_off,,96,0,1,,,,,,0,69,64
66912,note_on,,0,0,1,,,,,,0,74,92
66912,note_off,,96,0,2,,,,,,0,60,64
66912,note_on,,0,0,2,,,,,,0,59,92
67008,note_on,,0,0,1,,,,,,0,72,92
67008,note_off,,96,0,1,,,,,,0,74,64
67008,note_on,,0,0,2,,,,,,0,57,92
67008,note_off,,96,0,2,,,,,,0,59,64
67104,note_on,,0,0,1,,,,,,0,71,92
67104,note_off,,96,0,1,,,,,,0,72,64
67104,note_on,,0,0,2,,,,,,0,56,92
67104,note_off,,96,0,2,,,,,,0,57,64
67200,note_on,,0,0,1,,,,,,0,72,92
67200,note_off,,96,0,1,,,,,,0,71,64
67200,note_off,,96,0,2,,,,,,0,56,64
67200,note_on,,0,0,2,,,,,,0,57,92
67296,note_off,,96,0,2,,,,,,0,57,64
67296,note_on,,0,0,1,,,,,,0,71,92
67296,note_off,,96,0,1,,,,,,0,72,64
67296,note_on,,0,0,2,,,,,,0,62,92
67392,note_on,,0,0,1,,,,,,0,69,92
67392,note_off,,96,0,1,,,,,,0,71,64
67392,note_off,,96,0,2,,,,,,0,62,64
67392,note_on,,0,0,2,,,,,,0,60,92
67488,note_on,,0,0,2,,,,,,0,59,92
67488,note_off,,96,0,2,,,,,,0,60,64
67488,note_off,,96,0,1,,,,,,0,69,64
67488,note_on,,0,0,1,,,,,,0,68,92
67584,note_on,,0,0,2,,,,,,0,60,92
67584,note_off,,96,0,1,,,,,,0,68,64
67584,note_on,,0,0,1,,,,,,0,69,92
67584,note_off,,96,0,2,,,,,,0,59,64
67680,note_on,,0,0,2,,,,,,0,59,92
67680,note_off,,96,0,1,,,,,,0,69,64
67680,note_on,,0,0,1,,,,,,0,74,92
67680,note_off,,96,0,2,,,,,,0,60,64
67776,note_off,,96,0,1,,,,,,0,74,64
67776,note_on,,0,0,1,,,,,,0,72,92
67776,note_off,,96,0,2,,,,,,0,59,64
67776,note_on,,0,0,2,,,,,,0,57,92
67872,note_off,,96,0,2,,,,,,0,57,64
67872,note_on,,0,0,2,,,,,,0,56,92
67872,note_on,,0,0,1,,,,,,0,71,92
67872,note_off,,96,0,1,,,,,,0,72,64
67968,note_on,,0,0,1,,,,,,0,72,92
67968,note_off,,96,0,1,,,,,,0,71,64
67968,note_off,,96,0,2,,,,,,0,56,64
67968,note_on,,0,0,2,,,,,,0,57,92
68064,note_on,,0,0,2,,,,,,0,62,92
68064,note_on,,0,0,1,,,,,,0,71,92
68064,note_off,,96,0,1,,,,,,0,72,64
68064,note_off,,96,0,2,,,,,,0,57,64
68160,note_off,,96,0,2,,,,,,0,62,64
68160,note_on,,0,0,1,,,,,,0,69,92
68160,note_off,,96,0,1,,,,,,0,71,64
68160,note_on,,0,0,2,,,,,,0,60,92
68256,note_on,,0,0,1,,,,,,0,68,92
68256,note_off,,96,0,1,,,,,,0,69,64
68256,note_off,,96,0,2,,,,,,0,60,64
68256,note_on,,0,0,2,,,,,,0,59,92
68352,note_off,,96,0,1,,,,,,0,68,64
68352,note_on,,0,0,1,,,,,,0,69,92
68352,note_off,,96,0,2,,,,,,0,59,64
68352,note_on,,0,0,2,,,,,,0,60,92
68448,note_on,,0,0,1,,,,,,0,68,92
68448,note_off,,96,0,1,,,,,,0,69,64
68448,note_off,,96,0,2,,,,,,0,60,64
68448,note_on,,0,0,2,,,,,,0,59,92
68544,note_on,,0,0,1,,,,,,0,69,92
68544,note_off,,96,0,1,,,,,,0,68,64
68544,note_off,,96,0,2,,,,,,0,59,64
68544,note_on,,0,0,2,,,,,,0,60,92
68640,note_on,,0,0,2,,,,,,0,57,92
68640,note_off,,96,0,2,,,,,,0,60,64
68640,note_off,,96,0,1,,,,,,0,69,64
68640,note_on,,0,0,1,,,,,,0,66,92
68736,note_on,,0,0,1,,,,,,0,68,92
68736,note_on,,0,0,2,,,,,,0,59,92
68736,note_off,,96,0,2,,,,,,0,57,64
68736,note_off,,96,0,1,,,,,,0,66,64
68832,note_on,,0,0,1,,,,,,0,66,92
68832,note_off,,96,0,1,,,,,,0,68,64
68832,note_on,,0,0,2,,,,,,0,57,92
68832,note_off,,96,0,2,,,,,,0,59,64
68928,note_on,,0,0,1,,,,,,0,68,92
68928,note_off,,96,0,1,,,,,,0,66,64
68928,note_off,,96,0,2,,,,,,0,57,64
68928,note_on,,0,0,2,,,,,,0,59,92
69024,note_off,,96,0,2,,,,,,0,59,64
69024,note_on,,0,0,1,,,,,,0,64,92
69024,note_off,,96,0,1,,,,,,0,68,64
69024,note_on,,0,0,2,,,,,,0,56,92
69120,note_off,,96,0,2,,,,,,0,56,64
69120,note_off,,96,0,1,,,,,,0,64,64
69120,note_on,,0,0,2,,,,,,0,64,92
69120,note_on,,0,0,1,,,,,,0,72,92
69216,note_on,,0,0,1,,,,,,0,71,92
69216,note_on,,0,0,2,,,,,,0,62,92
69216,note_off,,96,0,2,,,,,,0,64,64
69216,note_off,,96,0,1,,,,,,0,72,64
69312,note_on,,0,0,1,,,,,,0,72,92
69312,note_off,,96,0,1,,,,,,0,71,64
69312,note_on,,0,0,2,,,,,,0,64,92
69312,note_off,,96,0,2,,,,,,0,62,64
69408,note_off,,96,0,1,,,,,,0,72,64
69408,note_on,,0,0,1,,,,,,0,69,92
69408,note_off,,96,0,2,,,,,,0,64,64
69408,note_on,,0,0,2,,,,,,0,60,92
69504,note_off,,96,0,1,,,,,,0,69,64
69504,note_on,,0,0,2,,,,,,0,62,92
69504,note_off,,96,0,2,,,,,,0,60,64
69504,note_on,,0,0,1,,,,,,0,71,92
69600,note_on,,0,0,2,,,,,,0,60,92
69600,note_off,,96,0,2,,,,,,0,62,64
69600,note_off,,96,0,1,,,,,,0,71,64
69600,note_on,,0,0,1,,,,,,0,69,92
69696,note_off,,96,0,1,,,,,,0,69,64
69696,note_on,,0,0,1,,,,,,0,71,92
69696,note_off,,96,0,2,,,,,,0,60,64
69696,note_on,,0,0,2,,,,,,0,62,92
69792,note_on,,0,0,2,,,,,,0,59,92
69792,note_off,,96,0,1,,,,,,0,71,64
69792,note_on,,0,0,1,,,,,,0,68,92
69792,note_off,,96,0,2,,,,,,0,62,64
69888,note_off,,96,0,1,,,,,,0,68,64
69888,note_on,,0,0,1,,,,,,0,76,92
69888,note_off,,96,0,2,,,,,,0,59,64
69888,note_on,,0,0,2,,,,,,0,60,92
69984,note_on,,0,0,2,,,,,,0,59,92
69984,note_on,,0,0,1,,,,,,0,74,92
69984,note_off,,96,0,1,,,,,,0,76,64
69984,note_off,,96,0,2,,,,,,0,60,64
70080,note_off,,96,0,1,,,,,,0,74,64
70080,note_off,,96,0,2,,,,,,0,59,64
70080,note_on,,0,0,2,,,,,,0,60,92
70080,note_on,,0,0,1,,,,,,0,76,92
70176,note_on,,0,0,2,,,,,,0,57,92
70176,note_off,,96,0,1,,,,,,0,76,64
70176,note_on,,0,0,1,,,,,,0,72,92
70176,note_off,,96,0,2,,,,,,0,60,64
70272,note_off,,96,0,2,,,,,,0,57,64
70272,note_on,,0,0,2,,,,,,0,59,92
70272,note_on,,0,0,1,,,,,,0,74,92
70272,note_off,,96,0,1,,,,,,0,72,64
70368,note_off,,96,0,2,,,,,,0,59,64
70368,note_on,,0,0,2,,,,,,0,57,92
70368,note_on,,0,0,1,,,,,,0,72,92
70368,note_off,,96,0,1,,,,,,0,74,64
70464,note_on,,0,0,2,,,,,,0,59,92
70464,note_on,,0,0,1,,,,,,0,74,92
70464,note_off,,96,0,2,,,,,,0,57,64
70464,note_off,,96,0,1,,,,,,0,72,64
70560,note_on,,0,0,1,,,,,,0,71,92
70560,note_off,,96,0,1,,,,,,0,74,64
70560,note_on,,0,0,2,,,,,,0,56,92
70560,note_off,,96,0,2,,,,,,0,59,64
70656,note_off,,96,0,2,,,,,,0,56,64
70656,note_on,,0,0,2,,,,,,0,57,92
70656,note_on,,0,0,1,,,,,,0,72,92
70656,note_off,,96,0,1,,,,,,0,71,64
70752,note_on,,0,0,1,,,,,,0,68,92
70752,note_off,,96,0,2,,,,,,0,57,64
70752,note_off,,96,0,1,,,,,,0,72,64
70752,note_on,,0,0,2,,,,,,0,59,92
70848,note_off,,96,0,1,,,,,,0,68,64
70848,note_on,,0,0,1,,,,,,0,69,92
70848,note_on,,0,0,2,,,,,,0,60,92
70848,note_off,,96,0,2,,,,,,0,59,64
70944,note_off,,96,0,2,,,,,,0,60,64
70944,note_on,,0,0,1,,,,,,0,71,92
70944,note_off,,96,0,1,,,,,,0,69,64
70944,note_on,,0,0,2,,,,,,0,62,92
71040,note_off,,96,0,1,,,,,,0,71,64
71040,note_on,,0,0,1,,,,,,0,69,92
71040,note_on,,0,0,2,,,,,,0,60,92
71040,note_off,,96,0,2,,,,,,0,62,64
71136,note_on,,0,0,1,,,,,,0,72,92
71136,note_off,,96,0,1,,,,,,0,69,64
71136,note_off,,96,0,2,,,,,,0,60,64
71136,note_on,,0,0,2,,,,,,0,64,92
71232,note_on,,0,0,1,,,,,,0,71,92
71232,note_off,,96,0,2,,,,,,0,64,64
71232,note_off,,96,0,1,,,,,,0,72,64
71232,note_on,,0,0,2,,,,,,0,62,92
71328,note_off,,96,0,2,,,,,,0,62,64
71328,note_on,,0,0,2,,,,,,0,60,92
71328,note_off,,96,0,1,,,,,,0,71,64
71328,note_on,,0,0,1,,,,,,0,69,92
71424,note_off,,96,0,2,,,,,,0,60,64
71424,note_on,,0,0,2,,,,,,0,59,92
71424,note_off,,96,0,1,,,,,,0,69,64
71424,note_on,,0,0,1,,,,,,0,68,92
71472,note_off,,48,0,1,,,,,,0,68,64
71472,note_on,,0,0,1,,,,,,0,64,92
71520,note_on,,0,0,1,,,,,,0,62,92
71520,note_off,,48,0,1,,,,,,0,64,64
71568,note_on,,0,0,1,,,,,,0,60,92
71568,note_off,,48,0,1,,,,,,0,62,64
71616,note_off,,48,0,1,,,,,,0,60,64
71616,note_off,,192,0,2,,,,,,0,59,64
71616,note_on,,0,0,1,,,,,,0,59,92
71616,note_off,,11712,0,3,,,,,,0,52,64
71664,note_on,,48,0,2,,,,,,0,57,92
71664,note_off,,48,0,1,,,,,,0,59,64
71712,note_off,,48,0,2,,,,,,0,57,64
71712,note_on,,0,0,2,,,,,,0,56,92
71760,note_off,,48,0,2,,,,,,0,56,64
71760,note_on,,0,0,2,,,,,,0,54,92
71808,note_off,,48,0,2,,,,,,0,54,64
71808,note_on,,0,0,2,,,,,,0,52,92
71856,note_off,,48,0,2,,,,,,0,52,64
71856,note_on,,0,0,2,,,,,,0,52,92
71904,note_off,,48,0,2,,,,,,0,52,64
71904,note_on,,0,0,2,,,,,,0,50,92
71952,note_off,,48,0,2,,,,,,0,50,64
71952,note_on,,0,0,2,,,,,,0,48,92
72000,note_off,,48,0,2,,,,,,0,48,64
72000,note_on,,0,0,2,,,,,,0,47,92
72048,note_off,,48,0,2,,,,,,0,47,64
72048,note_on,,0,0,2,,,,,,0,45,92
72096,note_off,,48,0,2,,,,,,0,45,64
72096,note_on,,0,0,2,,,,,,0,44,92
72144,note_off,,48,0,2,,,,,,0,44,64
72144,note_on,,0,0,2,,,,,,0,42,92
72192,note_off,,48,0,2,,,,,,0,42,64
72192,note_on,,0,0,2,,,,,,0,40,92
72192,set_tempo,1200000,29184,1,0,,,,,,,,
72384,note_off,,192,0,2,,,,,,0,40,64
72576,note_on,,0,0,1,,,,,,0,69,92
72576,note_on,,192,0,2,,,,,,0,39,92
72576,note_on,,0,0,1,,,,,,0,72,92
72576,note_on,,912,0,1,,,,,,0,66,92
72768,note_on,,0,0,2,,,,,,0,51,92
72768,note_off,,192,0,2,,,,,,0,39,64
72960,note_on,,0,0,2,,,,,,0,52,92
72960,note_off,,384,0,1,,,,,,0,72,64
72960,note_off,,0,0,1,,,,,,0,69,64
72960,note_off,,0,0,1,,,,,,0,66,64
72960,note_off,,192,0,2,,,,,,0,51,64
72960,note_on,,0,0,1,,,,,,0,69,92
72960,note_on,,0,0,1,,,,,,0,59,92
72960,note_on,,0,0,1,,,,,,0,71,92
73344,note_on,,0,0,1,,,,,,0,68,92
73344,note_on,,0,0,1,,,,,,0,64,92
73344,note_off,,0,0,1,,,,,,0,69,64
73344,note_off,,384,0,1,,,,,,0,59,64
73536,note_off,,192,0,1,,,,,,0,64,64
73536,note_on,,0,0,1,,,,,,0,62,92
73728,note_off,,192,0,1,,,,,,0,62,64
73728,note_off,,0,0,1,,,,,,0,68,64
73728,note_off,,0,0,1,,,,,,0,71,64
73728,note_on,,0,0,1,,,,,,0,69,92
73728,note_on,,0,0,1,,,,,,0,60,92
73728,set_tempo,722890,1536,1,0,,,,,,,,
73728,note_on,,0,0,2,,,,,,0,57,92
73728,note_off,,768,0,2,,,,,,0,52,64
73920,note_on,,192,0,1,,,,,,0,64,92
74112,note_off,,384,0,2,,,,,,0,57,64
74112,note_off,,0,0,1,,,,,,0,60,64
74112,note_off,,0,0,1,,,,,,0,69,64
74112,note_off,,192,0,1,,,,,,0,64,64
74112,note_on,,0,0,1,,,,,,0,71,92
74304,note_on,,0,0,1,,,,,,0,64,92
74304,note_off,,192,0,1,,,,,,0,71,64
74496,note_on,,0,0,1,,,,,,0,72,92
74496,note_off,,192,0,1,,,,,,0,64,64
74688,note_off,,192,0,1,,,,,,0,72,64
74688,note_on,,0,0,1,,,,,,0,71,92
74784,note_off,,96,0,1,,,,,,0,71,64
74784,note_on,,0,0,1,,,,,,0,72,92
74880,note_off,,96,0,1,,,,,,0,72,64
74880,note_on,,0,0,1,,,,,,0,69,92
75072,note_off,,192,0,1,,,,,,0,69,64
75072,note_on,,0,0,1,,,,,,0,76,92
75168,note_off,,96,0,1,,,,,,0,76,64
75168,note_on,,0,0,1,,,,,,0,74,92
75264,note_off,,96,0,1,,,,,,0,74,64
75264,note_on,,0,0,1,,,,,,0,72,92
75360,note_on,,0,0,1,,,,,,0,76,92
75360,note_off,,96,0,1,,,,,,0,72,64
75456,note_on,,0,0,1,,,,,,0,69,92
75456,note_off,,96,0,1,,,,,,0,76,64
75552,note_off,,96,0,1,,,,,,0,69,64
75552,note_on,,0,0,1,,,,,,0,76,92
75648,note_off,,96,0,1,,,,,,0,76,64
75648,note_on,,0,0,1,,,,,,0,72,92
75744,note_on,,0,0,1,,,,,,0,76,92
75744,note_off,,96,0,1,,,,,,0,72,64
75840,note_off,,96,0,1,,,,,,0,76,64
75840,note_on,,0,0,1,,,,,,0,69,92
75936,note_off,,96,0,1,,,,,,0,69,64
75936,note_on,,0,0,1,,,,,,0,76,92
76032,note_on,,0,0,1,,,,,,0,77,92
76032,note_off,,96,0,1,,,,,,0,76,64
76224,note_off,,192,0,1,,,,,,0,77,64
76224,note_on,,0,0,1,,,,,,0,69,92
76416,note_off,,192,0,1,,,,,,0,69,64
76416,note_on,,0,0,1,,,,,,0,71,92
76608,note_off,,192,0,1,,,,,,0,71,64
76608,note_on,,0,0,1,,,,,,0,74,92
76704,note_off,,96,0,1,,,,,,0,74,64
76704,note_on,,0,0,1,,,,,,0,72,92
76800,note_off,,96,0,1,,,,,,0,72,64
76800,note_on,,0,0,1,,,,,,0,71,92
76896,note_off,,96,0,1,,,,,,0,71,64
76896,note_on,,0,0,1,,,,,,0,74,92
76992,note_off,,96,0,1,,,,,,0,74,64
76992,note_on,,0,0,1,,,,,,0,67,92
77088,note_off,,96,0,1,,,,,,0,67,64
77088,note_on,,0,0,1,,,,,,0,74,92
77184,note_off,,96,0,1,,,,,,0,74,64
77184,note_on,,0,0,1,,,,,,0,71,92
77280,note_on,,0,0,1,,,,,,0,74,92
77280,note_off,,96,0,1,,,,,,0,71,64
77376,note_off,,96,0,1,,,,,,0,74,64
77376,note_on,,0,0,1,,,,,,0,67,92
77472,note_off,,96,0,1,,,,,,0,67,64
77472,note_on,,0,0,1,,,,,,0,74,92
77568,note_off,,96,0,1,,,,,,0,74,64
77568,note_on,,0,0,1,,,,,,0,76,92
77760,note_off,,192,0,1,,,,,,0,76,64
77760,note_on,,0,0,1,,,,,,0,67,92
77952,note_off,,192,0,1,,,,,,0,67,64
77952,note_on,,0,0,1,,,,,,0,69,92
78144,note_on,,0,0,1,,,,,,0,72,92
78144,note_off,,192,0,1,,,,,,0,69,64
78240,note_off,,96,0,1,,,,,,0,72,64
78240,note_on,,0,0,1,,,,,,0,71,92
78336,note_off,,96,0,1,,,,,,0,71,64
78336,note_on,,0,0,1,,,,,,0,69,92
78528,note_off,,192,0,1,,,,,,0,69,64
78528,note_on,,0,0,1,,,,,,0,76,92
78912,note_on,,0,0,1,,,,,,0,75,92
78912,note_off,,384,0,1,,,,,,0,76,64
79104,note_off,,192,0,1,,,,,,0,75,64
79104,note_on,,0,0,1,,,,,,0,76,92
79104,note_on,,0,0,1,,,,,,0,64,92
79296,note_off,,192,0,1,,,,,,0,64,64
79296,note_on,,0,0,1,,,,,,0,59,92
79488,note_off,,0,0,1,,,,,,0,76,64
79488,note_on,,0,0,1,,,,,,0,74,92
79488,note_off,,192,0,1,,,,,,0,59,64
79488,note_on,,0,0,1,,,,,,0,66,92
79680,note_on,,0,0,1,,,,,,0,59,92
79680,note_off,,192,0,1,,,,,,0,66,64
79872,note_off,,192,0,1,,,,,,0,59,64
79872,note_off,,0,0,1,,,,,,0,74,64
79872,note_on,,0,0,1,,,,,,0,76,92
79872,note_on,,0,0,1,,,,,,0,67,92
80064,note_off,,192,0,1,,,,,,0,67,64
80064,note_on,,0,0,1,,,,,,0,66,92
80160,note_off,,96,0,1,,,,,,0,66,64
80160,note_on,,0,0,1,,,,,,0,67,92
80256,note_off,,96,0,1,,,,,,0,67,64
80256,note_off,,0,0,1,,,,,,0,76,64
80256,note_on,,0,0,1,,,,,,0,64,92
80448,note_on,,0,0,1,,,,,,0,71,92
80448,note_off,,192,0,1,,,,,,0,64,64
80448,note_on,,0,0,1,,,,,,0,75,92
80544,note_off,,96,0,1,,,,,,0,71,64
80544,note_on,,0,0,1,,,,,,0,69,92
80640,note_on,,0,0,1,,,,,,0,67,92
80640,note_off,,0,0,1,,,,,,0,75,64
80640,note_on,,0,0,1,,,,,,0,76,92
80640,note_off,,96,0,1,,,,,,0,69,64
80736,note_off,,96,0,1,,,,,,0,67,64
80736,note_on,,0,0,1,,,,,,0,71,92
80832,note_off,,96,0,1,,,,,,0,71,64
80832,note_off,,0,0,1,,,,,,0,76,64
80832,note_on,,0,0,1,,,,,,0,64,92
80832,note_on,,0,0,1,,,,,,0,79,92
80928,note_on,,0,0,1,,,,,,0,71,92
80928,note_off,,96,0,1,,,,,,0,64,64
81024,note_off,,96,0,1,,,,,,0,71,64
81024,note_off,,0,0,1,,,,,,0,79,64
81024,note_on,,0,0,1,,,,,,0,67,92
81024,note_on,,0,0,1,,,,,,0,76,92
81120,note_on,,0,0,1,,,,,,0,71,92
81120,note_off,,96,0,1,,,,,,0,67,64
81216,note_on,,0,0,1,,,,,,0,79,92
81216,note_on,,0,0,1,,,,,,0,64,92
81216,note_off,,96,0,1,,,,,,0,71,64
81216,note_off,,0,0,1,,,,,,0,76,64
81312,note_off,,96,0,1,,,,,,0,64,64
81312,note_on,,0,0,1,,,,,,0,71,92
81408,note_off,,96,0,1,,,,,,0,71,64
81408,note_off,,0,0,1,,,,,,0,79,64
81408,note_on,,0,0,1,,,,,,0,72,92
81408,note_on,,0,0,1,,,,,,0,81,92
81600,note_on,,0,0,1,,,,,,0,84,92
81600,note_off,,192,0,1,,,,,,0,81,64
81600,note_off,,0,0,1,,,,,,0,72,64
81600,note_on,,0,0,1,,,,,,0,64,92
81696,note_off,,96,0,1,,,,,,0,84,64
81696,note_on,,0,0,1,,,,,,0,83,92
81792,note_on,,0,0,1,,,,,,0,66,92
81792,note_on,,0,0,1,,,,,,0,81,92
81792,note_off,,96,0,1,,,,,,0,83,64
81792,note_off,,0,0,1,,,,,,0,64,64
81984,note_on,,0,0,1,,,,,,0,78,92
81984,note_off,,192,0,1,,,,,,0,66,64
81984,note_off,,0,0,1,,,,,,0,81,64
81984,note_on,,0,0,1,,,,,,0,69,92
82080,note_on,,0,0,1,,,,,,0,76,92
82080,note_off,,0,0,1,,,,,,0,69,64
82080,note_on,,0,0,1,,,,,,0,67,92
82080,note_off,,96,0,1,,,,,,0,78,64
82176,note_off,,96,0,1,,,,,,0,76,64
82176,note_off,,0,0,1,,,,,,0,67,64
82176,note_on,,0,0,1,,,,,,0,66,92
82176,note_on,,0,0,1,,,,,,0,74,92
82272,note_off,,96,0,1,,,,,,0,66,64
82272,note_on,,0,0,1,,,,,,0,69,92
82368,note_off,,96,0,1,,,,,,0,69,64
82368,note_off,,0,0,1,,,,,,0,74,64
82368,note_on,,0,0,1,,,,,,0,62,92
82368,note_on,,0,0,1,,,,,,0,78,92
82464,note_off,,96,0,1,,,,,,0,62,64
82464,note_on,,0,0,1,,,,,,0,69,92
82560,note_on,,0,0,1,,,,,,0,74,92
82560,note_on,,0,0,1,,,,,,0,66,92
82560,note_off,,96,0,1,,,,,,0,69,64
82560,note_off,,0,0,1,,,,,,0,78,64
82656,note_off,,96,0,1,,,,,,0,66,64
82656,note_on,,0,0,1,,,,,,0,69,92
82752,note_off,,96,0,1,,,,,,0,69,64
82752,note_off,,0,0,1,,,,,,0,74,64
82752,note_on,,0,0,1,,,,,,0,62,92
82752,note_on,,0,0,1,,,,,,0,78,92
82848,note_off,,96,0,1,,,,,,0,62,64
82848,note_on,,0,0,1,,,,,,0,69,92
82944,note_off,,96,0,1,,,,,,0,69,64
82944,note_off,,0,0,1,,,,,,0,78,64
82944,note_on,,0,0,1,,,,,,0,71,92
82944,note_on,,0,0,1,,,,,,0,79,92
83136,note_on,,0,0,1,,,,,,0,62,92
83136,note_off,,0,0,1,,,,,,0,71,64
83136,note_off,,192,0,1,,,,,,0,79,64
83136,note_on,,0,0,1,,,,,,0,83,92
83232,note_off,,96,0,1,,,,,,0,83,64
83232,note_on,,0,0,1,,,,,,0,81,92
83328,note_off,,96,0,1,,,,,,0,81,64
83328,note_off,,0,0,1,,,,,,0,62,64
83328,note_on,,0,0,1,,,,,,0,79,92
83328,note_on,,0,0,1,,,,,,0,64,92
83520,note_off,,192,0,1,,,,,,0,64,64
83520,note_off,,0,0,1,,,,,,0,79,64
83520,note_on,,0,0,1,,,,,,0,67,92
83520,note_on,,0,0,1,,,,,,0,76,92
83616,note_on,,0,0,1,,,,,,0,66,92
83616,note_off,,96,0,1,,,,,,0,67,64
83712,note_on,,0,0,1,,,,,,0,64,92
83712,note_off,,96,0,1,,,,,,0,66,64
83904,note_off,,192,0,1,,,,,,0,64,64
83904,note_off,,0,0,1,,,,,,0,76,64
83904,note_on,,0,0,1,,,,,,0,69,92
83904,note_on,,0,0,1,,,,,,0,72,92
84096,note_off,,192,0,1,,,,,,0,72,64
84096,note_on,,0,0,1,,,,,,0,71,92
84288,note_off,,192,0,1,,,,,,0,71,64
84288,note_off,,0,0,1,,,,,,0,69,64
84288,note_on,,0,0,1,,,,,,0,76,92
84288,note_on,,0,0,1,,,,,,0,68,92
84384,note_off,,96,0,1,,,,,,0,76,64
84384,note_on,,0,0,1,,,,,,0,74,92
84480,note_off,,0,0,1,,,,,,0,68,64
84480,note_off,,96,0,1,,,,,,0,74,64
84480,note_on,,0,0,1,,,,,,0,69,92
84480,note_on,,0,0,1,,,,,,0,72,92
84576,note_off,,96,0,1,,,,,,0,72,64
84576,note_on,,0,0,1,,,,,,0,81,92
84672,note_off,,96,0,1,,,,,,0,81,64
84672,note_on,,0,0,1,,,,,,0,76,92
84768,note_off,,96,0,1,,,,,,0,76,64
84768,note_on,,0,0,1,,,,,,0,81,92
84864,note_off,,96,0,1,,,,,,0,81,64
84864,note_off,,0,0,1,,,,,,0,69,64
84864,note_on,,0,0,1,,,,,,0,72,92
84960,note_off,,96,0,1,,,,,,0,72,64
84960,note_on,,0,0,1,,,,,,0,81,92
85056,note_off,,96,0,1,,,,,,0,81,64
85056,note_on,,0,0,1,,,,,,0,69,92
85056,note_on,,0,0,1,,,,,,0,76,92
85152,note_off,,96,0,1,,,,,,0,76,64
85152,note_on,,0,0,1,,,,,,0,81,92
85248,note_on,,0,0,1,,,,,,0,71,92
85248,note_on,,0,0,1,,,,,,0,75,92
85248,note_off,,96,0,1,,,,,,0,81,64
85248,note_off,,0,0,1,,,,,,0,69,64
85344,note_off,,96,0,1,,,,,,0,75,64
85344,note_on,,0,0,1,,,,,,0,81,92
85440,note_on,,0,0,1,,,,,,0,78,92
85440,note_off,,96,0,1,,,,,,0,81,64
85536,note_on,,0,0,1,,,,,,0,81,92
85536,note_off,,96,0,1,,,,,,0,78,64
85632,note_off,,96,0,1,,,,,,0,81,64
85632,note_off,,0,0,1,,,,,,0,71,64
85632,note_on,,0,0,1,,,,,,0,75,92
85728,note_on,,0,0,1,,,,,,0,81,92
85728,note_off,,96,0,1,,,,,,0,75,64
85824,note_off,,96,0,1,,,,,,0,81,64
85824,note_on,,0,0,1,,,,,,0,59,92
85824,note_on,,0,0,1,,,,,,0,78,92
85920,note_off,,96,0,1,,,,,,0,78,64
85920,note_on,,0,0,1,,,,,,0,81,92
86016,note_off,,96,0,1,,,,,,0,81,64
86016,note_off,,0,0,1,,,,,,0,59,64
86016,note_on,,0,0,1,,,,,,0,64,92
86016,note_on,,0,0,1,,,,,,0,71,92
86112,note_off,,96,0,1,,,,,,0,71,64
86112,note_on,,0,0,1,,,,,,0,79,92
86208,note_off,,96,0,1,,,,,,0,79,64
86208,note_on,,0,0,1,,,,,,0,76,92
86304,note_off,,96,0,1,,,,,,0,76,64
86304,note_on,,0,0,1,,,,,,0,79,92
86400,note_off,,96,0,1,,,,,,0,79,64
86400,note_off,,0,0,1,,,,,,0,64,64
86400,note_on,,0,0,1,,,,,,0,73,92
86400,note_on,,0,0,1,,,,,,0,69,92
86496,note_on,,0,0,1,,,,,,0,79,92
86496,note_off,,96,0,1,,,,,,0,73,64
86592,note_off,,96,0,1,,,,,,0,79,64
86592,note_on,,0,0,1,,,,,,0,76,92
86688,note_off,,96,0,1,,,,,,0,76,64
86688,note_on,,0,0,1,,,,,,0,79,92
86784,note_off,,96,0,1,,,,,,0,79,64
86784,note_off,,0,0,1,,,,,,0,69,64
86784,note_on,,0,0,1,,,,,,0,62,92
86784,note_on,,0,0,1,,,,,,0,69,92
86880,note_on,,0,0,1,,,,,,0,77,92
86880,note_off,,96,0,1,,,,,,0,69,64
86976,note_off,,96,0,1,,,,,,0,77,64
86976,note_on,,0,0,1,,,,,,0,74,92
87072,note_off,,96,0,1,,,,,,0,74,64
87072,note_on,,0,0,1,,,,,,0,77,92
87168,note_on,,0,0,1,,,,,,0,71,92
87168,note_off,,96,0,1,,,,,,0,77,64
87168,note_off,,0,0,1,,,,,,0,62,64
87168,note_on,,0,0,1,,,,,,0,67,92
87264,note_off,,96,0,1,,,,,,0,71,64
87264,note_on,,0,0,1,,,,,,0,77,92
87360,note_off,,96,0,1,,,,,,0,77,64
87360,note_on,,0,0,1,,,,,,0,74,92
87456,note_off,,96,0,1,,,,,,0,74,64
87456,note_on,,0,0,1,,,,,,0,77,92
87552,note_off,,96,0,1,,,,,,0,77,64
87552,note_off,,0,0,1,,,,,,0,67,64
87552,note_on,,0,0,1,,,,,,0,67,92
87552,note_on,,0,0,1,,,,,,0,60,92
87648,note_off,,96,0,1,,,,,,0,67,64
87648,note_on,,0,0,1,,,,,,0,76,92
87744,note_off,,96,0,1,,,,,,0,76,64
87744,note_on,,0,0,1,,,,,,0,72,92
87840,note_off,,96,0,1,,,,,,0,72,64
87840,note_on,,0,0,1,,,,,,0,76,92
87936,note_on,,0,0,1,,,,,,0,65,92
87936,note_off,,96,0,1,,,,,,0,76,64
87936,note_off,,0,0,1,,,,,,0,60,64
87936,note_on,,0,0,1,,,,,,0,69,92
88032,note_off,,96,0,1,,,,,,0,69,64
88032,note_on,,0,0,1,,,,,,0,76,92
88128,note_on,,0,0,1,,,,,,0,72,92
88128,note_off,,96,0,1,,,,,,0,76,64
88224,note_off,,96,0,1,,,,,,0,72,64
88224,note_on,,0,0,1,,,,,,0,76,92
88320,note_on,,0,0,1,,,,,,0,59,92
88320,note_off,,96,0,1,,,,,,0,76,64
88320,note_off,,0,0,1,,,,,,0,65,64
88320,note_on,,0,0,1,,,,,,0,66,92
88416,note_off,,96,0,1,,,,,,0,66,64
88416,note_on,,0,0,1,,,,,,0,74,92
88512,note_off,,96,0,1,,,,,,0,74,64
88512,note_on,,0,0,1,,,,,,0,71,92
88608,note_off,,96,0,1,,,,,,0,71,64
88608,note_on,,0,0,1,,,,,,0,74,92
88704,note_on,,0,0,1,,,,,,0,64,92
88704,note_off,,96,0,1,,,,,,0,74,64
88704,note_off,,0,0,1,,,,,,0,59,64
88704,note_on,,0,0,1,,,,,,0,68,92
88800,note_off,,96,0,1,,,,,,0,68,64
88800,note_on,,0,0,1,,,,,,0,74,92
88896,note_on,,0,0,1,,,,,,0,71,92
88896,note_off,,96,0,1,,,,,,0,74,64
88992,note_off,,96,0,1,,,,,,0,71,64
88992,note_on,,0,0,1,,,,,,0,74,92
89088,note_on,,0,0,1,,,,,,0,72,92
89088,note_on,,0,0,1,,,,,,0,64,92
89088,note_on,,14976,0,2,,,,,,0,57,92
89088,note_off,,96,0,1,,,,,,0,74,64
89088,note_off,,0,0,1,,,,,,0,64,64
89280,note_off,,192,0,2,,,,,,0,57,64
89280,note_on,,0,0,2,,,,,,0,52,92
89472,note_off,,192,0,2,,,,,,0,52,64
89472,note_on,,0,0,2,,,,,,0,59,92
89472,note_off,,384,0,1,,,,,,0,72,64
89472,note_on,,0,0,1,,,,,,0,68,92
89472,note_on,,0,0,1,,,,,,0,62,92
89472,note_off,,0,0,1,,,,,,0,64,64
89664,note_on,,0,0,2,,,,,,0,52,92
89664,note_off,,192,0,2,,,,,,0,59,64
89856,note_on,,0,0,1,,,,,,0,64,92
89856,note_on,,0,0,1,,,,,,0,69,92
89856,note_on,,0,0,2,,,,,,0,60,92
89856,note_off,,192,0,2,,,,,,0,52,64
89856,note_off,,384,0,1,,,,,,0,68,64
89856,note_off,,0,0,1,,,,,,0,62,64
90048,note_on,,0,0,2,,,,,,0,59,92
90048,note_off,,192,0,2,,,,,,0,60,64
90144,note_off,,96,0,2,,,,,,0,59,64
90144,note_on,,0,0,2,,,,,,0,60,92
90240,note_off,,384,0,1,,,,,,0,69,64
90240,note_off,,96,0,2,,,,,,0,60,64
90240,note_on,,0,0,1,,,,,,0,72,92
90240,note_on,,0,0,1,,,,,,0,64,92
90240,note_off,,0,0,1,,,,,,0,64,64
90240,note_on,,0,0,2,,,,,,0,57,92
90432,note_on,,0,0,1,,,,,,0,71,92
90432,note_on,,0,0,1,,,,,,0,68,92
90432,note_off,,0,0,1,,,,,,0,64,64
90432,note_off,,192,0,1,,,,,,0,72,64
90432,note_off,,192,0,2,,,,,,0,57,64
90432,note_on,,0,0,2,,,,,,0,64,92
90528,note_off,,96,0,2,,,,,,0,64,64
90528,note_on,,0,0,2,,,,,,0,62,92
90624,note_off,,96,0,2,,,,,,0,62,64
90624,note_on,,0,0,2,,,,,,0,60,92
90624,note_off,,192,0,1,,,,,,0,71,64
90624,note_on,,0,0,1,,,,,,0,72,92
90624,note_on,,0,0,1,,,,,,0,69,92
90624,note_off,,0,0,1,,,,,,0,68,64
90720,note_on,,0,0,2,,,,,,0,64,92
90720,note_off,,96,0,2,,,,,,0,60,64
90816,note_off,,96,0,2,,,,,,0,64,64
90816,note_on,,0,0,2,,,,,,0,57,92
90912,note_off,,96,0,2,,,,,,0,57,64
90912,note_on,,0,0,2,,,,,,0,64,92
91008,note_off,,96,0,2,,,,,,0,64,64
91008,note_on,,0,0,2,,,,,,0,60,92
91008,note_off,,0,0,1,,,,,,0,69,64
91008,note_off,,384,0,1,,,,,,0,72,64
91104,note_off,,96,0,2,,,,,,0,60,64
91104,note_on,,0,0,2,,,,,,0,64,92
91200,note_on,,192,0,1,,,,,,0,69,92
91200,note_on,,0,0,2,,,,,,0,57,92
91200,note_on,,0,0,1,,,,,,0,72,92
91200,note_off,,96,0,2,,,,,,0,64,64
91296,note_off,,96,0,2,,,,,,0,57,64
91296,note_on,,0,0,2,,,,,,0,64,92
91392,note_on,,0,0,2,,,,,,0,65,92
91392,note_on,,0,0,1,,,,,,0,74,92
91392,note_off,,192,0,1,,,,,,0,72,64
91392,note_off,,96,0,2,,,,,,0,64,64
91584,note_on,,0,0,2,,,,,,0,57,92
91584,note_on,,0,0,1,,,,,,0,72,92
91584,note_off,,192,0,2,,,,,,0,65,64
91584,note_off,,192,0,1,,,,,,0,74,64
91776,note_on,,0,0,2,,,,,,0,59,92
91776,note_on,,0,0,1,,,,,,0,71,92
91776,note_off,,192,0,2,,,,,,0,57,64
91776,note_off,,0,0,1,,,,,,0,69,64
91776,note_on,,0,0,1,,,,,,0,67,92
91776,note_off,,192,0,1,,,,,,0,72,64
91968,note_on,,0,0,2,,,,,,0,62,92
91968,note_off,,192,0,2,,,,,,0,59,64
91968,note_on,,0,0,1,,,,,,0,69,92
91968,note_off,,192,0,1,,,,,,0,71,64
91968,note_off,,0,0,1,,,,,,0,67,64
91968,note_on,,0,0,1,,,,,,0,66,92
92064,note_on,,0,0,2,,,,,,0,60,92
92064,note_off,,96,0,2,,,,,,0,62,64
92160,note_on,,0,0,2,,,,,,0,59,92
92160,note_off,,96,0,2,,,,,,0,60,64
92160,note_off,,192,0,1,,,,,,0,69,64
92160,note_on,,0,0,1,,,,,,0,71,92
92160,note_on,,0,0,1,,,,,,0,67,92
92160,note_off,,0,0,1,,,,,,0,66,64
92256,note_off,,96,0,2,,,,,,0,59,64
92256,note_on,,0,0,2,,,,,,0,62,92
92352,note_off,,96,0,2,,,,,,0,62,64
92352,note_on,,0,0,2,,,,,,0,55,92
92448,note_off,,96,0,2,,,,,,0,55,64
92448,note_on,,0,0,2,,,,,,0,62,92
92544,note_off,,0,0,1,,,,,,0,67,64
92544,note_off,,384,0,1,,,,,,0,71,64
92544,note_off,,96,0,2,,,,,,0,62,64
92544,note_on,,0,0,2,,,,,,0,59,92
92640,note_on,,0,0,2,,,,,,0,62,92
92640,note_off,,96,0,2,,,,,,0,59,64
92736,note_off,,96,0,2,,,,,,0,62,64
92736,note_on,,0,0,1,,,,,,0,71,92
92736,note_on,,0,0,2,,,,,,0,55,92
92736,note_on,,192,0,1,,,,,,0,67,92
92832,note_off,,96,0,2,,,,,,0,55,64
92832,note_on,,0,0,2,,,,,,0,62,92
92928,note_on,,0,0,2,,,,,,0,64,92
92928,note_off,,96,0,2,,,,,,0,62,64
92928,note_on,,0,0,1,,,,,,0,72,92
92928,note_off,,192,0,1,,,,,,0,71,64
93120,note_on,,0,0,2,,,,,,0,55,92
93120,note_off,,192,0,2,,,,,,0,64,64
93120,note_on,,0,0,1,,,,,,0,71,92
93120,note_off,,192,0,1,,,,,,0,72,64
93312,note_on,,0,0,1,,,,,,0,64,92
93312,note_off,,0,0,1,,,,,,0,67,64
93312,note_on,,0,0,2,,,,,,0,57,92
93312,note_off,,192,0,2,,,,,,0,55,64
93312,note_on,,0,0,1,,,,,,0,72,92
93312,note_off,,192,0,1,,,,,,0,71,64
93504,note_on,,0,0,2,,,,,,0,60,92
93504,note_off,,192,0,2,,,,,,0,57,64
93600,note_off,,96,0,2,,,,,,0,60,64
93600,note_on,,0,0,2,,,,,,0,59,92
93696,note_off,,96,0,2,,,,,,0,59,64
93696,note_on,,0,0,2,,,,,,0,57,92
93888,note_off,,0,0,1,,,,,,0,72,64
93888,note_on,,0,0,1,,,,,,0,67,92
93888,note_on,,0,0,1,,,,,,0,71,92
93888,note_on,,0,0,2,,,,,,0,64,92
93888,note_off,,192,0,2,,,,,,0,57,64
93888,note_off,,576,0,1,,,,,,0,64,64
94080,note_on,,0,0,1,,,,,,0,78,92
94080,note_off,,192,0,1,,,,,,0,71,64
94080,note_off,,0,0,1,,,,,,0,67,64
94080,note_on,,0,0,1,,,,,,0,69,92
94272,note_on,,0,0,2,,,,,,0,63,92
94272,note_off,,384,0,2,,,,,,0,64,64
94464,note_off,,0,0,1,,,,,,0,69,64
94464,note_on,,0,0,1,,,,,,0,76,92
94464,note_off,,384,0,1,,,,,,0,78,64
94464,note_on,,0,0,1,,,,,,0,67,92
94464,note_off,,192,0,2,,,,,,0,63,64
94464,note_on,,0,0,2,,,,,,0,64,92
94848,note_off,,0,0,1,,,,,,0,76,64
94848,note_on,,0,0,1,,,,,,0,79,92
94848,note_on,,0,0,1,,,,,,0,76,92
94848,note_off,,384,0,1,,,,,,0,67,64
95040,note_on,,0,0,2,,,,,,0,66,92
95040,note_off,,576,0,2,,,,,,0,64,64
95232,note_on,,0,0,2,,,,,,0,67,92
95232,note_off,,192,0,2,,,,,,0,66,64
95424,note_off,,192,0,2,,,,,,0,67,64
95424,note_on,,0,0,2,,,,,,0,66,92
95616,note_off,,192,0,2,,,,,,0,66,64
95616,note_on,,0,0,2,,,,,,0,67,92
95616,note_on,,0,0,1,,,,,,0,76,92
95616,note_off,,768,0,1,,,,,,0,76,64
95808,note_off,,192,0,2,,,,,,0,67,64
95808,note_on,,0,0,2,,,,,,0,69,92
96000,note_on,,0,0,1,,,,,,0,78,92
96000,note_on,,0,0,2,,,,,,0,71,92
96000,note_off,,384,0,1,,,,,,0,79,64
96000,note_off,,192,0,2,,,,,,0,69,64
96192,note_off,,192,0,2,,,,,,0,71,64
96192,note_on,,0,0,2,,,,,,0,69,92
96288,note_on,,0,0,2,,,,,,0,67,92
96288,note_off,,96,0,2,,,,,,0,69,64
96384,note_on,,0,0,1,,,,,,0,74,92
96384,note_off,,96,0,2,,,,,,0,67,64
96384,note_off,,384,0,1,,,,,,0,76,64
96384,note_on,,0,0,2,,,,,,0,66,92
96576,note_on,,0,0,2,,,,,,0,68,92
96576,note_off,,192,0,2,,,,,,0,66,64
96768,note_off,,192,0,2,,,,,,0,68,64
96768,note_on,,0,0,2,,,,,,0,69,92
96768,note_on,,0,0,1,,,,,,0,76,92
96768,note_off,,384,0,1,,,,,,0,78,64
96960,note_off,,192,0,2,,,,,,0,69,64
96960,note_on,,0,0,2,,,,,,0,64,92
97152,note_off,,192,0,2,,,,,,0,64,64
97152,note_on,,0,0,2,,,,,,0,69,92
97152,note_off,,384,0,1,,,,,,0,74,64
97152,note_on,,0,0,1,,,,,,0,72,92
97344,note_off,,192,0,2,,,,,,0,69,64
97344,note_on,,0,0,2,,,,,,0,67,92
97536,note_off,,384,0,1,,,,,,0,76,64
97536,note_on,,0,0,1,,,,,,0,74,92
97536,note_on,,0,0,2,,,,,,0,66,92
97536,note_off,,192,0,2,,,,,,0,67,64
97728,note_off,,192,0,2,,,,,,0,66,64
97728,note_on,,0,0,2,,,,,,0,62,92
97920,note_on,,0,0,1,,,,,,0,71,92
97920,note_off,,384,0,1,,,,,,0,72,64
97920,note_on,,0,0,2,,,,,,0,67,92
97920,note_off,,192,0,2,,,,,,0,62,64
98112,note_on,,0,0,2,,,,,,0,66,92
98112,note_off,,192,0,2,,,,,,0,67,64
98304,note_on,,0,0,1,,,,,,0,73,92
98304,note_off,,384,0,1,,,,,,0,74,64
98304,note_on,,0,0,2,,,,,,0,64,92
98304,note_off,,192,0,2,,,,,,0,66,64
98496,note_on,,0,0,2,,,,,,0,61,92
98496,note_off,,192,0,2,,,,,,0,64,64
98688,note_off,,384,0,1,,,,,,0,71,64
98688,note_on,,0,0,1,,,,,,0,69,92
98688,note_on,,0,0,2,,,,,,0,66,92
98688,note_off,,192,0,2,,,,,,0,61,64
98880,note_on,,0,0,2,,,,,,0,64,92
98880,note_off,,192,0,2,,,,,,0,66,64
99072,note_on,,0,0,2,,,,,,0,63,92
99072,note_off,,192,0,2,,,,,,0,64,64
99072,note_off,,384,0,1,,,,,,0,73,64
99072,note_on,,0,0,1,,,,,,0,71,92
99264,note_on,,0,0,2,,,,,,0,59,92
99264,note_off,,192,0,2,,,,,,0,63,64
99456,note_off,,192,0,2,,,,,,0,59,64
99456,note_on,,0,0,2,,,,,,0,64,92
99456,note_on,,0,0,1,,,,,,0,67,92
99456,note_off,,384,0,1,,,,,,0,69,64
99840,note_off,,384,0,1,,,,,,0,67,64
99840,note_on,,0,0,1,,,,,,0,69,92
99840,note_on,,0,0,1,,,,,,0,78,92
99840,note_off,,0,0,1,,,,,,0,71,64
100224,note_on,,0,0,2,,,,,,0,63,92
100224,note_off,,768,0,2,,,,,,0,64,64
100416,note_off,,576,0,1,,,,,,0,69,64
100416,note_on,,0,0,1,,,,,,0,71,92
100512,note_on,,0,0,1,,,,,,0,69,92
100512,note_off,,96,0,1,,,,,,0,71,64
100608,note_on,,0,0,2,,,,,,0,64,92
100608,note_off,,384,0,2,,,,,,0,63,64
100608,note_on,,0,0,1,,,,,,0,76,92
100608,note_on,,0,0,1,,,,,,0,67,92
100608,note_off,,0,0,1,,,,,,0,78,64
100608,note_off,,96,0,1,,,,,,0,69,64
100992,note_off,,384,0,1,,,,,,0,67,64
100992,note_on,,0,0,2,,,,,,0,66,92
100992,note_off,,384,0,2,,,,,,0,64,64
100992,note_on,,0,0,1,,,,,,0,69,92
101184,note_off,,192,0,1,,,,,,0,76,64
101184,note_on,,0,0,1,,,,,,0,75,92
101376,note_off,,384,0,2,,,,,,0,66,64
101376,note_off,,192,0,1,,,,,,0,75,64
101376,note_on,,0,0,2,,,,,,0,52,92
101376,note_off,,0,0,1,,,,,,0,69,64
101376,note_on,,0,0,1,,,,,,0,67,92
101376,note_on,,0,0,1,,,,,,0,71,92
101376,note_on,,0,0,1,,,,,,0,76,92
101568,note_on,,0,0,2,,,,,,0,47,92
101568,note_off,,192,0,2,,,,,,0,52,64
101760,note_off,,0,0,1,,,,,,0,71,64
101760,note_off,,384,0,1,,,,,,0,76,64
101760,note_on,,0,0,1,,,,,,0,69,92
101760,note_on,,0,0,1,,,,,,0,75,92
101760,note_off,,192,0,2,,,,,,0,47,64
101760,note_on,,0,0,2,,,,,,0,54,92
101760,note_off,,0,0,1,,,,,,0,67,64
101952,note_off,,192,0,2,,,,,,0,54,64
101952,note_on,,0,0,2,,,,,,0,47,92
102144,note_on,,0,0,1,,,,,,0,67,92
102144,note_off,,192,0,2,,,,,,0,47,64
102144,note_on,,0,0,2,,,,,,0,55,92
102144,note_on,,0,0,1,,,,,,0,71,92
102144,note_on,,0,0,1,,,,,,0,76,92
102144,note_off,,0,0,1,,,,,,0,69,64
102144,note_off,,384,0,1,,,,,,0,75,64
102336,note_off,,192,0,2,,,,,,0,55,64
102336,note_on,,0,0,2,,,,,,0,54,92
102432,note_on,,0,0,2,,,,,,0,55,92
102432,note_off,,96,0,2,,,,,,0,54,64
102528,note_off,,96,0,2,,,,,,0,55,64
102528,note_on,,0,0,2,,,,,,0,52,92
102528,note_off,,0,0,1,,,,,,0,67,64
102528,note_off,,384,0,1,,,,,,0,76,64
102528,note_off,,0,0,1,,,,,,0,71,64
102720,note_on,,192,0,1,,,,,,0,75,92
102720,note_on,,0,0,1,,,,,,0,66,92
102720,note_on,,0,0,1,,,,,,0,71,92
102720,note_on,,0,0,2,,,,,,0,59,92
102720,note_off,,192,0,2,,,,,,0,52,64
102816,note_on,,0,0,2,,,,,,0,57,92
102816,note_off,,96,0,2,,,,,,0,59,64
102912,note_on,,0,0,1,,,,,,0,71,92
102912,note_on,,0,0,1,,,,,,0,76,92
102912,note_on,,0,0,2,,,,,,0,55,92
102912,note_on,,0,0,1,,,,,,0,67,92
102912,note_off,,0,0,1,,,,,,0,75,64
102912,note_off,,0,0,1,,,,,,0,66,64
102912,note_off,,192,0,1,,,,,,0,71,64
102912,note_off,,96,0,2,,,,,,0,57,64
103008,note_off,,96,0,2,,,,,,0,55,64
103008,note_on,,0,0,2,,,,,,0,59,92
103104,note_on,,0,0,2,,,,,,0,52,92
103104,note_off,,96,0,2,,,,,,0,59,64
103200,note_on,,0,0,2,,,,,,0,59,92
103200,note_off,,96,0,2,,,,,,0,52,64
103296,note_off,,96,0,2,,,,,,0,59,64
103296,note_off,,0,0,1,,,,,,0,67,64
103296,note_on,,0,0,2,,,,,,0,55,92
103296,note_off,,384,0,1,,,,,,0,76,64
103296,note_off,,0,0,1,,,,,,0,71,64
103392,note_off,,96,0,2,,,,,,0,55,64
103392,note_on,,0,0,2,,,,,,0,59,92
103488,note_off,,96,0,2,,,,,,0,59,64
103488,note_on,,0,0,2,,,,,,0,52,92
103488,note_on,,0,0,1,,,,,,0,76,92
103488,note_on,,0,0,1,,,,,,0,71,92
103488,note_on,,192,0,1,,,,,,0,67,92
103584,note_off,,96,0,2,,,,,,0,52,64
103584,note_on,,0,0,2,,,,,,0,59,92
103680,note_on,,0,0,1,,,,,,0,64,92
103680,note_off,,192,0,1,,,,,,0,76,64
103680,note_on,,0,0,2,,,,,,0,60,92
103680,note_on,,0,0,1,,,,,,0,69,92
103680,note_off,,0,0,1,,,,,,0,71,64
103680,note_off,,96,0,2,,,,,,0,59,64
103680,note_on,,0,0,1,,,,,,0,72,92
103680,note_off,,0,0,1,,,,,,0,67,64
103872,note_on,,0,0,2,,,,,,0,52,92
103872,note_off,,192,0,1,,,,,,0,64,64
103872,note_on,,0,0,1,,,,,,0,67,92
103872,note_off,,192,0,2,,,,,,0,60,64
104064,note_off,,192,0,2,,,,,,0,52,64
104064,note_on,,0,0,2,,,,,,0,54,92
104064,note_off,,0,0,1,,,,,,0,72,64
104064,note_off,,192,0,1,,,,,,0,67,64
104064,note_on,,0,0,1,,,,,,0,62,92
104064,note_on,,0,0,1,,,,,,0,66,92
104064,note_on,,0,0,1,,,,,,0,69,92
104064,note_off,,0,0,1,,,,,,0,69,64
104256,note_on,,0,0,2,,,,,,0,57,92
104256,note_off,,192,0,2,,,,,,0,54,64
104352,note_on,,0,0,2,,,,,,0,55,92
104352,note_off,,96,0,2,,,,,,0,57,64
104448,note_off,,384,0,1,,,,,,0,69,64
104448,note_off,,0,0,1,,,,,,0,66,64
104448,note_on,,0,0,2,,,,,,0,54,92
104448,note_off,,0,0,1,,,,,,0,62,64
104448,note_off,,96,0,2,,,,,,0,55,64
104544,note_on,,0,0,2,,,,,,0,57,92
104544,note_off,,96,0,2,,,,,,0,54,64
104640,note_on,,0,0,2,,,,,,0,50,92
104640,note_off,,96,0,2,,,,,,0,57,64
104640,note_on,,0,0,1,,,,,,0,69,92
104640,note_on,,0,0,1,,,,,,0,74,92
104640,note_on,,192,0,1,,,,,,0,66,92
104736,note_on,,0,0,2,,,,,,0,57,92
104736,note_off,,96,0,2,,,,,,0,50,64
104832,note_on,,0,0,2,,,,,,0,54,92
104832,note_off,,96,0,2,,,,,,0,57,64
104832,note_on,,0,0,1,,,,,,0,69,92
104832,note_off,,0,0,1,,,,,,0,69,64
104832,note_off,,192,0,1,,,,,,0,74,64
104832,note_off,,0,0,1,,,,,,0,66,64
104832,note_on,,0,0,1,,,,,,0,66,92
104832,note_on,,0,0,1,,,,,,0,72,92
104928,note_on,,0,0,2,,,,,,0,57,92
104928,note_off,,96,0,2,,,,,,0,54,64
105024,note_on,,0,0,2,,,,,,0,50,92
105024,note_off,,96,0,2,,,,,,0,57,64
105120,note_on,,0,0,2,,,,,,0,57,92
105120,note_off,,96,0,2,,,,,,0,50,64
105216,note_off,,0,0,1,,,,,,0,66,64
105216,note_on,,0,0,1,,,,,,0,67,92
105216,note_on,,0,0,1,,,,,,0,62,92
105216,note_on,,0,0,1,,,,,,0,71,92
105216,note_off,,384,0,1,,,,,,0,72,64
105216,note_on,,0,0,2,,,,,,0,59,92
105216,note_off,,96,0,2,,,,,,0,57,64
105216,note_off,,0,0,1,,,,,,0,69,64
105408,note_on,,0,0,1,,,,,,0,66,92
105408,note_on,,0,0,2,,,,,,0,50,92
105408,note_off,,192,0,2,,,,,,0,59,64
105408,note_off,,192,0,1,,,,,,0,67,64
105600,note_on,,0,0,2,,,,,,0,52,92
105600,note_off,,192,0,1,,,,,,0,66,64
105600,note_off,,0,0,1,,,,,,0,71,64
105600,note_off,,192,0,2,,,,,,0,50,64
105600,note_off,,0,0,1,,,,,,0,62,64
105600,note_on,,0,0,1,,,,,,0,64,92
105600,note_on,,0,0,1,,,,,,0,67,92
105600,note_on,,0,0,1,,,,,,0,71,92
105792,note_on,,0,0,2,,,,,,0,55,92
105792,note_off,,192,0,2,,,,,,0,52,64
105888,note_on,,0,0,2,,,,,,0,54,92
105888,note_off,,96,0,2,,,,,,0,55,64
105984,note_on,,0,0,2,,,,,,0,52,92
105984,note_off,,96,0,2,,,,,,0,54,64
106176,note_on,,0,0,1,,,,,,0,72,92
106176,note_off,,0,0,1,,,,,,0,64,64
106176,note_off,,0,0,1,,,,,,0,67,64
106176,note_on,,0,0,1,,,,,,0,69,92
106176,note_on,,0,0,2,,,,,,0,57,92
106176,note_off,,192,0,2,,,,,,0,52,64
106176,note_off,,576,0,1,,,,,,0,71,64
106176,note_on,,0,0,1,,,,,,0,64,92
106368,note_off,,0,0,1,,,,,,0,69,64
106368,note_on,,0,0,1,,,,,,0,65,92
106368,note_on,,0,0,1,,,,,,0,71,92
106368,note_on,,0,0,1,,,,,,0,62,92
106368,note_off,,0,0,1,,,,,,0,64,64
106368,note_off,,192,0,1,,,,,,0,72,64
106560,note_off,,192,0,1,,,,,,0,65,64
106560,note_on,,0,0,1,,,,,,0,64,92
106560,note_off,,384,0,2,,,,,,0,57,64
106560,note_on,,0,0,2,,,,,,0,56,92
106752,note_off,,192,0,2,,,,,,0,56,64
106752,note_off,,192,0,1,,,,,,0,64,64
106752,note_off,,0,0,1,,,,,,0,71,64
106752,note_off,,0,0,1,,,,,,0,62,64
106752,note_on,,0,0,1,,,,,,0,60,92
106752,note_on,,0,0,1,,,,,,0,64,92
106752,note_on,,0,0,1,,,,,,0,69,92
106752,note_on,,0,0,2,,,,,,0,57,92
106944,note_on,,0,0,2,,,,,,0,45,92
106944,note_off,,192,0,2,,,,,,0,57,64
107040,note_on,,0,0,2,,,,,,0,47,92
107040,note_off,,96,0,2,,,,,,0,45,64
107136,note_off,,96,0,2,,,,,,0,47,64
107136,note_on,,0,0,2,,,,,,0,48,92
107136,note_off,,384,0,1,,,,,,0,69,64
107136,note_off,,0,0,1,,,,,,0,64,64
107136,note_on,,0,0,1,,,,,,0,64,92
107232,note_on,,0,0,2,,,,,,0,47,92
107232,note_off,,96,0,2,,,,,,0,48,64
107328,note_off,,192,0,1,,,,,,0,64,64
107328,note_on,,0,0,2,,,,,,0,48,92
107328,note_off,,96,0,2,,,,,,0,47,64
107328,note_on,,0,0,1,,,,,,0,69,92
107424,note_on,,0,0,2,,,,,,0,50,92
107424,note_off,,96,0,2,,,,,,0,48,64
107520,note_on,,0,0,1,,,,,,0,59,92
107520,note_off,,192,0,1,,,,,,0,60,64
107520,note_off,,96,0,2,,,,,,0,50,64
107520,note_on,,0,0,2,,,,,,0,52,92
107712,note_off,,192,0,2,,,,,,0,52,64
107712,note_on,,0,0,2,,,,,,0,50,92
107808,note_off,,96,0,2,,,,,,0,50,64
107808,note_on,,0,0,2,,,,,,0,48,92
107904,note_on,,0,0,2,,,,,,0,47,92
107904,note_off,,96,0,2,,,,,,0,48,64
107904,note_off,,384,0,1,,,,,,0,69,64
107904,note_on,,0,0,1,,,,,,0,67,92
108096,note_off,,192,0,2,,,,,,0,47,64
108096,note_on,,0,0,2,,,,,,0,48,92
108288,note_off,,192,0,2,,,,,,0,48,64
108288,note_off,,384,0,1,,,,,,0,59,64
108288,note_on,,0,0,1,,,,,,0,57,92
108288,note_on,,0,0,2,,,,,,0,50,92
108480,note_off,,192,0,2,,,,,,0,50,64
108480,note_on,,0,0,2,,,,,,0,48,92
108576,note_off,,96,0,2,,,,,,0,48,64
108576,note_on,,0,0,2,,,,,,0,47,92
108672,note_off,,96,0,2,,,,,,0,47,64
108672,note_on,,0,0,2,,,,,,0,45,92
108672,note_on,,0,0,1,,,,,,0,65,92
108672,note_off,,384,0,1,,,,,,0,67,64
108864,note_on,,0,0,2,,,,,,0,47,92
108864,note_off,,192,0,2,,,,,,0,45,64
109056,note_off,,192,0,2,,,,,,0,47,64
109056,note_on,,0,0,1,,,,,,0,55,92
109056,note_off,,384,0,1,,,,,,0,57,64
109056,note_on,,0,0,2,,,,,,0,48,92
109248,note_on,,0,0,2,,,,,,0,43,92
109248,note_off,,192,0,2,,,,,,0,48,64
109440,note_on,,0,0,2,,,,,,0,48,92
109440,note_on,,0,0,1,,,,,,0,64,92
109440,note_off,,384,0,1,,,,,,0,65,64
109440,note_off,,192,0,2,,,,,,0,43,64
109824,note_on,,0,0,1,,,,,,0,57,92
109824,note_on,,0,0,1,,,,,,0,66,92
109824,note_off,,0,0,1,,,,,,0,55,64
109824,note_off,,384,0,1,,,,,,0,64,64
109920,note_on,,0,0,1,,,,,,0,62,92
109920,note_off,,96,0,1,,,,,,0,66,64
110016,note_off,,96,0,1,,,,,,0,62,64
110016,note_on,,0,0,1,,,,,,0,64,92
110112,note_off,,96,0,1,,,,,,0,64,64
110112,note_on,,0,0,1,,,,,,0,66,92
110208,note_on,,0,0,1,,,,,,0,62,92
110208,note_off,,768,0,2,,,,,,0,48,64
110208,note_on,,0,0,2,,,,,,0,47,92
110208,note_off,,0,0,1,,,,,,0,57,64
110208,note_off,,96,0,1,,,,,,0,66,64
110208,note_on,,0,0,1,,,,,,0,67,92
110400,note_on,,0,0,1,,,,,,0,71,92
110400,note_off,,192,0,1,,,,,,0,67,64
110400,note_off,,0,0,1,,,,,,0,62,64
110400,note_on,,0,0,1,,,,,,0,67,92
110592,note_on,,0,0,1,,,,,,0,72,92
110592,note_off,,192,0,1,,,,,,0,71,64
110592,note_on,,0,0,2,,,,,,0,45,92
110592,note_off,,384,0,2,,,,,,0,47,64
110688,note_off,,96,0,1,,,,,,0,67,64
110688,note_on,,0,0,1,,,,,,0,67,92
110784,note_off,,96,0,1,,,,,,0,67,64
110784,note_on,,0,0,1,,,,,,0,66,92
110880,note_off,,96,0,1,,,,,,0,66,64
110880,note_on,,0,0,1,,,,,,0,64,92
110976,note_off,,384,0,2,,,,,,0,45,64
110976,note_on,,0,0,1,,,,,,0,66,92
110976,note_on,,0,0,2,,,,,,0,50,92
110976,note_off,,96,0,1,,,,,,0,64,64
111072,note_on,,0,0,1,,,,,,0,72,92
111072,note_off,,96,0,1,,,,,,0,72,64
111168,note_off,,96,0,1,,,,,,0,72,64
111168,note_on,,0,0,1,,,,,,0,71,92
111264,note_off,,96,0,1,,,,,,0,71,64
111264,note_on,,0,0,1,,,,,,0,69,92
111360,note_off,,96,0,1,,,,,,0,69,64
111360,note_on,,0,0,1,,,,,,0,71,92
111360,note_on,,0,0,2,,,,,,0,55,92
111360,note_off,,384,0,2,,,,,,0,50,64
111456,note_off,,96,0,1,,,,,,0,66,64
111456,note_on,,0,0,1,,,,,,0,66,92
111552,note_off,,96,0,1,,,,,,0,66,64
111552,note_on,,0,0,1,,,,,,0,64,92
111648,note_off,,96,0,1,,,,,,0,64,64
111648,note_on,,0,0,1,,,,,,0,62,92
111744,note_off,,384,0,2,,,,,,0,55,64
111744,note_on,,0,0,2,,,,,,0,60,92
111744,note_off,,96,0,1,,,,,,0,62,64
111744,note_on,,0,0,1,,,,,,0,64,92
111840,note_off,,96,0,1,,,,,,0,71,64
111840,note_on,,0,0,1,,,,,,0,71,92
111936,note_off,,96,0,1,,,,,,0,71,64
111936,note_on,,0,0,1,,,,,,0,69,92
112032,note_on,,0,0,1,,,,,,0,67,92
112032,note_off,,96,0,1,,,,,,0,69,64
112128,note_on,,0,0,2,,,,,,0,54,92
112128,note_off,,384,0,2,,,,,,0,60,64
112128,note_on,,0,0,1,,,,,,0,69,92
112128,note_off,,96,0,1,,,,,,0,67,64
112224,note_off,,96,0,1,,,,,,0,64,64
112224,note_on,,0,0,1,,,,,,0,64,92
112320,note_off,,96,0,1,,,,,,0,64,64
112320,note_on,,0,0,1,,,,,,0,63,92
112416,note_on,,0,0,1,,,,,,0,61,92
112416,note_off,,96,0,1,,,,,,0,63,64
112512,note_on,,0,0,2,,,,,,0,59,92
112512,note_on,,0,0,1,,,,,,0,63,92
112512,note_off,,96,0,1,,,,,,0,61,64
112512,note_off,,384,0,2,,,,,,0,54,64
112608,note_on,,0,0,1,,,,,,0,69,92
112608,note_off,,96,0,1,,,,,,0,69,64
112704,note_off,,96,0,1,,,,,,0,69,64
112704,note_on,,0,0,1,,,,,,0,67,92
112800,note_off,,96,0,1,,,,,,0,67,64
112800,note_on,,0,0,1,,,,,,0,66,92
112896,note_off,,96,0,1,,,,,,0,66,64
112896,note_off,,0,0,1,,,,,,0,63,64
112896,note_on,,0,0,1,,,,,,0,67,92
112896,note_on,,0,0,1,,,,,,0,64,92
112896,note_off,,384,0,2,,,,,,0,59,64
112896,note_on,,0,0,2,,,,,,0,55,92
112992,note_off,,96,0,1,,,,,,0,64,64
112992,note_on,,0,0,1,,,,,,0,59,92
113088,note_on,,0,0,1,,,,,,0,64,92
113088,note_off,,96,0,1,,,,,,0,59,64
113280,note_on,,0,0,2,,,,,,0,54,92
113280,note_off,,192,0,1,,,,,,0,67,64
113280,note_on,,0,0,1,,,,,,0,69,92
113280,note_off,,384,0,2,,,,,,0,55,64
113472,note_on,,0,0,1,,,,,,0,63,92
113472,note_off,,192,0,1,,,,,,0,64,64
113664,note_off,,0,0,1,,,,,,0,69,64
113664,note_on,,0,0,2,,,,,,0,52,92
113664,note_off,,192,0,1,,,,,,0,63,64
113664,note_on,,0,0,1,,,,,,0,64,92
113664,note_on,,0,0,1,,,,,,0,67,92
113664,note_on,,0,0,1,,,,,,0,76,92
113664,note_off,,384,0,2,,,,,,0,54,64
113856,note_off,,192,0,1,,,,,,0,76,64
113856,note_on,,0,0,1,,,,,,0,71,92
114048,note_off,,192,0,1,,,,,,0,71,64
114048,note_off,,0,0,1,,,,,,0,64,64
114048,note_on,,0,0,1,,,,,,0,63,92
114048,note_on,,0,0,1,,,,,,0,78,92
114048,note_off,,0,0,1,,,,,,0,67,64
114048,note_off,,384,0,2,,,,,,0,52,64
114048,note_on,,0,0,2,,,,,,0,59,92
114240,note_off,,192,0,1,,,,,,0,78,64
114240,note_on,,0,0,1,,,,,,0,71,92
114432,note_on,,0,0,1,,,,,,0,79,92
114432,note_off,,384,0,2,,,,,,0,59,64
114432,note_on,,0,0,2,,,,,,0,52,92
114432,note_off,,192,0,1,,,,,,0,71,64
114432,note_off,,0,0,1,,,,,,0,63,64
114432,note_on,,0,0,1,,,,,,0,64,92
114624,note_off,,192,0,1,,,,,,0,79,64
114624,note_on,,0,0,1,,,,,,0,78,92
114720,note_on,,0,0,1,,,,,,0,79,92
114720,note_off,,96,0,1,,,,,,0,78,64
114816,note_off,,384,0,2,,,,,,0,52,64
114816,note_off,,0,0,1,,,,,,0,64,64
114816,note_on,,0,0,1,,,,,,0,76,92
114816,note_off,,96,0,1,,,,,,0,79,64
115008,note_off,,192,0,1,,,,,,0,76,64
115008,note_on,,0,0,1,,,,,,0,83,92
115008,note_on,,0,0,1,,,,,,0,63,92
115008,note_on,,192,0,2,,,,,,0,59,92
115104,note_on,,0,0,1,,,,,,0,81,92
115104,note_off,,96,0,1,,,,,,0,83,64
115200,note_on,,0,0,2,,,,,,0,52,92
115200,note_on,,0,0,1,,,,,,0,79,92
115200,note_off,,0,0,1,,,,,,0,63,64
115200,note_off,,96,0,1,,,,,,0,81,64
115200,note_on,,0,0,1,,,,,,0,64,92
115200,note_off,,192,0,2,,,,,,0,59,64
115296,note_on,,0,0,1,,,,,,0,83,92
115296,note_off,,96,0,1,,,,,,0,79,64
115392,note_on,,0,0,1,,,,,,0,76,92
115392,note_off,,96,0,1,,,,,,0,83,64
115488,note_off,,96,0,1,,,,,,0,76,64
115488,note_on,,0,0,1,,,,,,0,83,92
115584,note_on,,0,0,1,,,,,,0,79,92
115584,note_off,,0,0,1,,,,,,0,64,64
115584,note_off,,384,0,2,,,,,,0,52,64
115584,note_off,,96,0,1,,,,,,0,83,64
115680,note_off,,96,0,1,,,,,,0,79,64
115680,note_on,,0,0,1,,,,,,0,83,92
115776,note_on,,0,0,1,,,,,,0,64,92
115776,note_on,,0,0,1,,,,,,0,76,92
115776,note_off,,96,0,1,,,,,,0,83,64
115776,note_on,,192,0,2,,,,,,0,55,92
115872,note_off,,96,0,1,,,,,,0,76,64
115872,note_on,,0,0,1,,,,,,0,83,92
115968,note_off,,192,0,2,,,,,,0,55,64
115968,note_on,,0,0,1,,,,,,0,60,92
115968,note_on,,0,0,2,,,,,,0,57,92
115968,note_off,,96,0,1,,,,,,0,83,64
115968,note_off,,0,0,1,,,,,,0,64,64
115968,note_on,,0,0,1,,,,,,0,84,92
116160,note_on,,0,0,1,,,,,,0,76,92
116160,note_off,,192,0,1,,,,,,0,84,64
116352,note_off,,192,0,1,,,,,,0,76,64
116352,note_off,,0,0,1,,,,,,0,60,64
116352,note_on,,0,0,1,,,,,,0,62,92
116352,note_off,,384,0,2,,,,,,0,57,64
116352,note_on,,0,0,2,,,,,,0,50,92
116352,note_on,,0,0,1,,,,,,0,78,92
116544,note_off,,192,0,1,,,,,,0,78,64
116544,note_on,,0,0,1,,,,,,0,81,92
116640,note_on,,0,0,1,,,,,,0,79,92
116640,note_off,,96,0,1,,,,,,0,81,64
116736,note_on,,0,0,1,,,,,,0,62,92
116736,note_on,,0,0,1,,,,,,0,78,92
116736,note_off,,0,0,1,,,,,,0,62,64
116736,note_off,,96,0,1,,,,,,0,79,64
116736,note_on,,0,0,2,,,,,,0,50,92
116736,note_off,,384,0,2,,,,,,0,50,64
116832,note_off,,96,0,1,,,,,,0,78,64
116832,note_on,,0,0,1,,,,,,0,81,92
116928,note_off,,96,0,1,,,,,,0,81,64
116928,note_on,,0,0,1,,,,,,0,74,92
117024,note_off,,96,0,1,,,,,,0,74,64
117024,note_on,,0,0,1,,,,,,0,81,92
117120,note_off,,384,0,2,,,,,,0,50,64
117120,note_off,,96,0,1,,,,,,0,81,64
117120,note_off,,0,0,1,,,,,,0,62,64
117120,note_on,,0,0,1,,,,,,0,78,92
117216,note_off,,96,0,1,,,,,,0,78,64
117216,note_on,,0,0,1,,,,,,0,81,92
117312,note_on,,192,0,2,,,,,,0,54,92
117312,note_on,,0,0,1,,,,,,0,62,92
117312,note_off,,96,0,1,,,,,,0,81,64
117312,note_on,,0,0,1,,,,,,0,74,92
117408,note_on,,0,0,1,,,,,,0,81,92
117408,note_off,,96,0,1,,,,,,0,74,64
117504,note_off,,192,0,2,,,,,,0,54,64
117504,note_on,,0,0,2,,,,,,0,55,92
117504,note_on,,0,0,1,,,,,,0,59,92
117504,note_on,,0,0,1,,,,,,0,83,92
117504,note_off,,0,0,1,,,,,,0,62,64
117504,note_off,,96,0,1,,,,,,0,81,64
117696,note_on,,0,0,1,,,,,,0,74,92
117696,note_off,,192,0,1,,,,,,0,83,64
117888,note_on,,0,0,2,,,,,,0,48,92
117888,note_off,,192,0,1,,,,,,0,74,64
117888,note_on,,0,0,1,,,,,,0,76,92
117888,note_on,,0,0,1,,,,,,0,60,92
117888,note_off,,384,0,2,,,,,,0,55,64
117888,note_off,,0,0,1,,,,,,0,59,64
118080,note_off,,192,0,1,,,,,,0,76,64
118080,note_on,,0,0,1,,,,,,0,79,92
118176,note_off,,96,0,1,,,,,,0,79,64
118176,note_on,,0,0,1,,,,,,0,78,92
118272,note_on,,0,0,2,,,,,,0,57,92
118272,note_off,,384,0,2,,,,,,0,48,64
118272,note_off,,96,0,1,,,,,,0,78,64
118272,note_off,,0,0,1,,,,,,0,60,64
118272,note_on,,0,0,1,,,,,,0,60,92
118272,note_on,,0,0,1,,,,,,0,76,92
118464,note_off,,192,0,1,,,,,,0,76,64
118464,note_on,,0,0,1,,,,,,0,81,92
118656,note_off,,192,0,1,,,,,,0,60,64
118656,note_on,,0,0,1,,,,,,0,62,92
118656,note_off,,384,0,2,,,,,,0,57,64
118656,note_on,,0,0,2,,,,,,0,59,92
118848,note_off,,192,0,1,,,,,,0,81,64
118848,note_on,,0,0,1,,,,,,0,80,92
119040,note_on,,0,0,2,,,,,,0,57,92
119040,note_off,,384,0,2,,,,,,0,59,64
119040,note_off,,192,0,1,,,,,,0,80,64
119040,note_on,,0,0,1,,,,,,0,81,92
119040,note_off,,0,0,1,,,,,,0,62,64
119040,note_on,,0,0,1,,,,,,0,60,92
119232,note_off,,192,0,1,,,,,,0,81,64
119232,note_on,,0,0,1,,,,,,0,79,92
119328,note_on,,0,0,1,,,,,,0,77,92
119328,note_off,,96,0,1,,,,,,0,79,64
119424,note_off,,0,0,1,,,,,,0,60,64
119424,note_off,,384,0,2,,,,,,0,57,64
119424,note_off,,96,0,1,,,,,,0,77,64
119424,note_on,,0,0,1,,,,,,0,76,92
119520,note_off,,96,0,1,,,,,,0,76,64
119520,note_on,,0,0,1,,,,,,0,81,92
119616,note_off,,96,0,1,,,,,,0,81,64
119616,note_on,,0,0,1,,,,,,0,79,92
119712,note_off,,96,0,1,,,,,,0,79,64
119712,note_on,,0,0,1,,,,,,0,81,92
119808,note_off,,96,0,1,,,,,,0,81,64
119808,note_on,,0,0,1,,,,,,0,77,92
119808,note_on,,0,0,1,,,,,,0,74,92
120000,note_off,,192,0,1,,,,,,0,74,64
120000,note_on,,0,0,1,,,,,,0,72,92
120096,note_off,,96,0,1,,,,,,0,72,64
120096,note_on,,0,0,1,,,,,,0,71,92
120192,note_off,,96,0,1,,,,,,0,71,64
120192,note_off,,0,0,1,,,,,,0,77,64
120192,note_on,,0,0,1,,,,,,0,69,92
120288,note_off,,96,0,1,,,,,,0,69,64
120288,note_on,,0,0,1,,,,,,0,74,92
120384,note_off,,96,0,1,,,,,,0,74,64
120384,note_on,,0,0,1,,,,,,0,72,92
120480,note_on,,0,0,1,,,,,,0,74,92
120480,note_off,,96,0,1,,,,,,0,72,64
120576,note_on,,0,0,1,,,,,,0,79,92
120576,note_off,,96,0,1,,,,,,0,74,64
120576,note_on,,0,0,1,,,,,,0,71,92
120768,note_off,,192,0,1,,,,,,0,79,64
120768,note_on,,0,0,1,,,,,,0,77,92
120864,note_off,,96,0,1,,,,,,0,77,64
120864,note_on,,0,0,1,,,,,,0,76,92
120960,note_off,,96,0,1,,,,,,0,76,64
120960,note_off,,0,0,1,,,,,,0,71,64
120960,note_on,,0,0,1,,,,,,0,74,92
121056,note_off,,96,0,1,,,,,,0,74,64
121056,note_on,,0,0,1,,,,,,0,79,92
121152,note_off,,96,0,1,,,,,,0,79,64
121152,note_on,,0,0,1,,,,,,0,77,92
121248,note_on,,0,0,1,,,,,,0,79,92
121248,note_off,,96,0,1,,,,,,0,77,64
121344,note_off,,96,0,1,,,,,,0,79,64
121344,note_on,,0,0,1,,,,,,0,76,92
121344,note_on,,0,0,1,,,,,,0,72,92
121536,note_off,,192,0,1,,,,,,0,72,64
121536,note_on,,0,0,1,,,,,,0,71,92
121632,note_off,,96,0,1,,,,,,0,71,64
121632,note_on,,0,0,1,,,,,,0,69,92
121728,note_off,,96,0,1,,,,,,0,69,64
121728,note_off,,0,0,1,,,,,,0,76,64
121728,note_on,,0,0,1,,,,,,0,67,92
121824,note_on,,0,0,1,,,,,,0,72,92
121824,note_off,,96,0,1,,,,,,0,67,64
121920,note_off,,96,0,1,,,,,,0,72,64
121920,note_on,,0,0,1,,,,,,0,71,92
122016,note_off,,96,0,1,,,,,,0,71,64
122016,note_on,,0,0,1,,,,,,0,72,92
122112,note_off,,96,0,1,,,,,,0,72,64
122112,note_on,,0,0,1,,,,,,0,69,92
122112,note_on,,0,0,1,,,,,,0,77,92
122304,note_off,,192,0,1,,,,,,0,77,64
122304,note_on,,0,0,1,,,,,,0,76,92
122400,note_off,,96,0,1,,,,,,0,76,64
122400,note_on,,0,0,1,,,,,,0,74,92
122496,note_on,,0,0,1,,,,,,0,72,92
122496,note_off,,96,0,1,,,,,,0,74,64
122496,note_off,,0,0,1,,,,,,0,69,64
122592,note_on,,0,0,1,,,,,,0,77,92
122592,note_off,,96,0,1,,,,,,0,72,64
122688,note_on,,0,0,1,,,,,,0,76,92
122688,note_off,,96,0,1,,,,,,0,77,64
122784,note_off,,96,0,1,,,,,,0,76,64
122784,note_on,,0,0,1,,,,,,0,77,92
122880,note_off,,96,0,1,,,,,,0,77,64
122880,note_on,,0,0,1,,,,,,0,74,92
122880,note_on,,0,0,1,,,,,,0,71,92
123072,note_off,,192,0,1,,,,,,0,71,64
123072,note_on,,0,0,1,,,,,,0,69,92
123168,note_on,,0,0,1,,,,,,0,67,92
123168,note_off,,96,0,1,,,,,,0,69,64
123264,note_on,,0,0,1,,,,,,0,66,92
123264,note_off,,0,0,1,,,,,,0,74,64
123264,note_off,,96,0,1,,,,,,0,67,64
123360,note_off,,96,0,1,,,,,,0,66,64
123360,note_on,,0,0,1,,,,,,0,71,92
123456,note_off,,96,0,1,,,,,,0,71,64
123456,note_on,,0,0,1,,,,,,0,69,92
123552,note_off,,96,0,1,,,,,,0,69,64
123552,note_on,,0,0,1,,,,,,0,71,92
123648,note_off,,96,0,1,,,,,,0,71,64
123648,note_on,,0,0,1,,,,,,0,68,92
123648,note_on,,0,0,1,,,,,,0,76,92
123840,note_off,,192,0,1,,,,,,0,76,64
123840,note_on,,0,0,1,,,,,,0,74,92
123936,note_on,,0,0,1,,,,,,0,72,92
123936,note_off,,96,0,1,,,,,,0,74,64
124032,note_on,,0,0,1,,,,,,0,71,92
124032,note_off,,96,0,1,,,,,,0,72,64
124128,note_on,,0,0,1,,,,,,0,76,92
124128,note_off,,96,0,1,,,,,,0,71,64
124224,note_on,,0,0,1,,,,,,0,74,92
124224,note_off,,96,0,1,,,,,,0,76,64
124320,note_on,,0,0,1,,,,,,0,76,92
124320,note_off,,96,0,1,,,,,,0,74,64
124416,note_off,,96,0,1,,,,,,0,76,64
124416,note_on,,0,0,1,,,,,,0,69,92
124416,note_off,,0,0,1,,,,,,0,68,64
124512,note_on,,96,0,1,,,,,,0,72,92
124608,note_off,,96,0,1,,,,,,0,72,64
124608,note_on,,0,0,1,,,,,,0,76,92
124704,note_off,,96,0,1,,,,,,0,76,64
124704,note_on,,0,0,1,,,,,,0,72,92
124800,note_off,,96,0,1,,,,,,0,72,64
124800,note_off,,0,0,1,,,,,,0,69,64
124800,note_on,,0,0,1,,,,,,0,69,92
124896,note_on,,96,0,1,,,,,,0,72,92
124992,note_off,,96,0,1,,,,,,0,72,64
124992,note_on,,0,0,1,,,,,,0,76,92
125088,note_off,,96,0,1,,,,,,0,76,64
125088,note_on,,0,0,1,,,,,,0,72,92
125184,note_on,,0,0,1,,,,,,0,69,92
125184,note_off,,96,0,1,,,,,,0,72,64
125184,note_off,,0,0,1,,,,,,0,69,64
125280,note_on,,96,0,1,,,,,,0,72,92
125376,note_off,,96,0,1,,,,,,0,72,64
125376,note_on,,0,0,1,,,,,,0,77,92
125472,note_off,,96,0,1,,,,,,0,77,64
125472,note_on,,0,0,1,,,,,,0,72,92
125568,note_off,,96,0,1,,,,,,0,72,64
125568,note_on,,0,0,1,,,,,,0,69,92
125568,note_off,,0,0,1,,,,,,0,69,64
125664,note_on,,96,0,1,,,,,,0,72,92
125760,note_off,,96,0,1,,,,,,0,72,64
125760,note_on,,0,0,1,,,,,,0,77,92
125856,note_off,,96,0,1,,,,,,0,77,64
125856,note_on,,0,0,1,,,,,,0,72,92
125952,note_off,,0,0,1,,,,,,0,69,64
125952,note_off,,96,0,1,,,,,,0,72,64
125952,note_on,,0,0,1,,,,,,0,68,92
126048,note_on,,96,0,1,,,,,,0,71,92
126144,note_off,,96,0,1,,,,,,0,71,64
126144,note_on,,0,0,1,,,,,,0,77,92
126240,note_on,,0,0,1,,,,,,0,71,92
126240,note_off,,96,0,1,,,,,,0,77,64
126336,note_off,,96,0,1,,,,,,0,71,64
126336,note_off,,0,0,1,,,,,,0,68,64
126336,note_on,,0,0,1,,,,,,0,67,92
126432,note_on,,96,0,1,,,,,,0,71,92
126528,note_off,,96,0,1,,,,,,0,71,64
126528,note_on,,0,0,1,,,,,,0,76,92
126624,note_on,,0,0,1,,,,,,0,71,92
126624,note_off,,96,0,1,,,,,,0,76,64
126720,note_off,,96,0,1,,,,,,0,71,64
126720,note_off,,0,0,1,,,,,,0,67,64
126720,note_on,,0,0,1,,,,,,0,66,92
126816,note_on,,96,0,1,,,,,,0,69,92
126912,note_off,,96,0,1,,,,,,0,69,64
126912,note_on,,0,0,1,,,,,,0,76,92
127008,note_off,,96,0,1,,,,,,0,76,64
127008,note_on,,0,0,1,,,,,,0,69,92
127104,note_on,,0,0,1,,,,,,0,65,92
127104,note_off,,0,0,1,,,,,,0,66,64
127104,note_off,,96,0,1,,,,,,0,69,64
127200,note_on,,96,0,1,,,,,,0,69,92
127296,note_on,,0,0,1,,,,,,0,74,92
127296,note_off,,96,0,1,,,,,,0,69,64
127392,note_off,,96,0,1,,,,,,0,74,64
127392,note_on,,0,0,1,,,,,,0,69,92
127488,note_off,,96,0,1,,,,,,0,69,64
127488,note_off,,0,0,1,,,,,,0,65,64
127488,note_on,,0,0,1,,,,,,0,68,92
127488,note_on,,0,0,1,,,,,,0,64,92
127584,note_off,,96,0,1,,,,,,0,68,64
127584,note_on,,0,0,1,,,,,,0,76,92
127680,note_on,,0,0,1,,,,,,0,71,92
127680,note_off,,96,0,1,,,,,,0,76,64
127776,note_on,,0,0,1,,,,,,0,76,92
127776,note_off,,96,0,1,,,,,,0,71,64
127872,note_off,,96,0,1,,,,,,0,76,64
127872,note_on,,0,0,1,,,,,,0,69,92
127968,note_off,,96,0,1,,,,,,0,69,64
127968,note_on,,0,0,1,,,,,,0,76,92
128064,note_off,,96,0,1,,,,,,0,76,64
128064,note_on,,0,0,1,,,,,,0,72,92
128160,note_off,,96,0,1,,,,,,0,72,64
128160,note_on,,0,0,1,,,,,,0,76,92
128256,note_off,,96,0,1,,,,,,0,76,64
128256,note_on,,0,0,1,,,,,,0,68,92
128352,note_off,,96,0,1,,,,,,0,68,64
128352,note_on,,0,0,1,,,,,,0,76,92
128448,note_off,,96,0,1,,,,,,0,76,64
128448,note_on,,0,0,1,,,,,,0,71,92
128544,note_off,,96,0,1,,,,,,0,71,64
128544,note_on,,0,0,1,,,,,,0,76,92
128640,note_off,,96,0,1,,,,,,0,76,64
128640,note_on,,0,0,1,,,,,,0,69,92
128736,note_off,,96,0,1,,,,,,0,69,64
128736,note_on,,0,0,1,,,,,,0,76,92
128832,note_off,,96,0,1,,,,,,0,76,64
128832,note_on,,0,0,1,,,,,,0,72,92
128928,note_off,,96,0,1,,,,,,0,72,64
128928,note_on,,0,0,1,,,,,,0,76,92
129024,note_off,,96,0,1,,,,,,0,76,64
129024,note_on,,0,0,1,,,,,,0,71,92
129120,note_off,,96,0,1,,,,,,0,71,64
129120,note_on,,0,0,1,,,,,,0,80,92
129216,note_off,,96,0,1,,,,,,0,80,64
129216,note_on,,0,0,1,,,,,,0,76,92
129312,note_off,,96,0,1,,,,,,0,76,64
129312,note_on,,0,0,1,,,,,,0,80,92
129408,note_off,,96,0,1,,,,,,0,80,64
129408,note_on,,0,0,1,,,,,,0,72,92
129504,note_off,,96,0,1,,,,,,0,72,64
129504,note_on,,0,0,1,,,,,,0,81,92
129600,note_off,,96,0,1,,,,,,0,81,64
129600,note_on,,0,0,1,,,,,,0,76,92
129696,note_off,,96,0,1,,,,,,0,76,64
129696,note_on,,0,0,1,,,,,,0,81,92
129792,note_off,,96,0,1,,,,,,0,81,64
129792,note_on,,0,0,1,,,,,,0,71,92
129888,note_on,,0,0,1,,,,,,0,80,92
129888,note_off,,96,0,1,,,,,,0,71,64
129984,note_on,,0,0,1,,,,,,0,76,92
129984,note_off,,96,0,1,,,,,,0,80,64
130080,note_off,,96,0,1,,,,,,0,76,64
130080,note_on,,0,0,1,,,,,,0,80,92
130176,note_off,,96,0,1,,,,,,0,80,64
130176,note_on,,0,0,1,,,,,,0,72,92
130272,note_off,,96,0,1,,,,,,0,72,64
130272,note_on,,0,0,1,,,,,,0,81,92
130368,note_on,,0,0,1,,,,,,0,76,92
130368,note_off,,96,0,1,,,,,,0,81,64
130464,note_off,,96,0,1,,,,,,0,76,64
130464,note_on,,0,0,1,,,,,,0,81,92
130560,note_on,,0,0,1,,,,,,0,71,92
130560,note_off,,96,0,1,,,,,,0,81,64
130656,note_on,,0,0,1,,,,,,0,81,92
130656,note_off,,96,0,1,,,,,,0,71,64
130752,note_off,,96,0,1,,,,,,0,81,64
130752,note_on,,0,0,1,,,,,,0,74,92
130848,note_off,,96,0,1,,,,,,0,74,64
130848,note_on,,0,0,1,,,,,,0,81,92
130944,note_off,,96,0,1,,,,,,0,81,64
130944,note_on,,0,0,1,,,,,,0,71,92
131040,note_off,,96,0,1,,,,,,0,71,64
131040,note_on,,0,0,1,,,,,,0,81,92
131136,note_off,,96,0,1,,,,,,0,81,64
131136,note_on,,0,0,1,,,,,,0,74,92
131232,note_off,,96,0,1,,,,,,0,74,64
131232,note_on,,0,0,1,,,,,,0,81,92
131328,note_off,,96,0,1,,,,,,0,81,64
131328,note_on,,0,0,1,,,,,,0,71,92
131424,note_on,,0,0,1,,,,,,0,80,92
131424,note_off,,96,0,1,,,,,,0,71,64
131520,note_on,,0,0,1,,,,,,0,74,92
131520,note_off,,96,0,1,,,,,,0,80,64
131616,note_off,,96,0,1,,,,,,0,74,64
131616,note_on,,0,0,1,,,,,,0,80,92
131712,note_off,,96,0,1,,,,,,0,80,64
131712,note_on,,0,0,1,,,,,,0,71,92
131808,note_off,,96,0,1,,,,,,0,71,64
131808,note_on,,0,0,1,,,,,,0,80,92
131904,note_off,,96,0,1,,,,,,0,80,64
131904,note_on,,0,0,1,,,,,,0,74,92
132000,note_off,,96,0,1,,,,,,0,74,64
132000,note_on,,0,0,1,,,,,,0,80,92
132096,note_on,,12672,0,2,,,,,,0,57,92
132096,note_on,,0,0,1,,,,,,0,69,92
132096,note_off,,0,0,1,,,,,,0,64,64
132096,note_on,,0,0,1,,,,,,0,81,92
132096,note_off,,96,0,1,,,,,,0,80,64
132288,note_off,,192,0,1,,,,,,0,69,64
132288,note_on,,0,0,1,,,,,,0,64,92
132480,note_off,,192,0,1,,,,,,0,64,64
132480,note_off,,0,0,1,,,,,,0,81,64
132480,note_on,,0,0,1,,,,,,0,71,92
132480,note_on,,0,0,1,,,,,,0,80,92
132480,note_off,,384,0,2,,,,,,0,57,64
132672,note_off,,192,0,1,,,,,,0,71,64
132672,note_on,,0,0,1,,,,,,0,64,92
132864,note_off,,0,0,1,,,,,,0,80,64
132864,note_on,,0,0,1,,,,,,0,72,92
132864,note_on,,0,0,1,,,,,,0,81,92
132864,note_off,,192,0,1,,,,,,0,64,64
133056,note_off,,192,0,1,,,,,,0,72,64
133056,note_on,,0,0,1,,,,,,0,71,92
133152,note_off,,96,0,1,,,,,,0,71,64
133152,note_on,,0,0,1,,,,,,0,72,92
133248,note_off,,96,0,1,,,,,,0,72,64
133248,note_off,,0,0,1,,,,,,0,81,64
133248,note_on,,0,0,1,,,,,,0,69,92
133440,note_on,,0,0,1,,,,,,0,80,92
133440,note_on,,0,0,1,,,,,,0,76,92
133440,note_off,,192,0,1,,,,,,0,69,64
133536,note_off,,96,0,1,,,,,,0,76,64
133536,note_on,,0,0,1,,,,,,0,74,92
133632,note_off,,96,0,1,,,,,,0,74,64
133632,note_off,,0,0,1,,,,,,0,80,64
133632,note_on,,0,0,1,,,,,,0,72,92
133632,note_on,,0,0,1,,,,,,0,81,92
133728,note_off,,96,0,1,,,,,,0,72,64
133728,note_on,,0,0,1,,,,,,0,76,92
133824,note_off,,96,0,1,,,,,,0,76,64
133824,note_on,,0,0,1,,,,,,0,84,92
133824,note_off,,0,0,1,,,,,,0,81,64
133824,note_on,,0,0,1,,,,,,0,69,92
133920,note_off,,96,0,1,,,,,,0,69,64
133920,note_on,,0,0,1,,,,,,0,76,92
134016,note_off,,96,0,1,,,,,,0,76,64
134016,note_on,,0,0,1,,,,,,0,81,92
134016,note_on,,0,0,1,,,,,,0,72,92
134016,note_off,,0,0,1,,,,,,0,84,64
134112,note_on,,0,0,1,,,,,,0,76,92
134112,note_off,,96,0,1,,,,,,0,72,64
134208,note_off,,96,0,1,,,,,,0,76,64
134208,note_on,,0,0,1,,,,,,0,84,92
134208,note_on,,0,0,1,,,,,,0,69,92
134208,note_off,,0,0,1,,,,,,0,81,64
134304,note_on,,0,0,1,,,,,,0,76,92
134304,note_off,,96,0,1,,,,,,0,69,64
134400,note_on,,0,0,1,,,,,,0,77,92
134400,note_off,,0,0,1,,,,,,0,84,64
134400,note_on,,0,0,1,,,,,,0,81,92
134400,note_off,,96,0,1,,,,,,0,76,64
134496,note_off,,96,0,1,,,,,,0,81,64
134496,note_on,,0,0,1,,,,,,0,84,92
134592,note_off,,96,0,1,,,,,,0,84,64
134592,note_on,,0,0,1,,,,,,0,69,92
134592,note_on,,0,0,1,,,,,,0,83,92
134592,note_off,,0,0,1,,,,,,0,77,64
134688,note_on,,0,0,1,,,,,,0,81,92
134688,note_off,,96,0,1,,,,,,0,83,64
134784,note_on,,0,0,1,,,,,,0,79,92
134784,note_off,,0,0,1,,,,,,0,69,64
134784,note_off,,96,0,1,,,,,,0,81,64
134784,note_on,,0,0,1,,,,,,0,71,92
134976,note_on,,0,0,1,,,,,,0,78,92
134976,note_on,,0,0,1,,,,,,0,74,92
134976,note_off,,0,0,1,,,,,,0,79,64
134976,note_off,,192,0,1,,,,,,0,71,64
135072,note_on,,0,0,1,,,,,,0,72,92
135072,note_off,,96,0,1,,,,,,0,74,64
135168,note_on,,0,0,1,,,,,,0,71,92
135168,note_on,,0,0,1,,,,,,0,79,92
135168,note_off,,0,0,1,,,,,,0,78,64
135168,note_off,,96,0,1,,,,,,0,72,64
135264,note_off,,96,0,1,,,,,,0,71,64
135264,note_on,,0,0,1,,,,,,0,74,92
135360,note_off,,96,0,1,,,,,,0,74,64
135360,note_off,,0,0,1,,,,,,0,79,64
135360,note_on,,0,0,1,,,,,,0,83,92
135360,note_on,,0,0,1,,,,,,0,67,92
135456,note_off,,96,0,1,,,,,,0,67,64
135456,note_on,,0,0,1,,,,,,0,74,92
135552,note_on,,0,0,1,,,,,,0,71,92
135552,note_off,,96,0,1,,,,,,0,74,64
135552,note_off,,0,0,1,,,,,,0,83,64
135552,note_on,,0,0,1,,,,,,0,79,92
135648,note_off,,96,0,1,,,,,,0,71,64
135648,note_on,,0,0,1,,,,,,0,74,92
135744,note_off,,96,0,1,,,,,,0,74,64
135744,note_off,,0,0,1,,,,,,0,79,64
135744,note_on,,0,0,1,,,,,,0,83,92
135744,note_on,,0,0,1,,,,,,0,67,92
135840,note_on,,0,0,1,,,,,,0,74,92
135840,note_off,,96,0,1,,,,,,0,67,64
135936,note_off,,0,0,1,,,,,,0,83,64
135936,note_on,,0,0,1,,,,,,0,76,92
135936,note_off,,96,0,1,,,,,,0,74,64
135936,note_on,,0,0,1,,,,,,0,79,92
136032,note_off,,96,0,1,,,,,,0,79,64
136032,note_on,,0,0,1,,,,,,0,83,92
136128,note_off,,96,0,1,,,,,,0,83,64
136128,note_off,,0,0,1,,,,,,0,76,64
136128,note_on,,0,0,1,,,,,,0,67,92
136128,note_on,,0,0,1,,,,,,0,81,92
136224,note_off,,96,0,1,,,,,,0,81,64
136224,note_on,,0,0,1,,,,,,0,79,92
136320,note_off,,96,0,1,,,,,,0,79,64
136320,note_off,,0,0,1,,,,,,0,67,64
136320,note_on,,0,0,1,,,,,,0,78,92
136320,note_on,,0,0,1,,,,,,0,69,92
136512,note_on,,0,0,1,,,,,,0,81,92
136512,note_on,,0,0,1,,,,,,0,72,92
136512,note_off,,192,0,1,,,,,,0,69,64
136512,note_off,,0,0,1,,,,,,0,78,64
136608,note_off,,96,0,1,,,,,,0,72,64
136608,note_on,,0,0,1,,,,,,0,71,92
136704,note_off,,96,0,1,,,,,,0,71,64
136704,note_on,,0,0,1,,,,,,0,69,92
136896,note_off,,192,0,1,,,,,,0,69,64
136896,note_off,,0,0,1,,,,,,0,81,64
136896,note_on,,0,0,1,,,,,,0,79,92
136896,note_on,,0,0,1,,,,,,0,76,92
137088,note_on,,0,0,1,,,,,,0,78,92
137088,note_off,,192,0,1,,,,,,0,79,64
137280,note_off,,192,0,1,,,,,,0,78,64
137280,note_off,,0,0,1,,,,,,0,76,64
137280,note_on,,0,0,1,,,,,,0,83,92
137280,note_on,,0,0,1,,,,,,0,75,92
137376,note_off,,96,0,1,,,,,,0,83,64
137376,note_on,,0,0,1,,,,,,0,81,92
137472,note_on,,4992,0,2,,,,,,0,52,92
137472,note_off,,96,0,1,,,,,,0,81,64
137472,note_on,,0,0,1,,,,,,0,79,92
137472,note_on,,0,0,1,,,,,,0,76,92
137472,note_off,,0,0,1,,,,,,0,75,64
137664,note_off,,192,0,2,,,,,,0,52,64
137664,note_on,,0,0,2,,,,,,0,47,92
137856,note_off,,384,0,1,,,,,,0,79,64
137856,note_off,,0,0,1,,,,,,0,76,64
137856,note_on,,0,0,1,,,,,,0,69,92
137856,note_on,,0,0,1,,,,,,0,75,92
137856,note_on,,0,0,2,,,,,,0,54,92
137856,note_off,,192,0,2,,,,,,0,47,64
138048,note_on,,0,0,2,,,,,,0,47,92
138048,note_off,,192,0,2,,,,,,0,54,64
138240,note_off,,192,0,2,,,,,,0,47,64
138240,note_on,,0,0,2,,,,,,0,55,92
138240,note_on,,0,0,1,,,,,,0,71,92
138240,note_off,,384,0,1,,,,,,0,75,64
138240,note_off,,0,0,1,,,,,,0,69,64
138240,note_on,,0,0,1,,,,,,0,76,92
138432,note_off,,192,0,1,,,,,,0,71,64
138432,note_on,,0,0,1,,,,,,0,69,92
138432,note_off,,192,0,2,,,,,,0,55,64
138432,note_on,,0,0,2,,,,,,0,54,92
138528,note_off,,96,0,1,,,,,,0,69,64
138528,note_on,,0,0,1,,,,,,0,71,92
138528,note_off,,96,0,2,,,,,,0,54,64
138528,note_on,,0,0,2,,,,,,0,55,92
138624,note_off,,96,0,2,,,,,,0,55,64
138624,note_off,,96,0,1,,,,,,0,71,64
138624,note_on,,0,0,2,,,,,,0,48,92
138624,note_on,,0,0,1,,,,,,0,67,92
138816,note_on,,0,0,1,,,,,,0,66,92
138816,note_off,,192,0,1,,,,,,0,67,64
138816,note_on,,0,0,1,,,,,,0,75,92
138816,note_on,,0,0,2,,,,,,0,59,92
138816,note_off,,0,0,1,,,,,,0,76,64
138816,note_off,,192,0,2,,,,,,0,48,64
138912,note_on,,0,0,2,,,,,,0,57,92
138912,note_off,,96,0,2,,,,,,0,59,64
139008,note_off,,96,0,2,,,,,,0,57,64
139008,note_on,,0,0,2,,,,,,0,55,92
139008,note_on,,0,0,1,,,,,,0,76,92
139008,note_on,,0,0,1,,,,,,0,67,92
139008,note_off,,0,0,1,,,,,,0,66,64
139008,note_off,,192,0,1,,,,,,0,75,64
139104,note_on,,0,0,2,,,,,,0,57,92
139104,note_off,,96,0,2,,,,,,0,55,64
139200,note_off,,96,0,2,,,,,,0,57,64
139200,note_on,,0,0,2,,,,,,0,52,92
139296,note_off,,96,0,2,,,,,,0,52,64
139296,note_on,,0,0,2,,,,,,0,59,92
139392,note_off,,0,0,1,,,,,,0,67,64
139392,note_off,,96,0,2,,,,,,0,59,64
139392,note_on,,0,0,2,,,,,,0,55,92
139392,note_off,,384,0,1,,,,,,0,76,64
139488,note_off,,96,0,2,,,,,,0,55,64
139488,note_on,,0,0,2,,,,,,0,59,92
139584,note_on,,0,0,1,,,,,,0,76,92
139584,note_off,,96,0,2,,,,,,0,59,64
139584,note_on,,0,0,2,,,,,,0,52,92
139584,note_on,,192,0,1,,,,,,0,67,92
139680,note_on,,0,0,2,,,,,,0,59,92
139680,note_off,,96,0,2,,,,,,0,52,64
139776,note_off,,192,0,1,,,,,,0,76,64
139776,note_off,,96,0,2,,,,,,0,59,64
139776,note_on,,0,0,1,,,,,,0,69,92
139776,note_on,,0,0,1,,,,,,0,76,92
139776,note_off,,0,0,1,,,,,,0,67,64
139776,note_on,,0,0,2,,,,,,0,59,92
139968,note_off,,192,0,1,,,,,,0,69,64
139968,note_off,,192,0,2,,,,,,0,59,64
139968,note_on,,0,0,1,,,,,,0,67,92
139968,note_on,,0,0,2,,,,,,0,52,92
140160,note_off,,192,0,2,,,,,,0,52,64
140160,note_on,,0,0,2,,,,,,0,54,92
140160,note_off,,192,0,1,,,,,,0,67,64
140160,note_on,,0,0,1,,,,,,0,69,92
140160,note_on,,0,0,1,,,,,,0,74,92
140160,note_off,,0,0,1,,,,,,0,76,64
140352,note_off,,192,0,2,,,,,,0,54,64
140352,note_on,,0,0,2,,,,,,0,57,92
140352,note_on,,0,0,1,,,,,,0,73,92
140352,note_off,,0,0,1,,,,,,0,74,64
140352,note_off,,192,0,1,,,,,,0,69,64
140352,note_on,,0,0,1,,,,,,0,64,92
140448,note_off,,96,0,2,,,,,,0,57,64
140448,note_on,,0,0,2,,,,,,0,55,92
140544,note_on,,0,0,2,,,,,,0,54,92
140544,note_off,,192,0,1,,,,,,0,64,64
140544,note_off,,0,0,1,,,,,,0,73,64
140544,note_on,,0,0,1,,,,,,0,74,92
140544,note_on,,0,0,1,,,,,,0,69,92
140544,note_off,,96,0,2,,,,,,0,55,64
140640,note_on,,0,0,2,,,,,,0,57,92
140640,note_off,,96,0,2,,,,,,0,54,64
140736,note_on,,0,0,2,,,,,,0,50,92
140736,note_on,,0,0,1,,,,,,0,66,92
140736,note_off,,96,0,2,,,,,,0,57,64
140736,note_off,,192,0,1,,,,,,0,69,64
140832,note_on,,0,0,2,,,,,,0,57,92
140832,note_off,,96,0,2,,,,,,0,50,64
140928,note_off,,192,0,1,,,,,,0,66,64
140928,note_on,,0,0,1,,,,,,0,69,92
140928,note_on,,0,0,2,,,,,,0,54,92
140928,note_off,,96,0,2,,,,,,0,57,64
141024,note_on,,0,0,2,,,,,,0,57,92
141024,note_off,,96,0,2,,,,,,0,54,64
141120,note_off,,0,0,1,,,,,,0,74,64
141120,note_on,,0,0,1,,,,,,0,72,92
141120,note_on,,0,0,1,,,,,,0,66,92
141120,note_off,,96,0,2,,,,,,0,57,64
141120,note_on,,0,0,2,,,,,,0,50,92
141120,note_off,,192,0,1,,,,,,0,69,64
141216,note_on,,0,0,2,,,,,,0,57,92
141216,note_off,,96,0,2,,,,,,0,50,64
141312,note_off,,192,0,1,,,,,,0,66,64
141312,note_on,,0,0,1,,,,,,0,71,92
141312,note_on,,0,0,1,,,,,,0,67,92
141312,note_on,,0,0,2,,,,,,0,59,92
141312,note_off,,0,0,1,,,,,,0,72,64
141312,note_off,,96,0,2,,,,,,0,57,64
141504,note_on,,0,0,1,,,,,,0,66,92
141504,note_on,,0,0,2,,,,,,0,50,92
141504,note_off,,192,0,2,,,,,,0,59,64
141504,note_off,,192,0,1,,,,,,0,67,64
141696,note_off,,192,0,1,,,,,,0,66,64
141696,note_off,,0,0,1,,,,,,0,71,64
141696,note_on,,0,0,1,,,,,,0,67,92
141696,note_on,,0,0,1,,,,,,0,71,92
141696,note_on,,0,0,2,,,,,,0,52,92
141696,note_off,,192,0,2,,,,,,0,50,64
141888,note_on,,0,0,2,,,,,,0,55,92
141888,note_off,,192,0,2,,,,,,0,52,64
141984,note_off,,96,0,2,,,,,,0,55,64
141984,note_on,,0,0,2,,,,,,0,54,92
142080,note_off,,96,0,2,,,,,,0,54,64
142080,note_on,,0,0,2,,,,,,0,52,92
142176,note_off,,480,0,1,,,,,,0,67,64
142176,note_on,,0,0,1,,,,,,0,66,92
142272,note_off,,192,0,2,,,,,,0,52,64
142272,note_off,,96,0,1,,,,,,0,66,64
142272,note_off,,0,0,1,,,,,,0,71,64
142272,note_on,,0,0,1,,,,,,0,64,92
142272,note_on,,0,0,1,,,,,,0,72,92
142272,note_on,,0,0,2,,,,,,0,57,92
142464,note_on,,0,0,1,,,,,,0,62,92
142464,note_off,,192,0,1,,,,,,0,72,64
142464,note_off,,0,0,1,,,,,,0,64,64
142464,note_on,,0,0,1,,,,,,0,71,92
142656,note_off,,384,0,2,,,,,,0,57,64
142656,note_on,,0,0,2,,,,,,0,56,92
142656,note_on,,0,0,1,,,,,,0,64,92
142656,note_off,,192,0,1,,,,,,0,62,64
142752,note_on,,0,0,1,,,,,,0,62,92
142752,note_off,,96,0,1,,,,,,0,64,64
142848,note_off,,192,0,2,,,,,,0,56,64
142848,note_on,,0,0,1,,,,,,0,69,92
142848,note_on,,0,0,2,,,,,,0,57,92
142848,note_on,,0,0,1,,,,,,0,60,92
142848,note_off,,0,0,1,,,,,,0,71,64
142848,note_off,,96,0,1,,,,,,0,62,64
143040,note_on,,0,0,1,,,,,,0,72,92
143040,note_off,,192,0,1,,,,,,0,69,64
143136,note_off,,96,0,1,,,,,,0,72,64
143136,note_on,,0,0,1,,,,,,0,69,92
143232,note_off,,384,0,2,,,,,,0,57,64
143232,note_on,,0,0,1,,,,,,0,64,92
143232,note_off,,0,0,1,,,,,,0,60,64
143232,note_off,,96,0,1,,,,,,0,69,64
143328,note_on,,0,0,1,,,,,,0,72,92
143328,note_off,,96,0,1,,,,,,0,64,64
143424,note_on,,0,0,1,,,,,,0,69,92
143424,note_off,,96,0,1,,,,,,0,72,64
143520,note_on,,0,0,1,,,,,,0,72,92
143520,note_off,,96,0,1,,,,,,0,69,64
143616,note_on,,0,0,1,,,,,,0,60,92
143616,note_off,,96,0,1,,,,,,0,72,64
143712,note_on,,0,0,1,,,,,,0,69,92
143712,note_off,,96,0,1,,,,,,0,60,64
143808,note_off,,96,0,1,,,,,,0,69,64
143808,note_on,,0,0,1,,,,,,0,64,92
143904,note_off,,96,0,1,,,,,,0,64,64
143904,note_on,,0,0,1,,,,,,0,69,92
144000,note_off,,96,0,1,,,,,,0,69,64
144000,note_on,,0,0,1,,,,,,0,64,92
144096,note_on,,0,0,1,,,,,,0,72,92
144096,note_off,,96,0,1,,,,,,0,64,64
144192,note_off,,96,0,1,,,,,,0,72,64
144192,note_on,,0,0,1,,,,,,0,69,92
144288,note_off,,96,0,1,,,,,,0,69,64
144288,note_on,,0,0,1,,,,,,0,72,92
144384,note_off,,96,0,1,,,,,,0,72,64
144384,note_on,,1152,0,2,,,,,,0,57,92
144384,note_on,,0,0,2,,,,,,0,60,92
144384,note_on,,0,0,1,,,,,,0,69,92
144480,note_on,,0,0,1,,,,,,0,76,92
144480,note_off,,96,0,1,,,,,,0,69,64
144576,note_on,,0,0,1,,,,,,0,72,92
144576,note_off,,96,0,1,,,,,,0,76,64
144672,note_on,,0,0,1,,,,,,0,76,92
144672,note_off,,96,0,1,,,,,,0,72,64
144768,note_off,,384,0,2,,,,,,0,60,64
144768,note_on,,0,0,1,,,,,,0,72,92
144768,note_off,,96,0,1,,,,,,0,76,64
144768,note_off,,0,0,2,,,,,,0,57,64
144864,note_on,,0,0,1,,,,,,0,81,92
144864,note_off,,96,0,1,,,,,,0,72,64
144960,note_on,,0,0,1,,,,,,0,76,92
144960,note_off,,96,0,1,,,,,,0,81,64
145056,note_on,,0,0,1,,,,,,0,81,92
145056,note_off,,96,0,1,,,,,,0,76,64
145152,note_off,,96,0,1,,,,,,0,81,64
145152,note_on,,0,0,1,,,,,,0,73,92
145248,note_on,,0,0,1,,,,,,0,79,92
145248,note_off,,96,0,1,,,,,,0,73,64
145344,note_on,,0,0,1,,,,,,0,76,92
145344,note_off,,96,0,1,,,,,,0,79,64
145440,note_on,,0,0,1,,,,,,0,79,92
145440,note_off,,96,0,1,,,,,,0,76,64
145536,note_on,,0,0,1,,,,,,0,73,92
145536,note_off,,96,0,1,,,,,,0,79,64
145536,note_on,,768,0,2,,,,,,0,64,92
145536,note_on,,0,0,2,,,,,,0,57,92
145632,note_on,,0,0,1,,,,,,0,79,92
145632,note_off,,96,0,1,,,,,,0,73,64
145728,note_on,,0,0,2,,,,,,0,61,92
145728,note_on,,0,0,1,,,,,,0,76,92
145728,note_off,,96,0,1,,,,,,0,79,64
145728,note_off,,192,0,2,,,,,,0,64,64
145824,note_on,,0,0,1,,,,,,0,79,92
145824,note_off,,96,0,1,,,,,,0,76,64
145920,note_on,,0,0,1,,,,,,0,69,92
145920,note_off,,96,0,1,,,,,,0,79,64
145920,note_off,,0,0,2,,,,,,0,57,64
145920,note_on,,0,0,2,,,,,,0,62,92
145920,note_on,,0,0,2,,,,,,0,50,92
145920,note_off,,192,0,2,,,,,,0,61,64
146112,note_off,,192,0,1,,,,,,0,69,64
146112,note_on,,0,0,1,,,,,,0,77,92
146208,note_off,,96,0,1,,,,,,0,77,64
146208,note_on,,0,0,1,,,,,,0,74,92
146304,note_off,,96,0,1,,,,,,0,74,64
146304,note_on,,0,0,1,,,,,,0,69,92
146304,note_off,,384,0,2,,,,,,0,62,64
146304,note_off,,0,0,2,,,,,,0,50,64
146400,note_off,,96,0,1,,,,,,0,69,64
146400,note_on,,0,0,1,,,,,,0,77,92
146496,note_off,,96,0,1,,,,,,0,77,64
146496,note_on,,0,0,1,,,,,,0,74,92
146592,note_off,,96,0,1,,,,,,0,74,64
146592,note_on,,0,0,1,,,,,,0,77,92
146688,note_off,,96,0,1,,,,,,0,77,64
146688,note_on,,0,0,1,,,,,,0,65,92
146784,note_off,,96,0,1,,,,,,0,65,64
146784,note_on,,0,0,1,,,,,,0,74,92
146880,note_off,,96,0,1,,,,,,0,74,64
146880,note_on,,0,0,1,,,,,,0,69,92
146976,note_on,,0,0,1,,,,,,0,74,92
146976,note_off,,96,0,1,,,,,,0,69,64
147072,note_off,,96,0,1,,,,,,0,74,64
147072,note_on,,0,0,1,,,,,,0,62,92
147168,note_off,,96,0,1,,,,,,0,62,64
147168,note_on,,0,0,1,,,,,,0,69,92
147264,note_off,,96,0,1,,,,,,0,69,64
147264,note_on,,0,0,1,,,,,,0,65,92
147360,note_off,,96,0,1,,,,,,0,65,64
147360,note_on,,0,0,1,,,,,,0,69,92
147456,note_on,,0,0,1,,,,,,0,65,92
147456,note_off,,96,0,1,,,,,,0,69,64
147456,note_on,,1152,0,2,,,,,,0,50,92
147456,note_on,,0,0,2,,,,,,0,62,92
147552,note_off,,96,0,1,,,,,,0,65,64
147552,note_on,,0,0,1,,,,,,0,74,92
147648,note_off,,96,0,1,,,,,,0,74,64
147648,note_on,,0,0,1,,,,,,0,69,92
147744,note_off,,96,0,1,,,,,,0,69,64
147744,note_on,,0,0,1,,,,,,0,74,92
147840,note_off,,0,0,2,,,,,,0,50,64
147840,note_off,,384,0,2,,,,,,0,62,64
147840,note_on,,0,0,1,,,,,,0,69,92
147840,note_off,,96,0,1,,,,,,0,74,64
147936,note_on,,0,0,1,,,,,,0,77,92
147936,note_off,,96,0,1,,,,,,0,69,64
148032,note_off,,96,0,1,,,,,,0,77,64
148032,note_on,,0,0,1,,,,,,0,74,92
148128,note_off,,96,0,1,,,,,,0,74,64
148128,note_on,,0,0,1,,,,,,0,77,92
148224,note_on,,0,0,1,,,,,,0,69,92
148224,note_off,,96,0,1,,,,,,0,77,64
148320,note_on,,0,0,1,,,,,,0,78,92
148320,note_off,,96,0,1,,,,,,0,69,64
148416,note_off,,96,0,1,,,,,,0,78,64
148416,note_on,,0,0,1,,,,,,0,72,92
148512,note_off,,96,0,1,,,,,,0,72,64
148512,note_on,,0,0,1,,,,,,0,78,92
148608,note_on,,0,0,1,,,,,,0,69,92
148608,note_on,,0,0,2,,,,,,0,62,92
148608,note_off,,96,0,1,,,,,,0,78,64
148608,note_on,,768,0,2,,,,,,0,50,92
148704,note_off,,96,0,1,,,,,,0,69,64
148704,note_on,,0,0,1,,,,,,0,78,92
148800,note_on,,0,0,1,,,,,,0,72,92
148800,note_off,,96,0,1,,,,,,0,78,64
148896,note_on,,0,0,1,,,,,,0,78,92
148896,note_off,,96,0,1,,,,,,0,72,64
148992,note_on,,0,0,1,,,,,,0,71,92
148992,note_off,,0,0,2,,,,,,0,50,64
148992,note_off,,384,0,2,,,,,,0,62,64
148992,note_on,,0,0,2,,,,,,0,62,92
148992,note_on,,0,0,2,,,,,,0,55,92
148992,note_off,,96,0,1,,,,,,0,78,64
149184,note_off,,192,0,1,,,,,,0,71,64
149184,note_on,,0,0,1,,,,,,0,79,92
149280,note_off,,96,0,1,,,,,,0,79,64
149280,note_on,,0,0,1,,,,,,0,74,92
149376,note_off,,0,0,2,,,,,,0,55,64
149376,note_on,,0,0,1,,,,,,0,71,92
149376,note_off,,96,0,1,,,,,,0,74,64
149376,note_off,,384,0,2,,,,,,0,62,64
149472,note_on,,0,0,1,,,,,,0,79,92
149472,note_off,,96,0,1,,,,,,0,71,64
149568,note_on,,0,0,1,,,,,,0,74,92
149568,note_off,,96,0,1,,,,,,0,79,64
149664,note_on,,0,0,1,,,,,,0,79,92
149664,note_off,,96,0,1,,,,,,0,74,64
149760,note_off,,96,0,1,,,,,,0,79,64
149760,note_on,,0,0,1,,,,,,0,67,92
149856,note_off,,96,0,1,,,,,,0,67,64
149856,note_on,,0,0,1,,,,,,0,74,92
149952,note_off,,96,0,1,,,,,,0,74,64
149952,note_on,,0,0,1,,,,,,0,71,92
150048,note_on,,0,0,1,,,,,,0,74,92
150048,note_off,,96,0,1,,,,,,0,71,64
150144,note_on,,0,0,1,,,,,,0,62,92
150144,note_off,,96,0,1,,,,,,0,74,64
150240,note_on,,0,0,1,,,,,,0,71,92
150240,note_off,,96,0,1,,,,,,0,62,64
150336,note_off,,96,0,1,,,,,,0,71,64
150336,note_on,,0,0,1,,,,,,0,67,92
150432,note_on,,0,0,1,,,,,,0,71,92
150432,note_off,,96,0,1,,,,,,0,67,64
150528,note_off,,96,0,1,,,,,,0,71,64
150528,note_on,,0,0,1,,,,,,0,67,92
150528,note_on,,0,0,2,,,,,,0,59,92
150528,note_on,,1152,0,2,,,,,,0,55,92
150624,note_off,,96,0,1,,,,,,0,67,64
150624,note_on,,0,0,1,,,,,,0,74,92
150720,note_off,,96,0,1,,,,,,0,74,64
150720,note_on,,0,0,1,,,,,,0,71,92
150816,note_off,,96,0,1,,,,,,0,71,64
150816,note_on,,0,0,1,,,,,,0,74,92
150912,note_off,,0,0,2,,,,,,0,55,64
150912,note_off,,384,0,2,,,,,,0,59,64
150912,note_on,,0,0,1,,,,,,0,71,92
150912,note_off,,96,0,1,,,,,,0,74,64
151008,note_off,,96,0,1,,,,,,0,71,64
151008,note_on,,0,0,1,,,,,,0,79,92
151104,note_off,,96,0,1,,,,,,0,79,64
151104,note_on,,0,0,1,,,,,,0,74,92
151200,note_on,,0,0,1,,,,,,0,79,92
151200,note_off,,96,0,1,,,,,,0,74,64
151296,note_on,,0,0,1,,,,,,0,71,92
151296,note_off,,96,0,1,,,,,,0,79,64
151392,note_off,,96,0,1,,,,,,0,71,64
151392,note_on,,0,0,1,,,,,,0,77,92
151488,note_off,,96,0,1,,,,,,0,77,64
151488,note_on,,0,0,1,,,,,,0,74,92
151584,note_off,,96,0,1,,,,,,0,74,64
151584,note_on,,0,0,1,,,,,,0,77,92
151680,note_off,,96,0,1,,,,,,0,77,64
151680,note_on,,0,0,1,,,,,,0,71,92
151680,note_on,,768,0,2,,,,,,0,55,92
151680,note_on,,0,0,2,,,,,,0,59,92
151776,note_off,,96,0,1,,,,,,0,71,64
151776,note_on,,0,0,1,,,,,,0,77,92
151872,note_off,,96,0,1,,,,,,0,77,64
151872,note_on,,0,0,1,,,,,,0,74,92
151968,note_off,,96,0,1,,,,,,0,74,64
151968,note_on,,0,0,1,,,,,,0,77,92
152064,note_on,,0,0,2,,,,,,0,48,92
152064,note_off,,0,0,2,,,,,,0,55,64
152064,note_off,,96,0,1,,,,,,0,77,64
152064,note_on,,0,0,2,,,,,,0,60,92
152064,note_off,,384,0,2,,,,,,0,59,64
152064,note_on,,0,0,1,,,,,,0,67,92
152256,note_off,,192,0,1,,,,,,0,67,64
152256,note_on,,0,0,1,,,,,,0,76,92
152352,note_off,,96,0,1,,,,,,0,76,64
152352,note_on,,0,0,1,,,,,,0,72,92
152448,note_off,,96,0,1,,,,,,0,72,64
152448,note_on,,0,0,1,,,,,,0,69,92
152544,note_off,,96,0,1,,,,,,0,69,64
152544,note_on,,0,0,1,,,,,,0,76,92
152640,note_off,,96,0,1,,,,,,0,76,64
152640,note_on,,0,0,1,,,,,,0,72,92
152736,note_on,,0,0,1,,,,,,0,76,92
152736,note_off,,96,0,1,,,,,,0,72,64
152832,note_off,,0,0,2,,,,,,0,48,64
152832,note_off,,96,0,1,,,,,,0,76,64
152832,note_on,,0,0,1,,,,,,0,69,92
152832,note_on,,0,0,2,,,,,,0,57,92
152832,note_on,,0,0,2,,,,,,0,60,92
152832,note_off,,768,0,2,,,,,,0,60,64
152928,note_off,,96,0,1,,,,,,0,69,64
152928,note_on,,0,0,1,,,,,,0,76,92
153024,note_off,,96,0,1,,,,,,0,76,64
153024,note_on,,0,0,1,,,,,,0,72,92
153024,note_on,,0,0,2,,,,,,0,52,92
153024,note_off,,192,0,2,,,,,,0,57,64
153120,note_off,,96,0,1,,,,,,0,72,64
153120,note_on,,0,0,1,,,,,,0,76,92
153216,note_on,,0,0,2,,,,,,0,59,92
153216,note_on,,0,0,2,,,,,,0,62,92
153216,note_on,,0,0,1,,,,,,0,71,92
153216,note_off,,96,0,1,,,,,,0,76,64
153216,note_off,,192,0,2,,,,,,0,52,64
153216,note_off,,0,0,2,,,,,,0,60,64
153312,note_on,,0,0,1,,,,,,0,74,92
153312,note_off,,96,0,1,,,,,,0,71,64
153408,note_on,,0,0,1,,,,,,0,68,92
153408,note_off,,192,0,2,,,,,,0,59,64
153408,note_on,,0,0,2,,,,,,0,52,92
153408,note_off,,96,0,1,,,,,,0,74,64
153504,note_on,,0,0,1,,,,,,0,71,92
153504,note_off,,96,0,1,,,,,,0,68,64
153600,note_off,,96,0,1,,,,,,0,71,64
153600,note_on,,0,0,1,,,,,,0,69,92
153600,note_off,,192,0,2,,,,,,0,52,64
153600,note_on,,0,0,2,,,,,,0,60,92
153600,note_on,,0,0,1,,,,,,0,64,92
153600,note_off,,0,0,2,,,,,,0,62,64
153792,note_off,,192,0,2,,,,,,0,60,64
153792,note_on,,0,0,2,,,,,,0,59,92
153888,note_off,,96,0,2,,,,,,0,59,64
153888,note_on,,0,0,2,,,,,,0,60,92
153984,note_off,,384,0,1,,,,,,0,69,64
153984,note_off,,0,0,1,,,,,,0,64,64
153984,note_on,,0,0,1,,,,,,0,64,92
153984,note_on,,0,0,1,,,,,,0,72,92
153984,note_on,,0,0,2,,,,,,0,57,92
153984,note_off,,96,0,2,,,,,,0,60,64
154176,note_on,,0,0,2,,,,,,0,64,92
154176,note_on,,0,0,1,,,,,,0,68,92
154176,note_on,,0,0,1,,,,,,0,71,92
154176,note_off,,192,0,2,,,,,,0,57,64
154176,note_off,,0,0,1,,,,,,0,64,64
154176,note_off,,192,0,1,,,,,,0,72,64
154272,note_on,,0,0,2,,,,,,0,62,92
154272,note_off,,96,0,2,,,,,,0,64,64
154368,note_on,,0,0,2,,,,,,0,60,92
154368,note_off,,96,0,2,,,,,,0,62,64
154368,note_on,,0,0,1,,,,,,0,72,92
154368,note_on,,0,0,1,,,,,,0,69,92
154368,note_off,,0,0,1,,,,,,0,68,64
154368,note_off,,192,0,1,,,,,,0,71,64
154464,note_on,,0,0,2,,,,,,0,64,92
154464,note_off,,96,0,2,,,,,,0,60,64
154560,note_off,,96,0,2,,,,,,0,64,64
154560,note_on,,0,0,2,,,,,,0,57,92
154656,note_on,,0,0,2,,,,,,0,64,92
154656,note_off,,96,0,2,,,,,,0,57,64
154752,note_off,,384,0,1,,,,,,0,72,64
154752,note_off,,96,0,2,,,,,,0,64,64
154752,note_on,,0,0,2,,,,,,0,60,92
154752,note_off,,0,0,1,,,,,,0,69,64
154848,note_off,,96,0,2,,,,,,0,60,64
154848,note_on,,0,0,2,,,,,,0,64,92
154944,note_on,,0,0,2,,,,,,0,57,92
154944,note_off,,96,0,2,,,,,,0,64,64
154944,note_on,,192,0,1,,,,,,0,69,92
154944,note_on,,0,0,1,,,,,,0,72,92
155040,note_off,,96,0,2,,,,,,0,57,64
155040,note_on,,0,0,2,,,,,,0,64,92
155136,note_on,,0,0,1,,,,,,0,74,92
155136,note_off,,192,0,1,,,,,,0,72,64
155136,note_off,,96,0,2,,,,,,0,64,64
155136,note_on,,0,0,2,,,,,,0,65,92
155328,note_off,,192,0,1,,,,,,0,74,64
155328,note_off,,192,0,2,,,,,,0,65,64
155328,note_on,,0,0,2,,,,,,0,57,92
155328,note_on,,0,0,1,,,,,,0,72,92
155520,note_off,,192,0,1,,,,,,0,72,64
155520,note_off,,0,0,1,,,,,,0,69,64
155520,note_on,,0,0,1,,,,,,0,71,92
155520,note_off,,192,0,2,,,,,,0,57,64
155520,note_on,,0,0,2,,,,,,0,59,92
155520,note_on,,0,0,1,,,,,,0,67,92
155712,note_off,,192,0,2,,,,,,0,59,64
155712,note_off,,0,0,1,,,,,,0,67,64
155712,note_on,,0,0,1,,,,,,0,66,92
155712,note_on,,0,0,1,,,,,,0,69,92
155712,note_off,,192,0,1,,,,,,0,71,64
155712,note_on,,0,0,2,,,,,,0,62,92
155808,note_off,,96,0,2,,,,,,0,62,64
155808,note_on,,0,0,2,,,,,,0,60,92
155904,note_on,,0,0,2,,,,,,0,59,92
155904,note_on,,0,0,1,,,,,,0,71,92
155904,note_on,,0,0,1,,,,,,0,67,92
155904,note_off,,0,0,1,,,,,,0,66,64
155904,note_off,,96,0,2,,,,,,0,60,64
155904,note_off,,192,0,1,,,,,,0,69,64
156000,note_off,,96,0,2,,,,,,0,59,64
156000,note_on,,0,0,2,,,,,,0,62,92
156096,note_off,,96,0,2,,,,,,0,62,64
156096,note_on,,0,0,2,,,,,,0,55,92
156192,note_off,,96,0,2,,,,,,0,55,64
156192,note_on,,0,0,2,,,,,,0,62,92
156288,note_off,,0,0,1,,,,,,0,67,64
156288,note_off,,384,0,1,,,,,,0,71,64
156288,note_on,,0,0,2,,,,,,0,59,92
156288,note_off,,96,0,2,,,,,,0,62,64
156384,note_off,,96,0,2,,,,,,0,59,64
156384,note_on,,0,0,2,,,,,,0,62,92
156480,note_off,,96,0,2,,,,,,0,62,64
156480,note_on,,0,0,2,,,,,,0,55,92
156480,note_on,,192,0,1,,,,,,0,67,92
156480,note_on,,0,0,1,,,,,,0,71,92
156576,note_on,,0,0,2,,,,,,0,62,92
156576,note_off,,96,0,2,,,,,,0,55,64
156672,note_on,,0,0,2,,,,,,0,64,92
156672,note_off,,96,0,2,,,,,,0,62,64
156672,note_on,,0,0,1,,,,,,0,72,92
156672,note_off,,192,0,1,,,,,,0,71,64
156864,note_on,,0,0,1,,,,,,0,71,92
156864,note_on,,0,0,2,,,,,,0,55,92
156864,note_off,,192,0,1,,,,,,0,72,64
156864,note_off,,192,0,2,,,,,,0,64,64
156960,note_off,,96,0,1,,,,,,0,67,64
156960,note_on,,0,0,1,,,,,,0,66,92
157056,note_off,,96,0,1,,,,,,0,66,64
157056,note_off,,192,0,2,,,,,,0,55,64
157056,note_on,,0,0,1,,,,,,0,72,92
157056,note_on,,0,0,1,,,,,,0,64,92
157056,note_on,,0,0,2,,,,,,0,57,92
157056,note_off,,0,0,1,,,,,,0,71,64
157248,note_on,,0,0,1,,,,,,0,69,92
157248,note_off,,192,0,1,,,,,,0,64,64
157248,note_on,,0,0,2,,,,,,0,60,92
157248,note_off,,192,0,2,,,,,,0,57,64
157344,note_off,,96,0,2,,,,,,0,60,64
157344,note_on,,0,0,2,,,,,,0,59,92
157440,note_off,,96,0,2,,,,,,0,59,64
157440,note_on,,0,0,2,,,,,,0,57,92
157632,note_on,,0,0,1,,,,,,0,71,92
157632,note_off,,384,0,1,,,,,,0,69,64
157632,note_on,,0,0,1,,,,,,0,67,92
157632,note_off,,0,0,1,,,,,,0,72,64
157632,note_on,,0,0,2,,,,,,0,64,92
157632,note_off,,192,0,2,,,,,,0,57,64
157824,note_off,,192,0,1,,,,,,0,71,64
157824,note_off,,0,0,1,,,,,,0,67,64
157824,note_on,,0,0,1,,,,,,0,69,92
157824,note_on,,0,0,1,,,,,,0,66,92
158016,note_off,,384,0,2,,,,,,0,64,64
158016,note_on,,0,0,2,,,,,,0,63,92
158208,note_off,,384,0,1,,,,,,0,66,64
158208,note_off,,0,0,1,,,,,,0,69,64
158208,note_on,,0,0,2,,,,,,0,64,92
158208,note_off,,192,0,2,,,,,,0,63,64
158208,note_on,,0,0,1,,,,,,0,67,92
158400,note_off,,192,0,2,,,,,,0,64,64
158400,note_on,,0,0,2,,,,,,0,62,92
158592,note_on,,0,0,2,,,,,,0,60,92
158592,note_off,,192,0,2,,,,,,0,62,64
158784,note_on,,0,0,2,,,,,,0,59,92
158784,note_off,,192,0,2,,,,,,0,60,64
158976,note_on,,0,0,2,,,,,,0,57,92
158976,note_off,,192,0,2,,,,,,0,59,64
159168,note_on,,960,0,1,,,,,,0,72,92
159360,note_off,,384,0,2,,,,,,0,57,64
159360,note_on,,0,0,2,,,,,,0,62,92
159552,note_off,,384,0,1,,,,,,0,67,64
159552,note_on,,0,0,1,,,,,,0,66,92
159744,note_on,,0,0,2,,,,,,0,55,92
159744,note_off,,384,0,2,,,,,,0,62,64
159936,note_on,,0,0,1,,,,,,0,71,92
159936,note_off,,384,0,1,,,,,,0,72,64
160128,note_on,,0,0,2,,,,,,0,60,92
160128,note_off,,384,0,2,,,,,,0,55,64
160320,note_on,,0,0,1,,,,,,0,64,92
160320,note_off,,384,0,1,,,,,,0,66,64
160512,note_on,,0,0,2,,,,,,0,54,92
160512,note_off,,384,0,2,,,,,,0,60,64
160704,note_on,,0,0,1,,,,,,0,69,92
160704,note_off,,384,0,1,,,,,,0,71,64
160896,note_off,,384,0,2,,,,,,0,54,64
160896,note_on,,0,0,2,,,,,,0,59,92
161088,note_off,,384,0,1,,,,,,0,64,64
161088,note_on,,0,0,1,,,,,,0,62,92
161280,note_off,,384,0,2,,,,,,0,59,64
161280,note_on,,0,0,2,,,,,,0,52,92
161472,note_off,,384,0,1,,,,,,0,69,64
161472,note_on,,0,0,1,,,,,,0,67,92
161664,note_on,,0,0,2,,,,,,0,57,92
161664,note_off,,384,0,2,,,,,,0,52,64
161856,note_off,,384,0,1,,,,,,0,62,64
161856,note_on,,0,0,1,,,,,,0,61,92
162048,note_on,,0,0,2,,,,,,0,50,92
162048,note_off,,384,0,2,,,,,,0,57,64
162240,note_off,,384,0,1,,,,,,0,67,64
162240,note_on,,0,0,1,,,,,,0,66,92
162432,note_off,,384,0,2,,,,,,0,50,64
162432,note_on,,0,0,2,,,,,,0,55,92
162624,note_on,,192,0,2,,,,,,0,59,92
162624,note_off,,384,0,1,,,,,,0,61,64
162816,note_on,,0,0,2,,,,,,0,49,92
162816,note_off,,192,0,2,,,,,,0,55,64
163008,note_off,,384,0,1,,,,,,0,66,64
163008,note_on,,0,0,1,,,,,,0,64,92
163200,note_on,,0,0,2,,,,,,0,54,92
163200,note_off,,384,0,2,,,,,,0,49,64
163392,note_on,,0,0,2,,,,,,0,58,92
163392,note_off,,192,0,2,,,,,,0,59,64
163584,note_off,,0,0,2,,,,,,0,54,64
163584,note_on,,0,0,1,,,,,,0,62,92
163584,note_off,,576,0,1,,,,,,0,64,64
163584,note_on,,0,0,2,,,,,,0,59,92
163584,note_on,,0,0,2,,,,,,0,47,92
163584,note_off,,192,0,2,,,,,,0,58,64
163968,note_off,,384,0,2,,,,,,0,47,64
163968,note_off,,0,0,2,,,,,,0,59,64
163968,note_on,,0,0,2,,,,,,0,59,92
164160,note_on,,576,0,1,,,,,,0,67,92
164352,note_off,,384,0,2,,,,,,0,59,64
164352,note_on,,0,0,2,,,,,,0,58,92
164544,note_on,,0,0,1,,,,,,0,61,92
164544,note_off,,384,0,1,,,,,,0,62,64
164736,note_on,,0,0,2,,,,,,0,57,92
164736,note_off,,384,0,2,,,,,,0,58,64
164928,note_on,,0,0,1,,,,,,0,66,92
164928,note_off,,384,0,1,,,,,,0,67,64
165120,note_on,,0,0,2,,,,,,0,56,92
165120,note_off,,384,0,2,,,,,,0,57,64
165312,note_on,,0,0,1,,,,,,0,59,92
165312,note_off,,384,0,1,,,,,,0,61,64
165504,note_on,,0,0,2,,,,,,0,55,92
165504,note_off,,384,0,2,,,,,,0,56,64
165696,note_on,,0,0,1,,,,,,0,64,92
165696,note_off,,384,0,1,,,,,,0,66,64
165888,note_on,,0,0,2,,,,,,0,54,92
165888,note_off,,384,0,2,,,,,,0,55,64
165888,note_off,,192,0,1,,,,,,0,59,64
166080,note_on,,192,0,1,,,,,,0,69,92
166272,note_on,,0,0,2,,,,,,0,59,92
166272,note_off,,384,0,2,,,,,,0,54,64
166464,note_off,,384,0,1,,,,,,0,64,64
166464,note_on,,0,0,1,,,,,,0,63,92
166656,note_on,,0,0,2,,,,,,0,52,92
166656,note_off,,384,0,2,,,,,,0,59,64
166656,note_off,,192,0,1,,,,,,0,63,64
166656,note_off,,0,0,1,,,,,,0,69,64
166656,note_on,,0,0,1,,,,,,0,64,92
166656,note_on,,0,0,1,,,,,,0,67,92
167040,note_off,,384,0,1,,,,,,0,67,64
167040,note_off,,0,0,1,,,,,,0,64,64
167040,note_on,,0,0,1,,,,,,0,64,92
167040,note_off,,384,0,2,,,,,,0,52,64
167136,note_on,,96,0,1,,,,,,0,67,92
167232,note_off,,96,0,1,,,,,,0,67,64
167232,note_on,,0,0,1,,,,,,0,72,92
167328,note_off,,96,0,1,,,,,,0,72,64
167328,note_on,,0,0,1,,,,,,0,67,92
167424,note_off,,96,0,1,,,,,,0,67,64
167424,note_off,,0,0,1,,,,,,0,64,64
167424,note_on,,0,0,1,,,,,,0,63,92
167520,note_on,,96,0,1,,,,,,0,66,92
167616,note_on,,0,0,1,,,,,,0,72,92
167616,note_off,,96,0,1,,,,,,0,66,64
167712,note_off,,96,0,1,,,,,,0,72,64
167712,note_on,,0,0,1,,,,,,0,66,92
167808,note_off,,0,0,1,,,,,,0,63,64
167808,note_on,,0,0,1,,,,,,0,62,92
167808,note_off,,96,0,1,,,,,,0,66,64
167904,note_on,,96,0,1,,,,,,0,66,92
168000,note_off,,96,0,1,,,,,,0,66,64
168000,note_on,,0,0,1,,,,,,0,71,92
168096,note_off,,96,0,1,,,,,,0,71,64
168096,note_on,,0,0,1,,,,,,0,66,92
168192,note_off,,96,0,1,,,,,,0,66,64
168192,note_off,,0,0,1,,,,,,0,62,64
168192,note_on,,0,0,1,,,,,,0,61,92
168288,note_on,,96,0,1,,,,,,0,64,92
168384,note_off,,96,0,1,,,,,,0,64,64
168384,note_on,,0,0,1,,,,,,0,71,92
168480,note_on,,0,0,1,,,,,,0,64,92
168480,note_off,,96,0,1,,,,,,0,71,64
168576,note_on,,0,0,1,,,,,,0,60,92
168576,note_off,,96,0,1,,,,,,0,64,64
168576,note_off,,0,0,1,,,,,,0,61,64
168672,note_on,,96,0,1,,,,,,0,64,92
168768,note_off,,96,0,1,,,,,,0,64,64
168768,note_on,,0,0,1,,,,,,0,69,92
168864,note_on,,0,0,1,,,,,,0,64,92
168864,note_off,,96,0,1,,,,,,0,69,64
168960,note_off,,96,0,1,,,,,,0,64,64
168960,note_off,,0,0,1,,,,,,0,60,64
168960,note_on,,0,0,1,,,,,,0,63,92
168960,note_on,,1920,0,2,,,,,,0,59,92
169056,note_off,,96,0,1,,,,,,0,63,64
169056,note_on,,0,0,1,,,,,,0,71,92
169152,note_off,,96,0,1,,,,,,0,71,64
169152,note_on,,0,0,1,,,,,,0,66,92
169248,note_off,,96,0,1,,,,,,0,66,64
169248,note_on,,0,0,1,,,,,,0,71,92
169344,note_off,,96,0,1,,,,,,0,71,64
169344,note_on,,0,0,1,,,,,,0,64,92
169440,note_off,,96,0,1,,,,,,0,64,64
169440,note_on,,0,0,1,,,,,,0,71,92
169536,note_on,,0,0,1,,,,,,0,67,92
169536,note_off,,96,0,1,,,,,,0,71,64
169632,note_on,,0,0,1,,,,,,0,71,92
169632,note_off,,96,0,1,,,,,,0,67,64
169728,note_off,,96,0,1,,,,,,0,71,64
169728,note_on,,0,0,1,,,,,,0,64,92
169824,note_on,,0,0,1,,,,,,0,69,92
169824,note_off,,96,0,1,,,,,,0,64,64
169920,note_on,,0,0,1,,,,,,0,66,92
169920,note_off,,96,0,1,,,,,,0,69,64
170016,note_off,,96,0,1,,,,,,0,66,64
170016,note_on,,0,0,1,,,,,,0,69,92
170112,note_on,,0,0,1,,,,,,0,63,92
170112,note_off,,96,0,1,,,,,,0,69,64
170208,note_on,,0,0,1,,,,,,0,69,92
170208,note_off,,96,0,1,,,,,,0,63,64
170304,note_on,,0,0,1,,,,,,0,66,92
170304,note_off,,96,0,1,,,,,,0,69,64
170400,note_off,,96,0,1,,,,,,0,66,64
170400,note_on,,0,0,1,,,,,,0,69,92
170496,note_off,,96,0,1,,,,,,0,69,64
170496,note_on,,0,0,1,,,,,,0,67,92
170496,note_on,,0,0,1,,,,,,0,76,92
170496,note_off,,1536,0,2,,,,,,0,59,64
170496,note_on,,0,0,2,,,,,,0,52,92
170688,note_on,,0,0,1,,,,,,0,71,92
170688,note_off,,192,0,1,,,,,,0,76,64
170880,note_on,,0,0,2,,,,,,0,59,92
170880,note_off,,384,0,2,,,,,,0,52,64
170880,note_off,,192,0,1,,,,,,0,71,64
170880,note_off,,0,0,1,,,,,,0,67,64
170880,note_on,,0,0,1,,,,,,0,63,92
170880,note_on,,0,0,1,,,,,,0,78,92
171072,note_off,,192,0,1,,,,,,0,78,64
171072,note_on,,0,0,1,,,,,,0,71,92
171264,note_on,,0,0,1,,,,,,0,79,92
171264,note_off,,192,0,1,,,,,,0,71,64
171264,note_off,,0,0,1,,,,,,0,63,64
171264,note_on,,0,0,1,,,,,,0,64,92
171264,note_off,,384,0,2,,,,,,0,59,64
171264,note_on,,0,0,2,,,,,,0,52,92
171456,note_on,,0,0,1,,,,,,0,78,92
171456,note_off,,192,0,1,,,,,,0,79,64
171552,note_off,,96,0,1,,,,,,0,78,64
171552,note_on,,0,0,1,,,,,,0,79,92
171648,note_off,,384,0,2,,,,,,0,52,64
171648,note_on,,0,0,1,,,,,,0,76,92
171648,note_off,,96,0,1,,,,,,0,79,64
171648,note_off,,0,0,1,,,,,,0,64,64
171840,note_on,,192,0,2,,,,,,0,59,92
171840,note_on,,0,0,1,,,,,,0,63,92
171840,note_on,,0,0,1,,,,,,0,83,92
171840,note_off,,192,0,1,,,,,,0,76,64
171936,note_on,,0,0,1,,,,,,0,81,92
171936,note_off,,96,0,1,,,,,,0,83,64
172032,note_off,,96,0,1,,,,,,0,81,64
172032,note_on,,0,0,2,,,,,,0,52,92
172032,note_off,,192,0,2,,,,,,0,59,64
172032,note_on,,0,0,1,,,,,,0,79,92
172032,note_on,,0,0,1,,,,,,0,64,92
172032,note_off,,0,0,1,,,,,,0,63,64
172128,note_off,,96,0,1,,,,,,0,79,64
172128,note_on,,0,0,1,,,,,,0,83,92
172224,note_on,,0,0,1,,,,,,0,76,92
172224,note_off,,96,0,1,,,,,,0,83,64
172320,note_on,,0,0,1,,,,,,0,83,92
172320,note_off,,96,0,1,,,,,,0,76,64
172416,note_off,,384,0,2,,,,,,0,52,64
172416,note_off,,96,0,1,,,,,,0,83,64
172416,note_off,,0,0,1,,,,,,0,64,64
172416,note_on,,0,0,1,,,,,,0,79,92
172512,note_on,,0,0,1,,,,,,0,83,92
172512,note_off,,96,0,1,,,,,,0,79,64
172608,note_on,,0,0,1,,,,,,0,76,92
172608,note_off,,96,0,1,,,,,,0,83,64
172608,note_on,,192,0,2,,,,,,0,55,92
172608,note_on,,0,0,1,,,,,,0,64,92
172704,note_on,,0,0,1,,,,,,0,83,92
172704,note_off,,96,0,1,,,,,,0,76,64
172800,note_on,,0,0,2,,,,,,0,57,92
172800,note_off,,192,0,2,,,,,,0,55,64
172800,note_on,,0,0,1,,,,,,0,84,92
172800,note_on,,0,0,1,,,,,,0,60,92
172800,note_off,,0,0,1,,,,,,0,64,64
172800,note_off,,96,0,1,,,,,,0,83,64
172992,note_off,,192,0,1,,,,,,0,84,64
172992,note_on,,0,0,1,,,,,,0,76,92
173184,note_on,,0,0,1,,,,,,0,62,92
173184,note_off,,0,0,1,,,,,,0,60,64
173184,note_off,,384,0,2,,,,,,0,57,64
173184,note_on,,0,0,2,,,,,,0,50,92
173184,note_off,,192,0,1,,,,,,0,76,64
173184,note_on,,0,0,1,,,,,,0,78,92
173376,note_on,,0,0,1,,,,,,0,81,92
173376,note_off,,192,0,1,,,,,,0,78,64
173472,note_on,,0,0,1,,,,,,0,79,92
173472,note_off,,96,0,1,,,,,,0,81,64
173568,note_on,,0,0,1,,,,,,0,78,92
173568,note_on,,0,0,1,,,,,,0,62,92
173568,note_off,,0,0,1,,,,,,0,62,64
173568,note_off,,96,0,1,,,,,,0,79,64
173568,note_off,,384,0,2,,,,,,0,50,64
173568,note_on,,0,0,2,,,,,,0,50,92
173664,note_on,,0,0,1,,,,,,0,81,92
173664,note_off,,96,0,1,,,,,,0,78,64
173760,note_on,,0,0,1,,,,,,0,74,92
173760,note_off,,96,0,1,,,,,,0,81,64
173856,note_off,,96,0,1,,,,,,0,74,64
173856,note_on,,0,0,1,,,,,,0,81,92
173952,note_off,,0,0,1,,,,,,0,62,64
173952,note_on,,0,0,1,,,,,,0,78,92
173952,note_off,,384,0,2,,,,,,0,50,64
173952,note_off,,96,0,1,,,,,,0,81,64
174048,note_on,,0,0,1,,,,,,0,81,92
174048,note_off,,96,0,1,,,,,,0,78,64
174144,note_off,,96,0,1,,,,,,0,81,64
174144,note_on,,192,0,2,,,,,,0,54,92
174144,note_on,,0,0,1,,,,,,0,62,92
174144,note_on,,0,0,1,,,,,,0,74,92
174240,note_off,,96,0,1,,,,,,0,74,64
174240,note_on,,0,0,1,,,,,,0,81,92
174336,note_off,,96,0,1,,,,,,0,81,64
174336,note_off,,0,0,1,,,,,,0,62,64
174336,note_on,,0,0,1,,,,,,0,83,92
174336,note_off,,192,0,2,,,,,,0,54,64
174336,note_on,,0,0,2,,,,,,0,55,92
174336,note_on,,0,0,2,,,,,,0,59,92
174528,note_off,,192,0,1,,,,,,0,83,64
174528,note_on,,0,0,1,,,,,,0,74,92
174720,note_off,,192,0,1,,,,,,0,74,64
174720,note_on,,0,0,1,,,,,,0,76,92
174720,note_on,,0,0,2,,,,,,0,60,92
174720,note_on,,0,0,2,,,,,,0,48,92
174720,note_off,,384,0,2,,,,,,0,59,64
174720,note_off,,0,0,2,,,,,,0,55,64
174912,note_off,,192,0,1,,,,,,0,76,64
174912,note_on,,0,0,1,,,,,,0,79,92
175008,note_off,,96,0,1,,,,,,0,79,64
175008,note_on,,0,0,1,,,,,,0,78,92
175104,note_on,,0,0,2,,,,,,0,60,92
175104,note_off,,384,0,2,,,,,,0,60,64
175104,note_off,,0,0,2,,,,,,0,48,64
175104,note_on,,0,0,2,,,,,,0,55,92
175104,note_off,,96,0,1,,,,,,0,78,64
175104,note_on,,0,0,1,,,,,,0,76,92
175296,note_on,,0,0,1,,,,,,0,81,92
175296,note_off,,192,0,1,,,,,,0,76,64
175488,note_off,,384,0,2,,,,,,0,60,64
175488,note_on,,0,0,2,,,,,,0,62,92
175488,note_on,,0,0,2,,,,,,0,59,92
175488,note_off,,0,0,2,,,,,,0,55,64
175680,note_off,,384,0,1,,,,,,0,81,64
175680,note_on,,0,0,1,,,,,,0,80,92
175872,note_off,,192,0,1,,,,,,0,80,64
175872,note_on,,0,0,1,,,,,,0,81,92
175872,note_on,,0,0,2,,,,,,0,60,92
175872,note_on,,0,0,2,,,,,,0,57,92
175872,note_off,,0,0,2,,,,,,0,59,64
175872,note_off,,384,0,2,,,,,,0,62,64
176064,note_off,,192,0,1,,,,,,0,81,64
176064,note_on,,0,0,1,,,,,,0,79,92
176160,note_off,,96,0,1,,,,,,0,79,64
176160,note_on,,0,0,1,,,,,,0,77,92
176256,note_on,,0,0,1,,,,,,0,76,92
176256,note_off,,96,0,1,,,,,,0,77,64
176256,note_off,,384,0,2,,,,,,0,60,64
176256,note_off,,0,0,2,,,,,,0,57,64
176352,note_on,,0,0,1,,,,,,0,74,92
176352,note_off,,96,0,1,,,,,,0,76,64
176448,note_on,,0,0,1,,,,,,0,72,92
176448,note_off,,96,0,1,,,,,,0,74,64
176544,note_on,,0,0,1,,,,,,0,71,92
176544,note_off,,96,0,1,,,,,,0,72,64
176640,note_off,,96,0,1,,,,,,0,71,64
176640,note_on,,0,0,1,,,,,,0,69,92
176736,note_on,,0,0,1,,,,,,0,76,92
176736,note_off,,96,0,1,,,,,,0,69,64
176832,note_off,,96,0,1,,,,,,0,76,64
176832,note_on,,0,0,1,,,,,,0,74,92
176928,note_off,,96,0,1,,,,,,0,74,64
176928,note_on,,0,0,1,,,,,,0,72,92
177024,note_off,,96,0,1,,,,,,0,72,64
177024,note_on,,0,0,1,,,,,,0,71,92
177120,note_on,,0,0,1,,,,,,0,69,92
177120,note_off,,96,0,1,,,,,,0,71,64
177216,note_off,,96,0,1,,,,,,0,69,64
177216,note_on,,0,0,1,,,,,,0,68,92
177312,note_on,,0,0,1,,,,,,0,66,92
177312,note_off,,96,0,1,,,,,,0,68,64
177408,note_on,,0,0,1,,,,,,0,64,92
177408,note_off,,96,0,1,,,,,,0,66,64
177504,note_on,,0,0,1,,,,,,0,69,92
177504,note_off,,96,0,1,,,,,,0,64,64
177600,note_on,,0,0,1,,,,,,0,67,92
177600,note_off,,96,0,1,,,,,,0,69,64
177696,note_off,,96,0,1,,,,,,0,67,64
177696,note_on,,0,0,1,,,,,,0,65,92
177792,note_off,,96,0,1,,,,,,0,65,64
177792,note_on,,0,0,1,,,,,,0,64,92
177888,note_off,,96,0,1,,,,,,0,64,64
177888,note_on,,0,0,1,,,,,,0,62,92
177984,note_off,,96,0,1,,,,,,0,62,64
177984,note_on,,0,0,1,,,,,,0,60,92
178080,note_on,,0,0,1,,,,,,0,59,92
178080,note_off,,96,0,1,,,,,,0,60,64
178176,note_on,,1920,0,2,,,,,,0,45,92
178176,note_on,,0,0,1,,,,,,0,69,92
178176,note_on,,0,0,1,,,,,,0,64,92
178176,note_on,,0,0,1,,,,,,0,60,92
178176,note_off,,96,0,1,,,,,,0,59,64
178368,note_off,,192,0,2,,,,,,0,45,64
178368,note_on,,0,0,2,,,,,,0,40,92
178560,note_on,,0,0,2,,,,,,0,47,92
178560,note_on,,0,0,1,,,,,,0,62,92
178560,note_off,,0,0,1,,,,,,0,60,64
178560,note_off,,384,0,1,,,,,,0,69,64
178560,note_off,,0,0,1,,,,,,0,64,64
178560,note_on,,0,0,1,,,,,,0,68,92
178560,note_off,,192,0,2,,,,,,0,40,64
178752,note_on,,0,0,2,,,,,,0,40,92
178752,note_off,,192,0,2,,,,,,0,47,64
178944,note_off,,384,0,1,,,,,,0,68,64
178944,note_on,,0,0,2,,,,,,0,48,92
178944,note_off,,192,0,2,,,,,,0,40,64
178944,note_off,,0,0,1,,,,,,0,62,64
178944,note_on,,0,0,1,,,,,,0,60,92
178944,note_on,,0,0,1,,,,,,0,69,92
178944,note_on,,0,0,1,,,,,,0,64,92
179136,note_off,,192,0,2,,,,,,0,48,64
179136,note_on,,0,0,2,,,,,,0,47,92
179232,note_off,,96,0,2,,,,,,0,47,64
179232,note_on,,0,0,2,,,,,,0,48,92
179328,note_off,,0,0,1,,,,,,0,64,64
179328,note_off,,384,0,1,,,,,,0,69,64
179328,note_on,,0,0,1,,,,,,0,69,92
179328,note_on,,0,0,1,,,,,,0,72,92
179328,note_on,,0,0,1,,,,,,0,64,92
179328,note_on,,0,0,2,,,,,,0,45,92
179328,note_off,,96,0,2,,,,,,0,48,64
179328,note_off,,0,0,1,,,,,,0,60,64
179520,note_off,,192,0,2,,,,,,0,45,64
179520,note_on,,0,0,2,,,,,,0,52,92
179520,note_on,,0,0,1,,,,,,0,67,92
179520,note_off,,192,0,1,,,,,,0,72,64
179520,note_off,,0,0,1,,,,,,0,69,64
179520,note_on,,0,0,1,,,,,,0,71,92
179616,note_off,,96,0,2,,,,,,0,52,64
179616,note_on,,0,0,2,,,,,,0,50,92
179712,note_off,,96,0,2,,,,,,0,50,64
179712,note_on,,0,0,2,,,,,,0,48,92
179712,note_on,,0,0,1,,,,,,0,69,92
179712,note_off,,192,0,1,,,,,,0,71,64
179712,note_off,,0,0,1,,,,,,0,67,64
179712,note_off,,0,0,1,,,,,,0,64,64
179712,note_on,,0,0,1,,,,,,0,64,92
179712,note_on,,0,0,1,,,,,,0,72,92
179808,note_off,,96,0,2,,,,,,0,48,64
179808,note_on,,0,0,2,,,,,,0,52,92
179904,note_on,,0,0,2,,,,,,0,45,92
179904,note_off,,96,0,2,,,,,,0,52,64
180000,note_off,,96,0,2,,,,,,0,45,64
180000,note_on,,0,0,2,,,,,,0,52,92
180096,note_on,,0,0,2,,,,,,0,48,92
180096,note_off,,96,0,2,,,,,,0,52,64
180096,note_off,,0,0,1,,,,,,0,69,64
180096,note_off,,0,0,1,,,,,,0,64,64
180096,note_off,,384,0,1,,,,,,0,72,64
180192,note_off,,96,0,2,,,,,,0,48,64
180192,note_on,,0,0,2,,,,,,0,52,92
180288,note_on,,0,0,1,,,,,,0,69,92
180288,note_on,,0,0,1,,,,,,0,72,92
180288,note_on,,192,0,1,,,,,,0,64,92
180288,note_on,,0,0,2,,,,,,0,45,92
180288,note_off,,96,0,2,,,,,,0,52,64
180384,note_off,,96,0,2,,,,,,0,45,64
180384,note_on,,0,0,2,,,,,,0,52,92
180480,note_on,,0,0,1,,,,,,0,69,92
180480,note_on,,0,0,1,,,,,,0,65,92
180480,note_on,,0,0,1,,,,,,0,62,92
180480,note_off,,0,0,1,,,,,,0,64,64
180480,note_off,,0,0,1,,,,,,0,69,64
180480,note_off,,192,0,1,,,,,,0,72,64
180480,note_on,,0,0,2,,,,,,0,53,92
180480,note_off,,96,0,2,,,,,,0,52,64
180672,note_on,,0,0,2,,,,,,0,45,92
180672,note_off,,192,0,2,,,,,,0,53,64
180672,note_off,,192,0,1,,,,,,0,62,64
180672,note_on,,0,0,1,,,,,,0,60,92
180864,note_off,,192,0,1,,,,,,0,60,64
180864,note_off,,0,0,1,,,,,,0,69,64
180864,note_on,,0,0,1,,,,,,0,62,92
180864,note_on,,0,0,1,,,,,,0,59,92
180864,note_on,,0,0,1,,,,,,0,67,92
180864,note_on,,0,0,2,,,,,,0,47,92
180864,note_off,,192,0,2,,,,,,0,45,64
180864,note_off,,0,0,1,,,,,,0,65,64
181056,note_off,,0,0,1,,,,,,0,59,64
181056,note_on,,0,0,1,,,,,,0,57,92
181056,note_on,,0,0,1,,,,,,0,66,92
181056,note_on,,0,0,2,,,,,,0,50,92
181056,note_off,,192,0,2,,,,,,0,47,64
181056,note_off,,192,0,1,,,,,,0,67,64
181152,note_off,,96,0,2,,,,,,0,50,64
181152,note_on,,0,0,2,,,,,,0,48,92
181248,note_off,,0,0,1,,,,,,0,62,64
181248,note_off,,0,0,1,,,,,,0,57,64
181248,note_off,,96,0,2,,,,,,0,48,64
181248,note_on,,0,0,2,,,,,,0,47,92
181248,note_on,,0,0,1,,,,,,0,67,92
181248,note_on,,0,0,1,,,,,,0,62,92
181248,note_on,,0,0,1,,,,,,0,59,92
181248,note_off,,192,0,1,,,,,,0,66,64
181344,note_off,,96,0,2,,,,,,0,47,64
181344,note_on,,0,0,2,,,,,,0,50,92
181440,note_on,,0,0,2,,,,,,0,43,92
181440,note_off,,96,0,2,,,,,,0,50,64
181536,note_on,,0,0,2,,,,,,0,50,92
181536,note_off,,96,0,2,,,,,,0,43,64
181632,note_off,,0,0,1,,,,,,0,59,64
181632,note_on,,0,0,2,,,,,,0,47,92
181632,note_off,,0,0,1,,,,,,0,62,64
181632,note_off,,96,0,2,,,,,,0,50,64
181632,note_off,,384,0,1,,,,,,0,67,64
181728,note_on,,0,0,2,,,,,,0,50,92
181728,note_off,,96,0,2,,,,,,0,47,64
181824,note_on,,0,0,2,,,,,,0,43,92
181824,note_off,,96,0,2,,,,,,0,50,64
181824,note_on,,192,0,1,,,,,,0,59,92
181824,note_on,,0,0,1,,,,,,0,62,92
181824,note_on,,0,0,1,,,,,,0,67,92
181920,note_on,,0,0,2,,,,,,0,50,92
181920,note_off,,96,0,2,,,,,,0,43,64
182016,note_on,,0,0,1,,,,,,0,72,92
182016,note_off,,192,0,1,,,,,,0,67,64
182016,note_off,,0,0,1,,,,,,0,62,64
182016,note_on,,0,0,1,,,,,,0,60,92
182016,note_on,,0,0,1,,,,,,0,67,92
182016,note_off,,0,0,1,,,,,,0,59,64
182016,note_off,,96,0,2,,,,,,0,50,64
182016,note_on,,0,0,2,,,,,,0,52,92
182208,note_on,,0,0,1,,,,,,0,71,92
182208,note_on,,0,0,1,,,,,,0,62,92
182208,note_off,,0,0,1,,,,,,0,60,64
182208,note_off,,192,0,1,,,,,,0,72,64
182208,note_off,,192,0,2,,,,,,0,52,64
182208,note_on,,0,0,2,,,,,,0,43,92
182400,note_off,,0,0,1,,,,,,0,62,64
182400,note_off,,192,0,2,,,,,,0,43,64
182400,note_on,,0,0,2,,,,,,0,45,92
182400,note_on,,0,0,1,,,,,,0,60,92
182400,note_off,,0,0,1,,,,,,0,67,64
182400,note_on,,0,0,1,,,,,,0,69,92
182400,note_on,,0,0,1,,,,,,0,64,92
182400,note_off,,192,0,1,,,,,,0,71,64
182592,note_off,,192,0,2,,,,,,0,45,64
182592,note_on,,0,0,2,,,,,,0,48,92
182688,note_on,,0,0,2,,,,,,0,47,92
182688,note_off,,96,0,2,,,,,,0,48,64
182784,note_on,,0,0,2,,,,,,0,45,92
182784,note_off,,96,0,2,,,,,,0,47,64
182976,note_off,,0,0,1,,,,,,0,60,64
182976,note_off,,0,0,1,,,,,,0,64,64
182976,note_on,,0,0,2,,,,,,0,52,92
182976,note_on,,0,0,1,,,,,,0,59,92
182976,note_on,,0,0,1,,,,,,0,64,92
182976,note_on,,0,0,1,,,,,,0,67,92
182976,note_off,,576,0,1,,,,,,0,69,64
182976,note_off,,192,0,2,,,,,,0,45,64
183168,note_on,,0,0,1,,,,,,0,69,92
183168,note_off,,0,0,1,,,,,,0,59,64
183168,note_off,,0,0,1,,,,,,0,64,64
183168,note_off,,192,0,1,,,,,,0,67,64
183168,note_on,,0,0,1,,,,,,0,60,92
183168,note_on,,0,0,1,,,,,,0,66,92
183360,note_off,,192,0,1,,,,,,0,60,64
183360,note_on,,0,0,1,,,,,,0,59,92
183360,note_off,,384,0,2,,,,,,0,52,64
183360,note_on,,0,0,2,,,,,,0,51,92
183552,note_off,,192,0,2,,,,,,0,51,64
183552,note_on,,0,0,2,,,,,,0,52,92
183552,note_on,,0,0,1,,,,,,0,64,92
183552,note_on,,0,0,1,,,,,,0,67,92
183552,note_off,,192,0,1,,,,,,0,59,64
183552,note_off,,0,0,1,,,,,,0,69,64
183552,note_off,,0,0,1,,,,,,0,66,64
183552,note_on,,0,0,1,,,,,,0,59,92
183744,note_off,,192,0,2,,,,,,0,52,64
183744,note_on,,0,0,2,,,,,,0,54,92
183936,note_off,,192,0,2,,,,,,0,54,64
183936,note_on,,0,0,2,,,,,,0,55,92
184128,note_off,,192,0,2,,,,,,0,55,64
184128,note_on,,0,0,2,,,,,,0,52,92
184320,note_off,,192,0,2,,,,,,0,52,64
184320,note_on,,0,0,2,,,,,,0,46,92
184320,set_tempo,1200000,110592,1,0,,,,,,,,
184320,note_off,,768,0,1,,,,,,0,67,64
184320,note_off,,0,0,1,,,,,,0,59,64
184320,note_on,,0,0,1,,,,,,0,61,92
184320,note_on,,0,0,1,,,,,,0,64,92
184320,note_on,,0,0,1,,,,,,0,67,92
184320,note_off,,0,0,1,,,,,,0,64,64
184704,note_off,,384,0,1,,,,,,0,67,64
184704,note_off,,0,0,1,,,,,,0,64,64
184704,note_off,,0,0,1,,,,,,0,61,64
184704,note_off,,384,0,2,,,,,,0,46,64
184896,note_on,,0,0,1,,,,,,0,64,92
184896,note_on,,0,0,1,,,,,,0,67,92
184896,note_on,,192,0,1,,,,,,0,61,92
184896,note_on,,192,0,2,,,,,,0,46,92
185088,note_on,,0,0,1,,,,,,0,64,92
185088,note_off,,0,0,1,,,,,,0,64,64
185088,note_off,,192,0,1,,,,,,0,67,64
185088,set_tempo,967740,768,1,0,,,,,,,,
185088,note_off,,192,0,2,,,,,,0,46,64
185088,note_on,,0,0,2,,,,,,0,47,92
185088,note_on,,0,0,2,,,,,,0,59,92
185088,note_on,,0,0,1,,,,,,0,66,92
185088,note_off,,0,0,1,,,,,,0,61,64
185472,note_off,,384,0,1,,,,,,0,64,64
185472,note_on,,0,0,1,,,,,,0,63,92
185664,note_off,,192,0,1,,,,,,0,66,64
185664,note_on,,0,0,1,,,,,,0,71,92
185856,note_on,,114240,0,3,,,,,,0,52,102
185856,note_off,,192,0,1,,,,,,0,71,64
185856,note_off,,0,0,1,,,,,,0,63,64
185856,note_off,,768,0,2,,,,,,0,59,64
185856,note_off,,0,0,2,,,,,,0,47,64
185856,note_on,,0,0,2,,,,,,0,59,92
185904,note_on,,48,0,1,,,,,,0,68,92
185952,note_off,,48,0,1,,,,,,0,68,64
185952,note_on,,0,0,1,,,,,,0,64,92
186000,note_on,,0,0,1,,,,,,0,68,92
186000,note_off,,48,0,1,,,,,,0,64,64
186048,note_on,,0,0,2,,,,,,0,60,92
186048,note_off,,192,0,2,,,,,,0,59,64
186048,note_off,,48,0,1,,,,,,0,68,64
186096,note_on,,48,0,1,,,,,,0,69,92
186144,note_off,,48,0,1,,,,,,0,69,64
186144,note_on,,0,0,1,,,,,,0,64,92
186192,note_off,,48,0,1,,,,,,0,64,64
186192,note_on,,0,0,1,,,,,,0,69,92
186240,note_on,,0,0,2,,,,,,0,56,92
186240,note_off,,192,0,2,,,,,,0,60,64
186240,note_off,,48,0,1,,,,,,0,69,64
186288,note_on,,48,0,1,,,,,,0,71,92
186336,note_off,,48,0,1,,,,,,0,71,64
186336,note_on,,0,0,1,,,,,,0,64,92
186384,note_off,,48,0,1,,,,,,0,64,64
186384,note_on,,0,0,1,,,,,,0,71,92
186432,note_off,,48,0,1,,,,,,0,71,64
186432,note_on,,0,0,2,,,,,,0,57,92
186432,note_off,,192,0,2,,,,,,0,56,64
186480,note_on,,48,0,1,,,,,,0,72,92
186528,note_off,,48,0,1,,,,,,0,72,64
186528,note_on,,0,0,1,,,,,,0,64,92
186576,note_on,,0,0,1,,,,,,0,72,92
186576,note_off,,48,0,1,,,,,,0,64,64
186624,note_off,,48,0,1,,,,,,0,72,64
186624,note_off,,192,0,2,,,,,,0,57,64
186624,note_on,,0,0,2,,,,,,0,59,92
186672,note_on,,48,0,1,,,,,,0,76,92
186720,note_off,,48,0,1,,,,,,0,76,64
186720,note_on,,0,0,1,,,,,,0,68,92
186768,note_on,,0,0,1,,,,,,0,76,92
186768,note_off,,48,0,1,,,,,,0,68,64
186816,note_off,,192,0,2,,,,,,0,59,64
186816,note_off,,48,0,1,,,,,,0,76,64
186816,note_on,,0,0,2,,,,,,0,60,92
186864,note_on,,48,0,1,,,,,,0,76,92
186912,note_off,,48,0,1,,,,,,0,76,64
186912,note_on,,0,0,1,,,,,,0,69,92
186960,note_off,,48,0,1,,,,,,0,69,64
186960,note_on,,0,0,1,,,,,,0,76,92
187008,note_off,,48,0,1,,,,,,0,76,64
187008,note_on,,0,0,2,,,,,,0,56,92
187008,note_off,,192,0,2,,,,,,0,60,64
187056,note_on,,48,0,1,,,,,,0,76,92
187104,note_on,,0,0,1,,,,,,0,71,92
187104,note_off,,48,0,1,,,,,,0,76,64
187152,note_off,,48,0,1,,,,,,0,71,64
187152,note_on,,0,0,1,,,,,,0,76,92
187200,note_off,,48,0,1,,,,,,0,76,64
187200,note_off,,192,0,2,,,,,,0,56,64
187200,note_on,,0,0,2,,,,,,0,57,92
187248,note_on,,48,0,1,,,,,,0,76,92
187296,note_off,,48,0,1,,,,,,0,76,64
187296,note_on,,0,0,1,,,,,,0,72,92
187344,note_off,,48,0,1,,,,,,0,72,64
187344,note_on,,0,0,1,,,,,,0,76,92
187392,note_off,,192,0,2,,,,,,0,57,64
187392,note_on,,0,0,2,,,,,,0,59,92
187392,note_off,,48,0,1,,,,,,0,76,64
187440,note_on,,48,0,1,,,,,,0,68,92
187488,note_on,,0,0,1,,,,,,0,64,92
187488,note_off,,48,0,1,,,,,,0,68,64
187536,note_off,,48,0,1,,,,,,0,64,64
187536,note_on,,0,0,1,,,,,,0,68,92
187584,note_on,,0,0,2,,,,,,0,60,92
187584,note_off,,192,0,2,,,,,,0,59,64
187584,note_off,,48,0,1,,,,,,0,68,64
187632,note_on,,48,0,1,,,,,,0,69,92
187680,note_off,,48,0,1,,,,,,0,69,64
187680,note_on,,0,0,1,,,,,,0,64,92
187728,note_off,,48,0,1,,,,,,0,64,64
187728,note_on,,0,0,1,,,,,,0,69,92
187776,note_on,,0,0,2,,,,,,0,56,92
187776,note_off,,48,0,1,,,,,,0,69,64
187776,note_off,,192,0,2,,,,,,0,60,64
187824,note_on,,48,0,1,,,,,,0,71,92
187872,note_off,,48,0,1,,,,,,0,71,64
187872,note_on,,0,0,1,,,,,,0,64,92
187920,note_off,,48,0,1,,,,,,0,64,64
187920,note_on,,0,0,1,,,,,,0,71,92
187968,note_on,,0,0,2,,,,,,0,57,92
187968,note_off,,192,0,2,,,,,,0,56,64
187968,note_off,,48,0,1,,,,,,0,71,64
188016,note_on,,48,0,1,,,,,,0,72,92
188064,note_off,,48,0,1,,,,,,0,72,64
188064,note_on,,0,0,1,,,,,,0,64,92
188112,note_off,,48,0,1,,,,,,0,64,64
188112,note_on,,0,0,1,,,,,,0,72,92
188160,note_off,,48,0,1,,,,,,0,72,64
188160,note_off,,192,0,2,,,,,,0,57,64
188160,note_on,,0,0,2,,,,,,0,59,92
188208,note_on,,48,0,1,,,,,,0,76,92
188256,note_off,,48,0,1,,,,,,0,76,64
188256,note_on,,0,0,1,,,,,,0,68,92
188304,note_off,,48,0,1,,,,,,0,68,64
188304,note_on,,0,0,1,,,,,,0,76,92
188352,note_off,,192,0,2,,,,,,0,59,64
188352,note_on,,0,0,2,,,,,,0,60,92
188352,note_off,,48,0,1,,,,,,0,76,64
188400,note_on,,48,0,1,,,,,,0,76,92
188448,note_on,,0,0,1,,,,,,0,69,92
188448,note_off,,48,0,1,,,,,,0,76,64
188496,note_on,,0,0,1,,,,,,0,76,92
188496,note_off,,48,0,1,,,,,,0,69,64
188544,note_on,,0,0,2,,,,,,0,56,92
188544,note_off,,192,0,2,,,,,,0,60,64
188544,note_off,,48,0,1,,,,,,0,76,64
188592,note_on,,48,0,1,,,,,,0,76,92
188640,note_on,,0,0,1,,,,,,0,71,92
188640,note_off,,48,0,1,,,,,,0,76,64
188688,note_off,,48,0,1,,,,,,0,71,64
188688,note_on,,0,0,1,,,,,,0,76,92
188736,note_off,,48,0,1,,,,,,0,76,64
188736,note_on,,0,0,2,,,,,,0,57,92
188736,note_off,,192,0,2,,,,,,0,56,64
188784,note_on,,48,0,1,,,,,,0,76,92
188832,note_off,,48,0,1,,,,,,0,76,64
188832,note_on,,0,0,1,,,,,,0,72,92
188880,note_off,,48,0,1,,,,,,0,72,64
188880,note_on,,0,0,1,,,,,,0,76,92
188928,note_off,,192,0,2,,,,,,0,57,64
188928,note_on,,0,0,2,,,,,,0,59,92
188928,note_off,,48,0,1,,,,,,0,76,64
188976,note_on,,48,0,1,,,,,,0,68,92
189024,note_on,,0,0,1,,,,,,0,64,92
189024,note_off,,48,0,1,,,,,,0,68,64
189072,note_on,,0,0,1,,,,,,0,68,92
189072,note_off,,48,0,1,,,,,,0,64,64
189120,note_off,,48,0,1,,,,,,0,68,64
189120,note_off,,192,0,2,,,,,,0,59,64
189120,note_on,,0,0,2,,,,,,0,60,92
189168,note_on,,48,0,1,,,,,,0,69,92
189216,note_off,,48,0,1,,,,,,0,69,64
189216,note_on,,0,0,1,,,,,,0,64,92
189264,note_off,,48,0,1,,,,,,0,64,64
189264,note_on,,0,0,1,,,,,,0,69,92
189312,note_on,,0,0,2,,,,,,0,56,92
189312,note_off,,192,0,2,,,,,,0,60,64
189312,note_off,,48,0,1,,,,,,0,69,64
189360,note_on,,48,0,1,,,,,,0,71,92
189408,note_on,,0,0,1,,,,,,0,64,92
189408,note_off,,48,0,1,,,,,,0,71,64
189456,note_off,,48,0,1,,,,,,0,64,64
189456,note_on,,0,0,1,,,,,,0,71,92
189504,note_off,,48,0,1,,,,,,0,71,64
189504,note_on,,0,0,2,,,,,,0,57,92
189504,note_off,,192,0,2,,,,,,0,56,64
189552,note_on,,48,0,1,,,,,,0,72,92
189600,note_off,,48,0,1,,,,,,0,72,64
189600,note_on,,0,0,1,,,,,,0,64,92
189648,note_off,,48,0,1,,,,,,0,64,64
189648,note_on,,0,0,1,,,,,,0,72,92
189696,note_on,,0,0,1,,,,,,0,68,92
189696,note_off,,48,0,1,,,,,,0,72,64
189696,note_on,,0,0,2,,,,,,0,59,92
189696,note_off,,192,0,2,,,,,,0,57,64
189888,note_off,,192,0,1,,,,,,0,68,64
189888,note_off,,192,0,2,,,,,,0,59,64
189888,note_on,,0,0,2,,,,,,0,60,92
189888,note_on,,0,0,1,,,,,,0,69,92
190080,note_off,,192,0,2,,,,,,0,60,64
190080,note_on,,0,0,2,,,,,,0,59,92
190080,note_on,,0,0,1,,,,,,0,69,92
190080,note_off,,192,0,1,,,,,,0,69,64
190272,note_off,,192,0,1,,,,,,0,69,64
190272,note_on,,0,0,1,,,,,,0,64,92
190272,note_on,,0,0,1,,,,,,0,68,92
190272,note_off,,192,0,2,,,,,,0,59,64
190368,note_off,,96,0,1,,,,,,0,64,64
190368,note_on,,0,0,1,,,,,,0,62,92
190464,note_off,,4608,0,3,,,,,,0,52,64
190464,note_on,,0,0,3,,,,,,0,45,102
190464,note_off,,96,0,1,,,,,,0,62,64
190464,note_off,,0,0,1,,,,,,0,68,64
190464,note_on,,0,0,1,,,,,,0,60,92
190464,note_on,,0,0,1,,,,,,0,69,92
190560,note_off,,96,0,1,,,,,,0,69,64
190560,note_on,,0,0,1,,,,,,0,67,92
190608,note_off,,48,0,1,,,,,,0,67,64
190608,note_on,,0,0,1,,,,,,0,65,92
190656,note_off,,48,0,1,,,,,,0,65,64
190656,note_off,,0,0,1,,,,,,0,60,64
190656,note_on,,0,0,1,,,,,,0,64,92
190704,note_off,,48,0,1,,,,,,0,64,64
190704,note_on,,0,0,1,,,,,,0,62,92
190752,note_on,,0,0,1,,,,,,0,60,92
190752,note_off,,48,0,1,,,,,,0,62,64
190800,note_on,,0,0,1,,,,,,0,59,92
190800,note_off,,48,0,1,,,,,,0,60,64
190848,note_on,,0,0,1,,,,,,0,57,92
190848,note_off,,48,0,1,,,,,,0,59,64
190896,note_on,,0,0,1,,,,,,0,64,92
190896,note_off,,48,0,1,,,,,,0,57,64
190944,note_off,,48,0,1,,,,,,0,64,64
190944,note_on,,0,0,1,,,,,,0,62,92
190992,note_on,,0,0,1,,,,,,0,60,92
190992,note_off,,48,0,1,,,,,,0,62,64
191040,note_on,,0,0,1,,,,,,0,59,92
191040,note_off,,48,0,1,,,,,,0,60,64
191088,note_on,,816,0,2,,,,,,0,57,92
191088,note_off,,48,0,1,,,,,,0,59,64
191136,note_off,,48,0,2,,,,,,0,57,64
191136,note_on,,0,0,2,,,,,,0,56,92
191184,note_off,,48,0,2,,,,,,0,56,64
191184,note_on,,0,0,2,,,,,,0,54,92
191232,note_off,,48,0,2,,,,,,0,54,64
191232,note_on,,0,0,2,,,,,,0,52,92
191280,note_off,,48,0,2,,,,,,0,52,64
191280,note_on,,0,0,2,,,,,,0,57,92
191328,note_on,,0,0,2,,,,,,0,55,92
191328,note_off,,48,0,2,,,,,,0,57,64
191376,note_off,,48,0,2,,,,,,0,55,64
191376,note_on,,0,0,2,,,,,,0,53,92
191424,note_off,,48,0,2,,,,,,0,53,64
191424,note_on,,0,0,2,,,,,,0,52,92
191472,note_off,,48,0,2,,,,,,0,52,64
191472,note_on,,0,0,2,,,,,,0,50,92
191520,note_on,,0,0,2,,,,,,0,48,92
191520,note_off,,48,0,2,,,,,,0,50,64
191568,note_off,,48,0,2,,,,,,0,48,64
191568,note_on,,0,0,2,,,,,,0,47,92
191616,note_on,,0,0,2,,,,,,0,45,92
191616,note_off,,48,0,2,,,,,,0,47,64
191664,note_off,,48,0,2,,,,,,0,45,64
191664,note_on,,576,0,1,,,,,,0,69,92
191712,note_on,,0,0,1,,,,,,0,67,92
191712,note_off,,48,0,1,,,,,,0,69,64
191760,note_off,,48,0,1,,,,,,0,67,64
191760,note_on,,0,0,1,,,,,,0,65,92
191808,note_off,,48,0,1,,,,,,0,65,64
191808,note_on,,0,0,1,,,,,,0,64,92
191856,note_off,,48,0,1,,,,,,0,64,64
191856,note_on,,0,0,1,,,,,,0,62,92
191904,note_off,,48,0,1,,,,,,0,62,64
191904,note_on,,0,0,1,,,,,,0,60,92
191952,note_off,,48,0,1,,,,,,0,60,64
191952,note_on,,0,0,1,,,,,,0,59,92
192000,note_on,,0,0,1,,,,,,0,57,92
192000,note_off,,48,0,1,,,,,,0,59,64
192048,note_on,,0,0,1,,,,,,0,76,92
192048,note_off,,48,0,1,,,,,,0,57,64
192096,note_off,,48,0,1,,,,,,0,76,64
192096,note_on,,0,0,1,,,,,,0,74,92
192144,note_off,,48,0,1,,,,,,0,74,64
192144,note_on,,0,0,1,,,,,,0,72,92
192192,note_off,,48,0,1,,,,,,0,72,64
192192,note_on,,0,0,1,,,,,,0,71,92
192240,note_off,,48,0,1,,,,,,0,71,64
192240,note_on,,0,0,1,,,,,,0,69,92
192288,note_off,,48,0,1,,,,,,0,69,64
192288,note_on,,0,0,1,,,,,,0,68,92
192336,note_on,,0,0,1,,,,,,0,66,92
192336,note_off,,48,0,1,,,,,,0,68,64
192384,note_off,,48,0,1,,,,,,0,66,64
192384,note_on,,0,0,1,,,,,,0,64,92
192432,note_off,,48,0,1,,,,,,0,64,64
192432,note_on,,0,0,1,,,,,,0,81,92
192480,note_off,,48,0,1,,,,,,0,81,64
192480,note_on,,0,0,1,,,,,,0,79,92
192528,note_off,,48,0,1,,,,,,0,79,64
192528,note_on,,0,0,1,,,,,,0,77,92
192576,note_off,,48,0,1,,,,,,0,77,64
192576,note_on,,0,0,1,,,,,,0,76,92
192624,note_off,,48,0,1,,,,,,0,76,64
192624,note_on,,0,0,1,,,,,,0,74,92
192672,note_off,,48,0,1,,,,,,0,74,64
192672,note_on,,0,0,1,,,,,,0,72,92
192720,note_off,,48,0,1,,,,,,0,72,64
192720,note_on,,0,0,1,,,,,,0,71,92
192768,note_off,,48,0,1,,,,,,0,71,64
192768,note_on,,0,0,1,,,,,,0,69,92
192816,note_on,,48,0,1,,,,,,0,72,92
192864,note_off,,48,0,1,,,,,,0,72,64
192864,note_on,,0,0,1,,,,,,0,76,92
192912,note_on,,0,0,1,,,,,,0,72,92
192912,note_off,,48,0,1,,,,,,0,76,64
192960,note_off,,48,0,1,,,,,,0,72,64
192960,note_off,,0,0,1,,,,,,0,69,64
192960,note_on,,0,0,1,,,,,,0,64,92
193008,note_on,,48,0,1,,,,,,0,69,92
193056,note_off,,48,0,1,,,,,,0,69,64
193056,note_on,,0,0,1,,,,,,0,72,92
193104,note_off,,48,0,1,,,,,,0,72,64
193104,note_on,,0,0,1,,,,,,0,69,92
193152,note_off,,48,0,1,,,,,,0,69,64
193152,note_off,,0,0,1,,,,,,0,64,64
193152,note_on,,0,0,1,,,,,,0,69,92
193200,note_on,,48,0,1,,,,,,0,72,92
193248,note_off,,48,0,1,,,,,,0,72,64
193248,note_on,,0,0,1,,,,,,0,76,92
193296,note_off,,48,0,1,,,,,,0,76,64
193296,note_on,,0,0,1,,,,,,0,72,92
193344,note_off,,48,0,1,,,,,,0,72,64
193344,note_off,,0,0,1,,,,,,0,69,64
193344,note_on,,0,0,1,,,,,,0,64,92
193392,note_on,,48,0,1,,,,,,0,69,92
193440,note_off,,48,0,1,,,,,,0,69,64
193440,note_on,,0,0,1,,,,,,0,72,92
193488,note_on,,0,0,1,,,,,,0,69,92
193488,note_off,,48,0,1,,,,,,0,72,64
193536,note_on,,0,0,1,,,,,,0,60,92
193536,note_off,,0,0,1,,,,,,0,64,64
193536,note_off,,48,0,1,,,,,,0,69,64
193584,note_on,,48,0,1,,,,,,0,64,92
193632,note_on,,0,0,1,,,,,,0,69,92
193632,note_off,,48,0,1,,,,,,0,64,64
193680,note_on,,0,0,1,,,,,,0,64,92
193680,note_off,,48,0,1,,,,,,0,69,64
193728,note_on,,0,0,1,,,,,,0,57,92
193728,note_off,,48,0,1,,,,,,0,64,64
193728,note_off,,0,0,1,,,,,,0,60,64
193776,note_on,,48,0,1,,,,,,0,60,92
193824,note_off,,48,0,1,,,,,,0,60,64
193824,note_on,,0,0,1,,,,,,0,64,92
193872,note_off,,48,0,1,,,,,,0,64,64
193872,note_on,,0,0,1,,,,,,0,60,92
193920,note_off,,48,0,1,,,,,,0,60,64
193920,note_off,,0,0,1,,,,,,0,57,64
193920,note_on,,0,0,1,,,,,,0,60,92
193968,note_on,,48,0,1,,,,,,0,64,92
194016,note_off,,48,0,1,,,,,,0,64,64
194016,note_on,,0,0,1,,,,,,0,69,92
194064,note_off,,48,0,1,,,,,,0,69,64
194064,note_on,,0,0,1,,,,,,0,64,92
194112,note_off,,48,0,1,,,,,,0,64,64
194112,note_off,,0,0,1,,,,,,0,60,64
194112,note_on,,0,0,1,,,,,,0,57,92
194160,note_on,,48,0,1,,,,,,0,60,92
194208,note_off,,48,0,1,,,,,,0,60,64
194208,note_on,,0,0,1,,,,,,0,64,92
194256,note_off,,48,0,1,,,,,,0,64,64
194256,note_on,,0,0,1,,,,,,0,60,92
194304,note_off,,48,0,1,,,,,,0,60,64
194304,note_off,,0,0,1,,,,,,0,57,64
194304,note_on,,2640,0,2,,,,,,0,52,92
194352,note_on,,48,0,2,,,,,,0,57,92
194400,note_on,,0,0,2,,,,,,0,60,92
194400,note_off,,48,0,2,,,,,,0,57,64
194448,note_off,,48,0,2,,,,,,0,60,64
194448,note_on,,0,0,2,,,,,,0,57,92
194496,note_off,,48,0,2,,,,,,0,57,64
194496,note_off,,0,0,2,,,,,,0,52,64
194496,note_on,,0,0,2,,,,,,0,48,92
194544,note_on,,48,0,2,,,,,,0,52,92
194592,note_off,,48,0,2,,,,,,0,52,64
194592,note_on,,0,0,2,,,,,,0,57,92
194640,note_on,,0,0,2,,,,,,0,52,92
194640,note_off,,48,0,2,,,,,,0,57,64
194688,note_on,,0,0,2,,,,,,0,52,92
194688,note_off,,48,0,2,,,,,,0,52,64
194688,note_off,,0,0,2,,,,,,0,48,64
194736,note_on,,48,0,2,,,,,,0,57,92
194784,note_on,,0,0,2,,,,,,0,60,92
194784,note_off,,48,0,2,,,,,,0,57,64
194832,note_off,,48,0,2,,,,,,0,60,64
194832,note_on,,0,0,2,,,,,,0,57,92
194880,note_off,,48,0,2,,,,,,0,57,64
194880,note_off,,0,0,2,,,,,,0,52,64
194880,note_on,,0,0,2,,,,,,0,48,92
194928,note_on,,48,0,2,,,,,,0,52,92
194976,note_off,,48,0,2,,,,,,0,52,64
194976,note_on,,0,0,2,,,,,,0,57,92
195024,note_on,,0,0,2,,,,,,0,52,92
195024,note_off,,48,0,2,,,,,,0,57,64
195072,note_off,,0,0,2,,,,,,0,48,64
195072,note_on,,0,0,2,,,,,,0,45,92
195072,note_off,,48,0,2,,,,,,0,52,64
195120,note_on,,48,0,2,,,,,,0,48,92
195168,note_off,,48,0,2,,,,,,0,48,64
195168,note_on,,0,0,2,,,,,,0,52,92
195216,note_off,,48,0,2,,,,,,0,52,64
195216,note_on,,0,0,2,,,,,,0,48,92
195264,note_off,,0,0,2,,,,,,0,45,64
195264,note_off,,48,0,2,,,,,,0,48,64
195264,note_on,,0,0,2,,,,,,0,48,92
195312,note_on,,48,0,2,,,,,,0,52,92
195360,note_on,,0,0,2,,,,,,0,57,92
195360,note_off,,48,0,2,,,,,,0,52,64
195408,note_on,,0,0,2,,,,,,0,52,92
195408,note_off,,48,0,2,,,,,,0,57,64
195456,note_off,,48,0,2,,,,,,0,52,64
195456,note_off,,0,0,2,,,,,,0,48,64
195456,note_on,,0,0,2,,,,,,0,52,92
195504,note_on,,48,0,2,,,,,,0,57,92
195552,note_on,,0,0,2,,,,,,0,60,92
195552,note_off,,48,0,2,,,,,,0,57,64
195600,note_off,,48,0,2,,,,,,0,60,64
195600,note_on,,0,0,2,,,,,,0,57,92
195648,note_off,,48,0,2,,,,,,0,57,64
195648,note_off,,0,0,2,,,,,,0,52,64
195648,note_on,,0,0,2,,,,,,0,48,92
195696,note_on,,48,0,2,,,,,,0,52,92
195744,note_off,,48,0,2,,,,,,0,52,64
195744,note_on,,0,0,2,,,,,,0,57,92
195792,note_on,,0,0,2,,,,,,0,52,92
195792,note_off,,48,0,2,,,,,,0,57,64
195840,note_off,,48,0,2,,,,,,0,52,64
195840,note_off,,0,0,2,,,,,,0,48,64
195840,note_on,,0,0,2,,,,,,0,52,92
195888,note_on,,48,0,2,,,,,,0,57,92
195936,note_on,,0,0,2,,,,,,0,60,92
195936,note_off,,48,0,2,,,,,,0,57,64
195984,note_on,,0,0,2,,,,,,0,57,92
195984,note_off,,48,0,2,,,,,,0,60,64
196032,note_off,,48,0,2,,,,,,0,57,64
196032,note_on,,0,0,2,,,,,,0,57,92
196032,note_off,,0,0,2,,,,,,0,52,64
196080,note_on,,48,0,2,,,,,,0,60,92
196128,note_off,,48,0,2,,,,,,0,60,64
196128,note_on,,0,0,2,,,,,,0,64,92
196176,note_on,,0,0,2,,,,,,0,60,92
196176,note_off,,48,0,2,,,,,,0,64,64
196224,note_off,,48,0,2,,,,,,0,60,64
196224,note_off,,0,0,2,,,,,,0,57,64
196224,note_on,,0,0,2,,,,,,0,60,92
196272,note_on,,48,0,2,,,,,,0,64,92
196320,note_on,,0,0,2,,,,,,0,69,92
196320,note_off,,48,0,2,,,,,,0,64,64
196368,note_off,,48,0,2,,,,,,0,69,64
196368,note_on,,0,0,2,,,,,,0,64,92
196416,note_on,,0,0,2,,,,,,0,57,92
196416,note_off,,0,0,2,,,,,,0,60,64
196416,note_off,,48,0,2,,,,,,0,64,64
196464,note_on,,48,0,2,,,,,,0,60,92
196512,note_off,,48,0,2,,,,,,0,60,64
196512,note_on,,0,0,2,,,,,,0,64,92
196560,note_off,,48,0,2,,,,,,0,64,64
196560,note_on,,0,0,2,,,,,,0,60,92
196608,note_on,,2304,0,1,,,,,,0,60,92
196608,note_off,,0,0,2,,,,,,0,57,64
196608,note_off,,48,0,2,,,,,,0,60,64
196656,note_on,,48,0,1,,,,,,0,64,92
196704,note_off,,48,0,1,,,,,,0,64,64
196704,note_on,,0,0,1,,,,,,0,69,92
196752,note_off,,48,0,1,,,,,,0,69,64
196752,note_on,,0,0,1,,,,,,0,64,92
196800,note_off,,48,0,1,,,,,,0,64,64
196800,note_off,,0,0,1,,,,,,0,60,64
196800,note_on,,0,0,1,,,,,,0,64,92
196848,note_on,,48,0,1,,,,,,0,69,92
196896,note_off,,48,0,1,,,,,,0,69,64
196896,note_on,,0,0,1,,,,,,0,72,92
196944,note_off,,48,0,1,,,,,,0,72,64
196944,note_on,,0,0,1,,,,,,0,69,92
196992,note_off,,48,0,1,,,,,,0,69,64
196992,note_on,,0,0,1,,,,,,0,69,92
196992,note_off,,0,0,1,,,,,,0,64,64
197040,note_on,,48,0,1,,,,,,0,72,92
197088,note_on,,0,0,1,,,,,,0,76,92
197088,note_off,,48,0,1,,,,,,0,72,64
197136,note_on,,0,0,1,,,,,,0,72,92
197136,note_off,,48,0,1,,,,,,0,76,64
197184,note_off,,48,0,1,,,,,,0,72,64
197184,note_on,,0,0,1,,,,,,0,64,92
197184,note_off,,0,0,1,,,,,,0,69,64
197232,note_on,,48,0,1,,,,,,0,69,92
197280,note_on,,0,0,1,,,,,,0,72,92
197280,note_off,,48,0,1,,,,,,0,69,64
197328,note_on,,0,0,1,,,,,,0,69,92
197328,note_off,,48,0,1,,,,,,0,72,64
197376,note_off,,48,0,1,,,,,,0,69,64
197376,note_on,,0,0,1,,,,,,0,69,92
197376,note_off,,0,0,1,,,,,,0,64,64
197472,note_off,,96,0,1,,,,,,0,69,64
197472,note_on,,0,0,1,,,,,,0,71,92
197520,note_off,,48,0,1,,,,,,0,71,64
197520,note_on,,0,0,1,,,,,,0,72,92
197568,note_off,,48,0,1,,,,,,0,72,64
197568,note_on,,0,0,1,,,,,,0,74,92
197616,note_off,,48,0,1,,,,,,0,74,64
197616,note_on,,0,0,1,,,,,,0,76,92
197664,note_off,,48,0,1,,,,,,0,76,64
197664,note_on,,0,0,1,,,,,,0,78,92
197712,note_off,,48,0,1,,,,,,0,78,64
197712,note_on,,0,0,1,,,,,,0,80,92
197760,note_off,,48,0,1,,,,,,0,80,64
197760,note_on,,0,0,1,,,,,,0,81,92
197808,note_off,,48,0,1,,,,,,0,81,64
197808,note_on,,0,0,1,,,,,,0,76,92
197856,note_off,,48,0,1,,,,,,0,76,64
197856,note_on,,0,0,1,,,,,,0,72,92
197904,note_off,,48,0,1,,,,,,0,72,64
197904,note_on,,0,0,1,,,,,,0,69,92
197952,note_off,,48,0,1,,,,,,0,69,64
197952,note_on,,0,0,1,,,,,,0,76,92
198000,note_off,,48,0,1,,,,,,0,76,64
198000,note_on,,0,0,1,,,,,,0,72,92
198048,note_on,,0,0,1,,,,,,0,69,92
198048,note_off,,48,0,1,,,,,,0,72,64
198096,note_off,,48,0,1,,,,,,0,69,64
198096,note_on,,0,0,1,,,,,,0,64,92
198144,note_on,,0,0,1,,,,,,0,72,92
198144,note_off,,48,0,1,,,,,,0,64,64
198192,note_on,,0,0,1,,,,,,0,69,92
198192,note_off,,48,0,1,,,,,,0,72,64
198240,note_on,,0,0,1,,,,,,0,64,92
198240,note_off,,48,0,1,,,,,,0,69,64
198288,note_off,,48,0,1,,,,,,0,64,64
198288,note_on,,0,0,1,,,,,,0,60,92
198336,note_off,,48,0,1,,,,,,0,60,64
198336,note_on,,0,0,1,,,,,,0,69,92
198384,note_off,,48,0,1,,,,,,0,69,64
198384,note_on,,0,0,1,,,,,,0,64,92
198432,note_off,,48,0,1,,,,,,0,64,64
198432,note_on,,0,0,1,,,,,,0,60,92
198480,note_off,,48,0,1,,,,,,0,60,64
198480,note_on,,0,0,1,,,,,,0,57,92
198528,note_off,,48,0,1,,,,,,0,57,64
198528,note_on,,1920,0,2,,,,,,0,64,92
198576,note_off,,48,0,2,,,,,,0,64,64
198576,note_on,,0,0,2,,,,,,0,60,92
198624,note_off,,48,0,2,,,,,,0,60,64
198624,note_on,,0,0,2,,,,,,0,57,92
198672,note_off,,48,0,2,,,,,,0,57,64
198672,note_on,,0,0,2,,,,,,0,52,92
198720,note_off,,48,0,2,,,,,,0,52,64
198720,note_on,,0,0,2,,,,,,0,60,92
198768,note_off,,48,0,2,,,,,,0,60,64
198768,note_on,,0,0,2,,,,,,0,57,92
198816,note_off,,48,0,2,,,,,,0,57,64
198816,note_on,,0,0,2,,,,,,0,52,92
198864,note_on,,0,0,2,,,,,,0,48,92
198864,note_off,,48,0,2,,,,,,0,52,64
198912,note_off,,48,0,2,,,,,,0,48,64
198912,note_on,,0,0,2,,,,,,0,45,92
198960,note_on,,0,0,2,,,,,,0,57,92
198960,note_off,,48,0,2,,,,,,0,45,64
199008,note_on,,0,0,2,,,,,,0,55,92
199008,note_off,,48,0,2,,,,,,0,57,64
199056,note_on,,0,0,2,,,,,,0,53,92
199056,note_off,,48,0,2,,,,,,0,55,64
199104,note_on,,0,0,2,,,,,,0,52,92
199104,note_off,,48,0,2,,,,,,0,53,64
199152,note_on,,0,0,2,,,,,,0,50,92
199152,note_off,,48,0,2,,,,,,0,52,64
199200,note_on,,0,0,2,,,,,,0,48,92
199200,note_off,,48,0,2,,,,,,0,50,64
199248,note_on,,0,0,2,,,,,,0,47,92
199248,note_off,,48,0,2,,,,,,0,48,64
199296,note_off,,8832,0,3,,,,,,0,45,64
199296,note_off,,48,0,2,,,,,,0,47,64
199296,note_on,,0,0,2,,,,,,0,45,92
199296,set_tempo,1304340,14208,1,0,,,,,,,,
199488,note_on,,0,0,1,,,,,,0,71,92
199488,note_on,,0,0,1,,,,,,0,69,92
199488,note_on,,960,0,1,,,,,,0,66,92
199488,note_off,,192,0,2,,,,,,0,45,64
199488,note_on,,0,0,2,,,,,,0,51,92
199680,note_off,,192,0,1,,,,,,0,71,64
199680,note_on,,0,0,1,,,,,,0,71,92
199680,note_on,,0,0,1,,,,,,0,67,92
199680,note_on,,0,0,1,,,,,,0,64,92
199680,note_off,,0,0,1,,,,,,0,66,64
199680,note_off,,0,0,1,,,,,,0,69,64
199680,note_on,,0,0,2,,,,,,0,52,92
199680,note_off,,192,0,2,,,,,,0,51,64
199872,note_off,,192,0,2,,,,,,0,52,64
199872,note_on,,0,0,2,,,,,,0,54,92
200064,note_on,,0,0,2,,,,,,0,55,92
200064,note_off,,192,0,2,,,,,,0,54,64
200256,note_on,,0,0,2,,,,,,0,52,92
200256,note_off,,192,0,2,,,,,,0,55,64
200448,note_on,,0,0,2,,,,,,0,46,92
200448,note_off,,192,0,2,,,,,,0,52,64
200448,note_off,,768,0,1,,,,,,0,71,64
200448,note_off,,0,0,1,,,,,,0,67,64
200448,note_off,,0,0,1,,,,,,0,64,64
200448,note_on,,0,0,1,,,,,,0,64,92
200448,note_on,,0,0,1,,,,,,0,67,92
200448,note_on,,0,0,1,,,,,,0,73,92
200832,note_off,,0,0,1,,,,,,0,64,64
200832,note_on,,0,0,1,,,,,,0,66,92
200832,note_off,,384,0,1,,,,,,0,67,64
201120,note_off,,288,0,1,,,,,,0,66,64
201120,note_on,,0,0,1,,,,,,0,64,92
201216,note_off,,96,0,1,,,,,,0,64,64
201216,note_off,,0,0,1,,,,,,0,73,64
201216,note_on,,0,0,1,,,,,,0,62,92
201216,note_on,,0,0,1,,,,,,0,66,92
201216,note_on,,0,0,1,,,,,,0,71,92
201216,note_off,,768,0,2,,,,,,0,46,64
201216,note_on,,0,0,2,,,,,,0,47,92
201408,note_on,,0,0,2,,,,,,0,49,92
201408,note_off,,192,0,2,,,,,,0,47,64
201600,note_on,,0,0,2,,,,,,0,50,92
201600,note_off,,192,0,2,,,,,,0,49,64
201792,note_on,,0,0,2,,,,,,0,47,92
201792,note_off,,192,0,2,,,,,,0,50,64
201984,note_on,,0,0,1,,,,,,0,65,92
201984,note_off,,0,0,1,,,,,,0,66,64
201984,note_on,,0,0,1,,,,,,0,71,92
201984,note_on,,0,0,1,,,,,,0,62,92
201984,note_off,,0,0,1,,,,,,0,62,64
201984,note_off,,768,0,1,,,,,,0,71,64
201984,note_off,,192,0,2,,,,,,0,47,64
201984,note_on,,0,0,2,,,,,,0,44,92
202368,note_on,,0,0,1,,,,,,0,64,92
202368,note_off,,0,0,1,,,,,,0,62,64
202368,note_off,,384,0,1,,,,,,0,65,64
202656,note_off,,288,0,1,,,,,,0,64,64
202656,note_on,,0,0,1,,,,,,0,62,92
202752,note_on,,0,0,1,,,,,,0,69,92
202752,note_on,,0,0,1,,,,,,0,64,92
202752,note_on,,0,0,1,,,,,,0,60,92
202752,note_off,,96,0,1,,,,,,0,62,64
202752,note_off,,0,0,1,,,,,,0,71,64
202752,note_on,,0,0,2,,,,,,0,45,92
202752,note_off,,768,0,2,,,,,,0,44,64
202944,note_off,,192,0,2,,,,,,0,45,64
202944,note_on,,0,0,2,,,,,,0,47,92
203136,note_off,,192,0,2,,,,,,0,47,64
203136,note_on,,0,0,2,,,,,,0,48,92
203328,note_off,,192,0,2,,,,,,0,48,64
203328,note_on,,0,0,2,,,,,,0,45,92
203520,note_on,,0,0,1,,,,,,0,69,92
203520,note_on,,0,0,1,,,,,,0,63,92
203520,note_on,,0,0,1,,,,,,0,60,92
203520,note_off,,0,0,1,,,,,,0,60,64
203520,note_on,,0,0,2,,,,,,0,42,92
203520,note_off,,768,0,1,,,,,,0,69,64
203520,note_off,,192,0,2,,,,,,0,45,64
203520,note_off,,0,0,1,,,,,,0,64,64
203904,note_off,,384,0,1,,,,,,0,63,64
203904,note_off,,0,0,1,,,,,,0,60,64
203904,note_on,,0,0,1,,,,,,0,62,92
204192,note_off,,288,0,1,,,,,,0,62,64
204192,note_on,,0,0,1,,,,,,0,60,92
204288,note_on,,0,0,1,,,,,,0,59,92
204288,note_off,,768,0,2,,,,,,0,42,64
204288,note_on,,0,0,2,,,,,,0,43,92
204288,note_on,,0,0,1,,,,,,0,62,92
204288,note_off,,96,0,1,,,,,,0,60,64
204288,note_on,,0,0,1,,,,,,0,67,92
204288,note_off,,0,0,1,,,,,,0,69,64
204480,note_on,,0,0,2,,,,,,0,45,92
204480,note_off,,192,0,2,,,,,,0,43,64
204672,note_on,,0,0,2,,,,,,0,47,92
204672,note_off,,192,0,2,,,,,,0,45,64
204864,note_on,,0,0,2,,,,,,0,43,92
204864,note_off,,192,0,2,,,,,,0,47,64
205056,note_off,,0,0,1,,,,,,0,59,64
205056,note_on,,0,0,2,,,,,,0,48,92
205056,note_off,,192,0,2,,,,,,0,43,64
205056,note_off,,768,0,1,,,,,,0,67,64
205056,note_off,,0,0,1,,,,,,0,62,64
205056,note_on,,0,0,1,,,,,,0,64,92
205056,note_on,,0,0,1,,,,,,0,67,92
205056,note_on,,0,0,1,,,,,,0,60,92
205440,note_on,,0,0,1,,,,,,0,64,92
205440,note_off,,384,0,2,,,,,,0,48,64
205440,note_on,,0,0,2,,,,,,0,49,92
205440,note_off,,384,0,1,,,,,,0,67,64
205440,note_off,,0,0,1,,,,,,0,64,64
205440,note_off,,0,0,1,,,,,,0,60,64
205440,note_on,,0,0,1,,,,,,0,58,92
205440,note_on,,0,0,1,,,,,,0,67,92
205824,note_off,,384,0,2,,,,,,0,49,64
205824,set_tempo,1090900,6528,1,0,,,,,,,,
205824,note_on,,6528,0,3,,,,,,0,50,102
205824,note_off,,0,0,1,,,,,,0,64,64
205824,note_off,,0,0,1,,,,,,0,58,64
205824,note_on,,0,0,1,,,,,,0,66,92
205824,note_off,,384,0,1,,,,,,0,67,64
205872,note_off,,48,0,1,,,,,,0,66,64
205872,note_on,,0,0,1,,,,,,0,62,92
205920,note_on,,96,0,2,,,,,,0,57,92
205920,note_off,,48,0,1,,,,,,0,62,64
205968,note_on,,0,0,2,,,,,,0,50,92
205968,note_off,,48,0,2,,,,,,0,57,64
206016,note_on,,96,0,1,,,,,,0,66,92
206016,note_off,,48,0,2,,,,,,0,50,64
206064,note_on,,0,0,1,,,,,,0,62,92
206064,note_off,,48,0,1,,,,,,0,66,64
206112,note_off,,48,0,1,,,,,,0,62,64
206112,note_on,,96,0,2,,,,,,0,57,92
206160,note_on,,0,0,2,,,,,,0,50,92
206160,note_off,,48,0,2,,,,,,0,57,64
206208,note_off,,48,0,2,,,,,,0,50,64
206208,note_on,,96,0,1,,,,,,0,67,92
206256,note_on,,0,0,1,,,,,,0,62,92
206256,note_off,,48,0,1,,,,,,0,67,64
206304,note_on,,96,0,2,,,,,,0,59,92
206304,note_off,,48,0,1,,,,,,0,62,64
206352,note_off,,48,0,2,,,,,,0,59,64
206352,note_on,,0,0,2,,,,,,0,50,92
206400,note_on,,96,0,1,,,,,,0,67,92
206400,note_off,,48,0,2,,,,,,0,50,64
206448,note_off,,48,0,1,,,,,,0,67,64
206448,note_on,,0,0,1,,,,,,0,62,92
206496,note_off,,48,0,1,,,,,,0,62,64
206496,note_on,,96,0,2,,,,,,0,59,92
206544,note_on,,0,0,2,,,,,,0,50,92
206544,note_off,,48,0,2,,,,,,0,59,64
206592,note_on,,96,0,1,,,,,,0,62,92
206592,note_off,,48,0,2,,,,,,0,50,64
206640,note_on,,0,0,1,,,,,,0,57,92
206640,note_off,,48,0,1,,,,,,0,62,64
206688,note_on,,96,0,2,,,,,,0,54,92
206688,note_off,,48,0,1,,,,,,0,57,64
206736,note_on,,0,0,2,,,,,,0,50,92
206736,note_off,,48,0,2,,,,,,0,54,64
206784,note_on,,96,0,1,,,,,,0,62,92
206784,note_off,,48,0,2,,,,,,0,50,64
206832,note_off,,48,0,1,,,,,,0,62,64
206832,note_on,,0,0,1,,,,,,0,57,92
206880,note_off,,48,0,1,,,,,,0,57,64
206880,note_on,,96,0,2,,,,,,0,54,92
206928,note_off,,48,0,2,,,,,,0,54,64
206928,note_on,,0,0,2,,,,,,0,50,92
206976,note_on,,96,0,1,,,,,,0,62,92
206976,note_off,,48,0,2,,,,,,0,50,64
207024,note_off,,48,0,1,,,,,,0,62,64
207024,note_on,,0,0,1,,,,,,0,59,92
207072,note_off,,48,0,1,,,,,,0,59,64
207072,note_on,,96,0,2,,,,,,0,55,92
207120,note_off,,48,0,2,,,,,,0,55,64
207120,note_on,,0,0,2,,,,,,0,50,92
207168,note_on,,96,0,1,,,,,,0,62,92
207168,note_off,,48,0,2,,,,,,0,50,64
207216,note_on,,0,0,1,,,,,,0,59,92
207216,note_off,,48,0,1,,,,,,0,62,64
207264,note_off,,48,0,1,,,,,,0,59,64
207264,note_on,,96,0,2,,,,,,0,55,92
207312,note_off,,48,0,2,,,,,,0,55,64
207312,note_on,,0,0,2,,,,,,0,50,92
207360,note_off,,48,0,2,,,,,,0,50,64
207360,note_on,,96,0,1,,,,,,0,78,92
207408,note_off,,48,0,1,,,,,,0,78,64
207408,note_on,,0,0,1,,,,,,0,74,92
207456,note_off,,48,0,1,,,,,,0,74,64
207456,note_on,,0,0,1,,,,,,0,69,92
207504,note_on,,0,0,1,,,,,,0,62,92
207504,note_off,,48,0,1,,,,,,0,69,64
207552,note_on,,0,0,1,,,,,,0,78,92
207552,note_off,,48,0,1,,,,,,0,62,64
207600,note_on,,0,0,1,,,,,,0,74,92
207600,note_off,,48,0,1,,,,,,0,78,64
207648,note_off,,48,0,1,,,,,,0,74,64
207648,note_on,,0,0,1,,,,,,0,69,92
207696,note_off,,48,0,1,,,,,,0,69,64
207696,note_on,,0,0,1,,,,,,0,62,92
207744,note_off,,48,0,1,,,,,,0,62,64
207744,note_on,,0,0,1,,,,,,0,79,92
207792,note_off,,48,0,1,,,,,,0,79,64
207792,note_on,,0,0,1,,,,,,0,74,92
207840,note_off,,48,0,1,,,,,,0,74,64
207840,note_on,,0,0,1,,,,,,0,71,92
207888,note_on,,0,0,1,,,,,,0,62,92
207888,note_off,,48,0,1,,,,,,0,71,64
207936,note_off,,48,0,1,,,,,,0,62,64
207936,note_on,,0,0,1,,,,,,0,79,92
207984,note_off,,48,0,1,,,,,,0,79,64
207984,note_on,,0,0,1,,,,,,0,74,92
208032,note_on,,0,0,1,,,,,,0,71,92
208032,note_off,,48,0,1,,,,,,0,74,64
208080,note_on,,0,0,1,,,,,,0,62,92
208080,note_off,,48,0,1,,,,,,0,71,64
208128,note_off,,48,0,1,,,,,,0,62,64
208128,note_on,,0,0,1,,,,,,0,74,92
208176,note_off,,48,0,1,,,,,,0,74,64
208176,note_on,,0,0,1,,,,,,0,69,92
208224,note_off,,48,0,1,,,,,,0,69,64
208224,note_on,,0,0,1,,,,,,0,66,92
208272,note_off,,48,0,1,,,,,,0,66,64
208272,note_on,,0,0,1,,,,,,0,62,92
208320,note_off,,48,0,1,,,,,,0,62,64
208320,note_on,,0,0,1,,,,,,0,74,92
208368,note_off,,48,0,1,,,,,,0,74,64
208368,note_on,,0,0,1,,,,,,0,69,92
208416,note_on,,0,0,1,,,,,,0,66,92
208416,note_off,,48,0,1,,,,,,0,69,64
208464,note_off,,48,0,1,,,,,,0,66,64
208464,note_on,,0,0,1,,,,,,0,62,92
208512,note_off,,48,0,1,,,,,,0,62,64
208512,note_on,,0,0,1,,,,,,0,74,92
208560,note_off,,48,0,1,,,,,,0,74,64
208560,note_on,,0,0,1,,,,,,0,71,92
208608,note_on,,0,0,1,,,,,,0,67,92
208608,note_off,,48,0,1,,,,,,0,71,64
208656,note_on,,0,0,1,,,,,,0,62,92
208656,note_off,,48,0,1,,,,,,0,67,64
208704,note_off,,48,0,1,,,,,,0,62,64
208704,note_on,,0,0,1,,,,,,0,74,92
208752,note_off,,48,0,1,,,,,,0,74,64
208752,note_on,,0,0,1,,,,,,0,71,92
208800,note_off,,48,0,1,,,,,,0,71,64
208800,note_on,,0,0,1,,,,,,0,67,92
208848,note_off,,48,0,1,,,,,,0,67,64
208848,note_on,,0,0,1,,,,,,0,62,92
208896,note_on,,0,0,1,,,,,,0,66,92
208896,note_off,,48,0,1,,,,,,0,62,64
208944,note_off,,48,0,1,,,,,,0,66,64
208944,note_on,,0,0,1,,,,,,0,62,92
208992,note_off,,48,0,1,,,,,,0,62,64
208992,note_on,,1632,0,2,,,,,,0,57,92
209040,note_off,,48,0,2,,,,,,0,57,64
209040,note_on,,0,0,2,,,,,,0,50,92
209088,note_off,,48,0,2,,,,,,0,50,64
209088,note_on,,96,0,1,,,,,,0,66,92
209136,note_off,,48,0,1,,,,,,0,66,64
209136,note_on,,0,0,1,,,,,,0,62,92
209184,note_on,,96,0,2,,,,,,0,57,92
209184,note_off,,48,0,1,,,,,,0,62,64
209232,note_on,,0,0,2,,,,,,0,50,92
209232,note_off,,48,0,2,,,,,,0,57,64
209280,note_on,,96,0,1,,,,,,0,67,92
209280,note_off,,48,0,2,,,,,,0,50,64
209328,note_off,,48,0,1,,,,,,0,67,64
209328,note_on,,0,0,1,,,,,,0,62,92
209376,note_on,,96,0,2,,,,,,0,59,92
209376,note_off,,48,0,1,,,,,,0,62,64
209424,note_on,,0,0,2,,,,,,0,50,92
209424,note_off,,48,0,2,,,,,,0,59,64
209472,note_off,,48,0,2,,,,,,0,50,64
209472,note_on,,96,0,1,,,,,,0,67,92
209520,note_on,,0,0,1,,,,,,0,62,92
209520,note_off,,48,0,1,,,,,,0,67,64
209568,note_on,,96,0,2,,,,,,0,59,92
209568,note_off,,48,0,1,,,,,,0,62,64
209616,note_on,,0,0,2,,,,,,0,50,92
209616,note_off,,48,0,2,,,,,,0,59,64
209664,note_on,,96,0,1,,,,,,0,67,92
209664,note_off,,48,0,2,,,,,,0,50,64
209712,note_on,,0,0,1,,,,,,0,62,92
209712,note_off,,48,0,1,,,,,,0,67,64
209760,note_on,,96,0,2,,,,,,0,58,92
209760,note_off,,48,0,1,,,,,,0,62,64
209808,note_on,,0,0,2,,,,,,0,50,92
209808,note_off,,48,0,2,,,,,,0,58,64
209856,note_on,,96,0,1,,,,,,0,67,92
209856,note_off,,48,0,2,,,,,,0,50,64
209904,note_on,,0,0,1,,,,,,0,62,92
209904,note_off,,48,0,1,,,,,,0,67,64
209952,note_on,,96,0,2,,,,,,0,58,92
209952,note_off,,48,0,1,,,,,,0,62,64
210000,note_on,,0,0,2,,,,,,0,50,92
210000,note_off,,48,0,2,,,,,,0,58,64
210048,note_off,,48,0,2,,,,,,0,50,64
210048,note_on,,96,0,1,,,,,,0,67,92
210096,note_on,,0,0,1,,,,,,0,62,92
210096,note_off,,48,0,1,,,,,,0,67,64
210144,note_off,,48,0,1,,,,,,0,62,64
210144,note_on,,96,0,2,,,,,,0,57,92
210192,note_off,,48,0,2,,,,,,0,57,64
210192,note_on,,0,0,2,,,,,,0,50,92
210240,note_on,,96,0,1,,,,,,0,66,92
210240,note_off,,48,0,2,,,,,,0,50,64
210288,note_off,,48,0,1,,,,,,0,66,64
210288,note_on,,0,0,1,,,,,,0,60,92
210336,note_on,,96,0,2,,,,,,0,57,92
210336,note_off,,48,0,1,,,,,,0,60,64
210384,note_on,,0,0,2,,,,,,0,50,92
210384,note_off,,48,0,2,,,,,,0,57,64
210432,note_on,,96,0,1,,,,,,0,62,92
210432,note_off,,4608,0,3,,,,,,0,50,64
210432,note_on,,0,0,3,,,,,,0,43,102
210432,note_off,,48,0,2,,,,,,0,50,64
210432,note_on,,0,0,2,,,,,,0,55,92
210480,note_off,,48,0,1,,,,,,0,62,64
210480,note_on,,0,0,1,,,,,,0,67,92
210528,note_off,,96,0,2,,,,,,0,55,64
210528,note_off,,48,0,1,,,,,,0,67,64
210528,note_on,,0,0,1,,,,,,0,66,92
210576,note_on,,0,0,1,,,,,,0,64,92
210576,note_off,,48,0,1,,,,,,0,66,64
210624,note_on,,0,0,1,,,,,,0,62,92
210624,note_off,,48,0,1,,,,,,0,64,64
210672,note_on,,144,0,2,,,,,,0,60,92
210672,note_off,,48,0,1,,,,,,0,62,64
210720,note_off,,48,0,2,,,,,,0,60,64
210720,note_on,,0,0,2,,,,,,0,59,92
210768,note_on,,0,0,2,,,,,,0,57,92
210768,note_off,,48,0,2,,,,,,0,59,64
210816,note_on,,0,0,2,,,,,,0,55,92
210816,note_off,,48,0,2,,,,,,0,57,64
210864,note_off,,48,0,2,,,,,,0,55,64
210864,note_on,,192,0,1,,,,,,0,74,92
210912,note_off,,48,0,1,,,,,,0,74,64
210912,note_on,,0,0,1,,,,,,0,72,92
210960,note_off,,48,0,1,,,,,,0,72,64
210960,note_on,,0,0,1,,,,,,0,71,92
211008,note_off,,48,0,1,,,,,,0,71,64
211008,note_on,,0,0,1,,,,,,0,69,92
211056,note_off,,48,0,1,,,,,,0,69,64
211056,note_on,,0,0,1,,,,,,0,67,92
211104,note_off,,48,0,1,,,,,,0,67,64
211104,note_on,,0,0,1,,,,,,0,66,92
211152,note_off,,48,0,1,,,,,,0,66,64
211152,note_on,,0,0,1,,,,,,0,64,92
211200,note_off,,48,0,1,,,,,,0,64,64
211200,note_on,,0,0,1,,,,,,0,62,92
211248,note_off,,48,0,1,,,,,,0,62,64
211248,note_on,,0,0,1,,,,,,0,79,92
211296,note_off,,48,0,1,,,,,,0,79,64
211296,note_on,,0,0,1,,,,,,0,78,92
211344,note_off,,48,0,1,,,,,,0,78,64
211344,note_on,,0,0,1,,,,,,0,76,92
211392,note_off,,48,0,1,,,,,,0,76,64
211392,note_on,,0,0,1,,,,,,0,74,92
211440,note_on,,0,0,1,,,,,,0,72,92
211440,note_off,,48,0,1,,,,,,0,74,64
211488,note_on,,0,0,1,,,,,,0,71,92
211488,note_off,,48,0,1,,,,,,0,72,64
211536,note_on,,0,0,1,,,,,,0,69,92
211536,note_off,,48,0,1,,,,,,0,71,64
211584,note_on,,0,0,1,,,,,,0,67,92
211584,note_off,,48,0,1,,,,,,0,69,64
211632,note_on,,0,0,1,,,,,,0,67,92
211632,note_off,,48,0,1,,,,,,0,67,64
211680,note_on,,0,0,1,,,,,,0,66,92
211680,note_off,,48,0,1,,,,,,0,67,64
211728,note_on,,0,0,1,,,,,,0,64,92
211728,note_off,,48,0,1,,,,,,0,66,64
211776,note_off,,48,0,1,,,,,,0,64,64
211776,note_on,,0,0,1,,,,,,0,62,92
211824,note_on,,960,0,2,,,,,,0,60,92
211824,note_off,,48,0,1,,,,,,0,62,64
211872,note_off,,48,0,2,,,,,,0,60,64
211872,note_on,,0,0,2,,,,,,0,59,92
211920,note_off,,48,0,2,,,,,,0,59,64
211920,note_on,,0,0,2,,,,,,0,57,92
211968,note_off,,48,0,2,,,,,,0,57,64
211968,note_on,,144,0,1,,,,,,0,67,92
212016,note_on,,0,0,1,,,,,,0,62,92
212016,note_off,,48,0,1,,,,,,0,67,64
212064,note_off,,48,0,1,,,,,,0,62,64
212064,note_on,,96,0,2,,,,,,0,59,92
212112,note_off,,48,0,2,,,,,,0,59,64
212112,note_on,,0,0,2,,,,,,0,55,92
212160,note_on,,96,0,1,,,,,,0,67,92
212160,note_off,,48,0,2,,,,,,0,55,64
212208,note_on,,0,0,1,,,,,,0,62,92
212208,note_off,,48,0,1,,,,,,0,67,64
212256,note_off,,48,0,1,,,,,,0,62,64
212256,note_on,,96,0,2,,,,,,0,59,92
212304,note_on,,0,0,2,,,,,,0,55,92
212304,note_off,,48,0,2,,,,,,0,59,64
212352,note_on,,96,0,1,,,,,,0,67,92
212352,note_off,,48,0,2,,,,,,0,55,64
212400,note_on,,0,0,1,,,,,,0,64,92
212400,note_off,,48,0,1,,,,,,0,67,64
212448,note_off,,48,0,1,,,,,,0,64,64
212448,note_on,,96,0,2,,,,,,0,60,92
212496,note_off,,48,0,2,,,,,,0,60,64
212496,note_on,,0,0,2,,,,,,0,55,92
212544,note_on,,96,0,1,,,,,,0,67,92
212544,note_off,,48,0,2,,,,,,0,55,64
212592,note_on,,0,0,1,,,,,,0,64,92
212592,note_off,,48,0,1,,,,,,0,67,64
212640,note_off,,48,0,1,,,,,,0,64,64
212640,note_on,,96,0,2,,,,,,0,60,92
212688,note_off,,48,0,2,,,,,,0,60,64
212688,note_on,,0,0,2,,,,,,0,55,92
212736,note_on,,96,0,1,,,,,,0,71,92
212736,note_off,,48,0,2,,,,,,0,55,64
212784,note_on,,0,0,1,,,,,,0,67,92
212784,note_off,,48,0,1,,,,,,0,71,64
212832,note_off,,48,0,1,,,,,,0,67,64
212832,note_on,,96,0,2,,,,,,0,62,92
212880,note_on,,0,0,2,,,,,,0,55,92
212880,note_off,,48,0,2,,,,,,0,62,64
212928,note_off,,48,0,2,,,,,,0,55,64
212928,note_on,,96,0,1,,,,,,0,71,92
212976,note_on,,0,0,1,,,,,,0,67,92
212976,note_off,,48,0,1,,,,,,0,71,64
213024,note_on,,96,0,2,,,,,,0,62,92
213024,note_off,,48,0,1,,,,,,0,67,64
213072,note_on,,0,0,2,,,,,,0,55,92
213072,note_off,,48,0,2,,,,,,0,62,64
213120,note_on,,96,0,1,,,,,,0,72,92
213120,note_off,,48,0,2,,,,,,0,55,64
213168,note_off,,48,0,1,,,,,,0,72,64
213168,note_on,,0,0,1,,,,,,0,67,92
213216,note_on,,96,0,2,,,,,,0,64,92
213216,note_off,,48,0,1,,,,,,0,67,64
213264,note_on,,0,0,2,,,,,,0,55,92
213264,note_off,,48,0,2,,,,,,0,64,64
213312,note_on,,96,0,1,,,,,,0,72,92
213312,note_off,,48,0,2,,,,,,0,55,64
213360,note_off,,48,0,1,,,,,,0,72,64
213360,note_on,,0,0,1,,,,,,0,67,92
213408,note_on,,96,0,2,,,,,,0,64,92
213408,note_off,,48,0,1,,,,,,0,67,64
213456,note_off,,48,0,2,,,,,,0,64,64
213456,note_on,,0,0,2,,,,,,0,55,92
213504,note_off,,48,0,2,,,,,,0,55,64
213504,note_on,,96,0,1,,,,,,0,79,92
213552,note_off,,48,0,1,,,,,,0,79,64
213552,note_on,,0,0,1,,,,,,0,74,92
213600,note_off,,48,0,1,,,,,,0,74,64
213600,note_on,,0,0,1,,,,,,0,71,92
213648,note_off,,48,0,1,,,,,,0,71,64
213648,note_on,,0,0,1,,,,,,0,67,92
213696,note_off,,48,0,1,,,,,,0,67,64
213696,note_on,,0,0,1,,,,,,0,79,92
213744,note_on,,0,0,1,,,,,,0,74,92
213744,note_off,,48,0,1,,,,,,0,79,64
213792,note_on,,0,0,1,,,,,,0,71,92
213792,note_off,,48,0,1,,,,,,0,74,64
213840,note_on,,0,0,1,,,,,,0,67,92
213840,note_off,,48,0,1,,,,,,0,71,64
213888,note_off,,48,0,1,,,,,,0,67,64
213888,note_on,,0,0,1,,,,,,0,79,92
213936,note_on,,0,0,1,,,,,,0,76,92
213936,note_off,,48,0,1,,,,,,0,79,64
213984,note_off,,48,0,1,,,,,,0,76,64
213984,note_on,,0,0,1,,,,,,0,72,92
214032,note_off,,48,0,1,,,,,,0,72,64
214032,note_on,,0,0,1,,,,,,0,67,92
214080,note_off,,48,0,1,,,,,,0,67,64
214080,note_on,,0,0,1,,,,,,0,79,92
214128,note_off,,48,0,1,,,,,,0,79,64
214128,note_on,,0,0,1,,,,,,0,76,92
214176,note_on,,0,0,1,,,,,,0,72,92
214176,note_off,,48,0,1,,,,,,0,76,64
214224,note_on,,0,0,1,,,,,,0,67,92
214224,note_off,,48,0,1,,,,,,0,72,64
214272,note_off,,48,0,1,,,,,,0,67,64
214272,note_on,,0,0,1,,,,,,0,71,92
214320,note_off,,48,0,1,,,,,,0,71,64
214320,note_on,,0,0,1,,,,,,0,67,92
214368,note_off,,48,0,1,,,,,,0,67,64
214368,note_on,,0,0,1,,,,,,0,62,92
214416,note_on,,0,0,1,,,,,,0,55,92
214416,note_off,,48,0,1,,,,,,0,62,64
214464,note_on,,0,0,1,,,,,,0,71,92
214464,note_off,,48,0,1,,,,,,0,55,64
214512,note_off,,48,0,1,,,,,,0,71,64
214512,note_on,,0,0,1,,,,,,0,67,92
214560,note_off,,48,0,1,,,,,,0,67,64
214560,note_on,,0,0,1,,,,,,0,62,92
214608,note_on,,0,0,1,,,,,,0,55,92
214608,note_off,,48,0,1,,,,,,0,62,64
214656,note_on,,0,0,1,,,,,,0,72,92
214656,note_off,,48,0,1,,,,,,0,55,64
214704,note_on,,0,0,1,,,,,,0,67,92
214704,note_off,,48,0,1,,,,,,0,72,64
214752,note_off,,48,0,1,,,,,,0,67,64
214752,note_on,,0,0,1,,,,,,0,64,92
214800,note_off,,48,0,1,,,,,,0,64,64
214800,note_on,,0,0,1,,,,,,0,55,92
214848,note_on,,0,0,1,,,,,,0,72,92
214848,note_off,,48,0,1,,,,,,0,55,64
214896,note_off,,48,0,1,,,,,,0,72,64
214896,note_on,,0,0,1,,,,,,0,67,92
214944,note_on,,0,0,1,,,,,,0,64,92
214944,note_off,,48,0,1,,,,,,0,67,64
214992,note_off,,48,0,1,,,,,,0,64,64
214992,note_on,,0,0,1,,,,,,0,55,92
215040,note_on,,0,0,1,,,,,,0,72,92
215040,note_off,,48,0,1,,,,,,0,55,64
215088,note_off,,48,0,1,,,,,,0,72,64
215088,note_on,,0,0,1,,,,,,0,67,92
215136,note_off,,48,0,1,,,,,,0,67,64
215136,note_on,,0,0,1,,,,,,0,64,92
215184,note_off,,48,0,1,,,,,,0,64,64
215184,note_on,,0,0,1,,,,,,0,55,92
215232,note_off,,48,0,1,,,,,,0,55,64
215232,note_on,,0,0,1,,,,,,0,72,92
215280,note_off,,48,0,1,,,,,,0,72,64
215280,note_on,,0,0,1,,,,,,0,67,92
215328,note_on,,0,0,1,,,,,,0,64,92
215328,note_off,,48,0,1,,,,,,0,67,64
215376,note_on,,0,0,1,,,,,,0,55,92
215376,note_off,,48,0,1,,,,,,0,64,64
215424,note_on,,0,0,1,,,,,,0,72,92
215424,note_off,,48,0,1,,,,,,0,55,64
215472,note_off,,48,0,1,,,,,,0,72,64
215472,note_on,,0,0,1,,,,,,0,67,92
215520,note_on,,0,0,1,,,,,,0,63,92
215520,note_off,,48,0,1,,,,,,0,67,64
215568,note_off,,48,0,1,,,,,,0,63,64
215568,note_on,,0,0,1,,,,,,0,55,92
215616,note_off,,48,0,1,,,,,,0,55,64
215616,note_on,,0,0,1,,,,,,0,72,92
215664,note_off,,48,0,1,,,,,,0,72,64
215664,note_on,,0,0,1,,,,,,0,67,92
215712,note_on,,0,0,1,,,,,,0,63,92
215712,note_off,,48,0,1,,,,,,0,67,64
215760,note_off,,48,0,1,,,,,,0,63,64
215760,note_on,,0,0,1,,,,,,0,55,92
215808,note_off,,48,0,1,,,,,,0,55,64
215808,note_on,,0,0,1,,,,,,0,72,92
215856,note_on,,0,0,1,,,,,,0,65,92
215856,note_off,,48,0,1,,,,,,0,72,64
215904,note_on,,0,0,1,,,,,,0,62,92
215904,note_off,,48,0,1,,,,,,0,65,64
215952,note_on,,0,0,1,,,,,,0,55,92
215952,note_off,,48,0,1,,,,,,0,62,64
216000,note_on,,0,0,1,,,,,,0,72,92
216000,note_off,,48,0,1,,,,,,0,55,64
216048,note_on,,0,0,1,,,,,,0,65,92
216048,note_off,,48,0,1,,,,,,0,72,64
216096,note_off,,48,0,1,,,,,,0,65,64
216096,note_on,,0,0,1,,,,,,0,62,92
216144,note_off,,48,0,1,,,,,,0,62,64
216144,note_on,,0,0,1,,,,,,0,55,92
216192,note_off,,48,0,1,,,,,,0,55,64
216192,note_on,,0,0,1,,,,,,0,71,92
216240,note_on,,0,0,1,,,,,,0,65,92
216240,note_off,,48,0,1,,,,,,0,71,64
216288,note_off,,48,0,1,,,,,,0,65,64
216288,note_on,,0,0,1,,,,,,0,62,92
216336,note_off,,48,0,1,,,,,,0,62,64
216336,note_on,,0,0,1,,,,,,0,55,92
216384,note_on,,0,0,1,,,,,,0,71,92
216384,note_off,,48,0,1,,,,,,0,55,64
216432,note_on,,0,0,1,,,,,,0,65,92
216432,note_off,,48,0,1,,,,,,0,71,64
216480,note_on,,0,0,1,,,,,,0,62,92
216480,note_off,,48,0,1,,,,,,0,65,64
216528,note_off,,48,0,1,,,,,,0,62,64
216528,note_on,,0,0,1,,,,,,0,55,92
216576,note_off,,48,0,1,,,,,,0,55,64
216576,set_tempo,1200000,10752,1,0,,,,,,,,
216576,note_on,,0,0,3,,,,,,0,48,102
216576,note_off,,6144,0,3,,,,,,0,43,64
216576,note_on,,0,0,1,,,,,,0,64,92
216576,note_on,,0,0,1,,,,,,0,72,92
216576,note_on,,0,0,1,,,,,,0,67,92
216768,note_off,,192,0,1,,,,,,0,72,64
216768,note_off,,0,0,1,,,,,,0,64,64
216768,note_off,,0,0,1,,,,,,0,67,64
216912,note_on,,144,0,1,,,,,,0,79,92
216960,note_off,,48,0,1,,,,,,0,79,64
216960,note_on,,0,0,1,,,,,,0,79,92
217248,note_on,,0,0,1,,,,,,0,77,92
217248,note_off,,288,0,1,,,,,,0,79,64
217344,note_on,,0,0,1,,,,,,0,76,92
217344,note_off,,96,0,1,,,,,,0,77,64
217392,note_off,,48,0,1,,,,,,0,76,64
217392,note_on,,0,0,1,,,,,,0,77,92
217440,note_on,,0,0,1,,,,,,0,76,92
217440,note_off,,48,0,1,,,,,,0,77,64
217488,note_off,,48,0,1,,,,,,0,76,64
217488,note_on,,0,0,1,,,,,,0,77,92
217536,note_off,,48,0,1,,,,,,0,77,64
217536,note_on,,0,0,1,,,,,,0,76,92
217584,note_off,,48,0,1,,,,,,0,76,64
217584,note_on,,0,0,1,,,,,,0,77,92
217632,note_off,,48,0,1,,,,,,0,77,64
217632,note_on,,0,0,1,,,,,,0,76,92
217680,note_on,,0,0,1,,,,,,0,77,92
217680,note_off,,48,0,1,,,,,,0,76,64
217728,note_on,,0,0,1,,,,,,0,77,92
217728,note_off,,48,0,1,,,,,,0,77,64
217752,note_off,,24,0,1,,,,,,0,77,64
217752,note_on,,0,0,1,,,,,,0,76,92
217776,note_off,,24,0,1,,,,,,0,76,64
217776,note_on,,0,0,1,,,,,,0,77,92
217800,note_on,,0,0,1,,,,,,0,76,92
217800,note_off,,24,0,1,,,,,,0,77,64
217824,note_on,,0,0,1,,,,,,0,76,92
217824,note_off,,24,0,1,,,,,,0,76,64
217872,note_off,,48,0,1,,,,,,0,76,64
217872,note_on,,0,0,1,,,,,,0,77,92
217920,note_off,,48,0,1,,,,,,0,77,64
217920,note_on,,0,0,1,,,,,,0,79,92
218016,note_off,,96,0,1,,,,,,0,79,64
218016,note_on,,0,0,1,,,,,,0,76,92
218112,note_off,,96,0,1,,,,,,0,76,64
218112,note_on,,0,0,1,,,,,,0,72,92
218400,note_off,,288,0,1,,,,,,0,72,64
218400,note_on,,0,0,1,,,,,,0,74,92
218496,note_off,,96,0,1,,,,,,0,74,64
218496,note_on,,0,0,1,,,,,,0,72,92
218544,note_off,,48,0,1,,,,,,0,72,64
218544,note_on,,0,0,1,,,,,,0,74,92
218592,note_on,,0,0,1,,,,,,0,72,92
218592,note_off,,48,0,1,,,,,,0,74,64
218640,note_off,,48,0,1,,,,,,0,72,64
218640,note_on,,0,0,1,,,,,,0,74,92
218688,note_off,,48,0,1,,,,,,0,74,64
218688,note_on,,0,0,1,,,,,,0,72,92
218736,note_off,,48,0,1,,,,,,0,72,64
218736,note_on,,0,0,1,,,,,,0,74,92
218784,note_on,,0,0,1,,,,,,0,72,92
218784,note_off,,48,0,1,,,,,,0,74,64
218832,note_off,,48,0,1,,,,,,0,72,64
218832,note_on,,0,0,1,,,,,,0,74,92
218880,note_off,,48,0,1,,,,,,0,74,64
218880,note_on,,0,0,1,,,,,,0,74,92
218904,note_off,,24,0,1,,,,,,0,74,64
218904,note_on,,0,0,1,,,,,,0,72,92
218928,note_off,,24,0,1,,,,,,0,72,64
218928,note_on,,0,0,1,,,,,,0,74,92
218952,note_on,,0,0,1,,,,,,0,72,92
218952,note_off,,24,0,1,,,,,,0,74,64
218976,note_on,,0,0,1,,,,,,0,72,92
218976,note_off,,24,0,1,,,,,,0,72,64
219024,note_on,,0,0,1,,,,,,0,74,92
219024,note_off,,48,0,1,,,,,,0,72,64
219072,note_on,,0,0,1,,,,,,0,72,92
219072,note_off,,48,0,1,,,,,,0,74,64
219168,note_on,,0,0,1,,,,,,0,69,92
219168,note_off,,96,0,1,,,,,,0,72,64
219264,note_on,,0,0,1,,,,,,0,66,92
219264,note_off,,96,0,1,,,,,,0,69,64
219312,note_off,,48,0,1,,,,,,0,66,64
219312,note_on,,0,0,1,,,,,,0,62,92
219360,note_off,,48,0,1,,,,,,0,62,64
219360,note_on,,0,0,1,,,,,,0,64,92
219408,note_off,,48,0,1,,,,,,0,64,64
219408,note_on,,0,0,1,,,,,,0,66,92
219456,note_on,,0,0,1,,,,,,0,67,92
219456,note_off,,48,0,1,,,,,,0,66,64
219504,note_on,,0,0,1,,,,,,0,69,92
219504,note_off,,48,0,1,,,,,,0,67,64
219552,note_off,,48,0,1,,,,,,0,69,64
219552,note_on,,0,0,1,,,,,,0,71,92
219600,note_off,,48,0,1,,,,,,0,71,64
219600,note_on,,0,0,1,,,,,,0,72,92
219648,note_off,,48,0,1,,,,,,0,72,64
219648,note_on,,0,0,1,,,,,,0,66,92
219648,note_on,,0,0,1,,,,,,0,69,92
219648,note_on,,0,0,1,,,,,,0,74,92
220032,note_off,,384,0,1,,,,,,0,74,64
220032,note_off,,0,0,1,,,,,,0,69,64
220032,note_on,,0,0,1,,,,,,0,67,92
220032,note_on,,0,0,1,,,,,,0,74,92
220032,note_off,,0,0,1,,,,,,0,66,64
220032,note_off,,3456,0,3,,,,,,0,48,64
220032,note_on,,0,0,3,,,,,,0,47,102
220416,note_off,,384,0,3,,,,,,0,47,64
220416,note_on,,0,0,3,,,,,,0,45,102
220416,note_off,,384,0,1,,,,,,0,74,64
220416,note_on,,0,0,1,,,,,,0,69,92
220416,note_on,,0,0,1,,,,,,0,72,92
220512,note_off,,96,0,1,,,,,,0,67,64
220512,note_on,,0,0,1,,,,,,0,67,92
220608,note_off,,96,0,1,,,,,,0,67,64
220608,note_on,,0,0,1,,,,,,0,66,92
220704,note_on,,0,0,1,,,,,,0,64,92
220704,note_off,,96,0,1,,,,,,0,66,64
220800,note_on,,0,0,3,,,,,,0,38,102
220800,note_off,,384,0,3,,,,,,0,45,64
220800,note_off,,96,0,1,,,,,,0,64,64
220896,note_off,,96,0,1,,,,,,0,72,64
220896,note_on,,0,0,1,,,,,,0,72,92
220992,note_off,,96,0,1,,,,,,0,72,64
220992,note_on,,0,0,1,,,,,,0,71,92
221088,note_off,,96,0,1,,,,,,0,71,64
221088,note_off,,0,0,1,,,,,,0,69,64
221088,note_on,,0,0,1,,,,,,0,69,92
221184,note_on,,0,0,3,,,,,,0,43,102
221184,note_off,,96,0,1,,,,,,0,69,64
221184,note_off,,384,0,3,,,,,,0,38,64
221184,note_on,,0,0,1,,,,,,0,67,92
221184,note_on,,0,0,1,,,,,,0,71,92
221376,note_on,,192,0,1,,,,,,0,63,92
221568,note_off,,192,0,1,,,,,,0,63,64
221568,note_on,,0,0,1,,,,,,0,64,92
221760,note_off,,576,0,3,,,,,,0,43,64
221760,note_on,,0,0,3,,,,,,0,45,102
221952,note_on,,0,0,1,,,,,,0,71,92
221952,note_on,,0,0,1,,,,,,0,66,92
221952,note_off,,0,0,1,,,,,,0,67,64
221952,note_off,,192,0,3,,,,,,0,45,64
221952,note_on,,0,0,3,,,,,,0,47,102
221952,note_off,,384,0,1,,,,,,0,71,64
222144,note_on,,0,0,1,,,,,,0,63,92
222144,note_off,,192,0,1,,,,,,0,64,64
222240,note_off,,96,0,1,,,,,,0,63,64
222240,note_on,,0,0,1,,,,,,0,61,92
222336,note_off,,96,0,1,,,,,,0,61,64
222336,note_on,,0,0,1,,,,,,0,63,92
222528,note_on,,0,0,3,,,,,,0,45,102
222528,note_off,,576,0,3,,,,,,0,47,64
222720,note_off,,384,0,1,,,,,,0,63,64
222720,note_off,,0,0,1,,,,,,0,71,64
222720,note_off,,0,0,1,,,,,,0,66,64
222720,note_on,,0,0,1,,,,,,0,59,92
222720,note_on,,0,0,1,,,,,,0,64,92
222720,note_on,,0,0,1,,,,,,0,71,92
222720,note_on,,0,0,3,,,,,,0,44,102
222720,note_off,,192,0,3,,,,,,0,45,64
222912,note_off,,192,0,3,,,,,,0,44,64
222912,note_on,,0,0,3,,,,,,0,42,102
223104,note_on,,0,0,3,,,,,,0,44,102
223104,note_off,,192,0,3,,,,,,0,42,64
223296,note_on,,0,0,3,,,,,,0,40,102
223296,note_off,,192,0,3,,,,,,0,44,64
223488,note_on,,0,0,1,,,,,,0,69,92
223488,note_on,,0,0,1,,,,,,0,60,92
223488,note_off,,192,0,3,,,,,,0,40,64
223488,note_off,,0,0,1,,,,,,0,59,64
223488,note_off,,0,0,1,,,,,,0,64,64
223488,note_off,,768,0,1,,,,,,0,71,64
223488,note_on,,0,0,3,,,,,,0,45,102
223488,note_on,,0,0,1,,,,,,0,64,92
223680,note_off,,0,0,1,,,,,,0,64,64
223680,note_off,,0,0,1,,,,,,0,60,64
223680,note_off,,192,0,1,,,,,,0,69,64
223824,note_on,,144,0,1,,,,,,0,72,92
223872,note_off,,48,0,1,,,,,,0,72,64
223872,note_on,,0,0,1,,,,,,0,72,92
224160,note_on,,0,0,1,,,,,,0,71,92
224160,note_off,,288,0,1,,,,,,0,72,64
224256,note_off,,96,0,1,,,,,,0,71,64
224256,note_on,,0,0,1,,,,,,0,69,92
224304,note_off,,48,0,1,,,,,,0,69,64
224304,note_on,,0,0,1,,,,,,0,71,92
224352,note_off,,48,0,1,,,,,,0,71,64
224352,note_on,,0,0,1,,,,,,0,69,92
224400,note_off,,48,0,1,,,,,,0,69,64
224400,note_on,,0,0,1,,,,,,0,71,92
224448,note_off,,48,0,1,,,,,,0,71,64
224448,note_on,,0,0,1,,,,,,0,69,92
224496,note_on,,0,0,1,,,,,,0,71,92
224496,note_off,,48,0,1,,,,,,0,69,64
224544,note_on,,0,0,1,,,,,,0,69,92
224544,note_off,,48,0,1,,,,,,0,71,64
224592,note_off,,48,0,1,,,,,,0,69,64
224592,note_on,,0,0,1,,,,,,0,71,92
224640,note_off,,48,0,1,,,,,,0,71,64
224640,note_on,,0,0,1,,,,,,0,71,92
224664,note_off,,24,0,1,,,,,,0,71,64
224664,note_on,,0,0,1,,,,,,0,69,92
224688,note_on,,0,0,1,,,,,,0,71,92
224688,note_off,,24,0,1,,,,,,0,69,64
224712,note_off,,24,0,1,,,,,,0,71,64
224712,note_on,,0,0,1,,,,,,0,69,92
224736,note_off,,24,0,1,,,,,,0,69,64
224736,note_on,,0,0,1,,,,,,0,69,92
224784,note_off,,48,0,1,,,,,,0,69,64
224784,note_on,,0,0,1,,,,,,0,71,92
224832,note_off,,48,0,1,,,,,,0,71,64
224832,note_on,,0,0,1,,,,,,0,72,92
224928,note_off,,96,0,1,,,,,,0,72,64
224928,note_on,,0,0,1,,,,,,0,69,92
225024,note_off,,96,0,1,,,,,,0,69,64
225024,note_on,,0,0,1,,,,,,0,66,92
225312,note_on,,0,0,1,,,,,,0,67,92
225312,note_off,,288,0,1,,,,,,0,66,64
225408,note_off,,96,0,1,,,,,,0,67,64
225408,note_on,,0,0,1,,,,,,0,66,92
225456,note_off,,48,0,1,,,,,,0,66,64
225456,note_on,,0,0,1,,,,,,0,67,92
225504,note_off,,48,0,1,,,,,,0,67,64
225504,note_on,,0,0,1,,,,,,0,66,92
225552,note_off,,48,0,1,,,,,,0,66,64
225552,note_on,,0,0,1,,,,,,0,67,92
225600,note_off,,48,0,1,,,,,,0,67,64
225600,note_on,,0,0,1,,,,,,0,66,92
225648,note_on,,0,0,1,,,,,,0,67,92
225648,note_off,,48,0,1,,,,,,0,66,64
225696,note_on,,0,0,1,,,,,,0,66,92
225696,note_off,,48,0,1,,,,,,0,67,64
225744,note_on,,0,0,1,,,,,,0,67,92
225744,note_off,,48,0,1,,,,,,0,66,64
225792,note_on,,0,0,1,,,,,,0,67,92
225792,note_off,,48,0,1,,,,,,0,67,64
225816,note_on,,0,0,1,,,,,,0,66,92
225816,note_off,,24,0,1,,,,,,0,67,64
225840,note_off,,24,0,1,,,,,,0,66,64
225840,note_on,,0,0,1,,,,,,0,67,92
225864,note_on,,0,0,1,,,,,,0,66,92
225864,note_off,,24,0,1,,,,,,0,67,64
225888,note_on,,0,0,1,,,,,,0,66,92
225888,note_off,,24,0,1,,,,,,0,66,64
225936,note_on,,0,0,1,,,,,,0,67,92
225936,note_off,,48,0,1,,,,,,0,66,64
225984,note_off,,48,0,1,,,,,,0,67,64
225984,note_on,,0,0,1,,,,,,0,69,92
226080,note_off,,96,0,1,,,,,,0,69,64
226080,note_on,,0,0,1,,,,,,0,66,92
226176,note_off,,96,0,1,,,,,,0,66,64
226176,note_on,,0,0,1,,,,,,0,63,92
226224,note_off,,48,0,1,,,,,,0,63,64
226224,note_on,,0,0,1,,,,,,0,59,92
226272,note_off,,48,0,1,,,,,,0,59,64
226272,note_on,,0,0,1,,,,,,0,61,92
226320,note_off,,48,0,1,,,,,,0,61,64
226320,note_on,,0,0,1,,,,,,0,63,92
226368,note_off,,48,0,1,,,,,,0,63,64
226368,note_on,,0,0,1,,,,,,0,64,92
226416,note_off,,48,0,1,,,,,,0,64,64
226416,note_on,,0,0,1,,,,,,0,66,92
226464,note_off,,48,0,1,,,,,,0,66,64
226464,note_on,,0,0,1,,,,,,0,67,92
226512,note_off,,48,0,1,,,,,,0,67,64
226512,note_on,,0,0,1,,,,,,0,69,92
226560,note_off,,48,0,1,,,,,,0,69,64
226560,note_on,,0,0,1,,,,,,0,66,92
226560,note_on,,0,0,1,,,,,,0,63,92
226560,note_on,,0,0,1,,,,,,0,71,92
226944,note_on,,0,0,1,,,,,,0,71,92
226944,note_on,,0,0,1,,,,,,0,67,92
226944,note_on,,0,0,1,,,,,,0,64,92
226944,note_off,,0,0,1,,,,,,0,66,64
226944,note_off,,384,0,1,,,,,,0,71,64
226944,note_off,,0,0,1,,,,,,0,63,64
226944,note_on,,0,0,3,,,,,,0,43,102
226944,note_off,,3456,0,3,,,,,,0,45,64
227136,note_on,,0,0,3,,,,,,0,45,102
227136,note_off,,192,0,3,,,,,,0,43,64
227328,note_off,,384,0,1,,,,,,0,71,64
227328,note_off,,192,0,3,,,,,,0,45,64
227328,note_off,,0,0,1,,,,,,0,67,64
227328,note_on,,13824,0,2,,,,,,0,59,92
227328,note_off,,0,0,1,,,,,,0,64,64
227328,set_tempo,1090900,10752,1,0,,,,,,,,
227328,note_on,,0,0,1,,,,,,0,71,92
227328,note_on,,0,0,3,,,,,,0,47,102
227392,note_off,,64,0,1,,,,,,0,71,64
227392,note_on,,0,0,1,,,,,,0,66,92
227456,note_off,,64,0,1,,,,,,0,66,64
227456,note_on,,0,0,1,,,,,,0,63,92
227520,note_off,,64,0,1,,,,,,0,63,64
227520,note_on,,0,0,1,,,,,,0,71,92
227584,note_off,,64,0,1,,,,,,0,71,64
227584,note_on,,0,0,1,,,,,,0,66,92
227648,note_off,,64,0,1,,,,,,0,66,64
227648,note_on,,0,0,1,,,,,,0,63,92
227712,note_off,,64,0,1,,,,,,0,63,64
227712,note_on,,0,0,1,,,,,,0,71,92
227712,note_on,,0,0,2,,,,,,0,55,92
227712,note_off,,384,0,2,,,,,,0,59,64
227776,note_off,,64,0,1,,,,,,0,71,64
227776,note_on,,0,0,1,,,,,,0,67,92
227840,note_off,,64,0,1,,,,,,0,67,64
227840,note_on,,0,0,1,,,,,,0,64,92
227904,note_on,,0,0,1,,,,,,0,71,92
227904,note_off,,64,0,1,,,,,,0,64,64
227968,note_on,,0,0,1,,,,,,0,67,92
227968,note_off,,64,0,1,,,,,,0,71,64
228032,note_off,,64,0,1,,,,,,0,67,64
228032,note_on,,0,0,1,,,,,,0,64,92
228096,note_off,,64,0,1,,,,,,0,64,64
228096,note_on,,0,0,1,,,,,,0,75,92
228096,note_off,,384,0,2,,,,,,0,55,64
228096,note_on,,0,0,2,,,,,,0,54,92
228160,note_off,,64,0,1,,,,,,0,75,64
228160,note_on,,0,0,1,,,,,,0,71,92
228224,note_off,,64,0,1,,,,,,0,71,64
228224,note_on,,0,0,1,,,,,,0,66,92
228288,note_off,,64,0,1,,,,,,0,66,64
228288,note_on,,0,0,1,,,,,,0,75,92
228352,note_on,,0,0,1,,,,,,0,71,92
228352,note_off,,64,0,1,,,,,,0,75,64
228416,note_on,,0,0,1,,,,,,0,66,92
228416,note_off,,64,0,1,,,,,,0,71,64
228480,note_on,,0,0,1,,,,,,0,76,92
228480,note_off,,64,0,1,,,,,,0,66,64
228480,note_on,,0,0,2,,,,,,0,55,92
228480,note_off,,384,0,2,,,,,,0,54,64
228544,note_on,,0,0,1,,,,,,0,71,92
228544,note_off,,64,0,1,,,,,,0,76,64
228608,note_on,,0,0,1,,,,,,0,67,92
228608,note_off,,64,0,1,,,,,,0,71,64
228672,note_on,,0,0,1,,,,,,0,76,92
228672,note_off,,64,0,1,,,,,,0,67,64
228736,note_on,,0,0,1,,,,,,0,71,92
228736,note_off,,64,0,1,,,,,,0,76,64
228800,note_on,,0,0,1,,,,,,0,67,92
228800,note_off,,64,0,1,,,,,,0,71,64
228864,note_on,,0,0,1,,,,,,0,78,92
228864,note_off,,64,0,1,,,,,,0,67,64
228864,note_on,,0,0,2,,,,,,0,51,92
228864,note_off,,384,0,2,,,,,,0,55,64
228928,note_on,,0,0,1,,,,,,0,75,92
228928,note_off,,64,0,1,,,,,,0,78,64
228992,note_off,,64,0,1,,,,,,0,75,64
228992,note_on,,0,0,1,,,,,,0,71,92
229056,note_off,,64,0,1,,,,,,0,71,64
229056,note_on,,0,0,1,,,,,,0,78,92
229120,note_off,,64,0,1,,,,,,0,78,64
229120,note_on,,0,0,1,,,,,,0,75,92
229184,note_off,,64,0,1,,,,,,0,75,64
229184,note_on,,0,0,1,,,,,,0,71,92
229248,note_off,,384,0,2,,,,,,0,51,64
229248,note_on,,0,0,2,,,,,,0,52,92
229248,note_off,,64,0,1,,,,,,0,71,64
229248,note_on,,0,0,1,,,,,,0,79,92
229312,note_on,,0,0,1,,,,,,0,76,92
229312,note_off,,64,0,1,,,,,,0,79,64
229376,note_off,,64,0,1,,,,,,0,76,64
229376,note_on,,0,0,1,,,,,,0,71,92
229440,note_on,,0,0,1,,,,,,0,79,92
229440,note_off,,64,0,1,,,,,,0,71,64
229504,note_on,,0,0,1,,,,,,0,76,92
229504,note_off,,64,0,1,,,,,,0,79,64
229568,note_on,,0,0,1,,,,,,0,71,92
229568,note_off,,64,0,1,,,,,,0,76,64
229632,note_on,,0,0,2,,,,,,0,54,92
229632,note_off,,384,0,2,,,,,,0,52,64
229632,note_on,,0,0,1,,,,,,0,83,92
229632,note_off,,64,0,1,,,,,,0,71,64
229696,note_off,,64,0,1,,,,,,0,83,64
229696,note_on,,0,0,1,,,,,,0,78,92
229760,note_on,,0,0,1,,,,,,0,75,92
229760,note_off,,64,0,1,,,,,,0,78,64
229824,note_on,,0,0,1,,,,,,0,83,92
229824,note_off,,64,0,1,,,,,,0,75,64
229824,note_on,,0,0,2,,,,,,0,59,92
229824,note_off,,192,0,2,,,,,,0,54,64
229888,note_off,,64,0,1,,,,,,0,83,64
229888,note_on,,0,0,1,,,,,,0,78,92
229952,note_on,,0,0,1,,,,,,0,75,92
229952,note_off,,64,0,1,,,,,,0,78,64
230016,note_on,,0,0,2,,,,,,0,55,92
230016,note_off,,192,0,2,,,,,,0,59,64
230016,note_off,,64,0,1,,,,,,0,75,64
230016,note_on,,0,0,1,,,,,,0,83,92
230080,note_off,,64,0,1,,,,,,0,83,64
230080,note_on,,0,0,1,,,,,,0,79,92
230144,note_off,,64,0,1,,,,,,0,79,64
230144,note_on,,0,0,1,,,,,,0,76,92
230208,note_off,,64,0,1,,,,,,0,76,64
230208,note_on,,0,0,1,,,,,,0,83,92
230272,note_off,,64,0,1,,,,,,0,83,64
230272,note_on,,0,0,1,,,,,,0,79,92
230336,note_on,,0,0,1,,,,,,0,76,92
230336,note_off,,64,0,1,,,,,,0,79,64
230400,note_on,,0,0,2,,,,,,0,51,92
230400,note_off,,64,0,1,,,,,,0,76,64
230400,note_on,,0,0,1,,,,,,0,78,92
230400,note_off,,384,0,2,,,,,,0,55,64
230464,note_on,,0,0,1,,,,,,0,75,92
230464,note_off,,64,0,1,,,,,,0,78,64
230528,note_off,,64,0,1,,,,,,0,75,64
230528,note_on,,0,0,1,,,,,,0,71,92
230592,note_off,,64,0,1,,,,,,0,71,64
230592,note_on,,0,0,1,,,,,,0,78,92
230656,note_on,,0,0,1,,,,,,0,75,92
230656,note_off,,64,0,1,,,,,,0,78,64
230720,note_off,,64,0,1,,,,,,0,75,64
230720,note_on,,0,0,1,,,,,,0,71,92
230784,note_off,,384,0,2,,,,,,0,51,64
230784,note_on,,0,0,2,,,,,,0,52,92
230784,note_off,,64,0,1,,,,,,0,71,64
230784,note_on,,0,0,1,,,,,,0,79,92
230848,note_off,,64,0,1,,,,,,0,79,64
230848,note_on,,0,0,1,,,,,,0,76,92
230912,note_off,,64,0,1,,,,,,0,76,64
230912,note_on,,0,0,1,,,,,,0,71,92
230976,note_off,,64,0,1,,,,,,0,71,64
230976,note_on,,0,0,1,,,,,,0,79,92
231040,note_off,,64,0,1,,,,,,0,79,64
231040,note_on,,0,0,1,,,,,,0,76,92
231104,note_off,,64,0,1,,,,,,0,76,64
231104,note_on,,0,0,1,,,,,,0,71,92
231168,note_off,,384,0,2,,,,,,0,52,64
231168,note_off,,64,0,1,,,,,,0,71,64
231168,note_on,,0,0,1,,,,,,0,78,92
231168,note_on,,0,0,2,,,,,,0,54,92
231232,note_off,,64,0,1,,,,,,0,78,64
231232,note_on,,0,0,1,,,,,,0,75,92
231296,note_off,,64,0,1,,,,,,0,75,64
231296,note_on,,0,0,1,,,,,,0,71,92
231360,note_off,,64,0,1,,,,,,0,71,64
231360,note_on,,0,0,1,,,,,,0,78,92
231360,note_on,,0,0,2,,,,,,0,59,92
231360,note_off,,192,0,2,,,,,,0,54,64
231424,note_on,,0,0,1,,,,,,0,75,92
231424,note_off,,64,0,1,,,,,,0,78,64
231488,note_on,,0,0,1,,,,,,0,71,92
231488,note_off,,64,0,1,,,,,,0,75,64
231552,note_off,,192,0,2,,,,,,0,59,64
231552,note_on,,0,0,2,,,,,,0,55,92
231552,note_off,,64,0,1,,,,,,0,71,64
231552,note_on,,0,0,1,,,,,,0,79,92
231616,note_off,,64,0,1,,,,,,0,79,64
231616,note_on,,0,0,1,,,,,,0,76,92
231680,note_off,,64,0,1,,,,,,0,76,64
231680,note_on,,0,0,1,,,,,,0,71,92
231744,note_on,,0,0,1,,,,,,0,79,92
231744,note_off,,64,0,1,,,,,,0,71,64
231808,note_off,,64,0,1,,,,,,0,79,64
231808,note_on,,0,0,1,,,,,,0,76,92
231872,note_off,,64,0,1,,,,,,0,76,64
231872,note_on,,0,0,1,,,,,,0,71,92
231936,note_off,,384,0,2,,,,,,0,55,64
231936,note_on,,0,0,2,,,,,,0,51,92
231936,note_off,,64,0,1,,,,,,0,71,64
231936,note_on,,0,0,1,,,,,,0,78,92
232000,note_off,,64,0,1,,,,,,0,78,64
232000,note_on,,0,0,1,,,,,,0,75,92
232064,note_on,,0,0,1,,,,,,0,71,92
232064,note_off,,64,0,1,,,,,,0,75,64
232128,note_on,,0,0,1,,,,,,0,78,92
232128,note_off,,64,0,1,,,,,,0,71,64
232192,note_on,,0,0,1,,,,,,0,75,92
232192,note_off,,64,0,1,,,,,,0,78,64
232256,note_on,,0,0,1,,,,,,0,71,92
232256,note_off,,64,0,1,,,,,,0,75,64
232320,note_on,,0,0,2,,,,,,0,59,92
232320,note_off,,384,0,2,,,,,,0,51,64
232320,note_on,,0,0,1,,,,,,0,78,92
232320,note_off,,64,0,1,,,,,,0,71,64
232384,note_off,,64,0,1,,,,,,0,78,64
232384,note_on,,0,0,1,,,,,,0,75,92
232448,note_off,,64,0,1,,,,,,0,75,64
232448,note_on,,0,0,1,,,,,,0,69,92
232512,note_on,,0,0,1,,,,,,0,78,92
232512,note_off,,64,0,1,,,,,,0,69,64
232576,note_off,,64,0,1,,,,,,0,78,64
232576,note_on,,0,0,1,,,,,,0,75,92
232640,note_off,,64,0,1,,,,,,0,75,64
232640,note_on,,0,0,1,,,,,,0,69,92
232704,note_off,,384,0,2,,,,,,0,59,64
232704,note_off,,5376,0,3,,,,,,0,47,64
232704,note_on,,0,0,2,,,,,,0,59,92
232704,note_on,,0,0,3,,,,,,0,52,102
232704,note_on,,0,0,1,,,,,,0,76,92
232704,note_on,,0,0,1,,,,,,0,71,92
232704,note_on,,0,0,1,,,,,,0,68,92
232704,note_off,,64,0,1,,,,,,0,69,64
232896,note_off,,0,0,1,,,,,,0,71,64
232896,note_on,,0,0,1,,,,,,0,76,92
232896,note_off,,192,0,2,,,,,,0,59,64
232896,note_on,,0,0,2,,,,,,0,64,92
232896,note_off,,192,0,1,,,,,,0,76,64
232896,note_off,,0,0,1,,,,,,0,68,64
232960,note_on,,0,0,1,,,,,,0,71,92
232960,note_off,,64,0,1,,,,,,0,76,64
233024,note_off,,64,0,1,,,,,,0,71,64
233024,note_on,,0,0,1,,,,,,0,68,92
233088,note_on,,0,0,2,,,,,,0,60,92
233088,note_off,,192,0,2,,,,,,0,64,64
233088,note_on,,0,0,1,,,,,,0,76,92
233088,note_off,,64,0,1,,,,,,0,68,64
233152,note_off,,64,0,1,,,,,,0,76,64
233152,note_on,,0,0,1,,,,,,0,72,92
233216,note_on,,0,0,1,,,,,,0,69,92
233216,note_off,,64,0,1,,,,,,0,72,64
233280,note_off,,64,0,1,,,,,,0,69,64
233280,note_on,,0,0,1,,,,,,0,76,92
233344,note_on,,0,0,1,,,,,,0,72,92
233344,note_off,,64,0,1,,,,,,0,76,64
233408,note_off,,64,0,1,,,,,,0,72,64
233408,note_on,,0,0,1,,,,,,0,69,92
233472,note_on,,0,0,2,,,,,,0,56,92
233472,note_on,,0,0,1,,,,,,0,71,92
233472,note_off,,384,0,2,,,,,,0,60,64
233472,note_off,,64,0,1,,,,,,0,69,64
233536,note_on,,0,0,1,,,,,,0,68,92
233536,note_off,,64,0,1,,,,,,0,71,64
233600,note_on,,0,0,1,,,,,,0,64,92
233600,note_off,,64,0,1,,,,,,0,68,64
233664,note_on,,0,0,1,,,,,,0,71,92
233664,note_off,,64,0,1,,,,,,0,64,64
233728,note_off,,64,0,1,,,,,,0,71,64
233728,note_on,,0,0,1,,,,,,0,68,92
233792,note_on,,0,0,1,,,,,,0,64,92
233792,note_off,,64,0,1,,,,,,0,68,64
233856,note_off,,64,0,1,,,,,,0,64,64
233856,note_on,,0,0,1,,,,,,0,72,92
233856,note_off,,384,0,2,,,,,,0,56,64
233856,note_on,,0,0,2,,,,,,0,57,92
233920,note_on,,0,0,1,,,,,,0,69,92
233920,note_off,,64,0,1,,,,,,0,72,64
233984,note_on,,0,0,1,,,,,,0,64,92
233984,note_off,,64,0,1,,,,,,0,69,64
234048,note_on,,0,0,1,,,,,,0,72,92
234048,note_off,,64,0,1,,,,,,0,64,64
234112,note_on,,0,0,1,,,,,,0,69,92
234112,note_off,,64,0,1,,,,,,0,72,64
234176,note_on,,0,0,1,,,,,,0,64,92
234176,note_off,,64,0,1,,,,,,0,69,64
234240,note_off,,384,0,2,,,,,,0,57,64
234240,note_on,,0,0,2,,,,,,0,59,92
234240,note_on,,0,0,1,,,,,,0,76,92
234240,note_off,,64,0,1,,,,,,0,64,64
234304,note_off,,64,0,1,,,,,,0,76,64
234304,note_on,,0,0,1,,,,,,0,71,92
234368,note_off,,64,0,1,,,,,,0,71,64
234368,note_on,,0,0,1,,,,,,0,68,92
234432,note_on,,0,0,2,,,,,,0,64,92
234432,note_off,,192,0,2,,,,,,0,59,64
234432,note_on,,0,0,1,,,,,,0,76,92
234432,note_off,,64,0,1,,,,,,0,68,64
234496,note_on,,0,0,1,,,,,,0,71,92
234496,note_off,,64,0,1,,,,,,0,76,64
234560,note_off,,64,0,1,,,,,,0,71,64
234560,note_on,,0,0,1,,,,,,0,68,92
234624,note_off,,64,0,1,,,,,,0,68,64
234624,note_on,,0,0,1,,,,,,0,76,92
234624,note_off,,192,0,2,,,,,,0,64,64
234624,note_on,,0,0,2,,,,,,0,60,92
234688,note_off,,64,0,1,,,,,,0,76,64
234688,note_on,,0,0,1,,,,,,0,72,92
234752,note_on,,0,0,1,,,,,,0,69,92
234752,note_off,,64,0,1,,,,,,0,72,64
234816,note_off,,64,0,1,,,,,,0,69,64
234816,note_on,,0,0,1,,,,,,0,76,92
234880,note_off,,64,0,1,,,,,,0,76,64
234880,note_on,,0,0,1,,,,,,0,72,92
234944,note_off,,64,0,1,,,,,,0,72,64
234944,note_on,,0,0,1,,,,,,0,69,92
235008,note_off,,384,0,2,,,,,,0,60,64
235008,note_off,,64,0,1,,,,,,0,69,64
235008,note_on,,0,0,1,,,,,,0,80,92
235008,note_on,,0,0,2,,,,,,0,59,92
235072,note_off,,64,0,1,,,,,,0,80,64
235072,note_on,,0,0,1,,,,,,0,76,92
235136,note_off,,64,0,1,,,,,,0,76,64
235136,note_on,,0,0,1,,,,,,0,71,92
235200,note_on,,0,0,1,,,,,,0,80,92
235200,note_off,,64,0,1,,,,,,0,71,64
235264,note_on,,0,0,1,,,,,,0,76,92
235264,note_off,,64,0,1,,,,,,0,80,64
235328,note_off,,64,0,1,,,,,,0,76,64
235328,note_on,,0,0,1,,,,,,0,71,92
235392,note_off,,64,0,1,,,,,,0,71,64
235392,note_on,,0,0,1,,,,,,0,81,92
235392,note_on,,0,0,2,,,,,,0,57,92
235392,note_off,,384,0,2,,,,,,0,59,64
235456,note_off,,64,0,1,,,,,,0,81,64
235456,note_on,,0,0,1,,,,,,0,76,92
235520,note_off,,64,0,1,,,,,,0,76,64
235520,note_on,,0,0,1,,,,,,0,72,92
235584,note_on,,0,0,1,,,,,,0,81,92
235584,note_off,,64,0,1,,,,,,0,72,64
235648,note_off,,64,0,1,,,,,,0,81,64
235648,note_on,,0,0,1,,,,,,0,76,92
235712,note_off,,64,0,1,,,,,,0,76,64
235712,note_on,,0,0,1,,,,,,0,72,92
235776,note_on,,0,0,2,,,,,,0,56,92
235776,note_off,,384,0,2,,,,,,0,57,64
235776,note_off,,64,0,1,,,,,,0,72,64
235776,note_on,,0,0,1,,,,,,0,83,92
235840,note_off,,64,0,1,,,,,,0,83,64
235840,note_on,,0,0,1,,,,,,0,80,92
235904,note_off,,64,0,1,,,,,,0,80,64
235904,note_on,,0,0,1,,,,,,0,76,92
235968,note_off,,64,0,1,,,,,,0,76,64
235968,note_on,,0,0,1,,,,,,0,83,92
236032,note_on,,0,0,1,,,,,,0,80,92
236032,note_off,,64,0,1,,,,,,0,83,64
236096,note_off,,64,0,1,,,,,,0,80,64
236096,note_on,,0,0,1,,,,,,0,76,92
236160,note_on,,0,0,2,,,,,,0,57,92
236160,note_off,,64,0,1,,,,,,0,76,64
236160,note_on,,0,0,1,,,,,,0,84,92
236160,note_off,,384,0,2,,,,,,0,56,64
236224,note_off,,64,0,1,,,,,,0,84,64
236224,note_on,,0,0,1,,,,,,0,81,92
236288,note_off,,64,0,1,,,,,,0,81,64
236288,note_on,,0,0,1,,,,,,0,76,92
236352,note_off,,64,0,1,,,,,,0,76,64
236352,note_on,,0,0,1,,,,,,0,84,92
236416,note_off,,64,0,1,,,,,,0,84,64
236416,note_on,,0,0,1,,,,,,0,81,92
236480,note_on,,0,0,1,,,,,,0,76,92
236480,note_off,,64,0,1,,,,,,0,81,64
236544,note_off,,384,0,2,,,,,,0,57,64
236544,note_on,,0,0,2,,,,,,0,59,92
236544,note_off,,64,0,1,,,,,,0,76,64
236544,note_on,,0,0,1,,,,,,0,80,92
236608,note_on,,0,0,1,,,,,,0,76,92
236608,note_off,,64,0,1,,,,,,0,80,64
236672,note_on,,0,0,1,,,,,,0,71,92
236672,note_off,,64,0,1,,,,,,0,76,64
236736,note_on,,0,0,2,,,,,,0,64,92
236736,note_off,,64,0,1,,,,,,0,71,64
236736,note_on,,0,0,1,,,,,,0,80,92
236736,note_off,,192,0,2,,,,,,0,59,64
236800,note_off,,64,0,1,,,,,,0,80,64
236800,note_on,,0,0,1,,,,,,0,76,92
236864,note_off,,64,0,1,,,,,,0,76,64
236864,note_on,,0,0,1,,,,,,0,71,92
236928,note_off,,192,0,2,,,,,,0,64,64
236928,note_off,,64,0,1,,,,,,0,71,64
236928,note_on,,0,0,1,,,,,,0,81,92
236928,note_on,,0,0,2,,,,,,0,60,92
236992,note_off,,64,0,1,,,,,,0,81,64
236992,note_on,,0,0,1,,,,,,0,76,92
237056,note_off,,64,0,1,,,,,,0,76,64
237056,note_on,,0,0,1,,,,,,0,72,92
237120,note_off,,64,0,1,,,,,,0,72,64
237120,note_on,,0,0,1,,,,,,0,81,92
237184,note_on,,0,0,1,,,,,,0,76,92
237184,note_off,,64,0,1,,,,,,0,81,64
237248,note_off,,64,0,1,,,,,,0,76,64
237248,note_on,,0,0,1,,,,,,0,72,92
237312,note_off,,64,0,1,,,,,,0,72,64
237312,note_on,,0,0,1,,,,,,0,81,92
237312,note_on,,0,0,2,,,,,,0,59,92
237312,note_off,,384,0,2,,,,,,0,60,64
237376,note_on,,0,0,1,,,,,,0,74,92
237376,note_off,,64,0,1,,,,,,0,81,64
237440,note_off,,64,0,1,,,,,,0,74,64
237440,note_on,,0,0,1,,,,,,0,71,92
237504,note_off,,64,0,1,,,,,,0,71,64
237504,note_on,,0,0,1,,,,,,0,81,92
237568,note_on,,0,0,1,,,,,,0,74,92
237568,note_off,,64,0,1,,,,,,0,81,64
237632,note_on,,0,0,1,,,,,,0,71,92
237632,note_off,,64,0,1,,,,,,0,74,64
237696,note_on,,0,0,1,,,,,,0,80,92
237696,note_off,,64,0,1,,,,,,0,71,64
237696,note_off,,384,0,2,,,,,,0,59,64
237696,note_on,,0,0,2,,,,,,0,64,92
237760,note_off,,64,0,1,,,,,,0,80,64
237760,note_on,,0,0,1,,,,,,0,74,92
237824,note_off,,64,0,1,,,,,,0,74,64
237824,note_on,,0,0,1,,,,,,0,71,92
237888,note_off,,64,0,1,,,,,,0,71,64
237888,note_on,,0,0,1,,,,,,0,80,92
237952,note_on,,0,0,1,,,,,,0,74,92
237952,note_off,,64,0,1,,,,,,0,80,64
238016,note_on,,0,0,1,,,,,,0,71,92
238016,note_off,,64,0,1,,,,,,0,74,64
238080,note_on,,0,0,2,,,,,,0,64,92
238080,note_off,,64,0,1,,,,,,0,71,64
238080,note_on,,0,0,1,,,,,,0,72,92
238080,note_on,,0,0,2,,,,,,0,57,92
238080,note_off,,5376,0,3,,,,,,0,52,64
238080,note_on,,0,0,3,,,,,,0,45,102
238080,note_off,,384,0,2,,,,,,0,64,64
238128,note_off,,48,0,1,,,,,,0,72,64
238128,note_on,,0,0,1,,,,,,0,81,92
238176,note_on,,0,0,1,,,,,,0,79,92
238176,note_off,,48,0,1,,,,,,0,81,64
238176,note_off,,0,0,2,,,,,,0,57,64
238176,note_off,,96,0,2,,,,,,0,64,64
238224,note_on,,0,0,1,,,,,,0,77,92
238224,note_off,,48,0,1,,,,,,0,79,64
238272,note_off,,48,0,1,,,,,,0,77,64
238272,note_on,,0,0,1,,,,,,0,76,92
238320,note_off,,48,0,1,,,,,,0,76,64
238320,note_on,,0,0,1,,,,,,0,74,92
238368,note_off,,48,0,1,,,,,,0,74,64
238368,note_on,,0,0,1,,,,,,0,72,92
238416,note_off,,48,0,1,,,,,,0,72,64
238416,note_on,,0,0,1,,,,,,0,71,92
238464,note_off,,48,0,1,,,,,,0,71,64
238464,note_on,,0,0,1,,,,,,0,69,92
238512,note_on,,0,0,1,,,,,,0,69,92
238512,note_off,,48,0,1,,,,,,0,69,64
238560,note_on,,0,0,1,,,,,,0,67,92
238560,note_off,,48,0,1,,,,,,0,69,64
238608,note_off,,48,0,1,,,,,,0,67,64
238608,note_on,,0,0,1,,,,,,0,65,92
238656,note_on,,0,0,1,,,,,,0,64,92
238656,note_off,,48,0,1,,,,,,0,65,64
238704,note_on,,0,0,1,,,,,,0,62,92
238704,note_off,,48,0,1,,,,,,0,64,64
238752,note_on,,0,0,1,,,,,,0,60,92
238752,note_off,,48,0,1,,,,,,0,62,64
238800,note_on,,0,0,1,,,,,,0,59,92
238800,note_off,,48,0,1,,,,,,0,60,64
238848,note_on,,0,0,1,,,,,,0,57,92
238848,note_off,,48,0,1,,,,,,0,59,64
238896,note_off,,48,0,1,,,,,,0,57,64
238896,note_on,,0,0,1,,,,,,0,64,92
238944,note_on,,0,0,1,,,,,,0,62,92
238944,note_off,,48,0,1,,,,,,0,64,64
238992,note_on,,0,0,1,,,,,,0,60,92
238992,note_off,,48,0,1,,,,,,0,62,64
239040,note_on,,0,0,1,,,,,,0,59,92
239040,note_off,,48,0,1,,,,,,0,60,64
239088,note_on,,912,0,2,,,,,,0,57,92
239088,note_off,,48,0,1,,,,,,0,59,64
239136,note_off,,48,0,2,,,,,,0,57,64
239136,note_on,,0,0,2,,,,,,0,56,92
239184,note_off,,48,0,2,,,,,,0,56,64
239184,note_on,,0,0,2,,,,,,0,54,92
239232,note_on,,0,0,2,,,,,,0,52,92
239232,note_off,,48,0,2,,,,,,0,54,64
239280,note_off,,48,0,2,,,,,,0,52,64
239280,note_on,,0,0,2,,,,,,0,57,92
239328,note_on,,0,0,2,,,,,,0,55,92
239328,note_off,,48,0,2,,,,,,0,57,64
239376,note_off,,48,0,2,,,,,,0,55,64
239376,note_on,,0,0,2,,,,,,0,53,92
239424,note_off,,48,0,2,,,,,,0,53,64
239424,note_on,,0,0,2,,,,,,0,52,92
239472,note_off,,48,0,2,,,,,,0,52,64
239472,note_on,,0,0,2,,,,,,0,50,92
239520,note_off,,48,0,2,,,,,,0,50,64
239520,note_on,,0,0,2,,,,,,0,48,92
239568,note_off,,48,0,2,,,,,,0,48,64
239568,note_on,,0,0,2,,,,,,0,47,92
239616,note_off,,1536,0,3,,,,,,0,45,64
239616,set_tempo,1200000,12288,1,0,,,,,,,,
239616,note_on,,0,0,3,,,,,,0,45,102
239616,note_on,,528,0,1,,,,,,0,60,92
239616,note_on,,0,0,1,,,,,,0,69,92
239616,note_on,,0,0,1,,,,,,0,64,92
239616,note_off,,48,0,2,,,,,,0,47,64
239808,note_on,,0,0,3,,,,,,0,47,102
239808,note_off,,192,0,3,,,,,,0,45,64
240000,note_off,,192,0,3,,,,,,0,47,64
240000,note_on,,0,0,3,,,,,,0,48,102
240192,note_off,,192,0,3,,,,,,0,48,64
240192,note_on,,0,0,3,,,,,,0,45,102
240384,note_off,,192,0,3,,,,,,0,45,64
240384,note_on,,0,0,3,,,,,,0,38,102
240384,note_off,,768,0,1,,,,,,0,64,64
240384,note_off,,0,0,1,,,,,,0,60,64
240384,note_on,,0,0,1,,,,,,0,62,92
240384,note_on,,0,0,1,,,,,,0,65,92
240768,note_on,,0,0,1,,,,,,0,66,92
240768,note_on,,0,0,1,,,,,,0,69,92
240768,note_on,,0,0,3,,,,,,0,39,102
240768,note_off,,384,0,3,,,,,,0,38,64
240768,note_off,,384,0,1,,,,,,0,65,64
240768,note_off,,0,0,1,,,,,,0,62,64
240768,note_off,,0,0,1,,,,,,0,69,64
240768,note_on,,0,0,1,,,,,,0,60,92
241152,note_off,,384,0,3,,,,,,0,39,64
241152,note_on,,0,0,3,,,,,,0,40,102
241152,note_off,,0,0,1,,,,,,0,60,64
241152,note_off,,0,0,1,,,,,,0,69,64
241152,note_on,,0,0,1,,,,,,0,68,92
241152,note_on,,0,0,1,,,,,,0,64,92
241152,note_on,,0,0,1,,,,,,0,59,92
241152,note_off,,384,0,1,,,,,,0,66,64
241536,note_on,,0,0,1,,,,,,0,60,92
241536,note_on,,0,0,1,,,,,,0,69,92
241536,note_off,,0,0,1,,,,,,0,59,64
241536,note_off,,0,0,1,,,,,,0,64,64
241536,note_off,,384,0,1,,,,,,0,68,64
241536,note_on,,0,0,1,,,,,,0,64,92
241920,note_off,,384,0,1,,,,,,0,64,64
241920,note_off,,0,0,1,,,,,,0,60,64
241920,note_on,,0,0,1,,,,,,0,64,92
241920,note_on,,0,0,1,,,,,,0,59,92
242304,note_on,,0,0,1,,,,,,0,68,92
242304,note_off,,384,0,1,,,,,,0,69,64
242688,note_on,,0,0,3,,,,,,0,45,102
242688,note_on,,0,0,1,,,,,,0,64,92
242688,note_on,,0,0,1,,,,,,0,61,92
242688,note_off,,0,0,1,,,,,,0,59,64
242688,note_off,,0,0,1,,,,,,0,64,64
242688,note_off,,384,0,1,,,,,,0,68,64
242688,note_off,,1536,0,3,,,,,,0,40,64
242688,note_on,,0,0,1,,,,,,0,69,92
243072,note_off,,0,0,1,,,,,,0,64,64
243072,note_on,,0,0,1,,,,,,0,69,92
243072,note_on,,0,0,1,,,,,,0,65,92
243072,note_on,,0,0,1,,,,,,0,62,92
243072,note_off,,0,0,1,,,,,,0,61,64
243072,note_off,,384,0,1,,,,,,0,69,64
243456,note_on,,0,0,1,,,,,,0,64,92
243456,note_on,,0,0,1,,,,,,0,61,92
243456,note_off,,0,0,1,,,,,,0,65,64
243456,set_tempo,2000000,3840,1,0,,,,,,,,
243456,note_off,,384,0,1,,,,,,0,69,64
243456,note_on,,0,0,1,,,,,,0,69,92
243456,note_off,,0,0,1,,,,,,0,62,64
244224,note_off,,0,0,1,,,,,,0,61,64
244224,note_off,,1536,0,3,,,,,,0,45,64
244224,end_of_track,,4608,1,2,,,,,,,,
244224,end_of_track,,0,1,1,,,,,,,,
244224,note_off,,768,0,1,,,,,,0,69,64
244224,note_off,,0,0,1,,,,,,0,64,64
244224,end_of_track,,768,1,0,,,,,,,,
244224,end_of_track,,0,1,3,,,,,,,,
