tick,type,time,meta,track,numerator,denominator,clocks_per_click,notated_32nd_notes_per_beat,key,tempo,port,program,channel,control,value,note,velocity
0,track_name,0,1,0,,,,,,,,,,,,,
0,control_change,0,0,2,,,,,,,,,1,93,0,,
0,note_on,0,0,1,,,,,,,,,0,,,62,105
0,control_change,0,0,1,,,,,,,,,0,93,0,,
0,control_change,0,0,2,,,,,,,,,1,91,63,,
0,control_change,0,0,1,,,,,,,,,0,10,71,,
0,control_change,0,0,1,,,,,,,,,0,7,127,,
0,program_change,0,0,1,,,,,,,,0,0,,,,
0,track_name,0,1,1,,,,,,,,,,,,,
0,midi_port,0,1,1,,,,,,,0,,,,,,
0,control_change,0,0,2,,,,,,,,,1,10,55,,
0,control_change,0,0,2,,,,,,,,,1,7,127,,
0,program_change,0,0,2,,,,,,,,0,1,,,,
0,control_change,0,0,1,,,,,,,,,0,91,63,,
0,marker,0,1,0,,,,,,,,,,,,,
0,copyright,0,1,0,,,,,,,,,,,,,
0,track_name,0,1,2,,,,,,,,,,,,,
0,text,0,1,0,,,,,,,,,,,,,
0,text,0,1,0,,,,,,,,,,,,,
0,text,0,1,0,,,,,,,,,,,,,
0,text,0,1,0,,,,,,,,,,,,,
0,midi_port,0,1,2,,,,,,,0,,,,,,
0,text,0,1,0,,,,,,,,,,,,,
0,time_signature,0,1,0,3,8,12,8,,,,,,,,,
0,key_signature,0,1,0,,,,,F,,,,,,,,
0,set_tempo,0,1,0,,,,,,606061,,,,,,,
0,marker,0,1,0,,,,,,,,,,,,,
0,text,0,1,0,,,,,,,,,,,,,
46,note_on,46,0,1,,,,,,,,,0,,,62,0
48,note_on,2,0,1,,,,,,,,,0,,,61,105
94,note_on,46,0,1,,,,,,,,,0,,,61,0
96,note_on,2,0,1,,,,,,,,,0,,,62,105
142,note_on,46,0,1,,,,,,,,,0,,,62,0
144,note_on,2,0,1,,,,,,,,,0,,,57,105
190,note_on,46,0,1,,,,,,,,,0,,,57,0
192,note_on,2,0,1,,,,,,,,,0,,,62,105
238,note_on,46,0,1,,,,,,,,,0,,,62,0
240,note_on,2,0,1,,,,,,,,,0,,,65,105
286,note_on,46,0,1,,,,,,,,,0,,,65,0
288,note_on,2,0,1,,,,,,,,,0,,,64,105
334,note_on,46,0,1,,,,,,,,,0,,,64,0
336,note_on,2,0,1,,,,,,,,,0,,,62,105
382,note_on,46,0,1,,,,,,,,,0,,,62,0
384,note_on,2,0,1,,,,,,,,,0,,,64,105
430,note_on,46,0,1,,,,,,,,,0,,,64,0
432,note_on,2,0,1,,,,,,,,,0,,,57,105
478,note_on,46,0,1,,,,,,,,,0,,,57,0
480,note_on,2,0,1,,,,,,,,,0,,,64,105
526,note_on,46,0,1,,,,,,,,,0,,,64,0
528,note_on,2,0,1,,,,,,,,,0,,,67,105
574,note_on,46,0,1,,,,,,,,,0,,,67,0
576,note_on,2,0,1,,,,,,,,,0,,,65,105
576,note_on,576,0,2,,,,,,,,,1,,,50,105
622,note_on,46,0,2,,,,,,,,,1,,,50,0
624,note_on,2,0,2,,,,,,,,,1,,,49,105
670,note_on,46,0,2,,,,,,,,,1,,,49,0
672,note_on,96,0,1,,,,,,,,,0,,,65,0
672,note_on,0,0,1,,,,,,,,,0,,,69,105
672,note_on,2,0,2,,,,,,,,,1,,,50,105
704,note_on,32,0,1,,,,,,,,,0,,,69,0
718,note_on,46,0,2,,,,,,,,,1,,,50,0
720,note_on,2,0,2,,,,,,,,,1,,,45,105
766,note_on,46,0,2,,,,,,,,,1,,,45,0
768,note_on,64,0,1,,,,,,,,,0,,,69,105
768,note_on,2,0,2,,,,,,,,,1,,,50,105
800,note_on,32,0,1,,,,,,,,,0,,,69,0
814,note_on,46,0,2,,,,,,,,,1,,,50,0
816,note_on,2,0,2,,,,,,,,,1,,,53,105
862,note_on,46,0,2,,,,,,,,,1,,,53,0
864,note_on,2,0,2,,,,,,,,,1,,,52,105
864,note_on,64,0,1,,,,,,,,,0,,,69,105
886,note_on,22,0,1,,,,,,,,,0,,,69,0
888,note_on,2,0,1,,,,,,,,,0,,,67,105
910,note_on,46,0,2,,,,,,,,,1,,,52,0
910,note_on,22,0,1,,,,,,,,,0,,,67,0
912,note_on,2,0,1,,,,,,,,,0,,,69,105
912,note_on,2,0,2,,,,,,,,,1,,,50,105
958,note_on,46,0,2,,,,,,,,,1,,,50,0
960,note_on,2,0,2,,,,,,,,,1,,,52,105
1006,note_on,46,0,2,,,,,,,,,1,,,52,0
1008,note_on,2,0,2,,,,,,,,,1,,,45,105
1054,note_on,46,0,2,,,,,,,,,1,,,45,0
1056,note_on,2,0,2,,,,,,,,,1,,,52,105
1102,note_on,46,0,2,,,,,,,,,1,,,52,0
1104,note_on,2,0,2,,,,,,,,,1,,,55,105
1150,note_on,46,0,2,,,,,,,,,1,,,55,0
1152,note_on,2,0,2,,,,,,,,,1,,,53,105
1198,note_on,286,0,1,,,,,,,,,0,,,69,0
1200,note_on,2,0,1,,,,,,,,,0,,,70,105
1246,note_on,94,0,2,,,,,,,,,1,,,53,0
1246,note_on,46,0,1,,,,,,,,,0,,,70,0
1248,note_on,2,0,1,,,,,,,,,0,,,69,105
1248,note_on,2,0,2,,,,,,,,,1,,,50,105
1280,note_on,32,0,2,,,,,,,,,1,,,50,0
1294,note_on,46,0,1,,,,,,,,,0,,,69,0
1296,note_on,2,0,1,,,,,,,,,0,,,77,105
1342,note_on,46,0,1,,,,,,,,,0,,,77,0
1344,note_on,2,0,1,,,,,,,,,0,,,74,105
1344,note_on,64,0,2,,,,,,,,,1,,,53,105
1376,note_on,32,0,2,,,,,,,,,1,,,53,0
1390,note_on,46,0,1,,,,,,,,,0,,,74,0
1392,note_on,2,0,1,,,,,,,,,0,,,69,105
1438,note_on,46,0,1,,,,,,,,,0,,,69,0
1440,note_on,2,0,1,,,,,,,,,0,,,70,105
1440,note_on,64,0,2,,,,,,,,,1,,,55,105
1472,note_on,32,0,2,,,,,,,,,1,,,55,0
1486,note_on,46,0,1,,,,,,,,,0,,,70,0
1488,note_on,2,0,1,,,,,,,,,0,,,69,105
1534,note_on,46,0,1,,,,,,,,,0,,,69,0
1536,note_on,64,0,2,,,,,,,,,1,,,43,105
1536,note_on,2,0,1,,,,,,,,,0,,,70,105
1568,note_on,32,0,2,,,,,,,,,1,,,43,0
1582,note_on,46,0,1,,,,,,,,,0,,,70,0
1584,note_on,2,0,1,,,,,,,,,0,,,67,105
1630,note_on,46,0,1,,,,,,,,,0,,,67,0
1632,note_on,2,0,1,,,,,,,,,0,,,70,105
1678,note_on,46,0,1,,,,,,,,,0,,,70,0
1680,note_on,2,0,1,,,,,,,,,0,,,74,105
1726,note_on,46,0,1,,,,,,,,,0,,,74,0
1728,note_on,2,0,1,,,,,,,,,0,,,76,127
1728,note_on,0,0,1,,,,,,,,,0,,,76,105
1774,note_on,46,0,1,,,,,,,,,0,,,76,0
1774,note_on,0,0,1,,,,,,,,,0,,,76,0
1776,note_on,2,0,1,,,,,,,,,0,,,77,105
1822,note_on,46,0,1,,,,,,,,,0,,,77,0
1824,note_on,2,0,1,,,,,,,,,0,,,76,105
1824,note_on,256,0,2,,,,,,,,,1,,,48,105
1856,note_on,32,0,2,,,,,,,,,1,,,48,0
1870,note_on,46,0,1,,,,,,,,,0,,,76,0
1872,note_on,2,0,1,,,,,,,,,0,,,72,105
1918,note_on,46,0,1,,,,,,,,,0,,,72,0
1920,note_on,2,0,1,,,,,,,,,0,,,79,105
1920,note_on,64,0,2,,,,,,,,,1,,,52,105
1952,note_on,32,0,2,,,,,,,,,1,,,52,0
1966,note_on,46,0,1,,,,,,,,,0,,,79,0
1968,note_on,2,0,1,,,,,,,,,0,,,70,105
2014,note_on,46,0,1,,,,,,,,,0,,,70,0
2016,note_on,64,0,2,,,,,,,,,1,,,53,105
2016,note_on,2,0,1,,,,,,,,,0,,,69,105
2048,note_on,32,0,2,,,,,,,,,1,,,53,0
2062,note_on,46,0,1,,,,,,,,,0,,,69,0
2064,note_on,2,0,1,,,,,,,,,0,,,67,105
2110,note_on,46,0,1,,,,,,,,,0,,,67,0
2112,note_on,2,0,1,,,,,,,,,0,,,69,105
2112,note_on,64,0,2,,,,,,,,,1,,,41,105
2144,note_on,32,0,2,,,,,,,,,1,,,41,0
2158,note_on,46,0,1,,,,,,,,,0,,,69,0
2160,note_on,2,0,1,,,,,,,,,0,,,65,105
2206,note_on,46,0,1,,,,,,,,,0,,,65,0
2208,note_on,2,0,1,,,,,,,,,0,,,69,105
2254,note_on,46,0,1,,,,,,,,,0,,,69,0
2256,note_on,2,0,1,,,,,,,,,0,,,72,105
2302,note_on,46,0,1,,,,,,,,,0,,,72,0
2304,note_on,2,0,1,,,,,,,,,0,,,74,105
2304,note_on,160,0,2,,,,,,,,,1,,,58,105
2350,note_on,46,0,1,,,,,,,,,0,,,74,0
2352,note_on,2,0,1,,,,,,,,,0,,,75,105
2398,note_on,46,0,1,,,,,,,,,0,,,75,0
2400,note_on,2,0,1,,,,,,,,,0,,,74,105
2400,note_on,96,0,2,,,,,,,,,1,,,58,0
2400,note_on,0,0,2,,,,,,,,,1,,,67,105
2432,note_on,32,0,2,,,,,,,,,1,,,67,0
2446,note_on,46,0,1,,,,,,,,,0,,,74,0
2448,note_on,2,0,1,,,,,,,,,0,,,72,105
2494,note_on,46,0,1,,,,,,,,,0,,,72,0
2496,note_on,64,0,2,,,,,,,,,1,,,55,105
2496,note_on,2,0,1,,,,,,,,,0,,,74,105
2528,note_on,32,0,2,,,,,,,,,1,,,55,0
2542,note_on,46,0,1,,,,,,,,,0,,,74,0
2544,note_on,2,0,1,,,,,,,,,0,,,70,103
2590,note_on,46,0,1,,,,,,,,,0,,,70,0
2592,note_on,2,0,1,,,,,,,,,0,,,72,101
2592,note_on,64,0,2,,,,,,,,,1,,,57,101
2638,note_on,46,0,1,,,,,,,,,0,,,72,0
2640,note_on,2,0,1,,,,,,,,,0,,,74,99
2686,note_on,46,0,1,,,,,,,,,0,,,74,0
2688,note_on,2,0,1,,,,,,,,,0,,,72,97
2688,note_on,0,0,2,,,,,,,,,1,,,65,97
2688,note_on,96,0,2,,,,,,,,,1,,,57,0
2720,note_on,32,0,2,,,,,,,,,1,,,65,0
2734,note_on,46,0,1,,,,,,,,,0,,,72,0
2736,note_on,2,0,1,,,,,,,,,0,,,70,95
2782,note_on,46,0,1,,,,,,,,,0,,,70,0
2784,note_on,64,0,2,,,,,,,,,1,,,53,93
2784,note_on,2,0,1,,,,,,,,,0,,,72,93
2816,note_on,32,0,2,,,,,,,,,1,,,53,0
2830,note_on,46,0,1,,,,,,,,,0,,,72,0
2832,note_on,2,0,1,,,,,,,,,0,,,69,91
2878,note_on,46,0,1,,,,,,,,,0,,,69,0
2880,note_on,2,0,1,,,,,,,,,0,,,70,89
2880,note_on,64,0,2,,,,,,,,,1,,,55,89
2926,note_on,46,0,1,,,,,,,,,0,,,70,0
2928,note_on,2,0,1,,,,,,,,,0,,,72,87
2974,note_on,46,0,1,,,,,,,,,0,,,72,0
2976,note_on,2,0,1,,,,,,,,,0,,,70,85
2976,note_on,0,0,2,,,,,,,,,1,,,64,85
2976,note_on,96,0,2,,,,,,,,,1,,,55,0
3008,note_on,32,0,2,,,,,,,,,1,,,64,0
3022,note_on,46,0,1,,,,,,,,,0,,,70,0
3024,note_on,2,0,1,,,,,,,,,0,,,69,83
3070,note_on,46,0,1,,,,,,,,,0,,,69,0
3072,note_on,2,0,1,,,,,,,,,0,,,70,81
3072,note_on,64,0,2,,,,,,,,,1,,,52,81
3104,note_on,32,0,2,,,,,,,,,1,,,52,0
3118,note_on,46,0,1,,,,,,,,,0,,,70,0
3120,note_on,2,0,1,,,,,,,,,0,,,67,79
3166,note_on,46,0,1,,,,,,,,,0,,,67,0
3168,note_on,2,0,1,,,,,,,,,0,,,69,77
3168,note_on,64,0,2,,,,,,,,,1,,,53,77
3200,note_on,32,0,2,,,,,,,,,1,,,53,0
3214,note_on,46,0,1,,,,,,,,,0,,,69,0
3216,note_on,2,0,1,,,,,,,,,0,,,70,75
3262,note_on,46,0,1,,,,,,,,,0,,,70,0
3264,note_on,2,0,1,,,,,,,,,0,,,69,73
3264,note_on,64,0,2,,,,,,,,,1,,,60,73
3296,note_on,32,0,2,,,,,,,,,1,,,60,0
3310,note_on,46,0,1,,,,,,,,,0,,,69,0
3312,note_on,2,0,1,,,,,,,,,0,,,67,71
3358,note_on,46,0,1,,,,,,,,,0,,,67,0
3360,note_on,2,0,1,,,,,,,,,0,,,69,69
3360,note_on,64,0,2,,,,,,,,,1,,,63,68
3392,note_on,32,0,2,,,,,,,,,1,,,63,0
3406,note_on,46,0,1,,,,,,,,,0,,,69,0
3408,note_on,2,0,1,,,,,,,,,0,,,65,66
3454,note_on,46,0,1,,,,,,,,,0,,,65,0
3456,note_on,2,0,1,,,,,,,,,0,,,70,63
3456,note_on,64,0,2,,,,,,,,,1,,,62,63
3502,note_on,46,0,2,,,,,,,,,1,,,62,0
3504,note_on,2,0,2,,,,,,,,,1,,,63,63
3550,note_on,46,0,2,,,,,,,,,1,,,63,0
3552,note_on,2,0,2,,,,,,,,,1,,,62,63
3552,note_on,0,0,1,,,,,,,,,0,,,79,63
3552,note_on,96,0,1,,,,,,,,,0,,,70,0
3584,note_on,32,0,1,,,,,,,,,0,,,79,0
3598,note_on,46,0,2,,,,,,,,,1,,,62,0
3600,note_on,2,0,2,,,,,,,,,1,,,60,63
3646,note_on,46,0,2,,,,,,,,,1,,,60,0
3648,note_on,2,0,2,,,,,,,,,1,,,62,63
3648,note_on,64,0,1,,,,,,,,,0,,,67,63
3680,note_on,32,0,1,,,,,,,,,0,,,67,0
3694,note_on,46,0,2,,,,,,,,,1,,,62,0
3696,note_on,2,0,2,,,,,,,,,1,,,58,63
3742,note_on,46,0,2,,,,,,,,,1,,,58,0
3744,note_on,2,0,2,,,,,,,,,1,,,60,63
3744,note_on,64,0,1,,,,,,,,,0,,,69,63
3790,note_on,46,0,2,,,,,,,,,1,,,60,0
3792,note_on,2,0,2,,,,,,,,,1,,,62,63
3838,note_on,46,0,2,,,,,,,,,1,,,62,0
3840,note_on,96,0,1,,,,,,,,,0,,,69,0
3840,note_on,2,0,2,,,,,,,,,1,,,60,63
3840,note_on,0,0,1,,,,,,,,,0,,,77,63
3872,note_on,32,0,1,,,,,,,,,0,,,77,0
3886,note_on,46,0,2,,,,,,,,,1,,,60,0
3888,note_on,2,0,2,,,,,,,,,1,,,58,63
3934,note_on,46,0,2,,,,,,,,,1,,,58,0
3936,note_on,2,0,2,,,,,,,,,1,,,60,63
3936,note_on,64,0,1,,,,,,,,,0,,,65,63
3968,note_on,32,0,1,,,,,,,,,0,,,65,0
3982,note_on,46,0,2,,,,,,,,,1,,,60,0
3984,note_on,2,0,2,,,,,,,,,1,,,57,63
4030,note_on,46,0,2,,,,,,,,,1,,,57,0
4032,note_on,2,0,2,,,,,,,,,1,,,58,63
4032,note_on,64,0,1,,,,,,,,,0,,,74,63
4078,note_on,46,0,2,,,,,,,,,1,,,58,0
4080,note_on,2,0,2,,,,,,,,,1,,,60,63
4126,note_on,46,0,2,,,,,,,,,1,,,60,0
4128,note_on,2,0,2,,,,,,,,,1,,,58,63
4128,note_on,0,0,1,,,,,,,,,0,,,77,63
4128,note_on,96,0,1,,,,,,,,,0,,,74,0
4160,note_on,32,0,1,,,,,,,,,0,,,77,0
4174,note_on,46,0,2,,,,,,,,,1,,,58,0
4176,note_on,2,0,2,,,,,,,,,1,,,57,63
4222,note_on,46,0,2,,,,,,,,,1,,,57,0
4224,note_on,64,0,1,,,,,,,,,0,,,70,63
4224,note_on,2,0,2,,,,,,,,,1,,,58,63
4256,note_on,32,0,1,,,,,,,,,0,,,70,0
4270,note_on,46,0,2,,,,,,,,,1,,,58,0
4272,note_on,2,0,2,,,,,,,,,1,,,55,63
4318,note_on,46,0,2,,,,,,,,,1,,,55,0
4320,note_on,64,0,1,,,,,,,,,0,,,72,63
4320,note_on,2,0,2,,,,,,,,,1,,,57,63
4366,note_on,46,0,2,,,,,,,,,1,,,57,0
4368,note_on,2,0,2,,,,,,,,,1,,,58,63
4414,note_on,46,0,2,,,,,,,,,1,,,58,0
4416,note_on,96,0,1,,,,,,,,,0,,,72,0
4416,note_on,2,0,2,,,,,,,,,1,,,57,63
4416,note_on,0,0,1,,,,,,,,,0,,,77,63
4448,note_on,32,0,1,,,,,,,,,0,,,77,0
4462,note_on,46,0,2,,,,,,,,,1,,,57,0
4464,note_on,2,0,2,,,,,,,,,1,,,55,63
4510,note_on,46,0,2,,,,,,,,,1,,,55,0
4512,note_on,2,0,2,,,,,,,,,1,,,57,63
4512,note_on,64,0,1,,,,,,,,,0,,,69,63
4544,note_on,32,0,1,,,,,,,,,0,,,69,0
4558,note_on,46,0,2,,,,,,,,,1,,,57,0
4560,note_on,2,0,2,,,,,,,,,1,,,53,63
4606,note_on,46,0,2,,,,,,,,,1,,,53,0
4608,note_on,64,0,1,,,,,,,,,0,,,67,63
4608,note_on,2,0,2,,,,,,,,,1,,,58,63
4640,note_on,32,0,2,,,,,,,,,1,,,58,0
4654,note_on,46,0,1,,,,,,,,,0,,,67,0
4656,note_on,2,0,1,,,,,,,,,0,,,69,64
4702,note_on,46,0,1,,,,,,,,,0,,,69,0
4704,note_on,2,0,1,,,,,,,,,0,,,71,65
4704,note_on,64,0,2,,,,,,,,,1,,,62,66
4736,note_on,32,0,2,,,,,,,,,1,,,62,0
4750,note_on,46,0,1,,,,,,,,,0,,,71,0
4752,note_on,2,0,1,,,,,,,,,0,,,72,66
4798,note_on,46,0,1,,,,,,,,,0,,,72,0
4800,note_on,64,0,2,,,,,,,,,1,,,65,69
4800,note_on,2,0,1,,,,,,,,,0,,,74,67
4832,note_on,32,0,2,,,,,,,,,1,,,65,0
4846,note_on,46,0,1,,,,,,,,,0,,,74,0
4848,note_on,2,0,1,,,,,,,,,0,,,76,68
4894,note_on,46,0,1,,,,,,,,,0,,,76,0
4896,note_on,2,0,1,,,,,,,,,0,,,77,69
4896,note_on,64,0,2,,,,,,,,,1,,,62,72
4928,note_on,32,0,2,,,,,,,,,1,,,62,0
4942,note_on,46,0,1,,,,,,,,,0,,,77,0
4944,note_on,2,0,1,,,,,,,,,0,,,80,71
4990,note_on,46,0,1,,,,,,,,,0,,,80,0
4992,note_on,64,0,2,,,,,,,,,1,,,59,75
4992,note_on,2,0,1,,,,,,,,,0,,,79,73
5024,note_on,32,0,2,,,,,,,,,1,,,59,0
5038,note_on,46,0,1,,,,,,,,,0,,,79,0
5040,note_on,2,0,1,,,,,,,,,0,,,77,75
5086,note_on,46,0,1,,,,,,,,,0,,,77,0
5088,note_on,2,0,1,,,,,,,,,0,,,76,77
5088,note_on,64,0,2,,,,,,,,,1,,,55,78
5120,note_on,32,0,2,,,,,,,,,1,,,55,0
5134,note_on,46,0,1,,,,,,,,,0,,,76,0
5136,note_on,2,0,1,,,,,,,,,0,,,74,79
5182,note_on,46,0,1,,,,,,,,,0,,,74,0
5184,note_on,64,0,2,,,,,,,,,1,,,60,81
5184,note_on,2,0,1,,,,,,,,,0,,,76,81
5216,note_on,32,0,2,,,,,,,,,1,,,60,0
5230,note_on,46,0,1,,,,,,,,,0,,,76,0
5232,note_on,2,0,1,,,,,,,,,0,,,79,83
5278,note_on,46,0,1,,,,,,,,,0,,,79,0
5280,note_on,64,0,2,,,,,,,,,1,,,55,85
5280,note_on,2,0,1,,,,,,,,,0,,,77,85
5312,note_on,32,0,2,,,,,,,,,1,,,55,0
5326,note_on,46,0,1,,,,,,,,,0,,,77,0
5328,note_on,2,0,1,,,,,,,,,0,,,76,87
5374,note_on,46,0,1,,,,,,,,,0,,,76,0
5376,note_on,2,0,1,,,,,,,,,0,,,74,89
5376,note_on,64,0,2,,,,,,,,,1,,,52,89
5408,note_on,32,0,2,,,,,,,,,1,,,52,0
5422,note_on,46,0,1,,,,,,,,,0,,,74,0
5424,note_on,2,0,1,,,,,,,,,0,,,72,91
5470,note_on,46,0,1,,,,,,,,,0,,,72,0
5472,note_on,2,0,1,,,,,,,,,0,,,70,93
5472,note_on,64,0,2,,,,,,,,,1,,,48,93
5504,note_on,32,0,2,,,,,,,,,1,,,48,0
5518,note_on,46,0,1,,,,,,,,,0,,,70,0
5520,note_on,2,0,1,,,,,,,,,0,,,74,95
5566,note_on,46,0,1,,,,,,,,,0,,,74,0
5568,note_on,64,0,2,,,,,,,,,1,,,50,97
5568,note_on,2,0,1,,,,,,,,,0,,,72,97
5600,note_on,32,0,2,,,,,,,,,1,,,50,0
5614,note_on,46,0,1,,,,,,,,,0,,,72,0
5616,note_on,2,0,1,,,,,,,,,0,,,70,99
5662,note_on,46,0,1,,,,,,,,,0,,,70,0
5664,note_on,2,0,1,,,,,,,,,0,,,69,101
5664,note_on,64,0,2,,,,,,,,,1,,,52,101
5696,note_on,32,0,2,,,,,,,,,1,,,52,0
5710,note_on,46,0,1,,,,,,,,,0,,,69,0
5712,note_on,2,0,1,,,,,,,,,0,,,67,103
5758,note_on,46,0,1,,,,,,,,,0,,,67,0
5760,note_on,64,0,2,,,,,,,,,1,,,53,105
5760,note_on,2,0,1,,,,,,,,,0,,,69,105
5806,note_on,46,0,1,,,,,,,,,0,,,69,0
5806,note_on,46,0,2,,,,,,,,,1,,,53,0
5808,note_on,2,0,2,,,,,,,,,1,,,52,105
5808,note_on,2,0,1,,,,,,,,,0,,,70,105
5854,note_on,46,0,2,,,,,,,,,1,,,52,0
5854,note_on,46,0,1,,,,,,,,,0,,,70,0
5856,note_on,2,0,1,,,,,,,,,0,,,69,105
5856,note_on,2,0,2,,,,,,,,,1,,,53,105
5902,note_on,46,0,2,,,,,,,,,1,,,53,0
5902,note_on,46,0,1,,,,,,,,,0,,,69,0
5904,note_on,2,0,2,,,,,,,,,1,,,48,105
5904,note_on,2,0,1,,,,,,,,,0,,,67,105
5950,note_on,46,0,2,,,,,,,,,1,,,48,0
5950,note_on,46,0,1,,,,,,,,,0,,,67,0
5952,note_on,2,0,2,,,,,,,,,1,,,53,105
5952,note_on,2,0,1,,,,,,,,,0,,,69,105
5998,note_on,46,0,1,,,,,,,,,0,,,69,0
5998,note_on,46,0,2,,,,,,,,,1,,,53,0
6000,note_on,2,0,2,,,,,,,,,1,,,57,105
6000,note_on,2,0,1,,,,,,,,,0,,,65,105
6046,note_on,46,0,1,,,,,,,,,0,,,65,0
6046,note_on,46,0,2,,,,,,,,,1,,,57,0
6048,note_on,2,0,1,,,,,,,,,0,,,62,105
6048,note_on,2,0,2,,,,,,,,,1,,,58,105
6080,note_on,32,0,1,,,,,,,,,0,,,62,0
6094,note_on,46,0,2,,,,,,,,,1,,,58,0
6096,note_on,2,0,2,,,,,,,,,1,,,57,105
6142,note_on,46,0,2,,,,,,,,,1,,,57,0
6144,note_on,64,0,1,,,,,,,,,0,,,67,105
6144,note_on,0,0,1,,,,,,,,,0,,,67,127
6144,note_on,2,0,2,,,,,,,,,1,,,58,105
6190,note_on,46,0,2,,,,,,,,,1,,,58,0
6192,note_on,2,0,2,,,,,,,,,1,,,55,105
6238,note_on,46,0,2,,,,,,,,,1,,,55,0
6240,note_on,2,0,2,,,,,,,,,1,,,58,105
6286,note_on,142,0,1,,,,,,,,,0,,,67,0
6286,note_on,46,0,2,,,,,,,,,1,,,58,0
6288,note_on,0,0,1,,,,,,,,,0,,,69,105
6288,note_on,2,0,1,,,,,,,,,0,,,67,0
6288,note_on,2,0,2,,,,,,,,,1,,,62,105
6312,note_on,0,0,1,,,,,,,,,0,,,70,105
6312,note_on,24,0,1,,,,,,,,,0,,,69,0
6334,note_on,46,0,2,,,,,,,,,1,,,62,0
6336,note_on,2,0,2,,,,,,,,,1,,,60,105
6336,note_on,0,0,1,,,,,,,,,0,,,65,105
6336,note_on,24,0,1,,,,,,,,,0,,,70,0
6368,note_on,32,0,1,,,,,,,,,0,,,65,0
6382,note_on,46,0,2,,,,,,,,,1,,,60,0
6384,note_on,2,0,2,,,,,,,,,1,,,62,105
6430,note_on,46,0,2,,,,,,,,,1,,,62,0
6432,note_on,2,0,2,,,,,,,,,1,,,60,105
6432,note_on,64,0,1,,,,,,,,,0,,,65,105
6456,note_on,24,0,1,,,,,,,,,0,,,65,0
6456,note_on,0,0,1,,,,,,,,,0,,,64,105
6478,note_on,46,0,2,,,,,,,,,1,,,60,0
6480,note_on,24,0,1,,,,,,,,,0,,,64,0
6480,note_on,2,0,2,,,,,,,,,1,,,58,105
6480,note_on,0,0,1,,,,,,,,,0,,,65,105
6504,note_on,24,0,1,,,,,,,,,0,,,65,0
6504,note_on,0,0,1,,,,,,,,,0,,,64,105
6526,note_on,46,0,2,,,,,,,,,1,,,58,0
6528,note_on,2,0,2,,,,,,,,,1,,,57,105
6528,note_on,24,0,1,,,,,,,,,0,,,64,0
6528,note_on,0,0,1,,,,,,,,,0,,,65,105
6552,note_on,24,0,1,,,,,,,,,0,,,65,0
6552,note_on,0,0,1,,,,,,,,,0,,,64,105
6574,note_on,46,0,2,,,,,,,,,1,,,57,0
6576,note_on,0,0,1,,,,,,,,,0,,,62,105
6576,note_on,2,0,2,,,,,,,,,1,,,55,105
6576,note_on,24,0,1,,,,,,,,,0,,,64,0
6600,note_on,0,0,1,,,,,,,,,0,,,64,105
6600,note_on,24,0,1,,,,,,,,,0,,,62,0
6622,note_on,22,0,1,,,,,,,,,0,,,64,0
6622,note_on,46,0,2,,,,,,,,,1,,,55,0
6624,note_on,0,0,1,,,,,,,,,0,,,65,105
6624,note_on,2,0,1,,,,,,,,,0,,,57,105
6672,note_on,50,0,2,,,,,,,,,1,,,53,98
6718,note_on,46,0,2,,,,,,,,,1,,,53,0
6720,note_on,2,0,2,,,,,,,,,1,,,48,91
6766,note_on,46,0,2,,,,,,,,,1,,,48,0
6768,note_on,2,0,2,,,,,,,,,1,,,45,84
6814,note_on,46,0,2,,,,,,,,,1,,,45,0
6816,note_on,2,0,2,,,,,,,,,1,,,41,77
6880,note_on,0,0,1,,,,,,,,,0,,,57,0
6880,note_on,256,0,1,,,,,,,,,0,,,65,0
6910,note_on,94,0,2,,,,,,,,,1,,,41,0
6912,marker,6912,1,0,,,,,,,,,,,,,
6912,note_on,32,0,1,,,,,,,,,0,,,62,105
6958,note_on,46,0,1,,,,,,,,,0,,,62,0
6960,note_on,2,0,1,,,,,,,,,0,,,61,105
7006,note_on,46,0,1,,,,,,,,,0,,,61,0
7008,note_on,2,0,1,,,,,,,,,0,,,62,105
7054,note_on,46,0,1,,,,,,,,,0,,,62,0
7056,note_on,2,0,1,,,,,,,,,0,,,57,105
7102,note_on,46,0,1,,,,,,,,,0,,,57,0
7104,note_on,2,0,1,,,,,,,,,0,,,62,105
7150,note_on,46,0,1,,,,,,,,,0,,,62,0
7152,note_on,2,0,1,,,,,,,,,0,,,65,105
7198,note_on,46,0,1,,,,,,,,,0,,,65,0
7200,note_on,2,0,1,,,,,,,,,0,,,64,105
7246,note_on,46,0,1,,,,,,,,,0,,,64,0
7248,note_on,2,0,1,,,,,,,,,0,,,62,105
7294,note_on,46,0,1,,,,,,,,,0,,,62,0
7296,note_on,2,0,1,,,,,,,,,0,,,64,105
7342,note_on,46,0,1,,,,,,,,,0,,,64,0
7344,note_on,2,0,1,,,,,,,,,0,,,57,105
7390,note_on,46,0,1,,,,,,,,,0,,,57,0
7392,note_on,2,0,1,,,,,,,,,0,,,64,105
7438,note_on,46,0,1,,,,,,,,,0,,,64,0
7440,note_on,2,0,1,,,,,,,,,0,,,67,105
7486,note_on,46,0,1,,,,,,,,,0,,,67,0
7488,note_on,578,0,2,,,,,,,,,1,,,50,105
7488,note_on,2,0,1,,,,,,,,,0,,,65,105
7534,note_on,46,0,2,,,,,,,,,1,,,50,0
7536,note_on,2,0,2,,,,,,,,,1,,,49,105
7582,note_on,46,0,2,,,,,,,,,1,,,49,0
7584,note_on,2,0,2,,,,,,,,,1,,,50,105
7584,note_on,96,0,1,,,,,,,,,0,,,65,0
7584,note_on,0,0,1,,,,,,,,,0,,,69,105
7616,note_on,32,0,1,,,,,,,,,0,,,69,0
7630,note_on,46,0,2,,,,,,,,,1,,,50,0
7632,note_on,2,0,2,,,,,,,,,1,,,45,105
7678,note_on,46,0,2,,,,,,,,,1,,,45,0
7680,note_on,64,0,1,,,,,,,,,0,,,69,105
7680,note_on,2,0,2,,,,,,,,,1,,,50,105
7712,note_on,32,0,1,,,,,,,,,0,,,69,0
7726,note_on,46,0,2,,,,,,,,,1,,,50,0
7728,note_on,2,0,2,,,,,,,,,1,,,53,105
7774,note_on,46,0,2,,,,,,,,,1,,,53,0
7776,note_on,64,0,1,,,,,,,,,0,,,69,105
7776,note_on,2,0,2,,,,,,,,,1,,,52,105
7798,note_on,22,0,1,,,,,,,,,0,,,69,0
7800,note_on,2,0,1,,,,,,,,,0,,,67,105
7822,note_on,22,0,1,,,,,,,,,0,,,67,0
7822,note_on,46,0,2,,,,,,,,,1,,,52,0
7824,note_on,2,0,1,,,,,,,,,0,,,69,105
7824,note_on,2,0,2,,,,,,,,,1,,,50,105
7870,note_on,46,0,2,,,,,,,,,1,,,50,0
7872,note_on,2,0,2,,,,,,,,,1,,,52,105
7918,note_on,46,0,2,,,,,,,,,1,,,52,0
7920,note_on,2,0,2,,,,,,,,,1,,,45,105
7966,note_on,46,0,2,,,,,,,,,1,,,45,0
7968,note_on,2,0,2,,,,,,,,,1,,,52,105
8014,note_on,46,0,2,,,,,,,,,1,,,52,0
8016,note_on,2,0,2,,,,,,,,,1,,,55,105
8062,note_on,46,0,2,,,,,,,,,1,,,55,0
8064,note_on,2,0,2,,,,,,,,,1,,,53,105
8110,note_on,286,0,1,,,,,,,,,0,,,69,0
8112,note_on,2,0,1,,,,,,,,,0,,,70,105
8158,note_on,46,0,1,,,,,,,,,0,,,70,0
8158,note_on,94,0,2,,,,,,,,,1,,,53,0
8160,note_on,2,0,2,,,,,,,,,1,,,50,105
8160,note_on,2,0,1,,,,,,,,,0,,,69,105
8192,note_on,32,0,2,,,,,,,,,1,,,50,0
8206,note_on,46,0,1,,,,,,,,,0,,,69,0
8208,note_on,2,0,1,,,,,,,,,0,,,77,105
8254,note_on,46,0,1,,,,,,,,,0,,,77,0
8256,note_on,64,0,2,,,,,,,,,1,,,53,105
8256,note_on,2,0,1,,,,,,,,,0,,,74,105
8288,note_on,32,0,2,,,,,,,,,1,,,53,0
8302,note_on,46,0,1,,,,,,,,,0,,,74,0
8304,note_on,2,0,1,,,,,,,,,0,,,69,105
8350,note_on,46,0,1,,,,,,,,,0,,,69,0
8352,note_on,64,0,2,,,,,,,,,1,,,55,105
8352,note_on,2,0,1,,,,,,,,,0,,,70,105
8384,note_on,32,0,2,,,,,,,,,1,,,55,0
8398,note_on,46,0,1,,,,,,,,,0,,,70,0
8400,note_on,2,0,1,,,,,,,,,0,,,69,105
8446,note_on,46,0,1,,,,,,,,,0,,,69,0
8448,note_on,64,0,2,,,,,,,,,1,,,43,105
8448,note_on,2,0,1,,,,,,,,,0,,,70,105
8480,note_on,32,0,2,,,,,,,,,1,,,43,0
8494,note_on,46,0,1,,,,,,,,,0,,,70,0
8496,note_on,2,0,1,,,,,,,,,0,,,67,105
8542,note_on,46,0,1,,,,,,,,,0,,,67,0
8544,note_on,2,0,1,,,,,,,,,0,,,70,105
8590,note_on,46,0,1,,,,,,,,,0,,,70,0
8592,note_on,2,0,1,,,,,,,,,0,,,74,105
8638,note_on,46,0,1,,,,,,,,,0,,,74,0
8640,note_on,2,0,1,,,,,,,,,0,,,76,127
8640,note_on,0,0,1,,,,,,,,,0,,,76,105
8686,note_on,46,0,1,,,,,,,,,0,,,76,0
8686,note_on,0,0,1,,,,,,,,,0,,,76,0
8688,note_on,2,0,1,,,,,,,,,0,,,77,105
8734,note_on,46,0,1,,,,,,,,,0,,,77,0
8736,note_on,256,0,2,,,,,,,,,1,,,48,105
8736,note_on,2,0,1,,,,,,,,,0,,,76,105
8768,note_on,32,0,2,,,,,,,,,1,,,48,0
8782,note_on,46,0,1,,,,,,,,,0,,,76,0
8784,note_on,2,0,1,,,,,,,,,0,,,72,105
8830,note_on,46,0,1,,,,,,,,,0,,,72,0
8832,note_on,2,0,1,,,,,,,,,0,,,79,105
8832,note_on,64,0,2,,,,,,,,,1,,,52,105
8864,note_on,32,0,2,,,,,,,,,1,,,52,0
8878,note_on,46,0,1,,,,,,,,,0,,,79,0
8880,note_on,2,0,1,,,,,,,,,0,,,70,105
8926,note_on,46,0,1,,,,,,,,,0,,,70,0
8928,note_on,64,0,2,,,,,,,,,1,,,53,105
8928,note_on,2,0,1,,,,,,,,,0,,,69,105
8960,note_on,32,0,2,,,,,,,,,1,,,53,0
8974,note_on,46,0,1,,,,,,,,,0,,,69,0
8976,note_on,2,0,1,,,,,,,,,0,,,67,105
9022,note_on,46,0,1,,,,,,,,,0,,,67,0
9024,note_on,2,0,1,,,,,,,,,0,,,69,105
9024,note_on,64,0,2,,,,,,,,,1,,,41,105
9056,note_on,32,0,2,,,,,,,,,1,,,41,0
9070,note_on,46,0,1,,,,,,,,,0,,,69,0
9072,note_on,2,0,1,,,,,,,,,0,,,65,105
9118,note_on,46,0,1,,,,,,,,,0,,,65,0
9120,note_on,2,0,1,,,,,,,,,0,,,69,105
9166,note_on,46,0,1,,,,,,,,,0,,,69,0
9168,note_on,2,0,1,,,,,,,,,0,,,72,105
9214,note_on,46,0,1,,,,,,,,,0,,,72,0
9216,note_on,2,0,1,,,,,,,,,0,,,74,105
9216,note_on,160,0,2,,,,,,,,,1,,,58,105
9262,note_on,46,0,1,,,,,,,,,0,,,74,0
9264,note_on,2,0,1,,,,,,,,,0,,,75,105
9310,note_on,46,0,1,,,,,,,,,0,,,75,0
9312,note_on,2,0,1,,,,,,,,,0,,,74,105
9312,note_on,96,0,2,,,,,,,,,1,,,58,0
9312,note_on,0,0,2,,,,,,,,,1,,,67,105
9344,note_on,32,0,2,,,,,,,,,1,,,67,0
9358,note_on,46,0,1,,,,,,,,,0,,,74,0
9360,note_on,2,0,1,,,,,,,,,0,,,72,105
9406,note_on,46,0,1,,,,,,,,,0,,,72,0
9408,note_on,64,0,2,,,,,,,,,1,,,55,105
9408,note_on,2,0,1,,,,,,,,,0,,,74,105
9440,note_on,32,0,2,,,,,,,,,1,,,55,0
9454,note_on,46,0,1,,,,,,,,,0,,,74,0
9456,note_on,2,0,1,,,,,,,,,0,,,70,103
9502,note_on,46,0,1,,,,,,,,,0,,,70,0
9504,note_on,64,0,2,,,,,,,,,1,,,57,101
9504,note_on,2,0,1,,,,,,,,,0,,,72,101
9550,note_on,46,0,1,,,,,,,,,0,,,72,0
9552,note_on,2,0,1,,,,,,,,,0,,,74,99
9598,note_on,46,0,1,,,,,,,,,0,,,74,0
9600,note_on,0,0,2,,,,,,,,,1,,,65,97
9600,note_on,2,0,1,,,,,,,,,0,,,72,97
9600,note_on,96,0,2,,,,,,,,,1,,,57,0
9632,note_on,32,0,2,,,,,,,,,1,,,65,0
9646,note_on,46,0,1,,,,,,,,,0,,,72,0
9648,note_on,2,0,1,,,,,,,,,0,,,70,95
9694,note_on,46,0,1,,,,,,,,,0,,,70,0
9696,note_on,2,0,1,,,,,,,,,0,,,72,93
9696,note_on,64,0,2,,,,,,,,,1,,,53,93
9728,note_on,32,0,2,,,,,,,,,1,,,53,0
9742,note_on,46,0,1,,,,,,,,,0,,,72,0
9744,note_on,2,0,1,,,,,,,,,0,,,69,91
9790,note_on,46,0,1,,,,,,,,,0,,,69,0
9792,note_on,2,0,1,,,,,,,,,0,,,70,89
9792,note_on,64,0,2,,,,,,,,,1,,,55,89
9838,note_on,46,0,1,,,,,,,,,0,,,70,0
9840,note_on,2,0,1,,,,,,,,,0,,,72,87
9886,note_on,46,0,1,,,,,,,,,0,,,72,0
9888,note_on,0,0,2,,,,,,,,,1,,,64,85
9888,note_on,2,0,1,,,,,,,,,0,,,70,85
9888,note_on,96,0,2,,,,,,,,,1,,,55,0
9920,note_on,32,0,2,,,,,,,,,1,,,64,0
9934,note_on,46,0,1,,,,,,,,,0,,,70,0
9936,note_on,2,0,1,,,,,,,,,0,,,69,83
9982,note_on,46,0,1,,,,,,,,,0,,,69,0
9984,note_on,2,0,1,,,,,,,,,0,,,70,81
9984,note_on,64,0,2,,,,,,,,,1,,,52,81
10016,note_on,32,0,2,,,,,,,,,1,,,52,0
10030,note_on,46,0,1,,,,,,,,,0,,,70,0
10032,note_on,2,0,1,,,,,,,,,0,,,67,79
10078,note_on,46,0,1,,,,,,,,,0,,,67,0
10080,note_on,64,0,2,,,,,,,,,1,,,53,77
10080,note_on,2,0,1,,,,,,,,,0,,,69,77
10112,note_on,32,0,2,,,,,,,,,1,,,53,0
10126,note_on,46,0,1,,,,,,,,,0,,,69,0
10128,note_on,2,0,1,,,,,,,,,0,,,70,75
10174,note_on,46,0,1,,,,,,,,,0,,,70,0
10176,note_on,2,0,1,,,,,,,,,0,,,69,73
10176,note_on,64,0,2,,,,,,,,,1,,,60,73
10208,note_on,32,0,2,,,,,,,,,1,,,60,0
10222,note_on,46,0,1,,,,,,,,,0,,,69,0
10224,note_on,2,0,1,,,,,,,,,0,,,67,71
10270,note_on,46,0,1,,,,,,,,,0,,,67,0
10272,note_on,2,0,1,,,,,,,,,0,,,69,69
10272,note_on,64,0,2,,,,,,,,,1,,,63,68
10304,note_on,32,0,2,,,,,,,,,1,,,63,0
10318,note_on,46,0,1,,,,,,,,,0,,,69,0
10320,note_on,2,0,1,,,,,,,,,0,,,65,66
10366,note_on,46,0,1,,,,,,,,,0,,,65,0
10368,note_on,2,0,1,,,,,,,,,0,,,70,63
10368,note_on,64,0,2,,,,,,,,,1,,,62,63
10414,note_on,46,0,2,,,,,,,,,1,,,62,0
10416,note_on,2,0,2,,,,,,,,,1,,,63,63
10462,note_on,46,0,2,,,,,,,,,1,,,63,0
10464,note_on,0,0,1,,,,,,,,,0,,,79,63
10464,note_on,96,0,1,,,,,,,,,0,,,70,0
10464,note_on,2,0,2,,,,,,,,,1,,,62,63
10496,note_on,32,0,1,,,,,,,,,0,,,79,0
10510,note_on,46,0,2,,,,,,,,,1,,,62,0
10512,note_on,2,0,2,,,,,,,,,1,,,60,63
10558,note_on,46,0,2,,,,,,,,,1,,,60,0
10560,note_on,2,0,2,,,,,,,,,1,,,62,63
10560,note_on,64,0,1,,,,,,,,,0,,,67,63
10592,note_on,32,0,1,,,,,,,,,0,,,67,0
10606,note_on,46,0,2,,,,,,,,,1,,,62,0
10608,note_on,2,0,2,,,,,,,,,1,,,58,63
10654,note_on,46,0,2,,,,,,,,,1,,,58,0
10656,note_on,2,0,2,,,,,,,,,1,,,60,63
10656,note_on,64,0,1,,,,,,,,,0,,,69,63
10702,note_on,46,0,2,,,,,,,,,1,,,60,0
10704,note_on,2,0,2,,,,,,,,,1,,,62,63
10750,note_on,46,0,2,,,,,,,,,1,,,62,0
10752,note_on,0,0,1,,,,,,,,,0,,,77,63
10752,note_on,96,0,1,,,,,,,,,0,,,69,0
10752,note_on,2,0,2,,,,,,,,,1,,,60,63
10784,note_on,32,0,1,,,,,,,,,0,,,77,0
10798,note_on,46,0,2,,,,,,,,,1,,,60,0
10800,note_on,2,0,2,,,,,,,,,1,,,58,63
10846,note_on,46,0,2,,,,,,,,,1,,,58,0
10848,note_on,64,0,1,,,,,,,,,0,,,65,63
10848,note_on,2,0,2,,,,,,,,,1,,,60,63
10880,note_on,32,0,1,,,,,,,,,0,,,65,0
10894,note_on,46,0,2,,,,,,,,,1,,,60,0
10896,note_on,2,0,2,,,,,,,,,1,,,57,63
10942,note_on,46,0,2,,,,,,,,,1,,,57,0
10944,note_on,64,0,1,,,,,,,,,0,,,74,63
10944,note_on,2,0,2,,,,,,,,,1,,,58,63
10990,note_on,46,0,2,,,,,,,,,1,,,58,0
10992,note_on,2,0,2,,,,,,,,,1,,,60,63
11038,note_on,46,0,2,,,,,,,,,1,,,60,0
11040,note_on,2,0,2,,,,,,,,,1,,,58,63
11040,note_on,96,0,1,,,,,,,,,0,,,74,0
11040,note_on,0,0,1,,,,,,,,,0,,,77,63
11072,note_on,32,0,1,,,,,,,,,0,,,77,0
11086,note_on,46,0,2,,,,,,,,,1,,,58,0
11088,note_on,2,0,2,,,,,,,,,1,,,57,63
11134,note_on,46,0,2,,,,,,,,,1,,,57,0
11136,note_on,2,0,2,,,,,,,,,1,,,58,63
11136,note_on,64,0,1,,,,,,,,,0,,,70,63
11168,note_on,32,0,1,,,,,,,,,0,,,70,0
11182,note_on,46,0,2,,,,,,,,,1,,,58,0
11184,note_on,2,0,2,,,,,,,,,1,,,55,63
11230,note_on,46,0,2,,,,,,,,,1,,,55,0
11232,note_on,64,0,1,,,,,,,,,0,,,72,63
11232,note_on,2,0,2,,,,,,,,,1,,,57,63
11278,note_on,46,0,2,,,,,,,,,1,,,57,0
11280,note_on,2,0,2,,,,,,,,,1,,,58,63
11326,note_on,46,0,2,,,,,,,,,1,,,58,0
11328,note_on,96,0,1,,,,,,,,,0,,,72,0
11328,note_on,0,0,1,,,,,,,,,0,,,77,63
11328,note_on,2,0,2,,,,,,,,,1,,,57,63
11360,note_on,32,0,1,,,,,,,,,0,,,77,0
11374,note_on,46,0,2,,,,,,,,,1,,,57,0
11376,note_on,2,0,2,,,,,,,,,1,,,55,63
11422,note_on,46,0,2,,,,,,,,,1,,,55,0
11424,note_on,64,0,1,,,,,,,,,0,,,69,63
11424,note_on,2,0,2,,,,,,,,,1,,,57,63
11456,note_on,32,0,1,,,,,,,,,0,,,69,0
11470,note_on,46,0,2,,,,,,,,,1,,,57,0
11472,note_on,2,0,2,,,,,,,,,1,,,53,63
11518,note_on,46,0,2,,,,,,,,,1,,,53,0
11520,note_on,64,0,1,,,,,,,,,0,,,67,63
11520,note_on,2,0,2,,,,,,,,,1,,,58,63
11552,note_on,32,0,2,,,,,,,,,1,,,58,0
11566,note_on,46,0,1,,,,,,,,,0,,,67,0
11568,note_on,2,0,1,,,,,,,,,0,,,69,64
11614,note_on,46,0,1,,,,,,,,,0,,,69,0
11616,note_on,2,0,1,,,,,,,,,0,,,71,65
11616,note_on,64,0,2,,,,,,,,,1,,,62,66
11648,note_on,32,0,2,,,,,,,,,1,,,62,0
11662,note_on,46,0,1,,,,,,,,,0,,,71,0
11664,note_on,2,0,1,,,,,,,,,0,,,72,66
11710,note_on,46,0,1,,,,,,,,,0,,,72,0
11712,note_on,2,0,1,,,,,,,,,0,,,74,67
11712,note_on,64,0,2,,,,,,,,,1,,,65,69
11744,note_on,32,0,2,,,,,,,,,1,,,65,0
11758,note_on,46,0,1,,,,,,,,,0,,,74,0
11760,note_on,2,0,1,,,,,,,,,0,,,76,68
11806,note_on,46,0,1,,,,,,,,,0,,,76,0
11808,note_on,64,0,2,,,,,,,,,1,,,62,72
11808,note_on,2,0,1,,,,,,,,,0,,,77,69
11840,note_on,32,0,2,,,,,,,,,1,,,62,0
11854,note_on,46,0,1,,,,,,,,,0,,,77,0
11856,note_on,2,0,1,,,,,,,,,0,,,80,71
11902,note_on,46,0,1,,,,,,,,,0,,,80,0
11904,note_on,64,0,2,,,,,,,,,1,,,59,75
11904,note_on,2,0,1,,,,,,,,,0,,,79,73
11936,note_on,32,0,2,,,,,,,,,1,,,59,0
11950,note_on,46,0,1,,,,,,,,,0,,,79,0
11952,note_on,2,0,1,,,,,,,,,0,,,77,75
11998,note_on,46,0,1,,,,,,,,,0,,,77,0
12000,note_on,64,0,2,,,,,,,,,1,,,55,78
12000,note_on,2,0,1,,,,,,,,,0,,,76,77
12032,note_on,32,0,2,,,,,,,,,1,,,55,0
12046,note_on,46,0,1,,,,,,,,,0,,,76,0
12048,note_on,2,0,1,,,,,,,,,0,,,74,79
12094,note_on,46,0,1,,,,,,,,,0,,,74,0
12096,note_on,64,0,2,,,,,,,,,1,,,60,81
12096,note_on,2,0,1,,,,,,,,,0,,,76,81
12128,note_on,32,0,2,,,,,,,,,1,,,60,0
12142,note_on,46,0,1,,,,,,,,,0,,,76,0
12144,note_on,2,0,1,,,,,,,,,0,,,79,83
12190,note_on,46,0,1,,,,,,,,,0,,,79,0
12192,note_on,64,0,2,,,,,,,,,1,,,55,85
12192,note_on,2,0,1,,,,,,,,,0,,,77,85
12224,note_on,32,0,2,,,,,,,,,1,,,55,0
12238,note_on,46,0,1,,,,,,,,,0,,,77,0
12240,note_on,2,0,1,,,,,,,,,0,,,76,87
12286,note_on,46,0,1,,,,,,,,,0,,,76,0
12288,note_on,64,0,2,,,,,,,,,1,,,52,89
12288,note_on,2,0,1,,,,,,,,,0,,,74,89
12320,note_on,32,0,2,,,,,,,,,1,,,52,0
12334,note_on,46,0,1,,,,,,,,,0,,,74,0
12336,note_on,2,0,1,,,,,,,,,0,,,72,91
12382,note_on,46,0,1,,,,,,,,,0,,,72,0
12384,note_on,2,0,1,,,,,,,,,0,,,70,93
12384,note_on,64,0,2,,,,,,,,,1,,,48,93
12416,note_on,32,0,2,,,,,,,,,1,,,48,0
12430,note_on,46,0,1,,,,,,,,,0,,,70,0
12432,note_on,2,0,1,,,,,,,,,0,,,74,95
12478,note_on,46,0,1,,,,,,,,,0,,,74,0
12480,note_on,2,0,1,,,,,,,,,0,,,72,97
12480,note_on,64,0,2,,,,,,,,,1,,,50,97
12512,note_on,32,0,2,,,,,,,,,1,,,50,0
12526,note_on,46,0,1,,,,,,,,,0,,,72,0
12528,note_on,2,0,1,,,,,,,,,0,,,70,99
12574,note_on,46,0,1,,,,,,,,,0,,,70,0
12576,note_on,64,0,2,,,,,,,,,1,,,52,101
12576,note_on,2,0,1,,,,,,,,,0,,,69,101
12608,note_on,32,0,2,,,,,,,,,1,,,52,0
12622,note_on,46,0,1,,,,,,,,,0,,,69,0
12624,note_on,2,0,1,,,,,,,,,0,,,67,103
12670,note_on,46,0,1,,,,,,,,,0,,,67,0
12672,note_on,64,0,2,,,,,,,,,1,,,53,105
12672,note_on,2,0,1,,,,,,,,,0,,,69,105
12718,note_on,46,0,1,,,,,,,,,0,,,69,0
12718,note_on,46,0,2,,,,,,,,,1,,,53,0
12720,note_on,2,0,1,,,,,,,,,0,,,70,105
12720,note_on,2,0,2,,,,,,,,,1,,,52,105
12766,note_on,46,0,2,,,,,,,,,1,,,52,0
12766,note_on,46,0,1,,,,,,,,,0,,,70,0
12768,note_on,2,0,1,,,,,,,,,0,,,69,105
12768,note_on,2,0,2,,,,,,,,,1,,,53,105
12814,note_on,46,0,1,,,,,,,,,0,,,69,0
12814,note_on,46,0,2,,,,,,,,,1,,,53,0
12816,note_on,2,0,1,,,,,,,,,0,,,67,105
12816,note_on,2,0,2,,,,,,,,,1,,,48,105
12862,note_on,46,0,2,,,,,,,,,1,,,48,0
12862,note_on,46,0,1,,,,,,,,,0,,,67,0
12864,note_on,2,0,2,,,,,,,,,1,,,53,105
12864,note_on,2,0,1,,,,,,,,,0,,,69,105
12910,note_on,46,0,2,,,,,,,,,1,,,53,0
12910,note_on,46,0,1,,,,,,,,,0,,,69,0
12912,note_on,2,0,2,,,,,,,,,1,,,57,105
12912,note_on,2,0,1,,,,,,,,,0,,,65,105
12958,note_on,46,0,1,,,,,,,,,0,,,65,0
12958,note_on,46,0,2,,,,,,,,,1,,,57,0
12960,note_on,2,0,1,,,,,,,,,0,,,62,105
12960,note_on,2,0,2,,,,,,,,,1,,,58,105
12992,note_on,32,0,1,,,,,,,,,0,,,62,0
13006,note_on,46,0,2,,,,,,,,,1,,,58,0
13008,note_on,2,0,2,,,,,,,,,1,,,57,105
13054,note_on,46,0,2,,,,,,,,,1,,,57,0
13056,note_on,2,0,2,,,,,,,,,1,,,58,105
13056,note_on,64,0,1,,,,,,,,,0,,,67,127
13102,note_on,46,0,2,,,,,,,,,1,,,58,0
13104,note_on,2,0,2,,,,,,,,,1,,,55,105
13150,note_on,46,0,2,,,,,,,,,1,,,55,0
13152,note_on,2,0,2,,,,,,,,,1,,,58,105
13198,note_on,46,0,2,,,,,,,,,1,,,58,0
13200,note_on,144,0,1,,,,,,,,,0,,,67,0
13200,note_on,2,0,2,,,,,,,,,1,,,62,105
13200,note_on,0,0,1,,,,,,,,,0,,,69,105
13224,note_on,0,0,1,,,,,,,,,0,,,70,105
13224,note_on,24,0,1,,,,,,,,,0,,,69,0
13246,note_on,46,0,2,,,,,,,,,1,,,62,0
13248,note_on,0,0,1,,,,,,,,,0,,,65,105
13248,note_on,24,0,1,,,,,,,,,0,,,70,0
13248,note_on,2,0,2,,,,,,,,,1,,,60,105
13280,note_on,32,0,1,,,,,,,,,0,,,65,0
13294,note_on,46,0,2,,,,,,,,,1,,,60,0
13296,note_on,2,0,2,,,,,,,,,1,,,62,105
13342,note_on,46,0,2,,,,,,,,,1,,,62,0
13344,note_on,2,0,2,,,,,,,,,1,,,60,105
13344,note_on,64,0,1,,,,,,,,,0,,,64,105
13368,note_on,24,0,1,,,,,,,,,0,,,64,0
13368,note_on,0,0,1,,,,,,,,,0,,,65,105
13390,note_on,46,0,2,,,,,,,,,1,,,60,0
13392,note_on,24,0,1,,,,,,,,,0,,,65,0
13392,note_on,0,0,1,,,,,,,,,0,,,64,105
13392,note_on,2,0,2,,,,,,,,,1,,,58,105
13416,note_on,24,0,1,,,,,,,,,0,,,64,0
13416,note_on,0,0,1,,,,,,,,,0,,,65,105
13438,note_on,46,0,2,,,,,,,,,1,,,58,0
13440,note_on,2,0,2,,,,,,,,,1,,,57,105
13440,note_on,24,0,1,,,,,,,,,0,,,65,0
13440,note_on,0,0,1,,,,,,,,,0,,,62,105
13486,note_on,46,0,2,,,,,,,,,1,,,57,0
13488,note_on,0,0,1,,,,,,,,,0,,,64,105
13488,note_on,48,0,1,,,,,,,,,0,,,62,0
13488,note_on,2,0,2,,,,,,,,,1,,,55,105
13534,note_on,46,0,2,,,,,,,,,1,,,55,0
13534,note_on,46,0,1,,,,,,,,,0,,,64,0
13536,note_on,0,0,1,,,,,,,,,0,,,65,105
13536,note_on,2,0,1,,,,,,,,,0,,,57,105
13584,note_on,50,0,2,,,,,,,,,1,,,53,98
13630,note_on,46,0,2,,,,,,,,,1,,,53,0
13632,note_on,2,0,2,,,,,,,,,1,,,48,91
13678,note_on,46,0,2,,,,,,,,,1,,,48,0
13680,note_on,2,0,2,,,,,,,,,1,,,45,84
13726,note_on,46,0,2,,,,,,,,,1,,,45,0
13728,note_on,2,0,2,,,,,,,,,1,,,41,77
13792,note_on,256,0,1,,,,,,,,,0,,,65,0
13792,note_on,0,0,1,,,,,,,,,0,,,57,0
13822,note_on,94,0,2,,,,,,,,,1,,,41,0
13824,note_on,2,0,2,,,,,,,,,1,,,65,105
13824,note_on,32,0,1,,,,,,,,,0,,,81,105
13824,marker,6912,1,0,,,,,,,,,,,,,
13870,note_on,46,0,1,,,,,,,,,0,,,81,0
13872,note_on,2,0,1,,,,,,,,,0,,,82,105
13918,note_on,46,0,1,,,,,,,,,0,,,82,0
13920,note_on,96,0,2,,,,,,,,,1,,,65,0
13920,note_on,0,0,2,,,,,,,,,1,,,53,105
13920,note_on,2,0,1,,,,,,,,,0,,,81,105
13952,note_on,32,0,2,,,,,,,,,1,,,53,0
13966,note_on,46,0,1,,,,,,,,,0,,,81,0
13968,note_on,2,0,1,,,,,,,,,0,,,84,105
14014,note_on,46,0,1,,,,,,,,,0,,,84,0
14016,note_on,64,0,2,,,,,,,,,1,,,65,105
14016,note_on,2,0,1,,,,,,,,,0,,,81,105
14048,note_on,32,0,2,,,,,,,,,1,,,65,0
14062,note_on,46,0,1,,,,,,,,,0,,,81,0
14064,note_on,2,0,1,,,,,,,,,0,,,77,105
14110,note_on,46,0,1,,,,,,,,,0,,,77,0
14112,note_on,64,0,2,,,,,,,,,1,,,64,105
14112,note_on,2,0,1,,,,,,,,,0,,,79,105
14158,note_on,46,0,1,,,,,,,,,0,,,79,0
14160,note_on,2,0,1,,,,,,,,,0,,,81,105
14206,note_on,46,0,1,,,,,,,,,0,,,81,0
14208,note_on,2,0,1,,,,,,,,,0,,,79,105
14208,note_on,96,0,2,,,,,,,,,1,,,64,0
14208,note_on,0,0,2,,,,,,,,,1,,,57,105
14240,note_on,32,0,2,,,,,,,,,1,,,57,0
14254,note_on,46,0,1,,,,,,,,,0,,,79,0
14256,note_on,2,0,1,,,,,,,,,0,,,84,105
14302,note_on,46,0,1,,,,,,,,,0,,,84,0
14304,note_on,64,0,2,,,,,,,,,1,,,60,105
14304,note_on,2,0,1,,,,,,,,,0,,,79,105
14336,note_on,32,0,2,,,,,,,,,1,,,60,0
14350,note_on,46,0,1,,,,,,,,,0,,,79,0
14352,note_on,2,0,1,,,,,,,,,0,,,76,105
14398,note_on,46,0,1,,,,,,,,,0,,,76,0
14400,note_on,2,0,1,,,,,,,,,0,,,77,105
14400,note_on,64,0,2,,,,,,,,,1,,,62,105
14432,note_on,32,0,2,,,,,,,,,1,,,62,0
14446,note_on,46,0,1,,,,,,,,,0,,,77,0
14448,note_on,2,0,1,,,,,,,,,0,,,81,105
14494,note_on,46,0,1,,,,,,,,,0,,,81,0
14496,note_on,2,0,1,,,,,,,,,0,,,79,105
14496,note_on,64,0,2,,,,,,,,,1,,,59,105
14528,note_on,32,0,2,,,,,,,,,1,,,59,0
14542,note_on,46,0,1,,,,,,,,,0,,,79,0
14544,note_on,2,0,1,,,,,,,,,0,,,77,105
14590,note_on,46,0,1,,,,,,,,,0,,,77,0
14592,note_on,2,0,1,,,,,,,,,0,,,76,105
14592,note_on,64,0,2,,,,,,,,,1,,,55,105
14624,note_on,32,0,2,,,,,,,,,1,,,55,0
14638,note_on,46,0,1,,,,,,,,,0,,,76,0
14640,note_on,2,0,1,,,,,,,,,0,,,74,105
14686,note_on,46,0,1,,,,,,,,,0,,,74,0
14688,note_on,64,0,2,,,,,,,,,1,,,60,105
14688,note_on,2,0,1,,,,,,,,,0,,,76,105
14720,note_on,32,0,2,,,,,,,,,1,,,60,0
14734,note_on,46,0,1,,,,,,,,,0,,,76,0
14736,note_on,2,0,1,,,,,,,,,0,,,74,105
14782,note_on,46,0,1,,,,,,,,,0,,,74,0
14784,note_on,2,0,1,,,,,,,,,0,,,72,105
14784,note_on,64,0,2,,,,,,,,,1,,,52,105
14816,note_on,32,0,2,,,,,,,,,1,,,52,0
14830,note_on,46,0,1,,,,,,,,,0,,,72,0
14832,note_on,2,0,1,,,,,,,,,0,,,74,105
14878,note_on,46,0,1,,,,,,,,,0,,,74,0
14880,note_on,2,0,1,,,,,,,,,0,,,76,105
14880,note_on,64,0,2,,,,,,,,,1,,,55,105
14912,note_on,32,0,2,,,,,,,,,1,,,55,0
14926,note_on,46,0,1,,,,,,,,,0,,,76,0
14928,note_on,2,0,1,,,,,,,,,0,,,77,105
14974,note_on,46,0,1,,,,,,,,,0,,,77,0
14976,note_on,2,0,1,,,,,,,,,0,,,79,105
14976,note_on,64,0,2,,,,,,,,,1,,,48,105
15008,note_on,32,0,1,,,,,,,,,0,,,79,0
15022,note_on,46,0,2,,,,,,,,,1,,,48,0
15024,note_on,2,0,2,,,,,,,,,1,,,50,105
15070,note_on,46,0,2,,,,,,,,,1,,,50,0
15072,note_on,2,0,2,,,,,,,,,1,,,48,105
15072,note_on,64,0,1,,,,,,,,,0,,,78,105
15118,note_on,46,0,2,,,,,,,,,1,,,48,0
15118,note_on,46,0,1,,,,,,,,,0,,,78,0
15120,note_on,2,0,2,,,,,,,,,1,,,51,105
15120,note_on,2,0,1,,,,,,,,,0,,,79,105
15166,note_on,46,0,2,,,,,,,,,1,,,51,0
15166,note_on,46,0,1,,,,,,,,,0,,,79,0
15168,note_on,2,0,2,,,,,,,,,1,,,48,105
15168,note_on,2,0,1,,,,,,,,,0,,,81,105
15214,note_on,46,0,2,,,,,,,,,1,,,48,0
15214,note_on,46,0,1,,,,,,,,,0,,,81,0
15216,note_on,2,0,2,,,,,,,,,1,,,45,105
15216,note_on,2,0,1,,,,,,,,,0,,,78,105
15262,note_on,46,0,1,,,,,,,,,0,,,78,0
15262,note_on,46,0,2,,,,,,,,,1,,,45,0
15264,note_on,2,0,1,,,,,,,,,0,,,79,105
15264,note_on,2,0,2,,,,,,,,,1,,,46,105
15310,note_on,46,0,2,,,,,,,,,1,,,46,0
15312,note_on,2,0,2,,,,,,,,,1,,,48,105
15358,note_on,46,0,2,,,,,,,,,1,,,48,0
15360,note_on,96,0,1,,,,,,,,,0,,,79,0
15360,note_on,0,0,1,,,,,,,,,0,,,74,105
15360,note_on,2,0,2,,,,,,,,,1,,,46,105
15392,note_on,32,0,1,,,,,,,,,0,,,74,0
15406,note_on,46,0,2,,,,,,,,,1,,,46,0
15408,note_on,2,0,2,,,,,,,,,1,,,50,105
15454,note_on,46,0,2,,,,,,,,,1,,,50,0
15456,note_on,64,0,1,,,,,,,,,0,,,75,105
15456,note_on,2,0,2,,,,,,,,,1,,,46,105
15488,note_on,32,0,1,,,,,,,,,0,,,75,0
15502,note_on,46,0,2,,,,,,,,,1,,,46,0
15504,note_on,2,0,2,,,,,,,,,1,,,43,105
15550,note_on,46,0,2,,,,,,,,,1,,,43,0
15552,note_on,2,0,2,,,,,,,,,1,,,45,105
15552,note_on,64,0,1,,,,,,,,,0,,,72,105
15598,note_on,46,0,2,,,,,,,,,1,,,45,0
15598,note_on,46,0,1,,,,,,,,,0,,,72,0
15600,note_on,2,0,1,,,,,,,,,0,,,75,105
15600,note_on,2,0,2,,,,,,,,,1,,,48,105
15646,note_on,46,0,1,,,,,,,,,0,,,75,0
15646,note_on,46,0,2,,,,,,,,,1,,,48,0
15648,note_on,2,0,1,,,,,,,,,0,,,74,105
15648,note_on,2,0,2,,,,,,,,,1,,,46,105
15694,note_on,46,0,1,,,,,,,,,0,,,74,0
15694,note_on,46,0,2,,,,,,,,,1,,,46,0
15696,note_on,2,0,1,,,,,,,,,0,,,72,105
15696,note_on,2,0,2,,,,,,,,,1,,,45,105
15742,note_on,46,0,1,,,,,,,,,0,,,72,0
15742,note_on,46,0,2,,,,,,,,,1,,,45,0
15744,note_on,2,0,1,,,,,,,,,0,,,70,105
15744,note_on,2,0,2,,,,,,,,,1,,,43,105
15790,note_on,46,0,2,,,,,,,,,1,,,43,0
15790,note_on,46,0,1,,,,,,,,,0,,,70,0
15792,note_on,2,0,1,,,,,,,,,0,,,69,105
15792,note_on,2,0,2,,,,,,,,,1,,,42,105
15838,note_on,46,0,1,,,,,,,,,0,,,69,0
15838,note_on,46,0,2,,,,,,,,,1,,,42,0
15840,note_on,2,0,1,,,,,,,,,0,,,70,105
15840,note_on,2,0,2,,,,,,,,,1,,,43,105
15886,note_on,46,0,1,,,,,,,,,0,,,70,0
15886,note_on,46,0,2,,,,,,,,,1,,,43,0
15888,note_on,2,0,2,,,,,,,,,1,,,45,98
15888,note_on,2,0,1,,,,,,,,,0,,,69,98
15934,note_on,46,0,2,,,,,,,,,1,,,45,0
15934,note_on,46,0,1,,,,,,,,,0,,,69,0
15936,note_on,2,0,1,,,,,,,,,0,,,67,91
15936,note_on,2,0,2,,,,,,,,,1,,,46,91
15982,note_on,46,0,1,,,,,,,,,0,,,67,0
15982,note_on,46,0,2,,,,,,,,,1,,,46,0
15984,note_on,2,0,2,,,,,,,,,1,,,48,84
15984,note_on,2,0,1,,,,,,,,,0,,,69,84
16030,note_on,46,0,1,,,,,,,,,0,,,69,0
16030,note_on,46,0,2,,,,,,,,,1,,,48,0
16032,note_on,2,0,2,,,,,,,,,1,,,50,77
16032,note_on,2,0,1,,,,,,,,,0,,,70,77
16078,note_on,46,0,1,,,,,,,,,0,,,70,0
16078,note_on,46,0,2,,,,,,,,,1,,,50,0
16080,note_on,2,0,1,,,,,,,,,0,,,67,70
16080,note_on,2,0,2,,,,,,,,,1,,,52,70
16126,note_on,46,0,2,,,,,,,,,1,,,52,0
16126,note_on,46,0,1,,,,,,,,,0,,,67,0
16128,note_on,2,0,2,,,,,,,,,1,,,54,63
16128,note_on,2,0,1,,,,,,,,,0,,,69,63
16174,note_on,46,0,1,,,,,,,,,0,,,69,0
16176,note_on,2,0,1,,,,,,,,,0,,,67,63
16222,note_on,46,0,1,,,,,,,,,0,,,67,0
16224,note_on,0,0,2,,,,,,,,,1,,,50,63
16224,note_on,96,0,2,,,,,,,,,1,,,54,0
16224,note_on,2,0,1,,,,,,,,,0,,,69,63
16256,note_on,32,0,2,,,,,,,,,1,,,50,0
16270,note_on,46,0,1,,,,,,,,,0,,,69,0
16272,note_on,2,0,1,,,,,,,,,0,,,74,63
16318,note_on,46,0,1,,,,,,,,,0,,,74,0
16320,note_on,2,0,1,,,,,,,,,0,,,70,63
16320,note_on,64,0,2,,,,,,,,,1,,,55,63
16352,note_on,32,0,2,,,,,,,,,1,,,55,0
16366,note_on,46,0,1,,,,,,,,,0,,,70,0
16368,note_on,2,0,1,,,,,,,,,0,,,74,63
16414,note_on,46,0,1,,,,,,,,,0,,,74,0
16416,note_on,64,0,2,,,,,,,,,1,,,57,63
16416,note_on,2,0,1,,,,,,,,,0,,,66,63
16462,note_on,46,0,1,,,,,,,,,0,,,66,0
16464,note_on,2,0,1,,,,,,,,,0,,,64,63
16510,note_on,46,0,1,,,,,,,,,0,,,64,0
16512,note_on,96,0,2,,,,,,,,,1,,,57,0
16512,note_on,0,0,2,,,,,,,,,1,,,50,63
16512,note_on,2,0,1,,,,,,,,,0,,,66,63
16544,note_on,32,0,2,,,,,,,,,1,,,50,0
16558,note_on,46,0,1,,,,,,,,,0,,,66,0
16560,note_on,2,0,1,,,,,,,,,0,,,74,63
16606,note_on,46,0,1,,,,,,,,,0,,,74,0
16608,note_on,64,0,2,,,,,,,,,1,,,58,63
16608,note_on,2,0,1,,,,,,,,,0,,,67,63
16640,note_on,32,0,2,,,,,,,,,1,,,58,0
16654,note_on,46,0,1,,,,,,,,,0,,,67,0
16656,note_on,2,0,1,,,,,,,,,0,,,74,63
16702,note_on,46,0,1,,,,,,,,,0,,,74,0
16704,note_on,2,0,1,,,,,,,,,0,,,69,63
16704,note_on,64,0,2,,,,,,,,,1,,,60,63
16750,note_on,46,0,1,,,,,,,,,0,,,69,0
16752,note_on,2,0,1,,,,,,,,,0,,,67,63
16798,note_on,46,0,1,,,,,,,,,0,,,67,0
16800,note_on,2,0,1,,,,,,,,,0,,,69,63
16800,note_on,0,0,2,,,,,,,,,1,,,50,63
16800,note_on,96,0,2,,,,,,,,,1,,,60,0
16832,note_on,32,0,2,,,,,,,,,1,,,50,0
16846,note_on,46,0,1,,,,,,,,,0,,,69,0
16848,note_on,2,0,1,,,,,,,,,0,,,74,63
16894,note_on,46,0,1,,,,,,,,,0,,,74,0
16896,note_on,2,0,1,,,,,,,,,0,,,67,63
16896,note_on,64,0,2,,,,,,,,,1,,,58,63
16928,note_on,32,0,2,,,,,,,,,1,,,58,0
16942,note_on,46,0,1,,,,,,,,,0,,,67,0
16944,note_on,2,0,1,,,,,,,,,0,,,74,63
16990,note_on,46,0,1,,,,,,,,,0,,,74,0
16992,note_on,64,0,2,,,,,,,,,1,,,57,63
16992,note_on,2,0,1,,,,,,,,,0,,,66,63
17038,note_on,46,0,1,,,,,,,,,0,,,66,0
17040,note_on,2,0,1,,,,,,,,,0,,,64,63
17086,note_on,46,0,1,,,,,,,,,0,,,64,0
17088,note_on,0,0,2,,,,,,,,,1,,,50,63
17088,note_on,2,0,1,,,,,,,,,0,,,66,63
17088,note_on,96,0,2,,,,,,,,,1,,,57,0
17120,note_on,32,0,2,,,,,,,,,1,,,50,0
17134,note_on,46,0,1,,,,,,,,,0,,,66,0
17136,note_on,2,0,1,,,,,,,,,0,,,74,63
17182,note_on,46,0,1,,,,,,,,,0,,,74,0
17184,note_on,64,0,2,,,,,,,,,1,,,54,63
17184,note_on,2,0,1,,,,,,,,,0,,,69,63
17216,note_on,32,0,2,,,,,,,,,1,,,54,0
17230,note_on,46,0,1,,,,,,,,,0,,,69,0
17232,note_on,2,0,1,,,,,,,,,0,,,72,63
17278,note_on,46,0,1,,,,,,,,,0,,,72,0
17280,note_on,64,0,2,,,,,,,,,1,,,55,63
17280,note_on,2,0,1,,,,,,,,,0,,,70,63
17326,note_on,46,0,1,,,,,,,,,0,,,70,0
17326,note_on,46,0,2,,,,,,,,,1,,,55,0
17328,note_on,2,0,1,,,,,,,,,0,,,69,65
17328,note_on,2,0,2,,,,,,,,,1,,,54,65
17374,note_on,46,0,2,,,,,,,,,1,,,54,0
17374,note_on,46,0,1,,,,,,,,,0,,,69,0
17376,note_on,2,0,1,,,,,,,,,0,,,70,67
17376,note_on,2,0,2,,,,,,,,,1,,,55,67
17422,note_on,46,0,1,,,,,,,,,0,,,70,0
17422,note_on,46,0,2,,,,,,,,,1,,,55,0
17424,note_on,2,0,1,,,,,,,,,0,,,74,69
17424,note_on,2,0,2,,,,,,,,,1,,,58,69
17470,note_on,46,0,2,,,,,,,,,1,,,58,0
17470,note_on,46,0,1,,,,,,,,,0,,,74,0
17472,note_on,2,0,1,,,,,,,,,0,,,76,71
17472,note_on,2,0,2,,,,,,,,,1,,,55,71
17518,note_on,46,0,1,,,,,,,,,0,,,76,0
17518,note_on,46,0,2,,,,,,,,,1,,,55,0
17520,note_on,2,0,1,,,,,,,,,0,,,79,73
17520,note_on,2,0,2,,,,,,,,,1,,,52,73
17566,note_on,46,0,1,,,,,,,,,0,,,79,0
17566,note_on,46,0,2,,,,,,,,,1,,,52,0
17568,note_on,2,0,2,,,,,,,,,1,,,49,75
17568,note_on,2,0,1,,,,,,,,,0,,,69,75
17614,note_on,46,0,2,,,,,,,,,1,,,49,0
17616,note_on,2,0,2,,,,,,,,,1,,,47,77
17662,note_on,46,0,2,,,,,,,,,1,,,47,0
17664,note_on,2,0,2,,,,,,,,,1,,,49,79
17710,note_on,46,0,2,,,,,,,,,1,,,49,0
17712,note_on,2,0,2,,,,,,,,,1,,,52,81
17728,note_on,160,0,1,,,,,,,,,0,,,69,0
17758,note_on,46,0,2,,,,,,,,,1,,,52,0
17760,note_on,32,0,1,,,,,,,,,0,,,81,85
17760,note_on,2,0,2,,,,,,,,,1,,,49,83
17792,note_on,32,0,1,,,,,,,,,0,,,81,0
17806,note_on,46,0,2,,,,,,,,,1,,,49,0
17808,note_on,2,0,2,,,,,,,,,1,,,45,85
17854,note_on,46,0,2,,,,,,,,,1,,,45,0
17856,note_on,2,0,2,,,,,,,,,1,,,41,87
17856,note_on,64,0,1,,,,,,,,,0,,,74,90
17888,note_on,32,0,2,,,,,,,,,1,,,41,0
17902,note_on,46,0,1,,,,,,,,,0,,,74,0
17904,note_on,2,0,1,,,,,,,,,0,,,77,127
17952,note_on,64,0,2,,,,,,,,,1,,,43,93
17984,note_on,32,0,2,,,,,,,,,1,,,43,0
17998,note_on,94,0,1,,,,,,,,,0,,,77,0
18000,note_on,2,0,1,,,,,,,,,0,,,76,97
18046,note_on,46,0,1,,,,,,,,,0,,,76,0
18048,note_on,2,0,1,,,,,,,,,0,,,74,99
18048,note_on,64,0,2,,,,,,,,,1,,,45,99
18080,note_on,32,0,2,,,,,,,,,1,,,45,0
18094,note_on,46,0,1,,,,,,,,,0,,,74,0
18096,note_on,2,0,1,,,,,,,,,0,,,73,102
18142,note_on,46,0,1,,,,,,,,,0,,,73,0
18144,note_on,2,0,1,,,,,,,,,0,,,74,105
18144,note_on,64,0,2,,,,,,,,,1,,,50,105
18190,note_on,46,0,2,,,,,,,,,1,,,50,0
18190,note_on,46,0,1,,,,,,,,,0,,,74,0
18192,note_on,2,0,2,,,,,,,,,1,,,49,105
18192,note_on,2,0,1,,,,,,,,,0,,,76,105
18238,note_on,46,0,2,,,,,,,,,1,,,49,0
18238,note_on,46,0,1,,,,,,,,,0,,,76,0
18240,note_on,2,0,2,,,,,,,,,1,,,50,105
18240,note_on,2,0,1,,,,,,,,,0,,,77,105
18286,note_on,46,0,1,,,,,,,,,0,,,77,0
18286,note_on,46,0,2,,,,,,,,,1,,,50,0
18288,note_on,2,0,1,,,,,,,,,0,,,76,105
18288,note_on,2,0,2,,,,,,,,,1,,,45,105
18334,note_on,46,0,2,,,,,,,,,1,,,45,0
18334,note_on,46,0,1,,,,,,,,,0,,,76,0
18336,note_on,2,0,2,,,,,,,,,1,,,50,105
18336,note_on,2,0,1,,,,,,,,,0,,,77,105
18382,note_on,46,0,2,,,,,,,,,1,,,50,0
18382,note_on,46,0,1,,,,,,,,,0,,,77,0
18384,note_on,2,0,2,,,,,,,,,1,,,53,105
18384,note_on,2,0,1,,,,,,,,,0,,,74,105
18430,note_on,46,0,2,,,,,,,,,1,,,53,0
18430,note_on,46,0,1,,,,,,,,,0,,,74,0
18432,note_on,2,0,2,,,,,,,,,1,,,52,105
18432,note_on,2,0,1,,,,,,,,,0,,,73,105
18464,note_on,32,0,1,,,,,,,,,0,,,73,0
18478,note_on,46,0,2,,,,,,,,,1,,,52,0
18480,note_on,2,0,2,,,,,,,,,1,,,50,105
18526,note_on,46,0,2,,,,,,,,,1,,,50,0
18528,note_on,2,0,2,,,,,,,,,1,,,52,105
18528,note_on,64,0,1,,,,,,,,,0,,,81,127
18574,note_on,46,0,2,,,,,,,,,1,,,52,0
18576,note_on,2,0,2,,,,,,,,,1,,,45,105
18622,note_on,46,0,2,,,,,,,,,1,,,45,0
18624,note_on,2,0,2,,,,,,,,,1,,,52,105
18670,note_on,46,0,2,,,,,,,,,1,,,52,0
18672,note_on,2,0,2,,,,,,,,,1,,,55,105
18718,note_on,46,0,2,,,,,,,,,1,,,55,0
18720,note_on,2,0,2,,,,,,,,,1,,,54,105
18766,note_on,46,0,2,,,,,,,,,1,,,54,0
18768,note_on,2,0,2,,,,,,,,,1,,,52,105
18814,note_on,286,0,1,,,,,,,,,0,,,81,0
18814,note_on,46,0,2,,,,,,,,,1,,,52,0
18816,note_on,2,0,1,,,,,,,,,0,,,74,105
18816,note_on,2,0,2,,,,,,,,,1,,,54,105
18848,note_on,32,0,1,,,,,,,,,0,,,74,0
18862,note_on,46,0,2,,,,,,,,,1,,,54,0
18864,note_on,2,0,2,,,,,,,,,1,,,50,105
18910,note_on,46,0,2,,,,,,,,,1,,,50,0
18912,note_on,64,0,1,,,,,,,,,0,,,72,127
18912,note_on,2,0,2,,,,,,,,,1,,,54,105
18958,note_on,46,0,2,,,,,,,,,1,,,54,0
18960,note_on,2,0,2,,,,,,,,,1,,,57,105
19006,note_on,46,0,2,,,,,,,,,1,,,57,0
19008,note_on,2,0,2,,,,,,,,,1,,,55,105
19054,note_on,46,0,2,,,,,,,,,1,,,55,0
19056,note_on,2,0,2,,,,,,,,,1,,,54,105
19102,note_on,190,0,1,,,,,,,,,0,,,72,0
19102,note_on,46,0,2,,,,,,,,,1,,,54,0
19104,note_on,2,0,2,,,,,,,,,1,,,55,105
19104,note_on,2,0,1,,,,,,,,,0,,,70,105
19150,note_on,46,0,2,,,,,,,,,1,,,55,0
19152,note_on,2,0,2,,,,,,,,,1,,,50,105
19198,note_on,46,0,2,,,,,,,,,1,,,50,0
19200,note_on,2,0,2,,,,,,,,,1,,,55,105
19246,note_on,46,0,2,,,,,,,,,1,,,55,0
19248,note_on,2,0,2,,,,,,,,,1,,,58,105
19294,note_on,46,0,2,,,,,,,,,1,,,58,0
19296,note_on,2,0,2,,,,,,,,,1,,,49,105
19328,note_on,32,0,2,,,,,,,,,1,,,49,0
19342,note_on,238,0,1,,,,,,,,,0,,,70,0
19344,note_on,2,0,1,,,,,,,,,0,,,69,105
19390,note_on,46,0,1,,,,,,,,,0,,,69,0
19392,note_on,64,0,2,,,,,,,,,1,,,45,105
19392,note_on,2,0,1,,,,,,,,,0,,,67,105
19424,note_on,32,0,2,,,,,,,,,1,,,45,0
19438,note_on,46,0,1,,,,,,,,,0,,,67,0
19440,note_on,2,0,1,,,,,,,,,0,,,65,105
19486,note_on,46,0,1,,,,,,,,,0,,,65,0
19488,note_on,64,0,2,,,,,,,,,1,,,55,105
19488,note_on,2,0,1,,,,,,,,,0,,,64,105
19520,note_on,32,0,2,,,,,,,,,1,,,55,0
19534,note_on,46,0,1,,,,,,,,,0,,,64,0
19536,note_on,2,0,1,,,,,,,,,0,,,73,105
19582,note_on,46,0,1,,,,,,,,,0,,,73,0
19584,note_on,64,0,2,,,,,,,,,1,,,53,105
19584,note_on,2,0,1,,,,,,,,,0,,,74,105
19630,note_on,46,0,2,,,,,,,,,1,,,53,0
19630,note_on,46,0,1,,,,,,,,,0,,,74,0
19632,note_on,2,0,2,,,,,,,,,1,,,55,105
19632,note_on,2,0,1,,,,,,,,,0,,,76,105
19678,note_on,46,0,1,,,,,,,,,0,,,76,0
19678,note_on,46,0,2,,,,,,,,,1,,,55,0
19680,note_on,2,0,2,,,,,,,,,1,,,53,105
19680,note_on,2,0,1,,,,,,,,,0,,,74,105
19726,note_on,46,0,2,,,,,,,,,1,,,53,0
19726,note_on,46,0,1,,,,,,,,,0,,,74,0
19728,note_on,2,0,2,,,,,,,,,1,,,52,105
19728,note_on,2,0,1,,,,,,,,,0,,,73,105
19774,note_on,46,0,2,,,,,,,,,1,,,52,0
19774,note_on,46,0,1,,,,,,,,,0,,,73,0
19776,note_on,2,0,2,,,,,,,,,1,,,53,105
19776,note_on,2,0,1,,,,,,,,,0,,,74,105
19822,note_on,46,0,1,,,,,,,,,0,,,74,0
19822,note_on,46,0,2,,,,,,,,,1,,,53,0
19824,note_on,2,0,2,,,,,,,,,1,,,50,105
19824,note_on,2,0,1,,,,,,,,,0,,,77,105
19870,note_on,46,0,2,,,,,,,,,1,,,50,0
19870,note_on,46,0,1,,,,,,,,,0,,,77,0
19872,note_on,2,0,1,,,,,,,,,0,,,67,105
19872,note_on,2,0,2,,,,,,,,,1,,,58,105
19904,note_on,32,0,1,,,,,,,,,0,,,67,0
19918,note_on,46,0,2,,,,,,,,,1,,,58,0
19920,note_on,2,0,2,,,,,,,,,1,,,60,105
19966,note_on,46,0,2,,,,,,,,,1,,,60,0
19968,note_on,64,0,1,,,,,,,,,0,,,73,105
19968,note_on,2,0,2,,,,,,,,,1,,,58,105
20000,note_on,32,0,1,,,,,,,,,0,,,73,0
20014,note_on,46,0,2,,,,,,,,,1,,,58,0
20016,note_on,2,0,2,,,,,,,,,1,,,57,105
20062,note_on,46,0,2,,,,,,,,,1,,,57,0
20064,note_on,64,0,1,,,,,,,,,0,,,76,127
20064,note_on,0,0,1,,,,,,,,,0,,,76,105
20064,note_on,2,0,2,,,,,,,,,1,,,58,105
20110,note_on,46,0,2,,,,,,,,,1,,,58,0
20112,note_on,2,0,2,,,,,,,,,1,,,55,105
20158,note_on,94,0,1,,,,,,,,,0,,,76,0
20158,note_on,46,0,2,,,,,,,,,1,,,55,0
20160,note_on,2,0,2,,,,,,,,,1,,,53,105
20192,note_on,32,0,2,,,,,,,,,1,,,53,0
20206,note_on,48,0,1,,,,,,,,,0,,,76,0
20208,note_on,2,0,1,,,,,,,,,0,,,70,105
20254,note_on,46,0,1,,,,,,,,,0,,,70,0
20256,note_on,64,0,2,,,,,,,,,1,,,55,105
20256,note_on,2,0,1,,,,,,,,,0,,,69,105
20288,note_on,32,0,2,,,,,,,,,1,,,55,0
20302,note_on,46,0,1,,,,,,,,,0,,,69,0
20304,note_on,2,0,1,,,,,,,,,0,,,67,105
20350,note_on,46,0,1,,,,,,,,,0,,,67,0
20352,note_on,64,0,2,,,,,,,,,1,,,57,105
20352,note_on,2,0,1,,,,,,,,,0,,,65,105
20384,note_on,32,0,2,,,,,,,,,1,,,57,0
20398,note_on,46,0,1,,,,,,,,,0,,,65,0
20400,note_on,2,0,1,,,,,,,,,0,,,64,105
20446,note_on,46,0,1,,,,,,,,,0,,,64,0
20448,note_on,0,0,1,,,,,,,,,0,,,62,105
20448,note_on,2,0,1,,,,,,,,,0,,,53,105
20496,note_on,112,0,2,,,,,,,,,1,,,50,98
20542,note_on,46,0,2,,,,,,,,,1,,,50,0
20544,note_on,2,0,2,,,,,,,,,1,,,45,91
20590,note_on,46,0,2,,,,,,,,,1,,,45,0
20592,note_on,2,0,2,,,,,,,,,1,,,41,84
20638,note_on,46,0,2,,,,,,,,,1,,,41,0
20640,note_on,2,0,2,,,,,,,,,1,,,38,77
20704,note_on,256,0,1,,,,,,,,,0,,,62,0
20704,note_on,0,0,1,,,,,,,,,0,,,53,0
20734,note_on,94,0,2,,,,,,,,,1,,,38,0
20736,note_on,32,0,1,,,,,,,,,0,,,81,105
20736,note_on,2,0,2,,,,,,,,,1,,,65,105
20736,end_of_track,0,1,0,,,,,,,,,,,,,
20736,marker,6912,1,0,,,,,,,,,,,,,
20782,note_on,46,0,1,,,,,,,,,0,,,81,0
20784,note_on,2,0,1,,,,,,,,,0,,,82,105
20830,note_on,46,0,1,,,,,,,,,0,,,82,0
20832,note_on,2,0,1,,,,,,,,,0,,,81,105
20832,note_on,96,0,2,,,,,,,,,1,,,65,0
20832,note_on,0,0,2,,,,,,,,,1,,,53,105
20864,note_on,32,0,2,,,,,,,,,1,,,53,0
20878,note_on,46,0,1,,,,,,,,,0,,,81,0
20880,note_on,2,0,1,,,,,,,,,0,,,84,105
20926,note_on,46,0,1,,,,,,,,,0,,,84,0
20928,note_on,2,0,1,,,,,,,,,0,,,81,105
20928,note_on,64,0,2,,,,,,,,,1,,,65,105
20960,note_on,32,0,2,,,,,,,,,1,,,65,0
20974,note_on,46,0,1,,,,,,,,,0,,,81,0
20976,note_on,2,0,1,,,,,,,,,0,,,77,105
21022,note_on,46,0,1,,,,,,,,,0,,,77,0
21024,note_on,2,0,1,,,,,,,,,0,,,79,105
21024,note_on,64,0,2,,,,,,,,,1,,,64,105
21070,note_on,46,0,1,,,,,,,,,0,,,79,0
21072,note_on,2,0,1,,,,,,,,,0,,,81,105
21118,note_on,46,0,1,,,,,,,,,0,,,81,0
21120,note_on,0,0,2,,,,,,,,,1,,,57,105
21120,note_on,96,0,2,,,,,,,,,1,,,64,0
21120,note_on,2,0,1,,,,,,,,,0,,,79,105
21152,note_on,32,0,2,,,,,,,,,1,,,57,0
21166,note_on,46,0,1,,,,,,,,,0,,,79,0
21168,note_on,2,0,1,,,,,,,,,0,,,84,105
21214,note_on,46,0,1,,,,,,,,,0,,,84,0
21216,note_on,2,0,1,,,,,,,,,0,,,79,105
21216,note_on,64,0,2,,,,,,,,,1,,,60,105
21248,note_on,32,0,2,,,,,,,,,1,,,60,0
21262,note_on,46,0,1,,,,,,,,,0,,,79,0
21264,note_on,2,0,1,,,,,,,,,0,,,76,105
21310,note_on,46,0,1,,,,,,,,,0,,,76,0
21312,note_on,2,0,1,,,,,,,,,0,,,77,105
21312,note_on,64,0,2,,,,,,,,,1,,,62,105
21344,note_on,32,0,2,,,,,,,,,1,,,62,0
21358,note_on,46,0,1,,,,,,,,,0,,,77,0
21360,note_on,2,0,1,,,,,,,,,0,,,81,105
21406,note_on,46,0,1,,,,,,,,,0,,,81,0
21408,note_on,2,0,1,,,,,,,,,0,,,79,105
21408,note_on,64,0,2,,,,,,,,,1,,,59,105
21440,note_on,32,0,2,,,,,,,,,1,,,59,0
21454,note_on,46,0,1,,,,,,,,,0,,,79,0
21456,note_on,2,0,1,,,,,,,,,0,,,77,105
21502,note_on,46,0,1,,,,,,,,,0,,,77,0
21504,note_on,2,0,1,,,,,,,,,0,,,76,105
21504,note_on,64,0,2,,,,,,,,,1,,,55,105
21536,note_on,32,0,2,,,,,,,,,1,,,55,0
21550,note_on,46,0,1,,,,,,,,,0,,,76,0
21552,note_on,2,0,1,,,,,,,,,0,,,74,105
21598,note_on,46,0,1,,,,,,,,,0,,,74,0
21600,note_on,64,0,2,,,,,,,,,1,,,60,105
21600,note_on,2,0,1,,,,,,,,,0,,,76,105
21632,note_on,32,0,2,,,,,,,,,1,,,60,0
21646,note_on,46,0,1,,,,,,,,,0,,,76,0
21648,note_on,2,0,1,,,,,,,,,0,,,74,105
21694,note_on,46,0,1,,,,,,,,,0,,,74,0
21696,note_on,64,0,2,,,,,,,,,1,,,52,105
21696,note_on,2,0,1,,,,,,,,,0,,,72,105
21728,note_on,32,0,2,,,,,,,,,1,,,52,0
21742,note_on,46,0,1,,,,,,,,,0,,,72,0
21744,note_on,2,0,1,,,,,,,,,0,,,74,105
21790,note_on,46,0,1,,,,,,,,,0,,,74,0
21792,note_on,64,0,2,,,,,,,,,1,,,55,105
21792,note_on,2,0,1,,,,,,,,,0,,,76,105
21824,note_on,32,0,2,,,,,,,,,1,,,55,0
21838,note_on,46,0,1,,,,,,,,,0,,,76,0
21840,note_on,2,0,1,,,,,,,,,0,,,77,105
21886,note_on,46,0,1,,,,,,,,,0,,,77,0
21888,note_on,64,0,2,,,,,,,,,1,,,48,105
21888,note_on,2,0,1,,,,,,,,,0,,,79,105
21920,note_on,32,0,1,,,,,,,,,0,,,79,0
21934,note_on,46,0,2,,,,,,,,,1,,,48,0
21936,note_on,2,0,2,,,,,,,,,1,,,50,105
21982,note_on,46,0,2,,,,,,,,,1,,,50,0
21984,note_on,64,0,1,,,,,,,,,0,,,78,105
21984,note_on,2,0,2,,,,,,,,,1,,,48,105
22030,note_on,46,0,2,,,,,,,,,1,,,48,0
22030,note_on,46,0,1,,,,,,,,,0,,,78,0
22032,note_on,2,0,2,,,,,,,,,1,,,51,105
22032,note_on,2,0,1,,,,,,,,,0,,,79,105
22078,note_on,46,0,1,,,,,,,,,0,,,79,0
22078,note_on,46,0,2,,,,,,,,,1,,,51,0
22080,note_on,2,0,2,,,,,,,,,1,,,48,105
22080,note_on,2,0,1,,,,,,,,,0,,,81,105
22126,note_on,46,0,1,,,,,,,,,0,,,81,0
22126,note_on,46,0,2,,,,,,,,,1,,,48,0
22128,note_on,2,0,1,,,,,,,,,0,,,78,105
22128,note_on,2,0,2,,,,,,,,,1,,,45,105
22174,note_on,46,0,2,,,,,,,,,1,,,45,0
22174,note_on,46,0,1,,,,,,,,,0,,,78,0
22176,note_on,2,0,1,,,,,,,,,0,,,79,105
22176,note_on,2,0,2,,,,,,,,,1,,,46,105
22222,note_on,46,0,2,,,,,,,,,1,,,46,0
22224,note_on,2,0,2,,,,,,,,,1,,,48,105
22270,note_on,46,0,2,,,,,,,,,1,,,48,0
22272,note_on,2,0,2,,,,,,,,,1,,,46,105
22272,note_on,0,0,1,,,,,,,,,0,,,74,105
22272,note_on,96,0,1,,,,,,,,,0,,,79,0
22304,note_on,32,0,1,,,,,,,,,0,,,74,0
22318,note_on,46,0,2,,,,,,,,,1,,,46,0
22320,note_on,2,0,2,,,,,,,,,1,,,50,105
22366,note_on,46,0,2,,,,,,,,,1,,,50,0
22368,note_on,2,0,2,,,,,,,,,1,,,46,105
22368,note_on,64,0,1,,,,,,,,,0,,,75,105
22400,note_on,32,0,1,,,,,,,,,0,,,75,0
22414,note_on,46,0,2,,,,,,,,,1,,,46,0
22416,note_on,2,0,2,,,,,,,,,1,,,43,105
22462,note_on,46,0,2,,,,,,,,,1,,,43,0
22464,note_on,64,0,1,,,,,,,,,0,,,72,105
22464,note_on,2,0,2,,,,,,,,,1,,,45,105
22510,note_on,46,0,2,,,,,,,,,1,,,45,0
22510,note_on,46,0,1,,,,,,,,,0,,,72,0
22512,note_on,2,0,2,,,,,,,,,1,,,48,105
22512,note_on,2,0,1,,,,,,,,,0,,,75,105
22558,note_on,46,0,2,,,,,,,,,1,,,48,0
22558,note_on,46,0,1,,,,,,,,,0,,,75,0
22560,note_on,2,0,2,,,,,,,,,1,,,46,105
22560,note_on,2,0,1,,,,,,,,,0,,,74,105
22606,note_on,46,0,1,,,,,,,,,0,,,74,0
22606,note_on,46,0,2,,,,,,,,,1,,,46,0
22608,note_on,2,0,2,,,,,,,,,1,,,45,105
22608,note_on,2,0,1,,,,,,,,,0,,,72,105
22654,note_on,46,0,1,,,,,,,,,0,,,72,0
22654,note_on,46,0,2,,,,,,,,,1,,,45,0
22656,note_on,2,0,1,,,,,,,,,0,,,70,105
22656,note_on,2,0,2,,,,,,,,,1,,,43,105
22702,note_on,46,0,2,,,,,,,,,1,,,43,0
22702,note_on,46,0,1,,,,,,,,,0,,,70,0
22704,note_on,2,0,2,,,,,,,,,1,,,42,105
22704,note_on,2,0,1,,,,,,,,,0,,,69,105
22750,note_on,46,0,2,,,,,,,,,1,,,42,0
22750,note_on,46,0,1,,,,,,,,,0,,,69,0
22752,note_on,2,0,2,,,,,,,,,1,,,43,105
22752,note_on,2,0,1,,,,,,,,,0,,,70,105
22798,note_on,46,0,2,,,,,,,,,1,,,43,0
22798,note_on,46,0,1,,,,,,,,,0,,,70,0
22800,note_on,2,0,2,,,,,,,,,1,,,45,98
22800,note_on,2,0,1,,,,,,,,,0,,,69,98
22846,note_on,46,0,2,,,,,,,,,1,,,45,0
22846,note_on,46,0,1,,,,,,,,,0,,,69,0
22848,note_on,2,0,1,,,,,,,,,0,,,67,91
22848,note_on,2,0,2,,,,,,,,,1,,,46,91
22894,note_on,46,0,2,,,,,,,,,1,,,46,0
22894,note_on,46,0,1,,,,,,,,,0,,,67,0
22896,note_on,2,0,2,,,,,,,,,1,,,48,84
22896,note_on,2,0,1,,,,,,,,,0,,,69,84
22942,note_on,46,0,2,,,,,,,,,1,,,48,0
22942,note_on,46,0,1,,,,,,,,,0,,,69,0
22944,note_on,2,0,2,,,,,,,,,1,,,50,77
22944,note_on,2,0,1,,,,,,,,,0,,,70,77
22990,note_on,46,0,2,,,,,,,,,1,,,50,0
22990,note_on,46,0,1,,,,,,,,,0,,,70,0
22992,note_on,2,0,1,,,,,,,,,0,,,67,70
22992,note_on,2,0,2,,,,,,,,,1,,,52,70
23038,note_on,46,0,2,,,,,,,,,1,,,52,0
23038,note_on,46,0,1,,,,,,,,,0,,,67,0
23040,note_on,2,0,1,,,,,,,,,0,,,69,63
23040,note_on,2,0,2,,,,,,,,,1,,,54,63
23086,note_on,46,0,1,,,,,,,,,0,,,69,0
23088,note_on,2,0,1,,,,,,,,,0,,,67,63
23134,note_on,46,0,1,,,,,,,,,0,,,67,0
23136,note_on,0,0,2,,,,,,,,,1,,,50,63
23136,note_on,2,0,1,,,,,,,,,0,,,69,63
23136,note_on,96,0,2,,,,,,,,,1,,,54,0
23168,note_on,32,0,2,,,,,,,,,1,,,50,0
23182,note_on,46,0,1,,,,,,,,,0,,,69,0
23184,note_on,2,0,1,,,,,,,,,0,,,74,63
23230,note_on,46,0,1,,,,,,,,,0,,,74,0
23232,note_on,2,0,1,,,,,,,,,0,,,70,63
23232,note_on,64,0,2,,,,,,,,,1,,,55,63
23264,note_on,32,0,2,,,,,,,,,1,,,55,0
23278,note_on,46,0,1,,,,,,,,,0,,,70,0
23280,note_on,2,0,1,,,,,,,,,0,,,74,63
23326,note_on,46,0,1,,,,,,,,,0,,,74,0
23328,note_on,2,0,1,,,,,,,,,0,,,66,63
23328,note_on,64,0,2,,,,,,,,,1,,,57,63
23374,note_on,46,0,1,,,,,,,,,0,,,66,0
23376,note_on,2,0,1,,,,,,,,,0,,,64,63
23422,note_on,46,0,1,,,,,,,,,0,,,64,0
23424,note_on,0,0,2,,,,,,,,,1,,,50,63
23424,note_on,96,0,2,,,,,,,,,1,,,57,0
23424,note_on,2,0,1,,,,,,,,,0,,,66,63
23456,note_on,32,0,2,,,,,,,,,1,,,50,0
23470,note_on,46,0,1,,,,,,,,,0,,,66,0
23472,note_on,2,0,1,,,,,,,,,0,,,74,63
23518,note_on,46,0,1,,,,,,,,,0,,,74,0
23520,note_on,2,0,1,,,,,,,,,0,,,67,63
23520,note_on,64,0,2,,,,,,,,,1,,,58,63
23552,note_on,32,0,2,,,,,,,,,1,,,58,0
23566,note_on,46,0,1,,,,,,,,,0,,,67,0
23568,note_on,2,0,1,,,,,,,,,0,,,74,63
23614,note_on,46,0,1,,,,,,,,,0,,,74,0
23616,note_on,2,0,1,,,,,,,,,0,,,69,63
23616,note_on,64,0,2,,,,,,,,,1,,,60,63
23662,note_on,46,0,1,,,,,,,,,0,,,69,0
23664,note_on,2,0,1,,,,,,,,,0,,,67,63
23710,note_on,46,0,1,,,,,,,,,0,,,67,0
23712,note_on,2,0,1,,,,,,,,,0,,,69,63
23712,note_on,96,0,2,,,,,,,,,1,,,60,0
23712,note_on,0,0,2,,,,,,,,,1,,,50,63
23744,note_on,32,0,2,,,,,,,,,1,,,50,0
23758,note_on,46,0,1,,,,,,,,,0,,,69,0
23760,note_on,2,0,1,,,,,,,,,0,,,74,63
23806,note_on,46,0,1,,,,,,,,,0,,,74,0
23808,note_on,64,0,2,,,,,,,,,1,,,58,63
23808,note_on,2,0,1,,,,,,,,,0,,,67,63
23840,note_on,32,0,2,,,,,,,,,1,,,58,0
23854,note_on,46,0,1,,,,,,,,,0,,,67,0
23856,note_on,2,0,1,,,,,,,,,0,,,74,63
23902,note_on,46,0,1,,,,,,,,,0,,,74,0
23904,note_on,2,0,1,,,,,,,,,0,,,66,63
23904,note_on,64,0,2,,,,,,,,,1,,,57,63
23950,note_on,46,0,1,,,,,,,,,0,,,66,0
23952,note_on,2,0,1,,,,,,,,,0,,,64,63
23998,note_on,46,0,1,,,,,,,,,0,,,64,0
24000,note_on,2,0,1,,,,,,,,,0,,,66,63
24000,note_on,0,0,2,,,,,,,,,1,,,50,63
24000,note_on,96,0,2,,,,,,,,,1,,,57,0
24032,note_on,32,0,2,,,,,,,,,1,,,50,0
24046,note_on,46,0,1,,,,,,,,,0,,,66,0
24048,note_on,2,0,1,,,,,,,,,0,,,74,63
24094,note_on,46,0,1,,,,,,,,,0,,,74,0
24096,note_on,2,0,1,,,,,,,,,0,,,69,63
24096,note_on,64,0,2,,,,,,,,,1,,,54,63
24128,note_on,32,0,2,,,,,,,,,1,,,54,0
24142,note_on,46,0,1,,,,,,,,,0,,,69,0
24144,note_on,2,0,1,,,,,,,,,0,,,72,63
24190,note_on,46,0,1,,,,,,,,,0,,,72,0
24192,note_on,64,0,2,,,,,,,,,1,,,55,63
24192,note_on,2,0,1,,,,,,,,,0,,,70,63
24238,note_on,46,0,1,,,,,,,,,0,,,70,0
24238,note_on,46,0,2,,,,,,,,,1,,,55,0
24240,note_on,2,0,1,,,,,,,,,0,,,69,65
24240,note_on,2,0,2,,,,,,,,,1,,,54,65
24286,note_on,46,0,2,,,,,,,,,1,,,54,0
24286,note_on,46,0,1,,,,,,,,,0,,,69,0
24288,note_on,2,0,2,,,,,,,,,1,,,55,67
24288,note_on,2,0,1,,,,,,,,,0,,,70,67
24334,note_on,46,0,2,,,,,,,,,1,,,55,0
24334,note_on,46,0,1,,,,,,,,,0,,,70,0
24336,note_on,2,0,2,,,,,,,,,1,,,58,69
24336,note_on,2,0,1,,,,,,,,,0,,,74,69
24382,note_on,46,0,2,,,,,,,,,1,,,58,0
24382,note_on,46,0,1,,,,,,,,,0,,,74,0
24384,note_on,2,0,2,,,,,,,,,1,,,55,71
24384,note_on,2,0,1,,,,,,,,,0,,,76,71
24430,note_on,46,0,1,,,,,,,,,0,,,76,0
24430,note_on,46,0,2,,,,,,,,,1,,,55,0
24432,note_on,2,0,2,,,,,,,,,1,,,52,73
24432,note_on,2,0,1,,,,,,,,,0,,,79,73
24478,note_on,46,0,2,,,,,,,,,1,,,52,0
24478,note_on,46,0,1,,,,,,,,,0,,,79,0
24480,note_on,2,0,1,,,,,,,,,0,,,69,75
24480,note_on,2,0,2,,,,,,,,,1,,,49,75
24526,note_on,46,0,2,,,,,,,,,1,,,49,0
24528,note_on,2,0,2,,,,,,,,,1,,,47,77
24574,note_on,46,0,2,,,,,,,,,1,,,47,0
24576,note_on,2,0,2,,,,,,,,,1,,,49,79
24622,note_on,46,0,2,,,,,,,,,1,,,49,0
24624,note_on,2,0,2,,,,,,,,,1,,,52,81
24640,note_on,160,0,1,,,,,,,,,0,,,69,0
24670,note_on,46,0,2,,,,,,,,,1,,,52,0
24672,note_on,2,0,2,,,,,,,,,1,,,49,83
24672,note_on,32,0,1,,,,,,,,,0,,,81,85
24704,note_on,32,0,1,,,,,,,,,0,,,81,0
24718,note_on,46,0,2,,,,,,,,,1,,,49,0
24720,note_on,2,0,2,,,,,,,,,1,,,45,85
24766,note_on,46,0,2,,,,,,,,,1,,,45,0
24768,note_on,64,0,1,,,,,,,,,0,,,74,90
24768,note_on,2,0,2,,,,,,,,,1,,,41,87
24800,note_on,32,0,2,,,,,,,,,1,,,41,0
24814,note_on,46,0,1,,,,,,,,,0,,,74,0
24816,note_on,2,0,1,,,,,,,,,0,,,77,127
24864,note_on,64,0,2,,,,,,,,,1,,,43,93
24896,note_on,32,0,2,,,,,,,,,1,,,43,0
24910,note_on,94,0,1,,,,,,,,,0,,,77,0
24912,note_on,2,0,1,,,,,,,,,0,,,76,97
24958,note_on,46,0,1,,,,,,,,,0,,,76,0
24960,note_on,2,0,1,,,,,,,,,0,,,74,99
24960,note_on,64,0,2,,,,,,,,,1,,,45,99
24992,note_on,32,0,2,,,,,,,,,1,,,45,0
25006,note_on,46,0,1,,,,,,,,,0,,,74,0
25008,note_on,2,0,1,,,,,,,,,0,,,73,102
25054,note_on,46,0,1,,,,,,,,,0,,,73,0
25056,note_on,64,0,2,,,,,,,,,1,,,50,105
25056,note_on,2,0,1,,,,,,,,,0,,,74,105
25102,note_on,46,0,2,,,,,,,,,1,,,50,0
25102,note_on,46,0,1,,,,,,,,,0,,,74,0
25104,note_on,2,0,1,,,,,,,,,0,,,76,105
25104,note_on,2,0,2,,,,,,,,,1,,,49,105
25150,note_on,46,0,2,,,,,,,,,1,,,49,0
25150,note_on,46,0,1,,,,,,,,,0,,,76,0
25152,note_on,2,0,2,,,,,,,,,1,,,50,105
25152,note_on,2,0,1,,,,,,,,,0,,,77,105
25198,note_on,46,0,1,,,,,,,,,0,,,77,0
25198,note_on,46,0,2,,,,,,,,,1,,,50,0
25200,note_on,2,0,2,,,,,,,,,1,,,45,105
25200,note_on,2,0,1,,,,,,,,,0,,,76,105
25246,note_on,46,0,2,,,,,,,,,1,,,45,0
25246,note_on,46,0,1,,,,,,,,,0,,,76,0
25248,note_on,2,0,1,,,,,,,,,0,,,77,105
25248,note_on,2,0,2,,,,,,,,,1,,,50,105
25294,note_on,46,0,2,,,,,,,,,1,,,50,0
25294,note_on,46,0,1,,,,,,,,,0,,,77,0
25296,note_on,2,0,2,,,,,,,,,1,,,53,105
25296,note_on,2,0,1,,,,,,,,,0,,,74,105
25342,note_on,46,0,1,,,,,,,,,0,,,74,0
25342,note_on,46,0,2,,,,,,,,,1,,,53,0
25344,note_on,2,0,1,,,,,,,,,0,,,73,105
25344,note_on,2,0,2,,,,,,,,,1,,,52,105
25376,note_on,32,0,1,,,,,,,,,0,,,73,0
25390,note_on,46,0,2,,,,,,,,,1,,,52,0
25392,note_on,2,0,2,,,,,,,,,1,,,50,105
25438,note_on,46,0,2,,,,,,,,,1,,,50,0
25440,note_on,64,0,1,,,,,,,,,0,,,81,127
25440,note_on,2,0,2,,,,,,,,,1,,,52,105
25486,note_on,46,0,2,,,,,,,,,1,,,52,0
25488,note_on,2,0,2,,,,,,,,,1,,,45,105
25534,note_on,46,0,2,,,,,,,,,1,,,45,0
25536,note_on,2,0,2,,,,,,,,,1,,,52,105
25582,note_on,46,0,2,,,,,,,,,1,,,52,0
25584,note_on,2,0,2,,,,,,,,,1,,,55,105
25630,note_on,46,0,2,,,,,,,,,1,,,55,0
25632,note_on,2,0,2,,,,,,,,,1,,,54,105
25678,note_on,46,0,2,,,,,,,,,1,,,54,0
25680,note_on,2,0,2,,,,,,,,,1,,,52,105
25726,note_on,46,0,2,,,,,,,,,1,,,52,0
25726,note_on,286,0,1,,,,,,,,,0,,,81,0
25728,note_on,2,0,2,,,,,,,,,1,,,54,105
25728,note_on,2,0,1,,,,,,,,,0,,,74,105
25760,note_on,32,0,1,,,,,,,,,0,,,74,0
25774,note_on,46,0,2,,,,,,,,,1,,,54,0
25776,note_on,2,0,2,,,,,,,,,1,,,50,105
25822,note_on,46,0,2,,,,,,,,,1,,,50,0
25824,note_on,64,0,1,,,,,,,,,0,,,72,127
25824,note_on,2,0,2,,,,,,,,,1,,,54,105
25870,note_on,46,0,2,,,,,,,,,1,,,54,0
25872,note_on,2,0,2,,,,,,,,,1,,,57,105
25918,note_on,46,0,2,,,,,,,,,1,,,57,0
25920,note_on,2,0,2,,,,,,,,,1,,,55,105
25966,note_on,46,0,2,,,,,,,,,1,,,55,0
25968,note_on,2,0,2,,,,,,,,,1,,,54,105
26014,note_on,46,0,2,,,,,,,,,1,,,54,0
26014,note_on,190,0,1,,,,,,,,,0,,,72,0
26016,note_on,2,0,1,,,,,,,,,0,,,70,105
26016,note_on,2,0,2,,,,,,,,,1,,,55,105
26062,note_on,46,0,2,,,,,,,,,1,,,55,0
26064,note_on,2,0,2,,,,,,,,,1,,,50,105
26110,note_on,46,0,2,,,,,,,,,1,,,50,0
26112,note_on,2,0,2,,,,,,,,,1,,,55,105
26158,note_on,46,0,2,,,,,,,,,1,,,55,0
26160,note_on,2,0,2,,,,,,,,,1,,,58,105
26206,note_on,46,0,2,,,,,,,,,1,,,58,0
26208,note_on,2,0,2,,,,,,,,,1,,,49,105
26240,note_on,32,0,2,,,,,,,,,1,,,49,0
26254,note_on,238,0,1,,,,,,,,,0,,,70,0
26256,note_on,2,0,1,,,,,,,,,0,,,69,105
26302,note_on,46,0,1,,,,,,,,,0,,,69,0
26304,note_on,2,0,1,,,,,,,,,0,,,67,105
26304,note_on,64,0,2,,,,,,,,,1,,,45,105
26336,note_on,32,0,2,,,,,,,,,1,,,45,0
26350,note_on,46,0,1,,,,,,,,,0,,,67,0
26352,note_on,2,0,1,,,,,,,,,0,,,65,105
26398,note_on,46,0,1,,,,,,,,,0,,,65,0
26400,note_on,64,0,2,,,,,,,,,1,,,55,105
26400,note_on,2,0,1,,,,,,,,,0,,,64,105
26432,note_on,32,0,2,,,,,,,,,1,,,55,0
26446,note_on,46,0,1,,,,,,,,,0,,,64,0
26448,note_on,2,0,1,,,,,,,,,0,,,73,105
26494,note_on,46,0,1,,,,,,,,,0,,,73,0
26496,note_on,2,0,1,,,,,,,,,0,,,74,105
26496,note_on,64,0,2,,,,,,,,,1,,,53,105
26542,note_on,46,0,1,,,,,,,,,0,,,74,0
26542,note_on,46,0,2,,,,,,,,,1,,,53,0
26544,note_on,2,0,1,,,,,,,,,0,,,76,105
26544,note_on,2,0,2,,,,,,,,,1,,,55,105
26590,note_on,46,0,1,,,,,,,,,0,,,76,0
26590,note_on,46,0,2,,,,,,,,,1,,,55,0
26592,note_on,2,0,2,,,,,,,,,1,,,53,105
26592,note_on,2,0,1,,,,,,,,,0,,,74,105
26638,note_on,46,0,1,,,,,,,,,0,,,74,0
26638,note_on,46,0,2,,,,,,,,,1,,,53,0
26640,note_on,2,0,1,,,,,,,,,0,,,73,105
26640,note_on,2,0,2,,,,,,,,,1,,,52,105
26686,note_on,46,0,2,,,,,,,,,1,,,52,0
26686,note_on,46,0,1,,,,,,,,,0,,,73,0
26688,note_on,2,0,2,,,,,,,,,1,,,53,105
26688,note_on,2,0,1,,,,,,,,,0,,,74,105
26734,note_on,46,0,2,,,,,,,,,1,,,53,0
26734,note_on,46,0,1,,,,,,,,,0,,,74,0
26736,note_on,2,0,2,,,,,,,,,1,,,50,105
26736,note_on,2,0,1,,,,,,,,,0,,,77,105
26782,note_on,46,0,2,,,,,,,,,1,,,50,0
26782,note_on,46,0,1,,,,,,,,,0,,,77,0
26784,note_on,2,0,2,,,,,,,,,1,,,58,105
26784,note_on,2,0,1,,,,,,,,,0,,,67,105
26816,note_on,32,0,1,,,,,,,,,0,,,67,0
26830,note_on,46,0,2,,,,,,,,,1,,,58,0
26832,note_on,2,0,2,,,,,,,,,1,,,60,105
26878,note_on,46,0,2,,,,,,,,,1,,,60,0
26880,note_on,2,0,2,,,,,,,,,1,,,58,105
26880,note_on,64,0,1,,,,,,,,,0,,,73,105
26912,note_on,32,0,1,,,,,,,,,0,,,73,0
26926,note_on,46,0,2,,,,,,,,,1,,,58,0
26928,note_on,2,0,2,,,,,,,,,1,,,57,105
26974,note_on,46,0,2,,,,,,,,,1,,,57,0
26976,note_on,64,0,1,,,,,,,,,0,,,76,127
26976,note_on,2,0,2,,,,,,,,,1,,,58,105
26976,note_on,0,0,1,,,,,,,,,0,,,76,105
27022,note_on,46,0,2,,,,,,,,,1,,,58,0
27024,note_on,2,0,2,,,,,,,,,1,,,55,105
27070,note_on,94,0,1,,,,,,,,,0,,,76,0
27070,note_on,46,0,2,,,,,,,,,1,,,55,0
27072,note_on,2,0,2,,,,,,,,,1,,,53,105
27104,note_on,32,0,2,,,,,,,,,1,,,53,0
27118,note_on,48,0,1,,,,,,,,,0,,,76,0
27120,note_on,2,0,1,,,,,,,,,0,,,70,105
27166,note_on,46,0,1,,,,,,,,,0,,,70,0
27168,note_on,2,0,1,,,,,,,,,0,,,69,105
27168,note_on,64,0,2,,,,,,,,,1,,,55,105
27200,note_on,32,0,2,,,,,,,,,1,,,55,0
27214,note_on,46,0,1,,,,,,,,,0,,,69,0
27216,note_on,2,0,1,,,,,,,,,0,,,67,105
27262,note_on,46,0,1,,,,,,,,,0,,,67,0
27264,note_on,2,0,1,,,,,,,,,0,,,65,105
27264,note_on,64,0,2,,,,,,,,,1,,,57,105
27296,note_on,32,0,2,,,,,,,,,1,,,57,0
27310,note_on,46,0,1,,,,,,,,,0,,,65,0
27312,note_on,2,0,1,,,,,,,,,0,,,64,105
27358,note_on,46,0,1,,,,,,,,,0,,,64,0
27360,note_on,0,0,1,,,,,,,,,0,,,62,105
27360,note_on,2,0,1,,,,,,,,,0,,,53,105
27408,note_on,112,0,2,,,,,,,,,1,,,50,98
27454,note_on,46,0,2,,,,,,,,,1,,,50,0
27456,note_on,2,0,2,,,,,,,,,1,,,45,91
27502,note_on,46,0,2,,,,,,,,,1,,,45,0
27504,note_on,2,0,2,,,,,,,,,1,,,41,84
27550,note_on,46,0,2,,,,,,,,,1,,,41,0
27552,note_on,2,0,2,,,,,,,,,1,,,38,77
27616,note_on,0,0,1,,,,,,,,,0,,,53,0
27616,note_on,256,0,1,,,,,,,,,0,,,62,0
27616,end_of_track,0,1,1,,,,,,,,,,,,,
27646,note_on,94,0,2,,,,,,,,,1,,,38,0
27646,end_of_track,0,1,2,,,,,,,,,,,,,
