tick,type,time,meta,track,numerator,denominator,clocks_per_click,notated_32nd_notes_per_beat,channel,data,port,tempo,program,control,value,note,velocity
0,track_name,0,1,0,,,,,,,,,,,,,
0,time_signature,0,1,0,3,4,24,8,,,,,,,,,
0,channel_prefix,0,1,0,,,,,0,,,,,,,,
0,copyright,0,1,0,,,,,,,,,,,,,
0,channel_prefix,0,1,0,,,,,0,,,,,,,,
0,track_name,0,1,0,,,,,,,,,,,,,
0,channel_prefix,0,1,0,,,,,0,,,,,,,,
0,instrument_name,0,1,0,,,,,,,,,,,,,
0,sysex,0,0,0,,,,,,"(126, 127, 9, 1)",,,,,,,
0,midi_port,0,1,0,,,,,,,0,,,,,,
0,set_tempo,0,1,0,,,,,,,,1818181,,,,,
0,program_change,0,0,0,,,,,0,,,,48,,,,
0,control_change,0,0,0,,,,,0,,,,,7,110,,
0,note_on,0,0,0,,,,,0,,,,,,,66,80
0,channel_prefix,0,1,0,,,,,1,,,,,,,,
0,track_name,0,1,0,,,,,,,,,,,,,
0,channel_prefix,0,1,0,,,,,1,,,,,,,,
0,instrument_name,0,1,0,,,,,,,,,,,,,
0,midi_port,0,1,0,,,,,,,0,,,,,,
0,program_change,0,0,0,,,,,1,,,,48,,,,
0,control_change,0,0,0,,,,,1,,,,,7,110,,
0,note_on,0,0,0,,,,,1,,,,,,,62,80
0,channel_prefix,0,1,0,,,,,2,,,,,,,,
0,track_name,0,1,0,,,,,,,,,,,,,
0,channel_prefix,0,1,0,,,,,2,,,,,,,,
0,instrument_name,0,1,0,,,,,,,,,,,,,
0,midi_port,0,1,0,,,,,,,0,,,,,,
0,program_change,0,0,0,,,,,2,,,,48,,,,
0,control_change,0,0,0,,,,,2,,,,,7,110,,
0,note_on,0,0,0,,,,,2,,,,,,,59,80
0,channel_prefix,0,1,0,,,,,3,,,,,,,,
0,track_name,0,1,0,,,,,,,,,,,,,
0,channel_prefix,0,1,0,,,,,3,,,,,,,,
0,instrument_name,0,1,0,,,,,,,,,,,,,
0,midi_port,0,1,0,,,,,,,0,,,,,,
0,program_change,0,0,0,,,,,3,,,,42,,,,
0,note_on,0,0,0,,,,,3,,,,,,,59,80
0,channel_prefix,0,1,0,,,,,4,,,,,,,,
0,track_name,0,1,0,,,,,,,,,,,,,
0,channel_prefix,0,1,0,,,,,4,,,,,,,,
0,instrument_name,0,1,0,,,,,,,,,,,,,
0,midi_port,0,1,0,,,,,,,0,,,,,,
0,program_change,0,0,0,,,,,4,,,,43,,,,
0,note_on,0,0,0,,,,,4,,,,,,,47,80
0,channel_prefix,0,1,0,,,,,5,,,,,,,,
0,track_name,0,1,0,,,,,,,,,,,,,
0,channel_prefix,0,1,0,,,,,5,,,,,,,,
0,instrument_name,0,1,0,,,,,,,,,,,,,
0,midi_port,0,1,0,,,,,,,0,,,,,,
0,program_change,0,0,0,,,,,5,,,,6,,,,
0,channel_prefix,0,1,0,,,,,6,,,,,,,,
0,track_name,0,1,0,,,,,,,,,,,,,
0,channel_prefix,0,1,0,,,,,6,,,,,,,,
0,instrument_name,0,1,0,,,,,,,,,,,,,
0,midi_port,0,1,0,,,,,,,0,,,,,,
0,program_change,0,0,0,,,,,6,,,,6,,,,
0,note_on,0,0,0,,,,,6,,,,,,,59,88
10,note_off,10,0,0,,,,,3,,,,,,,59,0
10,note_off,0,0,0,,,,,4,,,,,,,47,0
10,note_off,0,0,0,,,,,6,,,,,,,59,0
12,note_on,2,0,0,,,,,3,,,,,,,58,80
12,note_on,0,0,0,,,,,4,,,,,,,46,80
12,note_on,0,0,0,,,,,6,,,,,,,58,88
22,note_off,10,0,0,,,,,3,,,,,,,58,0
22,note_off,0,0,0,,,,,4,,,,,,,46,0
22,note_off,0,0,0,,,,,6,,,,,,,58,0
24,note_on,2,0,0,,,,,3,,,,,,,59,80
24,note_on,0,0,0,,,,,4,,,,,,,47,80
24,note_on,0,0,0,,,,,6,,,,,,,59,88
45,note_off,21,0,0,,,,,3,,,,,,,59,0
45,note_off,0,0,0,,,,,4,,,,,,,47,0
45,note_off,0,0,0,,,,,6,,,,,,,59,0
48,note_on,3,0,0,,,,,3,,,,,,,54,80
48,note_on,0,0,0,,,,,4,,,,,,,42,80
48,note_on,0,0,0,,,,,6,,,,,,,54,88
69,note_off,21,0,0,,,,,3,,,,,,,54,0
69,note_off,0,0,0,,,,,4,,,,,,,42,0
69,note_off,0,0,0,,,,,6,,,,,,,54,0
72,note_on,3,0,0,,,,,3,,,,,,,54,80
72,note_on,0,0,0,,,,,4,,,,,,,42,80
72,note_on,0,0,0,,,,,6,,,,,,,54,88
93,note_off,21,0,0,,,,,3,,,,,,,54,0
93,note_off,0,0,0,,,,,4,,,,,,,42,0
93,note_off,0,0,0,,,,,6,,,,,,,54,0
96,note_on,3,0,0,,,,,3,,,,,,,54,80
96,note_on,0,0,0,,,,,4,,,,,,,42,80
96,note_on,0,0,0,,,,,6,,,,,,,54,88
106,note_off,10,0,0,,,,,3,,,,,,,54,0
106,note_off,0,0,0,,,,,4,,,,,,,42,0
106,note_off,0,0,0,,,,,6,,,,,,,54,0
108,note_on,2,0,0,,,,,3,,,,,,,59,80
108,note_on,0,0,0,,,,,4,,,,,,,47,80
108,note_on,0,0,0,,,,,6,,,,,,,59,88
118,note_off,10,0,0,,,,,3,,,,,,,59,0
118,note_off,0,0,0,,,,,4,,,,,,,47,0
118,note_off,0,0,0,,,,,6,,,,,,,59,0
120,note_on,2,0,0,,,,,3,,,,,,,61,80
120,note_on,0,0,0,,,,,4,,,,,,,49,80
120,note_on,0,0,0,,,,,6,,,,,,,61,88
130,note_off,10,0,0,,,,,3,,,,,,,61,0
130,note_off,0,0,0,,,,,4,,,,,,,49,0
130,note_off,0,0,0,,,,,6,,,,,,,61,0
132,note_on,2,0,0,,,,,3,,,,,,,62,80
132,note_on,0,0,0,,,,,4,,,,,,,50,80
132,note_on,0,0,0,,,,,6,,,,,,,62,88
138,note_off,6,0,0,,,,,1,,,,,,,62,0
138,note_off,0,0,0,,,,,2,,,,,,,59,0
142,note_off,4,0,0,,,,,3,,,,,,,62,0
142,note_off,0,0,0,,,,,4,,,,,,,50,0
142,note_off,0,0,0,,,,,6,,,,,,,62,0
144,note_on,2,0,0,,,,,1,,,,,,,64,80
144,note_on,0,0,0,,,,,2,,,,,,,58,80
144,note_on,0,0,0,,,,,3,,,,,,,61,80
144,note_on,0,0,0,,,,,4,,,,,,,49,80
144,note_on,0,0,0,,,,,6,,,,,,,61,88
154,note_off,10,0,0,,,,,3,,,,,,,61,0
154,note_off,0,0,0,,,,,4,,,,,,,49,0
154,note_off,0,0,0,,,,,6,,,,,,,61,0
156,note_on,2,0,0,,,,,3,,,,,,,59,80
156,note_on,0,0,0,,,,,4,,,,,,,47,80
156,note_on,0,0,0,,,,,6,,,,,,,59,88
166,note_off,10,0,0,,,,,3,,,,,,,59,0
166,note_off,0,0,0,,,,,4,,,,,,,47,0
166,note_off,0,0,0,,,,,6,,,,,,,59,0
168,note_on,2,0,0,,,,,3,,,,,,,61,80
168,note_on,0,0,0,,,,,4,,,,,,,49,80
168,note_on,0,0,0,,,,,6,,,,,,,61,88
186,note_off,18,0,0,,,,,1,,,,,,,64,0
189,note_off,3,0,0,,,,,3,,,,,,,61,0
189,note_off,0,0,0,,,,,4,,,,,,,49,0
189,note_off,0,0,0,,,,,6,,,,,,,61,0
192,note_on,3,0,0,,,,,1,,,,,,,61,80
192,note_on,0,0,0,,,,,3,,,,,,,54,80
192,note_on,0,0,0,,,,,4,,,,,,,42,80
192,note_on,0,0,0,,,,,6,,,,,,,54,88
213,note_off,21,0,0,,,,,3,,,,,,,54,0
213,note_off,0,0,0,,,,,4,,,,,,,42,0
213,note_off,0,0,0,,,,,6,,,,,,,54,0
216,note_on,3,0,0,,,,,3,,,,,,,54,80
216,note_on,0,0,0,,,,,4,,,,,,,42,80
216,note_on,0,0,0,,,,,6,,,,,,,54,88
237,note_off,21,0,0,,,,,3,,,,,,,54,0
237,note_off,0,0,0,,,,,4,,,,,,,42,0
237,note_off,0,0,0,,,,,6,,,,,,,54,0
240,note_on,3,0,0,,,,,3,,,,,,,54,80
240,note_on,0,0,0,,,,,4,,,,,,,42,80
240,note_on,0,0,0,,,,,6,,,,,,,54,88
250,note_off,10,0,0,,,,,3,,,,,,,54,0
250,note_off,0,0,0,,,,,4,,,,,,,42,0
250,note_off,0,0,0,,,,,6,,,,,,,54,0
252,note_on,2,0,0,,,,,3,,,,,,,61,80
252,note_on,0,0,0,,,,,4,,,,,,,49,80
252,note_on,0,0,0,,,,,6,,,,,,,61,88
262,note_off,10,0,0,,,,,3,,,,,,,61,0
262,note_off,0,0,0,,,,,4,,,,,,,49,0
262,note_off,0,0,0,,,,,6,,,,,,,61,0
264,note_on,2,0,0,,,,,3,,,,,,,62,80
264,note_on,0,0,0,,,,,4,,,,,,,50,80
264,note_on,0,0,0,,,,,6,,,,,,,62,88
274,note_off,10,0,0,,,,,3,,,,,,,62,0
274,note_off,0,0,0,,,,,4,,,,,,,50,0
274,note_off,0,0,0,,,,,6,,,,,,,62,0
276,note_on,2,0,0,,,,,3,,,,,,,64,80
276,note_on,0,0,0,,,,,4,,,,,,,52,80
276,note_on,0,0,0,,,,,6,,,,,,,64,88
282,note_off,6,0,0,,,,,1,,,,,,,61,0
282,note_off,0,0,0,,,,,2,,,,,,,58,0
286,note_off,4,0,0,,,,,3,,,,,,,64,0
286,note_off,0,0,0,,,,,4,,,,,,,52,0
286,note_off,0,0,0,,,,,6,,,,,,,64,0
288,note_on,2,0,0,,,,,1,,,,,,,62,80
288,note_on,0,0,0,,,,,2,,,,,,,59,80
288,note_on,0,0,0,,,,,3,,,,,,,62,80
288,note_on,0,0,0,,,,,4,,,,,,,50,80
288,note_on,0,0,0,,,,,6,,,,,,,62,88
298,note_off,10,0,0,,,,,3,,,,,,,62,0
298,note_off,0,0,0,,,,,4,,,,,,,50,0
298,note_off,0,0,0,,,,,6,,,,,,,62,0
300,note_on,2,0,0,,,,,3,,,,,,,61,80
300,note_on,0,0,0,,,,,4,,,,,,,49,80
300,note_on,0,0,0,,,,,6,,,,,,,61,88
310,note_off,10,0,0,,,,,3,,,,,,,61,0
310,note_off,0,0,0,,,,,4,,,,,,,49,0
310,note_off,0,0,0,,,,,6,,,,,,,61,0
312,note_on,2,0,0,,,,,3,,,,,,,62,80
312,note_on,0,0,0,,,,,4,,,,,,,50,80
312,note_on,0,0,0,,,,,6,,,,,,,62,88
333,note_off,21,0,0,,,,,3,,,,,,,62,0
333,note_off,0,0,0,,,,,4,,,,,,,50,0
333,note_off,0,0,0,,,,,6,,,,,,,62,0
336,note_on,3,0,0,,,,,3,,,,,,,54,80
336,note_on,0,0,0,,,,,4,,,,,,,42,80
336,note_on,0,0,0,,,,,6,,,,,,,54,88
357,note_off,21,0,0,,,,,3,,,,,,,54,0
357,note_off,0,0,0,,,,,4,,,,,,,42,0
357,note_off,0,0,0,,,,,6,,,,,,,54,0
360,note_on,3,0,0,,,,,3,,,,,,,54,80
360,note_on,0,0,0,,,,,4,,,,,,,42,80
360,note_on,0,0,0,,,,,6,,,,,,,54,88
381,note_off,21,0,0,,,,,3,,,,,,,54,0
381,note_off,0,0,0,,,,,4,,,,,,,42,0
381,note_off,0,0,0,,,,,6,,,,,,,54,0
384,note_on,3,0,0,,,,,3,,,,,,,54,80
384,note_on,0,0,0,,,,,4,,,,,,,42,80
384,note_on,0,0,0,,,,,6,,,,,,,54,88
394,note_off,10,0,0,,,,,3,,,,,,,54,0
394,note_off,0,0,0,,,,,4,,,,,,,42,0
394,note_off,0,0,0,,,,,6,,,,,,,54,0
396,note_on,2,0,0,,,,,3,,,,,,,59,80
396,note_on,0,0,0,,,,,4,,,,,,,47,80
396,note_on,0,0,0,,,,,6,,,,,,,59,88
406,note_off,10,0,0,,,,,3,,,,,,,59,0
406,note_off,0,0,0,,,,,4,,,,,,,47,0
406,note_off,0,0,0,,,,,6,,,,,,,59,0
408,note_on,2,0,0,,,,,3,,,,,,,61,80
408,note_on,0,0,0,,,,,4,,,,,,,49,80
408,note_on,0,0,0,,,,,6,,,,,,,61,88
418,note_off,10,0,0,,,,,3,,,,,,,61,0
418,note_off,0,0,0,,,,,4,,,,,,,49,0
418,note_off,0,0,0,,,,,6,,,,,,,61,0
420,note_on,2,0,0,,,,,3,,,,,,,62,80
420,note_on,0,0,0,,,,,4,,,,,,,50,80
420,note_on,0,0,0,,,,,6,,,,,,,62,88
426,note_off,6,0,0,,,,,0,,,,,,,66,0
430,note_off,4,0,0,,,,,3,,,,,,,62,0
430,note_off,0,0,0,,,,,4,,,,,,,50,0
430,note_off,0,0,0,,,,,6,,,,,,,62,0
432,note_on,2,0,0,,,,,0,,,,,,,64,80
432,note_on,0,0,0,,,,,3,,,,,,,55,80
432,note_on,0,0,0,,,,,4,,,,,,,43,80
432,note_on,0,0,0,,,,,6,,,,,,,55,88
442,note_off,10,0,0,,,,,3,,,,,,,55,0
442,note_off,0,0,0,,,,,4,,,,,,,43,0
442,note_off,0,0,0,,,,,6,,,,,,,55,0
444,note_on,2,0,0,,,,,3,,,,,,,54,80
444,note_on,0,0,0,,,,,4,,,,,,,42,80
444,note_on,0,0,0,,,,,6,,,,,,,54,88
454,note_off,10,0,0,,,,,3,,,,,,,54,0
454,note_off,0,0,0,,,,,4,,,,,,,42,0
454,note_off,0,0,0,,,,,6,,,,,,,54,0
456,note_on,2,0,0,,,,,3,,,,,,,55,80
456,note_on,0,0,0,,,,,4,,,,,,,43,80
456,note_on,0,0,0,,,,,6,,,,,,,55,88
474,note_off,18,0,0,,,,,1,,,,,,,62,0
477,note_off,3,0,0,,,,,3,,,,,,,55,0
477,note_off,0,0,0,,,,,4,,,,,,,43,0
477,note_off,0,0,0,,,,,6,,,,,,,55,0
480,note_on,3,0,0,,,,,1,,,,,,,61,80
480,note_on,0,0,0,,,,,3,,,,,,,52,80
480,note_on,0,0,0,,,,,4,,,,,,,40,80
480,note_on,0,0,0,,,,,6,,,,,,,52,88
501,note_off,21,0,0,,,,,1,,,,,,,61,0
501,note_off,0,0,0,,,,,3,,,,,,,52,0
501,note_off,0,0,0,,,,,4,,,,,,,40,0
501,note_off,0,0,0,,,,,6,,,,,,,52,0
504,note_on,3,0,0,,,,,1,,,,,,,59,80
504,note_on,0,0,0,,,,,3,,,,,,,52,80
504,note_on,0,0,0,,,,,4,,,,,,,40,80
504,note_on,0,0,0,,,,,6,,,,,,,52,88
525,note_off,21,0,0,,,,,1,,,,,,,59,0
525,note_off,0,0,0,,,,,3,,,,,,,52,0
525,note_off,0,0,0,,,,,4,,,,,,,40,0
525,note_off,0,0,0,,,,,6,,,,,,,52,0
528,note_on,3,0,0,,,,,1,,,,,,,61,80
528,note_on,0,0,0,,,,,3,,,,,,,52,80
528,note_on,0,0,0,,,,,4,,,,,,,40,80
528,note_on,0,0,0,,,,,6,,,,,,,52,88
538,note_off,10,0,0,,,,,3,,,,,,,52,0
538,note_off,0,0,0,,,,,4,,,,,,,40,0
538,note_off,0,0,0,,,,,6,,,,,,,52,0
540,note_on,2,0,0,,,,,3,,,,,,,58,80
540,note_on,0,0,0,,,,,4,,,,,,,46,80
540,note_on,0,0,0,,,,,6,,,,,,,58,88
550,note_off,10,0,0,,,,,3,,,,,,,58,0
550,note_off,0,0,0,,,,,4,,,,,,,46,0
550,note_off,0,0,0,,,,,6,,,,,,,58,0
552,note_on,2,0,0,,,,,3,,,,,,,59,80
552,note_on,0,0,0,,,,,4,,,,,,,47,80
552,note_on,0,0,0,,,,,6,,,,,,,59,88
562,note_off,10,0,0,,,,,3,,,,,,,59,0
562,note_off,0,0,0,,,,,4,,,,,,,47,0
562,note_off,0,0,0,,,,,6,,,,,,,59,0
564,note_on,2,0,0,,,,,3,,,,,,,61,80
564,note_on,0,0,0,,,,,4,,,,,,,49,80
564,note_on,0,0,0,,,,,6,,,,,,,61,88
570,note_off,6,0,0,,,,,0,,,,,,,64,0
570,note_off,0,0,0,,,,,2,,,,,,,59,0
574,note_off,4,0,0,,,,,3,,,,,,,61,0
574,note_off,0,0,0,,,,,4,,,,,,,49,0
574,note_off,0,0,0,,,,,6,,,,,,,61,0
576,note_on,2,0,0,,,,,0,,,,,,,62,80
576,note_on,0,0,0,,,,,2,,,,,,,58,80
576,note_on,0,0,0,,,,,3,,,,,,,54,80
576,note_on,0,0,0,,,,,4,,,,,,,42,80
576,note_on,0,0,0,,,,,6,,,,,,,54,88
586,note_off,10,0,0,,,,,3,,,,,,,54,0
586,note_off,0,0,0,,,,,4,,,,,,,42,0
586,note_off,0,0,0,,,,,6,,,,,,,54,0
588,note_on,2,0,0,,,,,3,,,,,,,52,80
588,note_on,0,0,0,,,,,4,,,,,,,40,80
588,note_on,0,0,0,,,,,6,,,,,,,52,88
598,note_off,10,0,0,,,,,3,,,,,,,52,0
598,note_off,0,0,0,,,,,4,,,,,,,40,0
598,note_off,0,0,0,,,,,6,,,,,,,52,0
600,note_on,2,0,0,,,,,3,,,,,,,54,80
600,note_on,0,0,0,,,,,4,,,,,,,42,80
600,note_on,0,0,0,,,,,6,,,,,,,54,88
618,note_off,18,0,0,,,,,1,,,,,,,61,0
618,note_off,0,0,0,,,,,2,,,,,,,58,0
621,note_off,3,0,0,,,,,3,,,,,,,54,0
621,note_off,0,0,0,,,,,4,,,,,,,42,0
621,note_off,0,0,0,,,,,6,,,,,,,54,0
624,note_on,3,0,0,,,,,1,,,,,,,59,80
624,note_on,0,0,0,,,,,2,,,,,,,54,80
624,note_on,0,0,0,,,,,3,,,,,,,50,80
624,note_on,0,0,0,,,,,4,,,,,,,38,80
624,note_on,0,0,0,,,,,6,,,,,,,50,88
645,note_off,21,0,0,,,,,1,,,,,,,59,0
645,note_off,0,0,0,,,,,3,,,,,,,50,0
645,note_off,0,0,0,,,,,4,,,,,,,38,0
645,note_off,0,0,0,,,,,6,,,,,,,50,0
648,note_on,3,0,0,,,,,1,,,,,,,58,80
648,note_on,0,0,0,,,,,3,,,,,,,50,80
648,note_on,0,0,0,,,,,4,,,,,,,38,80
648,note_on,0,0,0,,,,,6,,,,,,,50,88
669,note_off,21,0,0,,,,,1,,,,,,,58,0
669,note_off,0,0,0,,,,,3,,,,,,,50,0
669,note_off,0,0,0,,,,,4,,,,,,,38,0
669,note_off,0,0,0,,,,,6,,,,,,,50,0
672,note_on,3,0,0,,,,,1,,,,,,,59,80
672,note_on,0,0,0,,,,,3,,,,,,,50,80
672,note_on,0,0,0,,,,,4,,,,,,,38,80
672,note_on,0,0,0,,,,,6,,,,,,,50,88
678,note_off,6,0,0,,,,,0,,,,,,,62,0
678,note_off,0,0,0,,,,,2,,,,,,,54,0
682,note_off,4,0,0,,,,,1,,,,,,,59,0
682,note_off,0,0,0,,,,,3,,,,,,,50,0
682,note_off,0,0,0,,,,,4,,,,,,,38,0
682,note_off,0,0,0,,,,,6,,,,,,,50,0
684,note_on,2,0,0,,,,,0,,,,,,,71,80
684,note_on,0,0,0,,,,,1,,,,,,,71,80
684,note_on,0,0,0,,,,,2,,,,,,,71,80
684,note_on,0,0,0,,,,,3,,,,,,,59,80
684,note_on,0,0,0,,,,,4,,,,,,,47,80
684,note_on,0,0,0,,,,,6,,,,,,,59,88
694,note_off,10,0,0,,,,,0,,,,,,,71,0
694,note_off,0,0,0,,,,,1,,,,,,,71,0
694,note_off,0,0,0,,,,,2,,,,,,,71,0
694,note_off,0,0,0,,,,,3,,,,,,,59,0
694,note_off,0,0,0,,,,,4,,,,,,,47,0
694,note_off,0,0,0,,,,,6,,,,,,,59,0
696,note_on,2,0,0,,,,,0,,,,,,,71,80
696,note_on,0,0,0,,,,,1,,,,,,,71,80
696,note_on,0,0,0,,,,,2,,,,,,,71,80
696,note_on,0,0,0,,,,,3,,,,,,,59,80
696,note_on,0,0,0,,,,,4,,,,,,,47,80
696,note_on,0,0,0,,,,,6,,,,,,,59,88
708,note_off,12,0,0,,,,,0,,,,,,,71,0
708,note_on,0,0,0,,,,,0,,,,,,,67,80
708,note_off,0,0,0,,,,,1,,,,,,,71,0
708,note_on,0,0,0,,,,,1,,,,,,,67,80
708,note_off,0,0,0,,,,,2,,,,,,,71,0
708,note_on,0,0,0,,,,,2,,,,,,,67,80
708,note_off,0,0,0,,,,,3,,,,,,,59,0
708,note_on,0,0,0,,,,,3,,,,,,,55,80
708,note_off,0,0,0,,,,,4,,,,,,,47,0
708,note_on,0,0,0,,,,,4,,,,,,,43,80
708,note_off,0,0,0,,,,,6,,,,,,,59,0
708,note_on,0,0,0,,,,,6,,,,,,,55,88
718,note_off,10,0,0,,,,,0,,,,,,,67,0
718,note_off,0,0,0,,,,,1,,,,,,,67,0
718,note_off,0,0,0,,,,,2,,,,,,,67,0
718,note_off,0,0,0,,,,,3,,,,,,,55,0
718,note_off,0,0,0,,,,,4,,,,,,,43,0
718,note_off,0,0,0,,,,,6,,,,,,,55,0
720,note_on,2,0,0,,,,,0,,,,,,,67,80
720,note_on,0,0,0,,,,,1,,,,,,,67,80
720,note_on,0,0,0,,,,,2,,,,,,,67,80
720,note_on,0,0,0,,,,,3,,,,,,,55,80
720,note_on,0,0,0,,,,,4,,,,,,,43,80
720,note_on,0,0,0,,,,,6,,,,,,,55,88
732,note_off,12,0,0,,,,,0,,,,,,,67,0
732,note_on,0,0,0,,,,,0,,,,,,,64,80
732,note_off,0,0,0,,,,,1,,,,,,,67,0
732,note_on,0,0,0,,,,,1,,,,,,,64,80
732,note_off,0,0,0,,,,,2,,,,,,,67,0
732,note_on,0,0,0,,,,,2,,,,,,,64,80
732,note_off,0,0,0,,,,,3,,,,,,,55,0
732,note_on,0,0,0,,,,,3,,,,,,,52,80
732,note_off,0,0,0,,,,,4,,,,,,,43,0
732,note_on,0,0,0,,,,,4,,,,,,,40,80
732,note_off,0,0,0,,,,,6,,,,,,,55,0
732,note_on,0,0,0,,,,,6,,,,,,,52,88
742,note_off,10,0,0,,,,,0,,,,,,,64,0
742,note_off,0,0,0,,,,,1,,,,,,,64,0
742,note_off,0,0,0,,,,,2,,,,,,,64,0
742,note_off,0,0,0,,,,,3,,,,,,,52,0
742,note_off,0,0,0,,,,,4,,,,,,,40,0
742,note_off,0,0,0,,,,,6,,,,,,,52,0
744,note_on,2,0,0,,,,,0,,,,,,,64,80
744,note_on,0,0,0,,,,,1,,,,,,,64,80
744,note_on,0,0,0,,,,,2,,,,,,,64,80
744,note_on,0,0,0,,,,,3,,,,,,,52,80
744,note_on,0,0,0,,,,,4,,,,,,,40,80
744,note_on,0,0,0,,,,,6,,,,,,,52,88
756,note_off,12,0,0,,,,,0,,,,,,,64,0
756,note_on,0,0,0,,,,,0,,,,,,,61,80
756,note_off,0,0,0,,,,,1,,,,,,,64,0
756,note_on,0,0,0,,,,,1,,,,,,,61,80
756,note_off,0,0,0,,,,,2,,,,,,,64,0
756,note_on,0,0,0,,,,,2,,,,,,,61,80
756,note_off,0,0,0,,,,,3,,,,,,,52,0
756,note_on,0,0,0,,,,,3,,,,,,,49,80
756,note_off,0,0,0,,,,,4,,,,,,,40,0
756,note_on,0,0,0,,,,,4,,,,,,,37,80
756,note_off,0,0,0,,,,,6,,,,,,,52,0
756,note_on,0,0,0,,,,,6,,,,,,,49,88
766,note_off,10,0,0,,,,,0,,,,,,,61,0
766,note_off,0,0,0,,,,,1,,,,,,,61,0
766,note_off,0,0,0,,,,,2,,,,,,,61,0
766,note_off,0,0,0,,,,,3,,,,,,,49,0
766,note_off,0,0,0,,,,,4,,,,,,,37,0
766,note_off,0,0,0,,,,,6,,,,,,,49,0
768,note_on,2,0,0,,,,,0,,,,,,,61,80
768,note_on,0,0,0,,,,,1,,,,,,,61,80
768,note_on,0,0,0,,,,,2,,,,,,,61,80
768,note_on,0,0,0,,,,,3,,,,,,,49,80
768,note_on,0,0,0,,,,,4,,,,,,,37,80
768,note_on,0,0,0,,,,,6,,,,,,,49,88
780,note_off,12,0,0,,,,,0,,,,,,,61,0
780,note_on,0,0,0,,,,,0,,,,,,,59,80
780,note_off,0,0,0,,,,,1,,,,,,,61,0
780,note_on,0,0,0,,,,,1,,,,,,,59,80
780,note_off,0,0,0,,,,,2,,,,,,,61,0
780,note_on,0,0,0,,,,,2,,,,,,,59,80
780,note_off,0,0,0,,,,,3,,,,,,,49,0
780,note_on,0,0,0,,,,,3,,,,,,,47,80
780,note_off,0,0,0,,,,,4,,,,,,,37,0
780,note_on,0,0,0,,,,,4,,,,,,,35,80
780,note_off,0,0,0,,,,,6,,,,,,,49,0
780,note_on,0,0,0,,,,,6,,,,,,,47,88
790,note_off,10,0,0,,,,,0,,,,,,,59,0
790,note_off,0,0,0,,,,,1,,,,,,,59,0
790,note_off,0,0,0,,,,,2,,,,,,,59,0
790,note_off,0,0,0,,,,,3,,,,,,,47,0
790,note_off,0,0,0,,,,,4,,,,,,,35,0
790,note_off,0,0,0,,,,,6,,,,,,,47,0
792,note_on,2,0,0,,,,,0,,,,,,,58,80
792,note_on,0,0,0,,,,,1,,,,,,,58,80
792,note_on,0,0,0,,,,,2,,,,,,,58,80
792,note_on,0,0,0,,,,,3,,,,,,,46,80
792,note_on,0,0,0,,,,,4,,,,,,,34,80
792,note_on,0,0,0,,,,,6,,,,,,,46,88
804,note_off,12,0,0,,,,,0,,,,,,,58,0
804,note_on,0,0,0,,,,,0,,,,,,,59,80
804,note_off,0,0,0,,,,,1,,,,,,,58,0
804,note_on,0,0,0,,,,,1,,,,,,,59,80
804,note_off,0,0,0,,,,,2,,,,,,,58,0
804,note_on,0,0,0,,,,,2,,,,,,,59,80
804,note_off,0,0,0,,,,,3,,,,,,,46,0
804,note_on,0,0,0,,,,,3,,,,,,,47,80
804,note_off,0,0,0,,,,,4,,,,,,,34,0
804,note_on,0,0,0,,,,,4,,,,,,,35,80
804,note_off,0,0,0,,,,,6,,,,,,,46,0
804,note_on,0,0,0,,,,,6,,,,,,,47,88
814,note_off,10,0,0,,,,,0,,,,,,,59,0
814,note_off,0,0,0,,,,,1,,,,,,,59,0
814,note_off,0,0,0,,,,,2,,,,,,,59,0
814,note_off,0,0,0,,,,,3,,,,,,,47,0
814,note_off,0,0,0,,,,,4,,,,,,,35,0
814,note_off,0,0,0,,,,,6,,,,,,,47,0
816,note_on,2,0,0,,,,,0,,,,,,,66,80
816,note_on,0,0,0,,,,,1,,,,,,,66,80
816,note_on,0,0,0,,,,,2,,,,,,,66,80
816,note_on,0,0,0,,,,,3,,,,,,,54,80
816,note_on,0,0,0,,,,,4,,,,,,,42,80
816,note_on,0,0,0,,,,,6,,,,,,,54,88
837,note_off,21,0,0,,,,,0,,,,,,,66,0
837,note_off,0,0,0,,,,,1,,,,,,,66,0
837,note_off,0,0,0,,,,,2,,,,,,,66,0
837,note_off,0,0,0,,,,,3,,,,,,,54,0
837,note_off,0,0,0,,,,,4,,,,,,,42,0
837,note_off,0,0,0,,,,,6,,,,,,,54,0
840,note_on,3,0,0,,,,,0,,,,,,,66,80
840,note_on,0,0,0,,,,,1,,,,,,,66,80
840,note_on,0,0,0,,,,,2,,,,,,,54,80
840,note_on,0,0,0,,,,,3,,,,,,,42,80
840,note_on,0,0,0,,,,,4,,,,,,,30,80
840,note_on,0,0,0,,,,,6,,,,,,,42,88
861,note_off,21,0,0,,,,,0,,,,,,,66,0
861,note_off,0,0,0,,,,,1,,,,,,,66,0
861,note_off,0,0,0,,,,,2,,,,,,,54,0
861,note_off,0,0,0,,,,,3,,,,,,,42,0
861,note_off,0,0,0,,,,,4,,,,,,,30,0
861,note_off,0,0,0,,,,,6,,,,,,,42,0
864,note_on,3,0,0,,,,,0,,,,,,,74,80
864,note_on,0,0,0,,,,,1,,,,,,,71,80
864,note_on,0,0,0,,,,,2,,,,,,,66,80
864,note_on,0,0,0,,,,,3,,,,,,,47,80
864,note_on,0,0,0,,,,,4,,,,,,,35,80
864,note_on,0,0,0,,,,,5,,,,,,,78,88
864,note_on,0,0,0,,,,,6,,,,,,,59,88
867,note_off,3,0,0,,,,,5,,,,,,,78,0
867,note_on,0,0,0,,,,,5,,,,,,,76,88
870,note_off,3,0,0,,,,,5,,,,,,,76,0
870,note_on,0,0,0,,,,,5,,,,,,,78,88
873,note_off,3,0,0,,,,,5,,,,,,,78,0
873,note_on,0,0,0,,,,,5,,,,,,,79,88
874,note_off,1,0,0,,,,,6,,,,,,,59,0
876,note_off,2,0,0,,,,,5,,,,,,,79,0
876,note_on,0,0,0,,,,,5,,,,,,,78,88
876,note_on,0,0,0,,,,,6,,,,,,,58,88
879,note_off,3,0,0,,,,,5,,,,,,,78,0
879,note_on,0,0,0,,,,,5,,,,,,,79,88
882,note_off,3,0,0,,,,,5,,,,,,,79,0
882,note_on,0,0,0,,,,,5,,,,,,,78,88
885,note_off,3,0,0,,,,,5,,,,,,,78,0
885,note_on,0,0,0,,,,,5,,,,,,,79,88
886,note_off,1,0,0,,,,,6,,,,,,,58,0
888,note_off,2,0,0,,,,,5,,,,,,,79,0
888,note_on,0,0,0,,,,,5,,,,,,,78,88
888,note_on,0,0,0,,,,,6,,,,,,,59,88
891,note_off,3,0,0,,,,,5,,,,,,,78,0
891,note_on,0,0,0,,,,,5,,,,,,,79,88
894,note_off,3,0,0,,,,,5,,,,,,,79,0
894,note_on,0,0,0,,,,,5,,,,,,,78,88
897,note_off,3,0,0,,,,,5,,,,,,,78,0
897,note_on,0,0,0,,,,,5,,,,,,,79,88
900,note_off,3,0,0,,,,,5,,,,,,,79,0
900,note_on,0,0,0,,,,,5,,,,,,,78,88
903,note_off,3,0,0,,,,,5,,,,,,,78,0
903,note_on,0,0,0,,,,,5,,,,,,,79,88
906,note_off,3,0,0,,,,,0,,,,,,,74,0
906,note_off,0,0,0,,,,,1,,,,,,,71,0
906,note_off,0,0,0,,,,,2,,,,,,,66,0
906,note_off,0,0,0,,,,,3,,,,,,,47,0
906,note_off,0,0,0,,,,,4,,,,,,,35,0
906,note_off,0,0,0,,,,,5,,,,,,,79,0
906,note_on,0,0,0,,,,,5,,,,,,,78,88
909,note_off,3,0,0,,,,,5,,,,,,,78,0
909,note_on,0,0,0,,,,,5,,,,,,,79,88
909,note_off,0,0,0,,,,,6,,,,,,,59,0
912,note_off,3,0,0,,,,,5,,,,,,,79,0
912,note_on,0,0,0,,,,,5,,,,,,,78,88
912,note_on,0,0,0,,,,,6,,,,,,,54,88
915,note_off,3,0,0,,,,,5,,,,,,,78,0
915,note_on,0,0,0,,,,,5,,,,,,,79,88
918,note_off,3,0,0,,,,,5,,,,,,,79,0
918,note_on,0,0,0,,,,,5,,,,,,,78,88
921,note_off,3,0,0,,,,,5,,,,,,,78,0
921,note_on,0,0,0,,,,,5,,,,,,,79,88
924,note_off,3,0,0,,,,,5,,,,,,,79,0
924,note_on,0,0,0,,,,,5,,,,,,,78,88
927,note_off,3,0,0,,,,,5,,,,,,,78,0
927,note_on,0,0,0,,,,,5,,,,,,,79,88
930,note_off,3,0,0,,,,,5,,,,,,,79,0
930,note_on,0,0,0,,,,,5,,,,,,,78,88
933,note_off,3,0,0,,,,,5,,,,,,,78,0
933,note_on,0,0,0,,,,,5,,,,,,,79,88
933,note_off,0,0,0,,,,,6,,,,,,,54,0
936,note_on,3,0,0,,,,,0,,,,,,,74,80
936,note_on,0,0,0,,,,,1,,,,,,,71,80
936,note_on,0,0,0,,,,,2,,,,,,,66,80
936,note_off,0,0,0,,,,,5,,,,,,,79,0
936,note_on,0,0,0,,,,,5,,,,,,,78,88
936,note_on,0,0,0,,,,,6,,,,,,,54,88
939,note_off,3,0,0,,,,,5,,,,,,,78,0
939,note_on,0,0,0,,,,,5,,,,,,,79,88
942,note_off,3,0,0,,,,,5,,,,,,,79,0
942,note_on,0,0,0,,,,,5,,,,,,,78,88
945,note_off,3,0,0,,,,,5,,,,,,,78,0
945,note_on,0,0,0,,,,,5,,,,,,,79,88
946,note_off,1,0,0,,,,,0,,,,,,,74,0
946,note_off,0,0,0,,,,,1,,,,,,,71,0
946,note_off,0,0,0,,,,,2,,,,,,,66,0
948,note_on,2,0,0,,,,,0,,,,,,,73,80
948,note_on,0,0,0,,,,,1,,,,,,,70,80
948,note_on,0,0,0,,,,,2,,,,,,,64,80
948,note_off,0,0,0,,,,,5,,,,,,,79,0
948,note_on,0,0,0,,,,,5,,,,,,,78,88
951,note_off,3,0,0,,,,,5,,,,,,,78,0
951,note_on,0,0,0,,,,,5,,,,,,,79,88
954,note_off,3,0,0,,,,,5,,,,,,,79,0
954,note_on,0,0,0,,,,,5,,,,,,,78,88
957,note_off,3,0,0,,,,,5,,,,,,,78,0
957,note_on,0,0,0,,,,,5,,,,,,,79,88
957,note_off,0,0,0,,,,,6,,,,,,,54,0
958,note_off,1,0,0,,,,,0,,,,,,,73,0
958,note_off,0,0,0,,,,,1,,,,,,,70,0
958,note_off,0,0,0,,,,,2,,,,,,,64,0
960,note_on,2,0,0,,,,,0,,,,,,,74,80
960,note_on,0,0,0,,,,,1,,,,,,,71,80
960,note_on,0,0,0,,,,,2,,,,,,,66,80
960,note_off,0,0,0,,,,,5,,,,,,,79,0
960,note_on,0,0,0,,,,,5,,,,,,,78,88
960,note_on,0,0,0,,,,,6,,,,,,,54,88
963,note_off,3,0,0,,,,,5,,,,,,,78,0
963,note_on,0,0,0,,,,,5,,,,,,,79,88
966,note_off,3,0,0,,,,,5,,,,,,,79,0
966,note_on,0,0,0,,,,,5,,,,,,,78,88
969,note_off,3,0,0,,,,,5,,,,,,,78,0
969,note_on,0,0,0,,,,,5,,,,,,,79,88
970,note_off,1,0,0,,,,,6,,,,,,,54,0
972,note_on,2,0,0,,,,,3,,,,,,,47,80
972,note_on,0,0,0,,,,,4,,,,,,,35,80
972,note_off,0,0,0,,,,,5,,,,,,,79,0
972,note_on,0,0,0,,,,,5,,,,,,,78,88
972,note_on,0,0,0,,,,,6,,,,,,,59,88
975,note_off,3,0,0,,,,,5,,,,,,,78,0
975,note_on,0,0,0,,,,,5,,,,,,,79,88
978,note_off,3,0,0,,,,,5,,,,,,,79,0
978,note_on,0,0,0,,,,,5,,,,,,,78,88
981,note_off,3,0,0,,,,,0,,,,,,,74,0
981,note_off,0,0,0,,,,,1,,,,,,,71,0
981,note_off,0,0,0,,,,,2,,,,,,,66,0
981,note_off,0,0,0,,,,,5,,,,,,,78,0
981,note_on,0,0,0,,,,,5,,,,,,,79,88
982,note_off,1,0,0,,,,,3,,,,,,,47,0
982,note_off,0,0,0,,,,,4,,,,,,,35,0
982,note_off,0,0,0,,,,,6,,,,,,,59,0
984,note_on,2,0,0,,,,,0,,,,,,,71,80
984,note_on,0,0,0,,,,,1,,,,,,,71,80
984,note_on,0,0,0,,,,,2,,,,,,,66,80
984,note_on,0,0,0,,,,,3,,,,,,,49,80
984,note_on,0,0,0,,,,,4,,,,,,,37,80
984,note_off,0,0,0,,,,,5,,,,,,,79,0
984,note_on,0,0,0,,,,,5,,,,,,,78,88
984,note_on,0,0,0,,,,,6,,,,,,,61,88
987,note_off,3,0,0,,,,,5,,,,,,,78,0
987,note_on,0,0,0,,,,,5,,,,,,,79,88
990,note_off,3,0,0,,,,,5,,,,,,,79,0
990,note_on,0,0,0,,,,,5,,,,,,,78,88
993,note_off,3,0,0,,,,,5,,,,,,,78,0
993,note_on,0,0,0,,,,,5,,,,,,,79,88
994,note_off,1,0,0,,,,,3,,,,,,,49,0
994,note_off,0,0,0,,,,,4,,,,,,,37,0
994,note_off,0,0,0,,,,,6,,,,,,,61,0
996,note_on,2,0,0,,,,,3,,,,,,,50,80
996,note_on,0,0,0,,,,,4,,,,,,,38,80
996,note_off,0,0,0,,,,,5,,,,,,,79,0
996,note_on,0,0,0,,,,,5,,,,,,,78,88
996,note_on,0,0,0,,,,,6,,,,,,,62,88
999,note_off,3,0,0,,,,,5,,,,,,,78,0
999,note_on,0,0,0,,,,,5,,,,,,,79,88
1002,note_off,3,0,0,,,,,5,,,,,,,79,0
1002,note_on,0,0,0,,,,,5,,,,,,,78,88
1005,note_off,3,0,0,,,,,0,,,,,,,71,0
1005,note_off,0,0,0,,,,,1,,,,,,,71,0
1005,note_off,0,0,0,,,,,2,,,,,,,66,0
1005,note_off,0,0,0,,,,,5,,,,,,,78,0
1005,note_on,0,0,0,,,,,5,,,,,,,79,88
1006,note_off,1,0,0,,,,,3,,,,,,,50,0
1006,note_off,0,0,0,,,,,4,,,,,,,38,0
1006,note_off,0,0,0,,,,,6,,,,,,,62,0
1008,note_on,2,0,0,,,,,0,,,,,,,76,80
1008,note_on,0,0,0,,,,,1,,,,,,,70,80
1008,note_on,0,0,0,,,,,2,,,,,,,64,80
1008,note_on,0,0,0,,,,,3,,,,,,,49,80
1008,note_on,0,0,0,,,,,4,,,,,,,37,80
1008,note_off,0,0,0,,,,,5,,,,,,,79,0
1008,note_on,0,0,0,,,,,5,,,,,,,78,88
1008,note_on,0,0,0,,,,,6,,,,,,,61,88
1011,note_off,3,0,0,,,,,5,,,,,,,78,0
1011,note_on,0,0,0,,,,,5,,,,,,,79,88
1014,note_off,3,0,0,,,,,5,,,,,,,79,0
1014,note_on,0,0,0,,,,,5,,,,,,,78,88
1017,note_off,3,0,0,,,,,5,,,,,,,78,0
1017,note_on,0,0,0,,,,,5,,,,,,,79,88
1018,note_off,1,0,0,,,,,6,,,,,,,61,0
1020,note_off,2,0,0,,,,,5,,,,,,,79,0
1020,note_on,0,0,0,,,,,5,,,,,,,78,88
1020,note_on,0,0,0,,,,,6,,,,,,,59,88
1023,note_off,3,0,0,,,,,5,,,,,,,78,0
1023,note_on,0,0,0,,,,,5,,,,,,,79,88
1026,note_off,3,0,0,,,,,5,,,,,,,79,0
1026,note_on,0,0,0,,,,,5,,,,,,,78,88
1029,note_off,3,0,0,,,,,5,,,,,,,78,0
1029,note_on,0,0,0,,,,,5,,,,,,,79,88
1030,note_off,1,0,0,,,,,6,,,,,,,59,0
1032,note_off,2,0,0,,,,,5,,,,,,,79,0
1032,note_on,0,0,0,,,,,5,,,,,,,78,88
1032,note_on,0,0,0,,,,,6,,,,,,,61,88
1035,note_off,3,0,0,,,,,5,,,,,,,78,0
1035,note_on,0,0,0,,,,,5,,,,,,,79,88
1038,note_off,3,0,0,,,,,5,,,,,,,79,0
1038,note_on,0,0,0,,,,,5,,,,,,,78,88
1041,note_off,3,0,0,,,,,5,,,,,,,78,0
1041,note_on,0,0,0,,,,,5,,,,,,,79,88
1044,note_off,3,0,0,,,,,5,,,,,,,79,0
1044,note_on,0,0,0,,,,,5,,,,,,,78,88
1047,note_off,3,0,0,,,,,5,,,,,,,78,0
1047,note_on,0,0,0,,,,,5,,,,,,,79,88
1050,note_off,3,0,0,,,,,0,,,,,,,76,0
1050,note_off,0,0,0,,,,,1,,,,,,,70,0
1050,note_off,0,0,0,,,,,2,,,,,,,64,0
1050,note_off,0,0,0,,,,,3,,,,,,,49,0
1050,note_off,0,0,0,,,,,4,,,,,,,37,0
1050,note_off,0,0,0,,,,,5,,,,,,,79,0
1050,note_on,0,0,0,,,,,5,,,,,,,78,88
1053,note_off,3,0,0,,,,,5,,,,,,,78,0
1053,note_on,0,0,0,,,,,5,,,,,,,79,88
1053,note_off,0,0,0,,,,,6,,,,,,,61,0
1056,note_off,3,0,0,,,,,5,,,,,,,79,0
1056,note_on,0,0,0,,,,,5,,,,,,,78,88
1056,note_on,0,0,0,,,,,6,,,,,,,54,88
1059,note_off,3,0,0,,,,,5,,,,,,,78,0
1059,note_on,0,0,0,,,,,5,,,,,,,79,88
1062,note_off,3,0,0,,,,,5,,,,,,,79,0
1062,note_on,0,0,0,,,,,5,,,,,,,78,88
1065,note_off,3,0,0,,,,,5,,,,,,,78,0
1065,note_on,0,0,0,,,,,5,,,,,,,79,88
1068,note_off,3,0,0,,,,,5,,,,,,,79,0
1068,note_on,0,0,0,,,,,5,,,,,,,78,88
1071,note_off,3,0,0,,,,,5,,,,,,,78,0
1071,note_on,0,0,0,,,,,5,,,,,,,79,88
1074,note_off,3,0,0,,,,,5,,,,,,,79,0
1074,note_on,0,0,0,,,,,5,,,,,,,78,88
1077,note_off,3,0,0,,,,,5,,,,,,,78,0
1077,note_on,0,0,0,,,,,5,,,,,,,79,88
1077,note_off,0,0,0,,,,,6,,,,,,,54,0
1080,note_on,3,0,0,,,,,0,,,,,,,76,80
1080,note_on,0,0,0,,,,,1,,,,,,,73,80
1080,note_on,0,0,0,,,,,2,,,,,,,70,80
1080,note_off,0,0,0,,,,,5,,,,,,,79,0
1080,note_on,0,0,0,,,,,5,,,,,,,78,88
1080,note_on,0,0,0,,,,,6,,,,,,,54,88
1083,note_off,3,0,0,,,,,5,,,,,,,78,0
1083,note_on,0,0,0,,,,,5,,,,,,,79,88
1086,note_off,3,0,0,,,,,5,,,,,,,79,0
1086,note_on,0,0,0,,,,,5,,,,,,,78,88
1089,note_off,3,0,0,,,,,5,,,,,,,78,0
1089,note_on,0,0,0,,,,,5,,,,,,,79,88
1090,note_off,1,0,0,,,,,0,,,,,,,76,0
1090,note_off,0,0,0,,,,,1,,,,,,,73,0
1092,note_on,2,0,0,,,,,0,,,,,,,74,80
1092,note_on,0,0,0,,,,,1,,,,,,,71,80
1092,note_off,0,0,0,,,,,5,,,,,,,79,0
1092,note_on,0,0,0,,,,,5,,,,,,,78,88
1095,note_off,3,0,0,,,,,5,,,,,,,78,0
1095,note_on,0,0,0,,,,,5,,,,,,,79,88
1098,note_off,3,0,0,,,,,5,,,,,,,79,0
1098,note_on,0,0,0,,,,,5,,,,,,,78,88
1101,note_off,3,0,0,,,,,2,,,,,,,70,0
1101,note_off,0,0,0,,,,,5,,,,,,,78,0
1101,note_on,0,0,0,,,,,5,,,,,,,79,88
1101,note_off,0,0,0,,,,,6,,,,,,,54,0
1102,note_off,1,0,0,,,,,0,,,,,,,74,0
1102,note_off,0,0,0,,,,,1,,,,,,,71,0
1104,note_on,2,0,0,,,,,0,,,,,,,76,80
1104,note_on,0,0,0,,,,,1,,,,,,,73,80
1104,note_on,0,0,0,,,,,2,,,,,,,70,80
1104,note_off,0,0,0,,,,,5,,,,,,,79,0
1104,note_on,0,0,0,,,,,5,,,,,,,78,88
1104,note_on,0,0,0,,,,,6,,,,,,,54,88
1107,note_off,3,0,0,,,,,5,,,,,,,78,0
1107,note_on,0,0,0,,,,,5,,,,,,,79,88
1110,note_off,3,0,0,,,,,5,,,,,,,79,0
1110,note_on,0,0,0,,,,,5,,,,,,,78,88
1113,note_off,3,0,0,,,,,5,,,,,,,78,0
1113,note_on,0,0,0,,,,,5,,,,,,,79,88
1114,note_off,1,0,0,,,,,6,,,,,,,54,0
1116,note_on,2,0,0,,,,,3,,,,,,,49,80
1116,note_on,0,0,0,,,,,4,,,,,,,37,80
1116,note_off,0,0,0,,,,,5,,,,,,,79,0
1116,note_on,0,0,0,,,,,5,,,,,,,78,88
1116,note_on,0,0,0,,,,,6,,,,,,,61,88
1119,note_off,3,0,0,,,,,5,,,,,,,78,0
1119,note_on,0,0,0,,,,,5,,,,,,,79,88
1122,note_off,3,0,0,,,,,5,,,,,,,79,0
1122,note_on,0,0,0,,,,,5,,,,,,,78,88
1125,note_off,3,0,0,,,,,0,,,,,,,76,0
1125,note_off,0,0,0,,,,,1,,,,,,,73,0
1125,note_off,0,0,0,,,,,2,,,,,,,70,0
1125,note_off,0,0,0,,,,,5,,,,,,,78,0
1125,note_on,0,0,0,,,,,5,,,,,,,79,88
1126,note_off,1,0,0,,,,,3,,,,,,,49,0
1126,note_off,0,0,0,,,,,4,,,,,,,37,0
1126,note_off,0,0,0,,,,,6,,,,,,,61,0
1128,note_on,2,0,0,,,,,0,,,,,,,73,80
1128,note_on,0,0,0,,,,,1,,,,,,,73,80
1128,note_on,0,0,0,,,,,2,,,,,,,70,80
1128,note_on,0,0,0,,,,,3,,,,,,,50,80
1128,note_on,0,0,0,,,,,4,,,,,,,38,80
1128,note_off,0,0,0,,,,,5,,,,,,,79,0
1128,note_on,0,0,0,,,,,5,,,,,,,78,88
1128,note_on,0,0,0,,,,,6,,,,,,,62,88
1138,note_off,10,0,0,,,,,3,,,,,,,50,0
1138,note_off,0,0,0,,,,,4,,,,,,,38,0
1138,note_off,0,0,0,,,,,6,,,,,,,62,0
1140,note_on,2,0,0,,,,,3,,,,,,,52,80
1140,note_on,0,0,0,,,,,4,,,,,,,40,80
1140,note_on,0,0,0,,,,,6,,,,,,,64,88
1149,note_off,9,0,0,,,,,0,,,,,,,73,0
1149,note_off,0,0,0,,,,,1,,,,,,,73,0
1149,note_off,0,0,0,,,,,2,,,,,,,70,0
1150,note_off,1,0,0,,,,,3,,,,,,,52,0
1150,note_off,0,0,0,,,,,4,,,,,,,40,0
1150,note_off,0,0,0,,,,,6,,,,,,,64,0
1152,note_on,2,0,0,,,,,0,,,,,,,78,80
1152,note_on,0,0,0,,,,,1,,,,,,,74,80
1152,note_on,0,0,0,,,,,2,,,,,,,71,80
1152,note_on,0,0,0,,,,,3,,,,,,,50,80
1152,note_on,0,0,0,,,,,4,,,,,,,38,80
1152,note_on,0,0,0,,,,,6,,,,,,,62,88
1159,note_off,7,0,0,,,,,5,,,,,,,78,0
1162,note_off,3,0,0,,,,,6,,,,,,,62,0
1164,note_on,2,0,0,,,,,5,,,,,,,71,88
1164,note_on,0,0,0,,,,,6,,,,,,,61,88
1169,note_off,5,0,0,,,,,5,,,,,,,71,0
1170,note_on,1,0,0,,,,,5,,,,,,,70,88
1174,note_off,4,0,0,,,,,6,,,,,,,61,0
1175,note_off,1,0,0,,,,,5,,,,,,,70,0
1176,note_on,1,0,0,,,,,5,,,,,,,71,88
1176,note_on,0,0,0,,,,,6,,,,,,,62,88
1186,note_off,10,0,0,,,,,5,,,,,,,71,0
1188,note_on,2,0,0,,,,,5,,,,,,,73,88
1194,note_off,6,0,0,,,,,0,,,,,,,78,0
1194,note_off,0,0,0,,,,,1,,,,,,,74,0
1194,note_off,0,0,0,,,,,2,,,,,,,71,0
1194,note_off,0,0,0,,,,,3,,,,,,,50,0
1194,note_off,0,0,0,,,,,4,,,,,,,38,0
1197,note_off,3,0,0,,,,,6,,,,,,,62,0
1198,note_off,1,0,0,,,,,5,,,,,,,73,0
1200,note_on,2,0,0,,,,,5,,,,,,,74,88
1200,note_on,0,0,0,,,,,6,,,,,,,54,88
1210,note_off,10,0,0,,,,,5,,,,,,,74,0
1212,note_on,2,0,0,,,,,5,,,,,,,71,88
1217,note_off,5,0,0,,,,,5,,,,,,,71,0
1218,note_on,1,0,0,,,,,5,,,,,,,70,88
1221,note_off,3,0,0,,,,,6,,,,,,,54,0
1223,note_off,2,0,0,,,,,5,,,,,,,70,0
1224,note_on,1,0,0,,,,,0,,,,,,,78,80
1224,note_on,0,0,0,,,,,1,,,,,,,74,80
1224,note_on,0,0,0,,,,,2,,,,,,,71,80
1224,note_on,0,0,0,,,,,5,,,,,,,71,88
1224,note_on,0,0,0,,,,,6,,,,,,,54,88
1234,note_off,10,0,0,,,,,0,,,,,,,78,0
1234,note_off,0,0,0,,,,,1,,,,,,,74,0
1234,note_off,0,0,0,,,,,5,,,,,,,71,0
1236,note_on,2,0,0,,,,,0,,,,,,,76,80
1236,note_on,0,0,0,,,,,1,,,,,,,73,80
1236,note_on,0,0,0,,,,,5,,,,,,,73,88
1245,note_off,9,0,0,,,,,2,,,,,,,71,0
1245,note_off,0,0,0,,,,,6,,,,,,,54,0
1246,note_off,1,0,0,,,,,0,,,,,,,76,0
1246,note_off,0,0,0,,,,,1,,,,,,,73,0
1246,note_off,0,0,0,,,,,5,,,,,,,73,0
1248,note_on,2,0,0,,,,,0,,,,,,,78,80
1248,note_on,0,0,0,,,,,1,,,,,,,71,80
1248,note_on,0,0,0,,,,,2,,,,,,,66,80
1248,note_on,0,0,0,,,,,5,,,,,,,74,88
1248,note_on,0,0,0,,,,,6,,,,,,,54,88
1258,note_off,10,0,0,,,,,5,,,,,,,74,0
1258,note_off,0,0,0,,,,,6,,,,,,,54,0
1260,note_on,2,0,0,,,,,3,,,,,,,50,80
1260,note_on,0,0,0,,,,,4,,,,,,,38,80
1260,note_on,0,0,0,,,,,5,,,,,,,66,88
1260,note_on,0,0,0,,,,,6,,,,,,,59,88
1269,note_off,9,0,0,,,,,0,,,,,,,78,0
1269,note_off,0,0,0,,,,,1,,,,,,,71,0
1269,note_off,0,0,0,,,,,2,,,,,,,66,0
1270,note_off,1,0,0,,,,,3,,,,,,,50,0
1270,note_off,0,0,0,,,,,4,,,,,,,38,0
1270,note_off,0,0,0,,,,,5,,,,,,,66,0
1270,note_off,0,0,0,,,,,6,,,,,,,59,0
1272,note_on,2,0,0,,,,,0,,,,,,,71,80
1272,note_on,0,0,0,,,,,1,,,,,,,66,80
1272,note_on,0,0,0,,,,,2,,,,,,,62,80
1272,note_on,0,0,0,,,,,3,,,,,,,49,80
1272,note_on,0,0,0,,,,,4,,,,,,,37,80
1272,note_on,0,0,0,,,,,5,,,,,,,64,88
1272,note_on,0,0,0,,,,,6,,,,,,,61,88
1282,note_off,10,0,0,,,,,3,,,,,,,49,0
1282,note_off,0,0,0,,,,,4,,,,,,,37,0
1282,note_off,0,0,0,,,,,5,,,,,,,64,0
1282,note_off,0,0,0,,,,,6,,,,,,,61,0
1284,note_on,2,0,0,,,,,3,,,,,,,47,80
1284,note_on,0,0,0,,,,,4,,,,,,,35,80
1284,note_on,0,0,0,,,,,5,,,,,,,66,88
1284,note_on,0,0,0,,,,,6,,,,,,,62,88
1293,note_off,9,0,0,,,,,0,,,,,,,71,0
1293,note_off,0,0,0,,,,,1,,,,,,,66,0
1293,note_off,0,0,0,,,,,2,,,,,,,62,0
1294,note_off,1,0,0,,,,,3,,,,,,,47,0
1294,note_off,0,0,0,,,,,4,,,,,,,35,0
1294,note_off,0,0,0,,,,,5,,,,,,,66,0
1294,note_off,0,0,0,,,,,6,,,,,,,62,0
1296,note_on,2,0,0,,,,,0,,,,,,,73,80
1296,note_on,0,0,0,,,,,1,,,,,,,66,80
1296,note_on,0,0,0,,,,,2,,,,,,,58,80
1296,note_on,0,0,0,,,,,3,,,,,,,54,80
1296,note_on,0,0,0,,,,,4,,,,,,,42,80
1296,note_on,0,0,0,,,,,5,,,,,,,58,88
1296,note_on,0,0,0,,,,,6,,,,,,,42,88
1306,note_off,10,0,0,,,,,5,,,,,,,58,0
1308,note_on,2,0,0,,,,,5,,,,,,,61,88
1317,note_off,9,0,0,,,,,0,,,,,,,73,0
1318,note_off,1,0,0,,,,,5,,,,,,,61,0
1320,note_on,2,0,0,,,,,0,,,,,,,66,80
1320,note_on,0,0,0,,,,,5,,,,,,,64,88
1330,note_off,10,0,0,,,,,5,,,,,,,64,0
1332,note_on,2,0,0,,,,,5,,,,,,,66,88
1338,note_off,6,0,0,,,,,1,,,,,,,66,0
1338,note_off,0,0,0,,,,,2,,,,,,,58,0
1338,note_off,0,0,0,,,,,3,,,,,,,54,0
1338,note_off,0,0,0,,,,,4,,,,,,,42,0
1338,note_off,0,0,0,,,,,6,,,,,,,42,0
1341,note_off,3,0,0,,,,,0,,,,,,,66,0
1342,note_off,1,0,0,,,,,5,,,,,,,66,0
1344,note_on,2,0,0,,,,,5,,,,,,,70,88
1354,note_off,10,0,0,,,,,5,,,,,,,70,0
1356,note_on,2,0,0,,,,,5,,,,,,,73,88
1366,note_off,10,0,0,,,,,5,,,,,,,73,0
1368,note_on,2,0,0,,,,,5,,,,,,,76,88
1378,note_off,10,0,0,,,,,5,,,,,,,76,0
1380,note_on,2,0,0,,,,,5,,,,,,,79,88
1390,note_off,10,0,0,,,,,5,,,,,,,79,0
1392,note_on,2,0,0,,,,,5,,,,,,,78,88
1395,note_off,3,0,0,,,,,5,,,,,,,78,0
1395,note_on,0,0,0,,,,,5,,,,,,,79,88
1398,note_off,3,0,0,,,,,5,,,,,,,79,0
1398,note_on,0,0,0,,,,,5,,,,,,,78,88
1401,note_off,3,0,0,,,,,5,,,,,,,78,0
1401,note_on,0,0,0,,,,,5,,,,,,,79,88
1404,note_off,3,0,0,,,,,5,,,,,,,79,0
1404,note_on,0,0,0,,,,,5,,,,,,,78,88
1409,note_off,5,0,0,,,,,5,,,,,,,78,0
1410,note_on,1,0,0,,,,,5,,,,,,,76,88
1415,note_off,5,0,0,,,,,5,,,,,,,76,0
1416,note_on,1,0,0,,,,,5,,,,,,,74,88
1421,note_off,5,0,0,,,,,5,,,,,,,74,0
1422,note_on,1,0,0,,,,,5,,,,,,,76,88
1427,note_off,5,0,0,,,,,5,,,,,,,76,0
1428,note_on,1,0,0,,,,,5,,,,,,,73,88
1438,note_off,10,0,0,,,,,5,,,,,,,73,0
1440,note_on,2,0,0,,,,,0,,,,,,,74,80
1440,note_on,0,0,0,,,,,1,,,,,,,66,80
1440,note_on,0,0,0,,,,,2,,,,,,,59,80
1440,note_on,0,0,0,,,,,3,,,,,,,47,80
1440,note_on,0,0,0,,,,,4,,,,,,,35,80
1440,note_on,0,0,0,,,,,5,,,,,,,74,88
1440,note_on,0,0,0,,,,,6,,,,,,,59,88
1450,note_off,10,0,0,,,,,6,,,,,,,59,0
1452,note_on,2,0,0,,,,,6,,,,,,,58,88
1461,note_off,9,0,0,,,,,5,,,,,,,74,0
1462,note_off,1,0,0,,,,,6,,,,,,,58,0
1464,note_on,2,0,0,,,,,5,,,,,,,71,88
1464,note_on,0,0,0,,,,,6,,,,,,,59,88
1482,note_off,18,0,0,,,,,0,,,,,,,74,0
1482,note_off,0,0,0,,,,,1,,,,,,,66,0
1482,note_off,0,0,0,,,,,2,,,,,,,59,0
1482,note_off,0,0,0,,,,,3,,,,,,,47,0
1482,note_off,0,0,0,,,,,4,,,,,,,35,0
1485,note_off,3,0,0,,,,,5,,,,,,,71,0
1485,note_off,0,0,0,,,,,6,,,,,,,59,0
1488,note_on,3,0,0,,,,,6,,,,,,,54,88
1500,note_on,12,0,0,,,,,5,,,,,,,74,88
1505,note_off,5,0,0,,,,,5,,,,,,,74,0
1506,note_on,1,0,0,,,,,5,,,,,,,73,88
1509,note_off,3,0,0,,,,,6,,,,,,,54,0
1511,note_off,2,0,0,,,,,5,,,,,,,73,0
1512,note_on,1,0,0,,,,,0,,,,,,,74,80
1512,note_on,0,0,0,,,,,1,,,,,,,71,80
1512,note_on,0,0,0,,,,,2,,,,,,,66,80
1512,note_on,0,0,0,,,,,5,,,,,,,74,88
1512,note_on,0,0,0,,,,,6,,,,,,,54,88
1522,note_off,10,0,0,,,,,0,,,,,,,74,0
1522,note_off,0,0,0,,,,,1,,,,,,,71,0
1522,note_off,0,0,0,,,,,5,,,,,,,74,0
1524,note_on,2,0,0,,,,,0,,,,,,,73,80
1524,note_on,0,0,0,,,,,1,,,,,,,70,80
1524,note_on,0,0,0,,,,,5,,,,,,,78,88
1533,note_off,9,0,0,,,,,2,,,,,,,66,0
1533,note_off,0,0,0,,,,,6,,,,,,,54,0
1534,note_off,1,0,0,,,,,0,,,,,,,73,0
1534,note_off,0,0,0,,,,,1,,,,,,,70,0
1534,note_off,0,0,0,,,,,5,,,,,,,78,0
1536,note_on,2,0,0,,,,,0,,,,,,,74,80
1536,note_on,0,0,0,,,,,1,,,,,,,71,80
1536,note_on,0,0,0,,,,,2,,,,,,,66,80
1536,note_on,0,0,0,,,,,5,,,,,,,74,88
1536,note_on,0,0,0,,,,,6,,,,,,,54,88
1546,note_off,10,0,0,,,,,5,,,,,,,74,0
1546,note_off,0,0,0,,,,,6,,,,,,,54,0
1548,note_on,2,0,0,,,,,3,,,,,,,47,80
1548,note_on,0,0,0,,,,,4,,,,,,,35,80
1548,note_on,0,0,0,,,,,5,,,,,,,71,88
1548,note_on,0,0,0,,,,,6,,,,,,,59,88
1557,note_off,9,0,0,,,,,0,,,,,,,74,0
1557,note_off,0,0,0,,,,,1,,,,,,,71,0
1557,note_off,0,0,0,,,,,2,,,,,,,66,0
1558,note_off,1,0,0,,,,,3,,,,,,,47,0
1558,note_off,0,0,0,,,,,4,,,,,,,35,0
1558,note_off,0,0,0,,,,,5,,,,,,,71,0
1558,note_off,0,0,0,,,,,6,,,,,,,59,0
1560,note_on,2,0,0,,,,,0,,,,,,,74,80
1560,note_on,0,0,0,,,,,1,,,,,,,66,80
1560,note_on,0,0,0,,,,,2,,,,,,,66,80
1560,note_on,0,0,0,,,,,3,,,,,,,49,80
1560,note_on,0,0,0,,,,,4,,,,,,,37,80
1560,note_on,0,0,0,,,,,5,,,,,,,70,88
1560,note_on,0,0,0,,,,,6,,,,,,,61,88
1570,note_off,10,0,0,,,,,3,,,,,,,49,0
1570,note_off,0,0,0,,,,,4,,,,,,,37,0
1570,note_off,0,0,0,,,,,5,,,,,,,70,0
1570,note_off,0,0,0,,,,,6,,,,,,,61,0
1572,note_on,2,0,0,,,,,3,,,,,,,50,80
1572,note_on,0,0,0,,,,,4,,,,,,,38,80
1572,note_on,0,0,0,,,,,5,,,,,,,71,88
1572,note_on,0,0,0,,,,,6,,,,,,,62,88
1581,note_off,9,0,0,,,,,0,,,,,,,74,0
1581,note_off,0,0,0,,,,,1,,,,,,,66,0
1581,note_off,0,0,0,,,,,2,,,,,,,66,0
1582,note_off,1,0,0,,,,,3,,,,,,,50,0
1582,note_off,0,0,0,,,,,4,,,,,,,38,0
1582,note_off,0,0,0,,,,,5,,,,,,,71,0
1582,note_off,0,0,0,,,,,6,,,,,,,62,0
1584,note_on,2,0,0,,,,,0,,,,,,,74,80
1584,note_on,0,0,0,,,,,1,,,,,,,71,80
1584,note_on,0,0,0,,,,,2,,,,,,,64,80
1584,note_on,0,0,0,,,,,3,,,,,,,43,80
1584,note_on,0,0,0,,,,,4,,,,,,,31,80
1584,note_on,0,0,0,,,,,5,,,,,,,64,88
1584,note_on,0,0,0,,,,,6,,,,,,,55,88
1594,note_off,10,0,0,,,,,5,,,,,,,64,0
1594,note_off,0,0,0,,,,,6,,,,,,,55,0
1596,note_on,2,0,0,,,,,5,,,,,,,71,88
1596,note_on,0,0,0,,,,,6,,,,,,,54,88
1606,note_off,10,0,0,,,,,5,,,,,,,71,0
1606,note_off,0,0,0,,,,,6,,,,,,,54,0
1608,note_on,2,0,0,,,,,5,,,,,,,79,88
1608,note_on,0,0,0,,,,,6,,,,,,,55,88
1626,note_off,18,0,0,,,,,0,,,,,,,74,0
1626,note_off,0,0,0,,,,,1,,,,,,,71,0
1626,note_off,0,0,0,,,,,2,,,,,,,64,0
1626,note_off,0,0,0,,,,,3,,,,,,,43,0
1626,note_off,0,0,0,,,,,4,,,,,,,31,0
1629,note_off,3,0,0,,,,,6,,,,,,,55,0
1632,note_on,3,0,0,,,,,6,,,,,,,52,88
1639,note_off,7,0,0,,,,,5,,,,,,,79,0
1644,note_on,5,0,0,,,,,5,,,,,,,73,88
1649,note_off,5,0,0,,,,,5,,,,,,,73,0
1650,note_on,1,0,0,,,,,5,,,,,,,71,88
1653,note_off,3,0,0,,,,,6,,,,,,,52,0
1655,note_off,2,0,0,,,,,5,,,,,,,71,0
1656,note_on,1,0,0,,,,,0,,,,,,,73,80
1656,note_on,0,0,0,,,,,1,,,,,,,69,80
1656,note_on,0,0,0,,,,,2,,,,,,,64,80
1656,note_on,0,0,0,,,,,5,,,,,,,73,88
1656,note_on,0,0,0,,,,,6,,,,,,,52,88
1666,note_off,10,0,0,,,,,0,,,,,,,73,0
1666,note_off,0,0,0,,,,,1,,,,,,,69,0
1666,note_off,0,0,0,,,,,5,,,,,,,73,0
1668,note_on,2,0,0,,,,,0,,,,,,,71,80
1668,note_on,0,0,0,,,,,1,,,,,,,68,80
1668,note_on,0,0,0,,,,,5,,,,,,,76,88
1677,note_off,9,0,0,,,,,2,,,,,,,64,0
1677,note_off,0,0,0,,,,,6,,,,,,,52,0
1678,note_off,1,0,0,,,,,0,,,,,,,71,0
1678,note_off,0,0,0,,,,,1,,,,,,,68,0
1678,note_off,0,0,0,,,,,5,,,,,,,76,0
1680,note_on,2,0,0,,,,,0,,,,,,,73,80
1680,note_on,0,0,0,,,,,1,,,,,,,69,80
1680,note_on,0,0,0,,,,,2,,,,,,,64,80
1680,note_on,0,0,0,,,,,5,,,,,,,73,88
1680,note_on,0,0,0,,,,,6,,,,,,,52,88
1690,note_off,10,0,0,,,,,5,,,,,,,73,0
1690,note_off,0,0,0,,,,,6,,,,,,,52,0
1692,note_on,2,0,0,,,,,3,,,,,,,45,80
1692,note_on,0,0,0,,,,,4,,,,,,,33,80
1692,note_on,0,0,0,,,,,5,,,,,,,69,88
1692,note_on,0,0,0,,,,,6,,,,,,,57,88
1701,note_off,9,0,0,,,,,0,,,,,,,73,0
1701,note_off,0,0,0,,,,,1,,,,,,,69,0
1701,note_off,0,0,0,,,,,2,,,,,,,64,0
1702,note_off,1,0,0,,,,,3,,,,,,,45,0
1702,note_off,0,0,0,,,,,4,,,,,,,33,0
1702,note_off,0,0,0,,,,,5,,,,,,,69,0
1702,note_off,0,0,0,,,,,6,,,,,,,57,0
1704,note_on,2,0,0,,,,,0,,,,,,,73,80
1704,note_on,0,0,0,,,,,1,,,,,,,64,80
1704,note_on,0,0,0,,,,,2,,,,,,,64,80
1704,note_on,0,0,0,,,,,3,,,,,,,47,80
1704,note_on,0,0,0,,,,,4,,,,,,,35,80
1704,note_on,0,0,0,,,,,5,,,,,,,68,88
1704,note_on,0,0,0,,,,,6,,,,,,,59,88
1714,note_off,10,0,0,,,,,3,,,,,,,47,0
1714,note_off,0,0,0,,,,,4,,,,,,,35,0
1714,note_off,0,0,0,,,,,5,,,,,,,68,0
1714,note_off,0,0,0,,,,,6,,,,,,,59,0
1716,note_on,2,0,0,,,,,3,,,,,,,49,80
1716,note_on,0,0,0,,,,,4,,,,,,,37,80
1716,note_on,0,0,0,,,,,5,,,,,,,69,88
1716,note_on,0,0,0,,,,,6,,,,,,,61,88
1725,note_off,9,0,0,,,,,0,,,,,,,73,0
1725,note_off,0,0,0,,,,,1,,,,,,,64,0
1725,note_off,0,0,0,,,,,2,,,,,,,64,0
1726,note_off,1,0,0,,,,,3,,,,,,,49,0
1726,note_off,0,0,0,,,,,4,,,,,,,37,0
1726,note_off,0,0,0,,,,,5,,,,,,,69,0
1726,note_off,0,0,0,,,,,6,,,,,,,61,0
1728,note_on,2,0,0,,,,,0,,,,,,,72,80
1728,note_on,0,0,0,,,,,1,,,,,,,69,80
1728,note_on,0,0,0,,,,,2,,,,,,,62,80
1728,note_on,0,0,0,,,,,3,,,,,,,42,80
1728,note_on,0,0,0,,,,,4,,,,,,,30,80
1728,note_on,0,0,0,,,,,5,,,,,,,62,88
1728,note_on,0,0,0,,,,,6,,,,,,,54,88
1738,note_off,10,0,0,,,,,5,,,,,,,62,0
1738,note_off,0,0,0,,,,,6,,,,,,,54,0
1740,note_on,2,0,0,,,,,5,,,,,,,69,88
1740,note_on,0,0,0,,,,,6,,,,,,,52,88
1750,note_off,10,0,0,,,,,5,,,,,,,69,0
1750,note_off,0,0,0,,,,,6,,,,,,,52,0
1752,note_on,2,0,0,,,,,5,,,,,,,78,88
1752,note_on,0,0,0,,,,,6,,,,,,,54,88
1770,note_off,18,0,0,,,,,0,,,,,,,72,0
1770,note_off,0,0,0,,,,,1,,,,,,,69,0
1770,note_off,0,0,0,,,,,2,,,,,,,62,0
1770,note_off,0,0,0,,,,,3,,,,,,,42,0
1770,note_off,0,0,0,,,,,4,,,,,,,30,0
1773,note_off,3,0,0,,,,,6,,,,,,,54,0
1776,note_on,3,0,0,,,,,6,,,,,,,50,88
1783,note_off,7,0,0,,,,,5,,,,,,,78,0
1788,note_on,5,0,0,,,,,5,,,,,,,78,88
1793,note_off,5,0,0,,,,,5,,,,,,,78,0
1794,note_on,1,0,0,,,,,5,,,,,,,76,88
1797,note_off,3,0,0,,,,,6,,,,,,,50,0
1799,note_off,2,0,0,,,,,5,,,,,,,76,0
1800,note_on,1,0,0,,,,,0,,,,,,,72,80
1800,note_on,0,0,0,,,,,1,,,,,,,69,80
1800,note_on,0,0,0,,,,,2,,,,,,,62,80
1800,note_on,0,0,0,,,,,5,,,,,,,78,88
1800,note_on,0,0,0,,,,,6,,,,,,,50,88
1810,note_off,10,0,0,,,,,0,,,,,,,72,0
1810,note_off,0,0,0,,,,,1,,,,,,,69,0
1810,note_off,0,0,0,,,,,5,,,,,,,78,0
1812,note_on,2,0,0,,,,,0,,,,,,,71,80
1812,note_on,0,0,0,,,,,1,,,,,,,67,80
1812,note_on,0,0,0,,,,,5,,,,,,,81,88
1821,note_off,9,0,0,,,,,2,,,,,,,62,0
1821,note_off,0,0,0,,,,,6,,,,,,,50,0
1822,note_off,1,0,0,,,,,0,,,,,,,71,0
1822,note_off,0,0,0,,,,,1,,,,,,,67,0
1822,note_off,0,0,0,,,,,5,,,,,,,81,0
1824,note_on,2,0,0,,,,,0,,,,,,,72,80
1824,note_on,0,0,0,,,,,1,,,,,,,69,80
1824,note_on,0,0,0,,,,,2,,,,,,,62,80
1824,note_on,0,0,0,,,,,5,,,,,,,78,88
1824,note_on,0,0,0,,,,,6,,,,,,,50,88
1834,note_off,10,0,0,,,,,5,,,,,,,78,0
1834,note_off,0,0,0,,,,,6,,,,,,,50,0
1836,note_on,2,0,0,,,,,3,,,,,,,50,80
1836,note_on,0,0,0,,,,,4,,,,,,,38,80
1836,note_on,0,0,0,,,,,5,,,,,,,74,88
1836,note_on,0,0,0,,,,,6,,,,,,,62,88
1842,note_off,6,0,0,,,,,5,,,,,,,74,0
1842,note_on,0,0,0,,,,,5,,,,,,,76,88
1845,note_off,3,0,0,,,,,0,,,,,,,72,0
1845,note_off,0,0,0,,,,,1,,,,,,,69,0
1845,note_off,0,0,0,,,,,2,,,,,,,62,0
1846,note_off,1,0,0,,,,,3,,,,,,,50,0
1846,note_off,0,0,0,,,,,4,,,,,,,38,0
1846,note_off,0,0,0,,,,,6,,,,,,,62,0
1848,note_on,2,0,0,,,,,0,,,,,,,69,80
1848,note_on,0,0,0,,,,,1,,,,,,,62,80
1848,note_on,0,0,0,,,,,2,,,,,,,62,80
1848,note_on,0,0,0,,,,,3,,,,,,,50,80
1848,note_on,0,0,0,,,,,4,,,,,,,38,80
1848,note_off,0,0,0,,,,,5,,,,,,,76,0
1848,note_on,0,0,0,,,,,5,,,,,,,78,88
1848,note_on,0,0,0,,,,,6,,,,,,,62,88
1854,note_off,6,0,0,,,,,5,,,,,,,78,0
1854,note_on,0,0,0,,,,,5,,,,,,,81,88
1858,note_off,4,0,0,,,,,3,,,,,,,50,0
1858,note_off,0,0,0,,,,,4,,,,,,,38,0
1858,note_off,0,0,0,,,,,6,,,,,,,62,0
1860,note_on,2,0,0,,,,,3,,,,,,,47,80
1860,note_on,0,0,0,,,,,4,,,,,,,35,80
1860,note_off,0,0,0,,,,,5,,,,,,,81,0
1860,note_on,0,0,0,,,,,5,,,,,,,79,88
1860,note_on,0,0,0,,,,,6,,,,,,,59,88
1869,note_off,9,0,0,,,,,0,,,,,,,69,0
1869,note_off,0,0,0,,,,,1,,,,,,,62,0
1869,note_off,0,0,0,,,,,2,,,,,,,62,0
1870,note_off,1,0,0,,,,,3,,,,,,,47,0
1870,note_off,0,0,0,,,,,4,,,,,,,35,0
1870,note_off,0,0,0,,,,,5,,,,,,,79,0
1870,note_off,0,0,0,,,,,6,,,,,,,59,0
1872,note_on,2,0,0,,,,,0,,,,,,,74,80
1872,note_on,0,0,0,,,,,1,,,,,,,62,80
1872,note_on,0,0,0,,,,,2,,,,,,,62,80
1872,note_on,0,0,0,,,,,3,,,,,,,47,80
1872,note_on,0,0,0,,,,,4,,,,,,,35,80
1872,note_on,0,0,0,,,,,5,,,,,,,79,88
1872,note_on,0,0,0,,,,,6,,,,,,,59,88
1882,note_off,10,0,0,,,,,5,,,,,,,79,0
1882,note_off,0,0,0,,,,,6,,,,,,,59,0
1884,note_off,2,0,0,,,,,0,,,,,,,74,0
1884,note_on,0,0,0,,,,,0,,,,,,,71,80
1884,note_off,0,0,0,,,,,1,,,,,,,62,0
1884,note_on,0,0,0,,,,,1,,,,,,,67,80
1884,note_off,0,0,0,,,,,2,,,,,,,62,0
1884,note_on,0,0,0,,,,,2,,,,,,,64,80
1884,note_off,0,0,0,,,,,3,,,,,,,47,0
1884,note_on,0,0,0,,,,,3,,,,,,,43,80
1884,note_off,0,0,0,,,,,4,,,,,,,35,0
1884,note_on,0,0,0,,,,,4,,,,,,,31,80
1884,note_on,0,0,0,,,,,5,,,,,,,76,88
1884,note_on,0,0,0,,,,,6,,,,,,,55,88
1894,note_off,10,0,0,,,,,0,,,,,,,71,0
1894,note_off,0,0,0,,,,,1,,,,,,,67,0
1894,note_off,0,0,0,,,,,2,,,,,,,64,0
1894,note_off,0,0,0,,,,,3,,,,,,,43,0
1894,note_off,0,0,0,,,,,4,,,,,,,31,0
1894,note_off,0,0,0,,,,,5,,,,,,,76,0
1894,note_off,0,0,0,,,,,6,,,,,,,55,0
1896,note_on,2,0,0,,,,,0,,,,,,,71,80
1896,note_on,0,0,0,,,,,1,,,,,,,67,80
1896,note_on,0,0,0,,,,,2,,,,,,,64,80
1896,note_on,0,0,0,,,,,3,,,,,,,43,80
1896,note_on,0,0,0,,,,,4,,,,,,,31,80
1896,note_on,0,0,0,,,,,5,,,,,,,76,88
1896,note_on,0,0,0,,,,,6,,,,,,,55,88
1906,note_off,10,0,0,,,,,5,,,,,,,76,0
1906,note_off,0,0,0,,,,,6,,,,,,,55,0
1908,note_off,2,0,0,,,,,0,,,,,,,71,0
1908,note_on,0,0,0,,,,,0,,,,,,,67,80
1908,note_off,0,0,0,,,,,1,,,,,,,67,0
1908,note_on,0,0,0,,,,,1,,,,,,,71,80
1908,note_off,0,0,0,,,,,2,,,,,,,64,0
1908,note_on,0,0,0,,,,,2,,,,,,,59,80
1908,note_off,0,0,0,,,,,3,,,,,,,43,0
1908,note_on,0,0,0,,,,,3,,,,,,,40,80
1908,note_off,0,0,0,,,,,4,,,,,,,31,0
1908,note_on,0,0,0,,,,,4,,,,,,,28,80
1908,note_on,0,0,0,,,,,5,,,,,,,79,88
1908,note_on,0,0,0,,,,,6,,,,,,,52,88
1918,note_off,10,0,0,,,,,0,,,,,,,67,0
1918,note_off,0,0,0,,,,,1,,,,,,,71,0
1918,note_off,0,0,0,,,,,2,,,,,,,59,0
1918,note_off,0,0,0,,,,,3,,,,,,,40,0
1918,note_off,0,0,0,,,,,4,,,,,,,28,0
1918,note_off,0,0,0,,,,,5,,,,,,,79,0
1918,note_off,0,0,0,,,,,6,,,,,,,52,0
1920,note_on,2,0,0,,,,,0,,,,,,,67,80
1920,note_on,0,0,0,,,,,1,,,,,,,73,80
1920,note_on,0,0,0,,,,,2,,,,,,,55,80
1920,note_on,0,0,0,,,,,3,,,,,,,40,80
1920,note_on,0,0,0,,,,,4,,,,,,,28,80
1920,note_on,0,0,0,,,,,5,,,,,,,73,88
1920,note_on,0,0,0,,,,,6,,,,,,,52,88
1930,note_off,10,0,0,,,,,0,,,,,,,67,0
1930,note_off,0,0,0,,,,,5,,,,,,,73,0
1930,note_off,0,0,0,,,,,6,,,,,,,52,0
1932,note_on,2,0,0,,,,,0,,,,,,,71,80
1932,note_off,0,0,0,,,,,1,,,,,,,73,0
1932,note_on,0,0,0,,,,,1,,,,,,,67,80
1932,note_off,0,0,0,,,,,2,,,,,,,55,0
1932,note_on,0,0,0,,,,,2,,,,,,,52,80
1932,note_off,0,0,0,,,,,3,,,,,,,40,0
1932,note_on,0,0,0,,,,,3,,,,,,,38,80
1932,note_off,0,0,0,,,,,4,,,,,,,28,0
1932,note_on,0,0,0,,,,,4,,,,,,,26,80
1932,note_on,0,0,0,,,,,5,,,,,,,76,88
1932,note_on,0,0,0,,,,,6,,,,,,,50,88
1942,note_off,10,0,0,,,,,0,,,,,,,71,0
1942,note_off,0,0,0,,,,,1,,,,,,,67,0
1942,note_off,0,0,0,,,,,2,,,,,,,52,0
1942,note_off,0,0,0,,,,,3,,,,,,,38,0
1942,note_off,0,0,0,,,,,4,,,,,,,26,0
1942,note_off,0,0,0,,,,,5,,,,,,,76,0
1942,note_off,0,0,0,,,,,6,,,,,,,50,0
1944,note_on,2,0,0,,,,,0,,,,,,,69,80
1944,note_on,0,0,0,,,,,1,,,,,,,64,80
1944,note_on,0,0,0,,,,,2,,,,,,,55,80
1944,note_on,0,0,0,,,,,3,,,,,,,37,80
1944,note_on,0,0,0,,,,,4,,,,,,,25,80
1944,note_on,0,0,0,,,,,5,,,,,,,69,88
1944,note_on,0,0,0,,,,,6,,,,,,,49,88
1954,note_off,10,0,0,,,,,5,,,,,,,69,0
1954,note_off,0,0,0,,,,,6,,,,,,,49,0
1956,note_off,2,0,0,,,,,1,,,,,,,64,0
1956,note_on,0,0,0,,,,,1,,,,,,,62,80
1956,note_off,0,0,0,,,,,2,,,,,,,55,0
1956,note_on,0,0,0,,,,,2,,,,,,,54,80
1956,note_off,0,0,0,,,,,3,,,,,,,37,0
1956,note_on,0,0,0,,,,,3,,,,,,,38,80
1956,note_off,0,0,0,,,,,4,,,,,,,25,0
1956,note_on,0,0,0,,,,,4,,,,,,,26,80
1956,note_on,0,0,0,,,,,5,,,,,,,78,88
1956,note_on,0,0,0,,,,,6,,,,,,,50,88
1965,note_off,9,0,0,,,,,0,,,,,,,69,0
1966,note_off,1,0,0,,,,,1,,,,,,,62,0
1966,note_off,0,0,0,,,,,2,,,,,,,54,0
1966,note_off,0,0,0,,,,,3,,,,,,,38,0
1966,note_off,0,0,0,,,,,4,,,,,,,26,0
1966,note_off,0,0,0,,,,,5,,,,,,,78,0
1966,note_off,0,0,0,,,,,6,,,,,,,50,0
1968,note_on,2,0,0,,,,,0,,,,,,,66,80
1968,note_on,0,0,0,,,,,1,,,,,,,62,80
1968,note_on,0,0,0,,,,,2,,,,,,,57,80
1968,note_on,0,0,0,,,,,3,,,,,,,45,80
1968,note_on,0,0,0,,,,,4,,,,,,,33,80
1968,note_on,0,0,0,,,,,5,,,,,,,76,88
1968,note_on,0,0,0,,,,,6,,,,,,,57,88
1971,note_off,3,0,0,,,,,5,,,,,,,76,0
1971,note_on,0,0,0,,,,,5,,,,,,,74,88
1974,note_off,3,0,0,,,,,5,,,,,,,74,0
1974,note_on,0,0,0,,,,,5,,,,,,,76,88
1977,note_off,3,0,0,,,,,5,,,,,,,76,0
1977,note_on,0,0,0,,,,,5,,,,,,,74,88
1980,note_off,3,0,0,,,,,5,,,,,,,74,0
1980,note_on,0,0,0,,,,,5,,,,,,,76,88
1983,note_off,3,0,0,,,,,5,,,,,,,76,0
1983,note_on,0,0,0,,,,,5,,,,,,,74,88
1986,note_off,3,0,0,,,,,5,,,,,,,74,0
1986,note_on,0,0,0,,,,,5,,,,,,,76,88
1989,note_off,3,0,0,,,,,0,,,,,,,66,0
1989,note_off,0,0,0,,,,,1,,,,,,,62,0
1989,note_off,0,0,0,,,,,2,,,,,,,57,0
1989,note_off,0,0,0,,,,,3,,,,,,,45,0
1989,note_off,0,0,0,,,,,4,,,,,,,33,0
1989,note_off,0,0,0,,,,,5,,,,,,,76,0
1989,note_on,0,0,0,,,,,5,,,,,,,74,88
1989,note_off,0,0,0,,,,,6,,,,,,,57,0
1992,note_on,3,0,0,,,,,0,,,,,,,64,80
1992,note_on,0,0,0,,,,,1,,,,,,,64,80
1992,note_on,0,0,0,,,,,2,,,,,,,57,80
1992,note_on,0,0,0,,,,,3,,,,,,,45,80
1992,note_on,0,0,0,,,,,4,,,,,,,33,80
1992,note_off,0,0,0,,,,,5,,,,,,,74,0
1992,note_on,0,0,0,,,,,5,,,,,,,76,88
1992,note_on,0,0,0,,,,,6,,,,,,,45,88
1995,note_off,3,0,0,,,,,5,,,,,,,76,0
1995,note_on,0,0,0,,,,,5,,,,,,,74,88
2002,note_off,7,0,0,,,,,0,,,,,,,64,0
2003,note_off,1,0,0,,,,,5,,,,,,,74,0
2004,note_on,1,0,0,,,,,0,,,,,,,62,80
2004,note_on,0,0,0,,,,,5,,,,,,,76,88
2009,note_off,5,0,0,,,,,5,,,,,,,76,0
2010,note_on,1,0,0,,,,,5,,,,,,,73,88
2013,note_off,3,0,0,,,,,1,,,,,,,64,0
2013,note_off,0,0,0,,,,,2,,,,,,,57,0
2013,note_off,0,0,0,,,,,3,,,,,,,45,0
2013,note_off,0,0,0,,,,,4,,,,,,,33,0
2013,note_off,0,0,0,,,,,6,,,,,,,45,0
2014,note_off,1,0,0,,,,,0,,,,,,,62,0
2015,note_off,1,0,0,,,,,5,,,,,,,73,0
2016,note_on,1,0,0,,,,,0,,,,,,,62,80
2016,note_on,0,0,0,,,,,1,,,,,,,66,80
2016,note_on,0,0,0,,,,,2,,,,,,,57,80
2016,note_on,0,0,0,,,,,3,,,,,,,38,80
2016,note_on,0,0,0,,,,,4,,,,,,,26,80
2016,note_on,0,0,0,,,,,5,,,,,,,74,88
2016,note_on,0,0,0,,,,,6,,,,,,,50,88
2026,note_off,10,0,0,,,,,5,,,,,,,74,0
2028,note_on,2,0,0,,,,,5,,,,,,,69,88
2033,note_off,5,0,0,,,,,5,,,,,,,69,0
2034,note_on,1,0,0,,,,,5,,,,,,,67,88
2039,note_off,5,0,0,,,,,5,,,,,,,67,0
2040,note_on,1,0,0,,,,,5,,,,,,,69,88
2050,note_off,10,0,0,,,,,5,,,,,,,69,0
2052,note_on,2,0,0,,,,,5,,,,,,,74,88
2058,note_off,6,0,0,,,,,0,,,,,,,62,0
2058,note_off,0,0,0,,,,,1,,,,,,,66,0
2058,note_off,0,0,0,,,,,2,,,,,,,57,0
2058,note_off,0,0,0,,,,,3,,,,,,,38,0
2058,note_off,0,0,0,,,,,4,,,,,,,26,0
2058,note_off,0,0,0,,,,,6,,,,,,,50,0
2062,note_off,4,0,0,,,,,5,,,,,,,74,0
2064,note_on,2,0,0,,,,,5,,,,,,,74,88
2074,note_off,10,0,0,,,,,5,,,,,,,74,0
2076,note_on,2,0,0,,,,,5,,,,,,,66,88
2081,note_off,5,0,0,,,,,5,,,,,,,66,0
2082,note_on,1,0,0,,,,,5,,,,,,,64,88
2087,note_off,5,0,0,,,,,5,,,,,,,64,0
2088,note_on,1,0,0,,,,,5,,,,,,,66,88
2098,note_off,10,0,0,,,,,5,,,,,,,66,0
2100,note_on,2,0,0,,,,,5,,,,,,,69,88
2110,note_off,10,0,0,,,,,5,,,,,,,69,0
2112,note_on,2,0,0,,,,,5,,,,,,,69,88
2122,note_off,10,0,0,,,,,5,,,,,,,69,0
2124,note_on,2,0,0,,,,,5,,,,,,,62,88
2129,note_off,5,0,0,,,,,5,,,,,,,62,0
2130,note_on,1,0,0,,,,,5,,,,,,,61,88
2135,note_off,5,0,0,,,,,5,,,,,,,61,0
2136,note_on,1,0,0,,,,,5,,,,,,,62,88
2146,note_off,10,0,0,,,,,5,,,,,,,62,0
2148,note_on,2,0,0,,,,,5,,,,,,,66,88
2158,note_off,10,0,0,,,,,5,,,,,,,66,0
2160,note_on,2,0,0,,,,,0,,,,,,,76,80
2160,note_on,0,0,0,,,,,1,,,,,,,73,80
2160,note_on,0,0,0,,,,,2,,,,,,,67,80
2160,note_on,0,0,0,,,,,3,,,,,,,49,80
2160,note_on,0,0,0,,,,,4,,,,,,,37,80
2160,note_on,0,0,0,,,,,5,,,,,,,71,88
2160,note_on,0,0,0,,,,,6,,,,,,,49,88
2170,note_off,10,0,0,,,,,6,,,,,,,49,0
2172,note_on,2,0,0,,,,,6,,,,,,,47,88
2182,note_off,10,0,0,,,,,6,,,,,,,47,0
2184,note_off,2,0,0,,,,,5,,,,,,,71,0
2184,note_on,0,0,0,,,,,5,,,,,,,70,88
2184,note_on,0,0,0,,,,,6,,,,,,,49,88
2202,note_off,18,0,0,,,,,0,,,,,,,76,0
2202,note_off,0,0,0,,,,,1,,,,,,,73,0
2202,note_off,0,0,0,,,,,2,,,,,,,67,0
2202,note_off,0,0,0,,,,,3,,,,,,,49,0
2202,note_off,0,0,0,,,,,4,,,,,,,37,0
2205,note_off,3,0,0,,,,,6,,,,,,,49,0
2208,note_on,3,0,0,,,,,6,,,,,,,42,88
2215,note_off,7,0,0,,,,,5,,,,,,,70,0
2220,note_on,5,0,0,,,,,5,,,,,,,73,88
2225,note_off,5,0,0,,,,,5,,,,,,,73,0
2226,note_on,1,0,0,,,,,5,,,,,,,71,88
2229,note_off,3,0,0,,,,,6,,,,,,,42,0
2231,note_off,2,0,0,,,,,5,,,,,,,71,0
2232,note_on,1,0,0,,,,,0,,,,,,,70,80
2232,note_on,0,0,0,,,,,1,,,,,,,73,80
2232,note_on,0,0,0,,,,,2,,,,,,,66,80
2232,note_on,0,0,0,,,,,5,,,,,,,73,88
2232,note_on,0,0,0,,,,,6,,,,,,,42,88
2242,note_off,10,0,0,,,,,0,,,,,,,70,0
2242,note_off,0,0,0,,,,,1,,,,,,,73,0
2242,note_off,0,0,0,,,,,5,,,,,,,73,0
2244,note_on,2,0,0,,,,,0,,,,,,,68,80
2244,note_on,0,0,0,,,,,1,,,,,,,71,80
2244,note_on,0,0,0,,,,,5,,,,,,,76,88
2253,note_off,9,0,0,,,,,2,,,,,,,66,0
2253,note_off,0,0,0,,,,,6,,,,,,,42,0
2254,note_off,1,0,0,,,,,0,,,,,,,68,0
2254,note_off,0,0,0,,,,,1,,,,,,,71,0
2254,note_off,0,0,0,,,,,5,,,,,,,76,0
2256,note_on,2,0,0,,,,,0,,,,,,,70,80
2256,note_on,0,0,0,,,,,1,,,,,,,73,80
2256,note_on,0,0,0,,,,,2,,,,,,,66,80
2256,note_on,0,0,0,,,,,5,,,,,,,76,88
2256,note_on,0,0,0,,,,,6,,,,,,,42,88
2266,note_off,10,0,0,,,,,5,,,,,,,76,0
2266,note_off,0,0,0,,,,,6,,,,,,,42,0
2268,note_on,2,0,0,,,,,3,,,,,,,49,80
2268,note_on,0,0,0,,,,,4,,,,,,,37,80
2268,note_on,0,0,0,,,,,5,,,,,,,73,88
2268,note_on,0,0,0,,,,,6,,,,,,,49,88
2277,note_off,9,0,0,,,,,0,,,,,,,70,0
2277,note_off,0,0,0,,,,,1,,,,,,,73,0
2277,note_off,0,0,0,,,,,2,,,,,,,66,0
2278,note_off,1,0,0,,,,,3,,,,,,,49,0
2278,note_off,0,0,0,,,,,4,,,,,,,37,0
2278,note_off,0,0,0,,,,,5,,,,,,,73,0
2278,note_off,0,0,0,,,,,6,,,,,,,49,0
2280,note_on,2,0,0,,,,,0,,,,,,,73,80
2280,note_on,0,0,0,,,,,1,,,,,,,66,80
2280,note_on,0,0,0,,,,,2,,,,,,,66,80
2280,note_on,0,0,0,,,,,3,,,,,,,50,80
2280,note_on,0,0,0,,,,,4,,,,,,,38,80
2280,note_on,0,0,0,,,,,5,,,,,,,71,88
2280,note_on,0,0,0,,,,,6,,,,,,,50,88
2283,note_off,3,0,0,,,,,5,,,,,,,71,0
2283,note_on,0,0,0,,,,,5,,,,,,,73,88
2286,note_off,3,0,0,,,,,5,,,,,,,73,0
2286,note_on,0,0,0,,,,,5,,,,,,,71,88
2290,note_off,4,0,0,,,,,3,,,,,,,50,0
2290,note_off,0,0,0,,,,,4,,,,,,,38,0
2290,note_off,0,0,0,,,,,6,,,,,,,50,0
2291,note_off,1,0,0,,,,,5,,,,,,,71,0
2292,note_on,1,0,0,,,,,3,,,,,,,52,80
2292,note_on,0,0,0,,,,,4,,,,,,,40,80
2292,note_on,0,0,0,,,,,5,,,,,,,70,88
2292,note_on,0,0,0,,,,,6,,,,,,,52,88
2301,note_off,9,0,0,,,,,0,,,,,,,73,0
2301,note_off,0,0,0,,,,,1,,,,,,,66,0
2301,note_off,0,0,0,,,,,2,,,,,,,66,0
2302,note_off,1,0,0,,,,,3,,,,,,,52,0
2302,note_off,0,0,0,,,,,4,,,,,,,40,0
2302,note_off,0,0,0,,,,,5,,,,,,,70,0
2302,note_off,0,0,0,,,,,6,,,,,,,52,0
2304,note_on,2,0,0,,,,,0,,,,,,,78,80
2304,note_on,0,0,0,,,,,1,,,,,,,66,80
2304,note_on,0,0,0,,,,,2,,,,,,,59,80
2304,note_on,0,0,0,,,,,3,,,,,,,50,80
2304,note_on,0,0,0,,,,,4,,,,,,,38,80
2304,note_on,0,0,0,,,,,5,,,,,,,71,88
2304,note_on,0,0,0,,,,,6,,,,,,,50,88
2314,note_off,10,0,0,,,,,5,,,,,,,71,0
2316,note_on,2,0,0,,,,,5,,,,,,,74,88
2322,note_off,6,0,0,,,,,5,,,,,,,74,0
2322,note_on,0,0,0,,,,,5,,,,,,,73,88
2328,note_off,6,0,0,,,,,5,,,,,,,73,0
2328,note_on,0,0,0,,,,,5,,,,,,,74,88
2340,note_off,12,0,0,,,,,5,,,,,,,74,0
2340,note_on,0,0,0,,,,,5,,,,,,,78,88
2346,note_off,6,0,0,,,,,0,,,,,,,78,0
2346,note_off,0,0,0,,,,,1,,,,,,,66,0
2346,note_off,0,0,0,,,,,2,,,,,,,59,0
2346,note_off,0,0,0,,,,,3,,,,,,,50,0
2346,note_off,0,0,0,,,,,4,,,,,,,38,0
2346,note_off,0,0,0,,,,,6,,,,,,,50,0
2350,note_off,4,0,0,,,,,5,,,,,,,78,0
2352,note_on,2,0,0,,,,,5,,,,,,,78,88
2362,note_off,10,0,0,,,,,5,,,,,,,78,0
2364,note_on,2,0,0,,,,,5,,,,,,,83,88
2369,note_off,5,0,0,,,,,5,,,,,,,83,0
2370,note_on,1,0,0,,,,,5,,,,,,,82,88
2375,note_off,5,0,0,,,,,5,,,,,,,82,0
2376,note_on,1,0,0,,,,,5,,,,,,,83,88
2386,note_off,10,0,0,,,,,5,,,,,,,83,0
2388,note_on,2,0,0,,,,,5,,,,,,,78,88
2398,note_off,10,0,0,,,,,5,,,,,,,78,0
2400,note_on,2,0,0,,,,,5,,,,,,,78,88
2410,note_off,10,0,0,,,,,5,,,,,,,78,0
2412,note_on,2,0,0,,,,,5,,,,,,,74,88
2422,note_off,10,0,0,,,,,5,,,,,,,74,0
2424,note_on,2,0,0,,,,,5,,,,,,,73,88
2427,note_off,3,0,0,,,,,5,,,,,,,73,0
2427,note_on,0,0,0,,,,,5,,,,,,,74,88
2430,note_off,3,0,0,,,,,5,,,,,,,74,0
2430,note_on,0,0,0,,,,,5,,,,,,,73,88
2435,note_off,5,0,0,,,,,5,,,,,,,73,0
2436,note_on,1,0,0,,,,,5,,,,,,,71,88
2446,note_off,10,0,0,,,,,5,,,,,,,71,0
2448,note_on,2,0,0,,,,,0,,,,,,,69,80
2448,note_on,0,0,0,,,,,1,,,,,,,66,80
2448,note_on,0,0,0,,,,,2,,,,,,,60,80
2448,note_on,0,0,0,,,,,3,,,,,,,54,80
2448,note_on,0,0,0,,,,,4,,,,,,,42,80
2448,note_on,0,0,0,,,,,5,,,,,,,69,88
2448,note_on,0,0,0,,,,,6,,,,,,,54,88
2458,note_off,10,0,0,,,,,5,,,,,,,69,0
2458,note_off,0,0,0,,,,,6,,,,,,,54,0
2460,note_on,2,0,0,,,,,5,,,,,,,72,88
2460,note_on,0,0,0,,,,,6,,,,,,,52,88
2470,note_off,10,0,0,,,,,5,,,,,,,72,0
2470,note_off,0,0,0,,,,,6,,,,,,,52,0
2472,note_on,2,0,0,,,,,5,,,,,,,75,88
2472,note_on,0,0,0,,,,,6,,,,,,,54,88
2490,note_off,18,0,0,,,,,0,,,,,,,69,0
2490,note_off,0,0,0,,,,,1,,,,,,,66,0
2490,note_off,0,0,0,,,,,2,,,,,,,60,0
2490,note_off,0,0,0,,,,,3,,,,,,,54,0
2490,note_off,0,0,0,,,,,4,,,,,,,42,0
2493,note_off,3,0,0,,,,,6,,,,,,,54,0
2496,note_on,3,0,0,,,,,6,,,,,,,47,88
2503,note_off,7,0,0,,,,,5,,,,,,,75,0
2508,note_on,5,0,0,,,,,5,,,,,,,78,88
2513,note_off,5,0,0,,,,,5,,,,,,,78,0
2514,note_on,1,0,0,,,,,5,,,,,,,76,88
2517,note_off,3,0,0,,,,,6,,,,,,,47,0
2519,note_off,2,0,0,,,,,5,,,,,,,76,0
2520,note_on,1,0,0,,,,,0,,,,,,,75,80
2520,note_on,0,0,0,,,,,1,,,,,,,69,80
2520,note_on,0,0,0,,,,,2,,,,,,,59,80
2520,note_on,0,0,0,,,,,5,,,,,,,78,88
2520,note_on,0,0,0,,,,,6,,,,,,,47,88
2530,note_off,10,0,0,,,,,0,,,,,,,75,0
2530,note_off,0,0,0,,,,,1,,,,,,,69,0
2530,note_off,0,0,0,,,,,5,,,,,,,78,0
2532,note_on,2,0,0,,,,,0,,,,,,,73,80
2532,note_on,0,0,0,,,,,1,,,,,,,67,80
2532,note_on,0,0,0,,,,,5,,,,,,,81,88
2541,note_off,9,0,0,,,,,2,,,,,,,59,0
2541,note_off,0,0,0,,,,,6,,,,,,,47,0
2542,note_off,1,0,0,,,,,0,,,,,,,73,0
2542,note_off,0,0,0,,,,,1,,,,,,,67,0
2542,note_off,0,0,0,,,,,5,,,,,,,81,0
2544,note_on,2,0,0,,,,,0,,,,,,,75,80
2544,note_on,0,0,0,,,,,1,,,,,,,66,80
2544,note_on,0,0,0,,,,,2,,,,,,,59,80
2544,note_on,0,0,0,,,,,5,,,,,,,81,88
2544,note_on,0,0,0,,,,,6,,,,,,,47,88
2554,note_off,10,0,0,,,,,5,,,,,,,81,0
2554,note_off,0,0,0,,,,,6,,,,,,,47,0
2556,note_on,2,0,0,,,,,3,,,,,,,54,80
2556,note_on,0,0,0,,,,,4,,,,,,,42,80
2556,note_on,0,0,0,,,,,5,,,,,,,84,88
2556,note_on,0,0,0,,,,,6,,,,,,,54,88
2565,note_off,9,0,0,,,,,0,,,,,,,75,0
2565,note_off,0,0,0,,,,,1,,,,,,,66,0
2565,note_off,0,0,0,,,,,2,,,,,,,59,0
2566,note_off,1,0,0,,,,,3,,,,,,,54,0
2566,note_off,0,0,0,,,,,4,,,,,,,42,0
2566,note_off,0,0,0,,,,,5,,,,,,,84,0
2566,note_off,0,0,0,,,,,6,,,,,,,54,0
2568,note_on,2,0,0,,,,,0,,,,,,,75,80
2568,note_on,0,0,0,,,,,1,,,,,,,66,80
2568,note_on,0,0,0,,,,,2,,,,,,,59,80
2568,note_on,0,0,0,,,,,3,,,,,,,55,80
2568,note_on,0,0,0,,,,,4,,,,,,,43,80
2568,note_on,0,0,0,,,,,5,,,,,,,83,88
2568,note_on,0,0,0,,,,,6,,,,,,,55,88
2573,note_off,5,0,0,,,,,5,,,,,,,83,0
2574,note_on,1,0,0,,,,,5,,,,,,,84,88
2578,note_off,4,0,0,,,,,3,,,,,,,55,0
2578,note_off,0,0,0,,,,,4,,,,,,,43,0
2578,note_off,0,0,0,,,,,6,,,,,,,55,0
2579,note_off,1,0,0,,,,,5,,,,,,,84,0
2580,note_on,1,0,0,,,,,3,,,,,,,57,80
2580,note_on,0,0,0,,,,,4,,,,,,,45,80
2580,note_on,0,0,0,,,,,5,,,,,,,81,88
2580,note_on,0,0,0,,,,,6,,,,,,,57,88
2589,note_off,9,0,0,,,,,0,,,,,,,75,0
2589,note_off,0,0,0,,,,,1,,,,,,,66,0
2589,note_off,0,0,0,,,,,2,,,,,,,59,0
2590,note_off,1,0,0,,,,,3,,,,,,,57,0
2590,note_off,0,0,0,,,,,4,,,,,,,45,0
2590,note_off,0,0,0,,,,,5,,,,,,,81,0
2590,note_off,0,0,0,,,,,6,,,,,,,57,0
2592,note_on,2,0,0,,,,,0,,,,,,,76,80
2592,note_on,0,0,0,,,,,1,,,,,,,64,80
2592,note_on,0,0,0,,,,,2,,,,,,,52,80
2592,note_on,0,0,0,,,,,3,,,,,,,55,80
2592,note_on,0,0,0,,,,,4,,,,,,,43,80
2592,note_on,0,0,0,,,,,5,,,,,,,83,88
2592,note_on,0,0,0,,,,,6,,,,,,,55,88
2602,note_off,10,0,0,,,,,5,,,,,,,83,0
2604,note_on,2,0,0,,,,,5,,,,,,,79,88
2614,note_off,10,0,0,,,,,5,,,,,,,79,0
2616,note_on,2,0,0,,,,,5,,,,,,,78,88
2619,note_off,3,0,0,,,,,5,,,,,,,78,0
2619,note_on,0,0,0,,,,,5,,,,,,,79,88
2622,note_off,3,0,0,,,,,5,,,,,,,79,0
2622,note_on,0,0,0,,,,,5,,,,,,,78,88
2627,note_off,5,0,0,,,,,5,,,,,,,78,0
2628,note_on,1,0,0,,,,,5,,,,,,,76,88
2634,note_off,6,0,0,,,,,0,,,,,,,76,0
2634,note_off,0,0,0,,,,,1,,,,,,,64,0
2634,note_off,0,0,0,,,,,2,,,,,,,52,0
2634,note_off,0,0,0,,,,,3,,,,,,,55,0
2634,note_off,0,0,0,,,,,4,,,,,,,43,0
2634,note_off,0,0,0,,,,,6,,,,,,,55,0
2638,note_off,4,0,0,,,,,5,,,,,,,76,0
2640,note_on,2,0,0,,,,,5,,,,,,,76,88
2650,note_off,10,0,0,,,,,5,,,,,,,76,0
2652,note_on,2,0,0,,,,,5,,,,,,,79,88
2657,note_off,5,0,0,,,,,5,,,,,,,79,0
2658,note_on,1,0,0,,,,,5,,,,,,,76,88
2663,note_off,5,0,0,,,,,5,,,,,,,76,0
2664,note_on,1,0,0,,,,,5,,,,,,,74,88
2667,note_off,3,0,0,,,,,5,,,,,,,74,0
2667,note_on,0,0,0,,,,,5,,,,,,,76,88
2670,note_off,3,0,0,,,,,5,,,,,,,76,0
2670,note_on,0,0,0,,,,,5,,,,,,,74,88
2675,note_off,5,0,0,,,,,5,,,,,,,74,0
2676,note_on,1,0,0,,,,,5,,,,,,,72,88
2686,note_off,10,0,0,,,,,5,,,,,,,72,0
2688,note_on,2,0,0,,,,,5,,,,,,,72,88
2698,note_off,10,0,0,,,,,5,,,,,,,72,0
2700,note_on,2,0,0,,,,,5,,,,,,,76,88
2705,note_off,5,0,0,,,,,5,,,,,,,76,0
2706,note_on,1,0,0,,,,,5,,,,,,,72,88
2711,note_off,5,0,0,,,,,5,,,,,,,72,0
2712,note_on,1,0,0,,,,,5,,,,,,,71,88
2715,note_off,3,0,0,,,,,5,,,,,,,71,0
2715,note_on,0,0,0,,,,,5,,,,,,,72,88
2718,note_off,3,0,0,,,,,5,,,,,,,72,0
2718,note_on,0,0,0,,,,,5,,,,,,,71,88
2723,note_off,5,0,0,,,,,5,,,,,,,71,0
2724,note_on,1,0,0,,,,,5,,,,,,,70,88
2734,note_off,10,0,0,,,,,5,,,,,,,70,0
2736,note_on,2,0,0,,,,,0,,,,,,,76,80
2736,note_on,0,0,0,,,,,1,,,,,,,73,80
2736,note_on,0,0,0,,,,,2,,,,,,,70,80
2736,note_on,0,0,0,,,,,3,,,,,,,49,80
2736,note_on,0,0,0,,,,,4,,,,,,,37,80
2736,note_on,0,0,0,,,,,5,,,,,,,70,88
2736,note_on,0,0,0,,,,,6,,,,,,,49,88
2746,note_off,10,0,0,,,,,6,,,,,,,49,0
2748,note_off,2,0,0,,,,,5,,,,,,,70,0
2748,note_on,0,0,0,,,,,5,,,,,,,76,88
2748,note_on,0,0,0,,,,,6,,,,,,,47,88
2754,note_off,6,0,0,,,,,5,,,,,,,76,0
2754,note_on,0,0,0,,,,,5,,,,,,,79,88
2758,note_off,4,0,0,,,,,6,,,,,,,47,0
2759,note_off,1,0,0,,,,,5,,,,,,,79,0
2760,note_on,1,0,0,,,,,5,,,,,,,78,88
2760,note_on,0,0,0,,,,,6,,,,,,,49,88
2778,note_off,18,0,0,,,,,0,,,,,,,76,0
2778,note_off,0,0,0,,,,,1,,,,,,,73,0
2778,note_off,0,0,0,,,,,2,,,,,,,70,0
2778,note_off,0,0,0,,,,,3,,,,,,,49,0
2778,note_off,0,0,0,,,,,4,,,,,,,37,0
2781,note_off,3,0,0,,,,,5,,,,,,,78,0
2781,note_off,0,0,0,,,,,6,,,,,,,49,0
2784,note_on,3,0,0,,,,,6,,,,,,,42,88
2805,note_off,21,0,0,,,,,6,,,,,,,42,0
2808,note_on,3,0,0,,,,,0,,,,,,,70,80
2808,note_on,0,0,0,,,,,1,,,,,,,66,80
2808,note_on,0,0,0,,,,,2,,,,,,,61,80
2808,note_on,0,0,0,,,,,5,,,,,,,76,88
2808,note_on,0,0,0,,,,,6,,,,,,,42,88
2818,note_off,10,0,0,,,,,1,,,,,,,66,0
2820,note_off,2,0,0,,,,,0,,,,,,,70,0
2820,note_on,0,0,0,,,,,0,,,,,,,73,80
2820,note_on,0,0,0,,,,,1,,,,,,,64,80
2829,note_off,9,0,0,,,,,2,,,,,,,61,0
2829,note_off,0,0,0,,,,,5,,,,,,,76,0
2829,note_off,0,0,0,,,,,6,,,,,,,42,0
2830,note_off,1,0,0,,,,,1,,,,,,,64,0
2832,note_off,2,0,0,,,,,0,,,,,,,73,0
2832,note_on,0,0,0,,,,,0,,,,,,,71,80
2832,note_on,0,0,0,,,,,1,,,,,,,66,80
2832,note_on,0,0,0,,,,,2,,,,,,,62,80
2832,note_on,0,0,0,,,,,5,,,,,,,76,88
2832,note_on,0,0,0,,,,,6,,,,,,,42,88
2842,note_off,10,0,0,,,,,6,,,,,,,42,0
2844,note_on,2,0,0,,,,,3,,,,,,,49,80
2844,note_on,0,0,0,,,,,4,,,,,,,37,80
2844,note_off,0,0,0,,,,,5,,,,,,,76,0
2844,note_on,0,0,0,,,,,5,,,,,,,74,88
2844,note_on,0,0,0,,,,,6,,,,,,,49,88
2849,note_off,5,0,0,,,,,5,,,,,,,74,0
2850,note_on,1,0,0,,,,,5,,,,,,,73,88
2853,note_off,3,0,0,,,,,0,,,,,,,71,0
2853,note_off,0,0,0,,,,,1,,,,,,,66,0
2853,note_off,0,0,0,,,,,2,,,,,,,62,0
2854,note_off,1,0,0,,,,,3,,,,,,,49,0
2854,note_off,0,0,0,,,,,4,,,,,,,37,0
2854,note_off,0,0,0,,,,,6,,,,,,,49,0
2855,note_off,1,0,0,,,,,5,,,,,,,73,0
2856,note_on,1,0,0,,,,,0,,,,,,,64,80
2856,note_on,0,0,0,,,,,1,,,,,,,67,80
2856,note_on,0,0,0,,,,,2,,,,,,,61,80
2856,note_on,0,0,0,,,,,3,,,,,,,50,80
2856,note_on,0,0,0,,,,,4,,,,,,,38,80
2856,note_on,0,0,0,,,,,5,,,,,,,71,88
2856,note_on,0,0,0,,,,,6,,,,,,,50,88
2861,note_off,5,0,0,,,,,5,,,,,,,71,0
2862,note_on,1,0,0,,,,,5,,,,,,,73,88
2866,note_off,4,0,0,,,,,3,,,,,,,50,0
2866,note_off,0,0,0,,,,,4,,,,,,,38,0
2866,note_off,0,0,0,,,,,6,,,,,,,50,0
2867,note_off,1,0,0,,,,,5,,,,,,,73,0
2868,note_on,1,0,0,,,,,3,,,,,,,52,80
2868,note_on,0,0,0,,,,,4,,,,,,,40,80
2868,note_on,0,0,0,,,,,5,,,,,,,70,88
2868,note_on,0,0,0,,,,,6,,,,,,,52,88
2877,note_off,9,0,0,,,,,0,,,,,,,64,0
2877,note_off,0,0,0,,,,,1,,,,,,,67,0
2877,note_off,0,0,0,,,,,2,,,,,,,61,0
2878,note_off,1,0,0,,,,,3,,,,,,,52,0
2878,note_off,0,0,0,,,,,4,,,,,,,40,0
2878,note_off,0,0,0,,,,,5,,,,,,,70,0
2878,note_off,0,0,0,,,,,6,,,,,,,52,0
2880,note_on,2,0,0,,,,,0,,,,,,,66,80
2880,note_on,0,0,0,,,,,1,,,,,,,66,80
2880,note_on,0,0,0,,,,,2,,,,,,,59,80
2880,note_on,0,0,0,,,,,3,,,,,,,50,80
2880,note_on,0,0,0,,,,,4,,,,,,,38,80
2880,note_on,0,0,0,,,,,5,,,,,,,71,88
2880,note_on,0,0,0,,,,,6,,,,,,,50,88
2890,note_off,10,0,0,,,,,5,,,,,,,71,0
2890,note_off,0,0,0,,,,,6,,,,,,,50,0
2892,note_on,2,0,0,,,,,5,,,,,,,74,88
2892,note_on,0,0,0,,,,,6,,,,,,,54,88
2897,note_off,5,0,0,,,,,5,,,,,,,74,0
2898,note_on,1,0,0,,,,,5,,,,,,,73,88
2901,note_off,3,0,0,,,,,3,,,,,,,50,0
2901,note_off,0,0,0,,,,,4,,,,,,,38,0
2902,note_off,1,0,0,,,,,6,,,,,,,54,0
2903,note_off,1,0,0,,,,,5,,,,,,,73,0
2904,note_on,1,0,0,,,,,3,,,,,,,54,80
2904,note_on,0,0,0,,,,,4,,,,,,,42,80
2904,note_on,0,0,0,,,,,5,,,,,,,74,88
2904,note_on,0,0,0,,,,,6,,,,,,,54,88
2914,note_off,10,0,0,,,,,5,,,,,,,74,0
2914,note_off,0,0,0,,,,,6,,,,,,,54,0
2916,note_on,2,0,0,,,,,5,,,,,,,71,88
2916,note_on,0,0,0,,,,,6,,,,,,,50,88
2922,note_off,6,0,0,,,,,0,,,,,,,66,0
2922,note_off,0,0,0,,,,,1,,,,,,,66,0
2922,note_off,0,0,0,,,,,2,,,,,,,59,0
2925,note_off,3,0,0,,,,,3,,,,,,,54,0
2925,note_off,0,0,0,,,,,4,,,,,,,42,0
2926,note_off,1,0,0,,,,,5,,,,,,,71,0
2926,note_off,0,0,0,,,,,6,,,,,,,50,0
2928,note_on,2,0,0,,,,,3,,,,,,,47,80
2928,note_on,0,0,0,,,,,4,,,,,,,35,80
2928,note_on,0,0,0,,,,,5,,,,,,,67,88
2928,note_on,0,0,0,,,,,6,,,,,,,47,88
2938,note_off,10,0,0,,,,,5,,,,,,,67,0
2938,note_off,0,0,0,,,,,6,,,,,,,47,0
2940,note_on,2,0,0,,,,,5,,,,,,,71,88
2940,note_on,0,0,0,,,,,6,,,,,,,50,88
2945,note_off,5,0,0,,,,,5,,,,,,,71,0
2946,note_on,1,0,0,,,,,5,,,,,,,69,88
2949,note_off,3,0,0,,,,,3,,,,,,,47,0
2949,note_off,0,0,0,,,,,4,,,,,,,35,0
2950,note_off,1,0,0,,,,,6,,,,,,,50,0
2951,note_off,1,0,0,,,,,5,,,,,,,69,0
2952,note_on,1,0,0,,,,,0,,,,,,,71,80
2952,note_on,0,0,0,,,,,1,,,,,,,66,80
2952,note_on,0,0,0,,,,,2,,,,,,,62,80
2952,note_on,0,0,0,,,,,3,,,,,,,50,80
2952,note_on,0,0,0,,,,,4,,,,,,,38,80
2952,note_on,0,0,0,,,,,5,,,,,,,71,88
2952,note_on,0,0,0,,,,,6,,,,,,,50,88
2962,note_off,10,0,0,,,,,5,,,,,,,71,0
2962,note_off,0,0,0,,,,,6,,,,,,,50,0
2964,note_off,2,0,0,,,,,0,,,,,,,71,0
2964,note_on,0,0,0,,,,,0,,,,,,,74,80
2964,note_on,0,0,0,,,,,5,,,,,,,67,88
2964,note_on,0,0,0,,,,,6,,,,,,,47,88
2973,note_off,9,0,0,,,,,1,,,,,,,66,0
2973,note_off,0,0,0,,,,,2,,,,,,,62,0
2973,note_off,0,0,0,,,,,3,,,,,,,50,0
2973,note_off,0,0,0,,,,,4,,,,,,,38,0
2974,note_off,1,0,0,,,,,0,,,,,,,74,0
2974,note_off,0,0,0,,,,,5,,,,,,,67,0
2974,note_off,0,0,0,,,,,6,,,,,,,47,0
2976,note_on,2,0,0,,,,,0,,,,,,,73,80
2976,note_on,0,0,0,,,,,1,,,,,,,67,80
2976,note_on,0,0,0,,,,,2,,,,,,,64,80
2976,note_on,0,0,0,,,,,3,,,,,,,43,80
2976,note_on,0,0,0,,,,,4,,,,,,,31,80
2976,note_on,0,0,0,,,,,5,,,,,,,64,88
2976,note_on,0,0,0,,,,,6,,,,,,,43,88
2986,note_off,10,0,0,,,,,5,,,,,,,64,0
2988,note_off,2,0,0,,,,,0,,,,,,,73,0
2988,note_on,0,0,0,,,,,0,,,,,,,71,80
2988,note_on,0,0,0,,,,,5,,,,,,,74,88
2997,note_off,9,0,0,,,,,1,,,,,,,67,0
2997,note_off,0,0,0,,,,,2,,,,,,,64,0
2998,note_off,1,0,0,,,,,0,,,,,,,71,0
2998,note_off,0,0,0,,,,,5,,,,,,,74,0
3000,note_on,2,0,0,,,,,0,,,,,,,70,80
3000,note_on,0,0,0,,,,,1,,,,,,,76,80
3000,note_on,0,0,0,,,,,2,,,,,,,67,80
3000,note_on,0,0,0,,,,,5,,,,,,,73,88
3005,note_off,5,0,0,,,,,5,,,,,,,73,0
3006,note_on,1,0,0,,,,,5,,,,,,,74,88
3011,note_off,5,0,0,,,,,5,,,,,,,74,0
3012,note_off,1,0,0,,,,,0,,,,,,,70,0
3012,note_on,0,0,0,,,,,0,,,,,,,71,80
3012,note_on,0,0,0,,,,,5,,,,,,,71,88
3018,note_off,6,0,0,,,,,3,,,,,,,43,0
3018,note_off,0,0,0,,,,,4,,,,,,,31,0
3018,note_off,0,0,0,,,,,6,,,,,,,43,0
3021,note_off,3,0,0,,,,,1,,,,,,,76,0
3021,note_off,0,0,0,,,,,2,,,,,,,67,0
3022,note_off,1,0,0,,,,,0,,,,,,,71,0
3022,note_off,0,0,0,,,,,5,,,,,,,71,0
3024,note_on,2,0,0,,,,,0,,,,,,,78,80
3024,note_on,0,0,0,,,,,1,,,,,,,70,80
3024,note_on,0,0,0,,,,,2,,,,,,,61,80
3024,note_on,0,0,0,,,,,3,,,,,,,42,80
3024,note_on,0,0,0,,,,,4,,,,,,,30,80
3024,note_on,0,0,0,,,,,5,,,,,,,70,88
3024,note_on,0,0,0,,,,,6,,,,,,,42,88
3120,note_off,96,0,0,,,,,0,,,,,,,78,0
3120,note_off,0,0,0,,,,,1,,,,,,,70,0
3120,note_off,0,0,0,,,,,2,,,,,,,61,0
3120,note_off,0,0,0,,,,,3,,,,,,,42,0
3120,note_off,0,0,0,,,,,4,,,,,,,30,0
3120,note_off,0,0,0,,,,,5,,,,,,,70,0
3120,note_off,0,0,0,,,,,6,,,,,,,42,0
3168,note_on,48,0,0,,,,,0,,,,,,,74,80
3168,note_on,0,0,0,,,,,1,,,,,,,71,80
3168,note_on,0,0,0,,,,,2,,,,,,,66,80
3168,note_on,0,0,0,,,,,3,,,,,,,47,80
3168,note_on,0,0,0,,,,,4,,,,,,,35,80
3168,note_on,0,0,0,,,,,5,,,,,,,74,88
3168,note_on,0,0,0,,,,,6,,,,,,,47,88
3174,note_off,6,0,0,,,,,5,,,,,,,74,0
3174,note_on,0,0,0,,,,,5,,,,,,,73,88
3192,note_off,18,0,0,,,,,0,,,,,,,74,0
3192,note_on,0,0,0,,,,,0,,,,,,,74,80
3192,note_off,0,0,0,,,,,1,,,,,,,71,0
3192,note_on,0,0,0,,,,,1,,,,,,,71,80
3192,note_off,0,0,0,,,,,2,,,,,,,66,0
3192,note_on,0,0,0,,,,,2,,,,,,,66,80
3192,note_off,0,0,0,,,,,5,,,,,,,73,0
3192,note_on,0,0,0,,,,,5,,,,,,,78,88
3198,note_off,6,0,0,,,,,5,,,,,,,78,0
3198,note_on,0,0,0,,,,,5,,,,,,,76,88
3210,note_off,12,0,0,,,,,3,,,,,,,47,0
3210,note_off,0,0,0,,,,,4,,,,,,,35,0
3210,note_off,0,0,0,,,,,6,,,,,,,47,0
3214,note_off,4,0,0,,,,,5,,,,,,,76,0
3216,note_off,2,0,0,,,,,0,,,,,,,74,0
3216,note_on,0,0,0,,,,,0,,,,,,,74,80
3216,note_off,0,0,0,,,,,1,,,,,,,71,0
3216,note_on,0,0,0,,,,,1,,,,,,,71,80
3216,note_off,0,0,0,,,,,2,,,,,,,66,0
3216,note_on,0,0,0,,,,,2,,,,,,,66,80
3216,note_on,0,0,0,,,,,5,,,,,,,74,88
3222,note_off,6,0,0,,,,,5,,,,,,,74,0
3222,note_on,0,0,0,,,,,5,,,,,,,73,88
3240,note_off,18,0,0,,,,,0,,,,,,,74,0
3240,note_on,0,0,0,,,,,0,,,,,,,74,80
3240,note_off,0,0,0,,,,,1,,,,,,,71,0
3240,note_on,0,0,0,,,,,1,,,,,,,71,80
3240,note_off,0,0,0,,,,,2,,,,,,,66,0
3240,note_on,0,0,0,,,,,2,,,,,,,66,80
3240,note_off,0,0,0,,,,,5,,,,,,,73,0
3240,note_on,0,0,0,,,,,5,,,,,,,71,88
3246,note_off,6,0,0,,,,,5,,,,,,,71,0
3246,note_on,0,0,0,,,,,5,,,,,,,70,88
3262,note_off,16,0,0,,,,,5,,,,,,,70,0
3264,note_off,2,0,0,,,,,0,,,,,,,74,0
3264,note_on,0,0,0,,,,,0,,,,,,,74,80
3264,note_off,0,0,0,,,,,1,,,,,,,71,0
3264,note_on,0,0,0,,,,,1,,,,,,,71,80
3264,note_off,0,0,0,,,,,2,,,,,,,66,0
3264,note_on,0,0,0,,,,,2,,,,,,,66,80
3264,note_on,0,0,0,,,,,5,,,,,,,74,88
3270,note_off,6,0,0,,,,,5,,,,,,,74,0
3270,note_on,0,0,0,,,,,5,,,,,,,73,88
3288,note_off,18,0,0,,,,,0,,,,,,,74,0
3288,note_on,0,0,0,,,,,0,,,,,,,74,80
3288,note_off,0,0,0,,,,,1,,,,,,,71,0
3288,note_on,0,0,0,,,,,1,,,,,,,71,80
3288,note_off,0,0,0,,,,,2,,,,,,,66,0
3288,note_on,0,0,0,,,,,2,,,,,,,66,80
3288,note_off,0,0,0,,,,,5,,,,,,,73,0
3288,note_on,0,0,0,,,,,5,,,,,,,71,88
3294,note_off,6,0,0,,,,,5,,,,,,,71,0
3294,note_on,0,0,0,,,,,5,,,,,,,69,88
3309,note_off,15,0,0,,,,,0,,,,,,,74,0
3309,note_off,0,0,0,,,,,1,,,,,,,71,0
3309,note_off,0,0,0,,,,,2,,,,,,,66,0
3310,note_off,1,0,0,,,,,5,,,,,,,69,0
3312,note_on,2,0,0,,,,,0,,,,,,,74,80
3312,note_on,0,0,0,,,,,1,,,,,,,71,80
3312,note_on,0,0,0,,,,,2,,,,,,,67,80
3312,note_on,0,0,0,,,,,3,,,,,,,47,80
3312,note_on,0,0,0,,,,,4,,,,,,,35,80
3312,note_on,0,0,0,,,,,5,,,,,,,67,88
3312,note_on,0,0,0,,,,,6,,,,,,,47,88
3318,note_off,6,0,0,,,,,5,,,,,,,67,0
3318,note_on,0,0,0,,,,,5,,,,,,,66,88
3334,note_off,16,0,0,,,,,5,,,,,,,66,0
3336,note_off,2,0,0,,,,,0,,,,,,,74,0
3336,note_on,0,0,0,,,,,0,,,,,,,74,80
3336,note_off,0,0,0,,,,,1,,,,,,,71,0
3336,note_on,0,0,0,,,,,1,,,,,,,71,80
3336,note_off,0,0,0,,,,,2,,,,,,,67,0
3336,note_on,0,0,0,,,,,2,,,,,,,67,80
3336,note_on,0,0,0,,,,,5,,,,,,,71,88
3342,note_off,6,0,0,,,,,5,,,,,,,71,0
3342,note_on,0,0,0,,,,,5,,,,,,,69,88
3354,note_off,12,0,0,,,,,3,,,,,,,47,0
3354,note_off,0,0,0,,,,,4,,,,,,,35,0
3354,note_off,0,0,0,,,,,6,,,,,,,47,0
3358,note_off,4,0,0,,,,,5,,,,,,,69,0
3360,note_off,2,0,0,,,,,0,,,,,,,74,0
3360,note_on,0,0,0,,,,,0,,,,,,,74,80
3360,note_off,0,0,0,,,,,1,,,,,,,71,0
3360,note_on,0,0,0,,,,,1,,,,,,,71,80
3360,note_off,0,0,0,,,,,2,,,,,,,67,0
3360,note_on,0,0,0,,,,,2,,,,,,,67,80
3360,note_on,0,0,0,,,,,5,,,,,,,67,88
3366,note_off,6,0,0,,,,,5,,,,,,,67,0
3366,note_on,0,0,0,,,,,5,,,,,,,66,88
3381,note_off,15,0,0,,,,,2,,,,,,,67,0
3382,note_off,1,0,0,,,,,5,,,,,,,66,0
3384,note_off,2,0,0,,,,,0,,,,,,,74,0
3384,note_on,0,0,0,,,,,0,,,,,,,74,80
3384,note_off,0,0,0,,,,,1,,,,,,,71,0
3384,note_on,0,0,0,,,,,1,,,,,,,71,80
3384,note_on,0,0,0,,,,,2,,,,,,,69,80
3384,note_on,0,0,0,,,,,5,,,,,,,65,88
3390,note_off,6,0,0,,,,,5,,,,,,,65,0
3390,note_on,0,0,0,,,,,5,,,,,,,66,88
3406,note_off,16,0,0,,,,,5,,,,,,,66,0
3408,note_off,2,0,0,,,,,0,,,,,,,74,0
3408,note_on,0,0,0,,,,,0,,,,,,,74,80
3408,note_off,0,0,0,,,,,1,,,,,,,71,0
3408,note_on,0,0,0,,,,,1,,,,,,,71,80
3408,note_off,0,0,0,,,,,2,,,,,,,69,0
3408,note_on,0,0,0,,,,,2,,,,,,,67,80
3408,note_on,0,0,0,,,,,5,,,,,,,71,88
3414,note_off,6,0,0,,,,,5,,,,,,,71,0
3414,note_on,0,0,0,,,,,5,,,,,,,70,88
3430,note_off,16,0,0,,,,,5,,,,,,,70,0
3432,note_off,2,0,0,,,,,0,,,,,,,74,0
3432,note_on,0,0,0,,,,,0,,,,,,,74,80
3432,note_off,0,0,0,,,,,1,,,,,,,71,0
3432,note_on,0,0,0,,,,,1,,,,,,,71,80
3432,note_off,0,0,0,,,,,2,,,,,,,67,0
3432,note_on,0,0,0,,,,,2,,,,,,,66,80
3432,note_on,0,0,0,,,,,5,,,,,,,74,88
3438,note_off,6,0,0,,,,,5,,,,,,,74,0
3438,note_on,0,0,0,,,,,5,,,,,,,73,88
3453,note_off,15,0,0,,,,,0,,,,,,,74,0
3453,note_off,0,0,0,,,,,1,,,,,,,71,0
3453,note_off,0,0,0,,,,,2,,,,,,,66,0
3454,note_off,1,0,0,,,,,5,,,,,,,73,0
3456,note_on,2,0,0,,,,,0,,,,,,,73,80
3456,note_on,0,0,0,,,,,1,,,,,,,68,80
3456,note_on,0,0,0,,,,,2,,,,,,,65,80
3456,note_on,0,0,0,,,,,3,,,,,,,59,80
3456,note_on,0,0,0,,,,,4,,,,,,,47,80
3456,note_on,0,0,0,,,,,5,,,,,,,73,88
3456,note_on,0,0,0,,,,,6,,,,,,,59,88
3459,note_off,3,0,0,,,,,5,,,,,,,73,0
3459,note_on,0,0,0,,,,,5,,,,,,,71,88
3462,note_off,3,0,0,,,,,5,,,,,,,71,0
3462,note_on,0,0,0,,,,,5,,,,,,,73,88
3510,note_off,48,0,0,,,,,0,,,,,,,73,0
3510,note_off,0,0,0,,,,,1,,,,,,,68,0
3510,note_off,0,0,0,,,,,2,,,,,,,65,0
3510,note_off,0,0,0,,,,,3,,,,,,,59,0
3510,note_off,0,0,0,,,,,4,,,,,,,47,0
3510,note_off,0,0,0,,,,,5,,,,,,,73,0
3510,note_off,0,0,0,,,,,6,,,,,,,59,0
3516,note_on,6,0,0,,,,,0,,,,,,,77,80
3516,note_on,0,0,0,,,,,1,,,,,,,71,80
3516,note_on,0,0,0,,,,,2,,,,,,,68,80
3516,note_on,0,0,0,,,,,3,,,,,,,56,80
3516,note_on,0,0,0,,,,,4,,,,,,,44,80
3516,note_on,0,0,0,,,,,5,,,,,,,77,88
3516,note_on,0,0,0,,,,,6,,,,,,,56,88
3526,note_off,10,0,0,,,,,0,,,,,,,77,0
3526,note_off,0,0,0,,,,,1,,,,,,,71,0
3526,note_off,0,0,0,,,,,2,,,,,,,68,0
3526,note_off,0,0,0,,,,,3,,,,,,,56,0
3526,note_off,0,0,0,,,,,4,,,,,,,44,0
3526,note_off,0,0,0,,,,,5,,,,,,,77,0
3526,note_off,0,0,0,,,,,6,,,,,,,56,0
3528,note_on,2,0,0,,,,,0,,,,,,,77,80
3528,note_on,0,0,0,,,,,1,,,,,,,71,80
3528,note_on,0,0,0,,,,,2,,,,,,,68,80
3528,note_on,0,0,0,,,,,3,,,,,,,56,80
3528,note_on,0,0,0,,,,,4,,,,,,,44,80
3528,note_on,0,0,0,,,,,5,,,,,,,77,88
3528,note_on,0,0,0,,,,,6,,,,,,,56,88
3540,note_off,12,0,0,,,,,0,,,,,,,77,0
3540,note_on,0,0,0,,,,,0,,,,,,,78,80
3540,note_off,0,0,0,,,,,1,,,,,,,71,0
3540,note_on,0,0,0,,,,,1,,,,,,,73,80
3540,note_off,0,0,0,,,,,2,,,,,,,68,0
3540,note_on,0,0,0,,,,,2,,,,,,,66,80
3540,note_off,0,0,0,,,,,3,,,,,,,56,0
3540,note_on,0,0,0,,,,,3,,,,,,,57,80
3540,note_off,0,0,0,,,,,4,,,,,,,44,0
3540,note_on,0,0,0,,,,,4,,,,,,,45,80
3540,note_off,0,0,0,,,,,5,,,,,,,77,0
3540,note_on,0,0,0,,,,,5,,,,,,,78,88
3540,note_off,0,0,0,,,,,6,,,,,,,56,0
3540,note_on,0,0,0,,,,,6,,,,,,,57,88
3550,note_off,10,0,0,,,,,0,,,,,,,78,0
3550,note_off,0,0,0,,,,,1,,,,,,,73,0
3550,note_off,0,0,0,,,,,2,,,,,,,66,0
3550,note_off,0,0,0,,,,,3,,,,,,,57,0
3550,note_off,0,0,0,,,,,4,,,,,,,45,0
3550,note_off,0,0,0,,,,,5,,,,,,,78,0
3550,note_off,0,0,0,,,,,6,,,,,,,57,0
3552,note_on,2,0,0,,,,,0,,,,,,,78,80
3552,note_on,0,0,0,,,,,1,,,,,,,73,80
3552,note_on,0,0,0,,,,,2,,,,,,,66,80
3552,note_on,0,0,0,,,,,3,,,,,,,57,80
3552,note_on,0,0,0,,,,,4,,,,,,,45,80
3552,note_on,0,0,0,,,,,5,,,,,,,78,88
3552,note_on,0,0,0,,,,,6,,,,,,,57,88
3564,note_off,12,0,0,,,,,1,,,,,,,73,0
3564,note_on,0,0,0,,,,,1,,,,,,,69,80
3564,note_off,0,0,0,,,,,2,,,,,,,66,0
3564,note_on,0,0,0,,,,,2,,,,,,,61,80
3564,note_off,0,0,0,,,,,3,,,,,,,57,0
3564,note_on,0,0,0,,,,,3,,,,,,,54,80
3564,note_off,0,0,0,,,,,4,,,,,,,45,0
3564,note_on,0,0,0,,,,,4,,,,,,,42,80
3564,note_off,0,0,0,,,,,6,,,,,,,57,0
3564,note_on,0,0,0,,,,,6,,,,,,,54,88
3574,note_off,10,0,0,,,,,1,,,,,,,69,0
3574,note_off,0,0,0,,,,,2,,,,,,,61,0
3574,note_off,0,0,0,,,,,3,,,,,,,54,0
3574,note_off,0,0,0,,,,,4,,,,,,,42,0
3574,note_off,0,0,0,,,,,6,,,,,,,54,0
3576,note_on,2,0,0,,,,,1,,,,,,,69,80
3576,note_on,0,0,0,,,,,2,,,,,,,61,80
3576,note_on,0,0,0,,,,,3,,,,,,,54,80
3576,note_on,0,0,0,,,,,4,,,,,,,42,80
3576,note_on,0,0,0,,,,,6,,,,,,,54,88
3588,note_off,12,0,0,,,,,1,,,,,,,69,0
3588,note_on,0,0,0,,,,,1,,,,,,,66,80
3588,note_off,0,0,0,,,,,2,,,,,,,61,0
3588,note_on,0,0,0,,,,,2,,,,,,,62,80
3588,note_off,0,0,0,,,,,3,,,,,,,54,0
3588,note_on,0,0,0,,,,,3,,,,,,,50,80
3588,note_off,0,0,0,,,,,4,,,,,,,42,0
3588,note_on,0,0,0,,,,,4,,,,,,,38,80
3588,note_off,0,0,0,,,,,6,,,,,,,54,0
3588,note_on,0,0,0,,,,,6,,,,,,,50,88
3598,note_off,10,0,0,,,,,1,,,,,,,66,0
3598,note_off,0,0,0,,,,,2,,,,,,,62,0
3598,note_off,0,0,0,,,,,3,,,,,,,50,0
3598,note_off,0,0,0,,,,,4,,,,,,,38,0
3598,note_off,0,0,0,,,,,6,,,,,,,50,0
3600,note_on,2,0,0,,,,,1,,,,,,,66,80
3600,note_on,0,0,0,,,,,2,,,,,,,62,80
3600,note_on,0,0,0,,,,,3,,,,,,,50,80
3600,note_on,0,0,0,,,,,4,,,,,,,38,80
3600,note_on,0,0,0,,,,,6,,,,,,,50,88
3606,note_off,6,0,0,,,,,5,,,,,,,78,0
3612,note_off,6,0,0,,,,,3,,,,,,,50,0
3612,note_on,0,0,0,,,,,3,,,,,,,47,80
3612,note_off,0,0,0,,,,,4,,,,,,,38,0
3612,note_on,0,0,0,,,,,4,,,,,,,35,80
3612,note_on,0,0,0,,,,,5,,,,,,,74,88
3612,note_off,0,0,0,,,,,6,,,,,,,50,0
3612,note_on,0,0,0,,,,,6,,,,,,,47,88
3618,note_off,6,0,0,,,,,0,,,,,,,78,0
3621,note_off,3,0,0,,,,,1,,,,,,,66,0
3621,note_off,0,0,0,,,,,2,,,,,,,62,0
3622,note_off,1,0,0,,,,,3,,,,,,,47,0
3622,note_off,0,0,0,,,,,4,,,,,,,35,0
3622,note_off,0,0,0,,,,,5,,,,,,,74,0
3622,note_off,0,0,0,,,,,6,,,,,,,47,0
3624,note_on,2,0,0,,,,,0,,,,,,,74,80
3624,note_on,0,0,0,,,,,1,,,,,,,66,80
3624,note_on,0,0,0,,,,,2,,,,,,,62,80
3624,note_on,0,0,0,,,,,3,,,,,,,47,80
3624,note_on,0,0,0,,,,,4,,,,,,,35,80
3624,note_on,0,0,0,,,,,5,,,,,,,74,88
3624,note_on,0,0,0,,,,,6,,,,,,,47,88
3636,note_off,12,0,0,,,,,3,,,,,,,47,0
3636,note_on,0,0,0,,,,,3,,,,,,,44,80
3636,note_off,0,0,0,,,,,4,,,,,,,35,0
3636,note_on,0,0,0,,,,,4,,,,,,,32,80
3636,note_off,0,0,0,,,,,5,,,,,,,74,0
3636,note_on,0,0,0,,,,,5,,,,,,,71,88
3636,note_off,0,0,0,,,,,6,,,,,,,47,0
3636,note_on,0,0,0,,,,,6,,,,,,,44,88
3645,note_off,9,0,0,,,,,0,,,,,,,74,0
3645,note_off,0,0,0,,,,,1,,,,,,,66,0
3645,note_off,0,0,0,,,,,2,,,,,,,62,0
3646,note_off,1,0,0,,,,,3,,,,,,,44,0
3646,note_off,0,0,0,,,,,4,,,,,,,32,0
3646,note_off,0,0,0,,,,,5,,,,,,,71,0
3646,note_off,0,0,0,,,,,6,,,,,,,44,0
3648,note_on,2,0,0,,,,,0,,,,,,,71,80
3648,note_on,0,0,0,,,,,1,,,,,,,65,80
3648,note_on,0,0,0,,,,,2,,,,,,,56,80
3648,note_on,0,0,0,,,,,3,,,,,,,44,80
3648,note_on,0,0,0,,,,,4,,,,,,,32,80
3648,note_on,0,0,0,,,,,5,,,,,,,65,88
3648,note_on,0,0,0,,,,,6,,,,,,,44,88
3658,note_off,10,0,0,,,,,5,,,,,,,65,0
3658,note_off,0,0,0,,,,,6,,,,,,,44,0
3660,note_off,2,0,0,,,,,0,,,,,,,71,0
3660,note_on,0,0,0,,,,,0,,,,,,,69,80
3660,note_off,0,0,0,,,,,1,,,,,,,65,0
3660,note_on,0,0,0,,,,,1,,,,,,,66,80
3660,note_off,0,0,0,,,,,2,,,,,,,56,0
3660,note_on,0,0,0,,,,,2,,,,,,,57,80
3660,note_off,0,0,0,,,,,3,,,,,,,44,0
3660,note_on,0,0,0,,,,,3,,,,,,,42,80
3660,note_off,0,0,0,,,,,4,,,,,,,32,0
3660,note_on,0,0,0,,,,,4,,,,,,,30,80
3660,note_on,0,0,0,,,,,5,,,,,,,74,88
3660,note_on,0,0,0,,,,,6,,,,,,,42,88
3670,note_off,10,0,0,,,,,1,,,,,,,66,0
3670,note_off,0,0,0,,,,,2,,,,,,,57,0
3670,note_off,0,0,0,,,,,3,,,,,,,42,0
3670,note_off,0,0,0,,,,,4,,,,,,,30,0
3670,note_off,0,0,0,,,,,5,,,,,,,74,0
3670,note_off,0,0,0,,,,,6,,,,,,,42,0
3672,note_off,2,0,0,,,,,0,,,,,,,69,0
3672,note_on,0,0,0,,,,,0,,,,,,,68,80
3672,note_on,0,0,0,,,,,1,,,,,,,68,80
3672,note_on,0,0,0,,,,,2,,,,,,,59,80
3672,note_on,0,0,0,,,,,3,,,,,,,41,80
3672,note_on,0,0,0,,,,,4,,,,,,,29,80
3672,note_on,0,0,0,,,,,5,,,,,,,73,88
3672,note_on,0,0,0,,,,,6,,,,,,,41,88
3682,note_off,10,0,0,,,,,5,,,,,,,73,0
3682,note_off,0,0,0,,,,,6,,,,,,,41,0
3684,note_off,2,0,0,,,,,0,,,,,,,68,0
3684,note_on,0,0,0,,,,,0,,,,,,,66,80
3684,note_off,0,0,0,,,,,1,,,,,,,68,0
3684,note_on,0,0,0,,,,,1,,,,,,,69,80
3684,note_off,0,0,0,,,,,2,,,,,,,59,0
3684,note_on,0,0,0,,,,,2,,,,,,,57,80
3684,note_off,0,0,0,,,,,3,,,,,,,41,0
3684,note_on,0,0,0,,,,,3,,,,,,,42,80
3684,note_off,0,0,0,,,,,4,,,,,,,29,0
3684,note_on,0,0,0,,,,,4,,,,,,,30,80
3684,note_on,0,0,0,,,,,5,,,,,,,74,88
3684,note_on,0,0,0,,,,,6,,,,,,,42,88
3689,note_off,5,0,0,,,,,5,,,,,,,74,0
3690,note_on,1,0,0,,,,,5,,,,,,,71,88
3694,note_off,4,0,0,,,,,0,,,,,,,66,0
3694,note_off,0,0,0,,,,,1,,,,,,,69,0
3694,note_off,0,0,0,,,,,2,,,,,,,57,0
3694,note_off,0,0,0,,,,,3,,,,,,,42,0
3694,note_off,0,0,0,,,,,4,,,,,,,30,0
3694,note_off,0,0,0,,,,,6,,,,,,,42,0
3695,note_off,1,0,0,,,,,5,,,,,,,71,0
3696,note_on,1,0,0,,,,,0,,,,,,,65,80
3696,note_on,0,0,0,,,,,1,,,,,,,61,80
3696,note_on,0,0,0,,,,,2,,,,,,,57,80
3696,note_on,0,0,0,,,,,3,,,,,,,49,80
3696,note_on,0,0,0,,,,,4,,,,,,,37,80
3696,note_on,0,0,0,,,,,5,,,,,,,69,88
3696,note_on,0,0,0,,,,,6,,,,,,,49,88
3708,note_off,12,0,0,,,,,2,,,,,,,57,0
3708,note_on,0,0,0,,,,,2,,,,,,,59,80
3717,note_off,9,0,0,,,,,1,,,,,,,61,0
3717,note_off,0,0,0,,,,,3,,,,,,,49,0
3717,note_off,0,0,0,,,,,4,,,,,,,37,0
3717,note_off,0,0,0,,,,,5,,,,,,,69,0
3717,note_off,0,0,0,,,,,6,,,,,,,49,0
3720,note_on,3,0,0,,,,,1,,,,,,,61,80
3720,note_off,0,0,0,,,,,2,,,,,,,59,0
3720,note_on,0,0,0,,,,,2,,,,,,,61,80
3720,note_on,0,0,0,,,,,3,,,,,,,49,80
3720,note_on,0,0,0,,,,,4,,,,,,,37,80
3720,note_on,0,0,0,,,,,5,,,,,,,68,88
3720,note_on,0,0,0,,,,,6,,,,,,,37,88
3723,note_off,3,0,0,,,,,5,,,,,,,68,0
3723,note_on,0,0,0,,,,,5,,,,,,,69,88
3726,note_off,3,0,0,,,,,5,,,,,,,69,0
3726,note_on,0,0,0,,,,,5,,,,,,,68,88
3727,note_off,1,0,0,,,,,0,,,,,,,65,0
3731,note_off,4,0,0,,,,,5,,,,,,,68,0
3732,note_on,1,0,0,,,,,0,,,,,,,66,80
3732,note_off,0,0,0,,,,,2,,,,,,,61,0
3732,note_on,0,0,0,,,,,2,,,,,,,59,80
3732,note_on,0,0,0,,,,,5,,,,,,,66,88
3741,note_off,9,0,0,,,,,1,,,,,,,61,0
3741,note_off,0,0,0,,,,,3,,,,,,,49,0
3741,note_off,0,0,0,,,,,4,,,,,,,37,0
3741,note_off,0,0,0,,,,,6,,,,,,,37,0
3742,note_off,1,0,0,,,,,0,,,,,,,66,0
3742,note_off,0,0,0,,,,,2,,,,,,,59,0
3742,note_off,0,0,0,,,,,5,,,,,,,66,0
3744,note_on,2,0,0,,,,,0,,,,,,,66,80
3744,note_on,0,0,0,,,,,1,,,,,,,61,80
3744,note_on,0,0,0,,,,,2,,,,,,,57,80
3744,note_on,0,0,0,,,,,3,,,,,,,42,80
3744,note_on,0,0,0,,,,,4,,,,,,,30,80
3744,note_on,0,0,0,,,,,5,,,,,,,66,88
3744,note_on,0,0,0,,,,,6,,,,,,,42,88
3754,note_off,10,0,0,,,,,5,,,,,,,66,0
3756,note_on,2,0,0,,,,,5,,,,,,,69,88
3761,note_off,5,0,0,,,,,5,,,,,,,69,0
3762,note_on,1,0,0,,,,,5,,,,,,,68,88
3767,note_off,5,0,0,,,,,5,,,,,,,68,0
3768,note_on,1,0,0,,,,,5,,,,,,,69,88
3778,note_off,10,0,0,,,,,5,,,,,,,69,0
3780,note_on,2,0,0,,,,,5,,,,,,,73,88
3786,note_off,6,0,0,,,,,0,,,,,,,66,0
3786,note_off,0,0,0,,,,,1,,,,,,,61,0
3786,note_off,0,0,0,,,,,2,,,,,,,57,0
3786,note_off,0,0,0,,,,,3,,,,,,,42,0
3786,note_off,0,0,0,,,,,4,,,,,,,30,0
3786,note_off,0,0,0,,,,,6,,,,,,,42,0
3790,note_off,4,0,0,,,,,5,,,,,,,73,0
3792,note_on,2,0,0,,,,,5,,,,,,,69,88
3802,note_off,10,0,0,,,,,5,,,,,,,69,0
3804,note_on,2,0,0,,,,,5,,,,,,,66,88
3809,note_off,5,0,0,,,,,5,,,,,,,66,0
3810,note_on,1,0,0,,,,,5,,,,,,,65,88
3815,note_off,5,0,0,,,,,5,,,,,,,65,0
3816,note_on,1,0,0,,,,,5,,,,,,,66,88
3826,note_off,10,0,0,,,,,5,,,,,,,66,0
3828,note_on,2,0,0,,,,,5,,,,,,,61,88
3838,note_off,10,0,0,,,,,5,,,,,,,61,0
3840,note_on,2,0,0,,,,,5,,,,,,,54,88
3882,note_off,42,0,0,,,,,5,,,,,,,54,0
3888,note_on,6,0,0,,,,,0,,,,,,,69,80
3888,note_on,0,0,0,,,,,1,,,,,,,66,80
3888,note_on,0,0,0,,,,,2,,,,,,,62,80
3888,note_on,0,0,0,,,,,5,,,,,,,69,88
3888,note_on,0,0,0,,,,,6,,,,,,,62,88
3909,note_off,21,0,0,,,,,6,,,,,,,62,0
3912,note_off,3,0,0,,,,,0,,,,,,,69,0
3912,note_on,0,0,0,,,,,0,,,,,,,69,80
3912,note_off,0,0,0,,,,,1,,,,,,,66,0
3912,note_on,0,0,0,,,,,1,,,,,,,66,80
3912,note_off,0,0,0,,,,,2,,,,,,,62,0
3912,note_on,0,0,0,,,,,2,,,,,,,62,80
3912,note_on,0,0,0,,,,,6,,,,,,,62,88
3933,note_off,21,0,0,,,,,6,,,,,,,62,0
3936,note_off,3,0,0,,,,,0,,,,,,,69,0
3936,note_on,0,0,0,,,,,0,,,,,,,69,80
3936,note_off,0,0,0,,,,,1,,,,,,,66,0
3936,note_on,0,0,0,,,,,1,,,,,,,66,80
3936,note_off,0,0,0,,,,,2,,,,,,,62,0
3936,note_on,0,0,0,,,,,2,,,,,,,62,80
3936,note_on,0,0,0,,,,,6,,,,,,,62,88
3942,note_off,6,0,0,,,,,5,,,,,,,69,0
3948,note_on,6,0,0,,,,,5,,,,,,,71,88
3953,note_off,5,0,0,,,,,5,,,,,,,71,0
3954,note_on,1,0,0,,,,,5,,,,,,,73,88
3957,note_off,3,0,0,,,,,6,,,,,,,62,0
3959,note_off,2,0,0,,,,,5,,,,,,,73,0
3960,note_off,1,0,0,,,,,0,,,,,,,69,0
3960,note_on,0,0,0,,,,,0,,,,,,,69,80
3960,note_off,0,0,0,,,,,1,,,,,,,66,0
3960,note_on,0,0,0,,,,,1,,,,,,,66,80
3960,note_off,0,0,0,,,,,2,,,,,,,62,0
3960,note_on,0,0,0,,,,,2,,,,,,,62,80
3960,note_on,0,0,0,,,,,5,,,,,,,74,88
3960,note_on,0,0,0,,,,,6,,,,,,,62,88
3970,note_off,10,0,0,,,,,5,,,,,,,74,0
3972,note_on,2,0,0,,,,,5,,,,,,,76,88
3981,note_off,9,0,0,,,,,6,,,,,,,62,0
3982,note_off,1,0,0,,,,,5,,,,,,,76,0
3984,note_off,2,0,0,,,,,0,,,,,,,69,0
3984,note_on,0,0,0,,,,,0,,,,,,,69,80
3984,note_off,0,0,0,,,,,1,,,,,,,66,0
3984,note_on,0,0,0,,,,,1,,,,,,,66,80
3984,note_off,0,0,0,,,,,2,,,,,,,62,0
3984,note_on,0,0,0,,,,,2,,,,,,,62,80
3984,note_on,0,0,0,,,,,5,,,,,,,78,88
3984,note_on,0,0,0,,,,,6,,,,,,,62,88
3994,note_off,10,0,0,,,,,5,,,,,,,78,0
3996,note_on,2,0,0,,,,,5,,,,,,,79,88
4001,note_off,5,0,0,,,,,5,,,,,,,79,0
4002,note_on,1,0,0,,,,,5,,,,,,,81,88
4005,note_off,3,0,0,,,,,6,,,,,,,62,0
4007,note_off,2,0,0,,,,,5,,,,,,,81,0
4008,note_off,1,0,0,,,,,0,,,,,,,69,0
4008,note_on,0,0,0,,,,,0,,,,,,,69,80
4008,note_off,0,0,0,,,,,1,,,,,,,66,0
4008,note_on,0,0,0,,,,,1,,,,,,,66,80
4008,note_off,0,0,0,,,,,2,,,,,,,62,0
4008,note_on,0,0,0,,,,,2,,,,,,,62,80
4008,note_on,0,0,0,,,,,5,,,,,,,79,88
4008,note_on,0,0,0,,,,,6,,,,,,,62,88
4018,note_off,10,0,0,,,,,5,,,,,,,79,0
4020,note_on,2,0,0,,,,,5,,,,,,,78,88
4029,note_off,9,0,0,,,,,0,,,,,,,69,0
4029,note_off,0,0,0,,,,,1,,,,,,,66,0
4029,note_off,0,0,0,,,,,2,,,,,,,62,0
4029,note_off,0,0,0,,,,,6,,,,,,,62,0
4030,note_off,1,0,0,,,,,5,,,,,,,78,0
4032,note_on,2,0,0,,,,,0,,,,,,,69,80
4032,note_on,0,0,0,,,,,1,,,,,,,64,80
4032,note_on,0,0,0,,,,,2,,,,,,,61,80
4032,note_on,0,0,0,,,,,5,,,,,,,69,88
4032,note_on,0,0,0,,,,,6,,,,,,,61,88
4053,note_off,21,0,0,,,,,6,,,,,,,61,0
4056,note_off,3,0,0,,,,,0,,,,,,,69,0
4056,note_on,0,0,0,,,,,0,,,,,,,69,80
4056,note_off,0,0,0,,,,,1,,,,,,,64,0
4056,note_on,0,0,0,,,,,1,,,,,,,64,80
4056,note_off,0,0,0,,,,,2,,,,,,,61,0
4056,note_on,0,0,0,,,,,2,,,,,,,61,80
4056,note_on,0,0,0,,,,,6,,,,,,,61,88
4077,note_off,21,0,0,,,,,6,,,,,,,61,0
4080,note_off,3,0,0,,,,,0,,,,,,,69,0
4080,note_on,0,0,0,,,,,0,,,,,,,69,80
4080,note_off,0,0,0,,,,,1,,,,,,,64,0
4080,note_on,0,0,0,,,,,1,,,,,,,64,80
4080,note_off,0,0,0,,,,,2,,,,,,,61,0
4080,note_on,0,0,0,,,,,2,,,,,,,61,80
4080,note_on,0,0,0,,,,,6,,,,,,,61,88
4086,note_off,6,0,0,,,,,5,,,,,,,69,0
4092,note_on,6,0,0,,,,,5,,,,,,,69,88
4097,note_off,5,0,0,,,,,5,,,,,,,69,0
4098,note_on,1,0,0,,,,,5,,,,,,,71,88
4101,note_off,3,0,0,,,,,6,,,,,,,61,0
4103,note_off,2,0,0,,,,,5,,,,,,,71,0
4104,note_off,1,0,0,,,,,0,,,,,,,69,0
4104,note_on,0,0,0,,,,,0,,,,,,,69,80
4104,note_off,0,0,0,,,,,1,,,,,,,64,0
4104,note_on,0,0,0,,,,,1,,,,,,,64,80
4104,note_off,0,0,0,,,,,2,,,,,,,61,0
4104,note_on,0,0,0,,,,,2,,,,,,,61,80
4104,note_on,0,0,0,,,,,5,,,,,,,73,88
4104,note_on,0,0,0,,,,,6,,,,,,,61,88
4114,note_off,10,0,0,,,,,5,,,,,,,73,0
4116,note_on,2,0,0,,,,,5,,,,,,,74,88
4125,note_off,9,0,0,,,,,6,,,,,,,61,0
4126,note_off,1,0,0,,,,,5,,,,,,,74,0
4128,note_off,2,0,0,,,,,0,,,,,,,69,0
4128,note_on,0,0,0,,,,,0,,,,,,,69,80
4128,note_off,0,0,0,,,,,1,,,,,,,64,0
4128,note_on,0,0,0,,,,,1,,,,,,,64,80
4128,note_off,0,0,0,,,,,2,,,,,,,61,0
4128,note_on,0,0,0,,,,,2,,,,,,,61,80
4128,note_on,0,0,0,,,,,5,,,,,,,76,88
4128,note_on,0,0,0,,,,,6,,,,,,,61,88
4138,note_off,10,0,0,,,,,5,,,,,,,76,0
4140,note_on,2,0,0,,,,,5,,,,,,,78,88
4145,note_off,5,0,0,,,,,5,,,,,,,78,0
4146,note_on,1,0,0,,,,,5,,,,,,,79,88
4149,note_off,3,0,0,,,,,6,,,,,,,61,0
4151,note_off,2,0,0,,,,,5,,,,,,,79,0
4152,note_off,1,0,0,,,,,0,,,,,,,69,0
4152,note_on,0,0,0,,,,,0,,,,,,,69,80
4152,note_off,0,0,0,,,,,1,,,,,,,64,0
4152,note_on,0,0,0,,,,,1,,,,,,,64,80
4152,note_off,0,0,0,,,,,2,,,,,,,61,0
4152,note_on,0,0,0,,,,,2,,,,,,,61,80
4152,note_on,0,0,0,,,,,5,,,,,,,78,88
4152,note_on,0,0,0,,,,,6,,,,,,,61,88
4162,note_off,10,0,0,,,,,5,,,,,,,78,0
4164,note_on,2,0,0,,,,,5,,,,,,,76,88
4173,note_off,9,0,0,,,,,0,,,,,,,69,0
4173,note_off,0,0,0,,,,,1,,,,,,,64,0
4173,note_off,0,0,0,,,,,2,,,,,,,61,0
4173,note_off,0,0,0,,,,,6,,,,,,,61,0
4174,note_off,1,0,0,,,,,5,,,,,,,76,0
4176,note_on,2,0,0,,,,,0,,,,,,,74,80
4176,note_on,0,0,0,,,,,1,,,,,,,62,80
4176,note_on,0,0,0,,,,,2,,,,,,,59,80
4176,note_on,0,0,0,,,,,5,,,,,,,69,88
4176,note_on,0,0,0,,,,,6,,,,,,,59,88
4197,note_off,21,0,0,,,,,5,,,,,,,69,0
4197,note_off,0,0,0,,,,,6,,,,,,,59,0
4200,note_off,3,0,0,,,,,0,,,,,,,74,0
4200,note_on,0,0,0,,,,,0,,,,,,,74,80
4200,note_off,0,0,0,,,,,1,,,,,,,62,0
4200,note_on,0,0,0,,,,,1,,,,,,,62,80
4200,note_off,0,0,0,,,,,2,,,,,,,59,0
4200,note_on,0,0,0,,,,,2,,,,,,,59,80
4200,note_on,0,0,0,,,,,5,,,,,,,68,88
4200,note_on,0,0,0,,,,,6,,,,,,,59,88
4203,note_off,3,0,0,,,,,5,,,,,,,68,0
4203,note_on,0,0,0,,,,,5,,,,,,,69,88
4206,note_off,3,0,0,,,,,5,,,,,,,69,0
4206,note_on,0,0,0,,,,,5,,,,,,,68,88
4209,note_off,3,0,0,,,,,5,,,,,,,68,0
4209,note_on,0,0,0,,,,,5,,,,,,,69,88
4212,note_off,3,0,0,,,,,5,,,,,,,69,0
4212,note_on,0,0,0,,,,,5,,,,,,,68,88
4215,note_off,3,0,0,,,,,5,,,,,,,68,0
4215,note_on,0,0,0,,,,,5,,,,,,,69,88
4218,note_off,3,0,0,,,,,5,,,,,,,69,0
4218,note_on,0,0,0,,,,,5,,,,,,,68,88
4221,note_off,3,0,0,,,,,5,,,,,,,68,0
4221,note_on,0,0,0,,,,,5,,,,,,,69,88
4221,note_off,0,0,0,,,,,6,,,,,,,59,0
4224,note_off,3,0,0,,,,,0,,,,,,,74,0
4224,note_on,0,0,0,,,,,0,,,,,,,74,80
4224,note_off,0,0,0,,,,,1,,,,,,,62,0
4224,note_on,0,0,0,,,,,1,,,,,,,62,80
4224,note_off,0,0,0,,,,,2,,,,,,,59,0
4224,note_on,0,0,0,,,,,2,,,,,,,59,80
4224,note_off,0,0,0,,,,,5,,,,,,,69,0
4224,note_on,0,0,0,,,,,5,,,,,,,68,88
4224,note_on,0,0,0,,,,,6,,,,,,,59,88
4234,note_off,10,0,0,,,,,5,,,,,,,68,0
4236,note_on,2,0,0,,,,,5,,,,,,,68,88
4241,note_off,5,0,0,,,,,5,,,,,,,68,0
4242,note_on,1,0,0,,,,,5,,,,,,,69,88
4245,note_off,3,0,0,,,,,6,,,,,,,59,0
4247,note_off,2,0,0,,,,,5,,,,,,,69,0
4248,note_off,1,0,0,,,,,0,,,,,,,74,0
4248,note_on,0,0,0,,,,,0,,,,,,,74,80
4248,note_off,0,0,0,,,,,1,,,,,,,62,0
4248,note_on,0,0,0,,,,,1,,,,,,,62,80
4248,note_off,0,0,0,,,,,2,,,,,,,59,0
4248,note_on,0,0,0,,,,,2,,,,,,,59,80
4248,note_on,0,0,0,,,,,5,,,,,,,71,88
4248,note_on,0,0,0,,,,,6,,,,,,,59,88
4258,note_off,10,0,0,,,,,5,,,,,,,71,0
4260,note_on,2,0,0,,,,,5,,,,,,,73,88
4269,note_off,9,0,0,,,,,6,,,,,,,59,0
4270,note_off,1,0,0,,,,,5,,,,,,,73,0
4272,note_off,2,0,0,,,,,0,,,,,,,74,0
4272,note_on,0,0,0,,,,,0,,,,,,,68,80
4272,note_off,0,0,0,,,,,1,,,,,,,62,0
4272,note_on,0,0,0,,,,,1,,,,,,,62,80
4272,note_off,0,0,0,,,,,2,,,,,,,59,0
4272,note_on,0,0,0,,,,,2,,,,,,,59,80
4272,note_on,0,0,0,,,,,5,,,,,,,74,88
4272,note_on,0,0,0,,,,,6,,,,,,,59,88
4282,note_off,10,0,0,,,,,5,,,,,,,74,0
4284,note_on,2,0,0,,,,,5,,,,,,,76,88
4289,note_off,5,0,0,,,,,5,,,,,,,76,0
4290,note_on,1,0,0,,,,,5,,,,,,,78,88
4293,note_off,3,0,0,,,,,6,,,,,,,59,0
4295,note_off,2,0,0,,,,,5,,,,,,,78,0
4296,note_off,1,0,0,,,,,0,,,,,,,68,0
4296,note_on,0,0,0,,,,,0,,,,,,,68,80
4296,note_off,0,0,0,,,,,1,,,,,,,62,0
4296,note_on,0,0,0,,,,,1,,,,,,,62,80
4296,note_off,0,0,0,,,,,2,,,,,,,59,0
4296,note_on,0,0,0,,,,,2,,,,,,,59,80
4296,note_on,0,0,0,,,,,5,,,,,,,76,88
4296,note_on,0,0,0,,,,,6,,,,,,,59,88
4306,note_off,10,0,0,,,,,5,,,,,,,76,0
4308,note_on,2,0,0,,,,,5,,,,,,,74,88
4317,note_off,9,0,0,,,,,0,,,,,,,68,0
4317,note_off,0,0,0,,,,,1,,,,,,,62,0
4317,note_off,0,0,0,,,,,2,,,,,,,59,0
4317,note_off,0,0,0,,,,,6,,,,,,,59,0
4318,note_off,1,0,0,,,,,5,,,,,,,74,0
4320,note_on,2,0,0,,,,,0,,,,,,,69,80
4320,note_on,0,0,0,,,,,1,,,,,,,64,80
4320,note_on,0,0,0,,,,,2,,,,,,,57,80
4320,note_on,0,0,0,,,,,5,,,,,,,73,88
4320,note_on,0,0,0,,,,,6,,,,,,,57,88
4330,note_off,10,0,0,,,,,5,,,,,,,73,0
4332,note_on,2,0,0,,,,,5,,,,,,,76,88
4337,note_off,5,0,0,,,,,5,,,,,,,76,0
4338,note_on,1,0,0,,,,,5,,,,,,,74,88
4341,note_off,3,0,0,,,,,6,,,,,,,57,0
4343,note_off,2,0,0,,,,,5,,,,,,,74,0
4344,note_off,1,0,0,,,,,0,,,,,,,69,0
4344,note_on,0,0,0,,,,,0,,,,,,,69,80
4344,note_off,0,0,0,,,,,1,,,,,,,64,0
4344,note_on,0,0,0,,,,,1,,,,,,,64,80
4344,note_off,0,0,0,,,,,2,,,,,,,57,0
4344,note_on,0,0,0,,,,,2,,,,,,,57,80
4344,note_on,0,0,0,,,,,5,,,,,,,73,88
4344,note_on,0,0,0,,,,,6,,,,,,,57,88
4354,note_off,10,0,0,,,,,5,,,,,,,73,0
4356,note_on,2,0,0,,,,,5,,,,,,,71,88
4365,note_off,9,0,0,,,,,6,,,,,,,57,0
4366,note_off,1,0,0,,,,,5,,,,,,,71,0
4368,note_off,2,0,0,,,,,0,,,,,,,69,0
4368,note_on,0,0,0,,,,,0,,,,,,,73,80
4368,note_off,0,0,0,,,,,1,,,,,,,64,0
4368,note_on,0,0,0,,,,,1,,,,,,,69,80
4368,note_off,0,0,0,,,,,2,,,,,,,57,0
4368,note_on,0,0,0,,,,,2,,,,,,,57,80
4368,note_on,0,0,0,,,,,5,,,,,,,69,88
4368,note_on,0,0,0,,,,,6,,,,,,,57,88
4378,note_off,10,0,0,,,,,5,,,,,,,69,0
4380,note_on,2,0,0,,,,,5,,,,,,,73,88
4385,note_off,5,0,0,,,,,5,,,,,,,73,0
4386,note_on,1,0,0,,,,,5,,,,,,,71,88
4389,note_off,3,0,0,,,,,6,,,,,,,57,0
4391,note_off,2,0,0,,,,,5,,,,,,,71,0
4392,note_off,1,0,0,,,,,0,,,,,,,73,0
4392,note_on,0,0,0,,,,,0,,,,,,,73,80
4392,note_off,0,0,0,,,,,1,,,,,,,69,0
4392,note_on,0,0,0,,,,,1,,,,,,,69,80
4392,note_off,0,0,0,,,,,2,,,,,,,57,0
4392,note_on,0,0,0,,,,,2,,,,,,,57,80
4392,note_on,0,0,0,,,,,5,,,,,,,69,88
4392,note_on,0,0,0,,,,,6,,,,,,,57,88
4402,note_off,10,0,0,,,,,5,,,,,,,69,0
4404,note_on,2,0,0,,,,,5,,,,,,,64,88
4413,note_off,9,0,0,,,,,6,,,,,,,57,0
4414,note_off,1,0,0,,,,,5,,,,,,,64,0
4416,note_off,2,0,0,,,,,0,,,,,,,73,0
4416,note_on,0,0,0,,,,,0,,,,,,,76,80
4416,note_off,0,0,0,,,,,1,,,,,,,69,0
4416,note_on,0,0,0,,,,,1,,,,,,,73,80
4416,note_off,0,0,0,,,,,2,,,,,,,57,0
4416,note_on,0,0,0,,,,,2,,,,,,,57,80
4416,note_on,0,0,0,,,,,5,,,,,,,61,88
4416,note_on,0,0,0,,,,,6,,,,,,,57,88
4426,note_off,10,0,0,,,,,5,,,,,,,61,0
4428,note_on,2,0,0,,,,,5,,,,,,,64,88
4433,note_off,5,0,0,,,,,5,,,,,,,64,0
4434,note_on,1,0,0,,,,,5,,,,,,,62,88
4437,note_off,3,0,0,,,,,6,,,,,,,57,0
4439,note_off,2,0,0,,,,,5,,,,,,,62,0
4440,note_off,1,0,0,,,,,0,,,,,,,76,0
4440,note_on,0,0,0,,,,,0,,,,,,,76,80
4440,note_off,0,0,0,,,,,1,,,,,,,73,0
4440,note_on,0,0,0,,,,,1,,,,,,,73,80
4440,note_off,0,0,0,,,,,2,,,,,,,57,0
4440,note_on,0,0,0,,,,,2,,,,,,,57,80
4440,note_on,0,0,0,,,,,5,,,,,,,61,88
4440,note_on,0,0,0,,,,,6,,,,,,,57,88
4445,note_off,5,0,0,,,,,5,,,,,,,61,0
4446,note_on,1,0,0,,,,,5,,,,,,,59,88
4451,note_off,5,0,0,,,,,5,,,,,,,59,0
4452,note_on,1,0,0,,,,,5,,,,,,,57,88
4461,note_off,9,0,0,,,,,0,,,,,,,76,0
4461,note_off,0,0,0,,,,,1,,,,,,,73,0
4461,note_off,0,0,0,,,,,2,,,,,,,57,0
4461,note_off,0,0,0,,,,,6,,,,,,,57,0
4462,note_off,1,0,0,,,,,5,,,,,,,57,0
4464,note_on,2,0,0,,,,,0,,,,,,,75,80
4464,note_on,0,0,0,,,,,1,,,,,,,72,80
4464,note_on,0,0,0,,,,,2,,,,,,,57,80
4464,note_on,0,0,0,,,,,3,,,,,,,54,80
4464,note_on,0,0,0,,,,,4,,,,,,,42,80
4464,note_on,0,0,0,,,,,5,,,,,,,69,88
4464,note_on,0,0,0,,,,,6,,,,,,,54,88
4467,note_off,3,0,0,,,,,5,,,,,,,69,0
4467,note_on,0,0,0,,,,,5,,,,,,,67,88
4470,note_off,3,0,0,,,,,5,,,,,,,67,0
4470,note_on,0,0,0,,,,,5,,,,,,,69,88
4474,note_off,4,0,0,,,,,3,,,,,,,54,0
4474,note_off,0,0,0,,,,,4,,,,,,,42,0
4474,note_off,0,0,0,,,,,6,,,,,,,54,0
4476,note_on,2,0,0,,,,,3,,,,,,,52,80
4476,note_on,0,0,0,,,,,4,,,,,,,40,80
4476,note_on,0,0,0,,,,,6,,,,,,,52,88
4486,note_off,10,0,0,,,,,3,,,,,,,52,0
4486,note_off,0,0,0,,,,,4,,,,,,,40,0
4486,note_off,0,0,0,,,,,6,,,,,,,52,0
4488,note_off,2,0,0,,,,,0,,,,,,,75,0
4488,note_on,0,0,0,,,,,0,,,,,,,75,80
4488,note_off,0,0,0,,,,,1,,,,,,,72,0
4488,note_on,0,0,0,,,,,1,,,,,,,72,80
4488,note_off,0,0,0,,,,,2,,,,,,,57,0
4488,note_on,0,0,0,,,,,2,,,,,,,57,80
4488,note_on,0,0,0,,,,,3,,,,,,,54,80
4488,note_on,0,0,0,,,,,4,,,,,,,42,80
4488,note_on,0,0,0,,,,,6,,,,,,,54,88
4509,note_off,21,0,0,,,,,3,,,,,,,54,0
4509,note_off,0,0,0,,,,,4,,,,,,,42,0
4509,note_off,0,0,0,,,,,6,,,,,,,54,0
4512,note_off,3,0,0,,,,,0,,,,,,,75,0
4512,note_on,0,0,0,,,,,0,,,,,,,75,80
4512,note_off,0,0,0,,,,,1,,,,,,,72,0
4512,note_on,0,0,0,,,,,1,,,,,,,71,80
4512,note_off,0,0,0,,,,,2,,,,,,,57,0
4512,note_on,0,0,0,,,,,2,,,,,,,54,80
4512,note_on,0,0,0,,,,,3,,,,,,,47,80
4512,note_on,0,0,0,,,,,4,,,,,,,35,80
4512,note_on,0,0,0,,,,,6,,,,,,,47,88
4533,note_off,21,0,0,,,,,3,,,,,,,47,0
4533,note_off,0,0,0,,,,,4,,,,,,,35,0
4533,note_off,0,0,0,,,,,6,,,,,,,47,0
4536,note_off,3,0,0,,,,,0,,,,,,,75,0
4536,note_on,0,0,0,,,,,0,,,,,,,75,80
4536,note_off,0,0,0,,,,,1,,,,,,,71,0
4536,note_on,0,0,0,,,,,1,,,,,,,71,80
4536,note_off,0,0,0,,,,,2,,,,,,,54,0
4536,note_on,0,0,0,,,,,2,,,,,,,54,80
4536,note_on,0,0,0,,,,,3,,,,,,,47,80
4536,note_on,0,0,0,,,,,4,,,,,,,35,80
4536,note_on,0,0,0,,,,,6,,,,,,,47,88
4557,note_off,21,0,0,,,,,3,,,,,,,47,0
4557,note_off,0,0,0,,,,,4,,,,,,,35,0
4557,note_off,0,0,0,,,,,6,,,,,,,47,0
4560,note_off,3,0,0,,,,,0,,,,,,,75,0
4560,note_on,0,0,0,,,,,0,,,,,,,75,80
4560,note_off,0,0,0,,,,,1,,,,,,,71,0
4560,note_on,0,0,0,,,,,1,,,,,,,71,80
4560,note_off,0,0,0,,,,,2,,,,,,,54,0
4560,note_on,0,0,0,,,,,2,,,,,,,66,80
4560,note_on,0,0,0,,,,,3,,,,,,,47,80
4560,note_on,0,0,0,,,,,4,,,,,,,35,80
4560,note_on,0,0,0,,,,,6,,,,,,,47,88
4570,note_off,10,0,0,,,,,3,,,,,,,47,0
4570,note_off,0,0,0,,,,,4,,,,,,,35,0
4570,note_off,0,0,0,,,,,6,,,,,,,47,0
4572,note_on,2,0,0,,,,,3,,,,,,,54,80
4572,note_on,0,0,0,,,,,4,,,,,,,42,80
4572,note_on,0,0,0,,,,,6,,,,,,,54,88
4582,note_off,10,0,0,,,,,3,,,,,,,54,0
4582,note_off,0,0,0,,,,,4,,,,,,,42,0
4582,note_off,0,0,0,,,,,6,,,,,,,54,0
4584,note_off,2,0,0,,,,,0,,,,,,,75,0
4584,note_on,0,0,0,,,,,0,,,,,,,75,80
4584,note_off,0,0,0,,,,,1,,,,,,,71,0
4584,note_on,0,0,0,,,,,1,,,,,,,71,80
4584,note_off,0,0,0,,,,,2,,,,,,,66,0
4584,note_on,0,0,0,,,,,2,,,,,,,66,80
4584,note_on,0,0,0,,,,,3,,,,,,,55,80
4584,note_on,0,0,0,,,,,4,,,,,,,43,80
4584,note_on,0,0,0,,,,,6,,,,,,,55,88
4594,note_off,10,0,0,,,,,3,,,,,,,55,0
4594,note_off,0,0,0,,,,,4,,,,,,,43,0
4594,note_off,0,0,0,,,,,6,,,,,,,55,0
4596,note_on,2,0,0,,,,,3,,,,,,,57,80
4596,note_on,0,0,0,,,,,4,,,,,,,45,80
4596,note_on,0,0,0,,,,,6,,,,,,,57,88
4605,note_off,9,0,0,,,,,0,,,,,,,75,0
4605,note_off,0,0,0,,,,,1,,,,,,,71,0
4605,note_off,0,0,0,,,,,2,,,,,,,66,0
4606,note_off,1,0,0,,,,,3,,,,,,,57,0
4606,note_off,0,0,0,,,,,4,,,,,,,45,0
4606,note_off,0,0,0,,,,,6,,,,,,,57,0
4608,note_on,2,0,0,,,,,0,,,,,,,75,80
4608,note_on,0,0,0,,,,,1,,,,,,,71,80
4608,note_on,0,0,0,,,,,2,,,,,,,66,80
4608,note_on,0,0,0,,,,,3,,,,,,,40,80
4608,note_on,0,0,0,,,,,4,,,,,,,28,80
4608,note_on,0,0,0,,,,,6,,,,,,,40,88
4614,note_off,6,0,0,,,,,5,,,,,,,69,0
4620,note_on,6,0,0,,,,,5,,,,,,,71,88
4625,note_off,5,0,0,,,,,5,,,,,,,71,0
4626,note_on,1,0,0,,,,,5,,,,,,,69,88
4631,note_off,5,0,0,,,,,5,,,,,,,69,0
4632,note_off,1,0,0,,,,,0,,,,,,,75,0
4632,note_on,0,0,0,,,,,0,,,,,,,76,80
4632,note_off,0,0,0,,,,,1,,,,,,,71,0
4632,note_on,0,0,0,,,,,1,,,,,,,71,80
4632,note_off,0,0,0,,,,,2,,,,,,,66,0
4632,note_on,0,0,0,,,,,2,,,,,,,67,80
4632,note_on,0,0,0,,,,,5,,,,,,,67,88
4637,note_off,5,0,0,,,,,5,,,,,,,67,0
4638,note_on,1,0,0,,,,,5,,,,,,,69,88
4643,note_off,5,0,0,,,,,5,,,,,,,69,0
4644,note_on,1,0,0,,,,,5,,,,,,,66,88
4650,note_off,6,0,0,,,,,3,,,,,,,40,0
4650,note_off,0,0,0,,,,,4,,,,,,,28,0
4650,note_off,0,0,0,,,,,6,,,,,,,40,0
4654,note_off,4,0,0,,,,,5,,,,,,,66,0
4656,note_off,2,0,0,,,,,0,,,,,,,76,0
4656,note_on,0,0,0,,,,,0,,,,,,,76,80
4656,note_off,0,0,0,,,,,1,,,,,,,71,0
4656,note_on,0,0,0,,,,,1,,,,,,,71,80
4656,note_off,0,0,0,,,,,2,,,,,,,67,0
4656,note_on,0,0,0,,,,,2,,,,,,,67,80
4656,note_on,0,0,0,,,,,5,,,,,,,67,88
4666,note_off,10,0,0,,,,,5,,,,,,,67,0
4668,note_on,2,0,0,,,,,5,,,,,,,64,88
4673,note_off,5,0,0,,,,,5,,,,,,,64,0
4674,note_on,1,0,0,,,,,5,,,,,,,66,88
4679,note_off,5,0,0,,,,,5,,,,,,,66,0
4680,note_off,1,0,0,,,,,0,,,,,,,76,0
4680,note_on,0,0,0,,,,,0,,,,,,,76,80
4680,note_off,0,0,0,,,,,1,,,,,,,71,0
4680,note_on,0,0,0,,,,,1,,,,,,,71,80
4680,note_off,0,0,0,,,,,2,,,,,,,67,0
4680,note_on,0,0,0,,,,,2,,,,,,,67,80
4680,note_on,0,0,0,,,,,5,,,,,,,67,88
4680,note_on,0,0,0,,,,,6,,,,,,,52,88
4690,note_off,10,0,0,,,,,5,,,,,,,67,0
4692,note_on,2,0,0,,,,,5,,,,,,,71,88
4701,note_off,9,0,0,,,,,6,,,,,,,52,0
4702,note_off,1,0,0,,,,,5,,,,,,,71,0
4704,note_off,2,0,0,,,,,0,,,,,,,76,0
4704,note_on,0,0,0,,,,,0,,,,,,,76,80
4704,note_off,0,0,0,,,,,1,,,,,,,71,0
4704,note_on,0,0,0,,,,,1,,,,,,,71,80
4704,note_off,0,0,0,,,,,2,,,,,,,67,0
4704,note_on,0,0,0,,,,,2,,,,,,,67,80
4704,note_on,0,0,0,,,,,5,,,,,,,76,88
4704,note_on,0,0,0,,,,,6,,,,,,,64,88
4714,note_off,10,0,0,,,,,5,,,,,,,76,0
4716,note_on,2,0,0,,,,,5,,,,,,,79,88
4721,note_off,5,0,0,,,,,5,,,,,,,79,0
4722,note_on,1,0,0,,,,,5,,,,,,,78,88
4725,note_off,3,0,0,,,,,6,,,,,,,64,0
4727,note_off,2,0,0,,,,,5,,,,,,,78,0
4728,note_off,1,0,0,,,,,0,,,,,,,76,0
4728,note_on,0,0,0,,,,,0,,,,,,,76,80
4728,note_off,0,0,0,,,,,1,,,,,,,71,0
4728,note_on,0,0,0,,,,,1,,,,,,,71,80
4728,note_off,0,0,0,,,,,2,,,,,,,67,0
4728,note_on,0,0,0,,,,,2,,,,,,,67,80
4728,note_on,0,0,0,,,,,5,,,,,,,76,88
4728,note_on,0,0,0,,,,,6,,,,,,,62,88
4733,note_off,5,0,0,,,,,5,,,,,,,76,0
4734,note_on,1,0,0,,,,,5,,,,,,,74,88
4739,note_off,5,0,0,,,,,5,,,,,,,74,0
4740,note_on,1,0,0,,,,,5,,,,,,,73,88
4745,note_off,5,0,0,,,,,5,,,,,,,73,0
4746,note_on,1,0,0,,,,,5,,,,,,,71,88
4749,note_off,3,0,0,,,,,0,,,,,,,76,0
4749,note_off,0,0,0,,,,,1,,,,,,,71,0
4749,note_off,0,0,0,,,,,2,,,,,,,67,0
4749,note_off,0,0,0,,,,,6,,,,,,,62,0
4751,note_off,2,0,0,,,,,5,,,,,,,71,0
4752,note_on,1,0,0,,,,,0,,,,,,,76,80
4752,note_on,0,0,0,,,,,1,,,,,,,70,80
4752,note_on,0,0,0,,,,,2,,,,,,,67,80
4752,note_on,0,0,0,,,,,3,,,,,,,61,80
4752,note_on,0,0,0,,,,,4,,,,,,,49,80
4752,note_on,0,0,0,,,,,5,,,,,,,70,88
4752,note_on,0,0,0,,,,,6,,,,,,,61,88
4762,note_off,10,0,0,,,,,3,,,,,,,61,0
4762,note_off,0,0,0,,,,,4,,,,,,,49,0
4762,note_off,0,0,0,,,,,5,,,,,,,70,0
4762,note_off,0,0,0,,,,,6,,,,,,,61,0
4764,note_on,2,0,0,,,,,3,,,,,,,59,80
4764,note_on,0,0,0,,,,,4,,,,,,,47,80
4764,note_on,0,0,0,,,,,5,,,,,,,73,88
4764,note_on,0,0,0,,,,,6,,,,,,,59,88
4774,note_off,10,0,0,,,,,3,,,,,,,59,0
4774,note_off,0,0,0,,,,,4,,,,,,,47,0
4774,note_off,0,0,0,,,,,5,,,,,,,73,0
4774,note_off,0,0,0,,,,,6,,,,,,,59,0
4776,note_off,2,0,0,,,,,0,,,,,,,76,0
4776,note_on,0,0,0,,,,,0,,,,,,,76,80
4776,note_off,0,0,0,,,,,1,,,,,,,70,0
4776,note_on,0,0,0,,,,,1,,,,,,,70,80
4776,note_off,0,0,0,,,,,2,,,,,,,67,0
4776,note_on,0,0,0,,,,,2,,,,,,,64,80
4776,note_on,0,0,0,,,,,3,,,,,,,61,80
4776,note_on,0,0,0,,,,,4,,,,,,,49,80
4776,note_on,0,0,0,,,,,5,,,,,,,76,88
4776,note_on,0,0,0,,,,,6,,,,,,,61,88
4797,note_off,21,0,0,,,,,3,,,,,,,61,0
4797,note_off,0,0,0,,,,,4,,,,,,,49,0
4797,note_off,0,0,0,,,,,6,,,,,,,61,0
4800,note_off,3,0,0,,,,,0,,,,,,,76,0
4800,note_on,0,0,0,,,,,0,,,,,,,76,80
4800,note_off,0,0,0,,,,,1,,,,,,,70,0
4800,note_on,0,0,0,,,,,1,,,,,,,70,80
4800,note_off,0,0,0,,,,,2,,,,,,,64,0
4800,note_on,0,0,0,,,,,2,,,,,,,61,80
4800,note_on,0,0,0,,,,,3,,,,,,,54,80
4800,note_on,0,0,0,,,,,4,,,,,,,42,80
4800,note_on,0,0,0,,,,,6,,,,,,,54,88
4807,note_off,7,0,0,,,,,5,,,,,,,76,0
4812,note_on,5,0,0,,,,,5,,,,,,,79,88
4817,note_off,5,0,0,,,,,5,,,,,,,79,0
4818,note_on,1,0,0,,,,,5,,,,,,,78,88
4821,note_off,3,0,0,,,,,3,,,,,,,54,0
4821,note_off,0,0,0,,,,,4,,,,,,,42,0
4821,note_off,0,0,0,,,,,6,,,,,,,54,0
4823,note_off,2,0,0,,,,,5,,,,,,,78,0
4824,note_off,1,0,0,,,,,0,,,,,,,76,0
4824,note_on,0,0,0,,,,,0,,,,,,,76,80
4824,note_off,0,0,0,,,,,1,,,,,,,70,0
4824,note_on,0,0,0,,,,,1,,,,,,,70,80
4824,note_off,0,0,0,,,,,2,,,,,,,61,0
4824,note_on,0,0,0,,,,,2,,,,,,,61,80
4824,note_on,0,0,0,,,,,3,,,,,,,54,80
4824,note_on,0,0,0,,,,,4,,,,,,,42,80
4824,note_on,0,0,0,,,,,5,,,,,,,79,88
4824,note_on,0,0,0,,,,,6,,,,,,,54,88
4834,note_off,10,0,0,,,,,5,,,,,,,79,0
4836,note_on,2,0,0,,,,,5,,,,,,,76,88
4845,note_off,9,0,0,,,,,3,,,,,,,54,0
4845,note_off,0,0,0,,,,,4,,,,,,,42,0
4845,note_off,0,0,0,,,,,6,,,,,,,54,0
4846,note_off,1,0,0,,,,,5,,,,,,,76,0
4848,note_off,2,0,0,,,,,0,,,,,,,76,0
4848,note_on,0,0,0,,,,,0,,,,,,,76,80
4848,note_off,0,0,0,,,,,1,,,,,,,70,0
4848,note_on,0,0,0,,,,,1,,,,,,,73,80
4848,note_off,0,0,0,,,,,2,,,,,,,61,0
4848,note_on,0,0,0,,,,,2,,,,,,,66,80
4848,note_on,0,0,0,,,,,3,,,,,,,54,80
4848,note_on,0,0,0,,,,,4,,,,,,,42,80
4848,note_on,0,0,0,,,,,5,,,,,,,83,88
4848,note_on,0,0,0,,,,,6,,,,,,,54,88
4858,note_off,10,0,0,,,,,3,,,,,,,54,0
4858,note_off,0,0,0,,,,,4,,,,,,,42,0
4858,note_off,0,0,0,,,,,6,,,,,,,54,0
4860,note_on,2,0,0,,,,,3,,,,,,,61,80
4860,note_on,0,0,0,,,,,4,,,,,,,49,80
4860,note_off,0,0,0,,,,,5,,,,,,,83,0
4860,note_on,0,0,0,,,,,5,,,,,,,82,88
4860,note_on,0,0,0,,,,,6,,,,,,,61,88
4870,note_off,10,0,0,,,,,3,,,,,,,61,0
4870,note_off,0,0,0,,,,,4,,,,,,,49,0
4870,note_off,0,0,0,,,,,6,,,,,,,61,0
4872,note_off,2,0,0,,,,,0,,,,,,,76,0
4872,note_on,0,0,0,,,,,0,,,,,,,76,80
4872,note_off,0,0,0,,,,,1,,,,,,,73,0
4872,note_on,0,0,0,,,,,1,,,,,,,73,80
4872,note_off,0,0,0,,,,,2,,,,,,,66,0
4872,note_on,0,0,0,,,,,2,,,,,,,66,80
4872,note_on,0,0,0,,,,,3,,,,,,,62,80
4872,note_on,0,0,0,,,,,4,,,,,,,50,80
4872,note_on,0,0,0,,,,,6,,,,,,,62,88
4881,note_off,9,0,0,,,,,5,,,,,,,82,0
4882,note_off,1,0,0,,,,,3,,,,,,,62,0
4882,note_off,0,0,0,,,,,4,,,,,,,50,0
4882,note_off,0,0,0,,,,,6,,,,,,,62,0
4884,note_on,2,0,0,,,,,3,,,,,,,64,80
4884,note_on,0,0,0,,,,,4,,,,,,,52,80
4884,note_on,0,0,0,,,,,5,,,,,,,82,88
4884,note_on,0,0,0,,,,,6,,,,,,,64,88
4893,note_off,9,0,0,,,,,0,,,,,,,76,0
4893,note_off,0,0,0,,,,,1,,,,,,,73,0
4893,note_off,0,0,0,,,,,2,,,,,,,66,0
4894,note_off,1,0,0,,,,,3,,,,,,,64,0
4894,note_off,0,0,0,,,,,4,,,,,,,52,0
4894,note_off,0,0,0,,,,,5,,,,,,,82,0
4894,note_off,0,0,0,,,,,6,,,,,,,64,0
4896,note_on,2,0,0,,,,,0,,,,,,,76,80
4896,note_on,0,0,0,,,,,1,,,,,,,71,80
4896,note_on,0,0,0,,,,,2,,,,,,,66,80
4896,note_on,0,0,0,,,,,3,,,,,,,47,80
4896,note_on,0,0,0,,,,,4,,,,,,,35,80
4896,note_on,0,0,0,,,,,5,,,,,,,83,88
4896,note_on,0,0,0,,,,,6,,,,,,,47,88
4906,note_off,10,0,0,,,,,5,,,,,,,83,0
4908,note_on,2,0,0,,,,,5,,,,,,,86,88
4913,note_off,5,0,0,,,,,5,,,,,,,86,0
4914,note_on,1,0,0,,,,,5,,,,,,,85,88
4919,note_off,5,0,0,,,,,5,,,,,,,85,0
4920,note_off,1,0,0,,,,,0,,,,,,,76,0
4920,note_on,0,0,0,,,,,0,,,,,,,74,80
4920,note_off,0,0,0,,,,,1,,,,,,,71,0
4920,note_on,0,0,0,,,,,1,,,,,,,71,80
4920,note_off,0,0,0,,,,,2,,,,,,,66,0
4920,note_on,0,0,0,,,,,2,,,,,,,66,80
4920,note_on,0,0,0,,,,,5,,,,,,,86,88
4930,note_off,10,0,0,,,,,5,,,,,,,86,0
4932,note_on,2,0,0,,,,,5,,,,,,,83,88
4938,note_off,6,0,0,,,,,3,,,,,,,47,0
4938,note_off,0,0,0,,,,,4,,,,,,,35,0
4938,note_off,0,0,0,,,,,6,,,,,,,47,0
4942,note_off,4,0,0,,,,,5,,,,,,,83,0
4944,note_off,2,0,0,,,,,0,,,,,,,74,0
4944,note_on,0,0,0,,,,,0,,,,,,,74,80
4944,note_off,0,0,0,,,,,1,,,,,,,71,0
4944,note_on,0,0,0,,,,,1,,,,,,,71,80
4944,note_off,0,0,0,,,,,2,,,,,,,66,0
4944,note_on,0,0,0,,,,,2,,,,,,,66,80
4944,note_on,0,0,0,,,,,5,,,,,,,82,88
4950,note_off,6,0,0,,,,,5,,,,,,,82,0
4950,note_on,0,0,0,,,,,5,,,,,,,83,88
4956,note_off,6,0,0,,,,,5,,,,,,,83,0
4956,note_on,0,0,0,,,,,5,,,,,,,82,88
4962,note_off,6,0,0,,,,,5,,,,,,,82,0
4962,note_on,0,0,0,,,,,5,,,,,,,83,88
4967,note_off,5,0,0,,,,,5,,,,,,,83,0
4968,note_off,1,0,0,,,,,0,,,,,,,74,0
4968,note_on,0,0,0,,,,,0,,,,,,,74,80
4968,note_off,0,0,0,,,,,1,,,,,,,71,0
4968,note_on,0,0,0,,,,,1,,,,,,,71,80
4968,note_off,0,0,0,,,,,2,,,,,,,66,0
4968,note_on,0,0,0,,,,,2,,,,,,,66,80
4968,note_on,0,0,0,,,,,5,,,,,,,77,88
4974,note_off,6,0,0,,,,,5,,,,,,,77,0
4974,note_on,0,0,0,,,,,5,,,,,,,78,88
4980,note_off,6,0,0,,,,,5,,,,,,,78,0
4980,note_on,0,0,0,,,,,5,,,,,,,77,88
4986,note_off,6,0,0,,,,,5,,,,,,,77,0
4986,note_on,0,0,0,,,,,5,,,,,,,78,88
4991,note_off,5,0,0,,,,,5,,,,,,,78,0
4992,note_off,1,0,0,,,,,0,,,,,,,74,0
4992,note_on,0,0,0,,,,,0,,,,,,,76,80
4992,note_off,0,0,0,,,,,1,,,,,,,71,0
4992,note_on,0,0,0,,,,,1,,,,,,,73,80
4992,note_off,0,0,0,,,,,2,,,,,,,66,0
4992,note_on,0,0,0,,,,,2,,,,,,,70,80
4992,note_on,0,0,0,,,,,5,,,,,,,73,88
4998,note_off,6,0,0,,,,,5,,,,,,,73,0
4998,note_on,0,0,0,,,,,5,,,,,,,74,88
5004,note_off,6,0,0,,,,,5,,,,,,,74,0
5004,note_on,0,0,0,,,,,5,,,,,,,73,88
5010,note_off,6,0,0,,,,,5,,,,,,,73,0
5010,note_on,0,0,0,,,,,5,,,,,,,74,88
5015,note_off,5,0,0,,,,,5,,,,,,,74,0
5016,note_off,1,0,0,,,,,0,,,,,,,76,0
5016,note_on,0,0,0,,,,,0,,,,,,,76,80
5016,note_off,0,0,0,,,,,1,,,,,,,73,0
5016,note_on,0,0,0,,,,,1,,,,,,,73,80
5016,note_off,0,0,0,,,,,2,,,,,,,70,0
5016,note_on,0,0,0,,,,,2,,,,,,,70,80
5016,note_on,0,0,0,,,,,5,,,,,,,70,88
5022,note_off,6,0,0,,,,,5,,,,,,,70,0
5022,note_on,0,0,0,,,,,5,,,,,,,71,88
5028,note_off,6,0,0,,,,,5,,,,,,,71,0
5028,note_on,0,0,0,,,,,5,,,,,,,70,88
5034,note_off,6,0,0,,,,,5,,,,,,,70,0
5034,note_on,0,0,0,,,,,5,,,,,,,71,88
5037,note_off,3,0,0,,,,,0,,,,,,,76,0
5037,note_off,0,0,0,,,,,1,,,,,,,73,0
5037,note_off,0,0,0,,,,,2,,,,,,,70,0
5039,note_off,2,0,0,,,,,5,,,,,,,71,0
5040,note_on,1,0,0,,,,,0,,,,,,,78,80
5040,note_on,0,0,0,,,,,1,,,,,,,74,80
5040,note_on,0,0,0,,,,,2,,,,,,,71,80
5040,note_on,0,0,0,,,,,5,,,,,,,59,88
5050,note_off,10,0,0,,,,,5,,,,,,,59,0
5052,note_on,2,0,0,,,,,5,,,,,,,71,88
5057,note_off,5,0,0,,,,,5,,,,,,,71,0
5058,note_on,1,0,0,,,,,5,,,,,,,73,88
5063,note_off,5,0,0,,,,,5,,,,,,,73,0
5064,note_off,1,0,0,,,,,0,,,,,,,78,0
5064,note_on,0,0,0,,,,,0,,,,,,,78,80
5064,note_off,0,0,0,,,,,1,,,,,,,74,0
5064,note_on,0,0,0,,,,,1,,,,,,,74,80
5064,note_off,0,0,0,,,,,2,,,,,,,71,0
5064,note_on,0,0,0,,,,,2,,,,,,,71,80
5064,note_on,0,0,0,,,,,5,,,,,,,74,88
5074,note_off,10,0,0,,,,,5,,,,,,,74,0
5076,note_on,2,0,0,,,,,5,,,,,,,76,88
5086,note_off,10,0,0,,,,,5,,,,,,,76,0
5088,note_off,2,0,0,,,,,0,,,,,,,78,0
5088,note_on,0,0,0,,,,,0,,,,,,,74,80
5088,note_off,0,0,0,,,,,1,,,,,,,74,0
5088,note_on,0,0,0,,,,,1,,,,,,,71,80
5088,note_off,0,0,0,,,,,2,,,,,,,71,0
5088,note_on,0,0,0,,,,,2,,,,,,,71,80
5088,note_on,0,0,0,,,,,5,,,,,,,78,88
5098,note_off,10,0,0,,,,,5,,,,,,,78,0
5100,note_on,2,0,0,,,,,5,,,,,,,74,88
5105,note_off,5,0,0,,,,,5,,,,,,,74,0
5106,note_on,1,0,0,,,,,5,,,,,,,76,88
5111,note_off,5,0,0,,,,,5,,,,,,,76,0
5112,note_off,1,0,0,,,,,0,,,,,,,74,0
5112,note_on,0,0,0,,,,,0,,,,,,,74,80
5112,note_off,0,0,0,,,,,1,,,,,,,71,0
5112,note_on,0,0,0,,,,,1,,,,,,,71,80
5112,note_off,0,0,0,,,,,2,,,,,,,71,0
5112,note_on,0,0,0,,,,,2,,,,,,,71,80
5112,note_on,0,0,0,,,,,3,,,,,,,59,80
5112,note_on,0,0,0,,,,,4,,,,,,,47,80
5112,note_on,0,0,0,,,,,5,,,,,,,78,88
5112,note_on,0,0,0,,,,,6,,,,,,,59,88
5122,note_off,10,0,0,,,,,5,,,,,,,78,0
5124,note_on,2,0,0,,,,,5,,,,,,,79,88
5133,note_off,9,0,0,,,,,3,,,,,,,59,0
5133,note_off,0,0,0,,,,,4,,,,,,,47,0
5133,note_off,0,0,0,,,,,6,,,,,,,59,0
5134,note_off,1,0,0,,,,,5,,,,,,,79,0
5136,note_off,2,0,0,,,,,0,,,,,,,74,0
5136,note_on,0,0,0,,,,,0,,,,,,,74,80
5136,note_off,0,0,0,,,,,1,,,,,,,71,0
5136,note_on,0,0,0,,,,,1,,,,,,,72,80
5136,note_off,0,0,0,,,,,2,,,,,,,71,0
5136,note_on,0,0,0,,,,,2,,,,,,,69,80
5136,note_on,0,0,0,,,,,3,,,,,,,54,80
5136,note_on,0,0,0,,,,,4,,,,,,,42,80
5136,note_on,0,0,0,,,,,5,,,,,,,81,88
5136,note_on,0,0,0,,,,,6,,,,,,,54,88
5141,note_off,5,0,0,,,,,5,,,,,,,81,0
5142,note_on,1,0,0,,,,,5,,,,,,,78,88
5147,note_off,5,0,0,,,,,5,,,,,,,78,0
5148,note_on,1,0,0,,,,,5,,,,,,,76,88
5153,note_off,5,0,0,,,,,5,,,,,,,76,0
5154,note_on,1,0,0,,,,,5,,,,,,,74,88
5157,note_off,3,0,0,,,,,3,,,,,,,54,0
5157,note_off,0,0,0,,,,,4,,,,,,,42,0
5157,note_off,0,0,0,,,,,6,,,,,,,54,0
5159,note_off,2,0,0,,,,,5,,,,,,,74,0
5160,note_off,1,0,0,,,,,0,,,,,,,74,0
5160,note_on,0,0,0,,,,,0,,,,,,,74,80
5160,note_off,0,0,0,,,,,1,,,,,,,72,0
5160,note_on,0,0,0,,,,,1,,,,,,,66,80
5160,note_off,0,0,0,,,,,2,,,,,,,69,0
5160,note_on,0,0,0,,,,,2,,,,,,,69,80
5160,note_on,0,0,0,,,,,3,,,,,,,50,80
5160,note_on,0,0,0,,,,,4,,,,,,,38,80
5160,note_on,0,0,0,,,,,5,,,,,,,84,88
5160,note_on,0,0,0,,,,,6,,,,,,,50,88
5181,note_off,21,0,0,,,,,0,,,,,,,74,0
5181,note_off,0,0,0,,,,,1,,,,,,,66,0
5181,note_off,0,0,0,,,,,2,,,,,,,69,0
5181,note_off,0,0,0,,,,,3,,,,,,,50,0
5181,note_off,0,0,0,,,,,4,,,,,,,38,0
5181,note_off,0,0,0,,,,,6,,,,,,,50,0
5184,note_on,3,0,0,,,,,0,,,,,,,74,80
5184,note_on,0,0,0,,,,,1,,,,,,,67,80
5184,note_on,0,0,0,,,,,2,,,,,,,67,80
5184,note_on,0,0,0,,,,,3,,,,,,,55,80
5184,note_on,0,0,0,,,,,4,,,,,,,43,80
5184,note_on,0,0,0,,,,,6,,,,,,,55,88
5191,note_off,7,0,0,,,,,5,,,,,,,84,0
5196,note_on,5,0,0,,,,,5,,,,,,,83,88
5201,note_off,5,0,0,,,,,5,,,,,,,83,0
5202,note_on,1,0,0,,,,,5,,,,,,,81,88
5205,note_off,3,0,0,,,,,3,,,,,,,55,0
5205,note_off,0,0,0,,,,,4,,,,,,,43,0
5205,note_off,0,0,0,,,,,6,,,,,,,55,0
5207,note_off,2,0,0,,,,,5,,,,,,,81,0
5208,note_off,1,0,0,,,,,0,,,,,,,74,0
5208,note_on,0,0,0,,,,,0,,,,,,,74,80
5208,note_off,0,0,0,,,,,1,,,,,,,67,0
5208,note_on,0,0,0,,,,,1,,,,,,,67,80
5208,note_off,0,0,0,,,,,2,,,,,,,67,0
5208,note_on,0,0,0,,,,,2,,,,,,,62,80
5208,note_on,0,0,0,,,,,3,,,,,,,43,80
5208,note_on,0,0,0,,,,,4,,,,,,,31,80
5208,note_on,0,0,0,,,,,5,,,,,,,83,88
5208,note_on,0,0,0,,,,,6,,,,,,,43,88
5218,note_off,10,0,0,,,,,5,,,,,,,83,0
5220,note_on,2,0,0,,,,,5,,,,,,,79,88
5229,note_off,9,0,0,,,,,3,,,,,,,43,0
5229,note_off,0,0,0,,,,,4,,,,,,,31,0
5229,note_off,0,0,0,,,,,6,,,,,,,43,0
5230,note_off,1,0,0,,,,,5,,,,,,,79,0
5232,note_off,2,0,0,,,,,0,,,,,,,74,0
5232,note_on,0,0,0,,,,,0,,,,,,,72,80
5232,note_off,0,0,0,,,,,1,,,,,,,67,0
5232,note_on,0,0,0,,,,,1,,,,,,,67,80
5232,note_off,0,0,0,,,,,2,,,,,,,62,0
5232,note_on,0,0,0,,,,,2,,,,,,,64,80
5232,note_on,0,0,0,,,,,3,,,,,,,48,80
5232,note_on,0,0,0,,,,,4,,,,,,,36,80
5232,note_on,0,0,0,,,,,5,,,,,,,76,88
5232,note_on,0,0,0,,,,,6,,,,,,,48,88
5242,note_off,10,0,0,,,,,5,,,,,,,76,0
5244,note_on,2,0,0,,,,,5,,,,,,,79,88
5249,note_off,5,0,0,,,,,5,,,,,,,79,0
5250,note_on,1,0,0,,,,,5,,,,,,,78,88
5253,note_off,3,0,0,,,,,3,,,,,,,48,0
5253,note_off,0,0,0,,,,,4,,,,,,,36,0
5253,note_off,0,0,0,,,,,6,,,,,,,48,0
5255,note_off,2,0,0,,,,,5,,,,,,,78,0
5256,note_off,1,0,0,,,,,0,,,,,,,72,0
5256,note_on,0,0,0,,,,,0,,,,,,,71,80
5256,note_off,0,0,0,,,,,1,,,,,,,67,0
5256,note_on,0,0,0,,,,,1,,,,,,,67,80
5256,note_off,0,0,0,,,,,2,,,,,,,64,0
5256,note_on,0,0,0,,,,,2,,,,,,,64,80
5256,note_on,0,0,0,,,,,3,,,,,,,49,80
5256,note_on,0,0,0,,,,,4,,,,,,,37,80
5256,note_on,0,0,0,,,,,5,,,,,,,79,88
5256,note_on,0,0,0,,,,,6,,,,,,,49,88
5266,note_off,10,0,0,,,,,5,,,,,,,79,0
5268,note_on,2,0,0,,,,,5,,,,,,,71,88
5277,note_off,9,0,0,,,,,3,,,,,,,49,0
5277,note_off,0,0,0,,,,,4,,,,,,,37,0
5277,note_off,0,0,0,,,,,6,,,,,,,49,0
5278,note_off,1,0,0,,,,,5,,,,,,,71,0
5280,note_off,2,0,0,,,,,0,,,,,,,71,0
5280,note_on,0,0,0,,,,,0,,,,,,,69,80
5280,note_off,0,0,0,,,,,1,,,,,,,67,0
5280,note_on,0,0,0,,,,,1,,,,,,,62,80
5280,note_off,0,0,0,,,,,2,,,,,,,64,0
5280,note_on,0,0,0,,,,,2,,,,,,,69,80
5280,note_on,0,0,0,,,,,3,,,,,,,50,80
5280,note_on,0,0,0,,,,,4,,,,,,,38,80
5280,note_on,0,0,0,,,,,5,,,,,,,62,88
5280,note_on,0,0,0,,,,,6,,,,,,,50,88
5290,note_off,10,0,0,,,,,5,,,,,,,62,0
5292,note_on,2,0,0,,,,,5,,,,,,,69,88
5301,note_off,9,0,0,,,,,3,,,,,,,50,0
5301,note_off,0,0,0,,,,,4,,,,,,,38,0
5301,note_off,0,0,0,,,,,6,,,,,,,50,0
5302,note_off,1,0,0,,,,,5,,,,,,,69,0
5304,note_off,2,0,0,,,,,0,,,,,,,69,0
5304,note_on,0,0,0,,,,,0,,,,,,,72,80
5304,note_off,0,0,0,,,,,1,,,,,,,62,0
5304,note_on,0,0,0,,,,,1,,,,,,,69,80
5304,note_off,0,0,0,,,,,2,,,,,,,69,0
5304,note_on,0,0,0,,,,,2,,,,,,,62,80
5304,note_on,0,0,0,,,,,3,,,,,,,38,80
5304,note_on,0,0,0,,,,,4,,,,,,,26,80
5304,note_on,0,0,0,,,,,5,,,,,,,79,88
5304,note_on,0,0,0,,,,,6,,,,,,,38,88
5314,note_off,10,0,0,,,,,5,,,,,,,79,0
5316,note_on,2,0,0,,,,,5,,,,,,,78,88
5325,note_off,9,0,0,,,,,0,,,,,,,72,0
5325,note_off,0,0,0,,,,,1,,,,,,,69,0
5325,note_off,0,0,0,,,,,2,,,,,,,62,0
5325,note_off,0,0,0,,,,,3,,,,,,,38,0
5325,note_off,0,0,0,,,,,4,,,,,,,26,0
5325,note_off,0,0,0,,,,,6,,,,,,,38,0
5326,note_off,1,0,0,,,,,5,,,,,,,78,0
5328,note_on,2,0,0,,,,,0,,,,,,,71,80
5328,note_on,0,0,0,,,,,1,,,,,,,67,80
5328,note_on,0,0,0,,,,,2,,,,,,,62,80
5328,note_on,0,0,0,,,,,3,,,,,,,43,80
5328,note_on,0,0,0,,,,,4,,,,,,,31,80
5328,note_on,0,0,0,,,,,6,,,,,,,55,88
5338,note_off,10,0,0,,,,,6,,,,,,,55,0
5340,note_on,2,0,0,,,,,5,,,,,,,59,88
5340,note_on,0,0,0,,,,,6,,,,,,,54,88
5350,note_off,10,0,0,,,,,5,,,,,,,59,0
5350,note_off,0,0,0,,,,,6,,,,,,,54,0
5352,note_on,2,0,0,,,,,5,,,,,,,62,88
5352,note_on,0,0,0,,,,,6,,,,,,,55,88
5362,note_off,10,0,0,,,,,5,,,,,,,62,0
5364,note_on,2,0,0,,,,,5,,,,,,,66,88
5370,note_off,6,0,0,,,,,0,,,,,,,71,0
5370,note_off,0,0,0,,,,,1,,,,,,,67,0
5370,note_off,0,0,0,,,,,2,,,,,,,62,0
5370,note_off,0,0,0,,,,,3,,,,,,,43,0
5370,note_off,0,0,0,,,,,4,,,,,,,31,0
5373,note_off,3,0,0,,,,,6,,,,,,,55,0
5374,note_off,1,0,0,,,,,5,,,,,,,66,0
5376,note_on,2,0,0,,,,,5,,,,,,,67,88
5376,note_on,0,0,0,,,,,6,,,,,,,50,88
5386,note_off,10,0,0,,,,,5,,,,,,,67,0
5388,note_on,2,0,0,,,,,5,,,,,,,71,88
5397,note_off,9,0,0,,,,,6,,,,,,,50,0
5398,note_off,1,0,0,,,,,5,,,,,,,71,0
5400,note_on,2,0,0,,,,,0,,,,,,,71,80
5400,note_on,0,0,0,,,,,1,,,,,,,62,80
5400,note_on,0,0,0,,,,,2,,,,,,,67,80
5400,note_on,0,0,0,,,,,5,,,,,,,74,88
5400,note_on,0,0,0,,,,,6,,,,,,,50,88
5410,note_off,10,0,0,,,,,0,,,,,,,71,0
5410,note_off,0,0,0,,,,,1,,,,,,,62,0
5410,note_off,0,0,0,,,,,5,,,,,,,74,0
5412,note_on,2,0,0,,,,,0,,,,,,,69,80
5412,note_on,0,0,0,,,,,1,,,,,,,60,80
5412,note_on,0,0,0,,,,,5,,,,,,,78,88
5421,note_off,9,0,0,,,,,6,,,,,,,50,0
5422,note_off,1,0,0,,,,,0,,,,,,,69,0
5422,note_off,0,0,0,,,,,1,,,,,,,60,0
5422,note_off,0,0,0,,,,,5,,,,,,,78,0
5424,note_on,2,0,0,,,,,0,,,,,,,71,80
5424,note_on,0,0,0,,,,,1,,,,,,,62,80
5424,note_off,0,0,0,,,,,2,,,,,,,67,0
5424,note_on,0,0,0,,,,,2,,,,,,,67,80
5424,note_on,0,0,0,,,,,5,,,,,,,79,88
5424,note_on,0,0,0,,,,,6,,,,,,,50,88
5434,note_off,10,0,0,,,,,6,,,,,,,50,0
5436,note_on,2,0,0,,,,,3,,,,,,,55,80
5436,note_on,0,0,0,,,,,4,,,,,,,43,80
5436,note_on,0,0,0,,,,,6,,,,,,,55,88
5445,note_off,9,0,0,,,,,0,,,,,,,71,0
5445,note_off,0,0,0,,,,,1,,,,,,,62,0
5446,note_off,1,0,0,,,,,3,,,,,,,55,0
5446,note_off,0,0,0,,,,,4,,,,,,,43,0
5446,note_off,0,0,0,,,,,6,,,,,,,55,0
5448,note_on,2,0,0,,,,,0,,,,,,,71,80
5448,note_on,0,0,0,,,,,1,,,,,,,62,80
5448,note_off,0,0,0,,,,,2,,,,,,,67,0
5448,note_on,0,0,0,,,,,2,,,,,,,67,80
5448,note_on,0,0,0,,,,,3,,,,,,,57,80
5448,note_on,0,0,0,,,,,4,,,,,,,45,80
5448,note_on,0,0,0,,,,,6,,,,,,,57,88
5458,note_off,10,0,0,,,,,3,,,,,,,57,0
5458,note_off,0,0,0,,,,,4,,,,,,,45,0
5458,note_off,0,0,0,,,,,6,,,,,,,57,0
5460,note_on,2,0,0,,,,,3,,,,,,,59,80
5460,note_on,0,0,0,,,,,4,,,,,,,47,80
5460,note_on,0,0,0,,,,,6,,,,,,,59,88
5469,note_off,9,0,0,,,,,0,,,,,,,71,0
5469,note_off,0,0,0,,,,,1,,,,,,,62,0
5469,note_off,0,0,0,,,,,2,,,,,,,67,0
5470,note_off,1,0,0,,,,,3,,,,,,,59,0
5470,note_off,0,0,0,,,,,4,,,,,,,47,0
5470,note_off,0,0,0,,,,,6,,,,,,,59,0
5472,note_on,2,0,0,,,,,0,,,,,,,69,80
5472,note_on,0,0,0,,,,,1,,,,,,,64,80
5472,note_on,0,0,0,,,,,2,,,,,,,64,80
5472,note_on,0,0,0,,,,,3,,,,,,,49,80
5472,note_on,0,0,0,,,,,4,,,,,,,37,80
5472,note_on,0,0,0,,,,,6,,,,,,,49,88
5478,note_off,6,0,0,,,,,5,,,,,,,79,0
5482,note_off,4,0,0,,,,,6,,,,,,,49,0
5484,note_on,2,0,0,,,,,5,,,,,,,76,88
5484,note_on,0,0,0,,,,,6,,,,,,,47,88
5489,note_off,5,0,0,,,,,5,,,,,,,76,0
5490,note_on,1,0,0,,,,,5,,,,,,,78,88
5494,note_off,4,0,0,,,,,6,,,,,,,47,0
5495,note_off,1,0,0,,,,,5,,,,,,,78,0
5496,note_on,1,0,0,,,,,5,,,,,,,79,88
5496,note_on,0,0,0,,,,,6,,,,,,,49,88
5506,note_off,10,0,0,,,,,5,,,,,,,79,0
5508,note_on,2,0,0,,,,,5,,,,,,,76,88
5514,note_off,6,0,0,,,,,0,,,,,,,69,0
5514,note_off,0,0,0,,,,,1,,,,,,,64,0
5514,note_off,0,0,0,,,,,2,,,,,,,64,0
5514,note_off,0,0,0,,,,,3,,,,,,,49,0
5514,note_off,0,0,0,,,,,4,,,,,,,37,0
5517,note_off,3,0,0,,,,,6,,,,,,,49,0
5518,note_off,1,0,0,,,,,5,,,,,,,76,0
5520,note_on,2,0,0,,,,,5,,,,,,,73,88
5520,note_on,0,0,0,,,,,6,,,,,,,45,88
5530,note_off,10,0,0,,,,,5,,,,,,,73,0
5532,note_on,2,0,0,,,,,5,,,,,,,69,88
5537,note_off,5,0,0,,,,,5,,,,,,,69,0
5538,note_on,1,0,0,,,,,5,,,,,,,71,88
5541,note_off,3,0,0,,,,,6,,,,,,,45,0
5543,note_off,2,0,0,,,,,5,,,,,,,71,0
5544,note_on,1,0,0,,,,,0,,,,,,,73,80
5544,note_on,0,0,0,,,,,1,,,,,,,64,80
5544,note_on,0,0,0,,,,,2,,,,,,,64,80
5544,note_on,0,0,0,,,,,5,,,,,,,73,88
5544,note_on,0,0,0,,,,,6,,,,,,,45,88
5554,note_off,10,0,0,,,,,0,,,,,,,73,0
5554,note_off,0,0,0,,,,,1,,,,,,,64,0
5554,note_off,0,0,0,,,,,5,,,,,,,73,0
5556,note_on,2,0,0,,,,,0,,,,,,,74,80
5556,note_on,0,0,0,,,,,1,,,,,,,66,80
5556,note_on,0,0,0,,,,,5,,,,,,,69,88
5565,note_off,9,0,0,,,,,6,,,,,,,45,0
5566,note_off,1,0,0,,,,,0,,,,,,,74,0
5566,note_off,0,0,0,,,,,1,,,,,,,66,0
5566,note_off,0,0,0,,,,,5,,,,,,,69,0
5568,note_on,2,0,0,,,,,0,,,,,,,73,80
5568,note_on,0,0,0,,,,,1,,,,,,,67,80
5568,note_off,0,0,0,,,,,2,,,,,,,64,0
5568,note_on,0,0,0,,,,,2,,,,,,,64,80
5568,note_on,0,0,0,,,,,5,,,,,,,64,88
5568,note_on,0,0,0,,,,,6,,,,,,,45,88
5578,note_off,10,0,0,,,,,6,,,,,,,45,0
5580,note_on,2,0,0,,,,,3,,,,,,,55,80
5580,note_on,0,0,0,,,,,4,,,,,,,43,80
5580,note_off,0,0,0,,,,,5,,,,,,,64,0
5580,note_on,0,0,0,,,,,5,,,,,,,67,88
5580,note_on,0,0,0,,,,,6,,,,,,,55,88
5589,note_off,9,0,0,,,,,0,,,,,,,73,0
5589,note_off,0,0,0,,,,,1,,,,,,,67,0
5590,note_off,1,0,0,,,,,3,,,,,,,55,0
5590,note_off,0,0,0,,,,,4,,,,,,,43,0
5590,note_off,0,0,0,,,,,6,,,,,,,55,0
5592,note_on,2,0,0,,,,,0,,,,,,,73,80
5592,note_on,0,0,0,,,,,1,,,,,,,67,80
5592,note_off,0,0,0,,,,,2,,,,,,,64,0
5592,note_on,0,0,0,,,,,2,,,,,,,64,80
5592,note_on,0,0,0,,,,,3,,,,,,,54,80
5592,note_on,0,0,0,,,,,4,,,,,,,42,80
5592,note_off,0,0,0,,,,,5,,,,,,,67,0
5592,note_on,0,0,0,,,,,5,,,,,,,69,88
5592,note_on,0,0,0,,,,,6,,,,,,,54,88
5602,note_off,10,0,0,,,,,3,,,,,,,54,0
5602,note_off,0,0,0,,,,,4,,,,,,,42,0
5602,note_off,0,0,0,,,,,6,,,,,,,54,0
5604,note_on,2,0,0,,,,,3,,,,,,,52,80
5604,note_on,0,0,0,,,,,4,,,,,,,40,80
5604,note_off,0,0,0,,,,,5,,,,,,,69,0
5604,note_on,0,0,0,,,,,5,,,,,,,73,88
5604,note_on,0,0,0,,,,,6,,,,,,,52,88
5613,note_off,9,0,0,,,,,0,,,,,,,73,0
5613,note_off,0,0,0,,,,,1,,,,,,,67,0
5613,note_off,0,0,0,,,,,2,,,,,,,64,0
5614,note_off,1,0,0,,,,,3,,,,,,,52,0
5614,note_off,0,0,0,,,,,4,,,,,,,40,0
5614,note_off,0,0,0,,,,,5,,,,,,,73,0
5614,note_off,0,0,0,,,,,6,,,,,,,52,0
5616,note_on,2,0,0,,,,,0,,,,,,,73,80
5616,note_on,0,0,0,,,,,1,,,,,,,66,80
5616,note_on,0,0,0,,,,,2,,,,,,,69,80
5616,note_on,0,0,0,,,,,3,,,,,,,50,80
5616,note_on,0,0,0,,,,,4,,,,,,,38,80
5616,note_on,0,0,0,,,,,5,,,,,,,78,88
5616,note_on,0,0,0,,,,,6,,,,,,,50,88
5626,note_off,10,0,0,,,,,5,,,,,,,78,0
5626,note_off,0,0,0,,,,,6,,,,,,,50,0
5628,note_on,2,0,0,,,,,5,,,,,,,74,88
5628,note_on,0,0,0,,,,,6,,,,,,,49,88
5633,note_off,5,0,0,,,,,5,,,,,,,74,0
5634,note_on,1,0,0,,,,,5,,,,,,,76,88
5638,note_off,4,0,0,,,,,6,,,,,,,49,0
5639,note_off,1,0,0,,,,,5,,,,,,,76,0
5640,note_on,1,0,0,,,,,5,,,,,,,78,88
5640,note_on,0,0,0,,,,,6,,,,,,,50,88
5650,note_off,10,0,0,,,,,5,,,,,,,78,0
5652,note_on,2,0,0,,,,,5,,,,,,,74,88
5658,note_off,6,0,0,,,,,0,,,,,,,73,0
5658,note_off,0,0,0,,,,,1,,,,,,,66,0
5658,note_off,0,0,0,,,,,2,,,,,,,69,0
5658,note_off,0,0,0,,,,,3,,,,,,,50,0
5658,note_off,0,0,0,,,,,4,,,,,,,38,0
5661,note_off,3,0,0,,,,,6,,,,,,,50,0
5662,note_off,1,0,0,,,,,5,,,,,,,74,0
5664,note_on,2,0,0,,,,,5,,,,,,,71,88
5664,note_on,0,0,0,,,,,6,,,,,,,43,88
5674,note_off,10,0,0,,,,,5,,,,,,,71,0
5676,note_on,2,0,0,,,,,5,,,,,,,67,88
5681,note_off,5,0,0,,,,,5,,,,,,,67,0
5682,note_on,1,0,0,,,,,5,,,,,,,69,88
5685,note_off,3,0,0,,,,,6,,,,,,,43,0
5687,note_off,2,0,0,,,,,5,,,,,,,69,0
5688,note_on,1,0,0,,,,,0,,,,,,,71,80
5688,note_on,0,0,0,,,,,1,,,,,,,62,80
5688,note_on,0,0,0,,,,,2,,,,,,,67,80
5688,note_on,0,0,0,,,,,5,,,,,,,71,88
5688,note_on,0,0,0,,,,,6,,,,,,,43,88
5698,note_off,10,0,0,,,,,0,,,,,,,71,0
5698,note_off,0,0,0,,,,,1,,,,,,,62,0
5698,note_off,0,0,0,,,,,5,,,,,,,71,0
5700,note_on,2,0,0,,,,,0,,,,,,,70,80
5700,note_on,0,0,0,,,,,1,,,,,,,64,80
5700,note_on,0,0,0,,,,,5,,,,,,,67,88
5709,note_off,9,0,0,,,,,6,,,,,,,43,0
5710,note_off,1,0,0,,,,,0,,,,,,,70,0
5710,note_off,0,0,0,,,,,1,,,,,,,64,0
5710,note_off,0,0,0,,,,,5,,,,,,,67,0
5712,note_on,2,0,0,,,,,0,,,,,,,71,80
5712,note_on,0,0,0,,,,,1,,,,,,,66,80
5712,note_off,0,0,0,,,,,2,,,,,,,67,0
5712,note_on,0,0,0,,,,,2,,,,,,,67,80
5712,note_on,0,0,0,,,,,5,,,,,,,62,88
5712,note_on,0,0,0,,,,,6,,,,,,,43,88
5722,note_off,10,0,0,,,,,6,,,,,,,43,0
5724,note_on,2,0,0,,,,,3,,,,,,,54,80
5724,note_on,0,0,0,,,,,4,,,,,,,42,80
5724,note_off,0,0,0,,,,,5,,,,,,,62,0
5724,note_on,0,0,0,,,,,5,,,,,,,66,88
5724,note_on,0,0,0,,,,,6,,,,,,,54,88
5733,note_off,9,0,0,,,,,0,,,,,,,71,0
5733,note_off,0,0,0,,,,,1,,,,,,,66,0
5734,note_off,1,0,0,,,,,3,,,,,,,54,0
5734,note_off,0,0,0,,,,,4,,,,,,,42,0
5734,note_off,0,0,0,,,,,6,,,,,,,54,0
5736,note_on,2,0,0,,,,,0,,,,,,,71,80
5736,note_on,0,0,0,,,,,1,,,,,,,66,80
5736,note_off,0,0,0,,,,,2,,,,,,,67,0
5736,note_on,0,0,0,,,,,2,,,,,,,67,80
5736,note_on,0,0,0,,,,,3,,,,,,,52,80
5736,note_on,0,0,0,,,,,4,,,,,,,40,80
5736,note_off,0,0,0,,,,,5,,,,,,,66,0
5736,note_on,0,0,0,,,,,5,,,,,,,67,88
5736,note_on,0,0,0,,,,,6,,,,,,,52,88
5746,note_off,10,0,0,,,,,3,,,,,,,52,0
5746,note_off,0,0,0,,,,,4,,,,,,,40,0
5746,note_off,0,0,0,,,,,6,,,,,,,52,0
5748,note_on,2,0,0,,,,,3,,,,,,,50,80
5748,note_on,0,0,0,,,,,4,,,,,,,38,80
5748,note_off,0,0,0,,,,,5,,,,,,,67,0
5748,note_on,0,0,0,,,,,5,,,,,,,71,88
5748,note_on,0,0,0,,,,,6,,,,,,,50,88
5757,note_off,9,0,0,,,,,0,,,,,,,71,0
5757,note_off,0,0,0,,,,,1,,,,,,,66,0
5757,note_off,0,0,0,,,,,2,,,,,,,67,0
5758,note_off,1,0,0,,,,,3,,,,,,,50,0
5758,note_off,0,0,0,,,,,4,,,,,,,38,0
5758,note_off,0,0,0,,,,,5,,,,,,,71,0
5758,note_off,0,0,0,,,,,6,,,,,,,50,0
5760,note_on,2,0,0,,,,,0,,,,,,,71,80
5760,note_on,0,0,0,,,,,1,,,,,,,64,80
5760,note_on,0,0,0,,,,,2,,,,,,,67,80
5760,note_on,0,0,0,,,,,3,,,,,,,49,80
5760,note_on,0,0,0,,,,,4,,,,,,,37,80
5760,note_on,0,0,0,,,,,5,,,,,,,76,88
5760,note_on,0,0,0,,,,,6,,,,,,,49,88
5770,note_off,10,0,0,,,,,5,,,,,,,76,0
5770,note_off,0,0,0,,,,,6,,,,,,,49,0
5772,note_on,2,0,0,,,,,5,,,,,,,79,88
5772,note_on,0,0,0,,,,,6,,,,,,,47,88
5777,note_off,5,0,0,,,,,5,,,,,,,79,0
5778,note_on,1,0,0,,,,,5,,,,,,,78,88
5782,note_off,4,0,0,,,,,6,,,,,,,47,0
5783,note_off,1,0,0,,,,,5,,,,,,,78,0
5784,note_on,1,0,0,,,,,5,,,,,,,76,88
5784,note_on,0,0,0,,,,,6,,,,,,,49,88
5794,note_off,10,0,0,,,,,5,,,,,,,76,0
5796,note_on,2,0,0,,,,,5,,,,,,,74,88
5802,note_off,6,0,0,,,,,0,,,,,,,71,0
5802,note_off,0,0,0,,,,,1,,,,,,,64,0
5802,note_off,0,0,0,,,,,2,,,,,,,67,0
5802,note_off,0,0,0,,,,,3,,,,,,,49,0
5802,note_off,0,0,0,,,,,4,,,,,,,37,0
5805,note_off,3,0,0,,,,,6,,,,,,,49,0
5806,note_off,1,0,0,,,,,5,,,,,,,74,0
5808,note_on,2,0,0,,,,,5,,,,,,,73,88
5808,note_on,0,0,0,,,,,6,,,,,,,42,88
5818,note_off,10,0,0,,,,,5,,,,,,,73,0
5820,note_on,2,0,0,,,,,5,,,,,,,76,88
5825,note_off,5,0,0,,,,,5,,,,,,,76,0
5826,note_on,1,0,0,,,,,5,,,,,,,74,88
5829,note_off,3,0,0,,,,,6,,,,,,,42,0
5831,note_off,2,0,0,,,,,5,,,,,,,74,0
5832,note_on,1,0,0,,,,,0,,,,,,,70,80
5832,note_on,0,0,0,,,,,1,,,,,,,66,80
5832,note_on,0,0,0,,,,,2,,,,,,,66,80
5832,note_on,0,0,0,,,,,5,,,,,,,73,88
5832,note_on,0,0,0,,,,,6,,,,,,,42,88
5842,note_off,10,0,0,,,,,0,,,,,,,70,0
5842,note_off,0,0,0,,,,,1,,,,,,,66,0
5842,note_off,0,0,0,,,,,5,,,,,,,73,0
5844,note_on,2,0,0,,,,,0,,,,,,,68,80
5844,note_on,0,0,0,,,,,1,,,,,,,62,80
5844,note_on,0,0,0,,,,,5,,,,,,,71,88
5853,note_off,9,0,0,,,,,6,,,,,,,42,0
5854,note_off,1,0,0,,,,,0,,,,,,,68,0
5854,note_off,0,0,0,,,,,1,,,,,,,62,0
5854,note_off,0,0,0,,,,,5,,,,,,,71,0
5856,note_on,2,0,0,,,,,0,,,,,,,70,80
5856,note_on,0,0,0,,,,,1,,,,,,,64,80
5856,note_off,0,0,0,,,,,2,,,,,,,66,0
5856,note_on,0,0,0,,,,,2,,,,,,,66,80
5856,note_on,0,0,0,,,,,5,,,,,,,70,88
5856,note_on,0,0,0,,,,,6,,,,,,,42,88
5866,note_off,10,0,0,,,,,5,,,,,,,70,0
5866,note_off,0,0,0,,,,,6,,,,,,,42,0
5868,note_on,2,0,0,,,,,3,,,,,,,54,80
5868,note_on,0,0,0,,,,,4,,,,,,,42,80
5868,note_on,0,0,0,,,,,5,,,,,,,79,88
5868,note_on,0,0,0,,,,,6,,,,,,,54,88
5877,note_off,9,0,0,,,,,0,,,,,,,70,0
5877,note_off,0,0,0,,,,,1,,,,,,,64,0
5878,note_off,1,0,0,,,,,3,,,,,,,54,0
5878,note_off,0,0,0,,,,,4,,,,,,,42,0
5878,note_off,0,0,0,,,,,5,,,,,,,79,0
5878,note_off,0,0,0,,,,,6,,,,,,,54,0
5880,note_on,2,0,0,,,,,0,,,,,,,73,80
5880,note_on,0,0,0,,,,,1,,,,,,,61,80
5880,note_off,0,0,0,,,,,2,,,,,,,66,0
5880,note_on,0,0,0,,,,,2,,,,,,,66,80
5880,note_on,0,0,0,,,,,3,,,,,,,56,80
5880,note_on,0,0,0,,,,,4,,,,,,,44,80
5880,note_on,0,0,0,,,,,5,,,,,,,78,88
5880,note_on,0,0,0,,,,,6,,,,,,,56,88
5885,note_off,5,0,0,,,,,5,,,,,,,78,0
5886,note_on,1,0,0,,,,,5,,,,,,,79,88
5890,note_off,4,0,0,,,,,3,,,,,,,56,0
5890,note_off,0,0,0,,,,,4,,,,,,,44,0
5890,note_off,0,0,0,,,,,6,,,,,,,56,0
5891,note_off,1,0,0,,,,,5,,,,,,,79,0
5892,note_on,1,0,0,,,,,3,,,,,,,58,80
5892,note_on,0,0,0,,,,,4,,,,,,,46,80
5892,note_on,0,0,0,,,,,5,,,,,,,76,88
5892,note_on,0,0,0,,,,,6,,,,,,,58,88
5901,note_off,9,0,0,,,,,0,,,,,,,73,0
5901,note_off,0,0,0,,,,,1,,,,,,,61,0
5901,note_off,0,0,0,,,,,2,,,,,,,66,0
5902,note_off,1,0,0,,,,,3,,,,,,,58,0
5902,note_off,0,0,0,,,,,4,,,,,,,46,0
5902,note_off,0,0,0,,,,,5,,,,,,,76,0
5902,note_off,0,0,0,,,,,6,,,,,,,58,0
5904,note_on,2,0,0,,,,,0,,,,,,,74,80
5904,note_on,0,0,0,,,,,1,,,,,,,59,80
5904,note_on,0,0,0,,,,,2,,,,,,,66,80
5904,note_on,0,0,0,,,,,3,,,,,,,47,80
5904,note_on,0,0,0,,,,,4,,,,,,,35,80
5904,note_on,0,0,0,,,,,5,,,,,,,74,88
5904,note_on,0,0,0,,,,,6,,,,,,,59,88
5907,note_off,3,0,0,,,,,5,,,,,,,74,0
5907,note_on,0,0,0,,,,,5,,,,,,,76,88
5910,note_off,3,0,0,,,,,5,,,,,,,76,0
5910,note_on,0,0,0,,,,,5,,,,,,,74,88
5913,note_off,3,0,0,,,,,5,,,,,,,74,0
5913,note_on,0,0,0,,,,,5,,,,,,,76,88
5914,note_off,1,0,0,,,,,6,,,,,,,59,0
5916,note_off,2,0,0,,,,,5,,,,,,,76,0
5916,note_on,0,0,0,,,,,5,,,,,,,74,88
5916,note_on,0,0,0,,,,,6,,,,,,,58,88
5919,note_off,3,0,0,,,,,5,,,,,,,74,0
5919,note_on,0,0,0,,,,,5,,,,,,,76,88
5922,note_off,3,0,0,,,,,5,,,,,,,76,0
5922,note_on,0,0,0,,,,,5,,,,,,,74,88
5926,note_off,4,0,0,,,,,6,,,,,,,58,0
5927,note_off,1,0,0,,,,,5,,,,,,,74,0
5928,note_on,1,0,0,,,,,5,,,,,,,73,88
5928,note_on,0,0,0,,,,,6,,,,,,,59,88
5938,note_off,10,0,0,,,,,5,,,,,,,73,0
5940,note_on,2,0,0,,,,,5,,,,,,,71,88
5946,note_off,6,0,0,,,,,3,,,,,,,47,0
5946,note_off,0,0,0,,,,,4,,,,,,,35,0
5949,note_off,3,0,0,,,,,6,,,,,,,59,0
5950,note_off,1,0,0,,,,,5,,,,,,,71,0
5952,note_on,2,0,0,,,,,6,,,,,,,54,88
5964,note_on,12,0,0,,,,,5,,,,,,,74,88
5969,note_off,5,0,0,,,,,5,,,,,,,74,0
5970,note_on,1,0,0,,,,,5,,,,,,,73,88
5973,note_off,3,0,0,,,,,6,,,,,,,54,0
5975,note_off,2,0,0,,,,,5,,,,,,,73,0
5976,note_on,1,0,0,,,,,5,,,,,,,74,88
5976,note_on,0,0,0,,,,,6,,,,,,,54,88
5986,note_off,10,0,0,,,,,5,,,,,,,74,0
5988,note_on,2,0,0,,,,,5,,,,,,,78,88
5997,note_off,9,0,0,,,,,6,,,,,,,54,0
5998,note_off,1,0,0,,,,,5,,,,,,,78,0
6000,note_on,2,0,0,,,,,5,,,,,,,74,88
6000,note_on,0,0,0,,,,,6,,,,,,,54,88
6010,note_off,10,0,0,,,,,5,,,,,,,74,0
6010,note_off,0,0,0,,,,,6,,,,,,,54,0
6012,note_on,2,0,0,,,,,3,,,,,,,47,80
6012,note_on,0,0,0,,,,,4,,,,,,,35,80
6012,note_on,0,0,0,,,,,5,,,,,,,71,88
6012,note_on,0,0,0,,,,,6,,,,,,,59,88
6022,note_off,10,0,0,,,,,3,,,,,,,47,0
6022,note_off,0,0,0,,,,,4,,,,,,,35,0
6022,note_off,0,0,0,,,,,5,,,,,,,71,0
6022,note_off,0,0,0,,,,,6,,,,,,,59,0
6024,note_on,2,0,0,,,,,3,,,,,,,49,80
6024,note_on,0,0,0,,,,,4,,,,,,,37,80
6024,note_on,0,0,0,,,,,5,,,,,,,67,88
6024,note_on,0,0,0,,,,,6,,,,,,,61,88
6034,note_off,10,0,0,,,,,3,,,,,,,49,0
6034,note_off,0,0,0,,,,,4,,,,,,,37,0
6034,note_off,0,0,0,,,,,5,,,,,,,67,0
6034,note_off,0,0,0,,,,,6,,,,,,,61,0
6036,note_on,2,0,0,,,,,3,,,,,,,50,80
6036,note_on,0,0,0,,,,,4,,,,,,,38,80
6036,note_on,0,0,0,,,,,5,,,,,,,66,88
6036,note_on,0,0,0,,,,,6,,,,,,,62,88
6042,note_off,6,0,0,,,,,0,,,,,,,74,0
6042,note_off,0,0,0,,,,,1,,,,,,,59,0
6042,note_off,0,0,0,,,,,2,,,,,,,66,0
6046,note_off,4,0,0,,,,,3,,,,,,,50,0
6046,note_off,0,0,0,,,,,4,,,,,,,38,0
6046,note_off,0,0,0,,,,,5,,,,,,,66,0
6046,note_off,0,0,0,,,,,6,,,,,,,62,0
6048,note_on,2,0,0,,,,,0,,,,,,,70,80
6048,note_on,0,0,0,,,,,1,,,,,,,64,80
6048,note_on,0,0,0,,,,,2,,,,,,,61,80
6048,note_on,0,0,0,,,,,3,,,,,,,49,80
6048,note_on,0,0,0,,,,,4,,,,,,,37,80
6048,note_on,0,0,0,,,,,5,,,,,,,64,88
6048,note_on,0,0,0,,,,,6,,,,,,,61,88
6058,note_off,10,0,0,,,,,5,,,,,,,64,0
6058,note_off,0,0,0,,,,,6,,,,,,,61,0
6060,note_on,2,0,0,,,,,5,,,,,,,71,88
6060,note_on,0,0,0,,,,,6,,,,,,,59,88
6070,note_off,10,0,0,,,,,5,,,,,,,71,0
6070,note_off,0,0,0,,,,,6,,,,,,,59,0
6072,note_on,2,0,0,,,,,5,,,,,,,79,88
6072,note_on,0,0,0,,,,,6,,,,,,,61,88
6090,note_off,18,0,0,,,,,3,,,,,,,49,0
6090,note_off,0,0,0,,,,,4,,,,,,,37,0
6093,note_off,3,0,0,,,,,5,,,,,,,79,0
6093,note_off,0,0,0,,,,,6,,,,,,,61,0
6096,note_on,3,0,0,,,,,6,,,,,,,54,88
6108,note_on,12,0,0,,,,,5,,,,,,,73,88
6113,note_off,5,0,0,,,,,5,,,,,,,73,0
6114,note_on,1,0,0,,,,,5,,,,,,,71,88
6117,note_off,3,0,0,,,,,6,,,,,,,54,0
6119,note_off,2,0,0,,,,,5,,,,,,,71,0
6120,note_on,1,0,0,,,,,5,,,,,,,73,88
6120,note_on,0,0,0,,,,,6,,,,,,,54,88
6130,note_off,10,0,0,,,,,5,,,,,,,73,0
6132,note_on,2,0,0,,,,,5,,,,,,,76,88
6141,note_off,9,0,0,,,,,6,,,,,,,54,0
6142,note_off,1,0,0,,,,,5,,,,,,,76,0
6144,note_on,2,0,0,,,,,5,,,,,,,73,88
6144,note_on,0,0,0,,,,,6,,,,,,,54,88
6154,note_off,10,0,0,,,,,5,,,,,,,73,0
6154,note_off,0,0,0,,,,,6,,,,,,,54,0
6156,note_on,2,0,0,,,,,3,,,,,,,49,80
6156,note_on,0,0,0,,,,,4,,,,,,,37,80
6156,note_on,0,0,0,,,,,5,,,,,,,70,88
6156,note_on,0,0,0,,,,,6,,,,,,,61,88
6166,note_off,10,0,0,,,,,3,,,,,,,49,0
6166,note_off,0,0,0,,,,,4,,,,,,,37,0
6166,note_off,0,0,0,,,,,5,,,,,,,70,0
6166,note_off,0,0,0,,,,,6,,,,,,,61,0
6168,note_on,2,0,0,,,,,3,,,,,,,50,80
6168,note_on,0,0,0,,,,,4,,,,,,,38,80
6168,note_on,0,0,0,,,,,5,,,,,,,71,88
6168,note_on,0,0,0,,,,,6,,,,,,,62,88
6178,note_off,10,0,0,,,,,3,,,,,,,50,0
6178,note_off,0,0,0,,,,,4,,,,,,,38,0
6178,note_off,0,0,0,,,,,5,,,,,,,71,0
6178,note_off,0,0,0,,,,,6,,,,,,,62,0
6180,note_on,2,0,0,,,,,3,,,,,,,52,80
6180,note_on,0,0,0,,,,,4,,,,,,,40,80
6180,note_on,0,0,0,,,,,5,,,,,,,73,88
6180,note_on,0,0,0,,,,,6,,,,,,,64,88
6186,note_off,6,0,0,,,,,0,,,,,,,70,0
6186,note_off,0,0,0,,,,,1,,,,,,,64,0
6186,note_off,0,0,0,,,,,2,,,,,,,61,0
6190,note_off,4,0,0,,,,,3,,,,,,,52,0
6190,note_off,0,0,0,,,,,4,,,,,,,40,0
6190,note_off,0,0,0,,,,,5,,,,,,,73,0
6190,note_off,0,0,0,,,,,6,,,,,,,64,0
6192,note_on,2,0,0,,,,,0,,,,,,,71,80
6192,note_on,0,0,0,,,,,1,,,,,,,66,80
6192,note_on,0,0,0,,,,,2,,,,,,,59,80
6192,note_on,0,0,0,,,,,3,,,,,,,50,80
6192,note_on,0,0,0,,,,,4,,,,,,,38,80
6192,note_on,0,0,0,,,,,5,,,,,,,62,88
6192,note_on,0,0,0,,,,,6,,,,,,,62,88
6202,note_off,10,0,0,,,,,5,,,,,,,62,0
6202,note_off,0,0,0,,,,,6,,,,,,,62,0
6204,note_on,2,0,0,,,,,5,,,,,,,71,88
6204,note_on,0,0,0,,,,,6,,,,,,,61,88
6214,note_off,10,0,0,,,,,5,,,,,,,71,0
6214,note_off,0,0,0,,,,,6,,,,,,,61,0
6216,note_on,2,0,0,,,,,5,,,,,,,78,88
6216,note_on,0,0,0,,,,,6,,,,,,,62,88
6234,note_off,18,0,0,,,,,3,,,,,,,50,0
6234,note_off,0,0,0,,,,,4,,,,,,,38,0
6237,note_off,3,0,0,,,,,5,,,,,,,78,0
6237,note_off,0,0,0,,,,,6,,,,,,,62,0
6240,note_on,3,0,0,,,,,6,,,,,,,54,88
6252,note_on,12,0,0,,,,,5,,,,,,,71,88
6257,note_off,5,0,0,,,,,5,,,,,,,71,0
6258,note_off,1,0,0,,,,,0,,,,,,,71,0
6258,note_off,0,0,0,,,,,2,,,,,,,59,0
6258,note_on,0,0,0,,,,,5,,,,,,,70,88
6261,note_off,3,0,0,,,,,6,,,,,,,54,0
6263,note_off,2,0,0,,,,,5,,,,,,,70,0
6264,note_on,1,0,0,,,,,0,,,,,,,78,80
6264,note_on,0,0,0,,,,,2,,,,,,,62,80
6264,note_on,0,0,0,,,,,5,,,,,,,71,88
6264,note_on,0,0,0,,,,,6,,,,,,,54,88
6274,note_off,10,0,0,,,,,5,,,,,,,71,0
6276,note_on,2,0,0,,,,,5,,,,,,,74,88
6285,note_off,9,0,0,,,,,0,,,,,,,78,0
6285,note_off,0,0,0,,,,,2,,,,,,,62,0
6285,note_off,0,0,0,,,,,6,,,,,,,54,0
6286,note_off,1,0,0,,,,,5,,,,,,,74,0
6288,note_on,2,0,0,,,,,0,,,,,,,74,80
6288,note_on,0,0,0,,,,,2,,,,,,,62,80
6288,note_on,0,0,0,,,,,5,,,,,,,71,88
6288,note_on,0,0,0,,,,,6,,,,,,,54,88
6298,note_off,10,0,0,,,,,5,,,,,,,71,0
6298,note_off,0,0,0,,,,,6,,,,,,,54,0
6300,note_on,2,0,0,,,,,3,,,,,,,47,80
6300,note_on,0,0,0,,,,,4,,,,,,,35,80
6300,note_on,0,0,0,,,,,5,,,,,,,69,88
6300,note_on,0,0,0,,,,,6,,,,,,,59,88
6310,note_off,10,0,0,,,,,3,,,,,,,47,0
6310,note_off,0,0,0,,,,,4,,,,,,,35,0
6310,note_off,0,0,0,,,,,5,,,,,,,69,0
6310,note_off,0,0,0,,,,,6,,,,,,,59,0
6312,note_on,2,0,0,,,,,3,,,,,,,49,80
6312,note_on,0,0,0,,,,,4,,,,,,,37,80
6312,note_on,0,0,0,,,,,5,,,,,,,67,88
6312,note_on,0,0,0,,,,,6,,,,,,,61,88
6322,note_off,10,0,0,,,,,3,,,,,,,49,0
6322,note_off,0,0,0,,,,,4,,,,,,,37,0
6322,note_off,0,0,0,,,,,5,,,,,,,67,0
6322,note_off,0,0,0,,,,,6,,,,,,,61,0
6324,note_on,2,0,0,,,,,3,,,,,,,50,80
6324,note_on,0,0,0,,,,,4,,,,,,,38,80
6324,note_on,0,0,0,,,,,5,,,,,,,66,88
6324,note_on,0,0,0,,,,,6,,,,,,,62,88
6330,note_off,6,0,0,,,,,1,,,,,,,66,0
6330,note_off,0,0,0,,,,,2,,,,,,,62,0
6334,note_off,4,0,0,,,,,3,,,,,,,50,0
6334,note_off,0,0,0,,,,,4,,,,,,,38,0
6334,note_off,0,0,0,,,,,5,,,,,,,66,0
6334,note_off,0,0,0,,,,,6,,,,,,,62,0
6336,note_on,2,0,0,,,,,1,,,,,,,71,80
6336,note_on,0,0,0,,,,,2,,,,,,,64,80
6336,note_on,0,0,0,,,,,3,,,,,,,43,80
6336,note_on,0,0,0,,,,,4,,,,,,,31,80
6336,note_on,0,0,0,,,,,5,,,,,,,64,88
6336,note_on,0,0,0,,,,,6,,,,,,,55,88
6346,note_off,10,0,0,,,,,5,,,,,,,64,0
6346,note_off,0,0,0,,,,,6,,,,,,,55,0
6348,note_on,2,0,0,,,,,5,,,,,,,67,88
6348,note_on,0,0,0,,,,,6,,,,,,,54,88
6353,note_off,5,0,0,,,,,5,,,,,,,67,0
6354,note_on,1,0,0,,,,,5,,,,,,,69,88
6358,note_off,4,0,0,,,,,6,,,,,,,54,0
6359,note_off,1,0,0,,,,,5,,,,,,,69,0
6360,note_on,1,0,0,,,,,5,,,,,,,71,88
6360,note_on,0,0,0,,,,,6,,,,,,,55,88
6370,note_off,10,0,0,,,,,5,,,,,,,71,0
6372,note_on,2,0,0,,,,,5,,,,,,,73,88
6378,note_off,6,0,0,,,,,0,,,,,,,74,0
6378,note_off,0,0,0,,,,,1,,,,,,,71,0
6378,note_off,0,0,0,,,,,2,,,,,,,64,0
6378,note_off,0,0,0,,,,,3,,,,,,,43,0
6378,note_off,0,0,0,,,,,4,,,,,,,31,0
6381,note_off,3,0,0,,,,,6,,,,,,,55,0
6382,note_off,1,0,0,,,,,5,,,,,,,73,0
6384,note_on,2,0,0,,,,,5,,,,,,,74,88
6384,note_on,0,0,0,,,,,6,,,,,,,52,88
6394,note_off,10,0,0,,,,,5,,,,,,,74,0
6396,note_on,2,0,0,,,,,5,,,,,,,76,88
6405,note_off,9,0,0,,,,,6,,,,,,,52,0
6406,note_off,1,0,0,,,,,5,,,,,,,76,0
6408,note_on,2,0,0,,,,,0,,,,,,,73,80
6408,note_on,0,0,0,,,,,1,,,,,,,69,80
6408,note_on,0,0,0,,,,,2,,,,,,,64,80
6408,note_on,0,0,0,,,,,5,,,,,,,78,88
6408,note_on,0,0,0,,,,,6,,,,,,,52,88
6418,note_off,10,0,0,,,,,0,,,,,,,73,0
6418,note_off,0,0,0,,,,,1,,,,,,,69,0
6418,note_off,0,0,0,,,,,5,,,,,,,78,0
6420,note_on,2,0,0,,,,,0,,,,,,,71,80
6420,note_on,0,0,0,,,,,1,,,,,,,71,80
6420,note_on,0,0,0,,,,,5,,,,,,,79,88
6429,note_off,9,0,0,,,,,2,,,,,,,64,0
6429,note_off,0,0,0,,,,,6,,,,,,,52,0
6430,note_off,1,0,0,,,,,0,,,,,,,71,0
6430,note_off,0,0,0,,,,,1,,,,,,,71,0
6430,note_off,0,0,0,,,,,5,,,,,,,79,0
6432,note_on,2,0,0,,,,,0,,,,,,,73,80
6432,note_on,0,0,0,,,,,1,,,,,,,67,80
6432,note_on,0,0,0,,,,,2,,,,,,,64,80
6432,note_on,0,0,0,,,,,5,,,,,,,73,88
6432,note_on,0,0,0,,,,,6,,,,,,,52,88
6442,note_off,10,0,0,,,,,5,,,,,,,73,0
6442,note_off,0,0,0,,,,,6,,,,,,,52,0
6444,note_on,2,0,0,,,,,3,,,,,,,45,80
6444,note_on,0,0,0,,,,,4,,,,,,,33,80
6444,note_on,0,0,0,,,,,5,,,,,,,67,88
6444,note_on,0,0,0,,,,,6,,,,,,,57,88
6453,note_off,9,0,0,,,,,0,,,,,,,73,0
6453,note_off,0,0,0,,,,,1,,,,,,,67,0
6453,note_off,0,0,0,,,,,2,,,,,,,64,0
6454,note_off,1,0,0,,,,,3,,,,,,,45,0
6454,note_off,0,0,0,,,,,4,,,,,,,33,0
6454,note_off,0,0,0,,,,,5,,,,,,,67,0
6454,note_off,0,0,0,,,,,6,,,,,,,57,0
6456,note_on,2,0,0,,,,,0,,,,,,,73,80
6456,note_on,0,0,0,,,,,1,,,,,,,69,80
6456,note_on,0,0,0,,,,,2,,,,,,,57,80
6456,note_on,0,0,0,,,,,3,,,,,,,47,80
6456,note_on,0,0,0,,,,,4,,,,,,,35,80
6456,note_on,0,0,0,,,,,5,,,,,,,66,88
6456,note_on,0,0,0,,,,,6,,,,,,,59,88
6466,note_off,10,0,0,,,,,3,,,,,,,47,0
6466,note_off,0,0,0,,,,,4,,,,,,,35,0
6466,note_off,0,0,0,,,,,5,,,,,,,66,0
6466,note_off,0,0,0,,,,,6,,,,,,,59,0
6468,note_on,2,0,0,,,,,3,,,,,,,49,80
6468,note_on,0,0,0,,,,,4,,,,,,,37,80
6468,note_on,0,0,0,,,,,5,,,,,,,64,88
6468,note_on,0,0,0,,,,,6,,,,,,,61,88
6477,note_off,9,0,0,,,,,0,,,,,,,73,0
6477,note_off,0,0,0,,,,,1,,,,,,,69,0
6477,note_off,0,0,0,,,,,2,,,,,,,57,0
6478,note_off,1,0,0,,,,,3,,,,,,,49,0
6478,note_off,0,0,0,,,,,4,,,,,,,37,0
6478,note_off,0,0,0,,,,,5,,,,,,,64,0
6478,note_off,0,0,0,,,,,6,,,,,,,61,0
6480,note_on,2,0,0,,,,,0,,,,,,,73,80
6480,note_on,0,0,0,,,,,1,,,,,,,69,80
6480,note_on,0,0,0,,,,,2,,,,,,,62,80
6480,note_on,0,0,0,,,,,3,,,,,,,42,80
6480,note_on,0,0,0,,,,,4,,,,,,,30,80
6480,note_on,0,0,0,,,,,5,,,,,,,62,88
6480,note_on,0,0,0,,,,,6,,,,,,,54,88
6490,note_off,10,0,0,,,,,5,,,,,,,62,0
6490,note_off,0,0,0,,,,,6,,,,,,,54,0
6492,note_on,2,0,0,,,,,5,,,,,,,66,88
6492,note_on,0,0,0,,,,,6,,,,,,,52,88
6497,note_off,5,0,0,,,,,5,,,,,,,66,0
6498,note_on,1,0,0,,,,,5,,,,,,,67,88
6502,note_off,4,0,0,,,,,6,,,,,,,52,0
6503,note_off,1,0,0,,,,,5,,,,,,,67,0
6504,note_on,1,0,0,,,,,5,,,,,,,69,88
6504,note_on,0,0,0,,,,,6,,,,,,,54,88
6514,note_off,10,0,0,,,,,5,,,,,,,69,0
6516,note_on,2,0,0,,,,,5,,,,,,,71,88
6522,note_off,6,0,0,,,,,0,,,,,,,73,0
6522,note_off,0,0,0,,,,,1,,,,,,,69,0
6522,note_off,0,0,0,,,,,2,,,,,,,62,0
6522,note_off,0,0,0,,,,,3,,,,,,,42,0
6522,note_off,0,0,0,,,,,4,,,,,,,30,0
6525,note_off,3,0,0,,,,,6,,,,,,,54,0
6526,note_off,1,0,0,,,,,5,,,,,,,71,0
6528,note_on,2,0,0,,,,,5,,,,,,,73,88
6528,note_on,0,0,0,,,,,6,,,,,,,50,88
6538,note_off,10,0,0,,,,,5,,,,,,,73,0
6540,note_on,2,0,0,,,,,5,,,,,,,74,88
6549,note_off,9,0,0,,,,,6,,,,,,,50,0
6550,note_off,1,0,0,,,,,5,,,,,,,74,0
6552,note_on,2,0,0,,,,,0,,,,,,,71,80
6552,note_on,0,0,0,,,,,1,,,,,,,67,80
6552,note_on,0,0,0,,,,,2,,,,,,,62,80
6552,note_on,0,0,0,,,,,5,,,,,,,76,88
6552,note_on,0,0,0,,,,,6,,,,,,,50,88
6562,note_off,10,0,0,,,,,0,,,,,,,71,0
6562,note_off,0,0,0,,,,,1,,,,,,,67,0
6562,note_off,0,0,0,,,,,5,,,,,,,76,0
6564,note_on,2,0,0,,,,,0,,,,,,,70,80
6564,note_on,0,0,0,,,,,1,,,,,,,64,80
6564,note_on,0,0,0,,,,,5,,,,,,,78,88
6573,note_off,9,0,0,,,,,2,,,,,,,62,0
6573,note_off,0,0,0,,,,,6,,,,,,,50,0
6574,note_off,1,0,0,,,,,0,,,,,,,70,0
6574,note_off,0,0,0,,,,,1,,,,,,,64,0
6574,note_off,0,0,0,,,,,5,,,,,,,78,0
6576,note_on,2,0,0,,,,,0,,,,,,,71,80
6576,note_on,0,0,0,,,,,1,,,,,,,66,80
6576,note_on,0,0,0,,,,,2,,,,,,,62,80
6576,note_on,0,0,0,,,,,5,,,,,,,71,88
6576,note_on,0,0,0,,,,,6,,,,,,,50,88
6586,note_off,10,0,0,,,,,5,,,,,,,71,0
6586,note_off,0,0,0,,,,,6,,,,,,,50,0
6588,note_on,2,0,0,,,,,3,,,,,,,43,80
6588,note_on,0,0,0,,,,,4,,,,,,,31,80
6588,note_on,0,0,0,,,,,5,,,,,,,66,88
6588,note_on,0,0,0,,,,,6,,,,,,,55,88
6597,note_off,9,0,0,,,,,0,,,,,,,71,0
6597,note_off,0,0,0,,,,,1,,,,,,,66,0
6597,note_off,0,0,0,,,,,2,,,,,,,62,0
6598,note_off,1,0,0,,,,,3,,,,,,,43,0
6598,note_off,0,0,0,,,,,4,,,,,,,31,0
6598,note_off,0,0,0,,,,,5,,,,,,,66,0
6598,note_off,0,0,0,,,,,6,,,,,,,55,0
6600,note_on,2,0,0,,,,,0,,,,,,,71,80
6600,note_on,0,0,0,,,,,1,,,,,,,67,80
6600,note_on,0,0,0,,,,,2,,,,,,,55,80
6600,note_on,0,0,0,,,,,3,,,,,,,45,80
6600,note_on,0,0,0,,,,,4,,,,,,,33,80
6600,note_on,0,0,0,,,,,5,,,,,,,64,88
6600,note_on,0,0,0,,,,,6,,,,,,,57,88
6610,note_off,10,0,0,,,,,3,,,,,,,45,0
6610,note_off,0,0,0,,,,,4,,,,,,,33,0
6610,note_off,0,0,0,,,,,5,,,,,,,64,0
6610,note_off,0,0,0,,,,,6,,,,,,,57,0
6612,note_on,2,0,0,,,,,3,,,,,,,47,80
6612,note_on,0,0,0,,,,,4,,,,,,,35,80
6612,note_on,0,0,0,,,,,5,,,,,,,62,88
6612,note_on,0,0,0,,,,,6,,,,,,,59,88
6621,note_off,9,0,0,,,,,0,,,,,,,71,0
6621,note_off,0,0,0,,,,,1,,,,,,,67,0
6621,note_off,0,0,0,,,,,2,,,,,,,55,0
6622,note_off,1,0,0,,,,,3,,,,,,,47,0
6622,note_off,0,0,0,,,,,4,,,,,,,35,0
6622,note_off,0,0,0,,,,,5,,,,,,,62,0
6622,note_off,0,0,0,,,,,6,,,,,,,59,0
6624,note_on,2,0,0,,,,,0,,,,,,,71,80
6624,note_on,0,0,0,,,,,1,,,,,,,67,80
6624,note_on,0,0,0,,,,,2,,,,,,,61,80
6624,note_on,0,0,0,,,,,3,,,,,,,40,80
6624,note_on,0,0,0,,,,,4,,,,,,,28,80
6624,note_on,0,0,0,,,,,5,,,,,,,61,88
6624,note_on,0,0,0,,,,,6,,,,,,,52,88
6634,note_off,10,0,0,,,,,5,,,,,,,61,0
6634,note_off,0,0,0,,,,,6,,,,,,,52,0
6636,note_on,2,0,0,,,,,5,,,,,,,67,88
6636,note_on,0,0,0,,,,,6,,,,,,,50,88
6641,note_off,5,0,0,,,,,5,,,,,,,67,0
6642,note_on,1,0,0,,,,,5,,,,,,,66,88
6646,note_off,4,0,0,,,,,6,,,,,,,50,0
6647,note_off,1,0,0,,,,,5,,,,,,,66,0
6648,note_on,1,0,0,,,,,5,,,,,,,64,88
6648,note_on,0,0,0,,,,,6,,,,,,,52,88
6658,note_off,10,0,0,,,,,5,,,,,,,64,0
6660,note_on,2,0,0,,,,,5,,,,,,,71,88
6666,note_off,6,0,0,,,,,0,,,,,,,71,0
6666,note_off,0,0,0,,,,,1,,,,,,,67,0
6666,note_off,0,0,0,,,,,2,,,,,,,61,0
6666,note_off,0,0,0,,,,,3,,,,,,,40,0
6666,note_off,0,0,0,,,,,4,,,,,,,28,0
6669,note_off,3,0,0,,,,,6,,,,,,,52,0
6670,note_off,1,0,0,,,,,5,,,,,,,71,0
6672,note_on,2,0,0,,,,,5,,,,,,,70,88
6672,note_on,0,0,0,,,,,6,,,,,,,49,88
6682,note_off,10,0,0,,,,,5,,,,,,,70,0
6684,note_on,2,0,0,,,,,5,,,,,,,73,88
6689,note_off,5,0,0,,,,,5,,,,,,,73,0
6690,note_on,1,0,0,,,,,5,,,,,,,74,88
6693,note_off,3,0,0,,,,,6,,,,,,,49,0
6695,note_off,2,0,0,,,,,5,,,,,,,74,0
6696,note_on,1,0,0,,,,,0,,,,,,,70,80
6696,note_on,0,0,0,,,,,1,,,,,,,67,80
6696,note_on,0,0,0,,,,,2,,,,,,,61,80
6696,note_on,0,0,0,,,,,5,,,,,,,76,88
6696,note_on,0,0,0,,,,,6,,,,,,,49,88
6706,note_off,10,0,0,,,,,0,,,,,,,70,0
6706,note_off,0,0,0,,,,,1,,,,,,,67,0
6706,note_off,0,0,0,,,,,5,,,,,,,76,0
6708,note_on,2,0,0,,,,,0,,,,,,,68,80
6708,note_on,0,0,0,,,,,1,,,,,,,64,80
6708,note_on,0,0,0,,,,,5,,,,,,,79,88
6717,note_off,9,0,0,,,,,2,,,,,,,61,0
6717,note_off,0,0,0,,,,,6,,,,,,,49,0
6718,note_off,1,0,0,,,,,0,,,,,,,68,0
6718,note_off,0,0,0,,,,,1,,,,,,,64,0
6718,note_off,0,0,0,,,,,5,,,,,,,79,0
6720,note_on,2,0,0,,,,,0,,,,,,,70,80
6720,note_on,0,0,0,,,,,1,,,,,,,61,80
6720,note_on,0,0,0,,,,,2,,,,,,,61,80
6720,note_on,0,0,0,,,,,5,,,,,,,78,88
6720,note_on,0,0,0,,,,,6,,,,,,,49,88
6730,note_off,10,0,0,,,,,5,,,,,,,78,0
6730,note_off,0,0,0,,,,,6,,,,,,,49,0
6732,note_on,2,0,0,,,,,3,,,,,,,42,80
6732,note_on,0,0,0,,,,,4,,,,,,,30,80
6732,note_on,0,0,0,,,,,5,,,,,,,76,88
6732,note_on,0,0,0,,,,,6,,,,,,,54,88
6741,note_off,9,0,0,,,,,0,,,,,,,70,0
6741,note_off,0,0,0,,,,,1,,,,,,,61,0
6741,note_off,0,0,0,,,,,2,,,,,,,61,0
6742,note_off,1,0,0,,,,,3,,,,,,,42,0
6742,note_off,0,0,0,,,,,4,,,,,,,30,0
6742,note_off,0,0,0,,,,,5,,,,,,,76,0
6742,note_off,0,0,0,,,,,6,,,,,,,54,0
6744,note_on,2,0,0,,,,,0,,,,,,,70,80
6744,note_on,0,0,0,,,,,1,,,,,,,66,80
6744,note_on,0,0,0,,,,,2,,,,,,,61,80
6744,note_on,0,0,0,,,,,3,,,,,,,44,80
6744,note_on,0,0,0,,,,,4,,,,,,,32,80
6744,note_on,0,0,0,,,,,5,,,,,,,74,88
6744,note_on,0,0,0,,,,,6,,,,,,,56,88
6749,note_off,5,0,0,,,,,5,,,,,,,74,0
6750,note_on,1,0,0,,,,,5,,,,,,,76,88
6754,note_off,4,0,0,,,,,3,,,,,,,44,0
6754,note_off,0,0,0,,,,,4,,,,,,,32,0
6754,note_off,0,0,0,,,,,6,,,,,,,56,0
6755,note_off,1,0,0,,,,,5,,,,,,,76,0
6756,note_on,1,0,0,,,,,3,,,,,,,46,80
6756,note_on,0,0,0,,,,,4,,,,,,,34,80
6756,note_on,0,0,0,,,,,5,,,,,,,73,88
6756,note_on,0,0,0,,,,,6,,,,,,,58,88
6765,note_off,9,0,0,,,,,0,,,,,,,70,0
6765,note_off,0,0,0,,,,,1,,,,,,,66,0
6765,note_off,0,0,0,,,,,2,,,,,,,61,0
6766,note_off,1,0,0,,,,,3,,,,,,,46,0
6766,note_off,0,0,0,,,,,4,,,,,,,34,0
6766,note_off,0,0,0,,,,,5,,,,,,,73,0
6766,note_off,0,0,0,,,,,6,,,,,,,58,0
6768,note_on,2,0,0,,,,,0,,,,,,,71,80
6768,note_on,0,0,0,,,,,1,,,,,,,59,80
6768,note_on,0,0,0,,,,,2,,,,,,,62,80
6768,note_on,0,0,0,,,,,3,,,,,,,38,80
6768,note_on,0,0,0,,,,,4,,,,,,,26,80
6768,note_on,0,0,0,,,,,5,,,,,,,78,88
6768,note_on,0,0,0,,,,,6,,,,,,,50,88
6778,note_off,10,0,0,,,,,5,,,,,,,78,0
6778,note_off,0,0,0,,,,,6,,,,,,,50,0
6780,note_on,2,0,0,,,,,5,,,,,,,74,88
6780,note_on,0,0,0,,,,,6,,,,,,,49,88
6790,note_off,10,0,0,,,,,5,,,,,,,74,0
6790,note_off,0,0,0,,,,,6,,,,,,,49,0
6792,note_on,2,0,0,,,,,5,,,,,,,73,88
6792,note_on,0,0,0,,,,,6,,,,,,,50,88
6795,note_off,3,0,0,,,,,5,,,,,,,73,0
6795,note_on,0,0,0,,,,,5,,,,,,,71,88
6798,note_off,3,0,0,,,,,5,,,,,,,71,0
6798,note_on,0,0,0,,,,,5,,,,,,,73,88
6801,note_off,3,0,0,,,,,5,,,,,,,73,0
6801,note_on,0,0,0,,,,,5,,,,,,,71,88
6804,note_off,3,0,0,,,,,5,,,,,,,71,0
6804,note_on,0,0,0,,,,,5,,,,,,,73,88
6807,note_off,3,0,0,,,,,5,,,,,,,73,0
6807,note_on,0,0,0,,,,,5,,,,,,,71,88
6810,note_off,3,0,0,,,,,0,,,,,,,71,0
6810,note_off,0,0,0,,,,,1,,,,,,,59,0
6810,note_off,0,0,0,,,,,2,,,,,,,62,0
6810,note_off,0,0,0,,,,,3,,,,,,,38,0
6810,note_off,0,0,0,,,,,4,,,,,,,26,0
6810,note_off,0,0,0,,,,,5,,,,,,,71,0
6810,note_on,0,0,0,,,,,5,,,,,,,73,88
6813,note_off,3,0,0,,,,,5,,,,,,,73,0
6813,note_on,0,0,0,,,,,5,,,,,,,71,88
6813,note_off,0,0,0,,,,,6,,,,,,,50,0
6816,note_on,3,0,0,,,,,0,,,,,,,69,80
6816,note_on,0,0,0,,,,,1,,,,,,,66,80
6816,note_on,0,0,0,,,,,2,,,,,,,63,80
6816,note_on,0,0,0,,,,,6,,,,,,,47,88
6821,note_off,5,0,0,,,,,5,,,,,,,71,0
6822,note_on,1,0,0,,,,,5,,,,,,,69,88
6837,note_off,15,0,0,,,,,0,,,,,,,69,0
6837,note_off,0,0,0,,,,,1,,,,,,,66,0
6837,note_off,0,0,0,,,,,2,,,,,,,63,0
6837,note_off,0,0,0,,,,,6,,,,,,,47,0
6838,note_off,1,0,0,,,,,5,,,,,,,69,0
6840,note_on,2,0,0,,,,,0,,,,,,,67,80
6840,note_on,0,0,0,,,,,1,,,,,,,67,80
6840,note_on,0,0,0,,,,,2,,,,,,,64,80
6840,note_on,0,0,0,,,,,5,,,,,,,72,88
6840,note_on,0,0,0,,,,,6,,,,,,,47,88
6846,note_off,6,0,0,,,,,5,,,,,,,72,0
6846,note_on,0,0,0,,,,,5,,,,,,,71,88
6861,note_off,15,0,0,,,,,0,,,,,,,67,0
6861,note_off,0,0,0,,,,,1,,,,,,,67,0
6861,note_off,0,0,0,,,,,2,,,,,,,64,0
6861,note_off,0,0,0,,,,,6,,,,,,,47,0
6862,note_off,1,0,0,,,,,5,,,,,,,71,0
6864,note_on,2,0,0,,,,,0,,,,,,,66,80
6864,note_on,0,0,0,,,,,1,,,,,,,69,80
6864,note_on,0,0,0,,,,,2,,,,,,,66,80
6864,note_on,0,0,0,,,,,5,,,,,,,76,88
6864,note_on,0,0,0,,,,,6,,,,,,,47,88
6870,note_off,6,0,0,,,,,5,,,,,,,76,0
6870,note_on,0,0,0,,,,,5,,,,,,,75,88
6874,note_off,4,0,0,,,,,6,,,,,,,47,0
6876,note_on,2,0,0,,,,,6,,,,,,,59,88
6885,note_off,9,0,0,,,,,0,,,,,,,66,0
6885,note_off,0,0,0,,,,,1,,,,,,,69,0
6885,note_off,0,0,0,,,,,2,,,,,,,66,0
6886,note_off,1,0,0,,,,,5,,,,,,,75,0
6886,note_off,0,0,0,,,,,6,,,,,,,59,0
6888,note_on,2,0,0,,,,,0,,,,,,,75,80
6888,note_on,0,0,0,,,,,1,,,,,,,72,80
6888,note_on,0,0,0,,,,,2,,,,,,,66,80
6888,note_on,0,0,0,,,,,3,,,,,,,57,80
6888,note_on,0,0,0,,,,,4,,,,,,,45,80
6888,note_on,0,0,0,,,,,5,,,,,,,78,88
6888,note_on,0,0,0,,,,,6,,,,,,,59,88
6894,note_off,6,0,0,,,,,5,,,,,,,78,0
6894,note_on,0,0,0,,,,,5,,,,,,,76,88
6898,note_off,4,0,0,,,,,6,,,,,,,59,0
6900,note_on,2,0,0,,,,,6,,,,,,,55,88
6909,note_off,9,0,0,,,,,0,,,,,,,75,0
6909,note_off,0,0,0,,,,,1,,,,,,,72,0
6909,note_off,0,0,0,,,,,2,,,,,,,66,0
6909,note_off,0,0,0,,,,,3,,,,,,,57,0
6909,note_off,0,0,0,,,,,4,,,,,,,45,0
6910,note_off,1,0,0,,,,,5,,,,,,,76,0
6910,note_off,0,0,0,,,,,6,,,,,,,55,0
6912,note_on,2,0,0,,,,,0,,,,,,,76,80
6912,note_on,0,0,0,,,,,1,,,,,,,71,80
6912,note_on,0,0,0,,,,,2,,,,,,,67,80
6912,note_on,0,0,0,,,,,3,,,,,,,55,80
6912,note_on,0,0,0,,,,,4,,,,,,,43,80
6912,note_on,0,0,0,,,,,5,,,,,,,76,88
6912,note_on,0,0,0,,,,,6,,,,,,,55,88
6922,note_off,10,0,0,,,,,0,,,,,,,76,0
6922,note_off,0,0,0,,,,,6,,,,,,,55,0
6924,note_on,2,0,0,,,,,0,,,,,,,79,80
6924,note_on,0,0,0,,,,,6,,,,,,,52,88
6933,note_off,9,0,0,,,,,3,,,,,,,55,0
6933,note_off,0,0,0,,,,,4,,,,,,,43,0
6934,note_off,1,0,0,,,,,0,,,,,,,79,0
6934,note_off,0,0,0,,,,,6,,,,,,,52,0
6936,note_on,2,0,0,,,,,0,,,,,,,79,80
6936,note_on,0,0,0,,,,,3,,,,,,,52,80
6936,note_on,0,0,0,,,,,4,,,,,,,40,80
6936,note_on,0,0,0,,,,,6,,,,,,,52,88
6946,note_off,10,0,0,,,,,0,,,,,,,79,0
6946,note_off,0,0,0,,,,,6,,,,,,,52,0
6948,note_on,2,0,0,,,,,0,,,,,,,76,80
6948,note_on,0,0,0,,,,,6,,,,,,,48,88
6954,note_off,6,0,0,,,,,1,,,,,,,71,0
6954,note_off,0,0,0,,,,,2,,,,,,,67,0
6957,note_off,3,0,0,,,,,3,,,,,,,52,0
6957,note_off,0,0,0,,,,,4,,,,,,,40,0
6958,note_off,1,0,0,,,,,0,,,,,,,76,0
6958,note_off,0,0,0,,,,,6,,,,,,,48,0
6960,note_on,2,0,0,,,,,0,,,,,,,76,80
6960,note_on,0,0,0,,,,,3,,,,,,,48,80
6960,note_on,0,0,0,,,,,4,,,,,,,36,80
6960,note_off,0,0,0,,,,,5,,,,,,,76,0
6960,note_on,0,0,0,,,,,6,,,,,,,48,88
6966,note_on,6,0,0,,,,,5,,,,,,,75,88
6970,note_off,4,0,0,,,,,6,,,,,,,48,0
6972,note_on,2,0,0,,,,,6,,,,,,,47,88
6981,note_off,9,0,0,,,,,3,,,,,,,48,0
6981,note_off,0,0,0,,,,,4,,,,,,,36,0
6982,note_off,1,0,0,,,,,5,,,,,,,75,0
6982,note_off,0,0,0,,,,,6,,,,,,,47,0
6984,note_on,2,0,0,,,,,1,,,,,,,76,80
6984,note_on,0,0,0,,,,,2,,,,,,,61,80
6984,note_on,0,0,0,,,,,3,,,,,,,46,80
6984,note_on,0,0,0,,,,,4,,,,,,,34,80
6984,note_on,0,0,0,,,,,5,,,,,,,79,88
6984,note_on,0,0,0,,,,,6,,,,,,,46,88
6990,note_off,6,0,0,,,,,5,,,,,,,79,0
6990,note_on,0,0,0,,,,,5,,,,,,,78,88
6994,note_off,4,0,0,,,,,2,,,,,,,61,0
6994,note_off,0,0,0,,,,,6,,,,,,,46,0
6996,note_off,2,0,0,,,,,1,,,,,,,76,0
6996,note_on,0,0,0,,,,,1,,,,,,,74,80
6996,note_on,0,0,0,,,,,2,,,,,,,62,80
6996,note_on,0,0,0,,,,,6,,,,,,,47,88
7005,note_off,9,0,0,,,,,3,,,,,,,46,0
7005,note_off,0,0,0,,,,,4,,,,,,,34,0
7006,note_off,1,0,0,,,,,1,,,,,,,74,0
7006,note_off,0,0,0,,,,,2,,,,,,,62,0
7006,note_off,0,0,0,,,,,5,,,,,,,78,0
7006,note_off,0,0,0,,,,,6,,,,,,,47,0
7008,note_on,2,0,0,,,,,1,,,,,,,73,80
7008,note_on,0,0,0,,,,,2,,,,,,,64,80
7008,note_on,0,0,0,,,,,3,,,,,,,40,80
7008,note_on,0,0,0,,,,,4,,,,,,,28,80
7008,note_on,0,0,0,,,,,5,,,,,,,81,88
7008,note_on,0,0,0,,,,,6,,,,,,,40,88
7014,note_off,6,0,0,,,,,0,,,,,,,76,0
7014,note_off,0,0,0,,,,,5,,,,,,,81,0
7014,note_on,0,0,0,,,,,5,,,,,,,80,88
7020,note_on,6,0,0,,,,,0,,,,,,,76,80
7020,note_off,0,0,0,,,,,1,,,,,,,73,0
7020,note_on,0,0,0,,,,,1,,,,,,,71,80
7029,note_off,9,0,0,,,,,2,,,,,,,64,0
7030,note_off,1,0,0,,,,,0,,,,,,,76,0
7030,note_off,0,0,0,,,,,1,,,,,,,71,0
7030,note_off,0,0,0,,,,,5,,,,,,,80,0
7032,note_on,2,0,0,,,,,0,,,,,,,78,80
7032,note_on,0,0,0,,,,,1,,,,,,,74,80
7032,note_on,0,0,0,,,,,2,,,,,,,59,80
7032,note_on,0,0,0,,,,,5,,,,,,,83,88
7038,note_off,6,0,0,,,,,5,,,,,,,83,0
7038,note_on,0,0,0,,,,,5,,,,,,,82,88
7042,note_off,4,0,0,,,,,0,,,,,,,78,0
7044,note_on,2,0,0,,,,,0,,,,,,,79,80
7044,note_off,0,0,0,,,,,1,,,,,,,74,0
7044,note_on,0,0,0,,,,,1,,,,,,,73,80
7053,note_off,9,0,0,,,,,2,,,,,,,59,0
7054,note_off,1,0,0,,,,,0,,,,,,,79,0
7054,note_off,0,0,0,,,,,1,,,,,,,73,0
7054,note_off,0,0,0,,,,,5,,,,,,,82,0
7056,note_on,2,0,0,,,,,0,,,,,,,73,80
7056,note_on,0,0,0,,,,,1,,,,,,,78,80
7056,note_on,0,0,0,,,,,2,,,,,,,54,80
7056,note_on,0,0,0,,,,,5,,,,,,,82,88
7066,note_off,10,0,0,,,,,5,,,,,,,82,0
7068,note_on,2,0,0,,,,,5,,,,,,,76,88
7073,note_off,5,0,0,,,,,5,,,,,,,76,0
7074,note_on,1,0,0,,,,,5,,,,,,,78,88
7077,note_off,3,0,0,,,,,1,,,,,,,78,0
7077,note_off,0,0,0,,,,,2,,,,,,,54,0
7079,note_off,2,0,0,,,,,5,,,,,,,78,0
7080,note_on,1,0,0,,,,,1,,,,,,,76,80
7080,note_on,0,0,0,,,,,2,,,,,,,58,80
7080,note_on,0,0,0,,,,,5,,,,,,,79,88
7086,note_off,6,0,0,,,,,3,,,,,,,40,0
7086,note_off,0,0,0,,,,,4,,,,,,,28,0
7086,note_off,0,0,0,,,,,6,,,,,,,40,0
7087,note_off,1,0,0,,,,,0,,,,,,,73,0
7092,note_on,5,0,0,,,,,0,,,,,,,70,80
7092,note_on,0,0,0,,,,,3,,,,,,,52,80
7092,note_on,0,0,0,,,,,4,,,,,,,40,80
7092,note_on,0,0,0,,,,,6,,,,,,,52,88
7098,note_off,6,0,0,,,,,0,,,,,,,70,0
7098,note_on,0,0,0,,,,,0,,,,,,,71,80
7101,note_off,3,0,0,,,,,1,,,,,,,76,0
7101,note_off,0,0,0,,,,,2,,,,,,,58,0
7102,note_off,1,0,0,,,,,3,,,,,,,52,0
7102,note_off,0,0,0,,,,,4,,,,,,,40,0
7102,note_off,0,0,0,,,,,6,,,,,,,52,0
7104,note_off,2,0,0,,,,,0,,,,,,,71,0
7104,note_on,0,0,0,,,,,0,,,,,,,73,80
7104,note_on,0,0,0,,,,,3,,,,,,,46,80
7104,note_on,0,0,0,,,,,4,,,,,,,34,80
7104,note_on,0,0,0,,,,,6,,,,,,,46,88
7111,note_off,7,0,0,,,,,5,,,,,,,79,0
7116,note_on,5,0,0,,,,,5,,,,,,,78,88
7121,note_off,5,0,0,,,,,5,,,,,,,78,0
7122,note_on,1,0,0,,,,,5,,,,,,,76,88
7125,note_off,3,0,0,,,,,0,,,,,,,73,0
7125,note_off,0,0,0,,,,,3,,,,,,,46,0
7125,note_off,0,0,0,,,,,4,,,,,,,34,0
7125,note_off,0,0,0,,,,,6,,,,,,,46,0
7127,note_off,2,0,0,,,,,5,,,,,,,76,0
7128,note_on,1,0,0,,,,,0,,,,,,,74,80
7128,note_on,0,0,0,,,,,1,,,,,,,66,80
7128,note_on,0,0,0,,,,,2,,,,,,,59,80
7128,note_on,0,0,0,,,,,3,,,,,,,47,80
7128,note_on,0,0,0,,,,,4,,,,,,,35,80
7128,note_on,0,0,0,,,,,5,,,,,,,78,88
7128,note_on,0,0,0,,,,,6,,,,,,,47,88
7138,note_off,10,0,0,,,,,0,,,,,,,74,0
7138,note_off,0,0,0,,,,,1,,,,,,,66,0
7138,note_off,0,0,0,,,,,5,,,,,,,78,0
7140,note_on,2,0,0,,,,,0,,,,,,,71,80
7140,note_on,0,0,0,,,,,1,,,,,,,64,80
7140,note_on,0,0,0,,,,,5,,,,,,,79,88
7149,note_off,9,0,0,,,,,2,,,,,,,59,0
7149,note_off,0,0,0,,,,,3,,,,,,,47,0
7149,note_off,0,0,0,,,,,4,,,,,,,35,0
7149,note_off,0,0,0,,,,,6,,,,,,,47,0
7150,note_off,1,0,0,,,,,0,,,,,,,71,0
7150,note_off,0,0,0,,,,,1,,,,,,,64,0
7150,note_off,0,0,0,,,,,5,,,,,,,79,0
7152,note_on,2,0,0,,,,,0,,,,,,,70,80
7152,note_on,0,0,0,,,,,1,,,,,,,66,80
7152,note_on,0,0,0,,,,,2,,,,,,,61,80
7152,note_on,0,0,0,,,,,3,,,,,,,54,80
7152,note_on,0,0,0,,,,,4,,,,,,,42,80
7152,note_on,0,0,0,,,,,5,,,,,,,73,88
7152,note_on,0,0,0,,,,,6,,,,,,,54,88
7173,note_off,21,0,0,,,,,1,,,,,,,66,0
7173,note_off,0,0,0,,,,,2,,,,,,,61,0
7173,note_off,0,0,0,,,,,3,,,,,,,54,0
7173,note_off,0,0,0,,,,,4,,,,,,,42,0
7173,note_off,0,0,0,,,,,6,,,,,,,54,0
7176,note_on,3,0,0,,,,,1,,,,,,,66,80
7176,note_on,0,0,0,,,,,2,,,,,,,54,80
7176,note_on,0,0,0,,,,,3,,,,,,,42,80
7176,note_on,0,0,0,,,,,4,,,,,,,30,80
7176,note_on,0,0,0,,,,,6,,,,,,,42,88
7183,note_off,7,0,0,,,,,0,,,,,,,70,0
7183,note_off,0,0,0,,,,,5,,,,,,,73,0
7188,note_on,5,0,0,,,,,0,,,,,,,71,80
7188,note_on,0,0,0,,,,,5,,,,,,,71,88
7197,note_off,9,0,0,,,,,1,,,,,,,66,0
7197,note_off,0,0,0,,,,,2,,,,,,,54,0
7197,note_off,0,0,0,,,,,3,,,,,,,42,0
7197,note_off,0,0,0,,,,,4,,,,,,,30,0
7197,note_off,0,0,0,,,,,6,,,,,,,42,0
7198,note_off,1,0,0,,,,,0,,,,,,,71,0
7198,note_off,0,0,0,,,,,5,,,,,,,71,0
7200,note_on,2,0,0,,,,,0,,,,,,,66,80
7200,note_on,0,0,0,,,,,1,,,,,,,62,80
7200,note_on,0,0,0,,,,,2,,,,,,,54,80
7200,note_on,0,0,0,,,,,3,,,,,,,59,80
7200,note_on,0,0,0,,,,,4,,,,,,,47,80
7200,note_on,0,0,0,,,,,5,,,,,,,71,88
7200,note_on,0,0,0,,,,,6,,,,,,,59,88
7210,note_off,10,0,0,,,,,3,,,,,,,59,0
7210,note_off,0,0,0,,,,,4,,,,,,,47,0
7210,note_off,0,0,0,,,,,6,,,,,,,59,0
7212,note_on,2,0,0,,,,,3,,,,,,,58,80
7212,note_on,0,0,0,,,,,4,,,,,,,46,80
7212,note_on,0,0,0,,,,,6,,,,,,,58,88
7222,note_off,10,0,0,,,,,3,,,,,,,58,0
7222,note_off,0,0,0,,,,,4,,,,,,,46,0
7222,note_off,0,0,0,,,,,6,,,,,,,58,0
7224,note_on,2,0,0,,,,,3,,,,,,,59,80
7224,note_on,0,0,0,,,,,4,,,,,,,47,80
7224,note_on,0,0,0,,,,,6,,,,,,,59,88
7242,note_off,18,0,0,,,,,2,,,,,,,54,0
7245,note_off,3,0,0,,,,,3,,,,,,,59,0
7245,note_off,0,0,0,,,,,4,,,,,,,47,0
7245,note_off,0,0,0,,,,,6,,,,,,,59,0
7248,note_on,3,0,0,,,,,2,,,,,,,59,80
7248,note_on,0,0,0,,,,,3,,,,,,,54,80
7248,note_on,0,0,0,,,,,4,,,,,,,42,80
7248,note_on,0,0,0,,,,,6,,,,,,,54,88
7269,note_off,21,0,0,,,,,3,,,,,,,54,0
7269,note_off,0,0,0,,,,,4,,,,,,,42,0
7269,note_off,0,0,0,,,,,6,,,,,,,54,0
7272,note_on,3,0,0,,,,,3,,,,,,,54,80
7272,note_on,0,0,0,,,,,4,,,,,,,42,80
7272,note_on,0,0,0,,,,,6,,,,,,,54,88
7293,note_off,21,0,0,,,,,3,,,,,,,54,0
7293,note_off,0,0,0,,,,,4,,,,,,,42,0
7293,note_off,0,0,0,,,,,6,,,,,,,54,0
7296,note_on,3,0,0,,,,,3,,,,,,,54,80
7296,note_on,0,0,0,,,,,4,,,,,,,42,80
7296,note_off,0,0,0,,,,,5,,,,,,,71,0
7296,note_on,0,0,0,,,,,6,,,,,,,54,88
7306,note_off,10,0,0,,,,,3,,,,,,,54,0
7306,note_off,0,0,0,,,,,4,,,,,,,42,0
7306,note_off,0,0,0,,,,,6,,,,,,,54,0
7308,note_on,2,0,0,,,,,3,,,,,,,59,80
7308,note_on,0,0,0,,,,,4,,,,,,,47,80
7308,note_on,0,0,0,,,,,6,,,,,,,59,88
7318,note_off,10,0,0,,,,,3,,,,,,,59,0
7318,note_off,0,0,0,,,,,4,,,,,,,47,0
7318,note_off,0,0,0,,,,,6,,,,,,,59,0
7320,note_on,2,0,0,,,,,3,,,,,,,61,80
7320,note_on,0,0,0,,,,,4,,,,,,,49,80
7320,note_on,0,0,0,,,,,6,,,,,,,61,88
7330,note_off,10,0,0,,,,,3,,,,,,,61,0
7330,note_off,0,0,0,,,,,4,,,,,,,49,0
7330,note_off,0,0,0,,,,,6,,,,,,,61,0
7332,note_on,2,0,0,,,,,3,,,,,,,62,80
7332,note_on,0,0,0,,,,,4,,,,,,,50,80
7332,note_on,0,0,0,,,,,6,,,,,,,62,88
7338,note_off,6,0,0,,,,,1,,,,,,,62,0
7338,note_off,0,0,0,,,,,2,,,,,,,59,0
7342,note_off,4,0,0,,,,,3,,,,,,,62,0
7342,note_off,0,0,0,,,,,4,,,,,,,50,0
7342,note_off,0,0,0,,,,,6,,,,,,,62,0
7344,note_on,2,0,0,,,,,1,,,,,,,64,80
7344,note_on,0,0,0,,,,,2,,,,,,,58,80
7344,note_on,0,0,0,,,,,3,,,,,,,61,80
7344,note_on,0,0,0,,,,,4,,,,,,,49,80
7344,note_on,0,0,0,,,,,6,,,,,,,61,88
7354,note_off,10,0,0,,,,,3,,,,,,,61,0
7354,note_off,0,0,0,,,,,4,,,,,,,49,0
7354,note_off,0,0,0,,,,,6,,,,,,,61,0
7356,note_on,2,0,0,,,,,3,,,,,,,59,80
7356,note_on,0,0,0,,,,,4,,,,,,,47,80
7356,note_on,0,0,0,,,,,6,,,,,,,59,88
7366,note_off,10,0,0,,,,,3,,,,,,,59,0
7366,note_off,0,0,0,,,,,4,,,,,,,47,0
7366,note_off,0,0,0,,,,,6,,,,,,,59,0
7368,note_on,2,0,0,,,,,3,,,,,,,61,80
7368,note_on,0,0,0,,,,,4,,,,,,,49,80
7368,note_on,0,0,0,,,,,6,,,,,,,61,88
7386,note_off,18,0,0,,,,,1,,,,,,,64,0
7389,note_off,3,0,0,,,,,3,,,,,,,61,0
7389,note_off,0,0,0,,,,,4,,,,,,,49,0
7389,note_off,0,0,0,,,,,6,,,,,,,61,0
7392,note_on,3,0,0,,,,,1,,,,,,,61,80
7392,note_on,0,0,0,,,,,3,,,,,,,54,80
7392,note_on,0,0,0,,,,,4,,,,,,,42,80
7392,note_on,0,0,0,,,,,6,,,,,,,54,88
7413,note_off,21,0,0,,,,,3,,,,,,,54,0
7413,note_off,0,0,0,,,,,4,,,,,,,42,0
7413,note_off,0,0,0,,,,,6,,,,,,,54,0
7416,note_on,3,0,0,,,,,3,,,,,,,54,80
7416,note_on,0,0,0,,,,,4,,,,,,,42,80
7416,note_on,0,0,0,,,,,6,,,,,,,54,88
7437,note_off,21,0,0,,,,,3,,,,,,,54,0
7437,note_off,0,0,0,,,,,4,,,,,,,42,0
7437,note_off,0,0,0,,,,,6,,,,,,,54,0
7440,note_on,3,0,0,,,,,3,,,,,,,54,80
7440,note_on,0,0,0,,,,,4,,,,,,,42,80
7440,note_on,0,0,0,,,,,6,,,,,,,54,88
7450,note_off,10,0,0,,,,,3,,,,,,,54,0
7450,note_off,0,0,0,,,,,4,,,,,,,42,0
7450,note_off,0,0,0,,,,,6,,,,,,,54,0
7452,note_on,2,0,0,,,,,3,,,,,,,61,80
7452,note_on,0,0,0,,,,,4,,,,,,,49,80
7452,note_on,0,0,0,,,,,6,,,,,,,61,88
7462,note_off,10,0,0,,,,,3,,,,,,,61,0
7462,note_off,0,0,0,,,,,4,,,,,,,49,0
7462,note_off,0,0,0,,,,,6,,,,,,,61,0
7464,note_on,2,0,0,,,,,3,,,,,,,62,80
7464,note_on,0,0,0,,,,,4,,,,,,,50,80
7464,note_on,0,0,0,,,,,6,,,,,,,62,88
7474,note_off,10,0,0,,,,,3,,,,,,,62,0
7474,note_off,0,0,0,,,,,4,,,,,,,50,0
7474,note_off,0,0,0,,,,,6,,,,,,,62,0
7476,note_on,2,0,0,,,,,3,,,,,,,64,80
7476,note_on,0,0,0,,,,,4,,,,,,,52,80
7476,note_on,0,0,0,,,,,6,,,,,,,64,88
7482,note_off,6,0,0,,,,,1,,,,,,,61,0
7482,note_off,0,0,0,,,,,2,,,,,,,58,0
7486,note_off,4,0,0,,,,,3,,,,,,,64,0
7486,note_off,0,0,0,,,,,4,,,,,,,52,0
7486,note_off,0,0,0,,,,,6,,,,,,,64,0
7488,note_on,2,0,0,,,,,1,,,,,,,62,80
7488,note_on,0,0,0,,,,,2,,,,,,,59,80
7488,note_on,0,0,0,,,,,3,,,,,,,62,80
7488,note_on,0,0,0,,,,,4,,,,,,,50,80
7488,note_on,0,0,0,,,,,6,,,,,,,62,88
7498,note_off,10,0,0,,,,,3,,,,,,,62,0
7498,note_off,0,0,0,,,,,4,,,,,,,50,0
7498,note_off,0,0,0,,,,,6,,,,,,,62,0
7500,note_on,2,0,0,,,,,3,,,,,,,61,80
7500,note_on,0,0,0,,,,,4,,,,,,,49,80
7500,note_on,0,0,0,,,,,6,,,,,,,61,88
7510,note_off,10,0,0,,,,,3,,,,,,,61,0
7510,note_off,0,0,0,,,,,4,,,,,,,49,0
7510,note_off,0,0,0,,,,,6,,,,,,,61,0
7512,note_on,2,0,0,,,,,3,,,,,,,62,80
7512,note_on,0,0,0,,,,,4,,,,,,,50,80
7512,note_on,0,0,0,,,,,6,,,,,,,62,88
7533,note_off,21,0,0,,,,,3,,,,,,,62,0
7533,note_off,0,0,0,,,,,4,,,,,,,50,0
7533,note_off,0,0,0,,,,,6,,,,,,,62,0
7536,note_on,3,0,0,,,,,3,,,,,,,54,80
7536,note_on,0,0,0,,,,,4,,,,,,,42,80
7536,note_on,0,0,0,,,,,6,,,,,,,54,88
7557,note_off,21,0,0,,,,,3,,,,,,,54,0
7557,note_off,0,0,0,,,,,4,,,,,,,42,0
7557,note_off,0,0,0,,,,,6,,,,,,,54,0
7560,note_on,3,0,0,,,,,3,,,,,,,54,80
7560,note_on,0,0,0,,,,,4,,,,,,,42,80
7560,note_on,0,0,0,,,,,6,,,,,,,54,88
7581,note_off,21,0,0,,,,,3,,,,,,,54,0
7581,note_off,0,0,0,,,,,4,,,,,,,42,0
7581,note_off,0,0,0,,,,,6,,,,,,,54,0
7584,note_on,3,0,0,,,,,3,,,,,,,54,80
7584,note_on,0,0,0,,,,,4,,,,,,,42,80
7584,note_on,0,0,0,,,,,6,,,,,,,54,88
7594,note_off,10,0,0,,,,,3,,,,,,,54,0
7594,note_off,0,0,0,,,,,4,,,,,,,42,0
7594,note_off,0,0,0,,,,,6,,,,,,,54,0
7596,note_on,2,0,0,,,,,3,,,,,,,59,80
7596,note_on,0,0,0,,,,,4,,,,,,,47,80
7596,note_on,0,0,0,,,,,6,,,,,,,59,88
7606,note_off,10,0,0,,,,,3,,,,,,,59,0
7606,note_off,0,0,0,,,,,4,,,,,,,47,0
7606,note_off,0,0,0,,,,,6,,,,,,,59,0
7608,note_on,2,0,0,,,,,3,,,,,,,61,80
7608,note_on,0,0,0,,,,,4,,,,,,,49,80
7608,note_on,0,0,0,,,,,6,,,,,,,61,88
7618,note_off,10,0,0,,,,,3,,,,,,,61,0
7618,note_off,0,0,0,,,,,4,,,,,,,49,0
7618,note_off,0,0,0,,,,,6,,,,,,,61,0
7620,note_on,2,0,0,,,,,3,,,,,,,62,80
7620,note_on,0,0,0,,,,,4,,,,,,,50,80
7620,note_on,0,0,0,,,,,6,,,,,,,62,88
7626,note_off,6,0,0,,,,,0,,,,,,,66,0
7630,note_off,4,0,0,,,,,3,,,,,,,62,0
7630,note_off,0,0,0,,,,,4,,,,,,,50,0
7630,note_off,0,0,0,,,,,6,,,,,,,62,0
7632,note_on,2,0,0,,,,,0,,,,,,,64,80
7632,note_on,0,0,0,,,,,3,,,,,,,55,80
7632,note_on,0,0,0,,,,,4,,,,,,,43,80
7632,note_on,0,0,0,,,,,6,,,,,,,55,88
7642,note_off,10,0,0,,,,,3,,,,,,,55,0
7642,note_off,0,0,0,,,,,4,,,,,,,43,0
7642,note_off,0,0,0,,,,,6,,,,,,,55,0
7644,note_on,2,0,0,,,,,3,,,,,,,54,80
7644,note_on,0,0,0,,,,,4,,,,,,,42,80
7644,note_on,0,0,0,,,,,6,,,,,,,54,88
7654,note_off,10,0,0,,,,,3,,,,,,,54,0
7654,note_off,0,0,0,,,,,4,,,,,,,42,0
7654,note_off,0,0,0,,,,,6,,,,,,,54,0
7656,note_on,2,0,0,,,,,3,,,,,,,55,80
7656,note_on,0,0,0,,,,,4,,,,,,,43,80
7656,note_on,0,0,0,,,,,6,,,,,,,55,88
7674,note_off,18,0,0,,,,,1,,,,,,,62,0
7677,note_off,3,0,0,,,,,3,,,,,,,55,0
7677,note_off,0,0,0,,,,,4,,,,,,,43,0
7677,note_off,0,0,0,,,,,6,,,,,,,55,0
7680,note_on,3,0,0,,,,,1,,,,,,,61,80
7680,note_on,0,0,0,,,,,3,,,,,,,52,80
7680,note_on,0,0,0,,,,,4,,,,,,,40,80
7680,note_on,0,0,0,,,,,6,,,,,,,52,88
7701,note_off,21,0,0,,,,,1,,,,,,,61,0
7701,note_off,0,0,0,,,,,3,,,,,,,52,0
7701,note_off,0,0,0,,,,,4,,,,,,,40,0
7701,note_off,0,0,0,,,,,6,,,,,,,52,0
7704,note_on,3,0,0,,,,,1,,,,,,,59,80
7704,note_on,0,0,0,,,,,3,,,,,,,52,80
7704,note_on,0,0,0,,,,,4,,,,,,,40,80
7704,note_on,0,0,0,,,,,6,,,,,,,52,88
7725,note_off,21,0,0,,,,,1,,,,,,,59,0
7725,note_off,0,0,0,,,,,3,,,,,,,52,0
7725,note_off,0,0,0,,,,,4,,,,,,,40,0
7725,note_off,0,0,0,,,,,6,,,,,,,52,0
7728,note_on,3,0,0,,,,,1,,,,,,,61,80
7728,note_on,0,0,0,,,,,3,,,,,,,52,80
7728,note_on,0,0,0,,,,,4,,,,,,,40,80
7728,note_on,0,0,0,,,,,6,,,,,,,52,88
7738,note_off,10,0,0,,,,,3,,,,,,,52,0
7738,note_off,0,0,0,,,,,4,,,,,,,40,0
7738,note_off,0,0,0,,,,,6,,,,,,,52,0
7740,note_on,2,0,0,,,,,3,,,,,,,58,80
7740,note_on,0,0,0,,,,,4,,,,,,,46,80
7740,note_on,0,0,0,,,,,6,,,,,,,58,88
7750,note_off,10,0,0,,,,,3,,,,,,,58,0
7750,note_off,0,0,0,,,,,4,,,,,,,46,0
7750,note_off,0,0,0,,,,,6,,,,,,,58,0
7752,note_on,2,0,0,,,,,3,,,,,,,59,80
7752,note_on,0,0,0,,,,,4,,,,,,,47,80
7752,note_on,0,0,0,,,,,6,,,,,,,59,88
7762,note_off,10,0,0,,,,,3,,,,,,,59,0
7762,note_off,0,0,0,,,,,4,,,,,,,47,0
7762,note_off,0,0,0,,,,,6,,,,,,,59,0
7764,note_on,2,0,0,,,,,3,,,,,,,61,80
7764,note_on,0,0,0,,,,,4,,,,,,,49,80
7764,note_on,0,0,0,,,,,6,,,,,,,61,88
7770,note_off,6,0,0,,,,,0,,,,,,,64,0
7770,note_off,0,0,0,,,,,2,,,,,,,59,0
7774,note_off,4,0,0,,,,,3,,,,,,,61,0
7774,note_off,0,0,0,,,,,4,,,,,,,49,0
7774,note_off,0,0,0,,,,,6,,,,,,,61,0
7776,note_on,2,0,0,,,,,0,,,,,,,62,80
7776,note_on,0,0,0,,,,,2,,,,,,,58,80
7776,note_on,0,0,0,,,,,3,,,,,,,54,80
7776,note_on,0,0,0,,,,,4,,,,,,,42,80
7776,note_on,0,0,0,,,,,6,,,,,,,54,88
7786,note_off,10,0,0,,,,,3,,,,,,,54,0
7786,note_off,0,0,0,,,,,4,,,,,,,42,0
7786,note_off,0,0,0,,,,,6,,,,,,,54,0
7788,note_on,2,0,0,,,,,3,,,,,,,52,80
7788,note_on,0,0,0,,,,,4,,,,,,,40,80
7788,note_on,0,0,0,,,,,6,,,,,,,52,88
7798,note_off,10,0,0,,,,,3,,,,,,,52,0
7798,note_off,0,0,0,,,,,4,,,,,,,40,0
7798,note_off,0,0,0,,,,,6,,,,,,,52,0
7800,note_on,2,0,0,,,,,3,,,,,,,54,80
7800,note_on,0,0,0,,,,,4,,,,,,,42,80
7800,note_on,0,0,0,,,,,6,,,,,,,54,88
7818,note_off,18,0,0,,,,,1,,,,,,,61,0
7818,note_off,0,0,0,,,,,2,,,,,,,58,0
7821,note_off,3,0,0,,,,,3,,,,,,,54,0
7821,note_off,0,0,0,,,,,4,,,,,,,42,0
7821,note_off,0,0,0,,,,,6,,,,,,,54,0
7824,note_on,3,0,0,,,,,1,,,,,,,59,80
7824,note_on,0,0,0,,,,,2,,,,,,,54,80
7824,note_on,0,0,0,,,,,3,,,,,,,50,80
7824,note_on,0,0,0,,,,,4,,,,,,,38,80
7824,note_on,0,0,0,,,,,6,,,,,,,50,88
7845,note_off,21,0,0,,,,,1,,,,,,,59,0
7845,note_off,0,0,0,,,,,3,,,,,,,50,0
7845,note_off,0,0,0,,,,,4,,,,,,,38,0
7845,note_off,0,0,0,,,,,6,,,,,,,50,0
7848,note_on,3,0,0,,,,,1,,,,,,,58,80
7848,note_on,0,0,0,,,,,3,,,,,,,50,80
7848,note_on,0,0,0,,,,,4,,,,,,,38,80
7848,note_on,0,0,0,,,,,6,,,,,,,50,88
7869,note_off,21,0,0,,,,,1,,,,,,,58,0
7869,note_off,0,0,0,,,,,3,,,,,,,50,0
7869,note_off,0,0,0,,,,,4,,,,,,,38,0
7869,note_off,0,0,0,,,,,6,,,,,,,50,0
7872,note_on,3,0,0,,,,,1,,,,,,,59,80
7872,note_on,0,0,0,,,,,3,,,,,,,50,80
7872,note_on,0,0,0,,,,,4,,,,,,,38,80
7872,note_on,0,0,0,,,,,6,,,,,,,50,88
7878,note_off,6,0,0,,,,,0,,,,,,,62,0
7878,note_off,0,0,0,,,,,2,,,,,,,54,0
7882,note_off,4,0,0,,,,,1,,,,,,,59,0
7882,note_off,0,0,0,,,,,3,,,,,,,50,0
7882,note_off,0,0,0,,,,,4,,,,,,,38,0
7882,note_off,0,0,0,,,,,6,,,,,,,50,0
7884,note_on,2,0,0,,,,,0,,,,,,,71,80
7884,note_on,0,0,0,,,,,1,,,,,,,71,80
7884,note_on,0,0,0,,,,,2,,,,,,,71,80
7884,note_on,0,0,0,,,,,3,,,,,,,59,80
7884,note_on,0,0,0,,,,,4,,,,,,,47,80
7884,note_on,0,0,0,,,,,6,,,,,,,59,88
7894,note_off,10,0,0,,,,,0,,,,,,,71,0
7894,note_off,0,0,0,,,,,1,,,,,,,71,0
7894,note_off,0,0,0,,,,,2,,,,,,,71,0
7894,note_off,0,0,0,,,,,3,,,,,,,59,0
7894,note_off,0,0,0,,,,,4,,,,,,,47,0
7894,note_off,0,0,0,,,,,6,,,,,,,59,0
7896,note_on,2,0,0,,,,,0,,,,,,,71,80
7896,note_on,0,0,0,,,,,1,,,,,,,71,80
7896,note_on,0,0,0,,,,,2,,,,,,,71,80
7896,note_on,0,0,0,,,,,3,,,,,,,59,80
7896,note_on,0,0,0,,,,,4,,,,,,,47,80
7896,note_on,0,0,0,,,,,6,,,,,,,59,88
7908,note_off,12,0,0,,,,,0,,,,,,,71,0
7908,note_on,0,0,0,,,,,0,,,,,,,67,80
7908,note_off,0,0,0,,,,,1,,,,,,,71,0
7908,note_on,0,0,0,,,,,1,,,,,,,67,80
7908,note_off,0,0,0,,,,,2,,,,,,,71,0
7908,note_on,0,0,0,,,,,2,,,,,,,67,80
7908,note_off,0,0,0,,,,,3,,,,,,,59,0
7908,note_on,0,0,0,,,,,3,,,,,,,55,80
7908,note_off,0,0,0,,,,,4,,,,,,,47,0
7908,note_on,0,0,0,,,,,4,,,,,,,43,80
7908,note_off,0,0,0,,,,,6,,,,,,,59,0
7908,note_on,0,0,0,,,,,6,,,,,,,55,88
7918,note_off,10,0,0,,,,,0,,,,,,,67,0
7918,note_off,0,0,0,,,,,1,,,,,,,67,0
7918,note_off,0,0,0,,,,,2,,,,,,,67,0
7918,note_off,0,0,0,,,,,3,,,,,,,55,0
7918,note_off,0,0,0,,,,,4,,,,,,,43,0
7918,note_off,0,0,0,,,,,6,,,,,,,55,0
7920,note_on,2,0,0,,,,,0,,,,,,,67,80
7920,note_on,0,0,0,,,,,1,,,,,,,67,80
7920,note_on,0,0,0,,,,,2,,,,,,,67,80
7920,note_on,0,0,0,,,,,3,,,,,,,55,80
7920,note_on,0,0,0,,,,,4,,,,,,,43,80
7920,note_on,0,0,0,,,,,6,,,,,,,55,88
7932,note_off,12,0,0,,,,,0,,,,,,,67,0
7932,note_on,0,0,0,,,,,0,,,,,,,64,80
7932,note_off,0,0,0,,,,,1,,,,,,,67,0
7932,note_on,0,0,0,,,,,1,,,,,,,64,80
7932,note_off,0,0,0,,,,,2,,,,,,,67,0
7932,note_on,0,0,0,,,,,2,,,,,,,64,80
7932,note_off,0,0,0,,,,,3,,,,,,,55,0
7932,note_on,0,0,0,,,,,3,,,,,,,52,80
7932,note_off,0,0,0,,,,,4,,,,,,,43,0
7932,note_on,0,0,0,,,,,4,,,,,,,40,80
7932,note_off,0,0,0,,,,,6,,,,,,,55,0
7932,note_on,0,0,0,,,,,6,,,,,,,52,88
7942,note_off,10,0,0,,,,,0,,,,,,,64,0
7942,note_off,0,0,0,,,,,1,,,,,,,64,0
7942,note_off,0,0,0,,,,,2,,,,,,,64,0
7942,note_off,0,0,0,,,,,3,,,,,,,52,0
7942,note_off,0,0,0,,,,,4,,,,,,,40,0
7942,note_off,0,0,0,,,,,6,,,,,,,52,0
7944,note_on,2,0,0,,,,,0,,,,,,,64,80
7944,note_on,0,0,0,,,,,1,,,,,,,64,80
7944,note_on,0,0,0,,,,,2,,,,,,,64,80
7944,note_on,0,0,0,,,,,3,,,,,,,52,80
7944,note_on,0,0,0,,,,,4,,,,,,,40,80
7944,note_on,0,0,0,,,,,6,,,,,,,52,88
7956,note_off,12,0,0,,,,,0,,,,,,,64,0
7956,note_on,0,0,0,,,,,0,,,,,,,61,80
7956,note_off,0,0,0,,,,,1,,,,,,,64,0
7956,note_on,0,0,0,,,,,1,,,,,,,61,80
7956,note_off,0,0,0,,,,,2,,,,,,,64,0
7956,note_on,0,0,0,,,,,2,,,,,,,61,80
7956,note_off,0,0,0,,,,,3,,,,,,,52,0
7956,note_on,0,0,0,,,,,3,,,,,,,49,80
7956,note_off,0,0,0,,,,,4,,,,,,,40,0
7956,note_on,0,0,0,,,,,4,,,,,,,37,80
7956,note_off,0,0,0,,,,,6,,,,,,,52,0
7956,note_on,0,0,0,,,,,6,,,,,,,49,88
7966,note_off,10,0,0,,,,,0,,,,,,,61,0
7966,note_off,0,0,0,,,,,1,,,,,,,61,0
7966,note_off,0,0,0,,,,,2,,,,,,,61,0
7966,note_off,0,0,0,,,,,3,,,,,,,49,0
7966,note_off,0,0,0,,,,,4,,,,,,,37,0
7966,note_off,0,0,0,,,,,6,,,,,,,49,0
7968,note_on,2,0,0,,,,,0,,,,,,,61,80
7968,note_on,0,0,0,,,,,1,,,,,,,61,80
7968,note_on,0,0,0,,,,,2,,,,,,,61,80
7968,note_on,0,0,0,,,,,3,,,,,,,49,80
7968,note_on,0,0,0,,,,,4,,,,,,,37,80
7968,note_on,0,0,0,,,,,6,,,,,,,49,88
7980,note_off,12,0,0,,,,,0,,,,,,,61,0
7980,note_on,0,0,0,,,,,0,,,,,,,59,80
7980,note_off,0,0,0,,,,,1,,,,,,,61,0
7980,note_on,0,0,0,,,,,1,,,,,,,59,80
7980,note_off,0,0,0,,,,,2,,,,,,,61,0
7980,note_on,0,0,0,,,,,2,,,,,,,59,80
7980,note_off,0,0,0,,,,,3,,,,,,,49,0
7980,note_on,0,0,0,,,,,3,,,,,,,47,80
7980,note_off,0,0,0,,,,,4,,,,,,,37,0
7980,note_on,0,0,0,,,,,4,,,,,,,35,80
7980,note_off,0,0,0,,,,,6,,,,,,,49,0
7980,note_on,0,0,0,,,,,6,,,,,,,47,88
7990,note_off,10,0,0,,,,,0,,,,,,,59,0
7990,note_off,0,0,0,,,,,1,,,,,,,59,0
7990,note_off,0,0,0,,,,,2,,,,,,,59,0
7990,note_off,0,0,0,,,,,3,,,,,,,47,0
7990,note_off,0,0,0,,,,,4,,,,,,,35,0
7990,note_off,0,0,0,,,,,6,,,,,,,47,0
7992,note_on,2,0,0,,,,,0,,,,,,,58,80
7992,note_on,0,0,0,,,,,1,,,,,,,58,80
7992,note_on,0,0,0,,,,,2,,,,,,,58,80
7992,note_on,0,0,0,,,,,3,,,,,,,46,80
7992,note_on,0,0,0,,,,,4,,,,,,,34,80
7992,note_on,0,0,0,,,,,6,,,,,,,46,88
8004,note_off,12,0,0,,,,,0,,,,,,,58,0
8004,note_on,0,0,0,,,,,0,,,,,,,59,80
8004,note_off,0,0,0,,,,,1,,,,,,,58,0
8004,note_on,0,0,0,,,,,1,,,,,,,59,80
8004,note_off,0,0,0,,,,,2,,,,,,,58,0
8004,note_on,0,0,0,,,,,2,,,,,,,59,80
8004,note_off,0,0,0,,,,,3,,,,,,,46,0
8004,note_on,0,0,0,,,,,3,,,,,,,47,80
8004,note_off,0,0,0,,,,,4,,,,,,,34,0
8004,note_on,0,0,0,,,,,4,,,,,,,35,80
8004,note_off,0,0,0,,,,,6,,,,,,,46,0
8004,note_on,0,0,0,,,,,6,,,,,,,47,88
8014,note_off,10,0,0,,,,,0,,,,,,,59,0
8014,note_off,0,0,0,,,,,1,,,,,,,59,0
8014,note_off,0,0,0,,,,,2,,,,,,,59,0
8014,note_off,0,0,0,,,,,3,,,,,,,47,0
8014,note_off,0,0,0,,,,,4,,,,,,,35,0
8014,note_off,0,0,0,,,,,6,,,,,,,47,0
8016,note_on,2,0,0,,,,,0,,,,,,,66,80
8016,note_on,0,0,0,,,,,1,,,,,,,66,80
8016,note_on,0,0,0,,,,,2,,,,,,,66,80
8016,note_on,0,0,0,,,,,3,,,,,,,54,80
8016,note_on,0,0,0,,,,,4,,,,,,,42,80
8016,note_on,0,0,0,,,,,6,,,,,,,54,88
8037,note_off,21,0,0,,,,,0,,,,,,,66,0
8037,note_off,0,0,0,,,,,1,,,,,,,66,0
8037,note_off,0,0,0,,,,,2,,,,,,,66,0
8037,note_off,0,0,0,,,,,3,,,,,,,54,0
8037,note_off,0,0,0,,,,,4,,,,,,,42,0
8037,note_off,0,0,0,,,,,6,,,,,,,54,0
8040,note_on,3,0,0,,,,,0,,,,,,,66,80
8040,note_on,0,0,0,,,,,1,,,,,,,66,80
8040,note_on,0,0,0,,,,,2,,,,,,,54,80
8040,note_on,0,0,0,,,,,3,,,,,,,42,80
8040,note_on,0,0,0,,,,,4,,,,,,,30,80
8040,note_on,0,0,0,,,,,6,,,,,,,42,88
8061,note_off,21,0,0,,,,,0,,,,,,,66,0
8061,note_off,0,0,0,,,,,1,,,,,,,66,0
8061,note_off,0,0,0,,,,,2,,,,,,,54,0
8061,note_off,0,0,0,,,,,3,,,,,,,42,0
8061,note_off,0,0,0,,,,,4,,,,,,,30,0
8061,note_off,0,0,0,,,,,6,,,,,,,42,0
8064,note_on,3,0,0,,,,,0,,,,,,,59,80
8064,note_on,0,0,0,,,,,1,,,,,,,59,80
8064,note_on,0,0,0,,,,,2,,,,,,,59,80
8064,note_on,0,0,0,,,,,3,,,,,,,47,80
8064,note_on,0,0,0,,,,,4,,,,,,,35,80
8064,note_on,0,0,0,,,,,6,,,,,,,47,88
8208,note_off,144,0,0,,,,,0,,,,,,,59,0
8208,note_off,0,0,0,,,,,1,,,,,,,59,0
8208,note_off,0,0,0,,,,,2,,,,,,,59,0
8208,note_off,0,0,0,,,,,3,,,,,,,47,0
8208,note_off,0,0,0,,,,,4,,,,,,,35,0
8208,note_off,0,0,0,,,,,6,,,,,,,47,0
8352,end_of_track,144,1,0,,,,,,,,,,,,,
