tick,type,time,meta,track,numerator,denominator,clocks_per_click,notated_32nd_notes_per_beat,key,tempo,program,channel,control,value,note,velocity
0,track_name,0,1,0,,,,,,,,,,,,
0,program_change,0,0,6,,,,,,,0,5,,,,
0,track_name,0,1,6,,,,,,,,,,,,
0,control_change,0,0,5,,,,,,,,4,10,79,,
0,control_change,0,0,5,,,,,,,,4,7,100,,
0,program_change,0,0,5,,,,,,,0,4,,,,
0,track_name,0,1,5,,,,,,,,,,,,
0,control_change,0,0,4,,,,,,,,3,10,49,,
0,control_change,0,0,4,,,,,,,,3,7,100,,
0,program_change,0,0,4,,,,,,,0,3,,,,
0,track_name,0,1,4,,,,,,,,,,,,
0,control_change,0,0,3,,,,,,,,2,10,59,,
0,control_change,0,0,3,,,,,,,,2,7,100,,
0,program_change,0,0,3,,,,,,,0,2,,,,
0,track_name,0,1,3,,,,,,,,,,,,
0,end_of_track,0,1,16,,,,,,,,,,,,
0,control_change,0,0,2,,,,,,,,1,10,69,,
0,control_change,0,0,2,,,,,,,,1,7,100,,
0,control_change,0,0,6,,,,,,,,5,7,100,,
0,program_change,0,0,2,,,,,,,0,1,,,,
0,control_change,0,0,6,,,,,,,,5,10,69,,
0,end_of_track,0,1,7,,,,,,,,,,,,
0,track_name,0,1,16,,,,,,,,,,,,
0,end_of_track,0,1,15,,,,,,,,,,,,
0,track_name,0,1,15,,,,,,,,,,,,
0,end_of_track,0,1,14,,,,,,,,,,,,
0,track_name,0,1,14,,,,,,,,,,,,
0,end_of_track,0,1,13,,,,,,,,,,,,
0,track_name,0,1,13,,,,,,,,,,,,
0,end_of_track,0,1,12,,,,,,,,,,,,
0,track_name,0,1,12,,,,,,,,,,,,
0,end_of_track,0,1,11,,,,,,,,,,,,
0,track_name,0,1,11,,,,,,,,,,,,
0,end_of_track,0,1,10,,,,,,,,,,,,
0,track_name,0,1,10,,,,,,,,,,,,
0,end_of_track,0,1,9,,,,,,,,,,,,
0,track_name,0,1,9,,,,,,,,,,,,
0,end_of_track,0,1,8,,,,,,,,,,,,
0,track_name,0,1,8,,,,,,,,,,,,
0,track_name,0,1,7,,,,,,,,,,,,
0,track_name,0,1,2,,,,,,,,,,,,
0,end_of_track,0,1,17,,,,,,,,,,,,
0,text,0,1,0,,,,,,,,,,,,
0,text,0,1,0,,,,,,,,,,,,
0,text,0,1,0,,,,,,,,,,,,
0,set_tempo,0,1,0,,,,,,600000,,,,,,
0,text,0,1,0,,,,,,,,,,,,
0,text,0,1,0,,,,,,,,,,,,
0,text,0,1,0,,,,,,,,,,,,
0,text,0,1,0,,,,,,,,,,,,
0,text,0,1,0,,,,,,,,,,,,
0,text,0,1,0,,,,,,,,,,,,
0,text,0,1,0,,,,,,,,,,,,
0,text,0,1,0,,,,,,,,,,,,
0,text,0,1,0,,,,,,,,,,,,
0,text,0,1,0,,,,,,,,,,,,
0,text,0,1,0,,,,,,,,,,,,
0,time_signature,0,1,0,2,4,24,8,,,,,,,,
0,marker,0,1,0,,,,,,,,,,,,
0,text,0,1,0,,,,,,,,,,,,
0,copyright,0,1,0,,,,,,,,,,,,
0,key_signature,0,1,0,,,,,G,,,,,,,
0,program_change,0,0,1,,,,,,,0,0,,,,
0,control_change,0,0,1,,,,,,,,0,7,100,,
0,control_change,0,0,1,,,,,,,,0,10,79,,
0,track_name,0,1,1,,,,,,,,,,,,
480,note_on,480,0,4,,,,,,,,3,,,55,100
480,note_on,480,0,3,,,,,,,,2,,,43,100
960,note_on,0,0,4,,,,,,,,3,,,54,100
960,note_on,480,0,4,,,,,,,,3,,,55,0
960,note_on,480,0,3,,,,,,,,2,,,43,0
960,note_on,0,0,3,,,,,,,,2,,,50,100
1440,note_on,480,0,3,,,,,,,,2,,,50,0
1440,note_on,0,0,3,,,,,,,,2,,,48,100
1440,note_on,480,0,4,,,,,,,,3,,,54,0
1440,note_on,0,0,4,,,,,,,,3,,,52,100
1920,note_on,0,0,3,,,,,,,,2,,,47,100
1920,note_on,480,0,4,,,,,,,,3,,,52,0
1920,note_on,0,0,4,,,,,,,,3,,,50,100
1920,note_on,480,0,3,,,,,,,,2,,,48,0
2400,note_on,0,0,4,,,,,,,,3,,,47,100
2400,note_on,480,0,3,,,,,,,,2,,,47,0
2400,note_on,0,0,3,,,,,,,,2,,,50,100
2400,note_on,480,0,4,,,,,,,,3,,,50,0
2880,note_on,480,0,4,,,,,,,,3,,,47,0
2880,note_on,480,0,3,,,,,,,,2,,,50,0
2880,note_on,0,0,3,,,,,,,,2,,,52,100
2880,note_on,0,0,4,,,,,,,,3,,,48,100
3360,note_on,480,0,4,,,,,,,,3,,,48,0
3360,note_on,0,0,4,,,,,,,,3,,,50,100
3360,note_on,0,0,3,,,,,,,,2,,,54,100
3360,note_on,480,0,3,,,,,,,,2,,,52,0
3840,note_on,480,0,4,,,,,,,,3,,,50,0
3840,note_on,0,0,4,,,,,,,,3,,,43,100
3840,note_on,0,0,3,,,,,,,,2,,,55,100
3840,note_on,480,0,3,,,,,,,,2,,,54,0
4320,note_on,480,0,4,,,,,,,,3,,,43,0
4320,note_on,0,0,4,,,,,,,,3,,,55,100
4320,note_on,480,0,3,,,,,,,,2,,,55,0
4320,note_on,0,0,3,,,,,,,,2,,,43,100
4800,note_on,480,0,4,,,,,,,,3,,,55,0
4800,note_on,480,0,3,,,,,,,,2,,,43,0
4800,note_on,0,0,3,,,,,,,,2,,,50,100
4800,note_on,0,0,4,,,,,,,,3,,,54,100
5280,note_on,480,0,4,,,,,,,,3,,,54,0
5280,note_on,480,0,3,,,,,,,,2,,,50,0
5280,note_on,0,0,3,,,,,,,,2,,,48,100
5280,note_on,0,0,4,,,,,,,,3,,,52,100
5760,note_on,480,0,3,,,,,,,,2,,,48,0
5760,note_on,0,0,3,,,,,,,,2,,,47,100
5760,note_on,0,0,4,,,,,,,,3,,,50,100
5760,note_on,480,0,4,,,,,,,,3,,,52,0
6240,note_on,0,0,4,,,,,,,,3,,,47,100
6240,note_on,480,0,4,,,,,,,,3,,,50,0
6240,note_on,0,0,3,,,,,,,,2,,,50,100
6240,note_on,480,0,3,,,,,,,,2,,,47,0
6720,note_on,480,0,3,,,,,,,,2,,,50,0
6720,note_on,480,0,4,,,,,,,,3,,,47,0
6720,note_on,0,0,3,,,,,,,,2,,,52,100
6720,note_on,0,0,4,,,,,,,,3,,,48,100
7200,note_on,0,0,4,,,,,,,,3,,,50,100
7200,note_on,0,0,3,,,,,,,,2,,,54,100
7200,note_on,480,0,3,,,,,,,,2,,,52,0
7200,note_on,480,0,4,,,,,,,,3,,,48,0
7680,note_on,480,0,4,,,,,,,,3,,,50,0
7680,note_on,0,0,4,,,,,,,,3,,,43,100
7680,note_on,480,0,3,,,,,,,,2,,,54,0
7680,note_on,0,0,3,,,,,,,,2,,,55,100
8640,note_on,960,0,4,,,,,,,,3,,,43,0
8640,note_on,960,0,3,,,,,,,,2,,,55,0
8640,marker,8640,1,0,,,,,,,,,,,,
9120,note_on,480,0,4,,,,,,,,3,,,50,100
9120,note_on,480,0,3,,,,,,,,2,,,62,100
9600,note_on,0,0,4,,,,,,,,3,,,52,100
9600,note_on,480,0,4,,,,,,,,3,,,50,0
9600,note_on,480,0,3,,,,,,,,2,,,62,0
9600,note_on,0,0,3,,,,,,,,2,,,55,100
10080,note_on,480,0,3,,,,,,,,2,,,55,0
10080,note_on,0,0,3,,,,,,,,2,,,57,100
10080,note_on,0,0,4,,,,,,,,3,,,54,100
10080,note_on,480,0,4,,,,,,,,3,,,52,0
10560,note_on,480,0,4,,,,,,,,3,,,54,0
10560,note_on,0,0,4,,,,,,,,3,,,55,100
10560,note_on,480,0,3,,,,,,,,2,,,57,0
10560,note_on,0,0,3,,,,,,,,2,,,59,100
11040,note_on,480,0,4,,,,,,,,3,,,55,0
11040,note_on,480,0,3,,,,,,,,2,,,59,0
11040,note_on,0,0,4,,,,,,,,3,,,59,100
11040,note_on,0,0,3,,,,,,,,2,,,55,100
11520,note_on,480,0,3,,,,,,,,2,,,55,0
11520,note_on,0,0,3,,,,,,,,2,,,54,100
11520,note_on,480,0,4,,,,,,,,3,,,59,0
11520,note_on,0,0,4,,,,,,,,3,,,57,100
12000,note_on,480,0,4,,,,,,,,3,,,57,0
12000,note_on,0,0,4,,,,,,,,3,,,55,100
12000,note_on,0,0,3,,,,,,,,2,,,52,100
12000,note_on,480,0,3,,,,,,,,2,,,54,0
12480,note_on,480,0,4,,,,,,,,3,,,55,0
12480,note_on,480,0,3,,,,,,,,2,,,52,0
12480,note_on,0,0,4,,,,,,,,3,,,62,100
12480,note_on,0,0,3,,,,,,,,2,,,50,100
12960,note_on,480,0,4,,,,,,,,3,,,62,0
12960,note_on,0,0,3,,,,,,,,2,,,62,100
12960,note_on,0,0,4,,,,,,,,3,,,50,100
12960,note_on,480,0,3,,,,,,,,2,,,50,0
13440,note_on,0,0,4,,,,,,,,3,,,52,100
13440,note_on,480,0,4,,,,,,,,3,,,50,0
13440,note_on,0,0,3,,,,,,,,2,,,55,100
13440,note_on,480,0,3,,,,,,,,2,,,62,0
13920,note_on,480,0,4,,,,,,,,3,,,52,0
13920,note_on,0,0,3,,,,,,,,2,,,57,100
13920,note_on,0,0,4,,,,,,,,3,,,54,100
13920,note_on,480,0,3,,,,,,,,2,,,55,0
14400,note_on,480,0,3,,,,,,,,2,,,57,0
14400,note_on,0,0,3,,,,,,,,2,,,59,100
14400,note_on,480,0,4,,,,,,,,3,,,54,0
14400,note_on,0,0,4,,,,,,,,3,,,55,100
14880,note_on,0,0,3,,,,,,,,2,,,55,100
14880,note_on,480,0,3,,,,,,,,2,,,59,0
14880,note_on,480,0,4,,,,,,,,3,,,55,0
14880,note_on,0,0,4,,,,,,,,3,,,59,100
15360,note_on,480,0,4,,,,,,,,3,,,59,0
15360,note_on,0,0,4,,,,,,,,3,,,57,100
15360,note_on,480,0,3,,,,,,,,2,,,55,0
15360,note_on,0,0,3,,,,,,,,2,,,54,100
15840,note_on,480,0,4,,,,,,,,3,,,57,0
15840,note_on,0,0,4,,,,,,,,3,,,55,100
15840,note_on,480,0,3,,,,,,,,2,,,54,0
15840,note_on,0,0,3,,,,,,,,2,,,52,100
16320,note_on,480,0,3,,,,,,,,2,,,52,0
16320,note_on,480,0,4,,,,,,,,3,,,55,0
16320,note_on,0,0,4,,,,,,,,3,,,62,100
16320,note_on,0,0,3,,,,,,,,2,,,50,100
17280,note_on,960,0,3,,,,,,,,2,,,50,0
17280,marker,8640,1,0,,,,,,,,,,,,
17280,note_on,960,0,4,,,,,,,,3,,,62,0
17760,note_on,480,0,3,,,,,,,,2,,,55,100
18240,note_on,480,0,3,,,,,,,,2,,,55,0
18240,note_on,0,0,3,,,,,,,,2,,,54,100
18720,note_on,480,0,3,,,,,,,,2,,,54,0
18720,note_on,0,0,3,,,,,,,,2,,,52,100
19200,note_on,480,0,3,,,,,,,,2,,,52,0
19200,note_on,0,0,3,,,,,,,,2,,,50,100
19680,note_on,480,0,3,,,,,,,,2,,,50,0
19680,note_on,0,0,3,,,,,,,,2,,,47,100
19680,note_on,19680,0,2,,,,,,,,1,,,62,100
20160,note_on,0,0,2,,,,,,,,1,,,64,100
20160,note_on,480,0,2,,,,,,,,1,,,62,0
20160,note_on,0,0,3,,,,,,,,2,,,48,100
20160,note_on,480,0,3,,,,,,,,2,,,47,0
20640,note_on,0,0,3,,,,,,,,2,,,50,100
20640,note_on,480,0,3,,,,,,,,2,,,48,0
20640,note_on,0,0,2,,,,,,,,1,,,66,100
20640,note_on,480,0,2,,,,,,,,1,,,64,0
21120,note_on,480,0,2,,,,,,,,1,,,66,0
21120,note_on,0,0,2,,,,,,,,1,,,67,100
21120,note_on,480,0,3,,,,,,,,2,,,50,0
21120,note_on,0,0,3,,,,,,,,2,,,43,100
21600,note_on,480,0,3,,,,,,,,2,,,43,0
21600,note_on,480,0,2,,,,,,,,1,,,67,0
21600,note_on,0,0,2,,,,,,,,1,,,71,100
21600,note_on,0,0,3,,,,,,,,2,,,55,100
22080,note_on,0,0,3,,,,,,,,2,,,54,100
22080,note_on,0,0,2,,,,,,,,1,,,69,100
22080,note_on,480,0,2,,,,,,,,1,,,71,0
22080,note_on,480,0,3,,,,,,,,2,,,55,0
22560,note_on,480,0,2,,,,,,,,1,,,69,0
22560,note_on,480,0,3,,,,,,,,2,,,54,0
22560,note_on,0,0,3,,,,,,,,2,,,52,100
22560,note_on,0,0,2,,,,,,,,1,,,67,100
23040,note_on,0,0,2,,,,,,,,1,,,74,100
23040,note_on,0,0,3,,,,,,,,2,,,50,100
23040,note_on,480,0,3,,,,,,,,2,,,52,0
23040,note_on,480,0,2,,,,,,,,1,,,67,0
23520,note_on,0,0,3,,,,,,,,2,,,47,100
23520,note_on,480,0,3,,,,,,,,2,,,50,0
23520,note_on,0,0,2,,,,,,,,1,,,62,100
23520,note_on,480,0,2,,,,,,,,1,,,74,0
24000,note_on,480,0,3,,,,,,,,2,,,47,0
24000,note_on,0,0,2,,,,,,,,1,,,64,100
24000,note_on,480,0,2,,,,,,,,1,,,62,0
24000,note_on,0,0,3,,,,,,,,2,,,48,100
24480,note_on,0,0,2,,,,,,,,1,,,66,100
24480,note_on,0,0,3,,,,,,,,2,,,50,100
24480,note_on,480,0,3,,,,,,,,2,,,48,0
24480,note_on,480,0,2,,,,,,,,1,,,64,0
24960,note_on,0,0,2,,,,,,,,1,,,67,100
24960,note_on,480,0,2,,,,,,,,1,,,66,0
24960,note_on,0,0,3,,,,,,,,2,,,43,100
24960,note_on,480,0,3,,,,,,,,2,,,50,0
25440,note_on,0,0,2,,,,,,,,1,,,71,100
25440,note_on,480,0,2,,,,,,,,1,,,67,0
25440,note_on,480,0,3,,,,,,,,2,,,43,0
25440,note_on,0,0,3,,,,,,,,2,,,55,100
25920,note_on,0,0,2,,,,,,,,1,,,69,100
25920,note_on,0,0,3,,,,,,,,2,,,54,100
25920,note_on,480,0,3,,,,,,,,2,,,55,0
25920,note_on,480,0,2,,,,,,,,1,,,71,0
26400,note_on,480,0,2,,,,,,,,1,,,69,0
26400,note_on,0,0,2,,,,,,,,1,,,67,100
26400,note_on,480,0,3,,,,,,,,2,,,54,0
26400,note_on,0,0,3,,,,,,,,2,,,52,100
26880,note_on,0,0,2,,,,,,,,1,,,74,100
26880,note_on,480,0,2,,,,,,,,1,,,67,0
26880,note_on,480,0,3,,,,,,,,2,,,52,0
26880,note_on,0,0,3,,,,,,,,2,,,50,100
27360,note_on,0,0,3,,,,,,,,2,,,47,100
27360,note_on,0,0,2,,,,,,,,1,,,62,100
27360,note_on,480,0,2,,,,,,,,1,,,74,0
27360,note_on,480,0,3,,,,,,,,2,,,50,0
27840,note_on,0,0,2,,,,,,,,1,,,64,100
27840,note_on,480,0,2,,,,,,,,1,,,62,0
27840,note_on,0,0,3,,,,,,,,2,,,48,100
27840,note_on,480,0,3,,,,,,,,2,,,47,0
28320,note_on,0,0,2,,,,,,,,1,,,66,100
28320,note_on,480,0,3,,,,,,,,2,,,48,0
28320,note_on,0,0,3,,,,,,,,2,,,50,100
28320,note_on,480,0,2,,,,,,,,1,,,64,0
28800,note_on,480,0,2,,,,,,,,1,,,66,0
28800,note_on,0,0,2,,,,,,,,1,,,67,100
28800,note_on,480,0,3,,,,,,,,2,,,50,0
28800,note_on,0,0,3,,,,,,,,2,,,43,100
29760,note_on,960,0,2,,,,,,,,1,,,67,0
29760,note_on,960,0,3,,,,,,,,2,,,43,0
29760,marker,12480,1,0,,,,,,,,,,,,
30240,note_on,480,0,3,,,,,,,,2,,,50,100
30720,note_on,480,0,3,,,,,,,,2,,,50,0
30720,note_on,0,0,3,,,,,,,,2,,,52,100
31200,note_on,480,0,3,,,,,,,,2,,,52,0
31200,note_on,0,0,3,,,,,,,,2,,,54,100
31680,note_on,480,0,3,,,,,,,,2,,,54,0
31680,note_on,0,0,3,,,,,,,,2,,,55,100
32160,note_on,0,0,3,,,,,,,,2,,,59,100
32160,note_on,2400,0,2,,,,,,,,1,,,67,100
32160,note_on,480,0,3,,,,,,,,2,,,55,0
32640,note_on,480,0,2,,,,,,,,1,,,67,0
32640,note_on,0,0,3,,,,,,,,2,,,57,100
32640,note_on,0,0,2,,,,,,,,1,,,66,100
32640,note_on,480,0,3,,,,,,,,2,,,59,0
33120,note_on,0,0,3,,,,,,,,2,,,55,100
33120,note_on,0,0,2,,,,,,,,1,,,64,100
33120,note_on,480,0,2,,,,,,,,1,,,66,0
33120,note_on,480,0,3,,,,,,,,2,,,57,0
33600,note_on,480,0,2,,,,,,,,1,,,64,0
33600,note_on,0,0,2,,,,,,,,1,,,62,100
33600,note_on,480,0,3,,,,,,,,2,,,55,0
33600,note_on,0,0,3,,,,,,,,2,,,62,100
34080,note_on,480,0,2,,,,,,,,1,,,62,0
34080,note_on,0,0,2,,,,,,,,1,,,59,100
34080,note_on,0,0,3,,,,,,,,2,,,50,100
34080,note_on,480,0,3,,,,,,,,2,,,62,0
34560,note_on,480,0,2,,,,,,,,1,,,59,0
34560,note_on,0,0,2,,,,,,,,1,,,60,100
34560,note_on,0,0,3,,,,,,,,2,,,52,100
34560,note_on,480,0,3,,,,,,,,2,,,50,0
35040,note_on,0,0,3,,,,,,,,2,,,54,100
35040,note_on,480,0,3,,,,,,,,2,,,52,0
35040,note_on,0,0,2,,,,,,,,1,,,62,100
35040,note_on,480,0,2,,,,,,,,1,,,60,0
35520,note_on,0,0,2,,,,,,,,1,,,55,100
35520,note_on,480,0,2,,,,,,,,1,,,62,0
35520,note_on,480,0,3,,,,,,,,2,,,54,0
35520,note_on,0,0,3,,,,,,,,2,,,55,100
36000,note_on,480,0,3,,,,,,,,2,,,55,0
36000,note_on,0,0,2,,,,,,,,1,,,67,100
36000,note_on,480,0,2,,,,,,,,1,,,55,0
36000,note_on,0,0,3,,,,,,,,2,,,59,100
36480,note_on,0,0,2,,,,,,,,1,,,66,100
36480,note_on,480,0,2,,,,,,,,1,,,67,0
36480,note_on,480,0,3,,,,,,,,2,,,59,0
36480,note_on,0,0,3,,,,,,,,2,,,57,100
36960,note_on,480,0,3,,,,,,,,2,,,57,0
36960,note_on,480,0,2,,,,,,,,1,,,66,0
36960,note_on,0,0,2,,,,,,,,1,,,64,100
36960,note_on,0,0,3,,,,,,,,2,,,55,100
37440,note_on,480,0,3,,,,,,,,2,,,55,0
37440,note_on,0,0,3,,,,,,,,2,,,62,100
37440,note_on,480,0,2,,,,,,,,1,,,64,0
37440,note_on,0,0,2,,,,,,,,1,,,62,100
37920,note_on,480,0,3,,,,,,,,2,,,62,0
37920,note_on,0,0,3,,,,,,,,2,,,50,100
37920,note_on,480,0,2,,,,,,,,1,,,62,0
37920,note_on,0,0,2,,,,,,,,1,,,59,100
38400,note_on,480,0,2,,,,,,,,1,,,59,0
38400,note_on,0,0,2,,,,,,,,1,,,60,100
38400,note_on,0,0,3,,,,,,,,2,,,52,100
38400,note_on,480,0,3,,,,,,,,2,,,50,0
38880,note_on,0,0,2,,,,,,,,1,,,62,100
38880,note_on,0,0,3,,,,,,,,2,,,54,100
38880,note_on,480,0,3,,,,,,,,2,,,52,0
38880,note_on,480,0,2,,,,,,,,1,,,60,0
39360,note_on,480,0,3,,,,,,,,2,,,54,0
39360,note_on,0,0,2,,,,,,,,1,,,55,100
39360,note_on,480,0,2,,,,,,,,1,,,62,0
39360,note_on,0,0,3,,,,,,,,2,,,55,100
40320,note_on,960,0,3,,,,,,,,2,,,55,0
40320,marker,10560,1,0,,,,,,,,,,,,
40320,note_on,960,0,2,,,,,,,,1,,,55,0
40560,note_on,240,0,2,,,,,,,,1,,,67,100
40680,note_on,120,0,2,,,,,,,,1,,,67,0
40680,note_on,0,0,2,,,,,,,,1,,,66,100
40800,note_on,120,0,2,,,,,,,,1,,,66,0
40800,note_on,0,0,2,,,,,,,,1,,,67,100
40800,note_on,23520,0,4,,,,,,,,3,,,55,100
40920,note_on,0,0,2,,,,,,,,1,,,69,100
40920,note_on,120,0,2,,,,,,,,1,,,67,0
41040,note_on,0,0,2,,,,,,,,1,,,71,100
41040,note_on,120,0,2,,,,,,,,1,,,69,0
41160,note_on,0,0,2,,,,,,,,1,,,72,100
41160,note_on,120,0,2,,,,,,,,1,,,71,0
41280,note_on,480,0,4,,,,,,,,3,,,55,0
41280,note_on,0,0,2,,,,,,,,1,,,74,100
41280,note_on,120,0,2,,,,,,,,1,,,72,0
41280,note_on,0,0,4,,,,,,,,3,,,54,100
41400,note_on,120,0,2,,,,,,,,1,,,74,0
41400,note_on,0,0,2,,,,,,,,1,,,69,100
41520,note_on,0,0,2,,,,,,,,1,,,66,100
41520,note_on,120,0,2,,,,,,,,1,,,69,0
41640,note_on,120,0,2,,,,,,,,1,,,66,0
41640,note_on,0,0,2,,,,,,,,1,,,62,100
41760,note_on,0,0,4,,,,,,,,3,,,52,100
41760,note_on,480,0,4,,,,,,,,3,,,54,0
41760,note_on,120,0,2,,,,,,,,1,,,62,0
41760,note_on,0,0,2,,,,,,,,1,,,64,100
41880,note_on,0,0,2,,,,,,,,1,,,66,100
41880,note_on,120,0,2,,,,,,,,1,,,64,0
42000,note_on,0,0,2,,,,,,,,1,,,67,100
42000,note_on,120,0,2,,,,,,,,1,,,66,0
42120,note_on,0,0,2,,,,,,,,1,,,69,100
42120,note_on,120,0,2,,,,,,,,1,,,67,0
42240,note_on,480,0,4,,,,,,,,3,,,52,0
42240,note_on,0,0,4,,,,,,,,3,,,50,100
42240,note_on,120,0,2,,,,,,,,1,,,69,0
42240,note_on,0,0,2,,,,,,,,1,,,71,100
42480,note_on,0,0,2,,,,,,,,1,,,66,100
42480,note_on,240,0,2,,,,,,,,1,,,71,0
42480,note_on,42480,0,1,,,,,,,,0,,,74,100
42600,note_on,120,0,1,,,,,,,,0,,,74,0
42600,note_on,0,0,1,,,,,,,,0,,,76,100
42720,note_on,0,0,1,,,,,,,,0,,,74,100
42720,note_on,480,0,4,,,,,,,,3,,,50,0
42720,note_on,120,0,1,,,,,,,,0,,,76,0
42720,note_on,2400,0,3,,,,,,,,2,,,50,100
42720,note_on,240,0,2,,,,,,,,1,,,66,0
42720,note_on,0,0,2,,,,,,,,1,,,67,100
42720,note_on,0,0,4,,,,,,,,3,,,47,100
42840,note_on,120,0,1,,,,,,,,0,,,74,0
42840,note_on,0,0,1,,,,,,,,0,,,72,100
42960,note_on,0,0,1,,,,,,,,0,,,71,100
42960,note_on,120,0,1,,,,,,,,0,,,72,0
43080,note_on,120,0,1,,,,,,,,0,,,71,0
43080,note_on,0,0,1,,,,,,,,0,,,69,100
43200,note_on,480,0,3,,,,,,,,2,,,50,0
43200,note_on,480,0,4,,,,,,,,3,,,47,0
43200,note_on,120,0,1,,,,,,,,0,,,69,0
43200,note_on,0,0,1,,,,,,,,0,,,67,100
43200,note_on,0,0,4,,,,,,,,3,,,48,100
43200,note_on,0,0,3,,,,,,,,2,,,52,100
43320,note_on,0,0,1,,,,,,,,0,,,72,100
43320,note_on,0,0,2,,,,,,,,1,,,69,100
43320,note_on,600,0,2,,,,,,,,1,,,67,0
43320,note_on,120,0,1,,,,,,,,0,,,67,0
43380,note_on,60,0,2,,,,,,,,1,,,69,0
43380,note_on,0,0,2,,,,,,,,1,,,71,100
43440,note_on,120,0,1,,,,,,,,0,,,72,0
43440,note_on,0,0,2,,,,,,,,1,,,72,100
43440,note_on,60,0,2,,,,,,,,1,,,71,0
43440,note_on,0,0,1,,,,,,,,0,,,76,100
43560,note_on,120,0,1,,,,,,,,0,,,76,0
43560,note_on,0,0,1,,,,,,,,0,,,79,100
43560,note_on,0,0,2,,,,,,,,1,,,71,100
43560,note_on,120,0,2,,,,,,,,1,,,72,0
43680,note_on,480,0,3,,,,,,,,2,,,52,0
43680,note_on,120,0,1,,,,,,,,0,,,79,0
43680,note_on,0,0,4,,,,,,,,3,,,50,100
43680,note_on,0,0,3,,,,,,,,2,,,54,100
43680,note_on,0,0,1,,,,,,,,0,,,78,100
43680,note_on,120,0,2,,,,,,,,1,,,71,0
43680,note_on,0,0,2,,,,,,,,1,,,69,100
43680,note_on,480,0,4,,,,,,,,3,,,48,0
43800,note_on,0,0,1,,,,,,,,0,,,76,100
43800,note_on,120,0,1,,,,,,,,0,,,78,0
43800,note_on,0,0,2,,,,,,,,1,,,67,100
43800,note_on,120,0,2,,,,,,,,1,,,69,0
43920,note_on,0,0,2,,,,,,,,1,,,71,100
43920,note_on,0,0,1,,,,,,,,0,,,74,100
43920,note_on,120,0,1,,,,,,,,0,,,76,0
43920,note_on,120,0,2,,,,,,,,1,,,67,0
44040,note_on,120,0,2,,,,,,,,1,,,71,0
44040,note_on,0,0,1,,,,,,,,0,,,72,100
44040,note_on,120,0,1,,,,,,,,0,,,74,0
44040,note_on,0,0,2,,,,,,,,1,,,69,100
44160,note_on,0,0,3,,,,,,,,2,,,55,100
44160,note_on,480,0,4,,,,,,,,3,,,50,0
44160,note_on,0,0,1,,,,,,,,0,,,71,100
44160,note_on,0,0,4,,,,,,,,3,,,43,100
44160,note_on,480,0,3,,,,,,,,2,,,54,0
44160,note_on,120,0,2,,,,,,,,1,,,69,0
44160,note_on,0,0,2,,,,,,,,1,,,67,100
44160,note_on,120,0,1,,,,,,,,0,,,72,0
44280,note_on,120,0,2,,,,,,,,1,,,67,0
44280,note_on,0,0,2,,,,,,,,1,,,69,100
44400,note_on,240,0,1,,,,,,,,0,,,71,0
44400,note_on,0,0,1,,,,,,,,0,,,76,100
44400,note_on,120,0,2,,,,,,,,1,,,69,0
44400,note_on,0,0,2,,,,,,,,1,,,67,100
44520,note_on,0,0,2,,,,,,,,1,,,66,100
44520,note_on,120,0,2,,,,,,,,1,,,67,0
44640,note_on,240,0,1,,,,,,,,0,,,76,0
44640,note_on,480,0,3,,,,,,,,2,,,55,0
44640,note_on,0,0,1,,,,,,,,0,,,74,100
44640,note_on,0,0,4,,,,,,,,3,,,55,100
44640,note_on,480,0,4,,,,,,,,3,,,43,0
44640,note_on,120,0,2,,,,,,,,1,,,66,0
44640,note_on,0,0,2,,,,,,,,1,,,67,100
44640,note_on,0,0,3,,,,,,,,2,,,59,100
44760,note_on,0,0,2,,,,,,,,1,,,69,100
44760,note_on,120,0,2,,,,,,,,1,,,67,0
44880,note_on,120,0,2,,,,,,,,1,,,69,0
44880,note_on,0,0,2,,,,,,,,1,,,71,100
45000,note_on,0,0,2,,,,,,,,1,,,72,100
45000,note_on,120,0,2,,,,,,,,1,,,71,0
45120,note_on,0,0,2,,,,,,,,1,,,74,100
45120,note_on,120,0,2,,,,,,,,1,,,72,0
45120,note_on,480,0,4,,,,,,,,3,,,55,0
45120,note_on,0,0,4,,,,,,,,3,,,54,100
45120,note_on,0,0,3,,,,,,,,2,,,57,100
45120,note_on,480,0,3,,,,,,,,2,,,59,0
45240,note_on,0,0,2,,,,,,,,1,,,69,100
45240,note_on,120,0,2,,,,,,,,1,,,74,0
45240,note_on,600,0,1,,,,,,,,0,,,74,0
45240,note_on,0,0,1,,,,,,,,0,,,72,100
45300,note_on,60,0,1,,,,,,,,0,,,72,0
45300,note_on,0,0,1,,,,,,,,0,,,71,100
45360,note_on,60,0,1,,,,,,,,0,,,71,0
45360,note_on,0,0,2,,,,,,,,1,,,66,100
45360,note_on,120,0,2,,,,,,,,1,,,69,0
45360,note_on,0,0,1,,,,,,,,0,,,69,100
45480,note_on,0,0,1,,,,,,,,0,,,71,100
45480,note_on,0,0,2,,,,,,,,1,,,62,100
45480,note_on,120,0,2,,,,,,,,1,,,66,0
45480,note_on,120,0,1,,,,,,,,0,,,69,0
45600,note_on,480,0,3,,,,,,,,2,,,57,0
45600,note_on,120,0,1,,,,,,,,0,,,71,0
45600,note_on,0,0,1,,,,,,,,0,,,72,100
45600,note_on,120,0,2,,,,,,,,1,,,62,0
45600,note_on,0,0,2,,,,,,,,1,,,64,100
45600,note_on,0,0,4,,,,,,,,3,,,52,100
45600,note_on,480,0,4,,,,,,,,3,,,54,0
45600,note_on,0,0,3,,,,,,,,2,,,55,100
45720,note_on,0,0,1,,,,,,,,0,,,74,100
45720,note_on,120,0,2,,,,,,,,1,,,64,0
45720,note_on,0,0,2,,,,,,,,1,,,66,100
45720,note_on,120,0,1,,,,,,,,0,,,72,0
45840,note_on,120,0,1,,,,,,,,0,,,74,0
45840,note_on,0,0,2,,,,,,,,1,,,67,100
45840,note_on,120,0,2,,,,,,,,1,,,66,0
45840,note_on,0,0,1,,,,,,,,0,,,71,100
45960,note_on,0,0,1,,,,,,,,0,,,72,100
45960,note_on,120,0,1,,,,,,,,0,,,71,0
45960,note_on,0,0,2,,,,,,,,1,,,69,100
45960,note_on,120,0,2,,,,,,,,1,,,67,0
46080,note_on,0,0,1,,,,,,,,0,,,74,100
46080,note_on,120,0,1,,,,,,,,0,,,72,0
46080,note_on,0,0,4,,,,,,,,3,,,50,100
46080,note_on,0,0,2,,,,,,,,1,,,71,100
46080,note_on,0,0,3,,,,,,,,2,,,62,100
46080,note_on,120,0,2,,,,,,,,1,,,69,0
46080,note_on,480,0,4,,,,,,,,3,,,52,0
46080,note_on,480,0,3,,,,,,,,2,,,55,0
46200,note_on,0,0,1,,,,,,,,0,,,72,100
46200,note_on,120,0,1,,,,,,,,0,,,74,0
46320,note_on,240,0,2,,,,,,,,1,,,71,0
46320,note_on,0,0,2,,,,,,,,1,,,66,100
46320,note_on,120,0,1,,,,,,,,0,,,72,0
46320,note_on,0,0,1,,,,,,,,0,,,74,100
46440,note_on,120,0,1,,,,,,,,0,,,74,0
46440,note_on,0,0,1,,,,,,,,0,,,76,100
46560,note_on,0,0,4,,,,,,,,3,,,47,100
46560,note_on,480,0,4,,,,,,,,3,,,50,0
46560,note_on,480,0,3,,,,,,,,2,,,62,0
46560,note_on,0,0,3,,,,,,,,2,,,50,100
46560,note_on,120,0,1,,,,,,,,0,,,76,0
46560,note_on,0,0,1,,,,,,,,0,,,74,100
46560,note_on,240,0,2,,,,,,,,1,,,66,0
46560,note_on,0,0,2,,,,,,,,1,,,67,100
46680,note_on,120,0,1,,,,,,,,0,,,74,0
46680,note_on,0,0,1,,,,,,,,0,,,72,100
46800,note_on,0,0,1,,,,,,,,0,,,71,100
46800,note_on,120,0,1,,,,,,,,0,,,72,0
46920,note_on,0,0,1,,,,,,,,0,,,69,100
46920,note_on,120,0,1,,,,,,,,0,,,71,0
47040,note_on,0,0,1,,,,,,,,0,,,67,100
47040,note_on,120,0,1,,,,,,,,0,,,69,0
47040,note_on,0,0,4,,,,,,,,3,,,48,100
47040,note_on,480,0,4,,,,,,,,3,,,47,0
47040,note_on,0,0,3,,,,,,,,2,,,52,100
47040,note_on,480,0,3,,,,,,,,2,,,50,0
47160,note_on,0,0,2,,,,,,,,1,,,69,100
47160,note_on,600,0,2,,,,,,,,1,,,67,0
47160,note_on,120,0,1,,,,,,,,0,,,67,0
47160,note_on,0,0,1,,,,,,,,0,,,72,100
47220,note_on,0,0,2,,,,,,,,1,,,71,100
47220,note_on,60,0,2,,,,,,,,1,,,69,0
47280,note_on,60,0,2,,,,,,,,1,,,71,0
47280,note_on,0,0,1,,,,,,,,0,,,76,100
47280,note_on,0,0,2,,,,,,,,1,,,72,100
47280,note_on,120,0,1,,,,,,,,0,,,72,0
47400,note_on,120,0,1,,,,,,,,0,,,76,0
47400,note_on,120,0,2,,,,,,,,1,,,72,0
47400,note_on,0,0,2,,,,,,,,1,,,71,100
47400,note_on,0,0,1,,,,,,,,0,,,79,100
47520,note_on,480,0,3,,,,,,,,2,,,52,0
47520,note_on,0,0,3,,,,,,,,2,,,54,100
47520,note_on,0,0,2,,,,,,,,1,,,69,100
47520,note_on,480,0,4,,,,,,,,3,,,48,0
47520,note_on,0,0,4,,,,,,,,3,,,50,100
47520,note_on,120,0,1,,,,,,,,0,,,79,0
47520,note_on,0,0,1,,,,,,,,0,,,78,100
47520,note_on,120,0,2,,,,,,,,1,,,71,0
47640,note_on,120,0,1,,,,,,,,0,,,78,0
47640,note_on,0,0,1,,,,,,,,0,,,76,100
47640,note_on,120,0,2,,,,,,,,1,,,69,0
47640,note_on,0,0,2,,,,,,,,1,,,67,100
47760,note_on,0,0,2,,,,,,,,1,,,71,100
47760,note_on,120,0,1,,,,,,,,0,,,76,0
47760,note_on,0,0,1,,,,,,,,0,,,74,100
47760,note_on,120,0,2,,,,,,,,1,,,67,0
47880,note_on,0,0,2,,,,,,,,1,,,69,100
47880,note_on,120,0,1,,,,,,,,0,,,74,0
47880,note_on,0,0,1,,,,,,,,0,,,72,100
47880,note_on,120,0,2,,,,,,,,1,,,71,0
48000,note_on,0,0,3,,,,,,,,2,,,55,100
48000,note_on,480,0,3,,,,,,,,2,,,54,0
48000,note_on,0,0,2,,,,,,,,1,,,67,100
48000,note_on,480,0,4,,,,,,,,3,,,50,0
48000,note_on,120,0,2,,,,,,,,1,,,69,0
48000,note_on,0,0,4,,,,,,,,3,,,43,100
48000,note_on,120,0,1,,,,,,,,0,,,72,0
48000,note_on,0,0,1,,,,,,,,0,,,71,100
48120,note_on,0,0,2,,,,,,,,1,,,69,100
48120,note_on,120,0,2,,,,,,,,1,,,67,0
48240,note_on,120,0,2,,,,,,,,1,,,69,0
48240,note_on,0,0,1,,,,,,,,0,,,76,100
48240,note_on,0,0,2,,,,,,,,1,,,67,100
48240,note_on,240,0,1,,,,,,,,0,,,71,0
48360,note_on,0,0,2,,,,,,,,1,,,66,100
48360,note_on,120,0,2,,,,,,,,1,,,67,0
48480,note_on,0,0,3,,,,,,,,2,,,59,100
48480,note_on,0,0,4,,,,,,,,3,,,55,100
48480,note_on,480,0,4,,,,,,,,3,,,43,0
48480,note_on,0,0,1,,,,,,,,0,,,74,100
48480,note_on,240,0,1,,,,,,,,0,,,76,0
48480,note_on,480,0,3,,,,,,,,2,,,55,0
48480,note_on,120,0,2,,,,,,,,1,,,66,0
48480,note_on,0,0,2,,,,,,,,1,,,67,100
48600,note_on,0,0,2,,,,,,,,1,,,69,100
48600,note_on,120,0,2,,,,,,,,1,,,67,0
48720,note_on,0,0,2,,,,,,,,1,,,71,100
48720,note_on,120,0,2,,,,,,,,1,,,69,0
48840,note_on,120,0,2,,,,,,,,1,,,71,0
48840,note_on,0,0,2,,,,,,,,1,,,72,100
48960,note_on,0,0,4,,,,,,,,3,,,54,100
48960,note_on,480,0,4,,,,,,,,3,,,55,0
48960,note_on,0,0,3,,,,,,,,2,,,57,100
48960,note_on,480,0,3,,,,,,,,2,,,59,0
48960,note_on,0,0,2,,,,,,,,1,,,74,100
48960,note_on,120,0,2,,,,,,,,1,,,72,0
49080,note_on,600,0,1,,,,,,,,0,,,74,0
49080,note_on,120,0,2,,,,,,,,1,,,74,0
49080,note_on,0,0,2,,,,,,,,1,,,69,100
49080,note_on,0,0,1,,,,,,,,0,,,72,100
49140,note_on,0,0,1,,,,,,,,0,,,71,100
49140,note_on,60,0,1,,,,,,,,0,,,72,0
49200,note_on,120,0,2,,,,,,,,1,,,69,0
49200,note_on,0,0,2,,,,,,,,1,,,66,100
49200,note_on,0,0,1,,,,,,,,0,,,69,100
49200,note_on,60,0,1,,,,,,,,0,,,71,0
49320,note_on,0,0,2,,,,,,,,1,,,62,100
49320,note_on,120,0,1,,,,,,,,0,,,69,0
49320,note_on,120,0,2,,,,,,,,1,,,66,0
49320,note_on,0,0,1,,,,,,,,0,,,71,100
49440,note_on,120,0,1,,,,,,,,0,,,71,0
49440,note_on,0,0,2,,,,,,,,1,,,64,100
49440,note_on,0,0,3,,,,,,,,2,,,55,100
49440,note_on,0,0,1,,,,,,,,0,,,72,100
49440,note_on,120,0,2,,,,,,,,1,,,62,0
49440,note_on,0,0,4,,,,,,,,3,,,52,100
49440,note_on,480,0,4,,,,,,,,3,,,54,0
49440,note_on,480,0,3,,,,,,,,2,,,57,0
49560,note_on,0,0,2,,,,,,,,1,,,66,100
49560,note_on,0,0,1,,,,,,,,0,,,74,100
49560,note_on,120,0,1,,,,,,,,0,,,72,0
49560,note_on,120,0,2,,,,,,,,1,,,64,0
49680,note_on,120,0,2,,,,,,,,1,,,66,0
49680,note_on,0,0,2,,,,,,,,1,,,67,100
49680,note_on,120,0,1,,,,,,,,0,,,74,0
49680,note_on,0,0,1,,,,,,,,0,,,71,100
49800,note_on,120,0,1,,,,,,,,0,,,71,0
49800,note_on,0,0,1,,,,,,,,0,,,72,100
49800,note_on,120,0,2,,,,,,,,1,,,67,0
49800,note_on,0,0,2,,,,,,,,1,,,69,100
49920,note_on,0,0,4,,,,,,,,3,,,50,100
49920,note_on,120,0,1,,,,,,,,0,,,72,0
49920,note_on,0,0,1,,,,,,,,0,,,74,100
49920,note_on,480,0,4,,,,,,,,3,,,52,0
49920,note_on,0,0,2,,,,,,,,1,,,71,100
49920,note_on,120,0,2,,,,,,,,1,,,69,0
49920,note_on,480,0,3,,,,,,,,2,,,55,0
49920,note_on,0,0,3,,,,,,,,2,,,62,100
50040,note_on,0,0,1,,,,,,,,0,,,72,100
50040,note_on,120,0,1,,,,,,,,0,,,74,0
50160,note_on,120,0,1,,,,,,,,0,,,72,0
50160,note_on,0,0,2,,,,,,,,1,,,66,100
50160,note_on,240,0,2,,,,,,,,1,,,71,0
50160,note_on,0,0,1,,,,,,,,0,,,74,100
50280,note_on,120,0,1,,,,,,,,0,,,74,0
50280,note_on,0,0,1,,,,,,,,0,,,76,100
50400,note_on,120,0,1,,,,,,,,0,,,76,0
50400,note_on,0,0,1,,,,,,,,0,,,74,100
50400,note_on,0,0,3,,,,,,,,2,,,50,100
50400,note_on,480,0,3,,,,,,,,2,,,62,0
50400,note_on,0,0,4,,,,,,,,3,,,47,100
50400,note_on,480,0,4,,,,,,,,3,,,50,0
50400,note_on,240,0,2,,,,,,,,1,,,66,0
50400,note_on,0,0,2,,,,,,,,1,,,67,100
50520,note_on,120,0,1,,,,,,,,0,,,74,0
50520,note_on,0,0,1,,,,,,,,0,,,72,100
50640,note_on,0,0,1,,,,,,,,0,,,71,100
50640,note_on,120,0,1,,,,,,,,0,,,72,0
50760,note_on,0,0,1,,,,,,,,0,,,69,100
50760,note_on,120,0,1,,,,,,,,0,,,71,0
50880,note_on,0,0,1,,,,,,,,0,,,67,100
50880,note_on,120,0,1,,,,,,,,0,,,69,0
50880,note_on,0,0,3,,,,,,,,2,,,52,100
50880,note_on,480,0,3,,,,,,,,2,,,50,0
50880,note_on,0,0,4,,,,,,,,3,,,48,100
50880,note_on,480,0,4,,,,,,,,3,,,47,0
51000,note_on,120,0,1,,,,,,,,0,,,67,0
51000,note_on,0,0,2,,,,,,,,1,,,69,100
51000,note_on,600,0,2,,,,,,,,1,,,67,0
51000,note_on,0,0,1,,,,,,,,0,,,72,100
51060,note_on,0,0,2,,,,,,,,1,,,71,100
51060,note_on,60,0,2,,,,,,,,1,,,69,0
51120,note_on,120,0,1,,,,,,,,0,,,72,0
51120,note_on,0,0,2,,,,,,,,1,,,72,100
51120,note_on,60,0,2,,,,,,,,1,,,71,0
51120,note_on,0,0,1,,,,,,,,0,,,76,100
51240,note_on,120,0,2,,,,,,,,1,,,72,0
51240,note_on,0,0,2,,,,,,,,1,,,71,100
51240,note_on,0,0,1,,,,,,,,0,,,79,100
51240,note_on,120,0,1,,,,,,,,0,,,76,0
51360,note_on,480,0,4,,,,,,,,3,,,48,0
51360,note_on,0,0,4,,,,,,,,3,,,50,100
51360,note_on,0,0,1,,,,,,,,0,,,78,100
51360,note_on,0,0,2,,,,,,,,1,,,69,100
51360,note_on,0,0,3,,,,,,,,2,,,54,100
51360,note_on,480,0,3,,,,,,,,2,,,52,0
51360,note_on,120,0,1,,,,,,,,0,,,79,0
51360,note_on,120,0,2,,,,,,,,1,,,71,0
51480,note_on,120,0,2,,,,,,,,1,,,69,0
51480,note_on,0,0,1,,,,,,,,0,,,76,100
51480,note_on,120,0,1,,,,,,,,0,,,78,0
51480,note_on,0,0,2,,,,,,,,1,,,67,100
51600,note_on,120,0,1,,,,,,,,0,,,76,0
51600,note_on,120,0,2,,,,,,,,1,,,67,0
51600,note_on,0,0,2,,,,,,,,1,,,71,100
51600,note_on,0,0,1,,,,,,,,0,,,74,100
51720,note_on,120,0,1,,,,,,,,0,,,74,0
51720,note_on,0,0,1,,,,,,,,0,,,72,100
51720,note_on,120,0,2,,,,,,,,1,,,71,0
51720,note_on,0,0,2,,,,,,,,1,,,69,100
51840,note_on,0,0,3,,,,,,,,2,,,55,100
51840,note_on,0,0,4,,,,,,,,3,,,43,100
51840,note_on,480,0,4,,,,,,,,3,,,50,0
51840,note_on,480,0,3,,,,,,,,2,,,54,0
51840,note_on,120,0,1,,,,,,,,0,,,72,0
51840,note_on,0,0,1,,,,,,,,0,,,71,100
51840,note_on,120,0,2,,,,,,,,1,,,69,0
51840,note_on,0,0,2,,,,,,,,1,,,67,100
52800,note_on,960,0,4,,,,,,,,3,,,43,0
52800,note_on,960,0,1,,,,,,,,0,,,71,0
52800,note_on,960,0,2,,,,,,,,1,,,67,0
52800,marker,12480,1,0,,,,,,,,,,,,
52800,note_on,960,0,3,,,,,,,,2,,,55,0
52920,note_on,120,0,2,,,,,,,,1,,,64,100
53040,note_on,120,0,2,,,,,,,,1,,,64,0
53040,note_on,0,0,2,,,,,,,,1,,,62,100
53160,note_on,120,0,2,,,,,,,,1,,,62,0
53160,note_on,0,0,2,,,,,,,,1,,,60,100
53280,note_on,480,0,3,,,,,,,,2,,,55,100
53280,note_on,0,0,2,,,,,,,,1,,,59,100
53280,note_on,120,0,2,,,,,,,,1,,,60,0
53520,note_on,0,0,2,,,,,,,,1,,,58,100
53520,note_on,240,0,2,,,,,,,,1,,,59,0
53760,note_on,0,0,3,,,,,,,,2,,,54,100
53760,note_on,480,0,3,,,,,,,,2,,,55,0
53760,note_on,240,0,2,,,,,,,,1,,,58,0
53760,note_on,0,0,2,,,,,,,,1,,,57,100
54000,note_on,0,0,2,,,,,,,,1,,,62,100
54000,note_on,240,0,2,,,,,,,,1,,,57,0
54240,note_on,0,0,2,,,,,,,,1,,,61,100
54240,note_on,240,0,2,,,,,,,,1,,,62,0
54240,note_on,0,0,3,,,,,,,,2,,,52,100
54240,note_on,480,0,3,,,,,,,,2,,,54,0
54480,note_on,0,0,2,,,,,,,,1,,,60,100
54480,note_on,240,0,2,,,,,,,,1,,,61,0
54720,note_on,480,0,3,,,,,,,,2,,,52,0
54720,note_on,0,0,3,,,,,,,,2,,,50,100
54720,note_on,240,0,2,,,,,,,,1,,,60,0
54720,note_on,0,0,2,,,,,,,,1,,,59,100
54840,note_on,2040,0,1,,,,,,,,0,,,62,100
54960,note_on,0,0,1,,,,,,,,0,,,64,100
54960,note_on,120,0,1,,,,,,,,0,,,62,0
55080,note_on,0,0,1,,,,,,,,0,,,66,100
55080,note_on,120,0,1,,,,,,,,0,,,64,0
55200,note_on,120,0,1,,,,,,,,0,,,66,0
55200,note_on,0,0,1,,,,,,,,0,,,67,100
55200,note_on,480,0,2,,,,,,,,1,,,59,0
55200,note_on,480,0,3,,,,,,,,2,,,50,0
55200,note_on,0,0,3,,,,,,,,2,,,47,100
55320,note_on,120,0,2,,,,,,,,1,,,62,100
55440,note_on,0,0,2,,,,,,,,1,,,64,100
55440,note_on,120,0,2,,,,,,,,1,,,62,0
55440,note_on,240,0,1,,,,,,,,0,,,67,0
55440,note_on,0,0,1,,,,,,,,0,,,68,100
55560,note_on,120,0,2,,,,,,,,1,,,64,0
55560,note_on,0,0,2,,,,,,,,1,,,65,100
55680,note_on,0,0,2,,,,,,,,1,,,64,100
55680,note_on,120,0,2,,,,,,,,1,,,65,0
55680,note_on,0,0,3,,,,,,,,2,,,48,100
55680,note_on,480,0,3,,,,,,,,2,,,47,0
55680,note_on,0,0,1,,,,,,,,0,,,69,100
55680,note_on,240,0,1,,,,,,,,0,,,68,0
55800,note_on,120,0,2,,,,,,,,1,,,64,0
55800,note_on,0,0,2,,,,,,,,1,,,60,100
55920,note_on,240,0,1,,,,,,,,0,,,69,0
55920,note_on,120,0,2,,,,,,,,1,,,60,0
55920,note_on,0,0,1,,,,,,,,0,,,64,100
55920,note_on,0,0,2,,,,,,,,1,,,57,100
56160,note_on,0,0,1,,,,,,,,0,,,65,100
56160,note_on,240,0,1,,,,,,,,0,,,64,0
56160,note_on,480,0,3,,,,,,,,2,,,48,0
56160,note_on,0,0,3,,,,,,,,2,,,50,100
56280,note_on,360,0,2,,,,,,,,1,,,57,0
56280,note_on,0,0,2,,,,,,,,1,,,59,100
56340,note_on,0,0,2,,,,,,,,1,,,60,100
56340,note_on,60,0,2,,,,,,,,1,,,59,0
56400,note_on,60,0,2,,,,,,,,1,,,60,0
56400,note_on,0,0,1,,,,,,,,0,,,66,100
56400,note_on,0,0,2,,,,,,,,1,,,59,100
56400,note_on,240,0,1,,,,,,,,0,,,65,0
56520,note_on,120,0,2,,,,,,,,1,,,59,0
56520,note_on,0,0,2,,,,,,,,1,,,57,100
56640,note_on,120,0,2,,,,,,,,1,,,57,0
56640,note_on,0,0,2,,,,,,,,1,,,55,100
56640,note_on,480,0,3,,,,,,,,2,,,50,0
56640,note_on,0,0,3,,,,,,,,2,,,43,100
56640,note_on,0,0,1,,,,,,,,0,,,67,100
56640,note_on,240,0,1,,,,,,,,0,,,66,0
56760,note_on,0,0,2,,,,,,,,1,,,64,100
56760,note_on,120,0,2,,,,,,,,1,,,55,0
56880,note_on,0,0,2,,,,,,,,1,,,62,100
56880,note_on,120,0,2,,,,,,,,1,,,64,0
57000,note_on,120,0,2,,,,,,,,1,,,62,0
57000,note_on,0,0,2,,,,,,,,1,,,60,100
57120,note_on,0,0,2,,,,,,,,1,,,59,100
57120,note_on,120,0,2,,,,,,,,1,,,60,0
57120,note_on,480,0,1,,,,,,,,0,,,67,0
57120,note_on,480,0,3,,,,,,,,2,,,43,0
57120,note_on,0,0,3,,,,,,,,2,,,55,100
57240,note_on,120,0,1,,,,,,,,0,,,64,100
57360,note_on,0,0,2,,,,,,,,1,,,58,100
57360,note_on,240,0,2,,,,,,,,1,,,59,0
57360,note_on,0,0,1,,,,,,,,0,,,62,100
57360,note_on,120,0,1,,,,,,,,0,,,64,0
57480,note_on,0,0,1,,,,,,,,0,,,61,100
57480,note_on,120,0,1,,,,,,,,0,,,62,0
57600,note_on,480,0,3,,,,,,,,2,,,55,0
57600,note_on,0,0,3,,,,,,,,2,,,54,100
57600,note_on,0,0,2,,,,,,,,1,,,57,100
57600,note_on,240,0,2,,,,,,,,1,,,58,0
57600,note_on,0,0,1,,,,,,,,0,,,62,100
57600,note_on,120,0,1,,,,,,,,0,,,61,0
57720,note_on,0,0,1,,,,,,,,0,,,66,100
57720,note_on,120,0,1,,,,,,,,0,,,62,0
57840,note_on,240,0,2,,,,,,,,1,,,57,0
57840,note_on,0,0,1,,,,,,,,0,,,69,100
57840,note_on,120,0,1,,,,,,,,0,,,66,0
57840,note_on,0,0,2,,,,,,,,1,,,62,100
58080,note_on,0,0,3,,,,,,,,2,,,52,100
58080,note_on,480,0,3,,,,,,,,2,,,54,0
58080,note_on,0,0,2,,,,,,,,1,,,61,100
58080,note_on,240,0,2,,,,,,,,1,,,62,0
58200,note_on,360,0,1,,,,,,,,0,,,69,0
58200,note_on,0,0,1,,,,,,,,0,,,67,100
58260,note_on,60,0,1,,,,,,,,0,,,67,0
58260,note_on,0,0,1,,,,,,,,0,,,66,100
58320,note_on,60,0,1,,,,,,,,0,,,66,0
58320,note_on,0,0,2,,,,,,,,1,,,60,100
58320,note_on,240,0,2,,,,,,,,1,,,61,0
58320,note_on,0,0,1,,,,,,,,0,,,67,100
58440,note_on,120,0,1,,,,,,,,0,,,67,0
58440,note_on,0,0,1,,,,,,,,0,,,69,100
58560,note_on,0,0,1,,,,,,,,0,,,71,100
58560,note_on,120,0,1,,,,,,,,0,,,69,0
58560,note_on,0,0,3,,,,,,,,2,,,50,100
58560,note_on,240,0,2,,,,,,,,1,,,60,0
58560,note_on,480,0,3,,,,,,,,2,,,52,0
58560,note_on,0,0,2,,,,,,,,1,,,59,100
58680,note_on,120,0,1,,,,,,,,0,,,71,0
58680,note_on,0,0,1,,,,,,,,0,,,62,100
58800,note_on,0,0,1,,,,,,,,0,,,64,100
58800,note_on,120,0,1,,,,,,,,0,,,62,0
58920,note_on,0,0,1,,,,,,,,0,,,66,100
58920,note_on,120,0,1,,,,,,,,0,,,64,0
59040,note_on,120,0,1,,,,,,,,0,,,66,0
59040,note_on,480,0,2,,,,,,,,1,,,59,0
59040,note_on,0,0,3,,,,,,,,2,,,47,100
59040,note_on,480,0,3,,,,,,,,2,,,50,0
59040,note_on,0,0,1,,,,,,,,0,,,67,100
59160,note_on,120,0,2,,,,,,,,1,,,62,100
59280,note_on,0,0,1,,,,,,,,0,,,68,100
59280,note_on,0,0,2,,,,,,,,1,,,64,100
59280,note_on,240,0,1,,,,,,,,0,,,67,0
59280,note_on,120,0,2,,,,,,,,1,,,62,0
59400,note_on,0,0,2,,,,,,,,1,,,65,100
59400,note_on,120,0,2,,,,,,,,1,,,64,0
59520,note_on,240,0,1,,,,,,,,0,,,68,0
59520,note_on,0,0,1,,,,,,,,0,,,69,100
59520,note_on,480,0,3,,,,,,,,2,,,47,0
59520,note_on,0,0,2,,,,,,,,1,,,64,100
59520,note_on,120,0,2,,,,,,,,1,,,65,0
59520,note_on,0,0,3,,,,,,,,2,,,48,100
59640,note_on,120,0,2,,,,,,,,1,,,64,0
59640,note_on,0,0,2,,,,,,,,1,,,60,100
59760,note_on,120,0,2,,,,,,,,1,,,60,0
59760,note_on,0,0,2,,,,,,,,1,,,57,100
59760,note_on,0,0,1,,,,,,,,0,,,64,100
59760,note_on,240,0,1,,,,,,,,0,,,69,0
60000,note_on,480,0,3,,,,,,,,2,,,48,0
60000,note_on,0,0,3,,,,,,,,2,,,50,100
60000,note_on,0,0,1,,,,,,,,0,,,65,100
60000,note_on,240,0,1,,,,,,,,0,,,64,0
60120,note_on,360,0,2,,,,,,,,1,,,57,0
60120,note_on,0,0,2,,,,,,,,1,,,59,100
60180,note_on,0,0,2,,,,,,,,1,,,60,100
60180,note_on,60,0,2,,,,,,,,1,,,59,0
60240,note_on,0,0,1,,,,,,,,0,,,66,100
60240,note_on,240,0,1,,,,,,,,0,,,65,0
60240,note_on,0,0,2,,,,,,,,1,,,59,100
60240,note_on,60,0,2,,,,,,,,1,,,60,0
60360,note_on,0,0,2,,,,,,,,1,,,57,100
60360,note_on,120,0,2,,,,,,,,1,,,59,0
60480,note_on,0,0,1,,,,,,,,0,,,67,100
60480,note_on,240,0,1,,,,,,,,0,,,66,0
60480,note_on,0,0,3,,,,,,,,2,,,43,100
60480,note_on,120,0,2,,,,,,,,1,,,57,0
60480,note_on,0,0,2,,,,,,,,1,,,55,100
60480,note_on,480,0,3,,,,,,,,2,,,50,0
60600,note_on,120,0,2,,,,,,,,1,,,55,0
60600,note_on,0,0,2,,,,,,,,1,,,64,100
60720,note_on,120,0,2,,,,,,,,1,,,64,0
60720,note_on,0,0,2,,,,,,,,1,,,62,100
60840,note_on,0,0,2,,,,,,,,1,,,60,100
60840,note_on,120,0,2,,,,,,,,1,,,62,0
60960,note_on,480,0,1,,,,,,,,0,,,67,0
60960,note_on,120,0,2,,,,,,,,1,,,60,0
60960,note_on,0,0,2,,,,,,,,1,,,59,100
60960,note_on,480,0,3,,,,,,,,2,,,43,0
60960,note_on,0,0,3,,,,,,,,2,,,55,100
61080,note_on,120,0,1,,,,,,,,0,,,64,100
61200,note_on,0,0,1,,,,,,,,0,,,62,100
61200,note_on,120,0,1,,,,,,,,0,,,64,0
61200,note_on,240,0,2,,,,,,,,1,,,59,0
61200,note_on,0,0,2,,,,,,,,1,,,58,100
61320,note_on,120,0,1,,,,,,,,0,,,62,0
61320,note_on,0,0,1,,,,,,,,0,,,61,100
61440,note_on,120,0,1,,,,,,,,0,,,61,0
61440,note_on,0,0,3,,,,,,,,2,,,54,100
61440,note_on,0,0,2,,,,,,,,1,,,57,100
61440,note_on,240,0,2,,,,,,,,1,,,58,0
61440,note_on,480,0,3,,,,,,,,2,,,55,0
61440,note_on,0,0,1,,,,,,,,0,,,62,100
61560,note_on,120,0,1,,,,,,,,0,,,62,0
61560,note_on,0,0,1,,,,,,,,0,,,66,100
61680,note_on,240,0,2,,,,,,,,1,,,57,0
61680,note_on,0,0,2,,,,,,,,1,,,62,100
61680,note_on,0,0,1,,,,,,,,0,,,69,100
61680,note_on,120,0,1,,,,,,,,0,,,66,0
61920,note_on,0,0,3,,,,,,,,2,,,52,100
61920,note_on,480,0,3,,,,,,,,2,,,54,0
61920,note_on,240,0,2,,,,,,,,1,,,62,0
61920,note_on,0,0,2,,,,,,,,1,,,61,100
62040,note_on,360,0,1,,,,,,,,0,,,69,0
62040,note_on,0,0,1,,,,,,,,0,,,67,100
62100,note_on,60,0,1,,,,,,,,0,,,67,0
62100,note_on,0,0,1,,,,,,,,0,,,66,100
62160,note_on,60,0,1,,,,,,,,0,,,66,0
62160,note_on,0,0,1,,,,,,,,0,,,67,100
62160,note_on,240,0,2,,,,,,,,1,,,61,0
62160,note_on,0,0,2,,,,,,,,1,,,60,100
62280,note_on,0,0,1,,,,,,,,0,,,69,100
62280,note_on,120,0,1,,,,,,,,0,,,67,0
62400,note_on,240,0,2,,,,,,,,1,,,60,0
62400,note_on,0,0,2,,,,,,,,1,,,59,100
62400,note_on,0,0,1,,,,,,,,0,,,71,100
62400,note_on,480,0,3,,,,,,,,2,,,52,0
62400,note_on,120,0,1,,,,,,,,0,,,69,0
62400,note_on,0,0,3,,,,,,,,2,,,50,100
62520,note_on,0,0,1,,,,,,,,0,,,62,100
62520,note_on,120,0,1,,,,,,,,0,,,71,0
62640,note_on,120,0,1,,,,,,,,0,,,62,0
62640,note_on,0,0,1,,,,,,,,0,,,64,100
62760,note_on,120,0,1,,,,,,,,0,,,64,0
62760,note_on,0,0,1,,,,,,,,0,,,66,100
62880,note_on,0,0,3,,,,,,,,2,,,47,100
62880,note_on,480,0,3,,,,,,,,2,,,50,0
62880,note_on,120,0,1,,,,,,,,0,,,66,0
62880,note_on,0,0,1,,,,,,,,0,,,67,100
62880,note_on,480,0,2,,,,,,,,1,,,59,0
63000,note_on,120,0,2,,,,,,,,1,,,62,100
63120,note_on,0,0,2,,,,,,,,1,,,64,100
63120,note_on,0,0,1,,,,,,,,0,,,68,100
63120,note_on,240,0,1,,,,,,,,0,,,67,0
63120,note_on,120,0,2,,,,,,,,1,,,62,0
63240,note_on,120,0,2,,,,,,,,1,,,64,0
63240,note_on,0,0,2,,,,,,,,1,,,65,100
63360,note_on,0,0,1,,,,,,,,0,,,69,100
63360,note_on,240,0,1,,,,,,,,0,,,68,0
63360,note_on,480,0,3,,,,,,,,2,,,47,0
63360,note_on,0,0,3,,,,,,,,2,,,48,100
63360,note_on,120,0,2,,,,,,,,1,,,65,0
63360,note_on,0,0,2,,,,,,,,1,,,64,100
63480,note_on,120,0,2,,,,,,,,1,,,64,0
63480,note_on,0,0,2,,,,,,,,1,,,60,100
63600,note_on,240,0,1,,,,,,,,0,,,69,0
63600,note_on,0,0,1,,,,,,,,0,,,64,100
63600,note_on,0,0,2,,,,,,,,1,,,57,100
63600,note_on,120,0,2,,,,,,,,1,,,60,0
63840,note_on,0,0,1,,,,,,,,0,,,65,100
63840,note_on,240,0,1,,,,,,,,0,,,64,0
63840,note_on,0,0,3,,,,,,,,2,,,50,100
63840,note_on,480,0,3,,,,,,,,2,,,48,0
63960,note_on,360,0,2,,,,,,,,1,,,57,0
63960,note_on,0,0,2,,,,,,,,1,,,59,100
64020,note_on,0,0,2,,,,,,,,1,,,60,100
64020,note_on,60,0,2,,,,,,,,1,,,59,0
64080,note_on,0,0,1,,,,,,,,0,,,66,100
64080,note_on,0,0,2,,,,,,,,1,,,59,100
64080,note_on,60,0,2,,,,,,,,1,,,60,0
64080,note_on,240,0,1,,,,,,,,0,,,65,0
64200,note_on,0,0,2,,,,,,,,1,,,57,100
64200,note_on,120,0,2,,,,,,,,1,,,59,0
64320,note_on,0,0,1,,,,,,,,0,,,67,100
64320,note_on,240,0,1,,,,,,,,0,,,66,0
64320,note_on,480,0,3,,,,,,,,2,,,50,0
64320,note_on,120,0,2,,,,,,,,1,,,57,0
64320,note_on,0,0,2,,,,,,,,1,,,55,100
64320,note_on,0,0,3,,,,,,,,2,,,43,100
65280,note_on,960,0,3,,,,,,,,2,,,43,0
65280,note_on,960,0,1,,,,,,,,0,,,67,0
65280,marker,12480,1,0,,,,,,,,,,,,
65280,note_on,960,0,2,,,,,,,,1,,,55,0
65400,note_on,120,0,2,,,,,,,,1,,,62,100
65520,note_on,120,0,2,,,,,,,,1,,,62,0
65520,note_on,0,0,2,,,,,,,,1,,,64,100
65640,note_on,120,0,2,,,,,,,,1,,,64,0
65640,note_on,0,0,2,,,,,,,,1,,,66,100
65760,note_on,120,0,2,,,,,,,,1,,,66,0
65760,note_on,480,0,3,,,,,,,,2,,,55,100
65760,note_on,0,0,2,,,,,,,,1,,,67,100
65880,note_on,120,0,2,,,,,,,,1,,,67,0
65880,note_on,0,0,2,,,,,,,,1,,,71,100
65880,note_on,600,0,1,,,,,,,,0,,,67,100
66000,note_on,120,0,1,,,,,,,,0,,,67,0
66000,note_on,0,0,2,,,,,,,,1,,,69,100
66000,note_on,120,0,2,,,,,,,,1,,,71,0
66000,note_on,0,0,1,,,,,,,,0,,,66,100
66120,note_on,0,0,1,,,,,,,,0,,,64,100
66120,note_on,0,0,2,,,,,,,,1,,,67,100
66120,note_on,120,0,2,,,,,,,,1,,,69,0
66120,note_on,120,0,1,,,,,,,,0,,,66,0
66240,note_on,120,0,1,,,,,,,,0,,,64,0
66240,note_on,0,0,1,,,,,,,,0,,,62,100
66240,note_on,480,0,3,,,,,,,,2,,,55,0
66240,note_on,0,0,2,,,,,,,,1,,,74,100
66240,note_on,0,0,3,,,,,,,,2,,,54,100
66240,note_on,120,0,2,,,,,,,,1,,,67,0
66360,note_on,0,0,1,,,,,,,,0,,,59,100
66360,note_on,120,0,1,,,,,,,,0,,,62,0
66480,note_on,120,0,1,,,,,,,,0,,,59,0
66480,note_on,0,0,1,,,,,,,,0,,,60,100
66600,note_on,120,0,1,,,,,,,,0,,,60,0
66600,note_on,0,0,1,,,,,,,,0,,,62,100
66720,note_on,120,0,1,,,,,,,,0,,,62,0
66720,note_on,0,0,1,,,,,,,,0,,,55,100
66720,note_on,0,0,3,,,,,,,,2,,,52,100
66720,note_on,480,0,3,,,,,,,,2,,,54,0
66840,note_on,0,0,2,,,,,,,,1,,,76,100
66840,note_on,600,0,2,,,,,,,,1,,,74,0
66960,note_on,0,0,2,,,,,,,,1,,,74,100
66960,note_on,120,0,2,,,,,,,,1,,,76,0
67080,note_on,0,0,2,,,,,,,,1,,,73,100
67080,note_on,120,0,2,,,,,,,,1,,,74,0
67200,note_on,120,0,2,,,,,,,,1,,,73,0
67200,note_on,0,0,2,,,,,,,,1,,,74,100
67200,note_on,480,0,3,,,,,,,,2,,,52,0
67200,note_on,0,0,3,,,,,,,,2,,,50,100
67320,note_on,0,0,1,,,,,,,,0,,,54,100
67320,note_on,600,0,1,,,,,,,,0,,,55,0
67440,note_on,120,0,1,,,,,,,,0,,,54,0
67440,note_on,0,0,1,,,,,,,,0,,,55,100
67560,note_on,120,0,1,,,,,,,,0,,,55,0
67560,note_on,0,0,1,,,,,,,,0,,,57,100
67680,note_on,0,0,1,,,,,,,,0,,,55,100
67680,note_on,0,0,3,,,,,,,,2,,,47,100
67680,note_on,480,0,3,,,,,,,,2,,,50,0
67680,note_on,120,0,1,,,,,,,,0,,,57,0
67800,note_on,600,0,2,,,,,,,,1,,,74,0
67800,note_on,0,0,2,,,,,,,,1,,,59,100
67920,note_on,120,0,2,,,,,,,,1,,,59,0
67920,note_on,0,0,2,,,,,,,,1,,,60,100
68040,note_on,120,0,2,,,,,,,,1,,,60,0
68040,note_on,0,0,2,,,,,,,,1,,,62,100
68160,note_on,480,0,3,,,,,,,,2,,,47,0
68160,note_on,120,0,2,,,,,,,,1,,,62,0
68160,note_on,0,0,3,,,,,,,,2,,,48,100
68160,note_on,0,0,2,,,,,,,,1,,,64,100
68280,note_on,0,0,1,,,,,,,,0,,,71,100
68280,note_on,0,0,2,,,,,,,,1,,,67,100
68280,note_on,120,0,2,,,,,,,,1,,,64,0
68280,note_on,600,0,1,,,,,,,,0,,,55,0
68400,note_on,0,0,2,,,,,,,,1,,,66,100
68400,note_on,120,0,2,,,,,,,,1,,,67,0
68400,note_on,120,0,1,,,,,,,,0,,,71,0
68400,note_on,0,0,1,,,,,,,,0,,,69,100
68520,note_on,0,0,2,,,,,,,,1,,,64,100
68520,note_on,120,0,2,,,,,,,,1,,,66,0
68520,note_on,120,0,1,,,,,,,,0,,,69,0
68520,note_on,0,0,1,,,,,,,,0,,,67,100
68640,note_on,0,0,3,,,,,,,,2,,,50,100
68640,note_on,120,0,2,,,,,,,,1,,,64,0
68640,note_on,120,0,1,,,,,,,,0,,,67,0
68640,note_on,480,0,3,,,,,,,,2,,,48,0
68640,note_on,0,0,2,,,,,,,,1,,,71,100
68640,note_on,0,0,1,,,,,,,,0,,,66,100
68760,note_on,120,0,1,,,,,,,,0,,,66,0
68760,note_on,0,0,1,,,,,,,,0,,,62,100
68880,note_on,240,0,2,,,,,,,,1,,,71,0
68880,note_on,0,0,2,,,,,,,,1,,,69,100
68880,note_on,120,0,1,,,,,,,,0,,,62,0
68880,note_on,0,0,1,,,,,,,,0,,,64,100
69000,note_on,0,0,1,,,,,,,,0,,,66,100
69000,note_on,120,0,1,,,,,,,,0,,,64,0
69120,note_on,0,0,3,,,,,,,,2,,,43,100
69120,note_on,480,0,3,,,,,,,,2,,,50,0
69120,note_on,0,0,2,,,,,,,,1,,,67,100
69120,note_on,120,0,1,,,,,,,,0,,,66,0
69120,note_on,0,0,1,,,,,,,,0,,,59,100
69120,note_on,240,0,2,,,,,,,,1,,,69,0
69240,note_on,0,0,2,,,,,,,,1,,,62,100
69240,note_on,120,0,2,,,,,,,,1,,,67,0
69360,note_on,120,0,2,,,,,,,,1,,,62,0
69360,note_on,0,0,2,,,,,,,,1,,,64,100
69360,note_on,240,0,1,,,,,,,,0,,,59,0
69360,note_on,0,0,1,,,,,,,,0,,,60,100
69480,note_on,0,0,2,,,,,,,,1,,,66,100
69480,note_on,120,0,2,,,,,,,,1,,,64,0
69600,note_on,0,0,2,,,,,,,,1,,,67,100
69600,note_on,480,0,3,,,,,,,,2,,,43,0
69600,note_on,0,0,3,,,,,,,,2,,,55,100
69600,note_on,240,0,1,,,,,,,,0,,,60,0
69600,note_on,0,0,1,,,,,,,,0,,,62,100
69600,note_on,120,0,2,,,,,,,,1,,,66,0
69720,note_on,0,0,1,,,,,,,,0,,,67,100
69720,note_on,120,0,1,,,,,,,,0,,,62,0
69720,note_on,0,0,2,,,,,,,,1,,,71,100
69720,note_on,120,0,2,,,,,,,,1,,,67,0
69840,note_on,0,0,1,,,,,,,,0,,,66,100
69840,note_on,0,0,2,,,,,,,,1,,,69,100
69840,note_on,120,0,2,,,,,,,,1,,,71,0
69840,note_on,120,0,1,,,,,,,,0,,,67,0
69960,note_on,120,0,1,,,,,,,,0,,,66,0
69960,note_on,0,0,2,,,,,,,,1,,,67,100
69960,note_on,120,0,2,,,,,,,,1,,,69,0
69960,note_on,0,0,1,,,,,,,,0,,,64,100
70080,note_on,120,0,1,,,,,,,,0,,,64,0
70080,note_on,0,0,1,,,,,,,,0,,,62,100
70080,note_on,120,0,2,,,,,,,,1,,,67,0
70080,note_on,0,0,3,,,,,,,,2,,,54,100
70080,note_on,480,0,3,,,,,,,,2,,,55,0
70080,note_on,0,0,2,,,,,,,,1,,,74,100
70200,note_on,0,0,1,,,,,,,,0,,,59,100
70200,note_on,120,0,1,,,,,,,,0,,,62,0
70320,note_on,0,0,1,,,,,,,,0,,,60,100
70320,note_on,120,0,1,,,,,,,,0,,,59,0
70440,note_on,0,0,1,,,,,,,,0,,,62,100
70440,note_on,120,0,1,,,,,,,,0,,,60,0
70560,note_on,120,0,1,,,,,,,,0,,,62,0
70560,note_on,0,0,3,,,,,,,,2,,,52,100
70560,note_on,480,0,3,,,,,,,,2,,,54,0
70560,note_on,0,0,1,,,,,,,,0,,,55,100
70680,note_on,600,0,2,,,,,,,,1,,,74,0
70680,note_on,0,0,2,,,,,,,,1,,,76,100
70800,note_on,120,0,2,,,,,,,,1,,,76,0
70800,note_on,0,0,2,,,,,,,,1,,,74,100
70920,note_on,120,0,2,,,,,,,,1,,,74,0
70920,note_on,0,0,2,,,,,,,,1,,,73,100
71040,note_on,0,0,2,,,,,,,,1,,,74,100
71040,note_on,120,0,2,,,,,,,,1,,,73,0
71040,note_on,0,0,3,,,,,,,,2,,,50,100
71040,note_on,480,0,3,,,,,,,,2,,,52,0
71160,note_on,600,0,1,,,,,,,,0,,,55,0
71160,note_on,0,0,1,,,,,,,,0,,,54,100
71280,note_on,0,0,1,,,,,,,,0,,,55,100
71280,note_on,120,0,1,,,,,,,,0,,,54,0
71400,note_on,120,0,1,,,,,,,,0,,,55,0
71400,note_on,0,0,1,,,,,,,,0,,,57,100
71520,note_on,480,0,3,,,,,,,,2,,,50,0
71520,note_on,0,0,3,,,,,,,,2,,,47,100
71520,note_on,120,0,1,,,,,,,,0,,,57,0
71520,note_on,0,0,1,,,,,,,,0,,,55,100
71640,note_on,0,0,2,,,,,,,,1,,,59,100
71640,note_on,600,0,2,,,,,,,,1,,,74,0
71760,note_on,120,0,2,,,,,,,,1,,,59,0
71760,note_on,0,0,2,,,,,,,,1,,,60,100
71880,note_on,0,0,2,,,,,,,,1,,,62,100
71880,note_on,120,0,2,,,,,,,,1,,,60,0
72000,note_on,480,0,3,,,,,,,,2,,,47,0
72000,note_on,0,0,2,,,,,,,,1,,,64,100
72000,note_on,120,0,2,,,,,,,,1,,,62,0
72000,note_on,0,0,3,,,,,,,,2,,,48,100
72120,note_on,0,0,2,,,,,,,,1,,,67,100
72120,note_on,120,0,2,,,,,,,,1,,,64,0
72120,note_on,0,0,1,,,,,,,,0,,,71,100
72120,note_on,600,0,1,,,,,,,,0,,,55,0
72240,note_on,0,0,1,,,,,,,,0,,,69,100
72240,note_on,120,0,1,,,,,,,,0,,,71,0
72240,note_on,0,0,2,,,,,,,,1,,,66,100
72240,note_on,120,0,2,,,,,,,,1,,,67,0
72360,note_on,0,0,1,,,,,,,,0,,,67,100
72360,note_on,120,0,1,,,,,,,,0,,,69,0
72360,note_on,120,0,2,,,,,,,,1,,,66,0
72360,note_on,0,0,2,,,,,,,,1,,,64,100
72480,note_on,480,0,3,,,,,,,,2,,,48,0
72480,note_on,0,0,3,,,,,,,,2,,,50,100
72480,note_on,0,0,2,,,,,,,,1,,,71,100
72480,note_on,0,0,1,,,,,,,,0,,,66,100
72480,note_on,120,0,2,,,,,,,,1,,,64,0
72480,note_on,120,0,1,,,,,,,,0,,,67,0
72600,note_on,120,0,1,,,,,,,,0,,,66,0
72600,note_on,0,0,1,,,,,,,,0,,,62,100
72720,note_on,240,0,2,,,,,,,,1,,,71,0
72720,note_on,120,0,1,,,,,,,,0,,,62,0
72720,note_on,0,0,1,,,,,,,,0,,,64,100
72720,note_on,0,0,2,,,,,,,,1,,,69,100
72840,note_on,120,0,1,,,,,,,,0,,,64,0
72840,note_on,0,0,1,,,,,,,,0,,,66,100
72960,note_on,0,0,1,,,,,,,,0,,,59,100
72960,note_on,0,0,3,,,,,,,,2,,,43,100
72960,note_on,0,0,2,,,,,,,,1,,,67,100
72960,note_on,240,0,2,,,,,,,,1,,,69,0
72960,note_on,480,0,3,,,,,,,,2,,,50,0
72960,note_on,120,0,1,,,,,,,,0,,,66,0
73080,note_on,0,0,2,,,,,,,,1,,,62,100
73080,note_on,120,0,2,,,,,,,,1,,,67,0
73200,note_on,240,0,1,,,,,,,,0,,,59,0
73200,note_on,0,0,1,,,,,,,,0,,,60,100
73200,note_on,0,0,2,,,,,,,,1,,,64,100
73200,note_on,120,0,2,,,,,,,,1,,,62,0
73320,note_on,0,0,2,,,,,,,,1,,,66,100
73320,note_on,120,0,2,,,,,,,,1,,,64,0
73440,note_on,0,0,2,,,,,,,,1,,,67,100
73440,note_on,120,0,2,,,,,,,,1,,,66,0
73440,note_on,240,0,1,,,,,,,,0,,,60,0
73440,note_on,0,0,3,,,,,,,,2,,,55,100
73440,note_on,480,0,3,,,,,,,,2,,,43,0
73440,note_on,0,0,1,,,,,,,,0,,,62,100
73560,note_on,0,0,2,,,,,,,,1,,,71,100
73560,note_on,120,0,2,,,,,,,,1,,,67,0
73560,note_on,0,0,1,,,,,,,,0,,,67,100
73560,note_on,120,0,1,,,,,,,,0,,,62,0
73680,note_on,0,0,2,,,,,,,,1,,,69,100
73680,note_on,120,0,2,,,,,,,,1,,,71,0
73680,note_on,120,0,1,,,,,,,,0,,,67,0
73680,note_on,0,0,1,,,,,,,,0,,,66,100
73800,note_on,0,0,2,,,,,,,,1,,,67,100
73800,note_on,120,0,2,,,,,,,,1,,,69,0
73800,note_on,0,0,1,,,,,,,,0,,,64,100
73800,note_on,120,0,1,,,,,,,,0,,,66,0
73920,note_on,0,0,2,,,,,,,,1,,,62,100
73920,note_on,120,0,2,,,,,,,,1,,,67,0
73920,note_on,480,0,3,,,,,,,,2,,,55,0
73920,note_on,0,0,1,,,,,,,,0,,,74,100
73920,note_on,0,0,3,,,,,,,,2,,,54,100
73920,note_on,120,0,1,,,,,,,,0,,,64,0
74040,note_on,120,0,2,,,,,,,,1,,,62,0
74040,note_on,0,0,2,,,,,,,,1,,,59,100
74160,note_on,120,0,2,,,,,,,,1,,,59,0
74160,note_on,0,0,2,,,,,,,,1,,,60,100
74280,note_on,0,0,2,,,,,,,,1,,,62,100
74280,note_on,120,0,2,,,,,,,,1,,,60,0
74400,note_on,120,0,2,,,,,,,,1,,,62,0
74400,note_on,0,0,2,,,,,,,,1,,,55,100
74400,note_on,0,0,3,,,,,,,,2,,,52,100
74400,note_on,480,0,3,,,,,,,,2,,,54,0
74520,note_on,600,0,1,,,,,,,,0,,,74,0
74520,note_on,0,0,1,,,,,,,,0,,,76,100
74640,note_on,120,0,1,,,,,,,,0,,,76,0
74640,note_on,0,0,1,,,,,,,,0,,,74,100
74760,note_on,120,0,1,,,,,,,,0,,,74,0
74760,note_on,0,0,1,,,,,,,,0,,,73,100
74880,note_on,0,0,3,,,,,,,,2,,,50,100
74880,note_on,480,0,3,,,,,,,,2,,,52,0
74880,note_on,120,0,1,,,,,,,,0,,,73,0
74880,note_on,0,0,1,,,,,,,,0,,,74,100
75000,note_on,0,0,2,,,,,,,,1,,,54,100
75000,note_on,600,0,2,,,,,,,,1,,,55,0
75120,note_on,0,0,2,,,,,,,,1,,,55,100
75120,note_on,120,0,2,,,,,,,,1,,,54,0
75240,note_on,0,0,2,,,,,,,,1,,,57,100
75240,note_on,120,0,2,,,,,,,,1,,,55,0
75360,note_on,0,0,2,,,,,,,,1,,,55,100
75360,note_on,0,0,3,,,,,,,,2,,,47,100
75360,note_on,480,0,3,,,,,,,,2,,,50,0
75360,note_on,120,0,2,,,,,,,,1,,,57,0
75480,note_on,600,0,1,,,,,,,,0,,,74,0
75480,note_on,0,0,1,,,,,,,,0,,,59,100
75600,note_on,120,0,1,,,,,,,,0,,,59,0
75600,note_on,0,0,1,,,,,,,,0,,,60,100
75720,note_on,0,0,1,,,,,,,,0,,,62,100
75720,note_on,120,0,1,,,,,,,,0,,,60,0
75840,note_on,120,0,1,,,,,,,,0,,,62,0
75840,note_on,0,0,3,,,,,,,,2,,,48,100
75840,note_on,480,0,3,,,,,,,,2,,,47,0
75840,note_on,0,0,1,,,,,,,,0,,,64,100
75960,note_on,0,0,2,,,,,,,,1,,,71,100
75960,note_on,120,0,1,,,,,,,,0,,,64,0
75960,note_on,0,0,1,,,,,,,,0,,,67,100
75960,note_on,600,0,2,,,,,,,,1,,,55,0
76080,note_on,0,0,2,,,,,,,,1,,,69,100
76080,note_on,0,0,1,,,,,,,,0,,,66,100
76080,note_on,120,0,1,,,,,,,,0,,,67,0
76080,note_on,120,0,2,,,,,,,,1,,,71,0
76200,note_on,0,0,2,,,,,,,,1,,,67,100
76200,note_on,120,0,1,,,,,,,,0,,,66,0
76200,note_on,0,0,1,,,,,,,,0,,,64,100
76200,note_on,120,0,2,,,,,,,,1,,,69,0
76320,note_on,120,0,2,,,,,,,,1,,,67,0
76320,note_on,0,0,2,,,,,,,,1,,,66,100
76320,note_on,120,0,1,,,,,,,,0,,,64,0
76320,note_on,0,0,1,,,,,,,,0,,,71,100
76320,note_on,480,0,3,,,,,,,,2,,,48,0
76320,note_on,0,0,3,,,,,,,,2,,,50,100
76440,note_on,120,0,2,,,,,,,,1,,,66,0
76440,note_on,0,0,2,,,,,,,,1,,,62,100
76560,note_on,0,0,2,,,,,,,,1,,,64,100
76560,note_on,120,0,2,,,,,,,,1,,,62,0
76560,note_on,0,0,1,,,,,,,,0,,,69,100
76560,note_on,240,0,1,,,,,,,,0,,,71,0
76680,note_on,0,0,2,,,,,,,,1,,,66,100
76680,note_on,120,0,2,,,,,,,,1,,,64,0
76800,note_on,120,0,2,,,,,,,,1,,,66,0
76800,note_on,0,0,2,,,,,,,,1,,,59,100
76800,note_on,240,0,1,,,,,,,,0,,,69,0
76800,note_on,0,0,1,,,,,,,,0,,,67,100
76800,note_on,480,0,3,,,,,,,,2,,,50,0
76800,note_on,0,0,3,,,,,,,,2,,,43,100
77760,note_on,960,0,1,,,,,,,,0,,,67,0
77760,marker,12480,1,0,,,,,,,,,,,,
77760,note_on,960,0,3,,,,,,,,2,,,43,0
77760,note_on,960,0,2,,,,,,,,1,,,59,0
78000,note_on,240,0,3,,,,,,,,2,,,64,100
78120,note_on,120,0,3,,,,,,,,2,,,64,0
78120,note_on,0,0,3,,,,,,,,2,,,62,100
78240,note_on,0,0,3,,,,,,,,2,,,60,100
78240,note_on,120,0,3,,,,,,,,2,,,62,0
78240,note_on,480,0,2,,,,,,,,1,,,67,100
78480,note_on,0,0,3,,,,,,,,2,,,58,100
78480,note_on,240,0,3,,,,,,,,2,,,60,0
78720,note_on,0,0,3,,,,,,,,2,,,57,100
78720,note_on,240,0,3,,,,,,,,2,,,58,0
78720,note_on,0,0,2,,,,,,,,1,,,66,100
78720,note_on,480,0,2,,,,,,,,1,,,67,0
78960,note_on,0,0,3,,,,,,,,2,,,54,100
78960,note_on,240,0,3,,,,,,,,2,,,57,0
79200,note_on,0,0,2,,,,,,,,1,,,64,100
79200,note_on,480,0,2,,,,,,,,1,,,66,0
79200,note_on,240,0,3,,,,,,,,2,,,54,0
79200,note_on,0,0,3,,,,,,,,2,,,55,100
79440,note_on,0,0,3,,,,,,,,2,,,57,100
79440,note_on,240,0,3,,,,,,,,2,,,55,0
79680,note_on,0,0,3,,,,,,,,2,,,50,100
79680,note_on,240,0,3,,,,,,,,2,,,57,0
79680,note_on,480,0,2,,,,,,,,1,,,64,0
79680,note_on,0,0,2,,,,,,,,1,,,62,100
79920,note_on,2160,0,1,,,,,,,,0,,,62,100
80040,note_on,120,0,1,,,,,,,,0,,,62,0
80040,note_on,0,0,1,,,,,,,,0,,,64,100
80160,note_on,0,0,2,,,,,,,,1,,,59,100
80160,note_on,120,0,1,,,,,,,,0,,,64,0
80160,note_on,0,0,1,,,,,,,,0,,,66,100
80160,note_on,480,0,2,,,,,,,,1,,,62,0
80160,note_on,480,0,3,,,,,,,,2,,,50,0
80400,note_on,240,0,3,,,,,,,,2,,,52,100
80400,note_on,240,0,1,,,,,,,,0,,,66,0
80400,note_on,0,0,1,,,,,,,,0,,,68,100
80640,note_on,240,0,3,,,,,,,,2,,,52,0
80640,note_on,0,0,3,,,,,,,,2,,,45,100
80640,note_on,0,0,1,,,,,,,,0,,,69,100
80640,note_on,240,0,1,,,,,,,,0,,,68,0
80640,note_on,480,0,2,,,,,,,,1,,,59,0
80640,note_on,0,0,2,,,,,,,,1,,,60,100
80880,note_on,0,0,1,,,,,,,,0,,,72,100
80880,note_on,240,0,1,,,,,,,,0,,,69,0
80880,note_on,0,0,3,,,,,,,,2,,,57,100
80880,note_on,240,0,3,,,,,,,,2,,,45,0
81120,note_on,0,0,2,,,,,,,,1,,,62,100
81120,note_on,240,0,1,,,,,,,,0,,,72,0
81120,note_on,0,0,1,,,,,,,,0,,,71,100
81120,note_on,240,0,3,,,,,,,,2,,,57,0
81120,note_on,0,0,3,,,,,,,,2,,,55,100
81120,note_on,480,0,2,,,,,,,,1,,,60,0
81360,note_on,240,0,3,,,,,,,,2,,,55,0
81360,note_on,0,0,3,,,,,,,,2,,,53,100
81360,note_on,240,0,1,,,,,,,,0,,,71,0
81360,note_on,0,0,1,,,,,,,,0,,,69,100
81600,note_on,240,0,3,,,,,,,,2,,,53,0
81600,note_on,0,0,3,,,,,,,,2,,,52,100
81600,note_on,240,0,1,,,,,,,,0,,,69,0
81600,note_on,0,0,2,,,,,,,,1,,,55,100
81600,note_on,480,0,2,,,,,,,,1,,,62,0
81600,note_on,0,0,1,,,,,,,,0,,,76,100
81840,note_on,0,0,3,,,,,,,,2,,,64,100
81840,note_on,240,0,3,,,,,,,,2,,,52,0
81960,note_on,0,0,3,,,,,,,,2,,,62,100
81960,note_on,120,0,3,,,,,,,,2,,,64,0
82080,note_on,480,0,2,,,,,,,,1,,,55,0
82080,note_on,0,0,2,,,,,,,,1,,,67,100
82080,note_on,0,0,3,,,,,,,,2,,,60,100
82080,note_on,120,0,3,,,,,,,,2,,,62,0
82080,note_on,480,0,1,,,,,,,,0,,,76,0
82320,note_on,0,0,3,,,,,,,,2,,,58,100
82320,note_on,240,0,3,,,,,,,,2,,,60,0
82320,note_on,240,0,1,,,,,,,,0,,,74,100
82560,note_on,240,0,1,,,,,,,,0,,,74,0
82560,note_on,480,0,2,,,,,,,,1,,,67,0
82560,note_on,0,0,2,,,,,,,,1,,,66,100
82560,note_on,0,0,1,,,,,,,,0,,,81,100
82560,note_on,0,0,3,,,,,,,,2,,,57,100
82560,note_on,240,0,3,,,,,,,,2,,,58,0
82800,note_on,240,0,3,,,,,,,,2,,,57,0
82800,note_on,0,0,3,,,,,,,,2,,,54,100
82800,note_on,240,0,1,,,,,,,,0,,,81,0
82800,note_on,0,0,1,,,,,,,,0,,,69,100
83040,note_on,240,0,3,,,,,,,,2,,,54,0
83040,note_on,0,0,3,,,,,,,,2,,,55,100
83040,note_on,0,0,2,,,,,,,,1,,,64,100
83040,note_on,480,0,2,,,,,,,,1,,,66,0
83040,note_on,240,0,1,,,,,,,,0,,,69,0
83040,note_on,0,0,1,,,,,,,,0,,,71,100
83280,note_on,240,0,1,,,,,,,,0,,,71,0
83280,note_on,0,0,1,,,,,,,,0,,,73,100
83280,note_on,0,0,3,,,,,,,,2,,,57,100
83280,note_on,240,0,3,,,,,,,,2,,,55,0
83520,note_on,0,0,3,,,,,,,,2,,,50,100
83520,note_on,480,0,2,,,,,,,,1,,,64,0
83520,note_on,0,0,2,,,,,,,,1,,,62,100
83520,note_on,240,0,1,,,,,,,,0,,,73,0
83520,note_on,0,0,1,,,,,,,,0,,,74,100
83520,note_on,240,0,3,,,,,,,,2,,,57,0
83760,note_on,240,0,1,,,,,,,,0,,,74,0
83760,note_on,0,0,1,,,,,,,,0,,,62,100
83880,note_on,120,0,1,,,,,,,,0,,,62,0
83880,note_on,0,0,1,,,,,,,,0,,,64,100
84000,note_on,120,0,1,,,,,,,,0,,,64,0
84000,note_on,0,0,1,,,,,,,,0,,,66,100
84000,note_on,480,0,2,,,,,,,,1,,,62,0
84000,note_on,0,0,2,,,,,,,,1,,,59,100
84000,note_on,480,0,3,,,,,,,,2,,,50,0
84240,note_on,240,0,3,,,,,,,,2,,,52,100
84240,note_on,240,0,1,,,,,,,,0,,,66,0
84240,note_on,0,0,1,,,,,,,,0,,,68,100
84480,note_on,480,0,2,,,,,,,,1,,,59,0
84480,note_on,0,0,1,,,,,,,,0,,,69,100
84480,note_on,240,0,3,,,,,,,,2,,,52,0
84480,note_on,0,0,3,,,,,,,,2,,,45,100
84480,note_on,240,0,1,,,,,,,,0,,,68,0
84480,note_on,0,0,2,,,,,,,,1,,,60,100
84720,note_on,240,0,1,,,,,,,,0,,,69,0
84720,note_on,240,0,3,,,,,,,,2,,,45,0
84720,note_on,0,0,3,,,,,,,,2,,,57,100
84720,note_on,0,0,1,,,,,,,,0,,,72,100
84960,note_on,240,0,1,,,,,,,,0,,,72,0
84960,note_on,240,0,3,,,,,,,,2,,,57,0
84960,note_on,0,0,3,,,,,,,,2,,,55,100
84960,note_on,0,0,2,,,,,,,,1,,,62,100
84960,note_on,480,0,2,,,,,,,,1,,,60,0
84960,note_on,0,0,1,,,,,,,,0,,,71,100
85200,note_on,240,0,1,,,,,,,,0,,,71,0
85200,note_on,0,0,1,,,,,,,,0,,,69,100
85200,note_on,240,0,3,,,,,,,,2,,,55,0
85200,note_on,0,0,3,,,,,,,,2,,,53,100
85440,note_on,0,0,2,,,,,,,,1,,,55,100
85440,note_on,480,0,2,,,,,,,,1,,,62,0
85440,note_on,0,0,1,,,,,,,,0,,,76,100
85440,note_on,240,0,1,,,,,,,,0,,,69,0
85440,note_on,240,0,3,,,,,,,,2,,,53,0
85440,note_on,0,0,3,,,,,,,,2,,,52,100
85680,note_on,240,0,3,,,,,,,,2,,,52,0
85680,note_on,0,0,3,,,,,,,,2,,,64,100
85800,note_on,0,0,3,,,,,,,,2,,,62,100
85800,note_on,120,0,3,,,,,,,,2,,,64,0
85920,note_on,480,0,1,,,,,,,,0,,,76,0
85920,note_on,120,0,3,,,,,,,,2,,,62,0
85920,note_on,0,0,3,,,,,,,,2,,,60,100
85920,note_on,480,0,2,,,,,,,,1,,,55,0
85920,note_on,0,0,2,,,,,,,,1,,,67,100
86160,note_on,240,0,1,,,,,,,,0,,,74,100
86160,note_on,0,0,3,,,,,,,,2,,,58,100
86160,note_on,240,0,3,,,,,,,,2,,,60,0
86400,note_on,240,0,1,,,,,,,,0,,,74,0
86400,note_on,0,0,3,,,,,,,,2,,,57,100
86400,note_on,0,0,2,,,,,,,,1,,,66,100
86400,note_on,480,0,2,,,,,,,,1,,,67,0
86400,note_on,0,0,1,,,,,,,,0,,,81,100
86400,note_on,240,0,3,,,,,,,,2,,,58,0
86640,note_on,0,0,3,,,,,,,,2,,,54,100
86640,note_on,0,0,1,,,,,,,,0,,,69,100
86640,note_on,240,0,1,,,,,,,,0,,,81,0
86640,note_on,240,0,3,,,,,,,,2,,,57,0
86880,note_on,0,0,3,,,,,,,,2,,,55,100
86880,note_on,0,0,1,,,,,,,,0,,,71,100
86880,note_on,240,0,1,,,,,,,,0,,,69,0
86880,note_on,0,0,2,,,,,,,,1,,,64,100
86880,note_on,240,0,3,,,,,,,,2,,,54,0
86880,note_on,480,0,2,,,,,,,,1,,,66,0
87120,note_on,240,0,3,,,,,,,,2,,,55,0
87120,note_on,0,0,1,,,,,,,,0,,,73,100
87120,note_on,240,0,1,,,,,,,,0,,,71,0
87120,note_on,0,0,3,,,,,,,,2,,,57,100
87360,note_on,480,0,2,,,,,,,,1,,,64,0
87360,note_on,0,0,3,,,,,,,,2,,,50,100
87360,note_on,240,0,1,,,,,,,,0,,,73,0
87360,note_on,0,0,1,,,,,,,,0,,,74,100
87360,note_on,240,0,3,,,,,,,,2,,,57,0
87360,note_on,0,0,2,,,,,,,,1,,,62,100
87600,note_on,240,0,1,,,,,,,,0,,,74,0
87600,note_on,0,0,1,,,,,,,,0,,,62,100
87720,note_on,120,0,1,,,,,,,,0,,,62,0
87720,note_on,0,0,1,,,,,,,,0,,,64,100
87840,note_on,0,0,2,,,,,,,,1,,,59,100
87840,note_on,480,0,2,,,,,,,,1,,,62,0
87840,note_on,0,0,1,,,,,,,,0,,,66,100
87840,note_on,120,0,1,,,,,,,,0,,,64,0
87840,note_on,480,0,3,,,,,,,,2,,,50,0
88080,note_on,240,0,1,,,,,,,,0,,,66,0
88080,note_on,0,0,1,,,,,,,,0,,,68,100
88080,note_on,240,0,3,,,,,,,,2,,,52,100
88320,note_on,0,0,2,,,,,,,,1,,,60,100
88320,note_on,240,0,1,,,,,,,,0,,,68,0
88320,note_on,0,0,3,,,,,,,,2,,,45,100
88320,note_on,240,0,3,,,,,,,,2,,,52,0
88320,note_on,0,0,1,,,,,,,,0,,,69,100
88320,note_on,480,0,2,,,,,,,,1,,,59,0
88560,note_on,0,0,1,,,,,,,,0,,,72,100
88560,note_on,240,0,3,,,,,,,,2,,,45,0
88560,note_on,0,0,3,,,,,,,,2,,,57,100
88560,note_on,240,0,1,,,,,,,,0,,,69,0
88800,note_on,0,0,2,,,,,,,,1,,,62,100
88800,note_on,0,0,1,,,,,,,,0,,,71,100
88800,note_on,480,0,2,,,,,,,,1,,,60,0
88800,note_on,240,0,1,,,,,,,,0,,,72,0
88800,note_on,0,0,3,,,,,,,,2,,,55,100
88800,note_on,240,0,3,,,,,,,,2,,,57,0
89040,note_on,0,0,3,,,,,,,,2,,,53,100
89040,note_on,240,0,3,,,,,,,,2,,,55,0
89040,note_on,0,0,1,,,,,,,,0,,,69,100
89040,note_on,240,0,1,,,,,,,,0,,,71,0
89280,note_on,0,0,3,,,,,,,,2,,,52,100
89280,note_on,480,0,2,,,,,,,,1,,,62,0
89280,note_on,0,0,2,,,,,,,,1,,,55,100
89280,note_on,0,0,1,,,,,,,,0,,,76,100
89280,note_on,240,0,1,,,,,,,,0,,,69,0
89280,note_on,240,0,3,,,,,,,,2,,,53,0
90240,marker,12480,1,0,,,,,,,,,,,,
90240,note_on,960,0,2,,,,,,,,1,,,55,0
90240,note_on,960,0,3,,,,,,,,2,,,52,0
90240,note_on,0,0,2,,,,,,,,1,,,67,100
90240,note_on,960,0,1,,,,,,,,0,,,76,0
90360,note_on,0,0,2,,,,,,,,1,,,71,100
90360,note_on,120,0,2,,,,,,,,1,,,67,0
90360,note_on,120,0,1,,,,,,,,0,,,67,100
90480,note_on,0,0,2,,,,,,,,1,,,74,100
90480,note_on,120,0,2,,,,,,,,1,,,71,0
90480,note_on,120,0,1,,,,,,,,0,,,67,0
90480,note_on,0,0,1,,,,,,,,0,,,71,100
90600,note_on,120,0,1,,,,,,,,0,,,71,0
90600,note_on,0,0,1,,,,,,,,0,,,74,100
90600,note_on,120,0,2,,,,,,,,1,,,74,0
90600,note_on,0,0,2,,,,,,,,1,,,79,100
90720,note_on,120,0,1,,,,,,,,0,,,74,0
90720,note_on,0,0,1,,,,,,,,0,,,79,100
90720,note_on,480,0,3,,,,,,,,2,,,55,100
90720,note_on,0,0,2,,,,,,,,1,,,74,100
90720,note_on,120,0,2,,,,,,,,1,,,79,0
90840,note_on,120,0,1,,,,,,,,0,,,79,0
90840,note_on,0,0,1,,,,,,,,0,,,74,100
90840,note_on,0,0,2,,,,,,,,1,,,71,100
90840,note_on,120,0,2,,,,,,,,1,,,74,0
90960,note_on,120,0,2,,,,,,,,1,,,71,0
90960,note_on,0,0,1,,,,,,,,0,,,71,100
90960,note_on,120,0,1,,,,,,,,0,,,74,0
90960,note_on,0,0,2,,,,,,,,1,,,67,100
91080,note_on,0,0,2,,,,,,,,1,,,74,100
91080,note_on,120,0,2,,,,,,,,1,,,67,0
91080,note_on,120,0,1,,,,,,,,0,,,71,0
91080,note_on,0,0,1,,,,,,,,0,,,67,100
91200,note_on,480,0,3,,,,,,,,2,,,55,0
91200,note_on,120,0,1,,,,,,,,0,,,67,0
91200,note_on,0,0,1,,,,,,,,0,,,74,100
91200,note_on,0,0,3,,,,,,,,2,,,54,100
91200,note_on,120,0,2,,,,,,,,1,,,74,0
91200,note_on,0,0,2,,,,,,,,1,,,62,100
91320,note_on,0,0,1,,,,,,,,0,,,62,100
91320,note_on,120,0,1,,,,,,,,0,,,74,0
91320,note_on,0,0,2,,,,,,,,1,,,67,100
91320,note_on,120,0,2,,,,,,,,1,,,62,0
91440,note_on,0,0,1,,,,,,,,0,,,67,100
91440,note_on,0,0,2,,,,,,,,1,,,71,100
91440,note_on,120,0,1,,,,,,,,0,,,62,0
91440,note_on,120,0,2,,,,,,,,1,,,67,0
91560,note_on,0,0,2,,,,,,,,1,,,61,100
91560,note_on,0,0,1,,,,,,,,0,,,71,100
91560,note_on,120,0,2,,,,,,,,1,,,71,0
91560,note_on,120,0,1,,,,,,,,0,,,67,0
91680,note_on,120,0,2,,,,,,,,1,,,61,0
91680,note_on,0,0,2,,,,,,,,1,,,64,100
91680,note_on,0,0,3,,,,,,,,2,,,52,100
91680,note_on,0,0,1,,,,,,,,0,,,61,100
91680,note_on,120,0,1,,,,,,,,0,,,71,0
91680,note_on,480,0,3,,,,,,,,2,,,54,0
91800,note_on,0,0,2,,,,,,,,1,,,67,100
91800,note_on,120,0,2,,,,,,,,1,,,64,0
91800,note_on,0,0,1,,,,,,,,0,,,64,100
91800,note_on,120,0,1,,,,,,,,0,,,61,0
91920,note_on,120,0,1,,,,,,,,0,,,64,0
91920,note_on,120,0,2,,,,,,,,1,,,67,0
91920,note_on,0,0,2,,,,,,,,1,,,73,100
91920,note_on,0,0,1,,,,,,,,0,,,67,100
92040,note_on,120,0,1,,,,,,,,0,,,67,0
92040,note_on,0,0,1,,,,,,,,0,,,73,100
92040,note_on,120,0,2,,,,,,,,1,,,73,0
92160,note_on,120,0,1,,,,,,,,0,,,73,0
92160,note_on,120,0,2,,,,,,,,1,,,74,100
92160,note_on,480,0,3,,,,,,,,2,,,52,0
92160,note_on,0,0,3,,,,,,,,2,,,50,100
92280,note_on,120,0,1,,,,,,,,0,,,74,100
92280,note_on,120,0,2,,,,,,,,1,,,74,0
92280,note_on,0,0,2,,,,,,,,1,,,69,100
92400,note_on,120,0,1,,,,,,,,0,,,74,0
92400,note_on,0,0,1,,,,,,,,0,,,69,100
92400,note_on,120,0,2,,,,,,,,1,,,69,0
92400,note_on,0,0,2,,,,,,,,1,,,66,100
92520,note_on,120,0,1,,,,,,,,0,,,69,0
92520,note_on,0,0,1,,,,,,,,0,,,66,100
92520,note_on,120,0,2,,,,,,,,1,,,66,0
92520,note_on,0,0,2,,,,,,,,1,,,62,100
92640,note_on,120,0,2,,,,,,,,1,,,62,0
92640,note_on,0,0,2,,,,,,,,1,,,67,100
92640,note_on,0,0,3,,,,,,,,2,,,47,100
92640,note_on,480,0,3,,,,,,,,2,,,50,0
92640,note_on,0,0,1,,,,,,,,0,,,62,100
92640,note_on,120,0,1,,,,,,,,0,,,66,0
92760,note_on,0,0,2,,,,,,,,1,,,71,100
92760,note_on,120,0,2,,,,,,,,1,,,67,0
92760,note_on,0,0,1,,,,,,,,0,,,67,100
92760,note_on,120,0,1,,,,,,,,0,,,62,0
92880,note_on,0,0,2,,,,,,,,1,,,74,100
92880,note_on,120,0,2,,,,,,,,1,,,71,0
92880,note_on,0,0,1,,,,,,,,0,,,71,100
92880,note_on,120,0,1,,,,,,,,0,,,67,0
93000,note_on,120,0,1,,,,,,,,0,,,71,0
93000,note_on,120,0,2,,,,,,,,1,,,74,0
93000,note_on,0,0,1,,,,,,,,0,,,74,100
93000,note_on,0,0,2,,,,,,,,1,,,67,100
93120,note_on,0,0,2,,,,,,,,1,,,74,100
93120,note_on,120,0,2,,,,,,,,1,,,67,0
93120,note_on,480,0,3,,,,,,,,2,,,47,0
93120,note_on,0,0,3,,,,,,,,2,,,48,100
93120,note_on,120,0,1,,,,,,,,0,,,74,0
93120,note_on,0,0,1,,,,,,,,0,,,67,100
93240,note_on,0,0,2,,,,,,,,1,,,72,100
93240,note_on,120,0,2,,,,,,,,1,,,74,0
93240,note_on,0,0,1,,,,,,,,0,,,74,100
93240,note_on,120,0,1,,,,,,,,0,,,67,0
93360,note_on,0,0,1,,,,,,,,0,,,72,100
93360,note_on,120,0,1,,,,,,,,0,,,74,0
93360,note_on,120,0,2,,,,,,,,1,,,72,0
93360,note_on,0,0,2,,,,,,,,1,,,69,100
93480,note_on,0,0,1,,,,,,,,0,,,69,100
93480,note_on,120,0,2,,,,,,,,1,,,69,0
93480,note_on,0,0,2,,,,,,,,1,,,71,100
93480,note_on,120,0,1,,,,,,,,0,,,72,0
93600,note_on,120,0,1,,,,,,,,0,,,69,0
93600,note_on,0,0,1,,,,,,,,0,,,71,100
93600,note_on,0,0,3,,,,,,,,2,,,50,100
93600,note_on,480,0,3,,,,,,,,2,,,48,0
93600,note_on,0,0,2,,,,,,,,1,,,66,100
93600,note_on,120,0,2,,,,,,,,1,,,71,0
93720,note_on,0,0,2,,,,,,,,1,,,69,100
93720,note_on,120,0,1,,,,,,,,0,,,71,0
93720,note_on,120,0,2,,,,,,,,1,,,66,0
93720,note_on,0,0,1,,,,,,,,0,,,66,100
93840,note_on,120,0,2,,,,,,,,1,,,69,0
93840,note_on,0,0,2,,,,,,,,1,,,74,100
93840,note_on,120,0,1,,,,,,,,0,,,66,0
93840,note_on,0,0,1,,,,,,,,0,,,69,100
93900,note_on,60,0,2,,,,,,,,1,,,74,0
93900,note_on,0,0,2,,,,,,,,1,,,72,100
93960,note_on,60,0,2,,,,,,,,1,,,72,0
93960,note_on,0,0,2,,,,,,,,1,,,71,100
93960,note_on,0,0,1,,,,,,,,0,,,74,100
93960,note_on,120,0,1,,,,,,,,0,,,69,0
94020,note_on,60,0,1,,,,,,,,0,,,74,0
94020,note_on,60,0,2,,,,,,,,1,,,71,0
94020,note_on,0,0,2,,,,,,,,1,,,69,100
94020,note_on,0,0,1,,,,,,,,0,,,72,100
94080,note_on,0,0,1,,,,,,,,0,,,71,100
94080,note_on,60,0,1,,,,,,,,0,,,72,0
94080,note_on,480,0,3,,,,,,,,2,,,50,0
94080,note_on,0,0,2,,,,,,,,1,,,67,100
94080,note_on,60,0,2,,,,,,,,1,,,69,0
94080,note_on,0,0,3,,,,,,,,2,,,43,100
94140,note_on,60,0,1,,,,,,,,0,,,71,0
94140,note_on,0,0,1,,,,,,,,0,,,69,100
94200,note_on,60,0,1,,,,,,,,0,,,69,0
94200,note_on,0,0,1,,,,,,,,0,,,67,100
94200,note_on,0,0,2,,,,,,,,1,,,71,100
94200,note_on,120,0,2,,,,,,,,1,,,67,0
94320,note_on,0,0,2,,,,,,,,1,,,74,100
94320,note_on,120,0,1,,,,,,,,0,,,67,0
94320,note_on,0,0,1,,,,,,,,0,,,71,100
94320,note_on,120,0,2,,,,,,,,1,,,71,0
94440,note_on,0,0,1,,,,,,,,0,,,74,100
94440,note_on,0,0,2,,,,,,,,1,,,79,100
94440,note_on,120,0,2,,,,,,,,1,,,74,0
94440,note_on,120,0,1,,,,,,,,0,,,71,0
94560,note_on,120,0,2,,,,,,,,1,,,79,0
94560,note_on,120,0,1,,,,,,,,0,,,74,0
94560,note_on,0,0,1,,,,,,,,0,,,79,100
94560,note_on,480,0,3,,,,,,,,2,,,43,0
94560,note_on,0,0,2,,,,,,,,1,,,74,100
94560,note_on,0,0,3,,,,,,,,2,,,55,100
94680,note_on,120,0,2,,,,,,,,1,,,74,0
94680,note_on,120,0,1,,,,,,,,0,,,79,0
94680,note_on,0,0,1,,,,,,,,0,,,74,100
94680,note_on,0,0,2,,,,,,,,1,,,71,100
94800,note_on,0,0,2,,,,,,,,1,,,67,100
94800,note_on,120,0,2,,,,,,,,1,,,71,0
94800,note_on,0,0,1,,,,,,,,0,,,71,100
94800,note_on,120,0,1,,,,,,,,0,,,74,0
94920,note_on,120,0,2,,,,,,,,1,,,67,0
94920,note_on,0,0,2,,,,,,,,1,,,74,100
94920,note_on,0,0,1,,,,,,,,0,,,67,100
94920,note_on,120,0,1,,,,,,,,0,,,71,0
95040,note_on,480,0,3,,,,,,,,2,,,55,0
95040,note_on,0,0,3,,,,,,,,2,,,54,100
95040,note_on,120,0,1,,,,,,,,0,,,67,0
95040,note_on,0,0,1,,,,,,,,0,,,74,100
95040,note_on,0,0,2,,,,,,,,1,,,62,100
95040,note_on,120,0,2,,,,,,,,1,,,74,0
95160,note_on,120,0,2,,,,,,,,1,,,62,0
95160,note_on,120,0,1,,,,,,,,0,,,74,0
95160,note_on,0,0,1,,,,,,,,0,,,62,100
95160,note_on,0,0,2,,,,,,,,1,,,67,100
95280,note_on,0,0,2,,,,,,,,1,,,71,100
95280,note_on,120,0,2,,,,,,,,1,,,67,0
95280,note_on,0,0,1,,,,,,,,0,,,67,100
95280,note_on,120,0,1,,,,,,,,0,,,62,0
95400,note_on,0,0,2,,,,,,,,1,,,61,100
95400,note_on,120,0,2,,,,,,,,1,,,71,0
95400,note_on,0,0,1,,,,,,,,0,,,71,100
95400,note_on,120,0,1,,,,,,,,0,,,67,0
95520,note_on,120,0,2,,,,,,,,1,,,61,0
95520,note_on,120,0,1,,,,,,,,0,,,71,0
95520,note_on,0,0,1,,,,,,,,0,,,61,100
95520,note_on,0,0,3,,,,,,,,2,,,52,100
95520,note_on,480,0,3,,,,,,,,2,,,54,0
95520,note_on,0,0,2,,,,,,,,1,,,64,100
95640,note_on,120,0,2,,,,,,,,1,,,64,0
95640,note_on,0,0,1,,,,,,,,0,,,64,100
95640,note_on,120,0,1,,,,,,,,0,,,61,0
95640,note_on,0,0,2,,,,,,,,1,,,67,100
95760,note_on,0,0,2,,,,,,,,1,,,73,100
95760,note_on,120,0,1,,,,,,,,0,,,64,0
95760,note_on,0,0,1,,,,,,,,0,,,67,100
95760,note_on,120,0,2,,,,,,,,1,,,67,0
95880,note_on,120,0,2,,,,,,,,1,,,73,0
95880,note_on,120,0,1,,,,,,,,0,,,67,0
95880,note_on,0,0,1,,,,,,,,0,,,73,100
96000,note_on,480,0,3,,,,,,,,2,,,52,0
96000,note_on,0,0,3,,,,,,,,2,,,50,100
96000,note_on,120,0,2,,,,,,,,1,,,74,100
96000,note_on,120,0,1,,,,,,,,0,,,73,0
96120,note_on,120,0,2,,,,,,,,1,,,74,0
96120,note_on,0,0,2,,,,,,,,1,,,69,100
96120,note_on,120,0,1,,,,,,,,0,,,74,100
96240,note_on,0,0,1,,,,,,,,0,,,69,100
96240,note_on,120,0,1,,,,,,,,0,,,74,0
96240,note_on,120,0,2,,,,,,,,1,,,69,0
96240,note_on,0,0,2,,,,,,,,1,,,66,100
96360,note_on,120,0,2,,,,,,,,1,,,66,0
96360,note_on,0,0,2,,,,,,,,1,,,62,100
96360,note_on,120,0,1,,,,,,,,0,,,69,0
96360,note_on,0,0,1,,,,,,,,0,,,66,100
96480,note_on,120,0,2,,,,,,,,1,,,62,0
96480,note_on,0,0,2,,,,,,,,1,,,67,100
96480,note_on,0,0,1,,,,,,,,0,,,62,100
96480,note_on,0,0,3,,,,,,,,2,,,47,100
96480,note_on,480,0,3,,,,,,,,2,,,50,0
96480,note_on,120,0,1,,,,,,,,0,,,66,0
96600,note_on,0,0,1,,,,,,,,0,,,67,100
96600,note_on,0,0,2,,,,,,,,1,,,71,100
96600,note_on,120,0,1,,,,,,,,0,,,62,0
96600,note_on,120,0,2,,,,,,,,1,,,67,0
96720,note_on,120,0,2,,,,,,,,1,,,71,0
96720,note_on,0,0,2,,,,,,,,1,,,74,100
96720,note_on,120,0,1,,,,,,,,0,,,67,0
96720,note_on,0,0,1,,,,,,,,0,,,71,100
96840,note_on,120,0,2,,,,,,,,1,,,74,0
96840,note_on,0,0,2,,,,,,,,1,,,67,100
96840,note_on,120,0,1,,,,,,,,0,,,71,0
96840,note_on,0,0,1,,,,,,,,0,,,74,100
96960,note_on,480,0,3,,,,,,,,2,,,47,0
96960,note_on,0,0,2,,,,,,,,1,,,74,100
96960,note_on,120,0,2,,,,,,,,1,,,67,0
96960,note_on,0,0,3,,,,,,,,2,,,48,100
96960,note_on,0,0,1,,,,,,,,0,,,67,100
96960,note_on,120,0,1,,,,,,,,0,,,74,0
97080,note_on,120,0,1,,,,,,,,0,,,67,0
97080,note_on,0,0,1,,,,,,,,0,,,74,100
97080,note_on,0,0,2,,,,,,,,1,,,72,100
97080,note_on,120,0,2,,,,,,,,1,,,74,0
97200,note_on,120,0,2,,,,,,,,1,,,72,0
97200,note_on,0,0,2,,,,,,,,1,,,69,100
97200,note_on,120,0,1,,,,,,,,0,,,74,0
97200,note_on,0,0,1,,,,,,,,0,,,72,100
97320,note_on,0,0,1,,,,,,,,0,,,69,100
97320,note_on,120,0,2,,,,,,,,1,,,69,0
97320,note_on,0,0,2,,,,,,,,1,,,71,100
97320,note_on,120,0,1,,,,,,,,0,,,72,0
97440,note_on,0,0,3,,,,,,,,2,,,50,100
97440,note_on,480,0,3,,,,,,,,2,,,48,0
97440,note_on,120,0,1,,,,,,,,0,,,69,0
97440,note_on,0,0,1,,,,,,,,0,,,71,100
97440,note_on,0,0,2,,,,,,,,1,,,66,100
97440,note_on,120,0,2,,,,,,,,1,,,71,0
97560,note_on,120,0,2,,,,,,,,1,,,66,0
97560,note_on,0,0,2,,,,,,,,1,,,69,100
97560,note_on,0,0,1,,,,,,,,0,,,66,100
97560,note_on,120,0,1,,,,,,,,0,,,71,0
97680,note_on,0,0,2,,,,,,,,1,,,74,100
97680,note_on,0,0,1,,,,,,,,0,,,69,100
97680,note_on,120,0,1,,,,,,,,0,,,66,0
97680,note_on,120,0,2,,,,,,,,1,,,69,0
97740,note_on,60,0,2,,,,,,,,1,,,74,0
97740,note_on,0,0,2,,,,,,,,1,,,72,100
97800,note_on,60,0,2,,,,,,,,1,,,72,0
97800,note_on,0,0,2,,,,,,,,1,,,71,100
97800,note_on,0,0,1,,,,,,,,0,,,74,100
97800,note_on,120,0,1,,,,,,,,0,,,69,0
97860,note_on,0,0,1,,,,,,,,0,,,72,100
97860,note_on,60,0,1,,,,,,,,0,,,74,0
97860,note_on,0,0,2,,,,,,,,1,,,69,100
97860,note_on,60,0,2,,,,,,,,1,,,71,0
97920,note_on,60,0,1,,,,,,,,0,,,72,0
97920,note_on,480,0,3,,,,,,,,2,,,50,0
97920,note_on,0,0,2,,,,,,,,1,,,67,100
97920,note_on,60,0,2,,,,,,,,1,,,69,0
97920,note_on,0,0,3,,,,,,,,2,,,43,100
97920,note_on,0,0,1,,,,,,,,0,,,71,100
97980,note_on,0,0,1,,,,,,,,0,,,69,100
97980,note_on,60,0,1,,,,,,,,0,,,71,0
98040,note_on,120,0,2,,,,,,,,1,,,67,0
98040,note_on,0,0,2,,,,,,,,1,,,71,100
98040,note_on,60,0,1,,,,,,,,0,,,69,0
98040,note_on,0,0,1,,,,,,,,0,,,67,100
98160,note_on,120,0,1,,,,,,,,0,,,67,0
98160,note_on,0,0,1,,,,,,,,0,,,71,100
98160,note_on,120,0,2,,,,,,,,1,,,71,0
98160,note_on,0,0,2,,,,,,,,1,,,74,100
98280,note_on,120,0,1,,,,,,,,0,,,71,0
98280,note_on,0,0,1,,,,,,,,0,,,74,100
98280,note_on,120,0,2,,,,,,,,1,,,74,0
98280,note_on,0,0,2,,,,,,,,1,,,79,100
98400,note_on,0,0,2,,,,,,,,1,,,74,100
98400,note_on,120,0,2,,,,,,,,1,,,79,0
98400,note_on,480,0,3,,,,,,,,2,,,43,0
98400,note_on,0,0,3,,,,,,,,2,,,55,100
98400,note_on,0,0,1,,,,,,,,0,,,79,100
98400,note_on,120,0,1,,,,,,,,0,,,74,0
98520,note_on,0,0,1,,,,,,,,0,,,74,100
98520,note_on,120,0,1,,,,,,,,0,,,79,0
98520,note_on,0,0,2,,,,,,,,1,,,71,100
98520,note_on,120,0,2,,,,,,,,1,,,74,0
98640,note_on,120,0,1,,,,,,,,0,,,74,0
98640,note_on,120,0,2,,,,,,,,1,,,71,0
98640,note_on,0,0,2,,,,,,,,1,,,67,100
98640,note_on,0,0,1,,,,,,,,0,,,71,100
98760,note_on,0,0,1,,,,,,,,0,,,67,100
98760,note_on,120,0,2,,,,,,,,1,,,67,0
98760,note_on,0,0,2,,,,,,,,1,,,74,100
98760,note_on,120,0,1,,,,,,,,0,,,71,0
98880,note_on,0,0,2,,,,,,,,1,,,62,100
98880,note_on,0,0,3,,,,,,,,2,,,54,100
98880,note_on,120,0,2,,,,,,,,1,,,74,0
98880,note_on,0,0,1,,,,,,,,0,,,74,100
98880,note_on,120,0,1,,,,,,,,0,,,67,0
98880,note_on,480,0,3,,,,,,,,2,,,55,0
99000,note_on,120,0,2,,,,,,,,1,,,62,0
99000,note_on,0,0,1,,,,,,,,0,,,62,100
99000,note_on,120,0,1,,,,,,,,0,,,74,0
99000,note_on,0,0,2,,,,,,,,1,,,67,100
99120,note_on,120,0,2,,,,,,,,1,,,67,0
99120,note_on,0,0,1,,,,,,,,0,,,67,100
99120,note_on,120,0,1,,,,,,,,0,,,62,0
99120,note_on,0,0,2,,,,,,,,1,,,71,100
99240,note_on,120,0,2,,,,,,,,1,,,71,0
99240,note_on,0,0,2,,,,,,,,1,,,61,100
99240,note_on,0,0,1,,,,,,,,0,,,71,100
99240,note_on,120,0,1,,,,,,,,0,,,67,0
99360,note_on,480,0,3,,,,,,,,2,,,54,0
99360,note_on,0,0,3,,,,,,,,2,,,52,100
99360,note_on,120,0,2,,,,,,,,1,,,61,0
99360,note_on,0,0,2,,,,,,,,1,,,64,100
99360,note_on,120,0,1,,,,,,,,0,,,71,0
99360,note_on,0,0,1,,,,,,,,0,,,61,100
99480,note_on,0,0,1,,,,,,,,0,,,64,100
99480,note_on,120,0,2,,,,,,,,1,,,64,0
99480,note_on,0,0,2,,,,,,,,1,,,67,100
99480,note_on,120,0,1,,,,,,,,0,,,61,0
99600,note_on,120,0,2,,,,,,,,1,,,67,0
99600,note_on,120,0,1,,,,,,,,0,,,64,0
99600,note_on,0,0,2,,,,,,,,1,,,73,100
99600,note_on,0,0,1,,,,,,,,0,,,67,100
99720,note_on,120,0,2,,,,,,,,1,,,73,0
99720,note_on,0,0,1,,,,,,,,0,,,73,100
99720,note_on,120,0,1,,,,,,,,0,,,67,0
99840,note_on,120,0,1,,,,,,,,0,,,73,0
99840,note_on,120,0,2,,,,,,,,1,,,74,100
99840,note_on,480,0,3,,,,,,,,2,,,52,0
99840,note_on,0,0,3,,,,,,,,2,,,50,100
99960,note_on,120,0,2,,,,,,,,1,,,74,0
99960,note_on,0,0,2,,,,,,,,1,,,69,100
99960,note_on,120,0,1,,,,,,,,0,,,74,100
100080,note_on,120,0,1,,,,,,,,0,,,74,0
100080,note_on,0,0,1,,,,,,,,0,,,69,100
100080,note_on,120,0,2,,,,,,,,1,,,69,0
100080,note_on,0,0,2,,,,,,,,1,,,66,100
100200,note_on,0,0,1,,,,,,,,0,,,66,100
100200,note_on,120,0,1,,,,,,,,0,,,69,0
100200,note_on,0,0,2,,,,,,,,1,,,62,100
100200,note_on,120,0,2,,,,,,,,1,,,66,0
100320,note_on,120,0,2,,,,,,,,1,,,62,0
100320,note_on,0,0,2,,,,,,,,1,,,67,100
100320,note_on,480,0,3,,,,,,,,2,,,50,0
100320,note_on,0,0,3,,,,,,,,2,,,47,100
100320,note_on,120,0,1,,,,,,,,0,,,66,0
100320,note_on,0,0,1,,,,,,,,0,,,62,100
100440,note_on,120,0,2,,,,,,,,1,,,67,0
100440,note_on,0,0,1,,,,,,,,0,,,67,100
100440,note_on,120,0,1,,,,,,,,0,,,62,0
100440,note_on,0,0,2,,,,,,,,1,,,71,100
100560,note_on,120,0,2,,,,,,,,1,,,71,0
100560,note_on,120,0,1,,,,,,,,0,,,67,0
100560,note_on,0,0,2,,,,,,,,1,,,74,100
100560,note_on,0,0,1,,,,,,,,0,,,71,100
100680,note_on,0,0,1,,,,,,,,0,,,74,100
100680,note_on,120,0,2,,,,,,,,1,,,74,0
100680,note_on,0,0,2,,,,,,,,1,,,67,100
100680,note_on,120,0,1,,,,,,,,0,,,71,0
100800,note_on,120,0,1,,,,,,,,0,,,74,0
100800,note_on,0,0,1,,,,,,,,0,,,67,100
100800,note_on,0,0,2,,,,,,,,1,,,74,100
100800,note_on,120,0,2,,,,,,,,1,,,67,0
100800,note_on,480,0,3,,,,,,,,2,,,47,0
100800,note_on,0,0,3,,,,,,,,2,,,48,100
100920,note_on,120,0,2,,,,,,,,1,,,74,0
100920,note_on,0,0,1,,,,,,,,0,,,74,100
100920,note_on,120,0,1,,,,,,,,0,,,67,0
100920,note_on,0,0,2,,,,,,,,1,,,72,100
101040,note_on,0,0,1,,,,,,,,0,,,72,100
101040,note_on,120,0,1,,,,,,,,0,,,74,0
101040,note_on,0,0,2,,,,,,,,1,,,69,100
101040,note_on,120,0,2,,,,,,,,1,,,72,0
101160,note_on,120,0,2,,,,,,,,1,,,69,0
101160,note_on,120,0,1,,,,,,,,0,,,72,0
101160,note_on,0,0,1,,,,,,,,0,,,69,100
101160,note_on,0,0,2,,,,,,,,1,,,71,100
101280,note_on,480,0,3,,,,,,,,2,,,48,0
101280,note_on,0,0,2,,,,,,,,1,,,66,100
101280,note_on,120,0,2,,,,,,,,1,,,71,0
101280,note_on,0,0,3,,,,,,,,2,,,50,100
101280,note_on,120,0,1,,,,,,,,0,,,69,0
101280,note_on,0,0,1,,,,,,,,0,,,71,100
101400,note_on,120,0,1,,,,,,,,0,,,71,0
101400,note_on,0,0,1,,,,,,,,0,,,66,100
101400,note_on,0,0,2,,,,,,,,1,,,69,100
101400,note_on,120,0,2,,,,,,,,1,,,66,0
101520,note_on,0,0,2,,,,,,,,1,,,74,100
101520,note_on,120,0,2,,,,,,,,1,,,69,0
101520,note_on,0,0,1,,,,,,,,0,,,69,100
101520,note_on,120,0,1,,,,,,,,0,,,66,0
101580,note_on,0,0,2,,,,,,,,1,,,72,100
101580,note_on,60,0,2,,,,,,,,1,,,74,0
101640,note_on,120,0,1,,,,,,,,0,,,69,0
101640,note_on,60,0,2,,,,,,,,1,,,72,0
101640,note_on,0,0,1,,,,,,,,0,,,74,100
101640,note_on,0,0,2,,,,,,,,1,,,71,100
101700,note_on,0,0,2,,,,,,,,1,,,69,100
101700,note_on,60,0,2,,,,,,,,1,,,71,0
101700,note_on,60,0,1,,,,,,,,0,,,74,0
101700,note_on,0,0,1,,,,,,,,0,,,72,100
101760,note_on,0,0,1,,,,,,,,0,,,71,100
101760,note_on,0,0,2,,,,,,,,1,,,67,100
101760,note_on,60,0,2,,,,,,,,1,,,69,0
101760,note_on,60,0,1,,,,,,,,0,,,72,0
101760,note_on,480,0,3,,,,,,,,2,,,50,0
101760,note_on,0,0,3,,,,,,,,2,,,43,100
102720,note_on,960,0,2,,,,,,,,1,,,67,0
102720,note_on,960,0,1,,,,,,,,0,,,71,0
102720,marker,12480,1,0,,,,,,,,,,,,
102720,note_on,960,0,3,,,,,,,,2,,,43,0
103200,note_on,480,0,3,,,,,,,,2,,,55,100
103440,note_on,720,0,2,,,,,,,,1,,,71,100
103680,note_on,480,0,3,,,,,,,,2,,,55,0
103680,note_on,0,0,3,,,,,,,,2,,,54,100
103920,note_on,480,0,2,,,,,,,,1,,,71,0
103920,note_on,0,0,2,,,,,,,,1,,,69,100
104160,note_on,0,0,3,,,,,,,,2,,,52,100
104160,note_on,480,0,3,,,,,,,,2,,,54,0
104400,note_on,480,0,2,,,,,,,,1,,,69,0
104400,note_on,0,0,2,,,,,,,,1,,,67,100
104640,note_on,480,0,3,,,,,,,,2,,,52,0
104640,note_on,0,0,3,,,,,,,,2,,,50,100
104760,note_on,0,0,2,,,,,,,,1,,,66,100
104760,note_on,360,0,2,,,,,,,,1,,,67,0
104880,note_on,120,0,2,,,,,,,,1,,,66,0
104880,note_on,0,0,2,,,,,,,,1,,,67,100
105000,note_on,120,0,2,,,,,,,,1,,,67,0
105000,note_on,0,0,2,,,,,,,,1,,,69,100
105120,note_on,52320,0,4,,,,,,,,3,,,50,100
105120,note_on,0,0,2,,,,,,,,1,,,71,100
105120,note_on,480,0,3,,,,,,,,2,,,50,0
105120,note_on,0,0,3,,,,,,,,2,,,47,100
105120,note_on,120,0,2,,,,,,,,1,,,69,0
105240,note_on,120,0,2,,,,,,,,1,,,71,0
105240,note_on,0,0,2,,,,,,,,1,,,74,100
105360,note_on,0,0,2,,,,,,,,1,,,72,100
105360,note_on,120,0,2,,,,,,,,1,,,74,0
105360,note_on,2640,0,1,,,,,,,,0,,,67,100
105480,note_on,120,0,2,,,,,,,,1,,,72,0
105480,note_on,0,0,2,,,,,,,,1,,,71,100
105600,note_on,0,0,2,,,,,,,,1,,,69,100
105600,note_on,120,0,2,,,,,,,,1,,,71,0
105600,note_on,0,0,3,,,,,,,,2,,,48,100
105600,note_on,480,0,3,,,,,,,,2,,,47,0
105600,note_on,480,0,4,,,,,,,,3,,,50,0
105600,note_on,0,0,4,,,,,,,,3,,,52,100
105720,note_on,120,0,2,,,,,,,,1,,,69,0
105720,note_on,0,0,2,,,,,,,,1,,,67,100
105840,note_on,120,0,2,,,,,,,,1,,,67,0
105840,note_on,0,0,2,,,,,,,,1,,,66,100
105840,note_on,480,0,1,,,,,,,,0,,,67,0
105840,note_on,0,0,1,,,,,,,,0,,,69,100
105960,note_on,0,0,2,,,,,,,,1,,,64,100
105960,note_on,120,0,2,,,,,,,,1,,,66,0
106080,note_on,480,0,3,,,,,,,,2,,,48,0
106080,note_on,0,0,3,,,,,,,,2,,,50,100
106080,note_on,120,0,2,,,,,,,,1,,,64,0
106080,note_on,0,0,2,,,,,,,,1,,,62,100
106080,note_on,0,0,4,,,,,,,,3,,,54,100
106080,note_on,480,0,4,,,,,,,,3,,,52,0
106200,note_on,120,0,2,,,,,,,,1,,,62,0
106200,note_on,0,0,2,,,,,,,,1,,,60,100
106320,note_on,120,0,2,,,,,,,,1,,,60,0
106320,note_on,0,0,2,,,,,,,,1,,,59,100
106320,note_on,0,0,1,,,,,,,,0,,,71,100
106320,note_on,480,0,1,,,,,,,,0,,,69,0
106440,note_on,120,0,2,,,,,,,,1,,,59,0
106440,note_on,0,0,2,,,,,,,,1,,,57,100
106560,note_on,480,0,3,,,,,,,,2,,,50,0
106560,note_on,0,0,2,,,,,,,,1,,,55,100
106560,note_on,120,0,2,,,,,,,,1,,,57,0
106560,note_on,0,0,3,,,,,,,,2,,,43,100
106560,note_on,480,0,4,,,,,,,,3,,,54,0
106560,note_on,0,0,4,,,,,,,,3,,,55,100
106680,note_on,360,0,1,,,,,,,,0,,,71,0
106680,note_on,0,0,2,,,,,,,,1,,,57,100
106680,note_on,120,0,2,,,,,,,,1,,,55,0
106680,note_on,0,0,1,,,,,,,,0,,,72,100
106800,note_on,120,0,1,,,,,,,,0,,,72,0
106800,note_on,120,0,2,,,,,,,,1,,,57,0
106800,note_on,0,0,1,,,,,,,,0,,,71,100
106800,note_on,0,0,2,,,,,,,,1,,,59,100
106920,note_on,120,0,1,,,,,,,,0,,,71,0
106920,note_on,0,0,1,,,,,,,,0,,,69,100
107040,note_on,240,0,2,,,,,,,,1,,,59,0
107040,note_on,480,0,4,,,,,,,,3,,,55,0
107040,note_on,0,0,1,,,,,,,,0,,,67,100
107040,note_on,120,0,1,,,,,,,,0,,,69,0
107040,note_on,0,0,4,,,,,,,,3,,,59,100
107040,note_on,480,0,3,,,,,,,,2,,,43,0
107040,note_on,0,0,3,,,,,,,,2,,,55,100
107160,note_on,0,0,1,,,,,,,,0,,,64,100
107160,note_on,120,0,1,,,,,,,,0,,,67,0
107280,note_on,120,0,1,,,,,,,,0,,,64,0
107280,note_on,240,0,2,,,,,,,,1,,,71,100
107280,note_on,0,0,1,,,,,,,,0,,,66,100
107400,note_on,120,0,1,,,,,,,,0,,,66,0
107400,note_on,0,0,1,,,,,,,,0,,,67,100
107520,note_on,0,0,3,,,,,,,,2,,,54,100
107520,note_on,480,0,3,,,,,,,,2,,,55,0
107520,note_on,0,0,4,,,,,,,,3,,,57,100
107520,note_on,480,0,4,,,,,,,,3,,,59,0
107520,note_on,120,0,1,,,,,,,,0,,,67,0
107520,note_on,0,0,1,,,,,,,,0,,,69,100
107640,note_on,0,0,1,,,,,,,,0,,,71,100
107640,note_on,120,0,1,,,,,,,,0,,,69,0
107760,note_on,120,0,1,,,,,,,,0,,,71,0
107760,note_on,0,0,1,,,,,,,,0,,,72,100
107760,note_on,0,0,2,,,,,,,,1,,,69,100
107760,note_on,480,0,2,,,,,,,,1,,,71,0
107880,note_on,120,0,1,,,,,,,,0,,,72,0
107880,note_on,0,0,1,,,,,,,,0,,,74,100
108000,note_on,480,0,4,,,,,,,,3,,,57,0
108000,note_on,120,0,1,,,,,,,,0,,,74,0
108000,note_on,0,0,1,,,,,,,,0,,,76,100
108000,note_on,480,0,3,,,,,,,,2,,,54,0
108000,note_on,0,0,4,,,,,,,,3,,,55,100
108000,note_on,0,0,3,,,,,,,,2,,,52,100
108120,note_on,0,0,1,,,,,,,,0,,,78,100
108120,note_on,120,0,1,,,,,,,,0,,,76,0
108240,note_on,480,0,2,,,,,,,,1,,,69,0
108240,note_on,0,0,2,,,,,,,,1,,,67,100
108240,note_on,120,0,1,,,,,,,,0,,,78,0
108240,note_on,0,0,1,,,,,,,,0,,,79,100
108360,note_on,120,0,1,,,,,,,,0,,,79,0
108360,note_on,0,0,1,,,,,,,,0,,,81,100
108480,note_on,480,0,4,,,,,,,,3,,,55,0
108480,note_on,0,0,1,,,,,,,,0,,,83,100
108480,note_on,120,0,1,,,,,,,,0,,,81,0
108480,note_on,0,0,4,,,,,,,,3,,,62,100
108480,note_on,480,0,3,,,,,,,,2,,,52,0
108480,note_on,0,0,3,,,,,,,,2,,,50,100
108600,note_on,360,0,2,,,,,,,,1,,,67,0
108600,note_on,0,0,1,,,,,,,,0,,,81,100
108600,note_on,0,0,2,,,,,,,,1,,,66,100
108600,note_on,120,0,1,,,,,,,,0,,,83,0
108720,note_on,120,0,2,,,,,,,,1,,,66,0
108720,note_on,0,0,1,,,,,,,,0,,,79,100
108720,note_on,120,0,1,,,,,,,,0,,,81,0
108720,note_on,0,0,2,,,,,,,,1,,,67,100
108840,note_on,0,0,2,,,,,,,,1,,,69,100
108840,note_on,120,0,2,,,,,,,,1,,,67,0
108960,note_on,480,0,4,,,,,,,,3,,,62,0
108960,note_on,0,0,4,,,,,,,,3,,,50,100
108960,note_on,120,0,2,,,,,,,,1,,,69,0
108960,note_on,0,0,3,,,,,,,,2,,,47,100
108960,note_on,0,0,2,,,,,,,,1,,,71,100
108960,note_on,240,0,1,,,,,,,,0,,,79,0
108960,note_on,480,0,3,,,,,,,,2,,,50,0
109080,note_on,120,0,2,,,,,,,,1,,,71,0
109080,note_on,0,0,2,,,,,,,,1,,,74,100
109200,note_on,120,0,2,,,,,,,,1,,,74,0
109200,note_on,0,0,2,,,,,,,,1,,,72,100
109200,note_on,240,0,1,,,,,,,,0,,,67,100
109320,note_on,120,0,2,,,,,,,,1,,,72,0
109320,note_on,0,0,2,,,,,,,,1,,,71,100
109440,note_on,480,0,3,,,,,,,,2,,,47,0
109440,note_on,0,0,3,,,,,,,,2,,,48,100
109440,note_on,480,0,4,,,,,,,,3,,,50,0
109440,note_on,120,0,2,,,,,,,,1,,,71,0
109440,note_on,0,0,2,,,,,,,,1,,,69,100
109440,note_on,0,0,4,,,,,,,,3,,,52,100
109560,note_on,120,0,2,,,,,,,,1,,,69,0
109560,note_on,0,0,2,,,,,,,,1,,,67,100
109680,note_on,0,0,1,,,,,,,,0,,,69,100
109680,note_on,480,0,1,,,,,,,,0,,,67,0
109680,note_on,120,0,2,,,,,,,,1,,,67,0
109680,note_on,0,0,2,,,,,,,,1,,,66,100
109800,note_on,120,0,2,,,,,,,,1,,,66,0
109800,note_on,0,0,2,,,,,,,,1,,,64,100
109920,note_on,480,0,4,,,,,,,,3,,,52,0
109920,note_on,0,0,3,,,,,,,,2,,,50,100
109920,note_on,0,0,2,,,,,,,,1,,,62,100
109920,note_on,120,0,2,,,,,,,,1,,,64,0
109920,note_on,0,0,4,,,,,,,,3,,,54,100
109920,note_on,480,0,3,,,,,,,,2,,,48,0
110040,note_on,0,0,2,,,,,,,,1,,,60,100
110040,note_on,120,0,2,,,,,,,,1,,,62,0
110160,note_on,0,0,1,,,,,,,,0,,,71,100
110160,note_on,480,0,1,,,,,,,,0,,,69,0
110160,note_on,0,0,2,,,,,,,,1,,,59,100
110160,note_on,120,0,2,,,,,,,,1,,,60,0
110280,note_on,0,0,2,,,,,,,,1,,,57,100
110280,note_on,120,0,2,,,,,,,,1,,,59,0
110400,note_on,480,0,4,,,,,,,,3,,,54,0
110400,note_on,0,0,4,,,,,,,,3,,,55,100
110400,note_on,480,0,3,,,,,,,,2,,,50,0
110400,note_on,0,0,3,,,,,,,,2,,,43,100
110400,note_on,0,0,2,,,,,,,,1,,,55,100
110400,note_on,120,0,2,,,,,,,,1,,,57,0
110520,note_on,0,0,2,,,,,,,,1,,,57,100
110520,note_on,120,0,2,,,,,,,,1,,,55,0
110520,note_on,0,0,1,,,,,,,,0,,,72,100
110520,note_on,360,0,1,,,,,,,,0,,,71,0
110640,note_on,120,0,2,,,,,,,,1,,,57,0
110640,note_on,120,0,1,,,,,,,,0,,,72,0
110640,note_on,0,0,1,,,,,,,,0,,,71,100
110640,note_on,0,0,2,,,,,,,,1,,,59,100
110760,note_on,120,0,1,,,,,,,,0,,,71,0
110760,note_on,0,0,1,,,,,,,,0,,,69,100
110880,note_on,0,0,4,,,,,,,,3,,,59,100
110880,note_on,240,0,2,,,,,,,,1,,,59,0
110880,note_on,480,0,3,,,,,,,,2,,,43,0
110880,note_on,120,0,1,,,,,,,,0,,,69,0
110880,note_on,0,0,1,,,,,,,,0,,,67,100
110880,note_on,0,0,3,,,,,,,,2,,,55,100
110880,note_on,480,0,4,,,,,,,,3,,,55,0
111000,note_on,120,0,1,,,,,,,,0,,,67,0
111000,note_on,0,0,1,,,,,,,,0,,,64,100
111120,note_on,120,0,1,,,,,,,,0,,,64,0
111120,note_on,0,0,1,,,,,,,,0,,,66,100
111120,note_on,240,0,2,,,,,,,,1,,,71,100
111240,note_on,120,0,1,,,,,,,,0,,,66,0
111240,note_on,0,0,1,,,,,,,,0,,,67,100
111360,note_on,0,0,4,,,,,,,,3,,,57,100
111360,note_on,480,0,3,,,,,,,,2,,,55,0
111360,note_on,0,0,3,,,,,,,,2,,,54,100
111360,note_on,120,0,1,,,,,,,,0,,,67,0
111360,note_on,0,0,1,,,,,,,,0,,,69,100
111360,note_on,480,0,4,,,,,,,,3,,,59,0
111480,note_on,120,0,1,,,,,,,,0,,,69,0
111480,note_on,0,0,1,,,,,,,,0,,,71,100
111600,note_on,120,0,1,,,,,,,,0,,,71,0
111600,note_on,0,0,1,,,,,,,,0,,,72,100
111600,note_on,0,0,2,,,,,,,,1,,,69,100
111600,note_on,480,0,2,,,,,,,,1,,,71,0
111720,note_on,120,0,1,,,,,,,,0,,,72,0
111720,note_on,0,0,1,,,,,,,,0,,,74,100
111840,note_on,0,0,1,,,,,,,,0,,,76,100
111840,note_on,120,0,1,,,,,,,,0,,,74,0
111840,note_on,480,0,4,,,,,,,,3,,,57,0
111840,note_on,0,0,4,,,,,,,,3,,,55,100
111840,note_on,480,0,3,,,,,,,,2,,,54,0
111840,note_on,0,0,3,,,,,,,,2,,,52,100
111960,note_on,0,0,1,,,,,,,,0,,,78,100
111960,note_on,120,0,1,,,,,,,,0,,,76,0
112080,note_on,120,0,1,,,,,,,,0,,,78,0
112080,note_on,0,0,1,,,,,,,,0,,,79,100
112080,note_on,480,0,2,,,,,,,,1,,,69,0
112080,note_on,0,0,2,,,,,,,,1,,,67,100
112200,note_on,120,0,1,,,,,,,,0,,,79,0
112200,note_on,0,0,1,,,,,,,,0,,,81,100
112320,note_on,0,0,4,,,,,,,,3,,,62,100
112320,note_on,480,0,3,,,,,,,,2,,,52,0
112320,note_on,120,0,1,,,,,,,,0,,,81,0
112320,note_on,0,0,1,,,,,,,,0,,,83,100
112320,note_on,480,0,4,,,,,,,,3,,,55,0
112320,note_on,0,0,3,,,,,,,,2,,,50,100
112440,note_on,360,0,2,,,,,,,,1,,,67,0
112440,note_on,0,0,2,,,,,,,,1,,,66,100
112440,note_on,120,0,1,,,,,,,,0,,,83,0
112440,note_on,0,0,1,,,,,,,,0,,,81,100
112560,note_on,0,0,2,,,,,,,,1,,,67,100
112560,note_on,120,0,1,,,,,,,,0,,,81,0
112560,note_on,0,0,1,,,,,,,,0,,,79,100
112560,note_on,120,0,2,,,,,,,,1,,,66,0
112680,note_on,120,0,2,,,,,,,,1,,,67,0
112680,note_on,0,0,2,,,,,,,,1,,,69,100
112800,note_on,0,0,3,,,,,,,,2,,,47,100
112800,note_on,480,0,3,,,,,,,,2,,,50,0
112800,note_on,240,0,1,,,,,,,,0,,,79,0
112800,note_on,0,0,4,,,,,,,,3,,,50,100
112800,note_on,480,0,4,,,,,,,,3,,,62,0
112800,note_on,0,0,2,,,,,,,,1,,,71,100
112800,note_on,120,0,2,,,,,,,,1,,,69,0
112920,note_on,120,0,2,,,,,,,,1,,,71,0
112920,note_on,0,0,2,,,,,,,,1,,,74,100
113040,note_on,240,0,1,,,,,,,,0,,,67,100
113040,note_on,120,0,2,,,,,,,,1,,,74,0
113040,note_on,0,0,2,,,,,,,,1,,,72,100
113160,note_on,0,0,2,,,,,,,,1,,,71,100
113160,note_on,120,0,2,,,,,,,,1,,,72,0
113280,note_on,480,0,4,,,,,,,,3,,,50,0
113280,note_on,0,0,4,,,,,,,,3,,,52,100
113280,note_on,120,0,2,,,,,,,,1,,,71,0
113280,note_on,0,0,2,,,,,,,,1,,,69,100
113280,note_on,480,0,3,,,,,,,,2,,,47,0
113280,note_on,0,0,3,,,,,,,,2,,,48,100
113400,note_on,120,0,2,,,,,,,,1,,,69,0
113400,note_on,0,0,2,,,,,,,,1,,,67,100
113520,note_on,120,0,2,,,,,,,,1,,,67,0
113520,note_on,0,0,2,,,,,,,,1,,,66,100
113520,note_on,480,0,1,,,,,,,,0,,,67,0
113520,note_on,0,0,1,,,,,,,,0,,,69,100
113640,note_on,0,0,2,,,,,,,,1,,,64,100
113640,note_on,120,0,2,,,,,,,,1,,,66,0
113760,note_on,120,0,2,,,,,,,,1,,,64,0
113760,note_on,0,0,4,,,,,,,,3,,,54,100
113760,note_on,0,0,2,,,,,,,,1,,,62,100
113760,note_on,0,0,3,,,,,,,,2,,,50,100
113760,note_on,480,0,3,,,,,,,,2,,,48,0
113760,note_on,480,0,4,,,,,,,,3,,,52,0
113880,note_on,120,0,2,,,,,,,,1,,,62,0
113880,note_on,0,0,2,,,,,,,,1,,,60,100
114000,note_on,0,0,2,,,,,,,,1,,,59,100
114000,note_on,480,0,1,,,,,,,,0,,,69,0
114000,note_on,120,0,2,,,,,,,,1,,,60,0
114000,note_on,0,0,1,,,,,,,,0,,,71,100
114120,note_on,120,0,2,,,,,,,,1,,,59,0
114120,note_on,0,0,2,,,,,,,,1,,,57,100
114240,note_on,0,0,1,,,,,,,,0,,,67,100
114240,note_on,240,0,1,,,,,,,,0,,,71,0
114240,note_on,0,0,2,,,,,,,,1,,,55,100
114240,note_on,480,0,3,,,,,,,,2,,,50,0
114240,note_on,0,0,3,,,,,,,,2,,,43,100
114240,note_on,480,0,4,,,,,,,,3,,,54,0
114240,note_on,0,0,4,,,,,,,,3,,,55,100
114240,note_on,120,0,2,,,,,,,,1,,,57,0
115200,note_on,960,0,1,,,,,,,,0,,,67,0
115200,marker,12480,1,0,,,,,,,,,,,,
115200,note_on,960,0,4,,,,,,,,3,,,55,0
115200,note_on,960,0,2,,,,,,,,1,,,55,0
115200,note_on,960,0,3,,,,,,,,2,,,43,0
115680,note_on,115680,0,5,,,,,,,,4,,,55,100
115920,note_on,720,0,4,,,,,,,,3,,,59,100
115920,note_on,720,0,2,,,,,,,,1,,,71,100
116160,note_on,480,0,5,,,,,,,,4,,,55,0
116160,note_on,0,0,5,,,,,,,,4,,,54,100
116160,note_on,0,0,4,,,,,,,,3,,,61,100
116160,note_on,240,0,4,,,,,,,,3,,,59,0
116160,note_on,240,0,2,,,,,,,,1,,,71,0
116160,note_on,0,0,2,,,,,,,,1,,,70,100
116400,note_on,240,0,2,,,,,,,,1,,,70,0
116400,note_on,0,0,2,,,,,,,,1,,,69,100
116400,note_on,0,0,4,,,,,,,,3,,,63,100
116400,note_on,240,0,4,,,,,,,,3,,,61,0
116640,note_on,0,0,4,,,,,,,,3,,,64,100
116640,note_on,0,0,5,,,,,,,,4,,,52,100
116640,note_on,480,0,5,,,,,,,,4,,,54,0
116640,note_on,240,0,4,,,,,,,,3,,,63,0
116640,note_on,0,0,2,,,,,,,,1,,,68,100
116640,note_on,240,0,2,,,,,,,,1,,,69,0
116880,note_on,0,0,2,,,,,,,,1,,,67,100
116880,note_on,0,0,4,,,,,,,,3,,,59,100
116880,note_on,240,0,4,,,,,,,,3,,,64,0
116880,note_on,240,0,2,,,,,,,,1,,,68,0
117000,note_on,0,0,4,,,,,,,,3,,,61,100
117000,note_on,120,0,4,,,,,,,,3,,,59,0
117120,note_on,0,0,5,,,,,,,,4,,,50,100
117120,note_on,480,0,5,,,,,,,,4,,,52,0
117120,note_on,0,0,4,,,,,,,,3,,,62,100
117120,note_on,0,0,2,,,,,,,,1,,,66,100
117120,note_on,120,0,4,,,,,,,,3,,,61,0
117120,note_on,240,0,2,,,,,,,,1,,,67,0
117240,note_on,0,0,2,,,,,,,,1,,,67,100
117240,note_on,120,0,2,,,,,,,,1,,,66,0
117360,note_on,0,0,2,,,,,,,,1,,,66,100
117360,note_on,120,0,2,,,,,,,,1,,,67,0
117360,note_on,240,0,4,,,,,,,,3,,,62,0
117360,note_on,0,0,4,,,,,,,,3,,,57,100
117480,note_on,0,0,2,,,,,,,,1,,,64,100
117480,note_on,120,0,2,,,,,,,,1,,,66,0
117600,note_on,240,0,4,,,,,,,,3,,,57,0
117600,note_on,0,0,4,,,,,,,,3,,,59,100
117600,note_on,0,0,2,,,,,,,,1,,,62,100
117600,note_on,120,0,2,,,,,,,,1,,,64,0
117600,note_on,0,0,5,,,,,,,,4,,,47,100
117600,note_on,480,0,5,,,,,,,,4,,,50,0
117720,note_on,0,0,4,,,,,,,,3,,,60,100
117720,note_on,120,0,4,,,,,,,,3,,,59,0
117840,note_on,120,0,4,,,,,,,,3,,,60,0
117840,note_on,0,0,4,,,,,,,,3,,,59,100
117840,note_on,2640,0,1,,,,,,,,0,,,74,100
117840,note_on,240,0,2,,,,,,,,1,,,62,0
117840,note_on,2640,0,3,,,,,,,,2,,,62,100
117960,note_on,120,0,4,,,,,,,,3,,,59,0
117960,note_on,0,0,4,,,,,,,,3,,,57,100
118080,note_on,0,0,5,,,,,,,,4,,,48,100
118080,note_on,480,0,5,,,,,,,,4,,,47,0
118080,note_on,0,0,3,,,,,,,,2,,,60,100
118080,note_on,240,0,1,,,,,,,,0,,,74,0
118080,note_on,0,0,1,,,,,,,,0,,,75,100
118080,note_on,0,0,4,,,,,,,,3,,,55,100
118080,note_on,120,0,4,,,,,,,,3,,,57,0
118080,note_on,240,0,3,,,,,,,,2,,,62,0
118320,note_on,240,0,1,,,,,,,,0,,,75,0
118320,note_on,480,0,2,,,,,,,,1,,,67,100
118320,note_on,0,0,1,,,,,,,,0,,,76,100
118320,note_on,240,0,3,,,,,,,,2,,,60,0
118320,note_on,0,0,3,,,,,,,,2,,,58,100
118560,note_on,0,0,5,,,,,,,,4,,,50,100
118560,note_on,480,0,4,,,,,,,,3,,,55,0
118560,note_on,480,0,5,,,,,,,,4,,,48,0
118560,note_on,0,0,3,,,,,,,,2,,,57,100
118560,note_on,240,0,2,,,,,,,,1,,,67,0
118560,note_on,0,0,2,,,,,,,,1,,,74,100
118560,note_on,240,0,3,,,,,,,,2,,,58,0
118560,note_on,240,0,1,,,,,,,,0,,,76,0
118560,note_on,0,0,1,,,,,,,,0,,,77,100
118680,note_on,120,0,2,,,,,,,,1,,,74,0
118680,note_on,0,0,2,,,,,,,,1,,,72,100
118800,note_on,240,0,4,,,,,,,,3,,,50,100
118800,note_on,0,0,3,,,,,,,,2,,,62,100
118800,note_on,240,0,3,,,,,,,,2,,,57,0
118800,note_on,0,0,1,,,,,,,,0,,,78,100
118800,note_on,240,0,1,,,,,,,,0,,,77,0
118800,note_on,0,0,2,,,,,,,,1,,,71,100
118800,note_on,120,0,2,,,,,,,,1,,,72,0
118920,note_on,0,0,3,,,,,,,,2,,,60,100
118920,note_on,0,0,2,,,,,,,,1,,,69,100
118920,note_on,120,0,3,,,,,,,,2,,,62,0
118920,note_on,120,0,2,,,,,,,,1,,,71,0
119040,note_on,0,0,5,,,,,,,,4,,,43,100
119040,note_on,480,0,5,,,,,,,,4,,,50,0
119040,note_on,120,0,3,,,,,,,,2,,,60,0
119040,note_on,0,0,3,,,,,,,,2,,,59,100
119040,note_on,120,0,2,,,,,,,,1,,,69,0
119040,note_on,0,0,2,,,,,,,,1,,,67,100
119040,note_on,0,0,1,,,,,,,,0,,,79,100
119040,note_on,240,0,1,,,,,,,,0,,,78,0
119160,note_on,0,0,1,,,,,,,,0,,,78,100
119160,note_on,120,0,1,,,,,,,,0,,,79,0
119160,note_on,0,0,4,,,,,,,,3,,,62,100
119160,note_on,360,0,4,,,,,,,,3,,,50,0
119280,note_on,0,0,3,,,,,,,,2,,,64,100
119280,note_on,240,0,3,,,,,,,,2,,,59,0
119280,note_on,120,0,1,,,,,,,,0,,,78,0
119280,note_on,0,0,1,,,,,,,,0,,,79,100
119400,note_on,120,0,1,,,,,,,,0,,,79,0
119400,note_on,0,0,1,,,,,,,,0,,,81,100
119400,note_on,0,0,4,,,,,,,,3,,,60,100
119400,note_on,240,0,4,,,,,,,,3,,,62,0
119520,note_on,0,0,4,,,,,,,,3,,,59,100
119520,note_on,120,0,4,,,,,,,,3,,,60,0
119520,note_on,0,0,1,,,,,,,,0,,,83,100
119520,note_on,0,0,5,,,,,,,,4,,,55,100
119520,note_on,480,0,5,,,,,,,,4,,,43,0
119520,note_on,120,0,1,,,,,,,,0,,,81,0
119520,note_on,240,0,3,,,,,,,,2,,,64,0
119520,note_on,0,0,3,,,,,,,,2,,,62,100
119520,note_on,480,0,2,,,,,,,,1,,,67,0
119640,note_on,0,0,4,,,,,,,,3,,,57,100
119640,note_on,120,0,4,,,,,,,,3,,,59,0
119640,note_on,120,0,3,,,,,,,,2,,,62,0
119640,note_on,0,0,3,,,,,,,,2,,,61,100
119760,note_on,0,0,4,,,,,,,,3,,,59,100
119760,note_on,240,0,2,,,,,,,,1,,,71,100
119760,note_on,120,0,4,,,,,,,,3,,,57,0
119760,note_on,0,0,3,,,,,,,,2,,,62,100
119760,note_on,120,0,3,,,,,,,,2,,,61,0
119760,note_on,240,0,1,,,,,,,,0,,,83,0
119880,note_on,0,0,3,,,,,,,,2,,,64,100
119880,note_on,120,0,3,,,,,,,,2,,,62,0
120000,note_on,0,0,2,,,,,,,,1,,,70,100
120000,note_on,0,0,5,,,,,,,,4,,,54,100
120000,note_on,120,0,3,,,,,,,,2,,,64,0
120000,note_on,0,0,3,,,,,,,,2,,,66,100
120000,note_on,0,0,4,,,,,,,,3,,,61,100
120000,note_on,240,0,4,,,,,,,,3,,,59,0
120000,note_on,480,0,5,,,,,,,,4,,,55,0
120000,note_on,240,0,2,,,,,,,,1,,,71,0
120240,note_on,480,0,1,,,,,,,,0,,,78,100
120240,note_on,240,0,4,,,,,,,,3,,,61,0
120240,note_on,0,0,4,,,,,,,,3,,,63,100
120240,note_on,0,0,2,,,,,,,,1,,,69,100
120240,note_on,240,0,2,,,,,,,,1,,,70,0
120480,note_on,480,0,3,,,,,,,,2,,,66,0
120480,note_on,0,0,2,,,,,,,,1,,,68,100
120480,note_on,240,0,2,,,,,,,,1,,,69,0
120480,note_on,480,0,5,,,,,,,,4,,,54,0
120480,note_on,0,0,5,,,,,,,,4,,,52,100
120480,note_on,240,0,1,,,,,,,,0,,,78,0
120480,note_on,0,0,4,,,,,,,,3,,,64,100
120480,note_on,240,0,4,,,,,,,,3,,,63,0
120480,note_on,0,0,1,,,,,,,,0,,,71,100
120600,note_on,120,0,1,,,,,,,,0,,,71,0
120600,note_on,0,0,1,,,,,,,,0,,,73,100
120720,note_on,240,0,3,,,,,,,,2,,,71,100
120720,note_on,0,0,4,,,,,,,,3,,,59,100
120720,note_on,240,0,4,,,,,,,,3,,,64,0
120720,note_on,0,0,1,,,,,,,,0,,,74,100
120720,note_on,120,0,1,,,,,,,,0,,,73,0
120720,note_on,0,0,2,,,,,,,,1,,,67,100
120720,note_on,240,0,2,,,,,,,,1,,,68,0
120840,note_on,0,0,1,,,,,,,,0,,,76,100
120840,note_on,120,0,1,,,,,,,,0,,,74,0
120840,note_on,120,0,4,,,,,,,,3,,,59,0
120840,note_on,0,0,4,,,,,,,,3,,,61,100
120960,note_on,0,0,2,,,,,,,,1,,,66,100
120960,note_on,240,0,2,,,,,,,,1,,,67,0
120960,note_on,480,0,5,,,,,,,,4,,,52,0
120960,note_on,0,0,5,,,,,,,,4,,,50,100
120960,note_on,0,0,1,,,,,,,,0,,,78,100
120960,note_on,0,0,4,,,,,,,,3,,,62,100
120960,note_on,120,0,4,,,,,,,,3,,,61,0
120960,note_on,120,0,1,,,,,,,,0,,,76,0
121080,note_on,0,0,2,,,,,,,,1,,,67,100
121080,note_on,0,0,3,,,,,,,,2,,,59,100
121080,note_on,360,0,3,,,,,,,,2,,,71,0
121080,note_on,120,0,2,,,,,,,,1,,,66,0
121200,note_on,0,0,2,,,,,,,,1,,,66,100
121200,note_on,0,0,4,,,,,,,,3,,,57,100
121200,note_on,240,0,4,,,,,,,,3,,,62,0
121200,note_on,120,0,2,,,,,,,,1,,,67,0
121320,note_on,240,0,3,,,,,,,,2,,,59,0
121320,note_on,120,0,2,,,,,,,,1,,,66,0
121320,note_on,0,0,2,,,,,,,,1,,,64,100
121320,note_on,0,0,3,,,,,,,,2,,,61,100
121440,note_on,0,0,3,,,,,,,,2,,,62,100
121440,note_on,120,0,2,,,,,,,,1,,,64,0
121440,note_on,120,0,3,,,,,,,,2,,,61,0
121440,note_on,240,0,4,,,,,,,,3,,,57,0
121440,note_on,0,0,4,,,,,,,,3,,,59,100
121440,note_on,0,0,5,,,,,,,,4,,,47,100
121440,note_on,0,0,2,,,,,,,,1,,,62,100
121440,note_on,480,0,1,,,,,,,,0,,,78,0
121440,note_on,480,0,5,,,,,,,,4,,,50,0
121560,note_on,120,0,4,,,,,,,,3,,,59,0
121560,note_on,0,0,4,,,,,,,,3,,,60,100
121560,note_on,0,0,3,,,,,,,,2,,,64,100
121560,note_on,120,0,3,,,,,,,,2,,,62,0
121680,note_on,240,0,2,,,,,,,,1,,,62,0
121680,note_on,240,0,1,,,,,,,,0,,,74,100
121680,note_on,0,0,3,,,,,,,,2,,,62,100
121680,note_on,120,0,3,,,,,,,,2,,,64,0
121680,note_on,120,0,4,,,,,,,,3,,,60,0
121680,note_on,0,0,4,,,,,,,,3,,,59,100
121800,note_on,120,0,4,,,,,,,,3,,,59,0
121800,note_on,0,0,4,,,,,,,,3,,,57,100
121920,note_on,0,0,4,,,,,,,,3,,,55,100
121920,note_on,0,0,1,,,,,,,,0,,,75,100
121920,note_on,240,0,1,,,,,,,,0,,,74,0
121920,note_on,0,0,3,,,,,,,,2,,,60,100
121920,note_on,480,0,5,,,,,,,,4,,,47,0
121920,note_on,0,0,5,,,,,,,,4,,,48,100
121920,note_on,240,0,3,,,,,,,,2,,,62,0
121920,note_on,120,0,4,,,,,,,,3,,,57,0
122160,note_on,0,0,1,,,,,,,,0,,,76,100
122160,note_on,240,0,1,,,,,,,,0,,,75,0
122160,note_on,0,0,3,,,,,,,,2,,,58,100
122160,note_on,240,0,3,,,,,,,,2,,,60,0
122160,note_on,480,0,2,,,,,,,,1,,,67,100
122400,note_on,480,0,4,,,,,,,,3,,,55,0
122400,note_on,240,0,2,,,,,,,,1,,,67,0
122400,note_on,240,0,1,,,,,,,,0,,,76,0
122400,note_on,0,0,5,,,,,,,,4,,,50,100
122400,note_on,480,0,5,,,,,,,,4,,,48,0
122400,note_on,0,0,1,,,,,,,,0,,,77,100
122400,note_on,0,0,3,,,,,,,,2,,,57,100
122400,note_on,240,0,3,,,,,,,,2,,,58,0
122400,note_on,0,0,2,,,,,,,,1,,,74,100
122520,note_on,120,0,2,,,,,,,,1,,,74,0
122520,note_on,0,0,2,,,,,,,,1,,,72,100
122640,note_on,240,0,1,,,,,,,,0,,,77,0
122640,note_on,240,0,4,,,,,,,,3,,,50,100
122640,note_on,0,0,3,,,,,,,,2,,,62,100
122640,note_on,0,0,1,,,,,,,,0,,,78,100
122640,note_on,0,0,2,,,,,,,,1,,,71,100
122640,note_on,120,0,2,,,,,,,,1,,,72,0
122640,note_on,240,0,3,,,,,,,,2,,,57,0
122760,note_on,120,0,2,,,,,,,,1,,,71,0
122760,note_on,0,0,2,,,,,,,,1,,,69,100
122760,note_on,120,0,3,,,,,,,,2,,,62,0
122760,note_on,0,0,3,,,,,,,,2,,,60,100
122880,note_on,240,0,1,,,,,,,,0,,,78,0
122880,note_on,0,0,1,,,,,,,,0,,,79,100
122880,note_on,0,0,5,,,,,,,,4,,,43,100
122880,note_on,120,0,2,,,,,,,,1,,,69,0
122880,note_on,0,0,2,,,,,,,,1,,,67,100
122880,note_on,120,0,3,,,,,,,,2,,,60,0
122880,note_on,480,0,5,,,,,,,,4,,,50,0
122880,note_on,0,0,3,,,,,,,,2,,,59,100
123000,note_on,360,0,4,,,,,,,,3,,,50,0
123000,note_on,0,0,4,,,,,,,,3,,,62,100
123000,note_on,120,0,1,,,,,,,,0,,,79,0
123000,note_on,0,0,1,,,,,,,,0,,,78,100
123120,note_on,240,0,3,,,,,,,,2,,,59,0
123120,note_on,120,0,1,,,,,,,,0,,,78,0
123120,note_on,0,0,3,,,,,,,,2,,,64,100
123120,note_on,0,0,1,,,,,,,,0,,,79,100
123240,note_on,0,0,1,,,,,,,,0,,,81,100
123240,note_on,0,0,4,,,,,,,,3,,,60,100
123240,note_on,240,0,4,,,,,,,,3,,,62,0
123240,note_on,120,0,1,,,,,,,,0,,,79,0
123360,note_on,120,0,4,,,,,,,,3,,,60,0
123360,note_on,0,0,4,,,,,,,,3,,,59,100
123360,note_on,0,0,3,,,,,,,,2,,,62,100
123360,note_on,240,0,3,,,,,,,,2,,,64,0
123360,note_on,0,0,5,,,,,,,,4,,,55,100
123360,note_on,480,0,5,,,,,,,,4,,,43,0
123360,note_on,480,0,2,,,,,,,,1,,,67,0
123360,note_on,0,0,1,,,,,,,,0,,,83,100
123360,note_on,120,0,1,,,,,,,,0,,,81,0
123480,note_on,120,0,4,,,,,,,,3,,,59,0
123480,note_on,0,0,4,,,,,,,,3,,,57,100
123480,note_on,120,0,3,,,,,,,,2,,,62,0
123480,note_on,0,0,3,,,,,,,,2,,,61,100
123600,note_on,240,0,1,,,,,,,,0,,,83,0
123600,note_on,120,0,4,,,,,,,,3,,,57,0
123600,note_on,0,0,4,,,,,,,,3,,,59,100
123600,note_on,120,0,3,,,,,,,,2,,,61,0
123600,note_on,0,0,3,,,,,,,,2,,,62,100
123600,note_on,240,0,2,,,,,,,,1,,,71,100
123720,note_on,120,0,3,,,,,,,,2,,,62,0
123720,note_on,0,0,3,,,,,,,,2,,,64,100
123840,note_on,0,0,4,,,,,,,,3,,,61,100
123840,note_on,240,0,4,,,,,,,,3,,,59,0
123840,note_on,0,0,2,,,,,,,,1,,,70,100
123840,note_on,240,0,2,,,,,,,,1,,,71,0
123840,note_on,120,0,3,,,,,,,,2,,,64,0
123840,note_on,0,0,3,,,,,,,,2,,,66,100
123840,note_on,0,0,5,,,,,,,,4,,,54,100
123840,note_on,480,0,5,,,,,,,,4,,,55,0
124080,note_on,240,0,2,,,,,,,,1,,,70,0
124080,note_on,0,0,4,,,,,,,,3,,,63,100
124080,note_on,240,0,4,,,,,,,,3,,,61,0
124080,note_on,0,0,2,,,,,,,,1,,,69,100
124080,note_on,480,0,1,,,,,,,,0,,,78,100
124320,note_on,240,0,2,,,,,,,,1,,,69,0
124320,note_on,480,0,3,,,,,,,,2,,,66,0
124320,note_on,480,0,5,,,,,,,,4,,,54,0
124320,note_on,0,0,2,,,,,,,,1,,,68,100
124320,note_on,0,0,5,,,,,,,,4,,,52,100
124320,note_on,0,0,1,,,,,,,,0,,,71,100
124320,note_on,240,0,4,,,,,,,,3,,,63,0
124320,note_on,240,0,1,,,,,,,,0,,,78,0
124320,note_on,0,0,4,,,,,,,,3,,,64,100
124440,note_on,120,0,1,,,,,,,,0,,,71,0
124440,note_on,0,0,1,,,,,,,,0,,,73,100
124560,note_on,240,0,2,,,,,,,,1,,,68,0
124560,note_on,0,0,2,,,,,,,,1,,,67,100
124560,note_on,120,0,1,,,,,,,,0,,,73,0
124560,note_on,0,0,1,,,,,,,,0,,,74,100
124560,note_on,240,0,4,,,,,,,,3,,,64,0
124560,note_on,0,0,4,,,,,,,,3,,,59,100
124560,note_on,240,0,3,,,,,,,,2,,,71,100
124680,note_on,120,0,1,,,,,,,,0,,,74,0
124680,note_on,0,0,4,,,,,,,,3,,,61,100
124680,note_on,120,0,4,,,,,,,,3,,,59,0
124680,note_on,0,0,1,,,,,,,,0,,,76,100
124800,note_on,240,0,2,,,,,,,,1,,,67,0
124800,note_on,0,0,4,,,,,,,,3,,,62,100
124800,note_on,0,0,5,,,,,,,,4,,,50,100
124800,note_on,480,0,5,,,,,,,,4,,,52,0
124800,note_on,120,0,4,,,,,,,,3,,,61,0
124800,note_on,0,0,1,,,,,,,,0,,,78,100
124800,note_on,120,0,1,,,,,,,,0,,,76,0
124800,note_on,0,0,2,,,,,,,,1,,,66,100
124920,note_on,0,0,3,,,,,,,,2,,,59,100
124920,note_on,120,0,2,,,,,,,,1,,,66,0
124920,note_on,0,0,2,,,,,,,,1,,,67,100
124920,note_on,360,0,3,,,,,,,,2,,,71,0
125040,note_on,0,0,4,,,,,,,,3,,,57,100
125040,note_on,240,0,4,,,,,,,,3,,,62,0
125040,note_on,120,0,2,,,,,,,,1,,,67,0
125040,note_on,0,0,2,,,,,,,,1,,,66,100
125160,note_on,240,0,3,,,,,,,,2,,,59,0
125160,note_on,0,0,2,,,,,,,,1,,,64,100
125160,note_on,120,0,2,,,,,,,,1,,,66,0
125160,note_on,0,0,3,,,,,,,,2,,,61,100
125280,note_on,0,0,2,,,,,,,,1,,,62,100
125280,note_on,120,0,2,,,,,,,,1,,,64,0
125280,note_on,0,0,5,,,,,,,,4,,,47,100
125280,note_on,480,0,5,,,,,,,,4,,,50,0
125280,note_on,0,0,3,,,,,,,,2,,,62,100
125280,note_on,480,0,1,,,,,,,,0,,,78,0
125280,note_on,0,0,4,,,,,,,,3,,,59,100
125280,note_on,120,0,3,,,,,,,,2,,,61,0
125280,note_on,240,0,4,,,,,,,,3,,,57,0
125400,note_on,0,0,4,,,,,,,,3,,,60,100
125400,note_on,0,0,3,,,,,,,,2,,,64,100
125400,note_on,120,0,3,,,,,,,,2,,,62,0
125400,note_on,120,0,4,,,,,,,,3,,,59,0
125520,note_on,240,0,2,,,,,,,,1,,,62,0
125520,note_on,240,0,1,,,,,,,,0,,,74,100
125520,note_on,0,0,3,,,,,,,,2,,,62,100
125520,note_on,120,0,3,,,,,,,,2,,,64,0
125520,note_on,120,0,4,,,,,,,,3,,,60,0
125520,note_on,0,0,4,,,,,,,,3,,,59,100
125640,note_on,0,0,4,,,,,,,,3,,,57,100
125640,note_on,120,0,4,,,,,,,,3,,,59,0
125760,note_on,240,0,3,,,,,,,,2,,,62,0
125760,note_on,0,0,5,,,,,,,,4,,,48,100
125760,note_on,480,0,5,,,,,,,,4,,,47,0
125760,note_on,240,0,1,,,,,,,,0,,,74,0
125760,note_on,0,0,1,,,,,,,,0,,,75,100
125760,note_on,0,0,3,,,,,,,,2,,,60,100
125760,note_on,120,0,4,,,,,,,,3,,,57,0
125760,note_on,0,0,4,,,,,,,,3,,,55,100
126000,note_on,240,0,3,,,,,,,,2,,,60,0
126000,note_on,0,0,3,,,,,,,,2,,,58,100
126000,note_on,480,0,2,,,,,,,,1,,,67,100
126000,note_on,240,0,1,,,,,,,,0,,,75,0
126000,note_on,0,0,1,,,,,,,,0,,,76,100
126240,note_on,240,0,2,,,,,,,,1,,,67,0
126240,note_on,240,0,1,,,,,,,,0,,,76,0
126240,note_on,0,0,1,,,,,,,,0,,,77,100
126240,note_on,480,0,5,,,,,,,,4,,,48,0
126240,note_on,0,0,3,,,,,,,,2,,,57,100
126240,note_on,240,0,3,,,,,,,,2,,,58,0
126240,note_on,480,0,4,,,,,,,,3,,,55,0
126240,note_on,0,0,5,,,,,,,,4,,,50,100
126240,note_on,0,0,2,,,,,,,,1,,,74,100
126360,note_on,120,0,2,,,,,,,,1,,,74,0
126360,note_on,0,0,2,,,,,,,,1,,,72,100
126480,note_on,120,0,2,,,,,,,,1,,,72,0
126480,note_on,0,0,2,,,,,,,,1,,,71,100
126480,note_on,240,0,3,,,,,,,,2,,,57,0
126480,note_on,0,0,3,,,,,,,,2,,,62,100
126480,note_on,0,0,1,,,,,,,,0,,,78,100
126480,note_on,240,0,1,,,,,,,,0,,,77,0
126480,note_on,240,0,4,,,,,,,,3,,,50,100
126600,note_on,120,0,3,,,,,,,,2,,,62,0
126600,note_on,0,0,2,,,,,,,,1,,,69,100
126600,note_on,0,0,3,,,,,,,,2,,,60,100
126600,note_on,120,0,2,,,,,,,,1,,,71,0
126720,note_on,0,0,2,,,,,,,,1,,,67,100
126720,note_on,0,0,5,,,,,,,,4,,,43,100
126720,note_on,120,0,3,,,,,,,,2,,,60,0
126720,note_on,0,0,3,,,,,,,,2,,,59,100
126720,note_on,0,0,1,,,,,,,,0,,,79,100
126720,note_on,240,0,1,,,,,,,,0,,,78,0
126720,note_on,480,0,5,,,,,,,,4,,,50,0
126720,note_on,120,0,2,,,,,,,,1,,,69,0
127680,time_signature,12480,1,0,4,4,24,8,,,,,,,,
127680,note_on,960,0,5,,,,,,,,4,,,43,0
127680,note_on,960,0,1,,,,,,,,0,,,79,0
127680,note_on,960,0,3,,,,,,,,2,,,59,0
127680,note_on,1200,0,4,,,,,,,,3,,,50,0
127680,marker,0,1,0,,,,,,,,,,,,
127680,note_on,960,0,2,,,,,,,,1,,,67,0
127800,note_on,120,0,2,,,,,,,,1,,,79,100
127920,note_on,120,0,2,,,,,,,,1,,,79,0
127920,note_on,0,0,2,,,,,,,,1,,,78,100
128040,note_on,0,0,2,,,,,,,,1,,,76,100
128040,note_on,120,0,2,,,,,,,,1,,,78,0
128160,note_on,120,0,2,,,,,,,,1,,,76,0
128160,note_on,0,0,2,,,,,,,,1,,,74,100
128280,note_on,600,0,1,,,,,,,,0,,,62,100
128280,note_on,120,0,2,,,,,,,,1,,,74,0
128280,note_on,0,0,2,,,,,,,,1,,,71,100
128400,note_on,0,0,1,,,,,,,,0,,,64,100
128400,note_on,120,0,1,,,,,,,,0,,,62,0
128400,note_on,0,0,2,,,,,,,,1,,,72,100
128400,note_on,120,0,2,,,,,,,,1,,,71,0
128520,note_on,120,0,1,,,,,,,,0,,,64,0
128520,note_on,0,0,2,,,,,,,,1,,,74,100
128520,note_on,120,0,2,,,,,,,,1,,,72,0
128520,note_on,0,0,1,,,,,,,,0,,,66,100
128640,note_on,960,0,5,,,,,,,,4,,,55,100
128640,note_on,120,0,1,,,,,,,,0,,,66,0
128640,note_on,120,0,2,,,,,,,,1,,,74,0
128640,note_on,0,0,2,,,,,,,,1,,,67,100
128640,note_on,0,0,1,,,,,,,,0,,,67,100
128760,note_on,120,0,1,,,,,,,,0,,,67,0
128760,note_on,0,0,1,,,,,,,,0,,,71,100
128760,note_on,120,0,2,,,,,,,,1,,,67,0
128760,note_on,0,0,2,,,,,,,,1,,,62,100
128880,note_on,1200,0,4,,,,,,,,3,,,67,100
128880,note_on,120,0,1,,,,,,,,0,,,71,0
128880,note_on,0,0,1,,,,,,,,0,,,69,100
128880,note_on,0,0,2,,,,,,,,1,,,59,100
128880,note_on,120,0,2,,,,,,,,1,,,62,0
129000,note_on,0,0,1,,,,,,,,0,,,67,100
129000,note_on,120,0,1,,,,,,,,0,,,69,0
129120,note_on,0,0,1,,,,,,,,0,,,74,100
129120,note_on,240,0,4,,,,,,,,3,,,67,0
129120,note_on,0,0,4,,,,,,,,3,,,66,100
129120,note_on,120,0,1,,,,,,,,0,,,67,0
129240,note_on,120,0,1,,,,,,,,0,,,74,0
129240,note_on,0,0,1,,,,,,,,0,,,79,100
129360,note_on,0,0,1,,,,,,,,0,,,83,100
129360,note_on,240,0,4,,,,,,,,3,,,66,0
129360,note_on,0,0,4,,,,,,,,3,,,64,100
129360,note_on,120,0,1,,,,,,,,0,,,79,0
129480,note_on,0,0,2,,,,,,,,1,,,61,100
129480,note_on,600,0,2,,,,,,,,1,,,59,0
129600,note_on,240,0,4,,,,,,,,3,,,64,0
129600,note_on,0,0,4,,,,,,,,3,,,62,100
129600,note_on,0,0,5,,,,,,,,4,,,54,100
129600,note_on,120,0,2,,,,,,,,1,,,61,0
129600,note_on,0,0,2,,,,,,,,1,,,62,100
129600,note_on,960,0,5,,,,,,,,4,,,55,0
129720,note_on,120,0,2,,,,,,,,1,,,62,0
129720,note_on,0,0,2,,,,,,,,1,,,64,100
129840,note_on,120,0,2,,,,,,,,1,,,64,0
129840,note_on,0,0,2,,,,,,,,1,,,66,100
129840,note_on,0,0,4,,,,,,,,3,,,59,100
129840,note_on,240,0,4,,,,,,,,3,,,62,0
129840,note_on,2160,0,3,,,,,,,,2,,,62,100
129960,note_on,0,0,1,,,,,,,,0,,,81,100
129960,note_on,0,0,2,,,,,,,,1,,,67,100
129960,note_on,120,0,2,,,,,,,,1,,,66,0
129960,note_on,600,0,1,,,,,,,,0,,,83,0
130080,note_on,0,0,2,,,,,,,,1,,,69,100
130080,note_on,120,0,2,,,,,,,,1,,,67,0
130080,note_on,240,0,4,,,,,,,,3,,,59,0
130080,note_on,0,0,4,,,,,,,,3,,,61,100
130080,note_on,0,0,3,,,,,,,,2,,,64,100
130080,note_on,0,0,1,,,,,,,,0,,,79,100
130080,note_on,120,0,1,,,,,,,,0,,,81,0
130080,note_on,240,0,3,,,,,,,,2,,,62,0
130200,note_on,0,0,1,,,,,,,,0,,,78,100
130200,note_on,120,0,1,,,,,,,,0,,,79,0
130320,note_on,0,0,1,,,,,,,,0,,,76,100
130320,note_on,120,0,1,,,,,,,,0,,,78,0
130320,note_on,0,0,2,,,,,,,,1,,,62,100
130320,note_on,0,0,3,,,,,,,,2,,,66,100
130320,note_on,240,0,2,,,,,,,,1,,,69,0
130320,note_on,240,0,4,,,,,,,,3,,,61,0
130320,note_on,0,0,4,,,,,,,,3,,,62,100
130320,note_on,240,0,3,,,,,,,,2,,,64,0
130440,note_on,120,0,1,,,,,,,,0,,,76,0
130440,note_on,0,0,1,,,,,,,,0,,,74,100
130560,note_on,120,0,1,,,,,,,,0,,,74,0
130560,note_on,960,0,5,,,,,,,,4,,,54,0
130560,note_on,0,0,5,,,,,,,,4,,,52,100
130560,note_on,0,0,4,,,,,,,,3,,,55,100
130560,note_on,0,0,1,,,,,,,,0,,,73,100
130560,note_on,0,0,3,,,,,,,,2,,,67,100
130560,note_on,240,0,4,,,,,,,,3,,,62,0
130560,note_on,240,0,2,,,,,,,,1,,,62,0
130560,note_on,240,0,3,,,,,,,,2,,,66,0
130680,note_on,120,0,2,,,,,,,,1,,,66,100
130800,note_on,240,0,3,,,,,,,,2,,,67,0
130800,note_on,240,0,4,,,,,,,,3,,,55,0
130800,note_on,0,0,4,,,,,,,,3,,,67,100
130800,note_on,0,0,1,,,,,,,,0,,,79,100
130800,note_on,240,0,1,,,,,,,,0,,,73,0
130800,note_on,0,0,3,,,,,,,,2,,,71,100
130800,note_on,0,0,2,,,,,,,,1,,,64,100
130800,note_on,120,0,2,,,,,,,,1,,,66,0
130920,note_on,0,0,2,,,,,,,,1,,,62,100
130920,note_on,120,0,2,,,,,,,,1,,,64,0
131040,note_on,240,0,3,,,,,,,,2,,,71,0
131040,note_on,0,0,2,,,,,,,,1,,,64,100
131040,note_on,0,0,4,,,,,,,,3,,,61,100
131040,note_on,240,0,4,,,,,,,,3,,,67,0
131040,note_on,240,0,1,,,,,,,,0,,,79,0
131040,note_on,120,0,2,,,,,,,,1,,,62,0
131040,note_on,0,0,3,,,,,,,,2,,,69,100
131160,note_on,120,0,1,,,,,,,,0,,,76,100
131280,note_on,240,0,3,,,,,,,,2,,,69,0
131280,note_on,0,0,1,,,,,,,,0,,,78,100
131280,note_on,240,0,2,,,,,,,,1,,,64,0
131280,note_on,0,0,3,,,,,,,,2,,,67,100
131280,note_on,120,0,1,,,,,,,,0,,,76,0
131280,note_on,0,0,2,,,,,,,,1,,,73,100
131400,note_on,120,0,1,,,,,,,,0,,,78,0
131400,note_on,0,0,1,,,,,,,,0,,,79,100
131520,note_on,960,0,5,,,,,,,,4,,,52,0
131520,note_on,0,0,5,,,,,,,,4,,,50,100
131520,note_on,120,0,1,,,,,,,,0,,,79,0
131520,note_on,0,0,1,,,,,,,,0,,,78,100
131520,note_on,0,0,4,,,,,,,,3,,,62,100
131520,note_on,240,0,2,,,,,,,,1,,,73,0
131520,note_on,480,0,4,,,,,,,,3,,,61,0
131520,note_on,0,0,3,,,,,,,,2,,,74,100
131520,note_on,240,0,3,,,,,,,,2,,,67,0
131640,note_on,120,0,2,,,,,,,,1,,,79,100
131760,note_on,0,0,3,,,,,,,,2,,,62,100
131760,note_on,240,0,3,,,,,,,,2,,,74,0
131760,note_on,240,0,1,,,,,,,,0,,,78,0
131760,note_on,0,0,1,,,,,,,,0,,,69,100
131760,note_on,120,0,2,,,,,,,,1,,,79,0
131760,note_on,0,0,2,,,,,,,,1,,,78,100
131880,note_on,120,0,2,,,,,,,,1,,,78,0
131880,note_on,0,0,2,,,,,,,,1,,,76,100
132000,note_on,240,0,3,,,,,,,,2,,,62,0
132000,note_on,240,0,1,,,,,,,,0,,,69,0
132000,note_on,480,0,4,,,,,,,,3,,,62,0
132000,note_on,120,0,2,,,,,,,,1,,,76,0
132000,note_on,0,0,2,,,,,,,,1,,,74,100
132000,note_on,0,0,3,,,,,,,,2,,,69,100
132120,note_on,120,0,1,,,,,,,,0,,,62,100
132240,note_on,0,0,1,,,,,,,,0,,,64,100
132240,note_on,240,0,2,,,,,,,,1,,,74,0
132240,note_on,0,0,2,,,,,,,,1,,,62,100
132240,note_on,120,0,1,,,,,,,,0,,,62,0
132360,note_on,0,0,1,,,,,,,,0,,,66,100
132360,note_on,120,0,1,,,,,,,,0,,,64,0
132480,note_on,240,0,2,,,,,,,,1,,,62,0
132480,note_on,0,0,5,,,,,,,,4,,,47,100
132480,note_on,0,0,1,,,,,,,,0,,,67,100
132480,note_on,120,0,1,,,,,,,,0,,,66,0
132480,note_on,960,0,5,,,,,,,,4,,,50,0
132480,note_on,0,0,3,,,,,,,,2,,,67,100
132480,note_on,480,0,3,,,,,,,,2,,,69,0
132600,note_on,120,0,2,,,,,,,,1,,,71,100
132720,note_on,720,0,4,,,,,,,,3,,,59,100
132720,note_on,240,0,1,,,,,,,,0,,,67,0
132720,note_on,0,0,2,,,,,,,,1,,,72,100
132720,note_on,120,0,2,,,,,,,,1,,,71,0
132720,note_on,0,0,1,,,,,,,,0,,,79,100
132840,note_on,0,0,2,,,,,,,,1,,,74,100
132840,note_on,120,0,2,,,,,,,,1,,,72,0
132960,note_on,480,0,3,,,,,,,,2,,,67,0
132960,note_on,240,0,4,,,,,,,,3,,,59,0
132960,note_on,0,0,4,,,,,,,,3,,,60,100
132960,note_on,240,0,1,,,,,,,,0,,,79,0
132960,note_on,120,0,2,,,,,,,,1,,,74,0
132960,note_on,0,0,2,,,,,,,,1,,,65,100
133080,note_on,120,0,1,,,,,,,,0,,,71,100
133200,note_on,240,0,4,,,,,,,,3,,,60,0
133200,note_on,0,0,4,,,,,,,,3,,,62,100
133200,note_on,120,0,1,,,,,,,,0,,,71,0
133200,note_on,240,0,2,,,,,,,,1,,,65,0
133200,note_on,0,0,2,,,,,,,,1,,,77,100
133200,note_on,0,0,1,,,,,,,,0,,,69,100
133320,note_on,0,0,1,,,,,,,,0,,,67,100
133320,note_on,120,0,1,,,,,,,,0,,,69,0
133440,note_on,120,0,1,,,,,,,,0,,,67,0
133440,note_on,0,0,1,,,,,,,,0,,,76,100
133440,note_on,240,0,4,,,,,,,,3,,,62,0
133440,note_on,0,0,5,,,,,,,,4,,,48,100
133440,note_on,240,0,2,,,,,,,,1,,,77,0
133440,note_on,0,0,4,,,,,,,,3,,,64,100
133440,note_on,960,0,5,,,,,,,,4,,,47,0
133560,note_on,120,0,2,,,,,,,,1,,,76,100
133680,note_on,240,0,4,,,,,,,,3,,,64,0
133680,note_on,0,0,2,,,,,,,,1,,,74,100
133680,note_on,120,0,2,,,,,,,,1,,,76,0
133680,note_on,0,0,1,,,,,,,,0,,,64,100
133680,note_on,240,0,1,,,,,,,,0,,,76,0
133680,note_on,0,0,4,,,,,,,,3,,,67,100
133680,note_on,720,0,3,,,,,,,,2,,,71,100
133800,note_on,0,0,2,,,,,,,,1,,,72,100
133800,note_on,120,0,2,,,,,,,,1,,,74,0
133920,note_on,240,0,1,,,,,,,,0,,,64,0
133920,note_on,0,0,2,,,,,,,,1,,,72,100
133920,note_on,240,0,4,,,,,,,,3,,,67,0
133920,note_on,0,0,4,,,,,,,,3,,,66,100
133920,note_on,0,0,3,,,,,,,,2,,,69,100
133920,note_on,120,0,2,,,,,,,,1,,,72,0
133920,note_on,240,0,3,,,,,,,,2,,,71,0
134040,note_on,120,0,1,,,,,,,,0,,,66,100
134040,note_on,120,0,2,,,,,,,,1,,,72,0
134040,note_on,0,0,2,,,,,,,,1,,,81,100
134160,note_on,120,0,2,,,,,,,,1,,,81,0
134160,note_on,0,0,2,,,,,,,,1,,,72,100
134160,note_on,240,0,4,,,,,,,,3,,,66,0
134160,note_on,0,0,4,,,,,,,,3,,,64,100
134160,note_on,120,0,1,,,,,,,,0,,,66,0
134160,note_on,0,0,1,,,,,,,,0,,,67,100
134160,note_on,240,0,3,,,,,,,,2,,,69,0
134160,note_on,0,0,3,,,,,,,,2,,,67,100
134280,note_on,120,0,1,,,,,,,,0,,,67,0
134280,note_on,0,0,1,,,,,,,,0,,,69,100
134400,note_on,960,0,5,,,,,,,,4,,,48,0
134400,note_on,0,0,3,,,,,,,,2,,,66,100
134400,note_on,0,0,1,,,,,,,,0,,,69,100
134400,note_on,120,0,1,,,,,,,,0,,,69,0
134400,note_on,240,0,4,,,,,,,,3,,,64,0
134400,note_on,240,0,3,,,,,,,,2,,,67,0
134400,note_on,240,0,2,,,,,,,,1,,,72,0
134400,note_on,0,0,5,,,,,,,,4,,,50,100
134400,note_on,0,0,4,,,,,,,,3,,,62,100
134520,note_on,0,0,1,,,,,,,,0,,,60,100
134520,note_on,120,0,1,,,,,,,,0,,,69,0
134520,note_on,120,0,2,,,,,,,,1,,,69,100
134640,note_on,0,0,3,,,,,,,,2,,,62,100
134640,note_on,120,0,2,,,,,,,,1,,,69,0
134640,note_on,0,0,2,,,,,,,,1,,,72,100
134640,note_on,240,0,3,,,,,,,,2,,,66,0
134640,note_on,120,0,1,,,,,,,,0,,,60,0
134640,note_on,0,0,1,,,,,,,,0,,,69,100
134760,note_on,120,0,2,,,,,,,,1,,,72,0
134760,note_on,0,0,2,,,,,,,,1,,,78,100
134880,note_on,240,0,3,,,,,,,,2,,,62,0
134880,note_on,120,0,2,,,,,,,,1,,,78,0
134880,note_on,0,0,3,,,,,,,,2,,,64,100
134880,note_on,240,0,1,,,,,,,,0,,,69,0
134880,note_on,0,0,2,,,,,,,,1,,,79,100
135000,note_on,120,0,1,,,,,,,,0,,,72,100
135120,note_on,0,0,3,,,,,,,,2,,,66,100
135120,note_on,720,0,4,,,,,,,,3,,,62,0
135120,note_on,0,0,4,,,,,,,,3,,,60,100
135120,note_on,120,0,1,,,,,,,,0,,,72,0
135120,note_on,0,0,1,,,,,,,,0,,,69,100
135120,note_on,240,0,2,,,,,,,,1,,,79,0
135120,note_on,0,0,2,,,,,,,,1,,,81,100
135120,note_on,240,0,3,,,,,,,,2,,,64,0
135240,note_on,120,0,1,,,,,,,,0,,,69,0
135240,note_on,0,0,1,,,,,,,,0,,,64,100
135360,note_on,240,0,4,,,,,,,,3,,,60,0
135360,note_on,0,0,4,,,,,,,,3,,,59,100
135360,note_on,0,0,1,,,,,,,,0,,,62,100
135360,note_on,0,0,5,,,,,,,,4,,,43,100
135360,note_on,120,0,1,,,,,,,,0,,,64,0
135360,note_on,240,0,3,,,,,,,,2,,,66,0
135360,note_on,0,0,3,,,,,,,,2,,,67,100
135360,note_on,960,0,5,,,,,,,,4,,,50,0
135360,note_on,0,0,2,,,,,,,,1,,,83,100
135360,note_on,240,0,2,,,,,,,,1,,,81,0
135480,note_on,0,0,2,,,,,,,,1,,,79,100
135480,note_on,120,0,2,,,,,,,,1,,,83,0
135600,note_on,120,0,2,,,,,,,,1,,,79,0
135600,note_on,0,0,2,,,,,,,,1,,,78,100
135600,note_on,240,0,1,,,,,,,,0,,,62,0
135600,note_on,0,0,1,,,,,,,,0,,,60,100
135720,note_on,120,0,2,,,,,,,,1,,,78,0
135720,note_on,0,0,2,,,,,,,,1,,,76,100
135840,note_on,0,0,1,,,,,,,,0,,,59,100
135840,note_on,480,0,4,,,,,,,,3,,,59,0
135840,note_on,0,0,2,,,,,,,,1,,,74,100
135840,note_on,120,0,2,,,,,,,,1,,,76,0
135840,note_on,240,0,1,,,,,,,,0,,,60,0
135960,note_on,0,0,2,,,,,,,,1,,,71,100
135960,note_on,120,0,2,,,,,,,,1,,,74,0
135960,note_on,120,0,1,,,,,,,,0,,,59,0
135960,note_on,0,0,1,,,,,,,,0,,,62,100
136080,note_on,0,0,2,,,,,,,,1,,,72,100
136080,note_on,120,0,2,,,,,,,,1,,,71,0
136080,note_on,0,0,1,,,,,,,,0,,,64,100
136080,note_on,120,0,1,,,,,,,,0,,,62,0
136080,note_on,720,0,3,,,,,,,,2,,,67,0
136080,note_on,0,0,3,,,,,,,,2,,,69,100
136200,note_on,120,0,1,,,,,,,,0,,,64,0
136200,note_on,0,0,1,,,,,,,,0,,,66,100
136200,note_on,0,0,2,,,,,,,,1,,,74,100
136200,note_on,120,0,2,,,,,,,,1,,,72,0
136320,note_on,0,0,5,,,,,,,,4,,,55,100
136320,note_on,960,0,5,,,,,,,,4,,,43,0
136320,note_on,0,0,1,,,,,,,,0,,,67,100
136320,note_on,120,0,2,,,,,,,,1,,,74,0
136320,note_on,240,0,3,,,,,,,,2,,,69,0
136320,note_on,0,0,3,,,,,,,,2,,,71,100
136320,note_on,120,0,1,,,,,,,,0,,,66,0
136320,note_on,0,0,2,,,,,,,,1,,,67,100
136440,note_on,0,0,2,,,,,,,,1,,,62,100
136440,note_on,120,0,2,,,,,,,,1,,,67,0
136440,note_on,120,0,1,,,,,,,,0,,,67,0
136440,note_on,0,0,1,,,,,,,,0,,,71,100
136560,note_on,0,0,2,,,,,,,,1,,,59,100
136560,note_on,120,0,2,,,,,,,,1,,,62,0
136560,note_on,720,0,4,,,,,,,,3,,,67,100
136560,note_on,0,0,1,,,,,,,,0,,,69,100
136560,note_on,120,0,1,,,,,,,,0,,,71,0
136680,note_on,0,0,1,,,,,,,,0,,,67,100
136680,note_on,120,0,1,,,,,,,,0,,,69,0
136800,note_on,120,0,1,,,,,,,,0,,,67,0
136800,note_on,240,0,4,,,,,,,,3,,,67,0
136800,note_on,480,0,3,,,,,,,,2,,,71,0
136800,note_on,0,0,1,,,,,,,,0,,,74,100
136800,note_on,0,0,4,,,,,,,,3,,,66,100
136920,note_on,120,0,1,,,,,,,,0,,,74,0
136920,note_on,0,0,1,,,,,,,,0,,,79,100
137040,note_on,0,0,4,,,,,,,,3,,,64,100
137040,note_on,240,0,4,,,,,,,,3,,,66,0
137040,note_on,0,0,1,,,,,,,,0,,,83,100
137040,note_on,120,0,1,,,,,,,,0,,,79,0
137160,note_on,600,0,2,,,,,,,,1,,,59,0
137160,note_on,0,0,2,,,,,,,,1,,,61,100
137280,note_on,0,0,4,,,,,,,,3,,,62,100
137280,note_on,0,0,5,,,,,,,,4,,,54,100
137280,note_on,0,0,2,,,,,,,,1,,,62,100
137280,note_on,120,0,2,,,,,,,,1,,,61,0
137280,note_on,240,0,4,,,,,,,,3,,,64,0
137280,note_on,960,0,5,,,,,,,,4,,,55,0
137400,note_on,120,0,2,,,,,,,,1,,,62,0
137400,note_on,0,0,2,,,,,,,,1,,,64,100
137520,note_on,120,0,2,,,,,,,,1,,,64,0
137520,note_on,0,0,2,,,,,,,,1,,,66,100
137520,note_on,720,0,3,,,,,,,,2,,,62,100
137520,note_on,0,0,4,,,,,,,,3,,,59,100
137520,note_on,240,0,4,,,,,,,,3,,,62,0
137640,note_on,0,0,2,,,,,,,,1,,,67,100
137640,note_on,120,0,2,,,,,,,,1,,,66,0
137640,note_on,0,0,1,,,,,,,,0,,,81,100
137640,note_on,600,0,1,,,,,,,,0,,,83,0
137760,note_on,0,0,1,,,,,,,,0,,,79,100
137760,note_on,120,0,1,,,,,,,,0,,,81,0
137760,note_on,240,0,4,,,,,,,,3,,,59,0
137760,note_on,0,0,2,,,,,,,,1,,,69,100
137760,note_on,120,0,2,,,,,,,,1,,,67,0
137760,note_on,0,0,4,,,,,,,,3,,,61,100
137760,note_on,240,0,3,,,,,,,,2,,,62,0
137760,note_on,0,0,3,,,,,,,,2,,,64,100
137880,note_on,120,0,1,,,,,,,,0,,,79,0
137880,note_on,0,0,1,,,,,,,,0,,,78,100
138000,note_on,240,0,2,,,,,,,,1,,,69,0
138000,note_on,0,0,2,,,,,,,,1,,,62,100
138000,note_on,0,0,1,,,,,,,,0,,,76,100
138000,note_on,120,0,1,,,,,,,,0,,,78,0
138000,note_on,0,0,3,,,,,,,,2,,,66,100
138000,note_on,240,0,3,,,,,,,,2,,,64,0
138000,note_on,240,0,4,,,,,,,,3,,,61,0
138000,note_on,0,0,4,,,,,,,,3,,,62,100
138120,note_on,120,0,1,,,,,,,,0,,,76,0
138120,note_on,0,0,1,,,,,,,,0,,,74,100
138240,note_on,0,0,1,,,,,,,,0,,,73,100
138240,note_on,0,0,5,,,,,,,,4,,,52,100
138240,note_on,960,0,5,,,,,,,,4,,,54,0
138240,note_on,120,0,1,,,,,,,,0,,,74,0
138240,note_on,240,0,2,,,,,,,,1,,,62,0
138240,note_on,0,0,4,,,,,,,,3,,,55,100
138240,note_on,240,0,4,,,,,,,,3,,,62,0
138240,note_on,240,0,3,,,,,,,,2,,,66,0
138240,note_on,0,0,3,,,,,,,,2,,,67,100
138360,note_on,120,0,2,,,,,,,,1,,,66,100
138480,note_on,0,0,4,,,,,,,,3,,,67,100
138480,note_on,120,0,2,,,,,,,,1,,,66,0
138480,note_on,0,0,2,,,,,,,,1,,,64,100
138480,note_on,240,0,1,,,,,,,,0,,,73,0
138480,note_on,0,0,1,,,,,,,,0,,,79,100
138480,note_on,240,0,3,,,,,,,,2,,,67,0
138480,note_on,0,0,3,,,,,,,,2,,,71,100
138480,note_on,240,0,4,,,,,,,,3,,,55,0
138600,note_on,120,0,2,,,,,,,,1,,,64,0
138600,note_on,0,0,2,,,,,,,,1,,,62,100
138720,note_on,0,0,3,,,,,,,,2,,,69,100
138720,note_on,120,0,2,,,,,,,,1,,,62,0
138720,note_on,240,0,1,,,,,,,,0,,,79,0
138720,note_on,240,0,3,,,,,,,,2,,,71,0
138720,note_on,240,0,4,,,,,,,,3,,,67,0
138720,note_on,0,0,4,,,,,,,,3,,,61,100
138720,note_on,0,0,2,,,,,,,,1,,,64,100
138840,note_on,120,0,1,,,,,,,,0,,,76,100
138960,note_on,0,0,3,,,,,,,,2,,,67,100
138960,note_on,0,0,1,,,,,,,,0,,,78,100
138960,note_on,240,0,3,,,,,,,,2,,,69,0
138960,note_on,240,0,2,,,,,,,,1,,,64,0
138960,note_on,0,0,2,,,,,,,,1,,,73,100
138960,note_on,120,0,1,,,,,,,,0,,,76,0
139080,note_on,120,0,1,,,,,,,,0,,,78,0
139080,note_on,0,0,1,,,,,,,,0,,,79,100
139200,note_on,0,0,4,,,,,,,,3,,,62,100
139200,note_on,480,0,4,,,,,,,,3,,,61,0
139200,note_on,0,0,5,,,,,,,,4,,,50,100
139200,note_on,960,0,5,,,,,,,,4,,,52,0
139200,note_on,0,0,3,,,,,,,,2,,,74,100
139200,note_on,240,0,3,,,,,,,,2,,,67,0
139200,note_on,0,0,1,,,,,,,,0,,,78,100
139200,note_on,120,0,1,,,,,,,,0,,,79,0
139200,note_on,240,0,2,,,,,,,,1,,,73,0
139320,note_on,120,0,2,,,,,,,,1,,,79,100
139440,note_on,0,0,3,,,,,,,,2,,,62,100
139440,note_on,240,0,3,,,,,,,,2,,,74,0
139440,note_on,240,0,1,,,,,,,,0,,,78,0
139440,note_on,0,0,1,,,,,,,,0,,,69,100
139440,note_on,0,0,2,,,,,,,,1,,,78,100
139440,note_on,120,0,2,,,,,,,,1,,,79,0
139560,note_on,0,0,2,,,,,,,,1,,,76,100
139560,note_on,120,0,2,,,,,,,,1,,,78,0
139680,note_on,0,0,2,,,,,,,,1,,,74,100
139680,note_on,120,0,2,,,,,,,,1,,,76,0
139680,note_on,0,0,3,,,,,,,,2,,,69,100
139680,note_on,480,0,4,,,,,,,,3,,,62,0
139680,note_on,240,0,3,,,,,,,,2,,,62,0
139680,note_on,240,0,1,,,,,,,,0,,,69,0
139800,note_on,120,0,1,,,,,,,,0,,,62,100
139920,note_on,0,0,2,,,,,,,,1,,,62,100
139920,note_on,240,0,2,,,,,,,,1,,,74,0
139920,note_on,0,0,1,,,,,,,,0,,,64,100
139920,note_on,120,0,1,,,,,,,,0,,,62,0
140040,note_on,120,0,1,,,,,,,,0,,,64,0
140040,note_on,0,0,1,,,,,,,,0,,,66,100
140160,note_on,480,0,3,,,,,,,,2,,,69,0
140160,note_on,0,0,3,,,,,,,,2,,,67,100
140160,note_on,240,0,2,,,,,,,,1,,,62,0
140160,note_on,0,0,1,,,,,,,,0,,,67,100
140160,note_on,120,0,1,,,,,,,,0,,,66,0
140160,note_on,960,0,5,,,,,,,,4,,,50,0
140160,note_on,0,0,5,,,,,,,,4,,,47,100
140280,note_on,120,0,2,,,,,,,,1,,,71,100
140400,note_on,0,0,1,,,,,,,,0,,,79,100
140400,note_on,0,0,2,,,,,,,,1,,,72,100
140400,note_on,120,0,2,,,,,,,,1,,,71,0
140400,note_on,720,0,4,,,,,,,,3,,,59,100
140400,note_on,240,0,1,,,,,,,,0,,,67,0
140520,note_on,0,0,2,,,,,,,,1,,,74,100
140520,note_on,120,0,2,,,,,,,,1,,,72,0
140640,note_on,120,0,2,,,,,,,,1,,,74,0
140640,note_on,480,0,3,,,,,,,,2,,,67,0
140640,note_on,0,0,2,,,,,,,,1,,,65,100
140640,note_on,240,0,1,,,,,,,,0,,,79,0
140640,note_on,240,0,4,,,,,,,,3,,,59,0
140640,note_on,0,0,4,,,,,,,,3,,,60,100
140760,note_on,120,0,1,,,,,,,,0,,,71,100
140880,note_on,0,0,2,,,,,,,,1,,,77,100
140880,note_on,240,0,2,,,,,,,,1,,,65,0
140880,note_on,120,0,1,,,,,,,,0,,,71,0
140880,note_on,0,0,1,,,,,,,,0,,,69,100
140880,note_on,240,0,4,,,,,,,,3,,,60,0
140880,note_on,0,0,4,,,,,,,,3,,,62,100
141000,note_on,120,0,1,,,,,,,,0,,,69,0
141000,note_on,0,0,1,,,,,,,,0,,,67,100
141120,note_on,0,0,4,,,,,,,,3,,,64,100
141120,note_on,120,0,1,,,,,,,,0,,,67,0
141120,note_on,0,0,1,,,,,,,,0,,,76,100
141120,note_on,240,0,4,,,,,,,,3,,,62,0
141120,note_on,240,0,2,,,,,,,,1,,,77,0
141120,note_on,960,0,5,,,,,,,,4,,,47,0
141120,note_on,0,0,5,,,,,,,,4,,,48,100
141240,note_on,120,0,2,,,,,,,,1,,,76,100
141360,note_on,720,0,3,,,,,,,,2,,,71,100
141360,note_on,120,0,2,,,,,,,,1,,,76,0
141360,note_on,0,0,2,,,,,,,,1,,,74,100
141360,note_on,240,0,4,,,,,,,,3,,,64,0
141360,note_on,0,0,4,,,,,,,,3,,,67,100
141360,note_on,0,0,1,,,,,,,,0,,,64,100
141360,note_on,240,0,1,,,,,,,,0,,,76,0
141480,note_on,0,0,2,,,,,,,,1,,,72,100
141480,note_on,120,0,2,,,,,,,,1,,,74,0
141600,note_on,240,0,1,,,,,,,,0,,,64,0
141600,note_on,240,0,4,,,,,,,,3,,,67,0
141600,note_on,0,0,4,,,,,,,,3,,,66,100
141600,note_on,120,0,2,,,,,,,,1,,,72,0
141600,note_on,240,0,3,,,,,,,,2,,,71,0
141600,note_on,0,0,3,,,,,,,,2,,,69,100
141600,note_on,0,0,2,,,,,,,,1,,,72,100
141720,note_on,120,0,1,,,,,,,,0,,,66,100
141720,note_on,0,0,2,,,,,,,,1,,,81,100
141720,note_on,120,0,2,,,,,,,,1,,,72,0
141840,note_on,0,0,2,,,,,,,,1,,,72,100
141840,note_on,120,0,2,,,,,,,,1,,,81,0
141840,note_on,0,0,4,,,,,,,,3,,,64,100
141840,note_on,0,0,3,,,,,,,,2,,,67,100
141840,note_on,0,0,1,,,,,,,,0,,,67,100
141840,note_on,240,0,4,,,,,,,,3,,,66,0
141840,note_on,240,0,3,,,,,,,,2,,,69,0
141840,note_on,120,0,1,,,,,,,,0,,,66,0
141960,note_on,0,0,1,,,,,,,,0,,,69,100
141960,note_on,120,0,1,,,,,,,,0,,,67,0
142080,note_on,960,0,5,,,,,,,,4,,,48,0
142080,note_on,120,0,1,,,,,,,,0,,,69,0
142080,note_on,0,0,5,,,,,,,,4,,,50,100
142080,note_on,240,0,4,,,,,,,,3,,,64,0
142080,note_on,0,0,4,,,,,,,,3,,,62,100
142080,note_on,0,0,3,,,,,,,,2,,,66,100
142080,note_on,240,0,3,,,,,,,,2,,,67,0
142080,note_on,0,0,1,,,,,,,,0,,,69,100
142080,note_on,240,0,2,,,,,,,,1,,,72,0
142200,note_on,120,0,2,,,,,,,,1,,,69,100
142200,note_on,0,0,1,,,,,,,,0,,,60,100
142200,note_on,120,0,1,,,,,,,,0,,,69,0
142320,note_on,0,0,2,,,,,,,,1,,,72,100
142320,note_on,0,0,3,,,,,,,,2,,,62,100
142320,note_on,0,0,1,,,,,,,,0,,,69,100
142320,note_on,240,0,3,,,,,,,,2,,,66,0
142320,note_on,120,0,2,,,,,,,,1,,,69,0
142320,note_on,120,0,1,,,,,,,,0,,,60,0
142440,note_on,0,0,2,,,,,,,,1,,,78,100
142440,note_on,120,0,2,,,,,,,,1,,,72,0
142560,note_on,240,0,1,,,,,,,,0,,,69,0
142560,note_on,0,0,2,,,,,,,,1,,,79,100
142560,note_on,120,0,2,,,,,,,,1,,,78,0
142560,note_on,240,0,3,,,,,,,,2,,,62,0
142560,note_on,0,0,3,,,,,,,,2,,,64,100
142680,note_on,120,0,1,,,,,,,,0,,,72,100
142800,note_on,0,0,2,,,,,,,,1,,,81,100
142800,note_on,0,0,4,,,,,,,,3,,,60,100
142800,note_on,0,0,1,,,,,,,,0,,,69,100
142800,note_on,0,0,3,,,,,,,,2,,,66,100
142800,note_on,120,0,1,,,,,,,,0,,,72,0
142800,note_on,240,0,2,,,,,,,,1,,,79,0
142800,note_on,240,0,3,,,,,,,,2,,,64,0
142800,note_on,720,0,4,,,,,,,,3,,,62,0
142920,note_on,0,0,1,,,,,,,,0,,,64,100
142920,note_on,120,0,1,,,,,,,,0,,,69,0
143040,note_on,240,0,4,,,,,,,,3,,,60,0
143040,note_on,0,0,4,,,,,,,,3,,,59,100
143040,note_on,0,0,2,,,,,,,,1,,,83,100
143040,note_on,960,0,5,,,,,,,,4,,,50,0
143040,note_on,0,0,5,,,,,,,,4,,,43,100
143040,note_on,120,0,1,,,,,,,,0,,,64,0
143040,note_on,0,0,1,,,,,,,,0,,,62,100
143040,note_on,0,0,3,,,,,,,,2,,,67,100
143040,note_on,240,0,2,,,,,,,,1,,,81,0
143040,note_on,240,0,3,,,,,,,,2,,,66,0
143160,note_on,0,0,2,,,,,,,,1,,,79,100
143160,note_on,120,0,2,,,,,,,,1,,,83,0
143280,note_on,0,0,1,,,,,,,,0,,,60,100
143280,note_on,240,0,1,,,,,,,,0,,,62,0
143280,note_on,0,0,2,,,,,,,,1,,,78,100
143280,note_on,120,0,2,,,,,,,,1,,,79,0
143400,note_on,0,0,2,,,,,,,,1,,,76,100
143400,note_on,120,0,2,,,,,,,,1,,,78,0
143520,note_on,0,0,2,,,,,,,,1,,,74,100
143520,note_on,480,0,4,,,,,,,,3,,,59,0
143520,note_on,0,0,1,,,,,,,,0,,,59,100
143520,note_on,240,0,1,,,,,,,,0,,,60,0
143520,note_on,120,0,2,,,,,,,,1,,,76,0
143640,note_on,0,0,1,,,,,,,,0,,,62,100
143640,note_on,120,0,2,,,,,,,,1,,,74,0
143640,note_on,0,0,2,,,,,,,,1,,,71,100
143640,note_on,120,0,1,,,,,,,,0,,,59,0
143760,note_on,120,0,1,,,,,,,,0,,,62,0
143760,note_on,720,0,3,,,,,,,,2,,,67,0
143760,note_on,120,0,2,,,,,,,,1,,,71,0
143760,note_on,0,0,2,,,,,,,,1,,,72,100
143760,note_on,0,0,3,,,,,,,,2,,,69,100
143760,note_on,0,0,1,,,,,,,,0,,,64,100
143880,note_on,0,0,2,,,,,,,,1,,,74,100
143880,note_on,0,0,1,,,,,,,,0,,,66,100
143880,note_on,120,0,1,,,,,,,,0,,,64,0
143880,note_on,120,0,2,,,,,,,,1,,,72,0
144000,note_on,0,0,2,,,,,,,,1,,,67,100
144000,note_on,0,0,3,,,,,,,,2,,,71,100
144000,note_on,240,0,3,,,,,,,,2,,,69,0
144000,note_on,960,0,5,,,,,,,,4,,,43,0
144000,note_on,0,0,5,,,,,,,,4,,,55,100
144000,note_on,120,0,2,,,,,,,,1,,,74,0
144000,note_on,120,0,1,,,,,,,,0,,,66,0
144000,note_on,0,0,1,,,,,,,,0,,,67,100
144120,note_on,120,0,2,,,,,,,,1,,,67,0
144120,note_on,0,0,1,,,,,,,,0,,,71,100
144120,note_on,120,0,1,,,,,,,,0,,,67,0
144120,note_on,0,0,2,,,,,,,,1,,,62,100
144240,note_on,120,0,1,,,,,,,,0,,,71,0
144240,note_on,0,0,1,,,,,,,,0,,,69,100
144240,note_on,120,0,2,,,,,,,,1,,,62,0
144240,note_on,0,0,2,,,,,,,,1,,,59,100
144240,note_on,720,0,4,,,,,,,,3,,,67,100
144360,note_on,120,0,1,,,,,,,,0,,,69,0
144360,note_on,0,0,1,,,,,,,,0,,,67,100
144480,note_on,240,0,4,,,,,,,,3,,,67,0
144480,note_on,0,0,4,,,,,,,,3,,,66,100
144480,note_on,120,0,1,,,,,,,,0,,,67,0
144480,note_on,480,0,3,,,,,,,,2,,,71,0
144480,note_on,0,0,1,,,,,,,,0,,,74,100
144600,note_on,0,0,1,,,,,,,,0,,,79,100
144600,note_on,120,0,1,,,,,,,,0,,,74,0
144720,note_on,240,0,4,,,,,,,,3,,,66,0
144720,note_on,0,0,4,,,,,,,,3,,,64,100
144720,note_on,0,0,1,,,,,,,,0,,,83,100
144720,note_on,120,0,1,,,,,,,,0,,,79,0
144840,note_on,600,0,2,,,,,,,,1,,,59,0
144840,note_on,0,0,2,,,,,,,,1,,,61,100
144960,note_on,0,0,4,,,,,,,,3,,,62,100
144960,note_on,240,0,4,,,,,,,,3,,,64,0
144960,note_on,0,0,2,,,,,,,,1,,,62,100
144960,note_on,960,0,5,,,,,,,,4,,,55,0
144960,note_on,0,0,5,,,,,,,,4,,,54,100
144960,note_on,120,0,2,,,,,,,,1,,,61,0
145080,note_on,120,0,2,,,,,,,,1,,,62,0
145080,note_on,0,0,2,,,,,,,,1,,,64,100
145200,note_on,0,0,2,,,,,,,,1,,,66,100
145200,note_on,120,0,2,,,,,,,,1,,,64,0
145200,note_on,720,0,3,,,,,,,,2,,,62,100
145200,note_on,240,0,4,,,,,,,,3,,,62,0
145200,note_on,0,0,4,,,,,,,,3,,,59,100
145320,note_on,120,0,2,,,,,,,,1,,,66,0
145320,note_on,0,0,2,,,,,,,,1,,,67,100
145320,note_on,600,0,1,,,,,,,,0,,,83,0
145320,note_on,0,0,1,,,,,,,,0,,,81,100
145440,note_on,120,0,1,,,,,,,,0,,,81,0
145440,note_on,120,0,2,,,,,,,,1,,,67,0
145440,note_on,0,0,2,,,,,,,,1,,,69,100
145440,note_on,240,0,4,,,,,,,,3,,,59,0
145440,note_on,0,0,4,,,,,,,,3,,,61,100
145440,note_on,0,0,3,,,,,,,,2,,,64,100
145440,note_on,240,0,3,,,,,,,,2,,,62,0
145440,note_on,0,0,1,,,,,,,,0,,,79,100
145560,note_on,120,0,1,,,,,,,,0,,,79,0
145560,note_on,0,0,1,,,,,,,,0,,,78,100
145680,note_on,120,0,1,,,,,,,,0,,,78,0
145680,note_on,240,0,2,,,,,,,,1,,,69,0
145680,note_on,0,0,2,,,,,,,,1,,,62,100
145680,note_on,0,0,3,,,,,,,,2,,,66,100
145680,note_on,240,0,3,,,,,,,,2,,,64,0
145680,note_on,0,0,1,,,,,,,,0,,,76,100
145680,note_on,0,0,4,,,,,,,,3,,,62,100
145680,note_on,240,0,4,,,,,,,,3,,,61,0
145800,note_on,120,0,1,,,,,,,,0,,,76,0
145800,note_on,0,0,1,,,,,,,,0,,,74,100
145920,note_on,120,0,1,,,,,,,,0,,,74,0
145920,note_on,0,0,1,,,,,,,,0,,,73,100
145920,note_on,240,0,2,,,,,,,,1,,,62,0
145920,note_on,0,0,5,,,,,,,,4,,,52,100
145920,note_on,960,0,5,,,,,,,,4,,,54,0
145920,note_on,0,0,4,,,,,,,,3,,,55,100
145920,note_on,240,0,4,,,,,,,,3,,,62,0
145920,note_on,240,0,3,,,,,,,,2,,,66,0
145920,note_on,0,0,3,,,,,,,,2,,,67,100
146040,note_on,120,0,2,,,,,,,,1,,,66,100
146160,note_on,240,0,3,,,,,,,,2,,,67,0
146160,note_on,240,0,1,,,,,,,,0,,,73,0
146160,note_on,0,0,1,,,,,,,,0,,,79,100
146160,note_on,120,0,2,,,,,,,,1,,,66,0
146160,note_on,240,0,4,,,,,,,,3,,,55,0
146160,note_on,0,0,3,,,,,,,,2,,,71,100
146160,note_on,0,0,2,,,,,,,,1,,,64,100
146160,note_on,0,0,4,,,,,,,,3,,,67,100
146280,note_on,120,0,2,,,,,,,,1,,,64,0
146280,note_on,0,0,2,,,,,,,,1,,,62,100
146400,note_on,240,0,1,,,,,,,,0,,,79,0
146400,note_on,0,0,3,,,,,,,,2,,,69,100
146400,note_on,240,0,3,,,,,,,,2,,,71,0
146400,note_on,0,0,4,,,,,,,,3,,,61,100
146400,note_on,240,0,4,,,,,,,,3,,,67,0
146400,note_on,0,0,2,,,,,,,,1,,,64,100
146400,note_on,120,0,2,,,,,,,,1,,,62,0
146520,note_on,120,0,1,,,,,,,,0,,,76,100
146640,note_on,0,0,2,,,,,,,,1,,,73,100
146640,note_on,240,0,3,,,,,,,,2,,,69,0
146640,note_on,120,0,1,,,,,,,,0,,,76,0
146640,note_on,0,0,3,,,,,,,,2,,,67,100
146640,note_on,240,0,2,,,,,,,,1,,,64,0
146640,note_on,0,0,1,,,,,,,,0,,,78,100
146760,note_on,120,0,1,,,,,,,,0,,,78,0
146760,note_on,0,0,1,,,,,,,,0,,,79,100
146880,note_on,240,0,2,,,,,,,,1,,,73,0
146880,note_on,240,0,3,,,,,,,,2,,,67,0
146880,note_on,0,0,3,,,,,,,,2,,,74,100
146880,note_on,0,0,5,,,,,,,,4,,,50,100
146880,note_on,960,0,5,,,,,,,,4,,,52,0
146880,note_on,0,0,1,,,,,,,,0,,,78,100
146880,note_on,120,0,1,,,,,,,,0,,,79,0
146880,note_on,0,0,4,,,,,,,,3,,,62,100
146880,note_on,480,0,4,,,,,,,,3,,,61,0
147000,note_on,120,0,2,,,,,,,,1,,,79,100
147120,note_on,0,0,1,,,,,,,,0,,,69,100
147120,note_on,240,0,1,,,,,,,,0,,,78,0
147120,note_on,0,0,2,,,,,,,,1,,,78,100
147120,note_on,0,0,3,,,,,,,,2,,,62,100
147120,note_on,120,0,2,,,,,,,,1,,,79,0
147120,note_on,240,0,3,,,,,,,,2,,,74,0
147240,note_on,120,0,2,,,,,,,,1,,,78,0
147240,note_on,0,0,2,,,,,,,,1,,,76,100
147360,note_on,240,0,3,,,,,,,,2,,,62,0
147360,note_on,0,0,3,,,,,,,,2,,,69,100
147360,note_on,0,0,2,,,,,,,,1,,,74,100
147360,note_on,120,0,2,,,,,,,,1,,,76,0
148800,note_on,1920,0,4,,,,,,,,3,,,62,0
148800,note_on,0,0,4,,,,,,,,3,,,55,100
148800,note_on,1920,0,5,,,,,,,,4,,,50,0
148800,note_on,1440,0,3,,,,,,,,2,,,69,0
148800,note_on,1680,0,1,,,,,,,,0,,,69,0
148800,note_on,1440,0,2,,,,,,,,1,,,74,0
148800,marker,21120,1,0,,,,,,,,,,,,
149280,note_on,480,0,2,,,,,,,,1,,,62,100
149280,note_on,149280,0,6,,,,,,,,5,,,55,100
149760,note_on,480,0,6,,,,,,,,5,,,55,0
149760,note_on,0,0,6,,,,,,,,5,,,54,100
149760,note_on,960,0,4,,,,,,,,3,,,55,0
149760,note_on,0,0,4,,,,,,,,3,,,57,100
150240,note_on,0,0,4,,,,,,,,3,,,60,100
150240,note_on,480,0,6,,,,,,,,5,,,54,0
150240,note_on,0,0,2,,,,,,,,1,,,64,100
150240,note_on,960,0,2,,,,,,,,1,,,62,0
150240,note_on,480,0,4,,,,,,,,3,,,57,0
150240,note_on,0,0,6,,,,,,,,5,,,52,100
150720,note_on,480,0,6,,,,,,,,5,,,52,0
150720,note_on,0,0,6,,,,,,,,5,,,50,100
150720,note_on,1920,0,3,,,,,,,,2,,,62,100
150720,note_on,480,0,2,,,,,,,,1,,,64,0
150720,note_on,0,0,2,,,,,,,,1,,,66,100
150720,note_on,480,0,4,,,,,,,,3,,,60,0
150720,note_on,0,0,4,,,,,,,,3,,,59,100
151200,note_on,2400,0,5,,,,,,,,4,,,50,100
151200,note_on,0,0,2,,,,,,,,1,,,67,100
151200,note_on,480,0,2,,,,,,,,1,,,66,0
151200,note_on,2400,0,1,,,,,,,,0,,,67,100
151200,note_on,480,0,6,,,,,,,,5,,,50,0
151200,note_on,0,0,6,,,,,,,,5,,,47,100
151680,note_on,0,0,3,,,,,,,,2,,,60,100
151680,note_on,480,0,6,,,,,,,,5,,,47,0
151680,note_on,480,0,5,,,,,,,,4,,,50,0
151680,note_on,0,0,5,,,,,,,,4,,,52,100
151680,note_on,960,0,4,,,,,,,,3,,,59,0
151680,note_on,960,0,3,,,,,,,,2,,,62,0
151680,note_on,0,0,4,,,,,,,,3,,,57,100
151680,note_on,480,0,2,,,,,,,,1,,,67,0
151680,note_on,0,0,6,,,,,,,,5,,,48,100
151920,note_on,240,0,2,,,,,,,,1,,,64,100
152160,note_on,0,0,2,,,,,,,,1,,,62,100
152160,note_on,240,0,2,,,,,,,,1,,,64,0
152160,note_on,480,0,3,,,,,,,,2,,,60,0
152160,note_on,0,0,3,,,,,,,,2,,,57,100
152160,note_on,480,0,6,,,,,,,,5,,,48,0
152160,note_on,960,0,1,,,,,,,,0,,,67,0
152160,note_on,0,0,6,,,,,,,,5,,,50,100
152160,note_on,0,0,5,,,,,,,,4,,,54,100
152160,note_on,480,0,5,,,,,,,,4,,,52,0
152160,note_on,0,0,1,,,,,,,,0,,,66,100
152400,note_on,240,0,2,,,,,,,,1,,,62,0
152400,note_on,0,0,2,,,,,,,,1,,,60,100
152640,note_on,480,0,1,,,,,,,,0,,,66,0
152640,note_on,0,0,1,,,,,,,,0,,,64,100
152640,note_on,0,0,6,,,,,,,,5,,,43,100
152640,note_on,0,0,4,,,,,,,,3,,,55,100
152640,note_on,0,0,5,,,,,,,,4,,,55,100
152640,note_on,480,0,5,,,,,,,,4,,,54,0
152640,note_on,960,0,4,,,,,,,,3,,,57,0
152640,note_on,0,0,2,,,,,,,,1,,,59,100
152640,note_on,240,0,2,,,,,,,,1,,,60,0
152640,note_on,480,0,3,,,,,,,,2,,,57,0
152640,note_on,0,0,3,,,,,,,,2,,,59,100
152640,note_on,480,0,6,,,,,,,,5,,,50,0
152880,note_on,0,0,2,,,,,,,,1,,,60,100
152880,note_on,240,0,2,,,,,,,,1,,,59,0
153120,note_on,480,0,6,,,,,,,,5,,,43,0
153120,note_on,480,0,5,,,,,,,,4,,,55,0
153120,note_on,0,0,5,,,,,,,,4,,,59,100
153120,note_on,0,0,2,,,,,,,,1,,,62,100
153120,note_on,240,0,2,,,,,,,,1,,,60,0
153120,note_on,480,0,1,,,,,,,,0,,,64,0
153120,note_on,0,0,1,,,,,,,,0,,,62,100
153120,note_on,0,0,6,,,,,,,,5,,,55,100
153600,note_on,480,0,1,,,,,,,,0,,,62,0
153600,note_on,0,0,3,,,,,,,,2,,,60,100
153600,note_on,0,0,6,,,,,,,,5,,,54,100
153600,note_on,960,0,4,,,,,,,,3,,,55,0
153600,note_on,0,0,4,,,,,,,,3,,,57,100
153600,note_on,960,0,3,,,,,,,,2,,,59,0
153600,note_on,480,0,6,,,,,,,,5,,,55,0
153600,note_on,480,0,5,,,,,,,,4,,,59,0
153600,note_on,0,0,5,,,,,,,,4,,,57,100
153840,note_on,240,0,1,,,,,,,,0,,,66,100
154080,note_on,960,0,2,,,,,,,,1,,,62,0
154080,note_on,240,0,1,,,,,,,,0,,,66,0
154080,note_on,480,0,4,,,,,,,,3,,,57,0
154080,note_on,0,0,4,,,,,,,,3,,,60,100
154080,note_on,480,0,5,,,,,,,,4,,,57,0
154080,note_on,0,0,2,,,,,,,,1,,,64,100
154080,note_on,480,0,6,,,,,,,,5,,,54,0
154080,note_on,0,0,6,,,,,,,,5,,,52,100
154080,note_on,0,0,5,,,,,,,,4,,,55,100
154080,note_on,0,0,1,,,,,,,,0,,,67,100
154320,note_on,240,0,1,,,,,,,,0,,,67,0
154320,note_on,0,0,1,,,,,,,,0,,,69,100
154560,note_on,0,0,3,,,,,,,,2,,,62,100
154560,note_on,480,0,6,,,,,,,,5,,,52,0
154560,note_on,0,0,4,,,,,,,,3,,,59,100
154560,note_on,0,0,1,,,,,,,,0,,,71,100
154560,note_on,480,0,5,,,,,,,,4,,,55,0
154560,note_on,0,0,5,,,,,,,,4,,,62,100
154560,note_on,960,0,3,,,,,,,,2,,,60,0
154560,note_on,0,0,6,,,,,,,,5,,,50,100
154560,note_on,480,0,4,,,,,,,,3,,,60,0
154560,note_on,240,0,1,,,,,,,,0,,,69,0
154560,note_on,0,0,2,,,,,,,,1,,,66,100
154560,note_on,480,0,2,,,,,,,,1,,,64,0
154800,note_on,240,0,1,,,,,,,,0,,,71,0
154800,note_on,0,0,1,,,,,,,,0,,,69,100
155040,note_on,0,0,5,,,,,,,,4,,,50,100
155040,note_on,0,0,6,,,,,,,,5,,,47,100
155040,note_on,480,0,6,,,,,,,,5,,,50,0
155040,note_on,240,0,1,,,,,,,,0,,,69,0
155040,note_on,0,0,1,,,,,,,,0,,,67,100
155040,note_on,480,0,2,,,,,,,,1,,,66,0
155040,note_on,0,0,2,,,,,,,,1,,,67,100
155040,note_on,480,0,5,,,,,,,,4,,,62,0
155520,note_on,0,0,3,,,,,,,,2,,,60,100
155520,note_on,0,0,4,,,,,,,,3,,,57,100
155520,note_on,0,0,5,,,,,,,,4,,,52,100
155520,note_on,960,0,3,,,,,,,,2,,,62,0
155520,note_on,960,0,4,,,,,,,,3,,,59,0
155520,note_on,480,0,2,,,,,,,,1,,,67,0
155520,note_on,480,0,5,,,,,,,,4,,,50,0
155520,note_on,0,0,6,,,,,,,,5,,,48,100
155520,note_on,480,0,6,,,,,,,,5,,,47,0
155760,note_on,240,0,2,,,,,,,,1,,,64,100
156000,note_on,0,0,1,,,,,,,,0,,,66,100
156000,note_on,480,0,6,,,,,,,,5,,,48,0
156000,note_on,960,0,1,,,,,,,,0,,,67,0
156000,note_on,0,0,2,,,,,,,,1,,,62,100
156000,note_on,240,0,2,,,,,,,,1,,,64,0
156000,note_on,480,0,3,,,,,,,,2,,,60,0
156000,note_on,0,0,3,,,,,,,,2,,,57,100
156000,note_on,0,0,6,,,,,,,,5,,,50,100
156000,note_on,0,0,5,,,,,,,,4,,,54,100
156000,note_on,480,0,5,,,,,,,,4,,,52,0
156240,note_on,240,0,2,,,,,,,,1,,,62,0
156240,note_on,0,0,2,,,,,,,,1,,,60,100
156480,note_on,0,0,1,,,,,,,,0,,,64,100
156480,note_on,480,0,1,,,,,,,,0,,,66,0
156480,note_on,0,0,6,,,,,,,,5,,,43,100
156480,note_on,960,0,4,,,,,,,,3,,,57,0
156480,note_on,0,0,4,,,,,,,,3,,,55,100
156480,note_on,0,0,5,,,,,,,,4,,,55,100
156480,note_on,480,0,3,,,,,,,,2,,,57,0
156480,note_on,0,0,3,,,,,,,,2,,,59,100
156480,note_on,0,0,2,,,,,,,,1,,,59,100
156480,note_on,240,0,2,,,,,,,,1,,,60,0
156480,note_on,480,0,5,,,,,,,,4,,,54,0
156480,note_on,480,0,6,,,,,,,,5,,,50,0
156720,note_on,240,0,2,,,,,,,,1,,,59,0
156720,note_on,0,0,2,,,,,,,,1,,,60,100
156960,note_on,0,0,1,,,,,,,,0,,,62,100
156960,note_on,240,0,2,,,,,,,,1,,,60,0
156960,note_on,0,0,2,,,,,,,,1,,,62,100
156960,note_on,480,0,1,,,,,,,,0,,,64,0
156960,note_on,480,0,6,,,,,,,,5,,,43,0
156960,note_on,0,0,6,,,,,,,,5,,,55,100
156960,note_on,0,0,5,,,,,,,,4,,,59,100
156960,note_on,480,0,5,,,,,,,,4,,,55,0
157440,note_on,0,0,6,,,,,,,,5,,,54,100
157440,note_on,0,0,3,,,,,,,,2,,,60,100
157440,note_on,0,0,4,,,,,,,,3,,,57,100
157440,note_on,960,0,4,,,,,,,,3,,,55,0
157440,note_on,0,0,5,,,,,,,,4,,,57,100
157440,note_on,480,0,1,,,,,,,,0,,,62,0
157440,note_on,480,0,6,,,,,,,,5,,,55,0
157440,note_on,960,0,3,,,,,,,,2,,,59,0
157440,note_on,480,0,5,,,,,,,,4,,,59,0
157680,note_on,240,0,1,,,,,,,,0,,,66,100
157920,note_on,0,0,2,,,,,,,,1,,,64,100
157920,note_on,0,0,1,,,,,,,,0,,,67,100
157920,note_on,0,0,6,,,,,,,,5,,,52,100
157920,note_on,480,0,6,,,,,,,,5,,,54,0
157920,note_on,240,0,1,,,,,,,,0,,,66,0
157920,note_on,480,0,4,,,,,,,,3,,,57,0
157920,note_on,0,0,4,,,,,,,,3,,,60,100
157920,note_on,480,0,5,,,,,,,,4,,,57,0
157920,note_on,0,0,5,,,,,,,,4,,,55,100
157920,note_on,960,0,2,,,,,,,,1,,,62,0
158160,note_on,240,0,1,,,,,,,,0,,,67,0
158160,note_on,0,0,1,,,,,,,,0,,,69,100
158400,note_on,480,0,2,,,,,,,,1,,,64,0
158400,note_on,480,0,6,,,,,,,,5,,,52,0
158400,note_on,0,0,2,,,,,,,,1,,,66,100
158400,note_on,480,0,4,,,,,,,,3,,,60,0
158400,note_on,0,0,4,,,,,,,,3,,,59,100
158400,note_on,240,0,1,,,,,,,,0,,,69,0
158400,note_on,0,0,3,,,,,,,,2,,,62,100
158400,note_on,0,0,1,,,,,,,,0,,,71,100
158400,note_on,0,0,5,,,,,,,,4,,,62,100
158400,note_on,480,0,5,,,,,,,,4,,,55,0
158400,note_on,0,0,6,,,,,,,,5,,,50,100
158400,note_on,960,0,3,,,,,,,,2,,,60,0
158640,note_on,240,0,1,,,,,,,,0,,,71,0
158640,note_on,0,0,1,,,,,,,,0,,,69,100
158880,note_on,240,0,1,,,,,,,,0,,,69,0
158880,note_on,0,0,6,,,,,,,,5,,,47,100
158880,note_on,480,0,2,,,,,,,,1,,,66,0
158880,note_on,0,0,2,,,,,,,,1,,,67,100
158880,note_on,0,0,1,,,,,,,,0,,,67,100
158880,note_on,480,0,6,,,,,,,,5,,,50,0
158880,note_on,0,0,5,,,,,,,,4,,,50,100
158880,note_on,480,0,5,,,,,,,,4,,,62,0
159360,note_on,0,0,4,,,,,,,,3,,,57,100
159360,note_on,0,0,5,,,,,,,,4,,,52,100
159360,note_on,480,0,2,,,,,,,,1,,,67,0
159360,note_on,480,0,5,,,,,,,,4,,,50,0
159360,note_on,960,0,4,,,,,,,,3,,,59,0
159360,note_on,0,0,3,,,,,,,,2,,,60,100
159360,note_on,480,0,6,,,,,,,,5,,,47,0
159360,note_on,960,0,3,,,,,,,,2,,,62,0
159360,note_on,0,0,6,,,,,,,,5,,,48,100
159600,note_on,240,0,2,,,,,,,,1,,,64,100
159840,note_on,480,0,3,,,,,,,,2,,,60,0
159840,note_on,480,0,6,,,,,,,,5,,,48,0
159840,note_on,0,0,6,,,,,,,,5,,,50,100
159840,note_on,960,0,1,,,,,,,,0,,,67,0
159840,note_on,0,0,3,,,,,,,,2,,,57,100
159840,note_on,0,0,1,,,,,,,,0,,,66,100
159840,note_on,0,0,2,,,,,,,,1,,,62,100
159840,note_on,480,0,5,,,,,,,,4,,,52,0
159840,note_on,0,0,5,,,,,,,,4,,,54,100
159840,note_on,240,0,2,,,,,,,,1,,,64,0
160080,note_on,240,0,2,,,,,,,,1,,,62,0
160080,note_on,0,0,2,,,,,,,,1,,,60,100
160320,note_on,0,0,4,,,,,,,,3,,,55,100
160320,note_on,960,0,4,,,,,,,,3,,,57,0
160320,note_on,0,0,5,,,,,,,,4,,,55,100
160320,note_on,480,0,3,,,,,,,,2,,,57,0
160320,note_on,0,0,3,,,,,,,,2,,,59,100
160320,note_on,0,0,1,,,,,,,,0,,,64,100
160320,note_on,0,0,2,,,,,,,,1,,,59,100
160320,note_on,240,0,2,,,,,,,,1,,,60,0
160320,note_on,480,0,5,,,,,,,,4,,,54,0
160320,note_on,480,0,6,,,,,,,,5,,,50,0
160320,note_on,0,0,6,,,,,,,,5,,,43,100
160320,note_on,480,0,1,,,,,,,,0,,,66,0
162240,marker,13440,1,0,,,,,,,,,,,,
162240,note_on,1920,0,1,,,,,,,,0,,,64,0
162240,note_on,1920,0,4,,,,,,,,3,,,55,0
162240,end_of_track,0,1,5,,,,,,,,,,,,
162240,note_on,1920,0,3,,,,,,,,2,,,59,0
162240,end_of_track,0,1,0,,,,,,,,,,,,
162240,end_of_track,0,1,6,,,,,,,,,,,,
162240,note_on,1920,0,6,,,,,,,,5,,,43,0
162240,note_on,1920,0,2,,,,,,,,1,,,59,0
162240,note_on,1920,0,5,,,,,,,,4,,,55,0
162360,note_on,120,0,1,,,,,,,,0,,,62,100
162480,note_on,0,0,1,,,,,,,,0,,,64,100
162480,note_on,120,0,1,,,,,,,,0,,,62,0
162600,note_on,0,0,1,,,,,,,,0,,,66,100
162600,note_on,120,0,1,,,,,,,,0,,,64,0
162720,note_on,0,0,1,,,,,,,,0,,,67,100
162720,note_on,120,0,1,,,,,,,,0,,,66,0
162840,note_on,0,0,1,,,,,,,,0,,,71,100
162840,note_on,120,0,1,,,,,,,,0,,,67,0
162960,note_on,0,0,1,,,,,,,,0,,,69,100
162960,note_on,120,0,1,,,,,,,,0,,,71,0
163080,note_on,0,0,1,,,,,,,,0,,,67,100
163080,note_on,120,0,1,,,,,,,,0,,,69,0
163200,note_on,960,0,4,,,,,,,,3,,,55,100
163200,note_on,0,0,1,,,,,,,,0,,,74,100
163200,note_on,120,0,1,,,,,,,,0,,,67,0
163440,note_on,1200,0,2,,,,,,,,1,,,67,100
163440,note_on,0,0,1,,,,,,,,0,,,62,100
163440,note_on,240,0,1,,,,,,,,0,,,74,0
163680,note_on,240,0,1,,,,,,,,0,,,62,0
163680,note_on,240,0,2,,,,,,,,1,,,67,0
163680,note_on,0,0,2,,,,,,,,1,,,66,100
163800,note_on,120,0,1,,,,,,,,0,,,57,100
163920,note_on,240,0,2,,,,,,,,1,,,66,0
163920,note_on,120,0,1,,,,,,,,0,,,57,0
163920,note_on,0,0,1,,,,,,,,0,,,59,100
163920,note_on,0,0,2,,,,,,,,1,,,64,100
164040,note_on,0,0,1,,,,,,,,0,,,61,100
164040,note_on,120,0,1,,,,,,,,0,,,59,0
164160,note_on,120,0,1,,,,,,,,0,,,61,0
164160,note_on,0,0,1,,,,,,,,0,,,62,100
164160,note_on,0,0,4,,,,,,,,3,,,54,100
164160,note_on,960,0,4,,,,,,,,3,,,55,0
164160,note_on,240,0,2,,,,,,,,1,,,64,0
164160,note_on,0,0,2,,,,,,,,1,,,62,100
164280,note_on,0,0,1,,,,,,,,0,,,66,100
164280,note_on,120,0,1,,,,,,,,0,,,62,0
164400,note_on,240,0,2,,,,,,,,1,,,62,0
164400,note_on,0,0,2,,,,,,,,1,,,59,100
164400,note_on,0,0,1,,,,,,,,0,,,64,100
164400,note_on,120,0,1,,,,,,,,0,,,66,0
164520,note_on,120,0,1,,,,,,,,0,,,64,0
164520,note_on,0,0,1,,,,,,,,0,,,62,100
164640,note_on,0,0,1,,,,,,,,0,,,69,100
164640,note_on,240,0,2,,,,,,,,1,,,59,0
164640,note_on,0,0,2,,,,,,,,1,,,61,100
164640,note_on,120,0,1,,,,,,,,0,,,62,0
164640,note_on,2400,0,3,,,,,,,,2,,,57,100
164760,note_on,0,0,1,,,,,,,,0,,,67,100
164760,note_on,120,0,1,,,,,,,,0,,,69,0
164880,note_on,0,0,1,,,,,,,,0,,,66,100
164880,note_on,240,0,2,,,,,,,,1,,,61,0
164880,note_on,0,0,2,,,,,,,,1,,,62,100
164880,note_on,120,0,1,,,,,,,,0,,,67,0
165000,note_on,120,0,1,,,,,,,,0,,,66,0
165000,note_on,0,0,1,,,,,,,,0,,,74,100
165120,note_on,480,0,3,,,,,,,,2,,,57,0
165120,note_on,240,0,2,,,,,,,,1,,,62,0
165120,note_on,960,0,4,,,,,,,,3,,,54,0
165120,note_on,0,0,4,,,,,,,,3,,,52,100
165120,note_on,0,0,3,,,,,,,,2,,,59,100
165120,note_on,0,0,2,,,,,,,,1,,,55,100
165120,note_on,120,0,1,,,,,,,,0,,,74,0
165240,note_on,120,0,1,,,,,,,,0,,,76,100
165300,note_on,60,0,1,,,,,,,,0,,,76,0
165300,note_on,0,0,1,,,,,,,,0,,,78,100
165360,note_on,0,0,1,,,,,,,,0,,,79,100
165360,note_on,60,0,1,,,,,,,,0,,,78,0
165480,note_on,0,0,1,,,,,,,,0,,,67,100
165480,note_on,120,0,1,,,,,,,,0,,,79,0
165600,note_on,480,0,3,,,,,,,,2,,,59,0
165600,note_on,0,0,3,,,,,,,,2,,,61,100
165600,note_on,0,0,2,,,,,,,,1,,,67,100
165600,note_on,480,0,2,,,,,,,,1,,,55,0
165720,note_on,0,0,1,,,,,,,,0,,,69,100
165720,note_on,240,0,1,,,,,,,,0,,,67,0
165780,note_on,60,0,1,,,,,,,,0,,,69,0
165780,note_on,0,0,1,,,,,,,,0,,,71,100
165840,note_on,0,0,1,,,,,,,,0,,,64,100
165840,note_on,60,0,1,,,,,,,,0,,,71,0
165960,note_on,120,0,1,,,,,,,,0,,,64,0
165960,note_on,0,0,1,,,,,,,,0,,,66,100
166020,note_on,0,0,1,,,,,,,,0,,,67,100
166020,note_on,60,0,1,,,,,,,,0,,,66,0
166080,note_on,0,0,3,,,,,,,,2,,,62,100
166080,note_on,0,0,1,,,,,,,,0,,,66,100
166080,note_on,480,0,3,,,,,,,,2,,,61,0
166080,note_on,0,0,4,,,,,,,,3,,,50,100
166080,note_on,960,0,4,,,,,,,,3,,,52,0
166080,note_on,60,0,1,,,,,,,,0,,,67,0
166080,note_on,480,0,2,,,,,,,,1,,,67,0
166200,note_on,120,0,1,,,,,,,,0,,,66,0
166200,note_on,0,0,1,,,,,,,,0,,,79,100
166320,note_on,240,0,2,,,,,,,,1,,,72,100
166320,note_on,120,0,1,,,,,,,,0,,,79,0
166320,note_on,0,0,1,,,,,,,,0,,,78,100
166440,note_on,120,0,1,,,,,,,,0,,,78,0
166440,note_on,0,0,1,,,,,,,,0,,,76,100
166560,note_on,0,0,3,,,,,,,,2,,,66,100
166560,note_on,0,0,1,,,,,,,,0,,,74,100
166560,note_on,120,0,1,,,,,,,,0,,,76,0
166560,note_on,240,0,2,,,,,,,,1,,,72,0
166560,note_on,480,0,3,,,,,,,,2,,,62,0
166560,note_on,0,0,2,,,,,,,,1,,,71,100
166680,note_on,120,0,1,,,,,,,,0,,,74,0
166680,note_on,0,0,1,,,,,,,,0,,,71,100
166800,note_on,0,0,2,,,,,,,,1,,,69,100
166800,note_on,240,0,2,,,,,,,,1,,,71,0
166800,note_on,120,0,1,,,,,,,,0,,,71,0
166800,note_on,0,0,1,,,,,,,,0,,,72,100
166920,note_on,0,0,1,,,,,,,,0,,,74,100
166920,note_on,120,0,1,,,,,,,,0,,,72,0
167040,note_on,0,0,1,,,,,,,,0,,,67,100
167040,note_on,0,0,4,,,,,,,,3,,,47,100
167040,note_on,960,0,4,,,,,,,,3,,,50,0
167040,note_on,480,0,3,,,,,,,,2,,,66,0
167040,note_on,0,0,3,,,,,,,,2,,,64,100
167040,note_on,0,0,2,,,,,,,,1,,,67,100
167040,note_on,240,0,2,,,,,,,,1,,,69,0
167040,note_on,120,0,1,,,,,,,,0,,,74,0
167160,note_on,120,0,1,,,,,,,,0,,,67,0
167160,note_on,0,0,1,,,,,,,,0,,,66,100
167280,note_on,120,0,1,,,,,,,,0,,,66,0
167280,note_on,0,0,2,,,,,,,,1,,,64,100
167280,note_on,240,0,2,,,,,,,,1,,,67,0
167280,note_on,0,0,1,,,,,,,,0,,,67,100
167400,note_on,0,0,1,,,,,,,,0,,,69,100
167400,note_on,120,0,1,,,,,,,,0,,,67,0
167520,note_on,0,0,1,,,,,,,,0,,,71,100
167520,note_on,120,0,1,,,,,,,,0,,,69,0
167520,note_on,0,0,3,,,,,,,,2,,,62,100
167520,note_on,0,0,2,,,,,,,,1,,,66,100
167520,note_on,240,0,2,,,,,,,,1,,,64,0
167520,note_on,480,0,3,,,,,,,,2,,,64,0
167640,note_on,120,0,1,,,,,,,,0,,,71,0
167640,note_on,0,0,1,,,,,,,,0,,,74,100
167760,note_on,120,0,1,,,,,,,,0,,,74,0
167760,note_on,0,0,1,,,,,,,,0,,,72,100
167760,note_on,0,0,2,,,,,,,,1,,,67,100
167760,note_on,240,0,2,,,,,,,,1,,,66,0
167880,note_on,0,0,1,,,,,,,,0,,,71,100
167880,note_on,120,0,1,,,,,,,,0,,,72,0
168000,note_on,480,0,3,,,,,,,,2,,,62,0
168000,note_on,0,0,3,,,,,,,,2,,,69,100
168000,note_on,240,0,2,,,,,,,,1,,,67,0
168000,note_on,0,0,1,,,,,,,,0,,,76,100
168000,note_on,120,0,1,,,,,,,,0,,,71,0
168000,note_on,0,0,2,,,,,,,,1,,,60,100
168000,note_on,960,0,4,,,,,,,,3,,,47,0
168000,note_on,0,0,4,,,,,,,,3,,,48,100
168120,note_on,0,0,1,,,,,,,,0,,,77,100
168120,note_on,120,0,1,,,,,,,,0,,,76,0
168240,note_on,120,0,1,,,,,,,,0,,,77,0
168240,note_on,240,0,2,,,,,,,,1,,,60,0
168240,note_on,0,0,1,,,,,,,,0,,,76,100
168240,note_on,0,0,2,,,,,,,,1,,,62,100
168360,note_on,120,0,1,,,,,,,,0,,,76,0
168360,note_on,0,0,1,,,,,,,,0,,,74,100
168480,note_on,0,0,3,,,,,,,,2,,,67,100
168480,note_on,240,0,2,,,,,,,,1,,,62,0
168480,note_on,0,0,2,,,,,,,,1,,,64,100
168480,note_on,480,0,3,,,,,,,,2,,,69,0
168480,note_on,0,0,1,,,,,,,,0,,,72,100
168480,note_on,120,0,1,,,,,,,,0,,,74,0
168600,note_on,0,0,1,,,,,,,,0,,,69,100
168600,note_on,120,0,1,,,,,,,,0,,,72,0
168720,note_on,240,0,2,,,,,,,,1,,,64,0
168720,note_on,0,0,2,,,,,,,,1,,,55,100
168720,note_on,120,0,1,,,,,,,,0,,,69,0
168720,note_on,0,0,1,,,,,,,,0,,,71,100
168840,note_on,120,0,1,,,,,,,,0,,,71,0
168840,note_on,0,0,1,,,,,,,,0,,,72,100
168960,note_on,0,0,3,,,,,,,,2,,,66,100
168960,note_on,240,0,2,,,,,,,,1,,,55,0
168960,note_on,960,0,4,,,,,,,,3,,,48,0
168960,note_on,0,0,4,,,,,,,,3,,,50,100
168960,note_on,120,0,1,,,,,,,,0,,,72,0
168960,note_on,0,0,1,,,,,,,,0,,,66,100
168960,note_on,480,0,3,,,,,,,,2,,,67,0
169080,note_on,120,0,1,,,,,,,,0,,,66,0
169080,note_on,0,0,1,,,,,,,,0,,,61,100
169200,note_on,240,0,2,,,,,,,,1,,,54,100
169200,note_on,120,0,1,,,,,,,,0,,,61,0
169200,note_on,0,0,1,,,,,,,,0,,,62,100
169320,note_on,120,0,1,,,,,,,,0,,,62,0
169320,note_on,0,0,1,,,,,,,,0,,,64,100
169320,note_on,120,0,2,,,,,,,,1,,,54,0
169320,note_on,0,0,2,,,,,,,,1,,,52,100
169440,note_on,120,0,1,,,,,,,,0,,,64,0
169440,note_on,0,0,1,,,,,,,,0,,,66,100
169440,note_on,0,0,3,,,,,,,,2,,,74,100
169440,note_on,480,0,3,,,,,,,,2,,,66,0
169440,note_on,120,0,2,,,,,,,,1,,,52,0
169440,note_on,0,0,2,,,,,,,,1,,,50,100
169560,note_on,120,0,1,,,,,,,,0,,,66,0
169560,note_on,0,0,1,,,,,,,,0,,,69,100
169680,note_on,0,0,2,,,,,,,,1,,,62,100
169680,note_on,240,0,2,,,,,,,,1,,,50,0
169680,note_on,0,0,1,,,,,,,,0,,,67,100
169680,note_on,120,0,1,,,,,,,,0,,,69,0
169800,note_on,0,0,1,,,,,,,,0,,,66,100
169800,note_on,120,0,1,,,,,,,,0,,,67,0
169920,note_on,480,0,3,,,,,,,,2,,,74,0
169920,note_on,0,0,4,,,,,,,,3,,,43,100
169920,note_on,960,0,4,,,,,,,,3,,,50,0
169920,note_on,120,0,1,,,,,,,,0,,,66,0
169920,note_on,0,0,1,,,,,,,,0,,,71,100
170040,note_on,120,0,1,,,,,,,,0,,,71,0
170040,note_on,0,0,1,,,,,,,,0,,,62,100
170160,note_on,0,0,1,,,,,,,,0,,,64,100
170160,note_on,120,0,1,,,,,,,,0,,,62,0
170160,note_on,480,0,2,,,,,,,,1,,,62,0
170160,note_on,0,0,2,,,,,,,,1,,,60,100
170280,note_on,0,0,1,,,,,,,,0,,,66,100
170280,note_on,120,0,1,,,,,,,,0,,,64,0
170280,note_on,120,0,2,,,,,,,,1,,,60,0
170280,note_on,0,0,2,,,,,,,,1,,,59,100
170400,note_on,480,0,3,,,,,,,,2,,,76,100
170400,note_on,120,0,2,,,,,,,,1,,,59,0
170400,note_on,0,0,1,,,,,,,,0,,,67,100
170400,note_on,120,0,1,,,,,,,,0,,,66,0
170400,note_on,0,0,2,,,,,,,,1,,,66,100
170520,note_on,120,0,1,,,,,,,,0,,,67,0
170520,note_on,0,0,1,,,,,,,,0,,,71,100
170640,note_on,0,0,3,,,,,,,,2,,,78,100
170640,note_on,240,0,3,,,,,,,,2,,,76,0
170640,note_on,120,0,1,,,,,,,,0,,,71,0
170640,note_on,0,0,1,,,,,,,,0,,,69,100
170640,note_on,240,0,2,,,,,,,,1,,,66,0
170640,note_on,0,0,2,,,,,,,,1,,,64,100
170760,note_on,0,0,1,,,,,,,,0,,,67,100
170760,note_on,120,0,1,,,,,,,,0,,,69,0
170760,note_on,0,0,2,,,,,,,,1,,,62,100
170760,note_on,120,0,2,,,,,,,,1,,,64,0
170880,note_on,0,0,1,,,,,,,,0,,,74,100
170880,note_on,0,0,3,,,,,,,,2,,,79,100
170880,note_on,240,0,3,,,,,,,,2,,,78,0
170880,note_on,120,0,2,,,,,,,,1,,,62,0
170880,note_on,0,0,2,,,,,,,,1,,,64,100
170880,note_on,120,0,1,,,,,,,,0,,,67,0
170880,note_on,0,0,4,,,,,,,,3,,,55,100
170880,note_on,960,0,4,,,,,,,,3,,,43,0
171120,note_on,240,0,2,,,,,,,,1,,,64,0
171120,note_on,0,0,2,,,,,,,,1,,,67,100
171120,note_on,0,0,1,,,,,,,,0,,,62,100
171120,note_on,240,0,1,,,,,,,,0,,,74,0
171360,note_on,480,0,3,,,,,,,,2,,,79,0
171360,note_on,240,0,2,,,,,,,,1,,,67,0
171360,note_on,0,0,3,,,,,,,,2,,,67,100
171360,note_on,0,0,2,,,,,,,,1,,,66,100
171360,note_on,240,0,1,,,,,,,,0,,,62,0
171480,note_on,120,0,1,,,,,,,,0,,,57,100
171600,note_on,240,0,2,,,,,,,,1,,,66,0
171600,note_on,0,0,1,,,,,,,,0,,,59,100
171600,note_on,120,0,1,,,,,,,,0,,,57,0
171600,note_on,0,0,2,,,,,,,,1,,,64,100
171720,note_on,0,0,1,,,,,,,,0,,,61,100
171720,note_on,120,0,1,,,,,,,,0,,,59,0
171840,note_on,0,0,2,,,,,,,,1,,,62,100
171840,note_on,0,0,1,,,,,,,,0,,,62,100
171840,note_on,120,0,1,,,,,,,,0,,,61,0
171840,note_on,240,0,2,,,,,,,,1,,,64,0
171840,note_on,0,0,4,,,,,,,,3,,,54,100
171840,note_on,960,0,4,,,,,,,,3,,,55,0
171960,note_on,0,0,1,,,,,,,,0,,,66,100
171960,note_on,120,0,1,,,,,,,,0,,,62,0
172080,note_on,0,0,2,,,,,,,,1,,,59,100
172080,note_on,0,0,1,,,,,,,,0,,,64,100
172080,note_on,120,0,1,,,,,,,,0,,,66,0
172080,note_on,240,0,2,,,,,,,,1,,,62,0
172200,note_on,0,0,1,,,,,,,,0,,,62,100
172200,note_on,120,0,1,,,,,,,,0,,,64,0
172320,note_on,120,0,1,,,,,,,,0,,,62,0
172320,note_on,0,0,1,,,,,,,,0,,,69,100
172320,note_on,240,0,2,,,,,,,,1,,,59,0
172320,note_on,0,0,3,,,,,,,,2,,,57,100
172320,note_on,0,0,2,,,,,,,,1,,,61,100
172320,note_on,960,0,3,,,,,,,,2,,,67,0
172440,note_on,120,0,1,,,,,,,,0,,,69,0
172440,note_on,0,0,1,,,,,,,,0,,,67,100
172560,note_on,240,0,2,,,,,,,,1,,,61,0
172560,note_on,120,0,1,,,,,,,,0,,,67,0
172560,note_on,0,0,1,,,,,,,,0,,,66,100
172560,note_on,0,0,2,,,,,,,,1,,,62,100
172680,note_on,120,0,1,,,,,,,,0,,,66,0
172680,note_on,0,0,1,,,,,,,,0,,,74,100
172800,note_on,240,0,2,,,,,,,,1,,,62,0
172800,note_on,0,0,2,,,,,,,,1,,,55,100
172800,note_on,480,0,3,,,,,,,,2,,,57,0
172800,note_on,960,0,4,,,,,,,,3,,,54,0
172800,note_on,0,0,3,,,,,,,,2,,,59,100
172800,note_on,120,0,1,,,,,,,,0,,,74,0
172800,note_on,0,0,4,,,,,,,,3,,,52,100
172920,note_on,120,0,1,,,,,,,,0,,,76,100
172980,note_on,60,0,1,,,,,,,,0,,,76,0
172980,note_on,0,0,1,,,,,,,,0,,,78,100
173040,note_on,60,0,1,,,,,,,,0,,,78,0
173040,note_on,0,0,1,,,,,,,,0,,,79,100
173160,note_on,120,0,1,,,,,,,,0,,,79,0
173160,note_on,0,0,1,,,,,,,,0,,,67,100
173280,note_on,0,0,3,,,,,,,,2,,,61,100
173280,note_on,480,0,2,,,,,,,,1,,,55,0
173280,note_on,0,0,2,,,,,,,,1,,,67,100
173280,note_on,480,0,3,,,,,,,,2,,,59,0
173400,note_on,0,0,1,,,,,,,,0,,,69,100
173400,note_on,240,0,1,,,,,,,,0,,,67,0
173460,note_on,60,0,1,,,,,,,,0,,,69,0
173460,note_on,0,0,1,,,,,,,,0,,,71,100
173520,note_on,0,0,1,,,,,,,,0,,,64,100
173520,note_on,60,0,1,,,,,,,,0,,,71,0
173640,note_on,120,0,1,,,,,,,,0,,,64,0
173640,note_on,0,0,1,,,,,,,,0,,,66,100
173700,note_on,60,0,1,,,,,,,,0,,,66,0
173700,note_on,0,0,1,,,,,,,,0,,,67,100
173760,note_on,960,0,4,,,,,,,,3,,,52,0
173760,note_on,60,0,1,,,,,,,,0,,,67,0
173760,note_on,0,0,1,,,,,,,,0,,,66,100
173760,note_on,0,0,4,,,,,,,,3,,,50,100
173760,note_on,480,0,2,,,,,,,,1,,,67,0
173760,note_on,480,0,3,,,,,,,,2,,,61,0
173760,note_on,0,0,3,,,,,,,,2,,,62,100
173880,note_on,120,0,1,,,,,,,,0,,,66,0
173880,note_on,0,0,1,,,,,,,,0,,,79,100
174000,note_on,240,0,2,,,,,,,,1,,,72,100
174000,note_on,0,0,1,,,,,,,,0,,,78,100
174000,note_on,120,0,1,,,,,,,,0,,,79,0
174120,note_on,0,0,1,,,,,,,,0,,,76,100
174120,note_on,120,0,1,,,,,,,,0,,,78,0
174240,note_on,0,0,3,,,,,,,,2,,,66,100
174240,note_on,480,0,3,,,,,,,,2,,,62,0
174240,note_on,0,0,2,,,,,,,,1,,,71,100
174240,note_on,240,0,2,,,,,,,,1,,,72,0
174240,note_on,0,0,1,,,,,,,,0,,,74,100
174240,note_on,120,0,1,,,,,,,,0,,,76,0
174360,note_on,0,0,1,,,,,,,,0,,,71,100
174360,note_on,120,0,1,,,,,,,,0,,,74,0
174480,note_on,0,0,2,,,,,,,,1,,,69,100
174480,note_on,0,0,1,,,,,,,,0,,,72,100
174480,note_on,120,0,1,,,,,,,,0,,,71,0
174480,note_on,240,0,2,,,,,,,,1,,,71,0
174600,note_on,0,0,1,,,,,,,,0,,,74,100
174600,note_on,120,0,1,,,,,,,,0,,,72,0
174720,note_on,480,0,3,,,,,,,,2,,,66,0
174720,note_on,960,0,4,,,,,,,,3,,,50,0
174720,note_on,0,0,4,,,,,,,,3,,,47,100
174720,note_on,0,0,1,,,,,,,,0,,,67,100
174720,note_on,0,0,3,,,,,,,,2,,,64,100
174720,note_on,120,0,1,,,,,,,,0,,,74,0
174720,note_on,240,0,2,,,,,,,,1,,,69,0
174720,note_on,0,0,2,,,,,,,,1,,,67,100
174840,note_on,120,0,1,,,,,,,,0,,,67,0
174840,note_on,0,0,1,,,,,,,,0,,,66,100
174960,note_on,0,0,2,,,,,,,,1,,,64,100
174960,note_on,240,0,2,,,,,,,,1,,,67,0
174960,note_on,0,0,1,,,,,,,,0,,,67,100
174960,note_on,120,0,1,,,,,,,,0,,,66,0
175080,note_on,0,0,1,,,,,,,,0,,,69,100
175080,note_on,120,0,1,,,,,,,,0,,,67,0
175200,note_on,120,0,1,,,,,,,,0,,,69,0
175200,note_on,0,0,2,,,,,,,,1,,,66,100
175200,note_on,240,0,2,,,,,,,,1,,,64,0
175200,note_on,0,0,3,,,,,,,,2,,,62,100
175200,note_on,480,0,3,,,,,,,,2,,,64,0
175200,note_on,0,0,1,,,,,,,,0,,,71,100
175320,note_on,120,0,1,,,,,,,,0,,,71,0
175320,note_on,0,0,1,,,,,,,,0,,,74,100
175440,note_on,0,0,1,,,,,,,,0,,,72,100
175440,note_on,240,0,2,,,,,,,,1,,,66,0
175440,note_on,120,0,1,,,,,,,,0,,,74,0
175440,note_on,0,0,2,,,,,,,,1,,,67,100
175560,note_on,120,0,1,,,,,,,,0,,,72,0
175560,note_on,0,0,1,,,,,,,,0,,,71,100
175680,note_on,0,0,4,,,,,,,,3,,,48,100
175680,note_on,0,0,2,,,,,,,,1,,,60,100
175680,note_on,240,0,2,,,,,,,,1,,,67,0
175680,note_on,120,0,1,,,,,,,,0,,,71,0
175680,note_on,0,0,1,,,,,,,,0,,,76,100
175680,note_on,960,0,4,,,,,,,,3,,,47,0
175680,note_on,480,0,3,,,,,,,,2,,,62,0
175680,note_on,0,0,3,,,,,,,,2,,,69,100
175800,note_on,120,0,1,,,,,,,,0,,,76,0
175800,note_on,0,0,1,,,,,,,,0,,,77,100
175920,note_on,0,0,1,,,,,,,,0,,,76,100
175920,note_on,240,0,2,,,,,,,,1,,,60,0
175920,note_on,0,0,2,,,,,,,,1,,,62,100
175920,note_on,120,0,1,,,,,,,,0,,,77,0
176040,note_on,120,0,1,,,,,,,,0,,,76,0
176040,note_on,0,0,1,,,,,,,,0,,,74,100
176160,note_on,0,0,1,,,,,,,,0,,,72,100
176160,note_on,0,0,3,,,,,,,,2,,,67,100
176160,note_on,480,0,3,,,,,,,,2,,,69,0
176160,note_on,0,0,2,,,,,,,,1,,,64,100
176160,note_on,240,0,2,,,,,,,,1,,,62,0
176160,note_on,120,0,1,,,,,,,,0,,,74,0
176280,note_on,120,0,1,,,,,,,,0,,,72,0
176280,note_on,0,0,1,,,,,,,,0,,,69,100
176400,note_on,240,0,2,,,,,,,,1,,,64,0
176400,note_on,0,0,2,,,,,,,,1,,,55,100
176400,note_on,120,0,1,,,,,,,,0,,,69,0
176400,note_on,0,0,1,,,,,,,,0,,,71,100
176520,note_on,0,0,1,,,,,,,,0,,,72,100
176520,note_on,120,0,1,,,,,,,,0,,,71,0
176640,note_on,240,0,2,,,,,,,,1,,,55,0
176640,note_on,0,0,3,,,,,,,,2,,,66,100
176640,note_on,480,0,3,,,,,,,,2,,,67,0
176640,note_on,0,0,4,,,,,,,,3,,,50,100
176640,note_on,960,0,4,,,,,,,,3,,,48,0
176640,note_on,0,0,1,,,,,,,,0,,,66,100
176640,note_on,120,0,1,,,,,,,,0,,,72,0
176760,note_on,0,0,1,,,,,,,,0,,,61,100
176760,note_on,120,0,1,,,,,,,,0,,,66,0
176880,note_on,240,0,2,,,,,,,,1,,,54,100
176880,note_on,120,0,1,,,,,,,,0,,,61,0
176880,note_on,0,0,1,,,,,,,,0,,,62,100
177000,note_on,0,0,1,,,,,,,,0,,,64,100
177000,note_on,120,0,2,,,,,,,,1,,,54,0
177000,note_on,0,0,2,,,,,,,,1,,,52,100
177000,note_on,120,0,1,,,,,,,,0,,,62,0
177120,note_on,0,0,3,,,,,,,,2,,,74,100
177120,note_on,0,0,2,,,,,,,,1,,,50,100
177120,note_on,120,0,1,,,,,,,,0,,,64,0
177120,note_on,0,0,1,,,,,,,,0,,,66,100
177120,note_on,120,0,2,,,,,,,,1,,,52,0
177120,note_on,480,0,3,,,,,,,,2,,,66,0
177240,note_on,0,0,1,,,,,,,,0,,,69,100
177240,note_on,120,0,1,,,,,,,,0,,,66,0
177360,note_on,0,0,2,,,,,,,,1,,,62,100
177360,note_on,120,0,1,,,,,,,,0,,,69,0
177360,note_on,0,0,1,,,,,,,,0,,,67,100
177360,note_on,240,0,2,,,,,,,,1,,,50,0
177480,note_on,120,0,1,,,,,,,,0,,,67,0
177480,note_on,0,0,1,,,,,,,,0,,,66,100
177600,note_on,0,0,4,,,,,,,,3,,,43,100
177600,note_on,960,0,4,,,,,,,,3,,,50,0
177600,note_on,120,0,1,,,,,,,,0,,,66,0
177600,note_on,0,0,1,,,,,,,,0,,,71,100
177600,note_on,480,0,3,,,,,,,,2,,,74,0
177720,note_on,120,0,1,,,,,,,,0,,,71,0
177720,note_on,0,0,1,,,,,,,,0,,,62,100
177840,note_on,120,0,1,,,,,,,,0,,,62,0
177840,note_on,0,0,2,,,,,,,,1,,,60,100
177840,note_on,480,0,2,,,,,,,,1,,,62,0
177840,note_on,0,0,1,,,,,,,,0,,,64,100
177960,note_on,0,0,2,,,,,,,,1,,,59,100
177960,note_on,120,0,2,,,,,,,,1,,,60,0
177960,note_on,120,0,1,,,,,,,,0,,,64,0
177960,note_on,0,0,1,,,,,,,,0,,,66,100
178080,note_on,120,0,1,,,,,,,,0,,,66,0
178080,note_on,120,0,2,,,,,,,,1,,,59,0
178080,note_on,0,0,2,,,,,,,,1,,,66,100
178080,note_on,480,0,3,,,,,,,,2,,,76,100
178080,note_on,0,0,1,,,,,,,,0,,,67,100
178200,note_on,0,0,1,,,,,,,,0,,,71,100
178200,note_on,120,0,1,,,,,,,,0,,,67,0
178320,note_on,240,0,2,,,,,,,,1,,,66,0
178320,note_on,0,0,1,,,,,,,,0,,,69,100
178320,note_on,0,0,2,,,,,,,,1,,,64,100
178320,note_on,0,0,3,,,,,,,,2,,,78,100
178320,note_on,240,0,3,,,,,,,,2,,,76,0
178320,note_on,120,0,1,,,,,,,,0,,,71,0
178440,note_on,0,0,2,,,,,,,,1,,,62,100
178440,note_on,120,0,2,,,,,,,,1,,,64,0
178440,note_on,120,0,1,,,,,,,,0,,,69,0
178440,note_on,0,0,1,,,,,,,,0,,,67,100
178560,note_on,0,0,4,,,,,,,,3,,,55,100
178560,note_on,0,0,2,,,,,,,,1,,,64,100
178560,note_on,240,0,3,,,,,,,,2,,,78,0
178560,note_on,0,0,3,,,,,,,,2,,,79,100
178560,note_on,0,0,1,,,,,,,,0,,,74,100
178560,note_on,120,0,1,,,,,,,,0,,,67,0
178560,note_on,120,0,2,,,,,,,,1,,,62,0
178560,note_on,960,0,4,,,,,,,,3,,,43,0
178800,note_on,240,0,1,,,,,,,,0,,,74,0
178800,note_on,0,0,1,,,,,,,,0,,,62,100
178800,note_on,0,0,2,,,,,,,,1,,,67,100
178800,note_on,240,0,2,,,,,,,,1,,,64,0
179040,note_on,0,0,2,,,,,,,,1,,,66,100
179040,note_on,240,0,2,,,,,,,,1,,,67,0
179040,note_on,240,0,1,,,,,,,,0,,,62,0
179040,note_on,0,0,3,,,,,,,,2,,,67,100
179040,note_on,480,0,3,,,,,,,,2,,,79,0
179160,note_on,120,0,1,,,,,,,,0,,,57,100
179280,note_on,0,0,2,,,,,,,,1,,,64,100
179280,note_on,240,0,2,,,,,,,,1,,,66,0
179280,note_on,120,0,1,,,,,,,,0,,,57,0
179280,note_on,0,0,1,,,,,,,,0,,,59,100
179400,note_on,120,0,1,,,,,,,,0,,,59,0
179400,note_on,0,0,1,,,,,,,,0,,,61,100
179520,note_on,240,0,2,,,,,,,,1,,,64,0
179520,note_on,0,0,1,,,,,,,,0,,,62,100
179520,note_on,0,0,2,,,,,,,,1,,,62,100
179520,note_on,960,0,4,,,,,,,,3,,,55,0
179520,note_on,0,0,4,,,,,,,,3,,,54,100
179520,note_on,120,0,1,,,,,,,,0,,,61,0
179640,note_on,0,0,1,,,,,,,,0,,,66,100
179640,note_on,120,0,1,,,,,,,,0,,,62,0
179760,note_on,120,0,1,,,,,,,,0,,,66,0
179760,note_on,240,0,2,,,,,,,,1,,,62,0
179760,note_on,0,0,1,,,,,,,,0,,,64,100
179760,note_on,0,0,2,,,,,,,,1,,,59,100
179880,note_on,0,0,1,,,,,,,,0,,,62,100
179880,note_on,120,0,1,,,,,,,,0,,,64,0
180000,note_on,960,0,3,,,,,,,,2,,,67,0
180000,note_on,240,0,2,,,,,,,,1,,,59,0
180000,note_on,0,0,2,,,,,,,,1,,,61,100
180000,note_on,0,0,3,,,,,,,,2,,,57,100
180000,note_on,120,0,1,,,,,,,,0,,,62,0
180000,note_on,0,0,1,,,,,,,,0,,,69,100
180120,note_on,0,0,1,,,,,,,,0,,,67,100
180120,note_on,120,0,1,,,,,,,,0,,,69,0
180240,note_on,0,0,2,,,,,,,,1,,,62,100
180240,note_on,240,0,2,,,,,,,,1,,,61,0
180240,note_on,0,0,1,,,,,,,,0,,,66,100
180240,note_on,120,0,1,,,,,,,,0,,,67,0
180360,note_on,120,0,1,,,,,,,,0,,,66,0
180360,note_on,0,0,1,,,,,,,,0,,,74,100
180480,note_on,0,0,2,,,,,,,,1,,,55,100
180480,note_on,240,0,2,,,,,,,,1,,,62,0
180480,note_on,480,0,3,,,,,,,,2,,,57,0
180480,note_on,960,0,4,,,,,,,,3,,,54,0
180480,note_on,0,0,3,,,,,,,,2,,,59,100
180480,note_on,120,0,1,,,,,,,,0,,,74,0
180480,note_on,0,0,4,,,,,,,,3,,,52,100
180600,note_on,120,0,1,,,,,,,,0,,,76,100
180660,note_on,60,0,1,,,,,,,,0,,,76,0
180660,note_on,0,0,1,,,,,,,,0,,,78,100
180720,note_on,0,0,1,,,,,,,,0,,,79,100
180720,note_on,60,0,1,,,,,,,,0,,,78,0
180840,note_on,120,0,1,,,,,,,,0,,,79,0
180840,note_on,0,0,1,,,,,,,,0,,,67,100
180960,note_on,0,0,3,,,,,,,,2,,,61,100
180960,note_on,480,0,2,,,,,,,,1,,,55,0
180960,note_on,0,0,2,,,,,,,,1,,,67,100
180960,note_on,480,0,3,,,,,,,,2,,,59,0
181080,note_on,240,0,1,,,,,,,,0,,,67,0
181080,note_on,0,0,1,,,,,,,,0,,,69,100
181140,note_on,0,0,1,,,,,,,,0,,,71,100
181140,note_on,60,0,1,,,,,,,,0,,,69,0
181200,note_on,60,0,1,,,,,,,,0,,,71,0
181200,note_on,0,0,1,,,,,,,,0,,,64,100
181320,note_on,120,0,1,,,,,,,,0,,,64,0
181320,note_on,0,0,1,,,,,,,,0,,,66,100
181380,note_on,60,0,1,,,,,,,,0,,,66,0
181380,note_on,0,0,1,,,,,,,,0,,,67,100
181440,note_on,480,0,2,,,,,,,,1,,,67,0
181440,note_on,0,0,4,,,,,,,,3,,,50,100
181440,note_on,960,0,4,,,,,,,,3,,,52,0
181440,note_on,480,0,3,,,,,,,,2,,,61,0
181440,note_on,0,0,3,,,,,,,,2,,,62,100
181440,note_on,60,0,1,,,,,,,,0,,,67,0
181440,note_on,0,0,1,,,,,,,,0,,,66,100
181560,note_on,120,0,1,,,,,,,,0,,,66,0
181560,note_on,0,0,1,,,,,,,,0,,,79,100
181680,note_on,240,0,2,,,,,,,,1,,,72,100
181680,note_on,0,0,1,,,,,,,,0,,,78,100
181680,note_on,120,0,1,,,,,,,,0,,,79,0
181800,note_on,0,0,1,,,,,,,,0,,,76,100
181800,note_on,120,0,1,,,,,,,,0,,,78,0
181920,note_on,240,0,2,,,,,,,,1,,,72,0
181920,note_on,0,0,1,,,,,,,,0,,,74,100
181920,note_on,0,0,3,,,,,,,,2,,,66,100
181920,note_on,480,0,3,,,,,,,,2,,,62,0
181920,note_on,0,0,2,,,,,,,,1,,,71,100
181920,note_on,120,0,1,,,,,,,,0,,,76,0
182040,note_on,0,0,1,,,,,,,,0,,,71,100
182040,note_on,120,0,1,,,,,,,,0,,,74,0
182160,note_on,120,0,1,,,,,,,,0,,,71,0
182160,note_on,0,0,1,,,,,,,,0,,,72,100
182160,note_on,0,0,2,,,,,,,,1,,,69,100
182160,note_on,240,0,2,,,,,,,,1,,,71,0
182280,note_on,120,0,1,,,,,,,,0,,,72,0
182280,note_on,0,0,1,,,,,,,,0,,,74,100
182400,note_on,120,0,1,,,,,,,,0,,,74,0
182400,note_on,240,0,2,,,,,,,,1,,,69,0
182400,note_on,0,0,2,,,,,,,,1,,,67,100
182400,note_on,0,0,4,,,,,,,,3,,,47,100
182400,note_on,960,0,4,,,,,,,,3,,,50,0
182400,note_on,0,0,1,,,,,,,,0,,,67,100
182400,note_on,480,0,3,,,,,,,,2,,,66,0
182400,note_on,0,0,3,,,,,,,,2,,,64,100
182520,note_on,120,0,1,,,,,,,,0,,,67,0
182520,note_on,0,0,1,,,,,,,,0,,,66,100
182640,note_on,240,0,2,,,,,,,,1,,,67,0
182640,note_on,0,0,2,,,,,,,,1,,,64,100
182640,note_on,120,0,1,,,,,,,,0,,,66,0
182640,note_on,0,0,1,,,,,,,,0,,,67,100
182760,note_on,120,0,1,,,,,,,,0,,,67,0
182760,note_on,0,0,1,,,,,,,,0,,,69,100
182880,note_on,240,0,2,,,,,,,,1,,,64,0
182880,note_on,0,0,2,,,,,,,,1,,,66,100
182880,note_on,0,0,3,,,,,,,,2,,,62,100
182880,note_on,480,0,3,,,,,,,,2,,,64,0
182880,note_on,120,0,1,,,,,,,,0,,,69,0
182880,note_on,0,0,1,,,,,,,,0,,,71,100
183000,note_on,0,0,1,,,,,,,,0,,,74,100
183000,note_on,120,0,1,,,,,,,,0,,,71,0
183120,note_on,120,0,1,,,,,,,,0,,,74,0
183120,note_on,0,0,1,,,,,,,,0,,,72,100
183120,note_on,0,0,2,,,,,,,,1,,,67,100
183120,note_on,240,0,2,,,,,,,,1,,,66,0
183240,note_on,120,0,1,,,,,,,,0,,,72,0
183240,note_on,0,0,1,,,,,,,,0,,,71,100
183360,note_on,480,0,3,,,,,,,,2,,,62,0
183360,note_on,0,0,2,,,,,,,,1,,,60,100
183360,note_on,240,0,2,,,,,,,,1,,,67,0
183360,note_on,0,0,3,,,,,,,,2,,,69,100
183360,note_on,960,0,4,,,,,,,,3,,,47,0
183360,note_on,120,0,1,,,,,,,,0,,,71,0
183360,note_on,0,0,1,,,,,,,,0,,,76,100
183360,note_on,0,0,4,,,,,,,,3,,,48,100
183480,note_on,120,0,1,,,,,,,,0,,,76,0
183480,note_on,0,0,1,,,,,,,,0,,,77,100
183600,note_on,0,0,2,,,,,,,,1,,,62,100
183600,note_on,240,0,2,,,,,,,,1,,,60,0
183600,note_on,120,0,1,,,,,,,,0,,,77,0
183600,note_on,0,0,1,,,,,,,,0,,,76,100
183720,note_on,120,0,1,,,,,,,,0,,,76,0
183720,note_on,0,0,1,,,,,,,,0,,,74,100
183840,note_on,480,0,3,,,,,,,,2,,,69,0
183840,note_on,0,0,2,,,,,,,,1,,,64,100
183840,note_on,240,0,2,,,,,,,,1,,,62,0
183840,note_on,0,0,3,,,,,,,,2,,,67,100
183840,note_on,0,0,1,,,,,,,,0,,,72,100
183840,note_on,120,0,1,,,,,,,,0,,,74,0
183960,note_on,120,0,1,,,,,,,,0,,,72,0
183960,note_on,0,0,1,,,,,,,,0,,,69,100
184080,note_on,0,0,2,,,,,,,,1,,,55,100
184080,note_on,240,0,2,,,,,,,,1,,,64,0
184080,note_on,0,0,1,,,,,,,,0,,,71,100
184080,note_on,120,0,1,,,,,,,,0,,,69,0
184200,note_on,0,0,1,,,,,,,,0,,,72,100
184200,note_on,120,0,1,,,,,,,,0,,,71,0
184320,note_on,0,0,1,,,,,,,,0,,,66,100
184320,note_on,240,0,2,,,,,,,,1,,,55,0
184320,note_on,0,0,4,,,,,,,,3,,,50,100
184320,note_on,0,0,3,,,,,,,,2,,,66,100
184320,note_on,480,0,3,,,,,,,,2,,,67,0
184320,note_on,120,0,1,,,,,,,,0,,,72,0
184320,note_on,960,0,4,,,,,,,,3,,,48,0
184440,note_on,0,0,1,,,,,,,,0,,,61,100
184440,note_on,120,0,1,,,,,,,,0,,,66,0
184560,note_on,120,0,1,,,,,,,,0,,,61,0
184560,note_on,0,0,1,,,,,,,,0,,,62,100
184560,note_on,240,0,2,,,,,,,,1,,,54,100
184680,note_on,120,0,1,,,,,,,,0,,,62,0
184680,note_on,0,0,1,,,,,,,,0,,,64,100
184680,note_on,120,0,2,,,,,,,,1,,,54,0
184680,note_on,0,0,2,,,,,,,,1,,,52,100
184800,note_on,0,0,2,,,,,,,,1,,,50,100
184800,note_on,480,0,3,,,,,,,,2,,,66,0
184800,note_on,0,0,1,,,,,,,,0,,,66,100
184800,note_on,0,0,3,,,,,,,,2,,,74,100
184800,note_on,120,0,2,,,,,,,,1,,,52,0
184800,note_on,120,0,1,,,,,,,,0,,,64,0
184920,note_on,0,0,1,,,,,,,,0,,,69,100
184920,note_on,120,0,1,,,,,,,,0,,,66,0
185040,note_on,0,0,1,,,,,,,,0,,,67,100
185040,note_on,0,0,2,,,,,,,,1,,,62,100
185040,note_on,240,0,2,,,,,,,,1,,,50,0
185040,note_on,120,0,1,,,,,,,,0,,,69,0
185160,note_on,0,0,1,,,,,,,,0,,,66,100
185160,note_on,120,0,1,,,,,,,,0,,,67,0
185280,note_on,480,0,3,,,,,,,,2,,,74,0
185280,note_on,120,0,1,,,,,,,,0,,,66,0
185280,note_on,0,0,3,,,,,,,,2,,,67,100
185280,note_on,960,0,4,,,,,,,,3,,,50,0
185280,note_on,0,0,4,,,,,,,,3,,,43,100
185280,note_on,0,0,1,,,,,,,,0,,,71,100
187200,end_of_track,0,1,3,,,,,,,,,,,,
187200,note_on,2160,0,2,,,,,,,,1,,,62,0
187200,end_of_track,0,1,4,,,,,,,,,,,,
187200,note_on,1920,0,4,,,,,,,,3,,,43,0
187200,end_of_track,0,1,1,,,,,,,,,,,,
187200,note_on,1920,0,3,,,,,,,,2,,,67,0
187200,end_of_track,0,1,2,,,,,,,,,,,,
187200,note_on,1920,0,1,,,,,,,,0,,,71,0
