tick,type,time,meta,track,numerator,denominator,clocks_per_click,notated_32nd_notes_per_beat,channel,data,port,tempo,program,control,value,note,velocity
0,track_name,0,1,0,,,,,,,,,,,,,
0,time_signature,0,1,0,4,4,24,8,,,,,,,,,
0,channel_prefix,0,1,0,,,,,0,,,,,,,,
0,copyright,0,1,0,,,,,,,,,,,,,
0,channel_prefix,0,1,0,,,,,0,,,,,,,,
0,track_name,0,1,0,,,,,,,,,,,,,
0,channel_prefix,0,1,0,,,,,0,,,,,,,,
0,instrument_name,0,1,0,,,,,,,,,,,,,
0,sysex,0,0,0,,,,,,"(126, 127, 9, 1)",,,,,,,
0,midi_port,0,1,0,,,,,,,0,,,,,,
0,set_tempo,0,1,0,,,,,,,,1500000,,,,,
0,program_change,0,0,0,,,,,0,,,,48,,,,
0,control_change,0,0,0,,,,,0,,,,,7,110,,
0,note_on,0,0,0,,,,,0,,,,,,,65,96
0,channel_prefix,0,1,0,,,,,1,,,,,,,,
0,track_name,0,1,0,,,,,,,,,,,,,
0,channel_prefix,0,1,0,,,,,1,,,,,,,,
0,instrument_name,0,1,0,,,,,,,,,,,,,
0,midi_port,0,1,0,,,,,,,0,,,,,,
0,program_change,0,0,0,,,,,1,,,,48,,,,
0,control_change,0,0,0,,,,,1,,,,,7,110,,
0,note_on,0,0,0,,,,,1,,,,,,,62,96
0,channel_prefix,0,1,0,,,,,2,,,,,,,,
0,track_name,0,1,0,,,,,,,,,,,,,
0,channel_prefix,0,1,0,,,,,2,,,,,,,,
0,instrument_name,0,1,0,,,,,,,,,,,,,
0,midi_port,0,1,0,,,,,,,0,,,,,,
0,program_change,0,0,0,,,,,2,,,,48,,,,
0,control_change,0,0,0,,,,,2,,,,,7,110,,
0,note_on,0,0,0,,,,,2,,,,,,,58,96
0,channel_prefix,0,1,0,,,,,3,,,,,,,,
0,track_name,0,1,0,,,,,,,,,,,,,
0,channel_prefix,0,1,0,,,,,3,,,,,,,,
0,instrument_name,0,1,0,,,,,,,,,,,,,
0,midi_port,0,1,0,,,,,,,0,,,,,,
0,program_change,0,0,0,,,,,3,,,,42,,,,
0,note_on,0,0,0,,,,,3,,,,,,,46,96
0,channel_prefix,0,1,0,,,,,4,,,,,,,,
0,track_name,0,1,0,,,,,,,,,,,,,
0,channel_prefix,0,1,0,,,,,4,,,,,,,,
0,instrument_name,0,1,0,,,,,,,,,,,,,
0,midi_port,0,1,0,,,,,,,0,,,,,,
0,program_change,0,0,0,,,,,4,,,,43,,,,
0,note_on,0,0,0,,,,,4,,,,,,,34,96
0,channel_prefix,0,1,0,,,,,5,,,,,,,,
0,track_name,0,1,0,,,,,,,,,,,,,
0,channel_prefix,0,1,0,,,,,5,,,,,,,,
0,instrument_name,0,1,0,,,,,,,,,,,,,
0,midi_port,0,1,0,,,,,,,0,,,,,,
0,program_change,0,0,0,,,,,5,,,,6,,,,
0,note_on,0,0,0,,,,,5,,,,,,,65,96
0,channel_prefix,0,1,0,,,,,6,,,,,,,,
0,track_name,0,1,0,,,,,,,,,,,,,
0,channel_prefix,0,1,0,,,,,6,,,,,,,,
0,instrument_name,0,1,0,,,,,,,,,,,,,
0,midi_port,0,1,0,,,,,,,0,,,,,,
0,program_change,0,0,0,,,,,5,,,,6,,,,
0,note_on,0,0,0,,,,,5,,,,,,,62,96
0,note_on,0,0,0,,,,,5,,,,,,,58,96
0,midi_port,0,1,0,,,,,,,0,,,,,,
0,program_change,0,0,0,,,,,6,,,,6,,,,
0,note_on,0,0,0,,,,,6,,,,,,,46,96
12,note_off,12,0,0,,,,,3,,,,,,,46,0
12,note_off,0,0,0,,,,,4,,,,,,,34,0
12,note_off,0,0,0,,,,,6,,,,,,,46,0
21,note_off,9,0,0,,,,,0,,,,,,,65,0
21,note_off,0,0,0,,,,,1,,,,,,,62,0
21,note_off,0,0,0,,,,,2,,,,,,,58,0
21,note_off,0,0,0,,,,,5,,,,,,,65,0
21,note_off,0,0,0,,,,,5,,,,,,,62,0
21,note_off,0,0,0,,,,,5,,,,,,,58,0
24,note_on,3,0,0,,,,,3,,,,,,,46,96
24,note_on,0,0,0,,,,,4,,,,,,,34,96
24,note_on,0,0,0,,,,,6,,,,,,,46,96
36,note_off,12,0,0,,,,,3,,,,,,,46,0
36,note_off,0,0,0,,,,,4,,,,,,,34,0
36,note_off,0,0,0,,,,,6,,,,,,,46,0
48,note_on,12,0,0,,,,,0,,,,,,,68,96
48,note_on,0,0,0,,,,,1,,,,,,,62,96
48,note_on,0,0,0,,,,,2,,,,,,,53,96
48,note_on,0,0,0,,,,,3,,,,,,,46,96
48,note_on,0,0,0,,,,,4,,,,,,,34,96
48,note_on,0,0,0,,,,,5,,,,,,,68,96
48,note_on,0,0,0,,,,,5,,,,,,,65,96
48,note_on,0,0,0,,,,,5,,,,,,,62,96
48,note_on,0,0,0,,,,,5,,,,,,,58,96
48,note_on,0,0,0,,,,,6,,,,,,,46,96
60,note_off,12,0,0,,,,,3,,,,,,,46,0
60,note_off,0,0,0,,,,,4,,,,,,,34,0
60,note_off,0,0,0,,,,,6,,,,,,,46,0
69,note_off,9,0,0,,,,,0,,,,,,,68,0
69,note_off,0,0,0,,,,,1,,,,,,,62,0
69,note_off,0,0,0,,,,,2,,,,,,,53,0
69,note_off,0,0,0,,,,,5,,,,,,,68,0
69,note_off,0,0,0,,,,,5,,,,,,,65,0
69,note_off,0,0,0,,,,,5,,,,,,,62,0
69,note_off,0,0,0,,,,,5,,,,,,,58,0
72,note_on,3,0,0,,,,,3,,,,,,,50,96
72,note_on,0,0,0,,,,,4,,,,,,,38,96
72,note_on,0,0,0,,,,,6,,,,,,,50,96
84,note_off,12,0,0,,,,,3,,,,,,,50,0
84,note_on,0,0,0,,,,,3,,,,,,,51,96
84,note_off,0,0,0,,,,,4,,,,,,,38,0
84,note_on,0,0,0,,,,,4,,,,,,,39,96
84,note_off,0,0,0,,,,,6,,,,,,,50,0
84,note_on,0,0,0,,,,,6,,,,,,,51,96
90,note_off,6,0,0,,,,,3,,,,,,,51,0
90,note_on,0,0,0,,,,,3,,,,,,,53,96
90,note_off,0,0,0,,,,,4,,,,,,,39,0
90,note_on,0,0,0,,,,,4,,,,,,,41,96
90,note_off,0,0,0,,,,,6,,,,,,,51,0
90,note_on,0,0,0,,,,,6,,,,,,,53,96
95,note_off,5,0,0,,,,,3,,,,,,,53,0
95,note_off,0,0,0,,,,,4,,,,,,,41,0
95,note_off,0,0,0,,,,,6,,,,,,,53,0
96,note_on,1,0,0,,,,,0,,,,,,,68,96
96,note_on,0,0,0,,,,,1,,,,,,,63,96
96,note_on,0,0,0,,,,,2,,,,,,,58,96
96,note_on,0,0,0,,,,,3,,,,,,,46,96
96,note_on,0,0,0,,,,,4,,,,,,,34,96
96,note_on,0,0,0,,,,,5,,,,,,,68,96
96,note_on,0,0,0,,,,,5,,,,,,,63,96
96,note_on,0,0,0,,,,,5,,,,,,,58,96
96,note_on,0,0,0,,,,,6,,,,,,,46,96
108,note_off,12,0,0,,,,,3,,,,,,,46,0
108,note_off,0,0,0,,,,,4,,,,,,,34,0
108,note_off,0,0,0,,,,,6,,,,,,,46,0
117,note_off,9,0,0,,,,,0,,,,,,,68,0
117,note_off,0,0,0,,,,,1,,,,,,,63,0
117,note_off,0,0,0,,,,,2,,,,,,,58,0
117,note_off,0,0,0,,,,,5,,,,,,,68,0
117,note_off,0,0,0,,,,,5,,,,,,,63,0
117,note_off,0,0,0,,,,,5,,,,,,,58,0
120,note_on,3,0,0,,,,,3,,,,,,,46,96
120,note_on,0,0,0,,,,,4,,,,,,,34,96
120,note_on,0,0,0,,,,,6,,,,,,,46,96
132,note_off,12,0,0,,,,,3,,,,,,,46,0
132,note_off,0,0,0,,,,,4,,,,,,,34,0
132,note_off,0,0,0,,,,,6,,,,,,,46,0
144,note_on,12,0,0,,,,,0,,,,,,,67,96
144,note_on,0,0,0,,,,,1,,,,,,,63,96
144,note_on,0,0,0,,,,,2,,,,,,,58,96
144,note_on,0,0,0,,,,,3,,,,,,,46,96
144,note_on,0,0,0,,,,,4,,,,,,,34,96
144,note_on,0,0,0,,,,,5,,,,,,,67,96
144,note_on,0,0,0,,,,,5,,,,,,,63,96
144,note_on,0,0,0,,,,,5,,,,,,,58,96
144,note_on,0,0,0,,,,,6,,,,,,,46,96
156,note_off,12,0,0,,,,,3,,,,,,,46,0
156,note_off,0,0,0,,,,,4,,,,,,,34,0
156,note_off,0,0,0,,,,,6,,,,,,,46,0
165,note_off,9,0,0,,,,,0,,,,,,,67,0
165,note_off,0,0,0,,,,,1,,,,,,,63,0
165,note_off,0,0,0,,,,,2,,,,,,,58,0
165,note_off,0,0,0,,,,,5,,,,,,,67,0
165,note_off,0,0,0,,,,,5,,,,,,,63,0
165,note_off,0,0,0,,,,,5,,,,,,,58,0
168,note_on,3,0,0,,,,,3,,,,,,,51,96
168,note_on,0,0,0,,,,,4,,,,,,,39,96
168,note_on,0,0,0,,,,,6,,,,,,,51,96
180,note_off,12,0,0,,,,,3,,,,,,,51,0
180,note_on,0,0,0,,,,,3,,,,,,,53,96
180,note_off,0,0,0,,,,,4,,,,,,,39,0
180,note_on,0,0,0,,,,,4,,,,,,,41,96
180,note_off,0,0,0,,,,,6,,,,,,,51,0
180,note_on,0,0,0,,,,,6,,,,,,,53,96
186,note_off,6,0,0,,,,,3,,,,,,,53,0
186,note_on,0,0,0,,,,,3,,,,,,,55,96
186,note_off,0,0,0,,,,,4,,,,,,,41,0
186,note_on,0,0,0,,,,,4,,,,,,,43,96
186,note_off,0,0,0,,,,,6,,,,,,,53,0
186,note_on,0,0,0,,,,,6,,,,,,,55,96
191,note_off,5,0,0,,,,,3,,,,,,,55,0
191,note_off,0,0,0,,,,,4,,,,,,,43,0
191,note_off,0,0,0,,,,,6,,,,,,,55,0
192,note_on,1,0,0,,,,,0,,,,,,,72,96
192,note_on,0,0,0,,,,,1,,,,,,,63,96
192,note_on,0,0,0,,,,,2,,,,,,,55,96
192,note_on,0,0,0,,,,,3,,,,,,,46,96
192,note_on,0,0,0,,,,,4,,,,,,,34,96
192,note_on,0,0,0,,,,,5,,,,,,,72,96
192,note_on,0,0,0,,,,,5,,,,,,,67,96
192,note_on,0,0,0,,,,,5,,,,,,,63,96
192,note_on,0,0,0,,,,,6,,,,,,,46,96
213,note_off,21,0,0,,,,,0,,,,,,,72,0
213,note_off,0,0,0,,,,,1,,,,,,,63,0
213,note_off,0,0,0,,,,,2,,,,,,,55,0
213,note_off,0,0,0,,,,,3,,,,,,,46,0
213,note_off,0,0,0,,,,,4,,,,,,,34,0
213,note_off,0,0,0,,,,,5,,,,,,,72,0
213,note_off,0,0,0,,,,,5,,,,,,,67,0
213,note_off,0,0,0,,,,,5,,,,,,,63,0
213,note_off,0,0,0,,,,,6,,,,,,,46,0
216,note_on,3,0,0,,,,,3,,,,,,,46,96
216,note_on,0,0,0,,,,,4,,,,,,,34,96
216,note_on,0,0,0,,,,,6,,,,,,,46,96
237,note_off,21,0,0,,,,,3,,,,,,,46,0
237,note_off,0,0,0,,,,,4,,,,,,,34,0
237,note_off,0,0,0,,,,,6,,,,,,,46,0
240,note_on,3,0,0,,,,,0,,,,,,,63,96
240,note_on,0,0,0,,,,,1,,,,,,,60,96
240,note_on,0,0,0,,,,,2,,,,,,,57,96
240,note_on,0,0,0,,,,,3,,,,,,,46,96
240,note_on,0,0,0,,,,,4,,,,,,,34,96
240,note_on,0,0,0,,,,,5,,,,,,,63,96
240,note_on,0,0,0,,,,,5,,,,,,,60,96
240,note_on,0,0,0,,,,,6,,,,,,,46,96
261,note_off,21,0,0,,,,,0,,,,,,,63,0
261,note_off,0,0,0,,,,,1,,,,,,,60,0
261,note_off,0,0,0,,,,,2,,,,,,,57,0
261,note_off,0,0,0,,,,,3,,,,,,,46,0
261,note_off,0,0,0,,,,,4,,,,,,,34,0
261,note_off,0,0,0,,,,,5,,,,,,,63,0
261,note_off,0,0,0,,,,,5,,,,,,,60,0
261,note_off,0,0,0,,,,,6,,,,,,,46,0
264,note_on,3,0,0,,,,,3,,,,,,,57,96
264,note_on,0,0,0,,,,,4,,,,,,,45,96
264,note_on,0,0,0,,,,,6,,,,,,,57,96
276,note_off,12,0,0,,,,,3,,,,,,,57,0
276,note_on,0,0,0,,,,,3,,,,,,,58,96
276,note_off,0,0,0,,,,,4,,,,,,,45,0
276,note_on,0,0,0,,,,,4,,,,,,,46,96
276,note_off,0,0,0,,,,,6,,,,,,,57,0
276,note_on,0,0,0,,,,,6,,,,,,,58,96
282,note_off,6,0,0,,,,,3,,,,,,,58,0
282,note_on,0,0,0,,,,,3,,,,,,,60,96
282,note_off,0,0,0,,,,,4,,,,,,,46,0
282,note_on,0,0,0,,,,,4,,,,,,,48,96
282,note_off,0,0,0,,,,,6,,,,,,,58,0
282,note_on,0,0,0,,,,,6,,,,,,,60,96
287,note_off,5,0,0,,,,,3,,,,,,,60,0
287,note_off,0,0,0,,,,,4,,,,,,,48,0
287,note_off,0,0,0,,,,,6,,,,,,,60,0
288,note_on,1,0,0,,,,,0,,,,,,,63,96
288,note_on,0,0,0,,,,,1,,,,,,,60,96
288,note_on,0,0,0,,,,,2,,,,,,,53,96
288,note_on,0,0,0,,,,,3,,,,,,,46,96
288,note_on,0,0,0,,,,,4,,,,,,,34,96
288,note_on,0,0,0,,,,,5,,,,,,,63,96
288,note_on,0,0,0,,,,,5,,,,,,,60,96
288,note_on,0,0,0,,,,,6,,,,,,,46,96
309,note_off,21,0,0,,,,,0,,,,,,,63,0
309,note_off,0,0,0,,,,,1,,,,,,,60,0
309,note_off,0,0,0,,,,,2,,,,,,,53,0
309,note_off,0,0,0,,,,,3,,,,,,,46,0
309,note_off,0,0,0,,,,,4,,,,,,,34,0
309,note_off,0,0,0,,,,,5,,,,,,,63,0
309,note_off,0,0,0,,,,,5,,,,,,,60,0
309,note_off,0,0,0,,,,,6,,,,,,,46,0
312,note_on,3,0,0,,,,,3,,,,,,,46,96
312,note_on,0,0,0,,,,,4,,,,,,,34,96
312,note_on,0,0,0,,,,,6,,,,,,,46,96
333,note_off,21,0,0,,,,,3,,,,,,,46,0
333,note_off,0,0,0,,,,,4,,,,,,,34,0
333,note_off,0,0,0,,,,,6,,,,,,,46,0
336,note_on,3,0,0,,,,,0,,,,,,,62,96
336,note_on,0,0,0,,,,,1,,,,,,,58,96
336,note_on,0,0,0,,,,,2,,,,,,,53,96
336,note_on,0,0,0,,,,,3,,,,,,,46,96
336,note_on,0,0,0,,,,,4,,,,,,,34,96
336,note_on,0,0,0,,,,,5,,,,,,,62,96
336,note_on,0,0,0,,,,,5,,,,,,,58,96
336,note_on,0,0,0,,,,,6,,,,,,,46,96
357,note_off,21,0,0,,,,,0,,,,,,,62,0
357,note_off,0,0,0,,,,,1,,,,,,,58,0
357,note_off,0,0,0,,,,,2,,,,,,,53,0
357,note_off,0,0,0,,,,,3,,,,,,,46,0
357,note_off,0,0,0,,,,,4,,,,,,,34,0
357,note_off,0,0,0,,,,,5,,,,,,,62,0
357,note_off,0,0,0,,,,,5,,,,,,,58,0
357,note_off,0,0,0,,,,,6,,,,,,,46,0
360,note_on,3,0,0,,,,,3,,,,,,,53,96
360,note_on,0,0,0,,,,,4,,,,,,,41,96
360,note_on,0,0,0,,,,,6,,,,,,,53,96
372,note_off,12,0,0,,,,,3,,,,,,,53,0
372,note_on,0,0,0,,,,,3,,,,,,,55,96
372,note_off,0,0,0,,,,,4,,,,,,,41,0
372,note_on,0,0,0,,,,,4,,,,,,,43,96
372,note_off,0,0,0,,,,,6,,,,,,,53,0
372,note_on,0,0,0,,,,,6,,,,,,,55,96
378,note_off,6,0,0,,,,,3,,,,,,,55,0
378,note_on,0,0,0,,,,,3,,,,,,,57,96
378,note_off,0,0,0,,,,,4,,,,,,,43,0
378,note_on,0,0,0,,,,,4,,,,,,,45,96
378,note_off,0,0,0,,,,,6,,,,,,,55,0
378,note_on,0,0,0,,,,,6,,,,,,,57,96
383,note_off,5,0,0,,,,,3,,,,,,,57,0
383,note_off,0,0,0,,,,,4,,,,,,,45,0
383,note_off,0,0,0,,,,,6,,,,,,,57,0
384,note_on,1,0,0,,,,,0,,,,,,,74,96
384,note_on,0,0,0,,,,,1,,,,,,,65,96
384,note_on,0,0,0,,,,,2,,,,,,,58,96
384,note_on,0,0,0,,,,,3,,,,,,,46,96
384,note_on,0,0,0,,,,,4,,,,,,,34,96
384,note_on,0,0,0,,,,,5,,,,,,,74,96
384,note_on,0,0,0,,,,,5,,,,,,,70,96
384,note_on,0,0,0,,,,,5,,,,,,,65,96
384,note_on,0,0,0,,,,,5,,,,,,,62,96
384,note_on,0,0,0,,,,,6,,,,,,,46,96
405,note_off,21,0,0,,,,,0,,,,,,,74,0
405,note_off,0,0,0,,,,,1,,,,,,,65,0
405,note_off,0,0,0,,,,,2,,,,,,,58,0
405,note_off,0,0,0,,,,,3,,,,,,,46,0
405,note_off,0,0,0,,,,,4,,,,,,,34,0
405,note_off,0,0,0,,,,,5,,,,,,,74,0
405,note_off,0,0,0,,,,,5,,,,,,,70,0
405,note_off,0,0,0,,,,,5,,,,,,,65,0
405,note_off,0,0,0,,,,,5,,,,,,,62,0
405,note_off,0,0,0,,,,,6,,,,,,,46,0
408,note_on,3,0,0,,,,,3,,,,,,,46,96
408,note_on,0,0,0,,,,,4,,,,,,,34,96
408,note_on,0,0,0,,,,,6,,,,,,,46,96
429,note_off,21,0,0,,,,,3,,,,,,,46,0
429,note_off,0,0,0,,,,,4,,,,,,,34,0
429,note_off,0,0,0,,,,,6,,,,,,,46,0
432,note_on,3,0,0,,,,,0,,,,,,,67,96
432,note_on,0,0,0,,,,,1,,,,,,,67,96
432,note_on,0,0,0,,,,,2,,,,,,,62,96
432,note_on,0,0,0,,,,,3,,,,,,,46,96
432,note_on,0,0,0,,,,,4,,,,,,,34,96
432,note_on,0,0,0,,,,,5,,,,,,,67,96
432,note_on,0,0,0,,,,,5,,,,,,,62,96
432,note_on,0,0,0,,,,,6,,,,,,,46,96
453,note_off,21,0,0,,,,,0,,,,,,,67,0
453,note_off,0,0,0,,,,,1,,,,,,,67,0
453,note_off,0,0,0,,,,,2,,,,,,,62,0
453,note_off,0,0,0,,,,,3,,,,,,,46,0
453,note_off,0,0,0,,,,,4,,,,,,,34,0
453,note_off,0,0,0,,,,,5,,,,,,,67,0
453,note_off,0,0,0,,,,,5,,,,,,,62,0
453,note_off,0,0,0,,,,,6,,,,,,,46,0
456,note_on,3,0,0,,,,,3,,,,,,,52,96
456,note_on,0,0,0,,,,,4,,,,,,,40,96
456,note_on,0,0,0,,,,,6,,,,,,,52,96
468,note_off,12,0,0,,,,,3,,,,,,,52,0
468,note_on,0,0,0,,,,,3,,,,,,,53,96
468,note_off,0,0,0,,,,,4,,,,,,,40,0
468,note_on,0,0,0,,,,,4,,,,,,,41,96
468,note_off,0,0,0,,,,,6,,,,,,,52,0
468,note_on,0,0,0,,,,,6,,,,,,,53,96
474,note_off,6,0,0,,,,,3,,,,,,,53,0
474,note_on,0,0,0,,,,,3,,,,,,,55,96
474,note_off,0,0,0,,,,,4,,,,,,,41,0
474,note_on,0,0,0,,,,,4,,,,,,,43,96
474,note_off,0,0,0,,,,,6,,,,,,,53,0
474,note_on,0,0,0,,,,,6,,,,,,,55,96
479,note_off,5,0,0,,,,,3,,,,,,,55,0
479,note_off,0,0,0,,,,,4,,,,,,,43,0
479,note_off,0,0,0,,,,,6,,,,,,,55,0
480,note_on,1,0,0,,,,,0,,,,,,,72,96
480,note_on,0,0,0,,,,,1,,,,,,,67,96
480,note_on,0,0,0,,,,,2,,,,,,,60,96
480,note_on,0,0,0,,,,,3,,,,,,,45,96
480,note_on,0,0,0,,,,,4,,,,,,,33,96
480,note_on,0,0,0,,,,,5,,,,,,,72,96
480,note_on,0,0,0,,,,,5,,,,,,,67,96
480,note_on,0,0,0,,,,,5,,,,,,,60,96
480,note_on,0,0,0,,,,,6,,,,,,,45,96
501,note_off,21,0,0,,,,,0,,,,,,,72,0
501,note_off,0,0,0,,,,,1,,,,,,,67,0
501,note_off,0,0,0,,,,,2,,,,,,,60,0
501,note_off,0,0,0,,,,,3,,,,,,,45,0
501,note_off,0,0,0,,,,,4,,,,,,,33,0
501,note_off,0,0,0,,,,,5,,,,,,,72,0
501,note_off,0,0,0,,,,,5,,,,,,,67,0
501,note_off,0,0,0,,,,,5,,,,,,,60,0
501,note_off,0,0,0,,,,,6,,,,,,,45,0
504,note_on,3,0,0,,,,,3,,,,,,,45,96
504,note_on,0,0,0,,,,,4,,,,,,,33,96
504,note_on,0,0,0,,,,,6,,,,,,,45,96
525,note_off,21,0,0,,,,,3,,,,,,,45,0
525,note_off,0,0,0,,,,,4,,,,,,,33,0
525,note_off,0,0,0,,,,,6,,,,,,,45,0
528,note_on,3,0,0,,,,,0,,,,,,,65,96
528,note_on,0,0,0,,,,,1,,,,,,,65,96
528,note_on,0,0,0,,,,,2,,,,,,,60,96
528,note_on,0,0,0,,,,,3,,,,,,,45,96
528,note_on,0,0,0,,,,,4,,,,,,,33,96
528,note_on,0,0,0,,,,,5,,,,,,,65,96
528,note_on,0,0,0,,,,,5,,,,,,,60,96
528,note_on,0,0,0,,,,,6,,,,,,,45,96
549,note_off,21,0,0,,,,,0,,,,,,,65,0
549,note_off,0,0,0,,,,,1,,,,,,,65,0
549,note_off,0,0,0,,,,,2,,,,,,,60,0
549,note_off,0,0,0,,,,,3,,,,,,,45,0
549,note_off,0,0,0,,,,,4,,,,,,,33,0
549,note_off,0,0,0,,,,,5,,,,,,,65,0
549,note_off,0,0,0,,,,,5,,,,,,,60,0
549,note_off,0,0,0,,,,,6,,,,,,,45,0
552,note_on,3,0,0,,,,,3,,,,,,,50,96
552,note_on,0,0,0,,,,,4,,,,,,,38,96
552,note_on,0,0,0,,,,,6,,,,,,,50,96
564,note_off,12,0,0,,,,,3,,,,,,,50,0
564,note_on,0,0,0,,,,,3,,,,,,,52,96
564,note_off,0,0,0,,,,,4,,,,,,,38,0
564,note_on,0,0,0,,,,,4,,,,,,,40,96
564,note_off,0,0,0,,,,,6,,,,,,,50,0
564,note_on,0,0,0,,,,,6,,,,,,,52,96
570,note_off,6,0,0,,,,,3,,,,,,,52,0
570,note_on,0,0,0,,,,,3,,,,,,,53,96
570,note_off,0,0,0,,,,,4,,,,,,,40,0
570,note_on,0,0,0,,,,,4,,,,,,,41,96
570,note_off,0,0,0,,,,,6,,,,,,,52,0
570,note_on,0,0,0,,,,,6,,,,,,,53,96
575,note_off,5,0,0,,,,,3,,,,,,,53,0
575,note_off,0,0,0,,,,,4,,,,,,,41,0
575,note_off,0,0,0,,,,,6,,,,,,,53,0
576,note_on,1,0,0,,,,,0,,,,,,,70,96
576,note_on,0,0,0,,,,,1,,,,,,,65,96
576,note_on,0,0,0,,,,,2,,,,,,,58,96
576,note_on,0,0,0,,,,,3,,,,,,,43,96
576,note_on,0,0,0,,,,,4,,,,,,,31,96
576,note_on,0,0,0,,,,,5,,,,,,,70,96
576,note_on,0,0,0,,,,,5,,,,,,,65,96
576,note_on,0,0,0,,,,,5,,,,,,,62,96
576,note_on,0,0,0,,,,,6,,,,,,,43,96
597,note_off,21,0,0,,,,,0,,,,,,,70,0
597,note_off,0,0,0,,,,,1,,,,,,,65,0
597,note_off,0,0,0,,,,,2,,,,,,,58,0
597,note_off,0,0,0,,,,,3,,,,,,,43,0
597,note_off,0,0,0,,,,,4,,,,,,,31,0
597,note_off,0,0,0,,,,,5,,,,,,,70,0
597,note_off,0,0,0,,,,,5,,,,,,,65,0
597,note_off,0,0,0,,,,,5,,,,,,,62,0
597,note_off,0,0,0,,,,,6,,,,,,,43,0
600,note_on,3,0,0,,,,,3,,,,,,,43,96
600,note_on,0,0,0,,,,,4,,,,,,,31,96
600,note_on,0,0,0,,,,,6,,,,,,,43,96
621,note_off,21,0,0,,,,,3,,,,,,,43,0
621,note_off,0,0,0,,,,,4,,,,,,,31,0
621,note_off,0,0,0,,,,,6,,,,,,,43,0
624,note_on,3,0,0,,,,,0,,,,,,,70,96
624,note_on,0,0,0,,,,,1,,,,,,,64,96
624,note_on,0,0,0,,,,,2,,,,,,,55,96
624,note_on,0,0,0,,,,,3,,,,,,,43,96
624,note_on,0,0,0,,,,,4,,,,,,,31,96
624,note_on,0,0,0,,,,,5,,,,,,,70,96
624,note_on,0,0,0,,,,,5,,,,,,,64,96
624,note_on,0,0,0,,,,,5,,,,,,,60,96
624,note_on,0,0,0,,,,,6,,,,,,,43,96
645,note_off,21,0,0,,,,,0,,,,,,,70,0
645,note_off,0,0,0,,,,,1,,,,,,,64,0
645,note_off,0,0,0,,,,,2,,,,,,,55,0
645,note_off,0,0,0,,,,,3,,,,,,,43,0
645,note_off,0,0,0,,,,,4,,,,,,,31,0
645,note_off,0,0,0,,,,,5,,,,,,,70,0
645,note_off,0,0,0,,,,,5,,,,,,,64,0
645,note_off,0,0,0,,,,,5,,,,,,,60,0
645,note_off,0,0,0,,,,,6,,,,,,,43,0
648,note_on,3,0,0,,,,,3,,,,,,,48,96
648,note_on,0,0,0,,,,,4,,,,,,,36,96
648,note_on,0,0,0,,,,,6,,,,,,,48,96
660,note_off,12,0,0,,,,,3,,,,,,,48,0
660,note_on,0,0,0,,,,,3,,,,,,,50,96
660,note_off,0,0,0,,,,,4,,,,,,,36,0
660,note_on,0,0,0,,,,,4,,,,,,,38,96
660,note_off,0,0,0,,,,,6,,,,,,,48,0
660,note_on,0,0,0,,,,,6,,,,,,,50,96
666,note_off,6,0,0,,,,,3,,,,,,,50,0
666,note_on,0,0,0,,,,,3,,,,,,,52,96
666,note_off,0,0,0,,,,,4,,,,,,,38,0
666,note_on,0,0,0,,,,,4,,,,,,,40,96
666,note_off,0,0,0,,,,,6,,,,,,,50,0
666,note_on,0,0,0,,,,,6,,,,,,,52,96
671,note_off,5,0,0,,,,,3,,,,,,,52,0
671,note_off,0,0,0,,,,,4,,,,,,,40,0
671,note_off,0,0,0,,,,,6,,,,,,,52,0
672,note_on,1,0,0,,,,,0,,,,,,,70,96
672,note_on,0,0,0,,,,,1,,,,,,,65,96
672,note_on,0,0,0,,,,,2,,,,,,,53,96
672,note_on,0,0,0,,,,,3,,,,,,,41,96
672,note_on,0,0,0,,,,,4,,,,,,,29,96
672,note_on,0,0,0,,,,,5,,,,,,,70,96
672,note_on,0,0,0,,,,,5,,,,,,,65,96
672,note_on,0,0,0,,,,,5,,,,,,,60,96
672,note_on,0,0,0,,,,,6,,,,,,,41,96
693,note_off,21,0,0,,,,,1,,,,,,,65,0
693,note_off,0,0,0,,,,,5,,,,,,,70,0
696,note_off,3,0,0,,,,,0,,,,,,,70,0
696,note_on,0,0,0,,,,,0,,,,,,,69,96
696,note_on,0,0,0,,,,,1,,,,,,,60,96
696,note_on,0,0,0,,,,,5,,,,,,,69,96
714,note_off,18,0,0,,,,,2,,,,,,,53,0
714,note_off,0,0,0,,,,,3,,,,,,,41,0
714,note_off,0,0,0,,,,,4,,,,,,,29,0
714,note_off,0,0,0,,,,,5,,,,,,,65,0
714,note_off,0,0,0,,,,,5,,,,,,,60,0
714,note_off,0,0,0,,,,,6,,,,,,,41,0
717,note_off,3,0,0,,,,,0,,,,,,,69,0
717,note_off,0,0,0,,,,,1,,,,,,,60,0
717,note_off,0,0,0,,,,,5,,,,,,,69,0
726,note_on,9,0,0,,,,,5,,,,,,,65,96
731,note_off,5,0,0,,,,,5,,,,,,,65,0
732,note_on,1,0,0,,,,,5,,,,,,,67,96
737,note_off,5,0,0,,,,,5,,,,,,,67,0
738,note_on,1,0,0,,,,,5,,,,,,,69,96
743,note_off,5,0,0,,,,,5,,,,,,,69,0
744,note_on,1,0,0,,,,,5,,,,,,,70,96
749,note_off,5,0,0,,,,,5,,,,,,,70,0
750,note_on,1,0,0,,,,,5,,,,,,,72,96
755,note_off,5,0,0,,,,,5,,,,,,,72,0
756,note_on,1,0,0,,,,,5,,,,,,,74,96
761,note_off,5,0,0,,,,,5,,,,,,,74,0
762,note_on,1,0,0,,,,,5,,,,,,,75,96
767,note_off,5,0,0,,,,,5,,,,,,,75,0
768,note_on,1,0,0,,,,,0,,,,,,,62,80
768,note_on,0,0,0,,,,,1,,,,,,,58,80
768,note_on,0,0,0,,,,,2,,,,,,,58,80
768,note_on,0,0,0,,,,,5,,,,,,,77,96
768,note_on,0,0,0,,,,,6,,,,,,,58,96
789,note_off,21,0,0,,,,,0,,,,,,,62,0
789,note_off,0,0,0,,,,,1,,,,,,,58,0
789,note_off,0,0,0,,,,,2,,,,,,,58,0
789,note_off,0,0,0,,,,,6,,,,,,,58,0
792,note_on,3,0,0,,,,,2,,,,,,,58,80
792,note_on,0,0,0,,,,,6,,,,,,,58,96
813,note_off,21,0,0,,,,,2,,,,,,,58,0
813,note_off,0,0,0,,,,,6,,,,,,,58,0
815,note_off,2,0,0,,,,,5,,,,,,,77,0
816,note_on,1,0,0,,,,,0,,,,,,,65,80
816,note_on,0,0,0,,,,,1,,,,,,,62,80
816,note_on,0,0,0,,,,,2,,,,,,,58,80
816,note_on,0,0,0,,,,,6,,,,,,,58,96
822,note_on,6,0,0,,,,,5,,,,,,,75,96
827,note_off,5,0,0,,,,,5,,,,,,,75,0
828,note_on,1,0,0,,,,,5,,,,,,,74,96
833,note_off,5,0,0,,,,,5,,,,,,,74,0
834,note_on,1,0,0,,,,,5,,,,,,,72,96
837,note_off,3,0,0,,,,,0,,,,,,,65,0
837,note_off,0,0,0,,,,,1,,,,,,,62,0
837,note_off,0,0,0,,,,,2,,,,,,,58,0
837,note_off,0,0,0,,,,,6,,,,,,,58,0
839,note_off,2,0,0,,,,,5,,,,,,,72,0
840,note_on,1,0,0,,,,,2,,,,,,,58,80
840,note_on,0,0,0,,,,,5,,,,,,,70,96
840,note_on,0,0,0,,,,,6,,,,,,,58,96
850,note_off,10,0,0,,,,,5,,,,,,,70,0
852,note_on,2,0,0,,,,,5,,,,,,,69,96
861,note_off,9,0,0,,,,,2,,,,,,,58,0
861,note_off,0,0,0,,,,,6,,,,,,,58,0
862,note_off,1,0,0,,,,,5,,,,,,,69,0
864,note_on,2,0,0,,,,,0,,,,,,,68,80
864,note_on,0,0,0,,,,,1,,,,,,,65,80
864,note_on,0,0,0,,,,,2,,,,,,,58,80
864,note_on,0,0,0,,,,,5,,,,,,,70,96
864,note_on,0,0,0,,,,,6,,,,,,,58,96
874,note_off,10,0,0,,,,,5,,,,,,,70,0
876,note_on,2,0,0,,,,,5,,,,,,,77,96
885,note_off,9,0,0,,,,,0,,,,,,,68,0
885,note_off,0,0,0,,,,,1,,,,,,,65,0
885,note_off,0,0,0,,,,,2,,,,,,,58,0
885,note_off,0,0,0,,,,,6,,,,,,,58,0
888,note_on,3,0,0,,,,,2,,,,,,,58,80
888,note_on,0,0,0,,,,,6,,,,,,,58,96
909,note_off,21,0,0,,,,,2,,,,,,,58,0
909,note_off,0,0,0,,,,,6,,,,,,,58,0
912,note_on,3,0,0,,,,,0,,,,,,,74,80
912,note_on,0,0,0,,,,,1,,,,,,,68,80
912,note_on,0,0,0,,,,,2,,,,,,,58,80
912,note_on,0,0,0,,,,,6,,,,,,,58,96
913,note_off,1,0,0,,,,,5,,,,,,,77,0
918,note_on,5,0,0,,,,,5,,,,,,,75,96
923,note_off,5,0,0,,,,,5,,,,,,,75,0
924,note_on,1,0,0,,,,,5,,,,,,,74,96
929,note_off,5,0,0,,,,,5,,,,,,,74,0
930,note_on,1,0,0,,,,,5,,,,,,,72,96
933,note_off,3,0,0,,,,,0,,,,,,,74,0
933,note_off,0,0,0,,,,,1,,,,,,,68,0
933,note_off,0,0,0,,,,,2,,,,,,,58,0
933,note_off,0,0,0,,,,,6,,,,,,,58,0
935,note_off,2,0,0,,,,,5,,,,,,,72,0
936,note_on,1,0,0,,,,,2,,,,,,,58,80
936,note_on,0,0,0,,,,,5,,,,,,,70,96
936,note_on,0,0,0,,,,,6,,,,,,,58,96
946,note_off,10,0,0,,,,,5,,,,,,,70,0
948,note_on,2,0,0,,,,,5,,,,,,,69,96
957,note_off,9,0,0,,,,,2,,,,,,,58,0
957,note_off,0,0,0,,,,,6,,,,,,,58,0
958,note_off,1,0,0,,,,,5,,,,,,,69,0
960,note_on,2,0,0,,,,,0,,,,,,,75,80
960,note_on,0,0,0,,,,,1,,,,,,,67,80
960,note_on,0,0,0,,,,,2,,,,,,,58,80
960,note_on,0,0,0,,,,,5,,,,,,,70,96
960,note_on,0,0,0,,,,,6,,,,,,,58,96
967,note_off,7,0,0,,,,,5,,,,,,,70,0
968,note_on,1,0,0,,,,,5,,,,,,,80,96
976,note_off,8,0,0,,,,,5,,,,,,,80,0
976,note_on,0,0,0,,,,,5,,,,,,,79,96
981,note_off,5,0,0,,,,,0,,,,,,,75,0
981,note_off,0,0,0,,,,,1,,,,,,,67,0
981,note_off,0,0,0,,,,,2,,,,,,,58,0
981,note_off,0,0,0,,,,,6,,,,,,,58,0
983,note_off,2,0,0,,,,,5,,,,,,,79,0
984,note_on,1,0,0,,,,,0,,,,,,,74,80
984,note_on,0,0,0,,,,,1,,,,,,,70,80
984,note_on,0,0,0,,,,,2,,,,,,,58,80
984,note_on,0,0,0,,,,,5,,,,,,,70,96
984,note_on,0,0,0,,,,,6,,,,,,,58,96
991,note_off,7,0,0,,,,,5,,,,,,,70,0
992,note_on,1,0,0,,,,,5,,,,,,,79,96
1000,note_off,8,0,0,,,,,5,,,,,,,79,0
1000,note_on,0,0,0,,,,,5,,,,,,,77,96
1005,note_off,5,0,0,,,,,0,,,,,,,74,0
1005,note_off,0,0,0,,,,,1,,,,,,,70,0
1005,note_off,0,0,0,,,,,2,,,,,,,58,0
1005,note_off,0,0,0,,,,,6,,,,,,,58,0
1007,note_off,2,0,0,,,,,5,,,,,,,77,0
1008,note_on,1,0,0,,,,,0,,,,,,,72,80
1008,note_on,0,0,0,,,,,1,,,,,,,63,80
1008,note_on,0,0,0,,,,,2,,,,,,,58,80
1008,note_on,0,0,0,,,,,5,,,,,,,69,96
1008,note_on,0,0,0,,,,,6,,,,,,,58,96
1015,note_off,7,0,0,,,,,5,,,,,,,69,0
1016,note_on,1,0,0,,,,,5,,,,,,,77,96
1024,note_off,8,0,0,,,,,5,,,,,,,77,0
1024,note_on,0,0,0,,,,,5,,,,,,,75,96
1029,note_off,5,0,0,,,,,0,,,,,,,72,0
1029,note_off,0,0,0,,,,,1,,,,,,,63,0
1029,note_off,0,0,0,,,,,2,,,,,,,58,0
1029,note_off,0,0,0,,,,,6,,,,,,,58,0
1031,note_off,2,0,0,,,,,5,,,,,,,75,0
1032,note_on,1,0,0,,,,,0,,,,,,,70,80
1032,note_on,0,0,0,,,,,1,,,,,,,65,80
1032,note_on,0,0,0,,,,,2,,,,,,,58,80
1032,note_on,0,0,0,,,,,5,,,,,,,70,96
1032,note_on,0,0,0,,,,,6,,,,,,,58,96
1039,note_off,7,0,0,,,,,5,,,,,,,70,0
1040,note_on,1,0,0,,,,,5,,,,,,,75,96
1048,note_off,8,0,0,,,,,5,,,,,,,75,0
1048,note_on,0,0,0,,,,,5,,,,,,,74,96
1053,note_off,5,0,0,,,,,0,,,,,,,70,0
1053,note_off,0,0,0,,,,,1,,,,,,,65,0
1053,note_off,0,0,0,,,,,2,,,,,,,58,0
1053,note_off,0,0,0,,,,,6,,,,,,,58,0
1055,note_off,2,0,0,,,,,5,,,,,,,74,0
1056,note_on,1,0,0,,,,,0,,,,,,,70,80
1056,note_on,0,0,0,,,,,1,,,,,,,65,80
1056,note_on,0,0,0,,,,,2,,,,,,,53,80
1056,note_on,0,0,0,,,,,5,,,,,,,72,96
1056,note_on,0,0,0,,,,,6,,,,,,,53,96
1064,note_off,8,0,0,,,,,5,,,,,,,72,0
1064,note_on,0,0,0,,,,,5,,,,,,,76,96
1072,note_off,8,0,0,,,,,5,,,,,,,76,0
1072,note_on,0,0,0,,,,,5,,,,,,,77,96
1077,note_off,5,0,0,,,,,1,,,,,,,65,0
1077,note_off,0,0,0,,,,,2,,,,,,,53,0
1079,note_off,2,0,0,,,,,5,,,,,,,77,0
1080,note_off,1,0,0,,,,,0,,,,,,,70,0
1080,note_on,0,0,0,,,,,0,,,,,,,69,80
1080,note_on,0,0,0,,,,,1,,,,,,,60,80
1080,note_on,0,0,0,,,,,2,,,,,,,65,80
1080,note_on,0,0,0,,,,,5,,,,,,,65,96
1087,note_off,7,0,0,,,,,6,,,,,,,53,0
1090,note_off,3,0,0,,,,,2,,,,,,,65,0
1092,note_on,2,0,0,,,,,2,,,,,,,67,80
1092,note_on,0,0,0,,,,,6,,,,,,,55,96
1101,note_off,9,0,0,,,,,0,,,,,,,69,0
1101,note_off,0,0,0,,,,,1,,,,,,,60,0
1101,note_off,0,0,0,,,,,5,,,,,,,65,0
1102,note_off,1,0,0,,,,,2,,,,,,,67,0
1102,note_off,0,0,0,,,,,6,,,,,,,55,0
1104,note_on,2,0,0,,,,,0,,,,,,,60,80
1104,note_on,0,0,0,,,,,1,,,,,,,57,80
1104,note_on,0,0,0,,,,,2,,,,,,,65,80
1104,note_on,0,0,0,,,,,6,,,,,,,53,96
1114,note_off,10,0,0,,,,,2,,,,,,,65,0
1114,note_off,0,0,0,,,,,6,,,,,,,53,0
1116,note_on,2,0,0,,,,,2,,,,,,,63,80
1116,note_on,0,0,0,,,,,6,,,,,,,51,96
1125,note_off,9,0,0,,,,,0,,,,,,,60,0
1125,note_off,0,0,0,,,,,1,,,,,,,57,0
1126,note_off,1,0,0,,,,,2,,,,,,,63,0
1126,note_off,0,0,0,,,,,6,,,,,,,51,0
1128,note_on,2,0,0,,,,,0,,,,,,,72,80
1128,note_on,0,0,0,,,,,1,,,,,,,69,80
1128,note_on,0,0,0,,,,,2,,,,,,,62,80
1128,note_on,0,0,0,,,,,6,,,,,,,50,96
1138,note_off,10,0,0,,,,,2,,,,,,,62,0
1138,note_off,0,0,0,,,,,6,,,,,,,50,0
1140,note_off,2,0,0,,,,,0,,,,,,,72,0
1140,note_on,0,0,0,,,,,0,,,,,,,74,80
1140,note_off,0,0,0,,,,,1,,,,,,,69,0
1140,note_on,0,0,0,,,,,1,,,,,,,70,80
1140,note_on,0,0,0,,,,,2,,,,,,,60,80
1140,note_on,0,0,0,,,,,6,,,,,,,48,96
1146,note_off,6,0,0,,,,,0,,,,,,,74,0
1146,note_on,0,0,0,,,,,0,,,,,,,75,80
1146,note_off,0,0,0,,,,,1,,,,,,,70,0
1146,note_on,0,0,0,,,,,1,,,,,,,72,80
1150,note_off,4,0,0,,,,,2,,,,,,,60,0
1150,note_off,0,0,0,,,,,6,,,,,,,48,0
1151,note_off,1,0,0,,,,,0,,,,,,,75,0
1151,note_off,0,0,0,,,,,1,,,,,,,72,0
1152,note_on,1,0,0,,,,,0,,,,,,,65,96
1152,note_on,0,0,0,,,,,1,,,,,,,62,96
1152,note_on,0,0,0,,,,,2,,,,,,,58,96
1152,note_on,0,0,0,,,,,3,,,,,,,46,96
1152,note_on,0,0,0,,,,,4,,,,,,,34,96
1152,note_on,0,0,0,,,,,5,,,,,,,65,96
1152,note_on,0,0,0,,,,,5,,,,,,,62,96
1152,note_on,0,0,0,,,,,5,,,,,,,58,96
1152,note_on,0,0,0,,,,,6,,,,,,,46,96
1173,note_off,21,0,0,,,,,0,,,,,,,65,0
1173,note_off,0,0,0,,,,,1,,,,,,,62,0
1173,note_off,0,0,0,,,,,2,,,,,,,58,0
1173,note_off,0,0,0,,,,,3,,,,,,,46,0
1173,note_off,0,0,0,,,,,4,,,,,,,34,0
1173,note_off,0,0,0,,,,,5,,,,,,,65,0
1173,note_off,0,0,0,,,,,5,,,,,,,62,0
1173,note_off,0,0,0,,,,,5,,,,,,,58,0
1173,note_off,0,0,0,,,,,6,,,,,,,46,0
1176,note_on,3,0,0,,,,,3,,,,,,,46,96
1176,note_on,0,0,0,,,,,4,,,,,,,34,96
1176,note_on,0,0,0,,,,,6,,,,,,,46,96
1197,note_off,21,0,0,,,,,3,,,,,,,46,0
1197,note_off,0,0,0,,,,,4,,,,,,,34,0
1197,note_off,0,0,0,,,,,6,,,,,,,46,0
1200,note_on,3,0,0,,,,,0,,,,,,,68,96
1200,note_on,0,0,0,,,,,1,,,,,,,62,96
1200,note_on,0,0,0,,,,,2,,,,,,,53,96
1200,note_on,0,0,0,,,,,3,,,,,,,46,96
1200,note_on,0,0,0,,,,,4,,,,,,,34,96
1200,note_on,0,0,0,,,,,5,,,,,,,68,96
1200,note_on,0,0,0,,,,,5,,,,,,,65,96
1200,note_on,0,0,0,,,,,5,,,,,,,62,96
1200,note_on,0,0,0,,,,,5,,,,,,,58,96
1200,note_on,0,0,0,,,,,6,,,,,,,46,96
1221,note_off,21,0,0,,,,,0,,,,,,,68,0
1221,note_off,0,0,0,,,,,1,,,,,,,62,0
1221,note_off,0,0,0,,,,,2,,,,,,,53,0
1221,note_off,0,0,0,,,,,3,,,,,,,46,0
1221,note_off,0,0,0,,,,,4,,,,,,,34,0
1221,note_off,0,0,0,,,,,5,,,,,,,68,0
1221,note_off,0,0,0,,,,,5,,,,,,,65,0
1221,note_off,0,0,0,,,,,5,,,,,,,62,0
1221,note_off,0,0,0,,,,,5,,,,,,,58,0
1221,note_off,0,0,0,,,,,6,,,,,,,46,0
1224,note_on,3,0,0,,,,,3,,,,,,,50,96
1224,note_on,0,0,0,,,,,4,,,,,,,38,96
1224,note_on,0,0,0,,,,,6,,,,,,,50,96
1236,note_off,12,0,0,,,,,3,,,,,,,50,0
1236,note_on,0,0,0,,,,,3,,,,,,,51,96
1236,note_off,0,0,0,,,,,4,,,,,,,38,0
1236,note_on,0,0,0,,,,,4,,,,,,,39,96
1236,note_off,0,0,0,,,,,6,,,,,,,50,0
1236,note_on,0,0,0,,,,,6,,,,,,,51,96
1242,note_off,6,0,0,,,,,3,,,,,,,51,0
1242,note_on,0,0,0,,,,,3,,,,,,,53,96
1242,note_off,0,0,0,,,,,4,,,,,,,39,0
1242,note_on,0,0,0,,,,,4,,,,,,,41,96
1242,note_off,0,0,0,,,,,6,,,,,,,51,0
1242,note_on,0,0,0,,,,,6,,,,,,,53,96
1247,note_off,5,0,0,,,,,3,,,,,,,53,0
1247,note_off,0,0,0,,,,,4,,,,,,,41,0
1247,note_off,0,0,0,,,,,6,,,,,,,53,0
1248,note_on,1,0,0,,,,,0,,,,,,,68,96
1248,note_on,0,0,0,,,,,1,,,,,,,63,96
1248,note_on,0,0,0,,,,,2,,,,,,,58,96
1248,note_on,0,0,0,,,,,3,,,,,,,46,96
1248,note_on,0,0,0,,,,,4,,,,,,,34,96
1248,note_on,0,0,0,,,,,5,,,,,,,68,96
1248,note_on,0,0,0,,,,,5,,,,,,,63,96
1248,note_on,0,0,0,,,,,5,,,,,,,58,96
1248,note_on,0,0,0,,,,,6,,,,,,,46,96
1269,note_off,21,0,0,,,,,0,,,,,,,68,0
1269,note_off,0,0,0,,,,,1,,,,,,,63,0
1269,note_off,0,0,0,,,,,2,,,,,,,58,0
1269,note_off,0,0,0,,,,,3,,,,,,,46,0
1269,note_off,0,0,0,,,,,4,,,,,,,34,0
1269,note_off,0,0,0,,,,,5,,,,,,,68,0
1269,note_off,0,0,0,,,,,5,,,,,,,63,0
1269,note_off,0,0,0,,,,,5,,,,,,,58,0
1269,note_off,0,0,0,,,,,6,,,,,,,46,0
1272,note_on,3,0,0,,,,,3,,,,,,,46,96
1272,note_on,0,0,0,,,,,4,,,,,,,34,96
1272,note_on,0,0,0,,,,,6,,,,,,,46,96
1293,note_off,21,0,0,,,,,3,,,,,,,46,0
1293,note_off,0,0,0,,,,,4,,,,,,,34,0
1293,note_off,0,0,0,,,,,6,,,,,,,46,0
1296,note_on,3,0,0,,,,,0,,,,,,,67,96
1296,note_on,0,0,0,,,,,1,,,,,,,63,96
1296,note_on,0,0,0,,,,,2,,,,,,,58,96
1296,note_on,0,0,0,,,,,3,,,,,,,46,96
1296,note_on,0,0,0,,,,,4,,,,,,,34,96
1296,note_on,0,0,0,,,,,5,,,,,,,67,96
1296,note_on,0,0,0,,,,,5,,,,,,,63,96
1296,note_on,0,0,0,,,,,5,,,,,,,58,96
1296,note_on,0,0,0,,,,,6,,,,,,,46,96
1317,note_off,21,0,0,,,,,0,,,,,,,67,0
1317,note_off,0,0,0,,,,,1,,,,,,,63,0
1317,note_off,0,0,0,,,,,2,,,,,,,58,0
1317,note_off,0,0,0,,,,,3,,,,,,,46,0
1317,note_off,0,0,0,,,,,4,,,,,,,34,0
1317,note_off,0,0,0,,,,,5,,,,,,,67,0
1317,note_off,0,0,0,,,,,5,,,,,,,63,0
1317,note_off,0,0,0,,,,,5,,,,,,,58,0
1317,note_off,0,0,0,,,,,6,,,,,,,46,0
1320,note_on,3,0,0,,,,,3,,,,,,,51,96
1320,note_on,0,0,0,,,,,4,,,,,,,39,96
1320,note_on,0,0,0,,,,,6,,,,,,,51,96
1332,note_off,12,0,0,,,,,3,,,,,,,51,0
1332,note_on,0,0,0,,,,,3,,,,,,,53,96
1332,note_off,0,0,0,,,,,4,,,,,,,39,0
1332,note_on,0,0,0,,,,,4,,,,,,,41,96
1332,note_off,0,0,0,,,,,6,,,,,,,51,0
1332,note_on,0,0,0,,,,,6,,,,,,,53,96
1338,note_off,6,0,0,,,,,3,,,,,,,53,0
1338,note_on,0,0,0,,,,,3,,,,,,,55,96
1338,note_off,0,0,0,,,,,4,,,,,,,41,0
1338,note_on,0,0,0,,,,,4,,,,,,,43,96
1338,note_off,0,0,0,,,,,6,,,,,,,53,0
1338,note_on,0,0,0,,,,,6,,,,,,,55,96
1343,note_off,5,0,0,,,,,3,,,,,,,55,0
1343,note_off,0,0,0,,,,,4,,,,,,,43,0
1343,note_off,0,0,0,,,,,6,,,,,,,55,0
1344,note_on,1,0,0,,,,,0,,,,,,,72,96
1344,note_on,0,0,0,,,,,1,,,,,,,63,96
1344,note_on,0,0,0,,,,,2,,,,,,,55,96
1344,note_on,0,0,0,,,,,3,,,,,,,46,96
1344,note_on,0,0,0,,,,,4,,,,,,,34,96
1344,note_on,0,0,0,,,,,5,,,,,,,72,96
1344,note_on,0,0,0,,,,,5,,,,,,,67,96
1344,note_on,0,0,0,,,,,5,,,,,,,63,96
1344,note_on,0,0,0,,,,,6,,,,,,,46,96
1365,note_off,21,0,0,,,,,0,,,,,,,72,0
1365,note_off,0,0,0,,,,,1,,,,,,,63,0
1365,note_off,0,0,0,,,,,2,,,,,,,55,0
1365,note_off,0,0,0,,,,,3,,,,,,,46,0
1365,note_off,0,0,0,,,,,4,,,,,,,34,0
1365,note_off,0,0,0,,,,,5,,,,,,,72,0
1365,note_off,0,0,0,,,,,5,,,,,,,67,0
1365,note_off,0,0,0,,,,,5,,,,,,,63,0
1365,note_off,0,0,0,,,,,6,,,,,,,46,0
1368,note_on,3,0,0,,,,,3,,,,,,,46,96
1368,note_on,0,0,0,,,,,4,,,,,,,34,96
1368,note_on,0,0,0,,,,,6,,,,,,,46,96
1389,note_off,21,0,0,,,,,3,,,,,,,46,0
1389,note_off,0,0,0,,,,,4,,,,,,,34,0
1389,note_off,0,0,0,,,,,6,,,,,,,46,0
1392,note_on,3,0,0,,,,,0,,,,,,,63,96
1392,note_on,0,0,0,,,,,1,,,,,,,60,96
1392,note_on,0,0,0,,,,,2,,,,,,,57,96
1392,note_on,0,0,0,,,,,3,,,,,,,46,96
1392,note_on,0,0,0,,,,,4,,,,,,,34,96
1392,note_on,0,0,0,,,,,5,,,,,,,63,96
1392,note_on,0,0,0,,,,,5,,,,,,,60,96
1392,note_on,0,0,0,,,,,6,,,,,,,46,96
1413,note_off,21,0,0,,,,,0,,,,,,,63,0
1413,note_off,0,0,0,,,,,1,,,,,,,60,0
1413,note_off,0,0,0,,,,,2,,,,,,,57,0
1413,note_off,0,0,0,,,,,3,,,,,,,46,0
1413,note_off,0,0,0,,,,,4,,,,,,,34,0
1413,note_off,0,0,0,,,,,5,,,,,,,63,0
1413,note_off,0,0,0,,,,,5,,,,,,,60,0
1413,note_off,0,0,0,,,,,6,,,,,,,46,0
1416,note_on,3,0,0,,,,,3,,,,,,,57,96
1416,note_on,0,0,0,,,,,4,,,,,,,45,96
1416,note_on,0,0,0,,,,,6,,,,,,,57,96
1428,note_off,12,0,0,,,,,3,,,,,,,57,0
1428,note_on,0,0,0,,,,,3,,,,,,,58,96
1428,note_off,0,0,0,,,,,4,,,,,,,45,0
1428,note_on,0,0,0,,,,,4,,,,,,,46,96
1428,note_off,0,0,0,,,,,6,,,,,,,57,0
1428,note_on,0,0,0,,,,,6,,,,,,,58,96
1434,note_off,6,0,0,,,,,3,,,,,,,58,0
1434,note_on,0,0,0,,,,,3,,,,,,,60,96
1434,note_off,0,0,0,,,,,4,,,,,,,46,0
1434,note_on,0,0,0,,,,,4,,,,,,,48,96
1434,note_off,0,0,0,,,,,6,,,,,,,58,0
1434,note_on,0,0,0,,,,,6,,,,,,,60,96
1439,note_off,5,0,0,,,,,3,,,,,,,60,0
1439,note_off,0,0,0,,,,,4,,,,,,,48,0
1439,note_off,0,0,0,,,,,6,,,,,,,60,0
1440,note_on,1,0,0,,,,,0,,,,,,,63,96
1440,note_on,0,0,0,,,,,1,,,,,,,60,96
1440,note_on,0,0,0,,,,,2,,,,,,,53,96
1440,note_on,0,0,0,,,,,3,,,,,,,46,96
1440,note_on,0,0,0,,,,,4,,,,,,,34,96
1440,note_on,0,0,0,,,,,5,,,,,,,63,96
1440,note_on,0,0,0,,,,,5,,,,,,,60,96
1440,note_on,0,0,0,,,,,6,,,,,,,46,96
1461,note_off,21,0,0,,,,,0,,,,,,,63,0
1461,note_off,0,0,0,,,,,1,,,,,,,60,0
1461,note_off,0,0,0,,,,,2,,,,,,,53,0
1461,note_off,0,0,0,,,,,3,,,,,,,46,0
1461,note_off,0,0,0,,,,,4,,,,,,,34,0
1461,note_off,0,0,0,,,,,5,,,,,,,63,0
1461,note_off,0,0,0,,,,,5,,,,,,,60,0
1461,note_off,0,0,0,,,,,6,,,,,,,46,0
1464,note_on,3,0,0,,,,,3,,,,,,,46,96
1464,note_on,0,0,0,,,,,4,,,,,,,34,96
1464,note_on,0,0,0,,,,,6,,,,,,,46,96
1485,note_off,21,0,0,,,,,3,,,,,,,46,0
1485,note_off,0,0,0,,,,,4,,,,,,,34,0
1485,note_off,0,0,0,,,,,6,,,,,,,46,0
1488,note_on,3,0,0,,,,,0,,,,,,,62,96
1488,note_on,0,0,0,,,,,1,,,,,,,58,96
1488,note_on,0,0,0,,,,,2,,,,,,,53,96
1488,note_on,0,0,0,,,,,3,,,,,,,46,96
1488,note_on,0,0,0,,,,,4,,,,,,,34,96
1488,note_on,0,0,0,,,,,5,,,,,,,62,96
1488,note_on,0,0,0,,,,,5,,,,,,,58,96
1488,note_on,0,0,0,,,,,6,,,,,,,46,96
1509,note_off,21,0,0,,,,,0,,,,,,,62,0
1509,note_off,0,0,0,,,,,1,,,,,,,58,0
1509,note_off,0,0,0,,,,,2,,,,,,,53,0
1509,note_off,0,0,0,,,,,3,,,,,,,46,0
1509,note_off,0,0,0,,,,,4,,,,,,,34,0
1509,note_off,0,0,0,,,,,5,,,,,,,62,0
1509,note_off,0,0,0,,,,,5,,,,,,,58,0
1509,note_off,0,0,0,,,,,6,,,,,,,46,0
1512,note_on,3,0,0,,,,,3,,,,,,,53,96
1512,note_on,0,0,0,,,,,4,,,,,,,41,96
1512,note_on,0,0,0,,,,,6,,,,,,,53,96
1524,note_off,12,0,0,,,,,3,,,,,,,53,0
1524,note_on,0,0,0,,,,,3,,,,,,,55,96
1524,note_off,0,0,0,,,,,4,,,,,,,41,0
1524,note_on,0,0,0,,,,,4,,,,,,,43,96
1524,note_off,0,0,0,,,,,6,,,,,,,53,0
1524,note_on,0,0,0,,,,,6,,,,,,,55,96
1530,note_off,6,0,0,,,,,3,,,,,,,55,0
1530,note_on,0,0,0,,,,,3,,,,,,,57,96
1530,note_off,0,0,0,,,,,4,,,,,,,43,0
1530,note_on,0,0,0,,,,,4,,,,,,,45,96
1530,note_off,0,0,0,,,,,6,,,,,,,55,0
1530,note_on,0,0,0,,,,,6,,,,,,,57,96
1535,note_off,5,0,0,,,,,3,,,,,,,57,0
1535,note_off,0,0,0,,,,,4,,,,,,,45,0
1535,note_off,0,0,0,,,,,6,,,,,,,57,0
1536,note_on,1,0,0,,,,,0,,,,,,,74,80
1536,note_on,0,0,0,,,,,1,,,,,,,65,80
1536,note_on,0,0,0,,,,,2,,,,,,,58,80
1536,note_on,0,0,0,,,,,3,,,,,,,46,80
1536,note_on,0,0,0,,,,,4,,,,,,,34,80
1536,note_on,0,0,0,,,,,5,,,,,,,74,96
1536,note_on,0,0,0,,,,,6,,,,,,,46,96
1557,note_off,21,0,0,,,,,0,,,,,,,74,0
1557,note_off,0,0,0,,,,,1,,,,,,,65,0
1557,note_off,0,0,0,,,,,2,,,,,,,58,0
1557,note_off,0,0,0,,,,,3,,,,,,,46,0
1557,note_off,0,0,0,,,,,4,,,,,,,34,0
1557,note_off,0,0,0,,,,,6,,,,,,,46,0
1560,note_on,3,0,0,,,,,2,,,,,,,58,80
1560,note_on,0,0,0,,,,,6,,,,,,,58,96
1581,note_off,21,0,0,,,,,2,,,,,,,58,0
1581,note_off,0,0,0,,,,,6,,,,,,,58,0
1584,note_on,3,0,0,,,,,0,,,,,,,79,80
1584,note_on,0,0,0,,,,,1,,,,,,,70,80
1584,note_on,0,0,0,,,,,2,,,,,,,58,80
1584,note_on,0,0,0,,,,,6,,,,,,,58,96
1585,note_off,1,0,0,,,,,5,,,,,,,74,0
1592,note_on,7,0,0,,,,,5,,,,,,,70,96
1599,note_off,7,0,0,,,,,5,,,,,,,70,0
1600,note_on,1,0,0,,,,,5,,,,,,,69,96
1605,note_off,5,0,0,,,,,0,,,,,,,79,0
1605,note_off,0,0,0,,,,,1,,,,,,,70,0
1605,note_off,0,0,0,,,,,2,,,,,,,58,0
1605,note_off,0,0,0,,,,,6,,,,,,,58,0
1607,note_off,2,0,0,,,,,5,,,,,,,69,0
1608,note_on,1,0,0,,,,,2,,,,,,,58,80
1608,note_on,0,0,0,,,,,5,,,,,,,70,96
1608,note_on,0,0,0,,,,,6,,,,,,,58,96
1615,note_off,7,0,0,,,,,5,,,,,,,70,0
1616,note_on,1,0,0,,,,,5,,,,,,,74,96
1623,note_off,7,0,0,,,,,5,,,,,,,74,0
1624,note_on,1,0,0,,,,,5,,,,,,,79,96
1629,note_off,5,0,0,,,,,2,,,,,,,58,0
1629,note_off,0,0,0,,,,,6,,,,,,,58,0
1631,note_off,2,0,0,,,,,5,,,,,,,79,0
1632,note_on,1,0,0,,,,,0,,,,,,,72,80
1632,note_on,0,0,0,,,,,1,,,,,,,64,80
1632,note_on,0,0,0,,,,,2,,,,,,,57,80
1632,note_on,0,0,0,,,,,5,,,,,,,79,96
1632,note_on,0,0,0,,,,,6,,,,,,,57,96
1653,note_off,21,0,0,,,,,0,,,,,,,72,0
1653,note_off,0,0,0,,,,,1,,,,,,,64,0
1653,note_off,0,0,0,,,,,2,,,,,,,57,0
1653,note_off,0,0,0,,,,,5,,,,,,,79,0
1653,note_off,0,0,0,,,,,6,,,,,,,57,0
1656,note_on,3,0,0,,,,,2,,,,,,,57,80
1656,note_on,0,0,0,,,,,5,,,,,,,74,96
1656,note_on,0,0,0,,,,,6,,,,,,,57,96
1659,note_off,3,0,0,,,,,5,,,,,,,74,0
1659,note_on,0,0,0,,,,,5,,,,,,,72,96
1662,note_off,3,0,0,,,,,5,,,,,,,72,0
1662,note_on,0,0,0,,,,,5,,,,,,,74,96
1665,note_off,3,0,0,,,,,5,,,,,,,74,0
1665,note_on,0,0,0,,,,,5,,,,,,,72,96
1668,note_off,3,0,0,,,,,5,,,,,,,72,0
1668,note_on,0,0,0,,,,,5,,,,,,,74,96
1671,note_off,3,0,0,,,,,5,,,,,,,74,0
1671,note_on,0,0,0,,,,,5,,,,,,,72,96
1674,note_off,3,0,0,,,,,5,,,,,,,72,0
1674,note_on,0,0,0,,,,,5,,,,,,,74,96
1677,note_off,3,0,0,,,,,2,,,,,,,57,0
1677,note_off,0,0,0,,,,,5,,,,,,,74,0
1677,note_on,0,0,0,,,,,5,,,,,,,72,96
1677,note_off,0,0,0,,,,,6,,,,,,,57,0
1680,note_on,3,0,0,,,,,0,,,,,,,77,80
1680,note_on,0,0,0,,,,,1,,,,,,,69,80
1680,note_on,0,0,0,,,,,2,,,,,,,57,80
1680,note_on,0,0,0,,,,,6,,,,,,,57,96
1687,note_off,7,0,0,,,,,5,,,,,,,72,0
1688,note_on,1,0,0,,,,,5,,,,,,,69,96
1695,note_off,7,0,0,,,,,5,,,,,,,69,0
1696,note_on,1,0,0,,,,,5,,,,,,,67,96
1701,note_off,5,0,0,,,,,0,,,,,,,77,0
1701,note_off,0,0,0,,,,,1,,,,,,,69,0
1701,note_off,0,0,0,,,,,2,,,,,,,57,0
1701,note_off,0,0,0,,,,,6,,,,,,,57,0
1703,note_off,2,0,0,,,,,5,,,,,,,67,0
1704,note_on,1,0,0,,,,,2,,,,,,,57,80
1704,note_on,0,0,0,,,,,5,,,,,,,69,96
1704,note_on,0,0,0,,,,,6,,,,,,,57,96
1711,note_off,7,0,0,,,,,5,,,,,,,69,0
1712,note_on,1,0,0,,,,,5,,,,,,,72,96
1719,note_off,7,0,0,,,,,5,,,,,,,72,0
1720,note_on,1,0,0,,,,,5,,,,,,,77,96
1725,note_off,5,0,0,,,,,2,,,,,,,57,0
1725,note_off,0,0,0,,,,,6,,,,,,,57,0
1727,note_off,2,0,0,,,,,5,,,,,,,77,0
1728,note_on,1,0,0,,,,,0,,,,,,,70,80
1728,note_on,0,0,0,,,,,1,,,,,,,62,80
1728,note_on,0,0,0,,,,,2,,,,,,,55,80
1728,note_on,0,0,0,,,,,5,,,,,,,77,96
1728,note_on,0,0,0,,,,,6,,,,,,,55,96
1735,note_off,7,0,0,,,,,5,,,,,,,77,0
1736,note_on,1,0,0,,,,,5,,,,,,,76,96
1743,note_off,7,0,0,,,,,5,,,,,,,76,0
1744,note_on,1,0,0,,,,,5,,,,,,,74,96
1749,note_off,5,0,0,,,,,0,,,,,,,70,0
1749,note_off,0,0,0,,,,,1,,,,,,,62,0
1749,note_off,0,0,0,,,,,2,,,,,,,55,0
1749,note_off,0,0,0,,,,,6,,,,,,,55,0
1751,note_off,2,0,0,,,,,5,,,,,,,74,0
1752,note_on,1,0,0,,,,,2,,,,,,,55,80
1752,note_on,0,0,0,,,,,5,,,,,,,76,96
1752,note_on,0,0,0,,,,,6,,,,,,,55,96
1759,note_off,7,0,0,,,,,5,,,,,,,76,0
1760,note_on,1,0,0,,,,,5,,,,,,,79,96
1767,note_off,7,0,0,,,,,5,,,,,,,79,0
1768,note_on,1,0,0,,,,,5,,,,,,,82,96
1773,note_off,5,0,0,,,,,2,,,,,,,55,0
1773,note_off,0,0,0,,,,,6,,,,,,,55,0
1775,note_off,2,0,0,,,,,5,,,,,,,82,0
1776,note_on,1,0,0,,,,,0,,,,,,,74,80
1776,note_on,0,0,0,,,,,1,,,,,,,65,80
1776,note_on,0,0,0,,,,,2,,,,,,,53,80
1776,note_on,0,0,0,,,,,5,,,,,,,82,96
1776,note_on,0,0,0,,,,,6,,,,,,,53,96
1783,note_off,7,0,0,,,,,5,,,,,,,82,0
1784,note_on,1,0,0,,,,,5,,,,,,,81,96
1791,note_off,7,0,0,,,,,5,,,,,,,81,0
1792,note_on,1,0,0,,,,,5,,,,,,,79,96
1797,note_off,5,0,0,,,,,0,,,,,,,74,0
1797,note_off,0,0,0,,,,,1,,,,,,,65,0
1797,note_off,0,0,0,,,,,2,,,,,,,53,0
1797,note_off,0,0,0,,,,,6,,,,,,,53,0
1799,note_off,2,0,0,,,,,5,,,,,,,79,0
1800,note_on,1,0,0,,,,,2,,,,,,,53,80
1800,note_on,0,0,0,,,,,5,,,,,,,77,96
1800,note_on,0,0,0,,,,,6,,,,,,,53,96
1807,note_off,7,0,0,,,,,5,,,,,,,77,0
1808,note_on,1,0,0,,,,,5,,,,,,,76,96
1815,note_off,7,0,0,,,,,5,,,,,,,76,0
1816,note_on,1,0,0,,,,,5,,,,,,,74,96
1821,note_off,5,0,0,,,,,2,,,,,,,53,0
1821,note_off,0,0,0,,,,,6,,,,,,,53,0
1823,note_off,2,0,0,,,,,5,,,,,,,74,0
1824,note_on,1,0,0,,,,,0,,,,,,,79,80
1824,note_on,0,0,0,,,,,1,,,,,,,70,80
1824,note_on,0,0,0,,,,,2,,,,,,,52,80
1824,note_on,0,0,0,,,,,5,,,,,,,72,96
1824,note_on,0,0,0,,,,,6,,,,,,,52,96
1845,note_off,21,0,0,,,,,0,,,,,,,79,0
1845,note_off,0,0,0,,,,,1,,,,,,,70,0
1845,note_off,0,0,0,,,,,2,,,,,,,52,0
1845,note_off,0,0,0,,,,,6,,,,,,,52,0
1848,note_on,3,0,0,,,,,2,,,,,,,52,80
1848,note_on,0,0,0,,,,,6,,,,,,,52,96
1869,note_off,21,0,0,,,,,2,,,,,,,52,0
1869,note_off,0,0,0,,,,,6,,,,,,,52,0
1872,note_on,3,0,0,,,,,0,,,,,,,76,80
1872,note_on,0,0,0,,,,,1,,,,,,,70,80
1872,note_on,0,0,0,,,,,2,,,,,,,48,80
1872,note_on,0,0,0,,,,,6,,,,,,,48,96
1873,note_off,1,0,0,,,,,5,,,,,,,72,0
1880,note_on,7,0,0,,,,,5,,,,,,,76,96
1887,note_off,7,0,0,,,,,5,,,,,,,76,0
1888,note_on,1,0,0,,,,,5,,,,,,,79,96
1893,note_off,5,0,0,,,,,0,,,,,,,76,0
1893,note_off,0,0,0,,,,,1,,,,,,,70,0
1893,note_off,0,0,0,,,,,2,,,,,,,48,0
1893,note_off,0,0,0,,,,,6,,,,,,,48,0
1895,note_off,2,0,0,,,,,5,,,,,,,79,0
1896,note_on,1,0,0,,,,,2,,,,,,,48,80
1896,note_on,0,0,0,,,,,5,,,,,,,82,96
1896,note_on,0,0,0,,,,,6,,,,,,,48,96
1903,note_off,7,0,0,,,,,5,,,,,,,82,0
1904,note_on,1,0,0,,,,,5,,,,,,,81,96
1911,note_off,7,0,0,,,,,5,,,,,,,81,0
1912,note_on,1,0,0,,,,,5,,,,,,,79,96
1917,note_off,5,0,0,,,,,2,,,,,,,48,0
1917,note_off,0,0,0,,,,,6,,,,,,,48,0
1919,note_off,2,0,0,,,,,5,,,,,,,79,0
1920,note_on,1,0,0,,,,,0,,,,,,,72,80
1920,note_on,0,0,0,,,,,1,,,,,,,69,80
1920,note_on,0,0,0,,,,,2,,,,,,,53,80
1920,note_on,0,0,0,,,,,3,,,,,,,41,80
1920,note_on,0,0,0,,,,,4,,,,,,,29,80
1920,note_on,0,0,0,,,,,5,,,,,,,81,96
1920,note_on,0,0,0,,,,,6,,,,,,,41,96
1927,note_off,7,0,0,,,,,5,,,,,,,81,0
1928,note_on,1,0,0,,,,,5,,,,,,,84,96
1935,note_off,7,0,0,,,,,5,,,,,,,84,0
1936,note_on,1,0,0,,,,,5,,,,,,,82,96
1941,note_off,5,0,0,,,,,0,,,,,,,72,0
1941,note_off,0,0,0,,,,,1,,,,,,,69,0
1941,note_off,0,0,0,,,,,2,,,,,,,53,0
1941,note_off,0,0,0,,,,,3,,,,,,,41,0
1941,note_off,0,0,0,,,,,4,,,,,,,29,0
1941,note_off,0,0,0,,,,,6,,,,,,,41,0
1943,note_off,2,0,0,,,,,5,,,,,,,82,0
1944,note_on,1,0,0,,,,,3,,,,,,,41,80
1944,note_on,0,0,0,,,,,4,,,,,,,29,80
1944,note_on,0,0,0,,,,,5,,,,,,,81,96
1944,note_on,0,0,0,,,,,6,,,,,,,41,96
1951,note_off,7,0,0,,,,,5,,,,,,,81,0
1952,note_on,1,0,0,,,,,5,,,,,,,79,96
1959,note_off,7,0,0,,,,,5,,,,,,,79,0
1960,note_on,1,0,0,,,,,5,,,,,,,77,96
1965,note_off,5,0,0,,,,,3,,,,,,,41,0
1965,note_off,0,0,0,,,,,4,,,,,,,29,0
1965,note_off,0,0,0,,,,,6,,,,,,,41,0
1967,note_off,2,0,0,,,,,5,,,,,,,77,0
1968,note_on,1,0,0,,,,,0,,,,,,,75,80
1968,note_on,0,0,0,,,,,1,,,,,,,72,80
1968,note_on,0,0,0,,,,,2,,,,,,,57,80
1968,note_on,0,0,0,,,,,3,,,,,,,41,80
1968,note_on,0,0,0,,,,,4,,,,,,,29,80
1968,note_on,0,0,0,,,,,5,,,,,,,75,96
1968,note_on,0,0,0,,,,,6,,,,,,,41,96
1976,note_off,8,0,0,,,,,5,,,,,,,75,0
1976,note_on,0,0,0,,,,,5,,,,,,,74,96
1984,note_off,8,0,0,,,,,5,,,,,,,74,0
1984,note_on,0,0,0,,,,,5,,,,,,,75,96
1989,note_off,5,0,0,,,,,0,,,,,,,75,0
1989,note_off,0,0,0,,,,,1,,,,,,,72,0
1989,note_off,0,0,0,,,,,2,,,,,,,57,0
1989,note_off,0,0,0,,,,,3,,,,,,,41,0
1989,note_off,0,0,0,,,,,4,,,,,,,29,0
1989,note_off,0,0,0,,,,,6,,,,,,,41,0
1991,note_off,2,0,0,,,,,5,,,,,,,75,0
1992,note_on,1,0,0,,,,,3,,,,,,,45,80
1992,note_on,0,0,0,,,,,4,,,,,,,33,80
1992,note_on,0,0,0,,,,,5,,,,,,,75,96
1992,note_on,0,0,0,,,,,6,,,,,,,45,96
2004,note_off,12,0,0,,,,,3,,,,,,,45,0
2004,note_on,0,0,0,,,,,3,,,,,,,46,80
2004,note_off,0,0,0,,,,,4,,,,,,,33,0
2004,note_on,0,0,0,,,,,4,,,,,,,34,80
2004,note_off,0,0,0,,,,,6,,,,,,,45,0
2004,note_on,0,0,0,,,,,6,,,,,,,46,96
2010,note_off,6,0,0,,,,,3,,,,,,,46,0
2010,note_on,0,0,0,,,,,3,,,,,,,48,80
2010,note_off,0,0,0,,,,,4,,,,,,,34,0
2010,note_on,0,0,0,,,,,4,,,,,,,36,80
2010,note_off,0,0,0,,,,,6,,,,,,,46,0
2010,note_on,0,0,0,,,,,6,,,,,,,48,96
2015,note_off,5,0,0,,,,,3,,,,,,,48,0
2015,note_off,0,0,0,,,,,4,,,,,,,36,0
2015,note_off,0,0,0,,,,,6,,,,,,,48,0
2016,note_on,1,0,0,,,,,0,,,,,,,75,80
2016,note_on,0,0,0,,,,,1,,,,,,,72,80
2016,note_on,0,0,0,,,,,2,,,,,,,58,80
2016,note_on,0,0,0,,,,,3,,,,,,,41,80
2016,note_on,0,0,0,,,,,4,,,,,,,29,80
2016,note_on,0,0,0,,,,,6,,,,,,,41,96
2020,note_off,4,0,0,,,,,5,,,,,,,75,0
2024,note_on,4,0,0,,,,,5,,,,,,,65,96
2031,note_off,7,0,0,,,,,5,,,,,,,65,0
2032,note_on,1,0,0,,,,,5,,,,,,,67,96
2037,note_off,5,0,0,,,,,0,,,,,,,75,0
2037,note_off,0,0,0,,,,,1,,,,,,,72,0
2037,note_off,0,0,0,,,,,2,,,,,,,58,0
2037,note_off,0,0,0,,,,,3,,,,,,,41,0
2037,note_off,0,0,0,,,,,4,,,,,,,29,0
2037,note_off,0,0,0,,,,,6,,,,,,,41,0
2039,note_off,2,0,0,,,,,5,,,,,,,67,0
2040,note_on,1,0,0,,,,,3,,,,,,,41,80
2040,note_on,0,0,0,,,,,4,,,,,,,29,80
2040,note_on,0,0,0,,,,,5,,,,,,,69,96
2040,note_on,0,0,0,,,,,6,,,,,,,41,96
2047,note_off,7,0,0,,,,,5,,,,,,,69,0
2048,note_on,1,0,0,,,,,5,,,,,,,70,96
2055,note_off,7,0,0,,,,,5,,,,,,,70,0
2056,note_on,1,0,0,,,,,5,,,,,,,72,96
2061,note_off,5,0,0,,,,,3,,,,,,,41,0
2061,note_off,0,0,0,,,,,4,,,,,,,29,0
2061,note_off,0,0,0,,,,,6,,,,,,,41,0
2063,note_off,2,0,0,,,,,5,,,,,,,72,0
2064,note_on,1,0,0,,,,,0,,,,,,,74,80
2064,note_on,0,0,0,,,,,1,,,,,,,70,80
2064,note_on,0,0,0,,,,,2,,,,,,,65,80
2064,note_on,0,0,0,,,,,3,,,,,,,41,80
2064,note_on,0,0,0,,,,,4,,,,,,,29,80
2064,note_on,0,0,0,,,,,5,,,,,,,74,96
2064,note_on,0,0,0,,,,,6,,,,,,,41,96
2071,note_off,7,0,0,,,,,5,,,,,,,74,0
2072,note_on,1,0,0,,,,,5,,,,,,,77,96
2079,note_off,7,0,0,,,,,5,,,,,,,77,0
2080,note_on,1,0,0,,,,,5,,,,,,,82,96
2085,note_off,5,0,0,,,,,0,,,,,,,74,0
2085,note_off,0,0,0,,,,,1,,,,,,,70,0
2085,note_off,0,0,0,,,,,2,,,,,,,65,0
2085,note_off,0,0,0,,,,,3,,,,,,,41,0
2085,note_off,0,0,0,,,,,4,,,,,,,29,0
2085,note_off,0,0,0,,,,,6,,,,,,,41,0
2087,note_off,2,0,0,,,,,5,,,,,,,82,0
2088,note_on,1,0,0,,,,,3,,,,,,,46,80
2088,note_on,0,0,0,,,,,4,,,,,,,34,80
2088,note_on,0,0,0,,,,,5,,,,,,,74,96
2088,note_on,0,0,0,,,,,6,,,,,,,46,96
2100,note_off,12,0,0,,,,,3,,,,,,,46,0
2100,note_on,0,0,0,,,,,3,,,,,,,48,80
2100,note_off,0,0,0,,,,,4,,,,,,,34,0
2100,note_on,0,0,0,,,,,4,,,,,,,36,80
2100,note_off,0,0,0,,,,,6,,,,,,,46,0
2100,note_on,0,0,0,,,,,6,,,,,,,48,96
2106,note_off,6,0,0,,,,,3,,,,,,,48,0
2106,note_on,0,0,0,,,,,3,,,,,,,50,80
2106,note_off,0,0,0,,,,,4,,,,,,,36,0
2106,note_on,0,0,0,,,,,4,,,,,,,38,80
2106,note_off,0,0,0,,,,,6,,,,,,,48,0
2106,note_on,0,0,0,,,,,6,,,,,,,50,96
2111,note_off,5,0,0,,,,,3,,,,,,,50,0
2111,note_off,0,0,0,,,,,4,,,,,,,38,0
2111,note_off,0,0,0,,,,,6,,,,,,,50,0
2112,note_on,1,0,0,,,,,0,,,,,,,79,80
2112,note_on,0,0,0,,,,,1,,,,,,,70,80
2112,note_on,0,0,0,,,,,2,,,,,,,62,80
2112,note_on,0,0,0,,,,,3,,,,,,,41,80
2112,note_on,0,0,0,,,,,4,,,,,,,29,80
2112,note_on,0,0,0,,,,,6,,,,,,,41,96
2116,note_off,4,0,0,,,,,5,,,,,,,74,0
2120,note_on,4,0,0,,,,,5,,,,,,,76,96
2127,note_off,7,0,0,,,,,5,,,,,,,76,0
2128,note_on,1,0,0,,,,,5,,,,,,,77,96
2133,note_off,5,0,0,,,,,0,,,,,,,79,0
2133,note_off,0,0,0,,,,,1,,,,,,,70,0
2133,note_off,0,0,0,,,,,2,,,,,,,62,0
2133,note_off,0,0,0,,,,,3,,,,,,,41,0
2133,note_off,0,0,0,,,,,4,,,,,,,29,0
2133,note_off,0,0,0,,,,,6,,,,,,,41,0
2135,note_off,2,0,0,,,,,5,,,,,,,77,0
2136,note_on,1,0,0,,,,,3,,,,,,,41,80
2136,note_on,0,0,0,,,,,4,,,,,,,29,80
2136,note_on,0,0,0,,,,,5,,,,,,,79,96
2136,note_on,0,0,0,,,,,6,,,,,,,41,96
2143,note_off,7,0,0,,,,,5,,,,,,,79,0
2144,note_on,1,0,0,,,,,5,,,,,,,77,96
2151,note_off,7,0,0,,,,,5,,,,,,,77,0
2152,note_on,1,0,0,,,,,5,,,,,,,79,96
2157,note_off,5,0,0,,,,,3,,,,,,,41,0
2157,note_off,0,0,0,,,,,4,,,,,,,29,0
2157,note_off,0,0,0,,,,,6,,,,,,,41,0
2159,note_off,2,0,0,,,,,5,,,,,,,79,0
2160,note_on,1,0,0,,,,,0,,,,,,,70,80
2160,note_on,0,0,0,,,,,1,,,,,,,67,80
2160,note_on,0,0,0,,,,,2,,,,,,,64,80
2160,note_on,0,0,0,,,,,3,,,,,,,41,80
2160,note_on,0,0,0,,,,,4,,,,,,,29,80
2160,note_on,0,0,0,,,,,5,,,,,,,70,96
2160,note_on,0,0,0,,,,,6,,,,,,,41,96
2167,note_off,7,0,0,,,,,5,,,,,,,70,0
2168,note_on,1,0,0,,,,,5,,,,,,,69,96
2175,note_off,7,0,0,,,,,5,,,,,,,69,0
2176,note_on,1,0,0,,,,,5,,,,,,,70,96
2181,note_off,5,0,0,,,,,0,,,,,,,70,0
2181,note_off,0,0,0,,,,,1,,,,,,,67,0
2181,note_off,0,0,0,,,,,2,,,,,,,64,0
2181,note_off,0,0,0,,,,,3,,,,,,,41,0
2181,note_off,0,0,0,,,,,4,,,,,,,29,0
2181,note_off,0,0,0,,,,,6,,,,,,,41,0
2183,note_off,2,0,0,,,,,5,,,,,,,70,0
2184,note_on,1,0,0,,,,,3,,,,,,,52,80
2184,note_on,0,0,0,,,,,4,,,,,,,40,80
2184,note_on,0,0,0,,,,,5,,,,,,,79,96
2184,note_on,0,0,0,,,,,6,,,,,,,52,96
2196,note_off,12,0,0,,,,,3,,,,,,,52,0
2196,note_on,0,0,0,,,,,3,,,,,,,53,80
2196,note_off,0,0,0,,,,,4,,,,,,,40,0
2196,note_on,0,0,0,,,,,4,,,,,,,41,80
2196,note_off,0,0,0,,,,,6,,,,,,,52,0
2196,note_on,0,0,0,,,,,6,,,,,,,53,96
2200,note_off,4,0,0,,,,,5,,,,,,,79,0
2202,note_off,2,0,0,,,,,3,,,,,,,53,0
2202,note_on,0,0,0,,,,,3,,,,,,,55,80
2202,note_off,0,0,0,,,,,4,,,,,,,41,0
2202,note_on,0,0,0,,,,,4,,,,,,,43,80
2202,note_on,0,0,0,,,,,5,,,,,,,70,96
2202,note_off,0,0,0,,,,,6,,,,,,,53,0
2202,note_on,0,0,0,,,,,6,,,,,,,55,96
2207,note_off,5,0,0,,,,,3,,,,,,,55,0
2207,note_off,0,0,0,,,,,4,,,,,,,43,0
2207,note_off,0,0,0,,,,,5,,,,,,,70,0
2207,note_off,0,0,0,,,,,6,,,,,,,55,0
2208,note_on,1,0,0,,,,,0,,,,,,,70,80
2208,note_on,0,0,0,,,,,1,,,,,,,67,80
2208,note_on,0,0,0,,,,,2,,,,,,,60,80
2208,note_on,0,0,0,,,,,3,,,,,,,41,80
2208,note_on,0,0,0,,,,,4,,,,,,,29,80
2208,note_on,0,0,0,,,,,5,,,,,,,70,96
2208,note_on,0,0,0,,,,,6,,,,,,,41,96
2215,note_off,7,0,0,,,,,5,,,,,,,70,0
2216,note_on,1,0,0,,,,,5,,,,,,,69,96
2223,note_off,7,0,0,,,,,5,,,,,,,69,0
2224,note_on,1,0,0,,,,,5,,,,,,,67,96
2229,note_off,5,0,0,,,,,0,,,,,,,70,0
2229,note_off,0,0,0,,,,,1,,,,,,,67,0
2229,note_off,0,0,0,,,,,2,,,,,,,60,0
2229,note_off,0,0,0,,,,,6,,,,,,,41,0
2231,note_off,2,0,0,,,,,5,,,,,,,67,0
2232,note_on,1,0,0,,,,,0,,,,,,,69,80
2232,note_on,0,0,0,,,,,1,,,,,,,65,80
2232,note_on,0,0,0,,,,,2,,,,,,,65,80
2232,note_on,0,0,0,,,,,5,,,,,,,69,96
2232,note_on,0,0,0,,,,,6,,,,,,,65,96
2242,note_off,10,0,0,,,,,6,,,,,,,65,0
2244,note_off,2,0,0,,,,,0,,,,,,,69,0
2244,note_on,0,0,0,,,,,0,,,,,,,72,80
2244,note_off,0,0,0,,,,,1,,,,,,,65,0
2244,note_on,0,0,0,,,,,1,,,,,,,69,80
2244,note_off,0,0,0,,,,,2,,,,,,,65,0
2244,note_on,0,0,0,,,,,2,,,,,,,64,80
2244,note_on,0,0,0,,,,,6,,,,,,,64,96
2250,note_off,6,0,0,,,,,3,,,,,,,41,0
2250,note_off,0,0,0,,,,,4,,,,,,,29,0
2254,note_off,4,0,0,,,,,0,,,,,,,72,0
2254,note_off,0,0,0,,,,,1,,,,,,,69,0
2254,note_off,0,0,0,,,,,2,,,,,,,64,0
2254,note_off,0,0,0,,,,,6,,,,,,,64,0
2256,note_on,2,0,0,,,,,0,,,,,,,77,80
2256,note_on,0,0,0,,,,,1,,,,,,,74,80
2256,note_on,0,0,0,,,,,2,,,,,,,62,80
2256,note_on,0,0,0,,,,,6,,,,,,,62,96
2260,note_off,4,0,0,,,,,5,,,,,,,69,0
2264,note_on,4,0,0,,,,,5,,,,,,,72,96
2271,note_off,7,0,0,,,,,5,,,,,,,72,0
2272,note_on,1,0,0,,,,,5,,,,,,,74,96
2277,note_off,5,0,0,,,,,0,,,,,,,77,0
2277,note_off,0,0,0,,,,,1,,,,,,,74,0
2277,note_off,0,0,0,,,,,2,,,,,,,62,0
2277,note_off,0,0,0,,,,,6,,,,,,,62,0
2279,note_off,2,0,0,,,,,5,,,,,,,74,0
2280,note_on,1,0,0,,,,,2,,,,,,,60,80
2280,note_on,0,0,0,,,,,5,,,,,,,76,96
2280,note_on,0,0,0,,,,,6,,,,,,,60,96
2287,note_off,7,0,0,,,,,5,,,,,,,76,0
2288,note_on,1,0,0,,,,,5,,,,,,,77,96
2295,note_off,7,0,0,,,,,5,,,,,,,77,0
2296,note_on,1,0,0,,,,,5,,,,,,,79,96
2301,note_off,5,0,0,,,,,2,,,,,,,60,0
2301,note_off,0,0,0,,,,,6,,,,,,,60,0
2303,note_off,2,0,0,,,,,5,,,,,,,79,0
2304,note_on,1,0,0,,,,,0,,,,,,,74,80
2304,note_on,0,0,0,,,,,1,,,,,,,65,80
2304,note_on,0,0,0,,,,,2,,,,,,,59,80
2304,note_on,0,0,0,,,,,5,,,,,,,80,96
2304,note_on,0,0,0,,,,,6,,,,,,,59,96
2325,note_off,21,0,0,,,,,0,,,,,,,74,0
2325,note_off,0,0,0,,,,,1,,,,,,,65,0
2325,note_off,0,0,0,,,,,2,,,,,,,59,0
2325,note_off,0,0,0,,,,,6,,,,,,,59,0
2328,note_on,3,0,0,,,,,2,,,,,,,59,80
2328,note_on,0,0,0,,,,,6,,,,,,,59,96
2349,note_off,21,0,0,,,,,2,,,,,,,59,0
2349,note_off,0,0,0,,,,,6,,,,,,,59,0
2352,note_on,3,0,0,,,,,0,,,,,,,73,80
2352,note_on,0,0,0,,,,,1,,,,,,,70,80
2352,note_on,0,0,0,,,,,2,,,,,,,58,80
2352,note_on,0,0,0,,,,,6,,,,,,,58,96
2353,note_off,1,0,0,,,,,5,,,,,,,80,0
2360,note_on,7,0,0,,,,,5,,,,,,,79,96
2367,note_off,7,0,0,,,,,5,,,,,,,79,0
2368,note_on,1,0,0,,,,,5,,,,,,,77,96
2373,note_off,5,0,0,,,,,0,,,,,,,73,0
2373,note_off,0,0,0,,,,,1,,,,,,,70,0
2373,note_off,0,0,0,,,,,2,,,,,,,58,0
2373,note_off,0,0,0,,,,,6,,,,,,,58,0
2375,note_off,2,0,0,,,,,5,,,,,,,77,0
2376,note_on,1,0,0,,,,,2,,,,,,,58,80
2376,note_on,0,0,0,,,,,5,,,,,,,78,96
2376,note_on,0,0,0,,,,,6,,,,,,,58,96
2397,note_off,21,0,0,,,,,2,,,,,,,58,0
2397,note_off,0,0,0,,,,,6,,,,,,,58,0
2400,note_on,3,0,0,,,,,0,,,,,,,72,80
2400,note_on,0,0,0,,,,,1,,,,,,,60,80
2400,note_on,0,0,0,,,,,2,,,,,,,57,80
2400,note_on,0,0,0,,,,,6,,,,,,,57,96
2404,note_off,4,0,0,,,,,5,,,,,,,78,0
2408,note_on,4,0,0,,,,,5,,,,,,,77,96
2415,note_off,7,0,0,,,,,5,,,,,,,77,0
2416,note_on,1,0,0,,,,,5,,,,,,,76,96
2421,note_off,5,0,0,,,,,0,,,,,,,72,0
2421,note_off,0,0,0,,,,,1,,,,,,,60,0
2421,note_off,0,0,0,,,,,2,,,,,,,57,0
2421,note_off,0,0,0,,,,,6,,,,,,,57,0
2423,note_off,2,0,0,,,,,5,,,,,,,76,0
2424,note_on,1,0,0,,,,,2,,,,,,,57,80
2424,note_on,0,0,0,,,,,5,,,,,,,77,96
2424,note_on,0,0,0,,,,,6,,,,,,,57,96
2445,note_off,21,0,0,,,,,2,,,,,,,57,0
2445,note_off,0,0,0,,,,,6,,,,,,,57,0
2448,note_on,3,0,0,,,,,0,,,,,,,77,80
2448,note_on,0,0,0,,,,,1,,,,,,,72,80
2448,note_on,0,0,0,,,,,2,,,,,,,56,80
2448,note_on,0,0,0,,,,,6,,,,,,,56,96
2452,note_off,4,0,0,,,,,5,,,,,,,77,0
2456,note_on,4,0,0,,,,,5,,,,,,,75,96
2463,note_off,7,0,0,,,,,5,,,,,,,75,0
2464,note_on,1,0,0,,,,,5,,,,,,,73,96
2469,note_off,5,0,0,,,,,0,,,,,,,77,0
2469,note_off,0,0,0,,,,,1,,,,,,,72,0
2469,note_off,0,0,0,,,,,2,,,,,,,56,0
2469,note_off,0,0,0,,,,,6,,,,,,,56,0
2471,note_off,2,0,0,,,,,5,,,,,,,73,0
2472,note_on,1,0,0,,,,,2,,,,,,,56,80
2472,note_on,0,0,0,,,,,5,,,,,,,72,96
2472,note_on,0,0,0,,,,,6,,,,,,,56,96
2479,note_off,7,0,0,,,,,5,,,,,,,72,0
2480,note_on,1,0,0,,,,,5,,,,,,,71,96
2487,note_off,7,0,0,,,,,5,,,,,,,71,0
2488,note_on,1,0,0,,,,,5,,,,,,,72,96
2493,note_off,5,0,0,,,,,2,,,,,,,56,0
2493,note_off,0,0,0,,,,,6,,,,,,,56,0
2495,note_off,2,0,0,,,,,5,,,,,,,72,0
2496,note_on,1,0,0,,,,,0,,,,,,,76,80
2496,note_on,0,0,0,,,,,1,,,,,,,72,80
2496,note_on,0,0,0,,,,,2,,,,,,,55,80
2496,note_on,0,0,0,,,,,5,,,,,,,82,96
2496,note_on,0,0,0,,,,,6,,,,,,,55,96
2503,note_off,7,0,0,,,,,5,,,,,,,82,0
2504,note_on,1,0,0,,,,,5,,,,,,,81,96
2511,note_off,7,0,0,,,,,5,,,,,,,81,0
2512,note_on,1,0,0,,,,,5,,,,,,,79,96
2517,note_off,5,0,0,,,,,0,,,,,,,76,0
2517,note_off,0,0,0,,,,,1,,,,,,,72,0
2517,note_off,0,0,0,,,,,2,,,,,,,55,0
2517,note_off,0,0,0,,,,,6,,,,,,,55,0
2519,note_off,2,0,0,,,,,5,,,,,,,79,0
2520,note_on,1,0,0,,,,,0,,,,,,,77,80
2520,note_on,0,0,0,,,,,1,,,,,,,72,80
2520,note_on,0,0,0,,,,,2,,,,,,,53,80
2520,note_on,0,0,0,,,,,5,,,,,,,81,96
2520,note_on,0,0,0,,,,,6,,,,,,,53,96
2536,note_off,16,0,0,,,,,0,,,,,,,77,0
2536,note_off,0,0,0,,,,,5,,,,,,,81,0
2538,note_on,2,0,0,,,,,0,,,,,,,69,80
2538,note_on,0,0,0,,,,,5,,,,,,,77,96
2541,note_off,3,0,0,,,,,1,,,,,,,72,0
2541,note_off,0,0,0,,,,,2,,,,,,,53,0
2541,note_off,0,0,0,,,,,6,,,,,,,53,0
2543,note_off,2,0,0,,,,,0,,,,,,,69,0
2543,note_off,0,0,0,,,,,5,,,,,,,77,0
2544,note_on,1,0,0,,,,,0,,,,,,,67,80
2544,note_on,0,0,0,,,,,1,,,,,,,72,80
2544,note_on,0,0,0,,,,,2,,,,,,,60,80
2544,note_on,0,0,0,,,,,5,,,,,,,76,96
2544,note_on,0,0,0,,,,,6,,,,,,,60,96
2565,note_off,21,0,0,,,,,1,,,,,,,72,0
2565,note_off,0,0,0,,,,,2,,,,,,,60,0
2565,note_off,0,0,0,,,,,6,,,,,,,60,0
2568,note_on,3,0,0,,,,,1,,,,,,,72,80
2568,note_on,0,0,0,,,,,2,,,,,,,48,80
2568,note_on,0,0,0,,,,,6,,,,,,,48,96
2575,note_off,7,0,0,,,,,0,,,,,,,67,0
2575,note_off,0,0,0,,,,,5,,,,,,,76,0
2580,note_on,5,0,0,,,,,0,,,,,,,69,80
2580,note_on,0,0,0,,,,,5,,,,,,,77,96
2589,note_off,9,0,0,,,,,1,,,,,,,72,0
2589,note_off,0,0,0,,,,,2,,,,,,,48,0
2589,note_off,0,0,0,,,,,6,,,,,,,48,0
2590,note_off,1,0,0,,,,,0,,,,,,,69,0
2590,note_off,0,0,0,,,,,5,,,,,,,77,0
2592,note_on,2,0,0,,,,,0,,,,,,,69,80
2592,note_on,0,0,0,,,,,1,,,,,,,72,80
2592,note_on,0,0,0,,,,,2,,,,,,,53,80
2592,note_on,0,0,0,,,,,5,,,,,,,77,96
2592,note_on,0,0,0,,,,,6,,,,,,,53,96
2599,note_off,7,0,0,,,,,5,,,,,,,77,0
2600,note_on,1,0,0,,,,,5,,,,,,,81,96
2607,note_off,7,0,0,,,,,5,,,,,,,81,0
2608,note_on,1,0,0,,,,,5,,,,,,,77,96
2615,note_off,7,0,0,,,,,5,,,,,,,77,0
2616,note_on,1,0,0,,,,,5,,,,,,,72,96
2623,note_off,7,0,0,,,,,5,,,,,,,72,0
2623,note_off,0,0,0,,,,,6,,,,,,,53,0
2624,note_on,1,0,0,,,,,5,,,,,,,77,96
2628,note_on,4,0,0,,,,,6,,,,,,,41,96
2631,note_off,3,0,0,,,,,5,,,,,,,77,0
2632,note_on,1,0,0,,,,,5,,,,,,,72,96
2633,note_off,1,0,0,,,,,6,,,,,,,41,0
2634,note_off,1,0,0,,,,,0,,,,,,,69,0
2634,note_off,0,0,0,,,,,1,,,,,,,72,0
2634,note_off,0,0,0,,,,,2,,,,,,,53,0
2634,note_on,0,0,0,,,,,6,,,,,,,45,96
2639,note_off,5,0,0,,,,,5,,,,,,,72,0
2639,note_off,0,0,0,,,,,6,,,,,,,45,0
2640,note_on,1,0,0,,,,,5,,,,,,,69,96
2640,note_on,0,0,0,,,,,6,,,,,,,48,96
2647,note_off,7,0,0,,,,,5,,,,,,,69,0
2647,note_off,0,0,0,,,,,6,,,,,,,48,0
2648,note_on,1,0,0,,,,,5,,,,,,,77,96
2648,note_on,0,0,0,,,,,6,,,,,,,45,96
2655,note_off,7,0,0,,,,,5,,,,,,,77,0
2655,note_off,0,0,0,,,,,6,,,,,,,45,0
2656,note_on,1,0,0,,,,,5,,,,,,,72,96
2656,note_on,0,0,0,,,,,6,,,,,,,48,96
2663,note_off,7,0,0,,,,,5,,,,,,,72,0
2663,note_off,0,0,0,,,,,6,,,,,,,48,0
2664,note_on,1,0,0,,,,,5,,,,,,,69,96
2664,note_on,0,0,0,,,,,6,,,,,,,53,96
2671,note_off,7,0,0,,,,,5,,,,,,,69,0
2671,note_off,0,0,0,,,,,6,,,,,,,53,0
2672,note_on,1,0,0,,,,,5,,,,,,,72,96
2672,note_on,0,0,0,,,,,6,,,,,,,48,96
2679,note_off,7,0,0,,,,,5,,,,,,,72,0
2679,note_off,0,0,0,,,,,6,,,,,,,48,0
2680,note_on,1,0,0,,,,,5,,,,,,,69,96
2680,note_on,0,0,0,,,,,6,,,,,,,53,96
2687,note_off,7,0,0,,,,,5,,,,,,,69,0
2687,note_off,0,0,0,,,,,6,,,,,,,53,0
2688,note_on,1,0,0,,,,,0,,,,,,,60,96
2688,note_on,0,0,0,,,,,1,,,,,,,57,96
2688,note_on,0,0,0,,,,,2,,,,,,,53,96
2688,note_on,0,0,0,,,,,3,,,,,,,41,96
2688,note_on,0,0,0,,,,,4,,,,,,,29,96
2688,note_on,0,0,0,,,,,5,,,,,,,65,96
2688,note_on,0,0,0,,,,,5,,,,,,,57,96
2688,note_on,0,0,0,,,,,6,,,,,,,41,96
2709,note_off,21,0,0,,,,,0,,,,,,,60,0
2709,note_off,0,0,0,,,,,1,,,,,,,57,0
2709,note_off,0,0,0,,,,,2,,,,,,,53,0
2709,note_off,0,0,0,,,,,3,,,,,,,41,0
2709,note_off,0,0,0,,,,,4,,,,,,,29,0
2709,note_off,0,0,0,,,,,5,,,,,,,65,0
2709,note_off,0,0,0,,,,,5,,,,,,,57,0
2709,note_off,0,0,0,,,,,6,,,,,,,41,0
2712,note_on,3,0,0,,,,,3,,,,,,,41,96
2712,note_on,0,0,0,,,,,4,,,,,,,29,96
2712,note_on,0,0,0,,,,,6,,,,,,,41,96
2733,note_off,21,0,0,,,,,3,,,,,,,41,0
2733,note_off,0,0,0,,,,,4,,,,,,,29,0
2733,note_off,0,0,0,,,,,6,,,,,,,41,0
2736,note_on,3,0,0,,,,,0,,,,,,,63,96
2736,note_on,0,0,0,,,,,1,,,,,,,57,96
2736,note_on,0,0,0,,,,,2,,,,,,,48,96
2736,note_on,0,0,0,,,,,3,,,,,,,41,96
2736,note_on,0,0,0,,,,,4,,,,,,,29,96
2736,note_on,0,0,0,,,,,5,,,,,,,63,96
2736,note_on,0,0,0,,,,,5,,,,,,,60,96
2736,note_on,0,0,0,,,,,5,,,,,,,57,96
2736,note_on,0,0,0,,,,,6,,,,,,,41,96
2757,note_off,21,0,0,,,,,0,,,,,,,63,0
2757,note_off,0,0,0,,,,,1,,,,,,,57,0
2757,note_off,0,0,0,,,,,2,,,,,,,48,0
2757,note_off,0,0,0,,,,,3,,,,,,,41,0
2757,note_off,0,0,0,,,,,4,,,,,,,29,0
2757,note_off,0,0,0,,,,,5,,,,,,,63,0
2757,note_off,0,0,0,,,,,5,,,,,,,60,0
2757,note_off,0,0,0,,,,,5,,,,,,,57,0
2757,note_off,0,0,0,,,,,6,,,,,,,41,0
2760,note_on,3,0,0,,,,,3,,,,,,,45,96
2760,note_on,0,0,0,,,,,4,,,,,,,33,96
2760,note_on,0,0,0,,,,,6,,,,,,,45,96
2772,note_off,12,0,0,,,,,3,,,,,,,45,0
2772,note_on,0,0,0,,,,,3,,,,,,,46,96
2772,note_off,0,0,0,,,,,4,,,,,,,33,0
2772,note_on,0,0,0,,,,,4,,,,,,,34,96
2772,note_off,0,0,0,,,,,6,,,,,,,45,0
2772,note_on,0,0,0,,,,,6,,,,,,,46,96
2778,note_off,6,0,0,,,,,3,,,,,,,46,0
2778,note_on,0,0,0,,,,,3,,,,,,,48,96
2778,note_off,0,0,0,,,,,4,,,,,,,34,0
2778,note_on,0,0,0,,,,,4,,,,,,,36,96
2778,note_off,0,0,0,,,,,6,,,,,,,46,0
2778,note_on,0,0,0,,,,,6,,,,,,,48,96
2783,note_off,5,0,0,,,,,3,,,,,,,48,0
2783,note_off,0,0,0,,,,,4,,,,,,,36,0
2783,note_off,0,0,0,,,,,6,,,,,,,48,0
2784,note_on,1,0,0,,,,,0,,,,,,,63,96
2784,note_on,0,0,0,,,,,1,,,,,,,58,96
2784,note_on,0,0,0,,,,,2,,,,,,,53,96
2784,note_on,0,0,0,,,,,3,,,,,,,41,96
2784,note_on,0,0,0,,,,,4,,,,,,,29,96
2784,note_on,0,0,0,,,,,5,,,,,,,63,96
2784,note_on,0,0,0,,,,,5,,,,,,,58,96
2784,note_on,0,0,0,,,,,5,,,,,,,53,96
2784,note_on,0,0,0,,,,,6,,,,,,,41,96
2805,note_off,21,0,0,,,,,0,,,,,,,63,0
2805,note_off,0,0,0,,,,,1,,,,,,,58,0
2805,note_off,0,0,0,,,,,2,,,,,,,53,0
2805,note_off,0,0,0,,,,,3,,,,,,,41,0
2805,note_off,0,0,0,,,,,4,,,,,,,29,0
2805,note_off,0,0,0,,,,,5,,,,,,,63,0
2805,note_off,0,0,0,,,,,5,,,,,,,58,0
2805,note_off,0,0,0,,,,,5,,,,,,,53,0
2805,note_off,0,0,0,,,,,6,,,,,,,41,0
2808,note_on,3,0,0,,,,,3,,,,,,,41,96
2808,note_on,0,0,0,,,,,4,,,,,,,29,96
2808,note_on,0,0,0,,,,,6,,,,,,,41,96
2829,note_off,21,0,0,,,,,3,,,,,,,41,0
2829,note_off,0,0,0,,,,,4,,,,,,,29,0
2829,note_off,0,0,0,,,,,6,,,,,,,41,0
2832,note_on,3,0,0,,,,,0,,,,,,,62,96
2832,note_on,0,0,0,,,,,1,,,,,,,58,96
2832,note_on,0,0,0,,,,,2,,,,,,,53,96
2832,note_on,0,0,0,,,,,3,,,,,,,41,96
2832,note_on,0,0,0,,,,,4,,,,,,,29,96
2832,note_on,0,0,0,,,,,5,,,,,,,62,96
2832,note_on,0,0,0,,,,,5,,,,,,,58,96
2832,note_on,0,0,0,,,,,5,,,,,,,53,96
2832,note_on,0,0,0,,,,,6,,,,,,,41,96
2853,note_off,21,0,0,,,,,0,,,,,,,62,0
2853,note_off,0,0,0,,,,,1,,,,,,,58,0
2853,note_off,0,0,0,,,,,2,,,,,,,53,0
2853,note_off,0,0,0,,,,,3,,,,,,,41,0
2853,note_off,0,0,0,,,,,4,,,,,,,29,0
2853,note_off,0,0,0,,,,,5,,,,,,,62,0
2853,note_off,0,0,0,,,,,5,,,,,,,58,0
2853,note_off,0,0,0,,,,,5,,,,,,,53,0
2853,note_off,0,0,0,,,,,6,,,,,,,41,0
2856,note_on,3,0,0,,,,,3,,,,,,,46,96
2856,note_on,0,0,0,,,,,4,,,,,,,34,96
2856,note_on,0,0,0,,,,,6,,,,,,,46,96
2868,note_off,12,0,0,,,,,3,,,,,,,46,0
2868,note_on,0,0,0,,,,,3,,,,,,,48,96
2868,note_off,0,0,0,,,,,4,,,,,,,34,0
2868,note_on,0,0,0,,,,,4,,,,,,,36,96
2868,note_off,0,0,0,,,,,6,,,,,,,46,0
2868,note_on,0,0,0,,,,,6,,,,,,,48,96
2874,note_off,6,0,0,,,,,3,,,,,,,48,0
2874,note_on,0,0,0,,,,,3,,,,,,,50,96
2874,note_off,0,0,0,,,,,4,,,,,,,36,0
2874,note_on,0,0,0,,,,,4,,,,,,,38,96
2874,note_off,0,0,0,,,,,6,,,,,,,48,0
2874,note_on,0,0,0,,,,,6,,,,,,,50,96
2879,note_off,5,0,0,,,,,3,,,,,,,50,0
2879,note_off,0,0,0,,,,,4,,,,,,,38,0
2879,note_off,0,0,0,,,,,6,,,,,,,50,0
2880,note_on,1,0,0,,,,,0,,,,,,,67,96
2880,note_on,0,0,0,,,,,1,,,,,,,58,96
2880,note_on,0,0,0,,,,,2,,,,,,,50,96
2880,note_on,0,0,0,,,,,3,,,,,,,41,96
2880,note_on,0,0,0,,,,,4,,,,,,,29,96
2880,note_on,0,0,0,,,,,5,,,,,,,67,96
2880,note_on,0,0,0,,,,,5,,,,,,,62,96
2880,note_on,0,0,0,,,,,5,,,,,,,58,96
2880,note_on,0,0,0,,,,,6,,,,,,,41,96
2901,note_off,21,0,0,,,,,0,,,,,,,67,0
2901,note_off,0,0,0,,,,,1,,,,,,,58,0
2901,note_off,0,0,0,,,,,2,,,,,,,50,0
2901,note_off,0,0,0,,,,,3,,,,,,,41,0
2901,note_off,0,0,0,,,,,4,,,,,,,29,0
2901,note_off,0,0,0,,,,,5,,,,,,,67,0
2901,note_off,0,0,0,,,,,5,,,,,,,62,0
2901,note_off,0,0,0,,,,,5,,,,,,,58,0
2901,note_off,0,0,0,,,,,6,,,,,,,41,0
2904,note_on,3,0,0,,,,,3,,,,,,,41,96
2904,note_on,0,0,0,,,,,4,,,,,,,29,96
2904,note_on,0,0,0,,,,,6,,,,,,,41,96
2925,note_off,21,0,0,,,,,3,,,,,,,41,0
2925,note_off,0,0,0,,,,,4,,,,,,,29,0
2925,note_off,0,0,0,,,,,6,,,,,,,41,0
2928,note_on,3,0,0,,,,,0,,,,,,,58,96
2928,note_on,0,0,0,,,,,1,,,,,,,67,96
2928,note_on,0,0,0,,,,,2,,,,,,,52,96
2928,note_on,0,0,0,,,,,3,,,,,,,41,96
2928,note_on,0,0,0,,,,,4,,,,,,,29,96
2928,note_on,0,0,0,,,,,5,,,,,,,67,96
2928,note_on,0,0,0,,,,,5,,,,,,,58,96
2928,note_on,0,0,0,,,,,6,,,,,,,41,96
2949,note_off,21,0,0,,,,,0,,,,,,,58,0
2949,note_off,0,0,0,,,,,1,,,,,,,67,0
2949,note_off,0,0,0,,,,,2,,,,,,,52,0
2949,note_off,0,0,0,,,,,3,,,,,,,41,0
2949,note_off,0,0,0,,,,,4,,,,,,,29,0
2949,note_off,0,0,0,,,,,5,,,,,,,67,0
2949,note_off,0,0,0,,,,,5,,,,,,,58,0
2949,note_off,0,0,0,,,,,6,,,,,,,41,0
2952,note_on,3,0,0,,,,,3,,,,,,,52,96
2952,note_on,0,0,0,,,,,4,,,,,,,40,96
2952,note_on,0,0,0,,,,,6,,,,,,,52,96
2964,note_off,12,0,0,,,,,3,,,,,,,52,0
2964,note_on,0,0,0,,,,,3,,,,,,,53,96
2964,note_off,0,0,0,,,,,4,,,,,,,40,0
2964,note_on,0,0,0,,,,,4,,,,,,,41,96
2964,note_off,0,0,0,,,,,6,,,,,,,52,0
2964,note_on,0,0,0,,,,,6,,,,,,,53,96
2970,note_off,6,0,0,,,,,3,,,,,,,53,0
2970,note_on,0,0,0,,,,,3,,,,,,,55,96
2970,note_off,0,0,0,,,,,4,,,,,,,41,0
2970,note_on,0,0,0,,,,,4,,,,,,,43,96
2970,note_off,0,0,0,,,,,6,,,,,,,53,0
2970,note_on,0,0,0,,,,,6,,,,,,,55,96
2975,note_off,5,0,0,,,,,3,,,,,,,55,0
2975,note_off,0,0,0,,,,,4,,,,,,,43,0
2975,note_off,0,0,0,,,,,6,,,,,,,55,0
2976,note_on,1,0,0,,,,,0,,,,,,,58,96
2976,note_on,0,0,0,,,,,1,,,,,,,67,96
2976,note_on,0,0,0,,,,,2,,,,,,,48,96
2976,note_on,0,0,0,,,,,3,,,,,,,41,96
2976,note_on,0,0,0,,,,,4,,,,,,,29,96
2976,note_on,0,0,0,,,,,5,,,,,,,67,96
2976,note_on,0,0,0,,,,,5,,,,,,,58,96
2976,note_on,0,0,0,,,,,6,,,,,,,41,96
2997,note_off,21,0,0,,,,,0,,,,,,,58,0
2997,note_off,0,0,0,,,,,1,,,,,,,67,0
2997,note_off,0,0,0,,,,,2,,,,,,,48,0
2997,note_off,0,0,0,,,,,3,,,,,,,41,0
2997,note_off,0,0,0,,,,,4,,,,,,,29,0
2997,note_off,0,0,0,,,,,5,,,,,,,67,0
2997,note_off,0,0,0,,,,,5,,,,,,,58,0
2997,note_off,0,0,0,,,,,6,,,,,,,41,0
3000,note_on,3,0,0,,,,,3,,,,,,,41,96
3000,note_on,0,0,0,,,,,4,,,,,,,29,96
3000,note_on,0,0,0,,,,,6,,,,,,,41,96
3021,note_off,21,0,0,,,,,3,,,,,,,41,0
3021,note_off,0,0,0,,,,,4,,,,,,,29,0
3021,note_off,0,0,0,,,,,6,,,,,,,41,0
3024,note_on,3,0,0,,,,,0,,,,,,,57,96
3024,note_on,0,0,0,,,,,1,,,,,,,65,96
3024,note_on,0,0,0,,,,,2,,,,,,,48,96
3024,note_on,0,0,0,,,,,3,,,,,,,41,96
3024,note_on,0,0,0,,,,,4,,,,,,,29,96
3024,note_on,0,0,0,,,,,5,,,,,,,65,96
3024,note_on,0,0,0,,,,,5,,,,,,,57,96
3024,note_on,0,0,0,,,,,6,,,,,,,41,96
3045,note_off,21,0,0,,,,,0,,,,,,,57,0
3045,note_off,0,0,0,,,,,1,,,,,,,65,0
3045,note_off,0,0,0,,,,,2,,,,,,,48,0
3045,note_off,0,0,0,,,,,3,,,,,,,41,0
3045,note_off,0,0,0,,,,,4,,,,,,,29,0
3045,note_off,0,0,0,,,,,5,,,,,,,65,0
3045,note_off,0,0,0,,,,,5,,,,,,,57,0
3045,note_off,0,0,0,,,,,6,,,,,,,41,0
3048,note_on,3,0,0,,,,,3,,,,,,,53,96
3048,note_on,0,0,0,,,,,4,,,,,,,41,96
3048,note_on,0,0,0,,,,,6,,,,,,,53,96
3060,note_off,12,0,0,,,,,3,,,,,,,53,0
3060,note_on,0,0,0,,,,,3,,,,,,,55,96
3060,note_off,0,0,0,,,,,4,,,,,,,41,0
3060,note_on,0,0,0,,,,,4,,,,,,,43,96
3060,note_off,0,0,0,,,,,6,,,,,,,53,0
3060,note_on,0,0,0,,,,,6,,,,,,,55,96
3066,note_off,6,0,0,,,,,3,,,,,,,55,0
3066,note_on,0,0,0,,,,,3,,,,,,,57,96
3066,note_off,0,0,0,,,,,4,,,,,,,43,0
3066,note_on,0,0,0,,,,,4,,,,,,,45,96
3066,note_off,0,0,0,,,,,6,,,,,,,55,0
3066,note_on,0,0,0,,,,,6,,,,,,,57,96
3071,note_off,5,0,0,,,,,3,,,,,,,57,0
3071,note_off,0,0,0,,,,,4,,,,,,,45,0
3071,note_off,0,0,0,,,,,6,,,,,,,57,0
3072,note_on,1,0,0,,,,,0,,,,,,,71,80
3072,note_on,0,0,0,,,,,1,,,,,,,65,80
3072,note_on,0,0,0,,,,,2,,,,,,,62,80
3072,note_on,0,0,0,,,,,3,,,,,,,50,80
3072,note_on,0,0,0,,,,,4,,,,,,,38,80
3072,note_on,0,0,0,,,,,5,,,,,,,80,96
3072,note_on,0,0,0,,,,,6,,,,,,,50,96
3093,note_off,21,0,0,,,,,0,,,,,,,71,0
3093,note_off,0,0,0,,,,,1,,,,,,,65,0
3093,note_off,0,0,0,,,,,2,,,,,,,62,0
3093,note_off,0,0,0,,,,,3,,,,,,,50,0
3093,note_off,0,0,0,,,,,4,,,,,,,38,0
3093,note_off,0,0,0,,,,,6,,,,,,,50,0
3096,note_on,3,0,0,,,,,3,,,,,,,50,80
3096,note_on,0,0,0,,,,,4,,,,,,,38,80
3096,note_on,0,0,0,,,,,6,,,,,,,50,96
3117,note_off,21,0,0,,,,,3,,,,,,,50,0
3117,note_off,0,0,0,,,,,4,,,,,,,38,0
3117,note_off,0,0,0,,,,,6,,,,,,,50,0
3120,note_on,3,0,0,,,,,0,,,,,,,74,80
3120,note_on,0,0,0,,,,,1,,,,,,,71,80
3120,note_on,0,0,0,,,,,2,,,,,,,65,80
3120,note_on,0,0,0,,,,,3,,,,,,,50,80
3120,note_on,0,0,0,,,,,4,,,,,,,38,80
3120,note_on,0,0,0,,,,,6,,,,,,,50,96
3141,note_off,21,0,0,,,,,0,,,,,,,74,0
3141,note_off,0,0,0,,,,,1,,,,,,,71,0
3141,note_off,0,0,0,,,,,2,,,,,,,65,0
3141,note_off,0,0,0,,,,,3,,,,,,,50,0
3141,note_off,0,0,0,,,,,4,,,,,,,38,0
3141,note_off,0,0,0,,,,,6,,,,,,,50,0
3144,note_on,3,0,0,,,,,3,,,,,,,53,80
3144,note_on,0,0,0,,,,,4,,,,,,,41,80
3144,note_on,0,0,0,,,,,6,,,,,,,53,96
3156,note_off,12,0,0,,,,,3,,,,,,,53,0
3156,note_on,0,0,0,,,,,3,,,,,,,55,80
3156,note_off,0,0,0,,,,,4,,,,,,,41,0
3156,note_on,0,0,0,,,,,4,,,,,,,43,80
3156,note_off,0,0,0,,,,,6,,,,,,,53,0
3156,note_on,0,0,0,,,,,6,,,,,,,55,96
3162,note_off,6,0,0,,,,,3,,,,,,,55,0
3162,note_on,0,0,0,,,,,3,,,,,,,56,80
3162,note_off,0,0,0,,,,,4,,,,,,,43,0
3162,note_on,0,0,0,,,,,4,,,,,,,44,80
3162,note_off,0,0,0,,,,,6,,,,,,,55,0
3162,note_on,0,0,0,,,,,6,,,,,,,56,96
3167,note_off,5,0,0,,,,,3,,,,,,,56,0
3167,note_off,0,0,0,,,,,4,,,,,,,44,0
3167,note_off,0,0,0,,,,,6,,,,,,,56,0
3168,note_on,1,0,0,,,,,0,,,,,,,77,80
3168,note_on,0,0,0,,,,,1,,,,,,,74,80
3168,note_on,0,0,0,,,,,2,,,,,,,62,80
3168,note_on,0,0,0,,,,,3,,,,,,,47,80
3168,note_on,0,0,0,,,,,4,,,,,,,35,80
3168,note_on,0,0,0,,,,,6,,,,,,,47,96
3189,note_off,21,0,0,,,,,0,,,,,,,77,0
3189,note_off,0,0,0,,,,,1,,,,,,,74,0
3189,note_off,0,0,0,,,,,2,,,,,,,62,0
3189,note_off,0,0,0,,,,,3,,,,,,,47,0
3189,note_off,0,0,0,,,,,4,,,,,,,35,0
3189,note_off,0,0,0,,,,,6,,,,,,,47,0
3192,note_on,3,0,0,,,,,3,,,,,,,47,80
3192,note_on,0,0,0,,,,,4,,,,,,,35,80
3192,note_on,0,0,0,,,,,6,,,,,,,47,96
3213,note_off,21,0,0,,,,,3,,,,,,,47,0
3213,note_off,0,0,0,,,,,4,,,,,,,35,0
3213,note_off,0,0,0,,,,,6,,,,,,,47,0
3216,note_on,3,0,0,,,,,0,,,,,,,80,80
3216,note_on,0,0,0,,,,,1,,,,,,,77,80
3216,note_on,0,0,0,,,,,2,,,,,,,59,80
3216,note_on,0,0,0,,,,,3,,,,,,,47,80
3216,note_on,0,0,0,,,,,4,,,,,,,35,80
3216,note_on,0,0,0,,,,,6,,,,,,,47,96
3237,note_off,21,0,0,,,,,0,,,,,,,80,0
3237,note_off,0,0,0,,,,,1,,,,,,,77,0
3237,note_off,0,0,0,,,,,2,,,,,,,59,0
3237,note_off,0,0,0,,,,,3,,,,,,,47,0
3237,note_off,0,0,0,,,,,4,,,,,,,35,0
3237,note_off,0,0,0,,,,,6,,,,,,,47,0
3240,note_on,3,0,0,,,,,3,,,,,,,50,80
3240,note_on,0,0,0,,,,,4,,,,,,,38,80
3240,note_on,0,0,0,,,,,6,,,,,,,50,96
3252,note_off,12,0,0,,,,,3,,,,,,,50,0
3252,note_on,0,0,0,,,,,3,,,,,,,51,80
3252,note_off,0,0,0,,,,,4,,,,,,,38,0
3252,note_on,0,0,0,,,,,4,,,,,,,39,80
3252,note_off,0,0,0,,,,,6,,,,,,,50,0
3252,note_on,0,0,0,,,,,6,,,,,,,51,96
3258,note_off,6,0,0,,,,,3,,,,,,,51,0
3258,note_on,0,0,0,,,,,3,,,,,,,53,80
3258,note_off,0,0,0,,,,,4,,,,,,,39,0
3258,note_on,0,0,0,,,,,4,,,,,,,41,80
3258,note_off,0,0,0,,,,,6,,,,,,,51,0
3258,note_on,0,0,0,,,,,6,,,,,,,53,96
3263,note_off,5,0,0,,,,,3,,,,,,,53,0
3263,note_off,0,0,0,,,,,4,,,,,,,41,0
3263,note_off,0,0,0,,,,,6,,,,,,,53,0
3264,note_on,1,0,0,,,,,0,,,,,,,71,80
3264,note_on,0,0,0,,,,,1,,,,,,,77,80
3264,note_on,0,0,0,,,,,2,,,,,,,62,80
3264,note_on,0,0,0,,,,,3,,,,,,,43,80
3264,note_on,0,0,0,,,,,4,,,,,,,31,80
3264,note_off,0,0,0,,,,,5,,,,,,,80,0
3264,note_on,0,0,0,,,,,6,,,,,,,43,96
3272,note_on,8,0,0,,,,,5,,,,,,,79,96
3279,note_off,7,0,0,,,,,5,,,,,,,79,0
3280,note_on,1,0,0,,,,,5,,,,,,,77,96
3285,note_off,5,0,0,,,,,0,,,,,,,71,0
3285,note_off,0,0,0,,,,,1,,,,,,,77,0
3285,note_off,0,0,0,,,,,2,,,,,,,62,0
3285,note_off,0,0,0,,,,,3,,,,,,,43,0
3285,note_off,0,0,0,,,,,4,,,,,,,31,0
3285,note_off,0,0,0,,,,,6,,,,,,,43,0
3287,note_off,2,0,0,,,,,5,,,,,,,77,0
3288,note_on,1,0,0,,,,,3,,,,,,,43,80
3288,note_on,0,0,0,,,,,4,,,,,,,31,80
3288,note_on,0,0,0,,,,,5,,,,,,,75,96
3288,note_on,0,0,0,,,,,6,,,,,,,43,96
3295,note_off,7,0,0,,,,,5,,,,,,,75,0
3296,note_on,1,0,0,,,,,5,,,,,,,74,96
3303,note_off,7,0,0,,,,,5,,,,,,,74,0
3304,note_on,1,0,0,,,,,5,,,,,,,72,96
3309,note_off,5,0,0,,,,,3,,,,,,,43,0
3309,note_off,0,0,0,,,,,4,,,,,,,31,0
3309,note_off,0,0,0,,,,,6,,,,,,,43,0
3311,note_off,2,0,0,,,,,5,,,,,,,72,0
3312,note_on,1,0,0,,,,,0,,,,,,,74,80
3312,note_on,0,0,0,,,,,1,,,,,,,65,80
3312,note_on,0,0,0,,,,,2,,,,,,,67,80
3312,note_on,0,0,0,,,,,3,,,,,,,43,80
3312,note_on,0,0,0,,,,,4,,,,,,,31,80
3312,note_on,0,0,0,,,,,5,,,,,,,71,96
3312,note_on,0,0,0,,,,,6,,,,,,,43,96
3319,note_off,7,0,0,,,,,5,,,,,,,71,0
3320,note_on,1,0,0,,,,,5,,,,,,,68,96
3327,note_off,7,0,0,,,,,5,,,,,,,68,0
3328,note_on,1,0,0,,,,,5,,,,,,,67,96
3333,note_off,5,0,0,,,,,0,,,,,,,74,0
3333,note_off,0,0,0,,,,,1,,,,,,,65,0
3333,note_off,0,0,0,,,,,2,,,,,,,67,0
3333,note_off,0,0,0,,,,,3,,,,,,,43,0
3333,note_off,0,0,0,,,,,4,,,,,,,31,0
3333,note_off,0,0,0,,,,,6,,,,,,,43,0
3335,note_off,2,0,0,,,,,5,,,,,,,67,0
3336,note_on,1,0,0,,,,,3,,,,,,,47,80
3336,note_on,0,0,0,,,,,4,,,,,,,35,80
3336,note_on,0,0,0,,,,,5,,,,,,,65,96
3336,note_on,0,0,0,,,,,6,,,,,,,47,96
3343,note_off,7,0,0,,,,,5,,,,,,,65,0
3344,note_on,1,0,0,,,,,5,,,,,,,63,96
3348,note_off,4,0,0,,,,,3,,,,,,,47,0
3348,note_on,0,0,0,,,,,3,,,,,,,48,80
3348,note_off,0,0,0,,,,,4,,,,,,,35,0
3348,note_on,0,0,0,,,,,4,,,,,,,36,80
3348,note_off,0,0,0,,,,,6,,,,,,,47,0
3348,note_on,0,0,0,,,,,6,,,,,,,48,96
3351,note_off,3,0,0,,,,,5,,,,,,,63,0
3352,note_on,1,0,0,,,,,5,,,,,,,62,96
3354,note_off,2,0,0,,,,,3,,,,,,,48,0
3354,note_on,0,0,0,,,,,3,,,,,,,50,80
3354,note_off,0,0,0,,,,,4,,,,,,,36,0
3354,note_on,0,0,0,,,,,4,,,,,,,38,80
3354,note_off,0,0,0,,,,,6,,,,,,,48,0
3354,note_on,0,0,0,,,,,6,,,,,,,50,96
3359,note_off,5,0,0,,,,,3,,,,,,,50,0
3359,note_off,0,0,0,,,,,4,,,,,,,38,0
3359,note_off,0,0,0,,,,,5,,,,,,,62,0
3359,note_off,0,0,0,,,,,6,,,,,,,50,0
3360,note_on,1,0,0,,,,,0,,,,,,,74,80
3360,note_on,0,0,0,,,,,1,,,,,,,63,80
3360,note_on,0,0,0,,,,,2,,,,,,,67,80
3360,note_on,0,0,0,,,,,3,,,,,,,36,80
3360,note_on,0,0,0,,,,,4,,,,,,,24,80
3360,note_on,0,0,0,,,,,5,,,,,,,63,96
3360,note_on,0,0,0,,,,,6,,,,,,,36,96
3367,note_off,7,0,0,,,,,5,,,,,,,63,0
3368,note_on,1,0,0,,,,,5,,,,,,,60,96
3375,note_off,7,0,0,,,,,5,,,,,,,60,0
3376,note_on,1,0,0,,,,,5,,,,,,,63,96
3381,note_off,5,0,0,,,,,0,,,,,,,74,0
3381,note_off,0,0,0,,,,,1,,,,,,,63,0
3381,note_off,0,0,0,,,,,2,,,,,,,67,0
3381,note_off,0,0,0,,,,,6,,,,,,,36,0
3383,note_off,2,0,0,,,,,5,,,,,,,63,0
3384,note_on,1,0,0,,,,,0,,,,,,,72,80
3384,note_on,0,0,0,,,,,1,,,,,,,75,80
3384,note_on,0,0,0,,,,,2,,,,,,,60,80
3384,note_on,0,0,0,,,,,5,,,,,,,67,96
3384,note_on,0,0,0,,,,,6,,,,,,,60,96
3391,note_off,7,0,0,,,,,5,,,,,,,67,0
3392,note_on,1,0,0,,,,,5,,,,,,,71,96
3399,note_off,7,0,0,,,,,5,,,,,,,71,0
3400,note_on,1,0,0,,,,,5,,,,,,,72,96
3402,note_off,2,0,0,,,,,3,,,,,,,36,0
3402,note_off,0,0,0,,,,,4,,,,,,,24,0
3405,note_off,3,0,0,,,,,0,,,,,,,72,0
3405,note_off,0,0,0,,,,,1,,,,,,,75,0
3405,note_off,0,0,0,,,,,2,,,,,,,60,0
3405,note_off,0,0,0,,,,,6,,,,,,,60,0
3407,note_off,2,0,0,,,,,5,,,,,,,72,0
3408,note_on,1,0,0,,,,,0,,,,,,,67,80
3408,note_on,0,0,0,,,,,1,,,,,,,72,80
3408,note_on,0,0,0,,,,,2,,,,,,,60,80
3408,note_on,0,0,0,,,,,5,,,,,,,75,96
3408,note_on,0,0,0,,,,,6,,,,,,,60,96
3411,note_off,3,0,0,,,,,5,,,,,,,75,0
3411,note_on,0,0,0,,,,,5,,,,,,,74,96
3414,note_off,3,0,0,,,,,5,,,,,,,74,0
3414,note_on,0,0,0,,,,,5,,,,,,,75,96
3429,note_off,15,0,0,,,,,0,,,,,,,67,0
3429,note_off,0,0,0,,,,,1,,,,,,,72,0
3429,note_off,0,0,0,,,,,2,,,,,,,60,0
3429,note_off,0,0,0,,,,,6,,,,,,,60,0
3432,note_on,3,0,0,,,,,2,,,,,,,62,80
3432,note_on,0,0,0,,,,,6,,,,,,,62,96
3442,note_off,10,0,0,,,,,2,,,,,,,62,0
3442,note_off,0,0,0,,,,,6,,,,,,,62,0
3444,note_on,2,0,0,,,,,2,,,,,,,63,80
3444,note_on,0,0,0,,,,,6,,,,,,,63,96
3454,note_off,10,0,0,,,,,2,,,,,,,63,0
3454,note_off,0,0,0,,,,,6,,,,,,,63,0
3456,note_on,2,0,0,,,,,0,,,,,,,68,80
3456,note_on,0,0,0,,,,,1,,,,,,,72,80
3456,note_on,0,0,0,,,,,2,,,,,,,65,80
3456,note_on,0,0,0,,,,,6,,,,,,,65,96
3458,note_off,2,0,0,,,,,5,,,,,,,75,0
3464,note_on,6,0,0,,,,,5,,,,,,,77,96
3471,note_off,7,0,0,,,,,5,,,,,,,77,0
3472,note_on,1,0,0,,,,,5,,,,,,,79,96
3477,note_off,5,0,0,,,,,0,,,,,,,68,0
3477,note_off,0,0,0,,,,,1,,,,,,,72,0
3477,note_off,0,0,0,,,,,2,,,,,,,65,0
3477,note_off,0,0,0,,,,,6,,,,,,,65,0
3479,note_off,2,0,0,,,,,5,,,,,,,79,0
3480,note_on,1,0,0,,,,,2,,,,,,,65,80
3480,note_on,0,0,0,,,,,5,,,,,,,80,96
3480,note_on,0,0,0,,,,,6,,,,,,,65,96
3487,note_off,7,0,0,,,,,5,,,,,,,80,0
3488,note_on,1,0,0,,,,,5,,,,,,,79,96
3495,note_off,7,0,0,,,,,5,,,,,,,79,0
3496,note_on,1,0,0,,,,,5,,,,,,,77,96
3501,note_off,5,0,0,,,,,2,,,,,,,65,0
3501,note_off,0,0,0,,,,,6,,,,,,,65,0
3503,note_off,2,0,0,,,,,5,,,,,,,77,0
3504,note_on,1,0,0,,,,,0,,,,,,,80,80
3504,note_on,0,0,0,,,,,1,,,,,,,71,80
3504,note_on,0,0,0,,,,,2,,,,,,,65,80
3504,note_on,0,0,0,,,,,5,,,,,,,75,96
3504,note_on,0,0,0,,,,,6,,,,,,,65,96
3511,note_off,7,0,0,,,,,5,,,,,,,75,0
3512,note_on,1,0,0,,,,,5,,,,,,,74,96
3519,note_off,7,0,0,,,,,5,,,,,,,74,0
3520,note_on,1,0,0,,,,,5,,,,,,,72,96
3525,note_off,5,0,0,,,,,0,,,,,,,80,0
3525,note_off,0,0,0,,,,,1,,,,,,,71,0
3525,note_off,0,0,0,,,,,2,,,,,,,65,0
3525,note_off,0,0,0,,,,,6,,,,,,,65,0
3527,note_off,2,0,0,,,,,5,,,,,,,72,0
3528,note_on,1,0,0,,,,,2,,,,,,,65,80
3528,note_on,0,0,0,,,,,5,,,,,,,74,96
3528,note_on,0,0,0,,,,,6,,,,,,,65,96
3549,note_off,21,0,0,,,,,2,,,,,,,65,0
3549,note_off,0,0,0,,,,,6,,,,,,,65,0
3552,note_on,3,0,0,,,,,0,,,,,,,79,80
3552,note_on,0,0,0,,,,,1,,,,,,,71,80
3552,note_on,0,0,0,,,,,2,,,,,,,63,80
3552,note_on,0,0,0,,,,,6,,,,,,,63,96
3556,note_off,4,0,0,,,,,5,,,,,,,74,0
3560,note_on,4,0,0,,,,,5,,,,,,,75,96
3567,note_off,7,0,0,,,,,5,,,,,,,75,0
3568,note_on,1,0,0,,,,,5,,,,,,,77,96
3573,note_off,5,0,0,,,,,0,,,,,,,79,0
3573,note_off,0,0,0,,,,,1,,,,,,,71,0
3573,note_off,0,0,0,,,,,2,,,,,,,63,0
3573,note_off,0,0,0,,,,,6,,,,,,,63,0
3575,note_off,2,0,0,,,,,5,,,,,,,77,0
3576,note_on,1,0,0,,,,,2,,,,,,,63,80
3576,note_on,0,0,0,,,,,5,,,,,,,79,96
3576,note_on,0,0,0,,,,,6,,,,,,,63,96
3583,note_off,7,0,0,,,,,5,,,,,,,79,0
3584,note_on,1,0,0,,,,,5,,,,,,,77,96
3591,note_off,7,0,0,,,,,5,,,,,,,77,0
3592,note_on,1,0,0,,,,,5,,,,,,,75,96
3597,note_off,5,0,0,,,,,2,,,,,,,63,0
3597,note_off,0,0,0,,,,,6,,,,,,,63,0
3599,note_off,2,0,0,,,,,5,,,,,,,75,0
3600,note_on,1,0,0,,,,,0,,,,,,,67,80
3600,note_on,0,0,0,,,,,1,,,,,,,67,80
3600,note_on,0,0,0,,,,,2,,,,,,,63,80
3600,note_on,0,0,0,,,,,5,,,,,,,73,96
3600,note_on,0,0,0,,,,,6,,,,,,,63,96
3607,note_off,7,0,0,,,,,5,,,,,,,73,0
3608,note_on,1,0,0,,,,,5,,,,,,,72,96
3615,note_off,7,0,0,,,,,5,,,,,,,72,0
3616,note_on,1,0,0,,,,,5,,,,,,,71,96
3621,note_off,5,0,0,,,,,0,,,,,,,67,0
3621,note_off,0,0,0,,,,,1,,,,,,,67,0
3621,note_off,0,0,0,,,,,2,,,,,,,63,0
3621,note_off,0,0,0,,,,,6,,,,,,,63,0
3623,note_off,2,0,0,,,,,5,,,,,,,71,0
3624,note_on,1,0,0,,,,,2,,,,,,,63,80
3624,note_on,0,0,0,,,,,5,,,,,,,72,96
3624,note_on,0,0,0,,,,,6,,,,,,,63,96
3645,note_off,21,0,0,,,,,2,,,,,,,63,0
3645,note_off,0,0,0,,,,,6,,,,,,,63,0
3648,note_on,3,0,0,,,,,0,,,,,,,77,80
3648,note_on,0,0,0,,,,,1,,,,,,,71,80
3648,note_on,0,0,0,,,,,2,,,,,,,62,80
3648,note_on,0,0,0,,,,,6,,,,,,,62,96
3652,note_off,4,0,0,,,,,5,,,,,,,72,0
3656,note_on,4,0,0,,,,,5,,,,,,,79,96
3663,note_off,7,0,0,,,,,5,,,,,,,79,0
3664,note_on,1,0,0,,,,,5,,,,,,,77,96
3669,note_off,5,0,0,,,,,0,,,,,,,77,0
3669,note_off,0,0,0,,,,,1,,,,,,,71,0
3669,note_off,0,0,0,,,,,2,,,,,,,62,0
3669,note_off,0,0,0,,,,,6,,,,,,,62,0
3671,note_off,2,0,0,,,,,5,,,,,,,77,0
3672,note_on,1,0,0,,,,,0,,,,,,,75,80
3672,note_on,0,0,0,,,,,1,,,,,,,72,80
3672,note_on,0,0,0,,,,,2,,,,,,,60,80
3672,note_on,0,0,0,,,,,5,,,,,,,67,96
3672,note_on,0,0,0,,,,,6,,,,,,,60,96
3679,note_off,7,0,0,,,,,5,,,,,,,67,0
3680,note_on,1,0,0,,,,,5,,,,,,,77,96
3687,note_off,7,0,0,,,,,5,,,,,,,77,0
3688,note_on,1,0,0,,,,,5,,,,,,,75,96
3693,note_off,5,0,0,,,,,0,,,,,,,75,0
3693,note_off,0,0,0,,,,,1,,,,,,,72,0
3693,note_off,0,0,0,,,,,2,,,,,,,60,0
3693,note_off,0,0,0,,,,,6,,,,,,,60,0
3695,note_off,2,0,0,,,,,5,,,,,,,75,0
3696,note_on,1,0,0,,,,,0,,,,,,,74,80
3696,note_on,0,0,0,,,,,1,,,,,,,67,80
3696,note_on,0,0,0,,,,,2,,,,,,,58,80
3696,note_on,0,0,0,,,,,5,,,,,,,67,96
3696,note_on,0,0,0,,,,,6,,,,,,,58,96
3703,note_off,7,0,0,,,,,5,,,,,,,67,0
3704,note_on,1,0,0,,,,,5,,,,,,,75,96
3711,note_off,7,0,0,,,,,5,,,,,,,75,0
3712,note_on,1,0,0,,,,,5,,,,,,,74,96
3717,note_off,5,0,0,,,,,0,,,,,,,74,0
3717,note_off,0,0,0,,,,,1,,,,,,,67,0
3717,note_off,0,0,0,,,,,2,,,,,,,58,0
3717,note_off,0,0,0,,,,,6,,,,,,,58,0
3719,note_off,2,0,0,,,,,5,,,,,,,74,0
3720,note_on,1,0,0,,,,,0,,,,,,,72,80
3720,note_on,0,0,0,,,,,1,,,,,,,68,80
3720,note_on,0,0,0,,,,,2,,,,,,,56,80
3720,note_on,0,0,0,,,,,5,,,,,,,65,96
3720,note_on,0,0,0,,,,,6,,,,,,,56,96
3727,note_off,7,0,0,,,,,5,,,,,,,65,0
3728,note_on,1,0,0,,,,,5,,,,,,,74,96
3735,note_off,7,0,0,,,,,5,,,,,,,74,0
3736,note_on,1,0,0,,,,,5,,,,,,,72,96
3741,note_off,5,0,0,,,,,0,,,,,,,72,0
3741,note_off,0,0,0,,,,,1,,,,,,,68,0
3741,note_off,0,0,0,,,,,2,,,,,,,56,0
3741,note_off,0,0,0,,,,,6,,,,,,,56,0
3743,note_off,2,0,0,,,,,5,,,,,,,72,0
3744,note_on,1,0,0,,,,,0,,,,,,,71,80
3744,note_on,0,0,0,,,,,1,,,,,,,62,80
3744,note_on,0,0,0,,,,,2,,,,,,,55,80
3744,note_on,0,0,0,,,,,5,,,,,,,74,96
3744,note_on,0,0,0,,,,,6,,,,,,,55,96
3751,note_off,7,0,0,,,,,5,,,,,,,74,0
3752,note_on,1,0,0,,,,,5,,,,,,,78,96
3759,note_off,7,0,0,,,,,5,,,,,,,78,0
3760,note_on,1,0,0,,,,,5,,,,,,,79,96
3765,note_off,5,0,0,,,,,0,,,,,,,71,0
3765,note_off,0,0,0,,,,,1,,,,,,,62,0
3765,note_off,0,0,0,,,,,2,,,,,,,55,0
3767,note_off,2,0,0,,,,,5,,,,,,,79,0
3768,note_on,1,0,0,,,,,0,,,,,,,67,80
3768,note_on,0,0,0,,,,,1,,,,,,,59,80
3768,note_on,0,0,0,,,,,2,,,,,,,67,80
3768,note_on,0,0,0,,,,,5,,,,,,,67,96
3775,note_off,7,0,0,,,,,6,,,,,,,55,0
3778,note_off,3,0,0,,,,,2,,,,,,,67,0
3780,note_on,2,0,0,,,,,2,,,,,,,68,80
3780,note_on,0,0,0,,,,,6,,,,,,,56,96
3789,note_off,9,0,0,,,,,0,,,,,,,67,0
3789,note_off,0,0,0,,,,,1,,,,,,,59,0
3789,note_off,0,0,0,,,,,5,,,,,,,67,0
3790,note_off,1,0,0,,,,,2,,,,,,,68,0
3790,note_off,0,0,0,,,,,6,,,,,,,56,0
3792,note_on,2,0,0,,,,,0,,,,,,,62,80
3792,note_on,0,0,0,,,,,1,,,,,,,59,80
3792,note_on,0,0,0,,,,,2,,,,,,,67,80
3792,note_on,0,0,0,,,,,6,,,,,,,55,96
3802,note_off,10,0,0,,,,,2,,,,,,,67,0
3802,note_off,0,0,0,,,,,6,,,,,,,55,0
3804,note_on,2,0,0,,,,,2,,,,,,,65,80
3804,note_on,0,0,0,,,,,6,,,,,,,53,96
3813,note_off,9,0,0,,,,,0,,,,,,,62,0
3813,note_off,0,0,0,,,,,1,,,,,,,59,0
3814,note_off,1,0,0,,,,,2,,,,,,,65,0
3814,note_off,0,0,0,,,,,6,,,,,,,53,0
3816,note_on,2,0,0,,,,,0,,,,,,,74,80
3816,note_on,0,0,0,,,,,1,,,,,,,71,80
3816,note_on,0,0,0,,,,,2,,,,,,,63,80
3816,note_on,0,0,0,,,,,6,,,,,,,51,96
3826,note_off,10,0,0,,,,,2,,,,,,,63,0
3826,note_off,0,0,0,,,,,6,,,,,,,51,0
3828,note_off,2,0,0,,,,,0,,,,,,,74,0
3828,note_on,0,0,0,,,,,0,,,,,,,75,80
3828,note_off,0,0,0,,,,,1,,,,,,,71,0
3828,note_on,0,0,0,,,,,1,,,,,,,72,80
3828,note_on,0,0,0,,,,,2,,,,,,,62,80
3828,note_on,0,0,0,,,,,6,,,,,,,50,96
3834,note_off,6,0,0,,,,,0,,,,,,,75,0
3834,note_on,0,0,0,,,,,0,,,,,,,77,80
3834,note_off,0,0,0,,,,,1,,,,,,,72,0
3834,note_on,0,0,0,,,,,1,,,,,,,74,80
3838,note_off,4,0,0,,,,,2,,,,,,,62,0
3838,note_off,0,0,0,,,,,6,,,,,,,50,0
3839,note_off,1,0,0,,,,,0,,,,,,,77,0
3839,note_off,0,0,0,,,,,1,,,,,,,74,0
3840,note_on,1,0,0,,,,,0,,,,,,,75,96
3840,note_on,0,0,0,,,,,1,,,,,,,67,96
3840,note_on,0,0,0,,,,,2,,,,,,,60,96
3840,note_on,0,0,0,,,,,3,,,,,,,48,96
3840,note_on,0,0,0,,,,,4,,,,,,,36,96
3840,note_on,0,0,0,,,,,5,,,,,,,75,96
3840,note_on,0,0,0,,,,,5,,,,,,,72,96
3840,note_on,0,0,0,,,,,5,,,,,,,67,96
3840,note_on,0,0,0,,,,,6,,,,,,,48,96
3861,note_off,21,0,0,,,,,0,,,,,,,75,0
3861,note_off,0,0,0,,,,,1,,,,,,,67,0
3861,note_off,0,0,0,,,,,2,,,,,,,60,0
3861,note_off,0,0,0,,,,,3,,,,,,,48,0
3861,note_off,0,0,0,,,,,4,,,,,,,36,0
3861,note_off,0,0,0,,,,,5,,,,,,,75,0
3861,note_off,0,0,0,,,,,5,,,,,,,72,0
3861,note_off,0,0,0,,,,,5,,,,,,,67,0
3861,note_off,0,0,0,,,,,6,,,,,,,48,0
3864,note_on,3,0,0,,,,,3,,,,,,,48,96
3864,note_on,0,0,0,,,,,4,,,,,,,36,96
3864,note_on,0,0,0,,,,,6,,,,,,,48,96
3885,note_off,21,0,0,,,,,3,,,,,,,48,0
3885,note_off,0,0,0,,,,,4,,,,,,,36,0
3885,note_off,0,0,0,,,,,6,,,,,,,48,0
3888,note_on,3,0,0,,,,,0,,,,,,,75,96
3888,note_on,0,0,0,,,,,1,,,,,,,70,96
3888,note_on,0,0,0,,,,,2,,,,,,,67,96
3888,note_on,0,0,0,,,,,3,,,,,,,48,96
3888,note_on,0,0,0,,,,,4,,,,,,,36,96
3888,note_on,0,0,0,,,,,5,,,,,,,75,96
3888,note_on,0,0,0,,,,,5,,,,,,,70,96
3888,note_on,0,0,0,,,,,5,,,,,,,67,96
3888,note_on,0,0,0,,,,,6,,,,,,,48,96
3909,note_off,21,0,0,,,,,0,,,,,,,75,0
3909,note_off,0,0,0,,,,,1,,,,,,,70,0
3909,note_off,0,0,0,,,,,2,,,,,,,67,0
3909,note_off,0,0,0,,,,,3,,,,,,,48,0
3909,note_off,0,0,0,,,,,4,,,,,,,36,0
3909,note_off,0,0,0,,,,,5,,,,,,,75,0
3909,note_off,0,0,0,,,,,5,,,,,,,70,0
3909,note_off,0,0,0,,,,,5,,,,,,,67,0
3909,note_off,0,0,0,,,,,6,,,,,,,48,0
3912,note_on,3,0,0,,,,,3,,,,,,,51,96
3912,note_on,0,0,0,,,,,4,,,,,,,39,96
3912,note_on,0,0,0,,,,,6,,,,,,,51,96
3924,note_off,12,0,0,,,,,3,,,,,,,51,0
3924,note_on,0,0,0,,,,,3,,,,,,,53,96
3924,note_off,0,0,0,,,,,4,,,,,,,39,0
3924,note_on,0,0,0,,,,,4,,,,,,,41,96
3924,note_off,0,0,0,,,,,6,,,,,,,51,0
3924,note_on,0,0,0,,,,,6,,,,,,,53,96
3930,note_off,6,0,0,,,,,3,,,,,,,53,0
3930,note_on,0,0,0,,,,,3,,,,,,,55,96
3930,note_off,0,0,0,,,,,4,,,,,,,41,0
3930,note_on,0,0,0,,,,,4,,,,,,,43,96
3930,note_off,0,0,0,,,,,6,,,,,,,53,0
3930,note_on,0,0,0,,,,,6,,,,,,,55,96
3935,note_off,5,0,0,,,,,3,,,,,,,55,0
3935,note_off,0,0,0,,,,,4,,,,,,,43,0
3935,note_off,0,0,0,,,,,6,,,,,,,55,0
3936,note_on,1,0,0,,,,,0,,,,,,,75,96
3936,note_on,0,0,0,,,,,1,,,,,,,68,96
3936,note_on,0,0,0,,,,,2,,,,,,,65,96
3936,note_on,0,0,0,,,,,3,,,,,,,48,96
3936,note_on,0,0,0,,,,,4,,,,,,,36,96
3936,note_on,0,0,0,,,,,5,,,,,,,75,96
3936,note_on,0,0,0,,,,,5,,,,,,,68,96
3936,note_on,0,0,0,,,,,5,,,,,,,65,96
3936,note_on,0,0,0,,,,,6,,,,,,,48,96
3957,note_off,21,0,0,,,,,0,,,,,,,75,0
3957,note_off,0,0,0,,,,,1,,,,,,,68,0
3957,note_off,0,0,0,,,,,2,,,,,,,65,0
3957,note_off,0,0,0,,,,,3,,,,,,,48,0
3957,note_off,0,0,0,,,,,4,,,,,,,36,0
3957,note_off,0,0,0,,,,,5,,,,,,,75,0
3957,note_off,0,0,0,,,,,5,,,,,,,68,0
3957,note_off,0,0,0,,,,,5,,,,,,,65,0
3957,note_off,0,0,0,,,,,6,,,,,,,48,0
3960,note_on,3,0,0,,,,,3,,,,,,,48,96
3960,note_on,0,0,0,,,,,4,,,,,,,36,96
3960,note_on,0,0,0,,,,,6,,,,,,,48,96
3981,note_off,21,0,0,,,,,3,,,,,,,48,0
3981,note_off,0,0,0,,,,,4,,,,,,,36,0
3981,note_off,0,0,0,,,,,6,,,,,,,48,0
3984,note_on,3,0,0,,,,,0,,,,,,,74,96
3984,note_on,0,0,0,,,,,1,,,,,,,68,96
3984,note_on,0,0,0,,,,,2,,,,,,,65,96
3984,note_on,0,0,0,,,,,3,,,,,,,48,96
3984,note_on,0,0,0,,,,,4,,,,,,,36,96
3984,note_on,0,0,0,,,,,5,,,,,,,74,96
3984,note_on,0,0,0,,,,,5,,,,,,,68,96
3984,note_on,0,0,0,,,,,5,,,,,,,65,96
3984,note_on,0,0,0,,,,,6,,,,,,,48,96
4005,note_off,21,0,0,,,,,0,,,,,,,74,0
4005,note_off,0,0,0,,,,,1,,,,,,,68,0
4005,note_off,0,0,0,,,,,2,,,,,,,65,0
4005,note_off,0,0,0,,,,,3,,,,,,,48,0
4005,note_off,0,0,0,,,,,4,,,,,,,36,0
4005,note_off,0,0,0,,,,,5,,,,,,,74,0
4005,note_off,0,0,0,,,,,5,,,,,,,68,0
4005,note_off,0,0,0,,,,,5,,,,,,,65,0
4005,note_off,0,0,0,,,,,6,,,,,,,48,0
4008,note_on,3,0,0,,,,,3,,,,,,,53,96
4008,note_on,0,0,0,,,,,4,,,,,,,41,96
4008,note_on,0,0,0,,,,,6,,,,,,,53,96
4020,note_off,12,0,0,,,,,3,,,,,,,53,0
4020,note_on,0,0,0,,,,,3,,,,,,,55,96
4020,note_off,0,0,0,,,,,4,,,,,,,41,0
4020,note_on,0,0,0,,,,,4,,,,,,,43,96
4020,note_off,0,0,0,,,,,6,,,,,,,53,0
4020,note_on,0,0,0,,,,,6,,,,,,,55,96
4026,note_off,6,0,0,,,,,3,,,,,,,55,0
4026,note_on,0,0,0,,,,,3,,,,,,,56,96
4026,note_off,0,0,0,,,,,4,,,,,,,43,0
4026,note_on,0,0,0,,,,,4,,,,,,,44,96
4026,note_off,0,0,0,,,,,6,,,,,,,55,0
4026,note_on,0,0,0,,,,,6,,,,,,,56,96
4031,note_off,5,0,0,,,,,3,,,,,,,56,0
4031,note_off,0,0,0,,,,,4,,,,,,,44,0
4031,note_off,0,0,0,,,,,6,,,,,,,56,0
4032,note_on,1,0,0,,,,,0,,,,,,,71,96
4032,note_on,0,0,0,,,,,1,,,,,,,62,96
4032,note_on,0,0,0,,,,,2,,,,,,,65,96
4032,note_on,0,0,0,,,,,3,,,,,,,48,96
4032,note_on,0,0,0,,,,,4,,,,,,,36,96
4032,note_on,0,0,0,,,,,5,,,,,,,71,96
4032,note_on,0,0,0,,,,,5,,,,,,,65,96
4032,note_on,0,0,0,,,,,5,,,,,,,62,96
4032,note_on,0,0,0,,,,,6,,,,,,,48,96
4053,note_off,21,0,0,,,,,0,,,,,,,71,0
4053,note_off,0,0,0,,,,,1,,,,,,,62,0
4053,note_off,0,0,0,,,,,2,,,,,,,65,0
4053,note_off,0,0,0,,,,,3,,,,,,,48,0
4053,note_off,0,0,0,,,,,4,,,,,,,36,0
4053,note_off,0,0,0,,,,,5,,,,,,,71,0
4053,note_off,0,0,0,,,,,5,,,,,,,65,0
4053,note_off,0,0,0,,,,,5,,,,,,,62,0
4053,note_off,0,0,0,,,,,6,,,,,,,48,0
4056,note_on,3,0,0,,,,,3,,,,,,,48,96
4056,note_on,0,0,0,,,,,4,,,,,,,36,96
4056,note_on,0,0,0,,,,,6,,,,,,,48,96
4077,note_off,21,0,0,,,,,3,,,,,,,48,0
4077,note_off,0,0,0,,,,,4,,,,,,,36,0
4077,note_off,0,0,0,,,,,6,,,,,,,48,0
4080,note_on,3,0,0,,,,,0,,,,,,,74,96
4080,note_on,0,0,0,,,,,1,,,,,,,65,96
4080,note_on,0,0,0,,,,,2,,,,,,,59,96
4080,note_on,0,0,0,,,,,3,,,,,,,48,96
4080,note_on,0,0,0,,,,,4,,,,,,,36,96
4080,note_on,0,0,0,,,,,5,,,,,,,74,96
4080,note_on,0,0,0,,,,,5,,,,,,,65,96
4080,note_on,0,0,0,,,,,6,,,,,,,48,96
4101,note_off,21,0,0,,,,,0,,,,,,,74,0
4101,note_off,0,0,0,,,,,1,,,,,,,65,0
4101,note_off,0,0,0,,,,,2,,,,,,,59,0
4101,note_off,0,0,0,,,,,3,,,,,,,48,0
4101,note_off,0,0,0,,,,,4,,,,,,,36,0
4101,note_off,0,0,0,,,,,5,,,,,,,74,0
4101,note_off,0,0,0,,,,,5,,,,,,,65,0
4101,note_off,0,0,0,,,,,6,,,,,,,48,0
4104,note_on,3,0,0,,,,,3,,,,,,,59,96
4104,note_on,0,0,0,,,,,4,,,,,,,47,96
4104,note_on,0,0,0,,,,,6,,,,,,,59,96
4116,note_off,12,0,0,,,,,3,,,,,,,59,0
4116,note_on,0,0,0,,,,,3,,,,,,,60,96
4116,note_off,0,0,0,,,,,4,,,,,,,47,0
4116,note_on,0,0,0,,,,,4,,,,,,,48,96
4116,note_off,0,0,0,,,,,6,,,,,,,59,0
4116,note_on,0,0,0,,,,,6,,,,,,,60,96
4122,note_off,6,0,0,,,,,3,,,,,,,60,0
4122,note_on,0,0,0,,,,,3,,,,,,,62,96
4122,note_off,0,0,0,,,,,4,,,,,,,48,0
4122,note_on,0,0,0,,,,,4,,,,,,,50,96
4122,note_off,0,0,0,,,,,6,,,,,,,60,0
4122,note_on,0,0,0,,,,,6,,,,,,,62,96
4127,note_off,5,0,0,,,,,3,,,,,,,62,0
4127,note_off,0,0,0,,,,,4,,,,,,,50,0
4127,note_off,0,0,0,,,,,6,,,,,,,62,0
4128,note_on,1,0,0,,,,,0,,,,,,,74,96
4128,note_on,0,0,0,,,,,1,,,,,,,65,96
4128,note_on,0,0,0,,,,,2,,,,,,,55,96
4128,note_on,0,0,0,,,,,3,,,,,,,48,96
4128,note_on,0,0,0,,,,,4,,,,,,,36,96
4128,note_on,0,0,0,,,,,5,,,,,,,74,96
4128,note_on,0,0,0,,,,,5,,,,,,,65,96
4128,note_on,0,0,0,,,,,6,,,,,,,48,96
4149,note_off,21,0,0,,,,,0,,,,,,,74,0
4149,note_off,0,0,0,,,,,1,,,,,,,65,0
4149,note_off,0,0,0,,,,,2,,,,,,,55,0
4149,note_off,0,0,0,,,,,3,,,,,,,48,0
4149,note_off,0,0,0,,,,,4,,,,,,,36,0
4149,note_off,0,0,0,,,,,5,,,,,,,74,0
4149,note_off,0,0,0,,,,,5,,,,,,,65,0
4149,note_off,0,0,0,,,,,6,,,,,,,48,0
4152,note_on,3,0,0,,,,,3,,,,,,,48,96
4152,note_on,0,0,0,,,,,4,,,,,,,36,96
4152,note_on,0,0,0,,,,,6,,,,,,,48,96
4173,note_off,21,0,0,,,,,3,,,,,,,48,0
4173,note_off,0,0,0,,,,,4,,,,,,,36,0
4173,note_off,0,0,0,,,,,6,,,,,,,48,0
4176,note_on,3,0,0,,,,,0,,,,,,,72,96
4176,note_on,0,0,0,,,,,1,,,,,,,63,96
4176,note_on,0,0,0,,,,,2,,,,,,,67,96
4176,note_on,0,0,0,,,,,3,,,,,,,48,96
4176,note_on,0,0,0,,,,,4,,,,,,,36,96
4176,note_on,0,0,0,,,,,5,,,,,,,72,96
4176,note_on,0,0,0,,,,,5,,,,,,,63,96
4176,note_on,0,0,0,,,,,6,,,,,,,48,96
4197,note_off,21,0,0,,,,,0,,,,,,,72,0
4197,note_off,0,0,0,,,,,1,,,,,,,63,0
4197,note_off,0,0,0,,,,,2,,,,,,,67,0
4197,note_off,0,0,0,,,,,3,,,,,,,48,0
4197,note_off,0,0,0,,,,,4,,,,,,,36,0
4197,note_off,0,0,0,,,,,5,,,,,,,72,0
4197,note_off,0,0,0,,,,,5,,,,,,,63,0
4197,note_off,0,0,0,,,,,6,,,,,,,48,0
4200,note_on,3,0,0,,,,,3,,,,,,,55,96
4200,note_on,0,0,0,,,,,4,,,,,,,43,96
4200,note_on,0,0,0,,,,,6,,,,,,,55,96
4212,note_off,12,0,0,,,,,3,,,,,,,55,0
4212,note_on,0,0,0,,,,,3,,,,,,,57,96
4212,note_off,0,0,0,,,,,4,,,,,,,43,0
4212,note_on,0,0,0,,,,,4,,,,,,,45,96
4212,note_off,0,0,0,,,,,6,,,,,,,55,0
4212,note_on,0,0,0,,,,,6,,,,,,,57,96
4218,note_off,6,0,0,,,,,3,,,,,,,57,0
4218,note_on,0,0,0,,,,,3,,,,,,,59,96
4218,note_off,0,0,0,,,,,4,,,,,,,45,0
4218,note_on,0,0,0,,,,,4,,,,,,,47,96
4218,note_off,0,0,0,,,,,6,,,,,,,57,0
4218,note_on,0,0,0,,,,,6,,,,,,,59,96
4223,note_off,5,0,0,,,,,3,,,,,,,59,0
4223,note_off,0,0,0,,,,,4,,,,,,,47,0
4223,note_off,0,0,0,,,,,6,,,,,,,59,0
4224,note_on,1,0,0,,,,,0,,,,,,,72,80
4224,note_on,0,0,0,,,,,1,,,,,,,67,80
4224,note_on,0,0,0,,,,,2,,,,,,,60,80
4224,note_on,0,0,0,,,,,3,,,,,,,48,80
4224,note_on,0,0,0,,,,,4,,,,,,,36,80
4224,note_on,0,0,0,,,,,5,,,,,,,75,96
4224,note_on,0,0,0,,,,,6,,,,,,,48,96
4245,note_off,21,0,0,,,,,0,,,,,,,72,0
4245,note_off,0,0,0,,,,,1,,,,,,,67,0
4245,note_off,0,0,0,,,,,2,,,,,,,60,0
4245,note_off,0,0,0,,,,,6,,,,,,,48,0
4248,note_on,3,0,0,,,,,2,,,,,,,60,80
4248,note_on,0,0,0,,,,,6,,,,,,,60,96
4266,note_off,18,0,0,,,,,3,,,,,,,48,0
4266,note_off,0,0,0,,,,,4,,,,,,,36,0
4269,note_off,3,0,0,,,,,2,,,,,,,60,0
4269,note_off,0,0,0,,,,,6,,,,,,,60,0
4272,note_on,3,0,0,,,,,0,,,,,,,80,80
4272,note_on,0,0,0,,,,,1,,,,,,,72,80
4272,note_on,0,0,0,,,,,2,,,,,,,60,80
4272,note_on,0,0,0,,,,,6,,,,,,,60,96
4273,note_off,1,0,0,,,,,5,,,,,,,75,0
4280,note_on,7,0,0,,,,,5,,,,,,,72,96
4287,note_off,7,0,0,,,,,5,,,,,,,72,0
4288,note_on,1,0,0,,,,,5,,,,,,,71,96
4293,note_off,5,0,0,,,,,0,,,,,,,80,0
4293,note_off,0,0,0,,,,,1,,,,,,,72,0
4293,note_off,0,0,0,,,,,2,,,,,,,60,0
4293,note_off,0,0,0,,,,,6,,,,,,,60,0
4295,note_off,2,0,0,,,,,5,,,,,,,71,0
4296,note_on,1,0,0,,,,,2,,,,,,,60,80
4296,note_on,0,0,0,,,,,5,,,,,,,72,96
4296,note_on,0,0,0,,,,,6,,,,,,,60,96
4303,note_off,7,0,0,,,,,5,,,,,,,72,0
4304,note_on,1,0,0,,,,,5,,,,,,,75,96
4311,note_off,7,0,0,,,,,5,,,,,,,75,0
4312,note_on,1,0,0,,,,,5,,,,,,,80,96
4317,note_off,5,0,0,,,,,2,,,,,,,60,0
4317,note_off,0,0,0,,,,,6,,,,,,,60,0
4319,note_off,2,0,0,,,,,5,,,,,,,80,0
4320,note_on,1,0,0,,,,,0,,,,,,,74,80
4320,note_on,0,0,0,,,,,1,,,,,,,65,80
4320,note_on,0,0,0,,,,,2,,,,,,,58,80
4320,note_on,0,0,0,,,,,5,,,,,,,80,96
4320,note_on,0,0,0,,,,,6,,,,,,,58,96
4341,note_off,21,0,0,,,,,0,,,,,,,74,0
4341,note_off,0,0,0,,,,,1,,,,,,,65,0
4341,note_off,0,0,0,,,,,2,,,,,,,58,0
4341,note_off,0,0,0,,,,,5,,,,,,,80,0
4341,note_off,0,0,0,,,,,6,,,,,,,58,0
4344,note_on,3,0,0,,,,,2,,,,,,,58,80
4344,note_on,0,0,0,,,,,5,,,,,,,75,96
4344,note_on,0,0,0,,,,,6,,,,,,,58,96
4347,note_off,3,0,0,,,,,5,,,,,,,75,0
4347,note_on,0,0,0,,,,,5,,,,,,,74,96
4350,note_off,3,0,0,,,,,5,,,,,,,74,0
4350,note_on,0,0,0,,,,,5,,,,,,,75,96
4353,note_off,3,0,0,,,,,5,,,,,,,75,0
4353,note_on,0,0,0,,,,,5,,,,,,,74,96
4356,note_off,3,0,0,,,,,5,,,,,,,74,0
4356,note_on,0,0,0,,,,,5,,,,,,,75,96
4359,note_off,3,0,0,,,,,5,,,,,,,75,0
4359,note_on,0,0,0,,,,,5,,,,,,,74,96
4362,note_off,3,0,0,,,,,5,,,,,,,74,0
4362,note_on,0,0,0,,,,,5,,,,,,,75,96
4365,note_off,3,0,0,,,,,2,,,,,,,58,0
4365,note_off,0,0,0,,,,,5,,,,,,,75,0
4365,note_on,0,0,0,,,,,5,,,,,,,74,96
4365,note_off,0,0,0,,,,,6,,,,,,,58,0
4368,note_on,3,0,0,,,,,0,,,,,,,79,80
4368,note_on,0,0,0,,,,,1,,,,,,,67,80
4368,note_on,0,0,0,,,,,2,,,,,,,58,80
4368,note_on,0,0,0,,,,,6,,,,,,,58,96
4375,note_off,7,0,0,,,,,5,,,,,,,74,0
4376,note_on,1,0,0,,,,,5,,,,,,,70,96
4383,note_off,7,0,0,,,,,5,,,,,,,70,0
4384,note_on,1,0,0,,,,,5,,,,,,,69,96
4389,note_off,5,0,0,,,,,0,,,,,,,79,0
4389,note_off,0,0,0,,,,,1,,,,,,,67,0
4389,note_off,0,0,0,,,,,2,,,,,,,58,0
4389,note_off,0,0,0,,,,,6,,,,,,,58,0
4391,note_off,2,0,0,,,,,5,,,,,,,69,0
4392,note_on,1,0,0,,,,,2,,,,,,,58,80
4392,note_on,0,0,0,,,,,5,,,,,,,70,96
4392,note_on,0,0,0,,,,,6,,,,,,,58,96
4399,note_off,7,0,0,,,,,5,,,,,,,70,0
4400,note_on,1,0,0,,,,,5,,,,,,,74,96
4407,note_off,7,0,0,,,,,5,,,,,,,74,0
4408,note_on,1,0,0,,,,,5,,,,,,,79,96
4413,note_off,5,0,0,,,,,2,,,,,,,58,0
4413,note_off,0,0,0,,,,,6,,,,,,,58,0
4415,note_off,2,0,0,,,,,5,,,,,,,79,0
4416,note_on,1,0,0,,,,,0,,,,,,,72,80
4416,note_on,0,0,0,,,,,1,,,,,,,69,80
4416,note_on,0,0,0,,,,,2,,,,,,,57,80
4416,note_on,0,0,0,,,,,5,,,,,,,79,96
4416,note_on,0,0,0,,,,,6,,,,,,,57,96
4424,note_off,8,0,0,,,,,5,,,,,,,79,0
4424,note_on,0,0,0,,,,,5,,,,,,,78,96
4432,note_off,8,0,0,,,,,5,,,,,,,78,0
4432,note_on,0,0,0,,,,,5,,,,,,,76,96
4437,note_off,5,0,0,,,,,0,,,,,,,72,0
4437,note_off,0,0,0,,,,,1,,,,,,,69,0
4437,note_off,0,0,0,,,,,2,,,,,,,57,0
4437,note_off,0,0,0,,,,,6,,,,,,,57,0
4439,note_off,2,0,0,,,,,5,,,,,,,76,0
4440,note_on,1,0,0,,,,,2,,,,,,,57,80
4440,note_on,0,0,0,,,,,5,,,,,,,78,96
4440,note_on,0,0,0,,,,,6,,,,,,,57,96
4448,note_off,8,0,0,,,,,5,,,,,,,78,0
4448,note_on,0,0,0,,,,,5,,,,,,,81,96
4456,note_off,8,0,0,,,,,5,,,,,,,81,0
4456,note_on,0,0,0,,,,,5,,,,,,,84,96
4461,note_off,5,0,0,,,,,2,,,,,,,57,0
4461,note_off,0,0,0,,,,,6,,,,,,,57,0
4463,note_off,2,0,0,,,,,5,,,,,,,84,0
4464,note_on,1,0,0,,,,,0,,,,,,,75,80
4464,note_on,0,0,0,,,,,1,,,,,,,69,80
4464,note_on,0,0,0,,,,,2,,,,,,,55,80
4464,note_on,0,0,0,,,,,5,,,,,,,84,96
4464,note_on,0,0,0,,,,,6,,,,,,,55,96
4472,note_off,8,0,0,,,,,5,,,,,,,84,0
4472,note_on,0,0,0,,,,,5,,,,,,,82,96
4480,note_off,8,0,0,,,,,5,,,,,,,82,0
4480,note_on,0,0,0,,,,,5,,,,,,,81,96
4485,note_off,5,0,0,,,,,0,,,,,,,75,0
4485,note_off,0,0,0,,,,,1,,,,,,,69,0
4485,note_off,0,0,0,,,,,2,,,,,,,55,0
4485,note_off,0,0,0,,,,,6,,,,,,,55,0
4487,note_off,2,0,0,,,,,5,,,,,,,81,0
4488,note_on,1,0,0,,,,,2,,,,,,,55,80
4488,note_on,0,0,0,,,,,5,,,,,,,79,96
4488,note_on,0,0,0,,,,,6,,,,,,,55,96
4496,note_off,8,0,0,,,,,5,,,,,,,79,0
4496,note_on,0,0,0,,,,,5,,,,,,,77,96
4504,note_off,8,0,0,,,,,5,,,,,,,77,0
4504,note_on,0,0,0,,,,,5,,,,,,,75,96
4509,note_off,5,0,0,,,,,2,,,,,,,55,0
4509,note_off,0,0,0,,,,,6,,,,,,,55,0
4511,note_off,2,0,0,,,,,5,,,,,,,75,0
4512,note_on,1,0,0,,,,,0,,,,,,,81,80
4512,note_on,0,0,0,,,,,1,,,,,,,72,80
4512,note_on,0,0,0,,,,,2,,,,,,,54,80
4512,note_on,0,0,0,,,,,5,,,,,,,74,96
4512,note_on,0,0,0,,,,,6,,,,,,,54,96
4533,note_off,21,0,0,,,,,0,,,,,,,81,0
4533,note_off,0,0,0,,,,,1,,,,,,,72,0
4533,note_off,0,0,0,,,,,2,,,,,,,54,0
4533,note_off,0,0,0,,,,,6,,,,,,,54,0
4536,note_on,3,0,0,,,,,2,,,,,,,54,80
4536,note_on,0,0,0,,,,,6,,,,,,,54,96
4557,note_off,21,0,0,,,,,2,,,,,,,54,0
4557,note_off,0,0,0,,,,,6,,,,,,,54,0
4560,note_on,3,0,0,,,,,0,,,,,,,78,80
4560,note_on,0,0,0,,,,,1,,,,,,,72,80
4560,note_on,0,0,0,,,,,2,,,,,,,50,80
4560,note_on,0,0,0,,,,,6,,,,,,,50,96
4561,note_off,1,0,0,,,,,5,,,,,,,74,0
4568,note_on,7,0,0,,,,,5,,,,,,,78,96
4575,note_off,7,0,0,,,,,5,,,,,,,78,0
4576,note_on,1,0,0,,,,,5,,,,,,,81,96
4581,note_off,5,0,0,,,,,0,,,,,,,78,0
4581,note_off,0,0,0,,,,,1,,,,,,,72,0
4581,note_off,0,0,0,,,,,2,,,,,,,50,0
4581,note_off,0,0,0,,,,,6,,,,,,,50,0
4583,note_off,2,0,0,,,,,5,,,,,,,81,0
4584,note_on,1,0,0,,,,,2,,,,,,,50,80
4584,note_on,0,0,0,,,,,5,,,,,,,84,96
4584,note_on,0,0,0,,,,,6,,,,,,,50,96
4591,note_off,7,0,0,,,,,5,,,,,,,84,0
4592,note_on,1,0,0,,,,,5,,,,,,,82,96
4599,note_off,7,0,0,,,,,5,,,,,,,82,0
4600,note_on,1,0,0,,,,,5,,,,,,,81,96
4605,note_off,5,0,0,,,,,2,,,,,,,50,0
4605,note_off,0,0,0,,,,,6,,,,,,,50,0
4607,note_off,2,0,0,,,,,5,,,,,,,81,0
4608,note_on,1,0,0,,,,,0,,,,,,,74,80
4608,note_on,0,0,0,,,,,1,,,,,,,70,80
4608,note_on,0,0,0,,,,,2,,,,,,,55,80
4608,note_on,0,0,0,,,,,3,,,,,,,43,80
4608,note_on,0,0,0,,,,,4,,,,,,,31,80
4608,note_on,0,0,0,,,,,5,,,,,,,82,96
4608,note_on,0,0,0,,,,,6,,,,,,,43,96
4615,note_off,7,0,0,,,,,5,,,,,,,82,0
4616,note_on,1,0,0,,,,,5,,,,,,,86,96
4623,note_off,7,0,0,,,,,5,,,,,,,86,0
4624,note_on,1,0,0,,,,,5,,,,,,,84,96
4629,note_off,5,0,0,,,,,0,,,,,,,74,0
4629,note_off,0,0,0,,,,,1,,,,,,,70,0
4629,note_off,0,0,0,,,,,2,,,,,,,55,0
4629,note_off,0,0,0,,,,,3,,,,,,,43,0
4629,note_off,0,0,0,,,,,4,,,,,,,31,0
4629,note_off,0,0,0,,,,,6,,,,,,,43,0
4631,note_off,2,0,0,,,,,5,,,,,,,84,0
4632,note_on,1,0,0,,,,,3,,,,,,,43,80
4632,note_on,0,0,0,,,,,4,,,,,,,31,80
4632,note_on,0,0,0,,,,,5,,,,,,,82,96
4632,note_on,0,0,0,,,,,6,,,,,,,43,96
4639,note_off,7,0,0,,,,,5,,,,,,,82,0
4640,note_on,1,0,0,,,,,5,,,,,,,81,96
4647,note_off,7,0,0,,,,,5,,,,,,,81,0
4648,note_on,1,0,0,,,,,5,,,,,,,79,96
4653,note_off,5,0,0,,,,,3,,,,,,,43,0
4653,note_off,0,0,0,,,,,4,,,,,,,31,0
4653,note_off,0,0,0,,,,,6,,,,,,,43,0
4655,note_off,2,0,0,,,,,5,,,,,,,79,0
4656,note_on,1,0,0,,,,,0,,,,,,,77,80
4656,note_on,0,0,0,,,,,1,,,,,,,74,80
4656,note_on,0,0,0,,,,,2,,,,,,,59,80
4656,note_on,0,0,0,,,,,3,,,,,,,43,80
4656,note_on,0,0,0,,,,,4,,,,,,,31,80
4656,note_on,0,0,0,,,,,5,,,,,,,77,96
4656,note_on,0,0,0,,,,,6,,,,,,,43,96
4663,note_off,7,0,0,,,,,5,,,,,,,77,0
4664,note_on,1,0,0,,,,,5,,,,,,,76,96
4671,note_off,7,0,0,,,,,5,,,,,,,76,0
4672,note_on,1,0,0,,,,,5,,,,,,,77,96
4677,note_off,5,0,0,,,,,0,,,,,,,77,0
4677,note_off,0,0,0,,,,,1,,,,,,,74,0
4677,note_off,0,0,0,,,,,2,,,,,,,59,0
4677,note_off,0,0,0,,,,,3,,,,,,,43,0
4677,note_off,0,0,0,,,,,4,,,,,,,31,0
4677,note_off,0,0,0,,,,,6,,,,,,,43,0
4679,note_off,2,0,0,,,,,5,,,,,,,77,0
4680,note_on,1,0,0,,,,,3,,,,,,,47,80
4680,note_on,0,0,0,,,,,4,,,,,,,35,80
4680,note_on,0,0,0,,,,,5,,,,,,,77,96
4680,note_on,0,0,0,,,,,6,,,,,,,47,96
4692,note_off,12,0,0,,,,,3,,,,,,,47,0
4692,note_on,0,0,0,,,,,3,,,,,,,48,80
4692,note_off,0,0,0,,,,,4,,,,,,,35,0
4692,note_on,0,0,0,,,,,4,,,,,,,36,80
4692,note_off,0,0,0,,,,,6,,,,,,,47,0
4692,note_on,0,0,0,,,,,6,,,,,,,48,96
4698,note_off,6,0,0,,,,,3,,,,,,,48,0
4698,note_on,0,0,0,,,,,3,,,,,,,50,80
4698,note_off,0,0,0,,,,,4,,,,,,,36,0
4698,note_on,0,0,0,,,,,4,,,,,,,38,80
4698,note_off,0,0,0,,,,,6,,,,,,,48,0
4698,note_on,0,0,0,,,,,6,,,,,,,50,96
4703,note_off,5,0,0,,,,,3,,,,,,,50,0
4703,note_off,0,0,0,,,,,4,,,,,,,38,0
4703,note_off,0,0,0,,,,,6,,,,,,,50,0
4704,note_on,1,0,0,,,,,0,,,,,,,77,80
4704,note_on,0,0,0,,,,,1,,,,,,,74,80
4704,note_on,0,0,0,,,,,2,,,,,,,60,80
4704,note_on,0,0,0,,,,,3,,,,,,,43,80
4704,note_on,0,0,0,,,,,4,,,,,,,31,80
4704,note_on,0,0,0,,,,,6,,,,,,,43,96
4708,note_off,4,0,0,,,,,5,,,,,,,77,0
4712,note_on,4,0,0,,,,,5,,,,,,,67,96
4719,note_off,7,0,0,,,,,5,,,,,,,67,0
4720,note_on,1,0,0,,,,,5,,,,,,,69,96
4725,note_off,5,0,0,,,,,0,,,,,,,77,0
4725,note_off,0,0,0,,,,,1,,,,,,,74,0
4725,note_off,0,0,0,,,,,2,,,,,,,60,0
4725,note_off,0,0,0,,,,,3,,,,,,,43,0
4725,note_off,0,0,0,,,,,4,,,,,,,31,0
4725,note_off,0,0,0,,,,,6,,,,,,,43,0
4727,note_off,2,0,0,,,,,5,,,,,,,69,0
4728,note_on,1,0,0,,,,,3,,,,,,,43,80
4728,note_on,0,0,0,,,,,4,,,,,,,31,80
4728,note_on,0,0,0,,,,,5,,,,,,,71,96
4728,note_on,0,0,0,,,,,6,,,,,,,43,96
4735,note_off,7,0,0,,,,,5,,,,,,,71,0
4736,note_on,1,0,0,,,,,5,,,,,,,72,96
4743,note_off,7,0,0,,,,,5,,,,,,,72,0
4744,note_on,1,0,0,,,,,5,,,,,,,74,96
4749,note_off,5,0,0,,,,,3,,,,,,,43,0
4749,note_off,0,0,0,,,,,4,,,,,,,31,0
4749,note_off,0,0,0,,,,,6,,,,,,,43,0
4751,note_off,2,0,0,,,,,5,,,,,,,74,0
4752,note_on,1,0,0,,,,,0,,,,,,,75,80
4752,note_on,0,0,0,,,,,1,,,,,,,72,80
4752,note_on,0,0,0,,,,,2,,,,,,,67,80
4752,note_on,0,0,0,,,,,3,,,,,,,43,80
4752,note_on,0,0,0,,,,,4,,,,,,,31,80
4752,note_on,0,0,0,,,,,5,,,,,,,75,96
4752,note_on,0,0,0,,,,,6,,,,,,,43,96
4759,note_off,7,0,0,,,,,5,,,,,,,75,0
4760,note_on,1,0,0,,,,,5,,,,,,,79,96
4767,note_off,7,0,0,,,,,5,,,,,,,79,0
4768,note_on,1,0,0,,,,,5,,,,,,,84,96
4773,note_off,5,0,0,,,,,0,,,,,,,75,0
4773,note_off,0,0,0,,,,,1,,,,,,,72,0
4773,note_off,0,0,0,,,,,2,,,,,,,67,0
4773,note_off,0,0,0,,,,,3,,,,,,,43,0
4773,note_off,0,0,0,,,,,4,,,,,,,31,0
4773,note_off,0,0,0,,,,,6,,,,,,,43,0
4775,note_off,2,0,0,,,,,5,,,,,,,84,0
4776,note_on,1,0,0,,,,,3,,,,,,,48,80
4776,note_on,0,0,0,,,,,4,,,,,,,36,80
4776,note_on,0,0,0,,,,,5,,,,,,,75,96
4776,note_on,0,0,0,,,,,6,,,,,,,48,96
4788,note_off,12,0,0,,,,,3,,,,,,,48,0
4788,note_on,0,0,0,,,,,3,,,,,,,50,80
4788,note_off,0,0,0,,,,,4,,,,,,,36,0
4788,note_on,0,0,0,,,,,4,,,,,,,38,80
4788,note_off,0,0,0,,,,,6,,,,,,,48,0
4788,note_on,0,0,0,,,,,6,,,,,,,50,96
4794,note_off,6,0,0,,,,,3,,,,,,,50,0
4794,note_on,0,0,0,,,,,3,,,,,,,51,80
4794,note_off,0,0,0,,,,,4,,,,,,,38,0
4794,note_on,0,0,0,,,,,4,,,,,,,39,80
4794,note_off,0,0,0,,,,,6,,,,,,,50,0
4794,note_on,0,0,0,,,,,6,,,,,,,51,96
4799,note_off,5,0,0,,,,,3,,,,,,,51,0
4799,note_off,0,0,0,,,,,4,,,,,,,39,0
4799,note_off,0,0,0,,,,,6,,,,,,,51,0
4800,note_on,1,0,0,,,,,0,,,,,,,81,80
4800,note_on,0,0,0,,,,,1,,,,,,,72,80
4800,note_on,0,0,0,,,,,2,,,,,,,66,80
4800,note_on,0,0,0,,,,,3,,,,,,,43,80
4800,note_on,0,0,0,,,,,4,,,,,,,31,80
4800,note_on,0,0,0,,,,,6,,,,,,,43,96
4804,note_off,4,0,0,,,,,5,,,,,,,75,0
4808,note_on,4,0,0,,,,,5,,,,,,,78,96
4815,note_off,7,0,0,,,,,5,,,,,,,78,0
4816,note_on,1,0,0,,,,,5,,,,,,,79,96
4821,note_off,5,0,0,,,,,0,,,,,,,81,0
4821,note_off,0,0,0,,,,,1,,,,,,,72,0
4821,note_off,0,0,0,,,,,2,,,,,,,66,0
4821,note_off,0,0,0,,,,,3,,,,,,,43,0
4821,note_off,0,0,0,,,,,4,,,,,,,31,0
4821,note_off,0,0,0,,,,,6,,,,,,,43,0
4823,note_off,2,0,0,,,,,5,,,,,,,79,0
4824,note_on,1,0,0,,,,,3,,,,,,,43,80
4824,note_on,0,0,0,,,,,4,,,,,,,31,80
4824,note_on,0,0,0,,,,,5,,,,,,,81,96
4824,note_on,0,0,0,,,,,6,,,,,,,43,96
4831,note_off,7,0,0,,,,,5,,,,,,,81,0
4832,note_on,1,0,0,,,,,5,,,,,,,79,96
4839,note_off,7,0,0,,,,,5,,,,,,,79,0
4840,note_on,1,0,0,,,,,5,,,,,,,81,96
4845,note_off,5,0,0,,,,,3,,,,,,,43,0
4845,note_off,0,0,0,,,,,4,,,,,,,31,0
4845,note_off,0,0,0,,,,,6,,,,,,,43,0
4847,note_off,2,0,0,,,,,5,,,,,,,81,0
4848,note_on,1,0,0,,,,,0,,,,,,,72,80
4848,note_on,0,0,0,,,,,1,,,,,,,69,80
4848,note_on,0,0,0,,,,,2,,,,,,,66,80
4848,note_on,0,0,0,,,,,3,,,,,,,43,80
4848,note_on,0,0,0,,,,,4,,,,,,,31,80
4848,note_on,0,0,0,,,,,5,,,,,,,72,96
4848,note_on,0,0,0,,,,,6,,,,,,,43,96
4855,note_off,7,0,0,,,,,5,,,,,,,72,0
4856,note_on,1,0,0,,,,,5,,,,,,,70,96
4863,note_off,7,0,0,,,,,5,,,,,,,70,0
4864,note_on,1,0,0,,,,,5,,,,,,,72,96
4869,note_off,5,0,0,,,,,0,,,,,,,72,0
4869,note_off,0,0,0,,,,,1,,,,,,,69,0
4869,note_off,0,0,0,,,,,2,,,,,,,66,0
4869,note_off,0,0,0,,,,,3,,,,,,,43,0
4869,note_off,0,0,0,,,,,4,,,,,,,31,0
4869,note_off,0,0,0,,,,,6,,,,,,,43,0
4871,note_off,2,0,0,,,,,5,,,,,,,72,0
4872,note_on,1,0,0,,,,,3,,,,,,,54,80
4872,note_on,0,0,0,,,,,4,,,,,,,42,80
4872,note_on,0,0,0,,,,,5,,,,,,,81,96
4872,note_on,0,0,0,,,,,6,,,,,,,54,96
4884,note_off,12,0,0,,,,,3,,,,,,,54,0
4884,note_on,0,0,0,,,,,3,,,,,,,55,80
4884,note_off,0,0,0,,,,,4,,,,,,,42,0
4884,note_on,0,0,0,,,,,4,,,,,,,43,80
4884,note_off,0,0,0,,,,,6,,,,,,,54,0
4884,note_on,0,0,0,,,,,6,,,,,,,55,96
4888,note_off,4,0,0,,,,,5,,,,,,,81,0
4890,note_off,2,0,0,,,,,3,,,,,,,55,0
4890,note_on,0,0,0,,,,,3,,,,,,,57,80
4890,note_off,0,0,0,,,,,4,,,,,,,43,0
4890,note_on,0,0,0,,,,,4,,,,,,,45,80
4890,note_on,0,0,0,,,,,5,,,,,,,72,96
4890,note_off,0,0,0,,,,,6,,,,,,,55,0
4890,note_on,0,0,0,,,,,6,,,,,,,57,96
4895,note_off,5,0,0,,,,,3,,,,,,,57,0
4895,note_off,0,0,0,,,,,4,,,,,,,45,0
4895,note_off,0,0,0,,,,,5,,,,,,,72,0
4895,note_off,0,0,0,,,,,6,,,,,,,57,0
4896,note_on,1,0,0,,,,,0,,,,,,,72,80
4896,note_on,0,0,0,,,,,1,,,,,,,69,80
4896,note_on,0,0,0,,,,,2,,,,,,,62,80
4896,note_on,0,0,0,,,,,3,,,,,,,43,80
4896,note_on,0,0,0,,,,,4,,,,,,,31,80
4896,note_on,0,0,0,,,,,5,,,,,,,72,96
4896,note_on,0,0,0,,,,,6,,,,,,,43,96
4903,note_off,7,0,0,,,,,5,,,,,,,72,0
4904,note_on,1,0,0,,,,,5,,,,,,,70,96
4911,note_off,7,0,0,,,,,5,,,,,,,70,0
4912,note_on,1,0,0,,,,,5,,,,,,,69,96
4917,note_off,5,0,0,,,,,0,,,,,,,72,0
4917,note_off,0,0,0,,,,,1,,,,,,,69,0
4917,note_off,0,0,0,,,,,2,,,,,,,62,0
4917,note_off,0,0,0,,,,,6,,,,,,,43,0
4919,note_off,2,0,0,,,,,5,,,,,,,69,0
4920,note_on,1,0,0,,,,,0,,,,,,,70,80
4920,note_on,0,0,0,,,,,1,,,,,,,67,80
4920,note_on,0,0,0,,,,,2,,,,,,,67,80
4920,note_on,0,0,0,,,,,5,,,,,,,70,96
4920,note_on,0,0,0,,,,,6,,,,,,,67,96
4930,note_off,10,0,0,,,,,0,,,,,,,70,0
4930,note_off,0,0,0,,,,,1,,,,,,,67,0
4930,note_off,0,0,0,,,,,2,,,,,,,67,0
4930,note_off,0,0,0,,,,,6,,,,,,,67,0
4932,note_on,2,0,0,,,,,0,,,,,,,74,80
4932,note_on,0,0,0,,,,,1,,,,,,,69,80
4932,note_on,0,0,0,,,,,2,,,,,,,66,80
4932,note_on,0,0,0,,,,,6,,,,,,,66,96
4938,note_off,6,0,0,,,,,3,,,,,,,43,0
4938,note_off,0,0,0,,,,,4,,,,,,,31,0
4942,note_off,4,0,0,,,,,0,,,,,,,74,0
4942,note_off,0,0,0,,,,,1,,,,,,,69,0
4942,note_off,0,0,0,,,,,2,,,,,,,66,0
4942,note_off,0,0,0,,,,,6,,,,,,,66,0
4944,note_on,2,0,0,,,,,0,,,,,,,79,80
4944,note_on,0,0,0,,,,,1,,,,,,,70,80
4944,note_on,0,0,0,,,,,2,,,,,,,67,80
4944,note_on,0,0,0,,,,,6,,,,,,,67,96
4948,note_off,4,0,0,,,,,5,,,,,,,70,0
4952,note_on,4,0,0,,,,,5,,,,,,,74,96
4959,note_off,7,0,0,,,,,5,,,,,,,74,0
4960,note_on,1,0,0,,,,,5,,,,,,,76,96
4965,note_off,5,0,0,,,,,0,,,,,,,79,0
4965,note_off,0,0,0,,,,,1,,,,,,,70,0
4965,note_off,0,0,0,,,,,2,,,,,,,67,0
4965,note_off,0,0,0,,,,,6,,,,,,,67,0
4967,note_off,2,0,0,,,,,5,,,,,,,76,0
4968,note_on,1,0,0,,,,,2,,,,,,,63,80
4968,note_on,0,0,0,,,,,5,,,,,,,78,96
4968,note_on,0,0,0,,,,,6,,,,,,,63,96
4975,note_off,7,0,0,,,,,5,,,,,,,78,0
4976,note_on,1,0,0,,,,,5,,,,,,,79,96
4983,note_off,7,0,0,,,,,5,,,,,,,79,0
4984,note_on,1,0,0,,,,,5,,,,,,,81,96
4989,note_off,5,0,0,,,,,2,,,,,,,63,0
4989,note_off,0,0,0,,,,,6,,,,,,,63,0
4991,note_off,2,0,0,,,,,5,,,,,,,81,0
4992,note_on,1,0,0,,,,,0,,,,,,,76,80
4992,note_on,0,0,0,,,,,1,,,,,,,67,80
4992,note_on,0,0,0,,,,,2,,,,,,,61,80
4992,note_on,0,0,0,,,,,5,,,,,,,82,96
4992,note_on,0,0,0,,,,,6,,,,,,,61,96
5013,note_off,21,0,0,,,,,0,,,,,,,76,0
5013,note_off,0,0,0,,,,,1,,,,,,,67,0
5013,note_off,0,0,0,,,,,2,,,,,,,61,0
5013,note_off,0,0,0,,,,,6,,,,,,,61,0
5016,note_on,3,0,0,,,,,2,,,,,,,61,80
5016,note_on,0,0,0,,,,,6,,,,,,,61,96
5037,note_off,21,0,0,,,,,2,,,,,,,61,0
5037,note_off,0,0,0,,,,,6,,,,,,,61,0
5040,note_on,3,0,0,,,,,0,,,,,,,75,80
5040,note_on,0,0,0,,,,,1,,,,,,,72,80
5040,note_on,0,0,0,,,,,2,,,,,,,60,80
5040,note_on,0,0,0,,,,,6,,,,,,,60,96
5041,note_off,1,0,0,,,,,5,,,,,,,82,0
5048,note_on,7,0,0,,,,,5,,,,,,,81,96
5055,note_off,7,0,0,,,,,5,,,,,,,81,0
5056,note_on,1,0,0,,,,,5,,,,,,,79,96
5061,note_off,5,0,0,,,,,0,,,,,,,75,0
5061,note_off,0,0,0,,,,,1,,,,,,,72,0
5061,note_off,0,0,0,,,,,2,,,,,,,60,0
5061,note_off,0,0,0,,,,,6,,,,,,,60,0
5063,note_off,2,0,0,,,,,5,,,,,,,79,0
5064,note_on,1,0,0,,,,,2,,,,,,,60,80
5064,note_on,0,0,0,,,,,5,,,,,,,80,96
5064,note_on,0,0,0,,,,,6,,,,,,,60,96
5085,note_off,21,0,0,,,,,2,,,,,,,60,0
5085,note_off,0,0,0,,,,,6,,,,,,,60,0
5088,note_on,3,0,0,,,,,0,,,,,,,74,80
5088,note_on,0,0,0,,,,,1,,,,,,,62,80
5088,note_on,0,0,0,,,,,2,,,,,,,59,80
5088,note_on,0,0,0,,,,,6,,,,,,,59,96
5092,note_off,4,0,0,,,,,5,,,,,,,80,0
5096,note_on,4,0,0,,,,,5,,,,,,,79,96
5103,note_off,7,0,0,,,,,5,,,,,,,79,0
5104,note_on,1,0,0,,,,,5,,,,,,,78,96
5109,note_off,5,0,0,,,,,0,,,,,,,74,0
5109,note_off,0,0,0,,,,,1,,,,,,,62,0
5109,note_off,0,0,0,,,,,2,,,,,,,59,0
5109,note_off,0,0,0,,,,,6,,,,,,,59,0
5111,note_off,2,0,0,,,,,5,,,,,,,78,0
5112,note_on,1,0,0,,,,,2,,,,,,,59,80
5112,note_on,0,0,0,,,,,5,,,,,,,79,96
5112,note_on,0,0,0,,,,,6,,,,,,,59,96
5133,note_off,21,0,0,,,,,2,,,,,,,59,0
5133,note_off,0,0,0,,,,,6,,,,,,,59,0
5136,note_on,3,0,0,,,,,0,,,,,,,79,80
5136,note_on,0,0,0,,,,,1,,,,,,,74,80
5136,note_on,0,0,0,,,,,2,,,,,,,58,80
5136,note_on,0,0,0,,,,,6,,,,,,,58,96
5140,note_off,4,0,0,,,,,5,,,,,,,79,0
5144,note_on,4,0,0,,,,,5,,,,,,,77,96
5151,note_off,7,0,0,,,,,5,,,,,,,77,0
5152,note_on,1,0,0,,,,,5,,,,,,,75,96
5157,note_off,5,0,0,,,,,0,,,,,,,79,0
5157,note_off,0,0,0,,,,,1,,,,,,,74,0
5157,note_off,0,0,0,,,,,2,,,,,,,58,0
5157,note_off,0,0,0,,,,,6,,,,,,,58,0
5159,note_off,2,0,0,,,,,5,,,,,,,75,0
5160,note_on,1,0,0,,,,,2,,,,,,,58,80
5160,note_on,0,0,0,,,,,5,,,,,,,74,96
5160,note_on,0,0,0,,,,,6,,,,,,,58,96
5167,note_off,7,0,0,,,,,5,,,,,,,74,0
5168,note_on,1,0,0,,,,,5,,,,,,,73,96
5175,note_off,7,0,0,,,,,5,,,,,,,73,0
5176,note_on,1,0,0,,,,,5,,,,,,,74,96
5181,note_off,5,0,0,,,,,2,,,,,,,58,0
5181,note_off,0,0,0,,,,,6,,,,,,,58,0
5183,note_off,2,0,0,,,,,5,,,,,,,74,0
5184,note_on,1,0,0,,,,,0,,,,,,,78,80
5184,note_on,0,0,0,,,,,1,,,,,,,74,80
5184,note_on,0,0,0,,,,,2,,,,,,,57,80
5184,note_on,0,0,0,,,,,5,,,,,,,84,96
5184,note_on,0,0,0,,,,,6,,,,,,,57,96
5191,note_off,7,0,0,,,,,5,,,,,,,84,0
5192,note_on,1,0,0,,,,,5,,,,,,,82,96
5199,note_off,7,0,0,,,,,5,,,,,,,82,0
5200,note_on,1,0,0,,,,,5,,,,,,,81,96
5205,note_off,5,0,0,,,,,0,,,,,,,78,0
5205,note_off,0,0,0,,,,,1,,,,,,,74,0
5205,note_off,0,0,0,,,,,2,,,,,,,57,0
5205,note_off,0,0,0,,,,,6,,,,,,,57,0
5207,note_off,2,0,0,,,,,5,,,,,,,81,0
5208,note_on,1,0,0,,,,,0,,,,,,,79,80
5208,note_on,0,0,0,,,,,1,,,,,,,74,80
5208,note_on,0,0,0,,,,,2,,,,,,,55,80
5208,note_on,0,0,0,,,,,5,,,,,,,82,96
5208,note_on,0,0,0,,,,,6,,,,,,,55,96
5224,note_off,16,0,0,,,,,5,,,,,,,82,0
5226,note_on,2,0,0,,,,,5,,,,,,,79,96
5229,note_off,3,0,0,,,,,0,,,,,,,79,0
5229,note_off,0,0,0,,,,,1,,,,,,,74,0
5229,note_off,0,0,0,,,,,2,,,,,,,55,0
5229,note_off,0,0,0,,,,,6,,,,,,,55,0
5231,note_off,2,0,0,,,,,5,,,,,,,79,0
5232,note_on,1,0,0,,,,,0,,,,,,,79,80
5232,note_on,0,0,0,,,,,1,,,,,,,74,80
5232,note_on,0,0,0,,,,,2,,,,,,,62,80
5232,note_on,0,0,0,,,,,5,,,,,,,81,96
5232,note_on,0,0,0,,,,,6,,,,,,,62,96
5253,note_off,21,0,0,,,,,0,,,,,,,79,0
5253,note_off,0,0,0,,,,,1,,,,,,,74,0
5253,note_off,0,0,0,,,,,2,,,,,,,62,0
5253,note_off,0,0,0,,,,,6,,,,,,,62,0
5256,note_on,3,0,0,,,,,0,,,,,,,78,80
5256,note_on,0,0,0,,,,,1,,,,,,,72,80
5256,note_on,0,0,0,,,,,2,,,,,,,50,80
5256,note_on,0,0,0,,,,,6,,,,,,,50,96
5263,note_off,7,0,0,,,,,5,,,,,,,81,0
5268,note_on,5,0,0,,,,,5,,,,,,,79,96
5277,note_off,9,0,0,,,,,0,,,,,,,78,0
5277,note_off,0,0,0,,,,,1,,,,,,,72,0
5277,note_off,0,0,0,,,,,2,,,,,,,50,0
5277,note_off,0,0,0,,,,,6,,,,,,,50,0
5278,note_off,1,0,0,,,,,5,,,,,,,79,0
5280,note_on,2,0,0,,,,,0,,,,,,,79,80
5280,note_on,0,0,0,,,,,1,,,,,,,70,80
5280,note_on,0,0,0,,,,,2,,,,,,,55,80
5280,note_on,0,0,0,,,,,5,,,,,,,79,96
5280,note_on,0,0,0,,,,,6,,,,,,,55,96
5301,note_off,21,0,0,,,,,0,,,,,,,79,0
5301,note_off,0,0,0,,,,,1,,,,,,,70,0
5301,note_off,0,0,0,,,,,2,,,,,,,55,0
5304,note_on,3,0,0,,,,,3,,,,,,,55,96
5304,note_on,0,0,0,,,,,4,,,,,,,43,96
5311,note_off,7,0,0,,,,,6,,,,,,,55,0
5314,note_off,3,0,0,,,,,3,,,,,,,55,0
5314,note_off,0,0,0,,,,,4,,,,,,,43,0
5316,note_on,2,0,0,,,,,3,,,,,,,56,96
5316,note_on,0,0,0,,,,,4,,,,,,,44,96
5316,note_on,0,0,0,,,,,6,,,,,,,56,96
5322,note_off,6,0,0,,,,,5,,,,,,,79,0
5326,note_off,4,0,0,,,,,3,,,,,,,56,0
5326,note_off,0,0,0,,,,,4,,,,,,,44,0
5326,note_off,0,0,0,,,,,6,,,,,,,56,0
5328,note_on,2,0,0,,,,,0,,,,,,,77,96
5328,note_on,0,0,0,,,,,1,,,,,,,71,96
5328,note_on,0,0,0,,,,,2,,,,,,,62,96
5328,note_on,0,0,0,,,,,3,,,,,,,55,96
5328,note_on,0,0,0,,,,,4,,,,,,,43,96
5328,note_on,0,0,0,,,,,5,,,,,,,77,96
5328,note_on,0,0,0,,,,,5,,,,,,,71,96
5328,note_on,0,0,0,,,,,5,,,,,,,67,96
5328,note_on,0,0,0,,,,,6,,,,,,,55,96
5338,note_off,10,0,0,,,,,6,,,,,,,55,0
5340,note_off,2,0,0,,,,,3,,,,,,,55,0
5340,note_on,0,0,0,,,,,3,,,,,,,53,96
5340,note_off,0,0,0,,,,,4,,,,,,,43,0
5340,note_on,0,0,0,,,,,4,,,,,,,41,96
5340,note_on,0,0,0,,,,,6,,,,,,,53,96
5349,note_off,9,0,0,,,,,0,,,,,,,77,0
5349,note_off,0,0,0,,,,,1,,,,,,,71,0
5349,note_off,0,0,0,,,,,2,,,,,,,62,0
5349,note_off,0,0,0,,,,,5,,,,,,,77,0
5349,note_off,0,0,0,,,,,5,,,,,,,71,0
5349,note_off,0,0,0,,,,,5,,,,,,,67,0
5350,note_off,1,0,0,,,,,6,,,,,,,53,0
5352,note_off,2,0,0,,,,,3,,,,,,,53,0
5352,note_on,0,0,0,,,,,3,,,,,,,51,96
5352,note_off,0,0,0,,,,,4,,,,,,,41,0
5352,note_on,0,0,0,,,,,4,,,,,,,39,96
5352,note_on,0,0,0,,,,,6,,,,,,,51,96
5362,note_off,10,0,0,,,,,6,,,,,,,51,0
5364,note_off,2,0,0,,,,,3,,,,,,,51,0
5364,note_on,0,0,0,,,,,3,,,,,,,50,96
5364,note_off,0,0,0,,,,,4,,,,,,,39,0
5364,note_on,0,0,0,,,,,4,,,,,,,38,96
5364,note_on,0,0,0,,,,,6,,,,,,,50,96
5374,note_off,10,0,0,,,,,3,,,,,,,50,0
5374,note_off,0,0,0,,,,,4,,,,,,,38,0
5374,note_off,0,0,0,,,,,6,,,,,,,50,0
5376,note_on,2,0,0,,,,,0,,,,,,,75,96
5376,note_on,0,0,0,,,,,1,,,,,,,72,96
5376,note_on,0,0,0,,,,,2,,,,,,,67,96
5376,note_on,0,0,0,,,,,3,,,,,,,48,96
5376,note_on,0,0,0,,,,,4,,,,,,,36,96
5376,note_on,0,0,0,,,,,5,,,,,,,75,96
5376,note_on,0,0,0,,,,,5,,,,,,,72,96
5376,note_on,0,0,0,,,,,5,,,,,,,67,96
5376,note_on,0,0,0,,,,,6,,,,,,,48,96
5397,note_off,21,0,0,,,,,0,,,,,,,75,0
5397,note_off,0,0,0,,,,,1,,,,,,,72,0
5397,note_off,0,0,0,,,,,2,,,,,,,67,0
5397,note_off,0,0,0,,,,,3,,,,,,,48,0
5397,note_off,0,0,0,,,,,4,,,,,,,36,0
5397,note_off,0,0,0,,,,,5,,,,,,,75,0
5397,note_off,0,0,0,,,,,5,,,,,,,72,0
5397,note_off,0,0,0,,,,,5,,,,,,,67,0
5397,note_off,0,0,0,,,,,6,,,,,,,48,0
5400,note_on,3,0,0,,,,,3,,,,,,,48,96
5400,note_on,0,0,0,,,,,4,,,,,,,36,96
5400,note_on,0,0,0,,,,,6,,,,,,,48,96
5421,note_off,21,0,0,,,,,3,,,,,,,48,0
5421,note_off,0,0,0,,,,,4,,,,,,,36,0
5421,note_off,0,0,0,,,,,6,,,,,,,48,0
5424,note_on,3,0,0,,,,,0,,,,,,,69,96
5424,note_on,0,0,0,,,,,1,,,,,,,66,96
5424,note_on,0,0,0,,,,,2,,,,,,,69,96
5424,note_on,0,0,0,,,,,3,,,,,,,48,96
5424,note_on,0,0,0,,,,,4,,,,,,,36,96
5424,note_on,0,0,0,,,,,5,,,,,,,69,96
5424,note_on,0,0,0,,,,,5,,,,,,,66,96
5424,note_on,0,0,0,,,,,6,,,,,,,48,96
5445,note_off,21,0,0,,,,,0,,,,,,,69,0
5445,note_off,0,0,0,,,,,1,,,,,,,66,0
5445,note_off,0,0,0,,,,,2,,,,,,,69,0
5445,note_off,0,0,0,,,,,3,,,,,,,48,0
5445,note_off,0,0,0,,,,,4,,,,,,,36,0
5445,note_off,0,0,0,,,,,5,,,,,,,69,0
5445,note_off,0,0,0,,,,,5,,,,,,,66,0
5445,note_off,0,0,0,,,,,6,,,,,,,48,0
5448,note_on,3,0,0,,,,,3,,,,,,,54,96
5448,note_on,0,0,0,,,,,4,,,,,,,42,96
5448,note_on,0,0,0,,,,,6,,,,,,,54,96
5460,note_off,12,0,0,,,,,3,,,,,,,54,0
5460,note_on,0,0,0,,,,,3,,,,,,,55,96
5460,note_off,0,0,0,,,,,4,,,,,,,42,0
5460,note_on,0,0,0,,,,,4,,,,,,,43,96
5460,note_off,0,0,0,,,,,6,,,,,,,54,0
5460,note_on,0,0,0,,,,,6,,,,,,,55,96
5466,note_off,6,0,0,,,,,3,,,,,,,55,0
5466,note_on,0,0,0,,,,,3,,,,,,,57,96
5466,note_off,0,0,0,,,,,4,,,,,,,43,0
5466,note_on,0,0,0,,,,,4,,,,,,,45,96
5466,note_off,0,0,0,,,,,6,,,,,,,55,0
5466,note_on,0,0,0,,,,,6,,,,,,,57,96
5471,note_off,5,0,0,,,,,3,,,,,,,57,0
5471,note_off,0,0,0,,,,,4,,,,,,,45,0
5471,note_off,0,0,0,,,,,6,,,,,,,57,0
5472,note_on,1,0,0,,,,,0,,,,,,,74,96
5472,note_on,0,0,0,,,,,1,,,,,,,66,96
5472,note_on,0,0,0,,,,,2,,,,,,,69,96
5472,note_on,0,0,0,,,,,3,,,,,,,46,96
5472,note_on,0,0,0,,,,,4,,,,,,,34,96
5472,note_on,0,0,0,,,,,5,,,,,,,74,96
5472,note_on,0,0,0,,,,,5,,,,,,,69,96
5472,note_on,0,0,0,,,,,5,,,,,,,66,96
5472,note_on,0,0,0,,,,,6,,,,,,,46,96
5493,note_off,21,0,0,,,,,0,,,,,,,74,0
5493,note_off,0,0,0,,,,,1,,,,,,,66,0
5493,note_off,0,0,0,,,,,2,,,,,,,69,0
5493,note_off,0,0,0,,,,,3,,,,,,,46,0
5493,note_off,0,0,0,,,,,4,,,,,,,34,0
5493,note_off,0,0,0,,,,,5,,,,,,,74,0
5493,note_off,0,0,0,,,,,5,,,,,,,69,0
5493,note_off,0,0,0,,,,,5,,,,,,,66,0
5493,note_off,0,0,0,,,,,6,,,,,,,46,0
5496,note_on,3,0,0,,,,,3,,,,,,,46,96
5496,note_on,0,0,0,,,,,4,,,,,,,34,96
5496,note_on,0,0,0,,,,,6,,,,,,,46,96
5517,note_off,21,0,0,,,,,3,,,,,,,46,0
5517,note_off,0,0,0,,,,,4,,,,,,,34,0
5517,note_off,0,0,0,,,,,6,,,,,,,46,0
5520,note_on,3,0,0,,,,,0,,,,,,,67,96
5520,note_on,0,0,0,,,,,1,,,,,,,67,96
5520,note_on,0,0,0,,,,,2,,,,,,,62,96
5520,note_on,0,0,0,,,,,3,,,,,,,46,96
5520,note_on,0,0,0,,,,,4,,,,,,,34,96
5520,note_on,0,0,0,,,,,5,,,,,,,67,96
5520,note_on,0,0,0,,,,,5,,,,,,,62,96
5520,note_on,0,0,0,,,,,6,,,,,,,46,96
5541,note_off,21,0,0,,,,,0,,,,,,,67,0
5541,note_off,0,0,0,,,,,1,,,,,,,67,0
5541,note_off,0,0,0,,,,,2,,,,,,,62,0
5541,note_off,0,0,0,,,,,3,,,,,,,46,0
5541,note_off,0,0,0,,,,,4,,,,,,,34,0
5541,note_off,0,0,0,,,,,5,,,,,,,67,0
5541,note_off,0,0,0,,,,,5,,,,,,,62,0
5541,note_off,0,0,0,,,,,6,,,,,,,46,0
5544,note_on,3,0,0,,,,,3,,,,,,,52,96
5544,note_on,0,0,0,,,,,4,,,,,,,40,96
5544,note_on,0,0,0,,,,,6,,,,,,,52,96
5556,note_off,12,0,0,,,,,3,,,,,,,52,0
5556,note_on,0,0,0,,,,,3,,,,,,,54,96
5556,note_off,0,0,0,,,,,4,,,,,,,40,0
5556,note_on,0,0,0,,,,,4,,,,,,,42,96
5556,note_off,0,0,0,,,,,6,,,,,,,52,0
5556,note_on,0,0,0,,,,,6,,,,,,,54,96
5562,note_off,6,0,0,,,,,3,,,,,,,54,0
5562,note_on,0,0,0,,,,,3,,,,,,,55,96
5562,note_off,0,0,0,,,,,4,,,,,,,42,0
5562,note_on,0,0,0,,,,,4,,,,,,,43,96
5562,note_off,0,0,0,,,,,6,,,,,,,54,0
5562,note_on,0,0,0,,,,,6,,,,,,,55,96
5567,note_off,5,0,0,,,,,3,,,,,,,55,0
5567,note_off,0,0,0,,,,,4,,,,,,,43,0
5567,note_off,0,0,0,,,,,6,,,,,,,55,0
5568,note_on,1,0,0,,,,,0,,,,,,,72,96
5568,note_on,0,0,0,,,,,1,,,,,,,67,96
5568,note_on,0,0,0,,,,,2,,,,,,,63,96
5568,note_on,0,0,0,,,,,3,,,,,,,45,96
5568,note_on,0,0,0,,,,,4,,,,,,,33,96
5568,note_on,0,0,0,,,,,5,,,,,,,72,96
5568,note_on,0,0,0,,,,,5,,,,,,,67,96
5568,note_on,0,0,0,,,,,5,,,,,,,63,96
5568,note_on,0,0,0,,,,,6,,,,,,,45,96
5589,note_off,21,0,0,,,,,0,,,,,,,72,0
5589,note_off,0,0,0,,,,,1,,,,,,,67,0
5589,note_off,0,0,0,,,,,2,,,,,,,63,0
5589,note_off,0,0,0,,,,,3,,,,,,,45,0
5589,note_off,0,0,0,,,,,4,,,,,,,33,0
5589,note_off,0,0,0,,,,,5,,,,,,,72,0
5589,note_off,0,0,0,,,,,5,,,,,,,67,0
5589,note_off,0,0,0,,,,,5,,,,,,,63,0
5589,note_off,0,0,0,,,,,6,,,,,,,45,0
5592,note_on,3,0,0,,,,,3,,,,,,,45,96
5592,note_on,0,0,0,,,,,4,,,,,,,33,96
5592,note_on,0,0,0,,,,,6,,,,,,,45,96
5613,note_off,21,0,0,,,,,3,,,,,,,45,0
5613,note_off,0,0,0,,,,,4,,,,,,,33,0
5613,note_off,0,0,0,,,,,6,,,,,,,45,0
5616,note_on,3,0,0,,,,,0,,,,,,,72,96
5616,note_on,0,0,0,,,,,1,,,,,,,66,96
5616,note_on,0,0,0,,,,,2,,,,,,,62,96
5616,note_on,0,0,0,,,,,3,,,,,,,45,96
5616,note_on,0,0,0,,,,,4,,,,,,,33,96
5616,note_on,0,0,0,,,,,5,,,,,,,72,96
5616,note_on,0,0,0,,,,,5,,,,,,,66,96
5616,note_on,0,0,0,,,,,5,,,,,,,62,96
5616,note_on,0,0,0,,,,,6,,,,,,,45,96
5637,note_off,21,0,0,,,,,0,,,,,,,72,0
5637,note_off,0,0,0,,,,,1,,,,,,,66,0
5637,note_off,0,0,0,,,,,2,,,,,,,62,0
5637,note_off,0,0,0,,,,,3,,,,,,,45,0
5637,note_off,0,0,0,,,,,4,,,,,,,33,0
5637,note_off,0,0,0,,,,,5,,,,,,,72,0
5637,note_off,0,0,0,,,,,5,,,,,,,66,0
5637,note_off,0,0,0,,,,,5,,,,,,,62,0
5637,note_off,0,0,0,,,,,6,,,,,,,45,0
5640,note_on,3,0,0,,,,,3,,,,,,,50,96
5640,note_on,0,0,0,,,,,4,,,,,,,38,96
5640,note_on,0,0,0,,,,,6,,,,,,,50,96
5652,note_off,12,0,0,,,,,3,,,,,,,50,0
5652,note_on,0,0,0,,,,,3,,,,,,,52,96
5652,note_off,0,0,0,,,,,4,,,,,,,38,0
5652,note_on,0,0,0,,,,,4,,,,,,,40,96
5652,note_off,0,0,0,,,,,6,,,,,,,50,0
5652,note_on,0,0,0,,,,,6,,,,,,,52,96
5658,note_off,6,0,0,,,,,3,,,,,,,52,0
5658,note_on,0,0,0,,,,,3,,,,,,,54,96
5658,note_off,0,0,0,,,,,4,,,,,,,40,0
5658,note_on,0,0,0,,,,,4,,,,,,,42,96
5658,note_off,0,0,0,,,,,6,,,,,,,52,0
5658,note_on,0,0,0,,,,,6,,,,,,,54,96
5663,note_off,5,0,0,,,,,3,,,,,,,54,0
5663,note_off,0,0,0,,,,,4,,,,,,,42,0
5663,note_off,0,0,0,,,,,6,,,,,,,54,0
5664,note_on,1,0,0,,,,,0,,,,,,,72,96
5664,note_on,0,0,0,,,,,1,,,,,,,67,96
5664,note_on,0,0,0,,,,,2,,,,,,,62,96
5664,note_on,0,0,0,,,,,3,,,,,,,43,96
5664,note_on,0,0,0,,,,,4,,,,,,,31,96
5664,note_on,0,0,0,,,,,5,,,,,,,72,96
5664,note_on,0,0,0,,,,,6,,,,,,,43,96
5672,note_on,8,0,0,,,,,5,,,,,,,62,96
5679,note_off,7,0,0,,,,,5,,,,,,,62,0
5680,note_on,1,0,0,,,,,5,,,,,,,60,96
5685,note_off,5,0,0,,,,,1,,,,,,,67,0
5685,note_off,0,0,0,,,,,2,,,,,,,62,0
5685,note_off,0,0,0,,,,,3,,,,,,,43,0
5685,note_off,0,0,0,,,,,4,,,,,,,31,0
5685,note_off,0,0,0,,,,,5,,,,,,,72,0
5685,note_off,0,0,0,,,,,6,,,,,,,43,0
5687,note_off,2,0,0,,,,,5,,,,,,,60,0
5688,note_off,1,0,0,,,,,0,,,,,,,72,0
5688,note_on,0,0,0,,,,,0,,,,,,,70,96
5688,note_on,0,0,0,,,,,1,,,,,,,62,96
5688,note_on,0,0,0,,,,,2,,,,,,,55,96
5688,note_on,0,0,0,,,,,5,,,,,,,70,96
5688,note_on,0,0,0,,,,,5,,,,,,,62,96
5695,note_off,7,0,0,,,,,5,,,,,,,62,0
5696,note_on,1,0,0,,,,,5,,,,,,,67,96
5703,note_off,7,0,0,,,,,5,,,,,,,67,0
5704,note_on,1,0,0,,,,,5,,,,,,,69,96
5709,note_off,5,0,0,,,,,0,,,,,,,70,0
5709,note_off,0,0,0,,,,,1,,,,,,,62,0
5709,note_off,0,0,0,,,,,2,,,,,,,55,0
5709,note_off,0,0,0,,,,,5,,,,,,,70,0
5711,note_off,2,0,0,,,,,5,,,,,,,69,0
5712,note_on,1,0,0,,,,,5,,,,,,,70,96
5719,note_off,7,0,0,,,,,5,,,,,,,70,0
5720,note_on,1,0,0,,,,,5,,,,,,,67,96
5727,note_off,7,0,0,,,,,5,,,,,,,67,0
5728,note_on,1,0,0,,,,,5,,,,,,,66,96
5735,note_off,7,0,0,,,,,5,,,,,,,66,0
5736,note_on,1,0,0,,,,,5,,,,,,,67,96
5743,note_off,7,0,0,,,,,5,,,,,,,67,0
5744,note_on,1,0,0,,,,,5,,,,,,,70,96
5751,note_off,7,0,0,,,,,5,,,,,,,70,0
5752,note_on,1,0,0,,,,,5,,,,,,,72,96
5759,note_off,7,0,0,,,,,5,,,,,,,72,0
5760,note_on,1,0,0,,,,,0,,,,,,,64,80
5760,note_on,0,0,0,,,,,1,,,,,,,58,80
5760,note_on,0,0,0,,,,,2,,,,,,,67,80
5760,note_on,0,0,0,,,,,5,,,,,,,73,96
5760,note_on,0,0,0,,,,,6,,,,,,,55,96
5781,note_off,21,0,0,,,,,0,,,,,,,64,0
5781,note_off,0,0,0,,,,,1,,,,,,,58,0
5781,note_off,0,0,0,,,,,2,,,,,,,67,0
5781,note_off,0,0,0,,,,,6,,,,,,,55,0
5784,note_on,3,0,0,,,,,2,,,,,,,67,80
5784,note_on,0,0,0,,,,,6,,,,,,,55,96
5805,note_off,21,0,0,,,,,2,,,,,,,67,0
5805,note_off,0,0,0,,,,,6,,,,,,,55,0
5808,note_on,3,0,0,,,,,0,,,,,,,67,80
5808,note_on,0,0,0,,,,,1,,,,,,,64,80
5808,note_on,0,0,0,,,,,2,,,,,,,67,80
5808,note_on,0,0,0,,,,,6,,,,,,,55,96
5829,note_off,21,0,0,,,,,0,,,,,,,67,0
5829,note_off,0,0,0,,,,,1,,,,,,,64,0
5829,note_off,0,0,0,,,,,2,,,,,,,67,0
5829,note_off,0,0,0,,,,,6,,,,,,,55,0
5832,note_on,3,0,0,,,,,2,,,,,,,70,80
5832,note_on,0,0,0,,,,,6,,,,,,,58,96
5844,note_off,12,0,0,,,,,2,,,,,,,70,0
5844,note_on,0,0,0,,,,,2,,,,,,,72,80
5844,note_off,0,0,0,,,,,6,,,,,,,58,0
5844,note_on,0,0,0,,,,,6,,,,,,,60,96
5850,note_off,6,0,0,,,,,2,,,,,,,72,0
5850,note_on,0,0,0,,,,,2,,,,,,,73,80
5850,note_off,0,0,0,,,,,6,,,,,,,60,0
5850,note_on,0,0,0,,,,,6,,,,,,,61,96
5855,note_off,5,0,0,,,,,2,,,,,,,73,0
5855,note_off,0,0,0,,,,,6,,,,,,,61,0
5856,note_on,1,0,0,,,,,0,,,,,,,70,80
5856,note_on,0,0,0,,,,,1,,,,,,,67,80
5856,note_on,0,0,0,,,,,2,,,,,,,64,80
5856,note_on,0,0,0,,,,,6,,,,,,,52,96
5877,note_off,21,0,0,,,,,0,,,,,,,70,0
5877,note_off,0,0,0,,,,,1,,,,,,,67,0
5877,note_off,0,0,0,,,,,2,,,,,,,64,0
5877,note_off,0,0,0,,,,,6,,,,,,,52,0
5880,note_on,3,0,0,,,,,2,,,,,,,64,80
5880,note_on,0,0,0,,,,,6,,,,,,,52,96
5901,note_off,21,0,0,,,,,2,,,,,,,64,0
5901,note_off,0,0,0,,,,,6,,,,,,,52,0
5904,note_on,3,0,0,,,,,0,,,,,,,73,80
5904,note_on,0,0,0,,,,,1,,,,,,,70,80
5904,note_on,0,0,0,,,,,2,,,,,,,64,80
5904,note_on,0,0,0,,,,,6,,,,,,,52,96
5925,note_off,21,0,0,,,,,0,,,,,,,73,0
5925,note_off,0,0,0,,,,,1,,,,,,,70,0
5925,note_off,0,0,0,,,,,2,,,,,,,64,0
5925,note_off,0,0,0,,,,,6,,,,,,,52,0
5928,note_on,3,0,0,,,,,2,,,,,,,67,80
5928,note_on,0,0,0,,,,,6,,,,,,,55,96
5940,note_off,12,0,0,,,,,2,,,,,,,67,0
5940,note_on,0,0,0,,,,,2,,,,,,,68,80
5940,note_off,0,0,0,,,,,6,,,,,,,55,0
5940,note_on,0,0,0,,,,,6,,,,,,,56,96
5946,note_off,6,0,0,,,,,2,,,,,,,68,0
5946,note_on,0,0,0,,,,,2,,,,,,,70,80
5946,note_off,0,0,0,,,,,6,,,,,,,56,0
5946,note_on,0,0,0,,,,,6,,,,,,,58,96
5951,note_off,5,0,0,,,,,2,,,,,,,70,0
5951,note_off,0,0,0,,,,,6,,,,,,,58,0
5952,note_on,1,0,0,,,,,0,,,,,,,64,80
5952,note_on,0,0,0,,,,,1,,,,,,,70,80
5952,note_on,0,0,0,,,,,2,,,,,,,60,80
5952,note_off,0,0,0,,,,,5,,,,,,,73,0
5952,note_on,0,0,0,,,,,6,,,,,,,48,96
5960,note_on,8,0,0,,,,,5,,,,,,,72,96
5967,note_off,7,0,0,,,,,5,,,,,,,72,0
5968,note_on,1,0,0,,,,,5,,,,,,,70,96
5973,note_off,5,0,0,,,,,0,,,,,,,64,0
5973,note_off,0,0,0,,,,,1,,,,,,,70,0
5973,note_off,0,0,0,,,,,2,,,,,,,60,0
5973,note_off,0,0,0,,,,,6,,,,,,,48,0
5975,note_off,2,0,0,,,,,5,,,,,,,70,0
5976,note_on,1,0,0,,,,,2,,,,,,,60,80
5976,note_on,0,0,0,,,,,5,,,,,,,68,96
5976,note_on,0,0,0,,,,,6,,,,,,,48,96
5983,note_off,7,0,0,,,,,5,,,,,,,68,0
5984,note_on,1,0,0,,,,,5,,,,,,,67,96
5991,note_off,7,0,0,,,,,5,,,,,,,67,0
5992,note_on,1,0,0,,,,,5,,,,,,,65,96
5997,note_off,5,0,0,,,,,2,,,,,,,60,0
5997,note_off,0,0,0,,,,,6,,,,,,,48,0
5999,note_off,2,0,0,,,,,5,,,,,,,65,0
6000,note_on,1,0,0,,,,,0,,,,,,,67,80
6000,note_on,0,0,0,,,,,1,,,,,,,70,80
6000,note_on,0,0,0,,,,,2,,,,,,,60,80
6000,note_on,0,0,0,,,,,5,,,,,,,64,96
6000,note_on,0,0,0,,,,,6,,,,,,,48,96
6007,note_off,7,0,0,,,,,5,,,,,,,64,0
6008,note_on,1,0,0,,,,,5,,,,,,,61,96
6015,note_off,7,0,0,,,,,5,,,,,,,61,0
6016,note_on,1,0,0,,,,,5,,,,,,,60,96
6021,note_off,5,0,0,,,,,0,,,,,,,67,0
6021,note_off,0,0,0,,,,,1,,,,,,,70,0
6021,note_off,0,0,0,,,,,2,,,,,,,60,0
6021,note_off,0,0,0,,,,,6,,,,,,,48,0
6023,note_off,2,0,0,,,,,5,,,,,,,60,0
6024,note_on,1,0,0,,,,,2,,,,,,,64,80
6024,note_on,0,0,0,,,,,5,,,,,,,58,96
6024,note_on,0,0,0,,,,,6,,,,,,,52,96
6031,note_off,7,0,0,,,,,5,,,,,,,58,0
6032,note_on,1,0,0,,,,,5,,,,,,,56,96
6036,note_off,4,0,0,,,,,2,,,,,,,64,0
6036,note_on,0,0,0,,,,,2,,,,,,,65,80
6036,note_off,0,0,0,,,,,6,,,,,,,52,0
6036,note_on,0,0,0,,,,,6,,,,,,,53,96
6039,note_off,3,0,0,,,,,5,,,,,,,56,0
6040,note_on,1,0,0,,,,,5,,,,,,,55,96
6042,note_off,2,0,0,,,,,2,,,,,,,65,0
6042,note_on,0,0,0,,,,,2,,,,,,,67,80
6042,note_off,0,0,0,,,,,6,,,,,,,53,0
6042,note_on,0,0,0,,,,,6,,,,,,,55,96
6047,note_off,5,0,0,,,,,2,,,,,,,67,0
6047,note_off,0,0,0,,,,,5,,,,,,,55,0
6047,note_off,0,0,0,,,,,6,,,,,,,55,0
6048,note_on,1,0,0,,,,,0,,,,,,,67,80
6048,note_on,0,0,0,,,,,1,,,,,,,70,80
6048,note_on,0,0,0,,,,,2,,,,,,,53,80
6048,note_on,0,0,0,,,,,5,,,,,,,56,96
6048,note_on,0,0,0,,,,,6,,,,,,,41,96
6055,note_off,7,0,0,,,,,5,,,,,,,56,0
6056,note_on,1,0,0,,,,,5,,,,,,,53,96
6063,note_off,7,0,0,,,,,5,,,,,,,53,0
6064,note_on,1,0,0,,,,,5,,,,,,,56,96
6069,note_off,5,0,0,,,,,0,,,,,,,67,0
6069,note_off,0,0,0,,,,,1,,,,,,,70,0
6071,note_off,2,0,0,,,,,5,,,,,,,56,0
6072,note_on,1,0,0,,,,,0,,,,,,,65,80
6072,note_on,0,0,0,,,,,1,,,,,,,68,80
6072,note_on,0,0,0,,,,,5,,,,,,,60,96
6079,note_off,7,0,0,,,,,5,,,,,,,60,0
6080,note_on,1,0,0,,,,,5,,,,,,,64,96
6087,note_off,7,0,0,,,,,5,,,,,,,64,0
6088,note_on,1,0,0,,,,,5,,,,,,,65,96
6090,note_off,2,0,0,,,,,2,,,,,,,53,0
6090,note_off,0,0,0,,,,,6,,,,,,,41,0
6093,note_off,3,0,0,,,,,0,,,,,,,65,0
6093,note_off,0,0,0,,,,,1,,,,,,,68,0
6095,note_off,2,0,0,,,,,5,,,,,,,65,0
6096,note_on,1,0,0,,,,,5,,,,,,,68,96
6103,note_off,7,0,0,,,,,5,,,,,,,68,0
6104,note_on,1,0,0,,,,,5,,,,,,,65,96
6111,note_off,7,0,0,,,,,5,,,,,,,65,0
6112,note_on,1,0,0,,,,,5,,,,,,,68,96
6119,note_off,7,0,0,,,,,5,,,,,,,68,0
6120,note_on,1,0,0,,,,,5,,,,,,,72,96
6127,note_off,7,0,0,,,,,5,,,,,,,72,0
6128,note_on,1,0,0,,,,,5,,,,,,,76,96
6135,note_off,7,0,0,,,,,5,,,,,,,76,0
6136,note_on,1,0,0,,,,,5,,,,,,,77,96
6143,note_off,7,0,0,,,,,5,,,,,,,77,0
6144,note_on,1,0,0,,,,,0,,,,,,,69,80
6144,note_on,0,0,0,,,,,1,,,,,,,63,80
6144,note_on,0,0,0,,,,,2,,,,,,,60,80
6144,note_on,0,0,0,,,,,3,,,,,,,48,80
6144,note_on,0,0,0,,,,,4,,,,,,,36,80
6144,note_on,0,0,0,,,,,5,,,,,,,78,96
6144,note_on,0,0,0,,,,,6,,,,,,,48,96
6165,note_off,21,0,0,,,,,0,,,,,,,69,0
6165,note_off,0,0,0,,,,,1,,,,,,,63,0
6165,note_off,0,0,0,,,,,2,,,,,,,60,0
6165,note_off,0,0,0,,,,,3,,,,,,,48,0
6165,note_off,0,0,0,,,,,4,,,,,,,36,0
6165,note_off,0,0,0,,,,,6,,,,,,,48,0
6168,note_on,3,0,0,,,,,3,,,,,,,48,80
6168,note_on,0,0,0,,,,,4,,,,,,,36,80
6168,note_on,0,0,0,,,,,6,,,,,,,48,96
6189,note_off,21,0,0,,,,,3,,,,,,,48,0
6189,note_off,0,0,0,,,,,4,,,,,,,36,0
6189,note_off,0,0,0,,,,,6,,,,,,,48,0
6192,note_on,3,0,0,,,,,0,,,,,,,72,80
6192,note_on,0,0,0,,,,,1,,,,,,,69,80
6192,note_on,0,0,0,,,,,2,,,,,,,63,80
6192,note_on,0,0,0,,,,,3,,,,,,,48,80
6192,note_on,0,0,0,,,,,4,,,,,,,36,80
6192,note_on,0,0,0,,,,,6,,,,,,,48,96
6213,note_off,21,0,0,,,,,0,,,,,,,72,0
6213,note_off,0,0,0,,,,,1,,,,,,,69,0
6213,note_off,0,0,0,,,,,2,,,,,,,63,0
6213,note_off,0,0,0,,,,,3,,,,,,,48,0
6213,note_off,0,0,0,,,,,4,,,,,,,36,0
6213,note_off,0,0,0,,,,,6,,,,,,,48,0
6216,note_on,3,0,0,,,,,3,,,,,,,51,80
6216,note_on,0,0,0,,,,,4,,,,,,,39,80
6216,note_on,0,0,0,,,,,6,,,,,,,51,96
6228,note_off,12,0,0,,,,,3,,,,,,,51,0
6228,note_on,0,0,0,,,,,3,,,,,,,53,80
6228,note_off,0,0,0,,,,,4,,,,,,,39,0
6228,note_on,0,0,0,,,,,4,,,,,,,41,80
6228,note_off,0,0,0,,,,,6,,,,,,,51,0
6228,note_on,0,0,0,,,,,6,,,,,,,53,96
6234,note_off,6,0,0,,,,,3,,,,,,,53,0
6234,note_on,0,0,0,,,,,3,,,,,,,54,80
6234,note_off,0,0,0,,,,,4,,,,,,,41,0
6234,note_on,0,0,0,,,,,4,,,,,,,42,80
6234,note_off,0,0,0,,,,,6,,,,,,,53,0
6234,note_on,0,0,0,,,,,6,,,,,,,54,96
6239,note_off,5,0,0,,,,,3,,,,,,,54,0
6239,note_off,0,0,0,,,,,4,,,,,,,42,0
6239,note_off,0,0,0,,,,,6,,,,,,,54,0
6240,note_on,1,0,0,,,,,0,,,,,,,75,80
6240,note_on,0,0,0,,,,,1,,,,,,,72,80
6240,note_on,0,0,0,,,,,2,,,,,,,60,80
6240,note_on,0,0,0,,,,,3,,,,,,,45,80
6240,note_on,0,0,0,,,,,4,,,,,,,33,80
6240,note_on,0,0,0,,,,,6,,,,,,,45,96
6261,note_off,21,0,0,,,,,0,,,,,,,75,0
6261,note_off,0,0,0,,,,,1,,,,,,,72,0
6261,note_off,0,0,0,,,,,2,,,,,,,60,0
6261,note_off,0,0,0,,,,,3,,,,,,,45,0
6261,note_off,0,0,0,,,,,4,,,,,,,33,0
6261,note_off,0,0,0,,,,,6,,,,,,,45,0
6264,note_on,3,0,0,,,,,3,,,,,,,45,80
6264,note_on,0,0,0,,,,,4,,,,,,,33,80
6264,note_on,0,0,0,,,,,6,,,,,,,45,96
6285,note_off,21,0,0,,,,,3,,,,,,,45,0
6285,note_off,0,0,0,,,,,4,,,,,,,33,0
6285,note_off,0,0,0,,,,,6,,,,,,,45,0
6288,note_on,3,0,0,,,,,0,,,,,,,78,80
6288,note_on,0,0,0,,,,,1,,,,,,,75,80
6288,note_on,0,0,0,,,,,2,,,,,,,57,80
6288,note_on,0,0,0,,,,,3,,,,,,,45,80
6288,note_on,0,0,0,,,,,4,,,,,,,33,80
6288,note_on,0,0,0,,,,,6,,,,,,,45,96
6309,note_off,21,0,0,,,,,0,,,,,,,78,0
6309,note_off,0,0,0,,,,,1,,,,,,,75,0
6309,note_off,0,0,0,,,,,2,,,,,,,57,0
6309,note_off,0,0,0,,,,,3,,,,,,,45,0
6309,note_off,0,0,0,,,,,4,,,,,,,33,0
6309,note_off,0,0,0,,,,,6,,,,,,,45,0
6312,note_on,3,0,0,,,,,3,,,,,,,48,80
6312,note_on,0,0,0,,,,,4,,,,,,,36,80
6312,note_on,0,0,0,,,,,6,,,,,,,48,96
6324,note_off,12,0,0,,,,,3,,,,,,,48,0
6324,note_on,0,0,0,,,,,3,,,,,,,49,80
6324,note_off,0,0,0,,,,,4,,,,,,,36,0
6324,note_on,0,0,0,,,,,4,,,,,,,37,80
6324,note_off,0,0,0,,,,,6,,,,,,,48,0
6324,note_on,0,0,0,,,,,6,,,,,,,49,96
6330,note_off,6,0,0,,,,,3,,,,,,,49,0
6330,note_on,0,0,0,,,,,3,,,,,,,51,80
6330,note_off,0,0,0,,,,,4,,,,,,,37,0
6330,note_on,0,0,0,,,,,4,,,,,,,39,80
6330,note_off,0,0,0,,,,,6,,,,,,,49,0
6330,note_on,0,0,0,,,,,6,,,,,,,51,96
6335,note_off,5,0,0,,,,,3,,,,,,,51,0
6335,note_off,0,0,0,,,,,4,,,,,,,39,0
6335,note_off,0,0,0,,,,,6,,,,,,,51,0
6336,note_on,1,0,0,,,,,0,,,,,,,69,80
6336,note_on,0,0,0,,,,,1,,,,,,,75,80
6336,note_on,0,0,0,,,,,2,,,,,,,60,80
6336,note_on,0,0,0,,,,,3,,,,,,,41,80
6336,note_on,0,0,0,,,,,4,,,,,,,29,80
6336,note_off,0,0,0,,,,,5,,,,,,,78,0
6336,note_on,0,0,0,,,,,6,,,,,,,41,96
6344,note_on,8,0,0,,,,,5,,,,,,,77,96
6351,note_off,7,0,0,,,,,5,,,,,,,77,0
6352,note_on,1,0,0,,,,,5,,,,,,,75,96
6357,note_off,5,0,0,,,,,0,,,,,,,69,0
6357,note_off,0,0,0,,,,,1,,,,,,,75,0
6357,note_off,0,0,0,,,,,2,,,,,,,60,0
6357,note_off,0,0,0,,,,,3,,,,,,,41,0
6357,note_off,0,0,0,,,,,4,,,,,,,29,0
6357,note_off,0,0,0,,,,,6,,,,,,,41,0
6359,note_off,2,0,0,,,,,5,,,,,,,75,0
6360,note_on,1,0,0,,,,,3,,,,,,,41,80
6360,note_on,0,0,0,,,,,4,,,,,,,29,80
6360,note_on,0,0,0,,,,,5,,,,,,,73,96
6360,note_on,0,0,0,,,,,6,,,,,,,41,96
6367,note_off,7,0,0,,,,,5,,,,,,,73,0
6368,note_on,1,0,0,,,,,5,,,,,,,72,96
6375,note_off,7,0,0,,,,,5,,,,,,,72,0
6376,note_on,1,0,0,,,,,5,,,,,,,70,96
6381,note_off,5,0,0,,,,,3,,,,,,,41,0
6381,note_off,0,0,0,,,,,4,,,,,,,29,0
6381,note_off,0,0,0,,,,,6,,,,,,,41,0
6383,note_off,2,0,0,,,,,5,,,,,,,70,0
6384,note_on,1,0,0,,,,,0,,,,,,,72,80
6384,note_on,0,0,0,,,,,1,,,,,,,63,80
6384,note_on,0,0,0,,,,,2,,,,,,,65,80
6384,note_on,0,0,0,,,,,3,,,,,,,41,80
6384,note_on,0,0,0,,,,,4,,,,,,,29,80
6384,note_on,0,0,0,,,,,5,,,,,,,69,96
6384,note_on,0,0,0,,,,,6,,,,,,,41,96
6391,note_off,7,0,0,,,,,5,,,,,,,69,0
6392,note_on,1,0,0,,,,,5,,,,,,,66,96
6399,note_off,7,0,0,,,,,5,,,,,,,66,0
6400,note_on,1,0,0,,,,,5,,,,,,,65,96
6405,note_off,5,0,0,,,,,0,,,,,,,72,0
6405,note_off,0,0,0,,,,,1,,,,,,,63,0
6405,note_off,0,0,0,,,,,2,,,,,,,65,0
6405,note_off,0,0,0,,,,,3,,,,,,,41,0
6405,note_off,0,0,0,,,,,4,,,,,,,29,0
6405,note_off,0,0,0,,,,,6,,,,,,,41,0
6407,note_off,2,0,0,,,,,5,,,,,,,65,0
6408,note_on,1,0,0,,,,,3,,,,,,,45,80
6408,note_on,0,0,0,,,,,4,,,,,,,33,80
6408,note_on,0,0,0,,,,,5,,,,,,,63,96
6408,note_on,0,0,0,,,,,6,,,,,,,45,96
6415,note_off,7,0,0,,,,,5,,,,,,,63,0
6416,note_on,1,0,0,,,,,5,,,,,,,61,96
6420,note_off,4,0,0,,,,,3,,,,,,,45,0
6420,note_on,0,0,0,,,,,3,,,,,,,46,80
6420,note_off,0,0,0,,,,,4,,,,,,,33,0
6420,note_on,0,0,0,,,,,4,,,,,,,34,80
6420,note_off,0,0,0,,,,,6,,,,,,,45,0
6420,note_on,0,0,0,,,,,6,,,,,,,46,96
6423,note_off,3,0,0,,,,,5,,,,,,,61,0
6424,note_on,1,0,0,,,,,5,,,,,,,60,96
6426,note_off,2,0,0,,,,,3,,,,,,,46,0
6426,note_on,0,0,0,,,,,3,,,,,,,48,80
6426,note_off,0,0,0,,,,,4,,,,,,,34,0
6426,note_on,0,0,0,,,,,4,,,,,,,36,80
6426,note_off,0,0,0,,,,,6,,,,,,,46,0
6426,note_on,0,0,0,,,,,6,,,,,,,48,96
6431,note_off,5,0,0,,,,,3,,,,,,,48,0
6431,note_off,0,0,0,,,,,4,,,,,,,36,0
6431,note_off,0,0,0,,,,,5,,,,,,,60,0
6431,note_off,0,0,0,,,,,6,,,,,,,48,0
6432,note_on,1,0,0,,,,,0,,,,,,,72,80
6432,note_on,0,0,0,,,,,1,,,,,,,61,80
6432,note_on,0,0,0,,,,,2,,,,,,,65,80
6432,note_on,0,0,0,,,,,3,,,,,,,46,80
6432,note_on,0,0,0,,,,,4,,,,,,,34,80
6432,note_on,0,0,0,,,,,5,,,,,,,61,96
6432,note_on,0,0,0,,,,,6,,,,,,,46,96
6439,note_off,7,0,0,,,,,5,,,,,,,61,0
6440,note_on,1,0,0,,,,,5,,,,,,,58,96
6447,note_off,7,0,0,,,,,5,,,,,,,58,0
6448,note_on,1,0,0,,,,,5,,,,,,,61,96
6453,note_off,5,0,0,,,,,0,,,,,,,72,0
6453,note_off,0,0,0,,,,,1,,,,,,,61,0
6453,note_off,0,0,0,,,,,2,,,,,,,65,0
6453,note_off,0,0,0,,,,,6,,,,,,,46,0
6455,note_off,2,0,0,,,,,5,,,,,,,61,0
6456,note_on,1,0,0,,,,,0,,,,,,,70,80
6456,note_on,0,0,0,,,,,1,,,,,,,73,80
6456,note_on,0,0,0,,,,,2,,,,,,,58,80
6456,note_on,0,0,0,,,,,5,,,,,,,65,96
6456,note_on,0,0,0,,,,,6,,,,,,,58,96
6463,note_off,7,0,0,,,,,5,,,,,,,65,0
6464,note_on,1,0,0,,,,,5,,,,,,,69,96
6471,note_off,7,0,0,,,,,5,,,,,,,69,0
6472,note_on,1,0,0,,,,,5,,,,,,,70,96
6474,note_off,2,0,0,,,,,3,,,,,,,46,0
6474,note_off,0,0,0,,,,,4,,,,,,,34,0
6477,note_off,3,0,0,,,,,0,,,,,,,70,0
6477,note_off,0,0,0,,,,,1,,,,,,,73,0
6477,note_off,0,0,0,,,,,2,,,,,,,58,0
6477,note_off,0,0,0,,,,,6,,,,,,,58,0
6479,note_off,2,0,0,,,,,5,,,,,,,70,0
6480,note_on,1,0,0,,,,,0,,,,,,,65,80
6480,note_on,0,0,0,,,,,1,,,,,,,72,80
6480,note_on,0,0,0,,,,,2,,,,,,,58,80
6480,note_on,0,0,0,,,,,5,,,,,,,73,96
6480,note_on,0,0,0,,,,,6,,,,,,,58,96
6501,note_off,21,0,0,,,,,0,,,,,,,65,0
6501,note_off,0,0,0,,,,,1,,,,,,,72,0
6501,note_off,0,0,0,,,,,2,,,,,,,58,0
6501,note_off,0,0,0,,,,,6,,,,,,,58,0
6504,note_on,3,0,0,,,,,2,,,,,,,60,80
6504,note_on,0,0,0,,,,,6,,,,,,,60,96
6514,note_off,10,0,0,,,,,2,,,,,,,60,0
6514,note_off,0,0,0,,,,,6,,,,,,,60,0
6516,note_on,2,0,0,,,,,2,,,,,,,61,80
6516,note_on,0,0,0,,,,,6,,,,,,,61,96
6526,note_off,10,0,0,,,,,2,,,,,,,61,0
6526,note_off,0,0,0,,,,,6,,,,,,,61,0
6528,note_on,2,0,0,,,,,0,,,,,,,66,80
6528,note_on,0,0,0,,,,,1,,,,,,,70,80
6528,note_on,0,0,0,,,,,2,,,,,,,63,80
6528,note_on,0,0,0,,,,,6,,,,,,,63,96
6529,note_off,1,0,0,,,,,5,,,,,,,73,0
6536,note_on,7,0,0,,,,,5,,,,,,,75,96
6543,note_off,7,0,0,,,,,5,,,,,,,75,0
6544,note_on,1,0,0,,,,,5,,,,,,,77,96
6549,note_off,5,0,0,,,,,0,,,,,,,66,0
6549,note_off,0,0,0,,,,,1,,,,,,,70,0
6549,note_off,0,0,0,,,,,2,,,,,,,63,0
6549,note_off,0,0,0,,,,,6,,,,,,,63,0
6551,note_off,2,0,0,,,,,5,,,,,,,77,0
6552,note_on,1,0,0,,,,,2,,,,,,,63,80
6552,note_on,0,0,0,,,,,5,,,,,,,78,96
6552,note_on,0,0,0,,,,,6,,,,,,,63,96
6559,note_off,7,0,0,,,,,5,,,,,,,78,0
6560,note_on,1,0,0,,,,,5,,,,,,,77,96
6567,note_off,7,0,0,,,,,5,,,,,,,77,0
6568,note_on,1,0,0,,,,,5,,,,,,,75,96
6573,note_off,5,0,0,,,,,2,,,,,,,63,0
6573,note_off,0,0,0,,,,,6,,,,,,,63,0
6575,note_off,2,0,0,,,,,5,,,,,,,75,0
6576,note_on,1,0,0,,,,,0,,,,,,,78,80
6576,note_on,0,0,0,,,,,1,,,,,,,69,80
6576,note_on,0,0,0,,,,,2,,,,,,,63,80
6576,note_on,0,0,0,,,,,5,,,,,,,73,96
6576,note_on,0,0,0,,,,,6,,,,,,,63,96
6583,note_off,7,0,0,,,,,5,,,,,,,73,0
6584,note_on,1,0,0,,,,,5,,,,,,,72,96
6591,note_off,7,0,0,,,,,5,,,,,,,72,0
6592,note_on,1,0,0,,,,,5,,,,,,,70,96
6597,note_off,5,0,0,,,,,0,,,,,,,78,0
6597,note_off,0,0,0,,,,,1,,,,,,,69,0
6597,note_off,0,0,0,,,,,2,,,,,,,63,0
6597,note_off,0,0,0,,,,,6,,,,,,,63,0
6599,note_off,2,0,0,,,,,5,,,,,,,70,0
6600,note_on,1,0,0,,,,,2,,,,,,,63,80
6600,note_on,0,0,0,,,,,5,,,,,,,72,96
6600,note_on,0,0,0,,,,,6,,,,,,,63,96
6621,note_off,21,0,0,,,,,2,,,,,,,63,0
6621,note_off,0,0,0,,,,,6,,,,,,,63,0
6624,note_on,3,0,0,,,,,0,,,,,,,77,80
6624,note_on,0,0,0,,,,,1,,,,,,,69,80
6624,note_on,0,0,0,,,,,2,,,,,,,61,80
6624,note_on,0,0,0,,,,,6,,,,,,,61,96
6628,note_off,4,0,0,,,,,5,,,,,,,72,0
6632,note_on,4,0,0,,,,,5,,,,,,,73,96
6639,note_off,7,0,0,,,,,5,,,,,,,73,0
6640,note_on,1,0,0,,,,,5,,,,,,,75,96
6645,note_off,5,0,0,,,,,0,,,,,,,77,0
6645,note_off,0,0,0,,,,,1,,,,,,,69,0
6645,note_off,0,0,0,,,,,2,,,,,,,61,0
6645,note_off,0,0,0,,,,,6,,,,,,,61,0
6647,note_off,2,0,0,,,,,5,,,,,,,75,0
6648,note_on,1,0,0,,,,,2,,,,,,,61,80
6648,note_on,0,0,0,,,,,5,,,,,,,77,96
6648,note_on,0,0,0,,,,,6,,,,,,,61,96
6655,note_off,7,0,0,,,,,5,,,,,,,77,0
6656,note_on,1,0,0,,,,,5,,,,,,,75,96
6663,note_off,7,0,0,,,,,5,,,,,,,75,0
6664,note_on,1,0,0,,,,,5,,,,,,,73,96
6669,note_off,5,0,0,,,,,2,,,,,,,61,0
6669,note_off,0,0,0,,,,,6,,,,,,,61,0
6671,note_off,2,0,0,,,,,5,,,,,,,73,0
6672,note_on,1,0,0,,,,,0,,,,,,,65,80
6672,note_on,0,0,0,,,,,1,,,,,,,65,80
6672,note_on,0,0,0,,,,,2,,,,,,,62,80
6672,note_on,0,0,0,,,,,5,,,,,,,71,96
6672,note_on,0,0,0,,,,,6,,,,,,,62,96
6679,note_off,7,0,0,,,,,5,,,,,,,71,0
6680,note_on,1,0,0,,,,,5,,,,,,,70,96
6687,note_off,7,0,0,,,,,5,,,,,,,70,0
6688,note_on,1,0,0,,,,,5,,,,,,,69,96
6693,note_off,5,0,0,,,,,0,,,,,,,65,0
6693,note_off,0,0,0,,,,,1,,,,,,,65,0
6693,note_off,0,0,0,,,,,2,,,,,,,62,0
6693,note_off,0,0,0,,,,,6,,,,,,,62,0
6695,note_off,2,0,0,,,,,5,,,,,,,69,0
6696,note_on,1,0,0,,,,,2,,,,,,,62,80
6696,note_on,0,0,0,,,,,5,,,,,,,70,96
6696,note_on,0,0,0,,,,,6,,,,,,,62,96
6717,note_off,21,0,0,,,,,2,,,,,,,62,0
6717,note_off,0,0,0,,,,,6,,,,,,,62,0
6720,note_on,3,0,0,,,,,0,,,,,,,72,80
6720,note_on,0,0,0,,,,,1,,,,,,,69,80
6720,note_on,0,0,0,,,,,2,,,,,,,63,80
6720,note_on,0,0,0,,,,,6,,,,,,,63,96
6724,note_off,4,0,0,,,,,5,,,,,,,70,0
6728,note_on,4,0,0,,,,,5,,,,,,,80,96
6736,note_off,8,0,0,,,,,5,,,,,,,80,0
6736,note_on,0,0,0,,,,,5,,,,,,,78,96
6741,note_off,5,0,0,,,,,0,,,,,,,72,0
6741,note_off,0,0,0,,,,,1,,,,,,,69,0
6741,note_off,0,0,0,,,,,2,,,,,,,63,0
6741,note_off,0,0,0,,,,,6,,,,,,,63,0
6743,note_off,2,0,0,,,,,5,,,,,,,78,0
6744,note_on,1,0,0,,,,,0,,,,,,,73,80
6744,note_on,0,0,0,,,,,1,,,,,,,70,80
6744,note_on,0,0,0,,,,,2,,,,,,,61,80
6744,note_on,0,0,0,,,,,5,,,,,,,70,96
6744,note_on,0,0,0,,,,,6,,,,,,,61,96
6751,note_off,7,0,0,,,,,5,,,,,,,70,0
6752,note_on,1,0,0,,,,,5,,,,,,,78,96
6760,note_off,8,0,0,,,,,5,,,,,,,78,0
6760,note_on,0,0,0,,,,,5,,,,,,,77,96
6765,note_off,5,0,0,,,,,0,,,,,,,73,0
6765,note_off,0,0,0,,,,,1,,,,,,,70,0
6765,note_off,0,0,0,,,,,2,,,,,,,61,0
6765,note_off,0,0,0,,,,,6,,,,,,,61,0
6767,note_off,2,0,0,,,,,5,,,,,,,77,0
6768,note_on,1,0,0,,,,,0,,,,,,,69,80
6768,note_on,0,0,0,,,,,1,,,,,,,65,80
6768,note_on,0,0,0,,,,,2,,,,,,,60,80
6768,note_on,0,0,0,,,,,5,,,,,,,69,96
6768,note_on,0,0,0,,,,,6,,,,,,,60,96
6775,note_off,7,0,0,,,,,5,,,,,,,69,0
6776,note_on,1,0,0,,,,,5,,,,,,,77,96
6784,note_off,8,0,0,,,,,5,,,,,,,77,0
6784,note_on,0,0,0,,,,,5,,,,,,,75,96
6789,note_off,5,0,0,,,,,0,,,,,,,69,0
6789,note_off,0,0,0,,,,,1,,,,,,,65,0
6789,note_off,0,0,0,,,,,2,,,,,,,60,0
6789,note_off,0,0,0,,,,,6,,,,,,,60,0
6791,note_off,2,0,0,,,,,5,,,,,,,75,0
6792,note_on,1,0,0,,,,,0,,,,,,,70,80
6792,note_on,0,0,0,,,,,1,,,,,,,65,80
6792,note_on,0,0,0,,,,,2,,,,,,,58,80
6792,note_on,0,0,0,,,,,5,,,,,,,70,96
6792,note_on,0,0,0,,,,,6,,,,,,,58,96
6799,note_off,7,0,0,,,,,5,,,,,,,70,0
6800,note_on,1,0,0,,,,,5,,,,,,,75,96
6808,note_off,8,0,0,,,,,5,,,,,,,75,0
6808,note_on,0,0,0,,,,,5,,,,,,,73,96
6813,note_off,5,0,0,,,,,0,,,,,,,70,0
6813,note_off,0,0,0,,,,,1,,,,,,,65,0
6813,note_off,0,0,0,,,,,2,,,,,,,58,0
6813,note_off,0,0,0,,,,,6,,,,,,,58,0
6815,note_off,2,0,0,,,,,5,,,,,,,73,0
6816,note_on,1,0,0,,,,,0,,,,,,,70,80
6816,note_on,0,0,0,,,,,1,,,,,,,65,80
6816,note_on,0,0,0,,,,,2,,,,,,,53,80
6816,note_on,0,0,0,,,,,5,,,,,,,72,96
6816,note_on,0,0,0,,,,,6,,,,,,,53,96
6824,note_off,8,0,0,,,,,5,,,,,,,72,0
6824,note_on,0,0,0,,,,,5,,,,,,,76,96
6832,note_off,8,0,0,,,,,5,,,,,,,76,0
6832,note_on,0,0,0,,,,,5,,,,,,,77,96
6837,note_off,5,0,0,,,,,0,,,,,,,70,0
6837,note_off,0,0,0,,,,,1,,,,,,,65,0
6837,note_off,0,0,0,,,,,2,,,,,,,53,0
6839,note_off,2,0,0,,,,,5,,,,,,,77,0
6840,note_on,1,0,0,,,,,0,,,,,,,69,80
6840,note_on,0,0,0,,,,,1,,,,,,,60,80
6840,note_on,0,0,0,,,,,2,,,,,,,65,80
6840,note_on,0,0,0,,,,,3,,,,,,,53,80
6840,note_on,0,0,0,,,,,4,,,,,,,41,80
6840,note_on,0,0,0,,,,,5,,,,,,,65,96
6847,note_off,7,0,0,,,,,6,,,,,,,53,0
6852,note_off,5,0,0,,,,,3,,,,,,,53,0
6852,note_on,0,0,0,,,,,3,,,,,,,55,80
6852,note_off,0,0,0,,,,,4,,,,,,,41,0
6852,note_on,0,0,0,,,,,4,,,,,,,43,80
6852,note_on,0,0,0,,,,,6,,,,,,,55,96
6861,note_off,9,0,0,,,,,0,,,,,,,69,0
6861,note_off,0,0,0,,,,,1,,,,,,,60,0
6861,note_off,0,0,0,,,,,2,,,,,,,65,0
6861,note_off,0,0,0,,,,,5,,,,,,,65,0
6862,note_off,1,0,0,,,,,3,,,,,,,55,0
6862,note_off,0,0,0,,,,,4,,,,,,,43,0
6862,note_off,0,0,0,,,,,6,,,,,,,55,0
6864,note_on,2,0,0,,,,,0,,,,,,,65,80
6864,note_on,0,0,0,,,,,1,,,,,,,57,80
6864,note_on,0,0,0,,,,,2,,,,,,,60,80
6864,note_on,0,0,0,,,,,3,,,,,,,53,80
6864,note_on,0,0,0,,,,,4,,,,,,,41,80
6864,note_on,0,0,0,,,,,6,,,,,,,53,96
6874,note_off,10,0,0,,,,,6,,,,,,,53,0
6876,note_off,2,0,0,,,,,3,,,,,,,53,0
6876,note_on,0,0,0,,,,,3,,,,,,,51,80
6876,note_off,0,0,0,,,,,4,,,,,,,41,0
6876,note_on,0,0,0,,,,,4,,,,,,,39,80
6876,note_on,0,0,0,,,,,6,,,,,,,51,96
6885,note_off,9,0,0,,,,,0,,,,,,,65,0
6885,note_off,0,0,0,,,,,1,,,,,,,57,0
6885,note_off,0,0,0,,,,,2,,,,,,,60,0
6886,note_off,1,0,0,,,,,3,,,,,,,51,0
6886,note_off,0,0,0,,,,,4,,,,,,,39,0
6886,note_off,0,0,0,,,,,6,,,,,,,51,0
6888,note_on,2,0,0,,,,,0,,,,,,,72,80
6888,note_on,0,0,0,,,,,1,,,,,,,69,80
6888,note_on,0,0,0,,,,,2,,,,,,,53,80
6888,note_on,0,0,0,,,,,3,,,,,,,50,80
6888,note_on,0,0,0,,,,,4,,,,,,,38,80
6888,note_on,0,0,0,,,,,6,,,,,,,50,96
6898,note_off,10,0,0,,,,,6,,,,,,,50,0
6900,note_off,2,0,0,,,,,0,,,,,,,72,0
6900,note_on,0,0,0,,,,,0,,,,,,,74,80
6900,note_off,0,0,0,,,,,1,,,,,,,69,0
6900,note_on,0,0,0,,,,,1,,,,,,,70,80
6900,note_off,0,0,0,,,,,3,,,,,,,50,0
6900,note_on,0,0,0,,,,,3,,,,,,,48,80
6900,note_off,0,0,0,,,,,4,,,,,,,38,0
6900,note_on,0,0,0,,,,,4,,,,,,,36,80
6900,note_on,0,0,0,,,,,6,,,,,,,48,96
6906,note_off,6,0,0,,,,,0,,,,,,,74,0
6906,note_on,0,0,0,,,,,0,,,,,,,75,80
6906,note_off,0,0,0,,,,,1,,,,,,,70,0
6906,note_on,0,0,0,,,,,1,,,,,,,72,80
6909,note_off,3,0,0,,,,,2,,,,,,,53,0
6910,note_off,1,0,0,,,,,3,,,,,,,48,0
6910,note_off,0,0,0,,,,,4,,,,,,,36,0
6910,note_off,0,0,0,,,,,6,,,,,,,48,0
6911,note_off,1,0,0,,,,,0,,,,,,,75,0
6911,note_off,0,0,0,,,,,1,,,,,,,72,0
6912,note_on,1,0,0,,,,,0,,,,,,,65,96
6912,note_on,0,0,0,,,,,1,,,,,,,62,96
6912,note_on,0,0,0,,,,,2,,,,,,,58,96
6912,note_on,0,0,0,,,,,3,,,,,,,46,96
6912,note_on,0,0,0,,,,,4,,,,,,,34,96
6912,note_on,0,0,0,,,,,5,,,,,,,65,96
6912,note_on,0,0,0,,,,,5,,,,,,,62,96
6912,note_on,0,0,0,,,,,5,,,,,,,58,96
6912,note_on,0,0,0,,,,,6,,,,,,,46,96
6933,note_off,21,0,0,,,,,0,,,,,,,65,0
6933,note_off,0,0,0,,,,,1,,,,,,,62,0
6933,note_off,0,0,0,,,,,2,,,,,,,58,0
6933,note_off,0,0,0,,,,,3,,,,,,,46,0
6933,note_off,0,0,0,,,,,4,,,,,,,34,0
6933,note_off,0,0,0,,,,,5,,,,,,,65,0
6933,note_off,0,0,0,,,,,5,,,,,,,62,0
6933,note_off,0,0,0,,,,,5,,,,,,,58,0
6933,note_off,0,0,0,,,,,6,,,,,,,46,0
6936,note_on,3,0,0,,,,,3,,,,,,,46,96
6936,note_on,0,0,0,,,,,4,,,,,,,34,96
6936,note_on,0,0,0,,,,,6,,,,,,,46,96
6957,note_off,21,0,0,,,,,3,,,,,,,46,0
6957,note_off,0,0,0,,,,,4,,,,,,,34,0
6957,note_off,0,0,0,,,,,6,,,,,,,46,0
6960,note_on,3,0,0,,,,,0,,,,,,,68,96
6960,note_on,0,0,0,,,,,1,,,,,,,62,96
6960,note_on,0,0,0,,,,,2,,,,,,,53,96
6960,note_on,0,0,0,,,,,3,,,,,,,46,96
6960,note_on,0,0,0,,,,,4,,,,,,,34,96
6960,note_on,0,0,0,,,,,5,,,,,,,68,96
6960,note_on,0,0,0,,,,,5,,,,,,,65,96
6960,note_on,0,0,0,,,,,5,,,,,,,62,96
6960,note_on,0,0,0,,,,,5,,,,,,,58,96
6960,note_on,0,0,0,,,,,6,,,,,,,46,96
6981,note_off,21,0,0,,,,,0,,,,,,,68,0
6981,note_off,0,0,0,,,,,1,,,,,,,62,0
6981,note_off,0,0,0,,,,,2,,,,,,,53,0
6981,note_off,0,0,0,,,,,3,,,,,,,46,0
6981,note_off,0,0,0,,,,,4,,,,,,,34,0
6981,note_off,0,0,0,,,,,5,,,,,,,68,0
6981,note_off,0,0,0,,,,,5,,,,,,,65,0
6981,note_off,0,0,0,,,,,5,,,,,,,62,0
6981,note_off,0,0,0,,,,,5,,,,,,,58,0
6981,note_off,0,0,0,,,,,6,,,,,,,46,0
6984,note_on,3,0,0,,,,,3,,,,,,,50,96
6984,note_on,0,0,0,,,,,4,,,,,,,38,96
6984,note_on,0,0,0,,,,,6,,,,,,,50,96
6996,note_off,12,0,0,,,,,3,,,,,,,50,0
6996,note_on,0,0,0,,,,,3,,,,,,,51,96
6996,note_off,0,0,0,,,,,4,,,,,,,38,0
6996,note_on,0,0,0,,,,,4,,,,,,,39,96
6996,note_off,0,0,0,,,,,6,,,,,,,50,0
6996,note_on,0,0,0,,,,,6,,,,,,,51,96
7002,note_off,6,0,0,,,,,3,,,,,,,51,0
7002,note_on,0,0,0,,,,,3,,,,,,,53,96
7002,note_off,0,0,0,,,,,4,,,,,,,39,0
7002,note_on,0,0,0,,,,,4,,,,,,,41,96
7002,note_off,0,0,0,,,,,6,,,,,,,51,0
7002,note_on,0,0,0,,,,,6,,,,,,,53,96
7007,note_off,5,0,0,,,,,3,,,,,,,53,0
7007,note_off,0,0,0,,,,,4,,,,,,,41,0
7007,note_off,0,0,0,,,,,6,,,,,,,53,0
7008,note_on,1,0,0,,,,,0,,,,,,,68,96
7008,note_on,0,0,0,,,,,1,,,,,,,63,96
7008,note_on,0,0,0,,,,,2,,,,,,,58,96
7008,note_on,0,0,0,,,,,3,,,,,,,46,96
7008,note_on,0,0,0,,,,,4,,,,,,,34,96
7008,note_on,0,0,0,,,,,5,,,,,,,68,96
7008,note_on,0,0,0,,,,,5,,,,,,,63,96
7008,note_on,0,0,0,,,,,5,,,,,,,58,96
7008,note_on,0,0,0,,,,,6,,,,,,,46,96
7029,note_off,21,0,0,,,,,0,,,,,,,68,0
7029,note_off,0,0,0,,,,,1,,,,,,,63,0
7029,note_off,0,0,0,,,,,2,,,,,,,58,0
7029,note_off,0,0,0,,,,,3,,,,,,,46,0
7029,note_off,0,0,0,,,,,4,,,,,,,34,0
7029,note_off,0,0,0,,,,,5,,,,,,,68,0
7029,note_off,0,0,0,,,,,5,,,,,,,63,0
7029,note_off,0,0,0,,,,,5,,,,,,,58,0
7029,note_off,0,0,0,,,,,6,,,,,,,46,0
7032,note_on,3,0,0,,,,,3,,,,,,,46,96
7032,note_on,0,0,0,,,,,4,,,,,,,34,96
7032,note_on,0,0,0,,,,,6,,,,,,,46,96
7053,note_off,21,0,0,,,,,3,,,,,,,46,0
7053,note_off,0,0,0,,,,,4,,,,,,,34,0
7053,note_off,0,0,0,,,,,6,,,,,,,46,0
7056,note_on,3,0,0,,,,,0,,,,,,,67,96
7056,note_on,0,0,0,,,,,1,,,,,,,63,96
7056,note_on,0,0,0,,,,,2,,,,,,,58,96
7056,note_on,0,0,0,,,,,3,,,,,,,46,96
7056,note_on,0,0,0,,,,,4,,,,,,,34,96
7056,note_on,0,0,0,,,,,5,,,,,,,67,96
7056,note_on,0,0,0,,,,,5,,,,,,,63,96
7056,note_on,0,0,0,,,,,5,,,,,,,58,96
7056,note_on,0,0,0,,,,,6,,,,,,,46,96
7077,note_off,21,0,0,,,,,0,,,,,,,67,0
7077,note_off,0,0,0,,,,,1,,,,,,,63,0
7077,note_off,0,0,0,,,,,2,,,,,,,58,0
7077,note_off,0,0,0,,,,,3,,,,,,,46,0
7077,note_off,0,0,0,,,,,4,,,,,,,34,0
7077,note_off,0,0,0,,,,,5,,,,,,,67,0
7077,note_off,0,0,0,,,,,5,,,,,,,63,0
7077,note_off,0,0,0,,,,,5,,,,,,,58,0
7077,note_off,0,0,0,,,,,6,,,,,,,46,0
7080,note_on,3,0,0,,,,,3,,,,,,,51,96
7080,note_on,0,0,0,,,,,4,,,,,,,39,96
7080,note_on,0,0,0,,,,,6,,,,,,,51,96
7092,note_off,12,0,0,,,,,3,,,,,,,51,0
7092,note_on,0,0,0,,,,,3,,,,,,,53,96
7092,note_off,0,0,0,,,,,4,,,,,,,39,0
7092,note_on,0,0,0,,,,,4,,,,,,,41,96
7092,note_off,0,0,0,,,,,6,,,,,,,51,0
7092,note_on,0,0,0,,,,,6,,,,,,,53,96
7098,note_off,6,0,0,,,,,3,,,,,,,53,0
7098,note_on,0,0,0,,,,,3,,,,,,,55,96
7098,note_off,0,0,0,,,,,4,,,,,,,41,0
7098,note_on,0,0,0,,,,,4,,,,,,,43,96
7098,note_off,0,0,0,,,,,6,,,,,,,53,0
7098,note_on,0,0,0,,,,,6,,,,,,,55,96
7103,note_off,5,0,0,,,,,3,,,,,,,55,0
7103,note_off,0,0,0,,,,,4,,,,,,,43,0
7103,note_off,0,0,0,,,,,6,,,,,,,55,0
7104,note_on,1,0,0,,,,,0,,,,,,,72,96
7104,note_on,0,0,0,,,,,1,,,,,,,63,96
7104,note_on,0,0,0,,,,,2,,,,,,,55,96
7104,note_on,0,0,0,,,,,3,,,,,,,46,96
7104,note_on,0,0,0,,,,,4,,,,,,,34,96
7104,note_on,0,0,0,,,,,5,,,,,,,72,96
7104,note_on,0,0,0,,,,,5,,,,,,,67,96
7104,note_on,0,0,0,,,,,5,,,,,,,63,96
7104,note_on,0,0,0,,,,,6,,,,,,,46,96
7125,note_off,21,0,0,,,,,0,,,,,,,72,0
7125,note_off,0,0,0,,,,,1,,,,,,,63,0
7125,note_off,0,0,0,,,,,2,,,,,,,55,0
7125,note_off,0,0,0,,,,,3,,,,,,,46,0
7125,note_off,0,0,0,,,,,4,,,,,,,34,0
7125,note_off,0,0,0,,,,,5,,,,,,,72,0
7125,note_off,0,0,0,,,,,5,,,,,,,67,0
7125,note_off,0,0,0,,,,,5,,,,,,,63,0
7125,note_off,0,0,0,,,,,6,,,,,,,46,0
7128,note_on,3,0,0,,,,,3,,,,,,,46,96
7128,note_on,0,0,0,,,,,4,,,,,,,34,96
7128,note_on,0,0,0,,,,,6,,,,,,,46,96
7149,note_off,21,0,0,,,,,3,,,,,,,46,0
7149,note_off,0,0,0,,,,,4,,,,,,,34,0
7149,note_off,0,0,0,,,,,6,,,,,,,46,0
7152,note_on,3,0,0,,,,,0,,,,,,,63,96
7152,note_on,0,0,0,,,,,1,,,,,,,60,96
7152,note_on,0,0,0,,,,,2,,,,,,,57,96
7152,note_on,0,0,0,,,,,3,,,,,,,46,96
7152,note_on,0,0,0,,,,,4,,,,,,,34,96
7152,note_on,0,0,0,,,,,5,,,,,,,63,96
7152,note_on,0,0,0,,,,,5,,,,,,,60,96
7152,note_on,0,0,0,,,,,6,,,,,,,46,96
7173,note_off,21,0,0,,,,,0,,,,,,,63,0
7173,note_off,0,0,0,,,,,1,,,,,,,60,0
7173,note_off,0,0,0,,,,,2,,,,,,,57,0
7173,note_off,0,0,0,,,,,3,,,,,,,46,0
7173,note_off,0,0,0,,,,,4,,,,,,,34,0
7173,note_off,0,0,0,,,,,5,,,,,,,63,0
7173,note_off,0,0,0,,,,,5,,,,,,,60,0
7173,note_off,0,0,0,,,,,6,,,,,,,46,0
7176,note_on,3,0,0,,,,,3,,,,,,,57,96
7176,note_on,0,0,0,,,,,4,,,,,,,45,96
7176,note_on,0,0,0,,,,,6,,,,,,,57,96
7188,note_off,12,0,0,,,,,3,,,,,,,57,0
7188,note_on,0,0,0,,,,,3,,,,,,,58,96
7188,note_off,0,0,0,,,,,4,,,,,,,45,0
7188,note_on,0,0,0,,,,,4,,,,,,,46,96
7188,note_off,0,0,0,,,,,6,,,,,,,57,0
7188,note_on,0,0,0,,,,,6,,,,,,,58,96
7194,note_off,6,0,0,,,,,3,,,,,,,58,0
7194,note_on,0,0,0,,,,,3,,,,,,,60,96
7194,note_off,0,0,0,,,,,4,,,,,,,46,0
7194,note_on,0,0,0,,,,,4,,,,,,,48,96
7194,note_off,0,0,0,,,,,6,,,,,,,58,0
7194,note_on,0,0,0,,,,,6,,,,,,,60,96
7199,note_off,5,0,0,,,,,3,,,,,,,60,0
7199,note_off,0,0,0,,,,,4,,,,,,,48,0
7199,note_off,0,0,0,,,,,6,,,,,,,60,0
7200,note_on,1,0,0,,,,,0,,,,,,,63,96
7200,note_on,0,0,0,,,,,1,,,,,,,60,96
7200,note_on,0,0,0,,,,,2,,,,,,,53,96
7200,note_on,0,0,0,,,,,3,,,,,,,46,96
7200,note_on,0,0,0,,,,,4,,,,,,,34,96
7200,note_on,0,0,0,,,,,5,,,,,,,63,96
7200,note_on,0,0,0,,,,,5,,,,,,,60,96
7200,note_on,0,0,0,,,,,6,,,,,,,46,96
7221,note_off,21,0,0,,,,,0,,,,,,,63,0
7221,note_off,0,0,0,,,,,1,,,,,,,60,0
7221,note_off,0,0,0,,,,,2,,,,,,,53,0
7221,note_off,0,0,0,,,,,3,,,,,,,46,0
7221,note_off,0,0,0,,,,,4,,,,,,,34,0
7221,note_off,0,0,0,,,,,5,,,,,,,63,0
7221,note_off,0,0,0,,,,,5,,,,,,,60,0
7221,note_off,0,0,0,,,,,6,,,,,,,46,0
7224,note_on,3,0,0,,,,,3,,,,,,,46,96
7224,note_on,0,0,0,,,,,4,,,,,,,34,96
7224,note_on,0,0,0,,,,,6,,,,,,,46,96
7245,note_off,21,0,0,,,,,3,,,,,,,46,0
7245,note_off,0,0,0,,,,,4,,,,,,,34,0
7245,note_off,0,0,0,,,,,6,,,,,,,46,0
7248,note_on,3,0,0,,,,,0,,,,,,,62,96
7248,note_on,0,0,0,,,,,1,,,,,,,58,96
7248,note_on,0,0,0,,,,,2,,,,,,,53,96
7248,note_on,0,0,0,,,,,3,,,,,,,46,96
7248,note_on,0,0,0,,,,,4,,,,,,,34,96
7248,note_on,0,0,0,,,,,5,,,,,,,62,96
7248,note_on,0,0,0,,,,,5,,,,,,,58,96
7248,note_on,0,0,0,,,,,6,,,,,,,46,96
7269,note_off,21,0,0,,,,,0,,,,,,,62,0
7269,note_off,0,0,0,,,,,1,,,,,,,58,0
7269,note_off,0,0,0,,,,,2,,,,,,,53,0
7269,note_off,0,0,0,,,,,3,,,,,,,46,0
7269,note_off,0,0,0,,,,,4,,,,,,,34,0
7269,note_off,0,0,0,,,,,5,,,,,,,62,0
7269,note_off,0,0,0,,,,,5,,,,,,,58,0
7269,note_off,0,0,0,,,,,6,,,,,,,46,0
7272,note_on,3,0,0,,,,,3,,,,,,,58,96
7272,note_on,0,0,0,,,,,4,,,,,,,46,96
7272,note_on,0,0,0,,,,,6,,,,,,,58,96
7284,note_off,12,0,0,,,,,3,,,,,,,58,0
7284,note_on,0,0,0,,,,,3,,,,,,,60,96
7284,note_off,0,0,0,,,,,4,,,,,,,46,0
7284,note_on,0,0,0,,,,,4,,,,,,,48,96
7284,note_off,0,0,0,,,,,6,,,,,,,58,0
7284,note_on,0,0,0,,,,,6,,,,,,,60,96
7290,note_off,6,0,0,,,,,3,,,,,,,60,0
7290,note_on,0,0,0,,,,,3,,,,,,,62,96
7290,note_off,0,0,0,,,,,4,,,,,,,48,0
7290,note_on,0,0,0,,,,,4,,,,,,,50,96
7290,note_off,0,0,0,,,,,6,,,,,,,60,0
7290,note_on,0,0,0,,,,,6,,,,,,,62,96
7295,note_off,5,0,0,,,,,3,,,,,,,62,0
7295,note_off,0,0,0,,,,,4,,,,,,,50,0
7295,note_off,0,0,0,,,,,6,,,,,,,62,0
7296,note_on,1,0,0,,,,,0,,,,,,,67,80
7296,note_on,0,0,0,,,,,1,,,,,,,58,80
7296,note_on,0,0,0,,,,,2,,,,,,,51,80
7296,note_on,0,0,0,,,,,3,,,,,,,51,80
7296,note_on,0,0,0,,,,,4,,,,,,,39,80
7296,note_on,0,0,0,,,,,5,,,,,,,67,96
7296,note_on,0,0,0,,,,,6,,,,,,,51,96
7317,note_off,21,0,0,,,,,0,,,,,,,67,0
7317,note_off,0,0,0,,,,,1,,,,,,,58,0
7317,note_off,0,0,0,,,,,2,,,,,,,51,0
7317,note_off,0,0,0,,,,,6,,,,,,,51,0
7320,note_on,3,0,0,,,,,2,,,,,,,51,80
7320,note_on,0,0,0,,,,,6,,,,,,,51,96
7338,note_off,18,0,0,,,,,3,,,,,,,51,0
7338,note_off,0,0,0,,,,,4,,,,,,,39,0
7341,note_off,3,0,0,,,,,2,,,,,,,51,0
7341,note_off,0,0,0,,,,,6,,,,,,,51,0
7344,note_on,3,0,0,,,,,0,,,,,,,72,80
7344,note_on,0,0,0,,,,,1,,,,,,,67,80
7344,note_on,0,0,0,,,,,2,,,,,,,63,80
7344,note_on,0,0,0,,,,,6,,,,,,,51,96
7345,note_off,1,0,0,,,,,5,,,,,,,67,0
7352,note_on,7,0,0,,,,,5,,,,,,,63,96
7359,note_off,7,0,0,,,,,5,,,,,,,63,0
7360,note_on,1,0,0,,,,,5,,,,,,,62,96
7365,note_off,5,0,0,,,,,0,,,,,,,72,0
7365,note_off,0,0,0,,,,,1,,,,,,,67,0
7365,note_off,0,0,0,,,,,2,,,,,,,63,0
7365,note_off,0,0,0,,,,,6,,,,,,,51,0
7367,note_off,2,0,0,,,,,5,,,,,,,62,0
7368,note_on,1,0,0,,,,,2,,,,,,,63,80
7368,note_on,0,0,0,,,,,5,,,,,,,63,96
7368,note_on,0,0,0,,,,,6,,,,,,,51,96
7375,note_off,7,0,0,,,,,5,,,,,,,63,0
7376,note_on,1,0,0,,,,,5,,,,,,,67,96
7383,note_off,7,0,0,,,,,5,,,,,,,67,0
7384,note_on,1,0,0,,,,,5,,,,,,,72,96
7389,note_off,5,0,0,,,,,2,,,,,,,63,0
7389,note_off,0,0,0,,,,,6,,,,,,,51,0
7391,note_off,2,0,0,,,,,5,,,,,,,72,0
7392,note_on,1,0,0,,,,,0,,,,,,,65,80
7392,note_on,0,0,0,,,,,1,,,,,,,69,80
7392,note_on,0,0,0,,,,,2,,,,,,,62,80
7392,note_on,0,0,0,,,,,5,,,,,,,72,96
7392,note_on,0,0,0,,,,,6,,,,,,,50,96
7413,note_off,21,0,0,,,,,0,,,,,,,65,0
7413,note_off,0,0,0,,,,,1,,,,,,,69,0
7413,note_off,0,0,0,,,,,2,,,,,,,62,0
7413,note_off,0,0,0,,,,,5,,,,,,,72,0
7413,note_off,0,0,0,,,,,6,,,,,,,50,0
7416,note_on,3,0,0,,,,,2,,,,,,,62,80
7416,note_on,0,0,0,,,,,5,,,,,,,67,96
7416,note_on,0,0,0,,,,,6,,,,,,,50,96
7419,note_off,3,0,0,,,,,5,,,,,,,67,0
7419,note_on,0,0,0,,,,,5,,,,,,,65,96
7422,note_off,3,0,0,,,,,5,,,,,,,65,0
7422,note_on,0,0,0,,,,,5,,,,,,,67,96
7425,note_off,3,0,0,,,,,5,,,,,,,67,0
7425,note_on,0,0,0,,,,,5,,,,,,,65,96
7428,note_off,3,0,0,,,,,5,,,,,,,65,0
7428,note_on,0,0,0,,,,,5,,,,,,,67,96
7431,note_off,3,0,0,,,,,5,,,,,,,67,0
7431,note_on,0,0,0,,,,,5,,,,,,,65,96
7434,note_off,3,0,0,,,,,5,,,,,,,65,0
7434,note_on,0,0,0,,,,,5,,,,,,,67,96
7437,note_off,3,0,0,,,,,2,,,,,,,62,0
7437,note_off,0,0,0,,,,,5,,,,,,,67,0
7437,note_on,0,0,0,,,,,5,,,,,,,65,96
7437,note_off,0,0,0,,,,,6,,,,,,,50,0
7440,note_on,3,0,0,,,,,0,,,,,,,70,80
7440,note_on,0,0,0,,,,,1,,,,,,,65,80
7440,note_on,0,0,0,,,,,2,,,,,,,62,80
7440,note_on,0,0,0,,,,,6,,,,,,,50,96
7447,note_off,7,0,0,,,,,5,,,,,,,65,0
7448,note_on,1,0,0,,,,,5,,,,,,,62,96
7455,note_off,7,0,0,,,,,5,,,,,,,62,0
7456,note_on,1,0,0,,,,,5,,,,,,,60,96
7461,note_off,5,0,0,,,,,0,,,,,,,70,0
7461,note_off,0,0,0,,,,,1,,,,,,,65,0
7461,note_off,0,0,0,,,,,2,,,,,,,62,0
7461,note_off,0,0,0,,,,,6,,,,,,,50,0
7463,note_off,2,0,0,,,,,5,,,,,,,60,0
7464,note_on,1,0,0,,,,,2,,,,,,,62,80
7464,note_on,0,0,0,,,,,5,,,,,,,62,96
7464,note_on,0,0,0,,,,,6,,,,,,,50,96
7471,note_off,7,0,0,,,,,5,,,,,,,62,0
7472,note_on,1,0,0,,,,,5,,,,,,,65,96
7479,note_off,7,0,0,,,,,5,,,,,,,65,0
7480,note_on,1,0,0,,,,,5,,,,,,,70,96
7485,note_off,5,0,0,,,,,2,,,,,,,62,0
7485,note_off,0,0,0,,,,,6,,,,,,,50,0
7487,note_off,2,0,0,,,,,5,,,,,,,70,0
7488,note_on,1,0,0,,,,,0,,,,,,,63,80
7488,note_on,0,0,0,,,,,1,,,,,,,67,80
7488,note_on,0,0,0,,,,,2,,,,,,,60,80
7488,note_on,0,0,0,,,,,5,,,,,,,70,96
7488,note_on,0,0,0,,,,,6,,,,,,,48,96
7495,note_off,7,0,0,,,,,5,,,,,,,70,0
7496,note_on,1,0,0,,,,,5,,,,,,,69,96
7503,note_off,7,0,0,,,,,5,,,,,,,69,0
7504,note_on,1,0,0,,,,,5,,,,,,,67,96
7509,note_off,5,0,0,,,,,0,,,,,,,63,0
7509,note_off,0,0,0,,,,,1,,,,,,,67,0
7509,note_off,0,0,0,,,,,2,,,,,,,60,0
7509,note_off,0,0,0,,,,,6,,,,,,,48,0
7511,note_off,2,0,0,,,,,5,,,,,,,67,0
7512,note_on,1,0,0,,,,,2,,,,,,,60,80
7512,note_on,0,0,0,,,,,5,,,,,,,69,96
7512,note_on,0,0,0,,,,,6,,,,,,,48,96
7519,note_off,7,0,0,,,,,5,,,,,,,69,0
7520,note_on,1,0,0,,,,,5,,,,,,,72,96
7527,note_off,7,0,0,,,,,5,,,,,,,72,0
7528,note_on,1,0,0,,,,,5,,,,,,,75,96
7533,note_off,5,0,0,,,,,2,,,,,,,60,0
7533,note_off,0,0,0,,,,,6,,,,,,,48,0
7535,note_off,2,0,0,,,,,5,,,,,,,75,0
7536,note_on,1,0,0,,,,,0,,,,,,,67,80
7536,note_on,0,0,0,,,,,1,,,,,,,60,80
7536,note_on,0,0,0,,,,,2,,,,,,,58,80
7536,note_on,0,0,0,,,,,5,,,,,,,75,96
7536,note_on,0,0,0,,,,,6,,,,,,,46,96
7543,note_off,7,0,0,,,,,5,,,,,,,75,0
7544,note_on,1,0,0,,,,,5,,,,,,,74,96
7551,note_off,7,0,0,,,,,5,,,,,,,74,0
7552,note_on,1,0,0,,,,,5,,,,,,,72,96
7557,note_off,5,0,0,,,,,0,,,,,,,67,0
7557,note_off,0,0,0,,,,,1,,,,,,,60,0
7557,note_off,0,0,0,,,,,2,,,,,,,58,0
7557,note_off,0,0,0,,,,,6,,,,,,,46,0
7559,note_off,2,0,0,,,,,5,,,,,,,72,0
7560,note_on,1,0,0,,,,,2,,,,,,,58,80
7560,note_on,0,0,0,,,,,5,,,,,,,70,96
7560,note_on,0,0,0,,,,,6,,,,,,,46,96
7567,note_off,7,0,0,,,,,5,,,,,,,70,0
7568,note_on,1,0,0,,,,,5,,,,,,,69,96
7575,note_off,7,0,0,,,,,5,,,,,,,69,0
7576,note_on,1,0,0,,,,,5,,,,,,,67,96
7581,note_off,5,0,0,,,,,2,,,,,,,58,0
7581,note_off,0,0,0,,,,,6,,,,,,,46,0
7583,note_off,2,0,0,,,,,5,,,,,,,67,0
7584,note_on,1,0,0,,,,,0,,,,,,,72,80
7584,note_on,0,0,0,,,,,1,,,,,,,60,80
7584,note_on,0,0,0,,,,,2,,,,,,,57,80
7584,note_on,0,0,0,,,,,5,,,,,,,65,96
7584,note_on,0,0,0,,,,,6,,,,,,,45,96
7605,note_off,21,0,0,,,,,0,,,,,,,72,0
7605,note_off,0,0,0,,,,,1,,,,,,,60,0
7605,note_off,0,0,0,,,,,2,,,,,,,57,0
7605,note_off,0,0,0,,,,,6,,,,,,,45,0
7608,note_on,3,0,0,,,,,2,,,,,,,57,80
7608,note_on,0,0,0,,,,,6,,,,,,,45,96
7629,note_off,21,0,0,,,,,2,,,,,,,57,0
7629,note_off,0,0,0,,,,,6,,,,,,,45,0
7632,note_on,3,0,0,,,,,0,,,,,,,69,80
7632,note_on,0,0,0,,,,,1,,,,,,,60,80
7632,note_on,0,0,0,,,,,2,,,,,,,53,80
7632,note_on,0,0,0,,,,,6,,,,,,,53,96
7633,note_off,1,0,0,,,,,5,,,,,,,65,0
7640,note_on,7,0,0,,,,,5,,,,,,,69,96
7647,note_off,7,0,0,,,,,5,,,,,,,69,0
7648,note_on,1,0,0,,,,,5,,,,,,,72,96
7653,note_off,5,0,0,,,,,0,,,,,,,69,0
7653,note_off,0,0,0,,,,,1,,,,,,,60,0
7653,note_off,0,0,0,,,,,2,,,,,,,53,0
7653,note_off,0,0,0,,,,,6,,,,,,,53,0
7655,note_off,2,0,0,,,,,5,,,,,,,72,0
7656,note_on,1,0,0,,,,,2,,,,,,,53,80
7656,note_on,0,0,0,,,,,5,,,,,,,75,96
7656,note_on,0,0,0,,,,,6,,,,,,,53,96
7663,note_off,7,0,0,,,,,5,,,,,,,75,0
7664,note_on,1,0,0,,,,,5,,,,,,,73,96
7671,note_off,7,0,0,,,,,5,,,,,,,73,0
7672,note_on,1,0,0,,,,,5,,,,,,,72,96
7677,note_off,5,0,0,,,,,2,,,,,,,53,0
7677,note_off,0,0,0,,,,,6,,,,,,,53,0
7679,note_off,2,0,0,,,,,5,,,,,,,72,0
7680,note_on,1,0,0,,,,,0,,,,,,,70,80
7680,note_on,0,0,0,,,,,1,,,,,,,55,80
7680,note_on,0,0,0,,,,,2,,,,,,,52,80
7680,note_on,0,0,0,,,,,5,,,,,,,73,96
7680,note_on,0,0,0,,,,,6,,,,,,,52,96
7701,note_off,21,0,0,,,,,0,,,,,,,70,0
7701,note_off,0,0,0,,,,,1,,,,,,,55,0
7701,note_off,0,0,0,,,,,2,,,,,,,52,0
7701,note_off,0,0,0,,,,,6,,,,,,,52,0
7704,note_on,3,0,0,,,,,2,,,,,,,52,80
7704,note_on,0,0,0,,,,,6,,,,,,,52,96
7725,note_off,21,0,0,,,,,2,,,,,,,52,0
7725,note_off,0,0,0,,,,,6,,,,,,,52,0
7728,note_on,3,0,0,,,,,0,,,,,,,66,80
7728,note_on,0,0,0,,,,,1,,,,,,,63,80
7728,note_on,0,0,0,,,,,2,,,,,,,51,80
7728,note_on,0,0,0,,,,,6,,,,,,,51,96
7729,note_off,1,0,0,,,,,5,,,,,,,73,0
7736,note_on,7,0,0,,,,,5,,,,,,,72,96
7743,note_off,7,0,0,,,,,5,,,,,,,72,0
7744,note_on,1,0,0,,,,,5,,,,,,,70,96
7749,note_off,5,0,0,,,,,0,,,,,,,66,0
7749,note_off,0,0,0,,,,,1,,,,,,,63,0
7749,note_off,0,0,0,,,,,2,,,,,,,51,0
7749,note_off,0,0,0,,,,,6,,,,,,,51,0
7751,note_off,2,0,0,,,,,5,,,,,,,70,0
7752,note_on,1,0,0,,,,,2,,,,,,,51,80
7752,note_on,0,0,0,,,,,5,,,,,,,71,96
7752,note_on,0,0,0,,,,,6,,,,,,,51,96
7773,note_off,21,0,0,,,,,2,,,,,,,51,0
7773,note_off,0,0,0,,,,,6,,,,,,,51,0
7776,note_on,3,0,0,,,,,0,,,,,,,65,80
7776,note_on,0,0,0,,,,,1,,,,,,,65,80
7776,note_on,0,0,0,,,,,2,,,,,,,50,80
7776,note_on,0,0,0,,,,,6,,,,,,,50,96
7780,note_off,4,0,0,,,,,5,,,,,,,71,0
7784,note_on,4,0,0,,,,,5,,,,,,,70,96
7791,note_off,7,0,0,,,,,5,,,,,,,70,0
7792,note_on,1,0,0,,,,,5,,,,,,,69,96
7797,note_off,5,0,0,,,,,0,,,,,,,65,0
7797,note_off,0,0,0,,,,,1,,,,,,,65,0
7797,note_off,0,0,0,,,,,2,,,,,,,50,0
7797,note_off,0,0,0,,,,,6,,,,,,,50,0
7799,note_off,2,0,0,,,,,5,,,,,,,69,0
7800,note_on,1,0,0,,,,,2,,,,,,,50,80
7800,note_on,0,0,0,,,,,5,,,,,,,70,96
7800,note_on,0,0,0,,,,,6,,,,,,,50,96
7821,note_off,21,0,0,,,,,2,,,,,,,50,0
7821,note_off,0,0,0,,,,,6,,,,,,,50,0
7824,note_on,3,0,0,,,,,0,,,,,,,70,80
7824,note_on,0,0,0,,,,,1,,,,,,,65,80
7824,note_on,0,0,0,,,,,2,,,,,,,61,80
7824,note_on,0,0,0,,,,,6,,,,,,,49,96
7828,note_off,4,0,0,,,,,5,,,,,,,70,0
7832,note_on,4,0,0,,,,,5,,,,,,,68,96
7839,note_off,7,0,0,,,,,5,,,,,,,68,0
7840,note_on,1,0,0,,,,,5,,,,,,,66,96
7845,note_off,5,0,0,,,,,0,,,,,,,70,0
7845,note_off,0,0,0,,,,,1,,,,,,,65,0
7845,note_off,0,0,0,,,,,2,,,,,,,61,0
7845,note_off,0,0,0,,,,,6,,,,,,,49,0
7847,note_off,2,0,0,,,,,5,,,,,,,66,0
7848,note_on,1,0,0,,,,,2,,,,,,,61,80
7848,note_on,0,0,0,,,,,5,,,,,,,65,96
7848,note_on,0,0,0,,,,,6,,,,,,,49,96
7855,note_off,7,0,0,,,,,5,,,,,,,65,0
7856,note_on,1,0,0,,,,,5,,,,,,,64,96
7863,note_off,7,0,0,,,,,5,,,,,,,64,0
7864,note_on,1,0,0,,,,,5,,,,,,,65,96
7869,note_off,5,0,0,,,,,2,,,,,,,61,0
7869,note_off,0,0,0,,,,,6,,,,,,,49,0
7871,note_off,2,0,0,,,,,5,,,,,,,65,0
7872,note_on,1,0,0,,,,,0,,,,,,,69,80
7872,note_on,0,0,0,,,,,1,,,,,,,65,80
7872,note_on,0,0,0,,,,,2,,,,,,,60,80
7872,note_on,0,0,0,,,,,5,,,,,,,75,96
7872,note_on,0,0,0,,,,,6,,,,,,,48,96
7879,note_off,7,0,0,,,,,5,,,,,,,75,0
7880,note_on,1,0,0,,,,,5,,,,,,,74,96
7887,note_off,7,0,0,,,,,5,,,,,,,74,0
7888,note_on,1,0,0,,,,,5,,,,,,,72,96
7893,note_off,5,0,0,,,,,0,,,,,,,69,0
7893,note_off,0,0,0,,,,,1,,,,,,,65,0
7893,note_off,0,0,0,,,,,2,,,,,,,60,0
7893,note_off,0,0,0,,,,,6,,,,,,,48,0
7895,note_off,2,0,0,,,,,5,,,,,,,72,0
7896,note_on,1,0,0,,,,,0,,,,,,,70,80
7896,note_on,0,0,0,,,,,1,,,,,,,65,80
7896,note_on,0,0,0,,,,,2,,,,,,,58,80
7896,note_on,0,0,0,,,,,5,,,,,,,77,96
7896,note_on,0,0,0,,,,,6,,,,,,,46,96
7912,note_off,16,0,0,,,,,5,,,,,,,77,0
7914,note_on,2,0,0,,,,,5,,,,,,,70,96
7917,note_off,3,0,0,,,,,0,,,,,,,70,0
7917,note_off,0,0,0,,,,,1,,,,,,,65,0
7917,note_off,0,0,0,,,,,2,,,,,,,58,0
7917,note_off,0,0,0,,,,,6,,,,,,,46,0
7919,note_off,2,0,0,,,,,5,,,,,,,70,0
7920,note_on,1,0,0,,,,,0,,,,,,,70,80
7920,note_on,0,0,0,,,,,1,,,,,,,65,80
7920,note_on,0,0,0,,,,,2,,,,,,,65,80
7920,note_on,0,0,0,,,,,5,,,,,,,72,96
7920,note_on,0,0,0,,,,,6,,,,,,,53,96
7941,note_off,21,0,0,,,,,0,,,,,,,70,0
7941,note_off,0,0,0,,,,,1,,,,,,,65,0
7941,note_off,0,0,0,,,,,2,,,,,,,65,0
7941,note_off,0,0,0,,,,,6,,,,,,,53,0
7944,note_on,3,0,0,,,,,0,,,,,,,69,80
7944,note_on,0,0,0,,,,,1,,,,,,,63,80
7944,note_on,0,0,0,,,,,2,,,,,,,53,80
7944,note_on,0,0,0,,,,,6,,,,,,,41,96
7951,note_off,7,0,0,,,,,5,,,,,,,72,0
7956,note_on,5,0,0,,,,,5,,,,,,,70,96
7965,note_off,9,0,0,,,,,0,,,,,,,69,0
7965,note_off,0,0,0,,,,,1,,,,,,,63,0
7965,note_off,0,0,0,,,,,2,,,,,,,53,0
7965,note_off,0,0,0,,,,,6,,,,,,,41,0
7966,note_off,1,0,0,,,,,5,,,,,,,70,0
7968,note_on,2,0,0,,,,,0,,,,,,,70,80
7968,note_on,0,0,0,,,,,1,,,,,,,62,80
7968,note_on,0,0,0,,,,,2,,,,,,,58,80
7968,note_on,0,0,0,,,,,5,,,,,,,70,96
7968,note_on,0,0,0,,,,,6,,,,,,,46,96
7978,note_off,10,0,0,,,,,6,,,,,,,46,0
7980,note_on,2,0,0,,,,,3,,,,,,,58,80
7980,note_on,0,0,0,,,,,4,,,,,,,46,80
7980,note_on,0,0,0,,,,,6,,,,,,,58,96
7989,note_off,9,0,0,,,,,0,,,,,,,70,0
7989,note_off,0,0,0,,,,,1,,,,,,,62,0
7989,note_off,0,0,0,,,,,2,,,,,,,58,0
7990,note_off,1,0,0,,,,,6,,,,,,,58,0
7992,note_on,2,0,0,,,,,0,,,,,,,65,80
7992,note_on,0,0,0,,,,,1,,,,,,,62,80
7992,note_on,0,0,0,,,,,2,,,,,,,58,80
7992,note_off,0,0,0,,,,,3,,,,,,,58,0
7992,note_on,0,0,0,,,,,3,,,,,,,57,80
7992,note_off,0,0,0,,,,,4,,,,,,,46,0
7992,note_on,0,0,0,,,,,4,,,,,,,45,80
7992,note_on,0,0,0,,,,,6,,,,,,,57,96
8002,note_off,10,0,0,,,,,6,,,,,,,57,0
8004,note_off,2,0,0,,,,,3,,,,,,,57,0
8004,note_on,0,0,0,,,,,3,,,,,,,55,80
8004,note_off,0,0,0,,,,,4,,,,,,,45,0
8004,note_on,0,0,0,,,,,4,,,,,,,43,80
8004,note_on,0,0,0,,,,,6,,,,,,,55,96
8010,note_off,6,0,0,,,,,5,,,,,,,70,0
8013,note_off,3,0,0,,,,,0,,,,,,,65,0
8013,note_off,0,0,0,,,,,1,,,,,,,62,0
8013,note_off,0,0,0,,,,,2,,,,,,,58,0
8014,note_off,1,0,0,,,,,3,,,,,,,55,0
8014,note_off,0,0,0,,,,,4,,,,,,,43,0
8014,note_off,0,0,0,,,,,6,,,,,,,55,0
8016,note_on,2,0,0,,,,,0,,,,,,,70,80
8016,note_on,0,0,0,,,,,1,,,,,,,65,80
8016,note_on,0,0,0,,,,,2,,,,,,,62,80
8016,note_on,0,0,0,,,,,3,,,,,,,53,80
8016,note_on,0,0,0,,,,,4,,,,,,,41,80
8016,note_on,0,0,0,,,,,6,,,,,,,53,96
8026,note_off,10,0,0,,,,,6,,,,,,,53,0
8028,note_off,2,0,0,,,,,3,,,,,,,53,0
8028,note_on,0,0,0,,,,,3,,,,,,,51,80
8028,note_off,0,0,0,,,,,4,,,,,,,41,0
8028,note_on,0,0,0,,,,,4,,,,,,,39,80
8028,note_on,0,0,0,,,,,6,,,,,,,51,96
8037,note_off,9,0,0,,,,,0,,,,,,,70,0
8037,note_off,0,0,0,,,,,1,,,,,,,65,0
8037,note_off,0,0,0,,,,,2,,,,,,,62,0
8038,note_off,1,0,0,,,,,3,,,,,,,51,0
8038,note_off,0,0,0,,,,,4,,,,,,,39,0
8038,note_off,0,0,0,,,,,6,,,,,,,51,0
8040,note_on,2,0,0,,,,,0,,,,,,,72,80
8040,note_on,0,0,0,,,,,1,,,,,,,69,80
8040,note_on,0,0,0,,,,,2,,,,,,,63,80
8040,note_on,0,0,0,,,,,3,,,,,,,50,80
8040,note_on,0,0,0,,,,,4,,,,,,,38,80
8040,note_on,0,0,0,,,,,6,,,,,,,50,96
8050,note_off,10,0,0,,,,,6,,,,,,,50,0
8052,note_off,2,0,0,,,,,0,,,,,,,72,0
8052,note_on,0,0,0,,,,,0,,,,,,,74,80
8052,note_off,0,0,0,,,,,1,,,,,,,69,0
8052,note_on,0,0,0,,,,,1,,,,,,,70,80
8052,note_off,0,0,0,,,,,3,,,,,,,50,0
8052,note_on,0,0,0,,,,,3,,,,,,,48,80
8052,note_off,0,0,0,,,,,4,,,,,,,38,0
8052,note_on,0,0,0,,,,,4,,,,,,,36,80
8052,note_on,0,0,0,,,,,6,,,,,,,48,96
8058,note_off,6,0,0,,,,,0,,,,,,,74,0
8058,note_on,0,0,0,,,,,0,,,,,,,75,80
8058,note_off,0,0,0,,,,,1,,,,,,,70,0
8058,note_on,0,0,0,,,,,1,,,,,,,72,80
8061,note_off,3,0,0,,,,,2,,,,,,,63,0
8062,note_off,1,0,0,,,,,3,,,,,,,48,0
8062,note_off,0,0,0,,,,,4,,,,,,,36,0
8062,note_off,0,0,0,,,,,6,,,,,,,48,0
8063,note_off,1,0,0,,,,,0,,,,,,,75,0
8063,note_off,0,0,0,,,,,1,,,,,,,72,0
8064,note_on,1,0,0,,,,,0,,,,,,,74,96
8064,note_on,0,0,0,,,,,1,,,,,,,65,96
8064,note_on,0,0,0,,,,,2,,,,,,,65,96
8064,note_on,0,0,0,,,,,3,,,,,,,46,96
8064,note_on,0,0,0,,,,,4,,,,,,,34,96
8064,note_on,0,0,0,,,,,5,,,,,,,74,96
8064,note_on,0,0,0,,,,,5,,,,,,,70,96
8064,note_on,0,0,0,,,,,5,,,,,,,65,96
8064,note_on,0,0,0,,,,,6,,,,,,,46,96
8085,note_off,21,0,0,,,,,0,,,,,,,74,0
8085,note_off,0,0,0,,,,,1,,,,,,,65,0
8085,note_off,0,0,0,,,,,2,,,,,,,65,0
8085,note_off,0,0,0,,,,,3,,,,,,,46,0
8085,note_off,0,0,0,,,,,4,,,,,,,34,0
8085,note_off,0,0,0,,,,,5,,,,,,,74,0
8085,note_off,0,0,0,,,,,5,,,,,,,70,0
8085,note_off,0,0,0,,,,,5,,,,,,,65,0
8085,note_off,0,0,0,,,,,6,,,,,,,46,0
8088,note_on,3,0,0,,,,,3,,,,,,,46,96
8088,note_on,0,0,0,,,,,4,,,,,,,34,96
8088,note_on,0,0,0,,,,,6,,,,,,,46,96
8109,note_off,21,0,0,,,,,3,,,,,,,46,0
8109,note_off,0,0,0,,,,,4,,,,,,,34,0
8109,note_off,0,0,0,,,,,6,,,,,,,46,0
8112,note_on,3,0,0,,,,,0,,,,,,,77,96
8112,note_on,0,0,0,,,,,1,,,,,,,68,96
8112,note_on,0,0,0,,,,,2,,,,,,,62,96
8112,note_on,0,0,0,,,,,3,,,,,,,46,96
8112,note_on,0,0,0,,,,,4,,,,,,,34,96
8112,note_on,0,0,0,,,,,5,,,,,,,77,96
8112,note_on,0,0,0,,,,,5,,,,,,,74,96
8112,note_on,0,0,0,,,,,5,,,,,,,68,96
8112,note_on,0,0,0,,,,,6,,,,,,,46,96
8133,note_off,21,0,0,,,,,0,,,,,,,77,0
8133,note_off,0,0,0,,,,,1,,,,,,,68,0
8133,note_off,0,0,0,,,,,2,,,,,,,62,0
8133,note_off,0,0,0,,,,,3,,,,,,,46,0
8133,note_off,0,0,0,,,,,4,,,,,,,34,0
8133,note_off,0,0,0,,,,,5,,,,,,,77,0
8133,note_off,0,0,0,,,,,5,,,,,,,74,0
8133,note_off,0,0,0,,,,,5,,,,,,,68,0
8133,note_off,0,0,0,,,,,6,,,,,,,46,0
8136,note_on,3,0,0,,,,,3,,,,,,,50,96
8136,note_on,0,0,0,,,,,4,,,,,,,38,96
8136,note_on,0,0,0,,,,,6,,,,,,,50,96
8148,note_off,12,0,0,,,,,3,,,,,,,50,0
8148,note_on,0,0,0,,,,,3,,,,,,,51,96
8148,note_off,0,0,0,,,,,4,,,,,,,38,0
8148,note_on,0,0,0,,,,,4,,,,,,,39,96
8148,note_off,0,0,0,,,,,6,,,,,,,50,0
8148,note_on,0,0,0,,,,,6,,,,,,,51,96
8154,note_off,6,0,0,,,,,3,,,,,,,51,0
8154,note_on,0,0,0,,,,,3,,,,,,,53,96
8154,note_off,0,0,0,,,,,4,,,,,,,39,0
8154,note_on,0,0,0,,,,,4,,,,,,,41,96
8154,note_off,0,0,0,,,,,6,,,,,,,51,0
8154,note_on,0,0,0,,,,,6,,,,,,,53,96
8159,note_off,5,0,0,,,,,3,,,,,,,53,0
8159,note_off,0,0,0,,,,,4,,,,,,,41,0
8159,note_off,0,0,0,,,,,6,,,,,,,53,0
8160,note_on,1,0,0,,,,,0,,,,,,,77,96
8160,note_on,0,0,0,,,,,1,,,,,,,67,96
8160,note_on,0,0,0,,,,,2,,,,,,,58,96
8160,note_on,0,0,0,,,,,3,,,,,,,46,96
8160,note_on,0,0,0,,,,,4,,,,,,,34,96
8160,note_on,0,0,0,,,,,5,,,,,,,77,96
8160,note_on,0,0,0,,,,,5,,,,,,,70,96
8160,note_on,0,0,0,,,,,5,,,,,,,67,96
8160,note_on,0,0,0,,,,,6,,,,,,,46,96
8181,note_off,21,0,0,,,,,0,,,,,,,77,0
8181,note_off,0,0,0,,,,,1,,,,,,,67,0
8181,note_off,0,0,0,,,,,2,,,,,,,58,0
8181,note_off,0,0,0,,,,,3,,,,,,,46,0
8181,note_off,0,0,0,,,,,4,,,,,,,34,0
8181,note_off,0,0,0,,,,,5,,,,,,,77,0
8181,note_off,0,0,0,,,,,5,,,,,,,70,0
8181,note_off,0,0,0,,,,,5,,,,,,,67,0
8181,note_off,0,0,0,,,,,6,,,,,,,46,0
8184,note_on,3,0,0,,,,,3,,,,,,,46,96
8184,note_on,0,0,0,,,,,4,,,,,,,34,96
8184,note_on,0,0,0,,,,,6,,,,,,,46,96
8205,note_off,21,0,0,,,,,3,,,,,,,46,0
8205,note_off,0,0,0,,,,,4,,,,,,,34,0
8205,note_off,0,0,0,,,,,6,,,,,,,46,0
8208,note_on,3,0,0,,,,,0,,,,,,,75,96
8208,note_on,0,0,0,,,,,1,,,,,,,67,96
8208,note_on,0,0,0,,,,,2,,,,,,,58,96
8208,note_on,0,0,0,,,,,3,,,,,,,46,96
8208,note_on,0,0,0,,,,,4,,,,,,,34,96
8208,note_on,0,0,0,,,,,5,,,,,,,75,96
8208,note_on,0,0,0,,,,,5,,,,,,,70,96
8208,note_on,0,0,0,,,,,5,,,,,,,67,96
8208,note_on,0,0,0,,,,,6,,,,,,,46,96
8229,note_off,21,0,0,,,,,0,,,,,,,75,0
8229,note_off,0,0,0,,,,,1,,,,,,,67,0
8229,note_off,0,0,0,,,,,2,,,,,,,58,0
8229,note_off,0,0,0,,,,,3,,,,,,,46,0
8229,note_off,0,0,0,,,,,4,,,,,,,34,0
8229,note_off,0,0,0,,,,,5,,,,,,,75,0
8229,note_off,0,0,0,,,,,5,,,,,,,70,0
8229,note_off,0,0,0,,,,,5,,,,,,,67,0
8229,note_off,0,0,0,,,,,6,,,,,,,46,0
8232,note_on,3,0,0,,,,,3,,,,,,,51,96
8232,note_on,0,0,0,,,,,4,,,,,,,39,96
8232,note_on,0,0,0,,,,,6,,,,,,,51,96
8244,note_off,12,0,0,,,,,3,,,,,,,51,0
8244,note_on,0,0,0,,,,,3,,,,,,,53,96
8244,note_off,0,0,0,,,,,4,,,,,,,39,0
8244,note_on,0,0,0,,,,,4,,,,,,,41,96
8244,note_off,0,0,0,,,,,6,,,,,,,51,0
8244,note_on,0,0,0,,,,,6,,,,,,,53,96
8250,note_off,6,0,0,,,,,3,,,,,,,53,0
8250,note_on,0,0,0,,,,,3,,,,,,,55,96
8250,note_off,0,0,0,,,,,4,,,,,,,41,0
8250,note_on,0,0,0,,,,,4,,,,,,,43,96
8250,note_off,0,0,0,,,,,6,,,,,,,53,0
8250,note_on,0,0,0,,,,,6,,,,,,,55,96
8255,note_off,5,0,0,,,,,3,,,,,,,55,0
8255,note_off,0,0,0,,,,,4,,,,,,,43,0
8255,note_off,0,0,0,,,,,6,,,,,,,55,0
8256,note_on,1,0,0,,,,,0,,,,,,,72,96
8256,note_on,0,0,0,,,,,1,,,,,,,69,96
8256,note_on,0,0,0,,,,,2,,,,,,,63,96
8256,note_on,0,0,0,,,,,3,,,,,,,46,96
8256,note_on,0,0,0,,,,,4,,,,,,,34,96
8256,note_on,0,0,0,,,,,5,,,,,,,72,96
8256,note_on,0,0,0,,,,,5,,,,,,,69,96
8256,note_on,0,0,0,,,,,5,,,,,,,63,96
8256,note_on,0,0,0,,,,,6,,,,,,,46,96
8277,note_off,21,0,0,,,,,0,,,,,,,72,0
8277,note_off,0,0,0,,,,,1,,,,,,,69,0
8277,note_off,0,0,0,,,,,2,,,,,,,63,0
8277,note_off,0,0,0,,,,,3,,,,,,,46,0
8277,note_off,0,0,0,,,,,4,,,,,,,34,0
8277,note_off,0,0,0,,,,,5,,,,,,,72,0
8277,note_off,0,0,0,,,,,5,,,,,,,69,0
8277,note_off,0,0,0,,,,,5,,,,,,,63,0
8277,note_off,0,0,0,,,,,6,,,,,,,46,0
8280,note_on,3,0,0,,,,,3,,,,,,,46,96
8280,note_on,0,0,0,,,,,4,,,,,,,34,96
8280,note_on,0,0,0,,,,,6,,,,,,,46,96
8301,note_off,21,0,0,,,,,3,,,,,,,46,0
8301,note_off,0,0,0,,,,,4,,,,,,,34,0
8301,note_off,0,0,0,,,,,6,,,,,,,46,0
8304,note_on,3,0,0,,,,,0,,,,,,,75,96
8304,note_on,0,0,0,,,,,1,,,,,,,72,96
8304,note_on,0,0,0,,,,,2,,,,,,,57,96
8304,note_on,0,0,0,,,,,3,,,,,,,46,96
8304,note_on,0,0,0,,,,,4,,,,,,,34,96
8304,note_on,0,0,0,,,,,5,,,,,,,75,96
8304,note_on,0,0,0,,,,,5,,,,,,,72,96
8304,note_on,0,0,0,,,,,5,,,,,,,69,96
8304,note_on,0,0,0,,,,,5,,,,,,,65,96
8304,note_on,0,0,0,,,,,6,,,,,,,46,96
8325,note_off,21,0,0,,,,,0,,,,,,,75,0
8325,note_off,0,0,0,,,,,1,,,,,,,72,0
8325,note_off,0,0,0,,,,,2,,,,,,,57,0
8325,note_off,0,0,0,,,,,3,,,,,,,46,0
8325,note_off,0,0,0,,,,,4,,,,,,,34,0
8325,note_off,0,0,0,,,,,5,,,,,,,75,0
8325,note_off,0,0,0,,,,,5,,,,,,,72,0
8325,note_off,0,0,0,,,,,5,,,,,,,69,0
8325,note_off,0,0,0,,,,,5,,,,,,,65,0
8325,note_off,0,0,0,,,,,6,,,,,,,46,0
8328,note_on,3,0,0,,,,,3,,,,,,,57,96
8328,note_on,0,0,0,,,,,4,,,,,,,45,96
8328,note_on,0,0,0,,,,,6,,,,,,,57,96
8340,note_off,12,0,0,,,,,3,,,,,,,57,0
8340,note_on,0,0,0,,,,,3,,,,,,,58,96
8340,note_off,0,0,0,,,,,4,,,,,,,45,0
8340,note_on,0,0,0,,,,,4,,,,,,,46,96
8340,note_off,0,0,0,,,,,6,,,,,,,57,0
8340,note_on,0,0,0,,,,,6,,,,,,,58,96
8346,note_off,6,0,0,,,,,3,,,,,,,58,0
8346,note_on,0,0,0,,,,,3,,,,,,,60,96
8346,note_off,0,0,0,,,,,4,,,,,,,46,0
8346,note_on,0,0,0,,,,,4,,,,,,,48,96
8346,note_off,0,0,0,,,,,6,,,,,,,58,0
8346,note_on,0,0,0,,,,,6,,,,,,,60,96
8351,note_off,5,0,0,,,,,3,,,,,,,60,0
8351,note_off,0,0,0,,,,,4,,,,,,,48,0
8351,note_off,0,0,0,,,,,6,,,,,,,60,0
8352,note_on,1,0,0,,,,,0,,,,,,,75,96
8352,note_on,0,0,0,,,,,1,,,,,,,72,96
8352,note_on,0,0,0,,,,,2,,,,,,,53,96
8352,note_on,0,0,0,,,,,3,,,,,,,46,96
8352,note_on,0,0,0,,,,,4,,,,,,,34,96
8352,note_on,0,0,0,,,,,5,,,,,,,75,96
8352,note_on,0,0,0,,,,,5,,,,,,,72,96
8352,note_on,0,0,0,,,,,6,,,,,,,46,96
8359,note_off,7,0,0,,,,,5,,,,,,,72,0
8360,note_on,1,0,0,,,,,5,,,,,,,65,96
8367,note_off,7,0,0,,,,,5,,,,,,,65,0
8368,note_on,1,0,0,,,,,5,,,,,,,67,96
8373,note_off,5,0,0,,,,,0,,,,,,,75,0
8373,note_off,0,0,0,,,,,1,,,,,,,72,0
8373,note_off,0,0,0,,,,,2,,,,,,,53,0
8373,note_off,0,0,0,,,,,3,,,,,,,46,0
8373,note_off,0,0,0,,,,,4,,,,,,,34,0
8373,note_off,0,0,0,,,,,5,,,,,,,75,0
8373,note_off,0,0,0,,,,,6,,,,,,,46,0
8375,note_off,2,0,0,,,,,5,,,,,,,67,0
8376,note_on,1,0,0,,,,,3,,,,,,,46,96
8376,note_on,0,0,0,,,,,4,,,,,,,34,96
8376,note_on,0,0,0,,,,,5,,,,,,,69,96
8376,note_on,0,0,0,,,,,6,,,,,,,46,96
8383,note_off,7,0,0,,,,,5,,,,,,,69,0
8384,note_on,1,0,0,,,,,5,,,,,,,70,96
8391,note_off,7,0,0,,,,,5,,,,,,,70,0
8392,note_on,1,0,0,,,,,5,,,,,,,72,96
8397,note_off,5,0,0,,,,,3,,,,,,,46,0
8397,note_off,0,0,0,,,,,4,,,,,,,34,0
8397,note_off,0,0,0,,,,,6,,,,,,,46,0
8399,note_off,2,0,0,,,,,5,,,,,,,72,0
8400,note_on,1,0,0,,,,,0,,,,,,,74,96
8400,note_on,0,0,0,,,,,1,,,,,,,70,96
8400,note_on,0,0,0,,,,,2,,,,,,,65,96
8400,note_on,0,0,0,,,,,3,,,,,,,46,96
8400,note_on,0,0,0,,,,,4,,,,,,,34,96
8400,note_on,0,0,0,,,,,5,,,,,,,74,96
8400,note_on,0,0,0,,,,,6,,,,,,,46,96
8407,note_off,7,0,0,,,,,5,,,,,,,74,0
8408,note_on,1,0,0,,,,,5,,,,,,,70,96
8415,note_off,7,0,0,,,,,5,,,,,,,70,0
8416,note_on,1,0,0,,,,,5,,,,,,,72,96
8421,note_off,5,0,0,,,,,0,,,,,,,74,0
8421,note_off,0,0,0,,,,,1,,,,,,,70,0
8421,note_off,0,0,0,,,,,2,,,,,,,65,0
8421,note_off,0,0,0,,,,,3,,,,,,,46,0
8421,note_off,0,0,0,,,,,4,,,,,,,34,0
8421,note_off,0,0,0,,,,,6,,,,,,,46,0
8423,note_off,2,0,0,,,,,5,,,,,,,72,0
8424,note_on,1,0,0,,,,,3,,,,,,,58,96
8424,note_on,0,0,0,,,,,4,,,,,,,46,96
8424,note_on,0,0,0,,,,,5,,,,,,,74,96
8424,note_on,0,0,0,,,,,6,,,,,,,58,96
8431,note_off,7,0,0,,,,,5,,,,,,,74,0
8432,note_on,1,0,0,,,,,5,,,,,,,75,96
8436,note_off,4,0,0,,,,,3,,,,,,,58,0
8436,note_on,0,0,0,,,,,3,,,,,,,60,96
8436,note_off,0,0,0,,,,,4,,,,,,,46,0
8436,note_on,0,0,0,,,,,4,,,,,,,48,96
8436,note_off,0,0,0,,,,,6,,,,,,,58,0
8436,note_on,0,0,0,,,,,6,,,,,,,60,96
8439,note_off,3,0,0,,,,,5,,,,,,,75,0
8440,note_on,1,0,0,,,,,5,,,,,,,77,96
8442,note_off,2,0,0,,,,,3,,,,,,,60,0
8442,note_on,0,0,0,,,,,3,,,,,,,62,96
8442,note_off,0,0,0,,,,,4,,,,,,,48,0
8442,note_on,0,0,0,,,,,4,,,,,,,50,96
8442,note_off,0,0,0,,,,,6,,,,,,,60,0
8442,note_on,0,0,0,,,,,6,,,,,,,62,96
8447,note_off,5,0,0,,,,,3,,,,,,,62,0
8447,note_off,0,0,0,,,,,4,,,,,,,50,0
8447,note_off,0,0,0,,,,,5,,,,,,,77,0
8447,note_off,0,0,0,,,,,6,,,,,,,62,0
8448,note_on,1,0,0,,,,,0,,,,,,,74,96
8448,note_on,0,0,0,,,,,1,,,,,,,70,96
8448,note_on,0,0,0,,,,,2,,,,,,,63,96
8448,note_on,0,0,0,,,,,3,,,,,,,51,96
8448,note_on,0,0,0,,,,,4,,,,,,,39,96
8448,note_on,0,0,0,,,,,5,,,,,,,79,96
8448,note_on,0,0,0,,,,,6,,,,,,,51,96
8455,note_off,7,0,0,,,,,5,,,,,,,79,0
8456,note_on,1,0,0,,,,,5,,,,,,,75,96
8463,note_off,7,0,0,,,,,5,,,,,,,75,0
8464,note_on,1,0,0,,,,,5,,,,,,,77,96
8469,note_off,5,0,0,,,,,0,,,,,,,74,0
8469,note_off,0,0,0,,,,,1,,,,,,,70,0
8469,note_off,0,0,0,,,,,2,,,,,,,63,0
8469,note_off,0,0,0,,,,,3,,,,,,,51,0
8469,note_off,0,0,0,,,,,4,,,,,,,39,0
8469,note_off,0,0,0,,,,,6,,,,,,,51,0
8471,note_off,2,0,0,,,,,5,,,,,,,77,0
8472,note_on,1,0,0,,,,,3,,,,,,,51,96
8472,note_on,0,0,0,,,,,4,,,,,,,39,96
8472,note_on,0,0,0,,,,,5,,,,,,,79,96
8472,note_on,0,0,0,,,,,6,,,,,,,51,96
8479,note_off,7,0,0,,,,,5,,,,,,,79,0
8480,note_on,1,0,0,,,,,5,,,,,,,81,96
8487,note_off,7,0,0,,,,,5,,,,,,,81,0
8488,note_on,1,0,0,,,,,5,,,,,,,82,96
8493,note_off,5,0,0,,,,,3,,,,,,,51,0
8493,note_off,0,0,0,,,,,4,,,,,,,39,0
8493,note_off,0,0,0,,,,,6,,,,,,,51,0
8495,note_off,2,0,0,,,,,5,,,,,,,82,0
8496,note_on,1,0,0,,,,,0,,,,,,,72,96
8496,note_on,0,0,0,,,,,1,,,,,,,67,96
8496,note_on,0,0,0,,,,,2,,,,,,,67,96
8496,note_on,0,0,0,,,,,3,,,,,,,51,96
8496,note_on,0,0,0,,,,,4,,,,,,,39,96
8496,note_on,0,0,0,,,,,5,,,,,,,84,96
8496,note_on,0,0,0,,,,,6,,,,,,,51,96
8503,note_off,7,0,0,,,,,5,,,,,,,84,0
8504,note_on,1,0,0,,,,,5,,,,,,,82,96
8511,note_off,7,0,0,,,,,5,,,,,,,82,0
8512,note_on,1,0,0,,,,,5,,,,,,,81,96
8517,note_off,5,0,0,,,,,0,,,,,,,72,0
8517,note_off,0,0,0,,,,,1,,,,,,,67,0
8517,note_off,0,0,0,,,,,2,,,,,,,67,0
8517,note_off,0,0,0,,,,,3,,,,,,,51,0
8517,note_off,0,0,0,,,,,4,,,,,,,39,0
8517,note_off,0,0,0,,,,,6,,,,,,,51,0
8519,note_off,2,0,0,,,,,5,,,,,,,81,0
8520,note_on,1,0,0,,,,,3,,,,,,,57,96
8520,note_on,0,0,0,,,,,4,,,,,,,45,96
8520,note_on,0,0,0,,,,,5,,,,,,,79,96
8520,note_on,0,0,0,,,,,6,,,,,,,57,96
8527,note_off,7,0,0,,,,,5,,,,,,,79,0
8528,note_on,1,0,0,,,,,5,,,,,,,77,96
8532,note_off,4,0,0,,,,,3,,,,,,,57,0
8532,note_on,0,0,0,,,,,3,,,,,,,58,96
8532,note_off,0,0,0,,,,,4,,,,,,,45,0
8532,note_on,0,0,0,,,,,4,,,,,,,46,96
8532,note_off,0,0,0,,,,,6,,,,,,,57,0
8532,note_on,0,0,0,,,,,6,,,,,,,58,96
8535,note_off,3,0,0,,,,,5,,,,,,,77,0
8536,note_on,1,0,0,,,,,5,,,,,,,75,96
8538,note_off,2,0,0,,,,,3,,,,,,,58,0
8538,note_on,0,0,0,,,,,3,,,,,,,60,96
8538,note_off,0,0,0,,,,,4,,,,,,,46,0
8538,note_on,0,0,0,,,,,4,,,,,,,48,96
8538,note_off,0,0,0,,,,,6,,,,,,,58,0
8538,note_on,0,0,0,,,,,6,,,,,,,60,96
8543,note_off,5,0,0,,,,,3,,,,,,,60,0
8543,note_off,0,0,0,,,,,4,,,,,,,48,0
8543,note_off,0,0,0,,,,,5,,,,,,,75,0
8543,note_off,0,0,0,,,,,6,,,,,,,60,0
8544,note_on,1,0,0,,,,,0,,,,,,,72,96
8544,note_on,0,0,0,,,,,1,,,,,,,69,96
8544,note_on,0,0,0,,,,,2,,,,,,,65,96
8544,note_on,0,0,0,,,,,3,,,,,,,50,96
8544,note_on,0,0,0,,,,,4,,,,,,,38,96
8544,note_on,0,0,0,,,,,5,,,,,,,77,96
8544,note_on,0,0,0,,,,,6,,,,,,,50,96
8551,note_off,7,0,0,,,,,5,,,,,,,77,0
8552,note_on,1,0,0,,,,,5,,,,,,,74,96
8559,note_off,7,0,0,,,,,5,,,,,,,74,0
8560,note_on,1,0,0,,,,,5,,,,,,,75,96
8565,note_off,5,0,0,,,,,0,,,,,,,72,0
8565,note_off,0,0,0,,,,,1,,,,,,,69,0
8565,note_off,0,0,0,,,,,2,,,,,,,65,0
8565,note_off,0,0,0,,,,,3,,,,,,,50,0
8565,note_off,0,0,0,,,,,4,,,,,,,38,0
8565,note_off,0,0,0,,,,,6,,,,,,,50,0
8567,note_off,2,0,0,,,,,5,,,,,,,75,0
8568,note_on,1,0,0,,,,,3,,,,,,,50,96
8568,note_on,0,0,0,,,,,4,,,,,,,38,96
8568,note_on,0,0,0,,,,,5,,,,,,,77,96
8568,note_on,0,0,0,,,,,6,,,,,,,50,96
8575,note_off,7,0,0,,,,,5,,,,,,,77,0
8576,note_on,1,0,0,,,,,5,,,,,,,79,96
8583,note_off,7,0,0,,,,,5,,,,,,,79,0
8584,note_on,1,0,0,,,,,5,,,,,,,81,96
8589,note_off,5,0,0,,,,,3,,,,,,,50,0
8589,note_off,0,0,0,,,,,4,,,,,,,38,0
8589,note_off,0,0,0,,,,,6,,,,,,,50,0
8591,note_off,2,0,0,,,,,5,,,,,,,81,0
8592,note_on,1,0,0,,,,,0,,,,,,,70,96
8592,note_on,0,0,0,,,,,1,,,,,,,65,96
8592,note_on,0,0,0,,,,,2,,,,,,,62,96
8592,note_on,0,0,0,,,,,3,,,,,,,50,96
8592,note_on,0,0,0,,,,,4,,,,,,,38,96
8592,note_on,0,0,0,,,,,5,,,,,,,82,96
8592,note_on,0,0,0,,,,,6,,,,,,,50,96
8599,note_off,7,0,0,,,,,5,,,,,,,82,0
8600,note_on,1,0,0,,,,,5,,,,,,,81,96
8607,note_off,7,0,0,,,,,5,,,,,,,81,0
8608,note_on,1,0,0,,,,,5,,,,,,,79,96
8613,note_off,5,0,0,,,,,0,,,,,,,70,0
8613,note_off,0,0,0,,,,,1,,,,,,,65,0
8613,note_off,0,0,0,,,,,2,,,,,,,62,0
8613,note_off,0,0,0,,,,,3,,,,,,,50,0
8613,note_off,0,0,0,,,,,4,,,,,,,38,0
8613,note_off,0,0,0,,,,,6,,,,,,,50,0
8615,note_off,2,0,0,,,,,5,,,,,,,79,0
8616,note_on,1,0,0,,,,,3,,,,,,,55,96
8616,note_on,0,0,0,,,,,4,,,,,,,43,96
8616,note_on,0,0,0,,,,,5,,,,,,,77,96
8616,note_on,0,0,0,,,,,6,,,,,,,55,96
8623,note_off,7,0,0,,,,,5,,,,,,,77,0
8624,note_on,1,0,0,,,,,5,,,,,,,75,96
8628,note_off,4,0,0,,,,,3,,,,,,,55,0
8628,note_on,0,0,0,,,,,3,,,,,,,57,96
8628,note_off,0,0,0,,,,,4,,,,,,,43,0
8628,note_on,0,0,0,,,,,4,,,,,,,45,96
8628,note_off,0,0,0,,,,,6,,,,,,,55,0
8628,note_on,0,0,0,,,,,6,,,,,,,57,96
8631,note_off,3,0,0,,,,,5,,,,,,,75,0
8632,note_on,1,0,0,,,,,5,,,,,,,74,96
8634,note_off,2,0,0,,,,,3,,,,,,,57,0
8634,note_on,0,0,0,,,,,3,,,,,,,58,96
8634,note_off,0,0,0,,,,,4,,,,,,,45,0
8634,note_on,0,0,0,,,,,4,,,,,,,46,96
8634,note_off,0,0,0,,,,,6,,,,,,,57,0
8634,note_on,0,0,0,,,,,6,,,,,,,58,96
8639,note_off,5,0,0,,,,,3,,,,,,,58,0
8639,note_off,0,0,0,,,,,4,,,,,,,46,0
8639,note_off,0,0,0,,,,,5,,,,,,,74,0
8639,note_off,0,0,0,,,,,6,,,,,,,58,0
8640,note_on,1,0,0,,,,,0,,,,,,,69,96
8640,note_on,0,0,0,,,,,1,,,,,,,72,96
8640,note_on,0,0,0,,,,,2,,,,,,,63,96
8640,note_on,0,0,0,,,,,3,,,,,,,48,96
8640,note_on,0,0,0,,,,,4,,,,,,,36,96
8640,note_on,0,0,0,,,,,5,,,,,,,75,96
8640,note_on,0,0,0,,,,,6,,,,,,,48,96
8647,note_off,7,0,0,,,,,5,,,,,,,75,0
8648,note_on,1,0,0,,,,,5,,,,,,,74,96
8655,note_off,7,0,0,,,,,5,,,,,,,74,0
8656,note_on,1,0,0,,,,,5,,,,,,,72,96
8661,note_off,5,0,0,,,,,0,,,,,,,69,0
8661,note_off,0,0,0,,,,,1,,,,,,,72,0
8661,note_off,0,0,0,,,,,2,,,,,,,63,0
8661,note_off,0,0,0,,,,,3,,,,,,,48,0
8661,note_off,0,0,0,,,,,4,,,,,,,36,0
8661,note_off,0,0,0,,,,,6,,,,,,,48,0
8663,note_off,2,0,0,,,,,5,,,,,,,72,0
8664,note_on,1,0,0,,,,,0,,,,,,,70,96
8664,note_on,0,0,0,,,,,1,,,,,,,65,96
8664,note_on,0,0,0,,,,,2,,,,,,,65,96
8664,note_on,0,0,0,,,,,3,,,,,,,46,96
8664,note_on,0,0,0,,,,,4,,,,,,,34,96
8664,note_on,0,0,0,,,,,5,,,,,,,74,96
8664,note_on,0,0,0,,,,,6,,,,,,,46,96
8671,note_off,7,0,0,,,,,5,,,,,,,74,0
8672,note_on,1,0,0,,,,,5,,,,,,,72,96
8679,note_off,7,0,0,,,,,5,,,,,,,72,0
8680,note_off,1,0,0,,,,,2,,,,,,,65,0
8680,note_on,0,0,0,,,,,5,,,,,,,70,96
8682,note_on,2,0,0,,,,,2,,,,,,,62,96
8685,note_off,3,0,0,,,,,0,,,,,,,70,0
8685,note_off,0,0,0,,,,,1,,,,,,,65,0
8685,note_off,0,0,0,,,,,3,,,,,,,46,0
8685,note_off,0,0,0,,,,,4,,,,,,,34,0
8685,note_off,0,0,0,,,,,6,,,,,,,46,0
8687,note_off,2,0,0,,,,,2,,,,,,,62,0
8687,note_off,0,0,0,,,,,5,,,,,,,70,0
8688,note_on,1,0,0,,,,,0,,,,,,,69,96
8688,note_on,0,0,0,,,,,1,,,,,,,65,96
8688,note_on,0,0,0,,,,,2,,,,,,,60,96
8688,note_on,0,0,0,,,,,3,,,,,,,53,96
8688,note_on,0,0,0,,,,,4,,,,,,,41,96
8688,note_on,0,0,0,,,,,5,,,,,,,69,96
8688,note_on,0,0,0,,,,,6,,,,,,,53,96
8709,note_off,21,0,0,,,,,3,,,,,,,53,0
8709,note_off,0,0,0,,,,,4,,,,,,,41,0
8709,note_off,0,0,0,,,,,6,,,,,,,53,0
8712,note_on,3,0,0,,,,,3,,,,,,,41,96
8712,note_on,0,0,0,,,,,4,,,,,,,29,96
8712,note_on,0,0,0,,,,,6,,,,,,,41,96
8719,note_off,7,0,0,,,,,0,,,,,,,69,0
8719,note_off,0,0,0,,,,,1,,,,,,,65,0
8719,note_off,0,0,0,,,,,2,,,,,,,60,0
8719,note_off,0,0,0,,,,,5,,,,,,,69,0
8724,note_on,5,0,0,,,,,0,,,,,,,70,96
8724,note_on,0,0,0,,,,,1,,,,,,,65,96
8724,note_on,0,0,0,,,,,2,,,,,,,62,96
8724,note_on,0,0,0,,,,,5,,,,,,,70,96
8733,note_off,9,0,0,,,,,3,,,,,,,41,0
8733,note_off,0,0,0,,,,,4,,,,,,,29,0
8733,note_off,0,0,0,,,,,6,,,,,,,41,0
8734,note_off,1,0,0,,,,,0,,,,,,,70,0
8734,note_off,0,0,0,,,,,1,,,,,,,65,0
8734,note_off,0,0,0,,,,,2,,,,,,,62,0
8734,note_off,0,0,0,,,,,5,,,,,,,70,0
8736,note_on,2,0,0,,,,,0,,,,,,,70,96
8736,note_on,0,0,0,,,,,1,,,,,,,65,96
8736,note_on,0,0,0,,,,,2,,,,,,,62,96
8736,note_on,0,0,0,,,,,3,,,,,,,46,96
8736,note_on,0,0,0,,,,,4,,,,,,,34,96
8736,note_on,0,0,0,,,,,5,,,,,,,70,96
8736,note_on,0,0,0,,,,,6,,,,,,,46,96
8832,note_off,96,0,0,,,,,0,,,,,,,70,0
8832,note_off,0,0,0,,,,,1,,,,,,,65,0
8832,note_off,0,0,0,,,,,2,,,,,,,62,0
8832,note_off,0,0,0,,,,,3,,,,,,,46,0
8832,note_off,0,0,0,,,,,4,,,,,,,34,0
8832,note_off,0,0,0,,,,,5,,,,,,,70,0
8832,note_off,0,0,0,,,,,6,,,,,,,46,0
9024,end_of_track,192,1,0,,,,,,,,,,,,,
