tick,type,data,time,meta,track,frame_rate,hours,minutes,seconds,frames,sub_frames,port,tempo,key,numerator,denominator,clocks_per_click,notated_32nd_notes_per_beat,program,channel,control,value,note,velocity
0,sequencer_specific,"(0, 0, 91, 35, 1, 0, 5, 6, 42, 0)",0,1,0,,,,,,,,,,,,,,,,,,,
0,control_change,,0,0,8,,,,,,,,,,,,,,,3,7,96,,
0,control_change,,0,0,8,,,,,,,,,,,,,,,3,11,127,,
0,control_change,,0,0,8,,,,,,,,,,,,,,,3,10,70,,
0,program_change,,0,0,8,,,,,,,,,,,,,,48,3,,,,
0,midi_port,,0,1,8,,,,,,,0,,,,,,,,,,,,
0,track_name,,0,1,8,,,,,,,,,,,,,,,,,,,
0,note_on,,0,0,7,,,,,,,,,,,,,,,2,,,78,76
0,control_change,,0,0,7,,,,,,,,,,,,,,,2,7,96,,
0,note_on,,0,0,8,,,,,,,,,,,,,,,3,,,74,76
0,control_change,,0,0,7,,,,,,,,,,,,,,,2,11,127,,
0,program_change,,0,0,7,,,,,,,,,,,,,,48,2,,,,
0,midi_port,,0,1,7,,,,,,,0,,,,,,,,,,,,
0,track_name,,0,1,7,,,,,,,,,,,,,,,,,,,
0,note_on,,0,0,6,,,,,,,,,,,,,,,1,,,83,76
0,control_change,,0,0,6,,,,,,,,,,,,,,,1,7,96,,
0,control_change,,0,0,6,,,,,,,,,,,,,,,1,11,127,,
0,control_change,,0,0,6,,,,,,,,,,,,,,,1,10,48,,
0,program_change,,0,0,6,,,,,,,,,,,,,,48,1,,,,
0,control_change,,0,0,7,,,,,,,,,,,,,,,2,10,32,,
0,midi_port,,0,1,6,,,,,,,0,,,,,,,,,,,,
0,track_name,,0,1,9,,,,,,,,,,,,,,,,,,,
0,program_change,,0,0,9,,,,,,,,,,,,,,48,4,,,,
0,track_name,,0,1,12,,,,,,,,,,,,,,,,,,,
0,end_of_track,,0,1,11,,,,,,,,,,,,,,,,,,,
0,midi_port,,0,1,11,,,,,,,0,,,,,,,,,,,,
0,note_on,,0,0,10,,,,,,,,,,,,,,,5,,,66,76
0,note_on,,0,0,10,,,,,,,,,,,,,,,5,,,62,76
0,note_on,,0,0,10,,,,,,,,,,,,,,,5,,,59,76
0,note_on,,0,0,10,,,,,,,,,,,,,,,5,,,47,76
0,program_change,,0,0,10,,,,,,,,,,,,,,6,5,,,,
0,midi_port,,0,1,9,,,,,,,0,,,,,,,,,,,,
0,control_change,,0,0,10,,,,,,,,,,,,,,,5,7,72,,
0,control_change,,0,0,10,,,,,,,,,,,,,,,5,10,64,,
0,midi_port,,0,1,10,,,,,,,0,,,,,,,,,,,,
0,track_name,,0,1,10,,,,,,,,,,,,,,,,,,,
0,midi_port,,0,1,12,,,,,,,0,,,,,,,,,,,,
0,note_on,,0,0,9,,,,,,,,,,,,,,,4,,,47,76
0,control_change,,0,0,9,,,,,,,,,,,,,,,4,7,96,,
0,control_change,,0,0,9,,,,,,,,,,,,,,,4,11,127,,
0,control_change,,0,0,9,,,,,,,,,,,,,,,4,10,90,,
0,control_change,,0,0,10,,,,,,,,,,,,,,,5,11,127,,
0,track_name,,0,1,6,,,,,,,,,,,,,,,,,,,
0,end_of_track,,0,1,12,,,,,,,,,,,,,,,,,,,
0,track_name,,0,1,0,,,,,,,,,,,,,,,,,,,
0,midi_port,,0,1,0,,,,,,,0,,,,,,,,,,,,
0,marker,,0,1,0,,,,,,,,,,,,,,,,,,,
0,set_tempo,,0,1,0,,,,,,,,535714,,,,,,,,,,,
0,key_signature,,0,1,0,,,,,,,,,Bm,,,,,,,,,,
0,time_signature,,0,1,0,,,,,,,,,,1,4,24,8,,,,,,
0,note_on,,0,0,5,,,,,,,,,,,,,,,0,,,83,76
0,track_name,,0,1,1,,,,,,,,,,,,,,,,,,,
0,midi_port,,0,1,1,,,,,,,0,,,,,,,,,,,,
0,end_of_track,,0,1,1,,,,,,,,,,,,,,,,,,,
0,midi_port,,0,1,2,,,,,,,0,,,,,,,,,,,,
0,end_of_track,,0,1,2,,,,,,,,,,,,,,,,,,,
0,track_name,,0,1,3,,,,,,,,,,,,,,,,,,,
0,track_name,,0,1,2,,,,,,,,,,,,,,,,,,,
0,end_of_track,,0,1,3,,,,,,,,,,,,,,,,,,,
0,smpte_offset,,0,1,0,25,32,0,3,0,0,,,,,,,,,,,,,
0,control_change,,0,0,5,,,,,,,,,,,,,,,0,7,80,,
0,control_change,,0,0,5,,,,,,,,,,,,,,,0,11,127,,
0,control_change,,0,0,5,,,,,,,,,,,,,,,0,10,64,,
0,program_change,,0,0,5,,,,,,,,,,,,,,73,0,,,,
0,midi_port,,0,1,3,,,,,,,0,,,,,,,,,,,,
0,midi_port,,0,1,5,,,,,,,0,,,,,,,,,,,,
0,track_name,,0,1,5,,,,,,,,,,,,,,,,,,,
0,end_of_track,,0,1,4,,,,,,,,,,,,,,,,,,,
0,midi_port,,0,1,4,,,,,,,0,,,,,,,,,,,,
0,instrument_name,,0,1,0,,,,,,,,,,,,,,,,,,,
89,note_on,,89,0,9,,,,,,,,,,,,,,,4,,,47,0
89,note_on,,89,0,6,,,,,,,,,,,,,,,1,,,83,0
89,note_on,,89,0,7,,,,,,,,,,,,,,,2,,,78,0
89,note_on,,89,0,8,,,,,,,,,,,,,,,3,,,74,0
104,note_on,,0,0,10,,,,,,,,,,,,,,,5,,,66,0
104,note_on,,104,0,10,,,,,,,,,,,,,,,5,,,47,0
104,note_on,,0,0,10,,,,,,,,,,,,,,,5,,,59,0
104,note_on,,0,0,10,,,,,,,,,,,,,,,5,,,62,0
104,note_on,,104,0,5,,,,,,,,,,,,,,,0,,,83,0
120,note_on,,16,0,5,,,,,,,,,,,,,,,0,,,86,76
120,note_on,,0,0,10,,,,,,,,,,,,,,,5,,,62,76
120,note_on,,0,0,10,,,,,,,,,,,,,,,5,,,47,76
120,note_on,,0,0,10,,,,,,,,,,,,,,,5,,,59,76
120,note_on,,16,0,10,,,,,,,,,,,,,,,5,,,66,76
120,note_on,,31,0,9,,,,,,,,,,,,,,,4,,,47,76
167,note_on,,47,0,5,,,,,,,,,,,,,,,0,,,86,0
180,note_on,,13,0,5,,,,,,,,,,,,,,,0,,,83,76
209,note_on,,89,0,9,,,,,,,,,,,,,,,4,,,47,0
224,note_on,,104,0,10,,,,,,,,,,,,,,,5,,,66,0
224,note_on,,0,0,10,,,,,,,,,,,,,,,5,,,62,0
224,note_on,,0,0,10,,,,,,,,,,,,,,,5,,,47,0
224,note_on,,0,0,10,,,,,,,,,,,,,,,5,,,59,0
227,note_on,,47,0,5,,,,,,,,,,,,,,,0,,,83,0
240,note_on,,151,0,6,,,,,,,,,,,,,,,1,,,78,76
240,note_on,,13,0,5,,,,,,,,,,,,,,,0,,,78,76
240,note_on,,0,0,10,,,,,,,,,,,,,,,5,,,66,76
240,note_on,,0,0,10,,,,,,,,,,,,,,,5,,,71,76
240,note_on,,151,0,8,,,,,,,,,,,,,,,3,,,71,76
240,note_on,,31,0,9,,,,,,,,,,,,,,,4,,,50,76
240,note_on,,151,0,7,,,,,,,,,,,,,,,2,,,74,76
240,time_signature,,240,1,0,,,,,,,,,,2,4,24,8,,,,,,
240,note_on,,0,0,10,,,,,,,,,,,,,,,5,,,50,76
240,note_on,,16,0,10,,,,,,,,,,,,,,,5,,,62,76
329,note_on,,89,0,6,,,,,,,,,,,,,,,1,,,78,0
329,note_on,,89,0,9,,,,,,,,,,,,,,,4,,,50,0
329,note_on,,89,0,7,,,,,,,,,,,,,,,2,,,74,0
329,note_on,,89,0,8,,,,,,,,,,,,,,,3,,,71,0
344,note_on,,104,0,5,,,,,,,,,,,,,,,0,,,78,0
344,note_on,,0,0,10,,,,,,,,,,,,,,,5,,,50,0
344,note_on,,104,0,10,,,,,,,,,,,,,,,5,,,62,0
344,note_on,,0,0,10,,,,,,,,,,,,,,,5,,,71,0
344,note_on,,0,0,10,,,,,,,,,,,,,,,5,,,66,0
360,note_on,,0,0,10,,,,,,,,,,,,,,,5,,,47,76
360,note_on,,31,0,9,,,,,,,,,,,,,,,4,,,47,76
360,note_on,,0,0,10,,,,,,,,,,,,,,,5,,,66,76
360,note_on,,0,0,10,,,,,,,,,,,,,,,5,,,59,76
360,note_on,,16,0,10,,,,,,,,,,,,,,,5,,,62,76
360,note_on,,16,0,5,,,,,,,,,,,,,,,0,,,83,76
407,note_on,,47,0,5,,,,,,,,,,,,,,,0,,,83,0
420,note_on,,13,0,5,,,,,,,,,,,,,,,0,,,78,76
449,note_on,,89,0,9,,,,,,,,,,,,,,,4,,,47,0
464,note_on,,0,0,10,,,,,,,,,,,,,,,5,,,66,0
464,note_on,,104,0,10,,,,,,,,,,,,,,,5,,,62,0
464,note_on,,0,0,10,,,,,,,,,,,,,,,5,,,47,0
464,note_on,,0,0,10,,,,,,,,,,,,,,,5,,,59,0
467,note_on,,47,0,5,,,,,,,,,,,,,,,0,,,78,0
480,note_on,,151,0,6,,,,,,,,,,,,,,,1,,,74,76
480,note_on,,31,0,9,,,,,,,,,,,,,,,4,,,54,76
480,note_on,,0,0,10,,,,,,,,,,,,,,,5,,,74,76
480,note_on,,0,0,10,,,,,,,,,,,,,,,5,,,66,76
480,note_on,,13,0,5,,,,,,,,,,,,,,,0,,,74,76
480,note_on,,16,0,10,,,,,,,,,,,,,,,5,,,54,76
480,note_on,,0,0,10,,,,,,,,,,,,,,,5,,,71,76
480,note_on,,151,0,7,,,,,,,,,,,,,,,2,,,71,76
480,note_on,,151,0,8,,,,,,,,,,,,,,,3,,,66,76
569,note_on,,89,0,9,,,,,,,,,,,,,,,4,,,54,0
569,note_on,,89,0,7,,,,,,,,,,,,,,,2,,,71,0
569,note_on,,89,0,8,,,,,,,,,,,,,,,3,,,66,0
569,note_on,,89,0,6,,,,,,,,,,,,,,,1,,,74,0
584,note_on,,0,0,10,,,,,,,,,,,,,,,5,,,71,0
584,note_on,,104,0,5,,,,,,,,,,,,,,,0,,,74,0
584,note_on,,0,0,10,,,,,,,,,,,,,,,5,,,74,0
584,note_on,,104,0,10,,,,,,,,,,,,,,,5,,,54,0
584,note_on,,0,0,10,,,,,,,,,,,,,,,5,,,66,0
600,note_on,,16,0,10,,,,,,,,,,,,,,,5,,,50,76
600,note_on,,0,0,10,,,,,,,,,,,,,,,5,,,62,76
600,note_on,,0,0,10,,,,,,,,,,,,,,,5,,,71,76
600,note_on,,0,0,10,,,,,,,,,,,,,,,5,,,66,76
600,note_on,,31,0,9,,,,,,,,,,,,,,,4,,,50,76
600,note_on,,16,0,5,,,,,,,,,,,,,,,0,,,78,76
647,note_on,,47,0,5,,,,,,,,,,,,,,,0,,,78,0
660,note_on,,13,0,5,,,,,,,,,,,,,,,0,,,74,76
689,note_on,,89,0,9,,,,,,,,,,,,,,,4,,,50,0
704,note_on,,104,0,10,,,,,,,,,,,,,,,5,,,50,0
704,note_on,,0,0,10,,,,,,,,,,,,,,,5,,,62,0
704,note_on,,0,0,10,,,,,,,,,,,,,,,5,,,71,0
704,note_on,,0,0,10,,,,,,,,,,,,,,,5,,,66,0
707,note_on,,47,0,5,,,,,,,,,,,,,,,0,,,74,0
720,note_on,,31,0,9,,,,,,,,,,,,,,,4,,,59,76
720,note_on,,151,0,8,,,,,,,,,,,,,,,3,,,62,76
720,note_on,,16,0,10,,,,,,,,,,,,,,,5,,,67,76
720,note_on,,0,0,10,,,,,,,,,,,,,,,5,,,71,76
720,note_on,,0,0,10,,,,,,,,,,,,,,,5,,,59,76
720,note_on,,0,0,10,,,,,,,,,,,,,,,5,,,74,76
720,note_on,,151,0,6,,,,,,,,,,,,,,,1,,,71,76
720,note_on,,151,0,7,,,,,,,,,,,,,,,2,,,66,76
720,note_on,,13,0,5,,,,,,,,,,,,,,,0,,,71,76
809,note_on,,89,0,9,,,,,,,,,,,,,,,4,,,59,0
824,note_on,,0,0,10,,,,,,,,,,,,,,,5,,,74,0
824,note_on,,0,0,10,,,,,,,,,,,,,,,5,,,59,0
824,note_on,,0,0,10,,,,,,,,,,,,,,,5,,,71,0
824,note_on,,104,0,10,,,,,,,,,,,,,,,5,,,67,0
840,note_on,,16,0,10,,,,,,,,,,,,,,,5,,,66,76
840,note_on,,0,0,10,,,,,,,,,,,,,,,5,,,69,76
840,note_on,,0,0,10,,,,,,,,,,,,,,,5,,,73,76
840,note_on,,0,0,10,,,,,,,,,,,,,,,5,,,54,76
840,note_on,,31,0,9,,,,,,,,,,,,,,,4,,,54,76
929,note_on,,89,0,9,,,,,,,,,,,,,,,4,,,54,0
944,note_on,,104,0,10,,,,,,,,,,,,,,,5,,,66,0
944,note_on,,0,0,10,,,,,,,,,,,,,,,5,,,73,0
944,note_on,,224,0,6,,,,,,,,,,,,,,,1,,,71,0
944,note_on,,224,0,7,,,,,,,,,,,,,,,2,,,66,0
944,note_on,,224,0,5,,,,,,,,,,,,,,,0,,,71,0
944,note_on,,0,0,10,,,,,,,,,,,,,,,5,,,54,0
944,note_on,,224,0,8,,,,,,,,,,,,,,,3,,,62,0
944,note_on,,0,0,10,,,,,,,,,,,,,,,5,,,69,0
960,note_on,,16,0,10,,,,,,,,,,,,,,,5,,,62,76
960,note_on,,16,0,6,,,,,,,,,,,,,,,1,,,71,76
960,note_on,,16,0,7,,,,,,,,,,,,,,,2,,,66,76
960,note_on,,16,0,5,,,,,,,,,,,,,,,0,,,66,76
960,note_on,,16,0,8,,,,,,,,,,,,,,,3,,,62,76
960,note_on,,0,0,10,,,,,,,,,,,,,,,5,,,66,76
960,note_on,,0,0,10,,,,,,,,,,,,,,,5,,,71,76
960,note_on,,0,0,10,,,,,,,,,,,,,,,5,,,50,76
960,note_on,,31,0,9,,,,,,,,,,,,,,,4,,,50,76
1007,note_on,,47,0,5,,,,,,,,,,,,,,,0,,,66,0
1020,note_on,,13,0,5,,,,,,,,,,,,,,,0,,,71,76
1049,note_on,,89,0,8,,,,,,,,,,,,,,,3,,,62,0
1049,note_on,,89,0,9,,,,,,,,,,,,,,,4,,,50,0
1049,note_on,,89,0,6,,,,,,,,,,,,,,,1,,,71,0
1049,note_on,,89,0,7,,,,,,,,,,,,,,,2,,,66,0
1064,note_on,,104,0,10,,,,,,,,,,,,,,,5,,,62,0
1064,note_on,,0,0,10,,,,,,,,,,,,,,,5,,,50,0
1064,note_on,,0,0,10,,,,,,,,,,,,,,,5,,,66,0
1064,note_on,,0,0,10,,,,,,,,,,,,,,,5,,,71,0
1067,note_on,,47,0,5,,,,,,,,,,,,,,,0,,,71,0
1080,note_on,,16,0,10,,,,,,,,,,,,,,,5,,,62,76
1080,note_on,,13,0,5,,,,,,,,,,,,,,,0,,,74,76
1080,note_on,,0,0,10,,,,,,,,,,,,,,,5,,,47,76
1080,note_on,,0,0,10,,,,,,,,,,,,,,,5,,,59,76
1080,note_on,,31,0,6,,,,,,,,,,,,,,,1,,,74,76
1080,note_on,,31,0,9,,,,,,,,,,,,,,,4,,,47,76
1080,note_on,,31,0,8,,,,,,,,,,,,,,,3,,,66,76
1080,note_on,,0,0,10,,,,,,,,,,,,,,,5,,,66,76
1080,note_on,,31,0,7,,,,,,,,,,,,,,,2,,,71,76
1127,note_on,,47,0,5,,,,,,,,,,,,,,,0,,,74,0
1140,note_on,,13,0,5,,,,,,,,,,,,,,,0,,,71,76
1169,note_on,,89,0,9,,,,,,,,,,,,,,,4,,,47,0
1169,note_on,,89,0,8,,,,,,,,,,,,,,,3,,,66,0
1169,note_on,,89,0,7,,,,,,,,,,,,,,,2,,,71,0
1169,note_on,,89,0,6,,,,,,,,,,,,,,,1,,,74,0
1184,note_on,,0,0,10,,,,,,,,,,,,,,,5,,,59,0
1184,note_on,,0,0,10,,,,,,,,,,,,,,,5,,,47,0
1184,note_on,,0,0,10,,,,,,,,,,,,,,,5,,,66,0
1184,note_on,,104,0,10,,,,,,,,,,,,,,,5,,,62,0
1187,note_on,,47,0,5,,,,,,,,,,,,,,,0,,,71,0
1200,note_on,,0,0,10,,,,,,,,,,,,,,,5,,,67,76
1200,note_on,,16,0,10,,,,,,,,,,,,,,,5,,,64,76
1200,note_on,,31,0,6,,,,,,,,,,,,,,,1,,,73,76
1200,note_on,,31,0,7,,,,,,,,,,,,,,,2,,,71,76
1200,note_on,,31,0,8,,,,,,,,,,,,,,,3,,,67,76
1200,note_on,,31,0,9,,,,,,,,,,,,,,,4,,,52,76
1200,note_on,,0,0,10,,,,,,,,,,,,,,,5,,,71,76
1200,note_on,,13,0,5,,,,,,,,,,,,,,,0,,,73,76
1200,note_on,,0,0,10,,,,,,,,,,,,,,,5,,,73,76
1200,note_on,,0,0,10,,,,,,,,,,,,,,,5,,,52,76
1247,note_on,,47,0,5,,,,,,,,,,,,,,,0,,,73,0
1260,note_on,,13,0,5,,,,,,,,,,,,,,,0,,,71,76
1289,note_on,,89,0,9,,,,,,,,,,,,,,,4,,,52,0
1289,note_on,,89,0,7,,,,,,,,,,,,,,,2,,,71,0
1289,note_on,,89,0,6,,,,,,,,,,,,,,,1,,,73,0
1289,note_on,,89,0,8,,,,,,,,,,,,,,,3,,,67,0
1304,note_on,,0,0,10,,,,,,,,,,,,,,,5,,,73,0
1304,note_on,,104,0,10,,,,,,,,,,,,,,,5,,,64,0
1304,note_on,,0,0,10,,,,,,,,,,,,,,,5,,,67,0
1304,note_on,,0,0,10,,,,,,,,,,,,,,,5,,,71,0
1304,note_on,,0,0,10,,,,,,,,,,,,,,,5,,,52,0
1307,note_on,,47,0,5,,,,,,,,,,,,,,,0,,,71,0
1320,note_on,,13,0,5,,,,,,,,,,,,,,,0,,,73,76
1320,note_on,,16,0,10,,,,,,,,,,,,,,,5,,,67,76
1320,note_on,,0,0,10,,,,,,,,,,,,,,,5,,,61,76
1320,note_on,,31,0,7,,,,,,,,,,,,,,,2,,,71,76
1320,note_on,,0,0,10,,,,,,,,,,,,,,,5,,,64,76
1320,note_on,,0,0,10,,,,,,,,,,,,,,,5,,,49,76
1320,note_on,,31,0,9,,,,,,,,,,,,,,,4,,,49,76
1320,note_on,,31,0,6,,,,,,,,,,,,,,,1,,,73,76
1320,note_on,,31,0,8,,,,,,,,,,,,,,,3,,,64,76
1367,note_on,,47,0,5,,,,,,,,,,,,,,,0,,,73,0
1380,note_on,,13,0,5,,,,,,,,,,,,,,,0,,,71,76
1409,note_on,,89,0,6,,,,,,,,,,,,,,,1,,,73,0
1409,note_on,,89,0,7,,,,,,,,,,,,,,,2,,,71,0
1409,note_on,,89,0,8,,,,,,,,,,,,,,,3,,,64,0
1409,note_on,,89,0,9,,,,,,,,,,,,,,,4,,,49,0
1424,note_on,,104,0,10,,,,,,,,,,,,,,,5,,,67,0
1424,note_on,,0,0,10,,,,,,,,,,,,,,,5,,,61,0
1424,note_on,,0,0,10,,,,,,,,,,,,,,,5,,,64,0
1424,note_on,,0,0,10,,,,,,,,,,,,,,,5,,,49,0
1427,note_on,,47,0,5,,,,,,,,,,,,,,,0,,,71,0
1440,note_on,,0,0,10,,,,,,,,,,,,,,,5,,,70,76
1440,note_on,,31,0,6,,,,,,,,,,,,,,,1,,,73,76
1440,note_on,,31,0,7,,,,,,,,,,,,,,,2,,,70,76
1440,note_on,,31,0,8,,,,,,,,,,,,,,,3,,,66,76
1440,note_on,,31,0,9,,,,,,,,,,,,,,,4,,,54,76
1440,note_on,,16,0,10,,,,,,,,,,,,,,,5,,,73,76
1440,note_on,,0,0,10,,,,,,,,,,,,,,,5,,,66,76
1440,note_on,,0,0,10,,,,,,,,,,,,,,,5,,,54,76
1440,note_on,,13,0,5,,,,,,,,,,,,,,,0,,,70,76
1487,note_on,,47,0,5,,,,,,,,,,,,,,,0,,,70,0
1500,note_on,,13,0,5,,,,,,,,,,,,,,,0,,,73,76
1529,note_on,,89,0,6,,,,,,,,,,,,,,,1,,,73,0
1529,note_on,,89,0,8,,,,,,,,,,,,,,,3,,,66,0
1529,note_on,,89,0,9,,,,,,,,,,,,,,,4,,,54,0
1529,note_on,,89,0,7,,,,,,,,,,,,,,,2,,,70,0
1544,note_on,,104,0,10,,,,,,,,,,,,,,,5,,,73,0
1544,note_on,,0,0,10,,,,,,,,,,,,,,,5,,,66,0
1544,note_on,,0,0,10,,,,,,,,,,,,,,,5,,,54,0
1544,note_on,,0,0,10,,,,,,,,,,,,,,,5,,,70,0
1547,note_on,,47,0,5,,,,,,,,,,,,,,,0,,,73,0
1560,note_on,,0,0,10,,,,,,,,,,,,,,,5,,,58,76
1560,note_on,,31,0,6,,,,,,,,,,,,,,,1,,,76,76
1560,note_on,,13,0,5,,,,,,,,,,,,,,,0,,,76,76
1560,note_on,,31,0,8,,,,,,,,,,,,,,,3,,,66,76
1560,note_on,,31,0,9,,,,,,,,,,,,,,,4,,,42,76
1560,note_on,,16,0,10,,,,,,,,,,,,,,,5,,,42,76
1560,note_on,,0,0,10,,,,,,,,,,,,,,,5,,,54,76
1560,note_on,,0,0,10,,,,,,,,,,,,,,,5,,,61,76
1560,note_on,,31,0,7,,,,,,,,,,,,,,,2,,,70,76
1607,note_on,,47,0,5,,,,,,,,,,,,,,,0,,,76,0
1620,note_on,,13,0,5,,,,,,,,,,,,,,,0,,,73,76
1649,note_on,,89,0,9,,,,,,,,,,,,,,,4,,,42,0
1649,note_on,,89,0,7,,,,,,,,,,,,,,,2,,,70,0
1649,note_on,,89,0,6,,,,,,,,,,,,,,,1,,,76,0
1649,note_on,,89,0,8,,,,,,,,,,,,,,,3,,,66,0
1664,note_on,,0,0,10,,,,,,,,,,,,,,,5,,,61,0
1664,note_on,,104,0,10,,,,,,,,,,,,,,,5,,,42,0
1664,note_on,,0,0,10,,,,,,,,,,,,,,,5,,,58,0
1664,note_on,,0,0,10,,,,,,,,,,,,,,,5,,,54,0
1667,note_on,,47,0,5,,,,,,,,,,,,,,,0,,,73,0
1680,note_on,,31,0,8,,,,,,,,,,,,,,,3,,,66,76
1680,note_on,,16,0,10,,,,,,,,,,,,,,,5,,,62,76
1680,note_on,,0,0,10,,,,,,,,,,,,,,,5,,,59,76
1680,note_on,,0,0,10,,,,,,,,,,,,,,,5,,,47,76
1680,note_on,,13,0,5,,,,,,,,,,,,,,,0,,,74,76
1680,note_on,,0,0,10,,,,,,,,,,,,,,,5,,,66,76
1680,note_on,,31,0,6,,,,,,,,,,,,,,,1,,,74,76
1680,note_on,,31,0,7,,,,,,,,,,,,,,,2,,,71,76
1680,note_on,,31,0,9,,,,,,,,,,,,,,,4,,,47,76
1724,note_on,,0,0,10,,,,,,,,,,,,,,,5,,,47,0
1724,note_on,,44,0,9,,,,,,,,,,,,,,,4,,,47,0
1724,note_on,,44,0,10,,,,,,,,,,,,,,,5,,,62,0
1724,note_on,,0,0,10,,,,,,,,,,,,,,,5,,,66,0
1724,note_on,,0,0,10,,,,,,,,,,,,,,,5,,,59,0
1740,note_on,,0,0,10,,,,,,,,,,,,,,,5,,,61,76
1740,note_on,,0,0,10,,,,,,,,,,,,,,,5,,,67,76
1740,note_on,,16,0,9,,,,,,,,,,,,,,,4,,,49,76
1740,note_on,,16,0,10,,,,,,,,,,,,,,,5,,,49,76
1740,note_on,,0,0,10,,,,,,,,,,,,,,,5,,,64,76
1769,note_on,,89,0,8,,,,,,,,,,,,,,,3,,,66,0
1769,note_on,,89,0,6,,,,,,,,,,,,,,,1,,,74,0
1769,note_on,,89,0,7,,,,,,,,,,,,,,,2,,,71,0
1784,note_on,,104,0,5,,,,,,,,,,,,,,,0,,,74,0
1784,note_on,,44,0,10,,,,,,,,,,,,,,,5,,,49,0
1784,note_on,,0,0,10,,,,,,,,,,,,,,,5,,,61,0
1784,note_on,,44,0,9,,,,,,,,,,,,,,,4,,,49,0
1784,note_on,,0,0,10,,,,,,,,,,,,,,,5,,,64,0
1784,note_on,,0,0,10,,,,,,,,,,,,,,,5,,,67,0
1800,note_on,,0,0,10,,,,,,,,,,,,,,,5,,,62,76
1800,note_on,,0,0,10,,,,,,,,,,,,,,,5,,,66,76
1800,note_on,,0,0,10,,,,,,,,,,,,,,,5,,,50,76
1800,note_on,,16,0,10,,,,,,,,,,,,,,,5,,,69,76
1800,note_on,,16,0,5,,,,,,,,,,,,,,,0,,,71,76
1800,note_on,,16,0,9,,,,,,,,,,,,,,,4,,,50,76
1800,note_on,,31,0,6,,,,,,,,,,,,,,,1,,,71,76
1800,note_on,,31,0,7,,,,,,,,,,,,,,,2,,,66,76
1800,note_on,,31,0,8,,,,,,,,,,,,,,,3,,,62,76
1844,note_on,,44,0,10,,,,,,,,,,,,,,,5,,,69,0
1844,note_on,,0,0,10,,,,,,,,,,,,,,,5,,,50,0
1844,note_on,,0,0,10,,,,,,,,,,,,,,,5,,,66,0
1844,note_on,,0,0,10,,,,,,,,,,,,,,,5,,,62,0
1844,note_on,,44,0,9,,,,,,,,,,,,,,,4,,,50,0
1860,note_on,,0,0,10,,,,,,,,,,,,,,,5,,,67,76
1860,note_on,,0,0,10,,,,,,,,,,,,,,,5,,,49,76
1860,note_on,,16,0,9,,,,,,,,,,,,,,,4,,,49,76
1860,note_on,,0,0,10,,,,,,,,,,,,,,,5,,,64,76
1860,note_on,,16,0,10,,,,,,,,,,,,,,,5,,,61,76
1889,note_on,,89,0,8,,,,,,,,,,,,,,,3,,,62,0
1889,note_on,,89,0,6,,,,,,,,,,,,,,,1,,,71,0
1889,note_on,,89,0,7,,,,,,,,,,,,,,,2,,,66,0
1904,note_on,,44,0,10,,,,,,,,,,,,,,,5,,,61,0
1904,note_on,,0,0,10,,,,,,,,,,,,,,,5,,,49,0
1904,note_on,,0,0,10,,,,,,,,,,,,,,,5,,,67,0
1904,note_on,,0,0,10,,,,,,,,,,,,,,,5,,,64,0
1904,note_on,,44,0,9,,,,,,,,,,,,,,,4,,,49,0
1904,note_on,,104,0,5,,,,,,,,,,,,,,,0,,,71,0
1920,note_on,,16,0,10,,,,,,,,,,,,,,,5,,,59,76
1920,note_on,,0,0,10,,,,,,,,,,,,,,,5,,,47,76
1920,note_on,,0,0,10,,,,,,,,,,,,,,,5,,,62,76
1920,note_on,,31,0,7,,,,,,,,,,,,,,,2,,,78,76
1920,note_on,,16,0,9,,,,,,,,,,,,,,,4,,,47,76
1920,note_on,,31,0,6,,,,,,,,,,,,,,,1,,,83,76
1920,note_on,,16,0,5,,,,,,,,,,,,,,,0,,,83,76
1920,note_on,,0,0,10,,,,,,,,,,,,,,,5,,,66,76
1920,note_on,,31,0,8,,,,,,,,,,,,,,,3,,,74,76
2009,note_on,,89,0,8,,,,,,,,,,,,,,,3,,,74,0
2009,note_on,,89,0,9,,,,,,,,,,,,,,,4,,,47,0
2009,note_on,,89,0,6,,,,,,,,,,,,,,,1,,,83,0
2009,note_on,,89,0,7,,,,,,,,,,,,,,,2,,,78,0
2024,note_on,,0,0,10,,,,,,,,,,,,,,,5,,,66,0
2024,note_on,,0,0,10,,,,,,,,,,,,,,,5,,,47,0
2024,note_on,,0,0,10,,,,,,,,,,,,,,,5,,,62,0
2024,note_on,,104,0,10,,,,,,,,,,,,,,,5,,,59,0
2024,note_on,,104,0,5,,,,,,,,,,,,,,,0,,,83,0
2040,note_on,,16,0,10,,,,,,,,,,,,,,,5,,,62,76
2040,note_on,,0,0,10,,,,,,,,,,,,,,,5,,,59,76
2040,note_on,,0,0,10,,,,,,,,,,,,,,,5,,,47,76
2040,note_on,,0,0,10,,,,,,,,,,,,,,,5,,,66,76
2040,note_on,,31,0,9,,,,,,,,,,,,,,,4,,,47,76
2040,note_on,,16,0,5,,,,,,,,,,,,,,,0,,,86,76
2087,note_on,,47,0,5,,,,,,,,,,,,,,,0,,,86,0
2100,note_on,,13,0,5,,,,,,,,,,,,,,,0,,,83,76
2129,note_on,,89,0,9,,,,,,,,,,,,,,,4,,,47,0
2144,note_on,,0,0,10,,,,,,,,,,,,,,,5,,,66,0
2144,note_on,,0,0,10,,,,,,,,,,,,,,,5,,,47,0
2144,note_on,,0,0,10,,,,,,,,,,,,,,,5,,,59,0
2144,note_on,,104,0,10,,,,,,,,,,,,,,,5,,,62,0
2147,note_on,,47,0,5,,,,,,,,,,,,,,,0,,,83,0
2160,note_on,,31,0,9,,,,,,,,,,,,,,,4,,,50,76
2160,note_on,,151,0,8,,,,,,,,,,,,,,,3,,,71,76
2160,note_on,,13,0,5,,,,,,,,,,,,,,,0,,,78,76
2160,note_on,,16,0,10,,,,,,,,,,,,,,,5,,,66,76
2160,note_on,,151,0,7,,,,,,,,,,,,,,,2,,,74,76
2160,note_on,,0,0,10,,,,,,,,,,,,,,,5,,,71,76
2160,note_on,,151,0,6,,,,,,,,,,,,,,,1,,,78,76
2160,note_on,,0,0,10,,,,,,,,,,,,,,,5,,,62,76
2160,note_on,,0,0,10,,,,,,,,,,,,,,,5,,,50,76
2249,note_on,,89,0,7,,,,,,,,,,,,,,,2,,,74,0
2249,note_on,,89,0,9,,,,,,,,,,,,,,,4,,,50,0
2249,note_on,,89,0,8,,,,,,,,,,,,,,,3,,,71,0
2249,note_on,,89,0,6,,,,,,,,,,,,,,,1,,,78,0
2264,note_on,,104,0,10,,,,,,,,,,,,,,,5,,,66,0
2264,note_on,,104,0,5,,,,,,,,,,,,,,,0,,,78,0
2264,note_on,,0,0,10,,,,,,,,,,,,,,,5,,,62,0
2264,note_on,,0,0,10,,,,,,,,,,,,,,,5,,,71,0
2264,note_on,,0,0,10,,,,,,,,,,,,,,,5,,,50,0
2280,note_on,,16,0,5,,,,,,,,,,,,,,,0,,,83,76
2280,note_on,,0,0,10,,,,,,,,,,,,,,,5,,,47,76
2280,note_on,,0,0,10,,,,,,,,,,,,,,,5,,,59,76
2280,note_on,,31,0,9,,,,,,,,,,,,,,,4,,,47,76
2280,note_on,,0,0,10,,,,,,,,,,,,,,,5,,,62,76
2280,note_on,,16,0,10,,,,,,,,,,,,,,,5,,,66,76
2327,note_on,,47,0,5,,,,,,,,,,,,,,,0,,,83,0
2340,note_on,,13,0,5,,,,,,,,,,,,,,,0,,,78,76
2369,note_on,,89,0,9,,,,,,,,,,,,,,,4,,,47,0
2384,note_on,,104,0,10,,,,,,,,,,,,,,,5,,,66,0
2384,note_on,,0,0,10,,,,,,,,,,,,,,,5,,,47,0
2384,note_on,,0,0,10,,,,,,,,,,,,,,,5,,,62,0
2384,note_on,,0,0,10,,,,,,,,,,,,,,,5,,,59,0
2387,note_on,,47,0,5,,,,,,,,,,,,,,,0,,,78,0
2400,note_on,,151,0,8,,,,,,,,,,,,,,,3,,,66,76
2400,note_on,,31,0,9,,,,,,,,,,,,,,,4,,,54,76
2400,note_on,,151,0,7,,,,,,,,,,,,,,,2,,,71,76
2400,note_on,,0,0,10,,,,,,,,,,,,,,,5,,,66,76
2400,note_on,,0,0,10,,,,,,,,,,,,,,,5,,,74,76
2400,note_on,,16,0,10,,,,,,,,,,,,,,,5,,,54,76
2400,note_on,,0,0,10,,,,,,,,,,,,,,,5,,,71,76
2400,note_on,,13,0,5,,,,,,,,,,,,,,,0,,,74,76
2400,note_on,,151,0,6,,,,,,,,,,,,,,,1,,,74,76
2489,note_on,,89,0,8,,,,,,,,,,,,,,,3,,,66,0
2489,note_on,,89,0,7,,,,,,,,,,,,,,,2,,,71,0
2489,note_on,,89,0,6,,,,,,,,,,,,,,,1,,,74,0
2489,note_on,,89,0,9,,,,,,,,,,,,,,,4,,,54,0
2504,note_on,,104,0,5,,,,,,,,,,,,,,,0,,,74,0
2504,note_on,,0,0,10,,,,,,,,,,,,,,,5,,,66,0
2504,note_on,,104,0,10,,,,,,,,,,,,,,,5,,,54,0
2504,note_on,,0,0,10,,,,,,,,,,,,,,,5,,,71,0
2504,note_on,,0,0,10,,,,,,,,,,,,,,,5,,,74,0
2520,note_on,,16,0,5,,,,,,,,,,,,,,,0,,,78,76
2520,note_on,,0,0,10,,,,,,,,,,,,,,,5,,,69,76
2520,note_on,,0,0,10,,,,,,,,,,,,,,,5,,,62,76
2520,note_on,,0,0,10,,,,,,,,,,,,,,,5,,,66,76
2520,note_on,,31,0,9,,,,,,,,,,,,,,,4,,,50,76
2520,note_on,,16,0,10,,,,,,,,,,,,,,,5,,,50,76
2567,note_on,,47,0,5,,,,,,,,,,,,,,,0,,,78,0
2580,note_on,,13,0,5,,,,,,,,,,,,,,,0,,,74,76
2609,note_on,,89,0,9,,,,,,,,,,,,,,,4,,,50,0
2624,note_on,,0,0,10,,,,,,,,,,,,,,,5,,,69,0
2624,note_on,,104,0,10,,,,,,,,,,,,,,,5,,,50,0
2624,note_on,,0,0,10,,,,,,,,,,,,,,,5,,,62,0
2624,note_on,,0,0,10,,,,,,,,,,,,,,,5,,,66,0
2627,note_on,,47,0,5,,,,,,,,,,,,,,,0,,,74,0
2640,note_on,,0,0,10,,,,,,,,,,,,,,,5,,,71,76
2640,note_on,,0,0,10,,,,,,,,,,,,,,,5,,,59,76
2640,note_on,,0,0,10,,,,,,,,,,,,,,,5,,,74,76
2640,note_on,,16,0,10,,,,,,,,,,,,,,,5,,,78,76
2640,note_on,,151,0,6,,,,,,,,,,,,,,,1,,,71,76
2640,note_on,,31,0,9,,,,,,,,,,,,,,,4,,,59,76
2640,note_on,,13,0,5,,,,,,,,,,,,,,,0,,,71,76
2640,note_on,,151,0,8,,,,,,,,,,,,,,,3,,,62,76
2640,note_on,,151,0,7,,,,,,,,,,,,,,,2,,,66,76
2729,note_on,,89,0,9,,,,,,,,,,,,,,,4,,,59,0
2744,note_on,,104,0,10,,,,,,,,,,,,,,,5,,,78,0
2744,note_on,,0,0,10,,,,,,,,,,,,,,,5,,,71,0
2744,note_on,,0,0,10,,,,,,,,,,,,,,,5,,,59,0
2744,note_on,,0,0,10,,,,,,,,,,,,,,,5,,,74,0
2760,note_on,,31,0,9,,,,,,,,,,,,,,,4,,,54,76
2760,note_on,,0,0,10,,,,,,,,,,,,,,,5,,,54,76
2760,note_on,,0,0,10,,,,,,,,,,,,,,,5,,,69,76
2760,note_on,,0,0,10,,,,,,,,,,,,,,,5,,,73,76
2760,note_on,,16,0,10,,,,,,,,,,,,,,,5,,,66,76
2849,note_on,,89,0,9,,,,,,,,,,,,,,,4,,,54,0
2864,note_on,,224,0,6,,,,,,,,,,,,,,,1,,,71,0
2864,note_on,,104,0,10,,,,,,,,,,,,,,,5,,,66,0
2864,note_on,,0,0,10,,,,,,,,,,,,,,,5,,,73,0
2864,note_on,,0,0,10,,,,,,,,,,,,,,,5,,,69,0
2864,note_on,,0,0,10,,,,,,,,,,,,,,,5,,,54,0
2864,note_on,,224,0,7,,,,,,,,,,,,,,,2,,,66,0
2864,note_on,,224,0,8,,,,,,,,,,,,,,,3,,,62,0
2864,note_on,,224,0,5,,,,,,,,,,,,,,,0,,,71,0
2880,note_on,,16,0,7,,,,,,,,,,,,,,,2,,,66,76
2880,note_on,,31,0,9,,,,,,,,,,,,,,,4,,,59,76
2880,note_on,,0,0,10,,,,,,,,,,,,,,,5,,,71,76
2880,note_on,,16,0,10,,,,,,,,,,,,,,,5,,,59,76
2880,note_on,,16,0,5,,,,,,,,,,,,,,,0,,,74,76
2880,note_on,,0,0,10,,,,,,,,,,,,,,,5,,,74,76
2880,note_on,,16,0,8,,,,,,,,,,,,,,,3,,,71,76
2880,note_on,,16,0,6,,,,,,,,,,,,,,,1,,,74,76
2880,note_on,,0,0,10,,,,,,,,,,,,,,,5,,,78,76
2927,note_on,,47,0,6,,,,,,,,,,,,,,,1,,,74,0
2940,note_on,,13,0,6,,,,,,,,,,,,,,,1,,,73,76
2969,note_on,,89,0,9,,,,,,,,,,,,,,,4,,,59,0
2969,note_on,,89,0,8,,,,,,,,,,,,,,,3,,,71,0
2969,note_on,,89,0,7,,,,,,,,,,,,,,,2,,,66,0
2969,note_on,,89,0,5,,,,,,,,,,,,,,,0,,,74,0
2984,note_on,,104,0,10,,,,,,,,,,,,,,,5,,,59,0
2984,note_on,,0,0,10,,,,,,,,,,,,,,,5,,,71,0
2984,note_on,,0,0,10,,,,,,,,,,,,,,,5,,,78,0
2984,note_on,,0,0,10,,,,,,,,,,,,,,,5,,,74,0
2987,note_on,,47,0,6,,,,,,,,,,,,,,,1,,,73,0
3000,note_on,,0,0,10,,,,,,,,,,,,,,,5,,,74,76
3000,note_on,,0,0,10,,,,,,,,,,,,,,,5,,,81,76
3000,note_on,,31,0,5,,,,,,,,,,,,,,,0,,,74,76
3000,note_on,,31,0,9,,,,,,,,,,,,,,,4,,,62,76
3000,note_on,,31,0,8,,,,,,,,,,,,,,,3,,,66,76
3000,note_on,,0,0,10,,,,,,,,,,,,,,,5,,,78,76
3000,note_on,,31,0,7,,,,,,,,,,,,,,,2,,,71,76
3000,note_on,,13,0,6,,,,,,,,,,,,,,,1,,,74,76
3000,note_on,,16,0,10,,,,,,,,,,,,,,,5,,,62,76
3044,note_on,,44,0,9,,,,,,,,,,,,,,,4,,,62,0
3044,note_on,,0,0,10,,,,,,,,,,,,,,,5,,,81,0
3044,note_on,,0,0,10,,,,,,,,,,,,,,,5,,,78,0
3044,note_on,,0,0,10,,,,,,,,,,,,,,,5,,,74,0
3044,note_on,,44,0,10,,,,,,,,,,,,,,,5,,,62,0
3060,note_on,,16,0,9,,,,,,,,,,,,,,,4,,,59,76
3060,note_on,,16,0,10,,,,,,,,,,,,,,,5,,,71,76
3060,note_on,,0,0,10,,,,,,,,,,,,,,,5,,,74,76
3060,note_on,,0,0,10,,,,,,,,,,,,,,,5,,,59,76
3060,note_on,,0,0,10,,,,,,,,,,,,,,,5,,,78,76
3089,note_on,,89,0,5,,,,,,,,,,,,,,,0,,,74,0
3089,note_on,,89,0,8,,,,,,,,,,,,,,,3,,,66,0
3089,note_on,,89,0,7,,,,,,,,,,,,,,,2,,,71,0
3104,note_on,,0,0,10,,,,,,,,,,,,,,,5,,,78,0
3104,note_on,,44,0,10,,,,,,,,,,,,,,,5,,,71,0
3104,note_on,,0,0,10,,,,,,,,,,,,,,,5,,,74,0
3104,note_on,,0,0,10,,,,,,,,,,,,,,,5,,,59,0
3104,note_on,,44,0,9,,,,,,,,,,,,,,,4,,,59,0
3120,note_on,,16,0,9,,,,,,,,,,,,,,,4,,,56,76
3120,note_on,,31,0,8,,,,,,,,,,,,,,,3,,,71,76
3120,note_on,,16,0,10,,,,,,,,,,,,,,,5,,,74,76
3120,note_on,,0,0,10,,,,,,,,,,,,,,,5,,,76,76
3120,note_on,,0,0,10,,,,,,,,,,,,,,,5,,,56,76
3120,note_on,,31,0,5,,,,,,,,,,,,,,,0,,,74,76
3120,note_on,,0,0,10,,,,,,,,,,,,,,,5,,,71,76
3120,note_on,,0,0,10,,,,,,,,,,,,,,,5,,,68,76
3120,note_on,,31,0,7,,,,,,,,,,,,,,,2,,,64,76
3167,note_on,,167,0,6,,,,,,,,,,,,,,,1,,,74,0
3180,note_on,,13,0,6,,,,,,,,,,,,,,,1,,,73,76
3209,note_on,,89,0,8,,,,,,,,,,,,,,,3,,,71,0
3209,note_on,,89,0,5,,,,,,,,,,,,,,,0,,,74,0
3209,note_on,,89,0,7,,,,,,,,,,,,,,,2,,,64,0
3209,note_on,,89,0,9,,,,,,,,,,,,,,,4,,,56,0
3224,note_on,,0,0,10,,,,,,,,,,,,,,,5,,,76,0
3224,note_on,,0,0,10,,,,,,,,,,,,,,,5,,,56,0
3224,note_on,,0,0,10,,,,,,,,,,,,,,,5,,,68,0
3224,note_on,,0,0,10,,,,,,,,,,,,,,,5,,,71,0
3224,note_on,,104,0,10,,,,,,,,,,,,,,,5,,,74,0
3227,note_on,,47,0,6,,,,,,,,,,,,,,,1,,,73,0
3240,note_on,,31,0,9,,,,,,,,,,,,,,,4,,,59,76
3240,note_on,,0,0,10,,,,,,,,,,,,,,,5,,,59,76
3240,note_on,,0,0,10,,,,,,,,,,,,,,,5,,,78,76
3240,note_on,,16,0,10,,,,,,,,,,,,,,,5,,,71,76
3240,note_on,,13,0,6,,,,,,,,,,,,,,,1,,,74,76
3240,note_on,,31,0,7,,,,,,,,,,,,,,,2,,,71,76
3240,note_on,,31,0,5,,,,,,,,,,,,,,,0,,,74,76
3240,note_on,,0,0,10,,,,,,,,,,,,,,,5,,,74,76
3240,note_on,,31,0,8,,,,,,,,,,,,,,,3,,,68,76
3284,note_on,,44,0,10,,,,,,,,,,,,,,,5,,,71,0
3284,note_on,,0,0,10,,,,,,,,,,,,,,,5,,,74,0
3284,note_on,,44,0,9,,,,,,,,,,,,,,,4,,,59,0
3284,note_on,,0,0,10,,,,,,,,,,,,,,,5,,,59,0
3284,note_on,,0,0,10,,,,,,,,,,,,,,,5,,,78,0
3300,note_on,,0,0,10,,,,,,,,,,,,,,,5,,,68,76
3300,note_on,,0,0,10,,,,,,,,,,,,,,,5,,,74,76
3300,note_on,,16,0,10,,,,,,,,,,,,,,,5,,,71,76
3300,note_on,,0,0,10,,,,,,,,,,,,,,,5,,,56,76
3300,note_on,,0,0,10,,,,,,,,,,,,,,,5,,,76,76
3300,note_on,,16,0,9,,,,,,,,,,,,,,,4,,,56,76
3329,note_on,,89,0,5,,,,,,,,,,,,,,,0,,,74,0
3329,note_on,,89,0,8,,,,,,,,,,,,,,,3,,,68,0
3329,note_on,,89,0,7,,,,,,,,,,,,,,,2,,,71,0
3344,note_on,,0,0,10,,,,,,,,,,,,,,,5,,,76,0
3344,note_on,,0,0,10,,,,,,,,,,,,,,,5,,,56,0
3344,note_on,,44,0,10,,,,,,,,,,,,,,,5,,,71,0
3344,note_on,,44,0,9,,,,,,,,,,,,,,,4,,,56,0
3344,note_on,,0,0,10,,,,,,,,,,,,,,,5,,,74,0
3344,note_on,,0,0,10,,,,,,,,,,,,,,,5,,,68,0
3360,note_on,,16,0,9,,,,,,,,,,,,,,,4,,,52,76
3360,note_on,,16,0,10,,,,,,,,,,,,,,,5,,,71,76
3360,note_on,,31,0,8,,,,,,,,,,,,,,,3,,,71,76
3360,note_on,,0,0,10,,,,,,,,,,,,,,,5,,,52,76
3360,note_on,,0,0,10,,,,,,,,,,,,,,,5,,,64,76
3360,note_on,,0,0,10,,,,,,,,,,,,,,,5,,,74,76
3360,note_on,,31,0,5,,,,,,,,,,,,,,,0,,,83,76
3360,note_on,,0,0,10,,,,,,,,,,,,,,,5,,,68,76
3360,note_on,,31,0,7,,,,,,,,,,,,,,,2,,,68,76
3407,note_on,,167,0,6,,,,,,,,,,,,,,,1,,,74,0
3420,note_on,,13,0,6,,,,,,,,,,,,,,,1,,,79,76
3449,note_on,,89,0,8,,,,,,,,,,,,,,,3,,,71,0
3449,note_on,,89,0,9,,,,,,,,,,,,,,,4,,,52,0
3449,note_on,,89,0,7,,,,,,,,,,,,,,,2,,,68,0
3464,note_on,,104,0,10,,,,,,,,,,,,,,,5,,,71,0
3464,note_on,,0,0,10,,,,,,,,,,,,,,,5,,,68,0
3464,note_on,,0,0,10,,,,,,,,,,,,,,,5,,,52,0
3464,note_on,,0,0,10,,,,,,,,,,,,,,,5,,,64,0
3464,note_on,,0,0,10,,,,,,,,,,,,,,,5,,,74,0
3464,note_on,,104,0,5,,,,,,,,,,,,,,,0,,,83,0
3467,note_on,,47,0,6,,,,,,,,,,,,,,,1,,,79,0
3480,note_on,,16,0,5,,,,,,,,,,,,,,,0,,,74,76
3480,note_on,,0,0,10,,,,,,,,,,,,,,,5,,,74,76
3480,note_on,,0,0,10,,,,,,,,,,,,,,,5,,,56,76
3480,note_on,,31,0,7,,,,,,,,,,,,,,,2,,,71,76
3480,note_on,,16,0,10,,,,,,,,,,,,,,,5,,,71,76
3480,note_on,,0,0,10,,,,,,,,,,,,,,,5,,,68,76
3480,note_on,,13,0,6,,,,,,,,,,,,,,,1,,,74,76
3480,note_on,,31,0,8,,,,,,,,,,,,,,,3,,,64,76
3480,note_on,,31,0,9,,,,,,,,,,,,,,,4,,,56,76
3524,note_on,,44,0,10,,,,,,,,,,,,,,,5,,,71,0
3524,note_on,,0,0,10,,,,,,,,,,,,,,,5,,,68,0
3524,note_on,,0,0,10,,,,,,,,,,,,,,,5,,,74,0
3524,note_on,,0,0,10,,,,,,,,,,,,,,,5,,,56,0
3524,note_on,,44,0,9,,,,,,,,,,,,,,,4,,,56,0
3540,note_on,,16,0,10,,,,,,,,,,,,,,,5,,,68,76
3540,note_on,,0,0,10,,,,,,,,,,,,,,,5,,,74,76
3540,note_on,,0,0,10,,,,,,,,,,,,,,,5,,,64,76
3540,note_on,,16,0,9,,,,,,,,,,,,,,,4,,,52,76
3540,note_on,,0,0,10,,,,,,,,,,,,,,,5,,,71,76
3540,note_on,,0,0,10,,,,,,,,,,,,,,,5,,,52,76
3569,note_on,,89,0,8,,,,,,,,,,,,,,,3,,,64,0
3569,note_on,,89,0,7,,,,,,,,,,,,,,,2,,,71,0
3584,note_on,,0,0,10,,,,,,,,,,,,,,,5,,,74,0
3584,note_on,,44,0,10,,,,,,,,,,,,,,,5,,,68,0
3584,note_on,,104,0,5,,,,,,,,,,,,,,,0,,,74,0
3584,note_on,,0,0,10,,,,,,,,,,,,,,,5,,,64,0
3584,note_on,,104,0,6,,,,,,,,,,,,,,,1,,,74,0
3584,note_on,,44,0,9,,,,,,,,,,,,,,,4,,,52,0
3584,note_on,,0,0,10,,,,,,,,,,,,,,,5,,,71,0
3584,note_on,,0,0,10,,,,,,,,,,,,,,,5,,,52,0
3600,note_on,,16,0,10,,,,,,,,,,,,,,,5,,,64,76
3600,note_on,,0,0,10,,,,,,,,,,,,,,,5,,,57,76
3600,note_on,,31,0,7,,,,,,,,,,,,,,,2,,,69,76
3600,note_on,,0,0,10,,,,,,,,,,,,,,,5,,,69,76
3600,note_on,,31,0,8,,,,,,,,,,,,,,,3,,,64,76
3600,note_on,,16,0,6,,,,,,,,,,,,,,,1,,,74,76
3600,note_on,,0,0,10,,,,,,,,,,,,,,,5,,,74,76
3600,note_on,,16,0,5,,,,,,,,,,,,,,,0,,,74,76
3600,note_on,,16,0,9,,,,,,,,,,,,,,,4,,,57,76
3629,note_on,,29,0,6,,,,,,,,,,,,,,,1,,,74,0
3629,note_on,,29,0,5,,,,,,,,,,,,,,,0,,,74,0
3630,note_on,,1,0,6,,,,,,,,,,,,,,,1,,,76,76
3630,note_on,,1,0,5,,,,,,,,,,,,,,,0,,,76,76
3659,note_on,,29,0,6,,,,,,,,,,,,,,,1,,,76,0
3659,note_on,,29,0,5,,,,,,,,,,,,,,,0,,,76,0
3660,note_on,,1,0,5,,,,,,,,,,,,,,,0,,,73,76
3660,note_on,,1,0,6,,,,,,,,,,,,,,,1,,,73,76
3689,note_on,,29,0,5,,,,,,,,,,,,,,,0,,,73,0
3689,note_on,,89,0,8,,,,,,,,,,,,,,,3,,,64,0
3689,note_on,,29,0,6,,,,,,,,,,,,,,,1,,,73,0
3689,note_on,,89,0,7,,,,,,,,,,,,,,,2,,,69,0
3689,note_on,,89,0,9,,,,,,,,,,,,,,,4,,,57,0
3690,note_on,,1,0,5,,,,,,,,,,,,,,,0,,,74,76
3690,note_on,,1,0,6,,,,,,,,,,,,,,,1,,,74,76
3704,note_on,,0,0,10,,,,,,,,,,,,,,,5,,,74,0
3704,note_on,,0,0,10,,,,,,,,,,,,,,,5,,,69,0
3704,note_on,,0,0,10,,,,,,,,,,,,,,,5,,,57,0
3704,note_on,,104,0,10,,,,,,,,,,,,,,,5,,,64,0
3719,note_on,,29,0,5,,,,,,,,,,,,,,,0,,,74,0
3719,note_on,,29,0,6,,,,,,,,,,,,,,,1,,,74,0
3720,note_on,,0,0,10,,,,,,,,,,,,,,,5,,,81,76
3720,note_on,,0,0,10,,,,,,,,,,,,,,,5,,,73,76
3720,note_on,,1,0,6,,,,,,,,,,,,,,,1,,,73,76
3720,note_on,,16,0,10,,,,,,,,,,,,,,,5,,,61,76
3720,note_on,,0,0,10,,,,,,,,,,,,,,,5,,,76,76
3720,note_on,,31,0,8,,,,,,,,,,,,,,,3,,,69,76
3720,note_on,,31,0,9,,,,,,,,,,,,,,,4,,,61,76
3720,note_on,,1,0,5,,,,,,,,,,,,,,,0,,,73,76
3720,note_on,,31,0,7,,,,,,,,,,,,,,,2,,,64,76
3764,note_on,,44,0,9,,,,,,,,,,,,,,,4,,,61,0
3764,note_on,,0,0,10,,,,,,,,,,,,,,,5,,,81,0
3764,note_on,,0,0,10,,,,,,,,,,,,,,,5,,,73,0
3764,note_on,,0,0,10,,,,,,,,,,,,,,,5,,,76,0
3764,note_on,,44,0,10,,,,,,,,,,,,,,,5,,,61,0
3780,note_on,,0,0,10,,,,,,,,,,,,,,,5,,,64,76
3780,note_on,,16,0,10,,,,,,,,,,,,,,,5,,,57,76
3780,note_on,,0,0,10,,,,,,,,,,,,,,,5,,,69,76
3780,note_on,,16,0,9,,,,,,,,,,,,,,,4,,,57,76
3780,note_on,,0,0,10,,,,,,,,,,,,,,,5,,,74,76
3809,note_on,,89,0,8,,,,,,,,,,,,,,,3,,,69,0
3809,note_on,,89,0,7,,,,,,,,,,,,,,,2,,,64,0
3824,note_on,,104,0,6,,,,,,,,,,,,,,,1,,,73,0
3824,note_on,,104,0,5,,,,,,,,,,,,,,,0,,,73,0
3824,note_on,,44,0,9,,,,,,,,,,,,,,,4,,,57,0
3824,note_on,,0,0,10,,,,,,,,,,,,,,,5,,,64,0
3824,note_on,,0,0,10,,,,,,,,,,,,,,,5,,,69,0
3824,note_on,,0,0,10,,,,,,,,,,,,,,,5,,,74,0
3824,note_on,,44,0,10,,,,,,,,,,,,,,,5,,,57,0
3840,note_on,,31,0,7,,,,,,,,,,,,,,,2,,,69,76
3840,note_on,,16,0,5,,,,,,,,,,,,,,,0,,,78,76
3840,note_on,,16,0,6,,,,,,,,,,,,,,,1,,,78,76
3840,note_on,,31,0,8,,,,,,,,,,,,,,,3,,,66,76
3840,note_on,,0,0,10,,,,,,,,,,,,,,,5,,,74,76
3840,note_on,,16,0,9,,,,,,,,,,,,,,,4,,,62,76
3840,note_on,,0,0,10,,,,,,,,,,,,,,,5,,,78,76
3840,note_on,,16,0,10,,,,,,,,,,,,,,,5,,,62,76
3840,note_on,,0,0,10,,,,,,,,,,,,,,,5,,,81,76
3887,note_on,,47,0,6,,,,,,,,,,,,,,,1,,,78,0
3900,note_on,,13,0,6,,,,,,,,,,,,,,,1,,,77,76
3929,note_on,,89,0,8,,,,,,,,,,,,,,,3,,,66,0
3929,note_on,,89,0,5,,,,,,,,,,,,,,,0,,,78,0
3929,note_on,,89,0,9,,,,,,,,,,,,,,,4,,,62,0
3929,note_on,,89,0,7,,,,,,,,,,,,,,,2,,,69,0
3944,note_on,,104,0,10,,,,,,,,,,,,,,,5,,,62,0
3944,note_on,,0,0,10,,,,,,,,,,,,,,,5,,,81,0
3944,note_on,,0,0,10,,,,,,,,,,,,,,,5,,,74,0
3944,note_on,,0,0,10,,,,,,,,,,,,,,,5,,,78,0
3947,note_on,,47,0,6,,,,,,,,,,,,,,,1,,,77,0
3960,note_on,,31,0,7,,,,,,,,,,,,,,,2,,,74,76
3960,note_on,,16,0,10,,,,,,,,,,,,,,,5,,,85,76
3960,note_on,,0,0,10,,,,,,,,,,,,,,,5,,,81,76
3960,note_on,,0,0,10,,,,,,,,,,,,,,,5,,,66,76
3960,note_on,,13,0,6,,,,,,,,,,,,,,,1,,,78,76
3960,note_on,,31,0,8,,,,,,,,,,,,,,,3,,,69,76
3960,note_on,,31,0,9,,,,,,,,,,,,,,,4,,,66,76
3960,note_on,,31,0,5,,,,,,,,,,,,,,,0,,,78,76
3960,note_on,,0,0,10,,,,,,,,,,,,,,,5,,,78,76
4004,note_on,,44,0,10,,,,,,,,,,,,,,,5,,,85,0
4004,note_on,,0,0,10,,,,,,,,,,,,,,,5,,,81,0
4004,note_on,,0,0,10,,,,,,,,,,,,,,,5,,,66,0
4004,note_on,,0,0,10,,,,,,,,,,,,,,,5,,,78,0
4004,note_on,,44,0,9,,,,,,,,,,,,,,,4,,,66,0
4020,note_on,,16,0,10,,,,,,,,,,,,,,,5,,,78,76
4020,note_on,,0,0,10,,,,,,,,,,,,,,,5,,,62,76
4020,note_on,,0,0,10,,,,,,,,,,,,,,,5,,,81,76
4020,note_on,,0,0,10,,,,,,,,,,,,,,,5,,,74,76
4020,note_on,,16,0,9,,,,,,,,,,,,,,,4,,,62,76
4049,note_on,,89,0,7,,,,,,,,,,,,,,,2,,,74,0
4049,note_on,,89,0,8,,,,,,,,,,,,,,,3,,,69,0
4049,note_on,,89,0,5,,,,,,,,,,,,,,,0,,,78,0
4064,note_on,,0,0,10,,,,,,,,,,,,,,,5,,,74,0
4064,note_on,,44,0,9,,,,,,,,,,,,,,,4,,,62,0
4064,note_on,,0,0,10,,,,,,,,,,,,,,,5,,,81,0
4064,note_on,,0,0,10,,,,,,,,,,,,,,,5,,,62,0
4064,note_on,,44,0,10,,,,,,,,,,,,,,,5,,,78,0
4080,note_on,,16,0,9,,,,,,,,,,,,,,,4,,,59,76
4080,note_on,,0,0,10,,,,,,,,,,,,,,,5,,,71,76
4080,note_on,,31,0,8,,,,,,,,,,,,,,,3,,,74,76
4080,note_on,,31,0,7,,,,,,,,,,,,,,,2,,,68,76
4080,note_on,,0,0,10,,,,,,,,,,,,,,,5,,,59,76
4080,note_on,,31,0,5,,,,,,,,,,,,,,,0,,,78,76
4080,note_on,,16,0,10,,,,,,,,,,,,,,,5,,,80,76
4080,note_on,,0,0,10,,,,,,,,,,,,,,,5,,,74,76
4080,note_on,,0,0,10,,,,,,,,,,,,,,,5,,,78,76
4127,note_on,,167,0,6,,,,,,,,,,,,,,,1,,,78,0
4140,note_on,,13,0,6,,,,,,,,,,,,,,,1,,,77,76
4169,note_on,,89,0,9,,,,,,,,,,,,,,,4,,,59,0
4169,note_on,,89,0,7,,,,,,,,,,,,,,,2,,,68,0
4169,note_on,,89,0,8,,,,,,,,,,,,,,,3,,,74,0
4184,note_on,,104,0,10,,,,,,,,,,,,,,,5,,,80,0
4184,note_on,,0,0,10,,,,,,,,,,,,,,,5,,,71,0
4184,note_on,,0,0,10,,,,,,,,,,,,,,,5,,,78,0
4184,note_on,,0,0,10,,,,,,,,,,,,,,,5,,,59,0
4184,note_on,,0,0,10,,,,,,,,,,,,,,,5,,,74,0
4184,note_on,,104,0,5,,,,,,,,,,,,,,,0,,,78,0
4187,note_on,,47,0,6,,,,,,,,,,,,,,,1,,,77,0
4200,note_on,,31,0,8,,,,,,,,,,,,,,,3,,,71,76
4200,note_on,,31,0,7,,,,,,,,,,,,,,,2,,,74,76
4200,note_on,,16,0,10,,,,,,,,,,,,,,,5,,,81,76
4200,note_on,,0,0,10,,,,,,,,,,,,,,,5,,,78,76
4200,note_on,,13,0,6,,,,,,,,,,,,,,,1,,,78,76
4200,note_on,,0,0,10,,,,,,,,,,,,,,,5,,,74,76
4200,note_on,,0,0,10,,,,,,,,,,,,,,,5,,,62,76
4200,note_on,,31,0,9,,,,,,,,,,,,,,,4,,,62,76
4200,note_on,,16,0,5,,,,,,,,,,,,,,,0,,,78,76
4244,note_on,,0,0,10,,,,,,,,,,,,,,,5,,,62,0
4244,note_on,,0,0,10,,,,,,,,,,,,,,,5,,,78,0
4244,note_on,,0,0,10,,,,,,,,,,,,,,,5,,,74,0
4244,note_on,,44,0,10,,,,,,,,,,,,,,,5,,,81,0
4244,note_on,,44,0,9,,,,,,,,,,,,,,,4,,,62,0
4260,note_on,,16,0,9,,,,,,,,,,,,,,,4,,,59,76
4260,note_on,,0,0,10,,,,,,,,,,,,,,,5,,,74,76
4260,note_on,,0,0,10,,,,,,,,,,,,,,,5,,,78,76
4260,note_on,,0,0,10,,,,,,,,,,,,,,,5,,,59,76
4260,note_on,,0,0,10,,,,,,,,,,,,,,,5,,,80,76
4260,note_on,,16,0,10,,,,,,,,,,,,,,,5,,,71,76
4289,note_on,,89,0,7,,,,,,,,,,,,,,,2,,,74,0
4289,note_on,,89,0,8,,,,,,,,,,,,,,,3,,,71,0
4304,note_on,,104,0,5,,,,,,,,,,,,,,,0,,,78,0
4304,note_on,,44,0,9,,,,,,,,,,,,,,,4,,,59,0
4304,note_on,,44,0,10,,,,,,,,,,,,,,,5,,,71,0
4304,note_on,,0,0,10,,,,,,,,,,,,,,,5,,,80,0
4304,note_on,,0,0,10,,,,,,,,,,,,,,,5,,,59,0
4304,note_on,,0,0,10,,,,,,,,,,,,,,,5,,,78,0
4304,note_on,,0,0,10,,,,,,,,,,,,,,,5,,,74,0
4320,note_on,,16,0,5,,,,,,,,,,,,,,,0,,,86,76
4320,note_on,,16,0,9,,,,,,,,,,,,,,,4,,,56,76
4320,note_on,,0,0,10,,,,,,,,,,,,,,,5,,,71,76
4320,note_on,,0,0,10,,,,,,,,,,,,,,,5,,,74,76
4320,note_on,,0,0,10,,,,,,,,,,,,,,,5,,,68,76
4320,note_on,,16,0,10,,,,,,,,,,,,,,,5,,,78,76
4320,note_on,,31,0,8,,,,,,,,,,,,,,,3,,,74,76
4320,note_on,,31,0,7,,,,,,,,,,,,,,,2,,,71,76
4320,note_on,,0,0,10,,,,,,,,,,,,,,,5,,,56,76
4367,note_on,,167,0,6,,,,,,,,,,,,,,,1,,,78,0
4380,note_on,,13,0,6,,,,,,,,,,,,,,,1,,,86,76
4409,note_on,,89,0,9,,,,,,,,,,,,,,,4,,,56,0
4409,note_on,,89,0,7,,,,,,,,,,,,,,,2,,,71,0
4409,note_on,,89,0,8,,,,,,,,,,,,,,,3,,,74,0
4424,note_on,,104,0,5,,,,,,,,,,,,,,,0,,,86,0
4424,note_on,,0,0,10,,,,,,,,,,,,,,,5,,,56,0
4424,note_on,,0,0,10,,,,,,,,,,,,,,,5,,,71,0
4424,note_on,,0,0,10,,,,,,,,,,,,,,,5,,,74,0
4424,note_on,,0,0,10,,,,,,,,,,,,,,,5,,,68,0
4424,note_on,,104,0,10,,,,,,,,,,,,,,,5,,,78,0
4427,note_on,,47,0,6,,,,,,,,,,,,,,,1,,,86,0
4440,note_on,,0,0,10,,,,,,,,,,,,,,,5,,,78,76
4440,note_on,,0,0,10,,,,,,,,,,,,,,,5,,,59,76
4440,note_on,,16,0,10,,,,,,,,,,,,,,,5,,,74,76
4440,note_on,,16,0,5,,,,,,,,,,,,,,,0,,,78,76
4440,note_on,,0,0,10,,,,,,,,,,,,,,,5,,,71,76
4440,note_on,,31,0,7,,,,,,,,,,,,,,,2,,,74,76
4440,note_on,,31,0,8,,,,,,,,,,,,,,,3,,,68,76
4440,note_on,,31,0,9,,,,,,,,,,,,,,,4,,,59,76
4440,note_on,,13,0,6,,,,,,,,,,,,,,,1,,,78,76
4484,note_on,,0,0,10,,,,,,,,,,,,,,,5,,,78,0
4484,note_on,,0,0,10,,,,,,,,,,,,,,,5,,,71,0
4484,note_on,,44,0,9,,,,,,,,,,,,,,,4,,,59,0
4484,note_on,,44,0,10,,,,,,,,,,,,,,,5,,,74,0
4484,note_on,,0,0,10,,,,,,,,,,,,,,,5,,,59,0
4500,note_on,,0,0,10,,,,,,,,,,,,,,,5,,,71,76
4500,note_on,,0,0,10,,,,,,,,,,,,,,,5,,,78,76
4500,note_on,,16,0,10,,,,,,,,,,,,,,,5,,,74,76
4500,note_on,,0,0,10,,,,,,,,,,,,,,,5,,,56,76
4500,note_on,,0,0,10,,,,,,,,,,,,,,,5,,,68,76
4500,note_on,,16,0,9,,,,,,,,,,,,,,,4,,,56,76
4529,note_on,,89,0,7,,,,,,,,,,,,,,,2,,,74,0
4529,note_on,,89,0,8,,,,,,,,,,,,,,,3,,,68,0
4544,note_on,,104,0,5,,,,,,,,,,,,,,,0,,,78,0
4544,note_on,,44,0,9,,,,,,,,,,,,,,,4,,,56,0
4544,note_on,,0,0,10,,,,,,,,,,,,,,,5,,,56,0
4544,note_on,,44,0,10,,,,,,,,,,,,,,,5,,,74,0
4544,note_on,,0,0,10,,,,,,,,,,,,,,,5,,,71,0
4544,note_on,,104,0,6,,,,,,,,,,,,,,,1,,,78,0
4544,note_on,,0,0,10,,,,,,,,,,,,,,,5,,,78,0
4544,note_on,,0,0,10,,,,,,,,,,,,,,,5,,,68,0
4560,note_on,,16,0,9,,,,,,,,,,,,,,,4,,,61,76
4560,note_on,,31,0,8,,,,,,,,,,,,,,,3,,,68,76
4560,note_on,,16,0,6,,,,,,,,,,,,,,,1,,,78,76
4560,note_on,,31,0,7,,,,,,,,,,,,,,,2,,,73,76
4560,note_on,,0,0,10,,,,,,,,,,,,,,,5,,,73,76
4560,note_on,,0,0,10,,,,,,,,,,,,,,,5,,,78,76
4560,note_on,,0,0,10,,,,,,,,,,,,,,,5,,,80,76
4560,note_on,,16,0,10,,,,,,,,,,,,,,,5,,,61,76
4560,note_on,,16,0,5,,,,,,,,,,,,,,,0,,,78,76
4589,note_on,,29,0,6,,,,,,,,,,,,,,,1,,,78,0
4589,note_on,,29,0,5,,,,,,,,,,,,,,,0,,,78,0
4590,note_on,,1,0,6,,,,,,,,,,,,,,,1,,,79,76
4590,note_on,,1,0,5,,,,,,,,,,,,,,,0,,,79,76
4604,note_on,,44,0,10,,,,,,,,,,,,,,,5,,,61,0
4604,note_on,,0,0,10,,,,,,,,,,,,,,,5,,,73,0
4604,note_on,,0,0,10,,,,,,,,,,,,,,,5,,,78,0
4604,note_on,,0,0,10,,,,,,,,,,,,,,,5,,,80,0
4604,note_on,,44,0,9,,,,,,,,,,,,,,,4,,,61,0
4619,note_on,,29,0,6,,,,,,,,,,,,,,,1,,,79,0
4619,note_on,,29,0,5,,,,,,,,,,,,,,,0,,,79,0
4620,note_on,,1,0,5,,,,,,,,,,,,,,,0,,,77,76
4620,note_on,,0,0,10,,,,,,,,,,,,,,,5,,,74,76
4620,note_on,,1,0,6,,,,,,,,,,,,,,,1,,,77,76
4620,note_on,,16,0,9,,,,,,,,,,,,,,,4,,,62,76
4620,note_on,,0,0,10,,,,,,,,,,,,,,,5,,,78,76
4620,note_on,,16,0,10,,,,,,,,,,,,,,,5,,,81,76
4620,note_on,,0,0,10,,,,,,,,,,,,,,,5,,,62,76
4649,note_on,,89,0,7,,,,,,,,,,,,,,,2,,,73,0
4649,note_on,,29,0,6,,,,,,,,,,,,,,,1,,,77,0
4649,note_on,,89,0,8,,,,,,,,,,,,,,,3,,,68,0
4649,note_on,,29,0,5,,,,,,,,,,,,,,,0,,,77,0
4650,note_on,,1,0,6,,,,,,,,,,,,,,,1,,,78,76
4650,note_on,,1,0,5,,,,,,,,,,,,,,,0,,,78,76
4664,note_on,,44,0,9,,,,,,,,,,,,,,,4,,,62,0
4664,note_on,,44,0,10,,,,,,,,,,,,,,,5,,,81,0
4664,note_on,,0,0,10,,,,,,,,,,,,,,,5,,,62,0
4664,note_on,,0,0,10,,,,,,,,,,,,,,,5,,,78,0
4664,note_on,,0,0,10,,,,,,,,,,,,,,,5,,,74,0
4679,note_on,,29,0,6,,,,,,,,,,,,,,,1,,,78,0
4679,note_on,,29,0,5,,,,,,,,,,,,,,,0,,,78,0
4680,note_on,,31,0,8,,,,,,,,,,,,,,,3,,,73,76
4680,note_on,,16,0,10,,,,,,,,,,,,,,,5,,,73,76
4680,note_on,,0,0,10,,,,,,,,,,,,,,,5,,,61,76
4680,note_on,,0,0,10,,,,,,,,,,,,,,,5,,,80,76
4680,note_on,,0,0,10,,,,,,,,,,,,,,,5,,,77,76
4680,note_on,,16,0,9,,,,,,,,,,,,,,,4,,,61,76
4680,note_on,,1,0,5,,,,,,,,,,,,,,,0,,,77,76
4680,note_on,,1,0,6,,,,,,,,,,,,,,,1,,,77,76
4680,note_on,,31,0,7,,,,,,,,,,,,,,,2,,,68,76
4724,note_on,,0,0,10,,,,,,,,,,,,,,,5,,,61,0
4724,note_on,,0,0,10,,,,,,,,,,,,,,,5,,,77,0
4724,note_on,,0,0,10,,,,,,,,,,,,,,,5,,,80,0
4724,note_on,,44,0,10,,,,,,,,,,,,,,,5,,,73,0
4724,note_on,,44,0,9,,,,,,,,,,,,,,,4,,,61,0
4740,note_on,,0,0,10,,,,,,,,,,,,,,,5,,,71,76
4740,note_on,,0,0,10,,,,,,,,,,,,,,,5,,,74,76
4740,note_on,,16,0,10,,,,,,,,,,,,,,,5,,,59,76
4740,note_on,,16,0,9,,,,,,,,,,,,,,,4,,,59,76
4740,note_on,,0,0,10,,,,,,,,,,,,,,,5,,,78,76
4769,note_on,,89,0,7,,,,,,,,,,,,,,,2,,,68,0
4769,note_on,,89,0,8,,,,,,,,,,,,,,,3,,,73,0
4784,note_on,,44,0,9,,,,,,,,,,,,,,,4,,,59,0
4784,note_on,,104,0,5,,,,,,,,,,,,,,,0,,,77,0
4784,note_on,,44,0,10,,,,,,,,,,,,,,,5,,,59,0
4784,note_on,,0,0,10,,,,,,,,,,,,,,,5,,,78,0
4784,note_on,,0,0,10,,,,,,,,,,,,,,,5,,,71,0
4784,note_on,,0,0,10,,,,,,,,,,,,,,,5,,,74,0
4784,note_on,,104,0,6,,,,,,,,,,,,,,,1,,,77,0
4800,note_on,,16,0,5,,,,,,,,,,,,,,,0,,,73,76
4800,note_on,,0,0,10,,,,,,,,,,,,,,,5,,,69,76
4800,note_on,,0,0,10,,,,,,,,,,,,,,,5,,,73,76
4800,note_on,,31,0,7,,,,,,,,,,,,,,,2,,,73,76
4800,note_on,,0,0,10,,,,,,,,,,,,,,,5,,,57,76
4800,note_on,,16,0,9,,,,,,,,,,,,,,,4,,,57,76
4800,note_on,,31,0,8,,,,,,,,,,,,,,,3,,,66,76
4800,note_on,,16,0,6,,,,,,,,,,,,,,,1,,,78,76
4800,note_on,,16,0,10,,,,,,,,,,,,,,,5,,,78,76
4847,note_on,,47,0,5,,,,,,,,,,,,,,,0,,,73,0
4860,note_on,,13,0,5,,,,,,,,,,,,,,,0,,,78,76
4889,note_on,,89,0,8,,,,,,,,,,,,,,,3,,,66,0
4889,note_on,,89,0,9,,,,,,,,,,,,,,,4,,,57,0
4889,note_on,,89,0,7,,,,,,,,,,,,,,,2,,,73,0
4889,note_on,,89,0,6,,,,,,,,,,,,,,,1,,,78,0
4904,note_on,,0,0,10,,,,,,,,,,,,,,,5,,,73,0
4904,note_on,,0,0,10,,,,,,,,,,,,,,,5,,,57,0
4904,note_on,,104,0,10,,,,,,,,,,,,,,,5,,,78,0
4904,note_on,,0,0,10,,,,,,,,,,,,,,,5,,,69,0
4907,note_on,,47,0,5,,,,,,,,,,,,,,,0,,,78,0
4920,note_on,,0,0,10,,,,,,,,,,,,,,,5,,,69,76
4920,note_on,,16,0,10,,,,,,,,,,,,,,,5,,,73,76
4920,note_on,,0,0,10,,,,,,,,,,,,,,,5,,,66,76
4920,note_on,,31,0,8,,,,,,,,,,,,,,,3,,,73,76
4920,note_on,,31,0,9,,,,,,,,,,,,,,,4,,,54,76
4920,note_on,,31,0,7,,,,,,,,,,,,,,,2,,,78,76
4920,note_on,,13,0,5,,,,,,,,,,,,,,,0,,,81,76
4920,note_on,,0,0,10,,,,,,,,,,,,,,,5,,,54,76
4920,note_on,,31,0,6,,,,,,,,,,,,,,,1,,,81,76
4967,note_on,,47,0,5,,,,,,,,,,,,,,,0,,,81,0
4980,note_on,,13,0,5,,,,,,,,,,,,,,,0,,,78,76
5009,note_on,,89,0,9,,,,,,,,,,,,,,,4,,,54,0
5009,note_on,,89,0,8,,,,,,,,,,,,,,,3,,,73,0
5009,note_on,,89,0,6,,,,,,,,,,,,,,,1,,,81,0
5009,note_on,,89,0,7,,,,,,,,,,,,,,,2,,,78,0
5024,note_on,,104,0,10,,,,,,,,,,,,,,,5,,,73,0
5024,note_on,,0,0,10,,,,,,,,,,,,,,,5,,,69,0
5024,note_on,,0,0,10,,,,,,,,,,,,,,,5,,,66,0
5024,note_on,,0,0,10,,,,,,,,,,,,,,,5,,,54,0
5027,note_on,,47,0,5,,,,,,,,,,,,,,,0,,,78,0
5040,note_on,,0,0,10,,,,,,,,,,,,,,,5,,,59,76
5040,note_on,,16,0,10,,,,,,,,,,,,,,,5,,,71,76
5040,note_on,,0,0,10,,,,,,,,,,,,,,,5,,,80,76
5040,note_on,,0,0,10,,,,,,,,,,,,,,,5,,,74,76
5040,note_on,,0,0,10,,,,,,,,,,,,,,,5,,,78,76
5040,note_on,,31,0,8,,,,,,,,,,,,,,,3,,,74,76
5040,note_on,,31,0,6,,,,,,,,,,,,,,,1,,,80,76
5040,note_on,,31,0,9,,,,,,,,,,,,,,,4,,,59,76
5040,note_on,,13,0,5,,,,,,,,,,,,,,,0,,,80,76
5040,note_on,,31,0,7,,,,,,,,,,,,,,,2,,,78,76
5087,note_on,,47,0,5,,,,,,,,,,,,,,,0,,,80,0
5100,note_on,,13,0,5,,,,,,,,,,,,,,,0,,,78,76
5129,note_on,,89,0,6,,,,,,,,,,,,,,,1,,,80,0
5129,note_on,,89,0,7,,,,,,,,,,,,,,,2,,,78,0
5129,note_on,,89,0,9,,,,,,,,,,,,,,,4,,,59,0
5129,note_on,,89,0,8,,,,,,,,,,,,,,,3,,,74,0
5144,note_on,,0,0,10,,,,,,,,,,,,,,,5,,,78,0
5144,note_on,,0,0,10,,,,,,,,,,,,,,,5,,,59,0
5144,note_on,,0,0,10,,,,,,,,,,,,,,,5,,,74,0
5144,note_on,,0,0,10,,,,,,,,,,,,,,,5,,,80,0
5144,note_on,,104,0,10,,,,,,,,,,,,,,,5,,,71,0
5147,note_on,,47,0,5,,,,,,,,,,,,,,,0,,,78,0
5160,note_on,,31,0,6,,,,,,,,,,,,,,,1,,,80,76
5160,note_on,,13,0,5,,,,,,,,,,,,,,,0,,,80,76
5160,note_on,,31,0,8,,,,,,,,,,,,,,,3,,,74,76
5160,note_on,,31,0,9,,,,,,,,,,,,,,,4,,,56,76
5160,note_on,,16,0,10,,,,,,,,,,,,,,,5,,,74,76
5160,note_on,,0,0,10,,,,,,,,,,,,,,,5,,,68,76
5160,note_on,,31,0,7,,,,,,,,,,,,,,,2,,,78,76
5160,note_on,,0,0,10,,,,,,,,,,,,,,,5,,,56,76
5160,note_on,,0,0,10,,,,,,,,,,,,,,,5,,,71,76
5207,note_on,,47,0,5,,,,,,,,,,,,,,,0,,,80,0
5220,note_on,,13,0,5,,,,,,,,,,,,,,,0,,,78,76
5249,note_on,,89,0,9,,,,,,,,,,,,,,,4,,,56,0
5249,note_on,,89,0,7,,,,,,,,,,,,,,,2,,,78,0
5249,note_on,,89,0,6,,,,,,,,,,,,,,,1,,,80,0
5249,note_on,,89,0,8,,,,,,,,,,,,,,,3,,,74,0
5264,note_on,,0,0,10,,,,,,,,,,,,,,,5,,,68,0
5264,note_on,,0,0,10,,,,,,,,,,,,,,,5,,,56,0
5264,note_on,,0,0,10,,,,,,,,,,,,,,,5,,,71,0
5264,note_on,,104,0,10,,,,,,,,,,,,,,,5,,,74,0
5267,note_on,,47,0,5,,,,,,,,,,,,,,,0,,,78,0
5280,note_on,,0,0,10,,,,,,,,,,,,,,,5,,,61,76
5280,note_on,,0,0,10,,,,,,,,,,,,,,,5,,,83,76
5280,note_on,,0,0,10,,,,,,,,,,,,,,,5,,,80,76
5280,note_on,,31,0,9,,,,,,,,,,,,,,,4,,,61,76
5280,note_on,,0,0,10,,,,,,,,,,,,,,,5,,,77,76
5280,note_on,,31,0,8,,,,,,,,,,,,,,,3,,,73,76
5280,note_on,,31,0,6,,,,,,,,,,,,,,,1,,,80,76
5280,note_on,,31,0,7,,,,,,,,,,,,,,,2,,,77,76
5280,note_on,,13,0,5,,,,,,,,,,,,,,,0,,,77,76
5280,note_on,,16,0,10,,,,,,,,,,,,,,,5,,,73,76
5327,note_on,,47,0,5,,,,,,,,,,,,,,,0,,,77,0
5340,note_on,,13,0,5,,,,,,,,,,,,,,,0,,,80,76
5369,note_on,,89,0,9,,,,,,,,,,,,,,,4,,,61,0
5369,note_on,,89,0,6,,,,,,,,,,,,,,,1,,,80,0
5369,note_on,,89,0,8,,,,,,,,,,,,,,,3,,,73,0
5369,note_on,,89,0,7,,,,,,,,,,,,,,,2,,,77,0
5384,note_on,,104,0,10,,,,,,,,,,,,,,,5,,,73,0
5384,note_on,,0,0,10,,,,,,,,,,,,,,,5,,,83,0
5384,note_on,,0,0,10,,,,,,,,,,,,,,,5,,,77,0
5384,note_on,,0,0,10,,,,,,,,,,,,,,,5,,,61,0
5384,note_on,,0,0,10,,,,,,,,,,,,,,,5,,,80,0
5387,note_on,,47,0,5,,,,,,,,,,,,,,,0,,,80,0
5400,note_on,,31,0,8,,,,,,,,,,,,,,,3,,,73,76
5400,note_on,,31,0,7,,,,,,,,,,,,,,,2,,,77,76
5400,note_on,,31,0,6,,,,,,,,,,,,,,,1,,,83,76
5400,note_on,,13,0,5,,,,,,,,,,,,,,,0,,,83,76
5400,note_on,,31,0,9,,,,,,,,,,,,,,,4,,,49,76
5400,note_on,,16,0,10,,,,,,,,,,,,,,,5,,,49,76
5400,note_on,,0,0,10,,,,,,,,,,,,,,,5,,,71,76
5400,note_on,,0,0,10,,,,,,,,,,,,,,,5,,,68,76
5400,note_on,,0,0,10,,,,,,,,,,,,,,,5,,,61,76
5400,note_on,,0,0,10,,,,,,,,,,,,,,,5,,,65,76
5447,note_on,,47,0,5,,,,,,,,,,,,,,,0,,,83,0
5460,note_on,,13,0,5,,,,,,,,,,,,,,,0,,,80,76
5489,note_on,,89,0,6,,,,,,,,,,,,,,,1,,,83,0
5489,note_on,,89,0,7,,,,,,,,,,,,,,,2,,,77,0
5489,note_on,,89,0,9,,,,,,,,,,,,,,,4,,,49,0
5489,note_on,,89,0,8,,,,,,,,,,,,,,,3,,,73,0
5504,note_on,,0,0,10,,,,,,,,,,,,,,,5,,,68,0
5504,note_on,,104,0,10,,,,,,,,,,,,,,,5,,,49,0
5504,note_on,,0,0,10,,,,,,,,,,,,,,,5,,,61,0
5504,note_on,,0,0,10,,,,,,,,,,,,,,,5,,,65,0
5504,note_on,,0,0,10,,,,,,,,,,,,,,,5,,,71,0
5507,note_on,,47,0,5,,,,,,,,,,,,,,,0,,,80,0
5520,note_on,,13,0,5,,,,,,,,,,,,,,,0,,,81,76
5520,note_on,,16,0,10,,,,,,,,,,,,,,,5,,,54,76
5520,note_on,,31,0,9,,,,,,,,,,,,,,,4,,,54,76
5520,note_on,,0,0,10,,,,,,,,,,,,,,,5,,,69,76
5520,note_on,,31,0,6,,,,,,,,,,,,,,,1,,,81,76
5520,note_on,,31,0,7,,,,,,,,,,,,,,,2,,,78,76
5520,note_on,,0,0,10,,,,,,,,,,,,,,,5,,,73,76
5520,note_on,,31,0,8,,,,,,,,,,,,,,,3,,,61,76
5520,note_on,,0,0,10,,,,,,,,,,,,,,,5,,,66,76
5567,note_on,,47,0,5,,,,,,,,,,,,,,,0,,,81,0
5580,note_on,,13,0,5,,,,,,,,,,,,,,,0,,,80,76
5609,note_on,,89,0,7,,,,,,,,,,,,,,,2,,,78,0
5609,note_on,,89,0,8,,,,,,,,,,,,,,,3,,,61,0
5609,note_on,,89,0,9,,,,,,,,,,,,,,,4,,,54,0
5624,note_on,,104,0,6,,,,,,,,,,,,,,,1,,,81,0
5624,note_on,,104,0,10,,,,,,,,,,,,,,,5,,,54,0
5624,note_on,,0,0,10,,,,,,,,,,,,,,,5,,,73,0
5624,note_on,,0,0,10,,,,,,,,,,,,,,,5,,,66,0
5624,note_on,,0,0,10,,,,,,,,,,,,,,,5,,,69,0
5627,note_on,,47,0,5,,,,,,,,,,,,,,,0,,,80,0
5640,note_on,,0,0,10,,,,,,,,,,,,,,,5,,,42,76
5640,note_on,,16,0,10,,,,,,,,,,,,,,,5,,,61,76
5640,note_on,,31,0,7,,,,,,,,,,,,,,,2,,,69,76
5640,note_on,,0,0,10,,,,,,,,,,,,,,,5,,,57,76
5640,note_on,,13,0,5,,,,,,,,,,,,,,,0,,,81,76
5640,note_on,,16,0,6,,,,,,,,,,,,,,,1,,,78,76
5640,note_on,,0,0,10,,,,,,,,,,,,,,,5,,,54,76
5640,note_on,,31,0,9,,,,,,,,,,,,,,,4,,,42,76
5640,note_on,,31,0,8,,,,,,,,,,,,,,,3,,,73,76
5687,note_on,,47,0,5,,,,,,,,,,,,,,,0,,,81,0
5699,note_on,,59,0,6,,,,,,,,,,,,,,,1,,,78,0
5700,note_on,,1,0,6,,,,,,,,,,,,,,,1,,,77,76
5700,note_on,,13,0,5,,,,,,,,,,,,,,,0,,,80,76
5729,note_on,,89,0,8,,,,,,,,,,,,,,,3,,,73,0
5729,note_on,,89,0,9,,,,,,,,,,,,,,,4,,,42,0
5729,note_on,,89,0,7,,,,,,,,,,,,,,,2,,,69,0
5744,note_on,,0,0,10,,,,,,,,,,,,,,,5,,,57,0
5744,note_on,,0,0,10,,,,,,,,,,,,,,,5,,,54,0
5744,note_on,,0,0,10,,,,,,,,,,,,,,,5,,,42,0
5744,note_on,,104,0,10,,,,,,,,,,,,,,,5,,,61,0
5747,note_on,,47,0,5,,,,,,,,,,,,,,,0,,,80,0
5759,note_on,,59,0,6,,,,,,,,,,,,,,,1,,,77,0
5760,note_on,,1,0,6,,,,,,,,,,,,,,,1,,,78,76
5760,note_on,,31,0,7,,,,,,,,,,,,,,,2,,,73,76
5760,note_on,,31,0,8,,,,,,,,,,,,,,,3,,,69,76
5760,note_on,,0,0,10,,,,,,,,,,,,,,,5,,,69,76
5760,note_on,,0,0,10,,,,,,,,,,,,,,,5,,,73,76
5760,note_on,,0,0,10,,,,,,,,,,,,,,,5,,,54,76
5760,note_on,,13,0,5,,,,,,,,,,,,,,,0,,,78,76
5760,note_on,,16,0,10,,,,,,,,,,,,,,,5,,,66,76
5760,note_on,,31,0,9,,,,,,,,,,,,,,,4,,,54,76
5807,note_on,,47,0,5,,,,,,,,,,,,,,,0,,,78,0
5820,note_on,,13,0,5,,,,,,,,,,,,,,,0,,,81,76
5849,note_on,,89,0,8,,,,,,,,,,,,,,,3,,,69,0
5849,note_on,,89,0,7,,,,,,,,,,,,,,,2,,,73,0
5849,note_on,,89,0,9,,,,,,,,,,,,,,,4,,,54,0
5864,note_on,,104,0,6,,,,,,,,,,,,,,,1,,,78,0
5864,note_on,,104,0,10,,,,,,,,,,,,,,,5,,,66,0
5864,note_on,,0,0,10,,,,,,,,,,,,,,,5,,,69,0
5864,note_on,,0,0,10,,,,,,,,,,,,,,,5,,,54,0
5864,note_on,,0,0,10,,,,,,,,,,,,,,,5,,,73,0
5867,note_on,,47,0,5,,,,,,,,,,,,,,,0,,,81,0
5880,note_on,,0,0,10,,,,,,,,,,,,,,,5,,,73,76
5880,note_on,,16,0,10,,,,,,,,,,,,,,,5,,,57,76
5880,note_on,,0,0,10,,,,,,,,,,,,,,,5,,,78,76
5880,note_on,,13,0,5,,,,,,,,,,,,,,,0,,,78,76
5880,note_on,,31,0,9,,,,,,,,,,,,,,,4,,,57,76
5880,note_on,,16,0,6,,,,,,,,,,,,,,,1,,,73,76
5880,note_on,,0,0,10,,,,,,,,,,,,,,,5,,,69,76
5939,note_on,,59,0,5,,,,,,,,,,,,,,,0,,,78,0
5940,note_on,,1,0,5,,,,,,,,,,,,,,,0,,,77,76
5969,note_on,,89,0,9,,,,,,,,,,,,,,,4,,,57,0
5984,note_on,,0,0,10,,,,,,,,,,,,,,,5,,,78,0
5984,note_on,,104,0,6,,,,,,,,,,,,,,,1,,,73,0
5984,note_on,,104,0,10,,,,,,,,,,,,,,,5,,,57,0
5984,note_on,,0,0,10,,,,,,,,,,,,,,,5,,,73,0
5984,note_on,,0,0,10,,,,,,,,,,,,,,,5,,,69,0
5999,note_on,,59,0,5,,,,,,,,,,,,,,,0,,,77,0
6000,note_on,,16,0,6,,,,,,,,,,,,,,,1,,,78,76
6000,note_on,,0,0,10,,,,,,,,,,,,,,,5,,,71,76
6000,note_on,,151,0,7,,,,,,,,,,,,,,,2,,,71,76
6000,note_on,,151,0,8,,,,,,,,,,,,,,,3,,,66,76
6000,note_on,,16,0,10,,,,,,,,,,,,,,,5,,,62,76
6000,note_on,,0,0,10,,,,,,,,,,,,,,,5,,,50,76
6000,note_on,,0,0,10,,,,,,,,,,,,,,,5,,,66,76
6000,note_on,,31,0,9,,,,,,,,,,,,,,,4,,,50,76
6000,note_on,,1,0,5,,,,,,,,,,,,,,,0,,,78,76
6047,note_on,,47,0,5,,,,,,,,,,,,,,,0,,,78,0
6060,note_on,,13,0,5,,,,,,,,,,,,,,,0,,,83,76
6089,note_on,,89,0,9,,,,,,,,,,,,,,,4,,,50,0
6089,note_on,,89,0,8,,,,,,,,,,,,,,,3,,,66,0
6089,note_on,,89,0,6,,,,,,,,,,,,,,,1,,,78,0
6089,note_on,,89,0,7,,,,,,,,,,,,,,,2,,,71,0
6104,note_on,,0,0,10,,,,,,,,,,,,,,,5,,,71,0
6104,note_on,,104,0,10,,,,,,,,,,,,,,,5,,,62,0
6104,note_on,,0,0,10,,,,,,,,,,,,,,,5,,,50,0
6104,note_on,,0,0,10,,,,,,,,,,,,,,,5,,,66,0
6107,note_on,,47,0,5,,,,,,,,,,,,,,,0,,,83,0
6120,note_on,,13,0,5,,,,,,,,,,,,,,,0,,,78,76
6120,note_on,,31,0,9,,,,,,,,,,,,,,,4,,,59,76
6120,note_on,,31,0,6,,,,,,,,,,,,,,,1,,,71,76
6120,note_on,,16,0,10,,,,,,,,,,,,,,,5,,,74,76
6120,note_on,,0,0,10,,,,,,,,,,,,,,,5,,,71,76
6120,note_on,,0,0,10,,,,,,,,,,,,,,,5,,,59,76
6120,note_on,,0,0,10,,,,,,,,,,,,,,,5,,,78,76
6179,note_on,,59,0,5,,,,,,,,,,,,,,,0,,,78,0
6180,note_on,,1,0,5,,,,,,,,,,,,,,,0,,,77,76
6209,note_on,,89,0,6,,,,,,,,,,,,,,,1,,,71,0
6209,note_on,,89,0,9,,,,,,,,,,,,,,,4,,,59,0
6224,note_on,,104,0,10,,,,,,,,,,,,,,,5,,,74,0
6224,note_on,,0,0,10,,,,,,,,,,,,,,,5,,,71,0
6224,note_on,,0,0,10,,,,,,,,,,,,,,,5,,,59,0
6224,note_on,,0,0,10,,,,,,,,,,,,,,,5,,,78,0
6239,note_on,,59,0,5,,,,,,,,,,,,,,,0,,,77,0
6240,note_on,,1,0,5,,,,,,,,,,,,,,,0,,,78,76
6240,note_on,,151,0,8,,,,,,,,,,,,,,,3,,,69,76
6240,note_on,,151,0,7,,,,,,,,,,,,,,,2,,,69,76
6240,note_on,,31,0,9,,,,,,,,,,,,,,,4,,,49,76
6240,note_on,,16,0,10,,,,,,,,,,,,,,,5,,,69,76
6240,note_on,,0,0,10,,,,,,,,,,,,,,,5,,,66,76
6240,note_on,,0,0,10,,,,,,,,,,,,,,,5,,,61,76
6240,note_on,,31,0,6,,,,,,,,,,,,,,,1,,,78,76
6240,note_on,,0,0,10,,,,,,,,,,,,,,,5,,,49,76
6287,note_on,,47,0,5,,,,,,,,,,,,,,,0,,,78,0
6300,note_on,,13,0,5,,,,,,,,,,,,,,,0,,,85,76
6329,note_on,,89,0,9,,,,,,,,,,,,,,,4,,,49,0
6329,note_on,,89,0,6,,,,,,,,,,,,,,,1,,,78,0
6329,note_on,,89,0,8,,,,,,,,,,,,,,,3,,,69,0
6329,note_on,,89,0,7,,,,,,,,,,,,,,,2,,,69,0
6344,note_on,,104,0,10,,,,,,,,,,,,,,,5,,,69,0
6344,note_on,,0,0,10,,,,,,,,,,,,,,,5,,,49,0
6344,note_on,,0,0,10,,,,,,,,,,,,,,,5,,,66,0
6344,note_on,,0,0,10,,,,,,,,,,,,,,,5,,,61,0
6347,note_on,,47,0,5,,,,,,,,,,,,,,,0,,,85,0
6360,note_on,,31,0,6,,,,,,,,,,,,,,,1,,,69,76
6360,note_on,,13,0,5,,,,,,,,,,,,,,,0,,,78,76
6360,note_on,,0,0,10,,,,,,,,,,,,,,,5,,,81,76
6360,note_on,,31,0,9,,,,,,,,,,,,,,,4,,,61,76
6360,note_on,,16,0,10,,,,,,,,,,,,,,,5,,,61,76
6360,note_on,,0,0,10,,,,,,,,,,,,,,,5,,,73,76
6360,note_on,,0,0,10,,,,,,,,,,,,,,,5,,,78,76
6419,note_on,,59,0,5,,,,,,,,,,,,,,,0,,,78,0
6420,note_on,,1,0,5,,,,,,,,,,,,,,,0,,,77,76
6449,note_on,,89,0,6,,,,,,,,,,,,,,,1,,,69,0
6449,note_on,,89,0,9,,,,,,,,,,,,,,,4,,,61,0
6464,note_on,,0,0,10,,,,,,,,,,,,,,,5,,,81,0
6464,note_on,,0,0,10,,,,,,,,,,,,,,,5,,,78,0
6464,note_on,,104,0,10,,,,,,,,,,,,,,,5,,,61,0
6464,note_on,,0,0,10,,,,,,,,,,,,,,,5,,,73,0
6479,note_on,,59,0,5,,,,,,,,,,,,,,,0,,,77,0
6480,note_on,,0,0,10,,,,,,,,,,,,,,,5,,,66,76
6480,note_on,,0,0,10,,,,,,,,,,,,,,,5,,,47,76
6480,note_on,,1,0,5,,,,,,,,,,,,,,,0,,,78,76
6480,note_on,,0,0,10,,,,,,,,,,,,,,,5,,,68,76
6480,note_on,,31,0,6,,,,,,,,,,,,,,,1,,,78,76
6480,note_on,,151,0,7,,,,,,,,,,,,,,,2,,,68,76
6480,note_on,,151,0,8,,,,,,,,,,,,,,,3,,,71,76
6480,note_on,,31,0,9,,,,,,,,,,,,,,,4,,,47,76
6480,note_on,,16,0,10,,,,,,,,,,,,,,,5,,,59,76
6480,note_on,,0,0,10,,,,,,,,,,,,,,,5,,,62,76
6527,note_on,,47,0,5,,,,,,,,,,,,,,,0,,,78,0
6540,note_on,,13,0,5,,,,,,,,,,,,,,,0,,,86,76
6569,note_on,,89,0,9,,,,,,,,,,,,,,,4,,,47,0
6569,note_on,,89,0,6,,,,,,,,,,,,,,,1,,,78,0
6569,note_on,,89,0,7,,,,,,,,,,,,,,,2,,,68,0
6569,note_on,,89,0,8,,,,,,,,,,,,,,,3,,,71,0
6584,note_on,,104,0,10,,,,,,,,,,,,,,,5,,,59,0
6584,note_on,,0,0,10,,,,,,,,,,,,,,,5,,,68,0
6584,note_on,,0,0,10,,,,,,,,,,,,,,,5,,,66,0
6584,note_on,,0,0,10,,,,,,,,,,,,,,,5,,,47,0
6584,note_on,,0,0,10,,,,,,,,,,,,,,,5,,,62,0
6587,note_on,,47,0,5,,,,,,,,,,,,,,,0,,,86,0
6600,note_on,,16,0,10,,,,,,,,,,,,,,,5,,,62,76
6600,note_on,,0,0,10,,,,,,,,,,,,,,,5,,,74,76
6600,note_on,,0,0,10,,,,,,,,,,,,,,,5,,,78,76
6600,note_on,,0,0,10,,,,,,,,,,,,,,,5,,,81,76
6600,note_on,,13,0,5,,,,,,,,,,,,,,,0,,,78,76
6600,note_on,,31,0,6,,,,,,,,,,,,,,,1,,,68,76
6600,note_on,,31,0,9,,,,,,,,,,,,,,,4,,,62,76
6659,note_on,,59,0,5,,,,,,,,,,,,,,,0,,,78,0
6660,note_on,,1,0,5,,,,,,,,,,,,,,,0,,,77,76
6689,note_on,,89,0,9,,,,,,,,,,,,,,,4,,,62,0
6689,note_on,,89,0,6,,,,,,,,,,,,,,,1,,,68,0
6704,note_on,,0,0,10,,,,,,,,,,,,,,,5,,,81,0
6704,note_on,,0,0,10,,,,,,,,,,,,,,,5,,,74,0
6704,note_on,,104,0,10,,,,,,,,,,,,,,,5,,,62,0
6704,note_on,,0,0,10,,,,,,,,,,,,,,,5,,,78,0
6719,note_on,,59,0,5,,,,,,,,,,,,,,,0,,,77,0
6720,note_on,,151,0,8,,,,,,,,,,,,,,,3,,,68,76
6720,note_on,,31,0,6,,,,,,,,,,,,,,,1,,,78,76
6720,note_on,,31,0,9,,,,,,,,,,,,,,,4,,,59,76
6720,note_on,,1,0,5,,,,,,,,,,,,,,,0,,,78,76
6720,note_on,,151,0,7,,,,,,,,,,,,,,,2,,,71,76
6720,note_on,,16,0,10,,,,,,,,,,,,,,,5,,,78,76
6720,note_on,,0,0,10,,,,,,,,,,,,,,,5,,,71,76
6720,note_on,,0,0,10,,,,,,,,,,,,,,,5,,,80,76
6720,note_on,,0,0,10,,,,,,,,,,,,,,,5,,,59,76
6720,note_on,,0,0,10,,,,,,,,,,,,,,,5,,,74,76
6767,note_on,,47,0,5,,,,,,,,,,,,,,,0,,,78,0
6780,note_on,,13,0,5,,,,,,,,,,,,,,,0,,,86,76
6809,note_on,,89,0,7,,,,,,,,,,,,,,,2,,,71,0
6809,note_on,,89,0,9,,,,,,,,,,,,,,,4,,,59,0
6809,note_on,,89,0,6,,,,,,,,,,,,,,,1,,,78,0
6809,note_on,,89,0,8,,,,,,,,,,,,,,,3,,,68,0
6824,note_on,,0,0,10,,,,,,,,,,,,,,,5,,,59,0
6824,note_on,,0,0,10,,,,,,,,,,,,,,,5,,,74,0
6824,note_on,,0,0,10,,,,,,,,,,,,,,,5,,,71,0
6824,note_on,,0,0,10,,,,,,,,,,,,,,,5,,,80,0
6824,note_on,,104,0,10,,,,,,,,,,,,,,,5,,,78,0
6827,note_on,,47,0,5,,,,,,,,,,,,,,,0,,,86,0
6840,note_on,,0,0,10,,,,,,,,,,,,,,,5,,,77,76
6840,note_on,,0,0,10,,,,,,,,,,,,,,,5,,,68,76
6840,note_on,,0,0,10,,,,,,,,,,,,,,,5,,,71,76
6840,note_on,,16,0,10,,,,,,,,,,,,,,,5,,,56,76
6840,note_on,,31,0,6,,,,,,,,,,,,,,,1,,,77,76
6840,note_on,,31,0,9,,,,,,,,,,,,,,,4,,,56,76
6840,note_on,,13,0,5,,,,,,,,,,,,,,,0,,,85,76
6840,note_on,,31,0,7,,,,,,,,,,,,,,,2,,,74,76
6840,note_on,,31,0,8,,,,,,,,,,,,,,,3,,,71,76
6887,note_on,,47,0,5,,,,,,,,,,,,,,,0,,,85,0
6900,note_on,,13,0,5,,,,,,,,,,,,,,,0,,,83,76
6929,note_on,,89,0,9,,,,,,,,,,,,,,,4,,,56,0
6929,note_on,,89,0,7,,,,,,,,,,,,,,,2,,,74,0
6929,note_on,,89,0,6,,,,,,,,,,,,,,,1,,,77,0
6929,note_on,,89,0,8,,,,,,,,,,,,,,,3,,,71,0
6944,note_on,,0,0,10,,,,,,,,,,,,,,,5,,,71,0
6944,note_on,,0,0,10,,,,,,,,,,,,,,,5,,,68,0
6944,note_on,,104,0,10,,,,,,,,,,,,,,,5,,,56,0
6944,note_on,,0,0,10,,,,,,,,,,,,,,,5,,,77,0
6947,note_on,,47,0,5,,,,,,,,,,,,,,,0,,,83,0
6960,note_on,,16,0,10,,,,,,,,,,,,,,,5,,,73,76
6960,note_on,,0,0,10,,,,,,,,,,,,,,,5,,,57,76
6960,note_on,,0,0,10,,,,,,,,,,,,,,,5,,,69,76
6960,note_on,,0,0,10,,,,,,,,,,,,,,,5,,,78,76
6960,note_on,,31,0,8,,,,,,,,,,,,,,,3,,,69,76
6960,note_on,,13,0,5,,,,,,,,,,,,,,,0,,,85,76
6960,note_on,,31,0,6,,,,,,,,,,,,,,,1,,,78,76
6960,note_on,,31,0,9,,,,,,,,,,,,,,,4,,,57,76
6960,note_on,,31,0,7,,,,,,,,,,,,,,,2,,,73,76
7007,note_on,,47,0,5,,,,,,,,,,,,,,,0,,,85,0
7020,note_on,,13,0,5,,,,,,,,,,,,,,,0,,,81,76
7049,note_on,,89,0,7,,,,,,,,,,,,,,,2,,,73,0
7049,note_on,,89,0,8,,,,,,,,,,,,,,,3,,,69,0
7049,note_on,,89,0,9,,,,,,,,,,,,,,,4,,,57,0
7049,note_on,,89,0,6,,,,,,,,,,,,,,,1,,,78,0
7064,note_on,,104,0,10,,,,,,,,,,,,,,,5,,,73,0
7064,note_on,,0,0,10,,,,,,,,,,,,,,,5,,,78,0
7064,note_on,,0,0,10,,,,,,,,,,,,,,,5,,,69,0
7064,note_on,,0,0,10,,,,,,,,,,,,,,,5,,,57,0
7067,note_on,,47,0,5,,,,,,,,,,,,,,,0,,,81,0
7080,note_on,,0,0,10,,,,,,,,,,,,,,,5,,,74,76
7080,note_on,,31,0,8,,,,,,,,,,,,,,,3,,,74,76
7080,note_on,,31,0,7,,,,,,,,,,,,,,,2,,,71,76
7080,note_on,,13,0,5,,,,,,,,,,,,,,,0,,,80,76
7080,note_on,,16,0,10,,,,,,,,,,,,,,,5,,,59,76
7080,note_on,,0,0,10,,,,,,,,,,,,,,,5,,,80,76
7080,note_on,,0,0,10,,,,,,,,,,,,,,,5,,,71,76
7080,note_on,,31,0,6,,,,,,,,,,,,,,,1,,,80,76
7080,note_on,,31,0,9,,,,,,,,,,,,,,,4,,,59,76
7127,note_on,,47,0,5,,,,,,,,,,,,,,,0,,,80,0
7140,note_on,,13,0,5,,,,,,,,,,,,,,,0,,,78,76
7169,note_on,,89,0,9,,,,,,,,,,,,,,,4,,,59,0
7169,note_on,,89,0,6,,,,,,,,,,,,,,,1,,,80,0
7169,note_on,,89,0,8,,,,,,,,,,,,,,,3,,,74,0
7169,note_on,,89,0,7,,,,,,,,,,,,,,,2,,,71,0
7184,note_on,,0,0,10,,,,,,,,,,,,,,,5,,,71,0
7184,note_on,,0,0,10,,,,,,,,,,,,,,,5,,,74,0
7184,note_on,,0,0,10,,,,,,,,,,,,,,,5,,,80,0
7184,note_on,,104,0,10,,,,,,,,,,,,,,,5,,,59,0
7187,note_on,,47,0,5,,,,,,,,,,,,,,,0,,,78,0
7200,note_on,,13,0,5,,,,,,,,,,,,,,,0,,,81,76
7200,note_on,,31,0,7,,,,,,,,,,,,,,,2,,,69,76
7200,note_on,,31,0,9,,,,,,,,,,,,,,,4,,,61,76
7200,note_on,,31,0,6,,,,,,,,,,,,,,,1,,,73,76
7200,note_on,,31,0,8,,,,,,,,,,,,,,,3,,,73,76
7200,note_on,,0,0,10,,,,,,,,,,,,,,,5,,,61,76
7200,note_on,,0,0,10,,,,,,,,,,,,,,,5,,,81,76
7200,note_on,,0,0,10,,,,,,,,,,,,,,,5,,,78,76
7200,note_on,,16,0,10,,,,,,,,,,,,,,,5,,,73,76
7289,note_on,,89,0,8,,,,,,,,,,,,,,,3,,,73,0
7289,note_on,,89,0,6,,,,,,,,,,,,,,,1,,,73,0
7289,note_on,,89,0,7,,,,,,,,,,,,,,,2,,,69,0
7289,note_on,,89,0,9,,,,,,,,,,,,,,,4,,,61,0
7304,note_on,,0,0,10,,,,,,,,,,,,,,,5,,,81,0
7304,note_on,,104,0,10,,,,,,,,,,,,,,,5,,,73,0
7304,note_on,,0,0,10,,,,,,,,,,,,,,,5,,,78,0
7304,note_on,,0,0,10,,,,,,,,,,,,,,,5,,,61,0
7304,note_on,,104,0,5,,,,,,,,,,,,,,,0,,,81,0
7320,note_on,,31,0,7,,,,,,,,,,,,,,,2,,,73,76
7320,note_on,,31,0,6,,,,,,,,,,,,,,,1,,,77,76
7320,note_on,,31,0,8,,,,,,,,,,,,,,,3,,,71,76
7320,note_on,,31,0,9,,,,,,,,,,,,,,,4,,,49,76
7320,note_on,,16,0,5,,,,,,,,,,,,,,,0,,,80,76
7320,note_on,,0,0,10,,,,,,,,,,,,,,,5,,,65,76
7320,note_on,,0,0,10,,,,,,,,,,,,,,,5,,,68,76
7320,note_on,,16,0,10,,,,,,,,,,,,,,,5,,,61,76
7320,note_on,,0,0,10,,,,,,,,,,,,,,,5,,,49,76
7349,note_on,,29,0,5,,,,,,,,,,,,,,,0,,,80,0
7350,note_on,,1,0,5,,,,,,,,,,,,,,,0,,,81,76
7379,note_on,,29,0,5,,,,,,,,,,,,,,,0,,,81,0
7380,note_on,,1,0,5,,,,,,,,,,,,,,,0,,,78,76
7409,note_on,,89,0,7,,,,,,,,,,,,,,,2,,,73,0
7409,note_on,,89,0,6,,,,,,,,,,,,,,,1,,,77,0
7409,note_on,,89,0,8,,,,,,,,,,,,,,,3,,,71,0
7409,note_on,,29,0,5,,,,,,,,,,,,,,,0,,,78,0
7409,note_on,,89,0,9,,,,,,,,,,,,,,,4,,,49,0
7410,note_on,,1,0,5,,,,,,,,,,,,,,,0,,,80,76
7424,note_on,,104,0,10,,,,,,,,,,,,,,,5,,,61,0
7424,note_on,,0,0,10,,,,,,,,,,,,,,,5,,,49,0
7424,note_on,,0,0,10,,,,,,,,,,,,,,,5,,,68,0
7424,note_on,,0,0,10,,,,,,,,,,,,,,,5,,,65,0
7439,note_on,,29,0,5,,,,,,,,,,,,,,,0,,,80,0
7440,note_on,,1,0,5,,,,,,,,,,,,,,,0,,,78,76
7440,note_on,,31,0,6,,,,,,,,,,,,,,,1,,,78,76
7440,note_on,,31,0,8,,,,,,,,,,,,,,,3,,,69,76
7440,note_on,,31,0,9,,,,,,,,,,,,,,,4,,,54,76
7440,note_on,,0,0,10,,,,,,,,,,,,,,,5,,,66,76
7440,note_on,,0,0,10,,,,,,,,,,,,,,,5,,,73,76
7440,note_on,,0,0,10,,,,,,,,,,,,,,,5,,,54,76
7440,note_on,,16,0,10,,,,,,,,,,,,,,,5,,,69,76
7440,note_on,,31,0,7,,,,,,,,,,,,,,,2,,,73,76
7649,note_on,,209,0,9,,,,,,,,,,,,,,,4,,,54,0
7664,note_on,,224,0,8,,,,,,,,,,,,,,,3,,,69,0
7664,note_on,,224,0,6,,,,,,,,,,,,,,,1,,,78,0
7664,note_on,,224,0,5,,,,,,,,,,,,,,,0,,,78,0
7664,note_on,,224,0,7,,,,,,,,,,,,,,,2,,,73,0
7664,note_on,,224,0,10,,,,,,,,,,,,,,,5,,,69,0
7664,note_on,,0,0,10,,,,,,,,,,,,,,,5,,,54,0
7664,note_on,,0,0,10,,,,,,,,,,,,,,,5,,,73,0
7664,note_on,,0,0,10,,,,,,,,,,,,,,,5,,,66,0
7680,note_on,,16,0,7,,,,,,,,,,,,,,,2,,,78,76
7680,note_on,,16,0,5,,,,,,,,,,,,,,,0,,,83,76
7680,note_on,,31,0,9,,,,,,,,,,,,,,,4,,,47,76
7680,note_on,,16,0,10,,,,,,,,,,,,,,,5,,,62,76
7680,note_on,,0,0,10,,,,,,,,,,,,,,,5,,,66,76
7680,note_on,,0,0,10,,,,,,,,,,,,,,,5,,,59,76
7680,note_on,,16,0,8,,,,,,,,,,,,,,,3,,,74,76
7680,note_on,,0,0,10,,,,,,,,,,,,,,,5,,,47,76
7680,note_on,,16,0,6,,,,,,,,,,,,,,,1,,,83,76
7769,note_on,,89,0,6,,,,,,,,,,,,,,,1,,,83,0
7769,note_on,,89,0,7,,,,,,,,,,,,,,,2,,,78,0
7769,note_on,,89,0,8,,,,,,,,,,,,,,,3,,,74,0
7769,note_on,,89,0,9,,,,,,,,,,,,,,,4,,,47,0
7784,note_on,,104,0,10,,,,,,,,,,,,,,,5,,,62,0
7784,note_on,,0,0,10,,,,,,,,,,,,,,,5,,,66,0
7784,note_on,,0,0,10,,,,,,,,,,,,,,,5,,,47,0
7784,note_on,,0,0,10,,,,,,,,,,,,,,,5,,,59,0
7784,note_on,,104,0,5,,,,,,,,,,,,,,,0,,,83,0
7800,note_on,,16,0,5,,,,,,,,,,,,,,,0,,,86,76
7800,note_on,,0,0,10,,,,,,,,,,,,,,,5,,,62,76
7800,note_on,,0,0,10,,,,,,,,,,,,,,,5,,,47,76
7800,note_on,,16,0,10,,,,,,,,,,,,,,,5,,,59,76
7800,note_on,,0,0,10,,,,,,,,,,,,,,,5,,,66,76
7800,note_on,,31,0,9,,,,,,,,,,,,,,,4,,,47,76
7847,note_on,,47,0,5,,,,,,,,,,,,,,,0,,,86,0
7860,note_on,,13,0,5,,,,,,,,,,,,,,,0,,,83,76
7889,note_on,,89,0,9,,,,,,,,,,,,,,,4,,,47,0
7904,note_on,,104,0,10,,,,,,,,,,,,,,,5,,,59,0
7904,note_on,,0,0,10,,,,,,,,,,,,,,,5,,,62,0
7904,note_on,,0,0,10,,,,,,,,,,,,,,,5,,,47,0
7904,note_on,,0,0,10,,,,,,,,,,,,,,,5,,,66,0
7907,note_on,,47,0,5,,,,,,,,,,,,,,,0,,,83,0
7920,note_on,,13,0,5,,,,,,,,,,,,,,,0,,,78,76
7920,note_on,,151,0,8,,,,,,,,,,,,,,,3,,,71,76
7920,note_on,,31,0,9,,,,,,,,,,,,,,,4,,,50,76
7920,note_on,,0,0,10,,,,,,,,,,,,,,,5,,,50,76
7920,note_on,,151,0,7,,,,,,,,,,,,,,,2,,,74,76
7920,note_on,,16,0,10,,,,,,,,,,,,,,,5,,,62,76
7920,note_on,,0,0,10,,,,,,,,,,,,,,,5,,,71,76
7920,note_on,,0,0,10,,,,,,,,,,,,,,,5,,,66,76
7920,note_on,,151,0,6,,,,,,,,,,,,,,,1,,,78,76
8009,note_on,,89,0,8,,,,,,,,,,,,,,,3,,,71,0
8009,note_on,,89,0,6,,,,,,,,,,,,,,,1,,,78,0
8009,note_on,,89,0,7,,,,,,,,,,,,,,,2,,,74,0
8009,note_on,,89,0,9,,,,,,,,,,,,,,,4,,,50,0
8024,note_on,,104,0,10,,,,,,,,,,,,,,,5,,,62,0
8024,note_on,,0,0,10,,,,,,,,,,,,,,,5,,,71,0
8024,note_on,,0,0,10,,,,,,,,,,,,,,,5,,,50,0
8024,note_on,,0,0,10,,,,,,,,,,,,,,,5,,,66,0
8024,note_on,,104,0,5,,,,,,,,,,,,,,,0,,,78,0
8040,note_on,,16,0,5,,,,,,,,,,,,,,,0,,,83,76
8040,note_on,,0,0,10,,,,,,,,,,,,,,,5,,,47,76
8040,note_on,,0,0,10,,,,,,,,,,,,,,,5,,,59,76
8040,note_on,,0,0,10,,,,,,,,,,,,,,,5,,,66,76
8040,note_on,,31,0,9,,,,,,,,,,,,,,,4,,,47,76
8040,note_on,,16,0,10,,,,,,,,,,,,,,,5,,,62,76
8087,note_on,,47,0,5,,,,,,,,,,,,,,,0,,,83,0
8100,note_on,,13,0,5,,,,,,,,,,,,,,,0,,,78,76
8129,note_on,,89,0,9,,,,,,,,,,,,,,,4,,,47,0
8144,note_on,,0,0,10,,,,,,,,,,,,,,,5,,,66,0
8144,note_on,,0,0,10,,,,,,,,,,,,,,,5,,,47,0
8144,note_on,,104,0,10,,,,,,,,,,,,,,,5,,,62,0
8144,note_on,,0,0,10,,,,,,,,,,,,,,,5,,,59,0
8147,note_on,,47,0,5,,,,,,,,,,,,,,,0,,,78,0
8160,note_on,,151,0,7,,,,,,,,,,,,,,,2,,,71,76
8160,note_on,,0,0,10,,,,,,,,,,,,,,,5,,,74,76
8160,note_on,,0,0,10,,,,,,,,,,,,,,,5,,,66,76
8160,note_on,,16,0,10,,,,,,,,,,,,,,,5,,,71,76
8160,note_on,,0,0,10,,,,,,,,,,,,,,,5,,,54,76
8160,note_on,,13,0,5,,,,,,,,,,,,,,,0,,,74,76
8160,note_on,,31,0,9,,,,,,,,,,,,,,,4,,,54,76
8160,note_on,,151,0,8,,,,,,,,,,,,,,,3,,,66,76
8160,note_on,,151,0,6,,,,,,,,,,,,,,,1,,,74,76
8249,note_on,,89,0,7,,,,,,,,,,,,,,,2,,,71,0
8249,note_on,,89,0,9,,,,,,,,,,,,,,,4,,,54,0
8249,note_on,,89,0,8,,,,,,,,,,,,,,,3,,,66,0
8249,note_on,,89,0,6,,,,,,,,,,,,,,,1,,,74,0
8264,note_on,,104,0,5,,,,,,,,,,,,,,,0,,,74,0
8264,note_on,,104,0,10,,,,,,,,,,,,,,,5,,,71,0
8264,note_on,,0,0,10,,,,,,,,,,,,,,,5,,,74,0
8264,note_on,,0,0,10,,,,,,,,,,,,,,,5,,,54,0
8264,note_on,,0,0,10,,,,,,,,,,,,,,,5,,,66,0
8280,note_on,,31,0,9,,,,,,,,,,,,,,,4,,,50,76
8280,note_on,,16,0,5,,,,,,,,,,,,,,,0,,,78,76
8280,note_on,,0,0,10,,,,,,,,,,,,,,,5,,,71,76
8280,note_on,,0,0,10,,,,,,,,,,,,,,,5,,,62,76
8280,note_on,,0,0,10,,,,,,,,,,,,,,,5,,,50,76
8280,note_on,,16,0,10,,,,,,,,,,,,,,,5,,,66,76
8327,note_on,,47,0,5,,,,,,,,,,,,,,,0,,,78,0
8340,note_on,,13,0,5,,,,,,,,,,,,,,,0,,,74,76
8369,note_on,,89,0,9,,,,,,,,,,,,,,,4,,,50,0
8384,note_on,,0,0,10,,,,,,,,,,,,,,,5,,,62,0
8384,note_on,,0,0,10,,,,,,,,,,,,,,,5,,,50,0
8384,note_on,,104,0,10,,,,,,,,,,,,,,,5,,,66,0
8384,note_on,,0,0,10,,,,,,,,,,,,,,,5,,,71,0
8387,note_on,,47,0,5,,,,,,,,,,,,,,,0,,,74,0
8400,note_on,,0,0,10,,,,,,,,,,,,,,,5,,,74,76
8400,note_on,,31,0,9,,,,,,,,,,,,,,,4,,,59,76
8400,note_on,,151,0,7,,,,,,,,,,,,,,,2,,,66,76
8400,note_on,,0,0,10,,,,,,,,,,,,,,,5,,,67,76
8400,note_on,,0,0,10,,,,,,,,,,,,,,,5,,,71,76
8400,note_on,,151,0,6,,,,,,,,,,,,,,,1,,,71,76
8400,note_on,,151,0,8,,,,,,,,,,,,,,,3,,,62,76
8400,note_on,,16,0,10,,,,,,,,,,,,,,,5,,,59,76
8400,note_on,,13,0,5,,,,,,,,,,,,,,,0,,,71,76
8489,note_on,,89,0,9,,,,,,,,,,,,,,,4,,,59,0
8504,note_on,,0,0,10,,,,,,,,,,,,,,,5,,,67,0
8504,note_on,,0,0,10,,,,,,,,,,,,,,,5,,,74,0
8504,note_on,,0,0,10,,,,,,,,,,,,,,,5,,,71,0
8504,note_on,,104,0,10,,,,,,,,,,,,,,,5,,,59,0
8520,note_on,,0,0,10,,,,,,,,,,,,,,,5,,,66,76
8520,note_on,,0,0,10,,,,,,,,,,,,,,,5,,,54,76
8520,note_on,,0,0,10,,,,,,,,,,,,,,,5,,,73,76
8520,note_on,,16,0,10,,,,,,,,,,,,,,,5,,,69,76
8520,note_on,,31,0,9,,,,,,,,,,,,,,,4,,,54,76
8609,note_on,,89,0,9,,,,,,,,,,,,,,,4,,,54,0
8624,note_on,,224,0,6,,,,,,,,,,,,,,,1,,,71,0
8624,note_on,,0,0,10,,,,,,,,,,,,,,,5,,,54,0
8624,note_on,,224,0,7,,,,,,,,,,,,,,,2,,,66,0
8624,note_on,,0,0,10,,,,,,,,,,,,,,,5,,,66,0
8624,note_on,,104,0,10,,,,,,,,,,,,,,,5,,,69,0
8624,note_on,,224,0,8,,,,,,,,,,,,,,,3,,,62,0
8624,note_on,,0,0,10,,,,,,,,,,,,,,,5,,,73,0
8624,note_on,,224,0,5,,,,,,,,,,,,,,,0,,,71,0
8640,note_on,,16,0,8,,,,,,,,,,,,,,,3,,,62,76
8640,note_on,,16,0,10,,,,,,,,,,,,,,,5,,,66,76
8640,note_on,,16,0,6,,,,,,,,,,,,,,,1,,,71,76
8640,note_on,,31,0,9,,,,,,,,,,,,,,,4,,,50,76
8640,note_on,,16,0,7,,,,,,,,,,,,,,,2,,,66,76
8640,note_on,,0,0,10,,,,,,,,,,,,,,,5,,,50,76
8640,note_on,,0,0,10,,,,,,,,,,,,,,,5,,,62,76
8640,note_on,,0,0,10,,,,,,,,,,,,,,,5,,,71,76
8640,note_on,,16,0,5,,,,,,,,,,,,,,,0,,,66,76
8687,note_on,,47,0,5,,,,,,,,,,,,,,,0,,,66,0
8700,note_on,,13,0,5,,,,,,,,,,,,,,,0,,,71,76
8729,note_on,,89,0,9,,,,,,,,,,,,,,,4,,,50,0
8729,note_on,,89,0,7,,,,,,,,,,,,,,,2,,,66,0
8729,note_on,,89,0,8,,,,,,,,,,,,,,,3,,,62,0
8729,note_on,,89,0,6,,,,,,,,,,,,,,,1,,,71,0
8744,note_on,,104,0,10,,,,,,,,,,,,,,,5,,,66,0
8744,note_on,,0,0,10,,,,,,,,,,,,,,,5,,,71,0
8744,note_on,,0,0,10,,,,,,,,,,,,,,,5,,,50,0
8744,note_on,,0,0,10,,,,,,,,,,,,,,,5,,,62,0
8747,note_on,,47,0,5,,,,,,,,,,,,,,,0,,,71,0
8760,note_on,,31,0,7,,,,,,,,,,,,,,,2,,,71,76
8760,note_on,,31,0,6,,,,,,,,,,,,,,,1,,,74,76
8760,note_on,,31,0,9,,,,,,,,,,,,,,,4,,,47,76
8760,note_on,,31,0,8,,,,,,,,,,,,,,,3,,,66,76
8760,note_on,,13,0,5,,,,,,,,,,,,,,,0,,,74,76
8760,note_on,,0,0,10,,,,,,,,,,,,,,,5,,,59,76
8760,note_on,,0,0,10,,,,,,,,,,,,,,,5,,,47,76
8760,note_on,,0,0,10,,,,,,,,,,,,,,,5,,,62,76
8760,note_on,,16,0,10,,,,,,,,,,,,,,,5,,,66,76
8807,note_on,,47,0,5,,,,,,,,,,,,,,,0,,,74,0
8820,note_on,,13,0,5,,,,,,,,,,,,,,,0,,,71,76
8849,note_on,,89,0,9,,,,,,,,,,,,,,,4,,,47,0
8849,note_on,,89,0,7,,,,,,,,,,,,,,,2,,,71,0
8849,note_on,,89,0,6,,,,,,,,,,,,,,,1,,,74,0
8849,note_on,,89,0,8,,,,,,,,,,,,,,,3,,,66,0
8864,note_on,,0,0,10,,,,,,,,,,,,,,,5,,,62,0
8864,note_on,,0,0,10,,,,,,,,,,,,,,,5,,,47,0
8864,note_on,,0,0,10,,,,,,,,,,,,,,,5,,,59,0
8864,note_on,,104,0,10,,,,,,,,,,,,,,,5,,,66,0
8867,note_on,,47,0,5,,,,,,,,,,,,,,,0,,,71,0
8880,note_on,,13,0,5,,,,,,,,,,,,,,,0,,,73,76
8880,note_on,,31,0,7,,,,,,,,,,,,,,,2,,,71,76
8880,note_on,,31,0,6,,,,,,,,,,,,,,,1,,,73,76
8880,note_on,,31,0,8,,,,,,,,,,,,,,,3,,,67,76
8880,note_on,,31,0,9,,,,,,,,,,,,,,,4,,,52,76
8880,note_on,,0,0,10,,,,,,,,,,,,,,,5,,,52,76
8880,note_on,,0,0,10,,,,,,,,,,,,,,,5,,,64,76
8880,note_on,,0,0,10,,,,,,,,,,,,,,,5,,,73,76
8880,note_on,,0,0,10,,,,,,,,,,,,,,,5,,,67,76
8880,note_on,,16,0,10,,,,,,,,,,,,,,,5,,,71,76
8927,note_on,,47,0,5,,,,,,,,,,,,,,,0,,,73,0
8940,note_on,,13,0,5,,,,,,,,,,,,,,,0,,,71,76
8969,note_on,,89,0,9,,,,,,,,,,,,,,,4,,,52,0
8969,note_on,,89,0,7,,,,,,,,,,,,,,,2,,,71,0
8969,note_on,,89,0,8,,,,,,,,,,,,,,,3,,,67,0
8969,note_on,,89,0,6,,,,,,,,,,,,,,,1,,,73,0
8984,note_on,,104,0,10,,,,,,,,,,,,,,,5,,,71,0
8984,note_on,,0,0,10,,,,,,,,,,,,,,,5,,,52,0
8984,note_on,,0,0,10,,,,,,,,,,,,,,,5,,,64,0
8984,note_on,,0,0,10,,,,,,,,,,,,,,,5,,,73,0
8984,note_on,,0,0,10,,,,,,,,,,,,,,,5,,,67,0
8987,note_on,,47,0,5,,,,,,,,,,,,,,,0,,,71,0
9000,note_on,,16,0,10,,,,,,,,,,,,,,,5,,,49,76
9000,note_on,,31,0,7,,,,,,,,,,,,,,,2,,,71,76
9000,note_on,,0,0,10,,,,,,,,,,,,,,,5,,,67,76
9000,note_on,,0,0,10,,,,,,,,,,,,,,,5,,,64,76
9000,note_on,,13,0,5,,,,,,,,,,,,,,,0,,,73,76
9000,note_on,,0,0,10,,,,,,,,,,,,,,,5,,,61,76
9000,note_on,,31,0,6,,,,,,,,,,,,,,,1,,,73,76
9000,note_on,,31,0,8,,,,,,,,,,,,,,,3,,,64,76
9000,note_on,,31,0,9,,,,,,,,,,,,,,,4,,,49,76
9047,note_on,,47,0,5,,,,,,,,,,,,,,,0,,,73,0
9060,note_on,,13,0,5,,,,,,,,,,,,,,,0,,,71,76
9089,note_on,,89,0,7,,,,,,,,,,,,,,,2,,,71,0
9089,note_on,,89,0,8,,,,,,,,,,,,,,,3,,,64,0
9089,note_on,,89,0,9,,,,,,,,,,,,,,,4,,,49,0
9089,note_on,,89,0,6,,,,,,,,,,,,,,,1,,,73,0
9104,note_on,,0,0,10,,,,,,,,,,,,,,,5,,,64,0
9104,note_on,,0,0,10,,,,,,,,,,,,,,,5,,,61,0
9104,note_on,,0,0,10,,,,,,,,,,,,,,,5,,,67,0
9104,note_on,,104,0,10,,,,,,,,,,,,,,,5,,,49,0
9107,note_on,,47,0,5,,,,,,,,,,,,,,,0,,,71,0
9120,note_on,,0,0,10,,,,,,,,,,,,,,,5,,,66,76
9120,note_on,,13,0,5,,,,,,,,,,,,,,,0,,,70,76
9120,note_on,,31,0,9,,,,,,,,,,,,,,,4,,,54,76
9120,note_on,,0,0,10,,,,,,,,,,,,,,,5,,,70,76
9120,note_on,,31,0,8,,,,,,,,,,,,,,,3,,,66,76
9120,note_on,,0,0,10,,,,,,,,,,,,,,,5,,,54,76
9120,note_on,,16,0,10,,,,,,,,,,,,,,,5,,,73,76
9120,note_on,,31,0,6,,,,,,,,,,,,,,,1,,,73,76
9120,note_on,,31,0,7,,,,,,,,,,,,,,,2,,,70,76
9167,note_on,,47,0,5,,,,,,,,,,,,,,,0,,,70,0
9180,note_on,,13,0,5,,,,,,,,,,,,,,,0,,,73,76
9209,note_on,,89,0,9,,,,,,,,,,,,,,,4,,,54,0
9209,note_on,,89,0,6,,,,,,,,,,,,,,,1,,,73,0
9209,note_on,,89,0,8,,,,,,,,,,,,,,,3,,,66,0
9209,note_on,,89,0,7,,,,,,,,,,,,,,,2,,,70,0
9224,note_on,,104,0,10,,,,,,,,,,,,,,,5,,,73,0
9224,note_on,,0,0,10,,,,,,,,,,,,,,,5,,,54,0
9224,note_on,,0,0,10,,,,,,,,,,,,,,,5,,,70,0
9224,note_on,,0,0,10,,,,,,,,,,,,,,,5,,,66,0
9227,note_on,,47,0,5,,,,,,,,,,,,,,,0,,,73,0
9240,note_on,,31,0,7,,,,,,,,,,,,,,,2,,,70,76
9240,note_on,,13,0,5,,,,,,,,,,,,,,,0,,,76,76
9240,note_on,,31,0,9,,,,,,,,,,,,,,,4,,,42,76
9240,note_on,,31,0,8,,,,,,,,,,,,,,,3,,,66,76
9240,note_on,,0,0,10,,,,,,,,,,,,,,,5,,,54,76
9240,note_on,,0,0,10,,,,,,,,,,,,,,,5,,,42,76
9240,note_on,,16,0,10,,,,,,,,,,,,,,,5,,,58,76
9240,note_on,,31,0,6,,,,,,,,,,,,,,,1,,,76,76
9240,note_on,,0,0,10,,,,,,,,,,,,,,,5,,,61,76
9287,note_on,,47,0,5,,,,,,,,,,,,,,,0,,,76,0
9300,note_on,,13,0,5,,,,,,,,,,,,,,,0,,,73,76
9329,note_on,,89,0,8,,,,,,,,,,,,,,,3,,,66,0
9329,note_on,,89,0,9,,,,,,,,,,,,,,,4,,,42,0
9329,note_on,,89,0,6,,,,,,,,,,,,,,,1,,,76,0
9329,note_on,,89,0,7,,,,,,,,,,,,,,,2,,,70,0
9344,note_on,,104,0,10,,,,,,,,,,,,,,,5,,,58,0
9344,note_on,,0,0,10,,,,,,,,,,,,,,,5,,,61,0
9344,note_on,,0,0,10,,,,,,,,,,,,,,,5,,,54,0
9344,note_on,,0,0,10,,,,,,,,,,,,,,,5,,,42,0
9347,note_on,,47,0,5,,,,,,,,,,,,,,,0,,,73,0
9360,note_on,,13,0,5,,,,,,,,,,,,,,,0,,,74,76
9360,note_on,,31,0,8,,,,,,,,,,,,,,,3,,,66,76
9360,note_on,,16,0,10,,,,,,,,,,,,,,,5,,,47,76
9360,note_on,,0,0,10,,,,,,,,,,,,,,,5,,,66,76
9360,note_on,,0,0,10,,,,,,,,,,,,,,,5,,,62,76
9360,note_on,,31,0,9,,,,,,,,,,,,,,,4,,,47,76
9360,note_on,,31,0,7,,,,,,,,,,,,,,,2,,,71,76
9360,note_on,,31,0,6,,,,,,,,,,,,,,,1,,,74,76
9360,note_on,,0,0,10,,,,,,,,,,,,,,,5,,,59,76
9404,note_on,,0,0,10,,,,,,,,,,,,,,,5,,,66,0
9404,note_on,,0,0,10,,,,,,,,,,,,,,,5,,,59,0
9404,note_on,,44,0,10,,,,,,,,,,,,,,,5,,,47,0
9404,note_on,,44,0,9,,,,,,,,,,,,,,,4,,,47,0
9404,note_on,,0,0,10,,,,,,,,,,,,,,,5,,,62,0
9420,note_on,,16,0,10,,,,,,,,,,,,,,,5,,,49,76
9420,note_on,,0,0,10,,,,,,,,,,,,,,,5,,,67,76
9420,note_on,,0,0,10,,,,,,,,,,,,,,,5,,,61,76
9420,note_on,,16,0,9,,,,,,,,,,,,,,,4,,,49,76
9420,note_on,,0,0,10,,,,,,,,,,,,,,,5,,,64,76
9449,note_on,,89,0,8,,,,,,,,,,,,,,,3,,,66,0
9449,note_on,,89,0,6,,,,,,,,,,,,,,,1,,,74,0
9449,note_on,,89,0,7,,,,,,,,,,,,,,,2,,,71,0
9464,note_on,,0,0,10,,,,,,,,,,,,,,,5,,,64,0
9464,note_on,,0,0,10,,,,,,,,,,,,,,,5,,,61,0
9464,note_on,,0,0,10,,,,,,,,,,,,,,,5,,,67,0
9464,note_on,,44,0,10,,,,,,,,,,,,,,,5,,,49,0
9464,note_on,,104,0,5,,,,,,,,,,,,,,,0,,,74,0
9464,note_on,,44,0,9,,,,,,,,,,,,,,,4,,,49,0
9480,note_on,,16,0,9,,,,,,,,,,,,,,,4,,,50,76
9480,note_on,,31,0,8,,,,,,,,,,,,,,,3,,,62,76
9480,note_on,,31,0,7,,,,,,,,,,,,,,,2,,,66,76
9480,note_on,,0,0,10,,,,,,,,,,,,,,,5,,,69,76
9480,note_on,,31,0,6,,,,,,,,,,,,,,,1,,,71,76
9480,note_on,,16,0,5,,,,,,,,,,,,,,,0,,,71,76
9480,note_on,,16,0,10,,,,,,,,,,,,,,,5,,,62,76
9480,note_on,,0,0,10,,,,,,,,,,,,,,,5,,,50,76
9480,note_on,,0,0,10,,,,,,,,,,,,,,,5,,,66,76
9524,note_on,,0,0,10,,,,,,,,,,,,,,,5,,,69,0
9524,note_on,,0,0,10,,,,,,,,,,,,,,,5,,,66,0
9524,note_on,,0,0,10,,,,,,,,,,,,,,,5,,,50,0
9524,note_on,,44,0,10,,,,,,,,,,,,,,,5,,,62,0
9524,note_on,,44,0,9,,,,,,,,,,,,,,,4,,,50,0
9540,note_on,,0,0,10,,,,,,,,,,,,,,,5,,,61,76
9540,note_on,,0,0,10,,,,,,,,,,,,,,,5,,,64,76
9540,note_on,,0,0,10,,,,,,,,,,,,,,,5,,,67,76
9540,note_on,,16,0,10,,,,,,,,,,,,,,,5,,,49,76
9540,note_on,,16,0,9,,,,,,,,,,,,,,,4,,,49,76
9569,note_on,,89,0,7,,,,,,,,,,,,,,,2,,,66,0
9569,note_on,,89,0,8,,,,,,,,,,,,,,,3,,,62,0
9569,note_on,,89,0,6,,,,,,,,,,,,,,,1,,,71,0
9584,note_on,,0,0,10,,,,,,,,,,,,,,,5,,,64,0
9584,note_on,,104,0,5,,,,,,,,,,,,,,,0,,,71,0
9584,note_on,,0,0,10,,,,,,,,,,,,,,,5,,,67,0
9584,note_on,,44,0,10,,,,,,,,,,,,,,,5,,,49,0
9584,note_on,,0,0,10,,,,,,,,,,,,,,,5,,,61,0
9584,note_on,,44,0,9,,,,,,,,,,,,,,,4,,,49,0
9600,note_on,,0,0,10,,,,,,,,,,,,,,,5,,,47,76
9600,note_on,,0,0,10,,,,,,,,,,,,,,,5,,,66,76
9600,note_on,,0,0,10,,,,,,,,,,,,,,,5,,,62,76
9600,note_on,,16,0,10,,,,,,,,,,,,,,,5,,,59,76
9600,note_on,,31,0,8,,,,,,,,,,,,,,,3,,,74,76
9600,note_on,,31,0,7,,,,,,,,,,,,,,,2,,,78,76
9600,note_on,,16,0,5,,,,,,,,,,,,,,,0,,,83,76
9600,note_on,,16,0,9,,,,,,,,,,,,,,,4,,,47,76
9600,note_on,,31,0,6,,,,,,,,,,,,,,,1,,,83,76
9689,note_on,,89,0,7,,,,,,,,,,,,,,,2,,,78,0
9689,note_on,,89,0,8,,,,,,,,,,,,,,,3,,,74,0
9689,note_on,,89,0,6,,,,,,,,,,,,,,,1,,,83,0
9689,note_on,,89,0,9,,,,,,,,,,,,,,,4,,,47,0
9704,note_on,,0,0,10,,,,,,,,,,,,,,,5,,,62,0
9704,note_on,,0,0,10,,,,,,,,,,,,,,,5,,,66,0
9704,note_on,,0,0,10,,,,,,,,,,,,,,,5,,,47,0
9704,note_on,,104,0,5,,,,,,,,,,,,,,,0,,,83,0
9704,note_on,,104,0,10,,,,,,,,,,,,,,,5,,,59,0
9720,note_on,,16,0,5,,,,,,,,,,,,,,,0,,,86,76
9720,note_on,,31,0,9,,,,,,,,,,,,,,,4,,,47,76
9720,note_on,,16,0,10,,,,,,,,,,,,,,,5,,,47,76
9720,note_on,,0,0,10,,,,,,,,,,,,,,,5,,,66,76
9720,note_on,,0,0,10,,,,,,,,,,,,,,,5,,,59,76
9720,note_on,,0,0,10,,,,,,,,,,,,,,,5,,,62,76
9767,note_on,,47,0,5,,,,,,,,,,,,,,,0,,,86,0
9780,note_on,,13,0,5,,,,,,,,,,,,,,,0,,,83,76
9809,note_on,,89,0,9,,,,,,,,,,,,,,,4,,,47,0
9824,note_on,,0,0,10,,,,,,,,,,,,,,,5,,,62,0
9824,note_on,,0,0,10,,,,,,,,,,,,,,,5,,,59,0
9824,note_on,,104,0,10,,,,,,,,,,,,,,,5,,,47,0
9824,note_on,,0,0,10,,,,,,,,,,,,,,,5,,,66,0
9827,note_on,,47,0,5,,,,,,,,,,,,,,,0,,,83,0
9840,note_on,,16,0,10,,,,,,,,,,,,,,,5,,,71,76
9840,note_on,,0,0,10,,,,,,,,,,,,,,,5,,,66,76
9840,note_on,,0,0,10,,,,,,,,,,,,,,,5,,,62,76
9840,note_on,,0,0,10,,,,,,,,,,,,,,,5,,,50,76
9840,note_on,,151,0,6,,,,,,,,,,,,,,,1,,,78,76
9840,note_on,,31,0,9,,,,,,,,,,,,,,,4,,,50,76
9840,note_on,,13,0,5,,,,,,,,,,,,,,,0,,,78,76
9840,note_on,,151,0,8,,,,,,,,,,,,,,,3,,,71,76
9840,note_on,,151,0,7,,,,,,,,,,,,,,,2,,,74,76
9929,note_on,,89,0,6,,,,,,,,,,,,,,,1,,,78,0
9929,note_on,,89,0,7,,,,,,,,,,,,,,,2,,,74,0
9929,note_on,,89,0,9,,,,,,,,,,,,,,,4,,,50,0
9929,note_on,,89,0,8,,,,,,,,,,,,,,,3,,,71,0
9944,note_on,,104,0,10,,,,,,,,,,,,,,,5,,,71,0
9944,note_on,,0,0,10,,,,,,,,,,,,,,,5,,,50,0
9944,note_on,,0,0,10,,,,,,,,,,,,,,,5,,,66,0
9944,note_on,,0,0,10,,,,,,,,,,,,,,,5,,,62,0
9944,note_on,,104,0,5,,,,,,,,,,,,,,,0,,,78,0
9960,note_on,,16,0,5,,,,,,,,,,,,,,,0,,,83,76
9960,note_on,,0,0,10,,,,,,,,,,,,,,,5,,,66,76
9960,note_on,,16,0,10,,,,,,,,,,,,,,,5,,,47,76
9960,note_on,,0,0,10,,,,,,,,,,,,,,,5,,,62,76
9960,note_on,,31,0,9,,,,,,,,,,,,,,,4,,,47,76
9960,note_on,,0,0,10,,,,,,,,,,,,,,,5,,,59,76
10007,note_on,,47,0,5,,,,,,,,,,,,,,,0,,,83,0
10020,note_on,,13,0,5,,,,,,,,,,,,,,,0,,,78,76
10049,note_on,,89,0,9,,,,,,,,,,,,,,,4,,,47,0
10064,note_on,,104,0,10,,,,,,,,,,,,,,,5,,,47,0
10064,note_on,,0,0,10,,,,,,,,,,,,,,,5,,,59,0
10064,note_on,,0,0,10,,,,,,,,,,,,,,,5,,,66,0
10064,note_on,,0,0,10,,,,,,,,,,,,,,,5,,,62,0
10067,note_on,,47,0,5,,,,,,,,,,,,,,,0,,,78,0
10080,note_on,,0,0,10,,,,,,,,,,,,,,,5,,,74,76
10080,note_on,,31,0,9,,,,,,,,,,,,,,,4,,,54,76
10080,note_on,,13,0,5,,,,,,,,,,,,,,,0,,,74,76
10080,note_on,,151,0,7,,,,,,,,,,,,,,,2,,,71,76
10080,note_on,,0,0,10,,,,,,,,,,,,,,,5,,,54,76
10080,note_on,,0,0,10,,,,,,,,,,,,,,,5,,,71,76
10080,note_on,,151,0,8,,,,,,,,,,,,,,,3,,,66,76
10080,note_on,,16,0,10,,,,,,,,,,,,,,,5,,,66,76
10080,note_on,,151,0,6,,,,,,,,,,,,,,,1,,,74,76
10169,note_on,,89,0,9,,,,,,,,,,,,,,,4,,,54,0
10169,note_on,,89,0,6,,,,,,,,,,,,,,,1,,,74,0
10169,note_on,,89,0,7,,,,,,,,,,,,,,,2,,,71,0
10169,note_on,,89,0,8,,,,,,,,,,,,,,,3,,,66,0
10184,note_on,,104,0,5,,,,,,,,,,,,,,,0,,,74,0
10184,note_on,,104,0,10,,,,,,,,,,,,,,,5,,,66,0
10184,note_on,,0,0,10,,,,,,,,,,,,,,,5,,,71,0
10184,note_on,,0,0,10,,,,,,,,,,,,,,,5,,,74,0
10184,note_on,,0,0,10,,,,,,,,,,,,,,,5,,,54,0
10200,note_on,,16,0,10,,,,,,,,,,,,,,,5,,,69,76
10200,note_on,,0,0,10,,,,,,,,,,,,,,,5,,,66,76
10200,note_on,,0,0,10,,,,,,,,,,,,,,,5,,,62,76
10200,note_on,,16,0,5,,,,,,,,,,,,,,,0,,,78,76
10200,note_on,,31,0,9,,,,,,,,,,,,,,,4,,,50,76
10200,note_on,,0,0,10,,,,,,,,,,,,,,,5,,,50,76
10247,note_on,,47,0,5,,,,,,,,,,,,,,,0,,,78,0
10260,note_on,,13,0,5,,,,,,,,,,,,,,,0,,,74,76
10289,note_on,,89,0,9,,,,,,,,,,,,,,,4,,,50,0
10304,note_on,,104,0,10,,,,,,,,,,,,,,,5,,,69,0
10304,note_on,,0,0,10,,,,,,,,,,,,,,,5,,,66,0
10304,note_on,,0,0,10,,,,,,,,,,,,,,,5,,,50,0
10304,note_on,,0,0,10,,,,,,,,,,,,,,,5,,,62,0
10307,note_on,,47,0,5,,,,,,,,,,,,,,,0,,,74,0
10320,note_on,,151,0,7,,,,,,,,,,,,,,,2,,,66,76
10320,note_on,,151,0,6,,,,,,,,,,,,,,,1,,,71,76
10320,note_on,,16,0,10,,,,,,,,,,,,,,,5,,,78,76
10320,note_on,,13,0,5,,,,,,,,,,,,,,,0,,,71,76
10320,note_on,,151,0,8,,,,,,,,,,,,,,,3,,,62,76
10320,note_on,,31,0,9,,,,,,,,,,,,,,,4,,,59,76
10320,note_on,,0,0,10,,,,,,,,,,,,,,,5,,,74,76
10320,note_on,,0,0,10,,,,,,,,,,,,,,,5,,,59,76
10320,note_on,,0,0,10,,,,,,,,,,,,,,,5,,,71,76
10409,note_on,,89,0,9,,,,,,,,,,,,,,,4,,,59,0
10424,note_on,,0,0,10,,,,,,,,,,,,,,,5,,,74,0
10424,note_on,,104,0,10,,,,,,,,,,,,,,,5,,,78,0
10424,note_on,,0,0,10,,,,,,,,,,,,,,,5,,,71,0
10424,note_on,,0,0,10,,,,,,,,,,,,,,,5,,,59,0
10440,note_on,,0,0,10,,,,,,,,,,,,,,,5,,,69,76
10440,note_on,,31,0,9,,,,,,,,,,,,,,,4,,,54,76
10440,note_on,,16,0,10,,,,,,,,,,,,,,,5,,,54,76
10440,note_on,,0,0,10,,,,,,,,,,,,,,,5,,,73,76
10440,note_on,,0,0,10,,,,,,,,,,,,,,,5,,,66,76
10529,note_on,,89,0,9,,,,,,,,,,,,,,,4,,,54,0
10544,note_on,,224,0,7,,,,,,,,,,,,,,,2,,,66,0
10544,note_on,,224,0,8,,,,,,,,,,,,,,,3,,,62,0
10544,note_on,,224,0,6,,,,,,,,,,,,,,,1,,,71,0
10544,note_on,,0,0,10,,,,,,,,,,,,,,,5,,,66,0
10544,note_on,,0,0,10,,,,,,,,,,,,,,,5,,,69,0
10544,note_on,,224,0,5,,,,,,,,,,,,,,,0,,,71,0
10544,note_on,,0,0,10,,,,,,,,,,,,,,,5,,,73,0
10544,note_on,,104,0,10,,,,,,,,,,,,,,,5,,,54,0
10560,note_on,,31,0,9,,,,,,,,,,,,,,,4,,,59,76
10560,note_on,,16,0,6,,,,,,,,,,,,,,,1,,,74,76
10560,note_on,,0,0,10,,,,,,,,,,,,,,,5,,,71,76
10560,note_on,,16,0,10,,,,,,,,,,,,,,,5,,,78,76
10560,note_on,,16,0,5,,,,,,,,,,,,,,,0,,,74,76
10560,note_on,,0,0,10,,,,,,,,,,,,,,,5,,,59,76
10560,note_on,,16,0,8,,,,,,,,,,,,,,,3,,,71,76
10560,note_on,,16,0,7,,,,,,,,,,,,,,,2,,,66,76
10560,note_on,,0,0,10,,,,,,,,,,,,,,,5,,,74,76
10607,note_on,,47,0,6,,,,,,,,,,,,,,,1,,,74,0
10620,note_on,,13,0,6,,,,,,,,,,,,,,,1,,,73,76
10649,note_on,,89,0,8,,,,,,,,,,,,,,,3,,,71,0
10649,note_on,,89,0,5,,,,,,,,,,,,,,,0,,,74,0
10649,note_on,,89,0,9,,,,,,,,,,,,,,,4,,,59,0
10649,note_on,,89,0,7,,,,,,,,,,,,,,,2,,,66,0
10664,note_on,,0,0,10,,,,,,,,,,,,,,,5,,,59,0
10664,note_on,,104,0,10,,,,,,,,,,,,,,,5,,,78,0
10664,note_on,,0,0,10,,,,,,,,,,,,,,,5,,,74,0
10664,note_on,,0,0,10,,,,,,,,,,,,,,,5,,,71,0
10667,note_on,,47,0,6,,,,,,,,,,,,,,,1,,,73,0
10680,note_on,,0,0,10,,,,,,,,,,,,,,,5,,,62,76
10680,note_on,,0,0,10,,,,,,,,,,,,,,,5,,,78,76
10680,note_on,,16,0,10,,,,,,,,,,,,,,,5,,,81,76
10680,note_on,,0,0,10,,,,,,,,,,,,,,,5,,,74,76
10680,note_on,,31,0,5,,,,,,,,,,,,,,,0,,,74,76
10680,note_on,,31,0,9,,,,,,,,,,,,,,,4,,,62,76
10680,note_on,,31,0,7,,,,,,,,,,,,,,,2,,,71,76
10680,note_on,,31,0,8,,,,,,,,,,,,,,,3,,,66,76
10680,note_on,,13,0,6,,,,,,,,,,,,,,,1,,,74,76
10724,note_on,,0,0,10,,,,,,,,,,,,,,,5,,,62,0
10724,note_on,,0,0,10,,,,,,,,,,,,,,,5,,,78,0
10724,note_on,,0,0,10,,,,,,,,,,,,,,,5,,,74,0
10724,note_on,,44,0,10,,,,,,,,,,,,,,,5,,,81,0
10724,note_on,,44,0,9,,,,,,,,,,,,,,,4,,,62,0
10740,note_on,,16,0,9,,,,,,,,,,,,,,,4,,,59,76
10740,note_on,,0,0,10,,,,,,,,,,,,,,,5,,,59,76
10740,note_on,,16,0,10,,,,,,,,,,,,,,,5,,,78,76
10740,note_on,,0,0,10,,,,,,,,,,,,,,,5,,,74,76
10740,note_on,,0,0,10,,,,,,,,,,,,,,,5,,,71,76
10769,note_on,,89,0,8,,,,,,,,,,,,,,,3,,,66,0
10769,note_on,,89,0,5,,,,,,,,,,,,,,,0,,,74,0
10769,note_on,,89,0,7,,,,,,,,,,,,,,,2,,,71,0
10784,note_on,,0,0,10,,,,,,,,,,,,,,,5,,,74,0
10784,note_on,,44,0,9,,,,,,,,,,,,,,,4,,,59,0
10784,note_on,,0,0,10,,,,,,,,,,,,,,,5,,,59,0
10784,note_on,,0,0,10,,,,,,,,,,,,,,,5,,,71,0
10784,note_on,,44,0,10,,,,,,,,,,,,,,,5,,,78,0
10800,note_on,,0,0,10,,,,,,,,,,,,,,,5,,,56,76
10800,note_on,,31,0,8,,,,,,,,,,,,,,,3,,,71,76
10800,note_on,,31,0,5,,,,,,,,,,,,,,,0,,,74,76
10800,note_on,,31,0,7,,,,,,,,,,,,,,,2,,,64,76
10800,note_on,,16,0,10,,,,,,,,,,,,,,,5,,,76,76
10800,note_on,,0,0,10,,,,,,,,,,,,,,,5,,,74,76
10800,note_on,,16,0,9,,,,,,,,,,,,,,,4,,,56,76
10800,note_on,,0,0,10,,,,,,,,,,,,,,,5,,,68,76
10800,note_on,,0,0,10,,,,,,,,,,,,,,,5,,,71,76
10847,note_on,,167,0,6,,,,,,,,,,,,,,,1,,,74,0
10860,note_on,,13,0,6,,,,,,,,,,,,,,,1,,,73,76
10889,note_on,,89,0,8,,,,,,,,,,,,,,,3,,,71,0
10889,note_on,,89,0,7,,,,,,,,,,,,,,,2,,,64,0
10889,note_on,,89,0,9,,,,,,,,,,,,,,,4,,,56,0
10889,note_on,,89,0,5,,,,,,,,,,,,,,,0,,,74,0
10904,note_on,,104,0,10,,,,,,,,,,,,,,,5,,,76,0
10904,note_on,,0,0,10,,,,,,,,,,,,,,,5,,,56,0
10904,note_on,,0,0,10,,,,,,,,,,,,,,,5,,,71,0
10904,note_on,,0,0,10,,,,,,,,,,,,,,,5,,,68,0
10904,note_on,,0,0,10,,,,,,,,,,,,,,,5,,,74,0
10907,note_on,,47,0,6,,,,,,,,,,,,,,,1,,,73,0
10920,note_on,,31,0,5,,,,,,,,,,,,,,,0,,,74,76
10920,note_on,,31,0,8,,,,,,,,,,,,,,,3,,,68,76
10920,note_on,,0,0,10,,,,,,,,,,,,,,,5,,,59,76
10920,note_on,,31,0,7,,,,,,,,,,,,,,,2,,,71,76
10920,note_on,,0,0,10,,,,,,,,,,,,,,,5,,,74,76
10920,note_on,,0,0,10,,,,,,,,,,,,,,,5,,,71,76
10920,note_on,,13,0,6,,,,,,,,,,,,,,,1,,,74,76
10920,note_on,,16,0,10,,,,,,,,,,,,,,,5,,,78,76
10920,note_on,,31,0,9,,,,,,,,,,,,,,,4,,,59,76
10964,note_on,,44,0,10,,,,,,,,,,,,,,,5,,,78,0
10964,note_on,,0,0,10,,,,,,,,,,,,,,,5,,,59,0
10964,note_on,,0,0,10,,,,,,,,,,,,,,,5,,,74,0
10964,note_on,,0,0,10,,,,,,,,,,,,,,,5,,,71,0
10964,note_on,,44,0,9,,,,,,,,,,,,,,,4,,,59,0
10980,note_on,,16,0,9,,,,,,,,,,,,,,,4,,,56,76
10980,note_on,,0,0,10,,,,,,,,,,,,,,,5,,,74,76
10980,note_on,,0,0,10,,,,,,,,,,,,,,,5,,,71,76
10980,note_on,,0,0,10,,,,,,,,,,,,,,,5,,,76,76
10980,note_on,,16,0,10,,,,,,,,,,,,,,,5,,,56,76
10980,note_on,,0,0,10,,,,,,,,,,,,,,,5,,,68,76
11009,note_on,,89,0,7,,,,,,,,,,,,,,,2,,,71,0
11009,note_on,,89,0,5,,,,,,,,,,,,,,,0,,,74,0
11009,note_on,,89,0,8,,,,,,,,,,,,,,,3,,,68,0
11024,note_on,,44,0,9,,,,,,,,,,,,,,,4,,,56,0
11024,note_on,,44,0,10,,,,,,,,,,,,,,,5,,,56,0
11024,note_on,,0,0,10,,,,,,,,,,,,,,,5,,,76,0
11024,note_on,,0,0,10,,,,,,,,,,,,,,,5,,,74,0
11024,note_on,,0,0,10,,,,,,,,,,,,,,,5,,,71,0
11024,note_on,,0,0,10,,,,,,,,,,,,,,,5,,,68,0
11040,note_on,,0,0,10,,,,,,,,,,,,,,,5,,,74,76
11040,note_on,,31,0,5,,,,,,,,,,,,,,,0,,,83,76
11040,note_on,,16,0,9,,,,,,,,,,,,,,,4,,,52,76
11040,note_on,,31,0,8,,,,,,,,,,,,,,,3,,,71,76
11040,note_on,,0,0,10,,,,,,,,,,,,,,,5,,,71,76
11040,note_on,,31,0,7,,,,,,,,,,,,,,,2,,,68,76
11040,note_on,,0,0,10,,,,,,,,,,,,,,,5,,,64,76
11040,note_on,,0,0,10,,,,,,,,,,,,,,,5,,,68,76
11040,note_on,,16,0,10,,,,,,,,,,,,,,,5,,,52,76
11087,note_on,,167,0,6,,,,,,,,,,,,,,,1,,,74,0
11100,note_on,,13,0,6,,,,,,,,,,,,,,,1,,,79,76
11129,note_on,,89,0,7,,,,,,,,,,,,,,,2,,,68,0
11129,note_on,,89,0,9,,,,,,,,,,,,,,,4,,,52,0
11129,note_on,,89,0,8,,,,,,,,,,,,,,,3,,,71,0
11144,note_on,,104,0,5,,,,,,,,,,,,,,,0,,,83,0
11144,note_on,,0,0,10,,,,,,,,,,,,,,,5,,,74,0
11144,note_on,,0,0,10,,,,,,,,,,,,,,,5,,,71,0
11144,note_on,,0,0,10,,,,,,,,,,,,,,,5,,,68,0
11144,note_on,,0,0,10,,,,,,,,,,,,,,,5,,,64,0
11144,note_on,,104,0,10,,,,,,,,,,,,,,,5,,,52,0
11147,note_on,,47,0,6,,,,,,,,,,,,,,,1,,,79,0
11160,note_on,,16,0,10,,,,,,,,,,,,,,,5,,,68,76
11160,note_on,,0,0,10,,,,,,,,,,,,,,,5,,,56,76
11160,note_on,,0,0,10,,,,,,,,,,,,,,,5,,,74,76
11160,note_on,,0,0,10,,,,,,,,,,,,,,,5,,,71,76
11160,note_on,,31,0,8,,,,,,,,,,,,,,,3,,,64,76
11160,note_on,,31,0,9,,,,,,,,,,,,,,,4,,,56,76
11160,note_on,,16,0,5,,,,,,,,,,,,,,,0,,,74,76
11160,note_on,,13,0,6,,,,,,,,,,,,,,,1,,,74,76
11160,note_on,,31,0,7,,,,,,,,,,,,,,,2,,,71,76
11204,note_on,,0,0,10,,,,,,,,,,,,,,,5,,,71,0
11204,note_on,,44,0,10,,,,,,,,,,,,,,,5,,,68,0
11204,note_on,,0,0,10,,,,,,,,,,,,,,,5,,,56,0
11204,note_on,,0,0,10,,,,,,,,,,,,,,,5,,,74,0
11204,note_on,,44,0,9,,,,,,,,,,,,,,,4,,,56,0
11220,note_on,,16,0,9,,,,,,,,,,,,,,,4,,,52,76
11220,note_on,,0,0,10,,,,,,,,,,,,,,,5,,,74,76
11220,note_on,,0,0,10,,,,,,,,,,,,,,,5,,,68,76
11220,note_on,,0,0,10,,,,,,,,,,,,,,,5,,,52,76
11220,note_on,,0,0,10,,,,,,,,,,,,,,,5,,,71,76
11220,note_on,,16,0,10,,,,,,,,,,,,,,,5,,,64,76
11249,note_on,,89,0,8,,,,,,,,,,,,,,,3,,,64,0
11249,note_on,,89,0,7,,,,,,,,,,,,,,,2,,,71,0
11264,note_on,,0,0,10,,,,,,,,,,,,,,,5,,,68,0
11264,note_on,,104,0,6,,,,,,,,,,,,,,,1,,,74,0
11264,note_on,,44,0,9,,,,,,,,,,,,,,,4,,,52,0
11264,note_on,,0,0,10,,,,,,,,,,,,,,,5,,,74,0
11264,note_on,,104,0,5,,,,,,,,,,,,,,,0,,,74,0
11264,note_on,,0,0,10,,,,,,,,,,,,,,,5,,,71,0
11264,note_on,,0,0,10,,,,,,,,,,,,,,,5,,,52,0
11264,note_on,,44,0,10,,,,,,,,,,,,,,,5,,,64,0
11280,note_on,,16,0,10,,,,,,,,,,,,,,,5,,,69,76
11280,note_on,,0,0,10,,,,,,,,,,,,,,,5,,,57,76
11280,note_on,,0,0,10,,,,,,,,,,,,,,,5,,,64,76
11280,note_on,,0,0,10,,,,,,,,,,,,,,,5,,,74,76
11280,note_on,,16,0,9,,,,,,,,,,,,,,,4,,,57,76
11280,note_on,,31,0,7,,,,,,,,,,,,,,,2,,,69,76
11280,note_on,,31,0,8,,,,,,,,,,,,,,,3,,,64,76
11280,note_on,,16,0,5,,,,,,,,,,,,,,,0,,,74,76
11280,note_on,,16,0,6,,,,,,,,,,,,,,,1,,,74,76
11309,note_on,,29,0,6,,,,,,,,,,,,,,,1,,,74,0
11309,note_on,,29,0,5,,,,,,,,,,,,,,,0,,,74,0
11310,note_on,,1,0,5,,,,,,,,,,,,,,,0,,,76,76
11310,note_on,,1,0,6,,,,,,,,,,,,,,,1,,,76,76
11339,note_on,,29,0,5,,,,,,,,,,,,,,,0,,,76,0
11339,note_on,,29,0,6,,,,,,,,,,,,,,,1,,,76,0
11340,note_on,,1,0,6,,,,,,,,,,,,,,,1,,,73,76
11340,note_on,,1,0,5,,,,,,,,,,,,,,,0,,,73,76
11369,note_on,,29,0,6,,,,,,,,,,,,,,,1,,,73,0
11369,note_on,,89,0,9,,,,,,,,,,,,,,,4,,,57,0
11369,note_on,,89,0,8,,,,,,,,,,,,,,,3,,,64,0
11369,note_on,,89,0,7,,,,,,,,,,,,,,,2,,,69,0
11369,note_on,,29,0,5,,,,,,,,,,,,,,,0,,,73,0
11370,note_on,,1,0,6,,,,,,,,,,,,,,,1,,,74,76
11370,note_on,,1,0,5,,,,,,,,,,,,,,,0,,,74,76
11384,note_on,,0,0,10,,,,,,,,,,,,,,,5,,,64,0
11384,note_on,,0,0,10,,,,,,,,,,,,,,,5,,,57,0
11384,note_on,,104,0,10,,,,,,,,,,,,,,,5,,,69,0
11384,note_on,,0,0,10,,,,,,,,,,,,,,,5,,,74,0
11399,note_on,,29,0,6,,,,,,,,,,,,,,,1,,,74,0
11399,note_on,,29,0,5,,,,,,,,,,,,,,,0,,,74,0
11400,note_on,,1,0,6,,,,,,,,,,,,,,,1,,,73,76
11400,note_on,,31,0,9,,,,,,,,,,,,,,,4,,,61,76
11400,note_on,,31,0,7,,,,,,,,,,,,,,,2,,,64,76
11400,note_on,,31,0,8,,,,,,,,,,,,,,,3,,,69,76
11400,note_on,,0,0,10,,,,,,,,,,,,,,,5,,,76,76
11400,note_on,,0,0,10,,,,,,,,,,,,,,,5,,,81,76
11400,note_on,,0,0,10,,,,,,,,,,,,,,,5,,,61,76
11400,note_on,,16,0,10,,,,,,,,,,,,,,,5,,,73,76
11400,note_on,,1,0,5,,,,,,,,,,,,,,,0,,,73,76
11444,note_on,,0,0,10,,,,,,,,,,,,,,,5,,,76,0
11444,note_on,,0,0,10,,,,,,,,,,,,,,,5,,,81,0
11444,note_on,,0,0,10,,,,,,,,,,,,,,,5,,,61,0
11444,note_on,,44,0,10,,,,,,,,,,,,,,,5,,,73,0
11444,note_on,,44,0,9,,,,,,,,,,,,,,,4,,,61,0
11460,note_on,,16,0,9,,,,,,,,,,,,,,,4,,,57,76
11460,note_on,,0,0,10,,,,,,,,,,,,,,,5,,,57,76
11460,note_on,,0,0,10,,,,,,,,,,,,,,,5,,,69,76
11460,note_on,,0,0,10,,,,,,,,,,,,,,,5,,,64,76
11460,note_on,,16,0,10,,,,,,,,,,,,,,,5,,,74,76
11489,note_on,,89,0,8,,,,,,,,,,,,,,,3,,,69,0
11489,note_on,,89,0,7,,,,,,,,,,,,,,,2,,,64,0
11504,note_on,,0,0,10,,,,,,,,,,,,,,,5,,,64,0
11504,note_on,,104,0,5,,,,,,,,,,,,,,,0,,,73,0
11504,note_on,,104,0,6,,,,,,,,,,,,,,,1,,,73,0
11504,note_on,,44,0,9,,,,,,,,,,,,,,,4,,,57,0
11504,note_on,,0,0,10,,,,,,,,,,,,,,,5,,,57,0
11504,note_on,,0,0,10,,,,,,,,,,,,,,,5,,,69,0
11504,note_on,,44,0,10,,,,,,,,,,,,,,,5,,,74,0
11520,note_on,,0,0,10,,,,,,,,,,,,,,,5,,,78,76
11520,note_on,,16,0,5,,,,,,,,,,,,,,,0,,,78,76
11520,note_on,,0,0,10,,,,,,,,,,,,,,,5,,,62,76
11520,note_on,,16,0,6,,,,,,,,,,,,,,,1,,,78,76
11520,note_on,,0,0,10,,,,,,,,,,,,,,,5,,,74,76
11520,note_on,,16,0,10,,,,,,,,,,,,,,,5,,,81,76
11520,note_on,,31,0,8,,,,,,,,,,,,,,,3,,,66,76
11520,note_on,,31,0,7,,,,,,,,,,,,,,,2,,,69,76
11520,note_on,,16,0,9,,,,,,,,,,,,,,,4,,,62,76
11567,note_on,,47,0,6,,,,,,,,,,,,,,,1,,,78,0
11580,note_on,,13,0,6,,,,,,,,,,,,,,,1,,,77,76
11609,note_on,,89,0,5,,,,,,,,,,,,,,,0,,,78,0
11609,note_on,,89,0,8,,,,,,,,,,,,,,,3,,,66,0
11609,note_on,,89,0,7,,,,,,,,,,,,,,,2,,,69,0
11609,note_on,,89,0,9,,,,,,,,,,,,,,,4,,,62,0
11624,note_on,,0,0,10,,,,,,,,,,,,,,,5,,,74,0
11624,note_on,,0,0,10,,,,,,,,,,,,,,,5,,,62,0
11624,note_on,,104,0,10,,,,,,,,,,,,,,,5,,,81,0
11624,note_on,,0,0,10,,,,,,,,,,,,,,,5,,,78,0
11627,note_on,,47,0,6,,,,,,,,,,,,,,,1,,,77,0
11640,note_on,,13,0,6,,,,,,,,,,,,,,,1,,,78,76
11640,note_on,,31,0,9,,,,,,,,,,,,,,,4,,,66,76
11640,note_on,,31,0,5,,,,,,,,,,,,,,,0,,,78,76
11640,note_on,,16,0,10,,,,,,,,,,,,,,,5,,,78,76
11640,note_on,,0,0,10,,,,,,,,,,,,,,,5,,,66,76
11640,note_on,,0,0,10,,,,,,,,,,,,,,,5,,,85,76
11640,note_on,,0,0,10,,,,,,,,,,,,,,,5,,,81,76
11640,note_on,,31,0,7,,,,,,,,,,,,,,,2,,,74,76
11640,note_on,,31,0,8,,,,,,,,,,,,,,,3,,,69,76
11684,note_on,,44,0,9,,,,,,,,,,,,,,,4,,,66,0
11684,note_on,,0,0,10,,,,,,,,,,,,,,,5,,,81,0
11684,note_on,,0,0,10,,,,,,,,,,,,,,,5,,,66,0
11684,note_on,,0,0,10,,,,,,,,,,,,,,,5,,,85,0
11684,note_on,,44,0,10,,,,,,,,,,,,,,,5,,,78,0
11700,note_on,,16,0,10,,,,,,,,,,,,,,,5,,,78,76
11700,note_on,,0,0,10,,,,,,,,,,,,,,,5,,,81,76
11700,note_on,,0,0,10,,,,,,,,,,,,,,,5,,,74,76
11700,note_on,,0,0,10,,,,,,,,,,,,,,,5,,,62,76
11700,note_on,,16,0,9,,,,,,,,,,,,,,,4,,,62,76
11729,note_on,,89,0,5,,,,,,,,,,,,,,,0,,,78,0
11729,note_on,,89,0,8,,,,,,,,,,,,,,,3,,,69,0
11729,note_on,,89,0,7,,,,,,,,,,,,,,,2,,,74,0
11744,note_on,,44,0,9,,,,,,,,,,,,,,,4,,,62,0
11744,note_on,,0,0,10,,,,,,,,,,,,,,,5,,,62,0
11744,note_on,,0,0,10,,,,,,,,,,,,,,,5,,,74,0
11744,note_on,,0,0,10,,,,,,,,,,,,,,,5,,,81,0
11744,note_on,,44,0,10,,,,,,,,,,,,,,,5,,,78,0
11760,note_on,,31,0,8,,,,,,,,,,,,,,,3,,,74,76
11760,note_on,,16,0,9,,,,,,,,,,,,,,,4,,,59,76
11760,note_on,,31,0,5,,,,,,,,,,,,,,,0,,,78,76
11760,note_on,,31,0,7,,,,,,,,,,,,,,,2,,,68,76
11760,note_on,,0,0,10,,,,,,,,,,,,,,,5,,,80,76
11760,note_on,,0,0,10,,,,,,,,,,,,,,,5,,,78,76
11760,note_on,,0,0,10,,,,,,,,,,,,,,,5,,,74,76
11760,note_on,,0,0,10,,,,,,,,,,,,,,,5,,,59,76
11760,note_on,,16,0,10,,,,,,,,,,,,,,,5,,,71,76
11807,note_on,,167,0,6,,,,,,,,,,,,,,,1,,,78,0
11820,note_on,,13,0,6,,,,,,,,,,,,,,,1,,,77,76
11849,note_on,,89,0,8,,,,,,,,,,,,,,,3,,,74,0
11849,note_on,,89,0,9,,,,,,,,,,,,,,,4,,,59,0
11849,note_on,,89,0,7,,,,,,,,,,,,,,,2,,,68,0
11864,note_on,,0,0,10,,,,,,,,,,,,,,,5,,,74,0
11864,note_on,,104,0,5,,,,,,,,,,,,,,,0,,,78,0
11864,note_on,,0,0,10,,,,,,,,,,,,,,,5,,,80,0
11864,note_on,,0,0,10,,,,,,,,,,,,,,,5,,,78,0
11864,note_on,,0,0,10,,,,,,,,,,,,,,,5,,,59,0
11864,note_on,,104,0,10,,,,,,,,,,,,,,,5,,,71,0
11867,note_on,,47,0,6,,,,,,,,,,,,,,,1,,,77,0
11880,note_on,,31,0,8,,,,,,,,,,,,,,,3,,,71,76
11880,note_on,,16,0,5,,,,,,,,,,,,,,,0,,,78,76
11880,note_on,,0,0,10,,,,,,,,,,,,,,,5,,,74,76
11880,note_on,,0,0,10,,,,,,,,,,,,,,,5,,,81,76
11880,note_on,,31,0,9,,,,,,,,,,,,,,,4,,,62,76
11880,note_on,,13,0,6,,,,,,,,,,,,,,,1,,,78,76
11880,note_on,,16,0,10,,,,,,,,,,,,,,,5,,,78,76
11880,note_on,,31,0,7,,,,,,,,,,,,,,,2,,,74,76
11880,note_on,,0,0,10,,,,,,,,,,,,,,,5,,,62,76
11924,note_on,,44,0,9,,,,,,,,,,,,,,,4,,,62,0
11924,note_on,,0,0,10,,,,,,,,,,,,,,,5,,,62,0
11924,note_on,,0,0,10,,,,,,,,,,,,,,,5,,,74,0
11924,note_on,,44,0,10,,,,,,,,,,,,,,,5,,,78,0
11924,note_on,,0,0,10,,,,,,,,,,,,,,,5,,,81,0
11940,note_on,,0,0,10,,,,,,,,,,,,,,,5,,,59,76
11940,note_on,,0,0,10,,,,,,,,,,,,,,,5,,,74,76
11940,note_on,,0,0,10,,,,,,,,,,,,,,,5,,,71,76
11940,note_on,,16,0,9,,,,,,,,,,,,,,,4,,,59,76
11940,note_on,,0,0,10,,,,,,,,,,,,,,,5,,,80,76
11940,note_on,,16,0,10,,,,,,,,,,,,,,,5,,,78,76
11969,note_on,,89,0,8,,,,,,,,,,,,,,,3,,,71,0
11969,note_on,,89,0,7,,,,,,,,,,,,,,,2,,,74,0
11984,note_on,,44,0,10,,,,,,,,,,,,,,,5,,,78,0
11984,note_on,,44,0,9,,,,,,,,,,,,,,,4,,,59,0
11984,note_on,,0,0,10,,,,,,,,,,,,,,,5,,,74,0
11984,note_on,,0,0,10,,,,,,,,,,,,,,,5,,,71,0
11984,note_on,,104,0,5,,,,,,,,,,,,,,,0,,,78,0
11984,note_on,,0,0,10,,,,,,,,,,,,,,,5,,,80,0
11984,note_on,,0,0,10,,,,,,,,,,,,,,,5,,,59,0
12000,note_on,,0,0,10,,,,,,,,,,,,,,,5,,,56,76
12000,note_on,,16,0,10,,,,,,,,,,,,,,,5,,,68,76
12000,note_on,,16,0,5,,,,,,,,,,,,,,,0,,,86,76
12000,note_on,,31,0,7,,,,,,,,,,,,,,,2,,,71,76
12000,note_on,,0,0,10,,,,,,,,,,,,,,,5,,,78,76
12000,note_on,,16,0,9,,,,,,,,,,,,,,,4,,,56,76
12000,note_on,,31,0,8,,,,,,,,,,,,,,,3,,,74,76
12000,note_on,,0,0,10,,,,,,,,,,,,,,,5,,,71,76
12000,note_on,,0,0,10,,,,,,,,,,,,,,,5,,,74,76
12047,note_on,,167,0,6,,,,,,,,,,,,,,,1,,,78,0
12060,note_on,,13,0,6,,,,,,,,,,,,,,,1,,,86,76
12089,note_on,,89,0,9,,,,,,,,,,,,,,,4,,,56,0
12089,note_on,,89,0,7,,,,,,,,,,,,,,,2,,,71,0
12089,note_on,,89,0,8,,,,,,,,,,,,,,,3,,,74,0
12104,note_on,,104,0,10,,,,,,,,,,,,,,,5,,,68,0
12104,note_on,,0,0,10,,,,,,,,,,,,,,,5,,,71,0
12104,note_on,,0,0,10,,,,,,,,,,,,,,,5,,,74,0
12104,note_on,,104,0,5,,,,,,,,,,,,,,,0,,,86,0
12104,note_on,,0,0,10,,,,,,,,,,,,,,,5,,,78,0
12104,note_on,,0,0,10,,,,,,,,,,,,,,,5,,,56,0
12107,note_on,,47,0,6,,,,,,,,,,,,,,,1,,,86,0
12120,note_on,,13,0,6,,,,,,,,,,,,,,,1,,,78,76
12120,note_on,,31,0,9,,,,,,,,,,,,,,,4,,,59,76
12120,note_on,,31,0,8,,,,,,,,,,,,,,,3,,,68,76
12120,note_on,,16,0,5,,,,,,,,,,,,,,,0,,,78,76
12120,note_on,,0,0,10,,,,,,,,,,,,,,,5,,,59,76
12120,note_on,,0,0,10,,,,,,,,,,,,,,,5,,,74,76
12120,note_on,,0,0,10,,,,,,,,,,,,,,,5,,,78,76
12120,note_on,,16,0,10,,,,,,,,,,,,,,,5,,,71,76
12120,note_on,,31,0,7,,,,,,,,,,,,,,,2,,,74,76
12164,note_on,,44,0,9,,,,,,,,,,,,,,,4,,,59,0
12164,note_on,,0,0,10,,,,,,,,,,,,,,,5,,,74,0
12164,note_on,,0,0,10,,,,,,,,,,,,,,,5,,,59,0
12164,note_on,,0,0,10,,,,,,,,,,,,,,,5,,,78,0
12164,note_on,,44,0,10,,,,,,,,,,,,,,,5,,,71,0
12180,note_on,,0,0,10,,,,,,,,,,,,,,,5,,,56,76
12180,note_on,,16,0,10,,,,,,,,,,,,,,,5,,,71,76
12180,note_on,,0,0,10,,,,,,,,,,,,,,,5,,,68,76
12180,note_on,,0,0,10,,,,,,,,,,,,,,,5,,,78,76
12180,note_on,,16,0,9,,,,,,,,,,,,,,,4,,,56,76
12180,note_on,,0,0,10,,,,,,,,,,,,,,,5,,,74,76
12209,note_on,,89,0,8,,,,,,,,,,,,,,,3,,,68,0
12209,note_on,,89,0,7,,,,,,,,,,,,,,,2,,,74,0
12224,note_on,,104,0,5,,,,,,,,,,,,,,,0,,,78,0
12224,note_on,,104,0,6,,,,,,,,,,,,,,,1,,,78,0
12224,note_on,,44,0,9,,,,,,,,,,,,,,,4,,,56,0
12224,note_on,,0,0,10,,,,,,,,,,,,,,,5,,,74,0
12224,note_on,,0,0,10,,,,,,,,,,,,,,,5,,,68,0
12224,note_on,,0,0,10,,,,,,,,,,,,,,,5,,,56,0
12224,note_on,,44,0,10,,,,,,,,,,,,,,,5,,,71,0
12224,note_on,,0,0,10,,,,,,,,,,,,,,,5,,,78,0
12240,note_on,,31,0,8,,,,,,,,,,,,,,,3,,,68,76
12240,note_on,,16,0,10,,,,,,,,,,,,,,,5,,,80,76
12240,note_on,,0,0,10,,,,,,,,,,,,,,,5,,,78,76
12240,note_on,,0,0,10,,,,,,,,,,,,,,,5,,,73,76
12240,note_on,,0,0,10,,,,,,,,,,,,,,,5,,,61,76
12240,note_on,,31,0,7,,,,,,,,,,,,,,,2,,,73,76
12240,note_on,,16,0,9,,,,,,,,,,,,,,,4,,,61,76
12240,note_on,,16,0,5,,,,,,,,,,,,,,,0,,,78,76
12240,note_on,,16,0,6,,,,,,,,,,,,,,,1,,,78,76
12269,note_on,,29,0,6,,,,,,,,,,,,,,,1,,,78,0
12269,note_on,,29,0,5,,,,,,,,,,,,,,,0,,,78,0
12270,note_on,,1,0,5,,,,,,,,,,,,,,,0,,,79,76
12270,note_on,,1,0,6,,,,,,,,,,,,,,,1,,,79,76
12284,note_on,,0,0,10,,,,,,,,,,,,,,,5,,,73,0
12284,note_on,,0,0,10,,,,,,,,,,,,,,,5,,,61,0
12284,note_on,,44,0,10,,,,,,,,,,,,,,,5,,,80,0
12284,note_on,,44,0,9,,,,,,,,,,,,,,,4,,,61,0
12284,note_on,,0,0,10,,,,,,,,,,,,,,,5,,,78,0
12299,note_on,,29,0,6,,,,,,,,,,,,,,,1,,,79,0
12299,note_on,,29,0,5,,,,,,,,,,,,,,,0,,,79,0
12300,note_on,,1,0,5,,,,,,,,,,,,,,,0,,,77,76
12300,note_on,,0,0,10,,,,,,,,,,,,,,,5,,,62,76
12300,note_on,,0,0,10,,,,,,,,,,,,,,,5,,,74,76
12300,note_on,,16,0,9,,,,,,,,,,,,,,,4,,,62,76
12300,note_on,,16,0,10,,,,,,,,,,,,,,,5,,,81,76
12300,note_on,,0,0,10,,,,,,,,,,,,,,,5,,,78,76
12300,note_on,,1,0,6,,,,,,,,,,,,,,,1,,,77,76
12329,note_on,,29,0,5,,,,,,,,,,,,,,,0,,,77,0
12329,note_on,,29,0,6,,,,,,,,,,,,,,,1,,,77,0
12329,note_on,,89,0,7,,,,,,,,,,,,,,,2,,,73,0
12329,note_on,,89,0,8,,,,,,,,,,,,,,,3,,,68,0
12330,note_on,,1,0,5,,,,,,,,,,,,,,,0,,,78,76
12330,note_on,,1,0,6,,,,,,,,,,,,,,,1,,,78,76
12344,note_on,,44,0,10,,,,,,,,,,,,,,,5,,,81,0
12344,note_on,,0,0,10,,,,,,,,,,,,,,,5,,,62,0
12344,note_on,,0,0,10,,,,,,,,,,,,,,,5,,,74,0
12344,note_on,,0,0,10,,,,,,,,,,,,,,,5,,,78,0
12344,note_on,,44,0,9,,,,,,,,,,,,,,,4,,,62,0
12359,note_on,,29,0,5,,,,,,,,,,,,,,,0,,,78,0
12359,note_on,,29,0,6,,,,,,,,,,,,,,,1,,,78,0
12360,note_on,,31,0,8,,,,,,,,,,,,,,,3,,,73,76
12360,note_on,,31,0,7,,,,,,,,,,,,,,,2,,,68,76
12360,note_on,,16,0,9,,,,,,,,,,,,,,,4,,,61,76
12360,note_on,,1,0,6,,,,,,,,,,,,,,,1,,,77,76
12360,note_on,,16,0,10,,,,,,,,,,,,,,,5,,,61,76
12360,note_on,,0,0,10,,,,,,,,,,,,,,,5,,,80,76
12360,note_on,,0,0,10,,,,,,,,,,,,,,,5,,,73,76
12360,note_on,,0,0,10,,,,,,,,,,,,,,,5,,,77,76
12360,note_on,,1,0,5,,,,,,,,,,,,,,,0,,,77,76
12404,note_on,,0,0,10,,,,,,,,,,,,,,,5,,,80,0
12404,note_on,,44,0,9,,,,,,,,,,,,,,,4,,,61,0
12404,note_on,,44,0,10,,,,,,,,,,,,,,,5,,,61,0
12404,note_on,,0,0,10,,,,,,,,,,,,,,,5,,,73,0
12404,note_on,,0,0,10,,,,,,,,,,,,,,,5,,,77,0
12420,note_on,,0,0,10,,,,,,,,,,,,,,,5,,,74,76
12420,note_on,,16,0,9,,,,,,,,,,,,,,,4,,,59,76
12420,note_on,,16,0,10,,,,,,,,,,,,,,,5,,,78,76
12420,note_on,,0,0,10,,,,,,,,,,,,,,,5,,,59,76
12420,note_on,,0,0,10,,,,,,,,,,,,,,,5,,,71,76
12449,note_on,,89,0,7,,,,,,,,,,,,,,,2,,,68,0
12449,note_on,,89,0,8,,,,,,,,,,,,,,,3,,,73,0
12464,note_on,,0,0,10,,,,,,,,,,,,,,,5,,,74,0
12464,note_on,,0,0,10,,,,,,,,,,,,,,,5,,,59,0
12464,note_on,,0,0,10,,,,,,,,,,,,,,,5,,,71,0
12464,note_on,,104,0,5,,,,,,,,,,,,,,,0,,,77,0
12464,note_on,,104,0,6,,,,,,,,,,,,,,,1,,,77,0
12464,note_on,,44,0,10,,,,,,,,,,,,,,,5,,,78,0
12464,note_on,,44,0,9,,,,,,,,,,,,,,,4,,,59,0
12480,note_on,,31,0,8,,,,,,,,,,,,,,,3,,,66,76
12480,note_on,,16,0,6,,,,,,,,,,,,,,,1,,,78,76
12480,note_on,,0,0,10,,,,,,,,,,,,,,,5,,,69,76
12480,note_on,,16,0,5,,,,,,,,,,,,,,,0,,,73,76
12480,note_on,,31,0,7,,,,,,,,,,,,,,,2,,,73,76
12480,note_on,,16,0,9,,,,,,,,,,,,,,,4,,,57,76
12480,note_on,,0,0,10,,,,,,,,,,,,,,,5,,,73,76
12480,note_on,,16,0,10,,,,,,,,,,,,,,,5,,,57,76
12480,note_on,,0,0,10,,,,,,,,,,,,,,,5,,,78,76
12527,note_on,,47,0,5,,,,,,,,,,,,,,,0,,,73,0
12540,note_on,,13,0,5,,,,,,,,,,,,,,,0,,,78,76
12569,note_on,,89,0,8,,,,,,,,,,,,,,,3,,,66,0
12569,note_on,,89,0,9,,,,,,,,,,,,,,,4,,,57,0
12569,note_on,,89,0,6,,,,,,,,,,,,,,,1,,,78,0
12569,note_on,,89,0,7,,,,,,,,,,,,,,,2,,,73,0
12584,note_on,,0,0,10,,,,,,,,,,,,,,,5,,,73,0
12584,note_on,,0,0,10,,,,,,,,,,,,,,,5,,,69,0
12584,note_on,,0,0,10,,,,,,,,,,,,,,,5,,,78,0
12584,note_on,,104,0,10,,,,,,,,,,,,,,,5,,,57,0
12587,note_on,,47,0,5,,,,,,,,,,,,,,,0,,,78,0
12600,note_on,,13,0,5,,,,,,,,,,,,,,,0,,,81,76
12600,note_on,,31,0,6,,,,,,,,,,,,,,,1,,,81,76
12600,note_on,,0,0,10,,,,,,,,,,,,,,,5,,,69,76
12600,note_on,,0,0,10,,,,,,,,,,,,,,,5,,,54,76
12600,note_on,,0,0,10,,,,,,,,,,,,,,,5,,,66,76
12600,note_on,,31,0,9,,,,,,,,,,,,,,,4,,,54,76
12600,note_on,,31,0,8,,,,,,,,,,,,,,,3,,,73,76
12600,note_on,,16,0,10,,,,,,,,,,,,,,,5,,,73,76
12600,note_on,,31,0,7,,,,,,,,,,,,,,,2,,,78,76
12647,note_on,,47,0,5,,,,,,,,,,,,,,,0,,,81,0
12660,note_on,,13,0,5,,,,,,,,,,,,,,,0,,,78,76
12689,note_on,,89,0,9,,,,,,,,,,,,,,,4,,,54,0
12689,note_on,,89,0,6,,,,,,,,,,,,,,,1,,,81,0
12689,note_on,,89,0,7,,,,,,,,,,,,,,,2,,,78,0
12689,note_on,,89,0,8,,,,,,,,,,,,,,,3,,,73,0
12704,note_on,,0,0,10,,,,,,,,,,,,,,,5,,,66,0
12704,note_on,,0,0,10,,,,,,,,,,,,,,,5,,,54,0
12704,note_on,,104,0,10,,,,,,,,,,,,,,,5,,,73,0
12704,note_on,,0,0,10,,,,,,,,,,,,,,,5,,,69,0
12707,note_on,,47,0,5,,,,,,,,,,,,,,,0,,,78,0
12720,note_on,,13,0,5,,,,,,,,,,,,,,,0,,,80,76
12720,note_on,,31,0,9,,,,,,,,,,,,,,,4,,,59,76
12720,note_on,,0,0,10,,,,,,,,,,,,,,,5,,,78,76
12720,note_on,,31,0,7,,,,,,,,,,,,,,,2,,,78,76
12720,note_on,,31,0,8,,,,,,,,,,,,,,,3,,,74,76
12720,note_on,,16,0,10,,,,,,,,,,,,,,,5,,,59,76
12720,note_on,,31,0,6,,,,,,,,,,,,,,,1,,,80,76
12720,note_on,,0,0,10,,,,,,,,,,,,,,,5,,,71,76
12720,note_on,,0,0,10,,,,,,,,,,,,,,,5,,,80,76
12720,note_on,,0,0,10,,,,,,,,,,,,,,,5,,,74,76
12767,note_on,,47,0,5,,,,,,,,,,,,,,,0,,,80,0
12780,note_on,,13,0,5,,,,,,,,,,,,,,,0,,,78,76
12809,note_on,,89,0,9,,,,,,,,,,,,,,,4,,,59,0
12809,note_on,,89,0,6,,,,,,,,,,,,,,,1,,,80,0
12809,note_on,,89,0,7,,,,,,,,,,,,,,,2,,,78,0
12809,note_on,,89,0,8,,,,,,,,,,,,,,,3,,,74,0
12824,note_on,,0,0,10,,,,,,,,,,,,,,,5,,,80,0
12824,note_on,,0,0,10,,,,,,,,,,,,,,,5,,,78,0
12824,note_on,,0,0,10,,,,,,,,,,,,,,,5,,,71,0
12824,note_on,,104,0,10,,,,,,,,,,,,,,,5,,,59,0
12824,note_on,,0,0,10,,,,,,,,,,,,,,,5,,,74,0
12827,note_on,,47,0,5,,,,,,,,,,,,,,,0,,,78,0
12840,note_on,,0,0,10,,,,,,,,,,,,,,,5,,,56,76
12840,note_on,,0,0,10,,,,,,,,,,,,,,,5,,,68,76
12840,note_on,,0,0,10,,,,,,,,,,,,,,,5,,,74,76
12840,note_on,,31,0,6,,,,,,,,,,,,,,,1,,,80,76
12840,note_on,,31,0,7,,,,,,,,,,,,,,,2,,,78,76
12840,note_on,,31,0,9,,,,,,,,,,,,,,,4,,,56,76
12840,note_on,,16,0,10,,,,,,,,,,,,,,,5,,,71,76
12840,note_on,,31,0,8,,,,,,,,,,,,,,,3,,,74,76
12840,note_on,,13,0,5,,,,,,,,,,,,,,,0,,,80,76
12887,note_on,,47,0,5,,,,,,,,,,,,,,,0,,,80,0
12900,note_on,,13,0,5,,,,,,,,,,,,,,,0,,,78,76
12929,note_on,,89,0,7,,,,,,,,,,,,,,,2,,,78,0
12929,note_on,,89,0,8,,,,,,,,,,,,,,,3,,,74,0
12929,note_on,,89,0,6,,,,,,,,,,,,,,,1,,,80,0
12929,note_on,,89,0,9,,,,,,,,,,,,,,,4,,,56,0
12944,note_on,,0,0,10,,,,,,,,,,,,,,,5,,,56,0
12944,note_on,,104,0,10,,,,,,,,,,,,,,,5,,,71,0
12944,note_on,,0,0,10,,,,,,,,,,,,,,,5,,,74,0
12944,note_on,,0,0,10,,,,,,,,,,,,,,,5,,,68,0
12947,note_on,,47,0,5,,,,,,,,,,,,,,,0,,,78,0
12960,note_on,,31,0,8,,,,,,,,,,,,,,,3,,,73,76
12960,note_on,,31,0,9,,,,,,,,,,,,,,,4,,,61,76
12960,note_on,,31,0,6,,,,,,,,,,,,,,,1,,,80,76
12960,note_on,,16,0,10,,,,,,,,,,,,,,,5,,,80,76
12960,note_on,,0,0,10,,,,,,,,,,,,,,,5,,,61,76
12960,note_on,,0,0,10,,,,,,,,,,,,,,,5,,,83,76
12960,note_on,,0,0,10,,,,,,,,,,,,,,,5,,,73,76
12960,note_on,,0,0,10,,,,,,,,,,,,,,,5,,,77,76
12960,note_on,,31,0,7,,,,,,,,,,,,,,,2,,,77,76
12960,note_on,,13,0,5,,,,,,,,,,,,,,,0,,,77,76
13007,note_on,,47,0,5,,,,,,,,,,,,,,,0,,,77,0
13020,note_on,,13,0,5,,,,,,,,,,,,,,,0,,,80,76
13049,note_on,,89,0,8,,,,,,,,,,,,,,,3,,,73,0
13049,note_on,,89,0,7,,,,,,,,,,,,,,,2,,,77,0
13049,note_on,,89,0,6,,,,,,,,,,,,,,,1,,,80,0
13049,note_on,,89,0,9,,,,,,,,,,,,,,,4,,,61,0
13064,note_on,,0,0,10,,,,,,,,,,,,,,,5,,,77,0
13064,note_on,,0,0,10,,,,,,,,,,,,,,,5,,,73,0
13064,note_on,,0,0,10,,,,,,,,,,,,,,,5,,,83,0
13064,note_on,,104,0,10,,,,,,,,,,,,,,,5,,,80,0
13064,note_on,,0,0,10,,,,,,,,,,,,,,,5,,,61,0
13067,note_on,,47,0,5,,,,,,,,,,,,,,,0,,,80,0
13080,note_on,,31,0,8,,,,,,,,,,,,,,,3,,,73,76
13080,note_on,,31,0,6,,,,,,,,,,,,,,,1,,,83,76
13080,note_on,,31,0,7,,,,,,,,,,,,,,,2,,,77,76
13080,note_on,,0,0,10,,,,,,,,,,,,,,,5,,,68,76
13080,note_on,,0,0,10,,,,,,,,,,,,,,,5,,,49,76
13080,note_on,,0,0,10,,,,,,,,,,,,,,,5,,,61,76
13080,note_on,,0,0,10,,,,,,,,,,,,,,,5,,,71,76
13080,note_on,,31,0,9,,,,,,,,,,,,,,,4,,,49,76
13080,note_on,,13,0,5,,,,,,,,,,,,,,,0,,,83,76
13080,note_on,,16,0,10,,,,,,,,,,,,,,,5,,,65,76
13127,note_on,,47,0,5,,,,,,,,,,,,,,,0,,,83,0
13140,note_on,,13,0,5,,,,,,,,,,,,,,,0,,,80,76
13169,note_on,,89,0,6,,,,,,,,,,,,,,,1,,,83,0
13169,note_on,,89,0,9,,,,,,,,,,,,,,,4,,,49,0
13169,note_on,,89,0,8,,,,,,,,,,,,,,,3,,,73,0
13169,note_on,,89,0,7,,,,,,,,,,,,,,,2,,,77,0
13184,note_on,,0,0,10,,,,,,,,,,,,,,,5,,,71,0
13184,note_on,,0,0,10,,,,,,,,,,,,,,,5,,,61,0
13184,note_on,,0,0,10,,,,,,,,,,,,,,,5,,,49,0
13184,note_on,,0,0,10,,,,,,,,,,,,,,,5,,,68,0
13184,note_on,,104,0,10,,,,,,,,,,,,,,,5,,,65,0
13187,note_on,,47,0,5,,,,,,,,,,,,,,,0,,,80,0
13200,note_on,,31,0,6,,,,,,,,,,,,,,,1,,,81,76
13200,note_on,,16,0,10,,,,,,,,,,,,,,,5,,,73,76
13200,note_on,,31,0,7,,,,,,,,,,,,,,,2,,,78,76
13200,note_on,,13,0,5,,,,,,,,,,,,,,,0,,,81,76
13200,note_on,,31,0,9,,,,,,,,,,,,,,,4,,,54,76
13200,note_on,,31,0,8,,,,,,,,,,,,,,,3,,,61,76
13200,note_on,,0,0,10,,,,,,,,,,,,,,,5,,,69,76
13200,note_on,,0,0,10,,,,,,,,,,,,,,,5,,,54,76
13200,note_on,,0,0,10,,,,,,,,,,,,,,,5,,,66,76
13247,note_on,,47,0,5,,,,,,,,,,,,,,,0,,,81,0
13260,note_on,,13,0,5,,,,,,,,,,,,,,,0,,,80,76
13289,note_on,,89,0,9,,,,,,,,,,,,,,,4,,,54,0
13289,note_on,,89,0,8,,,,,,,,,,,,,,,3,,,61,0
13289,note_on,,89,0,7,,,,,,,,,,,,,,,2,,,78,0
13304,note_on,,104,0,6,,,,,,,,,,,,,,,1,,,81,0
13304,note_on,,104,0,10,,,,,,,,,,,,,,,5,,,73,0
13304,note_on,,0,0,10,,,,,,,,,,,,,,,5,,,69,0
13304,note_on,,0,0,10,,,,,,,,,,,,,,,5,,,54,0
13304,note_on,,0,0,10,,,,,,,,,,,,,,,5,,,66,0
13307,note_on,,47,0,5,,,,,,,,,,,,,,,0,,,80,0
13320,note_on,,31,0,7,,,,,,,,,,,,,,,2,,,69,76
13320,note_on,,0,0,10,,,,,,,,,,,,,,,5,,,42,76
13320,note_on,,13,0,5,,,,,,,,,,,,,,,0,,,81,76
13320,note_on,,0,0,10,,,,,,,,,,,,,,,5,,,54,76
13320,note_on,,0,0,10,,,,,,,,,,,,,,,5,,,57,76
13320,note_on,,31,0,9,,,,,,,,,,,,,,,4,,,42,76
13320,note_on,,16,0,10,,,,,,,,,,,,,,,5,,,61,76
13320,note_on,,31,0,8,,,,,,,,,,,,,,,3,,,73,76
13320,note_on,,16,0,6,,,,,,,,,,,,,,,1,,,78,76
13367,note_on,,47,0,5,,,,,,,,,,,,,,,0,,,81,0
13379,note_on,,59,0,6,,,,,,,,,,,,,,,1,,,78,0
13380,note_on,,1,0,6,,,,,,,,,,,,,,,1,,,77,76
13380,note_on,,13,0,5,,,,,,,,,,,,,,,0,,,80,76
13409,note_on,,89,0,9,,,,,,,,,,,,,,,4,,,42,0
13409,note_on,,89,0,7,,,,,,,,,,,,,,,2,,,69,0
13409,note_on,,89,0,8,,,,,,,,,,,,,,,3,,,73,0
13424,note_on,,104,0,10,,,,,,,,,,,,,,,5,,,61,0
13424,note_on,,0,0,10,,,,,,,,,,,,,,,5,,,57,0
13424,note_on,,0,0,10,,,,,,,,,,,,,,,5,,,54,0
13424,note_on,,0,0,10,,,,,,,,,,,,,,,5,,,42,0
13427,note_on,,47,0,5,,,,,,,,,,,,,,,0,,,80,0
13439,note_on,,59,0,6,,,,,,,,,,,,,,,1,,,77,0
13440,note_on,,0,0,10,,,,,,,,,,,,,,,5,,,69,76
13440,note_on,,31,0,8,,,,,,,,,,,,,,,3,,,69,76
13440,note_on,,31,0,9,,,,,,,,,,,,,,,4,,,54,76
13440,note_on,,16,0,10,,,,,,,,,,,,,,,5,,,54,76
13440,note_on,,0,0,10,,,,,,,,,,,,,,,5,,,66,76
13440,note_on,,1,0,6,,,,,,,,,,,,,,,1,,,78,76
13440,note_on,,13,0,5,,,,,,,,,,,,,,,0,,,78,76
13440,note_on,,31,0,7,,,,,,,,,,,,,,,2,,,73,76
13440,note_on,,0,0,10,,,,,,,,,,,,,,,5,,,73,76
13487,note_on,,47,0,5,,,,,,,,,,,,,,,0,,,78,0
13500,note_on,,13,0,5,,,,,,,,,,,,,,,0,,,81,76
13529,note_on,,89,0,8,,,,,,,,,,,,,,,3,,,69,0
13529,note_on,,89,0,7,,,,,,,,,,,,,,,2,,,73,0
13529,note_on,,89,0,9,,,,,,,,,,,,,,,4,,,54,0
13544,note_on,,104,0,6,,,,,,,,,,,,,,,1,,,78,0
13544,note_on,,0,0,10,,,,,,,,,,,,,,,5,,,69,0
13544,note_on,,0,0,10,,,,,,,,,,,,,,,5,,,73,0
13544,note_on,,0,0,10,,,,,,,,,,,,,,,5,,,66,0
13544,note_on,,104,0,10,,,,,,,,,,,,,,,5,,,54,0
13547,note_on,,47,0,5,,,,,,,,,,,,,,,0,,,81,0
13560,note_on,,13,0,5,,,,,,,,,,,,,,,0,,,78,76
13560,note_on,,16,0,6,,,,,,,,,,,,,,,1,,,73,76
13560,note_on,,16,0,10,,,,,,,,,,,,,,,5,,,57,76
13560,note_on,,0,0,10,,,,,,,,,,,,,,,5,,,69,76
13560,note_on,,0,0,10,,,,,,,,,,,,,,,5,,,78,76
13560,note_on,,0,0,10,,,,,,,,,,,,,,,5,,,73,76
13560,note_on,,31,0,9,,,,,,,,,,,,,,,4,,,57,76
13619,note_on,,59,0,5,,,,,,,,,,,,,,,0,,,78,0
13620,note_on,,1,0,5,,,,,,,,,,,,,,,0,,,77,76
13649,note_on,,89,0,9,,,,,,,,,,,,,,,4,,,57,0
13664,note_on,,104,0,6,,,,,,,,,,,,,,,1,,,73,0
13664,note_on,,0,0,10,,,,,,,,,,,,,,,5,,,73,0
13664,note_on,,0,0,10,,,,,,,,,,,,,,,5,,,78,0
13664,note_on,,0,0,10,,,,,,,,,,,,,,,5,,,69,0
13664,note_on,,104,0,10,,,,,,,,,,,,,,,5,,,57,0
13679,note_on,,59,0,5,,,,,,,,,,,,,,,0,,,77,0
13680,note_on,,16,0,10,,,,,,,,,,,,,,,5,,,66,76
13680,note_on,,0,0,10,,,,,,,,,,,,,,,5,,,50,76
13680,note_on,,0,0,10,,,,,,,,,,,,,,,5,,,62,76
13680,note_on,,0,0,10,,,,,,,,,,,,,,,5,,,71,76
13680,note_on,,16,0,6,,,,,,,,,,,,,,,1,,,78,76
13680,note_on,,1,0,5,,,,,,,,,,,,,,,0,,,78,76
13680,note_on,,31,0,9,,,,,,,,,,,,,,,4,,,50,76
13680,note_on,,151,0,7,,,,,,,,,,,,,,,2,,,71,76
13680,note_on,,151,0,8,,,,,,,,,,,,,,,3,,,66,76
13727,note_on,,47,0,5,,,,,,,,,,,,,,,0,,,78,0
13740,note_on,,13,0,5,,,,,,,,,,,,,,,0,,,83,76
13769,note_on,,89,0,6,,,,,,,,,,,,,,,1,,,78,0
13769,note_on,,89,0,8,,,,,,,,,,,,,,,3,,,66,0
13769,note_on,,89,0,7,,,,,,,,,,,,,,,2,,,71,0
13769,note_on,,89,0,9,,,,,,,,,,,,,,,4,,,50,0
13784,note_on,,104,0,10,,,,,,,,,,,,,,,5,,,66,0
13784,note_on,,0,0,10,,,,,,,,,,,,,,,5,,,62,0
13784,note_on,,0,0,10,,,,,,,,,,,,,,,5,,,71,0
13784,note_on,,0,0,10,,,,,,,,,,,,,,,5,,,50,0
13787,note_on,,47,0,5,,,,,,,,,,,,,,,0,,,83,0
13800,note_on,,16,0,10,,,,,,,,,,,,,,,5,,,71,76
13800,note_on,,31,0,6,,,,,,,,,,,,,,,1,,,71,76
13800,note_on,,31,0,9,,,,,,,,,,,,,,,4,,,59,76
13800,note_on,,0,0,10,,,,,,,,,,,,,,,5,,,78,76
13800,note_on,,0,0,10,,,,,,,,,,,,,,,5,,,74,76
13800,note_on,,0,0,10,,,,,,,,,,,,,,,5,,,59,76
13800,note_on,,13,0,5,,,,,,,,,,,,,,,0,,,78,76
13859,note_on,,59,0,5,,,,,,,,,,,,,,,0,,,78,0
13860,note_on,,1,0,5,,,,,,,,,,,,,,,0,,,77,76
13889,note_on,,89,0,6,,,,,,,,,,,,,,,1,,,71,0
13889,note_on,,89,0,9,,,,,,,,,,,,,,,4,,,59,0
13904,note_on,,0,0,10,,,,,,,,,,,,,,,5,,,78,0
13904,note_on,,0,0,10,,,,,,,,,,,,,,,5,,,74,0
13904,note_on,,0,0,10,,,,,,,,,,,,,,,5,,,59,0
13904,note_on,,104,0,10,,,,,,,,,,,,,,,5,,,71,0
13919,note_on,,59,0,5,,,,,,,,,,,,,,,0,,,77,0
13920,note_on,,1,0,5,,,,,,,,,,,,,,,0,,,78,76
13920,note_on,,31,0,6,,,,,,,,,,,,,,,1,,,78,76
13920,note_on,,151,0,7,,,,,,,,,,,,,,,2,,,69,76
13920,note_on,,16,0,10,,,,,,,,,,,,,,,5,,,61,76
13920,note_on,,0,0,10,,,,,,,,,,,,,,,5,,,49,76
13920,note_on,,0,0,10,,,,,,,,,,,,,,,5,,,69,76
13920,note_on,,0,0,10,,,,,,,,,,,,,,,5,,,66,76
13920,note_on,,151,0,8,,,,,,,,,,,,,,,3,,,69,76
13920,note_on,,31,0,9,,,,,,,,,,,,,,,4,,,49,76
13967,note_on,,47,0,5,,,,,,,,,,,,,,,0,,,78,0
13980,note_on,,13,0,5,,,,,,,,,,,,,,,0,,,85,76
14009,note_on,,89,0,8,,,,,,,,,,,,,,,3,,,69,0
14009,note_on,,89,0,6,,,,,,,,,,,,,,,1,,,78,0
14009,note_on,,89,0,9,,,,,,,,,,,,,,,4,,,49,0
14009,note_on,,89,0,7,,,,,,,,,,,,,,,2,,,69,0
14024,note_on,,104,0,10,,,,,,,,,,,,,,,5,,,61,0
14024,note_on,,0,0,10,,,,,,,,,,,,,,,5,,,49,0
14024,note_on,,0,0,10,,,,,,,,,,,,,,,5,,,69,0
14024,note_on,,0,0,10,,,,,,,,,,,,,,,5,,,66,0
14027,note_on,,47,0,5,,,,,,,,,,,,,,,0,,,85,0
14040,note_on,,16,0,10,,,,,,,,,,,,,,,5,,,78,76
14040,note_on,,13,0,5,,,,,,,,,,,,,,,0,,,78,76
14040,note_on,,31,0,6,,,,,,,,,,,,,,,1,,,69,76
14040,note_on,,31,0,9,,,,,,,,,,,,,,,4,,,61,76
14040,note_on,,0,0,10,,,,,,,,,,,,,,,5,,,61,76
14040,note_on,,0,0,10,,,,,,,,,,,,,,,5,,,73,76
14040,note_on,,0,0,10,,,,,,,,,,,,,,,5,,,81,76
14099,note_on,,59,0,5,,,,,,,,,,,,,,,0,,,78,0
14100,note_on,,1,0,5,,,,,,,,,,,,,,,0,,,77,76
14129,note_on,,89,0,9,,,,,,,,,,,,,,,4,,,61,0
14129,note_on,,89,0,6,,,,,,,,,,,,,,,1,,,69,0
14144,note_on,,104,0,10,,,,,,,,,,,,,,,5,,,78,0
14144,note_on,,0,0,10,,,,,,,,,,,,,,,5,,,61,0
14144,note_on,,0,0,10,,,,,,,,,,,,,,,5,,,73,0
14144,note_on,,0,0,10,,,,,,,,,,,,,,,5,,,81,0
14159,note_on,,59,0,5,,,,,,,,,,,,,,,0,,,77,0
14160,note_on,,16,0,10,,,,,,,,,,,,,,,5,,,59,76
14160,note_on,,0,0,10,,,,,,,,,,,,,,,5,,,62,76
14160,note_on,,0,0,10,,,,,,,,,,,,,,,5,,,47,76
14160,note_on,,0,0,10,,,,,,,,,,,,,,,5,,,66,76
14160,note_on,,0,0,10,,,,,,,,,,,,,,,5,,,68,76
14160,note_on,,31,0,6,,,,,,,,,,,,,,,1,,,78,76
14160,note_on,,31,0,9,,,,,,,,,,,,,,,4,,,47,76
14160,note_on,,151,0,8,,,,,,,,,,,,,,,3,,,71,76
14160,note_on,,1,0,5,,,,,,,,,,,,,,,0,,,78,76
14160,note_on,,151,0,7,,,,,,,,,,,,,,,2,,,68,76
14207,note_on,,47,0,5,,,,,,,,,,,,,,,0,,,78,0
14220,note_on,,13,0,5,,,,,,,,,,,,,,,0,,,86,76
14249,note_on,,89,0,8,,,,,,,,,,,,,,,3,,,71,0
14249,note_on,,89,0,7,,,,,,,,,,,,,,,2,,,68,0
14249,note_on,,89,0,9,,,,,,,,,,,,,,,4,,,47,0
14249,note_on,,89,0,6,,,,,,,,,,,,,,,1,,,78,0
14264,note_on,,0,0,10,,,,,,,,,,,,,,,5,,,66,0
14264,note_on,,104,0,10,,,,,,,,,,,,,,,5,,,59,0
14264,note_on,,0,0,10,,,,,,,,,,,,,,,5,,,62,0
14264,note_on,,0,0,10,,,,,,,,,,,,,,,5,,,47,0
14264,note_on,,0,0,10,,,,,,,,,,,,,,,5,,,68,0
14267,note_on,,47,0,5,,,,,,,,,,,,,,,0,,,86,0
14280,note_on,,0,0,10,,,,,,,,,,,,,,,5,,,78,76
14280,note_on,,16,0,10,,,,,,,,,,,,,,,5,,,74,76
14280,note_on,,0,0,10,,,,,,,,,,,,,,,5,,,62,76
14280,note_on,,31,0,6,,,,,,,,,,,,,,,1,,,68,76
14280,note_on,,31,0,9,,,,,,,,,,,,,,,4,,,62,76
14280,note_on,,13,0,5,,,,,,,,,,,,,,,0,,,78,76
14280,note_on,,0,0,10,,,,,,,,,,,,,,,5,,,81,76
14339,note_on,,59,0,5,,,,,,,,,,,,,,,0,,,78,0
14340,note_on,,1,0,5,,,,,,,,,,,,,,,0,,,77,76
14369,note_on,,89,0,6,,,,,,,,,,,,,,,1,,,68,0
14369,note_on,,89,0,9,,,,,,,,,,,,,,,4,,,62,0
14384,note_on,,0,0,10,,,,,,,,,,,,,,,5,,,62,0
14384,note_on,,0,0,10,,,,,,,,,,,,,,,5,,,78,0
14384,note_on,,104,0,10,,,,,,,,,,,,,,,5,,,74,0
14384,note_on,,0,0,10,,,,,,,,,,,,,,,5,,,81,0
14399,note_on,,59,0,5,,,,,,,,,,,,,,,0,,,77,0
14400,note_on,,0,0,10,,,,,,,,,,,,,,,5,,,74,76
14400,note_on,,1,0,5,,,,,,,,,,,,,,,0,,,78,76
14400,note_on,,16,0,10,,,,,,,,,,,,,,,5,,,71,76
14400,note_on,,0,0,10,,,,,,,,,,,,,,,5,,,80,76
14400,note_on,,31,0,9,,,,,,,,,,,,,,,4,,,59,76
14400,note_on,,0,0,10,,,,,,,,,,,,,,,5,,,59,76
14400,note_on,,151,0,8,,,,,,,,,,,,,,,3,,,68,76
14400,note_on,,0,0,10,,,,,,,,,,,,,,,5,,,78,76
14400,note_on,,31,0,6,,,,,,,,,,,,,,,1,,,78,76
14400,note_on,,151,0,7,,,,,,,,,,,,,,,2,,,71,76
14447,note_on,,47,0,5,,,,,,,,,,,,,,,0,,,78,0
14460,note_on,,13,0,5,,,,,,,,,,,,,,,0,,,86,76
14489,note_on,,89,0,9,,,,,,,,,,,,,,,4,,,59,0
14489,note_on,,89,0,7,,,,,,,,,,,,,,,2,,,71,0
14489,note_on,,89,0,8,,,,,,,,,,,,,,,3,,,68,0
14489,note_on,,89,0,6,,,,,,,,,,,,,,,1,,,78,0
14504,note_on,,0,0,10,,,,,,,,,,,,,,,5,,,78,0
14504,note_on,,0,0,10,,,,,,,,,,,,,,,5,,,74,0
14504,note_on,,104,0,10,,,,,,,,,,,,,,,5,,,71,0
14504,note_on,,0,0,10,,,,,,,,,,,,,,,5,,,80,0
14504,note_on,,0,0,10,,,,,,,,,,,,,,,5,,,59,0
14507,note_on,,47,0,5,,,,,,,,,,,,,,,0,,,86,0
14520,note_on,,0,0,10,,,,,,,,,,,,,,,5,,,71,76
14520,note_on,,13,0,5,,,,,,,,,,,,,,,0,,,85,76
14520,note_on,,0,0,10,,,,,,,,,,,,,,,5,,,68,76
14520,note_on,,31,0,6,,,,,,,,,,,,,,,1,,,77,76
14520,note_on,,31,0,7,,,,,,,,,,,,,,,2,,,74,76
14520,note_on,,0,0,10,,,,,,,,,,,,,,,5,,,77,76
14520,note_on,,31,0,8,,,,,,,,,,,,,,,3,,,71,76
14520,note_on,,31,0,9,,,,,,,,,,,,,,,4,,,56,76
14520,note_on,,16,0,10,,,,,,,,,,,,,,,5,,,56,76
14567,note_on,,47,0,5,,,,,,,,,,,,,,,0,,,85,0
14580,note_on,,13,0,5,,,,,,,,,,,,,,,0,,,83,76
14609,note_on,,89,0,9,,,,,,,,,,,,,,,4,,,56,0
14609,note_on,,89,0,8,,,,,,,,,,,,,,,3,,,71,0
14609,note_on,,89,0,6,,,,,,,,,,,,,,,1,,,77,0
14609,note_on,,89,0,7,,,,,,,,,,,,,,,2,,,74,0
14624,note_on,,0,0,10,,,,,,,,,,,,,,,5,,,77,0
14624,note_on,,104,0,10,,,,,,,,,,,,,,,5,,,56,0
14624,note_on,,0,0,10,,,,,,,,,,,,,,,5,,,68,0
14624,note_on,,0,0,10,,,,,,,,,,,,,,,5,,,71,0
14627,note_on,,47,0,5,,,,,,,,,,,,,,,0,,,83,0
14640,note_on,,0,0,10,,,,,,,,,,,,,,,5,,,73,76
14640,note_on,,0,0,10,,,,,,,,,,,,,,,5,,,57,76
14640,note_on,,0,0,10,,,,,,,,,,,,,,,5,,,78,76
14640,note_on,,31,0,9,,,,,,,,,,,,,,,4,,,57,76
14640,note_on,,31,0,7,,,,,,,,,,,,,,,2,,,73,76
14640,note_on,,31,0,6,,,,,,,,,,,,,,,1,,,78,76
14640,note_on,,31,0,8,,,,,,,,,,,,,,,3,,,69,76
14640,note_on,,13,0,5,,,,,,,,,,,,,,,0,,,85,76
14640,note_on,,16,0,10,,,,,,,,,,,,,,,5,,,69,76
14687,note_on,,47,0,5,,,,,,,,,,,,,,,0,,,85,0
14700,note_on,,13,0,5,,,,,,,,,,,,,,,0,,,81,76
14729,note_on,,89,0,9,,,,,,,,,,,,,,,4,,,57,0
14729,note_on,,89,0,6,,,,,,,,,,,,,,,1,,,78,0
14729,note_on,,89,0,7,,,,,,,,,,,,,,,2,,,73,0
14729,note_on,,89,0,8,,,,,,,,,,,,,,,3,,,69,0
14744,note_on,,104,0,10,,,,,,,,,,,,,,,5,,,69,0
14744,note_on,,0,0,10,,,,,,,,,,,,,,,5,,,73,0
14744,note_on,,0,0,10,,,,,,,,,,,,,,,5,,,57,0
14744,note_on,,0,0,10,,,,,,,,,,,,,,,5,,,78,0
14747,note_on,,47,0,5,,,,,,,,,,,,,,,0,,,81,0
14760,note_on,,0,0,10,,,,,,,,,,,,,,,5,,,74,76
14760,note_on,,31,0,8,,,,,,,,,,,,,,,3,,,74,76
14760,note_on,,31,0,6,,,,,,,,,,,,,,,1,,,80,76
14760,note_on,,13,0,5,,,,,,,,,,,,,,,0,,,80,76
14760,note_on,,0,0,10,,,,,,,,,,,,,,,5,,,80,76
14760,note_on,,0,0,10,,,,,,,,,,,,,,,5,,,71,76
14760,note_on,,31,0,7,,,,,,,,,,,,,,,2,,,71,76
14760,note_on,,31,0,9,,,,,,,,,,,,,,,4,,,59,76
14760,note_on,,16,0,10,,,,,,,,,,,,,,,5,,,59,76
14807,note_on,,47,0,5,,,,,,,,,,,,,,,0,,,80,0
14820,note_on,,13,0,5,,,,,,,,,,,,,,,0,,,78,76
14849,note_on,,89,0,7,,,,,,,,,,,,,,,2,,,71,0
14849,note_on,,89,0,6,,,,,,,,,,,,,,,1,,,80,0
14849,note_on,,89,0,9,,,,,,,,,,,,,,,4,,,59,0
14849,note_on,,89,0,8,,,,,,,,,,,,,,,3,,,74,0
14864,note_on,,104,0,10,,,,,,,,,,,,,,,5,,,59,0
14864,note_on,,0,0,10,,,,,,,,,,,,,,,5,,,74,0
14864,note_on,,0,0,10,,,,,,,,,,,,,,,5,,,71,0
14864,note_on,,0,0,10,,,,,,,,,,,,,,,5,,,80,0
14867,note_on,,47,0,5,,,,,,,,,,,,,,,0,,,78,0
14880,note_on,,0,0,10,,,,,,,,,,,,,,,5,,,78,76
14880,note_on,,16,0,10,,,,,,,,,,,,,,,5,,,73,76
14880,note_on,,31,0,6,,,,,,,,,,,,,,,1,,,73,76
14880,note_on,,13,0,5,,,,,,,,,,,,,,,0,,,81,76
14880,note_on,,31,0,7,,,,,,,,,,,,,,,2,,,69,76
14880,note_on,,31,0,8,,,,,,,,,,,,,,,3,,,73,76
14880,note_on,,31,0,9,,,,,,,,,,,,,,,4,,,61,76
14880,note_on,,0,0,10,,,,,,,,,,,,,,,5,,,81,76
14880,note_on,,0,0,10,,,,,,,,,,,,,,,5,,,61,76
14969,note_on,,89,0,8,,,,,,,,,,,,,,,3,,,73,0
14969,note_on,,89,0,7,,,,,,,,,,,,,,,2,,,69,0
14969,note_on,,89,0,6,,,,,,,,,,,,,,,1,,,73,0
14969,note_on,,89,0,9,,,,,,,,,,,,,,,4,,,61,0
14984,note_on,,0,0,10,,,,,,,,,,,,,,,5,,,61,0
14984,note_on,,0,0,10,,,,,,,,,,,,,,,5,,,78,0
14984,note_on,,104,0,10,,,,,,,,,,,,,,,5,,,73,0
14984,note_on,,0,0,10,,,,,,,,,,,,,,,5,,,81,0
14984,note_on,,104,0,5,,,,,,,,,,,,,,,0,,,81,0
15000,note_on,,31,0,8,,,,,,,,,,,,,,,3,,,71,76
15000,note_on,,31,0,6,,,,,,,,,,,,,,,1,,,77,76
15000,note_on,,0,0,10,,,,,,,,,,,,,,,5,,,49,76
15000,note_on,,0,0,10,,,,,,,,,,,,,,,5,,,65,76
15000,note_on,,31,0,7,,,,,,,,,,,,,,,2,,,73,76
15000,note_on,,16,0,5,,,,,,,,,,,,,,,0,,,80,76
15000,note_on,,16,0,10,,,,,,,,,,,,,,,5,,,61,76
15000,note_on,,0,0,10,,,,,,,,,,,,,,,5,,,68,76
15000,note_on,,31,0,9,,,,,,,,,,,,,,,4,,,49,76
15029,note_on,,29,0,5,,,,,,,,,,,,,,,0,,,80,0
15030,note_on,,1,0,5,,,,,,,,,,,,,,,0,,,81,76
15059,note_on,,29,0,5,,,,,,,,,,,,,,,0,,,81,0
15060,note_on,,1,0,5,,,,,,,,,,,,,,,0,,,78,76
15089,note_on,,89,0,7,,,,,,,,,,,,,,,2,,,73,0
15089,note_on,,89,0,9,,,,,,,,,,,,,,,4,,,49,0
15089,note_on,,89,0,6,,,,,,,,,,,,,,,1,,,77,0
15089,note_on,,89,0,8,,,,,,,,,,,,,,,3,,,71,0
15089,note_on,,29,0,5,,,,,,,,,,,,,,,0,,,78,0
15090,note_on,,1,0,5,,,,,,,,,,,,,,,0,,,80,76
15104,note_on,,104,0,10,,,,,,,,,,,,,,,5,,,61,0
15104,note_on,,0,0,10,,,,,,,,,,,,,,,5,,,65,0
15104,note_on,,0,0,10,,,,,,,,,,,,,,,5,,,68,0
15104,note_on,,0,0,10,,,,,,,,,,,,,,,5,,,49,0
15119,note_on,,29,0,5,,,,,,,,,,,,,,,0,,,80,0
15120,note_on,,31,0,9,,,,,,,,,,,,,,,4,,,54,76
15120,note_on,,31,0,7,,,,,,,,,,,,,,,2,,,73,76
15120,note_on,,1,0,5,,,,,,,,,,,,,,,0,,,78,76
15120,note_on,,16,0,10,,,,,,,,,,,,,,,5,,,54,76
15120,note_on,,0,0,10,,,,,,,,,,,,,,,5,,,73,76
15120,note_on,,0,0,10,,,,,,,,,,,,,,,5,,,66,76
15120,note_on,,31,0,6,,,,,,,,,,,,,,,1,,,78,76
15120,note_on,,0,0,10,,,,,,,,,,,,,,,5,,,69,76
15120,note_on,,31,0,8,,,,,,,,,,,,,,,3,,,69,76
15329,note_on,,209,0,9,,,,,,,,,,,,,,,4,,,54,0
15329,note_on,,209,0,7,,,,,,,,,,,,,,,2,,,73,0
15344,note_on,,224,0,8,,,,,,,,,,,,,,,3,,,69,0
15344,note_on,,0,0,10,,,,,,,,,,,,,,,5,,,66,0
15344,note_on,,0,0,10,,,,,,,,,,,,,,,5,,,69,0
15344,note_on,,224,0,5,,,,,,,,,,,,,,,0,,,78,0
15344,note_on,,224,0,10,,,,,,,,,,,,,,,5,,,54,0
15344,note_on,,0,0,10,,,,,,,,,,,,,,,5,,,73,0
15344,note_on,,224,0,6,,,,,,,,,,,,,,,1,,,78,0
15360,note_on,,16,0,8,,,,,,,,,,,,,,,3,,,69,76
15360,note_on,,0,0,10,,,,,,,,,,,,,,,5,,,42,76
15360,note_on,,0,0,10,,,,,,,,,,,,,,,5,,,54,76
15360,note_on,,31,0,7,,,,,,,,,,,,,,,2,,,73,76
15360,note_on,,31,0,9,,,,,,,,,,,,,,,4,,,42,76
15360,note_on,,0,0,10,,,,,,,,,,,,,,,5,,,57,76
15360,note_on,,16,0,6,,,,,,,,,,,,,,,1,,,78,76
15360,note_on,,16,0,10,,,,,,,,,,,,,,,5,,,61,76
15360,note_on,,16,0,5,,,,,,,,,,,,,,,0,,,78,76
15449,note_on,,89,0,9,,,,,,,,,,,,,,,4,,,42,0
15449,note_on,,89,0,6,,,,,,,,,,,,,,,1,,,78,0
15449,note_on,,89,0,7,,,,,,,,,,,,,,,2,,,73,0
15449,note_on,,89,0,8,,,,,,,,,,,,,,,3,,,69,0
15464,note_on,,104,0,10,,,,,,,,,,,,,,,5,,,61,0
15464,note_on,,0,0,10,,,,,,,,,,,,,,,5,,,54,0
15464,note_on,,0,0,10,,,,,,,,,,,,,,,5,,,42,0
15464,note_on,,104,0,5,,,,,,,,,,,,,,,0,,,78,0
15464,note_on,,0,0,10,,,,,,,,,,,,,,,5,,,57,0
15480,note_on,,16,0,10,,,,,,,,,,,,,,,5,,,61,76
15480,note_on,,0,0,10,,,,,,,,,,,,,,,5,,,42,76
15480,note_on,,0,0,10,,,,,,,,,,,,,,,5,,,57,76
15480,note_on,,31,0,9,,,,,,,,,,,,,,,4,,,42,76
15480,note_on,,0,0,10,,,,,,,,,,,,,,,5,,,54,76
15480,note_on,,16,0,5,,,,,,,,,,,,,,,0,,,81,76
15527,note_on,,47,0,5,,,,,,,,,,,,,,,0,,,81,0
15540,note_on,,13,0,5,,,,,,,,,,,,,,,0,,,78,76
15569,note_on,,89,0,9,,,,,,,,,,,,,,,4,,,42,0
15584,note_on,,0,0,10,,,,,,,,,,,,,,,5,,,54,0
15584,note_on,,0,0,10,,,,,,,,,,,,,,,5,,,42,0
15584,note_on,,0,0,10,,,,,,,,,,,,,,,5,,,57,0
15584,note_on,,104,0,10,,,,,,,,,,,,,,,5,,,61,0
15587,note_on,,47,0,5,,,,,,,,,,,,,,,0,,,78,0
15600,note_on,,31,0,9,,,,,,,,,,,,,,,4,,,45,76
15600,note_on,,13,0,5,,,,,,,,,,,,,,,0,,,73,76
15600,note_on,,0,0,10,,,,,,,,,,,,,,,5,,,57,76
15600,note_on,,151,0,7,,,,,,,,,,,,,,,2,,,69,76
15600,note_on,,151,0,6,,,,,,,,,,,,,,,1,,,73,76
15600,note_on,,151,0,8,,,,,,,,,,,,,,,3,,,66,76
15600,note_on,,16,0,10,,,,,,,,,,,,,,,5,,,61,76
15600,note_on,,0,0,10,,,,,,,,,,,,,,,5,,,66,76
15600,note_on,,0,0,10,,,,,,,,,,,,,,,5,,,45,76
15689,note_on,,89,0,6,,,,,,,,,,,,,,,1,,,73,0
15689,note_on,,89,0,8,,,,,,,,,,,,,,,3,,,66,0
15689,note_on,,89,0,7,,,,,,,,,,,,,,,2,,,69,0
15689,note_on,,89,0,9,,,,,,,,,,,,,,,4,,,45,0
15704,note_on,,0,0,10,,,,,,,,,,,,,,,5,,,45,0
15704,note_on,,0,0,10,,,,,,,,,,,,,,,5,,,66,0
15704,note_on,,0,0,10,,,,,,,,,,,,,,,5,,,57,0
15704,note_on,,104,0,5,,,,,,,,,,,,,,,0,,,73,0
15704,note_on,,104,0,10,,,,,,,,,,,,,,,5,,,61,0
15720,note_on,,16,0,10,,,,,,,,,,,,,,,5,,,61,76
15720,note_on,,0,0,10,,,,,,,,,,,,,,,5,,,42,76
15720,note_on,,16,0,5,,,,,,,,,,,,,,,0,,,78,76
15720,note_on,,31,0,9,,,,,,,,,,,,,,,4,,,42,76
15720,note_on,,0,0,10,,,,,,,,,,,,,,,5,,,57,76
15720,note_on,,0,0,10,,,,,,,,,,,,,,,5,,,54,76
15767,note_on,,47,0,5,,,,,,,,,,,,,,,0,,,78,0
15780,note_on,,13,0,5,,,,,,,,,,,,,,,0,,,73,76
15809,note_on,,89,0,9,,,,,,,,,,,,,,,4,,,42,0
15824,note_on,,104,0,10,,,,,,,,,,,,,,,5,,,61,0
15824,note_on,,0,0,10,,,,,,,,,,,,,,,5,,,42,0
15824,note_on,,0,0,10,,,,,,,,,,,,,,,5,,,54,0
15824,note_on,,0,0,10,,,,,,,,,,,,,,,5,,,57,0
15827,note_on,,47,0,5,,,,,,,,,,,,,,,0,,,73,0
15840,note_on,,0,0,10,,,,,,,,,,,,,,,5,,,61,76
15840,note_on,,0,0,10,,,,,,,,,,,,,,,5,,,69,76
15840,note_on,,0,0,10,,,,,,,,,,,,,,,5,,,49,76
15840,note_on,,31,0,9,,,,,,,,,,,,,,,4,,,49,76
15840,note_on,,151,0,6,,,,,,,,,,,,,,,1,,,69,76
15840,note_on,,151,0,8,,,,,,,,,,,,,,,3,,,61,76
15840,note_on,,13,0,5,,,,,,,,,,,,,,,0,,,69,76
15840,note_on,,16,0,10,,,,,,,,,,,,,,,5,,,66,76
15840,note_on,,151,0,7,,,,,,,,,,,,,,,2,,,66,76
15929,note_on,,89,0,7,,,,,,,,,,,,,,,2,,,66,0
15929,note_on,,89,0,8,,,,,,,,,,,,,,,3,,,61,0
15929,note_on,,89,0,6,,,,,,,,,,,,,,,1,,,69,0
15929,note_on,,89,0,9,,,,,,,,,,,,,,,4,,,49,0
15944,note_on,,104,0,10,,,,,,,,,,,,,,,5,,,66,0
15944,note_on,,0,0,10,,,,,,,,,,,,,,,5,,,61,0
15944,note_on,,0,0,10,,,,,,,,,,,,,,,5,,,69,0
15944,note_on,,0,0,10,,,,,,,,,,,,,,,5,,,49,0
15944,note_on,,104,0,5,,,,,,,,,,,,,,,0,,,69,0
15960,note_on,,0,0,10,,,,,,,,,,,,,,,5,,,45,76
15960,note_on,,16,0,5,,,,,,,,,,,,,,,0,,,73,76
15960,note_on,,31,0,9,,,,,,,,,,,,,,,4,,,45,76
15960,note_on,,0,0,10,,,,,,,,,,,,,,,5,,,61,76
15960,note_on,,16,0,10,,,,,,,,,,,,,,,5,,,66,76
15960,note_on,,0,0,10,,,,,,,,,,,,,,,5,,,57,76
16007,note_on,,47,0,5,,,,,,,,,,,,,,,0,,,73,0
16020,note_on,,13,0,5,,,,,,,,,,,,,,,0,,,69,76
16049,note_on,,89,0,9,,,,,,,,,,,,,,,4,,,45,0
16064,note_on,,104,0,10,,,,,,,,,,,,,,,5,,,66,0
16064,note_on,,0,0,10,,,,,,,,,,,,,,,5,,,61,0
16064,note_on,,0,0,10,,,,,,,,,,,,,,,5,,,57,0
16064,note_on,,0,0,10,,,,,,,,,,,,,,,5,,,45,0
16067,note_on,,47,0,5,,,,,,,,,,,,,,,0,,,69,0
16080,note_on,,151,0,7,,,,,,,,,,,,,,,2,,,61,76
16080,note_on,,13,0,5,,,,,,,,,,,,,,,0,,,66,76
16080,note_on,,0,0,10,,,,,,,,,,,,,,,5,,,66,76
16080,note_on,,151,0,8,,,,,,,,,,,,,,,3,,,57,76
16080,note_on,,0,0,10,,,,,,,,,,,,,,,5,,,54,76
16080,note_on,,151,0,6,,,,,,,,,,,,,,,1,,,66,76
16080,note_on,,16,0,10,,,,,,,,,,,,,,,5,,,73,76
16080,note_on,,31,0,9,,,,,,,,,,,,,,,4,,,54,76
16080,note_on,,0,0,10,,,,,,,,,,,,,,,5,,,69,76
16169,note_on,,89,0,7,,,,,,,,,,,,,,,2,,,61,0
16169,note_on,,89,0,9,,,,,,,,,,,,,,,4,,,54,0
16184,note_on,,0,0,10,,,,,,,,,,,,,,,5,,,66,0
16184,note_on,,0,0,10,,,,,,,,,,,,,,,5,,,54,0
16184,note_on,,0,0,10,,,,,,,,,,,,,,,5,,,69,0
16184,note_on,,104,0,10,,,,,,,,,,,,,,,5,,,73,0
16200,note_on,,31,0,9,,,,,,,,,,,,,,,4,,,57,76
16200,note_on,,16,0,10,,,,,,,,,,,,,,,5,,,57,76
16200,note_on,,0,0,10,,,,,,,,,,,,,,,5,,,76,76
16200,note_on,,0,0,10,,,,,,,,,,,,,,,5,,,73,76
16200,note_on,,0,0,10,,,,,,,,,,,,,,,5,,,69,76
16244,note_on,,44,0,10,,,,,,,,,,,,,,,5,,,57,0
16244,note_on,,44,0,9,,,,,,,,,,,,,,,4,,,57,0
16244,note_on,,0,0,10,,,,,,,,,,,,,,,5,,,73,0
16244,note_on,,0,0,10,,,,,,,,,,,,,,,5,,,76,0
16244,note_on,,0,0,10,,,,,,,,,,,,,,,5,,,69,0
16260,note_on,,16,0,10,,,,,,,,,,,,,,,5,,,69,76
16260,note_on,,0,0,10,,,,,,,,,,,,,,,5,,,73,76
16260,note_on,,0,0,10,,,,,,,,,,,,,,,5,,,66,76
16260,note_on,,0,0,10,,,,,,,,,,,,,,,5,,,54,76
16260,note_on,,16,0,9,,,,,,,,,,,,,,,4,,,54,76
16304,note_on,,224,0,8,,,,,,,,,,,,,,,3,,,57,0
16304,note_on,,224,0,5,,,,,,,,,,,,,,,0,,,66,0
16304,note_on,,44,0,9,,,,,,,,,,,,,,,4,,,54,0
16304,note_on,,224,0,6,,,,,,,,,,,,,,,1,,,66,0
16304,note_on,,0,0,10,,,,,,,,,,,,,,,5,,,73,0
16304,note_on,,0,0,10,,,,,,,,,,,,,,,5,,,54,0
16304,note_on,,0,0,10,,,,,,,,,,,,,,,5,,,66,0
16304,note_on,,44,0,10,,,,,,,,,,,,,,,5,,,69,0
16320,note_on,,151,0,7,,,,,,,,,,,,,,,2,,,66,52
16320,note_on,,16,0,9,,,,,,,,,,,,,,,4,,,51,52
16320,note_on,,16,0,5,,,,,,,,,,,,,,,0,,,72,76
16320,note_on,,0,0,10,,,,,,,,,,,,,,,5,,,72,76
16320,note_on,,16,0,10,,,,,,,,,,,,,,,5,,,66,76
16320,note_on,,0,0,10,,,,,,,,,,,,,,,5,,,63,76
16320,note_on,,16,0,8,,,,,,,,,,,,,,,3,,,54,52
16320,note_on,,16,0,6,,,,,,,,,,,,,,,1,,,69,52
16320,note_on,,0,0,10,,,,,,,,,,,,,,,5,,,51,76
16320,note_on,,0,0,10,,,,,,,,,,,,,,,5,,,69,76
16409,note_on,,89,0,9,,,,,,,,,,,,,,,4,,,51,0
16409,note_on,,89,0,6,,,,,,,,,,,,,,,1,,,69,0
16409,note_on,,89,0,8,,,,,,,,,,,,,,,3,,,54,0
16409,note_on,,89,0,7,,,,,,,,,,,,,,,2,,,66,0
16424,note_on,,0,0,10,,,,,,,,,,,,,,,5,,,69,0
16424,note_on,,0,0,10,,,,,,,,,,,,,,,5,,,51,0
16424,note_on,,0,0,10,,,,,,,,,,,,,,,5,,,63,0
16424,note_on,,104,0,10,,,,,,,,,,,,,,,5,,,66,0
16424,note_on,,0,0,10,,,,,,,,,,,,,,,5,,,72,0
16439,note_on,,119,0,5,,,,,,,,,,,,,,,0,,,72,0
16440,note_on,,0,0,10,,,,,,,,,,,,,,,5,,,71,76
16440,note_on,,16,0,10,,,,,,,,,,,,,,,5,,,75,76
16440,note_on,,31,0,9,,,,,,,,,,,,,,,4,,,54,52
16440,note_on,,1,0,5,,,,,,,,,,,,,,,0,,,71,76
16440,note_on,,0,0,10,,,,,,,,,,,,,,,5,,,66,76
16440,note_on,,0,0,10,,,,,,,,,,,,,,,5,,,54,76
16484,note_on,,0,0,10,,,,,,,,,,,,,,,5,,,71,0
16484,note_on,,0,0,10,,,,,,,,,,,,,,,5,,,66,0
16484,note_on,,44,0,9,,,,,,,,,,,,,,,4,,,54,0
16484,note_on,,0,0,10,,,,,,,,,,,,,,,5,,,54,0
16484,note_on,,44,0,10,,,,,,,,,,,,,,,5,,,75,0
16500,note_on,,16,0,10,,,,,,,,,,,,,,,5,,,63,76
16500,note_on,,0,0,10,,,,,,,,,,,,,,,5,,,51,76
16500,note_on,,0,0,10,,,,,,,,,,,,,,,5,,,69,76
16500,note_on,,0,0,10,,,,,,,,,,,,,,,5,,,72,76
16500,note_on,,0,0,10,,,,,,,,,,,,,,,5,,,66,76
16500,note_on,,16,0,9,,,,,,,,,,,,,,,4,,,51,52
16544,note_on,,0,0,10,,,,,,,,,,,,,,,5,,,72,0
16544,note_on,,0,0,10,,,,,,,,,,,,,,,5,,,66,0
16544,note_on,,44,0,10,,,,,,,,,,,,,,,5,,,63,0
16544,note_on,,104,0,5,,,,,,,,,,,,,,,0,,,71,0
16544,note_on,,0,0,10,,,,,,,,,,,,,,,5,,,69,0
16544,note_on,,0,0,10,,,,,,,,,,,,,,,5,,,51,0
16544,note_on,,44,0,9,,,,,,,,,,,,,,,4,,,51,0
16560,note_on,,16,0,9,,,,,,,,,,,,,,,4,,,47,52
16560,note_on,,0,0,10,,,,,,,,,,,,,,,5,,,64,76
16560,note_on,,0,0,10,,,,,,,,,,,,,,,5,,,59,76
16560,note_on,,16,0,5,,,,,,,,,,,,,,,0,,,76,76
16560,note_on,,16,0,10,,,,,,,,,,,,,,,5,,,67,76
16560,note_on,,151,0,7,,,,,,,,,,,,,,,2,,,64,52
16560,note_on,,151,0,6,,,,,,,,,,,,,,,1,,,67,52
16560,note_on,,151,0,8,,,,,,,,,,,,,,,3,,,55,52
16560,note_on,,0,0,10,,,,,,,,,,,,,,,5,,,47,76
16649,note_on,,89,0,6,,,,,,,,,,,,,,,1,,,67,0
16649,note_on,,89,0,7,,,,,,,,,,,,,,,2,,,64,0
16649,note_on,,89,0,8,,,,,,,,,,,,,,,3,,,55,0
16664,note_on,,0,0,10,,,,,,,,,,,,,,,5,,,59,0
16664,note_on,,0,0,10,,,,,,,,,,,,,,,5,,,47,0
16664,note_on,,0,0,10,,,,,,,,,,,,,,,5,,,64,0
16664,note_on,,104,0,10,,,,,,,,,,,,,,,5,,,67,0
16679,note_on,,119,0,5,,,,,,,,,,,,,,,0,,,76,0
16679,note_on,,119,0,9,,,,,,,,,,,,,,,4,,,47,0
16680,note_on,,1,0,5,,,,,,,,,,,,,,,0,,,75,76
16680,note_on,,0,0,10,,,,,,,,,,,,,,,5,,,59,76
16680,note_on,,0,0,10,,,,,,,,,,,,,,,5,,,66,76
16680,note_on,,1,0,9,,,,,,,,,,,,,,,4,,,47,52
16680,note_on,,16,0,10,,,,,,,,,,,,,,,5,,,47,76
16680,note_on,,0,0,10,,,,,,,,,,,,,,,5,,,63,76
16727,note_on,,47,0,5,,,,,,,,,,,,,,,0,,,75,0
16740,note_on,,13,0,5,,,,,,,,,,,,,,,0,,,78,76
16784,note_on,,104,0,10,,,,,,,,,,,,,,,5,,,47,0
16784,note_on,,0,0,10,,,,,,,,,,,,,,,5,,,63,0
16784,note_on,,0,0,10,,,,,,,,,,,,,,,5,,,66,0
16784,note_on,,0,0,10,,,,,,,,,,,,,,,5,,,59,0
16787,note_on,,47,0,5,,,,,,,,,,,,,,,0,,,78,0
16799,note_on,,119,0,9,,,,,,,,,,,,,,,4,,,47,0
16800,note_on,,1,0,9,,,,,,,,,,,,,,,4,,,47,52
16800,note_on,,151,0,7,,,,,,,,,,,,,,,2,,,63,52
16800,note_on,,151,0,8,,,,,,,,,,,,,,,3,,,59,52
16800,note_on,,13,0,5,,,,,,,,,,,,,,,0,,,81,76
16800,note_on,,0,0,10,,,,,,,,,,,,,,,5,,,66,76
16800,note_on,,151,0,6,,,,,,,,,,,,,,,1,,,66,52
16800,note_on,,0,0,10,,,,,,,,,,,,,,,5,,,63,76
16800,note_on,,0,0,10,,,,,,,,,,,,,,,5,,,47,76
16800,note_on,,16,0,10,,,,,,,,,,,,,,,5,,,69,76
16800,note_on,,0,0,10,,,,,,,,,,,,,,,5,,,59,76
16889,note_on,,89,0,7,,,,,,,,,,,,,,,2,,,63,0
16889,note_on,,89,0,6,,,,,,,,,,,,,,,1,,,66,0
16889,note_on,,89,0,8,,,,,,,,,,,,,,,3,,,59,0
16904,note_on,,104,0,5,,,,,,,,,,,,,,,0,,,81,0
16904,note_on,,0,0,10,,,,,,,,,,,,,,,5,,,59,0
16904,note_on,,0,0,10,,,,,,,,,,,,,,,5,,,63,0
16904,note_on,,0,0,10,,,,,,,,,,,,,,,5,,,47,0
16904,note_on,,104,0,10,,,,,,,,,,,,,,,5,,,69,0
16904,note_on,,0,0,10,,,,,,,,,,,,,,,5,,,66,0
16919,note_on,,119,0,9,,,,,,,,,,,,,,,4,,,47,0
16920,note_on,,1,0,9,,,,,,,,,,,,,,,4,,,47,52
16920,note_on,,0,0,10,,,,,,,,,,,,,,,5,,,47,76
16920,note_on,,16,0,10,,,,,,,,,,,,,,,5,,,66,76
16920,note_on,,0,0,10,,,,,,,,,,,,,,,5,,,63,76
16920,note_on,,0,0,10,,,,,,,,,,,,,,,5,,,59,76
16920,note_on,,16,0,5,,,,,,,,,,,,,,,0,,,79,76
16967,note_on,,47,0,5,,,,,,,,,,,,,,,0,,,79,0
16980,note_on,,13,0,5,,,,,,,,,,,,,,,0,,,78,76
17009,note_on,,89,0,9,,,,,,,,,,,,,,,4,,,47,0
17024,note_on,,104,0,10,,,,,,,,,,,,,,,5,,,66,0
17024,note_on,,0,0,10,,,,,,,,,,,,,,,5,,,63,0
17024,note_on,,0,0,10,,,,,,,,,,,,,,,5,,,59,0
17024,note_on,,0,0,10,,,,,,,,,,,,,,,5,,,47,0
17027,note_on,,47,0,5,,,,,,,,,,,,,,,0,,,78,0
17040,note_on,,0,0,10,,,,,,,,,,,,,,,5,,,52,76
17040,note_on,,31,0,9,,,,,,,,,,,,,,,4,,,52,52
17040,note_on,,151,0,6,,,,,,,,,,,,,,,1,,,64,52
17040,note_on,,151,0,8,,,,,,,,,,,,,,,3,,,59,52
17040,note_on,,0,0,10,,,,,,,,,,,,,,,5,,,71,76
17040,note_on,,13,0,5,,,,,,,,,,,,,,,0,,,79,76
17040,note_on,,151,0,7,,,,,,,,,,,,,,,2,,,64,52
17040,note_on,,16,0,10,,,,,,,,,,,,,,,5,,,64,76
17040,note_on,,0,0,10,,,,,,,,,,,,,,,5,,,67,76
17129,note_on,,89,0,9,,,,,,,,,,,,,,,4,,,52,0
17129,note_on,,89,0,6,,,,,,,,,,,,,,,1,,,64,0
17129,note_on,,89,0,7,,,,,,,,,,,,,,,2,,,64,0
17129,note_on,,89,0,8,,,,,,,,,,,,,,,3,,,59,0
17144,note_on,,0,0,10,,,,,,,,,,,,,,,5,,,71,0
17144,note_on,,0,0,10,,,,,,,,,,,,,,,5,,,67,0
17144,note_on,,0,0,10,,,,,,,,,,,,,,,5,,,52,0
17144,note_on,,104,0,10,,,,,,,,,,,,,,,5,,,64,0
17144,note_on,,104,0,5,,,,,,,,,,,,,,,0,,,79,0
17160,note_on,,0,0,10,,,,,,,,,,,,,,,5,,,59,76
17160,note_on,,0,0,10,,,,,,,,,,,,,,,5,,,71,76
17160,note_on,,31,0,9,,,,,,,,,,,,,,,4,,,59,52
17160,note_on,,16,0,10,,,,,,,,,,,,,,,5,,,78,76
17160,note_on,,16,0,5,,,,,,,,,,,,,,,0,,,76,76
17160,note_on,,0,0,10,,,,,,,,,,,,,,,5,,,74,76
17204,note_on,,44,0,10,,,,,,,,,,,,,,,5,,,78,0
17204,note_on,,44,0,9,,,,,,,,,,,,,,,4,,,59,0
17204,note_on,,0,0,10,,,,,,,,,,,,,,,5,,,71,0
17204,note_on,,0,0,10,,,,,,,,,,,,,,,5,,,59,0
17204,note_on,,0,0,10,,,,,,,,,,,,,,,5,,,74,0
17220,note_on,,0,0,10,,,,,,,,,,,,,,,5,,,71,76
17220,note_on,,16,0,9,,,,,,,,,,,,,,,4,,,55,52
17220,note_on,,0,0,10,,,,,,,,,,,,,,,5,,,74,76
17220,note_on,,16,0,10,,,,,,,,,,,,,,,5,,,55,76
17220,note_on,,0,0,10,,,,,,,,,,,,,,,5,,,67,76
17264,note_on,,44,0,10,,,,,,,,,,,,,,,5,,,55,0
17264,note_on,,44,0,9,,,,,,,,,,,,,,,4,,,55,0
17264,note_on,,0,0,10,,,,,,,,,,,,,,,5,,,67,0
17264,note_on,,0,0,10,,,,,,,,,,,,,,,5,,,74,0
17264,note_on,,104,0,5,,,,,,,,,,,,,,,0,,,76,0
17264,note_on,,0,0,10,,,,,,,,,,,,,,,5,,,71,0
17280,note_on,,16,0,10,,,,,,,,,,,,,,,5,,,52,76
17280,note_on,,0,0,10,,,,,,,,,,,,,,,5,,,71,76
17280,note_on,,0,0,10,,,,,,,,,,,,,,,5,,,67,76
17280,note_on,,0,0,10,,,,,,,,,,,,,,,5,,,64,76
17280,note_on,,16,0,5,,,,,,,,,,,,,,,0,,,79,76
17280,note_on,,16,0,9,,,,,,,,,,,,,,,4,,,52,76
17280,note_on,,151,0,7,,,,,,,,,,,,,,,2,,,76,76
17280,note_on,,151,0,8,,,,,,,,,,,,,,,3,,,71,76
17280,note_on,,151,0,6,,,,,,,,,,,,,,,1,,,79,76
17369,note_on,,89,0,6,,,,,,,,,,,,,,,1,,,79,0
17369,note_on,,89,0,9,,,,,,,,,,,,,,,4,,,52,0
17369,note_on,,89,0,7,,,,,,,,,,,,,,,2,,,76,0
17369,note_on,,89,0,8,,,,,,,,,,,,,,,3,,,71,0
17384,note_on,,0,0,10,,,,,,,,,,,,,,,5,,,64,0
17384,note_on,,0,0,10,,,,,,,,,,,,,,,5,,,67,0
17384,note_on,,104,0,5,,,,,,,,,,,,,,,0,,,79,0
17384,note_on,,0,0,10,,,,,,,,,,,,,,,5,,,71,0
17384,note_on,,104,0,10,,,,,,,,,,,,,,,5,,,52,0
17400,note_on,,0,0,10,,,,,,,,,,,,,,,5,,,67,76
17400,note_on,,0,0,10,,,,,,,,,,,,,,,5,,,71,76
17400,note_on,,0,0,10,,,,,,,,,,,,,,,5,,,55,76
17400,note_on,,16,0,10,,,,,,,,,,,,,,,5,,,74,76
17400,note_on,,16,0,5,,,,,,,,,,,,,,,0,,,83,76
17400,note_on,,31,0,9,,,,,,,,,,,,,,,4,,,55,76
17444,note_on,,0,0,10,,,,,,,,,,,,,,,5,,,71,0
17444,note_on,,44,0,9,,,,,,,,,,,,,,,4,,,55,0
17444,note_on,,0,0,10,,,,,,,,,,,,,,,5,,,67,0
17444,note_on,,44,0,10,,,,,,,,,,,,,,,5,,,74,0
17444,note_on,,0,0,10,,,,,,,,,,,,,,,5,,,55,0
17447,note_on,,47,0,5,,,,,,,,,,,,,,,0,,,83,0
17460,note_on,,16,0,10,,,,,,,,,,,,,,,5,,,52,76
17460,note_on,,0,0,10,,,,,,,,,,,,,,,5,,,64,76
17460,note_on,,0,0,10,,,,,,,,,,,,,,,5,,,67,76
17460,note_on,,13,0,5,,,,,,,,,,,,,,,0,,,79,76
17460,note_on,,16,0,9,,,,,,,,,,,,,,,4,,,52,76
17460,note_on,,0,0,10,,,,,,,,,,,,,,,5,,,71,76
17504,note_on,,44,0,10,,,,,,,,,,,,,,,5,,,52,0
17504,note_on,,0,0,10,,,,,,,,,,,,,,,5,,,71,0
17504,note_on,,0,0,10,,,,,,,,,,,,,,,5,,,64,0
17504,note_on,,0,0,10,,,,,,,,,,,,,,,5,,,67,0
17504,note_on,,44,0,9,,,,,,,,,,,,,,,4,,,52,0
17507,note_on,,47,0,5,,,,,,,,,,,,,,,0,,,79,0
17520,note_on,,151,0,8,,,,,,,,,,,,,,,3,,,69,76
17520,note_on,,151,0,6,,,,,,,,,,,,,,,1,,,79,76
17520,note_on,,13,0,5,,,,,,,,,,,,,,,0,,,76,76
17520,note_on,,0,0,10,,,,,,,,,,,,,,,5,,,61,76
17520,note_on,,0,0,10,,,,,,,,,,,,,,,5,,,69,76
17520,note_on,,0,0,10,,,,,,,,,,,,,,,5,,,67,76
17520,note_on,,0,0,10,,,,,,,,,,,,,,,5,,,64,76
17520,note_on,,151,0,7,,,,,,,,,,,,,,,2,,,76,76
17520,note_on,,16,0,9,,,,,,,,,,,,,,,4,,,49,76
17520,note_on,,16,0,10,,,,,,,,,,,,,,,5,,,49,76
17609,note_on,,89,0,9,,,,,,,,,,,,,,,4,,,49,0
17609,note_on,,89,0,6,,,,,,,,,,,,,,,1,,,79,0
17609,note_on,,89,0,8,,,,,,,,,,,,,,,3,,,69,0
17609,note_on,,89,0,7,,,,,,,,,,,,,,,2,,,76,0
17624,note_on,,104,0,10,,,,,,,,,,,,,,,5,,,49,0
17624,note_on,,0,0,10,,,,,,,,,,,,,,,5,,,69,0
17624,note_on,,0,0,10,,,,,,,,,,,,,,,5,,,67,0
17624,note_on,,0,0,10,,,,,,,,,,,,,,,5,,,64,0
17624,note_on,,0,0,10,,,,,,,,,,,,,,,5,,,61,0
17624,note_on,,104,0,5,,,,,,,,,,,,,,,0,,,76,0
17640,note_on,,0,0,10,,,,,,,,,,,,,,,5,,,61,76
17640,note_on,,0,0,10,,,,,,,,,,,,,,,5,,,45,76
17640,note_on,,16,0,5,,,,,,,,,,,,,,,0,,,79,76
17640,note_on,,31,0,9,,,,,,,,,,,,,,,4,,,45,76
17640,note_on,,16,0,10,,,,,,,,,,,,,,,5,,,64,76
17640,note_on,,0,0,10,,,,,,,,,,,,,,,5,,,57,76
17687,note_on,,47,0,5,,,,,,,,,,,,,,,0,,,79,0
17700,note_on,,13,0,5,,,,,,,,,,,,,,,0,,,76,76
17729,note_on,,89,0,9,,,,,,,,,,,,,,,4,,,45,0
17744,note_on,,104,0,10,,,,,,,,,,,,,,,5,,,64,0
17744,note_on,,0,0,10,,,,,,,,,,,,,,,5,,,45,0
17744,note_on,,0,0,10,,,,,,,,,,,,,,,5,,,57,0
17744,note_on,,0,0,10,,,,,,,,,,,,,,,5,,,61,0
17747,note_on,,47,0,5,,,,,,,,,,,,,,,0,,,76,0
17760,note_on,,151,0,8,,,,,,,,,,,,,,,3,,,69,76
17760,note_on,,0,0,10,,,,,,,,,,,,,,,5,,,73,76
17760,note_on,,0,0,10,,,,,,,,,,,,,,,5,,,52,76
17760,note_on,,151,0,7,,,,,,,,,,,,,,,2,,,73,76
17760,note_on,,0,0,10,,,,,,,,,,,,,,,5,,,64,76
17760,note_on,,0,0,10,,,,,,,,,,,,,,,5,,,67,76
17760,note_on,,16,0,10,,,,,,,,,,,,,,,5,,,69,76
17760,note_on,,13,0,5,,,,,,,,,,,,,,,0,,,73,76
17760,note_on,,151,0,6,,,,,,,,,,,,,,,1,,,76,76
17760,note_on,,31,0,9,,,,,,,,,,,,,,,4,,,52,76
17849,note_on,,89,0,7,,,,,,,,,,,,,,,2,,,73,0
17849,note_on,,89,0,6,,,,,,,,,,,,,,,1,,,76,0
17849,note_on,,89,0,9,,,,,,,,,,,,,,,4,,,52,0
17849,note_on,,89,0,8,,,,,,,,,,,,,,,3,,,69,0
17864,note_on,,104,0,10,,,,,,,,,,,,,,,5,,,69,0
17864,note_on,,0,0,10,,,,,,,,,,,,,,,5,,,64,0
17864,note_on,,0,0,10,,,,,,,,,,,,,,,5,,,67,0
17864,note_on,,0,0,10,,,,,,,,,,,,,,,5,,,73,0
17864,note_on,,0,0,10,,,,,,,,,,,,,,,5,,,52,0
17864,note_on,,104,0,5,,,,,,,,,,,,,,,0,,,73,0
17880,note_on,,16,0,5,,,,,,,,,,,,,,,0,,,76,76
17880,note_on,,31,0,9,,,,,,,,,,,,,,,4,,,49,76
17880,note_on,,0,0,10,,,,,,,,,,,,,,,5,,,49,76
17880,note_on,,0,0,10,,,,,,,,,,,,,,,5,,,64,76
17880,note_on,,16,0,10,,,,,,,,,,,,,,,5,,,67,76
17880,note_on,,0,0,10,,,,,,,,,,,,,,,5,,,61,76
17927,note_on,,47,0,5,,,,,,,,,,,,,,,0,,,76,0
17940,note_on,,13,0,5,,,,,,,,,,,,,,,0,,,73,76
17969,note_on,,89,0,9,,,,,,,,,,,,,,,4,,,49,0
17984,note_on,,0,0,10,,,,,,,,,,,,,,,5,,,49,0
17984,note_on,,0,0,10,,,,,,,,,,,,,,,5,,,64,0
17984,note_on,,0,0,10,,,,,,,,,,,,,,,5,,,61,0
17984,note_on,,104,0,10,,,,,,,,,,,,,,,5,,,67,0
17987,note_on,,47,0,5,,,,,,,,,,,,,,,0,,,73,0
18000,note_on,,151,0,8,,,,,,,,,,,,,,,3,,,64,76
18000,note_on,,0,0,10,,,,,,,,,,,,,,,5,,,73,76
18000,note_on,,31,0,9,,,,,,,,,,,,,,,4,,,55,76
18000,note_on,,13,0,5,,,,,,,,,,,,,,,0,,,69,76
18000,note_on,,151,0,6,,,,,,,,,,,,,,,1,,,73,76
18000,note_on,,16,0,10,,,,,,,,,,,,,,,5,,,67,76
18000,note_on,,0,0,10,,,,,,,,,,,,,,,5,,,55,76
18000,note_on,,0,0,10,,,,,,,,,,,,,,,5,,,76,76
18000,note_on,,0,0,10,,,,,,,,,,,,,,,5,,,69,76
18000,note_on,,151,0,7,,,,,,,,,,,,,,,2,,,69,76
18089,note_on,,89,0,9,,,,,,,,,,,,,,,4,,,55,0
18104,note_on,,0,0,10,,,,,,,,,,,,,,,5,,,73,0
18104,note_on,,0,0,10,,,,,,,,,,,,,,,5,,,76,0
18104,note_on,,0,0,10,,,,,,,,,,,,,,,5,,,69,0
18104,note_on,,104,0,10,,,,,,,,,,,,,,,5,,,67,0
18104,note_on,,0,0,10,,,,,,,,,,,,,,,5,,,55,0
18120,note_on,,0,0,10,,,,,,,,,,,,,,,5,,,64,76
18120,note_on,,0,0,10,,,,,,,,,,,,,,,5,,,52,76
18120,note_on,,0,0,10,,,,,,,,,,,,,,,5,,,71,76
18120,note_on,,31,0,9,,,,,,,,,,,,,,,4,,,52,76
18120,note_on,,16,0,10,,,,,,,,,,,,,,,5,,,67,76
18209,note_on,,89,0,9,,,,,,,,,,,,,,,4,,,52,0
18224,note_on,,224,0,7,,,,,,,,,,,,,,,2,,,69,0
18224,note_on,,224,0,8,,,,,,,,,,,,,,,3,,,64,0
18224,note_on,,104,0,10,,,,,,,,,,,,,,,5,,,67,0
18224,note_on,,0,0,10,,,,,,,,,,,,,,,5,,,71,0
18224,note_on,,0,0,10,,,,,,,,,,,,,,,5,,,52,0
18224,note_on,,0,0,10,,,,,,,,,,,,,,,5,,,64,0
18224,note_on,,224,0,6,,,,,,,,,,,,,,,1,,,73,0
18240,note_on,,16,0,8,,,,,,,,,,,,,,,3,,,69,76
18240,note_on,,16,0,6,,,,,,,,,,,,,,,1,,,74,76
18240,note_on,,0,0,10,,,,,,,,,,,,,,,5,,,69,76
18240,note_on,,31,0,9,,,,,,,,,,,,,,,4,,,54,76
18240,note_on,,0,0,10,,,,,,,,,,,,,,,5,,,66,76
18240,note_on,,16,0,10,,,,,,,,,,,,,,,5,,,74,76
18240,note_on,,16,0,7,,,,,,,,,,,,,,,2,,,69,76
18240,note_on,,0,0,10,,,,,,,,,,,,,,,5,,,54,76
18287,note_on,,287,0,5,,,,,,,,,,,,,,,0,,,69,0
18300,note_on,,13,0,5,,,,,,,,,,,,,,,0,,,74,76
18329,note_on,,89,0,7,,,,,,,,,,,,,,,2,,,69,0
18329,note_on,,89,0,8,,,,,,,,,,,,,,,3,,,69,0
18329,note_on,,89,0,9,,,,,,,,,,,,,,,4,,,54,0
18344,note_on,,0,0,10,,,,,,,,,,,,,,,5,,,66,0
18344,note_on,,104,0,6,,,,,,,,,,,,,,,1,,,74,0
18344,note_on,,0,0,10,,,,,,,,,,,,,,,5,,,54,0
18344,note_on,,0,0,10,,,,,,,,,,,,,,,5,,,69,0
18344,note_on,,104,0,10,,,,,,,,,,,,,,,5,,,74,0
18347,note_on,,47,0,5,,,,,,,,,,,,,,,0,,,74,0
18360,note_on,,16,0,6,,,,,,,,,,,,,,,1,,,78,76
18360,note_on,,0,0,10,,,,,,,,,,,,,,,5,,,74,76
18360,note_on,,0,0,10,,,,,,,,,,,,,,,5,,,71,76
18360,note_on,,0,0,10,,,,,,,,,,,,,,,5,,,78,76
18360,note_on,,16,0,10,,,,,,,,,,,,,,,5,,,59,76
18360,note_on,,13,0,5,,,,,,,,,,,,,,,0,,,78,76
18360,note_on,,31,0,9,,,,,,,,,,,,,,,4,,,59,76
18360,note_on,,31,0,8,,,,,,,,,,,,,,,3,,,66,76
18360,note_on,,31,0,7,,,,,,,,,,,,,,,2,,,74,76
18407,note_on,,47,0,5,,,,,,,,,,,,,,,0,,,78,0
18420,note_on,,13,0,5,,,,,,,,,,,,,,,0,,,74,76
18449,note_on,,89,0,9,,,,,,,,,,,,,,,4,,,59,0
18449,note_on,,89,0,8,,,,,,,,,,,,,,,3,,,66,0
18449,note_on,,89,0,7,,,,,,,,,,,,,,,2,,,74,0
18464,note_on,,104,0,10,,,,,,,,,,,,,,,5,,,59,0
18464,note_on,,0,0,10,,,,,,,,,,,,,,,5,,,78,0
18464,note_on,,0,0,10,,,,,,,,,,,,,,,5,,,71,0
18464,note_on,,0,0,10,,,,,,,,,,,,,,,5,,,74,0
18464,note_on,,104,0,6,,,,,,,,,,,,,,,1,,,78,0
18467,note_on,,47,0,5,,,,,,,,,,,,,,,0,,,74,0
18480,note_on,,13,0,5,,,,,,,,,,,,,,,0,,,76,76
18480,note_on,,16,0,6,,,,,,,,,,,,,,,1,,,76,76
18480,note_on,,31,0,9,,,,,,,,,,,,,,,4,,,55,76
18480,note_on,,0,0,10,,,,,,,,,,,,,,,5,,,71,76
18480,note_on,,0,0,10,,,,,,,,,,,,,,,5,,,76,76
18480,note_on,,0,0,10,,,,,,,,,,,,,,,5,,,55,76
18480,note_on,,16,0,10,,,,,,,,,,,,,,,5,,,67,76
18480,note_on,,31,0,8,,,,,,,,,,,,,,,3,,,71,76
18480,note_on,,31,0,7,,,,,,,,,,,,,,,2,,,74,76
18480,note_on,,0,0,10,,,,,,,,,,,,,,,5,,,74,76
18527,note_on,,47,0,5,,,,,,,,,,,,,,,0,,,76,0
18540,note_on,,13,0,5,,,,,,,,,,,,,,,0,,,74,76
18569,note_on,,89,0,6,,,,,,,,,,,,,,,1,,,76,0
18569,note_on,,89,0,9,,,,,,,,,,,,,,,4,,,55,0
18569,note_on,,89,0,8,,,,,,,,,,,,,,,3,,,71,0
18569,note_on,,89,0,7,,,,,,,,,,,,,,,2,,,74,0
18584,note_on,,104,0,10,,,,,,,,,,,,,,,5,,,67,0
18584,note_on,,0,0,10,,,,,,,,,,,,,,,5,,,71,0
18584,note_on,,0,0,10,,,,,,,,,,,,,,,5,,,74,0
18584,note_on,,0,0,10,,,,,,,,,,,,,,,5,,,76,0
18584,note_on,,0,0,10,,,,,,,,,,,,,,,5,,,55,0
18587,note_on,,47,0,5,,,,,,,,,,,,,,,0,,,74,0
18600,note_on,,13,0,5,,,,,,,,,,,,,,,0,,,76,76
18600,note_on,,0,0,10,,,,,,,,,,,,,,,5,,,71,76
18600,note_on,,31,0,6,,,,,,,,,,,,,,,1,,,76,76
18600,note_on,,31,0,8,,,,,,,,,,,,,,,3,,,67,76
18600,note_on,,31,0,9,,,,,,,,,,,,,,,4,,,52,76
18600,note_on,,31,0,7,,,,,,,,,,,,,,,2,,,74,76
18600,note_on,,16,0,10,,,,,,,,,,,,,,,5,,,64,76
18600,note_on,,0,0,10,,,,,,,,,,,,,,,5,,,67,76
18600,note_on,,0,0,10,,,,,,,,,,,,,,,5,,,52,76
18647,note_on,,47,0,5,,,,,,,,,,,,,,,0,,,76,0
18660,note_on,,13,0,5,,,,,,,,,,,,,,,0,,,74,76
18689,note_on,,89,0,9,,,,,,,,,,,,,,,4,,,52,0
18689,note_on,,89,0,8,,,,,,,,,,,,,,,3,,,67,0
18689,note_on,,89,0,6,,,,,,,,,,,,,,,1,,,76,0
18689,note_on,,89,0,7,,,,,,,,,,,,,,,2,,,74,0
18704,note_on,,0,0,10,,,,,,,,,,,,,,,5,,,67,0
18704,note_on,,0,0,10,,,,,,,,,,,,,,,5,,,71,0
18704,note_on,,0,0,10,,,,,,,,,,,,,,,5,,,52,0
18704,note_on,,104,0,10,,,,,,,,,,,,,,,5,,,64,0
18707,note_on,,47,0,5,,,,,,,,,,,,,,,0,,,74,0
18720,note_on,,0,0,10,,,,,,,,,,,,,,,5,,,69,76
18720,note_on,,31,0,7,,,,,,,,,,,,,,,2,,,73,76
18720,note_on,,31,0,6,,,,,,,,,,,,,,,1,,,76,76
18720,note_on,,31,0,9,,,,,,,,,,,,,,,4,,,57,76
18720,note_on,,16,0,10,,,,,,,,,,,,,,,5,,,76,76
18720,note_on,,31,0,8,,,,,,,,,,,,,,,3,,,69,76
18720,note_on,,0,0,10,,,,,,,,,,,,,,,5,,,73,76
18720,note_on,,13,0,5,,,,,,,,,,,,,,,0,,,73,76
18720,note_on,,0,0,10,,,,,,,,,,,,,,,5,,,57,76
18767,note_on,,47,0,5,,,,,,,,,,,,,,,0,,,73,0
18780,note_on,,13,0,5,,,,,,,,,,,,,,,0,,,76,76
18809,note_on,,89,0,6,,,,,,,,,,,,,,,1,,,76,0
18809,note_on,,89,0,9,,,,,,,,,,,,,,,4,,,57,0
18809,note_on,,89,0,8,,,,,,,,,,,,,,,3,,,69,0
18809,note_on,,89,0,7,,,,,,,,,,,,,,,2,,,73,0
18824,note_on,,0,0,10,,,,,,,,,,,,,,,5,,,69,0
18824,note_on,,0,0,10,,,,,,,,,,,,,,,5,,,73,0
18824,note_on,,104,0,10,,,,,,,,,,,,,,,5,,,76,0
18824,note_on,,0,0,10,,,,,,,,,,,,,,,5,,,57,0
18827,note_on,,47,0,5,,,,,,,,,,,,,,,0,,,76,0
18840,note_on,,31,0,8,,,,,,,,,,,,,,,3,,,69,76
18840,note_on,,13,0,5,,,,,,,,,,,,,,,0,,,79,76
18840,note_on,,0,0,10,,,,,,,,,,,,,,,5,,,61,76
18840,note_on,,0,0,10,,,,,,,,,,,,,,,5,,,64,76
18840,note_on,,0,0,10,,,,,,,,,,,,,,,5,,,57,76
18840,note_on,,31,0,6,,,,,,,,,,,,,,,1,,,79,76
18840,note_on,,31,0,7,,,,,,,,,,,,,,,2,,,73,76
18840,note_on,,31,0,9,,,,,,,,,,,,,,,4,,,45,76
18840,note_on,,16,0,10,,,,,,,,,,,,,,,5,,,45,76
18887,note_on,,47,0,5,,,,,,,,,,,,,,,0,,,79,0
18900,note_on,,13,0,5,,,,,,,,,,,,,,,0,,,76,76
18929,note_on,,89,0,7,,,,,,,,,,,,,,,2,,,73,0
18929,note_on,,89,0,8,,,,,,,,,,,,,,,3,,,69,0
18929,note_on,,89,0,9,,,,,,,,,,,,,,,4,,,45,0
18944,note_on,,0,0,10,,,,,,,,,,,,,,,5,,,57,0
18944,note_on,,0,0,10,,,,,,,,,,,,,,,5,,,64,0
18944,note_on,,0,0,10,,,,,,,,,,,,,,,5,,,61,0
18944,note_on,,104,0,10,,,,,,,,,,,,,,,5,,,45,0
18944,note_on,,104,0,6,,,,,,,,,,,,,,,1,,,79,0
18947,note_on,,47,0,5,,,,,,,,,,,,,,,0,,,76,0
18960,note_on,,31,0,7,,,,,,,,,,,,,,,2,,,74,76
18960,note_on,,13,0,5,,,,,,,,,,,,,,,0,,,78,76
18960,note_on,,31,0,9,,,,,,,,,,,,,,,4,,,50,76
18960,note_on,,31,0,8,,,,,,,,,,,,,,,3,,,57,76
18960,note_on,,16,0,6,,,,,,,,,,,,,,,1,,,78,76
18960,note_on,,0,0,10,,,,,,,,,,,,,,,5,,,50,76
18960,note_on,,0,0,10,,,,,,,,,,,,,,,5,,,66,76
18960,note_on,,0,0,10,,,,,,,,,,,,,,,5,,,69,76
18960,note_on,,16,0,10,,,,,,,,,,,,,,,5,,,62,76
19007,note_on,,47,0,5,,,,,,,,,,,,,,,0,,,78,0
19020,note_on,,13,0,5,,,,,,,,,,,,,,,0,,,76,76
19049,note_on,,89,0,8,,,,,,,,,,,,,,,3,,,57,0
19049,note_on,,89,0,9,,,,,,,,,,,,,,,4,,,50,0
19049,note_on,,89,0,7,,,,,,,,,,,,,,,2,,,74,0
19064,note_on,,0,0,10,,,,,,,,,,,,,,,5,,,50,0
19064,note_on,,0,0,10,,,,,,,,,,,,,,,5,,,66,0
19064,note_on,,0,0,10,,,,,,,,,,,,,,,5,,,69,0
19064,note_on,,104,0,6,,,,,,,,,,,,,,,1,,,78,0
19064,note_on,,104,0,10,,,,,,,,,,,,,,,5,,,62,0
19067,note_on,,47,0,5,,,,,,,,,,,,,,,0,,,76,0
19080,note_on,,31,0,7,,,,,,,,,,,,,,,2,,,66,76
19080,note_on,,13,0,5,,,,,,,,,,,,,,,0,,,78,76
19080,note_on,,16,0,10,,,,,,,,,,,,,,,5,,,38,76
19080,note_on,,16,0,6,,,,,,,,,,,,,,,1,,,74,76
19080,note_on,,0,0,10,,,,,,,,,,,,,,,5,,,50,76
19080,note_on,,31,0,8,,,,,,,,,,,,,,,3,,,69,76
19080,note_on,,0,0,10,,,,,,,,,,,,,,,5,,,54,76
19080,note_on,,31,0,9,,,,,,,,,,,,,,,4,,,38,76
19080,note_on,,0,0,10,,,,,,,,,,,,,,,5,,,57,76
19127,note_on,,47,0,5,,,,,,,,,,,,,,,0,,,78,0
19139,note_on,,59,0,6,,,,,,,,,,,,,,,1,,,74,0
19140,note_on,,13,0,5,,,,,,,,,,,,,,,0,,,76,76
19140,note_on,,1,0,6,,,,,,,,,,,,,,,1,,,73,76
19169,note_on,,89,0,7,,,,,,,,,,,,,,,2,,,66,0
19169,note_on,,89,0,8,,,,,,,,,,,,,,,3,,,69,0
19169,note_on,,89,0,9,,,,,,,,,,,,,,,4,,,38,0
19184,note_on,,104,0,10,,,,,,,,,,,,,,,5,,,38,0
19184,note_on,,0,0,10,,,,,,,,,,,,,,,5,,,57,0
19184,note_on,,0,0,10,,,,,,,,,,,,,,,5,,,54,0
19184,note_on,,0,0,10,,,,,,,,,,,,,,,5,,,50,0
19187,note_on,,47,0,5,,,,,,,,,,,,,,,0,,,76,0
19199,note_on,,59,0,6,,,,,,,,,,,,,,,1,,,73,0
19200,note_on,,31,0,9,,,,,,,,,,,,,,,4,,,48,76
19200,note_on,,16,0,10,,,,,,,,,,,,,,,5,,,69,76
19200,note_on,,1,0,6,,,,,,,,,,,,,,,1,,,74,76
19200,note_on,,0,0,10,,,,,,,,,,,,,,,5,,,48,76
19200,note_on,,0,0,10,,,,,,,,,,,,,,,5,,,66,76
19200,note_on,,0,0,10,,,,,,,,,,,,,,,5,,,60,76
19200,note_on,,31,0,8,,,,,,,,,,,,,,,3,,,66,76
19200,note_on,,0,0,10,,,,,,,,,,,,,,,5,,,62,76
19200,note_on,,13,0,5,,,,,,,,,,,,,,,0,,,74,76
19200,note_on,,31,0,7,,,,,,,,,,,,,,,2,,,69,76
19247,note_on,,47,0,5,,,,,,,,,,,,,,,0,,,74,0
19260,note_on,,13,0,5,,,,,,,,,,,,,,,0,,,78,76
19289,note_on,,89,0,9,,,,,,,,,,,,,,,4,,,48,0
19289,note_on,,89,0,8,,,,,,,,,,,,,,,3,,,66,0
19289,note_on,,89,0,7,,,,,,,,,,,,,,,2,,,69,0
19304,note_on,,104,0,6,,,,,,,,,,,,,,,1,,,74,0
19304,note_on,,104,0,10,,,,,,,,,,,,,,,5,,,69,0
19304,note_on,,0,0,10,,,,,,,,,,,,,,,5,,,48,0
19304,note_on,,0,0,10,,,,,,,,,,,,,,,5,,,66,0
19304,note_on,,0,0,10,,,,,,,,,,,,,,,5,,,60,0
19304,note_on,,0,0,10,,,,,,,,,,,,,,,5,,,62,0
19307,note_on,,47,0,5,,,,,,,,,,,,,,,0,,,78,0
19320,note_on,,16,0,6,,,,,,,,,,,,,,,1,,,69,76
19320,note_on,,16,0,10,,,,,,,,,,,,,,,5,,,54,76
19320,note_on,,0,0,10,,,,,,,,,,,,,,,5,,,69,76
19320,note_on,,31,0,9,,,,,,,,,,,,,,,4,,,54,76
19320,note_on,,0,0,10,,,,,,,,,,,,,,,5,,,72,76
19320,note_on,,13,0,5,,,,,,,,,,,,,,,0,,,74,76
19320,note_on,,0,0,10,,,,,,,,,,,,,,,5,,,66,76
19379,note_on,,59,0,5,,,,,,,,,,,,,,,0,,,74,0
19380,note_on,,1,0,5,,,,,,,,,,,,,,,0,,,73,76
19409,note_on,,89,0,9,,,,,,,,,,,,,,,4,,,54,0
19424,note_on,,0,0,10,,,,,,,,,,,,,,,5,,,72,0
19424,note_on,,0,0,10,,,,,,,,,,,,,,,5,,,66,0
19424,note_on,,104,0,10,,,,,,,,,,,,,,,5,,,54,0
19424,note_on,,104,0,6,,,,,,,,,,,,,,,1,,,69,0
19424,note_on,,0,0,10,,,,,,,,,,,,,,,5,,,69,0
19439,note_on,,59,0,5,,,,,,,,,,,,,,,0,,,73,0
19440,note_on,,0,0,10,,,,,,,,,,,,,,,5,,,62,76
19440,note_on,,31,0,9,,,,,,,,,,,,,,,4,,,47,76
19440,note_on,,0,0,10,,,,,,,,,,,,,,,5,,,59,76
19440,note_on,,16,0,10,,,,,,,,,,,,,,,5,,,67,76
19440,note_on,,0,0,10,,,,,,,,,,,,,,,5,,,47,76
19440,note_on,,16,0,6,,,,,,,,,,,,,,,1,,,74,76
19440,note_on,,1,0,5,,,,,,,,,,,,,,,0,,,74,76
19440,note_on,,151,0,8,,,,,,,,,,,,,,,3,,,62,76
19440,note_on,,151,0,7,,,,,,,,,,,,,,,2,,,67,76
19487,note_on,,47,0,5,,,,,,,,,,,,,,,0,,,74,0
19500,note_on,,13,0,5,,,,,,,,,,,,,,,0,,,79,76
19529,note_on,,89,0,6,,,,,,,,,,,,,,,1,,,74,0
19529,note_on,,89,0,9,,,,,,,,,,,,,,,4,,,47,0
19529,note_on,,89,0,8,,,,,,,,,,,,,,,3,,,62,0
19529,note_on,,89,0,7,,,,,,,,,,,,,,,2,,,67,0
19544,note_on,,104,0,10,,,,,,,,,,,,,,,5,,,67,0
19544,note_on,,0,0,10,,,,,,,,,,,,,,,5,,,47,0
19544,note_on,,0,0,10,,,,,,,,,,,,,,,5,,,62,0
19544,note_on,,0,0,10,,,,,,,,,,,,,,,5,,,59,0
19547,note_on,,47,0,5,,,,,,,,,,,,,,,0,,,79,0
19560,note_on,,31,0,6,,,,,,,,,,,,,,,1,,,67,76
19560,note_on,,0,0,10,,,,,,,,,,,,,,,5,,,67,76
19560,note_on,,16,0,10,,,,,,,,,,,,,,,5,,,55,76
19560,note_on,,0,0,10,,,,,,,,,,,,,,,5,,,71,76
19560,note_on,,13,0,5,,,,,,,,,,,,,,,0,,,74,76
19560,note_on,,0,0,10,,,,,,,,,,,,,,,5,,,74,76
19560,note_on,,31,0,9,,,,,,,,,,,,,,,4,,,55,76
19619,note_on,,59,0,5,,,,,,,,,,,,,,,0,,,74,0
19620,note_on,,1,0,5,,,,,,,,,,,,,,,0,,,73,76
19649,note_on,,89,0,6,,,,,,,,,,,,,,,1,,,67,0
19649,note_on,,89,0,9,,,,,,,,,,,,,,,4,,,55,0
19664,note_on,,104,0,10,,,,,,,,,,,,,,,5,,,55,0
19664,note_on,,0,0,10,,,,,,,,,,,,,,,5,,,67,0
19664,note_on,,0,0,10,,,,,,,,,,,,,,,5,,,71,0
19664,note_on,,0,0,10,,,,,,,,,,,,,,,5,,,74,0
19679,note_on,,59,0,5,,,,,,,,,,,,,,,0,,,73,0
19680,note_on,,31,0,6,,,,,,,,,,,,,,,1,,,74,76
19680,note_on,,31,0,9,,,,,,,,,,,,,,,4,,,45,76
19680,note_on,,16,0,10,,,,,,,,,,,,,,,5,,,66,76
19680,note_on,,0,0,10,,,,,,,,,,,,,,,5,,,57,76
19680,note_on,,151,0,7,,,,,,,,,,,,,,,2,,,66,76
19680,note_on,,0,0,10,,,,,,,,,,,,,,,5,,,45,76
19680,note_on,,0,0,10,,,,,,,,,,,,,,,5,,,62,76
19680,note_on,,151,0,8,,,,,,,,,,,,,,,3,,,66,76
19680,note_on,,1,0,5,,,,,,,,,,,,,,,0,,,74,76
19727,note_on,,47,0,5,,,,,,,,,,,,,,,0,,,74,0
19740,note_on,,13,0,5,,,,,,,,,,,,,,,0,,,81,76
19769,note_on,,89,0,9,,,,,,,,,,,,,,,4,,,45,0
19769,note_on,,89,0,7,,,,,,,,,,,,,,,2,,,66,0
19769,note_on,,89,0,8,,,,,,,,,,,,,,,3,,,66,0
19769,note_on,,89,0,6,,,,,,,,,,,,,,,1,,,74,0
19784,note_on,,104,0,10,,,,,,,,,,,,,,,5,,,66,0
19784,note_on,,0,0,10,,,,,,,,,,,,,,,5,,,57,0
19784,note_on,,0,0,10,,,,,,,,,,,,,,,5,,,45,0
19784,note_on,,0,0,10,,,,,,,,,,,,,,,5,,,62,0
19787,note_on,,47,0,5,,,,,,,,,,,,,,,0,,,81,0
19800,note_on,,16,0,10,,,,,,,,,,,,,,,5,,,78,76
19800,note_on,,13,0,5,,,,,,,,,,,,,,,0,,,74,76
19800,note_on,,0,0,10,,,,,,,,,,,,,,,5,,,74,76
19800,note_on,,0,0,10,,,,,,,,,,,,,,,5,,,57,76
19800,note_on,,31,0,6,,,,,,,,,,,,,,,1,,,66,76
19800,note_on,,0,0,10,,,,,,,,,,,,,,,5,,,69,76
19800,note_on,,31,0,9,,,,,,,,,,,,,,,4,,,57,76
19859,note_on,,59,0,5,,,,,,,,,,,,,,,0,,,74,0
19860,note_on,,1,0,5,,,,,,,,,,,,,,,0,,,73,76
19889,note_on,,89,0,9,,,,,,,,,,,,,,,4,,,57,0
19889,note_on,,89,0,6,,,,,,,,,,,,,,,1,,,66,0
19904,note_on,,0,0,10,,,,,,,,,,,,,,,5,,,57,0
19904,note_on,,104,0,10,,,,,,,,,,,,,,,5,,,78,0
19904,note_on,,0,0,10,,,,,,,,,,,,,,,5,,,69,0
19904,note_on,,0,0,10,,,,,,,,,,,,,,,5,,,74,0
19919,note_on,,59,0,5,,,,,,,,,,,,,,,0,,,73,0
19920,note_on,,0,0,10,,,,,,,,,,,,,,,5,,,43,76
19920,note_on,,0,0,10,,,,,,,,,,,,,,,5,,,55,76
19920,note_on,,0,0,10,,,,,,,,,,,,,,,5,,,62,76
19920,note_on,,0,0,10,,,,,,,,,,,,,,,5,,,59,76
19920,note_on,,16,0,10,,,,,,,,,,,,,,,5,,,64,76
19920,note_on,,151,0,8,,,,,,,,,,,,,,,3,,,67,76
19920,note_on,,31,0,6,,,,,,,,,,,,,,,1,,,74,76
19920,note_on,,151,0,7,,,,,,,,,,,,,,,2,,,64,76
19920,note_on,,1,0,5,,,,,,,,,,,,,,,0,,,74,76
19920,note_on,,31,0,9,,,,,,,,,,,,,,,4,,,43,76
19967,note_on,,47,0,5,,,,,,,,,,,,,,,0,,,74,0
19980,note_on,,13,0,5,,,,,,,,,,,,,,,0,,,83,76
20009,note_on,,89,0,6,,,,,,,,,,,,,,,1,,,74,0
20009,note_on,,89,0,7,,,,,,,,,,,,,,,2,,,64,0
20009,note_on,,89,0,8,,,,,,,,,,,,,,,3,,,67,0
20009,note_on,,89,0,9,,,,,,,,,,,,,,,4,,,43,0
20024,note_on,,0,0,10,,,,,,,,,,,,,,,5,,,55,0
20024,note_on,,104,0,10,,,,,,,,,,,,,,,5,,,64,0
20024,note_on,,0,0,10,,,,,,,,,,,,,,,5,,,62,0
20024,note_on,,0,0,10,,,,,,,,,,,,,,,5,,,59,0
20024,note_on,,0,0,10,,,,,,,,,,,,,,,5,,,43,0
20027,note_on,,47,0,5,,,,,,,,,,,,,,,0,,,83,0
20040,note_on,,16,0,10,,,,,,,,,,,,,,,5,,,74,76
20040,note_on,,31,0,6,,,,,,,,,,,,,,,1,,,64,76
20040,note_on,,31,0,9,,,,,,,,,,,,,,,4,,,59,76
20040,note_on,,0,0,10,,,,,,,,,,,,,,,5,,,59,76
20040,note_on,,0,0,10,,,,,,,,,,,,,,,5,,,78,76
20040,note_on,,0,0,10,,,,,,,,,,,,,,,5,,,71,76
20040,note_on,,13,0,5,,,,,,,,,,,,,,,0,,,74,76
20099,note_on,,59,0,5,,,,,,,,,,,,,,,0,,,74,0
20100,note_on,,1,0,5,,,,,,,,,,,,,,,0,,,73,76
20129,note_on,,89,0,9,,,,,,,,,,,,,,,4,,,59,0
20129,note_on,,89,0,6,,,,,,,,,,,,,,,1,,,64,0
20144,note_on,,0,0,10,,,,,,,,,,,,,,,5,,,59,0
20144,note_on,,0,0,10,,,,,,,,,,,,,,,5,,,71,0
20144,note_on,,0,0,10,,,,,,,,,,,,,,,5,,,78,0
20144,note_on,,104,0,10,,,,,,,,,,,,,,,5,,,74,0
20159,note_on,,59,0,5,,,,,,,,,,,,,,,0,,,73,0
20160,note_on,,1,0,5,,,,,,,,,,,,,,,0,,,74,76
20160,note_on,,151,0,7,,,,,,,,,,,,,,,2,,,71,76
20160,note_on,,151,0,8,,,,,,,,,,,,,,,3,,,64,76
20160,note_on,,0,0,10,,,,,,,,,,,,,,,5,,,71,76
20160,note_on,,31,0,9,,,,,,,,,,,,,,,4,,,55,76
20160,note_on,,31,0,6,,,,,,,,,,,,,,,1,,,74,76
20160,note_on,,0,0,10,,,,,,,,,,,,,,,5,,,55,76
20160,note_on,,16,0,10,,,,,,,,,,,,,,,5,,,67,76
20160,note_on,,0,0,10,,,,,,,,,,,,,,,5,,,76,76
20160,note_on,,0,0,10,,,,,,,,,,,,,,,5,,,74,76
20207,note_on,,47,0,5,,,,,,,,,,,,,,,0,,,74,0
20220,note_on,,13,0,5,,,,,,,,,,,,,,,0,,,83,76
20249,note_on,,89,0,8,,,,,,,,,,,,,,,3,,,64,0
20249,note_on,,89,0,6,,,,,,,,,,,,,,,1,,,74,0
20249,note_on,,89,0,7,,,,,,,,,,,,,,,2,,,71,0
20249,note_on,,89,0,9,,,,,,,,,,,,,,,4,,,55,0
20264,note_on,,104,0,10,,,,,,,,,,,,,,,5,,,67,0
20264,note_on,,0,0,10,,,,,,,,,,,,,,,5,,,55,0
20264,note_on,,0,0,10,,,,,,,,,,,,,,,5,,,74,0
20264,note_on,,0,0,10,,,,,,,,,,,,,,,5,,,76,0
20264,note_on,,0,0,10,,,,,,,,,,,,,,,5,,,71,0
20267,note_on,,47,0,5,,,,,,,,,,,,,,,0,,,83,0
20280,note_on,,31,0,9,,,,,,,,,,,,,,,4,,,52,76
20280,note_on,,0,0,10,,,,,,,,,,,,,,,5,,,73,76
20280,note_on,,13,0,5,,,,,,,,,,,,,,,0,,,81,76
20280,note_on,,16,0,10,,,,,,,,,,,,,,,5,,,67,76
20280,note_on,,0,0,10,,,,,,,,,,,,,,,5,,,64,76
20280,note_on,,0,0,10,,,,,,,,,,,,,,,5,,,69,76
20280,note_on,,31,0,8,,,,,,,,,,,,,,,3,,,67,76
20280,note_on,,31,0,7,,,,,,,,,,,,,,,2,,,76,76
20280,note_on,,0,0,10,,,,,,,,,,,,,,,5,,,52,76
20280,note_on,,31,0,6,,,,,,,,,,,,,,,1,,,73,76
20327,note_on,,47,0,5,,,,,,,,,,,,,,,0,,,81,0
20340,note_on,,13,0,5,,,,,,,,,,,,,,,0,,,79,76
20369,note_on,,89,0,8,,,,,,,,,,,,,,,3,,,67,0
20369,note_on,,89,0,6,,,,,,,,,,,,,,,1,,,73,0
20369,note_on,,89,0,7,,,,,,,,,,,,,,,2,,,76,0
20369,note_on,,89,0,9,,,,,,,,,,,,,,,4,,,52,0
20384,note_on,,0,0,10,,,,,,,,,,,,,,,5,,,69,0
20384,note_on,,0,0,10,,,,,,,,,,,,,,,5,,,64,0
20384,note_on,,0,0,10,,,,,,,,,,,,,,,5,,,73,0
20384,note_on,,0,0,10,,,,,,,,,,,,,,,5,,,52,0
20384,note_on,,104,0,10,,,,,,,,,,,,,,,5,,,67,0
20387,note_on,,47,0,5,,,,,,,,,,,,,,,0,,,79,0
20400,note_on,,13,0,5,,,,,,,,,,,,,,,0,,,81,76
20400,note_on,,31,0,8,,,,,,,,,,,,,,,3,,,66,76
20400,note_on,,16,0,10,,,,,,,,,,,,,,,5,,,74,76
20400,note_on,,31,0,9,,,,,,,,,,,,,,,4,,,54,76
20400,note_on,,31,0,7,,,,,,,,,,,,,,,2,,,69,76
20400,note_on,,0,0,10,,,,,,,,,,,,,,,5,,,54,76
20400,note_on,,31,0,6,,,,,,,,,,,,,,,1,,,74,76
20400,note_on,,0,0,10,,,,,,,,,,,,,,,5,,,69,76
20400,note_on,,0,0,10,,,,,,,,,,,,,,,5,,,66,76
20447,note_on,,47,0,5,,,,,,,,,,,,,,,0,,,81,0
20460,note_on,,13,0,5,,,,,,,,,,,,,,,0,,,78,76
20489,note_on,,89,0,7,,,,,,,,,,,,,,,2,,,69,0
20489,note_on,,89,0,6,,,,,,,,,,,,,,,1,,,74,0
20489,note_on,,89,0,8,,,,,,,,,,,,,,,3,,,66,0
20489,note_on,,89,0,9,,,,,,,,,,,,,,,4,,,54,0
20504,note_on,,0,0,10,,,,,,,,,,,,,,,5,,,69,0
20504,note_on,,0,0,10,,,,,,,,,,,,,,,5,,,66,0
20504,note_on,,0,0,10,,,,,,,,,,,,,,,5,,,54,0
20504,note_on,,104,0,10,,,,,,,,,,,,,,,5,,,74,0
20507,note_on,,47,0,5,,,,,,,,,,,,,,,0,,,78,0
20520,note_on,,16,0,10,,,,,,,,,,,,,,,5,,,74,76
20520,note_on,,0,0,10,,,,,,,,,,,,,,,5,,,76,76
20520,note_on,,0,0,10,,,,,,,,,,,,,,,5,,,71,76
20520,note_on,,31,0,8,,,,,,,,,,,,,,,3,,,71,76
20520,note_on,,31,0,9,,,,,,,,,,,,,,,4,,,55,76
20520,note_on,,0,0,10,,,,,,,,,,,,,,,5,,,55,76
20520,note_on,,13,0,5,,,,,,,,,,,,,,,0,,,76,76
20520,note_on,,31,0,7,,,,,,,,,,,,,,,2,,,67,76
20520,note_on,,31,0,6,,,,,,,,,,,,,,,1,,,76,76
20520,note_on,,0,0,10,,,,,,,,,,,,,,,5,,,67,76
20567,note_on,,47,0,5,,,,,,,,,,,,,,,0,,,76,0
20580,note_on,,13,0,5,,,,,,,,,,,,,,,0,,,74,76
20609,note_on,,89,0,6,,,,,,,,,,,,,,,1,,,76,0
20609,note_on,,89,0,9,,,,,,,,,,,,,,,4,,,55,0
20609,note_on,,89,0,7,,,,,,,,,,,,,,,2,,,67,0
20609,note_on,,89,0,8,,,,,,,,,,,,,,,3,,,71,0
20624,note_on,,0,0,10,,,,,,,,,,,,,,,5,,,55,0
20624,note_on,,104,0,10,,,,,,,,,,,,,,,5,,,74,0
20624,note_on,,0,0,10,,,,,,,,,,,,,,,5,,,67,0
20624,note_on,,0,0,10,,,,,,,,,,,,,,,5,,,76,0
20624,note_on,,0,0,10,,,,,,,,,,,,,,,5,,,71,0
20627,note_on,,47,0,5,,,,,,,,,,,,,,,0,,,74,0
20640,note_on,,13,0,5,,,,,,,,,,,,,,,0,,,78,76
20640,note_on,,31,0,6,,,,,,,,,,,,,,,1,,,69,76
20640,note_on,,31,0,7,,,,,,,,,,,,,,,2,,,66,76
20640,note_on,,0,0,10,,,,,,,,,,,,,,,5,,,69,76
20640,note_on,,0,0,10,,,,,,,,,,,,,,,5,,,78,76
20640,note_on,,31,0,8,,,,,,,,,,,,,,,3,,,69,76
20640,note_on,,16,0,10,,,,,,,,,,,,,,,5,,,74,76
20640,note_on,,31,0,9,,,,,,,,,,,,,,,4,,,57,76
20640,note_on,,0,0,10,,,,,,,,,,,,,,,5,,,57,76
20729,note_on,,89,0,8,,,,,,,,,,,,,,,3,,,69,0
20729,note_on,,89,0,7,,,,,,,,,,,,,,,2,,,66,0
20729,note_on,,89,0,9,,,,,,,,,,,,,,,4,,,57,0
20729,note_on,,89,0,6,,,,,,,,,,,,,,,1,,,69,0
20744,note_on,,104,0,10,,,,,,,,,,,,,,,5,,,74,0
20744,note_on,,0,0,10,,,,,,,,,,,,,,,5,,,57,0
20744,note_on,,0,0,10,,,,,,,,,,,,,,,5,,,78,0
20744,note_on,,0,0,10,,,,,,,,,,,,,,,5,,,69,0
20744,note_on,,104,0,5,,,,,,,,,,,,,,,0,,,78,0
20760,note_on,,31,0,8,,,,,,,,,,,,,,,3,,,67,76
20760,note_on,,31,0,9,,,,,,,,,,,,,,,4,,,45,76
20760,note_on,,31,0,6,,,,,,,,,,,,,,,1,,,73,76
20760,note_on,,31,0,7,,,,,,,,,,,,,,,2,,,69,76
20760,note_on,,16,0,5,,,,,,,,,,,,,,,0,,,76,76
20760,note_on,,0,0,10,,,,,,,,,,,,,,,5,,,61,76
20760,note_on,,0,0,10,,,,,,,,,,,,,,,5,,,57,76
20760,note_on,,16,0,10,,,,,,,,,,,,,,,5,,,45,76
20760,note_on,,0,0,10,,,,,,,,,,,,,,,5,,,64,76
20789,note_on,,29,0,5,,,,,,,,,,,,,,,0,,,76,0
20790,note_on,,1,0,5,,,,,,,,,,,,,,,0,,,78,76
20819,note_on,,29,0,5,,,,,,,,,,,,,,,0,,,78,0
20820,note_on,,1,0,5,,,,,,,,,,,,,,,0,,,74,76
20849,note_on,,89,0,8,,,,,,,,,,,,,,,3,,,67,0
20849,note_on,,89,0,6,,,,,,,,,,,,,,,1,,,73,0
20849,note_on,,29,0,5,,,,,,,,,,,,,,,0,,,74,0
20849,note_on,,89,0,9,,,,,,,,,,,,,,,4,,,45,0
20849,note_on,,89,0,7,,,,,,,,,,,,,,,2,,,69,0
20850,note_on,,1,0,5,,,,,,,,,,,,,,,0,,,76,76
20864,note_on,,0,0,10,,,,,,,,,,,,,,,5,,,61,0
20864,note_on,,0,0,10,,,,,,,,,,,,,,,5,,,57,0
20864,note_on,,104,0,10,,,,,,,,,,,,,,,5,,,45,0
20864,note_on,,0,0,10,,,,,,,,,,,,,,,5,,,64,0
20879,note_on,,29,0,5,,,,,,,,,,,,,,,0,,,76,0
20880,note_on,,31,0,6,,,,,,,,,,,,,,,1,,,74,76
20880,note_on,,31,0,7,,,,,,,,,,,,,,,2,,,69,76
20880,note_on,,31,0,9,,,,,,,,,,,,,,,4,,,50,76
20880,note_on,,0,0,10,,,,,,,,,,,,,,,5,,,66,76
20880,note_on,,0,0,10,,,,,,,,,,,,,,,5,,,50,76
20880,note_on,,0,0,10,,,,,,,,,,,,,,,5,,,62,76
20880,note_on,,16,0,10,,,,,,,,,,,,,,,5,,,69,76
20880,note_on,,1,0,5,,,,,,,,,,,,,,,0,,,74,76
20880,note_on,,31,0,8,,,,,,,,,,,,,,,3,,,66,76
20969,note_on,,89,0,9,,,,,,,,,,,,,,,4,,,50,0
20984,note_on,,0,0,10,,,,,,,,,,,,,,,5,,,66,0
20984,note_on,,0,0,10,,,,,,,,,,,,,,,5,,,62,0
20984,note_on,,104,0,10,,,,,,,,,,,,,,,5,,,69,0
20984,note_on,,0,0,10,,,,,,,,,,,,,,,5,,,50,0
21000,note_on,,31,0,9,,,,,,,,,,,,,,,4,,,45,76
21000,note_on,,0,0,10,,,,,,,,,,,,,,,5,,,64,76
21000,note_on,,16,0,10,,,,,,,,,,,,,,,5,,,61,76
21000,note_on,,0,0,10,,,,,,,,,,,,,,,5,,,45,76
21000,note_on,,0,0,10,,,,,,,,,,,,,,,5,,,57,76
21044,note_on,,44,0,9,,,,,,,,,,,,,,,4,,,45,0
21044,note_on,,44,0,10,,,,,,,,,,,,,,,5,,,61,0
21044,note_on,,0,0,10,,,,,,,,,,,,,,,5,,,64,0
21044,note_on,,0,0,10,,,,,,,,,,,,,,,5,,,57,0
21044,note_on,,0,0,10,,,,,,,,,,,,,,,5,,,45,0
21060,note_on,,0,0,10,,,,,,,,,,,,,,,5,,,54,76
21060,note_on,,0,0,10,,,,,,,,,,,,,,,5,,,61,76
21060,note_on,,16,0,9,,,,,,,,,,,,,,,4,,,42,76
21060,note_on,,0,0,10,,,,,,,,,,,,,,,5,,,42,76
21060,note_on,,16,0,10,,,,,,,,,,,,,,,5,,,57,76
21104,note_on,,0,0,10,,,,,,,,,,,,,,,5,,,54,0
21104,note_on,,44,0,9,,,,,,,,,,,,,,,4,,,42,0
21104,note_on,,44,0,10,,,,,,,,,,,,,,,5,,,57,0
21104,note_on,,0,0,10,,,,,,,,,,,,,,,5,,,42,0
21104,note_on,,0,0,10,,,,,,,,,,,,,,,5,,,61,0
21104,note_on,,224,0,6,,,,,,,,,,,,,,,1,,,74,0
21104,note_on,,224,0,8,,,,,,,,,,,,,,,3,,,66,0
21104,note_on,,224,0,7,,,,,,,,,,,,,,,2,,,69,0
21104,note_on,,224,0,5,,,,,,,,,,,,,,,0,,,74,0
21120,note_on,,0,0,10,,,,,,,,,,,,,,,5,,,50,76
21120,note_on,,0,0,10,,,,,,,,,,,,,,,5,,,38,76
21120,note_on,,16,0,10,,,,,,,,,,,,,,,5,,,57,76
21120,note_on,,0,0,10,,,,,,,,,,,,,,,5,,,54,76
21120,note_on,,16,0,7,,,,,,,,,,,,,,,2,,,69,76
21120,note_on,,16,0,5,,,,,,,,,,,,,,,0,,,78,76
21120,note_on,,16,0,9,,,,,,,,,,,,,,,4,,,38,76
21120,note_on,,16,0,6,,,,,,,,,,,,,,,1,,,78,76
21120,note_on,,16,0,8,,,,,,,,,,,,,,,3,,,74,76
21167,note_on,,47,0,6,,,,,,,,,,,,,,,1,,,78,0
21180,note_on,,13,0,6,,,,,,,,,,,,,,,1,,,76,76
21209,note_on,,89,0,5,,,,,,,,,,,,,,,0,,,78,0
21209,note_on,,89,0,7,,,,,,,,,,,,,,,2,,,69,0
21209,note_on,,89,0,8,,,,,,,,,,,,,,,3,,,74,0
21209,note_on,,89,0,9,,,,,,,,,,,,,,,4,,,38,0
21224,note_on,,0,0,10,,,,,,,,,,,,,,,5,,,50,0
21224,note_on,,0,0,10,,,,,,,,,,,,,,,5,,,54,0
21224,note_on,,104,0,10,,,,,,,,,,,,,,,5,,,57,0
21224,note_on,,0,0,10,,,,,,,,,,,,,,,5,,,38,0
21227,note_on,,47,0,6,,,,,,,,,,,,,,,1,,,76,0
21240,note_on,,16,0,10,,,,,,,,,,,,,,,5,,,81,76
21240,note_on,,31,0,5,,,,,,,,,,,,,,,0,,,78,76
21240,note_on,,31,0,7,,,,,,,,,,,,,,,2,,,74,76
21240,note_on,,0,0,10,,,,,,,,,,,,,,,5,,,62,76
21240,note_on,,13,0,6,,,,,,,,,,,,,,,1,,,78,76
21240,note_on,,0,0,10,,,,,,,,,,,,,,,5,,,74,76
21240,note_on,,31,0,8,,,,,,,,,,,,,,,3,,,69,76
21240,note_on,,31,0,9,,,,,,,,,,,,,,,4,,,62,76
21240,note_on,,0,0,10,,,,,,,,,,,,,,,5,,,78,76
21284,note_on,,0,0,10,,,,,,,,,,,,,,,5,,,78,0
21284,note_on,,0,0,10,,,,,,,,,,,,,,,5,,,74,0
21284,note_on,,44,0,10,,,,,,,,,,,,,,,5,,,81,0
21284,note_on,,44,0,9,,,,,,,,,,,,,,,4,,,62,0
21284,note_on,,0,0,10,,,,,,,,,,,,,,,5,,,62,0
21300,note_on,,16,0,10,,,,,,,,,,,,,,,5,,,76,76
21300,note_on,,0,0,10,,,,,,,,,,,,,,,5,,,69,76
21300,note_on,,0,0,10,,,,,,,,,,,,,,,5,,,73,76
21300,note_on,,0,0,10,,,,,,,,,,,,,,,5,,,57,76
21300,note_on,,16,0,9,,,,,,,,,,,,,,,4,,,57,76
21329,note_on,,89,0,7,,,,,,,,,,,,,,,2,,,74,0
21329,note_on,,89,0,8,,,,,,,,,,,,,,,3,,,69,0
21329,note_on,,89,0,5,,,,,,,,,,,,,,,0,,,78,0
21344,note_on,,44,0,10,,,,,,,,,,,,,,,5,,,76,0
21344,note_on,,0,0,10,,,,,,,,,,,,,,,5,,,69,0
21344,note_on,,0,0,10,,,,,,,,,,,,,,,5,,,73,0
21344,note_on,,0,0,10,,,,,,,,,,,,,,,5,,,57,0
21344,note_on,,44,0,9,,,,,,,,,,,,,,,4,,,57,0
21360,note_on,,0,0,10,,,,,,,,,,,,,,,5,,,69,76
21360,note_on,,0,0,10,,,,,,,,,,,,,,,5,,,54,76
21360,note_on,,0,0,10,,,,,,,,,,,,,,,5,,,66,76
21360,note_on,,31,0,5,,,,,,,,,,,,,,,0,,,78,76
21360,note_on,,31,0,7,,,,,,,,,,,,,,,2,,,69,76
21360,note_on,,16,0,9,,,,,,,,,,,,,,,4,,,54,76
21360,note_on,,31,0,8,,,,,,,,,,,,,,,3,,,62,76
21360,note_on,,16,0,10,,,,,,,,,,,,,,,5,,,74,76
21407,note_on,,167,0,6,,,,,,,,,,,,,,,1,,,78,0
21420,note_on,,13,0,6,,,,,,,,,,,,,,,1,,,76,76
21449,note_on,,89,0,9,,,,,,,,,,,,,,,4,,,54,0
21449,note_on,,89,0,8,,,,,,,,,,,,,,,3,,,62,0
21449,note_on,,89,0,7,,,,,,,,,,,,,,,2,,,69,0
21449,note_on,,89,0,5,,,,,,,,,,,,,,,0,,,78,0
21464,note_on,,104,0,10,,,,,,,,,,,,,,,5,,,74,0
21464,note_on,,0,0,10,,,,,,,,,,,,,,,5,,,69,0
21464,note_on,,0,0,10,,,,,,,,,,,,,,,5,,,54,0
21464,note_on,,0,0,10,,,,,,,,,,,,,,,5,,,66,0
21467,note_on,,47,0,6,,,,,,,,,,,,,,,1,,,76,0
21480,note_on,,0,0,10,,,,,,,,,,,,,,,5,,,73,76
21480,note_on,,31,0,8,,,,,,,,,,,,,,,3,,,69,76
21480,note_on,,31,0,7,,,,,,,,,,,,,,,2,,,74,76
21480,note_on,,31,0,5,,,,,,,,,,,,,,,0,,,78,76
21480,note_on,,13,0,6,,,,,,,,,,,,,,,1,,,78,76
21480,note_on,,31,0,9,,,,,,,,,,,,,,,4,,,57,76
21480,note_on,,16,0,10,,,,,,,,,,,,,,,5,,,69,76
21480,note_on,,0,0,10,,,,,,,,,,,,,,,5,,,76,76
21480,note_on,,0,0,10,,,,,,,,,,,,,,,5,,,57,76
21524,note_on,,0,0,10,,,,,,,,,,,,,,,5,,,73,0
21524,note_on,,0,0,10,,,,,,,,,,,,,,,5,,,57,0
21524,note_on,,0,0,10,,,,,,,,,,,,,,,5,,,76,0
21524,note_on,,44,0,9,,,,,,,,,,,,,,,4,,,57,0
21524,note_on,,44,0,10,,,,,,,,,,,,,,,5,,,69,0
21540,note_on,,16,0,10,,,,,,,,,,,,,,,5,,,69,76
21540,note_on,,0,0,10,,,,,,,,,,,,,,,5,,,54,76
21540,note_on,,0,0,10,,,,,,,,,,,,,,,5,,,74,76
21540,note_on,,0,0,10,,,,,,,,,,,,,,,5,,,66,76
21540,note_on,,16,0,9,,,,,,,,,,,,,,,4,,,54,76
21569,note_on,,89,0,7,,,,,,,,,,,,,,,2,,,74,0
21569,note_on,,89,0,8,,,,,,,,,,,,,,,3,,,69,0
21569,note_on,,89,0,5,,,,,,,,,,,,,,,0,,,78,0
21584,note_on,,44,0,10,,,,,,,,,,,,,,,5,,,69,0
21584,note_on,,0,0,10,,,,,,,,,,,,,,,5,,,54,0
21584,note_on,,0,0,10,,,,,,,,,,,,,,,5,,,66,0
21584,note_on,,44,0,9,,,,,,,,,,,,,,,4,,,54,0
21584,note_on,,0,0,10,,,,,,,,,,,,,,,5,,,74,0
21600,note_on,,0,0,10,,,,,,,,,,,,,,,5,,,50,76
21600,note_on,,31,0,8,,,,,,,,,,,,,,,3,,,66,76
21600,note_on,,16,0,9,,,,,,,,,,,,,,,4,,,50,76
21600,note_on,,31,0,7,,,,,,,,,,,,,,,2,,,69,76
21600,note_on,,16,0,10,,,,,,,,,,,,,,,5,,,66,76
21600,note_on,,0,0,10,,,,,,,,,,,,,,,5,,,62,76
21600,note_on,,0,0,10,,,,,,,,,,,,,,,5,,,69,76
21600,note_on,,31,0,5,,,,,,,,,,,,,,,0,,,86,76
21647,note_on,,167,0,6,,,,,,,,,,,,,,,1,,,78,0
21660,note_on,,13,0,6,,,,,,,,,,,,,,,1,,,86,76
21689,note_on,,89,0,8,,,,,,,,,,,,,,,3,,,66,0
21689,note_on,,89,0,9,,,,,,,,,,,,,,,4,,,50,0
21689,note_on,,89,0,7,,,,,,,,,,,,,,,2,,,69,0
21704,note_on,,0,0,10,,,,,,,,,,,,,,,5,,,50,0
21704,note_on,,104,0,5,,,,,,,,,,,,,,,0,,,86,0
21704,note_on,,0,0,10,,,,,,,,,,,,,,,5,,,69,0
21704,note_on,,0,0,10,,,,,,,,,,,,,,,5,,,62,0
21704,note_on,,104,0,10,,,,,,,,,,,,,,,5,,,66,0
21707,note_on,,47,0,6,,,,,,,,,,,,,,,1,,,86,0
21720,note_on,,13,0,6,,,,,,,,,,,,,,,1,,,78,76
21720,note_on,,31,0,8,,,,,,,,,,,,,,,3,,,69,76
21720,note_on,,31,0,9,,,,,,,,,,,,,,,4,,,54,76
21720,note_on,,31,0,7,,,,,,,,,,,,,,,2,,,74,76
21720,note_on,,0,0,10,,,,,,,,,,,,,,,5,,,73,76
21720,note_on,,0,0,10,,,,,,,,,,,,,,,5,,,69,76
21720,note_on,,0,0,10,,,,,,,,,,,,,,,5,,,54,76
21720,note_on,,16,0,10,,,,,,,,,,,,,,,5,,,66,76
21720,note_on,,16,0,5,,,,,,,,,,,,,,,0,,,78,76
21764,note_on,,0,0,10,,,,,,,,,,,,,,,5,,,73,0
21764,note_on,,0,0,10,,,,,,,,,,,,,,,5,,,54,0
21764,note_on,,44,0,9,,,,,,,,,,,,,,,4,,,54,0
21764,note_on,,44,0,10,,,,,,,,,,,,,,,5,,,66,0
21764,note_on,,0,0,10,,,,,,,,,,,,,,,5,,,69,0
21780,note_on,,0,0,10,,,,,,,,,,,,,,,5,,,69,76
21780,note_on,,0,0,10,,,,,,,,,,,,,,,5,,,66,76
21780,note_on,,16,0,10,,,,,,,,,,,,,,,5,,,62,76
21780,note_on,,16,0,9,,,,,,,,,,,,,,,4,,,50,76
21780,note_on,,0,0,10,,,,,,,,,,,,,,,5,,,50,76
21809,note_on,,89,0,8,,,,,,,,,,,,,,,3,,,69,0
21809,note_on,,89,0,7,,,,,,,,,,,,,,,2,,,74,0
21824,note_on,,44,0,10,,,,,,,,,,,,,,,5,,,62,0
21824,note_on,,0,0,10,,,,,,,,,,,,,,,5,,,50,0
21824,note_on,,104,0,5,,,,,,,,,,,,,,,0,,,78,0
21824,note_on,,44,0,9,,,,,,,,,,,,,,,4,,,50,0
21824,note_on,,104,0,6,,,,,,,,,,,,,,,1,,,78,0
21824,note_on,,0,0,10,,,,,,,,,,,,,,,5,,,66,0
21824,note_on,,0,0,10,,,,,,,,,,,,,,,5,,,69,0
21840,note_on,,16,0,6,,,,,,,,,,,,,,,1,,,78,76
21840,note_on,,31,0,7,,,,,,,,,,,,,,,2,,,74,76
21840,note_on,,16,0,10,,,,,,,,,,,,,,,5,,,78,76
21840,note_on,,31,0,8,,,,,,,,,,,,,,,3,,,69,76
21840,note_on,,16,0,9,,,,,,,,,,,,,,,4,,,57,76
21840,note_on,,0,0,10,,,,,,,,,,,,,,,5,,,74,76
21840,note_on,,0,0,10,,,,,,,,,,,,,,,5,,,69,76
21840,note_on,,0,0,10,,,,,,,,,,,,,,,5,,,57,76
21840,note_on,,16,0,5,,,,,,,,,,,,,,,0,,,78,76
21869,note_on,,29,0,7,,,,,,,,,,,,,,,2,,,74,0
21869,note_on,,29,0,5,,,,,,,,,,,,,,,0,,,78,0
21869,note_on,,29,0,6,,,,,,,,,,,,,,,1,,,78,0
21870,note_on,,1,0,6,,,,,,,,,,,,,,,1,,,79,76
21870,note_on,,1,0,7,,,,,,,,,,,,,,,2,,,76,76
21870,note_on,,1,0,5,,,,,,,,,,,,,,,0,,,79,76
21899,note_on,,29,0,7,,,,,,,,,,,,,,,2,,,76,0
21899,note_on,,29,0,6,,,,,,,,,,,,,,,1,,,79,0
21899,note_on,,29,0,5,,,,,,,,,,,,,,,0,,,79,0
21900,note_on,,1,0,5,,,,,,,,,,,,,,,0,,,76,76
21900,note_on,,1,0,6,,,,,,,,,,,,,,,1,,,76,76
21900,note_on,,1,0,7,,,,,,,,,,,,,,,2,,,73,76
21929,note_on,,29,0,5,,,,,,,,,,,,,,,0,,,76,0
21929,note_on,,29,0,6,,,,,,,,,,,,,,,1,,,76,0
21929,note_on,,89,0,9,,,,,,,,,,,,,,,4,,,57,0
21929,note_on,,29,0,7,,,,,,,,,,,,,,,2,,,73,0
21930,note_on,,1,0,5,,,,,,,,,,,,,,,0,,,78,76
21930,note_on,,1,0,6,,,,,,,,,,,,,,,1,,,78,76
21930,note_on,,1,0,7,,,,,,,,,,,,,,,2,,,74,76
21944,note_on,,104,0,10,,,,,,,,,,,,,,,5,,,78,0
21944,note_on,,0,0,10,,,,,,,,,,,,,,,5,,,74,0
21944,note_on,,0,0,10,,,,,,,,,,,,,,,5,,,69,0
21944,note_on,,0,0,10,,,,,,,,,,,,,,,5,,,57,0
21959,note_on,,29,0,6,,,,,,,,,,,,,,,1,,,78,0
21959,note_on,,29,0,7,,,,,,,,,,,,,,,2,,,74,0
21959,note_on,,29,0,5,,,,,,,,,,,,,,,0,,,78,0
21960,note_on,,1,0,5,,,,,,,,,,,,,,,0,,,76,76
21960,note_on,,0,0,10,,,,,,,,,,,,,,,5,,,69,76
21960,note_on,,0,0,10,,,,,,,,,,,,,,,5,,,52,76
21960,note_on,,0,0,10,,,,,,,,,,,,,,,5,,,73,76
21960,note_on,,31,0,9,,,,,,,,,,,,,,,4,,,52,76
21960,note_on,,1,0,6,,,,,,,,,,,,,,,1,,,76,76
21960,note_on,,16,0,10,,,,,,,,,,,,,,,5,,,64,76
21960,note_on,,1,0,7,,,,,,,,,,,,,,,2,,,73,76
22004,note_on,,44,0,9,,,,,,,,,,,,,,,4,,,52,0
22004,note_on,,0,0,10,,,,,,,,,,,,,,,5,,,73,0
22004,note_on,,0,0,10,,,,,,,,,,,,,,,5,,,69,0
22004,note_on,,44,0,10,,,,,,,,,,,,,,,5,,,64,0
22004,note_on,,0,0,10,,,,,,,,,,,,,,,5,,,52,0
22020,note_on,,16,0,9,,,,,,,,,,,,,,,4,,,49,76
22020,note_on,,0,0,10,,,,,,,,,,,,,,,5,,,64,76
22020,note_on,,16,0,10,,,,,,,,,,,,,,,5,,,49,76
22020,note_on,,0,0,10,,,,,,,,,,,,,,,5,,,67,76
22020,note_on,,0,0,10,,,,,,,,,,,,,,,5,,,61,76
22064,note_on,,224,0,8,,,,,,,,,,,,,,,3,,,69,0
22064,note_on,,104,0,7,,,,,,,,,,,,,,,2,,,73,0
22064,note_on,,44,0,9,,,,,,,,,,,,,,,4,,,49,0
22064,note_on,,104,0,6,,,,,,,,,,,,,,,1,,,76,0
22064,note_on,,44,0,10,,,,,,,,,,,,,,,5,,,49,0
22064,note_on,,0,0,10,,,,,,,,,,,,,,,5,,,67,0
22064,note_on,,0,0,10,,,,,,,,,,,,,,,5,,,61,0
22064,note_on,,0,0,10,,,,,,,,,,,,,,,5,,,64,0
22064,note_on,,104,0,5,,,,,,,,,,,,,,,0,,,76,0
22080,note_on,,16,0,6,,,,,,,,,,,,,,,1,,,76,76
22080,note_on,,16,0,5,,,,,,,,,,,,,,,0,,,76,76
22080,note_on,,16,0,8,,,,,,,,,,,,,,,3,,,73,76
22080,note_on,,16,0,10,,,,,,,,,,,,,,,5,,,61,76
22080,note_on,,0,0,10,,,,,,,,,,,,,,,5,,,58,76
22080,note_on,,0,0,10,,,,,,,,,,,,,,,5,,,66,76
22080,note_on,,0,0,10,,,,,,,,,,,,,,,5,,,46,76
22080,note_on,,16,0,7,,,,,,,,,,,,,,,2,,,66,76
22080,note_on,,0,0,10,,,,,,,,,,,,,,,5,,,64,76
22080,note_on,,16,0,9,,,,,,,,,,,,,,,4,,,46,76
22127,note_on,,47,0,6,,,,,,,,,,,,,,,1,,,76,0
22140,note_on,,13,0,6,,,,,,,,,,,,,,,1,,,74,76
22169,note_on,,89,0,5,,,,,,,,,,,,,,,0,,,76,0
22169,note_on,,89,0,7,,,,,,,,,,,,,,,2,,,66,0
22169,note_on,,89,0,8,,,,,,,,,,,,,,,3,,,73,0
22169,note_on,,89,0,9,,,,,,,,,,,,,,,4,,,46,0
22184,note_on,,0,0,10,,,,,,,,,,,,,,,5,,,46,0
22184,note_on,,0,0,10,,,,,,,,,,,,,,,5,,,66,0
22184,note_on,,0,0,10,,,,,,,,,,,,,,,5,,,58,0
22184,note_on,,0,0,10,,,,,,,,,,,,,,,5,,,64,0
22184,note_on,,104,0,10,,,,,,,,,,,,,,,5,,,61,0
22187,note_on,,47,0,6,,,,,,,,,,,,,,,1,,,74,0
22200,note_on,,31,0,5,,,,,,,,,,,,,,,0,,,76,76
22200,note_on,,0,0,10,,,,,,,,,,,,,,,5,,,82,76
22200,note_on,,0,0,10,,,,,,,,,,,,,,,5,,,76,76
22200,note_on,,16,0,10,,,,,,,,,,,,,,,5,,,64,76
22200,note_on,,31,0,9,,,,,,,,,,,,,,,4,,,64,76
22200,note_on,,0,0,10,,,,,,,,,,,,,,,5,,,85,76
22200,note_on,,13,0,6,,,,,,,,,,,,,,,1,,,76,76
22200,note_on,,31,0,8,,,,,,,,,,,,,,,3,,,70,76
22200,note_on,,31,0,7,,,,,,,,,,,,,,,2,,,73,76
22244,note_on,,44,0,10,,,,,,,,,,,,,,,5,,,64,0
22244,note_on,,44,0,9,,,,,,,,,,,,,,,4,,,64,0
22244,note_on,,0,0,10,,,,,,,,,,,,,,,5,,,76,0
22244,note_on,,0,0,10,,,,,,,,,,,,,,,5,,,82,0
22244,note_on,,0,0,10,,,,,,,,,,,,,,,5,,,85,0
22260,note_on,,16,0,10,,,,,,,,,,,,,,,5,,,76,76
22260,note_on,,16,0,9,,,,,,,,,,,,,,,4,,,61,76
22260,note_on,,0,0,10,,,,,,,,,,,,,,,5,,,79,76
22260,note_on,,0,0,10,,,,,,,,,,,,,,,5,,,73,76
22260,note_on,,0,0,10,,,,,,,,,,,,,,,5,,,61,76
22289,note_on,,89,0,5,,,,,,,,,,,,,,,0,,,76,0
22289,note_on,,89,0,7,,,,,,,,,,,,,,,2,,,73,0
22289,note_on,,89,0,8,,,,,,,,,,,,,,,3,,,70,0
22304,note_on,,0,0,10,,,,,,,,,,,,,,,5,,,61,0
22304,note_on,,44,0,10,,,,,,,,,,,,,,,5,,,76,0
22304,note_on,,0,0,10,,,,,,,,,,,,,,,5,,,79,0
22304,note_on,,44,0,9,,,,,,,,,,,,,,,4,,,61,0
22304,note_on,,0,0,10,,,,,,,,,,,,,,,5,,,73,0
22320,note_on,,16,0,10,,,,,,,,,,,,,,,5,,,58,76
22320,note_on,,31,0,7,,,,,,,,,,,,,,,2,,,66,76
22320,note_on,,0,0,10,,,,,,,,,,,,,,,5,,,70,76
22320,note_on,,31,0,8,,,,,,,,,,,,,,,3,,,73,76
22320,note_on,,0,0,10,,,,,,,,,,,,,,,5,,,76,76
22320,note_on,,31,0,5,,,,,,,,,,,,,,,0,,,76,76
22320,note_on,,0,0,10,,,,,,,,,,,,,,,5,,,73,76
22320,note_on,,0,0,10,,,,,,,,,,,,,,,5,,,78,76
22320,note_on,,16,0,9,,,,,,,,,,,,,,,4,,,58,76
22367,note_on,,167,0,6,,,,,,,,,,,,,,,1,,,76,0
22380,note_on,,13,0,6,,,,,,,,,,,,,,,1,,,74,76
22409,note_on,,89,0,9,,,,,,,,,,,,,,,4,,,58,0
22409,note_on,,89,0,8,,,,,,,,,,,,,,,3,,,73,0
22409,note_on,,89,0,7,,,,,,,,,,,,,,,2,,,66,0
22424,note_on,,104,0,10,,,,,,,,,,,,,,,5,,,58,0
22424,note_on,,0,0,10,,,,,,,,,,,,,,,5,,,78,0
22424,note_on,,0,0,10,,,,,,,,,,,,,,,5,,,73,0
22424,note_on,,0,0,10,,,,,,,,,,,,,,,5,,,70,0
22424,note_on,,0,0,10,,,,,,,,,,,,,,,5,,,76,0
22424,note_on,,104,0,5,,,,,,,,,,,,,,,0,,,76,0
22427,note_on,,47,0,6,,,,,,,,,,,,,,,1,,,74,0
22440,note_on,,16,0,5,,,,,,,,,,,,,,,0,,,76,76
22440,note_on,,13,0,6,,,,,,,,,,,,,,,1,,,76,76
22440,note_on,,31,0,8,,,,,,,,,,,,,,,3,,,70,76
22440,note_on,,31,0,9,,,,,,,,,,,,,,,4,,,61,76
22440,note_on,,0,0,10,,,,,,,,,,,,,,,5,,,61,76
22440,note_on,,0,0,10,,,,,,,,,,,,,,,5,,,79,76
22440,note_on,,16,0,10,,,,,,,,,,,,,,,5,,,76,76
22440,note_on,,31,0,7,,,,,,,,,,,,,,,2,,,73,76
22440,note_on,,0,0,10,,,,,,,,,,,,,,,5,,,73,76
22484,note_on,,44,0,9,,,,,,,,,,,,,,,4,,,61,0
22484,note_on,,0,0,10,,,,,,,,,,,,,,,5,,,73,0
22484,note_on,,0,0,10,,,,,,,,,,,,,,,5,,,61,0
22484,note_on,,0,0,10,,,,,,,,,,,,,,,5,,,79,0
22484,note_on,,44,0,10,,,,,,,,,,,,,,,5,,,76,0
22500,note_on,,16,0,9,,,,,,,,,,,,,,,4,,,58,76
22500,note_on,,0,0,10,,,,,,,,,,,,,,,5,,,76,76
22500,note_on,,0,0,10,,,,,,,,,,,,,,,5,,,78,76
22500,note_on,,0,0,10,,,,,,,,,,,,,,,5,,,73,76
22500,note_on,,16,0,10,,,,,,,,,,,,,,,5,,,58,76
22500,note_on,,0,0,10,,,,,,,,,,,,,,,5,,,70,76
22529,note_on,,89,0,7,,,,,,,,,,,,,,,2,,,73,0
22529,note_on,,89,0,8,,,,,,,,,,,,,,,3,,,70,0
22544,note_on,,104,0,5,,,,,,,,,,,,,,,0,,,76,0
22544,note_on,,0,0,10,,,,,,,,,,,,,,,5,,,73,0
22544,note_on,,44,0,10,,,,,,,,,,,,,,,5,,,58,0
22544,note_on,,0,0,10,,,,,,,,,,,,,,,5,,,78,0
22544,note_on,,44,0,9,,,,,,,,,,,,,,,4,,,58,0
22544,note_on,,0,0,10,,,,,,,,,,,,,,,5,,,70,0
22544,note_on,,0,0,10,,,,,,,,,,,,,,,5,,,76,0
22560,note_on,,16,0,10,,,,,,,,,,,,,,,5,,,54,76
22560,note_on,,0,0,10,,,,,,,,,,,,,,,5,,,66,76
22560,note_on,,0,0,10,,,,,,,,,,,,,,,5,,,70,76
22560,note_on,,0,0,10,,,,,,,,,,,,,,,5,,,76,76
22560,note_on,,31,0,8,,,,,,,,,,,,,,,3,,,73,76
22560,note_on,,31,0,7,,,,,,,,,,,,,,,2,,,70,76
22560,note_on,,16,0,5,,,,,,,,,,,,,,,0,,,85,76
22560,note_on,,0,0,10,,,,,,,,,,,,,,,5,,,73,76
22560,note_on,,16,0,9,,,,,,,,,,,,,,,4,,,54,76
22607,note_on,,167,0,6,,,,,,,,,,,,,,,1,,,76,0
22620,note_on,,13,0,6,,,,,,,,,,,,,,,1,,,85,76
22649,note_on,,89,0,7,,,,,,,,,,,,,,,2,,,70,0
22649,note_on,,89,0,8,,,,,,,,,,,,,,,3,,,73,0
22649,note_on,,89,0,9,,,,,,,,,,,,,,,4,,,54,0
22664,note_on,,104,0,5,,,,,,,,,,,,,,,0,,,85,0
22664,note_on,,104,0,10,,,,,,,,,,,,,,,5,,,54,0
22664,note_on,,0,0,10,,,,,,,,,,,,,,,5,,,76,0
22664,note_on,,0,0,10,,,,,,,,,,,,,,,5,,,70,0
22664,note_on,,0,0,10,,,,,,,,,,,,,,,5,,,66,0
22664,note_on,,0,0,10,,,,,,,,,,,,,,,5,,,73,0
22667,note_on,,47,0,6,,,,,,,,,,,,,,,1,,,85,0
22680,note_on,,13,0,6,,,,,,,,,,,,,,,1,,,76,76
22680,note_on,,31,0,9,,,,,,,,,,,,,,,4,,,58,76
22680,note_on,,0,0,10,,,,,,,,,,,,,,,5,,,58,76
22680,note_on,,0,0,10,,,,,,,,,,,,,,,5,,,70,76
22680,note_on,,31,0,7,,,,,,,,,,,,,,,2,,,73,76
22680,note_on,,16,0,5,,,,,,,,,,,,,,,0,,,76,76
22680,note_on,,31,0,8,,,,,,,,,,,,,,,3,,,66,76
22680,note_on,,0,0,10,,,,,,,,,,,,,,,5,,,73,76
22680,note_on,,16,0,10,,,,,,,,,,,,,,,5,,,76,76
22724,note_on,,44,0,10,,,,,,,,,,,,,,,5,,,76,0
22724,note_on,,0,0,10,,,,,,,,,,,,,,,5,,,70,0
22724,note_on,,0,0,10,,,,,,,,,,,,,,,5,,,73,0
22724,note_on,,0,0,10,,,,,,,,,,,,,,,5,,,58,0
22724,note_on,,44,0,9,,,,,,,,,,,,,,,4,,,58,0
22740,note_on,,16,0,9,,,,,,,,,,,,,,,4,,,54,76
22740,note_on,,0,0,10,,,,,,,,,,,,,,,5,,,76,76
22740,note_on,,0,0,10,,,,,,,,,,,,,,,5,,,66,76
22740,note_on,,16,0,10,,,,,,,,,,,,,,,5,,,70,76
22740,note_on,,0,0,10,,,,,,,,,,,,,,,5,,,73,76
22740,note_on,,0,0,10,,,,,,,,,,,,,,,5,,,54,76
22769,note_on,,89,0,7,,,,,,,,,,,,,,,2,,,73,0
22769,note_on,,89,0,8,,,,,,,,,,,,,,,3,,,66,0
22784,note_on,,44,0,10,,,,,,,,,,,,,,,5,,,70,0
22784,note_on,,0,0,10,,,,,,,,,,,,,,,5,,,66,0
22784,note_on,,0,0,10,,,,,,,,,,,,,,,5,,,54,0
22784,note_on,,104,0,5,,,,,,,,,,,,,,,0,,,76,0
22784,note_on,,0,0,10,,,,,,,,,,,,,,,5,,,76,0
22784,note_on,,104,0,6,,,,,,,,,,,,,,,1,,,76,0
22784,note_on,,0,0,10,,,,,,,,,,,,,,,5,,,73,0
22784,note_on,,44,0,9,,,,,,,,,,,,,,,4,,,54,0
22800,note_on,,16,0,5,,,,,,,,,,,,,,,0,,,76,76
22800,note_on,,31,0,8,,,,,,,,,,,,,,,3,,,66,76
22800,note_on,,16,0,6,,,,,,,,,,,,,,,1,,,76,76
22800,note_on,,16,0,10,,,,,,,,,,,,,,,5,,,78,76
22800,note_on,,0,0,10,,,,,,,,,,,,,,,5,,,71,76
22800,note_on,,0,0,10,,,,,,,,,,,,,,,5,,,76,76
22800,note_on,,0,0,10,,,,,,,,,,,,,,,5,,,59,76
22800,note_on,,16,0,9,,,,,,,,,,,,,,,4,,,59,76
22800,note_on,,31,0,7,,,,,,,,,,,,,,,2,,,73,76
22829,note_on,,29,0,5,,,,,,,,,,,,,,,0,,,76,0
22829,note_on,,29,0,7,,,,,,,,,,,,,,,2,,,73,0
22829,note_on,,29,0,6,,,,,,,,,,,,,,,1,,,76,0
22830,note_on,,1,0,7,,,,,,,,,,,,,,,2,,,74,76
22830,note_on,,1,0,6,,,,,,,,,,,,,,,1,,,78,76
22830,note_on,,1,0,5,,,,,,,,,,,,,,,0,,,78,76
22859,note_on,,29,0,7,,,,,,,,,,,,,,,2,,,74,0
22859,note_on,,29,0,5,,,,,,,,,,,,,,,0,,,78,0
22859,note_on,,29,0,6,,,,,,,,,,,,,,,1,,,78,0
22860,note_on,,1,0,7,,,,,,,,,,,,,,,2,,,71,76
22860,note_on,,1,0,5,,,,,,,,,,,,,,,0,,,74,76
22860,note_on,,1,0,6,,,,,,,,,,,,,,,1,,,74,76
22889,note_on,,89,0,9,,,,,,,,,,,,,,,4,,,59,0
22889,note_on,,29,0,7,,,,,,,,,,,,,,,2,,,71,0
22889,note_on,,29,0,5,,,,,,,,,,,,,,,0,,,74,0
22889,note_on,,29,0,6,,,,,,,,,,,,,,,1,,,74,0
22890,note_on,,1,0,5,,,,,,,,,,,,,,,0,,,76,76
22890,note_on,,1,0,6,,,,,,,,,,,,,,,1,,,76,76
22890,note_on,,1,0,7,,,,,,,,,,,,,,,2,,,73,76
22904,note_on,,104,0,10,,,,,,,,,,,,,,,5,,,78,0
22904,note_on,,0,0,10,,,,,,,,,,,,,,,5,,,59,0
22904,note_on,,0,0,10,,,,,,,,,,,,,,,5,,,71,0
22904,note_on,,0,0,10,,,,,,,,,,,,,,,5,,,76,0
22919,note_on,,29,0,7,,,,,,,,,,,,,,,2,,,73,0
22919,note_on,,29,0,6,,,,,,,,,,,,,,,1,,,76,0
22919,note_on,,29,0,5,,,,,,,,,,,,,,,0,,,76,0
22920,note_on,,0,0,10,,,,,,,,,,,,,,,5,,,71,76
22920,note_on,,0,0,10,,,,,,,,,,,,,,,5,,,66,76
22920,note_on,,0,0,10,,,,,,,,,,,,,,,5,,,74,76
22920,note_on,,31,0,9,,,,,,,,,,,,,,,4,,,54,76
22920,note_on,,1,0,5,,,,,,,,,,,,,,,0,,,74,76
22920,note_on,,1,0,7,,,,,,,,,,,,,,,2,,,71,76
22920,note_on,,16,0,10,,,,,,,,,,,,,,,5,,,54,76
22920,note_on,,1,0,6,,,,,,,,,,,,,,,1,,,74,76
23009,note_on,,89,0,9,,,,,,,,,,,,,,,4,,,54,0
23024,note_on,,0,0,10,,,,,,,,,,,,,,,5,,,71,0
23024,note_on,,0,0,10,,,,,,,,,,,,,,,5,,,74,0
23024,note_on,,104,0,10,,,,,,,,,,,,,,,5,,,54,0
23024,note_on,,0,0,10,,,,,,,,,,,,,,,5,,,66,0
23024,note_on,,104,0,5,,,,,,,,,,,,,,,0,,,74,0
23039,note_on,,239,0,8,,,,,,,,,,,,,,,3,,,66,0
23039,note_on,,119,0,7,,,,,,,,,,,,,,,2,,,71,0
23039,note_on,,119,0,6,,,,,,,,,,,,,,,1,,,74,0
23040,note_on,,0,0,10,,,,,,,,,,,,,,,5,,,71,76
23040,note_on,,16,0,10,,,,,,,,,,,,,,,5,,,66,76
23040,note_on,,0,0,10,,,,,,,,,,,,,,,5,,,62,76
23040,note_on,,16,0,5,,,,,,,,,,,,,,,0,,,83,76
23040,note_on,,0,0,10,,,,,,,,,,,,,,,5,,,50,76
23040,note_on,,31,0,9,,,,,,,,,,,,,,,4,,,50,76
23129,note_on,,89,0,9,,,,,,,,,,,,,,,4,,,50,0
23144,note_on,,104,0,10,,,,,,,,,,,,,,,5,,,66,0
23144,note_on,,0,0,10,,,,,,,,,,,,,,,5,,,62,0
23144,note_on,,0,0,10,,,,,,,,,,,,,,,5,,,50,0
23144,note_on,,0,0,10,,,,,,,,,,,,,,,5,,,71,0
23144,note_on,,104,0,5,,,,,,,,,,,,,,,0,,,83,0
23160,note_on,,16,0,5,,,,,,,,,,,,,,,0,,,86,76
23160,note_on,,0,0,10,,,,,,,,,,,,,,,5,,,59,76
23160,note_on,,0,0,10,,,,,,,,,,,,,,,5,,,47,76
23160,note_on,,0,0,10,,,,,,,,,,,,,,,5,,,62,76
23160,note_on,,16,0,10,,,,,,,,,,,,,,,5,,,66,76
23160,note_on,,31,0,9,,,,,,,,,,,,,,,4,,,47,76
23207,note_on,,47,0,5,,,,,,,,,,,,,,,0,,,86,0
23220,note_on,,13,0,5,,,,,,,,,,,,,,,0,,,83,76
23249,note_on,,89,0,9,,,,,,,,,,,,,,,4,,,47,0
23249,note_on,,29,0,5,,,,,,,,,,,,,,,0,,,83,0
23260,note_on,,11,0,5,,,,,,,,,,,,,,,0,,,81,76
23264,note_on,,0,0,10,,,,,,,,,,,,,,,5,,,59,0
23264,note_on,,104,0,10,,,,,,,,,,,,,,,5,,,66,0
23264,note_on,,0,0,10,,,,,,,,,,,,,,,5,,,62,0
23264,note_on,,0,0,10,,,,,,,,,,,,,,,5,,,47,0
23279,note_on,,19,0,5,,,,,,,,,,,,,,,0,,,81,0
23280,note_on,,0,0,10,,,,,,,,,,,,,,,5,,,64,76
23280,note_on,,31,0,9,,,,,,,,,,,,,,,4,,,52,76
23280,note_on,,16,0,10,,,,,,,,,,,,,,,5,,,52,76
23280,note_on,,1,0,5,,,,,,,,,,,,,,,0,,,79,76
23280,note_on,,0,0,10,,,,,,,,,,,,,,,5,,,67,76
23280,note_on,,0,0,10,,,,,,,,,,,,,,,5,,,71,76
23384,note_on,,104,0,10,,,,,,,,,,,,,,,5,,,52,0
23384,note_on,,0,0,10,,,,,,,,,,,,,,,5,,,71,0
23384,note_on,,0,0,10,,,,,,,,,,,,,,,5,,,67,0
23384,note_on,,0,0,10,,,,,,,,,,,,,,,5,,,64,0
23399,note_on,,119,0,9,,,,,,,,,,,,,,,4,,,52,0
23400,note_on,,0,0,10,,,,,,,,,,,,,,,5,,,71,76
23400,note_on,,0,0,10,,,,,,,,,,,,,,,5,,,64,76
23400,note_on,,361,0,8,,,,,,,,,,,,,,,3,,,71,76
23400,note_on,,361,0,7,,,,,,,,,,,,,,,2,,,76,76
23400,note_on,,1,0,9,,,,,,,,,,,,,,,4,,,52,76
23400,note_on,,16,0,10,,,,,,,,,,,,,,,5,,,67,76
23400,note_on,,361,0,6,,,,,,,,,,,,,,,1,,,79,76
23400,note_on,,0,0,10,,,,,,,,,,,,,,,5,,,52,76
23447,note_on,,47,0,7,,,,,,,,,,,,,,,2,,,76,0
23447,note_on,,47,0,8,,,,,,,,,,,,,,,3,,,71,0
23447,note_on,,47,0,6,,,,,,,,,,,,,,,1,,,79,0
23460,note_on,,13,0,8,,,,,,,,,,,,,,,3,,,67,76
23460,note_on,,13,0,7,,,,,,,,,,,,,,,2,,,71,76
23460,note_on,,13,0,6,,,,,,,,,,,,,,,1,,,76,76
23504,note_on,,104,0,10,,,,,,,,,,,,,,,5,,,67,0
23504,note_on,,0,0,10,,,,,,,,,,,,,,,5,,,64,0
23504,note_on,,0,0,10,,,,,,,,,,,,,,,5,,,52,0
23504,note_on,,0,0,10,,,,,,,,,,,,,,,5,,,71,0
23507,note_on,,47,0,8,,,,,,,,,,,,,,,3,,,67,0
23507,note_on,,47,0,7,,,,,,,,,,,,,,,2,,,71,0
23507,note_on,,47,0,6,,,,,,,,,,,,,,,1,,,76,0
23519,note_on,,119,0,9,,,,,,,,,,,,,,,4,,,52,0
23520,note_on,,0,0,10,,,,,,,,,,,,,,,5,,,71,76
23520,note_on,,0,0,10,,,,,,,,,,,,,,,5,,,52,76
23520,note_on,,13,0,7,,,,,,,,,,,,,,,2,,,67,76
23520,note_on,,16,0,10,,,,,,,,,,,,,,,5,,,67,76
23520,note_on,,13,0,8,,,,,,,,,,,,,,,3,,,64,76
23520,note_on,,1,0,9,,,,,,,,,,,,,,,4,,,52,76
23520,note_on,,13,0,6,,,,,,,,,,,,,,,1,,,71,76
23520,note_on,,0,0,10,,,,,,,,,,,,,,,5,,,64,76
23609,note_on,,89,0,7,,,,,,,,,,,,,,,2,,,67,0
23609,note_on,,89,0,8,,,,,,,,,,,,,,,3,,,64,0
23609,note_on,,89,0,9,,,,,,,,,,,,,,,4,,,52,0
23609,note_on,,89,0,6,,,,,,,,,,,,,,,1,,,71,0
23624,note_on,,0,0,10,,,,,,,,,,,,,,,5,,,52,0
23624,note_on,,344,0,5,,,,,,,,,,,,,,,0,,,79,0
23624,note_on,,0,0,10,,,,,,,,,,,,,,,5,,,71,0
23624,note_on,,0,0,10,,,,,,,,,,,,,,,5,,,64,0
23624,note_on,,104,0,10,,,,,,,,,,,,,,,5,,,67,0
23640,note_on,,0,0,10,,,,,,,,,,,,,,,5,,,52,76
23640,note_on,,16,0,10,,,,,,,,,,,,,,,5,,,40,76
23640,note_on,,16,0,5,,,,,,,,,,,,,,,0,,,83,76
23640,note_on,,0,0,10,,,,,,,,,,,,,,,5,,,59,76
23640,note_on,,0,0,10,,,,,,,,,,,,,,,5,,,55,76
23640,note_on,,31,0,9,,,,,,,,,,,,,,,4,,,40,76
23669,note_on,,29,0,5,,,,,,,,,,,,,,,0,,,83,0
23670,note_on,,1,0,5,,,,,,,,,,,,,,,0,,,81,76
23699,note_on,,29,0,5,,,,,,,,,,,,,,,0,,,81,0
23700,note_on,,1,0,5,,,,,,,,,,,,,,,0,,,79,76
23729,note_on,,89,0,9,,,,,,,,,,,,,,,4,,,40,0
23729,note_on,,29,0,5,,,,,,,,,,,,,,,0,,,79,0
23730,note_on,,1,0,5,,,,,,,,,,,,,,,0,,,78,76
23744,note_on,,0,0,10,,,,,,,,,,,,,,,5,,,52,0
23744,note_on,,0,0,10,,,,,,,,,,,,,,,5,,,55,0
23744,note_on,,0,0,10,,,,,,,,,,,,,,,5,,,59,0
23744,note_on,,104,0,10,,,,,,,,,,,,,,,5,,,40,0
23753,note_on,,23,0,5,,,,,,,,,,,,,,,0,,,78,0
23760,note_on,,16,0,10,,,,,,,,,,,,,,,5,,,71,76
23760,note_on,,0,0,10,,,,,,,,,,,,,,,5,,,67,76
23760,note_on,,0,0,10,,,,,,,,,,,,,,,5,,,64,76
23760,note_on,,7,0,5,,,,,,,,,,,,,,,0,,,76,76
23760,note_on,,31,0,9,,,,,,,,,,,,,,,4,,,52,76
23760,note_on,,0,0,10,,,,,,,,,,,,,,,5,,,52,76
23864,note_on,,104,0,10,,,,,,,,,,,,,,,5,,,71,0
23864,note_on,,0,0,10,,,,,,,,,,,,,,,5,,,67,0
23864,note_on,,0,0,10,,,,,,,,,,,,,,,5,,,64,0
23864,note_on,,0,0,10,,,,,,,,,,,,,,,5,,,52,0
23879,note_on,,119,0,9,,,,,,,,,,,,,,,4,,,52,0
23880,note_on,,1,0,9,,,,,,,,,,,,,,,4,,,52,76
23880,note_on,,271,0,6,,,,,,,,,,,,,,,1,,,76,76
23880,note_on,,271,0,8,,,,,,,,,,,,,,,3,,,67,76
23880,note_on,,271,0,7,,,,,,,,,,,,,,,2,,,71,76
23880,note_on,,0,0,10,,,,,,,,,,,,,,,5,,,64,76
23880,note_on,,0,0,10,,,,,,,,,,,,,,,5,,,67,76
23880,note_on,,0,0,10,,,,,,,,,,,,,,,5,,,71,76
23880,note_on,,16,0,10,,,,,,,,,,,,,,,5,,,52,76
23927,note_on,,47,0,8,,,,,,,,,,,,,,,3,,,67,0
23927,note_on,,47,0,7,,,,,,,,,,,,,,,2,,,71,0
23927,note_on,,47,0,6,,,,,,,,,,,,,,,1,,,76,0
23940,note_on,,13,0,7,,,,,,,,,,,,,,,2,,,67,76
23940,note_on,,13,0,8,,,,,,,,,,,,,,,3,,,64,76
23940,note_on,,13,0,6,,,,,,,,,,,,,,,1,,,71,76
23984,note_on,,0,0,10,,,,,,,,,,,,,,,5,,,71,0
23984,note_on,,0,0,10,,,,,,,,,,,,,,,5,,,67,0
23984,note_on,,0,0,10,,,,,,,,,,,,,,,5,,,64,0
23984,note_on,,104,0,10,,,,,,,,,,,,,,,5,,,52,0
23987,note_on,,47,0,6,,,,,,,,,,,,,,,1,,,71,0
23987,note_on,,47,0,8,,,,,,,,,,,,,,,3,,,64,0
23987,note_on,,47,0,7,,,,,,,,,,,,,,,2,,,67,0
23999,note_on,,119,0,9,,,,,,,,,,,,,,,4,,,52,0
24000,note_on,,16,0,10,,,,,,,,,,,,,,,5,,,67,76
24000,note_on,,0,0,10,,,,,,,,,,,,,,,5,,,71,76
24000,note_on,,13,0,6,,,,,,,,,,,,,,,1,,,67,76
24000,note_on,,13,0,7,,,,,,,,,,,,,,,2,,,64,76
24000,note_on,,13,0,8,,,,,,,,,,,,,,,3,,,59,76
24000,note_on,,1,0,9,,,,,,,,,,,,,,,4,,,52,76
24000,note_on,,0,0,10,,,,,,,,,,,,,,,5,,,52,76
24000,note_on,,0,0,10,,,,,,,,,,,,,,,5,,,64,76
24089,note_on,,89,0,9,,,,,,,,,,,,,,,4,,,52,0
24089,note_on,,89,0,8,,,,,,,,,,,,,,,3,,,59,0
24089,note_on,,89,0,7,,,,,,,,,,,,,,,2,,,64,0
24089,note_on,,89,0,6,,,,,,,,,,,,,,,1,,,67,0
24104,note_on,,0,0,10,,,,,,,,,,,,,,,5,,,52,0
24104,note_on,,104,0,10,,,,,,,,,,,,,,,5,,,67,0
24104,note_on,,344,0,5,,,,,,,,,,,,,,,0,,,76,0
24104,note_on,,0,0,10,,,,,,,,,,,,,,,5,,,64,0
24104,note_on,,0,0,10,,,,,,,,,,,,,,,5,,,71,0
24120,note_on,,31,0,9,,,,,,,,,,,,,,,4,,,40,76
24120,note_on,,16,0,10,,,,,,,,,,,,,,,5,,,52,76
24120,note_on,,0,0,10,,,,,,,,,,,,,,,5,,,59,76
24120,note_on,,16,0,5,,,,,,,,,,,,,,,0,,,79,76
24120,note_on,,0,0,10,,,,,,,,,,,,,,,5,,,55,76
24120,note_on,,0,0,10,,,,,,,,,,,,,,,5,,,40,76
24149,note_on,,29,0,5,,,,,,,,,,,,,,,0,,,79,0
24150,note_on,,1,0,5,,,,,,,,,,,,,,,0,,,78,76
24179,note_on,,29,0,5,,,,,,,,,,,,,,,0,,,78,0
24180,note_on,,1,0,5,,,,,,,,,,,,,,,0,,,76,76
24209,note_on,,29,0,5,,,,,,,,,,,,,,,0,,,76,0
24209,note_on,,89,0,9,,,,,,,,,,,,,,,4,,,40,0
24210,note_on,,1,0,5,,,,,,,,,,,,,,,0,,,74,76
24224,note_on,,0,0,10,,,,,,,,,,,,,,,5,,,55,0
24224,note_on,,0,0,10,,,,,,,,,,,,,,,5,,,40,0
24224,note_on,,0,0,10,,,,,,,,,,,,,,,5,,,59,0
24224,note_on,,104,0,10,,,,,,,,,,,,,,,5,,,52,0
24233,note_on,,23,0,5,,,,,,,,,,,,,,,0,,,74,0
24240,note_on,,0,0,10,,,,,,,,,,,,,,,5,,,52,76
24240,note_on,,0,0,10,,,,,,,,,,,,,,,5,,,72,76
24240,note_on,,16,0,10,,,,,,,,,,,,,,,5,,,67,76
24240,note_on,,7,0,5,,,,,,,,,,,,,,,0,,,72,76
24240,note_on,,0,0,10,,,,,,,,,,,,,,,5,,,64,76
24240,note_on,,31,0,9,,,,,,,,,,,,,,,4,,,52,76
24287,note_on,,47,0,5,,,,,,,,,,,,,,,0,,,72,0
24300,note_on,,13,0,5,,,,,,,,,,,,,,,0,,,76,76
24344,note_on,,0,0,10,,,,,,,,,,,,,,,5,,,64,0
24344,note_on,,0,0,10,,,,,,,,,,,,,,,5,,,52,0
24344,note_on,,0,0,10,,,,,,,,,,,,,,,5,,,72,0
24344,note_on,,104,0,10,,,,,,,,,,,,,,,5,,,67,0
24347,note_on,,47,0,5,,,,,,,,,,,,,,,0,,,76,0
24359,note_on,,119,0,9,,,,,,,,,,,,,,,4,,,52,0
24360,note_on,,1,0,9,,,,,,,,,,,,,,,4,,,52,76
24360,note_on,,0,0,10,,,,,,,,,,,,,,,5,,,67,76
24360,note_on,,0,0,10,,,,,,,,,,,,,,,5,,,52,76
24360,note_on,,0,0,10,,,,,,,,,,,,,,,5,,,64,76
24360,note_on,,16,0,10,,,,,,,,,,,,,,,5,,,72,76
24360,note_on,,271,0,6,,,,,,,,,,,,,,,1,,,72,76
24360,note_on,,13,0,5,,,,,,,,,,,,,,,0,,,79,76
24360,note_on,,271,0,7,,,,,,,,,,,,,,,2,,,64,76
24360,note_on,,271,0,8,,,,,,,,,,,,,,,3,,,55,76
24407,note_on,,47,0,5,,,,,,,,,,,,,,,0,,,79,0
24420,note_on,,13,0,5,,,,,,,,,,,,,,,0,,,76,76
24449,note_on,,89,0,6,,,,,,,,,,,,,,,1,,,72,0
24464,note_on,,104,0,7,,,,,,,,,,,,,,,2,,,64,0
24464,note_on,,0,0,10,,,,,,,,,,,,,,,5,,,67,0
24464,note_on,,0,0,10,,,,,,,,,,,,,,,5,,,52,0
24464,note_on,,0,0,10,,,,,,,,,,,,,,,5,,,64,0
24464,note_on,,104,0,10,,,,,,,,,,,,,,,5,,,72,0
24464,note_on,,104,0,8,,,,,,,,,,,,,,,3,,,55,0
24467,note_on,,47,0,5,,,,,,,,,,,,,,,0,,,76,0
24479,note_on,,119,0,9,,,,,,,,,,,,,,,4,,,52,0
24480,note_on,,0,0,10,,,,,,,,,,,,,,,5,,,52,76
24480,note_on,,0,0,10,,,,,,,,,,,,,,,5,,,67,76
24480,note_on,,0,0,10,,,,,,,,,,,,,,,5,,,64,76
24480,note_on,,1,0,9,,,,,,,,,,,,,,,4,,,52,76
24480,note_on,,16,0,10,,,,,,,,,,,,,,,5,,,72,76
24480,note_on,,13,0,5,,,,,,,,,,,,,,,0,,,72,76
24480,note_on,,16,0,8,,,,,,,,,,,,,,,3,,,60,76
24480,note_on,,16,0,7,,,,,,,,,,,,,,,2,,,67,76
24480,note_on,,31,0,6,,,,,,,,,,,,,,,1,,,76,76
24539,note_on,,59,0,5,,,,,,,,,,,,,,,0,,,72,0
24540,note_on,,1,0,5,,,,,,,,,,,,,,,0,,,71,76
24569,note_on,,89,0,6,,,,,,,,,,,,,,,1,,,76,0
24569,note_on,,89,0,9,,,,,,,,,,,,,,,4,,,52,0
24584,note_on,,0,0,10,,,,,,,,,,,,,,,5,,,64,0
24584,note_on,,0,0,10,,,,,,,,,,,,,,,5,,,67,0
24584,note_on,,0,0,10,,,,,,,,,,,,,,,5,,,52,0
24584,note_on,,104,0,10,,,,,,,,,,,,,,,5,,,72,0
24584,note_on,,104,0,8,,,,,,,,,,,,,,,3,,,60,0
24584,note_on,,104,0,7,,,,,,,,,,,,,,,2,,,67,0
24587,note_on,,47,0,5,,,,,,,,,,,,,,,0,,,71,0
24600,note_on,,0,0,10,,,,,,,,,,,,,,,5,,,55,76
24600,note_on,,0,0,10,,,,,,,,,,,,,,,5,,,40,76
24600,note_on,,0,0,10,,,,,,,,,,,,,,,5,,,52,76
24600,note_on,,31,0,6,,,,,,,,,,,,,,,1,,,79,76
24600,note_on,,31,0,9,,,,,,,,,,,,,,,4,,,40,76
24600,note_on,,16,0,10,,,,,,,,,,,,,,,5,,,60,76
24600,note_on,,16,0,7,,,,,,,,,,,,,,,2,,,72,76
24600,note_on,,13,0,5,,,,,,,,,,,,,,,0,,,72,76
24600,note_on,,16,0,8,,,,,,,,,,,,,,,3,,,64,76
24659,note_on,,59,0,5,,,,,,,,,,,,,,,0,,,72,0
24660,note_on,,1,0,5,,,,,,,,,,,,,,,0,,,71,76
24667,note_on,,67,0,7,,,,,,,,,,,,,,,2,,,72,0
24680,note_on,,13,0,7,,,,,,,,,,,,,,,2,,,71,76
24689,note_on,,89,0,9,,,,,,,,,,,,,,,4,,,40,0
24689,note_on,,89,0,6,,,,,,,,,,,,,,,1,,,79,0
24700,note_on,,11,0,6,,,,,,,,,,,,,,,1,,,79,76
24704,note_on,,104,0,8,,,,,,,,,,,,,,,3,,,64,0
24704,note_on,,0,0,10,,,,,,,,,,,,,,,5,,,40,0
24704,note_on,,0,0,10,,,,,,,,,,,,,,,5,,,52,0
24704,note_on,,0,0,10,,,,,,,,,,,,,,,5,,,55,0
24704,note_on,,104,0,10,,,,,,,,,,,,,,,5,,,60,0
24707,note_on,,47,0,5,,,,,,,,,,,,,,,0,,,71,0
24719,note_on,,39,0,7,,,,,,,,,,,,,,,2,,,71,0
24719,note_on,,19,0,6,,,,,,,,,,,,,,,1,,,79,0
24720,note_on,,0,0,10,,,,,,,,,,,,,,,5,,,52,76
24720,note_on,,0,0,10,,,,,,,,,,,,,,,5,,,66,76
24720,note_on,,0,0,10,,,,,,,,,,,,,,,5,,,70,76
24720,note_on,,16,0,10,,,,,,,,,,,,,,,5,,,73,76
24720,note_on,,13,0,5,,,,,,,,,,,,,,,0,,,70,76
24720,note_on,,16,0,8,,,,,,,,,,,,,,,3,,,61,76
24720,note_on,,31,0,9,,,,,,,,,,,,,,,4,,,52,76
24720,note_on,,1,0,7,,,,,,,,,,,,,,,2,,,70,76
24720,note_on,,0,0,10,,,,,,,,,,,,,,,5,,,64,76
24720,note_on,,1,0,6,,,,,,,,,,,,,,,1,,,78,76
24809,note_on,,89,0,5,,,,,,,,,,,,,,,0,,,70,0
24809,note_on,,89,0,9,,,,,,,,,,,,,,,4,,,52,0
24824,note_on,,0,0,10,,,,,,,,,,,,,,,5,,,66,0
24824,note_on,,104,0,10,,,,,,,,,,,,,,,5,,,73,0
24824,note_on,,0,0,10,,,,,,,,,,,,,,,5,,,64,0
24824,note_on,,0,0,10,,,,,,,,,,,,,,,5,,,70,0
24824,note_on,,0,0,10,,,,,,,,,,,,,,,5,,,52,0
24840,note_on,,0,0,10,,,,,,,,,,,,,,,5,,,76,76
24840,note_on,,0,0,10,,,,,,,,,,,,,,,5,,,82,76
24840,note_on,,31,0,9,,,,,,,,,,,,,,,4,,,64,76
24840,note_on,,0,0,10,,,,,,,,,,,,,,,5,,,78,76
24840,note_on,,31,0,5,,,,,,,,,,,,,,,0,,,66,76
24840,note_on,,0,0,10,,,,,,,,,,,,,,,5,,,85,76
24840,note_on,,16,0,10,,,,,,,,,,,,,,,5,,,64,76
24884,note_on,,44,0,10,,,,,,,,,,,,,,,5,,,64,0
24884,note_on,,0,0,10,,,,,,,,,,,,,,,5,,,78,0
24884,note_on,,0,0,10,,,,,,,,,,,,,,,5,,,85,0
24884,note_on,,0,0,10,,,,,,,,,,,,,,,5,,,76,0
24884,note_on,,0,0,10,,,,,,,,,,,,,,,5,,,82,0
24884,note_on,,44,0,9,,,,,,,,,,,,,,,4,,,64,0
24900,note_on,,0,0,10,,,,,,,,,,,,,,,5,,,61,76
24900,note_on,,16,0,9,,,,,,,,,,,,,,,4,,,61,76
24900,note_on,,16,0,10,,,,,,,,,,,,,,,5,,,79,76
24900,note_on,,0,0,10,,,,,,,,,,,,,,,5,,,76,76
24900,note_on,,0,0,10,,,,,,,,,,,,,,,5,,,73,76
24929,note_on,,89,0,5,,,,,,,,,,,,,,,0,,,66,0
24944,note_on,,0,0,10,,,,,,,,,,,,,,,5,,,73,0
24944,note_on,,224,0,6,,,,,,,,,,,,,,,1,,,78,0
24944,note_on,,44,0,9,,,,,,,,,,,,,,,4,,,61,0
24944,note_on,,44,0,10,,,,,,,,,,,,,,,5,,,79,0
24944,note_on,,224,0,7,,,,,,,,,,,,,,,2,,,70,0
24944,note_on,,224,0,8,,,,,,,,,,,,,,,3,,,61,0
24944,note_on,,0,0,10,,,,,,,,,,,,,,,5,,,61,0
24944,note_on,,0,0,10,,,,,,,,,,,,,,,5,,,76,0
24960,note_on,,16,0,7,,,,,,,,,,,,,,,2,,,73,52
24960,note_on,,0,0,10,,,,,,,,,,,,,,,5,,,70,76
24960,note_on,,31,0,5,,,,,,,,,,,,,,,0,,,67,76
24960,note_on,,0,0,10,,,,,,,,,,,,,,,5,,,79,76
24960,note_on,,0,0,10,,,,,,,,,,,,,,,5,,,73,76
24960,note_on,,0,0,10,,,,,,,,,,,,,,,5,,,58,76
24960,note_on,,16,0,9,,,,,,,,,,,,,,,4,,,58,52
24960,note_on,,16,0,6,,,,,,,,,,,,,,,1,,,76,52
24960,note_on,,16,0,10,,,,,,,,,,,,,,,5,,,76,76
24960,note_on,,16,0,8,,,,,,,,,,,,,,,3,,,61,52
25049,note_on,,89,0,8,,,,,,,,,,,,,,,3,,,61,0
25049,note_on,,89,0,9,,,,,,,,,,,,,,,4,,,58,0
25049,note_on,,89,0,6,,,,,,,,,,,,,,,1,,,76,0
25049,note_on,,89,0,7,,,,,,,,,,,,,,,2,,,73,0
25064,note_on,,104,0,10,,,,,,,,,,,,,,,5,,,76,0
25064,note_on,,0,0,10,,,,,,,,,,,,,,,5,,,73,0
25064,note_on,,0,0,10,,,,,,,,,,,,,,,5,,,58,0
25064,note_on,,0,0,10,,,,,,,,,,,,,,,5,,,79,0
25064,note_on,,0,0,10,,,,,,,,,,,,,,,5,,,70,0
25079,note_on,,119,0,5,,,,,,,,,,,,,,,0,,,67,0
25080,note_on,,16,0,10,,,,,,,,,,,,,,,5,,,73,76
25080,note_on,,1,0,5,,,,,,,,,,,,,,,0,,,66,76
25080,note_on,,31,0,9,,,,,,,,,,,,,,,4,,,61,52
25080,note_on,,0,0,10,,,,,,,,,,,,,,,5,,,76,76
25080,note_on,,0,0,10,,,,,,,,,,,,,,,5,,,79,76
25080,note_on,,0,0,10,,,,,,,,,,,,,,,5,,,61,76
25124,note_on,,0,0,10,,,,,,,,,,,,,,,5,,,79,0
25124,note_on,,0,0,10,,,,,,,,,,,,,,,5,,,76,0
25124,note_on,,44,0,10,,,,,,,,,,,,,,,5,,,73,0
25124,note_on,,44,0,9,,,,,,,,,,,,,,,4,,,61,0
25124,note_on,,0,0,10,,,,,,,,,,,,,,,5,,,61,0
25140,note_on,,16,0,10,,,,,,,,,,,,,,,5,,,76,76
25140,note_on,,0,0,10,,,,,,,,,,,,,,,5,,,73,76
25140,note_on,,0,0,10,,,,,,,,,,,,,,,5,,,70,76
25140,note_on,,0,0,10,,,,,,,,,,,,,,,5,,,58,76
25140,note_on,,16,0,9,,,,,,,,,,,,,,,4,,,58,52
25140,note_on,,0,0,10,,,,,,,,,,,,,,,5,,,79,76
25184,note_on,,44,0,9,,,,,,,,,,,,,,,4,,,58,0
25184,note_on,,44,0,10,,,,,,,,,,,,,,,5,,,76,0
25184,note_on,,104,0,5,,,,,,,,,,,,,,,0,,,66,0
25184,note_on,,0,0,10,,,,,,,,,,,,,,,5,,,70,0
25184,note_on,,0,0,10,,,,,,,,,,,,,,,5,,,58,0
25184,note_on,,0,0,10,,,,,,,,,,,,,,,5,,,73,0
25184,note_on,,0,0,10,,,,,,,,,,,,,,,5,,,79,0
25200,note_on,,151,0,7,,,,,,,,,,,,,,,2,,,71,52
25200,note_on,,0,0,10,,,,,,,,,,,,,,,5,,,54,76
25200,note_on,,16,0,9,,,,,,,,,,,,,,,4,,,54,52
25200,note_on,,0,0,10,,,,,,,,,,,,,,,5,,,74,76
25200,note_on,,0,0,10,,,,,,,,,,,,,,,5,,,66,76
25200,note_on,,151,0,6,,,,,,,,,,,,,,,1,,,74,52
25200,note_on,,16,0,5,,,,,,,,,,,,,,,0,,,71,76
25200,note_on,,151,0,8,,,,,,,,,,,,,,,3,,,62,52
25200,note_on,,16,0,10,,,,,,,,,,,,,,,5,,,71,76
25289,note_on,,89,0,7,,,,,,,,,,,,,,,2,,,71,0
25289,note_on,,89,0,8,,,,,,,,,,,,,,,3,,,62,0
25289,note_on,,89,0,9,,,,,,,,,,,,,,,4,,,54,0
25289,note_on,,89,0,6,,,,,,,,,,,,,,,1,,,74,0
25304,note_on,,0,0,10,,,,,,,,,,,,,,,5,,,54,0
25304,note_on,,104,0,10,,,,,,,,,,,,,,,5,,,71,0
25304,note_on,,0,0,10,,,,,,,,,,,,,,,5,,,66,0
25304,note_on,,0,0,10,,,,,,,,,,,,,,,5,,,74,0
25319,note_on,,119,0,5,,,,,,,,,,,,,,,0,,,71,0
25320,note_on,,0,0,10,,,,,,,,,,,,,,,5,,,66,76
25320,note_on,,31,0,9,,,,,,,,,,,,,,,4,,,54,52
25320,note_on,,1,0,5,,,,,,,,,,,,,,,0,,,70,76
25320,note_on,,0,0,10,,,,,,,,,,,,,,,5,,,71,76
25320,note_on,,0,0,10,,,,,,,,,,,,,,,5,,,54,76
25320,note_on,,16,0,10,,,,,,,,,,,,,,,5,,,74,76
25379,note_on,,59,0,5,,,,,,,,,,,,,,,0,,,70,0
25380,note_on,,1,0,5,,,,,,,,,,,,,,,0,,,73,76
25409,note_on,,89,0,9,,,,,,,,,,,,,,,4,,,54,0
25424,note_on,,0,0,10,,,,,,,,,,,,,,,5,,,71,0
25424,note_on,,0,0,10,,,,,,,,,,,,,,,5,,,66,0
25424,note_on,,104,0,10,,,,,,,,,,,,,,,5,,,74,0
25424,note_on,,0,0,10,,,,,,,,,,,,,,,5,,,54,0
25427,note_on,,47,0,5,,,,,,,,,,,,,,,0,,,73,0
25440,note_on,,31,0,9,,,,,,,,,,,,,,,4,,,54,52
25440,note_on,,13,0,5,,,,,,,,,,,,,,,0,,,76,76
25440,note_on,,151,0,7,,,,,,,,,,,,,,,2,,,70,52
25440,note_on,,151,0,6,,,,,,,,,,,,,,,1,,,73,52
25440,note_on,,151,0,8,,,,,,,,,,,,,,,3,,,66,52
25440,note_on,,0,0,10,,,,,,,,,,,,,,,5,,,66,76
25440,note_on,,0,0,10,,,,,,,,,,,,,,,5,,,54,76
25440,note_on,,0,0,10,,,,,,,,,,,,,,,5,,,70,76
25440,note_on,,16,0,10,,,,,,,,,,,,,,,5,,,73,76
25529,note_on,,89,0,8,,,,,,,,,,,,,,,3,,,66,0
25529,note_on,,89,0,6,,,,,,,,,,,,,,,1,,,73,0
25529,note_on,,89,0,7,,,,,,,,,,,,,,,2,,,70,0
25529,note_on,,89,0,9,,,,,,,,,,,,,,,4,,,54,0
25544,note_on,,0,0,10,,,,,,,,,,,,,,,5,,,66,0
25544,note_on,,0,0,10,,,,,,,,,,,,,,,5,,,54,0
25544,note_on,,104,0,10,,,,,,,,,,,,,,,5,,,73,0
25544,note_on,,0,0,10,,,,,,,,,,,,,,,5,,,70,0
25544,note_on,,104,0,5,,,,,,,,,,,,,,,0,,,76,0
25560,note_on,,16,0,10,,,,,,,,,,,,,,,5,,,73,76
25560,note_on,,0,0,10,,,,,,,,,,,,,,,5,,,66,76
25560,note_on,,16,0,5,,,,,,,,,,,,,,,0,,,74,76
25560,note_on,,0,0,10,,,,,,,,,,,,,,,5,,,70,76
25560,note_on,,0,0,10,,,,,,,,,,,,,,,5,,,54,76
25560,note_on,,31,0,9,,,,,,,,,,,,,,,4,,,54,52
25607,note_on,,47,0,5,,,,,,,,,,,,,,,0,,,74,0
25620,note_on,,13,0,5,,,,,,,,,,,,,,,0,,,73,76
25649,note_on,,89,0,9,,,,,,,,,,,,,,,4,,,54,0
25664,note_on,,0,0,10,,,,,,,,,,,,,,,5,,,66,0
25664,note_on,,0,0,10,,,,,,,,,,,,,,,5,,,54,0
25664,note_on,,0,0,10,,,,,,,,,,,,,,,5,,,70,0
25664,note_on,,104,0,10,,,,,,,,,,,,,,,5,,,73,0
25667,note_on,,47,0,5,,,,,,,,,,,,,,,0,,,73,0
25680,note_on,,0,0,10,,,,,,,,,,,,,,,5,,,59,76
25680,note_on,,16,0,10,,,,,,,,,,,,,,,5,,,78,76
25680,note_on,,151,0,7,,,,,,,,,,,,,,,2,,,71,52
25680,note_on,,13,0,5,,,,,,,,,,,,,,,0,,,74,76
25680,note_on,,151,0,8,,,,,,,,,,,,,,,3,,,66,52
25680,note_on,,0,0,10,,,,,,,,,,,,,,,5,,,74,76
25680,note_on,,151,0,6,,,,,,,,,,,,,,,1,,,71,76
25680,note_on,,0,0,10,,,,,,,,,,,,,,,5,,,71,76
25680,note_on,,31,0,9,,,,,,,,,,,,,,,4,,,59,52
25769,note_on,,89,0,9,,,,,,,,,,,,,,,4,,,59,0
25784,note_on,,0,0,10,,,,,,,,,,,,,,,5,,,74,0
25784,note_on,,0,0,10,,,,,,,,,,,,,,,5,,,59,0
25784,note_on,,104,0,6,,,,,,,,,,,,,,,1,,,71,0
25784,note_on,,104,0,10,,,,,,,,,,,,,,,5,,,78,0
25784,note_on,,104,0,5,,,,,,,,,,,,,,,0,,,74,0
25784,note_on,,0,0,10,,,,,,,,,,,,,,,5,,,71,0
25800,note_on,,0,0,10,,,,,,,,,,,,,,,5,,,78,76
25800,note_on,,0,0,10,,,,,,,,,,,,,,,5,,,62,76
25800,note_on,,16,0,5,,,,,,,,,,,,,,,0,,,71,76
25800,note_on,,0,0,10,,,,,,,,,,,,,,,5,,,74,76
25800,note_on,,16,0,10,,,,,,,,,,,,,,,5,,,81,76
25800,note_on,,31,0,9,,,,,,,,,,,,,,,4,,,62,52
25800,note_on,,16,0,6,,,,,,,,,,,,,,,1,,,66,76
25829,note_on,,29,0,5,,,,,,,,,,,,,,,0,,,71,0
25830,note_on,,1,0,5,,,,,,,,,,,,,,,0,,,73,76
25844,note_on,,0,0,10,,,,,,,,,,,,,,,5,,,78,0
25844,note_on,,44,0,9,,,,,,,,,,,,,,,4,,,62,0
25844,note_on,,0,0,10,,,,,,,,,,,,,,,5,,,62,0
25844,note_on,,0,0,10,,,,,,,,,,,,,,,5,,,74,0
25844,note_on,,44,0,10,,,,,,,,,,,,,,,5,,,81,0
25847,note_on,,47,0,6,,,,,,,,,,,,,,,1,,,66,0
25859,note_on,,29,0,5,,,,,,,,,,,,,,,0,,,73,0
25860,note_on,,1,0,5,,,,,,,,,,,,,,,0,,,74,76
25860,note_on,,16,0,9,,,,,,,,,,,,,,,4,,,59,52
25860,note_on,,0,0,10,,,,,,,,,,,,,,,5,,,74,76
25860,note_on,,16,0,10,,,,,,,,,,,,,,,5,,,78,76
25860,note_on,,0,0,10,,,,,,,,,,,,,,,5,,,59,76
25860,note_on,,0,0,10,,,,,,,,,,,,,,,5,,,71,76
25860,note_on,,13,0,6,,,,,,,,,,,,,,,1,,,71,76
25889,note_on,,29,0,5,,,,,,,,,,,,,,,0,,,74,0
25890,note_on,,1,0,5,,,,,,,,,,,,,,,0,,,76,76
25904,note_on,,224,0,7,,,,,,,,,,,,,,,2,,,71,0
25904,note_on,,44,0,10,,,,,,,,,,,,,,,5,,,78,0
25904,note_on,,0,0,10,,,,,,,,,,,,,,,5,,,59,0
25904,note_on,,0,0,10,,,,,,,,,,,,,,,5,,,71,0
25904,note_on,,44,0,9,,,,,,,,,,,,,,,4,,,59,0
25904,note_on,,0,0,10,,,,,,,,,,,,,,,5,,,74,0
25907,note_on,,47,0,6,,,,,,,,,,,,,,,1,,,71,0
25919,note_on,,29,0,5,,,,,,,,,,,,,,,0,,,76,0
25919,note_on,,239,0,8,,,,,,,,,,,,,,,3,,,66,0
25920,note_on,,13,0,6,,,,,,,,,,,,,,,1,,,74,76
25920,note_on,,16,0,9,,,,,,,,,,,,,,,4,,,54,76
25920,note_on,,1,0,5,,,,,,,,,,,,,,,0,,,78,76
25920,note_on,,0,0,10,,,,,,,,,,,,,,,5,,,54,76
25920,note_on,,0,0,10,,,,,,,,,,,,,,,5,,,74,76
25920,note_on,,16,0,10,,,,,,,,,,,,,,,5,,,66,76
25920,note_on,,0,0,10,,,,,,,,,,,,,,,5,,,71,76
25967,note_on,,47,0,6,,,,,,,,,,,,,,,1,,,74,0
25980,note_on,,13,0,6,,,,,,,,,,,,,,,1,,,71,76
26009,note_on,,89,0,9,,,,,,,,,,,,,,,4,,,54,0
26024,note_on,,0,0,10,,,,,,,,,,,,,,,5,,,71,0
26024,note_on,,104,0,5,,,,,,,,,,,,,,,0,,,78,0
26024,note_on,,104,0,10,,,,,,,,,,,,,,,5,,,66,0
26024,note_on,,0,0,10,,,,,,,,,,,,,,,5,,,74,0
26024,note_on,,0,0,10,,,,,,,,,,,,,,,5,,,54,0
26027,note_on,,47,0,6,,,,,,,,,,,,,,,1,,,71,0
26040,note_on,,16,0,5,,,,,,,,,,,,,,,0,,,74,76
26040,note_on,,0,0,10,,,,,,,,,,,,,,,5,,,74,76
26040,note_on,,0,0,10,,,,,,,,,,,,,,,5,,,78,76
26040,note_on,,16,0,10,,,,,,,,,,,,,,,5,,,71,76
26040,note_on,,136,0,7,,,,,,,,,,,,,,,2,,,71,76
26040,note_on,,121,0,8,,,,,,,,,,,,,,,3,,,66,76
26040,note_on,,0,0,10,,,,,,,,,,,,,,,5,,,59,76
26040,note_on,,31,0,9,,,,,,,,,,,,,,,4,,,59,76
26040,note_on,,13,0,6,,,,,,,,,,,,,,,1,,,74,76
26084,note_on,,44,0,10,,,,,,,,,,,,,,,5,,,71,0
26084,note_on,,0,0,10,,,,,,,,,,,,,,,5,,,59,0
26084,note_on,,0,0,10,,,,,,,,,,,,,,,5,,,78,0
26084,note_on,,0,0,10,,,,,,,,,,,,,,,5,,,74,0
26084,note_on,,44,0,9,,,,,,,,,,,,,,,4,,,59,0
26087,note_on,,47,0,5,,,,,,,,,,,,,,,0,,,74,0
26087,note_on,,47,0,7,,,,,,,,,,,,,,,2,,,71,0
26087,note_on,,47,0,6,,,,,,,,,,,,,,,1,,,74,0
26087,note_on,,47,0,8,,,,,,,,,,,,,,,3,,,66,0
26100,note_on,,16,0,9,,,,,,,,,,,,,,,4,,,54,76
26100,note_on,,13,0,7,,,,,,,,,,,,,,,2,,,74,76
26100,note_on,,13,0,6,,,,,,,,,,,,,,,1,,,78,76
26100,note_on,,16,0,10,,,,,,,,,,,,,,,5,,,71,76
26100,note_on,,0,0,10,,,,,,,,,,,,,,,5,,,54,76
26100,note_on,,0,0,10,,,,,,,,,,,,,,,5,,,74,76
26100,note_on,,13,0,8,,,,,,,,,,,,,,,3,,,71,76
26100,note_on,,13,0,5,,,,,,,,,,,,,,,0,,,78,76
26100,note_on,,0,0,10,,,,,,,,,,,,,,,5,,,66,76
26144,note_on,,44,0,10,,,,,,,,,,,,,,,5,,,71,0
26144,note_on,,0,0,10,,,,,,,,,,,,,,,5,,,54,0
26144,note_on,,0,0,10,,,,,,,,,,,,,,,5,,,66,0
26144,note_on,,44,0,9,,,,,,,,,,,,,,,4,,,54,0
26144,note_on,,0,0,10,,,,,,,,,,,,,,,5,,,74,0
26147,note_on,,47,0,7,,,,,,,,,,,,,,,2,,,74,0
26147,note_on,,47,0,6,,,,,,,,,,,,,,,1,,,78,0
26147,note_on,,47,0,5,,,,,,,,,,,,,,,0,,,78,0
26147,note_on,,47,0,8,,,,,,,,,,,,,,,3,,,71,0
26160,note_on,,13,0,8,,,,,,,,,,,,,,,3,,,74,76
26160,note_on,,13,0,6,,,,,,,,,,,,,,,1,,,83,76
26160,note_on,,13,0,7,,,,,,,,,,,,,,,2,,,78,76
26160,note_on,,16,0,9,,,,,,,,,,,,,,,4,,,50,76
26160,note_on,,0,0,10,,,,,,,,,,,,,,,5,,,66,76
26160,note_on,,0,0,10,,,,,,,,,,,,,,,5,,,62,76
26160,note_on,,0,0,10,,,,,,,,,,,,,,,5,,,50,76
26160,note_on,,13,0,5,,,,,,,,,,,,,,,0,,,83,76
26160,note_on,,16,0,10,,,,,,,,,,,,,,,5,,,71,76
26249,note_on,,89,0,9,,,,,,,,,,,,,,,4,,,50,0
26264,note_on,,104,0,6,,,,,,,,,,,,,,,1,,,83,0
26264,note_on,,0,0,10,,,,,,,,,,,,,,,5,,,66,0
26264,note_on,,0,0,10,,,,,,,,,,,,,,,5,,,62,0
26264,note_on,,0,0,10,,,,,,,,,,,,,,,5,,,50,0
26264,note_on,,104,0,10,,,,,,,,,,,,,,,5,,,71,0
26264,note_on,,104,0,7,,,,,,,,,,,,,,,2,,,78,0
26264,note_on,,104,0,5,,,,,,,,,,,,,,,0,,,83,0
26264,note_on,,104,0,8,,,,,,,,,,,,,,,3,,,74,0
26280,note_on,,0,0,10,,,,,,,,,,,,,,,5,,,59,76
26280,note_on,,31,0,9,,,,,,,,,,,,,,,4,,,47,76
26280,note_on,,16,0,5,,,,,,,,,,,,,,,0,,,78,76
26280,note_on,,16,0,6,,,,,,,,,,,,,,,1,,,78,76
26280,note_on,,16,0,8,,,,,,,,,,,,,,,3,,,62,76
26280,note_on,,16,0,10,,,,,,,,,,,,,,,5,,,66,76
26280,note_on,,0,0,10,,,,,,,,,,,,,,,5,,,62,76
26280,note_on,,0,0,10,,,,,,,,,,,,,,,5,,,47,76
26280,note_on,,16,0,7,,,,,,,,,,,,,,,2,,,71,76
26324,note_on,,0,0,10,,,,,,,,,,,,,,,5,,,47,0
26324,note_on,,0,0,10,,,,,,,,,,,,,,,5,,,59,0
26324,note_on,,0,0,10,,,,,,,,,,,,,,,5,,,62,0
26324,note_on,,44,0,9,,,,,,,,,,,,,,,4,,,47,0
26324,note_on,,44,0,10,,,,,,,,,,,,,,,5,,,66,0
26340,note_on,,16,0,9,,,,,,,,,,,,,,,4,,,50,76
26340,note_on,,0,0,10,,,,,,,,,,,,,,,5,,,66,76
26340,note_on,,0,0,10,,,,,,,,,,,,,,,5,,,50,76
26340,note_on,,0,0,10,,,,,,,,,,,,,,,5,,,62,76
26340,note_on,,16,0,10,,,,,,,,,,,,,,,5,,,71,76
26384,note_on,,104,0,7,,,,,,,,,,,,,,,2,,,71,0
26384,note_on,,104,0,6,,,,,,,,,,,,,,,1,,,78,0
26384,note_on,,0,0,10,,,,,,,,,,,,,,,5,,,66,0
26384,note_on,,0,0,10,,,,,,,,,,,,,,,5,,,62,0
26384,note_on,,44,0,10,,,,,,,,,,,,,,,5,,,71,0
26384,note_on,,0,0,10,,,,,,,,,,,,,,,5,,,50,0
26384,note_on,,44,0,9,,,,,,,,,,,,,,,4,,,50,0
26384,note_on,,104,0,5,,,,,,,,,,,,,,,0,,,78,0
26384,note_on,,104,0,8,,,,,,,,,,,,,,,3,,,62,0
26400,note_on,,16,0,8,,,,,,,,,,,,,,,3,,,61,76
26400,note_on,,16,0,9,,,,,,,,,,,,,,,4,,,54,76
26400,note_on,,16,0,7,,,,,,,,,,,,,,,2,,,71,76
26400,note_on,,16,0,6,,,,,,,,,,,,,,,1,,,76,76
26400,note_on,,16,0,5,,,,,,,,,,,,,,,0,,,76,76
26400,note_on,,16,0,10,,,,,,,,,,,,,,,5,,,54,76
26400,note_on,,0,0,10,,,,,,,,,,,,,,,5,,,71,76
26400,note_on,,0,0,10,,,,,,,,,,,,,,,5,,,66,76
26400,note_on,,0,0,10,,,,,,,,,,,,,,,5,,,73,76
26447,note_on,,47,0,6,,,,,,,,,,,,,,,1,,,76,0
26447,note_on,,47,0,5,,,,,,,,,,,,,,,0,,,76,0
26460,note_on,,13,0,6,,,,,,,,,,,,,,,1,,,74,76
26460,note_on,,13,0,5,,,,,,,,,,,,,,,0,,,74,76
26489,note_on,,89,0,9,,,,,,,,,,,,,,,4,,,54,0
26504,note_on,,0,0,10,,,,,,,,,,,,,,,5,,,71,0
26504,note_on,,0,0,10,,,,,,,,,,,,,,,5,,,66,0
26504,note_on,,0,0,10,,,,,,,,,,,,,,,5,,,73,0
26504,note_on,,104,0,8,,,,,,,,,,,,,,,3,,,61,0
26504,note_on,,104,0,7,,,,,,,,,,,,,,,2,,,71,0
26504,note_on,,104,0,10,,,,,,,,,,,,,,,5,,,54,0
26507,note_on,,47,0,6,,,,,,,,,,,,,,,1,,,74,0
26507,note_on,,47,0,5,,,,,,,,,,,,,,,0,,,74,0
26520,note_on,,16,0,8,,,,,,,,,,,,,,,3,,,66,76
26520,note_on,,13,0,6,,,,,,,,,,,,,,,1,,,73,76
26520,note_on,,16,0,7,,,,,,,,,,,,,,,2,,,70,76
26520,note_on,,31,0,9,,,,,,,,,,,,,,,4,,,42,76
26520,note_on,,0,0,10,,,,,,,,,,,,,,,5,,,61,76
26520,note_on,,0,0,10,,,,,,,,,,,,,,,5,,,54,76
26520,note_on,,13,0,5,,,,,,,,,,,,,,,0,,,73,76
26520,note_on,,16,0,10,,,,,,,,,,,,,,,5,,,58,76
26520,note_on,,0,0,10,,,,,,,,,,,,,,,5,,,42,76
26567,note_on,,47,0,5,,,,,,,,,,,,,,,0,,,73,0
26567,note_on,,47,0,6,,,,,,,,,,,,,,,1,,,73,0
26580,note_on,,13,0,6,,,,,,,,,,,,,,,1,,,74,76
26580,note_on,,13,0,5,,,,,,,,,,,,,,,0,,,74,76
26609,note_on,,89,0,9,,,,,,,,,,,,,,,4,,,42,0
26609,note_on,,29,0,5,,,,,,,,,,,,,,,0,,,74,0
26620,note_on,,11,0,5,,,,,,,,,,,,,,,0,,,73,76
26624,note_on,,104,0,7,,,,,,,,,,,,,,,2,,,70,0
26624,note_on,,0,0,10,,,,,,,,,,,,,,,5,,,61,0
26624,note_on,,0,0,10,,,,,,,,,,,,,,,5,,,54,0
26624,note_on,,0,0,10,,,,,,,,,,,,,,,5,,,42,0
26624,note_on,,104,0,10,,,,,,,,,,,,,,,5,,,58,0
26624,note_on,,104,0,8,,,,,,,,,,,,,,,3,,,66,0
26627,note_on,,47,0,6,,,,,,,,,,,,,,,1,,,74,0
26639,note_on,,19,0,5,,,,,,,,,,,,,,,0,,,73,0
26640,note_on,,0,0,10,,,,,,,,,,,,,,,5,,,59,76
26640,note_on,,1,0,5,,,,,,,,,,,,,,,0,,,71,76
26640,note_on,,16,0,10,,,,,,,,,,,,,,,5,,,62,76
26640,note_on,,0,0,10,,,,,,,,,,,,,,,5,,,66,76
26640,note_on,,16,0,7,,,,,,,,,,,,,,,2,,,66,76
26640,note_on,,16,0,8,,,,,,,,,,,,,,,3,,,62,76
26640,note_on,,31,0,9,,,,,,,,,,,,,,,4,,,47,76
26640,note_on,,13,0,6,,,,,,,,,,,,,,,1,,,71,76
26640,note_on,,0,0,10,,,,,,,,,,,,,,,5,,,47,76
26849,note_on,,209,0,6,,,,,,,,,,,,,,,1,,,71,0
26849,note_on,,209,0,7,,,,,,,,,,,,,,,2,,,66,0
26849,note_on,,209,0,8,,,,,,,,,,,,,,,3,,,62,0
26849,note_on,,209,0,5,,,,,,,,,,,,,,,0,,,71,0
26849,note_on,,209,0,9,,,,,,,,,,,,,,,4,,,47,0
26864,note_on,,224,0,10,,,,,,,,,,,,,,,5,,,62,0
26864,note_on,,0,0,10,,,,,,,,,,,,,,,5,,,59,0
26864,note_on,,0,0,10,,,,,,,,,,,,,,,5,,,47,0
26864,note_on,,0,0,10,,,,,,,,,,,,,,,5,,,66,0
26880,note_on,,0,0,10,,,,,,,,,,,,,,,5,,,57,76
26880,note_on,,0,0,10,,,,,,,,,,,,,,,5,,,61,76
26880,note_on,,0,0,10,,,,,,,,,,,,,,,5,,,42,76
26880,note_on,,16,0,10,,,,,,,,,,,,,,,5,,,54,76
26880,note_on,,31,0,8,,,,,,,,,,,,,,,3,,,69,76
26880,note_on,,31,0,6,,,,,,,,,,,,,,,1,,,78,76
26880,note_on,,31,0,5,,,,,,,,,,,,,,,0,,,78,76
26880,note_on,,31,0,7,,,,,,,,,,,,,,,2,,,73,76
26880,note_on,,31,0,9,,,,,,,,,,,,,,,4,,,42,76
26969,note_on,,89,0,8,,,,,,,,,,,,,,,3,,,69,0
26969,note_on,,89,0,9,,,,,,,,,,,,,,,4,,,42,0
26969,note_on,,89,0,6,,,,,,,,,,,,,,,1,,,78,0
26969,note_on,,89,0,7,,,,,,,,,,,,,,,2,,,73,0
26984,note_on,,104,0,5,,,,,,,,,,,,,,,0,,,78,0
26984,note_on,,0,0,10,,,,,,,,,,,,,,,5,,,61,0
26984,note_on,,0,0,10,,,,,,,,,,,,,,,5,,,42,0
26984,note_on,,104,0,10,,,,,,,,,,,,,,,5,,,54,0
26984,note_on,,0,0,10,,,,,,,,,,,,,,,5,,,57,0
27000,note_on,,0,0,10,,,,,,,,,,,,,,,5,,,42,76
27000,note_on,,16,0,10,,,,,,,,,,,,,,,5,,,57,76
27000,note_on,,31,0,9,,,,,,,,,,,,,,,4,,,42,76
27000,note_on,,0,0,10,,,,,,,,,,,,,,,5,,,61,76
27000,note_on,,16,0,5,,,,,,,,,,,,,,,0,,,81,76
27000,note_on,,0,0,10,,,,,,,,,,,,,,,5,,,54,76
27047,note_on,,47,0,5,,,,,,,,,,,,,,,0,,,81,0
27060,note_on,,13,0,5,,,,,,,,,,,,,,,0,,,78,76
27089,note_on,,89,0,9,,,,,,,,,,,,,,,4,,,42,0
27104,note_on,,0,0,10,,,,,,,,,,,,,,,5,,,61,0
27104,note_on,,104,0,10,,,,,,,,,,,,,,,5,,,57,0
27104,note_on,,0,0,10,,,,,,,,,,,,,,,5,,,42,0
27104,note_on,,0,0,10,,,,,,,,,,,,,,,5,,,54,0
27107,note_on,,47,0,5,,,,,,,,,,,,,,,0,,,78,0
27120,note_on,,31,0,9,,,,,,,,,,,,,,,4,,,45,76
27120,note_on,,0,0,10,,,,,,,,,,,,,,,5,,,66,76
27120,note_on,,0,0,10,,,,,,,,,,,,,,,5,,,57,76
27120,note_on,,0,0,10,,,,,,,,,,,,,,,5,,,45,76
27120,note_on,,16,0,10,,,,,,,,,,,,,,,5,,,61,76
27120,note_on,,13,0,5,,,,,,,,,,,,,,,0,,,73,76
27120,note_on,,151,0,7,,,,,,,,,,,,,,,2,,,69,76
27120,note_on,,151,0,8,,,,,,,,,,,,,,,3,,,66,76
27120,note_on,,151,0,6,,,,,,,,,,,,,,,1,,,73,76
27209,note_on,,89,0,9,,,,,,,,,,,,,,,4,,,45,0
27209,note_on,,89,0,7,,,,,,,,,,,,,,,2,,,69,0
27209,note_on,,89,0,6,,,,,,,,,,,,,,,1,,,73,0
27209,note_on,,89,0,8,,,,,,,,,,,,,,,3,,,66,0
27224,note_on,,104,0,5,,,,,,,,,,,,,,,0,,,73,0
27224,note_on,,0,0,10,,,,,,,,,,,,,,,5,,,45,0
27224,note_on,,0,0,10,,,,,,,,,,,,,,,5,,,66,0
27224,note_on,,104,0,10,,,,,,,,,,,,,,,5,,,61,0
27224,note_on,,0,0,10,,,,,,,,,,,,,,,5,,,57,0
27240,note_on,,0,0,10,,,,,,,,,,,,,,,5,,,61,76
27240,note_on,,0,0,10,,,,,,,,,,,,,,,5,,,54,76
27240,note_on,,16,0,10,,,,,,,,,,,,,,,5,,,57,76
27240,note_on,,16,0,5,,,,,,,,,,,,,,,0,,,78,76
27240,note_on,,31,0,9,,,,,,,,,,,,,,,4,,,42,76
27240,note_on,,0,0,10,,,,,,,,,,,,,,,5,,,42,76
27287,note_on,,47,0,5,,,,,,,,,,,,,,,0,,,78,0
27300,note_on,,13,0,5,,,,,,,,,,,,,,,0,,,73,76
27329,note_on,,89,0,9,,,,,,,,,,,,,,,4,,,42,0
27344,note_on,,0,0,10,,,,,,,,,,,,,,,5,,,42,0
27344,note_on,,0,0,10,,,,,,,,,,,,,,,5,,,54,0
27344,note_on,,0,0,10,,,,,,,,,,,,,,,5,,,61,0
27344,note_on,,104,0,10,,,,,,,,,,,,,,,5,,,57,0
27347,note_on,,47,0,5,,,,,,,,,,,,,,,0,,,73,0
27360,note_on,,31,0,9,,,,,,,,,,,,,,,4,,,49,76
27360,note_on,,0,0,10,,,,,,,,,,,,,,,5,,,61,76
27360,note_on,,0,0,10,,,,,,,,,,,,,,,5,,,49,76
27360,note_on,,151,0,7,,,,,,,,,,,,,,,2,,,66,76
27360,note_on,,151,0,8,,,,,,,,,,,,,,,3,,,61,76
27360,note_on,,0,0,10,,,,,,,,,,,,,,,5,,,69,76
27360,note_on,,151,0,6,,,,,,,,,,,,,,,1,,,69,76
27360,note_on,,13,0,5,,,,,,,,,,,,,,,0,,,69,76
27360,note_on,,16,0,10,,,,,,,,,,,,,,,5,,,66,76
27449,note_on,,89,0,8,,,,,,,,,,,,,,,3,,,61,0
27449,note_on,,89,0,9,,,,,,,,,,,,,,,4,,,49,0
27449,note_on,,89,0,6,,,,,,,,,,,,,,,1,,,69,0
27449,note_on,,89,0,7,,,,,,,,,,,,,,,2,,,66,0
27464,note_on,,104,0,5,,,,,,,,,,,,,,,0,,,69,0
27464,note_on,,0,0,10,,,,,,,,,,,,,,,5,,,61,0
27464,note_on,,0,0,10,,,,,,,,,,,,,,,5,,,69,0
27464,note_on,,0,0,10,,,,,,,,,,,,,,,5,,,49,0
27464,note_on,,104,0,10,,,,,,,,,,,,,,,5,,,66,0
27480,note_on,,31,0,9,,,,,,,,,,,,,,,4,,,45,76
27480,note_on,,0,0,10,,,,,,,,,,,,,,,5,,,61,76
27480,note_on,,0,0,10,,,,,,,,,,,,,,,5,,,66,76
27480,note_on,,16,0,10,,,,,,,,,,,,,,,5,,,45,76
27480,note_on,,16,0,5,,,,,,,,,,,,,,,0,,,73,76
27480,note_on,,0,0,10,,,,,,,,,,,,,,,5,,,57,76
27527,note_on,,47,0,5,,,,,,,,,,,,,,,0,,,73,0
27540,note_on,,13,0,5,,,,,,,,,,,,,,,0,,,69,76
27569,note_on,,89,0,9,,,,,,,,,,,,,,,4,,,45,0
27584,note_on,,0,0,10,,,,,,,,,,,,,,,5,,,66,0
27584,note_on,,0,0,10,,,,,,,,,,,,,,,5,,,61,0
27584,note_on,,0,0,10,,,,,,,,,,,,,,,5,,,57,0
27584,note_on,,104,0,10,,,,,,,,,,,,,,,5,,,45,0
27587,note_on,,47,0,5,,,,,,,,,,,,,,,0,,,69,0
27600,note_on,,151,0,7,,,,,,,,,,,,,,,2,,,61,76
27600,note_on,,16,0,10,,,,,,,,,,,,,,,5,,,66,76
27600,note_on,,151,0,8,,,,,,,,,,,,,,,3,,,57,76
27600,note_on,,31,0,9,,,,,,,,,,,,,,,4,,,54,76
27600,note_on,,0,0,10,,,,,,,,,,,,,,,5,,,54,76
27600,note_on,,0,0,10,,,,,,,,,,,,,,,5,,,69,76
27600,note_on,,0,0,10,,,,,,,,,,,,,,,5,,,73,76
27600,note_on,,13,0,5,,,,,,,,,,,,,,,0,,,66,76
27600,note_on,,151,0,6,,,,,,,,,,,,,,,1,,,66,76
27689,note_on,,89,0,9,,,,,,,,,,,,,,,4,,,54,0
27689,note_on,,89,0,7,,,,,,,,,,,,,,,2,,,61,0
27704,note_on,,104,0,10,,,,,,,,,,,,,,,5,,,66,0
27704,note_on,,0,0,10,,,,,,,,,,,,,,,5,,,73,0
27704,note_on,,0,0,10,,,,,,,,,,,,,,,5,,,54,0
27704,note_on,,0,0,10,,,,,,,,,,,,,,,5,,,69,0
27720,note_on,,31,0,9,,,,,,,,,,,,,,,4,,,57,76
27720,note_on,,0,0,10,,,,,,,,,,,,,,,5,,,76,76
27720,note_on,,0,0,10,,,,,,,,,,,,,,,5,,,69,76
27720,note_on,,0,0,10,,,,,,,,,,,,,,,5,,,57,76
27720,note_on,,16,0,10,,,,,,,,,,,,,,,5,,,73,76
27764,note_on,,0,0,10,,,,,,,,,,,,,,,5,,,69,0
27764,note_on,,0,0,10,,,,,,,,,,,,,,,5,,,57,0
27764,note_on,,44,0,10,,,,,,,,,,,,,,,5,,,73,0
27764,note_on,,0,0,10,,,,,,,,,,,,,,,5,,,76,0
27764,note_on,,44,0,9,,,,,,,,,,,,,,,4,,,57,0
27780,note_on,,0,0,10,,,,,,,,,,,,,,,5,,,66,76
27780,note_on,,0,0,10,,,,,,,,,,,,,,,5,,,54,76
27780,note_on,,0,0,10,,,,,,,,,,,,,,,5,,,73,76
27780,note_on,,16,0,10,,,,,,,,,,,,,,,5,,,69,76
27780,note_on,,16,0,9,,,,,,,,,,,,,,,4,,,54,76
27824,note_on,,224,0,5,,,,,,,,,,,,,,,0,,,66,0
27824,note_on,,0,0,10,,,,,,,,,,,,,,,5,,,66,0
27824,note_on,,224,0,8,,,,,,,,,,,,,,,3,,,57,0
27824,note_on,,44,0,9,,,,,,,,,,,,,,,4,,,54,0
27824,note_on,,0,0,10,,,,,,,,,,,,,,,5,,,54,0
27824,note_on,,0,0,10,,,,,,,,,,,,,,,5,,,73,0
27824,note_on,,44,0,10,,,,,,,,,,,,,,,5,,,69,0
27824,note_on,,224,0,6,,,,,,,,,,,,,,,1,,,66,0
27840,note_on,,16,0,6,,,,,,,,,,,,,,,1,,,69,52
27840,note_on,,16,0,5,,,,,,,,,,,,,,,0,,,72,76
27840,note_on,,151,0,7,,,,,,,,,,,,,,,2,,,66,52
27840,note_on,,0,0,10,,,,,,,,,,,,,,,5,,,66,76
27840,note_on,,0,0,10,,,,,,,,,,,,,,,5,,,63,76
27840,note_on,,0,0,10,,,,,,,,,,,,,,,5,,,51,76
27840,note_on,,0,0,10,,,,,,,,,,,,,,,5,,,69,76
27840,note_on,,16,0,10,,,,,,,,,,,,,,,5,,,72,76
27840,note_on,,16,0,8,,,,,,,,,,,,,,,3,,,54,52
27840,note_on,,16,0,9,,,,,,,,,,,,,,,4,,,51,52
27929,note_on,,89,0,8,,,,,,,,,,,,,,,3,,,54,0
27929,note_on,,89,0,9,,,,,,,,,,,,,,,4,,,51,0
27929,note_on,,89,0,7,,,,,,,,,,,,,,,2,,,66,0
27929,note_on,,89,0,6,,,,,,,,,,,,,,,1,,,69,0
27944,note_on,,0,0,10,,,,,,,,,,,,,,,5,,,66,0
27944,note_on,,0,0,10,,,,,,,,,,,,,,,5,,,51,0
27944,note_on,,0,0,10,,,,,,,,,,,,,,,5,,,69,0
27944,note_on,,104,0,10,,,,,,,,,,,,,,,5,,,72,0
27944,note_on,,0,0,10,,,,,,,,,,,,,,,5,,,63,0
27959,note_on,,119,0,5,,,,,,,,,,,,,,,0,,,72,0
27960,note_on,,1,0,5,,,,,,,,,,,,,,,0,,,71,76
27960,note_on,,31,0,9,,,,,,,,,,,,,,,4,,,54,52
27960,note_on,,16,0,10,,,,,,,,,,,,,,,5,,,54,76
27960,note_on,,0,0,10,,,,,,,,,,,,,,,5,,,66,76
27960,note_on,,0,0,10,,,,,,,,,,,,,,,5,,,71,76
27960,note_on,,0,0,10,,,,,,,,,,,,,,,5,,,75,76
28004,note_on,,44,0,9,,,,,,,,,,,,,,,4,,,54,0
28004,note_on,,44,0,10,,,,,,,,,,,,,,,5,,,54,0
28004,note_on,,0,0,10,,,,,,,,,,,,,,,5,,,66,0
28004,note_on,,0,0,10,,,,,,,,,,,,,,,5,,,71,0
28004,note_on,,0,0,10,,,,,,,,,,,,,,,5,,,75,0
28020,note_on,,16,0,9,,,,,,,,,,,,,,,4,,,51,52
28020,note_on,,16,0,10,,,,,,,,,,,,,,,5,,,69,76
28020,note_on,,0,0,10,,,,,,,,,,,,,,,5,,,63,76
28020,note_on,,0,0,10,,,,,,,,,,,,,,,5,,,66,76
28020,note_on,,0,0,10,,,,,,,,,,,,,,,5,,,51,76
28020,note_on,,0,0,10,,,,,,,,,,,,,,,5,,,72,76
28064,note_on,,44,0,9,,,,,,,,,,,,,,,4,,,51,0
28064,note_on,,0,0,10,,,,,,,,,,,,,,,5,,,72,0
28064,note_on,,0,0,10,,,,,,,,,,,,,,,5,,,51,0
28064,note_on,,44,0,10,,,,,,,,,,,,,,,5,,,69,0
28064,note_on,,104,0,5,,,,,,,,,,,,,,,0,,,71,0
28064,note_on,,0,0,10,,,,,,,,,,,,,,,5,,,66,0
28064,note_on,,0,0,10,,,,,,,,,,,,,,,5,,,63,0
28080,note_on,,151,0,8,,,,,,,,,,,,,,,3,,,55,52
28080,note_on,,151,0,7,,,,,,,,,,,,,,,2,,,64,52
28080,note_on,,151,0,6,,,,,,,,,,,,,,,1,,,67,52
28080,note_on,,16,0,10,,,,,,,,,,,,,,,5,,,47,76
28080,note_on,,0,0,10,,,,,,,,,,,,,,,5,,,67,76
28080,note_on,,0,0,10,,,,,,,,,,,,,,,5,,,59,76
28080,note_on,,16,0,9,,,,,,,,,,,,,,,4,,,47,52
28080,note_on,,0,0,10,,,,,,,,,,,,,,,5,,,64,76
28080,note_on,,16,0,5,,,,,,,,,,,,,,,0,,,76,76
28169,note_on,,89,0,8,,,,,,,,,,,,,,,3,,,55,0
28169,note_on,,89,0,6,,,,,,,,,,,,,,,1,,,67,0
28169,note_on,,89,0,7,,,,,,,,,,,,,,,2,,,64,0
28184,note_on,,0,0,10,,,,,,,,,,,,,,,5,,,64,0
28184,note_on,,0,0,10,,,,,,,,,,,,,,,5,,,67,0
28184,note_on,,104,0,10,,,,,,,,,,,,,,,5,,,47,0
28184,note_on,,0,0,10,,,,,,,,,,,,,,,5,,,59,0
28199,note_on,,119,0,5,,,,,,,,,,,,,,,0,,,76,0
28199,note_on,,119,0,9,,,,,,,,,,,,,,,4,,,47,0
28200,note_on,,0,0,10,,,,,,,,,,,,,,,5,,,59,76
28200,note_on,,0,0,10,,,,,,,,,,,,,,,5,,,63,76
28200,note_on,,1,0,5,,,,,,,,,,,,,,,0,,,75,76
28200,note_on,,1,0,9,,,,,,,,,,,,,,,4,,,47,52
28200,note_on,,0,0,10,,,,,,,,,,,,,,,5,,,47,76
28200,note_on,,16,0,10,,,,,,,,,,,,,,,5,,,66,76
28247,note_on,,47,0,5,,,,,,,,,,,,,,,0,,,75,0
28260,note_on,,13,0,5,,,,,,,,,,,,,,,0,,,78,76
28304,note_on,,104,0,10,,,,,,,,,,,,,,,5,,,66,0
28304,note_on,,0,0,10,,,,,,,,,,,,,,,5,,,59,0
28304,note_on,,0,0,10,,,,,,,,,,,,,,,5,,,63,0
28304,note_on,,0,0,10,,,,,,,,,,,,,,,5,,,47,0
28307,note_on,,47,0,5,,,,,,,,,,,,,,,0,,,78,0
28319,note_on,,119,0,9,,,,,,,,,,,,,,,4,,,47,0
28320,note_on,,151,0,7,,,,,,,,,,,,,,,2,,,63,52
28320,note_on,,0,0,10,,,,,,,,,,,,,,,5,,,63,76
28320,note_on,,151,0,6,,,,,,,,,,,,,,,1,,,66,52
28320,note_on,,0,0,10,,,,,,,,,,,,,,,5,,,69,76
28320,note_on,,1,0,9,,,,,,,,,,,,,,,4,,,47,52
28320,note_on,,13,0,5,,,,,,,,,,,,,,,0,,,81,76
28320,note_on,,16,0,10,,,,,,,,,,,,,,,5,,,47,76
28320,note_on,,0,0,10,,,,,,,,,,,,,,,5,,,66,76
28320,note_on,,151,0,8,,,,,,,,,,,,,,,3,,,59,52
28320,note_on,,0,0,10,,,,,,,,,,,,,,,5,,,59,76
28409,note_on,,89,0,8,,,,,,,,,,,,,,,3,,,59,0
28409,note_on,,89,0,6,,,,,,,,,,,,,,,1,,,66,0
28409,note_on,,89,0,7,,,,,,,,,,,,,,,2,,,63,0
28424,note_on,,104,0,10,,,,,,,,,,,,,,,5,,,47,0
28424,note_on,,0,0,10,,,,,,,,,,,,,,,5,,,66,0
28424,note_on,,0,0,10,,,,,,,,,,,,,,,5,,,69,0
28424,note_on,,104,0,5,,,,,,,,,,,,,,,0,,,81,0
28424,note_on,,0,0,10,,,,,,,,,,,,,,,5,,,59,0
28424,note_on,,0,0,10,,,,,,,,,,,,,,,5,,,63,0
28439,note_on,,119,0,9,,,,,,,,,,,,,,,4,,,47,0
28440,note_on,,0,0,10,,,,,,,,,,,,,,,5,,,59,76
28440,note_on,,0,0,10,,,,,,,,,,,,,,,5,,,63,76
28440,note_on,,1,0,9,,,,,,,,,,,,,,,4,,,47,52
28440,note_on,,16,0,5,,,,,,,,,,,,,,,0,,,79,76
28440,note_on,,16,0,10,,,,,,,,,,,,,,,5,,,47,76
28440,note_on,,0,0,10,,,,,,,,,,,,,,,5,,,66,76
28487,note_on,,47,0,5,,,,,,,,,,,,,,,0,,,79,0
28500,note_on,,13,0,5,,,,,,,,,,,,,,,0,,,78,76
28529,note_on,,89,0,9,,,,,,,,,,,,,,,4,,,47,0
28544,note_on,,0,0,10,,,,,,,,,,,,,,,5,,,66,0
28544,note_on,,104,0,10,,,,,,,,,,,,,,,5,,,47,0
28544,note_on,,0,0,10,,,,,,,,,,,,,,,5,,,63,0
28544,note_on,,0,0,10,,,,,,,,,,,,,,,5,,,59,0
28547,note_on,,47,0,5,,,,,,,,,,,,,,,0,,,78,0
28560,note_on,,151,0,8,,,,,,,,,,,,,,,3,,,59,52
28560,note_on,,151,0,6,,,,,,,,,,,,,,,1,,,64,52
28560,note_on,,0,0,10,,,,,,,,,,,,,,,5,,,67,76
28560,note_on,,31,0,9,,,,,,,,,,,,,,,4,,,52,52
28560,note_on,,0,0,10,,,,,,,,,,,,,,,5,,,71,76
28560,note_on,,0,0,10,,,,,,,,,,,,,,,5,,,52,76
28560,note_on,,151,0,7,,,,,,,,,,,,,,,2,,,64,52
28560,note_on,,13,0,5,,,,,,,,,,,,,,,0,,,79,76
28560,note_on,,16,0,10,,,,,,,,,,,,,,,5,,,64,76
28649,note_on,,89,0,9,,,,,,,,,,,,,,,4,,,52,0
28649,note_on,,89,0,8,,,,,,,,,,,,,,,3,,,59,0
28649,note_on,,89,0,6,,,,,,,,,,,,,,,1,,,64,0
28649,note_on,,89,0,7,,,,,,,,,,,,,,,2,,,64,0
28664,note_on,,0,0,10,,,,,,,,,,,,,,,5,,,71,0
28664,note_on,,0,0,10,,,,,,,,,,,,,,,5,,,52,0
28664,note_on,,0,0,10,,,,,,,,,,,,,,,5,,,67,0
28664,note_on,,104,0,10,,,,,,,,,,,,,,,5,,,64,0
28664,note_on,,104,0,5,,,,,,,,,,,,,,,0,,,79,0
28680,note_on,,0,0,10,,,,,,,,,,,,,,,5,,,71,76
28680,note_on,,16,0,10,,,,,,,,,,,,,,,5,,,78,76
28680,note_on,,0,0,10,,,,,,,,,,,,,,,5,,,74,76
28680,note_on,,0,0,10,,,,,,,,,,,,,,,5,,,59,76
28680,note_on,,31,0,9,,,,,,,,,,,,,,,4,,,59,52
28680,note_on,,16,0,5,,,,,,,,,,,,,,,0,,,76,76
28724,note_on,,44,0,9,,,,,,,,,,,,,,,4,,,59,0
28724,note_on,,0,0,10,,,,,,,,,,,,,,,5,,,71,0
28724,note_on,,44,0,10,,,,,,,,,,,,,,,5,,,78,0
28724,note_on,,0,0,10,,,,,,,,,,,,,,,5,,,59,0
28724,note_on,,0,0,10,,,,,,,,,,,,,,,5,,,74,0
28740,note_on,,0,0,10,,,,,,,,,,,,,,,5,,,71,76
28740,note_on,,0,0,10,,,,,,,,,,,,,,,5,,,55,76
28740,note_on,,16,0,10,,,,,,,,,,,,,,,5,,,67,76
28740,note_on,,0,0,10,,,,,,,,,,,,,,,5,,,74,76
28740,note_on,,16,0,9,,,,,,,,,,,,,,,4,,,55,52
28784,note_on,,104,0,5,,,,,,,,,,,,,,,0,,,76,0
28784,note_on,,44,0,9,,,,,,,,,,,,,,,4,,,55,0
28784,note_on,,44,0,10,,,,,,,,,,,,,,,5,,,67,0
28784,note_on,,0,0,10,,,,,,,,,,,,,,,5,,,74,0
28784,note_on,,0,0,10,,,,,,,,,,,,,,,5,,,55,0
28784,note_on,,0,0,10,,,,,,,,,,,,,,,5,,,71,0
28800,note_on,,16,0,9,,,,,,,,,,,,,,,4,,,52,76
28800,note_on,,16,0,5,,,,,,,,,,,,,,,0,,,79,76
28800,note_on,,151,0,7,,,,,,,,,,,,,,,2,,,76,76
28800,note_on,,0,0,10,,,,,,,,,,,,,,,5,,,52,76
28800,note_on,,0,0,10,,,,,,,,,,,,,,,5,,,64,76
28800,note_on,,0,0,10,,,,,,,,,,,,,,,5,,,71,76
28800,note_on,,151,0,6,,,,,,,,,,,,,,,1,,,79,76
28800,note_on,,16,0,10,,,,,,,,,,,,,,,5,,,67,76
28800,note_on,,151,0,8,,,,,,,,,,,,,,,3,,,71,76
28889,note_on,,89,0,8,,,,,,,,,,,,,,,3,,,71,0
28889,note_on,,89,0,9,,,,,,,,,,,,,,,4,,,52,0
28889,note_on,,89,0,7,,,,,,,,,,,,,,,2,,,76,0
28889,note_on,,89,0,6,,,,,,,,,,,,,,,1,,,79,0
28904,note_on,,104,0,5,,,,,,,,,,,,,,,0,,,79,0
28904,note_on,,104,0,10,,,,,,,,,,,,,,,5,,,67,0
28904,note_on,,0,0,10,,,,,,,,,,,,,,,5,,,52,0
28904,note_on,,0,0,10,,,,,,,,,,,,,,,5,,,64,0
28904,note_on,,0,0,10,,,,,,,,,,,,,,,5,,,71,0
28920,note_on,,0,0,10,,,,,,,,,,,,,,,5,,,67,76
28920,note_on,,0,0,10,,,,,,,,,,,,,,,5,,,74,76
28920,note_on,,0,0,10,,,,,,,,,,,,,,,5,,,71,76
28920,note_on,,16,0,10,,,,,,,,,,,,,,,5,,,55,76
28920,note_on,,31,0,9,,,,,,,,,,,,,,,4,,,55,76
28920,note_on,,16,0,5,,,,,,,,,,,,,,,0,,,83,76
28964,note_on,,0,0,10,,,,,,,,,,,,,,,5,,,74,0
28964,note_on,,0,0,10,,,,,,,,,,,,,,,5,,,67,0
28964,note_on,,44,0,10,,,,,,,,,,,,,,,5,,,55,0
28964,note_on,,44,0,9,,,,,,,,,,,,,,,4,,,55,0
28964,note_on,,0,0,10,,,,,,,,,,,,,,,5,,,71,0
28967,note_on,,47,0,5,,,,,,,,,,,,,,,0,,,83,0
28980,note_on,,0,0,10,,,,,,,,,,,,,,,5,,,71,76
28980,note_on,,0,0,10,,,,,,,,,,,,,,,5,,,67,76
28980,note_on,,0,0,10,,,,,,,,,,,,,,,5,,,52,76
28980,note_on,,16,0,10,,,,,,,,,,,,,,,5,,,64,76
28980,note_on,,16,0,9,,,,,,,,,,,,,,,4,,,52,76
28980,note_on,,13,0,5,,,,,,,,,,,,,,,0,,,79,76
29024,note_on,,44,0,9,,,,,,,,,,,,,,,4,,,52,0
29024,note_on,,0,0,10,,,,,,,,,,,,,,,5,,,67,0
29024,note_on,,44,0,10,,,,,,,,,,,,,,,5,,,64,0
29024,note_on,,0,0,10,,,,,,,,,,,,,,,5,,,52,0
29024,note_on,,0,0,10,,,,,,,,,,,,,,,5,,,71,0
29027,note_on,,47,0,5,,,,,,,,,,,,,,,0,,,79,0
29040,note_on,,13,0,5,,,,,,,,,,,,,,,0,,,76,76
29040,note_on,,151,0,6,,,,,,,,,,,,,,,1,,,79,76
29040,note_on,,16,0,9,,,,,,,,,,,,,,,4,,,49,76
29040,note_on,,16,0,10,,,,,,,,,,,,,,,5,,,69,76
29040,note_on,,0,0,10,,,,,,,,,,,,,,,5,,,61,76
29040,note_on,,0,0,10,,,,,,,,,,,,,,,5,,,64,76
29040,note_on,,0,0,10,,,,,,,,,,,,,,,5,,,67,76
29040,note_on,,151,0,8,,,,,,,,,,,,,,,3,,,69,76
29040,note_on,,151,0,7,,,,,,,,,,,,,,,2,,,76,76
29040,note_on,,0,0,10,,,,,,,,,,,,,,,5,,,49,76
29129,note_on,,89,0,7,,,,,,,,,,,,,,,2,,,76,0
29129,note_on,,89,0,8,,,,,,,,,,,,,,,3,,,69,0
29129,note_on,,89,0,9,,,,,,,,,,,,,,,4,,,49,0
29129,note_on,,89,0,6,,,,,,,,,,,,,,,1,,,79,0
29144,note_on,,104,0,10,,,,,,,,,,,,,,,5,,,69,0
29144,note_on,,0,0,10,,,,,,,,,,,,,,,5,,,61,0
29144,note_on,,0,0,10,,,,,,,,,,,,,,,5,,,67,0
29144,note_on,,104,0,5,,,,,,,,,,,,,,,0,,,76,0
29144,note_on,,0,0,10,,,,,,,,,,,,,,,5,,,49,0
29144,note_on,,0,0,10,,,,,,,,,,,,,,,5,,,64,0
29160,note_on,,31,0,9,,,,,,,,,,,,,,,4,,,45,76
29160,note_on,,0,0,10,,,,,,,,,,,,,,,5,,,57,76
29160,note_on,,16,0,10,,,,,,,,,,,,,,,5,,,61,76
29160,note_on,,16,0,5,,,,,,,,,,,,,,,0,,,79,76
29160,note_on,,0,0,10,,,,,,,,,,,,,,,5,,,64,76
29160,note_on,,0,0,10,,,,,,,,,,,,,,,5,,,45,76
29207,note_on,,47,0,5,,,,,,,,,,,,,,,0,,,79,0
29220,note_on,,13,0,5,,,,,,,,,,,,,,,0,,,76,76
29249,note_on,,89,0,9,,,,,,,,,,,,,,,4,,,45,0
29264,note_on,,0,0,10,,,,,,,,,,,,,,,5,,,64,0
29264,note_on,,0,0,10,,,,,,,,,,,,,,,5,,,45,0
29264,note_on,,0,0,10,,,,,,,,,,,,,,,5,,,57,0
29264,note_on,,104,0,10,,,,,,,,,,,,,,,5,,,61,0
29267,note_on,,47,0,5,,,,,,,,,,,,,,,0,,,76,0
29280,note_on,,16,0,10,,,,,,,,,,,,,,,5,,,52,76
29280,note_on,,0,0,10,,,,,,,,,,,,,,,5,,,73,76
29280,note_on,,0,0,10,,,,,,,,,,,,,,,5,,,64,76
29280,note_on,,0,0,10,,,,,,,,,,,,,,,5,,,67,76
29280,note_on,,0,0,10,,,,,,,,,,,,,,,5,,,69,76
29280,note_on,,151,0,8,,,,,,,,,,,,,,,3,,,69,76
29280,note_on,,31,0,9,,,,,,,,,,,,,,,4,,,52,76
29280,note_on,,151,0,6,,,,,,,,,,,,,,,1,,,76,76
29280,note_on,,151,0,7,,,,,,,,,,,,,,,2,,,73,76
29280,note_on,,13,0,5,,,,,,,,,,,,,,,0,,,73,76
29369,note_on,,89,0,6,,,,,,,,,,,,,,,1,,,76,0
29369,note_on,,89,0,8,,,,,,,,,,,,,,,3,,,69,0
29369,note_on,,89,0,9,,,,,,,,,,,,,,,4,,,52,0
29369,note_on,,89,0,7,,,,,,,,,,,,,,,2,,,73,0
29384,note_on,,0,0,10,,,,,,,,,,,,,,,5,,,73,0
29384,note_on,,104,0,5,,,,,,,,,,,,,,,0,,,73,0
29384,note_on,,0,0,10,,,,,,,,,,,,,,,5,,,64,0
29384,note_on,,0,0,10,,,,,,,,,,,,,,,5,,,67,0
29384,note_on,,104,0,10,,,,,,,,,,,,,,,5,,,52,0
29384,note_on,,0,0,10,,,,,,,,,,,,,,,5,,,69,0
29400,note_on,,16,0,10,,,,,,,,,,,,,,,5,,,61,76
29400,note_on,,31,0,9,,,,,,,,,,,,,,,4,,,49,76
29400,note_on,,0,0,10,,,,,,,,,,,,,,,5,,,64,76
29400,note_on,,16,0,5,,,,,,,,,,,,,,,0,,,76,76
29400,note_on,,0,0,10,,,,,,,,,,,,,,,5,,,49,76
29400,note_on,,0,0,10,,,,,,,,,,,,,,,5,,,67,76
29447,note_on,,47,0,5,,,,,,,,,,,,,,,0,,,76,0
29460,note_on,,13,0,5,,,,,,,,,,,,,,,0,,,73,76
29489,note_on,,89,0,9,,,,,,,,,,,,,,,4,,,49,0
29504,note_on,,0,0,10,,,,,,,,,,,,,,,5,,,64,0
29504,note_on,,0,0,10,,,,,,,,,,,,,,,5,,,67,0
29504,note_on,,104,0,10,,,,,,,,,,,,,,,5,,,61,0
29504,note_on,,0,0,10,,,,,,,,,,,,,,,5,,,49,0
29507,note_on,,47,0,5,,,,,,,,,,,,,,,0,,,73,0
29520,note_on,,151,0,7,,,,,,,,,,,,,,,2,,,69,76
29520,note_on,,13,0,5,,,,,,,,,,,,,,,0,,,69,76
29520,note_on,,0,0,10,,,,,,,,,,,,,,,5,,,76,76
29520,note_on,,151,0,6,,,,,,,,,,,,,,,1,,,73,76
29520,note_on,,0,0,10,,,,,,,,,,,,,,,5,,,55,76
29520,note_on,,31,0,9,,,,,,,,,,,,,,,4,,,55,76
29520,note_on,,0,0,10,,,,,,,,,,,,,,,5,,,69,76
29520,note_on,,16,0,10,,,,,,,,,,,,,,,5,,,73,76
29520,note_on,,0,0,10,,,,,,,,,,,,,,,5,,,67,76
29520,note_on,,151,0,8,,,,,,,,,,,,,,,3,,,64,76
29609,note_on,,89,0,9,,,,,,,,,,,,,,,4,,,55,0
29624,note_on,,104,0,10,,,,,,,,,,,,,,,5,,,73,0
29624,note_on,,0,0,10,,,,,,,,,,,,,,,5,,,67,0
29624,note_on,,0,0,10,,,,,,,,,,,,,,,5,,,55,0
29624,note_on,,0,0,10,,,,,,,,,,,,,,,5,,,76,0
29624,note_on,,0,0,10,,,,,,,,,,,,,,,5,,,69,0
29640,note_on,,0,0,10,,,,,,,,,,,,,,,5,,,71,76
29640,note_on,,0,0,10,,,,,,,,,,,,,,,5,,,52,76
29640,note_on,,0,0,10,,,,,,,,,,,,,,,5,,,64,76
29640,note_on,,31,0,9,,,,,,,,,,,,,,,4,,,52,76
29640,note_on,,16,0,10,,,,,,,,,,,,,,,5,,,67,76
29729,note_on,,89,0,9,,,,,,,,,,,,,,,4,,,52,0
29744,note_on,,224,0,6,,,,,,,,,,,,,,,1,,,73,0
29744,note_on,,224,0,7,,,,,,,,,,,,,,,2,,,69,0
29744,note_on,,0,0,10,,,,,,,,,,,,,,,5,,,64,0
29744,note_on,,0,0,10,,,,,,,,,,,,,,,5,,,71,0
29744,note_on,,0,0,10,,,,,,,,,,,,,,,5,,,52,0
29744,note_on,,224,0,8,,,,,,,,,,,,,,,3,,,64,0
29744,note_on,,104,0,10,,,,,,,,,,,,,,,5,,,67,0
29760,note_on,,16,0,7,,,,,,,,,,,,,,,2,,,69,76
29760,note_on,,31,0,9,,,,,,,,,,,,,,,4,,,54,76
29760,note_on,,0,0,10,,,,,,,,,,,,,,,5,,,66,76
29760,note_on,,16,0,8,,,,,,,,,,,,,,,3,,,69,76
29760,note_on,,16,0,6,,,,,,,,,,,,,,,1,,,74,76
29760,note_on,,16,0,10,,,,,,,,,,,,,,,5,,,54,76
29760,note_on,,0,0,10,,,,,,,,,,,,,,,5,,,69,76
29760,note_on,,0,0,10,,,,,,,,,,,,,,,5,,,74,76
29807,note_on,,287,0,5,,,,,,,,,,,,,,,0,,,69,0
29820,note_on,,13,0,5,,,,,,,,,,,,,,,0,,,74,76
29849,note_on,,89,0,8,,,,,,,,,,,,,,,3,,,69,0
29849,note_on,,89,0,7,,,,,,,,,,,,,,,2,,,69,0
29849,note_on,,89,0,9,,,,,,,,,,,,,,,4,,,54,0
29864,note_on,,104,0,6,,,,,,,,,,,,,,,1,,,74,0
29864,note_on,,0,0,10,,,,,,,,,,,,,,,5,,,69,0
29864,note_on,,0,0,10,,,,,,,,,,,,,,,5,,,74,0
29864,note_on,,0,0,10,,,,,,,,,,,,,,,5,,,66,0
29864,note_on,,104,0,10,,,,,,,,,,,,,,,5,,,54,0
29867,note_on,,47,0,5,,,,,,,,,,,,,,,0,,,74,0
29880,note_on,,0,0,10,,,,,,,,,,,,,,,5,,,74,76
29880,note_on,,0,0,10,,,,,,,,,,,,,,,5,,,71,76
29880,note_on,,13,0,5,,,,,,,,,,,,,,,0,,,78,76
29880,note_on,,31,0,8,,,,,,,,,,,,,,,3,,,66,76
29880,note_on,,16,0,10,,,,,,,,,,,,,,,5,,,59,76
29880,note_on,,31,0,9,,,,,,,,,,,,,,,4,,,59,76
29880,note_on,,0,0,10,,,,,,,,,,,,,,,5,,,78,76
29880,note_on,,31,0,7,,,,,,,,,,,,,,,2,,,74,76
29880,note_on,,16,0,6,,,,,,,,,,,,,,,1,,,78,76
29927,note_on,,47,0,5,,,,,,,,,,,,,,,0,,,78,0
29940,note_on,,13,0,5,,,,,,,,,,,,,,,0,,,74,76
29969,note_on,,89,0,7,,,,,,,,,,,,,,,2,,,74,0
29969,note_on,,89,0,9,,,,,,,,,,,,,,,4,,,59,0
29969,note_on,,89,0,8,,,,,,,,,,,,,,,3,,,66,0
29984,note_on,,0,0,10,,,,,,,,,,,,,,,5,,,71,0
29984,note_on,,104,0,6,,,,,,,,,,,,,,,1,,,78,0
29984,note_on,,0,0,10,,,,,,,,,,,,,,,5,,,78,0
29984,note_on,,0,0,10,,,,,,,,,,,,,,,5,,,74,0
29984,note_on,,104,0,10,,,,,,,,,,,,,,,5,,,59,0
29987,note_on,,47,0,5,,,,,,,,,,,,,,,0,,,74,0
30000,note_on,,0,0,10,,,,,,,,,,,,,,,5,,,67,76
30000,note_on,,0,0,10,,,,,,,,,,,,,,,5,,,55,76
30000,note_on,,0,0,10,,,,,,,,,,,,,,,5,,,74,76
30000,note_on,,16,0,10,,,,,,,,,,,,,,,5,,,71,76
30000,note_on,,16,0,6,,,,,,,,,,,,,,,1,,,76,76
30000,note_on,,31,0,7,,,,,,,,,,,,,,,2,,,74,76
30000,note_on,,0,0,10,,,,,,,,,,,,,,,5,,,76,76
30000,note_on,,31,0,9,,,,,,,,,,,,,,,4,,,55,76
30000,note_on,,13,0,5,,,,,,,,,,,,,,,0,,,76,76
30000,note_on,,31,0,8,,,,,,,,,,,,,,,3,,,71,76
30047,note_on,,47,0,5,,,,,,,,,,,,,,,0,,,76,0
30060,note_on,,13,0,5,,,,,,,,,,,,,,,0,,,74,76
30089,note_on,,89,0,9,,,,,,,,,,,,,,,4,,,55,0
30089,note_on,,89,0,8,,,,,,,,,,,,,,,3,,,71,0
30089,note_on,,89,0,6,,,,,,,,,,,,,,,1,,,76,0
30089,note_on,,89,0,7,,,,,,,,,,,,,,,2,,,74,0
30104,note_on,,0,0,10,,,,,,,,,,,,,,,5,,,76,0
30104,note_on,,0,0,10,,,,,,,,,,,,,,,5,,,55,0
30104,note_on,,0,0,10,,,,,,,,,,,,,,,5,,,74,0
30104,note_on,,104,0,10,,,,,,,,,,,,,,,5,,,71,0
30104,note_on,,0,0,10,,,,,,,,,,,,,,,5,,,67,0
30107,note_on,,47,0,5,,,,,,,,,,,,,,,0,,,74,0
30120,note_on,,31,0,7,,,,,,,,,,,,,,,2,,,74,76
30120,note_on,,31,0,8,,,,,,,,,,,,,,,3,,,67,76
30120,note_on,,31,0,6,,,,,,,,,,,,,,,1,,,76,76
30120,note_on,,0,0,10,,,,,,,,,,,,,,,5,,,64,76
30120,note_on,,0,0,10,,,,,,,,,,,,,,,5,,,67,76
30120,note_on,,16,0,10,,,,,,,,,,,,,,,5,,,52,76
30120,note_on,,31,0,9,,,,,,,,,,,,,,,4,,,52,76
30120,note_on,,13,0,5,,,,,,,,,,,,,,,0,,,76,76
30120,note_on,,0,0,10,,,,,,,,,,,,,,,5,,,71,76
30167,note_on,,47,0,5,,,,,,,,,,,,,,,0,,,76,0
30180,note_on,,13,0,5,,,,,,,,,,,,,,,0,,,74,76
30209,note_on,,89,0,8,,,,,,,,,,,,,,,3,,,67,0
30209,note_on,,89,0,6,,,,,,,,,,,,,,,1,,,76,0
30209,note_on,,89,0,9,,,,,,,,,,,,,,,4,,,52,0
30209,note_on,,89,0,7,,,,,,,,,,,,,,,2,,,74,0
30224,note_on,,0,0,10,,,,,,,,,,,,,,,5,,,67,0
30224,note_on,,0,0,10,,,,,,,,,,,,,,,5,,,71,0
30224,note_on,,104,0,10,,,,,,,,,,,,,,,5,,,52,0
30224,note_on,,0,0,10,,,,,,,,,,,,,,,5,,,64,0
30227,note_on,,47,0,5,,,,,,,,,,,,,,,0,,,74,0
30240,note_on,,0,0,10,,,,,,,,,,,,,,,5,,,69,76
30240,note_on,,0,0,10,,,,,,,,,,,,,,,5,,,57,76
30240,note_on,,16,0,10,,,,,,,,,,,,,,,5,,,76,76
30240,note_on,,0,0,10,,,,,,,,,,,,,,,5,,,73,76
30240,note_on,,31,0,9,,,,,,,,,,,,,,,4,,,57,76
30240,note_on,,31,0,6,,,,,,,,,,,,,,,1,,,76,76
30240,note_on,,31,0,7,,,,,,,,,,,,,,,2,,,73,76
30240,note_on,,31,0,8,,,,,,,,,,,,,,,3,,,69,76
30240,note_on,,13,0,5,,,,,,,,,,,,,,,0,,,73,76
30287,note_on,,47,0,5,,,,,,,,,,,,,,,0,,,73,0
30300,note_on,,13,0,5,,,,,,,,,,,,,,,0,,,76,76
30329,note_on,,89,0,9,,,,,,,,,,,,,,,4,,,57,0
30329,note_on,,89,0,6,,,,,,,,,,,,,,,1,,,76,0
30329,note_on,,89,0,7,,,,,,,,,,,,,,,2,,,73,0
30329,note_on,,89,0,8,,,,,,,,,,,,,,,3,,,69,0
30344,note_on,,0,0,10,,,,,,,,,,,,,,,5,,,73,0
30344,note_on,,104,0,10,,,,,,,,,,,,,,,5,,,76,0
30344,note_on,,0,0,10,,,,,,,,,,,,,,,5,,,57,0
30344,note_on,,0,0,10,,,,,,,,,,,,,,,5,,,69,0
30347,note_on,,47,0,5,,,,,,,,,,,,,,,0,,,76,0
30360,note_on,,0,0,10,,,,,,,,,,,,,,,5,,,57,76
30360,note_on,,31,0,8,,,,,,,,,,,,,,,3,,,69,76
30360,note_on,,31,0,6,,,,,,,,,,,,,,,1,,,79,76
30360,note_on,,31,0,7,,,,,,,,,,,,,,,2,,,73,76
30360,note_on,,0,0,10,,,,,,,,,,,,,,,5,,,64,76
30360,note_on,,16,0,10,,,,,,,,,,,,,,,5,,,61,76
30360,note_on,,31,0,9,,,,,,,,,,,,,,,4,,,45,76
30360,note_on,,13,0,5,,,,,,,,,,,,,,,0,,,79,76
30360,note_on,,0,0,10,,,,,,,,,,,,,,,5,,,45,76
30407,note_on,,47,0,5,,,,,,,,,,,,,,,0,,,79,0
30420,note_on,,13,0,5,,,,,,,,,,,,,,,0,,,76,76
30449,note_on,,89,0,8,,,,,,,,,,,,,,,3,,,69,0
30449,note_on,,89,0,9,,,,,,,,,,,,,,,4,,,45,0
30449,note_on,,89,0,7,,,,,,,,,,,,,,,2,,,73,0
30464,note_on,,104,0,6,,,,,,,,,,,,,,,1,,,79,0
30464,note_on,,104,0,10,,,,,,,,,,,,,,,5,,,61,0
30464,note_on,,0,0,10,,,,,,,,,,,,,,,5,,,64,0
30464,note_on,,0,0,10,,,,,,,,,,,,,,,5,,,45,0
30464,note_on,,0,0,10,,,,,,,,,,,,,,,5,,,57,0
30467,note_on,,47,0,5,,,,,,,,,,,,,,,0,,,76,0
30480,note_on,,31,0,7,,,,,,,,,,,,,,,2,,,74,76
30480,note_on,,0,0,10,,,,,,,,,,,,,,,5,,,69,76
30480,note_on,,0,0,10,,,,,,,,,,,,,,,5,,,50,76
30480,note_on,,13,0,5,,,,,,,,,,,,,,,0,,,78,76
30480,note_on,,16,0,10,,,,,,,,,,,,,,,5,,,66,76
30480,note_on,,0,0,10,,,,,,,,,,,,,,,5,,,62,76
30480,note_on,,16,0,6,,,,,,,,,,,,,,,1,,,78,76
30480,note_on,,31,0,8,,,,,,,,,,,,,,,3,,,57,76
30480,note_on,,31,0,9,,,,,,,,,,,,,,,4,,,50,76
30527,note_on,,47,0,5,,,,,,,,,,,,,,,0,,,78,0
30540,note_on,,13,0,5,,,,,,,,,,,,,,,0,,,76,76
30569,note_on,,89,0,8,,,,,,,,,,,,,,,3,,,57,0
30569,note_on,,89,0,7,,,,,,,,,,,,,,,2,,,74,0
30569,note_on,,89,0,9,,,,,,,,,,,,,,,4,,,50,0
30584,note_on,,104,0,10,,,,,,,,,,,,,,,5,,,66,0
30584,note_on,,0,0,10,,,,,,,,,,,,,,,5,,,62,0
30584,note_on,,0,0,10,,,,,,,,,,,,,,,5,,,69,0
30584,note_on,,0,0,10,,,,,,,,,,,,,,,5,,,50,0
30584,note_on,,104,0,6,,,,,,,,,,,,,,,1,,,78,0
30587,note_on,,47,0,5,,,,,,,,,,,,,,,0,,,76,0
30600,note_on,,16,0,6,,,,,,,,,,,,,,,1,,,74,76
30600,note_on,,31,0,9,,,,,,,,,,,,,,,4,,,38,76
30600,note_on,,16,0,10,,,,,,,,,,,,,,,5,,,38,76
30600,note_on,,0,0,10,,,,,,,,,,,,,,,5,,,57,76
30600,note_on,,0,0,10,,,,,,,,,,,,,,,5,,,54,76
30600,note_on,,31,0,8,,,,,,,,,,,,,,,3,,,69,76
30600,note_on,,13,0,5,,,,,,,,,,,,,,,0,,,78,76
30600,note_on,,31,0,7,,,,,,,,,,,,,,,2,,,66,76
30600,note_on,,0,0,10,,,,,,,,,,,,,,,5,,,50,76
30647,note_on,,47,0,5,,,,,,,,,,,,,,,0,,,78,0
30659,note_on,,59,0,6,,,,,,,,,,,,,,,1,,,74,0
30660,note_on,,13,0,5,,,,,,,,,,,,,,,0,,,76,76
30660,note_on,,1,0,6,,,,,,,,,,,,,,,1,,,73,76
30689,note_on,,89,0,8,,,,,,,,,,,,,,,3,,,69,0
30689,note_on,,89,0,7,,,,,,,,,,,,,,,2,,,66,0
30689,note_on,,89,0,9,,,,,,,,,,,,,,,4,,,38,0
30704,note_on,,104,0,10,,,,,,,,,,,,,,,5,,,38,0
30704,note_on,,0,0,10,,,,,,,,,,,,,,,5,,,57,0
30704,note_on,,0,0,10,,,,,,,,,,,,,,,5,,,50,0
30704,note_on,,0,0,10,,,,,,,,,,,,,,,5,,,54,0
30707,note_on,,47,0,5,,,,,,,,,,,,,,,0,,,76,0
30719,note_on,,59,0,6,,,,,,,,,,,,,,,1,,,73,0
30720,note_on,,16,0,10,,,,,,,,,,,,,,,5,,,60,76
30720,note_on,,0,0,10,,,,,,,,,,,,,,,5,,,66,76
30720,note_on,,0,0,10,,,,,,,,,,,,,,,5,,,48,76
30720,note_on,,0,0,10,,,,,,,,,,,,,,,5,,,62,76
30720,note_on,,0,0,10,,,,,,,,,,,,,,,5,,,69,76
30720,note_on,,31,0,9,,,,,,,,,,,,,,,4,,,48,76
30720,note_on,,13,0,5,,,,,,,,,,,,,,,0,,,74,76
30720,note_on,,31,0,7,,,,,,,,,,,,,,,2,,,69,76
30720,note_on,,1,0,6,,,,,,,,,,,,,,,1,,,74,76
30720,note_on,,31,0,8,,,,,,,,,,,,,,,3,,,66,76
30767,note_on,,47,0,5,,,,,,,,,,,,,,,0,,,74,0
30780,note_on,,13,0,5,,,,,,,,,,,,,,,0,,,78,76
30809,note_on,,89,0,8,,,,,,,,,,,,,,,3,,,66,0
30809,note_on,,89,0,9,,,,,,,,,,,,,,,4,,,48,0
30809,note_on,,89,0,7,,,,,,,,,,,,,,,2,,,69,0
30824,note_on,,104,0,10,,,,,,,,,,,,,,,5,,,60,0
30824,note_on,,0,0,10,,,,,,,,,,,,,,,5,,,66,0
30824,note_on,,0,0,10,,,,,,,,,,,,,,,5,,,69,0
30824,note_on,,0,0,10,,,,,,,,,,,,,,,5,,,62,0
30824,note_on,,0,0,10,,,,,,,,,,,,,,,5,,,48,0
30824,note_on,,104,0,6,,,,,,,,,,,,,,,1,,,74,0
30827,note_on,,47,0,5,,,,,,,,,,,,,,,0,,,78,0
30840,note_on,,0,0,10,,,,,,,,,,,,,,,5,,,69,76
30840,note_on,,0,0,10,,,,,,,,,,,,,,,5,,,66,76
30840,note_on,,0,0,10,,,,,,,,,,,,,,,5,,,72,76
30840,note_on,,13,0,5,,,,,,,,,,,,,,,0,,,74,76
30840,note_on,,16,0,6,,,,,,,,,,,,,,,1,,,69,76
30840,note_on,,31,0,9,,,,,,,,,,,,,,,4,,,54,76
30840,note_on,,16,0,10,,,,,,,,,,,,,,,5,,,54,76
30899,note_on,,59,0,5,,,,,,,,,,,,,,,0,,,74,0
30900,note_on,,1,0,5,,,,,,,,,,,,,,,0,,,73,76
30929,note_on,,89,0,9,,,,,,,,,,,,,,,4,,,54,0
30944,note_on,,104,0,6,,,,,,,,,,,,,,,1,,,69,0
30944,note_on,,104,0,10,,,,,,,,,,,,,,,5,,,54,0
30944,note_on,,0,0,10,,,,,,,,,,,,,,,5,,,66,0
30944,note_on,,0,0,10,,,,,,,,,,,,,,,5,,,72,0
30944,note_on,,0,0,10,,,,,,,,,,,,,,,5,,,69,0
30959,note_on,,59,0,5,,,,,,,,,,,,,,,0,,,73,0
30960,note_on,,151,0,8,,,,,,,,,,,,,,,3,,,62,76
30960,note_on,,151,0,7,,,,,,,,,,,,,,,2,,,67,76
30960,note_on,,1,0,5,,,,,,,,,,,,,,,0,,,74,76
30960,note_on,,0,0,10,,,,,,,,,,,,,,,5,,,47,76
30960,note_on,,16,0,10,,,,,,,,,,,,,,,5,,,59,76
30960,note_on,,0,0,10,,,,,,,,,,,,,,,5,,,67,76
30960,note_on,,0,0,10,,,,,,,,,,,,,,,5,,,62,76
30960,note_on,,16,0,6,,,,,,,,,,,,,,,1,,,74,76
30960,note_on,,31,0,9,,,,,,,,,,,,,,,4,,,47,76
31007,note_on,,47,0,5,,,,,,,,,,,,,,,0,,,74,0
31020,note_on,,13,0,5,,,,,,,,,,,,,,,0,,,79,76
31049,note_on,,89,0,8,,,,,,,,,,,,,,,3,,,62,0
31049,note_on,,89,0,7,,,,,,,,,,,,,,,2,,,67,0
31049,note_on,,89,0,6,,,,,,,,,,,,,,,1,,,74,0
31049,note_on,,89,0,9,,,,,,,,,,,,,,,4,,,47,0
31064,note_on,,0,0,10,,,,,,,,,,,,,,,5,,,62,0
31064,note_on,,0,0,10,,,,,,,,,,,,,,,5,,,67,0
31064,note_on,,104,0,10,,,,,,,,,,,,,,,5,,,59,0
31064,note_on,,0,0,10,,,,,,,,,,,,,,,5,,,47,0
31067,note_on,,47,0,5,,,,,,,,,,,,,,,0,,,79,0
31080,note_on,,31,0,9,,,,,,,,,,,,,,,4,,,55,76
31080,note_on,,13,0,5,,,,,,,,,,,,,,,0,,,74,76
31080,note_on,,16,0,10,,,,,,,,,,,,,,,5,,,55,76
31080,note_on,,0,0,10,,,,,,,,,,,,,,,5,,,74,76
31080,note_on,,31,0,6,,,,,,,,,,,,,,,1,,,67,76
31080,note_on,,0,0,10,,,,,,,,,,,,,,,5,,,71,76
31080,note_on,,0,0,10,,,,,,,,,,,,,,,5,,,67,76
31139,note_on,,59,0,5,,,,,,,,,,,,,,,0,,,74,0
31140,note_on,,1,0,5,,,,,,,,,,,,,,,0,,,73,76
31169,note_on,,89,0,6,,,,,,,,,,,,,,,1,,,67,0
31169,note_on,,89,0,9,,,,,,,,,,,,,,,4,,,55,0
31184,note_on,,0,0,10,,,,,,,,,,,,,,,5,,,67,0
31184,note_on,,0,0,10,,,,,,,,,,,,,,,5,,,74,0
31184,note_on,,104,0,10,,,,,,,,,,,,,,,5,,,55,0
31184,note_on,,0,0,10,,,,,,,,,,,,,,,5,,,71,0
31199,note_on,,59,0,5,,,,,,,,,,,,,,,0,,,73,0
31200,note_on,,151,0,7,,,,,,,,,,,,,,,2,,,66,76
31200,note_on,,31,0,9,,,,,,,,,,,,,,,4,,,45,76
31200,note_on,,0,0,10,,,,,,,,,,,,,,,5,,,45,76
31200,note_on,,0,0,10,,,,,,,,,,,,,,,5,,,57,76
31200,note_on,,151,0,8,,,,,,,,,,,,,,,3,,,66,76
31200,note_on,,31,0,6,,,,,,,,,,,,,,,1,,,74,76
31200,note_on,,0,0,10,,,,,,,,,,,,,,,5,,,66,76
31200,note_on,,16,0,10,,,,,,,,,,,,,,,5,,,62,76
31200,note_on,,1,0,5,,,,,,,,,,,,,,,0,,,74,76
31247,note_on,,47,0,5,,,,,,,,,,,,,,,0,,,74,0
31260,note_on,,13,0,5,,,,,,,,,,,,,,,0,,,81,76
31289,note_on,,89,0,8,,,,,,,,,,,,,,,3,,,66,0
31289,note_on,,89,0,7,,,,,,,,,,,,,,,2,,,66,0
31289,note_on,,89,0,6,,,,,,,,,,,,,,,1,,,74,0
31289,note_on,,89,0,9,,,,,,,,,,,,,,,4,,,45,0
31304,note_on,,0,0,10,,,,,,,,,,,,,,,5,,,66,0
31304,note_on,,0,0,10,,,,,,,,,,,,,,,5,,,45,0
31304,note_on,,104,0,10,,,,,,,,,,,,,,,5,,,62,0
31304,note_on,,0,0,10,,,,,,,,,,,,,,,5,,,57,0
31307,note_on,,47,0,5,,,,,,,,,,,,,,,0,,,81,0
31320,note_on,,13,0,5,,,,,,,,,,,,,,,0,,,74,76
31320,note_on,,31,0,9,,,,,,,,,,,,,,,4,,,57,76
31320,note_on,,0,0,10,,,,,,,,,,,,,,,5,,,57,76
31320,note_on,,0,0,10,,,,,,,,,,,,,,,5,,,74,76
31320,note_on,,31,0,6,,,,,,,,,,,,,,,1,,,66,76
31320,note_on,,16,0,10,,,,,,,,,,,,,,,5,,,78,76
31320,note_on,,0,0,10,,,,,,,,,,,,,,,5,,,69,76
31379,note_on,,59,0,5,,,,,,,,,,,,,,,0,,,74,0
31380,note_on,,1,0,5,,,,,,,,,,,,,,,0,,,73,76
31409,note_on,,89,0,9,,,,,,,,,,,,,,,4,,,57,0
31409,note_on,,89,0,6,,,,,,,,,,,,,,,1,,,66,0
31424,note_on,,0,0,10,,,,,,,,,,,,,,,5,,,69,0
31424,note_on,,0,0,10,,,,,,,,,,,,,,,5,,,57,0
31424,note_on,,104,0,10,,,,,,,,,,,,,,,5,,,78,0
31424,note_on,,0,0,10,,,,,,,,,,,,,,,5,,,74,0
31439,note_on,,59,0,5,,,,,,,,,,,,,,,0,,,73,0
31440,note_on,,1,0,5,,,,,,,,,,,,,,,0,,,74,76
31440,note_on,,31,0,9,,,,,,,,,,,,,,,4,,,43,76
31440,note_on,,31,0,6,,,,,,,,,,,,,,,1,,,74,76
31440,note_on,,151,0,8,,,,,,,,,,,,,,,3,,,67,76
31440,note_on,,0,0,10,,,,,,,,,,,,,,,5,,,55,76
31440,note_on,,151,0,7,,,,,,,,,,,,,,,2,,,64,76
31440,note_on,,0,0,10,,,,,,,,,,,,,,,5,,,59,76
31440,note_on,,16,0,10,,,,,,,,,,,,,,,5,,,64,76
31440,note_on,,0,0,10,,,,,,,,,,,,,,,5,,,62,76
31440,note_on,,0,0,10,,,,,,,,,,,,,,,5,,,43,76
31487,note_on,,47,0,5,,,,,,,,,,,,,,,0,,,74,0
31500,note_on,,13,0,5,,,,,,,,,,,,,,,0,,,83,76
31529,note_on,,89,0,6,,,,,,,,,,,,,,,1,,,74,0
31529,note_on,,89,0,9,,,,,,,,,,,,,,,4,,,43,0
31529,note_on,,89,0,7,,,,,,,,,,,,,,,2,,,64,0
31529,note_on,,89,0,8,,,,,,,,,,,,,,,3,,,67,0
31544,note_on,,0,0,10,,,,,,,,,,,,,,,5,,,55,0
31544,note_on,,0,0,10,,,,,,,,,,,,,,,5,,,43,0
31544,note_on,,0,0,10,,,,,,,,,,,,,,,5,,,59,0
31544,note_on,,0,0,10,,,,,,,,,,,,,,,5,,,62,0
31544,note_on,,104,0,10,,,,,,,,,,,,,,,5,,,64,0
31547,note_on,,47,0,5,,,,,,,,,,,,,,,0,,,83,0
31560,note_on,,0,0,10,,,,,,,,,,,,,,,5,,,71,76
31560,note_on,,31,0,6,,,,,,,,,,,,,,,1,,,64,76
31560,note_on,,16,0,10,,,,,,,,,,,,,,,5,,,78,76
31560,note_on,,31,0,9,,,,,,,,,,,,,,,4,,,59,76
31560,note_on,,0,0,10,,,,,,,,,,,,,,,5,,,59,76
31560,note_on,,13,0,5,,,,,,,,,,,,,,,0,,,74,76
31560,note_on,,0,0,10,,,,,,,,,,,,,,,5,,,74,76
31619,note_on,,59,0,5,,,,,,,,,,,,,,,0,,,74,0
31620,note_on,,1,0,5,,,,,,,,,,,,,,,0,,,73,76
31649,note_on,,89,0,6,,,,,,,,,,,,,,,1,,,64,0
31649,note_on,,89,0,9,,,,,,,,,,,,,,,4,,,59,0
31664,note_on,,0,0,10,,,,,,,,,,,,,,,5,,,74,0
31664,note_on,,0,0,10,,,,,,,,,,,,,,,5,,,71,0
31664,note_on,,104,0,10,,,,,,,,,,,,,,,5,,,78,0
31664,note_on,,0,0,10,,,,,,,,,,,,,,,5,,,59,0
31679,note_on,,59,0,5,,,,,,,,,,,,,,,0,,,73,0
31680,note_on,,1,0,5,,,,,,,,,,,,,,,0,,,74,76
31680,note_on,,0,0,10,,,,,,,,,,,,,,,5,,,71,76
31680,note_on,,0,0,10,,,,,,,,,,,,,,,5,,,67,76
31680,note_on,,0,0,10,,,,,,,,,,,,,,,5,,,74,76
31680,note_on,,0,0,10,,,,,,,,,,,,,,,5,,,76,76
31680,note_on,,151,0,8,,,,,,,,,,,,,,,3,,,64,76
31680,note_on,,151,0,7,,,,,,,,,,,,,,,2,,,71,76
31680,note_on,,31,0,9,,,,,,,,,,,,,,,4,,,55,76
31680,note_on,,31,0,6,,,,,,,,,,,,,,,1,,,74,76
31680,note_on,,16,0,10,,,,,,,,,,,,,,,5,,,55,76
31727,note_on,,47,0,5,,,,,,,,,,,,,,,0,,,74,0
31740,note_on,,13,0,5,,,,,,,,,,,,,,,0,,,83,76
31769,note_on,,89,0,6,,,,,,,,,,,,,,,1,,,74,0
31769,note_on,,89,0,9,,,,,,,,,,,,,,,4,,,55,0
31769,note_on,,89,0,8,,,,,,,,,,,,,,,3,,,64,0
31769,note_on,,89,0,7,,,,,,,,,,,,,,,2,,,71,0
31784,note_on,,104,0,10,,,,,,,,,,,,,,,5,,,55,0
31784,note_on,,0,0,10,,,,,,,,,,,,,,,5,,,71,0
31784,note_on,,0,0,10,,,,,,,,,,,,,,,5,,,67,0
31784,note_on,,0,0,10,,,,,,,,,,,,,,,5,,,74,0
31784,note_on,,0,0,10,,,,,,,,,,,,,,,5,,,76,0
31787,note_on,,47,0,5,,,,,,,,,,,,,,,0,,,83,0
31800,note_on,,31,0,8,,,,,,,,,,,,,,,3,,,67,76
31800,note_on,,31,0,7,,,,,,,,,,,,,,,2,,,76,76
31800,note_on,,31,0,9,,,,,,,,,,,,,,,4,,,52,76
31800,note_on,,0,0,10,,,,,,,,,,,,,,,5,,,67,76
31800,note_on,,0,0,10,,,,,,,,,,,,,,,5,,,52,76
31800,note_on,,0,0,10,,,,,,,,,,,,,,,5,,,73,76
31800,note_on,,0,0,10,,,,,,,,,,,,,,,5,,,64,76
31800,note_on,,16,0,10,,,,,,,,,,,,,,,5,,,69,76
31800,note_on,,13,0,5,,,,,,,,,,,,,,,0,,,81,76
31800,note_on,,31,0,6,,,,,,,,,,,,,,,1,,,73,76
31847,note_on,,47,0,5,,,,,,,,,,,,,,,0,,,81,0
31860,note_on,,13,0,5,,,,,,,,,,,,,,,0,,,79,76
31889,note_on,,89,0,6,,,,,,,,,,,,,,,1,,,73,0
31889,note_on,,89,0,9,,,,,,,,,,,,,,,4,,,52,0
31889,note_on,,89,0,8,,,,,,,,,,,,,,,3,,,67,0
31889,note_on,,89,0,7,,,,,,,,,,,,,,,2,,,76,0
31904,note_on,,104,0,10,,,,,,,,,,,,,,,5,,,69,0
31904,note_on,,0,0,10,,,,,,,,,,,,,,,5,,,64,0
31904,note_on,,0,0,10,,,,,,,,,,,,,,,5,,,73,0
31904,note_on,,0,0,10,,,,,,,,,,,,,,,5,,,52,0
31904,note_on,,0,0,10,,,,,,,,,,,,,,,5,,,67,0
31907,note_on,,47,0,5,,,,,,,,,,,,,,,0,,,79,0
31920,note_on,,16,0,10,,,,,,,,,,,,,,,5,,,54,76
31920,note_on,,31,0,9,,,,,,,,,,,,,,,4,,,54,76
31920,note_on,,31,0,8,,,,,,,,,,,,,,,3,,,66,76
31920,note_on,,0,0,10,,,,,,,,,,,,,,,5,,,69,76
31920,note_on,,31,0,6,,,,,,,,,,,,,,,1,,,74,76
31920,note_on,,13,0,5,,,,,,,,,,,,,,,0,,,81,76
31920,note_on,,31,0,7,,,,,,,,,,,,,,,2,,,69,76
31920,note_on,,0,0,10,,,,,,,,,,,,,,,5,,,74,76
31920,note_on,,0,0,10,,,,,,,,,,,,,,,5,,,66,76
31967,note_on,,47,0,5,,,,,,,,,,,,,,,0,,,81,0
31980,note_on,,13,0,5,,,,,,,,,,,,,,,0,,,78,76
32009,note_on,,89,0,6,,,,,,,,,,,,,,,1,,,74,0
32009,note_on,,89,0,9,,,,,,,,,,,,,,,4,,,54,0
32009,note_on,,89,0,8,,,,,,,,,,,,,,,3,,,66,0
32009,note_on,,89,0,7,,,,,,,,,,,,,,,2,,,69,0
32024,note_on,,104,0,10,,,,,,,,,,,,,,,5,,,54,0
32024,note_on,,0,0,10,,,,,,,,,,,,,,,5,,,74,0
32024,note_on,,0,0,10,,,,,,,,,,,,,,,5,,,69,0
32024,note_on,,0,0,10,,,,,,,,,,,,,,,5,,,66,0
32027,note_on,,47,0,5,,,,,,,,,,,,,,,0,,,78,0
32040,note_on,,31,0,7,,,,,,,,,,,,,,,2,,,67,76
32040,note_on,,31,0,9,,,,,,,,,,,,,,,4,,,55,76
32040,note_on,,31,0,6,,,,,,,,,,,,,,,1,,,76,76
32040,note_on,,13,0,5,,,,,,,,,,,,,,,0,,,76,76
32040,note_on,,0,0,10,,,,,,,,,,,,,,,5,,,71,76
32040,note_on,,0,0,10,,,,,,,,,,,,,,,5,,,55,76
32040,note_on,,16,0,10,,,,,,,,,,,,,,,5,,,76,76
32040,note_on,,0,0,10,,,,,,,,,,,,,,,5,,,67,76
32040,note_on,,31,0,8,,,,,,,,,,,,,,,3,,,71,76
32040,note_on,,0,0,10,,,,,,,,,,,,,,,5,,,74,76
32087,note_on,,47,0,5,,,,,,,,,,,,,,,0,,,76,0
32100,note_on,,13,0,5,,,,,,,,,,,,,,,0,,,74,76
32129,note_on,,89,0,8,,,,,,,,,,,,,,,3,,,71,0
32129,note_on,,89,0,9,,,,,,,,,,,,,,,4,,,55,0
32129,note_on,,89,0,7,,,,,,,,,,,,,,,2,,,67,0
32129,note_on,,89,0,6,,,,,,,,,,,,,,,1,,,76,0
32144,note_on,,0,0,10,,,,,,,,,,,,,,,5,,,71,0
32144,note_on,,0,0,10,,,,,,,,,,,,,,,5,,,67,0
32144,note_on,,0,0,10,,,,,,,,,,,,,,,5,,,74,0
32144,note_on,,104,0,10,,,,,,,,,,,,,,,5,,,76,0
32144,note_on,,0,0,10,,,,,,,,,,,,,,,5,,,55,0
32147,note_on,,47,0,5,,,,,,,,,,,,,,,0,,,74,0
32160,note_on,,0,0,10,,,,,,,,,,,,,,,5,,,57,76
32160,note_on,,16,0,10,,,,,,,,,,,,,,,5,,,78,76
32160,note_on,,0,0,10,,,,,,,,,,,,,,,5,,,74,76
32160,note_on,,0,0,10,,,,,,,,,,,,,,,5,,,69,76
32160,note_on,,31,0,9,,,,,,,,,,,,,,,4,,,57,76
32160,note_on,,13,0,5,,,,,,,,,,,,,,,0,,,78,76
32160,note_on,,31,0,6,,,,,,,,,,,,,,,1,,,69,76
32160,note_on,,31,0,8,,,,,,,,,,,,,,,3,,,69,76
32160,note_on,,31,0,7,,,,,,,,,,,,,,,2,,,66,76
32249,note_on,,89,0,9,,,,,,,,,,,,,,,4,,,57,0
32249,note_on,,89,0,7,,,,,,,,,,,,,,,2,,,66,0
32249,note_on,,89,0,8,,,,,,,,,,,,,,,3,,,69,0
32249,note_on,,89,0,6,,,,,,,,,,,,,,,1,,,69,0
32264,note_on,,104,0,5,,,,,,,,,,,,,,,0,,,78,0
32264,note_on,,0,0,10,,,,,,,,,,,,,,,5,,,57,0
32264,note_on,,0,0,10,,,,,,,,,,,,,,,5,,,69,0
32264,note_on,,0,0,10,,,,,,,,,,,,,,,5,,,74,0
32264,note_on,,104,0,10,,,,,,,,,,,,,,,5,,,78,0
32280,note_on,,31,0,7,,,,,,,,,,,,,,,2,,,69,76
32280,note_on,,0,0,10,,,,,,,,,,,,,,,5,,,45,76
32280,note_on,,16,0,10,,,,,,,,,,,,,,,5,,,64,76
32280,note_on,,0,0,10,,,,,,,,,,,,,,,5,,,61,76
32280,note_on,,0,0,10,,,,,,,,,,,,,,,5,,,57,76
32280,note_on,,31,0,6,,,,,,,,,,,,,,,1,,,73,76
32280,note_on,,31,0,9,,,,,,,,,,,,,,,4,,,45,76
32280,note_on,,16,0,5,,,,,,,,,,,,,,,0,,,76,76
32280,note_on,,31,0,8,,,,,,,,,,,,,,,3,,,67,76
32309,note_on,,29,0,5,,,,,,,,,,,,,,,0,,,76,0
32310,note_on,,1,0,5,,,,,,,,,,,,,,,0,,,78,76
32339,note_on,,29,0,5,,,,,,,,,,,,,,,0,,,78,0
32340,note_on,,1,0,5,,,,,,,,,,,,,,,0,,,74,76
32369,note_on,,89,0,9,,,,,,,,,,,,,,,4,,,45,0
32369,note_on,,29,0,5,,,,,,,,,,,,,,,0,,,74,0
32369,note_on,,89,0,8,,,,,,,,,,,,,,,3,,,67,0
32369,note_on,,89,0,7,,,,,,,,,,,,,,,2,,,69,0
32369,note_on,,89,0,6,,,,,,,,,,,,,,,1,,,73,0
32370,note_on,,1,0,5,,,,,,,,,,,,,,,0,,,76,76
32384,note_on,,0,0,10,,,,,,,,,,,,,,,5,,,45,0
32384,note_on,,104,0,10,,,,,,,,,,,,,,,5,,,64,0
32384,note_on,,0,0,10,,,,,,,,,,,,,,,5,,,61,0
32384,note_on,,0,0,10,,,,,,,,,,,,,,,5,,,57,0
32399,note_on,,29,0,5,,,,,,,,,,,,,,,0,,,76,0
32400,note_on,,31,0,7,,,,,,,,,,,,,,,2,,,69,76
32400,note_on,,1,0,5,,,,,,,,,,,,,,,0,,,74,76
32400,note_on,,31,0,9,,,,,,,,,,,,,,,4,,,50,76
32400,note_on,,0,0,10,,,,,,,,,,,,,,,5,,,62,76
32400,note_on,,0,0,10,,,,,,,,,,,,,,,5,,,50,76
32400,note_on,,0,0,10,,,,,,,,,,,,,,,5,,,69,76
32400,note_on,,16,0,10,,,,,,,,,,,,,,,5,,,66,76
32400,note_on,,31,0,6,,,,,,,,,,,,,,,1,,,74,76
32400,note_on,,31,0,8,,,,,,,,,,,,,,,3,,,66,76
32489,note_on,,89,0,9,,,,,,,,,,,,,,,4,,,50,0
32504,note_on,,0,0,10,,,,,,,,,,,,,,,5,,,62,0
32504,note_on,,0,0,10,,,,,,,,,,,,,,,5,,,50,0
32504,note_on,,0,0,10,,,,,,,,,,,,,,,5,,,69,0
32504,note_on,,104,0,10,,,,,,,,,,,,,,,5,,,66,0
32520,note_on,,16,0,10,,,,,,,,,,,,,,,5,,,57,76
32520,note_on,,0,0,10,,,,,,,,,,,,,,,5,,,64,76
32520,note_on,,0,0,10,,,,,,,,,,,,,,,5,,,45,76
32520,note_on,,31,0,9,,,,,,,,,,,,,,,4,,,45,76
32520,note_on,,0,0,10,,,,,,,,,,,,,,,5,,,61,76
32564,note_on,,0,0,10,,,,,,,,,,,,,,,5,,,45,0
32564,note_on,,44,0,9,,,,,,,,,,,,,,,4,,,45,0
32564,note_on,,0,0,10,,,,,,,,,,,,,,,5,,,64,0
32564,note_on,,0,0,10,,,,,,,,,,,,,,,5,,,61,0
32564,note_on,,44,0,10,,,,,,,,,,,,,,,5,,,57,0
32580,note_on,,0,0,10,,,,,,,,,,,,,,,5,,,42,76
32580,note_on,,0,0,10,,,,,,,,,,,,,,,5,,,57,76
32580,note_on,,16,0,10,,,,,,,,,,,,,,,5,,,61,76
32580,note_on,,0,0,10,,,,,,,,,,,,,,,5,,,54,76
32580,note_on,,16,0,9,,,,,,,,,,,,,,,4,,,42,76
32624,note_on,,44,0,9,,,,,,,,,,,,,,,4,,,42,0
32624,note_on,,0,0,10,,,,,,,,,,,,,,,5,,,54,0
32624,note_on,,224,0,7,,,,,,,,,,,,,,,2,,,69,0
32624,note_on,,224,0,5,,,,,,,,,,,,,,,0,,,74,0
32624,note_on,,224,0,8,,,,,,,,,,,,,,,3,,,66,0
32624,note_on,,224,0,6,,,,,,,,,,,,,,,1,,,74,0
32624,note_on,,44,0,10,,,,,,,,,,,,,,,5,,,61,0
32624,note_on,,0,0,10,,,,,,,,,,,,,,,5,,,57,0
32624,note_on,,0,0,10,,,,,,,,,,,,,,,5,,,42,0
32640,note_on,,16,0,5,,,,,,,,,,,,,,,0,,,78,76
32640,note_on,,16,0,9,,,,,,,,,,,,,,,4,,,38,76
32640,note_on,,16,0,10,,,,,,,,,,,,,,,5,,,50,76
32640,note_on,,16,0,6,,,,,,,,,,,,,,,1,,,78,76
32640,note_on,,0,0,10,,,,,,,,,,,,,,,5,,,54,76
32640,note_on,,0,0,10,,,,,,,,,,,,,,,5,,,57,76
32640,note_on,,16,0,7,,,,,,,,,,,,,,,2,,,69,76
32640,note_on,,16,0,8,,,,,,,,,,,,,,,3,,,74,76
32640,note_on,,0,0,10,,,,,,,,,,,,,,,5,,,38,76
32687,note_on,,47,0,6,,,,,,,,,,,,,,,1,,,78,0
32700,note_on,,13,0,6,,,,,,,,,,,,,,,1,,,76,76
32729,note_on,,89,0,7,,,,,,,,,,,,,,,2,,,69,0
32729,note_on,,89,0,8,,,,,,,,,,,,,,,3,,,74,0
32729,note_on,,89,0,9,,,,,,,,,,,,,,,4,,,38,0
32729,note_on,,89,0,5,,,,,,,,,,,,,,,0,,,78,0
32744,note_on,,0,0,10,,,,,,,,,,,,,,,5,,,54,0
32744,note_on,,0,0,10,,,,,,,,,,,,,,,5,,,38,0
32744,note_on,,104,0,10,,,,,,,,,,,,,,,5,,,50,0
32744,note_on,,0,0,10,,,,,,,,,,,,,,,5,,,57,0
32747,note_on,,47,0,6,,,,,,,,,,,,,,,1,,,76,0
32760,note_on,,31,0,7,,,,,,,,,,,,,,,2,,,74,76
32760,note_on,,31,0,5,,,,,,,,,,,,,,,0,,,78,76
32760,note_on,,13,0,6,,,,,,,,,,,,,,,1,,,78,76
32760,note_on,,31,0,9,,,,,,,,,,,,,,,4,,,62,76
32760,note_on,,31,0,8,,,,,,,,,,,,,,,3,,,69,76
32760,note_on,,16,0,10,,,,,,,,,,,,,,,5,,,78,76
32760,note_on,,0,0,10,,,,,,,,,,,,,,,5,,,62,76
32760,note_on,,0,0,10,,,,,,,,,,,,,,,5,,,81,76
32760,note_on,,0,0,10,,,,,,,,,,,,,,,5,,,74,76
32804,note_on,,0,0,10,,,,,,,,,,,,,,,5,,,81,0
32804,note_on,,44,0,10,,,,,,,,,,,,,,,5,,,78,0
32804,note_on,,44,0,9,,,,,,,,,,,,,,,4,,,62,0
32804,note_on,,0,0,10,,,,,,,,,,,,,,,5,,,74,0
32804,note_on,,0,0,10,,,,,,,,,,,,,,,5,,,62,0
32820,note_on,,16,0,10,,,,,,,,,,,,,,,5,,,57,76
32820,note_on,,0,0,10,,,,,,,,,,,,,,,5,,,76,76
32820,note_on,,0,0,10,,,,,,,,,,,,,,,5,,,73,76
32820,note_on,,16,0,9,,,,,,,,,,,,,,,4,,,57,76
32820,note_on,,0,0,10,,,,,,,,,,,,,,,5,,,69,76
32849,note_on,,89,0,7,,,,,,,,,,,,,,,2,,,74,0
32849,note_on,,89,0,5,,,,,,,,,,,,,,,0,,,78,0
32849,note_on,,89,0,8,,,,,,,,,,,,,,,3,,,69,0
32864,note_on,,44,0,9,,,,,,,,,,,,,,,4,,,57,0
32864,note_on,,44,0,10,,,,,,,,,,,,,,,5,,,57,0
32864,note_on,,0,0,10,,,,,,,,,,,,,,,5,,,76,0
32864,note_on,,0,0,10,,,,,,,,,,,,,,,5,,,73,0
32864,note_on,,0,0,10,,,,,,,,,,,,,,,5,,,69,0
32880,note_on,,31,0,8,,,,,,,,,,,,,,,3,,,62,76
32880,note_on,,31,0,5,,,,,,,,,,,,,,,0,,,78,76
32880,note_on,,31,0,7,,,,,,,,,,,,,,,2,,,69,76
32880,note_on,,0,0,10,,,,,,,,,,,,,,,5,,,69,76
32880,note_on,,16,0,9,,,,,,,,,,,,,,,4,,,54,76
32880,note_on,,16,0,10,,,,,,,,,,,,,,,5,,,54,76
32880,note_on,,0,0,10,,,,,,,,,,,,,,,5,,,66,76
32880,note_on,,0,0,10,,,,,,,,,,,,,,,5,,,74,76
32927,note_on,,167,0,6,,,,,,,,,,,,,,,1,,,78,0
32940,note_on,,13,0,6,,,,,,,,,,,,,,,1,,,76,76
32969,note_on,,89,0,5,,,,,,,,,,,,,,,0,,,78,0
32969,note_on,,89,0,9,,,,,,,,,,,,,,,4,,,54,0
32969,note_on,,89,0,7,,,,,,,,,,,,,,,2,,,69,0
32969,note_on,,89,0,8,,,,,,,,,,,,,,,3,,,62,0
32984,note_on,,0,0,10,,,,,,,,,,,,,,,5,,,66,0
32984,note_on,,0,0,10,,,,,,,,,,,,,,,5,,,69,0
32984,note_on,,104,0,10,,,,,,,,,,,,,,,5,,,54,0
32984,note_on,,0,0,10,,,,,,,,,,,,,,,5,,,74,0
32987,note_on,,47,0,6,,,,,,,,,,,,,,,1,,,76,0
33000,note_on,,31,0,7,,,,,,,,,,,,,,,2,,,74,76
33000,note_on,,31,0,5,,,,,,,,,,,,,,,0,,,78,76
33000,note_on,,31,0,8,,,,,,,,,,,,,,,3,,,69,76
33000,note_on,,0,0,10,,,,,,,,,,,,,,,5,,,57,76
33000,note_on,,13,0,6,,,,,,,,,,,,,,,1,,,78,76
33000,note_on,,31,0,9,,,,,,,,,,,,,,,4,,,57,76
33000,note_on,,16,0,10,,,,,,,,,,,,,,,5,,,69,76
33000,note_on,,0,0,10,,,,,,,,,,,,,,,5,,,76,76
33000,note_on,,0,0,10,,,,,,,,,,,,,,,5,,,73,76
33044,note_on,,44,0,10,,,,,,,,,,,,,,,5,,,69,0
33044,note_on,,44,0,9,,,,,,,,,,,,,,,4,,,57,0
33044,note_on,,0,0,10,,,,,,,,,,,,,,,5,,,57,0
33044,note_on,,0,0,10,,,,,,,,,,,,,,,5,,,76,0
33044,note_on,,0,0,10,,,,,,,,,,,,,,,5,,,73,0
33060,note_on,,16,0,9,,,,,,,,,,,,,,,4,,,54,76
33060,note_on,,0,0,10,,,,,,,,,,,,,,,5,,,54,76
33060,note_on,,0,0,10,,,,,,,,,,,,,,,5,,,74,76
33060,note_on,,0,0,10,,,,,,,,,,,,,,,5,,,66,76
33060,note_on,,16,0,10,,,,,,,,,,,,,,,5,,,69,76
33089,note_on,,89,0,5,,,,,,,,,,,,,,,0,,,78,0
33089,note_on,,89,0,8,,,,,,,,,,,,,,,3,,,69,0
33089,note_on,,89,0,7,,,,,,,,,,,,,,,2,,,74,0
33104,note_on,,0,0,10,,,,,,,,,,,,,,,5,,,66,0
33104,note_on,,44,0,10,,,,,,,,,,,,,,,5,,,69,0
33104,note_on,,0,0,10,,,,,,,,,,,,,,,5,,,54,0
33104,note_on,,44,0,9,,,,,,,,,,,,,,,4,,,54,0
33104,note_on,,0,0,10,,,,,,,,,,,,,,,5,,,74,0
33120,note_on,,31,0,8,,,,,,,,,,,,,,,3,,,66,76
33120,note_on,,31,0,7,,,,,,,,,,,,,,,2,,,69,76
33120,note_on,,16,0,9,,,,,,,,,,,,,,,4,,,50,76
33120,note_on,,31,0,5,,,,,,,,,,,,,,,0,,,86,76
33120,note_on,,0,0,10,,,,,,,,,,,,,,,5,,,66,76
33120,note_on,,0,0,10,,,,,,,,,,,,,,,5,,,50,76
33120,note_on,,0,0,10,,,,,,,,,,,,,,,5,,,69,76
33120,note_on,,16,0,10,,,,,,,,,,,,,,,5,,,62,76
33167,note_on,,167,0,6,,,,,,,,,,,,,,,1,,,78,0
33180,note_on,,13,0,6,,,,,,,,,,,,,,,1,,,86,76
33209,note_on,,89,0,8,,,,,,,,,,,,,,,3,,,66,0
33209,note_on,,89,0,9,,,,,,,,,,,,,,,4,,,50,0
33209,note_on,,89,0,7,,,,,,,,,,,,,,,2,,,69,0
33224,note_on,,104,0,10,,,,,,,,,,,,,,,5,,,62,0
33224,note_on,,0,0,10,,,,,,,,,,,,,,,5,,,66,0
33224,note_on,,0,0,10,,,,,,,,,,,,,,,5,,,50,0
33224,note_on,,0,0,10,,,,,,,,,,,,,,,5,,,69,0
33224,note_on,,104,0,5,,,,,,,,,,,,,,,0,,,86,0
33227,note_on,,47,0,6,,,,,,,,,,,,,,,1,,,86,0
33240,note_on,,16,0,10,,,,,,,,,,,,,,,5,,,54,76
33240,note_on,,31,0,8,,,,,,,,,,,,,,,3,,,69,76
33240,note_on,,0,0,10,,,,,,,,,,,,,,,5,,,66,76
33240,note_on,,31,0,7,,,,,,,,,,,,,,,2,,,74,76
33240,note_on,,0,0,10,,,,,,,,,,,,,,,5,,,73,76
33240,note_on,,16,0,5,,,,,,,,,,,,,,,0,,,78,76
33240,note_on,,0,0,10,,,,,,,,,,,,,,,5,,,69,76
33240,note_on,,31,0,9,,,,,,,,,,,,,,,4,,,54,76
33240,note_on,,13,0,6,,,,,,,,,,,,,,,1,,,78,76
33284,note_on,,44,0,9,,,,,,,,,,,,,,,4,,,54,0
33284,note_on,,44,0,10,,,,,,,,,,,,,,,5,,,54,0
33284,note_on,,0,0,10,,,,,,,,,,,,,,,5,,,69,0
33284,note_on,,0,0,10,,,,,,,,,,,,,,,5,,,73,0
33284,note_on,,0,0,10,,,,,,,,,,,,,,,5,,,66,0
33300,note_on,,16,0,9,,,,,,,,,,,,,,,4,,,50,76
33300,note_on,,0,0,10,,,,,,,,,,,,,,,5,,,50,76
33300,note_on,,0,0,10,,,,,,,,,,,,,,,5,,,69,76
33300,note_on,,16,0,10,,,,,,,,,,,,,,,5,,,66,76
33300,note_on,,0,0,10,,,,,,,,,,,,,,,5,,,62,76
33329,note_on,,89,0,8,,,,,,,,,,,,,,,3,,,69,0
33329,note_on,,89,0,7,,,,,,,,,,,,,,,2,,,74,0
33344,note_on,,44,0,9,,,,,,,,,,,,,,,4,,,50,0
33344,note_on,,44,0,10,,,,,,,,,,,,,,,5,,,66,0
33344,note_on,,0,0,10,,,,,,,,,,,,,,,5,,,69,0
33344,note_on,,0,0,10,,,,,,,,,,,,,,,5,,,62,0
33344,note_on,,0,0,10,,,,,,,,,,,,,,,5,,,50,0
33344,note_on,,104,0,5,,,,,,,,,,,,,,,0,,,78,0
33344,note_on,,104,0,6,,,,,,,,,,,,,,,1,,,78,0
33360,note_on,,16,0,6,,,,,,,,,,,,,,,1,,,78,76
33360,note_on,,16,0,10,,,,,,,,,,,,,,,5,,,69,76
33360,note_on,,0,0,10,,,,,,,,,,,,,,,5,,,57,76
33360,note_on,,0,0,10,,,,,,,,,,,,,,,5,,,74,76
33360,note_on,,0,0,10,,,,,,,,,,,,,,,5,,,78,76
33360,note_on,,31,0,7,,,,,,,,,,,,,,,2,,,74,76
33360,note_on,,16,0,5,,,,,,,,,,,,,,,0,,,78,76
33360,note_on,,31,0,8,,,,,,,,,,,,,,,3,,,69,76
33360,note_on,,16,0,9,,,,,,,,,,,,,,,4,,,57,76
33389,note_on,,29,0,5,,,,,,,,,,,,,,,0,,,78,0
33389,note_on,,29,0,6,,,,,,,,,,,,,,,1,,,78,0
33389,note_on,,29,0,7,,,,,,,,,,,,,,,2,,,74,0
33390,note_on,,1,0,7,,,,,,,,,,,,,,,2,,,76,76
33390,note_on,,1,0,6,,,,,,,,,,,,,,,1,,,79,76
33390,note_on,,1,0,5,,,,,,,,,,,,,,,0,,,79,76
33419,note_on,,29,0,6,,,,,,,,,,,,,,,1,,,79,0
33419,note_on,,29,0,5,,,,,,,,,,,,,,,0,,,79,0
33419,note_on,,29,0,7,,,,,,,,,,,,,,,2,,,76,0
33420,note_on,,1,0,5,,,,,,,,,,,,,,,0,,,76,76
33420,note_on,,1,0,7,,,,,,,,,,,,,,,2,,,73,76
33420,note_on,,1,0,6,,,,,,,,,,,,,,,1,,,76,76
33449,note_on,,29,0,6,,,,,,,,,,,,,,,1,,,76,0
33449,note_on,,29,0,7,,,,,,,,,,,,,,,2,,,73,0
33449,note_on,,29,0,5,,,,,,,,,,,,,,,0,,,76,0
33449,note_on,,89,0,9,,,,,,,,,,,,,,,4,,,57,0
33450,note_on,,1,0,7,,,,,,,,,,,,,,,2,,,74,76
33450,note_on,,1,0,6,,,,,,,,,,,,,,,1,,,78,76
33450,note_on,,1,0,5,,,,,,,,,,,,,,,0,,,78,76
33464,note_on,,0,0,10,,,,,,,,,,,,,,,5,,,57,0
33464,note_on,,0,0,10,,,,,,,,,,,,,,,5,,,78,0
33464,note_on,,104,0,10,,,,,,,,,,,,,,,5,,,69,0
33464,note_on,,0,0,10,,,,,,,,,,,,,,,5,,,74,0
33479,note_on,,29,0,6,,,,,,,,,,,,,,,1,,,78,0
33479,note_on,,29,0,5,,,,,,,,,,,,,,,0,,,78,0
33479,note_on,,29,0,7,,,,,,,,,,,,,,,2,,,74,0
33480,note_on,,1,0,7,,,,,,,,,,,,,,,2,,,73,76
33480,note_on,,0,0,10,,,,,,,,,,,,,,,5,,,73,76
33480,note_on,,16,0,10,,,,,,,,,,,,,,,5,,,52,76
33480,note_on,,1,0,6,,,,,,,,,,,,,,,1,,,76,76
33480,note_on,,1,0,5,,,,,,,,,,,,,,,0,,,76,76
33480,note_on,,0,0,10,,,,,,,,,,,,,,,5,,,64,76
33480,note_on,,0,0,10,,,,,,,,,,,,,,,5,,,69,76
33480,note_on,,31,0,9,,,,,,,,,,,,,,,4,,,52,76
33524,note_on,,0,0,10,,,,,,,,,,,,,,,5,,,73,0
33524,note_on,,0,0,10,,,,,,,,,,,,,,,5,,,69,0
33524,note_on,,0,0,10,,,,,,,,,,,,,,,5,,,64,0
33524,note_on,,44,0,10,,,,,,,,,,,,,,,5,,,52,0
33524,note_on,,44,0,9,,,,,,,,,,,,,,,4,,,52,0
33540,note_on,,16,0,9,,,,,,,,,,,,,,,4,,,49,76
33540,note_on,,16,0,10,,,,,,,,,,,,,,,5,,,64,76
33540,note_on,,0,0,10,,,,,,,,,,,,,,,5,,,67,76
33540,note_on,,0,0,10,,,,,,,,,,,,,,,5,,,61,76
33540,note_on,,0,0,10,,,,,,,,,,,,,,,5,,,49,76
33584,note_on,,0,0,10,,,,,,,,,,,,,,,5,,,49,0
33584,note_on,,44,0,9,,,,,,,,,,,,,,,4,,,49,0
33584,note_on,,0,0,10,,,,,,,,,,,,,,,5,,,61,0
33584,note_on,,0,0,10,,,,,,,,,,,,,,,5,,,67,0
33584,note_on,,104,0,5,,,,,,,,,,,,,,,0,,,76,0
33584,note_on,,224,0,8,,,,,,,,,,,,,,,3,,,69,0
33584,note_on,,104,0,7,,,,,,,,,,,,,,,2,,,73,0
33584,note_on,,104,0,6,,,,,,,,,,,,,,,1,,,76,0
33584,note_on,,44,0,10,,,,,,,,,,,,,,,5,,,64,0
33600,note_on,,16,0,7,,,,,,,,,,,,,,,2,,,66,76
33600,note_on,,16,0,5,,,,,,,,,,,,,,,0,,,76,76
33600,note_on,,0,0,10,,,,,,,,,,,,,,,5,,,64,76
33600,note_on,,16,0,8,,,,,,,,,,,,,,,3,,,73,76
33600,note_on,,0,0,10,,,,,,,,,,,,,,,5,,,46,76
33600,note_on,,0,0,10,,,,,,,,,,,,,,,5,,,58,76
33600,note_on,,16,0,10,,,,,,,,,,,,,,,5,,,61,76
33600,note_on,,16,0,6,,,,,,,,,,,,,,,1,,,76,76
33600,note_on,,0,0,10,,,,,,,,,,,,,,,5,,,66,76
33600,note_on,,16,0,9,,,,,,,,,,,,,,,4,,,46,76
33647,note_on,,47,0,6,,,,,,,,,,,,,,,1,,,76,0
33660,note_on,,13,0,6,,,,,,,,,,,,,,,1,,,74,76
33689,note_on,,89,0,8,,,,,,,,,,,,,,,3,,,73,0
33689,note_on,,89,0,5,,,,,,,,,,,,,,,0,,,76,0
33689,note_on,,89,0,7,,,,,,,,,,,,,,,2,,,66,0
33689,note_on,,89,0,9,,,,,,,,,,,,,,,4,,,46,0
33704,note_on,,0,0,10,,,,,,,,,,,,,,,5,,,64,0
33704,note_on,,0,0,10,,,,,,,,,,,,,,,5,,,66,0
33704,note_on,,0,0,10,,,,,,,,,,,,,,,5,,,46,0
33704,note_on,,104,0,10,,,,,,,,,,,,,,,5,,,61,0
33704,note_on,,0,0,10,,,,,,,,,,,,,,,5,,,58,0
33707,note_on,,47,0,6,,,,,,,,,,,,,,,1,,,74,0
33720,note_on,,16,0,10,,,,,,,,,,,,,,,5,,,64,76
33720,note_on,,0,0,10,,,,,,,,,,,,,,,5,,,85,76
33720,note_on,,0,0,10,,,,,,,,,,,,,,,5,,,76,76
33720,note_on,,31,0,5,,,,,,,,,,,,,,,0,,,76,76
33720,note_on,,31,0,8,,,,,,,,,,,,,,,3,,,70,76
33720,note_on,,0,0,10,,,,,,,,,,,,,,,5,,,82,76
33720,note_on,,31,0,9,,,,,,,,,,,,,,,4,,,64,76
33720,note_on,,31,0,7,,,,,,,,,,,,,,,2,,,73,76
33720,note_on,,13,0,6,,,,,,,,,,,,,,,1,,,76,76
33764,note_on,,0,0,10,,,,,,,,,,,,,,,5,,,76,0
33764,note_on,,0,0,10,,,,,,,,,,,,,,,5,,,85,0
33764,note_on,,44,0,10,,,,,,,,,,,,,,,5,,,64,0
33764,note_on,,44,0,9,,,,,,,,,,,,,,,4,,,64,0
33764,note_on,,0,0,10,,,,,,,,,,,,,,,5,,,82,0
33780,note_on,,16,0,10,,,,,,,,,,,,,,,5,,,76,76
33780,note_on,,0,0,10,,,,,,,,,,,,,,,5,,,79,76
33780,note_on,,0,0,10,,,,,,,,,,,,,,,5,,,73,76
33780,note_on,,0,0,10,,,,,,,,,,,,,,,5,,,61,76
33780,note_on,,16,0,9,,,,,,,,,,,,,,,4,,,61,76
33809,note_on,,89,0,5,,,,,,,,,,,,,,,0,,,76,0
33809,note_on,,89,0,7,,,,,,,,,,,,,,,2,,,73,0
33809,note_on,,89,0,8,,,,,,,,,,,,,,,3,,,70,0
33824,note_on,,0,0,10,,,,,,,,,,,,,,,5,,,79,0
33824,note_on,,44,0,9,,,,,,,,,,,,,,,4,,,61,0
33824,note_on,,0,0,10,,,,,,,,,,,,,,,5,,,73,0
33824,note_on,,44,0,10,,,,,,,,,,,,,,,5,,,76,0
33824,note_on,,0,0,10,,,,,,,,,,,,,,,5,,,61,0
33840,note_on,,16,0,10,,,,,,,,,,,,,,,5,,,58,76
33840,note_on,,31,0,8,,,,,,,,,,,,,,,3,,,73,76
33840,note_on,,31,0,7,,,,,,,,,,,,,,,2,,,66,76
33840,note_on,,0,0,10,,,,,,,,,,,,,,,5,,,70,76
33840,note_on,,31,0,5,,,,,,,,,,,,,,,0,,,76,76
33840,note_on,,16,0,9,,,,,,,,,,,,,,,4,,,58,76
33840,note_on,,0,0,10,,,,,,,,,,,,,,,5,,,78,76
33840,note_on,,0,0,10,,,,,,,,,,,,,,,5,,,76,76
33840,note_on,,0,0,10,,,,,,,,,,,,,,,5,,,73,76
33887,note_on,,167,0,6,,,,,,,,,,,,,,,1,,,76,0
33900,note_on,,13,0,6,,,,,,,,,,,,,,,1,,,74,76
33929,note_on,,89,0,7,,,,,,,,,,,,,,,2,,,66,0
33929,note_on,,89,0,8,,,,,,,,,,,,,,,3,,,73,0
33929,note_on,,89,0,9,,,,,,,,,,,,,,,4,,,58,0
33944,note_on,,104,0,5,,,,,,,,,,,,,,,0,,,76,0
33944,note_on,,0,0,10,,,,,,,,,,,,,,,5,,,76,0
33944,note_on,,0,0,10,,,,,,,,,,,,,,,5,,,78,0
33944,note_on,,0,0,10,,,,,,,,,,,,,,,5,,,70,0
33944,note_on,,0,0,10,,,,,,,,,,,,,,,5,,,73,0
33944,note_on,,104,0,10,,,,,,,,,,,,,,,5,,,58,0
33947,note_on,,47,0,6,,,,,,,,,,,,,,,1,,,74,0
33960,note_on,,16,0,5,,,,,,,,,,,,,,,0,,,76,76
33960,note_on,,13,0,6,,,,,,,,,,,,,,,1,,,76,76
33960,note_on,,16,0,10,,,,,,,,,,,,,,,5,,,79,76
33960,note_on,,0,0,10,,,,,,,,,,,,,,,5,,,61,76
33960,note_on,,0,0,10,,,,,,,,,,,,,,,5,,,76,76
33960,note_on,,0,0,10,,,,,,,,,,,,,,,5,,,73,76
33960,note_on,,31,0,8,,,,,,,,,,,,,,,3,,,70,76
33960,note_on,,31,0,7,,,,,,,,,,,,,,,2,,,73,76
33960,note_on,,31,0,9,,,,,,,,,,,,,,,4,,,61,76
34004,note_on,,44,0,10,,,,,,,,,,,,,,,5,,,79,0
34004,note_on,,44,0,9,,,,,,,,,,,,,,,4,,,61,0
34004,note_on,,0,0,10,,,,,,,,,,,,,,,5,,,73,0
34004,note_on,,0,0,10,,,,,,,,,,,,,,,5,,,76,0
34004,note_on,,0,0,10,,,,,,,,,,,,,,,5,,,61,0
34020,note_on,,16,0,9,,,,,,,,,,,,,,,4,,,58,76
34020,note_on,,16,0,10,,,,,,,,,,,,,,,5,,,73,76
34020,note_on,,0,0,10,,,,,,,,,,,,,,,5,,,78,76
34020,note_on,,0,0,10,,,,,,,,,,,,,,,5,,,58,76
34020,note_on,,0,0,10,,,,,,,,,,,,,,,5,,,76,76
34020,note_on,,0,0,10,,,,,,,,,,,,,,,5,,,70,76
34049,note_on,,89,0,8,,,,,,,,,,,,,,,3,,,70,0
34049,note_on,,89,0,7,,,,,,,,,,,,,,,2,,,73,0
34064,note_on,,0,0,10,,,,,,,,,,,,,,,5,,,70,0
34064,note_on,,44,0,9,,,,,,,,,,,,,,,4,,,58,0
34064,note_on,,0,0,10,,,,,,,,,,,,,,,5,,,78,0
34064,note_on,,0,0,10,,,,,,,,,,,,,,,5,,,58,0
34064,note_on,,0,0,10,,,,,,,,,,,,,,,5,,,76,0
34064,note_on,,44,0,10,,,,,,,,,,,,,,,5,,,73,0
34064,note_on,,104,0,5,,,,,,,,,,,,,,,0,,,76,0
34080,note_on,,16,0,5,,,,,,,,,,,,,,,0,,,85,76
34080,note_on,,31,0,7,,,,,,,,,,,,,,,2,,,70,76
34080,note_on,,16,0,9,,,,,,,,,,,,,,,4,,,54,76
34080,note_on,,31,0,8,,,,,,,,,,,,,,,3,,,73,76
34080,note_on,,16,0,10,,,,,,,,,,,,,,,5,,,73,76
34080,note_on,,0,0,10,,,,,,,,,,,,,,,5,,,76,76
34080,note_on,,0,0,10,,,,,,,,,,,,,,,5,,,70,76
34080,note_on,,0,0,10,,,,,,,,,,,,,,,5,,,66,76
34080,note_on,,0,0,10,,,,,,,,,,,,,,,5,,,54,76
34127,note_on,,167,0,6,,,,,,,,,,,,,,,1,,,76,0
34140,note_on,,13,0,6,,,,,,,,,,,,,,,1,,,85,76
34169,note_on,,89,0,9,,,,,,,,,,,,,,,4,,,54,0
34169,note_on,,89,0,7,,,,,,,,,,,,,,,2,,,70,0
34169,note_on,,89,0,8,,,,,,,,,,,,,,,3,,,73,0
34184,note_on,,0,0,10,,,,,,,,,,,,,,,5,,,76,0
34184,note_on,,0,0,10,,,,,,,,,,,,,,,5,,,66,0
34184,note_on,,0,0,10,,,,,,,,,,,,,,,5,,,54,0
34184,note_on,,0,0,10,,,,,,,,,,,,,,,5,,,70,0
34184,note_on,,104,0,5,,,,,,,,,,,,,,,0,,,85,0
34184,note_on,,104,0,10,,,,,,,,,,,,,,,5,,,73,0
34187,note_on,,47,0,6,,,,,,,,,,,,,,,1,,,85,0
34200,note_on,,16,0,10,,,,,,,,,,,,,,,5,,,70,76
34200,note_on,,0,0,10,,,,,,,,,,,,,,,5,,,76,76
34200,note_on,,0,0,10,,,,,,,,,,,,,,,5,,,73,76
34200,note_on,,0,0,10,,,,,,,,,,,,,,,5,,,58,76
34200,note_on,,16,0,5,,,,,,,,,,,,,,,0,,,76,76
34200,note_on,,31,0,8,,,,,,,,,,,,,,,3,,,66,76
34200,note_on,,31,0,7,,,,,,,,,,,,,,,2,,,73,76
34200,note_on,,13,0,6,,,,,,,,,,,,,,,1,,,76,76
34200,note_on,,31,0,9,,,,,,,,,,,,,,,4,,,58,76
34244,note_on,,44,0,10,,,,,,,,,,,,,,,5,,,70,0
34244,note_on,,0,0,10,,,,,,,,,,,,,,,5,,,58,0
34244,note_on,,0,0,10,,,,,,,,,,,,,,,5,,,73,0
34244,note_on,,0,0,10,,,,,,,,,,,,,,,5,,,76,0
34244,note_on,,44,0,9,,,,,,,,,,,,,,,4,,,58,0
34260,note_on,,16,0,9,,,,,,,,,,,,,,,4,,,54,76
34260,note_on,,0,0,10,,,,,,,,,,,,,,,5,,,66,76
34260,note_on,,0,0,10,,,,,,,,,,,,,,,5,,,76,76
34260,note_on,,0,0,10,,,,,,,,,,,,,,,5,,,54,76
34260,note_on,,0,0,10,,,,,,,,,,,,,,,5,,,70,76
34260,note_on,,16,0,10,,,,,,,,,,,,,,,5,,,73,76
34289,note_on,,89,0,8,,,,,,,,,,,,,,,3,,,66,0
34289,note_on,,89,0,7,,,,,,,,,,,,,,,2,,,73,0
34304,note_on,,104,0,5,,,,,,,,,,,,,,,0,,,76,0
34304,note_on,,44,0,9,,,,,,,,,,,,,,,4,,,54,0
34304,note_on,,0,0,10,,,,,,,,,,,,,,,5,,,66,0
34304,note_on,,0,0,10,,,,,,,,,,,,,,,5,,,76,0
34304,note_on,,104,0,6,,,,,,,,,,,,,,,1,,,76,0
34304,note_on,,0,0,10,,,,,,,,,,,,,,,5,,,54,0
34304,note_on,,0,0,10,,,,,,,,,,,,,,,5,,,70,0
34304,note_on,,44,0,10,,,,,,,,,,,,,,,5,,,73,0
34320,note_on,,31,0,8,,,,,,,,,,,,,,,3,,,66,76
34320,note_on,,0,0,10,,,,,,,,,,,,,,,5,,,59,76
34320,note_on,,16,0,5,,,,,,,,,,,,,,,0,,,76,76
34320,note_on,,16,0,10,,,,,,,,,,,,,,,5,,,71,76
34320,note_on,,31,0,7,,,,,,,,,,,,,,,2,,,73,76
34320,note_on,,16,0,9,,,,,,,,,,,,,,,4,,,59,76
34320,note_on,,16,0,6,,,,,,,,,,,,,,,1,,,76,76
34320,note_on,,0,0,10,,,,,,,,,,,,,,,5,,,78,76
34320,note_on,,0,0,10,,,,,,,,,,,,,,,5,,,76,76
34349,note_on,,29,0,6,,,,,,,,,,,,,,,1,,,76,0
34349,note_on,,29,0,7,,,,,,,,,,,,,,,2,,,73,0
34349,note_on,,29,0,5,,,,,,,,,,,,,,,0,,,76,0
34350,note_on,,1,0,6,,,,,,,,,,,,,,,1,,,78,76
34350,note_on,,1,0,7,,,,,,,,,,,,,,,2,,,74,76
34350,note_on,,1,0,5,,,,,,,,,,,,,,,0,,,78,76
34379,note_on,,29,0,6,,,,,,,,,,,,,,,1,,,78,0
34379,note_on,,29,0,7,,,,,,,,,,,,,,,2,,,74,0
34379,note_on,,29,0,5,,,,,,,,,,,,,,,0,,,78,0
34380,note_on,,1,0,7,,,,,,,,,,,,,,,2,,,71,76
34380,note_on,,1,0,6,,,,,,,,,,,,,,,1,,,74,76
34380,note_on,,1,0,5,,,,,,,,,,,,,,,0,,,74,76
34409,note_on,,29,0,7,,,,,,,,,,,,,,,2,,,71,0
34409,note_on,,29,0,6,,,,,,,,,,,,,,,1,,,74,0
34409,note_on,,89,0,9,,,,,,,,,,,,,,,4,,,59,0
34409,note_on,,29,0,5,,,,,,,,,,,,,,,0,,,74,0
34410,note_on,,1,0,5,,,,,,,,,,,,,,,0,,,76,76
34410,note_on,,1,0,7,,,,,,,,,,,,,,,2,,,73,76
34410,note_on,,1,0,6,,,,,,,,,,,,,,,1,,,76,76
34424,note_on,,104,0,10,,,,,,,,,,,,,,,5,,,71,0
34424,note_on,,0,0,10,,,,,,,,,,,,,,,5,,,76,0
34424,note_on,,0,0,10,,,,,,,,,,,,,,,5,,,59,0
34424,note_on,,0,0,10,,,,,,,,,,,,,,,5,,,78,0
34439,note_on,,29,0,6,,,,,,,,,,,,,,,1,,,76,0
34439,note_on,,29,0,7,,,,,,,,,,,,,,,2,,,73,0
34439,note_on,,29,0,5,,,,,,,,,,,,,,,0,,,76,0
34440,note_on,,0,0,10,,,,,,,,,,,,,,,5,,,71,76
34440,note_on,,16,0,10,,,,,,,,,,,,,,,5,,,74,76
34440,note_on,,1,0,6,,,,,,,,,,,,,,,1,,,74,76
34440,note_on,,31,0,9,,,,,,,,,,,,,,,4,,,54,76
34440,note_on,,1,0,7,,,,,,,,,,,,,,,2,,,71,76
34440,note_on,,1,0,5,,,,,,,,,,,,,,,0,,,74,76
34440,note_on,,0,0,10,,,,,,,,,,,,,,,5,,,66,76
34440,note_on,,0,0,10,,,,,,,,,,,,,,,5,,,54,76
34529,note_on,,89,0,9,,,,,,,,,,,,,,,4,,,54,0
34544,note_on,,0,0,10,,,,,,,,,,,,,,,5,,,66,0
34544,note_on,,0,0,10,,,,,,,,,,,,,,,5,,,54,0
34544,note_on,,104,0,10,,,,,,,,,,,,,,,5,,,74,0
34544,note_on,,0,0,10,,,,,,,,,,,,,,,5,,,71,0
34544,note_on,,104,0,5,,,,,,,,,,,,,,,0,,,74,0
34559,note_on,,119,0,6,,,,,,,,,,,,,,,1,,,74,0
34559,note_on,,239,0,8,,,,,,,,,,,,,,,3,,,66,0
34559,note_on,,119,0,7,,,,,,,,,,,,,,,2,,,71,0
34560,note_on,,0,0,10,,,,,,,,,,,,,,,5,,,71,76
34560,note_on,,31,0,9,,,,,,,,,,,,,,,4,,,50,76
34560,note_on,,0,0,10,,,,,,,,,,,,,,,5,,,66,76
34560,note_on,,16,0,10,,,,,,,,,,,,,,,5,,,62,76
34560,note_on,,16,0,5,,,,,,,,,,,,,,,0,,,83,76
34560,note_on,,0,0,10,,,,,,,,,,,,,,,5,,,50,76
34649,note_on,,89,0,9,,,,,,,,,,,,,,,4,,,50,0
34664,note_on,,104,0,5,,,,,,,,,,,,,,,0,,,83,0
34664,note_on,,0,0,10,,,,,,,,,,,,,,,5,,,66,0
34664,note_on,,104,0,10,,,,,,,,,,,,,,,5,,,62,0
34664,note_on,,0,0,10,,,,,,,,,,,,,,,5,,,50,0
34664,note_on,,0,0,10,,,,,,,,,,,,,,,5,,,71,0
34680,note_on,,31,0,9,,,,,,,,,,,,,,,4,,,47,76
34680,note_on,,16,0,10,,,,,,,,,,,,,,,5,,,59,76
34680,note_on,,0,0,10,,,,,,,,,,,,,,,5,,,66,76
34680,note_on,,0,0,10,,,,,,,,,,,,,,,5,,,62,76
34680,note_on,,0,0,10,,,,,,,,,,,,,,,5,,,47,76
34680,note_on,,16,0,5,,,,,,,,,,,,,,,0,,,86,76
34727,note_on,,47,0,5,,,,,,,,,,,,,,,0,,,86,0
34740,note_on,,13,0,5,,,,,,,,,,,,,,,0,,,83,76
34769,note_on,,89,0,9,,,,,,,,,,,,,,,4,,,47,0
34769,note_on,,29,0,5,,,,,,,,,,,,,,,0,,,83,0
34780,note_on,,11,0,5,,,,,,,,,,,,,,,0,,,81,76
34784,note_on,,0,0,10,,,,,,,,,,,,,,,5,,,62,0
34784,note_on,,0,0,10,,,,,,,,,,,,,,,5,,,47,0
34784,note_on,,0,0,10,,,,,,,,,,,,,,,5,,,66,0
34784,note_on,,104,0,10,,,,,,,,,,,,,,,5,,,59,0
34799,note_on,,19,0,5,,,,,,,,,,,,,,,0,,,81,0
34800,note_on,,0,0,10,,,,,,,,,,,,,,,5,,,64,76
34800,note_on,,31,0,9,,,,,,,,,,,,,,,4,,,52,76
34800,note_on,,0,0,10,,,,,,,,,,,,,,,5,,,71,76
34800,note_on,,0,0,10,,,,,,,,,,,,,,,5,,,67,76
34800,note_on,,16,0,10,,,,,,,,,,,,,,,5,,,52,76
34800,note_on,,1,0,5,,,,,,,,,,,,,,,0,,,79,76
34904,note_on,,0,0,10,,,,,,,,,,,,,,,5,,,71,0
34904,note_on,,0,0,10,,,,,,,,,,,,,,,5,,,67,0
34904,note_on,,104,0,10,,,,,,,,,,,,,,,5,,,52,0
34904,note_on,,0,0,10,,,,,,,,,,,,,,,5,,,64,0
34919,note_on,,119,0,9,,,,,,,,,,,,,,,4,,,52,0
34920,note_on,,361,0,8,,,,,,,,,,,,,,,3,,,71,76
34920,note_on,,0,0,10,,,,,,,,,,,,,,,5,,,67,76
34920,note_on,,361,0,6,,,,,,,,,,,,,,,1,,,79,76
34920,note_on,,1,0,9,,,,,,,,,,,,,,,4,,,52,76
34920,note_on,,0,0,10,,,,,,,,,,,,,,,5,,,52,76
34920,note_on,,0,0,10,,,,,,,,,,,,,,,5,,,71,76
34920,note_on,,16,0,10,,,,,,,,,,,,,,,5,,,64,76
34920,note_on,,361,0,7,,,,,,,,,,,,,,,2,,,76,76
34967,note_on,,47,0,7,,,,,,,,,,,,,,,2,,,76,0
34967,note_on,,47,0,8,,,,,,,,,,,,,,,3,,,71,0
34967,note_on,,47,0,6,,,,,,,,,,,,,,,1,,,79,0
34980,note_on,,13,0,8,,,,,,,,,,,,,,,3,,,67,76
34980,note_on,,13,0,7,,,,,,,,,,,,,,,2,,,71,76
34980,note_on,,13,0,6,,,,,,,,,,,,,,,1,,,76,76
35024,note_on,,0,0,10,,,,,,,,,,,,,,,5,,,67,0
35024,note_on,,104,0,10,,,,,,,,,,,,,,,5,,,64,0
35024,note_on,,0,0,10,,,,,,,,,,,,,,,5,,,71,0
35024,note_on,,0,0,10,,,,,,,,,,,,,,,5,,,52,0
35027,note_on,,47,0,8,,,,,,,,,,,,,,,3,,,67,0
35027,note_on,,47,0,7,,,,,,,,,,,,,,,2,,,71,0
35027,note_on,,47,0,6,,,,,,,,,,,,,,,1,,,76,0
35039,note_on,,119,0,9,,,,,,,,,,,,,,,4,,,52,0
35040,note_on,,13,0,8,,,,,,,,,,,,,,,3,,,64,76
35040,note_on,,0,0,10,,,,,,,,,,,,,,,5,,,71,76
35040,note_on,,0,0,10,,,,,,,,,,,,,,,5,,,64,76
35040,note_on,,13,0,6,,,,,,,,,,,,,,,1,,,71,76
35040,note_on,,1,0,9,,,,,,,,,,,,,,,4,,,52,76
35040,note_on,,0,0,10,,,,,,,,,,,,,,,5,,,52,76
35040,note_on,,13,0,7,,,,,,,,,,,,,,,2,,,67,76
35040,note_on,,16,0,10,,,,,,,,,,,,,,,5,,,67,76
35129,note_on,,89,0,6,,,,,,,,,,,,,,,1,,,71,0
35129,note_on,,89,0,8,,,,,,,,,,,,,,,3,,,64,0
35129,note_on,,89,0,7,,,,,,,,,,,,,,,2,,,67,0
35129,note_on,,89,0,9,,,,,,,,,,,,,,,4,,,52,0
35144,note_on,,104,0,10,,,,,,,,,,,,,,,5,,,67,0
35144,note_on,,0,0,10,,,,,,,,,,,,,,,5,,,64,0
35144,note_on,,0,0,10,,,,,,,,,,,,,,,5,,,52,0
35144,note_on,,0,0,10,,,,,,,,,,,,,,,5,,,71,0
35144,note_on,,344,0,5,,,,,,,,,,,,,,,0,,,79,0
35160,note_on,,31,0,9,,,,,,,,,,,,,,,4,,,40,76
35160,note_on,,0,0,10,,,,,,,,,,,,,,,5,,,55,76
35160,note_on,,0,0,10,,,,,,,,,,,,,,,5,,,59,76
35160,note_on,,0,0,10,,,,,,,,,,,,,,,5,,,40,76
35160,note_on,,16,0,5,,,,,,,,,,,,,,,0,,,83,76
35160,note_on,,16,0,10,,,,,,,,,,,,,,,5,,,52,76
35189,note_on,,29,0,5,,,,,,,,,,,,,,,0,,,83,0
35190,note_on,,1,0,5,,,,,,,,,,,,,,,0,,,81,76
35219,note_on,,29,0,5,,,,,,,,,,,,,,,0,,,81,0
35220,note_on,,1,0,5,,,,,,,,,,,,,,,0,,,79,76
35249,note_on,,89,0,9,,,,,,,,,,,,,,,4,,,40,0
35249,note_on,,29,0,5,,,,,,,,,,,,,,,0,,,79,0
35250,note_on,,1,0,5,,,,,,,,,,,,,,,0,,,78,76
35264,note_on,,0,0,10,,,,,,,,,,,,,,,5,,,55,0
35264,note_on,,104,0,10,,,,,,,,,,,,,,,5,,,52,0
35264,note_on,,0,0,10,,,,,,,,,,,,,,,5,,,59,0
35264,note_on,,0,0,10,,,,,,,,,,,,,,,5,,,40,0
35273,note_on,,23,0,5,,,,,,,,,,,,,,,0,,,78,0
35280,note_on,,0,0,10,,,,,,,,,,,,,,,5,,,67,76
35280,note_on,,16,0,10,,,,,,,,,,,,,,,5,,,71,76
35280,note_on,,0,0,10,,,,,,,,,,,,,,,5,,,52,76
35280,note_on,,0,0,10,,,,,,,,,,,,,,,5,,,64,76
35280,note_on,,31,0,9,,,,,,,,,,,,,,,4,,,52,76
35280,note_on,,7,0,5,,,,,,,,,,,,,,,0,,,76,76
35384,note_on,,0,0,10,,,,,,,,,,,,,,,5,,,64,0
35384,note_on,,104,0,10,,,,,,,,,,,,,,,5,,,71,0
35384,note_on,,0,0,10,,,,,,,,,,,,,,,5,,,52,0
35384,note_on,,0,0,10,,,,,,,,,,,,,,,5,,,67,0
35399,note_on,,119,0,9,,,,,,,,,,,,,,,4,,,52,0
35400,note_on,,0,0,10,,,,,,,,,,,,,,,5,,,64,76
35400,note_on,,0,0,10,,,,,,,,,,,,,,,5,,,71,76
35400,note_on,,0,0,10,,,,,,,,,,,,,,,5,,,67,76
35400,note_on,,16,0,10,,,,,,,,,,,,,,,5,,,52,76
35400,note_on,,271,0,8,,,,,,,,,,,,,,,3,,,67,76
35400,note_on,,271,0,6,,,,,,,,,,,,,,,1,,,76,76
35400,note_on,,1,0,9,,,,,,,,,,,,,,,4,,,52,76
35400,note_on,,271,0,7,,,,,,,,,,,,,,,2,,,71,76
35447,note_on,,47,0,6,,,,,,,,,,,,,,,1,,,76,0
35447,note_on,,47,0,8,,,,,,,,,,,,,,,3,,,67,0
35447,note_on,,47,0,7,,,,,,,,,,,,,,,2,,,71,0
35460,note_on,,13,0,6,,,,,,,,,,,,,,,1,,,71,76
35460,note_on,,13,0,8,,,,,,,,,,,,,,,3,,,64,76
35460,note_on,,13,0,7,,,,,,,,,,,,,,,2,,,67,76
35504,note_on,,104,0,10,,,,,,,,,,,,,,,5,,,52,0
35504,note_on,,0,0,10,,,,,,,,,,,,,,,5,,,67,0
35504,note_on,,0,0,10,,,,,,,,,,,,,,,5,,,71,0
35504,note_on,,0,0,10,,,,,,,,,,,,,,,5,,,64,0
35507,note_on,,47,0,8,,,,,,,,,,,,,,,3,,,64,0
35507,note_on,,47,0,7,,,,,,,,,,,,,,,2,,,67,0
35507,note_on,,47,0,6,,,,,,,,,,,,,,,1,,,71,0
35519,note_on,,119,0,9,,,,,,,,,,,,,,,4,,,52,0
35520,note_on,,1,0,9,,,,,,,,,,,,,,,4,,,52,76
35520,note_on,,13,0,7,,,,,,,,,,,,,,,2,,,64,76
35520,note_on,,13,0,6,,,,,,,,,,,,,,,1,,,67,76
35520,note_on,,0,0,10,,,,,,,,,,,,,,,5,,,52,76
35520,note_on,,0,0,10,,,,,,,,,,,,,,,5,,,71,76
35520,note_on,,0,0,10,,,,,,,,,,,,,,,5,,,64,76
35520,note_on,,13,0,8,,,,,,,,,,,,,,,3,,,59,76
35520,note_on,,16,0,10,,,,,,,,,,,,,,,5,,,67,76
35609,note_on,,89,0,9,,,,,,,,,,,,,,,4,,,52,0
35609,note_on,,89,0,8,,,,,,,,,,,,,,,3,,,59,0
35609,note_on,,89,0,7,,,,,,,,,,,,,,,2,,,64,0
35609,note_on,,89,0,6,,,,,,,,,,,,,,,1,,,67,0
35624,note_on,,344,0,5,,,,,,,,,,,,,,,0,,,76,0
35624,note_on,,0,0,10,,,,,,,,,,,,,,,5,,,52,0
35624,note_on,,0,0,10,,,,,,,,,,,,,,,5,,,64,0
35624,note_on,,104,0,10,,,,,,,,,,,,,,,5,,,67,0
35624,note_on,,0,0,10,,,,,,,,,,,,,,,5,,,71,0
35640,note_on,,16,0,10,,,,,,,,,,,,,,,5,,,40,76
35640,note_on,,16,0,5,,,,,,,,,,,,,,,0,,,79,76
35640,note_on,,0,0,10,,,,,,,,,,,,,,,5,,,59,76
35640,note_on,,0,0,10,,,,,,,,,,,,,,,5,,,55,76
35640,note_on,,0,0,10,,,,,,,,,,,,,,,5,,,52,76
35640,note_on,,31,0,9,,,,,,,,,,,,,,,4,,,40,76
35669,note_on,,29,0,5,,,,,,,,,,,,,,,0,,,79,0
35670,note_on,,1,0,5,,,,,,,,,,,,,,,0,,,78,76
35699,note_on,,29,0,5,,,,,,,,,,,,,,,0,,,78,0
35700,note_on,,1,0,5,,,,,,,,,,,,,,,0,,,76,76
35729,note_on,,29,0,5,,,,,,,,,,,,,,,0,,,76,0
35729,note_on,,89,0,9,,,,,,,,,,,,,,,4,,,40,0
35730,note_on,,1,0,5,,,,,,,,,,,,,,,0,,,74,76
35744,note_on,,104,0,10,,,,,,,,,,,,,,,5,,,40,0
35744,note_on,,0,0,10,,,,,,,,,,,,,,,5,,,52,0
35744,note_on,,0,0,10,,,,,,,,,,,,,,,5,,,55,0
35744,note_on,,0,0,10,,,,,,,,,,,,,,,5,,,59,0
35753,note_on,,23,0,5,,,,,,,,,,,,,,,0,,,74,0
35760,note_on,,0,0,10,,,,,,,,,,,,,,,5,,,67,76
35760,note_on,,0,0,10,,,,,,,,,,,,,,,5,,,72,76
35760,note_on,,16,0,10,,,,,,,,,,,,,,,5,,,64,76
35760,note_on,,0,0,10,,,,,,,,,,,,,,,5,,,52,76
35760,note_on,,7,0,5,,,,,,,,,,,,,,,0,,,72,76
35760,note_on,,31,0,9,,,,,,,,,,,,,,,4,,,52,76
35807,note_on,,47,0,5,,,,,,,,,,,,,,,0,,,72,0
35820,note_on,,13,0,5,,,,,,,,,,,,,,,0,,,76,76
35864,note_on,,0,0,10,,,,,,,,,,,,,,,5,,,52,0
35864,note_on,,0,0,10,,,,,,,,,,,,,,,5,,,67,0
35864,note_on,,104,0,10,,,,,,,,,,,,,,,5,,,64,0
35864,note_on,,0,0,10,,,,,,,,,,,,,,,5,,,72,0
35867,note_on,,47,0,5,,,,,,,,,,,,,,,0,,,76,0
35879,note_on,,119,0,9,,,,,,,,,,,,,,,4,,,52,0
35880,note_on,,0,0,10,,,,,,,,,,,,,,,5,,,64,76
35880,note_on,,0,0,10,,,,,,,,,,,,,,,5,,,67,76
35880,note_on,,0,0,10,,,,,,,,,,,,,,,5,,,72,76
35880,note_on,,271,0,8,,,,,,,,,,,,,,,3,,,55,76
35880,note_on,,1,0,9,,,,,,,,,,,,,,,4,,,52,76
35880,note_on,,271,0,6,,,,,,,,,,,,,,,1,,,72,76
35880,note_on,,16,0,10,,,,,,,,,,,,,,,5,,,52,76
35880,note_on,,271,0,7,,,,,,,,,,,,,,,2,,,64,76
35880,note_on,,13,0,5,,,,,,,,,,,,,,,0,,,79,76
35927,note_on,,47,0,5,,,,,,,,,,,,,,,0,,,79,0
35940,note_on,,13,0,5,,,,,,,,,,,,,,,0,,,76,76
35969,note_on,,89,0,6,,,,,,,,,,,,,,,1,,,72,0
35984,note_on,,104,0,7,,,,,,,,,,,,,,,2,,,64,0
35984,note_on,,104,0,8,,,,,,,,,,,,,,,3,,,55,0
35984,note_on,,0,0,10,,,,,,,,,,,,,,,5,,,67,0
35984,note_on,,0,0,10,,,,,,,,,,,,,,,5,,,64,0
35984,note_on,,0,0,10,,,,,,,,,,,,,,,5,,,72,0
35984,note_on,,104,0,10,,,,,,,,,,,,,,,5,,,52,0
35987,note_on,,47,0,5,,,,,,,,,,,,,,,0,,,76,0
35999,note_on,,119,0,9,,,,,,,,,,,,,,,4,,,52,0
36000,note_on,,16,0,7,,,,,,,,,,,,,,,2,,,67,76
36000,note_on,,31,0,6,,,,,,,,,,,,,,,1,,,76,76
36000,note_on,,0,0,10,,,,,,,,,,,,,,,5,,,67,76
36000,note_on,,0,0,10,,,,,,,,,,,,,,,5,,,64,76
36000,note_on,,16,0,10,,,,,,,,,,,,,,,5,,,52,76
36000,note_on,,16,0,8,,,,,,,,,,,,,,,3,,,60,76
36000,note_on,,1,0,9,,,,,,,,,,,,,,,4,,,52,76
36000,note_on,,0,0,10,,,,,,,,,,,,,,,5,,,72,76
36000,note_on,,13,0,5,,,,,,,,,,,,,,,0,,,72,76
36059,note_on,,59,0,5,,,,,,,,,,,,,,,0,,,72,0
36060,note_on,,1,0,5,,,,,,,,,,,,,,,0,,,71,76
36089,note_on,,89,0,6,,,,,,,,,,,,,,,1,,,76,0
36089,note_on,,89,0,9,,,,,,,,,,,,,,,4,,,52,0
36104,note_on,,104,0,7,,,,,,,,,,,,,,,2,,,67,0
36104,note_on,,104,0,10,,,,,,,,,,,,,,,5,,,52,0
36104,note_on,,0,0,10,,,,,,,,,,,,,,,5,,,72,0
36104,note_on,,0,0,10,,,,,,,,,,,,,,,5,,,64,0
36104,note_on,,0,0,10,,,,,,,,,,,,,,,5,,,67,0
36104,note_on,,104,0,8,,,,,,,,,,,,,,,3,,,60,0
36107,note_on,,47,0,5,,,,,,,,,,,,,,,0,,,71,0
36120,note_on,,0,0,10,,,,,,,,,,,,,,,5,,,52,76
36120,note_on,,16,0,10,,,,,,,,,,,,,,,5,,,55,76
36120,note_on,,31,0,6,,,,,,,,,,,,,,,1,,,79,76
36120,note_on,,13,0,5,,,,,,,,,,,,,,,0,,,72,76
36120,note_on,,16,0,7,,,,,,,,,,,,,,,2,,,72,76
36120,note_on,,0,0,10,,,,,,,,,,,,,,,5,,,60,76
36120,note_on,,31,0,9,,,,,,,,,,,,,,,4,,,40,76
36120,note_on,,16,0,8,,,,,,,,,,,,,,,3,,,64,76
36120,note_on,,0,0,10,,,,,,,,,,,,,,,5,,,40,76
36179,note_on,,59,0,5,,,,,,,,,,,,,,,0,,,72,0
36180,note_on,,1,0,5,,,,,,,,,,,,,,,0,,,71,76
36187,note_on,,67,0,7,,,,,,,,,,,,,,,2,,,72,0
36200,note_on,,13,0,7,,,,,,,,,,,,,,,2,,,71,76
36209,note_on,,89,0,6,,,,,,,,,,,,,,,1,,,79,0
36209,note_on,,89,0,9,,,,,,,,,,,,,,,4,,,40,0
36220,note_on,,11,0,6,,,,,,,,,,,,,,,1,,,79,76
36224,note_on,,0,0,10,,,,,,,,,,,,,,,5,,,52,0
36224,note_on,,0,0,10,,,,,,,,,,,,,,,5,,,60,0
36224,note_on,,0,0,10,,,,,,,,,,,,,,,5,,,40,0
36224,note_on,,104,0,10,,,,,,,,,,,,,,,5,,,55,0
36224,note_on,,104,0,8,,,,,,,,,,,,,,,3,,,64,0
36227,note_on,,47,0,5,,,,,,,,,,,,,,,0,,,71,0
36239,note_on,,39,0,7,,,,,,,,,,,,,,,2,,,71,0
36239,note_on,,19,0,6,,,,,,,,,,,,,,,1,,,79,0
36240,note_on,,16,0,10,,,,,,,,,,,,,,,5,,,64,76
36240,note_on,,0,0,10,,,,,,,,,,,,,,,5,,,70,76
36240,note_on,,1,0,7,,,,,,,,,,,,,,,2,,,70,76
36240,note_on,,0,0,10,,,,,,,,,,,,,,,5,,,66,76
36240,note_on,,13,0,5,,,,,,,,,,,,,,,0,,,70,76
36240,note_on,,0,0,10,,,,,,,,,,,,,,,5,,,73,76
36240,note_on,,0,0,10,,,,,,,,,,,,,,,5,,,52,76
36240,note_on,,16,0,8,,,,,,,,,,,,,,,3,,,61,76
36240,note_on,,1,0,6,,,,,,,,,,,,,,,1,,,78,76
36240,note_on,,31,0,9,,,,,,,,,,,,,,,4,,,52,76
36329,note_on,,89,0,9,,,,,,,,,,,,,,,4,,,52,0
36329,note_on,,89,0,5,,,,,,,,,,,,,,,0,,,70,0
36344,note_on,,0,0,10,,,,,,,,,,,,,,,5,,,70,0
36344,note_on,,104,0,10,,,,,,,,,,,,,,,5,,,64,0
36344,note_on,,0,0,10,,,,,,,,,,,,,,,5,,,66,0
36344,note_on,,0,0,10,,,,,,,,,,,,,,,5,,,73,0
36344,note_on,,0,0,10,,,,,,,,,,,,,,,5,,,52,0
36360,note_on,,31,0,9,,,,,,,,,,,,,,,4,,,64,76
36360,note_on,,0,0,10,,,,,,,,,,,,,,,5,,,76,76
36360,note_on,,16,0,10,,,,,,,,,,,,,,,5,,,85,76
36360,note_on,,31,0,5,,,,,,,,,,,,,,,0,,,66,76
36360,note_on,,0,0,10,,,,,,,,,,,,,,,5,,,78,76
36360,note_on,,0,0,10,,,,,,,,,,,,,,,5,,,64,76
36360,note_on,,0,0,10,,,,,,,,,,,,,,,5,,,82,76
36404,note_on,,0,0,10,,,,,,,,,,,,,,,5,,,64,0
36404,note_on,,0,0,10,,,,,,,,,,,,,,,5,,,76,0
36404,note_on,,44,0,9,,,,,,,,,,,,,,,4,,,64,0
36404,note_on,,0,0,10,,,,,,,,,,,,,,,5,,,82,0
36404,note_on,,44,0,10,,,,,,,,,,,,,,,5,,,85,0
36404,note_on,,0,0,10,,,,,,,,,,,,,,,5,,,78,0
36420,note_on,,0,0,10,,,,,,,,,,,,,,,5,,,76,76
36420,note_on,,16,0,9,,,,,,,,,,,,,,,4,,,61,76
36420,note_on,,0,0,10,,,,,,,,,,,,,,,5,,,61,76
36420,note_on,,16,0,10,,,,,,,,,,,,,,,5,,,73,76
36420,note_on,,0,0,10,,,,,,,,,,,,,,,5,,,79,76
36449,note_on,,89,0,5,,,,,,,,,,,,,,,0,,,66,0
36464,note_on,,44,0,10,,,,,,,,,,,,,,,5,,,73,0
36464,note_on,,0,0,10,,,,,,,,,,,,,,,5,,,61,0
36464,note_on,,224,0,7,,,,,,,,,,,,,,,2,,,70,0
36464,note_on,,0,0,10,,,,,,,,,,,,,,,5,,,79,0
36464,note_on,,44,0,9,,,,,,,,,,,,,,,4,,,61,0
36464,note_on,,224,0,6,,,,,,,,,,,,,,,1,,,78,0
36464,note_on,,224,0,8,,,,,,,,,,,,,,,3,,,61,0
36464,note_on,,0,0,10,,,,,,,,,,,,,,,5,,,76,0
36480,note_on,,16,0,7,,,,,,,,,,,,,,,2,,,73,52
36480,note_on,,31,0,5,,,,,,,,,,,,,,,0,,,67,76
36480,note_on,,0,0,10,,,,,,,,,,,,,,,5,,,73,76
36480,note_on,,16,0,9,,,,,,,,,,,,,,,4,,,58,52
36480,note_on,,0,0,10,,,,,,,,,,,,,,,5,,,79,76
36480,note_on,,16,0,10,,,,,,,,,,,,,,,5,,,76,76
36480,note_on,,0,0,10,,,,,,,,,,,,,,,5,,,70,76
36480,note_on,,16,0,8,,,,,,,,,,,,,,,3,,,61,52
36480,note_on,,16,0,6,,,,,,,,,,,,,,,1,,,76,52
36480,note_on,,0,0,10,,,,,,,,,,,,,,,5,,,58,76
36569,note_on,,89,0,8,,,,,,,,,,,,,,,3,,,61,0
36569,note_on,,89,0,7,,,,,,,,,,,,,,,2,,,73,0
36569,note_on,,89,0,9,,,,,,,,,,,,,,,4,,,58,0
36569,note_on,,89,0,6,,,,,,,,,,,,,,,1,,,76,0
36584,note_on,,104,0,10,,,,,,,,,,,,,,,5,,,76,0
36584,note_on,,0,0,10,,,,,,,,,,,,,,,5,,,58,0
36584,note_on,,0,0,10,,,,,,,,,,,,,,,5,,,70,0
36584,note_on,,0,0,10,,,,,,,,,,,,,,,5,,,73,0
36584,note_on,,0,0,10,,,,,,,,,,,,,,,5,,,79,0
36599,note_on,,119,0,5,,,,,,,,,,,,,,,0,,,67,0
36600,note_on,,0,0,10,,,,,,,,,,,,,,,5,,,61,76
36600,note_on,,1,0,5,,,,,,,,,,,,,,,0,,,66,76
36600,note_on,,31,0,9,,,,,,,,,,,,,,,4,,,61,52
36600,note_on,,0,0,10,,,,,,,,,,,,,,,5,,,79,76
36600,note_on,,16,0,10,,,,,,,,,,,,,,,5,,,76,76
36600,note_on,,0,0,10,,,,,,,,,,,,,,,5,,,73,76
36644,note_on,,0,0,10,,,,,,,,,,,,,,,5,,,61,0
36644,note_on,,0,0,10,,,,,,,,,,,,,,,5,,,79,0
36644,note_on,,0,0,10,,,,,,,,,,,,,,,5,,,73,0
36644,note_on,,44,0,10,,,,,,,,,,,,,,,5,,,76,0
36644,note_on,,44,0,9,,,,,,,,,,,,,,,4,,,61,0
36660,note_on,,16,0,10,,,,,,,,,,,,,,,5,,,70,76
36660,note_on,,16,0,9,,,,,,,,,,,,,,,4,,,58,52
36660,note_on,,0,0,10,,,,,,,,,,,,,,,5,,,79,76
36660,note_on,,0,0,10,,,,,,,,,,,,,,,5,,,58,76
36660,note_on,,0,0,10,,,,,,,,,,,,,,,5,,,73,76
36660,note_on,,0,0,10,,,,,,,,,,,,,,,5,,,76,76
36704,note_on,,44,0,9,,,,,,,,,,,,,,,4,,,58,0
36704,note_on,,104,0,5,,,,,,,,,,,,,,,0,,,66,0
36704,note_on,,44,0,10,,,,,,,,,,,,,,,5,,,70,0
36704,note_on,,0,0,10,,,,,,,,,,,,,,,5,,,58,0
36704,note_on,,0,0,10,,,,,,,,,,,,,,,5,,,73,0
36704,note_on,,0,0,10,,,,,,,,,,,,,,,5,,,76,0
36704,note_on,,0,0,10,,,,,,,,,,,,,,,5,,,79,0
36720,note_on,,16,0,5,,,,,,,,,,,,,,,0,,,71,76
36720,note_on,,151,0,8,,,,,,,,,,,,,,,3,,,62,52
36720,note_on,,151,0,7,,,,,,,,,,,,,,,2,,,71,52
36720,note_on,,151,0,6,,,,,,,,,,,,,,,1,,,74,52
36720,note_on,,16,0,10,,,,,,,,,,,,,,,5,,,54,76
36720,note_on,,16,0,9,,,,,,,,,,,,,,,4,,,54,52
36720,note_on,,0,0,10,,,,,,,,,,,,,,,5,,,74,76
36720,note_on,,0,0,10,,,,,,,,,,,,,,,5,,,71,76
36720,note_on,,0,0,10,,,,,,,,,,,,,,,5,,,66,76
36809,note_on,,89,0,7,,,,,,,,,,,,,,,2,,,71,0
36809,note_on,,89,0,9,,,,,,,,,,,,,,,4,,,54,0
36809,note_on,,89,0,8,,,,,,,,,,,,,,,3,,,62,0
36809,note_on,,89,0,6,,,,,,,,,,,,,,,1,,,74,0
36824,note_on,,104,0,10,,,,,,,,,,,,,,,5,,,54,0
36824,note_on,,0,0,10,,,,,,,,,,,,,,,5,,,66,0
36824,note_on,,0,0,10,,,,,,,,,,,,,,,5,,,74,0
36824,note_on,,0,0,10,,,,,,,,,,,,,,,5,,,71,0
36839,note_on,,119,0,5,,,,,,,,,,,,,,,0,,,71,0
36840,note_on,,16,0,10,,,,,,,,,,,,,,,5,,,66,76
36840,note_on,,0,0,10,,,,,,,,,,,,,,,5,,,54,76
36840,note_on,,0,0,10,,,,,,,,,,,,,,,5,,,71,76
36840,note_on,,31,0,9,,,,,,,,,,,,,,,4,,,54,52
36840,note_on,,0,0,10,,,,,,,,,,,,,,,5,,,74,76
36840,note_on,,1,0,5,,,,,,,,,,,,,,,0,,,70,76
36899,note_on,,59,0,5,,,,,,,,,,,,,,,0,,,70,0
36900,note_on,,1,0,5,,,,,,,,,,,,,,,0,,,73,76
36929,note_on,,89,0,9,,,,,,,,,,,,,,,4,,,54,0
36944,note_on,,104,0,10,,,,,,,,,,,,,,,5,,,66,0
36944,note_on,,0,0,10,,,,,,,,,,,,,,,5,,,54,0
36944,note_on,,0,0,10,,,,,,,,,,,,,,,5,,,71,0
36944,note_on,,0,0,10,,,,,,,,,,,,,,,5,,,74,0
36947,note_on,,47,0,5,,,,,,,,,,,,,,,0,,,73,0
36960,note_on,,0,0,10,,,,,,,,,,,,,,,5,,,54,76
36960,note_on,,0,0,10,,,,,,,,,,,,,,,5,,,73,76
36960,note_on,,31,0,9,,,,,,,,,,,,,,,4,,,54,52
36960,note_on,,151,0,7,,,,,,,,,,,,,,,2,,,70,52
36960,note_on,,13,0,5,,,,,,,,,,,,,,,0,,,76,76
36960,note_on,,0,0,10,,,,,,,,,,,,,,,5,,,70,76
36960,note_on,,151,0,6,,,,,,,,,,,,,,,1,,,73,52
36960,note_on,,16,0,10,,,,,,,,,,,,,,,5,,,66,76
36960,note_on,,151,0,8,,,,,,,,,,,,,,,3,,,66,52
37049,note_on,,89,0,8,,,,,,,,,,,,,,,3,,,66,0
37049,note_on,,89,0,9,,,,,,,,,,,,,,,4,,,54,0
37049,note_on,,89,0,7,,,,,,,,,,,,,,,2,,,70,0
37049,note_on,,89,0,6,,,,,,,,,,,,,,,1,,,73,0
37064,note_on,,104,0,5,,,,,,,,,,,,,,,0,,,76,0
37064,note_on,,0,0,10,,,,,,,,,,,,,,,5,,,73,0
37064,note_on,,0,0,10,,,,,,,,,,,,,,,5,,,70,0
37064,note_on,,0,0,10,,,,,,,,,,,,,,,5,,,54,0
37064,note_on,,104,0,10,,,,,,,,,,,,,,,5,,,66,0
37080,note_on,,0,0,10,,,,,,,,,,,,,,,5,,,54,76
37080,note_on,,16,0,5,,,,,,,,,,,,,,,0,,,74,76
37080,note_on,,0,0,10,,,,,,,,,,,,,,,5,,,70,76
37080,note_on,,16,0,10,,,,,,,,,,,,,,,5,,,66,76
37080,note_on,,31,0,9,,,,,,,,,,,,,,,4,,,54,52
37080,note_on,,0,0,10,,,,,,,,,,,,,,,5,,,73,76
37127,note_on,,47,0,5,,,,,,,,,,,,,,,0,,,74,0
37140,note_on,,13,0,5,,,,,,,,,,,,,,,0,,,73,76
37169,note_on,,89,0,9,,,,,,,,,,,,,,,4,,,54,0
37184,note_on,,104,0,10,,,,,,,,,,,,,,,5,,,66,0
37184,note_on,,0,0,10,,,,,,,,,,,,,,,5,,,73,0
37184,note_on,,0,0,10,,,,,,,,,,,,,,,5,,,54,0
37184,note_on,,0,0,10,,,,,,,,,,,,,,,5,,,70,0
37187,note_on,,47,0,5,,,,,,,,,,,,,,,0,,,73,0
37200,note_on,,151,0,7,,,,,,,,,,,,,,,2,,,71,52
37200,note_on,,31,0,9,,,,,,,,,,,,,,,4,,,59,52
37200,note_on,,0,0,10,,,,,,,,,,,,,,,5,,,59,76
37200,note_on,,0,0,10,,,,,,,,,,,,,,,5,,,71,76
37200,note_on,,0,0,10,,,,,,,,,,,,,,,5,,,78,76
37200,note_on,,16,0,10,,,,,,,,,,,,,,,5,,,74,76
37200,note_on,,13,0,5,,,,,,,,,,,,,,,0,,,74,76
37200,note_on,,151,0,6,,,,,,,,,,,,,,,1,,,71,76
37200,note_on,,151,0,8,,,,,,,,,,,,,,,3,,,66,52
37289,note_on,,89,0,9,,,,,,,,,,,,,,,4,,,59,0
37304,note_on,,104,0,6,,,,,,,,,,,,,,,1,,,71,0
37304,note_on,,104,0,5,,,,,,,,,,,,,,,0,,,74,0
37304,note_on,,104,0,10,,,,,,,,,,,,,,,5,,,74,0
37304,note_on,,0,0,10,,,,,,,,,,,,,,,5,,,78,0
37304,note_on,,0,0,10,,,,,,,,,,,,,,,5,,,71,0
37304,note_on,,0,0,10,,,,,,,,,,,,,,,5,,,59,0
37320,note_on,,16,0,5,,,,,,,,,,,,,,,0,,,71,76
37320,note_on,,0,0,10,,,,,,,,,,,,,,,5,,,81,76
37320,note_on,,0,0,10,,,,,,,,,,,,,,,5,,,62,76
37320,note_on,,31,0,9,,,,,,,,,,,,,,,4,,,62,52
37320,note_on,,0,0,10,,,,,,,,,,,,,,,5,,,78,76
37320,note_on,,16,0,6,,,,,,,,,,,,,,,1,,,66,76
37320,note_on,,16,0,10,,,,,,,,,,,,,,,5,,,74,76
37349,note_on,,29,0,5,,,,,,,,,,,,,,,0,,,71,0
37350,note_on,,1,0,5,,,,,,,,,,,,,,,0,,,73,76
37364,note_on,,44,0,9,,,,,,,,,,,,,,,4,,,62,0
37364,note_on,,44,0,10,,,,,,,,,,,,,,,5,,,74,0
37364,note_on,,0,0,10,,,,,,,,,,,,,,,5,,,78,0
37364,note_on,,0,0,10,,,,,,,,,,,,,,,5,,,81,0
37364,note_on,,0,0,10,,,,,,,,,,,,,,,5,,,62,0
37367,note_on,,47,0,6,,,,,,,,,,,,,,,1,,,66,0
37379,note_on,,29,0,5,,,,,,,,,,,,,,,0,,,73,0
37380,note_on,,0,0,10,,,,,,,,,,,,,,,5,,,74,76
37380,note_on,,0,0,10,,,,,,,,,,,,,,,5,,,71,76
37380,note_on,,0,0,10,,,,,,,,,,,,,,,5,,,78,76
37380,note_on,,16,0,10,,,,,,,,,,,,,,,5,,,59,76
37380,note_on,,1,0,5,,,,,,,,,,,,,,,0,,,74,76
37380,note_on,,16,0,9,,,,,,,,,,,,,,,4,,,59,52
37380,note_on,,13,0,6,,,,,,,,,,,,,,,1,,,71,76
37409,note_on,,29,0,5,,,,,,,,,,,,,,,0,,,74,0
37410,note_on,,1,0,5,,,,,,,,,,,,,,,0,,,76,76
37424,note_on,,0,0,10,,,,,,,,,,,,,,,5,,,78,0
37424,note_on,,0,0,10,,,,,,,,,,,,,,,5,,,71,0
37424,note_on,,44,0,10,,,,,,,,,,,,,,,5,,,59,0
37424,note_on,,44,0,9,,,,,,,,,,,,,,,4,,,59,0
37424,note_on,,224,0,7,,,,,,,,,,,,,,,2,,,71,0
37424,note_on,,0,0,10,,,,,,,,,,,,,,,5,,,74,0
37427,note_on,,47,0,6,,,,,,,,,,,,,,,1,,,71,0
37439,note_on,,239,0,8,,,,,,,,,,,,,,,3,,,66,0
37439,note_on,,29,0,5,,,,,,,,,,,,,,,0,,,76,0
37440,note_on,,0,0,10,,,,,,,,,,,,,,,5,,,66,76
37440,note_on,,0,0,10,,,,,,,,,,,,,,,5,,,74,76
37440,note_on,,1,0,5,,,,,,,,,,,,,,,0,,,78,76
37440,note_on,,16,0,10,,,,,,,,,,,,,,,5,,,54,76
37440,note_on,,0,0,10,,,,,,,,,,,,,,,5,,,71,76
37440,note_on,,13,0,6,,,,,,,,,,,,,,,1,,,74,76
37440,note_on,,16,0,9,,,,,,,,,,,,,,,4,,,54,76
37487,note_on,,47,0,6,,,,,,,,,,,,,,,1,,,74,0
37500,note_on,,13,0,6,,,,,,,,,,,,,,,1,,,71,76
37529,note_on,,89,0,9,,,,,,,,,,,,,,,4,,,54,0
37544,note_on,,0,0,10,,,,,,,,,,,,,,,5,,,66,0
37544,note_on,,0,0,10,,,,,,,,,,,,,,,5,,,74,0
37544,note_on,,104,0,10,,,,,,,,,,,,,,,5,,,54,0
37544,note_on,,0,0,10,,,,,,,,,,,,,,,5,,,71,0
37544,note_on,,104,0,5,,,,,,,,,,,,,,,0,,,78,0
37547,note_on,,47,0,6,,,,,,,,,,,,,,,1,,,71,0
37560,note_on,,0,0,10,,,,,,,,,,,,,,,5,,,59,76
37560,note_on,,121,0,8,,,,,,,,,,,,,,,3,,,66,76
37560,note_on,,31,0,9,,,,,,,,,,,,,,,4,,,59,76
37560,note_on,,13,0,6,,,,,,,,,,,,,,,1,,,74,76
37560,note_on,,0,0,10,,,,,,,,,,,,,,,5,,,74,76
37560,note_on,,0,0,10,,,,,,,,,,,,,,,5,,,78,76
37560,note_on,,16,0,10,,,,,,,,,,,,,,,5,,,71,76
37560,note_on,,16,0,5,,,,,,,,,,,,,,,0,,,74,76
37560,note_on,,136,0,7,,,,,,,,,,,,,,,2,,,71,76
37604,note_on,,0,0,10,,,,,,,,,,,,,,,5,,,74,0
37604,note_on,,0,0,10,,,,,,,,,,,,,,,5,,,59,0
37604,note_on,,0,0,10,,,,,,,,,,,,,,,5,,,78,0
37604,note_on,,44,0,10,,,,,,,,,,,,,,,5,,,71,0
37604,note_on,,44,0,9,,,,,,,,,,,,,,,4,,,59,0
37607,note_on,,47,0,8,,,,,,,,,,,,,,,3,,,66,0
37607,note_on,,47,0,7,,,,,,,,,,,,,,,2,,,71,0
37607,note_on,,47,0,6,,,,,,,,,,,,,,,1,,,74,0
37607,note_on,,47,0,5,,,,,,,,,,,,,,,0,,,74,0
37620,note_on,,0,0,10,,,,,,,,,,,,,,,5,,,71,76
37620,note_on,,0,0,10,,,,,,,,,,,,,,,5,,,66,76
37620,note_on,,0,0,10,,,,,,,,,,,,,,,5,,,74,76
37620,note_on,,13,0,5,,,,,,,,,,,,,,,0,,,78,76
37620,note_on,,16,0,9,,,,,,,,,,,,,,,4,,,54,76
37620,note_on,,13,0,8,,,,,,,,,,,,,,,3,,,71,76
37620,note_on,,13,0,6,,,,,,,,,,,,,,,1,,,78,76
37620,note_on,,13,0,7,,,,,,,,,,,,,,,2,,,74,76
37620,note_on,,16,0,10,,,,,,,,,,,,,,,5,,,54,76
37664,note_on,,0,0,10,,,,,,,,,,,,,,,5,,,66,0
37664,note_on,,44,0,10,,,,,,,,,,,,,,,5,,,54,0
37664,note_on,,0,0,10,,,,,,,,,,,,,,,5,,,74,0
37664,note_on,,0,0,10,,,,,,,,,,,,,,,5,,,71,0
37664,note_on,,44,0,9,,,,,,,,,,,,,,,4,,,54,0
37667,note_on,,47,0,7,,,,,,,,,,,,,,,2,,,74,0
37667,note_on,,47,0,5,,,,,,,,,,,,,,,0,,,78,0
37667,note_on,,47,0,8,,,,,,,,,,,,,,,3,,,71,0
37667,note_on,,47,0,6,,,,,,,,,,,,,,,1,,,78,0
37680,note_on,,13,0,6,,,,,,,,,,,,,,,1,,,83,76
37680,note_on,,13,0,8,,,,,,,,,,,,,,,3,,,74,76
37680,set_tempo,,37440,1,0,,,,,,,,535714,,,,,,,,,,,
37680,note_on,,13,0,7,,,,,,,,,,,,,,,2,,,78,76
37680,note_on,,16,0,10,,,,,,,,,,,,,,,5,,,71,76
37680,note_on,,0,0,10,,,,,,,,,,,,,,,5,,,62,76
37680,note_on,,0,0,10,,,,,,,,,,,,,,,5,,,50,76
37680,note_on,,0,0,10,,,,,,,,,,,,,,,5,,,66,76
37680,note_on,,16,0,9,,,,,,,,,,,,,,,4,,,50,76
37680,note_on,,13,0,5,,,,,,,,,,,,,,,0,,,83,76
37720,set_tempo,,40,1,0,,,,,,,,545454,,,,,,,,,,,
37760,set_tempo,,40,1,0,,,,,,,,560747,,,,,,,,,,,
37769,note_on,,89,0,9,,,,,,,,,,,,,,,4,,,50,0
37784,note_on,,0,0,10,,,,,,,,,,,,,,,5,,,66,0
37784,note_on,,104,0,7,,,,,,,,,,,,,,,2,,,78,0
37784,note_on,,0,0,10,,,,,,,,,,,,,,,5,,,62,0
37784,note_on,,104,0,10,,,,,,,,,,,,,,,5,,,71,0
37784,note_on,,104,0,6,,,,,,,,,,,,,,,1,,,83,0
37784,note_on,,104,0,5,,,,,,,,,,,,,,,0,,,83,0
37784,note_on,,104,0,8,,,,,,,,,,,,,,,3,,,74,0
37784,note_on,,0,0,10,,,,,,,,,,,,,,,5,,,50,0
37800,set_tempo,,40,1,0,,,,,,,,571428,,,,,,,,,,,
37800,note_on,,16,0,5,,,,,,,,,,,,,,,0,,,78,76
37800,note_on,,16,0,10,,,,,,,,,,,,,,,5,,,62,76
37800,note_on,,0,0,10,,,,,,,,,,,,,,,5,,,66,76
37800,note_on,,0,0,10,,,,,,,,,,,,,,,5,,,47,76
37800,note_on,,16,0,6,,,,,,,,,,,,,,,1,,,78,76
37800,note_on,,16,0,8,,,,,,,,,,,,,,,3,,,62,76
37800,note_on,,0,0,10,,,,,,,,,,,,,,,5,,,59,76
37800,note_on,,31,0,9,,,,,,,,,,,,,,,4,,,47,76
37800,note_on,,16,0,7,,,,,,,,,,,,,,,2,,,71,76
37840,set_tempo,,40,1,0,,,,,,,,588235,,,,,,,,,,,
37844,note_on,,44,0,10,,,,,,,,,,,,,,,5,,,62,0
37844,note_on,,0,0,10,,,,,,,,,,,,,,,5,,,66,0
37844,note_on,,0,0,10,,,,,,,,,,,,,,,5,,,47,0
37844,note_on,,0,0,10,,,,,,,,,,,,,,,5,,,59,0
37844,note_on,,44,0,9,,,,,,,,,,,,,,,4,,,47,0
37860,note_on,,16,0,9,,,,,,,,,,,,,,,4,,,50,76
37860,note_on,,0,0,10,,,,,,,,,,,,,,,5,,,50,76
37860,note_on,,0,0,10,,,,,,,,,,,,,,,5,,,71,76
37860,note_on,,16,0,10,,,,,,,,,,,,,,,5,,,66,76
37860,note_on,,0,0,10,,,,,,,,,,,,,,,5,,,62,76
37880,set_tempo,,40,1,0,,,,,,,,600000,,,,,,,,,,,
37904,note_on,,104,0,7,,,,,,,,,,,,,,,2,,,71,0
37904,note_on,,0,0,10,,,,,,,,,,,,,,,5,,,50,0
37904,note_on,,104,0,5,,,,,,,,,,,,,,,0,,,78,0
37904,note_on,,44,0,9,,,,,,,,,,,,,,,4,,,50,0
37904,note_on,,104,0,6,,,,,,,,,,,,,,,1,,,78,0
37904,note_on,,104,0,8,,,,,,,,,,,,,,,3,,,62,0
37904,note_on,,44,0,10,,,,,,,,,,,,,,,5,,,66,0
37904,note_on,,0,0,10,,,,,,,,,,,,,,,5,,,62,0
37904,note_on,,0,0,10,,,,,,,,,,,,,,,5,,,71,0
37920,note_on,,16,0,7,,,,,,,,,,,,,,,2,,,71,76
37920,note_on,,16,0,6,,,,,,,,,,,,,,,1,,,76,76
37920,note_on,,16,0,5,,,,,,,,,,,,,,,0,,,76,76
37920,note_on,,0,0,10,,,,,,,,,,,,,,,5,,,71,76
37920,note_on,,16,0,8,,,,,,,,,,,,,,,3,,,61,76
37920,note_on,,16,0,10,,,,,,,,,,,,,,,5,,,73,76
37920,note_on,,0,0,10,,,,,,,,,,,,,,,5,,,54,76
37920,set_tempo,,40,1,0,,,,,,,,612244,,,,,,,,,,,
37920,note_on,,0,0,10,,,,,,,,,,,,,,,5,,,66,76
37920,note_on,,16,0,9,,,,,,,,,,,,,,,4,,,54,76
37960,set_tempo,,40,1,0,,,,,,,,631578,,,,,,,,,,,
37967,note_on,,47,0,5,,,,,,,,,,,,,,,0,,,76,0
37967,note_on,,47,0,6,,,,,,,,,,,,,,,1,,,76,0
37980,note_on,,13,0,6,,,,,,,,,,,,,,,1,,,74,76
37980,note_on,,13,0,5,,,,,,,,,,,,,,,0,,,74,76
38000,set_tempo,,40,1,0,,,,,,,,645161,,,,,,,,,,,
38009,note_on,,89,0,9,,,,,,,,,,,,,,,4,,,54,0
38024,note_on,,104,0,7,,,,,,,,,,,,,,,2,,,71,0
38024,note_on,,0,0,10,,,,,,,,,,,,,,,5,,,66,0
38024,note_on,,0,0,10,,,,,,,,,,,,,,,5,,,71,0
38024,note_on,,0,0,10,,,,,,,,,,,,,,,5,,,54,0
38024,note_on,,104,0,8,,,,,,,,,,,,,,,3,,,61,0
38024,note_on,,104,0,10,,,,,,,,,,,,,,,5,,,73,0
38027,note_on,,47,0,5,,,,,,,,,,,,,,,0,,,74,0
38027,note_on,,47,0,6,,,,,,,,,,,,,,,1,,,74,0
38040,note_on,,16,0,10,,,,,,,,,,,,,,,5,,,58,76
38040,note_on,,0,0,10,,,,,,,,,,,,,,,5,,,42,76
38040,note_on,,16,0,8,,,,,,,,,,,,,,,3,,,66,76
38040,note_on,,16,0,7,,,,,,,,,,,,,,,2,,,70,76
38040,note_on,,13,0,6,,,,,,,,,,,,,,,1,,,73,76
38040,set_tempo,,40,1,0,,,,,,,,666666,,,,,,,,,,,
38040,note_on,,31,0,9,,,,,,,,,,,,,,,4,,,42,76
38040,note_on,,0,0,10,,,,,,,,,,,,,,,5,,,61,76
38040,note_on,,0,0,10,,,,,,,,,,,,,,,5,,,54,76
38040,note_on,,13,0,5,,,,,,,,,,,,,,,0,,,73,76
38080,set_tempo,,40,1,0,,,,,,,,681818,,,,,,,,,,,
38087,note_on,,47,0,6,,,,,,,,,,,,,,,1,,,73,0
38087,note_on,,47,0,5,,,,,,,,,,,,,,,0,,,73,0
38100,note_on,,13,0,5,,,,,,,,,,,,,,,0,,,74,76
38100,note_on,,13,0,6,,,,,,,,,,,,,,,1,,,74,76
38120,set_tempo,,40,1,0,,,,,,,,705882,,,,,,,,,,,
38129,note_on,,89,0,9,,,,,,,,,,,,,,,4,,,42,0
38129,note_on,,29,0,5,,,,,,,,,,,,,,,0,,,74,0
38140,note_on,,11,0,5,,,,,,,,,,,,,,,0,,,73,76
38144,note_on,,104,0,8,,,,,,,,,,,,,,,3,,,66,0
38144,note_on,,0,0,10,,,,,,,,,,,,,,,5,,,61,0
38144,note_on,,0,0,10,,,,,,,,,,,,,,,5,,,54,0
38144,note_on,,0,0,10,,,,,,,,,,,,,,,5,,,42,0
38144,note_on,,104,0,10,,,,,,,,,,,,,,,5,,,58,0
38144,note_on,,104,0,7,,,,,,,,,,,,,,,2,,,70,0
38147,note_on,,47,0,6,,,,,,,,,,,,,,,1,,,74,0
38159,note_on,,19,0,5,,,,,,,,,,,,,,,0,,,73,0
38160,note_on,,0,0,10,,,,,,,,,,,,,,,5,,,66,76
38160,note_on,,16,0,10,,,,,,,,,,,,,,,5,,,59,76
38160,note_on,,0,0,10,,,,,,,,,,,,,,,5,,,47,76
38160,note_on,,0,0,10,,,,,,,,,,,,,,,5,,,62,76
38160,note_on,,31,0,9,,,,,,,,,,,,,,,4,,,47,76
38160,note_on,,16,0,8,,,,,,,,,,,,,,,3,,,62,76
38160,note_on,,16,0,7,,,,,,,,,,,,,,,2,,,66,76
38160,set_tempo,,40,1,0,,,,,,,,722891,,,,,,,,,,,
38160,note_on,,13,0,6,,,,,,,,,,,,,,,1,,,71,76
38160,note_on,,1,0,5,,,,,,,,,,,,,,,0,,,71,76
38399,end_of_track,,0,1,8,,,,,,,,,,,,,,,,,,,
38399,end_of_track,,0,1,9,,,,,,,,,,,,,,,,,,,
38399,end_of_track,,0,1,10,,,,,,,,,,,,,,,,,,,
38399,note_on,,0,0,10,,,,,,,,,,,,,,,5,,,62,0
38399,note_on,,0,0,10,,,,,,,,,,,,,,,5,,,47,0
38399,note_on,,0,0,10,,,,,,,,,,,,,,,5,,,66,0
38399,note_on,,239,0,10,,,,,,,,,,,,,,,5,,,59,0
38399,end_of_track,,0,1,7,,,,,,,,,,,,,,,,,,,
38399,note_on,,239,0,7,,,,,,,,,,,,,,,2,,,66,0
38399,note_on,,239,0,5,,,,,,,,,,,,,,,0,,,71,0
38399,end_of_track,,0,1,5,,,,,,,,,,,,,,,,,,,
38399,note_on,,239,0,6,,,,,,,,,,,,,,,1,,,71,0
38399,end_of_track,,0,1,6,,,,,,,,,,,,,,,,,,,
38399,note_on,,239,0,9,,,,,,,,,,,,,,,4,,,47,0
38399,note_on,,239,0,8,,,,,,,,,,,,,,,3,,,62,0
38400,set_tempo,,240,1,0,,,,,,,,1000000,,,,,,,,,,,
38640,set_tempo,,240,1,0,,,,,,,,1000000,,,,,,,,,,,
38640,end_of_track,,0,1,0,,,,,,,,,,,,,,,,,,,
