tick,type,numerator,denominator,clocks_per_click,notated_32nd_notes_per_beat,time,meta,track,tempo,control,value,channel,program,note,velocity
0,time_signature,3,4,96,8,0,1,0,,,,,,,
0,time_signature,3,4,96,8,0,1,9,,,,,,,
0,set_tempo,,,,,0,1,9,1000000,,,,,,
0,control_change,,,,,0,0,5,,0,0,4,,,
0,track_name,,,,,0,1,10,,,,,,,
0,control_change,,,,,0,0,10,,0,0,11,,,
0,program_change,,,,,0,0,10,,,,11,42,,
0,time_signature,3,4,96,8,0,1,10,,,,,,,
0,set_tempo,,,,,0,1,10,1000000,,,,,,
0,set_tempo,,,,,0,1,3,1000000,,,,,,
0,time_signature,3,4,96,8,0,1,3,,,,,,,
0,program_change,,,,,0,0,3,,,,2,68,,
0,control_change,,,,,0,0,3,,0,0,2,,,
0,program_change,,,,,0,0,9,,,,8,40,,
0,track_name,,,,,0,1,3,,,,,,,
0,control_change,,,,,0,0,11,,0,0,12,,,
0,program_change,,,,,0,0,11,,,,12,43,,
0,time_signature,3,4,96,8,0,1,11,,,,,,,
0,set_tempo,,,,,0,1,11,1000000,,,,,,
0,track_name,,,,,0,1,12,,,,,,,
0,control_change,,,,,0,0,12,,0,0,13,,,
0,program_change,,,,,0,0,12,,,,13,6,,
0,time_signature,3,4,96,8,0,1,12,,,,,,,
0,set_tempo,,,,,0,1,12,1000000,,,,,,
0,set_tempo,,,,,0,1,2,1000000,,,,,,
0,time_signature,3,4,96,8,0,1,2,,,,,,,
0,program_change,,,,,0,0,2,,,,1,60,,
0,track_name,,,,,0,1,11,,,,,,,
0,control_change,,,,,0,0,9,,0,0,8,,,
0,track_name,,,,,0,1,9,,,,,,,
0,track_name,,,,,0,1,13,,,,,,,
0,program_change,,,,,0,0,5,,,,4,68,,
0,time_signature,3,4,96,8,0,1,5,,,,,,,
0,set_tempo,,,,,0,1,5,1000000,,,,,,
0,track_name,,,,,0,1,6,,,,,,,
0,control_change,,,,,0,0,6,,0,0,5,,,
0,program_change,,,,,0,0,6,,,,5,70,,
0,time_signature,3,4,96,8,0,1,6,,,,,,,
0,set_tempo,,,,,0,1,6,1000000,,,,,,
0,track_name,,,,,0,1,7,,,,,,,
0,control_change,,,,,0,0,7,,0,0,6,,,
0,program_change,,,,,0,0,7,,,,6,40,,
0,time_signature,3,4,96,8,0,1,7,,,,,,,
0,set_tempo,,,,,0,1,7,1000000,,,,,,
0,set_tempo,,,,,0,1,4,1000000,,,,,,
0,time_signature,3,4,96,8,0,1,4,,,,,,,
0,program_change,,,,,0,0,4,,,,3,68,,
0,control_change,,,,,0,0,4,,0,0,3,,,
0,track_name,,,,,0,1,4,,,,,,,
0,track_name,,,,,0,1,8,,,,,,,
0,control_change,,,,,0,0,8,,0,0,7,,,
0,program_change,,,,,0,0,8,,,,7,40,,
0,time_signature,3,4,96,8,0,1,8,,,,,,,
0,set_tempo,,,,,0,1,8,1000000,,,,,,
0,set_tempo,,,,,0,1,13,1000000,,,,,,
0,time_signature,3,4,96,8,0,1,13,,,,,,,
0,program_change,,,,,0,0,13,,,,14,41,,
0,control_change,,,,,0,0,13,,0,0,14,,,
0,control_change,,,,,0,0,2,,0,0,1,,,
0,track_name,,,,,0,1,2,,,,,,,
0,track_name,,,,,0,1,5,,,,,,,
0,control_change,,,,,0,0,1,,0,0,0,,,
0,time_signature,3,4,96,8,0,1,1,,,,,,,
0,set_tempo,,,,,0,1,1,1000000,,,,,,
0,track_name,,,,,0,1,1,,,,,,,
0,program_change,,,,,0,0,1,,,,0,60,,
0,set_tempo,,,,,0,1,0,1000000,,,,,,
96,note_on,,,,,0,0,12,,,,13,,65,96
96,set_tempo,,,,,96,1,12,428571,,,,,,
96,note_on,,,,,0,0,11,,,,12,,45,49
96,set_tempo,,,,,96,1,11,428571,,,,,,
96,set_tempo,,,,,96,1,3,428571,,,,,,
96,note_on,,,,,0,0,3,,,,2,,72,62
96,set_tempo,,,,,96,1,0,428571,,,,,,
96,set_tempo,,,,,96,1,5,428571,,,,,,
96,note_on,,,,,0,0,5,,,,4,,65,62
96,set_tempo,,,,,96,1,9,428571,,,,,,
96,set_tempo,,,,,96,1,4,428571,,,,,,
96,note_on,,,,,0,0,12,,,,13,,72,96
96,note_on,,,,,0,0,1,,,,0,,53,127
96,note_on,,,,,0,0,8,,,,7,,72,75
96,set_tempo,,,,,96,1,8,428571,,,,,,
96,note_on,,,,,0,0,10,,,,11,,57,49
96,set_tempo,,,,,96,1,10,428571,,,,,,
96,note_on,,,,,0,0,6,,,,5,,57,49
96,set_tempo,,,,,96,1,6,428571,,,,,,
96,note_on,,,,,0,0,13,,,,14,,65,75
96,set_tempo,,,,,96,1,13,428571,,,,,,
96,note_on,,,,,0,0,4,,,,3,,69,62
96,note_on,,,,,0,0,12,,,,13,,57,96
96,note_on,,,,,0,0,9,,,,8,,69,75
96,set_tempo,,,,,96,1,2,428571,,,,,,
96,note_on,,,,,0,0,7,,,,6,,72,75
96,set_tempo,,,,,96,1,7,428571,,,,,,
96,set_tempo,,,,,96,1,1,428571,,,,,,
180,note_off,,,,,84,0,8,,,,7,,72,0
180,note_off,,,,,84,0,1,,,,0,,53,0
180,note_off,,,,,84,0,4,,,,3,,69,0
180,note_off,,,,,84,0,7,,,,6,,72,0
180,note_off,,,,,84,0,9,,,,8,,69,0
180,note_off,,,,,0,0,12,,,,13,,72,0
180,note_off,,,,,84,0,3,,,,2,,72,0
180,note_off,,,,,84,0,12,,,,13,,65,0
192,note_on,,,,,12,0,1,,,,0,,53,127
192,note_on,,,,,12,0,3,,,,2,,75,62
192,note_on,,,,,0,0,12,,,,13,,72,96
192,note_on,,,,,12,0,4,,,,3,,72,62
192,note_on,,,,,12,0,9,,,,8,,72,75
192,note_on,,,,,12,0,8,,,,7,,75,75
192,note_on,,,,,12,0,12,,,,13,,63,96
192,note_on,,,,,12,0,7,,,,6,,75,75
234,note_off,,,,,42,0,1,,,,0,,53,0
240,note_on,,,,,6,0,1,,,,0,,53,127
276,note_off,,,,,180,0,5,,,,4,,65,0
276,note_off,,,,,180,0,13,,,,14,,65,0
276,note_off,,,,,84,0,3,,,,2,,75,0
276,note_off,,,,,84,0,4,,,,3,,72,0
276,note_off,,,,,84,0,8,,,,7,,75,0
276,note_off,,,,,84,0,9,,,,8,,72,0
276,note_off,,,,,180,0,11,,,,12,,45,0
276,note_off,,,,,180,0,10,,,,11,,57,0
276,note_off,,,,,84,0,7,,,,6,,75,0
276,note_off,,,,,180,0,6,,,,5,,57,0
276,note_off,,,,,84,0,12,,,,13,,57,0
276,note_off,,,,,0,0,12,,,,13,,63,0
276,note_off,,,,,0,0,12,,,,13,,72,0
282,note_off,,,,,42,0,1,,,,0,,53,0
288,note_on,,,,,6,0,1,,,,0,,53,127
288,note_on,,,,,12,0,10,,,,11,,58,49
288,note_on,,,,,12,0,7,,,,6,,74,75
288,note_on,,,,,12,0,4,,,,3,,70,62
288,note_on,,,,,12,0,6,,,,5,,58,49
288,note_on,,,,,0,0,12,,,,13,,58,96
288,note_on,,,,,0,0,12,,,,13,,74,96
288,note_on,,,,,12,0,13,,,,14,,65,75
288,note_on,,,,,12,0,3,,,,2,,74,62
288,note_on,,,,,12,0,12,,,,13,,65,96
288,note_on,,,,,12,0,9,,,,8,,70,75
288,note_on,,,,,12,0,5,,,,4,,65,62
288,note_on,,,,,12,0,8,,,,7,,74,75
288,note_on,,,,,12,0,11,,,,12,,46,49
330,note_off,,,,,42,0,1,,,,0,,53,0
336,note_on,,,,,6,0,1,,,,0,,53,127
372,note_off,,,,,84,0,8,,,,7,,74,0
372,note_off,,,,,84,0,9,,,,8,,70,0
372,note_off,,,,,84,0,3,,,,2,,74,0
372,note_off,,,,,84,0,6,,,,5,,58,0
372,note_off,,,,,0,0,12,,,,13,,58,0
372,note_off,,,,,0,0,12,,,,13,,74,0
372,note_off,,,,,84,0,12,,,,13,,65,0
372,note_off,,,,,84,0,10,,,,11,,58,0
372,note_off,,,,,84,0,11,,,,12,,46,0
372,note_off,,,,,84,0,7,,,,6,,74,0
372,note_off,,,,,84,0,4,,,,3,,70,0
372,note_off,,,,,84,0,13,,,,14,,65,0
372,note_off,,,,,84,0,5,,,,4,,65,0
378,note_off,,,,,42,0,1,,,,0,,53,0
384,note_on,,,,,12,0,7,,,,6,,72,75
384,note_on,,,,,12,0,6,,,,5,,60,49
384,note_on,,,,,12,0,11,,,,12,,48,49
384,note_on,,,,,6,0,1,,,,0,,53,127
384,note_on,,,,,12,0,4,,,,3,,69,62
384,note_on,,,,,0,0,12,,,,13,,75,96
384,note_on,,,,,288,0,2,,,,1,,53,127
384,note_on,,,,,12,0,10,,,,11,,60,49
384,note_on,,,,,12,0,3,,,,2,,72,62
384,note_on,,,,,0,0,12,,,,13,,60,96
384,note_on,,,,,12,0,13,,,,14,,65,75
384,note_on,,,,,12,0,8,,,,7,,72,75
384,note_on,,,,,12,0,5,,,,4,,63,62
384,note_on,,,,,12,0,9,,,,8,,69,75
384,note_on,,,,,12,0,12,,,,13,,69,96
394,note_off,,,,,10,0,13,,,,14,,65,0
396,note_on,,,,,2,0,13,,,,14,,63,75
406,note_off,,,,,10,0,13,,,,14,,63,0
408,note_on,,,,,2,0,13,,,,14,,65,75
418,note_off,,,,,10,0,13,,,,14,,65,0
420,note_on,,,,,2,0,13,,,,14,,63,75
430,note_off,,,,,10,0,13,,,,14,,63,0
432,note_on,,,,,2,0,13,,,,14,,65,75
442,note_off,,,,,10,0,13,,,,14,,65,0
444,note_on,,,,,2,0,13,,,,14,,63,75
454,note_off,,,,,10,0,13,,,,14,,63,0
456,note_on,,,,,2,0,13,,,,14,,65,75
466,note_off,,,,,10,0,13,,,,14,,65,0
468,note_off,,,,,84,0,1,,,,0,,53,0
468,note_off,,,,,84,0,9,,,,8,,69,0
468,note_off,,,,,84,0,7,,,,6,,72,0
468,note_off,,,,,84,0,3,,,,2,,72,0
468,note_off,,,,,84,0,6,,,,5,,60,0
468,note_off,,,,,84,0,11,,,,12,,48,0
468,note_off,,,,,84,0,10,,,,11,,60,0
468,note_off,,,,,84,0,12,,,,13,,69,0
468,note_off,,,,,0,0,12,,,,13,,75,0
468,note_off,,,,,84,0,2,,,,1,,53,0
468,note_off,,,,,84,0,4,,,,3,,69,0
468,note_off,,,,,84,0,8,,,,7,,72,0
468,note_off,,,,,0,0,12,,,,13,,60,0
468,note_off,,,,,84,0,5,,,,4,,63,0
468,note_on,,,,,2,0,13,,,,14,,63,75
478,note_off,,,,,10,0,13,,,,14,,63,0
480,note_on,,,,,12,0,9,,,,8,,65,75
480,note_on,,,,,12,0,12,,,,13,,70,96
480,note_on,,,,,12,0,3,,,,2,,70,62
480,note_on,,,,,12,0,4,,,,3,,65,62
480,note_on,,,,,12,0,2,,,,1,,53,127
480,note_on,,,,,12,0,10,,,,11,,63,49
480,note_on,,,,,12,0,6,,,,5,,63,49
480,note_on,,,,,12,0,11,,,,12,,51,49
480,note_on,,,,,0,0,12,,,,13,,75,96
480,note_on,,,,,0,0,12,,,,13,,63,96
480,note_on,,,,,12,0,7,,,,6,,70,75
480,note_on,,,,,12,0,8,,,,7,,70,75
480,note_on,,,,,12,0,5,,,,4,,62,62
480,note_on,,,,,2,0,13,,,,14,,62,75
522,note_off,,,,,42,0,8,,,,7,,70,0
522,note_off,,,,,42,0,2,,,,1,,53,0
522,note_off,,,,,42,0,5,,,,4,,62,0
522,note_off,,,,,42,0,13,,,,14,,62,0
522,note_off,,,,,42,0,7,,,,6,,70,0
522,note_off,,,,,42,0,3,,,,2,,70,0
528,note_on,,,,,6,0,2,,,,1,,53,127
528,note_on,,,,,6,0,13,,,,14,,60,75
528,note_on,,,,,6,0,7,,,,6,,69,75
528,note_on,,,,,6,0,3,,,,2,,69,62
528,note_on,,,,,6,0,5,,,,4,,60,62
528,note_on,,,,,6,0,8,,,,7,,69,75
564,note_off,,,,,84,0,12,,,,13,,70,0
564,note_off,,,,,0,0,12,,,,13,,75,0
564,note_off,,,,,84,0,10,,,,11,,63,0
564,note_off,,,,,84,0,11,,,,12,,51,0
564,note_off,,,,,0,0,12,,,,13,,63,0
564,note_off,,,,,84,0,4,,,,3,,65,0
564,note_off,,,,,84,0,6,,,,5,,63,0
564,note_off,,,,,84,0,9,,,,8,,65,0
570,note_off,,,,,42,0,2,,,,1,,53,0
570,note_off,,,,,42,0,13,,,,14,,60,0
570,note_off,,,,,42,0,5,,,,4,,60,0
570,note_off,,,,,42,0,3,,,,2,,69,0
570,note_off,,,,,42,0,8,,,,7,,69,0
570,note_off,,,,,42,0,7,,,,6,,69,0
576,note_on,,,,,12,0,9,,,,8,,65,75
576,note_on,,,,,0,0,12,,,,13,,62,96
576,note_on,,,,,12,0,10,,,,11,,62,49
576,note_on,,,,,6,0,2,,,,1,,53,127
576,note_on,,,,,6,0,3,,,,2,,70,62
576,note_on,,,,,0,0,12,,,,13,,70,96
576,note_on,,,,,12,0,12,,,,13,,62,96
576,note_on,,,,,12,0,4,,,,3,,65,62
576,note_on,,,,,12,0,11,,,,12,,50,49
576,note_on,,,,,6,0,5,,,,4,,62,62
576,note_on,,,,,6,0,13,,,,14,,62,75
576,note_on,,,,,6,0,7,,,,6,,70,75
576,note_on,,,,,6,0,8,,,,7,,70,75
576,note_on,,,,,12,0,6,,,,5,,62,49
618,note_off,,,,,42,0,2,,,,1,,53,0
624,note_on,,,,,6,0,2,,,,1,,53,127
660,note_off,,,,,84,0,5,,,,4,,62,0
660,note_off,,,,,0,0,12,,,,13,,62,0
660,note_off,,,,,0,0,12,,,,13,,70,0
660,note_off,,,,,84,0,12,,,,13,,62,0
660,note_off,,,,,84,0,11,,,,12,,50,0
660,note_off,,,,,84,0,10,,,,11,,62,0
660,note_off,,,,,84,0,8,,,,7,,70,0
660,note_off,,,,,84,0,3,,,,2,,70,0
660,note_off,,,,,84,0,4,,,,3,,65,0
660,note_off,,,,,84,0,7,,,,6,,70,0
660,note_off,,,,,84,0,9,,,,8,,65,0
660,note_off,,,,,84,0,13,,,,14,,62,0
660,note_off,,,,,84,0,6,,,,5,,62,0
666,note_off,,,,,42,0,2,,,,1,,53,0
672,note_on,,,,,12,0,10,,,,11,,60,49
672,note_on,,,,,12,0,3,,,,2,,72,62
672,note_on,,,,,12,0,11,,,,12,,48,49
672,note_on,,,,,12,0,9,,,,8,,69,75
672,note_on,,,,,12,0,4,,,,3,,69,62
672,note_on,,,,,12,0,8,,,,7,,72,75
672,note_on,,,,,12,0,7,,,,6,,72,75
672,note_on,,,,,12,0,6,,,,5,,60,49
672,note_on,,,,,12,0,13,,,,14,,63,75
672,note_on,,,,,0,0,12,,,,13,,60,96
672,note_on,,,,,12,0,12,,,,13,,69,96
672,note_on,,,,,12,0,5,,,,4,,63,62
672,note_on,,,,,0,0,12,,,,13,,75,96
672,note_on,,,,,204,0,1,,,,0,,53,127
672,note_on,,,,,6,0,2,,,,1,,53,127
756,note_off,,,,,84,0,8,,,,7,,72,0
756,note_off,,,,,84,0,6,,,,5,,60,0
756,note_off,,,,,84,0,13,,,,14,,63,0
756,note_off,,,,,84,0,11,,,,12,,48,0
756,note_off,,,,,84,0,3,,,,2,,72,0
756,note_off,,,,,0,0,12,,,,13,,60,0
756,note_off,,,,,84,0,7,,,,6,,72,0
756,note_off,,,,,84,0,5,,,,4,,63,0
756,note_off,,,,,84,0,1,,,,0,,53,0
756,note_off,,,,,0,0,12,,,,13,,75,0
756,note_off,,,,,84,0,10,,,,11,,60,0
756,note_off,,,,,84,0,12,,,,13,,69,0
756,note_off,,,,,84,0,4,,,,3,,69,0
756,note_off,,,,,84,0,9,,,,8,,69,0
756,note_off,,,,,84,0,2,,,,1,,53,0
768,note_on,,,,,12,0,7,,,,6,,75,75
768,note_on,,,,,12,0,8,,,,7,,75,75
768,note_on,,,,,12,0,11,,,,12,,46,49
768,note_on,,,,,12,0,6,,,,5,,58,49
768,note_on,,,,,12,0,9,,,,8,,72,75
768,note_on,,,,,12,0,13,,,,14,,60,75
768,note_on,,,,,12,0,5,,,,4,,60,62
768,note_on,,,,,12,0,3,,,,2,,75,62
768,note_on,,,,,0,0,12,,,,13,,58,96
768,note_on,,,,,0,0,12,,,,13,,72,96
768,note_on,,,,,12,0,1,,,,0,,53,127
768,note_on,,,,,12,0,4,,,,3,,72,62
768,note_on,,,,,12,0,10,,,,11,,58,49
768,note_on,,,,,12,0,12,,,,13,,63,96
810,note_off,,,,,42,0,1,,,,0,,53,0
810,note_off,,,,,42,0,11,,,,12,,46,0
810,note_off,,,,,42,0,12,,,,13,,58,0
810,note_off,,,,,42,0,10,,,,11,,58,0
810,note_off,,,,,42,0,6,,,,5,,58,0
816,note_on,,,,,6,0,1,,,,0,,53,127
816,note_on,,,,,6,0,10,,,,11,,57,49
816,note_on,,,,,6,0,6,,,,5,,57,49
816,note_on,,,,,6,0,12,,,,13,,57,96
816,note_on,,,,,6,0,11,,,,12,,45,49
852,note_off,,,,,84,0,4,,,,3,,72,0
852,note_off,,,,,84,0,7,,,,6,,75,0
852,note_off,,,,,84,0,8,,,,7,,75,0
852,note_off,,,,,0,0,12,,,,13,,72,0
852,note_off,,,,,84,0,5,,,,4,,60,0
852,note_off,,,,,84,0,3,,,,2,,75,0
852,note_off,,,,,84,0,9,,,,8,,72,0
852,note_off,,,,,84,0,13,,,,14,,60,0
852,note_off,,,,,36,0,12,,,,13,,63,0
858,note_off,,,,,42,0,11,,,,12,,45,0
858,note_off,,,,,6,0,12,,,,13,,57,0
858,note_off,,,,,42,0,10,,,,11,,57,0
858,note_off,,,,,42,0,1,,,,0,,53,0
858,note_off,,,,,42,0,6,,,,5,,57,0
864,note_on,,,,,12,0,7,,,,6,,74,75
864,note_on,,,,,12,0,3,,,,2,,74,62
864,note_on,,,,,12,0,5,,,,4,,65,62
864,note_on,,,,,12,0,4,,,,3,,70,62
864,note_on,,,,,6,0,1,,,,0,,53,127
864,note_on,,,,,12,0,13,,,,14,,65,75
864,note_on,,,,,6,0,6,,,,5,,58,49
864,note_on,,,,,12,0,8,,,,7,,74,75
864,note_on,,,,,0,0,12,,,,13,,58,96
864,note_on,,,,,0,0,12,,,,13,,74,96
864,note_on,,,,,6,0,12,,,,13,,65,96
864,note_on,,,,,12,0,9,,,,8,,70,75
864,note_on,,,,,6,0,10,,,,11,,58,49
864,note_on,,,,,6,0,11,,,,12,,46,49
906,note_off,,,,,42,0,1,,,,0,,53,0
912,note_on,,,,,6,0,1,,,,0,,53,127
948,note_off,,,,,84,0,12,,,,13,,65,0
948,note_off,,,,,84,0,5,,,,4,,65,0
948,note_off,,,,,84,0,9,,,,8,,70,0
948,note_off,,,,,84,0,11,,,,12,,46,0
948,note_off,,,,,0,0,12,,,,13,,74,0
948,note_off,,,,,84,0,13,,,,14,,65,0
948,note_off,,,,,84,0,7,,,,6,,74,0
948,note_off,,,,,84,0,10,,,,11,,58,0
948,note_off,,,,,84,0,4,,,,3,,70,0
948,note_off,,,,,84,0,3,,,,2,,74,0
948,note_off,,,,,84,0,6,,,,5,,58,0
948,note_off,,,,,84,0,8,,,,7,,74,0
948,note_off,,,,,0,0,12,,,,13,,58,0
954,note_off,,,,,42,0,1,,,,0,,53,0
960,note_on,,,,,0,0,12,,,,13,,57,96
960,note_on,,,,,0,0,12,,,,13,,72,96
960,note_on,,,,,204,0,2,,,,1,,53,127
960,note_on,,,,,12,0,5,,,,4,,65,62
960,note_on,,,,,12,0,4,,,,3,,72,62
960,note_on,,,,,12,0,8,,,,7,,74,75
960,note_on,,,,,12,0,11,,,,12,,45,49
960,note_on,,,,,12,0,12,,,,13,,65,96
960,note_on,,,,,12,0,7,,,,6,,74,75
960,note_on,,,,,12,0,3,,,,2,,74,62
960,note_on,,,,,12,0,9,,,,8,,72,75
960,note_on,,,,,12,0,10,,,,11,,57,49
960,note_on,,,,,12,0,13,,,,14,,65,75
960,note_on,,,,,6,0,1,,,,0,,53,127
960,note_on,,,,,12,0,6,,,,5,,57,49
970,note_off,,,,,10,0,7,,,,6,,74,0
970,note_off,,,,,10,0,8,,,,7,,74,0
970,note_off,,,,,10,0,3,,,,2,,74,0
972,note_on,,,,,2,0,7,,,,6,,72,75
972,note_on,,,,,2,0,3,,,,2,,72,62
972,note_on,,,,,2,0,8,,,,7,,72,75
982,note_off,,,,,10,0,8,,,,7,,72,0
982,note_off,,,,,10,0,7,,,,6,,72,0
982,note_off,,,,,10,0,3,,,,2,,72,0
984,note_on,,,,,2,0,8,,,,7,,74,75
984,note_on,,,,,2,0,7,,,,6,,74,75
984,note_on,,,,,2,0,3,,,,2,,74,62
994,note_off,,,,,10,0,8,,,,7,,74,0
994,note_off,,,,,10,0,3,,,,2,,74,0
994,note_off,,,,,10,0,7,,,,6,,74,0
996,note_on,,,,,2,0,8,,,,7,,72,75
996,note_on,,,,,2,0,7,,,,6,,72,75
996,note_on,,,,,2,0,3,,,,2,,72,62
1006,note_off,,,,,10,0,8,,,,7,,72,0
1006,note_off,,,,,10,0,7,,,,6,,72,0
1006,note_off,,,,,10,0,3,,,,2,,72,0
1008,note_on,,,,,2,0,3,,,,2,,74,62
1008,note_on,,,,,2,0,8,,,,7,,74,75
1008,note_on,,,,,2,0,7,,,,6,,74,75
1018,note_off,,,,,10,0,3,,,,2,,74,0
1018,note_off,,,,,10,0,8,,,,7,,74,0
1018,note_off,,,,,10,0,7,,,,6,,74,0
1020,note_on,,,,,2,0,3,,,,2,,72,62
1020,note_on,,,,,2,0,7,,,,6,,72,75
1020,note_on,,,,,2,0,8,,,,7,,72,75
1030,note_off,,,,,10,0,3,,,,2,,72,0
1030,note_off,,,,,10,0,8,,,,7,,72,0
1030,note_off,,,,,10,0,7,,,,6,,72,0
1032,note_on,,,,,2,0,8,,,,7,,74,75
1032,note_on,,,,,2,0,7,,,,6,,74,75
1032,note_on,,,,,2,0,3,,,,2,,74,62
1042,note_off,,,,,10,0,7,,,,6,,74,0
1042,note_off,,,,,10,0,8,,,,7,,74,0
1042,note_off,,,,,10,0,3,,,,2,,74,0
1044,note_off,,,,,84,0,6,,,,5,,57,0
1044,note_off,,,,,84,0,9,,,,8,,72,0
1044,note_off,,,,,84,0,12,,,,13,,65,0
1044,note_off,,,,,0,0,12,,,,13,,72,0
1044,note_off,,,,,0,0,12,,,,13,,57,0
1044,note_off,,,,,84,0,1,,,,0,,53,0
1044,note_off,,,,,84,0,2,,,,1,,53,0
1044,note_on,,,,,2,0,7,,,,6,,72,75
1044,note_on,,,,,2,0,3,,,,2,,72,62
1044,note_off,,,,,84,0,10,,,,11,,57,0
1044,note_off,,,,,84,0,11,,,,12,,45,0
1044,note_off,,,,,84,0,4,,,,3,,72,0
1044,note_on,,,,,2,0,8,,,,7,,72,75
1054,note_off,,,,,10,0,8,,,,7,,72,0
1054,note_off,,,,,10,0,7,,,,6,,72,0
1054,note_off,,,,,10,0,3,,,,2,,72,0
1056,note_on,,,,,2,0,3,,,,2,,74,62
1056,note_on,,,,,0,0,12,,,,13,,58,96
1056,note_on,,,,,0,0,12,,,,13,,70,96
1056,note_on,,,,,12,0,12,,,,13,,65,96
1056,note_on,,,,,12,0,2,,,,1,,53,127
1056,note_on,,,,,2,0,7,,,,6,,74,75
1056,note_on,,,,,12,0,6,,,,5,,58,49
1056,note_on,,,,,2,0,8,,,,7,,74,75
1056,note_on,,,,,12,0,11,,,,12,,46,49
1056,note_on,,,,,12,0,10,,,,11,,58,49
1056,note_on,,,,,12,0,9,,,,8,,70,75
1056,note_on,,,,,12,0,4,,,,3,,70,62
1066,note_off,,,,,10,0,3,,,,2,,74,0
1066,note_off,,,,,10,0,8,,,,7,,74,0
1066,note_off,,,,,10,0,7,,,,6,,74,0
1068,note_on,,,,,2,0,7,,,,6,,72,75
1068,note_on,,,,,2,0,3,,,,2,,72,62
1068,note_on,,,,,2,0,8,,,,7,,72,75
1078,note_off,,,,,10,0,3,,,,2,,72,0
1078,note_off,,,,,10,0,8,,,,7,,72,0
1078,note_off,,,,,10,0,7,,,,6,,72,0
1080,note_on,,,,,2,0,3,,,,2,,74,62
1080,note_on,,,,,2,0,7,,,,6,,74,75
1080,note_on,,,,,2,0,8,,,,7,,74,75
1090,note_off,,,,,10,0,3,,,,2,,74,0
1090,note_off,,,,,10,0,7,,,,6,,74,0
1090,note_off,,,,,10,0,8,,,,7,,74,0
1092,note_on,,,,,2,0,3,,,,2,,72,62
1092,note_on,,,,,2,0,8,,,,7,,72,75
1092,note_on,,,,,2,0,7,,,,6,,72,75
1098,note_off,,,,,42,0,2,,,,1,,53,0
1098,note_off,,,,,42,0,10,,,,11,,58,0
1098,note_off,,,,,42,0,6,,,,5,,58,0
1098,note_off,,,,,42,0,11,,,,12,,46,0
1098,note_off,,,,,42,0,12,,,,13,,58,0
1102,note_off,,,,,10,0,3,,,,2,,72,0
1102,note_off,,,,,10,0,8,,,,7,,72,0
1102,note_off,,,,,10,0,7,,,,6,,72,0
1104,note_on,,,,,2,0,7,,,,6,,74,75
1104,note_on,,,,,6,0,6,,,,5,,57,49
1104,note_on,,,,,2,0,3,,,,2,,74,62
1104,note_on,,,,,6,0,11,,,,12,,45,49
1104,note_on,,,,,6,0,2,,,,1,,53,127
1104,note_on,,,,,6,0,10,,,,11,,57,49
1104,note_on,,,,,2,0,8,,,,7,,74,75
1104,note_on,,,,,6,0,12,,,,13,,57,96
1114,note_off,,,,,10,0,3,,,,2,,74,0
1114,note_off,,,,,10,0,7,,,,6,,74,0
1114,note_off,,,,,10,0,8,,,,7,,74,0
1116,note_on,,,,,2,0,7,,,,6,,72,75
1116,note_on,,,,,2,0,8,,,,7,,72,75
1116,note_on,,,,,2,0,3,,,,2,,72,62
1126,note_off,,,,,10,0,3,,,,2,,72,0
1126,note_off,,,,,10,0,7,,,,6,,72,0
1126,note_off,,,,,10,0,8,,,,7,,72,0
1128,note_on,,,,,2,0,7,,,,6,,74,75
1128,note_on,,,,,2,0,3,,,,2,,74,62
1128,note_on,,,,,2,0,8,,,,7,,74,75
1138,note_off,,,,,10,0,8,,,,7,,74,0
1138,note_off,,,,,10,0,3,,,,2,,74,0
1138,note_off,,,,,10,0,7,,,,6,,74,0
1140,note_off,,,,,180,0,13,,,,14,,65,0
1140,note_off,,,,,84,0,9,,,,8,,70,0
1140,note_on,,,,,2,0,3,,,,2,,72,62
1140,note_off,,,,,84,0,4,,,,3,,70,0
1140,note_off,,,,,180,0,5,,,,4,,65,0
1140,note_on,,,,,2,0,7,,,,6,,72,75
1140,note_on,,,,,2,0,8,,,,7,,72,75
1140,note_off,,,,,36,0,12,,,,13,,65,0
1140,note_off,,,,,0,0,12,,,,13,,70,0
1146,note_off,,,,,42,0,10,,,,11,,57,0
1146,note_off,,,,,42,0,11,,,,12,,45,0
1146,note_off,,,,,6,0,12,,,,13,,57,0
1146,note_off,,,,,42,0,6,,,,5,,57,0
1146,note_off,,,,,42,0,2,,,,1,,53,0
1150,note_off,,,,,10,0,7,,,,6,,72,0
1150,note_off,,,,,10,0,3,,,,2,,72,0
1150,note_off,,,,,10,0,8,,,,7,,72,0
1152,note_on,,,,,2,0,7,,,,6,,77,75
1152,note_on,,,,,6,0,10,,,,11,,55,49
1152,note_on,,,,,12,0,4,,,,3,,69,62
1152,note_on,,,,,6,0,2,,,,1,,53,127
1152,note_on,,,,,6,0,11,,,,12,,43,49
1152,note_on,,,,,12,0,9,,,,8,,69,75
1152,note_on,,,,,12,0,5,,,,4,,60,62
1152,note_on,,,,,2,0,3,,,,2,,77,62
1152,note_on,,,,,12,0,13,,,,14,,60,75
1152,note_on,,,,,2,0,8,,,,7,,77,75
1152,note_on,,,,,6,0,6,,,,5,,55,49
1152,note_on,,,,,6,0,12,,,,13,,60,96
1152,note_on,,,,,0,0,12,,,,13,,69,96
1152,note_on,,,,,0,0,12,,,,13,,55,96
1194,note_off,,,,,42,0,6,,,,5,,55,0
1194,note_off,,,,,42,0,2,,,,1,,53,0
1194,note_off,,,,,42,0,11,,,,12,,43,0
1194,note_off,,,,,42,0,10,,,,11,,55,0
1194,note_off,,,,,42,0,12,,,,13,,55,0
1200,note_on,,,,,6,0,12,,,,13,,53,96
1200,note_on,,,,,6,0,6,,,,5,,53,49
1200,note_on,,,,,6,0,11,,,,12,,41,49
1200,note_on,,,,,6,0,2,,,,1,,53,127
1200,note_on,,,,,6,0,10,,,,11,,53,49
1236,note_off,,,,,84,0,3,,,,2,,77,0
1236,note_off,,,,,0,0,12,,,,13,,69,0
1236,note_off,,,,,84,0,4,,,,3,,69,0
1236,note_off,,,,,36,0,12,,,,13,,60,0
1236,note_off,,,,,84,0,8,,,,7,,77,0
1236,note_off,,,,,84,0,13,,,,14,,60,0
1236,note_off,,,,,84,0,5,,,,4,,60,0
1236,note_off,,,,,84,0,9,,,,8,,69,0
1236,note_off,,,,,84,0,7,,,,6,,77,0
1242,note_off,,,,,42,0,10,,,,11,,53,0
1242,note_off,,,,,6,0,12,,,,13,,53,0
1242,note_off,,,,,42,0,11,,,,12,,41,0
1242,note_off,,,,,42,0,2,,,,1,,53,0
1242,note_off,,,,,42,0,6,,,,5,,53,0
1248,note_on,,,,,6,0,6,,,,5,,52,49
1248,note_on,,,,,12,0,8,,,,7,,70,75
1248,note_on,,,,,12,0,4,,,,3,,67,62
1248,note_on,,,,,12,0,13,,,,14,,60,75
1248,note_on,,,,,12,0,3,,,,2,,70,62
1248,note_on,,,,,6,0,2,,,,1,,60,127
1248,note_on,,,,,12,0,5,,,,4,,60,62
1248,note_on,,,,,204,0,1,,,,0,,60,127
1248,note_on,,,,,12,0,9,,,,8,,67,75
1248,note_on,,,,,6,0,12,,,,13,,67,96
1248,note_on,,,,,0,0,12,,,,13,,53,96
1248,note_on,,,,,6,0,10,,,,11,,53,49
1248,note_on,,,,,12,0,7,,,,6,,70,75
1248,note_on,,,,,6,0,11,,,,12,,41,49
1248,note_on,,,,,0,0,12,,,,13,,72,96
1258,note_off,,,,,10,0,12,,,,13,,53,0
1258,note_off,,,,,10,0,10,,,,11,,53,0
1258,note_off,,,,,10,0,11,,,,12,,41,0
1260,note_on,,,,,2,0,12,,,,13,,52,96
1260,note_on,,,,,2,0,10,,,,11,,52,49
1260,note_on,,,,,2,0,11,,,,12,,40,49
1270,note_off,,,,,10,0,10,,,,11,,52,0
1270,note_off,,,,,10,0,12,,,,13,,52,0
1270,note_off,,,,,10,0,11,,,,12,,40,0
1272,note_on,,,,,2,0,10,,,,11,,53,49
1272,note_on,,,,,2,0,12,,,,13,,53,96
1272,note_on,,,,,2,0,11,,,,12,,41,49
1282,note_off,,,,,10,0,10,,,,11,,53,0
1282,note_off,,,,,10,0,12,,,,13,,53,0
1282,note_off,,,,,10,0,11,,,,12,,41,0
1284,note_on,,,,,2,0,11,,,,12,,40,49
1284,note_on,,,,,2,0,12,,,,13,,52,96
1284,note_on,,,,,2,0,10,,,,11,,52,49
1294,note_off,,,,,10,0,11,,,,12,,40,0
1294,note_off,,,,,10,0,12,,,,13,,52,0
1294,note_off,,,,,10,0,10,,,,11,,52,0
1296,note_on,,,,,2,0,11,,,,12,,41,49
1296,note_on,,,,,2,0,12,,,,13,,53,96
1296,note_on,,,,,2,0,10,,,,11,,53,49
1306,note_off,,,,,10,0,10,,,,11,,53,0
1306,note_off,,,,,10,0,12,,,,13,,53,0
1306,note_off,,,,,10,0,11,,,,12,,41,0
1308,note_on,,,,,2,0,12,,,,13,,52,96
1308,note_on,,,,,2,0,10,,,,11,,52,49
1308,note_on,,,,,2,0,11,,,,12,,40,49
1318,note_off,,,,,10,0,11,,,,12,,40,0
1318,note_off,,,,,10,0,10,,,,11,,52,0
1318,note_off,,,,,10,0,12,,,,13,,52,0
1320,note_on,,,,,2,0,10,,,,11,,53,49
1320,note_on,,,,,2,0,12,,,,13,,53,96
1320,note_on,,,,,2,0,11,,,,12,,41,49
1330,note_off,,,,,10,0,12,,,,13,,53,0
1330,note_off,,,,,10,0,10,,,,11,,53,0
1330,note_off,,,,,10,0,11,,,,12,,41,0
1332,note_off,,,,,84,0,1,,,,0,,60,0
1332,note_on,,,,,2,0,11,,,,12,,40,49
1332,note_on,,,,,2,0,10,,,,11,,52,49
1332,note_off,,,,,2,0,12,,,,13,,67,0
1332,note_off,,,,,84,0,7,,,,6,,70,0
1332,note_off,,,,,84,0,3,,,,2,,70,0
1332,note_off,,,,,84,0,8,,,,7,,70,0
1332,note_off,,,,,84,0,2,,,,1,,60,0
1332,note_off,,,,,0,0,12,,,,13,,72,0
1332,note_on,,,,,0,0,12,,,,13,,52,96
1342,note_off,,,,,10,0,11,,,,12,,40,0
1342,note_off,,,,,10,0,10,,,,11,,52,0
1342,note_off,,,,,10,0,12,,,,13,,52,0
1344,note_on,,,,,2,0,12,,,,13,,60,96
1344,note_on,,,,,0,0,12,,,,13,,67,96
1344,note_on,,,,,0,0,12,,,,13,,53,96
1344,note_on,,,,,12,0,8,,,,7,,67,75
1344,note_on,,,,,12,0,3,,,,2,,67,62
1344,note_on,,,,,12,0,7,,,,6,,67,75
1344,note_on,,,,,2,0,11,,,,12,,41,49
1344,note_on,,,,,2,0,10,,,,11,,53,49
1344,note_on,,,,,12,0,1,,,,0,,60,127
1354,note_off,,,,,10,0,12,,,,13,,53,0
1354,note_off,,,,,10,0,11,,,,12,,41,0
1354,note_off,,,,,10,0,10,,,,11,,53,0
1356,note_on,,,,,2,0,10,,,,11,,52,49
1356,note_on,,,,,2,0,11,,,,12,,40,49
1356,note_on,,,,,2,0,12,,,,13,,52,96
1366,note_off,,,,,10,0,10,,,,11,,52,0
1366,note_off,,,,,10,0,12,,,,13,,52,0
1366,note_off,,,,,10,0,11,,,,12,,40,0
1368,note_on,,,,,2,0,12,,,,13,,53,96
1368,note_on,,,,,2,0,10,,,,11,,53,49
1368,note_on,,,,,2,0,11,,,,12,,41,49
1378,note_off,,,,,10,0,10,,,,11,,53,0
1378,note_off,,,,,10,0,12,,,,13,,53,0
1378,note_off,,,,,10,0,11,,,,12,,41,0
1380,note_on,,,,,2,0,11,,,,12,,40,49
1380,note_on,,,,,2,0,10,,,,11,,52,49
1380,note_on,,,,,2,0,12,,,,13,,52,96
1386,note_off,,,,,42,0,1,,,,0,,60,0
1390,note_off,,,,,10,0,10,,,,11,,52,0
1390,note_off,,,,,10,0,11,,,,12,,40,0
1390,note_off,,,,,10,0,12,,,,13,,52,0
1392,note_on,,,,,2,0,12,,,,13,,53,96
1392,note_on,,,,,2,0,10,,,,11,,53,49
1392,note_on,,,,,6,0,1,,,,0,,60,127
1392,note_on,,,,,2,0,11,,,,12,,41,49
1402,note_off,,,,,10,0,12,,,,13,,53,0
1402,note_off,,,,,10,0,10,,,,11,,53,0
1402,note_off,,,,,10,0,11,,,,12,,41,0
1404,note_on,,,,,2,0,10,,,,11,,52,49
1404,note_on,,,,,2,0,12,,,,13,,52,96
1404,note_on,,,,,2,0,11,,,,12,,40,49
1414,note_off,,,,,10,0,10,,,,11,,52,0
1414,note_off,,,,,10,0,12,,,,13,,52,0
1414,note_off,,,,,10,0,11,,,,12,,40,0
1416,note_on,,,,,2,0,12,,,,13,,53,96
1416,note_on,,,,,2,0,10,,,,11,,53,49
1416,note_on,,,,,2,0,11,,,,12,,41,49
1426,note_off,,,,,10,0,10,,,,11,,53,0
1426,note_off,,,,,10,0,11,,,,12,,41,0
1426,note_off,,,,,10,0,12,,,,13,,53,0
1428,note_off,,,,,0,0,12,,,,13,,67,0
1428,note_off,,,,,2,0,12,,,,13,,60,0
1428,note_off,,,,,180,0,6,,,,5,,52,0
1428,note_on,,,,,2,0,11,,,,12,,40,49
1428,note_on,,,,,2,0,10,,,,11,,52,49
1428,note_off,,,,,180,0,9,,,,8,,67,0
1428,note_off,,,,,180,0,4,,,,3,,67,0
1428,note_off,,,,,180,0,5,,,,4,,60,0
1428,note_off,,,,,180,0,13,,,,14,,60,0
1428,note_off,,,,,84,0,7,,,,6,,67,0
1428,note_off,,,,,84,0,8,,,,7,,67,0
1428,note_off,,,,,84,0,3,,,,2,,67,0
1428,note_on,,,,,0,0,12,,,,13,,52,96
1434,note_off,,,,,42,0,1,,,,0,,60,0
1438,note_off,,,,,10,0,12,,,,13,,52,0
1438,note_off,,,,,10,0,10,,,,11,,52,0
1438,note_off,,,,,10,0,11,,,,12,,40,0
1440,note_on,,,,,0,0,12,,,,13,,69,96
1440,note_on,,,,,12,0,8,,,,7,,69,75
1440,note_on,,,,,12,0,13,,,,14,,60,75
1440,note_on,,,,,12,0,5,,,,4,,60,62
1440,note_on,,,,,12,0,4,,,,3,,65,62
1440,note_on,,,,,0,0,12,,,,13,,53,96
1440,note_on,,,,,2,0,12,,,,13,,60,96
1440,note_on,,,,,12,0,7,,,,6,,69,75
1440,note_on,,,,,12,0,6,,,,5,,53,49
1440,note_on,,,,,2,0,11,,,,12,,41,49
1440,note_on,,,,,12,0,9,,,,8,,65,75
1440,note_on,,,,,6,0,1,,,,0,,60,127
1440,note_on,,,,,2,0,10,,,,11,,53,49
1440,note_on,,,,,12,0,3,,,,2,,69,62
1482,note_off,,,,,42,0,1,,,,0,,60,0
1488,note_on,,,,,6,0,1,,,,0,,60,127
1524,note_off,,,,,84,0,12,,,,13,,60,0
1524,note_off,,,,,84,0,7,,,,6,,69,0
1524,note_off,,,,,84,0,13,,,,14,,60,0
1524,note_off,,,,,84,0,3,,,,2,,69,0
1524,note_off,,,,,84,0,9,,,,8,,65,0
1524,note_off,,,,,0,0,12,,,,13,,53,0
1524,note_off,,,,,84,0,5,,,,4,,60,0
1524,note_off,,,,,84,0,10,,,,11,,53,0
1524,note_off,,,,,84,0,4,,,,3,,65,0
1524,note_off,,,,,84,0,8,,,,7,,69,0
1524,note_off,,,,,84,0,6,,,,5,,53,0
1524,note_off,,,,,84,0,11,,,,12,,41,0
1524,note_off,,,,,0,0,12,,,,13,,69,0
1530,note_off,,,,,42,0,1,,,,0,,60,0
1536,note_on,,,,,12,0,9,,,,8,,64,75
1536,note_on,,,,,12,0,13,,,,14,,55,75
1536,note_on,,,,,0,0,12,,,,13,,70,96
1536,note_on,,,,,12,0,10,,,,11,,55,49
1536,note_on,,,,,0,0,12,,,,13,,55,96
1536,note_on,,,,,6,0,1,,,,0,,60,127
1536,note_on,,,,,12,0,12,,,,13,,64,96
1536,note_on,,,,,12,0,3,,,,2,,70,62
1536,note_on,,,,,12,0,11,,,,12,,43,49
1536,note_on,,,,,12,0,7,,,,6,,70,75
1536,note_on,,,,,12,0,4,,,,3,,64,62
1536,note_on,,,,,12,0,8,,,,7,,70,75
1536,note_on,,,,,12,0,6,,,,5,,55,49
1536,note_on,,,,,12,0,5,,,,4,,64,62
1536,note_on,,,,,204,0,2,,,,1,,60,127
1578,note_off,,,,,42,0,9,,,,8,,64,0
1578,note_off,,,,,42,0,4,,,,3,,64,0
1584,note_on,,,,,6,0,9,,,,8,,65,75
1584,note_on,,,,,6,0,4,,,,3,,65,62
1620,note_off,,,,,84,0,10,,,,11,,55,0
1620,note_off,,,,,84,0,11,,,,12,,43,0
1620,note_off,,,,,84,0,1,,,,0,,60,0
1620,note_off,,,,,0,0,12,,,,13,,55,0
1620,note_off,,,,,0,0,12,,,,13,,70,0
1620,note_off,,,,,84,0,12,,,,13,,64,0
1620,note_off,,,,,84,0,8,,,,7,,70,0
1620,note_off,,,,,84,0,3,,,,2,,70,0
1620,note_off,,,,,84,0,6,,,,5,,55,0
1620,note_off,,,,,84,0,13,,,,14,,55,0
1620,note_off,,,,,84,0,5,,,,4,,64,0
1620,note_off,,,,,84,0,2,,,,1,,60,0
1620,note_off,,,,,84,0,7,,,,6,,70,0
1626,note_off,,,,,42,0,9,,,,8,,65,0
1626,note_off,,,,,42,0,4,,,,3,,65,0
1632,note_on,,,,,12,0,7,,,,6,,74,75
1632,note_on,,,,,12,0,8,,,,7,,74,75
1632,note_on,,,,,12,0,6,,,,5,,53,49
1632,note_on,,,,,12,0,3,,,,2,,74,62
1632,note_on,,,,,6,0,9,,,,8,,67,75
1632,note_on,,,,,12,0,10,,,,11,,53,49
1632,note_on,,,,,0,0,12,,,,13,,69,96
1632,note_on,,,,,0,0,12,,,,13,,53,96
1632,note_on,,,,,6,0,4,,,,3,,67,62
1632,note_on,,,,,12,0,2,,,,1,,60,127
1632,note_on,,,,,12,0,5,,,,4,,69,62
1632,note_on,,,,,12,0,13,,,,14,,57,75
1632,note_on,,,,,12,0,11,,,,12,,41,49
1632,note_on,,,,,12,0,12,,,,13,,62,96
1642,note_off,,,,,10,0,4,,,,3,,67,0
1642,note_off,,,,,10,0,9,,,,8,,67,0
1644,note_on,,,,,2,0,4,,,,3,,65,62
1644,note_on,,,,,2,0,9,,,,8,,65,75
1654,note_off,,,,,10,0,4,,,,3,,65,0
1654,note_off,,,,,10,0,9,,,,8,,65,0
1656,note_on,,,,,2,0,9,,,,8,,67,75
1656,note_on,,,,,2,0,4,,,,3,,67,62
1666,note_off,,,,,10,0,9,,,,8,,67,0
1666,note_off,,,,,10,0,4,,,,3,,67,0
1668,note_on,,,,,2,0,9,,,,8,,65,75
1668,note_on,,,,,2,0,4,,,,3,,65,62
1674,note_off,,,,,42,0,6,,,,5,,53,0
1674,note_off,,,,,42,0,10,,,,11,,53,0
1674,note_off,,,,,42,0,12,,,,13,,53,0
1674,note_off,,,,,42,0,11,,,,12,,41,0
1674,note_off,,,,,42,0,5,,,,4,,69,0
1674,note_off,,,,,42,0,2,,,,1,,60,0
1678,note_off,,,,,10,0,4,,,,3,,65,0
1678,note_off,,,,,10,0,9,,,,8,,65,0
1680,note_on,,,,,6,0,10,,,,11,,52,49
1680,note_on,,,,,6,0,5,,,,4,,67,62
1680,note_on,,,,,6,0,12,,,,13,,52,96
1680,note_on,,,,,2,0,4,,,,3,,67,62
1680,note_on,,,,,6,0,2,,,,1,,60,127
1680,note_on,,,,,6,0,6,,,,5,,52,49
1680,note_on,,,,,6,0,11,,,,12,,40,49
1680,note_on,,,,,2,0,9,,,,8,,67,75
1690,note_off,,,,,10,0,4,,,,3,,67,0
1690,note_off,,,,,10,0,9,,,,8,,67,0
1692,note_on,,,,,2,0,9,,,,8,,65,75
1692,note_on,,,,,2,0,4,,,,3,,65,62
1702,note_off,,,,,10,0,4,,,,3,,65,0
1702,note_off,,,,,10,0,9,,,,8,,65,0
1704,note_on,,,,,2,0,4,,,,3,,67,62
1704,note_on,,,,,2,0,9,,,,8,,67,75
1714,note_off,,,,,10,0,4,,,,3,,67,0
1714,note_off,,,,,10,0,9,,,,8,,67,0
1716,note_off,,,,,0,0,12,,,,13,,69,0
1716,note_off,,,,,36,0,12,,,,13,,62,0
1716,note_on,,,,,2,0,9,,,,8,,65,75
1716,note_on,,,,,2,0,4,,,,3,,65,62
1716,note_off,,,,,84,0,13,,,,14,,57,0
1722,note_off,,,,,42,0,11,,,,12,,40,0
1722,note_off,,,,,42,0,10,,,,11,,52,0
1722,note_off,,,,,42,0,6,,,,5,,52,0
1722,note_off,,,,,42,0,5,,,,4,,67,0
1722,note_off,,,,,42,0,2,,,,1,,60,0
1722,note_off,,,,,6,0,12,,,,13,,52,0
1726,note_off,,,,,10,0,4,,,,3,,65,0
1726,note_off,,,,,10,0,9,,,,8,,65,0
1728,note_on,,,,,6,0,10,,,,11,,53,49
1728,note_on,,,,,2,0,9,,,,8,,67,75
1728,note_on,,,,,0,0,12,,,,13,,74,96
1728,note_on,,,,,6,0,12,,,,13,,69,96
1728,note_on,,,,,12,0,13,,,,14,,53,75
1728,note_on,,,,,6,0,2,,,,1,,60,127
1728,note_on,,,,,6,0,5,,,,4,,69,62
1728,note_on,,,,,6,0,11,,,,12,,41,49
1728,note_on,,,,,2,0,4,,,,3,,67,62
1728,note_on,,,,,0,0,12,,,,13,,53,96
1728,note_on,,,,,6,0,6,,,,5,,53,49
1738,note_off,,,,,10,0,4,,,,3,,67,0
1738,note_off,,,,,10,0,9,,,,8,,67,0
1740,note_on,,,,,2,0,4,,,,3,,65,62
1740,note_on,,,,,2,0,9,,,,8,,65,75
1750,note_off,,,,,10,0,9,,,,8,,65,0
1750,note_off,,,,,10,0,4,,,,3,,65,0
1752,note_on,,,,,2,0,9,,,,8,,67,75
1752,note_on,,,,,2,0,4,,,,3,,67,62
1762,note_off,,,,,10,0,9,,,,8,,67,0
1762,note_off,,,,,10,0,4,,,,3,,67,0
1764,note_on,,,,,2,0,9,,,,8,,65,75
1764,note_on,,,,,2,0,4,,,,3,,65,62
1770,note_off,,,,,42,0,2,,,,1,,60,0
1774,note_off,,,,,10,0,9,,,,8,,65,0
1774,note_off,,,,,10,0,4,,,,3,,65,0
1776,note_on,,,,,6,0,2,,,,1,,60,127
1776,note_on,,,,,2,0,4,,,,3,,64,62
1776,note_on,,,,,2,0,9,,,,8,,64,75
1797,note_off,,,,,21,0,9,,,,8,,64,0
1797,note_off,,,,,21,0,4,,,,3,,64,0
1800,note_on,,,,,3,0,4,,,,3,,65,62
1800,note_on,,,,,3,0,9,,,,8,,65,75
1812,note_off,,,,,84,0,10,,,,11,,53,0
1812,note_off,,,,,0,0,12,,,,13,,74,0
1812,note_off,,,,,84,0,12,,,,13,,69,0
1812,note_off,,,,,84,0,6,,,,5,,53,0
1812,note_off,,,,,84,0,5,,,,4,,69,0
1812,note_off,,,,,180,0,8,,,,7,,74,0
1812,note_off,,,,,84,0,11,,,,12,,41,0
1812,note_off,,,,,0,0,12,,,,13,,53,0
1812,note_off,,,,,180,0,7,,,,6,,74,0
1812,note_off,,,,,180,0,3,,,,2,,74,0
1812,note_off,,,,,84,0,13,,,,14,,53,0
1818,note_off,,,,,42,0,2,,,,1,,60,0
1821,note_off,,,,,21,0,4,,,,3,,65,0
1821,note_off,,,,,21,0,9,,,,8,,65,0
1824,note_on,,,,,3,0,4,,,,3,,67,62
1824,note_on,,,,,12,0,6,,,,5,,52,49
1824,note_on,,,,,12,0,8,,,,7,,72,75
1824,note_on,,,,,12,0,5,,,,4,,67,62
1824,note_on,,,,,204,0,1,,,,0,,60,127
1824,note_on,,,,,12,0,13,,,,14,,60,75
1824,note_on,,,,,12,0,11,,,,12,,40,49
1824,note_on,,,,,3,0,9,,,,8,,67,75
1824,note_on,,,,,12,0,3,,,,2,,70,62
1824,note_on,,,,,12,0,10,,,,11,,52,49
1824,note_on,,,,,0,0,12,,,,13,,52,96
1824,note_on,,,,,0,0,12,,,,13,,72,96
1824,note_on,,,,,12,0,12,,,,13,,67,96
1824,note_on,,,,,12,0,7,,,,6,,72,75
1824,note_on,,,,,6,0,2,,,,1,,60,127
1834,note_off,,,,,10,0,7,,,,6,,72,0
1834,note_off,,,,,10,0,8,,,,7,,72,0
1836,note_on,,,,,2,0,8,,,,7,,70,75
1836,note_on,,,,,2,0,7,,,,6,,70,75
1846,note_off,,,,,10,0,8,,,,7,,70,0
1846,note_off,,,,,10,0,7,,,,6,,70,0
1848,note_on,,,,,2,0,7,,,,6,,72,75
1848,note_on,,,,,2,0,8,,,,7,,72,75
1858,note_off,,,,,10,0,8,,,,7,,72,0
1858,note_off,,,,,10,0,7,,,,6,,72,0
1860,note_on,,,,,2,0,8,,,,7,,70,75
1860,note_on,,,,,2,0,7,,,,6,,70,75
1870,note_off,,,,,10,0,7,,,,6,,70,0
1870,note_off,,,,,10,0,8,,,,7,,70,0
1872,note_on,,,,,2,0,8,,,,7,,72,75
1872,note_on,,,,,2,0,7,,,,6,,72,75
1882,note_off,,,,,10,0,8,,,,7,,72,0
1882,note_off,,,,,10,0,7,,,,6,,72,0
1884,note_on,,,,,2,0,8,,,,7,,70,75
1884,note_on,,,,,2,0,7,,,,6,,70,75
1894,note_off,,,,,10,0,7,,,,6,,70,0
1894,note_off,,,,,10,0,8,,,,7,,70,0
1896,note_on,,,,,2,0,8,,,,7,,72,75
1896,note_on,,,,,2,0,7,,,,6,,72,75
1906,note_off,,,,,10,0,8,,,,7,,72,0
1906,note_off,,,,,10,0,7,,,,6,,72,0
1908,note_off,,,,,84,0,6,,,,5,,52,0
1908,note_off,,,,,84,0,5,,,,4,,67,0
1908,note_off,,,,,84,0,3,,,,2,,70,0
1908,note_off,,,,,84,0,9,,,,8,,67,0
1908,note_on,,,,,2,0,7,,,,6,,70,75
1908,note_off,,,,,84,0,2,,,,1,,60,0
1908,note_off,,,,,84,0,12,,,,13,,67,0
1908,note_off,,,,,0,0,12,,,,13,,72,0
1908,note_off,,,,,0,0,12,,,,13,,52,0
1908,note_off,,,,,84,0,4,,,,3,,67,0
1908,note_off,,,,,84,0,10,,,,11,,52,0
1908,note_off,,,,,84,0,11,,,,12,,40,0
1908,note_off,,,,,84,0,1,,,,0,,60,0
1908,note_on,,,,,2,0,8,,,,7,,70,75
1918,note_off,,,,,10,0,7,,,,6,,70,0
1918,note_off,,,,,10,0,8,,,,7,,70,0
1920,note_on,,,,,12,0,3,,,,2,,69,62
1920,note_on,,,,,2,0,7,,,,6,,69,75
1920,note_on,,,,,12,0,11,,,,12,,41,49
1920,note_on,,,,,2,0,8,,,,7,,69,75
1920,note_on,,,,,12,0,4,,,,3,,65,62
1920,note_on,,,,,12,0,6,,,,5,,53,49
1920,note_on,,,,,12,0,9,,,,8,,65,75
1920,note_on,,,,,0,0,12,,,,13,,53,96
1920,note_on,,,,,12,0,1,,,,0,,60,127
1920,note_on,,,,,12,0,5,,,,4,,60,62
1920,note_on,,,,,12,0,12,,,,13,,60,96
1920,note_on,,,,,0,0,12,,,,13,,69,96
1920,note_on,,,,,12,0,10,,,,11,,53,49
1962,note_off,,,,,42,0,1,,,,0,,60,0
1962,note_off,,,,,42,0,8,,,,7,,69,0
1962,note_off,,,,,42,0,11,,,,12,,41,0
1962,note_off,,,,,42,0,12,,,,13,,53,0
1962,note_off,,,,,42,0,10,,,,11,,53,0
1962,note_off,,,,,42,0,3,,,,2,,69,0
1962,note_off,,,,,42,0,7,,,,6,,69,0
1962,note_off,,,,,42,0,6,,,,5,,53,0
1968,note_on,,,,,6,0,6,,,,5,,52,49
1968,note_on,,,,,6,0,10,,,,11,,52,49
1968,note_on,,,,,6,0,3,,,,2,,67,62
1968,note_on,,,,,6,0,8,,,,7,,67,75
1968,note_on,,,,,6,0,12,,,,13,,52,96
1968,note_on,,,,,6,0,1,,,,0,,60,127
1968,note_on,,,,,6,0,7,,,,6,,67,75
1968,note_on,,,,,6,0,11,,,,12,,40,49
2004,note_off,,,,,180,0,13,,,,14,,60,0
2004,note_off,,,,,0,0,12,,,,13,,69,0
2004,note_off,,,,,36,0,12,,,,13,,60,0
2004,note_off,,,,,84,0,9,,,,8,,65,0
2004,note_off,,,,,84,0,5,,,,4,,60,0
2004,note_off,,,,,84,0,4,,,,3,,65,0
2010,note_off,,,,,42,0,3,,,,2,,67,0
2010,note_off,,,,,42,0,1,,,,0,,60,0
2010,note_off,,,,,6,0,12,,,,13,,52,0
2010,note_off,,,,,42,0,6,,,,5,,52,0
2010,note_off,,,,,42,0,10,,,,11,,52,0
2010,note_off,,,,,42,0,8,,,,7,,67,0
2010,note_off,,,,,42,0,11,,,,12,,40,0
2010,note_off,,,,,42,0,7,,,,6,,67,0
2016,note_on,,,,,6,0,12,,,,13,,64,96
2016,note_on,,,,,0,0,12,,,,13,,72,96
2016,note_on,,,,,0,0,12,,,,13,,50,96
2016,note_on,,,,,12,0,4,,,,3,,64,62
2016,note_on,,,,,6,0,1,,,,0,,60,127
2016,note_on,,,,,6,0,11,,,,12,,38,49
2016,note_on,,,,,6,0,7,,,,6,,72,75
2016,note_on,,,,,12,0,9,,,,8,,64,75
2016,note_on,,,,,12,0,5,,,,4,,60,62
2016,note_on,,,,,6,0,8,,,,7,,72,75
2016,note_on,,,,,12,0,13,,,,14,,60,75
2016,note_on,,,,,6,0,6,,,,5,,50,49
2016,note_on,,,,,6,0,10,,,,11,,50,49
2016,note_on,,,,,6,0,3,,,,2,,72,62
2058,note_off,,,,,42,0,10,,,,11,,50,0
2058,note_off,,,,,42,0,1,,,,0,,60,0
2058,note_off,,,,,42,0,12,,,,13,,50,0
2058,note_off,,,,,42,0,6,,,,5,,50,0
2058,note_off,,,,,42,0,11,,,,12,,38,0
2064,note_on,,,,,6,0,10,,,,11,,48,49
2064,note_on,,,,,6,0,12,,,,13,,48,96
2064,note_on,,,,,6,0,11,,,,12,,36,49
2064,note_on,,,,,6,0,6,,,,5,,48,49
2064,note_on,,,,,6,0,1,,,,0,,60,127
2100,note_off,,,,,84,0,4,,,,3,,64,0
2100,note_off,,,,,84,0,8,,,,7,,72,0
2100,note_off,,,,,84,0,3,,,,2,,72,0
2100,note_off,,,,,84,0,7,,,,6,,72,0
2100,note_off,,,,,84,0,5,,,,4,,60,0
2100,note_off,,,,,84,0,9,,,,8,,64,0
2100,note_off,,,,,84,0,13,,,,14,,60,0
2100,note_off,,,,,36,0,12,,,,13,,64,0
2100,note_off,,,,,0,0,12,,,,13,,72,0
2106,note_off,,,,,42,0,6,,,,5,,48,0
2106,note_off,,,,,42,0,1,,,,0,,60,0
2106,note_off,,,,,6,0,12,,,,13,,48,0
2106,note_off,,,,,42,0,10,,,,11,,48,0
2106,note_off,,,,,42,0,11,,,,12,,36,0
2112,note_on,,,,,6,0,10,,,,11,,53,49
2112,note_on,,,,,12,0,5,,,,4,,60,62
2112,note_on,,,,,12,0,13,,,,14,,60,75
2112,note_on,,,,,12,0,8,,,,7,,70,75
2112,note_on,,,,,6,0,6,,,,5,,53,49
2112,note_on,,,,,12,0,4,,,,3,,65,62
2112,note_on,,,,,0,0,12,,,,13,,69,96
2112,note_on,,,,,12,0,3,,,,2,,69,62
2112,note_on,,,,,6,0,12,,,,13,,60,96
2112,note_on,,,,,204,0,2,,,,1,,60,127
2112,note_on,,,,,12,0,7,,,,6,,70,75
2112,note_on,,,,,6,0,1,,,,0,,60,127
2112,note_on,,,,,12,0,9,,,,8,,65,75
2112,note_on,,,,,6,0,11,,,,12,,41,49
2112,note_on,,,,,0,0,12,,,,13,,53,96
2122,note_off,,,,,10,0,7,,,,6,,70,0
2122,note_off,,,,,10,0,8,,,,7,,70,0
2124,note_on,,,,,2,0,7,,,,6,,69,75
2124,note_on,,,,,2,0,8,,,,7,,69,75
2134,note_off,,,,,10,0,8,,,,7,,69,0
2134,note_off,,,,,10,0,7,,,,6,,69,0
2136,note_on,,,,,2,0,7,,,,6,,70,75
2136,note_on,,,,,2,0,8,,,,7,,70,75
2146,note_off,,,,,10,0,7,,,,6,,70,0
2146,note_off,,,,,10,0,8,,,,7,,70,0
2148,note_on,,,,,2,0,7,,,,6,,69,75
2148,note_on,,,,,2,0,8,,,,7,,69,75
2158,note_off,,,,,10,0,7,,,,6,,69,0
2158,note_off,,,,,10,0,8,,,,7,,69,0
2160,note_on,,,,,2,0,7,,,,6,,70,75
2160,note_on,,,,,2,0,8,,,,7,,70,75
2170,note_off,,,,,10,0,7,,,,6,,70,0
2170,note_off,,,,,10,0,8,,,,7,,70,0
2172,note_on,,,,,2,0,7,,,,6,,69,75
2172,note_on,,,,,2,0,8,,,,7,,69,75
2182,note_off,,,,,10,0,7,,,,6,,69,0
2182,note_off,,,,,10,0,8,,,,7,,69,0
2184,note_on,,,,,2,0,7,,,,6,,70,75
2184,note_on,,,,,2,0,8,,,,7,,70,75
2194,note_off,,,,,10,0,8,,,,7,,70,0
2194,note_off,,,,,10,0,7,,,,6,,70,0
2196,note_on,,,,,2,0,7,,,,6,,69,75
2196,note_off,,,,,84,0,6,,,,5,,53,0
2196,note_off,,,,,0,0,12,,,,13,,69,0
2196,note_off,,,,,0,0,12,,,,13,,53,0
2196,note_off,,,,,84,0,10,,,,11,,53,0
2196,note_off,,,,,84,0,11,,,,12,,41,0
2196,note_off,,,,,84,0,1,,,,0,,60,0
2196,note_off,,,,,84,0,2,,,,1,,60,0
2196,note_off,,,,,84,0,12,,,,13,,60,0
2196,note_on,,,,,2,0,8,,,,7,,69,75
2206,note_off,,,,,10,0,7,,,,6,,69,0
2206,note_off,,,,,10,0,8,,,,7,,69,0
2208,note_on,,,,,12,0,12,,,,13,,69,96
2208,note_on,,,,,0,0,12,,,,13,,52,96
2208,note_on,,,,,12,0,2,,,,1,,60,127
2208,note_on,,,,,2,0,7,,,,6,,70,75
2208,note_on,,,,,2,0,8,,,,7,,70,75
2208,note_on,,,,,12,0,11,,,,12,,40,49
2208,note_on,,,,,12,0,6,,,,5,,52,49
2208,note_on,,,,,0,0,12,,,,13,,72,96
2208,note_on,,,,,12,0,10,,,,11,,52,49
2218,note_off,,,,,10,0,8,,,,7,,70,0
2218,note_off,,,,,10,0,7,,,,6,,70,0
2220,note_on,,,,,2,0,7,,,,6,,69,75
2220,note_on,,,,,2,0,8,,,,7,,69,75
2230,note_off,,,,,10,0,7,,,,6,,69,0
2230,note_off,,,,,10,0,8,,,,7,,69,0
2232,note_on,,,,,2,0,8,,,,7,,70,75
2232,note_on,,,,,2,0,7,,,,6,,70,75
2242,note_off,,,,,10,0,7,,,,6,,70,0
2242,note_off,,,,,10,0,8,,,,7,,70,0
2244,note_on,,,,,2,0,8,,,,7,,69,75
2244,note_on,,,,,2,0,7,,,,6,,69,75
2250,note_off,,,,,42,0,12,,,,13,,52,0
2250,note_off,,,,,42,0,10,,,,11,,52,0
2250,note_off,,,,,42,0,6,,,,5,,52,0
2250,note_off,,,,,42,0,2,,,,1,,60,0
2250,note_off,,,,,42,0,11,,,,12,,40,0
2254,note_off,,,,,10,0,7,,,,6,,69,0
2254,note_off,,,,,10,0,8,,,,7,,69,0
2256,note_on,,,,,2,0,7,,,,6,,70,75
2256,note_on,,,,,2,0,8,,,,7,,70,75
2256,note_on,,,,,6,0,6,,,,5,,50,49
2256,note_on,,,,,6,0,2,,,,1,,60,127
2256,note_on,,,,,6,0,12,,,,13,,50,96
2256,note_on,,,,,6,0,11,,,,12,,38,49
2256,note_on,,,,,6,0,10,,,,11,,50,49
2266,note_off,,,,,10,0,7,,,,6,,70,0
2266,note_off,,,,,10,0,8,,,,7,,70,0
2268,note_on,,,,,2,0,8,,,,7,,69,75
2268,note_on,,,,,2,0,7,,,,6,,69,75
2278,note_off,,,,,10,0,8,,,,7,,69,0
2278,note_off,,,,,10,0,7,,,,6,,69,0
2280,note_on,,,,,2,0,8,,,,7,,70,75
2280,note_on,,,,,2,0,7,,,,6,,70,75
2290,note_off,,,,,10,0,7,,,,6,,70,0
2290,note_off,,,,,10,0,8,,,,7,,70,0
2292,note_off,,,,,180,0,9,,,,8,,65,0
2292,note_off,,,,,180,0,3,,,,2,,69,0
2292,note_off,,,,,180,0,4,,,,3,,65,0
2292,note_off,,,,,180,0,13,,,,14,,60,0
2292,note_off,,,,,180,0,5,,,,4,,60,0
2292,note_off,,,,,0,0,12,,,,13,,72,0
2292,note_off,,,,,36,0,12,,,,13,,69,0
2292,note_on,,,,,2,0,8,,,,7,,69,75
2292,note_on,,,,,2,0,7,,,,6,,69,75
2298,note_off,,,,,42,0,11,,,,12,,38,0
2298,note_off,,,,,42,0,2,,,,1,,60,0
2298,note_off,,,,,42,0,10,,,,11,,50,0
2298,note_off,,,,,42,0,6,,,,5,,50,0
2298,note_off,,,,,6,0,12,,,,13,,50,0
2302,note_off,,,,,10,0,8,,,,7,,69,0
2302,note_off,,,,,10,0,7,,,,6,,69,0
2304,note_on,,,,,12,0,13,,,,14,,60,75
2304,note_on,,,,,0,0,12,,,,13,,72,96
2304,note_on,,,,,6,0,2,,,,1,,60,127
2304,note_on,,,,,0,0,12,,,,13,,52,96
2304,note_on,,,,,6,0,12,,,,13,,67,96
2304,note_on,,,,,12,0,4,,,,3,,67,62
2304,note_on,,,,,12,0,5,,,,4,,60,62
2304,note_on,,,,,12,0,9,,,,8,,67,75
2304,note_on,,,,,2,0,7,,,,6,,67,75
2304,note_on,,,,,6,0,10,,,,11,,52,49
2304,note_on,,,,,6,0,6,,,,5,,52,49
2304,note_on,,,,,12,0,3,,,,2,,67,62
2304,note_on,,,,,2,0,8,,,,7,,67,75
2304,note_on,,,,,6,0,11,,,,12,,40,49
2346,note_off,,,,,42,0,2,,,,1,,60,0
2352,note_on,,,,,6,0,2,,,,1,,60,127
2388,note_off,,,,,84,0,6,,,,5,,52,0
2388,note_off,,,,,84,0,13,,,,14,,60,0
2388,note_off,,,,,84,0,5,,,,4,,60,0
2388,note_off,,,,,84,0,8,,,,7,,67,0
2388,note_off,,,,,84,0,7,,,,6,,67,0
2388,note_off,,,,,84,0,12,,,,13,,67,0
2388,note_off,,,,,84,0,11,,,,12,,40,0
2388,note_off,,,,,0,0,12,,,,13,,72,0
2388,note_off,,,,,84,0,10,,,,11,,52,0
2388,note_off,,,,,84,0,4,,,,3,,67,0
2388,note_off,,,,,84,0,3,,,,2,,67,0
2388,note_off,,,,,0,0,12,,,,13,,52,0
2388,note_off,,,,,84,0,9,,,,8,,67,0
2394,note_off,,,,,42,0,2,,,,1,,60,0
2400,note_on,,,,,204,0,1,,,,0,,67,127
2400,note_on,,,,,12,0,7,,,,6,,71,75
2400,note_on,,,,,12,0,4,,,,3,,65,62
2400,note_on,,,,,12,0,6,,,,5,,50,49
2400,note_on,,,,,12,0,5,,,,4,,62,62
2400,note_on,,,,,12,0,8,,,,7,,71,75
2400,note_on,,,,,6,0,2,,,,1,,67,127
2400,note_on,,,,,12,0,9,,,,8,,65,75
2400,note_on,,,,,12,0,12,,,,13,,65,96
2400,note_on,,,,,0,0,12,,,,13,,71,96
2400,note_on,,,,,0,0,12,,,,13,,50,96
2400,note_on,,,,,12,0,13,,,,14,,64,75
2400,note_on,,,,,12,0,3,,,,2,,71,62
2400,note_on,,,,,12,0,10,,,,11,,50,49
2400,note_on,,,,,12,0,11,,,,12,,38,49
2410,note_off,,,,,10,0,13,,,,14,,64,0
2412,note_on,,,,,2,0,13,,,,14,,62,75
2422,note_off,,,,,10,0,13,,,,14,,62,0
2424,note_on,,,,,2,0,13,,,,14,,64,75
2434,note_off,,,,,10,0,13,,,,14,,64,0
2436,note_on,,,,,2,0,13,,,,14,,62,75
2442,note_off,,,,,42,0,7,,,,6,,71,0
2442,note_off,,,,,42,0,8,,,,7,,71,0
2442,note_off,,,,,42,0,3,,,,2,,71,0
2446,note_off,,,,,10,0,13,,,,14,,62,0
2448,note_on,,,,,6,0,7,,,,6,,72,75
2448,note_on,,,,,6,0,3,,,,2,,72,62
2448,note_on,,,,,6,0,8,,,,7,,72,75
2448,note_on,,,,,2,0,13,,,,14,,64,75
2458,note_off,,,,,10,0,13,,,,14,,64,0
2460,note_on,,,,,2,0,13,,,,14,,62,75
2470,note_off,,,,,10,0,13,,,,14,,62,0
2472,note_on,,,,,2,0,13,,,,14,,64,75
2482,note_off,,,,,10,0,13,,,,14,,64,0
2484,note_off,,,,,0,0,12,,,,13,,50,0
2484,note_off,,,,,0,0,12,,,,13,,71,0
2484,note_off,,,,,84,0,12,,,,13,,65,0
2484,note_off,,,,,84,0,11,,,,12,,38,0
2484,note_off,,,,,84,0,1,,,,0,,67,0
2484,note_off,,,,,84,0,2,,,,1,,67,0
2484,note_off,,,,,84,0,6,,,,5,,50,0
2484,note_off,,,,,84,0,10,,,,11,,50,0
2484,note_off,,,,,84,0,4,,,,3,,65,0
2484,note_on,,,,,2,0,13,,,,14,,62,75
2484,note_off,,,,,84,0,5,,,,4,,62,0
2484,note_off,,,,,84,0,9,,,,8,,65,0
2490,note_off,,,,,42,0,7,,,,6,,72,0
2490,note_off,,,,,42,0,8,,,,7,,72,0
2490,note_off,,,,,42,0,3,,,,2,,72,0
2494,note_off,,,,,10,0,13,,,,14,,62,0
2496,note_on,,,,,0,0,12,,,,13,,52,96
2496,note_on,,,,,6,0,7,,,,6,,74,75
2496,note_on,,,,,12,0,11,,,,12,,40,49
2496,note_on,,,,,12,0,9,,,,8,,67,75
2496,note_on,,,,,12,0,12,,,,13,,67,96
2496,note_on,,,,,0,0,12,,,,13,,72,96
2496,note_on,,,,,12,0,10,,,,11,,52,49
2496,note_on,,,,,2,0,13,,,,14,,60,75
2496,note_on,,,,,6,0,3,,,,2,,74,62
2496,note_on,,,,,6,0,8,,,,7,,74,75
2496,note_on,,,,,12,0,5,,,,4,,60,62
2496,note_on,,,,,12,0,4,,,,3,,67,62
2496,note_on,,,,,12,0,1,,,,0,,67,127
2496,note_on,,,,,12,0,6,,,,5,,52,49
2506,note_off,,,,,10,0,8,,,,7,,74,0
2506,note_off,,,,,10,0,3,,,,2,,74,0
2506,note_off,,,,,10,0,7,,,,6,,74,0
2508,note_on,,,,,2,0,3,,,,2,,72,62
2508,note_on,,,,,2,0,8,,,,7,,72,75
2508,note_on,,,,,2,0,7,,,,6,,72,75
2518,note_off,,,,,10,0,7,,,,6,,72,0
2518,note_off,,,,,10,0,3,,,,2,,72,0
2518,note_off,,,,,10,0,8,,,,7,,72,0
2520,note_on,,,,,2,0,8,,,,7,,74,75
2520,note_on,,,,,2,0,7,,,,6,,74,75
2520,note_on,,,,,2,0,3,,,,2,,74,62
2530,note_off,,,,,10,0,8,,,,7,,74,0
2530,note_off,,,,,10,0,3,,,,2,,74,0
2530,note_off,,,,,10,0,7,,,,6,,74,0
2532,note_on,,,,,2,0,7,,,,6,,72,75
2532,note_on,,,,,2,0,3,,,,2,,72,62
2532,note_on,,,,,2,0,8,,,,7,,72,75
2538,note_off,,,,,42,0,1,,,,0,,67,0
2538,note_off,,,,,42,0,13,,,,14,,60,0
2538,note_off,,,,,42,0,5,,,,4,,60,0
2542,note_off,,,,,10,0,3,,,,2,,72,0
2542,note_off,,,,,10,0,7,,,,6,,72,0
2542,note_off,,,,,10,0,8,,,,7,,72,0
2544,note_on,,,,,2,0,3,,,,2,,74,62
2544,note_on,,,,,2,0,7,,,,6,,74,75
2544,note_on,,,,,2,0,8,,,,7,,74,75
2544,note_on,,,,,6,0,5,,,,4,,62,62
2544,note_on,,,,,6,0,13,,,,14,,62,75
2544,note_on,,,,,6,0,1,,,,0,,67,127
2554,note_off,,,,,10,0,7,,,,6,,74,0
2554,note_off,,,,,10,0,8,,,,7,,74,0
2554,note_off,,,,,10,0,3,,,,2,,74,0
2556,note_on,,,,,2,0,8,,,,7,,72,75
2556,note_on,,,,,2,0,3,,,,2,,72,62
2556,note_on,,,,,2,0,7,,,,6,,72,75
2566,note_off,,,,,10,0,7,,,,6,,72,0
2566,note_off,,,,,10,0,8,,,,7,,72,0
2566,note_off,,,,,10,0,3,,,,2,,72,0
2568,note_on,,,,,2,0,3,,,,2,,74,62
2568,note_on,,,,,2,0,7,,,,6,,74,75
2568,note_on,,,,,2,0,8,,,,7,,74,75
2578,note_off,,,,,10,0,7,,,,6,,74,0
2578,note_off,,,,,10,0,8,,,,7,,74,0
2578,note_off,,,,,10,0,3,,,,2,,74,0
2580,note_off,,,,,84,0,11,,,,12,,40,0
2580,note_off,,,,,84,0,12,,,,13,,67,0
2580,note_off,,,,,0,0,12,,,,13,,72,0
2580,note_off,,,,,0,0,12,,,,13,,52,0
2580,note_on,,,,,2,0,8,,,,7,,72,75
2580,note_on,,,,,2,0,3,,,,2,,72,62
2580,note_off,,,,,84,0,10,,,,11,,52,0
2580,note_off,,,,,84,0,6,,,,5,,52,0
2580,note_on,,,,,2,0,7,,,,6,,72,75
2586,note_off,,,,,42,0,1,,,,0,,67,0
2586,note_off,,,,,42,0,13,,,,14,,62,0
2586,note_off,,,,,42,0,5,,,,4,,62,0
2590,note_off,,,,,10,0,7,,,,6,,72,0
2590,note_off,,,,,10,0,3,,,,2,,72,0
2590,note_off,,,,,10,0,8,,,,7,,72,0
2592,note_on,,,,,6,0,13,,,,14,,64,75
2592,note_on,,,,,2,0,7,,,,6,,74,75
2592,note_on,,,,,6,0,5,,,,4,,64,62
2592,note_on,,,,,12,0,12,,,,13,,67,96
2592,note_on,,,,,0,0,12,,,,13,,76,96
2592,note_on,,,,,0,0,12,,,,13,,48,96
2592,note_on,,,,,2,0,3,,,,2,,74,62
2592,note_on,,,,,12,0,6,,,,5,,48,49
2592,note_on,,,,,2,0,8,,,,7,,74,75
2592,note_on,,,,,12,0,10,,,,11,,48,49
2592,note_on,,,,,6,0,1,,,,0,,67,127
2592,note_on,,,,,12,0,11,,,,12,,36,49
2602,note_off,,,,,10,0,8,,,,7,,74,0
2602,note_off,,,,,10,0,3,,,,2,,74,0
2602,note_off,,,,,10,0,7,,,,6,,74,0
2604,note_on,,,,,2,0,8,,,,7,,72,75
2604,note_on,,,,,2,0,3,,,,2,,72,62
2604,note_on,,,,,2,0,7,,,,6,,72,75
2614,note_off,,,,,10,0,8,,,,7,,72,0
2614,note_off,,,,,10,0,7,,,,6,,72,0
2614,note_off,,,,,10,0,3,,,,2,,72,0
2616,note_on,,,,,2,0,7,,,,6,,74,75
2616,note_on,,,,,2,0,3,,,,2,,74,62
2616,note_on,,,,,2,0,8,,,,7,,74,75
2626,note_off,,,,,10,0,3,,,,2,,74,0
2626,note_off,,,,,10,0,7,,,,6,,74,0
2626,note_off,,,,,10,0,8,,,,7,,74,0
2628,note_on,,,,,2,0,3,,,,2,,72,62
2628,note_on,,,,,2,0,7,,,,6,,72,75
2628,note_on,,,,,2,0,8,,,,7,,72,75
2634,note_off,,,,,42,0,1,,,,0,,67,0
2638,note_off,,,,,10,0,3,,,,2,,72,0
2638,note_off,,,,,10,0,8,,,,7,,72,0
2638,note_off,,,,,10,0,7,,,,6,,72,0
2640,note_on,,,,,2,0,3,,,,2,,71,62
2640,note_on,,,,,6,0,1,,,,0,,67,127
2640,note_on,,,,,2,0,7,,,,6,,71,75
2640,note_on,,,,,2,0,8,,,,7,,71,75
2661,note_off,,,,,21,0,7,,,,6,,71,0
2661,note_off,,,,,21,0,8,,,,7,,71,0
2661,note_off,,,,,21,0,3,,,,2,,71,0
2664,note_on,,,,,3,0,8,,,,7,,72,75
2664,note_on,,,,,3,0,7,,,,6,,72,75
2664,note_on,,,,,3,0,3,,,,2,,72,62
2676,note_off,,,,,180,0,4,,,,3,,67,0
2676,note_off,,,,,84,0,5,,,,4,,64,0
2676,note_off,,,,,84,0,13,,,,14,,64,0
2676,note_off,,,,,180,0,9,,,,8,,67,0
2676,note_off,,,,,84,0,11,,,,12,,36,0
2676,note_off,,,,,0,0,12,,,,13,,76,0
2676,note_off,,,,,84,0,6,,,,5,,48,0
2676,note_off,,,,,0,0,12,,,,13,,48,0
2676,note_off,,,,,84,0,10,,,,11,,48,0
2676,note_off,,,,,84,0,12,,,,13,,67,0
2682,note_off,,,,,42,0,1,,,,0,,67,0
2685,note_off,,,,,21,0,8,,,,7,,72,0
2685,note_off,,,,,21,0,7,,,,6,,72,0
2685,note_off,,,,,21,0,3,,,,2,,72,0
2688,note_on,,,,,0,0,12,,,,13,,74,96
2688,note_on,,,,,12,0,12,,,,13,,67,96
2688,note_on,,,,,204,0,2,,,,1,,67,127
2688,note_on,,,,,12,0,5,,,,4,,62,62
2688,note_on,,,,,6,0,1,,,,0,,67,127
2688,note_on,,,,,12,0,10,,,,11,,47,49
2688,note_on,,,,,12,0,4,,,,3,,67,62
2688,note_on,,,,,12,0,13,,,,14,,62,75
2688,note_on,,,,,0,0,12,,,,13,,47,96
2688,note_on,,,,,3,0,8,,,,7,,74,75
2688,note_on,,,,,12,0,6,,,,5,,47,49
2688,note_on,,,,,3,0,3,,,,2,,74,62
2688,note_on,,,,,12,0,9,,,,8,,67,75
2688,note_on,,,,,12,0,11,,,,12,,35,49
2688,note_on,,,,,3,0,7,,,,6,,74,75
2772,note_off,,,,,84,0,11,,,,12,,35,0
2772,note_off,,,,,0,0,12,,,,13,,47,0
2772,note_off,,,,,0,0,12,,,,13,,74,0
2772,note_off,,,,,84,0,1,,,,0,,67,0
2772,note_off,,,,,84,0,2,,,,1,,67,0
2772,note_off,,,,,84,0,3,,,,2,,74,0
2772,note_off,,,,,84,0,12,,,,13,,67,0
2772,note_off,,,,,84,0,7,,,,6,,74,0
2772,note_off,,,,,84,0,6,,,,5,,47,0
2772,note_off,,,,,84,0,8,,,,7,,74,0
2772,note_off,,,,,84,0,10,,,,11,,47,0
2784,note_on,,,,,12,0,6,,,,5,,45,49
2784,note_on,,,,,0,0,12,,,,13,,72,96
2784,note_on,,,,,12,0,8,,,,7,,72,75
2784,note_on,,,,,0,0,12,,,,13,,45,96
2784,note_on,,,,,12,0,12,,,,13,,67,96
2784,note_on,,,,,12,0,11,,,,12,,33,49
2784,note_on,,,,,12,0,3,,,,2,,72,62
2784,note_on,,,,,12,0,2,,,,1,,67,127
2784,note_on,,,,,12,0,7,,,,6,,72,75
2784,note_on,,,,,12,0,10,,,,11,,45,49
2826,note_off,,,,,42,0,7,,,,6,,72,0
2826,note_off,,,,,42,0,6,,,,5,,45,0
2826,note_off,,,,,42,0,10,,,,11,,45,0
2826,note_off,,,,,42,0,2,,,,1,,67,0
2826,note_off,,,,,42,0,11,,,,12,,33,0
2826,note_off,,,,,42,0,8,,,,7,,72,0
2826,note_off,,,,,42,0,3,,,,2,,72,0
2826,note_off,,,,,42,0,12,,,,13,,45,0
2832,note_on,,,,,6,0,6,,,,5,,43,49
2832,note_on,,,,,6,0,8,,,,7,,71,75
2832,note_on,,,,,6,0,2,,,,1,,67,127
2832,note_on,,,,,6,0,10,,,,11,,43,49
2832,note_on,,,,,6,0,7,,,,6,,71,75
2832,note_on,,,,,6,0,11,,,,12,,31,49
2832,note_on,,,,,6,0,3,,,,2,,71,62
2832,note_on,,,,,6,0,12,,,,13,,43,96
2868,note_off,,,,,36,0,12,,,,13,,67,0
2868,note_off,,,,,0,0,12,,,,13,,72,0
2868,note_off,,,,,180,0,4,,,,3,,67,0
2868,note_off,,,,,180,0,5,,,,4,,62,0
2868,note_off,,,,,180,0,9,,,,8,,67,0
2868,note_off,,,,,180,0,13,,,,14,,62,0
2874,note_off,,,,,42,0,11,,,,12,,31,0
2874,note_off,,,,,42,0,7,,,,6,,71,0
2874,note_off,,,,,42,0,10,,,,11,,43,0
2874,note_off,,,,,42,0,8,,,,7,,71,0
2874,note_off,,,,,42,0,2,,,,1,,67,0
2874,note_off,,,,,42,0,3,,,,2,,71,0
2874,note_off,,,,,42,0,6,,,,5,,43,0
2874,note_off,,,,,6,0,12,,,,13,,43,0
2880,note_on,,,,,6,0,11,,,,12,,29,49
2880,note_on,,,,,6,0,12,,,,13,,67,96
2880,note_on,,,,,6,0,7,,,,6,,72,75
2880,note_on,,,,,12,0,9,,,,8,,67,75
2880,note_on,,,,,6,0,10,,,,11,,41,49
2880,note_on,,,,,6,0,6,,,,5,,41,49
2880,note_on,,,,,6,0,8,,,,7,,72,75
2880,note_on,,,,,0,0,12,,,,13,,72,96
2880,note_on,,,,,0,0,12,,,,13,,41,96
2880,note_on,,,,,12,0,13,,,,14,,64,75
2880,note_on,,,,,12,0,4,,,,3,,67,62
2880,note_on,,,,,6,0,3,,,,2,,72,62
2880,note_on,,,,,6,0,2,,,,1,,67,127
2880,note_on,,,,,12,0,5,,,,4,,64,62
2922,note_off,,,,,42,0,10,,,,11,,41,0
2922,note_off,,,,,42,0,6,,,,5,,41,0
2922,note_off,,,,,42,0,12,,,,13,,41,0
2922,note_off,,,,,42,0,11,,,,12,,29,0
2922,note_off,,,,,42,0,2,,,,1,,67,0
2928,note_on,,,,,6,0,2,,,,1,,67,127
2928,note_on,,,,,6,0,10,,,,11,,40,49
2928,note_on,,,,,6,0,6,,,,5,,40,49
2928,note_on,,,,,6,0,11,,,,12,,28,49
2928,note_on,,,,,6,0,12,,,,13,,40,96
2964,note_off,,,,,84,0,9,,,,8,,67,0
2964,note_off,,,,,84,0,5,,,,4,,64,0
2964,note_off,,,,,84,0,13,,,,14,,64,0
2964,note_off,,,,,84,0,4,,,,3,,67,0
2964,note_off,,,,,36,0,12,,,,13,,67,0
2964,note_off,,,,,84,0,7,,,,6,,72,0
2964,note_off,,,,,84,0,8,,,,7,,72,0
2964,note_off,,,,,84,0,3,,,,2,,72,0
2964,note_off,,,,,0,0,12,,,,13,,72,0
2970,note_off,,,,,42,0,11,,,,12,,28,0
2970,note_off,,,,,42,0,2,,,,1,,67,0
2970,note_off,,,,,42,0,6,,,,5,,40,0
2970,note_off,,,,,42,0,10,,,,11,,40,0
2970,note_off,,,,,6,0,12,,,,13,,40,0
2976,note_on,,,,,12,0,13,,,,14,,60,75
2976,note_on,,,,,0,0,12,,,,13,,72,96
2976,note_on,,,,,12,0,4,,,,3,,69,62
2976,note_on,,,,,204,0,1,,,,0,,72,127
2976,note_on,,,,,0,0,12,,,,13,,45,96
2976,note_on,,,,,6,0,10,,,,11,,45,49
2976,note_on,,,,,6,0,12,,,,13,,65,96
2976,note_on,,,,,6,0,11,,,,12,,33,49
2976,note_on,,,,,12,0,8,,,,7,,77,75
2976,note_on,,,,,12,0,3,,,,2,,77,62
2976,note_on,,,,,12,0,5,,,,4,,60,62
2976,note_on,,,,,12,0,9,,,,8,,69,75
2976,note_on,,,,,12,0,7,,,,6,,77,75
2976,note_on,,,,,6,0,2,,,,1,,69,127
2976,note_on,,,,,6,0,6,,,,5,,45,49
3018,note_off,,,,,42,0,11,,,,12,,33,0
3018,note_off,,,,,42,0,4,,,,3,,69,0
3018,note_off,,,,,42,0,9,,,,8,,69,0
3018,note_off,,,,,42,0,8,,,,7,,77,0
3018,note_off,,,,,42,0,10,,,,11,,45,0
3018,note_off,,,,,42,0,12,,,,13,,45,0
3018,note_off,,,,,42,0,3,,,,2,,77,0
3018,note_off,,,,,42,0,7,,,,6,,77,0
3018,note_off,,,,,42,0,1,,,,0,,72,0
3018,note_off,,,,,42,0,6,,,,5,,45,0
3024,note_on,,,,,6,0,8,,,,7,,79,75
3024,note_on,,,,,6,0,7,,,,6,,79,75
3024,note_on,,,,,6,0,10,,,,11,,41,49
3024,note_on,,,,,6,0,9,,,,8,,71,75
3024,note_on,,,,,6,0,3,,,,2,,79,62
3024,note_on,,,,,6,0,11,,,,12,,29,49
3024,note_on,,,,,6,0,12,,,,13,,41,96
3024,note_on,,,,,6,0,4,,,,3,,71,62
3024,note_on,,,,,6,0,6,,,,5,,41,49
3024,note_on,,,,,6,0,1,,,,0,,71,127
3060,note_off,,,,,84,0,5,,,,4,,60,0
3060,note_off,,,,,36,0,12,,,,13,,65,0
3060,note_off,,,,,0,0,12,,,,13,,72,0
3060,note_off,,,,,84,0,2,,,,1,,69,0
3060,note_off,,,,,84,0,13,,,,14,,60,0
3066,note_off,,,,,42,0,8,,,,7,,79,0
3066,note_off,,,,,6,0,12,,,,13,,41,0
3066,note_off,,,,,42,0,10,,,,11,,41,0
3066,note_off,,,,,42,0,11,,,,12,,29,0
3066,note_off,,,,,42,0,4,,,,3,,71,0
3066,note_off,,,,,42,0,1,,,,0,,71,0
3066,note_off,,,,,42,0,3,,,,2,,79,0
3066,note_off,,,,,42,0,6,,,,5,,41,0
3066,note_off,,,,,42,0,9,,,,8,,71,0
3066,note_off,,,,,42,0,7,,,,6,,79,0
3072,note_on,,,,,6,0,10,,,,11,,43,49
3072,note_on,,,,,6,0,1,,,,0,,71,127
3072,note_on,,,,,6,0,11,,,,12,,31,49
3072,note_on,,,,,12,0,2,,,,1,,67,127
3072,note_on,,,,,0,0,12,,,,13,,43,96
3072,note_on,,,,,6,0,9,,,,8,,71,75
3072,note_on,,,,,6,0,4,,,,3,,72,62
3072,note_on,,,,,6,0,8,,,,7,,74,75
3072,note_on,,,,,6,0,6,,,,5,,43,49
3072,note_on,,,,,12,0,13,,,,14,,67,75
3072,note_on,,,,,6,0,3,,,,2,,74,62
3072,note_on,,,,,6,0,12,,,,13,,62,96
3072,note_on,,,,,12,0,5,,,,4,,67,62
3072,note_on,,,,,6,0,7,,,,6,,74,75
3072,note_on,,,,,0,0,12,,,,13,,70,96
3082,note_off,,,,,10,0,4,,,,3,,72,0
3084,note_on,,,,,2,0,4,,,,3,,71,62
3094,note_off,,,,,10,0,4,,,,3,,71,0
3096,note_on,,,,,2,0,4,,,,3,,72,62
3106,note_off,,,,,10,0,4,,,,3,,72,0
3108,note_on,,,,,2,0,4,,,,3,,71,62
3114,note_off,,,,,42,0,2,,,,1,,67,0
3118,note_off,,,,,10,0,4,,,,3,,71,0
3120,note_on,,,,,6,0,2,,,,1,,67,127
3120,note_on,,,,,2,0,4,,,,3,,72,62
3130,note_off,,,,,10,0,4,,,,3,,72,0
3132,note_on,,,,,2,0,4,,,,3,,71,62
3142,note_off,,,,,10,0,4,,,,3,,71,0
3144,note_on,,,,,2,0,4,,,,3,,72,62
3154,note_off,,,,,10,0,4,,,,3,,72,0
3156,note_on,,,,,2,0,4,,,,3,,71,62
3156,note_off,,,,,84,0,5,,,,4,,67,0
3156,note_off,,,,,0,0,12,,,,13,,43,0
3156,note_off,,,,,84,0,6,,,,5,,43,0
3156,note_off,,,,,84,0,10,,,,11,,43,0
3156,note_off,,,,,84,0,13,,,,14,,67,0
3156,note_off,,,,,84,0,11,,,,12,,31,0
3156,note_off,,,,,0,0,12,,,,13,,70,0
3156,note_off,,,,,84,0,12,,,,13,,62,0
3162,note_off,,,,,42,0,2,,,,1,,67,0
3166,note_off,,,,,10,0,4,,,,3,,71,0
3168,note_on,,,,,12,0,10,,,,11,,43,49
3168,note_on,,,,,12,0,6,,,,5,,43,49
3168,note_on,,,,,12,0,13,,,,14,,65,75
3168,note_on,,,,,12,0,5,,,,4,,65,62
3168,note_on,,,,,2,0,4,,,,3,,72,62
3168,note_on,,,,,0,0,12,,,,13,,43,96
3168,note_on,,,,,0,0,12,,,,13,,70,96
3168,note_on,,,,,12,0,11,,,,12,,31,49
3168,note_on,,,,,12,0,12,,,,13,,65,96
3168,note_on,,,,,6,0,2,,,,1,,67,127
3178,note_off,,,,,10,0,4,,,,3,,72,0
3180,note_on,,,,,2,0,4,,,,3,,71,62
3190,note_off,,,,,10,0,4,,,,3,,71,0
3192,note_on,,,,,2,0,4,,,,3,,72,62
3202,note_off,,,,,10,0,4,,,,3,,72,0
3204,note_off,,,,,132,0,9,,,,8,,71,0
3204,note_off,,,,,132,0,8,,,,7,,74,0
3204,note_off,,,,,132,0,7,,,,6,,74,0
3204,note_on,,,,,2,0,4,,,,3,,71,62
3204,note_off,,,,,132,0,1,,,,0,,71,0
3204,note_off,,,,,132,0,3,,,,2,,74,0
3210,note_off,,,,,42,0,2,,,,1,,67,0
3214,note_off,,,,,10,0,4,,,,3,,71,0
3216,note_on,,,,,6,0,2,,,,1,,67,127
3216,note_on,,,,,12,0,9,,,,8,,67,75
3216,note_on,,,,,12,0,1,,,,0,,72,127
3216,note_on,,,,,2,0,4,,,,3,,67,62
3216,note_on,,,,,12,0,7,,,,6,,72,75
3216,note_on,,,,,12,0,8,,,,7,,72,75
3216,note_on,,,,,12,0,3,,,,2,,72,62
3252,note_off,,,,,84,0,11,,,,12,,31,0
3252,note_off,,,,,84,0,5,,,,4,,65,0
3252,note_off,,,,,84,0,10,,,,11,,43,0
3252,note_off,,,,,0,0,12,,,,13,,43,0
3252,note_off,,,,,84,0,12,,,,13,,65,0
3252,note_off,,,,,84,0,13,,,,14,,65,0
3252,note_off,,,,,84,0,6,,,,5,,43,0
3252,note_off,,,,,0,0,12,,,,13,,70,0
3258,note_off,,,,,42,0,2,,,,1,,67,0
3258,note_off,,,,,42,0,7,,,,6,,72,0
3258,note_off,,,,,42,0,3,,,,2,,72,0
3258,note_off,,,,,42,0,8,,,,7,,72,0
3258,note_off,,,,,42,0,4,,,,3,,67,0
3258,note_off,,,,,42,0,9,,,,8,,67,0
3258,note_off,,,,,42,0,1,,,,0,,72,0
3264,note_on,,,,,6,0,2,,,,1,,67,127
3264,note_on,,,,,12,0,11,,,,12,,24,49
3264,note_on,,,,,6,0,8,,,,7,,72,75
3264,note_on,,,,,6,0,7,,,,6,,72,75
3264,note_on,,,,,0,0,12,,,,13,,76,96
3264,note_on,,,,,0,0,12,,,,13,,36,96
3264,note_on,,,,,12,0,5,,,,4,,64,62
3264,note_on,,,,,12,0,6,,,,5,,36,49
3264,note_on,,,,,12,0,10,,,,11,,36,49
3264,note_on,,,,,6,0,4,,,,3,,67,62
3264,note_on,,,,,6,0,3,,,,2,,72,62
3264,note_on,,,,,12,0,13,,,,14,,64,75
3264,note_on,,,,,6,0,9,,,,8,,67,75
3264,note_on,,,,,12,0,12,,,,13,,67,96
3264,note_on,,,,,6,0,1,,,,0,,72,127
3348,note_off,,,,,0,0,12,,,,13,,76,0
3348,note_off,,,,,84,0,12,,,,13,,67,0
3348,note_off,,,,,0,0,12,,,,13,,36,0
3348,note_off,,,,,84,0,6,,,,5,,36,0
3348,note_off,,,,,84,0,11,,,,12,,24,0
3348,note_off,,,,,84,0,10,,,,11,,36,0
3360,note_on,,,,,12,0,6,,,,5,,48,49
3360,note_on,,,,,12,0,10,,,,11,,48,49
3360,note_on,,,,,12,0,11,,,,12,,36,49
3360,note_on,,,,,0,0,12,,,,13,,48,96
3360,note_on,,,,,12,0,12,,,,13,,60,96
3402,note_off,,,,,0,0,12,,,,13,,48,0
3402,note_off,,,,,42,0,12,,,,13,,60,0
3402,note_off,,,,,42,0,6,,,,5,,48,0
3402,note_off,,,,,42,0,10,,,,11,,48,0
3402,note_off,,,,,42,0,11,,,,12,,36,0
3408,note_on,,,,,6,0,11,,,,12,,34,49
3408,note_on,,,,,6,0,6,,,,5,,46,49
3408,note_on,,,,,6,0,10,,,,11,,46,49
3408,note_on,,,,,6,0,12,,,,13,,58,96
3408,note_on,,,,,0,0,12,,,,13,,46,96
3450,note_off,,,,,42,0,11,,,,12,,34,0
3450,note_off,,,,,42,0,10,,,,11,,46,0
3450,note_off,,,,,42,0,6,,,,5,,46,0
3450,note_off,,,,,42,0,12,,,,13,,58,0
3450,note_off,,,,,0,0,12,,,,13,,46,0
3456,note_on,,,,,6,0,11,,,,12,,33,49
3456,note_on,,,,,6,0,12,,,,13,,57,96
3456,note_on,,,,,6,0,6,,,,5,,45,49
3456,note_on,,,,,0,0,12,,,,13,,45,96
3456,note_on,,,,,6,0,10,,,,11,,45,49
3498,note_off,,,,,42,0,10,,,,11,,45,0
3498,note_off,,,,,42,0,6,,,,5,,45,0
3498,note_off,,,,,0,0,12,,,,13,,45,0
3498,note_off,,,,,42,0,12,,,,13,,57,0
3498,note_off,,,,,42,0,11,,,,12,,33,0
3504,note_on,,,,,6,0,6,,,,5,,43,49
3504,note_on,,,,,6,0,10,,,,11,,43,49
3504,note_on,,,,,6,0,11,,,,12,,31,49
3504,note_on,,,,,0,0,12,,,,13,,43,96
3504,note_on,,,,,6,0,12,,,,13,,55,96
3540,note_off,,,,,276,0,4,,,,3,,67,0
3540,note_off,,,,,276,0,9,,,,8,,67,0
3540,note_off,,,,,276,0,3,,,,2,,72,0
3540,note_off,,,,,276,0,2,,,,1,,67,0
3540,note_off,,,,,276,0,13,,,,14,,64,0
3540,note_off,,,,,276,0,5,,,,4,,64,0
3540,note_off,,,,,276,0,7,,,,6,,72,0
3540,note_off,,,,,276,0,8,,,,7,,72,0
3540,note_off,,,,,276,0,1,,,,0,,72,0
3546,note_off,,,,,42,0,10,,,,11,,43,0
3546,note_off,,,,,42,0,12,,,,13,,55,0
3546,note_off,,,,,42,0,11,,,,12,,31,0
3546,note_off,,,,,42,0,6,,,,5,,43,0
3546,note_off,,,,,0,0,12,,,,13,,43,0
3552,note_on,,,,,12,0,13,,,,14,,65,75
3552,note_on,,,,,6,0,6,,,,5,,41,49
3552,note_on,,,,,12,0,4,,,,3,,69,62
3552,note_on,,,,,6,0,10,,,,11,,41,49
3552,note_on,,,,,0,0,12,,,,13,,41,96
3552,note_on,,,,,6,0,12,,,,13,,60,96
3552,note_on,,,,,12,0,7,,,,6,,72,75
3552,note_on,,,,,12,0,9,,,,8,,69,75
3552,note_on,,,,,12,0,5,,,,4,,65,62
3552,note_on,,,,,12,0,8,,,,7,,72,75
3552,note_on,,,,,6,0,11,,,,12,,29,49
3552,note_on,,,,,0,0,12,,,,13,,69,96
3552,note_on,,,,,12,0,1,,,,0,,53,127
3552,note_on,,,,,12,0,3,,,,2,,72,62
3636,note_off,,,,,0,0,12,,,,13,,41,0
3636,note_off,,,,,84,0,7,,,,6,,72,0
3636,note_off,,,,,84,0,6,,,,5,,41,0
3636,note_off,,,,,0,0,12,,,,13,,69,0
3636,note_off,,,,,84,0,9,,,,8,,69,0
3636,note_off,,,,,84,0,1,,,,0,,53,0
3636,note_off,,,,,84,0,4,,,,3,,69,0
3636,note_off,,,,,84,0,12,,,,13,,60,0
3636,note_off,,,,,84,0,10,,,,11,,41,0
3636,note_off,,,,,84,0,8,,,,7,,72,0
3636,note_off,,,,,84,0,11,,,,12,,29,0
3636,note_off,,,,,84,0,3,,,,2,,72,0
3648,note_on,,,,,12,0,3,,,,2,,75,62
3648,note_on,,,,,12,0,4,,,,3,,72,62
3648,note_on,,,,,12,0,11,,,,12,,45,49
3648,note_on,,,,,12,0,1,,,,0,,53,127
3648,note_on,,,,,12,0,7,,,,6,,75,75
3648,note_on,,,,,12,0,8,,,,7,,75,75
3648,note_on,,,,,12,0,10,,,,11,,57,49
3648,note_on,,,,,0,0,12,,,,13,,57,96
3648,note_on,,,,,0,0,12,,,,13,,72,96
3648,note_on,,,,,12,0,12,,,,13,,63,96
3648,note_on,,,,,12,0,9,,,,8,,72,75
3648,note_on,,,,,12,0,6,,,,5,,57,49
3690,note_off,,,,,42,0,1,,,,0,,53,0
3696,note_on,,,,,6,0,1,,,,0,,53,127
3732,note_off,,,,,84,0,8,,,,7,,75,0
3732,note_off,,,,,84,0,6,,,,5,,57,0
3732,note_off,,,,,84,0,7,,,,6,,75,0
3732,note_off,,,,,84,0,12,,,,13,,63,0
3732,note_off,,,,,84,0,11,,,,12,,45,0
3732,note_off,,,,,84,0,3,,,,2,,75,0
3732,note_off,,,,,180,0,5,,,,4,,65,0
3732,note_off,,,,,0,0,12,,,,13,,72,0
3732,note_off,,,,,180,0,13,,,,14,,65,0
3732,note_off,,,,,84,0,9,,,,8,,72,0
3732,note_off,,,,,0,0,12,,,,13,,57,0
3732,note_off,,,,,84,0,10,,,,11,,57,0
3732,note_off,,,,,84,0,4,,,,3,,72,0
3738,note_off,,,,,42,0,1,,,,0,,53,0
3744,note_on,,,,,12,0,12,,,,13,,65,96
3744,note_on,,,,,0,0,12,,,,13,,58,96
3744,note_on,,,,,6,0,1,,,,0,,53,127
3744,note_on,,,,,12,0,8,,,,7,,74,75
3744,note_on,,,,,0,0,12,,,,13,,74,96
3744,note_on,,,,,12,0,5,,,,4,,65,62
3744,note_on,,,,,12,0,11,,,,12,,46,49
3744,note_on,,,,,12,0,13,,,,14,,65,75
3744,note_on,,,,,12,0,10,,,,11,,58,49
3744,note_on,,,,,12,0,6,,,,5,,58,49
3744,note_on,,,,,12,0,7,,,,6,,74,75
3744,note_on,,,,,12,0,3,,,,2,,74,62
3744,note_on,,,,,12,0,4,,,,3,,70,62
3744,note_on,,,,,12,0,9,,,,8,,70,75
3786,note_off,,,,,42,0,1,,,,0,,53,0
3792,note_on,,,,,6,0,1,,,,0,,53,127
3828,note_off,,,,,84,0,9,,,,8,,70,0
3828,note_off,,,,,84,0,6,,,,5,,58,0
3828,note_off,,,,,84,0,3,,,,2,,74,0
3828,note_off,,,,,84,0,11,,,,12,,46,0
3828,note_off,,,,,84,0,5,,,,4,,65,0
3828,note_off,,,,,84,0,7,,,,6,,74,0
3828,note_off,,,,,84,0,4,,,,3,,70,0
3828,note_off,,,,,84,0,10,,,,11,,58,0
3828,note_off,,,,,84,0,12,,,,13,,65,0
3828,note_off,,,,,0,0,12,,,,13,,74,0
3828,note_off,,,,,0,0,12,,,,13,,58,0
3828,note_off,,,,,84,0,13,,,,14,,65,0
3828,note_off,,,,,84,0,8,,,,7,,74,0
3834,note_off,,,,,42,0,1,,,,0,,53,0
3840,note_on,,,,,12,0,5,,,,4,,63,62
3840,note_on,,,,,12,0,7,,,,6,,72,75
3840,note_on,,,,,6,0,1,,,,0,,53,127
3840,note_on,,,,,12,0,9,,,,8,,69,75
3840,note_on,,,,,12,0,8,,,,7,,72,75
3840,note_on,,,,,12,0,13,,,,14,,65,75
3840,note_on,,,,,12,0,10,,,,11,,60,49
3840,note_on,,,,,0,0,12,,,,13,,60,96
3840,note_on,,,,,12,0,12,,,,13,,69,96
3840,note_on,,,,,300,0,2,,,,1,,53,127
3840,note_on,,,,,12,0,3,,,,2,,72,62
3840,note_on,,,,,0,0,12,,,,13,,75,96
3840,note_on,,,,,12,0,11,,,,12,,48,49
3840,note_on,,,,,12,0,6,,,,5,,60,49
3840,note_on,,,,,12,0,4,,,,3,,69,62
3850,note_off,,,,,10,0,13,,,,14,,65,0
3852,note_on,,,,,2,0,13,,,,14,,63,75
3862,note_off,,,,,10,0,13,,,,14,,63,0
3864,note_on,,,,,2,0,13,,,,14,,65,75
3874,note_off,,,,,10,0,13,,,,14,,65,0
3876,note_on,,,,,2,0,13,,,,14,,63,75
3886,note_off,,,,,10,0,13,,,,14,,63,0
3888,note_on,,,,,2,0,13,,,,14,,65,75
3898,note_off,,,,,10,0,13,,,,14,,65,0
3900,note_on,,,,,2,0,13,,,,14,,63,75
3910,note_off,,,,,10,0,13,,,,14,,63,0
3912,note_on,,,,,2,0,13,,,,14,,65,75
3922,note_off,,,,,10,0,13,,,,14,,65,0
3924,note_off,,,,,84,0,11,,,,12,,48,0
3924,note_off,,,,,84,0,6,,,,5,,60,0
3924,note_on,,,,,2,0,13,,,,14,,63,75
3924,note_off,,,,,84,0,12,,,,13,,69,0
3924,note_off,,,,,0,0,12,,,,13,,60,0
3924,note_off,,,,,84,0,10,,,,11,,60,0
3924,note_off,,,,,84,0,3,,,,2,,72,0
3924,note_off,,,,,84,0,7,,,,6,,72,0
3924,note_off,,,,,84,0,5,,,,4,,63,0
3924,note_off,,,,,84,0,9,,,,8,,69,0
3924,note_off,,,,,84,0,1,,,,0,,53,0
3924,note_off,,,,,0,0,12,,,,13,,75,0
3924,note_off,,,,,84,0,2,,,,1,,53,0
3924,note_off,,,,,84,0,4,,,,3,,69,0
3924,note_off,,,,,84,0,8,,,,7,,72,0
3934,note_off,,,,,10,0,13,,,,14,,63,0
3936,note_on,,,,,2,0,13,,,,14,,62,75
3936,note_on,,,,,12,0,12,,,,13,,70,96
3936,note_on,,,,,0,0,12,,,,13,,75,96
3936,note_on,,,,,12,0,4,,,,3,,65,62
3936,note_on,,,,,12,0,8,,,,7,,70,75
3936,note_on,,,,,12,0,11,,,,12,,51,49
3936,note_on,,,,,0,0,12,,,,13,,63,96
3936,note_on,,,,,12,0,2,,,,1,,53,127
3936,note_on,,,,,12,0,10,,,,11,,63,49
3936,note_on,,,,,12,0,9,,,,8,,65,75
3936,note_on,,,,,12,0,6,,,,5,,63,49
3936,note_on,,,,,12,0,3,,,,2,,70,62
3936,note_on,,,,,12,0,7,,,,6,,70,75
3936,note_on,,,,,12,0,5,,,,4,,62,62
3978,note_off,,,,,42,0,2,,,,1,,53,0
3978,note_off,,,,,42,0,7,,,,6,,70,0
3978,note_off,,,,,42,0,3,,,,2,,70,0
3978,note_off,,,,,42,0,13,,,,14,,62,0
3978,note_off,,,,,42,0,8,,,,7,,70,0
3978,note_off,,,,,42,0,5,,,,4,,62,0
3984,note_on,,,,,6,0,3,,,,2,,69,62
3984,note_on,,,,,6,0,8,,,,7,,69,75
3984,note_on,,,,,6,0,13,,,,14,,60,75
3984,note_on,,,,,6,0,7,,,,6,,69,75
3984,note_on,,,,,6,0,5,,,,4,,60,62
3984,note_on,,,,,6,0,2,,,,1,,53,127
4020,note_off,,,,,84,0,10,,,,11,,63,0
4020,note_off,,,,,84,0,4,,,,3,,65,0
4020,note_off,,,,,0,0,12,,,,13,,63,0
4020,note_off,,,,,84,0,12,,,,13,,70,0
4020,note_off,,,,,0,0,12,,,,13,,75,0
4020,note_off,,,,,84,0,9,,,,8,,65,0
4020,note_off,,,,,84,0,11,,,,12,,51,0
4020,note_off,,,,,84,0,6,,,,5,,63,0
4026,note_off,,,,,42,0,3,,,,2,,69,0
4026,note_off,,,,,42,0,8,,,,7,,69,0
4026,note_off,,,,,42,0,5,,,,4,,60,0
4026,note_off,,,,,42,0,7,,,,6,,69,0
4026,note_off,,,,,42,0,13,,,,14,,60,0
4026,note_off,,,,,42,0,2,,,,1,,53,0
4032,note_on,,,,,6,0,2,,,,1,,53,127
4032,note_on,,,,,6,0,13,,,,14,,62,75
4032,note_on,,,,,6,0,5,,,,4,,62,62
4032,note_on,,,,,6,0,7,,,,6,,70,75
4032,note_on,,,,,6,0,8,,,,7,,70,75
4032,note_on,,,,,12,0,12,,,,13,,62,96
4032,note_on,,,,,0,0,12,,,,13,,70,96
4032,note_on,,,,,12,0,6,,,,5,,62,49
4032,note_on,,,,,12,0,11,,,,12,,50,49
4032,note_on,,,,,12,0,9,,,,8,,65,75
4032,note_on,,,,,12,0,10,,,,11,,62,49
4032,note_on,,,,,12,0,4,,,,3,,65,62
4032,note_on,,,,,0,0,12,,,,13,,62,96
4032,note_on,,,,,6,0,3,,,,2,,70,62
4074,note_off,,,,,42,0,2,,,,1,,53,0
4080,note_on,,,,,6,0,2,,,,1,,53,127
4116,note_off,,,,,84,0,8,,,,7,,70,0
4116,note_off,,,,,84,0,5,,,,4,,62,0
4116,note_off,,,,,84,0,6,,,,5,,62,0
4116,note_off,,,,,84,0,13,,,,14,,62,0
4116,note_off,,,,,84,0,12,,,,13,,62,0
4116,note_off,,,,,84,0,7,,,,6,,70,0
4116,note_off,,,,,84,0,11,,,,12,,50,0
4116,note_off,,,,,84,0,3,,,,2,,70,0
4116,note_off,,,,,84,0,9,,,,8,,65,0
4116,note_off,,,,,0,0,12,,,,13,,62,0
4116,note_off,,,,,0,0,12,,,,13,,70,0
4116,note_off,,,,,84,0,4,,,,3,,65,0
4116,note_off,,,,,84,0,10,,,,11,,62,0
4122,note_off,,,,,42,0,2,,,,1,,53,0
4128,note_on,,,,,12,0,10,,,,11,,60,49
4128,note_on,,,,,0,0,12,,,,13,,60,96
4128,note_on,,,,,0,0,12,,,,13,,75,96
4128,note_on,,,,,12,0,12,,,,13,,69,96
4128,note_on,,,,,204,0,1,,,,0,,53,127
4128,note_on,,,,,12,0,11,,,,12,,48,49
4128,note_on,,,,,12,0,4,,,,3,,69,62
4128,note_on,,,,,12,0,13,,,,14,,63,75
4128,note_on,,,,,12,0,3,,,,2,,72,62
4128,note_on,,,,,6,0,2,,,,1,,53,127
4128,note_on,,,,,12,0,7,,,,6,,72,75
4128,note_on,,,,,12,0,9,,,,8,,69,75
4128,note_on,,,,,12,0,8,,,,7,,72,75
4128,note_on,,,,,12,0,5,,,,4,,63,62
4128,note_on,,,,,12,0,6,,,,5,,60,49
4212,note_off,,,,,84,0,8,,,,7,,72,0
4212,note_off,,,,,84,0,1,,,,0,,53,0
4212,note_off,,,,,84,0,7,,,,6,,72,0
4212,note_off,,,,,84,0,13,,,,14,,63,0
4212,note_off,,,,,84,0,6,,,,5,,60,0
4212,note_off,,,,,0,0,12,,,,13,,75,0
4212,note_off,,,,,84,0,12,,,,13,,69,0
4212,note_off,,,,,84,0,11,,,,12,,48,0
4212,note_off,,,,,84,0,2,,,,1,,53,0
4212,note_off,,,,,84,0,4,,,,3,,69,0
4212,note_off,,,,,0,0,12,,,,13,,60,0
4212,note_off,,,,,84,0,5,,,,4,,63,0
4212,note_off,,,,,84,0,3,,,,2,,72,0
4212,note_off,,,,,84,0,10,,,,11,,60,0
4212,note_off,,,,,84,0,9,,,,8,,69,0
4224,note_on,,,,,12,0,4,,,,3,,72,62
4224,note_on,,,,,12,0,12,,,,13,,63,96
4224,note_on,,,,,0,0,12,,,,13,,72,96
4224,note_on,,,,,0,0,12,,,,13,,58,96
4224,note_on,,,,,12,0,3,,,,2,,75,62
4224,note_on,,,,,12,0,10,,,,11,,58,49
4224,note_on,,,,,12,0,9,,,,8,,72,75
4224,note_on,,,,,12,0,11,,,,12,,46,49
4224,note_on,,,,,12,0,7,,,,6,,75,75
4224,note_on,,,,,12,0,6,,,,5,,58,49
4224,note_on,,,,,12,0,8,,,,7,,75,75
4224,note_on,,,,,12,0,5,,,,4,,60,62
4224,note_on,,,,,12,0,13,,,,14,,60,75
4224,note_on,,,,,12,0,1,,,,0,,53,127
4266,note_off,,,,,42,0,1,,,,0,,53,0
4266,note_off,,,,,42,0,12,,,,13,,58,0
4266,note_off,,,,,42,0,11,,,,12,,46,0
4266,note_off,,,,,42,0,10,,,,11,,58,0
4266,note_off,,,,,42,0,6,,,,5,,58,0
4272,note_on,,,,,6,0,12,,,,13,,57,96
4272,note_on,,,,,6,0,11,,,,12,,45,49
4272,note_on,,,,,6,0,1,,,,0,,53,127
4272,note_on,,,,,6,0,6,,,,5,,57,49
4272,note_on,,,,,6,0,10,,,,11,,57,49
4308,note_off,,,,,84,0,13,,,,14,,60,0
4308,note_off,,,,,84,0,4,,,,3,,72,0
4308,note_off,,,,,84,0,9,,,,8,,72,0
4308,note_off,,,,,84,0,7,,,,6,,75,0
4308,note_off,,,,,84,0,5,,,,4,,60,0
4308,note_off,,,,,84,0,8,,,,7,,75,0
4308,note_off,,,,,84,0,3,,,,2,,75,0
4308,note_off,,,,,36,0,12,,,,13,,63,0
4308,note_off,,,,,0,0,12,,,,13,,72,0
4314,note_off,,,,,42,0,1,,,,0,,53,0
4314,note_off,,,,,42,0,10,,,,11,,57,0
4314,note_off,,,,,42,0,6,,,,5,,57,0
4314,note_off,,,,,42,0,11,,,,12,,45,0
4314,note_off,,,,,6,0,12,,,,13,,57,0
4320,note_on,,,,,6,0,10,,,,11,,58,49
4320,note_on,,,,,12,0,13,,,,14,,65,75
4320,note_on,,,,,12,0,4,,,,3,,70,62
4320,note_on,,,,,6,0,12,,,,13,,65,96
4320,note_on,,,,,12,0,9,,,,8,,70,75
4320,note_on,,,,,0,0,12,,,,13,,58,96
4320,note_on,,,,,12,0,5,,,,4,,65,62
4320,note_on,,,,,12,0,3,,,,2,,74,62
4320,note_on,,,,,6,0,11,,,,12,,46,49
4320,note_on,,,,,6,0,6,,,,5,,58,49
4320,note_on,,,,,12,0,8,,,,7,,74,75
4320,note_on,,,,,6,0,1,,,,0,,53,127
4320,note_on,,,,,0,0,12,,,,13,,74,96
4320,note_on,,,,,12,0,7,,,,6,,74,75
4362,note_off,,,,,42,0,1,,,,0,,53,0
4368,note_on,,,,,6,0,1,,,,0,,53,127
4404,note_off,,,,,84,0,3,,,,2,,74,0
4404,note_off,,,,,84,0,10,,,,11,,58,0
4404,note_off,,,,,84,0,11,,,,12,,46,0
4404,note_off,,,,,84,0,9,,,,8,,70,0
4404,note_off,,,,,0,0,12,,,,13,,58,0
4404,note_off,,,,,0,0,12,,,,13,,74,0
4404,note_off,,,,,84,0,6,,,,5,,58,0
4404,note_off,,,,,84,0,8,,,,7,,74,0
4404,note_off,,,,,84,0,12,,,,13,,65,0
4404,note_off,,,,,84,0,13,,,,14,,65,0
4404,note_off,,,,,84,0,7,,,,6,,74,0
4404,note_off,,,,,84,0,4,,,,3,,70,0
4404,note_off,,,,,84,0,5,,,,4,,65,0
4410,note_off,,,,,42,0,1,,,,0,,53,0
4416,note_on,,,,,12,0,8,,,,7,,74,75
4416,note_on,,,,,12,0,11,,,,12,,45,49
4416,note_on,,,,,6,0,1,,,,0,,53,127
4416,note_on,,,,,204,0,2,,,,1,,53,127
4416,note_on,,,,,12,0,13,,,,14,,65,75
4416,note_on,,,,,0,0,12,,,,13,,72,96
4416,note_on,,,,,0,0,12,,,,13,,57,96
4416,note_on,,,,,12,0,3,,,,2,,74,62
4416,note_on,,,,,12,0,5,,,,4,,65,62
4416,note_on,,,,,12,0,10,,,,11,,57,49
4416,note_on,,,,,12,0,7,,,,6,,74,75
4416,note_on,,,,,12,0,12,,,,13,,65,96
4416,note_on,,,,,12,0,6,,,,5,,57,49
4416,note_on,,,,,12,0,4,,,,3,,72,62
4416,note_on,,,,,12,0,9,,,,8,,72,75
4426,note_off,,,,,10,0,3,,,,2,,74,0
4426,note_off,,,,,10,0,7,,,,6,,74,0
4426,note_off,,,,,10,0,8,,,,7,,74,0
4428,note_on,,,,,2,0,3,,,,2,,72,62
4428,note_on,,,,,2,0,8,,,,7,,72,75
4428,note_on,,,,,2,0,7,,,,6,,72,75
4438,note_off,,,,,10,0,7,,,,6,,72,0
4438,note_off,,,,,10,0,3,,,,2,,72,0
4438,note_off,,,,,10,0,8,,,,7,,72,0
4440,note_on,,,,,2,0,7,,,,6,,74,75
4440,note_on,,,,,2,0,3,,,,2,,74,62
4440,note_on,,,,,2,0,8,,,,7,,74,75
4450,note_off,,,,,10,0,8,,,,7,,74,0
4450,note_off,,,,,10,0,3,,,,2,,74,0
4450,note_off,,,,,10,0,7,,,,6,,74,0
4452,note_on,,,,,2,0,3,,,,2,,72,62
4452,note_on,,,,,2,0,7,,,,6,,72,75
4452,note_on,,,,,2,0,8,,,,7,,72,75
4462,note_off,,,,,10,0,7,,,,6,,72,0
4462,note_off,,,,,10,0,8,,,,7,,72,0
4462,note_off,,,,,10,0,3,,,,2,,72,0
4464,note_on,,,,,2,0,3,,,,2,,74,62
4464,note_on,,,,,2,0,8,,,,7,,74,75
4464,note_on,,,,,2,0,7,,,,6,,74,75
4474,note_off,,,,,10,0,7,,,,6,,74,0
4474,note_off,,,,,10,0,8,,,,7,,74,0
4474,note_off,,,,,10,0,3,,,,2,,74,0
4476,note_on,,,,,2,0,3,,,,2,,72,62
4476,note_on,,,,,2,0,8,,,,7,,72,75
4476,note_on,,,,,2,0,7,,,,6,,72,75
4486,note_off,,,,,10,0,3,,,,2,,72,0
4486,note_off,,,,,10,0,8,,,,7,,72,0
4486,note_off,,,,,10,0,7,,,,6,,72,0
4488,note_on,,,,,2,0,3,,,,2,,74,62
4488,note_on,,,,,2,0,7,,,,6,,74,75
4488,note_on,,,,,2,0,8,,,,7,,74,75
4498,note_off,,,,,10,0,3,,,,2,,74,0
4498,note_off,,,,,10,0,7,,,,6,,74,0
4498,note_off,,,,,10,0,8,,,,7,,74,0
4500,note_off,,,,,84,0,4,,,,3,,72,0
4500,note_off,,,,,84,0,6,,,,5,,57,0
4500,note_off,,,,,0,0,12,,,,13,,57,0
4500,note_off,,,,,84,0,1,,,,0,,53,0
4500,note_off,,,,,84,0,2,,,,1,,53,0
4500,note_on,,,,,2,0,7,,,,6,,72,75
4500,note_on,,,,,2,0,3,,,,2,,72,62
4500,note_off,,,,,84,0,9,,,,8,,72,0
4500,note_off,,,,,84,0,11,,,,12,,45,0
4500,note_off,,,,,84,0,10,,,,11,,57,0
4500,note_off,,,,,84,0,12,,,,13,,65,0
4500,note_on,,,,,2,0,8,,,,7,,72,75
4500,note_off,,,,,0,0,12,,,,13,,72,0
4510,note_off,,,,,10,0,8,,,,7,,72,0
4510,note_off,,,,,10,0,3,,,,2,,72,0
4510,note_off,,,,,10,0,7,,,,6,,72,0
4512,note_on,,,,,12,0,4,,,,3,,70,62
4512,note_on,,,,,0,0,12,,,,13,,70,96
4512,note_on,,,,,12,0,9,,,,8,,70,75
4512,note_on,,,,,12,0,6,,,,5,,58,49
4512,note_on,,,,,2,0,3,,,,2,,74,62
4512,note_on,,,,,12,0,10,,,,11,,58,49
4512,note_on,,,,,12,0,2,,,,1,,53,127
4512,note_on,,,,,0,0,12,,,,13,,58,96
4512,note_on,,,,,2,0,7,,,,6,,74,75
4512,note_on,,,,,12,0,12,,,,13,,65,96
4512,note_on,,,,,2,0,8,,,,7,,74,75
4512,note_on,,,,,12,0,11,,,,12,,46,49
4522,note_off,,,,,10,0,8,,,,7,,74,0
4522,note_off,,,,,10,0,3,,,,2,,74,0
4522,note_off,,,,,10,0,7,,,,6,,74,0
4524,note_on,,,,,2,0,8,,,,7,,72,75
4524,note_on,,,,,2,0,3,,,,2,,72,62
4524,note_on,,,,,2,0,7,,,,6,,72,75
4534,note_off,,,,,10,0,3,,,,2,,72,0
4534,note_off,,,,,10,0,8,,,,7,,72,0
4534,note_off,,,,,10,0,7,,,,6,,72,0
4536,note_on,,,,,2,0,8,,,,7,,74,75
4536,note_on,,,,,2,0,3,,,,2,,74,62
4536,note_on,,,,,2,0,7,,,,6,,74,75
4546,note_off,,,,,10,0,8,,,,7,,74,0
4546,note_off,,,,,10,0,3,,,,2,,74,0
4546,note_off,,,,,10,0,7,,,,6,,74,0
4548,note_on,,,,,2,0,3,,,,2,,72,62
4548,note_on,,,,,2,0,7,,,,6,,72,75
4548,note_on,,,,,2,0,8,,,,7,,72,75
4554,note_off,,,,,42,0,11,,,,12,,46,0
4554,note_off,,,,,42,0,10,,,,11,,58,0
4554,note_off,,,,,42,0,2,,,,1,,53,0
4554,note_off,,,,,42,0,6,,,,5,,58,0
4554,note_off,,,,,42,0,12,,,,13,,58,0
4558,note_off,,,,,10,0,7,,,,6,,72,0
4558,note_off,,,,,10,0,3,,,,2,,72,0
4558,note_off,,,,,10,0,8,,,,7,,72,0
4560,note_on,,,,,6,0,10,,,,11,,57,49
4560,note_on,,,,,2,0,3,,,,2,,74,62
4560,note_on,,,,,6,0,11,,,,12,,45,49
4560,note_on,,,,,6,0,12,,,,13,,57,96
4560,note_on,,,,,6,0,2,,,,1,,53,127
4560,note_on,,,,,2,0,8,,,,7,,74,75
4560,note_on,,,,,2,0,7,,,,6,,74,75
4560,note_on,,,,,6,0,6,,,,5,,57,49
4570,note_off,,,,,10,0,7,,,,6,,74,0
4570,note_off,,,,,10,0,8,,,,7,,74,0
4570,note_off,,,,,10,0,3,,,,2,,74,0
4572,note_on,,,,,2,0,7,,,,6,,72,75
4572,note_on,,,,,2,0,8,,,,7,,72,75
4572,note_on,,,,,2,0,3,,,,2,,72,62
4582,note_off,,,,,10,0,8,,,,7,,72,0
4582,note_off,,,,,10,0,3,,,,2,,72,0
4582,note_off,,,,,10,0,7,,,,6,,72,0
4584,note_on,,,,,2,0,7,,,,6,,74,75
4584,note_on,,,,,2,0,8,,,,7,,74,75
4584,note_on,,,,,2,0,3,,,,2,,74,62
4594,note_off,,,,,10,0,7,,,,6,,74,0
4594,note_off,,,,,10,0,3,,,,2,,74,0
4594,note_off,,,,,10,0,8,,,,7,,74,0
4596,note_on,,,,,2,0,3,,,,2,,72,62
4596,note_off,,,,,84,0,4,,,,3,,70,0
4596,note_off,,,,,0,0,12,,,,13,,70,0
4596,note_off,,,,,36,0,12,,,,13,,65,0
4596,note_off,,,,,84,0,9,,,,8,,70,0
4596,note_off,,,,,180,0,5,,,,4,,65,0
4596,note_on,,,,,2,0,8,,,,7,,72,75
4596,note_on,,,,,2,0,7,,,,6,,72,75
4596,note_off,,,,,180,0,13,,,,14,,65,0
4602,note_off,,,,,42,0,6,,,,5,,57,0
4602,note_off,,,,,42,0,11,,,,12,,45,0
4602,note_off,,,,,6,0,12,,,,13,,57,0
4602,note_off,,,,,42,0,10,,,,11,,57,0
4602,note_off,,,,,42,0,2,,,,1,,53,0
4606,note_off,,,,,10,0,7,,,,6,,72,0
4606,note_off,,,,,10,0,8,,,,7,,72,0
4606,note_off,,,,,10,0,3,,,,2,,72,0
4608,note_on,,,,,2,0,7,,,,6,,77,75
4608,note_on,,,,,6,0,6,,,,5,,55,49
4608,note_on,,,,,12,0,13,,,,14,,60,75
4608,note_on,,,,,6,0,11,,,,12,,43,49
4608,note_on,,,,,2,0,3,,,,2,,77,62
4608,note_on,,,,,12,0,9,,,,8,,69,75
4608,note_on,,,,,12,0,5,,,,4,,60,62
4608,note_on,,,,,0,0,12,,,,13,,55,96
4608,note_on,,,,,6,0,12,,,,13,,60,96
4608,note_on,,,,,0,0,12,,,,13,,69,96
4608,note_on,,,,,6,0,2,,,,1,,53,127
4608,note_on,,,,,2,0,8,,,,7,,77,75
4608,note_on,,,,,6,0,10,,,,11,,55,49
4608,note_on,,,,,12,0,4,,,,3,,69,62
4650,note_off,,,,,42,0,10,,,,11,,55,0
4650,note_off,,,,,42,0,6,,,,5,,55,0
4650,note_off,,,,,42,0,2,,,,1,,53,0
4650,note_off,,,,,42,0,11,,,,12,,43,0
4650,note_off,,,,,42,0,12,,,,13,,55,0
4656,note_on,,,,,6,0,11,,,,12,,41,49
4656,note_on,,,,,6,0,2,,,,1,,53,127
4656,note_on,,,,,6,0,12,,,,13,,53,96
4656,note_on,,,,,6,0,10,,,,11,,53,49
4656,note_on,,,,,6,0,6,,,,5,,53,49
4692,note_off,,,,,84,0,4,,,,3,,69,0
4692,note_off,,,,,84,0,7,,,,6,,77,0
4692,note_off,,,,,84,0,5,,,,4,,60,0
4692,note_off,,,,,84,0,13,,,,14,,60,0
4692,note_off,,,,,84,0,3,,,,2,,77,0
4692,note_off,,,,,84,0,9,,,,8,,69,0
4692,note_off,,,,,84,0,8,,,,7,,77,0
4692,note_off,,,,,0,0,12,,,,13,,69,0
4692,note_off,,,,,36,0,12,,,,13,,60,0
4698,note_off,,,,,42,0,2,,,,1,,53,0
4698,note_off,,,,,42,0,10,,,,11,,53,0
4698,note_off,,,,,42,0,6,,,,5,,53,0
4698,note_off,,,,,42,0,11,,,,12,,41,0
4698,note_off,,,,,6,0,12,,,,13,,53,0
4704,note_on,,,,,6,0,6,,,,5,,52,49
4704,note_on,,,,,12,0,3,,,,2,,70,62
4704,note_on,,,,,6,0,10,,,,11,,53,49
4704,note_on,,,,,6,0,12,,,,13,,67,96
4704,note_on,,,,,12,0,13,,,,14,,60,75
4704,note_on,,,,,0,0,12,,,,13,,72,96
4704,note_on,,,,,12,0,9,,,,8,,67,75
4704,note_on,,,,,204,0,1,,,,0,,60,127
4704,note_on,,,,,0,0,12,,,,13,,53,96
4704,note_on,,,,,12,0,7,,,,6,,70,75
4704,note_on,,,,,6,0,2,,,,1,,60,127
4704,note_on,,,,,12,0,5,,,,4,,60,62
4704,note_on,,,,,6,0,11,,,,12,,41,49
4704,note_on,,,,,12,0,4,,,,3,,67,62
4704,note_on,,,,,12,0,8,,,,7,,70,75
4714,note_off,,,,,10,0,12,,,,13,,53,0
4714,note_off,,,,,10,0,10,,,,11,,53,0
4714,note_off,,,,,10,0,11,,,,12,,41,0
4716,note_on,,,,,2,0,12,,,,13,,52,96
4716,note_on,,,,,2,0,11,,,,12,,40,49
4716,note_on,,,,,2,0,10,,,,11,,52,49
4726,note_off,,,,,10,0,11,,,,12,,40,0
4726,note_off,,,,,10,0,10,,,,11,,52,0
4726,note_off,,,,,10,0,12,,,,13,,52,0
4728,note_on,,,,,2,0,12,,,,13,,53,96
4728,note_on,,,,,2,0,11,,,,12,,41,49
4728,note_on,,,,,2,0,10,,,,11,,53,49
4738,note_off,,,,,10,0,11,,,,12,,41,0
4738,note_off,,,,,10,0,12,,,,13,,53,0
4738,note_off,,,,,10,0,10,,,,11,,53,0
4740,note_on,,,,,2,0,12,,,,13,,52,96
4740,note_on,,,,,2,0,10,,,,11,,52,49
4740,note_on,,,,,2,0,11,,,,12,,40,49
4750,note_off,,,,,10,0,10,,,,11,,52,0
4750,note_off,,,,,10,0,12,,,,13,,52,0
4750,note_off,,,,,10,0,11,,,,12,,40,0
4752,note_on,,,,,2,0,12,,,,13,,53,96
4752,note_on,,,,,2,0,10,,,,11,,53,49
4752,note_on,,,,,2,0,11,,,,12,,41,49
4762,note_off,,,,,10,0,11,,,,12,,41,0
4762,note_off,,,,,10,0,12,,,,13,,53,0
4762,note_off,,,,,10,0,10,,,,11,,53,0
4764,note_on,,,,,2,0,10,,,,11,,52,49
4764,note_on,,,,,2,0,12,,,,13,,52,96
4764,note_on,,,,,2,0,11,,,,12,,40,49
4774,note_off,,,,,10,0,10,,,,11,,52,0
4774,note_off,,,,,10,0,11,,,,12,,40,0
4774,note_off,,,,,10,0,12,,,,13,,52,0
4776,note_on,,,,,2,0,10,,,,11,,53,49
4776,note_on,,,,,2,0,11,,,,12,,41,49
4776,note_on,,,,,2,0,12,,,,13,,53,96
4786,note_off,,,,,10,0,12,,,,13,,53,0
4786,note_off,,,,,10,0,11,,,,12,,41,0
4786,note_off,,,,,10,0,10,,,,11,,53,0
4788,note_on,,,,,2,0,11,,,,12,,40,49
4788,note_off,,,,,84,0,8,,,,7,,70,0
4788,note_off,,,,,84,0,2,,,,1,,60,0
4788,note_on,,,,,2,0,10,,,,11,,52,49
4788,note_off,,,,,84,0,3,,,,2,,70,0
4788,note_off,,,,,0,0,12,,,,13,,72,0
4788,note_off,,,,,84,0,7,,,,6,,70,0
4788,note_on,,,,,0,0,12,,,,13,,52,96
4788,note_off,,,,,2,0,12,,,,13,,67,0
4788,note_off,,,,,84,0,1,,,,0,,60,0
4798,note_off,,,,,10,0,12,,,,13,,52,0
4798,note_off,,,,,10,0,10,,,,11,,52,0
4798,note_off,,,,,10,0,11,,,,12,,40,0
4800,note_on,,,,,12,0,3,,,,2,,67,62
4800,note_on,,,,,0,0,12,,,,13,,67,96
4800,note_on,,,,,2,0,12,,,,13,,60,96
4800,note_on,,,,,2,0,11,,,,12,,41,49
4800,note_on,,,,,12,0,7,,,,6,,67,75
4800,note_on,,,,,12,0,1,,,,0,,60,127
4800,note_on,,,,,12,0,8,,,,7,,67,75
4800,note_on,,,,,2,0,10,,,,11,,53,49
4800,note_on,,,,,0,0,12,,,,13,,53,96
4810,note_off,,,,,10,0,11,,,,12,,41,0
4810,note_off,,,,,10,0,12,,,,13,,53,0
4810,note_off,,,,,10,0,10,,,,11,,53,0
4812,note_on,,,,,2,0,12,,,,13,,52,96
4812,note_on,,,,,2,0,10,,,,11,,52,49
4812,note_on,,,,,2,0,11,,,,12,,40,49
4822,note_off,,,,,10,0,11,,,,12,,40,0
4822,note_off,,,,,10,0,10,,,,11,,52,0
4822,note_off,,,,,10,0,12,,,,13,,52,0
4824,note_on,,,,,2,0,10,,,,11,,53,49
4824,note_on,,,,,2,0,12,,,,13,,53,96
4824,note_on,,,,,2,0,11,,,,12,,41,49
4834,note_off,,,,,10,0,12,,,,13,,53,0
4834,note_off,,,,,10,0,10,,,,11,,53,0
4834,note_off,,,,,10,0,11,,,,12,,41,0
4836,note_on,,,,,2,0,11,,,,12,,40,49
4836,note_on,,,,,2,0,12,,,,13,,52,96
4836,note_on,,,,,2,0,10,,,,11,,52,49
4842,note_off,,,,,42,0,1,,,,0,,60,0
4846,note_off,,,,,10,0,10,,,,11,,52,0
4846,note_off,,,,,10,0,11,,,,12,,40,0
4846,note_off,,,,,10,0,12,,,,13,,52,0
4848,note_on,,,,,6,0,1,,,,0,,60,127
4848,note_on,,,,,2,0,10,,,,11,,53,49
4848,note_on,,,,,2,0,12,,,,13,,53,96
4848,note_on,,,,,2,0,11,,,,12,,41,49
4858,note_off,,,,,10,0,11,,,,12,,41,0
4858,note_off,,,,,10,0,10,,,,11,,53,0
4858,note_off,,,,,10,0,12,,,,13,,53,0
4860,note_on,,,,,2,0,10,,,,11,,52,49
4860,note_on,,,,,2,0,12,,,,13,,52,96
4860,note_on,,,,,2,0,11,,,,12,,40,49
4870,note_off,,,,,10,0,10,,,,11,,52,0
4870,note_off,,,,,10,0,12,,,,13,,52,0
4870,note_off,,,,,10,0,11,,,,12,,40,0
4872,note_on,,,,,2,0,12,,,,13,,53,96
4872,note_on,,,,,2,0,11,,,,12,,41,49
4872,note_on,,,,,2,0,10,,,,11,,53,49
4882,note_off,,,,,10,0,11,,,,12,,41,0
4882,note_off,,,,,10,0,10,,,,11,,53,0
4882,note_off,,,,,10,0,12,,,,13,,53,0
4884,note_off,,,,,180,0,5,,,,4,,60,0
4884,note_off,,,,,180,0,13,,,,14,,60,0
4884,note_off,,,,,180,0,6,,,,5,,52,0
4884,note_off,,,,,84,0,8,,,,7,,67,0
4884,note_off,,,,,2,0,12,,,,13,,60,0
4884,note_off,,,,,180,0,4,,,,3,,67,0
4884,note_on,,,,,2,0,11,,,,12,,40,49
4884,note_on,,,,,2,0,10,,,,11,,52,49
4884,note_off,,,,,84,0,3,,,,2,,67,0
4884,note_off,,,,,180,0,9,,,,8,,67,0
4884,note_off,,,,,0,0,12,,,,13,,67,0
4884,note_on,,,,,0,0,12,,,,13,,52,96
4884,note_off,,,,,84,0,7,,,,6,,67,0
4890,note_off,,,,,42,0,1,,,,0,,60,0
4894,note_off,,,,,10,0,11,,,,12,,40,0
4894,note_off,,,,,10,0,12,,,,13,,52,0
4894,note_off,,,,,10,0,10,,,,11,,52,0
4896,note_on,,,,,12,0,7,,,,6,,69,75
4896,note_on,,,,,12,0,5,,,,4,,60,62
4896,note_on,,,,,12,0,9,,,,8,,65,75
4896,note_on,,,,,2,0,12,,,,13,,60,96
4896,note_on,,,,,12,0,4,,,,3,,65,62
4896,note_on,,,,,12,0,6,,,,5,,53,49
4896,note_on,,,,,12,0,8,,,,7,,69,75
4896,note_on,,,,,0,0,12,,,,13,,69,96
4896,note_on,,,,,0,0,12,,,,13,,53,96
4896,note_on,,,,,6,0,1,,,,0,,60,127
4896,note_on,,,,,2,0,10,,,,11,,53,49
4896,note_on,,,,,2,0,11,,,,12,,41,49
4896,note_on,,,,,12,0,3,,,,2,,69,62
4896,note_on,,,,,12,0,13,,,,14,,60,75
4938,note_off,,,,,42,0,1,,,,0,,60,0
4944,note_on,,,,,6,0,1,,,,0,,60,127
4980,note_off,,,,,84,0,11,,,,12,,41,0
4980,note_off,,,,,84,0,5,,,,4,,60,0
4980,note_off,,,,,84,0,8,,,,7,,69,0
4980,note_off,,,,,84,0,9,,,,8,,65,0
4980,note_off,,,,,0,0,12,,,,13,,69,0
4980,note_off,,,,,84,0,4,,,,3,,65,0
4980,note_off,,,,,84,0,10,,,,11,,53,0
4980,note_off,,,,,84,0,3,,,,2,,69,0
4980,note_off,,,,,0,0,12,,,,13,,53,0
4980,note_off,,,,,84,0,12,,,,13,,60,0
4980,note_off,,,,,84,0,13,,,,14,,60,0
4980,note_off,,,,,84,0,6,,,,5,,53,0
4980,note_off,,,,,84,0,7,,,,6,,69,0
4986,note_off,,,,,42,0,1,,,,0,,60,0
4992,note_on,,,,,0,0,12,,,,13,,70,96
4992,note_on,,,,,6,0,1,,,,0,,60,127
4992,note_on,,,,,12,0,4,,,,3,,64,62
4992,note_on,,,,,12,0,7,,,,6,,70,75
4992,note_on,,,,,12,0,9,,,,8,,64,75
4992,note_on,,,,,0,0,12,,,,13,,55,96
4992,note_on,,,,,12,0,13,,,,14,,55,75
4992,note_on,,,,,12,0,12,,,,13,,64,96
4992,note_on,,,,,12,0,10,,,,11,,55,49
4992,note_on,,,,,12,0,6,,,,5,,55,49
4992,note_on,,,,,12,0,5,,,,4,,64,62
4992,note_on,,,,,12,0,3,,,,2,,70,62
4992,note_on,,,,,12,0,11,,,,12,,43,49
4992,note_on,,,,,12,0,8,,,,7,,70,75
4992,note_on,,,,,204,0,2,,,,1,,60,127
5034,note_off,,,,,42,0,9,,,,8,,64,0
5034,note_off,,,,,42,0,4,,,,3,,64,0
5040,note_on,,,,,6,0,4,,,,3,,65,62
5040,note_on,,,,,6,0,9,,,,8,,65,75
5076,note_off,,,,,84,0,12,,,,13,,64,0
5076,note_off,,,,,0,0,12,,,,13,,55,0
5076,note_off,,,,,84,0,3,,,,2,,70,0
5076,note_off,,,,,84,0,8,,,,7,,70,0
5076,note_off,,,,,84,0,13,,,,14,,55,0
5076,note_off,,,,,0,0,12,,,,13,,70,0
5076,note_off,,,,,84,0,1,,,,0,,60,0
5076,note_off,,,,,84,0,10,,,,11,,55,0
5076,note_off,,,,,84,0,5,,,,4,,64,0
5076,note_off,,,,,84,0,2,,,,1,,60,0
5076,note_off,,,,,84,0,7,,,,6,,70,0
5076,note_off,,,,,84,0,11,,,,12,,43,0
5076,note_off,,,,,84,0,6,,,,5,,55,0
5082,note_off,,,,,42,0,9,,,,8,,65,0
5082,note_off,,,,,42,0,4,,,,3,,65,0
5088,note_on,,,,,12,0,6,,,,5,,53,49
5088,note_on,,,,,12,0,12,,,,13,,62,96
5088,note_on,,,,,0,0,12,,,,13,,69,96
5088,note_on,,,,,12,0,13,,,,14,,57,75
5088,note_on,,,,,12,0,3,,,,2,,74,62
5088,note_on,,,,,12,0,10,,,,11,,53,49
5088,note_on,,,,,12,0,8,,,,7,,74,75
5088,note_on,,,,,12,0,5,,,,4,,69,62
5088,note_on,,,,,0,0,12,,,,13,,53,96
5088,note_on,,,,,12,0,11,,,,12,,41,49
5088,note_on,,,,,6,0,9,,,,8,,67,75
5088,note_on,,,,,6,0,4,,,,3,,67,62
5088,note_on,,,,,12,0,7,,,,6,,74,75
5088,note_on,,,,,12,0,2,,,,1,,60,127
5098,note_off,,,,,10,0,9,,,,8,,67,0
5098,note_off,,,,,10,0,4,,,,3,,67,0
5100,note_on,,,,,2,0,4,,,,3,,65,62
5100,note_on,,,,,2,0,9,,,,8,,65,75
5110,note_off,,,,,10,0,4,,,,3,,65,0
5110,note_off,,,,,10,0,9,,,,8,,65,0
5112,note_on,,,,,2,0,4,,,,3,,67,62
5112,note_on,,,,,2,0,9,,,,8,,67,75
5122,note_off,,,,,10,0,9,,,,8,,67,0
5122,note_off,,,,,10,0,4,,,,3,,67,0
5124,note_on,,,,,2,0,4,,,,3,,65,62
5124,note_on,,,,,2,0,9,,,,8,,65,75
5130,note_off,,,,,42,0,2,,,,1,,60,0
5130,note_off,,,,,42,0,6,,,,5,,53,0
5130,note_off,,,,,42,0,12,,,,13,,53,0
5130,note_off,,,,,42,0,10,,,,11,,53,0
5130,note_off,,,,,42,0,5,,,,4,,69,0
5130,note_off,,,,,42,0,11,,,,12,,41,0
5134,note_off,,,,,10,0,4,,,,3,,65,0
5134,note_off,,,,,10,0,9,,,,8,,65,0
5136,note_on,,,,,6,0,10,,,,11,,52,49
5136,note_on,,,,,2,0,4,,,,3,,67,62
5136,note_on,,,,,2,0,9,,,,8,,67,75
5136,note_on,,,,,6,0,6,,,,5,,52,49
5136,note_on,,,,,6,0,5,,,,4,,67,62
5136,note_on,,,,,6,0,2,,,,1,,60,127
5136,note_on,,,,,6,0,11,,,,12,,40,49
5136,note_on,,,,,6,0,12,,,,13,,52,96
5146,note_off,,,,,10,0,9,,,,8,,67,0
5146,note_off,,,,,10,0,4,,,,3,,67,0
5148,note_on,,,,,2,0,4,,,,3,,65,62
5148,note_on,,,,,2,0,9,,,,8,,65,75
5158,note_off,,,,,10,0,9,,,,8,,65,0
5158,note_off,,,,,10,0,4,,,,3,,65,0
5160,note_on,,,,,2,0,4,,,,3,,67,62
5160,note_on,,,,,2,0,9,,,,8,,67,75
5170,note_off,,,,,10,0,4,,,,3,,67,0
5170,note_off,,,,,10,0,9,,,,8,,67,0
5172,note_on,,,,,2,0,4,,,,3,,65,62
5172,note_off,,,,,84,0,13,,,,14,,57,0
5172,note_off,,,,,36,0,12,,,,13,,62,0
5172,note_off,,,,,0,0,12,,,,13,,69,0
5172,note_on,,,,,2,0,9,,,,8,,65,75
5178,note_off,,,,,42,0,5,,,,4,,67,0
5178,note_off,,,,,6,0,12,,,,13,,52,0
5178,note_off,,,,,42,0,6,,,,5,,52,0
5178,note_off,,,,,42,0,11,,,,12,,40,0
5178,note_off,,,,,42,0,2,,,,1,,60,0
5178,note_off,,,,,42,0,10,,,,11,,52,0
5182,note_off,,,,,10,0,9,,,,8,,65,0
5182,note_off,,,,,10,0,4,,,,3,,65,0
5184,note_on,,,,,2,0,4,,,,3,,67,62
5184,note_on,,,,,12,0,13,,,,14,,53,75
5184,note_on,,,,,6,0,6,,,,5,,53,49
5184,note_on,,,,,6,0,2,,,,1,,60,127
5184,note_on,,,,,0,0,12,,,,13,,74,96
5184,note_on,,,,,2,0,9,,,,8,,67,75
5184,note_on,,,,,6,0,5,,,,4,,69,62
5184,note_on,,,,,6,0,10,,,,11,,53,49
5184,note_on,,,,,6,0,12,,,,13,,69,96
5184,note_on,,,,,0,0,12,,,,13,,53,96
5184,note_on,,,,,6,0,11,,,,12,,41,49
5194,note_off,,,,,10,0,4,,,,3,,67,0
5194,note_off,,,,,10,0,9,,,,8,,67,0
5196,note_on,,,,,2,0,4,,,,3,,65,62
5196,note_on,,,,,2,0,9,,,,8,,65,75
5206,note_off,,,,,10,0,9,,,,8,,65,0
5206,note_off,,,,,10,0,4,,,,3,,65,0
5208,note_on,,,,,2,0,4,,,,3,,67,62
5208,note_on,,,,,2,0,9,,,,8,,67,75
5218,note_off,,,,,10,0,4,,,,3,,67,0
5218,note_off,,,,,10,0,9,,,,8,,67,0
5220,note_on,,,,,2,0,4,,,,3,,65,62
5220,note_on,,,,,2,0,9,,,,8,,65,75
5226,note_off,,,,,42,0,2,,,,1,,60,0
5230,note_off,,,,,10,0,9,,,,8,,65,0
5230,note_off,,,,,10,0,4,,,,3,,65,0
5232,note_on,,,,,2,0,4,,,,3,,64,62
5232,note_on,,,,,6,0,2,,,,1,,60,127
5232,note_on,,,,,2,0,9,,,,8,,64,75
5253,note_off,,,,,21,0,4,,,,3,,64,0
5253,note_off,,,,,21,0,9,,,,8,,64,0
5256,note_on,,,,,3,0,4,,,,3,,65,62
5256,note_on,,,,,3,0,9,,,,8,,65,75
5268,note_off,,,,,0,0,12,,,,13,,53,0
5268,note_off,,,,,0,0,12,,,,13,,74,0
5268,note_off,,,,,84,0,12,,,,13,,69,0
5268,note_off,,,,,180,0,3,,,,2,,74,0
5268,note_off,,,,,84,0,11,,,,12,,41,0
5268,note_off,,,,,180,0,7,,,,6,,74,0
5268,note_off,,,,,84,0,13,,,,14,,53,0
5268,note_off,,,,,84,0,10,,,,11,,53,0
5268,note_off,,,,,84,0,6,,,,5,,53,0
5268,note_off,,,,,84,0,5,,,,4,,69,0
5268,note_off,,,,,180,0,8,,,,7,,74,0
5274,note_off,,,,,42,0,2,,,,1,,60,0
5277,note_off,,,,,21,0,9,,,,8,,65,0
5277,note_off,,,,,21,0,4,,,,3,,65,0
5280,note_on,,,,,12,0,10,,,,11,,52,49
5280,note_on,,,,,12,0,3,,,,2,,70,62
5280,note_on,,,,,3,0,9,,,,8,,67,75
5280,note_on,,,,,12,0,11,,,,12,,40,49
5280,note_on,,,,,3,0,4,,,,3,,67,62
5280,note_on,,,,,12,0,6,,,,5,,52,49
5280,note_on,,,,,12,0,13,,,,14,,60,75
5280,note_on,,,,,12,0,7,,,,6,,72,75
5280,note_on,,,,,12,0,8,,,,7,,72,75
5280,note_on,,,,,6,0,2,,,,1,,60,127
5280,note_on,,,,,12,0,12,,,,13,,67,96
5280,note_on,,,,,204,0,1,,,,0,,60,127
5280,note_on,,,,,0,0,12,,,,13,,72,96
5280,note_on,,,,,0,0,12,,,,13,,52,96
5280,note_on,,,,,12,0,5,,,,4,,67,62
5290,note_off,,,,,10,0,8,,,,7,,72,0
5290,note_off,,,,,10,0,7,,,,6,,72,0
5292,note_on,,,,,2,0,8,,,,7,,70,75
5292,note_on,,,,,2,0,7,,,,6,,70,75
5302,note_off,,,,,10,0,7,,,,6,,70,0
5302,note_off,,,,,10,0,8,,,,7,,70,0
5304,note_on,,,,,2,0,7,,,,6,,72,75
5304,note_on,,,,,2,0,8,,,,7,,72,75
5314,note_off,,,,,10,0,8,,,,7,,72,0
5314,note_off,,,,,10,0,7,,,,6,,72,0
5316,note_on,,,,,2,0,8,,,,7,,70,75
5316,note_on,,,,,2,0,7,,,,6,,70,75
5326,note_off,,,,,10,0,8,,,,7,,70,0
5326,note_off,,,,,10,0,7,,,,6,,70,0
5328,note_on,,,,,2,0,7,,,,6,,72,75
5328,note_on,,,,,2,0,8,,,,7,,72,75
5338,note_off,,,,,10,0,7,,,,6,,72,0
5338,note_off,,,,,10,0,8,,,,7,,72,0
5340,note_on,,,,,2,0,7,,,,6,,70,75
5340,note_on,,,,,2,0,8,,,,7,,70,75
5350,note_off,,,,,10,0,7,,,,6,,70,0
5350,note_off,,,,,10,0,8,,,,7,,70,0
5352,note_on,,,,,2,0,7,,,,6,,72,75
5352,note_on,,,,,2,0,8,,,,7,,72,75
5362,note_off,,,,,10,0,7,,,,6,,72,0
5362,note_off,,,,,10,0,8,,,,7,,72,0
5364,note_on,,,,,2,0,8,,,,7,,70,75
5364,note_off,,,,,84,0,9,,,,8,,67,0
5364,note_off,,,,,0,0,12,,,,13,,52,0
5364,note_off,,,,,84,0,6,,,,5,,52,0
5364,note_off,,,,,84,0,10,,,,11,,52,0
5364,note_off,,,,,84,0,1,,,,0,,60,0
5364,note_off,,,,,84,0,4,,,,3,,67,0
5364,note_off,,,,,84,0,3,,,,2,,70,0
5364,note_off,,,,,84,0,12,,,,13,,67,0
5364,note_off,,,,,0,0,12,,,,13,,72,0
5364,note_off,,,,,84,0,5,,,,4,,67,0
5364,note_off,,,,,84,0,11,,,,12,,40,0
5364,note_off,,,,,84,0,2,,,,1,,60,0
5364,note_on,,,,,2,0,7,,,,6,,70,75
5374,note_off,,,,,10,0,8,,,,7,,70,0
5374,note_off,,,,,10,0,7,,,,6,,70,0
5376,note_on,,,,,12,0,9,,,,8,,65,75
5376,note_on,,,,,12,0,10,,,,11,,53,49
5376,note_on,,,,,12,0,6,,,,5,,53,49
5376,note_on,,,,,12,0,3,,,,2,,69,62
5376,note_on,,,,,12,0,1,,,,0,,60,127
5376,note_on,,,,,12,0,11,,,,12,,41,49
5376,note_on,,,,,12,0,4,,,,3,,65,62
5376,note_on,,,,,12,0,5,,,,4,,60,62
5376,note_on,,,,,2,0,8,,,,7,,69,75
5376,note_on,,,,,0,0,12,,,,13,,53,96
5376,note_on,,,,,0,0,12,,,,13,,69,96
5376,note_on,,,,,12,0,12,,,,13,,60,96
5376,note_on,,,,,2,0,7,,,,6,,69,75
5418,note_off,,,,,42,0,6,,,,5,,53,0
5418,note_off,,,,,42,0,12,,,,13,,53,0
5418,note_off,,,,,42,0,1,,,,0,,60,0
5418,note_off,,,,,42,0,10,,,,11,,53,0
5418,note_off,,,,,42,0,11,,,,12,,41,0
5418,note_off,,,,,42,0,7,,,,6,,69,0
5418,note_off,,,,,42,0,3,,,,2,,69,0
5418,note_off,,,,,42,0,8,,,,7,,69,0
5424,note_on,,,,,6,0,11,,,,12,,40,49
5424,note_on,,,,,6,0,3,,,,2,,67,62
5424,note_on,,,,,6,0,1,,,,0,,60,127
5424,note_on,,,,,6,0,8,,,,7,,67,75
5424,note_on,,,,,6,0,10,,,,11,,52,49
5424,note_on,,,,,6,0,6,,,,5,,52,49
5424,note_on,,,,,6,0,7,,,,6,,67,75
5424,note_on,,,,,6,0,12,,,,13,,52,96
5460,note_off,,,,,84,0,4,,,,3,,65,0
5460,note_off,,,,,84,0,9,,,,8,,65,0
5460,note_off,,,,,36,0,12,,,,13,,60,0
5460,note_off,,,,,0,0,12,,,,13,,69,0
5460,note_off,,,,,84,0,5,,,,4,,60,0
5460,note_off,,,,,180,0,13,,,,14,,60,0
5466,note_off,,,,,42,0,10,,,,11,,52,0
5466,note_off,,,,,6,0,12,,,,13,,52,0
5466,note_off,,,,,42,0,3,,,,2,,67,0
5466,note_off,,,,,42,0,7,,,,6,,67,0
5466,note_off,,,,,42,0,11,,,,12,,40,0
5466,note_off,,,,,42,0,6,,,,5,,52,0
5466,note_off,,,,,42,0,1,,,,0,,60,0
5466,note_off,,,,,42,0,8,,,,7,,67,0
5472,note_on,,,,,6,0,3,,,,2,,72,62
5472,note_on,,,,,6,0,10,,,,11,,50,49
5472,note_on,,,,,6,0,1,,,,0,,60,127
5472,note_on,,,,,12,0,4,,,,3,,64,62
5472,note_on,,,,,12,0,13,,,,14,,60,75
5472,note_on,,,,,0,0,12,,,,13,,72,96
5472,note_on,,,,,6,0,12,,,,13,,64,96
5472,note_on,,,,,12,0,9,,,,8,,64,75
5472,note_on,,,,,0,0,12,,,,13,,50,96
5472,note_on,,,,,6,0,6,,,,5,,50,49
5472,note_on,,,,,12,0,5,,,,4,,60,62
5472,note_on,,,,,6,0,11,,,,12,,38,49
5472,note_on,,,,,6,0,7,,,,6,,72,75
5472,note_on,,,,,6,0,8,,,,7,,72,75
5514,note_off,,,,,42,0,10,,,,11,,50,0
5514,note_off,,,,,42,0,11,,,,12,,38,0
5514,note_off,,,,,42,0,12,,,,13,,50,0
5514,note_off,,,,,42,0,1,,,,0,,60,0
5514,note_off,,,,,42,0,6,,,,5,,50,0
5520,note_on,,,,,6,0,1,,,,0,,60,127
5520,note_on,,,,,6,0,10,,,,11,,48,49
5520,note_on,,,,,6,0,11,,,,12,,36,49
5520,note_on,,,,,6,0,12,,,,13,,48,96
5520,note_on,,,,,6,0,6,,,,5,,48,49
5556,note_off,,,,,84,0,7,,,,6,,72,0
5556,note_off,,,,,84,0,9,,,,8,,64,0
5556,note_off,,,,,84,0,4,,,,3,,64,0
5556,note_off,,,,,0,0,12,,,,13,,72,0
5556,note_off,,,,,84,0,13,,,,14,,60,0
5556,note_off,,,,,36,0,12,,,,13,,64,0
5556,note_off,,,,,84,0,3,,,,2,,72,0
5556,note_off,,,,,84,0,8,,,,7,,72,0
5556,note_off,,,,,84,0,5,,,,4,,60,0
5562,note_off,,,,,6,0,12,,,,13,,48,0
5562,note_off,,,,,42,0,10,,,,11,,48,0
5562,note_off,,,,,42,0,11,,,,12,,36,0
5562,note_off,,,,,42,0,1,,,,0,,60,0
5562,note_off,,,,,42,0,6,,,,5,,48,0
5568,note_on,,,,,6,0,11,,,,12,,41,49
5568,note_on,,,,,12,0,8,,,,7,,70,75
5568,note_on,,,,,6,0,12,,,,13,,60,96
5568,note_on,,,,,12,0,4,,,,3,,65,62
5568,note_on,,,,,0,0,12,,,,13,,69,96
5568,note_on,,,,,12,0,7,,,,6,,70,75
5568,note_on,,,,,12,0,3,,,,2,,69,62
5568,note_on,,,,,6,0,1,,,,0,,60,127
5568,note_on,,,,,6,0,10,,,,11,,53,49
5568,note_on,,,,,12,0,5,,,,4,,60,62
5568,note_on,,,,,0,0,12,,,,13,,53,96
5568,note_on,,,,,12,0,9,,,,8,,65,75
5568,note_on,,,,,12,0,13,,,,14,,60,75
5568,note_on,,,,,204,0,2,,,,1,,60,127
5568,note_on,,,,,6,0,6,,,,5,,53,49
5578,note_off,,,,,10,0,7,,,,6,,70,0
5578,note_off,,,,,10,0,8,,,,7,,70,0
5580,note_on,,,,,2,0,7,,,,6,,69,75
5580,note_on,,,,,2,0,8,,,,7,,69,75
5590,note_off,,,,,10,0,7,,,,6,,69,0
5590,note_off,,,,,10,0,8,,,,7,,69,0
5592,note_on,,,,,2,0,7,,,,6,,70,75
5592,note_on,,,,,2,0,8,,,,7,,70,75
5602,note_off,,,,,10,0,7,,,,6,,70,0
5602,note_off,,,,,10,0,8,,,,7,,70,0
5604,note_on,,,,,2,0,7,,,,6,,69,75
5604,note_on,,,,,2,0,8,,,,7,,69,75
5614,note_off,,,,,10,0,8,,,,7,,69,0
5614,note_off,,,,,10,0,7,,,,6,,69,0
5616,note_on,,,,,2,0,8,,,,7,,70,75
5616,note_on,,,,,2,0,7,,,,6,,70,75
5626,note_off,,,,,10,0,8,,,,7,,70,0
5626,note_off,,,,,10,0,7,,,,6,,70,0
5628,note_on,,,,,2,0,7,,,,6,,69,75
5628,note_on,,,,,2,0,8,,,,7,,69,75
5638,note_off,,,,,10,0,7,,,,6,,69,0
5638,note_off,,,,,10,0,8,,,,7,,69,0
5640,note_on,,,,,2,0,7,,,,6,,70,75
5640,note_on,,,,,2,0,8,,,,7,,70,75
5650,note_off,,,,,10,0,7,,,,6,,70,0
5650,note_off,,,,,10,0,8,,,,7,,70,0
5652,note_off,,,,,84,0,11,,,,12,,41,0
5652,note_off,,,,,84,0,2,,,,1,,60,0
5652,note_off,,,,,84,0,12,,,,13,,60,0
5652,note_on,,,,,2,0,8,,,,7,,69,75
5652,note_off,,,,,0,0,12,,,,13,,53,0
5652,note_off,,,,,0,0,12,,,,13,,69,0
5652,note_off,,,,,84,0,6,,,,5,,53,0
5652,note_on,,,,,2,0,7,,,,6,,69,75
5652,note_off,,,,,84,0,10,,,,11,,53,0
5652,note_off,,,,,84,0,1,,,,0,,60,0
5662,note_off,,,,,10,0,8,,,,7,,69,0
5662,note_off,,,,,10,0,7,,,,6,,69,0
5664,note_on,,,,,12,0,6,,,,5,,52,49
5664,note_on,,,,,12,0,11,,,,12,,40,49
5664,note_on,,,,,12,0,2,,,,1,,60,127
5664,note_on,,,,,12,0,10,,,,11,,52,49
5664,note_on,,,,,2,0,8,,,,7,,70,75
5664,note_on,,,,,0,0,12,,,,13,,52,96
5664,note_on,,,,,0,0,12,,,,13,,72,96
5664,note_on,,,,,2,0,7,,,,6,,70,75
5664,note_on,,,,,12,0,12,,,,13,,69,96
5674,note_off,,,,,10,0,8,,,,7,,70,0
5674,note_off,,,,,10,0,7,,,,6,,70,0
5676,note_on,,,,,2,0,7,,,,6,,69,75
5676,note_on,,,,,2,0,8,,,,7,,69,75
5686,note_off,,,,,10,0,8,,,,7,,69,0
5686,note_off,,,,,10,0,7,,,,6,,69,0
5688,note_on,,,,,2,0,8,,,,7,,70,75
5688,note_on,,,,,2,0,7,,,,6,,70,75
5698,note_off,,,,,10,0,8,,,,7,,70,0
5698,note_off,,,,,10,0,7,,,,6,,70,0
5700,note_on,,,,,2,0,8,,,,7,,69,75
5700,note_on,,,,,2,0,7,,,,6,,69,75
5706,note_off,,,,,42,0,6,,,,5,,52,0
5706,note_off,,,,,42,0,12,,,,13,,52,0
5706,note_off,,,,,42,0,10,,,,11,,52,0
5706,note_off,,,,,42,0,11,,,,12,,40,0
5706,note_off,,,,,42,0,2,,,,1,,60,0
5710,note_off,,,,,10,0,7,,,,6,,69,0
5710,note_off,,,,,10,0,8,,,,7,,69,0
5712,note_on,,,,,2,0,8,,,,7,,70,75
5712,note_on,,,,,6,0,12,,,,13,,50,96
5712,note_on,,,,,6,0,6,,,,5,,50,49
5712,note_on,,,,,6,0,11,,,,12,,38,49
5712,note_on,,,,,2,0,7,,,,6,,70,75
5712,note_on,,,,,6,0,2,,,,1,,60,127
5712,note_on,,,,,6,0,10,,,,11,,50,49
5722,note_off,,,,,10,0,8,,,,7,,70,0
5722,note_off,,,,,10,0,7,,,,6,,70,0
5724,note_on,,,,,2,0,8,,,,7,,69,75
5724,note_on,,,,,2,0,7,,,,6,,69,75
5734,note_off,,,,,10,0,8,,,,7,,69,0
5734,note_off,,,,,10,0,7,,,,6,,69,0
5736,note_on,,,,,2,0,8,,,,7,,70,75
5736,note_on,,,,,2,0,7,,,,6,,70,75
5746,note_off,,,,,10,0,8,,,,7,,70,0
5746,note_off,,,,,10,0,7,,,,6,,70,0
5748,note_off,,,,,180,0,4,,,,3,,65,0
5748,note_off,,,,,180,0,5,,,,4,,60,0
5748,note_off,,,,,180,0,9,,,,8,,65,0
5748,note_on,,,,,2,0,7,,,,6,,69,75
5748,note_on,,,,,2,0,8,,,,7,,69,75
5748,note_off,,,,,180,0,13,,,,14,,60,0
5748,note_off,,,,,0,0,12,,,,13,,72,0
5748,note_off,,,,,36,0,12,,,,13,,69,0
5748,note_off,,,,,180,0,3,,,,2,,69,0
5754,note_off,,,,,6,0,12,,,,13,,50,0
5754,note_off,,,,,42,0,6,,,,5,,50,0
5754,note_off,,,,,42,0,2,,,,1,,60,0
5754,note_off,,,,,42,0,10,,,,11,,50,0
5754,note_off,,,,,42,0,11,,,,12,,38,0
5758,note_off,,,,,10,0,8,,,,7,,69,0
5758,note_off,,,,,10,0,7,,,,6,,69,0
5760,note_on,,,,,0,0,12,,,,13,,72,96
5760,note_on,,,,,0,0,12,,,,13,,52,96
5760,note_on,,,,,2,0,8,,,,7,,67,75
5760,note_on,,,,,12,0,13,,,,14,,60,75
5760,note_on,,,,,6,0,10,,,,11,,52,49
5760,note_on,,,,,6,0,12,,,,13,,67,96
5760,note_on,,,,,6,0,2,,,,1,,60,127
5760,note_on,,,,,12,0,9,,,,8,,67,75
5760,note_on,,,,,6,0,11,,,,12,,40,49
5760,note_on,,,,,2,0,7,,,,6,,67,75
5760,note_on,,,,,12,0,5,,,,4,,60,62
5760,note_on,,,,,12,0,3,,,,2,,67,62
5760,note_on,,,,,12,0,4,,,,3,,67,62
5760,note_on,,,,,6,0,6,,,,5,,52,49
5802,note_off,,,,,42,0,2,,,,1,,60,0
5808,note_on,,,,,6,0,2,,,,1,,60,127
5844,note_off,,,,,84,0,6,,,,5,,52,0
5844,note_off,,,,,84,0,11,,,,12,,40,0
5844,note_off,,,,,84,0,9,,,,8,,67,0
5844,note_off,,,,,84,0,3,,,,2,,67,0
5844,note_off,,,,,84,0,8,,,,7,,67,0
5844,note_off,,,,,0,0,12,,,,13,,52,0
5844,note_off,,,,,0,0,12,,,,13,,72,0
5844,note_off,,,,,84,0,12,,,,13,,67,0
5844,note_off,,,,,84,0,4,,,,3,,67,0
5844,note_off,,,,,84,0,13,,,,14,,60,0
5844,note_off,,,,,84,0,7,,,,6,,67,0
5844,note_off,,,,,84,0,10,,,,11,,52,0
5844,note_off,,,,,84,0,5,,,,4,,60,0
5850,note_off,,,,,42,0,2,,,,1,,60,0
5856,note_on,,,,,12,0,12,,,,13,,65,96
5856,note_on,,,,,0,0,12,,,,13,,71,96
5856,note_on,,,,,12,0,4,,,,3,,65,62
5856,note_on,,,,,12,0,3,,,,2,,71,62
5856,note_on,,,,,12,0,9,,,,8,,65,75
5856,note_on,,,,,12,0,10,,,,11,,50,49
5856,note_on,,,,,12,0,13,,,,14,,64,75
5856,note_on,,,,,0,0,12,,,,13,,50,96
5856,note_on,,,,,12,0,11,,,,12,,38,49
5856,note_on,,,,,12,0,5,,,,4,,62,62
5856,note_on,,,,,204,0,1,,,,0,,67,127
5856,note_on,,,,,12,0,7,,,,6,,71,75
5856,note_on,,,,,6,0,2,,,,1,,67,127
5856,note_on,,,,,12,0,6,,,,5,,50,49
5856,note_on,,,,,12,0,8,,,,7,,71,75
5866,note_off,,,,,10,0,13,,,,14,,64,0
5868,note_on,,,,,2,0,13,,,,14,,62,75
5878,note_off,,,,,10,0,13,,,,14,,62,0
5880,note_on,,,,,2,0,13,,,,14,,64,75
5890,note_off,,,,,10,0,13,,,,14,,64,0
5892,note_on,,,,,2,0,13,,,,14,,62,75
5898,note_off,,,,,42,0,3,,,,2,,71,0
5898,note_off,,,,,42,0,8,,,,7,,71,0
5898,note_off,,,,,42,0,7,,,,6,,71,0
5902,note_off,,,,,10,0,13,,,,14,,62,0
5904,note_on,,,,,6,0,7,,,,6,,72,75
5904,note_on,,,,,6,0,3,,,,2,,72,62
5904,note_on,,,,,6,0,8,,,,7,,72,75
5904,note_on,,,,,2,0,13,,,,14,,64,75
5914,note_off,,,,,10,0,13,,,,14,,64,0
5916,note_on,,,,,2,0,13,,,,14,,62,75
5926,note_off,,,,,10,0,13,,,,14,,62,0
5928,note_on,,,,,2,0,13,,,,14,,64,75
5938,note_off,,,,,10,0,13,,,,14,,64,0
5940,note_off,,,,,84,0,10,,,,11,,50,0
5940,note_off,,,,,84,0,2,,,,1,,67,0
5940,note_off,,,,,84,0,9,,,,8,,65,0
5940,note_off,,,,,84,0,1,,,,0,,67,0
5940,note_off,,,,,84,0,4,,,,3,,65,0
5940,note_off,,,,,0,0,12,,,,13,,50,0
5940,note_off,,,,,0,0,12,,,,13,,71,0
5940,note_off,,,,,84,0,5,,,,4,,62,0
5940,note_off,,,,,84,0,11,,,,12,,38,0
5940,note_on,,,,,2,0,13,,,,14,,62,75
5940,note_off,,,,,84,0,6,,,,5,,50,0
5940,note_off,,,,,84,0,12,,,,13,,65,0
5946,note_off,,,,,42,0,8,,,,7,,72,0
5946,note_off,,,,,42,0,7,,,,6,,72,0
5946,note_off,,,,,42,0,3,,,,2,,72,0
5950,note_off,,,,,10,0,13,,,,14,,62,0
5952,note_on,,,,,12,0,4,,,,3,,67,62
5952,note_on,,,,,12,0,5,,,,4,,60,62
5952,note_on,,,,,6,0,7,,,,6,,74,75
5952,note_on,,,,,12,0,10,,,,11,,52,49
5952,note_on,,,,,12,0,1,,,,0,,67,127
5952,note_on,,,,,2,0,13,,,,14,,60,75
5952,note_on,,,,,0,0,12,,,,13,,52,96
5952,note_on,,,,,6,0,3,,,,2,,74,62
5952,note_on,,,,,0,0,12,,,,13,,72,96
5952,note_on,,,,,12,0,12,,,,13,,67,96
5952,note_on,,,,,12,0,11,,,,12,,40,49
5952,note_on,,,,,12,0,9,,,,8,,67,75
5952,note_on,,,,,6,0,8,,,,7,,74,75
5952,note_on,,,,,12,0,6,,,,5,,52,49
5962,note_off,,,,,10,0,7,,,,6,,74,0
5962,note_off,,,,,10,0,8,,,,7,,74,0
5962,note_off,,,,,10,0,3,,,,2,,74,0
5964,note_on,,,,,2,0,8,,,,7,,72,75
5964,note_on,,,,,2,0,3,,,,2,,72,62
5964,note_on,,,,,2,0,7,,,,6,,72,75
5974,note_off,,,,,10,0,3,,,,2,,72,0
5974,note_off,,,,,10,0,7,,,,6,,72,0
5974,note_off,,,,,10,0,8,,,,7,,72,0
5976,note_on,,,,,2,0,3,,,,2,,74,62
5976,note_on,,,,,2,0,8,,,,7,,74,75
5976,note_on,,,,,2,0,7,,,,6,,74,75
5986,note_off,,,,,10,0,3,,,,2,,74,0
5986,note_off,,,,,10,0,7,,,,6,,74,0
5986,note_off,,,,,10,0,8,,,,7,,74,0
5988,note_on,,,,,2,0,3,,,,2,,72,62
5988,note_on,,,,,2,0,7,,,,6,,72,75
5988,note_on,,,,,2,0,8,,,,7,,72,75
5994,note_off,,,,,42,0,1,,,,0,,67,0
5994,note_off,,,,,42,0,5,,,,4,,60,0
5994,note_off,,,,,42,0,13,,,,14,,60,0
5998,note_off,,,,,10,0,7,,,,6,,72,0
5998,note_off,,,,,10,0,3,,,,2,,72,0
5998,note_off,,,,,10,0,8,,,,7,,72,0
6000,note_on,,,,,2,0,7,,,,6,,74,75
6000,note_on,,,,,2,0,3,,,,2,,74,62
6000,note_on,,,,,6,0,13,,,,14,,62,75
6000,note_on,,,,,6,0,5,,,,4,,62,62
6000,note_on,,,,,6,0,1,,,,0,,67,127
6000,note_on,,,,,2,0,8,,,,7,,74,75
6010,note_off,,,,,10,0,7,,,,6,,74,0
6010,note_off,,,,,10,0,8,,,,7,,74,0
6010,note_off,,,,,10,0,3,,,,2,,74,0
6012,note_on,,,,,2,0,3,,,,2,,72,62
6012,note_on,,,,,2,0,8,,,,7,,72,75
6012,note_on,,,,,2,0,7,,,,6,,72,75
6022,note_off,,,,,10,0,8,,,,7,,72,0
6022,note_off,,,,,10,0,7,,,,6,,72,0
6022,note_off,,,,,10,0,3,,,,2,,72,0
6024,note_on,,,,,2,0,3,,,,2,,74,62
6024,note_on,,,,,2,0,7,,,,6,,74,75
6024,note_on,,,,,2,0,8,,,,7,,74,75
6034,note_off,,,,,10,0,7,,,,6,,74,0
6034,note_off,,,,,10,0,8,,,,7,,74,0
6034,note_off,,,,,10,0,3,,,,2,,74,0
6036,note_off,,,,,0,0,12,,,,13,,72,0
6036,note_off,,,,,0,0,12,,,,13,,52,0
6036,note_off,,,,,84,0,6,,,,5,,52,0
6036,note_off,,,,,84,0,11,,,,12,,40,0
6036,note_off,,,,,84,0,12,,,,13,,67,0
6036,note_on,,,,,2,0,3,,,,2,,72,62
6036,note_on,,,,,2,0,7,,,,6,,72,75
6036,note_off,,,,,84,0,10,,,,11,,52,0
6036,note_on,,,,,2,0,8,,,,7,,72,75
6042,note_off,,,,,42,0,5,,,,4,,62,0
6042,note_off,,,,,42,0,1,,,,0,,67,0
6042,note_off,,,,,42,0,13,,,,14,,62,0
6046,note_off,,,,,10,0,7,,,,6,,72,0
6046,note_off,,,,,10,0,3,,,,2,,72,0
6046,note_off,,,,,10,0,8,,,,7,,72,0
6048,note_on,,,,,12,0,11,,,,12,,36,49
6048,note_on,,,,,2,0,3,,,,2,,74,62
6048,note_on,,,,,12,0,10,,,,11,,48,49
6048,note_on,,,,,12,0,6,,,,5,,48,49
6048,note_on,,,,,2,0,7,,,,6,,74,75
6048,note_on,,,,,6,0,1,,,,0,,67,127
6048,note_on,,,,,2,0,8,,,,7,,74,75
6048,note_on,,,,,6,0,13,,,,14,,64,75
6048,note_on,,,,,0,0,12,,,,13,,48,96
6048,note_on,,,,,0,0,12,,,,13,,76,96
6048,note_on,,,,,12,0,12,,,,13,,67,96
6048,note_on,,,,,6,0,5,,,,4,,64,62
6058,note_off,,,,,10,0,8,,,,7,,74,0
6058,note_off,,,,,10,0,7,,,,6,,74,0
6058,note_off,,,,,10,0,3,,,,2,,74,0
6060,note_on,,,,,2,0,3,,,,2,,72,62
6060,note_on,,,,,2,0,7,,,,6,,72,75
6060,note_on,,,,,2,0,8,,,,7,,72,75
6070,note_off,,,,,10,0,7,,,,6,,72,0
6070,note_off,,,,,10,0,8,,,,7,,72,0
6070,note_off,,,,,10,0,3,,,,2,,72,0
6072,note_on,,,,,2,0,7,,,,6,,74,75
6072,note_on,,,,,2,0,8,,,,7,,74,75
6072,note_on,,,,,2,0,3,,,,2,,74,62
6082,note_off,,,,,10,0,3,,,,2,,74,0
6082,note_off,,,,,10,0,7,,,,6,,74,0
6082,note_off,,,,,10,0,8,,,,7,,74,0
6084,note_on,,,,,2,0,3,,,,2,,72,62
6084,note_on,,,,,2,0,8,,,,7,,72,75
6084,note_on,,,,,2,0,7,,,,6,,72,75
6090,note_off,,,,,42,0,1,,,,0,,67,0
6094,note_off,,,,,10,0,3,,,,2,,72,0
6094,note_off,,,,,10,0,7,,,,6,,72,0
6094,note_off,,,,,10,0,8,,,,7,,72,0
6096,note_on,,,,,2,0,7,,,,6,,71,75
6096,note_on,,,,,6,0,1,,,,0,,67,127
6096,note_on,,,,,2,0,3,,,,2,,71,62
6096,note_on,,,,,2,0,8,,,,7,,71,75
6117,note_off,,,,,21,0,7,,,,6,,71,0
6117,note_off,,,,,21,0,3,,,,2,,71,0
6117,note_off,,,,,21,0,8,,,,7,,71,0
6120,note_on,,,,,3,0,7,,,,6,,72,75
6120,note_on,,,,,3,0,3,,,,2,,72,62
6120,note_on,,,,,3,0,8,,,,7,,72,75
6132,note_off,,,,,84,0,5,,,,4,,64,0
6132,note_off,,,,,84,0,13,,,,14,,64,0
6132,note_off,,,,,84,0,6,,,,5,,48,0
6132,note_off,,,,,84,0,11,,,,12,,36,0
6132,note_off,,,,,180,0,9,,,,8,,67,0
6132,note_off,,,,,84,0,10,,,,11,,48,0
6132,note_off,,,,,84,0,12,,,,13,,67,0
6132,note_off,,,,,0,0,12,,,,13,,76,0
6132,note_off,,,,,0,0,12,,,,13,,48,0
6132,note_off,,,,,180,0,4,,,,3,,67,0
6138,note_off,,,,,42,0,1,,,,0,,67,0
6141,note_off,,,,,21,0,8,,,,7,,72,0
6141,note_off,,,,,21,0,7,,,,6,,72,0
6141,note_off,,,,,21,0,3,,,,2,,72,0
6144,note_on,,,,,3,0,3,,,,2,,74,62
6144,note_on,,,,,3,0,7,,,,6,,74,75
6144,note_on,,,,,12,0,13,,,,14,,62,75
6144,note_on,,,,,12,0,4,,,,3,,67,62
6144,note_on,,,,,12,0,5,,,,4,,62,62
6144,note_on,,,,,0,0,12,,,,13,,47,96
6144,note_on,,,,,12,0,12,,,,13,,67,96
6144,note_on,,,,,204,0,2,,,,1,,67,127
6144,note_on,,,,,6,0,1,,,,0,,67,127
6144,note_on,,,,,12,0,11,,,,12,,35,49
6144,note_on,,,,,12,0,10,,,,11,,47,49
6144,note_on,,,,,3,0,8,,,,7,,74,75
6144,note_on,,,,,12,0,6,,,,5,,47,49
6144,note_on,,,,,12,0,9,,,,8,,67,75
6144,note_on,,,,,0,0,12,,,,13,,74,96
6228,note_off,,,,,0,0,12,,,,13,,74,0
6228,note_off,,,,,84,0,1,,,,0,,67,0
6228,note_off,,,,,84,0,2,,,,1,,67,0
6228,note_off,,,,,84,0,6,,,,5,,47,0
6228,note_off,,,,,84,0,7,,,,6,,74,0
6228,note_off,,,,,84,0,11,,,,12,,35,0
6228,note_off,,,,,84,0,3,,,,2,,74,0
6228,note_off,,,,,84,0,12,,,,13,,67,0
6228,note_off,,,,,84,0,10,,,,11,,47,0
6228,note_off,,,,,84,0,8,,,,7,,74,0
6228,note_off,,,,,0,0,12,,,,13,,47,0
6240,note_on,,,,,12,0,6,,,,5,,45,49
6240,note_on,,,,,0,0,12,,,,13,,45,96
6240,note_on,,,,,12,0,12,,,,13,,67,96
6240,note_on,,,,,12,0,11,,,,12,,33,49
6240,note_on,,,,,0,0,12,,,,13,,72,96
6240,note_on,,,,,12,0,8,,,,7,,72,75
6240,note_on,,,,,12,0,2,,,,1,,67,127
6240,note_on,,,,,12,0,10,,,,11,,45,49
6240,note_on,,,,,12,0,7,,,,6,,72,75
6240,note_on,,,,,12,0,3,,,,2,,72,62
6282,note_off,,,,,42,0,8,,,,7,,72,0
6282,note_off,,,,,42,0,11,,,,12,,33,0
6282,note_off,,,,,42,0,7,,,,6,,72,0
6282,note_off,,,,,42,0,6,,,,5,,45,0
6282,note_off,,,,,42,0,10,,,,11,,45,0
6282,note_off,,,,,42,0,2,,,,1,,67,0
6282,note_off,,,,,42,0,12,,,,13,,45,0
6282,note_off,,,,,42,0,3,,,,2,,72,0
6288,note_on,,,,,6,0,10,,,,11,,43,49
6288,note_on,,,,,6,0,12,,,,13,,43,96
6288,note_on,,,,,6,0,11,,,,12,,31,49
6288,note_on,,,,,6,0,2,,,,1,,67,127
6288,note_on,,,,,6,0,7,,,,6,,71,75
6288,note_on,,,,,6,0,3,,,,2,,71,62
6288,note_on,,,,,6,0,6,,,,5,,43,49
6288,note_on,,,,,6,0,8,,,,7,,71,75
6324,note_off,,,,,180,0,9,,,,8,,67,0
6324,note_off,,,,,180,0,4,,,,3,,67,0
6324,note_off,,,,,180,0,5,,,,4,,62,0
6324,note_off,,,,,36,0,12,,,,13,,67,0
6324,note_off,,,,,0,0,12,,,,13,,72,0
6324,note_off,,,,,180,0,13,,,,14,,62,0
6330,note_off,,,,,42,0,6,,,,5,,43,0
6330,note_off,,,,,42,0,3,,,,2,,71,0
6330,note_off,,,,,42,0,11,,,,12,,31,0
6330,note_off,,,,,42,0,10,,,,11,,43,0
6330,note_off,,,,,42,0,7,,,,6,,71,0
6330,note_off,,,,,6,0,12,,,,13,,43,0
6330,note_off,,,,,42,0,8,,,,7,,71,0
6330,note_off,,,,,42,0,2,,,,1,,67,0
6336,note_on,,,,,6,0,10,,,,11,,41,49
6336,note_on,,,,,12,0,4,,,,3,,67,62
6336,note_on,,,,,6,0,3,,,,2,,72,62
6336,note_on,,,,,6,0,2,,,,1,,67,127
6336,note_on,,,,,6,0,7,,,,6,,72,75
6336,note_on,,,,,6,0,6,,,,5,,41,49
6336,note_on,,,,,12,0,9,,,,8,,67,75
6336,note_on,,,,,12,0,5,,,,4,,64,62
6336,note_on,,,,,6,0,8,,,,7,,72,75
6336,note_on,,,,,6,0,12,,,,13,,67,96
6336,note_on,,,,,0,0,12,,,,13,,72,96
6336,note_on,,,,,0,0,12,,,,13,,41,96
6336,note_on,,,,,12,0,13,,,,14,,64,75
6336,note_on,,,,,6,0,11,,,,12,,29,49
6378,note_off,,,,,42,0,12,,,,13,,41,0
6378,note_off,,,,,42,0,2,,,,1,,67,0
6378,note_off,,,,,42,0,11,,,,12,,29,0
6378,note_off,,,,,42,0,6,,,,5,,41,0
6378,note_off,,,,,42,0,10,,,,11,,41,0
6384,note_on,,,,,6,0,2,,,,1,,67,127
6384,note_on,,,,,6,0,12,,,,13,,40,96
6384,note_on,,,,,6,0,10,,,,11,,40,49
6384,note_on,,,,,6,0,6,,,,5,,40,49
6384,note_on,,,,,6,0,11,,,,12,,28,49
6420,note_off,,,,,84,0,7,,,,6,,72,0
6420,note_off,,,,,84,0,9,,,,8,,67,0
6420,note_off,,,,,84,0,3,,,,2,,72,0
6420,note_off,,,,,84,0,8,,,,7,,72,0
6420,note_off,,,,,36,0,12,,,,13,,67,0
6420,note_off,,,,,0,0,12,,,,13,,72,0
6420,note_off,,,,,84,0,5,,,,4,,64,0
6420,note_off,,,,,84,0,4,,,,3,,67,0
6420,note_off,,,,,84,0,13,,,,14,,64,0
6426,note_off,,,,,6,0,12,,,,13,,40,0
6426,note_off,,,,,42,0,10,,,,11,,40,0
6426,note_off,,,,,42,0,11,,,,12,,28,0
6426,note_off,,,,,42,0,2,,,,1,,67,0
6426,note_off,,,,,42,0,6,,,,5,,40,0
6432,note_on,,,,,12,0,4,,,,3,,69,62
6432,note_on,,,,,6,0,6,,,,5,,45,49
6432,note_on,,,,,12,0,3,,,,2,,77,62
6432,note_on,,,,,6,0,10,,,,11,,45,49
6432,note_on,,,,,12,0,7,,,,6,,77,75
6432,note_on,,,,,12,0,9,,,,8,,69,75
6432,note_on,,,,,6,0,12,,,,13,,65,96
6432,note_on,,,,,0,0,12,,,,13,,72,96
6432,note_on,,,,,0,0,12,,,,13,,45,96
6432,note_on,,,,,6,0,2,,,,1,,69,127
6432,note_on,,,,,12,0,13,,,,14,,60,75
6432,note_on,,,,,204,0,1,,,,0,,72,127
6432,note_on,,,,,12,0,8,,,,7,,77,75
6432,note_on,,,,,6,0,11,,,,12,,33,49
6432,note_on,,,,,12,0,5,,,,4,,60,62
6474,note_off,,,,,42,0,4,,,,3,,69,0
6474,note_off,,,,,42,0,6,,,,5,,45,0
6474,note_off,,,,,42,0,9,,,,8,,69,0
6474,note_off,,,,,42,0,8,,,,7,,77,0
6474,note_off,,,,,42,0,11,,,,12,,33,0
6474,note_off,,,,,42,0,3,,,,2,,77,0
6474,note_off,,,,,42,0,10,,,,11,,45,0
6474,note_off,,,,,42,0,1,,,,0,,72,0
6474,note_off,,,,,42,0,12,,,,13,,45,0
6474,note_off,,,,,42,0,7,,,,6,,77,0
6480,note_on,,,,,6,0,9,,,,8,,71,75
6480,note_on,,,,,6,0,8,,,,7,,79,75
6480,note_on,,,,,6,0,4,,,,3,,71,62
6480,note_on,,,,,6,0,10,,,,11,,41,49
6480,note_on,,,,,6,0,1,,,,0,,71,127
6480,note_on,,,,,6,0,7,,,,6,,79,75
6480,note_on,,,,,6,0,12,,,,13,,41,96
6480,note_on,,,,,6,0,3,,,,2,,79,62
6480,note_on,,,,,6,0,11,,,,12,,29,49
6480,note_on,,,,,6,0,6,,,,5,,41,49
6516,note_off,,,,,84,0,5,,,,4,,60,0
6516,note_off,,,,,36,0,12,,,,13,,65,0
6516,note_off,,,,,0,0,12,,,,13,,72,0
6516,note_off,,,,,84,0,2,,,,1,,69,0
6516,note_off,,,,,84,0,13,,,,14,,60,0
6522,note_off,,,,,42,0,8,,,,7,,79,0
6522,note_off,,,,,42,0,10,,,,11,,41,0
6522,note_off,,,,,42,0,1,,,,0,,71,0
6522,note_off,,,,,42,0,7,,,,6,,79,0
6522,note_off,,,,,42,0,4,,,,3,,71,0
6522,note_off,,,,,42,0,6,,,,5,,41,0
6522,note_off,,,,,42,0,9,,,,8,,71,0
6522,note_off,,,,,42,0,3,,,,2,,79,0
6522,note_off,,,,,42,0,11,,,,12,,29,0
6522,note_off,,,,,6,0,12,,,,13,,41,0
6528,note_on,,,,,6,0,3,,,,2,,74,62
6528,note_on,,,,,6,0,9,,,,8,,71,75
6528,note_on,,,,,6,0,1,,,,0,,71,127
6528,note_on,,,,,6,0,11,,,,12,,31,49
6528,note_on,,,,,6,0,10,,,,11,,43,49
6528,note_on,,,,,6,0,6,,,,5,,43,49
6528,note_on,,,,,6,0,8,,,,7,,74,75
6528,note_on,,,,,0,0,12,,,,13,,70,96
6528,note_on,,,,,6,0,4,,,,3,,72,62
6528,note_on,,,,,6,0,7,,,,6,,74,75
6528,note_on,,,,,12,0,5,,,,4,,67,62
6528,note_on,,,,,0,0,12,,,,13,,43,96
6528,note_on,,,,,12,0,2,,,,1,,67,127
6528,note_on,,,,,6,0,12,,,,13,,62,96
6528,note_on,,,,,12,0,13,,,,14,,67,75
6538,note_off,,,,,10,0,4,,,,3,,72,0
6540,note_on,,,,,2,0,4,,,,3,,71,62
6550,note_off,,,,,10,0,4,,,,3,,71,0
6552,note_on,,,,,2,0,4,,,,3,,72,62
6562,note_off,,,,,10,0,4,,,,3,,72,0
6564,note_on,,,,,2,0,4,,,,3,,71,62
6570,note_off,,,,,42,0,2,,,,1,,67,0
6574,note_off,,,,,10,0,4,,,,3,,71,0
6576,note_on,,,,,6,0,2,,,,1,,67,127
6576,note_on,,,,,2,0,4,,,,3,,72,62
6586,note_off,,,,,10,0,4,,,,3,,72,0
6588,note_on,,,,,2,0,4,,,,3,,71,62
6598,note_off,,,,,10,0,4,,,,3,,71,0
6600,note_on,,,,,2,0,4,,,,3,,72,62
6610,note_off,,,,,10,0,4,,,,3,,72,0
6612,note_off,,,,,84,0,5,,,,4,,67,0
6612,note_off,,,,,84,0,11,,,,12,,31,0
6612,note_off,,,,,84,0,10,,,,11,,43,0
6612,note_off,,,,,0,0,12,,,,13,,43,0
6612,note_off,,,,,0,0,12,,,,13,,70,0
6612,note_on,,,,,2,0,4,,,,3,,71,62
6612,note_off,,,,,84,0,13,,,,14,,67,0
6612,note_off,,,,,84,0,12,,,,13,,62,0
6612,note_off,,,,,84,0,6,,,,5,,43,0
6618,note_off,,,,,42,0,2,,,,1,,67,0
6622,note_off,,,,,10,0,4,,,,3,,71,0
6624,note_on,,,,,0,0,12,,,,13,,70,96
6624,note_on,,,,,12,0,10,,,,11,,43,49
6624,note_on,,,,,2,0,4,,,,3,,72,62
6624,note_on,,,,,12,0,12,,,,13,,65,96
6624,note_on,,,,,12,0,6,,,,5,,43,49
6624,note_on,,,,,12,0,11,,,,12,,31,49
6624,note_on,,,,,0,0,12,,,,13,,43,96
6624,note_on,,,,,12,0,5,,,,4,,65,62
6624,note_on,,,,,12,0,13,,,,14,,65,75
6624,note_on,,,,,6,0,2,,,,1,,67,127
6634,note_off,,,,,10,0,4,,,,3,,72,0
6636,note_on,,,,,2,0,4,,,,3,,71,62
6646,note_off,,,,,10,0,4,,,,3,,71,0
6648,note_on,,,,,2,0,4,,,,3,,72,62
6658,note_off,,,,,10,0,4,,,,3,,72,0
6660,note_off,,,,,132,0,3,,,,2,,74,0
6660,note_off,,,,,132,0,7,,,,6,,74,0
6660,note_off,,,,,132,0,9,,,,8,,71,0
6660,note_off,,,,,132,0,1,,,,0,,71,0
6660,note_off,,,,,132,0,8,,,,7,,74,0
6660,note_on,,,,,2,0,4,,,,3,,71,62
6666,note_off,,,,,42,0,2,,,,1,,67,0
6670,note_off,,,,,10,0,4,,,,3,,71,0
6672,note_on,,,,,12,0,1,,,,0,,72,127
6672,note_on,,,,,12,0,7,,,,6,,72,75
6672,note_on,,,,,12,0,9,,,,8,,67,75
6672,note_on,,,,,2,0,4,,,,3,,67,62
6672,note_on,,,,,6,0,2,,,,1,,67,127
6672,note_on,,,,,12,0,8,,,,7,,72,75
6672,note_on,,,,,12,0,3,,,,2,,72,62
6708,note_off,,,,,84,0,13,,,,14,,65,0
6708,note_off,,,,,84,0,12,,,,13,,65,0
6708,note_off,,,,,0,0,12,,,,13,,70,0
6708,note_off,,,,,0,0,12,,,,13,,43,0
6708,note_off,,,,,84,0,10,,,,11,,43,0
6708,note_off,,,,,84,0,5,,,,4,,65,0
6708,note_off,,,,,84,0,6,,,,5,,43,0
6708,note_off,,,,,84,0,11,,,,12,,31,0
6714,note_off,,,,,42,0,3,,,,2,,72,0
6714,note_off,,,,,42,0,1,,,,0,,72,0
6714,note_off,,,,,42,0,9,,,,8,,67,0
6714,note_off,,,,,42,0,8,,,,7,,72,0
6714,note_off,,,,,42,0,4,,,,3,,67,0
6714,note_off,,,,,42,0,7,,,,6,,72,0
6714,note_off,,,,,42,0,2,,,,1,,67,0
6720,note_on,,,,,6,0,3,,,,2,,72,62
6720,note_on,,,,,6,0,9,,,,8,,67,75
6720,note_on,,,,,12,0,11,,,,12,,24,49
6720,note_on,,,,,12,0,10,,,,11,,36,49
6720,note_on,,,,,12,0,6,,,,5,,36,49
6720,note_on,,,,,12,0,13,,,,14,,64,75
6720,note_on,,,,,12,0,12,,,,13,,67,96
6720,note_on,,,,,12,0,5,,,,4,,64,62
6720,note_on,,,,,0,0,12,,,,13,,76,96
6720,note_on,,,,,0,0,12,,,,13,,36,96
6720,note_on,,,,,6,0,1,,,,0,,72,127
6720,note_on,,,,,6,0,8,,,,7,,72,75
6720,note_on,,,,,6,0,7,,,,6,,72,75
6720,note_on,,,,,6,0,2,,,,1,,67,127
6720,note_on,,,,,6,0,4,,,,3,,67,62
6804,note_off,,,,,84,0,10,,,,11,,36,0
6804,note_off,,,,,84,0,12,,,,13,,36,0
6804,note_off,,,,,84,0,11,,,,12,,24,0
6804,note_off,,,,,84,0,6,,,,5,,36,0
6816,note_on,,,,,12,0,10,,,,11,,48,49
6816,note_on,,,,,12,0,12,,,,13,,48,96
6816,note_on,,,,,12,0,11,,,,12,,36,49
6816,note_on,,,,,12,0,6,,,,5,,48,49
6900,note_off,,,,,84,0,6,,,,5,,48,0
6900,note_off,,,,,84,0,10,,,,11,,48,0
6900,note_off,,,,,84,0,11,,,,12,,36,0
6900,note_off,,,,,84,0,12,,,,13,,48,0
6912,note_on,,,,,12,0,6,,,,5,,50,49
6912,note_on,,,,,12,0,10,,,,11,,50,49
6912,note_on,,,,,12,0,11,,,,12,,38,49
6912,note_on,,,,,12,0,12,,,,13,,50,96
6996,note_off,,,,,0,0,12,,,,13,,76,0
6996,note_off,,,,,276,0,8,,,,7,,72,0
6996,note_off,,,,,84,0,6,,,,5,,50,0
6996,note_off,,,,,84,0,11,,,,12,,38,0
6996,note_off,,,,,0,0,12,,,,13,,50,0
6996,note_off,,,,,84,0,12,,,,13,,67,0
6996,note_off,,,,,84,0,10,,,,11,,50,0
6996,note_off,,,,,276,0,3,,,,2,,72,0
6996,note_off,,,,,276,0,9,,,,8,,67,0
6996,note_off,,,,,276,0,4,,,,3,,67,0
6996,note_off,,,,,276,0,2,,,,1,,67,0
6996,note_off,,,,,276,0,5,,,,4,,64,0
6996,note_off,,,,,276,0,7,,,,6,,72,0
6996,note_off,,,,,276,0,1,,,,0,,72,0
6996,note_off,,,,,276,0,13,,,,14,,64,0
7008,note_on,,,,,12,0,4,,,,3,,72,62
7008,note_on,,,,,12,0,5,,,,4,,67,62
7008,note_on,,,,,12,0,13,,,,14,,67,75
7008,note_on,,,,,12,0,7,,,,6,,79,75
7008,note_on,,,,,12,0,10,,,,11,,52,49
7008,note_on,,,,,12,0,6,,,,5,,52,49
7008,note_on,,,,,12,0,3,,,,2,,79,62
7008,note_on,,,,,12,0,1,,,,0,,60,127
7008,note_on,,,,,0,0,12,,,,13,,52,96
7008,note_on,,,,,0,0,12,,,,13,,72,96
7008,note_on,,,,,12,0,12,,,,13,,67,96
7008,note_on,,,,,12,0,8,,,,7,,79,75
7008,note_on,,,,,12,0,9,,,,8,,72,75
7008,note_on,,,,,12,0,11,,,,12,,40,49
7092,note_off,,,,,84,0,3,,,,2,,79,0
7092,note_off,,,,,84,0,4,,,,3,,72,0
7092,note_off,,,,,84,0,12,,,,13,,67,0
7092,note_off,,,,,0,0,12,,,,13,,72,0
7092,note_off,,,,,84,0,9,,,,8,,72,0
7092,note_off,,,,,84,0,7,,,,6,,79,0
7092,note_off,,,,,84,0,8,,,,7,,79,0
7092,note_off,,,,,84,0,1,,,,0,,60,0
7104,note_on,,,,,0,0,12,,,,13,,70,96
7104,note_on,,,,,12,0,3,,,,2,,82,62
7104,note_on,,,,,12,0,12,,,,13,,67,96
7104,note_on,,,,,12,0,9,,,,8,,79,75
7104,note_on,,,,,12,0,4,,,,3,,79,62
7104,note_on,,,,,12,0,1,,,,0,,60,127
7104,note_on,,,,,12,0,7,,,,6,,82,75
7104,note_on,,,,,12,0,8,,,,7,,82,75
7146,note_off,,,,,42,0,1,,,,0,,60,0
7152,note_on,,,,,6,0,1,,,,0,,60,127
7188,note_off,,,,,180,0,6,,,,5,,52,0
7188,note_off,,,,,84,0,7,,,,6,,82,0
7188,note_off,,,,,180,0,11,,,,12,,40,0
7188,note_off,,,,,84,0,12,,,,13,,52,0
7188,note_off,,,,,0,0,12,,,,13,,67,0
7188,note_off,,,,,0,0,12,,,,13,,70,0
7188,note_off,,,,,180,0,13,,,,14,,67,0
7188,note_off,,,,,84,0,9,,,,8,,79,0
7188,note_off,,,,,180,0,10,,,,11,,52,0
7188,note_off,,,,,84,0,4,,,,3,,79,0
7188,note_off,,,,,84,0,8,,,,7,,82,0
7188,note_off,,,,,84,0,3,,,,2,,82,0
7188,note_off,,,,,180,0,5,,,,4,,67,0
7194,note_off,,,,,42,0,1,,,,0,,60,0
7200,note_on,,,,,0,0,12,,,,13,,69,96
7200,note_on,,,,,12,0,8,,,,7,,81,75
7200,note_on,,,,,12,0,11,,,,12,,41,49
7200,note_on,,,,,12,0,3,,,,2,,81,62
7200,note_on,,,,,12,0,5,,,,4,,72,62
7200,note_on,,,,,12,0,12,,,,13,,60,96
7200,note_on,,,,,12,0,6,,,,5,,53,49
7200,note_on,,,,,0,0,12,,,,13,,53,96
7200,note_on,,,,,12,0,9,,,,8,,77,75
7200,note_on,,,,,12,0,7,,,,6,,81,75
7200,note_on,,,,,12,0,10,,,,11,,53,49
7200,note_on,,,,,12,0,13,,,,14,,72,75
7200,note_on,,,,,6,0,1,,,,0,,60,127
7200,note_on,,,,,12,0,4,,,,3,,77,62
7242,note_off,,,,,42,0,1,,,,0,,60,0
7248,note_on,,,,,6,0,1,,,,0,,60,127
7284,note_off,,,,,84,0,7,,,,6,,81,0
7284,note_off,,,,,84,0,5,,,,4,,72,0
7284,note_off,,,,,84,0,8,,,,7,,81,0
7284,note_off,,,,,84,0,6,,,,5,,53,0
7284,note_off,,,,,84,0,9,,,,8,,77,0
7284,note_off,,,,,84,0,11,,,,12,,41,0
7284,note_off,,,,,0,0,12,,,,13,,53,0
7284,note_off,,,,,0,0,12,,,,13,,69,0
7284,note_off,,,,,84,0,12,,,,13,,60,0
7284,note_off,,,,,84,0,13,,,,14,,72,0
7284,note_off,,,,,84,0,10,,,,11,,53,0
7284,note_off,,,,,84,0,4,,,,3,,77,0
7284,note_off,,,,,84,0,3,,,,2,,81,0
7290,note_off,,,,,42,0,1,,,,0,,60,0
7296,note_on,,,,,12,0,6,,,,5,,55,49
7296,note_on,,,,,12,0,13,,,,14,,72,75
7296,note_on,,,,,300,0,2,,,,1,,60,127
7296,note_on,,,,,12,0,7,,,,6,,81,75
7296,note_on,,,,,12,0,12,,,,13,,64,96
7296,note_on,,,,,12,0,9,,,,8,,76,75
7296,note_on,,,,,12,0,8,,,,7,,79,75
7296,note_on,,,,,12,0,3,,,,2,,79,62
7296,note_on,,,,,6,0,1,,,,0,,60,127
7296,note_on,,,,,0,0,12,,,,13,,55,96
7296,note_on,,,,,0,0,12,,,,13,,70,96
7296,note_on,,,,,12,0,5,,,,4,,70,62
7296,note_on,,,,,12,0,10,,,,11,,55,49
7296,note_on,,,,,12,0,4,,,,3,,76,62
7296,note_on,,,,,12,0,11,,,,12,,43,49
7306,note_off,,,,,10,0,13,,,,14,,72,0
7306,note_off,,,,,10,0,7,,,,6,,81,0
7308,note_on,,,,,2,0,7,,,,6,,79,75
7308,note_on,,,,,2,0,13,,,,14,,70,75
7318,note_off,,,,,10,0,13,,,,14,,70,0
7318,note_off,,,,,10,0,7,,,,6,,79,0
7320,note_on,,,,,2,0,13,,,,14,,72,75
7320,note_on,,,,,2,0,7,,,,6,,81,75
7330,note_off,,,,,10,0,13,,,,14,,72,0
7330,note_off,,,,,10,0,7,,,,6,,81,0
7332,note_on,,,,,2,0,13,,,,14,,70,75
7332,note_on,,,,,2,0,7,,,,6,,79,75
7342,note_off,,,,,10,0,7,,,,6,,79,0
7342,note_off,,,,,10,0,13,,,,14,,70,0
7344,note_on,,,,,2,0,13,,,,14,,72,75
7344,note_on,,,,,2,0,7,,,,6,,81,75
7354,note_off,,,,,10,0,13,,,,14,,72,0
7354,note_off,,,,,10,0,7,,,,6,,81,0
7356,note_on,,,,,2,0,13,,,,14,,70,75
7356,note_on,,,,,2,0,7,,,,6,,79,75
7366,note_off,,,,,10,0,7,,,,6,,79,0
7366,note_off,,,,,10,0,13,,,,14,,70,0
7368,note_on,,,,,2,0,13,,,,14,,72,75
7368,note_on,,,,,2,0,7,,,,6,,81,75
7378,note_off,,,,,10,0,13,,,,14,,72,0
7378,note_off,,,,,10,0,7,,,,6,,81,0
7380,note_off,,,,,0,0,12,,,,13,,70,0
7380,note_off,,,,,84,0,12,,,,13,,64,0
7380,note_off,,,,,0,0,12,,,,13,,55,0
7380,note_off,,,,,84,0,9,,,,8,,76,0
7380,note_off,,,,,84,0,2,,,,1,,60,0
7380,note_off,,,,,84,0,6,,,,5,,55,0
7380,note_off,,,,,84,0,1,,,,0,,60,0
7380,note_off,,,,,84,0,3,,,,2,,79,0
7380,note_on,,,,,2,0,7,,,,6,,79,75
7380,note_off,,,,,84,0,8,,,,7,,79,0
7380,note_off,,,,,84,0,4,,,,3,,76,0
7380,note_off,,,,,84,0,11,,,,12,,43,0
7380,note_on,,,,,2,0,13,,,,14,,70,75
7380,note_off,,,,,84,0,10,,,,11,,55,0
7380,note_off,,,,,84,0,5,,,,4,,70,0
7390,note_off,,,,,10,0,13,,,,14,,70,0
7390,note_off,,,,,10,0,7,,,,6,,79,0
7392,note_on,,,,,12,0,2,,,,1,,60,127
7392,note_on,,,,,12,0,12,,,,13,,64,96
7392,note_on,,,,,0,0,12,,,,13,,72,96
7392,note_on,,,,,0,0,12,,,,13,,58,96
7392,note_on,,,,,12,0,9,,,,8,,72,75
7392,note_on,,,,,12,0,8,,,,7,,77,75
7392,note_on,,,,,12,0,11,,,,12,,46,49
7392,note_on,,,,,12,0,3,,,,2,,77,62
7392,note_on,,,,,12,0,10,,,,11,,58,49
7392,note_on,,,,,12,0,5,,,,4,,69,62
7392,note_on,,,,,2,0,13,,,,14,,69,75
7392,note_on,,,,,12,0,4,,,,3,,72,62
7392,note_on,,,,,12,0,6,,,,5,,58,49
7392,note_on,,,,,2,0,7,,,,6,,77,75
7434,note_off,,,,,42,0,3,,,,2,,77,0
7434,note_off,,,,,42,0,8,,,,7,,77,0
7434,note_off,,,,,42,0,13,,,,14,,69,0
7434,note_off,,,,,42,0,5,,,,4,,69,0
7434,note_off,,,,,42,0,7,,,,6,,77,0
7434,note_off,,,,,42,0,2,,,,1,,60,0
7440,note_on,,,,,6,0,2,,,,1,,60,127
7440,note_on,,,,,6,0,3,,,,2,,76,62
7440,note_on,,,,,6,0,7,,,,6,,76,75
7440,note_on,,,,,6,0,8,,,,7,,76,75
7440,note_on,,,,,6,0,5,,,,4,,67,62
7440,note_on,,,,,6,0,13,,,,14,,67,75
7476,note_off,,,,,0,0,12,,,,13,,72,0
7476,note_off,,,,,84,0,12,,,,13,,64,0
7476,note_off,,,,,84,0,11,,,,12,,46,0
7476,note_off,,,,,84,0,9,,,,8,,72,0
7476,note_off,,,,,84,0,10,,,,11,,58,0
7476,note_off,,,,,84,0,6,,,,5,,58,0
7476,note_off,,,,,84,0,4,,,,3,,72,0
7476,note_off,,,,,0,0,12,,,,13,,58,0
7482,note_off,,,,,42,0,2,,,,1,,60,0
7482,note_off,,,,,42,0,7,,,,6,,76,0
7482,note_off,,,,,42,0,5,,,,4,,67,0
7482,note_off,,,,,42,0,8,,,,7,,76,0
7482,note_off,,,,,42,0,3,,,,2,,76,0
7482,note_off,,,,,42,0,13,,,,14,,67,0
7488,note_on,,,,,0,0,12,,,,13,,57,96
7488,note_on,,,,,6,0,3,,,,2,,77,62
7488,note_on,,,,,12,0,11,,,,12,,45,49
7488,note_on,,,,,6,0,2,,,,1,,60,127
7488,note_on,,,,,12,0,10,,,,11,,57,49
7488,note_on,,,,,12,0,4,,,,3,,72,62
7488,note_on,,,,,6,0,13,,,,14,,69,75
7488,note_on,,,,,12,0,12,,,,13,,65,96
7488,note_on,,,,,0,0,12,,,,13,,72,96
7488,note_on,,,,,6,0,5,,,,4,,69,62
7488,note_on,,,,,6,0,8,,,,7,,77,75
7488,note_on,,,,,6,0,7,,,,6,,77,75
7488,note_on,,,,,12,0,9,,,,8,,72,75
7488,note_on,,,,,12,0,6,,,,5,,57,49
7530,note_off,,,,,42,0,2,,,,1,,60,0
7536,note_on,,,,,6,0,2,,,,1,,60,127
7572,note_off,,,,,84,0,7,,,,6,,77,0
7572,note_off,,,,,84,0,13,,,,14,,69,0
7572,note_off,,,,,84,0,4,,,,3,,72,0
7572,note_off,,,,,0,0,12,,,,13,,72,0
7572,note_off,,,,,84,0,12,,,,13,,65,0
7572,note_off,,,,,84,0,6,,,,5,,57,0
7572,note_off,,,,,84,0,9,,,,8,,72,0
7572,note_off,,,,,0,0,12,,,,13,,57,0
7572,note_off,,,,,84,0,11,,,,12,,45,0
7572,note_off,,,,,84,0,3,,,,2,,77,0
7572,note_off,,,,,84,0,8,,,,7,,77,0
7572,note_off,,,,,84,0,5,,,,4,,69,0
7572,note_off,,,,,84,0,10,,,,11,,57,0
7578,note_off,,,,,42,0,2,,,,1,,60,0
7584,note_on,,,,,12,0,3,,,,2,,79,62
7584,note_on,,,,,204,0,1,,,,0,,60,127
7584,note_on,,,,,12,0,8,,,,7,,79,75
7584,note_on,,,,,12,0,7,,,,6,,79,75
7584,note_on,,,,,12,0,10,,,,11,,55,49
7584,note_on,,,,,12,0,5,,,,4,,70,62
7584,note_on,,,,,0,0,12,,,,13,,55,96
7584,note_on,,,,,0,0,12,,,,13,,70,96
7584,note_on,,,,,12,0,12,,,,13,,64,96
7584,note_on,,,,,12,0,6,,,,5,,55,49
7584,note_on,,,,,12,0,9,,,,8,,76,75
7584,note_on,,,,,12,0,11,,,,12,,43,49
7584,note_on,,,,,6,0,2,,,,1,,60,127
7584,note_on,,,,,12,0,13,,,,14,,70,75
7584,note_on,,,,,12,0,4,,,,3,,76,62
7668,note_off,,,,,84,0,6,,,,5,,55,0
7668,note_off,,,,,84,0,11,,,,12,,43,0
7668,note_off,,,,,84,0,2,,,,1,,60,0
7668,note_off,,,,,84,0,10,,,,11,,55,0
7668,note_off,,,,,84,0,7,,,,6,,79,0
7668,note_off,,,,,84,0,5,,,,4,,70,0
7668,note_off,,,,,84,0,12,,,,13,,64,0
7668,note_off,,,,,0,0,12,,,,13,,70,0
7668,note_off,,,,,0,0,12,,,,13,,55,0
7668,note_off,,,,,84,0,4,,,,3,,76,0
7668,note_off,,,,,84,0,3,,,,2,,79,0
7668,note_off,,,,,84,0,9,,,,8,,76,0
7668,note_off,,,,,84,0,1,,,,0,,60,0
7668,note_off,,,,,84,0,8,,,,7,,79,0
7668,note_off,,,,,84,0,13,,,,14,,70,0
7680,note_on,,,,,12,0,13,,,,14,,67,75
7680,note_on,,,,,12,0,5,,,,4,,67,62
7680,note_on,,,,,12,0,11,,,,12,,41,49
7680,note_on,,,,,12,0,9,,,,8,,79,75
7680,note_on,,,,,0,0,12,,,,13,,53,96
7680,note_on,,,,,0,0,12,,,,13,,70,96
7680,note_on,,,,,12,0,3,,,,2,,82,62
7680,note_on,,,,,12,0,12,,,,13,,62,96
7680,note_on,,,,,12,0,4,,,,3,,79,62
7680,note_on,,,,,12,0,7,,,,6,,82,75
7680,note_on,,,,,12,0,10,,,,11,,53,49
7680,note_on,,,,,12,0,8,,,,7,,82,75
7680,note_on,,,,,12,0,1,,,,0,,60,127
7680,note_on,,,,,12,0,6,,,,5,,53,49
7722,note_off,,,,,42,0,10,,,,11,,53,0
7722,note_off,,,,,42,0,12,,,,13,,53,0
7722,note_off,,,,,42,0,11,,,,12,,41,0
7722,note_off,,,,,42,0,6,,,,5,,53,0
7722,note_off,,,,,42,0,1,,,,0,,60,0
7728,note_on,,,,,6,0,10,,,,11,,52,49
7728,note_on,,,,,6,0,1,,,,0,,60,127
7728,note_on,,,,,6,0,11,,,,12,,40,49
7728,note_on,,,,,6,0,12,,,,13,,52,96
7728,note_on,,,,,6,0,6,,,,5,,52,49
7764,note_off,,,,,84,0,13,,,,14,,67,0
7764,note_off,,,,,84,0,7,,,,6,,82,0
7764,note_off,,,,,36,0,12,,,,13,,62,0
7764,note_off,,,,,84,0,9,,,,8,,79,0
7764,note_off,,,,,84,0,5,,,,4,,67,0
7764,note_off,,,,,84,0,8,,,,7,,82,0
7764,note_off,,,,,0,0,12,,,,13,,70,0
7764,note_off,,,,,84,0,4,,,,3,,79,0
7764,note_off,,,,,84,0,3,,,,2,,82,0
7770,note_off,,,,,42,0,10,,,,11,,52,0
7770,note_off,,,,,42,0,6,,,,5,,52,0
7770,note_off,,,,,6,0,12,,,,13,,52,0
7770,note_off,,,,,42,0,11,,,,12,,40,0
7770,note_off,,,,,42,0,1,,,,0,,60,0
7776,note_on,,,,,0,0,12,,,,13,,69,96
7776,note_on,,,,,12,0,13,,,,14,,72,75
7776,note_on,,,,,12,0,8,,,,7,,81,75
7776,note_on,,,,,12,0,3,,,,2,,81,62
7776,note_on,,,,,6,0,11,,,,12,,41,49
7776,note_on,,,,,6,0,6,,,,5,,53,49
7776,note_on,,,,,6,0,1,,,,0,,60,127
7776,note_on,,,,,6,0,12,,,,13,,60,96
7776,note_on,,,,,0,0,12,,,,13,,53,96
7776,note_on,,,,,6,0,10,,,,11,,53,49
7776,note_on,,,,,12,0,9,,,,8,,77,75
7776,note_on,,,,,12,0,4,,,,3,,77,62
7776,note_on,,,,,12,0,7,,,,6,,81,75
7776,note_on,,,,,12,0,5,,,,4,,72,62
7818,note_off,,,,,42,0,1,,,,0,,60,0
7824,note_on,,,,,6,0,1,,,,0,,60,127
7860,note_off,,,,,0,0,12,,,,13,,53,0
7860,note_off,,,,,0,0,12,,,,13,,69,0
7860,note_off,,,,,84,0,8,,,,7,,81,0
7860,note_off,,,,,84,0,4,,,,3,,77,0
7860,note_off,,,,,84,0,3,,,,2,,81,0
7860,note_off,,,,,84,0,10,,,,11,,53,0
7860,note_off,,,,,84,0,12,,,,13,,60,0
7860,note_off,,,,,84,0,6,,,,5,,53,0
7860,note_off,,,,,84,0,9,,,,8,,77,0
7860,note_off,,,,,84,0,7,,,,6,,81,0
7860,note_off,,,,,84,0,11,,,,12,,41,0
7860,note_off,,,,,84,0,5,,,,4,,72,0
7860,note_off,,,,,84,0,13,,,,14,,72,0
7866,note_off,,,,,42,0,1,,,,0,,60,0
7872,note_on,,,,,12,0,5,,,,4,,72,62
7872,note_on,,,,,12,0,6,,,,5,,52,49
7872,note_on,,,,,204,0,2,,,,1,,60,127
7872,note_on,,,,,12,0,8,,,,7,,81,75
7872,note_on,,,,,12,0,11,,,,12,,40,49
7872,note_on,,,,,6,0,1,,,,0,,60,127
7872,note_on,,,,,12,0,4,,,,3,,79,62
7872,note_on,,,,,12,0,12,,,,13,,60,96
7872,note_on,,,,,0,0,12,,,,13,,67,96
7872,note_on,,,,,0,0,12,,,,13,,52,96
7872,note_on,,,,,12,0,9,,,,8,,79,75
7872,note_on,,,,,12,0,3,,,,2,,81,62
7872,note_on,,,,,12,0,10,,,,11,,52,49
7872,note_on,,,,,12,0,13,,,,14,,72,75
7872,note_on,,,,,12,0,7,,,,6,,81,75
7882,note_off,,,,,10,0,3,,,,2,,81,0
7882,note_off,,,,,10,0,7,,,,6,,81,0
7882,note_off,,,,,10,0,8,,,,7,,81,0
7884,note_on,,,,,2,0,3,,,,2,,79,62
7884,note_on,,,,,2,0,8,,,,7,,79,75
7884,note_on,,,,,2,0,7,,,,6,,79,75
7894,note_off,,,,,10,0,3,,,,2,,79,0
7894,note_off,,,,,10,0,8,,,,7,,79,0
7894,note_off,,,,,10,0,7,,,,6,,79,0
7896,note_on,,,,,2,0,8,,,,7,,81,75
7896,note_on,,,,,2,0,7,,,,6,,81,75
7896,note_on,,,,,2,0,3,,,,2,,81,62
7906,note_off,,,,,10,0,8,,,,7,,81,0
7906,note_off,,,,,10,0,3,,,,2,,81,0
7906,note_off,,,,,10,0,7,,,,6,,81,0
7908,note_on,,,,,2,0,8,,,,7,,79,75
7908,note_on,,,,,2,0,3,,,,2,,79,62
7908,note_on,,,,,2,0,7,,,,6,,79,75
7918,note_off,,,,,10,0,3,,,,2,,79,0
7918,note_off,,,,,10,0,8,,,,7,,79,0
7918,note_off,,,,,10,0,7,,,,6,,79,0
7920,note_on,,,,,2,0,8,,,,7,,81,75
7920,note_on,,,,,2,0,3,,,,2,,81,62
7920,note_on,,,,,2,0,7,,,,6,,81,75
7930,note_off,,,,,10,0,7,,,,6,,81,0
7930,note_off,,,,,10,0,3,,,,2,,81,0
7930,note_off,,,,,10,0,8,,,,7,,81,0
7932,note_on,,,,,2,0,3,,,,2,,79,62
7932,note_on,,,,,2,0,7,,,,6,,79,75
7932,note_on,,,,,2,0,8,,,,7,,79,75
7942,note_off,,,,,10,0,8,,,,7,,79,0
7942,note_off,,,,,10,0,3,,,,2,,79,0
7942,note_off,,,,,10,0,7,,,,6,,79,0
7944,note_on,,,,,2,0,3,,,,2,,81,62
7944,note_on,,,,,2,0,8,,,,7,,81,75
7944,note_on,,,,,2,0,7,,,,6,,81,75
7954,note_off,,,,,10,0,3,,,,2,,81,0
7954,note_off,,,,,10,0,8,,,,7,,81,0
7954,note_off,,,,,10,0,7,,,,6,,81,0
7956,note_off,,,,,84,0,1,,,,0,,60,0
7956,note_on,,,,,2,0,7,,,,6,,79,75
7956,note_off,,,,,84,0,11,,,,12,,40,0
7956,note_off,,,,,84,0,2,,,,1,,60,0
7956,note_off,,,,,0,0,12,,,,13,,52,0
7956,note_off,,,,,84,0,10,,,,11,,52,0
7956,note_off,,,,,0,0,12,,,,13,,67,0
7956,note_off,,,,,84,0,9,,,,8,,79,0
7956,note_off,,,,,84,0,12,,,,13,,60,0
7956,note_off,,,,,84,0,6,,,,5,,52,0
7956,note_on,,,,,2,0,3,,,,2,,79,62
7956,note_off,,,,,84,0,4,,,,3,,79,0
7956,note_on,,,,,2,0,8,,,,7,,79,75
7966,note_off,,,,,10,0,8,,,,7,,79,0
7966,note_off,,,,,10,0,7,,,,6,,79,0
7966,note_off,,,,,10,0,3,,,,2,,79,0
7968,note_on,,,,,12,0,4,,,,3,,77,62
7968,note_on,,,,,0,0,12,,,,13,,53,96
7968,note_on,,,,,0,0,12,,,,13,,72,96
7968,note_on,,,,,12,0,12,,,,13,,65,96
7968,note_on,,,,,12,0,9,,,,8,,77,75
7968,note_on,,,,,2,0,8,,,,7,,81,75
7968,note_on,,,,,2,0,7,,,,6,,81,75
7968,note_on,,,,,2,0,3,,,,2,,81,62
7968,note_on,,,,,12,0,10,,,,11,,53,49
7968,note_on,,,,,12,0,2,,,,1,,60,127
7968,note_on,,,,,12,0,11,,,,12,,41,49
7968,note_on,,,,,12,0,6,,,,5,,53,49
7978,note_off,,,,,10,0,3,,,,2,,81,0
7978,note_off,,,,,10,0,7,,,,6,,81,0
7978,note_off,,,,,10,0,8,,,,7,,81,0
7980,note_on,,,,,2,0,8,,,,7,,79,75
7980,note_on,,,,,2,0,3,,,,2,,79,62
7980,note_on,,,,,2,0,7,,,,6,,79,75
7990,note_off,,,,,10,0,8,,,,7,,79,0
7990,note_off,,,,,10,0,3,,,,2,,79,0
7990,note_off,,,,,10,0,7,,,,6,,79,0
7992,note_on,,,,,2,0,3,,,,2,,81,62
7992,note_on,,,,,2,0,7,,,,6,,81,75
7992,note_on,,,,,2,0,8,,,,7,,81,75
8002,note_off,,,,,10,0,7,,,,6,,81,0
8002,note_off,,,,,10,0,8,,,,7,,81,0
8002,note_off,,,,,10,0,3,,,,2,,81,0
8004,note_on,,,,,2,0,3,,,,2,,79,62
8004,note_on,,,,,2,0,7,,,,6,,79,75
8004,note_on,,,,,2,0,8,,,,7,,79,75
8010,note_off,,,,,42,0,11,,,,12,,41,0
8010,note_off,,,,,42,0,10,,,,11,,53,0
8010,note_off,,,,,42,0,6,,,,5,,53,0
8010,note_off,,,,,42,0,2,,,,1,,60,0
8010,note_off,,,,,42,0,12,,,,13,,53,0
8014,note_off,,,,,10,0,8,,,,7,,79,0
8014,note_off,,,,,10,0,3,,,,2,,79,0
8014,note_off,,,,,10,0,7,,,,6,,79,0
8016,note_on,,,,,6,0,12,,,,13,,52,96
8016,note_on,,,,,2,0,8,,,,7,,81,75
8016,note_on,,,,,6,0,10,,,,11,,52,49
8016,note_on,,,,,6,0,6,,,,5,,52,49
8016,note_on,,,,,2,0,3,,,,2,,81,62
8016,note_on,,,,,6,0,11,,,,12,,40,49
8016,note_on,,,,,2,0,7,,,,6,,81,75
8016,note_on,,,,,6,0,2,,,,1,,60,127
8026,note_off,,,,,10,0,3,,,,2,,81,0
8026,note_off,,,,,10,0,7,,,,6,,81,0
8026,note_off,,,,,10,0,8,,,,7,,81,0
8028,note_on,,,,,2,0,7,,,,6,,79,75
8028,note_on,,,,,2,0,8,,,,7,,79,75
8028,note_on,,,,,2,0,3,,,,2,,79,62
8038,note_off,,,,,10,0,3,,,,2,,79,0
8038,note_off,,,,,10,0,8,,,,7,,79,0
8038,note_off,,,,,10,0,7,,,,6,,79,0
8040,note_on,,,,,2,0,8,,,,7,,81,75
8040,note_on,,,,,2,0,7,,,,6,,81,75
8040,note_on,,,,,2,0,3,,,,2,,81,62
8050,note_off,,,,,10,0,7,,,,6,,81,0
8050,note_off,,,,,10,0,8,,,,7,,81,0
8050,note_off,,,,,10,0,3,,,,2,,81,0
8052,note_off,,,,,180,0,5,,,,4,,72,0
8052,note_off,,,,,180,0,13,,,,14,,72,0
8052,note_on,,,,,2,0,7,,,,6,,79,75
8052,note_on,,,,,2,0,8,,,,7,,79,75
8052,note_off,,,,,84,0,4,,,,3,,77,0
8052,note_off,,,,,84,0,9,,,,8,,77,0
8052,note_off,,,,,36,0,12,,,,13,,65,0
8052,note_off,,,,,0,0,12,,,,13,,72,0
8052,note_on,,,,,2,0,3,,,,2,,79,62
8058,note_off,,,,,6,0,12,,,,13,,52,0
8058,note_off,,,,,42,0,6,,,,5,,52,0
8058,note_off,,,,,42,0,10,,,,11,,52,0
8058,note_off,,,,,42,0,2,,,,1,,60,0
8058,note_off,,,,,42,0,11,,,,12,,40,0
8062,note_off,,,,,10,0,3,,,,2,,79,0
8062,note_off,,,,,10,0,7,,,,6,,79,0
8062,note_off,,,,,10,0,8,,,,7,,79,0
8064,note_on,,,,,6,0,12,,,,13,,67,96
8064,note_on,,,,,0,0,12,,,,13,,76,96
8064,note_on,,,,,0,0,12,,,,13,,50,96
8064,note_on,,,,,6,0,6,,,,5,,50,49
8064,note_on,,,,,2,0,8,,,,7,,84,75
8064,note_on,,,,,12,0,4,,,,3,,76,62
8064,note_on,,,,,2,0,3,,,,2,,84,62
8064,note_on,,,,,12,0,9,,,,8,,76,75
8064,note_on,,,,,2,0,7,,,,6,,84,75
8064,note_on,,,,,6,0,11,,,,12,,38,49
8064,note_on,,,,,12,0,5,,,,4,,67,62
8064,note_on,,,,,6,0,2,,,,1,,60,127
8064,note_on,,,,,6,0,10,,,,11,,50,49
8064,note_on,,,,,12,0,13,,,,14,,67,75
8106,note_off,,,,,42,0,11,,,,12,,38,0
8106,note_off,,,,,42,0,2,,,,1,,60,0
8106,note_off,,,,,42,0,10,,,,11,,50,0
8106,note_off,,,,,42,0,12,,,,13,,50,0
8106,note_off,,,,,42,0,6,,,,5,,50,0
8112,note_on,,,,,6,0,2,,,,1,,60,127
8112,note_on,,,,,6,0,12,,,,13,,48,96
8112,note_on,,,,,6,0,6,,,,5,,48,49
8112,note_on,,,,,6,0,11,,,,12,,36,49
8112,note_on,,,,,6,0,10,,,,11,,48,49
8148,note_off,,,,,84,0,13,,,,14,,67,0
8148,note_off,,,,,84,0,4,,,,3,,76,0
8148,note_off,,,,,84,0,3,,,,2,,84,0
8148,note_off,,,,,84,0,8,,,,7,,84,0
8148,note_off,,,,,36,0,12,,,,13,,67,0
8148,note_off,,,,,84,0,9,,,,8,,76,0
8148,note_off,,,,,0,0,12,,,,13,,76,0
8148,note_off,,,,,84,0,5,,,,4,,67,0
8148,note_off,,,,,84,0,7,,,,6,,84,0
8154,note_off,,,,,42,0,10,,,,11,,48,0
8154,note_off,,,,,6,0,12,,,,13,,48,0
8154,note_off,,,,,42,0,11,,,,12,,36,0
8154,note_off,,,,,42,0,2,,,,1,,60,0
8154,note_off,,,,,42,0,6,,,,5,,48,0
8160,note_on,,,,,12,0,5,,,,4,,67,62
8160,note_on,,,,,6,0,11,,,,12,,36,49
8160,note_on,,,,,6,0,2,,,,1,,67,127
8160,note_on,,,,,204,0,1,,,,0,,67,127
8160,note_on,,,,,12,0,9,,,,8,,74,75
8160,note_on,,,,,12,0,7,,,,6,,77,75
8160,note_on,,,,,12,0,8,,,,7,,77,75
8160,note_on,,,,,6,0,10,,,,11,,48,49
8160,note_on,,,,,0,0,12,,,,13,,48,96
8160,note_on,,,,,12,0,13,,,,14,,67,75
8160,note_on,,,,,12,0,4,,,,3,,74,62
8160,note_on,,,,,6,0,6,,,,5,,48,49
8160,note_on,,,,,6,0,12,,,,13,,67,96
8160,note_on,,,,,0,0,12,,,,13,,74,96
8160,note_on,,,,,12,0,3,,,,2,,77,62
8170,note_off,,,,,10,0,12,,,,13,,48,0
8170,note_off,,,,,10,0,10,,,,11,,48,0
8170,note_off,,,,,10,0,11,,,,12,,36,0
8172,note_on,,,,,2,0,10,,,,11,,47,49
8172,note_on,,,,,2,0,11,,,,12,,35,49
8172,note_on,,,,,2,0,12,,,,13,,47,96
8181,note_off,,,,,21,0,6,,,,5,,48,0
8182,note_off,,,,,10,0,12,,,,13,,47,0
8182,note_off,,,,,10,0,11,,,,12,,35,0
8182,note_off,,,,,10,0,10,,,,11,,47,0
8184,note_on,,,,,2,0,12,,,,13,,48,96
8184,note_on,,,,,3,0,6,,,,5,,47,49
8184,note_on,,,,,2,0,10,,,,11,,48,49
8184,note_on,,,,,2,0,11,,,,12,,36,49
8194,note_off,,,,,10,0,11,,,,12,,36,0
8194,note_off,,,,,10,0,10,,,,11,,48,0
8194,note_off,,,,,10,0,12,,,,13,,48,0
8196,note_on,,,,,2,0,12,,,,13,,47,96
8196,note_on,,,,,2,0,11,,,,12,,35,49
8196,note_on,,,,,2,0,10,,,,11,,47,49
8205,note_off,,,,,21,0,6,,,,5,,47,0
8206,note_off,,,,,10,0,12,,,,13,,47,0
8206,note_off,,,,,10,0,11,,,,12,,35,0
8206,note_off,,,,,10,0,10,,,,11,,47,0
8208,note_on,,,,,2,0,10,,,,11,,48,49
8208,note_on,,,,,3,0,6,,,,5,,48,49
8208,note_on,,,,,2,0,12,,,,13,,48,96
8208,note_on,,,,,2,0,11,,,,12,,36,49
8218,note_off,,,,,10,0,11,,,,12,,36,0
8218,note_off,,,,,10,0,10,,,,11,,48,0
8218,note_off,,,,,10,0,12,,,,13,,48,0
8220,note_on,,,,,2,0,12,,,,13,,47,96
8220,note_on,,,,,2,0,11,,,,12,,35,49
8220,note_on,,,,,2,0,10,,,,11,,47,49
8229,note_off,,,,,21,0,6,,,,5,,48,0
8230,note_off,,,,,10,0,10,,,,11,,47,0
8230,note_off,,,,,10,0,12,,,,13,,47,0
8230,note_off,,,,,10,0,11,,,,12,,35,0
8232,note_on,,,,,3,0,6,,,,5,,47,49
8232,note_on,,,,,2,0,11,,,,12,,36,49
8232,note_on,,,,,2,0,10,,,,11,,48,49
8232,note_on,,,,,2,0,12,,,,13,,48,96
8242,note_off,,,,,10,0,11,,,,12,,36,0
8242,note_off,,,,,10,0,12,,,,13,,48,0
8242,note_off,,,,,10,0,10,,,,11,,48,0
8244,note_off,,,,,84,0,1,,,,0,,67,0
8244,note_off,,,,,84,0,7,,,,6,,77,0
8244,note_off,,,,,84,0,2,,,,1,,67,0
8244,note_on,,,,,2,0,10,,,,11,,47,49
8244,note_off,,,,,84,0,8,,,,7,,77,0
8244,note_off,,,,,2,0,12,,,,13,,67,0
8244,note_off,,,,,0,0,12,,,,13,,74,0
8244,note_on,,,,,2,0,11,,,,12,,35,49
8244,note_off,,,,,84,0,3,,,,2,,77,0
8244,note_on,,,,,0,0,12,,,,13,,47,96
8253,note_off,,,,,21,0,6,,,,5,,47,0
8254,note_off,,,,,10,0,10,,,,11,,47,0
8254,note_off,,,,,10,0,11,,,,12,,35,0
8254,note_off,,,,,10,0,12,,,,13,,47,0
8256,note_on,,,,,12,0,1,,,,0,,67,127
8256,note_on,,,,,0,0,12,,,,13,,71,96
8256,note_on,,,,,0,0,12,,,,13,,48,96
8256,note_on,,,,,2,0,10,,,,11,,48,49
8256,note_on,,,,,2,0,11,,,,12,,36,49
8256,note_on,,,,,12,0,8,,,,7,,74,75
8256,note_on,,,,,2,0,12,,,,13,,62,96
8256,note_on,,,,,12,0,3,,,,2,,74,62
8256,note_on,,,,,12,0,7,,,,6,,74,75
8256,note_on,,,,,3,0,6,,,,5,,48,49
8266,note_off,,,,,10,0,11,,,,12,,36,0
8266,note_off,,,,,10,0,12,,,,13,,48,0
8266,note_off,,,,,10,0,10,,,,11,,48,0
8268,note_on,,,,,2,0,12,,,,13,,47,96
8268,note_on,,,,,2,0,11,,,,12,,35,49
8268,note_on,,,,,2,0,10,,,,11,,47,49
8277,note_off,,,,,21,0,6,,,,5,,48,0
8278,note_off,,,,,10,0,11,,,,12,,35,0
8278,note_off,,,,,10,0,10,,,,11,,47,0
8278,note_off,,,,,10,0,12,,,,13,,47,0
8280,note_on,,,,,2,0,10,,,,11,,48,49
8280,note_on,,,,,3,0,6,,,,5,,47,49
8280,note_on,,,,,2,0,11,,,,12,,36,49
8280,note_on,,,,,2,0,12,,,,13,,48,96
8290,note_off,,,,,10,0,11,,,,12,,36,0
8290,note_off,,,,,10,0,10,,,,11,,48,0
8290,note_off,,,,,10,0,12,,,,13,,48,0
8292,note_on,,,,,2,0,10,,,,11,,47,49
8292,note_on,,,,,2,0,12,,,,13,,47,96
8292,note_on,,,,,2,0,11,,,,12,,35,49
8298,note_off,,,,,42,0,1,,,,0,,67,0
8301,note_off,,,,,21,0,6,,,,5,,47,0
8302,note_off,,,,,10,0,11,,,,12,,35,0
8302,note_off,,,,,10,0,12,,,,13,,47,0
8302,note_off,,,,,10,0,10,,,,11,,47,0
8304,note_on,,,,,2,0,11,,,,12,,36,49
8304,note_on,,,,,3,0,6,,,,5,,48,49
8304,note_on,,,,,2,0,10,,,,11,,48,49
8304,note_on,,,,,2,0,12,,,,13,,48,96
8304,note_on,,,,,6,0,1,,,,0,,67,127
8314,note_off,,,,,10,0,12,,,,13,,48,0
8314,note_off,,,,,10,0,11,,,,12,,36,0
8314,note_off,,,,,10,0,10,,,,11,,48,0
8316,note_on,,,,,2,0,11,,,,12,,35,49
8316,note_on,,,,,2,0,10,,,,11,,47,49
8316,note_on,,,,,2,0,12,,,,13,,47,96
8325,note_off,,,,,21,0,6,,,,5,,48,0
8326,note_off,,,,,10,0,10,,,,11,,47,0
8326,note_off,,,,,10,0,12,,,,13,,47,0
8326,note_off,,,,,10,0,11,,,,12,,35,0
8328,note_on,,,,,2,0,12,,,,13,,48,96
8328,note_on,,,,,2,0,11,,,,12,,36,49
8328,note_on,,,,,2,0,10,,,,11,,48,49
8328,note_on,,,,,3,0,6,,,,5,,47,49
8338,note_off,,,,,10,0,10,,,,11,,48,0
8338,note_off,,,,,10,0,11,,,,12,,36,0
8338,note_off,,,,,10,0,12,,,,13,,48,0
8340,note_off,,,,,180,0,4,,,,3,,74,0
8340,note_off,,,,,84,0,7,,,,6,,74,0
8340,note_off,,,,,180,0,9,,,,8,,74,0
8340,note_off,,,,,2,0,12,,,,13,,62,0
8340,note_on,,,,,0,0,12,,,,13,,47,96
8340,note_off,,,,,84,0,8,,,,7,,74,0
8340,note_off,,,,,180,0,13,,,,14,,67,0
8340,note_off,,,,,84,0,3,,,,2,,74,0
8340,note_off,,,,,180,0,5,,,,4,,67,0
8340,note_on,,,,,2,0,11,,,,12,,35,49
8340,note_on,,,,,2,0,10,,,,11,,47,49
8340,note_off,,,,,0,0,12,,,,13,,71,0
8346,note_off,,,,,42,0,1,,,,0,,67,0
8349,note_off,,,,,21,0,6,,,,5,,47,0
8350,note_off,,,,,10,0,10,,,,11,,47,0
8350,note_off,,,,,10,0,11,,,,12,,35,0
8350,note_off,,,,,10,0,12,,,,13,,47,0
8352,note_on,,,,,12,0,9,,,,8,,72,75
8352,note_on,,,,,6,0,1,,,,0,,67,127
8352,note_on,,,,,12,0,3,,,,2,,76,62
8352,note_on,,,,,3,0,6,,,,5,,48,49
8352,note_on,,,,,12,0,8,,,,7,,76,75
8352,note_on,,,,,0,0,12,,,,13,,76,96
8352,note_on,,,,,0,0,12,,,,13,,48,96
8352,note_on,,,,,2,0,10,,,,11,,48,49
8352,note_on,,,,,2,0,11,,,,12,,36,49
8352,note_on,,,,,12,0,5,,,,4,,67,62
8352,note_on,,,,,12,0,4,,,,3,,72,62
8352,note_on,,,,,12,0,13,,,,14,,67,75
8352,note_on,,,,,12,0,7,,,,6,,76,75
8352,note_on,,,,,2,0,12,,,,13,,67,96
8394,note_off,,,,,42,0,1,,,,0,,67,0
8400,note_on,,,,,6,0,1,,,,0,,67,127
8436,note_off,,,,,84,0,4,,,,3,,72,0
8436,note_off,,,,,84,0,10,,,,11,,48,0
8436,note_off,,,,,0,0,12,,,,13,,76,0
8436,note_off,,,,,84,0,12,,,,13,,67,0
8436,note_off,,,,,84,0,5,,,,4,,67,0
8436,note_off,,,,,84,0,7,,,,6,,76,0
8436,note_off,,,,,84,0,11,,,,12,,36,0
8436,note_off,,,,,0,0,12,,,,13,,48,0
8436,note_off,,,,,84,0,8,,,,7,,76,0
8436,note_off,,,,,84,0,6,,,,5,,48,0
8436,note_off,,,,,84,0,9,,,,8,,72,0
8436,note_off,,,,,84,0,3,,,,2,,76,0
8436,note_off,,,,,84,0,13,,,,14,,67,0
8442,note_off,,,,,42,0,1,,,,0,,67,0
8448,note_on,,,,,12,0,11,,,,12,,38,49
8448,note_on,,,,,0,0,12,,,,13,,77,96
8448,note_on,,,,,0,0,12,,,,13,,50,96
8448,note_on,,,,,204,0,2,,,,1,,67,127
8448,note_on,,,,,12,0,12,,,,13,,71,96
8448,note_on,,,,,12,0,10,,,,11,,50,49
8448,note_on,,,,,12,0,7,,,,6,,77,75
8448,note_on,,,,,12,0,4,,,,3,,71,62
8448,note_on,,,,,12,0,13,,,,14,,62,75
8448,note_on,,,,,12,0,6,,,,5,,50,49
8448,note_on,,,,,12,0,9,,,,8,,71,75
8448,note_on,,,,,12,0,3,,,,2,,77,62
8448,note_on,,,,,6,0,1,,,,0,,67,127
8448,note_on,,,,,12,0,8,,,,7,,77,75
8448,note_on,,,,,12,0,5,,,,4,,62,62
8490,note_off,,,,,42,0,4,,,,3,,71,0
8490,note_off,,,,,42,0,9,,,,8,,71,0
8496,note_on,,,,,6,0,4,,,,3,,72,62
8496,note_on,,,,,6,0,9,,,,8,,72,75
8532,note_off,,,,,84,0,11,,,,12,,38,0
8532,note_off,,,,,84,0,10,,,,11,,50,0
8532,note_off,,,,,84,0,6,,,,5,,50,0
8532,note_off,,,,,84,0,8,,,,7,,77,0
8532,note_off,,,,,0,0,12,,,,13,,50,0
8532,note_off,,,,,84,0,5,,,,4,,62,0
8532,note_off,,,,,84,0,1,,,,0,,67,0
8532,note_off,,,,,0,0,12,,,,13,,77,0
8532,note_off,,,,,84,0,3,,,,2,,77,0
8532,note_off,,,,,84,0,12,,,,13,,71,0
8532,note_off,,,,,84,0,7,,,,6,,77,0
8532,note_off,,,,,84,0,2,,,,1,,67,0
8532,note_off,,,,,84,0,13,,,,14,,62,0
8538,note_off,,,,,42,0,4,,,,3,,72,0
8538,note_off,,,,,42,0,9,,,,8,,72,0
8544,note_on,,,,,12,0,2,,,,1,,67,127
8544,note_on,,,,,12,0,5,,,,4,,64,62
8544,note_on,,,,,0,0,12,,,,13,,76,96
8544,note_on,,,,,6,0,9,,,,8,,74,75
8544,note_on,,,,,12,0,11,,,,12,,36,49
8544,note_on,,,,,12,0,10,,,,11,,48,49
8544,note_on,,,,,12,0,6,,,,5,,48,49
8544,note_on,,,,,6,0,4,,,,3,,74,62
8544,note_on,,,,,12,0,8,,,,7,,81,75
8544,note_on,,,,,12,0,3,,,,2,,81,62
8544,note_on,,,,,12,0,12,,,,13,,69,96
8544,note_on,,,,,12,0,13,,,,14,,64,75
8544,note_on,,,,,0,0,12,,,,13,,48,96
8544,note_on,,,,,12,0,7,,,,6,,81,75
8554,note_off,,,,,10,0,4,,,,3,,74,0
8554,note_off,,,,,10,0,9,,,,8,,74,0
8556,note_on,,,,,2,0,4,,,,3,,72,62
8556,note_on,,,,,2,0,9,,,,8,,72,75
8566,note_off,,,,,10,0,4,,,,3,,72,0
8566,note_off,,,,,10,0,9,,,,8,,72,0
8568,note_on,,,,,2,0,4,,,,3,,74,62
8568,note_on,,,,,2,0,9,,,,8,,74,75
8578,note_off,,,,,10,0,4,,,,3,,74,0
8578,note_off,,,,,10,0,9,,,,8,,74,0
8580,note_on,,,,,2,0,9,,,,8,,72,75
8580,note_on,,,,,2,0,4,,,,3,,72,62
8586,note_off,,,,,42,0,10,,,,11,,48,0
8586,note_off,,,,,42,0,2,,,,1,,67,0
8586,note_off,,,,,42,0,6,,,,5,,48,0
8586,note_off,,,,,42,0,11,,,,12,,36,0
8586,note_off,,,,,42,0,12,,,,13,,48,0
8590,note_off,,,,,10,0,4,,,,3,,72,0
8590,note_off,,,,,10,0,9,,,,8,,72,0
8592,note_on,,,,,6,0,6,,,,5,,47,49
8592,note_on,,,,,6,0,2,,,,1,,67,127
8592,note_on,,,,,6,0,10,,,,11,,47,49
8592,note_on,,,,,6,0,11,,,,12,,35,49
8592,note_on,,,,,2,0,4,,,,3,,74,62
8592,note_on,,,,,6,0,12,,,,13,,47,96
8592,note_on,,,,,2,0,9,,,,8,,74,75
8602,note_off,,,,,10,0,9,,,,8,,74,0
8602,note_off,,,,,10,0,4,,,,3,,74,0
8604,note_on,,,,,2,0,4,,,,3,,72,62
8604,note_on,,,,,2,0,9,,,,8,,72,75
8614,note_off,,,,,10,0,4,,,,3,,72,0
8614,note_off,,,,,10,0,9,,,,8,,72,0
8616,note_on,,,,,2,0,4,,,,3,,74,62
8616,note_on,,,,,2,0,9,,,,8,,74,75
8626,note_off,,,,,10,0,4,,,,3,,74,0
8626,note_off,,,,,10,0,9,,,,8,,74,0
8628,note_off,,,,,0,0,12,,,,13,,76,0
8628,note_off,,,,,84,0,13,,,,14,,64,0
8628,note_on,,,,,2,0,4,,,,3,,72,62
8628,note_off,,,,,36,0,12,,,,13,,69,0
8628,note_on,,,,,2,0,9,,,,8,,72,75
8628,note_off,,,,,84,0,5,,,,4,,64,0
8634,note_off,,,,,42,0,2,,,,1,,67,0
8634,note_off,,,,,42,0,10,,,,11,,47,0
8634,note_off,,,,,6,0,12,,,,13,,47,0
8634,note_off,,,,,42,0,11,,,,12,,35,0
8634,note_off,,,,,42,0,6,,,,5,,47,0
8638,note_off,,,,,10,0,9,,,,8,,72,0
8638,note_off,,,,,10,0,4,,,,3,,72,0
8640,note_on,,,,,2,0,4,,,,3,,74,62
8640,note_on,,,,,6,0,10,,,,11,,48,49
8640,note_on,,,,,12,0,5,,,,4,,60,62
8640,note_on,,,,,6,0,11,,,,12,,36,49
8640,note_on,,,,,6,0,2,,,,1,,67,127
8640,note_on,,,,,12,0,13,,,,14,,60,75
8640,note_on,,,,,6,0,12,,,,13,,69,96
8640,note_on,,,,,0,0,12,,,,13,,72,96
8640,note_on,,,,,0,0,12,,,,13,,48,96
8640,note_on,,,,,6,0,6,,,,5,,48,49
8640,note_on,,,,,2,0,9,,,,8,,74,75
8650,note_off,,,,,10,0,9,,,,8,,74,0
8650,note_off,,,,,10,0,4,,,,3,,74,0
8652,note_on,,,,,2,0,9,,,,8,,72,75
8652,note_on,,,,,2,0,4,,,,3,,72,62
8662,note_off,,,,,10,0,9,,,,8,,72,0
8662,note_off,,,,,10,0,4,,,,3,,72,0
8664,note_on,,,,,2,0,9,,,,8,,74,75
8664,note_on,,,,,2,0,4,,,,3,,74,62
8674,note_off,,,,,10,0,9,,,,8,,74,0
8674,note_off,,,,,10,0,4,,,,3,,74,0
8676,note_on,,,,,2,0,4,,,,3,,72,62
8676,note_on,,,,,2,0,9,,,,8,,72,75
8682,note_off,,,,,42,0,2,,,,1,,67,0
8686,note_off,,,,,10,0,4,,,,3,,72,0
8686,note_off,,,,,10,0,9,,,,8,,72,0
8688,note_on,,,,,2,0,9,,,,8,,71,75
8688,note_on,,,,,6,0,2,,,,1,,67,127
8688,note_on,,,,,2,0,4,,,,3,,71,62
8709,note_off,,,,,21,0,4,,,,3,,71,0
8709,note_off,,,,,21,0,9,,,,8,,71,0
8712,note_on,,,,,3,0,4,,,,3,,72,62
8712,note_on,,,,,3,0,9,,,,8,,72,75
8724,note_off,,,,,84,0,13,,,,14,,60,0
8724,note_off,,,,,180,0,3,,,,2,,81,0
8724,note_off,,,,,180,0,8,,,,7,,81,0
8724,note_off,,,,,0,0,12,,,,13,,72,0
8724,note_off,,,,,84,0,11,,,,12,,36,0
8724,note_off,,,,,84,0,6,,,,5,,48,0
8724,note_off,,,,,84,0,10,,,,11,,48,0
8724,note_off,,,,,0,0,12,,,,13,,48,0
8724,note_off,,,,,180,0,7,,,,6,,81,0
8724,note_off,,,,,84,0,5,,,,4,,60,0
8724,note_off,,,,,84,0,12,,,,13,,69,0
8730,note_off,,,,,42,0,2,,,,1,,67,0
8733,note_off,,,,,21,0,4,,,,3,,72,0
8733,note_off,,,,,21,0,9,,,,8,,72,0
8736,note_on,,,,,12,0,7,,,,6,,77,75
8736,note_on,,,,,0,0,12,,,,13,,47,96
8736,note_on,,,,,12,0,5,,,,4,,67,62
8736,note_on,,,,,3,0,9,,,,8,,74,75
8736,note_on,,,,,12,0,13,,,,14,,67,75
8736,note_on,,,,,12,0,3,,,,2,,77,62
8736,note_on,,,,,6,0,2,,,,1,,67,127
8736,note_on,,,,,12,0,10,,,,11,,47,49
8736,note_on,,,,,12,0,6,,,,5,,47,49
8736,note_on,,,,,12,0,12,,,,13,,67,96
8736,note_on,,,,,204,0,1,,,,0,,67,127
8736,note_on,,,,,12,0,8,,,,7,,77,75
8736,note_on,,,,,0,0,12,,,,13,,74,96
8736,note_on,,,,,12,0,11,,,,12,,35,49
8736,note_on,,,,,3,0,4,,,,3,,74,62
8820,note_off,,,,,84,0,10,,,,11,,47,0
8820,note_off,,,,,84,0,7,,,,6,,77,0
8820,note_off,,,,,84,0,4,,,,3,,74,0
8820,note_off,,,,,84,0,3,,,,2,,77,0
8820,note_off,,,,,0,0,12,,,,13,,47,0
8820,note_off,,,,,0,0,12,,,,13,,74,0
8820,note_off,,,,,84,0,9,,,,8,,74,0
8820,note_off,,,,,84,0,11,,,,12,,35,0
8820,note_off,,,,,84,0,2,,,,1,,67,0
8820,note_off,,,,,84,0,6,,,,5,,47,0
8820,note_off,,,,,84,0,1,,,,0,,67,0
8820,note_off,,,,,84,0,8,,,,7,,77,0
8820,note_off,,,,,84,0,12,,,,13,,67,0
8832,note_on,,,,,12,0,12,,,,13,,67,96
8832,note_on,,,,,0,0,12,,,,13,,76,96
8832,note_on,,,,,0,0,12,,,,13,,48,96
8832,note_on,,,,,12,0,10,,,,11,,48,49
8832,note_on,,,,,12,0,7,,,,6,,76,75
8832,note_on,,,,,12,0,4,,,,3,,72,62
8832,note_on,,,,,12,0,3,,,,2,,76,62
8832,note_on,,,,,12,0,9,,,,8,,72,75
8832,note_on,,,,,12,0,11,,,,12,,36,49
8832,note_on,,,,,12,0,6,,,,5,,48,49
8832,note_on,,,,,12,0,1,,,,0,,67,127
8832,note_on,,,,,12,0,8,,,,7,,76,75
8874,note_off,,,,,42,0,7,,,,6,,76,0
8874,note_off,,,,,42,0,6,,,,5,,48,0
8874,note_off,,,,,42,0,12,,,,13,,48,0
8874,note_off,,,,,42,0,3,,,,2,,76,0
8874,note_off,,,,,42,0,8,,,,7,,76,0
8874,note_off,,,,,42,0,1,,,,0,,67,0
8874,note_off,,,,,42,0,11,,,,12,,36,0
8874,note_off,,,,,42,0,10,,,,11,,48,0
8880,note_on,,,,,6,0,8,,,,7,,74,75
8880,note_on,,,,,6,0,3,,,,2,,74,62
8880,note_on,,,,,6,0,12,,,,13,,47,96
8880,note_on,,,,,6,0,7,,,,6,,74,75
8880,note_on,,,,,6,0,6,,,,5,,47,49
8880,note_on,,,,,6,0,11,,,,12,,35,49
8880,note_on,,,,,6,0,1,,,,0,,67,127
8880,note_on,,,,,6,0,10,,,,11,,47,49
8916,note_off,,,,,36,0,12,,,,13,,67,0
8916,note_off,,,,,180,0,5,,,,4,,67,0
8916,note_off,,,,,84,0,4,,,,3,,72,0
8916,note_off,,,,,180,0,13,,,,14,,67,0
8916,note_off,,,,,84,0,9,,,,8,,72,0
8916,note_off,,,,,0,0,12,,,,13,,76,0
8922,note_off,,,,,42,0,6,,,,5,,47,0
8922,note_off,,,,,42,0,11,,,,12,,35,0
8922,note_off,,,,,42,0,8,,,,7,,74,0
8922,note_off,,,,,42,0,10,,,,11,,47,0
8922,note_off,,,,,42,0,1,,,,0,,67,0
8922,note_off,,,,,42,0,3,,,,2,,74,0
8922,note_off,,,,,42,0,7,,,,6,,74,0
8922,note_off,,,,,6,0,12,,,,13,,47,0
8928,note_on,,,,,0,0,12,,,,13,,71,96
8928,note_on,,,,,6,0,8,,,,7,,79,75
8928,note_on,,,,,12,0,9,,,,8,,71,75
8928,note_on,,,,,6,0,7,,,,6,,79,75
8928,note_on,,,,,6,0,11,,,,12,,33,49
8928,note_on,,,,,6,0,6,,,,5,,45,49
8928,note_on,,,,,6,0,3,,,,2,,79,62
8928,note_on,,,,,6,0,12,,,,13,,62,96
8928,note_on,,,,,6,0,10,,,,11,,45,49
8928,note_on,,,,,12,0,5,,,,4,,67,62
8928,note_on,,,,,12,0,13,,,,14,,67,75
8928,note_on,,,,,12,0,4,,,,3,,71,62
8928,note_on,,,,,0,0,12,,,,13,,45,96
8928,note_on,,,,,6,0,1,,,,0,,67,127
8970,note_off,,,,,42,0,1,,,,0,,67,0
8970,note_off,,,,,42,0,10,,,,11,,45,0
8970,note_off,,,,,42,0,6,,,,5,,45,0
8970,note_off,,,,,42,0,12,,,,13,,45,0
8970,note_off,,,,,42,0,11,,,,12,,33,0
8976,note_on,,,,,6,0,10,,,,11,,43,49
8976,note_on,,,,,6,0,11,,,,12,,31,49
8976,note_on,,,,,6,0,6,,,,5,,43,49
8976,note_on,,,,,6,0,12,,,,13,,43,96
8976,note_on,,,,,6,0,1,,,,0,,67,127
9012,note_off,,,,,84,0,7,,,,6,,79,0
9012,note_off,,,,,84,0,8,,,,7,,79,0
9012,note_off,,,,,84,0,3,,,,2,,79,0
9012,note_off,,,,,84,0,9,,,,8,,71,0
9012,note_off,,,,,84,0,5,,,,4,,67,0
9012,note_off,,,,,0,0,12,,,,13,,71,0
9012,note_off,,,,,84,0,13,,,,14,,67,0
9012,note_off,,,,,84,0,4,,,,3,,71,0
9012,note_off,,,,,36,0,12,,,,13,,62,0
9018,note_off,,,,,42,0,11,,,,12,,31,0
9018,note_off,,,,,6,0,12,,,,13,,43,0
9018,note_off,,,,,42,0,10,,,,11,,43,0
9018,note_off,,,,,42,0,1,,,,0,,67,0
9018,note_off,,,,,42,0,6,,,,5,,43,0
9024,note_on,,,,,6,0,1,,,,0,,67,127
9024,note_on,,,,,12,0,3,,,,2,,76,62
9024,note_on,,,,,12,0,13,,,,14,,67,75
9024,note_on,,,,,12,0,7,,,,6,,76,75
9024,note_on,,,,,12,0,4,,,,3,,72,62
9024,note_on,,,,,12,0,9,,,,8,,72,75
9024,note_on,,,,,12,0,5,,,,4,,67,62
9024,note_on,,,,,6,0,11,,,,12,,36,49
9024,note_on,,,,,204,0,2,,,,1,,67,127
9024,note_on,,,,,12,0,8,,,,7,,76,75
9024,note_on,,,,,0,0,12,,,,13,,48,96
9024,note_on,,,,,0,0,12,,,,13,,76,96
9024,note_on,,,,,6,0,12,,,,13,,67,96
9024,note_on,,,,,6,0,10,,,,11,,48,49
9024,note_on,,,,,6,0,6,,,,5,,48,49
9108,note_off,,,,,84,0,2,,,,1,,67,0
9108,note_off,,,,,84,0,1,,,,0,,67,0
9108,note_off,,,,,84,0,11,,,,12,,36,0
9108,note_off,,,,,84,0,10,,,,11,,48,0
9108,note_off,,,,,84,0,12,,,,13,,67,0
9108,note_off,,,,,0,0,12,,,,13,,76,0
9108,note_off,,,,,0,0,12,,,,13,,48,0
9108,note_off,,,,,84,0,6,,,,5,,48,0
9120,note_on,,,,,12,0,6,,,,5,,46,49
9120,note_on,,,,,12,0,12,,,,13,,65,96
9120,note_on,,,,,0,0,12,,,,13,,74,96
9120,note_on,,,,,12,0,2,,,,1,,67,127
9120,note_on,,,,,0,0,12,,,,13,,46,96
9120,note_on,,,,,12,0,11,,,,12,,34,49
9120,note_on,,,,,12,0,10,,,,11,,46,49
9156,note_off,,,,,132,0,3,,,,2,,76,0
9156,note_off,,,,,132,0,8,,,,7,,76,0
9156,note_off,,,,,132,0,7,,,,6,,76,0
9162,note_off,,,,,42,0,2,,,,1,,67,0
9162,note_off,,,,,42,0,6,,,,5,,46,0
9162,note_off,,,,,42,0,12,,,,13,,46,0
9162,note_off,,,,,42,0,11,,,,12,,34,0
9162,note_off,,,,,42,0,10,,,,11,,46,0
9168,note_on,,,,,6,0,10,,,,11,,45,49
9168,note_on,,,,,6,0,6,,,,5,,45,49
9168,note_on,,,,,12,0,3,,,,2,,77,62
9168,note_on,,,,,6,0,2,,,,1,,67,127
9168,note_on,,,,,6,0,12,,,,13,,45,96
9168,note_on,,,,,12,0,7,,,,6,,77,75
9168,note_on,,,,,12,0,8,,,,7,,77,75
9168,note_on,,,,,6,0,11,,,,12,,33,49
9204,note_off,,,,,0,0,12,,,,13,,74,0
9204,note_off,,,,,36,0,12,,,,13,,65,0
9210,note_off,,,,,42,0,3,,,,2,,77,0
9210,note_off,,,,,42,0,2,,,,1,,67,0
9210,note_off,,,,,42,0,10,,,,11,,45,0
9210,note_off,,,,,42,0,11,,,,12,,33,0
9210,note_off,,,,,6,0,12,,,,13,,45,0
9210,note_off,,,,,42,0,6,,,,5,,45,0
9210,note_off,,,,,42,0,7,,,,6,,77,0
9210,note_off,,,,,42,0,8,,,,7,,77,0
9216,note_on,,,,,6,0,11,,,,12,,31,49
9216,note_on,,,,,6,0,3,,,,2,,79,62
9216,note_on,,,,,6,0,2,,,,1,,67,127
9216,note_on,,,,,0,0,12,,,,13,,43,96
9216,note_on,,,,,0,0,12,,,,13,,74,96
9216,note_on,,,,,6,0,10,,,,11,,43,49
9216,note_on,,,,,6,0,8,,,,7,,79,75
9216,note_on,,,,,6,0,12,,,,13,,65,96
9216,note_on,,,,,6,0,7,,,,6,,79,75
9216,note_on,,,,,6,0,6,,,,5,,43,49
9226,note_off,,,,,10,0,8,,,,7,,79,0
9226,note_off,,,,,10,0,3,,,,2,,79,0
9226,note_off,,,,,10,0,7,,,,6,,79,0
9228,note_on,,,,,2,0,7,,,,6,,77,75
9228,note_on,,,,,2,0,8,,,,7,,77,75
9228,note_on,,,,,2,0,3,,,,2,,77,62
9238,note_off,,,,,10,0,3,,,,2,,77,0
9238,note_off,,,,,10,0,8,,,,7,,77,0
9238,note_off,,,,,10,0,7,,,,6,,77,0
9240,note_on,,,,,2,0,7,,,,6,,79,75
9240,note_on,,,,,2,0,3,,,,2,,79,62
9240,note_on,,,,,2,0,8,,,,7,,79,75
9250,note_off,,,,,10,0,8,,,,7,,79,0
9250,note_off,,,,,10,0,7,,,,6,,79,0
9250,note_off,,,,,10,0,3,,,,2,,79,0
9252,note_on,,,,,2,0,7,,,,6,,77,75
9252,note_on,,,,,2,0,8,,,,7,,77,75
9252,note_on,,,,,2,0,3,,,,2,,77,62
9258,note_off,,,,,42,0,2,,,,1,,67,0
9258,note_off,,,,,42,0,10,,,,11,,43,0
9258,note_off,,,,,42,0,11,,,,12,,31,0
9258,note_off,,,,,42,0,12,,,,13,,43,0
9258,note_off,,,,,42,0,6,,,,5,,43,0
9262,note_off,,,,,10,0,8,,,,7,,77,0
9262,note_off,,,,,10,0,7,,,,6,,77,0
9262,note_off,,,,,10,0,3,,,,2,,77,0
9264,note_on,,,,,6,0,11,,,,12,,29,49
9264,note_on,,,,,2,0,8,,,,7,,79,75
9264,note_on,,,,,2,0,7,,,,6,,79,75
9264,note_on,,,,,6,0,2,,,,1,,67,127
9264,note_on,,,,,6,0,12,,,,13,,41,96
9264,note_on,,,,,6,0,10,,,,11,,41,49
9264,note_on,,,,,2,0,3,,,,2,,79,62
9264,note_on,,,,,6,0,6,,,,5,,41,49
9274,note_off,,,,,10,0,7,,,,6,,79,0
9274,note_off,,,,,10,0,8,,,,7,,79,0
9274,note_off,,,,,10,0,3,,,,2,,79,0
9276,note_on,,,,,2,0,7,,,,6,,77,75
9276,note_on,,,,,2,0,8,,,,7,,77,75
9276,note_on,,,,,2,0,3,,,,2,,77,62
9286,note_off,,,,,10,0,7,,,,6,,77,0
9286,note_off,,,,,10,0,8,,,,7,,77,0
9286,note_off,,,,,10,0,3,,,,2,,77,0
9288,note_on,,,,,2,0,3,,,,2,,76,62
9288,note_on,,,,,2,0,7,,,,6,,76,75
9288,note_on,,,,,2,0,8,,,,7,,76,75
9298,note_off,,,,,10,0,3,,,,2,,76,0
9298,note_off,,,,,10,0,7,,,,6,,76,0
9298,note_off,,,,,10,0,8,,,,7,,76,0
9300,note_off,,,,,276,0,13,,,,14,,67,0
9300,note_off,,,,,36,0,12,,,,13,,65,0
9300,note_off,,,,,276,0,4,,,,3,,72,0
9300,note_off,,,,,0,0,12,,,,13,,74,0
9300,note_off,,,,,276,0,9,,,,8,,72,0
9300,note_on,,,,,2,0,3,,,,2,,77,62
9300,note_on,,,,,2,0,8,,,,7,,77,75
9300,note_off,,,,,276,0,5,,,,4,,67,0
9300,note_on,,,,,2,0,7,,,,6,,77,75
9306,note_off,,,,,42,0,10,,,,11,,41,0
9306,note_off,,,,,42,0,11,,,,12,,29,0
9306,note_off,,,,,6,0,12,,,,13,,41,0
9306,note_off,,,,,42,0,6,,,,5,,41,0
9306,note_off,,,,,42,0,2,,,,1,,67,0
9310,note_off,,,,,10,0,3,,,,2,,77,0
9310,note_off,,,,,10,0,8,,,,7,,77,0
9310,note_off,,,,,10,0,7,,,,6,,77,0
9312,note_on,,,,,0,0,12,,,,13,,40,96
9312,note_on,,,,,6,0,6,,,,5,,40,49
9312,note_on,,,,,12,0,9,,,,8,,72,75
9312,note_on,,,,,204,0,1,,,,0,,72,127
9312,note_on,,,,,6,0,11,,,,12,,28,49
9312,note_on,,,,,2,0,8,,,,7,,79,75
9312,note_on,,,,,2,0,7,,,,6,,79,75
9312,note_on,,,,,12,0,5,,,,4,,67,62
9312,note_on,,,,,12,0,13,,,,14,,67,75
9312,note_on,,,,,6,0,2,,,,1,,67,127
9312,note_on,,,,,6,0,10,,,,11,,40,49
9312,note_on,,,,,12,0,4,,,,3,,72,62
9312,note_on,,,,,6,0,12,,,,13,,67,96
9312,note_on,,,,,2,0,3,,,,2,,79,62
9312,note_on,,,,,0,0,12,,,,13,,72,96
9354,note_off,,,,,42,0,7,,,,6,,79,0
9354,note_off,,,,,42,0,8,,,,7,,79,0
9354,note_off,,,,,42,0,3,,,,2,,79,0
9354,note_off,,,,,42,0,13,,,,14,,67,0
9360,note_on,,,,,6,0,7,,,,6,,81,75
9360,note_on,,,,,6,0,13,,,,14,,65,75
9360,note_on,,,,,6,0,8,,,,7,,81,75
9360,note_on,,,,,6,0,3,,,,2,,81,62
9396,note_off,,,,,84,0,6,,,,5,,40,0
9396,note_off,,,,,84,0,5,,,,4,,67,0
9396,note_off,,,,,84,0,2,,,,1,,67,0
9396,note_off,,,,,84,0,10,,,,11,,40,0
9396,note_off,,,,,84,0,12,,,,13,,67,0
9396,note_off,,,,,0,0,12,,,,13,,72,0
9396,note_off,,,,,84,0,11,,,,12,,28,0
9396,note_off,,,,,84,0,1,,,,0,,72,0
9396,note_off,,,,,0,0,12,,,,13,,40,0
9402,note_off,,,,,42,0,3,,,,2,,81,0
9402,note_off,,,,,42,0,7,,,,6,,81,0
9402,note_off,,,,,42,0,8,,,,7,,81,0
9402,note_off,,,,,42,0,13,,,,14,,65,0
9408,note_on,,,,,12,0,11,,,,12,,29,49
9408,note_on,,,,,12,0,10,,,,11,,41,49
9408,note_on,,,,,6,0,8,,,,7,,82,75
9408,note_on,,,,,12,0,6,,,,5,,41,49
9408,note_on,,,,,0,0,12,,,,13,,69,96
9408,note_on,,,,,12,0,1,,,,0,,72,127
9408,note_on,,,,,6,0,7,,,,6,,82,75
9408,note_on,,,,,12,0,5,,,,4,,67,62
9408,note_on,,,,,0,0,12,,,,13,,41,96
9408,note_on,,,,,12,0,12,,,,13,,60,96
9408,note_on,,,,,6,0,13,,,,14,,67,75
9408,note_on,,,,,6,0,3,,,,2,,82,62
9418,note_off,,,,,10,0,5,,,,4,,67,0
9418,note_off,,,,,10,0,8,,,,7,,82,0
9418,note_off,,,,,10,0,7,,,,6,,82,0
9418,note_off,,,,,10,0,13,,,,14,,67,0
9418,note_off,,,,,10,0,3,,,,2,,82,0
9420,note_on,,,,,2,0,13,,,,14,,65,75
9420,note_on,,,,,2,0,3,,,,2,,81,62
9420,note_on,,,,,2,0,5,,,,4,,65,62
9420,note_on,,,,,2,0,7,,,,6,,81,75
9420,note_on,,,,,2,0,8,,,,7,,81,75
9430,note_off,,,,,10,0,13,,,,14,,65,0
9430,note_off,,,,,10,0,3,,,,2,,81,0
9430,note_off,,,,,10,0,7,,,,6,,81,0
9430,note_off,,,,,10,0,5,,,,4,,65,0
9430,note_off,,,,,10,0,8,,,,7,,81,0
9432,note_on,,,,,2,0,13,,,,14,,67,75
9432,note_on,,,,,2,0,3,,,,2,,82,62
9432,note_on,,,,,2,0,8,,,,7,,82,75
9432,note_on,,,,,2,0,5,,,,4,,67,62
9432,note_on,,,,,2,0,7,,,,6,,82,75
9442,note_off,,,,,10,0,3,,,,2,,82,0
9442,note_off,,,,,10,0,7,,,,6,,82,0
9442,note_off,,,,,10,0,8,,,,7,,82,0
9442,note_off,,,,,10,0,5,,,,4,,67,0
9442,note_off,,,,,10,0,13,,,,14,,67,0
9444,note_on,,,,,2,0,3,,,,2,,81,62
9444,note_on,,,,,2,0,8,,,,7,,81,75
9444,note_on,,,,,2,0,7,,,,6,,81,75
9444,note_on,,,,,2,0,13,,,,14,,65,75
9444,note_on,,,,,2,0,5,,,,4,,65,62
9450,note_off,,,,,42,0,10,,,,11,,41,0
9450,note_off,,,,,42,0,6,,,,5,,41,0
9450,note_off,,,,,42,0,11,,,,12,,29,0
9450,note_off,,,,,42,0,12,,,,13,,41,0
9450,note_off,,,,,42,0,1,,,,0,,72,0
9454,note_off,,,,,10,0,5,,,,4,,65,0
9454,note_off,,,,,10,0,3,,,,2,,81,0
9454,note_off,,,,,10,0,13,,,,14,,65,0
9454,note_off,,,,,10,0,8,,,,7,,81,0
9454,note_off,,,,,10,0,7,,,,6,,81,0
9456,note_on,,,,,6,0,1,,,,0,,72,127
9456,note_on,,,,,2,0,13,,,,14,,67,75
9456,note_on,,,,,6,0,6,,,,5,,40,49
9456,note_on,,,,,6,0,10,,,,11,,40,49
9456,note_on,,,,,2,0,3,,,,2,,82,62
9456,note_on,,,,,2,0,5,,,,4,,67,62
9456,note_on,,,,,6,0,12,,,,13,,40,96
9456,note_on,,,,,2,0,7,,,,6,,82,75
9456,note_on,,,,,6,0,11,,,,12,,28,49
9456,note_on,,,,,2,0,8,,,,7,,82,75
9466,note_off,,,,,10,0,3,,,,2,,82,0
9466,note_off,,,,,10,0,13,,,,14,,67,0
9466,note_off,,,,,10,0,8,,,,7,,82,0
9466,note_off,,,,,10,0,5,,,,4,,67,0
9466,note_off,,,,,10,0,7,,,,6,,82,0
9468,note_on,,,,,2,0,13,,,,14,,65,75
9468,note_on,,,,,2,0,3,,,,2,,81,62
9468,note_on,,,,,2,0,5,,,,4,,65,62
9468,note_on,,,,,2,0,7,,,,6,,81,75
9468,note_on,,,,,2,0,8,,,,7,,81,75
9478,note_off,,,,,10,0,5,,,,4,,65,0
9478,note_off,,,,,10,0,7,,,,6,,81,0
9478,note_off,,,,,10,0,13,,,,14,,65,0
9478,note_off,,,,,10,0,8,,,,7,,81,0
9478,note_off,,,,,10,0,3,,,,2,,81,0
9480,note_on,,,,,2,0,5,,,,4,,67,62
9480,note_on,,,,,2,0,7,,,,6,,82,75
9480,note_on,,,,,2,0,13,,,,14,,67,75
9480,note_on,,,,,2,0,8,,,,7,,82,75
9480,note_on,,,,,2,0,3,,,,2,,82,62
9490,note_off,,,,,10,0,13,,,,14,,67,0
9490,note_off,,,,,10,0,3,,,,2,,82,0
9490,note_off,,,,,10,0,5,,,,4,,67,0
9490,note_off,,,,,10,0,8,,,,7,,82,0
9490,note_off,,,,,10,0,7,,,,6,,82,0
9492,note_off,,,,,180,0,9,,,,8,,72,0
9492,note_off,,,,,36,0,12,,,,13,,60,0
9492,note_on,,,,,2,0,8,,,,7,,81,75
9492,note_on,,,,,2,0,13,,,,14,,65,75
9492,note_off,,,,,0,0,12,,,,13,,69,0
9492,note_off,,,,,180,0,4,,,,3,,72,0
9492,note_on,,,,,2,0,7,,,,6,,81,75
9492,note_on,,,,,2,0,5,,,,4,,65,62
9492,note_on,,,,,2,0,3,,,,2,,81,62
9498,note_off,,,,,42,0,11,,,,12,,28,0
9498,note_off,,,,,6,0,12,,,,13,,40,0
9498,note_off,,,,,42,0,6,,,,5,,40,0
9498,note_off,,,,,42,0,10,,,,11,,40,0
9498,note_off,,,,,42,0,1,,,,0,,72,0
9502,note_off,,,,,10,0,5,,,,4,,65,0
9502,note_off,,,,,10,0,7,,,,6,,81,0
9502,note_off,,,,,10,0,8,,,,7,,81,0
9502,note_off,,,,,10,0,13,,,,14,,65,0
9502,note_off,,,,,10,0,3,,,,2,,81,0
9504,note_on,,,,,0,0,12,,,,13,,38,96
9504,note_on,,,,,0,0,12,,,,13,,77,96
9504,note_on,,,,,6,0,12,,,,13,,69,96
9504,note_on,,,,,12,0,4,,,,3,,77,62
9504,note_on,,,,,2,0,7,,,,6,,82,75
9504,note_on,,,,,2,0,13,,,,14,,67,75
9504,note_on,,,,,2,0,5,,,,4,,67,62
9504,note_on,,,,,6,0,11,,,,12,,26,49
9504,note_on,,,,,2,0,3,,,,2,,82,62
9504,note_on,,,,,12,0,9,,,,8,,77,75
9504,note_on,,,,,6,0,10,,,,11,,38,49
9504,note_on,,,,,6,0,1,,,,0,,72,127
9504,note_on,,,,,6,0,6,,,,5,,38,49
9504,note_on,,,,,2,0,8,,,,7,,82,75
9514,note_off,,,,,10,0,13,,,,14,,67,0
9514,note_off,,,,,10,0,8,,,,7,,82,0
9514,note_off,,,,,10,0,7,,,,6,,82,0
9514,note_off,,,,,10,0,5,,,,4,,67,0
9514,note_off,,,,,10,0,3,,,,2,,82,0
9516,note_on,,,,,2,0,13,,,,14,,65,75
9516,note_on,,,,,2,0,7,,,,6,,81,75
9516,note_on,,,,,2,0,8,,,,7,,81,75
9516,note_on,,,,,2,0,3,,,,2,,81,62
9516,note_on,,,,,2,0,5,,,,4,,65,62
9526,note_off,,,,,10,0,13,,,,14,,65,0
9526,note_off,,,,,10,0,3,,,,2,,81,0
9526,note_off,,,,,10,0,7,,,,6,,81,0
9526,note_off,,,,,10,0,8,,,,7,,81,0
9526,note_off,,,,,10,0,5,,,,4,,65,0
9528,note_on,,,,,2,0,7,,,,6,,82,75
9528,note_on,,,,,2,0,8,,,,7,,82,75
9528,note_on,,,,,2,0,3,,,,2,,82,62
9528,note_on,,,,,2,0,5,,,,4,,67,62
9528,note_on,,,,,2,0,13,,,,14,,67,75
9538,note_off,,,,,10,0,3,,,,2,,82,0
9538,note_off,,,,,10,0,5,,,,4,,67,0
9538,note_off,,,,,10,0,13,,,,14,,67,0
9538,note_off,,,,,10,0,7,,,,6,,82,0
9538,note_off,,,,,10,0,8,,,,7,,82,0
9540,note_on,,,,,2,0,7,,,,6,,81,75
9540,note_on,,,,,2,0,3,,,,2,,81,62
9540,note_on,,,,,2,0,8,,,,7,,81,75
9540,note_on,,,,,2,0,5,,,,4,,65,62
9540,note_on,,,,,2,0,13,,,,14,,65,75
9546,note_off,,,,,42,0,1,,,,0,,72,0
9546,note_off,,,,,42,0,6,,,,5,,38,0
9546,note_off,,,,,42,0,12,,,,13,,38,0
9546,note_off,,,,,42,0,11,,,,12,,26,0
9546,note_off,,,,,42,0,10,,,,11,,38,0
9550,note_off,,,,,10,0,3,,,,2,,81,0
9550,note_off,,,,,10,0,8,,,,7,,81,0
9550,note_off,,,,,10,0,5,,,,4,,65,0
9550,note_off,,,,,10,0,13,,,,14,,65,0
9550,note_off,,,,,10,0,7,,,,6,,81,0
9552,note_on,,,,,6,0,12,,,,13,,40,96
9552,note_on,,,,,2,0,7,,,,6,,79,75
9552,note_on,,,,,2,0,5,,,,4,,64,62
9552,note_on,,,,,2,0,8,,,,7,,79,75
9552,note_on,,,,,2,0,3,,,,2,,79,62
9552,note_on,,,,,6,0,10,,,,11,,40,49
9552,note_on,,,,,6,0,11,,,,12,,28,49
9552,note_on,,,,,6,0,6,,,,5,,40,49
9552,note_on,,,,,2,0,13,,,,14,,64,75
9552,note_on,,,,,6,0,1,,,,0,,72,127
9573,note_off,,,,,21,0,5,,,,4,,64,0
9573,note_off,,,,,21,0,7,,,,6,,79,0
9573,note_off,,,,,21,0,8,,,,7,,79,0
9573,note_off,,,,,21,0,3,,,,2,,79,0
9573,note_off,,,,,21,0,13,,,,14,,64,0
9576,note_on,,,,,3,0,13,,,,14,,65,75
9576,note_on,,,,,3,0,8,,,,7,,81,75
9576,note_on,,,,,3,0,3,,,,2,,81,62
9576,note_on,,,,,3,0,7,,,,6,,81,75
9576,note_on,,,,,3,0,5,,,,4,,65,62
9588,note_off,,,,,84,0,4,,,,3,,77,0
9588,note_off,,,,,0,0,12,,,,13,,77,0
9588,note_off,,,,,36,0,12,,,,13,,69,0
9588,note_off,,,,,84,0,9,,,,8,,77,0
9594,note_off,,,,,42,0,11,,,,12,,28,0
9594,note_off,,,,,42,0,6,,,,5,,40,0
9594,note_off,,,,,6,0,12,,,,13,,40,0
9594,note_off,,,,,42,0,10,,,,11,,40,0
9594,note_off,,,,,42,0,1,,,,0,,72,0
9597,note_off,,,,,21,0,8,,,,7,,81,0
9597,note_off,,,,,21,0,5,,,,4,,65,0
9597,note_off,,,,,21,0,13,,,,14,,65,0
9597,note_off,,,,,21,0,3,,,,2,,81,0
9597,note_off,,,,,21,0,7,,,,6,,81,0
9600,note_on,,,,,3,0,8,,,,7,,82,75
9600,note_on,,,,,6,0,6,,,,5,,36,49
9600,note_on,,,,,0,0,12,,,,13,,36,96
9600,note_on,,,,,12,0,9,,,,8,,76,75
9600,note_on,,,,,0,0,12,,,,13,,76,96
9600,note_on,,,,,6,0,12,,,,13,,67,96
9600,note_on,,,,,12,0,4,,,,3,,76,62
9600,note_on,,,,,3,0,13,,,,14,,67,75
9600,note_on,,,,,3,0,3,,,,2,,82,62
9600,note_on,,,,,6,0,11,,,,12,,24,49
9600,note_on,,,,,3,0,5,,,,4,,67,62
9600,note_on,,,,,6,0,1,,,,0,,72,127
9600,note_on,,,,,204,0,2,,,,1,,67,127
9600,note_on,,,,,3,0,7,,,,6,,82,75
9600,note_on,,,,,6,0,10,,,,11,,36,49
9684,note_off,,,,,0,0,12,,,,13,,76,0
9684,note_off,,,,,84,0,8,,,,7,,82,0
9684,note_off,,,,,84,0,10,,,,11,,36,0
9684,note_off,,,,,84,0,6,,,,5,,36,0
9684,note_off,,,,,84,0,12,,,,13,,67,0
9684,note_off,,,,,84,0,3,,,,2,,82,0
9684,note_off,,,,,84,0,9,,,,8,,76,0
9684,note_off,,,,,84,0,2,,,,1,,67,0
9684,note_off,,,,,84,0,7,,,,6,,82,0
9684,note_off,,,,,0,0,12,,,,13,,36,0
9684,note_off,,,,,84,0,13,,,,14,,67,0
9684,note_off,,,,,84,0,4,,,,3,,76,0
9684,note_off,,,,,84,0,5,,,,4,,67,0
9684,note_off,,,,,84,0,11,,,,12,,24,0
9696,note_on,,,,,0,0,12,,,,13,,77,96
9696,note_on,,,,,12,0,13,,,,14,,72,75
9696,note_on,,,,,12,0,8,,,,7,,81,75
9696,note_on,,,,,12,0,10,,,,11,,48,49
9696,note_on,,,,,12,0,9,,,,8,,77,75
9696,note_on,,,,,0,0,12,,,,13,,48,96
9696,note_on,,,,,12,0,3,,,,2,,81,62
9696,note_on,,,,,12,0,6,,,,5,,48,49
9696,note_on,,,,,12,0,12,,,,13,,69,96
9696,note_on,,,,,12,0,11,,,,12,,36,49
9696,note_on,,,,,12,0,4,,,,3,,79,62
9696,note_on,,,,,12,0,7,,,,6,,81,75
9696,note_on,,,,,12,0,2,,,,1,,60,127
9696,note_on,,,,,12,0,5,,,,4,,72,62
9706,note_off,,,,,10,0,4,,,,3,,79,0
9708,note_on,,,,,2,0,4,,,,3,,77,62
9718,note_off,,,,,10,0,4,,,,3,,77,0
9720,note_on,,,,,2,0,4,,,,3,,79,62
9730,note_off,,,,,10,0,4,,,,3,,79,0
9732,note_on,,,,,2,0,4,,,,3,,77,62
9738,note_off,,,,,42,0,6,,,,5,,48,0
9738,note_off,,,,,42,0,2,,,,1,,60,0
9738,note_off,,,,,42,0,7,,,,6,,81,0
9738,note_off,,,,,42,0,11,,,,12,,36,0
9738,note_off,,,,,42,0,10,,,,11,,48,0
9738,note_off,,,,,42,0,12,,,,13,,48,0
9738,note_off,,,,,42,0,8,,,,7,,81,0
9738,note_off,,,,,42,0,3,,,,2,,81,0
9742,note_off,,,,,10,0,4,,,,3,,77,0
9744,note_on,,,,,6,0,6,,,,5,,50,49
9744,note_on,,,,,6,0,3,,,,2,,79,62
9744,note_on,,,,,6,0,12,,,,13,,50,96
9744,note_on,,,,,6,0,11,,,,12,,38,49
9744,note_on,,,,,2,0,4,,,,3,,79,62
9744,note_on,,,,,6,0,2,,,,1,,60,127
9744,note_on,,,,,6,0,10,,,,11,,50,49
9744,note_on,,,,,6,0,8,,,,7,,79,75
9744,note_on,,,,,6,0,7,,,,6,,79,75
9754,note_off,,,,,10,0,4,,,,3,,79,0
9756,note_on,,,,,2,0,4,,,,3,,77,62
9766,note_off,,,,,10,0,4,,,,3,,77,0
9768,note_on,,,,,2,0,4,,,,3,,79,62
9778,note_off,,,,,10,0,4,,,,3,,79,0
9780,note_off,,,,,0,0,12,,,,13,,77,0
9780,note_off,,,,,180,0,1,,,,0,,72,0
9780,note_off,,,,,84,0,13,,,,14,,72,0
9780,note_off,,,,,36,0,12,,,,13,,69,0
9780,note_off,,,,,84,0,9,,,,8,,77,0
9780,note_on,,,,,2,0,4,,,,3,,77,62
9780,note_off,,,,,84,0,5,,,,4,,72,0
9786,note_off,,,,,42,0,7,,,,6,,79,0
9786,note_off,,,,,42,0,6,,,,5,,50,0
9786,note_off,,,,,42,0,11,,,,12,,38,0
9786,note_off,,,,,42,0,3,,,,2,,79,0
9786,note_off,,,,,42,0,10,,,,11,,50,0
9786,note_off,,,,,6,0,12,,,,13,,50,0
9786,note_off,,,,,42,0,2,,,,1,,60,0
9786,note_off,,,,,42,0,8,,,,7,,79,0
9790,note_off,,,,,10,0,4,,,,3,,77,0
9792,note_on,,,,,6,0,12,,,,13,,72,96
9792,note_on,,,,,6,0,3,,,,2,,84,62
9792,note_on,,,,,6,0,10,,,,11,,52,49
9792,note_on,,,,,6,0,8,,,,7,,84,75
9792,note_on,,,,,12,0,5,,,,4,,64,62
9792,note_on,,,,,0,0,12,,,,13,,79,96
9792,note_on,,,,,6,0,6,,,,5,,52,49
9792,note_on,,,,,12,0,1,,,,0,,70,127
9792,note_on,,,,,12,0,13,,,,14,,64,75
9792,note_on,,,,,0,0,12,,,,13,,52,96
9792,note_on,,,,,6,0,7,,,,6,,84,75
9792,note_on,,,,,2,0,4,,,,3,,79,62
9792,note_on,,,,,12,0,9,,,,8,,79,75
9792,note_on,,,,,6,0,11,,,,12,,40,49
9792,note_on,,,,,6,0,2,,,,1,,60,127
9834,note_off,,,,,42,0,11,,,,12,,40,0
9834,note_off,,,,,42,0,10,,,,11,,52,0
9834,note_off,,,,,42,0,12,,,,13,,52,0
9834,note_off,,,,,42,0,6,,,,5,,52,0
9834,note_off,,,,,42,0,2,,,,1,,60,0
9840,note_on,,,,,6,0,12,,,,13,,48,96
9840,note_on,,,,,6,0,11,,,,12,,36,49
9840,note_on,,,,,6,0,6,,,,5,,48,49
9840,note_on,,,,,6,0,10,,,,11,,48,49
9840,note_on,,,,,6,0,2,,,,1,,60,127
9876,note_off,,,,,84,0,1,,,,0,,70,0
9876,note_off,,,,,84,0,9,,,,8,,79,0
9876,note_off,,,,,0,0,12,,,,13,,79,0
9876,note_off,,,,,84,0,3,,,,2,,84,0
9876,note_off,,,,,84,0,4,,,,3,,79,0
9876,note_off,,,,,84,0,8,,,,7,,84,0
9876,note_off,,,,,84,0,5,,,,4,,64,0
9876,note_off,,,,,84,0,7,,,,6,,84,0
9876,note_off,,,,,84,0,13,,,,14,,64,0
9876,note_off,,,,,36,0,12,,,,13,,72,0
9882,note_off,,,,,6,0,12,,,,13,,48,0
9882,note_off,,,,,42,0,10,,,,11,,48,0
9882,note_off,,,,,42,0,11,,,,12,,36,0
9882,note_off,,,,,42,0,6,,,,5,,48,0
9882,note_off,,,,,42,0,2,,,,1,,60,0
9888,note_on,,,,,12,0,3,,,,2,,77,62
9888,note_on,,,,,6,0,10,,,,11,,50,49
9888,note_on,,,,,12,0,9,,,,8,,74,75
9888,note_on,,,,,12,0,13,,,,14,,69,75
9888,note_on,,,,,6,0,12,,,,13,,69,96
9888,note_on,,,,,0,0,12,,,,13,,77,96
9888,note_on,,,,,0,0,12,,,,13,,50,96
9888,note_on,,,,,12,0,4,,,,3,,74,62
9888,note_on,,,,,12,0,8,,,,7,,77,75
9888,note_on,,,,,12,0,5,,,,4,,69,62
9888,note_on,,,,,12,0,7,,,,6,,77,75
9888,note_on,,,,,6,0,6,,,,5,,50,49
9888,note_on,,,,,6,0,11,,,,12,,38,49
9888,note_on,,,,,6,0,2,,,,1,,65,127
9888,note_on,,,,,12,0,1,,,,0,,69,127
9930,note_off,,,,,42,0,13,,,,14,,69,0
9930,note_off,,,,,42,0,8,,,,7,,77,0
9930,note_off,,,,,42,0,12,,,,13,,50,0
9930,note_off,,,,,42,0,11,,,,12,,38,0
9930,note_off,,,,,42,0,5,,,,4,,69,0
9930,note_off,,,,,42,0,3,,,,2,,77,0
9930,note_off,,,,,42,0,7,,,,6,,77,0
9930,note_off,,,,,42,0,10,,,,11,,50,0
9930,note_off,,,,,42,0,6,,,,5,,50,0
9936,note_on,,,,,6,0,3,,,,2,,79,62
9936,note_on,,,,,6,0,8,,,,7,,79,75
9936,note_on,,,,,6,0,11,,,,12,,34,49
9936,note_on,,,,,6,0,5,,,,4,,70,62
9936,note_on,,,,,6,0,10,,,,11,,46,49
9936,note_on,,,,,6,0,12,,,,13,,46,96
9936,note_on,,,,,6,0,6,,,,5,,46,49
9936,note_on,,,,,6,0,13,,,,14,,70,75
9936,note_on,,,,,6,0,7,,,,6,,79,75
9972,note_off,,,,,84,0,9,,,,8,,74,0
9972,note_off,,,,,84,0,4,,,,3,,74,0
9972,note_off,,,,,84,0,1,,,,0,,69,0
9972,note_off,,,,,36,0,12,,,,13,,69,0
9972,note_off,,,,,0,0,12,,,,13,,77,0
9972,note_off,,,,,84,0,2,,,,1,,65,0
9978,note_off,,,,,42,0,8,,,,7,,79,0
9978,note_off,,,,,6,0,12,,,,13,,46,0
9978,note_off,,,,,42,0,7,,,,6,,79,0
9978,note_off,,,,,42,0,5,,,,4,,70,0
9978,note_off,,,,,42,0,10,,,,11,,46,0
9978,note_off,,,,,42,0,6,,,,5,,46,0
9978,note_off,,,,,42,0,13,,,,14,,70,0
9978,note_off,,,,,42,0,11,,,,12,,34,0
9978,note_off,,,,,42,0,3,,,,2,,79,0
9984,note_on,,,,,6,0,7,,,,6,,76,75
9984,note_on,,,,,6,0,13,,,,14,,67,75
9984,note_on,,,,,12,0,1,,,,0,,70,127
9984,note_on,,,,,6,0,6,,,,5,,48,49
9984,note_on,,,,,6,0,11,,,,12,,36,49
9984,note_on,,,,,12,0,2,,,,1,,60,127
9984,note_on,,,,,0,0,12,,,,13,,48,96
9984,note_on,,,,,0,0,12,,,,13,,76,96
9984,note_on,,,,,12,0,9,,,,8,,74,75
9984,note_on,,,,,6,0,10,,,,11,,48,49
9984,note_on,,,,,6,0,12,,,,13,,67,96
9984,note_on,,,,,12,0,4,,,,3,,74,62
9984,note_on,,,,,6,0,8,,,,7,,76,75
9984,note_on,,,,,6,0,3,,,,2,,76,62
9984,note_on,,,,,6,0,5,,,,4,,67,62
9994,note_off,,,,,10,0,9,,,,8,,74,0
9994,note_off,,,,,10,0,13,,,,14,,67,0
9994,note_off,,,,,10,0,4,,,,3,,74,0
9996,note_on,,,,,2,0,13,,,,14,,65,75
9996,note_on,,,,,2,0,4,,,,3,,72,62
9996,note_on,,,,,2,0,9,,,,8,,72,75
10006,note_off,,,,,10,0,4,,,,3,,72,0
10006,note_off,,,,,10,0,9,,,,8,,72,0
10006,note_off,,,,,10,0,13,,,,14,,65,0
10008,note_on,,,,,2,0,13,,,,14,,67,75
10008,note_on,,,,,2,0,4,,,,3,,74,62
10008,note_on,,,,,2,0,9,,,,8,,74,75
10018,note_off,,,,,10,0,13,,,,14,,67,0
10018,note_off,,,,,10,0,9,,,,8,,74,0
10018,note_off,,,,,10,0,4,,,,3,,74,0
10020,note_on,,,,,2,0,13,,,,14,,65,75
10020,note_on,,,,,2,0,9,,,,8,,72,75
10020,note_on,,,,,2,0,4,,,,3,,72,62
10026,note_off,,,,,42,0,1,,,,0,,70,0
10026,note_off,,,,,42,0,2,,,,1,,60,0
10030,note_off,,,,,10,0,13,,,,14,,65,0
10030,note_off,,,,,10,0,9,,,,8,,72,0
10030,note_off,,,,,10,0,4,,,,3,,72,0
10032,note_on,,,,,2,0,4,,,,3,,74,62
10032,note_on,,,,,6,0,1,,,,0,,69,127
10032,note_on,,,,,2,0,9,,,,8,,74,75
10032,note_on,,,,,6,0,2,,,,1,,60,127
10032,note_on,,,,,2,0,13,,,,14,,67,75
10042,note_off,,,,,10,0,4,,,,3,,74,0
10042,note_off,,,,,10,0,9,,,,8,,74,0
10042,note_off,,,,,10,0,13,,,,14,,67,0
10044,note_on,,,,,2,0,9,,,,8,,72,75
10044,note_on,,,,,2,0,13,,,,14,,65,75
10044,note_on,,,,,2,0,4,,,,3,,72,62
10054,note_off,,,,,10,0,13,,,,14,,65,0
10054,note_off,,,,,10,0,4,,,,3,,72,0
10054,note_off,,,,,10,0,9,,,,8,,72,0
10056,note_on,,,,,2,0,9,,,,8,,74,75
10056,note_on,,,,,2,0,13,,,,14,,67,75
10056,note_on,,,,,2,0,4,,,,3,,74,62
10066,note_off,,,,,10,0,13,,,,14,,67,0
10066,note_off,,,,,10,0,4,,,,3,,74,0
10066,note_off,,,,,10,0,9,,,,8,,74,0
10068,note_off,,,,,84,0,12,,,,13,,67,0
10068,note_off,,,,,0,0,12,,,,13,,76,0
10068,note_on,,,,,2,0,4,,,,3,,72,62
10068,note_off,,,,,0,0,12,,,,13,,48,0
10068,note_off,,,,,84,0,11,,,,12,,36,0
10068,note_on,,,,,2,0,13,,,,14,,65,75
10068,note_off,,,,,84,0,6,,,,5,,48,0
10068,note_off,,,,,84,0,10,,,,11,,48,0
10068,note_on,,,,,2,0,9,,,,8,,72,75
10074,note_off,,,,,42,0,1,,,,0,,69,0
10074,note_off,,,,,42,0,2,,,,1,,60,0
10078,note_off,,,,,10,0,4,,,,3,,72,0
10078,note_off,,,,,10,0,13,,,,14,,65,0
10078,note_off,,,,,10,0,9,,,,8,,72,0
10080,note_on,,,,,6,0,1,,,,0,,67,127
10080,note_on,,,,,6,0,2,,,,1,,60,127
10080,note_on,,,,,2,0,13,,,,14,,67,75
10080,note_on,,,,,12,0,6,,,,5,,36,49
10080,note_on,,,,,12,0,10,,,,11,,36,49
10080,note_on,,,,,0,0,12,,,,13,,36,96
10080,note_on,,,,,12,0,12,,,,13,,64,96
10080,note_on,,,,,2,0,9,,,,8,,74,75
10080,note_on,,,,,12,0,11,,,,12,,24,49
10080,note_on,,,,,2,0,4,,,,3,,74,62
10080,note_on,,,,,0,0,12,,,,13,,67,96
10090,note_off,,,,,10,0,13,,,,14,,67,0
10090,note_off,,,,,10,0,9,,,,8,,74,0
10090,note_off,,,,,10,0,4,,,,3,,74,0
10092,note_on,,,,,2,0,13,,,,14,,65,75
10092,note_on,,,,,2,0,9,,,,8,,72,75
10092,note_on,,,,,2,0,4,,,,3,,72,62
10102,note_off,,,,,10,0,13,,,,14,,65,0
10102,note_off,,,,,10,0,9,,,,8,,72,0
10102,note_off,,,,,10,0,4,,,,3,,72,0
10104,note_on,,,,,2,0,4,,,,3,,74,62
10104,note_on,,,,,2,0,13,,,,14,,67,75
10104,note_on,,,,,2,0,9,,,,8,,74,75
10114,note_off,,,,,10,0,13,,,,14,,67,0
10114,note_off,,,,,10,0,4,,,,3,,74,0
10114,note_off,,,,,10,0,9,,,,8,,74,0
10116,note_off,,,,,132,0,8,,,,7,,76,0
10116,note_off,,,,,132,0,3,,,,2,,76,0
10116,note_on,,,,,2,0,9,,,,8,,72,75
10116,note_off,,,,,132,0,5,,,,4,,67,0
10116,note_on,,,,,2,0,13,,,,14,,65,75
10116,note_off,,,,,132,0,7,,,,6,,76,0
10116,note_on,,,,,2,0,4,,,,3,,72,62
10122,note_off,,,,,42,0,2,,,,1,,60,0
10122,note_off,,,,,42,0,1,,,,0,,67,0
10126,note_off,,,,,10,0,9,,,,8,,72,0
10126,note_off,,,,,10,0,4,,,,3,,72,0
10126,note_off,,,,,10,0,13,,,,14,,65,0
10128,note_on,,,,,12,0,8,,,,7,,77,75
10128,note_on,,,,,6,0,1,,,,0,,69,127
10128,note_on,,,,,12,0,7,,,,6,,77,75
10128,note_on,,,,,12,0,5,,,,4,,69,62
10128,note_on,,,,,12,0,3,,,,2,,77,62
10128,note_on,,,,,6,0,2,,,,1,,60,127
10128,note_on,,,,,2,0,4,,,,3,,72,62
10128,note_on,,,,,2,0,9,,,,8,,72,75
10128,note_on,,,,,2,0,13,,,,14,,69,75
10164,note_off,,,,,0,0,12,,,,13,,36,0
10164,note_off,,,,,84,0,11,,,,12,,24,0
10164,note_off,,,,,84,0,10,,,,11,,36,0
10164,note_off,,,,,0,0,12,,,,13,,67,0
10164,note_off,,,,,84,0,6,,,,5,,36,0
10164,note_off,,,,,84,0,12,,,,13,,64,0
10170,note_off,,,,,42,0,8,,,,7,,77,0
10170,note_off,,,,,42,0,3,,,,2,,77,0
10170,note_off,,,,,42,0,5,,,,4,,69,0
10170,note_off,,,,,42,0,9,,,,8,,72,0
10170,note_off,,,,,42,0,7,,,,6,,77,0
10170,note_off,,,,,42,0,2,,,,1,,60,0
10170,note_off,,,,,42,0,13,,,,14,,69,0
10170,note_off,,,,,42,0,4,,,,3,,72,0
10170,note_off,,,,,42,0,1,,,,0,,69,0
10176,note_on,,,,,12,0,12,,,,13,,60,96
10176,note_on,,,,,6,0,9,,,,8,,72,75
10176,note_on,,,,,6,0,13,,,,14,,69,75
10176,note_on,,,,,12,0,10,,,,11,,41,49
10176,note_on,,,,,6,0,7,,,,6,,77,75
10176,note_on,,,,,6,0,1,,,,0,,65,127
10176,note_on,,,,,6,0,5,,,,4,,69,62
10176,note_on,,,,,12,0,6,,,,5,,41,49
10176,note_on,,,,,6,0,2,,,,1,,57,127
10176,note_on,,,,,6,0,8,,,,7,,77,75
10176,note_on,,,,,12,0,11,,,,12,,29,49
10176,note_on,,,,,6,0,4,,,,3,,72,62
10176,note_on,,,,,6,0,3,,,,2,,77,62
10176,note_on,,,,,0,0,12,,,,13,,69,96
10176,note_on,,,,,0,0,12,,,,13,,41,96
10218,note_off,,,,,42,0,12,,,,13,,41,0
10218,note_off,,,,,42,0,10,,,,11,,41,0
10218,note_off,,,,,42,0,6,,,,5,,41,0
10218,note_off,,,,,42,0,11,,,,12,,29,0
10224,note_on,,,,,6,0,6,,,,5,,43,49
10224,note_on,,,,,6,0,12,,,,13,,43,96
10224,note_on,,,,,6,0,10,,,,11,,43,49
10224,note_on,,,,,6,0,11,,,,12,,31,49
10266,note_off,,,,,42,0,11,,,,12,,31,0
10266,note_off,,,,,42,0,6,,,,5,,43,0
10266,note_off,,,,,42,0,12,,,,13,,43,0
10266,note_off,,,,,42,0,10,,,,11,,43,0
10272,note_on,,,,,6,0,10,,,,11,,45,49
10272,note_on,,,,,6,0,6,,,,5,,45,49
10272,note_on,,,,,6,0,12,,,,13,,45,96
10272,note_on,,,,,6,0,11,,,,12,,33,49
10314,note_off,,,,,42,0,10,,,,11,,45,0
10314,note_off,,,,,42,0,6,,,,5,,45,0
10314,note_off,,,,,42,0,11,,,,12,,33,0
10314,note_off,,,,,42,0,12,,,,13,,45,0
10320,note_on,,,,,6,0,12,,,,13,,46,96
10320,note_on,,,,,6,0,11,,,,12,,34,49
10320,note_on,,,,,6,0,6,,,,5,,46,49
10320,note_on,,,,,6,0,10,,,,11,,46,49
10356,note_off,,,,,180,0,9,,,,8,,72,0
10362,note_off,,,,,42,0,6,,,,5,,46,0
10362,note_off,,,,,42,0,10,,,,11,,46,0
10362,note_off,,,,,42,0,12,,,,13,,46,0
10362,note_off,,,,,42,0,11,,,,12,,34,0
10368,note_on,,,,,6,0,10,,,,11,,48,49
10368,note_on,,,,,6,0,11,,,,12,,36,49
10368,note_on,,,,,6,0,6,,,,5,,48,49
10368,note_on,,,,,6,0,12,,,,13,,48,96
10410,note_off,,,,,42,0,10,,,,11,,48,0
10410,note_off,,,,,42,0,11,,,,12,,36,0
10410,note_off,,,,,42,0,12,,,,13,,48,0
10410,note_off,,,,,42,0,6,,,,5,,48,0
10416,note_on,,,,,6,0,6,,,,5,,50,49
10416,note_on,,,,,6,0,10,,,,11,,50,49
10416,note_on,,,,,6,0,11,,,,12,,38,49
10416,note_on,,,,,6,0,12,,,,13,,50,96
10452,note_off,,,,,276,0,8,,,,7,,77,0
10452,note_off,,,,,276,0,13,,,,14,,69,0
10452,note_off,,,,,276,0,2,,,,1,,57,0
10452,note_off,,,,,276,0,5,,,,4,,69,0
10452,note_off,,,,,276,0,4,,,,3,,72,0
10452,note_off,,,,,276,0,7,,,,6,,77,0
10452,note_off,,,,,0,0,12,,,,13,,69,0
10452,note_off,,,,,276,0,1,,,,0,,65,0
10452,note_off,,,,,276,0,3,,,,2,,77,0
10452,note_off,,,,,36,0,12,,,,13,,60,0
10458,note_off,,,,,42,0,10,,,,11,,50,0
10458,note_off,,,,,6,0,12,,,,13,,50,0
10458,note_off,,,,,42,0,11,,,,12,,38,0
10458,note_off,,,,,42,0,6,,,,5,,50,0
10464,note_on,,,,,12,0,7,,,,6,,79,75
10464,note_on,,,,,12,0,5,,,,4,,67,62
10464,note_on,,,,,108,0,9,,,,8,,72,75
10464,note_on,,,,,12,0,13,,,,14,,67,75
10464,note_on,,,,,12,0,3,,,,2,,79,62
10464,note_on,,,,,12,0,4,,,,3,,72,62
10464,note_on,,,,,6,0,10,,,,11,,52,49
10464,note_on,,,,,12,0,8,,,,7,,79,75
10464,note_on,,,,,6,0,6,,,,5,,52,49
10464,note_on,,,,,12,0,1,,,,0,,60,127
10464,note_on,,,,,0,0,12,,,,13,,52,96
10464,note_on,,,,,6,0,11,,,,12,,40,49
10464,note_on,,,,,0,0,12,,,,13,,72,96
10464,note_on,,,,,6,0,12,,,,13,,67,96
10548,note_off,,,,,84,0,4,,,,3,,72,0
10548,note_off,,,,,84,0,1,,,,0,,60,0
10548,note_off,,,,,84,0,8,,,,7,,79,0
10548,note_off,,,,,84,0,9,,,,8,,72,0
10548,note_off,,,,,84,0,3,,,,2,,79,0
10548,note_off,,,,,84,0,12,,,,13,,67,0
10548,note_off,,,,,0,0,12,,,,13,,72,0
10548,note_off,,,,,84,0,7,,,,6,,79,0
10560,note_on,,,,,12,0,8,,,,7,,82,75
10560,note_on,,,,,12,0,9,,,,8,,79,75
10560,note_on,,,,,12,0,7,,,,6,,82,75
10560,note_on,,,,,12,0,3,,,,2,,82,62
10560,note_on,,,,,12,0,1,,,,0,,60,127
10560,note_on,,,,,12,0,4,,,,3,,79,62
10560,note_on,,,,,0,0,12,,,,13,,70,96
10560,note_on,,,,,12,0,12,,,,13,,67,96
10602,note_off,,,,,42,0,1,,,,0,,60,0
10608,note_on,,,,,6,0,1,,,,0,,60,127
10644,note_off,,,,,180,0,10,,,,11,,52,0
10644,note_off,,,,,180,0,13,,,,14,,67,0
10644,note_off,,,,,84,0,8,,,,7,,82,0
10644,note_off,,,,,180,0,11,,,,12,,40,0
10644,note_off,,,,,180,0,5,,,,4,,67,0
10644,note_off,,,,,84,0,12,,,,13,,52,0
10644,note_off,,,,,84,0,7,,,,6,,82,0
10644,note_off,,,,,84,0,4,,,,3,,79,0
10644,note_off,,,,,84,0,3,,,,2,,82,0
10644,note_off,,,,,0,0,12,,,,13,,70,0
10644,note_off,,,,,180,0,6,,,,5,,52,0
10644,note_off,,,,,84,0,9,,,,8,,79,0
10644,note_off,,,,,0,0,12,,,,13,,67,0
10650,note_off,,,,,42,0,1,,,,0,,60,0
10656,note_on,,,,,0,0,12,,,,13,,69,96
10656,note_on,,,,,12,0,12,,,,13,,60,96
10656,note_on,,,,,12,0,4,,,,3,,77,62
10656,note_on,,,,,12,0,3,,,,2,,81,62
10656,note_on,,,,,12,0,9,,,,8,,77,75
10656,note_on,,,,,12,0,8,,,,7,,81,75
10656,note_on,,,,,12,0,10,,,,11,,53,49
10656,note_on,,,,,12,0,7,,,,6,,81,75
10656,note_on,,,,,0,0,12,,,,13,,53,96
10656,note_on,,,,,12,0,6,,,,5,,53,49
10656,note_on,,,,,12,0,13,,,,14,,72,75
10656,note_on,,,,,12,0,11,,,,12,,41,49
10656,note_on,,,,,12,0,5,,,,4,,72,62
10656,note_on,,,,,6,0,1,,,,0,,60,127
10698,note_off,,,,,42,0,1,,,,0,,60,0
10704,note_on,,,,,6,0,1,,,,0,,60,127
10740,note_off,,,,,84,0,10,,,,11,,53,0
10740,note_off,,,,,84,0,8,,,,7,,81,0
10740,note_off,,,,,84,0,4,,,,3,,77,0
10740,note_off,,,,,84,0,13,,,,14,,72,0
10740,note_off,,,,,84,0,11,,,,12,,41,0
10740,note_off,,,,,84,0,12,,,,13,,60,0
10740,note_off,,,,,84,0,5,,,,4,,72,0
10740,note_off,,,,,84,0,6,,,,5,,53,0
10740,note_off,,,,,84,0,3,,,,2,,81,0
10740,note_off,,,,,84,0,9,,,,8,,77,0
10740,note_off,,,,,0,0,12,,,,13,,53,0
10740,note_off,,,,,0,0,12,,,,13,,69,0
10740,note_off,,,,,84,0,7,,,,6,,81,0
10746,note_off,,,,,42,0,1,,,,0,,60,0
10752,note_on,,,,,0,0,12,,,,13,,55,96
10752,note_on,,,,,12,0,8,,,,7,,79,75
10752,note_on,,,,,12,0,5,,,,4,,70,62
10752,note_on,,,,,12,0,10,,,,11,,55,49
10752,note_on,,,,,12,0,4,,,,3,,76,62
10752,note_on,,,,,12,0,9,,,,8,,76,75
10752,note_on,,,,,0,0,12,,,,13,,70,96
10752,note_on,,,,,12,0,13,,,,14,,72,75
10752,note_on,,,,,12,0,7,,,,6,,81,75
10752,note_on,,,,,12,0,12,,,,13,,64,96
10752,note_on,,,,,6,0,1,,,,0,,60,127
10752,note_on,,,,,12,0,11,,,,12,,43,49
10752,note_on,,,,,12,0,3,,,,2,,79,62
10752,note_on,,,,,300,0,2,,,,1,,60,127
10752,note_on,,,,,12,0,6,,,,5,,55,49
10762,note_off,,,,,10,0,7,,,,6,,81,0
10762,note_off,,,,,10,0,13,,,,14,,72,0
10764,note_on,,,,,2,0,7,,,,6,,79,75
10764,note_on,,,,,2,0,13,,,,14,,70,75
10774,note_off,,,,,10,0,7,,,,6,,79,0
10774,note_off,,,,,10,0,13,,,,14,,70,0
10776,note_on,,,,,2,0,13,,,,14,,72,75
10776,note_on,,,,,2,0,7,,,,6,,81,75
10786,note_off,,,,,10,0,13,,,,14,,72,0
10786,note_off,,,,,10,0,7,,,,6,,81,0
10788,note_on,,,,,2,0,7,,,,6,,79,75
10788,note_on,,,,,2,0,13,,,,14,,70,75
10798,note_off,,,,,10,0,13,,,,14,,70,0
10798,note_off,,,,,10,0,7,,,,6,,79,0
10800,note_on,,,,,2,0,13,,,,14,,72,75
10800,note_on,,,,,2,0,7,,,,6,,81,75
10810,note_off,,,,,10,0,13,,,,14,,72,0
10810,note_off,,,,,10,0,7,,,,6,,81,0
10812,note_on,,,,,2,0,13,,,,14,,70,75
10812,note_on,,,,,2,0,7,,,,6,,79,75
10822,note_off,,,,,10,0,13,,,,14,,70,0
10822,note_off,,,,,10,0,7,,,,6,,79,0
10824,note_on,,,,,2,0,13,,,,14,,72,75
10824,note_on,,,,,2,0,7,,,,6,,81,75
10834,note_off,,,,,10,0,7,,,,6,,81,0
10834,note_off,,,,,10,0,13,,,,14,,72,0
10836,note_off,,,,,84,0,6,,,,5,,55,0
10836,note_off,,,,,84,0,2,,,,1,,60,0
10836,note_off,,,,,0,0,12,,,,13,,70,0
10836,note_off,,,,,84,0,12,,,,13,,64,0
10836,note_off,,,,,0,0,12,,,,13,,55,0
10836,note_off,,,,,84,0,8,,,,7,,79,0
10836,note_off,,,,,84,0,11,,,,12,,43,0
10836,note_off,,,,,84,0,1,,,,0,,60,0
10836,note_on,,,,,2,0,7,,,,6,,79,75
10836,note_off,,,,,84,0,9,,,,8,,76,0
10836,note_off,,,,,84,0,4,,,,3,,76,0
10836,note_off,,,,,84,0,5,,,,4,,70,0
10836,note_off,,,,,84,0,10,,,,11,,55,0
10836,note_off,,,,,84,0,3,,,,2,,79,0
10836,note_on,,,,,2,0,13,,,,14,,70,75
10846,note_off,,,,,10,0,7,,,,6,,79,0
10846,note_off,,,,,10,0,13,,,,14,,70,0
10848,note_on,,,,,0,0,12,,,,13,,72,96
10848,note_on,,,,,12,0,5,,,,4,,69,62
10848,note_on,,,,,2,0,13,,,,14,,69,75
10848,note_on,,,,,0,0,12,,,,13,,58,96
10848,note_on,,,,,12,0,11,,,,12,,46,49
10848,note_on,,,,,12,0,3,,,,2,,77,62
10848,note_on,,,,,12,0,6,,,,5,,58,49
10848,note_on,,,,,12,0,8,,,,7,,77,75
10848,note_on,,,,,12,0,2,,,,1,,60,127
10848,note_on,,,,,2,0,7,,,,6,,77,75
10848,note_on,,,,,12,0,9,,,,8,,72,75
10848,note_on,,,,,12,0,4,,,,3,,72,62
10848,note_on,,,,,12,0,12,,,,13,,64,96
10848,note_on,,,,,12,0,10,,,,11,,58,49
10890,note_off,,,,,42,0,7,,,,6,,77,0
10890,note_off,,,,,42,0,3,,,,2,,77,0
10890,note_off,,,,,42,0,5,,,,4,,69,0
10890,note_off,,,,,42,0,8,,,,7,,77,0
10890,note_off,,,,,42,0,13,,,,14,,69,0
10890,note_off,,,,,42,0,2,,,,1,,60,0
10896,note_on,,,,,6,0,8,,,,7,,76,75
10896,note_on,,,,,6,0,2,,,,1,,60,127
10896,note_on,,,,,6,0,5,,,,4,,67,62
10896,note_on,,,,,6,0,7,,,,6,,76,75
10896,note_on,,,,,6,0,3,,,,2,,76,62
10896,note_on,,,,,6,0,13,,,,14,,67,75
10932,note_off,,,,,0,0,12,,,,13,,72,0
10932,note_off,,,,,84,0,9,,,,8,,72,0
10932,note_off,,,,,84,0,4,,,,3,,72,0
10932,note_off,,,,,84,0,11,,,,12,,46,0
10932,note_off,,,,,84,0,6,,,,5,,58,0
10932,note_off,,,,,84,0,10,,,,11,,58,0
10932,note_off,,,,,0,0,12,,,,13,,58,0
10932,note_off,,,,,84,0,12,,,,13,,64,0
10938,note_off,,,,,42,0,2,,,,1,,60,0
10938,note_off,,,,,42,0,13,,,,14,,67,0
10938,note_off,,,,,42,0,5,,,,4,,67,0
10938,note_off,,,,,42,0,8,,,,7,,76,0
10938,note_off,,,,,42,0,3,,,,2,,76,0
10938,note_off,,,,,42,0,7,,,,6,,76,0
10944,note_on,,,,,6,0,5,,,,4,,69,62
10944,note_on,,,,,12,0,10,,,,11,,57,49
10944,note_on,,,,,12,0,6,,,,5,,57,49
10944,note_on,,,,,6,0,3,,,,2,,77,62
10944,note_on,,,,,12,0,4,,,,3,,72,62
10944,note_on,,,,,6,0,7,,,,6,,77,75
10944,note_on,,,,,6,0,2,,,,1,,60,127
10944,note_on,,,,,6,0,8,,,,7,,77,75
10944,note_on,,,,,6,0,13,,,,14,,69,75
10944,note_on,,,,,12,0,9,,,,8,,72,75
10944,note_on,,,,,0,0,12,,,,13,,72,96
10944,note_on,,,,,0,0,12,,,,13,,57,96
10944,note_on,,,,,12,0,12,,,,13,,65,96
10944,note_on,,,,,12,0,11,,,,12,,45,49
10986,note_off,,,,,42,0,2,,,,1,,60,0
10992,note_on,,,,,6,0,2,,,,1,,60,127
11028,note_off,,,,,84,0,12,,,,13,,65,0
11028,note_off,,,,,0,0,12,,,,13,,72,0
11028,note_off,,,,,0,0,12,,,,13,,57,0
11028,note_off,,,,,84,0,13,,,,14,,69,0
11028,note_off,,,,,84,0,5,,,,4,,69,0
11028,note_off,,,,,84,0,7,,,,6,,77,0
11028,note_off,,,,,84,0,6,,,,5,,57,0
11028,note_off,,,,,84,0,4,,,,3,,72,0
11028,note_off,,,,,84,0,3,,,,2,,77,0
11028,note_off,,,,,84,0,10,,,,11,,57,0
11028,note_off,,,,,84,0,9,,,,8,,72,0
11028,note_off,,,,,84,0,11,,,,12,,45,0
11028,note_off,,,,,84,0,8,,,,7,,77,0
11034,note_off,,,,,42,0,2,,,,1,,60,0
11040,note_on,,,,,6,0,2,,,,1,,60,127
11040,note_on,,,,,12,0,9,,,,8,,76,75
11040,note_on,,,,,12,0,11,,,,12,,43,49
11040,note_on,,,,,12,0,7,,,,6,,79,75
11040,note_on,,,,,12,0,8,,,,7,,79,75
11040,note_on,,,,,12,0,13,,,,14,,70,75
11040,note_on,,,,,0,0,12,,,,13,,55,96
11040,note_on,,,,,0,0,12,,,,13,,70,96
11040,note_on,,,,,12,0,12,,,,13,,64,96
11040,note_on,,,,,204,0,1,,,,0,,60,127
11040,note_on,,,,,12,0,10,,,,11,,55,49
11040,note_on,,,,,12,0,5,,,,4,,70,62
11040,note_on,,,,,12,0,6,,,,5,,55,49
11040,note_on,,,,,12,0,3,,,,2,,79,62
11040,note_on,,,,,12,0,4,,,,3,,76,62
11124,note_off,,,,,84,0,13,,,,14,,70,0
11124,note_off,,,,,84,0,8,,,,7,,79,0
11124,note_off,,,,,84,0,2,,,,1,,60,0
11124,note_off,,,,,84,0,7,,,,6,,79,0
11124,note_off,,,,,84,0,3,,,,2,,79,0
11124,note_off,,,,,84,0,11,,,,12,,43,0
11124,note_off,,,,,84,0,6,,,,5,,55,0
11124,note_off,,,,,0,0,12,,,,13,,55,0
11124,note_off,,,,,84,0,9,,,,8,,76,0
11124,note_off,,,,,0,0,12,,,,13,,70,0
11124,note_off,,,,,84,0,12,,,,13,,64,0
11124,note_off,,,,,84,0,5,,,,4,,70,0
11124,note_off,,,,,84,0,4,,,,3,,76,0
11124,note_off,,,,,84,0,1,,,,0,,60,0
11124,note_off,,,,,84,0,10,,,,11,,55,0
11136,note_on,,,,,12,0,7,,,,6,,82,75
11136,note_on,,,,,12,0,1,,,,0,,60,127
11136,note_on,,,,,12,0,3,,,,2,,82,62
11136,note_on,,,,,12,0,13,,,,14,,67,75
11136,note_on,,,,,12,0,10,,,,11,,53,49
11136,note_on,,,,,12,0,11,,,,12,,41,49
11136,note_on,,,,,0,0,12,,,,13,,53,96
11136,note_on,,,,,0,0,12,,,,13,,70,96
11136,note_on,,,,,12,0,5,,,,4,,67,62
11136,note_on,,,,,12,0,8,,,,7,,82,75
11136,note_on,,,,,12,0,4,,,,3,,79,62
11136,note_on,,,,,12,0,6,,,,5,,53,49
11136,note_on,,,,,12,0,9,,,,8,,79,75
11136,note_on,,,,,12,0,12,,,,13,,62,96
11178,note_off,,,,,42,0,1,,,,0,,60,0
11178,note_off,,,,,42,0,6,,,,5,,53,0
11178,note_off,,,,,42,0,10,,,,11,,53,0
11178,note_off,,,,,42,0,11,,,,12,,41,0
11178,note_off,,,,,42,0,12,,,,13,,53,0
11184,note_on,,,,,6,0,11,,,,12,,40,49
11184,note_on,,,,,6,0,10,,,,11,,52,49
11184,note_on,,,,,6,0,12,,,,13,,52,96
11184,note_on,,,,,6,0,6,,,,5,,52,49
11184,note_on,,,,,6,0,1,,,,0,,60,127
11220,note_off,,,,,36,0,12,,,,13,,62,0
11220,note_off,,,,,0,0,12,,,,13,,70,0
11220,note_off,,,,,84,0,5,,,,4,,67,0
11220,note_off,,,,,84,0,7,,,,6,,82,0
11220,note_off,,,,,84,0,3,,,,2,,82,0
11220,note_off,,,,,84,0,4,,,,3,,79,0
11220,note_off,,,,,84,0,13,,,,14,,67,0
11220,note_off,,,,,84,0,9,,,,8,,79,0
11220,note_off,,,,,84,0,8,,,,7,,82,0
11226,note_off,,,,,42,0,6,,,,5,,52,0
11226,note_off,,,,,6,0,12,,,,13,,52,0
11226,note_off,,,,,42,0,10,,,,11,,52,0
11226,note_off,,,,,42,0,1,,,,0,,60,0
11226,note_off,,,,,42,0,11,,,,12,,40,0
11232,note_on,,,,,6,0,10,,,,11,,53,49
11232,note_on,,,,,0,0,12,,,,13,,69,96
11232,note_on,,,,,6,0,12,,,,13,,60,96
11232,note_on,,,,,12,0,7,,,,6,,81,75
11232,note_on,,,,,12,0,4,,,,3,,77,62
11232,note_on,,,,,12,0,13,,,,14,,72,75
11232,note_on,,,,,6,0,1,,,,0,,60,127
11232,note_on,,,,,12,0,8,,,,7,,81,75
11232,note_on,,,,,6,0,6,,,,5,,53,49
11232,note_on,,,,,12,0,5,,,,4,,72,62
11232,note_on,,,,,0,0,12,,,,13,,53,96
11232,note_on,,,,,12,0,9,,,,8,,77,75
11232,note_on,,,,,6,0,11,,,,12,,41,49
11232,note_on,,,,,12,0,3,,,,2,,81,62
11274,note_off,,,,,42,0,1,,,,0,,60,0
11280,note_on,,,,,6,0,1,,,,0,,60,127
11316,note_off,,,,,84,0,7,,,,6,,81,0
11316,note_off,,,,,84,0,8,,,,7,,81,0
11316,note_off,,,,,84,0,6,,,,5,,53,0
11316,note_off,,,,,84,0,5,,,,4,,72,0
11316,note_off,,,,,84,0,3,,,,2,,81,0
11316,note_off,,,,,84,0,11,,,,12,,41,0
11316,note_off,,,,,84,0,9,,,,8,,77,0
11316,note_off,,,,,0,0,12,,,,13,,69,0
11316,note_off,,,,,84,0,13,,,,14,,72,0
11316,note_off,,,,,0,0,12,,,,13,,53,0
11316,note_off,,,,,84,0,12,,,,13,,60,0
11316,note_off,,,,,84,0,10,,,,11,,53,0
11316,note_off,,,,,84,0,4,,,,3,,77,0
11322,note_off,,,,,42,0,1,,,,0,,60,0
11328,note_on,,,,,12,0,6,,,,5,,52,49
11328,note_on,,,,,204,0,2,,,,1,,60,127
11328,note_on,,,,,12,0,11,,,,12,,40,49
11328,note_on,,,,,6,0,1,,,,0,,60,127
11328,note_on,,,,,12,0,13,,,,14,,72,75
11328,note_on,,,,,12,0,3,,,,2,,81,62
11328,note_on,,,,,0,0,12,,,,13,,52,96
11328,note_on,,,,,12,0,4,,,,3,,79,62
11328,note_on,,,,,12,0,9,,,,8,,79,75
11328,note_on,,,,,12,0,8,,,,7,,81,75
11328,note_on,,,,,12,0,5,,,,4,,72,62
11328,note_on,,,,,12,0,10,,,,11,,52,49
11328,note_on,,,,,12,0,12,,,,13,,60,96
11328,note_on,,,,,0,0,12,,,,13,,67,96
11328,note_on,,,,,12,0,7,,,,6,,81,75
11338,note_off,,,,,10,0,7,,,,6,,81,0
11338,note_off,,,,,10,0,3,,,,2,,81,0
11338,note_off,,,,,10,0,8,,,,7,,81,0
11340,note_on,,,,,2,0,7,,,,6,,79,75
11340,note_on,,,,,2,0,8,,,,7,,79,75
11340,note_on,,,,,2,0,3,,,,2,,79,62
11350,note_off,,,,,10,0,3,,,,2,,79,0
11350,note_off,,,,,10,0,7,,,,6,,79,0
11350,note_off,,,,,10,0,8,,,,7,,79,0
11352,note_on,,,,,2,0,7,,,,6,,81,75
11352,note_on,,,,,2,0,3,,,,2,,81,62
11352,note_on,,,,,2,0,8,,,,7,,81,75
11362,note_off,,,,,10,0,3,,,,2,,81,0
11362,note_off,,,,,10,0,8,,,,7,,81,0
11362,note_off,,,,,10,0,7,,,,6,,81,0
11364,note_on,,,,,2,0,8,,,,7,,79,75
11364,note_on,,,,,2,0,3,,,,2,,79,62
11364,note_on,,,,,2,0,7,,,,6,,79,75
11374,note_off,,,,,10,0,8,,,,7,,79,0
11374,note_off,,,,,10,0,7,,,,6,,79,0
11374,note_off,,,,,10,0,3,,,,2,,79,0
11376,note_on,,,,,2,0,3,,,,2,,81,62
11376,note_on,,,,,2,0,7,,,,6,,81,75
11376,note_on,,,,,2,0,8,,,,7,,81,75
11386,note_off,,,,,10,0,3,,,,2,,81,0
11386,note_off,,,,,10,0,7,,,,6,,81,0
11386,note_off,,,,,10,0,8,,,,7,,81,0
11388,note_on,,,,,2,0,8,,,,7,,79,75
11388,note_on,,,,,2,0,3,,,,2,,79,62
11388,note_on,,,,,2,0,7,,,,6,,79,75
11398,note_off,,,,,10,0,8,,,,7,,79,0
11398,note_off,,,,,10,0,7,,,,6,,79,0
11398,note_off,,,,,10,0,3,,,,2,,79,0
11400,note_on,,,,,2,0,8,,,,7,,81,75
11400,note_on,,,,,2,0,7,,,,6,,81,75
11400,note_on,,,,,2,0,3,,,,2,,81,62
11410,note_off,,,,,10,0,3,,,,2,,81,0
11410,note_off,,,,,10,0,8,,,,7,,81,0
11410,note_off,,,,,10,0,7,,,,6,,81,0
11412,note_off,,,,,84,0,2,,,,1,,60,0
11412,note_off,,,,,84,0,10,,,,11,,52,0
11412,note_off,,,,,84,0,1,,,,0,,60,0
11412,note_off,,,,,0,0,12,,,,13,,52,0
11412,note_off,,,,,84,0,12,,,,13,,60,0
11412,note_on,,,,,2,0,8,,,,7,,79,75
11412,note_off,,,,,84,0,4,,,,3,,79,0
11412,note_off,,,,,84,0,9,,,,8,,79,0
11412,note_off,,,,,84,0,6,,,,5,,52,0
11412,note_on,,,,,2,0,7,,,,6,,79,75
11412,note_off,,,,,84,0,11,,,,12,,40,0
11412,note_on,,,,,2,0,3,,,,2,,79,62
11412,note_off,,,,,0,0,12,,,,13,,67,0
11422,note_off,,,,,10,0,3,,,,2,,79,0
11422,note_off,,,,,10,0,7,,,,6,,79,0
11422,note_off,,,,,10,0,8,,,,7,,79,0
11424,note_on,,,,,12,0,9,,,,8,,77,75
11424,note_on,,,,,12,0,10,,,,11,,53,49
11424,note_on,,,,,2,0,8,,,,7,,81,75
11424,note_on,,,,,0,0,12,,,,13,,72,96
11424,note_on,,,,,0,0,12,,,,13,,53,96
11424,note_on,,,,,2,0,7,,,,6,,81,75
11424,note_on,,,,,12,0,4,,,,3,,77,62
11424,note_on,,,,,12,0,11,,,,12,,41,49
11424,note_on,,,,,2,0,3,,,,2,,81,62
11424,note_on,,,,,12,0,6,,,,5,,53,49
11424,note_on,,,,,12,0,2,,,,1,,60,127
11424,note_on,,,,,12,0,12,,,,13,,65,96
11434,note_off,,,,,10,0,8,,,,7,,81,0
11434,note_off,,,,,10,0,3,,,,2,,81,0
11434,note_off,,,,,10,0,7,,,,6,,81,0
11436,note_on,,,,,2,0,3,,,,2,,79,62
11436,note_on,,,,,2,0,7,,,,6,,79,75
11436,note_on,,,,,2,0,8,,,,7,,79,75
11446,note_off,,,,,10,0,8,,,,7,,79,0
11446,note_off,,,,,10,0,3,,,,2,,79,0
11446,note_off,,,,,10,0,7,,,,6,,79,0
11448,note_on,,,,,2,0,3,,,,2,,81,62
11448,note_on,,,,,2,0,7,,,,6,,81,75
11448,note_on,,,,,2,0,8,,,,7,,81,75
11458,note_off,,,,,10,0,8,,,,7,,81,0
11458,note_off,,,,,10,0,3,,,,2,,81,0
11458,note_off,,,,,10,0,7,,,,6,,81,0
11460,note_on,,,,,2,0,3,,,,2,,79,62
11460,note_on,,,,,2,0,8,,,,7,,79,75
11460,note_on,,,,,2,0,7,,,,6,,79,75
11466,note_off,,,,,42,0,6,,,,5,,53,0
11466,note_off,,,,,42,0,11,,,,12,,41,0
11466,note_off,,,,,42,0,2,,,,1,,60,0
11466,note_off,,,,,42,0,12,,,,13,,53,0
11466,note_off,,,,,42,0,10,,,,11,,53,0
11470,note_off,,,,,10,0,7,,,,6,,79,0
11470,note_off,,,,,10,0,8,,,,7,,79,0
11470,note_off,,,,,10,0,3,,,,2,,79,0
11472,note_on,,,,,6,0,12,,,,13,,52,96
11472,note_on,,,,,2,0,8,,,,7,,81,75
11472,note_on,,,,,6,0,11,,,,12,,40,49
11472,note_on,,,,,6,0,10,,,,11,,52,49
11472,note_on,,,,,6,0,6,,,,5,,52,49
11472,note_on,,,,,6,0,2,,,,1,,60,127
11472,note_on,,,,,2,0,7,,,,6,,81,75
11472,note_on,,,,,2,0,3,,,,2,,81,62
11482,note_off,,,,,10,0,8,,,,7,,81,0
11482,note_off,,,,,10,0,3,,,,2,,81,0
11482,note_off,,,,,10,0,7,,,,6,,81,0
11484,note_on,,,,,2,0,3,,,,2,,79,62
11484,note_on,,,,,2,0,8,,,,7,,79,75
11484,note_on,,,,,2,0,7,,,,6,,79,75
11494,note_off,,,,,10,0,8,,,,7,,79,0
11494,note_off,,,,,10,0,3,,,,2,,79,0
11494,note_off,,,,,10,0,7,,,,6,,79,0
11496,note_on,,,,,2,0,3,,,,2,,81,62
11496,note_on,,,,,2,0,8,,,,7,,81,75
11496,note_on,,,,,2,0,7,,,,6,,81,75
11506,note_off,,,,,10,0,7,,,,6,,81,0
11506,note_off,,,,,10,0,3,,,,2,,81,0
11506,note_off,,,,,10,0,8,,,,7,,81,0
11508,note_on,,,,,2,0,8,,,,7,,79,75
11508,note_off,,,,,84,0,4,,,,3,,77,0
11508,note_off,,,,,180,0,13,,,,14,,72,0
11508,note_on,,,,,2,0,3,,,,2,,79,62
11508,note_on,,,,,2,0,7,,,,6,,79,75
11508,note_off,,,,,36,0,12,,,,13,,65,0
11508,note_off,,,,,0,0,12,,,,13,,72,0
11508,note_off,,,,,84,0,9,,,,8,,77,0
11508,note_off,,,,,180,0,5,,,,4,,72,0
11514,note_off,,,,,42,0,6,,,,5,,52,0
11514,note_off,,,,,42,0,2,,,,1,,60,0
11514,note_off,,,,,6,0,12,,,,13,,52,0
11514,note_off,,,,,42,0,10,,,,11,,52,0
11514,note_off,,,,,42,0,11,,,,12,,40,0
11518,note_off,,,,,10,0,3,,,,2,,79,0
11518,note_off,,,,,10,0,8,,,,7,,79,0
11518,note_off,,,,,10,0,7,,,,6,,79,0
11520,note_on,,,,,2,0,3,,,,2,,84,62
11520,note_on,,,,,6,0,2,,,,1,,60,127
11520,note_on,,,,,6,0,6,,,,5,,50,49
11520,note_on,,,,,12,0,13,,,,14,,67,75
11520,note_on,,,,,6,0,11,,,,12,,38,49
11520,note_on,,,,,2,0,8,,,,7,,84,75
11520,note_on,,,,,0,0,12,,,,13,,50,96
11520,note_on,,,,,12,0,5,,,,4,,67,62
11520,note_on,,,,,0,0,12,,,,13,,76,96
11520,note_on,,,,,2,0,7,,,,6,,84,75
11520,note_on,,,,,6,0,10,,,,11,,50,49
11520,note_on,,,,,6,0,12,,,,13,,67,96
11520,note_on,,,,,12,0,9,,,,8,,76,75
11520,note_on,,,,,12,0,4,,,,3,,76,62
11562,note_off,,,,,42,0,10,,,,11,,50,0
11562,note_off,,,,,42,0,12,,,,13,,50,0
11562,note_off,,,,,42,0,11,,,,12,,38,0
11562,note_off,,,,,42,0,2,,,,1,,60,0
11562,note_off,,,,,42,0,6,,,,5,,50,0
11568,note_on,,,,,6,0,2,,,,1,,60,127
11568,note_on,,,,,6,0,10,,,,11,,48,49
11568,note_on,,,,,6,0,11,,,,12,,36,49
11568,note_on,,,,,6,0,6,,,,5,,48,49
11568,note_on,,,,,6,0,12,,,,13,,48,96
11604,note_off,,,,,84,0,4,,,,3,,76,0
11604,note_off,,,,,84,0,8,,,,7,,84,0
11604,note_off,,,,,84,0,5,,,,4,,67,0
11604,note_off,,,,,84,0,3,,,,2,,84,0
11604,note_off,,,,,84,0,7,,,,6,,84,0
11604,note_off,,,,,36,0,12,,,,13,,67,0
11604,note_off,,,,,84,0,9,,,,8,,76,0
11604,note_off,,,,,84,0,13,,,,14,,67,0
11604,note_off,,,,,0,0,12,,,,13,,76,0
11610,note_off,,,,,6,0,12,,,,13,,48,0
11610,note_off,,,,,42,0,2,,,,1,,60,0
11610,note_off,,,,,42,0,11,,,,12,,36,0
11610,note_off,,,,,42,0,6,,,,5,,48,0
11610,note_off,,,,,42,0,10,,,,11,,48,0
11616,note_on,,,,,204,0,1,,,,0,,67,127
11616,note_on,,,,,12,0,7,,,,6,,77,75
11616,note_on,,,,,6,0,11,,,,12,,36,49
11616,note_on,,,,,12,0,4,,,,3,,74,62
11616,note_on,,,,,6,0,10,,,,11,,48,49
11616,note_on,,,,,12,0,8,,,,7,,77,75
11616,note_on,,,,,6,0,2,,,,1,,67,127
11616,note_on,,,,,12,0,3,,,,2,,77,62
11616,note_on,,,,,6,0,12,,,,13,,67,96
11616,note_on,,,,,12,0,9,,,,8,,74,75
11616,note_on,,,,,6,0,6,,,,5,,48,49
11616,note_on,,,,,12,0,5,,,,4,,67,62
11616,note_on,,,,,0,0,12,,,,13,,48,96
11616,note_on,,,,,0,0,12,,,,13,,74,96
11616,note_on,,,,,12,0,13,,,,14,,67,75
11626,note_off,,,,,10,0,11,,,,12,,36,0
11626,note_off,,,,,10,0,10,,,,11,,48,0
11626,note_off,,,,,10,0,12,,,,13,,48,0
11628,note_on,,,,,2,0,12,,,,13,,47,96
11628,note_on,,,,,2,0,10,,,,11,,47,49
11628,note_on,,,,,2,0,11,,,,12,,35,49
11637,note_off,,,,,21,0,6,,,,5,,48,0
11638,note_off,,,,,10,0,12,,,,13,,47,0
11638,note_off,,,,,10,0,11,,,,12,,35,0
11638,note_off,,,,,10,0,10,,,,11,,47,0
11640,note_on,,,,,3,0,6,,,,5,,47,49
11640,note_on,,,,,2,0,12,,,,13,,48,96
11640,note_on,,,,,2,0,11,,,,12,,36,49
11640,note_on,,,,,2,0,10,,,,11,,48,49
11650,note_off,,,,,10,0,12,,,,13,,48,0
11650,note_off,,,,,10,0,11,,,,12,,36,0
11650,note_off,,,,,10,0,10,,,,11,,48,0
11652,note_on,,,,,2,0,12,,,,13,,47,96
11652,note_on,,,,,2,0,11,,,,12,,35,49
11652,note_on,,,,,2,0,10,,,,11,,47,49
11661,note_off,,,,,21,0,6,,,,5,,47,0
11662,note_off,,,,,10,0,11,,,,12,,35,0
11662,note_off,,,,,10,0,12,,,,13,,47,0
11662,note_off,,,,,10,0,10,,,,11,,47,0
11664,note_on,,,,,2,0,12,,,,13,,48,96
11664,note_on,,,,,3,0,6,,,,5,,48,49
11664,note_on,,,,,2,0,11,,,,12,,36,49
11664,note_on,,,,,2,0,10,,,,11,,48,49
11674,note_off,,,,,10,0,10,,,,11,,48,0
11674,note_off,,,,,10,0,12,,,,13,,48,0
11674,note_off,,,,,10,0,11,,,,12,,36,0
11676,note_on,,,,,2,0,12,,,,13,,47,96
11676,note_on,,,,,2,0,10,,,,11,,47,49
11676,note_on,,,,,2,0,11,,,,12,,35,49
11685,note_off,,,,,21,0,6,,,,5,,48,0
11686,note_off,,,,,10,0,10,,,,11,,47,0
11686,note_off,,,,,10,0,12,,,,13,,47,0
11686,note_off,,,,,10,0,11,,,,12,,35,0
11688,note_on,,,,,2,0,10,,,,11,,48,49
11688,note_on,,,,,2,0,12,,,,13,,48,96
11688,note_on,,,,,2,0,11,,,,12,,36,49
11688,note_on,,,,,3,0,6,,,,5,,47,49
11698,note_off,,,,,10,0,12,,,,13,,48,0
11698,note_off,,,,,10,0,11,,,,12,,36,0
11698,note_off,,,,,10,0,10,,,,11,,48,0
11700,note_off,,,,,84,0,1,,,,0,,67,0
11700,note_on,,,,,2,0,10,,,,11,,47,49
11700,note_on,,,,,2,0,11,,,,12,,35,49
11700,note_off,,,,,84,0,2,,,,1,,67,0
11700,note_off,,,,,0,0,12,,,,13,,74,0
11700,note_off,,,,,2,0,12,,,,13,,67,0
11700,note_off,,,,,84,0,7,,,,6,,77,0
11700,note_off,,,,,84,0,3,,,,2,,77,0
11700,note_off,,,,,84,0,8,,,,7,,77,0
11700,note_on,,,,,0,0,12,,,,13,,47,96
11709,note_off,,,,,21,0,6,,,,5,,47,0
11710,note_off,,,,,10,0,11,,,,12,,35,0
11710,note_off,,,,,10,0,10,,,,11,,47,0
11710,note_off,,,,,10,0,12,,,,13,,47,0
11712,note_on,,,,,12,0,8,,,,7,,74,75
11712,note_on,,,,,2,0,11,,,,12,,36,49
11712,note_on,,,,,2,0,10,,,,11,,48,49
11712,note_on,,,,,0,0,12,,,,13,,48,96
11712,note_on,,,,,12,0,7,,,,6,,74,75
11712,note_on,,,,,12,0,1,,,,0,,67,127
11712,note_on,,,,,2,0,12,,,,13,,62,96
11712,note_on,,,,,12,0,3,,,,2,,74,62
11712,note_on,,,,,3,0,6,,,,5,,48,49
11712,note_on,,,,,0,0,12,,,,13,,71,96
11722,note_off,,,,,10,0,10,,,,11,,48,0
11722,note_off,,,,,10,0,11,,,,12,,36,0
11722,note_off,,,,,10,0,12,,,,13,,48,0
11724,note_on,,,,,2,0,12,,,,13,,47,96
11724,note_on,,,,,2,0,11,,,,12,,35,49
11724,note_on,,,,,2,0,10,,,,11,,47,49
11733,note_off,,,,,21,0,6,,,,5,,48,0
11734,note_off,,,,,10,0,12,,,,13,,47,0
11734,note_off,,,,,10,0,11,,,,12,,35,0
11734,note_off,,,,,10,0,10,,,,11,,47,0
11736,note_on,,,,,2,0,12,,,,13,,48,96
11736,note_on,,,,,2,0,11,,,,12,,36,49
11736,note_on,,,,,2,0,10,,,,11,,48,49
11736,note_on,,,,,3,0,6,,,,5,,47,49
11746,note_off,,,,,10,0,12,,,,13,,48,0
11746,note_off,,,,,10,0,10,,,,11,,48,0
11746,note_off,,,,,10,0,11,,,,12,,36,0
11748,note_on,,,,,2,0,11,,,,12,,35,49
11748,note_on,,,,,2,0,12,,,,13,,47,96
11748,note_on,,,,,2,0,10,,,,11,,47,49
11754,note_off,,,,,42,0,1,,,,0,,67,0
11757,note_off,,,,,21,0,6,,,,5,,47,0
11758,note_off,,,,,10,0,12,,,,13,,47,0
11758,note_off,,,,,10,0,11,,,,12,,35,0
11758,note_off,,,,,10,0,10,,,,11,,47,0
11760,note_on,,,,,2,0,12,,,,13,,48,96
11760,note_on,,,,,3,0,6,,,,5,,48,49
11760,note_on,,,,,2,0,10,,,,11,,48,49
11760,note_on,,,,,6,0,1,,,,0,,67,127
11760,note_on,,,,,2,0,11,,,,12,,36,49
11770,note_off,,,,,10,0,12,,,,13,,48,0
11770,note_off,,,,,10,0,11,,,,12,,36,0
11770,note_off,,,,,10,0,10,,,,11,,48,0
11772,note_on,,,,,2,0,11,,,,12,,35,49
11772,note_on,,,,,2,0,10,,,,11,,47,49
11772,note_on,,,,,2,0,12,,,,13,,47,96
11781,note_off,,,,,21,0,6,,,,5,,48,0
11782,note_off,,,,,10,0,10,,,,11,,47,0
11782,note_off,,,,,10,0,11,,,,12,,35,0
11782,note_off,,,,,10,0,12,,,,13,,47,0
11784,note_on,,,,,2,0,11,,,,12,,36,49
11784,note_on,,,,,2,0,12,,,,13,,48,96
11784,note_on,,,,,2,0,10,,,,11,,48,49
11784,note_on,,,,,3,0,6,,,,5,,47,49
11794,note_off,,,,,10,0,12,,,,13,,48,0
11794,note_off,,,,,10,0,10,,,,11,,48,0
11794,note_off,,,,,10,0,11,,,,12,,36,0
11796,note_off,,,,,84,0,7,,,,6,,74,0
11796,note_off,,,,,0,0,12,,,,13,,71,0
11796,note_on,,,,,0,0,12,,,,13,,47,96
11796,note_on,,,,,2,0,10,,,,11,,47,49
11796,note_on,,,,,2,0,11,,,,12,,35,49
11796,note_off,,,,,180,0,13,,,,14,,67,0
11796,note_off,,,,,2,0,12,,,,13,,62,0
11796,note_off,,,,,180,0,5,,,,4,,67,0
11796,note_off,,,,,84,0,3,,,,2,,74,0
11796,note_off,,,,,84,0,8,,,,7,,74,0
11796,note_off,,,,,180,0,9,,,,8,,74,0
11796,note_off,,,,,180,0,4,,,,3,,74,0
11802,note_off,,,,,42,0,1,,,,0,,67,0
11805,note_off,,,,,21,0,6,,,,5,,47,0
11806,note_off,,,,,10,0,11,,,,12,,35,0
11806,note_off,,,,,10,0,10,,,,11,,47,0
11806,note_off,,,,,10,0,12,,,,13,,47,0
11808,note_on,,,,,2,0,12,,,,13,,67,96
11808,note_on,,,,,0,0,12,,,,13,,76,96
11808,note_on,,,,,0,0,12,,,,13,,48,96
11808,note_on,,,,,12,0,7,,,,6,,76,75
11808,note_on,,,,,12,0,5,,,,4,,67,62
11808,note_on,,,,,12,0,3,,,,2,,76,62
11808,note_on,,,,,3,0,6,,,,5,,48,49
11808,note_on,,,,,2,0,10,,,,11,,48,49
11808,note_on,,,,,12,0,4,,,,3,,72,62
11808,note_on,,,,,2,0,11,,,,12,,36,49
11808,note_on,,,,,12,0,13,,,,14,,67,75
11808,note_on,,,,,6,0,1,,,,0,,67,127
11808,note_on,,,,,12,0,8,,,,7,,76,75
11808,note_on,,,,,12,0,9,,,,8,,72,75
11850,note_off,,,,,42,0,1,,,,0,,67,0
11856,note_on,,,,,6,0,1,,,,0,,67,127
11892,note_off,,,,,84,0,7,,,,6,,76,0
11892,note_off,,,,,84,0,4,,,,3,,72,0
11892,note_off,,,,,84,0,6,,,,5,,48,0
11892,note_off,,,,,0,0,12,,,,13,,48,0
11892,note_off,,,,,84,0,10,,,,11,,48,0
11892,note_off,,,,,0,0,12,,,,13,,76,0
11892,note_off,,,,,84,0,12,,,,13,,67,0
11892,note_off,,,,,84,0,8,,,,7,,76,0
11892,note_off,,,,,84,0,9,,,,8,,72,0
11892,note_off,,,,,84,0,13,,,,14,,67,0
11892,note_off,,,,,84,0,5,,,,4,,67,0
11892,note_off,,,,,84,0,11,,,,12,,36,0
11892,note_off,,,,,84,0,3,,,,2,,76,0
11898,note_off,,,,,42,0,1,,,,0,,67,0
11904,note_on,,,,,12,0,12,,,,13,,71,96
11904,note_on,,,,,0,0,12,,,,13,,77,96
11904,note_on,,,,,204,0,2,,,,1,,67,127
11904,note_on,,,,,12,0,3,,,,2,,77,62
11904,note_on,,,,,12,0,9,,,,8,,71,75
11904,note_on,,,,,0,0,12,,,,13,,50,96
11904,note_on,,,,,12,0,7,,,,6,,77,75
11904,note_on,,,,,6,0,1,,,,0,,67,127
11904,note_on,,,,,12,0,5,,,,4,,62,62
11904,note_on,,,,,12,0,8,,,,7,,77,75
11904,note_on,,,,,12,0,13,,,,14,,62,75
11904,note_on,,,,,12,0,11,,,,12,,38,49
11904,note_on,,,,,12,0,10,,,,11,,50,49
11904,note_on,,,,,12,0,6,,,,5,,50,49
11904,note_on,,,,,12,0,4,,,,3,,71,62
11946,note_off,,,,,42,0,9,,,,8,,71,0
11946,note_off,,,,,42,0,4,,,,3,,71,0
11952,note_on,,,,,6,0,9,,,,8,,72,75
11952,note_on,,,,,6,0,4,,,,3,,72,62
11988,note_off,,,,,84,0,12,,,,13,,71,0
11988,note_off,,,,,84,0,7,,,,6,,77,0
11988,note_off,,,,,84,0,13,,,,14,,62,0
11988,note_off,,,,,84,0,6,,,,5,,50,0
11988,note_off,,,,,84,0,10,,,,11,,50,0
11988,note_off,,,,,84,0,5,,,,4,,62,0
11988,note_off,,,,,0,0,12,,,,13,,77,0
11988,note_off,,,,,0,0,12,,,,13,,50,0
11988,note_off,,,,,84,0,1,,,,0,,67,0
11988,note_off,,,,,84,0,2,,,,1,,67,0
11988,note_off,,,,,84,0,11,,,,12,,38,0
11988,note_off,,,,,84,0,8,,,,7,,77,0
11988,note_off,,,,,84,0,3,,,,2,,77,0
11994,note_off,,,,,42,0,9,,,,8,,72,0
11994,note_off,,,,,42,0,4,,,,3,,72,0
12000,note_on,,,,,12,0,11,,,,12,,36,49
12000,note_on,,,,,12,0,3,,,,2,,81,62
12000,note_on,,,,,12,0,7,,,,6,,81,75
12000,note_on,,,,,12,0,5,,,,4,,64,62
12000,note_on,,,,,12,0,13,,,,14,,64,75
12000,note_on,,,,,12,0,6,,,,5,,48,49
12000,note_on,,,,,12,0,12,,,,13,,69,96
12000,note_on,,,,,12,0,8,,,,7,,81,75
12000,note_on,,,,,0,0,12,,,,13,,76,96
12000,note_on,,,,,0,0,12,,,,13,,48,96
12000,note_on,,,,,6,0,4,,,,3,,74,62
12000,note_on,,,,,12,0,10,,,,11,,48,49
12000,note_on,,,,,6,0,9,,,,8,,74,75
12000,note_on,,,,,12,0,2,,,,1,,67,127
12010,note_off,,,,,10,0,9,,,,8,,74,0
12010,note_off,,,,,10,0,4,,,,3,,74,0
12012,note_on,,,,,2,0,9,,,,8,,72,75
12012,note_on,,,,,2,0,4,,,,3,,72,62
12022,note_off,,,,,10,0,4,,,,3,,72,0
12022,note_off,,,,,10,0,9,,,,8,,72,0
12024,note_on,,,,,2,0,9,,,,8,,74,75
12024,note_on,,,,,2,0,4,,,,3,,74,62
12034,note_off,,,,,10,0,4,,,,3,,74,0
12034,note_off,,,,,10,0,9,,,,8,,74,0
12036,note_on,,,,,2,0,4,,,,3,,72,62
12036,note_on,,,,,2,0,9,,,,8,,72,75
12042,note_off,,,,,42,0,12,,,,13,,48,0
12042,note_off,,,,,42,0,2,,,,1,,67,0
12042,note_off,,,,,42,0,11,,,,12,,36,0
12042,note_off,,,,,42,0,10,,,,11,,48,0
12042,note_off,,,,,42,0,6,,,,5,,48,0
12046,note_off,,,,,10,0,4,,,,3,,72,0
12046,note_off,,,,,10,0,9,,,,8,,72,0
12048,note_on,,,,,6,0,2,,,,1,,67,127
12048,note_on,,,,,6,0,10,,,,11,,47,49
12048,note_on,,,,,6,0,12,,,,13,,47,96
12048,note_on,,,,,6,0,6,,,,5,,47,49
12048,note_on,,,,,2,0,9,,,,8,,74,75
12048,note_on,,,,,2,0,4,,,,3,,74,62
12048,note_on,,,,,6,0,11,,,,12,,35,49
12058,note_off,,,,,10,0,9,,,,8,,74,0
12058,note_off,,,,,10,0,4,,,,3,,74,0
12060,note_on,,,,,2,0,4,,,,3,,72,62
12060,note_on,,,,,2,0,9,,,,8,,72,75
12070,note_off,,,,,10,0,9,,,,8,,72,0
12070,note_off,,,,,10,0,4,,,,3,,72,0
12072,note_on,,,,,2,0,4,,,,3,,74,62
12072,note_on,,,,,2,0,9,,,,8,,74,75
12082,note_off,,,,,10,0,4,,,,3,,74,0
12082,note_off,,,,,10,0,9,,,,8,,74,0
12084,note_on,,,,,2,0,9,,,,8,,72,75
12084,note_off,,,,,36,0,12,,,,13,,69,0
12084,note_off,,,,,0,0,12,,,,13,,76,0
12084,note_off,,,,,84,0,5,,,,4,,64,0
12084,note_off,,,,,84,0,13,,,,14,,64,0
12084,note_on,,,,,2,0,4,,,,3,,72,62
12090,note_off,,,,,42,0,10,,,,11,,47,0
12090,note_off,,,,,42,0,2,,,,1,,67,0
12090,note_off,,,,,6,0,12,,,,13,,47,0
12090,note_off,,,,,42,0,11,,,,12,,35,0
12090,note_off,,,,,42,0,6,,,,5,,47,0
12094,note_off,,,,,10,0,9,,,,8,,72,0
12094,note_off,,,,,10,0,4,,,,3,,72,0
12096,note_on,,,,,12,0,5,,,,4,,60,62
12096,note_on,,,,,0,0,12,,,,13,,48,96
12096,note_on,,,,,12,0,13,,,,14,,60,75
12096,note_on,,,,,0,0,12,,,,13,,72,96
12096,note_on,,,,,6,0,12,,,,13,,69,96
12096,note_on,,,,,6,0,2,,,,1,,67,127
12096,note_on,,,,,2,0,9,,,,8,,74,75
12096,note_on,,,,,6,0,11,,,,12,,36,49
12096,note_on,,,,,6,0,10,,,,11,,48,49
12096,note_on,,,,,2,0,4,,,,3,,74,62
12096,note_on,,,,,6,0,6,,,,5,,48,49
12106,note_off,,,,,10,0,9,,,,8,,74,0
12106,note_off,,,,,10,0,4,,,,3,,74,0
12108,note_on,,,,,2,0,4,,,,3,,72,62
12108,note_on,,,,,2,0,9,,,,8,,72,75
12118,note_off,,,,,10,0,4,,,,3,,72,0
12118,note_off,,,,,10,0,9,,,,8,,72,0
12120,note_on,,,,,2,0,9,,,,8,,74,75
12120,note_on,,,,,2,0,4,,,,3,,74,62
12130,note_off,,,,,10,0,9,,,,8,,74,0
12130,note_off,,,,,10,0,4,,,,3,,74,0
12132,note_on,,,,,2,0,9,,,,8,,72,75
12132,note_on,,,,,2,0,4,,,,3,,72,62
12138,note_off,,,,,42,0,2,,,,1,,67,0
12142,note_off,,,,,10,0,9,,,,8,,72,0
12142,note_off,,,,,10,0,4,,,,3,,72,0
12144,note_on,,,,,2,0,9,,,,8,,71,75
12144,note_on,,,,,2,0,4,,,,3,,71,62
12144,note_on,,,,,6,0,2,,,,1,,67,127
12165,note_off,,,,,21,0,4,,,,3,,71,0
12165,note_off,,,,,21,0,9,,,,8,,71,0
12168,note_on,,,,,3,0,9,,,,8,,72,75
12168,note_on,,,,,3,0,4,,,,3,,72,62
12180,note_off,,,,,84,0,10,,,,11,,48,0
12180,note_off,,,,,180,0,8,,,,7,,81,0
12180,note_off,,,,,0,0,12,,,,13,,72,0
12180,note_off,,,,,84,0,12,,,,13,,69,0
12180,note_off,,,,,0,0,12,,,,13,,48,0
12180,note_off,,,,,180,0,7,,,,6,,81,0
12180,note_off,,,,,84,0,6,,,,5,,48,0
12180,note_off,,,,,84,0,11,,,,12,,36,0
12180,note_off,,,,,84,0,13,,,,14,,60,0
12180,note_off,,,,,84,0,5,,,,4,,60,0
12180,note_off,,,,,180,0,3,,,,2,,81,0
12186,note_off,,,,,42,0,2,,,,1,,67,0
12189,note_off,,,,,21,0,9,,,,8,,72,0
12189,note_off,,,,,21,0,4,,,,3,,72,0
12192,note_on,,,,,0,0,12,,,,13,,74,96
12192,note_on,,,,,12,0,11,,,,12,,35,49
12192,note_on,,,,,12,0,8,,,,7,,77,75
12192,note_on,,,,,12,0,10,,,,11,,47,49
12192,note_on,,,,,6,0,2,,,,1,,67,127
12192,note_on,,,,,12,0,7,,,,6,,77,75
12192,note_on,,,,,12,0,12,,,,13,,67,96
12192,note_on,,,,,12,0,5,,,,4,,67,62
12192,note_on,,,,,204,0,1,,,,0,,67,127
12192,note_on,,,,,12,0,6,,,,5,,47,49
12192,note_on,,,,,3,0,4,,,,3,,74,62
12192,note_on,,,,,3,0,9,,,,8,,74,75
12192,note_on,,,,,12,0,3,,,,2,,77,62
12192,note_on,,,,,0,0,12,,,,13,,47,96
12192,note_on,,,,,12,0,13,,,,14,,67,75
12276,note_off,,,,,84,0,1,,,,0,,67,0
12276,note_off,,,,,84,0,4,,,,3,,74,0
12276,note_off,,,,,84,0,10,,,,11,,47,0
12276,note_off,,,,,84,0,2,,,,1,,67,0
12276,note_off,,,,,84,0,9,,,,8,,74,0
12276,note_off,,,,,84,0,8,,,,7,,77,0
12276,note_off,,,,,84,0,11,,,,12,,35,0
12276,note_off,,,,,0,0,12,,,,13,,74,0
12276,note_off,,,,,84,0,6,,,,5,,47,0
12276,note_off,,,,,84,0,7,,,,6,,77,0
12276,note_off,,,,,84,0,12,,,,13,,67,0
12276,note_off,,,,,84,0,3,,,,2,,77,0
12276,note_off,,,,,0,0,12,,,,13,,47,0
12288,note_on,,,,,12,0,7,,,,6,,76,75
12288,note_on,,,,,12,0,1,,,,0,,67,127
12288,note_on,,,,,12,0,9,,,,8,,72,75
12288,note_on,,,,,12,0,3,,,,2,,76,62
12288,note_on,,,,,0,0,12,,,,13,,48,96
12288,note_on,,,,,0,0,12,,,,13,,76,96
12288,note_on,,,,,12,0,6,,,,5,,48,49
12288,note_on,,,,,12,0,12,,,,13,,67,96
12288,note_on,,,,,12,0,4,,,,3,,72,62
12288,note_on,,,,,12,0,11,,,,12,,36,49
12288,note_on,,,,,12,0,8,,,,7,,76,75
12288,note_on,,,,,12,0,10,,,,11,,48,49
12330,note_off,,,,,42,0,6,,,,5,,48,0
12330,note_off,,,,,42,0,11,,,,12,,36,0
12330,note_off,,,,,42,0,12,,,,13,,48,0
12330,note_off,,,,,42,0,7,,,,6,,76,0
12330,note_off,,,,,42,0,10,,,,11,,48,0
12330,note_off,,,,,42,0,8,,,,7,,76,0
12330,note_off,,,,,42,0,1,,,,0,,67,0
12330,note_off,,,,,42,0,3,,,,2,,76,0
12336,note_on,,,,,6,0,10,,,,11,,47,49
12336,note_on,,,,,6,0,8,,,,7,,74,75
12336,note_on,,,,,6,0,1,,,,0,,67,127
12336,note_on,,,,,6,0,6,,,,5,,47,49
12336,note_on,,,,,6,0,12,,,,13,,47,96
12336,note_on,,,,,6,0,7,,,,6,,74,75
12336,note_on,,,,,6,0,11,,,,12,,35,49
12336,note_on,,,,,6,0,3,,,,2,,74,62
12372,note_off,,,,,180,0,13,,,,14,,67,0
12372,note_off,,,,,180,0,5,,,,4,,67,0
12372,note_off,,,,,84,0,9,,,,8,,72,0
12372,note_off,,,,,0,0,12,,,,13,,76,0
12372,note_off,,,,,36,0,12,,,,13,,67,0
12372,note_off,,,,,84,0,4,,,,3,,72,0
12378,note_off,,,,,6,0,12,,,,13,,47,0
12378,note_off,,,,,42,0,10,,,,11,,47,0
12378,note_off,,,,,42,0,1,,,,0,,67,0
12378,note_off,,,,,42,0,7,,,,6,,74,0
12378,note_off,,,,,42,0,11,,,,12,,35,0
12378,note_off,,,,,42,0,3,,,,2,,74,0
12378,note_off,,,,,42,0,6,,,,5,,47,0
12378,note_off,,,,,42,0,8,,,,7,,74,0
12384,note_on,,,,,6,0,1,,,,0,,67,127
12384,note_on,,,,,6,0,10,,,,11,,45,49
12384,note_on,,,,,12,0,9,,,,8,,71,75
12384,note_on,,,,,6,0,3,,,,2,,79,62
12384,note_on,,,,,12,0,4,,,,3,,71,62
12384,note_on,,,,,6,0,7,,,,6,,79,75
12384,note_on,,,,,6,0,8,,,,7,,79,75
12384,note_on,,,,,6,0,12,,,,13,,62,96
12384,note_on,,,,,0,0,12,,,,13,,71,96
12384,note_on,,,,,0,0,12,,,,13,,45,96
12384,note_on,,,,,6,0,6,,,,5,,45,49
12384,note_on,,,,,6,0,11,,,,12,,33,49
12384,note_on,,,,,12,0,13,,,,14,,67,75
12384,note_on,,,,,12,0,5,,,,4,,67,62
12426,note_off,,,,,42,0,12,,,,13,,45,0
12426,note_off,,,,,42,0,6,,,,5,,45,0
12426,note_off,,,,,42,0,11,,,,12,,33,0
12426,note_off,,,,,42,0,10,,,,11,,45,0
12426,note_off,,,,,42,0,1,,,,0,,67,0
12432,note_on,,,,,6,0,1,,,,0,,67,127
12432,note_on,,,,,6,0,6,,,,5,,43,49
12432,note_on,,,,,6,0,11,,,,12,,31,49
12432,note_on,,,,,6,0,10,,,,11,,43,49
12432,note_on,,,,,6,0,12,,,,13,,43,96
12468,note_off,,,,,84,0,7,,,,6,,79,0
12468,note_off,,,,,84,0,13,,,,14,,67,0
12468,note_off,,,,,84,0,4,,,,3,,71,0
12468,note_off,,,,,84,0,9,,,,8,,71,0
12468,note_off,,,,,84,0,3,,,,2,,79,0
12468,note_off,,,,,0,0,12,,,,13,,71,0
12468,note_off,,,,,36,0,12,,,,13,,62,0
12468,note_off,,,,,84,0,8,,,,7,,79,0
12468,note_off,,,,,84,0,5,,,,4,,67,0
12474,note_off,,,,,42,0,6,,,,5,,43,0
12474,note_off,,,,,6,0,12,,,,13,,43,0
12474,note_off,,,,,42,0,10,,,,11,,43,0
12474,note_off,,,,,42,0,1,,,,0,,67,0
12474,note_off,,,,,42,0,11,,,,12,,31,0
12480,note_on,,,,,12,0,8,,,,7,,76,75
12480,note_on,,,,,12,0,5,,,,4,,67,62
12480,note_on,,,,,6,0,1,,,,0,,67,127
12480,note_on,,,,,12,0,9,,,,8,,72,75
12480,note_on,,,,,204,0,2,,,,1,,67,127
12480,note_on,,,,,0,0,12,,,,13,,76,96
12480,note_on,,,,,12,0,4,,,,3,,72,62
12480,note_on,,,,,12,0,13,,,,14,,67,75
12480,note_on,,,,,6,0,6,,,,5,,48,49
12480,note_on,,,,,12,0,7,,,,6,,76,75
12480,note_on,,,,,0,0,12,,,,13,,48,96
12480,note_on,,,,,6,0,10,,,,11,,48,49
12480,note_on,,,,,6,0,12,,,,13,,67,96
12480,note_on,,,,,12,0,3,,,,2,,76,62
12480,note_on,,,,,6,0,11,,,,12,,36,49
12564,note_off,,,,,84,0,11,,,,12,,36,0
12564,note_off,,,,,0,0,12,,,,13,,48,0
12564,note_off,,,,,84,0,6,,,,5,,48,0
12564,note_off,,,,,0,0,12,,,,13,,76,0
12564,note_off,,,,,84,0,10,,,,11,,48,0
12564,note_off,,,,,84,0,1,,,,0,,67,0
12564,note_off,,,,,84,0,12,,,,13,,67,0
12564,note_off,,,,,84,0,2,,,,1,,67,0
12576,note_on,,,,,12,0,12,,,,13,,65,96
12576,note_on,,,,,12,0,2,,,,1,,67,127
12576,note_on,,,,,12,0,10,,,,11,,46,49
12576,note_on,,,,,0,0,12,,,,13,,74,96
12576,note_on,,,,,12,0,6,,,,5,,46,49
12576,note_on,,,,,12,0,11,,,,12,,34,49
12576,note_on,,,,,0,0,12,,,,13,,46,96
12612,note_off,,,,,132,0,3,,,,2,,76,0
12612,note_off,,,,,132,0,8,,,,7,,76,0
12612,note_off,,,,,132,0,7,,,,6,,76,0
12618,note_off,,,,,42,0,11,,,,12,,34,0
12618,note_off,,,,,42,0,10,,,,11,,46,0
12618,note_off,,,,,42,0,6,,,,5,,46,0
12618,note_off,,,,,42,0,2,,,,1,,67,0
12618,note_off,,,,,42,0,12,,,,13,,46,0
12624,note_on,,,,,12,0,8,,,,7,,77,75
12624,note_on,,,,,12,0,3,,,,2,,77,62
12624,note_on,,,,,6,0,11,,,,12,,33,49
12624,note_on,,,,,6,0,2,,,,1,,67,127
12624,note_on,,,,,6,0,6,,,,5,,45,49
12624,note_on,,,,,6,0,12,,,,13,,45,96
12624,note_on,,,,,12,0,7,,,,6,,77,75
12624,note_on,,,,,6,0,10,,,,11,,45,49
12660,note_off,,,,,0,0,12,,,,13,,74,0
12660,note_off,,,,,36,0,12,,,,13,,65,0
12666,note_off,,,,,42,0,6,,,,5,,45,0
12666,note_off,,,,,42,0,3,,,,2,,77,0
12666,note_off,,,,,6,0,12,,,,13,,45,0
12666,note_off,,,,,42,0,10,,,,11,,45,0
12666,note_off,,,,,42,0,7,,,,6,,77,0
12666,note_off,,,,,42,0,11,,,,12,,33,0
12666,note_off,,,,,42,0,8,,,,7,,77,0
12666,note_off,,,,,42,0,2,,,,1,,67,0
12672,note_on,,,,,6,0,6,,,,5,,43,49
12672,note_on,,,,,6,0,3,,,,2,,79,62
12672,note_on,,,,,0,0,12,,,,13,,43,96
12672,note_on,,,,,0,0,12,,,,13,,74,96
12672,note_on,,,,,6,0,8,,,,7,,79,75
12672,note_on,,,,,6,0,12,,,,13,,65,96
12672,note_on,,,,,6,0,2,,,,1,,67,127
12672,note_on,,,,,6,0,10,,,,11,,43,49
12672,note_on,,,,,6,0,7,,,,6,,79,75
12672,note_on,,,,,6,0,11,,,,12,,31,49
12682,note_off,,,,,10,0,8,,,,7,,79,0
12682,note_off,,,,,10,0,3,,,,2,,79,0
12682,note_off,,,,,10,0,7,,,,6,,79,0
12684,note_on,,,,,2,0,8,,,,7,,77,75
12684,note_on,,,,,2,0,3,,,,2,,77,62
12684,note_on,,,,,2,0,7,,,,6,,77,75
12694,note_off,,,,,10,0,7,,,,6,,77,0
12694,note_off,,,,,10,0,3,,,,2,,77,0
12694,note_off,,,,,10,0,8,,,,7,,77,0
12696,note_on,,,,,2,0,7,,,,6,,79,75
12696,note_on,,,,,2,0,8,,,,7,,79,75
12696,note_on,,,,,2,0,3,,,,2,,79,62
12706,note_off,,,,,10,0,8,,,,7,,79,0
12706,note_off,,,,,10,0,7,,,,6,,79,0
12706,note_off,,,,,10,0,3,,,,2,,79,0
12708,note_on,,,,,2,0,8,,,,7,,77,75
12708,note_on,,,,,2,0,7,,,,6,,77,75
12708,note_on,,,,,2,0,3,,,,2,,77,62
12714,note_off,,,,,42,0,6,,,,5,,43,0
12714,note_off,,,,,42,0,12,,,,13,,43,0
12714,note_off,,,,,42,0,2,,,,1,,67,0
12714,note_off,,,,,42,0,11,,,,12,,31,0
12714,note_off,,,,,42,0,10,,,,11,,43,0
12718,note_off,,,,,10,0,8,,,,7,,77,0
12718,note_off,,,,,10,0,3,,,,2,,77,0
12718,note_off,,,,,10,0,7,,,,6,,77,0
12720,note_on,,,,,2,0,7,,,,6,,79,75
12720,note_on,,,,,6,0,2,,,,1,,67,127
12720,note_on,,,,,6,0,12,,,,13,,41,96
12720,note_on,,,,,6,0,10,,,,11,,41,49
12720,note_on,,,,,2,0,3,,,,2,,79,62
12720,note_on,,,,,6,0,6,,,,5,,41,49
12720,note_on,,,,,6,0,11,,,,12,,29,49
12720,note_on,,,,,2,0,8,,,,7,,79,75
12730,note_off,,,,,10,0,7,,,,6,,79,0
12730,note_off,,,,,10,0,3,,,,2,,79,0
12730,note_off,,,,,10,0,8,,,,7,,79,0
12732,note_on,,,,,2,0,3,,,,2,,77,62
12732,note_on,,,,,2,0,7,,,,6,,77,75
12732,note_on,,,,,2,0,8,,,,7,,77,75
12742,note_off,,,,,10,0,8,,,,7,,77,0
12742,note_off,,,,,10,0,7,,,,6,,77,0
12742,note_off,,,,,10,0,3,,,,2,,77,0
12744,note_on,,,,,2,0,3,,,,2,,76,62
12744,note_on,,,,,2,0,8,,,,7,,76,75
12744,note_on,,,,,2,0,7,,,,6,,76,75
12754,note_off,,,,,10,0,7,,,,6,,76,0
12754,note_off,,,,,10,0,3,,,,2,,76,0
12754,note_off,,,,,10,0,8,,,,7,,76,0
12756,note_off,,,,,276,0,5,,,,4,,67,0
12756,note_off,,,,,276,0,4,,,,3,,72,0
12756,note_on,,,,,2,0,7,,,,6,,77,75
12756,note_off,,,,,276,0,13,,,,14,,67,0
12756,note_on,,,,,2,0,3,,,,2,,77,62
12756,note_off,,,,,0,0,12,,,,13,,74,0
12756,note_off,,,,,36,0,12,,,,13,,65,0
12756,note_on,,,,,2,0,8,,,,7,,77,75
12756,note_off,,,,,276,0,9,,,,8,,72,0
12762,note_off,,,,,42,0,10,,,,11,,41,0
12762,note_off,,,,,42,0,2,,,,1,,67,0
12762,note_off,,,,,42,0,11,,,,12,,29,0
12762,note_off,,,,,6,0,12,,,,13,,41,0
12762,note_off,,,,,42,0,6,,,,5,,41,0
12766,note_off,,,,,10,0,8,,,,7,,77,0
12766,note_off,,,,,10,0,3,,,,2,,77,0
12766,note_off,,,,,10,0,7,,,,6,,77,0
12768,note_on,,,,,2,0,8,,,,7,,79,75
12768,note_on,,,,,6,0,11,,,,12,,28,49
12768,note_on,,,,,0,0,12,,,,13,,72,96
12768,note_on,,,,,6,0,12,,,,13,,67,96
12768,note_on,,,,,12,0,4,,,,3,,72,62
12768,note_on,,,,,204,0,1,,,,0,,72,127
12768,note_on,,,,,12,0,9,,,,8,,72,75
12768,note_on,,,,,2,0,7,,,,6,,79,75
12768,note_on,,,,,6,0,6,,,,5,,40,49
12768,note_on,,,,,0,0,12,,,,13,,40,96
12768,note_on,,,,,6,0,2,,,,1,,67,127
12768,note_on,,,,,12,0,13,,,,14,,67,75
12768,note_on,,,,,12,0,5,,,,4,,67,62
12768,note_on,,,,,6,0,10,,,,11,,40,49
12768,note_on,,,,,2,0,3,,,,2,,79,62
12810,note_off,,,,,42,0,8,,,,7,,79,0
12810,note_off,,,,,42,0,13,,,,14,,67,0
12810,note_off,,,,,42,0,7,,,,6,,79,0
12810,note_off,,,,,42,0,3,,,,2,,79,0
12816,note_on,,,,,6,0,3,,,,2,,81,62
12816,note_on,,,,,6,0,7,,,,6,,81,75
12816,note_on,,,,,6,0,8,,,,7,,81,75
12816,note_on,,,,,6,0,13,,,,14,,65,75
12852,note_off,,,,,84,0,5,,,,4,,67,0
12852,note_off,,,,,84,0,10,,,,11,,40,0
12852,note_off,,,,,84,0,11,,,,12,,28,0
12852,note_off,,,,,84,0,12,,,,13,,67,0
12852,note_off,,,,,84,0,6,,,,5,,40,0
12852,note_off,,,,,0,0,12,,,,13,,40,0
12852,note_off,,,,,0,0,12,,,,13,,72,0
12852,note_off,,,,,84,0,2,,,,1,,67,0
12852,note_off,,,,,84,0,1,,,,0,,72,0
12858,note_off,,,,,42,0,13,,,,14,,65,0
12858,note_off,,,,,42,0,8,,,,7,,81,0
12858,note_off,,,,,42,0,3,,,,2,,81,0
12858,note_off,,,,,42,0,7,,,,6,,81,0
12864,note_on,,,,,12,0,6,,,,5,,41,49
12864,note_on,,,,,12,0,11,,,,12,,29,49
12864,note_on,,,,,6,0,7,,,,6,,82,75
12864,note_on,,,,,12,0,10,,,,11,,41,49
12864,note_on,,,,,6,0,13,,,,14,,67,75
12864,note_on,,,,,12,0,1,,,,0,,72,127
12864,note_on,,,,,12,0,5,,,,4,,67,62
12864,note_on,,,,,6,0,8,,,,7,,82,75
12864,note_on,,,,,0,0,12,,,,13,,41,96
12864,note_on,,,,,6,0,3,,,,2,,82,62
12864,note_on,,,,,12,0,12,,,,13,,60,96
12864,note_on,,,,,0,0,12,,,,13,,69,96
12874,note_off,,,,,10,0,13,,,,14,,67,0
12874,note_off,,,,,10,0,5,,,,4,,67,0
12874,note_off,,,,,10,0,7,,,,6,,82,0
12874,note_off,,,,,10,0,3,,,,2,,82,0
12874,note_off,,,,,10,0,8,,,,7,,82,0
12876,note_on,,,,,2,0,3,,,,2,,81,62
12876,note_on,,,,,2,0,5,,,,4,,65,62
12876,note_on,,,,,2,0,13,,,,14,,65,75
12876,note_on,,,,,2,0,7,,,,6,,81,75
12876,note_on,,,,,2,0,8,,,,7,,81,75
12886,note_off,,,,,10,0,8,,,,7,,81,0
12886,note_off,,,,,10,0,13,,,,14,,65,0
12886,note_off,,,,,10,0,7,,,,6,,81,0
12886,note_off,,,,,10,0,5,,,,4,,65,0
12886,note_off,,,,,10,0,3,,,,2,,81,0
12888,note_on,,,,,2,0,5,,,,4,,67,62
12888,note_on,,,,,2,0,13,,,,14,,67,75
12888,note_on,,,,,2,0,8,,,,7,,82,75
12888,note_on,,,,,2,0,3,,,,2,,82,62
12888,note_on,,,,,2,0,7,,,,6,,82,75
12898,note_off,,,,,10,0,13,,,,14,,67,0
12898,note_off,,,,,10,0,5,,,,4,,67,0
12898,note_off,,,,,10,0,7,,,,6,,82,0
12898,note_off,,,,,10,0,3,,,,2,,82,0
12898,note_off,,,,,10,0,8,,,,7,,82,0
12900,note_on,,,,,2,0,13,,,,14,,65,75
12900,note_on,,,,,2,0,5,,,,4,,65,62
12900,note_on,,,,,2,0,3,,,,2,,81,62
12900,note_on,,,,,2,0,8,,,,7,,81,75
12900,note_on,,,,,2,0,7,,,,6,,81,75
12906,note_off,,,,,42,0,6,,,,5,,41,0
12906,note_off,,,,,42,0,10,,,,11,,41,0
12906,note_off,,,,,42,0,1,,,,0,,72,0
12906,note_off,,,,,42,0,11,,,,12,,29,0
12906,note_off,,,,,42,0,12,,,,13,,41,0
12910,note_off,,,,,10,0,3,,,,2,,81,0
12910,note_off,,,,,10,0,13,,,,14,,65,0
12910,note_off,,,,,10,0,7,,,,6,,81,0
12910,note_off,,,,,10,0,5,,,,4,,65,0
12910,note_off,,,,,10,0,8,,,,7,,81,0
12912,note_on,,,,,6,0,10,,,,11,,40,49
12912,note_on,,,,,2,0,7,,,,6,,82,75
12912,note_on,,,,,2,0,5,,,,4,,67,62
12912,note_on,,,,,6,0,6,,,,5,,40,49
12912,note_on,,,,,6,0,11,,,,12,,28,49
12912,note_on,,,,,2,0,3,,,,2,,82,62
12912,note_on,,,,,2,0,8,,,,7,,82,75
12912,note_on,,,,,6,0,12,,,,13,,40,96
12912,note_on,,,,,6,0,1,,,,0,,72,127
12912,note_on,,,,,2,0,13,,,,14,,67,75
12922,note_off,,,,,10,0,13,,,,14,,67,0
12922,note_off,,,,,10,0,5,,,,4,,67,0
12922,note_off,,,,,10,0,7,,,,6,,82,0
12922,note_off,,,,,10,0,8,,,,7,,82,0
12922,note_off,,,,,10,0,3,,,,2,,82,0
12924,note_on,,,,,2,0,3,,,,2,,81,62
12924,note_on,,,,,2,0,5,,,,4,,65,62
12924,note_on,,,,,2,0,7,,,,6,,81,75
12924,note_on,,,,,2,0,8,,,,7,,81,75
12924,note_on,,,,,2,0,13,,,,14,,65,75
12934,note_off,,,,,10,0,13,,,,14,,65,0
12934,note_off,,,,,10,0,7,,,,6,,81,0
12934,note_off,,,,,10,0,3,,,,2,,81,0
12934,note_off,,,,,10,0,5,,,,4,,65,0
12934,note_off,,,,,10,0,8,,,,7,,81,0
12936,note_on,,,,,2,0,8,,,,7,,82,75
12936,note_on,,,,,2,0,7,,,,6,,82,75
12936,note_on,,,,,2,0,5,,,,4,,67,62
12936,note_on,,,,,2,0,13,,,,14,,67,75
12936,note_on,,,,,2,0,3,,,,2,,82,62
12946,note_off,,,,,10,0,7,,,,6,,82,0
12946,note_off,,,,,10,0,3,,,,2,,82,0
12946,note_off,,,,,10,0,8,,,,7,,82,0
12946,note_off,,,,,10,0,13,,,,14,,67,0
12946,note_off,,,,,10,0,5,,,,4,,67,0
12948,note_on,,,,,2,0,7,,,,6,,81,75
12948,note_on,,,,,2,0,8,,,,7,,81,75
12948,note_off,,,,,180,0,9,,,,8,,72,0
12948,note_on,,,,,2,0,5,,,,4,,65,62
12948,note_off,,,,,0,0,12,,,,13,,69,0
12948,note_off,,,,,36,0,12,,,,13,,60,0
12948,note_on,,,,,2,0,13,,,,14,,65,75
12948,note_on,,,,,2,0,3,,,,2,,81,62
12948,note_off,,,,,180,0,4,,,,3,,72,0
12954,note_off,,,,,42,0,1,,,,0,,72,0
12954,note_off,,,,,42,0,10,,,,11,,40,0
12954,note_off,,,,,42,0,6,,,,5,,40,0
12954,note_off,,,,,6,0,12,,,,13,,40,0
12954,note_off,,,,,42,0,11,,,,12,,28,0
12958,note_off,,,,,10,0,5,,,,4,,65,0
12958,note_off,,,,,10,0,7,,,,6,,81,0
12958,note_off,,,,,10,0,3,,,,2,,81,0
12958,note_off,,,,,10,0,13,,,,14,,65,0
12958,note_off,,,,,10,0,8,,,,7,,81,0
12960,note_on,,,,,2,0,5,,,,4,,67,62
12960,note_on,,,,,6,0,1,,,,0,,72,127
12960,note_on,,,,,2,0,7,,,,6,,82,75
12960,note_on,,,,,2,0,8,,,,7,,82,75
12960,note_on,,,,,12,0,4,,,,3,,77,62
12960,note_on,,,,,12,0,9,,,,8,,77,75
12960,note_on,,,,,6,0,6,,,,5,,38,49
12960,note_on,,,,,6,0,12,,,,13,,69,96
12960,note_on,,,,,0,0,12,,,,13,,77,96
12960,note_on,,,,,0,0,12,,,,13,,38,96
12960,note_on,,,,,6,0,10,,,,11,,38,49
12960,note_on,,,,,6,0,11,,,,12,,26,49
12960,note_on,,,,,2,0,3,,,,2,,82,62
12960,note_on,,,,,2,0,13,,,,14,,67,75
12970,note_off,,,,,10,0,7,,,,6,,82,0
12970,note_off,,,,,10,0,3,,,,2,,82,0
12970,note_off,,,,,10,0,8,,,,7,,82,0
12970,note_off,,,,,10,0,5,,,,4,,67,0
12970,note_off,,,,,10,0,13,,,,14,,67,0
12972,note_on,,,,,2,0,7,,,,6,,81,75
12972,note_on,,,,,2,0,13,,,,14,,65,75
12972,note_on,,,,,2,0,8,,,,7,,81,75
12972,note_on,,,,,2,0,3,,,,2,,81,62
12972,note_on,,,,,2,0,5,,,,4,,65,62
12982,note_off,,,,,10,0,5,,,,4,,65,0
12982,note_off,,,,,10,0,13,,,,14,,65,0
12982,note_off,,,,,10,0,8,,,,7,,81,0
12982,note_off,,,,,10,0,3,,,,2,,81,0
12982,note_off,,,,,10,0,7,,,,6,,81,0
12984,note_on,,,,,2,0,8,,,,7,,82,75
12984,note_on,,,,,2,0,3,,,,2,,82,62
12984,note_on,,,,,2,0,5,,,,4,,67,62
12984,note_on,,,,,2,0,13,,,,14,,67,75
12984,note_on,,,,,2,0,7,,,,6,,82,75
12994,note_off,,,,,10,0,5,,,,4,,67,0
12994,note_off,,,,,10,0,13,,,,14,,67,0
12994,note_off,,,,,10,0,3,,,,2,,82,0
12994,note_off,,,,,10,0,8,,,,7,,82,0
12994,note_off,,,,,10,0,7,,,,6,,82,0
12996,note_on,,,,,2,0,13,,,,14,,65,75
12996,note_on,,,,,2,0,3,,,,2,,81,62
12996,note_on,,,,,2,0,7,,,,6,,81,75
12996,note_on,,,,,2,0,5,,,,4,,65,62
12996,note_on,,,,,2,0,8,,,,7,,81,75
13002,note_off,,,,,42,0,10,,,,11,,38,0
13002,note_off,,,,,42,0,12,,,,13,,38,0
13002,note_off,,,,,42,0,1,,,,0,,72,0
13002,note_off,,,,,42,0,6,,,,5,,38,0
13002,note_off,,,,,42,0,11,,,,12,,26,0
13006,note_off,,,,,10,0,5,,,,4,,65,0
13006,note_off,,,,,10,0,7,,,,6,,81,0
13006,note_off,,,,,10,0,13,,,,14,,65,0
13006,note_off,,,,,10,0,3,,,,2,,81,0
13006,note_off,,,,,10,0,8,,,,7,,81,0
13008,note_on,,,,,6,0,11,,,,12,,28,49
13008,note_on,,,,,2,0,8,,,,7,,79,75
13008,note_on,,,,,2,0,13,,,,14,,64,75
13008,note_on,,,,,6,0,12,,,,13,,40,96
13008,note_on,,,,,2,0,7,,,,6,,79,75
13008,note_on,,,,,6,0,6,,,,5,,40,49
13008,note_on,,,,,6,0,1,,,,0,,72,127
13008,note_on,,,,,6,0,10,,,,11,,40,49
13008,note_on,,,,,2,0,5,,,,4,,64,62
13008,note_on,,,,,2,0,3,,,,2,,79,62
13029,note_off,,,,,21,0,7,,,,6,,79,0
13029,note_off,,,,,21,0,5,,,,4,,64,0
13029,note_off,,,,,21,0,3,,,,2,,79,0
13029,note_off,,,,,21,0,13,,,,14,,64,0
13029,note_off,,,,,21,0,8,,,,7,,79,0
13032,note_on,,,,,3,0,3,,,,2,,81,62
13032,note_on,,,,,3,0,5,,,,4,,65,62
13032,note_on,,,,,3,0,7,,,,6,,81,75
13032,note_on,,,,,3,0,13,,,,14,,65,75
13032,note_on,,,,,3,0,8,,,,7,,81,75
13044,note_off,,,,,84,0,9,,,,8,,77,0
13044,note_off,,,,,36,0,12,,,,13,,69,0
13044,note_off,,,,,0,0,12,,,,13,,77,0
13044,note_off,,,,,84,0,4,,,,3,,77,0
13050,note_off,,,,,6,0,12,,,,13,,40,0
13050,note_off,,,,,42,0,10,,,,11,,40,0
13050,note_off,,,,,42,0,6,,,,5,,40,0
13050,note_off,,,,,42,0,1,,,,0,,72,0
13050,note_off,,,,,42,0,11,,,,12,,28,0
13053,note_off,,,,,21,0,7,,,,6,,81,0
13053,note_off,,,,,21,0,8,,,,7,,81,0
13053,note_off,,,,,21,0,3,,,,2,,81,0
13053,note_off,,,,,21,0,5,,,,4,,65,0
13053,note_off,,,,,21,0,13,,,,14,,65,0
13056,note_on,,,,,6,0,11,,,,12,,24,49
13056,note_on,,,,,204,0,2,,,,1,,67,127
13056,note_on,,,,,6,0,6,,,,5,,36,49
13056,note_on,,,,,6,0,10,,,,11,,36,49
13056,note_on,,,,,3,0,13,,,,14,,67,75
13056,note_on,,,,,12,0,4,,,,3,,76,62
13056,note_on,,,,,6,0,1,,,,0,,72,127
13056,note_on,,,,,0,0,12,,,,13,,36,96
13056,note_on,,,,,0,0,12,,,,13,,76,96
13056,note_on,,,,,6,0,12,,,,13,,67,96
13056,note_on,,,,,3,0,7,,,,6,,82,75
13056,note_on,,,,,3,0,5,,,,4,,67,62
13056,note_on,,,,,3,0,3,,,,2,,82,62
13056,note_on,,,,,3,0,8,,,,7,,82,75
13056,note_on,,,,,12,0,9,,,,8,,76,75
13140,note_off,,,,,84,0,4,,,,3,,76,0
13140,note_off,,,,,84,0,8,,,,7,,82,0
13140,note_off,,,,,84,0,6,,,,5,,36,0
13140,note_off,,,,,84,0,2,,,,1,,67,0
13140,note_off,,,,,84,0,7,,,,6,,82,0
13140,note_off,,,,,84,0,9,,,,8,,76,0
13140,note_off,,,,,84,0,10,,,,11,,36,0
13140,note_off,,,,,0,0,12,,,,13,,36,0
13140,note_off,,,,,0,0,12,,,,13,,76,0
13140,note_off,,,,,84,0,12,,,,13,,67,0
13140,note_off,,,,,84,0,5,,,,4,,67,0
13140,note_off,,,,,84,0,3,,,,2,,82,0
13140,note_off,,,,,84,0,11,,,,12,,24,0
13140,note_off,,,,,84,0,13,,,,14,,67,0
13152,note_on,,,,,12,0,2,,,,1,,60,127
13152,note_on,,,,,12,0,11,,,,12,,36,49
13152,note_on,,,,,12,0,7,,,,6,,81,75
13152,note_on,,,,,12,0,10,,,,11,,48,49
13152,note_on,,,,,12,0,8,,,,7,,81,75
13152,note_on,,,,,12,0,9,,,,8,,77,75
13152,note_on,,,,,0,0,12,,,,13,,77,96
13152,note_on,,,,,12,0,3,,,,2,,81,62
13152,note_on,,,,,12,0,4,,,,3,,79,62
13152,note_on,,,,,12,0,5,,,,4,,72,62
13152,note_on,,,,,12,0,6,,,,5,,48,49
13152,note_on,,,,,12,0,13,,,,14,,72,75
13152,note_on,,,,,12,0,12,,,,13,,69,96
13152,note_on,,,,,0,0,12,,,,13,,48,96
13162,note_off,,,,,10,0,4,,,,3,,79,0
13164,note_on,,,,,2,0,4,,,,3,,77,62
13174,note_off,,,,,10,0,4,,,,3,,77,0
13176,note_on,,,,,2,0,4,,,,3,,79,62
13186,note_off,,,,,10,0,4,,,,3,,79,0
13188,note_on,,,,,2,0,4,,,,3,,77,62
13194,note_off,,,,,42,0,7,,,,6,,81,0
13194,note_off,,,,,42,0,8,,,,7,,81,0
13194,note_off,,,,,42,0,3,,,,2,,81,0
13194,note_off,,,,,42,0,10,,,,11,,48,0
13194,note_off,,,,,42,0,12,,,,13,,48,0
13194,note_off,,,,,42,0,6,,,,5,,48,0
13194,note_off,,,,,42,0,2,,,,1,,60,0
13194,note_off,,,,,42,0,11,,,,12,,36,0
13198,note_off,,,,,10,0,4,,,,3,,77,0
13200,note_on,,,,,6,0,10,,,,11,,50,49
13200,note_on,,,,,6,0,6,,,,5,,50,49
13200,note_on,,,,,2,0,4,,,,3,,79,62
13200,note_on,,,,,6,0,7,,,,6,,79,75
13200,note_on,,,,,6,0,12,,,,13,,50,96
13200,note_on,,,,,6,0,8,,,,7,,79,75
13200,note_on,,,,,6,0,11,,,,12,,38,49
13200,note_on,,,,,6,0,2,,,,1,,60,127
13200,note_on,,,,,6,0,3,,,,2,,79,62
13210,note_off,,,,,10,0,4,,,,3,,79,0
13212,note_on,,,,,2,0,4,,,,3,,77,62
13222,note_off,,,,,10,0,4,,,,3,,77,0
13224,note_on,,,,,2,0,4,,,,3,,79,62
13234,note_off,,,,,10,0,4,,,,3,,79,0
13236,note_off,,,,,0,0,12,,,,13,,77,0
13236,note_off,,,,,84,0,13,,,,14,,72,0
13236,note_off,,,,,36,0,12,,,,13,,69,0
13236,note_off,,,,,84,0,5,,,,4,,72,0
13236,note_on,,,,,2,0,4,,,,3,,77,62
13236,note_off,,,,,180,0,1,,,,0,,72,0
13236,note_off,,,,,84,0,9,,,,8,,77,0
13242,note_off,,,,,42,0,8,,,,7,,79,0
13242,note_off,,,,,42,0,7,,,,6,,79,0
13242,note_off,,,,,42,0,6,,,,5,,50,0
13242,note_off,,,,,42,0,2,,,,1,,60,0
13242,note_off,,,,,6,0,12,,,,13,,50,0
13242,note_off,,,,,42,0,10,,,,11,,50,0
13242,note_off,,,,,42,0,3,,,,2,,79,0
13242,note_off,,,,,42,0,11,,,,12,,38,0
13246,note_off,,,,,10,0,4,,,,3,,77,0
13248,note_on,,,,,12,0,9,,,,8,,79,75
13248,note_on,,,,,6,0,8,,,,7,,84,75
13248,note_on,,,,,6,0,2,,,,1,,60,127
13248,note_on,,,,,2,0,4,,,,3,,79,62
13248,note_on,,,,,12,0,13,,,,14,,64,75
13248,note_on,,,,,6,0,11,,,,12,,40,49
13248,note_on,,,,,6,0,7,,,,6,,84,75
13248,note_on,,,,,0,0,12,,,,13,,52,96
13248,note_on,,,,,0,0,12,,,,13,,79,96
13248,note_on,,,,,6,0,12,,,,13,,72,96
13248,note_on,,,,,12,0,5,,,,4,,64,62
13248,note_on,,,,,6,0,3,,,,2,,84,62
13248,note_on,,,,,6,0,6,,,,5,,52,49
13248,note_on,,,,,12,0,1,,,,0,,70,127
13248,note_on,,,,,6,0,10,,,,11,,52,49
13290,note_off,,,,,42,0,11,,,,12,,40,0
13290,note_off,,,,,42,0,12,,,,13,,52,0
13290,note_off,,,,,42,0,2,,,,1,,60,0
13290,note_off,,,,,42,0,10,,,,11,,52,0
13290,note_off,,,,,42,0,6,,,,5,,52,0
13296,note_on,,,,,6,0,10,,,,11,,48,49
13296,note_on,,,,,6,0,12,,,,13,,48,96
13296,note_on,,,,,6,0,11,,,,12,,36,49
13296,note_on,,,,,6,0,6,,,,5,,48,49
13296,note_on,,,,,6,0,2,,,,1,,60,127
13332,note_off,,,,,84,0,13,,,,14,,64,0
13332,note_off,,,,,84,0,8,,,,7,,84,0
13332,note_off,,,,,84,0,3,,,,2,,84,0
13332,note_off,,,,,84,0,1,,,,0,,70,0
13332,note_off,,,,,84,0,4,,,,3,,79,0
13332,note_off,,,,,84,0,9,,,,8,,79,0
13332,note_off,,,,,84,0,5,,,,4,,64,0
13332,note_off,,,,,84,0,7,,,,6,,84,0
13332,note_off,,,,,36,0,12,,,,13,,72,0
13332,note_off,,,,,0,0,12,,,,13,,79,0
13338,note_off,,,,,42,0,10,,,,11,,48,0
13338,note_off,,,,,42,0,11,,,,12,,36,0
13338,note_off,,,,,42,0,6,,,,5,,48,0
13338,note_off,,,,,42,0,2,,,,1,,60,0
13338,note_off,,,,,6,0,12,,,,13,,48,0
13344,note_on,,,,,6,0,2,,,,1,,65,127
13344,note_on,,,,,0,0,12,,,,13,,50,96
13344,note_on,,,,,0,0,12,,,,13,,77,96
13344,note_on,,,,,12,0,9,,,,8,,74,75
13344,note_on,,,,,12,0,1,,,,0,,69,127
13344,note_on,,,,,12,0,4,,,,3,,74,62
13344,note_on,,,,,6,0,12,,,,13,,69,96
13344,note_on,,,,,12,0,3,,,,2,,77,62
13344,note_on,,,,,12,0,7,,,,6,,77,75
13344,note_on,,,,,12,0,8,,,,7,,77,75
13344,note_on,,,,,6,0,10,,,,11,,50,49
13344,note_on,,,,,12,0,13,,,,14,,69,75
13344,note_on,,,,,6,0,6,,,,5,,50,49
13344,note_on,,,,,6,0,11,,,,12,,38,49
13344,note_on,,,,,12,0,5,,,,4,,69,62
13386,note_off,,,,,42,0,5,,,,4,,69,0
13386,note_off,,,,,42,0,6,,,,5,,50,0
13386,note_off,,,,,42,0,13,,,,14,,69,0
13386,note_off,,,,,42,0,7,,,,6,,77,0
13386,note_off,,,,,42,0,11,,,,12,,38,0
13386,note_off,,,,,42,0,3,,,,2,,77,0
13386,note_off,,,,,42,0,12,,,,13,,50,0
13386,note_off,,,,,42,0,8,,,,7,,77,0
13386,note_off,,,,,42,0,10,,,,11,,50,0
13392,note_on,,,,,6,0,3,,,,2,,79,62
13392,note_on,,,,,6,0,12,,,,13,,46,96
13392,note_on,,,,,6,0,10,,,,11,,46,49
13392,note_on,,,,,6,0,6,,,,5,,46,49
13392,note_on,,,,,6,0,7,,,,6,,79,75
13392,note_on,,,,,6,0,11,,,,12,,34,49
13392,note_on,,,,,6,0,5,,,,4,,70,62
13392,note_on,,,,,6,0,8,,,,7,,79,75
13392,note_on,,,,,6,0,13,,,,14,,70,75
13428,note_off,,,,,36,0,12,,,,13,,69,0
13428,note_off,,,,,84,0,1,,,,0,,69,0
13428,note_off,,,,,0,0,12,,,,13,,77,0
13428,note_off,,,,,84,0,9,,,,8,,74,0
13428,note_off,,,,,84,0,2,,,,1,,65,0
13428,note_off,,,,,84,0,4,,,,3,,74,0
13434,note_off,,,,,42,0,7,,,,6,,79,0
13434,note_off,,,,,42,0,3,,,,2,,79,0
13434,note_off,,,,,6,0,12,,,,13,,46,0
13434,note_off,,,,,42,0,8,,,,7,,79,0
13434,note_off,,,,,42,0,13,,,,14,,70,0
13434,note_off,,,,,42,0,11,,,,12,,34,0
13434,note_off,,,,,42,0,6,,,,5,,46,0
13434,note_off,,,,,42,0,10,,,,11,,46,0
13434,note_off,,,,,42,0,5,,,,4,,70,0
13440,note_on,,,,,12,0,9,,,,8,,74,75
13440,note_on,,,,,6,0,13,,,,14,,67,75
13440,note_on,,,,,6,0,11,,,,12,,36,49
13440,note_on,,,,,12,0,1,,,,0,,70,127
13440,note_on,,,,,6,0,8,,,,7,,76,75
13440,note_on,,,,,12,0,2,,,,1,,60,127
13440,note_on,,,,,6,0,10,,,,11,,48,49
13440,note_on,,,,,12,0,4,,,,3,,74,62
13440,note_on,,,,,6,0,7,,,,6,,76,75
13440,note_on,,,,,6,0,5,,,,4,,67,62
13440,note_on,,,,,6,0,6,,,,5,,48,49
13440,note_on,,,,,0,0,12,,,,13,,48,96
13440,note_on,,,,,0,0,12,,,,13,,76,96
13440,note_on,,,,,6,0,12,,,,13,,67,96
13440,note_on,,,,,6,0,3,,,,2,,76,62
13450,note_off,,,,,10,0,13,,,,14,,67,0
13450,note_off,,,,,10,0,9,,,,8,,74,0
13450,note_off,,,,,10,0,4,,,,3,,74,0
13452,note_on,,,,,2,0,13,,,,14,,65,75
13452,note_on,,,,,2,0,9,,,,8,,72,75
13452,note_on,,,,,2,0,4,,,,3,,72,62
13462,note_off,,,,,10,0,4,,,,3,,72,0
13462,note_off,,,,,10,0,13,,,,14,,65,0
13462,note_off,,,,,10,0,9,,,,8,,72,0
13464,note_on,,,,,2,0,13,,,,14,,67,75
13464,note_on,,,,,2,0,9,,,,8,,74,75
13464,note_on,,,,,2,0,4,,,,3,,74,62
13474,note_off,,,,,10,0,9,,,,8,,74,0
13474,note_off,,,,,10,0,13,,,,14,,67,0
13474,note_off,,,,,10,0,4,,,,3,,74,0
13476,note_on,,,,,2,0,13,,,,14,,65,75
13476,note_on,,,,,2,0,4,,,,3,,72,62
13476,note_on,,,,,2,0,9,,,,8,,72,75
13482,note_off,,,,,42,0,1,,,,0,,70,0
13482,note_off,,,,,42,0,2,,,,1,,60,0
13486,note_off,,,,,10,0,4,,,,3,,72,0
13486,note_off,,,,,10,0,13,,,,14,,65,0
13486,note_off,,,,,10,0,9,,,,8,,72,0
13488,note_on,,,,,2,0,4,,,,3,,74,62
13488,note_on,,,,,2,0,9,,,,8,,74,75
13488,note_on,,,,,2,0,13,,,,14,,67,75
13488,note_on,,,,,6,0,2,,,,1,,60,127
13488,note_on,,,,,6,0,1,,,,0,,69,127
13498,note_off,,,,,10,0,4,,,,3,,74,0
13498,note_off,,,,,10,0,9,,,,8,,74,0
13498,note_off,,,,,10,0,13,,,,14,,67,0
13500,note_on,,,,,2,0,13,,,,14,,65,75
13500,note_on,,,,,2,0,4,,,,3,,72,62
13500,note_on,,,,,2,0,9,,,,8,,72,75
13510,note_off,,,,,10,0,13,,,,14,,65,0
13510,note_off,,,,,10,0,9,,,,8,,72,0
13510,note_off,,,,,10,0,4,,,,3,,72,0
13512,note_on,,,,,2,0,13,,,,14,,67,75
13512,note_on,,,,,2,0,9,,,,8,,74,75
13512,note_on,,,,,2,0,4,,,,3,,74,62
13522,note_off,,,,,10,0,9,,,,8,,74,0
13522,note_off,,,,,10,0,13,,,,14,,67,0
13522,note_off,,,,,10,0,4,,,,3,,74,0
13524,note_off,,,,,84,0,10,,,,11,,48,0
13524,note_off,,,,,0,0,12,,,,13,,48,0
13524,note_off,,,,,84,0,11,,,,12,,36,0
13524,note_on,,,,,2,0,9,,,,8,,72,75
13524,note_on,,,,,2,0,13,,,,14,,65,75
13524,note_on,,,,,2,0,4,,,,3,,72,62
13524,note_off,,,,,84,0,12,,,,13,,67,0
13524,note_off,,,,,84,0,6,,,,5,,48,0
13524,note_off,,,,,0,0,12,,,,13,,76,0
13530,note_off,,,,,42,0,1,,,,0,,69,0
13530,note_off,,,,,42,0,2,,,,1,,60,0
13534,note_off,,,,,10,0,4,,,,3,,72,0
13534,note_off,,,,,10,0,13,,,,14,,65,0
13534,note_off,,,,,10,0,9,,,,8,,72,0
13536,note_on,,,,,12,0,6,,,,5,,36,49
13536,note_on,,,,,12,0,12,,,,13,,64,96
13536,note_on,,,,,0,0,12,,,,13,,67,96
13536,note_on,,,,,0,0,12,,,,13,,36,96
13536,note_on,,,,,12,0,11,,,,12,,24,49
13536,note_on,,,,,2,0,4,,,,3,,74,62
13536,note_on,,,,,6,0,1,,,,0,,67,127
13536,note_on,,,,,12,0,10,,,,11,,36,49
13536,note_on,,,,,6,0,2,,,,1,,60,127
13536,note_on,,,,,2,0,13,,,,14,,67,75
13536,note_on,,,,,2,0,9,,,,8,,74,75
13546,note_off,,,,,10,0,13,,,,14,,67,0
13546,note_off,,,,,10,0,4,,,,3,,74,0
13546,note_off,,,,,10,0,9,,,,8,,74,0
13548,note_on,,,,,2,0,13,,,,14,,65,75
13548,note_on,,,,,2,0,4,,,,3,,72,62
13548,note_on,,,,,2,0,9,,,,8,,72,75
13558,note_off,,,,,10,0,9,,,,8,,72,0
13558,note_off,,,,,10,0,4,,,,3,,72,0
13558,note_off,,,,,10,0,13,,,,14,,65,0
13560,note_on,,,,,2,0,13,,,,14,,67,75
13560,note_on,,,,,2,0,9,,,,8,,74,75
13560,note_on,,,,,2,0,4,,,,3,,74,62
13570,note_off,,,,,10,0,13,,,,14,,67,0
13570,note_off,,,,,10,0,9,,,,8,,74,0
13570,note_off,,,,,10,0,4,,,,3,,74,0
13572,note_on,,,,,2,0,9,,,,8,,72,75
13572,note_on,,,,,2,0,4,,,,3,,72,62
13572,note_on,,,,,2,0,13,,,,14,,65,75
13572,note_off,,,,,132,0,3,,,,2,,76,0
13572,note_off,,,,,132,0,5,,,,4,,67,0
13572,note_off,,,,,132,0,7,,,,6,,76,0
13572,note_off,,,,,132,0,8,,,,7,,76,0
13578,note_off,,,,,42,0,2,,,,1,,60,0
13578,note_off,,,,,42,0,1,,,,0,,67,0
13582,note_off,,,,,10,0,4,,,,3,,72,0
13582,note_off,,,,,10,0,9,,,,8,,72,0
13582,note_off,,,,,10,0,13,,,,14,,65,0
13584,note_on,,,,,6,0,2,,,,1,,60,127
13584,note_on,,,,,2,0,4,,,,3,,72,62
13584,note_on,,,,,12,0,8,,,,7,,77,75
13584,note_on,,,,,6,0,1,,,,0,,69,127
13584,note_on,,,,,2,0,13,,,,14,,69,75
13584,note_on,,,,,12,0,5,,,,4,,69,62
13584,note_on,,,,,12,0,3,,,,2,,77,62
13584,note_on,,,,,12,0,7,,,,6,,77,75
13584,note_on,,,,,2,0,9,,,,8,,72,75
13620,note_off,,,,,0,0,12,,,,13,,36,0
13620,note_off,,,,,84,0,12,,,,13,,64,0
13620,note_off,,,,,84,0,10,,,,11,,36,0
13620,note_off,,,,,84,0,11,,,,12,,24,0
13620,note_off,,,,,84,0,6,,,,5,,36,0
13620,note_off,,,,,0,0,12,,,,13,,67,0
13626,note_off,,,,,42,0,5,,,,4,,69,0
13626,note_off,,,,,42,0,8,,,,7,,77,0
13626,note_off,,,,,42,0,13,,,,14,,69,0
13626,note_off,,,,,42,0,9,,,,8,,72,0
13626,note_off,,,,,42,0,1,,,,0,,69,0
13626,note_off,,,,,42,0,7,,,,6,,77,0
13626,note_off,,,,,42,0,4,,,,3,,72,0
13626,note_off,,,,,42,0,2,,,,1,,60,0
13626,note_off,,,,,42,0,3,,,,2,,77,0
13632,note_on,,,,,12,0,6,,,,5,,41,49
13632,note_on,,,,,6,0,13,,,,14,,69,75
13632,note_on,,,,,6,0,7,,,,6,,77,75
13632,note_on,,,,,6,0,5,,,,4,,69,62
13632,note_on,,,,,6,0,8,,,,7,,77,75
13632,note_on,,,,,12,0,11,,,,12,,29,49
13632,note_on,,,,,6,0,1,,,,0,,65,127
13632,note_on,,,,,0,0,12,,,,13,,69,96
13632,note_on,,,,,0,0,12,,,,13,,41,96
13632,note_on,,,,,12,0,10,,,,11,,41,49
13632,note_on,,,,,6,0,9,,,,8,,72,75
13632,note_on,,,,,6,0,2,,,,1,,57,127
13632,note_on,,,,,12,0,12,,,,13,,60,96
13632,note_on,,,,,6,0,4,,,,3,,72,62
13632,note_on,,,,,6,0,3,,,,2,,77,62
13812,note_off,,,,,180,0,9,,,,8,,72,0
13908,note_off,,,,,276,0,5,,,,4,,69,0
13908,note_off,,,,,276,0,8,,,,7,,77,0
13908,note_off,,,,,276,0,6,,,,5,,41,0
13908,note_off,,,,,276,0,4,,,,3,,72,0
13908,note_off,,,,,276,0,12,,,,13,,41,0
13908,note_off,,,,,0,0,12,,,,13,,60,0
13908,note_off,,,,,276,0,7,,,,6,,77,0
13908,note_off,,,,,276,0,10,,,,11,,41,0
13908,note_off,,,,,0,0,12,,,,13,,69,0
13908,note_off,,,,,276,0,1,,,,0,,65,0
13908,note_off,,,,,276,0,2,,,,1,,57,0
13908,note_off,,,,,276,0,3,,,,2,,77,0
13908,note_off,,,,,276,0,13,,,,14,,69,0
13908,note_off,,,,,276,0,11,,,,12,,29,0
14208,set_tempo,,,,,300,1,2,500000,,,,,,
14208,set_tempo,,,,,300,1,11,500000,,,,,,
14208,set_tempo,,,,,300,1,5,500000,,,,,,
14208,note_on,,,,,0,0,3,,,,2,,77,96
14208,set_tempo,,,,,300,1,10,500000,,,,,,
14208,note_on,,,,,0,0,4,,,,3,,69,96
14208,set_tempo,,,,,396,1,9,500000,,,,,,
14208,set_tempo,,,,,300,1,4,500000,,,,,,
14208,set_tempo,,,,,300,1,3,500000,,,,,,
14208,set_tempo,,,,,300,1,12,500000,,,,,,
14208,set_tempo,,,,,300,1,1,500000,,,,,,
14208,set_tempo,,,,,300,1,7,500000,,,,,,
14208,set_tempo,,,,,300,1,6,500000,,,,,,
14208,note_on,,,,,0,0,6,,,,5,,62,62
14208,set_tempo,,,,,300,1,13,500000,,,,,,
14208,set_tempo,,,,,14112,1,0,500000,,,,,,
14208,set_tempo,,,,,300,1,8,500000,,,,,,
14292,note_off,,,,,84,0,6,,,,5,,62,0
14304,note_on,,,,,12,0,6,,,,5,,60,62
14388,note_off,,,,,180,0,3,,,,2,,77,0
14388,note_off,,,,,84,0,6,,,,5,,60,0
14388,note_off,,,,,180,0,4,,,,3,,69,0
14400,note_on,,,,,12,0,3,,,,2,,79,96
14400,note_on,,,,,12,0,6,,,,5,,58,62
14400,note_on,,,,,12,0,4,,,,3,,70,96
14484,note_off,,,,,84,0,4,,,,3,,70,0
14484,note_off,,,,,84,0,6,,,,5,,58,0
14484,note_off,,,,,84,0,3,,,,2,,79,0
14496,note_on,,,,,12,0,4,,,,3,,67,96
14496,note_on,,,,,12,0,6,,,,5,,60,62
14496,note_on,,,,,12,0,3,,,,2,,76,96
14580,note_off,,,,,84,0,6,,,,5,,60,0
14592,note_on,,,,,12,0,6,,,,5,,58,62
14676,note_off,,,,,84,0,6,,,,5,,58,0
14676,note_off,,,,,180,0,4,,,,3,,67,0
14676,note_off,,,,,180,0,3,,,,2,,76,0
14688,note_on,,,,,12,0,3,,,,2,,77,96
14688,note_on,,,,,12,0,6,,,,5,,57,62
14688,note_on,,,,,12,0,4,,,,3,,69,96
14772,note_off,,,,,84,0,4,,,,3,,69,0
14772,note_off,,,,,84,0,3,,,,2,,77,0
14772,note_off,,,,,84,0,6,,,,5,,57,0
14784,note_on,,,,,12,0,3,,,,2,,74,96
14784,note_on,,,,,12,0,6,,,,5,,58,62
14784,note_on,,,,,12,0,4,,,,3,,65,96
14868,note_off,,,,,84,0,4,,,,3,,65,0
14868,note_off,,,,,84,0,3,,,,2,,74,0
14868,note_off,,,,,84,0,6,,,,5,,58,0
14880,note_on,,,,,12,0,4,,,,3,,74,96
14880,note_on,,,,,12,0,6,,,,5,,57,62
14880,note_on,,,,,12,0,3,,,,2,,82,96
14964,note_off,,,,,84,0,6,,,,5,,57,0
14976,note_on,,,,,12,0,6,,,,5,,55,62
15060,note_off,,,,,180,0,4,,,,3,,74,0
15060,note_off,,,,,84,0,6,,,,5,,55,0
15060,note_off,,,,,180,0,3,,,,2,,82,0
15072,note_on,,,,,12,0,6,,,,5,,60,62
15072,note_on,,,,,12,0,4,,,,3,,77,96
15072,note_on,,,,,12,0,3,,,,2,,81,96
15082,note_off,,,,,10,0,4,,,,3,,77,0
15082,note_off,,,,,10,0,3,,,,2,,81,0
15084,note_on,,,,,2,0,3,,,,2,,79,96
15084,note_on,,,,,2,0,4,,,,3,,76,96
15094,note_off,,,,,10,0,4,,,,3,,76,0
15094,note_off,,,,,10,0,3,,,,2,,79,0
15096,note_on,,,,,2,0,4,,,,3,,77,96
15096,note_on,,,,,2,0,3,,,,2,,81,96
15106,note_off,,,,,10,0,4,,,,3,,77,0
15106,note_off,,,,,10,0,3,,,,2,,81,0
15108,note_on,,,,,2,0,4,,,,3,,76,96
15108,note_on,,,,,2,0,3,,,,2,,79,96
15118,note_off,,,,,10,0,4,,,,3,,76,0
15118,note_off,,,,,10,0,3,,,,2,,79,0
15120,note_on,,,,,2,0,4,,,,3,,77,96
15120,note_on,,,,,2,0,3,,,,2,,81,96
15130,note_off,,,,,10,0,3,,,,2,,81,0
15130,note_off,,,,,10,0,4,,,,3,,77,0
15132,note_on,,,,,2,0,4,,,,3,,76,96
15132,note_on,,,,,2,0,3,,,,2,,79,96
15142,note_off,,,,,10,0,4,,,,3,,76,0
15142,note_off,,,,,10,0,3,,,,2,,79,0
15144,note_on,,,,,2,0,3,,,,2,,81,96
15144,note_on,,,,,2,0,4,,,,3,,77,96
15154,note_off,,,,,10,0,4,,,,3,,77,0
15154,note_off,,,,,10,0,3,,,,2,,81,0
15156,note_on,,,,,2,0,4,,,,3,,76,96
15156,note_off,,,,,84,0,6,,,,5,,60,0
15156,note_on,,,,,2,0,3,,,,2,,79,96
15166,note_off,,,,,10,0,3,,,,2,,79,0
15166,note_off,,,,,10,0,4,,,,3,,76,0
15168,note_on,,,,,2,0,3,,,,2,,81,96
15168,note_on,,,,,2,0,4,,,,3,,77,96
15168,note_on,,,,,12,0,6,,,,5,,48,62
15178,note_off,,,,,10,0,4,,,,3,,77,0
15178,note_off,,,,,10,0,3,,,,2,,81,0
15180,note_on,,,,,2,0,3,,,,2,,79,96
15180,note_on,,,,,2,0,4,,,,3,,76,96
15190,note_off,,,,,10,0,3,,,,2,,79,0
15190,note_off,,,,,10,0,4,,,,3,,76,0
15192,note_on,,,,,2,0,4,,,,3,,77,96
15192,note_on,,,,,2,0,3,,,,2,,81,96
15202,note_off,,,,,10,0,4,,,,3,,77,0
15202,note_off,,,,,10,0,3,,,,2,,81,0
15204,note_on,,,,,2,0,4,,,,3,,76,96
15204,note_on,,,,,2,0,3,,,,2,,79,96
15214,note_off,,,,,10,0,4,,,,3,,76,0
15214,note_off,,,,,10,0,3,,,,2,,79,0
15216,note_on,,,,,2,0,4,,,,3,,74,96
15216,note_on,,,,,2,0,3,,,,2,,77,96
15237,note_off,,,,,21,0,3,,,,2,,77,0
15237,note_off,,,,,21,0,4,,,,3,,74,0
15240,note_on,,,,,3,0,3,,,,2,,79,96
15240,note_on,,,,,3,0,4,,,,3,,76,96
15252,note_off,,,,,84,0,6,,,,5,,48,0
15261,note_off,,,,,21,0,4,,,,3,,76,0
15261,note_off,,,,,21,0,3,,,,2,,79,0
15264,note_on,,,,,12,0,6,,,,5,,53,62
15264,note_on,,,,,3,0,3,,,,2,,81,96
15264,note_on,,,,,3,0,4,,,,3,,77,96
15348,note_off,,,,,84,0,6,,,,5,,53,0
15348,note_off,,,,,84,0,3,,,,2,,81,0
15348,note_off,,,,,84,0,4,,,,3,,77,0
15360,note_on,,,,,12,0,3,,,,2,,74,96
15360,note_on,,,,,12,0,6,,,,5,,58,62
15360,note_on,,,,,12,0,4,,,,3,,65,96
15444,note_off,,,,,84,0,6,,,,5,,58,0
15456,note_on,,,,,12,0,6,,,,5,,57,62
15540,note_off,,,,,84,0,6,,,,5,,57,0
15540,note_off,,,,,180,0,3,,,,2,,74,0
15540,note_off,,,,,180,0,4,,,,3,,65,0
15552,note_on,,,,,12,0,3,,,,2,,76,96
15552,note_on,,,,,12,0,4,,,,3,,67,96
15552,note_on,,,,,12,0,6,,,,5,,55,62
15636,note_off,,,,,84,0,4,,,,3,,67,0
15636,note_off,,,,,84,0,6,,,,5,,55,0
15636,note_off,,,,,84,0,3,,,,2,,76,0
15648,note_on,,,,,12,0,6,,,,5,,57,62
15648,note_on,,,,,12,0,4,,,,3,,64,96
15648,note_on,,,,,12,0,3,,,,2,,73,96
15732,note_off,,,,,84,0,3,,,,2,,73,0
15732,note_off,,,,,84,0,6,,,,5,,57,0
15744,note_on,,,,,12,0,6,,,,5,,55,62
15744,note_on,,,,,12,0,3,,,,2,,71,96
15786,note_off,,,,,42,0,3,,,,2,,71,0
15792,note_on,,,,,6,0,3,,,,2,,69,96
15828,note_off,,,,,180,0,4,,,,3,,64,0
15828,note_off,,,,,84,0,6,,,,5,,55,0
15834,note_off,,,,,42,0,3,,,,2,,69,0
15840,note_on,,,,,6,0,3,,,,2,,74,96
15840,note_on,,,,,12,0,6,,,,5,,53,62
15840,note_on,,,,,12,0,4,,,,3,,69,96
15882,note_off,,,,,42,0,4,,,,3,,69,0
15888,note_on,,,,,6,0,4,,,,3,,71,96
15924,note_off,,,,,84,0,3,,,,2,,74,0
15924,note_off,,,,,84,0,6,,,,5,,53,0
15930,note_off,,,,,42,0,4,,,,3,,71,0
15936,note_on,,,,,12,0,6,,,,5,,52,62
15936,note_on,,,,,6,0,4,,,,3,,73,96
15936,note_on,,,,,12,0,3,,,,2,,76,96
15978,note_off,,,,,42,0,3,,,,2,,76,0
15978,note_off,,,,,42,0,4,,,,3,,73,0
15984,note_on,,,,,6,0,4,,,,3,,74,96
15984,note_on,,,,,6,0,3,,,,2,,77,96
16020,note_off,,,,,84,0,6,,,,5,,52,0
16026,note_off,,,,,42,0,4,,,,3,,74,0
16026,note_off,,,,,42,0,3,,,,2,,77,0
16032,note_on,,,,,6,0,4,,,,3,,76,96
16032,note_on,,,,,6,0,3,,,,2,,79,96
16032,note_on,,,,,12,0,6,,,,5,,50,62
16042,note_off,,,,,10,0,4,,,,3,,76,0
16042,note_off,,,,,10,0,3,,,,2,,79,0
16044,note_on,,,,,2,0,3,,,,2,,77,96
16044,note_on,,,,,2,0,4,,,,3,,74,96
16054,note_off,,,,,10,0,3,,,,2,,77,0
16054,note_off,,,,,10,0,4,,,,3,,74,0
16056,note_on,,,,,2,0,3,,,,2,,79,96
16056,note_on,,,,,2,0,4,,,,3,,76,96
16066,note_off,,,,,10,0,4,,,,3,,76,0
16066,note_off,,,,,10,0,3,,,,2,,79,0
16068,note_on,,,,,2,0,4,,,,3,,74,96
16068,note_on,,,,,2,0,3,,,,2,,77,96
16078,note_off,,,,,10,0,3,,,,2,,77,0
16078,note_off,,,,,10,0,4,,,,3,,74,0
16080,note_on,,,,,2,0,3,,,,2,,79,96
16080,note_on,,,,,2,0,4,,,,3,,76,96
16090,note_off,,,,,10,0,3,,,,2,,79,0
16090,note_off,,,,,10,0,4,,,,3,,76,0
16092,note_on,,,,,2,0,4,,,,3,,74,96
16092,note_on,,,,,2,0,3,,,,2,,77,96
16102,note_off,,,,,10,0,4,,,,3,,74,0
16102,note_off,,,,,10,0,3,,,,2,,77,0
16104,note_on,,,,,2,0,3,,,,2,,79,96
16104,note_on,,,,,2,0,4,,,,3,,76,96
16114,note_off,,,,,10,0,4,,,,3,,76,0
16114,note_off,,,,,10,0,3,,,,2,,79,0
16116,note_on,,,,,2,0,4,,,,3,,74,96
16116,note_off,,,,,84,0,6,,,,5,,50,0
16116,note_on,,,,,2,0,3,,,,2,,77,96
16126,note_off,,,,,10,0,4,,,,3,,74,0
16126,note_off,,,,,10,0,3,,,,2,,77,0
16128,note_on,,,,,12,0,6,,,,5,,38,62
16128,note_on,,,,,2,0,3,,,,2,,79,96
16128,note_on,,,,,2,0,4,,,,3,,76,96
16138,note_off,,,,,10,0,4,,,,3,,76,0
16138,note_off,,,,,10,0,3,,,,2,,79,0
16140,note_on,,,,,2,0,4,,,,3,,74,96
16140,note_on,,,,,2,0,3,,,,2,,77,96
16150,note_off,,,,,10,0,4,,,,3,,74,0
16150,note_off,,,,,10,0,3,,,,2,,77,0
16152,note_on,,,,,2,0,4,,,,3,,76,96
16152,note_on,,,,,2,0,3,,,,2,,79,96
16162,note_off,,,,,10,0,4,,,,3,,76,0
16162,note_off,,,,,10,0,3,,,,2,,79,0
16164,note_on,,,,,2,0,3,,,,2,,77,96
16164,note_on,,,,,2,0,4,,,,3,,74,96
16174,note_off,,,,,10,0,3,,,,2,,77,0
16174,note_off,,,,,10,0,4,,,,3,,74,0
16176,note_on,,,,,2,0,3,,,,2,,76,96
16176,note_on,,,,,2,0,4,,,,3,,73,96
16212,note_off,,,,,84,0,6,,,,5,,38,0
16218,note_off,,,,,42,0,3,,,,2,,76,0
16218,note_off,,,,,42,0,4,,,,3,,73,0
16224,note_on,,,,,6,0,3,,,,2,,76,96
16224,note_on,,,,,12,0,6,,,,5,,45,62
16224,note_on,,,,,6,0,4,,,,3,,73,96
16308,note_off,,,,,84,0,6,,,,5,,45,0
16320,note_on,,,,,12,0,6,,,,5,,57,62
16362,note_off,,,,,42,0,6,,,,5,,57,0
16368,note_on,,,,,6,0,6,,,,5,,59,62
16410,note_off,,,,,42,0,6,,,,5,,59,0
16416,note_on,,,,,6,0,6,,,,5,,61,62
16458,note_off,,,,,42,0,6,,,,5,,61,0
16464,note_on,,,,,6,0,6,,,,5,,57,62
16500,note_off,,,,,276,0,4,,,,3,,73,0
16500,note_off,,,,,276,0,3,,,,2,,76,0
16506,note_off,,,,,42,0,6,,,,5,,57,0
16512,note_on,,,,,0,0,6,,,,5,,62,62
16512,note_on,,,,,0,0,4,,,,3,,69,96
16512,set_tempo,,,,,2304,1,0,500000,,,,,,
16512,set_tempo,,,,,2304,1,11,500000,,,,,,
16512,set_tempo,,,,,2304,1,2,500000,,,,,,
16512,set_tempo,,,,,2304,1,5,500000,,,,,,
16512,set_tempo,,,,,2304,1,9,500000,,,,,,
16512,set_tempo,,,,,2304,1,12,500000,,,,,,
16512,set_tempo,,,,,2304,1,10,500000,,,,,,
16512,set_tempo,,,,,12,1,3,500000,,,,,,
16512,note_on,,,,,0,0,3,,,,2,,77,96
16512,set_tempo,,,,,12,1,4,500000,,,,,,
16512,set_tempo,,,,,6,1,6,500000,,,,,,
16512,set_tempo,,,,,2304,1,13,500000,,,,,,
16512,set_tempo,,,,,2304,1,8,500000,,,,,,
16512,set_tempo,,,,,2304,1,7,500000,,,,,,
16512,set_tempo,,,,,2304,1,1,500000,,,,,,
16596,note_off,,,,,84,0,6,,,,5,,62,0
16608,note_on,,,,,12,0,6,,,,5,,60,62
16692,note_off,,,,,180,0,3,,,,2,,77,0
16692,note_off,,,,,84,0,6,,,,5,,60,0
16692,note_off,,,,,180,0,4,,,,3,,69,0
16704,note_on,,,,,12,0,3,,,,2,,79,96
16704,note_on,,,,,12,0,6,,,,5,,58,62
16704,note_on,,,,,12,0,4,,,,3,,70,96
16788,note_off,,,,,84,0,6,,,,5,,58,0
16788,note_off,,,,,84,0,4,,,,3,,70,0
16788,note_off,,,,,84,0,3,,,,2,,79,0
16800,note_on,,,,,12,0,6,,,,5,,60,62
16800,note_on,,,,,12,0,4,,,,3,,67,96
16800,note_on,,,,,12,0,3,,,,2,,76,96
16884,note_off,,,,,84,0,6,,,,5,,60,0
16896,note_on,,,,,12,0,6,,,,5,,58,62
16980,note_off,,,,,84,0,6,,,,5,,58,0
16980,note_off,,,,,180,0,3,,,,2,,76,0
16980,note_off,,,,,180,0,4,,,,3,,67,0
16992,note_on,,,,,12,0,4,,,,3,,69,96
16992,note_on,,,,,12,0,6,,,,5,,57,62
16992,note_on,,,,,12,0,3,,,,2,,77,96
17076,note_off,,,,,84,0,6,,,,5,,57,0
17076,note_off,,,,,84,0,4,,,,3,,69,0
17076,note_off,,,,,84,0,3,,,,2,,77,0
17088,note_on,,,,,12,0,6,,,,5,,58,62
17088,note_on,,,,,12,0,4,,,,3,,65,96
17088,note_on,,,,,12,0,3,,,,2,,74,96
17172,note_off,,,,,84,0,6,,,,5,,58,0
17172,note_off,,,,,84,0,3,,,,2,,74,0
17172,note_off,,,,,84,0,4,,,,3,,65,0
17184,note_on,,,,,12,0,3,,,,2,,82,96
17184,note_on,,,,,12,0,6,,,,5,,57,62
17184,note_on,,,,,12,0,4,,,,3,,74,96
17268,note_off,,,,,84,0,6,,,,5,,57,0
17280,note_on,,,,,12,0,6,,,,5,,55,62
17364,note_off,,,,,180,0,4,,,,3,,74,0
17364,note_off,,,,,84,0,6,,,,5,,55,0
17364,note_off,,,,,180,0,3,,,,2,,82,0
17376,note_on,,,,,12,0,3,,,,2,,81,96
17376,note_on,,,,,12,0,6,,,,5,,60,62
17376,note_on,,,,,12,0,4,,,,3,,77,96
17386,note_off,,,,,10,0,4,,,,3,,77,0
17386,note_off,,,,,10,0,3,,,,2,,81,0
17388,note_on,,,,,2,0,3,,,,2,,79,96
17388,note_on,,,,,2,0,4,,,,3,,76,96
17398,note_off,,,,,10,0,4,,,,3,,76,0
17398,note_off,,,,,10,0,3,,,,2,,79,0
17400,note_on,,,,,2,0,3,,,,2,,81,96
17400,note_on,,,,,2,0,4,,,,3,,77,96
17410,note_off,,,,,10,0,4,,,,3,,77,0
17410,note_off,,,,,10,0,3,,,,2,,81,0
17412,note_on,,,,,2,0,4,,,,3,,76,96
17412,note_on,,,,,2,0,3,,,,2,,79,96
17422,note_off,,,,,10,0,3,,,,2,,79,0
17422,note_off,,,,,10,0,4,,,,3,,76,0
17424,note_on,,,,,2,0,3,,,,2,,81,96
17424,note_on,,,,,2,0,4,,,,3,,77,96
17434,note_off,,,,,10,0,3,,,,2,,81,0
17434,note_off,,,,,10,0,4,,,,3,,77,0
17436,note_on,,,,,2,0,4,,,,3,,76,96
17436,note_on,,,,,2,0,3,,,,2,,79,96
17446,note_off,,,,,10,0,4,,,,3,,76,0
17446,note_off,,,,,10,0,3,,,,2,,79,0
17448,note_on,,,,,2,0,3,,,,2,,81,96
17448,note_on,,,,,2,0,4,,,,3,,77,96
17458,note_off,,,,,10,0,3,,,,2,,81,0
17458,note_off,,,,,10,0,4,,,,3,,77,0
17460,note_on,,,,,2,0,3,,,,2,,79,96
17460,note_off,,,,,84,0,6,,,,5,,60,0
17460,note_on,,,,,2,0,4,,,,3,,76,96
17470,note_off,,,,,10,0,4,,,,3,,76,0
17470,note_off,,,,,10,0,3,,,,2,,79,0
17472,note_on,,,,,2,0,3,,,,2,,81,96
17472,note_on,,,,,2,0,4,,,,3,,77,96
17472,note_on,,,,,12,0,6,,,,5,,48,62
17482,note_off,,,,,10,0,3,,,,2,,81,0
17482,note_off,,,,,10,0,4,,,,3,,77,0
17484,note_on,,,,,2,0,3,,,,2,,79,96
17484,note_on,,,,,2,0,4,,,,3,,76,96
17494,note_off,,,,,10,0,4,,,,3,,76,0
17494,note_off,,,,,10,0,3,,,,2,,79,0
17496,note_on,,,,,2,0,3,,,,2,,81,96
17496,note_on,,,,,2,0,4,,,,3,,77,96
17506,note_off,,,,,10,0,3,,,,2,,81,0
17506,note_off,,,,,10,0,4,,,,3,,77,0
17508,note_on,,,,,2,0,3,,,,2,,79,96
17508,note_on,,,,,2,0,4,,,,3,,76,96
17518,note_off,,,,,10,0,3,,,,2,,79,0
17518,note_off,,,,,10,0,4,,,,3,,76,0
17520,note_on,,,,,2,0,4,,,,3,,74,96
17520,note_on,,,,,2,0,3,,,,2,,77,96
17541,note_off,,,,,21,0,4,,,,3,,74,0
17541,note_off,,,,,21,0,3,,,,2,,77,0
17544,note_on,,,,,3,0,4,,,,3,,76,96
17544,note_on,,,,,3,0,3,,,,2,,79,96
17556,note_off,,,,,84,0,6,,,,5,,48,0
17565,note_off,,,,,21,0,3,,,,2,,79,0
17565,note_off,,,,,21,0,4,,,,3,,76,0
17568,note_on,,,,,12,0,6,,,,5,,53,62
17568,note_on,,,,,3,0,4,,,,3,,77,96
17568,note_on,,,,,3,0,3,,,,2,,81,96
17652,note_off,,,,,84,0,3,,,,2,,81,0
17652,note_off,,,,,84,0,4,,,,3,,77,0
17652,note_off,,,,,84,0,6,,,,5,,53,0
17664,note_on,,,,,12,0,3,,,,2,,74,96
17664,note_on,,,,,12,0,4,,,,3,,65,96
17664,note_on,,,,,12,0,6,,,,5,,58,62
17748,note_off,,,,,84,0,6,,,,5,,58,0
17760,note_on,,,,,12,0,6,,,,5,,57,62
17844,note_off,,,,,180,0,3,,,,2,,74,0
17844,note_off,,,,,180,0,4,,,,3,,65,0
17844,note_off,,,,,84,0,6,,,,5,,57,0
17856,note_on,,,,,12,0,4,,,,3,,67,96
17856,note_on,,,,,12,0,6,,,,5,,55,62
17856,note_on,,,,,12,0,3,,,,2,,76,96
17940,note_off,,,,,84,0,6,,,,5,,55,0
17940,note_off,,,,,84,0,3,,,,2,,76,0
17940,note_off,,,,,84,0,4,,,,3,,67,0
17952,note_on,,,,,12,0,6,,,,5,,57,62
17952,note_on,,,,,12,0,3,,,,2,,73,96
17952,note_on,,,,,12,0,4,,,,3,,64,96
18036,note_off,,,,,84,0,6,,,,5,,57,0
18036,note_off,,,,,84,0,3,,,,2,,73,0
18048,note_on,,,,,12,0,3,,,,2,,71,96
18048,note_on,,,,,12,0,6,,,,5,,55,62
18090,note_off,,,,,42,0,3,,,,2,,71,0
18096,note_on,,,,,6,0,3,,,,2,,69,96
18132,note_off,,,,,180,0,4,,,,3,,64,0
18132,note_off,,,,,84,0,6,,,,5,,55,0
18138,note_off,,,,,42,0,3,,,,2,,69,0
18144,note_on,,,,,12,0,4,,,,3,,69,96
18144,note_on,,,,,12,0,6,,,,5,,53,62
18144,note_on,,,,,6,0,3,,,,2,,74,96
18186,note_off,,,,,42,0,4,,,,3,,69,0
18192,note_on,,,,,6,0,4,,,,3,,71,96
18228,note_off,,,,,84,0,6,,,,5,,53,0
18228,note_off,,,,,84,0,3,,,,2,,74,0
18234,note_off,,,,,42,0,4,,,,3,,71,0
18240,note_on,,,,,6,0,4,,,,3,,73,96
18240,note_on,,,,,12,0,6,,,,5,,52,62
18240,note_on,,,,,12,0,3,,,,2,,76,96
18282,note_off,,,,,42,0,3,,,,2,,76,0
18282,note_off,,,,,42,0,4,,,,3,,73,0
18288,note_on,,,,,6,0,3,,,,2,,77,96
18288,note_on,,,,,6,0,4,,,,3,,74,96
18324,note_off,,,,,84,0,6,,,,5,,52,0
18330,note_off,,,,,42,0,3,,,,2,,77,0
18330,note_off,,,,,42,0,4,,,,3,,74,0
18336,note_on,,,,,12,0,6,,,,5,,50,62
18336,note_on,,,,,6,0,3,,,,2,,79,96
18336,note_on,,,,,6,0,4,,,,3,,76,96
18346,note_off,,,,,10,0,3,,,,2,,79,0
18346,note_off,,,,,10,0,4,,,,3,,76,0
18348,note_on,,,,,2,0,3,,,,2,,77,96
18348,note_on,,,,,2,0,4,,,,3,,74,96
18358,note_off,,,,,10,0,3,,,,2,,77,0
18358,note_off,,,,,10,0,4,,,,3,,74,0
18360,note_on,,,,,2,0,3,,,,2,,79,96
18360,note_on,,,,,2,0,4,,,,3,,76,96
18370,note_off,,,,,10,0,3,,,,2,,79,0
18370,note_off,,,,,10,0,4,,,,3,,76,0
18372,note_on,,,,,2,0,4,,,,3,,74,96
18372,note_on,,,,,2,0,3,,,,2,,77,96
18382,note_off,,,,,10,0,3,,,,2,,77,0
18382,note_off,,,,,10,0,4,,,,3,,74,0
18384,note_on,,,,,2,0,4,,,,3,,76,96
18384,note_on,,,,,2,0,3,,,,2,,79,96
18394,note_off,,,,,10,0,4,,,,3,,76,0
18394,note_off,,,,,10,0,3,,,,2,,79,0
18396,note_on,,,,,2,0,3,,,,2,,77,96
18396,note_on,,,,,2,0,4,,,,3,,74,96
18406,note_off,,,,,10,0,3,,,,2,,77,0
18406,note_off,,,,,10,0,4,,,,3,,74,0
18408,note_on,,,,,2,0,4,,,,3,,76,96
18408,note_on,,,,,2,0,3,,,,2,,79,96
18418,note_off,,,,,10,0,4,,,,3,,76,0
18418,note_off,,,,,10,0,3,,,,2,,79,0
18420,note_on,,,,,2,0,4,,,,3,,74,96
18420,note_on,,,,,2,0,3,,,,2,,77,96
18420,note_off,,,,,84,0,6,,,,5,,50,0
18430,note_off,,,,,10,0,3,,,,2,,77,0
18430,note_off,,,,,10,0,4,,,,3,,74,0
18432,note_on,,,,,12,0,6,,,,5,,38,62
18432,note_on,,,,,2,0,4,,,,3,,76,96
18432,note_on,,,,,2,0,3,,,,2,,79,96
18442,note_off,,,,,10,0,3,,,,2,,79,0
18442,note_off,,,,,10,0,4,,,,3,,76,0
18444,note_on,,,,,2,0,3,,,,2,,77,96
18444,note_on,,,,,2,0,4,,,,3,,74,96
18454,note_off,,,,,10,0,3,,,,2,,77,0
18454,note_off,,,,,10,0,4,,,,3,,74,0
18456,note_on,,,,,2,0,3,,,,2,,79,96
18456,note_on,,,,,2,0,4,,,,3,,76,96
18466,note_off,,,,,10,0,3,,,,2,,79,0
18466,note_off,,,,,10,0,4,,,,3,,76,0
18468,note_on,,,,,2,0,4,,,,3,,74,96
18468,note_on,,,,,2,0,3,,,,2,,77,96
18478,note_off,,,,,10,0,4,,,,3,,74,0
18478,note_off,,,,,10,0,3,,,,2,,77,0
18480,note_on,,,,,2,0,3,,,,2,,76,96
18480,note_on,,,,,2,0,4,,,,3,,73,96
18516,note_off,,,,,84,0,6,,,,5,,38,0
18522,note_off,,,,,42,0,3,,,,2,,76,0
18522,note_off,,,,,42,0,4,,,,3,,73,0
18528,note_on,,,,,6,0,4,,,,3,,73,96
18528,note_on,,,,,12,0,6,,,,5,,45,62
18528,note_on,,,,,6,0,3,,,,2,,76,96
18612,note_off,,,,,84,0,6,,,,5,,45,0
18624,note_on,,,,,12,0,6,,,,5,,49,62
18708,note_off,,,,,84,0,6,,,,5,,49,0
18720,note_on,,,,,12,0,6,,,,5,,52,62
18804,note_off,,,,,276,0,4,,,,3,,73,0
18804,note_off,,,,,84,0,6,,,,5,,52,0
18804,note_off,,,,,276,0,3,,,,2,,76,0
18816,note_on,,,,,12,0,3,,,,2,,76,96
18816,note_on,,,,,12,0,4,,,,3,,73,96
18816,note_on,,,,,12,0,6,,,,5,,57,62
18900,note_off,,,,,84,0,6,,,,5,,57,0
18912,note_on,,,,,12,0,6,,,,5,,55,62
18996,note_off,,,,,180,0,3,,,,2,,76,0
18996,note_off,,,,,180,0,4,,,,3,,73,0
18996,note_off,,,,,84,0,6,,,,5,,55,0
19008,note_on,,,,,12,0,3,,,,2,,77,96
19008,note_on,,,,,12,0,6,,,,5,,53,62
19008,note_on,,,,,12,0,4,,,,3,,74,96
19092,note_off,,,,,84,0,3,,,,2,,77,0
19092,note_off,,,,,84,0,6,,,,5,,53,0
19092,note_off,,,,,84,0,4,,,,3,,74,0
19104,note_on,,,,,12,0,6,,,,5,,52,62
19104,note_on,,,,,12,0,4,,,,3,,76,96
19104,note_on,,,,,12,0,3,,,,2,,79,96
19188,note_off,,,,,84,0,6,,,,5,,52,0
19188,note_off,,,,,84,0,4,,,,3,,76,0
19200,note_on,,,,,12,0,6,,,,5,,57,62
19200,note_on,,,,,12,0,4,,,,3,,72,96
19284,note_off,,,,,84,0,6,,,,5,,57,0
19284,note_off,,,,,180,0,3,,,,2,,79,0
19296,note_on,,,,,12,0,3,,,,2,,76,96
19296,note_on,,,,,12,0,6,,,,5,,45,62
19380,note_off,,,,,84,0,3,,,,2,,76,0
19380,note_off,,,,,84,0,6,,,,5,,45,0
19392,note_on,,,,,12,0,3,,,,2,,77,96
19392,note_on,,,,,12,0,6,,,,5,,50,62
19476,note_off,,,,,84,0,3,,,,2,,77,0
19476,note_off,,,,,84,0,6,,,,5,,50,0
19476,note_off,,,,,276,0,4,,,,3,,72,0
19488,note_on,,,,,12,0,4,,,,3,,72,96
19488,note_on,,,,,12,0,6,,,,5,,55,62
19488,note_on,,,,,12,0,3,,,,2,,74,96
19498,note_off,,,,,10,0,4,,,,3,,72,0
19500,note_on,,,,,2,0,4,,,,3,,71,96
19510,note_off,,,,,10,0,4,,,,3,,71,0
19512,note_on,,,,,2,0,4,,,,3,,72,96
19522,note_off,,,,,10,0,4,,,,3,,72,0
19524,note_on,,,,,2,0,4,,,,3,,71,96
19530,note_off,,,,,42,0,3,,,,2,,74,0
19534,note_off,,,,,10,0,4,,,,3,,71,0
19536,note_on,,,,,2,0,4,,,,3,,72,96
19536,note_on,,,,,6,0,3,,,,2,,76,96
19546,note_off,,,,,10,0,4,,,,3,,72,0
19546,note_off,,,,,10,0,3,,,,2,,76,0
19548,note_on,,,,,2,0,4,,,,3,,71,96
19548,note_on,,,,,2,0,3,,,,2,,74,96
19558,note_off,,,,,10,0,3,,,,2,,74,0
19558,note_off,,,,,10,0,4,,,,3,,71,0
19560,note_on,,,,,2,0,3,,,,2,,76,96
19560,note_on,,,,,2,0,4,,,,3,,72,96
19570,note_off,,,,,10,0,3,,,,2,,76,0
19570,note_off,,,,,10,0,4,,,,3,,72,0
19572,note_on,,,,,2,0,3,,,,2,,74,96
19572,note_off,,,,,84,0,6,,,,5,,55,0
19572,note_on,,,,,2,0,4,,,,3,,71,96
19582,note_off,,,,,10,0,3,,,,2,,74,0
19582,note_off,,,,,10,0,4,,,,3,,71,0
19584,note_on,,,,,2,0,3,,,,2,,79,96
19584,note_on,,,,,12,0,6,,,,5,,43,62
19584,note_on,,,,,2,0,4,,,,3,,72,96
19594,note_off,,,,,10,0,4,,,,3,,72,0
19596,note_on,,,,,2,0,4,,,,3,,71,96
19606,note_off,,,,,10,0,4,,,,3,,71,0
19608,note_on,,,,,2,0,4,,,,3,,72,96
19618,note_off,,,,,10,0,4,,,,3,,72,0
19620,note_on,,,,,2,0,4,,,,3,,71,96
19630,note_off,,,,,10,0,4,,,,3,,71,0
19632,note_on,,,,,2,0,4,,,,3,,69,96
19653,note_off,,,,,21,0,4,,,,3,,69,0
19656,note_on,,,,,3,0,4,,,,3,,71,96
19668,note_off,,,,,84,0,6,,,,5,,43,0
19668,note_off,,,,,84,0,3,,,,2,,79,0
19677,note_off,,,,,21,0,4,,,,3,,71,0
19680,note_on,,,,,3,0,4,,,,3,,72,96
19680,note_on,,,,,12,0,6,,,,5,,48,62
19680,note_on,,,,,12,0,3,,,,2,,77,96
19722,note_off,,,,,42,0,3,,,,2,,77,0
19728,note_on,,,,,6,0,3,,,,2,,76,96
19764,note_off,,,,,84,0,4,,,,3,,72,0
19770,note_off,,,,,42,0,3,,,,2,,76,0
19776,note_on,,,,,12,0,4,,,,3,,67,96
19776,note_on,,,,,6,0,3,,,,2,,74,96
19818,note_off,,,,,42,0,3,,,,2,,74,0
19824,note_on,,,,,6,0,3,,,,2,,76,96
19860,note_off,,,,,84,0,4,,,,3,,67,0
19866,note_off,,,,,42,0,3,,,,2,,76,0
19872,note_on,,,,,6,0,3,,,,2,,72,96
19872,note_on,,,,,12,0,4,,,,3,,64,96
19914,note_off,,,,,42,0,3,,,,2,,72,0
19914,note_off,,,,,42,0,4,,,,3,,64,0
19920,note_on,,,,,6,0,4,,,,3,,65,96
19920,note_on,,,,,6,0,3,,,,2,,74,96
19962,note_off,,,,,42,0,3,,,,2,,74,0
19962,note_off,,,,,42,0,4,,,,3,,65,0
19968,note_on,,,,,6,0,4,,,,3,,67,96
19968,note_on,,,,,6,0,3,,,,2,,76,96
20010,note_off,,,,,42,0,3,,,,2,,76,0
20010,note_off,,,,,42,0,4,,,,3,,67,0
20016,note_on,,,,,6,0,3,,,,2,,78,96
20016,note_on,,,,,6,0,4,,,,3,,69,96
20058,note_off,,,,,42,0,4,,,,3,,69,0
20058,note_off,,,,,42,0,3,,,,2,,78,0
20064,note_on,,,,,6,0,3,,,,2,,79,96
20064,note_on,,,,,6,0,4,,,,3,,70,96
20074,note_off,,,,,10,0,3,,,,2,,79,0
20074,note_off,,,,,10,0,4,,,,3,,70,0
20076,note_on,,,,,2,0,3,,,,2,,78,96
20076,note_on,,,,,2,0,4,,,,3,,69,96
20086,note_off,,,,,10,0,4,,,,3,,69,0
20086,note_off,,,,,10,0,3,,,,2,,78,0
20088,note_on,,,,,2,0,3,,,,2,,79,96
20088,note_on,,,,,2,0,4,,,,3,,70,96
20098,note_off,,,,,10,0,4,,,,3,,70,0
20098,note_off,,,,,10,0,3,,,,2,,79,0
20100,note_on,,,,,2,0,4,,,,3,,69,96
20100,note_on,,,,,2,0,3,,,,2,,78,96
20110,note_off,,,,,10,0,4,,,,3,,69,0
20110,note_off,,,,,10,0,3,,,,2,,78,0
20112,note_on,,,,,2,0,4,,,,3,,70,96
20112,note_on,,,,,2,0,3,,,,2,,79,96
20122,note_off,,,,,10,0,4,,,,3,,70,0
20122,note_off,,,,,10,0,3,,,,2,,79,0
20124,note_on,,,,,2,0,4,,,,3,,69,96
20124,note_on,,,,,2,0,3,,,,2,,78,96
20134,note_off,,,,,10,0,3,,,,2,,78,0
20134,note_off,,,,,10,0,4,,,,3,,69,0
20136,note_on,,,,,2,0,3,,,,2,,79,96
20136,note_on,,,,,2,0,4,,,,3,,70,96
20146,note_off,,,,,10,0,3,,,,2,,79,0
20146,note_off,,,,,10,0,4,,,,3,,70,0
20148,note_on,,,,,2,0,3,,,,2,,78,96
20148,note_on,,,,,2,0,4,,,,3,,69,96
20158,note_off,,,,,10,0,4,,,,3,,69,0
20158,note_off,,,,,10,0,3,,,,2,,78,0
20160,note_on,,,,,2,0,3,,,,2,,79,96
20160,note_on,,,,,2,0,4,,,,3,,70,96
20170,note_off,,,,,10,0,3,,,,2,,79,0
20170,note_off,,,,,10,0,4,,,,3,,70,0
20172,note_on,,,,,2,0,3,,,,2,,78,96
20172,note_on,,,,,2,0,4,,,,3,,69,96
20182,note_off,,,,,10,0,3,,,,2,,78,0
20182,note_off,,,,,10,0,4,,,,3,,69,0
20184,note_on,,,,,2,0,4,,,,3,,70,96
20184,note_on,,,,,2,0,3,,,,2,,79,96
20194,note_off,,,,,10,0,3,,,,2,,79,0
20194,note_off,,,,,10,0,4,,,,3,,70,0
20196,note_on,,,,,2,0,4,,,,3,,69,96
20196,note_on,,,,,2,0,3,,,,2,,78,96
20206,note_off,,,,,10,0,4,,,,3,,69,0
20206,note_off,,,,,10,0,3,,,,2,,78,0
20208,note_on,,,,,2,0,4,,,,3,,67,96
20208,note_on,,,,,2,0,3,,,,2,,76,96
20229,note_off,,,,,21,0,4,,,,3,,67,0
20229,note_off,,,,,21,0,3,,,,2,,76,0
20232,note_on,,,,,3,0,4,,,,3,,69,96
20232,note_on,,,,,3,0,3,,,,2,,78,96
20244,note_off,,,,,564,0,6,,,,5,,48,0
20253,note_off,,,,,21,0,3,,,,2,,78,0
20253,note_off,,,,,21,0,4,,,,3,,69,0
20256,note_on,,,,,3,0,3,,,,2,,79,96
20256,note_on,,,,,12,0,6,,,,5,,46,62
20256,note_on,,,,,3,0,4,,,,3,,70,96
20298,note_off,,,,,42,0,3,,,,2,,79,0
20298,note_off,,,,,42,0,4,,,,3,,70,0
20304,note_on,,,,,6,0,3,,,,2,,81,96
20304,note_on,,,,,6,0,4,,,,3,,72,96
20340,note_off,,,,,84,0,6,,,,5,,46,0
20346,note_off,,,,,42,0,4,,,,3,,72,0
20346,note_off,,,,,42,0,3,,,,2,,81,0
20352,note_on,,,,,12,0,6,,,,5,,58,62
20352,note_on,,,,,6,0,3,,,,2,,82,96
20352,note_on,,,,,6,0,4,,,,3,,74,96
20362,note_off,,,,,10,0,4,,,,3,,74,0
20362,note_off,,,,,10,0,3,,,,2,,82,0
20364,note_on,,,,,2,0,4,,,,3,,72,96
20364,note_on,,,,,2,0,3,,,,2,,81,96
20374,note_off,,,,,10,0,3,,,,2,,81,0
20374,note_off,,,,,10,0,4,,,,3,,72,0
20376,note_on,,,,,2,0,4,,,,3,,74,96
20376,note_on,,,,,2,0,3,,,,2,,82,96
20386,note_off,,,,,10,0,3,,,,2,,82,0
20386,note_off,,,,,10,0,4,,,,3,,74,0
20388,note_on,,,,,2,0,3,,,,2,,81,96
20388,note_on,,,,,2,0,4,,,,3,,72,96
20398,note_off,,,,,10,0,4,,,,3,,72,0
20398,note_off,,,,,10,0,3,,,,2,,81,0
20400,note_on,,,,,2,0,4,,,,3,,74,96
20400,note_on,,,,,2,0,3,,,,2,,82,96
20410,note_off,,,,,10,0,3,,,,2,,82,0
20410,note_off,,,,,10,0,4,,,,3,,74,0
20412,note_on,,,,,2,0,3,,,,2,,81,96
20412,note_on,,,,,2,0,4,,,,3,,72,96
20422,note_off,,,,,10,0,4,,,,3,,72,0
20422,note_off,,,,,10,0,3,,,,2,,81,0
20424,note_on,,,,,2,0,3,,,,2,,82,96
20424,note_on,,,,,2,0,4,,,,3,,74,96
20434,note_off,,,,,10,0,4,,,,3,,74,0
20434,note_off,,,,,10,0,3,,,,2,,82,0
20436,note_on,,,,,2,0,4,,,,3,,72,96
20436,note_on,,,,,2,0,3,,,,2,,81,96
20436,note_off,,,,,84,0,6,,,,5,,58,0
20446,note_off,,,,,10,0,4,,,,3,,72,0
20446,note_off,,,,,10,0,3,,,,2,,81,0
20448,note_on,,,,,2,0,4,,,,3,,74,96
20448,note_on,,,,,12,0,6,,,,5,,57,62
20448,note_on,,,,,2,0,3,,,,2,,82,96
20458,note_off,,,,,10,0,4,,,,3,,74,0
20458,note_off,,,,,10,0,3,,,,2,,82,0
20460,note_on,,,,,2,0,3,,,,2,,81,96
20460,note_on,,,,,2,0,4,,,,3,,72,96
20470,note_off,,,,,10,0,3,,,,2,,81,0
20470,note_off,,,,,10,0,4,,,,3,,72,0
20472,note_on,,,,,2,0,3,,,,2,,82,96
20472,note_on,,,,,2,0,4,,,,3,,74,96
20482,note_off,,,,,10,0,3,,,,2,,82,0
20482,note_off,,,,,10,0,4,,,,3,,74,0
20484,note_on,,,,,2,0,3,,,,2,,81,96
20484,note_on,,,,,2,0,4,,,,3,,72,96
20494,note_off,,,,,10,0,4,,,,3,,72,0
20494,note_off,,,,,10,0,3,,,,2,,81,0
20496,note_on,,,,,2,0,4,,,,3,,70,96
20496,note_on,,,,,2,0,3,,,,2,,79,96
20517,note_off,,,,,21,0,3,,,,2,,79,0
20517,note_off,,,,,21,0,4,,,,3,,70,0
20520,note_on,,,,,3,0,3,,,,2,,81,96
20520,note_on,,,,,3,0,4,,,,3,,72,96
20532,note_off,,,,,84,0,6,,,,5,,57,0
20541,note_off,,,,,21,0,3,,,,2,,81,0
20541,note_off,,,,,21,0,4,,,,3,,72,0
20544,note_on,,,,,3,0,3,,,,2,,82,96
20544,note_on,,,,,12,0,6,,,,5,,55,62
20544,note_on,,,,,3,0,4,,,,3,,74,96
20628,note_off,,,,,84,0,6,,,,5,,55,0
20628,note_off,,,,,84,0,3,,,,2,,82,0
20628,note_off,,,,,84,0,4,,,,3,,74,0
20640,note_on,,,,,12,0,3,,,,2,,79,96
20640,note_on,,,,,12,0,4,,,,3,,70,96
20640,note_on,,,,,12,0,6,,,,5,,48,62
20724,note_off,,,,,84,0,4,,,,3,,70,0
20724,note_off,,,,,84,0,6,,,,5,,48,0
20724,note_off,,,,,84,0,3,,,,2,,79,0
20736,note_on,,,,,12,0,3,,,,2,,78,96
20736,note_on,,,,,12,0,4,,,,3,,69,96
20736,note_on,,,,,12,0,6,,,,5,,50,62
20820,note_off,,,,,84,0,4,,,,3,,69,0
20820,note_off,,,,,84,0,6,,,,5,,50,0
20820,note_off,,,,,84,0,3,,,,2,,78,0
20832,note_on,,,,,12,0,3,,,,2,,79,96
20832,note_on,,,,,12,0,4,,,,3,,70,96
20832,note_on,,,,,12,0,6,,,,5,,43,62
20916,note_off,,,,,84,0,6,,,,5,,43,0
20928,note_on,,,,,12,0,6,,,,5,,55,62
21012,note_off,,,,,84,0,6,,,,5,,55,0
21024,note_on,,,,,12,0,6,,,,5,,53,62
21108,note_off,,,,,276,0,3,,,,2,,79,0
21108,note_off,,,,,276,0,4,,,,3,,70,0
21108,note_off,,,,,84,0,6,,,,5,,53,0
21120,note_on,,,,,12,0,4,,,,3,,79,96
21120,note_on,,,,,12,0,6,,,,5,,52,62
21120,note_on,,,,,12,0,3,,,,2,,82,96
21204,note_off,,,,,84,0,6,,,,5,,52,0
21216,note_on,,,,,12,0,6,,,,5,,50,62
21300,note_off,,,,,84,0,6,,,,5,,50,0
21312,note_on,,,,,12,0,6,,,,5,,48,62
21396,note_off,,,,,84,0,6,,,,5,,48,0
21396,note_off,,,,,276,0,3,,,,2,,82,0
21408,note_on,,,,,12,0,6,,,,5,,41,62
21408,note_on,,,,,12,0,3,,,,2,,81,96
21492,note_off,,,,,84,0,6,,,,5,,41,0
21504,note_on,,,,,12,0,6,,,,5,,53,62
21588,note_off,,,,,84,0,6,,,,5,,53,0
21600,note_on,,,,,12,0,6,,,,5,,52,62
21684,note_off,,,,,564,0,4,,,,3,,79,0
21684,note_off,,,,,84,0,6,,,,5,,52,0
21696,note_on,,,,,12,0,4,,,,3,,77,96
21696,note_on,,,,,12,0,6,,,,5,,50,62
21780,note_off,,,,,84,0,6,,,,5,,50,0
21792,note_on,,,,,12,0,6,,,,5,,48,62
21876,note_off,,,,,84,0,6,,,,5,,48,0
21888,note_on,,,,,12,0,6,,,,5,,47,62
21972,note_off,,,,,564,0,3,,,,2,,81,0
21972,note_off,,,,,84,0,6,,,,5,,47,0
21984,note_on,,,,,12,0,6,,,,5,,52,62
21984,note_on,,,,,12,0,3,,,,2,,81,96
21994,note_off,,,,,10,0,3,,,,2,,81,0
21996,note_on,,,,,2,0,3,,,,2,,79,96
22006,note_off,,,,,10,0,3,,,,2,,79,0
22008,note_on,,,,,2,0,3,,,,2,,81,96
22018,note_off,,,,,10,0,3,,,,2,,81,0
22020,note_on,,,,,2,0,3,,,,2,,79,96
22030,note_off,,,,,10,0,3,,,,2,,79,0
22032,note_on,,,,,2,0,3,,,,2,,81,96
22042,note_off,,,,,10,0,3,,,,2,,81,0
22044,note_on,,,,,2,0,3,,,,2,,79,96
22054,note_off,,,,,10,0,3,,,,2,,79,0
22056,note_on,,,,,2,0,3,,,,2,,81,96
22066,note_off,,,,,10,0,3,,,,2,,81,0
22068,note_on,,,,,2,0,3,,,,2,,79,96
22068,note_off,,,,,84,0,6,,,,5,,52,0
22068,note_off,,,,,372,0,4,,,,3,,77,0
22078,note_off,,,,,10,0,3,,,,2,,79,0
22080,note_on,,,,,12,0,4,,,,3,,76,96
22080,note_on,,,,,2,0,3,,,,2,,81,96
22080,note_on,,,,,12,0,6,,,,5,,50,62
22090,note_off,,,,,10,0,3,,,,2,,81,0
22092,note_on,,,,,2,0,3,,,,2,,79,96
22102,note_off,,,,,10,0,3,,,,2,,79,0
22104,note_on,,,,,2,0,3,,,,2,,81,96
22114,note_off,,,,,10,0,3,,,,2,,81,0
22116,note_on,,,,,2,0,3,,,,2,,79,96
22122,note_off,,,,,42,0,4,,,,3,,76,0
22126,note_off,,,,,10,0,3,,,,2,,79,0
22128,note_on,,,,,2,0,3,,,,2,,77,96
22128,note_on,,,,,6,0,4,,,,3,,74,96
22149,note_off,,,,,21,0,3,,,,2,,77,0
22152,note_on,,,,,3,0,3,,,,2,,79,96
22164,note_off,,,,,84,0,6,,,,5,,50,0
22170,note_off,,,,,42,0,4,,,,3,,74,0
22173,note_off,,,,,21,0,3,,,,2,,79,0
22176,note_on,,,,,3,0,3,,,,2,,81,96
22176,note_on,,,,,12,0,6,,,,5,,49,62
22176,note_on,,,,,6,0,4,,,,3,,76,96
22260,note_off,,,,,84,0,3,,,,2,,81,0
22260,note_off,,,,,84,0,6,,,,5,,49,0
22260,note_off,,,,,84,0,4,,,,3,,76,0
22272,note_on,,,,,12,0,3,,,,2,,77,96
22272,note_on,,,,,12,0,6,,,,5,,50,62
22272,note_on,,,,,12,0,4,,,,3,,69,96
22356,note_off,,,,,84,0,6,,,,5,,50,0
22368,note_on,,,,,12,0,6,,,,5,,48,62
22452,note_off,,,,,180,0,4,,,,3,,69,0
22452,note_off,,,,,84,0,6,,,,5,,48,0
22452,note_off,,,,,180,0,3,,,,2,,77,0
22464,note_on,,,,,12,0,4,,,,3,,70,96
22464,note_on,,,,,12,0,6,,,,5,,46,62
22464,note_on,,,,,12,0,3,,,,2,,79,96
22548,note_off,,,,,84,0,3,,,,2,,79,0
22548,note_off,,,,,84,0,6,,,,5,,46,0
22548,note_off,,,,,84,0,4,,,,3,,70,0
22560,note_on,,,,,12,0,4,,,,3,,67,96
22560,note_on,,,,,12,0,6,,,,5,,48,62
22560,note_on,,,,,12,0,3,,,,2,,76,96
22644,note_off,,,,,84,0,6,,,,5,,48,0
22656,note_on,,,,,12,0,6,,,,5,,46,62
22740,note_off,,,,,180,0,3,,,,2,,76,0
22740,note_off,,,,,84,0,6,,,,5,,46,0
22740,note_off,,,,,180,0,4,,,,3,,67,0
22752,note_on,,,,,12,0,3,,,,2,,77,96
22752,note_on,,,,,12,0,4,,,,3,,69,96
22752,note_on,,,,,12,0,6,,,,5,,45,62
22836,note_off,,,,,84,0,3,,,,2,,77,0
22836,note_off,,,,,84,0,6,,,,5,,45,0
22836,note_off,,,,,84,0,4,,,,3,,69,0
22848,note_on,,,,,12,0,3,,,,2,,74,96
22848,note_on,,,,,12,0,4,,,,3,,65,96
22848,note_on,,,,,12,0,6,,,,5,,46,62
22932,note_off,,,,,84,0,3,,,,2,,74,0
22932,note_off,,,,,84,0,4,,,,3,,65,0
22932,note_off,,,,,84,0,6,,,,5,,46,0
22944,note_on,,,,,12,0,3,,,,2,,82,96
22944,note_on,,,,,12,0,4,,,,3,,74,96
22944,note_on,,,,,12,0,6,,,,5,,45,62
23028,note_off,,,,,84,0,6,,,,5,,45,0
23040,note_on,,,,,12,0,6,,,,5,,43,62
23124,note_off,,,,,180,0,3,,,,2,,82,0
23124,note_off,,,,,180,0,4,,,,3,,74,0
23124,note_off,,,,,84,0,6,,,,5,,43,0
23136,note_on,,,,,12,0,6,,,,5,,48,62
23136,note_on,,,,,12,0,4,,,,3,,77,96
23136,note_on,,,,,12,0,3,,,,2,,81,96
23146,note_off,,,,,10,0,3,,,,2,,81,0
23146,note_off,,,,,10,0,4,,,,3,,77,0
23148,note_on,,,,,2,0,3,,,,2,,79,96
23148,note_on,,,,,2,0,4,,,,3,,76,96
23158,note_off,,,,,10,0,3,,,,2,,79,0
23158,note_off,,,,,10,0,4,,,,3,,76,0
23160,note_on,,,,,2,0,4,,,,3,,77,96
23160,note_on,,,,,2,0,3,,,,2,,81,96
23170,note_off,,,,,10,0,3,,,,2,,81,0
23170,note_off,,,,,10,0,4,,,,3,,77,0
23172,note_on,,,,,2,0,3,,,,2,,79,96
23172,note_on,,,,,2,0,4,,,,3,,76,96
23182,note_off,,,,,10,0,3,,,,2,,79,0
23182,note_off,,,,,10,0,4,,,,3,,76,0
23184,note_on,,,,,2,0,4,,,,3,,77,96
23184,note_on,,,,,2,0,3,,,,2,,81,96
23194,note_off,,,,,10,0,4,,,,3,,77,0
23194,note_off,,,,,10,0,3,,,,2,,81,0
23196,note_on,,,,,2,0,4,,,,3,,76,96
23196,note_on,,,,,2,0,3,,,,2,,79,96
23206,note_off,,,,,10,0,4,,,,3,,76,0
23206,note_off,,,,,10,0,3,,,,2,,79,0
23208,note_on,,,,,2,0,4,,,,3,,77,96
23208,note_on,,,,,2,0,3,,,,2,,81,96
23218,note_off,,,,,10,0,4,,,,3,,77,0
23218,note_off,,,,,10,0,3,,,,2,,81,0
23220,note_off,,,,,84,0,6,,,,5,,48,0
23220,note_on,,,,,2,0,4,,,,3,,76,96
23220,note_on,,,,,2,0,3,,,,2,,79,96
23230,note_off,,,,,10,0,4,,,,3,,76,0
23230,note_off,,,,,10,0,3,,,,2,,79,0
23232,note_on,,,,,12,0,6,,,,5,,36,62
23232,note_on,,,,,2,0,3,,,,2,,81,96
23232,note_on,,,,,2,0,4,,,,3,,77,96
23242,note_off,,,,,10,0,3,,,,2,,81,0
23242,note_off,,,,,10,0,4,,,,3,,77,0
23244,note_on,,,,,2,0,3,,,,2,,79,96
23244,note_on,,,,,2,0,4,,,,3,,76,96
23254,note_off,,,,,10,0,3,,,,2,,79,0
23254,note_off,,,,,10,0,4,,,,3,,76,0
23256,note_on,,,,,2,0,3,,,,2,,81,96
23256,note_on,,,,,2,0,4,,,,3,,77,96
23266,note_off,,,,,10,0,4,,,,3,,77,0
23266,note_off,,,,,10,0,3,,,,2,,81,0
23268,note_on,,,,,2,0,3,,,,2,,79,96
23268,note_on,,,,,2,0,4,,,,3,,74,96
23278,note_off,,,,,10,0,3,,,,2,,79,0
23280,note_on,,,,,2,0,3,,,,2,,77,96
23289,note_off,,,,,21,0,4,,,,3,,74,0
23292,note_on,,,,,3,0,4,,,,3,,76,96
23301,note_off,,,,,21,0,3,,,,2,,77,0
23304,note_on,,,,,3,0,3,,,,2,,79,96
23313,note_off,,,,,21,0,4,,,,3,,76,0
23316,note_on,,,,,3,0,4,,,,3,,77,96
23316,note_off,,,,,84,0,6,,,,5,,36,0
23325,note_off,,,,,21,0,3,,,,2,,79,0
23328,note_on,,,,,12,0,6,,,,5,,41,62
23328,note_on,,,,,3,0,3,,,,2,,81,96
23400,note_off,,,,,84,0,4,,,,3,,77,0
23412,note_off,,,,,84,0,6,,,,5,,41,0
23412,note_off,,,,,84,0,3,,,,2,,81,0
23424,note_on,,,,,12,0,3,,,,2,,74,96
23424,note_on,,,,,24,0,4,,,,3,,65,96
23424,note_on,,,,,12,0,6,,,,5,,46,62
23508,note_off,,,,,84,0,6,,,,5,,46,0
23520,note_on,,,,,12,0,6,,,,5,,45,62
23604,note_off,,,,,180,0,4,,,,3,,65,0
23604,note_off,,,,,84,0,6,,,,5,,45,0
23604,note_off,,,,,180,0,3,,,,2,,74,0
23616,note_on,,,,,12,0,3,,,,2,,76,96
23616,note_on,,,,,12,0,4,,,,3,,67,96
23616,note_on,,,,,12,0,6,,,,5,,43,62
23700,note_off,,,,,84,0,3,,,,2,,76,0
23700,note_off,,,,,84,0,4,,,,3,,67,0
23700,note_off,,,,,84,0,6,,,,5,,43,0
23712,note_on,,,,,12,0,3,,,,2,,73,96
23712,note_on,,,,,12,0,4,,,,3,,64,96
23712,note_on,,,,,12,0,6,,,,5,,45,62
23754,note_off,,,,,42,0,3,,,,2,,73,0
23760,note_on,,,,,6,0,3,,,,2,,76,96
23796,note_off,,,,,84,0,6,,,,5,,45,0
23802,note_off,,,,,42,0,3,,,,2,,76,0
23808,note_on,,,,,6,0,3,,,,2,,79,96
23808,note_on,,,,,12,0,6,,,,5,,49,62
23892,note_off,,,,,84,0,6,,,,5,,49,0
23892,note_off,,,,,180,0,4,,,,3,,64,0
23904,note_on,,,,,12,0,4,,,,3,,74,96
23904,note_on,,,,,12,0,6,,,,5,,45,62
23914,note_off,,,,,10,0,4,,,,3,,74,0
23916,note_on,,,,,2,0,4,,,,3,,73,96
23926,note_off,,,,,10,0,4,,,,3,,73,0
23928,note_on,,,,,2,0,4,,,,3,,74,96
23938,note_off,,,,,10,0,4,,,,3,,74,0
23940,note_off,,,,,132,0,3,,,,2,,79,0
23940,note_on,,,,,2,0,4,,,,3,,73,96
23950,note_off,,,,,10,0,4,,,,3,,73,0
23952,note_on,,,,,12,0,3,,,,2,,81,96
23952,note_on,,,,,2,0,4,,,,3,,74,96
23962,note_off,,,,,10,0,4,,,,3,,74,0
23964,note_on,,,,,2,0,4,,,,3,,73,96
23974,note_off,,,,,10,0,4,,,,3,,73,0
23976,note_on,,,,,2,0,4,,,,3,,74,96
23986,note_off,,,,,10,0,4,,,,3,,74,0
23988,note_off,,,,,84,0,6,,,,5,,45,0
23988,note_on,,,,,2,0,4,,,,3,,73,96
23994,note_off,,,,,42,0,3,,,,2,,81,0
23998,note_off,,,,,10,0,4,,,,3,,73,0
24000,note_on,,,,,2,0,4,,,,3,,74,96
24000,note_on,,,,,6,0,3,,,,2,,79,96
24000,note_on,,,,,12,0,6,,,,5,,50,62
24042,note_off,,,,,42,0,4,,,,3,,74,0
24042,note_off,,,,,42,0,3,,,,2,,79,0
24048,note_on,,,,,6,0,4,,,,3,,69,96
24048,note_on,,,,,6,0,3,,,,2,,77,96
24084,note_off,,,,,84,0,6,,,,5,,50,0
24090,note_off,,,,,42,0,4,,,,3,,69,0
24090,note_off,,,,,42,0,3,,,,2,,77,0
24096,note_on,,,,,6,0,3,,,,2,,76,96
24096,note_on,,,,,12,0,6,,,,5,,57,62
24096,note_on,,,,,6,0,4,,,,3,,67,96
24138,note_off,,,,,42,0,3,,,,2,,76,0
24138,note_off,,,,,42,0,4,,,,3,,67,0
24144,note_on,,,,,6,0,4,,,,3,,65,96
24144,note_on,,,,,6,0,3,,,,2,,74,96
24180,note_off,,,,,84,0,6,,,,5,,57,0
24186,note_off,,,,,42,0,3,,,,2,,74,0
24186,note_off,,,,,42,0,4,,,,3,,65,0
24192,note_on,,,,,6,0,3,,,,2,,76,96
24192,note_on,,,,,12,0,6,,,,5,,45,62
24192,note_on,,,,,6,0,4,,,,3,,67,96
24234,note_off,,,,,42,0,4,,,,3,,67,0
24234,note_off,,,,,42,0,3,,,,2,,76,0
24240,note_on,,,,,6,0,4,,,,3,,64,96
24240,note_on,,,,,6,0,3,,,,2,,73,96
24276,note_off,,,,,84,0,6,,,,5,,45,0
24282,note_off,,,,,42,0,4,,,,3,,64,0
24282,note_off,,,,,42,0,3,,,,2,,73,0
24288,note_on,,,,,6,0,4,,,,3,,65,96
24288,note_on,,,,,12,0,6,,,,5,,38,62
24288,note_on,,,,,6,0,3,,,,2,,74,96
24372,note_off,,,,,84,0,6,,,,5,,38,0
24384,note_on,,,,,12,0,6,,,,5,,50,62
24426,note_off,,,,,42,0,6,,,,5,,50,0
24432,note_on,,,,,6,0,6,,,,5,,52,62
24474,note_off,,,,,42,0,6,,,,5,,52,0
24480,note_on,,,,,6,0,6,,,,5,,53,62
24522,note_off,,,,,42,0,6,,,,5,,53,0
24528,note_on,,,,,6,0,6,,,,5,,50,62
24564,note_off,,,,,276,0,3,,,,2,,74,0
24564,note_off,,,,,276,0,4,,,,3,,65,0
24570,note_off,,,,,42,0,6,,,,5,,50,0
24576,note_on,,,,,12,0,3,,,,2,,76,96
24576,note_on,,,,,12,0,4,,,,3,,73,96
24576,note_on,,,,,6,0,6,,,,5,,57,62
24660,note_off,,,,,84,0,6,,,,5,,57,0
24672,note_on,,,,,12,0,6,,,,5,,55,62
24756,note_off,,,,,180,0,3,,,,2,,76,0
24756,note_off,,,,,180,0,4,,,,3,,73,0
24756,note_off,,,,,84,0,6,,,,5,,55,0
24768,note_on,,,,,12,0,6,,,,5,,53,62
24768,note_on,,,,,12,0,4,,,,3,,74,96
24768,note_on,,,,,12,0,3,,,,2,,77,96
24852,note_off,,,,,84,0,4,,,,3,,74,0
24852,note_off,,,,,84,0,3,,,,2,,77,0
24852,note_off,,,,,84,0,6,,,,5,,53,0
24864,note_on,,,,,12,0,6,,,,5,,52,62
24864,note_on,,,,,12,0,4,,,,3,,76,96
24864,note_on,,,,,12,0,3,,,,2,,79,96
24948,note_off,,,,,84,0,4,,,,3,,76,0
24948,note_off,,,,,84,0,6,,,,5,,52,0
24960,note_on,,,,,12,0,6,,,,5,,57,62
24960,note_on,,,,,12,0,4,,,,3,,72,96
25044,note_off,,,,,180,0,3,,,,2,,79,0
25044,note_off,,,,,84,0,6,,,,5,,57,0
25056,note_on,,,,,12,0,6,,,,5,,45,62
25056,note_on,,,,,12,0,3,,,,2,,76,96
25140,note_off,,,,,84,0,3,,,,2,,76,0
25140,note_off,,,,,84,0,6,,,,5,,45,0
25152,note_on,,,,,12,0,6,,,,5,,50,62
25152,note_on,,,,,12,0,3,,,,2,,77,96
25236,note_off,,,,,84,0,6,,,,5,,50,0
25236,note_off,,,,,84,0,3,,,,2,,77,0
25236,note_off,,,,,276,0,4,,,,3,,72,0
25248,note_on,,,,,12,0,4,,,,3,,72,96
25248,note_on,,,,,12,0,6,,,,5,,55,62
25248,note_on,,,,,12,0,3,,,,2,,74,96
25258,note_off,,,,,10,0,4,,,,3,,72,0
25260,note_on,,,,,2,0,4,,,,3,,71,96
25270,note_off,,,,,10,0,4,,,,3,,71,0
25272,note_on,,,,,2,0,4,,,,3,,72,96
25282,note_off,,,,,10,0,4,,,,3,,72,0
25284,note_on,,,,,2,0,4,,,,3,,71,96
25290,note_off,,,,,42,0,3,,,,2,,74,0
25294,note_off,,,,,10,0,4,,,,3,,71,0
25296,note_on,,,,,6,0,3,,,,2,,76,96
25296,note_on,,,,,2,0,4,,,,3,,72,96
25306,note_off,,,,,10,0,4,,,,3,,72,0
25306,note_off,,,,,10,0,3,,,,2,,76,0
25308,note_on,,,,,2,0,3,,,,2,,74,96
25308,note_on,,,,,2,0,4,,,,3,,71,96
25318,note_off,,,,,10,0,3,,,,2,,74,0
25318,note_off,,,,,10,0,4,,,,3,,71,0
25320,note_on,,,,,2,0,3,,,,2,,76,96
25320,note_on,,,,,2,0,4,,,,3,,72,96
25330,note_off,,,,,10,0,4,,,,3,,72,0
25330,note_off,,,,,10,0,3,,,,2,,76,0
25332,note_on,,,,,2,0,3,,,,2,,74,96
25332,note_on,,,,,2,0,4,,,,3,,71,96
25332,note_off,,,,,84,0,6,,,,5,,55,0
25342,note_off,,,,,10,0,3,,,,2,,74,0
25342,note_off,,,,,10,0,4,,,,3,,71,0
25344,note_on,,,,,2,0,4,,,,3,,72,96
25344,note_on,,,,,12,0,6,,,,5,,43,62
25344,note_on,,,,,2,0,3,,,,2,,79,96
25354,note_off,,,,,10,0,4,,,,3,,72,0
25356,note_on,,,,,2,0,4,,,,3,,71,96
25366,note_off,,,,,10,0,4,,,,3,,71,0
25368,note_on,,,,,2,0,4,,,,3,,72,96
25378,note_off,,,,,10,0,4,,,,3,,72,0
25380,note_on,,,,,2,0,4,,,,3,,71,96
25390,note_off,,,,,10,0,4,,,,3,,71,0
25392,note_on,,,,,2,0,4,,,,3,,69,96
25413,note_off,,,,,21,0,4,,,,3,,69,0
25416,note_on,,,,,3,0,4,,,,3,,71,96
25428,note_off,,,,,84,0,3,,,,2,,79,0
25428,note_off,,,,,84,0,6,,,,5,,43,0
25437,note_off,,,,,21,0,4,,,,3,,71,0
25440,note_on,,,,,12,0,3,,,,2,,77,96
25440,note_on,,,,,12,0,6,,,,5,,48,62
25440,note_on,,,,,3,0,4,,,,3,,72,96
25482,note_off,,,,,42,0,3,,,,2,,77,0
25488,note_on,,,,,6,0,3,,,,2,,76,96
25524,note_off,,,,,84,0,4,,,,3,,72,0
25530,note_off,,,,,42,0,3,,,,2,,76,0
25536,note_on,,,,,6,0,3,,,,2,,74,96
25536,note_on,,,,,12,0,4,,,,3,,67,96
25578,note_off,,,,,42,0,3,,,,2,,74,0
25584,note_on,,,,,6,0,3,,,,2,,76,96
25620,note_off,,,,,84,0,4,,,,3,,67,0
25626,note_off,,,,,42,0,3,,,,2,,76,0
25632,note_on,,,,,6,0,3,,,,2,,72,96
25632,note_on,,,,,12,0,4,,,,3,,64,96
25674,note_off,,,,,42,0,4,,,,3,,64,0
25674,note_off,,,,,42,0,3,,,,2,,72,0
25680,note_on,,,,,6,0,4,,,,3,,65,96
25680,note_on,,,,,6,0,3,,,,2,,74,96
25722,note_off,,,,,42,0,3,,,,2,,74,0
25722,note_off,,,,,42,0,4,,,,3,,65,0
25728,note_on,,,,,6,0,3,,,,2,,76,96
25728,note_on,,,,,6,0,4,,,,3,,67,96
25770,note_off,,,,,42,0,4,,,,3,,67,0
25770,note_off,,,,,42,0,3,,,,2,,76,0
25776,note_on,,,,,6,0,3,,,,2,,78,96
25776,note_on,,,,,6,0,4,,,,3,,69,96
25818,note_off,,,,,42,0,3,,,,2,,78,0
25818,note_off,,,,,42,0,4,,,,3,,69,0
25824,note_on,,,,,6,0,4,,,,3,,70,96
25824,note_on,,,,,6,0,3,,,,2,,79,96
25834,note_off,,,,,10,0,3,,,,2,,79,0
25834,note_off,,,,,10,0,4,,,,3,,70,0
25836,note_on,,,,,2,0,3,,,,2,,78,96
25836,note_on,,,,,2,0,4,,,,3,,69,96
25846,note_off,,,,,10,0,3,,,,2,,78,0
25846,note_off,,,,,10,0,4,,,,3,,69,0
25848,note_on,,,,,2,0,4,,,,3,,70,96
25848,note_on,,,,,2,0,3,,,,2,,79,96
25858,note_off,,,,,10,0,3,,,,2,,79,0
25858,note_off,,,,,10,0,4,,,,3,,70,0
25860,note_on,,,,,2,0,3,,,,2,,78,96
25860,note_on,,,,,2,0,4,,,,3,,69,96
25870,note_off,,,,,10,0,4,,,,3,,69,0
25870,note_off,,,,,10,0,3,,,,2,,78,0
25872,note_on,,,,,2,0,3,,,,2,,79,96
25872,note_on,,,,,2,0,4,,,,3,,70,96
25882,note_off,,,,,10,0,4,,,,3,,70,0
25882,note_off,,,,,10,0,3,,,,2,,79,0
25884,note_on,,,,,2,0,3,,,,2,,78,96
25884,note_on,,,,,2,0,4,,,,3,,69,96
25894,note_off,,,,,10,0,3,,,,2,,78,0
25894,note_off,,,,,10,0,4,,,,3,,69,0
25896,note_on,,,,,2,0,3,,,,2,,79,96
25896,note_on,,,,,2,0,4,,,,3,,70,96
25906,note_off,,,,,10,0,4,,,,3,,70,0
25906,note_off,,,,,10,0,3,,,,2,,79,0
25908,note_on,,,,,2,0,3,,,,2,,78,96
25908,note_on,,,,,2,0,4,,,,3,,69,96
25918,note_off,,,,,10,0,3,,,,2,,78,0
25918,note_off,,,,,10,0,4,,,,3,,69,0
25920,note_on,,,,,2,0,3,,,,2,,79,96
25920,note_on,,,,,2,0,4,,,,3,,70,96
25930,note_off,,,,,10,0,3,,,,2,,79,0
25930,note_off,,,,,10,0,4,,,,3,,70,0
25932,note_on,,,,,2,0,3,,,,2,,78,96
25932,note_on,,,,,2,0,4,,,,3,,69,96
25942,note_off,,,,,10,0,4,,,,3,,69,0
25942,note_off,,,,,10,0,3,,,,2,,78,0
25944,note_on,,,,,2,0,4,,,,3,,70,96
25944,note_on,,,,,2,0,3,,,,2,,79,96
25954,note_off,,,,,10,0,4,,,,3,,70,0
25954,note_off,,,,,10,0,3,,,,2,,79,0
25956,note_on,,,,,2,0,4,,,,3,,69,96
25956,note_on,,,,,2,0,3,,,,2,,78,96
25966,note_off,,,,,10,0,4,,,,3,,69,0
25966,note_off,,,,,10,0,3,,,,2,,78,0
25968,note_on,,,,,2,0,3,,,,2,,76,96
25968,note_on,,,,,2,0,4,,,,3,,67,96
25989,note_off,,,,,21,0,3,,,,2,,76,0
25989,note_off,,,,,21,0,4,,,,3,,67,0
25992,note_on,,,,,3,0,3,,,,2,,78,96
25992,note_on,,,,,3,0,4,,,,3,,69,96
26004,note_off,,,,,564,0,6,,,,5,,48,0
26013,note_off,,,,,21,0,3,,,,2,,78,0
26013,note_off,,,,,21,0,4,,,,3,,69,0
26016,note_on,,,,,3,0,3,,,,2,,79,96
26016,note_on,,,,,3,0,4,,,,3,,70,96
26016,note_on,,,,,12,0,6,,,,5,,46,62
26058,note_off,,,,,42,0,3,,,,2,,79,0
26058,note_off,,,,,42,0,4,,,,3,,70,0
26064,note_on,,,,,6,0,4,,,,3,,72,96
26064,note_on,,,,,6,0,3,,,,2,,81,96
26100,note_off,,,,,84,0,6,,,,5,,46,0
26106,note_off,,,,,42,0,4,,,,3,,72,0
26106,note_off,,,,,42,0,3,,,,2,,81,0
26112,note_on,,,,,12,0,6,,,,5,,58,62
26112,note_on,,,,,6,0,3,,,,2,,82,96
26112,note_on,,,,,6,0,4,,,,3,,74,96
26122,note_off,,,,,10,0,3,,,,2,,82,0
26122,note_off,,,,,10,0,4,,,,3,,74,0
26124,note_on,,,,,2,0,4,,,,3,,72,96
26124,note_on,,,,,2,0,3,,,,2,,81,96
26134,note_off,,,,,10,0,3,,,,2,,81,0
26134,note_off,,,,,10,0,4,,,,3,,72,0
26136,note_on,,,,,2,0,3,,,,2,,82,96
26136,note_on,,,,,2,0,4,,,,3,,74,96
26146,note_off,,,,,10,0,4,,,,3,,74,0
26146,note_off,,,,,10,0,3,,,,2,,82,0
26148,note_on,,,,,2,0,3,,,,2,,81,96
26148,note_on,,,,,2,0,4,,,,3,,72,96
26158,note_off,,,,,10,0,4,,,,3,,72,0
26158,note_off,,,,,10,0,3,,,,2,,81,0
26160,note_on,,,,,2,0,3,,,,2,,82,96
26160,note_on,,,,,2,0,4,,,,3,,74,96
26170,note_off,,,,,10,0,4,,,,3,,74,0
26170,note_off,,,,,10,0,3,,,,2,,82,0
26172,note_on,,,,,2,0,3,,,,2,,81,96
26172,note_on,,,,,2,0,4,,,,3,,72,96
26182,note_off,,,,,10,0,4,,,,3,,72,0
26182,note_off,,,,,10,0,3,,,,2,,81,0
26184,note_on,,,,,2,0,3,,,,2,,82,96
26184,note_on,,,,,2,0,4,,,,3,,74,96
26194,note_off,,,,,10,0,3,,,,2,,82,0
26194,note_off,,,,,10,0,4,,,,3,,74,0
26196,note_on,,,,,2,0,4,,,,3,,72,96
26196,note_on,,,,,2,0,3,,,,2,,81,96
26196,note_off,,,,,84,0,6,,,,5,,58,0
26206,note_off,,,,,10,0,3,,,,2,,81,0
26206,note_off,,,,,10,0,4,,,,3,,72,0
26208,note_on,,,,,2,0,3,,,,2,,82,96
26208,note_on,,,,,2,0,4,,,,3,,74,96
26208,note_on,,,,,12,0,6,,,,5,,57,62
26218,note_off,,,,,10,0,3,,,,2,,82,0
26218,note_off,,,,,10,0,4,,,,3,,74,0
26220,note_on,,,,,2,0,3,,,,2,,81,96
26220,note_on,,,,,2,0,4,,,,3,,72,96
26230,note_off,,,,,10,0,3,,,,2,,81,0
26230,note_off,,,,,10,0,4,,,,3,,72,0
26232,note_on,,,,,2,0,3,,,,2,,82,96
26232,note_on,,,,,2,0,4,,,,3,,74,96
26242,note_off,,,,,10,0,4,,,,3,,74,0
26242,note_off,,,,,10,0,3,,,,2,,82,0
26244,note_on,,,,,2,0,4,,,,3,,72,96
26244,note_on,,,,,2,0,3,,,,2,,81,96
26254,note_off,,,,,10,0,4,,,,3,,72,0
26254,note_off,,,,,10,0,3,,,,2,,81,0
26256,note_on,,,,,2,0,3,,,,2,,79,96
26256,note_on,,,,,2,0,4,,,,3,,70,96
26277,note_off,,,,,21,0,4,,,,3,,70,0
26277,note_off,,,,,21,0,3,,,,2,,79,0
26280,note_on,,,,,3,0,3,,,,2,,81,96
26280,note_on,,,,,3,0,4,,,,3,,72,96
26292,note_off,,,,,84,0,6,,,,5,,57,0
26301,note_off,,,,,21,0,3,,,,2,,81,0
26301,note_off,,,,,21,0,4,,,,3,,72,0
26304,note_on,,,,,3,0,3,,,,2,,82,96
26304,note_on,,,,,12,0,6,,,,5,,55,62
26304,note_on,,,,,3,0,4,,,,3,,74,96
26388,note_off,,,,,84,0,4,,,,3,,74,0
26388,note_off,,,,,84,0,6,,,,5,,55,0
26388,note_off,,,,,84,0,3,,,,2,,82,0
26400,note_on,,,,,12,0,4,,,,3,,70,96
26400,note_on,,,,,12,0,3,,,,2,,79,96
26400,note_on,,,,,12,0,6,,,,5,,48,62
26484,note_off,,,,,84,0,4,,,,3,,70,0
26484,note_off,,,,,84,0,3,,,,2,,79,0
26484,note_off,,,,,84,0,6,,,,5,,48,0
26496,note_on,,,,,12,0,4,,,,3,,69,96
26496,note_on,,,,,12,0,6,,,,5,,50,62
26496,note_on,,,,,12,0,3,,,,2,,78,96
26580,note_off,,,,,84,0,6,,,,5,,50,0
26580,note_off,,,,,84,0,4,,,,3,,69,0
26580,note_off,,,,,84,0,3,,,,2,,78,0
26592,note_on,,,,,12,0,4,,,,3,,70,96
26592,note_on,,,,,12,0,6,,,,5,,43,62
26592,note_on,,,,,12,0,3,,,,2,,79,96
26676,note_off,,,,,84,0,6,,,,5,,43,0
26688,note_on,,,,,12,0,6,,,,5,,55,62
26772,note_off,,,,,84,0,6,,,,5,,55,0
26784,note_on,,,,,12,0,6,,,,5,,53,62
26868,note_off,,,,,84,0,6,,,,5,,53,0
26868,note_off,,,,,276,0,4,,,,3,,70,0
26868,note_off,,,,,276,0,3,,,,2,,79,0
26880,note_on,,,,,12,0,6,,,,5,,52,62
26880,note_on,,,,,12,0,4,,,,3,,79,96
26880,note_on,,,,,12,0,3,,,,2,,82,96
26964,note_off,,,,,84,0,6,,,,5,,52,0
26976,note_on,,,,,12,0,6,,,,5,,50,62
27060,note_off,,,,,84,0,6,,,,5,,50,0
27072,note_on,,,,,12,0,6,,,,5,,48,62
27156,note_off,,,,,276,0,3,,,,2,,82,0
27156,note_off,,,,,84,0,6,,,,5,,48,0
27168,note_on,,,,,12,0,6,,,,5,,41,62
27168,note_on,,,,,12,0,3,,,,2,,81,96
27252,note_off,,,,,84,0,6,,,,5,,41,0
27264,note_on,,,,,12,0,6,,,,5,,53,62
27348,note_off,,,,,84,0,6,,,,5,,53,0
27360,note_on,,,,,12,0,6,,,,5,,52,62
27444,note_off,,,,,84,0,6,,,,5,,52,0
27444,note_off,,,,,564,0,4,,,,3,,79,0
27456,note_on,,,,,12,0,6,,,,5,,50,62
27456,note_on,,,,,12,0,4,,,,3,,77,96
27540,note_off,,,,,84,0,6,,,,5,,50,0
27552,note_on,,,,,12,0,6,,,,5,,48,62
27636,note_off,,,,,84,0,6,,,,5,,48,0
27648,note_on,,,,,12,0,6,,,,5,,47,62
27732,note_off,,,,,84,0,6,,,,5,,47,0
27732,note_off,,,,,564,0,3,,,,2,,81,0
27744,note_on,,,,,12,0,6,,,,5,,52,62
27744,note_on,,,,,12,0,3,,,,2,,81,96
27754,note_off,,,,,10,0,3,,,,2,,81,0
27756,note_on,,,,,2,0,3,,,,2,,79,96
27766,note_off,,,,,10,0,3,,,,2,,79,0
27768,note_on,,,,,2,0,3,,,,2,,81,96
27778,note_off,,,,,10,0,3,,,,2,,81,0
27780,note_on,,,,,2,0,3,,,,2,,79,96
27790,note_off,,,,,10,0,3,,,,2,,79,0
27792,note_on,,,,,2,0,3,,,,2,,81,96
27802,note_off,,,,,10,0,3,,,,2,,81,0
27804,note_on,,,,,2,0,3,,,,2,,79,96
27814,note_off,,,,,10,0,3,,,,2,,79,0
27816,note_on,,,,,2,0,3,,,,2,,81,96
27826,note_off,,,,,10,0,3,,,,2,,81,0
27828,note_off,,,,,84,0,6,,,,5,,52,0
27828,note_off,,,,,372,0,4,,,,3,,77,0
27828,note_on,,,,,2,0,3,,,,2,,79,96
27838,note_off,,,,,10,0,3,,,,2,,79,0
27840,note_on,,,,,12,0,6,,,,5,,50,62
27840,note_on,,,,,2,0,3,,,,2,,81,96
27840,note_on,,,,,12,0,4,,,,3,,76,96
27850,note_off,,,,,10,0,3,,,,2,,81,0
27852,note_on,,,,,2,0,3,,,,2,,79,96
27862,note_off,,,,,10,0,3,,,,2,,79,0
27864,note_on,,,,,2,0,3,,,,2,,81,96
27874,note_off,,,,,10,0,3,,,,2,,81,0
27876,note_on,,,,,2,0,3,,,,2,,79,96
27882,note_off,,,,,42,0,4,,,,3,,76,0
27886,note_off,,,,,10,0,3,,,,2,,79,0
27888,note_on,,,,,6,0,4,,,,3,,74,96
27888,note_on,,,,,2,0,3,,,,2,,77,96
27909,note_off,,,,,21,0,3,,,,2,,77,0
27912,note_on,,,,,3,0,3,,,,2,,79,96
27924,note_off,,,,,84,0,6,,,,5,,50,0
27930,note_off,,,,,42,0,4,,,,3,,74,0
27933,note_off,,,,,21,0,3,,,,2,,79,0
27936,note_on,,,,,12,0,6,,,,5,,49,62
27936,note_on,,,,,6,0,4,,,,3,,76,96
27936,note_on,,,,,3,0,3,,,,2,,81,96
28020,note_off,,,,,84,0,4,,,,3,,76,0
28020,note_off,,,,,84,0,6,,,,5,,49,0
28020,note_off,,,,,84,0,3,,,,2,,81,0
28032,note_on,,,,,12,0,4,,,,3,,69,96
28032,note_on,,,,,12,0,6,,,,5,,50,62
28032,note_on,,,,,12,0,3,,,,2,,77,96
28116,note_off,,,,,84,0,6,,,,5,,50,0
28128,note_on,,,,,12,0,6,,,,5,,48,62
28212,note_off,,,,,180,0,4,,,,3,,69,0
28212,note_off,,,,,84,0,6,,,,5,,48,0
28212,note_off,,,,,180,0,3,,,,2,,77,0
28224,note_on,,,,,12,0,3,,,,2,,79,96
28224,note_on,,,,,12,0,4,,,,3,,70,96
28224,note_on,,,,,12,0,6,,,,5,,46,62
28308,note_off,,,,,84,0,6,,,,5,,46,0
28308,note_off,,,,,84,0,3,,,,2,,79,0
28308,note_off,,,,,84,0,4,,,,3,,70,0
28320,note_on,,,,,12,0,6,,,,5,,48,62
28320,note_on,,,,,12,0,3,,,,2,,76,96
28320,note_on,,,,,12,0,4,,,,3,,67,96
28404,note_off,,,,,84,0,6,,,,5,,48,0
28416,note_on,,,,,12,0,6,,,,5,,46,62
28500,note_off,,,,,84,0,6,,,,5,,46,0
28500,note_off,,,,,180,0,4,,,,3,,67,0
28500,note_off,,,,,180,0,3,,,,2,,76,0
28512,note_on,,,,,12,0,4,,,,3,,69,96
28512,note_on,,,,,12,0,6,,,,5,,45,62
28512,note_on,,,,,12,0,3,,,,2,,77,96
28596,note_off,,,,,84,0,6,,,,5,,45,0
28596,note_off,,,,,84,0,3,,,,2,,77,0
28596,note_off,,,,,84,0,4,,,,3,,69,0
28608,note_on,,,,,12,0,6,,,,5,,46,62
28608,note_on,,,,,12,0,4,,,,3,,65,96
28608,note_on,,,,,12,0,3,,,,2,,74,96
28692,note_off,,,,,84,0,6,,,,5,,46,0
28692,note_off,,,,,84,0,4,,,,3,,65,0
28692,note_off,,,,,84,0,3,,,,2,,74,0
28704,note_on,,,,,12,0,3,,,,2,,82,96
28704,note_on,,,,,12,0,4,,,,3,,74,96
28704,note_on,,,,,12,0,6,,,,5,,45,62
28788,note_off,,,,,84,0,6,,,,5,,45,0
28800,note_on,,,,,12,0,6,,,,5,,43,62
28884,note_off,,,,,180,0,4,,,,3,,74,0
28884,note_off,,,,,84,0,6,,,,5,,43,0
28884,note_off,,,,,180,0,3,,,,2,,82,0
28896,note_on,,,,,12,0,4,,,,3,,77,96
28896,note_on,,,,,12,0,6,,,,5,,48,62
28896,note_on,,,,,12,0,3,,,,2,,81,96
28906,note_off,,,,,10,0,4,,,,3,,77,0
28906,note_off,,,,,10,0,3,,,,2,,81,0
28908,note_on,,,,,2,0,3,,,,2,,79,96
28908,note_on,,,,,2,0,4,,,,3,,76,96
28918,note_off,,,,,10,0,4,,,,3,,76,0
28918,note_off,,,,,10,0,3,,,,2,,79,0
28920,note_on,,,,,2,0,3,,,,2,,81,96
28920,note_on,,,,,2,0,4,,,,3,,77,96
28930,note_off,,,,,10,0,4,,,,3,,77,0
28930,note_off,,,,,10,0,3,,,,2,,81,0
28932,note_on,,,,,2,0,3,,,,2,,79,96
28932,note_on,,,,,2,0,4,,,,3,,76,96
28942,note_off,,,,,10,0,4,,,,3,,76,0
28942,note_off,,,,,10,0,3,,,,2,,79,0
28944,note_on,,,,,2,0,3,,,,2,,81,96
28944,note_on,,,,,2,0,4,,,,3,,77,96
28954,note_off,,,,,10,0,3,,,,2,,81,0
28954,note_off,,,,,10,0,4,,,,3,,77,0
28956,note_on,,,,,2,0,3,,,,2,,79,96
28956,note_on,,,,,2,0,4,,,,3,,76,96
28966,note_off,,,,,10,0,4,,,,3,,76,0
28966,note_off,,,,,10,0,3,,,,2,,79,0
28968,note_on,,,,,2,0,3,,,,2,,81,96
28968,note_on,,,,,2,0,4,,,,3,,77,96
28978,note_off,,,,,10,0,3,,,,2,,81,0
28978,note_off,,,,,10,0,4,,,,3,,77,0
28980,note_off,,,,,84,0,6,,,,5,,48,0
28980,note_on,,,,,2,0,4,,,,3,,76,96
28980,note_on,,,,,2,0,3,,,,2,,79,96
28990,note_off,,,,,10,0,4,,,,3,,76,0
28990,note_off,,,,,10,0,3,,,,2,,79,0
28992,note_on,,,,,2,0,4,,,,3,,77,96
28992,note_on,,,,,12,0,6,,,,5,,36,62
28992,note_on,,,,,2,0,3,,,,2,,81,96
29002,note_off,,,,,10,0,4,,,,3,,77,0
29002,note_off,,,,,10,0,3,,,,2,,81,0
29004,note_on,,,,,2,0,4,,,,3,,76,96
29004,note_on,,,,,2,0,3,,,,2,,79,96
29014,note_off,,,,,10,0,3,,,,2,,79,0
29014,note_off,,,,,10,0,4,,,,3,,76,0
29016,note_on,,,,,2,0,4,,,,3,,77,96
29016,note_on,,,,,2,0,3,,,,2,,81,96
29026,note_off,,,,,10,0,4,,,,3,,77,0
29026,note_off,,,,,10,0,3,,,,2,,81,0
29028,note_on,,,,,2,0,4,,,,3,,74,96
29028,note_on,,,,,2,0,3,,,,2,,79,96
29038,note_off,,,,,10,0,3,,,,2,,79,0
29040,note_on,,,,,2,0,3,,,,2,,77,96
29049,note_off,,,,,21,0,4,,,,3,,74,0
29052,note_on,,,,,3,0,4,,,,3,,76,96
29061,note_off,,,,,21,0,3,,,,2,,77,0
29064,note_on,,,,,3,0,3,,,,2,,79,96
29073,note_off,,,,,21,0,4,,,,3,,76,0
29076,note_on,,,,,3,0,4,,,,3,,77,96
29076,note_off,,,,,84,0,6,,,,5,,36,0
29085,note_off,,,,,21,0,3,,,,2,,79,0
29088,note_on,,,,,12,0,6,,,,5,,41,62
29088,note_on,,,,,3,0,3,,,,2,,81,96
29160,note_off,,,,,84,0,4,,,,3,,77,0
29172,note_off,,,,,84,0,6,,,,5,,41,0
29172,note_off,,,,,84,0,3,,,,2,,81,0
29184,note_on,,,,,24,0,4,,,,3,,65,96
29184,note_on,,,,,12,0,6,,,,5,,46,62
29184,note_on,,,,,12,0,3,,,,2,,74,96
29268,note_off,,,,,84,0,6,,,,5,,46,0
29280,note_on,,,,,12,0,6,,,,5,,45,62
29364,note_off,,,,,180,0,3,,,,2,,74,0
29364,note_off,,,,,84,0,6,,,,5,,45,0
29364,note_off,,,,,180,0,4,,,,3,,65,0
29376,note_on,,,,,12,0,4,,,,3,,67,96
29376,note_on,,,,,12,0,6,,,,5,,43,62
29376,note_on,,,,,12,0,3,,,,2,,76,96
29460,note_off,,,,,84,0,3,,,,2,,76,0
29460,note_off,,,,,84,0,4,,,,3,,67,0
29460,note_off,,,,,84,0,6,,,,5,,43,0
29472,note_on,,,,,12,0,6,,,,5,,45,62
29472,note_on,,,,,12,0,3,,,,2,,73,96
29472,note_on,,,,,12,0,4,,,,3,,64,96
29514,note_off,,,,,42,0,3,,,,2,,73,0
29520,note_on,,,,,6,0,3,,,,2,,76,96
29556,note_off,,,,,84,0,6,,,,5,,45,0
29562,note_off,,,,,42,0,3,,,,2,,76,0
29568,note_on,,,,,6,0,3,,,,2,,79,96
29568,note_on,,,,,12,0,6,,,,5,,49,62
29652,note_off,,,,,180,0,4,,,,3,,64,0
29652,note_off,,,,,84,0,6,,,,5,,49,0
29664,note_on,,,,,12,0,4,,,,3,,74,96
29664,note_on,,,,,12,0,6,,,,5,,45,62
29674,note_off,,,,,10,0,4,,,,3,,74,0
29676,note_on,,,,,2,0,4,,,,3,,73,96
29686,note_off,,,,,10,0,4,,,,3,,73,0
29688,note_on,,,,,2,0,4,,,,3,,74,96
29698,note_off,,,,,10,0,4,,,,3,,74,0
29700,note_on,,,,,2,0,4,,,,3,,73,96
29700,note_off,,,,,132,0,3,,,,2,,79,0
29710,note_off,,,,,10,0,4,,,,3,,73,0
29712,note_on,,,,,12,0,3,,,,2,,81,96
29712,note_on,,,,,2,0,4,,,,3,,74,96
29722,note_off,,,,,10,0,4,,,,3,,74,0
29724,note_on,,,,,2,0,4,,,,3,,73,96
29734,note_off,,,,,10,0,4,,,,3,,73,0
29736,note_on,,,,,2,0,4,,,,3,,74,96
29746,note_off,,,,,10,0,4,,,,3,,74,0
29748,note_off,,,,,84,0,6,,,,5,,45,0
29748,note_on,,,,,2,0,4,,,,3,,73,96
29754,note_off,,,,,42,0,3,,,,2,,81,0
29758,note_off,,,,,10,0,4,,,,3,,73,0
29760,note_on,,,,,6,0,3,,,,2,,79,96
29760,note_on,,,,,12,0,6,,,,5,,50,62
29760,note_on,,,,,2,0,4,,,,3,,74,96
29802,note_off,,,,,42,0,4,,,,3,,74,0
29802,note_off,,,,,42,0,3,,,,2,,79,0
29808,note_on,,,,,6,0,3,,,,2,,77,96
29808,note_on,,,,,6,0,4,,,,3,,69,96
29844,note_off,,,,,84,0,6,,,,5,,50,0
29850,note_off,,,,,42,0,4,,,,3,,69,0
29850,note_off,,,,,42,0,3,,,,2,,77,0
29856,note_on,,,,,6,0,3,,,,2,,76,96
29856,note_on,,,,,12,0,6,,,,5,,57,62
29856,note_on,,,,,6,0,4,,,,3,,67,96
29898,note_off,,,,,42,0,4,,,,3,,67,0
29898,note_off,,,,,42,0,3,,,,2,,76,0
29904,note_on,,,,,6,0,3,,,,2,,74,96
29904,note_on,,,,,6,0,4,,,,3,,65,96
29940,note_off,,,,,84,0,6,,,,5,,57,0
29946,note_off,,,,,42,0,3,,,,2,,74,0
29946,note_off,,,,,42,0,4,,,,3,,65,0
29952,note_on,,,,,12,0,6,,,,5,,45,62
29952,note_on,,,,,6,0,4,,,,3,,67,96
29952,note_on,,,,,6,0,3,,,,2,,76,96
29994,note_off,,,,,42,0,4,,,,3,,67,0
29994,note_off,,,,,42,0,3,,,,2,,76,0
30000,note_on,,,,,6,0,4,,,,3,,64,96
30000,note_on,,,,,6,0,3,,,,2,,73,96
30036,note_off,,,,,84,0,6,,,,5,,45,0
30042,note_off,,,,,42,0,3,,,,2,,73,0
30042,note_off,,,,,42,0,4,,,,3,,64,0
30048,note_on,,,,,6,0,4,,,,3,,65,96
30048,note_on,,,,,6,0,3,,,,2,,74,96
30048,note_on,,,,,12,0,6,,,,5,,38,62
30324,note_off,,,,,276,0,4,,,,3,,65,0
30324,note_off,,,,,276,0,6,,,,5,,38,0
30324,note_off,,,,,276,0,3,,,,2,,74,0
30624,note_on,,,,,0,0,6,,,,5,,57,49
30624,note_on,,,,,0,0,12,,,,13,,65,96
30624,set_tempo,,,,,14112,1,7,428571,,,,,,
30624,note_on,,,,,0,0,13,,,,14,,65,75
30624,note_on,,,,,0,0,12,,,,13,,72,96
30624,note_on,,,,,0,0,12,,,,13,,57,96
30624,note_on,,,,,0,0,4,,,,3,,69,62
30624,set_tempo,,,,,14112,1,13,428571,,,,,,
30624,set_tempo,,,,,14112,1,2,428571,,,,,,
30624,set_tempo,,,,,14112,1,8,428571,,,,,,
30624,note_on,,,,,0,0,9,,,,8,,69,75
30624,note_on,,,,,0,0,11,,,,12,,45,49
30624,set_tempo,,,,,300,1,4,428571,,,,,,
30624,set_tempo,,,,,14112,1,11,428571,,,,,,
30624,set_tempo,,,,,300,1,6,428571,,,,,,
30624,note_on,,,,,0,0,7,,,,6,,72,75
30624,set_tempo,,,,,14112,1,9,428571,,,,,,
30624,note_on,,,,,0,0,3,,,,2,,72,62
30624,note_on,,,,,0,0,5,,,,4,,65,62
30624,set_tempo,,,,,14112,1,0,428571,,,,,,
30624,set_tempo,,,,,14112,1,5,428571,,,,,,
30624,set_tempo,,,,,300,1,3,428571,,,,,,
30624,set_tempo,,,,,14112,1,10,428571,,,,,,
30624,note_on,,,,,0,0,10,,,,11,,57,49
30624,set_tempo,,,,,14112,1,1,428571,,,,,,
30624,note_on,,,,,0,0,8,,,,7,,72,75
30624,set_tempo,,,,,14112,1,12,428571,,,,,,
30624,note_on,,,,,0,0,1,,,,0,,53,127
30708,note_off,,,,,84,0,8,,,,7,,72,0
30708,note_off,,,,,0,0,12,,,,13,,72,0
30708,note_off,,,,,84,0,3,,,,2,,72,0
30708,note_off,,,,,84,0,9,,,,8,,69,0
30708,note_off,,,,,84,0,7,,,,6,,72,0
30708,note_off,,,,,84,0,1,,,,0,,53,0
30708,note_off,,,,,84,0,4,,,,3,,69,0
30708,note_off,,,,,84,0,12,,,,13,,65,0
30720,note_on,,,,,12,0,1,,,,0,,53,127
30720,note_on,,,,,12,0,3,,,,2,,75,62
30720,note_on,,,,,12,0,12,,,,13,,63,96
30720,note_on,,,,,0,0,12,,,,13,,72,96
30720,note_on,,,,,12,0,4,,,,3,,72,62
30720,note_on,,,,,12,0,9,,,,8,,72,75
30720,note_on,,,,,12,0,8,,,,7,,75,75
30720,note_on,,,,,12,0,7,,,,6,,75,75
30762,note_off,,,,,42,0,1,,,,0,,53,0
30768,note_on,,,,,6,0,1,,,,0,,53,127
30804,note_off,,,,,0,0,12,,,,13,,72,0
30804,note_off,,,,,84,0,12,,,,13,,57,0
30804,note_off,,,,,180,0,6,,,,5,,57,0
30804,note_off,,,,,84,0,7,,,,6,,75,0
30804,note_off,,,,,180,0,13,,,,14,,65,0
30804,note_off,,,,,0,0,12,,,,13,,63,0
30804,note_off,,,,,84,0,9,,,,8,,72,0
30804,note_off,,,,,84,0,3,,,,2,,75,0
30804,note_off,,,,,180,0,10,,,,11,,57,0
30804,note_off,,,,,84,0,4,,,,3,,72,0
30804,note_off,,,,,180,0,5,,,,4,,65,0
30804,note_off,,,,,180,0,11,,,,12,,45,0
30804,note_off,,,,,84,0,8,,,,7,,75,0
30810,note_off,,,,,42,0,1,,,,0,,53,0
30816,note_on,,,,,12,0,5,,,,4,,65,62
30816,note_on,,,,,12,0,10,,,,11,,58,49
30816,note_on,,,,,12,0,4,,,,3,,70,62
30816,note_on,,,,,6,0,1,,,,0,,53,127
30816,note_on,,,,,12,0,9,,,,8,,70,75
30816,note_on,,,,,12,0,13,,,,14,,65,75
30816,note_on,,,,,0,0,12,,,,13,,74,96
30816,note_on,,,,,12,0,8,,,,7,,74,75
30816,note_on,,,,,12,0,6,,,,5,,58,49
30816,note_on,,,,,12,0,7,,,,6,,74,75
30816,note_on,,,,,0,0,12,,,,13,,58,96
30816,note_on,,,,,12,0,11,,,,12,,46,49
30816,note_on,,,,,12,0,12,,,,13,,65,96
30816,note_on,,,,,12,0,3,,,,2,,74,62
30858,note_off,,,,,42,0,1,,,,0,,53,0
30864,note_on,,,,,6,0,1,,,,0,,53,127
30900,note_off,,,,,84,0,7,,,,6,,74,0
30900,note_off,,,,,84,0,13,,,,14,,65,0
30900,note_off,,,,,0,0,12,,,,13,,74,0
30900,note_off,,,,,84,0,8,,,,7,,74,0
30900,note_off,,,,,84,0,5,,,,4,,65,0
30900,note_off,,,,,84,0,9,,,,8,,70,0
30900,note_off,,,,,84,0,10,,,,11,,58,0
30900,note_off,,,,,0,0,12,,,,13,,58,0
30900,note_off,,,,,84,0,4,,,,3,,70,0
30900,note_off,,,,,84,0,11,,,,12,,46,0
30900,note_off,,,,,84,0,12,,,,13,,65,0
30900,note_off,,,,,84,0,6,,,,5,,58,0
30900,note_off,,,,,84,0,3,,,,2,,74,0
30906,note_off,,,,,42,0,1,,,,0,,53,0
30912,note_on,,,,,0,0,12,,,,13,,75,96
30912,note_on,,,,,12,0,12,,,,13,,69,96
30912,note_on,,,,,0,0,12,,,,13,,60,96
30912,note_on,,,,,12,0,6,,,,5,,60,49
30912,note_on,,,,,12,0,9,,,,8,,69,75
30912,note_on,,,,,12,0,7,,,,6,,72,75
30912,note_on,,,,,12,0,5,,,,4,,63,62
30912,note_on,,,,,12,0,10,,,,11,,60,49
30912,note_on,,,,,12,0,3,,,,2,,72,62
30912,note_on,,,,,12,0,4,,,,3,,69,62
30912,note_on,,,,,12,0,11,,,,12,,48,49
30912,note_on,,,,,6,0,1,,,,0,,53,127
30912,note_on,,,,,12,0,13,,,,14,,65,75
30912,note_on,,,,,288,0,2,,,,1,,53,127
30912,note_on,,,,,12,0,8,,,,7,,72,75
30922,note_off,,,,,10,0,13,,,,14,,65,0
30924,note_on,,,,,2,0,13,,,,14,,63,75
30934,note_off,,,,,10,0,13,,,,14,,63,0
30936,note_on,,,,,2,0,13,,,,14,,65,75
30946,note_off,,,,,10,0,13,,,,14,,65,0
30948,note_on,,,,,2,0,13,,,,14,,63,75
30958,note_off,,,,,10,0,13,,,,14,,63,0
30960,note_on,,,,,2,0,13,,,,14,,65,75
30970,note_off,,,,,10,0,13,,,,14,,65,0
30972,note_on,,,,,2,0,13,,,,14,,63,75
30982,note_off,,,,,10,0,13,,,,14,,63,0
30984,note_on,,,,,2,0,13,,,,14,,65,75
30994,note_off,,,,,10,0,13,,,,14,,65,0
30996,note_off,,,,,84,0,6,,,,5,,60,0
30996,note_off,,,,,84,0,10,,,,11,,60,0
30996,note_off,,,,,84,0,3,,,,2,,72,0
30996,note_off,,,,,84,0,7,,,,6,,72,0
30996,note_off,,,,,84,0,5,,,,4,,63,0
30996,note_on,,,,,2,0,13,,,,14,,63,75
30996,note_off,,,,,84,0,2,,,,1,,53,0
30996,note_off,,,,,0,0,12,,,,13,,60,0
30996,note_off,,,,,0,0,12,,,,13,,75,0
30996,note_off,,,,,84,0,12,,,,13,,69,0
30996,note_off,,,,,84,0,4,,,,3,,69,0
30996,note_off,,,,,84,0,11,,,,12,,48,0
30996,note_off,,,,,84,0,8,,,,7,,72,0
30996,note_off,,,,,84,0,1,,,,0,,53,0
30996,note_off,,,,,84,0,9,,,,8,,69,0
31006,note_off,,,,,10,0,13,,,,14,,63,0
31008,note_on,,,,,2,0,13,,,,14,,62,75
31008,note_on,,,,,12,0,7,,,,6,,70,75
31008,note_on,,,,,12,0,5,,,,4,,62,62
31008,note_on,,,,,0,0,12,,,,13,,75,96
31008,note_on,,,,,12,0,8,,,,7,,70,75
31008,note_on,,,,,12,0,11,,,,12,,51,49
31008,note_on,,,,,12,0,4,,,,3,,65,62
31008,note_on,,,,,12,0,12,,,,13,,70,96
31008,note_on,,,,,12,0,9,,,,8,,65,75
31008,note_on,,,,,0,0,12,,,,13,,63,96
31008,note_on,,,,,12,0,6,,,,5,,63,49
31008,note_on,,,,,12,0,10,,,,11,,63,49
31008,note_on,,,,,12,0,2,,,,1,,53,127
31008,note_on,,,,,12,0,3,,,,2,,70,62
31050,note_off,,,,,42,0,3,,,,2,,70,0
31050,note_off,,,,,42,0,13,,,,14,,62,0
31050,note_off,,,,,42,0,5,,,,4,,62,0
31050,note_off,,,,,42,0,8,,,,7,,70,0
31050,note_off,,,,,42,0,2,,,,1,,53,0
31050,note_off,,,,,42,0,7,,,,6,,70,0
31056,note_on,,,,,6,0,13,,,,14,,60,75
31056,note_on,,,,,6,0,3,,,,2,,69,62
31056,note_on,,,,,6,0,8,,,,7,,69,75
31056,note_on,,,,,6,0,7,,,,6,,69,75
31056,note_on,,,,,6,0,5,,,,4,,60,62
31056,note_on,,,,,6,0,2,,,,1,,53,127
31092,note_off,,,,,84,0,9,,,,8,,65,0
31092,note_off,,,,,84,0,11,,,,12,,51,0
31092,note_off,,,,,84,0,12,,,,13,,70,0
31092,note_off,,,,,0,0,12,,,,13,,75,0
31092,note_off,,,,,0,0,12,,,,13,,63,0
31092,note_off,,,,,84,0,4,,,,3,,65,0
31092,note_off,,,,,84,0,10,,,,11,,63,0
31092,note_off,,,,,84,0,6,,,,5,,63,0
31098,note_off,,,,,42,0,5,,,,4,,60,0
31098,note_off,,,,,42,0,13,,,,14,,60,0
31098,note_off,,,,,42,0,2,,,,1,,53,0
31098,note_off,,,,,42,0,8,,,,7,,69,0
31098,note_off,,,,,42,0,3,,,,2,,69,0
31098,note_off,,,,,42,0,7,,,,6,,69,0
31104,note_on,,,,,12,0,9,,,,8,,65,75
31104,note_on,,,,,12,0,12,,,,13,,62,96
31104,note_on,,,,,0,0,12,,,,13,,62,96
31104,note_on,,,,,12,0,10,,,,11,,62,49
31104,note_on,,,,,6,0,5,,,,4,,62,62
31104,note_on,,,,,12,0,4,,,,3,,65,62
31104,note_on,,,,,6,0,13,,,,14,,62,75
31104,note_on,,,,,6,0,7,,,,6,,70,75
31104,note_on,,,,,6,0,3,,,,2,,70,62
31104,note_on,,,,,0,0,12,,,,13,,70,96
31104,note_on,,,,,12,0,6,,,,5,,62,49
31104,note_on,,,,,12,0,11,,,,12,,50,49
31104,note_on,,,,,6,0,2,,,,1,,53,127
31104,note_on,,,,,6,0,8,,,,7,,70,75
31146,note_off,,,,,42,0,2,,,,1,,53,0
31152,note_on,,,,,6,0,2,,,,1,,53,127
31188,note_off,,,,,84,0,12,,,,13,,62,0
31188,note_off,,,,,84,0,5,,,,4,,62,0
31188,note_off,,,,,84,0,9,,,,8,,65,0
31188,note_off,,,,,84,0,6,,,,5,,62,0
31188,note_off,,,,,84,0,7,,,,6,,70,0
31188,note_off,,,,,84,0,13,,,,14,,62,0
31188,note_off,,,,,84,0,4,,,,3,,65,0
31188,note_off,,,,,0,0,12,,,,13,,70,0
31188,note_off,,,,,84,0,3,,,,2,,70,0
31188,note_off,,,,,84,0,8,,,,7,,70,0
31188,note_off,,,,,84,0,10,,,,11,,62,0
31188,note_off,,,,,0,0,12,,,,13,,62,0
31188,note_off,,,,,84,0,11,,,,12,,50,0
31194,note_off,,,,,42,0,2,,,,1,,53,0
31200,note_on,,,,,12,0,7,,,,6,,72,75
31200,note_on,,,,,12,0,11,,,,12,,48,49
31200,note_on,,,,,12,0,12,,,,13,,69,96
31200,note_on,,,,,0,0,12,,,,13,,75,96
31200,note_on,,,,,0,0,12,,,,13,,60,96
31200,note_on,,,,,12,0,5,,,,4,,63,62
31200,note_on,,,,,12,0,9,,,,8,,69,75
31200,note_on,,,,,12,0,6,,,,5,,60,49
31200,note_on,,,,,12,0,4,,,,3,,69,62
31200,note_on,,,,,12,0,13,,,,14,,63,75
31200,note_on,,,,,12,0,10,,,,11,,60,49
31200,note_on,,,,,6,0,2,,,,1,,53,127
31200,note_on,,,,,12,0,8,,,,7,,72,75
31200,note_on,,,,,12,0,3,,,,2,,72,62
31200,note_on,,,,,204,0,1,,,,0,,53,127
31284,note_off,,,,,84,0,10,,,,11,,60,0
31284,note_off,,,,,84,0,13,,,,14,,63,0
31284,note_off,,,,,84,0,6,,,,5,,60,0
31284,note_off,,,,,84,0,1,,,,0,,53,0
31284,note_off,,,,,84,0,3,,,,2,,72,0
31284,note_off,,,,,84,0,11,,,,12,,48,0
31284,note_off,,,,,84,0,12,,,,13,,69,0
31284,note_off,,,,,84,0,2,,,,1,,53,0
31284,note_off,,,,,84,0,8,,,,7,,72,0
31284,note_off,,,,,84,0,7,,,,6,,72,0
31284,note_off,,,,,0,0,12,,,,13,,60,0
31284,note_off,,,,,84,0,4,,,,3,,69,0
31284,note_off,,,,,84,0,5,,,,4,,63,0
31284,note_off,,,,,0,0,12,,,,13,,75,0
31284,note_off,,,,,84,0,9,,,,8,,69,0
31296,note_on,,,,,12,0,6,,,,5,,58,49
31296,note_on,,,,,0,0,12,,,,13,,58,96
31296,note_on,,,,,0,0,12,,,,13,,72,96
31296,note_on,,,,,12,0,13,,,,14,,60,75
31296,note_on,,,,,12,0,12,,,,13,,63,96
31296,note_on,,,,,12,0,9,,,,8,,72,75
31296,note_on,,,,,12,0,5,,,,4,,60,62
31296,note_on,,,,,12,0,10,,,,11,,58,49
31296,note_on,,,,,12,0,8,,,,7,,75,75
31296,note_on,,,,,12,0,7,,,,6,,75,75
31296,note_on,,,,,12,0,3,,,,2,,75,62
31296,note_on,,,,,12,0,11,,,,12,,46,49
31296,note_on,,,,,12,0,4,,,,3,,72,62
31296,note_on,,,,,12,0,1,,,,0,,53,127
31338,note_off,,,,,42,0,10,,,,11,,58,0
31338,note_off,,,,,42,0,1,,,,0,,53,0
31338,note_off,,,,,42,0,11,,,,12,,46,0
31338,note_off,,,,,42,0,6,,,,5,,58,0
31338,note_off,,,,,42,0,12,,,,13,,58,0
31344,note_on,,,,,6,0,11,,,,12,,45,49
31344,note_on,,,,,6,0,6,,,,5,,57,49
31344,note_on,,,,,6,0,10,,,,11,,57,49
31344,note_on,,,,,6,0,1,,,,0,,53,127
31344,note_on,,,,,6,0,12,,,,13,,57,96
31380,note_off,,,,,84,0,7,,,,6,,75,0
31380,note_off,,,,,84,0,9,,,,8,,72,0
31380,note_off,,,,,84,0,5,,,,4,,60,0
31380,note_off,,,,,84,0,13,,,,14,,60,0
31380,note_off,,,,,0,0,12,,,,13,,72,0
31380,note_off,,,,,84,0,4,,,,3,,72,0
31380,note_off,,,,,84,0,8,,,,7,,75,0
31380,note_off,,,,,36,0,12,,,,13,,63,0
31380,note_off,,,,,84,0,3,,,,2,,75,0
31386,note_off,,,,,42,0,11,,,,12,,45,0
31386,note_off,,,,,6,0,12,,,,13,,57,0
31386,note_off,,,,,42,0,10,,,,11,,57,0
31386,note_off,,,,,42,0,1,,,,0,,53,0
31386,note_off,,,,,42,0,6,,,,5,,57,0
31392,note_on,,,,,12,0,4,,,,3,,70,62
31392,note_on,,,,,6,0,1,,,,0,,53,127
31392,note_on,,,,,6,0,12,,,,13,,65,96
31392,note_on,,,,,0,0,12,,,,13,,74,96
31392,note_on,,,,,0,0,12,,,,13,,58,96
31392,note_on,,,,,12,0,5,,,,4,,65,62
31392,note_on,,,,,12,0,8,,,,7,,74,75
31392,note_on,,,,,6,0,6,,,,5,,58,49
31392,note_on,,,,,6,0,11,,,,12,,46,49
31392,note_on,,,,,12,0,13,,,,14,,65,75
31392,note_on,,,,,12,0,3,,,,2,,74,62
31392,note_on,,,,,6,0,10,,,,11,,58,49
31392,note_on,,,,,12,0,9,,,,8,,70,75
31392,note_on,,,,,12,0,7,,,,6,,74,75
31434,note_off,,,,,42,0,1,,,,0,,53,0
31440,note_on,,,,,6,0,1,,,,0,,53,127
31476,note_off,,,,,84,0,6,,,,5,,58,0
31476,note_off,,,,,84,0,12,,,,13,,65,0
31476,note_off,,,,,84,0,11,,,,12,,46,0
31476,note_off,,,,,84,0,3,,,,2,,74,0
31476,note_off,,,,,0,0,12,,,,13,,74,0
31476,note_off,,,,,0,0,12,,,,13,,58,0
31476,note_off,,,,,84,0,8,,,,7,,74,0
31476,note_off,,,,,84,0,7,,,,6,,74,0
31476,note_off,,,,,84,0,9,,,,8,,70,0
31476,note_off,,,,,84,0,4,,,,3,,70,0
31476,note_off,,,,,84,0,13,,,,14,,65,0
31476,note_off,,,,,84,0,10,,,,11,,58,0
31476,note_off,,,,,84,0,5,,,,4,,65,0
31482,note_off,,,,,42,0,1,,,,0,,53,0
31488,note_on,,,,,12,0,6,,,,5,,57,49
31488,note_on,,,,,12,0,12,,,,13,,65,96
31488,note_on,,,,,0,0,12,,,,13,,72,96
31488,note_on,,,,,12,0,7,,,,6,,74,75
31488,note_on,,,,,12,0,13,,,,14,,65,75
31488,note_on,,,,,12,0,11,,,,12,,45,49
31488,note_on,,,,,204,0,2,,,,1,,53,127
31488,note_on,,,,,12,0,8,,,,7,,74,75
31488,note_on,,,,,0,0,12,,,,13,,57,96
31488,note_on,,,,,12,0,10,,,,11,,57,49
31488,note_on,,,,,12,0,9,,,,8,,72,75
31488,note_on,,,,,6,0,1,,,,0,,53,127
31488,note_on,,,,,12,0,5,,,,4,,65,62
31488,note_on,,,,,12,0,4,,,,3,,72,62
31488,note_on,,,,,12,0,3,,,,2,,74,62
31498,note_off,,,,,10,0,7,,,,6,,74,0
31498,note_off,,,,,10,0,8,,,,7,,74,0
31498,note_off,,,,,10,0,3,,,,2,,74,0
31500,note_on,,,,,2,0,8,,,,7,,72,75
31500,note_on,,,,,2,0,7,,,,6,,72,75
31500,note_on,,,,,2,0,3,,,,2,,72,62
31510,note_off,,,,,10,0,3,,,,2,,72,0
31510,note_off,,,,,10,0,7,,,,6,,72,0
31510,note_off,,,,,10,0,8,,,,7,,72,0
31512,note_on,,,,,2,0,3,,,,2,,74,62
31512,note_on,,,,,2,0,8,,,,7,,74,75
31512,note_on,,,,,2,0,7,,,,6,,74,75
31522,note_off,,,,,10,0,8,,,,7,,74,0
31522,note_off,,,,,10,0,3,,,,2,,74,0
31522,note_off,,,,,10,0,7,,,,6,,74,0
31524,note_on,,,,,2,0,3,,,,2,,72,62
31524,note_on,,,,,2,0,8,,,,7,,72,75
31524,note_on,,,,,2,0,7,,,,6,,72,75
31534,note_off,,,,,10,0,3,,,,2,,72,0
31534,note_off,,,,,10,0,7,,,,6,,72,0
31534,note_off,,,,,10,0,8,,,,7,,72,0
31536,note_on,,,,,2,0,7,,,,6,,74,75
31536,note_on,,,,,2,0,8,,,,7,,74,75
31536,note_on,,,,,2,0,3,,,,2,,74,62
31546,note_off,,,,,10,0,7,,,,6,,74,0
31546,note_off,,,,,10,0,8,,,,7,,74,0
31546,note_off,,,,,10,0,3,,,,2,,74,0
31548,note_on,,,,,2,0,8,,,,7,,72,75
31548,note_on,,,,,2,0,3,,,,2,,72,62
31548,note_on,,,,,2,0,7,,,,6,,72,75
31558,note_off,,,,,10,0,7,,,,6,,72,0
31558,note_off,,,,,10,0,8,,,,7,,72,0
31558,note_off,,,,,10,0,3,,,,2,,72,0
31560,note_on,,,,,2,0,7,,,,6,,74,75
31560,note_on,,,,,2,0,3,,,,2,,74,62
31560,note_on,,,,,2,0,8,,,,7,,74,75
31570,note_off,,,,,10,0,8,,,,7,,74,0
31570,note_off,,,,,10,0,3,,,,2,,74,0
31570,note_off,,,,,10,0,7,,,,6,,74,0
31572,note_on,,,,,2,0,8,,,,7,,72,75
31572,note_off,,,,,84,0,12,,,,13,,65,0
31572,note_off,,,,,84,0,10,,,,11,,57,0
31572,note_off,,,,,0,0,12,,,,13,,72,0
31572,note_on,,,,,2,0,7,,,,6,,72,75
31572,note_off,,,,,84,0,6,,,,5,,57,0
31572,note_off,,,,,84,0,4,,,,3,,72,0
31572,note_off,,,,,84,0,1,,,,0,,53,0
31572,note_on,,,,,2,0,3,,,,2,,72,62
31572,note_off,,,,,0,0,12,,,,13,,57,0
31572,note_off,,,,,84,0,2,,,,1,,53,0
31572,note_off,,,,,84,0,11,,,,12,,45,0
31572,note_off,,,,,84,0,9,,,,8,,72,0
31582,note_off,,,,,10,0,7,,,,6,,72,0
31582,note_off,,,,,10,0,3,,,,2,,72,0
31582,note_off,,,,,10,0,8,,,,7,,72,0
31584,note_on,,,,,12,0,12,,,,13,,65,96
31584,note_on,,,,,2,0,7,,,,6,,74,75
31584,note_on,,,,,12,0,6,,,,5,,58,49
31584,note_on,,,,,0,0,12,,,,13,,70,96
31584,note_on,,,,,2,0,3,,,,2,,74,62
31584,note_on,,,,,12,0,11,,,,12,,46,49
31584,note_on,,,,,2,0,8,,,,7,,74,75
31584,note_on,,,,,0,0,12,,,,13,,58,96
31584,note_on,,,,,12,0,4,,,,3,,70,62
31584,note_on,,,,,12,0,10,,,,11,,58,49
31584,note_on,,,,,12,0,9,,,,8,,70,75
31584,note_on,,,,,12,0,2,,,,1,,53,127
31594,note_off,,,,,10,0,7,,,,6,,74,0
31594,note_off,,,,,10,0,8,,,,7,,74,0
31594,note_off,,,,,10,0,3,,,,2,,74,0
31596,note_on,,,,,2,0,8,,,,7,,72,75
31596,note_on,,,,,2,0,7,,,,6,,72,75
31596,note_on,,,,,2,0,3,,,,2,,72,62
31606,note_off,,,,,10,0,3,,,,2,,72,0
31606,note_off,,,,,10,0,8,,,,7,,72,0
31606,note_off,,,,,10,0,7,,,,6,,72,0
31608,note_on,,,,,2,0,3,,,,2,,74,62
31608,note_on,,,,,2,0,8,,,,7,,74,75
31608,note_on,,,,,2,0,7,,,,6,,74,75
31618,note_off,,,,,10,0,7,,,,6,,74,0
31618,note_off,,,,,10,0,8,,,,7,,74,0
31618,note_off,,,,,10,0,3,,,,2,,74,0
31620,note_on,,,,,2,0,3,,,,2,,72,62
31620,note_on,,,,,2,0,7,,,,6,,72,75
31620,note_on,,,,,2,0,8,,,,7,,72,75
31626,note_off,,,,,42,0,10,,,,11,,58,0
31626,note_off,,,,,42,0,11,,,,12,,46,0
31626,note_off,,,,,42,0,2,,,,1,,53,0
31626,note_off,,,,,42,0,12,,,,13,,58,0
31626,note_off,,,,,42,0,6,,,,5,,58,0
31630,note_off,,,,,10,0,8,,,,7,,72,0
31630,note_off,,,,,10,0,3,,,,2,,72,0
31630,note_off,,,,,10,0,7,,,,6,,72,0
31632,note_on,,,,,6,0,6,,,,5,,57,49
31632,note_on,,,,,6,0,12,,,,13,,57,96
31632,note_on,,,,,6,0,2,,,,1,,53,127
31632,note_on,,,,,2,0,7,,,,6,,74,75
31632,note_on,,,,,2,0,8,,,,7,,74,75
31632,note_on,,,,,2,0,3,,,,2,,74,62
31632,note_on,,,,,6,0,11,,,,12,,45,49
31632,note_on,,,,,6,0,10,,,,11,,57,49
31642,note_off,,,,,10,0,8,,,,7,,74,0
31642,note_off,,,,,10,0,3,,,,2,,74,0
31642,note_off,,,,,10,0,7,,,,6,,74,0
31644,note_on,,,,,2,0,3,,,,2,,72,62
31644,note_on,,,,,2,0,7,,,,6,,72,75
31644,note_on,,,,,2,0,8,,,,7,,72,75
31654,note_off,,,,,10,0,7,,,,6,,72,0
31654,note_off,,,,,10,0,3,,,,2,,72,0
31654,note_off,,,,,10,0,8,,,,7,,72,0
31656,note_on,,,,,2,0,3,,,,2,,74,62
31656,note_on,,,,,2,0,8,,,,7,,74,75
31656,note_on,,,,,2,0,7,,,,6,,74,75
31666,note_off,,,,,10,0,7,,,,6,,74,0
31666,note_off,,,,,10,0,3,,,,2,,74,0
31666,note_off,,,,,10,0,8,,,,7,,74,0
31668,note_on,,,,,2,0,3,,,,2,,72,62
31668,note_on,,,,,2,0,8,,,,7,,72,75
31668,note_off,,,,,36,0,12,,,,13,,65,0
31668,note_on,,,,,2,0,7,,,,6,,72,75
31668,note_off,,,,,84,0,9,,,,8,,70,0
31668,note_off,,,,,180,0,5,,,,4,,65,0
31668,note_off,,,,,180,0,13,,,,14,,65,0
31668,note_off,,,,,0,0,12,,,,13,,70,0
31668,note_off,,,,,84,0,4,,,,3,,70,0
31674,note_off,,,,,42,0,2,,,,1,,53,0
31674,note_off,,,,,6,0,12,,,,13,,57,0
31674,note_off,,,,,42,0,10,,,,11,,57,0
31674,note_off,,,,,42,0,11,,,,12,,45,0
31674,note_off,,,,,42,0,6,,,,5,,57,0
31678,note_off,,,,,10,0,3,,,,2,,72,0
31678,note_off,,,,,10,0,8,,,,7,,72,0
31678,note_off,,,,,10,0,7,,,,6,,72,0
31680,note_on,,,,,0,0,12,,,,13,,69,96
31680,note_on,,,,,0,0,12,,,,13,,55,96
31680,note_on,,,,,12,0,9,,,,8,,69,75
31680,note_on,,,,,12,0,13,,,,14,,60,75
31680,note_on,,,,,12,0,4,,,,3,,69,62
31680,note_on,,,,,12,0,5,,,,4,,60,62
31680,note_on,,,,,6,0,10,,,,11,,55,49
31680,note_on,,,,,6,0,6,,,,5,,55,49
31680,note_on,,,,,6,0,12,,,,13,,60,96
31680,note_on,,,,,6,0,11,,,,12,,43,49
31680,note_on,,,,,6,0,2,,,,1,,53,127
31680,note_on,,,,,2,0,8,,,,7,,77,75
31680,note_on,,,,,2,0,3,,,,2,,77,62
31680,note_on,,,,,2,0,7,,,,6,,77,75
31722,note_off,,,,,42,0,2,,,,1,,53,0
31722,note_off,,,,,42,0,6,,,,5,,55,0
31722,note_off,,,,,42,0,10,,,,11,,55,0
31722,note_off,,,,,42,0,12,,,,13,,55,0
31722,note_off,,,,,42,0,11,,,,12,,43,0
31728,note_on,,,,,6,0,12,,,,13,,53,96
31728,note_on,,,,,6,0,6,,,,5,,53,49
31728,note_on,,,,,6,0,2,,,,1,,53,127
31728,note_on,,,,,6,0,10,,,,11,,53,49
31728,note_on,,,,,6,0,11,,,,12,,41,49
31764,note_off,,,,,84,0,8,,,,7,,77,0
31764,note_off,,,,,0,0,12,,,,13,,69,0
31764,note_off,,,,,84,0,9,,,,8,,69,0
31764,note_off,,,,,36,0,12,,,,13,,60,0
31764,note_off,,,,,84,0,4,,,,3,,69,0
31764,note_off,,,,,84,0,5,,,,4,,60,0
31764,note_off,,,,,84,0,3,,,,2,,77,0
31764,note_off,,,,,84,0,13,,,,14,,60,0
31764,note_off,,,,,84,0,7,,,,6,,77,0
31770,note_off,,,,,42,0,10,,,,11,,53,0
31770,note_off,,,,,42,0,11,,,,12,,41,0
31770,note_off,,,,,42,0,2,,,,1,,53,0
31770,note_off,,,,,6,0,12,,,,13,,53,0
31770,note_off,,,,,42,0,6,,,,5,,53,0
31776,note_on,,,,,6,0,6,,,,5,,52,49
31776,note_on,,,,,12,0,7,,,,6,,70,75
31776,note_on,,,,,12,0,8,,,,7,,70,75
31776,note_on,,,,,6,0,11,,,,12,,41,49
31776,note_on,,,,,6,0,12,,,,13,,67,96
31776,note_on,,,,,0,0,12,,,,13,,53,96
31776,note_on,,,,,12,0,3,,,,2,,70,62
31776,note_on,,,,,6,0,2,,,,1,,60,127
31776,note_on,,,,,0,0,12,,,,13,,72,96
31776,note_on,,,,,6,0,10,,,,11,,53,49
31776,note_on,,,,,12,0,13,,,,14,,60,75
31776,note_on,,,,,12,0,5,,,,4,,60,62
31776,note_on,,,,,204,0,1,,,,0,,60,127
31776,note_on,,,,,12,0,9,,,,8,,67,75
31776,note_on,,,,,12,0,4,,,,3,,67,62
31786,note_off,,,,,10,0,11,,,,12,,41,0
31786,note_off,,,,,10,0,12,,,,13,,53,0
31786,note_off,,,,,10,0,10,,,,11,,53,0
31788,note_on,,,,,2,0,12,,,,13,,52,96
31788,note_on,,,,,2,0,10,,,,11,,52,49
31788,note_on,,,,,2,0,11,,,,12,,40,49
31798,note_off,,,,,10,0,10,,,,11,,52,0
31798,note_off,,,,,10,0,11,,,,12,,40,0
31798,note_off,,,,,10,0,12,,,,13,,52,0
31800,note_on,,,,,2,0,12,,,,13,,53,96
31800,note_on,,,,,2,0,10,,,,11,,53,49
31800,note_on,,,,,2,0,11,,,,12,,41,49
31810,note_off,,,,,10,0,11,,,,12,,41,0
31810,note_off,,,,,10,0,10,,,,11,,53,0
31810,note_off,,,,,10,0,12,,,,13,,53,0
31812,note_on,,,,,2,0,11,,,,12,,40,49
31812,note_on,,,,,2,0,10,,,,11,,52,49
31812,note_on,,,,,2,0,12,,,,13,,52,96
31822,note_off,,,,,10,0,12,,,,13,,52,0
31822,note_off,,,,,10,0,10,,,,11,,52,0
31822,note_off,,,,,10,0,11,,,,12,,40,0
31824,note_on,,,,,2,0,10,,,,11,,53,49
31824,note_on,,,,,2,0,12,,,,13,,53,96
31824,note_on,,,,,2,0,11,,,,12,,41,49
31834,note_off,,,,,10,0,11,,,,12,,41,0
31834,note_off,,,,,10,0,12,,,,13,,53,0
31834,note_off,,,,,10,0,10,,,,11,,53,0
31836,note_on,,,,,2,0,11,,,,12,,40,49
31836,note_on,,,,,2,0,12,,,,13,,52,96
31836,note_on,,,,,2,0,10,,,,11,,52,49
31846,note_off,,,,,10,0,11,,,,12,,40,0
31846,note_off,,,,,10,0,12,,,,13,,52,0
31846,note_off,,,,,10,0,10,,,,11,,52,0
31848,note_on,,,,,2,0,12,,,,13,,53,96
31848,note_on,,,,,2,0,10,,,,11,,53,49
31848,note_on,,,,,2,0,11,,,,12,,41,49
31858,note_off,,,,,10,0,11,,,,12,,41,0
31858,note_off,,,,,10,0,12,,,,13,,53,0
31858,note_off,,,,,10,0,10,,,,11,,53,0
31860,note_on,,,,,2,0,11,,,,12,,40,49
31860,note_off,,,,,84,0,1,,,,0,,60,0
31860,note_off,,,,,2,0,12,,,,13,,67,0
31860,note_off,,,,,84,0,3,,,,2,,70,0
31860,note_off,,,,,0,0,12,,,,13,,72,0
31860,note_on,,,,,0,0,12,,,,13,,52,96
31860,note_on,,,,,2,0,10,,,,11,,52,49
31860,note_off,,,,,84,0,2,,,,1,,60,0
31860,note_off,,,,,84,0,7,,,,6,,70,0
31860,note_off,,,,,84,0,8,,,,7,,70,0
31870,note_off,,,,,10,0,11,,,,12,,40,0
31870,note_off,,,,,10,0,12,,,,13,,52,0
31870,note_off,,,,,10,0,10,,,,11,,52,0
31872,note_on,,,,,2,0,10,,,,11,,53,49
31872,note_on,,,,,12,0,1,,,,0,,60,127
31872,note_on,,,,,2,0,11,,,,12,,41,49
31872,note_on,,,,,12,0,7,,,,6,,67,75
31872,note_on,,,,,12,0,3,,,,2,,67,62
31872,note_on,,,,,2,0,12,,,,13,,60,96
31872,note_on,,,,,12,0,8,,,,7,,67,75
31872,note_on,,,,,0,0,12,,,,13,,67,96
31872,note_on,,,,,0,0,12,,,,13,,53,96
31882,note_off,,,,,10,0,11,,,,12,,41,0
31882,note_off,,,,,10,0,12,,,,13,,53,0
31882,note_off,,,,,10,0,10,,,,11,,53,0
31884,note_on,,,,,2,0,12,,,,13,,52,96
31884,note_on,,,,,2,0,11,,,,12,,40,49
31884,note_on,,,,,2,0,10,,,,11,,52,49
31894,note_off,,,,,10,0,10,,,,11,,52,0
31894,note_off,,,,,10,0,11,,,,12,,40,0
31894,note_off,,,,,10,0,12,,,,13,,52,0
31896,note_on,,,,,2,0,11,,,,12,,41,49
31896,note_on,,,,,2,0,12,,,,13,,53,96
31896,note_on,,,,,2,0,10,,,,11,,53,49
31906,note_off,,,,,10,0,12,,,,13,,53,0
31906,note_off,,,,,10,0,11,,,,12,,41,0
31906,note_off,,,,,10,0,10,,,,11,,53,0
31908,note_on,,,,,2,0,11,,,,12,,40,49
31908,note_on,,,,,2,0,12,,,,13,,52,96
31908,note_on,,,,,2,0,10,,,,11,,52,49
31914,note_off,,,,,42,0,1,,,,0,,60,0
31918,note_off,,,,,10,0,10,,,,11,,52,0
31918,note_off,,,,,10,0,12,,,,13,,52,0
31918,note_off,,,,,10,0,11,,,,12,,40,0
31920,note_on,,,,,2,0,11,,,,12,,41,49
31920,note_on,,,,,6,0,1,,,,0,,60,127
31920,note_on,,,,,2,0,10,,,,11,,53,49
31920,note_on,,,,,2,0,12,,,,13,,53,96
31930,note_off,,,,,10,0,11,,,,12,,41,0
31930,note_off,,,,,10,0,10,,,,11,,53,0
31930,note_off,,,,,10,0,12,,,,13,,53,0
31932,note_on,,,,,2,0,12,,,,13,,52,96
31932,note_on,,,,,2,0,11,,,,12,,40,49
31932,note_on,,,,,2,0,10,,,,11,,52,49
31942,note_off,,,,,10,0,11,,,,12,,40,0
31942,note_off,,,,,10,0,10,,,,11,,52,0
31942,note_off,,,,,10,0,12,,,,13,,52,0
31944,note_on,,,,,2,0,11,,,,12,,41,49
31944,note_on,,,,,2,0,10,,,,11,,53,49
31944,note_on,,,,,2,0,12,,,,13,,53,96
31954,note_off,,,,,10,0,11,,,,12,,41,0
31954,note_off,,,,,10,0,10,,,,11,,53,0
31954,note_off,,,,,10,0,12,,,,13,,53,0
31956,note_off,,,,,84,0,7,,,,6,,67,0
31956,note_off,,,,,180,0,9,,,,8,,67,0
31956,note_on,,,,,0,0,12,,,,13,,52,96
31956,note_off,,,,,0,0,12,,,,13,,67,0
31956,note_off,,,,,180,0,4,,,,3,,67,0
31956,note_off,,,,,2,0,12,,,,13,,60,0
31956,note_off,,,,,84,0,3,,,,2,,67,0
31956,note_off,,,,,84,0,8,,,,7,,67,0
31956,note_off,,,,,180,0,6,,,,5,,52,0
31956,note_off,,,,,180,0,5,,,,4,,60,0
31956,note_off,,,,,180,0,13,,,,14,,60,0
31956,note_on,,,,,2,0,11,,,,12,,40,49
31956,note_on,,,,,2,0,10,,,,11,,52,49
31962,note_off,,,,,42,0,1,,,,0,,60,0
31966,note_off,,,,,10,0,12,,,,13,,52,0
31966,note_off,,,,,10,0,11,,,,12,,40,0
31966,note_off,,,,,10,0,10,,,,11,,52,0
31968,note_on,,,,,2,0,12,,,,13,,60,96
31968,note_on,,,,,0,0,12,,,,13,,69,96
31968,note_on,,,,,0,0,12,,,,13,,53,96
31968,note_on,,,,,6,0,1,,,,0,,60,127
31968,note_on,,,,,2,0,11,,,,12,,41,49
31968,note_on,,,,,12,0,5,,,,4,,60,62
31968,note_on,,,,,2,0,10,,,,11,,53,49
31968,note_on,,,,,12,0,3,,,,2,,69,62
31968,note_on,,,,,12,0,9,,,,8,,65,75
31968,note_on,,,,,12,0,13,,,,14,,60,75
31968,note_on,,,,,12,0,6,,,,5,,53,49
31968,note_on,,,,,12,0,8,,,,7,,69,75
31968,note_on,,,,,12,0,7,,,,6,,69,75
31968,note_on,,,,,12,0,4,,,,3,,65,62
32010,note_off,,,,,42,0,1,,,,0,,60,0
32016,note_on,,,,,6,0,1,,,,0,,60,127
32052,note_off,,,,,84,0,12,,,,13,,60,0
32052,note_off,,,,,84,0,6,,,,5,,53,0
32052,note_off,,,,,84,0,7,,,,6,,69,0
32052,note_off,,,,,84,0,11,,,,12,,41,0
32052,note_off,,,,,84,0,4,,,,3,,65,0
32052,note_off,,,,,84,0,9,,,,8,,65,0
32052,note_off,,,,,0,0,12,,,,13,,69,0
32052,note_off,,,,,84,0,10,,,,11,,53,0
32052,note_off,,,,,84,0,5,,,,4,,60,0
32052,note_off,,,,,84,0,3,,,,2,,69,0
32052,note_off,,,,,84,0,8,,,,7,,69,0
32052,note_off,,,,,84,0,13,,,,14,,60,0
32052,note_off,,,,,0,0,12,,,,13,,53,0
32058,note_off,,,,,42,0,1,,,,0,,60,0
32064,note_on,,,,,12,0,5,,,,4,,64,62
32064,note_on,,,,,12,0,6,,,,5,,55,49
32064,note_on,,,,,12,0,8,,,,7,,70,75
32064,note_on,,,,,12,0,13,,,,14,,55,75
32064,note_on,,,,,12,0,4,,,,3,,64,62
32064,note_on,,,,,12,0,11,,,,12,,43,49
32064,note_on,,,,,12,0,7,,,,6,,70,75
32064,note_on,,,,,12,0,10,,,,11,,55,49
32064,note_on,,,,,12,0,12,,,,13,,64,96
32064,note_on,,,,,0,0,12,,,,13,,70,96
32064,note_on,,,,,0,0,12,,,,13,,55,96
32064,note_on,,,,,12,0,3,,,,2,,70,62
32064,note_on,,,,,6,0,1,,,,0,,60,127
32064,note_on,,,,,204,0,2,,,,1,,60,127
32064,note_on,,,,,12,0,9,,,,8,,64,75
32106,note_off,,,,,42,0,9,,,,8,,64,0
32106,note_off,,,,,42,0,4,,,,3,,64,0
32112,note_on,,,,,6,0,9,,,,8,,65,75
32112,note_on,,,,,6,0,4,,,,3,,65,62
32148,note_off,,,,,84,0,3,,,,2,,70,0
32148,note_off,,,,,84,0,10,,,,11,,55,0
32148,note_off,,,,,84,0,6,,,,5,,55,0
32148,note_off,,,,,84,0,2,,,,1,,60,0
32148,note_off,,,,,84,0,5,,,,4,,64,0
32148,note_off,,,,,84,0,12,,,,13,,64,0
32148,note_off,,,,,84,0,13,,,,14,,55,0
32148,note_off,,,,,84,0,8,,,,7,,70,0
32148,note_off,,,,,84,0,1,,,,0,,60,0
32148,note_off,,,,,0,0,12,,,,13,,55,0
32148,note_off,,,,,0,0,12,,,,13,,70,0
32148,note_off,,,,,84,0,7,,,,6,,70,0
32148,note_off,,,,,84,0,11,,,,12,,43,0
32154,note_off,,,,,42,0,9,,,,8,,65,0
32154,note_off,,,,,42,0,4,,,,3,,65,0
32160,note_on,,,,,6,0,4,,,,3,,67,62
32160,note_on,,,,,12,0,5,,,,4,,69,62
32160,note_on,,,,,12,0,12,,,,13,,62,96
32160,note_on,,,,,12,0,10,,,,11,,53,49
32160,note_on,,,,,12,0,2,,,,1,,60,127
32160,note_on,,,,,0,0,12,,,,13,,69,96
32160,note_on,,,,,6,0,9,,,,8,,67,75
32160,note_on,,,,,12,0,11,,,,12,,41,49
32160,note_on,,,,,12,0,13,,,,14,,57,75
32160,note_on,,,,,0,0,12,,,,13,,53,96
32160,note_on,,,,,12,0,8,,,,7,,74,75
32160,note_on,,,,,12,0,7,,,,6,,74,75
32160,note_on,,,,,12,0,6,,,,5,,53,49
32160,note_on,,,,,12,0,3,,,,2,,74,62
32170,note_off,,,,,10,0,9,,,,8,,67,0
32170,note_off,,,,,10,0,4,,,,3,,67,0
32172,note_on,,,,,2,0,9,,,,8,,65,75
32172,note_on,,,,,2,0,4,,,,3,,65,62
32182,note_off,,,,,10,0,9,,,,8,,65,0
32182,note_off,,,,,10,0,4,,,,3,,65,0
32184,note_on,,,,,2,0,9,,,,8,,67,75
32184,note_on,,,,,2,0,4,,,,3,,67,62
32194,note_off,,,,,10,0,9,,,,8,,67,0
32194,note_off,,,,,10,0,4,,,,3,,67,0
32196,note_on,,,,,2,0,9,,,,8,,65,75
32196,note_on,,,,,2,0,4,,,,3,,65,62
32202,note_off,,,,,42,0,11,,,,12,,41,0
32202,note_off,,,,,42,0,10,,,,11,,53,0
32202,note_off,,,,,42,0,5,,,,4,,69,0
32202,note_off,,,,,42,0,2,,,,1,,60,0
32202,note_off,,,,,42,0,6,,,,5,,53,0
32202,note_off,,,,,42,0,12,,,,13,,53,0
32206,note_off,,,,,10,0,9,,,,8,,65,0
32206,note_off,,,,,10,0,4,,,,3,,65,0
32208,note_on,,,,,6,0,5,,,,4,,67,62
32208,note_on,,,,,2,0,9,,,,8,,67,75
32208,note_on,,,,,6,0,12,,,,13,,52,96
32208,note_on,,,,,6,0,2,,,,1,,60,127
32208,note_on,,,,,6,0,10,,,,11,,52,49
32208,note_on,,,,,6,0,11,,,,12,,40,49
32208,note_on,,,,,2,0,4,,,,3,,67,62
32208,note_on,,,,,6,0,6,,,,5,,52,49
32218,note_off,,,,,10,0,9,,,,8,,67,0
32218,note_off,,,,,10,0,4,,,,3,,67,0
32220,note_on,,,,,2,0,9,,,,8,,65,75
32220,note_on,,,,,2,0,4,,,,3,,65,62
32230,note_off,,,,,10,0,9,,,,8,,65,0
32230,note_off,,,,,10,0,4,,,,3,,65,0
32232,note_on,,,,,2,0,9,,,,8,,67,75
32232,note_on,,,,,2,0,4,,,,3,,67,62
32242,note_off,,,,,10,0,4,,,,3,,67,0
32242,note_off,,,,,10,0,9,,,,8,,67,0
32244,note_off,,,,,36,0,12,,,,13,,62,0
32244,note_off,,,,,0,0,12,,,,13,,69,0
32244,note_on,,,,,2,0,9,,,,8,,65,75
32244,note_on,,,,,2,0,4,,,,3,,65,62
32244,note_off,,,,,84,0,13,,,,14,,57,0
32250,note_off,,,,,42,0,11,,,,12,,40,0
32250,note_off,,,,,42,0,2,,,,1,,60,0
32250,note_off,,,,,6,0,12,,,,13,,52,0
32250,note_off,,,,,42,0,6,,,,5,,52,0
32250,note_off,,,,,42,0,5,,,,4,,67,0
32250,note_off,,,,,42,0,10,,,,11,,52,0
32254,note_off,,,,,10,0,9,,,,8,,65,0
32254,note_off,,,,,10,0,4,,,,3,,65,0
32256,note_on,,,,,6,0,10,,,,11,,53,49
32256,note_on,,,,,6,0,11,,,,12,,41,49
32256,note_on,,,,,2,0,9,,,,8,,67,75
32256,note_on,,,,,12,0,13,,,,14,,53,75
32256,note_on,,,,,6,0,6,,,,5,,53,49
32256,note_on,,,,,2,0,4,,,,3,,67,62
32256,note_on,,,,,0,0,12,,,,13,,74,96
32256,note_on,,,,,0,0,12,,,,13,,53,96
32256,note_on,,,,,6,0,2,,,,1,,60,127
32256,note_on,,,,,6,0,12,,,,13,,69,96
32256,note_on,,,,,6,0,5,,,,4,,69,62
32266,note_off,,,,,10,0,9,,,,8,,67,0
32266,note_off,,,,,10,0,4,,,,3,,67,0
32268,note_on,,,,,2,0,9,,,,8,,65,75
32268,note_on,,,,,2,0,4,,,,3,,65,62
32278,note_off,,,,,10,0,4,,,,3,,65,0
32278,note_off,,,,,10,0,9,,,,8,,65,0
32280,note_on,,,,,2,0,9,,,,8,,67,75
32280,note_on,,,,,2,0,4,,,,3,,67,62
32290,note_off,,,,,10,0,9,,,,8,,67,0
32290,note_off,,,,,10,0,4,,,,3,,67,0
32292,note_on,,,,,2,0,9,,,,8,,65,75
32292,note_on,,,,,2,0,4,,,,3,,65,62
32298,note_off,,,,,42,0,2,,,,1,,60,0
32302,note_off,,,,,10,0,9,,,,8,,65,0
32302,note_off,,,,,10,0,4,,,,3,,65,0
32304,note_on,,,,,6,0,2,,,,1,,60,127
32304,note_on,,,,,2,0,9,,,,8,,64,75
32304,note_on,,,,,2,0,4,,,,3,,64,62
32325,note_off,,,,,21,0,4,,,,3,,64,0
32325,note_off,,,,,21,0,9,,,,8,,64,0
32328,note_on,,,,,3,0,4,,,,3,,65,62
32328,note_on,,,,,3,0,9,,,,8,,65,75
32340,note_off,,,,,84,0,12,,,,13,,69,0
32340,note_off,,,,,84,0,11,,,,12,,41,0
32340,note_off,,,,,84,0,5,,,,4,,69,0
32340,note_off,,,,,84,0,6,,,,5,,53,0
32340,note_off,,,,,0,0,12,,,,13,,53,0
32340,note_off,,,,,0,0,12,,,,13,,74,0
32340,note_off,,,,,180,0,7,,,,6,,74,0
32340,note_off,,,,,180,0,8,,,,7,,74,0
32340,note_off,,,,,84,0,13,,,,14,,53,0
32340,note_off,,,,,180,0,3,,,,2,,74,0
32340,note_off,,,,,84,0,10,,,,11,,53,0
32346,note_off,,,,,42,0,2,,,,1,,60,0
32349,note_off,,,,,21,0,9,,,,8,,65,0
32349,note_off,,,,,21,0,4,,,,3,,65,0
32352,note_on,,,,,12,0,11,,,,12,,40,49
32352,note_on,,,,,12,0,7,,,,6,,72,75
32352,note_on,,,,,204,0,1,,,,0,,60,127
32352,note_on,,,,,12,0,5,,,,4,,67,62
32352,note_on,,,,,3,0,4,,,,3,,67,62
32352,note_on,,,,,0,0,12,,,,13,,72,96
32352,note_on,,,,,0,0,12,,,,13,,52,96
32352,note_on,,,,,12,0,3,,,,2,,70,62
32352,note_on,,,,,12,0,13,,,,14,,60,75
32352,note_on,,,,,3,0,9,,,,8,,67,75
32352,note_on,,,,,12,0,6,,,,5,,52,49
32352,note_on,,,,,12,0,10,,,,11,,52,49
32352,note_on,,,,,6,0,2,,,,1,,60,127
32352,note_on,,,,,12,0,8,,,,7,,72,75
32352,note_on,,,,,12,0,12,,,,13,,67,96
32362,note_off,,,,,10,0,8,,,,7,,72,0
32362,note_off,,,,,10,0,7,,,,6,,72,0
32364,note_on,,,,,2,0,8,,,,7,,70,75
32364,note_on,,,,,2,0,7,,,,6,,70,75
32374,note_off,,,,,10,0,8,,,,7,,70,0
32374,note_off,,,,,10,0,7,,,,6,,70,0
32376,note_on,,,,,2,0,8,,,,7,,72,75
32376,note_on,,,,,2,0,7,,,,6,,72,75
32386,note_off,,,,,10,0,8,,,,7,,72,0
32386,note_off,,,,,10,0,7,,,,6,,72,0
32388,note_on,,,,,2,0,8,,,,7,,70,75
32388,note_on,,,,,2,0,7,,,,6,,70,75
32398,note_off,,,,,10,0,8,,,,7,,70,0
32398,note_off,,,,,10,0,7,,,,6,,70,0
32400,note_on,,,,,2,0,7,,,,6,,72,75
32400,note_on,,,,,2,0,8,,,,7,,72,75
32410,note_off,,,,,10,0,7,,,,6,,72,0
32410,note_off,,,,,10,0,8,,,,7,,72,0
32412,note_on,,,,,2,0,8,,,,7,,70,75
32412,note_on,,,,,2,0,7,,,,6,,70,75
32422,note_off,,,,,10,0,7,,,,6,,70,0
32422,note_off,,,,,10,0,8,,,,7,,70,0
32424,note_on,,,,,2,0,7,,,,6,,72,75
32424,note_on,,,,,2,0,8,,,,7,,72,75
32434,note_off,,,,,10,0,8,,,,7,,72,0
32434,note_off,,,,,10,0,7,,,,6,,72,0
32436,note_off,,,,,0,0,12,,,,13,,72,0
32436,note_off,,,,,84,0,10,,,,11,,52,0
32436,note_off,,,,,84,0,4,,,,3,,67,0
32436,note_off,,,,,84,0,9,,,,8,,67,0
32436,note_off,,,,,84,0,6,,,,5,,52,0
32436,note_off,,,,,84,0,3,,,,2,,70,0
32436,note_off,,,,,84,0,12,,,,13,,67,0
32436,note_off,,,,,84,0,2,,,,1,,60,0
32436,note_on,,,,,2,0,7,,,,6,,70,75
32436,note_off,,,,,84,0,5,,,,4,,67,0
32436,note_off,,,,,84,0,11,,,,12,,40,0
32436,note_off,,,,,84,0,1,,,,0,,60,0
32436,note_on,,,,,2,0,8,,,,7,,70,75
32436,note_off,,,,,0,0,12,,,,13,,52,0
32446,note_off,,,,,10,0,8,,,,7,,70,0
32446,note_off,,,,,10,0,7,,,,6,,70,0
32448,note_on,,,,,2,0,8,,,,7,,69,75
32448,note_on,,,,,0,0,12,,,,13,,53,96
32448,note_on,,,,,12,0,3,,,,2,,69,62
32448,note_on,,,,,0,0,12,,,,13,,69,96
32448,note_on,,,,,12,0,12,,,,13,,60,96
32448,note_on,,,,,12,0,5,,,,4,,60,62
32448,note_on,,,,,12,0,10,,,,11,,53,49
32448,note_on,,,,,12,0,4,,,,3,,65,62
32448,note_on,,,,,12,0,9,,,,8,,65,75
32448,note_on,,,,,12,0,11,,,,12,,41,49
32448,note_on,,,,,12,0,1,,,,0,,60,127
32448,note_on,,,,,2,0,7,,,,6,,69,75
32448,note_on,,,,,12,0,6,,,,5,,53,49
32490,note_off,,,,,42,0,6,,,,5,,53,0
32490,note_off,,,,,42,0,11,,,,12,,41,0
32490,note_off,,,,,42,0,10,,,,11,,53,0
32490,note_off,,,,,42,0,3,,,,2,,69,0
32490,note_off,,,,,42,0,1,,,,0,,60,0
32490,note_off,,,,,42,0,8,,,,7,,69,0
32490,note_off,,,,,42,0,7,,,,6,,69,0
32490,note_off,,,,,42,0,12,,,,13,,53,0
32496,note_on,,,,,6,0,1,,,,0,,60,127
32496,note_on,,,,,6,0,11,,,,12,,40,49
32496,note_on,,,,,6,0,7,,,,6,,67,75
32496,note_on,,,,,6,0,8,,,,7,,67,75
32496,note_on,,,,,6,0,3,,,,2,,67,62
32496,note_on,,,,,6,0,12,,,,13,,52,96
32496,note_on,,,,,6,0,6,,,,5,,52,49
32496,note_on,,,,,6,0,10,,,,11,,52,49
32532,note_off,,,,,180,0,13,,,,14,,60,0
32532,note_off,,,,,0,0,12,,,,13,,69,0
32532,note_off,,,,,84,0,5,,,,4,,60,0
32532,note_off,,,,,84,0,9,,,,8,,65,0
32532,note_off,,,,,84,0,4,,,,3,,65,0
32532,note_off,,,,,36,0,12,,,,13,,60,0
32538,note_off,,,,,42,0,10,,,,11,,52,0
32538,note_off,,,,,42,0,8,,,,7,,67,0
32538,note_off,,,,,42,0,6,,,,5,,52,0
32538,note_off,,,,,42,0,11,,,,12,,40,0
32538,note_off,,,,,42,0,7,,,,6,,67,0
32538,note_off,,,,,42,0,3,,,,2,,67,0
32538,note_off,,,,,6,0,12,,,,13,,52,0
32538,note_off,,,,,42,0,1,,,,0,,60,0
32544,note_on,,,,,12,0,5,,,,4,,60,62
32544,note_on,,,,,6,0,11,,,,12,,38,49
32544,note_on,,,,,6,0,7,,,,6,,72,75
32544,note_on,,,,,12,0,9,,,,8,,64,75
32544,note_on,,,,,6,0,1,,,,0,,60,127
32544,note_on,,,,,12,0,13,,,,14,,60,75
32544,note_on,,,,,6,0,3,,,,2,,72,62
32544,note_on,,,,,6,0,10,,,,11,,50,49
32544,note_on,,,,,6,0,12,,,,13,,64,96
32544,note_on,,,,,0,0,12,,,,13,,72,96
32544,note_on,,,,,0,0,12,,,,13,,50,96
32544,note_on,,,,,6,0,6,,,,5,,50,49
32544,note_on,,,,,6,0,8,,,,7,,72,75
32544,note_on,,,,,12,0,4,,,,3,,64,62
32586,note_off,,,,,42,0,6,,,,5,,50,0
32586,note_off,,,,,42,0,10,,,,11,,50,0
32586,note_off,,,,,42,0,12,,,,13,,50,0
32586,note_off,,,,,42,0,1,,,,0,,60,0
32586,note_off,,,,,42,0,11,,,,12,,38,0
32592,note_on,,,,,6,0,6,,,,5,,48,49
32592,note_on,,,,,6,0,10,,,,11,,48,49
32592,note_on,,,,,6,0,12,,,,13,,48,96
32592,note_on,,,,,6,0,11,,,,12,,36,49
32592,note_on,,,,,6,0,1,,,,0,,60,127
32628,note_off,,,,,84,0,8,,,,7,,72,0
32628,note_off,,,,,84,0,3,,,,2,,72,0
32628,note_off,,,,,84,0,7,,,,6,,72,0
32628,note_off,,,,,84,0,5,,,,4,,60,0
32628,note_off,,,,,84,0,13,,,,14,,60,0
32628,note_off,,,,,84,0,4,,,,3,,64,0
32628,note_off,,,,,84,0,9,,,,8,,64,0
32628,note_off,,,,,36,0,12,,,,13,,64,0
32628,note_off,,,,,0,0,12,,,,13,,72,0
32634,note_off,,,,,42,0,10,,,,11,,48,0
32634,note_off,,,,,42,0,1,,,,0,,60,0
32634,note_off,,,,,42,0,11,,,,12,,36,0
32634,note_off,,,,,42,0,6,,,,5,,48,0
32634,note_off,,,,,6,0,12,,,,13,,48,0
32640,note_on,,,,,12,0,8,,,,7,,70,75
32640,note_on,,,,,204,0,2,,,,1,,60,127
32640,note_on,,,,,6,0,10,,,,11,,53,49
32640,note_on,,,,,12,0,4,,,,3,,65,62
32640,note_on,,,,,12,0,9,,,,8,,65,75
32640,note_on,,,,,0,0,12,,,,13,,53,96
32640,note_on,,,,,0,0,12,,,,13,,69,96
32640,note_on,,,,,6,0,12,,,,13,,60,96
32640,note_on,,,,,12,0,5,,,,4,,60,62
32640,note_on,,,,,12,0,13,,,,14,,60,75
32640,note_on,,,,,6,0,6,,,,5,,53,49
32640,note_on,,,,,12,0,3,,,,2,,69,62
32640,note_on,,,,,12,0,7,,,,6,,70,75
32640,note_on,,,,,6,0,11,,,,12,,41,49
32640,note_on,,,,,6,0,1,,,,0,,60,127
32650,note_off,,,,,10,0,7,,,,6,,70,0
32650,note_off,,,,,10,0,8,,,,7,,70,0
32652,note_on,,,,,2,0,7,,,,6,,69,75
32652,note_on,,,,,2,0,8,,,,7,,69,75
32662,note_off,,,,,10,0,8,,,,7,,69,0
32662,note_off,,,,,10,0,7,,,,6,,69,0
32664,note_on,,,,,2,0,8,,,,7,,70,75
32664,note_on,,,,,2,0,7,,,,6,,70,75
32674,note_off,,,,,10,0,7,,,,6,,70,0
32674,note_off,,,,,10,0,8,,,,7,,70,0
32676,note_on,,,,,2,0,8,,,,7,,69,75
32676,note_on,,,,,2,0,7,,,,6,,69,75
32686,note_off,,,,,10,0,7,,,,6,,69,0
32686,note_off,,,,,10,0,8,,,,7,,69,0
32688,note_on,,,,,2,0,8,,,,7,,70,75
32688,note_on,,,,,2,0,7,,,,6,,70,75
32698,note_off,,,,,10,0,7,,,,6,,70,0
32698,note_off,,,,,10,0,8,,,,7,,70,0
32700,note_on,,,,,2,0,7,,,,6,,69,75
32700,note_on,,,,,2,0,8,,,,7,,69,75
32710,note_off,,,,,10,0,8,,,,7,,69,0
32710,note_off,,,,,10,0,7,,,,6,,69,0
32712,note_on,,,,,2,0,8,,,,7,,70,75
32712,note_on,,,,,2,0,7,,,,6,,70,75
32722,note_off,,,,,10,0,8,,,,7,,70,0
32722,note_off,,,,,10,0,7,,,,6,,70,0
32724,note_off,,,,,84,0,10,,,,11,,53,0
32724,note_off,,,,,0,0,12,,,,13,,53,0
32724,note_on,,,,,2,0,8,,,,7,,69,75
32724,note_off,,,,,84,0,12,,,,13,,60,0
32724,note_off,,,,,84,0,6,,,,5,,53,0
32724,note_off,,,,,84,0,2,,,,1,,60,0
32724,note_off,,,,,0,0,12,,,,13,,69,0
32724,note_off,,,,,84,0,11,,,,12,,41,0
32724,note_off,,,,,84,0,1,,,,0,,60,0
32724,note_on,,,,,2,0,7,,,,6,,69,75
32734,note_off,,,,,10,0,7,,,,6,,69,0
32734,note_off,,,,,10,0,8,,,,7,,69,0
32736,note_on,,,,,2,0,7,,,,6,,70,75
32736,note_on,,,,,12,0,12,,,,13,,69,96
32736,note_on,,,,,12,0,10,,,,11,,52,49
32736,note_on,,,,,12,0,2,,,,1,,60,127
32736,note_on,,,,,12,0,6,,,,5,,52,49
32736,note_on,,,,,12,0,11,,,,12,,40,49
32736,note_on,,,,,2,0,8,,,,7,,70,75
32736,note_on,,,,,0,0,12,,,,13,,52,96
32736,note_on,,,,,0,0,12,,,,13,,72,96
32746,note_off,,,,,10,0,7,,,,6,,70,0
32746,note_off,,,,,10,0,8,,,,7,,70,0
32748,note_on,,,,,2,0,7,,,,6,,69,75
32748,note_on,,,,,2,0,8,,,,7,,69,75
32758,note_off,,,,,10,0,7,,,,6,,69,0
32758,note_off,,,,,10,0,8,,,,7,,69,0
32760,note_on,,,,,2,0,8,,,,7,,70,75
32760,note_on,,,,,2,0,7,,,,6,,70,75
32770,note_off,,,,,10,0,7,,,,6,,70,0
32770,note_off,,,,,10,0,8,,,,7,,70,0
32772,note_on,,,,,2,0,8,,,,7,,69,75
32772,note_on,,,,,2,0,7,,,,6,,69,75
32778,note_off,,,,,42,0,11,,,,12,,40,0
32778,note_off,,,,,42,0,2,,,,1,,60,0
32778,note_off,,,,,42,0,12,,,,13,,52,0
32778,note_off,,,,,42,0,10,,,,11,,52,0
32778,note_off,,,,,42,0,6,,,,5,,52,0
32782,note_off,,,,,10,0,7,,,,6,,69,0
32782,note_off,,,,,10,0,8,,,,7,,69,0
32784,note_on,,,,,6,0,6,,,,5,,50,49
32784,note_on,,,,,6,0,10,,,,11,,50,49
32784,note_on,,,,,6,0,2,,,,1,,60,127
32784,note_on,,,,,2,0,7,,,,6,,70,75
32784,note_on,,,,,6,0,12,,,,13,,50,96
32784,note_on,,,,,2,0,8,,,,7,,70,75
32784,note_on,,,,,6,0,11,,,,12,,38,49
32794,note_off,,,,,10,0,7,,,,6,,70,0
32794,note_off,,,,,10,0,8,,,,7,,70,0
32796,note_on,,,,,2,0,8,,,,7,,69,75
32796,note_on,,,,,2,0,7,,,,6,,69,75
32806,note_off,,,,,10,0,8,,,,7,,69,0
32806,note_off,,,,,10,0,7,,,,6,,69,0
32808,note_on,,,,,2,0,8,,,,7,,70,75
32808,note_on,,,,,2,0,7,,,,6,,70,75
32818,note_off,,,,,10,0,7,,,,6,,70,0
32818,note_off,,,,,10,0,8,,,,7,,70,0
32820,note_off,,,,,180,0,5,,,,4,,60,0
32820,note_off,,,,,0,0,12,,,,13,,72,0
32820,note_off,,,,,36,0,12,,,,13,,69,0
32820,note_off,,,,,180,0,3,,,,2,,69,0
32820,note_on,,,,,2,0,7,,,,6,,69,75
32820,note_off,,,,,180,0,13,,,,14,,60,0
32820,note_on,,,,,2,0,8,,,,7,,69,75
32820,note_off,,,,,180,0,9,,,,8,,65,0
32820,note_off,,,,,180,0,4,,,,3,,65,0
32826,note_off,,,,,42,0,6,,,,5,,50,0
32826,note_off,,,,,42,0,10,,,,11,,50,0
32826,note_off,,,,,6,0,12,,,,13,,50,0
32826,note_off,,,,,42,0,2,,,,1,,60,0
32826,note_off,,,,,42,0,11,,,,12,,38,0
32830,note_off,,,,,10,0,8,,,,7,,69,0
32830,note_off,,,,,10,0,7,,,,6,,69,0
32832,note_on,,,,,6,0,6,,,,5,,52,49
32832,note_on,,,,,12,0,3,,,,2,,67,62
32832,note_on,,,,,6,0,10,,,,11,,52,49
32832,note_on,,,,,6,0,12,,,,13,,67,96
32832,note_on,,,,,0,0,12,,,,13,,72,96
32832,note_on,,,,,0,0,12,,,,13,,52,96
32832,note_on,,,,,6,0,11,,,,12,,40,49
32832,note_on,,,,,12,0,9,,,,8,,67,75
32832,note_on,,,,,2,0,7,,,,6,,67,75
32832,note_on,,,,,12,0,5,,,,4,,60,62
32832,note_on,,,,,12,0,4,,,,3,,67,62
32832,note_on,,,,,2,0,8,,,,7,,67,75
32832,note_on,,,,,12,0,13,,,,14,,60,75
32832,note_on,,,,,6,0,2,,,,1,,60,127
32874,note_off,,,,,42,0,2,,,,1,,60,0
32880,note_on,,,,,6,0,2,,,,1,,60,127
32916,note_off,,,,,84,0,9,,,,8,,67,0
32916,note_off,,,,,84,0,7,,,,6,,67,0
32916,note_off,,,,,84,0,6,,,,5,,52,0
32916,note_off,,,,,84,0,10,,,,11,,52,0
32916,note_off,,,,,84,0,4,,,,3,,67,0
32916,note_off,,,,,84,0,8,,,,7,,67,0
32916,note_off,,,,,84,0,13,,,,14,,60,0
32916,note_off,,,,,84,0,5,,,,4,,60,0
32916,note_off,,,,,84,0,11,,,,12,,40,0
32916,note_off,,,,,0,0,12,,,,13,,72,0
32916,note_off,,,,,84,0,12,,,,13,,67,0
32916,note_off,,,,,84,0,3,,,,2,,67,0
32916,note_off,,,,,0,0,12,,,,13,,52,0
32922,note_off,,,,,42,0,2,,,,1,,60,0
32928,note_on,,,,,12,0,7,,,,6,,71,75
32928,note_on,,,,,12,0,8,,,,7,,71,75
32928,note_on,,,,,12,0,3,,,,2,,71,62
32928,note_on,,,,,12,0,4,,,,3,,65,62
32928,note_on,,,,,12,0,5,,,,4,,62,62
32928,note_on,,,,,6,0,2,,,,1,,67,127
32928,note_on,,,,,12,0,10,,,,11,,50,49
32928,note_on,,,,,0,0,12,,,,13,,71,96
32928,note_on,,,,,12,0,12,,,,13,,65,96
32928,note_on,,,,,12,0,6,,,,5,,50,49
32928,note_on,,,,,12,0,9,,,,8,,65,75
32928,note_on,,,,,0,0,12,,,,13,,50,96
32928,note_on,,,,,12,0,11,,,,12,,38,49
32928,note_on,,,,,204,0,1,,,,0,,67,127
32928,note_on,,,,,12,0,13,,,,14,,64,75
32938,note_off,,,,,10,0,13,,,,14,,64,0
32940,note_on,,,,,2,0,13,,,,14,,62,75
32950,note_off,,,,,10,0,13,,,,14,,62,0
32952,note_on,,,,,2,0,13,,,,14,,64,75
32962,note_off,,,,,10,0,13,,,,14,,64,0
32964,note_on,,,,,2,0,13,,,,14,,62,75
32970,note_off,,,,,42,0,3,,,,2,,71,0
32970,note_off,,,,,42,0,8,,,,7,,71,0
32970,note_off,,,,,42,0,7,,,,6,,71,0
32974,note_off,,,,,10,0,13,,,,14,,62,0
32976,note_on,,,,,6,0,8,,,,7,,72,75
32976,note_on,,,,,2,0,13,,,,14,,64,75
32976,note_on,,,,,6,0,7,,,,6,,72,75
32976,note_on,,,,,6,0,3,,,,2,,72,62
32986,note_off,,,,,10,0,13,,,,14,,64,0
32988,note_on,,,,,2,0,13,,,,14,,62,75
32998,note_off,,,,,10,0,13,,,,14,,62,0
33000,note_on,,,,,2,0,13,,,,14,,64,75
33010,note_off,,,,,10,0,13,,,,14,,64,0
33012,note_off,,,,,84,0,11,,,,12,,38,0
33012,note_off,,,,,84,0,6,,,,5,,50,0
33012,note_off,,,,,84,0,9,,,,8,,65,0
33012,note_on,,,,,2,0,13,,,,14,,62,75
33012,note_off,,,,,0,0,12,,,,13,,50,0
33012,note_off,,,,,84,0,5,,,,4,,62,0
33012,note_off,,,,,84,0,10,,,,11,,50,0
33012,note_off,,,,,84,0,4,,,,3,,65,0
33012,note_off,,,,,84,0,2,,,,1,,67,0
33012,note_off,,,,,84,0,1,,,,0,,67,0
33012,note_off,,,,,84,0,12,,,,13,,65,0
33012,note_off,,,,,0,0,12,,,,13,,71,0
33018,note_off,,,,,42,0,8,,,,7,,72,0
33018,note_off,,,,,42,0,7,,,,6,,72,0
33018,note_off,,,,,42,0,3,,,,2,,72,0
33022,note_off,,,,,10,0,13,,,,14,,62,0
33024,note_on,,,,,2,0,13,,,,14,,60,75
33024,note_on,,,,,0,0,12,,,,13,,52,96
33024,note_on,,,,,0,0,12,,,,13,,72,96
33024,note_on,,,,,12,0,12,,,,13,,67,96
33024,note_on,,,,,12,0,6,,,,5,,52,49
33024,note_on,,,,,12,0,11,,,,12,,40,49
33024,note_on,,,,,12,0,9,,,,8,,67,75
33024,note_on,,,,,12,0,10,,,,11,,52,49
33024,note_on,,,,,12,0,5,,,,4,,60,62
33024,note_on,,,,,6,0,7,,,,6,,74,75
33024,note_on,,,,,12,0,4,,,,3,,67,62
33024,note_on,,,,,12,0,1,,,,0,,67,127
33024,note_on,,,,,6,0,8,,,,7,,74,75
33024,note_on,,,,,6,0,3,,,,2,,74,62
33034,note_off,,,,,10,0,3,,,,2,,74,0
33034,note_off,,,,,10,0,8,,,,7,,74,0
33034,note_off,,,,,10,0,7,,,,6,,74,0
33036,note_on,,,,,2,0,3,,,,2,,72,62
33036,note_on,,,,,2,0,7,,,,6,,72,75
33036,note_on,,,,,2,0,8,,,,7,,72,75
33046,note_off,,,,,10,0,3,,,,2,,72,0
33046,note_off,,,,,10,0,8,,,,7,,72,0
33046,note_off,,,,,10,0,7,,,,6,,72,0
33048,note_on,,,,,2,0,3,,,,2,,74,62
33048,note_on,,,,,2,0,8,,,,7,,74,75
33048,note_on,,,,,2,0,7,,,,6,,74,75
33058,note_off,,,,,10,0,7,,,,6,,74,0
33058,note_off,,,,,10,0,8,,,,7,,74,0
33058,note_off,,,,,10,0,3,,,,2,,74,0
33060,note_on,,,,,2,0,3,,,,2,,72,62
33060,note_on,,,,,2,0,7,,,,6,,72,75
33060,note_on,,,,,2,0,8,,,,7,,72,75
33066,note_off,,,,,42,0,13,,,,14,,60,0
33066,note_off,,,,,42,0,1,,,,0,,67,0
33066,note_off,,,,,42,0,5,,,,4,,60,0
33070,note_off,,,,,10,0,8,,,,7,,72,0
33070,note_off,,,,,10,0,3,,,,2,,72,0
33070,note_off,,,,,10,0,7,,,,6,,72,0
33072,note_on,,,,,2,0,8,,,,7,,74,75
33072,note_on,,,,,6,0,1,,,,0,,67,127
33072,note_on,,,,,6,0,5,,,,4,,62,62
33072,note_on,,,,,2,0,3,,,,2,,74,62
33072,note_on,,,,,2,0,7,,,,6,,74,75
33072,note_on,,,,,6,0,13,,,,14,,62,75
33082,note_off,,,,,10,0,3,,,,2,,74,0
33082,note_off,,,,,10,0,8,,,,7,,74,0
33082,note_off,,,,,10,0,7,,,,6,,74,0
33084,note_on,,,,,2,0,8,,,,7,,72,75
33084,note_on,,,,,2,0,7,,,,6,,72,75
33084,note_on,,,,,2,0,3,,,,2,,72,62
33094,note_off,,,,,10,0,8,,,,7,,72,0
33094,note_off,,,,,10,0,7,,,,6,,72,0
33094,note_off,,,,,10,0,3,,,,2,,72,0
33096,note_on,,,,,2,0,7,,,,6,,74,75
33096,note_on,,,,,2,0,3,,,,2,,74,62
33096,note_on,,,,,2,0,8,,,,7,,74,75
33106,note_off,,,,,10,0,8,,,,7,,74,0
33106,note_off,,,,,10,0,7,,,,6,,74,0
33106,note_off,,,,,10,0,3,,,,2,,74,0
33108,note_off,,,,,0,0,12,,,,13,,52,0
33108,note_on,,,,,2,0,8,,,,7,,72,75
33108,note_off,,,,,84,0,6,,,,5,,52,0
33108,note_off,,,,,84,0,11,,,,12,,40,0
33108,note_on,,,,,2,0,7,,,,6,,72,75
33108,note_off,,,,,84,0,12,,,,13,,67,0
33108,note_off,,,,,0,0,12,,,,13,,72,0
33108,note_off,,,,,84,0,10,,,,11,,52,0
33108,note_on,,,,,2,0,3,,,,2,,72,62
33114,note_off,,,,,42,0,13,,,,14,,62,0
33114,note_off,,,,,42,0,5,,,,4,,62,0
33114,note_off,,,,,42,0,1,,,,0,,67,0
33118,note_off,,,,,10,0,3,,,,2,,72,0
33118,note_off,,,,,10,0,7,,,,6,,72,0
33118,note_off,,,,,10,0,8,,,,7,,72,0
33120,note_on,,,,,12,0,10,,,,11,,48,49
33120,note_on,,,,,12,0,11,,,,12,,36,49
33120,note_on,,,,,6,0,5,,,,4,,64,62
33120,note_on,,,,,6,0,13,,,,14,,64,75
33120,note_on,,,,,2,0,8,,,,7,,74,75
33120,note_on,,,,,0,0,12,,,,13,,48,96
33120,note_on,,,,,0,0,12,,,,13,,76,96
33120,note_on,,,,,2,0,3,,,,2,,74,62
33120,note_on,,,,,2,0,7,,,,6,,74,75
33120,note_on,,,,,6,0,1,,,,0,,67,127
33120,note_on,,,,,12,0,12,,,,13,,67,96
33120,note_on,,,,,12,0,6,,,,5,,48,49
33130,note_off,,,,,10,0,3,,,,2,,74,0
33130,note_off,,,,,10,0,7,,,,6,,74,0
33130,note_off,,,,,10,0,8,,,,7,,74,0
33132,note_on,,,,,2,0,3,,,,2,,72,62
33132,note_on,,,,,2,0,8,,,,7,,72,75
33132,note_on,,,,,2,0,7,,,,6,,72,75
33142,note_off,,,,,10,0,8,,,,7,,72,0
33142,note_off,,,,,10,0,3,,,,2,,72,0
33142,note_off,,,,,10,0,7,,,,6,,72,0
33144,note_on,,,,,2,0,7,,,,6,,74,75
33144,note_on,,,,,2,0,3,,,,2,,74,62
33144,note_on,,,,,2,0,8,,,,7,,74,75
33154,note_off,,,,,10,0,3,,,,2,,74,0
33154,note_off,,,,,10,0,7,,,,6,,74,0
33154,note_off,,,,,10,0,8,,,,7,,74,0
33156,note_on,,,,,2,0,7,,,,6,,72,75
33156,note_on,,,,,2,0,8,,,,7,,72,75
33156,note_on,,,,,2,0,3,,,,2,,72,62
33162,note_off,,,,,42,0,1,,,,0,,67,0
33166,note_off,,,,,10,0,7,,,,6,,72,0
33166,note_off,,,,,10,0,3,,,,2,,72,0
33166,note_off,,,,,10,0,8,,,,7,,72,0
33168,note_on,,,,,2,0,7,,,,6,,71,75
33168,note_on,,,,,2,0,3,,,,2,,71,62
33168,note_on,,,,,6,0,1,,,,0,,67,127
33168,note_on,,,,,2,0,8,,,,7,,71,75
33189,note_off,,,,,21,0,8,,,,7,,71,0
33189,note_off,,,,,21,0,7,,,,6,,71,0
33189,note_off,,,,,21,0,3,,,,2,,71,0
33192,note_on,,,,,3,0,7,,,,6,,72,75
33192,note_on,,,,,3,0,3,,,,2,,72,62
33192,note_on,,,,,3,0,8,,,,7,,72,75
33204,note_off,,,,,84,0,13,,,,14,,64,0
33204,note_off,,,,,84,0,6,,,,5,,48,0
33204,note_off,,,,,84,0,11,,,,12,,36,0
33204,note_off,,,,,180,0,9,,,,8,,67,0
33204,note_off,,,,,84,0,12,,,,13,,67,0
33204,note_off,,,,,180,0,4,,,,3,,67,0
33204,note_off,,,,,0,0,12,,,,13,,76,0
33204,note_off,,,,,0,0,12,,,,13,,48,0
33204,note_off,,,,,84,0,10,,,,11,,48,0
33204,note_off,,,,,84,0,5,,,,4,,64,0
33210,note_off,,,,,42,0,1,,,,0,,67,0
33213,note_off,,,,,21,0,3,,,,2,,72,0
33213,note_off,,,,,21,0,7,,,,6,,72,0
33213,note_off,,,,,21,0,8,,,,7,,72,0
33216,note_on,,,,,3,0,7,,,,6,,74,75
33216,note_on,,,,,3,0,3,,,,2,,74,62
33216,note_on,,,,,12,0,5,,,,4,,62,62
33216,note_on,,,,,0,0,12,,,,13,,47,96
33216,note_on,,,,,0,0,12,,,,13,,74,96
33216,note_on,,,,,12,0,12,,,,13,,67,96
33216,note_on,,,,,12,0,13,,,,14,,62,75
33216,note_on,,,,,12,0,9,,,,8,,67,75
33216,note_on,,,,,204,0,2,,,,1,,67,127
33216,note_on,,,,,6,0,1,,,,0,,67,127
33216,note_on,,,,,12,0,4,,,,3,,67,62
33216,note_on,,,,,3,0,8,,,,7,,74,75
33216,note_on,,,,,12,0,6,,,,5,,47,49
33216,note_on,,,,,12,0,10,,,,11,,47,49
33216,note_on,,,,,12,0,11,,,,12,,35,49
33300,note_off,,,,,84,0,2,,,,1,,67,0
33300,note_off,,,,,84,0,11,,,,12,,35,0
33300,note_off,,,,,84,0,6,,,,5,,47,0
33300,note_off,,,,,0,0,12,,,,13,,47,0
33300,note_off,,,,,0,0,12,,,,13,,74,0
33300,note_off,,,,,84,0,12,,,,13,,67,0
33300,note_off,,,,,84,0,3,,,,2,,74,0
33300,note_off,,,,,84,0,8,,,,7,,74,0
33300,note_off,,,,,84,0,1,,,,0,,67,0
33300,note_off,,,,,84,0,10,,,,11,,47,0
33300,note_off,,,,,84,0,7,,,,6,,74,0
33312,note_on,,,,,12,0,3,,,,2,,72,62
33312,note_on,,,,,12,0,10,,,,11,,45,49
33312,note_on,,,,,0,0,12,,,,13,,72,96
33312,note_on,,,,,12,0,11,,,,12,,33,49
33312,note_on,,,,,12,0,12,,,,13,,67,96
33312,note_on,,,,,12,0,8,,,,7,,72,75
33312,note_on,,,,,12,0,2,,,,1,,67,127
33312,note_on,,,,,12,0,7,,,,6,,72,75
33312,note_on,,,,,12,0,6,,,,5,,45,49
33312,note_on,,,,,0,0,12,,,,13,,45,96
33354,note_off,,,,,42,0,6,,,,5,,45,0
33354,note_off,,,,,42,0,8,,,,7,,72,0
33354,note_off,,,,,42,0,7,,,,6,,72,0
33354,note_off,,,,,42,0,11,,,,12,,33,0
33354,note_off,,,,,42,0,2,,,,1,,67,0
33354,note_off,,,,,42,0,10,,,,11,,45,0
33354,note_off,,,,,42,0,3,,,,2,,72,0
33354,note_off,,,,,42,0,12,,,,13,,45,0
33360,note_on,,,,,6,0,10,,,,11,,43,49
33360,note_on,,,,,6,0,6,,,,5,,43,49
33360,note_on,,,,,6,0,2,,,,1,,67,127
33360,note_on,,,,,6,0,11,,,,12,,31,49
33360,note_on,,,,,6,0,7,,,,6,,71,75
33360,note_on,,,,,6,0,3,,,,2,,71,62
33360,note_on,,,,,6,0,8,,,,7,,71,75
33360,note_on,,,,,6,0,12,,,,13,,43,96
33396,note_off,,,,,36,0,12,,,,13,,67,0
33396,note_off,,,,,0,0,12,,,,13,,72,0
33396,note_off,,,,,180,0,5,,,,4,,62,0
33396,note_off,,,,,180,0,4,,,,3,,67,0
33396,note_off,,,,,180,0,13,,,,14,,62,0
33396,note_off,,,,,180,0,9,,,,8,,67,0
33402,note_off,,,,,42,0,6,,,,5,,43,0
33402,note_off,,,,,42,0,7,,,,6,,71,0
33402,note_off,,,,,42,0,2,,,,1,,67,0
33402,note_off,,,,,42,0,11,,,,12,,31,0
33402,note_off,,,,,6,0,12,,,,13,,43,0
33402,note_off,,,,,42,0,10,,,,11,,43,0
33402,note_off,,,,,42,0,3,,,,2,,71,0
33402,note_off,,,,,42,0,8,,,,7,,71,0
33408,note_on,,,,,12,0,9,,,,8,,67,75
33408,note_on,,,,,6,0,7,,,,6,,72,75
33408,note_on,,,,,6,0,11,,,,12,,29,49
33408,note_on,,,,,6,0,6,,,,5,,41,49
33408,note_on,,,,,6,0,8,,,,7,,72,75
33408,note_on,,,,,0,0,12,,,,13,,41,96
33408,note_on,,,,,12,0,4,,,,3,,67,62
33408,note_on,,,,,12,0,13,,,,14,,64,75
33408,note_on,,,,,12,0,5,,,,4,,64,62
33408,note_on,,,,,6,0,3,,,,2,,72,62
33408,note_on,,,,,6,0,12,,,,13,,67,96
33408,note_on,,,,,6,0,10,,,,11,,41,49
33408,note_on,,,,,0,0,12,,,,13,,72,96
33408,note_on,,,,,6,0,2,,,,1,,67,127
33450,note_off,,,,,42,0,2,,,,1,,67,0
33450,note_off,,,,,42,0,6,,,,5,,41,0
33450,note_off,,,,,42,0,11,,,,12,,29,0
33450,note_off,,,,,42,0,10,,,,11,,41,0
33450,note_off,,,,,42,0,12,,,,13,,41,0
33456,note_on,,,,,6,0,2,,,,1,,67,127
33456,note_on,,,,,6,0,11,,,,12,,28,49
33456,note_on,,,,,6,0,10,,,,11,,40,49
33456,note_on,,,,,6,0,6,,,,5,,40,49
33456,note_on,,,,,6,0,12,,,,13,,40,96
33492,note_off,,,,,84,0,3,,,,2,,72,0
33492,note_off,,,,,84,0,5,,,,4,,64,0
33492,note_off,,,,,36,0,12,,,,13,,67,0
33492,note_off,,,,,84,0,4,,,,3,,67,0
33492,note_off,,,,,84,0,8,,,,7,,72,0
33492,note_off,,,,,84,0,13,,,,14,,64,0
33492,note_off,,,,,84,0,7,,,,6,,72,0
33492,note_off,,,,,84,0,9,,,,8,,67,0
33492,note_off,,,,,0,0,12,,,,13,,72,0
33498,note_off,,,,,42,0,10,,,,11,,40,0
33498,note_off,,,,,42,0,6,,,,5,,40,0
33498,note_off,,,,,42,0,11,,,,12,,28,0
33498,note_off,,,,,42,0,2,,,,1,,67,0
33498,note_off,,,,,6,0,12,,,,13,,40,0
33504,note_on,,,,,6,0,12,,,,13,,65,96
33504,note_on,,,,,6,0,11,,,,12,,33,49
33504,note_on,,,,,6,0,6,,,,5,,45,49
33504,note_on,,,,,12,0,5,,,,4,,60,62
33504,note_on,,,,,12,0,4,,,,3,,69,62
33504,note_on,,,,,204,0,1,,,,0,,72,127
33504,note_on,,,,,12,0,7,,,,6,,77,75
33504,note_on,,,,,6,0,10,,,,11,,45,49
33504,note_on,,,,,0,0,12,,,,13,,45,96
33504,note_on,,,,,12,0,13,,,,14,,60,75
33504,note_on,,,,,0,0,12,,,,13,,72,96
33504,note_on,,,,,12,0,3,,,,2,,77,62
33504,note_on,,,,,6,0,2,,,,1,,69,127
33504,note_on,,,,,12,0,9,,,,8,,69,75
33504,note_on,,,,,12,0,8,,,,7,,77,75
33546,note_off,,,,,42,0,3,,,,2,,77,0
33546,note_off,,,,,42,0,6,,,,5,,45,0
33546,note_off,,,,,42,0,11,,,,12,,33,0
33546,note_off,,,,,42,0,10,,,,11,,45,0
33546,note_off,,,,,42,0,8,,,,7,,77,0
33546,note_off,,,,,42,0,9,,,,8,,69,0
33546,note_off,,,,,42,0,4,,,,3,,69,0
33546,note_off,,,,,42,0,1,,,,0,,72,0
33546,note_off,,,,,42,0,7,,,,6,,77,0
33546,note_off,,,,,42,0,12,,,,13,,45,0
33552,note_on,,,,,6,0,8,,,,7,,79,75
33552,note_on,,,,,6,0,12,,,,13,,41,96
33552,note_on,,,,,6,0,1,,,,0,,71,127
33552,note_on,,,,,6,0,11,,,,12,,29,49
33552,note_on,,,,,6,0,6,,,,5,,41,49
33552,note_on,,,,,6,0,7,,,,6,,79,75
33552,note_on,,,,,6,0,10,,,,11,,41,49
33552,note_on,,,,,6,0,9,,,,8,,71,75
33552,note_on,,,,,6,0,3,,,,2,,79,62
33552,note_on,,,,,6,0,4,,,,3,,71,62
33588,note_off,,,,,84,0,2,,,,1,,69,0
33588,note_off,,,,,84,0,13,,,,14,,60,0
33588,note_off,,,,,36,0,12,,,,13,,65,0
33588,note_off,,,,,84,0,5,,,,4,,60,0
33588,note_off,,,,,0,0,12,,,,13,,72,0
33594,note_off,,,,,42,0,3,,,,2,,79,0
33594,note_off,,,,,42,0,8,,,,7,,79,0
33594,note_off,,,,,42,0,6,,,,5,,41,0
33594,note_off,,,,,6,0,12,,,,13,,41,0
33594,note_off,,,,,42,0,11,,,,12,,29,0
33594,note_off,,,,,42,0,7,,,,6,,79,0
33594,note_off,,,,,42,0,1,,,,0,,71,0
33594,note_off,,,,,42,0,4,,,,3,,71,0
33594,note_off,,,,,42,0,9,,,,8,,71,0
33594,note_off,,,,,42,0,10,,,,11,,41,0
33600,note_on,,,,,6,0,10,,,,11,,43,49
33600,note_on,,,,,6,0,11,,,,12,,31,49
33600,note_on,,,,,6,0,1,,,,0,,71,127
33600,note_on,,,,,6,0,3,,,,2,,74,62
33600,note_on,,,,,6,0,12,,,,13,,62,96
33600,note_on,,,,,6,0,8,,,,7,,74,75
33600,note_on,,,,,6,0,4,,,,3,,72,62
33600,note_on,,,,,6,0,6,,,,5,,43,49
33600,note_on,,,,,6,0,9,,,,8,,71,75
33600,note_on,,,,,12,0,2,,,,1,,67,127
33600,note_on,,,,,0,0,12,,,,13,,43,96
33600,note_on,,,,,6,0,7,,,,6,,74,75
33600,note_on,,,,,0,0,12,,,,13,,70,96
33600,note_on,,,,,12,0,13,,,,14,,67,75
33600,note_on,,,,,12,0,5,,,,4,,67,62
33610,note_off,,,,,10,0,4,,,,3,,72,0
33612,note_on,,,,,2,0,4,,,,3,,71,62
33622,note_off,,,,,10,0,4,,,,3,,71,0
33624,note_on,,,,,2,0,4,,,,3,,72,62
33634,note_off,,,,,10,0,4,,,,3,,72,0
33636,note_on,,,,,2,0,4,,,,3,,71,62
33642,note_off,,,,,42,0,2,,,,1,,67,0
33646,note_off,,,,,10,0,4,,,,3,,71,0
33648,note_on,,,,,2,0,4,,,,3,,72,62
33648,note_on,,,,,6,0,2,,,,1,,67,127
33658,note_off,,,,,10,0,4,,,,3,,72,0
33660,note_on,,,,,2,0,4,,,,3,,71,62
33670,note_off,,,,,10,0,4,,,,3,,71,0
33672,note_on,,,,,2,0,4,,,,3,,72,62
33682,note_off,,,,,10,0,4,,,,3,,72,0
33684,note_off,,,,,84,0,6,,,,5,,43,0
33684,note_on,,,,,2,0,4,,,,3,,71,62
33684,note_off,,,,,84,0,11,,,,12,,31,0
33684,note_off,,,,,84,0,5,,,,4,,67,0
33684,note_off,,,,,0,0,12,,,,13,,70,0
33684,note_off,,,,,84,0,12,,,,13,,62,0
33684,note_off,,,,,84,0,10,,,,11,,43,0
33684,note_off,,,,,84,0,13,,,,14,,67,0
33684,note_off,,,,,0,0,12,,,,13,,43,0
33690,note_off,,,,,42,0,2,,,,1,,67,0
33694,note_off,,,,,10,0,4,,,,3,,71,0
33696,note_on,,,,,0,0,12,,,,13,,43,96
33696,note_on,,,,,6,0,2,,,,1,,67,127
33696,note_on,,,,,12,0,11,,,,12,,31,49
33696,note_on,,,,,2,0,4,,,,3,,72,62
33696,note_on,,,,,0,0,12,,,,13,,70,96
33696,note_on,,,,,12,0,13,,,,14,,65,75
33696,note_on,,,,,12,0,5,,,,4,,65,62
33696,note_on,,,,,12,0,6,,,,5,,43,49
33696,note_on,,,,,12,0,10,,,,11,,43,49
33696,note_on,,,,,12,0,12,,,,13,,65,96
33706,note_off,,,,,10,0,4,,,,3,,72,0
33708,note_on,,,,,2,0,4,,,,3,,71,62
33718,note_off,,,,,10,0,4,,,,3,,71,0
33720,note_on,,,,,2,0,4,,,,3,,72,62
33730,note_off,,,,,10,0,4,,,,3,,72,0
33732,note_off,,,,,132,0,8,,,,7,,74,0
33732,note_off,,,,,132,0,1,,,,0,,71,0
33732,note_off,,,,,132,0,7,,,,6,,74,0
33732,note_off,,,,,132,0,3,,,,2,,74,0
33732,note_off,,,,,132,0,9,,,,8,,71,0
33732,note_on,,,,,2,0,4,,,,3,,71,62
33738,note_off,,,,,42,0,2,,,,1,,67,0
33742,note_off,,,,,10,0,4,,,,3,,71,0
33744,note_on,,,,,2,0,4,,,,3,,67,62
33744,note_on,,,,,12,0,9,,,,8,,67,75
33744,note_on,,,,,6,0,2,,,,1,,67,127
33744,note_on,,,,,12,0,7,,,,6,,72,75
33744,note_on,,,,,12,0,8,,,,7,,72,75
33744,note_on,,,,,12,0,1,,,,0,,72,127
33744,note_on,,,,,12,0,3,,,,2,,72,62
33780,note_off,,,,,84,0,11,,,,12,,31,0
33780,note_off,,,,,84,0,6,,,,5,,43,0
33780,note_off,,,,,84,0,5,,,,4,,65,0
33780,note_off,,,,,84,0,13,,,,14,,65,0
33780,note_off,,,,,84,0,12,,,,13,,65,0
33780,note_off,,,,,0,0,12,,,,13,,70,0
33780,note_off,,,,,0,0,12,,,,13,,43,0
33780,note_off,,,,,84,0,10,,,,11,,43,0
33786,note_off,,,,,42,0,9,,,,8,,67,0
33786,note_off,,,,,42,0,1,,,,0,,72,0
33786,note_off,,,,,42,0,4,,,,3,,67,0
33786,note_off,,,,,42,0,3,,,,2,,72,0
33786,note_off,,,,,42,0,7,,,,6,,72,0
33786,note_off,,,,,42,0,8,,,,7,,72,0
33786,note_off,,,,,42,0,2,,,,1,,67,0
33792,note_on,,,,,6,0,3,,,,2,,72,62
33792,note_on,,,,,12,0,5,,,,4,,64,62
33792,note_on,,,,,12,0,6,,,,5,,36,49
33792,note_on,,,,,6,0,7,,,,6,,72,75
33792,note_on,,,,,12,0,11,,,,12,,24,49
33792,note_on,,,,,6,0,9,,,,8,,67,75
33792,note_on,,,,,6,0,2,,,,1,,67,127
33792,note_on,,,,,6,0,1,,,,0,,72,127
33792,note_on,,,,,12,0,10,,,,11,,36,49
33792,note_on,,,,,0,0,12,,,,13,,76,96
33792,note_on,,,,,0,0,12,,,,13,,36,96
33792,note_on,,,,,12,0,12,,,,13,,67,96
33792,note_on,,,,,6,0,4,,,,3,,67,62
33792,note_on,,,,,6,0,8,,,,7,,72,75
33792,note_on,,,,,12,0,13,,,,14,,64,75
33876,note_off,,,,,0,0,12,,,,13,,76,0
33876,note_off,,,,,0,0,12,,,,13,,36,0
33876,note_off,,,,,84,0,10,,,,11,,36,0
33876,note_off,,,,,84,0,6,,,,5,,36,0
33876,note_off,,,,,84,0,12,,,,13,,67,0
33876,note_off,,,,,84,0,11,,,,12,,24,0
33888,note_on,,,,,12,0,6,,,,5,,48,49
33888,note_on,,,,,12,0,12,,,,13,,60,96
33888,note_on,,,,,12,0,10,,,,11,,48,49
33888,note_on,,,,,0,0,12,,,,13,,48,96
33888,note_on,,,,,12,0,11,,,,12,,36,49
33930,note_off,,,,,42,0,6,,,,5,,48,0
33930,note_off,,,,,42,0,11,,,,12,,36,0
33930,note_off,,,,,42,0,10,,,,11,,48,0
33930,note_off,,,,,0,0,12,,,,13,,48,0
33930,note_off,,,,,42,0,12,,,,13,,60,0
33936,note_on,,,,,6,0,10,,,,11,,46,49
33936,note_on,,,,,6,0,6,,,,5,,46,49
33936,note_on,,,,,6,0,11,,,,12,,34,49
33936,note_on,,,,,6,0,12,,,,13,,58,96
33936,note_on,,,,,0,0,12,,,,13,,46,96
33978,note_off,,,,,42,0,10,,,,11,,46,0
33978,note_off,,,,,42,0,11,,,,12,,34,0
33978,note_off,,,,,0,0,12,,,,13,,46,0
33978,note_off,,,,,42,0,6,,,,5,,46,0
33978,note_off,,,,,42,0,12,,,,13,,58,0
33984,note_on,,,,,6,0,12,,,,13,,57,96
33984,note_on,,,,,0,0,12,,,,13,,45,96
33984,note_on,,,,,6,0,10,,,,11,,45,49
33984,note_on,,,,,6,0,11,,,,12,,33,49
33984,note_on,,,,,6,0,6,,,,5,,45,49
34026,note_off,,,,,42,0,12,,,,13,,57,0
34026,note_off,,,,,0,0,12,,,,13,,45,0
34026,note_off,,,,,42,0,11,,,,12,,33,0
34026,note_off,,,,,42,0,10,,,,11,,45,0
34026,note_off,,,,,42,0,6,,,,5,,45,0
34032,note_on,,,,,0,0,12,,,,13,,43,96
34032,note_on,,,,,6,0,11,,,,12,,31,49
34032,note_on,,,,,6,0,10,,,,11,,43,49
34032,note_on,,,,,6,0,6,,,,5,,43,49
34032,note_on,,,,,6,0,12,,,,13,,55,96
34068,note_off,,,,,276,0,8,,,,7,,72,0
34068,note_off,,,,,276,0,13,,,,14,,64,0
34068,note_off,,,,,276,0,4,,,,3,,67,0
34068,note_off,,,,,276,0,7,,,,6,,72,0
34068,note_off,,,,,276,0,5,,,,4,,64,0
34068,note_off,,,,,276,0,3,,,,2,,72,0
34068,note_off,,,,,276,0,1,,,,0,,72,0
34068,note_off,,,,,276,0,9,,,,8,,67,0
34068,note_off,,,,,276,0,2,,,,1,,67,0
34074,note_off,,,,,42,0,11,,,,12,,31,0
34074,note_off,,,,,42,0,6,,,,5,,43,0
34074,note_off,,,,,42,0,10,,,,11,,43,0
34074,note_off,,,,,42,0,12,,,,13,,55,0
34074,note_off,,,,,0,0,12,,,,13,,43,0
34080,note_on,,,,,6,0,12,,,,13,,60,96
34080,note_on,,,,,12,0,7,,,,6,,72,75
34080,note_on,,,,,12,0,4,,,,3,,69,62
34080,note_on,,,,,12,0,5,,,,4,,65,62
34080,note_on,,,,,12,0,3,,,,2,,72,62
34080,note_on,,,,,12,0,9,,,,8,,69,75
34080,note_on,,,,,12,0,1,,,,0,,53,127
34080,note_on,,,,,12,0,13,,,,14,,65,75
34080,note_on,,,,,12,0,8,,,,7,,72,75
34080,note_on,,,,,6,0,6,,,,5,,41,49
34080,note_on,,,,,6,0,10,,,,11,,41,49
34080,note_on,,,,,0,0,12,,,,13,,41,96
34080,note_on,,,,,0,0,12,,,,13,,69,96
34080,note_on,,,,,6,0,11,,,,12,,29,49
34164,note_off,,,,,84,0,6,,,,5,,41,0
34164,note_off,,,,,84,0,8,,,,7,,72,0
34164,note_off,,,,,84,0,3,,,,2,,72,0
34164,note_off,,,,,0,0,12,,,,13,,69,0
34164,note_off,,,,,84,0,7,,,,6,,72,0
34164,note_off,,,,,0,0,12,,,,13,,41,0
34164,note_off,,,,,84,0,9,,,,8,,69,0
34164,note_off,,,,,84,0,12,,,,13,,60,0
34164,note_off,,,,,84,0,11,,,,12,,29,0
34164,note_off,,,,,84,0,10,,,,11,,41,0
34164,note_off,,,,,84,0,4,,,,3,,69,0
34164,note_off,,,,,84,0,1,,,,0,,53,0
34176,note_on,,,,,12,0,7,,,,6,,75,75
34176,note_on,,,,,12,0,9,,,,8,,72,75
34176,note_on,,,,,0,0,12,,,,13,,57,96
34176,note_on,,,,,12,0,3,,,,2,,75,62
34176,note_on,,,,,12,0,10,,,,11,,57,49
34176,note_on,,,,,0,0,12,,,,13,,72,96
34176,note_on,,,,,12,0,12,,,,13,,63,96
34176,note_on,,,,,12,0,4,,,,3,,72,62
34176,note_on,,,,,12,0,1,,,,0,,53,127
34176,note_on,,,,,12,0,11,,,,12,,45,49
34176,note_on,,,,,12,0,8,,,,7,,75,75
34176,note_on,,,,,12,0,6,,,,5,,57,49
34218,note_off,,,,,42,0,1,,,,0,,53,0
34224,note_on,,,,,6,0,1,,,,0,,53,127
34260,note_off,,,,,84,0,12,,,,13,,63,0
34260,note_off,,,,,0,0,12,,,,13,,72,0
34260,note_off,,,,,0,0,12,,,,13,,57,0
34260,note_off,,,,,84,0,4,,,,3,,72,0
34260,note_off,,,,,84,0,3,,,,2,,75,0
34260,note_off,,,,,84,0,8,,,,7,,75,0
34260,note_off,,,,,84,0,6,,,,5,,57,0
34260,note_off,,,,,84,0,9,,,,8,,72,0
34260,note_off,,,,,84,0,10,,,,11,,57,0
34260,note_off,,,,,180,0,13,,,,14,,65,0
34260,note_off,,,,,84,0,11,,,,12,,45,0
34260,note_off,,,,,180,0,5,,,,4,,65,0
34260,note_off,,,,,84,0,7,,,,6,,75,0
34266,note_off,,,,,42,0,1,,,,0,,53,0
34272,note_on,,,,,12,0,6,,,,5,,58,49
34272,note_on,,,,,12,0,10,,,,11,,58,49
34272,note_on,,,,,12,0,8,,,,7,,74,75
34272,note_on,,,,,12,0,13,,,,14,,65,75
34272,note_on,,,,,6,0,1,,,,0,,53,127
34272,note_on,,,,,12,0,11,,,,12,,46,49
34272,note_on,,,,,0,0,12,,,,13,,74,96
34272,note_on,,,,,12,0,9,,,,8,,70,75
34272,note_on,,,,,12,0,4,,,,3,,70,62
34272,note_on,,,,,0,0,12,,,,13,,58,96
34272,note_on,,,,,12,0,7,,,,6,,74,75
34272,note_on,,,,,12,0,12,,,,13,,65,96
34272,note_on,,,,,12,0,3,,,,2,,74,62
34272,note_on,,,,,12,0,5,,,,4,,65,62
34314,note_off,,,,,42,0,1,,,,0,,53,0
34320,note_on,,,,,6,0,1,,,,0,,53,127
34356,note_off,,,,,84,0,9,,,,8,,70,0
34356,note_off,,,,,84,0,5,,,,4,,65,0
34356,note_off,,,,,84,0,8,,,,7,,74,0
34356,note_off,,,,,84,0,12,,,,13,,65,0
34356,note_off,,,,,0,0,12,,,,13,,58,0
34356,note_off,,,,,84,0,10,,,,11,,58,0
34356,note_off,,,,,84,0,11,,,,12,,46,0
34356,note_off,,,,,84,0,6,,,,5,,58,0
34356,note_off,,,,,84,0,7,,,,6,,74,0
34356,note_off,,,,,0,0,12,,,,13,,74,0
34356,note_off,,,,,84,0,3,,,,2,,74,0
34356,note_off,,,,,84,0,4,,,,3,,70,0
34356,note_off,,,,,84,0,13,,,,14,,65,0
34362,note_off,,,,,42,0,1,,,,0,,53,0
34368,note_on,,,,,6,0,1,,,,0,,53,127
34368,note_on,,,,,12,0,4,,,,3,,69,62
34368,note_on,,,,,12,0,12,,,,13,,69,96
34368,note_on,,,,,0,0,12,,,,13,,75,96
34368,note_on,,,,,0,0,12,,,,13,,60,96
34368,note_on,,,,,12,0,3,,,,2,,72,62
34368,note_on,,,,,12,0,7,,,,6,,72,75
34368,note_on,,,,,12,0,11,,,,12,,48,49
34368,note_on,,,,,12,0,13,,,,14,,65,75
34368,note_on,,,,,12,0,10,,,,11,,60,49
34368,note_on,,,,,12,0,6,,,,5,,60,49
34368,note_on,,,,,12,0,5,,,,4,,63,62
34368,note_on,,,,,300,0,2,,,,1,,53,127
34368,note_on,,,,,12,0,9,,,,8,,69,75
34368,note_on,,,,,12,0,8,,,,7,,72,75
34378,note_off,,,,,10,0,13,,,,14,,65,0
34380,note_on,,,,,2,0,13,,,,14,,63,75
34390,note_off,,,,,10,0,13,,,,14,,63,0
34392,note_on,,,,,2,0,13,,,,14,,65,75
34402,note_off,,,,,10,0,13,,,,14,,65,0
34404,note_on,,,,,2,0,13,,,,14,,63,75
34414,note_off,,,,,10,0,13,,,,14,,63,0
34416,note_on,,,,,2,0,13,,,,14,,65,75
34426,note_off,,,,,10,0,13,,,,14,,65,0
34428,note_on,,,,,2,0,13,,,,14,,63,75
34438,note_off,,,,,10,0,13,,,,14,,63,0
34440,note_on,,,,,2,0,13,,,,14,,65,75
34450,note_off,,,,,10,0,13,,,,14,,65,0
34452,note_off,,,,,0,0,12,,,,13,,60,0
34452,note_off,,,,,0,0,12,,,,13,,75,0
34452,note_off,,,,,84,0,12,,,,13,,69,0
34452,note_off,,,,,84,0,3,,,,2,,72,0
34452,note_off,,,,,84,0,6,,,,5,,60,0
34452,note_off,,,,,84,0,7,,,,6,,72,0
34452,note_off,,,,,84,0,4,,,,3,,69,0
34452,note_off,,,,,84,0,8,,,,7,,72,0
34452,note_off,,,,,84,0,10,,,,11,,60,0
34452,note_off,,,,,84,0,5,,,,4,,63,0
34452,note_off,,,,,84,0,2,,,,1,,53,0
34452,note_on,,,,,2,0,13,,,,14,,63,75
34452,note_off,,,,,84,0,9,,,,8,,69,0
34452,note_off,,,,,84,0,1,,,,0,,53,0
34452,note_off,,,,,84,0,11,,,,12,,48,0
34462,note_off,,,,,10,0,13,,,,14,,63,0
34464,note_on,,,,,12,0,11,,,,12,,51,49
34464,note_on,,,,,12,0,7,,,,6,,70,75
34464,note_on,,,,,12,0,5,,,,4,,62,62
34464,note_on,,,,,2,0,13,,,,14,,62,75
34464,note_on,,,,,12,0,9,,,,8,,65,75
34464,note_on,,,,,12,0,12,,,,13,,70,96
34464,note_on,,,,,12,0,2,,,,1,,53,127
34464,note_on,,,,,0,0,12,,,,13,,75,96
34464,note_on,,,,,0,0,12,,,,13,,63,96
34464,note_on,,,,,12,0,8,,,,7,,70,75
34464,note_on,,,,,12,0,4,,,,3,,65,62
34464,note_on,,,,,12,0,3,,,,2,,70,62
34464,note_on,,,,,12,0,10,,,,11,,63,49
34464,note_on,,,,,12,0,6,,,,5,,63,49
34506,note_off,,,,,42,0,5,,,,4,,62,0
34506,note_off,,,,,42,0,2,,,,1,,53,0
34506,note_off,,,,,42,0,3,,,,2,,70,0
34506,note_off,,,,,42,0,7,,,,6,,70,0
34506,note_off,,,,,42,0,13,,,,14,,62,0
34506,note_off,,,,,42,0,8,,,,7,,70,0
34512,note_on,,,,,6,0,7,,,,6,,69,75
34512,note_on,,,,,6,0,5,,,,4,,60,62
34512,note_on,,,,,6,0,2,,,,1,,53,127
34512,note_on,,,,,6,0,13,,,,14,,60,75
34512,note_on,,,,,6,0,3,,,,2,,69,62
34512,note_on,,,,,6,0,8,,,,7,,69,75
34548,note_off,,,,,84,0,11,,,,12,,51,0
34548,note_off,,,,,84,0,10,,,,11,,63,0
34548,note_off,,,,,84,0,6,,,,5,,63,0
34548,note_off,,,,,84,0,9,,,,8,,65,0
34548,note_off,,,,,0,0,12,,,,13,,63,0
34548,note_off,,,,,0,0,12,,,,13,,75,0
34548,note_off,,,,,84,0,4,,,,3,,65,0
34548,note_off,,,,,84,0,12,,,,13,,70,0
34554,note_off,,,,,42,0,3,,,,2,,69,0
34554,note_off,,,,,42,0,5,,,,4,,60,0
34554,note_off,,,,,42,0,7,,,,6,,69,0
34554,note_off,,,,,42,0,13,,,,14,,60,0
34554,note_off,,,,,42,0,8,,,,7,,69,0
34554,note_off,,,,,42,0,2,,,,1,,53,0
34560,note_on,,,,,0,0,12,,,,13,,62,96
34560,note_on,,,,,12,0,11,,,,12,,50,49
34560,note_on,,,,,12,0,10,,,,11,,62,49
34560,note_on,,,,,6,0,7,,,,6,,70,75
34560,note_on,,,,,12,0,6,,,,5,,62,49
34560,note_on,,,,,12,0,9,,,,8,,65,75
34560,note_on,,,,,0,0,12,,,,13,,70,96
34560,note_on,,,,,6,0,5,,,,4,,62,62
34560,note_on,,,,,12,0,12,,,,13,,62,96
34560,note_on,,,,,12,0,4,,,,3,,65,62
34560,note_on,,,,,6,0,8,,,,7,,70,75
34560,note_on,,,,,6,0,13,,,,14,,62,75
34560,note_on,,,,,6,0,3,,,,2,,70,62
34560,note_on,,,,,6,0,2,,,,1,,53,127
34602,note_off,,,,,42,0,2,,,,1,,53,0
34608,note_on,,,,,6,0,2,,,,1,,53,127
34644,note_off,,,,,84,0,12,,,,13,,62,0
34644,note_off,,,,,0,0,12,,,,13,,70,0
34644,note_off,,,,,0,0,12,,,,13,,62,0
34644,note_off,,,,,84,0,10,,,,11,,62,0
34644,note_off,,,,,84,0,11,,,,12,,50,0
34644,note_off,,,,,84,0,6,,,,5,,62,0
34644,note_off,,,,,84,0,13,,,,14,,62,0
34644,note_off,,,,,84,0,8,,,,7,,70,0
34644,note_off,,,,,84,0,5,,,,4,,62,0
34644,note_off,,,,,84,0,9,,,,8,,65,0
34644,note_off,,,,,84,0,4,,,,3,,65,0
34644,note_off,,,,,84,0,7,,,,6,,70,0
34644,note_off,,,,,84,0,3,,,,2,,70,0
34650,note_off,,,,,42,0,2,,,,1,,53,0
34656,note_on,,,,,12,0,10,,,,11,,60,49
34656,note_on,,,,,12,0,7,,,,6,,72,75
34656,note_on,,,,,12,0,6,,,,5,,60,49
34656,note_on,,,,,204,0,1,,,,0,,53,127
34656,note_on,,,,,6,0,2,,,,1,,53,127
34656,note_on,,,,,12,0,4,,,,3,,69,62
34656,note_on,,,,,12,0,8,,,,7,,72,75
34656,note_on,,,,,12,0,12,,,,13,,69,96
34656,note_on,,,,,0,0,12,,,,13,,75,96
34656,note_on,,,,,0,0,12,,,,13,,60,96
34656,note_on,,,,,12,0,9,,,,8,,69,75
34656,note_on,,,,,12,0,5,,,,4,,63,62
34656,note_on,,,,,12,0,3,,,,2,,72,62
34656,note_on,,,,,12,0,11,,,,12,,48,49
34656,note_on,,,,,12,0,13,,,,14,,63,75
34740,note_off,,,,,84,0,9,,,,8,,69,0
34740,note_off,,,,,84,0,5,,,,4,,63,0
34740,note_off,,,,,84,0,1,,,,0,,53,0
34740,note_off,,,,,84,0,13,,,,14,,63,0
34740,note_off,,,,,84,0,6,,,,5,,60,0
34740,note_off,,,,,84,0,7,,,,6,,72,0
34740,note_off,,,,,84,0,2,,,,1,,53,0
34740,note_off,,,,,84,0,11,,,,12,,48,0
34740,note_off,,,,,84,0,3,,,,2,,72,0
34740,note_off,,,,,0,0,12,,,,13,,60,0
34740,note_off,,,,,84,0,10,,,,11,,60,0
34740,note_off,,,,,0,0,12,,,,13,,75,0
34740,note_off,,,,,84,0,12,,,,13,,69,0
34740,note_off,,,,,84,0,8,,,,7,,72,0
34740,note_off,,,,,84,0,4,,,,3,,69,0
34752,note_on,,,,,12,0,7,,,,6,,75,75
34752,note_on,,,,,12,0,9,,,,8,,72,75
34752,note_on,,,,,12,0,4,,,,3,,72,62
34752,note_on,,,,,12,0,5,,,,4,,60,62
34752,note_on,,,,,12,0,13,,,,14,,60,75
34752,note_on,,,,,12,0,1,,,,0,,53,127
34752,note_on,,,,,12,0,11,,,,12,,46,49
34752,note_on,,,,,12,0,12,,,,13,,63,96
34752,note_on,,,,,0,0,12,,,,13,,72,96
34752,note_on,,,,,0,0,12,,,,13,,58,96
34752,note_on,,,,,12,0,10,,,,11,,58,49
34752,note_on,,,,,12,0,6,,,,5,,58,49
34752,note_on,,,,,12,0,3,,,,2,,75,62
34752,note_on,,,,,12,0,8,,,,7,,75,75
34794,note_off,,,,,42,0,11,,,,12,,46,0
34794,note_off,,,,,42,0,10,,,,11,,58,0
34794,note_off,,,,,42,0,6,,,,5,,58,0
34794,note_off,,,,,42,0,12,,,,13,,58,0
34794,note_off,,,,,42,0,1,,,,0,,53,0
34800,note_on,,,,,6,0,10,,,,11,,57,49
34800,note_on,,,,,6,0,12,,,,13,,57,96
34800,note_on,,,,,6,0,1,,,,0,,53,127
34800,note_on,,,,,6,0,11,,,,12,,45,49
34800,note_on,,,,,6,0,6,,,,5,,57,49
34836,note_off,,,,,0,0,12,,,,13,,72,0
34836,note_off,,,,,36,0,12,,,,13,,63,0
34836,note_off,,,,,84,0,13,,,,14,,60,0
34836,note_off,,,,,84,0,3,,,,2,,75,0
34836,note_off,,,,,84,0,9,,,,8,,72,0
34836,note_off,,,,,84,0,4,,,,3,,72,0
34836,note_off,,,,,84,0,5,,,,4,,60,0
34836,note_off,,,,,84,0,7,,,,6,,75,0
34836,note_off,,,,,84,0,8,,,,7,,75,0
34842,note_off,,,,,42,0,6,,,,5,,57,0
34842,note_off,,,,,42,0,1,,,,0,,53,0
34842,note_off,,,,,42,0,11,,,,12,,45,0
34842,note_off,,,,,42,0,10,,,,11,,57,0
34842,note_off,,,,,6,0,12,,,,13,,57,0
34848,note_on,,,,,6,0,6,,,,5,,58,49
34848,note_on,,,,,6,0,1,,,,0,,53,127
34848,note_on,,,,,12,0,7,,,,6,,74,75
34848,note_on,,,,,6,0,10,,,,11,,58,49
34848,note_on,,,,,12,0,5,,,,4,,65,62
34848,note_on,,,,,12,0,9,,,,8,,70,75
34848,note_on,,,,,0,0,12,,,,13,,74,96
34848,note_on,,,,,12,0,4,,,,3,,70,62
34848,note_on,,,,,0,0,12,,,,13,,58,96
34848,note_on,,,,,12,0,8,,,,7,,74,75
34848,note_on,,,,,12,0,3,,,,2,,74,62
34848,note_on,,,,,6,0,11,,,,12,,46,49
34848,note_on,,,,,12,0,13,,,,14,,65,75
34848,note_on,,,,,6,0,12,,,,13,,65,96
34890,note_off,,,,,42,0,1,,,,0,,53,0
34896,note_on,,,,,6,0,1,,,,0,,53,127
34932,note_off,,,,,0,0,12,,,,13,,74,0
34932,note_off,,,,,84,0,10,,,,11,,58,0
34932,note_off,,,,,84,0,5,,,,4,,65,0
34932,note_off,,,,,84,0,9,,,,8,,70,0
34932,note_off,,,,,84,0,11,,,,12,,46,0
34932,note_off,,,,,84,0,4,,,,3,,70,0
34932,note_off,,,,,84,0,7,,,,6,,74,0
34932,note_off,,,,,0,0,12,,,,13,,58,0
34932,note_off,,,,,84,0,12,,,,13,,65,0
34932,note_off,,,,,84,0,3,,,,2,,74,0
34932,note_off,,,,,84,0,13,,,,14,,65,0
34932,note_off,,,,,84,0,8,,,,7,,74,0
34932,note_off,,,,,84,0,6,,,,5,,58,0
34938,note_off,,,,,42,0,1,,,,0,,53,0
34944,note_on,,,,,12,0,11,,,,12,,45,49
34944,note_on,,,,,12,0,9,,,,8,,72,75
34944,note_on,,,,,6,0,1,,,,0,,53,127
34944,note_on,,,,,12,0,3,,,,2,,74,62
34944,note_on,,,,,12,0,8,,,,7,,74,75
34944,note_on,,,,,12,0,13,,,,14,,65,75
34944,note_on,,,,,204,0,2,,,,1,,53,127
34944,note_on,,,,,12,0,5,,,,4,,65,62
34944,note_on,,,,,12,0,6,,,,5,,57,49
34944,note_on,,,,,12,0,7,,,,6,,74,75
34944,note_on,,,,,12,0,4,,,,3,,72,62
34944,note_on,,,,,12,0,12,,,,13,,65,96
34944,note_on,,,,,0,0,12,,,,13,,72,96
34944,note_on,,,,,0,0,12,,,,13,,57,96
34944,note_on,,,,,12,0,10,,,,11,,57,49
34954,note_off,,,,,10,0,7,,,,6,,74,0
34954,note_off,,,,,10,0,8,,,,7,,74,0
34954,note_off,,,,,10,0,3,,,,2,,74,0
34956,note_on,,,,,2,0,3,,,,2,,72,62
34956,note_on,,,,,2,0,8,,,,7,,72,75
34956,note_on,,,,,2,0,7,,,,6,,72,75
34966,note_off,,,,,10,0,8,,,,7,,72,0
34966,note_off,,,,,10,0,3,,,,2,,72,0
34966,note_off,,,,,10,0,7,,,,6,,72,0
34968,note_on,,,,,2,0,8,,,,7,,74,75
34968,note_on,,,,,2,0,3,,,,2,,74,62
34968,note_on,,,,,2,0,7,,,,6,,74,75
34978,note_off,,,,,10,0,8,,,,7,,74,0
34978,note_off,,,,,10,0,3,,,,2,,74,0
34978,note_off,,,,,10,0,7,,,,6,,74,0
34980,note_on,,,,,2,0,8,,,,7,,72,75
34980,note_on,,,,,2,0,3,,,,2,,72,62
34980,note_on,,,,,2,0,7,,,,6,,72,75
34990,note_off,,,,,10,0,8,,,,7,,72,0
34990,note_off,,,,,10,0,3,,,,2,,72,0
34990,note_off,,,,,10,0,7,,,,6,,72,0
34992,note_on,,,,,2,0,3,,,,2,,74,62
34992,note_on,,,,,2,0,8,,,,7,,74,75
34992,note_on,,,,,2,0,7,,,,6,,74,75
35002,note_off,,,,,10,0,7,,,,6,,74,0
35002,note_off,,,,,10,0,3,,,,2,,74,0
35002,note_off,,,,,10,0,8,,,,7,,74,0
35004,note_on,,,,,2,0,7,,,,6,,72,75
35004,note_on,,,,,2,0,3,,,,2,,72,62
35004,note_on,,,,,2,0,8,,,,7,,72,75
35014,note_off,,,,,10,0,7,,,,6,,72,0
35014,note_off,,,,,10,0,8,,,,7,,72,0
35014,note_off,,,,,10,0,3,,,,2,,72,0
35016,note_on,,,,,2,0,7,,,,6,,74,75
35016,note_on,,,,,2,0,8,,,,7,,74,75
35016,note_on,,,,,2,0,3,,,,2,,74,62
35026,note_off,,,,,10,0,8,,,,7,,74,0
35026,note_off,,,,,10,0,3,,,,2,,74,0
35026,note_off,,,,,10,0,7,,,,6,,74,0
35028,note_off,,,,,84,0,2,,,,1,,53,0
35028,note_on,,,,,2,0,3,,,,2,,72,62
35028,note_off,,,,,0,0,12,,,,13,,57,0
35028,note_on,,,,,2,0,8,,,,7,,72,75
35028,note_off,,,,,84,0,4,,,,3,,72,0
35028,note_off,,,,,0,0,12,,,,13,,72,0
35028,note_off,,,,,84,0,11,,,,12,,45,0
35028,note_off,,,,,84,0,9,,,,8,,72,0
35028,note_off,,,,,84,0,1,,,,0,,53,0
35028,note_off,,,,,84,0,12,,,,13,,65,0
35028,note_on,,,,,2,0,7,,,,6,,72,75
35028,note_off,,,,,84,0,10,,,,11,,57,0
35028,note_off,,,,,84,0,6,,,,5,,57,0
35038,note_off,,,,,10,0,7,,,,6,,72,0
35038,note_off,,,,,10,0,3,,,,2,,72,0
35038,note_off,,,,,10,0,8,,,,7,,72,0
35040,note_on,,,,,2,0,7,,,,6,,74,75
35040,note_on,,,,,12,0,10,,,,11,,58,49
35040,note_on,,,,,12,0,4,,,,3,,70,62
35040,note_on,,,,,2,0,3,,,,2,,74,62
35040,note_on,,,,,2,0,8,,,,7,,74,75
35040,note_on,,,,,12,0,2,,,,1,,53,127
35040,note_on,,,,,12,0,11,,,,12,,46,49
35040,note_on,,,,,12,0,9,,,,8,,70,75
35040,note_on,,,,,0,0,12,,,,13,,58,96
35040,note_on,,,,,0,0,12,,,,13,,70,96
35040,note_on,,,,,12,0,6,,,,5,,58,49
35040,note_on,,,,,12,0,12,,,,13,,65,96
35050,note_off,,,,,10,0,8,,,,7,,74,0
35050,note_off,,,,,10,0,3,,,,2,,74,0
35050,note_off,,,,,10,0,7,,,,6,,74,0
35052,note_on,,,,,2,0,7,,,,6,,72,75
35052,note_on,,,,,2,0,3,,,,2,,72,62
35052,note_on,,,,,2,0,8,,,,7,,72,75
35062,note_off,,,,,10,0,3,,,,2,,72,0
35062,note_off,,,,,10,0,8,,,,7,,72,0
35062,note_off,,,,,10,0,7,,,,6,,72,0
35064,note_on,,,,,2,0,7,,,,6,,74,75
35064,note_on,,,,,2,0,3,,,,2,,74,62
35064,note_on,,,,,2,0,8,,,,7,,74,75
35074,note_off,,,,,10,0,3,,,,2,,74,0
35074,note_off,,,,,10,0,8,,,,7,,74,0
35074,note_off,,,,,10,0,7,,,,6,,74,0
35076,note_on,,,,,2,0,3,,,,2,,72,62
35076,note_on,,,,,2,0,8,,,,7,,72,75
35076,note_on,,,,,2,0,7,,,,6,,72,75
35082,note_off,,,,,42,0,6,,,,5,,58,0
35082,note_off,,,,,42,0,10,,,,11,,58,0
35082,note_off,,,,,42,0,12,,,,13,,58,0
35082,note_off,,,,,42,0,11,,,,12,,46,0
35082,note_off,,,,,42,0,2,,,,1,,53,0
35086,note_off,,,,,10,0,3,,,,2,,72,0
35086,note_off,,,,,10,0,8,,,,7,,72,0
35086,note_off,,,,,10,0,7,,,,6,,72,0
35088,note_on,,,,,6,0,10,,,,11,,57,49
35088,note_on,,,,,6,0,6,,,,5,,57,49
35088,note_on,,,,,2,0,8,,,,7,,74,75
35088,note_on,,,,,2,0,3,,,,2,,74,62
35088,note_on,,,,,2,0,7,,,,6,,74,75
35088,note_on,,,,,6,0,12,,,,13,,57,96
35088,note_on,,,,,6,0,2,,,,1,,53,127
35088,note_on,,,,,6,0,11,,,,12,,45,49
35098,note_off,,,,,10,0,7,,,,6,,74,0
35098,note_off,,,,,10,0,8,,,,7,,74,0
35098,note_off,,,,,10,0,3,,,,2,,74,0
35100,note_on,,,,,2,0,7,,,,6,,72,75
35100,note_on,,,,,2,0,3,,,,2,,72,62
35100,note_on,,,,,2,0,8,,,,7,,72,75
35110,note_off,,,,,10,0,8,,,,7,,72,0
35110,note_off,,,,,10,0,3,,,,2,,72,0
35110,note_off,,,,,10,0,7,,,,6,,72,0
35112,note_on,,,,,2,0,8,,,,7,,74,75
35112,note_on,,,,,2,0,3,,,,2,,74,62
35112,note_on,,,,,2,0,7,,,,6,,74,75
35122,note_off,,,,,10,0,3,,,,2,,74,0
35122,note_off,,,,,10,0,8,,,,7,,74,0
35122,note_off,,,,,10,0,7,,,,6,,74,0
35124,note_off,,,,,36,0,12,,,,13,,65,0
35124,note_off,,,,,0,0,12,,,,13,,70,0
35124,note_off,,,,,84,0,4,,,,3,,70,0
35124,note_off,,,,,180,0,13,,,,14,,65,0
35124,note_off,,,,,180,0,5,,,,4,,65,0
35124,note_on,,,,,2,0,3,,,,2,,72,62
35124,note_on,,,,,2,0,8,,,,7,,72,75
35124,note_on,,,,,2,0,7,,,,6,,72,75
35124,note_off,,,,,84,0,9,,,,8,,70,0
35130,note_off,,,,,6,0,12,,,,13,,57,0
35130,note_off,,,,,42,0,2,,,,1,,53,0
35130,note_off,,,,,42,0,11,,,,12,,45,0
35130,note_off,,,,,42,0,10,,,,11,,57,0
35130,note_off,,,,,42,0,6,,,,5,,57,0
35134,note_off,,,,,10,0,3,,,,2,,72,0
35134,note_off,,,,,10,0,8,,,,7,,72,0
35134,note_off,,,,,10,0,7,,,,6,,72,0
35136,note_on,,,,,12,0,4,,,,3,,69,62
35136,note_on,,,,,6,0,12,,,,13,,60,96
35136,note_on,,,,,0,0,12,,,,13,,69,96
35136,note_on,,,,,2,0,7,,,,6,,77,75
35136,note_on,,,,,0,0,12,,,,13,,55,96
35136,note_on,,,,,12,0,9,,,,8,,69,75
35136,note_on,,,,,6,0,2,,,,1,,53,127
35136,note_on,,,,,2,0,8,,,,7,,77,75
35136,note_on,,,,,6,0,6,,,,5,,55,49
35136,note_on,,,,,12,0,5,,,,4,,60,62
35136,note_on,,,,,6,0,11,,,,12,,43,49
35136,note_on,,,,,2,0,3,,,,2,,77,62
35136,note_on,,,,,6,0,10,,,,11,,55,49
35136,note_on,,,,,12,0,13,,,,14,,60,75
35178,note_off,,,,,42,0,2,,,,1,,53,0
35178,note_off,,,,,42,0,12,,,,13,,55,0
35178,note_off,,,,,42,0,11,,,,12,,43,0
35178,note_off,,,,,42,0,10,,,,11,,55,0
35178,note_off,,,,,42,0,6,,,,5,,55,0
35184,note_on,,,,,6,0,6,,,,5,,53,49
35184,note_on,,,,,6,0,12,,,,13,,53,96
35184,note_on,,,,,6,0,11,,,,12,,41,49
35184,note_on,,,,,6,0,10,,,,11,,53,49
35184,note_on,,,,,6,0,2,,,,1,,53,127
35220,note_off,,,,,84,0,4,,,,3,,69,0
35220,note_off,,,,,36,0,12,,,,13,,60,0
35220,note_off,,,,,0,0,12,,,,13,,69,0
35220,note_off,,,,,84,0,13,,,,14,,60,0
35220,note_off,,,,,84,0,8,,,,7,,77,0
35220,note_off,,,,,84,0,5,,,,4,,60,0
35220,note_off,,,,,84,0,3,,,,2,,77,0
35220,note_off,,,,,84,0,7,,,,6,,77,0
35220,note_off,,,,,84,0,9,,,,8,,69,0
35226,note_off,,,,,6,0,12,,,,13,,53,0
35226,note_off,,,,,42,0,11,,,,12,,41,0
35226,note_off,,,,,42,0,10,,,,11,,53,0
35226,note_off,,,,,42,0,2,,,,1,,53,0
35226,note_off,,,,,42,0,6,,,,5,,53,0
35232,note_on,,,,,204,0,1,,,,0,,60,127
35232,note_on,,,,,6,0,11,,,,12,,41,49
35232,note_on,,,,,6,0,6,,,,5,,52,49
35232,note_on,,,,,12,0,3,,,,2,,70,62
35232,note_on,,,,,6,0,10,,,,11,,53,49
35232,note_on,,,,,12,0,4,,,,3,,67,62
35232,note_on,,,,,12,0,7,,,,6,,70,75
35232,note_on,,,,,6,0,2,,,,1,,60,127
35232,note_on,,,,,12,0,5,,,,4,,60,62
35232,note_on,,,,,0,0,12,,,,13,,53,96
35232,note_on,,,,,0,0,12,,,,13,,72,96
35232,note_on,,,,,6,0,12,,,,13,,67,96
35232,note_on,,,,,12,0,13,,,,14,,60,75
35232,note_on,,,,,12,0,9,,,,8,,67,75
35232,note_on,,,,,12,0,8,,,,7,,70,75
35242,note_off,,,,,10,0,12,,,,13,,53,0
35242,note_off,,,,,10,0,10,,,,11,,53,0
35242,note_off,,,,,10,0,11,,,,12,,41,0
35244,note_on,,,,,2,0,10,,,,11,,52,49
35244,note_on,,,,,2,0,11,,,,12,,40,49
35244,note_on,,,,,2,0,12,,,,13,,52,96
35254,note_off,,,,,10,0,11,,,,12,,40,0
35254,note_off,,,,,10,0,10,,,,11,,52,0
35254,note_off,,,,,10,0,12,,,,13,,52,0
35256,note_on,,,,,2,0,12,,,,13,,53,96
35256,note_on,,,,,2,0,11,,,,12,,41,49
35256,note_on,,,,,2,0,10,,,,11,,53,49
35266,note_off,,,,,10,0,12,,,,13,,53,0
35266,note_off,,,,,10,0,11,,,,12,,41,0
35266,note_off,,,,,10,0,10,,,,11,,53,0
35268,note_on,,,,,2,0,12,,,,13,,52,96
35268,note_on,,,,,2,0,10,,,,11,,52,49
35268,note_on,,,,,2,0,11,,,,12,,40,49
35278,note_off,,,,,10,0,11,,,,12,,40,0
35278,note_off,,,,,10,0,12,,,,13,,52,0
35278,note_off,,,,,10,0,10,,,,11,,52,0
35280,note_on,,,,,2,0,11,,,,12,,41,49
35280,note_on,,,,,2,0,12,,,,13,,53,96
35280,note_on,,,,,2,0,10,,,,11,,53,49
35290,note_off,,,,,10,0,11,,,,12,,41,0
35290,note_off,,,,,10,0,10,,,,11,,53,0
35290,note_off,,,,,10,0,12,,,,13,,53,0
35292,note_on,,,,,2,0,11,,,,12,,40,49
35292,note_on,,,,,2,0,10,,,,11,,52,49
35292,note_on,,,,,2,0,12,,,,13,,52,96
35302,note_off,,,,,10,0,11,,,,12,,40,0
35302,note_off,,,,,10,0,12,,,,13,,52,0
35302,note_off,,,,,10,0,10,,,,11,,52,0
35304,note_on,,,,,2,0,12,,,,13,,53,96
35304,note_on,,,,,2,0,10,,,,11,,53,49
35304,note_on,,,,,2,0,11,,,,12,,41,49
35314,note_off,,,,,10,0,11,,,,12,,41,0
35314,note_off,,,,,10,0,10,,,,11,,53,0
35314,note_off,,,,,10,0,12,,,,13,,53,0
35316,note_on,,,,,0,0,12,,,,13,,52,96
35316,note_off,,,,,2,0,12,,,,13,,67,0
35316,note_off,,,,,84,0,3,,,,2,,70,0
35316,note_off,,,,,84,0,1,,,,0,,60,0
35316,note_off,,,,,84,0,2,,,,1,,60,0
35316,note_on,,,,,2,0,11,,,,12,,40,49
35316,note_on,,,,,2,0,10,,,,11,,52,49
35316,note_off,,,,,0,0,12,,,,13,,72,0
35316,note_off,,,,,84,0,7,,,,6,,70,0
35316,note_off,,,,,84,0,8,,,,7,,70,0
35326,note_off,,,,,10,0,12,,,,13,,52,0
35326,note_off,,,,,10,0,10,,,,11,,52,0
35326,note_off,,,,,10,0,11,,,,12,,40,0
35328,note_on,,,,,0,0,12,,,,13,,67,96
35328,note_on,,,,,0,0,12,,,,13,,53,96
35328,note_on,,,,,12,0,8,,,,7,,67,75
35328,note_on,,,,,2,0,10,,,,11,,53,49
35328,note_on,,,,,12,0,7,,,,6,,67,75
35328,note_on,,,,,12,0,3,,,,2,,67,62
35328,note_on,,,,,12,0,1,,,,0,,60,127
35328,note_on,,,,,2,0,12,,,,13,,60,96
35328,note_on,,,,,2,0,11,,,,12,,41,49
35338,note_off,,,,,10,0,12,,,,13,,53,0
35338,note_off,,,,,10,0,11,,,,12,,41,0
35338,note_off,,,,,10,0,10,,,,11,,53,0
35340,note_on,,,,,2,0,11,,,,12,,40,49
35340,note_on,,,,,2,0,10,,,,11,,52,49
35340,note_on,,,,,2,0,12,,,,13,,52,96
35350,note_off,,,,,10,0,11,,,,12,,40,0
35350,note_off,,,,,10,0,10,,,,11,,52,0
35350,note_off,,,,,10,0,12,,,,13,,52,0
35352,note_on,,,,,2,0,10,,,,11,,53,49
35352,note_on,,,,,2,0,12,,,,13,,53,96
35352,note_on,,,,,2,0,11,,,,12,,41,49
35362,note_off,,,,,10,0,12,,,,13,,53,0
35362,note_off,,,,,10,0,11,,,,12,,41,0
35362,note_off,,,,,10,0,10,,,,11,,53,0
35364,note_on,,,,,2,0,11,,,,12,,40,49
35364,note_on,,,,,2,0,10,,,,11,,52,49
35364,note_on,,,,,2,0,12,,,,13,,52,96
35370,note_off,,,,,42,0,1,,,,0,,60,0
35374,note_off,,,,,10,0,11,,,,12,,40,0
35374,note_off,,,,,10,0,10,,,,11,,52,0
35374,note_off,,,,,10,0,12,,,,13,,52,0
35376,note_on,,,,,2,0,10,,,,11,,53,49
35376,note_on,,,,,2,0,11,,,,12,,41,49
35376,note_on,,,,,2,0,12,,,,13,,53,96
35376,note_on,,,,,6,0,1,,,,0,,60,127
35386,note_off,,,,,10,0,11,,,,12,,41,0
35386,note_off,,,,,10,0,10,,,,11,,53,0
35386,note_off,,,,,10,0,12,,,,13,,53,0
35388,note_on,,,,,2,0,12,,,,13,,52,96
35388,note_on,,,,,2,0,10,,,,11,,52,49
35388,note_on,,,,,2,0,11,,,,12,,40,49
35398,note_off,,,,,10,0,10,,,,11,,52,0
35398,note_off,,,,,10,0,12,,,,13,,52,0
35398,note_off,,,,,10,0,11,,,,12,,40,0
35400,note_on,,,,,2,0,11,,,,12,,41,49
35400,note_on,,,,,2,0,10,,,,11,,53,49
35400,note_on,,,,,2,0,12,,,,13,,53,96
35410,note_off,,,,,10,0,10,,,,11,,53,0
35410,note_off,,,,,10,0,11,,,,12,,41,0
35410,note_off,,,,,10,0,12,,,,13,,53,0
35412,note_on,,,,,0,0,12,,,,13,,52,96
35412,note_off,,,,,180,0,13,,,,14,,60,0
35412,note_off,,,,,84,0,3,,,,2,,67,0
35412,note_off,,,,,180,0,5,,,,4,,60,0
35412,note_on,,,,,2,0,11,,,,12,,40,49
35412,note_on,,,,,2,0,10,,,,11,,52,49
35412,note_off,,,,,180,0,9,,,,8,,67,0
35412,note_off,,,,,84,0,8,,,,7,,67,0
35412,note_off,,,,,180,0,4,,,,3,,67,0
35412,note_off,,,,,0,0,12,,,,13,,67,0
35412,note_off,,,,,2,0,12,,,,13,,60,0
35412,note_off,,,,,84,0,7,,,,6,,67,0
35412,note_off,,,,,180,0,6,,,,5,,52,0
35418,note_off,,,,,42,0,1,,,,0,,60,0
35422,note_off,,,,,10,0,11,,,,12,,40,0
35422,note_off,,,,,10,0,10,,,,11,,52,0
35422,note_off,,,,,10,0,12,,,,13,,52,0
35424,note_on,,,,,12,0,9,,,,8,,65,75
35424,note_on,,,,,6,0,1,,,,0,,60,127
35424,note_on,,,,,2,0,11,,,,12,,41,49
35424,note_on,,,,,2,0,10,,,,11,,53,49
35424,note_on,,,,,12,0,3,,,,2,,69,62
35424,note_on,,,,,12,0,7,,,,6,,69,75
35424,note_on,,,,,12,0,6,,,,5,,53,49
35424,note_on,,,,,12,0,5,,,,4,,60,62
35424,note_on,,,,,12,0,4,,,,3,,65,62
35424,note_on,,,,,2,0,12,,,,13,,60,96
35424,note_on,,,,,0,0,12,,,,13,,53,96
35424,note_on,,,,,12,0,8,,,,7,,69,75
35424,note_on,,,,,0,0,12,,,,13,,69,96
35424,note_on,,,,,12,0,13,,,,14,,60,75
35466,note_off,,,,,42,0,1,,,,0,,60,0
35472,note_on,,,,,6,0,1,,,,0,,60,127
35508,note_off,,,,,84,0,12,,,,13,,60,0
35508,note_off,,,,,0,0,12,,,,13,,69,0
35508,note_off,,,,,0,0,12,,,,13,,53,0
35508,note_off,,,,,84,0,6,,,,5,,53,0
35508,note_off,,,,,84,0,10,,,,11,,53,0
35508,note_off,,,,,84,0,7,,,,6,,69,0
35508,note_off,,,,,84,0,3,,,,2,,69,0
35508,note_off,,,,,84,0,8,,,,7,,69,0
35508,note_off,,,,,84,0,13,,,,14,,60,0
35508,note_off,,,,,84,0,9,,,,8,,65,0
35508,note_off,,,,,84,0,5,,,,4,,60,0
35508,note_off,,,,,84,0,4,,,,3,,65,0
35508,note_off,,,,,84,0,11,,,,12,,41,0
35514,note_off,,,,,42,0,1,,,,0,,60,0
35520,note_on,,,,,12,0,8,,,,7,,70,75
35520,note_on,,,,,12,0,6,,,,5,,55,49
35520,note_on,,,,,12,0,10,,,,11,,55,49
35520,note_on,,,,,6,0,1,,,,0,,60,127
35520,note_on,,,,,12,0,9,,,,8,,64,75
35520,note_on,,,,,12,0,7,,,,6,,70,75
35520,note_on,,,,,204,0,2,,,,1,,60,127
35520,note_on,,,,,12,0,4,,,,3,,64,62
35520,note_on,,,,,12,0,13,,,,14,,55,75
35520,note_on,,,,,12,0,12,,,,13,,64,96
35520,note_on,,,,,12,0,3,,,,2,,70,62
35520,note_on,,,,,0,0,12,,,,13,,70,96
35520,note_on,,,,,0,0,12,,,,13,,55,96
35520,note_on,,,,,12,0,5,,,,4,,64,62
35520,note_on,,,,,12,0,11,,,,12,,43,49
35562,note_off,,,,,42,0,9,,,,8,,64,0
35562,note_off,,,,,42,0,4,,,,3,,64,0
35568,note_on,,,,,6,0,4,,,,3,,65,62
35568,note_on,,,,,6,0,9,,,,8,,65,75
35604,note_off,,,,,84,0,2,,,,1,,60,0
35604,note_off,,,,,84,0,11,,,,12,,43,0
35604,note_off,,,,,84,0,8,,,,7,,70,0
35604,note_off,,,,,84,0,1,,,,0,,60,0
35604,note_off,,,,,84,0,10,,,,11,,55,0
35604,note_off,,,,,84,0,13,,,,14,,55,0
35604,note_off,,,,,0,0,12,,,,13,,70,0
35604,note_off,,,,,0,0,12,,,,13,,55,0
35604,note_off,,,,,84,0,7,,,,6,,70,0
35604,note_off,,,,,84,0,3,,,,2,,70,0
35604,note_off,,,,,84,0,6,,,,5,,55,0
35604,note_off,,,,,84,0,12,,,,13,,64,0
35604,note_off,,,,,84,0,5,,,,4,,64,0
35610,note_off,,,,,42,0,9,,,,8,,65,0
35610,note_off,,,,,42,0,4,,,,3,,65,0
35616,note_on,,,,,12,0,13,,,,14,,57,75
35616,note_on,,,,,12,0,11,,,,12,,41,49
35616,note_on,,,,,12,0,8,,,,7,,74,75
35616,note_on,,,,,12,0,5,,,,4,,69,62
35616,note_on,,,,,6,0,4,,,,3,,67,62
35616,note_on,,,,,6,0,9,,,,8,,67,75
35616,note_on,,,,,12,0,7,,,,6,,74,75
35616,note_on,,,,,12,0,3,,,,2,,74,62
35616,note_on,,,,,12,0,2,,,,1,,60,127
35616,note_on,,,,,12,0,6,,,,5,,53,49
35616,note_on,,,,,12,0,12,,,,13,,62,96
35616,note_on,,,,,0,0,12,,,,13,,69,96
35616,note_on,,,,,0,0,12,,,,13,,53,96
35616,note_on,,,,,12,0,10,,,,11,,53,49
35626,note_off,,,,,10,0,4,,,,3,,67,0
35626,note_off,,,,,10,0,9,,,,8,,67,0
35628,note_on,,,,,2,0,9,,,,8,,65,75
35628,note_on,,,,,2,0,4,,,,3,,65,62
35638,note_off,,,,,10,0,9,,,,8,,65,0
35638,note_off,,,,,10,0,4,,,,3,,65,0
35640,note_on,,,,,2,0,9,,,,8,,67,75
35640,note_on,,,,,2,0,4,,,,3,,67,62
35650,note_off,,,,,10,0,9,,,,8,,67,0
35650,note_off,,,,,10,0,4,,,,3,,67,0
35652,note_on,,,,,2,0,9,,,,8,,65,75
35652,note_on,,,,,2,0,4,,,,3,,65,62
35658,note_off,,,,,42,0,11,,,,12,,41,0
35658,note_off,,,,,42,0,5,,,,4,,69,0
35658,note_off,,,,,42,0,12,,,,13,,53,0
35658,note_off,,,,,42,0,10,,,,11,,53,0
35658,note_off,,,,,42,0,6,,,,5,,53,0
35658,note_off,,,,,42,0,2,,,,1,,60,0
35662,note_off,,,,,10,0,4,,,,3,,65,0
35662,note_off,,,,,10,0,9,,,,8,,65,0
35664,note_on,,,,,6,0,11,,,,12,,40,49
35664,note_on,,,,,6,0,2,,,,1,,60,127
35664,note_on,,,,,6,0,12,,,,13,,52,96
35664,note_on,,,,,2,0,4,,,,3,,67,62
35664,note_on,,,,,6,0,6,,,,5,,52,49
35664,note_on,,,,,2,0,9,,,,8,,67,75
35664,note_on,,,,,6,0,10,,,,11,,52,49
35664,note_on,,,,,6,0,5,,,,4,,67,62
35674,note_off,,,,,10,0,9,,,,8,,67,0
35674,note_off,,,,,10,0,4,,,,3,,67,0
35676,note_on,,,,,2,0,4,,,,3,,65,62
35676,note_on,,,,,2,0,9,,,,8,,65,75
35686,note_off,,,,,10,0,9,,,,8,,65,0
35686,note_off,,,,,10,0,4,,,,3,,65,0
35688,note_on,,,,,2,0,9,,,,8,,67,75
35688,note_on,,,,,2,0,4,,,,3,,67,62
35698,note_off,,,,,10,0,9,,,,8,,67,0
35698,note_off,,,,,10,0,4,,,,3,,67,0
35700,note_on,,,,,2,0,4,,,,3,,65,62
35700,note_off,,,,,0,0,12,,,,13,,69,0
35700,note_on,,,,,2,0,9,,,,8,,65,75
35700,note_off,,,,,84,0,13,,,,14,,57,0
35700,note_off,,,,,36,0,12,,,,13,,62,0
35706,note_off,,,,,42,0,11,,,,12,,40,0
35706,note_off,,,,,42,0,6,,,,5,,52,0
35706,note_off,,,,,42,0,5,,,,4,,67,0
35706,note_off,,,,,6,0,12,,,,13,,52,0
35706,note_off,,,,,42,0,10,,,,11,,52,0
35706,note_off,,,,,42,0,2,,,,1,,60,0
35710,note_off,,,,,10,0,4,,,,3,,65,0
35710,note_off,,,,,10,0,9,,,,8,,65,0
35712,note_on,,,,,0,0,12,,,,13,,74,96
35712,note_on,,,,,0,0,12,,,,13,,53,96
35712,note_on,,,,,6,0,6,,,,5,,53,49
35712,note_on,,,,,6,0,2,,,,1,,60,127
35712,note_on,,,,,6,0,10,,,,11,,53,49
35712,note_on,,,,,12,0,13,,,,14,,53,75
35712,note_on,,,,,2,0,9,,,,8,,67,75
35712,note_on,,,,,6,0,12,,,,13,,69,96
35712,note_on,,,,,6,0,5,,,,4,,69,62
35712,note_on,,,,,6,0,11,,,,12,,41,49
35712,note_on,,,,,2,0,4,,,,3,,67,62
35722,note_off,,,,,10,0,4,,,,3,,67,0
35722,note_off,,,,,10,0,9,,,,8,,67,0
35724,note_on,,,,,2,0,4,,,,3,,65,62
35724,note_on,,,,,2,0,9,,,,8,,65,75
35734,note_off,,,,,10,0,4,,,,3,,65,0
35734,note_off,,,,,10,0,9,,,,8,,65,0
35736,note_on,,,,,2,0,4,,,,3,,67,62
35736,note_on,,,,,2,0,9,,,,8,,67,75
35746,note_off,,,,,10,0,9,,,,8,,67,0
35746,note_off,,,,,10,0,4,,,,3,,67,0
35748,note_on,,,,,2,0,4,,,,3,,65,62
35748,note_on,,,,,2,0,9,,,,8,,65,75
35754,note_off,,,,,42,0,2,,,,1,,60,0
35758,note_off,,,,,10,0,4,,,,3,,65,0
35758,note_off,,,,,10,0,9,,,,8,,65,0
35760,note_on,,,,,2,0,4,,,,3,,64,62
35760,note_on,,,,,2,0,9,,,,8,,64,75
35760,note_on,,,,,6,0,2,,,,1,,60,127
35781,note_off,,,,,21,0,9,,,,8,,64,0
35781,note_off,,,,,21,0,4,,,,3,,64,0
35784,note_on,,,,,3,0,9,,,,8,,65,75
35784,note_on,,,,,3,0,4,,,,3,,65,62
35796,note_off,,,,,0,0,12,,,,13,,74,0
35796,note_off,,,,,84,0,12,,,,13,,69,0
35796,note_off,,,,,180,0,8,,,,7,,74,0
35796,note_off,,,,,84,0,6,,,,5,,53,0
35796,note_off,,,,,84,0,13,,,,14,,53,0
35796,note_off,,,,,0,0,12,,,,13,,53,0
35796,note_off,,,,,84,0,11,,,,12,,41,0
35796,note_off,,,,,84,0,10,,,,11,,53,0
35796,note_off,,,,,180,0,3,,,,2,,74,0
35796,note_off,,,,,84,0,5,,,,4,,69,0
35796,note_off,,,,,180,0,7,,,,6,,74,0
35802,note_off,,,,,42,0,2,,,,1,,60,0
35805,note_off,,,,,21,0,9,,,,8,,65,0
35805,note_off,,,,,21,0,4,,,,3,,65,0
35808,note_on,,,,,12,0,11,,,,12,,40,49
35808,note_on,,,,,12,0,10,,,,11,,52,49
35808,note_on,,,,,12,0,5,,,,4,,67,62
35808,note_on,,,,,12,0,7,,,,6,,72,75
35808,note_on,,,,,12,0,6,,,,5,,52,49
35808,note_on,,,,,0,0,12,,,,13,,72,96
35808,note_on,,,,,6,0,2,,,,1,,60,127
35808,note_on,,,,,12,0,8,,,,7,,72,75
35808,note_on,,,,,12,0,13,,,,14,,60,75
35808,note_on,,,,,3,0,9,,,,8,,67,75
35808,note_on,,,,,12,0,3,,,,2,,70,62
35808,note_on,,,,,204,0,1,,,,0,,60,127
35808,note_on,,,,,3,0,4,,,,3,,67,62
35808,note_on,,,,,0,0,12,,,,13,,52,96
35808,note_on,,,,,12,0,12,,,,13,,67,96
35818,note_off,,,,,10,0,7,,,,6,,72,0
35818,note_off,,,,,10,0,8,,,,7,,72,0
35820,note_on,,,,,2,0,8,,,,7,,70,75
35820,note_on,,,,,2,0,7,,,,6,,70,75
35830,note_off,,,,,10,0,7,,,,6,,70,0
35830,note_off,,,,,10,0,8,,,,7,,70,0
35832,note_on,,,,,2,0,8,,,,7,,72,75
35832,note_on,,,,,2,0,7,,,,6,,72,75
35842,note_off,,,,,10,0,7,,,,6,,72,0
35842,note_off,,,,,10,0,8,,,,7,,72,0
35844,note_on,,,,,2,0,8,,,,7,,70,75
35844,note_on,,,,,2,0,7,,,,6,,70,75
35854,note_off,,,,,10,0,7,,,,6,,70,0
35854,note_off,,,,,10,0,8,,,,7,,70,0
35856,note_on,,,,,2,0,7,,,,6,,72,75
35856,note_on,,,,,2,0,8,,,,7,,72,75
35866,note_off,,,,,10,0,7,,,,6,,72,0
35866,note_off,,,,,10,0,8,,,,7,,72,0
35868,note_on,,,,,2,0,8,,,,7,,70,75
35868,note_on,,,,,2,0,7,,,,6,,70,75
35878,note_off,,,,,10,0,8,,,,7,,70,0
35878,note_off,,,,,10,0,7,,,,6,,70,0
35880,note_on,,,,,2,0,7,,,,6,,72,75
35880,note_on,,,,,2,0,8,,,,7,,72,75
35890,note_off,,,,,10,0,8,,,,7,,72,0
35890,note_off,,,,,10,0,7,,,,6,,72,0
35892,note_off,,,,,84,0,5,,,,4,,67,0
35892,note_off,,,,,84,0,10,,,,11,,52,0
35892,note_off,,,,,84,0,9,,,,8,,67,0
35892,note_off,,,,,84,0,1,,,,0,,60,0
35892,note_on,,,,,2,0,8,,,,7,,70,75
35892,note_off,,,,,84,0,11,,,,12,,40,0
35892,note_off,,,,,0,0,12,,,,13,,52,0
35892,note_off,,,,,0,0,12,,,,13,,72,0
35892,note_off,,,,,84,0,12,,,,13,,67,0
35892,note_off,,,,,84,0,2,,,,1,,60,0
35892,note_off,,,,,84,0,4,,,,3,,67,0
35892,note_on,,,,,2,0,7,,,,6,,70,75
35892,note_off,,,,,84,0,6,,,,5,,52,0
35892,note_off,,,,,84,0,3,,,,2,,70,0
35902,note_off,,,,,10,0,7,,,,6,,70,0
35902,note_off,,,,,10,0,8,,,,7,,70,0
35904,note_on,,,,,12,0,6,,,,5,,53,49
35904,note_on,,,,,2,0,8,,,,7,,69,75
35904,note_on,,,,,2,0,7,,,,6,,69,75
35904,note_on,,,,,12,0,1,,,,0,,60,127
35904,note_on,,,,,12,0,9,,,,8,,65,75
35904,note_on,,,,,12,0,3,,,,2,,69,62
35904,note_on,,,,,0,0,12,,,,13,,69,96
35904,note_on,,,,,12,0,12,,,,13,,60,96
35904,note_on,,,,,12,0,4,,,,3,,65,62
35904,note_on,,,,,12,0,11,,,,12,,41,49
35904,note_on,,,,,12,0,10,,,,11,,53,49
35904,note_on,,,,,12,0,5,,,,4,,60,62
35904,note_on,,,,,0,0,12,,,,13,,53,96
35946,note_off,,,,,42,0,3,,,,2,,69,0
35946,note_off,,,,,42,0,8,,,,7,,69,0
35946,note_off,,,,,42,0,12,,,,13,,53,0
35946,note_off,,,,,42,0,11,,,,12,,41,0
35946,note_off,,,,,42,0,6,,,,5,,53,0
35946,note_off,,,,,42,0,1,,,,0,,60,0
35946,note_off,,,,,42,0,7,,,,6,,69,0
35946,note_off,,,,,42,0,10,,,,11,,53,0
35952,note_on,,,,,6,0,6,,,,5,,52,49
35952,note_on,,,,,6,0,10,,,,11,,52,49
35952,note_on,,,,,6,0,7,,,,6,,67,75
35952,note_on,,,,,6,0,8,,,,7,,67,75
35952,note_on,,,,,6,0,11,,,,12,,40,49
35952,note_on,,,,,6,0,3,,,,2,,67,62
35952,note_on,,,,,6,0,1,,,,0,,60,127
35952,note_on,,,,,6,0,12,,,,13,,52,96
35988,note_off,,,,,36,0,12,,,,13,,60,0
35988,note_off,,,,,180,0,13,,,,14,,60,0
35988,note_off,,,,,0,0,12,,,,13,,69,0
35988,note_off,,,,,84,0,4,,,,3,,65,0
35988,note_off,,,,,84,0,5,,,,4,,60,0
35988,note_off,,,,,84,0,9,,,,8,,65,0
35994,note_off,,,,,42,0,10,,,,11,,52,0
35994,note_off,,,,,42,0,8,,,,7,,67,0
35994,note_off,,,,,42,0,7,,,,6,,67,0
35994,note_off,,,,,42,0,11,,,,12,,40,0
35994,note_off,,,,,42,0,1,,,,0,,60,0
35994,note_off,,,,,6,0,12,,,,13,,52,0
35994,note_off,,,,,42,0,6,,,,5,,52,0
35994,note_off,,,,,42,0,3,,,,2,,67,0
36000,note_on,,,,,12,0,13,,,,14,,60,75
36000,note_on,,,,,0,0,12,,,,13,,50,96
36000,note_on,,,,,6,0,11,,,,12,,38,49
36000,note_on,,,,,0,0,12,,,,13,,72,96
36000,note_on,,,,,6,0,12,,,,13,,64,96
36000,note_on,,,,,12,0,4,,,,3,,64,62
36000,note_on,,,,,6,0,8,,,,7,,72,75
36000,note_on,,,,,6,0,10,,,,11,,50,49
36000,note_on,,,,,6,0,1,,,,0,,60,127
36000,note_on,,,,,6,0,3,,,,2,,72,62
36000,note_on,,,,,6,0,7,,,,6,,72,75
36000,note_on,,,,,12,0,5,,,,4,,60,62
36000,note_on,,,,,6,0,6,,,,5,,50,49
36000,note_on,,,,,12,0,9,,,,8,,64,75
36042,note_off,,,,,42,0,12,,,,13,,50,0
36042,note_off,,,,,42,0,6,,,,5,,50,0
36042,note_off,,,,,42,0,1,,,,0,,60,0
36042,note_off,,,,,42,0,10,,,,11,,50,0
36042,note_off,,,,,42,0,11,,,,12,,38,0
36048,note_on,,,,,6,0,12,,,,13,,48,96
36048,note_on,,,,,6,0,1,,,,0,,60,127
36048,note_on,,,,,6,0,6,,,,5,,48,49
36048,note_on,,,,,6,0,10,,,,11,,48,49
36048,note_on,,,,,6,0,11,,,,12,,36,49
36084,note_off,,,,,84,0,3,,,,2,,72,0
36084,note_off,,,,,84,0,5,,,,4,,60,0
36084,note_off,,,,,84,0,9,,,,8,,64,0
36084,note_off,,,,,84,0,4,,,,3,,64,0
36084,note_off,,,,,84,0,13,,,,14,,60,0
36084,note_off,,,,,84,0,7,,,,6,,72,0
36084,note_off,,,,,0,0,12,,,,13,,72,0
36084,note_off,,,,,36,0,12,,,,13,,64,0
36084,note_off,,,,,84,0,8,,,,7,,72,0
36090,note_off,,,,,6,0,12,,,,13,,48,0
36090,note_off,,,,,42,0,6,,,,5,,48,0
36090,note_off,,,,,42,0,10,,,,11,,48,0
36090,note_off,,,,,42,0,11,,,,12,,36,0
36090,note_off,,,,,42,0,1,,,,0,,60,0
36096,note_on,,,,,6,0,1,,,,0,,60,127
36096,note_on,,,,,6,0,6,,,,5,,53,49
36096,note_on,,,,,12,0,5,,,,4,,60,62
36096,note_on,,,,,6,0,11,,,,12,,41,49
36096,note_on,,,,,12,0,9,,,,8,,65,75
36096,note_on,,,,,204,0,2,,,,1,,60,127
36096,note_on,,,,,12,0,7,,,,6,,70,75
36096,note_on,,,,,12,0,13,,,,14,,60,75
36096,note_on,,,,,12,0,4,,,,3,,65,62
36096,note_on,,,,,0,0,12,,,,13,,69,96
36096,note_on,,,,,6,0,10,,,,11,,53,49
36096,note_on,,,,,12,0,3,,,,2,,69,62
36096,note_on,,,,,0,0,12,,,,13,,53,96
36096,note_on,,,,,6,0,12,,,,13,,60,96
36096,note_on,,,,,12,0,8,,,,7,,70,75
36106,note_off,,,,,10,0,8,,,,7,,70,0
36106,note_off,,,,,10,0,7,,,,6,,70,0
36108,note_on,,,,,2,0,7,,,,6,,69,75
36108,note_on,,,,,2,0,8,,,,7,,69,75
36118,note_off,,,,,10,0,8,,,,7,,69,0
36118,note_off,,,,,10,0,7,,,,6,,69,0
36120,note_on,,,,,2,0,8,,,,7,,70,75
36120,note_on,,,,,2,0,7,,,,6,,70,75
36130,note_off,,,,,10,0,7,,,,6,,70,0
36130,note_off,,,,,10,0,8,,,,7,,70,0
36132,note_on,,,,,2,0,8,,,,7,,69,75
36132,note_on,,,,,2,0,7,,,,6,,69,75
36142,note_off,,,,,10,0,7,,,,6,,69,0
36142,note_off,,,,,10,0,8,,,,7,,69,0
36144,note_on,,,,,2,0,7,,,,6,,70,75
36144,note_on,,,,,2,0,8,,,,7,,70,75
36154,note_off,,,,,10,0,7,,,,6,,70,0
36154,note_off,,,,,10,0,8,,,,7,,70,0
36156,note_on,,,,,2,0,7,,,,6,,69,75
36156,note_on,,,,,2,0,8,,,,7,,69,75
36166,note_off,,,,,10,0,7,,,,6,,69,0
36166,note_off,,,,,10,0,8,,,,7,,69,0
36168,note_on,,,,,2,0,8,,,,7,,70,75
36168,note_on,,,,,2,0,7,,,,6,,70,75
36178,note_off,,,,,10,0,8,,,,7,,70,0
36178,note_off,,,,,10,0,7,,,,6,,70,0
36180,note_off,,,,,84,0,6,,,,5,,53,0
36180,note_off,,,,,0,0,12,,,,13,,53,0
36180,note_on,,,,,2,0,8,,,,7,,69,75
36180,note_off,,,,,0,0,12,,,,13,,69,0
36180,note_off,,,,,84,0,2,,,,1,,60,0
36180,note_off,,,,,84,0,10,,,,11,,53,0
36180,note_off,,,,,84,0,1,,,,0,,60,0
36180,note_on,,,,,2,0,7,,,,6,,69,75
36180,note_off,,,,,84,0,12,,,,13,,60,0
36180,note_off,,,,,84,0,11,,,,12,,41,0
36190,note_off,,,,,10,0,7,,,,6,,69,0
36190,note_off,,,,,10,0,8,,,,7,,69,0
36192,note_on,,,,,12,0,12,,,,13,,69,96
36192,note_on,,,,,12,0,10,,,,11,,52,49
36192,note_on,,,,,12,0,11,,,,12,,40,49
36192,note_on,,,,,2,0,8,,,,7,,70,75
36192,note_on,,,,,2,0,7,,,,6,,70,75
36192,note_on,,,,,12,0,2,,,,1,,60,127
36192,note_on,,,,,12,0,6,,,,5,,52,49
36192,note_on,,,,,0,0,12,,,,13,,52,96
36192,note_on,,,,,0,0,12,,,,13,,72,96
36202,note_off,,,,,10,0,7,,,,6,,70,0
36202,note_off,,,,,10,0,8,,,,7,,70,0
36204,note_on,,,,,2,0,8,,,,7,,69,75
36204,note_on,,,,,2,0,7,,,,6,,69,75
36214,note_off,,,,,10,0,7,,,,6,,69,0
36214,note_off,,,,,10,0,8,,,,7,,69,0
36216,note_on,,,,,2,0,7,,,,6,,70,75
36216,note_on,,,,,2,0,8,,,,7,,70,75
36226,note_off,,,,,10,0,7,,,,6,,70,0
36226,note_off,,,,,10,0,8,,,,7,,70,0
36228,note_on,,,,,2,0,7,,,,6,,69,75
36228,note_on,,,,,2,0,8,,,,7,,69,75
36234,note_off,,,,,42,0,11,,,,12,,40,0
36234,note_off,,,,,42,0,10,,,,11,,52,0
36234,note_off,,,,,42,0,2,,,,1,,60,0
36234,note_off,,,,,42,0,12,,,,13,,52,0
36234,note_off,,,,,42,0,6,,,,5,,52,0
36238,note_off,,,,,10,0,7,,,,6,,69,0
36238,note_off,,,,,10,0,8,,,,7,,69,0
36240,note_on,,,,,6,0,11,,,,12,,38,49
36240,note_on,,,,,2,0,8,,,,7,,70,75
36240,note_on,,,,,6,0,12,,,,13,,50,96
36240,note_on,,,,,6,0,2,,,,1,,60,127
36240,note_on,,,,,2,0,7,,,,6,,70,75
36240,note_on,,,,,6,0,6,,,,5,,50,49
36240,note_on,,,,,6,0,10,,,,11,,50,49
36250,note_off,,,,,10,0,8,,,,7,,70,0
36250,note_off,,,,,10,0,7,,,,6,,70,0
36252,note_on,,,,,2,0,8,,,,7,,69,75
36252,note_on,,,,,2,0,7,,,,6,,69,75
36262,note_off,,,,,10,0,8,,,,7,,69,0
36262,note_off,,,,,10,0,7,,,,6,,69,0
36264,note_on,,,,,2,0,8,,,,7,,70,75
36264,note_on,,,,,2,0,7,,,,6,,70,75
36274,note_off,,,,,10,0,7,,,,6,,70,0
36274,note_off,,,,,10,0,8,,,,7,,70,0
36276,note_off,,,,,36,0,12,,,,13,,69,0
36276,note_off,,,,,0,0,12,,,,13,,72,0
36276,note_off,,,,,180,0,9,,,,8,,65,0
36276,note_off,,,,,180,0,4,,,,3,,65,0
36276,note_off,,,,,180,0,5,,,,4,,60,0
36276,note_off,,,,,180,0,13,,,,14,,60,0
36276,note_off,,,,,180,0,3,,,,2,,69,0
36276,note_on,,,,,2,0,7,,,,6,,69,75
36276,note_on,,,,,2,0,8,,,,7,,69,75
36282,note_off,,,,,42,0,10,,,,11,,50,0
36282,note_off,,,,,6,0,12,,,,13,,50,0
36282,note_off,,,,,42,0,2,,,,1,,60,0
36282,note_off,,,,,42,0,6,,,,5,,50,0
36282,note_off,,,,,42,0,11,,,,12,,38,0
36286,note_off,,,,,10,0,8,,,,7,,69,0
36286,note_off,,,,,10,0,7,,,,6,,69,0
36288,note_on,,,,,12,0,4,,,,3,,67,62
36288,note_on,,,,,12,0,13,,,,14,,60,75
36288,note_on,,,,,2,0,8,,,,7,,67,75
36288,note_on,,,,,0,0,12,,,,13,,72,96
36288,note_on,,,,,6,0,10,,,,11,,52,49
36288,note_on,,,,,12,0,3,,,,2,,67,62
36288,note_on,,,,,6,0,12,,,,13,,67,96
36288,note_on,,,,,0,0,12,,,,13,,52,96
36288,note_on,,,,,6,0,11,,,,12,,40,49
36288,note_on,,,,,6,0,6,,,,5,,52,49
36288,note_on,,,,,6,0,2,,,,1,,60,127
36288,note_on,,,,,2,0,7,,,,6,,67,75
36288,note_on,,,,,12,0,9,,,,8,,67,75
36288,note_on,,,,,12,0,5,,,,4,,60,62
36330,note_off,,,,,42,0,2,,,,1,,60,0
36336,note_on,,,,,6,0,2,,,,1,,60,127
36372,note_off,,,,,84,0,5,,,,4,,60,0
36372,note_off,,,,,84,0,6,,,,5,,52,0
36372,note_off,,,,,84,0,9,,,,8,,67,0
36372,note_off,,,,,84,0,4,,,,3,,67,0
36372,note_off,,,,,84,0,8,,,,7,,67,0
36372,note_off,,,,,84,0,3,,,,2,,67,0
36372,note_off,,,,,84,0,11,,,,12,,40,0
36372,note_off,,,,,84,0,10,,,,11,,52,0
36372,note_off,,,,,84,0,12,,,,13,,67,0
36372,note_off,,,,,84,0,7,,,,6,,67,0
36372,note_off,,,,,0,0,12,,,,13,,72,0
36372,note_off,,,,,0,0,12,,,,13,,52,0
36372,note_off,,,,,84,0,13,,,,14,,60,0
36378,note_off,,,,,42,0,2,,,,1,,60,0
36384,note_on,,,,,12,0,3,,,,2,,71,62
36384,note_on,,,,,12,0,10,,,,11,,50,49
36384,note_on,,,,,12,0,12,,,,13,,65,96
36384,note_on,,,,,12,0,6,,,,5,,50,49
36384,note_on,,,,,0,0,12,,,,13,,71,96
36384,note_on,,,,,12,0,9,,,,8,,65,75
36384,note_on,,,,,0,0,12,,,,13,,50,96
36384,note_on,,,,,12,0,4,,,,3,,65,62
36384,note_on,,,,,12,0,11,,,,12,,38,49
36384,note_on,,,,,204,0,1,,,,0,,67,127
36384,note_on,,,,,12,0,5,,,,4,,62,62
36384,note_on,,,,,12,0,7,,,,6,,71,75
36384,note_on,,,,,12,0,8,,,,7,,71,75
36384,note_on,,,,,6,0,2,,,,1,,67,127
36384,note_on,,,,,12,0,13,,,,14,,64,75
36394,note_off,,,,,10,0,13,,,,14,,64,0
36396,note_on,,,,,2,0,13,,,,14,,62,75
36406,note_off,,,,,10,0,13,,,,14,,62,0
36408,note_on,,,,,2,0,13,,,,14,,64,75
36418,note_off,,,,,10,0,13,,,,14,,64,0
36420,note_on,,,,,2,0,13,,,,14,,62,75
36426,note_off,,,,,42,0,7,,,,6,,71,0
36426,note_off,,,,,42,0,8,,,,7,,71,0
36426,note_off,,,,,42,0,3,,,,2,,71,0
36430,note_off,,,,,10,0,13,,,,14,,62,0
36432,note_on,,,,,6,0,7,,,,6,,72,75
36432,note_on,,,,,6,0,3,,,,2,,72,62
36432,note_on,,,,,6,0,8,,,,7,,72,75
36432,note_on,,,,,2,0,13,,,,14,,64,75
36442,note_off,,,,,10,0,13,,,,14,,64,0
36444,note_on,,,,,2,0,13,,,,14,,62,75
36454,note_off,,,,,10,0,13,,,,14,,62,0
36456,note_on,,,,,2,0,13,,,,14,,64,75
36466,note_off,,,,,10,0,13,,,,14,,64,0
36468,note_off,,,,,84,0,9,,,,8,,65,0
36468,note_off,,,,,84,0,11,,,,12,,38,0
36468,note_off,,,,,84,0,2,,,,1,,67,0
36468,note_off,,,,,84,0,6,,,,5,,50,0
36468,note_off,,,,,84,0,12,,,,13,,65,0
36468,note_off,,,,,0,0,12,,,,13,,71,0
36468,note_off,,,,,0,0,12,,,,13,,50,0
36468,note_off,,,,,84,0,1,,,,0,,67,0
36468,note_off,,,,,84,0,5,,,,4,,62,0
36468,note_on,,,,,2,0,13,,,,14,,62,75
36468,note_off,,,,,84,0,4,,,,3,,65,0
36468,note_off,,,,,84,0,10,,,,11,,50,0
36474,note_off,,,,,42,0,3,,,,2,,72,0
36474,note_off,,,,,42,0,8,,,,7,,72,0
36474,note_off,,,,,42,0,7,,,,6,,72,0
36478,note_off,,,,,10,0,13,,,,14,,62,0
36480,note_on,,,,,12,0,4,,,,3,,67,62
36480,note_on,,,,,12,0,1,,,,0,,67,127
36480,note_on,,,,,0,0,12,,,,13,,52,96
36480,note_on,,,,,6,0,3,,,,2,,74,62
36480,note_on,,,,,0,0,12,,,,13,,72,96
36480,note_on,,,,,12,0,5,,,,4,,60,62
36480,note_on,,,,,12,0,12,,,,13,,67,96
36480,note_on,,,,,12,0,6,,,,5,,52,49
36480,note_on,,,,,12,0,11,,,,12,,40,49
36480,note_on,,,,,2,0,13,,,,14,,60,75
36480,note_on,,,,,12,0,9,,,,8,,67,75
36480,note_on,,,,,12,0,10,,,,11,,52,49
36480,note_on,,,,,6,0,8,,,,7,,74,75
36480,note_on,,,,,6,0,7,,,,6,,74,75
36490,note_off,,,,,10,0,8,,,,7,,74,0
36490,note_off,,,,,10,0,3,,,,2,,74,0
36490,note_off,,,,,10,0,7,,,,6,,74,0
36492,note_on,,,,,2,0,3,,,,2,,72,62
36492,note_on,,,,,2,0,8,,,,7,,72,75
36492,note_on,,,,,2,0,7,,,,6,,72,75
36502,note_off,,,,,10,0,7,,,,6,,72,0
36502,note_off,,,,,10,0,8,,,,7,,72,0
36502,note_off,,,,,10,0,3,,,,2,,72,0
36504,note_on,,,,,2,0,3,,,,2,,74,62
36504,note_on,,,,,2,0,7,,,,6,,74,75
36504,note_on,,,,,2,0,8,,,,7,,74,75
36514,note_off,,,,,10,0,3,,,,2,,74,0
36514,note_off,,,,,10,0,8,,,,7,,74,0
36514,note_off,,,,,10,0,7,,,,6,,74,0
36516,note_on,,,,,2,0,3,,,,2,,72,62
36516,note_on,,,,,2,0,7,,,,6,,72,75
36516,note_on,,,,,2,0,8,,,,7,,72,75
36522,note_off,,,,,42,0,13,,,,14,,60,0
36522,note_off,,,,,42,0,1,,,,0,,67,0
36522,note_off,,,,,42,0,5,,,,4,,60,0
36526,note_off,,,,,10,0,8,,,,7,,72,0
36526,note_off,,,,,10,0,3,,,,2,,72,0
36526,note_off,,,,,10,0,7,,,,6,,72,0
36528,note_on,,,,,2,0,3,,,,2,,74,62
36528,note_on,,,,,6,0,5,,,,4,,62,62
36528,note_on,,,,,2,0,8,,,,7,,74,75
36528,note_on,,,,,2,0,7,,,,6,,74,75
36528,note_on,,,,,6,0,1,,,,0,,67,127
36528,note_on,,,,,6,0,13,,,,14,,62,75
36538,note_off,,,,,10,0,7,,,,6,,74,0
36538,note_off,,,,,10,0,8,,,,7,,74,0
36538,note_off,,,,,10,0,3,,,,2,,74,0
36540,note_on,,,,,2,0,7,,,,6,,72,75
36540,note_on,,,,,2,0,3,,,,2,,72,62
36540,note_on,,,,,2,0,8,,,,7,,72,75
36550,note_off,,,,,10,0,8,,,,7,,72,0
36550,note_off,,,,,10,0,7,,,,6,,72,0
36550,note_off,,,,,10,0,3,,,,2,,72,0
36552,note_on,,,,,2,0,3,,,,2,,74,62
36552,note_on,,,,,2,0,8,,,,7,,74,75
36552,note_on,,,,,2,0,7,,,,6,,74,75
36562,note_off,,,,,10,0,7,,,,6,,74,0
36562,note_off,,,,,10,0,3,,,,2,,74,0
36562,note_off,,,,,10,0,8,,,,7,,74,0
36564,note_off,,,,,84,0,12,,,,13,,67,0
36564,note_off,,,,,0,0,12,,,,13,,52,0
36564,note_off,,,,,84,0,6,,,,5,,52,0
36564,note_off,,,,,0,0,12,,,,13,,72,0
36564,note_on,,,,,2,0,3,,,,2,,72,62
36564,note_on,,,,,2,0,7,,,,6,,72,75
36564,note_on,,,,,2,0,8,,,,7,,72,75
36564,note_off,,,,,84,0,11,,,,12,,40,0
36564,note_off,,,,,84,0,10,,,,11,,52,0
36570,note_off,,,,,42,0,1,,,,0,,67,0
36570,note_off,,,,,42,0,13,,,,14,,62,0
36570,note_off,,,,,42,0,5,,,,4,,62,0
36574,note_off,,,,,10,0,8,,,,7,,72,0
36574,note_off,,,,,10,0,3,,,,2,,72,0
36574,note_off,,,,,10,0,7,,,,6,,72,0
36576,note_on,,,,,12,0,10,,,,11,,48,49
36576,note_on,,,,,6,0,5,,,,4,,64,62
36576,note_on,,,,,0,0,12,,,,13,,48,96
36576,note_on,,,,,0,0,12,,,,13,,76,96
36576,note_on,,,,,2,0,8,,,,7,,74,75
36576,note_on,,,,,2,0,7,,,,6,,74,75
36576,note_on,,,,,12,0,12,,,,13,,67,96
36576,note_on,,,,,12,0,11,,,,12,,36,49
36576,note_on,,,,,12,0,6,,,,5,,48,49
36576,note_on,,,,,2,0,3,,,,2,,74,62
36576,note_on,,,,,6,0,1,,,,0,,67,127
36576,note_on,,,,,6,0,13,,,,14,,64,75
36586,note_off,,,,,10,0,3,,,,2,,74,0
36586,note_off,,,,,10,0,8,,,,7,,74,0
36586,note_off,,,,,10,0,7,,,,6,,74,0
36588,note_on,,,,,2,0,3,,,,2,,72,62
36588,note_on,,,,,2,0,8,,,,7,,72,75
36588,note_on,,,,,2,0,7,,,,6,,72,75
36598,note_off,,,,,10,0,8,,,,7,,72,0
36598,note_off,,,,,10,0,3,,,,2,,72,0
36598,note_off,,,,,10,0,7,,,,6,,72,0
36600,note_on,,,,,2,0,8,,,,7,,74,75
36600,note_on,,,,,2,0,7,,,,6,,74,75
36600,note_on,,,,,2,0,3,,,,2,,74,62
36610,note_off,,,,,10,0,8,,,,7,,74,0
36610,note_off,,,,,10,0,7,,,,6,,74,0
36610,note_off,,,,,10,0,3,,,,2,,74,0
36612,note_on,,,,,2,0,7,,,,6,,72,75
36612,note_on,,,,,2,0,8,,,,7,,72,75
36612,note_on,,,,,2,0,3,,,,2,,72,62
36618,note_off,,,,,42,0,1,,,,0,,67,0
36622,note_off,,,,,10,0,7,,,,6,,72,0
36622,note_off,,,,,10,0,8,,,,7,,72,0
36622,note_off,,,,,10,0,3,,,,2,,72,0
36624,note_on,,,,,2,0,7,,,,6,,71,75
36624,note_on,,,,,6,0,1,,,,0,,67,127
36624,note_on,,,,,2,0,8,,,,7,,71,75
36624,note_on,,,,,2,0,3,,,,2,,71,62
36645,note_off,,,,,21,0,7,,,,6,,71,0
36645,note_off,,,,,21,0,8,,,,7,,71,0
36645,note_off,,,,,21,0,3,,,,2,,71,0
36648,note_on,,,,,3,0,7,,,,6,,72,75
36648,note_on,,,,,3,0,3,,,,2,,72,62
36648,note_on,,,,,3,0,8,,,,7,,72,75
36660,note_off,,,,,180,0,4,,,,3,,67,0
36660,note_off,,,,,84,0,10,,,,11,,48,0
36660,note_off,,,,,84,0,6,,,,5,,48,0
36660,note_off,,,,,180,0,9,,,,8,,67,0
36660,note_off,,,,,84,0,11,,,,12,,36,0
36660,note_off,,,,,84,0,12,,,,13,,67,0
36660,note_off,,,,,84,0,5,,,,4,,64,0
36660,note_off,,,,,0,0,12,,,,13,,76,0
36660,note_off,,,,,84,0,13,,,,14,,64,0
36660,note_off,,,,,0,0,12,,,,13,,48,0
36666,note_off,,,,,42,0,1,,,,0,,67,0
36669,note_off,,,,,21,0,8,,,,7,,72,0
36669,note_off,,,,,21,0,7,,,,6,,72,0
36669,note_off,,,,,21,0,3,,,,2,,72,0
36672,note_on,,,,,3,0,7,,,,6,,74,75
36672,note_on,,,,,6,0,1,,,,0,,67,127
36672,note_on,,,,,12,0,12,,,,13,,67,96
36672,note_on,,,,,0,0,12,,,,13,,74,96
36672,note_on,,,,,0,0,12,,,,13,,47,96
36672,note_on,,,,,12,0,11,,,,12,,35,49
36672,note_on,,,,,12,0,4,,,,3,,67,62
36672,note_on,,,,,12,0,6,,,,5,,47,49
36672,note_on,,,,,204,0,2,,,,1,,67,127
36672,note_on,,,,,12,0,10,,,,11,,47,49
36672,note_on,,,,,3,0,3,,,,2,,74,62
36672,note_on,,,,,12,0,13,,,,14,,62,75
36672,note_on,,,,,12,0,5,,,,4,,62,62
36672,note_on,,,,,12,0,9,,,,8,,67,75
36672,note_on,,,,,3,0,8,,,,7,,74,75
36756,note_off,,,,,84,0,3,,,,2,,74,0
36756,note_off,,,,,0,0,12,,,,13,,47,0
36756,note_off,,,,,84,0,11,,,,12,,35,0
36756,note_off,,,,,84,0,6,,,,5,,47,0
36756,note_off,,,,,84,0,8,,,,7,,74,0
36756,note_off,,,,,84,0,7,,,,6,,74,0
36756,note_off,,,,,84,0,1,,,,0,,67,0
36756,note_off,,,,,84,0,2,,,,1,,67,0
36756,note_off,,,,,84,0,12,,,,13,,67,0
36756,note_off,,,,,84,0,10,,,,11,,47,0
36756,note_off,,,,,0,0,12,,,,13,,74,0
36768,note_on,,,,,12,0,12,,,,13,,67,96
36768,note_on,,,,,0,0,12,,,,13,,72,96
36768,note_on,,,,,0,0,12,,,,13,,45,96
36768,note_on,,,,,12,0,2,,,,1,,67,127
36768,note_on,,,,,12,0,8,,,,7,,72,75
36768,note_on,,,,,12,0,3,,,,2,,72,62
36768,note_on,,,,,12,0,11,,,,12,,33,49
36768,note_on,,,,,12,0,10,,,,11,,45,49
36768,note_on,,,,,12,0,6,,,,5,,45,49
36768,note_on,,,,,12,0,7,,,,6,,72,75
36810,note_off,,,,,42,0,3,,,,2,,72,0
36810,note_off,,,,,42,0,8,,,,7,,72,0
36810,note_off,,,,,42,0,6,,,,5,,45,0
36810,note_off,,,,,42,0,12,,,,13,,45,0
36810,note_off,,,,,42,0,7,,,,6,,72,0
36810,note_off,,,,,42,0,2,,,,1,,67,0
36810,note_off,,,,,42,0,11,,,,12,,33,0
36810,note_off,,,,,42,0,10,,,,11,,45,0
36816,note_on,,,,,6,0,8,,,,7,,71,75
36816,note_on,,,,,6,0,2,,,,1,,67,127
36816,note_on,,,,,6,0,7,,,,6,,71,75
36816,note_on,,,,,6,0,11,,,,12,,31,49
36816,note_on,,,,,6,0,6,,,,5,,43,49
36816,note_on,,,,,6,0,3,,,,2,,71,62
36816,note_on,,,,,6,0,12,,,,13,,43,96
36816,note_on,,,,,6,0,10,,,,11,,43,49
36852,note_off,,,,,0,0,12,,,,13,,72,0
36852,note_off,,,,,180,0,4,,,,3,,67,0
36852,note_off,,,,,180,0,9,,,,8,,67,0
36852,note_off,,,,,36,0,12,,,,13,,67,0
36852,note_off,,,,,180,0,5,,,,4,,62,0
36852,note_off,,,,,180,0,13,,,,14,,62,0
36858,note_off,,,,,42,0,11,,,,12,,31,0
36858,note_off,,,,,42,0,2,,,,1,,67,0
36858,note_off,,,,,42,0,10,,,,11,,43,0
36858,note_off,,,,,42,0,7,,,,6,,71,0
36858,note_off,,,,,6,0,12,,,,13,,43,0
36858,note_off,,,,,42,0,8,,,,7,,71,0
36858,note_off,,,,,42,0,3,,,,2,,71,0
36858,note_off,,,,,42,0,6,,,,5,,43,0
36864,note_on,,,,,0,0,12,,,,13,,72,96
36864,note_on,,,,,6,0,12,,,,13,,67,96
36864,note_on,,,,,12,0,13,,,,14,,64,75
36864,note_on,,,,,6,0,7,,,,6,,72,75
36864,note_on,,,,,6,0,11,,,,12,,29,49
36864,note_on,,,,,0,0,12,,,,13,,41,96
36864,note_on,,,,,6,0,8,,,,7,,72,75
36864,note_on,,,,,6,0,2,,,,1,,67,127
36864,note_on,,,,,12,0,4,,,,3,,67,62
36864,note_on,,,,,6,0,3,,,,2,,72,62
36864,note_on,,,,,12,0,9,,,,8,,67,75
36864,note_on,,,,,6,0,10,,,,11,,41,49
36864,note_on,,,,,12,0,5,,,,4,,64,62
36864,note_on,,,,,6,0,6,,,,5,,41,49
36906,note_off,,,,,42,0,6,,,,5,,41,0
36906,note_off,,,,,42,0,11,,,,12,,29,0
36906,note_off,,,,,42,0,10,,,,11,,41,0
36906,note_off,,,,,42,0,2,,,,1,,67,0
36906,note_off,,,,,42,0,12,,,,13,,41,0
36912,note_on,,,,,6,0,6,,,,5,,40,49
36912,note_on,,,,,6,0,11,,,,12,,28,49
36912,note_on,,,,,6,0,12,,,,13,,40,96
36912,note_on,,,,,6,0,10,,,,11,,40,49
36912,note_on,,,,,6,0,2,,,,1,,67,127
36948,note_off,,,,,36,0,12,,,,13,,67,0
36948,note_off,,,,,0,0,12,,,,13,,72,0
36948,note_off,,,,,84,0,5,,,,4,,64,0
36948,note_off,,,,,84,0,13,,,,14,,64,0
36948,note_off,,,,,84,0,4,,,,3,,67,0
36948,note_off,,,,,84,0,7,,,,6,,72,0
36948,note_off,,,,,84,0,3,,,,2,,72,0
36948,note_off,,,,,84,0,8,,,,7,,72,0
36948,note_off,,,,,84,0,9,,,,8,,67,0
36954,note_off,,,,,6,0,12,,,,13,,40,0
36954,note_off,,,,,42,0,2,,,,1,,67,0
36954,note_off,,,,,42,0,10,,,,11,,40,0
36954,note_off,,,,,42,0,11,,,,12,,28,0
36954,note_off,,,,,42,0,6,,,,5,,40,0
36960,note_on,,,,,12,0,13,,,,14,,60,75
36960,note_on,,,,,12,0,4,,,,3,,69,62
36960,note_on,,,,,12,0,3,,,,2,,77,62
36960,note_on,,,,,6,0,2,,,,1,,69,127
36960,note_on,,,,,6,0,10,,,,11,,45,49
36960,note_on,,,,,12,0,9,,,,8,,69,75
36960,note_on,,,,,6,0,6,,,,5,,45,49
36960,note_on,,,,,204,0,1,,,,0,,72,127
36960,note_on,,,,,6,0,12,,,,13,,65,96
36960,note_on,,,,,12,0,8,,,,7,,77,75
36960,note_on,,,,,0,0,12,,,,13,,72,96
36960,note_on,,,,,0,0,12,,,,13,,45,96
36960,note_on,,,,,6,0,11,,,,12,,33,49
36960,note_on,,,,,12,0,7,,,,6,,77,75
36960,note_on,,,,,12,0,5,,,,4,,60,62
37002,note_off,,,,,42,0,1,,,,0,,72,0
37002,note_off,,,,,42,0,10,,,,11,,45,0
37002,note_off,,,,,42,0,4,,,,3,,69,0
37002,note_off,,,,,42,0,11,,,,12,,33,0
37002,note_off,,,,,42,0,6,,,,5,,45,0
37002,note_off,,,,,42,0,9,,,,8,,69,0
37002,note_off,,,,,42,0,7,,,,6,,77,0
37002,note_off,,,,,42,0,12,,,,13,,45,0
37002,note_off,,,,,42,0,8,,,,7,,77,0
37002,note_off,,,,,42,0,3,,,,2,,77,0
37008,note_on,,,,,6,0,8,,,,7,,79,75
37008,note_on,,,,,6,0,7,,,,6,,79,75
37008,note_on,,,,,6,0,10,,,,11,,41,49
37008,note_on,,,,,6,0,3,,,,2,,79,62
37008,note_on,,,,,6,0,12,,,,13,,41,96
37008,note_on,,,,,6,0,1,,,,0,,71,127
37008,note_on,,,,,6,0,11,,,,12,,29,49
37008,note_on,,,,,6,0,4,,,,3,,71,62
37008,note_on,,,,,6,0,9,,,,8,,71,75
37008,note_on,,,,,6,0,6,,,,5,,41,49
37044,note_off,,,,,84,0,13,,,,14,,60,0
37044,note_off,,,,,84,0,2,,,,1,,69,0
37044,note_off,,,,,0,0,12,,,,13,,72,0
37044,note_off,,,,,36,0,12,,,,13,,65,0
37044,note_off,,,,,84,0,5,,,,4,,60,0
37050,note_off,,,,,6,0,12,,,,13,,41,0
37050,note_off,,,,,42,0,6,,,,5,,41,0
37050,note_off,,,,,42,0,4,,,,3,,71,0
37050,note_off,,,,,42,0,9,,,,8,,71,0
37050,note_off,,,,,42,0,3,,,,2,,79,0
37050,note_off,,,,,42,0,8,,,,7,,79,0
37050,note_off,,,,,42,0,7,,,,6,,79,0
37050,note_off,,,,,42,0,1,,,,0,,71,0
37050,note_off,,,,,42,0,10,,,,11,,41,0
37050,note_off,,,,,42,0,11,,,,12,,29,0
37056,note_on,,,,,0,0,12,,,,13,,70,96
37056,note_on,,,,,12,0,2,,,,1,,67,127
37056,note_on,,,,,6,0,12,,,,13,,62,96
37056,note_on,,,,,6,0,7,,,,6,,74,75
37056,note_on,,,,,6,0,11,,,,12,,31,49
37056,note_on,,,,,6,0,8,,,,7,,74,75
37056,note_on,,,,,6,0,6,,,,5,,43,49
37056,note_on,,,,,12,0,13,,,,14,,67,75
37056,note_on,,,,,6,0,10,,,,11,,43,49
37056,note_on,,,,,6,0,9,,,,8,,71,75
37056,note_on,,,,,6,0,1,,,,0,,71,127
37056,note_on,,,,,6,0,3,,,,2,,74,62
37056,note_on,,,,,12,0,5,,,,4,,67,62
37056,note_on,,,,,0,0,12,,,,13,,43,96
37056,note_on,,,,,6,0,4,,,,3,,72,62
37066,note_off,,,,,10,0,4,,,,3,,72,0
37068,note_on,,,,,2,0,4,,,,3,,71,62
37078,note_off,,,,,10,0,4,,,,3,,71,0
37080,note_on,,,,,2,0,4,,,,3,,72,62
37090,note_off,,,,,10,0,4,,,,3,,72,0
37092,note_on,,,,,2,0,4,,,,3,,71,62
37098,note_off,,,,,42,0,2,,,,1,,67,0
37102,note_off,,,,,10,0,4,,,,3,,71,0
37104,note_on,,,,,2,0,4,,,,3,,72,62
37104,note_on,,,,,6,0,2,,,,1,,67,127
37114,note_off,,,,,10,0,4,,,,3,,72,0
37116,note_on,,,,,2,0,4,,,,3,,71,62
37126,note_off,,,,,10,0,4,,,,3,,71,0
37128,note_on,,,,,2,0,4,,,,3,,72,62
37138,note_off,,,,,10,0,4,,,,3,,72,0
37140,note_off,,,,,84,0,12,,,,13,,62,0
37140,note_off,,,,,0,0,12,,,,13,,70,0
37140,note_off,,,,,84,0,6,,,,5,,43,0
37140,note_off,,,,,0,0,12,,,,13,,43,0
37140,note_off,,,,,84,0,5,,,,4,,67,0
37140,note_off,,,,,84,0,11,,,,12,,31,0
37140,note_off,,,,,84,0,10,,,,11,,43,0
37140,note_off,,,,,84,0,13,,,,14,,67,0
37140,note_on,,,,,2,0,4,,,,3,,71,62
37146,note_off,,,,,42,0,2,,,,1,,67,0
37150,note_off,,,,,10,0,4,,,,3,,71,0
37152,note_on,,,,,12,0,10,,,,11,,43,49
37152,note_on,,,,,6,0,2,,,,1,,67,127
37152,note_on,,,,,12,0,11,,,,12,,31,49
37152,note_on,,,,,12,0,12,,,,13,,65,96
37152,note_on,,,,,12,0,13,,,,14,,65,75
37152,note_on,,,,,0,0,12,,,,13,,70,96
37152,note_on,,,,,0,0,12,,,,13,,43,96
37152,note_on,,,,,12,0,5,,,,4,,65,62
37152,note_on,,,,,2,0,4,,,,3,,72,62
37152,note_on,,,,,12,0,6,,,,5,,43,49
37162,note_off,,,,,10,0,4,,,,3,,72,0
37164,note_on,,,,,2,0,4,,,,3,,71,62
37174,note_off,,,,,10,0,4,,,,3,,71,0
37176,note_on,,,,,2,0,4,,,,3,,72,62
37186,note_off,,,,,10,0,4,,,,3,,72,0
37188,note_off,,,,,132,0,3,,,,2,,74,0
37188,note_off,,,,,132,0,1,,,,0,,71,0
37188,note_off,,,,,132,0,9,,,,8,,71,0
37188,note_off,,,,,132,0,8,,,,7,,74,0
37188,note_on,,,,,2,0,4,,,,3,,71,62
37188,note_off,,,,,132,0,7,,,,6,,74,0
37194,note_off,,,,,42,0,2,,,,1,,67,0
37198,note_off,,,,,10,0,4,,,,3,,71,0
37200,note_on,,,,,2,0,4,,,,3,,67,62
37200,note_on,,,,,12,0,1,,,,0,,72,127
37200,note_on,,,,,12,0,9,,,,8,,67,75
37200,note_on,,,,,12,0,8,,,,7,,72,75
37200,note_on,,,,,6,0,2,,,,1,,67,127
37200,note_on,,,,,12,0,7,,,,6,,72,75
37200,note_on,,,,,12,0,3,,,,2,,72,62
37236,note_off,,,,,84,0,11,,,,12,,31,0
37236,note_off,,,,,84,0,13,,,,14,,65,0
37236,note_off,,,,,84,0,10,,,,11,,43,0
37236,note_off,,,,,84,0,12,,,,13,,65,0
37236,note_off,,,,,0,0,12,,,,13,,70,0
37236,note_off,,,,,84,0,6,,,,5,,43,0
37236,note_off,,,,,84,0,5,,,,4,,65,0
37236,note_off,,,,,0,0,12,,,,13,,43,0
37242,note_off,,,,,42,0,4,,,,3,,67,0
37242,note_off,,,,,42,0,1,,,,0,,72,0
37242,note_off,,,,,42,0,9,,,,8,,67,0
37242,note_off,,,,,42,0,3,,,,2,,72,0
37242,note_off,,,,,42,0,8,,,,7,,72,0
37242,note_off,,,,,42,0,7,,,,6,,72,0
37242,note_off,,,,,42,0,2,,,,1,,67,0
37248,note_on,,,,,0,0,12,,,,13,,76,96
37248,note_on,,,,,12,0,12,,,,13,,67,96
37248,note_on,,,,,6,0,8,,,,7,,72,75
37248,note_on,,,,,6,0,2,,,,1,,67,127
37248,note_on,,,,,12,0,11,,,,12,,24,49
37248,note_on,,,,,0,0,12,,,,13,,36,96
37248,note_on,,,,,12,0,13,,,,14,,64,75
37248,note_on,,,,,12,0,5,,,,4,,64,62
37248,note_on,,,,,6,0,3,,,,2,,72,62
37248,note_on,,,,,6,0,4,,,,3,,67,62
37248,note_on,,,,,6,0,1,,,,0,,72,127
37248,note_on,,,,,6,0,7,,,,6,,72,75
37248,note_on,,,,,12,0,10,,,,11,,36,49
37248,note_on,,,,,12,0,6,,,,5,,36,49
37248,note_on,,,,,6,0,9,,,,8,,67,75
37332,note_off,,,,,84,0,6,,,,5,,36,0
37332,note_off,,,,,84,0,12,,,,13,,36,0
37332,note_off,,,,,84,0,10,,,,11,,36,0
37332,note_off,,,,,84,0,11,,,,12,,24,0
37344,note_on,,,,,12,0,11,,,,12,,36,49
37344,note_on,,,,,12,0,10,,,,11,,48,49
37344,note_on,,,,,12,0,6,,,,5,,48,49
37344,note_on,,,,,12,0,12,,,,13,,48,96
37428,note_off,,,,,84,0,11,,,,12,,36,0
37428,note_off,,,,,84,0,10,,,,11,,48,0
37428,note_off,,,,,84,0,6,,,,5,,48,0
37428,note_off,,,,,84,0,12,,,,13,,48,0
37440,note_on,,,,,12,0,11,,,,12,,38,49
37440,note_on,,,,,12,0,6,,,,5,,50,49
37440,note_on,,,,,12,0,12,,,,13,,50,96
37440,note_on,,,,,12,0,10,,,,11,,50,49
37524,note_off,,,,,84,0,6,,,,5,,50,0
37524,note_off,,,,,276,0,2,,,,1,,67,0
37524,note_off,,,,,276,0,1,,,,0,,72,0
37524,note_off,,,,,276,0,5,,,,4,,64,0
37524,note_off,,,,,276,0,8,,,,7,,72,0
37524,note_off,,,,,276,0,4,,,,3,,67,0
37524,note_off,,,,,276,0,13,,,,14,,64,0
37524,note_off,,,,,84,0,10,,,,11,,50,0
37524,note_off,,,,,84,0,11,,,,12,,38,0
37524,note_off,,,,,276,0,3,,,,2,,72,0
37524,note_off,,,,,276,0,7,,,,6,,72,0
37524,note_off,,,,,0,0,12,,,,13,,50,0
37524,note_off,,,,,0,0,12,,,,13,,76,0
37524,note_off,,,,,84,0,12,,,,13,,67,0
37524,note_off,,,,,276,0,9,,,,8,,67,0
37536,note_on,,,,,12,0,8,,,,7,,79,75
37536,note_on,,,,,0,0,12,,,,13,,72,96
37536,note_on,,,,,12,0,3,,,,2,,79,62
37536,note_on,,,,,12,0,5,,,,4,,67,62
37536,note_on,,,,,12,0,12,,,,13,,67,96
37536,note_on,,,,,12,0,4,,,,3,,72,62
37536,note_on,,,,,12,0,9,,,,8,,72,75
37536,note_on,,,,,12,0,7,,,,6,,79,75
37536,note_on,,,,,12,0,13,,,,14,,67,75
37536,note_on,,,,,12,0,10,,,,11,,52,49
37536,note_on,,,,,12,0,1,,,,0,,60,127
37536,note_on,,,,,12,0,11,,,,12,,40,49
37536,note_on,,,,,12,0,6,,,,5,,52,49
37536,note_on,,,,,0,0,12,,,,13,,52,96
37620,note_off,,,,,84,0,4,,,,3,,72,0
37620,note_off,,,,,0,0,12,,,,13,,72,0
37620,note_off,,,,,84,0,7,,,,6,,79,0
37620,note_off,,,,,84,0,12,,,,13,,67,0
37620,note_off,,,,,84,0,3,,,,2,,79,0
37620,note_off,,,,,84,0,8,,,,7,,79,0
37620,note_off,,,,,84,0,9,,,,8,,72,0
37620,note_off,,,,,84,0,1,,,,0,,60,0
37632,note_on,,,,,12,0,8,,,,7,,82,75
37632,note_on,,,,,12,0,4,,,,3,,79,62
37632,note_on,,,,,12,0,1,,,,0,,60,127
37632,note_on,,,,,12,0,9,,,,8,,79,75
37632,note_on,,,,,12,0,12,,,,13,,67,96
37632,note_on,,,,,0,0,12,,,,13,,70,96
37632,note_on,,,,,12,0,3,,,,2,,82,62
37632,note_on,,,,,12,0,7,,,,6,,82,75
37674,note_off,,,,,42,0,1,,,,0,,60,0
37680,note_on,,,,,6,0,1,,,,0,,60,127
37716,note_off,,,,,84,0,7,,,,6,,82,0
37716,note_off,,,,,180,0,13,,,,14,,67,0
37716,note_off,,,,,180,0,5,,,,4,,67,0
37716,note_off,,,,,84,0,3,,,,2,,82,0
37716,note_off,,,,,0,0,12,,,,13,,70,0
37716,note_off,,,,,0,0,12,,,,13,,67,0
37716,note_off,,,,,84,0,12,,,,13,,52,0
37716,note_off,,,,,180,0,11,,,,12,,40,0
37716,note_off,,,,,84,0,9,,,,8,,79,0
37716,note_off,,,,,180,0,6,,,,5,,52,0
37716,note_off,,,,,84,0,8,,,,7,,82,0
37716,note_off,,,,,84,0,4,,,,3,,79,0
37716,note_off,,,,,180,0,10,,,,11,,52,0
37722,note_off,,,,,42,0,1,,,,0,,60,0
37728,note_on,,,,,12,0,6,,,,5,,53,49
37728,note_on,,,,,0,0,12,,,,13,,53,96
37728,note_on,,,,,6,0,1,,,,0,,60,127
37728,note_on,,,,,0,0,12,,,,13,,69,96
37728,note_on,,,,,12,0,12,,,,13,,60,96
37728,note_on,,,,,12,0,13,,,,14,,72,75
37728,note_on,,,,,12,0,11,,,,12,,41,49
37728,note_on,,,,,12,0,3,,,,2,,81,62
37728,note_on,,,,,12,0,4,,,,3,,77,62
37728,note_on,,,,,12,0,9,,,,8,,77,75
37728,note_on,,,,,12,0,8,,,,7,,81,75
37728,note_on,,,,,12,0,5,,,,4,,72,62
37728,note_on,,,,,12,0,10,,,,11,,53,49
37728,note_on,,,,,12,0,7,,,,6,,81,75
37770,note_off,,,,,42,0,1,,,,0,,60,0
37776,note_on,,,,,6,0,1,,,,0,,60,127
37812,note_off,,,,,84,0,7,,,,6,,81,0
37812,note_off,,,,,84,0,6,,,,5,,53,0
37812,note_off,,,,,84,0,3,,,,2,,81,0
37812,note_off,,,,,84,0,12,,,,13,,60,0
37812,note_off,,,,,84,0,10,,,,11,,53,0
37812,note_off,,,,,84,0,8,,,,7,,81,0
37812,note_off,,,,,84,0,13,,,,14,,72,0
37812,note_off,,,,,0,0,12,,,,13,,69,0
37812,note_off,,,,,84,0,9,,,,8,,77,0
37812,note_off,,,,,84,0,11,,,,12,,41,0
37812,note_off,,,,,84,0,4,,,,3,,77,0
37812,note_off,,,,,84,0,5,,,,4,,72,0
37812,note_off,,,,,0,0,12,,,,13,,53,0
37818,note_off,,,,,42,0,1,,,,0,,60,0
37824,note_on,,,,,12,0,12,,,,13,,64,96
37824,note_on,,,,,12,0,5,,,,4,,70,62
37824,note_on,,,,,0,0,12,,,,13,,55,96
37824,note_on,,,,,12,0,11,,,,12,,43,49
37824,note_on,,,,,12,0,4,,,,3,,76,62
37824,note_on,,,,,12,0,10,,,,11,,55,49
37824,note_on,,,,,12,0,3,,,,2,,79,62
37824,note_on,,,,,0,0,12,,,,13,,70,96
37824,note_on,,,,,300,0,2,,,,1,,60,127
37824,note_on,,,,,6,0,1,,,,0,,60,127
37824,note_on,,,,,12,0,8,,,,7,,79,75
37824,note_on,,,,,12,0,6,,,,5,,55,49
37824,note_on,,,,,12,0,9,,,,8,,76,75
37824,note_on,,,,,12,0,13,,,,14,,72,75
37824,note_on,,,,,12,0,7,,,,6,,81,75
37834,note_off,,,,,10,0,7,,,,6,,81,0
37834,note_off,,,,,10,0,13,,,,14,,72,0
37836,note_on,,,,,2,0,13,,,,14,,70,75
37836,note_on,,,,,2,0,7,,,,6,,79,75
37846,note_off,,,,,10,0,13,,,,14,,70,0
37846,note_off,,,,,10,0,7,,,,6,,79,0
37848,note_on,,,,,2,0,13,,,,14,,72,75
37848,note_on,,,,,2,0,7,,,,6,,81,75
37858,note_off,,,,,10,0,13,,,,14,,72,0
37858,note_off,,,,,10,0,7,,,,6,,81,0
37860,note_on,,,,,2,0,13,,,,14,,70,75
37860,note_on,,,,,2,0,7,,,,6,,79,75
37870,note_off,,,,,10,0,13,,,,14,,70,0
37870,note_off,,,,,10,0,7,,,,6,,79,0
37872,note_on,,,,,2,0,7,,,,6,,81,75
37872,note_on,,,,,2,0,13,,,,14,,72,75
37882,note_off,,,,,10,0,13,,,,14,,72,0
37882,note_off,,,,,10,0,7,,,,6,,81,0
37884,note_on,,,,,2,0,7,,,,6,,79,75
37884,note_on,,,,,2,0,13,,,,14,,70,75
37894,note_off,,,,,10,0,13,,,,14,,70,0
37894,note_off,,,,,10,0,7,,,,6,,79,0
37896,note_on,,,,,2,0,13,,,,14,,72,75
37896,note_on,,,,,2,0,7,,,,6,,81,75
37906,note_off,,,,,10,0,13,,,,14,,72,0
37906,note_off,,,,,10,0,7,,,,6,,81,0
37908,note_off,,,,,84,0,12,,,,13,,64,0
37908,note_on,,,,,2,0,13,,,,14,,70,75
37908,note_off,,,,,84,0,1,,,,0,,60,0
37908,note_off,,,,,84,0,3,,,,2,,79,0
37908,note_off,,,,,84,0,10,,,,11,,55,0
37908,note_off,,,,,0,0,12,,,,13,,70,0
37908,note_off,,,,,84,0,9,,,,8,,76,0
37908,note_off,,,,,84,0,5,,,,4,,70,0
37908,note_off,,,,,84,0,8,,,,7,,79,0
37908,note_off,,,,,84,0,6,,,,5,,55,0
37908,note_off,,,,,0,0,12,,,,13,,55,0
37908,note_on,,,,,2,0,7,,,,6,,79,75
37908,note_off,,,,,84,0,2,,,,1,,60,0
37908,note_off,,,,,84,0,11,,,,12,,43,0
37908,note_off,,,,,84,0,4,,,,3,,76,0
37918,note_off,,,,,10,0,7,,,,6,,79,0
37918,note_off,,,,,10,0,13,,,,14,,70,0
37920,note_on,,,,,12,0,11,,,,12,,46,49
37920,note_on,,,,,12,0,5,,,,4,,69,62
37920,note_on,,,,,2,0,13,,,,14,,69,75
37920,note_on,,,,,12,0,6,,,,5,,58,49
37920,note_on,,,,,12,0,8,,,,7,,77,75
37920,note_on,,,,,12,0,12,,,,13,,64,96
37920,note_on,,,,,0,0,12,,,,13,,72,96
37920,note_on,,,,,0,0,12,,,,13,,58,96
37920,note_on,,,,,12,0,9,,,,8,,72,75
37920,note_on,,,,,12,0,3,,,,2,,77,62
37920,note_on,,,,,12,0,10,,,,11,,58,49
37920,note_on,,,,,12,0,2,,,,1,,60,127
37920,note_on,,,,,12,0,4,,,,3,,72,62
37920,note_on,,,,,2,0,7,,,,6,,77,75
37962,note_off,,,,,42,0,7,,,,6,,77,0
37962,note_off,,,,,42,0,5,,,,4,,69,0
37962,note_off,,,,,42,0,3,,,,2,,77,0
37962,note_off,,,,,42,0,13,,,,14,,69,0
37962,note_off,,,,,42,0,2,,,,1,,60,0
37962,note_off,,,,,42,0,8,,,,7,,77,0
37968,note_on,,,,,6,0,3,,,,2,,76,62
37968,note_on,,,,,6,0,8,,,,7,,76,75
37968,note_on,,,,,6,0,5,,,,4,,67,62
37968,note_on,,,,,6,0,7,,,,6,,76,75
37968,note_on,,,,,6,0,13,,,,14,,67,75
37968,note_on,,,,,6,0,2,,,,1,,60,127
38004,note_off,,,,,84,0,9,,,,8,,72,0
38004,note_off,,,,,84,0,11,,,,12,,46,0
38004,note_off,,,,,84,0,6,,,,5,,58,0
38004,note_off,,,,,84,0,12,,,,13,,64,0
38004,note_off,,,,,84,0,10,,,,11,,58,0
38004,note_off,,,,,0,0,12,,,,13,,58,0
38004,note_off,,,,,84,0,4,,,,3,,72,0
38004,note_off,,,,,0,0,12,,,,13,,72,0
38010,note_off,,,,,42,0,3,,,,2,,76,0
38010,note_off,,,,,42,0,5,,,,4,,67,0
38010,note_off,,,,,42,0,2,,,,1,,60,0
38010,note_off,,,,,42,0,8,,,,7,,76,0
38010,note_off,,,,,42,0,13,,,,14,,67,0
38010,note_off,,,,,42,0,7,,,,6,,76,0
38016,note_on,,,,,6,0,2,,,,1,,60,127
38016,note_on,,,,,12,0,6,,,,5,,57,49
38016,note_on,,,,,6,0,5,,,,4,,69,62
38016,note_on,,,,,12,0,12,,,,13,,65,96
38016,note_on,,,,,12,0,11,,,,12,,45,49
38016,note_on,,,,,0,0,12,,,,13,,57,96
38016,note_on,,,,,6,0,3,,,,2,,77,62
38016,note_on,,,,,0,0,12,,,,13,,72,96
38016,note_on,,,,,12,0,4,,,,3,,72,62
38016,note_on,,,,,12,0,9,,,,8,,72,75
38016,note_on,,,,,6,0,13,,,,14,,69,75
38016,note_on,,,,,6,0,7,,,,6,,77,75
38016,note_on,,,,,6,0,8,,,,7,,77,75
38016,note_on,,,,,12,0,10,,,,11,,57,49
38058,note_off,,,,,42,0,2,,,,1,,60,0
38064,note_on,,,,,6,0,2,,,,1,,60,127
38100,note_off,,,,,84,0,7,,,,6,,77,0
38100,note_off,,,,,84,0,4,,,,3,,72,0
38100,note_off,,,,,84,0,12,,,,13,,65,0
38100,note_off,,,,,0,0,12,,,,13,,57,0
38100,note_off,,,,,0,0,12,,,,13,,72,0
38100,note_off,,,,,84,0,13,,,,14,,69,0
38100,note_off,,,,,84,0,3,,,,2,,77,0
38100,note_off,,,,,84,0,8,,,,7,,77,0
38100,note_off,,,,,84,0,6,,,,5,,57,0
38100,note_off,,,,,84,0,10,,,,11,,57,0
38100,note_off,,,,,84,0,9,,,,8,,72,0
38100,note_off,,,,,84,0,11,,,,12,,45,0
38100,note_off,,,,,84,0,5,,,,4,,69,0
38106,note_off,,,,,42,0,2,,,,1,,60,0
38112,note_on,,,,,12,0,6,,,,5,,55,49
38112,note_on,,,,,204,0,1,,,,0,,60,127
38112,note_on,,,,,12,0,4,,,,3,,76,62
38112,note_on,,,,,12,0,7,,,,6,,79,75
38112,note_on,,,,,0,0,12,,,,13,,55,96
38112,note_on,,,,,12,0,5,,,,4,,70,62
38112,note_on,,,,,0,0,12,,,,13,,70,96
38112,note_on,,,,,12,0,9,,,,8,,76,75
38112,note_on,,,,,12,0,11,,,,12,,43,49
38112,note_on,,,,,12,0,13,,,,14,,70,75
38112,note_on,,,,,6,0,2,,,,1,,60,127
38112,note_on,,,,,12,0,3,,,,2,,79,62
38112,note_on,,,,,12,0,10,,,,11,,55,49
38112,note_on,,,,,12,0,8,,,,7,,79,75
38112,note_on,,,,,12,0,12,,,,13,,64,96
38196,note_off,,,,,84,0,3,,,,2,,79,0
38196,note_off,,,,,84,0,2,,,,1,,60,0
38196,note_off,,,,,84,0,10,,,,11,,55,0
38196,note_off,,,,,0,0,12,,,,13,,55,0
38196,note_off,,,,,84,0,11,,,,12,,43,0
38196,note_off,,,,,84,0,4,,,,3,,76,0
38196,note_off,,,,,0,0,12,,,,13,,70,0
38196,note_off,,,,,84,0,12,,,,13,,64,0
38196,note_off,,,,,84,0,13,,,,14,,70,0
38196,note_off,,,,,84,0,6,,,,5,,55,0
38196,note_off,,,,,84,0,1,,,,0,,60,0
38196,note_off,,,,,84,0,5,,,,4,,70,0
38196,note_off,,,,,84,0,8,,,,7,,79,0
38196,note_off,,,,,84,0,9,,,,8,,76,0
38196,note_off,,,,,84,0,7,,,,6,,79,0
38208,note_on,,,,,12,0,9,,,,8,,79,75
38208,note_on,,,,,12,0,12,,,,13,,62,96
38208,note_on,,,,,12,0,7,,,,6,,82,75
38208,note_on,,,,,0,0,12,,,,13,,70,96
38208,note_on,,,,,12,0,11,,,,12,,41,49
38208,note_on,,,,,12,0,5,,,,4,,67,62
38208,note_on,,,,,12,0,6,,,,5,,53,49
38208,note_on,,,,,0,0,12,,,,13,,53,96
38208,note_on,,,,,12,0,10,,,,11,,53,49
38208,note_on,,,,,12,0,1,,,,0,,60,127
38208,note_on,,,,,12,0,4,,,,3,,79,62
38208,note_on,,,,,12,0,13,,,,14,,67,75
38208,note_on,,,,,12,0,3,,,,2,,82,62
38208,note_on,,,,,12,0,8,,,,7,,82,75
38250,note_off,,,,,42,0,11,,,,12,,41,0
38250,note_off,,,,,42,0,10,,,,11,,53,0
38250,note_off,,,,,42,0,1,,,,0,,60,0
38250,note_off,,,,,42,0,12,,,,13,,53,0
38250,note_off,,,,,42,0,6,,,,5,,53,0
38256,note_on,,,,,6,0,11,,,,12,,40,49
38256,note_on,,,,,6,0,6,,,,5,,52,49
38256,note_on,,,,,6,0,10,,,,11,,52,49
38256,note_on,,,,,6,0,12,,,,13,,52,96
38256,note_on,,,,,6,0,1,,,,0,,60,127
38292,note_off,,,,,84,0,9,,,,8,,79,0
38292,note_off,,,,,84,0,4,,,,3,,79,0
38292,note_off,,,,,84,0,3,,,,2,,82,0
38292,note_off,,,,,84,0,5,,,,4,,67,0
38292,note_off,,,,,0,0,12,,,,13,,70,0
38292,note_off,,,,,36,0,12,,,,13,,62,0
38292,note_off,,,,,84,0,7,,,,6,,82,0
38292,note_off,,,,,84,0,13,,,,14,,67,0
38292,note_off,,,,,84,0,8,,,,7,,82,0
38298,note_off,,,,,6,0,12,,,,13,,52,0
38298,note_off,,,,,42,0,1,,,,0,,60,0
38298,note_off,,,,,42,0,10,,,,11,,52,0
38298,note_off,,,,,42,0,11,,,,12,,40,0
38298,note_off,,,,,42,0,6,,,,5,,52,0
38304,note_on,,,,,12,0,13,,,,14,,72,75
38304,note_on,,,,,12,0,4,,,,3,,77,62
38304,note_on,,,,,6,0,11,,,,12,,41,49
38304,note_on,,,,,6,0,1,,,,0,,60,127
38304,note_on,,,,,12,0,8,,,,7,,81,75
38304,note_on,,,,,6,0,6,,,,5,,53,49
38304,note_on,,,,,6,0,12,,,,13,,60,96
38304,note_on,,,,,0,0,12,,,,13,,69,96
38304,note_on,,,,,0,0,12,,,,13,,53,96
38304,note_on,,,,,12,0,9,,,,8,,77,75
38304,note_on,,,,,12,0,3,,,,2,,81,62
38304,note_on,,,,,6,0,10,,,,11,,53,49
38304,note_on,,,,,12,0,7,,,,6,,81,75
38304,note_on,,,,,12,0,5,,,,4,,72,62
38346,note_off,,,,,42,0,1,,,,0,,60,0
38352,note_on,,,,,6,0,1,,,,0,,60,127
38388,note_off,,,,,84,0,3,,,,2,,81,0
38388,note_off,,,,,84,0,7,,,,6,,81,0
38388,note_off,,,,,84,0,5,,,,4,,72,0
38388,note_off,,,,,84,0,11,,,,12,,41,0
38388,note_off,,,,,84,0,8,,,,7,,81,0
38388,note_off,,,,,84,0,12,,,,13,,60,0
38388,note_off,,,,,0,0,12,,,,13,,69,0
38388,note_off,,,,,0,0,12,,,,13,,53,0
38388,note_off,,,,,84,0,10,,,,11,,53,0
38388,note_off,,,,,84,0,13,,,,14,,72,0
38388,note_off,,,,,84,0,6,,,,5,,53,0
38388,note_off,,,,,84,0,9,,,,8,,77,0
38388,note_off,,,,,84,0,4,,,,3,,77,0
38394,note_off,,,,,42,0,1,,,,0,,60,0
38400,note_on,,,,,12,0,9,,,,8,,79,75
38400,note_on,,,,,12,0,6,,,,5,,52,49
38400,note_on,,,,,12,0,5,,,,4,,72,62
38400,note_on,,,,,6,0,1,,,,0,,60,127
38400,note_on,,,,,0,0,12,,,,13,,67,96
38400,note_on,,,,,12,0,4,,,,3,,79,62
38400,note_on,,,,,12,0,13,,,,14,,72,75
38400,note_on,,,,,0,0,12,,,,13,,52,96
38400,note_on,,,,,12,0,12,,,,13,,60,96
38400,note_on,,,,,12,0,11,,,,12,,40,49
38400,note_on,,,,,12,0,10,,,,11,,52,49
38400,note_on,,,,,12,0,8,,,,7,,81,75
38400,note_on,,,,,12,0,7,,,,6,,81,75
38400,note_on,,,,,12,0,3,,,,2,,81,62
38400,note_on,,,,,204,0,2,,,,1,,60,127
38410,note_off,,,,,10,0,7,,,,6,,81,0
38410,note_off,,,,,10,0,8,,,,7,,81,0
38410,note_off,,,,,10,0,3,,,,2,,81,0
38412,note_on,,,,,2,0,7,,,,6,,79,75
38412,note_on,,,,,2,0,8,,,,7,,79,75
38412,note_on,,,,,2,0,3,,,,2,,79,62
38422,note_off,,,,,10,0,3,,,,2,,79,0
38422,note_off,,,,,10,0,7,,,,6,,79,0
38422,note_off,,,,,10,0,8,,,,7,,79,0
38424,note_on,,,,,2,0,8,,,,7,,81,75
38424,note_on,,,,,2,0,7,,,,6,,81,75
38424,note_on,,,,,2,0,3,,,,2,,81,62
38434,note_off,,,,,10,0,7,,,,6,,81,0
38434,note_off,,,,,10,0,3,,,,2,,81,0
38434,note_off,,,,,10,0,8,,,,7,,81,0
38436,note_on,,,,,2,0,7,,,,6,,79,75
38436,note_on,,,,,2,0,3,,,,2,,79,62
38436,note_on,,,,,2,0,8,,,,7,,79,75
38446,note_off,,,,,10,0,7,,,,6,,79,0
38446,note_off,,,,,10,0,8,,,,7,,79,0
38446,note_off,,,,,10,0,3,,,,2,,79,0
38448,note_on,,,,,2,0,3,,,,2,,81,62
38448,note_on,,,,,2,0,7,,,,6,,81,75
38448,note_on,,,,,2,0,8,,,,7,,81,75
38458,note_off,,,,,10,0,3,,,,2,,81,0
38458,note_off,,,,,10,0,8,,,,7,,81,0
38458,note_off,,,,,10,0,7,,,,6,,81,0
38460,note_on,,,,,2,0,7,,,,6,,79,75
38460,note_on,,,,,2,0,3,,,,2,,79,62
38460,note_on,,,,,2,0,8,,,,7,,79,75
38470,note_off,,,,,10,0,8,,,,7,,79,0
38470,note_off,,,,,10,0,3,,,,2,,79,0
38470,note_off,,,,,10,0,7,,,,6,,79,0
38472,note_on,,,,,2,0,7,,,,6,,81,75
38472,note_on,,,,,2,0,3,,,,2,,81,62
38472,note_on,,,,,2,0,8,,,,7,,81,75
38482,note_off,,,,,10,0,8,,,,7,,81,0
38482,note_off,,,,,10,0,3,,,,2,,81,0
38482,note_off,,,,,10,0,7,,,,6,,81,0
38484,note_off,,,,,0,0,12,,,,13,,52,0
38484,note_off,,,,,0,0,12,,,,13,,67,0
38484,note_off,,,,,84,0,12,,,,13,,60,0
38484,note_off,,,,,84,0,9,,,,8,,79,0
38484,note_off,,,,,84,0,4,,,,3,,79,0
38484,note_on,,,,,2,0,7,,,,6,,79,75
38484,note_off,,,,,84,0,11,,,,12,,40,0
38484,note_off,,,,,84,0,6,,,,5,,52,0
38484,note_on,,,,,2,0,3,,,,2,,79,62
38484,note_off,,,,,84,0,10,,,,11,,52,0
38484,note_on,,,,,2,0,8,,,,7,,79,75
38484,note_off,,,,,84,0,2,,,,1,,60,0
38484,note_off,,,,,84,0,1,,,,0,,60,0
38494,note_off,,,,,10,0,3,,,,2,,79,0
38494,note_off,,,,,10,0,7,,,,6,,79,0
38494,note_off,,,,,10,0,8,,,,7,,79,0
38496,note_on,,,,,12,0,12,,,,13,,65,96
38496,note_on,,,,,12,0,6,,,,5,,53,49
38496,note_on,,,,,2,0,3,,,,2,,81,62
38496,note_on,,,,,12,0,2,,,,1,,60,127
38496,note_on,,,,,12,0,10,,,,11,,53,49
38496,note_on,,,,,12,0,11,,,,12,,41,49
38496,note_on,,,,,0,0,12,,,,13,,72,96
38496,note_on,,,,,12,0,9,,,,8,,77,75
38496,note_on,,,,,0,0,12,,,,13,,53,96
38496,note_on,,,,,2,0,7,,,,6,,81,75
38496,note_on,,,,,12,0,4,,,,3,,77,62
38496,note_on,,,,,2,0,8,,,,7,,81,75
38506,note_off,,,,,10,0,3,,,,2,,81,0
38506,note_off,,,,,10,0,7,,,,6,,81,0
38506,note_off,,,,,10,0,8,,,,7,,81,0
38508,note_on,,,,,2,0,8,,,,7,,79,75
38508,note_on,,,,,2,0,7,,,,6,,79,75
38508,note_on,,,,,2,0,3,,,,2,,79,62
38518,note_off,,,,,10,0,8,,,,7,,79,0
38518,note_off,,,,,10,0,7,,,,6,,79,0
38518,note_off,,,,,10,0,3,,,,2,,79,0
38520,note_on,,,,,2,0,8,,,,7,,81,75
38520,note_on,,,,,2,0,3,,,,2,,81,62
38520,note_on,,,,,2,0,7,,,,6,,81,75
38530,note_off,,,,,10,0,7,,,,6,,81,0
38530,note_off,,,,,10,0,3,,,,2,,81,0
38530,note_off,,,,,10,0,8,,,,7,,81,0
38532,note_on,,,,,2,0,3,,,,2,,79,62
38532,note_on,,,,,2,0,8,,,,7,,79,75
38532,note_on,,,,,2,0,7,,,,6,,79,75
38538,note_off,,,,,42,0,2,,,,1,,60,0
38538,note_off,,,,,42,0,10,,,,11,,53,0
38538,note_off,,,,,42,0,12,,,,13,,53,0
38538,note_off,,,,,42,0,6,,,,5,,53,0
38538,note_off,,,,,42,0,11,,,,12,,41,0
38542,note_off,,,,,10,0,8,,,,7,,79,0
38542,note_off,,,,,10,0,7,,,,6,,79,0
38542,note_off,,,,,10,0,3,,,,2,,79,0
38544,note_on,,,,,2,0,8,,,,7,,81,75
38544,note_on,,,,,6,0,12,,,,13,,52,96
38544,note_on,,,,,2,0,3,,,,2,,81,62
38544,note_on,,,,,6,0,10,,,,11,,52,49
38544,note_on,,,,,6,0,11,,,,12,,40,49
38544,note_on,,,,,6,0,6,,,,5,,52,49
38544,note_on,,,,,2,0,7,,,,6,,81,75
38544,note_on,,,,,6,0,2,,,,1,,60,127
38554,note_off,,,,,10,0,3,,,,2,,81,0
38554,note_off,,,,,10,0,7,,,,6,,81,0
38554,note_off,,,,,10,0,8,,,,7,,81,0
38556,note_on,,,,,2,0,3,,,,2,,79,62
38556,note_on,,,,,2,0,8,,,,7,,79,75
38556,note_on,,,,,2,0,7,,,,6,,79,75
38566,note_off,,,,,10,0,7,,,,6,,79,0
38566,note_off,,,,,10,0,3,,,,2,,79,0
38566,note_off,,,,,10,0,8,,,,7,,79,0
38568,note_on,,,,,2,0,8,,,,7,,81,75
38568,note_on,,,,,2,0,7,,,,6,,81,75
38568,note_on,,,,,2,0,3,,,,2,,81,62
38578,note_off,,,,,10,0,7,,,,6,,81,0
38578,note_off,,,,,10,0,3,,,,2,,81,0
38578,note_off,,,,,10,0,8,,,,7,,81,0
38580,note_off,,,,,84,0,4,,,,3,,77,0
38580,note_off,,,,,84,0,9,,,,8,,77,0
38580,note_off,,,,,0,0,12,,,,13,,72,0
38580,note_on,,,,,2,0,3,,,,2,,79,62
38580,note_on,,,,,2,0,8,,,,7,,79,75
38580,note_on,,,,,2,0,7,,,,6,,79,75
38580,note_off,,,,,180,0,5,,,,4,,72,0
38580,note_off,,,,,36,0,12,,,,13,,65,0
38580,note_off,,,,,180,0,13,,,,14,,72,0
38586,note_off,,,,,42,0,2,,,,1,,60,0
38586,note_off,,,,,6,0,12,,,,13,,52,0
38586,note_off,,,,,42,0,10,,,,11,,52,0
38586,note_off,,,,,42,0,6,,,,5,,52,0
38586,note_off,,,,,42,0,11,,,,12,,40,0
38590,note_off,,,,,10,0,3,,,,2,,79,0
38590,note_off,,,,,10,0,8,,,,7,,79,0
38590,note_off,,,,,10,0,7,,,,6,,79,0
38592,note_on,,,,,6,0,11,,,,12,,38,49
38592,note_on,,,,,12,0,5,,,,4,,67,62
38592,note_on,,,,,12,0,13,,,,14,,67,75
38592,note_on,,,,,0,0,12,,,,13,,50,96
38592,note_on,,,,,6,0,12,,,,13,,67,96
38592,note_on,,,,,12,0,4,,,,3,,76,62
38592,note_on,,,,,6,0,2,,,,1,,60,127
38592,note_on,,,,,2,0,8,,,,7,,84,75
38592,note_on,,,,,0,0,12,,,,13,,76,96
38592,note_on,,,,,6,0,10,,,,11,,50,49
38592,note_on,,,,,12,0,9,,,,8,,76,75
38592,note_on,,,,,2,0,7,,,,6,,84,75
38592,note_on,,,,,2,0,3,,,,2,,84,62
38592,note_on,,,,,6,0,6,,,,5,,50,49
38634,note_off,,,,,42,0,2,,,,1,,60,0
38634,note_off,,,,,42,0,10,,,,11,,50,0
38634,note_off,,,,,42,0,6,,,,5,,50,0
38634,note_off,,,,,42,0,11,,,,12,,38,0
38634,note_off,,,,,42,0,12,,,,13,,50,0
38640,note_on,,,,,6,0,10,,,,11,,48,49
38640,note_on,,,,,6,0,11,,,,12,,36,49
38640,note_on,,,,,6,0,6,,,,5,,48,49
38640,note_on,,,,,6,0,2,,,,1,,60,127
38640,note_on,,,,,6,0,12,,,,13,,48,96
38676,note_off,,,,,84,0,3,,,,2,,84,0
38676,note_off,,,,,84,0,5,,,,4,,67,0
38676,note_off,,,,,84,0,7,,,,6,,84,0
38676,note_off,,,,,84,0,9,,,,8,,76,0
38676,note_off,,,,,36,0,12,,,,13,,67,0
38676,note_off,,,,,84,0,13,,,,14,,67,0
38676,note_off,,,,,84,0,8,,,,7,,84,0
38676,note_off,,,,,0,0,12,,,,13,,76,0
38676,note_off,,,,,84,0,4,,,,3,,76,0
38682,note_off,,,,,42,0,10,,,,11,,48,0
38682,note_off,,,,,6,0,12,,,,13,,48,0
38682,note_off,,,,,42,0,6,,,,5,,48,0
38682,note_off,,,,,42,0,2,,,,1,,60,0
38682,note_off,,,,,42,0,11,,,,12,,36,0
38688,note_on,,,,,12,0,13,,,,14,,67,75
38688,note_on,,,,,6,0,10,,,,11,,48,49
38688,note_on,,,,,6,0,6,,,,5,,48,49
38688,note_on,,,,,204,0,1,,,,0,,67,127
38688,note_on,,,,,6,0,2,,,,1,,67,127
38688,note_on,,,,,12,0,3,,,,2,,77,62
38688,note_on,,,,,12,0,4,,,,3,,74,62
38688,note_on,,,,,12,0,7,,,,6,,77,75
38688,note_on,,,,,12,0,8,,,,7,,77,75
38688,note_on,,,,,12,0,9,,,,8,,74,75
38688,note_on,,,,,6,0,12,,,,13,,67,96
38688,note_on,,,,,0,0,12,,,,13,,74,96
38688,note_on,,,,,0,0,12,,,,13,,48,96
38688,note_on,,,,,12,0,5,,,,4,,67,62
38688,note_on,,,,,6,0,11,,,,12,,36,49
38698,note_off,,,,,10,0,12,,,,13,,48,0
38698,note_off,,,,,10,0,10,,,,11,,48,0
38698,note_off,,,,,10,0,11,,,,12,,36,0
38700,note_on,,,,,2,0,12,,,,13,,47,96
38700,note_on,,,,,2,0,11,,,,12,,35,49
38700,note_on,,,,,2,0,10,,,,11,,47,49
38709,note_off,,,,,21,0,6,,,,5,,48,0
38710,note_off,,,,,10,0,11,,,,12,,35,0
38710,note_off,,,,,10,0,12,,,,13,,47,0
38710,note_off,,,,,10,0,10,,,,11,,47,0
38712,note_on,,,,,2,0,10,,,,11,,48,49
38712,note_on,,,,,2,0,12,,,,13,,48,96
38712,note_on,,,,,3,0,6,,,,5,,47,49
38712,note_on,,,,,2,0,11,,,,12,,36,49
38722,note_off,,,,,10,0,12,,,,13,,48,0
38722,note_off,,,,,10,0,10,,,,11,,48,0
38722,note_off,,,,,10,0,11,,,,12,,36,0
38724,note_on,,,,,2,0,12,,,,13,,47,96
38724,note_on,,,,,2,0,10,,,,11,,47,49
38724,note_on,,,,,2,0,11,,,,12,,35,49
38733,note_off,,,,,21,0,6,,,,5,,47,0
38734,note_off,,,,,10,0,11,,,,12,,35,0
38734,note_off,,,,,10,0,12,,,,13,,47,0
38734,note_off,,,,,10,0,10,,,,11,,47,0
38736,note_on,,,,,2,0,10,,,,11,,48,49
38736,note_on,,,,,2,0,11,,,,12,,36,49
38736,note_on,,,,,2,0,12,,,,13,,48,96
38736,note_on,,,,,3,0,6,,,,5,,48,49
38746,note_off,,,,,10,0,10,,,,11,,48,0
38746,note_off,,,,,10,0,12,,,,13,,48,0
38746,note_off,,,,,10,0,11,,,,12,,36,0
38748,note_on,,,,,2,0,10,,,,11,,47,49
38748,note_on,,,,,2,0,11,,,,12,,35,49
38748,note_on,,,,,2,0,12,,,,13,,47,96
38757,note_off,,,,,21,0,6,,,,5,,48,0
38758,note_off,,,,,10,0,10,,,,11,,47,0
38758,note_off,,,,,10,0,11,,,,12,,35,0
38758,note_off,,,,,10,0,12,,,,13,,47,0
38760,note_on,,,,,2,0,11,,,,12,,36,49
38760,note_on,,,,,2,0,12,,,,13,,48,96
38760,note_on,,,,,2,0,10,,,,11,,48,49
38760,note_on,,,,,3,0,6,,,,5,,47,49
38770,note_off,,,,,10,0,10,,,,11,,48,0
38770,note_off,,,,,10,0,11,,,,12,,36,0
38770,note_off,,,,,10,0,12,,,,13,,48,0
38772,note_off,,,,,84,0,7,,,,6,,77,0
38772,note_off,,,,,84,0,8,,,,7,,77,0
38772,note_off,,,,,84,0,1,,,,0,,67,0
38772,note_off,,,,,84,0,2,,,,1,,67,0
38772,note_off,,,,,0,0,12,,,,13,,74,0
38772,note_off,,,,,2,0,12,,,,13,,67,0
38772,note_on,,,,,2,0,10,,,,11,,47,49
38772,note_off,,,,,84,0,3,,,,2,,77,0
38772,note_on,,,,,2,0,11,,,,12,,35,49
38772,note_on,,,,,0,0,12,,,,13,,47,96
38781,note_off,,,,,21,0,6,,,,5,,47,0
38782,note_off,,,,,10,0,10,,,,11,,47,0
38782,note_off,,,,,10,0,12,,,,13,,47,0
38782,note_off,,,,,10,0,11,,,,12,,35,0
38784,note_on,,,,,2,0,10,,,,11,,48,49
38784,note_on,,,,,12,0,3,,,,2,,74,62
38784,note_on,,,,,2,0,11,,,,12,,36,49
38784,note_on,,,,,12,0,8,,,,7,,74,75
38784,note_on,,,,,12,0,1,,,,0,,67,127
38784,note_on,,,,,3,0,6,,,,5,,48,49
38784,note_on,,,,,12,0,7,,,,6,,74,75
38784,note_on,,,,,2,0,12,,,,13,,62,96
38784,note_on,,,,,0,0,12,,,,13,,71,96
38784,note_on,,,,,0,0,12,,,,13,,48,96
38794,note_off,,,,,10,0,11,,,,12,,36,0
38794,note_off,,,,,10,0,10,,,,11,,48,0
38794,note_off,,,,,10,0,12,,,,13,,48,0
38796,note_on,,,,,2,0,12,,,,13,,47,96
38796,note_on,,,,,2,0,10,,,,11,,47,49
38796,note_on,,,,,2,0,11,,,,12,,35,49
38805,note_off,,,,,21,0,6,,,,5,,48,0
38806,note_off,,,,,10,0,10,,,,11,,47,0
38806,note_off,,,,,10,0,11,,,,12,,35,0
38806,note_off,,,,,10,0,12,,,,13,,47,0
38808,note_on,,,,,3,0,6,,,,5,,47,49
38808,note_on,,,,,2,0,12,,,,13,,48,96
38808,note_on,,,,,2,0,11,,,,12,,36,49
38808,note_on,,,,,2,0,10,,,,11,,48,49
38818,note_off,,,,,10,0,12,,,,13,,48,0
38818,note_off,,,,,10,0,11,,,,12,,36,0
38818,note_off,,,,,10,0,10,,,,11,,48,0
38820,note_on,,,,,2,0,12,,,,13,,47,96
38820,note_on,,,,,2,0,10,,,,11,,47,49
38820,note_on,,,,,2,0,11,,,,12,,35,49
38826,note_off,,,,,42,0,1,,,,0,,67,0
38829,note_off,,,,,21,0,6,,,,5,,47,0
38830,note_off,,,,,10,0,10,,,,11,,47,0
38830,note_off,,,,,10,0,11,,,,12,,35,0
38830,note_off,,,,,10,0,12,,,,13,,47,0
38832,note_on,,,,,2,0,12,,,,13,,48,96
38832,note_on,,,,,2,0,10,,,,11,,48,49
38832,note_on,,,,,2,0,11,,,,12,,36,49
38832,note_on,,,,,6,0,1,,,,0,,67,127
38832,note_on,,,,,3,0,6,,,,5,,48,49
38842,note_off,,,,,10,0,10,,,,11,,48,0
38842,note_off,,,,,10,0,12,,,,13,,48,0
38842,note_off,,,,,10,0,11,,,,12,,36,0
38844,note_on,,,,,2,0,10,,,,11,,47,49
38844,note_on,,,,,2,0,11,,,,12,,35,49
38844,note_on,,,,,2,0,12,,,,13,,47,96
38853,note_off,,,,,21,0,6,,,,5,,48,0
38854,note_off,,,,,10,0,10,,,,11,,47,0
38854,note_off,,,,,10,0,11,,,,12,,35,0
38854,note_off,,,,,10,0,12,,,,13,,47,0
38856,note_on,,,,,2,0,12,,,,13,,48,96
38856,note_on,,,,,2,0,10,,,,11,,48,49
38856,note_on,,,,,3,0,6,,,,5,,47,49
38856,note_on,,,,,2,0,11,,,,12,,36,49
38866,note_off,,,,,10,0,11,,,,12,,36,0
38866,note_off,,,,,10,0,10,,,,11,,48,0
38866,note_off,,,,,10,0,12,,,,13,,48,0
38868,note_on,,,,,2,0,10,,,,11,,47,49
38868,note_off,,,,,180,0,5,,,,4,,67,0
38868,note_off,,,,,0,0,12,,,,13,,71,0
38868,note_on,,,,,0,0,12,,,,13,,47,96
38868,note_off,,,,,84,0,7,,,,6,,74,0
38868,note_off,,,,,180,0,9,,,,8,,74,0
38868,note_off,,,,,180,0,4,,,,3,,74,0
38868,note_off,,,,,84,0,8,,,,7,,74,0
38868,note_off,,,,,84,0,3,,,,2,,74,0
38868,note_off,,,,,180,0,13,,,,14,,67,0
38868,note_on,,,,,2,0,11,,,,12,,35,49
38868,note_off,,,,,2,0,12,,,,13,,62,0
38874,note_off,,,,,42,0,1,,,,0,,67,0
38877,note_off,,,,,21,0,6,,,,5,,47,0
38878,note_off,,,,,10,0,11,,,,12,,35,0
38878,note_off,,,,,10,0,10,,,,11,,47,0
38878,note_off,,,,,10,0,12,,,,13,,47,0
38880,note_on,,,,,12,0,8,,,,7,,76,75
38880,note_on,,,,,12,0,4,,,,3,,72,62
38880,note_on,,,,,0,0,12,,,,13,,48,96
38880,note_on,,,,,0,0,12,,,,13,,76,96
38880,note_on,,,,,12,0,9,,,,8,,72,75
38880,note_on,,,,,12,0,7,,,,6,,76,75
38880,note_on,,,,,2,0,12,,,,13,,67,96
38880,note_on,,,,,12,0,5,,,,4,,67,62
38880,note_on,,,,,6,0,1,,,,0,,67,127
38880,note_on,,,,,2,0,10,,,,11,,48,49
38880,note_on,,,,,12,0,3,,,,2,,76,62
38880,note_on,,,,,3,0,6,,,,5,,48,49
38880,note_on,,,,,2,0,11,,,,12,,36,49
38880,note_on,,,,,12,0,13,,,,14,,67,75
38922,note_off,,,,,42,0,1,,,,0,,67,0
38928,note_on,,,,,6,0,1,,,,0,,67,127
38964,note_off,,,,,84,0,12,,,,13,,67,0
38964,note_off,,,,,0,0,12,,,,13,,76,0
38964,note_off,,,,,84,0,10,,,,11,,48,0
38964,note_off,,,,,84,0,13,,,,14,,67,0
38964,note_off,,,,,84,0,11,,,,12,,36,0
38964,note_off,,,,,84,0,7,,,,6,,76,0
38964,note_off,,,,,0,0,12,,,,13,,48,0
38964,note_off,,,,,84,0,9,,,,8,,72,0
38964,note_off,,,,,84,0,4,,,,3,,72,0
38964,note_off,,,,,84,0,3,,,,2,,76,0
38964,note_off,,,,,84,0,5,,,,4,,67,0
38964,note_off,,,,,84,0,6,,,,5,,48,0
38964,note_off,,,,,84,0,8,,,,7,,76,0
38970,note_off,,,,,42,0,1,,,,0,,67,0
38976,note_on,,,,,0,0,12,,,,13,,77,96
38976,note_on,,,,,0,0,12,,,,13,,50,96
38976,note_on,,,,,12,0,8,,,,7,,77,75
38976,note_on,,,,,12,0,13,,,,14,,62,75
38976,note_on,,,,,204,0,2,,,,1,,67,127
38976,note_on,,,,,12,0,9,,,,8,,71,75
38976,note_on,,,,,12,0,12,,,,13,,71,96
38976,note_on,,,,,12,0,6,,,,5,,50,49
38976,note_on,,,,,12,0,4,,,,3,,71,62
38976,note_on,,,,,6,0,1,,,,0,,67,127
38976,note_on,,,,,12,0,3,,,,2,,77,62
38976,note_on,,,,,12,0,10,,,,11,,50,49
38976,note_on,,,,,12,0,7,,,,6,,77,75
38976,note_on,,,,,12,0,5,,,,4,,62,62
38976,note_on,,,,,12,0,11,,,,12,,38,49
39018,note_off,,,,,42,0,4,,,,3,,71,0
39018,note_off,,,,,42,0,9,,,,8,,71,0
39024,note_on,,,,,6,0,9,,,,8,,72,75
39024,note_on,,,,,6,0,4,,,,3,,72,62
39060,note_off,,,,,84,0,6,,,,5,,50,0
39060,note_off,,,,,84,0,1,,,,0,,67,0
39060,note_off,,,,,84,0,11,,,,12,,38,0
39060,note_off,,,,,84,0,3,,,,2,,77,0
39060,note_off,,,,,84,0,13,,,,14,,62,0
39060,note_off,,,,,84,0,5,,,,4,,62,0
39060,note_off,,,,,84,0,12,,,,13,,71,0
39060,note_off,,,,,0,0,12,,,,13,,50,0
39060,note_off,,,,,0,0,12,,,,13,,77,0
39060,note_off,,,,,84,0,8,,,,7,,77,0
39060,note_off,,,,,84,0,7,,,,6,,77,0
39060,note_off,,,,,84,0,10,,,,11,,50,0
39060,note_off,,,,,84,0,2,,,,1,,67,0
39066,note_off,,,,,42,0,4,,,,3,,72,0
39066,note_off,,,,,42,0,9,,,,8,,72,0
39072,note_on,,,,,0,0,12,,,,13,,76,96
39072,note_on,,,,,0,0,12,,,,13,,48,96
39072,note_on,,,,,12,0,12,,,,13,,69,96
39072,note_on,,,,,12,0,8,,,,7,,81,75
39072,note_on,,,,,12,0,3,,,,2,,81,62
39072,note_on,,,,,12,0,10,,,,11,,48,49
39072,note_on,,,,,12,0,2,,,,1,,67,127
39072,note_on,,,,,12,0,6,,,,5,,48,49
39072,note_on,,,,,12,0,5,,,,4,,64,62
39072,note_on,,,,,12,0,7,,,,6,,81,75
39072,note_on,,,,,6,0,9,,,,8,,74,75
39072,note_on,,,,,12,0,11,,,,12,,36,49
39072,note_on,,,,,12,0,13,,,,14,,64,75
39072,note_on,,,,,6,0,4,,,,3,,74,62
39082,note_off,,,,,10,0,9,,,,8,,74,0
39082,note_off,,,,,10,0,4,,,,3,,74,0
39084,note_on,,,,,2,0,9,,,,8,,72,75
39084,note_on,,,,,2,0,4,,,,3,,72,62
39094,note_off,,,,,10,0,4,,,,3,,72,0
39094,note_off,,,,,10,0,9,,,,8,,72,0
39096,note_on,,,,,2,0,9,,,,8,,74,75
39096,note_on,,,,,2,0,4,,,,3,,74,62
39106,note_off,,,,,10,0,4,,,,3,,74,0
39106,note_off,,,,,10,0,9,,,,8,,74,0
39108,note_on,,,,,2,0,4,,,,3,,72,62
39108,note_on,,,,,2,0,9,,,,8,,72,75
39114,note_off,,,,,42,0,6,,,,5,,48,0
39114,note_off,,,,,42,0,11,,,,12,,36,0
39114,note_off,,,,,42,0,2,,,,1,,67,0
39114,note_off,,,,,42,0,12,,,,13,,48,0
39114,note_off,,,,,42,0,10,,,,11,,48,0
39118,note_off,,,,,10,0,9,,,,8,,72,0
39118,note_off,,,,,10,0,4,,,,3,,72,0
39120,note_on,,,,,6,0,2,,,,1,,67,127
39120,note_on,,,,,2,0,4,,,,3,,74,62
39120,note_on,,,,,6,0,12,,,,13,,47,96
39120,note_on,,,,,2,0,9,,,,8,,74,75
39120,note_on,,,,,6,0,11,,,,12,,35,49
39120,note_on,,,,,6,0,6,,,,5,,47,49
39120,note_on,,,,,6,0,10,,,,11,,47,49
39130,note_off,,,,,10,0,4,,,,3,,74,0
39130,note_off,,,,,10,0,9,,,,8,,74,0
39132,note_on,,,,,2,0,4,,,,3,,72,62
39132,note_on,,,,,2,0,9,,,,8,,72,75
39142,note_off,,,,,10,0,4,,,,3,,72,0
39142,note_off,,,,,10,0,9,,,,8,,72,0
39144,note_on,,,,,2,0,9,,,,8,,74,75
39144,note_on,,,,,2,0,4,,,,3,,74,62
39154,note_off,,,,,10,0,9,,,,8,,74,0
39154,note_off,,,,,10,0,4,,,,3,,74,0
39156,note_off,,,,,84,0,13,,,,14,,64,0
39156,note_on,,,,,2,0,9,,,,8,,72,75
39156,note_off,,,,,84,0,5,,,,4,,64,0
39156,note_on,,,,,2,0,4,,,,3,,72,62
39156,note_off,,,,,36,0,12,,,,13,,69,0
39156,note_off,,,,,0,0,12,,,,13,,76,0
39162,note_off,,,,,6,0,12,,,,13,,47,0
39162,note_off,,,,,42,0,2,,,,1,,67,0
39162,note_off,,,,,42,0,11,,,,12,,35,0
39162,note_off,,,,,42,0,6,,,,5,,47,0
39162,note_off,,,,,42,0,10,,,,11,,47,0
39166,note_off,,,,,10,0,4,,,,3,,72,0
39166,note_off,,,,,10,0,9,,,,8,,72,0
39168,note_on,,,,,6,0,6,,,,5,,48,49
39168,note_on,,,,,6,0,11,,,,12,,36,49
39168,note_on,,,,,12,0,5,,,,4,,60,62
39168,note_on,,,,,0,0,12,,,,13,,48,96
39168,note_on,,,,,12,0,13,,,,14,,60,75
39168,note_on,,,,,2,0,4,,,,3,,74,62
39168,note_on,,,,,2,0,9,,,,8,,74,75
39168,note_on,,,,,6,0,12,,,,13,,69,96
39168,note_on,,,,,0,0,12,,,,13,,72,96
39168,note_on,,,,,6,0,10,,,,11,,48,49
39168,note_on,,,,,6,0,2,,,,1,,67,127
39178,note_off,,,,,10,0,9,,,,8,,74,0
39178,note_off,,,,,10,0,4,,,,3,,74,0
39180,note_on,,,,,2,0,9,,,,8,,72,75
39180,note_on,,,,,2,0,4,,,,3,,72,62
39190,note_off,,,,,10,0,9,,,,8,,72,0
39190,note_off,,,,,10,0,4,,,,3,,72,0
39192,note_on,,,,,2,0,4,,,,3,,74,62
39192,note_on,,,,,2,0,9,,,,8,,74,75
39202,note_off,,,,,10,0,9,,,,8,,74,0
39202,note_off,,,,,10,0,4,,,,3,,74,0
39204,note_on,,,,,2,0,9,,,,8,,72,75
39204,note_on,,,,,2,0,4,,,,3,,72,62
39210,note_off,,,,,42,0,2,,,,1,,67,0
39214,note_off,,,,,10,0,9,,,,8,,72,0
39214,note_off,,,,,10,0,4,,,,3,,72,0
39216,note_on,,,,,6,0,2,,,,1,,67,127
39216,note_on,,,,,2,0,9,,,,8,,71,75
39216,note_on,,,,,2,0,4,,,,3,,71,62
39237,note_off,,,,,21,0,4,,,,3,,71,0
39237,note_off,,,,,21,0,9,,,,8,,71,0
39240,note_on,,,,,3,0,4,,,,3,,72,62
39240,note_on,,,,,3,0,9,,,,8,,72,75
39252,note_off,,,,,84,0,6,,,,5,,48,0
39252,note_off,,,,,84,0,10,,,,11,,48,0
39252,note_off,,,,,84,0,11,,,,12,,36,0
39252,note_off,,,,,180,0,7,,,,6,,81,0
39252,note_off,,,,,180,0,8,,,,7,,81,0
39252,note_off,,,,,0,0,12,,,,13,,48,0
39252,note_off,,,,,0,0,12,,,,13,,72,0
39252,note_off,,,,,84,0,12,,,,13,,69,0
39252,note_off,,,,,84,0,5,,,,4,,60,0
39252,note_off,,,,,180,0,3,,,,2,,81,0
39252,note_off,,,,,84,0,13,,,,14,,60,0
39258,note_off,,,,,42,0,2,,,,1,,67,0
39261,note_off,,,,,21,0,9,,,,8,,72,0
39261,note_off,,,,,21,0,4,,,,3,,72,0
39264,note_on,,,,,3,0,9,,,,8,,74,75
39264,note_on,,,,,12,0,13,,,,14,,67,75
39264,note_on,,,,,204,0,1,,,,0,,67,127
39264,note_on,,,,,12,0,7,,,,6,,77,75
39264,note_on,,,,,12,0,10,,,,11,,47,49
39264,note_on,,,,,3,0,4,,,,3,,74,62
39264,note_on,,,,,12,0,11,,,,12,,35,49
39264,note_on,,,,,12,0,8,,,,7,,77,75
39264,note_on,,,,,12,0,3,,,,2,,77,62
39264,note_on,,,,,0,0,12,,,,13,,47,96
39264,note_on,,,,,0,0,12,,,,13,,74,96
39264,note_on,,,,,12,0,12,,,,13,,67,96
39264,note_on,,,,,6,0,2,,,,1,,67,127
39264,note_on,,,,,12,0,6,,,,5,,47,49
39264,note_on,,,,,12,0,5,,,,4,,67,62
39348,note_off,,,,,84,0,6,,,,5,,47,0
39348,note_off,,,,,84,0,3,,,,2,,77,0
39348,note_off,,,,,84,0,1,,,,0,,67,0
39348,note_off,,,,,84,0,7,,,,6,,77,0
39348,note_off,,,,,84,0,9,,,,8,,74,0
39348,note_off,,,,,84,0,2,,,,1,,67,0
39348,note_off,,,,,84,0,4,,,,3,,74,0
39348,note_off,,,,,84,0,12,,,,13,,67,0
39348,note_off,,,,,84,0,10,,,,11,,47,0
39348,note_off,,,,,84,0,11,,,,12,,35,0
39348,note_off,,,,,0,0,12,,,,13,,74,0
39348,note_off,,,,,0,0,12,,,,13,,47,0
39348,note_off,,,,,84,0,8,,,,7,,77,0
39360,note_on,,,,,12,0,3,,,,2,,76,62
39360,note_on,,,,,12,0,9,,,,8,,72,75
39360,note_on,,,,,12,0,7,,,,6,,76,75
39360,note_on,,,,,12,0,11,,,,12,,36,49
39360,note_on,,,,,12,0,6,,,,5,,48,49
39360,note_on,,,,,12,0,10,,,,11,,48,49
39360,note_on,,,,,12,0,1,,,,0,,67,127
39360,note_on,,,,,12,0,8,,,,7,,76,75
39360,note_on,,,,,12,0,4,,,,3,,72,62
39360,note_on,,,,,12,0,12,,,,13,,67,96
39360,note_on,,,,,0,0,12,,,,13,,76,96
39360,note_on,,,,,0,0,12,,,,13,,48,96
39402,note_off,,,,,42,0,1,,,,0,,67,0
39402,note_off,,,,,42,0,12,,,,13,,48,0
39402,note_off,,,,,42,0,7,,,,6,,76,0
39402,note_off,,,,,42,0,3,,,,2,,76,0
39402,note_off,,,,,42,0,6,,,,5,,48,0
39402,note_off,,,,,42,0,11,,,,12,,36,0
39402,note_off,,,,,42,0,10,,,,11,,48,0
39402,note_off,,,,,42,0,8,,,,7,,76,0
39408,note_on,,,,,6,0,11,,,,12,,35,49
39408,note_on,,,,,6,0,10,,,,11,,47,49
39408,note_on,,,,,6,0,8,,,,7,,74,75
39408,note_on,,,,,6,0,6,,,,5,,47,49
39408,note_on,,,,,6,0,1,,,,0,,67,127
39408,note_on,,,,,6,0,7,,,,6,,74,75
39408,note_on,,,,,6,0,12,,,,13,,47,96
39408,note_on,,,,,6,0,3,,,,2,,74,62
39444,note_off,,,,,180,0,13,,,,14,,67,0
39444,note_off,,,,,84,0,4,,,,3,,72,0
39444,note_off,,,,,84,0,9,,,,8,,72,0
39444,note_off,,,,,180,0,5,,,,4,,67,0
39444,note_off,,,,,0,0,12,,,,13,,76,0
39444,note_off,,,,,36,0,12,,,,13,,67,0
39450,note_off,,,,,42,0,6,,,,5,,47,0
39450,note_off,,,,,42,0,7,,,,6,,74,0
39450,note_off,,,,,42,0,3,,,,2,,74,0
39450,note_off,,,,,42,0,11,,,,12,,35,0
39450,note_off,,,,,42,0,10,,,,11,,47,0
39450,note_off,,,,,42,0,8,,,,7,,74,0
39450,note_off,,,,,6,0,12,,,,13,,47,0
39450,note_off,,,,,42,0,1,,,,0,,67,0
39456,note_on,,,,,6,0,10,,,,11,,45,49
39456,note_on,,,,,6,0,6,,,,5,,45,49
39456,note_on,,,,,6,0,1,,,,0,,67,127
39456,note_on,,,,,12,0,13,,,,14,,67,75
39456,note_on,,,,,12,0,9,,,,8,,71,75
39456,note_on,,,,,12,0,4,,,,3,,71,62
39456,note_on,,,,,12,0,5,,,,4,,67,62
39456,note_on,,,,,6,0,3,,,,2,,79,62
39456,note_on,,,,,6,0,7,,,,6,,79,75
39456,note_on,,,,,6,0,12,,,,13,,62,96
39456,note_on,,,,,0,0,12,,,,13,,71,96
39456,note_on,,,,,6,0,8,,,,7,,79,75
39456,note_on,,,,,6,0,11,,,,12,,33,49
39456,note_on,,,,,0,0,12,,,,13,,45,96
39498,note_off,,,,,42,0,6,,,,5,,45,0
39498,note_off,,,,,42,0,11,,,,12,,33,0
39498,note_off,,,,,42,0,1,,,,0,,67,0
39498,note_off,,,,,42,0,10,,,,11,,45,0
39498,note_off,,,,,42,0,12,,,,13,,45,0
39504,note_on,,,,,6,0,1,,,,0,,67,127
39504,note_on,,,,,6,0,10,,,,11,,43,49
39504,note_on,,,,,6,0,6,,,,5,,43,49
39504,note_on,,,,,6,0,11,,,,12,,31,49
39504,note_on,,,,,6,0,12,,,,13,,43,96
39540,note_off,,,,,36,0,12,,,,13,,62,0
39540,note_off,,,,,84,0,8,,,,7,,79,0
39540,note_off,,,,,84,0,7,,,,6,,79,0
39540,note_off,,,,,84,0,9,,,,8,,71,0
39540,note_off,,,,,0,0,12,,,,13,,71,0
39540,note_off,,,,,84,0,5,,,,4,,67,0
39540,note_off,,,,,84,0,4,,,,3,,71,0
39540,note_off,,,,,84,0,3,,,,2,,79,0
39540,note_off,,,,,84,0,13,,,,14,,67,0
39546,note_off,,,,,42,0,1,,,,0,,67,0
39546,note_off,,,,,42,0,10,,,,11,,43,0
39546,note_off,,,,,42,0,11,,,,12,,31,0
39546,note_off,,,,,42,0,6,,,,5,,43,0
39546,note_off,,,,,6,0,12,,,,13,,43,0
39552,note_on,,,,,0,0,12,,,,13,,48,96
39552,note_on,,,,,12,0,13,,,,14,,67,75
39552,note_on,,,,,6,0,11,,,,12,,36,49
39552,note_on,,,,,6,0,1,,,,0,,67,127
39552,note_on,,,,,6,0,6,,,,5,,48,49
39552,note_on,,,,,12,0,8,,,,7,,76,75
39552,note_on,,,,,12,0,5,,,,4,,67,62
39552,note_on,,,,,6,0,12,,,,13,,67,96
39552,note_on,,,,,6,0,10,,,,11,,48,49
39552,note_on,,,,,204,0,2,,,,1,,67,127
39552,note_on,,,,,0,0,12,,,,13,,76,96
39552,note_on,,,,,12,0,4,,,,3,,72,62
39552,note_on,,,,,12,0,3,,,,2,,76,62
39552,note_on,,,,,12,0,7,,,,6,,76,75
39552,note_on,,,,,12,0,9,,,,8,,72,75
39636,note_off,,,,,0,0,12,,,,13,,76,0
39636,note_off,,,,,84,0,6,,,,5,,48,0
39636,note_off,,,,,0,0,12,,,,13,,48,0
39636,note_off,,,,,84,0,2,,,,1,,67,0
39636,note_off,,,,,84,0,11,,,,12,,36,0
39636,note_off,,,,,84,0,12,,,,13,,67,0
39636,note_off,,,,,84,0,10,,,,11,,48,0
39636,note_off,,,,,84,0,1,,,,0,,67,0
39648,note_on,,,,,12,0,12,,,,13,,65,96
39648,note_on,,,,,0,0,12,,,,13,,74,96
39648,note_on,,,,,12,0,2,,,,1,,67,127
39648,note_on,,,,,12,0,10,,,,11,,46,49
39648,note_on,,,,,12,0,11,,,,12,,34,49
39648,note_on,,,,,0,0,12,,,,13,,46,96
39648,note_on,,,,,12,0,6,,,,5,,46,49
39684,note_off,,,,,132,0,8,,,,7,,76,0
39684,note_off,,,,,132,0,3,,,,2,,76,0
39684,note_off,,,,,132,0,7,,,,6,,76,0
39690,note_off,,,,,42,0,10,,,,11,,46,0
39690,note_off,,,,,42,0,11,,,,12,,34,0
39690,note_off,,,,,42,0,6,,,,5,,46,0
39690,note_off,,,,,42,0,12,,,,13,,46,0
39690,note_off,,,,,42,0,2,,,,1,,67,0
39696,note_on,,,,,6,0,2,,,,1,,67,127
39696,note_on,,,,,6,0,10,,,,11,,45,49
39696,note_on,,,,,12,0,8,,,,7,,77,75
39696,note_on,,,,,6,0,6,,,,5,,45,49
39696,note_on,,,,,12,0,3,,,,2,,77,62
39696,note_on,,,,,6,0,12,,,,13,,45,96
39696,note_on,,,,,12,0,7,,,,6,,77,75
39696,note_on,,,,,6,0,11,,,,12,,33,49
39732,note_off,,,,,36,0,12,,,,13,,65,0
39732,note_off,,,,,0,0,12,,,,13,,74,0
39738,note_off,,,,,42,0,6,,,,5,,45,0
39738,note_off,,,,,42,0,2,,,,1,,67,0
39738,note_off,,,,,42,0,10,,,,11,,45,0
39738,note_off,,,,,42,0,8,,,,7,,77,0
39738,note_off,,,,,42,0,7,,,,6,,77,0
39738,note_off,,,,,6,0,12,,,,13,,45,0
39738,note_off,,,,,42,0,3,,,,2,,77,0
39738,note_off,,,,,42,0,11,,,,12,,33,0
39744,note_on,,,,,0,0,12,,,,13,,43,96
39744,note_on,,,,,0,0,12,,,,13,,74,96
39744,note_on,,,,,6,0,2,,,,1,,67,127
39744,note_on,,,,,6,0,7,,,,6,,79,75
39744,note_on,,,,,6,0,8,,,,7,,79,75
39744,note_on,,,,,6,0,11,,,,12,,31,49
39744,note_on,,,,,6,0,12,,,,13,,65,96
39744,note_on,,,,,6,0,3,,,,2,,79,62
39744,note_on,,,,,6,0,10,,,,11,,43,49
39744,note_on,,,,,6,0,6,,,,5,,43,49
39754,note_off,,,,,10,0,7,,,,6,,79,0
39754,note_off,,,,,10,0,8,,,,7,,79,0
39754,note_off,,,,,10,0,3,,,,2,,79,0
39756,note_on,,,,,2,0,3,,,,2,,77,62
39756,note_on,,,,,2,0,7,,,,6,,77,75
39756,note_on,,,,,2,0,8,,,,7,,77,75
39766,note_off,,,,,10,0,7,,,,6,,77,0
39766,note_off,,,,,10,0,8,,,,7,,77,0
39766,note_off,,,,,10,0,3,,,,2,,77,0
39768,note_on,,,,,2,0,7,,,,6,,79,75
39768,note_on,,,,,2,0,8,,,,7,,79,75
39768,note_on,,,,,2,0,3,,,,2,,79,62
39778,note_off,,,,,10,0,7,,,,6,,79,0
39778,note_off,,,,,10,0,8,,,,7,,79,0
39778,note_off,,,,,10,0,3,,,,2,,79,0
39780,note_on,,,,,2,0,7,,,,6,,77,75
39780,note_on,,,,,2,0,3,,,,2,,77,62
39780,note_on,,,,,2,0,8,,,,7,,77,75
39786,note_off,,,,,42,0,11,,,,12,,31,0
39786,note_off,,,,,42,0,2,,,,1,,67,0
39786,note_off,,,,,42,0,10,,,,11,,43,0
39786,note_off,,,,,42,0,6,,,,5,,43,0
39786,note_off,,,,,42,0,12,,,,13,,43,0
39790,note_off,,,,,10,0,8,,,,7,,77,0
39790,note_off,,,,,10,0,3,,,,2,,77,0
39790,note_off,,,,,10,0,7,,,,6,,77,0
39792,note_on,,,,,6,0,12,,,,13,,41,96
39792,note_on,,,,,6,0,6,,,,5,,41,49
39792,note_on,,,,,6,0,10,,,,11,,41,49
39792,note_on,,,,,6,0,11,,,,12,,29,49
39792,note_on,,,,,6,0,2,,,,1,,67,127
39792,note_on,,,,,2,0,3,,,,2,,79,62
39792,note_on,,,,,2,0,8,,,,7,,79,75
39792,note_on,,,,,2,0,7,,,,6,,79,75
39802,note_off,,,,,10,0,3,,,,2,,79,0
39802,note_off,,,,,10,0,8,,,,7,,79,0
39802,note_off,,,,,10,0,7,,,,6,,79,0
39804,note_on,,,,,2,0,8,,,,7,,77,75
39804,note_on,,,,,2,0,3,,,,2,,77,62
39804,note_on,,,,,2,0,7,,,,6,,77,75
39814,note_off,,,,,10,0,8,,,,7,,77,0
39814,note_off,,,,,10,0,3,,,,2,,77,0
39814,note_off,,,,,10,0,7,,,,6,,77,0
39816,note_on,,,,,2,0,3,,,,2,,76,62
39816,note_on,,,,,2,0,7,,,,6,,76,75
39816,note_on,,,,,2,0,8,,,,7,,76,75
39826,note_off,,,,,10,0,7,,,,6,,76,0
39826,note_off,,,,,10,0,3,,,,2,,76,0
39826,note_off,,,,,10,0,8,,,,7,,76,0
39828,note_off,,,,,276,0,4,,,,3,,72,0
39828,note_off,,,,,276,0,9,,,,8,,72,0
39828,note_off,,,,,276,0,5,,,,4,,67,0
39828,note_off,,,,,0,0,12,,,,13,,74,0
39828,note_off,,,,,36,0,12,,,,13,,65,0
39828,note_off,,,,,276,0,13,,,,14,,67,0
39828,note_on,,,,,2,0,3,,,,2,,77,62
39828,note_on,,,,,2,0,8,,,,7,,77,75
39828,note_on,,,,,2,0,7,,,,6,,77,75
39834,note_off,,,,,6,0,12,,,,13,,41,0
39834,note_off,,,,,42,0,2,,,,1,,67,0
39834,note_off,,,,,42,0,10,,,,11,,41,0
39834,note_off,,,,,42,0,11,,,,12,,29,0
39834,note_off,,,,,42,0,6,,,,5,,41,0
39838,note_off,,,,,10,0,8,,,,7,,77,0
39838,note_off,,,,,10,0,7,,,,6,,77,0
39838,note_off,,,,,10,0,3,,,,2,,77,0
39840,note_on,,,,,2,0,3,,,,2,,79,62
39840,note_on,,,,,6,0,6,,,,5,,40,49
39840,note_on,,,,,6,0,12,,,,13,,67,96
39840,note_on,,,,,12,0,9,,,,8,,72,75
39840,note_on,,,,,204,0,1,,,,0,,72,127
39840,note_on,,,,,12,0,5,,,,4,,67,62
39840,note_on,,,,,12,0,13,,,,14,,67,75
39840,note_on,,,,,2,0,7,,,,6,,79,75
39840,note_on,,,,,0,0,12,,,,13,,40,96
39840,note_on,,,,,0,0,12,,,,13,,72,96
39840,note_on,,,,,6,0,10,,,,11,,40,49
39840,note_on,,,,,6,0,2,,,,1,,67,127
39840,note_on,,,,,2,0,8,,,,7,,79,75
39840,note_on,,,,,6,0,11,,,,12,,28,49
39840,note_on,,,,,12,0,4,,,,3,,72,62
39882,note_off,,,,,42,0,7,,,,6,,79,0
39882,note_off,,,,,42,0,8,,,,7,,79,0
39882,note_off,,,,,42,0,13,,,,14,,67,0
39882,note_off,,,,,42,0,3,,,,2,,79,0
39888,note_on,,,,,6,0,7,,,,6,,81,75
39888,note_on,,,,,6,0,13,,,,14,,65,75
39888,note_on,,,,,6,0,8,,,,7,,81,75
39888,note_on,,,,,6,0,3,,,,2,,81,62
39924,note_off,,,,,84,0,2,,,,1,,67,0
39924,note_off,,,,,84,0,6,,,,5,,40,0
39924,note_off,,,,,84,0,10,,,,11,,40,0
39924,note_off,,,,,0,0,12,,,,13,,40,0
39924,note_off,,,,,84,0,5,,,,4,,67,0
39924,note_off,,,,,84,0,11,,,,12,,28,0
39924,note_off,,,,,84,0,1,,,,0,,72,0
39924,note_off,,,,,0,0,12,,,,13,,72,0
39924,note_off,,,,,84,0,12,,,,13,,67,0
39930,note_off,,,,,42,0,8,,,,7,,81,0
39930,note_off,,,,,42,0,13,,,,14,,65,0
39930,note_off,,,,,42,0,3,,,,2,,81,0
39930,note_off,,,,,42,0,7,,,,6,,81,0
39936,note_on,,,,,6,0,13,,,,14,,67,75
39936,note_on,,,,,12,0,1,,,,0,,72,127
39936,note_on,,,,,12,0,6,,,,5,,41,49
39936,note_on,,,,,12,0,10,,,,11,,41,49
39936,note_on,,,,,12,0,12,,,,13,,60,96
39936,note_on,,,,,6,0,3,,,,2,,82,62
39936,note_on,,,,,6,0,8,,,,7,,82,75
39936,note_on,,,,,0,0,12,,,,13,,69,96
39936,note_on,,,,,0,0,12,,,,13,,41,96
39936,note_on,,,,,12,0,11,,,,12,,29,49
39936,note_on,,,,,6,0,7,,,,6,,82,75
39936,note_on,,,,,12,0,5,,,,4,,67,62
39946,note_off,,,,,10,0,8,,,,7,,82,0
39946,note_off,,,,,10,0,7,,,,6,,82,0
39946,note_off,,,,,10,0,5,,,,4,,67,0
39946,note_off,,,,,10,0,3,,,,2,,82,0
39946,note_off,,,,,10,0,13,,,,14,,67,0
39948,note_on,,,,,2,0,13,,,,14,,65,75
39948,note_on,,,,,2,0,3,,,,2,,81,62
39948,note_on,,,,,2,0,8,,,,7,,81,75
39948,note_on,,,,,2,0,5,,,,4,,65,62
39948,note_on,,,,,2,0,7,,,,6,,81,75
39958,note_off,,,,,10,0,7,,,,6,,81,0
39958,note_off,,,,,10,0,13,,,,14,,65,0
39958,note_off,,,,,10,0,8,,,,7,,81,0
39958,note_off,,,,,10,0,3,,,,2,,81,0
39958,note_off,,,,,10,0,5,,,,4,,65,0
39960,note_on,,,,,2,0,8,,,,7,,82,75
39960,note_on,,,,,2,0,13,,,,14,,67,75
39960,note_on,,,,,2,0,3,,,,2,,82,62
39960,note_on,,,,,2,0,5,,,,4,,67,62
39960,note_on,,,,,2,0,7,,,,6,,82,75
39970,note_off,,,,,10,0,13,,,,14,,67,0
39970,note_off,,,,,10,0,5,,,,4,,67,0
39970,note_off,,,,,10,0,3,,,,2,,82,0
39970,note_off,,,,,10,0,7,,,,6,,82,0
39970,note_off,,,,,10,0,8,,,,7,,82,0
39972,note_on,,,,,2,0,13,,,,14,,65,75
39972,note_on,,,,,2,0,7,,,,6,,81,75
39972,note_on,,,,,2,0,8,,,,7,,81,75
39972,note_on,,,,,2,0,5,,,,4,,65,62
39972,note_on,,,,,2,0,3,,,,2,,81,62
39978,note_off,,,,,42,0,12,,,,13,,41,0
39978,note_off,,,,,42,0,1,,,,0,,72,0
39978,note_off,,,,,42,0,11,,,,12,,29,0
39978,note_off,,,,,42,0,6,,,,5,,41,0
39978,note_off,,,,,42,0,10,,,,11,,41,0
39982,note_off,,,,,10,0,7,,,,6,,81,0
39982,note_off,,,,,10,0,3,,,,2,,81,0
39982,note_off,,,,,10,0,13,,,,14,,65,0
39982,note_off,,,,,10,0,5,,,,4,,65,0
39982,note_off,,,,,10,0,8,,,,7,,81,0
39984,note_on,,,,,2,0,13,,,,14,,67,75
39984,note_on,,,,,6,0,10,,,,11,,40,49
39984,note_on,,,,,6,0,6,,,,5,,40,49
39984,note_on,,,,,6,0,11,,,,12,,28,49
39984,note_on,,,,,2,0,8,,,,7,,82,75
39984,note_on,,,,,6,0,12,,,,13,,40,96
39984,note_on,,,,,2,0,3,,,,2,,82,62
39984,note_on,,,,,2,0,5,,,,4,,67,62
39984,note_on,,,,,6,0,1,,,,0,,72,127
39984,note_on,,,,,2,0,7,,,,6,,82,75
39994,note_off,,,,,10,0,8,,,,7,,82,0
39994,note_off,,,,,10,0,13,,,,14,,67,0
39994,note_off,,,,,10,0,5,,,,4,,67,0
39994,note_off,,,,,10,0,7,,,,6,,82,0
39994,note_off,,,,,10,0,3,,,,2,,82,0
39996,note_on,,,,,2,0,3,,,,2,,81,62
39996,note_on,,,,,2,0,13,,,,14,,65,75
39996,note_on,,,,,2,0,8,,,,7,,81,75
39996,note_on,,,,,2,0,5,,,,4,,65,62
39996,note_on,,,,,2,0,7,,,,6,,81,75
40006,note_off,,,,,10,0,3,,,,2,,81,0
40006,note_off,,,,,10,0,13,,,,14,,65,0
40006,note_off,,,,,10,0,8,,,,7,,81,0
40006,note_off,,,,,10,0,5,,,,4,,65,0
40006,note_off,,,,,10,0,7,,,,6,,81,0
40008,note_on,,,,,2,0,13,,,,14,,67,75
40008,note_on,,,,,2,0,3,,,,2,,82,62
40008,note_on,,,,,2,0,8,,,,7,,82,75
40008,note_on,,,,,2,0,5,,,,4,,67,62
40008,note_on,,,,,2,0,7,,,,6,,82,75
40018,note_off,,,,,10,0,8,,,,7,,82,0
40018,note_off,,,,,10,0,3,,,,2,,82,0
40018,note_off,,,,,10,0,7,,,,6,,82,0
40018,note_off,,,,,10,0,13,,,,14,,67,0
40018,note_off,,,,,10,0,5,,,,4,,67,0
40020,note_off,,,,,180,0,4,,,,3,,72,0
40020,note_on,,,,,2,0,3,,,,2,,81,62
40020,note_off,,,,,0,0,12,,,,13,,69,0
40020,note_on,,,,,2,0,13,,,,14,,65,75
40020,note_on,,,,,2,0,5,,,,4,,65,62
40020,note_on,,,,,2,0,7,,,,6,,81,75
40020,note_on,,,,,2,0,8,,,,7,,81,75
40020,note_off,,,,,180,0,9,,,,8,,72,0
40020,note_off,,,,,36,0,12,,,,13,,60,0
40026,note_off,,,,,42,0,11,,,,12,,28,0
40026,note_off,,,,,42,0,1,,,,0,,72,0
40026,note_off,,,,,42,0,6,,,,5,,40,0
40026,note_off,,,,,42,0,10,,,,11,,40,0
40026,note_off,,,,,6,0,12,,,,13,,40,0
40030,note_off,,,,,10,0,13,,,,14,,65,0
40030,note_off,,,,,10,0,7,,,,6,,81,0
40030,note_off,,,,,10,0,8,,,,7,,81,0
40030,note_off,,,,,10,0,3,,,,2,,81,0
40030,note_off,,,,,10,0,5,,,,4,,65,0
40032,note_on,,,,,0,0,12,,,,13,,38,96
40032,note_on,,,,,6,0,6,,,,5,,38,49
40032,note_on,,,,,6,0,10,,,,11,,38,49
40032,note_on,,,,,6,0,11,,,,12,,26,49
40032,note_on,,,,,2,0,8,,,,7,,82,75
40032,note_on,,,,,6,0,1,,,,0,,72,127
40032,note_on,,,,,12,0,4,,,,3,,77,62
40032,note_on,,,,,2,0,5,,,,4,,67,62
40032,note_on,,,,,2,0,7,,,,6,,82,75
40032,note_on,,,,,12,0,9,,,,8,,77,75
40032,note_on,,,,,0,0,12,,,,13,,77,96
40032,note_on,,,,,6,0,12,,,,13,,69,96
40032,note_on,,,,,2,0,3,,,,2,,82,62
40032,note_on,,,,,2,0,13,,,,14,,67,75
40042,note_off,,,,,10,0,3,,,,2,,82,0
40042,note_off,,,,,10,0,5,,,,4,,67,0
40042,note_off,,,,,10,0,8,,,,7,,82,0
40042,note_off,,,,,10,0,7,,,,6,,82,0
40042,note_off,,,,,10,0,13,,,,14,,67,0
40044,note_on,,,,,2,0,3,,,,2,,81,62
40044,note_on,,,,,2,0,8,,,,7,,81,75
40044,note_on,,,,,2,0,13,,,,14,,65,75
40044,note_on,,,,,2,0,7,,,,6,,81,75
40044,note_on,,,,,2,0,5,,,,4,,65,62
40054,note_off,,,,,10,0,3,,,,2,,81,0
40054,note_off,,,,,10,0,5,,,,4,,65,0
40054,note_off,,,,,10,0,7,,,,6,,81,0
40054,note_off,,,,,10,0,13,,,,14,,65,0
40054,note_off,,,,,10,0,8,,,,7,,81,0
40056,note_on,,,,,2,0,3,,,,2,,82,62
40056,note_on,,,,,2,0,13,,,,14,,67,75
40056,note_on,,,,,2,0,8,,,,7,,82,75
40056,note_on,,,,,2,0,5,,,,4,,67,62
40056,note_on,,,,,2,0,7,,,,6,,82,75
40066,note_off,,,,,10,0,5,,,,4,,67,0
40066,note_off,,,,,10,0,7,,,,6,,82,0
40066,note_off,,,,,10,0,8,,,,7,,82,0
40066,note_off,,,,,10,0,13,,,,14,,67,0
40066,note_off,,,,,10,0,3,,,,2,,82,0
40068,note_on,,,,,2,0,8,,,,7,,81,75
40068,note_on,,,,,2,0,13,,,,14,,65,75
40068,note_on,,,,,2,0,7,,,,6,,81,75
40068,note_on,,,,,2,0,5,,,,4,,65,62
40068,note_on,,,,,2,0,3,,,,2,,81,62
40074,note_off,,,,,42,0,10,,,,11,,38,0
40074,note_off,,,,,42,0,11,,,,12,,26,0
40074,note_off,,,,,42,0,12,,,,13,,38,0
40074,note_off,,,,,42,0,1,,,,0,,72,0
40074,note_off,,,,,42,0,6,,,,5,,38,0
40078,note_off,,,,,10,0,7,,,,6,,81,0
40078,note_off,,,,,10,0,13,,,,14,,65,0
40078,note_off,,,,,10,0,8,,,,7,,81,0
40078,note_off,,,,,10,0,3,,,,2,,81,0
40078,note_off,,,,,10,0,5,,,,4,,65,0
40080,note_on,,,,,6,0,6,,,,5,,40,49
40080,note_on,,,,,6,0,11,,,,12,,28,49
40080,note_on,,,,,6,0,1,,,,0,,72,127
40080,note_on,,,,,2,0,3,,,,2,,79,62
40080,note_on,,,,,6,0,10,,,,11,,40,49
40080,note_on,,,,,2,0,13,,,,14,,64,75
40080,note_on,,,,,2,0,5,,,,4,,64,62
40080,note_on,,,,,2,0,8,,,,7,,79,75
40080,note_on,,,,,6,0,12,,,,13,,40,96
40080,note_on,,,,,2,0,7,,,,6,,79,75
40101,note_off,,,,,21,0,8,,,,7,,79,0
40101,note_off,,,,,21,0,5,,,,4,,64,0
40101,note_off,,,,,21,0,3,,,,2,,79,0
40101,note_off,,,,,21,0,7,,,,6,,79,0
40101,note_off,,,,,21,0,13,,,,14,,64,0
40104,note_on,,,,,3,0,5,,,,4,,65,62
40104,note_on,,,,,3,0,3,,,,2,,81,62
40104,note_on,,,,,3,0,8,,,,7,,81,75
40104,note_on,,,,,3,0,7,,,,6,,81,75
40104,note_on,,,,,3,0,13,,,,14,,65,75
40116,note_off,,,,,0,0,12,,,,13,,77,0
40116,note_off,,,,,84,0,4,,,,3,,77,0
40116,note_off,,,,,84,0,9,,,,8,,77,0
40116,note_off,,,,,36,0,12,,,,13,,69,0
40122,note_off,,,,,42,0,10,,,,11,,40,0
40122,note_off,,,,,42,0,11,,,,12,,28,0
40122,note_off,,,,,42,0,6,,,,5,,40,0
40122,note_off,,,,,42,0,1,,,,0,,72,0
40122,note_off,,,,,6,0,12,,,,13,,40,0
40125,note_off,,,,,21,0,13,,,,14,,65,0
40125,note_off,,,,,21,0,8,,,,7,,81,0
40125,note_off,,,,,21,0,3,,,,2,,81,0
40125,note_off,,,,,21,0,7,,,,6,,81,0
40125,note_off,,,,,21,0,5,,,,4,,65,0
40128,note_on,,,,,6,0,10,,,,11,,36,49
40128,note_on,,,,,12,0,4,,,,3,,76,62
40128,note_on,,,,,0,0,12,,,,13,,36,96
40128,note_on,,,,,3,0,13,,,,14,,67,75
40128,note_on,,,,,6,0,6,,,,5,,36,49
40128,note_on,,,,,0,0,12,,,,13,,76,96
40128,note_on,,,,,3,0,3,,,,2,,82,62
40128,note_on,,,,,3,0,8,,,,7,,82,75
40128,note_on,,,,,204,0,2,,,,1,,67,127
40128,note_on,,,,,6,0,1,,,,0,,72,127
40128,note_on,,,,,6,0,12,,,,13,,67,96
40128,note_on,,,,,3,0,5,,,,4,,67,62
40128,note_on,,,,,12,0,9,,,,8,,76,75
40128,note_on,,,,,6,0,11,,,,12,,24,49
40128,note_on,,,,,3,0,7,,,,6,,82,75
40212,note_off,,,,,84,0,9,,,,8,,76,0
40212,note_off,,,,,84,0,2,,,,1,,67,0
40212,note_off,,,,,84,0,11,,,,12,,24,0
40212,note_off,,,,,84,0,5,,,,4,,67,0
40212,note_off,,,,,84,0,8,,,,7,,82,0
40212,note_off,,,,,84,0,3,,,,2,,82,0
40212,note_off,,,,,0,0,12,,,,13,,36,0
40212,note_off,,,,,0,0,12,,,,13,,76,0
40212,note_off,,,,,84,0,12,,,,13,,67,0
40212,note_off,,,,,84,0,7,,,,6,,82,0
40212,note_off,,,,,84,0,6,,,,5,,36,0
40212,note_off,,,,,84,0,13,,,,14,,67,0
40212,note_off,,,,,84,0,4,,,,3,,76,0
40212,note_off,,,,,84,0,10,,,,11,,36,0
40224,note_on,,,,,12,0,12,,,,13,,69,96
40224,note_on,,,,,12,0,2,,,,1,,60,127
40224,note_on,,,,,12,0,11,,,,12,,36,49
40224,note_on,,,,,12,0,13,,,,14,,72,75
40224,note_on,,,,,12,0,5,,,,4,,72,62
40224,note_on,,,,,12,0,3,,,,2,,81,62
40224,note_on,,,,,0,0,12,,,,13,,77,96
40224,note_on,,,,,12,0,4,,,,3,,79,62
40224,note_on,,,,,12,0,8,,,,7,,81,75
40224,note_on,,,,,12,0,6,,,,5,,48,49
40224,note_on,,,,,12,0,9,,,,8,,77,75
40224,note_on,,,,,12,0,10,,,,11,,48,49
40224,note_on,,,,,12,0,7,,,,6,,81,75
40224,note_on,,,,,0,0,12,,,,13,,48,96
40234,note_off,,,,,10,0,4,,,,3,,79,0
40236,note_on,,,,,2,0,4,,,,3,,77,62
40246,note_off,,,,,10,0,4,,,,3,,77,0
40248,note_on,,,,,2,0,4,,,,3,,79,62
40258,note_off,,,,,10,0,4,,,,3,,79,0
40260,note_on,,,,,2,0,4,,,,3,,77,62
40266,note_off,,,,,42,0,12,,,,13,,48,0
40266,note_off,,,,,42,0,10,,,,11,,48,0
40266,note_off,,,,,42,0,11,,,,12,,36,0
40266,note_off,,,,,42,0,8,,,,7,,81,0
40266,note_off,,,,,42,0,6,,,,5,,48,0
40266,note_off,,,,,42,0,2,,,,1,,60,0
40266,note_off,,,,,42,0,3,,,,2,,81,0
40266,note_off,,,,,42,0,7,,,,6,,81,0
40270,note_off,,,,,10,0,4,,,,3,,77,0
40272,note_on,,,,,6,0,2,,,,1,,60,127
40272,note_on,,,,,6,0,11,,,,12,,38,49
40272,note_on,,,,,6,0,6,,,,5,,50,49
40272,note_on,,,,,6,0,8,,,,7,,79,75
40272,note_on,,,,,2,0,4,,,,3,,79,62
40272,note_on,,,,,6,0,3,,,,2,,79,62
40272,note_on,,,,,6,0,10,,,,11,,50,49
40272,note_on,,,,,6,0,12,,,,13,,50,96
40272,note_on,,,,,6,0,7,,,,6,,79,75
40282,note_off,,,,,10,0,4,,,,3,,79,0
40284,note_on,,,,,2,0,4,,,,3,,77,62
40294,note_off,,,,,10,0,4,,,,3,,77,0
40296,note_on,,,,,2,0,4,,,,3,,79,62
40306,note_off,,,,,10,0,4,,,,3,,79,0
40308,note_off,,,,,180,0,1,,,,0,,72,0
40308,note_off,,,,,36,0,12,,,,13,,69,0
40308,note_on,,,,,2,0,4,,,,3,,77,62
40308,note_off,,,,,84,0,13,,,,14,,72,0
40308,note_off,,,,,84,0,9,,,,8,,77,0
40308,note_off,,,,,84,0,5,,,,4,,72,0
40308,note_off,,,,,0,0,12,,,,13,,77,0
40314,note_off,,,,,42,0,3,,,,2,,79,0
40314,note_off,,,,,42,0,6,,,,5,,50,0
40314,note_off,,,,,42,0,10,,,,11,,50,0
40314,note_off,,,,,42,0,2,,,,1,,60,0
40314,note_off,,,,,42,0,8,,,,7,,79,0
40314,note_off,,,,,42,0,7,,,,6,,79,0
40314,note_off,,,,,42,0,11,,,,12,,38,0
40314,note_off,,,,,6,0,12,,,,13,,50,0
40318,note_off,,,,,10,0,4,,,,3,,77,0
40320,note_on,,,,,6,0,2,,,,1,,60,127
40320,note_on,,,,,6,0,10,,,,11,,52,49
40320,note_on,,,,,6,0,8,,,,7,,84,75
40320,note_on,,,,,12,0,13,,,,14,,64,75
40320,note_on,,,,,6,0,7,,,,6,,84,75
40320,note_on,,,,,6,0,3,,,,2,,84,62
40320,note_on,,,,,2,0,4,,,,3,,79,62
40320,note_on,,,,,12,0,5,,,,4,,64,62
40320,note_on,,,,,6,0,6,,,,5,,52,49
40320,note_on,,,,,6,0,11,,,,12,,40,49
40320,note_on,,,,,12,0,9,,,,8,,79,75
40320,note_on,,,,,0,0,12,,,,13,,52,96
40320,note_on,,,,,0,0,12,,,,13,,79,96
40320,note_on,,,,,6,0,12,,,,13,,72,96
40320,note_on,,,,,12,0,1,,,,0,,70,127
40362,note_off,,,,,42,0,10,,,,11,,52,0
40362,note_off,,,,,42,0,12,,,,13,,52,0
40362,note_off,,,,,42,0,11,,,,12,,40,0
40362,note_off,,,,,42,0,2,,,,1,,60,0
40362,note_off,,,,,42,0,6,,,,5,,52,0
40368,note_on,,,,,6,0,10,,,,11,,48,49
40368,note_on,,,,,6,0,2,,,,1,,60,127
40368,note_on,,,,,6,0,11,,,,12,,36,49
40368,note_on,,,,,6,0,12,,,,13,,48,96
40368,note_on,,,,,6,0,6,,,,5,,48,49
40404,note_off,,,,,84,0,8,,,,7,,84,0
40404,note_off,,,,,84,0,1,,,,0,,70,0
40404,note_off,,,,,36,0,12,,,,13,,72,0
40404,note_off,,,,,84,0,3,,,,2,,84,0
40404,note_off,,,,,84,0,9,,,,8,,79,0
40404,note_off,,,,,0,0,12,,,,13,,79,0
40404,note_off,,,,,84,0,5,,,,4,,64,0
40404,note_off,,,,,84,0,4,,,,3,,79,0
40404,note_off,,,,,84,0,7,,,,6,,84,0
40404,note_off,,,,,84,0,13,,,,14,,64,0
40410,note_off,,,,,6,0,12,,,,13,,48,0
40410,note_off,,,,,42,0,10,,,,11,,48,0
40410,note_off,,,,,42,0,11,,,,12,,36,0
40410,note_off,,,,,42,0,2,,,,1,,60,0
40410,note_off,,,,,42,0,6,,,,5,,48,0
40416,note_on,,,,,12,0,4,,,,3,,74,62
40416,note_on,,,,,6,0,12,,,,13,,69,96
40416,note_on,,,,,0,0,12,,,,13,,77,96
40416,note_on,,,,,0,0,12,,,,13,,50,96
40416,note_on,,,,,12,0,3,,,,2,,77,62
40416,note_on,,,,,12,0,1,,,,0,,69,127
40416,note_on,,,,,6,0,6,,,,5,,50,49
40416,note_on,,,,,6,0,11,,,,12,,38,49
40416,note_on,,,,,12,0,8,,,,7,,77,75
40416,note_on,,,,,6,0,2,,,,1,,65,127
40416,note_on,,,,,12,0,13,,,,14,,69,75
40416,note_on,,,,,12,0,7,,,,6,,77,75
40416,note_on,,,,,12,0,9,,,,8,,74,75
40416,note_on,,,,,6,0,10,,,,11,,50,49
40416,note_on,,,,,12,0,5,,,,4,,69,62
40458,note_off,,,,,42,0,11,,,,12,,38,0
40458,note_off,,,,,42,0,10,,,,11,,50,0
40458,note_off,,,,,42,0,7,,,,6,,77,0
40458,note_off,,,,,42,0,8,,,,7,,77,0
40458,note_off,,,,,42,0,12,,,,13,,50,0
40458,note_off,,,,,42,0,13,,,,14,,69,0
40458,note_off,,,,,42,0,3,,,,2,,77,0
40458,note_off,,,,,42,0,5,,,,4,,69,0
40458,note_off,,,,,42,0,6,,,,5,,50,0
40464,note_on,,,,,6,0,11,,,,12,,34,49
40464,note_on,,,,,6,0,12,,,,13,,46,96
40464,note_on,,,,,6,0,3,,,,2,,79,62
40464,note_on,,,,,6,0,7,,,,6,,79,75
40464,note_on,,,,,6,0,13,,,,14,,70,75
40464,note_on,,,,,6,0,8,,,,7,,79,75
40464,note_on,,,,,6,0,10,,,,11,,46,49
40464,note_on,,,,,6,0,6,,,,5,,46,49
40464,note_on,,,,,6,0,5,,,,4,,70,62
40500,note_off,,,,,84,0,2,,,,1,,65,0
40500,note_off,,,,,0,0,12,,,,13,,77,0
40500,note_off,,,,,84,0,4,,,,3,,74,0
40500,note_off,,,,,36,0,12,,,,13,,69,0
40500,note_off,,,,,84,0,1,,,,0,,69,0
40500,note_off,,,,,84,0,9,,,,8,,74,0
40506,note_off,,,,,42,0,5,,,,4,,70,0
40506,note_off,,,,,42,0,8,,,,7,,79,0
40506,note_off,,,,,42,0,10,,,,11,,46,0
40506,note_off,,,,,42,0,11,,,,12,,34,0
40506,note_off,,,,,42,0,6,,,,5,,46,0
40506,note_off,,,,,42,0,3,,,,2,,79,0
40506,note_off,,,,,6,0,12,,,,13,,46,0
40506,note_off,,,,,42,0,7,,,,6,,79,0
40506,note_off,,,,,42,0,13,,,,14,,70,0
40512,note_on,,,,,6,0,5,,,,4,,67,62
40512,note_on,,,,,12,0,2,,,,1,,60,127
40512,note_on,,,,,6,0,7,,,,6,,76,75
40512,note_on,,,,,6,0,10,,,,11,,48,49
40512,note_on,,,,,6,0,8,,,,7,,76,75
40512,note_on,,,,,6,0,11,,,,12,,36,49
40512,note_on,,,,,12,0,1,,,,0,,70,127
40512,note_on,,,,,12,0,9,,,,8,,74,75
40512,note_on,,,,,0,0,12,,,,13,,76,96
40512,note_on,,,,,6,0,13,,,,14,,67,75
40512,note_on,,,,,6,0,12,,,,13,,67,96
40512,note_on,,,,,6,0,3,,,,2,,76,62
40512,note_on,,,,,12,0,4,,,,3,,74,62
40512,note_on,,,,,6,0,6,,,,5,,48,49
40512,note_on,,,,,0,0,12,,,,13,,48,96
40522,note_off,,,,,10,0,13,,,,14,,67,0
40522,note_off,,,,,10,0,9,,,,8,,74,0
40522,note_off,,,,,10,0,4,,,,3,,74,0
40524,note_on,,,,,2,0,9,,,,8,,72,75
40524,note_on,,,,,2,0,4,,,,3,,72,62
40524,note_on,,,,,2,0,13,,,,14,,65,75
40534,note_off,,,,,10,0,9,,,,8,,72,0
40534,note_off,,,,,10,0,13,,,,14,,65,0
40534,note_off,,,,,10,0,4,,,,3,,72,0
40536,note_on,,,,,2,0,13,,,,14,,67,75
40536,note_on,,,,,2,0,9,,,,8,,74,75
40536,note_on,,,,,2,0,4,,,,3,,74,62
40546,note_off,,,,,10,0,13,,,,14,,67,0
40546,note_off,,,,,10,0,9,,,,8,,74,0
40546,note_off,,,,,10,0,4,,,,3,,74,0
40548,note_on,,,,,2,0,13,,,,14,,65,75
40548,note_on,,,,,2,0,9,,,,8,,72,75
40548,note_on,,,,,2,0,4,,,,3,,72,62
40554,note_off,,,,,42,0,2,,,,1,,60,0
40554,note_off,,,,,42,0,1,,,,0,,70,0
40558,note_off,,,,,10,0,4,,,,3,,72,0
40558,note_off,,,,,10,0,13,,,,14,,65,0
40558,note_off,,,,,10,0,9,,,,8,,72,0
40560,note_on,,,,,6,0,1,,,,0,,69,127
40560,note_on,,,,,2,0,4,,,,3,,74,62
40560,note_on,,,,,2,0,13,,,,14,,67,75
40560,note_on,,,,,2,0,9,,,,8,,74,75
40560,note_on,,,,,6,0,2,,,,1,,60,127
40570,note_off,,,,,10,0,13,,,,14,,67,0
40570,note_off,,,,,10,0,9,,,,8,,74,0
40570,note_off,,,,,10,0,4,,,,3,,74,0
40572,note_on,,,,,2,0,9,,,,8,,72,75
40572,note_on,,,,,2,0,13,,,,14,,65,75
40572,note_on,,,,,2,0,4,,,,3,,72,62
40582,note_off,,,,,10,0,9,,,,8,,72,0
40582,note_off,,,,,10,0,13,,,,14,,65,0
40582,note_off,,,,,10,0,4,,,,3,,72,0
40584,note_on,,,,,2,0,9,,,,8,,74,75
40584,note_on,,,,,2,0,13,,,,14,,67,75
40584,note_on,,,,,2,0,4,,,,3,,74,62
40594,note_off,,,,,10,0,9,,,,8,,74,0
40594,note_off,,,,,10,0,13,,,,14,,67,0
40594,note_off,,,,,10,0,4,,,,3,,74,0
40596,note_off,,,,,84,0,6,,,,5,,48,0
40596,note_off,,,,,84,0,10,,,,11,,48,0
40596,note_on,,,,,2,0,13,,,,14,,65,75
40596,note_off,,,,,84,0,11,,,,12,,36,0
40596,note_on,,,,,2,0,4,,,,3,,72,62
40596,note_off,,,,,0,0,12,,,,13,,48,0
40596,note_off,,,,,0,0,12,,,,13,,76,0
40596,note_on,,,,,2,0,9,,,,8,,72,75
40596,note_off,,,,,84,0,12,,,,13,,67,0
40602,note_off,,,,,42,0,2,,,,1,,60,0
40602,note_off,,,,,42,0,1,,,,0,,69,0
40606,note_off,,,,,10,0,9,,,,8,,72,0
40606,note_off,,,,,10,0,4,,,,3,,72,0
40606,note_off,,,,,10,0,13,,,,14,,65,0
40608,note_on,,,,,12,0,10,,,,11,,36,49
40608,note_on,,,,,2,0,4,,,,3,,74,62
40608,note_on,,,,,6,0,1,,,,0,,67,127
40608,note_on,,,,,2,0,13,,,,14,,67,75
40608,note_on,,,,,12,0,11,,,,12,,24,49
40608,note_on,,,,,12,0,12,,,,13,,64,96
40608,note_on,,,,,2,0,9,,,,8,,74,75
40608,note_on,,,,,6,0,2,,,,1,,60,127
40608,note_on,,,,,0,0,12,,,,13,,67,96
40608,note_on,,,,,0,0,12,,,,13,,36,96
40608,note_on,,,,,12,0,6,,,,5,,36,49
40618,note_off,,,,,10,0,4,,,,3,,74,0
40618,note_off,,,,,10,0,13,,,,14,,67,0
40618,note_off,,,,,10,0,9,,,,8,,74,0
40620,note_on,,,,,2,0,4,,,,3,,72,62
40620,note_on,,,,,2,0,9,,,,8,,72,75
40620,note_on,,,,,2,0,13,,,,14,,65,75
40630,note_off,,,,,10,0,4,,,,3,,72,0
40630,note_off,,,,,10,0,13,,,,14,,65,0
40630,note_off,,,,,10,0,9,,,,8,,72,0
40632,note_on,,,,,2,0,4,,,,3,,74,62
40632,note_on,,,,,2,0,13,,,,14,,67,75
40632,note_on,,,,,2,0,9,,,,8,,74,75
40642,note_off,,,,,10,0,9,,,,8,,74,0
40642,note_off,,,,,10,0,13,,,,14,,67,0
40642,note_off,,,,,10,0,4,,,,3,,74,0
40644,note_off,,,,,132,0,8,,,,7,,76,0
40644,note_on,,,,,2,0,4,,,,3,,72,62
40644,note_off,,,,,132,0,3,,,,2,,76,0
40644,note_on,,,,,2,0,9,,,,8,,72,75
40644,note_off,,,,,132,0,7,,,,6,,76,0
40644,note_off,,,,,132,0,5,,,,4,,67,0
40644,note_on,,,,,2,0,13,,,,14,,65,75
40650,note_off,,,,,42,0,2,,,,1,,60,0
40650,note_off,,,,,42,0,1,,,,0,,67,0
40654,note_off,,,,,10,0,4,,,,3,,72,0
40654,note_off,,,,,10,0,13,,,,14,,65,0
40654,note_off,,,,,10,0,9,,,,8,,72,0
40656,note_on,,,,,6,0,1,,,,0,,69,127
40656,note_on,,,,,2,0,9,,,,8,,72,75
40656,note_on,,,,,2,0,13,,,,14,,69,75
40656,note_on,,,,,12,0,5,,,,4,,69,62
40656,note_on,,,,,12,0,7,,,,6,,77,75
40656,note_on,,,,,12,0,3,,,,2,,77,62
40656,note_on,,,,,6,0,2,,,,1,,60,127
40656,note_on,,,,,2,0,4,,,,3,,72,62
40656,note_on,,,,,12,0,8,,,,7,,77,75
40692,note_off,,,,,84,0,10,,,,11,,36,0
40692,note_off,,,,,0,0,12,,,,13,,36,0
40692,note_off,,,,,0,0,12,,,,13,,67,0
40692,note_off,,,,,84,0,12,,,,13,,64,0
40692,note_off,,,,,84,0,11,,,,12,,24,0
40692,note_off,,,,,84,0,6,,,,5,,36,0
40698,note_off,,,,,42,0,1,,,,0,,69,0
40698,note_off,,,,,42,0,5,,,,4,,69,0
40698,note_off,,,,,42,0,9,,,,8,,72,0
40698,note_off,,,,,42,0,13,,,,14,,69,0
40698,note_off,,,,,42,0,3,,,,2,,77,0
40698,note_off,,,,,42,0,8,,,,7,,77,0
40698,note_off,,,,,42,0,7,,,,6,,77,0
40698,note_off,,,,,42,0,4,,,,3,,72,0
40698,note_off,,,,,42,0,2,,,,1,,60,0
40704,note_on,,,,,12,0,11,,,,12,,29,49
40704,note_on,,,,,12,0,10,,,,11,,41,49
40704,note_on,,,,,6,0,7,,,,6,,77,75
40704,note_on,,,,,0,0,12,,,,13,,41,96
40704,note_on,,,,,0,0,12,,,,13,,69,96
40704,note_on,,,,,6,0,13,,,,14,,69,75
40704,note_on,,,,,6,0,2,,,,1,,57,127
40704,note_on,,,,,12,0,12,,,,13,,60,96
40704,note_on,,,,,6,0,9,,,,8,,72,75
40704,note_on,,,,,12,0,6,,,,5,,41,49
40704,note_on,,,,,6,0,8,,,,7,,77,75
40704,note_on,,,,,6,0,1,,,,0,,65,127
40704,note_on,,,,,6,0,3,,,,2,,77,62
40704,note_on,,,,,6,0,4,,,,3,,72,62
40704,note_on,,,,,6,0,5,,,,4,,69,62
40746,note_off,,,,,42,0,12,,,,13,,41,0
40746,note_off,,,,,42,0,6,,,,5,,41,0
40746,note_off,,,,,42,0,11,,,,12,,29,0
40746,note_off,,,,,42,0,10,,,,11,,41,0
40752,note_on,,,,,6,0,11,,,,12,,31,49
40752,note_on,,,,,6,0,12,,,,13,,43,96
40752,note_on,,,,,6,0,6,,,,5,,43,49
40752,note_on,,,,,6,0,10,,,,11,,43,49
40794,note_off,,,,,42,0,12,,,,13,,43,0
40794,note_off,,,,,42,0,6,,,,5,,43,0
40794,note_off,,,,,42,0,10,,,,11,,43,0
40794,note_off,,,,,42,0,11,,,,12,,31,0
40800,note_on,,,,,6,0,6,,,,5,,45,49
40800,note_on,,,,,6,0,10,,,,11,,45,49
40800,note_on,,,,,6,0,12,,,,13,,45,96
40800,note_on,,,,,6,0,11,,,,12,,33,49
40842,note_off,,,,,42,0,6,,,,5,,45,0
40842,note_off,,,,,42,0,10,,,,11,,45,0
40842,note_off,,,,,42,0,12,,,,13,,45,0
40842,note_off,,,,,42,0,11,,,,12,,33,0
40848,note_on,,,,,6,0,12,,,,13,,46,96
40848,note_on,,,,,6,0,6,,,,5,,46,49
40848,note_on,,,,,6,0,10,,,,11,,46,49
40848,note_on,,,,,6,0,11,,,,12,,34,49
40884,note_off,,,,,180,0,9,,,,8,,72,0
40890,note_off,,,,,42,0,11,,,,12,,34,0
40890,note_off,,,,,42,0,6,,,,5,,46,0
40890,note_off,,,,,42,0,12,,,,13,,46,0
40890,note_off,,,,,42,0,10,,,,11,,46,0
40896,note_on,,,,,6,0,10,,,,11,,48,49
40896,note_on,,,,,6,0,12,,,,13,,48,96
40896,note_on,,,,,6,0,6,,,,5,,48,49
40896,note_on,,,,,6,0,11,,,,12,,36,49
40938,note_off,,,,,42,0,10,,,,11,,48,0
40938,note_off,,,,,42,0,6,,,,5,,48,0
40938,note_off,,,,,42,0,11,,,,12,,36,0
40938,note_off,,,,,42,0,12,,,,13,,48,0
40944,note_on,,,,,6,0,11,,,,12,,38,49
40944,note_on,,,,,6,0,10,,,,11,,50,49
40944,note_on,,,,,6,0,6,,,,5,,50,49
40944,note_on,,,,,6,0,12,,,,13,,50,96
40980,note_off,,,,,276,0,13,,,,14,,69,0
40980,note_off,,,,,276,0,3,,,,2,,77,0
40980,note_off,,,,,36,0,12,,,,13,,60,0
40980,note_off,,,,,0,0,12,,,,13,,69,0
40980,note_off,,,,,276,0,4,,,,3,,72,0
40980,note_off,,,,,276,0,5,,,,4,,69,0
40980,note_off,,,,,276,0,1,,,,0,,65,0
40980,note_off,,,,,276,0,2,,,,1,,57,0
40980,note_off,,,,,276,0,7,,,,6,,77,0
40980,note_off,,,,,276,0,8,,,,7,,77,0
40986,note_off,,,,,42,0,11,,,,12,,38,0
40986,note_off,,,,,42,0,6,,,,5,,50,0
40986,note_off,,,,,6,0,12,,,,13,,50,0
40986,note_off,,,,,42,0,10,,,,11,,50,0
40992,note_on,,,,,12,0,8,,,,7,,79,75
40992,note_on,,,,,6,0,10,,,,11,,52,49
40992,note_on,,,,,12,0,1,,,,0,,60,127
40992,note_on,,,,,12,0,13,,,,14,,67,75
40992,note_on,,,,,12,0,7,,,,6,,79,75
40992,note_on,,,,,6,0,11,,,,12,,40,49
40992,note_on,,,,,108,0,9,,,,8,,72,75
40992,note_on,,,,,12,0,5,,,,4,,67,62
40992,note_on,,,,,6,0,6,,,,5,,52,49
40992,note_on,,,,,12,0,3,,,,2,,79,62
40992,note_on,,,,,6,0,12,,,,13,,67,96
40992,note_on,,,,,12,0,4,,,,3,,72,62
40992,note_on,,,,,0,0,12,,,,13,,72,96
40992,note_on,,,,,0,0,12,,,,13,,52,96
41076,note_off,,,,,84,0,9,,,,8,,72,0
41076,note_off,,,,,0,0,12,,,,13,,72,0
41076,note_off,,,,,84,0,3,,,,2,,79,0
41076,note_off,,,,,84,0,8,,,,7,,79,0
41076,note_off,,,,,84,0,7,,,,6,,79,0
41076,note_off,,,,,84,0,4,,,,3,,72,0
41076,note_off,,,,,84,0,12,,,,13,,67,0
41076,note_off,,,,,84,0,1,,,,0,,60,0
41088,note_on,,,,,12,0,7,,,,6,,82,75
41088,note_on,,,,,12,0,4,,,,3,,79,62
41088,note_on,,,,,0,0,12,,,,13,,70,96
41088,note_on,,,,,12,0,8,,,,7,,82,75
41088,note_on,,,,,12,0,3,,,,2,,82,62
41088,note_on,,,,,12,0,9,,,,8,,79,75
41088,note_on,,,,,12,0,1,,,,0,,60,127
41088,note_on,,,,,12,0,12,,,,13,,67,96
41130,note_off,,,,,42,0,1,,,,0,,60,0
41136,note_on,,,,,6,0,1,,,,0,,60,127
41172,note_off,,,,,84,0,8,,,,7,,82,0
41172,note_off,,,,,84,0,7,,,,6,,82,0
41172,note_off,,,,,84,0,4,,,,3,,79,0
41172,note_off,,,,,180,0,10,,,,11,,52,0
41172,note_off,,,,,84,0,9,,,,8,,79,0
41172,note_off,,,,,180,0,6,,,,5,,52,0
41172,note_off,,,,,84,0,12,,,,13,,52,0
41172,note_off,,,,,180,0,5,,,,4,,67,0
41172,note_off,,,,,0,0,12,,,,13,,70,0
41172,note_off,,,,,180,0,11,,,,12,,40,0
41172,note_off,,,,,84,0,3,,,,2,,82,0
41172,note_off,,,,,180,0,13,,,,14,,67,0
41172,note_off,,,,,0,0,12,,,,13,,67,0
41178,note_off,,,,,42,0,1,,,,0,,60,0
41184,note_on,,,,,12,0,8,,,,7,,81,75
41184,note_on,,,,,12,0,5,,,,4,,72,62
41184,note_on,,,,,12,0,11,,,,12,,41,49
41184,note_on,,,,,12,0,10,,,,11,,53,49
41184,note_on,,,,,12,0,7,,,,6,,81,75
41184,note_on,,,,,6,0,1,,,,0,,60,127
41184,note_on,,,,,12,0,4,,,,3,,77,62
41184,note_on,,,,,12,0,13,,,,14,,72,75
41184,note_on,,,,,12,0,3,,,,2,,81,62
41184,note_on,,,,,0,0,12,,,,13,,53,96
41184,note_on,,,,,0,0,12,,,,13,,69,96
41184,note_on,,,,,12,0,9,,,,8,,77,75
41184,note_on,,,,,12,0,12,,,,13,,60,96
41184,note_on,,,,,12,0,6,,,,5,,53,49
41226,note_off,,,,,42,0,1,,,,0,,60,0
41232,note_on,,,,,6,0,1,,,,0,,60,127
41268,note_off,,,,,84,0,8,,,,7,,81,0
41268,note_off,,,,,84,0,13,,,,14,,72,0
41268,note_off,,,,,0,0,12,,,,13,,53,0
41268,note_off,,,,,84,0,3,,,,2,,81,0
41268,note_off,,,,,84,0,12,,,,13,,60,0
41268,note_off,,,,,84,0,5,,,,4,,72,0
41268,note_off,,,,,84,0,6,,,,5,,53,0
41268,note_off,,,,,84,0,4,,,,3,,77,0
41268,note_off,,,,,84,0,9,,,,8,,77,0
41268,note_off,,,,,84,0,10,,,,11,,53,0
41268,note_off,,,,,84,0,11,,,,12,,41,0
41268,note_off,,,,,84,0,7,,,,6,,81,0
41268,note_off,,,,,0,0,12,,,,13,,69,0
41274,note_off,,,,,42,0,1,,,,0,,60,0
41280,note_on,,,,,12,0,4,,,,3,,76,62
41280,note_on,,,,,12,0,8,,,,7,,79,75
41280,note_on,,,,,12,0,7,,,,6,,81,75
41280,note_on,,,,,12,0,11,,,,12,,43,49
41280,note_on,,,,,12,0,12,,,,13,,64,96
41280,note_on,,,,,0,0,12,,,,13,,70,96
41280,note_on,,,,,0,0,12,,,,13,,55,96
41280,note_on,,,,,12,0,5,,,,4,,70,62
41280,note_on,,,,,12,0,13,,,,14,,72,75
41280,note_on,,,,,6,0,1,,,,0,,60,127
41280,note_on,,,,,300,0,2,,,,1,,60,127
41280,note_on,,,,,12,0,10,,,,11,,55,49
41280,note_on,,,,,12,0,3,,,,2,,79,62
41280,note_on,,,,,12,0,6,,,,5,,55,49
41280,note_on,,,,,12,0,9,,,,8,,76,75
41290,note_off,,,,,10,0,13,,,,14,,72,0
41290,note_off,,,,,10,0,7,,,,6,,81,0
41292,note_on,,,,,2,0,13,,,,14,,70,75
41292,note_on,,,,,2,0,7,,,,6,,79,75
41302,note_off,,,,,10,0,13,,,,14,,70,0
41302,note_off,,,,,10,0,7,,,,6,,79,0
41304,note_on,,,,,2,0,13,,,,14,,72,75
41304,note_on,,,,,2,0,7,,,,6,,81,75
41314,note_off,,,,,10,0,7,,,,6,,81,0
41314,note_off,,,,,10,0,13,,,,14,,72,0
41316,note_on,,,,,2,0,7,,,,6,,79,75
41316,note_on,,,,,2,0,13,,,,14,,70,75
41326,note_off,,,,,10,0,7,,,,6,,79,0
41326,note_off,,,,,10,0,13,,,,14,,70,0
41328,note_on,,,,,2,0,7,,,,6,,81,75
41328,note_on,,,,,2,0,13,,,,14,,72,75
41338,note_off,,,,,10,0,7,,,,6,,81,0
41338,note_off,,,,,10,0,13,,,,14,,72,0
41340,note_on,,,,,2,0,13,,,,14,,70,75
41340,note_on,,,,,2,0,7,,,,6,,79,75
41350,note_off,,,,,10,0,13,,,,14,,70,0
41350,note_off,,,,,10,0,7,,,,6,,79,0
41352,note_on,,,,,2,0,7,,,,6,,81,75
41352,note_on,,,,,2,0,13,,,,14,,72,75
41362,note_off,,,,,10,0,13,,,,14,,72,0
41362,note_off,,,,,10,0,7,,,,6,,81,0
41364,note_off,,,,,84,0,5,,,,4,,70,0
41364,note_off,,,,,84,0,10,,,,11,,55,0
41364,note_off,,,,,84,0,3,,,,2,,79,0
41364,note_off,,,,,0,0,12,,,,13,,70,0
41364,note_off,,,,,0,0,12,,,,13,,55,0
41364,note_off,,,,,84,0,1,,,,0,,60,0
41364,note_off,,,,,84,0,9,,,,8,,76,0
41364,note_off,,,,,84,0,2,,,,1,,60,0
41364,note_off,,,,,84,0,12,,,,13,,64,0
41364,note_on,,,,,2,0,7,,,,6,,79,75
41364,note_off,,,,,84,0,6,,,,5,,55,0
41364,note_off,,,,,84,0,4,,,,3,,76,0
41364,note_on,,,,,2,0,13,,,,14,,70,75
41364,note_off,,,,,84,0,11,,,,12,,43,0
41364,note_off,,,,,84,0,8,,,,7,,79,0
41374,note_off,,,,,10,0,7,,,,6,,79,0
41374,note_off,,,,,10,0,13,,,,14,,70,0
41376,note_on,,,,,12,0,8,,,,7,,77,75
41376,note_on,,,,,2,0,13,,,,14,,69,75
41376,note_on,,,,,2,0,7,,,,6,,77,75
41376,note_on,,,,,12,0,2,,,,1,,60,127
41376,note_on,,,,,12,0,9,,,,8,,72,75
41376,note_on,,,,,0,0,12,,,,13,,58,96
41376,note_on,,,,,12,0,12,,,,13,,64,96
41376,note_on,,,,,12,0,6,,,,5,,58,49
41376,note_on,,,,,12,0,11,,,,12,,46,49
41376,note_on,,,,,12,0,3,,,,2,,77,62
41376,note_on,,,,,0,0,12,,,,13,,72,96
41376,note_on,,,,,12,0,5,,,,4,,69,62
41376,note_on,,,,,12,0,10,,,,11,,58,49
41376,note_on,,,,,12,0,4,,,,3,,72,62
41418,note_off,,,,,42,0,3,,,,2,,77,0
41418,note_off,,,,,42,0,8,,,,7,,77,0
41418,note_off,,,,,42,0,7,,,,6,,77,0
41418,note_off,,,,,42,0,13,,,,14,,69,0
41418,note_off,,,,,42,0,2,,,,1,,60,0
41418,note_off,,,,,42,0,5,,,,4,,69,0
41424,note_on,,,,,6,0,8,,,,7,,76,75
41424,note_on,,,,,6,0,7,,,,6,,76,75
41424,note_on,,,,,6,0,13,,,,14,,67,75
41424,note_on,,,,,6,0,3,,,,2,,76,62
41424,note_on,,,,,6,0,2,,,,1,,60,127
41424,note_on,,,,,6,0,5,,,,4,,67,62
41460,note_off,,,,,84,0,9,,,,8,,72,0
41460,note_off,,,,,0,0,12,,,,13,,58,0
41460,note_off,,,,,84,0,4,,,,3,,72,0
41460,note_off,,,,,84,0,11,,,,12,,46,0
41460,note_off,,,,,0,0,12,,,,13,,72,0
41460,note_off,,,,,84,0,12,,,,13,,64,0
41460,note_off,,,,,84,0,10,,,,11,,58,0
41460,note_off,,,,,84,0,6,,,,5,,58,0
41466,note_off,,,,,42,0,3,,,,2,,76,0
41466,note_off,,,,,42,0,8,,,,7,,76,0
41466,note_off,,,,,42,0,13,,,,14,,67,0
41466,note_off,,,,,42,0,5,,,,4,,67,0
41466,note_off,,,,,42,0,7,,,,6,,76,0
41466,note_off,,,,,42,0,2,,,,1,,60,0
41472,note_on,,,,,12,0,10,,,,11,,57,49
41472,note_on,,,,,12,0,4,,,,3,,72,62
41472,note_on,,,,,6,0,2,,,,1,,60,127
41472,note_on,,,,,0,0,12,,,,13,,57,96
41472,note_on,,,,,6,0,3,,,,2,,77,62
41472,note_on,,,,,12,0,9,,,,8,,72,75
41472,note_on,,,,,12,0,6,,,,5,,57,49
41472,note_on,,,,,0,0,12,,,,13,,72,96
41472,note_on,,,,,6,0,8,,,,7,,77,75
41472,note_on,,,,,12,0,12,,,,13,,65,96
41472,note_on,,,,,6,0,7,,,,6,,77,75
41472,note_on,,,,,12,0,11,,,,12,,45,49
41472,note_on,,,,,6,0,5,,,,4,,69,62
41472,note_on,,,,,6,0,13,,,,14,,69,75
41514,note_off,,,,,42,0,2,,,,1,,60,0
41520,note_on,,,,,6,0,2,,,,1,,60,127
41556,note_off,,,,,84,0,5,,,,4,,69,0
41556,note_off,,,,,84,0,7,,,,6,,77,0
41556,note_off,,,,,84,0,3,,,,2,,77,0
41556,note_off,,,,,84,0,10,,,,11,,57,0
41556,note_off,,,,,84,0,12,,,,13,,65,0
41556,note_off,,,,,0,0,12,,,,13,,72,0
41556,note_off,,,,,84,0,11,,,,12,,45,0
41556,note_off,,,,,84,0,13,,,,14,,69,0
41556,note_off,,,,,84,0,4,,,,3,,72,0
41556,note_off,,,,,84,0,8,,,,7,,77,0
41556,note_off,,,,,84,0,6,,,,5,,57,0
41556,note_off,,,,,84,0,9,,,,8,,72,0
41556,note_off,,,,,0,0,12,,,,13,,57,0
41562,note_off,,,,,42,0,2,,,,1,,60,0
41568,note_on,,,,,12,0,12,,,,13,,64,96
41568,note_on,,,,,12,0,5,,,,4,,70,62
41568,note_on,,,,,12,0,9,,,,8,,76,75
41568,note_on,,,,,0,0,12,,,,13,,70,96
41568,note_on,,,,,0,0,12,,,,13,,55,96
41568,note_on,,,,,12,0,8,,,,7,,79,75
41568,note_on,,,,,6,0,2,,,,1,,60,127
41568,note_on,,,,,12,0,7,,,,6,,79,75
41568,note_on,,,,,12,0,13,,,,14,,70,75
41568,note_on,,,,,204,0,1,,,,0,,60,127
41568,note_on,,,,,12,0,11,,,,12,,43,49
41568,note_on,,,,,12,0,3,,,,2,,79,62
41568,note_on,,,,,12,0,4,,,,3,,76,62
41568,note_on,,,,,12,0,6,,,,5,,55,49
41568,note_on,,,,,12,0,10,,,,11,,55,49
41652,note_off,,,,,84,0,6,,,,5,,55,0
41652,note_off,,,,,84,0,13,,,,14,,70,0
41652,note_off,,,,,84,0,8,,,,7,,79,0
41652,note_off,,,,,84,0,1,,,,0,,60,0
41652,note_off,,,,,84,0,4,,,,3,,76,0
41652,note_off,,,,,84,0,5,,,,4,,70,0
41652,note_off,,,,,84,0,3,,,,2,,79,0
41652,note_off,,,,,84,0,10,,,,11,,55,0
41652,note_off,,,,,84,0,12,,,,13,,64,0
41652,note_off,,,,,0,0,12,,,,13,,70,0
41652,note_off,,,,,0,0,12,,,,13,,55,0
41652,note_off,,,,,84,0,9,,,,8,,76,0
41652,note_off,,,,,84,0,2,,,,1,,60,0
41652,note_off,,,,,84,0,7,,,,6,,79,0
41652,note_off,,,,,84,0,11,,,,12,,43,0
41664,note_on,,,,,12,0,7,,,,6,,82,75
41664,note_on,,,,,0,0,12,,,,13,,53,96
41664,note_on,,,,,12,0,6,,,,5,,53,49
41664,note_on,,,,,0,0,12,,,,13,,70,96
41664,note_on,,,,,12,0,13,,,,14,,67,75
41664,note_on,,,,,12,0,12,,,,13,,62,96
41664,note_on,,,,,12,0,8,,,,7,,82,75
41664,note_on,,,,,12,0,3,,,,2,,82,62
41664,note_on,,,,,12,0,10,,,,11,,53,49
41664,note_on,,,,,12,0,9,,,,8,,79,75
41664,note_on,,,,,12,0,5,,,,4,,67,62
41664,note_on,,,,,12,0,4,,,,3,,79,62
41664,note_on,,,,,12,0,11,,,,12,,41,49
41664,note_on,,,,,12,0,1,,,,0,,60,127
41706,note_off,,,,,42,0,11,,,,12,,41,0
41706,note_off,,,,,42,0,1,,,,0,,60,0
41706,note_off,,,,,42,0,12,,,,13,,53,0
41706,note_off,,,,,42,0,10,,,,11,,53,0
41706,note_off,,,,,42,0,6,,,,5,,53,0
41712,note_on,,,,,6,0,6,,,,5,,52,49
41712,note_on,,,,,6,0,11,,,,12,,40,49
41712,note_on,,,,,6,0,10,,,,11,,52,49
41712,note_on,,,,,6,0,1,,,,0,,60,127
41712,note_on,,,,,6,0,12,,,,13,,52,96
41748,note_off,,,,,84,0,5,,,,4,,67,0
41748,note_off,,,,,84,0,3,,,,2,,82,0
41748,note_off,,,,,84,0,9,,,,8,,79,0
41748,note_off,,,,,84,0,4,,,,3,,79,0
41748,note_off,,,,,84,0,7,,,,6,,82,0
41748,note_off,,,,,84,0,8,,,,7,,82,0
41748,note_off,,,,,0,0,12,,,,13,,70,0
41748,note_off,,,,,36,0,12,,,,13,,62,0
41748,note_off,,,,,84,0,13,,,,14,,67,0
41754,note_off,,,,,42,0,1,,,,0,,60,0
41754,note_off,,,,,42,0,6,,,,5,,52,0
41754,note_off,,,,,42,0,10,,,,11,,52,0
41754,note_off,,,,,6,0,12,,,,13,,52,0
41754,note_off,,,,,42,0,11,,,,12,,40,0
41760,note_on,,,,,0,0,12,,,,13,,53,96
41760,note_on,,,,,6,0,12,,,,13,,60,96
41760,note_on,,,,,6,0,10,,,,11,,53,49
41760,note_on,,,,,6,0,11,,,,12,,41,49
41760,note_on,,,,,12,0,3,,,,2,,81,62
41760,note_on,,,,,0,0,12,,,,13,,69,96
41760,note_on,,,,,12,0,9,,,,8,,77,75
41760,note_on,,,,,12,0,8,,,,7,,81,75
41760,note_on,,,,,12,0,5,,,,4,,72,62
41760,note_on,,,,,12,0,13,,,,14,,72,75
41760,note_on,,,,,6,0,6,,,,5,,53,49
41760,note_on,,,,,12,0,4,,,,3,,77,62
41760,note_on,,,,,12,0,7,,,,6,,81,75
41760,note_on,,,,,6,0,1,,,,0,,60,127
41802,note_off,,,,,42,0,1,,,,0,,60,0
41808,note_on,,,,,6,0,1,,,,0,,60,127
41844,note_off,,,,,84,0,7,,,,6,,81,0
41844,note_off,,,,,84,0,8,,,,7,,81,0
41844,note_off,,,,,84,0,12,,,,13,,60,0
41844,note_off,,,,,0,0,12,,,,13,,69,0
41844,note_off,,,,,0,0,12,,,,13,,53,0
41844,note_off,,,,,84,0,9,,,,8,,77,0
41844,note_off,,,,,84,0,13,,,,14,,72,0
41844,note_off,,,,,84,0,6,,,,5,,53,0
41844,note_off,,,,,84,0,4,,,,3,,77,0
41844,note_off,,,,,84,0,11,,,,12,,41,0
41844,note_off,,,,,84,0,3,,,,2,,81,0
41844,note_off,,,,,84,0,5,,,,4,,72,0
41844,note_off,,,,,84,0,10,,,,11,,53,0
41850,note_off,,,,,42,0,1,,,,0,,60,0
41856,note_on,,,,,12,0,13,,,,14,,72,75
41856,note_on,,,,,12,0,6,,,,5,,52,49
41856,note_on,,,,,12,0,4,,,,3,,79,62
41856,note_on,,,,,12,0,9,,,,8,,79,75
41856,note_on,,,,,12,0,5,,,,4,,72,62
41856,note_on,,,,,12,0,11,,,,12,,40,49
41856,note_on,,,,,12,0,3,,,,2,,81,62
41856,note_on,,,,,6,0,1,,,,0,,60,127
41856,note_on,,,,,12,0,7,,,,6,,81,75
41856,note_on,,,,,12,0,10,,,,11,,52,49
41856,note_on,,,,,0,0,12,,,,13,,67,96
41856,note_on,,,,,0,0,12,,,,13,,52,96
41856,note_on,,,,,204,0,2,,,,1,,60,127
41856,note_on,,,,,12,0,12,,,,13,,60,96
41856,note_on,,,,,12,0,8,,,,7,,81,75
41866,note_off,,,,,10,0,3,,,,2,,81,0
41866,note_off,,,,,10,0,7,,,,6,,81,0
41866,note_off,,,,,10,0,8,,,,7,,81,0
41868,note_on,,,,,2,0,3,,,,2,,79,62
41868,note_on,,,,,2,0,7,,,,6,,79,75
41868,note_on,,,,,2,0,8,,,,7,,79,75
41878,note_off,,,,,10,0,3,,,,2,,79,0
41878,note_off,,,,,10,0,8,,,,7,,79,0
41878,note_off,,,,,10,0,7,,,,6,,79,0
41880,note_on,,,,,2,0,7,,,,6,,81,75
41880,note_on,,,,,2,0,8,,,,7,,81,75
41880,note_on,,,,,2,0,3,,,,2,,81,62
41890,note_off,,,,,10,0,8,,,,7,,81,0
41890,note_off,,,,,10,0,3,,,,2,,81,0
41890,note_off,,,,,10,0,7,,,,6,,81,0
41892,note_on,,,,,2,0,7,,,,6,,79,75
41892,note_on,,,,,2,0,8,,,,7,,79,75
41892,note_on,,,,,2,0,3,,,,2,,79,62
41902,note_off,,,,,10,0,7,,,,6,,79,0
41902,note_off,,,,,10,0,8,,,,7,,79,0
41902,note_off,,,,,10,0,3,,,,2,,79,0
41904,note_on,,,,,2,0,7,,,,6,,81,75
41904,note_on,,,,,2,0,8,,,,7,,81,75
41904,note_on,,,,,2,0,3,,,,2,,81,62
41914,note_off,,,,,10,0,7,,,,6,,81,0
41914,note_off,,,,,10,0,8,,,,7,,81,0
41914,note_off,,,,,10,0,3,,,,2,,81,0
41916,note_on,,,,,2,0,7,,,,6,,79,75
41916,note_on,,,,,2,0,8,,,,7,,79,75
41916,note_on,,,,,2,0,3,,,,2,,79,62
41926,note_off,,,,,10,0,8,,,,7,,79,0
41926,note_off,,,,,10,0,7,,,,6,,79,0
41926,note_off,,,,,10,0,3,,,,2,,79,0
41928,note_on,,,,,2,0,7,,,,6,,81,75
41928,note_on,,,,,2,0,3,,,,2,,81,62
41928,note_on,,,,,2,0,8,,,,7,,81,75
41938,note_off,,,,,10,0,3,,,,2,,81,0
41938,note_off,,,,,10,0,7,,,,6,,81,0
41938,note_off,,,,,10,0,8,,,,7,,81,0
41940,note_off,,,,,0,0,12,,,,13,,52,0
41940,note_on,,,,,2,0,3,,,,2,,79,62
41940,note_on,,,,,2,0,7,,,,6,,79,75
41940,note_off,,,,,84,0,4,,,,3,,79,0
41940,note_off,,,,,84,0,6,,,,5,,52,0
41940,note_off,,,,,84,0,12,,,,13,,60,0
41940,note_off,,,,,84,0,2,,,,1,,60,0
41940,note_off,,,,,84,0,10,,,,11,,52,0
41940,note_off,,,,,0,0,12,,,,13,,67,0
41940,note_off,,,,,84,0,9,,,,8,,79,0
41940,note_off,,,,,84,0,11,,,,12,,40,0
41940,note_on,,,,,2,0,8,,,,7,,79,75
41940,note_off,,,,,84,0,1,,,,0,,60,0
41950,note_off,,,,,10,0,3,,,,2,,79,0
41950,note_off,,,,,10,0,8,,,,7,,79,0
41950,note_off,,,,,10,0,7,,,,6,,79,0
41952,note_on,,,,,12,0,10,,,,11,,53,49
41952,note_on,,,,,12,0,2,,,,1,,60,127
41952,note_on,,,,,12,0,12,,,,13,,65,96
41952,note_on,,,,,12,0,4,,,,3,,77,62
41952,note_on,,,,,2,0,7,,,,6,,81,75
41952,note_on,,,,,2,0,8,,,,7,,81,75
41952,note_on,,,,,12,0,6,,,,5,,53,49
41952,note_on,,,,,12,0,9,,,,8,,77,75
41952,note_on,,,,,2,0,3,,,,2,,81,62
41952,note_on,,,,,0,0,12,,,,13,,72,96
41952,note_on,,,,,0,0,12,,,,13,,53,96
41952,note_on,,,,,12,0,11,,,,12,,41,49
41962,note_off,,,,,10,0,8,,,,7,,81,0
41962,note_off,,,,,10,0,7,,,,6,,81,0
41962,note_off,,,,,10,0,3,,,,2,,81,0
41964,note_on,,,,,2,0,8,,,,7,,79,75
41964,note_on,,,,,2,0,7,,,,6,,79,75
41964,note_on,,,,,2,0,3,,,,2,,79,62
41974,note_off,,,,,10,0,8,,,,7,,79,0
41974,note_off,,,,,10,0,7,,,,6,,79,0
41974,note_off,,,,,10,0,3,,,,2,,79,0
41976,note_on,,,,,2,0,7,,,,6,,81,75
41976,note_on,,,,,2,0,3,,,,2,,81,62
41976,note_on,,,,,2,0,8,,,,7,,81,75
41986,note_off,,,,,10,0,8,,,,7,,81,0
41986,note_off,,,,,10,0,3,,,,2,,81,0
41986,note_off,,,,,10,0,7,,,,6,,81,0
41988,note_on,,,,,2,0,7,,,,6,,79,75
41988,note_on,,,,,2,0,3,,,,2,,79,62
41988,note_on,,,,,2,0,8,,,,7,,79,75
41994,note_off,,,,,42,0,11,,,,12,,41,0
41994,note_off,,,,,42,0,2,,,,1,,60,0
41994,note_off,,,,,42,0,12,,,,13,,53,0
41994,note_off,,,,,42,0,6,,,,5,,53,0
41994,note_off,,,,,42,0,10,,,,11,,53,0
41998,note_off,,,,,10,0,3,,,,2,,79,0
41998,note_off,,,,,10,0,7,,,,6,,79,0
41998,note_off,,,,,10,0,8,,,,7,,79,0
42000,note_on,,,,,6,0,12,,,,13,,52,96
42000,note_on,,,,,2,0,3,,,,2,,81,62
42000,note_on,,,,,6,0,11,,,,12,,40,49
42000,note_on,,,,,2,0,7,,,,6,,81,75
42000,note_on,,,,,2,0,8,,,,7,,81,75
42000,note_on,,,,,6,0,2,,,,1,,60,127
42000,note_on,,,,,6,0,10,,,,11,,52,49
42000,note_on,,,,,6,0,6,,,,5,,52,49
42010,note_off,,,,,10,0,3,,,,2,,81,0
42010,note_off,,,,,10,0,7,,,,6,,81,0
42010,note_off,,,,,10,0,8,,,,7,,81,0
42012,note_on,,,,,2,0,8,,,,7,,79,75
42012,note_on,,,,,2,0,3,,,,2,,79,62
42012,note_on,,,,,2,0,7,,,,6,,79,75
42022,note_off,,,,,10,0,3,,,,2,,79,0
42022,note_off,,,,,10,0,8,,,,7,,79,0
42022,note_off,,,,,10,0,7,,,,6,,79,0
42024,note_on,,,,,2,0,3,,,,2,,81,62
42024,note_on,,,,,2,0,8,,,,7,,81,75
42024,note_on,,,,,2,0,7,,,,6,,81,75
42034,note_off,,,,,10,0,8,,,,7,,81,0
42034,note_off,,,,,10,0,7,,,,6,,81,0
42034,note_off,,,,,10,0,3,,,,2,,81,0
42036,note_off,,,,,180,0,13,,,,14,,72,0
42036,note_on,,,,,2,0,8,,,,7,,79,75
42036,note_off,,,,,180,0,5,,,,4,,72,0
42036,note_off,,,,,84,0,9,,,,8,,77,0
42036,note_on,,,,,2,0,7,,,,6,,79,75
42036,note_off,,,,,0,0,12,,,,13,,72,0
42036,note_off,,,,,36,0,12,,,,13,,65,0
42036,note_off,,,,,84,0,4,,,,3,,77,0
42036,note_on,,,,,2,0,3,,,,2,,79,62
42042,note_off,,,,,42,0,6,,,,5,,52,0
42042,note_off,,,,,6,0,12,,,,13,,52,0
42042,note_off,,,,,42,0,2,,,,1,,60,0
42042,note_off,,,,,42,0,11,,,,12,,40,0
42042,note_off,,,,,42,0,10,,,,11,,52,0
42046,note_off,,,,,10,0,8,,,,7,,79,0
42046,note_off,,,,,10,0,3,,,,2,,79,0
42046,note_off,,,,,10,0,7,,,,6,,79,0
42048,note_on,,,,,12,0,4,,,,3,,76,62
42048,note_on,,,,,12,0,5,,,,4,,67,62
42048,note_on,,,,,2,0,8,,,,7,,84,75
42048,note_on,,,,,6,0,10,,,,11,,50,49
42048,note_on,,,,,6,0,12,,,,13,,67,96
42048,note_on,,,,,6,0,11,,,,12,,38,49
42048,note_on,,,,,0,0,12,,,,13,,76,96
42048,note_on,,,,,6,0,6,,,,5,,50,49
42048,note_on,,,,,6,0,2,,,,1,,60,127
42048,note_on,,,,,2,0,7,,,,6,,84,75
42048,note_on,,,,,2,0,3,,,,2,,84,62
42048,note_on,,,,,12,0,13,,,,14,,67,75
42048,note_on,,,,,12,0,9,,,,8,,76,75
42048,note_on,,,,,0,0,12,,,,13,,50,96
42090,note_off,,,,,42,0,12,,,,13,,50,0
42090,note_off,,,,,42,0,6,,,,5,,50,0
42090,note_off,,,,,42,0,2,,,,1,,60,0
42090,note_off,,,,,42,0,10,,,,11,,50,0
42090,note_off,,,,,42,0,11,,,,12,,38,0
42096,note_on,,,,,6,0,11,,,,12,,36,49
42096,note_on,,,,,6,0,6,,,,5,,48,49
42096,note_on,,,,,6,0,10,,,,11,,48,49
42096,note_on,,,,,6,0,12,,,,13,,48,96
42096,note_on,,,,,6,0,2,,,,1,,60,127
42132,note_off,,,,,84,0,3,,,,2,,84,0
42132,note_off,,,,,84,0,8,,,,7,,84,0
42132,note_off,,,,,84,0,4,,,,3,,76,0
42132,note_off,,,,,84,0,5,,,,4,,67,0
42132,note_off,,,,,84,0,9,,,,8,,76,0
42132,note_off,,,,,36,0,12,,,,13,,67,0
42132,note_off,,,,,0,0,12,,,,13,,76,0
42132,note_off,,,,,84,0,7,,,,6,,84,0
42132,note_off,,,,,84,0,13,,,,14,,67,0
42138,note_off,,,,,42,0,11,,,,12,,36,0
42138,note_off,,,,,42,0,10,,,,11,,48,0
42138,note_off,,,,,42,0,2,,,,1,,60,0
42138,note_off,,,,,6,0,12,,,,13,,48,0
42138,note_off,,,,,42,0,6,,,,5,,48,0
42144,note_on,,,,,6,0,11,,,,12,,36,49
42144,note_on,,,,,6,0,2,,,,1,,67,127
42144,note_on,,,,,12,0,5,,,,4,,67,62
42144,note_on,,,,,12,0,4,,,,3,,74,62
42144,note_on,,,,,12,0,9,,,,8,,74,75
42144,note_on,,,,,12,0,3,,,,2,,77,62
42144,note_on,,,,,0,0,12,,,,13,,48,96
42144,note_on,,,,,6,0,12,,,,13,,67,96
42144,note_on,,,,,0,0,12,,,,13,,74,96
42144,note_on,,,,,204,0,1,,,,0,,67,127
42144,note_on,,,,,12,0,7,,,,6,,77,75
42144,note_on,,,,,12,0,8,,,,7,,77,75
42144,note_on,,,,,6,0,10,,,,11,,48,49
42144,note_on,,,,,12,0,13,,,,14,,67,75
42144,note_on,,,,,6,0,6,,,,5,,48,49
42154,note_off,,,,,10,0,10,,,,11,,48,0
42154,note_off,,,,,10,0,12,,,,13,,48,0
42154,note_off,,,,,10,0,11,,,,12,,36,0
42156,note_on,,,,,2,0,12,,,,13,,47,96
42156,note_on,,,,,2,0,10,,,,11,,47,49
42156,note_on,,,,,2,0,11,,,,12,,35,49
42165,note_off,,,,,21,0,6,,,,5,,48,0
42166,note_off,,,,,10,0,11,,,,12,,35,0
42166,note_off,,,,,10,0,10,,,,11,,47,0
42166,note_off,,,,,10,0,12,,,,13,,47,0
42168,note_on,,,,,2,0,12,,,,13,,48,96
42168,note_on,,,,,2,0,10,,,,11,,48,49
42168,note_on,,,,,2,0,11,,,,12,,36,49
42168,note_on,,,,,3,0,6,,,,5,,47,49
42178,note_off,,,,,10,0,10,,,,11,,48,0
42178,note_off,,,,,10,0,12,,,,13,,48,0
42178,note_off,,,,,10,0,11,,,,12,,36,0
42180,note_on,,,,,2,0,12,,,,13,,47,96
42180,note_on,,,,,2,0,11,,,,12,,35,49
42180,note_on,,,,,2,0,10,,,,11,,47,49
42189,note_off,,,,,21,0,6,,,,5,,47,0
42190,note_off,,,,,10,0,12,,,,13,,47,0
42190,note_off,,,,,10,0,10,,,,11,,47,0
42190,note_off,,,,,10,0,11,,,,12,,35,0
42192,note_on,,,,,2,0,11,,,,12,,36,49
42192,note_on,,,,,2,0,10,,,,11,,48,49
42192,note_on,,,,,2,0,12,,,,13,,48,96
42192,note_on,,,,,3,0,6,,,,5,,48,49
42202,note_off,,,,,10,0,11,,,,12,,36,0
42202,note_off,,,,,10,0,12,,,,13,,48,0
42202,note_off,,,,,10,0,10,,,,11,,48,0
42204,note_on,,,,,2,0,12,,,,13,,47,96
42204,note_on,,,,,2,0,10,,,,11,,47,49
42204,note_on,,,,,2,0,11,,,,12,,35,49
42213,note_off,,,,,21,0,6,,,,5,,48,0
42214,note_off,,,,,10,0,12,,,,13,,47,0
42214,note_off,,,,,10,0,11,,,,12,,35,0
42214,note_off,,,,,10,0,10,,,,11,,47,0
42216,note_on,,,,,2,0,12,,,,13,,48,96
42216,note_on,,,,,2,0,11,,,,12,,36,49
42216,note_on,,,,,2,0,10,,,,11,,48,49
42216,note_on,,,,,3,0,6,,,,5,,47,49
42226,note_off,,,,,10,0,10,,,,11,,48,0
42226,note_off,,,,,10,0,12,,,,13,,48,0
42226,note_off,,,,,10,0,11,,,,12,,36,0
42228,note_off,,,,,84,0,3,,,,2,,77,0
42228,note_on,,,,,2,0,11,,,,12,,35,49
42228,note_off,,,,,84,0,2,,,,1,,67,0
42228,note_off,,,,,84,0,8,,,,7,,77,0
42228,note_on,,,,,2,0,10,,,,11,,47,49
42228,note_off,,,,,84,0,1,,,,0,,67,0
42228,note_off,,,,,0,0,12,,,,13,,74,0
42228,note_on,,,,,0,0,12,,,,13,,47,96
42228,note_off,,,,,2,0,12,,,,13,,67,0
42228,note_off,,,,,84,0,7,,,,6,,77,0
42237,note_off,,,,,21,0,6,,,,5,,47,0
42238,note_off,,,,,10,0,10,,,,11,,47,0
42238,note_off,,,,,10,0,12,,,,13,,47,0
42238,note_off,,,,,10,0,11,,,,12,,35,0
42240,note_on,,,,,2,0,10,,,,11,,48,49
42240,note_on,,,,,3,0,6,,,,5,,48,49
42240,note_on,,,,,12,0,3,,,,2,,74,62
42240,note_on,,,,,12,0,1,,,,0,,67,127
42240,note_on,,,,,2,0,12,,,,13,,62,96
42240,note_on,,,,,12,0,7,,,,6,,74,75
42240,note_on,,,,,2,0,11,,,,12,,36,49
42240,note_on,,,,,0,0,12,,,,13,,71,96
42240,note_on,,,,,0,0,12,,,,13,,48,96
42240,note_on,,,,,12,0,8,,,,7,,74,75
42250,note_off,,,,,10,0,11,,,,12,,36,0
42250,note_off,,,,,10,0,12,,,,13,,48,0
42250,note_off,,,,,10,0,10,,,,11,,48,0
42252,note_on,,,,,2,0,11,,,,12,,35,49
42252,note_on,,,,,2,0,10,,,,11,,47,49
42252,note_on,,,,,2,0,12,,,,13,,47,96
42261,note_off,,,,,21,0,6,,,,5,,48,0
42262,note_off,,,,,10,0,10,,,,11,,47,0
42262,note_off,,,,,10,0,11,,,,12,,35,0
42262,note_off,,,,,10,0,12,,,,13,,47,0
42264,note_on,,,,,2,0,10,,,,11,,48,49
42264,note_on,,,,,2,0,11,,,,12,,36,49
42264,note_on,,,,,3,0,6,,,,5,,47,49
42264,note_on,,,,,2,0,12,,,,13,,48,96
42274,note_off,,,,,10,0,11,,,,12,,36,0
42274,note_off,,,,,10,0,10,,,,11,,48,0
42274,note_off,,,,,10,0,12,,,,13,,48,0
42276,note_on,,,,,2,0,10,,,,11,,47,49
42276,note_on,,,,,2,0,12,,,,13,,47,96
42276,note_on,,,,,2,0,11,,,,12,,35,49
42282,note_off,,,,,42,0,1,,,,0,,67,0
42285,note_off,,,,,21,0,6,,,,5,,47,0
42286,note_off,,,,,10,0,12,,,,13,,47,0
42286,note_off,,,,,10,0,11,,,,12,,35,0
42286,note_off,,,,,10,0,10,,,,11,,47,0
42288,note_on,,,,,2,0,10,,,,11,,48,49
42288,note_on,,,,,3,0,6,,,,5,,48,49
42288,note_on,,,,,2,0,12,,,,13,,48,96
42288,note_on,,,,,2,0,11,,,,12,,36,49
42288,note_on,,,,,6,0,1,,,,0,,67,127
42298,note_off,,,,,10,0,11,,,,12,,36,0
42298,note_off,,,,,10,0,10,,,,11,,48,0
42298,note_off,,,,,10,0,12,,,,13,,48,0
42300,note_on,,,,,2,0,11,,,,12,,35,49
42300,note_on,,,,,2,0,12,,,,13,,47,96
42300,note_on,,,,,2,0,10,,,,11,,47,49
42309,note_off,,,,,21,0,6,,,,5,,48,0
42310,note_off,,,,,10,0,11,,,,12,,35,0
42310,note_off,,,,,10,0,12,,,,13,,47,0
42310,note_off,,,,,10,0,10,,,,11,,47,0
42312,note_on,,,,,2,0,12,,,,13,,48,96
42312,note_on,,,,,2,0,10,,,,11,,48,49
42312,note_on,,,,,3,0,6,,,,5,,47,49
42312,note_on,,,,,2,0,11,,,,12,,36,49
42322,note_off,,,,,10,0,11,,,,12,,36,0
42322,note_off,,,,,10,0,12,,,,13,,48,0
42322,note_off,,,,,10,0,10,,,,11,,48,0
42324,note_off,,,,,84,0,7,,,,6,,74,0
42324,note_off,,,,,180,0,13,,,,14,,67,0
42324,note_off,,,,,84,0,3,,,,2,,74,0
42324,note_off,,,,,180,0,4,,,,3,,74,0
42324,note_on,,,,,2,0,11,,,,12,,35,49
42324,note_off,,,,,2,0,12,,,,13,,62,0
42324,note_off,,,,,0,0,12,,,,13,,71,0
42324,note_on,,,,,0,0,12,,,,13,,47,96
42324,note_off,,,,,84,0,8,,,,7,,74,0
42324,note_off,,,,,180,0,9,,,,8,,74,0
42324,note_off,,,,,180,0,5,,,,4,,67,0
42324,note_on,,,,,2,0,10,,,,11,,47,49
42330,note_off,,,,,42,0,1,,,,0,,67,0
42333,note_off,,,,,21,0,6,,,,5,,47,0
42334,note_off,,,,,10,0,11,,,,12,,35,0
42334,note_off,,,,,10,0,12,,,,13,,47,0
42334,note_off,,,,,10,0,10,,,,11,,47,0
42336,note_on,,,,,12,0,13,,,,14,,67,75
42336,note_on,,,,,12,0,3,,,,2,,76,62
42336,note_on,,,,,12,0,8,,,,7,,76,75
42336,note_on,,,,,12,0,7,,,,6,,76,75
42336,note_on,,,,,3,0,6,,,,5,,48,49
42336,note_on,,,,,2,0,11,,,,12,,36,49
42336,note_on,,,,,0,0,12,,,,13,,48,96
42336,note_on,,,,,0,0,12,,,,13,,76,96
42336,note_on,,,,,2,0,12,,,,13,,67,96
42336,note_on,,,,,2,0,10,,,,11,,48,49
42336,note_on,,,,,12,0,5,,,,4,,67,62
42336,note_on,,,,,12,0,9,,,,8,,72,75
42336,note_on,,,,,12,0,4,,,,3,,72,62
42336,note_on,,,,,6,0,1,,,,0,,67,127
42378,note_off,,,,,42,0,1,,,,0,,67,0
42384,note_on,,,,,6,0,1,,,,0,,67,127
42420,note_off,,,,,84,0,13,,,,14,,67,0
42420,note_off,,,,,84,0,4,,,,3,,72,0
42420,note_off,,,,,84,0,9,,,,8,,72,0
42420,note_off,,,,,84,0,5,,,,4,,67,0
42420,note_off,,,,,84,0,12,,,,13,,67,0
42420,note_off,,,,,0,0,12,,,,13,,48,0
42420,note_off,,,,,84,0,6,,,,5,,48,0
42420,note_off,,,,,84,0,7,,,,6,,76,0
42420,note_off,,,,,84,0,3,,,,2,,76,0
42420,note_off,,,,,84,0,8,,,,7,,76,0
42420,note_off,,,,,0,0,12,,,,13,,76,0
42420,note_off,,,,,84,0,11,,,,12,,36,0
42420,note_off,,,,,84,0,10,,,,11,,48,0
42426,note_off,,,,,42,0,1,,,,0,,67,0
42432,note_on,,,,,12,0,5,,,,4,,62,62
42432,note_on,,,,,12,0,9,,,,8,,71,75
42432,note_on,,,,,12,0,12,,,,13,,71,96
42432,note_on,,,,,0,0,12,,,,13,,77,96
42432,note_on,,,,,0,0,12,,,,13,,50,96
42432,note_on,,,,,12,0,7,,,,6,,77,75
42432,note_on,,,,,6,0,1,,,,0,,67,127
42432,note_on,,,,,12,0,3,,,,2,,77,62
42432,note_on,,,,,12,0,6,,,,5,,50,49
42432,note_on,,,,,12,0,11,,,,12,,38,49
42432,note_on,,,,,12,0,8,,,,7,,77,75
42432,note_on,,,,,12,0,13,,,,14,,62,75
42432,note_on,,,,,12,0,10,,,,11,,50,49
42432,note_on,,,,,204,0,2,,,,1,,67,127
42432,note_on,,,,,12,0,4,,,,3,,71,62
42474,note_off,,,,,42,0,4,,,,3,,71,0
42474,note_off,,,,,42,0,9,,,,8,,71,0
42480,note_on,,,,,6,0,4,,,,3,,72,62
42480,note_on,,,,,6,0,9,,,,8,,72,75
42516,note_off,,,,,84,0,7,,,,6,,77,0
42516,note_off,,,,,84,0,10,,,,11,,50,0
42516,note_off,,,,,84,0,8,,,,7,,77,0
42516,note_off,,,,,84,0,6,,,,5,,50,0
42516,note_off,,,,,0,0,12,,,,13,,50,0
42516,note_off,,,,,0,0,12,,,,13,,77,0
42516,note_off,,,,,84,0,12,,,,13,,71,0
42516,note_off,,,,,84,0,11,,,,12,,38,0
42516,note_off,,,,,84,0,2,,,,1,,67,0
42516,note_off,,,,,84,0,13,,,,14,,62,0
42516,note_off,,,,,84,0,5,,,,4,,62,0
42516,note_off,,,,,84,0,1,,,,0,,67,0
42516,note_off,,,,,84,0,3,,,,2,,77,0
42522,note_off,,,,,42,0,9,,,,8,,72,0
42522,note_off,,,,,42,0,4,,,,3,,72,0
42528,note_on,,,,,12,0,5,,,,4,,64,62
42528,note_on,,,,,12,0,12,,,,13,,69,96
42528,note_on,,,,,12,0,10,,,,11,,48,49
42528,note_on,,,,,0,0,12,,,,13,,76,96
42528,note_on,,,,,0,0,12,,,,13,,48,96
42528,note_on,,,,,12,0,7,,,,6,,81,75
42528,note_on,,,,,6,0,9,,,,8,,74,75
42528,note_on,,,,,6,0,4,,,,3,,74,62
42528,note_on,,,,,12,0,2,,,,1,,67,127
42528,note_on,,,,,12,0,11,,,,12,,36,49
42528,note_on,,,,,12,0,13,,,,14,,64,75
42528,note_on,,,,,12,0,3,,,,2,,81,62
42528,note_on,,,,,12,0,8,,,,7,,81,75
42528,note_on,,,,,12,0,6,,,,5,,48,49
42538,note_off,,,,,10,0,4,,,,3,,74,0
42538,note_off,,,,,10,0,9,,,,8,,74,0
42540,note_on,,,,,2,0,9,,,,8,,72,75
42540,note_on,,,,,2,0,4,,,,3,,72,62
42550,note_off,,,,,10,0,4,,,,3,,72,0
42550,note_off,,,,,10,0,9,,,,8,,72,0
42552,note_on,,,,,2,0,9,,,,8,,74,75
42552,note_on,,,,,2,0,4,,,,3,,74,62
42562,note_off,,,,,10,0,9,,,,8,,74,0
42562,note_off,,,,,10,0,4,,,,3,,74,0
42564,note_on,,,,,2,0,4,,,,3,,72,62
42564,note_on,,,,,2,0,9,,,,8,,72,75
42570,note_off,,,,,42,0,12,,,,13,,48,0
42570,note_off,,,,,42,0,11,,,,12,,36,0
42570,note_off,,,,,42,0,10,,,,11,,48,0
42570,note_off,,,,,42,0,6,,,,5,,48,0
42570,note_off,,,,,42,0,2,,,,1,,67,0
42574,note_off,,,,,10,0,9,,,,8,,72,0
42574,note_off,,,,,10,0,4,,,,3,,72,0
42576,note_on,,,,,2,0,9,,,,8,,74,75
42576,note_on,,,,,6,0,10,,,,11,,47,49
42576,note_on,,,,,6,0,11,,,,12,,35,49
42576,note_on,,,,,2,0,4,,,,3,,74,62
42576,note_on,,,,,6,0,12,,,,13,,47,96
42576,note_on,,,,,6,0,2,,,,1,,67,127
42576,note_on,,,,,6,0,6,,,,5,,47,49
42586,note_off,,,,,10,0,9,,,,8,,74,0
42586,note_off,,,,,10,0,4,,,,3,,74,0
42588,note_on,,,,,2,0,4,,,,3,,72,62
42588,note_on,,,,,2,0,9,,,,8,,72,75
42598,note_off,,,,,10,0,4,,,,3,,72,0
42598,note_off,,,,,10,0,9,,,,8,,72,0
42600,note_on,,,,,2,0,9,,,,8,,74,75
42600,note_on,,,,,2,0,4,,,,3,,74,62
42610,note_off,,,,,10,0,4,,,,3,,74,0
42610,note_off,,,,,10,0,9,,,,8,,74,0
42612,note_off,,,,,84,0,13,,,,14,,64,0
42612,note_off,,,,,84,0,5,,,,4,,64,0
42612,note_on,,,,,2,0,4,,,,3,,72,62
42612,note_off,,,,,0,0,12,,,,13,,76,0
42612,note_on,,,,,2,0,9,,,,8,,72,75
42612,note_off,,,,,36,0,12,,,,13,,69,0
42618,note_off,,,,,42,0,10,,,,11,,47,0
42618,note_off,,,,,42,0,6,,,,5,,47,0
42618,note_off,,,,,42,0,2,,,,1,,67,0
42618,note_off,,,,,6,0,12,,,,13,,47,0
42618,note_off,,,,,42,0,11,,,,12,,35,0
42622,note_off,,,,,10,0,9,,,,8,,72,0
42622,note_off,,,,,10,0,4,,,,3,,72,0
42624,note_on,,,,,6,0,11,,,,12,,36,49
42624,note_on,,,,,2,0,9,,,,8,,74,75
42624,note_on,,,,,12,0,13,,,,14,,60,75
42624,note_on,,,,,6,0,6,,,,5,,48,49
42624,note_on,,,,,2,0,4,,,,3,,74,62
42624,note_on,,,,,6,0,2,,,,1,,67,127
42624,note_on,,,,,0,0,12,,,,13,,48,96
42624,note_on,,,,,0,0,12,,,,13,,72,96
42624,note_on,,,,,6,0,10,,,,11,,48,49
42624,note_on,,,,,6,0,12,,,,13,,69,96
42624,note_on,,,,,12,0,5,,,,4,,60,62
42634,note_off,,,,,10,0,9,,,,8,,74,0
42634,note_off,,,,,10,0,4,,,,3,,74,0
42636,note_on,,,,,2,0,4,,,,3,,72,62
42636,note_on,,,,,2,0,9,,,,8,,72,75
42646,note_off,,,,,10,0,4,,,,3,,72,0
42646,note_off,,,,,10,0,9,,,,8,,72,0
42648,note_on,,,,,2,0,4,,,,3,,74,62
42648,note_on,,,,,2,0,9,,,,8,,74,75
42658,note_off,,,,,10,0,4,,,,3,,74,0
42658,note_off,,,,,10,0,9,,,,8,,74,0
42660,note_on,,,,,2,0,4,,,,3,,72,62
42660,note_on,,,,,2,0,9,,,,8,,72,75
42666,note_off,,,,,42,0,2,,,,1,,67,0
42670,note_off,,,,,10,0,9,,,,8,,72,0
42670,note_off,,,,,10,0,4,,,,3,,72,0
42672,note_on,,,,,2,0,4,,,,3,,71,62
42672,note_on,,,,,2,0,9,,,,8,,71,75
42672,note_on,,,,,6,0,2,,,,1,,67,127
42693,note_off,,,,,21,0,4,,,,3,,71,0
42693,note_off,,,,,21,0,9,,,,8,,71,0
42696,note_on,,,,,3,0,4,,,,3,,72,62
42696,note_on,,,,,3,0,9,,,,8,,72,75
42708,note_off,,,,,84,0,13,,,,14,,60,0
42708,note_off,,,,,84,0,11,,,,12,,36,0
42708,note_off,,,,,84,0,5,,,,4,,60,0
42708,note_off,,,,,84,0,6,,,,5,,48,0
42708,note_off,,,,,180,0,7,,,,6,,81,0
42708,note_off,,,,,180,0,8,,,,7,,81,0
42708,note_off,,,,,180,0,3,,,,2,,81,0
42708,note_off,,,,,0,0,12,,,,13,,48,0
42708,note_off,,,,,0,0,12,,,,13,,72,0
42708,note_off,,,,,84,0,12,,,,13,,69,0
42708,note_off,,,,,84,0,10,,,,11,,48,0
42714,note_off,,,,,42,0,2,,,,1,,67,0
42717,note_off,,,,,21,0,9,,,,8,,72,0
42717,note_off,,,,,21,0,4,,,,3,,72,0
42720,note_on,,,,,204,0,1,,,,0,,67,127
42720,note_on,,,,,6,0,2,,,,1,,67,127
42720,note_on,,,,,12,0,7,,,,6,,77,75
42720,note_on,,,,,3,0,9,,,,8,,74,75
42720,note_on,,,,,12,0,5,,,,4,,67,62
42720,note_on,,,,,12,0,6,,,,5,,47,49
42720,note_on,,,,,3,0,4,,,,3,,74,62
42720,note_on,,,,,12,0,11,,,,12,,35,49
42720,note_on,,,,,12,0,13,,,,14,,67,75
42720,note_on,,,,,12,0,12,,,,13,,67,96
42720,note_on,,,,,0,0,12,,,,13,,74,96
42720,note_on,,,,,0,0,12,,,,13,,47,96
42720,note_on,,,,,12,0,8,,,,7,,77,75
42720,note_on,,,,,12,0,10,,,,11,,47,49
42720,note_on,,,,,12,0,3,,,,2,,77,62
42804,note_off,,,,,84,0,9,,,,8,,74,0
42804,note_off,,,,,84,0,1,,,,0,,67,0
42804,note_off,,,,,84,0,6,,,,5,,47,0
42804,note_off,,,,,84,0,11,,,,12,,35,0
42804,note_off,,,,,84,0,8,,,,7,,77,0
42804,note_off,,,,,84,0,10,,,,11,,47,0
42804,note_off,,,,,84,0,3,,,,2,,77,0
42804,note_off,,,,,0,0,12,,,,13,,47,0
42804,note_off,,,,,0,0,12,,,,13,,74,0
42804,note_off,,,,,84,0,12,,,,13,,67,0
42804,note_off,,,,,84,0,4,,,,3,,74,0
42804,note_off,,,,,84,0,7,,,,6,,77,0
42804,note_off,,,,,84,0,2,,,,1,,67,0
42816,note_on,,,,,12,0,10,,,,11,,48,49
42816,note_on,,,,,12,0,11,,,,12,,36,49
42816,note_on,,,,,12,0,1,,,,0,,67,127
42816,note_on,,,,,0,0,12,,,,13,,76,96
42816,note_on,,,,,12,0,9,,,,8,,72,75
42816,note_on,,,,,12,0,12,,,,13,,67,96
42816,note_on,,,,,12,0,6,,,,5,,48,49
42816,note_on,,,,,12,0,7,,,,6,,76,75
42816,note_on,,,,,12,0,8,,,,7,,76,75
42816,note_on,,,,,12,0,4,,,,3,,72,62
42816,note_on,,,,,12,0,3,,,,2,,76,62
42816,note_on,,,,,0,0,12,,,,13,,48,96
42858,note_off,,,,,42,0,3,,,,2,,76,0
42858,note_off,,,,,42,0,1,,,,0,,67,0
42858,note_off,,,,,42,0,7,,,,6,,76,0
42858,note_off,,,,,42,0,10,,,,11,,48,0
42858,note_off,,,,,42,0,12,,,,13,,48,0
42858,note_off,,,,,42,0,11,,,,12,,36,0
42858,note_off,,,,,42,0,8,,,,7,,76,0
42858,note_off,,,,,42,0,6,,,,5,,48,0
42864,note_on,,,,,6,0,11,,,,12,,35,49
42864,note_on,,,,,6,0,7,,,,6,,74,75
42864,note_on,,,,,6,0,1,,,,0,,67,127
42864,note_on,,,,,6,0,6,,,,5,,47,49
42864,note_on,,,,,6,0,10,,,,11,,47,49
42864,note_on,,,,,6,0,8,,,,7,,74,75
42864,note_on,,,,,6,0,3,,,,2,,74,62
42864,note_on,,,,,6,0,12,,,,13,,47,96
42900,note_off,,,,,84,0,9,,,,8,,72,0
42900,note_off,,,,,84,0,4,,,,3,,72,0
42900,note_off,,,,,0,0,12,,,,13,,76,0
42900,note_off,,,,,180,0,13,,,,14,,67,0
42900,note_off,,,,,180,0,5,,,,4,,67,0
42900,note_off,,,,,36,0,12,,,,13,,67,0
42906,note_off,,,,,42,0,8,,,,7,,74,0
42906,note_off,,,,,6,0,12,,,,13,,47,0
42906,note_off,,,,,42,0,7,,,,6,,74,0
42906,note_off,,,,,42,0,1,,,,0,,67,0
42906,note_off,,,,,42,0,11,,,,12,,35,0
42906,note_off,,,,,42,0,3,,,,2,,74,0
42906,note_off,,,,,42,0,10,,,,11,,47,0
42906,note_off,,,,,42,0,6,,,,5,,47,0
42912,note_on,,,,,12,0,13,,,,14,,67,75
42912,note_on,,,,,6,0,8,,,,7,,79,75
42912,note_on,,,,,6,0,6,,,,5,,45,49
42912,note_on,,,,,6,0,11,,,,12,,33,49
42912,note_on,,,,,6,0,3,,,,2,,79,62
42912,note_on,,,,,12,0,9,,,,8,,71,75
42912,note_on,,,,,12,0,5,,,,4,,67,62
42912,note_on,,,,,6,0,7,,,,6,,79,75
42912,note_on,,,,,6,0,12,,,,13,,62,96
42912,note_on,,,,,0,0,12,,,,13,,71,96
42912,note_on,,,,,6,0,10,,,,11,,45,49
42912,note_on,,,,,12,0,4,,,,3,,71,62
42912,note_on,,,,,0,0,12,,,,13,,45,96
42912,note_on,,,,,6,0,1,,,,0,,67,127
42954,note_off,,,,,42,0,12,,,,13,,45,0
42954,note_off,,,,,42,0,10,,,,11,,45,0
42954,note_off,,,,,42,0,6,,,,5,,45,0
42954,note_off,,,,,42,0,1,,,,0,,67,0
42954,note_off,,,,,42,0,11,,,,12,,33,0
42960,note_on,,,,,6,0,12,,,,13,,43,96
42960,note_on,,,,,6,0,11,,,,12,,31,49
42960,note_on,,,,,6,0,1,,,,0,,67,127
42960,note_on,,,,,6,0,6,,,,5,,43,49
42960,note_on,,,,,6,0,10,,,,11,,43,49
42996,note_off,,,,,84,0,5,,,,4,,67,0
42996,note_off,,,,,84,0,4,,,,3,,71,0
42996,note_off,,,,,0,0,12,,,,13,,71,0
42996,note_off,,,,,36,0,12,,,,13,,62,0
42996,note_off,,,,,84,0,3,,,,2,,79,0
42996,note_off,,,,,84,0,9,,,,8,,71,0
42996,note_off,,,,,84,0,8,,,,7,,79,0
42996,note_off,,,,,84,0,13,,,,14,,67,0
42996,note_off,,,,,84,0,7,,,,6,,79,0
43002,note_off,,,,,42,0,6,,,,5,,43,0
43002,note_off,,,,,42,0,10,,,,11,,43,0
43002,note_off,,,,,42,0,11,,,,12,,31,0
43002,note_off,,,,,6,0,12,,,,13,,43,0
43002,note_off,,,,,42,0,1,,,,0,,67,0
43008,note_on,,,,,204,0,2,,,,1,,67,127
43008,note_on,,,,,12,0,7,,,,6,,76,75
43008,note_on,,,,,6,0,12,,,,13,,67,96
43008,note_on,,,,,0,0,12,,,,13,,76,96
43008,note_on,,,,,12,0,3,,,,2,,76,62
43008,note_on,,,,,0,0,12,,,,13,,48,96
43008,note_on,,,,,6,0,6,,,,5,,48,49
43008,note_on,,,,,12,0,8,,,,7,,76,75
43008,note_on,,,,,12,0,4,,,,3,,72,62
43008,note_on,,,,,12,0,5,,,,4,,67,62
43008,note_on,,,,,6,0,11,,,,12,,36,49
43008,note_on,,,,,12,0,9,,,,8,,72,75
43008,note_on,,,,,6,0,10,,,,11,,48,49
43008,note_on,,,,,12,0,13,,,,14,,67,75
43008,note_on,,,,,6,0,1,,,,0,,67,127
43092,note_off,,,,,0,0,12,,,,13,,48,0
43092,note_off,,,,,84,0,11,,,,12,,36,0
43092,note_off,,,,,84,0,10,,,,11,,48,0
43092,note_off,,,,,84,0,2,,,,1,,67,0
43092,note_off,,,,,84,0,6,,,,5,,48,0
43092,note_off,,,,,84,0,12,,,,13,,67,0
43092,note_off,,,,,0,0,12,,,,13,,76,0
43092,note_off,,,,,84,0,1,,,,0,,67,0
43104,note_on,,,,,0,0,12,,,,13,,46,96
43104,note_on,,,,,0,0,12,,,,13,,74,96
43104,note_on,,,,,12,0,12,,,,13,,65,96
43104,note_on,,,,,12,0,6,,,,5,,46,49
43104,note_on,,,,,12,0,10,,,,11,,46,49
43104,note_on,,,,,12,0,2,,,,1,,67,127
43104,note_on,,,,,12,0,11,,,,12,,34,49
43140,note_off,,,,,132,0,7,,,,6,,76,0
43140,note_off,,,,,132,0,8,,,,7,,76,0
43140,note_off,,,,,132,0,3,,,,2,,76,0
43146,note_off,,,,,42,0,2,,,,1,,67,0
43146,note_off,,,,,42,0,6,,,,5,,46,0
43146,note_off,,,,,42,0,11,,,,12,,34,0
43146,note_off,,,,,42,0,12,,,,13,,46,0
43146,note_off,,,,,42,0,10,,,,11,,46,0
43152,note_on,,,,,12,0,8,,,,7,,77,75
43152,note_on,,,,,6,0,12,,,,13,,45,96
43152,note_on,,,,,6,0,11,,,,12,,33,49
43152,note_on,,,,,12,0,3,,,,2,,77,62
43152,note_on,,,,,6,0,6,,,,5,,45,49
43152,note_on,,,,,6,0,10,,,,11,,45,49
43152,note_on,,,,,12,0,7,,,,6,,77,75
43152,note_on,,,,,6,0,2,,,,1,,67,127
43188,note_off,,,,,0,0,12,,,,13,,74,0
43188,note_off,,,,,36,0,12,,,,13,,65,0
43194,note_off,,,,,42,0,8,,,,7,,77,0
43194,note_off,,,,,42,0,10,,,,11,,45,0
43194,note_off,,,,,42,0,7,,,,6,,77,0
43194,note_off,,,,,42,0,6,,,,5,,45,0
43194,note_off,,,,,42,0,2,,,,1,,67,0
43194,note_off,,,,,42,0,11,,,,12,,33,0
43194,note_off,,,,,42,0,3,,,,2,,77,0
43194,note_off,,,,,6,0,12,,,,13,,45,0
43200,note_on,,,,,6,0,8,,,,7,,79,75
43200,note_on,,,,,6,0,10,,,,11,,43,49
43200,note_on,,,,,0,0,12,,,,13,,43,96
43200,note_on,,,,,0,0,12,,,,13,,74,96
43200,note_on,,,,,6,0,6,,,,5,,43,49
43200,note_on,,,,,6,0,2,,,,1,,67,127
43200,note_on,,,,,6,0,11,,,,12,,31,49
43200,note_on,,,,,6,0,3,,,,2,,79,62
43200,note_on,,,,,6,0,12,,,,13,,65,96
43200,note_on,,,,,6,0,7,,,,6,,79,75
43210,note_off,,,,,10,0,7,,,,6,,79,0
43210,note_off,,,,,10,0,3,,,,2,,79,0
43210,note_off,,,,,10,0,8,,,,7,,79,0
43212,note_on,,,,,2,0,7,,,,6,,77,75
43212,note_on,,,,,2,0,3,,,,2,,77,62
43212,note_on,,,,,2,0,8,,,,7,,77,75
43222,note_off,,,,,10,0,3,,,,2,,77,0
43222,note_off,,,,,10,0,7,,,,6,,77,0
43222,note_off,,,,,10,0,8,,,,7,,77,0
43224,note_on,,,,,2,0,7,,,,6,,79,75
43224,note_on,,,,,2,0,8,,,,7,,79,75
43224,note_on,,,,,2,0,3,,,,2,,79,62
43234,note_off,,,,,10,0,3,,,,2,,79,0
43234,note_off,,,,,10,0,7,,,,6,,79,0
43234,note_off,,,,,10,0,8,,,,7,,79,0
43236,note_on,,,,,2,0,3,,,,2,,77,62
43236,note_on,,,,,2,0,7,,,,6,,77,75
43236,note_on,,,,,2,0,8,,,,7,,77,75
43242,note_off,,,,,42,0,10,,,,11,,43,0
43242,note_off,,,,,42,0,12,,,,13,,43,0
43242,note_off,,,,,42,0,6,,,,5,,43,0
43242,note_off,,,,,42,0,11,,,,12,,31,0
43242,note_off,,,,,42,0,2,,,,1,,67,0
43246,note_off,,,,,10,0,3,,,,2,,77,0
43246,note_off,,,,,10,0,8,,,,7,,77,0
43246,note_off,,,,,10,0,7,,,,6,,77,0
43248,note_on,,,,,2,0,8,,,,7,,79,75
43248,note_on,,,,,6,0,10,,,,11,,41,49
43248,note_on,,,,,6,0,2,,,,1,,67,127
43248,note_on,,,,,2,0,3,,,,2,,79,62
43248,note_on,,,,,6,0,6,,,,5,,41,49
43248,note_on,,,,,6,0,11,,,,12,,29,49
43248,note_on,,,,,6,0,12,,,,13,,41,96
43248,note_on,,,,,2,0,7,,,,6,,79,75
43258,note_off,,,,,10,0,7,,,,6,,79,0
43258,note_off,,,,,10,0,8,,,,7,,79,0
43258,note_off,,,,,10,0,3,,,,2,,79,0
43260,note_on,,,,,2,0,3,,,,2,,77,62
43260,note_on,,,,,2,0,7,,,,6,,77,75
43260,note_on,,,,,2,0,8,,,,7,,77,75
43270,note_off,,,,,10,0,3,,,,2,,77,0
43270,note_off,,,,,10,0,8,,,,7,,77,0
43270,note_off,,,,,10,0,7,,,,6,,77,0
43272,note_on,,,,,2,0,8,,,,7,,76,75
43272,note_on,,,,,2,0,7,,,,6,,76,75
43272,note_on,,,,,2,0,3,,,,2,,76,62
43282,note_off,,,,,10,0,8,,,,7,,76,0
43282,note_off,,,,,10,0,3,,,,2,,76,0
43282,note_off,,,,,10,0,7,,,,6,,76,0
43284,note_on,,,,,2,0,3,,,,2,,77,62
43284,note_off,,,,,36,0,12,,,,13,,65,0
43284,note_on,,,,,2,0,7,,,,6,,77,75
43284,note_off,,,,,276,0,13,,,,14,,67,0
43284,note_off,,,,,0,0,12,,,,13,,74,0
43284,note_on,,,,,2,0,8,,,,7,,77,75
43284,note_off,,,,,276,0,5,,,,4,,67,0
43284,note_off,,,,,276,0,9,,,,8,,72,0
43284,note_off,,,,,276,0,4,,,,3,,72,0
43290,note_off,,,,,42,0,10,,,,11,,41,0
43290,note_off,,,,,42,0,6,,,,5,,41,0
43290,note_off,,,,,42,0,11,,,,12,,29,0
43290,note_off,,,,,6,0,12,,,,13,,41,0
43290,note_off,,,,,42,0,2,,,,1,,67,0
43294,note_off,,,,,10,0,8,,,,7,,77,0
43294,note_off,,,,,10,0,7,,,,6,,77,0
43294,note_off,,,,,10,0,3,,,,2,,77,0
43296,note_on,,,,,12,0,13,,,,14,,67,75
43296,note_on,,,,,6,0,10,,,,11,,40,49
43296,note_on,,,,,12,0,4,,,,3,,72,62
43296,note_on,,,,,0,0,12,,,,13,,40,96
43296,note_on,,,,,0,0,12,,,,13,,72,96
43296,note_on,,,,,6,0,12,,,,13,,67,96
43296,note_on,,,,,2,0,7,,,,6,,79,75
43296,note_on,,,,,12,0,9,,,,8,,72,75
43296,note_on,,,,,204,0,1,,,,0,,72,127
43296,note_on,,,,,6,0,6,,,,5,,40,49
43296,note_on,,,,,2,0,3,,,,2,,79,62
43296,note_on,,,,,6,0,2,,,,1,,67,127
43296,note_on,,,,,12,0,5,,,,4,,67,62
43296,note_on,,,,,6,0,11,,,,12,,28,49
43296,note_on,,,,,2,0,8,,,,7,,79,75
43338,note_off,,,,,42,0,3,,,,2,,79,0
43338,note_off,,,,,42,0,13,,,,14,,67,0
43338,note_off,,,,,42,0,7,,,,6,,79,0
43338,note_off,,,,,42,0,8,,,,7,,79,0
43344,note_on,,,,,6,0,3,,,,2,,81,62
43344,note_on,,,,,6,0,13,,,,14,,65,75
43344,note_on,,,,,6,0,8,,,,7,,81,75
43344,note_on,,,,,6,0,7,,,,6,,81,75
43380,note_off,,,,,84,0,5,,,,4,,67,0
43380,note_off,,,,,84,0,10,,,,11,,40,0
43380,note_off,,,,,84,0,6,,,,5,,40,0
43380,note_off,,,,,0,0,12,,,,13,,72,0
43380,note_off,,,,,84,0,12,,,,13,,67,0
43380,note_off,,,,,84,0,2,,,,1,,67,0
43380,note_off,,,,,84,0,1,,,,0,,72,0
43380,note_off,,,,,0,0,12,,,,13,,40,0
43380,note_off,,,,,84,0,11,,,,12,,28,0
43386,note_off,,,,,42,0,3,,,,2,,81,0
43386,note_off,,,,,42,0,8,,,,7,,81,0
43386,note_off,,,,,42,0,13,,,,14,,65,0
43386,note_off,,,,,42,0,7,,,,6,,81,0
43392,note_on,,,,,12,0,10,,,,11,,41,49
43392,note_on,,,,,6,0,3,,,,2,,82,62
43392,note_on,,,,,6,0,8,,,,7,,82,75
43392,note_on,,,,,0,0,12,,,,13,,41,96
43392,note_on,,,,,6,0,13,,,,14,,67,75
43392,note_on,,,,,12,0,5,,,,4,,67,62
43392,note_on,,,,,12,0,6,,,,5,,41,49
43392,note_on,,,,,12,0,11,,,,12,,29,49
43392,note_on,,,,,6,0,7,,,,6,,82,75
43392,note_on,,,,,12,0,1,,,,0,,72,127
43392,note_on,,,,,12,0,12,,,,13,,60,96
43392,note_on,,,,,0,0,12,,,,13,,69,96
43402,note_off,,,,,10,0,7,,,,6,,82,0
43402,note_off,,,,,10,0,8,,,,7,,82,0
43402,note_off,,,,,10,0,13,,,,14,,67,0
43402,note_off,,,,,10,0,5,,,,4,,67,0
43402,note_off,,,,,10,0,3,,,,2,,82,0
43404,note_on,,,,,2,0,7,,,,6,,81,75
43404,note_on,,,,,2,0,3,,,,2,,81,62
43404,note_on,,,,,2,0,13,,,,14,,65,75
43404,note_on,,,,,2,0,5,,,,4,,65,62
43404,note_on,,,,,2,0,8,,,,7,,81,75
43414,note_off,,,,,10,0,7,,,,6,,81,0
43414,note_off,,,,,10,0,8,,,,7,,81,0
43414,note_off,,,,,10,0,3,,,,2,,81,0
43414,note_off,,,,,10,0,13,,,,14,,65,0
43414,note_off,,,,,10,0,5,,,,4,,65,0
43416,note_on,,,,,2,0,13,,,,14,,67,75
43416,note_on,,,,,2,0,3,,,,2,,82,62
43416,note_on,,,,,2,0,5,,,,4,,67,62
43416,note_on,,,,,2,0,8,,,,7,,82,75
43416,note_on,,,,,2,0,7,,,,6,,82,75
43426,note_off,,,,,10,0,5,,,,4,,67,0
43426,note_off,,,,,10,0,13,,,,14,,67,0
43426,note_off,,,,,10,0,7,,,,6,,82,0
43426,note_off,,,,,10,0,8,,,,7,,82,0
43426,note_off,,,,,10,0,3,,,,2,,82,0
43428,note_on,,,,,2,0,7,,,,6,,81,75
43428,note_on,,,,,2,0,13,,,,14,,65,75
43428,note_on,,,,,2,0,3,,,,2,,81,62
43428,note_on,,,,,2,0,8,,,,7,,81,75
43428,note_on,,,,,2,0,5,,,,4,,65,62
43434,note_off,,,,,42,0,10,,,,11,,41,0
43434,note_off,,,,,42,0,1,,,,0,,72,0
43434,note_off,,,,,42,0,12,,,,13,,41,0
43434,note_off,,,,,42,0,11,,,,12,,29,0
43434,note_off,,,,,42,0,6,,,,5,,41,0
43438,note_off,,,,,10,0,13,,,,14,,65,0
43438,note_off,,,,,10,0,5,,,,4,,65,0
43438,note_off,,,,,10,0,8,,,,7,,81,0
43438,note_off,,,,,10,0,7,,,,6,,81,0
43438,note_off,,,,,10,0,3,,,,2,,81,0
43440,note_on,,,,,2,0,13,,,,14,,67,75
43440,note_on,,,,,6,0,12,,,,13,,40,96
43440,note_on,,,,,2,0,7,,,,6,,82,75
43440,note_on,,,,,6,0,11,,,,12,,28,49
43440,note_on,,,,,6,0,6,,,,5,,40,49
43440,note_on,,,,,2,0,3,,,,2,,82,62
43440,note_on,,,,,2,0,5,,,,4,,67,62
43440,note_on,,,,,2,0,8,,,,7,,82,75
43440,note_on,,,,,6,0,10,,,,11,,40,49
43440,note_on,,,,,6,0,1,,,,0,,72,127
43450,note_off,,,,,10,0,3,,,,2,,82,0
43450,note_off,,,,,10,0,5,,,,4,,67,0
43450,note_off,,,,,10,0,8,,,,7,,82,0
43450,note_off,,,,,10,0,7,,,,6,,82,0
43450,note_off,,,,,10,0,13,,,,14,,67,0
43452,note_on,,,,,2,0,3,,,,2,,81,62
43452,note_on,,,,,2,0,5,,,,4,,65,62
43452,note_on,,,,,2,0,13,,,,14,,65,75
43452,note_on,,,,,2,0,7,,,,6,,81,75
43452,note_on,,,,,2,0,8,,,,7,,81,75
43462,note_off,,,,,10,0,3,,,,2,,81,0
43462,note_off,,,,,10,0,5,,,,4,,65,0
43462,note_off,,,,,10,0,13,,,,14,,65,0
43462,note_off,,,,,10,0,8,,,,7,,81,0
43462,note_off,,,,,10,0,7,,,,6,,81,0
43464,note_on,,,,,2,0,8,,,,7,,82,75
43464,note_on,,,,,2,0,3,,,,2,,82,62
43464,note_on,,,,,2,0,13,,,,14,,67,75
43464,note_on,,,,,2,0,5,,,,4,,67,62
43464,note_on,,,,,2,0,7,,,,6,,82,75
43474,note_off,,,,,10,0,7,,,,6,,82,0
43474,note_off,,,,,10,0,3,,,,2,,82,0
43474,note_off,,,,,10,0,8,,,,7,,82,0
43474,note_off,,,,,10,0,13,,,,14,,67,0
43474,note_off,,,,,10,0,5,,,,4,,67,0
43476,note_off,,,,,0,0,12,,,,13,,69,0
43476,note_off,,,,,36,0,12,,,,13,,60,0
43476,note_on,,,,,2,0,3,,,,2,,81,62
43476,note_on,,,,,2,0,5,,,,4,,65,62
43476,note_off,,,,,180,0,9,,,,8,,72,0
43476,note_on,,,,,2,0,13,,,,14,,65,75
43476,note_on,,,,,2,0,7,,,,6,,81,75
43476,note_on,,,,,2,0,8,,,,7,,81,75
43476,note_off,,,,,180,0,4,,,,3,,72,0
43482,note_off,,,,,42,0,1,,,,0,,72,0
43482,note_off,,,,,42,0,11,,,,12,,28,0
43482,note_off,,,,,42,0,10,,,,11,,40,0
43482,note_off,,,,,42,0,6,,,,5,,40,0
43482,note_off,,,,,6,0,12,,,,13,,40,0
43486,note_off,,,,,10,0,7,,,,6,,81,0
43486,note_off,,,,,10,0,13,,,,14,,65,0
43486,note_off,,,,,10,0,5,,,,4,,65,0
43486,note_off,,,,,10,0,3,,,,2,,81,0
43486,note_off,,,,,10,0,8,,,,7,,81,0
43488,note_on,,,,,6,0,12,,,,13,,69,96
43488,note_on,,,,,2,0,5,,,,4,,67,62
43488,note_on,,,,,6,0,10,,,,11,,38,49
43488,note_on,,,,,6,0,1,,,,0,,72,127
43488,note_on,,,,,6,0,6,,,,5,,38,49
43488,note_on,,,,,2,0,7,,,,6,,82,75
43488,note_on,,,,,2,0,3,,,,2,,82,62
43488,note_on,,,,,2,0,8,,,,7,,82,75
43488,note_on,,,,,0,0,12,,,,13,,38,96
43488,note_on,,,,,12,0,9,,,,8,,77,75
43488,note_on,,,,,2,0,13,,,,14,,67,75
43488,note_on,,,,,0,0,12,,,,13,,77,96
43488,note_on,,,,,6,0,11,,,,12,,26,49
43488,note_on,,,,,12,0,4,,,,3,,77,62
43498,note_off,,,,,10,0,5,,,,4,,67,0
43498,note_off,,,,,10,0,3,,,,2,,82,0
43498,note_off,,,,,10,0,7,,,,6,,82,0
43498,note_off,,,,,10,0,13,,,,14,,67,0
43498,note_off,,,,,10,0,8,,,,7,,82,0
43500,note_on,,,,,2,0,3,,,,2,,81,62
43500,note_on,,,,,2,0,7,,,,6,,81,75
43500,note_on,,,,,2,0,5,,,,4,,65,62
43500,note_on,,,,,2,0,8,,,,7,,81,75
43500,note_on,,,,,2,0,13,,,,14,,65,75
43510,note_off,,,,,10,0,8,,,,7,,81,0
43510,note_off,,,,,10,0,13,,,,14,,65,0
43510,note_off,,,,,10,0,7,,,,6,,81,0
43510,note_off,,,,,10,0,3,,,,2,,81,0
43510,note_off,,,,,10,0,5,,,,4,,65,0
43512,note_on,,,,,2,0,5,,,,4,,67,62
43512,note_on,,,,,2,0,8,,,,7,,82,75
43512,note_on,,,,,2,0,3,,,,2,,82,62
43512,note_on,,,,,2,0,7,,,,6,,82,75
43512,note_on,,,,,2,0,13,,,,14,,67,75
43522,note_off,,,,,10,0,8,,,,7,,82,0
43522,note_off,,,,,10,0,5,,,,4,,67,0
43522,note_off,,,,,10,0,7,,,,6,,82,0
43522,note_off,,,,,10,0,13,,,,14,,67,0
43522,note_off,,,,,10,0,3,,,,2,,82,0
43524,note_on,,,,,2,0,8,,,,7,,81,75
43524,note_on,,,,,2,0,5,,,,4,,65,62
43524,note_on,,,,,2,0,13,,,,14,,65,75
43524,note_on,,,,,2,0,3,,,,2,,81,62
43524,note_on,,,,,2,0,7,,,,6,,81,75
43530,note_off,,,,,42,0,11,,,,12,,26,0
43530,note_off,,,,,42,0,6,,,,5,,38,0
43530,note_off,,,,,42,0,10,,,,11,,38,0
43530,note_off,,,,,42,0,12,,,,13,,38,0
43530,note_off,,,,,42,0,1,,,,0,,72,0
43534,note_off,,,,,10,0,8,,,,7,,81,0
43534,note_off,,,,,10,0,5,,,,4,,65,0
43534,note_off,,,,,10,0,7,,,,6,,81,0
43534,note_off,,,,,10,0,3,,,,2,,81,0
43534,note_off,,,,,10,0,13,,,,14,,65,0
43536,note_on,,,,,2,0,13,,,,14,,64,75
43536,note_on,,,,,2,0,8,,,,7,,79,75
43536,note_on,,,,,6,0,12,,,,13,,40,96
43536,note_on,,,,,6,0,1,,,,0,,72,127
43536,note_on,,,,,6,0,6,,,,5,,40,49
43536,note_on,,,,,2,0,7,,,,6,,79,75
43536,note_on,,,,,2,0,3,,,,2,,79,62
43536,note_on,,,,,6,0,10,,,,11,,40,49
43536,note_on,,,,,2,0,5,,,,4,,64,62
43536,note_on,,,,,6,0,11,,,,12,,28,49
43557,note_off,,,,,21,0,7,,,,6,,79,0
43557,note_off,,,,,21,0,5,,,,4,,64,0
43557,note_off,,,,,21,0,3,,,,2,,79,0
43557,note_off,,,,,21,0,13,,,,14,,64,0
43557,note_off,,,,,21,0,8,,,,7,,79,0
43560,note_on,,,,,3,0,8,,,,7,,81,75
43560,note_on,,,,,3,0,7,,,,6,,81,75
43560,note_on,,,,,3,0,3,,,,2,,81,62
43560,note_on,,,,,3,0,13,,,,14,,65,75
43560,note_on,,,,,3,0,5,,,,4,,65,62
43572,note_off,,,,,84,0,9,,,,8,,77,0
43572,note_off,,,,,36,0,12,,,,13,,69,0
43572,note_off,,,,,0,0,12,,,,13,,77,0
43572,note_off,,,,,84,0,4,,,,3,,77,0
43578,note_off,,,,,42,0,1,,,,0,,72,0
43578,note_off,,,,,42,0,10,,,,11,,40,0
43578,note_off,,,,,6,0,12,,,,13,,40,0
43578,note_off,,,,,42,0,6,,,,5,,40,0
43578,note_off,,,,,42,0,11,,,,12,,28,0
43581,note_off,,,,,21,0,7,,,,6,,81,0
43581,note_off,,,,,21,0,8,,,,7,,81,0
43581,note_off,,,,,21,0,3,,,,2,,81,0
43581,note_off,,,,,21,0,13,,,,14,,65,0
43581,note_off,,,,,21,0,5,,,,4,,65,0
43584,note_on,,,,,3,0,7,,,,6,,82,75
43584,note_on,,,,,6,0,11,,,,12,,24,49
43584,note_on,,,,,12,0,4,,,,3,,76,62
43584,note_on,,,,,3,0,5,,,,4,,67,62
43584,note_on,,,,,3,0,13,,,,14,,67,75
43584,note_on,,,,,6,0,12,,,,13,,67,96
43584,note_on,,,,,0,0,12,,,,13,,36,96
43584,note_on,,,,,3,0,8,,,,7,,82,75
43584,note_on,,,,,6,0,6,,,,5,,36,49
43584,note_on,,,,,6,0,10,,,,11,,36,49
43584,note_on,,,,,0,0,12,,,,13,,76,96
43584,note_on,,,,,12,0,9,,,,8,,76,75
43584,note_on,,,,,204,0,2,,,,1,,67,127
43584,note_on,,,,,3,0,3,,,,2,,82,62
43584,note_on,,,,,6,0,1,,,,0,,72,127
43668,note_off,,,,,84,0,11,,,,12,,24,0
43668,note_off,,,,,84,0,13,,,,14,,67,0
43668,note_off,,,,,84,0,4,,,,3,,76,0
43668,note_off,,,,,84,0,2,,,,1,,67,0
43668,note_off,,,,,84,0,8,,,,7,,82,0
43668,note_off,,,,,84,0,6,,,,5,,36,0
43668,note_off,,,,,84,0,5,,,,4,,67,0
43668,note_off,,,,,84,0,3,,,,2,,82,0
43668,note_off,,,,,84,0,10,,,,11,,36,0
43668,note_off,,,,,84,0,12,,,,13,,67,0
43668,note_off,,,,,0,0,12,,,,13,,76,0
43668,note_off,,,,,0,0,12,,,,13,,36,0
43668,note_off,,,,,84,0,7,,,,6,,82,0
43668,note_off,,,,,84,0,9,,,,8,,76,0
43680,note_on,,,,,12,0,6,,,,5,,48,49
43680,note_on,,,,,12,0,7,,,,6,,81,75
43680,note_on,,,,,12,0,9,,,,8,,77,75
43680,note_on,,,,,12,0,4,,,,3,,79,62
43680,note_on,,,,,12,0,3,,,,2,,81,62
43680,note_on,,,,,12,0,13,,,,14,,72,75
43680,note_on,,,,,12,0,11,,,,12,,36,49
43680,note_on,,,,,12,0,10,,,,11,,48,49
43680,note_on,,,,,12,0,8,,,,7,,81,75
43680,note_on,,,,,12,0,5,,,,4,,72,62
43680,note_on,,,,,12,0,12,,,,13,,69,96
43680,note_on,,,,,0,0,12,,,,13,,77,96
43680,note_on,,,,,0,0,12,,,,13,,48,96
43680,note_on,,,,,12,0,2,,,,1,,60,127
43690,note_off,,,,,10,0,4,,,,3,,79,0
43692,note_on,,,,,2,0,4,,,,3,,77,62
43702,note_off,,,,,10,0,4,,,,3,,77,0
43704,note_on,,,,,2,0,4,,,,3,,79,62
43714,note_off,,,,,10,0,4,,,,3,,79,0
43716,note_on,,,,,2,0,4,,,,3,,77,62
43722,note_off,,,,,42,0,10,,,,11,,48,0
43722,note_off,,,,,42,0,6,,,,5,,48,0
43722,note_off,,,,,42,0,7,,,,6,,81,0
43722,note_off,,,,,42,0,11,,,,12,,36,0
43722,note_off,,,,,42,0,12,,,,13,,48,0
43722,note_off,,,,,42,0,3,,,,2,,81,0
43722,note_off,,,,,42,0,2,,,,1,,60,0
43722,note_off,,,,,42,0,8,,,,7,,81,0
43726,note_off,,,,,10,0,4,,,,3,,77,0
43728,note_on,,,,,6,0,2,,,,1,,60,127
43728,note_on,,,,,2,0,4,,,,3,,79,62
43728,note_on,,,,,6,0,6,,,,5,,50,49
43728,note_on,,,,,6,0,8,,,,7,,79,75
43728,note_on,,,,,6,0,11,,,,12,,38,49
43728,note_on,,,,,6,0,7,,,,6,,79,75
43728,note_on,,,,,6,0,10,,,,11,,50,49
43728,note_on,,,,,6,0,12,,,,13,,50,96
43728,note_on,,,,,6,0,3,,,,2,,79,62
43738,note_off,,,,,10,0,4,,,,3,,79,0
43740,note_on,,,,,2,0,4,,,,3,,77,62
43750,note_off,,,,,10,0,4,,,,3,,77,0
43752,note_on,,,,,2,0,4,,,,3,,79,62
43762,note_off,,,,,10,0,4,,,,3,,79,0
43764,note_off,,,,,0,0,12,,,,13,,77,0
43764,note_off,,,,,84,0,13,,,,14,,72,0
43764,note_off,,,,,84,0,9,,,,8,,77,0
43764,note_on,,,,,2,0,4,,,,3,,77,62
43764,note_off,,,,,36,0,12,,,,13,,69,0
43764,note_off,,,,,180,0,1,,,,0,,72,0
43764,note_off,,,,,84,0,5,,,,4,,72,0
43770,note_off,,,,,42,0,10,,,,11,,50,0
43770,note_off,,,,,6,0,12,,,,13,,50,0
43770,note_off,,,,,42,0,7,,,,6,,79,0
43770,note_off,,,,,42,0,3,,,,2,,79,0
43770,note_off,,,,,42,0,2,,,,1,,60,0
43770,note_off,,,,,42,0,8,,,,7,,79,0
43770,note_off,,,,,42,0,6,,,,5,,50,0
43770,note_off,,,,,42,0,11,,,,12,,38,0
43774,note_off,,,,,10,0,4,,,,3,,77,0
43776,note_on,,,,,0,0,12,,,,13,,79,96
43776,note_on,,,,,6,0,7,,,,6,,84,75
43776,note_on,,,,,6,0,3,,,,2,,84,62
43776,note_on,,,,,2,0,4,,,,3,,79,62
43776,note_on,,,,,6,0,12,,,,13,,72,96
43776,note_on,,,,,6,0,6,,,,5,,52,49
43776,note_on,,,,,6,0,2,,,,1,,60,127
43776,note_on,,,,,12,0,1,,,,0,,70,127
43776,note_on,,,,,6,0,8,,,,7,,84,75
43776,note_on,,,,,12,0,13,,,,14,,64,75
43776,note_on,,,,,6,0,10,,,,11,,52,49
43776,note_on,,,,,0,0,12,,,,13,,52,96
43776,note_on,,,,,6,0,11,,,,12,,40,49
43776,note_on,,,,,12,0,5,,,,4,,64,62
43776,note_on,,,,,12,0,9,,,,8,,79,75
43818,note_off,,,,,42,0,11,,,,12,,40,0
43818,note_off,,,,,42,0,12,,,,13,,52,0
43818,note_off,,,,,42,0,2,,,,1,,60,0
43818,note_off,,,,,42,0,10,,,,11,,52,0
43818,note_off,,,,,42,0,6,,,,5,,52,0
43824,note_on,,,,,6,0,2,,,,1,,60,127
43824,note_on,,,,,6,0,6,,,,5,,48,49
43824,note_on,,,,,6,0,10,,,,11,,48,49
43824,note_on,,,,,6,0,11,,,,12,,36,49
43824,note_on,,,,,6,0,12,,,,13,,48,96
43860,note_off,,,,,84,0,7,,,,6,,84,0
43860,note_off,,,,,84,0,3,,,,2,,84,0
43860,note_off,,,,,84,0,1,,,,0,,70,0
43860,note_off,,,,,84,0,13,,,,14,,64,0
43860,note_off,,,,,84,0,8,,,,7,,84,0
43860,note_off,,,,,36,0,12,,,,13,,72,0
43860,note_off,,,,,84,0,9,,,,8,,79,0
43860,note_off,,,,,84,0,5,,,,4,,64,0
43860,note_off,,,,,0,0,12,,,,13,,79,0
43860,note_off,,,,,84,0,4,,,,3,,79,0
43866,note_off,,,,,42,0,2,,,,1,,60,0
43866,note_off,,,,,42,0,6,,,,5,,48,0
43866,note_off,,,,,42,0,10,,,,11,,48,0
43866,note_off,,,,,6,0,12,,,,13,,48,0
43866,note_off,,,,,42,0,11,,,,12,,36,0
43872,note_on,,,,,6,0,10,,,,11,,50,49
43872,note_on,,,,,12,0,7,,,,6,,77,75
43872,note_on,,,,,6,0,6,,,,5,,50,49
43872,note_on,,,,,12,0,4,,,,3,,74,62
43872,note_on,,,,,12,0,3,,,,2,,77,62
43872,note_on,,,,,12,0,9,,,,8,,74,75
43872,note_on,,,,,12,0,1,,,,0,,69,127
43872,note_on,,,,,6,0,2,,,,1,,65,127
43872,note_on,,,,,12,0,5,,,,4,,69,62
43872,note_on,,,,,12,0,8,,,,7,,77,75
43872,note_on,,,,,12,0,13,,,,14,,69,75
43872,note_on,,,,,6,0,11,,,,12,,38,49
43872,note_on,,,,,0,0,12,,,,13,,50,96
43872,note_on,,,,,0,0,12,,,,13,,77,96
43872,note_on,,,,,6,0,12,,,,13,,69,96
43914,note_off,,,,,42,0,8,,,,7,,77,0
43914,note_off,,,,,42,0,5,,,,4,,69,0
43914,note_off,,,,,42,0,6,,,,5,,50,0
43914,note_off,,,,,42,0,11,,,,12,,38,0
43914,note_off,,,,,42,0,12,,,,13,,50,0
43914,note_off,,,,,42,0,10,,,,11,,50,0
43914,note_off,,,,,42,0,3,,,,2,,77,0
43914,note_off,,,,,42,0,13,,,,14,,69,0
43914,note_off,,,,,42,0,7,,,,6,,77,0
43920,note_on,,,,,6,0,10,,,,11,,46,49
43920,note_on,,,,,6,0,8,,,,7,,79,75
43920,note_on,,,,,6,0,5,,,,4,,70,62
43920,note_on,,,,,6,0,3,,,,2,,79,62
43920,note_on,,,,,6,0,13,,,,14,,70,75
43920,note_on,,,,,6,0,11,,,,12,,34,49
43920,note_on,,,,,6,0,12,,,,13,,46,96
43920,note_on,,,,,6,0,6,,,,5,,46,49
43920,note_on,,,,,6,0,7,,,,6,,79,75
43956,note_off,,,,,84,0,2,,,,1,,65,0
43956,note_off,,,,,0,0,12,,,,13,,77,0
43956,note_off,,,,,36,0,12,,,,13,,69,0
43956,note_off,,,,,84,0,1,,,,0,,69,0
43956,note_off,,,,,84,0,4,,,,3,,74,0
43956,note_off,,,,,84,0,9,,,,8,,74,0
43962,note_off,,,,,42,0,13,,,,14,,70,0
43962,note_off,,,,,42,0,5,,,,4,,70,0
43962,note_off,,,,,42,0,11,,,,12,,34,0
43962,note_off,,,,,42,0,3,,,,2,,79,0
43962,note_off,,,,,42,0,8,,,,7,,79,0
43962,note_off,,,,,42,0,10,,,,11,,46,0
43962,note_off,,,,,42,0,6,,,,5,,46,0
43962,note_off,,,,,6,0,12,,,,13,,46,0
43962,note_off,,,,,42,0,7,,,,6,,79,0
43968,note_on,,,,,6,0,5,,,,4,,67,62
43968,note_on,,,,,6,0,12,,,,13,,67,96
43968,note_on,,,,,12,0,1,,,,0,,70,127
43968,note_on,,,,,0,0,12,,,,13,,48,96
43968,note_on,,,,,6,0,13,,,,14,,67,75
43968,note_on,,,,,6,0,8,,,,7,,76,75
43968,note_on,,,,,12,0,4,,,,3,,74,62
43968,note_on,,,,,0,0,12,,,,13,,76,96
43968,note_on,,,,,6,0,6,,,,5,,48,49
43968,note_on,,,,,12,0,2,,,,1,,60,127
43968,note_on,,,,,6,0,7,,,,6,,76,75
43968,note_on,,,,,6,0,11,,,,12,,36,49
43968,note_on,,,,,6,0,3,,,,2,,76,62
43968,note_on,,,,,6,0,10,,,,11,,48,49
43968,note_on,,,,,12,0,9,,,,8,,74,75
43978,note_off,,,,,10,0,9,,,,8,,74,0
43978,note_off,,,,,10,0,13,,,,14,,67,0
43978,note_off,,,,,10,0,4,,,,3,,74,0
43980,note_on,,,,,2,0,9,,,,8,,72,75
43980,note_on,,,,,2,0,13,,,,14,,65,75
43980,note_on,,,,,2,0,4,,,,3,,72,62
43990,note_off,,,,,10,0,4,,,,3,,72,0
43990,note_off,,,,,10,0,9,,,,8,,72,0
43990,note_off,,,,,10,0,13,,,,14,,65,0
43992,note_on,,,,,2,0,9,,,,8,,74,75
43992,note_on,,,,,2,0,4,,,,3,,74,62
43992,note_on,,,,,2,0,13,,,,14,,67,75
44002,note_off,,,,,10,0,4,,,,3,,74,0
44002,note_off,,,,,10,0,9,,,,8,,74,0
44002,note_off,,,,,10,0,13,,,,14,,67,0
44004,note_on,,,,,2,0,13,,,,14,,65,75
44004,note_on,,,,,2,0,4,,,,3,,72,62
44004,note_on,,,,,2,0,9,,,,8,,72,75
44010,note_off,,,,,42,0,1,,,,0,,70,0
44010,note_off,,,,,42,0,2,,,,1,,60,0
44014,note_off,,,,,10,0,9,,,,8,,72,0
44014,note_off,,,,,10,0,4,,,,3,,72,0
44014,note_off,,,,,10,0,13,,,,14,,65,0
44016,note_on,,,,,6,0,2,,,,1,,60,127
44016,note_on,,,,,2,0,13,,,,14,,67,75
44016,note_on,,,,,2,0,4,,,,3,,74,62
44016,note_on,,,,,2,0,9,,,,8,,74,75
44016,note_on,,,,,6,0,1,,,,0,,69,127
44026,note_off,,,,,10,0,9,,,,8,,74,0
44026,note_off,,,,,10,0,4,,,,3,,74,0
44026,note_off,,,,,10,0,13,,,,14,,67,0
44028,note_on,,,,,2,0,13,,,,14,,65,75
44028,note_on,,,,,2,0,4,,,,3,,72,62
44028,note_on,,,,,2,0,9,,,,8,,72,75
44038,note_off,,,,,10,0,9,,,,8,,72,0
44038,note_off,,,,,10,0,4,,,,3,,72,0
44038,note_off,,,,,10,0,13,,,,14,,65,0
44040,note_on,,,,,2,0,4,,,,3,,74,62
44040,note_on,,,,,2,0,9,,,,8,,74,75
44040,note_on,,,,,2,0,13,,,,14,,67,75
44050,note_off,,,,,10,0,4,,,,3,,74,0
44050,note_off,,,,,10,0,13,,,,14,,67,0
44050,note_off,,,,,10,0,9,,,,8,,74,0
44052,note_on,,,,,2,0,9,,,,8,,72,75
44052,note_on,,,,,2,0,4,,,,3,,72,62
44052,note_off,,,,,84,0,12,,,,13,,67,0
44052,note_off,,,,,0,0,12,,,,13,,76,0
44052,note_off,,,,,84,0,6,,,,5,,48,0
44052,note_on,,,,,2,0,13,,,,14,,65,75
44052,note_off,,,,,84,0,10,,,,11,,48,0
44052,note_off,,,,,84,0,11,,,,12,,36,0
44052,note_off,,,,,0,0,12,,,,13,,48,0
44058,note_off,,,,,42,0,2,,,,1,,60,0
44058,note_off,,,,,42,0,1,,,,0,,69,0
44062,note_off,,,,,10,0,13,,,,14,,65,0
44062,note_off,,,,,10,0,4,,,,3,,72,0
44062,note_off,,,,,10,0,9,,,,8,,72,0
44064,note_on,,,,,12,0,6,,,,5,,36,49
44064,note_on,,,,,2,0,4,,,,3,,74,62
44064,note_on,,,,,6,0,2,,,,1,,60,127
44064,note_on,,,,,6,0,1,,,,0,,67,127
44064,note_on,,,,,12,0,10,,,,11,,36,49
44064,note_on,,,,,2,0,9,,,,8,,74,75
44064,note_on,,,,,12,0,11,,,,12,,24,49
44064,note_on,,,,,2,0,13,,,,14,,67,75
44064,note_on,,,,,0,0,12,,,,13,,67,96
44064,note_on,,,,,0,0,12,,,,13,,36,96
44064,note_on,,,,,12,0,12,,,,13,,64,96
44074,note_off,,,,,10,0,13,,,,14,,67,0
44074,note_off,,,,,10,0,4,,,,3,,74,0
44074,note_off,,,,,10,0,9,,,,8,,74,0
44076,note_on,,,,,2,0,9,,,,8,,72,75
44076,note_on,,,,,2,0,4,,,,3,,72,62
44076,note_on,,,,,2,0,13,,,,14,,65,75
44086,note_off,,,,,10,0,4,,,,3,,72,0
44086,note_off,,,,,10,0,13,,,,14,,65,0
44086,note_off,,,,,10,0,9,,,,8,,72,0
44088,note_on,,,,,2,0,13,,,,14,,67,75
44088,note_on,,,,,2,0,4,,,,3,,74,62
44088,note_on,,,,,2,0,9,,,,8,,74,75
44098,note_off,,,,,10,0,13,,,,14,,67,0
44098,note_off,,,,,10,0,9,,,,8,,74,0
44098,note_off,,,,,10,0,4,,,,3,,74,0
44100,note_on,,,,,2,0,9,,,,8,,72,75
44100,note_on,,,,,2,0,13,,,,14,,65,75
44100,note_off,,,,,132,0,5,,,,4,,67,0
44100,note_off,,,,,132,0,3,,,,2,,76,0
44100,note_on,,,,,2,0,4,,,,3,,72,62
44100,note_off,,,,,132,0,7,,,,6,,76,0
44100,note_off,,,,,132,0,8,,,,7,,76,0
44106,note_off,,,,,42,0,2,,,,1,,60,0
44106,note_off,,,,,42,0,1,,,,0,,67,0
44110,note_off,,,,,10,0,9,,,,8,,72,0
44110,note_off,,,,,10,0,13,,,,14,,65,0
44110,note_off,,,,,10,0,4,,,,3,,72,0
44112,note_on,,,,,2,0,9,,,,8,,72,75
44112,note_on,,,,,12,0,8,,,,7,,77,75
44112,note_on,,,,,12,0,7,,,,6,,77,75
44112,note_on,,,,,2,0,4,,,,3,,72,62
44112,note_on,,,,,6,0,2,,,,1,,60,127
44112,note_on,,,,,12,0,5,,,,4,,69,62
44112,note_on,,,,,2,0,13,,,,14,,69,75
44112,note_on,,,,,6,0,1,,,,0,,69,127
44112,note_on,,,,,12,0,3,,,,2,,77,62
44148,note_off,,,,,84,0,11,,,,12,,24,0
44148,note_off,,,,,0,0,12,,,,13,,67,0
44148,note_off,,,,,84,0,10,,,,11,,36,0
44148,note_off,,,,,84,0,6,,,,5,,36,0
44148,note_off,,,,,84,0,12,,,,13,,64,0
44148,note_off,,,,,0,0,12,,,,13,,36,0
44154,note_off,,,,,42,0,3,,,,2,,77,0
44154,note_off,,,,,42,0,4,,,,3,,72,0
44154,note_off,,,,,42,0,7,,,,6,,77,0
44154,note_off,,,,,42,0,1,,,,0,,69,0
44154,note_off,,,,,42,0,5,,,,4,,69,0
44154,note_off,,,,,42,0,2,,,,1,,60,0
44154,note_off,,,,,42,0,9,,,,8,,72,0
44154,note_off,,,,,42,0,13,,,,14,,69,0
44154,note_off,,,,,42,0,8,,,,7,,77,0
44160,note_on,,,,,12,0,12,,,,13,,60,96
44160,note_on,,,,,12,0,11,,,,12,,29,49
44160,note_on,,,,,6,0,5,,,,4,,69,62
44160,note_on,,,,,12,0,10,,,,11,,41,49
44160,note_on,,,,,6,0,9,,,,8,,72,75
44160,note_on,,,,,6,0,3,,,,2,,77,62
44160,note_on,,,,,6,0,4,,,,3,,72,62
44160,note_on,,,,,6,0,7,,,,6,,77,75
44160,note_on,,,,,6,0,8,,,,7,,77,75
44160,note_on,,,,,6,0,1,,,,0,,65,127
44160,note_on,,,,,0,0,12,,,,13,,69,96
44160,note_on,,,,,0,0,12,,,,13,,41,96
44160,note_on,,,,,6,0,2,,,,1,,57,127
44160,note_on,,,,,6,0,13,,,,14,,69,75
44160,note_on,,,,,12,0,6,,,,5,,41,49
44340,note_off,,,,,180,0,9,,,,8,,72,0
44436,note_off,,,,,276,0,13,,,,14,,69,0
44436,note_off,,,,,276,0,11,,,,12,,29,0
44436,note_off,,,,,276,0,1,,,,0,,65,0
44436,note_off,,,,,0,0,12,,,,13,,60,0
44436,note_off,,,,,276,0,10,,,,11,,41,0
44436,note_off,,,,,276,0,12,,,,13,,41,0
44436,note_off,,,,,276,0,8,,,,7,,77,0
44436,note_off,,,,,276,0,3,,,,2,,77,0
44436,note_off,,,,,0,0,12,,,,13,,69,0
44436,note_off,,,,,276,0,4,,,,3,,72,0
44436,note_off,,,,,276,0,6,,,,5,,41,0
44436,note_off,,,,,276,0,2,,,,1,,57,0
44436,note_off,,,,,276,0,7,,,,6,,77,0
44436,note_off,,,,,276,0,5,,,,4,,69,0
44736,end_of_track,,,,,0,1,11,,,,,,,
44736,set_tempo,,,,,300,1,8,1000000,,,,,,
44736,end_of_track,,,,,0,1,7,,,,,,,
44736,set_tempo,,,,,300,1,7,1000000,,,,,,
44736,set_tempo,,,,,300,1,12,1000000,,,,,,
44736,set_tempo,,,,,300,1,11,1000000,,,,,,
44736,end_of_track,,,,,0,1,1,,,,,,,
44736,set_tempo,,,,,300,1,2,1000000,,,,,,
44736,end_of_track,,,,,0,1,3,,,,,,,
44736,set_tempo,,,,,300,1,1,1000000,,,,,,
44736,set_tempo,,,,,396,1,9,1000000,,,,,,
44736,set_tempo,,,,,300,1,4,1000000,,,,,,
44736,end_of_track,,,,,0,1,4,,,,,,,
44736,set_tempo,,,,,300,1,5,1000000,,,,,,
44736,end_of_track,,,,,0,1,5,,,,,,,
44736,set_tempo,,,,,300,1,13,1000000,,,,,,
44736,set_tempo,,,,,300,1,6,1000000,,,,,,
44736,end_of_track,,,,,0,1,0,,,,,,,
44736,set_tempo,,,,,14112,1,0,1000000,,,,,,
44736,end_of_track,,,,,0,1,6,,,,,,,
44736,set_tempo,,,,,300,1,10,1000000,,,,,,
44736,end_of_track,,,,,0,1,10,,,,,,,
44736,end_of_track,,,,,0,1,2,,,,,,,
44736,set_tempo,,,,,300,1,3,1000000,,,,,,
44832,note_on,,,,,96,0,9,,,,8,,57,75
44832,note_on,,,,,96,0,13,,,,14,,53,75
44832,note_on,,,,,96,0,12,,,,13,,60,127
44832,note_on,,,,,0,0,12,,,,13,,69,127
44832,note_on,,,,,0,0,12,,,,13,,41,127
44832,note_on,,,,,96,0,8,,,,7,,60,75
44874,note_off,,,,,42,0,12,,,,13,,60,0
44874,note_off,,,,,42,0,9,,,,8,,57,0
44874,note_off,,,,,42,0,13,,,,14,,53,0
44874,note_off,,,,,0,0,12,,,,13,,41,0
44874,note_off,,,,,42,0,8,,,,7,,60,0
44874,note_off,,,,,0,0,12,,,,13,,69,0
44880,note_on,,,,,6,0,13,,,,14,,57,75
44880,note_on,,,,,6,0,8,,,,7,,65,75
44880,note_on,,,,,0,0,12,,,,13,,41,127
44880,note_on,,,,,6,0,9,,,,8,,60,75
44880,note_on,,,,,0,0,12,,,,13,,69,127
44880,note_on,,,,,6,0,12,,,,13,,60,127
44901,note_off,,,,,21,0,8,,,,7,,65,0
44904,note_on,,,,,3,0,8,,,,7,,69,75
44922,note_off,,,,,42,0,12,,,,13,,60,0
44922,note_off,,,,,42,0,9,,,,8,,60,0
44922,note_off,,,,,42,0,13,,,,14,,57,0
44922,note_off,,,,,0,0,12,,,,13,,69,0
44922,note_off,,,,,0,0,12,,,,13,,41,0
44925,note_off,,,,,21,0,8,,,,7,,69,0
44928,note_on,,,,,3,0,8,,,,7,,67,75
44928,note_on,,,,,6,0,9,,,,8,,64,75
44928,note_on,,,,,6,0,13,,,,14,,58,75
44928,note_on,,,,,0,0,12,,,,13,,41,127
44928,note_on,,,,,0,0,12,,,,13,,67,127
44928,note_on,,,,,6,0,12,,,,13,,58,127
44949,note_off,,,,,21,0,8,,,,7,,67,0
44952,note_on,,,,,3,0,8,,,,7,,64,75
44970,note_off,,,,,42,0,9,,,,8,,64,0
44970,note_off,,,,,42,0,12,,,,13,,58,0
44970,note_off,,,,,0,0,12,,,,13,,67,0
44970,note_off,,,,,42,0,13,,,,14,,58,0
44970,note_off,,,,,0,0,12,,,,13,,41,0
44973,note_off,,,,,21,0,8,,,,7,,64,0
44976,note_on,,,,,6,0,13,,,,14,,57,75
44976,note_on,,,,,3,0,8,,,,7,,65,75
44976,note_on,,,,,6,0,12,,,,13,,60,127
44976,note_on,,,,,6,0,9,,,,8,,60,75
44976,note_on,,,,,0,0,12,,,,13,,41,127
44976,note_on,,,,,0,0,12,,,,13,,69,127
44997,note_off,,,,,21,0,8,,,,7,,65,0
45000,note_on,,,,,3,0,8,,,,7,,60,75
45018,note_off,,,,,42,0,13,,,,14,,57,0
45018,note_off,,,,,0,0,12,,,,13,,41,0
45018,note_off,,,,,42,0,12,,,,13,,60,0
45018,note_off,,,,,0,0,12,,,,13,,69,0
45018,note_off,,,,,42,0,9,,,,8,,60,0
45021,note_off,,,,,21,0,8,,,,7,,60,0
45024,note_on,,,,,3,0,8,,,,7,,67,75
45024,note_on,,,,,6,0,13,,,,14,,58,75
45024,note_on,,,,,6,0,9,,,,8,,64,75
45024,note_on,,,,,6,0,12,,,,13,,58,127
45024,note_on,,,,,0,0,12,,,,13,,67,127
45024,note_on,,,,,0,0,12,,,,13,,41,127
45045,note_off,,,,,21,0,8,,,,7,,67,0
45048,note_on,,,,,3,0,8,,,,7,,70,75
45066,note_off,,,,,42,0,13,,,,14,,58,0
45066,note_off,,,,,42,0,9,,,,8,,64,0
45066,note_off,,,,,0,0,12,,,,13,,41,0
45066,note_off,,,,,0,0,12,,,,13,,67,0
45066,note_off,,,,,42,0,12,,,,13,,58,0
45069,note_off,,,,,21,0,8,,,,7,,70,0
45072,note_on,,,,,6,0,13,,,,14,,60,75
45072,note_on,,,,,6,0,9,,,,8,,65,75
45072,note_on,,,,,3,0,8,,,,7,,69,75
45072,note_on,,,,,6,0,12,,,,13,,60,127
45072,note_on,,,,,0,0,12,,,,13,,69,127
45072,note_on,,,,,0,0,12,,,,13,,41,127
45093,note_off,,,,,21,0,8,,,,7,,69,0
45096,note_on,,,,,3,0,8,,,,7,,65,75
45114,note_off,,,,,42,0,13,,,,14,,60,0
45114,note_off,,,,,42,0,12,,,,13,,60,0
45114,note_off,,,,,42,0,9,,,,8,,65,0
45114,note_off,,,,,0,0,12,,,,13,,41,0
45114,note_off,,,,,0,0,12,,,,13,,69,0
45117,note_off,,,,,21,0,8,,,,7,,65,0
45120,note_on,,,,,6,0,13,,,,14,,58,75
45120,note_on,,,,,3,0,8,,,,7,,67,75
45120,note_on,,,,,6,0,12,,,,13,,58,127
45120,note_on,,,,,0,0,12,,,,13,,67,127
45120,note_on,,,,,0,0,12,,,,13,,41,127
45120,note_on,,,,,6,0,9,,,,8,,64,75
45141,note_off,,,,,21,0,8,,,,7,,67,0
45144,note_on,,,,,3,0,8,,,,7,,60,75
45162,note_off,,,,,42,0,12,,,,13,,58,0
45162,note_off,,,,,0,0,12,,,,13,,67,0
45162,note_off,,,,,0,0,12,,,,13,,41,0
45162,note_off,,,,,42,0,9,,,,8,,64,0
45162,note_off,,,,,42,0,13,,,,14,,58,0
45165,note_off,,,,,21,0,8,,,,7,,60,0
45168,note_on,,,,,3,0,8,,,,7,,69,75
45168,note_on,,,,,6,0,12,,,,13,,60,127
45168,note_on,,,,,0,0,12,,,,13,,69,127
45168,note_on,,,,,0,0,12,,,,13,,41,127
45168,note_on,,,,,6,0,9,,,,8,,65,75
45168,note_on,,,,,6,0,13,,,,14,,60,75
45189,note_off,,,,,21,0,8,,,,7,,69,0
45192,note_on,,,,,3,0,8,,,,7,,72,75
45210,note_off,,,,,42,0,13,,,,14,,60,0
45210,note_off,,,,,0,0,12,,,,13,,69,0
45210,note_off,,,,,0,0,12,,,,13,,41,0
45210,note_off,,,,,42,0,12,,,,13,,60,0
45210,note_off,,,,,42,0,9,,,,8,,65,0
45213,note_off,,,,,21,0,8,,,,7,,72,0
45216,note_on,,,,,6,0,13,,,,14,,64,75
45216,note_on,,,,,6,0,9,,,,8,,67,75
45216,note_on,,,,,6,0,12,,,,13,,58,127
45216,note_on,,,,,3,0,8,,,,7,,70,75
45216,note_on,,,,,0,0,12,,,,13,,67,127
45216,note_on,,,,,0,0,12,,,,13,,41,127
45237,note_off,,,,,21,0,8,,,,7,,70,0
45240,note_on,,,,,3,0,8,,,,7,,67,75
45258,note_off,,,,,42,0,12,,,,13,,58,0
45258,note_off,,,,,42,0,9,,,,8,,67,0
45258,note_off,,,,,42,0,13,,,,14,,64,0
45258,note_off,,,,,0,0,12,,,,13,,67,0
45258,note_off,,,,,0,0,12,,,,13,,41,0
45261,note_off,,,,,21,0,8,,,,7,,67,0
45264,note_on,,,,,0,0,12,,,,13,,67,127
45264,note_on,,,,,0,0,12,,,,13,,41,127
45264,note_on,,,,,6,0,13,,,,14,,60,75
45264,note_on,,,,,6,0,9,,,,8,,65,75
45264,note_on,,,,,3,0,8,,,,7,,69,75
45264,note_on,,,,,6,0,12,,,,13,,60,127
45285,note_off,,,,,21,0,8,,,,7,,69,0
45288,note_on,,,,,3,0,8,,,,7,,65,75
45306,note_off,,,,,42,0,13,,,,14,,60,0
45306,note_off,,,,,42,0,9,,,,8,,65,0
45306,note_off,,,,,0,0,12,,,,13,,67,0
45306,note_off,,,,,0,0,12,,,,13,,41,0
45306,note_off,,,,,42,0,12,,,,13,,60,0
45309,note_off,,,,,21,0,8,,,,7,,65,0
45312,note_on,,,,,3,0,8,,,,7,,70,75
45312,note_on,,,,,6,0,9,,,,8,,67,75
45312,note_on,,,,,0,0,12,,,,13,,41,127
45312,note_on,,,,,0,0,12,,,,13,,67,127
45312,note_on,,,,,6,0,13,,,,14,,64,75
45312,note_on,,,,,6,0,12,,,,13,,58,127
45354,note_off,,,,,42,0,13,,,,14,,64,0
45354,note_off,,,,,42,0,9,,,,8,,67,0
45354,note_off,,,,,42,0,8,,,,7,,70,0
45354,note_off,,,,,0,0,12,,,,13,,67,0
45354,note_off,,,,,42,0,12,,,,13,,58,0
45354,note_off,,,,,0,0,12,,,,13,,41,0
45360,note_on,,,,,0,0,12,,,,13,,67,127
45360,note_on,,,,,6,0,9,,,,8,,67,75
45360,note_on,,,,,6,0,8,,,,7,,70,75
45360,note_on,,,,,6,0,12,,,,13,,58,127
45360,note_on,,,,,6,0,13,,,,14,,64,75
45360,note_on,,,,,0,0,12,,,,13,,41,127
45402,note_off,,,,,42,0,9,,,,8,,67,0
45402,note_off,,,,,42,0,13,,,,14,,64,0
45402,note_off,,,,,0,0,12,,,,13,,67,0
45402,note_off,,,,,0,0,12,,,,13,,41,0
45402,note_off,,,,,42,0,12,,,,13,,58,0
45408,note_on,,,,,6,0,13,,,,14,,64,75
45408,note_on,,,,,6,0,12,,,,13,,58,127
45408,note_on,,,,,0,0,12,,,,13,,67,127
45408,note_on,,,,,6,0,9,,,,8,,67,75
45408,note_on,,,,,0,0,12,,,,13,,41,127
45423,note_off,,,,,63,0,8,,,,7,,70,0
45432,note_on,,,,,9,0,8,,,,7,,67,75
45450,note_off,,,,,42,0,13,,,,14,,64,0
45450,note_off,,,,,0,0,12,,,,13,,41,0
45450,note_off,,,,,42,0,9,,,,8,,67,0
45450,note_off,,,,,42,0,12,,,,13,,58,0
45450,note_off,,,,,0,0,12,,,,13,,67,0
45453,note_off,,,,,21,0,8,,,,7,,67,0
45456,note_on,,,,,3,0,8,,,,7,,69,75
45456,note_on,,,,,6,0,12,,,,13,,60,127
45456,note_on,,,,,0,0,12,,,,13,,69,127
45456,note_on,,,,,6,0,9,,,,8,,65,75
45456,note_on,,,,,0,0,12,,,,13,,41,127
45456,note_on,,,,,6,0,13,,,,14,,60,75
45477,note_off,,,,,21,0,8,,,,7,,69,0
45480,note_on,,,,,3,0,8,,,,7,,65,75
45498,note_off,,,,,0,0,12,,,,13,,41,0
45498,note_off,,,,,0,0,12,,,,13,,69,0
45498,note_off,,,,,42,0,12,,,,13,,60,0
45498,note_off,,,,,42,0,13,,,,14,,60,0
45498,note_off,,,,,42,0,9,,,,8,,65,0
45501,note_off,,,,,21,0,8,,,,7,,65,0
45504,note_on,,,,,0,0,12,,,,13,,41,127
45504,note_on,,,,,6,0,13,,,,14,,57,75
45504,note_on,,,,,3,0,8,,,,7,,72,75
45504,note_on,,,,,6,0,9,,,,8,,65,75
45504,note_on,,,,,0,0,12,,,,13,,69,127
45504,note_on,,,,,6,0,12,,,,13,,60,127
45546,note_off,,,,,42,0,13,,,,14,,57,0
45546,note_off,,,,,0,0,12,,,,13,,41,0
45546,note_off,,,,,0,0,12,,,,13,,69,0
45546,note_off,,,,,42,0,12,,,,13,,60,0
45546,note_off,,,,,42,0,9,,,,8,,65,0
45552,note_on,,,,,6,0,12,,,,13,,58,127
45552,note_on,,,,,0,0,12,,,,13,,41,127
45552,note_on,,,,,6,0,9,,,,8,,64,75
45552,note_on,,,,,6,0,13,,,,14,,58,75
45552,note_on,,,,,0,0,12,,,,13,,67,127
45567,note_off,,,,,63,0,8,,,,7,,72,0
45576,note_on,,,,,9,0,8,,,,7,,67,75
45594,note_off,,,,,0,0,12,,,,13,,41,0
45594,note_off,,,,,42,0,13,,,,14,,58,0
45594,note_off,,,,,0,0,12,,,,13,,67,0
45594,note_off,,,,,42,0,9,,,,8,,64,0
45594,note_off,,,,,42,0,12,,,,13,,58,0
45597,note_off,,,,,21,0,8,,,,7,,67,0
45600,note_on,,,,,0,0,12,,,,13,,41,127
45600,note_on,,,,,0,0,12,,,,13,,69,127
45600,note_on,,,,,6,0,12,,,,13,,60,127
45600,note_on,,,,,3,0,8,,,,7,,69,75
45600,note_on,,,,,6,0,13,,,,14,,60,75
45600,note_on,,,,,6,0,9,,,,8,,65,75
45621,note_off,,,,,21,0,8,,,,7,,69,0
45624,note_on,,,,,3,0,8,,,,7,,65,75
45642,note_off,,,,,42,0,9,,,,8,,65,0
45642,note_off,,,,,42,0,13,,,,14,,60,0
45642,note_off,,,,,42,0,12,,,,13,,60,0
45642,note_off,,,,,0,0,12,,,,13,,69,0
45642,note_off,,,,,0,0,12,,,,13,,41,0
45645,note_off,,,,,21,0,8,,,,7,,65,0
45648,note_on,,,,,0,0,12,,,,13,,41,127
45648,note_on,,,,,0,0,12,,,,13,,67,127
45648,note_on,,,,,6,0,12,,,,13,,58,127
45648,note_on,,,,,3,0,8,,,,7,,67,75
45648,note_on,,,,,6,0,9,,,,8,,64,75
45648,note_on,,,,,6,0,13,,,,14,,58,75
45690,note_off,,,,,42,0,9,,,,8,,64,0
45690,note_off,,,,,42,0,12,,,,13,,58,0
45690,note_off,,,,,42,0,13,,,,14,,58,0
45690,note_off,,,,,0,0,12,,,,13,,67,0
45690,note_off,,,,,0,0,12,,,,13,,41,0
45696,note_on,,,,,6,0,9,,,,8,,58,75
45696,note_on,,,,,6,0,12,,,,13,,58,127
45696,note_on,,,,,0,0,12,,,,13,,67,127
45696,note_on,,,,,6,0,13,,,,14,,55,75
45696,note_on,,,,,0,0,12,,,,13,,41,127
45711,note_off,,,,,63,0,8,,,,7,,67,0
45720,note_on,,,,,9,0,8,,,,7,,64,75
45738,note_off,,,,,42,0,13,,,,14,,55,0
45738,note_off,,,,,42,0,9,,,,8,,58,0
45738,note_off,,,,,0,0,12,,,,13,,41,0
45738,note_off,,,,,0,0,12,,,,13,,67,0
45738,note_off,,,,,42,0,12,,,,13,,58,0
45741,note_off,,,,,21,0,8,,,,7,,64,0
45744,note_on,,,,,6,0,12,,,,13,,60,127
45744,note_on,,,,,3,0,8,,,,7,,65,75
45744,note_on,,,,,6,0,9,,,,8,,60,75
45744,note_on,,,,,6,0,13,,,,14,,57,75
45744,note_on,,,,,0,0,12,,,,13,,69,127
45744,note_on,,,,,0,0,12,,,,13,,41,127
45765,note_off,,,,,21,0,8,,,,7,,65,0
45768,note_on,,,,,3,0,8,,,,7,,60,75
45786,note_off,,,,,42,0,9,,,,8,,60,0
45786,note_off,,,,,42,0,13,,,,14,,57,0
45786,note_off,,,,,42,0,12,,,,13,,60,0
45786,note_off,,,,,0,0,12,,,,13,,69,0
45786,note_off,,,,,0,0,12,,,,13,,41,0
45789,note_off,,,,,21,0,8,,,,7,,60,0
45792,note_on,,,,,6,0,9,,,,8,,60,75
45792,note_on,,,,,0,0,12,,,,13,,40,127
45792,note_on,,,,,6,0,12,,,,13,,67,127
45792,note_on,,,,,0,0,12,,,,13,,76,127
45792,note_on,,,,,3,0,8,,,,7,,70,75
45792,note_on,,,,,6,0,13,,,,14,,55,75
45813,note_off,,,,,21,0,8,,,,7,,70,0
45816,note_on,,,,,3,0,8,,,,7,,67,75
45834,note_off,,,,,42,0,9,,,,8,,60,0
45834,note_off,,,,,42,0,13,,,,14,,55,0
45834,note_off,,,,,0,0,12,,,,13,,40,0
45834,note_off,,,,,0,0,12,,,,13,,76,0
45834,note_off,,,,,42,0,12,,,,13,,67,0
45837,note_off,,,,,21,0,8,,,,7,,67,0
45840,note_on,,,,,0,0,12,,,,13,,69,127
45840,note_on,,,,,0,0,12,,,,13,,41,127
45840,note_on,,,,,6,0,13,,,,14,,53,75
45840,note_on,,,,,6,0,9,,,,8,,60,75
45840,note_on,,,,,3,0,8,,,,7,,69,75
45840,note_on,,,,,6,0,12,,,,13,,60,127
45861,note_off,,,,,21,0,8,,,,7,,69,0
45864,note_on,,,,,3,0,8,,,,7,,65,75
45882,note_off,,,,,42,0,13,,,,14,,53,0
45882,note_off,,,,,0,0,12,,,,13,,41,0
45882,note_off,,,,,0,0,12,,,,13,,69,0
45882,note_off,,,,,42,0,12,,,,13,,60,0
45882,note_off,,,,,42,0,9,,,,8,,60,0
45885,note_off,,,,,21,0,8,,,,7,,65,0
45888,note_on,,,,,3,0,8,,,,7,,67,75
45888,note_on,,,,,0,0,12,,,,13,,36,127
45888,note_on,,,,,0,0,12,,,,13,,76,127
45888,note_on,,,,,6,0,9,,,,8,,60,75
45888,note_on,,,,,6,0,13,,,,14,,52,75
45888,note_on,,,,,6,0,12,,,,13,,67,127
45930,note_off,,,,,42,0,13,,,,14,,52,0
45930,note_off,,,,,42,0,12,,,,13,,67,0
45930,note_off,,,,,0,0,12,,,,13,,76,0
45930,note_off,,,,,0,0,12,,,,13,,36,0
45930,note_off,,,,,42,0,9,,,,8,,60,0
45930,note_off,,,,,42,0,8,,,,7,,67,0
45936,note_on,,,,,6,0,12,,,,13,,65,127
45936,note_on,,,,,0,0,12,,,,13,,38,127
45936,note_on,,,,,0,0,12,,,,13,,71,127
45936,note_on,,,,,6,0,9,,,,8,,59,75
45936,note_on,,,,,6,0,13,,,,14,,53,75
45936,note_on,,,,,6,0,8,,,,7,,65,75
45957,note_off,,,,,21,0,8,,,,7,,65,0
45960,note_on,,,,,3,0,8,,,,7,,64,75
45978,note_off,,,,,42,0,9,,,,8,,59,0
45978,note_off,,,,,42,0,13,,,,14,,53,0
45978,note_off,,,,,42,0,12,,,,13,,65,0
45978,note_off,,,,,0,0,12,,,,13,,71,0
45978,note_off,,,,,0,0,12,,,,13,,38,0
45981,note_off,,,,,21,0,8,,,,7,,64,0
45984,note_on,,,,,6,0,9,,,,8,,60,75
45984,note_on,,,,,6,0,12,,,,13,,60,127
45984,note_on,,,,,0,0,12,,,,13,,67,127
45984,note_on,,,,,0,0,12,,,,13,,40,127
45984,note_on,,,,,6,0,13,,,,14,,55,75
45984,note_on,,,,,3,0,8,,,,7,,62,75
46005,note_off,,,,,21,0,8,,,,7,,62,0
46008,note_on,,,,,3,0,8,,,,7,,60,75
46026,note_off,,,,,0,0,12,,,,13,,40,0
46026,note_off,,,,,42,0,9,,,,8,,60,0
46026,note_off,,,,,42,0,13,,,,14,,55,0
46026,note_off,,,,,42,0,12,,,,13,,60,0
46026,note_off,,,,,0,0,12,,,,13,,67,0
46029,note_off,,,,,21,0,8,,,,7,,60,0
46032,note_on,,,,,3,0,8,,,,7,,65,75
46032,note_on,,,,,6,0,9,,,,8,,60,75
46032,note_on,,,,,6,0,12,,,,13,,60,127
46032,note_on,,,,,6,0,13,,,,14,,57,75
46032,note_on,,,,,0,0,12,,,,13,,41,127
46032,note_on,,,,,0,0,12,,,,13,,69,127
46053,note_off,,,,,21,0,8,,,,7,,65,0
46056,note_on,,,,,3,0,8,,,,7,,69,75
46074,note_off,,,,,42,0,9,,,,8,,60,0
46074,note_off,,,,,42,0,13,,,,14,,57,0
46074,note_off,,,,,42,0,12,,,,13,,60,0
46074,note_off,,,,,0,0,12,,,,13,,69,0
46074,note_off,,,,,0,0,12,,,,13,,41,0
46077,note_off,,,,,21,0,8,,,,7,,69,0
46080,note_on,,,,,3,0,8,,,,7,,67,75
46080,note_on,,,,,6,0,9,,,,8,,64,75
46080,note_on,,,,,0,0,12,,,,13,,67,127
46080,note_on,,,,,0,0,12,,,,13,,41,127
46080,note_on,,,,,6,0,13,,,,14,,58,75
46080,note_on,,,,,6,0,12,,,,13,,58,127
46101,note_off,,,,,21,0,8,,,,7,,67,0
46104,note_on,,,,,3,0,8,,,,7,,64,75
46122,note_off,,,,,42,0,13,,,,14,,58,0
46122,note_off,,,,,42,0,9,,,,8,,64,0
46122,note_off,,,,,0,0,12,,,,13,,41,0
46122,note_off,,,,,0,0,12,,,,13,,67,0
46122,note_off,,,,,42,0,12,,,,13,,58,0
46125,note_off,,,,,21,0,8,,,,7,,64,0
46128,note_on,,,,,0,0,12,,,,13,,69,127
46128,note_on,,,,,0,0,12,,,,13,,41,127
46128,note_on,,,,,3,0,8,,,,7,,65,75
46128,note_on,,,,,6,0,9,,,,8,,60,75
46128,note_on,,,,,6,0,12,,,,13,,60,127
46128,note_on,,,,,6,0,13,,,,14,,57,75
46149,note_off,,,,,21,0,8,,,,7,,65,0
46152,note_on,,,,,3,0,8,,,,7,,60,75
46170,note_off,,,,,42,0,13,,,,14,,57,0
46170,note_off,,,,,42,0,9,,,,8,,60,0
46170,note_off,,,,,42,0,12,,,,13,,60,0
46170,note_off,,,,,0,0,12,,,,13,,69,0
46170,note_off,,,,,0,0,12,,,,13,,41,0
46173,note_off,,,,,21,0,8,,,,7,,60,0
46176,note_on,,,,,3,0,8,,,,7,,67,75
46176,note_on,,,,,0,0,12,,,,13,,67,127
46176,note_on,,,,,6,0,13,,,,14,,58,75
46176,note_on,,,,,0,0,12,,,,13,,41,127
46176,note_on,,,,,6,0,9,,,,8,,64,75
46176,note_on,,,,,6,0,12,,,,13,,58,127
46197,note_off,,,,,21,0,8,,,,7,,67,0
46200,note_on,,,,,3,0,8,,,,7,,70,75
46218,note_off,,,,,42,0,13,,,,14,,58,0
46218,note_off,,,,,42,0,12,,,,13,,58,0
46218,note_off,,,,,0,0,12,,,,13,,41,0
46218,note_off,,,,,0,0,12,,,,13,,67,0
46218,note_off,,,,,42,0,9,,,,8,,64,0
46221,note_off,,,,,21,0,8,,,,7,,70,0
46224,note_on,,,,,0,0,12,,,,13,,41,127
46224,note_on,,,,,0,0,12,,,,13,,69,127
46224,note_on,,,,,6,0,12,,,,13,,60,127
46224,note_on,,,,,6,0,13,,,,14,,60,75
46224,note_on,,,,,6,0,9,,,,8,,65,75
46224,note_on,,,,,3,0,8,,,,7,,69,75
46245,note_off,,,,,21,0,8,,,,7,,69,0
46248,note_on,,,,,3,0,8,,,,7,,65,75
46266,note_off,,,,,0,0,12,,,,13,,69,0
46266,note_off,,,,,42,0,13,,,,14,,60,0
46266,note_off,,,,,42,0,9,,,,8,,65,0
46266,note_off,,,,,0,0,12,,,,13,,41,0
46266,note_off,,,,,42,0,12,,,,13,,60,0
46269,note_off,,,,,21,0,8,,,,7,,65,0
46272,note_on,,,,,0,0,12,,,,13,,41,127
46272,note_on,,,,,6,0,12,,,,13,,58,127
46272,note_on,,,,,6,0,13,,,,14,,58,75
46272,note_on,,,,,3,0,8,,,,7,,67,75
46272,note_on,,,,,6,0,9,,,,8,,64,75
46272,note_on,,,,,0,0,12,,,,13,,67,127
46293,note_off,,,,,21,0,8,,,,7,,67,0
46296,note_on,,,,,3,0,8,,,,7,,60,75
46314,note_off,,,,,0,0,12,,,,13,,41,0
46314,note_off,,,,,42,0,9,,,,8,,64,0
46314,note_off,,,,,42,0,13,,,,14,,58,0
46314,note_off,,,,,0,0,12,,,,13,,67,0
46314,note_off,,,,,42,0,12,,,,13,,58,0
46317,note_off,,,,,21,0,8,,,,7,,60,0
46320,note_on,,,,,0,0,12,,,,13,,41,127
46320,note_on,,,,,0,0,12,,,,13,,69,127
46320,note_on,,,,,6,0,12,,,,13,,60,127
46320,note_on,,,,,6,0,9,,,,8,,65,75
46320,note_on,,,,,3,0,8,,,,7,,69,75
46320,note_on,,,,,6,0,13,,,,14,,60,75
46341,note_off,,,,,21,0,8,,,,7,,69,0
46344,note_on,,,,,3,0,8,,,,7,,72,75
46362,note_off,,,,,0,0,12,,,,13,,69,0
46362,note_off,,,,,0,0,12,,,,13,,41,0
46362,note_off,,,,,42,0,12,,,,13,,60,0
46362,note_off,,,,,42,0,13,,,,14,,60,0
46362,note_off,,,,,42,0,9,,,,8,,65,0
46365,note_off,,,,,21,0,8,,,,7,,72,0
46368,note_on,,,,,0,0,12,,,,13,,41,127
46368,note_on,,,,,6,0,9,,,,8,,67,75
46368,note_on,,,,,0,0,12,,,,13,,67,127
46368,note_on,,,,,6,0,13,,,,14,,64,75
46368,note_on,,,,,3,0,8,,,,7,,70,75
46368,note_on,,,,,6,0,12,,,,13,,58,127
46389,note_off,,,,,21,0,8,,,,7,,70,0
46392,note_on,,,,,3,0,8,,,,7,,67,75
46410,note_off,,,,,0,0,12,,,,13,,41,0
46410,note_off,,,,,0,0,12,,,,13,,67,0
46410,note_off,,,,,42,0,13,,,,14,,64,0
46410,note_off,,,,,42,0,12,,,,13,,58,0
46410,note_off,,,,,42,0,9,,,,8,,67,0
46413,note_off,,,,,21,0,8,,,,7,,67,0
46416,note_on,,,,,6,0,13,,,,14,,60,75
46416,note_on,,,,,3,0,8,,,,7,,69,75
46416,note_on,,,,,0,0,12,,,,13,,41,127
46416,note_on,,,,,0,0,12,,,,13,,69,127
46416,note_on,,,,,6,0,12,,,,13,,60,127
46416,note_on,,,,,6,0,9,,,,8,,65,75
46437,note_off,,,,,21,0,8,,,,7,,69,0
46440,note_on,,,,,3,0,8,,,,7,,65,75
46458,note_off,,,,,42,0,12,,,,13,,60,0
46458,note_off,,,,,0,0,12,,,,13,,41,0
46458,note_off,,,,,42,0,13,,,,14,,60,0
46458,note_off,,,,,0,0,12,,,,13,,69,0
46458,note_off,,,,,42,0,9,,,,8,,65,0
46461,note_off,,,,,21,0,8,,,,7,,65,0
46464,note_on,,,,,3,0,8,,,,7,,71,75
46464,note_on,,,,,6,0,12,,,,13,,62,127
46464,note_on,,,,,6,0,13,,,,14,,62,75
46464,note_on,,,,,0,0,12,,,,13,,71,127
46464,note_on,,,,,0,0,12,,,,13,,41,127
46464,note_on,,,,,6,0,9,,,,8,,67,75
46506,note_off,,,,,42,0,9,,,,8,,67,0
46506,note_off,,,,,42,0,12,,,,13,,62,0
46506,note_off,,,,,42,0,13,,,,14,,62,0
46506,note_off,,,,,42,0,8,,,,7,,71,0
46506,note_off,,,,,0,0,12,,,,13,,71,0
46506,note_off,,,,,0,0,12,,,,13,,41,0
46512,note_on,,,,,6,0,12,,,,13,,62,127
46512,note_on,,,,,0,0,12,,,,13,,71,127
46512,note_on,,,,,6,0,13,,,,14,,62,75
46512,note_on,,,,,6,0,8,,,,7,,71,75
46512,note_on,,,,,0,0,12,,,,13,,41,127
46512,note_on,,,,,6,0,9,,,,8,,67,75
46554,note_off,,,,,42,0,12,,,,13,,62,0
46554,note_off,,,,,0,0,12,,,,13,,41,0
46554,note_off,,,,,42,0,9,,,,8,,67,0
46554,note_off,,,,,42,0,13,,,,14,,62,0
46554,note_off,,,,,0,0,12,,,,13,,71,0
46560,note_on,,,,,6,0,13,,,,14,,62,75
46560,note_on,,,,,6,0,9,,,,8,,67,75
46560,note_on,,,,,6,0,12,,,,13,,62,127
46560,note_on,,,,,0,0,12,,,,13,,71,127
46560,note_on,,,,,0,0,12,,,,13,,41,127
46575,note_off,,,,,63,0,8,,,,7,,71,0
46584,note_on,,,,,9,0,8,,,,7,,67,75
46602,note_off,,,,,42,0,9,,,,8,,67,0
46602,note_off,,,,,42,0,12,,,,13,,62,0
46602,note_off,,,,,0,0,12,,,,13,,71,0
46602,note_off,,,,,0,0,12,,,,13,,41,0
46602,note_off,,,,,42,0,13,,,,14,,62,0
46605,note_off,,,,,21,0,8,,,,7,,67,0
46608,note_on,,,,,0,0,12,,,,13,,41,127
46608,note_on,,,,,3,0,8,,,,7,,74,75
46608,note_on,,,,,6,0,9,,,,8,,71,75
46608,note_on,,,,,6,0,12,,,,13,,62,127
46608,note_on,,,,,0,0,12,,,,13,,71,127
46608,note_on,,,,,6,0,13,,,,14,,67,75
46629,note_off,,,,,21,0,8,,,,7,,74,0
46632,note_on,,,,,3,0,8,,,,7,,71,75
46650,note_off,,,,,0,0,12,,,,13,,41,0
46650,note_off,,,,,42,0,9,,,,8,,71,0
46650,note_off,,,,,42,0,12,,,,13,,62,0
46650,note_off,,,,,42,0,13,,,,14,,67,0
46650,note_off,,,,,0,0,12,,,,13,,71,0
46653,note_off,,,,,21,0,8,,,,7,,71,0
46656,note_on,,,,,6,0,12,,,,13,,62,127
46656,note_on,,,,,0,0,12,,,,13,,41,127
46656,note_on,,,,,0,0,12,,,,13,,71,127
46656,note_on,,,,,6,0,13,,,,14,,62,75
46656,note_on,,,,,6,0,9,,,,8,,71,75
46656,note_on,,,,,3,0,8,,,,7,,77,75
46677,note_off,,,,,21,0,8,,,,7,,77,0
46680,note_on,,,,,3,0,8,,,,7,,74,75
46698,note_off,,,,,42,0,13,,,,14,,62,0
46698,note_off,,,,,0,0,12,,,,13,,41,0
46698,note_off,,,,,0,0,12,,,,13,,71,0
46698,note_off,,,,,42,0,12,,,,13,,62,0
46698,note_off,,,,,42,0,9,,,,8,,71,0
46701,note_off,,,,,21,0,8,,,,7,,74,0
46704,note_on,,,,,0,0,12,,,,13,,41,127
46704,note_on,,,,,0,0,12,,,,13,,67,127
46704,note_on,,,,,6,0,12,,,,13,,60,127
46704,note_on,,,,,6,0,9,,,,8,,72,75
46704,note_on,,,,,3,0,8,,,,7,,76,75
46704,note_on,,,,,6,0,13,,,,14,,60,75
46725,note_off,,,,,21,0,8,,,,7,,76,0
46728,note_on,,,,,3,0,8,,,,7,,72,75
46746,note_off,,,,,42,0,9,,,,8,,72,0
46746,note_off,,,,,0,0,12,,,,13,,41,0
46746,note_off,,,,,42,0,13,,,,14,,60,0
46746,note_off,,,,,42,0,12,,,,13,,60,0
46746,note_off,,,,,0,0,12,,,,13,,67,0
46749,note_off,,,,,21,0,8,,,,7,,72,0
46752,note_on,,,,,6,0,9,,,,8,,71,75
46752,note_on,,,,,0,0,12,,,,13,,67,127
46752,note_on,,,,,6,0,12,,,,13,,59,127
46752,note_on,,,,,0,0,12,,,,13,,41,127
46752,note_on,,,,,6,0,13,,,,14,,67,75
46752,note_on,,,,,3,0,8,,,,7,,74,75
46773,note_off,,,,,21,0,8,,,,7,,74,0
46776,note_on,,,,,3,0,8,,,,7,,71,75
46794,note_off,,,,,42,0,9,,,,8,,71,0
46794,note_off,,,,,42,0,13,,,,14,,67,0
46794,note_off,,,,,0,0,12,,,,13,,67,0
46794,note_off,,,,,42,0,12,,,,13,,59,0
46794,note_off,,,,,0,0,12,,,,13,,41,0
46797,note_off,,,,,21,0,8,,,,7,,71,0
46800,note_on,,,,,6,0,12,,,,13,,60,127
46800,note_on,,,,,0,0,12,,,,13,,69,127
46800,note_on,,,,,0,0,12,,,,13,,41,127
46800,note_on,,,,,3,0,8,,,,7,,72,75
46800,note_on,,,,,6,0,9,,,,8,,69,75
46800,note_on,,,,,6,0,13,,,,14,,64,75
46821,note_off,,,,,21,0,8,,,,7,,72,0
46824,note_on,,,,,3,0,8,,,,7,,69,75
46842,note_off,,,,,42,0,9,,,,8,,69,0
46842,note_off,,,,,42,0,13,,,,14,,64,0
46842,note_off,,,,,0,0,12,,,,13,,41,0
46842,note_off,,,,,0,0,12,,,,13,,69,0
46842,note_off,,,,,42,0,12,,,,13,,60,0
46845,note_off,,,,,21,0,8,,,,7,,69,0
46848,note_on,,,,,6,0,13,,,,14,,62,75
46848,note_on,,,,,3,0,8,,,,7,,71,75
46848,note_on,,,,,0,0,12,,,,13,,41,127
46848,note_on,,,,,0,0,12,,,,13,,67,127
46848,note_on,,,,,6,0,12,,,,13,,62,127
46848,note_on,,,,,6,0,9,,,,8,,67,75
46869,note_off,,,,,21,0,8,,,,7,,71,0
46872,note_on,,,,,3,0,8,,,,7,,67,75
46890,note_off,,,,,42,0,13,,,,14,,62,0
46890,note_off,,,,,0,0,12,,,,13,,41,0
46890,note_off,,,,,42,0,12,,,,13,,62,0
46890,note_off,,,,,0,0,12,,,,13,,67,0
46890,note_off,,,,,42,0,9,,,,8,,67,0
46893,note_off,,,,,21,0,8,,,,7,,67,0
46896,note_on,,,,,0,0,12,,,,13,,40,127
46896,note_on,,,,,0,0,12,,,,13,,67,127
46896,note_on,,,,,6,0,12,,,,13,,60,127
46896,note_on,,,,,6,0,13,,,,14,,60,75
46896,note_on,,,,,3,0,8,,,,7,,79,75
46896,note_on,,,,,6,0,9,,,,8,,67,75
46938,note_off,,,,,0,0,12,,,,13,,40,0
46938,note_off,,,,,0,0,12,,,,13,,67,0
46938,note_off,,,,,42,0,9,,,,8,,67,0
46938,note_off,,,,,42,0,8,,,,7,,79,0
46938,note_off,,,,,42,0,12,,,,13,,60,0
46938,note_off,,,,,42,0,13,,,,14,,60,0
46944,note_on,,,,,6,0,13,,,,14,,60,75
46944,note_on,,,,,6,0,12,,,,13,,60,127
46944,note_on,,,,,0,0,12,,,,13,,69,127
46944,note_on,,,,,0,0,12,,,,13,,41,127
46944,note_on,,,,,6,0,9,,,,8,,69,75
46944,note_on,,,,,6,0,8,,,,7,,77,75
46965,note_off,,,,,21,0,8,,,,7,,77,0
46965,note_off,,,,,21,0,9,,,,8,,69,0
46968,note_on,,,,,3,0,9,,,,8,,67,75
46968,note_on,,,,,3,0,8,,,,7,,76,75
46986,note_off,,,,,42,0,12,,,,13,,60,0
46986,note_off,,,,,0,0,12,,,,13,,69,0
46986,note_off,,,,,42,0,13,,,,14,,60,0
46986,note_off,,,,,0,0,12,,,,13,,41,0
46989,note_off,,,,,21,0,8,,,,7,,76,0
46989,note_off,,,,,21,0,9,,,,8,,67,0
46992,note_on,,,,,3,0,8,,,,7,,74,75
46992,note_on,,,,,6,0,12,,,,13,,62,127
46992,note_on,,,,,3,0,9,,,,8,,65,75
46992,note_on,,,,,6,0,13,,,,14,,59,75
46992,note_on,,,,,0,0,12,,,,13,,43,127
46992,note_on,,,,,0,0,12,,,,13,,71,127
47013,note_off,,,,,21,0,8,,,,7,,74,0
47013,note_off,,,,,21,0,9,,,,8,,65,0
47016,note_on,,,,,3,0,9,,,,8,,64,75
47016,note_on,,,,,3,0,8,,,,7,,72,75
47034,note_off,,,,,42,0,12,,,,13,,62,0
47034,note_off,,,,,42,0,13,,,,14,,59,0
47034,note_off,,,,,0,0,12,,,,13,,71,0
47034,note_off,,,,,0,0,12,,,,13,,43,0
47037,note_off,,,,,21,0,9,,,,8,,64,0
47037,note_off,,,,,21,0,8,,,,7,,72,0
47040,note_on,,,,,3,0,9,,,,8,,65,75
47040,note_on,,,,,6,0,13,,,,14,,55,75
47040,note_on,,,,,6,0,12,,,,13,,62,127
47040,note_on,,,,,0,0,12,,,,13,,67,127
47040,note_on,,,,,0,0,12,,,,13,,36,127
47040,note_on,,,,,3,0,8,,,,7,,74,75
47061,note_off,,,,,21,0,9,,,,8,,65,0
47061,note_off,,,,,21,0,8,,,,7,,74,0
47064,note_on,,,,,3,0,8,,,,7,,71,75
47064,note_on,,,,,3,0,9,,,,8,,62,75
47082,note_off,,,,,42,0,12,,,,13,,62,0
47082,note_off,,,,,0,0,12,,,,13,,67,0
47082,note_off,,,,,0,0,12,,,,13,,36,0
47082,note_off,,,,,42,0,13,,,,14,,55,0
47085,note_off,,,,,21,0,8,,,,7,,71,0
47085,note_off,,,,,21,0,9,,,,8,,62,0
47088,note_on,,,,,6,0,13,,,,14,,55,75
47088,note_on,,,,,3,0,9,,,,8,,64,75
47088,note_on,,,,,3,0,8,,,,7,,72,75
47088,note_on,,,,,6,0,12,,,,13,,60,127
47088,note_on,,,,,0,0,12,,,,13,,67,127
47088,note_on,,,,,0,0,12,,,,13,,48,127
47109,note_off,,,,,21,0,12,,,,13,,48,0
47112,note_on,,,,,3,0,12,,,,13,,46,127
47119,note_off,,,,,31,0,13,,,,14,,55,0
47119,note_off,,,,,7,0,12,,,,13,,60,0
47119,note_off,,,,,0,0,12,,,,13,,67,0
47119,note_off,,,,,31,0,9,,,,8,,64,0
47119,note_off,,,,,31,0,8,,,,7,,72,0
47133,note_off,,,,,14,0,12,,,,13,,46,0
47136,note_on,,,,,17,0,13,,,,14,,53,75
47136,note_on,,,,,0,0,12,,,,13,,45,127
47136,note_on,,,,,0,0,12,,,,13,,72,127
47136,note_on,,,,,3,0,12,,,,13,,65,127
47136,note_on,,,,,17,0,9,,,,8,,57,75
47136,note_on,,,,,17,0,8,,,,7,,60,75
47157,note_off,,,,,21,0,12,,,,13,,45,0
47160,note_on,,,,,3,0,12,,,,13,,43,127
47178,note_off,,,,,42,0,9,,,,8,,57,0
47178,note_off,,,,,0,0,12,,,,13,,72,0
47178,note_off,,,,,42,0,13,,,,14,,53,0
47178,note_off,,,,,18,0,12,,,,13,,65,0
47178,note_off,,,,,42,0,8,,,,7,,60,0
47181,note_off,,,,,3,0,12,,,,13,,43,0
47184,note_on,,,,,6,0,8,,,,7,,65,75
47184,note_on,,,,,6,0,9,,,,8,,60,75
47184,note_on,,,,,0,0,12,,,,13,,69,127
47184,note_on,,,,,3,0,12,,,,13,,60,127
47184,note_on,,,,,0,0,12,,,,13,,41,127
47184,note_on,,,,,6,0,13,,,,14,,57,75
47205,note_off,,,,,21,0,8,,,,7,,65,0
47208,note_on,,,,,3,0,8,,,,7,,69,75
47226,note_off,,,,,42,0,13,,,,14,,57,0
47226,note_off,,,,,42,0,9,,,,8,,60,0
47226,note_off,,,,,42,0,12,,,,13,,60,0
47226,note_off,,,,,0,0,12,,,,13,,69,0
47226,note_off,,,,,0,0,12,,,,13,,41,0
47229,note_off,,,,,21,0,8,,,,7,,69,0
47232,note_on,,,,,0,0,12,,,,13,,41,127
47232,note_on,,,,,3,0,8,,,,7,,67,75
47232,note_on,,,,,6,0,13,,,,14,,58,75
47232,note_on,,,,,6,0,9,,,,8,,64,75
47232,note_on,,,,,6,0,12,,,,13,,58,127
47232,note_on,,,,,0,0,12,,,,13,,67,127
47253,note_off,,,,,21,0,8,,,,7,,67,0
47256,note_on,,,,,3,0,8,,,,7,,64,75
47274,note_off,,,,,42,0,12,,,,13,,58,0
47274,note_off,,,,,0,0,12,,,,13,,67,0
47274,note_off,,,,,42,0,9,,,,8,,64,0
47274,note_off,,,,,0,0,12,,,,13,,41,0
47274,note_off,,,,,42,0,13,,,,14,,58,0
47277,note_off,,,,,21,0,8,,,,7,,64,0
47280,note_on,,,,,3,0,8,,,,7,,65,75
47280,note_on,,,,,6,0,9,,,,8,,60,75
47280,note_on,,,,,6,0,13,,,,14,,57,75
47280,note_on,,,,,0,0,12,,,,13,,41,127
47280,note_on,,,,,0,0,12,,,,13,,69,127
47280,note_on,,,,,6,0,12,,,,13,,60,127
47301,note_off,,,,,21,0,8,,,,7,,65,0
47304,note_on,,,,,3,0,8,,,,7,,60,75
47322,note_off,,,,,42,0,12,,,,13,,60,0
47322,note_off,,,,,0,0,12,,,,13,,41,0
47322,note_off,,,,,0,0,12,,,,13,,69,0
47322,note_off,,,,,42,0,13,,,,14,,57,0
47322,note_off,,,,,42,0,9,,,,8,,60,0
47325,note_off,,,,,21,0,8,,,,7,,60,0
47328,note_on,,,,,3,0,8,,,,7,,67,75
47328,note_on,,,,,6,0,13,,,,14,,58,75
47328,note_on,,,,,6,0,12,,,,13,,58,127
47328,note_on,,,,,0,0,12,,,,13,,67,127
47328,note_on,,,,,0,0,12,,,,13,,41,127
47328,note_on,,,,,6,0,9,,,,8,,64,75
47349,note_off,,,,,21,0,8,,,,7,,67,0
47352,note_on,,,,,3,0,8,,,,7,,70,75
47370,note_off,,,,,42,0,9,,,,8,,64,0
47370,note_off,,,,,42,0,13,,,,14,,58,0
47370,note_off,,,,,42,0,12,,,,13,,58,0
47370,note_off,,,,,0,0,12,,,,13,,41,0
47370,note_off,,,,,0,0,12,,,,13,,67,0
47373,note_off,,,,,21,0,8,,,,7,,70,0
47376,note_on,,,,,6,0,12,,,,13,,60,127
47376,note_on,,,,,6,0,13,,,,14,,60,75
47376,note_on,,,,,6,0,9,,,,8,,65,75
47376,note_on,,,,,0,0,12,,,,13,,69,127
47376,note_on,,,,,3,0,8,,,,7,,69,75
47376,note_on,,,,,0,0,12,,,,13,,41,127
47397,note_off,,,,,21,0,8,,,,7,,69,0
47400,note_on,,,,,3,0,8,,,,7,,65,75
47418,note_off,,,,,42,0,9,,,,8,,65,0
47418,note_off,,,,,42,0,13,,,,14,,60,0
47418,note_off,,,,,42,0,12,,,,13,,60,0
47418,note_off,,,,,0,0,12,,,,13,,69,0
47418,note_off,,,,,0,0,12,,,,13,,41,0
47421,note_off,,,,,21,0,8,,,,7,,65,0
47424,note_on,,,,,6,0,12,,,,13,,58,127
47424,note_on,,,,,6,0,13,,,,14,,58,75
47424,note_on,,,,,6,0,9,,,,8,,64,75
47424,note_on,,,,,3,0,8,,,,7,,67,75
47424,note_on,,,,,0,0,12,,,,13,,67,127
47424,note_on,,,,,0,0,12,,,,13,,41,127
47445,note_off,,,,,21,0,8,,,,7,,67,0
47448,note_on,,,,,3,0,8,,,,7,,60,75
47466,note_off,,,,,0,0,12,,,,13,,41,0
47466,note_off,,,,,0,0,12,,,,13,,67,0
47466,note_off,,,,,42,0,9,,,,8,,64,0
47466,note_off,,,,,42,0,13,,,,14,,58,0
47466,note_off,,,,,42,0,12,,,,13,,58,0
47469,note_off,,,,,21,0,8,,,,7,,60,0
47472,note_on,,,,,0,0,12,,,,13,,41,127
47472,note_on,,,,,0,0,12,,,,13,,69,127
47472,note_on,,,,,6,0,13,,,,14,,60,75
47472,note_on,,,,,6,0,12,,,,13,,60,127
47472,note_on,,,,,6,0,9,,,,8,,65,75
47472,note_on,,,,,3,0,8,,,,7,,69,75
47493,note_off,,,,,21,0,8,,,,7,,69,0
47496,note_on,,,,,3,0,8,,,,7,,72,75
47514,note_off,,,,,42,0,9,,,,8,,65,0
47514,note_off,,,,,42,0,12,,,,13,,60,0
47514,note_off,,,,,42,0,13,,,,14,,60,0
47514,note_off,,,,,0,0,12,,,,13,,41,0
47514,note_off,,,,,0,0,12,,,,13,,69,0
47517,note_off,,,,,21,0,8,,,,7,,72,0
47520,note_on,,,,,6,0,13,,,,14,,64,75
47520,note_on,,,,,0,0,12,,,,13,,67,127
47520,note_on,,,,,3,0,8,,,,7,,70,75
47520,note_on,,,,,0,0,12,,,,13,,41,127
47520,note_on,,,,,6,0,12,,,,13,,58,127
47520,note_on,,,,,6,0,9,,,,8,,67,75
47541,note_off,,,,,21,0,8,,,,7,,70,0
47544,note_on,,,,,3,0,8,,,,7,,67,75
47562,note_off,,,,,0,0,12,,,,13,,41,0
47562,note_off,,,,,42,0,9,,,,8,,67,0
47562,note_off,,,,,42,0,13,,,,14,,64,0
47562,note_off,,,,,0,0,12,,,,13,,67,0
47562,note_off,,,,,42,0,12,,,,13,,58,0
47565,note_off,,,,,21,0,8,,,,7,,67,0
47568,note_on,,,,,6,0,13,,,,14,,60,75
47568,note_on,,,,,0,0,12,,,,13,,67,127
47568,note_on,,,,,3,0,8,,,,7,,69,75
47568,note_on,,,,,6,0,12,,,,13,,60,127
47568,note_on,,,,,6,0,9,,,,8,,65,75
47568,note_on,,,,,0,0,12,,,,13,,41,127
47589,note_off,,,,,21,0,8,,,,7,,69,0
47592,note_on,,,,,3,0,8,,,,7,,65,75
47610,note_off,,,,,42,0,9,,,,8,,65,0
47610,note_off,,,,,42,0,13,,,,14,,60,0
47610,note_off,,,,,42,0,12,,,,13,,60,0
47610,note_off,,,,,0,0,12,,,,13,,67,0
47610,note_off,,,,,0,0,12,,,,13,,41,0
47613,note_off,,,,,21,0,8,,,,7,,65,0
47616,note_on,,,,,6,0,12,,,,13,,58,127
47616,note_on,,,,,0,0,12,,,,13,,67,127
47616,note_on,,,,,0,0,12,,,,13,,41,127
47616,note_on,,,,,6,0,9,,,,8,,67,75
47616,note_on,,,,,3,0,8,,,,7,,70,75
47616,note_on,,,,,6,0,13,,,,14,,64,75
47658,note_off,,,,,0,0,12,,,,13,,67,0
47658,note_off,,,,,42,0,9,,,,8,,67,0
47658,note_off,,,,,0,0,12,,,,13,,41,0
47658,note_off,,,,,42,0,13,,,,14,,64,0
47658,note_off,,,,,42,0,12,,,,13,,58,0
47658,note_off,,,,,42,0,8,,,,7,,70,0
47664,note_on,,,,,6,0,13,,,,14,,64,75
47664,note_on,,,,,6,0,12,,,,13,,58,127
47664,note_on,,,,,6,0,8,,,,7,,70,75
47664,note_on,,,,,0,0,12,,,,13,,41,127
47664,note_on,,,,,0,0,12,,,,13,,67,127
47664,note_on,,,,,6,0,9,,,,8,,67,75
47706,note_off,,,,,42,0,13,,,,14,,64,0
47706,note_off,,,,,0,0,12,,,,13,,67,0
47706,note_off,,,,,42,0,12,,,,13,,58,0
47706,note_off,,,,,0,0,12,,,,13,,41,0
47706,note_off,,,,,42,0,9,,,,8,,67,0
47712,note_on,,,,,6,0,12,,,,13,,58,127
47712,note_on,,,,,6,0,13,,,,14,,64,75
47712,note_on,,,,,0,0,12,,,,13,,67,127
47712,note_on,,,,,0,0,12,,,,13,,41,127
47712,note_on,,,,,6,0,9,,,,8,,67,75
47727,note_off,,,,,63,0,8,,,,7,,70,0
47736,note_on,,,,,9,0,8,,,,7,,67,75
47754,note_off,,,,,42,0,13,,,,14,,64,0
47754,note_off,,,,,0,0,12,,,,13,,67,0
47754,note_off,,,,,0,0,12,,,,13,,41,0
47754,note_off,,,,,42,0,9,,,,8,,67,0
47754,note_off,,,,,42,0,12,,,,13,,58,0
47757,note_off,,,,,21,0,8,,,,7,,67,0
47760,note_on,,,,,6,0,12,,,,13,,60,127
47760,note_on,,,,,0,0,12,,,,13,,69,127
47760,note_on,,,,,0,0,12,,,,13,,41,127
47760,note_on,,,,,6,0,13,,,,14,,60,75
47760,note_on,,,,,6,0,9,,,,8,,65,75
47760,note_on,,,,,3,0,8,,,,7,,69,75
47781,note_off,,,,,21,0,8,,,,7,,69,0
47784,note_on,,,,,3,0,8,,,,7,,65,75
47802,note_off,,,,,42,0,9,,,,8,,65,0
47802,note_off,,,,,42,0,12,,,,13,,60,0
47802,note_off,,,,,42,0,13,,,,14,,60,0
47802,note_off,,,,,0,0,12,,,,13,,69,0
47802,note_off,,,,,0,0,12,,,,13,,41,0
47805,note_off,,,,,21,0,8,,,,7,,65,0
47808,note_on,,,,,6,0,9,,,,8,,65,75
47808,note_on,,,,,6,0,13,,,,14,,57,75
47808,note_on,,,,,0,0,12,,,,13,,41,127
47808,note_on,,,,,3,0,8,,,,7,,72,75
47808,note_on,,,,,6,0,12,,,,13,,60,127
47808,note_on,,,,,0,0,12,,,,13,,69,127
47850,note_off,,,,,42,0,13,,,,14,,57,0
47850,note_off,,,,,42,0,9,,,,8,,65,0
47850,note_off,,,,,42,0,12,,,,13,,60,0
47850,note_off,,,,,0,0,12,,,,13,,69,0
47850,note_off,,,,,0,0,12,,,,13,,41,0
47856,note_on,,,,,6,0,12,,,,13,,58,127
47856,note_on,,,,,0,0,12,,,,13,,67,127
47856,note_on,,,,,0,0,12,,,,13,,41,127
47856,note_on,,,,,6,0,13,,,,14,,58,75
47856,note_on,,,,,6,0,9,,,,8,,64,75
47871,note_off,,,,,63,0,8,,,,7,,72,0
47880,note_on,,,,,9,0,8,,,,7,,67,75
47898,note_off,,,,,42,0,9,,,,8,,64,0
47898,note_off,,,,,42,0,13,,,,14,,58,0
47898,note_off,,,,,0,0,12,,,,13,,41,0
47898,note_off,,,,,0,0,12,,,,13,,67,0
47898,note_off,,,,,42,0,12,,,,13,,58,0
47901,note_off,,,,,21,0,8,,,,7,,67,0
47904,note_on,,,,,3,0,8,,,,7,,69,75
47904,note_on,,,,,6,0,13,,,,14,,60,75
47904,note_on,,,,,0,0,12,,,,13,,41,127
47904,note_on,,,,,0,0,12,,,,13,,69,127
47904,note_on,,,,,6,0,12,,,,13,,60,127
47904,note_on,,,,,6,0,9,,,,8,,65,75
47925,note_off,,,,,21,0,8,,,,7,,69,0
47928,note_on,,,,,3,0,8,,,,7,,65,75
47946,note_off,,,,,42,0,13,,,,14,,60,0
47946,note_off,,,,,0,0,12,,,,13,,41,0
47946,note_off,,,,,42,0,12,,,,13,,60,0
47946,note_off,,,,,42,0,9,,,,8,,65,0
47946,note_off,,,,,0,0,12,,,,13,,69,0
47949,note_off,,,,,21,0,8,,,,7,,65,0
47952,note_on,,,,,6,0,12,,,,13,,58,127
47952,note_on,,,,,0,0,12,,,,13,,67,127
47952,note_on,,,,,3,0,8,,,,7,,67,75
47952,note_on,,,,,0,0,12,,,,13,,41,127
47952,note_on,,,,,6,0,13,,,,14,,58,75
47952,note_on,,,,,6,0,9,,,,8,,64,75
47994,note_off,,,,,42,0,12,,,,13,,58,0
47994,note_off,,,,,0,0,12,,,,13,,67,0
47994,note_off,,,,,0,0,12,,,,13,,41,0
47994,note_off,,,,,42,0,9,,,,8,,64,0
47994,note_off,,,,,42,0,13,,,,14,,58,0
48000,note_on,,,,,6,0,13,,,,14,,55,75
48000,note_on,,,,,6,0,9,,,,8,,58,75
48000,note_on,,,,,6,0,12,,,,13,,58,127
48000,note_on,,,,,0,0,12,,,,13,,67,127
48000,note_on,,,,,0,0,12,,,,13,,41,127
48015,note_off,,,,,63,0,8,,,,7,,67,0
48024,note_on,,,,,9,0,8,,,,7,,64,75
48042,note_off,,,,,0,0,12,,,,13,,41,0
48042,note_off,,,,,0,0,12,,,,13,,67,0
48042,note_off,,,,,42,0,9,,,,8,,58,0
48042,note_off,,,,,42,0,12,,,,13,,58,0
48042,note_off,,,,,42,0,13,,,,14,,55,0
48045,note_off,,,,,21,0,8,,,,7,,64,0
48048,note_on,,,,,0,0,12,,,,13,,41,127
48048,note_on,,,,,6,0,12,,,,13,,60,127
48048,note_on,,,,,6,0,9,,,,8,,60,75
48048,note_on,,,,,3,0,8,,,,7,,65,75
48048,note_on,,,,,0,0,12,,,,13,,69,127
48048,note_on,,,,,6,0,13,,,,14,,57,75
48069,note_off,,,,,21,0,8,,,,7,,65,0
48072,note_on,,,,,3,0,8,,,,7,,60,75
48090,note_off,,,,,0,0,12,,,,13,,69,0
48090,note_off,,,,,0,0,12,,,,13,,41,0
48090,note_off,,,,,42,0,13,,,,14,,57,0
48090,note_off,,,,,42,0,9,,,,8,,60,0
48090,note_off,,,,,42,0,12,,,,13,,60,0
48093,note_off,,,,,21,0,8,,,,7,,60,0
48096,note_on,,,,,6,0,12,,,,13,,67,127
48096,note_on,,,,,0,0,12,,,,13,,76,127
48096,note_on,,,,,0,0,12,,,,13,,40,127
48096,note_on,,,,,6,0,13,,,,14,,55,75
48096,note_on,,,,,6,0,9,,,,8,,60,75
48096,note_on,,,,,3,0,8,,,,7,,70,75
48117,note_off,,,,,21,0,8,,,,7,,70,0
48120,note_on,,,,,3,0,8,,,,7,,67,75
48138,note_off,,,,,42,0,12,,,,13,,67,0
48138,note_off,,,,,0,0,12,,,,13,,76,0
48138,note_off,,,,,0,0,12,,,,13,,40,0
48138,note_off,,,,,42,0,13,,,,14,,55,0
48138,note_off,,,,,42,0,9,,,,8,,60,0
48141,note_off,,,,,21,0,8,,,,7,,67,0
48144,note_on,,,,,3,0,8,,,,7,,69,75
48144,note_on,,,,,6,0,13,,,,14,,53,75
48144,note_on,,,,,6,0,9,,,,8,,60,75
48144,note_on,,,,,0,0,12,,,,13,,41,127
48144,note_on,,,,,0,0,12,,,,13,,69,127
48144,note_on,,,,,6,0,12,,,,13,,60,127
48165,note_off,,,,,21,0,8,,,,7,,69,0
48168,note_on,,,,,3,0,8,,,,7,,65,75
48186,note_off,,,,,42,0,9,,,,8,,60,0
48186,note_off,,,,,0,0,12,,,,13,,69,0
48186,note_off,,,,,0,0,12,,,,13,,41,0
48186,note_off,,,,,42,0,13,,,,14,,53,0
48186,note_off,,,,,42,0,12,,,,13,,60,0
48189,note_off,,,,,21,0,8,,,,7,,65,0
48192,note_on,,,,,0,0,12,,,,13,,76,127
48192,note_on,,,,,6,0,9,,,,8,,60,75
48192,note_on,,,,,6,0,12,,,,13,,67,127
48192,note_on,,,,,0,0,12,,,,13,,36,127
48192,note_on,,,,,3,0,8,,,,7,,67,75
48192,note_on,,,,,6,0,13,,,,14,,52,75
48234,note_off,,,,,42,0,12,,,,13,,67,0
48234,note_off,,,,,0,0,12,,,,13,,76,0
48234,note_off,,,,,42,0,9,,,,8,,60,0
48234,note_off,,,,,42,0,8,,,,7,,67,0
48234,note_off,,,,,0,0,12,,,,13,,36,0
48234,note_off,,,,,42,0,13,,,,14,,52,0
48240,note_on,,,,,6,0,13,,,,14,,53,75
48240,note_on,,,,,6,0,8,,,,7,,65,75
48240,note_on,,,,,6,0,9,,,,8,,59,75
48240,note_on,,,,,6,0,12,,,,13,,65,127
48240,note_on,,,,,0,0,12,,,,13,,71,127
48240,note_on,,,,,0,0,12,,,,13,,38,127
48261,note_off,,,,,21,0,8,,,,7,,65,0
48264,note_on,,,,,3,0,8,,,,7,,64,75
48282,note_off,,,,,0,0,12,,,,13,,71,0
48282,note_off,,,,,42,0,12,,,,13,,65,0
48282,note_off,,,,,0,0,12,,,,13,,38,0
48282,note_off,,,,,42,0,9,,,,8,,59,0
48282,note_off,,,,,42,0,13,,,,14,,53,0
48285,note_off,,,,,21,0,8,,,,7,,64,0
48288,note_on,,,,,6,0,12,,,,13,,60,127
48288,note_on,,,,,0,0,12,,,,13,,67,127
48288,note_on,,,,,0,0,12,,,,13,,40,127
48288,note_on,,,,,6,0,9,,,,8,,60,75
48288,note_on,,,,,6,0,13,,,,14,,55,75
48288,note_on,,,,,3,0,8,,,,7,,62,75
48309,note_off,,,,,21,0,8,,,,7,,62,0
48312,note_on,,,,,3,0,8,,,,7,,60,75
48330,note_off,,,,,42,0,12,,,,13,,60,0
48330,note_off,,,,,42,0,13,,,,14,,55,0
48330,note_off,,,,,0,0,12,,,,13,,40,0
48330,note_off,,,,,0,0,12,,,,13,,67,0
48330,note_off,,,,,42,0,9,,,,8,,60,0
48333,note_off,,,,,21,0,8,,,,7,,60,0
48336,note_on,,,,,6,0,12,,,,13,,60,127
48336,note_on,,,,,0,0,12,,,,13,,69,127
48336,note_on,,,,,0,0,12,,,,13,,41,127
48336,note_on,,,,,3,0,8,,,,7,,65,75
48336,note_on,,,,,6,0,13,,,,14,,57,75
48336,note_on,,,,,6,0,9,,,,8,,60,75
48357,note_off,,,,,21,0,8,,,,7,,65,0
48360,note_on,,,,,3,0,8,,,,7,,69,75
48378,note_off,,,,,0,0,12,,,,13,,69,0
48378,note_off,,,,,42,0,9,,,,8,,60,0
48378,note_off,,,,,0,0,12,,,,13,,41,0
48378,note_off,,,,,42,0,13,,,,14,,57,0
48378,note_off,,,,,42,0,12,,,,13,,60,0
48381,note_off,,,,,21,0,8,,,,7,,69,0
48384,note_on,,,,,6,0,9,,,,8,,64,75
48384,note_on,,,,,6,0,12,,,,13,,58,127
48384,note_on,,,,,0,0,12,,,,13,,67,127
48384,note_on,,,,,0,0,12,,,,13,,41,127
48384,note_on,,,,,3,0,8,,,,7,,67,75
48384,note_on,,,,,6,0,13,,,,14,,58,75
48405,note_off,,,,,21,0,8,,,,7,,67,0
48408,note_on,,,,,3,0,8,,,,7,,64,75
48426,note_off,,,,,42,0,13,,,,14,,58,0
48426,note_off,,,,,0,0,12,,,,13,,41,0
48426,note_off,,,,,42,0,9,,,,8,,64,0
48426,note_off,,,,,42,0,12,,,,13,,58,0
48426,note_off,,,,,0,0,12,,,,13,,67,0
48429,note_off,,,,,21,0,8,,,,7,,64,0
48432,note_on,,,,,6,0,9,,,,8,,60,75
48432,note_on,,,,,6,0,13,,,,14,,57,75
48432,note_on,,,,,3,0,8,,,,7,,65,75
48432,note_on,,,,,6,0,12,,,,13,,60,127
48432,note_on,,,,,0,0,12,,,,13,,69,127
48432,note_on,,,,,0,0,12,,,,13,,41,127
48453,note_off,,,,,21,0,8,,,,7,,65,0
48456,note_on,,,,,3,0,8,,,,7,,60,75
48474,note_off,,,,,0,0,12,,,,13,,69,0
48474,note_off,,,,,0,0,12,,,,13,,41,0
48474,note_off,,,,,42,0,9,,,,8,,60,0
48474,note_off,,,,,42,0,12,,,,13,,60,0
48474,note_off,,,,,42,0,13,,,,14,,57,0
48477,note_off,,,,,21,0,8,,,,7,,60,0
48480,note_on,,,,,6,0,9,,,,8,,64,75
48480,note_on,,,,,6,0,13,,,,14,,58,75
48480,note_on,,,,,0,0,12,,,,13,,41,127
48480,note_on,,,,,0,0,12,,,,13,,67,127
48480,note_on,,,,,3,0,8,,,,7,,67,75
48480,note_on,,,,,6,0,12,,,,13,,58,127
48501,note_off,,,,,21,0,8,,,,7,,67,0
48504,note_on,,,,,3,0,8,,,,7,,70,75
48522,note_off,,,,,0,0,12,,,,13,,67,0
48522,note_off,,,,,42,0,13,,,,14,,58,0
48522,note_off,,,,,42,0,9,,,,8,,64,0
48522,note_off,,,,,42,0,12,,,,13,,58,0
48522,note_off,,,,,0,0,12,,,,13,,41,0
48525,note_off,,,,,21,0,8,,,,7,,70,0
48528,note_on,,,,,0,0,12,,,,13,,69,127
48528,note_on,,,,,6,0,12,,,,13,,60,127
48528,note_on,,,,,3,0,8,,,,7,,69,75
48528,note_on,,,,,6,0,9,,,,8,,65,75
48528,note_on,,,,,0,0,12,,,,13,,41,127
48528,note_on,,,,,6,0,13,,,,14,,60,75
48549,note_off,,,,,21,0,8,,,,7,,69,0
48552,note_on,,,,,3,0,8,,,,7,,65,75
48570,note_off,,,,,0,0,12,,,,13,,69,0
48570,note_off,,,,,0,0,12,,,,13,,41,0
48570,note_off,,,,,42,0,9,,,,8,,65,0
48570,note_off,,,,,42,0,12,,,,13,,60,0
48570,note_off,,,,,42,0,13,,,,14,,60,0
48573,note_off,,,,,21,0,8,,,,7,,65,0
48576,note_on,,,,,0,0,12,,,,13,,67,127
48576,note_on,,,,,6,0,13,,,,14,,58,75
48576,note_on,,,,,6,0,9,,,,8,,64,75
48576,note_on,,,,,0,0,12,,,,13,,41,127
48576,note_on,,,,,6,0,12,,,,13,,58,127
48576,note_on,,,,,3,0,8,,,,7,,67,75
48597,note_off,,,,,21,0,8,,,,7,,67,0
48600,note_on,,,,,3,0,8,,,,7,,60,75
48618,note_off,,,,,42,0,9,,,,8,,64,0
48618,note_off,,,,,42,0,12,,,,13,,58,0
48618,note_off,,,,,0,0,12,,,,13,,41,0
48618,note_off,,,,,0,0,12,,,,13,,67,0
48618,note_off,,,,,42,0,13,,,,14,,58,0
48621,note_off,,,,,21,0,8,,,,7,,60,0
48624,note_on,,,,,0,0,12,,,,13,,41,127
48624,note_on,,,,,6,0,13,,,,14,,60,75
48624,note_on,,,,,6,0,12,,,,13,,60,127
48624,note_on,,,,,3,0,8,,,,7,,69,75
48624,note_on,,,,,0,0,12,,,,13,,69,127
48624,note_on,,,,,6,0,9,,,,8,,65,75
48645,note_off,,,,,21,0,8,,,,7,,69,0
48648,note_on,,,,,3,0,8,,,,7,,72,75
48666,note_off,,,,,42,0,13,,,,14,,60,0
48666,note_off,,,,,42,0,9,,,,8,,65,0
48666,note_off,,,,,0,0,12,,,,13,,41,0
48666,note_off,,,,,0,0,12,,,,13,,69,0
48666,note_off,,,,,42,0,12,,,,13,,60,0
48669,note_off,,,,,21,0,8,,,,7,,72,0
48672,note_on,,,,,6,0,9,,,,8,,67,75
48672,note_on,,,,,6,0,12,,,,13,,58,127
48672,note_on,,,,,0,0,12,,,,13,,67,127
48672,note_on,,,,,3,0,8,,,,7,,70,75
48672,note_on,,,,,0,0,12,,,,13,,41,127
48672,note_on,,,,,6,0,13,,,,14,,64,75
48693,note_off,,,,,21,0,8,,,,7,,70,0
48696,note_on,,,,,3,0,8,,,,7,,67,75
48714,note_off,,,,,42,0,13,,,,14,,64,0
48714,note_off,,,,,0,0,12,,,,13,,41,0
48714,note_off,,,,,42,0,12,,,,13,,58,0
48714,note_off,,,,,0,0,12,,,,13,,67,0
48714,note_off,,,,,42,0,9,,,,8,,67,0
48717,note_off,,,,,21,0,8,,,,7,,67,0
48720,note_on,,,,,0,0,12,,,,13,,41,127
48720,note_on,,,,,0,0,12,,,,13,,69,127
48720,note_on,,,,,6,0,12,,,,13,,60,127
48720,note_on,,,,,6,0,13,,,,14,,60,75
48720,note_on,,,,,3,0,8,,,,7,,69,75
48720,note_on,,,,,6,0,9,,,,8,,65,75
48741,note_off,,,,,21,0,8,,,,7,,69,0
48744,note_on,,,,,3,0,8,,,,7,,65,75
48762,note_off,,,,,42,0,13,,,,14,,60,0
48762,note_off,,,,,0,0,12,,,,13,,41,0
48762,note_off,,,,,0,0,12,,,,13,,69,0
48762,note_off,,,,,42,0,12,,,,13,,60,0
48762,note_off,,,,,42,0,9,,,,8,,65,0
48765,note_off,,,,,21,0,8,,,,7,,65,0
48768,note_on,,,,,6,0,12,,,,13,,62,127
48768,note_on,,,,,0,0,12,,,,13,,41,127
48768,note_on,,,,,6,0,9,,,,8,,67,75
48768,note_on,,,,,6,0,13,,,,14,,62,75
48768,note_on,,,,,3,0,8,,,,7,,71,75
48768,note_on,,,,,0,0,12,,,,13,,71,127
48810,note_off,,,,,42,0,9,,,,8,,67,0
48810,note_off,,,,,42,0,8,,,,7,,71,0
48810,note_off,,,,,42,0,13,,,,14,,62,0
48810,note_off,,,,,0,0,12,,,,13,,41,0
48810,note_off,,,,,0,0,12,,,,13,,71,0
48810,note_off,,,,,42,0,12,,,,13,,62,0
48816,note_on,,,,,6,0,8,,,,7,,71,75
48816,note_on,,,,,6,0,9,,,,8,,67,75
48816,note_on,,,,,6,0,13,,,,14,,62,75
48816,note_on,,,,,0,0,12,,,,13,,41,127
48816,note_on,,,,,0,0,12,,,,13,,71,127
48816,note_on,,,,,6,0,12,,,,13,,62,127
48858,note_off,,,,,42,0,13,,,,14,,62,0
48858,note_off,,,,,0,0,12,,,,13,,71,0
48858,note_off,,,,,0,0,12,,,,13,,41,0
48858,note_off,,,,,42,0,9,,,,8,,67,0
48858,note_off,,,,,42,0,12,,,,13,,62,0
48864,note_on,,,,,6,0,12,,,,13,,62,127
48864,note_on,,,,,0,0,12,,,,13,,71,127
48864,note_on,,,,,0,0,12,,,,13,,41,127
48864,note_on,,,,,6,0,9,,,,8,,67,75
48864,note_on,,,,,6,0,13,,,,14,,62,75
48879,note_off,,,,,63,0,8,,,,7,,71,0
48888,note_on,,,,,9,0,8,,,,7,,67,75
48906,note_off,,,,,0,0,12,,,,13,,41,0
48906,note_off,,,,,42,0,13,,,,14,,62,0
48906,note_off,,,,,42,0,9,,,,8,,67,0
48906,note_off,,,,,0,0,12,,,,13,,71,0
48906,note_off,,,,,42,0,12,,,,13,,62,0
48909,note_off,,,,,21,0,8,,,,7,,67,0
48912,note_on,,,,,6,0,9,,,,8,,71,75
48912,note_on,,,,,0,0,12,,,,13,,41,127
48912,note_on,,,,,0,0,12,,,,13,,71,127
48912,note_on,,,,,6,0,13,,,,14,,67,75
48912,note_on,,,,,6,0,12,,,,13,,62,127
48912,note_on,,,,,3,0,8,,,,7,,74,75
48933,note_off,,,,,21,0,8,,,,7,,74,0
48936,note_on,,,,,3,0,8,,,,7,,71,75
48954,note_off,,,,,42,0,12,,,,13,,62,0
48954,note_off,,,,,0,0,12,,,,13,,71,0
48954,note_off,,,,,0,0,12,,,,13,,41,0
48954,note_off,,,,,42,0,13,,,,14,,67,0
48954,note_off,,,,,42,0,9,,,,8,,71,0
48957,note_off,,,,,21,0,8,,,,7,,71,0
48960,note_on,,,,,0,0,12,,,,13,,41,127
48960,note_on,,,,,6,0,13,,,,14,,62,75
48960,note_on,,,,,0,0,12,,,,13,,71,127
48960,note_on,,,,,6,0,12,,,,13,,62,127
48960,note_on,,,,,3,0,8,,,,7,,77,75
48960,note_on,,,,,6,0,9,,,,8,,71,75
48981,note_off,,,,,21,0,8,,,,7,,77,0
48984,note_on,,,,,3,0,8,,,,7,,74,75
49002,note_off,,,,,0,0,12,,,,13,,71,0
49002,note_off,,,,,42,0,12,,,,13,,62,0
49002,note_off,,,,,42,0,9,,,,8,,71,0
49002,note_off,,,,,42,0,13,,,,14,,62,0
49002,note_off,,,,,0,0,12,,,,13,,41,0
49005,note_off,,,,,21,0,8,,,,7,,74,0
49008,note_on,,,,,6,0,12,,,,13,,60,127
49008,note_on,,,,,0,0,12,,,,13,,67,127
49008,note_on,,,,,3,0,8,,,,7,,76,75
49008,note_on,,,,,0,0,12,,,,13,,41,127
49008,note_on,,,,,6,0,9,,,,8,,72,75
49008,note_on,,,,,6,0,13,,,,14,,60,75
49029,note_off,,,,,21,0,8,,,,7,,76,0
49032,note_on,,,,,3,0,8,,,,7,,72,75
49050,note_off,,,,,0,0,12,,,,13,,67,0
49050,note_off,,,,,42,0,13,,,,14,,60,0
49050,note_off,,,,,42,0,12,,,,13,,60,0
49050,note_off,,,,,42,0,9,,,,8,,72,0
49050,note_off,,,,,0,0,12,,,,13,,41,0
49053,note_off,,,,,21,0,8,,,,7,,72,0
49056,note_on,,,,,6,0,13,,,,14,,67,75
49056,note_on,,,,,6,0,12,,,,13,,59,127
49056,note_on,,,,,0,0,12,,,,13,,67,127
49056,note_on,,,,,0,0,12,,,,13,,41,127
49056,note_on,,,,,3,0,8,,,,7,,74,75
49056,note_on,,,,,6,0,9,,,,8,,71,75
49077,note_off,,,,,21,0,8,,,,7,,74,0
49080,note_on,,,,,3,0,8,,,,7,,71,75
49098,note_off,,,,,0,0,12,,,,13,,41,0
49098,note_off,,,,,0,0,12,,,,13,,67,0
49098,note_off,,,,,42,0,13,,,,14,,67,0
49098,note_off,,,,,42,0,9,,,,8,,71,0
49098,note_off,,,,,42,0,12,,,,13,,59,0
49101,note_off,,,,,21,0,8,,,,7,,71,0
49104,note_on,,,,,3,0,8,,,,7,,72,75
49104,note_on,,,,,6,0,12,,,,13,,60,127
49104,note_on,,,,,0,0,12,,,,13,,69,127
49104,note_on,,,,,6,0,9,,,,8,,69,75
49104,note_on,,,,,0,0,12,,,,13,,41,127
49104,note_on,,,,,6,0,13,,,,14,,64,75
49125,note_off,,,,,21,0,8,,,,7,,72,0
49128,note_on,,,,,3,0,8,,,,7,,69,75
49146,note_off,,,,,0,0,12,,,,13,,69,0
49146,note_off,,,,,0,0,12,,,,13,,41,0
49146,note_off,,,,,42,0,13,,,,14,,64,0
49146,note_off,,,,,42,0,12,,,,13,,60,0
49146,note_off,,,,,42,0,9,,,,8,,69,0
49149,note_off,,,,,21,0,8,,,,7,,69,0
49152,note_on,,,,,6,0,12,,,,13,,62,127
49152,note_on,,,,,0,0,12,,,,13,,67,127
49152,note_on,,,,,0,0,12,,,,13,,41,127
49152,note_on,,,,,6,0,13,,,,14,,62,75
49152,note_on,,,,,6,0,9,,,,8,,67,75
49152,note_on,,,,,3,0,8,,,,7,,71,75
49173,note_off,,,,,21,0,8,,,,7,,71,0
49176,note_on,,,,,3,0,8,,,,7,,67,75
49194,note_off,,,,,42,0,9,,,,8,,67,0
49194,note_off,,,,,42,0,13,,,,14,,62,0
49194,note_off,,,,,42,0,12,,,,13,,62,0
49194,note_off,,,,,0,0,12,,,,13,,41,0
49194,note_off,,,,,0,0,12,,,,13,,67,0
49197,note_off,,,,,21,0,8,,,,7,,67,0
49200,note_on,,,,,6,0,13,,,,14,,60,75
49200,note_on,,,,,6,0,9,,,,8,,67,75
49200,note_on,,,,,0,0,12,,,,13,,67,127
49200,note_on,,,,,6,0,12,,,,13,,60,127
49200,note_on,,,,,3,0,8,,,,7,,79,75
49200,note_on,,,,,0,0,12,,,,13,,40,127
49242,note_off,,,,,42,0,12,,,,13,,60,0
49242,note_off,,,,,0,0,12,,,,13,,40,0
49242,note_off,,,,,42,0,8,,,,7,,79,0
49242,note_off,,,,,0,0,12,,,,13,,67,0
49242,note_off,,,,,42,0,9,,,,8,,67,0
49242,note_off,,,,,42,0,13,,,,14,,60,0
49248,note_on,,,,,0,0,12,,,,13,,69,127
49248,note_on,,,,,0,0,12,,,,13,,41,127
49248,note_on,,,,,6,0,12,,,,13,,60,127
49248,note_on,,,,,6,0,9,,,,8,,69,75
49248,note_on,,,,,6,0,8,,,,7,,77,75
49248,note_on,,,,,6,0,13,,,,14,,60,75
49269,note_off,,,,,21,0,9,,,,8,,69,0
49269,note_off,,,,,21,0,8,,,,7,,77,0
49272,note_on,,,,,3,0,9,,,,8,,67,75
49272,note_on,,,,,3,0,8,,,,7,,76,75
49290,note_off,,,,,42,0,13,,,,14,,60,0
49290,note_off,,,,,42,0,12,,,,13,,60,0
49290,note_off,,,,,0,0,12,,,,13,,69,0
49290,note_off,,,,,0,0,12,,,,13,,41,0
49293,note_off,,,,,21,0,8,,,,7,,76,0
49293,note_off,,,,,21,0,9,,,,8,,67,0
49296,note_on,,,,,3,0,9,,,,8,,65,75
49296,note_on,,,,,6,0,13,,,,14,,59,75
49296,note_on,,,,,3,0,8,,,,7,,74,75
49296,note_on,,,,,6,0,12,,,,13,,62,127
49296,note_on,,,,,0,0,12,,,,13,,71,127
49296,note_on,,,,,0,0,12,,,,13,,43,127
49317,note_off,,,,,21,0,9,,,,8,,65,0
49317,note_off,,,,,21,0,8,,,,7,,74,0
49320,note_on,,,,,3,0,8,,,,7,,72,75
49320,note_on,,,,,3,0,9,,,,8,,64,75
49338,note_off,,,,,0,0,12,,,,13,,71,0
49338,note_off,,,,,42,0,12,,,,13,,62,0
49338,note_off,,,,,42,0,13,,,,14,,59,0
49338,note_off,,,,,0,0,12,,,,13,,43,0
49341,note_off,,,,,21,0,8,,,,7,,72,0
49341,note_off,,,,,21,0,9,,,,8,,64,0
49344,note_on,,,,,3,0,8,,,,7,,74,75
49344,note_on,,,,,6,0,13,,,,14,,55,75
49344,note_on,,,,,0,0,12,,,,13,,36,127
49344,note_on,,,,,6,0,12,,,,13,,62,127
49344,note_on,,,,,3,0,9,,,,8,,65,75
49344,note_on,,,,,0,0,12,,,,13,,67,127
49365,note_off,,,,,21,0,9,,,,8,,65,0
49365,note_off,,,,,21,0,8,,,,7,,74,0
49368,note_on,,,,,3,0,8,,,,7,,71,75
49368,note_on,,,,,3,0,9,,,,8,,62,75
49386,note_off,,,,,0,0,12,,,,13,,36,0
49386,note_off,,,,,0,0,12,,,,13,,67,0
49386,note_off,,,,,42,0,12,,,,13,,62,0
49386,note_off,,,,,42,0,13,,,,14,,55,0
49389,note_off,,,,,21,0,8,,,,7,,71,0
49389,note_off,,,,,21,0,9,,,,8,,62,0
49392,note_on,,,,,0,0,12,,,,13,,76,127
49392,note_on,,,,,6,0,12,,,,13,,67,127
49392,note_on,,,,,0,0,12,,,,13,,36,127
49392,note_on,,,,,3,0,8,,,,7,,72,75
49392,note_on,,,,,6,0,13,,,,14,,55,75
49392,note_on,,,,,3,0,9,,,,8,,64,75
49423,note_off,,,,,31,0,13,,,,14,,55,0
49423,note_off,,,,,0,0,12,,,,13,,76,0
49423,note_off,,,,,31,0,12,,,,13,,67,0
49423,note_off,,,,,31,0,8,,,,7,,72,0
49423,note_off,,,,,31,0,9,,,,8,,64,0
49434,note_off,,,,,11,0,12,,,,13,,36,0
49440,note_on,,,,,6,0,12,,,,13,,67,127
49440,note_on,,,,,17,0,9,,,,8,,64,75
49440,note_on,,,,,17,0,8,,,,7,,67,75
49440,note_on,,,,,17,0,13,,,,14,,60,75
49440,note_on,,,,,0,0,12,,,,13,,76,127
49446,note_on,,,,,6,0,12,,,,13,,48,127
49482,note_off,,,,,42,0,13,,,,14,,60,0
49482,note_off,,,,,42,0,9,,,,8,,64,0
49482,note_off,,,,,0,0,12,,,,13,,76,0
49482,note_off,,,,,36,0,12,,,,13,,67,0
49482,note_off,,,,,42,0,8,,,,7,,67,0
49488,note_on,,,,,6,0,8,,,,7,,72,75
49488,note_on,,,,,0,0,12,,,,13,,48,127
49488,note_on,,,,,0,0,12,,,,13,,76,127
49488,note_on,,,,,0,0,12,,,,13,,67,127
49488,note_off,,,,,6,0,12,,,,13,,48,0
49488,note_on,,,,,6,0,9,,,,8,,67,75
49488,note_on,,,,,6,0,13,,,,14,,64,75
49509,note_off,,,,,21,0,8,,,,7,,72,0
49512,note_on,,,,,3,0,8,,,,7,,76,75
49530,note_off,,,,,0,0,12,,,,13,,76,0
49530,note_off,,,,,42,0,12,,,,13,,67,0
49530,note_off,,,,,42,0,13,,,,14,,64,0
49530,note_off,,,,,42,0,9,,,,8,,67,0
49530,note_off,,,,,0,0,12,,,,13,,48,0
49533,note_off,,,,,21,0,8,,,,7,,76,0
49536,note_on,,,,,6,0,12,,,,13,,65,127
49536,note_on,,,,,0,0,12,,,,13,,48,127
49536,note_on,,,,,3,0,8,,,,7,,74,75
49536,note_on,,,,,6,0,9,,,,8,,71,75
49536,note_on,,,,,0,0,12,,,,13,,74,127
49536,note_on,,,,,6,0,13,,,,14,,65,75
49557,note_off,,,,,21,0,8,,,,7,,74,0
49560,note_on,,,,,3,0,8,,,,7,,71,75
49578,note_off,,,,,42,0,9,,,,8,,71,0
49578,note_off,,,,,0,0,12,,,,13,,48,0
49578,note_off,,,,,42,0,13,,,,14,,65,0
49578,note_off,,,,,42,0,12,,,,13,,65,0
49578,note_off,,,,,0,0,12,,,,13,,74,0
49581,note_off,,,,,21,0,8,,,,7,,71,0
49584,note_on,,,,,0,0,12,,,,13,,76,127
49584,note_on,,,,,6,0,13,,,,14,,64,75
49584,note_on,,,,,3,0,8,,,,7,,72,75
49584,note_on,,,,,0,0,12,,,,13,,48,127
49584,note_on,,,,,6,0,12,,,,13,,67,127
49584,note_on,,,,,6,0,9,,,,8,,67,75
49605,note_off,,,,,21,0,8,,,,7,,72,0
49608,note_on,,,,,3,0,8,,,,7,,67,75
49626,note_off,,,,,42,0,12,,,,13,,67,0
49626,note_off,,,,,0,0,12,,,,13,,48,0
49626,note_off,,,,,42,0,9,,,,8,,67,0
49626,note_off,,,,,42,0,13,,,,14,,64,0
49626,note_off,,,,,0,0,12,,,,13,,76,0
49629,note_off,,,,,21,0,8,,,,7,,67,0
49632,note_on,,,,,6,0,12,,,,13,,65,127
49632,note_on,,,,,0,0,12,,,,13,,48,127
49632,note_on,,,,,0,0,12,,,,13,,74,127
49632,note_on,,,,,6,0,13,,,,14,,65,75
49632,note_on,,,,,6,0,9,,,,8,,71,75
49632,note_on,,,,,3,0,8,,,,7,,74,75
49653,note_off,,,,,21,0,8,,,,7,,74,0
49656,note_on,,,,,3,0,8,,,,7,,77,75
49674,note_off,,,,,42,0,13,,,,14,,65,0
49674,note_off,,,,,42,0,12,,,,13,,65,0
49674,note_off,,,,,0,0,12,,,,13,,74,0
49674,note_off,,,,,0,0,12,,,,13,,48,0
49674,note_off,,,,,42,0,9,,,,8,,71,0
49677,note_off,,,,,21,0,8,,,,7,,77,0
49680,note_on,,,,,3,0,8,,,,7,,76,75
49680,note_on,,,,,0,0,12,,,,13,,76,127
49680,note_on,,,,,6,0,12,,,,13,,67,127
49680,note_on,,,,,6,0,9,,,,8,,72,75
49680,note_on,,,,,0,0,12,,,,13,,48,127
49680,note_on,,,,,6,0,13,,,,14,,67,75
49701,note_off,,,,,21,0,8,,,,7,,76,0
49704,note_on,,,,,3,0,8,,,,7,,72,75
49722,note_off,,,,,42,0,12,,,,13,,67,0
49722,note_off,,,,,42,0,13,,,,14,,67,0
49722,note_off,,,,,42,0,9,,,,8,,72,0
49722,note_off,,,,,0,0,12,,,,13,,48,0
49722,note_off,,,,,0,0,12,,,,13,,76,0
49725,note_off,,,,,21,0,8,,,,7,,72,0
49728,note_on,,,,,6,0,13,,,,14,,65,75
49728,note_on,,,,,6,0,9,,,,8,,71,75
49728,note_on,,,,,0,0,12,,,,13,,74,127
49728,note_on,,,,,0,0,12,,,,13,,48,127
49728,note_on,,,,,6,0,12,,,,13,,65,127
49728,note_on,,,,,3,0,8,,,,7,,74,75
49749,note_off,,,,,21,0,8,,,,7,,74,0
49752,note_on,,,,,3,0,8,,,,7,,67,75
49770,note_off,,,,,42,0,9,,,,8,,71,0
49770,note_off,,,,,0,0,12,,,,13,,48,0
49770,note_off,,,,,0,0,12,,,,13,,74,0
49770,note_off,,,,,42,0,12,,,,13,,65,0
49770,note_off,,,,,42,0,13,,,,14,,65,0
49773,note_off,,,,,21,0,8,,,,7,,67,0
49776,note_on,,,,,0,0,12,,,,13,,48,127
49776,note_on,,,,,6,0,12,,,,13,,67,127
49776,note_on,,,,,6,0,9,,,,8,,72,75
49776,note_on,,,,,0,0,12,,,,13,,76,127
49776,note_on,,,,,3,0,8,,,,7,,76,75
49776,note_on,,,,,6,0,13,,,,14,,67,75
49797,note_off,,,,,21,0,8,,,,7,,76,0
49800,note_on,,,,,3,0,8,,,,7,,79,75
49818,note_off,,,,,42,0,12,,,,13,,67,0
49818,note_off,,,,,0,0,12,,,,13,,76,0
49818,note_off,,,,,0,0,12,,,,13,,48,0
49818,note_off,,,,,42,0,9,,,,8,,72,0
49818,note_off,,,,,42,0,13,,,,14,,67,0
49821,note_off,,,,,21,0,8,,,,7,,79,0
49824,note_on,,,,,3,0,8,,,,7,,77,75
49824,note_on,,,,,6,0,13,,,,14,,71,75
49824,note_on,,,,,6,0,9,,,,8,,74,75
49824,note_on,,,,,6,0,12,,,,13,,65,127
49824,note_on,,,,,0,0,12,,,,13,,74,127
49824,note_on,,,,,0,0,12,,,,13,,48,127
49845,note_off,,,,,21,0,8,,,,7,,77,0
49848,note_on,,,,,3,0,8,,,,7,,74,75
49866,note_off,,,,,0,0,12,,,,13,,48,0
49866,note_off,,,,,42,0,12,,,,13,,65,0
49866,note_off,,,,,42,0,9,,,,8,,74,0
49866,note_off,,,,,42,0,13,,,,14,,71,0
49866,note_off,,,,,0,0,12,,,,13,,74,0
49869,note_off,,,,,21,0,8,,,,7,,74,0
49872,note_on,,,,,3,0,8,,,,7,,76,75
49872,note_on,,,,,6,0,13,,,,14,,67,75
49872,note_on,,,,,6,0,9,,,,8,,72,75
49872,note_on,,,,,0,0,12,,,,13,,48,127
49872,note_on,,,,,0,0,12,,,,13,,76,127
49872,note_on,,,,,6,0,12,,,,13,,67,127
49893,note_off,,,,,21,0,8,,,,7,,76,0
49896,note_on,,,,,3,0,8,,,,7,,67,75
49914,note_off,,,,,0,0,12,,,,13,,48,0
49914,note_off,,,,,0,0,12,,,,13,,76,0
49914,note_off,,,,,42,0,12,,,,13,,67,0
49914,note_off,,,,,42,0,13,,,,14,,67,0
49914,note_off,,,,,42,0,9,,,,8,,72,0
49917,note_off,,,,,21,0,8,,,,7,,67,0
49920,note_on,,,,,6,0,13,,,,14,,67,75
49920,note_on,,,,,0,0,12,,,,13,,49,127
49920,note_on,,,,,6,0,12,,,,13,,67,127
49920,note_on,,,,,3,0,8,,,,7,,82,75
49920,note_on,,,,,6,0,9,,,,8,,76,75
49920,note_on,,,,,0,0,12,,,,13,,76,127
49962,note_off,,,,,42,0,8,,,,7,,82,0
49962,note_off,,,,,42,0,13,,,,14,,67,0
49962,note_off,,,,,42,0,9,,,,8,,76,0
49962,note_off,,,,,42,0,12,,,,13,,67,0
49962,note_off,,,,,0,0,12,,,,13,,76,0
49962,note_off,,,,,0,0,12,,,,13,,49,0
49968,note_on,,,,,0,0,12,,,,13,,76,127
49968,note_on,,,,,6,0,12,,,,13,,67,127
49968,note_on,,,,,0,0,12,,,,13,,49,127
49968,note_on,,,,,6,0,13,,,,14,,67,75
49968,note_on,,,,,6,0,8,,,,7,,82,75
49968,note_on,,,,,6,0,9,,,,8,,76,75
50010,note_off,,,,,42,0,12,,,,13,,67,0
50010,note_off,,,,,42,0,13,,,,14,,67,0
50010,note_off,,,,,0,0,12,,,,13,,76,0
50010,note_off,,,,,0,0,12,,,,13,,49,0
50010,note_off,,,,,42,0,9,,,,8,,76,0
50016,note_on,,,,,0,0,12,,,,13,,52,127
50016,note_on,,,,,6,0,12,,,,13,,67,127
50016,note_on,,,,,6,0,13,,,,14,,67,75
50016,note_on,,,,,6,0,9,,,,8,,74,75
50016,note_on,,,,,0,0,12,,,,13,,74,127
50031,note_off,,,,,63,0,8,,,,7,,82,0
50040,note_on,,,,,9,0,8,,,,7,,81,75
50058,note_off,,,,,0,0,12,,,,13,,74,0
50058,note_off,,,,,0,0,12,,,,13,,52,0
50058,note_off,,,,,42,0,9,,,,8,,74,0
50058,note_off,,,,,42,0,12,,,,13,,67,0
50058,note_off,,,,,42,0,13,,,,14,,67,0
50061,note_off,,,,,21,0,8,,,,7,,81,0
50064,note_on,,,,,0,0,12,,,,13,,76,127
50064,note_on,,,,,6,0,9,,,,8,,73,75
50064,note_on,,,,,0,0,12,,,,13,,45,127
50064,note_on,,,,,6,0,12,,,,13,,67,127
50064,note_on,,,,,6,0,13,,,,14,,64,75
50064,note_on,,,,,3,0,8,,,,7,,79,75
50085,note_off,,,,,21,0,8,,,,7,,79,0
50088,note_on,,,,,3,0,8,,,,7,,76,75
50106,note_off,,,,,42,0,9,,,,8,,73,0
50106,note_off,,,,,0,0,12,,,,13,,45,0
50106,note_off,,,,,0,0,12,,,,13,,76,0
50106,note_off,,,,,42,0,12,,,,13,,67,0
50106,note_off,,,,,42,0,13,,,,14,,64,0
50109,note_off,,,,,21,0,8,,,,7,,76,0
50112,note_on,,,,,6,0,12,,,,13,,65,127
50112,note_on,,,,,3,0,8,,,,7,,77,75
50112,note_on,,,,,0,0,12,,,,13,,74,127
50112,note_on,,,,,6,0,9,,,,8,,74,75
50112,note_on,,,,,6,0,13,,,,14,,69,75
50112,note_on,,,,,0,0,12,,,,13,,45,127
50133,note_off,,,,,21,0,8,,,,7,,77,0
50136,note_on,,,,,3,0,8,,,,7,,74,75
50154,note_off,,,,,42,0,12,,,,13,,65,0
50154,note_off,,,,,42,0,9,,,,8,,74,0
50154,note_off,,,,,0,0,12,,,,13,,45,0
50154,note_off,,,,,0,0,12,,,,13,,74,0
50154,note_off,,,,,42,0,13,,,,14,,69,0
50157,note_off,,,,,21,0,8,,,,7,,74,0
50160,note_on,,,,,6,0,13,,,,14,,64,75
50160,note_on,,,,,0,0,12,,,,13,,45,127
50160,note_on,,,,,0,0,12,,,,13,,73,127
50160,note_on,,,,,6,0,12,,,,13,,64,127
50160,note_on,,,,,3,0,8,,,,7,,73,75
50160,note_on,,,,,6,0,9,,,,8,,69,75
50181,note_off,,,,,21,0,8,,,,7,,73,0
50184,note_on,,,,,3,0,8,,,,7,,69,75
50202,note_off,,,,,42,0,9,,,,8,,69,0
50202,note_off,,,,,42,0,13,,,,14,,64,0
50202,note_off,,,,,0,0,12,,,,13,,73,0
50202,note_off,,,,,42,0,12,,,,13,,64,0
50202,note_off,,,,,0,0,12,,,,13,,45,0
50205,note_off,,,,,21,0,8,,,,7,,69,0
50208,note_on,,,,,6,0,12,,,,13,,67,127
50208,note_on,,,,,0,0,12,,,,13,,73,127
50208,note_on,,,,,0,0,12,,,,13,,45,127
50208,note_on,,,,,3,0,8,,,,7,,70,75
50208,note_on,,,,,6,0,9,,,,8,,67,75
50208,note_on,,,,,6,0,13,,,,14,,61,75
50229,note_off,,,,,21,0,8,,,,7,,70,0
50232,note_on,,,,,3,0,8,,,,7,,67,75
50250,note_off,,,,,42,0,9,,,,8,,67,0
50250,note_off,,,,,42,0,13,,,,14,,61,0
50250,note_off,,,,,0,0,12,,,,13,,73,0
50250,note_off,,,,,42,0,12,,,,13,,67,0
50250,note_off,,,,,0,0,12,,,,13,,45,0
50253,note_off,,,,,21,0,8,,,,7,,67,0
50256,note_on,,,,,6,0,9,,,,8,,65,75
50256,note_on,,,,,3,0,8,,,,7,,69,75
50256,note_on,,,,,6,0,12,,,,13,,65,127
50256,note_on,,,,,0,0,12,,,,13,,73,127
50256,note_on,,,,,6,0,13,,,,14,,57,75
50256,note_on,,,,,0,0,12,,,,13,,45,127
50277,note_off,,,,,21,0,8,,,,7,,69,0
50280,note_on,,,,,3,0,8,,,,7,,65,75
50298,note_off,,,,,42,0,13,,,,14,,57,0
50298,note_off,,,,,0,0,12,,,,13,,45,0
50298,note_off,,,,,42,0,12,,,,13,,65,0
50298,note_off,,,,,0,0,12,,,,13,,73,0
50298,note_off,,,,,42,0,9,,,,8,,65,0
50301,note_off,,,,,21,0,8,,,,7,,65,0
50304,note_on,,,,,3,0,8,,,,7,,64,75
50304,note_on,,,,,6,0,9,,,,8,,61,75
50304,note_on,,,,,0,0,12,,,,13,,45,127
50304,note_on,,,,,0,0,12,,,,13,,73,127
50304,note_on,,,,,6,0,13,,,,14,,57,75
50304,note_on,,,,,6,0,12,,,,13,,64,127
50325,note_off,,,,,21,0,8,,,,7,,64,0
50328,note_on,,,,,3,0,8,,,,7,,67,75
50346,note_off,,,,,42,0,12,,,,13,,64,0
50346,note_off,,,,,0,0,12,,,,13,,73,0
50346,note_off,,,,,0,0,12,,,,13,,45,0
50346,note_off,,,,,42,0,13,,,,14,,57,0
50346,note_off,,,,,42,0,9,,,,8,,61,0
50349,note_off,,,,,21,0,8,,,,7,,67,0
50352,note_on,,,,,6,0,13,,,,14,,57,75
50352,note_on,,,,,0,0,12,,,,13,,50,127
50352,note_on,,,,,6,0,12,,,,13,,69,127
50352,note_on,,,,,0,0,12,,,,13,,77,127
50352,note_on,,,,,3,0,8,,,,7,,65,75
50352,note_on,,,,,6,0,9,,,,8,,62,75
50373,note_off,,,,,21,0,8,,,,7,,65,0
50376,note_on,,,,,3,0,8,,,,7,,70,75
50394,note_off,,,,,42,0,13,,,,14,,57,0
50394,note_off,,,,,42,0,12,,,,13,,69,0
50394,note_off,,,,,0,0,12,,,,13,,77,0
50394,note_off,,,,,42,0,9,,,,8,,62,0
50394,note_off,,,,,0,0,12,,,,13,,50,0
50397,note_off,,,,,21,0,8,,,,7,,70,0
50400,note_on,,,,,3,0,8,,,,7,,69,75
50400,note_on,,,,,6,0,12,,,,13,,69,127
50400,note_on,,,,,0,0,12,,,,13,,74,127
50400,note_on,,,,,6,0,13,,,,14,,57,75
50400,note_on,,,,,0,0,12,,,,13,,41,127
50400,note_on,,,,,6,0,9,,,,8,,62,75
50421,note_off,,,,,21,0,9,,,,8,,62,0
50421,note_off,,,,,21,0,8,,,,7,,69,0
50424,note_on,,,,,3,0,9,,,,8,,65,75
50424,note_on,,,,,3,0,8,,,,7,,74,75
50442,note_off,,,,,42,0,12,,,,13,,69,0
50442,note_off,,,,,0,0,12,,,,13,,74,0
50442,note_off,,,,,0,0,12,,,,13,,41,0
50442,note_off,,,,,42,0,13,,,,14,,57,0
50445,note_off,,,,,21,0,8,,,,7,,74,0
50445,note_off,,,,,21,0,9,,,,8,,65,0
50448,note_on,,,,,6,0,13,,,,14,,57,75
50448,note_on,,,,,3,0,8,,,,7,,73,75
50448,note_on,,,,,6,0,12,,,,13,,64,127
50448,note_on,,,,,3,0,9,,,,8,,64,75
50448,note_on,,,,,0,0,12,,,,13,,45,127
50448,note_on,,,,,0,0,12,,,,13,,73,127
50469,note_off,,,,,21,0,8,,,,7,,73,0
50469,note_off,,,,,21,0,9,,,,8,,64,0
50472,note_on,,,,,3,0,8,,,,7,,77,75
50472,note_on,,,,,3,0,9,,,,8,,69,75
50490,note_off,,,,,42,0,13,,,,14,,57,0
50490,note_off,,,,,42,0,12,,,,13,,64,0
50490,note_off,,,,,0,0,12,,,,13,,73,0
50490,note_off,,,,,0,0,12,,,,13,,45,0
50493,note_off,,,,,21,0,9,,,,8,,69,0
50493,note_off,,,,,21,0,8,,,,7,,77,0
50496,note_on,,,,,6,0,13,,,,14,,57,75
50496,note_on,,,,,3,0,8,,,,7,,76,75
50496,note_on,,,,,0,0,12,,,,13,,76,127
50496,note_on,,,,,3,0,9,,,,8,,67,75
50496,note_on,,,,,0,0,12,,,,13,,38,127
50496,note_on,,,,,6,0,12,,,,13,,69,127
50517,note_off,,,,,21,0,8,,,,7,,76,0
50517,note_off,,,,,21,0,9,,,,8,,67,0
50520,note_on,,,,,3,0,9,,,,8,,64,75
50520,note_on,,,,,3,0,8,,,,7,,73,75
50538,note_off,,,,,0,0,12,,,,13,,38,0
50538,note_off,,,,,0,0,12,,,,13,,76,0
50538,note_off,,,,,42,0,13,,,,14,,57,0
50538,note_off,,,,,42,0,12,,,,13,,69,0
50541,note_off,,,,,21,0,8,,,,7,,73,0
50541,note_off,,,,,21,0,9,,,,8,,64,0
50544,note_on,,,,,6,0,13,,,,14,,57,75
50544,note_on,,,,,3,0,8,,,,7,,74,75
50544,note_on,,,,,0,0,12,,,,13,,50,127
50544,note_on,,,,,3,0,9,,,,8,,65,75
50544,note_on,,,,,0,0,12,,,,13,,77,127
50544,note_on,,,,,6,0,12,,,,13,,69,127
50586,note_off,,,,,0,0,12,,,,13,,77,0
50586,note_off,,,,,42,0,12,,,,13,,69,0
50586,note_off,,,,,42,0,13,,,,14,,57,0
50586,note_off,,,,,0,0,12,,,,13,,50,0
50586,note_off,,,,,42,0,9,,,,8,,65,0
50592,note_on,,,,,6,0,13,,,,14,,57,75
50592,note_on,,,,,6,0,9,,,,8,,65,75
50592,note_on,,,,,0,0,12,,,,13,,72,127
50592,note_on,,,,,6,0,12,,,,13,,65,127
50592,note_on,,,,,0,0,12,,,,13,,48,127
50607,note_off,,,,,63,0,8,,,,7,,74,0
50616,note_on,,,,,9,0,8,,,,7,,77,75
50634,note_off,,,,,42,0,12,,,,13,,65,0
50634,note_off,,,,,0,0,12,,,,13,,72,0
50634,note_off,,,,,0,0,12,,,,13,,48,0
50634,note_off,,,,,42,0,13,,,,14,,57,0
50634,note_off,,,,,42,0,9,,,,8,,65,0
50637,note_off,,,,,21,0,8,,,,7,,77,0
50640,note_on,,,,,6,0,12,,,,13,,62,127
50640,note_on,,,,,0,0,12,,,,13,,46,127
50640,note_on,,,,,6,0,9,,,,8,,70,127
50640,note_on,,,,,0,0,12,,,,13,,70,127
50640,note_on,,,,,3,0,8,,,,7,,77,127
50640,note_on,,,,,6,0,13,,,,14,,62,127
50659,note_off,,,,,19,0,13,,,,14,,62,0
50659,note_off,,,,,0,0,12,,,,13,,46,0
50659,note_off,,,,,0,0,12,,,,13,,70,0
50659,note_off,,,,,19,0,12,,,,13,,62,0
50659,note_off,,,,,19,0,9,,,,8,,70,0
50661,note_off,,,,,21,0,8,,,,7,,77,0
50664,note_on,,,,,3,0,8,,,,7,,75,127
50674,note_off,,,,,10,0,8,,,,7,,75,0
50676,note_on,,,,,2,0,8,,,,7,,74,127
50686,note_off,,,,,10,0,8,,,,7,,74,0
50688,note_on,,,,,29,0,12,,,,13,,60,127
50688,note_on,,,,,29,0,13,,,,14,,60,127
50688,note_on,,,,,0,0,12,,,,13,,69,127
50688,note_on,,,,,0,0,12,,,,13,,46,127
50688,note_on,,,,,29,0,9,,,,8,,69,127
50688,note_on,,,,,2,0,8,,,,7,,75,127
50707,note_off,,,,,19,0,9,,,,8,,69,0
50707,note_off,,,,,19,0,13,,,,14,,60,0
50707,note_off,,,,,0,0,12,,,,13,,46,0
50707,note_off,,,,,0,0,12,,,,13,,69,0
50707,note_off,,,,,19,0,12,,,,13,,60,0
50709,note_off,,,,,21,0,8,,,,7,,75,0
50712,note_on,,,,,3,0,8,,,,7,,74,127
50722,note_off,,,,,10,0,8,,,,7,,74,0
50724,note_on,,,,,2,0,8,,,,7,,72,127
50734,note_off,,,,,10,0,8,,,,7,,72,0
50736,note_on,,,,,29,0,9,,,,8,,67,127
50736,note_on,,,,,0,0,12,,,,13,,67,127
50736,note_on,,,,,29,0,12,,,,13,,58,127
50736,note_on,,,,,0,0,12,,,,13,,46,127
50736,note_on,,,,,2,0,8,,,,7,,74,127
50736,note_on,,,,,29,0,13,,,,14,,58,127
50755,note_off,,,,,19,0,13,,,,14,,58,0
50755,note_off,,,,,19,0,9,,,,8,,67,0
50755,note_off,,,,,19,0,12,,,,13,,58,0
50755,note_off,,,,,0,0,12,,,,13,,67,0
50755,note_off,,,,,0,0,12,,,,13,,46,0
50757,note_off,,,,,21,0,8,,,,7,,74,0
50760,note_on,,,,,3,0,8,,,,7,,72,127
50770,note_off,,,,,10,0,8,,,,7,,72,0
50772,note_on,,,,,2,0,8,,,,7,,70,127
50782,note_off,,,,,10,0,8,,,,7,,70,0
50784,note_on,,,,,29,0,9,,,,8,,69,127
50784,note_on,,,,,2,0,8,,,,7,,72,127
50784,note_on,,,,,29,0,12,,,,13,,63,127
50784,note_on,,,,,29,0,13,,,,14,,63,127
50784,note_on,,,,,0,0,12,,,,13,,69,127
50784,note_on,,,,,0,0,12,,,,13,,46,127
50803,note_off,,,,,19,0,12,,,,13,,63,0
50803,note_off,,,,,19,0,9,,,,8,,69,0
50803,note_off,,,,,0,0,12,,,,13,,46,0
50803,note_off,,,,,0,0,12,,,,13,,69,0
50803,note_off,,,,,19,0,13,,,,14,,63,0
50805,note_off,,,,,21,0,8,,,,7,,72,0
50808,note_on,,,,,3,0,8,,,,7,,74,127
50818,note_off,,,,,10,0,8,,,,7,,74,0
50820,note_on,,,,,2,0,8,,,,7,,75,127
50830,note_off,,,,,10,0,8,,,,7,,75,0
50832,note_on,,,,,2,0,8,,,,7,,74,127
50832,note_on,,,,,0,0,12,,,,13,,70,127
50832,note_on,,,,,0,0,12,,,,13,,46,127
50832,note_on,,,,,29,0,12,,,,13,,65,127
50832,note_on,,,,,29,0,13,,,,14,,65,127
50832,note_on,,,,,29,0,9,,,,8,,70,127
50851,note_off,,,,,0,0,12,,,,13,,46,0
50851,note_off,,,,,0,0,12,,,,13,,70,0
50851,note_off,,,,,19,0,12,,,,13,,65,0
50851,note_off,,,,,19,0,13,,,,14,,65,0
50851,note_off,,,,,19,0,9,,,,8,,70,0
50853,note_off,,,,,21,0,8,,,,7,,74,0
50856,note_on,,,,,3,0,8,,,,7,,72,127
50866,note_off,,,,,10,0,8,,,,7,,72,0
50868,note_on,,,,,2,0,8,,,,7,,70,127
50878,note_off,,,,,10,0,8,,,,7,,70,0
50880,note_on,,,,,0,0,12,,,,13,,69,127
50880,note_on,,,,,29,0,12,,,,13,,63,127
50880,note_on,,,,,29,0,13,,,,14,,63,127
50880,note_on,,,,,29,0,9,,,,8,,69,127
50880,note_on,,,,,2,0,8,,,,7,,72,127
50880,note_on,,,,,0,0,12,,,,13,,46,127
50899,note_off,,,,,19,0,9,,,,8,,69,0
50899,note_off,,,,,0,0,12,,,,13,,69,0
50899,note_off,,,,,0,0,12,,,,13,,46,0
50899,note_off,,,,,19,0,12,,,,13,,63,0
50899,note_off,,,,,19,0,13,,,,14,,63,0
50901,note_off,,,,,21,0,8,,,,7,,72,0
50904,note_on,,,,,3,0,8,,,,7,,70,127
50914,note_off,,,,,10,0,8,,,,7,,70,0
50916,note_on,,,,,2,0,8,,,,7,,69,127
50926,note_off,,,,,10,0,8,,,,7,,69,0
50928,note_on,,,,,29,0,12,,,,13,,67,127
50928,note_on,,,,,29,0,9,,,,8,,67,127
50928,note_on,,,,,29,0,13,,,,14,,62,127
50928,note_on,,,,,0,0,12,,,,13,,46,127
50928,note_on,,,,,2,0,8,,,,7,,70,127
50928,note_on,,,,,0,0,12,,,,13,,74,127
50947,note_off,,,,,19,0,9,,,,8,,67,0
50947,note_off,,,,,0,0,12,,,,13,,46,0
50947,note_off,,,,,19,0,13,,,,14,,62,0
50947,note_off,,,,,19,0,12,,,,13,,67,0
50947,note_off,,,,,0,0,12,,,,13,,74,0
50949,note_off,,,,,21,0,8,,,,7,,70,0
50952,note_on,,,,,3,0,8,,,,7,,69,127
50962,note_off,,,,,10,0,8,,,,7,,69,0
50964,note_on,,,,,2,0,8,,,,7,,67,127
50974,note_off,,,,,10,0,8,,,,7,,67,0
50976,note_on,,,,,2,0,8,,,,7,,69,127
50976,note_on,,,,,29,0,12,,,,13,,65,127
50976,note_on,,,,,0,0,12,,,,13,,46,127
50976,note_on,,,,,29,0,13,,,,14,,62,127
50976,note_on,,,,,0,0,12,,,,13,,74,127
50976,note_on,,,,,29,0,9,,,,8,,65,127
50995,note_off,,,,,19,0,13,,,,14,,62,0
50995,note_off,,,,,19,0,9,,,,8,,65,0
50995,note_off,,,,,0,0,12,,,,13,,74,0
50995,note_off,,,,,19,0,12,,,,13,,65,0
50995,note_off,,,,,0,0,12,,,,13,,46,0
50997,note_off,,,,,21,0,8,,,,7,,69,0
51000,note_on,,,,,3,0,8,,,,7,,70,127
51010,note_off,,,,,10,0,8,,,,7,,70,0
51012,note_on,,,,,2,0,8,,,,7,,72,127
51022,note_off,,,,,10,0,8,,,,7,,72,0
51024,note_on,,,,,0,0,12,,,,13,,46,127
51024,note_on,,,,,29,0,12,,,,13,,67,127
51024,note_on,,,,,2,0,8,,,,7,,70,127
51024,note_on,,,,,0,0,12,,,,13,,76,127
51024,note_on,,,,,29,0,13,,,,14,,64,127
51024,note_on,,,,,29,0,9,,,,8,,67,127
51043,note_off,,,,,19,0,9,,,,8,,67,0
51043,note_off,,,,,0,0,12,,,,13,,46,0
51043,note_off,,,,,0,0,12,,,,13,,76,0
51043,note_off,,,,,19,0,13,,,,14,,64,0
51043,note_off,,,,,19,0,12,,,,13,,67,0
51045,note_off,,,,,21,0,8,,,,7,,70,0
51048,note_on,,,,,3,0,8,,,,7,,69,127
51058,note_off,,,,,10,0,8,,,,7,,69,0
51060,note_on,,,,,2,0,8,,,,7,,67,127
51070,note_off,,,,,10,0,8,,,,7,,67,0
51072,note_on,,,,,29,0,13,,,,14,,65,127
51072,note_on,,,,,29,0,12,,,,13,,65,127
51072,note_on,,,,,2,0,8,,,,7,,69,127
51072,note_on,,,,,0,0,12,,,,13,,47,127
51072,note_on,,,,,29,0,9,,,,8,,62,127
51072,note_on,,,,,0,0,12,,,,13,,74,127
51091,note_off,,,,,19,0,13,,,,14,,65,0
51091,note_off,,,,,19,0,9,,,,8,,62,0
51091,note_off,,,,,0,0,12,,,,13,,74,0
51091,note_off,,,,,19,0,12,,,,13,,65,0
51093,note_off,,,,,21,0,8,,,,7,,69,0
51096,note_on,,,,,3,0,8,,,,7,,67,127
51106,note_off,,,,,10,0,8,,,,7,,67,0
51108,note_on,,,,,2,0,8,,,,7,,65,127
51114,note_off,,,,,23,0,12,,,,13,,47,0
51118,note_off,,,,,10,0,8,,,,7,,65,0
51120,note_on,,,,,0,0,12,,,,13,,48,127
51120,note_on,,,,,2,0,8,,,,7,,64,127
51120,note_on,,,,,29,0,9,,,,8,,55,127
51120,note_on,,,,,6,0,12,,,,13,,67,127
51120,note_on,,,,,29,0,13,,,,14,,60,127
51120,note_on,,,,,0,0,12,,,,13,,72,127
51139,note_off,,,,,19,0,13,,,,14,,60,0
51139,note_off,,,,,19,0,9,,,,8,,55,0
51139,note_off,,,,,19,0,12,,,,13,,67,0
51139,note_off,,,,,0,0,12,,,,13,,72,0
51141,note_off,,,,,2,0,12,,,,13,,48,0
51141,note_off,,,,,21,0,8,,,,7,,64,0
51144,note_on,,,,,3,0,12,,,,13,,50,127
51144,note_on,,,,,3,0,8,,,,7,,65,127
51154,note_off,,,,,10,0,8,,,,7,,65,0
51156,note_on,,,,,2,0,8,,,,7,,67,127
51165,note_off,,,,,21,0,12,,,,13,,50,0
51166,note_off,,,,,10,0,8,,,,7,,67,0
51168,note_on,,,,,3,0,12,,,,13,,67,127
51168,note_on,,,,,0,0,12,,,,13,,69,127
51168,note_on,,,,,0,0,12,,,,13,,52,127
51168,note_on,,,,,2,0,8,,,,7,,60,127
51168,note_on,,,,,29,0,9,,,,8,,55,127
51168,note_on,,,,,29,0,13,,,,14,,55,127
51187,note_off,,,,,19,0,13,,,,14,,55,0
51187,note_off,,,,,19,0,12,,,,13,,67,0
51187,note_off,,,,,0,0,12,,,,13,,69,0
51187,note_off,,,,,19,0,9,,,,8,,55,0
51189,note_off,,,,,21,0,8,,,,7,,60,0
51189,note_off,,,,,2,0,12,,,,13,,52,0
51192,note_on,,,,,3,0,8,,,,7,,58,127
51192,note_on,,,,,3,0,12,,,,13,,48,127
51213,note_off,,,,,21,0,8,,,,7,,58,0
51213,note_off,,,,,21,0,12,,,,13,,48,0
51216,note_on,,,,,3,0,8,,,,7,,57,75
51216,note_on,,,,,0,0,12,,,,13,,53,127
51216,note_on,,,,,0,0,12,,,,13,,72,127
51216,note_on,,,,,3,0,12,,,,13,,65,127
51216,note_on,,,,,29,0,13,,,,14,,53,75
51216,note_on,,,,,29,0,9,,,,8,,57,75
51235,note_off,,,,,19,0,9,,,,8,,57,0
51237,note_off,,,,,21,0,13,,,,14,,53,0
51237,note_off,,,,,21,0,8,,,,7,,57,0
51240,note_on,,,,,3,0,8,,,,7,,60,75
51240,note_on,,,,,3,0,13,,,,14,,57,75
51258,note_off,,,,,42,0,12,,,,13,,65,0
51258,note_off,,,,,0,0,12,,,,13,,72,0
51258,note_off,,,,,0,0,12,,,,13,,53,0
51261,note_off,,,,,21,0,13,,,,14,,57,0
51261,note_off,,,,,21,0,8,,,,7,,60,0
51264,note_on,,,,,0,0,12,,,,13,,53,127
51264,note_on,,,,,3,0,8,,,,7,,58,75
51264,note_on,,,,,0,0,12,,,,13,,67,127
51264,note_on,,,,,3,0,13,,,,14,,55,75
51264,note_on,,,,,6,0,12,,,,13,,58,127
51285,note_off,,,,,21,0,13,,,,14,,55,0
51285,note_off,,,,,21,0,8,,,,7,,58,0
51288,note_on,,,,,3,0,8,,,,7,,55,75
51288,note_on,,,,,3,0,13,,,,14,,52,75
51306,note_off,,,,,0,0,12,,,,13,,53,0
51306,note_off,,,,,0,0,12,,,,13,,67,0
51306,note_off,,,,,42,0,12,,,,13,,58,0
51309,note_off,,,,,21,0,13,,,,14,,52,0
51309,note_off,,,,,21,0,8,,,,7,,55,0
51312,note_on,,,,,0,0,12,,,,13,,65,127
51312,note_on,,,,,0,0,12,,,,13,,53,127
51312,note_on,,,,,3,0,13,,,,14,,53,75
51312,note_on,,,,,3,0,8,,,,7,,57,75
51312,note_on,,,,,6,0,12,,,,13,,57,127
51333,note_off,,,,,21,0,13,,,,14,,53,0
51333,note_off,,,,,21,0,8,,,,7,,57,0
51336,note_on,,,,,3,0,13,,,,14,,57,75
51336,note_on,,,,,3,0,8,,,,7,,60,75
51354,note_off,,,,,0,0,12,,,,13,,65,0
51354,note_off,,,,,42,0,12,,,,13,,57,0
51354,note_off,,,,,0,0,12,,,,13,,53,0
51357,note_off,,,,,21,0,13,,,,14,,57,0
51357,note_off,,,,,21,0,8,,,,7,,60,0
51360,note_on,,,,,0,0,12,,,,13,,50,127
51360,note_on,,,,,0,0,12,,,,13,,74,127
51360,note_on,,,,,6,0,12,,,,13,,65,127
51360,note_on,,,,,3,0,8,,,,7,,65,75
51360,note_on,,,,,125,0,9,,,,8,,57,75
51360,note_on,,,,,3,0,13,,,,14,,62,75
51381,note_off,,,,,21,0,13,,,,14,,62,0
51381,note_off,,,,,21,0,9,,,,8,,57,0
51381,note_off,,,,,21,0,8,,,,7,,65,0
51384,note_on,,,,,3,0,9,,,,8,,62,75
51384,note_on,,,,,3,0,13,,,,14,,65,75
51384,note_on,,,,,3,0,8,,,,7,,69,75
51402,note_off,,,,,0,0,12,,,,13,,50,0
51402,note_off,,,,,0,0,12,,,,13,,74,0
51402,note_off,,,,,42,0,12,,,,13,,65,0
51405,note_off,,,,,21,0,9,,,,8,,62,0
51405,note_off,,,,,21,0,13,,,,14,,65,0
51405,note_off,,,,,21,0,8,,,,7,,69,0
51408,note_on,,,,,0,0,12,,,,13,,73,127
51408,note_on,,,,,3,0,8,,,,7,,67,75
51408,note_on,,,,,3,0,13,,,,14,,64,75
51408,note_on,,,,,3,0,9,,,,8,,58,75
51408,note_on,,,,,0,0,12,,,,13,,50,127
51408,note_on,,,,,6,0,12,,,,13,,67,127
51429,note_off,,,,,21,0,13,,,,14,,64,0
51429,note_off,,,,,21,0,9,,,,8,,58,0
51429,note_off,,,,,21,0,8,,,,7,,67,0
51432,note_on,,,,,3,0,9,,,,8,,55,75
51432,note_on,,,,,3,0,8,,,,7,,64,75
51432,note_on,,,,,3,0,13,,,,14,,61,75
51450,note_off,,,,,0,0,12,,,,13,,73,0
51450,note_off,,,,,0,0,12,,,,13,,50,0
51450,note_off,,,,,42,0,12,,,,13,,67,0
51453,note_off,,,,,21,0,13,,,,14,,61,0
51453,note_off,,,,,21,0,9,,,,8,,55,0
51453,note_off,,,,,21,0,8,,,,7,,64,0
51456,note_on,,,,,3,0,13,,,,14,,62,75
51456,note_on,,,,,3,0,9,,,,8,,57,75
51456,note_on,,,,,3,0,8,,,,7,,65,75
51456,note_on,,,,,6,0,12,,,,13,,69,127
51456,note_on,,,,,0,0,12,,,,13,,77,127
51456,note_on,,,,,0,0,12,,,,13,,50,127
51477,note_off,,,,,21,0,13,,,,14,,62,0
51477,note_off,,,,,21,0,8,,,,7,,65,0
51477,note_off,,,,,21,0,9,,,,8,,57,0
51480,note_on,,,,,3,0,13,,,,14,,65,75
51480,note_on,,,,,3,0,8,,,,7,,69,75
51480,note_on,,,,,3,0,9,,,,8,,62,75
51498,note_off,,,,,0,0,12,,,,13,,50,0
51498,note_off,,,,,0,0,12,,,,13,,77,0
51498,note_off,,,,,42,0,12,,,,13,,69,0
51501,note_off,,,,,21,0,13,,,,14,,65,0
51501,note_off,,,,,21,0,9,,,,8,,62,0
51501,note_off,,,,,21,0,8,,,,7,,69,0
51504,note_on,,,,,3,0,13,,,,14,,53,75
51504,note_on,,,,,0,0,12,,,,13,,72,127
51504,note_on,,,,,3,0,9,,,,8,,60,75
51504,note_on,,,,,0,0,12,,,,13,,45,127
51504,note_on,,,,,6,0,12,,,,13,,65,127
51504,note_on,,,,,3,0,8,,,,7,,72,75
51546,note_off,,,,,42,0,9,,,,8,,60,0
51546,note_off,,,,,42,0,12,,,,13,,65,0
51546,note_off,,,,,42,0,8,,,,7,,72,0
51546,note_off,,,,,0,0,12,,,,13,,45,0
51546,note_off,,,,,0,0,12,,,,13,,72,0
51546,note_off,,,,,42,0,13,,,,14,,53,0
51552,note_on,,,,,6,0,13,,,,14,,53,75
51552,note_on,,,,,0,0,12,,,,13,,46,127
51552,note_on,,,,,0,0,12,,,,13,,74,127
51552,note_on,,,,,6,0,8,,,,7,,70,75
51552,note_on,,,,,6,0,12,,,,13,,65,127
51552,note_on,,,,,6,0,9,,,,8,,62,75
51573,note_off,,,,,21,0,9,,,,8,,62,0
51573,note_off,,,,,21,0,8,,,,7,,70,0
51576,note_on,,,,,3,0,9,,,,8,,60,75
51576,note_on,,,,,3,0,8,,,,7,,69,75
51594,note_off,,,,,42,0,12,,,,13,,65,0
51594,note_off,,,,,0,0,12,,,,13,,46,0
51594,note_off,,,,,42,0,13,,,,14,,53,0
51594,note_off,,,,,0,0,12,,,,13,,74,0
51597,note_off,,,,,21,0,9,,,,8,,60,0
51597,note_off,,,,,21,0,8,,,,7,,69,0
51600,note_on,,,,,0,0,12,,,,13,,48,127
51600,note_on,,,,,0,0,12,,,,13,,76,127
51600,note_on,,,,,6,0,12,,,,13,,67,127
51600,note_on,,,,,3,0,9,,,,8,,58,75
51600,note_on,,,,,3,0,8,,,,7,,67,75
51600,note_on,,,,,6,0,13,,,,14,,52,75
51621,note_off,,,,,21,0,8,,,,7,,67,0
51621,note_off,,,,,21,0,9,,,,8,,58,0
51624,note_on,,,,,3,0,8,,,,7,,65,75
51624,note_on,,,,,3,0,9,,,,8,,57,75
51642,note_off,,,,,42,0,12,,,,13,,67,0
51642,note_off,,,,,0,0,12,,,,13,,76,0
51642,note_off,,,,,0,0,12,,,,13,,48,0
51642,note_off,,,,,42,0,13,,,,14,,52,0
51645,note_off,,,,,21,0,8,,,,7,,65,0
51645,note_off,,,,,21,0,9,,,,8,,57,0
51648,note_on,,,,,3,0,9,,,,8,,58,75
51648,note_on,,,,,0,0,12,,,,13,,72,127
51648,note_on,,,,,0,0,12,,,,13,,41,127
51648,note_on,,,,,6,0,13,,,,14,,48,75
51648,note_on,,,,,3,0,8,,,,7,,67,75
51648,note_on,,,,,6,0,12,,,,13,,67,127
51669,note_off,,,,,21,0,9,,,,8,,58,0
51669,note_off,,,,,21,0,12,,,,13,,41,0
51669,note_off,,,,,21,0,8,,,,7,,67,0
51672,note_on,,,,,3,0,9,,,,8,,55,75
51672,note_on,,,,,3,0,8,,,,7,,64,75
51672,note_on,,,,,3,0,12,,,,13,,57,127
51690,note_off,,,,,42,0,13,,,,14,,48,0
51690,note_off,,,,,0,0,12,,,,13,,72,0
51690,note_off,,,,,18,0,12,,,,13,,67,0
51693,note_off,,,,,21,0,8,,,,7,,64,0
51693,note_off,,,,,3,0,12,,,,13,,57,0
51693,note_off,,,,,21,0,9,,,,8,,55,0
51696,note_on,,,,,6,0,13,,,,14,,48,75
51696,note_on,,,,,3,0,9,,,,8,,57,75
51696,note_on,,,,,0,0,12,,,,13,,55,127
51696,note_on,,,,,3,0,12,,,,13,,65,127
51696,note_on,,,,,3,0,8,,,,7,,65,75
51696,note_on,,,,,0,0,12,,,,13,,72,127
51717,note_off,,,,,21,0,12,,,,13,,55,0
51720,note_on,,,,,3,0,12,,,,13,,53,127
51727,note_off,,,,,31,0,13,,,,14,,48,0
51727,note_off,,,,,31,0,8,,,,7,,65,0
51727,note_off,,,,,0,0,12,,,,13,,72,0
51727,note_off,,,,,31,0,9,,,,8,,57,0
51727,note_off,,,,,7,0,12,,,,13,,65,0
51741,note_off,,,,,14,0,12,,,,13,,53,0
51744,note_on,,,,,17,0,9,,,,8,,64,75
51744,note_on,,,,,0,0,12,,,,13,,72,127
51744,note_on,,,,,17,0,13,,,,14,,60,75
51744,note_on,,,,,17,0,8,,,,7,,67,75
51744,note_on,,,,,0,0,12,,,,13,,52,127
51744,note_on,,,,,3,0,12,,,,13,,67,127
51765,note_off,,,,,21,0,12,,,,13,,52,0
51768,note_on,,,,,3,0,12,,,,13,,50,127
51786,note_off,,,,,42,0,9,,,,8,,64,0
51786,note_off,,,,,42,0,8,,,,7,,67,0
51786,note_off,,,,,18,0,12,,,,13,,67,0
51786,note_off,,,,,0,0,12,,,,13,,72,0
51786,note_off,,,,,42,0,13,,,,14,,60,0
51789,note_off,,,,,3,0,12,,,,13,,50,0
51792,note_on,,,,,6,0,9,,,,8,,67,75
51792,note_on,,,,,6,0,8,,,,7,,72,75
51792,note_on,,,,,3,0,12,,,,13,,67,127
51792,note_on,,,,,0,0,12,,,,13,,76,127
51792,note_on,,,,,0,0,12,,,,13,,48,127
51792,note_on,,,,,6,0,13,,,,14,,64,75
51813,note_off,,,,,21,0,8,,,,7,,72,0
51816,note_on,,,,,3,0,8,,,,7,,76,75
51834,note_off,,,,,42,0,9,,,,8,,67,0
51834,note_off,,,,,42,0,13,,,,14,,64,0
51834,note_off,,,,,42,0,12,,,,13,,67,0
51834,note_off,,,,,0,0,12,,,,13,,48,0
51834,note_off,,,,,0,0,12,,,,13,,76,0
51837,note_off,,,,,21,0,8,,,,7,,76,0
51840,note_on,,,,,6,0,12,,,,13,,65,127
51840,note_on,,,,,0,0,12,,,,13,,74,127
51840,note_on,,,,,0,0,12,,,,13,,48,127
51840,note_on,,,,,6,0,9,,,,8,,71,75
51840,note_on,,,,,3,0,8,,,,7,,74,75
51840,note_on,,,,,6,0,13,,,,14,,65,75
51861,note_off,,,,,21,0,8,,,,7,,74,0
51864,note_on,,,,,3,0,8,,,,7,,71,75
51882,note_off,,,,,42,0,13,,,,14,,65,0
51882,note_off,,,,,0,0,12,,,,13,,74,0
51882,note_off,,,,,42,0,9,,,,8,,71,0
51882,note_off,,,,,0,0,12,,,,13,,48,0
51882,note_off,,,,,42,0,12,,,,13,,65,0
51885,note_off,,,,,21,0,8,,,,7,,71,0
51888,note_on,,,,,3,0,8,,,,7,,72,75
51888,note_on,,,,,0,0,12,,,,13,,48,127
51888,note_on,,,,,6,0,13,,,,14,,64,75
51888,note_on,,,,,6,0,9,,,,8,,67,75
51888,note_on,,,,,6,0,12,,,,13,,67,127
51888,note_on,,,,,0,0,12,,,,13,,76,127
51909,note_off,,,,,21,0,8,,,,7,,72,0
51912,note_on,,,,,3,0,8,,,,7,,67,75
51930,note_off,,,,,42,0,13,,,,14,,64,0
51930,note_off,,,,,42,0,9,,,,8,,67,0
51930,note_off,,,,,0,0,12,,,,13,,48,0
51930,note_off,,,,,0,0,12,,,,13,,76,0
51930,note_off,,,,,42,0,12,,,,13,,67,0
51933,note_off,,,,,21,0,8,,,,7,,67,0
51936,note_on,,,,,0,0,12,,,,13,,74,127
51936,note_on,,,,,0,0,12,,,,13,,48,127
51936,note_on,,,,,6,0,12,,,,13,,65,127
51936,note_on,,,,,3,0,8,,,,7,,74,75
51936,note_on,,,,,6,0,9,,,,8,,71,75
51936,note_on,,,,,6,0,13,,,,14,,65,75
51957,note_off,,,,,21,0,8,,,,7,,74,0
51960,note_on,,,,,3,0,8,,,,7,,77,75
51978,note_off,,,,,42,0,12,,,,13,,65,0
51978,note_off,,,,,42,0,9,,,,8,,71,0
51978,note_off,,,,,42,0,13,,,,14,,65,0
51978,note_off,,,,,0,0,12,,,,13,,74,0
51978,note_off,,,,,0,0,12,,,,13,,48,0
51981,note_off,,,,,21,0,8,,,,7,,77,0
51984,note_on,,,,,6,0,13,,,,14,,67,75
51984,note_on,,,,,6,0,12,,,,13,,67,127
51984,note_on,,,,,3,0,8,,,,7,,76,75
51984,note_on,,,,,0,0,12,,,,13,,76,127
51984,note_on,,,,,6,0,9,,,,8,,72,75
51984,note_on,,,,,0,0,12,,,,13,,48,127
52005,note_off,,,,,21,0,8,,,,7,,76,0
52008,note_on,,,,,3,0,8,,,,7,,72,75
52026,note_off,,,,,42,0,12,,,,13,,67,0
52026,note_off,,,,,0,0,12,,,,13,,48,0
52026,note_off,,,,,42,0,9,,,,8,,72,0
52026,note_off,,,,,42,0,13,,,,14,,67,0
52026,note_off,,,,,0,0,12,,,,13,,76,0
52029,note_off,,,,,21,0,8,,,,7,,72,0
52032,note_on,,,,,6,0,13,,,,14,,65,75
52032,note_on,,,,,0,0,12,,,,13,,48,127
52032,note_on,,,,,6,0,12,,,,13,,65,127
52032,note_on,,,,,0,0,12,,,,13,,74,127
52032,note_on,,,,,6,0,9,,,,8,,71,75
52032,note_on,,,,,3,0,8,,,,7,,74,75
52053,note_off,,,,,21,0,8,,,,7,,74,0
52056,note_on,,,,,3,0,8,,,,7,,67,75
52074,note_off,,,,,0,0,12,,,,13,,48,0
52074,note_off,,,,,0,0,12,,,,13,,74,0
52074,note_off,,,,,42,0,9,,,,8,,71,0
52074,note_off,,,,,42,0,13,,,,14,,65,0
52074,note_off,,,,,42,0,12,,,,13,,65,0
52077,note_off,,,,,21,0,8,,,,7,,67,0
52080,note_on,,,,,0,0,12,,,,13,,76,127
52080,note_on,,,,,6,0,9,,,,8,,72,75
52080,note_on,,,,,0,0,12,,,,13,,48,127
52080,note_on,,,,,3,0,8,,,,7,,76,75
52080,note_on,,,,,6,0,13,,,,14,,67,75
52080,note_on,,,,,6,0,12,,,,13,,67,127
52101,note_off,,,,,21,0,8,,,,7,,76,0
52104,note_on,,,,,3,0,8,,,,7,,79,75
52122,note_off,,,,,42,0,13,,,,14,,67,0
52122,note_off,,,,,42,0,9,,,,8,,72,0
52122,note_off,,,,,42,0,12,,,,13,,67,0
52122,note_off,,,,,0,0,12,,,,13,,76,0
52122,note_off,,,,,0,0,12,,,,13,,48,0
52125,note_off,,,,,21,0,8,,,,7,,79,0
52128,note_on,,,,,3,0,8,,,,7,,77,75
52128,note_on,,,,,6,0,13,,,,14,,71,75
52128,note_on,,,,,6,0,9,,,,8,,74,75
52128,note_on,,,,,6,0,12,,,,13,,65,127
52128,note_on,,,,,0,0,12,,,,13,,48,127
52128,note_on,,,,,0,0,12,,,,13,,74,127
52149,note_off,,,,,21,0,8,,,,7,,77,0
52152,note_on,,,,,3,0,8,,,,7,,74,75
52170,note_off,,,,,0,0,12,,,,13,,74,0
52170,note_off,,,,,0,0,12,,,,13,,48,0
52170,note_off,,,,,42,0,9,,,,8,,74,0
52170,note_off,,,,,42,0,13,,,,14,,71,0
52170,note_off,,,,,42,0,12,,,,13,,65,0
52173,note_off,,,,,21,0,8,,,,7,,74,0
52176,note_on,,,,,6,0,13,,,,14,,67,75
52176,note_on,,,,,0,0,12,,,,13,,48,127
52176,note_on,,,,,0,0,12,,,,13,,76,127
52176,note_on,,,,,6,0,12,,,,13,,67,127
52176,note_on,,,,,3,0,8,,,,7,,76,75
52176,note_on,,,,,6,0,9,,,,8,,72,75
52197,note_off,,,,,21,0,8,,,,7,,76,0
52200,note_on,,,,,3,0,8,,,,7,,67,75
52218,note_off,,,,,42,0,9,,,,8,,72,0
52218,note_off,,,,,0,0,12,,,,13,,48,0
52218,note_off,,,,,0,0,12,,,,13,,76,0
52218,note_off,,,,,42,0,12,,,,13,,67,0
52218,note_off,,,,,42,0,13,,,,14,,67,0
52221,note_off,,,,,21,0,8,,,,7,,67,0
52224,note_on,,,,,6,0,13,,,,14,,67,75
52224,note_on,,,,,0,0,12,,,,13,,49,127
52224,note_on,,,,,0,0,12,,,,13,,76,127
52224,note_on,,,,,6,0,12,,,,13,,67,127
52224,note_on,,,,,3,0,8,,,,7,,82,75
52224,note_on,,,,,6,0,9,,,,8,,76,75
52266,note_off,,,,,42,0,13,,,,14,,67,0
52266,note_off,,,,,0,0,12,,,,13,,49,0
52266,note_off,,,,,0,0,12,,,,13,,76,0
52266,note_off,,,,,42,0,12,,,,13,,67,0
52266,note_off,,,,,42,0,8,,,,7,,82,0
52266,note_off,,,,,42,0,9,,,,8,,76,0
52272,note_on,,,,,0,0,12,,,,13,,76,127
52272,note_on,,,,,6,0,12,,,,13,,67,127
52272,note_on,,,,,0,0,12,,,,13,,49,127
52272,note_on,,,,,6,0,9,,,,8,,76,75
52272,note_on,,,,,6,0,8,,,,7,,82,75
52272,note_on,,,,,6,0,13,,,,14,,67,75
52314,note_off,,,,,42,0,13,,,,14,,67,0
52314,note_off,,,,,42,0,9,,,,8,,76,0
52314,note_off,,,,,0,0,12,,,,13,,49,0
52314,note_off,,,,,0,0,12,,,,13,,76,0
52314,note_off,,,,,42,0,12,,,,13,,67,0
52320,note_on,,,,,6,0,13,,,,14,,67,75
52320,note_on,,,,,6,0,12,,,,13,,67,127
52320,note_on,,,,,6,0,9,,,,8,,74,75
52320,note_on,,,,,0,0,12,,,,13,,52,127
52320,note_on,,,,,0,0,12,,,,13,,74,127
52335,note_off,,,,,63,0,8,,,,7,,82,0
52344,note_on,,,,,9,0,8,,,,7,,81,75
52362,note_off,,,,,0,0,12,,,,13,,74,0
52362,note_off,,,,,0,0,12,,,,13,,52,0
52362,note_off,,,,,42,0,12,,,,13,,67,0
52362,note_off,,,,,42,0,9,,,,8,,74,0
52362,note_off,,,,,42,0,13,,,,14,,67,0
52365,note_off,,,,,21,0,8,,,,7,,81,0
52368,note_on,,,,,6,0,12,,,,13,,67,127
52368,note_on,,,,,3,0,8,,,,7,,79,75
52368,note_on,,,,,0,0,12,,,,13,,76,127
52368,note_on,,,,,0,0,12,,,,13,,45,127
52368,note_on,,,,,6,0,9,,,,8,,73,75
52368,note_on,,,,,6,0,13,,,,14,,64,75
52389,note_off,,,,,21,0,8,,,,7,,79,0
52392,note_on,,,,,3,0,8,,,,7,,76,75
52410,note_off,,,,,42,0,13,,,,14,,64,0
52410,note_off,,,,,0,0,12,,,,13,,45,0
52410,note_off,,,,,0,0,12,,,,13,,76,0
52410,note_off,,,,,42,0,12,,,,13,,67,0
52410,note_off,,,,,42,0,9,,,,8,,73,0
52413,note_off,,,,,21,0,8,,,,7,,76,0
52416,note_on,,,,,6,0,9,,,,8,,74,75
52416,note_on,,,,,6,0,13,,,,14,,69,75
52416,note_on,,,,,0,0,12,,,,13,,45,127
52416,note_on,,,,,6,0,12,,,,13,,65,127
52416,note_on,,,,,0,0,12,,,,13,,74,127
52416,note_on,,,,,3,0,8,,,,7,,77,75
52437,note_off,,,,,21,0,8,,,,7,,77,0
52440,note_on,,,,,3,0,8,,,,7,,74,75
52458,note_off,,,,,0,0,12,,,,13,,74,0
52458,note_off,,,,,42,0,13,,,,14,,69,0
52458,note_off,,,,,42,0,9,,,,8,,74,0
52458,note_off,,,,,0,0,12,,,,13,,45,0
52458,note_off,,,,,42,0,12,,,,13,,65,0
52461,note_off,,,,,21,0,8,,,,7,,74,0
52464,note_on,,,,,6,0,13,,,,14,,64,75
52464,note_on,,,,,3,0,8,,,,7,,73,75
52464,note_on,,,,,6,0,9,,,,8,,69,75
52464,note_on,,,,,6,0,12,,,,13,,64,127
52464,note_on,,,,,0,0,12,,,,13,,73,127
52464,note_on,,,,,0,0,12,,,,13,,45,127
52485,note_off,,,,,21,0,8,,,,7,,73,0
52488,note_on,,,,,3,0,8,,,,7,,69,75
52506,note_off,,,,,42,0,12,,,,13,,64,0
52506,note_off,,,,,42,0,13,,,,14,,64,0
52506,note_off,,,,,0,0,12,,,,13,,45,0
52506,note_off,,,,,42,0,9,,,,8,,69,0
52506,note_off,,,,,0,0,12,,,,13,,73,0
52509,note_off,,,,,21,0,8,,,,7,,69,0
52512,note_on,,,,,6,0,12,,,,13,,67,127
52512,note_on,,,,,6,0,9,,,,8,,67,75
52512,note_on,,,,,6,0,13,,,,14,,61,75
52512,note_on,,,,,0,0,12,,,,13,,73,127
52512,note_on,,,,,0,0,12,,,,13,,45,127
52512,note_on,,,,,3,0,8,,,,7,,70,75
52533,note_off,,,,,21,0,8,,,,7,,70,0
52536,note_on,,,,,3,0,8,,,,7,,67,75
52554,note_off,,,,,0,0,12,,,,13,,73,0
52554,note_off,,,,,0,0,12,,,,13,,45,0
52554,note_off,,,,,42,0,13,,,,14,,61,0
52554,note_off,,,,,42,0,12,,,,13,,67,0
52554,note_off,,,,,42,0,9,,,,8,,67,0
52557,note_off,,,,,21,0,8,,,,7,,67,0
52560,note_on,,,,,6,0,12,,,,13,,65,127
52560,note_on,,,,,6,0,13,,,,14,,57,75
52560,note_on,,,,,6,0,9,,,,8,,65,75
52560,note_on,,,,,0,0,12,,,,13,,73,127
52560,note_on,,,,,3,0,8,,,,7,,69,75
52560,note_on,,,,,0,0,12,,,,13,,45,127
52581,note_off,,,,,21,0,8,,,,7,,69,0
52584,note_on,,,,,3,0,8,,,,7,,65,75
52602,note_off,,,,,42,0,13,,,,14,,57,0
52602,note_off,,,,,0,0,12,,,,13,,45,0
52602,note_off,,,,,42,0,9,,,,8,,65,0
52602,note_off,,,,,42,0,12,,,,13,,65,0
52602,note_off,,,,,0,0,12,,,,13,,73,0
52605,note_off,,,,,21,0,8,,,,7,,65,0
52608,note_on,,,,,3,0,8,,,,7,,64,75
52608,note_on,,,,,6,0,13,,,,14,,57,75
52608,note_on,,,,,6,0,12,,,,13,,64,127
52608,note_on,,,,,6,0,9,,,,8,,61,75
52608,note_on,,,,,0,0,12,,,,13,,45,127
52608,note_on,,,,,0,0,12,,,,13,,73,127
52629,note_off,,,,,21,0,8,,,,7,,64,0
52632,note_on,,,,,3,0,8,,,,7,,67,75
52650,note_off,,,,,42,0,12,,,,13,,64,0
52650,note_off,,,,,42,0,13,,,,14,,57,0
52650,note_off,,,,,0,0,12,,,,13,,73,0
52650,note_off,,,,,42,0,9,,,,8,,61,0
52650,note_off,,,,,0,0,12,,,,13,,45,0
52653,note_off,,,,,21,0,8,,,,7,,67,0
52656,note_on,,,,,0,0,12,,,,13,,77,127
52656,note_on,,,,,6,0,12,,,,13,,69,127
52656,note_on,,,,,6,0,13,,,,14,,57,75
52656,note_on,,,,,0,0,12,,,,13,,50,127
52656,note_on,,,,,6,0,9,,,,8,,62,75
52656,note_on,,,,,3,0,8,,,,7,,65,75
52677,note_off,,,,,21,0,8,,,,7,,65,0
52680,note_on,,,,,3,0,8,,,,7,,70,75
52698,note_off,,,,,42,0,9,,,,8,,62,0
52698,note_off,,,,,42,0,12,,,,13,,69,0
52698,note_off,,,,,0,0,12,,,,13,,77,0
52698,note_off,,,,,0,0,12,,,,13,,50,0
52698,note_off,,,,,42,0,13,,,,14,,57,0
52701,note_off,,,,,21,0,8,,,,7,,70,0
52704,note_on,,,,,6,0,9,,,,8,,62,75
52704,note_on,,,,,6,0,13,,,,14,,57,75
52704,note_on,,,,,6,0,12,,,,13,,69,127
52704,note_on,,,,,0,0,12,,,,13,,41,127
52704,note_on,,,,,0,0,12,,,,13,,74,127
52704,note_on,,,,,3,0,8,,,,7,,69,75
52725,note_off,,,,,21,0,9,,,,8,,62,0
52725,note_off,,,,,21,0,8,,,,7,,69,0
52728,note_on,,,,,3,0,9,,,,8,,65,75
52728,note_on,,,,,3,0,8,,,,7,,74,75
52746,note_off,,,,,0,0,12,,,,13,,41,0
52746,note_off,,,,,0,0,12,,,,13,,74,0
52746,note_off,,,,,42,0,12,,,,13,,69,0
52746,note_off,,,,,42,0,13,,,,14,,57,0
52749,note_off,,,,,21,0,9,,,,8,,65,0
52749,note_off,,,,,21,0,8,,,,7,,74,0
52752,note_on,,,,,6,0,13,,,,14,,57,75
52752,note_on,,,,,0,0,12,,,,13,,45,127
52752,note_on,,,,,6,0,12,,,,13,,64,127
52752,note_on,,,,,3,0,8,,,,7,,73,75
52752,note_on,,,,,0,0,12,,,,13,,73,127
52752,note_on,,,,,3,0,9,,,,8,,64,75
52773,note_off,,,,,21,0,9,,,,8,,64,0
52773,note_off,,,,,21,0,8,,,,7,,73,0
52776,note_on,,,,,3,0,9,,,,8,,69,75
52776,note_on,,,,,3,0,8,,,,7,,77,75
52794,note_off,,,,,42,0,13,,,,14,,57,0
52794,note_off,,,,,0,0,12,,,,13,,73,0
52794,note_off,,,,,42,0,12,,,,13,,64,0
52794,note_off,,,,,0,0,12,,,,13,,45,0
52797,note_off,,,,,21,0,9,,,,8,,69,0
52797,note_off,,,,,21,0,8,,,,7,,77,0
52800,note_on,,,,,6,0,13,,,,14,,57,75
52800,note_on,,,,,0,0,12,,,,13,,38,127
52800,note_on,,,,,3,0,9,,,,8,,67,75
52800,note_on,,,,,0,0,12,,,,13,,76,127
52800,note_on,,,,,3,0,8,,,,7,,76,75
52800,note_on,,,,,6,0,12,,,,13,,69,127
52821,note_off,,,,,21,0,8,,,,7,,76,0
52821,note_off,,,,,21,0,9,,,,8,,67,0
52824,note_on,,,,,3,0,8,,,,7,,73,75
52824,note_on,,,,,3,0,9,,,,8,,64,75
52842,note_off,,,,,42,0,12,,,,13,,69,0
52842,note_off,,,,,0,0,12,,,,13,,76,0
52842,note_off,,,,,0,0,12,,,,13,,38,0
52842,note_off,,,,,42,0,13,,,,14,,57,0
52845,note_off,,,,,21,0,9,,,,8,,64,0
52845,note_off,,,,,21,0,8,,,,7,,73,0
52848,note_on,,,,,0,0,12,,,,13,,77,127
52848,note_on,,,,,3,0,9,,,,8,,65,75
52848,note_on,,,,,6,0,13,,,,14,,57,75
52848,note_on,,,,,3,0,8,,,,7,,74,75
52848,note_on,,,,,6,0,12,,,,13,,69,127
52848,note_on,,,,,0,0,12,,,,13,,50,127
52890,note_off,,,,,42,0,13,,,,14,,57,0
52890,note_off,,,,,42,0,12,,,,13,,69,0
52890,note_off,,,,,0,0,12,,,,13,,77,0
52890,note_off,,,,,0,0,12,,,,13,,50,0
52890,note_off,,,,,42,0,9,,,,8,,65,0
52896,note_on,,,,,6,0,9,,,,8,,65,75
52896,note_on,,,,,0,0,12,,,,13,,48,127
52896,note_on,,,,,6,0,13,,,,14,,57,75
52896,note_on,,,,,6,0,12,,,,13,,65,127
52896,note_on,,,,,0,0,12,,,,13,,72,127
52911,note_off,,,,,63,0,8,,,,7,,74,0
52920,note_on,,,,,9,0,8,,,,7,,77,75
52938,note_off,,,,,42,0,13,,,,14,,57,0
52938,note_off,,,,,42,0,12,,,,13,,65,0
52938,note_off,,,,,0,0,12,,,,13,,48,0
52938,note_off,,,,,42,0,9,,,,8,,65,0
52938,note_off,,,,,0,0,12,,,,13,,72,0
52941,note_off,,,,,21,0,8,,,,7,,77,0
52944,note_on,,,,,6,0,9,,,,8,,70,127
52944,note_on,,,,,0,0,12,,,,13,,70,127
52944,note_on,,,,,6,0,13,,,,14,,62,127
52944,note_on,,,,,3,0,8,,,,7,,77,127
52944,note_on,,,,,6,0,12,,,,13,,62,127
52944,note_on,,,,,0,0,12,,,,13,,46,127
52963,note_off,,,,,19,0,13,,,,14,,62,0
52963,note_off,,,,,0,0,12,,,,13,,46,0
52963,note_off,,,,,0,0,12,,,,13,,70,0
52963,note_off,,,,,19,0,12,,,,13,,62,0
52963,note_off,,,,,19,0,9,,,,8,,70,0
52965,note_off,,,,,21,0,8,,,,7,,77,0
52968,note_on,,,,,3,0,8,,,,7,,75,127
52978,note_off,,,,,10,0,8,,,,7,,75,0
52980,note_on,,,,,2,0,8,,,,7,,74,127
52990,note_off,,,,,10,0,8,,,,7,,74,0
52992,note_on,,,,,29,0,12,,,,13,,60,127
52992,note_on,,,,,2,0,8,,,,7,,75,127
52992,note_on,,,,,0,0,12,,,,13,,69,127
52992,note_on,,,,,0,0,12,,,,13,,46,127
52992,note_on,,,,,29,0,9,,,,8,,69,127
52992,note_on,,,,,29,0,13,,,,14,,60,127
53011,note_off,,,,,0,0,12,,,,13,,46,0
53011,note_off,,,,,0,0,12,,,,13,,69,0
53011,note_off,,,,,19,0,12,,,,13,,60,0
53011,note_off,,,,,19,0,9,,,,8,,69,0
53011,note_off,,,,,19,0,13,,,,14,,60,0
53013,note_off,,,,,21,0,8,,,,7,,75,0
53016,note_on,,,,,3,0,8,,,,7,,74,127
53026,note_off,,,,,10,0,8,,,,7,,74,0
53028,note_on,,,,,2,0,8,,,,7,,72,127
53038,note_off,,,,,10,0,8,,,,7,,72,0
53040,note_on,,,,,29,0,9,,,,8,,67,127
53040,note_on,,,,,2,0,8,,,,7,,74,127
53040,note_on,,,,,29,0,13,,,,14,,58,127
53040,note_on,,,,,29,0,12,,,,13,,58,127
53040,note_on,,,,,0,0,12,,,,13,,67,127
53040,note_on,,,,,0,0,12,,,,13,,46,127
53059,note_off,,,,,19,0,9,,,,8,,67,0
53059,note_off,,,,,0,0,12,,,,13,,67,0
53059,note_off,,,,,19,0,13,,,,14,,58,0
53059,note_off,,,,,0,0,12,,,,13,,46,0
53059,note_off,,,,,19,0,12,,,,13,,58,0
53061,note_off,,,,,21,0,8,,,,7,,74,0
53064,note_on,,,,,3,0,8,,,,7,,72,127
53074,note_off,,,,,10,0,8,,,,7,,72,0
53076,note_on,,,,,2,0,8,,,,7,,70,127
53086,note_off,,,,,10,0,8,,,,7,,70,0
53088,note_on,,,,,0,0,12,,,,13,,46,127
53088,note_on,,,,,2,0,8,,,,7,,72,127
53088,note_on,,,,,0,0,12,,,,13,,69,127
53088,note_on,,,,,29,0,9,,,,8,,69,127
53088,note_on,,,,,29,0,13,,,,14,,63,127
53088,note_on,,,,,29,0,12,,,,13,,63,127
53107,note_off,,,,,19,0,12,,,,13,,63,0
53107,note_off,,,,,19,0,13,,,,14,,63,0
53107,note_off,,,,,0,0,12,,,,13,,69,0
53107,note_off,,,,,0,0,12,,,,13,,46,0
53107,note_off,,,,,19,0,9,,,,8,,69,0
53109,note_off,,,,,21,0,8,,,,7,,72,0
53112,note_on,,,,,3,0,8,,,,7,,74,127
53122,note_off,,,,,10,0,8,,,,7,,74,0
53124,note_on,,,,,2,0,8,,,,7,,75,127
53134,note_off,,,,,10,0,8,,,,7,,75,0
53136,note_on,,,,,2,0,8,,,,7,,74,127
53136,note_on,,,,,0,0,12,,,,13,,46,127
53136,note_on,,,,,29,0,9,,,,8,,70,127
53136,note_on,,,,,29,0,12,,,,13,,65,127
53136,note_on,,,,,29,0,13,,,,14,,65,127
53136,note_on,,,,,0,0,12,,,,13,,70,127
53155,note_off,,,,,19,0,12,,,,13,,65,0
53155,note_off,,,,,0,0,12,,,,13,,70,0
53155,note_off,,,,,0,0,12,,,,13,,46,0
53155,note_off,,,,,19,0,9,,,,8,,70,0
53155,note_off,,,,,19,0,13,,,,14,,65,0
53157,note_off,,,,,21,0,8,,,,7,,74,0
53160,note_on,,,,,3,0,8,,,,7,,72,127
53170,note_off,,,,,10,0,8,,,,7,,72,0
53172,note_on,,,,,2,0,8,,,,7,,70,127
53182,note_off,,,,,10,0,8,,,,7,,70,0
53184,note_on,,,,,29,0,13,,,,14,,63,127
53184,note_on,,,,,0,0,12,,,,13,,69,127
53184,note_on,,,,,2,0,8,,,,7,,72,127
53184,note_on,,,,,29,0,9,,,,8,,69,127
53184,note_on,,,,,0,0,12,,,,13,,46,127
53184,note_on,,,,,29,0,12,,,,13,,63,127
53203,note_off,,,,,19,0,13,,,,14,,63,0
53203,note_off,,,,,19,0,12,,,,13,,63,0
53203,note_off,,,,,0,0,12,,,,13,,69,0
53203,note_off,,,,,0,0,12,,,,13,,46,0
53203,note_off,,,,,19,0,9,,,,8,,69,0
53205,note_off,,,,,21,0,8,,,,7,,72,0
53208,note_on,,,,,3,0,8,,,,7,,70,127
53218,note_off,,,,,10,0,8,,,,7,,70,0
53220,note_on,,,,,2,0,8,,,,7,,69,127
53230,note_off,,,,,10,0,8,,,,7,,69,0
53232,note_on,,,,,0,0,12,,,,13,,74,127
53232,note_on,,,,,0,0,12,,,,13,,46,127
53232,note_on,,,,,29,0,13,,,,14,,62,127
53232,note_on,,,,,2,0,8,,,,7,,70,127
53232,note_on,,,,,29,0,12,,,,13,,67,127
53232,note_on,,,,,29,0,9,,,,8,,67,127
53251,note_off,,,,,19,0,9,,,,8,,67,0
53251,note_off,,,,,19,0,13,,,,14,,62,0
53251,note_off,,,,,0,0,12,,,,13,,74,0
53251,note_off,,,,,0,0,12,,,,13,,46,0
53251,note_off,,,,,19,0,12,,,,13,,67,0
53253,note_off,,,,,21,0,8,,,,7,,70,0
53256,note_on,,,,,3,0,8,,,,7,,69,127
53266,note_off,,,,,10,0,8,,,,7,,69,0
53268,note_on,,,,,2,0,8,,,,7,,67,127
53278,note_off,,,,,10,0,8,,,,7,,67,0
53280,note_on,,,,,29,0,12,,,,13,,65,127
53280,note_on,,,,,0,0,12,,,,13,,46,127
53280,note_on,,,,,0,0,12,,,,13,,74,127
53280,note_on,,,,,29,0,13,,,,14,,62,127
53280,note_on,,,,,29,0,9,,,,8,,65,127
53280,note_on,,,,,2,0,8,,,,7,,69,127
53299,note_off,,,,,19,0,12,,,,13,,65,0
53299,note_off,,,,,0,0,12,,,,13,,74,0
53299,note_off,,,,,0,0,12,,,,13,,46,0
53299,note_off,,,,,19,0,9,,,,8,,65,0
53299,note_off,,,,,19,0,13,,,,14,,62,0
53301,note_off,,,,,21,0,8,,,,7,,69,0
53304,note_on,,,,,3,0,8,,,,7,,70,127
53314,note_off,,,,,10,0,8,,,,7,,70,0
53316,note_on,,,,,2,0,8,,,,7,,72,127
53326,note_off,,,,,10,0,8,,,,7,,72,0
53328,note_on,,,,,0,0,12,,,,13,,46,127
53328,note_on,,,,,29,0,9,,,,8,,67,127
53328,note_on,,,,,2,0,8,,,,7,,70,127
53328,note_on,,,,,29,0,12,,,,13,,67,127
53328,note_on,,,,,0,0,12,,,,13,,76,127
53328,note_on,,,,,29,0,13,,,,14,,64,127
53347,note_off,,,,,19,0,9,,,,8,,67,0
53347,note_off,,,,,19,0,13,,,,14,,64,0
53347,note_off,,,,,0,0,12,,,,13,,76,0
53347,note_off,,,,,19,0,12,,,,13,,67,0
53347,note_off,,,,,0,0,12,,,,13,,46,0
53349,note_off,,,,,21,0,8,,,,7,,70,0
53352,note_on,,,,,3,0,8,,,,7,,69,127
53362,note_off,,,,,10,0,8,,,,7,,69,0
53364,note_on,,,,,2,0,8,,,,7,,67,127
53374,note_off,,,,,10,0,8,,,,7,,67,0
53376,note_on,,,,,29,0,12,,,,13,,65,127
53376,note_on,,,,,0,0,12,,,,13,,74,127
53376,note_on,,,,,29,0,13,,,,14,,65,127
53376,note_on,,,,,0,0,12,,,,13,,47,127
53376,note_on,,,,,29,0,9,,,,8,,62,127
53376,note_on,,,,,2,0,8,,,,7,,69,127
53395,note_off,,,,,19,0,9,,,,8,,62,0
53395,note_off,,,,,19,0,13,,,,14,,65,0
53395,note_off,,,,,19,0,12,,,,13,,65,0
53395,note_off,,,,,0,0,12,,,,13,,74,0
53397,note_off,,,,,21,0,8,,,,7,,69,0
53400,note_on,,,,,3,0,8,,,,7,,67,127
53410,note_off,,,,,10,0,8,,,,7,,67,0
53412,note_on,,,,,2,0,8,,,,7,,65,127
53418,note_off,,,,,23,0,12,,,,13,,47,0
53422,note_off,,,,,10,0,8,,,,7,,65,0
53424,note_on,,,,,29,0,13,,,,14,,60,127
53424,note_on,,,,,2,0,8,,,,7,,64,127
53424,note_on,,,,,0,0,12,,,,13,,48,127
53424,note_on,,,,,0,0,12,,,,13,,72,127
53424,note_on,,,,,6,0,12,,,,13,,67,127
53424,note_on,,,,,29,0,9,,,,8,,55,127
53443,note_off,,,,,19,0,12,,,,13,,67,0
53443,note_off,,,,,0,0,12,,,,13,,72,0
53443,note_off,,,,,19,0,9,,,,8,,55,0
53443,note_off,,,,,19,0,13,,,,14,,60,0
53445,note_off,,,,,2,0,12,,,,13,,48,0
53445,note_off,,,,,21,0,8,,,,7,,64,0
53448,note_on,,,,,3,0,12,,,,13,,50,127
53448,note_on,,,,,3,0,8,,,,7,,65,127
53458,note_off,,,,,10,0,8,,,,7,,65,0
53460,note_on,,,,,2,0,8,,,,7,,67,127
53469,note_off,,,,,21,0,12,,,,13,,50,0
53470,note_off,,,,,10,0,8,,,,7,,67,0
53472,note_on,,,,,29,0,13,,,,14,,55,127
53472,note_on,,,,,2,0,8,,,,7,,60,127
53472,note_on,,,,,0,0,12,,,,13,,52,127
53472,note_on,,,,,0,0,12,,,,13,,69,127
53472,note_on,,,,,3,0,12,,,,13,,67,127
53472,note_on,,,,,29,0,9,,,,8,,55,127
53491,note_off,,,,,0,0,12,,,,13,,69,0
53491,note_off,,,,,19,0,13,,,,14,,55,0
53491,note_off,,,,,19,0,12,,,,13,,67,0
53491,note_off,,,,,19,0,9,,,,8,,55,0
53493,note_off,,,,,21,0,8,,,,7,,60,0
53493,note_off,,,,,2,0,12,,,,13,,52,0
53496,note_on,,,,,3,0,12,,,,13,,48,127
53496,note_on,,,,,3,0,8,,,,7,,58,127
53517,note_off,,,,,21,0,12,,,,13,,48,0
53517,note_off,,,,,21,0,8,,,,7,,58,0
53520,note_on,,,,,29,0,13,,,,14,,53,75
53520,note_on,,,,,0,0,12,,,,13,,72,127
53520,note_on,,,,,3,0,12,,,,13,,65,127
53520,note_on,,,,,0,0,12,,,,13,,53,127
53520,note_on,,,,,29,0,9,,,,8,,57,75
53520,note_on,,,,,3,0,8,,,,7,,57,75
53539,note_off,,,,,19,0,9,,,,8,,57,0
53541,note_off,,,,,21,0,13,,,,14,,53,0
53541,note_off,,,,,21,0,8,,,,7,,57,0
53544,note_on,,,,,3,0,13,,,,14,,57,75
53544,note_on,,,,,3,0,8,,,,7,,60,75
53562,note_off,,,,,0,0,12,,,,13,,53,0
53562,note_off,,,,,0,0,12,,,,13,,72,0
53562,note_off,,,,,42,0,12,,,,13,,65,0
53565,note_off,,,,,21,0,8,,,,7,,60,0
53565,note_off,,,,,21,0,13,,,,14,,57,0
53568,note_on,,,,,0,0,12,,,,13,,53,127
53568,note_on,,,,,0,0,12,,,,13,,67,127
53568,note_on,,,,,6,0,12,,,,13,,58,127
53568,note_on,,,,,3,0,8,,,,7,,58,75
53568,note_on,,,,,3,0,13,,,,14,,55,75
53589,note_off,,,,,21,0,8,,,,7,,58,0
53589,note_off,,,,,21,0,13,,,,14,,55,0
53592,note_on,,,,,3,0,13,,,,14,,52,75
53592,note_on,,,,,3,0,8,,,,7,,55,75
53610,note_off,,,,,42,0,12,,,,13,,58,0
53610,note_off,,,,,0,0,12,,,,13,,53,0
53610,note_off,,,,,0,0,12,,,,13,,67,0
53613,note_off,,,,,21,0,13,,,,14,,52,0
53613,note_off,,,,,21,0,8,,,,7,,55,0
53616,note_on,,,,,0,0,12,,,,13,,53,127
53616,note_on,,,,,3,0,13,,,,14,,53,75
53616,note_on,,,,,3,0,8,,,,7,,57,75
53616,note_on,,,,,0,0,12,,,,13,,65,127
53616,note_on,,,,,6,0,12,,,,13,,57,127
53637,note_off,,,,,21,0,13,,,,14,,53,0
53637,note_off,,,,,21,0,8,,,,7,,57,0
53640,note_on,,,,,3,0,8,,,,7,,60,75
53640,note_on,,,,,3,0,13,,,,14,,57,75
53658,note_off,,,,,0,0,12,,,,13,,53,0
53658,note_off,,,,,42,0,12,,,,13,,57,0
53658,note_off,,,,,0,0,12,,,,13,,65,0
53661,note_off,,,,,21,0,8,,,,7,,60,0
53661,note_off,,,,,21,0,13,,,,14,,57,0
53664,note_on,,,,,0,0,12,,,,13,,74,127
53664,note_on,,,,,3,0,8,,,,7,,65,75
53664,note_on,,,,,0,0,12,,,,13,,50,127
53664,note_on,,,,,125,0,9,,,,8,,57,75
53664,note_on,,,,,6,0,12,,,,13,,65,127
53664,note_on,,,,,3,0,13,,,,14,,62,75
53685,note_off,,,,,21,0,8,,,,7,,65,0
53685,note_off,,,,,21,0,13,,,,14,,62,0
53685,note_off,,,,,21,0,9,,,,8,,57,0
53688,note_on,,,,,3,0,13,,,,14,,65,75
53688,note_on,,,,,3,0,8,,,,7,,69,75
53688,note_on,,,,,3,0,9,,,,8,,62,75
53706,note_off,,,,,0,0,12,,,,13,,50,0
53706,note_off,,,,,42,0,12,,,,13,,65,0
53706,note_off,,,,,0,0,12,,,,13,,74,0
53709,note_off,,,,,21,0,13,,,,14,,65,0
53709,note_off,,,,,21,0,9,,,,8,,62,0
53709,note_off,,,,,21,0,8,,,,7,,69,0
53712,note_on,,,,,3,0,13,,,,14,,64,75
53712,note_on,,,,,3,0,8,,,,7,,67,75
53712,note_on,,,,,3,0,9,,,,8,,58,75
53712,note_on,,,,,0,0,12,,,,13,,50,127
53712,note_on,,,,,0,0,12,,,,13,,73,127
53712,note_on,,,,,6,0,12,,,,13,,67,127
53733,note_off,,,,,21,0,13,,,,14,,64,0
53733,note_off,,,,,21,0,8,,,,7,,67,0
53733,note_off,,,,,21,0,9,,,,8,,58,0
53736,note_on,,,,,3,0,13,,,,14,,61,75
53736,note_on,,,,,3,0,9,,,,8,,55,75
53736,note_on,,,,,3,0,8,,,,7,,64,75
53754,note_off,,,,,0,0,12,,,,13,,73,0
53754,note_off,,,,,0,0,12,,,,13,,50,0
53754,note_off,,,,,42,0,12,,,,13,,67,0
53757,note_off,,,,,21,0,9,,,,8,,55,0
53757,note_off,,,,,21,0,8,,,,7,,64,0
53757,note_off,,,,,21,0,13,,,,14,,61,0
53760,note_on,,,,,3,0,13,,,,14,,62,75
53760,note_on,,,,,3,0,9,,,,8,,57,75
53760,note_on,,,,,0,0,12,,,,13,,77,127
53760,note_on,,,,,3,0,8,,,,7,,65,75
53760,note_on,,,,,0,0,12,,,,13,,50,127
53760,note_on,,,,,6,0,12,,,,13,,69,127
53781,note_off,,,,,21,0,13,,,,14,,62,0
53781,note_off,,,,,21,0,8,,,,7,,65,0
53781,note_off,,,,,21,0,9,,,,8,,57,0
53784,note_on,,,,,3,0,9,,,,8,,62,75
53784,note_on,,,,,3,0,8,,,,7,,69,75
53784,note_on,,,,,3,0,13,,,,14,,65,75
53802,note_off,,,,,42,0,12,,,,13,,69,0
53802,note_off,,,,,0,0,12,,,,13,,77,0
53802,note_off,,,,,0,0,12,,,,13,,50,0
53805,note_off,,,,,21,0,8,,,,7,,69,0
53805,note_off,,,,,21,0,13,,,,14,,65,0
53805,note_off,,,,,21,0,9,,,,8,,62,0
53808,note_on,,,,,6,0,12,,,,13,,65,127
53808,note_on,,,,,0,0,12,,,,13,,72,127
53808,note_on,,,,,0,0,12,,,,13,,45,127
53808,note_on,,,,,3,0,13,,,,14,,53,75
53808,note_on,,,,,3,0,9,,,,8,,60,75
53808,note_on,,,,,3,0,8,,,,7,,72,75
53850,note_off,,,,,42,0,8,,,,7,,72,0
53850,note_off,,,,,0,0,12,,,,13,,45,0
53850,note_off,,,,,0,0,12,,,,13,,72,0
53850,note_off,,,,,42,0,12,,,,13,,65,0
53850,note_off,,,,,42,0,13,,,,14,,53,0
53850,note_off,,,,,42,0,9,,,,8,,60,0
53856,note_on,,,,,0,0,12,,,,13,,46,127
53856,note_on,,,,,0,0,12,,,,13,,74,127
53856,note_on,,,,,6,0,12,,,,13,,65,127
53856,note_on,,,,,6,0,13,,,,14,,53,75
53856,note_on,,,,,6,0,8,,,,7,,70,75
53856,note_on,,,,,6,0,9,,,,8,,62,75
53877,note_off,,,,,21,0,9,,,,8,,62,0
53877,note_off,,,,,21,0,8,,,,7,,70,0
53880,note_on,,,,,3,0,9,,,,8,,60,75
53880,note_on,,,,,3,0,8,,,,7,,69,75
53898,note_off,,,,,42,0,12,,,,13,,65,0
53898,note_off,,,,,0,0,12,,,,13,,46,0
53898,note_off,,,,,42,0,13,,,,14,,53,0
53898,note_off,,,,,0,0,12,,,,13,,74,0
53901,note_off,,,,,21,0,9,,,,8,,60,0
53901,note_off,,,,,21,0,8,,,,7,,69,0
53904,note_on,,,,,0,0,12,,,,13,,76,127
53904,note_on,,,,,6,0,12,,,,13,,67,127
53904,note_on,,,,,3,0,9,,,,8,,58,75
53904,note_on,,,,,0,0,12,,,,13,,48,127
53904,note_on,,,,,3,0,8,,,,7,,67,75
53904,note_on,,,,,6,0,13,,,,14,,52,75
53925,note_off,,,,,21,0,8,,,,7,,67,0
53925,note_off,,,,,21,0,9,,,,8,,58,0
53928,note_on,,,,,3,0,9,,,,8,,57,75
53928,note_on,,,,,3,0,8,,,,7,,65,75
53946,note_off,,,,,42,0,12,,,,13,,67,0
53946,note_off,,,,,0,0,12,,,,13,,76,0
53946,note_off,,,,,0,0,12,,,,13,,48,0
53946,note_off,,,,,42,0,13,,,,14,,52,0
53949,note_off,,,,,21,0,9,,,,8,,57,0
53949,note_off,,,,,21,0,8,,,,7,,65,0
53952,note_on,,,,,3,0,8,,,,7,,67,75
53952,note_on,,,,,3,0,9,,,,8,,58,75
53952,note_on,,,,,6,0,13,,,,14,,48,75
53952,note_on,,,,,0,0,12,,,,13,,41,127
53952,note_on,,,,,0,0,12,,,,13,,72,127
53952,note_on,,,,,6,0,12,,,,13,,67,127
53971,note_off,,,,,19,0,13,,,,14,,48,0
53971,note_off,,,,,19,0,12,,,,13,,67,0
53971,note_off,,,,,0,0,12,,,,13,,41,0
53971,note_off,,,,,0,0,12,,,,13,,72,0
53973,note_off,,,,,21,0,9,,,,8,,58,0
53973,note_off,,,,,21,0,8,,,,7,,67,0
53976,note_on,,,,,3,0,8,,,,7,,64,75
53976,note_on,,,,,3,0,9,,,,8,,55,75
53985,note_off,,,,,9,0,9,,,,8,,55,0
53985,note_off,,,,,9,0,8,,,,7,,64,0
54000,note_on,,,,,15,0,9,,,,8,,57,75
54000,note_on,,,,,15,0,8,,,,7,,65,75
54000,note_on,,,,,0,0,12,,,,13,,72,127
54000,note_on,,,,,29,0,12,,,,13,,65,127
54000,note_on,,,,,0,0,12,,,,13,,41,127
54000,note_on,,,,,29,0,13,,,,14,,48,75
54084,note_off,,,,,0,0,12,,,,13,,41,0
54084,note_off,,,,,84,0,9,,,,8,,57,0
54084,end_of_track,,,,,0,1,8,,,,,,,
54084,note_off,,,,,84,0,8,,,,7,,65,0
54084,end_of_track,,,,,0,1,12,,,,,,,
54084,note_off,,,,,84,0,13,,,,14,,48,0
54084,note_off,,,,,84,0,12,,,,13,,65,0
54084,note_off,,,,,0,0,12,,,,13,,72,0
54084,end_of_track,,,,,0,1,9,,,,,,,
54084,end_of_track,,,,,0,1,13,,,,,,,
