tick,type,numerator,denominator,clocks_per_click,notated_32nd_notes_per_beat,time,meta,track,tempo,control,value,channel,program,note,velocity
0,time_signature,6,4,96,8,0,1,0,,,,,,,
0,time_signature,6,4,96,8,0,1,9,,,,,,,
0,set_tempo,,,,,0,1,9,600000,,,,,,
0,track_name,,,,,0,1,10,,,,,,,
0,control_change,,,,,0,0,10,,0,0,11,,,
0,program_change,,,,,0,0,10,,,,11,42,,
0,time_signature,6,4,96,8,0,1,10,,,,,,,
0,set_tempo,,,,,0,1,10,600000,,,,,,
0,control_change,,,,,0,0,5,,0,0,4,,,
0,set_tempo,,,,,0,1,3,600000,,,,,,
0,time_signature,6,4,96,8,0,1,3,,,,,,,
0,program_change,,,,,0,0,3,,,,2,68,,
0,control_change,,,,,0,0,3,,0,0,2,,,
0,program_change,,,,,0,0,9,,,,8,40,,
0,track_name,,,,,0,1,3,,,,,,,
0,control_change,,,,,0,0,11,,0,0,12,,,
0,program_change,,,,,0,0,11,,,,12,43,,
0,time_signature,6,4,96,8,0,1,11,,,,,,,
0,set_tempo,,,,,0,1,11,600000,,,,,,
0,set_tempo,,,,,0,1,2,600000,,,,,,
0,time_signature,6,4,96,8,0,1,2,,,,,,,
0,program_change,,,,,0,0,2,,,,1,60,,
0,control_change,,,,,0,0,2,,0,0,1,,,
0,track_name,,,,,0,1,2,,,,,,,
0,track_name,,,,,0,1,12,,,,,,,
0,control_change,,,,,0,0,12,,0,0,13,,,
0,program_change,,,,,0,0,12,,,,13,6,,
0,track_name,,,,,0,1,11,,,,,,,
0,control_change,,,,,0,0,9,,0,0,8,,,
0,track_name,,,,,0,1,9,,,,,,,
0,set_tempo,,,,,0,1,8,600000,,,,,,
0,program_change,,,,,0,0,5,,,,4,68,,
0,time_signature,6,4,96,8,0,1,5,,,,,,,
0,set_tempo,,,,,0,1,5,600000,,,,,,
0,track_name,,,,,0,1,6,,,,,,,
0,control_change,,,,,0,0,6,,0,0,5,,,
0,program_change,,,,,0,0,6,,,,5,70,,
0,time_signature,6,4,96,8,0,1,6,,,,,,,
0,set_tempo,,,,,0,1,6,600000,,,,,,
0,track_name,,,,,0,1,7,,,,,,,
0,control_change,,,,,0,0,7,,0,0,6,,,
0,program_change,,,,,0,0,7,,,,6,40,,
0,time_signature,6,4,96,8,0,1,7,,,,,,,
0,set_tempo,,,,,0,1,7,600000,,,,,,
0,set_tempo,,,,,0,1,4,600000,,,,,,
0,time_signature,6,4,96,8,0,1,4,,,,,,,
0,program_change,,,,,0,0,4,,,,3,68,,
0,control_change,,,,,0,0,4,,0,0,3,,,
0,track_name,,,,,0,1,4,,,,,,,
0,track_name,,,,,0,1,13,,,,,,,
0,control_change,,,,,0,0,13,,0,0,14,,,
0,program_change,,,,,0,0,13,,,,14,41,,
0,time_signature,6,4,96,8,0,1,13,,,,,,,
0,set_tempo,,,,,0,1,13,600000,,,,,,
0,track_name,,,,,0,1,8,,,,,,,
0,control_change,,,,,0,0,8,,0,0,7,,,
0,program_change,,,,,0,0,8,,,,7,40,,
0,time_signature,6,4,96,8,0,1,8,,,,,,,
0,time_signature,6,4,96,8,0,1,12,,,,,,,
0,set_tempo,,,,,0,1,12,600000,,,,,,
0,track_name,,,,,0,1,5,,,,,,,
0,program_change,,,,,0,0,1,,,,0,60,,
0,set_tempo,,,,,0,1,0,600000,,,,,,
0,set_tempo,,,,,0,1,1,600000,,,,,,
0,track_name,,,,,0,1,1,,,,,,,
0,control_change,,,,,0,0,1,,0,0,0,,,
0,time_signature,6,4,96,8,0,1,1,,,,,,,
96,set_tempo,,,,,96,1,3,600000,,,,,,
96,note_on,,,,,0,0,6,,,,5,,53,62
96,set_tempo,,,,,96,1,6,600000,,,,,,
96,note_on,,,,,0,0,10,,,,11,,53,49
96,set_tempo,,,,,96,1,4,600000,,,,,,
96,set_tempo,,,,,96,1,8,600000,,,,,,
96,set_tempo,,,,,96,1,1,600000,,,,,,
96,note_on,,,,,0,0,1,,,,0,,65,127
96,set_tempo,,,,,96,1,13,600000,,,,,,
96,set_tempo,,,,,96,1,9,600000,,,,,,
96,set_tempo,,,,,96,1,7,600000,,,,,,
96,set_tempo,,,,,96,1,5,600000,,,,,,
96,set_tempo,,,,,96,1,0,600000,,,,,,
96,set_tempo,,,,,96,1,11,600000,,,,,,
96,note_on,,,,,0,0,11,,,,12,,41,49
96,set_tempo,,,,,96,1,10,600000,,,,,,
96,note_on,,,,,0,0,2,,,,1,,57,127
96,set_tempo,,,,,96,1,2,600000,,,,,,
96,set_tempo,,,,,96,1,12,600000,,,,,,
96,note_on,,,,,0,0,12,,,,13,,69,49
96,note_on,,,,,0,0,12,,,,13,,72,49
96,note_on,,,,,0,0,12,,,,13,,53,49
117,note_off,,,,,21,0,1,,,,0,,65,0
120,note_on,,,,,3,0,1,,,,0,,67,127
138,note_off,,,,,42,0,10,,,,11,,53,0
138,note_off,,,,,42,0,2,,,,1,,57,0
138,note_off,,,,,42,0,12,,,,13,,69,0
138,note_off,,,,,0,0,12,,,,13,,72,0
138,note_off,,,,,0,0,12,,,,13,,53,0
138,note_off,,,,,42,0,11,,,,12,,41,0
138,note_off,,,,,42,0,6,,,,5,,53,0
141,note_off,,,,,21,0,1,,,,0,,67,0
144,note_on,,,,,0,0,12,,,,13,,77,49
144,note_on,,,,,6,0,10,,,,11,,57,49
144,note_on,,,,,6,0,2,,,,1,,57,127
144,note_on,,,,,48,0,5,,,,4,,60,62
144,note_on,,,,,48,0,7,,,,6,,65,75
144,note_on,,,,,48,0,9,,,,8,,60,75
144,note_on,,,,,6,0,12,,,,13,,72,49
144,note_on,,,,,6,0,6,,,,5,,57,62
144,note_on,,,,,3,0,1,,,,0,,65,127
144,note_on,,,,,48,0,13,,,,14,,57,75
144,note_on,,,,,0,0,12,,,,13,,57,49
144,note_on,,,,,48,0,3,,,,2,,65,62
144,note_on,,,,,48,0,8,,,,7,,65,75
144,note_on,,,,,6,0,11,,,,12,,45,49
144,note_on,,,,,48,0,4,,,,3,,65,62
165,note_off,,,,,21,0,1,,,,0,,65,0
165,note_off,,,,,21,0,2,,,,1,,57,0
168,note_on,,,,,3,0,1,,,,0,,67,127
168,note_on,,,,,3,0,2,,,,1,,57,127
186,note_off,,,,,42,0,12,,,,13,,72,0
186,note_off,,,,,42,0,11,,,,12,,45,0
186,note_off,,,,,42,0,4,,,,3,,65,0
186,note_off,,,,,42,0,10,,,,11,,57,0
186,note_off,,,,,42,0,3,,,,2,,65,0
186,note_off,,,,,42,0,8,,,,7,,65,0
186,note_off,,,,,42,0,7,,,,6,,65,0
186,note_off,,,,,0,0,12,,,,13,,57,0
186,note_off,,,,,0,0,12,,,,13,,77,0
186,note_off,,,,,42,0,13,,,,14,,57,0
186,note_off,,,,,42,0,9,,,,8,,60,0
186,note_off,,,,,42,0,5,,,,4,,60,0
186,note_off,,,,,42,0,6,,,,5,,57,0
189,note_off,,,,,21,0,1,,,,0,,67,0
189,note_off,,,,,21,0,2,,,,1,,57,0
192,note_on,,,,,3,0,2,,,,1,,57,127
192,note_on,,,,,3,0,1,,,,0,,69,127
192,note_on,,,,,6,0,7,,,,6,,65,75
192,note_on,,,,,6,0,9,,,,8,,60,75
192,note_on,,,,,6,0,10,,,,11,,60,49
192,note_on,,,,,6,0,6,,,,5,,60,62
192,note_on,,,,,6,0,4,,,,3,,65,62
192,note_on,,,,,0,0,12,,,,13,,81,49
192,note_on,,,,,6,0,12,,,,13,,77,49
192,note_on,,,,,6,0,11,,,,12,,48,49
192,note_on,,,,,6,0,8,,,,7,,65,75
192,note_on,,,,,6,0,5,,,,4,,60,62
192,note_on,,,,,6,0,13,,,,14,,57,75
192,note_on,,,,,0,0,12,,,,13,,60,49
192,note_on,,,,,6,0,3,,,,2,,65,62
213,note_off,,,,,21,0,2,,,,1,,57,0
213,note_off,,,,,21,0,1,,,,0,,69,0
216,note_on,,,,,3,0,2,,,,1,,57,127
216,note_on,,,,,3,0,1,,,,0,,67,127
234,note_off,,,,,42,0,8,,,,7,,65,0
234,note_off,,,,,42,0,10,,,,11,,60,0
234,note_off,,,,,42,0,4,,,,3,,65,0
234,note_off,,,,,42,0,11,,,,12,,48,0
234,note_off,,,,,42,0,5,,,,4,,60,0
234,note_off,,,,,42,0,13,,,,14,,57,0
234,note_off,,,,,42,0,7,,,,6,,65,0
234,note_off,,,,,42,0,9,,,,8,,60,0
234,note_off,,,,,42,0,6,,,,5,,60,0
234,note_off,,,,,0,0,12,,,,13,,60,0
234,note_off,,,,,0,0,12,,,,13,,81,0
234,note_off,,,,,42,0,12,,,,13,,77,0
234,note_off,,,,,42,0,3,,,,2,,65,0
237,note_off,,,,,21,0,2,,,,1,,57,0
237,note_off,,,,,21,0,1,,,,0,,67,0
240,note_on,,,,,6,0,7,,,,6,,65,75
240,note_on,,,,,6,0,12,,,,13,,72,49
240,note_on,,,,,6,0,10,,,,11,,57,49
240,note_on,,,,,6,0,4,,,,3,,65,62
240,note_on,,,,,6,0,3,,,,2,,65,62
240,note_on,,,,,3,0,2,,,,1,,57,127
240,note_on,,,,,0,0,12,,,,13,,57,49
240,note_on,,,,,0,0,12,,,,13,,77,49
240,note_on,,,,,6,0,6,,,,5,,57,62
240,note_on,,,,,6,0,5,,,,4,,60,62
240,note_on,,,,,6,0,11,,,,12,,45,49
240,note_on,,,,,6,0,8,,,,7,,65,75
240,note_on,,,,,3,0,1,,,,0,,65,127
240,note_on,,,,,6,0,9,,,,8,,60,75
240,note_on,,,,,6,0,13,,,,14,,57,75
282,note_off,,,,,42,0,8,,,,7,,65,0
282,note_off,,,,,42,0,12,,,,13,,72,0
282,note_off,,,,,0,0,12,,,,13,,77,0
282,note_off,,,,,0,0,12,,,,13,,57,0
282,note_off,,,,,42,0,1,,,,0,,65,0
282,note_off,,,,,42,0,10,,,,11,,57,0
282,note_off,,,,,42,0,2,,,,1,,57,0
282,note_off,,,,,42,0,13,,,,14,,57,0
282,note_off,,,,,42,0,11,,,,12,,45,0
282,note_off,,,,,42,0,9,,,,8,,60,0
282,note_off,,,,,42,0,4,,,,3,,65,0
282,note_off,,,,,42,0,7,,,,6,,65,0
282,note_off,,,,,42,0,6,,,,5,,57,0
282,note_off,,,,,42,0,3,,,,2,,65,0
282,note_off,,,,,42,0,5,,,,4,,60,0
288,note_on,,,,,6,0,4,,,,3,,65,62
288,note_on,,,,,6,0,13,,,,14,,60,75
288,note_on,,,,,6,0,3,,,,2,,69,62
288,note_on,,,,,6,0,12,,,,13,,69,49
288,note_on,,,,,6,0,9,,,,8,,65,75
288,note_on,,,,,0,0,12,,,,13,,72,49
288,note_on,,,,,6,0,8,,,,7,,69,75
288,note_on,,,,,6,0,6,,,,5,,53,62
288,note_on,,,,,0,0,12,,,,13,,53,49
288,note_on,,,,,6,0,7,,,,6,,69,75
288,note_on,,,,,6,0,5,,,,4,,60,62
288,note_on,,,,,6,0,11,,,,12,,41,49
288,note_on,,,,,6,0,10,,,,11,,53,49
309,note_off,,,,,21,0,7,,,,6,,69,0
309,note_off,,,,,21,0,3,,,,2,,69,0
309,note_off,,,,,21,0,4,,,,3,,65,0
309,note_off,,,,,21,0,9,,,,8,,65,0
309,note_off,,,,,21,0,8,,,,7,,69,0
309,note_off,,,,,21,0,13,,,,14,,60,0
312,note_on,,,,,3,0,3,,,,2,,67,62
312,note_on,,,,,3,0,13,,,,14,,58,75
312,note_on,,,,,3,0,4,,,,3,,64,62
312,note_on,,,,,3,0,9,,,,8,,64,75
312,note_on,,,,,3,0,8,,,,7,,67,75
312,note_on,,,,,3,0,7,,,,6,,67,75
330,note_off,,,,,42,0,5,,,,4,,60,0
330,note_off,,,,,42,0,6,,,,5,,53,0
330,note_off,,,,,42,0,10,,,,11,,53,0
330,note_off,,,,,0,0,12,,,,13,,72,0
330,note_off,,,,,42,0,12,,,,13,,69,0
330,note_off,,,,,42,0,11,,,,12,,41,0
330,note_off,,,,,0,0,12,,,,13,,53,0
333,note_off,,,,,21,0,9,,,,8,,64,0
333,note_off,,,,,21,0,7,,,,6,,67,0
333,note_off,,,,,21,0,8,,,,7,,67,0
333,note_off,,,,,21,0,3,,,,2,,67,0
333,note_off,,,,,21,0,13,,,,14,,58,0
333,note_off,,,,,21,0,4,,,,3,,64,0
336,note_on,,,,,3,0,13,,,,14,,60,75
336,note_on,,,,,3,0,7,,,,6,,69,75
336,note_on,,,,,6,0,5,,,,4,,60,62
336,note_on,,,,,3,0,9,,,,8,,65,75
336,note_on,,,,,3,0,4,,,,3,,65,62
336,note_on,,,,,3,0,3,,,,2,,69,62
336,note_on,,,,,3,0,8,,,,7,,69,75
357,note_off,,,,,21,0,7,,,,6,,69,0
357,note_off,,,,,21,0,9,,,,8,,65,0
357,note_off,,,,,21,0,4,,,,3,,65,0
357,note_off,,,,,21,0,8,,,,7,,69,0
357,note_off,,,,,21,0,13,,,,14,,60,0
357,note_off,,,,,21,0,3,,,,2,,69,0
360,note_on,,,,,3,0,13,,,,14,,57,75
360,note_on,,,,,3,0,3,,,,2,,65,62
360,note_on,,,,,3,0,8,,,,7,,65,75
360,note_on,,,,,3,0,4,,,,3,,60,62
360,note_on,,,,,3,0,7,,,,6,,65,75
360,note_on,,,,,3,0,9,,,,8,,62,75
378,note_off,,,,,42,0,5,,,,4,,60,0
381,note_off,,,,,21,0,4,,,,3,,60,0
381,note_off,,,,,21,0,13,,,,14,,57,0
381,note_off,,,,,21,0,7,,,,6,,65,0
381,note_off,,,,,21,0,9,,,,8,,62,0
381,note_off,,,,,21,0,3,,,,2,,65,0
381,note_off,,,,,21,0,8,,,,7,,65,0
384,note_on,,,,,102,0,1,,,,0,,67,127
384,note_on,,,,,6,0,5,,,,4,,64,62
384,note_on,,,,,3,0,4,,,,3,,67,62
384,note_on,,,,,3,0,3,,,,2,,72,62
384,note_on,,,,,54,0,11,,,,12,,40,49
384,note_on,,,,,3,0,7,,,,6,,72,75
384,note_on,,,,,54,0,10,,,,11,,52,49
384,note_on,,,,,3,0,9,,,,8,,67,75
384,note_on,,,,,3,0,13,,,,14,,64,75
384,note_on,,,,,0,0,12,,,,13,,52,49
384,note_on,,,,,54,0,6,,,,5,,52,62
384,note_on,,,,,54,0,12,,,,13,,67,49
384,note_on,,,,,0,0,12,,,,13,,72,49
384,note_on,,,,,3,0,8,,,,7,,72,75
384,note_on,,,,,102,0,2,,,,1,,60,127
405,note_off,,,,,21,0,1,,,,0,,67,0
408,note_on,,,,,3,0,1,,,,0,,69,127
426,note_off,,,,,42,0,8,,,,7,,72,0
426,note_off,,,,,42,0,6,,,,5,,52,0
426,note_off,,,,,42,0,12,,,,13,,67,0
426,note_off,,,,,0,0,12,,,,13,,72,0
426,note_off,,,,,0,0,12,,,,13,,52,0
426,note_off,,,,,42,0,3,,,,2,,72,0
426,note_off,,,,,42,0,4,,,,3,,67,0
426,note_off,,,,,42,0,13,,,,14,,64,0
426,note_off,,,,,42,0,2,,,,1,,60,0
426,note_off,,,,,42,0,10,,,,11,,52,0
426,note_off,,,,,42,0,9,,,,8,,67,0
426,note_off,,,,,42,0,11,,,,12,,40,0
426,note_off,,,,,42,0,7,,,,6,,72,0
426,note_off,,,,,42,0,5,,,,4,,64,0
429,note_off,,,,,21,0,1,,,,0,,69,0
432,note_on,,,,,3,0,1,,,,0,,67,127
432,note_on,,,,,6,0,9,,,,8,,67,75
432,note_on,,,,,0,0,12,,,,13,,76,49
432,note_on,,,,,6,0,12,,,,13,,72,49
432,note_on,,,,,6,0,13,,,,14,,64,75
432,note_on,,,,,6,0,6,,,,5,,55,62
432,note_on,,,,,6,0,3,,,,2,,72,62
432,note_on,,,,,6,0,11,,,,12,,43,49
432,note_on,,,,,6,0,7,,,,6,,72,75
432,note_on,,,,,6,0,2,,,,1,,60,127
432,note_on,,,,,6,0,10,,,,11,,55,49
432,note_on,,,,,6,0,8,,,,7,,72,75
432,note_on,,,,,0,0,12,,,,13,,55,49
432,note_on,,,,,6,0,4,,,,3,,67,62
432,note_on,,,,,6,0,5,,,,4,,64,62
453,note_off,,,,,21,0,2,,,,1,,60,0
453,note_off,,,,,21,0,1,,,,0,,67,0
456,note_on,,,,,3,0,2,,,,1,,60,127
456,note_on,,,,,3,0,1,,,,0,,69,127
474,note_off,,,,,42,0,11,,,,12,,43,0
474,note_off,,,,,42,0,12,,,,13,,72,0
474,note_off,,,,,0,0,12,,,,13,,76,0
474,note_off,,,,,0,0,12,,,,13,,55,0
474,note_off,,,,,42,0,13,,,,14,,64,0
474,note_off,,,,,42,0,6,,,,5,,55,0
474,note_off,,,,,42,0,3,,,,2,,72,0
474,note_off,,,,,42,0,5,,,,4,,64,0
474,note_off,,,,,42,0,8,,,,7,,72,0
474,note_off,,,,,42,0,4,,,,3,,67,0
474,note_off,,,,,42,0,7,,,,6,,72,0
474,note_off,,,,,42,0,10,,,,11,,55,0
474,note_off,,,,,42,0,9,,,,8,,67,0
477,note_off,,,,,21,0,2,,,,1,,60,0
477,note_off,,,,,21,0,1,,,,0,,69,0
480,note_on,,,,,6,0,11,,,,12,,48,49
480,note_on,,,,,6,0,8,,,,7,,72,75
480,note_on,,,,,6,0,3,,,,2,,72,62
480,note_on,,,,,6,0,13,,,,14,,64,75
480,note_on,,,,,6,0,7,,,,6,,72,75
480,note_on,,,,,6,0,5,,,,4,,64,62
480,note_on,,,,,3,0,2,,,,1,,60,127
480,note_on,,,,,6,0,6,,,,5,,60,62
480,note_on,,,,,6,0,9,,,,8,,67,75
480,note_on,,,,,0,0,12,,,,13,,79,49
480,note_on,,,,,0,0,12,,,,13,,60,49
480,note_on,,,,,6,0,10,,,,11,,60,49
480,note_on,,,,,6,0,4,,,,3,,67,62
480,note_on,,,,,6,0,12,,,,13,,76,49
480,note_on,,,,,3,0,1,,,,0,,70,127
501,note_off,,,,,21,0,2,,,,1,,60,0
501,note_off,,,,,21,0,1,,,,0,,70,0
504,note_on,,,,,3,0,1,,,,0,,69,127
504,note_on,,,,,3,0,2,,,,1,,60,127
522,note_off,,,,,42,0,9,,,,8,,67,0
522,note_off,,,,,42,0,10,,,,11,,60,0
522,note_off,,,,,42,0,7,,,,6,,72,0
522,note_off,,,,,42,0,4,,,,3,,67,0
522,note_off,,,,,42,0,8,,,,7,,72,0
522,note_off,,,,,42,0,11,,,,12,,48,0
522,note_off,,,,,42,0,5,,,,4,,64,0
522,note_off,,,,,42,0,3,,,,2,,72,0
522,note_off,,,,,42,0,6,,,,5,,60,0
522,note_off,,,,,42,0,13,,,,14,,64,0
522,note_off,,,,,0,0,12,,,,13,,79,0
522,note_off,,,,,42,0,12,,,,13,,76,0
522,note_off,,,,,0,0,12,,,,13,,60,0
525,note_off,,,,,21,0,1,,,,0,,69,0
525,note_off,,,,,21,0,2,,,,1,,60,0
528,note_on,,,,,6,0,12,,,,13,,67,49
528,note_on,,,,,6,0,9,,,,8,,67,75
528,note_on,,,,,3,0,1,,,,0,,67,127
528,note_on,,,,,6,0,10,,,,11,,52,49
528,note_on,,,,,6,0,6,,,,5,,52,62
528,note_on,,,,,3,0,2,,,,1,,60,127
528,note_on,,,,,6,0,4,,,,3,,67,62
528,note_on,,,,,6,0,7,,,,6,,72,75
528,note_on,,,,,6,0,5,,,,4,,64,62
528,note_on,,,,,6,0,11,,,,12,,40,49
528,note_on,,,,,6,0,13,,,,14,,64,75
528,note_on,,,,,6,0,3,,,,2,,72,62
528,note_on,,,,,0,0,12,,,,13,,52,49
528,note_on,,,,,0,0,12,,,,13,,72,49
528,note_on,,,,,6,0,8,,,,7,,72,75
570,note_off,,,,,42,0,6,,,,5,,52,0
570,note_off,,,,,42,0,8,,,,7,,72,0
570,note_off,,,,,42,0,1,,,,0,,67,0
570,note_off,,,,,42,0,11,,,,12,,40,0
570,note_off,,,,,42,0,2,,,,1,,60,0
570,note_off,,,,,42,0,3,,,,2,,72,0
570,note_off,,,,,42,0,13,,,,14,,64,0
570,note_off,,,,,42,0,9,,,,8,,67,0
570,note_off,,,,,42,0,5,,,,4,,64,0
570,note_off,,,,,42,0,10,,,,11,,52,0
570,note_off,,,,,0,0,12,,,,13,,52,0
570,note_off,,,,,42,0,7,,,,6,,72,0
570,note_off,,,,,0,0,12,,,,13,,72,0
570,note_off,,,,,42,0,4,,,,3,,67,0
570,note_off,,,,,42,0,12,,,,13,,67,0
576,note_on,,,,,6,0,4,,,,3,,72,62
576,note_on,,,,,6,0,13,,,,14,,67,75
576,note_on,,,,,6,0,3,,,,2,,76,62
576,note_on,,,,,6,0,7,,,,6,,76,75
576,note_on,,,,,6,0,11,,,,12,,36,49
576,note_on,,,,,6,0,8,,,,7,,76,75
576,note_on,,,,,0,0,12,,,,13,,48,49
576,note_on,,,,,6,0,6,,,,5,,48,62
576,note_on,,,,,6,0,12,,,,13,,64,49
576,note_on,,,,,0,0,12,,,,13,,67,49
576,note_on,,,,,6,0,9,,,,8,,72,75
576,note_on,,,,,6,0,5,,,,4,,67,62
576,note_on,,,,,6,0,10,,,,11,,48,49
597,note_off,,,,,21,0,7,,,,6,,76,0
597,note_off,,,,,21,0,8,,,,7,,76,0
597,note_off,,,,,21,0,9,,,,8,,72,0
597,note_off,,,,,21,0,13,,,,14,,67,0
597,note_off,,,,,21,0,5,,,,4,,67,0
597,note_off,,,,,21,0,3,,,,2,,76,0
597,note_off,,,,,21,0,4,,,,3,,72,0
600,note_on,,,,,3,0,8,,,,7,,74,75
600,note_on,,,,,3,0,13,,,,14,,65,75
600,note_on,,,,,3,0,9,,,,8,,71,75
600,note_on,,,,,3,0,4,,,,3,,71,62
600,note_on,,,,,3,0,7,,,,6,,74,75
600,note_on,,,,,3,0,3,,,,2,,74,62
600,note_on,,,,,3,0,5,,,,4,,65,62
618,note_off,,,,,42,0,10,,,,11,,48,0
618,note_off,,,,,42,0,6,,,,5,,48,0
618,note_off,,,,,42,0,11,,,,12,,36,0
618,note_off,,,,,42,0,12,,,,13,,64,0
618,note_off,,,,,0,0,12,,,,13,,48,0
618,note_off,,,,,0,0,12,,,,13,,67,0
621,note_off,,,,,21,0,7,,,,6,,74,0
621,note_off,,,,,21,0,5,,,,4,,65,0
621,note_off,,,,,21,0,8,,,,7,,74,0
621,note_off,,,,,21,0,13,,,,14,,65,0
621,note_off,,,,,21,0,4,,,,3,,71,0
621,note_off,,,,,21,0,9,,,,8,,71,0
621,note_off,,,,,21,0,3,,,,2,,74,0
624,note_on,,,,,3,0,9,,,,8,,72,75
624,note_on,,,,,3,0,7,,,,6,,76,75
624,note_on,,,,,3,0,3,,,,2,,76,62
624,note_on,,,,,3,0,5,,,,4,,67,62
624,note_on,,,,,3,0,8,,,,7,,76,75
624,note_on,,,,,3,0,13,,,,14,,67,75
624,note_on,,,,,3,0,4,,,,3,,72,62
645,note_off,,,,,21,0,13,,,,14,,67,0
645,note_off,,,,,21,0,3,,,,2,,76,0
645,note_off,,,,,21,0,8,,,,7,,76,0
645,note_off,,,,,21,0,9,,,,8,,72,0
645,note_off,,,,,21,0,5,,,,4,,67,0
645,note_off,,,,,21,0,7,,,,6,,76,0
645,note_off,,,,,21,0,4,,,,3,,72,0
648,note_on,,,,,3,0,9,,,,8,,67,75
648,note_on,,,,,3,0,7,,,,6,,72,75
648,note_on,,,,,3,0,8,,,,7,,72,75
648,note_on,,,,,3,0,3,,,,2,,72,62
648,note_on,,,,,3,0,13,,,,14,,64,75
648,note_on,,,,,3,0,5,,,,4,,64,62
648,note_on,,,,,3,0,4,,,,3,,67,62
669,note_off,,,,,21,0,9,,,,8,,67,0
669,note_off,,,,,21,0,7,,,,6,,72,0
669,note_off,,,,,21,0,3,,,,2,,72,0
669,note_off,,,,,21,0,5,,,,4,,64,0
669,note_off,,,,,21,0,4,,,,3,,67,0
669,note_off,,,,,21,0,8,,,,7,,72,0
669,note_off,,,,,21,0,13,,,,14,,64,0
672,note_on,,,,,102,0,1,,,,0,,69,127
672,note_on,,,,,3,0,4,,,,3,,74,62
672,note_on,,,,,3,0,3,,,,2,,77,62
672,note_on,,,,,3,0,13,,,,14,,69,75
672,note_on,,,,,3,0,9,,,,8,,74,75
672,note_on,,,,,0,0,12,,,,13,,50,49
672,note_on,,,,,3,0,8,,,,7,,77,75
672,note_on,,,,,54,0,10,,,,11,,50,49
672,note_on,,,,,54,0,6,,,,5,,50,62
672,note_on,,,,,3,0,7,,,,6,,77,75
672,note_on,,,,,54,0,12,,,,13,,69,49
672,note_on,,,,,102,0,2,,,,1,,65,127
672,note_on,,,,,54,0,11,,,,12,,38,49
672,note_on,,,,,0,0,12,,,,13,,77,49
672,note_on,,,,,3,0,5,,,,4,,69,62
693,note_off,,,,,21,0,2,,,,1,,65,0
693,note_off,,,,,21,0,1,,,,0,,69,0
696,note_on,,,,,3,0,1,,,,0,,70,127
696,note_on,,,,,3,0,2,,,,1,,67,127
714,note_off,,,,,42,0,12,,,,13,,69,0
714,note_off,,,,,0,0,12,,,,13,,50,0
714,note_off,,,,,42,0,7,,,,6,,77,0
714,note_off,,,,,0,0,12,,,,13,,77,0
714,note_off,,,,,42,0,3,,,,2,,77,0
714,note_off,,,,,42,0,8,,,,7,,77,0
714,note_off,,,,,42,0,5,,,,4,,69,0
714,note_off,,,,,42,0,4,,,,3,,74,0
714,note_off,,,,,42,0,9,,,,8,,74,0
714,note_off,,,,,42,0,10,,,,11,,50,0
714,note_off,,,,,42,0,13,,,,14,,69,0
714,note_off,,,,,42,0,11,,,,12,,38,0
714,note_off,,,,,42,0,6,,,,5,,50,0
717,note_off,,,,,21,0,2,,,,1,,67,0
717,note_off,,,,,21,0,1,,,,0,,70,0
720,note_on,,,,,6,0,3,,,,2,,77,62
720,note_on,,,,,6,0,6,,,,5,,53,62
720,note_on,,,,,6,0,11,,,,12,,41,49
720,note_on,,,,,6,0,4,,,,3,,74,62
720,note_on,,,,,6,0,5,,,,4,,69,62
720,note_on,,,,,3,0,1,,,,0,,69,127
720,note_on,,,,,3,0,2,,,,1,,65,127
720,note_on,,,,,6,0,10,,,,11,,53,49
720,note_on,,,,,6,0,7,,,,6,,77,75
720,note_on,,,,,0,0,12,,,,13,,53,49
720,note_on,,,,,6,0,9,,,,8,,74,75
720,note_on,,,,,0,0,12,,,,13,,77,49
720,note_on,,,,,6,0,8,,,,7,,77,75
720,note_on,,,,,6,0,13,,,,14,,69,75
720,note_on,,,,,6,0,12,,,,13,,74,49
741,note_off,,,,,21,0,2,,,,1,,65,0
741,note_off,,,,,21,0,1,,,,0,,69,0
744,note_on,,,,,3,0,1,,,,0,,70,127
744,note_on,,,,,3,0,2,,,,1,,67,127
762,note_off,,,,,42,0,13,,,,14,,69,0
762,note_off,,,,,42,0,3,,,,2,,77,0
762,note_off,,,,,42,0,8,,,,7,,77,0
762,note_off,,,,,42,0,4,,,,3,,74,0
762,note_off,,,,,42,0,9,,,,8,,74,0
762,note_off,,,,,42,0,5,,,,4,,69,0
762,note_off,,,,,0,0,12,,,,13,,53,0
762,note_off,,,,,42,0,7,,,,6,,77,0
762,note_off,,,,,42,0,10,,,,11,,53,0
762,note_off,,,,,42,0,12,,,,13,,74,0
762,note_off,,,,,42,0,6,,,,5,,53,0
762,note_off,,,,,0,0,12,,,,13,,77,0
762,note_off,,,,,42,0,11,,,,12,,41,0
765,note_off,,,,,21,0,1,,,,0,,70,0
765,note_off,,,,,21,0,2,,,,1,,67,0
768,note_on,,,,,0,0,12,,,,13,,50,49
768,note_on,,,,,3,0,1,,,,0,,72,127
768,note_on,,,,,6,0,8,,,,7,,77,75
768,note_on,,,,,0,0,12,,,,13,,77,49
768,note_on,,,,,6,0,12,,,,13,,69,49
768,note_on,,,,,6,0,9,,,,8,,74,75
768,note_on,,,,,6,0,5,,,,4,,69,62
768,note_on,,,,,3,0,2,,,,1,,69,127
768,note_on,,,,,6,0,7,,,,6,,77,75
768,note_on,,,,,6,0,4,,,,3,,74,62
768,note_on,,,,,6,0,10,,,,11,,50,49
768,note_on,,,,,6,0,11,,,,12,,38,49
768,note_on,,,,,6,0,6,,,,5,,50,62
768,note_on,,,,,6,0,13,,,,14,,69,75
768,note_on,,,,,6,0,3,,,,2,,77,62
789,note_off,,,,,21,0,1,,,,0,,72,0
789,note_off,,,,,21,0,2,,,,1,,69,0
792,note_on,,,,,3,0,1,,,,0,,70,127
792,note_on,,,,,3,0,2,,,,1,,67,127
810,note_off,,,,,42,0,9,,,,8,,74,0
810,note_off,,,,,42,0,10,,,,11,,50,0
810,note_off,,,,,42,0,5,,,,4,,69,0
810,note_off,,,,,42,0,13,,,,14,,69,0
810,note_off,,,,,42,0,7,,,,6,,77,0
810,note_off,,,,,42,0,4,,,,3,,74,0
810,note_off,,,,,42,0,8,,,,7,,77,0
810,note_off,,,,,42,0,6,,,,5,,50,0
810,note_off,,,,,42,0,12,,,,13,,69,0
810,note_off,,,,,0,0,12,,,,13,,77,0
810,note_off,,,,,42,0,11,,,,12,,38,0
810,note_off,,,,,0,0,12,,,,13,,50,0
810,note_off,,,,,42,0,3,,,,2,,77,0
813,note_off,,,,,21,0,1,,,,0,,70,0
813,note_off,,,,,21,0,2,,,,1,,67,0
816,note_on,,,,,6,0,6,,,,5,,45,62
816,note_on,,,,,3,0,2,,,,1,,65,127
816,note_on,,,,,6,0,9,,,,8,,72,75
816,note_on,,,,,6,0,11,,,,12,,33,49
816,note_on,,,,,6,0,3,,,,2,,77,62
816,note_on,,,,,6,0,8,,,,7,,77,75
816,note_on,,,,,6,0,5,,,,4,,69,62
816,note_on,,,,,6,0,7,,,,6,,77,75
816,note_on,,,,,6,0,12,,,,13,,65,49
816,note_on,,,,,6,0,10,,,,11,,45,49
816,note_on,,,,,3,0,1,,,,0,,69,127
816,note_on,,,,,0,0,12,,,,13,,72,49
816,note_on,,,,,0,0,12,,,,13,,45,49
816,note_on,,,,,6,0,4,,,,3,,72,62
816,note_on,,,,,6,0,13,,,,14,,69,75
837,note_off,,,,,21,0,2,,,,1,,65,0
837,note_off,,,,,21,0,1,,,,0,,69,0
840,note_on,,,,,3,0,1,,,,0,,70,127
840,note_on,,,,,3,0,2,,,,1,,67,127
858,note_off,,,,,0,0,12,,,,13,,72,0
858,note_off,,,,,42,0,11,,,,12,,33,0
858,note_off,,,,,42,0,3,,,,2,,77,0
858,note_off,,,,,42,0,8,,,,7,,77,0
858,note_off,,,,,42,0,4,,,,3,,72,0
858,note_off,,,,,42,0,12,,,,13,,65,0
858,note_off,,,,,42,0,10,,,,11,,45,0
858,note_off,,,,,42,0,13,,,,14,,69,0
858,note_off,,,,,42,0,7,,,,6,,77,0
858,note_off,,,,,42,0,5,,,,4,,69,0
858,note_off,,,,,42,0,6,,,,5,,45,0
858,note_off,,,,,0,0,12,,,,13,,45,0
858,note_off,,,,,42,0,9,,,,8,,72,0
861,note_off,,,,,21,0,2,,,,1,,67,0
861,note_off,,,,,21,0,1,,,,0,,70,0
864,note_on,,,,,3,0,2,,,,1,,65,127
864,note_on,,,,,6,0,12,,,,13,,60,49
864,note_on,,,,,6,0,3,,,,2,,79,62
864,note_on,,,,,0,0,12,,,,13,,41,49
864,note_on,,,,,6,0,8,,,,7,,79,75
864,note_on,,,,,0,0,12,,,,13,,69,49
864,note_on,,,,,6,0,4,,,,3,,76,62
864,note_on,,,,,6,0,11,,,,12,,29,49
864,note_on,,,,,6,0,9,,,,8,,76,75
864,note_on,,,,,6,0,10,,,,11,,41,49
864,note_on,,,,,6,0,6,,,,5,,41,62
864,note_on,,,,,6,0,5,,,,4,,60,62
864,note_on,,,,,6,0,7,,,,6,,79,75
864,note_on,,,,,3,0,1,,,,0,,69,127
864,note_on,,,,,6,0,13,,,,14,,60,75
885,note_off,,,,,21,0,9,,,,8,,76,0
885,note_off,,,,,21,0,4,,,,3,,76,0
885,note_off,,,,,21,0,3,,,,2,,79,0
885,note_off,,,,,21,0,8,,,,7,,79,0
885,note_off,,,,,21,0,7,,,,6,,79,0
885,note_off,,,,,21,0,2,,,,1,,65,0
885,note_off,,,,,21,0,1,,,,0,,69,0
888,note_on,,,,,3,0,1,,,,0,,70,127
888,note_on,,,,,3,0,2,,,,1,,67,127
888,note_on,,,,,3,0,8,,,,7,,77,75
888,note_on,,,,,3,0,9,,,,8,,74,75
888,note_on,,,,,3,0,7,,,,6,,77,75
888,note_on,,,,,3,0,3,,,,2,,77,62
888,note_on,,,,,3,0,4,,,,3,,74,62
906,note_off,,,,,42,0,6,,,,5,,41,0
906,note_off,,,,,42,0,10,,,,11,,41,0
906,note_off,,,,,42,0,5,,,,4,,60,0
906,note_off,,,,,42,0,13,,,,14,,60,0
906,note_off,,,,,42,0,11,,,,12,,29,0
906,note_off,,,,,42,0,12,,,,13,,60,0
906,note_off,,,,,0,0,12,,,,13,,69,0
906,note_off,,,,,0,0,12,,,,13,,41,0
909,note_off,,,,,21,0,3,,,,2,,77,0
909,note_off,,,,,21,0,4,,,,3,,74,0
909,note_off,,,,,21,0,9,,,,8,,74,0
909,note_off,,,,,21,0,2,,,,1,,67,0
909,note_off,,,,,21,0,8,,,,7,,77,0
909,note_off,,,,,21,0,1,,,,0,,70,0
909,note_off,,,,,21,0,7,,,,6,,77,0
912,note_on,,,,,3,0,9,,,,8,,72,75
912,note_on,,,,,3,0,7,,,,6,,76,75
912,note_on,,,,,3,0,8,,,,7,,76,75
912,note_on,,,,,3,0,2,,,,1,,69,127
912,note_on,,,,,3,0,4,,,,3,,72,62
912,note_on,,,,,6,0,5,,,,4,,65,62
912,note_on,,,,,3,0,3,,,,2,,76,62
912,note_on,,,,,6,0,13,,,,14,,65,75
912,note_on,,,,,3,0,1,,,,0,,72,127
933,note_off,,,,,21,0,4,,,,3,,72,0
933,note_off,,,,,21,0,7,,,,6,,76,0
933,note_off,,,,,21,0,8,,,,7,,76,0
933,note_off,,,,,21,0,3,,,,2,,76,0
933,note_off,,,,,21,0,9,,,,8,,72,0
936,note_on,,,,,3,0,8,,,,7,,74,75
936,note_on,,,,,3,0,9,,,,8,,71,75
936,note_on,,,,,3,0,4,,,,3,,71,62
936,note_on,,,,,3,0,7,,,,6,,74,75
936,note_on,,,,,3,0,3,,,,2,,74,62
954,note_off,,,,,42,0,5,,,,4,,65,0
954,note_off,,,,,42,0,1,,,,0,,72,0
954,note_off,,,,,42,0,2,,,,1,,69,0
954,note_off,,,,,42,0,13,,,,14,,65,0
957,note_off,,,,,21,0,9,,,,8,,71,0
957,note_off,,,,,21,0,7,,,,6,,74,0
957,note_off,,,,,21,0,4,,,,3,,71,0
957,note_off,,,,,21,0,8,,,,7,,74,0
957,note_off,,,,,21,0,3,,,,2,,74,0
960,note_on,,,,,6,0,5,,,,4,,67,62
960,note_on,,,,,3,0,9,,,,8,,72,75
960,note_on,,,,,0,0,12,,,,13,,76,49
960,note_on,,,,,3,0,7,,,,6,,76,75
960,note_on,,,,,6,0,1,,,,0,,67,127
960,note_on,,,,,6,0,13,,,,14,,67,75
960,note_on,,,,,0,0,12,,,,13,,48,49
960,note_on,,,,,54,0,11,,,,12,,36,49
960,note_on,,,,,54,0,10,,,,11,,48,49
960,note_on,,,,,3,0,8,,,,7,,76,75
960,note_on,,,,,54,0,12,,,,13,,67,49
960,note_on,,,,,6,0,2,,,,1,,60,127
960,note_on,,,,,3,0,3,,,,2,,76,62
960,note_on,,,,,3,0,4,,,,3,,72,62
960,note_on,,,,,54,0,6,,,,5,,48,62
981,note_off,,,,,21,0,9,,,,8,,72,0
981,note_off,,,,,21,0,7,,,,6,,76,0
981,note_off,,,,,21,0,8,,,,7,,76,0
981,note_off,,,,,21,0,4,,,,3,,72,0
981,note_off,,,,,21,0,3,,,,2,,76,0
984,note_on,,,,,3,0,7,,,,6,,77,75
984,note_on,,,,,3,0,4,,,,3,,74,62
984,note_on,,,,,3,0,9,,,,8,,74,75
984,note_on,,,,,3,0,3,,,,2,,77,62
984,note_on,,,,,3,0,8,,,,7,,77,75
1002,note_off,,,,,42,0,11,,,,12,,36,0
1002,note_off,,,,,42,0,12,,,,13,,67,0
1002,note_off,,,,,0,0,12,,,,13,,76,0
1002,note_off,,,,,0,0,12,,,,13,,48,0
1002,note_off,,,,,42,0,13,,,,14,,67,0
1002,note_off,,,,,42,0,6,,,,5,,48,0
1002,note_off,,,,,42,0,2,,,,1,,60,0
1002,note_off,,,,,42,0,1,,,,0,,67,0
1002,note_off,,,,,42,0,5,,,,4,,67,0
1002,note_off,,,,,42,0,10,,,,11,,48,0
1005,note_off,,,,,21,0,7,,,,6,,77,0
1005,note_off,,,,,21,0,4,,,,3,,74,0
1005,note_off,,,,,21,0,9,,,,8,,74,0
1005,note_off,,,,,21,0,3,,,,2,,77,0
1005,note_off,,,,,21,0,8,,,,7,,77,0
1008,note_on,,,,,6,0,10,,,,11,,48,49
1008,note_on,,,,,0,0,12,,,,13,,48,49
1008,note_on,,,,,3,0,3,,,,2,,79,62
1008,note_on,,,,,6,0,11,,,,12,,36,49
1008,note_on,,,,,3,0,7,,,,6,,79,75
1008,note_on,,,,,6,0,6,,,,5,,48,62
1008,note_on,,,,,6,0,5,,,,4,,60,62
1008,note_on,,,,,0,0,12,,,,13,,74,49
1008,note_on,,,,,6,0,13,,,,14,,60,75
1008,note_on,,,,,3,0,4,,,,3,,76,62
1008,note_on,,,,,6,0,1,,,,0,,67,127
1008,note_on,,,,,3,0,8,,,,7,,79,75
1008,note_on,,,,,6,0,2,,,,1,,60,127
1008,note_on,,,,,6,0,12,,,,13,,69,49
1008,note_on,,,,,3,0,9,,,,8,,76,75
1018,note_off,,,,,10,0,8,,,,7,,79,0
1018,note_off,,,,,10,0,7,,,,6,,79,0
1018,note_off,,,,,10,0,3,,,,2,,79,0
1018,note_off,,,,,10,0,4,,,,3,,76,0
1018,note_off,,,,,10,0,9,,,,8,,76,0
1020,note_on,,,,,2,0,8,,,,7,,77,75
1020,note_on,,,,,2,0,7,,,,6,,77,75
1020,note_on,,,,,2,0,3,,,,2,,77,62
1020,note_on,,,,,2,0,4,,,,3,,74,62
1020,note_on,,,,,2,0,9,,,,8,,74,75
1029,note_off,,,,,21,0,1,,,,0,,67,0
1029,note_off,,,,,21,0,2,,,,1,,60,0
1030,note_off,,,,,10,0,8,,,,7,,77,0
1030,note_off,,,,,10,0,4,,,,3,,74,0
1030,note_off,,,,,10,0,9,,,,8,,74,0
1030,note_off,,,,,10,0,3,,,,2,,77,0
1030,note_off,,,,,10,0,7,,,,6,,77,0
1032,note_on,,,,,2,0,7,,,,6,,79,75
1032,note_on,,,,,3,0,2,,,,1,,60,127
1032,note_on,,,,,2,0,4,,,,3,,76,62
1032,note_on,,,,,2,0,8,,,,7,,79,75
1032,note_on,,,,,3,0,1,,,,0,,67,127
1032,note_on,,,,,2,0,9,,,,8,,76,75
1032,note_on,,,,,2,0,3,,,,2,,79,62
1042,note_off,,,,,10,0,7,,,,6,,79,0
1042,note_off,,,,,10,0,3,,,,2,,79,0
1042,note_off,,,,,10,0,4,,,,3,,76,0
1042,note_off,,,,,10,0,9,,,,8,,76,0
1042,note_off,,,,,10,0,8,,,,7,,79,0
1044,note_on,,,,,2,0,4,,,,3,,74,62
1044,note_on,,,,,2,0,8,,,,7,,77,75
1044,note_on,,,,,2,0,7,,,,6,,77,75
1044,note_on,,,,,2,0,3,,,,2,,77,62
1044,note_on,,,,,2,0,9,,,,8,,74,75
1050,note_off,,,,,0,0,12,,,,13,,74,0
1050,note_off,,,,,42,0,6,,,,5,,48,0
1050,note_off,,,,,42,0,13,,,,14,,60,0
1050,note_off,,,,,0,0,12,,,,13,,48,0
1050,note_off,,,,,42,0,5,,,,4,,60,0
1050,note_off,,,,,42,0,10,,,,11,,48,0
1050,note_off,,,,,42,0,12,,,,13,,69,0
1050,note_off,,,,,42,0,11,,,,12,,36,0
1053,note_off,,,,,21,0,2,,,,1,,60,0
1053,note_off,,,,,21,0,1,,,,0,,67,0
1054,note_off,,,,,10,0,9,,,,8,,74,0
1054,note_off,,,,,10,0,4,,,,3,,74,0
1054,note_off,,,,,10,0,8,,,,7,,77,0
1054,note_off,,,,,10,0,7,,,,6,,77,0
1054,note_off,,,,,10,0,3,,,,2,,77,0
1056,note_on,,,,,2,0,8,,,,7,,79,75
1056,note_on,,,,,3,0,2,,,,1,,60,127
1056,note_on,,,,,2,0,3,,,,2,,79,62
1056,note_on,,,,,2,0,4,,,,3,,76,62
1056,note_on,,,,,6,0,6,,,,5,,48,62
1056,note_on,,,,,6,0,5,,,,4,,67,62
1056,note_on,,,,,2,0,9,,,,8,,76,75
1056,note_on,,,,,6,0,13,,,,14,,67,75
1056,note_on,,,,,6,0,10,,,,11,,48,49
1056,note_on,,,,,3,0,1,,,,0,,67,127
1056,note_on,,,,,2,0,7,,,,6,,79,75
1056,note_on,,,,,6,0,11,,,,12,,36,49
1056,note_on,,,,,0,0,12,,,,13,,48,49
1056,note_on,,,,,0,0,12,,,,13,,76,49
1056,note_on,,,,,6,0,12,,,,13,,67,49
1066,note_off,,,,,10,0,3,,,,2,,79,0
1066,note_off,,,,,10,0,8,,,,7,,79,0
1066,note_off,,,,,10,0,4,,,,3,,76,0
1066,note_off,,,,,10,0,9,,,,8,,76,0
1066,note_off,,,,,10,0,7,,,,6,,79,0
1068,note_on,,,,,2,0,9,,,,8,,74,75
1068,note_on,,,,,2,0,4,,,,3,,74,62
1068,note_on,,,,,2,0,8,,,,7,,77,75
1068,note_on,,,,,2,0,3,,,,2,,77,62
1068,note_on,,,,,2,0,7,,,,6,,77,75
1077,note_off,,,,,21,0,1,,,,0,,67,0
1077,note_off,,,,,21,0,2,,,,1,,60,0
1078,note_off,,,,,10,0,9,,,,8,,74,0
1078,note_off,,,,,10,0,7,,,,6,,77,0
1078,note_off,,,,,10,0,4,,,,3,,74,0
1078,note_off,,,,,10,0,8,,,,7,,77,0
1078,note_off,,,,,10,0,3,,,,2,,77,0
1080,note_on,,,,,2,0,7,,,,6,,76,75
1080,note_on,,,,,3,0,2,,,,1,,60,127
1080,note_on,,,,,2,0,3,,,,2,,76,62
1080,note_on,,,,,2,0,4,,,,3,,72,62
1080,note_on,,,,,2,0,8,,,,7,,76,75
1080,note_on,,,,,2,0,9,,,,8,,72,75
1080,note_on,,,,,3,0,1,,,,0,,67,127
1090,note_off,,,,,10,0,9,,,,8,,72,0
1090,note_off,,,,,10,0,7,,,,6,,76,0
1090,note_off,,,,,10,0,3,,,,2,,76,0
1090,note_off,,,,,10,0,4,,,,3,,72,0
1090,note_off,,,,,10,0,8,,,,7,,76,0
1092,note_on,,,,,2,0,8,,,,7,,77,75
1092,note_on,,,,,2,0,3,,,,2,,77,62
1092,note_on,,,,,2,0,7,,,,6,,77,75
1092,note_on,,,,,2,0,4,,,,3,,74,62
1092,note_on,,,,,2,0,9,,,,8,,74,75
1098,note_off,,,,,42,0,6,,,,5,,48,0
1098,note_off,,,,,42,0,5,,,,4,,67,0
1098,note_off,,,,,42,0,11,,,,12,,36,0
1098,note_off,,,,,0,0,12,,,,13,,48,0
1098,note_off,,,,,0,0,12,,,,13,,76,0
1098,note_off,,,,,42,0,10,,,,11,,48,0
1098,note_off,,,,,42,0,13,,,,14,,67,0
1098,note_off,,,,,42,0,12,,,,13,,67,0
1101,note_off,,,,,21,0,1,,,,0,,67,0
1101,note_off,,,,,21,0,2,,,,1,,60,0
1102,note_off,,,,,10,0,4,,,,3,,74,0
1102,note_off,,,,,10,0,9,,,,8,,74,0
1102,note_off,,,,,10,0,8,,,,7,,77,0
1102,note_off,,,,,10,0,3,,,,2,,77,0
1102,note_off,,,,,10,0,7,,,,6,,77,0
1104,note_on,,,,,2,0,9,,,,8,,76,75
1104,note_on,,,,,6,0,13,,,,14,,72,75
1104,note_on,,,,,3,0,1,,,,0,,67,127
1104,note_on,,,,,6,0,10,,,,11,,48,49
1104,note_on,,,,,2,0,8,,,,7,,79,75
1104,note_on,,,,,6,0,6,,,,5,,48,62
1104,note_on,,,,,2,0,3,,,,2,,79,62
1104,note_on,,,,,2,0,4,,,,3,,76,62
1104,note_on,,,,,3,0,2,,,,1,,60,127
1104,note_on,,,,,6,0,12,,,,13,,67,49
1104,note_on,,,,,6,0,11,,,,12,,36,49
1104,note_on,,,,,0,0,12,,,,13,,76,49
1104,note_on,,,,,6,0,5,,,,4,,72,62
1104,note_on,,,,,0,0,12,,,,13,,48,49
1104,note_on,,,,,2,0,7,,,,6,,79,75
1146,note_off,,,,,42,0,2,,,,1,,60,0
1146,note_off,,,,,42,0,11,,,,12,,36,0
1146,note_off,,,,,42,0,7,,,,6,,79,0
1146,note_off,,,,,0,0,12,,,,13,,48,0
1146,note_off,,,,,42,0,12,,,,13,,67,0
1146,note_off,,,,,42,0,3,,,,2,,79,0
1146,note_off,,,,,42,0,1,,,,0,,67,0
1146,note_off,,,,,0,0,12,,,,13,,76,0
1146,note_off,,,,,42,0,6,,,,5,,48,0
1146,note_off,,,,,42,0,8,,,,7,,79,0
1146,note_off,,,,,42,0,10,,,,11,,48,0
1152,note_on,,,,,0,0,12,,,,13,,72,49
1152,note_on,,,,,6,0,12,,,,13,,67,49
1152,note_on,,,,,6,0,8,,,,7,,72,75
1152,note_on,,,,,6,0,10,,,,11,,52,49
1152,note_on,,,,,6,0,11,,,,12,,40,49
1152,note_on,,,,,6,0,3,,,,2,,72,62
1152,note_on,,,,,0,0,12,,,,13,,52,49
1152,note_on,,,,,6,0,7,,,,6,,72,75
1152,note_on,,,,,6,0,6,,,,5,,52,62
1173,note_off,,,,,21,0,12,,,,13,,52,0
1173,note_off,,,,,21,0,10,,,,11,,52,0
1173,note_off,,,,,21,0,6,,,,5,,52,0
1173,note_off,,,,,21,0,11,,,,12,,40,0
1176,note_on,,,,,3,0,10,,,,11,,50,49
1176,note_on,,,,,3,0,11,,,,12,,38,49
1176,note_on,,,,,3,0,6,,,,5,,50,62
1176,note_on,,,,,3,0,12,,,,13,,50,49
1188,note_off,,,,,84,0,9,,,,8,,76,0
1188,note_off,,,,,84,0,13,,,,14,,72,0
1188,note_off,,,,,84,0,5,,,,4,,72,0
1188,note_off,,,,,84,0,4,,,,3,,76,0
1194,note_off,,,,,42,0,3,,,,2,,72,0
1194,note_off,,,,,18,0,12,,,,13,,67,0
1194,note_off,,,,,42,0,7,,,,6,,72,0
1194,note_off,,,,,42,0,8,,,,7,,72,0
1194,note_off,,,,,0,0,12,,,,13,,72,0
1197,note_off,,,,,21,0,11,,,,12,,38,0
1197,note_off,,,,,21,0,6,,,,5,,50,0
1197,note_off,,,,,21,0,10,,,,11,,50,0
1197,note_off,,,,,3,0,12,,,,13,,50,0
1200,note_on,,,,,12,0,13,,,,14,,67,75
1200,note_on,,,,,6,0,3,,,,2,,79,62
1200,note_on,,,,,6,0,7,,,,6,,79,75
1200,note_on,,,,,0,0,12,,,,13,,52,49
1200,note_on,,,,,0,0,12,,,,13,,72,49
1200,note_on,,,,,3,0,12,,,,13,,67,49
1200,note_on,,,,,12,0,5,,,,4,,67,62
1200,note_on,,,,,12,0,9,,,,8,,72,75
1200,note_on,,,,,12,0,4,,,,3,,72,62
1200,note_on,,,,,3,0,6,,,,5,,52,62
1200,note_on,,,,,3,0,11,,,,12,,40,49
1200,note_on,,,,,3,0,10,,,,11,,52,49
1200,note_on,,,,,6,0,8,,,,7,,79,75
1221,note_off,,,,,21,0,10,,,,11,,52,0
1221,note_off,,,,,21,0,11,,,,12,,40,0
1221,note_off,,,,,21,0,6,,,,5,,52,0
1221,note_off,,,,,21,0,12,,,,13,,52,0
1224,note_on,,,,,3,0,11,,,,12,,36,49
1224,note_on,,,,,3,0,12,,,,13,,48,49
1224,note_on,,,,,3,0,6,,,,5,,48,62
1224,note_on,,,,,3,0,10,,,,11,,48,49
1242,note_off,,,,,42,0,3,,,,2,,79,0
1242,note_off,,,,,42,0,9,,,,8,,72,0
1242,note_off,,,,,42,0,13,,,,14,,67,0
1242,note_off,,,,,42,0,4,,,,3,,72,0
1242,note_off,,,,,42,0,5,,,,4,,67,0
1242,note_off,,,,,42,0,7,,,,6,,79,0
1242,note_off,,,,,18,0,12,,,,13,,67,0
1242,note_off,,,,,0,0,12,,,,13,,72,0
1242,note_off,,,,,42,0,8,,,,7,,79,0
1245,note_off,,,,,21,0,11,,,,12,,36,0
1245,note_off,,,,,21,0,6,,,,5,,48,0
1245,note_off,,,,,21,0,10,,,,11,,48,0
1245,note_off,,,,,3,0,12,,,,13,,48,0
1248,note_on,,,,,3,0,12,,,,13,,69,49
1248,note_on,,,,,0,0,12,,,,13,,74,49
1248,note_on,,,,,0,0,12,,,,13,,53,49
1248,note_on,,,,,6,0,7,,,,6,,81,75
1248,note_on,,,,,6,0,4,,,,3,,72,62
1248,note_on,,,,,6,0,3,,,,2,,81,62
1248,note_on,,,,,3,0,6,,,,5,,53,62
1248,note_on,,,,,3,0,11,,,,12,,41,49
1248,note_on,,,,,6,0,5,,,,4,,65,62
1248,note_on,,,,,3,0,10,,,,11,,53,49
1248,note_on,,,,,6,0,13,,,,14,,65,75
1248,note_on,,,,,6,0,9,,,,8,,72,75
1248,note_on,,,,,6,0,8,,,,7,,81,75
1269,note_off,,,,,21,0,7,,,,6,,81,0
1269,note_off,,,,,21,0,3,,,,2,,81,0
1269,note_off,,,,,21,0,8,,,,7,,81,0
1272,note_on,,,,,3,0,3,,,,2,,79,62
1272,note_on,,,,,3,0,8,,,,7,,79,75
1272,note_on,,,,,3,0,7,,,,6,,79,75
1290,note_off,,,,,42,0,11,,,,12,,41,0
1290,note_off,,,,,42,0,9,,,,8,,72,0
1290,note_off,,,,,42,0,13,,,,14,,65,0
1290,note_off,,,,,0,0,12,,,,13,,53,0
1290,note_off,,,,,0,0,12,,,,13,,74,0
1290,note_off,,,,,42,0,10,,,,11,,53,0
1290,note_off,,,,,42,0,6,,,,5,,53,0
1290,note_off,,,,,42,0,4,,,,3,,72,0
1290,note_off,,,,,42,0,5,,,,4,,65,0
1290,note_off,,,,,42,0,12,,,,13,,69,0
1293,note_off,,,,,21,0,8,,,,7,,79,0
1293,note_off,,,,,21,0,3,,,,2,,79,0
1293,note_off,,,,,21,0,7,,,,6,,79,0
1296,note_on,,,,,6,0,11,,,,12,,45,49
1296,note_on,,,,,6,0,6,,,,5,,57,62
1296,note_on,,,,,3,0,8,,,,7,,77,75
1296,note_on,,,,,3,0,3,,,,2,,77,62
1296,note_on,,,,,6,0,10,,,,11,,57,49
1296,note_on,,,,,6,0,12,,,,13,,65,49
1296,note_on,,,,,0,0,12,,,,13,,74,49
1296,note_on,,,,,0,0,12,,,,13,,57,49
1296,note_on,,,,,3,0,7,,,,6,,77,75
1317,note_off,,,,,21,0,7,,,,6,,77,0
1317,note_off,,,,,21,0,3,,,,2,,77,0
1317,note_off,,,,,21,0,8,,,,7,,77,0
1320,note_on,,,,,3,0,7,,,,6,,76,75
1320,note_on,,,,,3,0,8,,,,7,,76,75
1320,note_on,,,,,3,0,3,,,,2,,76,62
1338,note_off,,,,,42,0,11,,,,12,,45,0
1338,note_off,,,,,42,0,6,,,,5,,57,0
1338,note_off,,,,,0,0,12,,,,13,,57,0
1338,note_off,,,,,0,0,12,,,,13,,74,0
1338,note_off,,,,,42,0,12,,,,13,,65,0
1338,note_off,,,,,42,0,10,,,,11,,57,0
1341,note_off,,,,,21,0,3,,,,2,,76,0
1341,note_off,,,,,21,0,7,,,,6,,76,0
1341,note_off,,,,,21,0,8,,,,7,,76,0
1344,note_on,,,,,0,0,12,,,,13,,69,49
1344,note_on,,,,,6,0,12,,,,13,,62,49
1344,note_on,,,,,6,0,10,,,,11,,62,49
1344,note_on,,,,,3,0,7,,,,6,,77,75
1344,note_on,,,,,3,0,3,,,,2,,77,62
1344,note_on,,,,,0,0,12,,,,13,,62,49
1344,note_on,,,,,6,0,6,,,,5,,62,62
1344,note_on,,,,,3,0,8,,,,7,,77,75
1344,note_on,,,,,6,0,11,,,,12,,50,49
1365,note_off,,,,,21,0,7,,,,6,,77,0
1365,note_off,,,,,21,0,8,,,,7,,77,0
1365,note_off,,,,,21,0,3,,,,2,,77,0
1368,note_on,,,,,3,0,3,,,,2,,74,62
1368,note_on,,,,,3,0,8,,,,7,,74,75
1368,note_on,,,,,3,0,7,,,,6,,74,75
1386,note_off,,,,,42,0,10,,,,11,,62,0
1386,note_off,,,,,42,0,11,,,,12,,50,0
1386,note_off,,,,,42,0,12,,,,13,,62,0
1386,note_off,,,,,42,0,6,,,,5,,62,0
1386,note_off,,,,,0,0,12,,,,13,,62,0
1386,note_off,,,,,0,0,12,,,,13,,69,0
1389,note_off,,,,,21,0,8,,,,7,,74,0
1389,note_off,,,,,21,0,3,,,,2,,74,0
1389,note_off,,,,,21,0,7,,,,6,,74,0
1392,note_on,,,,,3,0,7,,,,6,,79,75
1392,note_on,,,,,102,0,9,,,,8,,72,75
1392,note_on,,,,,102,0,13,,,,14,,67,75
1392,note_on,,,,,6,0,6,,,,5,,52,62
1392,note_on,,,,,6,0,10,,,,11,,52,49
1392,note_on,,,,,102,0,5,,,,4,,67,62
1392,note_on,,,,,3,0,3,,,,2,,79,62
1392,note_on,,,,,6,0,11,,,,12,,40,49
1392,note_on,,,,,0,0,12,,,,13,,52,49
1392,note_on,,,,,6,0,12,,,,13,,67,49
1392,note_on,,,,,102,0,4,,,,3,,72,62
1392,note_on,,,,,3,0,8,,,,7,,79,75
1392,note_on,,,,,0,0,12,,,,13,,72,49
1413,note_off,,,,,21,0,3,,,,2,,79,0
1413,note_off,,,,,21,0,8,,,,7,,79,0
1413,note_off,,,,,21,0,7,,,,6,,79,0
1416,note_on,,,,,3,0,7,,,,6,,67,75
1416,note_on,,,,,3,0,8,,,,7,,67,75
1416,note_on,,,,,3,0,3,,,,2,,67,62
1434,note_off,,,,,42,0,4,,,,3,,72,0
1434,note_off,,,,,42,0,10,,,,11,,52,0
1434,note_off,,,,,42,0,13,,,,14,,67,0
1434,note_off,,,,,42,0,5,,,,4,,67,0
1434,note_off,,,,,0,0,12,,,,13,,52,0
1434,note_off,,,,,42,0,12,,,,13,,67,0
1434,note_off,,,,,42,0,11,,,,12,,40,0
1434,note_off,,,,,42,0,9,,,,8,,72,0
1434,note_off,,,,,42,0,6,,,,5,,52,0
1434,note_off,,,,,0,0,12,,,,13,,72,0
1437,note_off,,,,,21,0,3,,,,2,,67,0
1437,note_off,,,,,21,0,8,,,,7,,67,0
1437,note_off,,,,,21,0,7,,,,6,,67,0
1440,note_on,,,,,0,0,12,,,,13,,72,49
1440,note_on,,,,,6,0,12,,,,13,,64,49
1440,note_on,,,,,6,0,11,,,,12,,43,49
1440,note_on,,,,,3,0,7,,,,6,,72,75
1440,note_on,,,,,0,0,12,,,,13,,55,49
1440,note_on,,,,,6,0,6,,,,5,,55,62
1440,note_on,,,,,6,0,10,,,,11,,55,49
1440,note_on,,,,,3,0,8,,,,7,,72,75
1440,note_on,,,,,3,0,3,,,,2,,72,62
1461,note_off,,,,,21,0,8,,,,7,,72,0
1461,note_off,,,,,21,0,7,,,,6,,72,0
1461,note_off,,,,,21,0,3,,,,2,,72,0
1464,note_on,,,,,3,0,8,,,,7,,74,75
1464,note_on,,,,,3,0,7,,,,6,,74,75
1464,note_on,,,,,3,0,3,,,,2,,74,62
1482,note_off,,,,,42,0,12,,,,13,,64,0
1482,note_off,,,,,42,0,11,,,,12,,43,0
1482,note_off,,,,,42,0,10,,,,11,,55,0
1482,note_off,,,,,0,0,12,,,,13,,72,0
1482,note_off,,,,,0,0,12,,,,13,,55,0
1482,note_off,,,,,42,0,6,,,,5,,55,0
1485,note_off,,,,,21,0,7,,,,6,,74,0
1485,note_off,,,,,21,0,8,,,,7,,74,0
1485,note_off,,,,,21,0,3,,,,2,,74,0
1488,note_on,,,,,3,0,7,,,,6,,76,75
1488,note_on,,,,,3,0,8,,,,7,,76,75
1488,note_on,,,,,6,0,10,,,,11,,60,49
1488,note_on,,,,,3,0,3,,,,2,,76,62
1488,note_on,,,,,6,0,11,,,,12,,48,49
1488,note_on,,,,,6,0,6,,,,5,,60,62
1488,note_on,,,,,0,0,12,,,,13,,67,49
1488,note_on,,,,,0,0,12,,,,13,,60,49
1488,note_on,,,,,6,0,12,,,,13,,64,49
1509,note_off,,,,,21,0,8,,,,7,,76,0
1509,note_off,,,,,21,0,7,,,,6,,76,0
1509,note_off,,,,,21,0,3,,,,2,,76,0
1512,note_on,,,,,3,0,7,,,,6,,72,75
1512,note_on,,,,,3,0,8,,,,7,,72,75
1512,note_on,,,,,3,0,3,,,,2,,72,62
1530,note_off,,,,,42,0,12,,,,13,,64,0
1530,note_off,,,,,0,0,12,,,,13,,67,0
1530,note_off,,,,,0,0,12,,,,13,,60,0
1530,note_off,,,,,42,0,10,,,,11,,60,0
1530,note_off,,,,,42,0,6,,,,5,,60,0
1530,note_off,,,,,42,0,11,,,,12,,48,0
1533,note_off,,,,,21,0,7,,,,6,,72,0
1533,note_off,,,,,21,0,8,,,,7,,72,0
1533,note_off,,,,,21,0,3,,,,2,,72,0
1536,note_on,,,,,6,0,11,,,,12,,38,49
1536,note_on,,,,,6,0,12,,,,13,,65,49
1536,note_on,,,,,3,0,8,,,,7,,77,75
1536,note_on,,,,,102,0,9,,,,8,,74,75
1536,note_on,,,,,102,0,13,,,,14,,69,75
1536,note_on,,,,,0,0,12,,,,13,,70,49
1536,note_on,,,,,102,0,5,,,,4,,69,62
1536,note_on,,,,,6,0,10,,,,11,,50,49
1536,note_on,,,,,3,0,7,,,,6,,77,75
1536,note_on,,,,,0,0,12,,,,13,,50,49
1536,note_on,,,,,6,0,6,,,,5,,50,62
1536,note_on,,,,,102,0,4,,,,3,,74,62
1536,note_on,,,,,3,0,3,,,,2,,77,62
1557,note_off,,,,,21,0,8,,,,7,,77,0
1557,note_off,,,,,21,0,3,,,,2,,77,0
1557,note_off,,,,,21,0,7,,,,6,,77,0
1560,note_on,,,,,3,0,8,,,,7,,76,75
1560,note_on,,,,,3,0,3,,,,2,,76,62
1560,note_on,,,,,3,0,7,,,,6,,76,75
1578,note_off,,,,,42,0,10,,,,11,,50,0
1578,note_off,,,,,0,0,12,,,,13,,50,0
1578,note_off,,,,,42,0,4,,,,3,,74,0
1578,note_off,,,,,42,0,13,,,,14,,69,0
1578,note_off,,,,,42,0,11,,,,12,,38,0
1578,note_off,,,,,42,0,9,,,,8,,74,0
1578,note_off,,,,,0,0,12,,,,13,,70,0
1578,note_off,,,,,42,0,5,,,,4,,69,0
1578,note_off,,,,,42,0,6,,,,5,,50,0
1578,note_off,,,,,42,0,12,,,,13,,65,0
1581,note_off,,,,,21,0,7,,,,6,,76,0
1581,note_off,,,,,21,0,3,,,,2,,76,0
1581,note_off,,,,,21,0,8,,,,7,,76,0
1584,note_on,,,,,0,0,12,,,,13,,53,49
1584,note_on,,,,,0,0,12,,,,13,,70,49
1584,note_on,,,,,6,0,12,,,,13,,62,49
1584,note_on,,,,,3,0,7,,,,6,,74,75
1584,note_on,,,,,6,0,11,,,,12,,41,49
1584,note_on,,,,,6,0,10,,,,11,,53,49
1584,note_on,,,,,6,0,6,,,,5,,53,62
1584,note_on,,,,,3,0,3,,,,2,,74,62
1584,note_on,,,,,3,0,8,,,,7,,74,75
1605,note_off,,,,,21,0,7,,,,6,,74,0
1605,note_off,,,,,21,0,8,,,,7,,74,0
1605,note_off,,,,,21,0,3,,,,2,,74,0
1608,note_on,,,,,3,0,3,,,,2,,72,62
1608,note_on,,,,,3,0,7,,,,6,,72,75
1608,note_on,,,,,3,0,8,,,,7,,72,75
1626,note_off,,,,,0,0,12,,,,13,,70,0
1626,note_off,,,,,42,0,10,,,,11,,53,0
1626,note_off,,,,,42,0,12,,,,13,,62,0
1626,note_off,,,,,0,0,12,,,,13,,53,0
1626,note_off,,,,,42,0,6,,,,5,,53,0
1626,note_off,,,,,42,0,11,,,,12,,41,0
1629,note_off,,,,,21,0,3,,,,2,,72,0
1629,note_off,,,,,21,0,7,,,,6,,72,0
1629,note_off,,,,,21,0,8,,,,7,,72,0
1632,note_on,,,,,3,0,3,,,,2,,74,62
1632,note_on,,,,,3,0,7,,,,6,,74,75
1632,note_on,,,,,6,0,10,,,,11,,58,49
1632,note_on,,,,,6,0,6,,,,5,,58,62
1632,note_on,,,,,6,0,11,,,,12,,46,49
1632,note_on,,,,,3,0,8,,,,7,,74,75
1632,note_on,,,,,0,0,12,,,,13,,58,49
1632,note_on,,,,,6,0,12,,,,13,,65,49
1632,note_on,,,,,0,0,12,,,,13,,74,49
1653,note_off,,,,,21,0,7,,,,6,,74,0
1653,note_off,,,,,21,0,8,,,,7,,74,0
1653,note_off,,,,,21,0,3,,,,2,,74,0
1656,note_on,,,,,3,0,7,,,,6,,70,75
1656,note_on,,,,,3,0,3,,,,2,,70,62
1656,note_on,,,,,3,0,8,,,,7,,70,75
1674,note_off,,,,,42,0,6,,,,5,,58,0
1674,note_off,,,,,0,0,12,,,,13,,58,0
1674,note_off,,,,,42,0,11,,,,12,,46,0
1674,note_off,,,,,42,0,10,,,,11,,58,0
1674,note_off,,,,,42,0,12,,,,13,,65,0
1674,note_off,,,,,0,0,12,,,,13,,74,0
1677,note_off,,,,,21,0,3,,,,2,,70,0
1677,note_off,,,,,21,0,8,,,,7,,70,0
1677,note_off,,,,,21,0,7,,,,6,,70,0
1680,note_on,,,,,3,0,7,,,,6,,76,75
1680,note_on,,,,,6,0,6,,,,5,,48,62
1680,note_on,,,,,102,0,9,,,,8,,69,75
1680,note_on,,,,,3,0,3,,,,2,,76,62
1680,note_on,,,,,102,0,13,,,,14,,64,75
1680,note_on,,,,,6,0,12,,,,13,,69,49
1680,note_on,,,,,0,0,12,,,,13,,76,49
1680,note_on,,,,,102,0,4,,,,3,,69,62
1680,note_on,,,,,0,0,12,,,,13,,48,49
1680,note_on,,,,,6,0,11,,,,12,,36,49
1680,note_on,,,,,3,0,8,,,,7,,76,75
1680,note_on,,,,,6,0,10,,,,11,,48,49
1680,note_on,,,,,102,0,5,,,,4,,64,62
1701,note_off,,,,,21,0,8,,,,7,,76,0
1701,note_off,,,,,21,0,7,,,,6,,76,0
1701,note_off,,,,,21,0,3,,,,2,,76,0
1704,note_on,,,,,3,0,8,,,,7,,64,75
1704,note_on,,,,,3,0,7,,,,6,,64,75
1704,note_on,,,,,3,0,3,,,,2,,64,62
1722,note_off,,,,,42,0,5,,,,4,,64,0
1722,note_off,,,,,42,0,4,,,,3,,69,0
1722,note_off,,,,,42,0,11,,,,12,,36,0
1722,note_off,,,,,42,0,6,,,,5,,48,0
1722,note_off,,,,,42,0,9,,,,8,,69,0
1722,note_off,,,,,42,0,13,,,,14,,64,0
1722,note_off,,,,,0,0,12,,,,13,,48,0
1722,note_off,,,,,0,0,12,,,,13,,76,0
1722,note_off,,,,,42,0,12,,,,13,,69,0
1722,note_off,,,,,42,0,10,,,,11,,48,0
1725,note_off,,,,,21,0,7,,,,6,,64,0
1725,note_off,,,,,21,0,3,,,,2,,64,0
1725,note_off,,,,,21,0,8,,,,7,,64,0
1728,note_on,,,,,3,0,3,,,,2,,69,62
1728,note_on,,,,,6,0,11,,,,12,,40,49
1728,note_on,,,,,6,0,6,,,,5,,52,62
1728,note_on,,,,,0,0,12,,,,13,,52,49
1728,note_on,,,,,6,0,10,,,,11,,52,49
1728,note_on,,,,,0,0,12,,,,13,,72,49
1728,note_on,,,,,3,0,7,,,,6,,69,75
1728,note_on,,,,,3,0,8,,,,7,,69,75
1728,note_on,,,,,6,0,12,,,,13,,69,49
1749,note_off,,,,,21,0,8,,,,7,,69,0
1749,note_off,,,,,21,0,7,,,,6,,69,0
1749,note_off,,,,,21,0,3,,,,2,,69,0
1752,note_on,,,,,3,0,7,,,,6,,70,75
1752,note_on,,,,,3,0,8,,,,7,,70,75
1752,note_on,,,,,3,0,3,,,,2,,70,62
1770,note_off,,,,,0,0,12,,,,13,,72,0
1770,note_off,,,,,0,0,12,,,,13,,52,0
1770,note_off,,,,,42,0,6,,,,5,,52,0
1770,note_off,,,,,42,0,11,,,,12,,40,0
1770,note_off,,,,,42,0,10,,,,11,,52,0
1770,note_off,,,,,42,0,12,,,,13,,69,0
1773,note_off,,,,,21,0,7,,,,6,,70,0
1773,note_off,,,,,21,0,8,,,,7,,70,0
1773,note_off,,,,,21,0,3,,,,2,,70,0
1776,note_on,,,,,3,0,7,,,,6,,72,75
1776,note_on,,,,,0,0,12,,,,13,,72,49
1776,note_on,,,,,6,0,12,,,,13,,64,49
1776,note_on,,,,,0,0,12,,,,13,,57,49
1776,note_on,,,,,3,0,8,,,,7,,72,75
1776,note_on,,,,,3,0,3,,,,2,,72,62
1776,note_on,,,,,6,0,11,,,,12,,45,49
1776,note_on,,,,,6,0,6,,,,5,,57,62
1776,note_on,,,,,6,0,10,,,,11,,57,49
1797,note_off,,,,,21,0,8,,,,7,,72,0
1797,note_off,,,,,21,0,3,,,,2,,72,0
1797,note_off,,,,,21,0,7,,,,6,,72,0
1800,note_on,,,,,3,0,3,,,,2,,69,62
1800,note_on,,,,,3,0,8,,,,7,,69,75
1800,note_on,,,,,3,0,7,,,,6,,69,75
1818,note_off,,,,,42,0,10,,,,11,,57,0
1818,note_off,,,,,42,0,11,,,,12,,45,0
1818,note_off,,,,,42,0,12,,,,13,,64,0
1818,note_off,,,,,0,0,12,,,,13,,57,0
1818,note_off,,,,,42,0,6,,,,5,,57,0
1818,note_off,,,,,0,0,12,,,,13,,72,0
1821,note_off,,,,,21,0,7,,,,6,,69,0
1821,note_off,,,,,21,0,8,,,,7,,69,0
1821,note_off,,,,,21,0,3,,,,2,,69,0
1824,note_on,,,,,6,0,6,,,,5,,46,62
1824,note_on,,,,,102,0,9,,,,8,,70,75
1824,note_on,,,,,102,0,13,,,,14,,65,75
1824,note_on,,,,,102,0,4,,,,3,,70,62
1824,note_on,,,,,3,0,7,,,,6,,74,75
1824,note_on,,,,,3,0,3,,,,2,,74,62
1824,note_on,,,,,102,0,5,,,,4,,65,62
1824,note_on,,,,,6,0,12,,,,13,,67,49
1824,note_on,,,,,3,0,8,,,,7,,74,75
1824,note_on,,,,,0,0,12,,,,13,,74,49
1824,note_on,,,,,6,0,11,,,,12,,34,49
1824,note_on,,,,,6,0,10,,,,11,,46,49
1824,note_on,,,,,0,0,12,,,,13,,46,49
1845,note_off,,,,,21,0,7,,,,6,,74,0
1845,note_off,,,,,21,0,8,,,,7,,74,0
1845,note_off,,,,,21,0,3,,,,2,,74,0
1848,note_on,,,,,3,0,7,,,,6,,72,75
1848,note_on,,,,,3,0,8,,,,7,,72,75
1848,note_on,,,,,3,0,3,,,,2,,72,62
1866,note_off,,,,,42,0,10,,,,11,,46,0
1866,note_off,,,,,42,0,9,,,,8,,70,0
1866,note_off,,,,,42,0,4,,,,3,,70,0
1866,note_off,,,,,0,0,12,,,,13,,46,0
1866,note_off,,,,,0,0,12,,,,13,,74,0
1866,note_off,,,,,42,0,11,,,,12,,34,0
1866,note_off,,,,,42,0,6,,,,5,,46,0
1866,note_off,,,,,42,0,5,,,,4,,65,0
1866,note_off,,,,,42,0,13,,,,14,,65,0
1866,note_off,,,,,42,0,12,,,,13,,67,0
1869,note_off,,,,,21,0,3,,,,2,,72,0
1869,note_off,,,,,21,0,7,,,,6,,72,0
1869,note_off,,,,,21,0,8,,,,7,,72,0
1872,note_on,,,,,3,0,7,,,,6,,70,75
1872,note_on,,,,,6,0,11,,,,12,,38,49
1872,note_on,,,,,3,0,8,,,,7,,70,75
1872,note_on,,,,,6,0,6,,,,5,,50,62
1872,note_on,,,,,6,0,12,,,,13,,67,49
1872,note_on,,,,,0,0,12,,,,13,,70,49
1872,note_on,,,,,0,0,12,,,,13,,50,49
1872,note_on,,,,,3,0,3,,,,2,,70,62
1872,note_on,,,,,6,0,10,,,,11,,50,49
1893,note_off,,,,,21,0,7,,,,6,,70,0
1893,note_off,,,,,21,0,8,,,,7,,70,0
1893,note_off,,,,,21,0,3,,,,2,,70,0
1896,note_on,,,,,3,0,8,,,,7,,69,75
1896,note_on,,,,,3,0,3,,,,2,,69,62
1896,note_on,,,,,3,0,7,,,,6,,69,75
1914,note_off,,,,,42,0,6,,,,5,,50,0
1914,note_off,,,,,42,0,12,,,,13,,67,0
1914,note_off,,,,,0,0,12,,,,13,,50,0
1914,note_off,,,,,42,0,11,,,,12,,38,0
1914,note_off,,,,,42,0,10,,,,11,,50,0
1914,note_off,,,,,0,0,12,,,,13,,70,0
1917,note_off,,,,,21,0,7,,,,6,,69,0
1917,note_off,,,,,21,0,8,,,,7,,69,0
1917,note_off,,,,,21,0,3,,,,2,,69,0
1920,note_on,,,,,6,0,6,,,,5,,55,62
1920,note_on,,,,,0,0,12,,,,13,,70,49
1920,note_on,,,,,6,0,11,,,,12,,43,49
1920,note_on,,,,,6,0,12,,,,13,,62,49
1920,note_on,,,,,3,0,8,,,,7,,70,75
1920,note_on,,,,,0,0,12,,,,13,,55,49
1920,note_on,,,,,6,0,10,,,,11,,55,49
1920,note_on,,,,,3,0,3,,,,2,,70,62
1920,note_on,,,,,3,0,7,,,,6,,70,75
1941,note_off,,,,,21,0,7,,,,6,,70,0
1941,note_off,,,,,21,0,3,,,,2,,70,0
1941,note_off,,,,,21,0,8,,,,7,,70,0
1944,note_on,,,,,3,0,7,,,,6,,67,75
1944,note_on,,,,,3,0,8,,,,7,,67,75
1944,note_on,,,,,3,0,3,,,,2,,67,62
1962,note_off,,,,,42,0,6,,,,5,,55,0
1962,note_off,,,,,0,0,12,,,,13,,70,0
1962,note_off,,,,,42,0,12,,,,13,,62,0
1962,note_off,,,,,0,0,12,,,,13,,55,0
1962,note_off,,,,,42,0,11,,,,12,,43,0
1962,note_off,,,,,42,0,10,,,,11,,55,0
1965,note_off,,,,,21,0,8,,,,7,,67,0
1965,note_off,,,,,21,0,3,,,,2,,67,0
1965,note_off,,,,,21,0,7,,,,6,,67,0
1968,note_on,,,,,3,0,7,,,,6,,72,75
1968,note_on,,,,,102,0,4,,,,3,,65,62
1968,note_on,,,,,3,0,3,,,,2,,72,62
1968,note_on,,,,,3,0,8,,,,7,,72,75
1968,note_on,,,,,102,0,13,,,,14,,60,75
1968,note_on,,,,,102,0,5,,,,4,,60,62
1968,note_on,,,,,6,0,10,,,,11,,45,49
1968,note_on,,,,,6,0,12,,,,13,,65,49
1968,note_on,,,,,102,0,9,,,,8,,65,75
1968,note_on,,,,,6,0,6,,,,5,,45,62
1968,note_on,,,,,6,0,11,,,,12,,33,49
1968,note_on,,,,,0,0,12,,,,13,,45,49
1968,note_on,,,,,0,0,12,,,,13,,72,49
1989,note_off,,,,,21,0,7,,,,6,,72,0
1989,note_off,,,,,21,0,3,,,,2,,72,0
1989,note_off,,,,,21,0,8,,,,7,,72,0
1992,note_on,,,,,3,0,8,,,,7,,60,75
1992,note_on,,,,,3,0,7,,,,6,,60,75
1992,note_on,,,,,3,0,3,,,,2,,60,62
2010,note_off,,,,,42,0,11,,,,12,,33,0
2010,note_off,,,,,42,0,10,,,,11,,45,0
2010,note_off,,,,,42,0,6,,,,5,,45,0
2010,note_off,,,,,42,0,12,,,,13,,65,0
2010,note_off,,,,,0,0,12,,,,13,,72,0
2010,note_off,,,,,0,0,12,,,,13,,45,0
2010,note_off,,,,,42,0,13,,,,14,,60,0
2010,note_off,,,,,42,0,4,,,,3,,65,0
2010,note_off,,,,,42,0,5,,,,4,,60,0
2010,note_off,,,,,42,0,9,,,,8,,65,0
2013,note_off,,,,,21,0,3,,,,2,,60,0
2013,note_off,,,,,21,0,7,,,,6,,60,0
2013,note_off,,,,,21,0,8,,,,7,,60,0
2016,note_on,,,,,6,0,12,,,,13,,65,49
2016,note_on,,,,,6,0,10,,,,11,,48,49
2016,note_on,,,,,3,0,7,,,,6,,65,75
2016,note_on,,,,,3,0,3,,,,2,,65,62
2016,note_on,,,,,0,0,12,,,,13,,48,49
2016,note_on,,,,,0,0,12,,,,13,,69,49
2016,note_on,,,,,3,0,8,,,,7,,65,75
2016,note_on,,,,,6,0,6,,,,5,,48,62
2016,note_on,,,,,6,0,11,,,,12,,36,49
2037,note_off,,,,,21,0,7,,,,6,,65,0
2037,note_off,,,,,21,0,8,,,,7,,65,0
2037,note_off,,,,,21,0,3,,,,2,,65,0
2040,note_on,,,,,3,0,8,,,,7,,67,75
2040,note_on,,,,,3,0,3,,,,2,,67,62
2040,note_on,,,,,3,0,7,,,,6,,67,75
2058,note_off,,,,,42,0,10,,,,11,,48,0
2058,note_off,,,,,0,0,12,,,,13,,48,0
2058,note_off,,,,,0,0,12,,,,13,,69,0
2058,note_off,,,,,42,0,12,,,,13,,65,0
2058,note_off,,,,,42,0,6,,,,5,,48,0
2058,note_off,,,,,42,0,11,,,,12,,36,0
2061,note_off,,,,,21,0,8,,,,7,,67,0
2061,note_off,,,,,21,0,7,,,,6,,67,0
2061,note_off,,,,,21,0,3,,,,2,,67,0
2064,note_on,,,,,6,0,10,,,,11,,53,49
2064,note_on,,,,,3,0,8,,,,7,,69,75
2064,note_on,,,,,6,0,6,,,,5,,53,62
2064,note_on,,,,,3,0,3,,,,2,,69,62
2064,note_on,,,,,0,0,12,,,,13,,53,49
2064,note_on,,,,,0,0,12,,,,13,,72,49
2064,note_on,,,,,6,0,12,,,,13,,69,49
2064,note_on,,,,,6,0,11,,,,12,,41,49
2064,note_on,,,,,3,0,7,,,,6,,69,75
2085,note_off,,,,,21,0,8,,,,7,,69,0
2085,note_off,,,,,21,0,3,,,,2,,69,0
2085,note_off,,,,,21,0,7,,,,6,,69,0
2088,note_on,,,,,3,0,3,,,,2,,65,62
2088,note_on,,,,,3,0,8,,,,7,,65,75
2088,note_on,,,,,3,0,7,,,,6,,65,75
2106,note_off,,,,,42,0,10,,,,11,,53,0
2106,note_off,,,,,42,0,11,,,,12,,41,0
2106,note_off,,,,,0,0,12,,,,13,,53,0
2106,note_off,,,,,0,0,12,,,,13,,72,0
2106,note_off,,,,,42,0,6,,,,5,,53,0
2106,note_off,,,,,42,0,12,,,,13,,69,0
2109,note_off,,,,,21,0,3,,,,2,,65,0
2109,note_off,,,,,21,0,7,,,,6,,65,0
2109,note_off,,,,,21,0,8,,,,7,,65,0
2112,note_on,,,,,3,0,7,,,,6,,70,75
2112,note_on,,,,,6,0,11,,,,12,,31,49
2112,note_on,,,,,6,0,6,,,,5,,43,62
2112,note_on,,,,,6,0,12,,,,13,,62,49
2112,note_on,,,,,0,0,12,,,,13,,70,49
2112,note_on,,,,,3,0,3,,,,2,,70,62
2112,note_on,,,,,966,0,2,,,,1,,67,127
2112,note_on,,,,,102,0,5,,,,4,,62,62
2112,note_on,,,,,6,0,10,,,,11,,43,49
2112,note_on,,,,,966,0,1,,,,0,,70,127
2112,note_on,,,,,102,0,13,,,,14,,62,75
2112,note_on,,,,,102,0,9,,,,8,,67,75
2112,note_on,,,,,102,0,4,,,,3,,67,62
2112,note_on,,,,,0,0,12,,,,13,,43,49
2112,note_on,,,,,3,0,8,,,,7,,70,75
2133,note_off,,,,,21,0,1,,,,0,,70,0
2133,note_off,,,,,21,0,2,,,,1,,67,0
2136,note_on,,,,,3,0,1,,,,0,,72,127
2136,note_on,,,,,3,0,2,,,,1,,69,127
2154,note_off,,,,,42,0,12,,,,13,,62,0
2154,note_off,,,,,0,0,12,,,,13,,70,0
2154,note_off,,,,,0,0,12,,,,13,,43,0
2154,note_off,,,,,42,0,10,,,,11,,43,0
2154,note_off,,,,,42,0,4,,,,3,,67,0
2154,note_off,,,,,42,0,7,,,,6,,70,0
2154,note_off,,,,,42,0,9,,,,8,,67,0
2154,note_off,,,,,42,0,11,,,,12,,31,0
2154,note_off,,,,,42,0,6,,,,5,,43,0
2154,note_off,,,,,42,0,13,,,,14,,62,0
2154,note_off,,,,,42,0,3,,,,2,,70,0
2154,note_off,,,,,42,0,8,,,,7,,70,0
2154,note_off,,,,,42,0,5,,,,4,,62,0
2157,note_off,,,,,21,0,2,,,,1,,69,0
2157,note_off,,,,,21,0,1,,,,0,,72,0
2160,note_on,,,,,6,0,8,,,,7,,70,75
2160,note_on,,,,,6,0,10,,,,11,,50,49
2160,note_on,,,,,0,0,12,,,,13,,50,49
2160,note_on,,,,,6,0,5,,,,4,,62,62
2160,note_on,,,,,6,0,12,,,,13,,67,49
2160,note_on,,,,,6,0,3,,,,2,,70,62
2160,note_on,,,,,6,0,4,,,,3,,67,62
2160,note_on,,,,,6,0,11,,,,12,,38,49
2160,note_on,,,,,6,0,13,,,,14,,62,75
2160,note_on,,,,,0,0,12,,,,13,,70,49
2160,note_on,,,,,6,0,9,,,,8,,67,75
2160,note_on,,,,,3,0,1,,,,0,,70,127
2160,note_on,,,,,6,0,6,,,,5,,50,62
2160,note_on,,,,,3,0,2,,,,1,,67,127
2160,note_on,,,,,6,0,7,,,,6,,70,75
2181,note_off,,,,,21,0,1,,,,0,,70,0
2181,note_off,,,,,21,0,2,,,,1,,67,0
2184,note_on,,,,,3,0,1,,,,0,,72,127
2184,note_on,,,,,3,0,2,,,,1,,69,127
2202,note_off,,,,,42,0,7,,,,6,,70,0
2202,note_off,,,,,42,0,13,,,,14,,62,0
2202,note_off,,,,,42,0,9,,,,8,,67,0
2202,note_off,,,,,42,0,8,,,,7,,70,0
2202,note_off,,,,,42,0,6,,,,5,,50,0
2202,note_off,,,,,42,0,10,,,,11,,50,0
2202,note_off,,,,,42,0,11,,,,12,,38,0
2202,note_off,,,,,42,0,4,,,,3,,67,0
2202,note_off,,,,,42,0,5,,,,4,,62,0
2202,note_off,,,,,42,0,3,,,,2,,70,0
2202,note_off,,,,,0,0,12,,,,13,,50,0
2202,note_off,,,,,0,0,12,,,,13,,70,0
2202,note_off,,,,,42,0,12,,,,13,,67,0
2205,note_off,,,,,21,0,2,,,,1,,69,0
2205,note_off,,,,,21,0,1,,,,0,,72,0
2208,note_on,,,,,6,0,12,,,,13,,62,49
2208,note_on,,,,,6,0,11,,,,12,,43,49
2208,note_on,,,,,6,0,13,,,,14,,62,75
2208,note_on,,,,,6,0,9,,,,8,,67,75
2208,note_on,,,,,0,0,12,,,,13,,55,49
2208,note_on,,,,,0,0,12,,,,13,,70,49
2208,note_on,,,,,6,0,6,,,,5,,55,62
2208,note_on,,,,,6,0,7,,,,6,,70,75
2208,note_on,,,,,6,0,4,,,,3,,67,62
2208,note_on,,,,,3,0,1,,,,0,,74,127
2208,note_on,,,,,6,0,8,,,,7,,70,75
2208,note_on,,,,,6,0,3,,,,2,,70,62
2208,note_on,,,,,6,0,10,,,,11,,55,49
2208,note_on,,,,,6,0,5,,,,4,,62,62
2208,note_on,,,,,3,0,2,,,,1,,70,127
2229,note_off,,,,,21,0,1,,,,0,,74,0
2229,note_off,,,,,21,0,2,,,,1,,70,0
2232,note_on,,,,,3,0,2,,,,1,,69,127
2232,note_on,,,,,3,0,1,,,,0,,72,127
2250,note_off,,,,,42,0,5,,,,4,,62,0
2250,note_off,,,,,42,0,11,,,,12,,43,0
2250,note_off,,,,,42,0,10,,,,11,,55,0
2250,note_off,,,,,42,0,13,,,,14,,62,0
2250,note_off,,,,,42,0,7,,,,6,,70,0
2250,note_off,,,,,42,0,3,,,,2,,70,0
2250,note_off,,,,,42,0,4,,,,3,,67,0
2250,note_off,,,,,42,0,6,,,,5,,55,0
2250,note_off,,,,,42,0,12,,,,13,,62,0
2250,note_off,,,,,0,0,12,,,,13,,70,0
2250,note_off,,,,,0,0,12,,,,13,,55,0
2250,note_off,,,,,42,0,9,,,,8,,67,0
2250,note_off,,,,,42,0,8,,,,7,,70,0
2253,note_off,,,,,21,0,1,,,,0,,72,0
2253,note_off,,,,,21,0,2,,,,1,,69,0
2256,note_on,,,,,6,0,11,,,,12,,29,49
2256,note_on,,,,,6,0,8,,,,7,,70,75
2256,note_on,,,,,6,0,7,,,,6,,70,75
2256,note_on,,,,,6,0,4,,,,3,,67,62
2256,note_on,,,,,3,0,2,,,,1,,67,127
2256,note_on,,,,,6,0,5,,,,4,,62,62
2256,note_on,,,,,6,0,6,,,,5,,41,62
2256,note_on,,,,,0,0,12,,,,13,,41,49
2256,note_on,,,,,0,0,12,,,,13,,70,49
2256,note_on,,,,,6,0,9,,,,8,,67,75
2256,note_on,,,,,6,0,13,,,,14,,62,75
2256,note_on,,,,,6,0,3,,,,2,,70,62
2256,note_on,,,,,3,0,1,,,,0,,70,127
2256,note_on,,,,,6,0,12,,,,13,,62,49
2256,note_on,,,,,6,0,10,,,,11,,41,49
2277,note_off,,,,,21,0,3,,,,2,,70,0
2277,note_off,,,,,21,0,8,,,,7,,70,0
2277,note_off,,,,,21,0,7,,,,6,,70,0
2280,note_on,,,,,3,0,8,,,,7,,72,75
2280,note_on,,,,,3,0,3,,,,2,,72,62
2280,note_on,,,,,3,0,7,,,,6,,72,75
2298,note_off,,,,,42,0,4,,,,3,,67,0
2298,note_off,,,,,0,0,12,,,,13,,70,0
2298,note_off,,,,,42,0,6,,,,5,,41,0
2298,note_off,,,,,42,0,12,,,,13,,62,0
2298,note_off,,,,,42,0,13,,,,14,,62,0
2298,note_off,,,,,42,0,5,,,,4,,62,0
2298,note_off,,,,,42,0,10,,,,11,,41,0
2298,note_off,,,,,0,0,12,,,,13,,41,0
2298,note_off,,,,,42,0,2,,,,1,,67,0
2298,note_off,,,,,42,0,1,,,,0,,70,0
2298,note_off,,,,,42,0,11,,,,12,,29,0
2298,note_off,,,,,42,0,9,,,,8,,67,0
2301,note_off,,,,,21,0,8,,,,7,,72,0
2301,note_off,,,,,21,0,7,,,,6,,72,0
2301,note_off,,,,,21,0,3,,,,2,,72,0
2304,note_on,,,,,6,0,11,,,,12,,38,49
2304,note_on,,,,,6,0,6,,,,5,,50,62
2304,note_on,,,,,6,0,1,,,,0,,70,127
2304,note_on,,,,,6,0,10,,,,11,,50,49
2304,note_on,,,,,3,0,8,,,,7,,70,75
2304,note_on,,,,,6,0,12,,,,13,,62,49
2304,note_on,,,,,6,0,2,,,,1,,67,127
2304,note_on,,,,,3,0,7,,,,6,,70,75
2304,note_on,,,,,0,0,12,,,,13,,67,49
2304,note_on,,,,,0,0,12,,,,13,,50,49
2304,note_on,,,,,3,0,3,,,,2,,70,62
2325,note_off,,,,,21,0,3,,,,2,,70,0
2325,note_off,,,,,21,0,7,,,,6,,70,0
2325,note_off,,,,,21,0,8,,,,7,,70,0
2328,note_on,,,,,3,0,7,,,,6,,69,75
2328,note_on,,,,,3,0,8,,,,7,,69,75
2328,note_on,,,,,3,0,3,,,,2,,69,62
2346,note_off,,,,,42,0,6,,,,5,,50,0
2346,note_off,,,,,42,0,10,,,,11,,50,0
2346,note_off,,,,,42,0,12,,,,13,,62,0
2346,note_off,,,,,42,0,1,,,,0,,70,0
2346,note_off,,,,,42,0,2,,,,1,,67,0
2346,note_off,,,,,0,0,12,,,,13,,50,0
2346,note_off,,,,,0,0,12,,,,13,,67,0
2346,note_off,,,,,42,0,11,,,,12,,38,0
2349,note_off,,,,,21,0,8,,,,7,,69,0
2349,note_off,,,,,21,0,7,,,,6,,69,0
2349,note_off,,,,,21,0,3,,,,2,,69,0
2352,note_on,,,,,3,0,8,,,,7,,70,75
2352,note_on,,,,,6,0,1,,,,0,,70,127
2352,note_on,,,,,0,0,12,,,,13,,55,49
2352,note_on,,,,,0,0,12,,,,13,,70,49
2352,note_on,,,,,6,0,12,,,,13,,62,49
2352,note_on,,,,,3,0,3,,,,2,,70,62
2352,note_on,,,,,6,0,10,,,,11,,55,49
2352,note_on,,,,,6,0,6,,,,5,,55,62
2352,note_on,,,,,6,0,2,,,,1,,67,127
2352,note_on,,,,,6,0,11,,,,12,,43,49
2352,note_on,,,,,3,0,7,,,,6,,70,75
2373,note_off,,,,,21,0,3,,,,2,,70,0
2373,note_off,,,,,21,0,8,,,,7,,70,0
2373,note_off,,,,,21,0,7,,,,6,,70,0
2376,note_on,,,,,3,0,3,,,,2,,67,62
2376,note_on,,,,,3,0,8,,,,7,,67,75
2376,note_on,,,,,3,0,7,,,,6,,67,75
2394,note_off,,,,,0,0,12,,,,13,,55,0
2394,note_off,,,,,0,0,12,,,,13,,70,0
2394,note_off,,,,,42,0,11,,,,12,,43,0
2394,note_off,,,,,42,0,12,,,,13,,62,0
2394,note_off,,,,,42,0,2,,,,1,,67,0
2394,note_off,,,,,42,0,10,,,,11,,55,0
2394,note_off,,,,,42,0,1,,,,0,,70,0
2394,note_off,,,,,42,0,6,,,,5,,55,0
2397,note_off,,,,,21,0,8,,,,7,,67,0
2397,note_off,,,,,21,0,3,,,,2,,67,0
2397,note_off,,,,,21,0,7,,,,6,,67,0
2400,note_on,,,,,0,0,12,,,,13,,72,49
2400,note_on,,,,,3,0,8,,,,7,,79,75
2400,note_on,,,,,102,0,4,,,,3,,67,62
2400,note_on,,,,,3,0,3,,,,2,,79,62
2400,note_on,,,,,0,0,12,,,,13,,40,49
2400,note_on,,,,,6,0,12,,,,13,,67,49
2400,note_on,,,,,102,0,13,,,,14,,60,75
2400,note_on,,,,,6,0,2,,,,1,,67,127
2400,note_on,,,,,102,0,5,,,,4,,60,62
2400,note_on,,,,,6,0,11,,,,12,,28,49
2400,note_on,,,,,6,0,10,,,,11,,40,49
2400,note_on,,,,,102,0,9,,,,8,,67,75
2400,note_on,,,,,6,0,1,,,,0,,70,127
2400,note_on,,,,,3,0,7,,,,6,,79,75
2400,note_on,,,,,6,0,6,,,,5,,40,62
2421,note_off,,,,,21,0,2,,,,1,,67,0
2421,note_off,,,,,21,0,1,,,,0,,70,0
2424,note_on,,,,,3,0,1,,,,0,,72,127
2424,note_on,,,,,3,0,2,,,,1,,69,127
2442,note_off,,,,,0,0,12,,,,13,,72,0
2442,note_off,,,,,42,0,11,,,,12,,28,0
2442,note_off,,,,,42,0,12,,,,13,,67,0
2442,note_off,,,,,42,0,13,,,,14,,60,0
2442,note_off,,,,,0,0,12,,,,13,,40,0
2442,note_off,,,,,42,0,10,,,,11,,40,0
2442,note_off,,,,,42,0,5,,,,4,,60,0
2442,note_off,,,,,42,0,3,,,,2,,79,0
2442,note_off,,,,,42,0,7,,,,6,,79,0
2442,note_off,,,,,42,0,6,,,,5,,40,0
2442,note_off,,,,,42,0,8,,,,7,,79,0
2442,note_off,,,,,42,0,9,,,,8,,67,0
2442,note_off,,,,,42,0,4,,,,3,,67,0
2445,note_off,,,,,21,0,1,,,,0,,72,0
2445,note_off,,,,,21,0,2,,,,1,,69,0
2448,note_on,,,,,6,0,4,,,,3,,67,62
2448,note_on,,,,,6,0,9,,,,8,,67,75
2448,note_on,,,,,6,0,6,,,,5,,48,62
2448,note_on,,,,,6,0,13,,,,14,,60,75
2448,note_on,,,,,6,0,10,,,,11,,48,49
2448,note_on,,,,,6,0,7,,,,6,,70,75
2448,note_on,,,,,6,0,8,,,,7,,70,75
2448,note_on,,,,,0,0,12,,,,13,,76,49
2448,note_on,,,,,6,0,11,,,,12,,36,49
2448,note_on,,,,,6,0,5,,,,4,,60,62
2448,note_on,,,,,0,0,12,,,,13,,48,49
2448,note_on,,,,,6,0,12,,,,13,,67,49
2448,note_on,,,,,6,0,3,,,,2,,70,62
2448,note_on,,,,,3,0,1,,,,0,,70,127
2448,note_on,,,,,3,0,2,,,,1,,67,127
2469,note_off,,,,,21,0,1,,,,0,,70,0
2469,note_off,,,,,21,0,2,,,,1,,67,0
2472,note_on,,,,,3,0,1,,,,0,,72,127
2472,note_on,,,,,3,0,2,,,,1,,69,127
2490,note_off,,,,,0,0,12,,,,13,,48,0
2490,note_off,,,,,42,0,13,,,,14,,60,0
2490,note_off,,,,,42,0,9,,,,8,,67,0
2490,note_off,,,,,42,0,10,,,,11,,48,0
2490,note_off,,,,,0,0,12,,,,13,,76,0
2490,note_off,,,,,42,0,8,,,,7,,70,0
2490,note_off,,,,,42,0,4,,,,3,,67,0
2490,note_off,,,,,42,0,6,,,,5,,48,0
2490,note_off,,,,,42,0,3,,,,2,,70,0
2490,note_off,,,,,42,0,12,,,,13,,67,0
2490,note_off,,,,,42,0,7,,,,6,,70,0
2490,note_off,,,,,42,0,5,,,,4,,60,0
2490,note_off,,,,,42,0,11,,,,12,,36,0
2493,note_off,,,,,21,0,2,,,,1,,69,0
2493,note_off,,,,,21,0,1,,,,0,,72,0
2496,note_on,,,,,0,0,12,,,,13,,55,49
2496,note_on,,,,,0,0,12,,,,13,,72,49
2496,note_on,,,,,3,0,1,,,,0,,74,127
2496,note_on,,,,,6,0,11,,,,12,,43,49
2496,note_on,,,,,3,0,2,,,,1,,70,127
2496,note_on,,,,,6,0,4,,,,3,,67,62
2496,note_on,,,,,6,0,7,,,,6,,70,75
2496,note_on,,,,,6,0,9,,,,8,,67,75
2496,note_on,,,,,6,0,8,,,,7,,70,75
2496,note_on,,,,,6,0,3,,,,2,,70,62
2496,note_on,,,,,6,0,6,,,,5,,55,62
2496,note_on,,,,,6,0,12,,,,13,,64,49
2496,note_on,,,,,6,0,13,,,,14,,60,75
2496,note_on,,,,,6,0,5,,,,4,,60,62
2496,note_on,,,,,6,0,10,,,,11,,55,49
2517,note_off,,,,,21,0,2,,,,1,,70,0
2517,note_off,,,,,21,0,1,,,,0,,74,0
2520,note_on,,,,,3,0,2,,,,1,,69,127
2520,note_on,,,,,3,0,1,,,,0,,72,127
2538,note_off,,,,,42,0,13,,,,14,,60,0
2538,note_off,,,,,42,0,5,,,,4,,60,0
2538,note_off,,,,,42,0,4,,,,3,,67,0
2538,note_off,,,,,42,0,10,,,,11,,55,0
2538,note_off,,,,,42,0,12,,,,13,,64,0
2538,note_off,,,,,0,0,12,,,,13,,72,0
2538,note_off,,,,,0,0,12,,,,13,,55,0
2538,note_off,,,,,42,0,7,,,,6,,70,0
2538,note_off,,,,,42,0,11,,,,12,,43,0
2538,note_off,,,,,42,0,8,,,,7,,70,0
2538,note_off,,,,,42,0,9,,,,8,,67,0
2538,note_off,,,,,42,0,6,,,,5,,55,0
2538,note_off,,,,,42,0,3,,,,2,,70,0
2541,note_off,,,,,21,0,1,,,,0,,72,0
2541,note_off,,,,,21,0,2,,,,1,,69,0
2544,note_on,,,,,6,0,4,,,,3,,67,62
2544,note_on,,,,,6,0,9,,,,8,,67,75
2544,note_on,,,,,6,0,7,,,,6,,70,75
2544,note_on,,,,,6,0,13,,,,14,,60,75
2544,note_on,,,,,3,0,1,,,,0,,70,127
2544,note_on,,,,,6,0,6,,,,5,,52,62
2544,note_on,,,,,6,0,3,,,,2,,70,62
2544,note_on,,,,,6,0,12,,,,13,,67,49
2544,note_on,,,,,0,0,12,,,,13,,72,49
2544,note_on,,,,,0,0,12,,,,13,,52,49
2544,note_on,,,,,6,0,10,,,,11,,52,49
2544,note_on,,,,,6,0,8,,,,7,,70,75
2544,note_on,,,,,3,0,2,,,,1,,67,127
2544,note_on,,,,,6,0,5,,,,4,,60,62
2544,note_on,,,,,6,0,11,,,,12,,40,49
2586,note_off,,,,,42,0,1,,,,0,,70,0
2586,note_off,,,,,42,0,4,,,,3,,67,0
2586,note_off,,,,,42,0,7,,,,6,,70,0
2586,note_off,,,,,42,0,11,,,,12,,40,0
2586,note_off,,,,,42,0,8,,,,7,,70,0
2586,note_off,,,,,42,0,9,,,,8,,67,0
2586,note_off,,,,,42,0,5,,,,4,,60,0
2586,note_off,,,,,42,0,13,,,,14,,60,0
2586,note_off,,,,,42,0,3,,,,2,,70,0
2586,note_off,,,,,42,0,2,,,,1,,67,0
2586,note_off,,,,,42,0,12,,,,13,,67,0
2586,note_off,,,,,0,0,12,,,,13,,72,0
2586,note_off,,,,,0,0,12,,,,13,,52,0
2586,note_off,,,,,42,0,10,,,,11,,52,0
2586,note_off,,,,,42,0,6,,,,5,,52,0
2592,note_on,,,,,6,0,8,,,,7,,72,75
2592,note_on,,,,,6,0,7,,,,6,,72,75
2592,note_on,,,,,6,0,12,,,,13,,67,49
2592,note_on,,,,,6,0,2,,,,1,,67,127
2592,note_on,,,,,6,0,5,,,,4,,64,62
2592,note_on,,,,,6,0,4,,,,3,,69,62
2592,note_on,,,,,6,0,1,,,,0,,70,127
2592,note_on,,,,,6,0,6,,,,5,,48,62
2592,note_on,,,,,6,0,9,,,,8,,69,75
2592,note_on,,,,,6,0,11,,,,12,,36,49
2592,note_on,,,,,6,0,3,,,,2,,72,62
2592,note_on,,,,,6,0,13,,,,14,,64,75
2592,note_on,,,,,6,0,10,,,,11,,48,49
2592,note_on,,,,,0,0,12,,,,13,,76,49
2592,note_on,,,,,0,0,12,,,,13,,48,49
2613,note_off,,,,,21,0,7,,,,6,,72,0
2613,note_off,,,,,21,0,8,,,,7,,72,0
2613,note_off,,,,,21,0,3,,,,2,,72,0
2613,note_off,,,,,21,0,9,,,,8,,69,0
2613,note_off,,,,,21,0,4,,,,3,,69,0
2616,note_on,,,,,3,0,3,,,,2,,70,62
2616,note_on,,,,,3,0,9,,,,8,,67,75
2616,note_on,,,,,3,0,7,,,,6,,70,75
2616,note_on,,,,,3,0,4,,,,3,,67,62
2616,note_on,,,,,3,0,8,,,,7,,70,75
2634,note_off,,,,,0,0,12,,,,13,,48,0
2634,note_off,,,,,42,0,10,,,,11,,48,0
2634,note_off,,,,,42,0,5,,,,4,,64,0
2634,note_off,,,,,0,0,12,,,,13,,76,0
2634,note_off,,,,,42,0,13,,,,14,,64,0
2634,note_off,,,,,42,0,1,,,,0,,70,0
2634,note_off,,,,,42,0,2,,,,1,,67,0
2634,note_off,,,,,42,0,12,,,,13,,67,0
2634,note_off,,,,,42,0,6,,,,5,,48,0
2634,note_off,,,,,42,0,11,,,,12,,36,0
2637,note_off,,,,,21,0,3,,,,2,,70,0
2637,note_off,,,,,21,0,4,,,,3,,67,0
2637,note_off,,,,,21,0,8,,,,7,,70,0
2637,note_off,,,,,21,0,9,,,,8,,67,0
2637,note_off,,,,,21,0,7,,,,6,,70,0
2640,note_on,,,,,6,0,1,,,,0,,70,127
2640,note_on,,,,,3,0,3,,,,2,,69,62
2640,note_on,,,,,3,0,9,,,,8,,65,75
2640,note_on,,,,,6,0,5,,,,4,,60,62
2640,note_on,,,,,6,0,6,,,,5,,60,62
2640,note_on,,,,,6,0,13,,,,14,,60,75
2640,note_on,,,,,6,0,10,,,,11,,60,49
2640,note_on,,,,,3,0,7,,,,6,,69,75
2640,note_on,,,,,3,0,8,,,,7,,69,75
2640,note_on,,,,,3,0,4,,,,3,,65,62
2640,note_on,,,,,6,0,2,,,,1,,67,127
2640,note_on,,,,,6,0,12,,,,13,,72,49
2640,note_on,,,,,0,0,12,,,,13,,79,49
2640,note_on,,,,,0,0,12,,,,13,,60,49
2640,note_on,,,,,6,0,11,,,,12,,48,49
2661,note_off,,,,,21,0,4,,,,3,,65,0
2661,note_off,,,,,21,0,9,,,,8,,65,0
2661,note_off,,,,,21,0,3,,,,2,,69,0
2661,note_off,,,,,21,0,8,,,,7,,69,0
2661,note_off,,,,,21,0,7,,,,6,,69,0
2664,note_on,,,,,3,0,3,,,,2,,67,62
2664,note_on,,,,,3,0,7,,,,6,,67,75
2664,note_on,,,,,3,0,4,,,,3,,64,62
2664,note_on,,,,,3,0,9,,,,8,,64,75
2664,note_on,,,,,3,0,8,,,,7,,67,75
2682,note_off,,,,,42,0,5,,,,4,,60,0
2682,note_off,,,,,42,0,6,,,,5,,60,0
2682,note_off,,,,,42,0,10,,,,11,,60,0
2682,note_off,,,,,42,0,13,,,,14,,60,0
2682,note_off,,,,,42,0,11,,,,12,,48,0
2682,note_off,,,,,42,0,2,,,,1,,67,0
2682,note_off,,,,,42,0,12,,,,13,,72,0
2682,note_off,,,,,0,0,12,,,,13,,79,0
2682,note_off,,,,,0,0,12,,,,13,,60,0
2682,note_off,,,,,42,0,1,,,,0,,70,0
2685,note_off,,,,,21,0,7,,,,6,,67,0
2685,note_off,,,,,21,0,8,,,,7,,67,0
2685,note_off,,,,,21,0,9,,,,8,,64,0
2685,note_off,,,,,21,0,4,,,,3,,64,0
2685,note_off,,,,,21,0,3,,,,2,,67,0
2688,note_on,,,,,3,0,4,,,,3,,65,62
2688,note_on,,,,,6,0,12,,,,13,,60,49
2688,note_on,,,,,3,0,3,,,,2,,69,62
2688,note_on,,,,,6,0,13,,,,14,,60,75
2688,note_on,,,,,3,0,7,,,,6,,69,75
2688,note_on,,,,,6,0,5,,,,4,,60,62
2688,note_on,,,,,6,0,11,,,,12,,29,49
2688,note_on,,,,,6,0,10,,,,11,,41,49
2688,note_on,,,,,3,0,8,,,,7,,69,75
2688,note_on,,,,,6,0,2,,,,1,,65,127
2688,note_on,,,,,6,0,1,,,,0,,69,127
2688,note_on,,,,,6,0,6,,,,5,,41,62
2688,note_on,,,,,0,0,12,,,,13,,69,49
2688,note_on,,,,,0,0,12,,,,13,,41,49
2688,note_on,,,,,3,0,9,,,,8,,65,75
2709,note_off,,,,,21,0,2,,,,1,,65,0
2709,note_off,,,,,21,0,1,,,,0,,69,0
2712,note_on,,,,,3,0,2,,,,1,,67,127
2712,note_on,,,,,3,0,1,,,,0,,70,127
2730,note_off,,,,,42,0,13,,,,14,,60,0
2730,note_off,,,,,42,0,5,,,,4,,60,0
2730,note_off,,,,,42,0,6,,,,5,,41,0
2730,note_off,,,,,42,0,11,,,,12,,29,0
2730,note_off,,,,,0,0,12,,,,13,,41,0
2730,note_off,,,,,42,0,8,,,,7,,69,0
2730,note_off,,,,,42,0,12,,,,13,,60,0
2730,note_off,,,,,42,0,10,,,,11,,41,0
2730,note_off,,,,,42,0,4,,,,3,,65,0
2730,note_off,,,,,0,0,12,,,,13,,69,0
2730,note_off,,,,,42,0,3,,,,2,,69,0
2730,note_off,,,,,42,0,9,,,,8,,65,0
2730,note_off,,,,,42,0,7,,,,6,,69,0
2733,note_off,,,,,21,0,2,,,,1,,67,0
2733,note_off,,,,,21,0,1,,,,0,,70,0
2736,note_on,,,,,6,0,5,,,,4,,60,62
2736,note_on,,,,,6,0,6,,,,5,,48,62
2736,note_on,,,,,6,0,11,,,,12,,36,49
2736,note_on,,,,,6,0,8,,,,7,,69,75
2736,note_on,,,,,6,0,12,,,,13,,65,49
2736,note_on,,,,,0,0,12,,,,13,,69,49
2736,note_on,,,,,0,0,12,,,,13,,48,49
2736,note_on,,,,,6,0,9,,,,8,,65,75
2736,note_on,,,,,6,0,3,,,,2,,69,62
2736,note_on,,,,,3,0,2,,,,1,,65,127
2736,note_on,,,,,6,0,7,,,,6,,69,75
2736,note_on,,,,,6,0,10,,,,11,,48,49
2736,note_on,,,,,6,0,13,,,,14,,60,75
2736,note_on,,,,,3,0,1,,,,0,,69,127
2736,note_on,,,,,6,0,4,,,,3,,65,62
2757,note_off,,,,,21,0,2,,,,1,,65,0
2757,note_off,,,,,21,0,1,,,,0,,69,0
2760,note_on,,,,,3,0,1,,,,0,,70,127
2760,note_on,,,,,3,0,2,,,,1,,67,127
2778,note_off,,,,,42,0,4,,,,3,,65,0
2778,note_off,,,,,42,0,3,,,,2,,69,0
2778,note_off,,,,,42,0,6,,,,5,,48,0
2778,note_off,,,,,42,0,12,,,,13,,65,0
2778,note_off,,,,,0,0,12,,,,13,,69,0
2778,note_off,,,,,42,0,11,,,,12,,36,0
2778,note_off,,,,,0,0,12,,,,13,,48,0
2778,note_off,,,,,42,0,7,,,,6,,69,0
2778,note_off,,,,,42,0,13,,,,14,,60,0
2778,note_off,,,,,42,0,9,,,,8,,65,0
2778,note_off,,,,,42,0,5,,,,4,,60,0
2778,note_off,,,,,42,0,8,,,,7,,69,0
2778,note_off,,,,,42,0,10,,,,11,,48,0
2781,note_off,,,,,21,0,1,,,,0,,70,0
2781,note_off,,,,,21,0,2,,,,1,,67,0
2784,note_on,,,,,6,0,10,,,,11,,53,49
2784,note_on,,,,,6,0,8,,,,7,,69,75
2784,note_on,,,,,6,0,9,,,,8,,65,75
2784,note_on,,,,,3,0,2,,,,1,,69,127
2784,note_on,,,,,6,0,12,,,,13,,69,49
2784,note_on,,,,,0,0,12,,,,13,,72,49
2784,note_on,,,,,6,0,13,,,,14,,60,75
2784,note_on,,,,,0,0,12,,,,13,,53,49
2784,note_on,,,,,6,0,4,,,,3,,65,62
2784,note_on,,,,,3,0,1,,,,0,,72,127
2784,note_on,,,,,6,0,7,,,,6,,69,75
2784,note_on,,,,,6,0,3,,,,2,,69,62
2784,note_on,,,,,6,0,11,,,,12,,41,49
2784,note_on,,,,,6,0,6,,,,5,,53,62
2784,note_on,,,,,6,0,5,,,,4,,60,62
2805,note_off,,,,,21,0,2,,,,1,,69,0
2805,note_off,,,,,21,0,1,,,,0,,72,0
2808,note_on,,,,,3,0,1,,,,0,,70,127
2808,note_on,,,,,3,0,2,,,,1,,67,127
2826,note_off,,,,,42,0,6,,,,5,,53,0
2826,note_off,,,,,42,0,8,,,,7,,69,0
2826,note_off,,,,,42,0,3,,,,2,,69,0
2826,note_off,,,,,42,0,10,,,,11,,53,0
2826,note_off,,,,,42,0,9,,,,8,,65,0
2826,note_off,,,,,42,0,13,,,,14,,60,0
2826,note_off,,,,,42,0,4,,,,3,,65,0
2826,note_off,,,,,42,0,7,,,,6,,69,0
2826,note_off,,,,,42,0,11,,,,12,,41,0
2826,note_off,,,,,42,0,5,,,,4,,60,0
2826,note_off,,,,,0,0,12,,,,13,,72,0
2826,note_off,,,,,0,0,12,,,,13,,53,0
2826,note_off,,,,,42,0,12,,,,13,,69,0
2829,note_off,,,,,21,0,2,,,,1,,67,0
2829,note_off,,,,,21,0,1,,,,0,,70,0
2832,note_on,,,,,6,0,7,,,,6,,69,75
2832,note_on,,,,,6,0,10,,,,11,,40,49
2832,note_on,,,,,6,0,11,,,,12,,28,49
2832,note_on,,,,,6,0,12,,,,13,,60,49
2832,note_on,,,,,0,0,12,,,,13,,69,49
2832,note_on,,,,,0,0,12,,,,13,,40,49
2832,note_on,,,,,3,0,1,,,,0,,69,127
2832,note_on,,,,,6,0,6,,,,5,,40,62
2832,note_on,,,,,3,0,2,,,,1,,65,127
2832,note_on,,,,,6,0,13,,,,14,,60,75
2832,note_on,,,,,6,0,3,,,,2,,69,62
2832,note_on,,,,,6,0,4,,,,3,,65,62
2832,note_on,,,,,6,0,5,,,,4,,60,62
2832,note_on,,,,,6,0,9,,,,8,,65,75
2832,note_on,,,,,6,0,8,,,,7,,69,75
2853,note_off,,,,,21,0,3,,,,2,,69,0
2853,note_off,,,,,21,0,7,,,,6,,69,0
2853,note_off,,,,,21,0,8,,,,7,,69,0
2856,note_on,,,,,3,0,7,,,,6,,70,75
2856,note_on,,,,,3,0,3,,,,2,,70,62
2856,note_on,,,,,3,0,8,,,,7,,70,75
2874,note_off,,,,,42,0,2,,,,1,,65,0
2874,note_off,,,,,42,0,5,,,,4,,60,0
2874,note_off,,,,,0,0,12,,,,13,,40,0
2874,note_off,,,,,0,0,12,,,,13,,69,0
2874,note_off,,,,,42,0,13,,,,14,,60,0
2874,note_off,,,,,42,0,12,,,,13,,60,0
2874,note_off,,,,,42,0,10,,,,11,,40,0
2874,note_off,,,,,42,0,11,,,,12,,28,0
2874,note_off,,,,,42,0,9,,,,8,,65,0
2874,note_off,,,,,42,0,6,,,,5,,40,0
2874,note_off,,,,,42,0,4,,,,3,,65,0
2874,note_off,,,,,42,0,1,,,,0,,69,0
2877,note_off,,,,,21,0,3,,,,2,,70,0
2877,note_off,,,,,21,0,7,,,,6,,70,0
2877,note_off,,,,,21,0,8,,,,7,,70,0
2880,note_on,,,,,6,0,10,,,,11,,48,49
2880,note_on,,,,,3,0,3,,,,2,,69,62
2880,note_on,,,,,6,0,6,,,,5,,48,62
2880,note_on,,,,,6,0,11,,,,12,,36,49
2880,note_on,,,,,6,0,12,,,,13,,65,49
2880,note_on,,,,,3,0,7,,,,6,,69,75
2880,note_on,,,,,0,0,12,,,,13,,48,49
2880,note_on,,,,,3,0,8,,,,7,,69,75
2880,note_on,,,,,6,0,1,,,,0,,69,127
2880,note_on,,,,,6,0,2,,,,1,,65,127
2880,note_on,,,,,0,0,12,,,,13,,69,49
2901,note_off,,,,,21,0,8,,,,7,,69,0
2901,note_off,,,,,21,0,7,,,,6,,69,0
2901,note_off,,,,,21,0,3,,,,2,,69,0
2904,note_on,,,,,3,0,8,,,,7,,67,75
2904,note_on,,,,,3,0,7,,,,6,,67,75
2904,note_on,,,,,3,0,3,,,,2,,67,62
2922,note_off,,,,,42,0,6,,,,5,,48,0
2922,note_off,,,,,42,0,2,,,,1,,65,0
2922,note_off,,,,,42,0,10,,,,11,,48,0
2922,note_off,,,,,0,0,12,,,,13,,69,0
2922,note_off,,,,,0,0,12,,,,13,,48,0
2922,note_off,,,,,42,0,12,,,,13,,65,0
2922,note_off,,,,,42,0,1,,,,0,,69,0
2922,note_off,,,,,42,0,11,,,,12,,36,0
2925,note_off,,,,,21,0,7,,,,6,,67,0
2925,note_off,,,,,21,0,8,,,,7,,67,0
2925,note_off,,,,,21,0,3,,,,2,,67,0
2928,note_on,,,,,6,0,10,,,,11,,53,49
2928,note_on,,,,,6,0,2,,,,1,,65,127
2928,note_on,,,,,3,0,7,,,,6,,69,75
2928,note_on,,,,,0,0,12,,,,13,,53,49
2928,note_on,,,,,0,0,12,,,,13,,72,49
2928,note_on,,,,,6,0,12,,,,13,,69,49
2928,note_on,,,,,3,0,8,,,,7,,69,75
2928,note_on,,,,,6,0,6,,,,5,,53,62
2928,note_on,,,,,6,0,1,,,,0,,69,127
2928,note_on,,,,,3,0,3,,,,2,,69,62
2928,note_on,,,,,6,0,11,,,,12,,41,49
2949,note_off,,,,,21,0,8,,,,7,,69,0
2949,note_off,,,,,21,0,3,,,,2,,69,0
2949,note_off,,,,,21,0,7,,,,6,,69,0
2952,note_on,,,,,3,0,7,,,,6,,65,75
2952,note_on,,,,,3,0,3,,,,2,,65,62
2952,note_on,,,,,3,0,8,,,,7,,65,75
2970,note_off,,,,,42,0,2,,,,1,,65,0
2970,note_off,,,,,0,0,12,,,,13,,53,0
2970,note_off,,,,,0,0,12,,,,13,,72,0
2970,note_off,,,,,42,0,1,,,,0,,69,0
2970,note_off,,,,,42,0,6,,,,5,,53,0
2970,note_off,,,,,42,0,10,,,,11,,53,0
2970,note_off,,,,,42,0,11,,,,12,,41,0
2970,note_off,,,,,42,0,12,,,,13,,69,0
2973,note_off,,,,,21,0,8,,,,7,,65,0
2973,note_off,,,,,21,0,3,,,,2,,65,0
2973,note_off,,,,,21,0,7,,,,6,,65,0
2976,note_on,,,,,6,0,11,,,,12,,26,49
2976,note_on,,,,,3,0,8,,,,7,,77,75
2976,note_on,,,,,0,0,12,,,,13,,38,49
2976,note_on,,,,,0,0,12,,,,13,,69,49
2976,note_on,,,,,6,0,12,,,,13,,65,49
2976,note_on,,,,,3,0,7,,,,6,,77,75
2976,note_on,,,,,6,0,10,,,,11,,38,49
2976,note_on,,,,,102,0,13,,,,14,,62,75
2976,note_on,,,,,102,0,5,,,,4,,62,62
2976,note_on,,,,,6,0,1,,,,0,,69,127
2976,note_on,,,,,102,0,4,,,,3,,65,62
2976,note_on,,,,,6,0,2,,,,1,,65,127
2976,note_on,,,,,6,0,6,,,,5,,38,62
2976,note_on,,,,,3,0,3,,,,2,,77,62
2976,note_on,,,,,102,0,9,,,,8,,65,75
2997,note_off,,,,,21,0,1,,,,0,,69,0
2997,note_off,,,,,21,0,2,,,,1,,65,0
3000,note_on,,,,,3,0,1,,,,0,,70,127
3000,note_on,,,,,3,0,2,,,,1,,67,127
3018,note_off,,,,,42,0,13,,,,14,,62,0
3018,note_off,,,,,42,0,6,,,,5,,38,0
3018,note_off,,,,,42,0,7,,,,6,,77,0
3018,note_off,,,,,42,0,5,,,,4,,62,0
3018,note_off,,,,,42,0,3,,,,2,,77,0
3018,note_off,,,,,42,0,12,,,,13,,65,0
3018,note_off,,,,,0,0,12,,,,13,,69,0
3018,note_off,,,,,0,0,12,,,,13,,38,0
3018,note_off,,,,,42,0,9,,,,8,,65,0
3018,note_off,,,,,42,0,10,,,,11,,38,0
3018,note_off,,,,,42,0,11,,,,12,,26,0
3018,note_off,,,,,42,0,8,,,,7,,77,0
3018,note_off,,,,,42,0,4,,,,3,,65,0
3021,note_off,,,,,21,0,2,,,,1,,67,0
3021,note_off,,,,,21,0,1,,,,0,,70,0
3024,note_on,,,,,6,0,9,,,,8,,65,75
3024,note_on,,,,,6,0,12,,,,13,,69,49
3024,note_on,,,,,0,0,12,,,,13,,77,49
3024,note_on,,,,,0,0,12,,,,13,,50,49
3024,note_on,,,,,6,0,10,,,,11,,50,49
3024,note_on,,,,,6,0,8,,,,7,,69,75
3024,note_on,,,,,6,0,11,,,,12,,38,49
3024,note_on,,,,,6,0,6,,,,5,,50,62
3024,note_on,,,,,6,0,13,,,,14,,62,75
3024,note_on,,,,,6,0,4,,,,3,,65,62
3024,note_on,,,,,3,0,1,,,,0,,69,127
3024,note_on,,,,,3,0,2,,,,1,,65,127
3024,note_on,,,,,6,0,5,,,,4,,62,62
3024,note_on,,,,,6,0,3,,,,2,,69,62
3024,note_on,,,,,6,0,7,,,,6,,69,75
3045,note_off,,,,,21,0,2,,,,1,,65,0
3045,note_off,,,,,21,0,1,,,,0,,69,0
3048,note_on,,,,,3,0,2,,,,1,,67,127
3048,note_on,,,,,3,0,1,,,,0,,70,127
3066,note_off,,,,,42,0,3,,,,2,,69,0
3066,note_off,,,,,42,0,10,,,,11,,50,0
3066,note_off,,,,,42,0,12,,,,13,,69,0
3066,note_off,,,,,0,0,12,,,,13,,77,0
3066,note_off,,,,,0,0,12,,,,13,,50,0
3066,note_off,,,,,42,0,7,,,,6,,69,0
3066,note_off,,,,,42,0,5,,,,4,,62,0
3066,note_off,,,,,42,0,4,,,,3,,65,0
3066,note_off,,,,,42,0,11,,,,12,,38,0
3066,note_off,,,,,42,0,6,,,,5,,50,0
3066,note_off,,,,,42,0,13,,,,14,,62,0
3066,note_off,,,,,42,0,9,,,,8,,65,0
3066,note_off,,,,,42,0,8,,,,7,,69,0
3069,note_off,,,,,21,0,1,,,,0,,70,0
3069,note_off,,,,,21,0,2,,,,1,,67,0
3072,note_on,,,,,6,0,3,,,,2,,69,62
3072,note_on,,,,,6,0,4,,,,3,,65,62
3072,note_on,,,,,6,0,9,,,,8,,65,75
3072,note_on,,,,,3,0,1,,,,0,,72,127
3072,note_on,,,,,6,0,12,,,,13,,65,49
3072,note_on,,,,,0,0,12,,,,13,,74,49
3072,note_on,,,,,6,0,11,,,,12,,33,49
3072,note_on,,,,,6,0,5,,,,4,,62,62
3072,note_on,,,,,6,0,6,,,,5,,45,62
3072,note_on,,,,,0,0,12,,,,13,,45,49
3072,note_on,,,,,6,0,13,,,,14,,62,75
3072,note_on,,,,,6,0,10,,,,11,,45,49
3072,note_on,,,,,6,0,8,,,,7,,69,75
3072,note_on,,,,,3,0,2,,,,1,,69,127
3072,note_on,,,,,6,0,7,,,,6,,69,75
3093,note_off,,,,,21,0,1,,,,0,,72,0
3093,note_off,,,,,21,0,2,,,,1,,69,0
3096,note_on,,,,,3,0,1,,,,0,,70,127
3096,note_on,,,,,3,0,2,,,,1,,67,127
3114,note_off,,,,,42,0,9,,,,8,,65,0
3114,note_off,,,,,42,0,11,,,,12,,33,0
3114,note_off,,,,,42,0,8,,,,7,,69,0
3114,note_off,,,,,42,0,13,,,,14,,62,0
3114,note_off,,,,,42,0,5,,,,4,,62,0
3114,note_off,,,,,42,0,3,,,,2,,69,0
3114,note_off,,,,,42,0,7,,,,6,,69,0
3114,note_off,,,,,42,0,4,,,,3,,65,0
3114,note_off,,,,,0,0,12,,,,13,,45,0
3114,note_off,,,,,0,0,12,,,,13,,74,0
3114,note_off,,,,,42,0,6,,,,5,,45,0
3114,note_off,,,,,42,0,12,,,,13,,65,0
3114,note_off,,,,,42,0,10,,,,11,,45,0
3117,note_off,,,,,21,0,2,,,,1,,67,0
3117,note_off,,,,,21,0,1,,,,0,,70,0
3120,note_on,,,,,6,0,7,,,,6,,69,75
3120,note_on,,,,,0,0,12,,,,13,,46,49
3120,note_on,,,,,3,0,1,,,,0,,69,127
3120,note_on,,,,,0,0,12,,,,13,,74,49
3120,note_on,,,,,6,0,12,,,,13,,67,49
3120,note_on,,,,,6,0,3,,,,2,,69,62
3120,note_on,,,,,6,0,5,,,,4,,62,62
3120,note_on,,,,,6,0,9,,,,8,,65,75
3120,note_on,,,,,6,0,13,,,,14,,62,75
3120,note_on,,,,,6,0,6,,,,5,,46,62
3120,note_on,,,,,6,0,4,,,,3,,65,62
3120,note_on,,,,,3,0,2,,,,1,,65,127
3120,note_on,,,,,6,0,10,,,,11,,46,49
3120,note_on,,,,,6,0,11,,,,12,,34,49
3120,note_on,,,,,6,0,8,,,,7,,69,75
3162,note_off,,,,,42,0,4,,,,3,,65,0
3162,note_off,,,,,42,0,6,,,,5,,46,0
3162,note_off,,,,,42,0,9,,,,8,,65,0
3162,note_off,,,,,42,0,10,,,,11,,46,0
3162,note_off,,,,,42,0,7,,,,6,,69,0
3162,note_off,,,,,42,0,13,,,,14,,62,0
3162,note_off,,,,,42,0,1,,,,0,,69,0
3162,note_off,,,,,42,0,11,,,,12,,34,0
3162,note_off,,,,,42,0,8,,,,7,,69,0
3162,note_off,,,,,42,0,12,,,,13,,67,0
3162,note_off,,,,,0,0,12,,,,13,,74,0
3162,note_off,,,,,0,0,12,,,,13,,46,0
3162,note_off,,,,,42,0,2,,,,1,,65,0
3162,note_off,,,,,42,0,3,,,,2,,69,0
3162,note_off,,,,,42,0,5,,,,4,,62,0
3168,note_on,,,,,6,0,7,,,,6,,70,75
3168,note_on,,,,,0,0,12,,,,13,,50,49
3168,note_on,,,,,6,0,4,,,,3,,67,62
3168,note_on,,,,,6,0,3,,,,2,,70,62
3168,note_on,,,,,6,0,2,,,,1,,65,127
3168,note_on,,,,,6,0,13,,,,14,,62,75
3168,note_on,,,,,6,0,10,,,,11,,50,49
3168,note_on,,,,,6,0,5,,,,4,,62,62
3168,note_on,,,,,6,0,11,,,,12,,38,49
3168,note_on,,,,,6,0,12,,,,13,,70,49
3168,note_on,,,,,6,0,8,,,,7,,70,75
3168,note_on,,,,,0,0,12,,,,13,,79,49
3168,note_on,,,,,6,0,9,,,,8,,67,75
3168,note_on,,,,,6,0,6,,,,5,,50,62
3168,note_on,,,,,6,0,1,,,,0,,67,127
3189,note_off,,,,,21,0,7,,,,6,,70,0
3189,note_off,,,,,21,0,8,,,,7,,70,0
3189,note_off,,,,,21,0,3,,,,2,,70,0
3189,note_off,,,,,21,0,1,,,,0,,67,0
3192,note_on,,,,,3,0,8,,,,7,,69,75
3192,note_on,,,,,3,0,7,,,,6,,69,75
3192,note_on,,,,,3,0,1,,,,0,,69,127
3192,note_on,,,,,3,0,3,,,,2,,69,62
3210,note_off,,,,,42,0,6,,,,5,,50,0
3210,note_off,,,,,42,0,9,,,,8,,67,0
3210,note_off,,,,,42,0,11,,,,12,,38,0
3210,note_off,,,,,42,0,4,,,,3,,67,0
3210,note_off,,,,,42,0,13,,,,14,,62,0
3210,note_off,,,,,42,0,10,,,,11,,50,0
3210,note_off,,,,,42,0,2,,,,1,,65,0
3210,note_off,,,,,42,0,12,,,,13,,70,0
3210,note_off,,,,,0,0,12,,,,13,,79,0
3210,note_off,,,,,0,0,12,,,,13,,50,0
3210,note_off,,,,,42,0,5,,,,4,,62,0
3213,note_off,,,,,21,0,3,,,,2,,69,0
3213,note_off,,,,,21,0,8,,,,7,,69,0
3213,note_off,,,,,21,0,7,,,,6,,69,0
3213,note_off,,,,,21,0,1,,,,0,,69,0
3216,note_on,,,,,6,0,10,,,,11,,43,49
3216,note_on,,,,,6,0,2,,,,1,,65,127
3216,note_on,,,,,3,0,8,,,,7,,67,75
3216,note_on,,,,,0,0,12,,,,13,,70,49
3216,note_on,,,,,6,0,5,,,,4,,62,62
3216,note_on,,,,,6,0,6,,,,5,,43,62
3216,note_on,,,,,0,0,12,,,,13,,43,49
3216,note_on,,,,,3,0,3,,,,2,,67,62
3216,note_on,,,,,6,0,13,,,,14,,58,75
3216,note_on,,,,,6,0,12,,,,13,,62,49
3216,note_on,,,,,3,0,1,,,,0,,70,127
3216,note_on,,,,,3,0,7,,,,6,,67,75
3216,note_on,,,,,6,0,11,,,,12,,31,49
3216,note_on,,,,,6,0,9,,,,8,,62,75
3216,note_on,,,,,6,0,4,,,,3,,62,62
3237,note_off,,,,,21,0,3,,,,2,,67,0
3237,note_off,,,,,21,0,7,,,,6,,67,0
3237,note_off,,,,,21,0,8,,,,7,,67,0
3237,note_off,,,,,21,0,1,,,,0,,70,0
3240,note_on,,,,,3,0,3,,,,2,,65,62
3240,note_on,,,,,3,0,7,,,,6,,65,75
3240,note_on,,,,,3,0,8,,,,7,,65,75
3240,note_on,,,,,3,0,1,,,,0,,69,127
3258,note_off,,,,,42,0,5,,,,4,,62,0
3258,note_off,,,,,42,0,6,,,,5,,43,0
3258,note_off,,,,,42,0,4,,,,3,,62,0
3258,note_off,,,,,42,0,11,,,,12,,31,0
3258,note_off,,,,,42,0,9,,,,8,,62,0
3258,note_off,,,,,42,0,2,,,,1,,65,0
3258,note_off,,,,,0,0,12,,,,13,,43,0
3258,note_off,,,,,0,0,12,,,,13,,70,0
3258,note_off,,,,,42,0,12,,,,13,,62,0
3258,note_off,,,,,42,0,10,,,,11,,43,0
3258,note_off,,,,,42,0,13,,,,14,,58,0
3261,note_off,,,,,21,0,8,,,,7,,65,0
3261,note_off,,,,,21,0,3,,,,2,,65,0
3261,note_off,,,,,21,0,1,,,,0,,69,0
3261,note_off,,,,,21,0,7,,,,6,,65,0
3264,note_on,,,,,3,0,1,,,,0,,67,127
3264,note_on,,,,,6,0,6,,,,5,,48,62
3264,note_on,,,,,6,0,9,,,,8,,64,75
3264,note_on,,,,,6,0,13,,,,14,,60,75
3264,note_on,,,,,6,0,11,,,,12,,36,49
3264,note_on,,,,,3,0,3,,,,2,,64,62
3264,note_on,,,,,6,0,4,,,,3,,60,62
3264,note_on,,,,,3,0,7,,,,6,,64,75
3264,note_on,,,,,3,0,8,,,,7,,64,75
3264,note_on,,,,,6,0,10,,,,11,,48,49
3264,note_on,,,,,0,0,12,,,,13,,76,49
3264,note_on,,,,,6,0,12,,,,13,,67,49
3264,note_on,,,,,6,0,5,,,,4,,64,62
3264,note_on,,,,,0,0,12,,,,13,,48,49
3264,note_on,,,,,6,0,2,,,,1,,60,127
3285,note_off,,,,,21,0,7,,,,6,,64,0
3285,note_off,,,,,21,0,8,,,,7,,64,0
3285,note_off,,,,,21,0,3,,,,2,,64,0
3288,note_on,,,,,3,0,7,,,,6,,62,75
3288,note_on,,,,,3,0,3,,,,2,,62,62
3288,note_on,,,,,3,0,8,,,,7,,62,75
3306,note_off,,,,,42,0,10,,,,11,,48,0
3306,note_off,,,,,42,0,12,,,,13,,67,0
3306,note_off,,,,,0,0,12,,,,13,,76,0
3306,note_off,,,,,42,0,11,,,,12,,36,0
3306,note_off,,,,,42,0,1,,,,0,,67,0
3306,note_off,,,,,0,0,12,,,,13,,48,0
3306,note_off,,,,,42,0,13,,,,14,,60,0
3306,note_off,,,,,42,0,4,,,,3,,60,0
3306,note_off,,,,,42,0,6,,,,5,,48,0
3306,note_off,,,,,42,0,5,,,,4,,64,0
3306,note_off,,,,,42,0,2,,,,1,,60,0
3306,note_off,,,,,42,0,9,,,,8,,64,0
3309,note_off,,,,,21,0,7,,,,6,,62,0
3309,note_off,,,,,21,0,3,,,,2,,62,0
3309,note_off,,,,,21,0,8,,,,7,,62,0
3312,note_on,,,,,0,0,12,,,,13,,52,49
3312,note_on,,,,,0,0,12,,,,13,,72,49
3312,note_on,,,,,3,0,8,,,,7,,64,75
3312,note_on,,,,,6,0,1,,,,0,,60,127
3312,note_on,,,,,6,0,10,,,,11,,52,49
3312,note_on,,,,,6,0,5,,,,4,,67,62
3312,note_on,,,,,6,0,11,,,,12,,40,49
3312,note_on,,,,,6,0,12,,,,13,,67,49
3312,note_on,,,,,6,0,6,,,,5,,52,62
3312,note_on,,,,,6,0,9,,,,8,,60,75
3312,note_on,,,,,3,0,3,,,,2,,64,62
3312,note_on,,,,,3,0,7,,,,6,,64,75
3312,note_on,,,,,6,0,4,,,,3,,60,62
3312,note_on,,,,,6,0,13,,,,14,,67,75
3333,note_off,,,,,21,0,1,,,,0,,60,0
3333,note_off,,,,,21,0,3,,,,2,,64,0
3333,note_off,,,,,21,0,8,,,,7,,64,0
3333,note_off,,,,,21,0,7,,,,6,,64,0
3336,note_on,,,,,3,0,8,,,,7,,60,75
3336,note_on,,,,,3,0,7,,,,6,,60,75
3336,note_on,,,,,3,0,1,,,,0,,60,127
3336,note_on,,,,,3,0,3,,,,2,,60,62
3354,note_off,,,,,42,0,5,,,,4,,67,0
3354,note_off,,,,,42,0,9,,,,8,,60,0
3354,note_off,,,,,42,0,11,,,,12,,40,0
3354,note_off,,,,,42,0,6,,,,5,,52,0
3354,note_off,,,,,42,0,13,,,,14,,67,0
3354,note_off,,,,,42,0,4,,,,3,,60,0
3354,note_off,,,,,42,0,12,,,,13,,67,0
3354,note_off,,,,,42,0,10,,,,11,,52,0
3354,note_off,,,,,0,0,12,,,,13,,52,0
3354,note_off,,,,,0,0,12,,,,13,,72,0
3357,note_off,,,,,21,0,1,,,,0,,60,0
3357,note_off,,,,,21,0,3,,,,2,,60,0
3357,note_off,,,,,21,0,8,,,,7,,60,0
3357,note_off,,,,,21,0,7,,,,6,,60,0
3360,note_on,,,,,6,0,10,,,,11,,55,49
3360,note_on,,,,,6,0,9,,,,8,,64,75
3360,note_on,,,,,6,0,11,,,,12,,43,49
3360,note_on,,,,,0,0,12,,,,13,,55,49
3360,note_on,,,,,0,0,12,,,,13,,72,49
3360,note_on,,,,,3,0,8,,,,7,,67,75
3360,note_on,,,,,3,0,1,,,,0,,60,127
3360,note_on,,,,,6,0,12,,,,13,,64,49
3360,note_on,,,,,6,0,5,,,,4,,64,62
3360,note_on,,,,,6,0,6,,,,5,,55,62
3360,note_on,,,,,6,0,13,,,,14,,64,75
3360,note_on,,,,,3,0,3,,,,2,,67,62
3360,note_on,,,,,6,0,4,,,,3,,64,62
3360,note_on,,,,,3,0,7,,,,6,,67,75
3381,note_off,,,,,21,0,4,,,,3,,64,0
3381,note_off,,,,,21,0,1,,,,0,,60,0
3381,note_off,,,,,21,0,7,,,,6,,67,0
3381,note_off,,,,,21,0,9,,,,8,,64,0
3381,note_off,,,,,21,0,3,,,,2,,67,0
3381,note_off,,,,,21,0,8,,,,7,,67,0
3384,note_on,,,,,3,0,8,,,,7,,65,75
3384,note_on,,,,,3,0,4,,,,3,,62,62
3384,note_on,,,,,3,0,7,,,,6,,65,75
3384,note_on,,,,,3,0,1,,,,0,,60,127
3384,note_on,,,,,3,0,3,,,,2,,65,62
3384,note_on,,,,,3,0,9,,,,8,,62,75
3402,note_off,,,,,42,0,10,,,,11,,55,0
3402,note_off,,,,,42,0,5,,,,4,,64,0
3402,note_off,,,,,42,0,13,,,,14,,64,0
3402,note_off,,,,,42,0,11,,,,12,,43,0
3402,note_off,,,,,42,0,6,,,,5,,55,0
3402,note_off,,,,,42,0,12,,,,13,,64,0
3402,note_off,,,,,0,0,12,,,,13,,72,0
3402,note_off,,,,,0,0,12,,,,13,,55,0
3405,note_off,,,,,21,0,1,,,,0,,60,0
3405,note_off,,,,,21,0,7,,,,6,,65,0
3405,note_off,,,,,21,0,8,,,,7,,65,0
3405,note_off,,,,,21,0,4,,,,3,,62,0
3405,note_off,,,,,21,0,3,,,,2,,65,0
3405,note_off,,,,,21,0,9,,,,8,,62,0
3408,note_on,,,,,0,0,12,,,,13,,76,49
3408,note_on,,,,,3,0,9,,,,8,,64,75
3408,note_on,,,,,6,0,10,,,,11,,48,49
3408,note_on,,,,,3,0,1,,,,0,,60,127
3408,note_on,,,,,102,0,2,,,,1,,67,127
3408,note_on,,,,,6,0,6,,,,5,,48,62
3408,note_on,,,,,3,0,7,,,,6,,67,75
3408,note_on,,,,,0,0,12,,,,13,,48,49
3408,note_on,,,,,6,0,12,,,,13,,67,49
3408,note_on,,,,,6,0,13,,,,14,,60,75
3408,note_on,,,,,3,0,4,,,,3,,64,62
3408,note_on,,,,,6,0,11,,,,12,,36,49
3408,note_on,,,,,3,0,8,,,,7,,67,75
3408,note_on,,,,,6,0,5,,,,4,,60,62
3408,note_on,,,,,3,0,3,,,,2,,67,62
3429,note_off,,,,,21,0,9,,,,8,,64,0
3429,note_off,,,,,21,0,8,,,,7,,67,0
3429,note_off,,,,,21,0,3,,,,2,,67,0
3429,note_off,,,,,21,0,7,,,,6,,67,0
3429,note_off,,,,,21,0,4,,,,3,,64,0
3432,note_on,,,,,3,0,9,,,,8,,60,75
3432,note_on,,,,,3,0,7,,,,6,,64,75
3432,note_on,,,,,3,0,4,,,,3,,60,62
3432,note_on,,,,,3,0,3,,,,2,,64,62
3432,note_on,,,,,3,0,8,,,,7,,64,75
3450,note_off,,,,,42,0,11,,,,12,,36,0
3450,note_off,,,,,42,0,1,,,,0,,60,0
3450,note_off,,,,,0,0,12,,,,13,,48,0
3450,note_off,,,,,0,0,12,,,,13,,76,0
3450,note_off,,,,,42,0,10,,,,11,,48,0
3450,note_off,,,,,42,0,12,,,,13,,67,0
3450,note_off,,,,,42,0,13,,,,14,,60,0
3450,note_off,,,,,42,0,5,,,,4,,60,0
3450,note_off,,,,,42,0,2,,,,1,,67,0
3450,note_off,,,,,42,0,6,,,,5,,48,0
3453,note_off,,,,,21,0,8,,,,7,,64,0
3453,note_off,,,,,21,0,7,,,,6,,64,0
3453,note_off,,,,,21,0,3,,,,2,,64,0
3453,note_off,,,,,21,0,9,,,,8,,60,0
3453,note_off,,,,,21,0,4,,,,3,,60,0
3456,note_on,,,,,0,0,12,,,,13,,52,49
3456,note_on,,,,,6,0,6,,,,5,,52,62
3456,note_on,,,,,3,0,7,,,,6,,70,75
3456,note_on,,,,,3,0,9,,,,8,,67,75
3456,note_on,,,,,3,0,4,,,,3,,67,62
3456,note_on,,,,,6,0,13,,,,14,,60,75
3456,note_on,,,,,6,0,12,,,,13,,67,49
3456,note_on,,,,,6,0,2,,,,1,,60,127
3456,note_on,,,,,0,0,12,,,,13,,72,49
3456,note_on,,,,,3,0,3,,,,2,,70,62
3456,note_on,,,,,3,0,8,,,,7,,70,75
3456,note_on,,,,,6,0,5,,,,4,,60,62
3456,note_on,,,,,6,0,11,,,,12,,40,49
3456,note_on,,,,,6,0,10,,,,11,,52,49
3477,note_off,,,,,21,0,9,,,,8,,67,0
3477,note_off,,,,,21,0,8,,,,7,,70,0
3477,note_off,,,,,21,0,3,,,,2,,70,0
3477,note_off,,,,,21,0,2,,,,1,,60,0
3477,note_off,,,,,21,0,7,,,,6,,70,0
3477,note_off,,,,,21,0,4,,,,3,,67,0
3480,note_on,,,,,3,0,3,,,,2,,69,62
3480,note_on,,,,,3,0,7,,,,6,,69,75
3480,note_on,,,,,3,0,4,,,,3,,65,62
3480,note_on,,,,,3,0,2,,,,1,,60,127
3480,note_on,,,,,3,0,8,,,,7,,69,75
3480,note_on,,,,,3,0,9,,,,8,,65,75
3498,note_off,,,,,42,0,6,,,,5,,52,0
3498,note_off,,,,,42,0,5,,,,4,,60,0
3498,note_off,,,,,0,0,12,,,,13,,52,0
3498,note_off,,,,,0,0,12,,,,13,,72,0
3498,note_off,,,,,42,0,12,,,,13,,67,0
3498,note_off,,,,,42,0,13,,,,14,,60,0
3498,note_off,,,,,42,0,11,,,,12,,40,0
3498,note_off,,,,,42,0,10,,,,11,,52,0
3501,note_off,,,,,21,0,9,,,,8,,65,0
3501,note_off,,,,,21,0,2,,,,1,,60,0
3501,note_off,,,,,21,0,3,,,,2,,69,0
3501,note_off,,,,,21,0,7,,,,6,,69,0
3501,note_off,,,,,21,0,8,,,,7,,69,0
3501,note_off,,,,,21,0,4,,,,3,,65,0
3504,note_on,,,,,6,0,6,,,,5,,55,62
3504,note_on,,,,,6,0,13,,,,14,,64,75
3504,note_on,,,,,6,0,12,,,,13,,64,49
3504,note_on,,,,,0,0,12,,,,13,,72,49
3504,note_on,,,,,3,0,4,,,,3,,67,62
3504,note_on,,,,,0,0,12,,,,13,,55,49
3504,note_on,,,,,6,0,5,,,,4,,64,62
3504,note_on,,,,,3,0,9,,,,8,,67,75
3504,note_on,,,,,3,0,8,,,,7,,70,75
3504,note_on,,,,,3,0,3,,,,2,,70,62
3504,note_on,,,,,6,0,11,,,,12,,43,49
3504,note_on,,,,,6,0,10,,,,11,,55,49
3504,note_on,,,,,3,0,2,,,,1,,60,127
3504,note_on,,,,,3,0,7,,,,6,,70,75
3525,note_off,,,,,21,0,3,,,,2,,70,0
3525,note_off,,,,,21,0,4,,,,3,,67,0
3525,note_off,,,,,21,0,9,,,,8,,67,0
3525,note_off,,,,,21,0,8,,,,7,,70,0
3525,note_off,,,,,21,0,2,,,,1,,60,0
3525,note_off,,,,,21,0,7,,,,6,,70,0
3528,note_on,,,,,3,0,2,,,,1,,60,127
3528,note_on,,,,,3,0,3,,,,2,,67,62
3528,note_on,,,,,3,0,7,,,,6,,67,75
3528,note_on,,,,,3,0,4,,,,3,,64,62
3528,note_on,,,,,3,0,8,,,,7,,67,75
3528,note_on,,,,,3,0,9,,,,8,,64,75
3546,note_off,,,,,0,0,12,,,,13,,72,0
3546,note_off,,,,,42,0,11,,,,12,,43,0
3546,note_off,,,,,0,0,12,,,,13,,55,0
3546,note_off,,,,,42,0,13,,,,14,,64,0
3546,note_off,,,,,42,0,10,,,,11,,55,0
3546,note_off,,,,,42,0,5,,,,4,,64,0
3546,note_off,,,,,42,0,6,,,,5,,55,0
3546,note_off,,,,,42,0,12,,,,13,,64,0
3549,note_off,,,,,21,0,4,,,,3,,64,0
3549,note_off,,,,,21,0,3,,,,2,,67,0
3549,note_off,,,,,21,0,9,,,,8,,64,0
3549,note_off,,,,,21,0,2,,,,1,,60,0
3549,note_off,,,,,21,0,7,,,,6,,67,0
3549,note_off,,,,,21,0,8,,,,7,,67,0
3552,note_on,,,,,3,0,8,,,,7,,76,75
3552,note_on,,,,,6,0,11,,,,12,,36,49
3552,note_on,,,,,3,0,4,,,,3,,70,62
3552,note_on,,,,,3,0,2,,,,1,,60,127
3552,note_on,,,,,3,0,7,,,,6,,76,75
3552,note_on,,,,,0,0,12,,,,13,,48,49
3552,note_on,,,,,3,0,3,,,,2,,76,62
3552,note_on,,,,,6,0,10,,,,11,,48,49
3552,note_on,,,,,102,0,1,,,,0,,70,127
3552,note_on,,,,,6,0,6,,,,5,,48,62
3552,note_on,,,,,6,0,12,,,,13,,67,49
3552,note_on,,,,,0,0,12,,,,13,,76,49
3552,note_on,,,,,3,0,9,,,,8,,70,75
3552,note_on,,,,,6,0,13,,,,14,,67,75
3552,note_on,,,,,6,0,5,,,,4,,67,62
3573,note_off,,,,,21,0,13,,,,14,,67,0
3573,note_off,,,,,21,0,3,,,,2,,76,0
3573,note_off,,,,,21,0,5,,,,4,,67,0
3573,note_off,,,,,21,0,9,,,,8,,70,0
3573,note_off,,,,,21,0,7,,,,6,,76,0
3573,note_off,,,,,21,0,4,,,,3,,70,0
3573,note_off,,,,,21,0,8,,,,7,,76,0
3576,note_on,,,,,3,0,13,,,,14,,65,75
3576,note_on,,,,,3,0,9,,,,8,,69,75
3576,note_on,,,,,3,0,4,,,,3,,69,62
3576,note_on,,,,,3,0,5,,,,4,,65,62
3576,note_on,,,,,3,0,7,,,,6,,74,75
3576,note_on,,,,,3,0,3,,,,2,,74,62
3576,note_on,,,,,3,0,8,,,,7,,74,75
3594,note_off,,,,,42,0,10,,,,11,,48,0
3594,note_off,,,,,42,0,2,,,,1,,60,0
3594,note_off,,,,,42,0,11,,,,12,,36,0
3594,note_off,,,,,0,0,12,,,,13,,76,0
3594,note_off,,,,,0,0,12,,,,13,,48,0
3594,note_off,,,,,42,0,1,,,,0,,70,0
3594,note_off,,,,,42,0,12,,,,13,,67,0
3594,note_off,,,,,42,0,6,,,,5,,48,0
3597,note_off,,,,,21,0,9,,,,8,,69,0
3597,note_off,,,,,21,0,8,,,,7,,74,0
3597,note_off,,,,,21,0,3,,,,2,,74,0
3597,note_off,,,,,21,0,7,,,,6,,74,0
3597,note_off,,,,,21,0,4,,,,3,,69,0
3597,note_off,,,,,21,0,13,,,,14,,65,0
3597,note_off,,,,,21,0,5,,,,4,,65,0
3600,note_on,,,,,6,0,11,,,,12,,40,49
3600,note_on,,,,,3,0,5,,,,4,,67,62
3600,note_on,,,,,3,0,3,,,,2,,76,62
3600,note_on,,,,,3,0,9,,,,8,,70,75
3600,note_on,,,,,0,0,12,,,,13,,72,49
3600,note_on,,,,,3,0,13,,,,14,,67,75
3600,note_on,,,,,3,0,7,,,,6,,76,75
3600,note_on,,,,,6,0,10,,,,11,,52,49
3600,note_on,,,,,3,0,4,,,,3,,70,62
3600,note_on,,,,,6,0,12,,,,13,,67,49
3600,note_on,,,,,0,0,12,,,,13,,52,49
3600,note_on,,,,,3,0,8,,,,7,,76,75
3600,note_on,,,,,6,0,1,,,,0,,60,127
3600,note_on,,,,,6,0,6,,,,5,,52,62
3621,note_off,,,,,21,0,9,,,,8,,70,0
3621,note_off,,,,,21,0,7,,,,6,,76,0
3621,note_off,,,,,21,0,5,,,,4,,67,0
3621,note_off,,,,,21,0,1,,,,0,,60,0
3621,note_off,,,,,21,0,8,,,,7,,76,0
3621,note_off,,,,,21,0,13,,,,14,,67,0
3621,note_off,,,,,21,0,3,,,,2,,76,0
3621,note_off,,,,,21,0,4,,,,3,,70,0
3624,note_on,,,,,3,0,5,,,,4,,64,62
3624,note_on,,,,,3,0,1,,,,0,,60,127
3624,note_on,,,,,3,0,13,,,,14,,64,75
3624,note_on,,,,,3,0,4,,,,3,,67,62
3624,note_on,,,,,3,0,8,,,,7,,72,75
3624,note_on,,,,,3,0,7,,,,6,,72,75
3624,note_on,,,,,3,0,9,,,,8,,67,75
3624,note_on,,,,,3,0,3,,,,2,,72,62
3642,note_off,,,,,42,0,11,,,,12,,40,0
3642,note_off,,,,,42,0,6,,,,5,,52,0
3642,note_off,,,,,42,0,12,,,,13,,67,0
3642,note_off,,,,,0,0,12,,,,13,,52,0
3642,note_off,,,,,0,0,12,,,,13,,72,0
3642,note_off,,,,,42,0,10,,,,11,,52,0
3645,note_off,,,,,21,0,8,,,,7,,72,0
3645,note_off,,,,,21,0,5,,,,4,,64,0
3645,note_off,,,,,21,0,1,,,,0,,60,0
3645,note_off,,,,,21,0,4,,,,3,,67,0
3645,note_off,,,,,21,0,13,,,,14,,64,0
3645,note_off,,,,,21,0,3,,,,2,,72,0
3645,note_off,,,,,21,0,9,,,,8,,67,0
3645,note_off,,,,,21,0,7,,,,6,,72,0
3648,note_on,,,,,6,0,10,,,,11,,55,49
3648,note_on,,,,,3,0,5,,,,4,,70,62
3648,note_on,,,,,3,0,13,,,,14,,70,75
3648,note_on,,,,,3,0,8,,,,7,,79,75
3648,note_on,,,,,0,0,12,,,,13,,55,49
3648,note_on,,,,,0,0,12,,,,13,,72,49
3648,note_on,,,,,6,0,11,,,,12,,43,49
3648,note_on,,,,,3,0,9,,,,8,,76,75
3648,note_on,,,,,3,0,4,,,,3,,76,62
3648,note_on,,,,,6,0,12,,,,13,,64,49
3648,note_on,,,,,3,0,7,,,,6,,79,75
3648,note_on,,,,,3,0,1,,,,0,,60,127
3648,note_on,,,,,6,0,6,,,,5,,55,62
3648,note_on,,,,,3,0,3,,,,2,,79,62
3669,note_off,,,,,21,0,9,,,,8,,76,0
3669,note_off,,,,,21,0,3,,,,2,,79,0
3669,note_off,,,,,21,0,7,,,,6,,79,0
3669,note_off,,,,,21,0,5,,,,4,,70,0
3669,note_off,,,,,21,0,4,,,,3,,76,0
3669,note_off,,,,,21,0,8,,,,7,,79,0
3669,note_off,,,,,21,0,13,,,,14,,70,0
3669,note_off,,,,,21,0,1,,,,0,,60,0
3672,note_on,,,,,3,0,3,,,,2,,77,62
3672,note_on,,,,,3,0,4,,,,3,,74,62
3672,note_on,,,,,3,0,13,,,,14,,69,75
3672,note_on,,,,,3,0,7,,,,6,,77,75
3672,note_on,,,,,3,0,9,,,,8,,74,75
3672,note_on,,,,,3,0,1,,,,0,,60,127
3672,note_on,,,,,3,0,8,,,,7,,77,75
3672,note_on,,,,,3,0,5,,,,4,,69,62
3690,note_off,,,,,42,0,10,,,,11,,55,0
3690,note_off,,,,,42,0,11,,,,12,,43,0
3690,note_off,,,,,42,0,12,,,,13,,64,0
3690,note_off,,,,,0,0,12,,,,13,,55,0
3690,note_off,,,,,0,0,12,,,,13,,72,0
3690,note_off,,,,,42,0,6,,,,5,,55,0
3693,note_off,,,,,21,0,9,,,,8,,74,0
3693,note_off,,,,,21,0,5,,,,4,,69,0
3693,note_off,,,,,21,0,3,,,,2,,77,0
3693,note_off,,,,,21,0,8,,,,7,,77,0
3693,note_off,,,,,21,0,1,,,,0,,60,0
3693,note_off,,,,,21,0,13,,,,14,,69,0
3693,note_off,,,,,21,0,7,,,,6,,77,0
3693,note_off,,,,,21,0,4,,,,3,,74,0
3696,note_on,,,,,3,0,8,,,,7,,79,75
3696,note_on,,,,,6,0,12,,,,13,,67,49
3696,note_on,,,,,3,0,5,,,,4,,70,62
3696,note_on,,,,,3,0,13,,,,14,,70,75
3696,note_on,,,,,6,0,10,,,,11,,48,49
3696,note_on,,,,,3,0,7,,,,6,,79,75
3696,note_on,,,,,3,0,9,,,,8,,76,75
3696,note_on,,,,,0,0,12,,,,13,,76,49
3696,note_on,,,,,0,0,12,,,,13,,48,49
3696,note_on,,,,,6,0,6,,,,5,,48,62
3696,note_on,,,,,3,0,4,,,,3,,76,62
3696,note_on,,,,,3,0,1,,,,0,,60,127
3696,note_on,,,,,3,0,3,,,,2,,79,62
3696,note_on,,,,,102,0,2,,,,1,,70,127
3696,note_on,,,,,6,0,11,,,,12,,36,49
3717,note_off,,,,,21,0,7,,,,6,,79,0
3717,note_off,,,,,21,0,3,,,,2,,79,0
3717,note_off,,,,,21,0,8,,,,7,,79,0
3717,note_off,,,,,21,0,9,,,,8,,76,0
3717,note_off,,,,,21,0,4,,,,3,,76,0
3717,note_off,,,,,21,0,5,,,,4,,70,0
3717,note_off,,,,,21,0,13,,,,14,,70,0
3720,note_on,,,,,3,0,8,,,,7,,76,75
3720,note_on,,,,,3,0,7,,,,6,,76,75
3720,note_on,,,,,3,0,3,,,,2,,76,62
3720,note_on,,,,,3,0,9,,,,8,,72,75
3720,note_on,,,,,3,0,4,,,,3,,72,62
3720,note_on,,,,,3,0,13,,,,14,,67,75
3720,note_on,,,,,3,0,5,,,,4,,67,62
3738,note_off,,,,,42,0,12,,,,13,,67,0
3738,note_off,,,,,42,0,11,,,,12,,36,0
3738,note_off,,,,,0,0,12,,,,13,,76,0
3738,note_off,,,,,0,0,12,,,,13,,48,0
3738,note_off,,,,,42,0,10,,,,11,,48,0
3738,note_off,,,,,42,0,6,,,,5,,48,0
3738,note_off,,,,,42,0,1,,,,0,,60,0
3738,note_off,,,,,42,0,2,,,,1,,70,0
3741,note_off,,,,,21,0,5,,,,4,,67,0
3741,note_off,,,,,21,0,9,,,,8,,72,0
3741,note_off,,,,,21,0,13,,,,14,,67,0
3741,note_off,,,,,21,0,8,,,,7,,76,0
3741,note_off,,,,,21,0,7,,,,6,,76,0
3741,note_off,,,,,21,0,3,,,,2,,76,0
3741,note_off,,,,,21,0,4,,,,3,,72,0
3744,note_on,,,,,6,0,12,,,,13,,67,49
3744,note_on,,,,,3,0,7,,,,6,,82,75
3744,note_on,,,,,3,0,4,,,,3,,79,62
3744,note_on,,,,,0,0,12,,,,13,,52,49
3744,note_on,,,,,3,0,5,,,,4,,76,62
3744,note_on,,,,,3,0,3,,,,2,,82,62
3744,note_on,,,,,6,0,11,,,,12,,40,49
3744,note_on,,,,,0,0,12,,,,13,,72,49
3744,note_on,,,,,3,0,9,,,,8,,79,75
3744,note_on,,,,,3,0,8,,,,7,,82,75
3744,note_on,,,,,6,0,2,,,,1,,60,127
3744,note_on,,,,,6,0,10,,,,11,,52,49
3744,note_on,,,,,6,0,6,,,,5,,52,62
3744,note_on,,,,,3,0,13,,,,14,,76,75
3765,note_off,,,,,21,0,2,,,,1,,60,0
3765,note_off,,,,,21,0,9,,,,8,,79,0
3765,note_off,,,,,21,0,4,,,,3,,79,0
3765,note_off,,,,,21,0,8,,,,7,,82,0
3765,note_off,,,,,21,0,7,,,,6,,82,0
3765,note_off,,,,,21,0,3,,,,2,,82,0
3768,note_on,,,,,3,0,8,,,,7,,81,75
3768,note_on,,,,,3,0,9,,,,8,,77,75
3768,note_on,,,,,3,0,3,,,,2,,81,62
3768,note_on,,,,,3,0,7,,,,6,,81,75
3768,note_on,,,,,3,0,4,,,,3,,77,62
3768,note_on,,,,,3,0,2,,,,1,,60,127
3786,note_off,,,,,42,0,12,,,,13,,67,0
3786,note_off,,,,,0,0,12,,,,13,,72,0
3786,note_off,,,,,0,0,12,,,,13,,52,0
3786,note_off,,,,,42,0,5,,,,4,,76,0
3786,note_off,,,,,42,0,11,,,,12,,40,0
3786,note_off,,,,,42,0,13,,,,14,,76,0
3786,note_off,,,,,42,0,6,,,,5,,52,0
3786,note_off,,,,,42,0,10,,,,11,,52,0
3789,note_off,,,,,21,0,2,,,,1,,60,0
3789,note_off,,,,,21,0,9,,,,8,,77,0
3789,note_off,,,,,21,0,4,,,,3,,77,0
3789,note_off,,,,,21,0,7,,,,6,,81,0
3789,note_off,,,,,21,0,3,,,,2,,81,0
3789,note_off,,,,,21,0,8,,,,7,,81,0
3792,note_on,,,,,6,0,6,,,,5,,48,62
3792,note_on,,,,,0,0,12,,,,13,,48,49
3792,note_on,,,,,6,0,12,,,,13,,67,49
3792,note_on,,,,,0,0,12,,,,13,,76,49
3792,note_on,,,,,6,0,11,,,,12,,36,49
3792,note_on,,,,,6,0,13,,,,14,,76,75
3792,note_on,,,,,3,0,4,,,,3,,79,62
3792,note_on,,,,,3,0,7,,,,6,,82,75
3792,note_on,,,,,6,0,5,,,,4,,76,62
3792,note_on,,,,,6,0,10,,,,11,,48,49
3792,note_on,,,,,3,0,2,,,,1,,60,127
3792,note_on,,,,,3,0,8,,,,7,,82,75
3792,note_on,,,,,3,0,3,,,,2,,82,62
3792,note_on,,,,,3,0,9,,,,8,,79,75
3813,note_off,,,,,21,0,7,,,,6,,82,0
3813,note_off,,,,,21,0,2,,,,1,,60,0
3813,note_off,,,,,21,0,3,,,,2,,82,0
3813,note_off,,,,,21,0,8,,,,7,,82,0
3813,note_off,,,,,21,0,4,,,,3,,79,0
3813,note_off,,,,,21,0,9,,,,8,,79,0
3816,note_on,,,,,3,0,7,,,,6,,79,75
3816,note_on,,,,,3,0,8,,,,7,,79,75
3816,note_on,,,,,3,0,3,,,,2,,79,62
3816,note_on,,,,,3,0,2,,,,1,,60,127
3816,note_on,,,,,3,0,4,,,,3,,76,62
3816,note_on,,,,,3,0,9,,,,8,,76,75
3834,note_off,,,,,0,0,12,,,,13,,48,0
3834,note_off,,,,,0,0,12,,,,13,,76,0
3834,note_off,,,,,42,0,12,,,,13,,67,0
3834,note_off,,,,,42,0,10,,,,11,,48,0
3834,note_off,,,,,42,0,11,,,,12,,36,0
3834,note_off,,,,,42,0,6,,,,5,,48,0
3834,note_off,,,,,42,0,5,,,,4,,76,0
3834,note_off,,,,,42,0,13,,,,14,,76,0
3837,note_off,,,,,21,0,7,,,,6,,79,0
3837,note_off,,,,,21,0,3,,,,2,,79,0
3837,note_off,,,,,21,0,9,,,,8,,76,0
3837,note_off,,,,,21,0,2,,,,1,,60,0
3837,note_off,,,,,21,0,8,,,,7,,79,0
3837,note_off,,,,,21,0,4,,,,3,,76,0
3840,note_on,,,,,6,0,11,,,,12,,41,49
3840,note_on,,,,,3,0,9,,,,8,,77,75
3840,note_on,,,,,3,0,7,,,,6,,81,75
3840,note_on,,,,,0,0,12,,,,13,,53,49
3840,note_on,,,,,0,0,12,,,,13,,69,49
3840,note_on,,,,,6,0,12,,,,13,,60,49
3840,note_on,,,,,6,0,10,,,,11,,53,49
3840,note_on,,,,,3,0,3,,,,2,,81,62
3840,note_on,,,,,3,0,8,,,,7,,81,75
3840,note_on,,,,,102,0,1,,,,0,,69,127
3840,note_on,,,,,6,0,13,,,,14,,72,75
3840,note_on,,,,,6,0,6,,,,5,,53,62
3840,note_on,,,,,6,0,5,,,,4,,72,62
3840,note_on,,,,,3,0,2,,,,1,,65,127
3840,note_on,,,,,3,0,4,,,,3,,77,62
3861,note_off,,,,,21,0,10,,,,11,,53,0
3861,note_off,,,,,21,0,12,,,,13,,53,0
3861,note_off,,,,,21,0,3,,,,2,,81,0
3861,note_off,,,,,21,0,6,,,,5,,53,0
3861,note_off,,,,,21,0,8,,,,7,,81,0
3861,note_off,,,,,21,0,1,,,,0,,69,0
3861,note_off,,,,,21,0,11,,,,12,,41,0
3861,note_off,,,,,21,0,2,,,,1,,65,0
3861,note_off,,,,,21,0,7,,,,6,,81,0
3864,note_on,,,,,3,0,8,,,,7,,79,75
3864,note_on,,,,,3,0,10,,,,11,,52,49
3864,note_on,,,,,3,0,3,,,,2,,79,62
3864,note_on,,,,,3,0,12,,,,13,,52,49
3864,note_on,,,,,3,0,1,,,,0,,70,127
3864,note_on,,,,,3,0,6,,,,5,,52,62
3864,note_on,,,,,3,0,2,,,,1,,67,127
3864,note_on,,,,,3,0,7,,,,6,,79,75
3864,note_on,,,,,3,0,11,,,,12,,40,49
3882,note_off,,,,,42,0,9,,,,8,,77,0
3882,note_off,,,,,0,0,12,,,,13,,69,0
3882,note_off,,,,,18,0,12,,,,13,,60,0
3882,note_off,,,,,42,0,13,,,,14,,72,0
3882,note_off,,,,,42,0,5,,,,4,,72,0
3882,note_off,,,,,42,0,4,,,,3,,77,0
3885,note_off,,,,,21,0,2,,,,1,,67,0
3885,note_off,,,,,21,0,8,,,,7,,79,0
3885,note_off,,,,,21,0,10,,,,11,,52,0
3885,note_off,,,,,21,0,7,,,,6,,79,0
3885,note_off,,,,,21,0,1,,,,0,,70,0
3885,note_off,,,,,21,0,6,,,,5,,52,0
3885,note_off,,,,,21,0,11,,,,12,,40,0
3885,note_off,,,,,21,0,3,,,,2,,79,0
3885,note_off,,,,,3,0,12,,,,13,,52,0
3888,note_on,,,,,3,0,6,,,,5,,53,62
3888,note_on,,,,,3,0,11,,,,12,,41,49
3888,note_on,,,,,3,0,3,,,,2,,81,62
3888,note_on,,,,,3,0,2,,,,1,,65,127
3888,note_on,,,,,3,0,7,,,,6,,81,75
3888,note_on,,,,,6,0,9,,,,8,,72,75
3888,note_on,,,,,3,0,8,,,,7,,81,75
3888,note_on,,,,,3,0,12,,,,13,,60,49
3888,note_on,,,,,0,0,12,,,,13,,69,49
3888,note_on,,,,,0,0,12,,,,13,,53,49
3888,note_on,,,,,3,0,1,,,,0,,69,127
3888,note_on,,,,,3,0,10,,,,11,,53,49
3888,note_on,,,,,6,0,13,,,,14,,69,75
3888,note_on,,,,,6,0,4,,,,3,,72,62
3888,note_on,,,,,6,0,5,,,,4,,69,62
3909,note_off,,,,,21,0,11,,,,12,,41,0
3909,note_off,,,,,21,0,10,,,,11,,53,0
3909,note_off,,,,,21,0,6,,,,5,,53,0
3909,note_off,,,,,21,0,3,,,,2,,81,0
3909,note_off,,,,,21,0,7,,,,6,,81,0
3909,note_off,,,,,21,0,12,,,,13,,53,0
3909,note_off,,,,,21,0,2,,,,1,,65,0
3909,note_off,,,,,21,0,1,,,,0,,69,0
3909,note_off,,,,,21,0,8,,,,7,,81,0
3912,note_on,,,,,3,0,2,,,,1,,67,127
3912,note_on,,,,,3,0,10,,,,11,,52,49
3912,note_on,,,,,3,0,1,,,,0,,70,127
3912,note_on,,,,,3,0,7,,,,6,,76,75
3912,note_on,,,,,3,0,3,,,,2,,76,62
3912,note_on,,,,,3,0,12,,,,13,,52,49
3912,note_on,,,,,3,0,11,,,,12,,40,49
3912,note_on,,,,,3,0,8,,,,7,,76,75
3912,note_on,,,,,3,0,6,,,,5,,52,62
3930,note_off,,,,,18,0,12,,,,13,,60,0
3930,note_off,,,,,0,0,12,,,,13,,69,0
3930,note_off,,,,,42,0,13,,,,14,,69,0
3930,note_off,,,,,42,0,5,,,,4,,69,0
3930,note_off,,,,,42,0,9,,,,8,,72,0
3930,note_off,,,,,42,0,4,,,,3,,72,0
3933,note_off,,,,,21,0,1,,,,0,,70,0
3933,note_off,,,,,21,0,11,,,,12,,40,0
3933,note_off,,,,,21,0,3,,,,2,,76,0
3933,note_off,,,,,21,0,7,,,,6,,76,0
3933,note_off,,,,,21,0,8,,,,7,,76,0
3933,note_off,,,,,21,0,6,,,,5,,52,0
3933,note_off,,,,,3,0,12,,,,13,,52,0
3933,note_off,,,,,21,0,10,,,,11,,52,0
3933,note_off,,,,,21,0,2,,,,1,,67,0
3936,note_on,,,,,0,0,12,,,,13,,69,49
3936,note_on,,,,,3,0,6,,,,5,,50,62
3936,note_on,,,,,6,0,4,,,,3,,74,62
3936,note_on,,,,,0,0,12,,,,13,,50,49
3936,note_on,,,,,3,0,12,,,,13,,65,49
3936,note_on,,,,,3,0,3,,,,2,,77,62
3936,note_on,,,,,3,0,2,,,,1,,69,127
3936,note_on,,,,,3,0,11,,,,12,,38,49
3936,note_on,,,,,3,0,7,,,,6,,77,75
3936,note_on,,,,,3,0,1,,,,0,,72,127
3936,note_on,,,,,6,0,9,,,,8,,74,75
3936,note_on,,,,,3,0,10,,,,11,,50,49
3936,note_on,,,,,3,0,8,,,,7,,77,75
3936,note_on,,,,,6,0,13,,,,14,,69,75
3936,note_on,,,,,6,0,5,,,,4,,69,62
3957,note_off,,,,,21,0,7,,,,6,,77,0
3957,note_off,,,,,21,0,3,,,,2,,77,0
3957,note_off,,,,,21,0,8,,,,7,,77,0
3957,note_off,,,,,21,0,2,,,,1,,69,0
3957,note_off,,,,,21,0,1,,,,0,,72,0
3960,note_on,,,,,3,0,1,,,,0,,70,127
3960,note_on,,,,,3,0,7,,,,6,,76,75
3960,note_on,,,,,3,0,8,,,,7,,76,75
3960,note_on,,,,,3,0,2,,,,1,,67,127
3960,note_on,,,,,3,0,3,,,,2,,76,62
3978,note_off,,,,,42,0,12,,,,13,,65,0
3978,note_off,,,,,0,0,12,,,,13,,69,0
3981,note_off,,,,,21,0,1,,,,0,,70,0
3981,note_off,,,,,21,0,8,,,,7,,76,0
3981,note_off,,,,,21,0,7,,,,6,,76,0
3981,note_off,,,,,21,0,2,,,,1,,67,0
3981,note_off,,,,,21,0,3,,,,2,,76,0
3984,note_on,,,,,3,0,3,,,,2,,77,62
3984,note_on,,,,,6,0,12,,,,13,,57,49
3984,note_on,,,,,3,0,2,,,,1,,65,127
3984,note_on,,,,,3,0,8,,,,7,,77,75
3984,note_on,,,,,3,0,7,,,,6,,77,75
3984,note_on,,,,,3,0,1,,,,0,,69,127
3984,note_on,,,,,0,0,12,,,,13,,65,49
4005,note_off,,,,,69,0,11,,,,12,,38,0
4005,note_off,,,,,21,0,7,,,,6,,77,0
4005,note_off,,,,,21,0,8,,,,7,,77,0
4005,note_off,,,,,69,0,10,,,,11,,50,0
4005,note_off,,,,,69,0,9,,,,8,,74,0
4005,note_off,,,,,21,0,12,,,,13,,50,0
4005,note_off,,,,,21,0,3,,,,2,,77,0
4005,note_off,,,,,69,0,6,,,,5,,50,0
4005,note_off,,,,,69,0,5,,,,4,,69,0
4005,note_off,,,,,69,0,4,,,,3,,74,0
4005,note_off,,,,,69,0,13,,,,14,,69,0
4008,note_on,,,,,3,0,8,,,,7,,79,75
4008,note_on,,,,,3,0,11,,,,12,,34,49
4008,note_on,,,,,3,0,3,,,,2,,79,62
4008,note_on,,,,,3,0,5,,,,4,,74,62
4008,note_on,,,,,3,0,6,,,,5,,46,62
4008,note_on,,,,,3,0,12,,,,13,,46,49
4008,note_on,,,,,3,0,10,,,,11,,46,49
4008,note_on,,,,,3,0,7,,,,6,,79,75
4008,note_on,,,,,3,0,4,,,,3,,77,62
4008,note_on,,,,,3,0,9,,,,8,,77,75
4008,note_on,,,,,3,0,13,,,,14,,74,75
4026,note_off,,,,,42,0,2,,,,1,,65,0
4026,note_off,,,,,18,0,12,,,,13,,57,0
4026,note_off,,,,,0,0,12,,,,13,,65,0
4026,note_off,,,,,42,0,1,,,,0,,69,0
4029,note_off,,,,,21,0,13,,,,14,,74,0
4029,note_off,,,,,21,0,7,,,,6,,79,0
4029,note_off,,,,,21,0,3,,,,2,,79,0
4029,note_off,,,,,3,0,12,,,,13,,46,0
4029,note_off,,,,,21,0,6,,,,5,,46,0
4029,note_off,,,,,21,0,5,,,,4,,74,0
4029,note_off,,,,,21,0,8,,,,7,,79,0
4029,note_off,,,,,21,0,10,,,,11,,46,0
4029,note_off,,,,,21,0,9,,,,8,,77,0
4029,note_off,,,,,21,0,11,,,,12,,34,0
4029,note_off,,,,,21,0,4,,,,3,,77,0
4032,note_on,,,,,0,0,12,,,,13,,48,49
4032,note_on,,,,,3,0,8,,,,7,,79,75
4032,note_on,,,,,0,0,12,,,,13,,67,49
4032,note_on,,,,,3,0,12,,,,13,,64,49
4032,note_on,,,,,3,0,10,,,,11,,48,49
4032,note_on,,,,,3,0,13,,,,14,,72,75
4032,note_on,,,,,3,0,6,,,,5,,48,62
4032,note_on,,,,,6,0,1,,,,0,,67,127
4032,note_on,,,,,6,0,2,,,,1,,60,127
4032,note_on,,,,,3,0,5,,,,4,,72,62
4032,note_on,,,,,3,0,7,,,,6,,79,75
4032,note_on,,,,,3,0,11,,,,12,,36,49
4032,note_on,,,,,3,0,3,,,,2,,79,62
4032,note_on,,,,,3,0,4,,,,3,,76,62
4032,note_on,,,,,3,0,9,,,,8,,76,75
4053,note_off,,,,,21,0,2,,,,1,,60,0
4053,note_off,,,,,21,0,1,,,,0,,67,0
4056,note_on,,,,,3,0,2,,,,1,,60,127
4056,note_on,,,,,3,0,1,,,,0,,65,127
4074,note_off,,,,,0,0,12,,,,13,,48,0
4074,note_off,,,,,42,0,13,,,,14,,72,0
4074,note_off,,,,,42,0,10,,,,11,,48,0
4074,note_off,,,,,0,0,12,,,,13,,67,0
4074,note_off,,,,,42,0,12,,,,13,,64,0
4074,note_off,,,,,42,0,5,,,,4,,72,0
4074,note_off,,,,,42,0,11,,,,12,,36,0
4074,note_off,,,,,42,0,6,,,,5,,48,0
4077,note_off,,,,,21,0,1,,,,0,,65,0
4077,note_off,,,,,21,0,2,,,,1,,60,0
4080,note_on,,,,,6,0,5,,,,4,,70,62
4080,note_on,,,,,3,0,1,,,,0,,67,127
4080,note_on,,,,,6,0,11,,,,12,,24,49
4080,note_on,,,,,3,0,2,,,,1,,60,127
4080,note_on,,,,,6,0,6,,,,5,,36,62
4080,note_on,,,,,0,0,12,,,,13,,76,49
4080,note_on,,,,,0,0,12,,,,13,,36,49
4080,note_on,,,,,6,0,13,,,,14,,70,75
4080,note_on,,,,,6,0,12,,,,13,,67,49
4080,note_on,,,,,6,0,10,,,,11,,36,49
4095,note_off,,,,,63,0,3,,,,2,,79,0
4095,note_off,,,,,63,0,7,,,,6,,79,0
4095,note_off,,,,,63,0,4,,,,3,,76,0
4095,note_off,,,,,63,0,8,,,,7,,79,0
4095,note_off,,,,,63,0,9,,,,8,,76,0
4101,note_off,,,,,21,0,2,,,,1,,60,0
4101,note_off,,,,,21,0,1,,,,0,,67,0
4104,note_on,,,,,3,0,1,,,,0,,69,127
4104,note_on,,,,,9,0,9,,,,8,,77,75
4104,note_on,,,,,9,0,8,,,,7,,77,75
4104,note_on,,,,,9,0,7,,,,6,,77,75
4104,note_on,,,,,9,0,3,,,,2,,77,62
4104,note_on,,,,,3,0,2,,,,1,,60,127
4104,note_on,,,,,9,0,4,,,,3,,77,62
4122,note_off,,,,,0,0,12,,,,13,,76,0
4122,note_off,,,,,0,0,12,,,,13,,36,0
4122,note_off,,,,,42,0,12,,,,13,,67,0
4122,note_off,,,,,42,0,10,,,,11,,36,0
4122,note_off,,,,,42,0,6,,,,5,,36,0
4122,note_off,,,,,42,0,11,,,,12,,24,0
4122,note_off,,,,,42,0,5,,,,4,,70,0
4122,note_off,,,,,42,0,13,,,,14,,70,0
4125,note_off,,,,,21,0,1,,,,0,,69,0
4125,note_off,,,,,21,0,7,,,,6,,77,0
4125,note_off,,,,,21,0,4,,,,3,,77,0
4125,note_off,,,,,21,0,3,,,,2,,77,0
4125,note_off,,,,,21,0,8,,,,7,,77,0
4125,note_off,,,,,21,0,9,,,,8,,77,0
4125,note_off,,,,,21,0,2,,,,1,,60,0
4128,note_on,,,,,3,0,7,,,,6,,77,75
4128,note_on,,,,,3,0,3,,,,2,,77,62
4128,note_on,,,,,3,0,4,,,,3,,77,62
4128,note_on,,,,,0,0,12,,,,13,,41,49
4128,note_on,,,,,3,0,2,,,,1,,57,127
4128,note_on,,,,,6,0,12,,,,13,,60,49
4128,note_on,,,,,3,0,9,,,,8,,77,75
4128,note_on,,,,,6,0,13,,,,14,,69,75
4128,note_on,,,,,6,0,5,,,,4,,69,62
4128,note_on,,,,,6,0,6,,,,5,,41,62
4128,note_on,,,,,3,0,1,,,,0,,65,127
4128,note_on,,,,,6,0,11,,,,12,,29,49
4128,note_on,,,,,3,0,8,,,,7,,77,75
4128,note_on,,,,,6,0,10,,,,11,,41,49
4128,note_on,,,,,0,0,12,,,,13,,69,49
4149,note_off,,,,,21,0,3,,,,2,,77,0
4149,note_off,,,,,21,0,8,,,,7,,77,0
4149,note_off,,,,,21,0,1,,,,0,,65,0
4149,note_off,,,,,21,0,7,,,,6,,77,0
4152,note_on,,,,,3,0,7,,,,6,,76,75
4152,note_on,,,,,3,0,1,,,,0,,67,127
4152,note_on,,,,,3,0,8,,,,7,,76,75
4152,note_on,,,,,3,0,3,,,,2,,76,62
4170,note_off,,,,,42,0,6,,,,5,,41,0
4170,note_off,,,,,42,0,11,,,,12,,29,0
4170,note_off,,,,,42,0,13,,,,14,,69,0
4170,note_off,,,,,42,0,4,,,,3,,77,0
4170,note_off,,,,,0,0,12,,,,13,,41,0
4170,note_off,,,,,0,0,12,,,,13,,69,0
4170,note_off,,,,,42,0,5,,,,4,,69,0
4170,note_off,,,,,42,0,12,,,,13,,60,0
4170,note_off,,,,,42,0,2,,,,1,,57,0
4170,note_off,,,,,42,0,10,,,,11,,41,0
4170,note_off,,,,,42,0,9,,,,8,,77,0
4173,note_off,,,,,21,0,8,,,,7,,76,0
4173,note_off,,,,,21,0,7,,,,6,,76,0
4173,note_off,,,,,21,0,1,,,,0,,67,0
4173,note_off,,,,,21,0,3,,,,2,,76,0
4176,note_on,,,,,0,0,12,,,,13,,72,49
4176,note_on,,,,,3,0,8,,,,7,,77,75
4176,note_on,,,,,3,0,1,,,,0,,65,127
4176,note_on,,,,,6,0,6,,,,5,,45,62
4176,note_on,,,,,6,0,4,,,,3,,72,62
4176,note_on,,,,,3,0,7,,,,6,,77,75
4176,note_on,,,,,6,0,12,,,,13,,65,49
4176,note_on,,,,,6,0,5,,,,4,,65,62
4176,note_on,,,,,6,0,11,,,,12,,33,49
4176,note_on,,,,,0,0,12,,,,13,,45,49
4176,note_on,,,,,6,0,10,,,,11,,45,49
4176,note_on,,,,,6,0,13,,,,14,,65,75
4176,note_on,,,,,6,0,9,,,,8,,72,75
4176,note_on,,,,,3,0,3,,,,2,,77,62
4176,note_on,,,,,6,0,2,,,,1,,57,127
4197,note_off,,,,,21,0,3,,,,2,,77,0
4197,note_off,,,,,21,0,1,,,,0,,65,0
4197,note_off,,,,,21,0,7,,,,6,,77,0
4197,note_off,,,,,21,0,8,,,,7,,77,0
4197,note_off,,,,,21,0,2,,,,1,,57,0
4200,note_on,,,,,3,0,3,,,,2,,72,62
4200,note_on,,,,,3,0,1,,,,0,,67,127
4200,note_on,,,,,3,0,2,,,,1,,57,127
4200,note_on,,,,,3,0,8,,,,7,,72,75
4200,note_on,,,,,3,0,7,,,,6,,72,75
4218,note_off,,,,,42,0,9,,,,8,,72,0
4218,note_off,,,,,0,0,12,,,,13,,72,0
4218,note_off,,,,,42,0,13,,,,14,,65,0
4218,note_off,,,,,42,0,10,,,,11,,45,0
4218,note_off,,,,,42,0,4,,,,3,,72,0
4218,note_off,,,,,42,0,6,,,,5,,45,0
4218,note_off,,,,,0,0,12,,,,13,,45,0
4218,note_off,,,,,42,0,5,,,,4,,65,0
4218,note_off,,,,,42,0,12,,,,13,,65,0
4218,note_off,,,,,42,0,11,,,,12,,33,0
4221,note_off,,,,,21,0,7,,,,6,,72,0
4221,note_off,,,,,21,0,8,,,,7,,72,0
4221,note_off,,,,,21,0,1,,,,0,,67,0
4221,note_off,,,,,21,0,3,,,,2,,72,0
4221,note_off,,,,,21,0,2,,,,1,,57,0
4224,note_on,,,,,6,0,10,,,,11,,41,49
4224,note_on,,,,,6,0,6,,,,5,,41,62
4224,note_on,,,,,6,0,12,,,,13,,60,49
4224,note_on,,,,,0,0,12,,,,13,,69,49
4224,note_on,,,,,3,0,2,,,,1,,57,127
4224,note_on,,,,,3,0,7,,,,6,,74,75
4224,note_on,,,,,0,0,12,,,,13,,41,49
4224,note_on,,,,,3,0,3,,,,2,,74,62
4224,note_on,,,,,6,0,5,,,,4,,65,62
4224,note_on,,,,,6,0,13,,,,14,,65,75
4224,note_on,,,,,3,0,1,,,,0,,69,127
4224,note_on,,,,,6,0,9,,,,8,,69,75
4224,note_on,,,,,6,0,4,,,,3,,69,62
4224,note_on,,,,,3,0,8,,,,7,,74,75
4224,note_on,,,,,6,0,11,,,,12,,29,49
4245,note_off,,,,,21,0,7,,,,6,,74,0
4245,note_off,,,,,21,0,3,,,,2,,74,0
4245,note_off,,,,,21,0,1,,,,0,,69,0
4245,note_off,,,,,21,0,2,,,,1,,57,0
4245,note_off,,,,,21,0,8,,,,7,,74,0
4248,note_on,,,,,3,0,1,,,,0,,67,127
4248,note_on,,,,,3,0,2,,,,1,,57,127
4248,note_on,,,,,3,0,7,,,,6,,72,75
4248,note_on,,,,,3,0,3,,,,2,,72,62
4248,note_on,,,,,3,0,8,,,,7,,72,75
4266,note_off,,,,,42,0,13,,,,14,,65,0
4266,note_off,,,,,42,0,5,,,,4,,65,0
4266,note_off,,,,,0,0,12,,,,13,,41,0
4266,note_off,,,,,0,0,12,,,,13,,69,0
4266,note_off,,,,,42,0,11,,,,12,,29,0
4266,note_off,,,,,42,0,9,,,,8,,69,0
4266,note_off,,,,,42,0,4,,,,3,,69,0
4266,note_off,,,,,42,0,6,,,,5,,41,0
4266,note_off,,,,,42,0,12,,,,13,,60,0
4266,note_off,,,,,42,0,10,,,,11,,41,0
4269,note_off,,,,,21,0,7,,,,6,,72,0
4269,note_off,,,,,21,0,8,,,,7,,72,0
4269,note_off,,,,,21,0,2,,,,1,,57,0
4269,note_off,,,,,21,0,3,,,,2,,72,0
4269,note_off,,,,,21,0,1,,,,0,,67,0
4272,note_on,,,,,0,0,12,,,,13,,38,49
4272,note_on,,,,,0,0,12,,,,13,,69,49
4272,note_on,,,,,3,0,1,,,,0,,65,127
4272,note_on,,,,,6,0,12,,,,13,,65,49
4272,note_on,,,,,3,0,8,,,,7,,74,75
4272,note_on,,,,,6,0,9,,,,8,,69,75
4272,note_on,,,,,6,0,13,,,,14,,65,75
4272,note_on,,,,,3,0,7,,,,6,,74,75
4272,note_on,,,,,6,0,6,,,,5,,38,62
4272,note_on,,,,,6,0,10,,,,11,,38,49
4272,note_on,,,,,6,0,4,,,,3,,69,62
4272,note_on,,,,,3,0,2,,,,1,,57,127
4272,note_on,,,,,6,0,11,,,,12,,26,49
4272,note_on,,,,,6,0,5,,,,4,,65,62
4272,note_on,,,,,3,0,3,,,,2,,74,62
4293,note_off,,,,,21,0,7,,,,6,,74,0
4293,note_off,,,,,21,0,8,,,,7,,74,0
4293,note_off,,,,,21,0,3,,,,2,,74,0
4296,note_on,,,,,3,0,7,,,,6,,69,75
4296,note_on,,,,,3,0,3,,,,2,,69,62
4296,note_on,,,,,3,0,8,,,,7,,69,75
4314,note_off,,,,,42,0,5,,,,4,,65,0
4314,note_off,,,,,42,0,2,,,,1,,57,0
4314,note_off,,,,,42,0,9,,,,8,,69,0
4314,note_off,,,,,42,0,12,,,,13,,65,0
4314,note_off,,,,,0,0,12,,,,13,,69,0
4314,note_off,,,,,42,0,1,,,,0,,65,0
4314,note_off,,,,,42,0,11,,,,12,,26,0
4314,note_off,,,,,42,0,10,,,,11,,38,0
4314,note_off,,,,,42,0,4,,,,3,,69,0
4314,note_off,,,,,42,0,6,,,,5,,38,0
4314,note_off,,,,,42,0,13,,,,14,,65,0
4314,note_off,,,,,0,0,12,,,,13,,38,0
4317,note_off,,,,,21,0,8,,,,7,,69,0
4317,note_off,,,,,21,0,3,,,,2,,69,0
4317,note_off,,,,,21,0,7,,,,6,,69,0
4320,note_on,,,,,3,0,8,,,,7,,70,75
4320,note_on,,,,,6,0,4,,,,3,,67,62
4320,note_on,,,,,6,0,9,,,,8,,67,75
4320,note_on,,,,,6,0,10,,,,11,,43,49
4320,note_on,,,,,6,0,11,,,,12,,31,49
4320,note_on,,,,,6,0,13,,,,14,,62,75
4320,note_on,,,,,0,0,12,,,,13,,43,49
4320,note_on,,,,,3,0,3,,,,2,,70,62
4320,note_on,,,,,3,0,7,,,,6,,70,75
4320,note_on,,,,,6,0,6,,,,5,,43,62
4320,note_on,,,,,6,0,5,,,,4,,62,62
4320,note_on,,,,,6,0,12,,,,13,,62,49
4320,note_on,,,,,0,0,12,,,,13,,70,49
4341,note_off,,,,,21,0,3,,,,2,,70,0
4341,note_off,,,,,21,0,7,,,,6,,70,0
4341,note_off,,,,,21,0,8,,,,7,,70,0
4344,note_on,,,,,3,0,8,,,,7,,69,75
4344,note_on,,,,,3,0,3,,,,2,,69,62
4344,note_on,,,,,3,0,7,,,,6,,69,75
4362,note_off,,,,,42,0,12,,,,13,,62,0
4362,note_off,,,,,0,0,12,,,,13,,70,0
4362,note_off,,,,,0,0,12,,,,13,,43,0
4362,note_off,,,,,42,0,6,,,,5,,43,0
4362,note_off,,,,,42,0,11,,,,12,,31,0
4362,note_off,,,,,42,0,10,,,,11,,43,0
4362,note_off,,,,,42,0,4,,,,3,,67,0
4362,note_off,,,,,42,0,9,,,,8,,67,0
4362,note_off,,,,,42,0,13,,,,14,,62,0
4362,note_off,,,,,42,0,5,,,,4,,62,0
4365,note_off,,,,,21,0,7,,,,6,,69,0
4365,note_off,,,,,21,0,3,,,,2,,69,0
4365,note_off,,,,,21,0,8,,,,7,,69,0
4368,note_on,,,,,3,0,8,,,,7,,70,75
4368,note_on,,,,,6,0,10,,,,11,,36,49
4368,note_on,,,,,3,0,3,,,,2,,70,62
4368,note_on,,,,,6,0,13,,,,14,,60,75
4368,note_on,,,,,6,0,6,,,,5,,36,62
4368,note_on,,,,,6,0,5,,,,4,,60,62
4368,note_on,,,,,6,0,4,,,,3,,64,62
4368,note_on,,,,,3,0,7,,,,6,,70,75
4368,note_on,,,,,6,0,9,,,,8,,64,75
4368,note_on,,,,,0,0,12,,,,13,,36,49
4368,note_on,,,,,6,0,11,,,,12,,24,49
4368,note_on,,,,,6,0,12,,,,13,,64,49
4368,note_on,,,,,0,0,12,,,,13,,67,49
4389,note_off,,,,,21,0,7,,,,6,,70,0
4389,note_off,,,,,21,0,8,,,,7,,70,0
4389,note_off,,,,,21,0,3,,,,2,,70,0
4392,note_on,,,,,3,0,8,,,,7,,67,75
4392,note_on,,,,,3,0,3,,,,2,,67,62
4392,note_on,,,,,3,0,7,,,,6,,67,75
4410,note_off,,,,,42,0,6,,,,5,,36,0
4410,note_off,,,,,42,0,4,,,,3,,64,0
4410,note_off,,,,,42,0,5,,,,4,,60,0
4410,note_off,,,,,42,0,10,,,,11,,36,0
4410,note_off,,,,,0,0,12,,,,13,,36,0
4410,note_off,,,,,0,0,12,,,,13,,67,0
4410,note_off,,,,,42,0,12,,,,13,,64,0
4410,note_off,,,,,42,0,9,,,,8,,64,0
4410,note_off,,,,,42,0,11,,,,12,,24,0
4410,note_off,,,,,42,0,13,,,,14,,60,0
4413,note_off,,,,,21,0,7,,,,6,,67,0
4413,note_off,,,,,21,0,3,,,,2,,67,0
4413,note_off,,,,,21,0,8,,,,7,,67,0
4416,note_on,,,,,6,0,5,,,,4,,60,62
4416,note_on,,,,,6,0,13,,,,14,,60,75
4416,note_on,,,,,6,0,11,,,,12,,29,49
4416,note_on,,,,,3,0,8,,,,7,,69,75
4416,note_on,,,,,3,0,3,,,,2,,69,62
4416,note_on,,,,,6,0,6,,,,5,,41,62
4416,note_on,,,,,6,0,9,,,,8,,65,75
4416,note_on,,,,,6,0,12,,,,13,,60,49
4416,note_on,,,,,6,0,4,,,,3,,65,62
4416,note_on,,,,,102,0,2,,,,1,,57,127
4416,note_on,,,,,6,0,10,,,,11,,41,49
4416,note_on,,,,,3,0,7,,,,6,,69,75
4416,note_on,,,,,102,0,1,,,,0,,65,127
4416,note_on,,,,,0,0,12,,,,13,,69,49
4416,note_on,,,,,0,0,12,,,,13,,41,49
4437,note_off,,,,,21,0,1,,,,0,,65,0
4437,note_off,,,,,21,0,3,,,,2,,69,0
4437,note_off,,,,,21,0,7,,,,6,,69,0
4437,note_off,,,,,21,0,8,,,,7,,69,0
4440,note_on,,,,,3,0,1,,,,0,,67,127
4440,note_on,,,,,3,0,7,,,,6,,67,75
4440,note_on,,,,,3,0,3,,,,2,,67,62
4440,note_on,,,,,3,0,8,,,,7,,67,75
4458,note_off,,,,,42,0,11,,,,12,,29,0
4458,note_off,,,,,0,0,12,,,,13,,69,0
4458,note_off,,,,,0,0,12,,,,13,,41,0
4458,note_off,,,,,42,0,12,,,,13,,60,0
4458,note_off,,,,,42,0,2,,,,1,,57,0
4458,note_off,,,,,42,0,6,,,,5,,41,0
4458,note_off,,,,,42,0,10,,,,11,,41,0
4461,note_off,,,,,21,0,7,,,,6,,67,0
4461,note_off,,,,,21,0,3,,,,2,,67,0
4461,note_off,,,,,21,0,1,,,,0,,67,0
4461,note_off,,,,,21,0,8,,,,7,,67,0
4464,note_on,,,,,3,0,1,,,,0,,65,127
4464,note_on,,,,,3,0,7,,,,6,,69,75
4464,note_on,,,,,6,0,12,,,,13,,64,49
4464,note_on,,,,,6,0,10,,,,11,,45,49
4464,note_on,,,,,0,0,12,,,,13,,45,49
4464,note_on,,,,,0,0,12,,,,13,,72,49
4464,note_on,,,,,3,0,8,,,,7,,69,75
4464,note_on,,,,,6,0,2,,,,1,,57,127
4464,note_on,,,,,6,0,11,,,,12,,33,49
4464,note_on,,,,,6,0,6,,,,5,,45,62
4464,note_on,,,,,3,0,3,,,,2,,69,62
4479,note_off,,,,,63,0,5,,,,4,,60,0
4479,note_off,,,,,63,0,4,,,,3,,65,0
4479,note_off,,,,,63,0,9,,,,8,,65,0
4479,note_off,,,,,63,0,13,,,,14,,60,0
4485,note_off,,,,,21,0,1,,,,0,,65,0
4485,note_off,,,,,21,0,3,,,,2,,69,0
4485,note_off,,,,,21,0,8,,,,7,,69,0
4485,note_off,,,,,21,0,2,,,,1,,57,0
4485,note_off,,,,,21,0,7,,,,6,,69,0
4488,note_on,,,,,3,0,2,,,,1,,57,127
4488,note_on,,,,,3,0,7,,,,6,,64,75
4488,note_on,,,,,3,0,8,,,,7,,64,75
4488,note_on,,,,,9,0,9,,,,8,,64,75
4488,note_on,,,,,9,0,4,,,,3,,64,62
4488,note_on,,,,,3,0,3,,,,2,,64,62
4488,note_on,,,,,9,0,13,,,,14,,58,75
4488,note_on,,,,,9,0,5,,,,4,,60,62
4488,note_on,,,,,3,0,1,,,,0,,67,127
4506,note_off,,,,,42,0,12,,,,13,,64,0
4506,note_off,,,,,0,0,12,,,,13,,72,0
4506,note_off,,,,,0,0,12,,,,13,,45,0
4506,note_off,,,,,42,0,6,,,,5,,45,0
4506,note_off,,,,,42,0,11,,,,12,,33,0
4506,note_off,,,,,42,0,10,,,,11,,45,0
4509,note_off,,,,,21,0,7,,,,6,,64,0
4509,note_off,,,,,21,0,4,,,,3,,64,0
4509,note_off,,,,,21,0,3,,,,2,,64,0
4509,note_off,,,,,21,0,13,,,,14,,58,0
4509,note_off,,,,,21,0,9,,,,8,,64,0
4509,note_off,,,,,21,0,8,,,,7,,64,0
4509,note_off,,,,,21,0,5,,,,4,,60,0
4509,note_off,,,,,21,0,1,,,,0,,67,0
4509,note_off,,,,,21,0,2,,,,1,,57,0
4512,note_on,,,,,0,0,12,,,,13,,69,49
4512,note_on,,,,,6,0,6,,,,5,,50,62
4512,note_on,,,,,3,0,5,,,,4,,62,62
4512,note_on,,,,,3,0,3,,,,2,,65,62
4512,note_on,,,,,3,0,13,,,,14,,57,75
4512,note_on,,,,,3,0,1,,,,0,,69,127
4512,note_on,,,,,0,0,12,,,,13,,50,49
4512,note_on,,,,,6,0,12,,,,13,,65,49
4512,note_on,,,,,3,0,4,,,,3,,62,62
4512,note_on,,,,,3,0,7,,,,6,,65,75
4512,note_on,,,,,6,0,10,,,,11,,50,49
4512,note_on,,,,,3,0,8,,,,7,,65,75
4512,note_on,,,,,3,0,2,,,,1,,57,127
4512,note_on,,,,,6,0,11,,,,12,,38,49
4512,note_on,,,,,3,0,9,,,,8,,62,75
4533,note_off,,,,,21,0,8,,,,7,,65,0
4533,note_off,,,,,21,0,2,,,,1,,57,0
4533,note_off,,,,,21,0,1,,,,0,,69,0
4533,note_off,,,,,21,0,7,,,,6,,65,0
4533,note_off,,,,,21,0,3,,,,2,,65,0
4536,note_on,,,,,3,0,2,,,,1,,57,127
4536,note_on,,,,,3,0,7,,,,6,,64,75
4536,note_on,,,,,3,0,8,,,,7,,64,75
4536,note_on,,,,,3,0,1,,,,0,,67,127
4536,note_on,,,,,3,0,3,,,,2,,64,62
4554,note_off,,,,,42,0,12,,,,13,,65,0
4554,note_off,,,,,0,0,12,,,,13,,69,0
4557,note_off,,,,,21,0,8,,,,7,,64,0
4557,note_off,,,,,21,0,7,,,,6,,64,0
4557,note_off,,,,,21,0,2,,,,1,,57,0
4557,note_off,,,,,21,0,3,,,,2,,64,0
4557,note_off,,,,,21,0,1,,,,0,,67,0
4560,note_on,,,,,3,0,3,,,,2,,65,62
4560,note_on,,,,,3,0,1,,,,0,,65,127
4560,note_on,,,,,3,0,7,,,,6,,65,75
4560,note_on,,,,,3,0,8,,,,7,,65,75
4560,note_on,,,,,3,0,2,,,,1,,57,127
4560,note_on,,,,,0,0,12,,,,13,,69,49
4560,note_on,,,,,6,0,12,,,,13,,65,49
4581,note_off,,,,,69,0,6,,,,5,,50,0
4581,note_off,,,,,21,0,3,,,,2,,65,0
4581,note_off,,,,,69,0,5,,,,4,,62,0
4581,note_off,,,,,21,0,12,,,,13,,50,0
4581,note_off,,,,,21,0,8,,,,7,,65,0
4581,note_off,,,,,69,0,13,,,,14,,57,0
4581,note_off,,,,,69,0,4,,,,3,,62,0
4581,note_off,,,,,69,0,11,,,,12,,38,0
4581,note_off,,,,,21,0,7,,,,6,,65,0
4581,note_off,,,,,69,0,10,,,,11,,50,0
4581,note_off,,,,,69,0,9,,,,8,,62,0
4584,note_on,,,,,3,0,11,,,,12,,34,49
4584,note_on,,,,,3,0,8,,,,7,,67,75
4584,note_on,,,,,3,0,7,,,,6,,67,75
4584,note_on,,,,,3,0,9,,,,8,,65,75
4584,note_on,,,,,3,0,3,,,,2,,67,62
4584,note_on,,,,,3,0,4,,,,3,,65,62
4584,note_on,,,,,3,0,12,,,,13,,46,49
4584,note_on,,,,,3,0,13,,,,14,,62,75
4584,note_on,,,,,3,0,6,,,,5,,46,62
4584,note_on,,,,,3,0,10,,,,11,,46,49
4584,note_on,,,,,3,0,5,,,,4,,62,62
4602,note_off,,,,,42,0,2,,,,1,,57,0
4602,note_off,,,,,42,0,1,,,,0,,65,0
4602,note_off,,,,,18,0,12,,,,13,,65,0
4602,note_off,,,,,0,0,12,,,,13,,69,0
4605,note_off,,,,,21,0,11,,,,12,,34,0
4605,note_off,,,,,21,0,7,,,,6,,67,0
4605,note_off,,,,,21,0,8,,,,7,,67,0
4605,note_off,,,,,21,0,5,,,,4,,62,0
4605,note_off,,,,,21,0,6,,,,5,,46,0
4605,note_off,,,,,21,0,10,,,,11,,46,0
4605,note_off,,,,,21,0,13,,,,14,,62,0
4605,note_off,,,,,21,0,3,,,,2,,67,0
4605,note_off,,,,,3,0,12,,,,13,,46,0
4605,note_off,,,,,21,0,9,,,,8,,65,0
4605,note_off,,,,,21,0,4,,,,3,,65,0
4608,note_on,,,,,3,0,11,,,,12,,36,49
4608,note_on,,,,,3,0,9,,,,8,,64,75
4608,note_on,,,,,3,0,7,,,,6,,67,75
4608,note_on,,,,,6,0,2,,,,1,,57,127
4608,note_on,,,,,3,0,6,,,,5,,48,62
4608,note_on,,,,,3,0,4,,,,3,,64,62
4608,note_on,,,,,6,0,1,,,,0,,60,127
4608,note_on,,,,,3,0,12,,,,13,,67,49
4608,note_on,,,,,0,0,12,,,,13,,76,49
4608,note_on,,,,,3,0,3,,,,2,,67,62
4608,note_on,,,,,3,0,10,,,,11,,48,49
4608,note_on,,,,,3,0,5,,,,4,,60,62
4608,note_on,,,,,3,0,13,,,,14,,60,75
4608,note_on,,,,,0,0,12,,,,13,,48,49
4608,note_on,,,,,3,0,8,,,,7,,67,75
4629,note_off,,,,,21,0,1,,,,0,,60,0
4629,note_off,,,,,21,0,2,,,,1,,57,0
4632,note_on,,,,,3,0,2,,,,1,,57,127
4632,note_on,,,,,3,0,1,,,,0,,60,127
4650,note_off,,,,,42,0,10,,,,11,,48,0
4650,note_off,,,,,0,0,12,,,,13,,76,0
4650,note_off,,,,,0,0,12,,,,13,,48,0
4650,note_off,,,,,42,0,12,,,,13,,67,0
4650,note_off,,,,,42,0,6,,,,5,,48,0
4650,note_off,,,,,42,0,11,,,,12,,36,0
4653,note_off,,,,,21,0,2,,,,1,,57,0
4653,note_off,,,,,21,0,1,,,,0,,60,0
4656,note_on,,,,,3,0,2,,,,1,,57,127
4656,note_on,,,,,3,0,1,,,,0,,60,127
4656,note_on,,,,,6,0,11,,,,12,,24,49
4656,note_on,,,,,0,0,12,,,,13,,76,49
4656,note_on,,,,,6,0,12,,,,13,,67,49
4656,note_on,,,,,6,0,6,,,,5,,36,62
4656,note_on,,,,,6,0,10,,,,11,,36,49
4656,note_on,,,,,0,0,12,,,,13,,36,49
4671,note_off,,,,,63,0,8,,,,7,,67,0
4671,note_off,,,,,63,0,3,,,,2,,67,0
4671,note_off,,,,,63,0,5,,,,4,,60,0
4671,note_off,,,,,63,0,13,,,,14,,60,0
4671,note_off,,,,,63,0,9,,,,8,,64,0
4671,note_off,,,,,63,0,4,,,,3,,64,0
4671,note_off,,,,,63,0,7,,,,6,,67,0
4677,note_off,,,,,21,0,2,,,,1,,57,0
4677,note_off,,,,,21,0,1,,,,0,,60,0
4680,note_on,,,,,9,0,13,,,,14,,60,75
4680,note_on,,,,,9,0,3,,,,2,,65,62
4680,note_on,,,,,9,0,5,,,,4,,60,62
4680,note_on,,,,,9,0,9,,,,8,,65,75
4680,note_on,,,,,9,0,7,,,,6,,65,75
4680,note_on,,,,,9,0,4,,,,3,,65,62
4680,note_on,,,,,9,0,8,,,,7,,65,75
4680,note_on,,,,,3,0,1,,,,0,,60,127
4680,note_on,,,,,3,0,2,,,,1,,57,127
4698,note_off,,,,,0,0,12,,,,13,,36,0
4698,note_off,,,,,0,0,12,,,,13,,76,0
4698,note_off,,,,,42,0,10,,,,11,,36,0
4698,note_off,,,,,42,0,12,,,,13,,67,0
4698,note_off,,,,,42,0,11,,,,12,,24,0
4698,note_off,,,,,42,0,6,,,,5,,36,0
4701,note_off,,,,,21,0,4,,,,3,,65,0
4701,note_off,,,,,21,0,2,,,,1,,57,0
4701,note_off,,,,,21,0,5,,,,4,,60,0
4701,note_off,,,,,21,0,1,,,,0,,60,0
4701,note_off,,,,,21,0,7,,,,6,,65,0
4701,note_off,,,,,21,0,3,,,,2,,65,0
4701,note_off,,,,,21,0,9,,,,8,,65,0
4701,note_off,,,,,21,0,13,,,,14,,60,0
4701,note_off,,,,,21,0,8,,,,7,,65,0
4704,note_on,,,,,3,0,7,,,,6,,65,96
4704,note_on,,,,,3,0,1,,,,0,,57,127
4704,note_on,,,,,0,0,12,,,,13,,41,36
4704,note_on,,,,,0,0,12,,,,13,,72,36
4704,note_on,,,,,3,0,5,,,,4,,60,62
4704,note_on,,,,,3,0,9,,,,8,,65,75
4704,note_on,,,,,3,0,4,,,,3,,65,62
4704,note_on,,,,,3,0,13,,,,14,,60,75
4704,note_on,,,,,6,0,6,,,,5,,41,62
4704,note_on,,,,,6,0,11,,,,12,,29,36
4704,note_on,,,,,6,0,10,,,,11,,41,36
4704,note_on,,,,,3,0,8,,,,7,,65,75
4704,note_on,,,,,3,0,2,,,,1,,53,127
4704,note_on,,,,,3,0,3,,,,2,,65,62
4704,note_on,,,,,6,0,12,,,,13,,69,36
4725,note_off,,,,,21,0,11,,,,12,,29,0
4725,note_off,,,,,21,0,12,,,,13,,41,0
4725,note_off,,,,,21,0,10,,,,11,,41,0
4728,note_on,,,,,3,0,10,,,,11,,43,36
4728,note_on,,,,,3,0,11,,,,12,,31,36
4728,note_on,,,,,3,0,12,,,,13,,43,36
4746,note_off,,,,,42,0,1,,,,0,,57,0
4746,note_off,,,,,42,0,13,,,,14,,60,0
4746,note_off,,,,,42,0,8,,,,7,,65,0
4746,note_off,,,,,42,0,4,,,,3,,65,0
4746,note_off,,,,,42,0,6,,,,5,,41,0
4746,note_off,,,,,42,0,5,,,,4,,60,0
4746,note_off,,,,,42,0,3,,,,2,,65,0
4746,note_off,,,,,42,0,7,,,,6,,65,0
4746,note_off,,,,,18,0,12,,,,13,,69,0
4746,note_off,,,,,0,0,12,,,,13,,72,0
4746,note_off,,,,,42,0,9,,,,8,,65,0
4746,note_off,,,,,42,0,2,,,,1,,53,0
4749,note_off,,,,,21,0,10,,,,11,,43,0
4749,note_off,,,,,3,0,12,,,,13,,43,0
4749,note_off,,,,,21,0,11,,,,12,,31,0
4752,note_on,,,,,3,0,11,,,,12,,33,36
4752,note_on,,,,,0,0,12,,,,13,,72,36
4752,note_on,,,,,0,0,12,,,,13,,45,36
4752,note_on,,,,,6,0,7,,,,6,,65,96
4752,note_on,,,,,3,0,10,,,,11,,45,36
4752,note_on,,,,,6,0,8,,,,7,,65,75
4752,note_on,,,,,6,0,1,,,,0,,57,127
4752,note_on,,,,,6,0,2,,,,1,,53,127
4752,note_on,,,,,3,0,12,,,,13,,65,36
4773,note_off,,,,,21,0,12,,,,13,,45,0
4773,note_off,,,,,21,0,11,,,,12,,33,0
4773,note_off,,,,,21,0,1,,,,0,,57,0
4773,note_off,,,,,21,0,10,,,,11,,45,0
4773,note_off,,,,,21,0,2,,,,1,,53,0
4776,note_on,,,,,3,0,1,,,,0,,57,127
4776,note_on,,,,,3,0,10,,,,11,,43,36
4776,note_on,,,,,3,0,12,,,,13,,43,36
4776,note_on,,,,,3,0,2,,,,1,,53,127
4776,note_on,,,,,3,0,11,,,,12,,31,36
4794,note_off,,,,,18,0,12,,,,13,,65,0
4794,note_off,,,,,0,0,12,,,,13,,72,0
4794,note_off,,,,,42,0,7,,,,6,,65,0
4794,note_off,,,,,42,0,8,,,,7,,65,0
4797,note_off,,,,,21,0,11,,,,12,,31,0
4797,note_off,,,,,21,0,10,,,,11,,43,0
4797,note_off,,,,,21,0,1,,,,0,,57,0
4797,note_off,,,,,21,0,2,,,,1,,53,0
4797,note_off,,,,,3,0,12,,,,13,,43,0
4800,note_on,,,,,3,0,2,,,,1,,53,127
4800,note_on,,,,,3,0,1,,,,0,,57,127
4800,note_on,,,,,3,0,10,,,,11,,45,36
4800,note_on,,,,,6,0,8,,,,7,,65,75
4800,note_on,,,,,0,0,12,,,,13,,72,36
4800,note_on,,,,,0,0,12,,,,13,,45,36
4800,note_on,,,,,6,0,7,,,,6,,65,96
4800,note_on,,,,,3,0,11,,,,12,,33,36
4800,note_on,,,,,3,0,12,,,,13,,65,36
4821,note_off,,,,,21,0,2,,,,1,,53,0
4821,note_off,,,,,21,0,12,,,,13,,45,0
4821,note_off,,,,,21,0,10,,,,11,,45,0
4821,note_off,,,,,21,0,11,,,,12,,33,0
4821,note_off,,,,,21,0,1,,,,0,,57,0
4824,note_on,,,,,3,0,2,,,,1,,53,127
4824,note_on,,,,,3,0,11,,,,12,,29,36
4824,note_on,,,,,3,0,1,,,,0,,57,127
4824,note_on,,,,,3,0,12,,,,13,,41,36
4824,note_on,,,,,3,0,10,,,,11,,41,36
4842,note_off,,,,,18,0,12,,,,13,,65,0
4842,note_off,,,,,42,0,8,,,,7,,65,0
4842,note_off,,,,,42,0,7,,,,6,,65,0
4842,note_off,,,,,0,0,12,,,,13,,72,0
4845,note_off,,,,,21,0,2,,,,1,,53,0
4845,note_off,,,,,21,0,11,,,,12,,29,0
4845,note_off,,,,,3,0,12,,,,13,,41,0
4845,note_off,,,,,21,0,1,,,,0,,57,0
4845,note_off,,,,,21,0,10,,,,11,,41,0
4848,note_on,,,,,3,0,10,,,,11,,53,36
4848,note_on,,,,,6,0,7,,,,6,,65,96
4848,note_on,,,,,0,0,12,,,,13,,53,36
4848,note_on,,,,,3,0,1,,,,0,,57,127
4848,note_on,,,,,3,0,12,,,,13,,77,36
4848,note_on,,,,,6,0,8,,,,7,,65,75
4848,note_on,,,,,3,0,2,,,,1,,53,127
4848,note_on,,,,,3,0,11,,,,12,,41,36
4890,note_off,,,,,0,0,12,,,,13,,53,0
4890,note_off,,,,,42,0,8,,,,7,,65,0
4890,note_off,,,,,42,0,12,,,,13,,77,0
4890,note_off,,,,,42,0,7,,,,6,,65,0
4890,note_off,,,,,42,0,11,,,,12,,41,0
4890,note_off,,,,,42,0,10,,,,11,,53,0
4896,note_on,,,,,6,0,10,,,,11,,52,36
4896,note_on,,,,,6,0,11,,,,12,,40,36
4896,note_on,,,,,6,0,7,,,,6,,69,96
4896,note_on,,,,,0,0,12,,,,13,,52,36
4896,note_on,,,,,6,0,12,,,,13,,76,36
4917,note_off,,,,,21,0,7,,,,6,,69,0
4920,note_on,,,,,3,0,7,,,,6,,67,96
4932,note_off,,,,,84,0,1,,,,0,,57,0
4932,note_off,,,,,84,0,2,,,,1,,53,0
4938,note_off,,,,,42,0,10,,,,11,,52,0
4938,note_off,,,,,0,0,12,,,,13,,52,0
4938,note_off,,,,,42,0,11,,,,12,,40,0
4938,note_off,,,,,42,0,12,,,,13,,76,0
4941,note_off,,,,,21,0,7,,,,6,,67,0
4944,note_on,,,,,0,0,12,,,,13,,50,36
4944,note_on,,,,,6,0,12,,,,13,,74,36
4944,note_on,,,,,6,0,11,,,,12,,38,36
4944,note_on,,,,,3,0,7,,,,6,,69,96
4944,note_on,,,,,6,0,10,,,,11,,50,36
4965,note_off,,,,,21,0,7,,,,6,,69,0
4968,note_on,,,,,3,0,7,,,,6,,65,96
4986,note_off,,,,,0,0,12,,,,13,,50,0
4986,note_off,,,,,42,0,11,,,,12,,38,0
4986,note_off,,,,,42,0,12,,,,13,,74,0
4986,note_off,,,,,42,0,10,,,,11,,50,0
4989,note_off,,,,,21,0,7,,,,6,,65,0
4992,note_on,,,,,6,0,12,,,,13,,72,36
4992,note_on,,,,,6,0,11,,,,12,,36,36
4992,note_on,,,,,0,0,12,,,,13,,48,36
4992,note_on,,,,,6,0,10,,,,11,,48,36
4992,note_on,,,,,3,0,7,,,,6,,72,96
5013,note_off,,,,,21,0,10,,,,11,,48,0
5013,note_off,,,,,21,0,11,,,,12,,36,0
5013,note_off,,,,,21,0,12,,,,13,,72,0
5013,note_off,,,,,0,0,12,,,,13,,48,0
5016,note_on,,,,,3,0,12,,,,13,,74,36
5016,note_on,,,,,3,0,10,,,,11,,50,36
5016,note_on,,,,,3,0,11,,,,12,,38,36
5016,note_on,,,,,0,0,12,,,,13,,50,36
5034,note_off,,,,,42,0,7,,,,6,,72,0
5037,note_off,,,,,21,0,11,,,,12,,38,0
5037,note_off,,,,,21,0,10,,,,11,,50,0
5037,note_off,,,,,0,0,12,,,,13,,50,0
5037,note_off,,,,,21,0,12,,,,13,,74,0
5040,note_on,,,,,150,0,8,,,,7,,72,75
5040,note_on,,,,,0,0,12,,,,13,,52,36
5040,note_on,,,,,3,0,12,,,,13,,76,36
5040,note_on,,,,,6,0,7,,,,6,,72,96
5040,note_on,,,,,3,0,11,,,,12,,40,36
5040,note_on,,,,,3,0,10,,,,11,,52,36
5061,note_off,,,,,0,0,12,,,,13,,52,0
5061,note_off,,,,,21,0,12,,,,13,,76,0
5061,note_off,,,,,21,0,11,,,,12,,40,0
5061,note_off,,,,,21,0,10,,,,11,,52,0
5064,note_on,,,,,0,0,12,,,,13,,50,36
5064,note_on,,,,,3,0,12,,,,13,,74,36
5064,note_on,,,,,3,0,11,,,,12,,38,36
5064,note_on,,,,,3,0,10,,,,11,,50,36
5082,note_off,,,,,42,0,7,,,,6,,72,0
5082,note_off,,,,,42,0,8,,,,7,,72,0
5085,note_off,,,,,21,0,11,,,,12,,38,0
5085,note_off,,,,,0,0,12,,,,13,,50,0
5085,note_off,,,,,21,0,12,,,,13,,74,0
5085,note_off,,,,,21,0,10,,,,11,,50,0
5088,note_on,,,,,6,0,7,,,,6,,72,96
5088,note_on,,,,,0,0,12,,,,13,,52,36
5088,note_on,,,,,3,0,12,,,,13,,76,36
5088,note_on,,,,,3,0,10,,,,11,,52,36
5088,note_on,,,,,3,0,11,,,,12,,40,36
5088,note_on,,,,,6,0,8,,,,7,,72,75
5109,note_off,,,,,21,0,12,,,,13,,76,0
5109,note_off,,,,,21,0,11,,,,12,,40,0
5109,note_off,,,,,0,0,12,,,,13,,52,0
5109,note_off,,,,,21,0,10,,,,11,,52,0
5112,note_on,,,,,3,0,10,,,,11,,48,36
5112,note_on,,,,,3,0,11,,,,12,,36,36
5112,note_on,,,,,3,0,12,,,,13,,72,36
5112,note_on,,,,,0,0,12,,,,13,,48,36
5130,note_off,,,,,42,0,8,,,,7,,72,0
5130,note_off,,,,,42,0,7,,,,6,,72,0
5133,note_off,,,,,21,0,10,,,,11,,48,0
5133,note_off,,,,,0,0,12,,,,13,,48,0
5133,note_off,,,,,21,0,11,,,,12,,36,0
5133,note_off,,,,,21,0,12,,,,13,,72,0
5136,note_on,,,,,3,0,12,,,,13,,82,36
5136,note_on,,,,,3,0,11,,,,12,,46,36
5136,note_on,,,,,3,0,10,,,,11,,58,36
5136,note_on,,,,,0,0,12,,,,13,,58,36
5136,note_on,,,,,6,0,7,,,,6,,72,96
5136,note_on,,,,,6,0,8,,,,7,,72,75
5178,note_off,,,,,0,0,12,,,,13,,58,0
5178,note_off,,,,,42,0,12,,,,13,,82,0
5178,note_off,,,,,42,0,8,,,,7,,72,0
5178,note_off,,,,,42,0,10,,,,11,,58,0
5178,note_off,,,,,42,0,7,,,,6,,72,0
5178,note_off,,,,,42,0,11,,,,12,,46,0
5184,note_on,,,,,6,0,12,,,,13,,81,36
5184,note_on,,,,,6,0,11,,,,12,,45,36
5184,note_on,,,,,6,0,10,,,,11,,57,36
5184,note_on,,,,,0,0,12,,,,13,,57,36
5184,note_on,,,,,6,0,7,,,,6,,76,96
5205,note_off,,,,,21,0,7,,,,6,,76,0
5208,note_on,,,,,3,0,7,,,,6,,74,96
5226,note_off,,,,,42,0,11,,,,12,,45,0
5226,note_off,,,,,42,0,12,,,,13,,81,0
5226,note_off,,,,,0,0,12,,,,13,,57,0
5226,note_off,,,,,42,0,10,,,,11,,57,0
5229,note_off,,,,,21,0,7,,,,6,,74,0
5232,note_on,,,,,3,0,7,,,,6,,76,96
5232,note_on,,,,,6,0,11,,,,12,,43,36
5232,note_on,,,,,6,0,12,,,,13,,79,36
5232,note_on,,,,,0,0,12,,,,13,,55,36
5232,note_on,,,,,6,0,10,,,,11,,55,36
5253,note_off,,,,,21,0,7,,,,6,,76,0
5256,note_on,,,,,3,0,7,,,,6,,72,96
5274,note_off,,,,,0,0,12,,,,13,,55,0
5274,note_off,,,,,42,0,11,,,,12,,43,0
5274,note_off,,,,,42,0,10,,,,11,,55,0
5274,note_off,,,,,42,0,12,,,,13,,79,0
5277,note_off,,,,,21,0,7,,,,6,,72,0
5280,note_on,,,,,6,0,10,,,,11,,57,36
5280,note_on,,,,,3,0,7,,,,6,,77,96
5280,note_on,,,,,6,0,11,,,,12,,45,36
5280,note_on,,,,,0,0,12,,,,13,,57,36
5280,note_on,,,,,6,0,12,,,,13,,81,36
5280,note_on,,,,,102,0,8,,,,7,,60,75
5280,note_on,,,,,0,0,8,,,,7,,69,75
5322,note_off,,,,,42,0,11,,,,12,,45,0
5322,note_off,,,,,42,0,7,,,,6,,77,0
5322,note_off,,,,,42,0,12,,,,13,,81,0
5322,note_off,,,,,0,0,8,,,,7,,69,0
5322,note_off,,,,,42,0,10,,,,11,,57,0
5322,note_off,,,,,42,0,8,,,,7,,60,0
5322,note_off,,,,,0,0,12,,,,13,,57,0
5328,note_on,,,,,6,0,7,,,,6,,76,96
5328,note_on,,,,,6,0,10,,,,11,,50,36
5328,note_on,,,,,0,0,12,,,,13,,50,36
5328,note_on,,,,,6,0,11,,,,12,,38,36
5328,note_on,,,,,6,0,12,,,,13,,74,36
5349,note_off,,,,,21,0,7,,,,6,,76,0
5352,note_on,,,,,3,0,7,,,,6,,74,96
5370,note_off,,,,,42,0,11,,,,12,,38,0
5370,note_off,,,,,42,0,10,,,,11,,50,0
5370,note_off,,,,,0,0,12,,,,13,,50,0
5370,note_off,,,,,42,0,12,,,,13,,74,0
5373,note_off,,,,,21,0,7,,,,6,,74,0
5376,note_on,,,,,0,0,12,,,,13,,52,36
5376,note_on,,,,,6,0,12,,,,13,,76,36
5376,note_on,,,,,3,0,7,,,,6,,72,96
5376,note_on,,,,,6,0,11,,,,12,,40,36
5376,note_on,,,,,6,0,10,,,,11,,52,36
5397,note_off,,,,,21,0,7,,,,6,,72,0
5400,note_on,,,,,3,0,7,,,,6,,70,96
5418,note_off,,,,,0,0,12,,,,13,,52,0
5418,note_off,,,,,42,0,12,,,,13,,76,0
5418,note_off,,,,,42,0,11,,,,12,,40,0
5418,note_off,,,,,42,0,10,,,,11,,52,0
5421,note_off,,,,,21,0,7,,,,6,,70,0
5424,note_on,,,,,6,0,11,,,,12,,41,36
5424,note_on,,,,,6,0,12,,,,13,,77,36
5424,note_on,,,,,3,0,7,,,,6,,69,96
5424,note_on,,,,,6,0,10,,,,11,,53,36
5424,note_on,,,,,0,0,12,,,,13,,53,36
5445,note_off,,,,,21,0,7,,,,6,,69,0
5448,note_on,,,,,3,0,7,,,,6,,70,96
5466,note_off,,,,,42,0,10,,,,11,,53,0
5466,note_off,,,,,42,0,11,,,,12,,41,0
5466,note_off,,,,,0,0,12,,,,13,,53,0
5466,note_off,,,,,42,0,12,,,,13,,77,0
5469,note_off,,,,,21,0,7,,,,6,,70,0
5472,note_on,,,,,0,0,12,,,,13,,52,36
5472,note_on,,,,,6,0,11,,,,12,,40,36
5472,note_on,,,,,6,0,10,,,,11,,52,36
5472,note_on,,,,,6,0,12,,,,13,,76,36
5472,note_on,,,,,3,0,7,,,,6,,72,96
5482,note_off,,,,,10,0,7,,,,6,,72,0
5484,note_on,,,,,2,0,7,,,,6,,70,96
5493,note_off,,,,,0,0,12,,,,13,,52,0
5493,note_off,,,,,21,0,12,,,,13,,76,0
5493,note_off,,,,,21,0,11,,,,12,,40,0
5493,note_off,,,,,21,0,10,,,,11,,52,0
5494,note_off,,,,,10,0,7,,,,6,,70,0
5496,note_on,,,,,2,0,7,,,,6,,72,96
5496,note_on,,,,,0,0,12,,,,13,,50,36
5496,note_on,,,,,3,0,11,,,,12,,38,36
5496,note_on,,,,,3,0,10,,,,11,,50,36
5496,note_on,,,,,3,0,12,,,,13,,74,36
5506,note_off,,,,,10,0,7,,,,6,,72,0
5508,note_on,,,,,2,0,7,,,,6,,70,96
5517,note_off,,,,,21,0,10,,,,11,,50,0
5517,note_off,,,,,0,0,12,,,,13,,50,0
5517,note_off,,,,,21,0,12,,,,13,,74,0
5517,note_off,,,,,21,0,11,,,,12,,38,0
5518,note_off,,,,,10,0,7,,,,6,,70,0
5520,note_on,,,,,0,0,12,,,,13,,48,36
5520,note_on,,,,,3,0,12,,,,13,,72,36
5520,note_on,,,,,3,0,10,,,,11,,48,36
5520,note_on,,,,,3,0,11,,,,12,,36,36
5520,note_on,,,,,2,0,7,,,,6,,72,96
5530,note_off,,,,,10,0,7,,,,6,,72,0
5532,note_on,,,,,2,0,7,,,,6,,70,96
5541,note_off,,,,,21,0,12,,,,13,,72,0
5541,note_off,,,,,21,0,10,,,,11,,48,0
5541,note_off,,,,,21,0,11,,,,12,,36,0
5541,note_off,,,,,0,0,12,,,,13,,48,0
5542,note_off,,,,,10,0,7,,,,6,,70,0
5544,note_on,,,,,2,0,7,,,,6,,69,96
5544,note_on,,,,,3,0,10,,,,11,,46,36
5544,note_on,,,,,3,0,12,,,,13,,70,36
5544,note_on,,,,,3,0,11,,,,12,,34,36
5544,note_on,,,,,0,0,12,,,,13,,46,36
5554,note_off,,,,,10,0,7,,,,6,,69,0
5556,note_on,,,,,2,0,7,,,,6,,70,96
5565,note_off,,,,,0,0,12,,,,13,,46,0
5565,note_off,,,,,21,0,10,,,,11,,46,0
5565,note_off,,,,,21,0,11,,,,12,,34,0
5565,note_off,,,,,21,0,12,,,,13,,70,0
5566,note_off,,,,,10,0,7,,,,6,,70,0
5568,note_on,,,,,3,0,10,,,,11,,45,36
5568,note_on,,,,,0,0,12,,,,13,,45,36
5568,note_on,,,,,2,0,7,,,,6,,72,96
5568,note_on,,,,,3,0,12,,,,13,,69,36
5568,note_on,,,,,3,0,11,,,,12,,33,36
5589,note_off,,,,,21,0,10,,,,11,,45,0
5589,note_off,,,,,21,0,12,,,,13,,69,0
5589,note_off,,,,,21,0,7,,,,6,,72,0
5589,note_off,,,,,21,0,11,,,,12,,33,0
5589,note_off,,,,,0,0,12,,,,13,,45,0
5592,note_on,,,,,0,0,12,,,,13,,46,36
5592,note_on,,,,,3,0,7,,,,6,,69,96
5592,note_on,,,,,3,0,12,,,,13,,70,36
5592,note_on,,,,,3,0,10,,,,11,,46,36
5592,note_on,,,,,3,0,11,,,,12,,34,36
5613,note_off,,,,,21,0,7,,,,6,,69,0
5613,note_off,,,,,21,0,10,,,,11,,46,0
5613,note_off,,,,,21,0,11,,,,12,,34,0
5613,note_off,,,,,0,0,12,,,,13,,46,0
5613,note_off,,,,,21,0,12,,,,13,,70,0
5616,note_on,,,,,3,0,10,,,,11,,48,36
5616,note_on,,,,,3,0,7,,,,6,,67,96
5616,note_on,,,,,0,0,12,,,,13,,48,36
5616,note_on,,,,,3,0,12,,,,13,,72,36
5616,note_on,,,,,3,0,11,,,,12,,36,36
5626,note_off,,,,,0,0,12,,,,13,,48,0
5626,note_off,,,,,10,0,12,,,,13,,72,0
5626,note_off,,,,,10,0,10,,,,11,,48,0
5626,note_off,,,,,10,0,11,,,,12,,36,0
5626,note_off,,,,,10,0,7,,,,6,,67,0
5628,note_on,,,,,2,0,11,,,,12,,34,36
5628,note_on,,,,,2,0,7,,,,6,,65,96
5628,note_on,,,,,2,0,12,,,,13,,70,36
5628,note_on,,,,,0,0,12,,,,13,,46,36
5628,note_on,,,,,2,0,10,,,,11,,46,36
5638,note_off,,,,,10,0,7,,,,6,,65,0
5638,note_off,,,,,10,0,10,,,,11,,46,0
5638,note_off,,,,,10,0,11,,,,12,,34,0
5638,note_off,,,,,10,0,12,,,,13,,70,0
5638,note_off,,,,,0,0,12,,,,13,,46,0
5640,note_on,,,,,2,0,7,,,,6,,67,96
5640,note_on,,,,,0,0,12,,,,13,,48,36
5640,note_on,,,,,2,0,11,,,,12,,36,36
5640,note_on,,,,,2,0,10,,,,11,,48,36
5640,note_on,,,,,2,0,12,,,,13,,72,36
5650,note_off,,,,,10,0,11,,,,12,,36,0
5650,note_off,,,,,10,0,10,,,,11,,48,0
5650,note_off,,,,,10,0,7,,,,6,,67,0
5650,note_off,,,,,10,0,12,,,,13,,72,0
5650,note_off,,,,,0,0,12,,,,13,,48,0
5652,note_on,,,,,2,0,10,,,,11,,46,36
5652,note_on,,,,,2,0,7,,,,6,,65,96
5652,note_on,,,,,2,0,11,,,,12,,34,36
5652,note_on,,,,,2,0,12,,,,13,,70,36
5652,note_on,,,,,0,0,12,,,,13,,46,36
5662,note_off,,,,,10,0,12,,,,13,,70,0
5662,note_off,,,,,10,0,7,,,,6,,65,0
5662,note_off,,,,,10,0,10,,,,11,,46,0
5662,note_off,,,,,10,0,11,,,,12,,34,0
5662,note_off,,,,,0,0,12,,,,13,,46,0
5664,note_on,,,,,2,0,12,,,,13,,72,36
5664,note_on,,,,,0,0,12,,,,13,,48,36
5664,note_on,,,,,2,0,7,,,,6,,67,96
5664,note_on,,,,,2,0,10,,,,11,,48,36
5664,note_on,,,,,2,0,11,,,,12,,36,36
5674,note_off,,,,,10,0,12,,,,13,,72,0
5674,note_off,,,,,0,0,12,,,,13,,48,0
5674,note_off,,,,,10,0,11,,,,12,,36,0
5674,note_off,,,,,10,0,10,,,,11,,48,0
5674,note_off,,,,,10,0,7,,,,6,,67,0
5676,note_on,,,,,2,0,11,,,,12,,34,36
5676,note_on,,,,,2,0,7,,,,6,,65,96
5676,note_on,,,,,2,0,10,,,,11,,46,36
5676,note_on,,,,,2,0,12,,,,13,,70,36
5676,note_on,,,,,0,0,12,,,,13,,46,36
5686,note_off,,,,,10,0,11,,,,12,,34,0
5686,note_off,,,,,10,0,7,,,,6,,65,0
5686,note_off,,,,,10,0,12,,,,13,,70,0
5686,note_off,,,,,10,0,10,,,,11,,46,0
5686,note_off,,,,,0,0,12,,,,13,,46,0
5688,note_on,,,,,2,0,12,,,,13,,69,36
5688,note_on,,,,,2,0,7,,,,6,,70,96
5688,note_on,,,,,2,0,11,,,,12,,33,36
5688,note_on,,,,,2,0,10,,,,11,,45,36
5688,note_on,,,,,0,0,12,,,,13,,45,36
5698,note_off,,,,,10,0,12,,,,13,,69,0
5698,note_off,,,,,0,0,12,,,,13,,45,0
5698,note_off,,,,,10,0,7,,,,6,,70,0
5698,note_off,,,,,10,0,11,,,,12,,33,0
5698,note_off,,,,,10,0,10,,,,11,,45,0
5700,note_on,,,,,2,0,12,,,,13,,70,36
5700,note_on,,,,,0,0,12,,,,13,,46,36
5700,note_on,,,,,2,0,10,,,,11,,46,36
5700,note_on,,,,,2,0,7,,,,6,,69,96
5700,note_on,,,,,2,0,11,,,,12,,34,36
5710,note_off,,,,,10,0,12,,,,13,,70,0
5710,note_off,,,,,10,0,7,,,,6,,69,0
5710,note_off,,,,,10,0,11,,,,12,,34,0
5710,note_off,,,,,10,0,10,,,,11,,46,0
5710,note_off,,,,,0,0,12,,,,13,,46,0
5712,note_on,,,,,2,0,12,,,,13,,72,36
5712,note_on,,,,,2,0,11,,,,12,,36,36
5712,note_on,,,,,2,0,10,,,,11,,48,36
5712,note_on,,,,,0,0,12,,,,13,,48,36
5712,note_on,,,,,0,0,7,,,,6,,67,96
5712,note_on,,,,,2,0,7,,,,6,,60,96
5733,note_off,,,,,21,0,11,,,,12,,36,0
5733,note_off,,,,,0,0,12,,,,13,,48,0
5733,note_off,,,,,21,0,12,,,,13,,72,0
5733,note_off,,,,,21,0,10,,,,11,,48,0
5736,note_on,,,,,3,0,10,,,,11,,50,36
5736,note_on,,,,,3,0,12,,,,13,,74,36
5736,note_on,,,,,0,0,12,,,,13,,50,36
5736,note_on,,,,,3,0,11,,,,12,,38,36
5757,note_off,,,,,21,0,10,,,,11,,50,0
5757,note_off,,,,,21,0,11,,,,12,,38,0
5757,note_off,,,,,21,0,12,,,,13,,74,0
5757,note_off,,,,,0,0,12,,,,13,,50,0
5760,note_on,,,,,828,0,2,,,,1,,60,127
5760,note_on,,,,,3,0,11,,,,12,,40,36
5760,note_on,,,,,0,0,12,,,,13,,52,36
5760,note_on,,,,,3,0,12,,,,13,,76,36
5760,note_on,,,,,828,0,1,,,,0,,72,127
5760,note_on,,,,,3,0,10,,,,11,,52,36
5781,note_off,,,,,21,0,11,,,,12,,40,0
5781,note_off,,,,,21,0,1,,,,0,,72,0
5781,note_off,,,,,21,0,10,,,,11,,52,0
5781,note_off,,,,,21,0,12,,,,13,,76,0
5781,note_off,,,,,0,0,12,,,,13,,52,0
5781,note_off,,,,,21,0,2,,,,1,,60,0
5784,note_on,,,,,3,0,1,,,,0,,70,127
5784,note_on,,,,,3,0,2,,,,1,,60,127
5784,note_on,,,,,3,0,11,,,,12,,38,36
5784,note_on,,,,,0,0,12,,,,13,,50,36
5784,note_on,,,,,3,0,12,,,,13,,74,36
5784,note_on,,,,,3,0,10,,,,11,,50,36
5796,note_off,,,,,0,0,7,,,,6,,67,0
5796,note_off,,,,,84,0,7,,,,6,,60,0
5805,note_off,,,,,21,0,12,,,,13,,74,0
5805,note_off,,,,,21,0,11,,,,12,,38,0
5805,note_off,,,,,0,0,12,,,,13,,50,0
5805,note_off,,,,,21,0,1,,,,0,,70,0
5805,note_off,,,,,21,0,10,,,,11,,50,0
5805,note_off,,,,,21,0,2,,,,1,,60,0
5808,note_on,,,,,3,0,1,,,,0,,69,127
5808,note_on,,,,,3,0,12,,,,13,,76,36
5808,note_on,,,,,3,0,10,,,,11,,52,36
5808,note_on,,,,,0,0,12,,,,13,,52,36
5808,note_on,,,,,3,0,11,,,,12,,40,36
5808,note_on,,,,,3,0,2,,,,1,,60,127
5829,note_off,,,,,21,0,12,,,,13,,76,0
5829,note_off,,,,,21,0,1,,,,0,,69,0
5829,note_off,,,,,21,0,11,,,,12,,40,0
5829,note_off,,,,,21,0,10,,,,11,,52,0
5829,note_off,,,,,21,0,2,,,,1,,60,0
5829,note_off,,,,,0,0,12,,,,13,,52,0
5832,note_on,,,,,3,0,1,,,,0,,67,127
5832,note_on,,,,,3,0,11,,,,12,,36,36
5832,note_on,,,,,0,0,12,,,,13,,48,36
5832,note_on,,,,,3,0,12,,,,13,,72,36
5832,note_on,,,,,3,0,10,,,,11,,48,36
5832,note_on,,,,,3,0,2,,,,1,,60,127
5853,note_off,,,,,21,0,11,,,,12,,36,0
5853,note_off,,,,,0,0,12,,,,13,,48,0
5853,note_off,,,,,21,0,12,,,,13,,72,0
5853,note_off,,,,,21,0,10,,,,11,,48,0
5853,note_off,,,,,21,0,1,,,,0,,67,0
5853,note_off,,,,,21,0,2,,,,1,,60,0
5856,note_on,,,,,1110,0,6,,,,5,,53,62
5856,note_on,,,,,3,0,10,,,,11,,53,36
5856,note_on,,,,,0,0,12,,,,13,,53,36
5856,note_on,,,,,3,0,1,,,,0,,65,127
5856,note_on,,,,,3,0,2,,,,1,,57,127
5856,note_on,,,,,3,0,11,,,,12,,41,36
5856,note_on,,,,,3,0,12,,,,13,,69,36
5856,note_on,,,,,0,0,12,,,,13,,72,36
5877,note_off,,,,,21,0,1,,,,0,,65,0
5880,note_on,,,,,3,0,1,,,,0,,67,127
5898,note_off,,,,,42,0,11,,,,12,,41,0
5898,note_off,,,,,42,0,6,,,,5,,53,0
5898,note_off,,,,,42,0,2,,,,1,,57,0
5898,note_off,,,,,0,0,12,,,,13,,53,0
5898,note_off,,,,,0,0,12,,,,13,,72,0
5898,note_off,,,,,42,0,10,,,,11,,53,0
5898,note_off,,,,,42,0,12,,,,13,,69,0
5901,note_off,,,,,21,0,1,,,,0,,67,0
5904,note_on,,,,,6,0,6,,,,5,,57,62
5904,note_on,,,,,1158,0,5,,,,4,,60,62
5904,note_on,,,,,108,0,7,,,,6,,65,96
5904,note_on,,,,,0,0,12,,,,13,,57,36
5904,note_on,,,,,0,0,12,,,,13,,77,36
5904,note_on,,,,,6,0,12,,,,13,,72,36
5904,note_on,,,,,582,0,8,,,,7,,65,75
5904,note_on,,,,,3,0,1,,,,0,,65,127
5904,note_on,,,,,1158,0,4,,,,3,,65,62
5904,note_on,,,,,6,0,2,,,,1,,57,127
5904,note_on,,,,,1158,0,13,,,,14,,57,75
5904,note_on,,,,,6,0,11,,,,12,,45,36
5904,note_on,,,,,1158,0,9,,,,8,,60,75
5904,note_on,,,,,6,0,10,,,,11,,57,36
5904,note_on,,,,,1158,0,3,,,,2,,65,62
5925,note_off,,,,,21,0,1,,,,0,,65,0
5925,note_off,,,,,21,0,2,,,,1,,57,0
5928,note_on,,,,,3,0,1,,,,0,,67,127
5928,note_on,,,,,3,0,2,,,,1,,57,127
5946,note_off,,,,,42,0,10,,,,11,,57,0
5946,note_off,,,,,42,0,13,,,,14,,57,0
5946,note_off,,,,,42,0,4,,,,3,,65,0
5946,note_off,,,,,42,0,8,,,,7,,65,0
5946,note_off,,,,,0,0,12,,,,13,,57,0
5946,note_off,,,,,42,0,3,,,,2,,65,0
5946,note_off,,,,,42,0,7,,,,6,,65,0
5946,note_off,,,,,42,0,5,,,,4,,60,0
5946,note_off,,,,,42,0,6,,,,5,,57,0
5946,note_off,,,,,0,0,12,,,,13,,77,0
5946,note_off,,,,,42,0,9,,,,8,,60,0
5946,note_off,,,,,42,0,11,,,,12,,45,0
5946,note_off,,,,,42,0,12,,,,13,,72,0
5949,note_off,,,,,21,0,2,,,,1,,57,0
5949,note_off,,,,,21,0,1,,,,0,,67,0
5952,note_on,,,,,6,0,3,,,,2,,65,62
5952,note_on,,,,,3,0,2,,,,1,,57,127
5952,note_on,,,,,6,0,6,,,,5,,60,62
5952,note_on,,,,,6,0,9,,,,8,,60,75
5952,note_on,,,,,6,0,10,,,,11,,60,36
5952,note_on,,,,,6,0,13,,,,14,,57,75
5952,note_on,,,,,6,0,11,,,,12,,48,36
5952,note_on,,,,,0,0,12,,,,13,,60,36
5952,note_on,,,,,6,0,4,,,,3,,65,62
5952,note_on,,,,,6,0,8,,,,7,,65,75
5952,note_on,,,,,6,0,5,,,,4,,60,62
5952,note_on,,,,,6,0,7,,,,6,,65,96
5952,note_on,,,,,0,0,12,,,,13,,81,36
5952,note_on,,,,,6,0,12,,,,13,,77,36
5952,note_on,,,,,3,0,1,,,,0,,69,127
5973,note_off,,,,,21,0,2,,,,1,,57,0
5973,note_off,,,,,21,0,1,,,,0,,69,0
5976,note_on,,,,,3,0,2,,,,1,,57,127
5976,note_on,,,,,3,0,1,,,,0,,67,127
5994,note_off,,,,,0,0,12,,,,13,,81,0
5994,note_off,,,,,42,0,3,,,,2,,65,0
5994,note_off,,,,,42,0,9,,,,8,,60,0
5994,note_off,,,,,42,0,10,,,,11,,60,0
5994,note_off,,,,,42,0,7,,,,6,,65,0
5994,note_off,,,,,42,0,6,,,,5,,60,0
5994,note_off,,,,,0,0,12,,,,13,,60,0
5994,note_off,,,,,42,0,13,,,,14,,57,0
5994,note_off,,,,,42,0,4,,,,3,,65,0
5994,note_off,,,,,42,0,8,,,,7,,65,0
5994,note_off,,,,,42,0,11,,,,12,,48,0
5994,note_off,,,,,42,0,12,,,,13,,77,0
5994,note_off,,,,,42,0,5,,,,4,,60,0
5997,note_off,,,,,21,0,2,,,,1,,57,0
5997,note_off,,,,,21,0,1,,,,0,,67,0
6000,note_on,,,,,6,0,6,,,,5,,57,62
6000,note_on,,,,,6,0,11,,,,12,,45,36
6000,note_on,,,,,3,0,2,,,,1,,57,127
6000,note_on,,,,,6,0,3,,,,2,,65,62
6000,note_on,,,,,0,0,12,,,,13,,57,36
6000,note_on,,,,,0,0,12,,,,13,,77,36
6000,note_on,,,,,6,0,12,,,,13,,72,36
6000,note_on,,,,,6,0,8,,,,7,,65,75
6000,note_on,,,,,6,0,7,,,,6,,65,96
6000,note_on,,,,,6,0,13,,,,14,,57,75
6000,note_on,,,,,6,0,9,,,,8,,60,75
6000,note_on,,,,,6,0,5,,,,4,,60,62
6000,note_on,,,,,3,0,1,,,,0,,65,127
6000,note_on,,,,,6,0,4,,,,3,,65,62
6000,note_on,,,,,6,0,10,,,,11,,57,36
6042,note_off,,,,,42,0,12,,,,13,,72,0
6042,note_off,,,,,42,0,6,,,,5,,57,0
6042,note_off,,,,,0,0,12,,,,13,,77,0
6042,note_off,,,,,0,0,12,,,,13,,57,0
6042,note_off,,,,,42,0,1,,,,0,,65,0
6042,note_off,,,,,42,0,3,,,,2,,65,0
6042,note_off,,,,,42,0,9,,,,8,,60,0
6042,note_off,,,,,42,0,7,,,,6,,65,0
6042,note_off,,,,,42,0,11,,,,12,,45,0
6042,note_off,,,,,42,0,8,,,,7,,65,0
6042,note_off,,,,,42,0,5,,,,4,,60,0
6042,note_off,,,,,42,0,2,,,,1,,57,0
6042,note_off,,,,,42,0,13,,,,14,,57,0
6042,note_off,,,,,42,0,10,,,,11,,57,0
6042,note_off,,,,,42,0,4,,,,3,,65,0
6048,note_on,,,,,6,0,13,,,,14,,60,75
6048,note_on,,,,,0,0,12,,,,13,,53,36
6048,note_on,,,,,6,0,7,,,,6,,69,96
6048,note_on,,,,,6,0,5,,,,4,,60,62
6048,note_on,,,,,6,0,3,,,,2,,69,62
6048,note_on,,,,,6,0,10,,,,11,,53,36
6048,note_on,,,,,6,0,8,,,,7,,69,75
6048,note_on,,,,,0,0,12,,,,13,,72,36
6048,note_on,,,,,6,0,4,,,,3,,65,62
6048,note_on,,,,,6,0,12,,,,13,,69,36
6048,note_on,,,,,6,0,11,,,,12,,41,36
6048,note_on,,,,,6,0,6,,,,5,,53,62
6048,note_on,,,,,6,0,9,,,,8,,65,75
6069,note_off,,,,,21,0,9,,,,8,,65,0
6069,note_off,,,,,21,0,4,,,,3,,65,0
6069,note_off,,,,,21,0,7,,,,6,,69,0
6069,note_off,,,,,21,0,13,,,,14,,60,0
6069,note_off,,,,,21,0,8,,,,7,,69,0
6069,note_off,,,,,21,0,3,,,,2,,69,0
6072,note_on,,,,,3,0,7,,,,6,,67,96
6072,note_on,,,,,3,0,13,,,,14,,58,75
6072,note_on,,,,,3,0,3,,,,2,,67,62
6072,note_on,,,,,3,0,4,,,,3,,64,62
6072,note_on,,,,,3,0,8,,,,7,,67,75
6072,note_on,,,,,3,0,9,,,,8,,64,75
6090,note_off,,,,,42,0,11,,,,12,,41,0
6090,note_off,,,,,42,0,10,,,,11,,53,0
6090,note_off,,,,,42,0,5,,,,4,,60,0
6090,note_off,,,,,42,0,12,,,,13,,69,0
6090,note_off,,,,,0,0,12,,,,13,,72,0
6090,note_off,,,,,0,0,12,,,,13,,53,0
6090,note_off,,,,,42,0,6,,,,5,,53,0
6093,note_off,,,,,21,0,7,,,,6,,67,0
6093,note_off,,,,,21,0,3,,,,2,,67,0
6093,note_off,,,,,21,0,13,,,,14,,58,0
6093,note_off,,,,,21,0,9,,,,8,,64,0
6093,note_off,,,,,21,0,8,,,,7,,67,0
6093,note_off,,,,,21,0,4,,,,3,,64,0
6096,note_on,,,,,3,0,3,,,,2,,69,62
6096,note_on,,,,,3,0,8,,,,7,,69,75
6096,note_on,,,,,6,0,5,,,,4,,60,62
6096,note_on,,,,,3,0,9,,,,8,,65,75
6096,note_on,,,,,3,0,13,,,,14,,60,75
6096,note_on,,,,,3,0,7,,,,6,,69,96
6096,note_on,,,,,3,0,4,,,,3,,65,62
6117,note_off,,,,,21,0,13,,,,14,,60,0
6117,note_off,,,,,21,0,9,,,,8,,65,0
6117,note_off,,,,,21,0,8,,,,7,,69,0
6117,note_off,,,,,21,0,4,,,,3,,65,0
6117,note_off,,,,,21,0,7,,,,6,,69,0
6117,note_off,,,,,21,0,3,,,,2,,69,0
6120,note_on,,,,,3,0,8,,,,7,,65,75
6120,note_on,,,,,3,0,4,,,,3,,60,62
6120,note_on,,,,,3,0,9,,,,8,,60,75
6120,note_on,,,,,3,0,13,,,,14,,57,75
6120,note_on,,,,,3,0,7,,,,6,,65,96
6120,note_on,,,,,3,0,3,,,,2,,65,62
6138,note_off,,,,,42,0,5,,,,4,,60,0
6141,note_off,,,,,21,0,4,,,,3,,60,0
6141,note_off,,,,,21,0,13,,,,14,,57,0
6141,note_off,,,,,21,0,8,,,,7,,65,0
6141,note_off,,,,,21,0,9,,,,8,,60,0
6141,note_off,,,,,21,0,3,,,,2,,65,0
6141,note_off,,,,,21,0,7,,,,6,,65,0
6144,note_on,,,,,3,0,7,,,,6,,72,96
6144,note_on,,,,,3,0,8,,,,7,,72,75
6144,note_on,,,,,102,0,1,,,,0,,67,127
6144,note_on,,,,,3,0,9,,,,8,,67,75
6144,note_on,,,,,3,0,3,,,,2,,72,62
6144,note_on,,,,,6,0,5,,,,4,,64,62
6144,note_on,,,,,54,0,6,,,,5,,52,62
6144,note_on,,,,,3,0,13,,,,14,,64,75
6144,note_on,,,,,54,0,10,,,,11,,52,36
6144,note_on,,,,,0,0,12,,,,13,,72,36
6144,note_on,,,,,102,0,2,,,,1,,60,127
6144,note_on,,,,,54,0,11,,,,12,,40,36
6144,note_on,,,,,54,0,12,,,,13,,67,36
6144,note_on,,,,,0,0,12,,,,13,,52,36
6144,note_on,,,,,3,0,4,,,,3,,67,62
6165,note_off,,,,,21,0,1,,,,0,,67,0
6168,note_on,,,,,3,0,1,,,,0,,69,127
6186,note_off,,,,,42,0,9,,,,8,,67,0
6186,note_off,,,,,0,0,12,,,,13,,52,0
6186,note_off,,,,,42,0,6,,,,5,,52,0
6186,note_off,,,,,42,0,13,,,,14,,64,0
6186,note_off,,,,,42,0,10,,,,11,,52,0
6186,note_off,,,,,42,0,5,,,,4,,64,0
6186,note_off,,,,,42,0,2,,,,1,,60,0
6186,note_off,,,,,42,0,3,,,,2,,72,0
6186,note_off,,,,,0,0,12,,,,13,,72,0
6186,note_off,,,,,42,0,8,,,,7,,72,0
6186,note_off,,,,,42,0,7,,,,6,,72,0
6186,note_off,,,,,42,0,11,,,,12,,40,0
6186,note_off,,,,,42,0,4,,,,3,,67,0
6186,note_off,,,,,42,0,12,,,,13,,67,0
6189,note_off,,,,,21,0,1,,,,0,,69,0
6192,note_on,,,,,6,0,13,,,,14,,64,75
6192,note_on,,,,,6,0,8,,,,7,,72,75
6192,note_on,,,,,6,0,4,,,,3,,67,62
6192,note_on,,,,,6,0,7,,,,6,,72,96
6192,note_on,,,,,6,0,5,,,,4,,64,62
6192,note_on,,,,,6,0,10,,,,11,,55,36
6192,note_on,,,,,6,0,11,,,,12,,43,36
6192,note_on,,,,,6,0,2,,,,1,,60,127
6192,note_on,,,,,6,0,3,,,,2,,72,62
6192,note_on,,,,,6,0,6,,,,5,,55,62
6192,note_on,,,,,6,0,12,,,,13,,72,36
6192,note_on,,,,,3,0,1,,,,0,,67,127
6192,note_on,,,,,0,0,12,,,,13,,76,36
6192,note_on,,,,,0,0,12,,,,13,,55,36
6192,note_on,,,,,6,0,9,,,,8,,67,75
6213,note_off,,,,,21,0,1,,,,0,,67,0
6213,note_off,,,,,21,0,2,,,,1,,60,0
6216,note_on,,,,,3,0,1,,,,0,,69,127
6216,note_on,,,,,3,0,2,,,,1,,60,127
6234,note_off,,,,,42,0,4,,,,3,,67,0
6234,note_off,,,,,42,0,7,,,,6,,72,0
6234,note_off,,,,,42,0,3,,,,2,,72,0
6234,note_off,,,,,42,0,9,,,,8,,67,0
6234,note_off,,,,,42,0,12,,,,13,,72,0
6234,note_off,,,,,42,0,13,,,,14,,64,0
6234,note_off,,,,,42,0,11,,,,12,,43,0
6234,note_off,,,,,42,0,5,,,,4,,64,0
6234,note_off,,,,,0,0,12,,,,13,,55,0
6234,note_off,,,,,42,0,10,,,,11,,55,0
6234,note_off,,,,,42,0,6,,,,5,,55,0
6234,note_off,,,,,42,0,8,,,,7,,72,0
6234,note_off,,,,,0,0,12,,,,13,,76,0
6237,note_off,,,,,21,0,1,,,,0,,69,0
6237,note_off,,,,,21,0,2,,,,1,,60,0
6240,note_on,,,,,6,0,11,,,,12,,48,36
6240,note_on,,,,,6,0,13,,,,14,,64,75
6240,note_on,,,,,3,0,1,,,,0,,70,127
6240,note_on,,,,,6,0,7,,,,6,,72,96
6240,note_on,,,,,6,0,9,,,,8,,67,75
6240,note_on,,,,,0,0,12,,,,13,,60,36
6240,note_on,,,,,6,0,3,,,,2,,72,62
6240,note_on,,,,,3,0,2,,,,1,,60,127
6240,note_on,,,,,6,0,5,,,,4,,64,62
6240,note_on,,,,,6,0,10,,,,11,,60,36
6240,note_on,,,,,6,0,6,,,,5,,60,62
6240,note_on,,,,,6,0,8,,,,7,,72,75
6240,note_on,,,,,6,0,4,,,,3,,67,62
6240,note_on,,,,,0,0,12,,,,13,,79,36
6240,note_on,,,,,6,0,12,,,,13,,76,36
6261,note_off,,,,,21,0,2,,,,1,,60,0
6261,note_off,,,,,21,0,1,,,,0,,70,0
6264,note_on,,,,,3,0,2,,,,1,,60,127
6264,note_on,,,,,3,0,1,,,,0,,69,127
6282,note_off,,,,,42,0,13,,,,14,,64,0
6282,note_off,,,,,42,0,8,,,,7,,72,0
6282,note_off,,,,,42,0,4,,,,3,,67,0
6282,note_off,,,,,42,0,9,,,,8,,67,0
6282,note_off,,,,,0,0,12,,,,13,,60,0
6282,note_off,,,,,0,0,12,,,,13,,79,0
6282,note_off,,,,,42,0,12,,,,13,,76,0
6282,note_off,,,,,42,0,5,,,,4,,64,0
6282,note_off,,,,,42,0,10,,,,11,,60,0
6282,note_off,,,,,42,0,6,,,,5,,60,0
6282,note_off,,,,,42,0,3,,,,2,,72,0
6282,note_off,,,,,42,0,11,,,,12,,48,0
6282,note_off,,,,,42,0,7,,,,6,,72,0
6285,note_off,,,,,21,0,1,,,,0,,69,0
6285,note_off,,,,,21,0,2,,,,1,,60,0
6288,note_on,,,,,6,0,4,,,,3,,67,62
6288,note_on,,,,,6,0,6,,,,5,,52,62
6288,note_on,,,,,6,0,12,,,,13,,67,36
6288,note_on,,,,,0,0,12,,,,13,,72,36
6288,note_on,,,,,0,0,12,,,,13,,52,36
6288,note_on,,,,,6,0,10,,,,11,,52,36
6288,note_on,,,,,6,0,5,,,,4,,64,62
6288,note_on,,,,,3,0,2,,,,1,,60,127
6288,note_on,,,,,6,0,7,,,,6,,72,96
6288,note_on,,,,,3,0,1,,,,0,,67,127
6288,note_on,,,,,6,0,3,,,,2,,72,62
6288,note_on,,,,,6,0,9,,,,8,,67,75
6288,note_on,,,,,6,0,11,,,,12,,40,36
6288,note_on,,,,,6,0,13,,,,14,,64,75
6288,note_on,,,,,6,0,8,,,,7,,72,75
6330,note_off,,,,,42,0,9,,,,8,,67,0
6330,note_off,,,,,42,0,5,,,,4,,64,0
6330,note_off,,,,,42,0,13,,,,14,,64,0
6330,note_off,,,,,42,0,11,,,,12,,40,0
6330,note_off,,,,,42,0,10,,,,11,,52,0
6330,note_off,,,,,42,0,8,,,,7,,72,0
6330,note_off,,,,,42,0,4,,,,3,,67,0
6330,note_off,,,,,42,0,7,,,,6,,72,0
6330,note_off,,,,,42,0,6,,,,5,,52,0
6330,note_off,,,,,0,0,12,,,,13,,52,0
6330,note_off,,,,,42,0,3,,,,2,,72,0
6330,note_off,,,,,42,0,1,,,,0,,67,0
6330,note_off,,,,,42,0,2,,,,1,,60,0
6330,note_off,,,,,42,0,12,,,,13,,67,0
6330,note_off,,,,,0,0,12,,,,13,,72,0
6336,note_on,,,,,6,0,11,,,,12,,36,36
6336,note_on,,,,,0,0,12,,,,13,,48,36
6336,note_on,,,,,0,0,12,,,,13,,67,36
6336,note_on,,,,,6,0,4,,,,3,,72,62
6336,note_on,,,,,6,0,5,,,,4,,67,62
6336,note_on,,,,,6,0,3,,,,2,,76,62
6336,note_on,,,,,6,0,10,,,,11,,48,36
6336,note_on,,,,,6,0,8,,,,7,,76,75
6336,note_on,,,,,6,0,6,,,,5,,48,62
6336,note_on,,,,,6,0,9,,,,8,,72,75
6336,note_on,,,,,6,0,7,,,,6,,76,96
6336,note_on,,,,,6,0,12,,,,13,,64,36
6336,note_on,,,,,6,0,13,,,,14,,67,75
6357,note_off,,,,,21,0,4,,,,3,,72,0
6357,note_off,,,,,21,0,8,,,,7,,76,0
6357,note_off,,,,,21,0,7,,,,6,,76,0
6357,note_off,,,,,21,0,5,,,,4,,67,0
6357,note_off,,,,,21,0,13,,,,14,,67,0
6357,note_off,,,,,21,0,3,,,,2,,76,0
6357,note_off,,,,,21,0,9,,,,8,,72,0
6360,note_on,,,,,3,0,4,,,,3,,71,62
6360,note_on,,,,,3,0,13,,,,14,,65,75
6360,note_on,,,,,3,0,5,,,,4,,65,62
6360,note_on,,,,,3,0,7,,,,6,,74,96
6360,note_on,,,,,3,0,8,,,,7,,74,75
6360,note_on,,,,,3,0,3,,,,2,,74,62
6360,note_on,,,,,3,0,9,,,,8,,71,75
6378,note_off,,,,,0,0,12,,,,13,,48,0
6378,note_off,,,,,42,0,12,,,,13,,64,0
6378,note_off,,,,,0,0,12,,,,13,,67,0
6378,note_off,,,,,42,0,11,,,,12,,36,0
6378,note_off,,,,,42,0,6,,,,5,,48,0
6378,note_off,,,,,42,0,10,,,,11,,48,0
6381,note_off,,,,,21,0,7,,,,6,,74,0
6381,note_off,,,,,21,0,3,,,,2,,74,0
6381,note_off,,,,,21,0,8,,,,7,,74,0
6381,note_off,,,,,21,0,4,,,,3,,71,0
6381,note_off,,,,,21,0,13,,,,14,,65,0
6381,note_off,,,,,21,0,9,,,,8,,71,0
6381,note_off,,,,,21,0,5,,,,4,,65,0
6384,note_on,,,,,3,0,7,,,,6,,76,96
6384,note_on,,,,,3,0,4,,,,3,,72,62
6384,note_on,,,,,3,0,5,,,,4,,67,62
6384,note_on,,,,,3,0,9,,,,8,,72,75
6384,note_on,,,,,3,0,13,,,,14,,67,75
6384,note_on,,,,,3,0,8,,,,7,,76,75
6384,note_on,,,,,3,0,3,,,,2,,76,62
6405,note_off,,,,,21,0,4,,,,3,,72,0
6405,note_off,,,,,21,0,13,,,,14,,67,0
6405,note_off,,,,,21,0,8,,,,7,,76,0
6405,note_off,,,,,21,0,5,,,,4,,67,0
6405,note_off,,,,,21,0,9,,,,8,,72,0
6405,note_off,,,,,21,0,3,,,,2,,76,0
6405,note_off,,,,,21,0,7,,,,6,,76,0
6408,note_on,,,,,3,0,7,,,,6,,72,96
6408,note_on,,,,,3,0,8,,,,7,,72,75
6408,note_on,,,,,3,0,4,,,,3,,67,62
6408,note_on,,,,,3,0,3,,,,2,,72,62
6408,note_on,,,,,3,0,13,,,,14,,64,75
6408,note_on,,,,,3,0,9,,,,8,,67,75
6408,note_on,,,,,3,0,5,,,,4,,64,62
6429,note_off,,,,,21,0,3,,,,2,,72,0
6429,note_off,,,,,21,0,8,,,,7,,72,0
6429,note_off,,,,,21,0,7,,,,6,,72,0
6429,note_off,,,,,21,0,5,,,,4,,64,0
6429,note_off,,,,,21,0,13,,,,14,,64,0
6429,note_off,,,,,21,0,4,,,,3,,67,0
6429,note_off,,,,,21,0,9,,,,8,,67,0
6432,note_on,,,,,3,0,9,,,,8,,74,75
6432,note_on,,,,,0,0,12,,,,13,,50,36
6432,note_on,,,,,3,0,4,,,,3,,74,62
6432,note_on,,,,,3,0,3,,,,2,,77,62
6432,note_on,,,,,54,0,10,,,,11,,50,36
6432,note_on,,,,,54,0,6,,,,5,,50,62
6432,note_on,,,,,54,0,11,,,,12,,38,36
6432,note_on,,,,,0,0,12,,,,13,,77,36
6432,note_on,,,,,3,0,13,,,,14,,69,75
6432,note_on,,,,,3,0,5,,,,4,,69,62
6432,note_on,,,,,102,0,1,,,,0,,69,127
6432,note_on,,,,,3,0,7,,,,6,,62,96
6432,note_on,,,,,0,0,7,,,,6,,69,96
6432,note_on,,,,,0,0,7,,,,6,,77,96
6432,note_on,,,,,102,0,2,,,,1,,65,127
6432,note_on,,,,,3,0,8,,,,7,,77,75
6432,note_on,,,,,54,0,12,,,,13,,69,36
6453,note_off,,,,,21,0,1,,,,0,,69,0
6453,note_off,,,,,21,0,2,,,,1,,65,0
6456,note_on,,,,,3,0,2,,,,1,,67,127
6456,note_on,,,,,3,0,1,,,,0,,70,127
6474,note_off,,,,,42,0,8,,,,7,,77,0
6474,note_off,,,,,0,0,7,,,,6,,69,0
6474,note_off,,,,,42,0,7,,,,6,,62,0
6474,note_off,,,,,42,0,5,,,,4,,69,0
6474,note_off,,,,,42,0,12,,,,13,,69,0
6474,note_off,,,,,0,0,12,,,,13,,77,0
6474,note_off,,,,,42,0,3,,,,2,,77,0
6474,note_off,,,,,0,0,12,,,,13,,50,0
6474,note_off,,,,,42,0,9,,,,8,,74,0
6474,note_off,,,,,42,0,13,,,,14,,69,0
6474,note_off,,,,,42,0,6,,,,5,,50,0
6474,note_off,,,,,0,0,7,,,,6,,77,0
6474,note_off,,,,,42,0,4,,,,3,,74,0
6474,note_off,,,,,42,0,10,,,,11,,50,0
6474,note_off,,,,,42,0,11,,,,12,,38,0
6477,note_off,,,,,21,0,2,,,,1,,67,0
6477,note_off,,,,,21,0,1,,,,0,,70,0
6480,note_on,,,,,6,0,8,,,,7,,77,75
6480,note_on,,,,,6,0,10,,,,11,,53,36
6480,note_on,,,,,6,0,4,,,,3,,74,62
6480,note_on,,,,,6,0,3,,,,2,,77,62
6480,note_on,,,,,6,0,11,,,,12,,41,36
6480,note_on,,,,,0,0,12,,,,13,,77,36
6480,note_on,,,,,6,0,12,,,,13,,74,36
6480,note_on,,,,,6,0,9,,,,8,,74,75
6480,note_on,,,,,0,0,12,,,,13,,53,36
6480,note_on,,,,,6,0,5,,,,4,,69,62
6480,note_on,,,,,6,0,6,,,,5,,53,62
6480,note_on,,,,,3,0,1,,,,0,,69,127
6480,note_on,,,,,6,0,7,,,,6,,77,96
6480,note_on,,,,,3,0,2,,,,1,,65,127
6480,note_on,,,,,6,0,13,,,,14,,69,75
6501,note_off,,,,,21,0,1,,,,0,,69,0
6501,note_off,,,,,21,0,2,,,,1,,65,0
6504,note_on,,,,,3,0,1,,,,0,,70,127
6504,note_on,,,,,3,0,2,,,,1,,67,127
6522,note_off,,,,,42,0,4,,,,3,,74,0
6522,note_off,,,,,0,0,12,,,,13,,53,0
6522,note_off,,,,,42,0,5,,,,4,,69,0
6522,note_off,,,,,42,0,11,,,,12,,41,0
6522,note_off,,,,,42,0,8,,,,7,,77,0
6522,note_off,,,,,42,0,7,,,,6,,77,0
6522,note_off,,,,,0,0,12,,,,13,,77,0
6522,note_off,,,,,42,0,6,,,,5,,53,0
6522,note_off,,,,,42,0,3,,,,2,,77,0
6522,note_off,,,,,42,0,10,,,,11,,53,0
6522,note_off,,,,,42,0,9,,,,8,,74,0
6522,note_off,,,,,42,0,13,,,,14,,69,0
6522,note_off,,,,,42,0,12,,,,13,,74,0
6525,note_off,,,,,21,0,1,,,,0,,70,0
6525,note_off,,,,,21,0,2,,,,1,,67,0
6528,note_on,,,,,6,0,8,,,,7,,77,75
6528,note_on,,,,,6,0,9,,,,8,,74,75
6528,note_on,,,,,6,0,7,,,,6,,77,96
6528,note_on,,,,,3,0,1,,,,0,,72,127
6528,note_on,,,,,6,0,10,,,,11,,50,36
6528,note_on,,,,,0,0,12,,,,13,,77,36
6528,note_on,,,,,6,0,13,,,,14,,69,75
6528,note_on,,,,,6,0,6,,,,5,,50,62
6528,note_on,,,,,0,0,12,,,,13,,50,36
6528,note_on,,,,,6,0,3,,,,2,,77,62
6528,note_on,,,,,3,0,2,,,,1,,69,127
6528,note_on,,,,,6,0,11,,,,12,,38,36
6528,note_on,,,,,6,0,12,,,,13,,69,36
6528,note_on,,,,,6,0,5,,,,4,,69,62
6528,note_on,,,,,6,0,4,,,,3,,74,62
6549,note_off,,,,,21,0,2,,,,1,,69,0
6549,note_off,,,,,21,0,1,,,,0,,72,0
6552,note_on,,,,,3,0,2,,,,1,,67,127
6552,note_on,,,,,3,0,1,,,,0,,70,127
6570,note_off,,,,,42,0,10,,,,11,,50,0
6570,note_off,,,,,42,0,12,,,,13,,69,0
6570,note_off,,,,,42,0,9,,,,8,,74,0
6570,note_off,,,,,42,0,3,,,,2,,77,0
6570,note_off,,,,,0,0,12,,,,13,,77,0
6570,note_off,,,,,42,0,6,,,,5,,50,0
6570,note_off,,,,,42,0,7,,,,6,,77,0
6570,note_off,,,,,0,0,12,,,,13,,50,0
6570,note_off,,,,,42,0,13,,,,14,,69,0
6570,note_off,,,,,42,0,8,,,,7,,77,0
6570,note_off,,,,,42,0,4,,,,3,,74,0
6570,note_off,,,,,42,0,11,,,,12,,38,0
6570,note_off,,,,,42,0,5,,,,4,,69,0
6573,note_off,,,,,21,0,2,,,,1,,67,0
6573,note_off,,,,,21,0,1,,,,0,,70,0
6576,note_on,,,,,6,0,13,,,,14,,69,75
6576,note_on,,,,,6,0,9,,,,8,,72,75
6576,note_on,,,,,6,0,5,,,,4,,69,62
6576,note_on,,,,,6,0,3,,,,2,,77,62
6576,note_on,,,,,6,0,7,,,,6,,77,96
6576,note_on,,,,,6,0,8,,,,7,,77,75
6576,note_on,,,,,6,0,6,,,,5,,45,62
6576,note_on,,,,,6,0,12,,,,13,,65,36
6576,note_on,,,,,3,0,2,,,,1,,65,127
6576,note_on,,,,,6,0,10,,,,11,,45,36
6576,note_on,,,,,0,0,12,,,,13,,45,36
6576,note_on,,,,,3,0,1,,,,0,,69,127
6576,note_on,,,,,6,0,11,,,,12,,33,36
6576,note_on,,,,,0,0,12,,,,13,,72,36
6576,note_on,,,,,6,0,4,,,,3,,72,62
6597,note_off,,,,,21,0,2,,,,1,,65,0
6597,note_off,,,,,21,0,1,,,,0,,69,0
6600,note_on,,,,,3,0,2,,,,1,,67,127
6600,note_on,,,,,3,0,1,,,,0,,70,127
6618,note_off,,,,,42,0,5,,,,4,,69,0
6618,note_off,,,,,42,0,6,,,,5,,45,0
6618,note_off,,,,,42,0,11,,,,12,,33,0
6618,note_off,,,,,42,0,9,,,,8,,72,0
6618,note_off,,,,,42,0,8,,,,7,,77,0
6618,note_off,,,,,0,0,12,,,,13,,45,0
6618,note_off,,,,,0,0,12,,,,13,,72,0
6618,note_off,,,,,42,0,12,,,,13,,65,0
6618,note_off,,,,,42,0,3,,,,2,,77,0
6618,note_off,,,,,42,0,7,,,,6,,77,0
6618,note_off,,,,,42,0,4,,,,3,,72,0
6618,note_off,,,,,42,0,10,,,,11,,45,0
6618,note_off,,,,,42,0,13,,,,14,,69,0
6621,note_off,,,,,21,0,1,,,,0,,70,0
6621,note_off,,,,,21,0,2,,,,1,,67,0
6624,note_on,,,,,6,0,4,,,,3,,76,62
6624,note_on,,,,,6,0,8,,,,7,,79,75
6624,note_on,,,,,6,0,13,,,,14,,60,75
6624,note_on,,,,,3,0,1,,,,0,,69,127
6624,note_on,,,,,6,0,6,,,,5,,41,62
6624,note_on,,,,,3,0,2,,,,1,,65,127
6624,note_on,,,,,6,0,3,,,,2,,79,62
6624,note_on,,,,,6,0,5,,,,4,,60,62
6624,note_on,,,,,6,0,7,,,,6,,79,96
6624,note_on,,,,,6,0,9,,,,8,,76,75
6624,note_on,,,,,6,0,10,,,,11,,41,36
6624,note_on,,,,,6,0,12,,,,13,,60,36
6624,note_on,,,,,0,0,12,,,,13,,69,36
6624,note_on,,,,,0,0,12,,,,13,,41,36
6624,note_on,,,,,6,0,11,,,,12,,29,36
6645,note_off,,,,,21,0,8,,,,7,,79,0
6645,note_off,,,,,21,0,9,,,,8,,76,0
6645,note_off,,,,,21,0,7,,,,6,,79,0
6645,note_off,,,,,21,0,1,,,,0,,69,0
6645,note_off,,,,,21,0,2,,,,1,,65,0
6645,note_off,,,,,21,0,4,,,,3,,76,0
6645,note_off,,,,,21,0,3,,,,2,,79,0
6648,note_on,,,,,3,0,9,,,,8,,74,75
6648,note_on,,,,,3,0,8,,,,7,,77,75
6648,note_on,,,,,3,0,1,,,,0,,70,127
6648,note_on,,,,,3,0,4,,,,3,,74,62
6648,note_on,,,,,3,0,3,,,,2,,77,62
6648,note_on,,,,,3,0,7,,,,6,,77,96
6648,note_on,,,,,3,0,2,,,,1,,67,127
6666,note_off,,,,,42,0,12,,,,13,,60,0
6666,note_off,,,,,42,0,13,,,,14,,60,0
6666,note_off,,,,,0,0,12,,,,13,,69,0
6666,note_off,,,,,0,0,12,,,,13,,41,0
6666,note_off,,,,,42,0,11,,,,12,,29,0
6666,note_off,,,,,42,0,10,,,,11,,41,0
6666,note_off,,,,,42,0,5,,,,4,,60,0
6666,note_off,,,,,42,0,6,,,,5,,41,0
6669,note_off,,,,,21,0,1,,,,0,,70,0
6669,note_off,,,,,21,0,8,,,,7,,77,0
6669,note_off,,,,,21,0,3,,,,2,,77,0
6669,note_off,,,,,21,0,7,,,,6,,77,0
6669,note_off,,,,,21,0,4,,,,3,,74,0
6669,note_off,,,,,21,0,2,,,,1,,67,0
6669,note_off,,,,,21,0,9,,,,8,,74,0
6672,note_on,,,,,3,0,9,,,,8,,72,75
6672,note_on,,,,,3,0,3,,,,2,,76,62
6672,note_on,,,,,3,0,8,,,,7,,76,75
6672,note_on,,,,,3,0,7,,,,6,,76,96
6672,note_on,,,,,6,0,13,,,,14,,65,75
6672,note_on,,,,,3,0,2,,,,1,,69,127
6672,note_on,,,,,3,0,1,,,,0,,72,127
6672,note_on,,,,,3,0,4,,,,3,,72,62
6672,note_on,,,,,6,0,5,,,,4,,65,62
6693,note_off,,,,,21,0,3,,,,2,,76,0
6693,note_off,,,,,21,0,8,,,,7,,76,0
6693,note_off,,,,,21,0,7,,,,6,,76,0
6693,note_off,,,,,21,0,4,,,,3,,72,0
6693,note_off,,,,,21,0,9,,,,8,,72,0
6696,note_on,,,,,3,0,8,,,,7,,74,75
6696,note_on,,,,,3,0,3,,,,2,,74,62
6696,note_on,,,,,3,0,7,,,,6,,74,96
6696,note_on,,,,,3,0,4,,,,3,,71,62
6696,note_on,,,,,3,0,9,,,,8,,71,75
6714,note_off,,,,,42,0,5,,,,4,,65,0
6714,note_off,,,,,42,0,13,,,,14,,65,0
6714,note_off,,,,,42,0,1,,,,0,,72,0
6714,note_off,,,,,42,0,2,,,,1,,69,0
6717,note_off,,,,,21,0,9,,,,8,,71,0
6717,note_off,,,,,21,0,7,,,,6,,74,0
6717,note_off,,,,,21,0,8,,,,7,,74,0
6717,note_off,,,,,21,0,4,,,,3,,71,0
6717,note_off,,,,,21,0,3,,,,2,,74,0
6720,note_on,,,,,54,0,12,,,,13,,67,36
6720,note_on,,,,,0,0,12,,,,13,,48,36
6720,note_on,,,,,6,0,1,,,,0,,67,127
6720,note_on,,,,,3,0,3,,,,2,,76,62
6720,note_on,,,,,0,0,12,,,,13,,76,36
6720,note_on,,,,,3,0,9,,,,8,,72,75
6720,note_on,,,,,3,0,4,,,,3,,72,62
6720,note_on,,,,,6,0,2,,,,1,,60,127
6720,note_on,,,,,6,0,5,,,,4,,67,62
6720,note_on,,,,,3,0,7,,,,6,,76,96
6720,note_on,,,,,3,0,8,,,,7,,76,75
6720,note_on,,,,,6,0,13,,,,14,,67,75
6720,note_on,,,,,54,0,10,,,,11,,48,36
6720,note_on,,,,,54,0,6,,,,5,,48,62
6720,note_on,,,,,54,0,11,,,,12,,36,36
6741,note_off,,,,,21,0,9,,,,8,,72,0
6741,note_off,,,,,21,0,8,,,,7,,76,0
6741,note_off,,,,,21,0,4,,,,3,,72,0
6741,note_off,,,,,21,0,7,,,,6,,76,0
6741,note_off,,,,,21,0,3,,,,2,,76,0
6744,note_on,,,,,3,0,3,,,,2,,77,62
6744,note_on,,,,,3,0,8,,,,7,,77,75
6744,note_on,,,,,3,0,9,,,,8,,74,75
6744,note_on,,,,,3,0,4,,,,3,,74,62
6744,note_on,,,,,3,0,7,,,,6,,77,96
6762,note_off,,,,,42,0,10,,,,11,,48,0
6762,note_off,,,,,42,0,2,,,,1,,60,0
6762,note_off,,,,,42,0,6,,,,5,,48,0
6762,note_off,,,,,42,0,12,,,,13,,67,0
6762,note_off,,,,,0,0,12,,,,13,,76,0
6762,note_off,,,,,0,0,12,,,,13,,48,0
6762,note_off,,,,,42,0,1,,,,0,,67,0
6762,note_off,,,,,42,0,11,,,,12,,36,0
6762,note_off,,,,,42,0,5,,,,4,,67,0
6762,note_off,,,,,42,0,13,,,,14,,67,0
6765,note_off,,,,,21,0,4,,,,3,,74,0
6765,note_off,,,,,21,0,3,,,,2,,77,0
6765,note_off,,,,,21,0,7,,,,6,,77,0
6765,note_off,,,,,21,0,9,,,,8,,74,0
6765,note_off,,,,,21,0,8,,,,7,,77,0
6768,note_on,,,,,6,0,13,,,,14,,60,75
6768,note_on,,,,,6,0,11,,,,12,,36,36
6768,note_on,,,,,3,0,7,,,,6,,79,96
6768,note_on,,,,,6,0,1,,,,0,,67,127
6768,note_on,,,,,3,0,9,,,,8,,76,75
6768,note_on,,,,,0,0,12,,,,13,,76,36
6768,note_on,,,,,6,0,12,,,,13,,67,36
6768,note_on,,,,,3,0,3,,,,2,,79,62
6768,note_on,,,,,3,0,8,,,,7,,79,75
6768,note_on,,,,,6,0,6,,,,5,,48,62
6768,note_on,,,,,6,0,2,,,,1,,60,127
6768,note_on,,,,,6,0,10,,,,11,,48,36
6768,note_on,,,,,0,0,12,,,,13,,48,36
6768,note_on,,,,,6,0,5,,,,4,,60,62
6768,note_on,,,,,3,0,4,,,,3,,76,62
6778,note_off,,,,,10,0,4,,,,3,,76,0
6778,note_off,,,,,10,0,3,,,,2,,79,0
6778,note_off,,,,,10,0,9,,,,8,,76,0
6778,note_off,,,,,10,0,7,,,,6,,79,0
6778,note_off,,,,,10,0,8,,,,7,,79,0
6780,note_on,,,,,2,0,3,,,,2,,77,62
6780,note_on,,,,,2,0,4,,,,3,,74,62
6780,note_on,,,,,2,0,8,,,,7,,77,75
6780,note_on,,,,,2,0,7,,,,6,,77,96
6780,note_on,,,,,2,0,9,,,,8,,74,75
6789,note_off,,,,,21,0,2,,,,1,,60,0
6789,note_off,,,,,21,0,1,,,,0,,67,0
6790,note_off,,,,,10,0,8,,,,7,,77,0
6790,note_off,,,,,10,0,7,,,,6,,77,0
6790,note_off,,,,,10,0,3,,,,2,,77,0
6790,note_off,,,,,10,0,9,,,,8,,74,0
6790,note_off,,,,,10,0,4,,,,3,,74,0
6792,note_on,,,,,2,0,9,,,,8,,76,75
6792,note_on,,,,,3,0,1,,,,0,,67,127
6792,note_on,,,,,2,0,4,,,,3,,76,62
6792,note_on,,,,,2,0,7,,,,6,,79,96
6792,note_on,,,,,3,0,2,,,,1,,60,127
6792,note_on,,,,,2,0,3,,,,2,,79,62
6792,note_on,,,,,2,0,8,,,,7,,79,75
6802,note_off,,,,,10,0,3,,,,2,,79,0
6802,note_off,,,,,10,0,7,,,,6,,79,0
6802,note_off,,,,,10,0,9,,,,8,,76,0
6802,note_off,,,,,10,0,8,,,,7,,79,0
6802,note_off,,,,,10,0,4,,,,3,,76,0
6804,note_on,,,,,2,0,4,,,,3,,74,62
6804,note_on,,,,,2,0,3,,,,2,,77,62
6804,note_on,,,,,2,0,7,,,,6,,77,96
6804,note_on,,,,,2,0,9,,,,8,,74,75
6804,note_on,,,,,2,0,8,,,,7,,77,75
6810,note_off,,,,,42,0,5,,,,4,,60,0
6810,note_off,,,,,0,0,12,,,,13,,48,0
6810,note_off,,,,,42,0,10,,,,11,,48,0
6810,note_off,,,,,42,0,12,,,,13,,67,0
6810,note_off,,,,,0,0,12,,,,13,,76,0
6810,note_off,,,,,42,0,11,,,,12,,36,0
6810,note_off,,,,,42,0,6,,,,5,,48,0
6810,note_off,,,,,42,0,13,,,,14,,60,0
6813,note_off,,,,,21,0,1,,,,0,,67,0
6813,note_off,,,,,21,0,2,,,,1,,60,0
6814,note_off,,,,,10,0,4,,,,3,,74,0
6814,note_off,,,,,10,0,9,,,,8,,74,0
6814,note_off,,,,,10,0,3,,,,2,,77,0
6814,note_off,,,,,10,0,7,,,,6,,77,0
6814,note_off,,,,,10,0,8,,,,7,,77,0
6816,note_on,,,,,6,0,5,,,,4,,67,62
6816,note_on,,,,,6,0,12,,,,13,,67,36
6816,note_on,,,,,0,0,12,,,,13,,48,36
6816,note_on,,,,,2,0,9,,,,8,,76,75
6816,note_on,,,,,2,0,7,,,,6,,79,96
6816,note_on,,,,,2,0,8,,,,7,,79,75
6816,note_on,,,,,6,0,6,,,,5,,48,62
6816,note_on,,,,,6,0,10,,,,11,,48,36
6816,note_on,,,,,6,0,13,,,,14,,67,75
6816,note_on,,,,,2,0,3,,,,2,,79,62
6816,note_on,,,,,2,0,4,,,,3,,76,62
6816,note_on,,,,,3,0,2,,,,1,,60,127
6816,note_on,,,,,0,0,12,,,,13,,76,36
6816,note_on,,,,,6,0,11,,,,12,,36,36
6816,note_on,,,,,3,0,1,,,,0,,67,127
6826,note_off,,,,,10,0,8,,,,7,,79,0
6826,note_off,,,,,10,0,3,,,,2,,79,0
6826,note_off,,,,,10,0,9,,,,8,,76,0
6826,note_off,,,,,10,0,7,,,,6,,79,0
6826,note_off,,,,,10,0,4,,,,3,,76,0
6828,note_on,,,,,2,0,3,,,,2,,77,62
6828,note_on,,,,,2,0,9,,,,8,,74,75
6828,note_on,,,,,2,0,7,,,,6,,77,96
6828,note_on,,,,,2,0,8,,,,7,,77,75
6828,note_on,,,,,2,0,4,,,,3,,74,62
6837,note_off,,,,,21,0,1,,,,0,,67,0
6837,note_off,,,,,21,0,2,,,,1,,60,0
6838,note_off,,,,,10,0,8,,,,7,,77,0
6838,note_off,,,,,10,0,7,,,,6,,77,0
6838,note_off,,,,,10,0,4,,,,3,,74,0
6838,note_off,,,,,10,0,9,,,,8,,74,0
6838,note_off,,,,,10,0,3,,,,2,,77,0
6840,note_on,,,,,2,0,8,,,,7,,76,75
6840,note_on,,,,,2,0,7,,,,6,,76,96
6840,note_on,,,,,3,0,2,,,,1,,60,127
6840,note_on,,,,,2,0,4,,,,3,,72,62
6840,note_on,,,,,2,0,9,,,,8,,72,75
6840,note_on,,,,,2,0,3,,,,2,,76,62
6840,note_on,,,,,3,0,1,,,,0,,67,127
6850,note_off,,,,,10,0,8,,,,7,,76,0
6850,note_off,,,,,10,0,7,,,,6,,76,0
6850,note_off,,,,,10,0,9,,,,8,,72,0
6850,note_off,,,,,10,0,3,,,,2,,76,0
6850,note_off,,,,,10,0,4,,,,3,,72,0
6852,note_on,,,,,2,0,9,,,,8,,74,75
6852,note_on,,,,,2,0,3,,,,2,,77,62
6852,note_on,,,,,2,0,7,,,,6,,77,96
6852,note_on,,,,,2,0,4,,,,3,,74,62
6852,note_on,,,,,2,0,8,,,,7,,77,75
6858,note_off,,,,,42,0,11,,,,12,,36,0
6858,note_off,,,,,0,0,12,,,,13,,48,0
6858,note_off,,,,,0,0,12,,,,13,,76,0
6858,note_off,,,,,42,0,6,,,,5,,48,0
6858,note_off,,,,,42,0,10,,,,11,,48,0
6858,note_off,,,,,42,0,5,,,,4,,67,0
6858,note_off,,,,,42,0,12,,,,13,,67,0
6858,note_off,,,,,42,0,13,,,,14,,67,0
6861,note_off,,,,,21,0,1,,,,0,,67,0
6861,note_off,,,,,21,0,2,,,,1,,60,0
6862,note_off,,,,,10,0,7,,,,6,,77,0
6862,note_off,,,,,10,0,4,,,,3,,74,0
6862,note_off,,,,,10,0,9,,,,8,,74,0
6862,note_off,,,,,10,0,3,,,,2,,77,0
6862,note_off,,,,,10,0,8,,,,7,,77,0
6864,note_on,,,,,6,0,10,,,,11,,48,36
6864,note_on,,,,,2,0,3,,,,2,,79,62
6864,note_on,,,,,6,0,6,,,,5,,48,62
6864,note_on,,,,,2,0,4,,,,3,,76,62
6864,note_on,,,,,3,0,2,,,,1,,60,127
6864,note_on,,,,,6,0,12,,,,13,,67,36
6864,note_on,,,,,0,0,12,,,,13,,48,36
6864,note_on,,,,,6,0,5,,,,4,,72,62
6864,note_on,,,,,6,0,11,,,,12,,36,36
6864,note_on,,,,,2,0,7,,,,6,,79,96
6864,note_on,,,,,2,0,9,,,,8,,76,75
6864,note_on,,,,,6,0,13,,,,14,,72,75
6864,note_on,,,,,2,0,8,,,,7,,79,75
6864,note_on,,,,,0,0,12,,,,13,,76,36
6864,note_on,,,,,3,0,1,,,,0,,67,127
6885,note_off,,,,,21,0,6,,,,5,,48,0
6885,note_off,,,,,21,0,11,,,,12,,36,0
6885,note_off,,,,,21,0,10,,,,11,,48,0
6885,note_off,,,,,21,0,12,,,,13,,48,0
6888,note_on,,,,,3,0,11,,,,12,,38,36
6888,note_on,,,,,3,0,6,,,,5,,50,62
6888,note_on,,,,,3,0,10,,,,11,,50,36
6888,note_on,,,,,3,0,12,,,,13,,50,36
6906,note_off,,,,,42,0,2,,,,1,,60,0
6906,note_off,,,,,42,0,8,,,,7,,79,0
6906,note_off,,,,,42,0,3,,,,2,,79,0
6906,note_off,,,,,42,0,4,,,,3,,76,0
6906,note_off,,,,,42,0,1,,,,0,,67,0
6906,note_off,,,,,0,0,12,,,,13,,76,0
6906,note_off,,,,,18,0,12,,,,13,,67,0
6906,note_off,,,,,42,0,7,,,,6,,79,0
6906,note_off,,,,,42,0,5,,,,4,,72,0
6909,note_off,,,,,21,0,11,,,,12,,38,0
6909,note_off,,,,,21,0,6,,,,5,,50,0
6909,note_off,,,,,21,0,10,,,,11,,50,0
6909,note_off,,,,,3,0,12,,,,13,,50,0
6912,note_on,,,,,6,0,3,,,,2,,72,62
6912,note_on,,,,,3,0,6,,,,5,,52,62
6912,note_on,,,,,0,0,12,,,,13,,52,36
6912,note_on,,,,,6,0,8,,,,7,,72,75
6912,note_on,,,,,0,0,12,,,,13,,72,36
6912,note_on,,,,,3,0,12,,,,13,,67,36
6912,note_on,,,,,6,0,4,,,,3,,67,62
6912,note_on,,,,,6,0,5,,,,4,,64,62
6912,note_on,,,,,3,0,10,,,,11,,52,36
6912,note_on,,,,,3,0,11,,,,12,,40,36
6933,note_off,,,,,21,0,11,,,,12,,40,0
6933,note_off,,,,,21,0,6,,,,5,,52,0
6933,note_off,,,,,21,0,10,,,,11,,52,0
6933,note_off,,,,,21,0,12,,,,13,,52,0
6936,note_on,,,,,3,0,6,,,,5,,50,62
6936,note_on,,,,,3,0,10,,,,11,,50,36
6936,note_on,,,,,3,0,12,,,,13,,50,36
6936,note_on,,,,,3,0,11,,,,12,,38,36
6948,note_off,,,,,84,0,9,,,,8,,76,0
6948,note_off,,,,,84,0,13,,,,14,,72,0
6954,note_off,,,,,42,0,3,,,,2,,72,0
6954,note_off,,,,,42,0,4,,,,3,,67,0
6954,note_off,,,,,0,0,12,,,,13,,72,0
6954,note_off,,,,,42,0,5,,,,4,,64,0
6954,note_off,,,,,18,0,12,,,,13,,67,0
6954,note_off,,,,,42,0,8,,,,7,,72,0
6957,note_off,,,,,21,0,10,,,,11,,50,0
6957,note_off,,,,,21,0,11,,,,12,,38,0
6957,note_off,,,,,21,0,6,,,,5,,50,0
6957,note_off,,,,,3,0,12,,,,13,,50,0
6960,note_on,,,,,3,0,10,,,,11,,52,36
6960,note_on,,,,,3,0,6,,,,5,,52,62
6960,note_on,,,,,6,0,4,,,,3,,72,62
6960,note_on,,,,,0,0,12,,,,13,,52,36
6960,note_on,,,,,0,0,12,,,,13,,76,36
6960,note_on,,,,,3,0,12,,,,13,,67,36
6960,note_on,,,,,6,0,5,,,,4,,67,62
6960,note_on,,,,,3,0,11,,,,12,,40,36
6960,note_on,,,,,6,0,3,,,,2,,76,62
6960,note_on,,,,,6,0,8,,,,7,,76,75
6981,note_off,,,,,21,0,11,,,,12,,40,0
6981,note_off,,,,,21,0,12,,,,13,,52,0
6981,note_off,,,,,21,0,10,,,,11,,52,0
6981,note_off,,,,,21,0,6,,,,5,,52,0
6984,note_on,,,,,3,0,10,,,,11,,48,36
6984,note_on,,,,,3,0,6,,,,5,,48,62
6984,note_on,,,,,3,0,12,,,,13,,48,36
6984,note_on,,,,,3,0,11,,,,12,,36,36
7002,note_off,,,,,42,0,4,,,,3,,72,0
7002,note_off,,,,,42,0,8,,,,7,,76,0
7002,note_off,,,,,18,0,12,,,,13,,67,0
7002,note_off,,,,,42,0,5,,,,4,,67,0
7002,note_off,,,,,42,0,3,,,,2,,76,0
7002,note_off,,,,,0,0,12,,,,13,,76,0
7005,note_off,,,,,3,0,12,,,,13,,48,0
7005,note_off,,,,,21,0,6,,,,5,,48,0
7005,note_off,,,,,21,0,10,,,,11,,48,0
7005,note_off,,,,,21,0,11,,,,12,,36,0
7008,note_on,,,,,6,0,4,,,,3,,72,62
7008,note_on,,,,,3,0,6,,,,5,,53,62
7008,note_on,,,,,6,0,8,,,,7,,76,75
7008,note_on,,,,,6,0,3,,,,2,,76,62
7008,note_on,,,,,6,0,5,,,,4,,69,62
7008,note_on,,,,,3,0,11,,,,12,,41,36
7008,note_on,,,,,3,0,10,,,,11,,53,36
7008,note_on,,,,,3,0,12,,,,13,,60,36
7008,note_on,,,,,0,0,12,,,,13,,69,36
7008,note_on,,,,,0,0,12,,,,13,,53,36
7029,note_off,,,,,21,0,10,,,,11,,53,0
7029,note_off,,,,,21,0,8,,,,7,,76,0
7029,note_off,,,,,21,0,3,,,,2,,76,0
7029,note_off,,,,,21,0,12,,,,13,,53,0
7029,note_off,,,,,21,0,6,,,,5,,53,0
7029,note_off,,,,,21,0,11,,,,12,,41,0
7032,note_on,,,,,3,0,6,,,,5,,55,62
7032,note_on,,,,,3,0,11,,,,12,,43,36
7032,note_on,,,,,3,0,10,,,,11,,55,36
7032,note_on,,,,,3,0,12,,,,13,,55,36
7032,note_on,,,,,3,0,3,,,,2,,74,62
7032,note_on,,,,,3,0,8,,,,7,,74,75
7050,note_off,,,,,42,0,5,,,,4,,69,0
7050,note_off,,,,,0,0,12,,,,13,,69,0
7050,note_off,,,,,42,0,4,,,,3,,72,0
7050,note_off,,,,,18,0,12,,,,13,,60,0
7053,note_off,,,,,21,0,3,,,,2,,74,0
7053,note_off,,,,,21,0,8,,,,7,,74,0
7053,note_off,,,,,3,0,12,,,,13,,55,0
7053,note_off,,,,,21,0,6,,,,5,,55,0
7053,note_off,,,,,21,0,11,,,,12,,43,0
7053,note_off,,,,,21,0,10,,,,11,,55,0
7056,note_on,,,,,3,0,6,,,,5,,57,62
7056,note_on,,,,,108,0,13,,,,14,,64,75
7056,note_on,,,,,0,0,12,,,,13,,72,36
7056,note_on,,,,,0,0,7,,,,6,,81,96
7056,note_on,,,,,3,0,12,,,,13,,65,36
7056,note_on,,,,,150,0,7,,,,6,,65,96
7056,note_on,,,,,3,0,3,,,,2,,72,62
7056,note_on,,,,,108,0,9,,,,8,,69,75
7056,note_on,,,,,3,0,8,,,,7,,72,75
7056,note_on,,,,,3,0,11,,,,12,,45,36
7056,note_on,,,,,0,0,12,,,,13,,57,36
7056,note_on,,,,,3,0,10,,,,11,,57,36
7056,note_on,,,,,0,0,7,,,,6,,72,96
7077,note_off,,,,,21,0,3,,,,2,,72,0
7077,note_off,,,,,21,0,8,,,,7,,72,0
7077,note_off,,,,,21,0,11,,,,12,,45,0
7077,note_off,,,,,21,0,6,,,,5,,57,0
7077,note_off,,,,,21,0,10,,,,11,,57,0
7077,note_off,,,,,21,0,12,,,,13,,57,0
7080,note_on,,,,,3,0,11,,,,12,,43,36
7080,note_on,,,,,3,0,8,,,,7,,71,75
7080,note_on,,,,,3,0,3,,,,2,,71,62
7080,note_on,,,,,3,0,6,,,,5,,55,62
7080,note_on,,,,,3,0,10,,,,11,,55,36
7080,note_on,,,,,3,0,12,,,,13,,55,36
7098,note_off,,,,,42,0,7,,,,6,,65,0
7098,note_off,,,,,18,0,12,,,,13,,65,0
7098,note_off,,,,,42,0,13,,,,14,,64,0
7098,note_off,,,,,0,0,12,,,,13,,72,0
7098,note_off,,,,,42,0,9,,,,8,,69,0
7098,note_off,,,,,0,0,7,,,,6,,81,0
7098,note_off,,,,,0,0,7,,,,6,,72,0
7101,note_off,,,,,21,0,10,,,,11,,55,0
7101,note_off,,,,,21,0,6,,,,5,,55,0
7101,note_off,,,,,21,0,3,,,,2,,71,0
7101,note_off,,,,,21,0,8,,,,7,,71,0
7101,note_off,,,,,21,0,11,,,,12,,43,0
7101,note_off,,,,,3,0,12,,,,13,,55,0
7104,note_on,,,,,3,0,12,,,,13,,65,36
7104,note_on,,,,,0,0,7,,,,6,,81,96
7104,note_on,,,,,0,0,7,,,,6,,72,96
7104,note_on,,,,,6,0,7,,,,6,,65,96
7104,note_on,,,,,0,0,12,,,,13,,72,36
7104,note_on,,,,,0,0,12,,,,13,,57,36
7104,note_on,,,,,3,0,11,,,,12,,45,36
7104,note_on,,,,,6,0,13,,,,14,,64,75
7104,note_on,,,,,3,0,3,,,,2,,72,62
7104,note_on,,,,,3,0,10,,,,11,,57,36
7104,note_on,,,,,6,0,9,,,,8,,69,75
7104,note_on,,,,,3,0,8,,,,7,,72,75
7104,note_on,,,,,3,0,6,,,,5,,57,62
7125,note_off,,,,,21,0,8,,,,7,,72,0
7125,note_off,,,,,21,0,10,,,,11,,57,0
7125,note_off,,,,,21,0,12,,,,13,,57,0
7125,note_off,,,,,21,0,11,,,,12,,45,0
7125,note_off,,,,,21,0,6,,,,5,,57,0
7125,note_off,,,,,21,0,3,,,,2,,72,0
7128,note_on,,,,,3,0,3,,,,2,,69,62
7128,note_on,,,,,3,0,12,,,,13,,53,36
7128,note_on,,,,,3,0,11,,,,12,,41,36
7128,note_on,,,,,3,0,10,,,,11,,53,36
7128,note_on,,,,,3,0,8,,,,7,,69,75
7128,note_on,,,,,3,0,6,,,,5,,53,62
7146,note_off,,,,,18,0,12,,,,13,,65,0
7146,note_off,,,,,42,0,9,,,,8,,69,0
7146,note_off,,,,,42,0,7,,,,6,,65,0
7146,note_off,,,,,0,0,7,,,,6,,72,0
7146,note_off,,,,,0,0,7,,,,6,,81,0
7146,note_off,,,,,0,0,12,,,,13,,72,0
7146,note_off,,,,,42,0,13,,,,14,,64,0
7149,note_off,,,,,21,0,6,,,,5,,53,0
7149,note_off,,,,,21,0,3,,,,2,,69,0
7149,note_off,,,,,21,0,10,,,,11,,53,0
7149,note_off,,,,,3,0,12,,,,13,,53,0
7149,note_off,,,,,21,0,11,,,,12,,41,0
7149,note_off,,,,,21,0,8,,,,7,,69,0
7152,note_on,,,,,3,0,6,,,,5,,47,62
7152,note_on,,,,,0,0,12,,,,13,,47,36
7152,note_on,,,,,3,0,11,,,,12,,35,36
7152,note_on,,,,,3,0,10,,,,11,,47,36
7152,note_on,,,,,0,0,12,,,,13,,74,36
7152,note_on,,,,,3,0,3,,,,2,,74,62
7152,note_on,,,,,3,0,12,,,,13,,65,36
7152,note_on,,,,,6,0,7,,,,6,,71,96
7152,note_on,,,,,0,0,7,,,,6,,74,96
7152,note_on,,,,,0,0,7,,,,6,,81,96
7152,note_on,,,,,3,0,8,,,,7,,74,75
7152,note_on,,,,,6,0,9,,,,8,,65,75
7152,note_on,,,,,6,0,13,,,,14,,62,75
7173,note_off,,,,,21,0,7,,,,6,,71,0
7173,note_off,,,,,21,0,10,,,,11,,47,0
7173,note_off,,,,,0,0,7,,,,6,,74,0
7173,note_off,,,,,0,0,7,,,,6,,81,0
7173,note_off,,,,,21,0,11,,,,12,,35,0
7173,note_off,,,,,21,0,12,,,,13,,47,0
7173,note_off,,,,,21,0,6,,,,5,,47,0
7176,note_on,,,,,3,0,10,,,,11,,48,36
7176,note_on,,,,,3,0,7,,,,6,,79,96
7176,note_on,,,,,3,0,11,,,,12,,36,36
7176,note_on,,,,,3,0,12,,,,13,,48,36
7176,note_on,,,,,3,0,6,,,,5,,48,62
7194,note_off,,,,,42,0,8,,,,7,,74,0
7194,note_off,,,,,42,0,13,,,,14,,62,0
7194,note_off,,,,,42,0,9,,,,8,,65,0
7194,note_off,,,,,0,0,12,,,,13,,74,0
7194,note_off,,,,,18,0,12,,,,13,,65,0
7194,note_off,,,,,42,0,3,,,,2,,74,0
7197,note_off,,,,,21,0,6,,,,5,,48,0
7197,note_off,,,,,21,0,10,,,,11,,48,0
7197,note_off,,,,,3,0,12,,,,13,,48,0
7197,note_off,,,,,21,0,7,,,,6,,79,0
7197,note_off,,,,,21,0,11,,,,12,,36,0
7200,note_on,,,,,3,0,6,,,,5,,50,62
7200,note_on,,,,,3,0,10,,,,11,,50,36
7200,note_on,,,,,3,0,11,,,,12,,38,36
7200,note_on,,,,,6,0,3,,,,2,,74,62
7200,note_on,,,,,150,0,4,,,,3,,71,62
7200,note_on,,,,,3,0,12,,,,13,,65,36
7200,note_on,,,,,0,0,12,,,,13,,50,36
7200,note_on,,,,,6,0,8,,,,7,,74,75
7200,note_on,,,,,150,0,5,,,,4,,69,62
7200,note_on,,,,,3,0,7,,,,6,,77,96
7200,note_on,,,,,0,0,12,,,,13,,74,36
7221,note_off,,,,,21,0,11,,,,12,,38,0
7221,note_off,,,,,21,0,6,,,,5,,50,0
7221,note_off,,,,,21,0,10,,,,11,,50,0
7221,note_off,,,,,21,0,7,,,,6,,77,0
7221,note_off,,,,,21,0,12,,,,13,,50,0
7224,note_on,,,,,3,0,11,,,,12,,36,36
7224,note_on,,,,,3,0,6,,,,5,,48,62
7224,note_on,,,,,3,0,7,,,,6,,76,96
7224,note_on,,,,,3,0,10,,,,11,,48,36
7224,note_on,,,,,3,0,12,,,,13,,48,36
7242,note_off,,,,,42,0,8,,,,7,,74,0
7242,note_off,,,,,42,0,5,,,,4,,69,0
7242,note_off,,,,,18,0,12,,,,13,,65,0
7242,note_off,,,,,0,0,12,,,,13,,74,0
7242,note_off,,,,,42,0,3,,,,2,,74,0
7242,note_off,,,,,42,0,4,,,,3,,71,0
7245,note_off,,,,,3,0,12,,,,13,,48,0
7245,note_off,,,,,21,0,10,,,,11,,48,0
7245,note_off,,,,,21,0,6,,,,5,,48,0
7245,note_off,,,,,21,0,11,,,,12,,36,0
7245,note_off,,,,,21,0,7,,,,6,,76,0
7248,note_on,,,,,3,0,12,,,,13,,65,36
7248,note_on,,,,,3,0,6,,,,5,,50,62
7248,note_on,,,,,6,0,4,,,,3,,71,62
7248,note_on,,,,,0,0,12,,,,13,,74,36
7248,note_on,,,,,0,0,12,,,,13,,50,36
7248,note_on,,,,,3,0,7,,,,6,,77,96
7248,note_on,,,,,6,0,5,,,,4,,69,62
7248,note_on,,,,,3,0,10,,,,11,,50,36
7248,note_on,,,,,3,0,11,,,,12,,38,36
7248,note_on,,,,,6,0,3,,,,2,,74,62
7248,note_on,,,,,6,0,8,,,,7,,74,75
7269,note_off,,,,,21,0,6,,,,5,,50,0
7269,note_off,,,,,21,0,12,,,,13,,50,0
7269,note_off,,,,,21,0,11,,,,12,,38,0
7269,note_off,,,,,21,0,10,,,,11,,50,0
7269,note_off,,,,,21,0,7,,,,6,,77,0
7272,note_on,,,,,3,0,7,,,,6,,74,96
7272,note_on,,,,,3,0,10,,,,11,,47,36
7272,note_on,,,,,3,0,6,,,,5,,47,62
7272,note_on,,,,,3,0,12,,,,13,,47,36
7272,note_on,,,,,3,0,11,,,,12,,35,36
7290,note_off,,,,,18,0,12,,,,13,,65,0
7290,note_off,,,,,42,0,8,,,,7,,74,0
7290,note_off,,,,,42,0,4,,,,3,,71,0
7290,note_off,,,,,42,0,3,,,,2,,74,0
7290,note_off,,,,,0,0,12,,,,13,,74,0
7290,note_off,,,,,42,0,5,,,,4,,69,0
7293,note_off,,,,,3,0,12,,,,13,,47,0
7293,note_off,,,,,21,0,7,,,,6,,74,0
7293,note_off,,,,,21,0,11,,,,12,,35,0
7293,note_off,,,,,21,0,10,,,,11,,47,0
7293,note_off,,,,,21,0,6,,,,5,,47,0
7296,note_on,,,,,3,0,6,,,,5,,52,62
7296,note_on,,,,,0,0,12,,,,13,,52,36
7296,note_on,,,,,3,0,12,,,,13,,67,36
7296,note_on,,,,,3,0,11,,,,12,,40,36
7296,note_on,,,,,0,0,12,,,,13,,71,36
7296,note_on,,,,,6,0,5,,,,4,,67,62
7296,note_on,,,,,3,0,7,,,,6,,79,96
7296,note_on,,,,,3,0,10,,,,11,,52,36
7296,note_on,,,,,6,0,8,,,,7,,74,75
7296,note_on,,,,,6,0,4,,,,3,,71,62
7296,note_on,,,,,6,0,3,,,,2,,74,62
7317,note_off,,,,,21,0,11,,,,12,,40,0
7317,note_off,,,,,21,0,10,,,,11,,52,0
7317,note_off,,,,,21,0,3,,,,2,,74,0
7317,note_off,,,,,21,0,8,,,,7,,74,0
7317,note_off,,,,,21,0,6,,,,5,,52,0
7317,note_off,,,,,21,0,12,,,,13,,52,0
7320,note_on,,,,,3,0,12,,,,13,,53,36
7320,note_on,,,,,3,0,6,,,,5,,53,62
7320,note_on,,,,,3,0,11,,,,12,,41,36
7320,note_on,,,,,3,0,3,,,,2,,72,62
7320,note_on,,,,,3,0,10,,,,11,,53,36
7320,note_on,,,,,3,0,8,,,,7,,72,75
7338,note_off,,,,,0,0,12,,,,13,,71,0
7338,note_off,,,,,18,0,12,,,,13,,67,0
7338,note_off,,,,,42,0,7,,,,6,,79,0
7338,note_off,,,,,42,0,5,,,,4,,67,0
7338,note_off,,,,,42,0,4,,,,3,,71,0
7341,note_off,,,,,3,0,12,,,,13,,53,0
7341,note_off,,,,,21,0,10,,,,11,,53,0
7341,note_off,,,,,21,0,6,,,,5,,53,0
7341,note_off,,,,,21,0,3,,,,2,,72,0
7341,note_off,,,,,21,0,11,,,,12,,41,0
7341,note_off,,,,,21,0,8,,,,7,,72,0
7344,note_on,,,,,150,0,13,,,,14,,62,75
7344,note_on,,,,,3,0,3,,,,2,,71,62
7344,note_on,,,,,3,0,10,,,,11,,55,36
7344,note_on,,,,,3,0,6,,,,5,,55,62
7344,note_on,,,,,3,0,8,,,,7,,71,75
7344,note_on,,,,,3,0,12,,,,13,,64,36
7344,note_on,,,,,0,0,12,,,,13,,71,36
7344,note_on,,,,,0,0,12,,,,13,,55,36
7344,note_on,,,,,0,0,7,,,,6,,79,96
7344,note_on,,,,,0,0,7,,,,6,,76,96
7344,note_on,,,,,3,0,11,,,,12,,43,36
7344,note_on,,,,,0,0,7,,,,6,,71,96
7344,note_on,,,,,6,0,7,,,,6,,64,96
7344,note_on,,,,,150,0,9,,,,8,,67,75
7365,note_off,,,,,21,0,8,,,,7,,71,0
7365,note_off,,,,,21,0,12,,,,13,,55,0
7365,note_off,,,,,21,0,10,,,,11,,55,0
7365,note_off,,,,,21,0,6,,,,5,,55,0
7365,note_off,,,,,21,0,11,,,,12,,43,0
7365,note_off,,,,,21,0,3,,,,2,,71,0
7368,note_on,,,,,3,0,11,,,,12,,41,36
7368,note_on,,,,,3,0,3,,,,2,,69,62
7368,note_on,,,,,3,0,10,,,,11,,53,36
7368,note_on,,,,,3,0,8,,,,7,,69,75
7368,note_on,,,,,3,0,12,,,,13,,53,36
7368,note_on,,,,,3,0,6,,,,5,,53,62
7386,note_off,,,,,0,0,7,,,,6,,76,0
7386,note_off,,,,,42,0,9,,,,8,,67,0
7386,note_off,,,,,18,0,12,,,,13,,64,0
7386,note_off,,,,,0,0,7,,,,6,,79,0
7386,note_off,,,,,42,0,13,,,,14,,62,0
7386,note_off,,,,,0,0,12,,,,13,,71,0
7386,note_off,,,,,0,0,7,,,,6,,71,0
7386,note_off,,,,,42,0,7,,,,6,,64,0
7389,note_off,,,,,21,0,10,,,,11,,53,0
7389,note_off,,,,,21,0,8,,,,7,,69,0
7389,note_off,,,,,21,0,11,,,,12,,41,0
7389,note_off,,,,,21,0,6,,,,5,,53,0
7389,note_off,,,,,3,0,12,,,,13,,53,0
7389,note_off,,,,,21,0,3,,,,2,,69,0
7392,note_on,,,,,3,0,6,,,,5,,55,62
7392,note_on,,,,,0,0,12,,,,13,,55,36
7392,note_on,,,,,0,0,12,,,,13,,71,36
7392,note_on,,,,,3,0,8,,,,7,,71,75
7392,note_on,,,,,3,0,12,,,,13,,67,36
7392,note_on,,,,,3,0,10,,,,11,,55,36
7392,note_on,,,,,0,0,7,,,,6,,79,96
7392,note_on,,,,,3,0,11,,,,12,,43,36
7392,note_on,,,,,0,0,7,,,,6,,76,96
7392,note_on,,,,,0,0,7,,,,6,,71,96
7392,note_on,,,,,6,0,9,,,,8,,67,75
7392,note_on,,,,,6,0,7,,,,6,,64,96
7392,note_on,,,,,3,0,3,,,,2,,71,62
7392,note_on,,,,,6,0,13,,,,14,,62,75
7413,note_off,,,,,21,0,3,,,,2,,71,0
7413,note_off,,,,,21,0,6,,,,5,,55,0
7413,note_off,,,,,21,0,11,,,,12,,43,0
7413,note_off,,,,,21,0,12,,,,13,,55,0
7413,note_off,,,,,21,0,10,,,,11,,55,0
7413,note_off,,,,,21,0,8,,,,7,,71,0
7416,note_on,,,,,3,0,6,,,,5,,52,62
7416,note_on,,,,,3,0,12,,,,13,,52,36
7416,note_on,,,,,3,0,8,,,,7,,67,75
7416,note_on,,,,,3,0,10,,,,11,,52,36
7416,note_on,,,,,3,0,3,,,,2,,67,62
7416,note_on,,,,,3,0,11,,,,12,,40,36
7434,note_off,,,,,42,0,13,,,,14,,62,0
7434,note_off,,,,,0,0,7,,,,6,,79,0
7434,note_off,,,,,0,0,7,,,,6,,76,0
7434,note_off,,,,,0,0,7,,,,6,,71,0
7434,note_off,,,,,42,0,7,,,,6,,64,0
7434,note_off,,,,,18,0,12,,,,13,,67,0
7434,note_off,,,,,42,0,9,,,,8,,67,0
7434,note_off,,,,,0,0,12,,,,13,,71,0
7437,note_off,,,,,21,0,6,,,,5,,52,0
7437,note_off,,,,,21,0,3,,,,2,,67,0
7437,note_off,,,,,3,0,12,,,,13,,52,0
7437,note_off,,,,,21,0,10,,,,11,,52,0
7437,note_off,,,,,21,0,8,,,,7,,67,0
7437,note_off,,,,,21,0,11,,,,12,,40,0
7440,note_on,,,,,0,0,12,,,,13,,45,36
7440,note_on,,,,,3,0,8,,,,7,,72,75
7440,note_on,,,,,3,0,10,,,,11,,45,36
7440,note_on,,,,,3,0,12,,,,13,,64,36
7440,note_on,,,,,0,0,12,,,,13,,72,36
7440,note_on,,,,,3,0,3,,,,2,,72,62
7440,note_on,,,,,6,0,13,,,,14,,60,75
7440,note_on,,,,,6,0,9,,,,8,,64,75
7440,note_on,,,,,3,0,11,,,,12,,33,36
7440,note_on,,,,,3,0,6,,,,5,,45,62
7440,note_on,,,,,6,0,7,,,,6,,69,96
7440,note_on,,,,,0,0,7,,,,6,,72,96
7440,note_on,,,,,0,0,7,,,,6,,79,96
7461,note_off,,,,,21,0,10,,,,11,,45,0
7461,note_off,,,,,21,0,6,,,,5,,45,0
7461,note_off,,,,,21,0,11,,,,12,,33,0
7461,note_off,,,,,21,0,12,,,,13,,45,0
7461,note_off,,,,,21,0,7,,,,6,,69,0
7461,note_off,,,,,0,0,7,,,,6,,72,0
7461,note_off,,,,,0,0,7,,,,6,,79,0
7464,note_on,,,,,3,0,12,,,,13,,47,36
7464,note_on,,,,,3,0,7,,,,6,,77,96
7464,note_on,,,,,3,0,6,,,,5,,47,62
7464,note_on,,,,,3,0,10,,,,11,,47,36
7464,note_on,,,,,3,0,11,,,,12,,35,36
7482,note_off,,,,,0,0,12,,,,13,,72,0
7482,note_off,,,,,18,0,12,,,,13,,64,0
7482,note_off,,,,,42,0,13,,,,14,,60,0
7482,note_off,,,,,42,0,3,,,,2,,72,0
7482,note_off,,,,,42,0,8,,,,7,,72,0
7482,note_off,,,,,42,0,9,,,,8,,64,0
7485,note_off,,,,,21,0,6,,,,5,,47,0
7485,note_off,,,,,21,0,10,,,,11,,47,0
7485,note_off,,,,,3,0,12,,,,13,,47,0
7485,note_off,,,,,21,0,11,,,,12,,35,0
7485,note_off,,,,,21,0,7,,,,6,,77,0
7488,note_on,,,,,150,0,5,,,,4,,67,62
7488,note_on,,,,,3,0,10,,,,11,,48,36
7488,note_on,,,,,3,0,11,,,,12,,36,36
7488,note_on,,,,,150,0,4,,,,3,,69,62
7488,note_on,,,,,6,0,3,,,,2,,72,62
7488,note_on,,,,,6,0,8,,,,7,,72,75
7488,note_on,,,,,0,0,12,,,,13,,48,36
7488,note_on,,,,,0,0,12,,,,13,,72,36
7488,note_on,,,,,3,0,12,,,,13,,64,36
7488,note_on,,,,,3,0,6,,,,5,,48,62
7488,note_on,,,,,3,0,7,,,,6,,76,96
7509,note_off,,,,,21,0,12,,,,13,,48,0
7509,note_off,,,,,21,0,11,,,,12,,36,0
7509,note_off,,,,,21,0,10,,,,11,,48,0
7509,note_off,,,,,21,0,6,,,,5,,48,0
7509,note_off,,,,,21,0,7,,,,6,,76,0
7512,note_on,,,,,3,0,12,,,,13,,47,36
7512,note_on,,,,,3,0,7,,,,6,,74,96
7512,note_on,,,,,3,0,10,,,,11,,47,36
7512,note_on,,,,,3,0,11,,,,12,,35,36
7512,note_on,,,,,3,0,6,,,,5,,47,62
7530,note_off,,,,,42,0,5,,,,4,,67,0
7530,note_off,,,,,42,0,8,,,,7,,72,0
7530,note_off,,,,,42,0,4,,,,3,,69,0
7530,note_off,,,,,42,0,3,,,,2,,72,0
7530,note_off,,,,,18,0,12,,,,13,,64,0
7530,note_off,,,,,0,0,12,,,,13,,72,0
7533,note_off,,,,,21,0,10,,,,11,,47,0
7533,note_off,,,,,21,0,11,,,,12,,35,0
7533,note_off,,,,,21,0,7,,,,6,,74,0
7533,note_off,,,,,21,0,6,,,,5,,47,0
7533,note_off,,,,,3,0,12,,,,13,,47,0
7536,note_on,,,,,6,0,8,,,,7,,72,75
7536,note_on,,,,,3,0,7,,,,6,,76,96
7536,note_on,,,,,3,0,6,,,,5,,48,62
7536,note_on,,,,,3,0,12,,,,13,,64,36
7536,note_on,,,,,0,0,12,,,,13,,72,36
7536,note_on,,,,,0,0,12,,,,13,,48,36
7536,note_on,,,,,6,0,3,,,,2,,72,62
7536,note_on,,,,,6,0,4,,,,3,,69,62
7536,note_on,,,,,6,0,5,,,,4,,67,62
7536,note_on,,,,,3,0,11,,,,12,,36,36
7536,note_on,,,,,3,0,10,,,,11,,48,36
7557,note_off,,,,,21,0,12,,,,13,,48,0
7557,note_off,,,,,21,0,6,,,,5,,48,0
7557,note_off,,,,,21,0,7,,,,6,,76,0
7557,note_off,,,,,21,0,11,,,,12,,36,0
7557,note_off,,,,,21,0,10,,,,11,,48,0
7560,note_on,,,,,3,0,7,,,,6,,72,96
7560,note_on,,,,,3,0,11,,,,12,,33,36
7560,note_on,,,,,3,0,10,,,,11,,45,36
7560,note_on,,,,,3,0,6,,,,5,,45,62
7560,note_on,,,,,3,0,12,,,,13,,45,36
7578,note_off,,,,,42,0,4,,,,3,,69,0
7578,note_off,,,,,42,0,8,,,,7,,72,0
7578,note_off,,,,,18,0,12,,,,13,,64,0
7578,note_off,,,,,42,0,3,,,,2,,72,0
7578,note_off,,,,,0,0,12,,,,13,,72,0
7578,note_off,,,,,42,0,5,,,,4,,67,0
7581,note_off,,,,,21,0,7,,,,6,,72,0
7581,note_off,,,,,21,0,6,,,,5,,45,0
7581,note_off,,,,,21,0,10,,,,11,,45,0
7581,note_off,,,,,3,0,12,,,,13,,45,0
7581,note_off,,,,,21,0,11,,,,12,,33,0
7584,note_on,,,,,6,0,8,,,,7,,72,75
7584,note_on,,,,,0,0,12,,,,13,,50,36
7584,note_on,,,,,0,0,12,,,,13,,77,36
7584,note_on,,,,,3,0,7,,,,6,,77,96
7584,note_on,,,,,6,0,4,,,,3,,69,62
7584,note_on,,,,,3,0,6,,,,5,,50,62
7584,note_on,,,,,3,0,10,,,,11,,50,36
7584,note_on,,,,,3,0,12,,,,13,,69,36
7584,note_on,,,,,3,0,11,,,,12,,38,36
7584,note_on,,,,,6,0,3,,,,2,,72,62
7584,note_on,,,,,6,0,5,,,,4,,65,62
7605,note_off,,,,,21,0,6,,,,5,,50,0
7605,note_off,,,,,21,0,3,,,,2,,72,0
7605,note_off,,,,,21,0,8,,,,7,,72,0
7605,note_off,,,,,21,0,12,,,,13,,50,0
7605,note_off,,,,,21,0,10,,,,11,,50,0
7605,note_off,,,,,21,0,11,,,,12,,38,0
7608,note_on,,,,,3,0,10,,,,11,,52,36
7608,note_on,,,,,3,0,6,,,,5,,52,62
7608,note_on,,,,,3,0,8,,,,7,,71,75
7608,note_on,,,,,3,0,3,,,,2,,71,62
7608,note_on,,,,,3,0,12,,,,13,,52,36
7608,note_on,,,,,3,0,11,,,,12,,40,36
7626,note_off,,,,,42,0,4,,,,3,,69,0
7626,note_off,,,,,42,0,7,,,,6,,77,0
7626,note_off,,,,,42,0,5,,,,4,,65,0
7626,note_off,,,,,18,0,12,,,,13,,69,0
7626,note_off,,,,,0,0,12,,,,13,,77,0
7629,note_off,,,,,21,0,8,,,,7,,71,0
7629,note_off,,,,,21,0,10,,,,11,,52,0
7629,note_off,,,,,3,0,12,,,,13,,52,0
7629,note_off,,,,,21,0,11,,,,12,,40,0
7629,note_off,,,,,21,0,6,,,,5,,52,0
7629,note_off,,,,,21,0,3,,,,2,,71,0
7632,note_on,,,,,3,0,10,,,,11,,53,36
7632,note_on,,,,,3,0,11,,,,12,,41,36
7632,note_on,,,,,0,0,7,,,,6,,77,96
7632,note_on,,,,,3,0,3,,,,2,,69,62
7632,note_on,,,,,3,0,6,,,,5,,53,62
7632,note_on,,,,,0,0,7,,,,6,,69,96
7632,note_on,,,,,150,0,13,,,,14,,60,75
7632,note_on,,,,,0,0,12,,,,13,,53,36
7632,note_on,,,,,0,0,12,,,,13,,74,36
7632,note_on,,,,,3,0,12,,,,13,,69,36
7632,note_on,,,,,150,0,9,,,,8,,65,75
7632,note_on,,,,,6,0,7,,,,6,,62,96
7632,note_on,,,,,3,0,8,,,,7,,69,75
7653,note_off,,,,,21,0,10,,,,11,,53,0
7653,note_off,,,,,21,0,12,,,,13,,53,0
7653,note_off,,,,,21,0,8,,,,7,,69,0
7653,note_off,,,,,21,0,11,,,,12,,41,0
7653,note_off,,,,,21,0,3,,,,2,,69,0
7653,note_off,,,,,21,0,6,,,,5,,53,0
7656,note_on,,,,,3,0,10,,,,11,,52,36
7656,note_on,,,,,3,0,3,,,,2,,67,62
7656,note_on,,,,,3,0,11,,,,12,,40,36
7656,note_on,,,,,3,0,8,,,,7,,67,75
7656,note_on,,,,,3,0,12,,,,13,,52,36
7656,note_on,,,,,3,0,6,,,,5,,52,62
7674,note_off,,,,,42,0,13,,,,14,,60,0
7674,note_off,,,,,42,0,9,,,,8,,65,0
7674,note_off,,,,,0,0,7,,,,6,,69,0
7674,note_off,,,,,42,0,7,,,,6,,62,0
7674,note_off,,,,,0,0,7,,,,6,,77,0
7674,note_off,,,,,18,0,12,,,,13,,69,0
7674,note_off,,,,,0,0,12,,,,13,,74,0
7677,note_off,,,,,21,0,11,,,,12,,40,0
7677,note_off,,,,,21,0,10,,,,11,,52,0
7677,note_off,,,,,21,0,6,,,,5,,52,0
7677,note_off,,,,,21,0,8,,,,7,,67,0
7677,note_off,,,,,21,0,3,,,,2,,67,0
7677,note_off,,,,,3,0,12,,,,13,,52,0
7680,note_on,,,,,6,0,13,,,,14,,60,75
7680,note_on,,,,,3,0,8,,,,7,,69,75
7680,note_on,,,,,3,0,11,,,,12,,41,36
7680,note_on,,,,,6,0,9,,,,8,,65,75
7680,note_on,,,,,3,0,3,,,,2,,69,62
7680,note_on,,,,,0,0,12,,,,13,,74,36
7680,note_on,,,,,3,0,12,,,,13,,69,36
7680,note_on,,,,,3,0,10,,,,11,,53,36
7680,note_on,,,,,3,0,6,,,,5,,53,62
7680,note_on,,,,,0,0,7,,,,6,,69,96
7680,note_on,,,,,6,0,7,,,,6,,62,96
7680,note_on,,,,,0,0,7,,,,6,,77,96
7680,note_on,,,,,0,0,12,,,,13,,53,36
7701,note_off,,,,,21,0,12,,,,13,,53,0
7701,note_off,,,,,21,0,8,,,,7,,69,0
7701,note_off,,,,,21,0,6,,,,5,,53,0
7701,note_off,,,,,21,0,3,,,,2,,69,0
7701,note_off,,,,,21,0,11,,,,12,,41,0
7701,note_off,,,,,21,0,10,,,,11,,53,0
7704,note_on,,,,,3,0,3,,,,2,,65,62
7704,note_on,,,,,3,0,10,,,,11,,50,36
7704,note_on,,,,,3,0,8,,,,7,,65,75
7704,note_on,,,,,3,0,6,,,,5,,50,62
7704,note_on,,,,,3,0,12,,,,13,,50,36
7704,note_on,,,,,3,0,11,,,,12,,38,36
7722,note_off,,,,,42,0,9,,,,8,,65,0
7722,note_off,,,,,42,0,7,,,,6,,62,0
7722,note_off,,,,,0,0,7,,,,6,,69,0
7722,note_off,,,,,0,0,12,,,,13,,74,0
7722,note_off,,,,,18,0,12,,,,13,,69,0
7722,note_off,,,,,42,0,13,,,,14,,60,0
7722,note_off,,,,,0,0,7,,,,6,,77,0
7725,note_off,,,,,21,0,11,,,,12,,38,0
7725,note_off,,,,,21,0,3,,,,2,,65,0
7725,note_off,,,,,21,0,8,,,,7,,65,0
7725,note_off,,,,,3,0,12,,,,13,,50,0
7725,note_off,,,,,21,0,6,,,,5,,50,0
7725,note_off,,,,,21,0,10,,,,11,,50,0
7728,note_on,,,,,0,0,12,,,,13,,43,36
7728,note_on,,,,,6,0,13,,,,14,,59,75
7728,note_on,,,,,3,0,3,,,,2,,71,62
7728,note_on,,,,,3,0,8,,,,7,,71,75
7728,note_on,,,,,3,0,12,,,,13,,67,36
7728,note_on,,,,,3,0,11,,,,12,,31,36
7728,note_on,,,,,6,0,9,,,,8,,62,75
7728,note_on,,,,,3,0,10,,,,11,,43,36
7728,note_on,,,,,6,0,7,,,,6,,62,96
7728,note_on,,,,,0,0,7,,,,6,,71,96
7728,note_on,,,,,0,0,7,,,,6,,77,96
7728,note_on,,,,,3,0,6,,,,5,,43,62
7749,note_off,,,,,21,0,8,,,,7,,71,0
7749,note_off,,,,,21,0,7,,,,6,,62,0
7749,note_off,,,,,0,0,7,,,,6,,71,0
7749,note_off,,,,,0,0,7,,,,6,,77,0
7749,note_off,,,,,21,0,3,,,,2,,71,0
7752,note_on,,,,,3,0,3,,,,2,,72,62
7752,note_on,,,,,3,0,7,,,,6,,76,96
7752,note_on,,,,,3,0,8,,,,7,,72,75
7770,note_off,,,,,42,0,11,,,,12,,31,0
7770,note_off,,,,,42,0,9,,,,8,,62,0
7770,note_off,,,,,0,0,12,,,,13,,43,0
7770,note_off,,,,,42,0,12,,,,13,,67,0
7770,note_off,,,,,42,0,10,,,,11,,43,0
7770,note_off,,,,,42,0,6,,,,5,,43,0
7770,note_off,,,,,42,0,13,,,,14,,59,0
7773,note_off,,,,,21,0,7,,,,6,,76,0
7773,note_off,,,,,21,0,8,,,,7,,72,0
7773,note_off,,,,,21,0,3,,,,2,,72,0
7776,note_on,,,,,6,0,13,,,,14,,65,75
7776,note_on,,,,,3,0,7,,,,6,,74,96
7776,note_on,,,,,150,0,5,,,,4,,65,62
7776,note_on,,,,,6,0,10,,,,11,,43,36
7776,note_on,,,,,6,0,11,,,,12,,31,36
7776,note_on,,,,,6,0,9,,,,8,,67,75
7776,note_on,,,,,870,0,1,,,,0,,67,127
7776,note_on,,,,,3,0,8,,,,7,,71,75
7776,note_on,,,,,0,0,12,,,,13,,43,36
7776,note_on,,,,,6,0,12,,,,13,,67,36
7776,note_on,,,,,3,0,3,,,,2,,71,62
7776,note_on,,,,,6,0,6,,,,5,,43,62
7776,note_on,,,,,150,0,4,,,,3,,67,62
7776,note_on,,,,,870,0,2,,,,1,,67,127
7797,note_off,,,,,21,0,8,,,,7,,71,0
7797,note_off,,,,,21,0,7,,,,6,,74,0
7797,note_off,,,,,21,0,3,,,,2,,71,0
7800,note_on,,,,,3,0,7,,,,6,,72,96
7800,note_on,,,,,3,0,3,,,,2,,69,62
7800,note_on,,,,,3,0,8,,,,7,,69,75
7818,note_off,,,,,42,0,1,,,,0,,67,0
7818,note_off,,,,,42,0,6,,,,5,,43,0
7818,note_off,,,,,42,0,2,,,,1,,67,0
7818,note_off,,,,,42,0,4,,,,3,,67,0
7818,note_off,,,,,42,0,9,,,,8,,67,0
7818,note_off,,,,,42,0,12,,,,13,,67,0
7818,note_off,,,,,0,0,12,,,,13,,43,0
7818,note_off,,,,,42,0,10,,,,11,,43,0
7818,note_off,,,,,42,0,13,,,,14,,65,0
7818,note_off,,,,,42,0,11,,,,12,,31,0
7818,note_off,,,,,42,0,5,,,,4,,65,0
7821,note_off,,,,,21,0,7,,,,6,,72,0
7821,note_off,,,,,21,0,3,,,,2,,69,0
7821,note_off,,,,,21,0,8,,,,7,,69,0
7824,note_on,,,,,6,0,5,,,,4,,65,62
7824,note_on,,,,,3,0,3,,,,2,,71,62
7824,note_on,,,,,6,0,9,,,,8,,67,75
7824,note_on,,,,,6,0,1,,,,0,,67,127
7824,note_on,,,,,6,0,6,,,,5,,43,62
7824,note_on,,,,,6,0,11,,,,12,,31,36
7824,note_on,,,,,6,0,12,,,,13,,67,36
7824,note_on,,,,,0,0,12,,,,13,,43,36
7824,note_on,,,,,3,0,8,,,,7,,71,75
7824,note_on,,,,,6,0,2,,,,1,,67,127
7824,note_on,,,,,3,0,7,,,,6,,74,96
7824,note_on,,,,,6,0,4,,,,3,,67,62
7824,note_on,,,,,6,0,10,,,,11,,43,36
7824,note_on,,,,,6,0,13,,,,14,,65,75
7845,note_off,,,,,21,0,7,,,,6,,74,0
7845,note_off,,,,,21,0,3,,,,2,,71,0
7845,note_off,,,,,21,0,8,,,,7,,71,0
7848,note_on,,,,,3,0,8,,,,7,,67,75
7848,note_on,,,,,3,0,7,,,,6,,71,96
7848,note_on,,,,,3,0,3,,,,2,,67,62
7866,note_off,,,,,42,0,6,,,,5,,43,0
7866,note_off,,,,,42,0,9,,,,8,,67,0
7866,note_off,,,,,42,0,4,,,,3,,67,0
7866,note_off,,,,,42,0,2,,,,1,,67,0
7866,note_off,,,,,42,0,5,,,,4,,65,0
7866,note_off,,,,,42,0,13,,,,14,,65,0
7866,note_off,,,,,42,0,10,,,,11,,43,0
7866,note_off,,,,,0,0,12,,,,13,,43,0
7866,note_off,,,,,42,0,12,,,,13,,67,0
7866,note_off,,,,,42,0,1,,,,0,,67,0
7866,note_off,,,,,42,0,11,,,,12,,31,0
7869,note_off,,,,,21,0,8,,,,7,,67,0
7869,note_off,,,,,21,0,3,,,,2,,67,0
7869,note_off,,,,,21,0,7,,,,6,,71,0
7872,note_on,,,,,6,0,11,,,,12,,31,36
7872,note_on,,,,,0,0,12,,,,13,,43,36
7872,note_on,,,,,6,0,12,,,,13,,67,36
7872,note_on,,,,,3,0,7,,,,6,,76,96
7872,note_on,,,,,6,0,13,,,,14,,64,75
7872,note_on,,,,,6,0,1,,,,0,,67,127
7872,note_on,,,,,6,0,6,,,,5,,43,62
7872,note_on,,,,,6,0,5,,,,4,,64,62
7872,note_on,,,,,3,0,8,,,,7,,72,75
7872,note_on,,,,,3,0,3,,,,2,,72,62
7872,note_on,,,,,6,0,2,,,,1,,67,127
7872,note_on,,,,,6,0,10,,,,11,,43,36
7872,note_on,,,,,6,0,9,,,,8,,67,75
7872,note_on,,,,,6,0,4,,,,3,,67,62
7893,note_off,,,,,21,0,8,,,,7,,72,0
7893,note_off,,,,,21,0,3,,,,2,,72,0
7896,note_on,,,,,3,0,8,,,,7,,71,75
7896,note_on,,,,,3,0,3,,,,2,,71,62
7914,note_off,,,,,42,0,6,,,,5,,43,0
7914,note_off,,,,,42,0,2,,,,1,,67,0
7914,note_off,,,,,42,0,4,,,,3,,67,0
7914,note_off,,,,,42,0,9,,,,8,,67,0
7914,note_off,,,,,42,0,11,,,,12,,31,0
7914,note_off,,,,,42,0,10,,,,11,,43,0
7914,note_off,,,,,0,0,12,,,,13,,43,0
7914,note_off,,,,,42,0,5,,,,4,,64,0
7914,note_off,,,,,42,0,1,,,,0,,67,0
7914,note_off,,,,,42,0,12,,,,13,,67,0
7914,note_off,,,,,42,0,13,,,,14,,64,0
7914,note_off,,,,,42,0,7,,,,6,,76,0
7917,note_off,,,,,21,0,3,,,,2,,71,0
7917,note_off,,,,,21,0,8,,,,7,,71,0
7920,note_on,,,,,6,0,6,,,,5,,43,62
7920,note_on,,,,,6,0,1,,,,0,,67,127
7920,note_on,,,,,3,0,8,,,,7,,72,75
7920,note_on,,,,,0,0,7,,,,6,,67,96
7920,note_on,,,,,0,0,7,,,,6,,76,96
7920,note_on,,,,,6,0,10,,,,11,,43,36
7920,note_on,,,,,6,0,9,,,,8,,67,75
7920,note_on,,,,,6,0,7,,,,6,,60,96
7920,note_on,,,,,6,0,2,,,,1,,67,127
7920,note_on,,,,,6,0,4,,,,3,,67,62
7920,note_on,,,,,3,0,3,,,,2,,72,62
7920,note_on,,,,,6,0,12,,,,13,,67,36
7920,note_on,,,,,6,0,11,,,,12,,31,36
7920,note_on,,,,,6,0,13,,,,14,,64,75
7920,note_on,,,,,6,0,5,,,,4,,64,62
7920,note_on,,,,,0,0,12,,,,13,,43,36
7941,note_off,,,,,21,0,8,,,,7,,72,0
7941,note_off,,,,,21,0,3,,,,2,,72,0
7944,note_on,,,,,3,0,8,,,,7,,74,75
7944,note_on,,,,,3,0,3,,,,2,,74,62
7962,note_off,,,,,42,0,9,,,,8,,67,0
7962,note_off,,,,,42,0,1,,,,0,,67,0
7962,note_off,,,,,42,0,13,,,,14,,64,0
7962,note_off,,,,,42,0,7,,,,6,,60,0
7962,note_off,,,,,0,0,7,,,,6,,67,0
7962,note_off,,,,,42,0,6,,,,5,,43,0
7962,note_off,,,,,0,0,7,,,,6,,76,0
7962,note_off,,,,,42,0,5,,,,4,,64,0
7962,note_off,,,,,42,0,12,,,,13,,67,0
7962,note_off,,,,,42,0,11,,,,12,,31,0
7962,note_off,,,,,42,0,2,,,,1,,67,0
7962,note_off,,,,,42,0,10,,,,11,,43,0
7962,note_off,,,,,42,0,4,,,,3,,67,0
7962,note_off,,,,,0,0,12,,,,13,,43,0
7965,note_off,,,,,21,0,3,,,,2,,74,0
7965,note_off,,,,,21,0,8,,,,7,,74,0
7968,note_on,,,,,6,0,7,,,,6,,60,96
7968,note_on,,,,,0,0,7,,,,6,,67,96
7968,note_on,,,,,6,0,2,,,,1,,67,127
7968,note_on,,,,,6,0,12,,,,13,,67,36
7968,note_on,,,,,6,0,13,,,,14,,64,75
7968,note_on,,,,,6,0,11,,,,12,,31,36
7968,note_on,,,,,6,0,1,,,,0,,67,127
7968,note_on,,,,,3,0,8,,,,7,,76,75
7968,note_on,,,,,3,0,3,,,,2,,76,62
7968,note_on,,,,,6,0,5,,,,4,,64,62
7968,note_on,,,,,6,0,9,,,,8,,67,75
7968,note_on,,,,,0,0,7,,,,6,,76,96
7968,note_on,,,,,0,0,12,,,,13,,43,36
7968,note_on,,,,,6,0,10,,,,11,,43,36
7968,note_on,,,,,6,0,4,,,,3,,67,62
7968,note_on,,,,,6,0,6,,,,5,,43,62
7989,note_off,,,,,21,0,8,,,,7,,76,0
7989,note_off,,,,,21,0,3,,,,2,,76,0
7992,note_on,,,,,3,0,8,,,,7,,72,75
7992,note_on,,,,,3,0,3,,,,2,,72,62
8010,note_off,,,,,42,0,9,,,,8,,67,0
8010,note_off,,,,,0,0,12,,,,13,,43,0
8010,note_off,,,,,42,0,12,,,,13,,67,0
8010,note_off,,,,,42,0,4,,,,3,,67,0
8010,note_off,,,,,42,0,10,,,,11,,43,0
8010,note_off,,,,,42,0,2,,,,1,,67,0
8010,note_off,,,,,42,0,13,,,,14,,64,0
8010,note_off,,,,,42,0,7,,,,6,,60,0
8010,note_off,,,,,0,0,7,,,,6,,67,0
8010,note_off,,,,,42,0,6,,,,5,,43,0
8010,note_off,,,,,42,0,1,,,,0,,67,0
8010,note_off,,,,,42,0,5,,,,4,,64,0
8010,note_off,,,,,42,0,11,,,,12,,31,0
8010,note_off,,,,,0,0,7,,,,6,,76,0
8013,note_off,,,,,21,0,3,,,,2,,72,0
8013,note_off,,,,,21,0,8,,,,7,,72,0
8016,note_on,,,,,3,0,3,,,,2,,77,62
8016,note_on,,,,,6,0,11,,,,12,,31,36
8016,note_on,,,,,3,0,8,,,,7,,77,75
8016,note_on,,,,,6,0,6,,,,5,,43,62
8016,note_on,,,,,0,0,7,,,,6,,76,96
8016,note_on,,,,,6,0,10,,,,11,,43,36
8016,note_on,,,,,0,0,7,,,,6,,69,96
8016,note_on,,,,,6,0,1,,,,0,,67,127
8016,note_on,,,,,0,0,12,,,,13,,43,36
8016,note_on,,,,,6,0,2,,,,1,,67,127
8016,note_on,,,,,6,0,5,,,,4,,60,62
8016,note_on,,,,,6,0,12,,,,13,,67,36
8016,note_on,,,,,6,0,9,,,,8,,69,75
8016,note_on,,,,,6,0,4,,,,3,,69,62
8016,note_on,,,,,6,0,7,,,,6,,65,96
8016,note_on,,,,,6,0,13,,,,14,,60,75
8037,note_off,,,,,21,0,7,,,,6,,65,0
8037,note_off,,,,,0,0,7,,,,6,,69,0
8037,note_off,,,,,0,0,7,,,,6,,76,0
8040,note_on,,,,,3,0,7,,,,6,,77,96
8058,note_off,,,,,42,0,9,,,,8,,69,0
8058,note_off,,,,,42,0,13,,,,14,,60,0
8058,note_off,,,,,42,0,8,,,,7,,77,0
8058,note_off,,,,,42,0,4,,,,3,,69,0
8058,note_off,,,,,42,0,1,,,,0,,67,0
8058,note_off,,,,,42,0,12,,,,13,,67,0
8058,note_off,,,,,42,0,11,,,,12,,31,0
8058,note_off,,,,,42,0,5,,,,4,,60,0
8058,note_off,,,,,42,0,2,,,,1,,67,0
8058,note_off,,,,,42,0,6,,,,5,,43,0
8058,note_off,,,,,0,0,12,,,,13,,43,0
8058,note_off,,,,,42,0,3,,,,2,,77,0
8058,note_off,,,,,42,0,10,,,,11,,43,0
8061,note_off,,,,,21,0,7,,,,6,,77,0
8064,note_on,,,,,6,0,13,,,,14,,60,75
8064,note_on,,,,,6,0,11,,,,12,,31,36
8064,note_on,,,,,6,0,6,,,,5,,43,62
8064,note_on,,,,,6,0,4,,,,3,,69,62
8064,note_on,,,,,6,0,12,,,,13,,67,36
8064,note_on,,,,,6,0,2,,,,1,,67,127
8064,note_on,,,,,3,0,7,,,,6,,76,96
8064,note_on,,,,,6,0,9,,,,8,,69,75
8064,note_on,,,,,6,0,10,,,,11,,43,36
8064,note_on,,,,,6,0,8,,,,7,,77,75
8064,note_on,,,,,6,0,5,,,,4,,60,62
8064,note_on,,,,,6,0,1,,,,0,,67,127
8064,note_on,,,,,6,0,3,,,,2,,77,62
8064,note_on,,,,,0,0,12,,,,13,,43,36
8085,note_off,,,,,21,0,7,,,,6,,76,0
8088,note_on,,,,,3,0,7,,,,6,,74,96
8106,note_off,,,,,42,0,9,,,,8,,69,0
8106,note_off,,,,,42,0,1,,,,0,,67,0
8106,note_off,,,,,42,0,5,,,,4,,60,0
8106,note_off,,,,,42,0,3,,,,2,,77,0
8106,note_off,,,,,42,0,12,,,,13,,67,0
8106,note_off,,,,,42,0,6,,,,5,,43,0
8106,note_off,,,,,42,0,2,,,,1,,67,0
8106,note_off,,,,,42,0,11,,,,12,,31,0
8106,note_off,,,,,42,0,13,,,,14,,60,0
8106,note_off,,,,,42,0,4,,,,3,,69,0
8106,note_off,,,,,42,0,10,,,,11,,43,0
8106,note_off,,,,,42,0,8,,,,7,,77,0
8106,note_off,,,,,0,0,12,,,,13,,43,0
8109,note_off,,,,,21,0,7,,,,6,,74,0
8112,note_on,,,,,6,0,12,,,,13,,67,36
8112,note_on,,,,,6,0,13,,,,14,,60,75
8112,note_on,,,,,0,0,12,,,,13,,43,36
8112,note_on,,,,,6,0,10,,,,11,,43,36
8112,note_on,,,,,6,0,5,,,,4,,60,62
8112,note_on,,,,,6,0,11,,,,12,,31,36
8112,note_on,,,,,6,0,4,,,,3,,69,62
8112,note_on,,,,,3,0,7,,,,6,,76,96
8112,note_on,,,,,6,0,2,,,,1,,67,127
8112,note_on,,,,,6,0,3,,,,2,,77,62
8112,note_on,,,,,6,0,1,,,,0,,67,127
8112,note_on,,,,,6,0,9,,,,8,,69,75
8112,note_on,,,,,6,0,6,,,,5,,43,62
8112,note_on,,,,,6,0,8,,,,7,,77,75
8133,note_off,,,,,21,0,7,,,,6,,76,0
8136,note_on,,,,,3,0,7,,,,6,,72,96
8154,note_off,,,,,42,0,3,,,,2,,77,0
8154,note_off,,,,,42,0,4,,,,3,,69,0
8154,note_off,,,,,42,0,9,,,,8,,69,0
8154,note_off,,,,,42,0,2,,,,1,,67,0
8154,note_off,,,,,42,0,12,,,,13,,67,0
8154,note_off,,,,,0,0,12,,,,13,,43,0
8154,note_off,,,,,42,0,13,,,,14,,60,0
8154,note_off,,,,,42,0,5,,,,4,,60,0
8154,note_off,,,,,42,0,10,,,,11,,43,0
8154,note_off,,,,,42,0,8,,,,7,,77,0
8154,note_off,,,,,42,0,1,,,,0,,67,0
8154,note_off,,,,,42,0,11,,,,12,,31,0
8154,note_off,,,,,42,0,6,,,,5,,43,0
8157,note_off,,,,,21,0,7,,,,6,,72,0
8160,note_on,,,,,6,0,11,,,,12,,31,36
8160,note_on,,,,,6,0,5,,,,4,,67,62
8160,note_on,,,,,6,0,1,,,,0,,67,127
8160,note_on,,,,,6,0,2,,,,1,,67,127
8160,note_on,,,,,6,0,4,,,,3,,71,62
8160,note_on,,,,,6,0,6,,,,5,,43,62
8160,note_on,,,,,6,0,10,,,,11,,43,36
8160,note_on,,,,,6,0,9,,,,8,,71,75
8160,note_on,,,,,3,0,7,,,,6,,74,96
8160,note_on,,,,,6,0,13,,,,14,,67,75
8160,note_on,,,,,6,0,8,,,,7,,77,75
8160,note_on,,,,,6,0,12,,,,13,,67,36
8160,note_on,,,,,0,0,12,,,,13,,43,36
8160,note_on,,,,,6,0,3,,,,2,,77,62
8181,note_off,,,,,21,0,7,,,,6,,74,0
8181,note_off,,,,,21,0,8,,,,7,,77,0
8181,note_off,,,,,21,0,3,,,,2,,77,0
8184,note_on,,,,,3,0,7,,,,6,,76,96
8184,note_on,,,,,3,0,8,,,,7,,79,75
8184,note_on,,,,,3,0,3,,,,2,,79,62
8202,note_off,,,,,0,0,12,,,,13,,43,0
8202,note_off,,,,,42,0,6,,,,5,,43,0
8202,note_off,,,,,42,0,4,,,,3,,71,0
8202,note_off,,,,,42,0,12,,,,13,,67,0
8202,note_off,,,,,42,0,11,,,,12,,31,0
8202,note_off,,,,,42,0,10,,,,11,,43,0
8202,note_off,,,,,42,0,1,,,,0,,67,0
8202,note_off,,,,,42,0,13,,,,14,,67,0
8202,note_off,,,,,42,0,9,,,,8,,71,0
8202,note_off,,,,,42,0,5,,,,4,,67,0
8202,note_off,,,,,42,0,2,,,,1,,67,0
8205,note_off,,,,,21,0,8,,,,7,,79,0
8205,note_off,,,,,21,0,3,,,,2,,79,0
8205,note_off,,,,,21,0,7,,,,6,,76,0
8208,note_on,,,,,0,0,12,,,,13,,43,36
8208,note_on,,,,,6,0,12,,,,13,,67,36
8208,note_on,,,,,6,0,10,,,,11,,43,36
8208,note_on,,,,,6,0,13,,,,14,,67,75
8208,note_on,,,,,6,0,9,,,,8,,71,75
8208,note_on,,,,,6,0,2,,,,1,,67,127
8208,note_on,,,,,3,0,8,,,,7,,77,75
8208,note_on,,,,,3,0,7,,,,6,,74,96
8208,note_on,,,,,3,0,3,,,,2,,77,62
8208,note_on,,,,,6,0,6,,,,5,,43,62
8208,note_on,,,,,6,0,5,,,,4,,67,62
8208,note_on,,,,,6,0,11,,,,12,,31,36
8208,note_on,,,,,6,0,4,,,,3,,71,62
8208,note_on,,,,,6,0,1,,,,0,,67,127
8229,note_off,,,,,21,0,3,,,,2,,77,0
8229,note_off,,,,,21,0,8,,,,7,,77,0
8229,note_off,,,,,21,0,7,,,,6,,74,0
8232,note_on,,,,,3,0,8,,,,7,,76,75
8232,note_on,,,,,3,0,7,,,,6,,72,96
8232,note_on,,,,,3,0,3,,,,2,,76,62
8250,note_off,,,,,42,0,10,,,,11,,43,0
8250,note_off,,,,,42,0,5,,,,4,,67,0
8250,note_off,,,,,42,0,6,,,,5,,43,0
8250,note_off,,,,,42,0,12,,,,13,,67,0
8250,note_off,,,,,42,0,4,,,,3,,71,0
8250,note_off,,,,,0,0,12,,,,13,,43,0
8250,note_off,,,,,42,0,2,,,,1,,67,0
8250,note_off,,,,,42,0,13,,,,14,,67,0
8250,note_off,,,,,42,0,9,,,,8,,71,0
8250,note_off,,,,,42,0,1,,,,0,,67,0
8250,note_off,,,,,42,0,11,,,,12,,31,0
8253,note_off,,,,,21,0,3,,,,2,,76,0
8253,note_off,,,,,21,0,7,,,,6,,72,0
8253,note_off,,,,,21,0,8,,,,7,,76,0
8256,note_on,,,,,6,0,2,,,,1,,67,127
8256,note_on,,,,,6,0,10,,,,11,,43,36
8256,note_on,,,,,3,0,3,,,,2,,77,62
8256,note_on,,,,,6,0,9,,,,8,,71,75
8256,note_on,,,,,6,0,12,,,,13,,67,36
8256,note_on,,,,,6,0,11,,,,12,,31,36
8256,note_on,,,,,6,0,1,,,,0,,67,127
8256,note_on,,,,,3,0,8,,,,7,,77,75
8256,note_on,,,,,6,0,5,,,,4,,67,62
8256,note_on,,,,,0,0,12,,,,13,,43,36
8256,note_on,,,,,6,0,4,,,,3,,71,62
8256,note_on,,,,,6,0,6,,,,5,,43,62
8256,note_on,,,,,3,0,7,,,,6,,74,96
8256,note_on,,,,,6,0,13,,,,14,,67,75
8277,note_off,,,,,21,0,8,,,,7,,77,0
8277,note_off,,,,,21,0,3,,,,2,,77,0
8277,note_off,,,,,21,0,7,,,,6,,74,0
8280,note_on,,,,,3,0,8,,,,7,,74,75
8280,note_on,,,,,3,0,3,,,,2,,74,62
8280,note_on,,,,,3,0,7,,,,6,,71,96
8298,note_off,,,,,42,0,12,,,,13,,67,0
8298,note_off,,,,,0,0,12,,,,13,,43,0
8298,note_off,,,,,42,0,2,,,,1,,67,0
8298,note_off,,,,,42,0,13,,,,14,,67,0
8298,note_off,,,,,42,0,1,,,,0,,67,0
8298,note_off,,,,,42,0,5,,,,4,,67,0
8298,note_off,,,,,42,0,4,,,,3,,71,0
8298,note_off,,,,,42,0,6,,,,5,,43,0
8298,note_off,,,,,42,0,11,,,,12,,31,0
8298,note_off,,,,,42,0,9,,,,8,,71,0
8298,note_off,,,,,42,0,10,,,,11,,43,0
8301,note_off,,,,,21,0,3,,,,2,,74,0
8301,note_off,,,,,21,0,7,,,,6,,71,0
8301,note_off,,,,,21,0,8,,,,7,,74,0
8304,note_on,,,,,6,0,10,,,,11,,43,36
8304,note_on,,,,,6,0,4,,,,3,,72,62
8304,note_on,,,,,6,0,9,,,,8,,72,75
8304,note_on,,,,,6,0,12,,,,13,,67,36
8304,note_on,,,,,3,0,3,,,,2,,76,62
8304,note_on,,,,,6,0,2,,,,1,,67,127
8304,note_on,,,,,6,0,5,,,,4,,67,62
8304,note_on,,,,,3,0,8,,,,7,,76,75
8304,note_on,,,,,6,0,11,,,,12,,31,36
8304,note_on,,,,,6,0,13,,,,14,,67,75
8304,note_on,,,,,6,0,6,,,,5,,43,62
8304,note_on,,,,,3,0,7,,,,6,,72,96
8304,note_on,,,,,0,0,12,,,,13,,43,36
8304,note_on,,,,,6,0,1,,,,0,,67,127
8325,note_off,,,,,21,0,7,,,,6,,72,0
8325,note_off,,,,,21,0,8,,,,7,,76,0
8325,note_off,,,,,21,0,3,,,,2,,76,0
8328,note_on,,,,,3,0,8,,,,7,,74,75
8328,note_on,,,,,3,0,7,,,,6,,74,96
8328,note_on,,,,,3,0,3,,,,2,,74,62
8346,note_off,,,,,42,0,12,,,,13,,67,0
8346,note_off,,,,,42,0,6,,,,5,,43,0
8346,note_off,,,,,42,0,13,,,,14,,67,0
8346,note_off,,,,,42,0,11,,,,12,,31,0
8346,note_off,,,,,42,0,5,,,,4,,67,0
8346,note_off,,,,,42,0,1,,,,0,,67,0
8346,note_off,,,,,42,0,9,,,,8,,72,0
8346,note_off,,,,,0,0,12,,,,13,,43,0
8346,note_off,,,,,42,0,10,,,,11,,43,0
8346,note_off,,,,,42,0,2,,,,1,,67,0
8346,note_off,,,,,42,0,4,,,,3,,72,0
8349,note_off,,,,,21,0,7,,,,6,,74,0
8349,note_off,,,,,21,0,8,,,,7,,74,0
8349,note_off,,,,,21,0,3,,,,2,,74,0
8352,note_on,,,,,6,0,4,,,,3,,72,62
8352,note_on,,,,,6,0,6,,,,5,,43,62
8352,note_on,,,,,3,0,7,,,,6,,72,96
8352,note_on,,,,,6,0,13,,,,14,,67,75
8352,note_on,,,,,6,0,11,,,,12,,31,36
8352,note_on,,,,,6,0,5,,,,4,,67,62
8352,note_on,,,,,6,0,1,,,,0,,67,127
8352,note_on,,,,,6,0,2,,,,1,,67,127
8352,note_on,,,,,3,0,8,,,,7,,76,75
8352,note_on,,,,,3,0,3,,,,2,,76,62
8352,note_on,,,,,6,0,9,,,,8,,72,75
8352,note_on,,,,,0,0,12,,,,13,,43,36
8352,note_on,,,,,6,0,10,,,,11,,43,36
8352,note_on,,,,,6,0,12,,,,13,,67,36
8373,note_off,,,,,21,0,8,,,,7,,76,0
8373,note_off,,,,,21,0,3,,,,2,,76,0
8373,note_off,,,,,21,0,7,,,,6,,72,0
8376,note_on,,,,,3,0,7,,,,6,,71,96
8376,note_on,,,,,3,0,3,,,,2,,79,62
8376,note_on,,,,,3,0,8,,,,7,,79,75
8394,note_off,,,,,42,0,13,,,,14,,67,0
8394,note_off,,,,,0,0,12,,,,13,,43,0
8394,note_off,,,,,42,0,11,,,,12,,31,0
8394,note_off,,,,,42,0,6,,,,5,,43,0
8394,note_off,,,,,42,0,1,,,,0,,67,0
8394,note_off,,,,,42,0,4,,,,3,,72,0
8394,note_off,,,,,42,0,9,,,,8,,72,0
8394,note_off,,,,,42,0,5,,,,4,,67,0
8394,note_off,,,,,42,0,2,,,,1,,67,0
8394,note_off,,,,,42,0,10,,,,11,,43,0
8394,note_off,,,,,42,0,12,,,,13,,67,0
8397,note_off,,,,,21,0,3,,,,2,,79,0
8397,note_off,,,,,21,0,7,,,,6,,71,0
8397,note_off,,,,,21,0,8,,,,7,,79,0
8400,note_on,,,,,6,0,11,,,,12,,31,36
8400,note_on,,,,,0,0,12,,,,13,,43,36
8400,note_on,,,,,6,0,13,,,,14,,69,75
8400,note_on,,,,,6,0,1,,,,0,,67,127
8400,note_on,,,,,3,0,7,,,,6,,72,96
8400,note_on,,,,,6,0,5,,,,4,,69,62
8400,note_on,,,,,3,0,3,,,,2,,78,62
8400,note_on,,,,,6,0,12,,,,13,,67,36
8400,note_on,,,,,6,0,2,,,,1,,67,127
8400,note_on,,,,,6,0,10,,,,11,,43,36
8400,note_on,,,,,6,0,4,,,,3,,72,62
8400,note_on,,,,,6,0,9,,,,8,,72,75
8400,note_on,,,,,6,0,6,,,,5,,43,62
8400,note_on,,,,,3,0,8,,,,7,,78,75
8421,note_off,,,,,21,0,8,,,,7,,78,0
8421,note_off,,,,,21,0,7,,,,6,,72,0
8421,note_off,,,,,21,0,3,,,,2,,78,0
8424,note_on,,,,,3,0,8,,,,7,,81,75
8424,note_on,,,,,3,0,7,,,,6,,69,96
8424,note_on,,,,,3,0,3,,,,2,,81,62
8442,note_off,,,,,42,0,4,,,,3,,72,0
8442,note_off,,,,,42,0,11,,,,12,,31,0
8442,note_off,,,,,42,0,2,,,,1,,67,0
8442,note_off,,,,,42,0,6,,,,5,,43,0
8442,note_off,,,,,42,0,1,,,,0,,67,0
8442,note_off,,,,,42,0,13,,,,14,,69,0
8442,note_off,,,,,42,0,9,,,,8,,72,0
8442,note_off,,,,,42,0,5,,,,4,,69,0
8442,note_off,,,,,42,0,10,,,,11,,43,0
8442,note_off,,,,,0,0,12,,,,13,,43,0
8442,note_off,,,,,42,0,12,,,,13,,67,0
8445,note_off,,,,,21,0,3,,,,2,,81,0
8445,note_off,,,,,21,0,8,,,,7,,81,0
8445,note_off,,,,,21,0,7,,,,6,,69,0
8448,note_on,,,,,6,0,2,,,,1,,67,127
8448,note_on,,,,,6,0,13,,,,14,,62,75
8448,note_on,,,,,3,0,8,,,,7,,79,75
8448,note_on,,,,,6,0,6,,,,5,,43,62
8448,note_on,,,,,6,0,10,,,,11,,43,36
8448,note_on,,,,,3,0,7,,,,6,,71,96
8448,note_on,,,,,6,0,11,,,,12,,31,36
8448,note_on,,,,,0,0,12,,,,13,,71,36
8448,note_on,,,,,6,0,4,,,,3,,71,62
8448,note_on,,,,,6,0,12,,,,13,,62,36
8448,note_on,,,,,6,0,5,,,,4,,62,62
8448,note_on,,,,,6,0,1,,,,0,,67,127
8448,note_on,,,,,3,0,3,,,,2,,79,62
8448,note_on,,,,,6,0,9,,,,8,,71,75
8448,note_on,,,,,0,0,12,,,,13,,43,36
8469,note_off,,,,,21,0,7,,,,6,,71,0
8472,note_on,,,,,3,0,7,,,,6,,74,96
8490,note_off,,,,,42,0,12,,,,13,,62,0
8490,note_off,,,,,0,0,12,,,,13,,71,0
8490,note_off,,,,,0,0,12,,,,13,,43,0
8490,note_off,,,,,42,0,11,,,,12,,31,0
8490,note_off,,,,,42,0,2,,,,1,,67,0
8490,note_off,,,,,42,0,8,,,,7,,79,0
8490,note_off,,,,,42,0,3,,,,2,,79,0
8490,note_off,,,,,42,0,10,,,,11,,43,0
8490,note_off,,,,,42,0,1,,,,0,,67,0
8493,note_off,,,,,21,0,7,,,,6,,74,0
8496,note_on,,,,,6,0,2,,,,1,,60,127
8496,note_on,,,,,6,0,1,,,,0,,67,127
8496,note_on,,,,,6,0,10,,,,11,,55,36
8496,note_on,,,,,6,0,12,,,,13,,55,36
8496,note_on,,,,,6,0,11,,,,12,,43,36
8496,note_on,,,,,6,0,3,,,,2,,67,62
8496,note_on,,,,,6,0,8,,,,7,,67,75
8496,note_on,,,,,3,0,7,,,,6,,72,96
8517,note_off,,,,,21,0,12,,,,13,,55,0
8517,note_off,,,,,21,0,7,,,,6,,72,0
8517,note_off,,,,,21,0,11,,,,12,,43,0
8517,note_off,,,,,21,0,10,,,,11,,55,0
8520,note_on,,,,,3,0,7,,,,6,,71,96
8520,note_on,,,,,3,0,10,,,,11,,57,36
8520,note_on,,,,,3,0,11,,,,12,,45,36
8520,note_on,,,,,3,0,12,,,,13,,57,36
8532,note_off,,,,,84,0,4,,,,3,,71,0
8532,note_off,,,,,84,0,5,,,,4,,62,0
8532,note_off,,,,,84,0,6,,,,5,,43,0
8532,note_off,,,,,84,0,13,,,,14,,62,0
8532,note_off,,,,,84,0,9,,,,8,,71,0
8538,note_off,,,,,42,0,8,,,,7,,67,0
8538,note_off,,,,,42,0,1,,,,0,,67,0
8538,note_off,,,,,42,0,2,,,,1,,60,0
8538,note_off,,,,,42,0,3,,,,2,,67,0
8541,note_off,,,,,21,0,10,,,,11,,57,0
8541,note_off,,,,,21,0,7,,,,6,,71,0
8541,note_off,,,,,21,0,12,,,,13,,57,0
8541,note_off,,,,,21,0,11,,,,12,,45,0
8544,note_on,,,,,3,0,12,,,,13,,55,36
8544,note_on,,,,,6,0,1,,,,0,,67,127
8544,note_on,,,,,3,0,11,,,,12,,43,36
8544,note_on,,,,,3,0,10,,,,11,,55,36
8544,note_on,,,,,3,0,7,,,,6,,69,96
8565,note_off,,,,,21,0,12,,,,13,,55,0
8565,note_off,,,,,21,0,11,,,,12,,43,0
8565,note_off,,,,,21,0,7,,,,6,,69,0
8565,note_off,,,,,21,0,10,,,,11,,55,0
8568,note_on,,,,,3,0,7,,,,6,,67,96
8568,note_on,,,,,3,0,10,,,,11,,53,36
8568,note_on,,,,,3,0,12,,,,13,,53,36
8568,note_on,,,,,3,0,11,,,,12,,41,36
8586,note_off,,,,,42,0,1,,,,0,,67,0
8589,note_off,,,,,21,0,10,,,,11,,53,0
8589,note_off,,,,,21,0,7,,,,6,,67,0
8589,note_off,,,,,21,0,11,,,,12,,41,0
8589,note_off,,,,,21,0,12,,,,13,,53,0
8592,note_on,,,,,3,0,12,,,,13,,52,36
8592,note_on,,,,,3,0,11,,,,12,,40,36
8592,note_on,,,,,6,0,1,,,,0,,67,127
8592,note_on,,,,,3,0,10,,,,11,,52,36
8613,note_off,,,,,21,0,12,,,,13,,52,0
8613,note_off,,,,,21,0,11,,,,12,,40,0
8613,note_off,,,,,21,0,1,,,,0,,67,0
8613,note_off,,,,,21,0,10,,,,11,,52,0
8616,note_on,,,,,3,0,11,,,,12,,41,36
8616,note_on,,,,,3,0,10,,,,11,,53,36
8616,note_on,,,,,3,0,1,,,,0,,69,127
8616,note_on,,,,,3,0,12,,,,13,,53,36
8637,note_off,,,,,21,0,1,,,,0,,69,0
8637,note_off,,,,,21,0,10,,,,11,,53,0
8637,note_off,,,,,21,0,12,,,,13,,53,0
8637,note_off,,,,,21,0,11,,,,12,,41,0
8640,note_on,,,,,3,0,1,,,,0,,67,127
8640,note_on,,,,,3,0,12,,,,13,,52,36
8640,note_on,,,,,3,0,11,,,,12,,40,36
8640,note_on,,,,,3,0,10,,,,11,,52,36
8640,note_on,,,,,51,0,7,,,,6,,60,96
8640,note_on,,,,,0,0,7,,,,6,,67,96
8640,note_on,,,,,0,0,7,,,,6,,72,96
8661,note_off,,,,,21,0,10,,,,11,,52,0
8661,note_off,,,,,21,0,12,,,,13,,52,0
8661,note_off,,,,,21,0,11,,,,12,,40,0
8661,note_off,,,,,21,0,1,,,,0,,67,0
8664,note_on,,,,,3,0,11,,,,12,,38,36
8664,note_on,,,,,3,0,10,,,,11,,50,36
8664,note_on,,,,,3,0,12,,,,13,,50,36
8664,note_on,,,,,3,0,1,,,,0,,65,127
8682,note_off,,,,,0,0,7,,,,6,,67,0
8682,note_off,,,,,42,0,7,,,,6,,60,0
8682,note_off,,,,,0,0,7,,,,6,,72,0
8685,note_off,,,,,21,0,12,,,,13,,50,0
8685,note_off,,,,,21,0,10,,,,11,,50,0
8685,note_off,,,,,21,0,11,,,,12,,38,0
8685,note_off,,,,,21,0,1,,,,0,,65,0
8688,note_on,,,,,3,0,12,,,,13,,52,36
8688,note_on,,,,,0,0,7,,,,6,,72,96
8688,note_on,,,,,3,0,10,,,,11,,52,36
8688,note_on,,,,,0,0,7,,,,6,,67,96
8688,note_on,,,,,3,0,11,,,,12,,40,36
8688,note_on,,,,,6,0,7,,,,6,,60,96
8688,note_on,,,,,3,0,1,,,,0,,67,127
8709,note_off,,,,,21,0,12,,,,13,,52,0
8709,note_off,,,,,21,0,11,,,,12,,40,0
8709,note_off,,,,,21,0,10,,,,11,,52,0
8709,note_off,,,,,21,0,1,,,,0,,67,0
8712,note_on,,,,,3,0,11,,,,12,,36,36
8712,note_on,,,,,3,0,10,,,,11,,48,36
8712,note_on,,,,,3,0,12,,,,13,,48,36
8712,note_on,,,,,3,0,1,,,,0,,60,127
8730,note_off,,,,,0,0,7,,,,6,,72,0
8730,note_off,,,,,0,0,7,,,,6,,67,0
8730,note_off,,,,,42,0,7,,,,6,,60,0
8733,note_off,,,,,21,0,12,,,,13,,48,0
8733,note_off,,,,,21,0,10,,,,11,,48,0
8733,note_off,,,,,21,0,1,,,,0,,60,0
8733,note_off,,,,,21,0,11,,,,12,,36,0
8736,note_on,,,,,0,0,7,,,,6,,69,96
8736,note_on,,,,,3,0,10,,,,11,,53,36
8736,note_on,,,,,3,0,1,,,,0,,69,127
8736,note_on,,,,,3,0,11,,,,12,,41,36
8736,note_on,,,,,3,0,12,,,,13,,53,36
8736,note_on,,,,,0,0,7,,,,6,,72,96
8736,note_on,,,,,6,0,7,,,,6,,65,96
8757,note_off,,,,,21,0,7,,,,6,,65,0
8757,note_off,,,,,0,0,7,,,,6,,69,0
8757,note_off,,,,,21,0,10,,,,11,,53,0
8757,note_off,,,,,21,0,12,,,,13,,53,0
8757,note_off,,,,,21,0,11,,,,12,,41,0
8757,note_off,,,,,0,0,7,,,,6,,72,0
8760,note_on,,,,,3,0,10,,,,11,,55,36
8760,note_on,,,,,3,0,12,,,,13,,55,36
8760,note_on,,,,,3,0,11,,,,12,,43,36
8760,note_on,,,,,3,0,7,,,,6,,70,96
8778,note_off,,,,,42,0,1,,,,0,,69,0
8781,note_off,,,,,21,0,12,,,,13,,55,0
8781,note_off,,,,,21,0,11,,,,12,,43,0
8781,note_off,,,,,21,0,7,,,,6,,70,0
8781,note_off,,,,,21,0,10,,,,11,,55,0
8784,note_on,,,,,3,0,12,,,,13,,53,36
8784,note_on,,,,,3,0,11,,,,12,,41,36
8784,note_on,,,,,3,0,10,,,,11,,53,36
8784,note_on,,,,,3,0,7,,,,6,,69,96
8784,note_on,,,,,6,0,1,,,,0,,69,127
8805,note_off,,,,,21,0,7,,,,6,,69,0
8805,note_off,,,,,21,0,11,,,,12,,41,0
8805,note_off,,,,,21,0,10,,,,11,,53,0
8805,note_off,,,,,21,0,12,,,,13,,53,0
8808,note_on,,,,,3,0,12,,,,13,,52,36
8808,note_on,,,,,3,0,11,,,,12,,40,36
8808,note_on,,,,,3,0,7,,,,6,,67,96
8808,note_on,,,,,3,0,10,,,,11,,52,36
8826,note_off,,,,,42,0,1,,,,0,,69,0
8829,note_off,,,,,21,0,10,,,,11,,52,0
8829,note_off,,,,,21,0,12,,,,13,,52,0
8829,note_off,,,,,21,0,7,,,,6,,67,0
8829,note_off,,,,,21,0,11,,,,12,,40,0
8832,note_on,,,,,3,0,10,,,,11,,53,36
8832,note_on,,,,,3,0,12,,,,13,,53,36
8832,note_on,,,,,6,0,1,,,,0,,69,127
8832,note_on,,,,,3,0,7,,,,6,,69,96
8832,note_on,,,,,3,0,11,,,,12,,41,36
8853,note_off,,,,,21,0,12,,,,13,,53,0
8853,note_off,,,,,21,0,7,,,,6,,69,0
8853,note_off,,,,,21,0,11,,,,12,,41,0
8853,note_off,,,,,21,0,10,,,,11,,53,0
8856,note_on,,,,,3,0,12,,,,13,,52,36
8856,note_on,,,,,3,0,7,,,,6,,65,96
8856,note_on,,,,,3,0,11,,,,12,,40,36
8856,note_on,,,,,3,0,10,,,,11,,52,36
8874,note_off,,,,,42,0,1,,,,0,,69,0
8877,note_off,,,,,21,0,12,,,,13,,52,0
8877,note_off,,,,,21,0,7,,,,6,,65,0
8877,note_off,,,,,21,0,10,,,,11,,52,0
8877,note_off,,,,,21,0,11,,,,12,,40,0
8880,note_on,,,,,3,0,11,,,,12,,38,36
8880,note_on,,,,,3,0,12,,,,13,,50,36
8880,note_on,,,,,3,0,10,,,,11,,50,36
8880,note_on,,,,,3,0,7,,,,6,,74,96
8880,note_on,,,,,6,0,1,,,,0,,69,127
8901,note_off,,,,,21,0,10,,,,11,,50,0
8901,note_off,,,,,21,0,12,,,,13,,50,0
8901,note_off,,,,,21,0,1,,,,0,,69,0
8901,note_off,,,,,21,0,11,,,,12,,38,0
8904,note_on,,,,,3,0,12,,,,13,,55,36
8904,note_on,,,,,3,0,10,,,,11,,55,36
8904,note_on,,,,,3,0,11,,,,12,,43,36
8904,note_on,,,,,3,0,1,,,,0,,70,127
8922,note_off,,,,,42,0,7,,,,6,,74,0
8925,note_off,,,,,21,0,12,,,,13,,55,0
8925,note_off,,,,,21,0,10,,,,11,,55,0
8925,note_off,,,,,21,0,1,,,,0,,70,0
8925,note_off,,,,,21,0,11,,,,12,,43,0
8928,note_on,,,,,0,0,7,,,,6,,69,96
8928,note_on,,,,,3,0,12,,,,13,,53,36
8928,note_on,,,,,3,0,10,,,,11,,53,36
8928,note_on,,,,,0,0,7,,,,6,,74,96
8928,note_on,,,,,3,0,11,,,,12,,41,36
8928,note_on,,,,,3,0,1,,,,0,,69,127
8928,note_on,,,,,6,0,7,,,,6,,62,96
8949,note_off,,,,,21,0,11,,,,12,,41,0
8949,note_off,,,,,21,0,12,,,,13,,53,0
8949,note_off,,,,,21,0,1,,,,0,,69,0
8949,note_off,,,,,21,0,10,,,,11,,53,0
8952,note_on,,,,,3,0,12,,,,13,,52,36
8952,note_on,,,,,3,0,11,,,,12,,40,36
8952,note_on,,,,,3,0,1,,,,0,,67,127
8952,note_on,,,,,3,0,10,,,,11,,52,36
8970,note_off,,,,,0,0,7,,,,6,,74,0
8970,note_off,,,,,42,0,7,,,,6,,62,0
8970,note_off,,,,,0,0,7,,,,6,,69,0
8973,note_off,,,,,21,0,10,,,,11,,52,0
8973,note_off,,,,,21,0,11,,,,12,,40,0
8973,note_off,,,,,21,0,1,,,,0,,67,0
8973,note_off,,,,,21,0,12,,,,13,,52,0
8976,note_on,,,,,3,0,11,,,,12,,41,36
8976,note_on,,,,,3,0,10,,,,11,,53,36
8976,note_on,,,,,0,0,7,,,,6,,69,96
8976,note_on,,,,,6,0,7,,,,6,,62,96
8976,note_on,,,,,0,0,7,,,,6,,74,96
8976,note_on,,,,,3,0,1,,,,0,,69,127
8976,note_on,,,,,3,0,12,,,,13,,53,36
8997,note_off,,,,,21,0,10,,,,11,,53,0
8997,note_off,,,,,21,0,1,,,,0,,69,0
8997,note_off,,,,,21,0,11,,,,12,,41,0
8997,note_off,,,,,21,0,12,,,,13,,53,0
9000,note_on,,,,,3,0,11,,,,12,,38,36
9000,note_on,,,,,3,0,10,,,,11,,50,36
9000,note_on,,,,,3,0,1,,,,0,,65,127
9000,note_on,,,,,3,0,12,,,,13,,50,36
9018,note_off,,,,,0,0,7,,,,6,,69,0
9018,note_off,,,,,42,0,7,,,,6,,62,0
9018,note_off,,,,,0,0,7,,,,6,,74,0
9021,note_off,,,,,21,0,12,,,,13,,50,0
9021,note_off,,,,,21,0,11,,,,12,,38,0
9021,note_off,,,,,21,0,1,,,,0,,65,0
9021,note_off,,,,,21,0,10,,,,11,,50,0
9024,note_on,,,,,3,0,12,,,,13,,55,36
9024,note_on,,,,,3,0,11,,,,12,,43,36
9024,note_on,,,,,3,0,1,,,,0,,71,127
9024,note_on,,,,,3,0,10,,,,11,,55,36
9024,note_on,,,,,6,0,7,,,,6,,59,96
9024,note_on,,,,,0,0,7,,,,6,,67,96
9024,note_on,,,,,0,0,7,,,,6,,74,96
9045,note_off,,,,,21,0,12,,,,13,,55,0
9045,note_off,,,,,0,0,7,,,,6,,74,0
9045,note_off,,,,,0,0,7,,,,6,,67,0
9045,note_off,,,,,21,0,11,,,,12,,43,0
9045,note_off,,,,,21,0,7,,,,6,,59,0
9045,note_off,,,,,21,0,10,,,,11,,55,0
9048,note_on,,,,,3,0,11,,,,12,,45,36
9048,note_on,,,,,3,0,10,,,,11,,57,36
9048,note_on,,,,,3,0,12,,,,13,,57,36
9048,note_on,,,,,3,0,7,,,,6,,72,96
9066,note_off,,,,,42,0,1,,,,0,,71,0
9069,note_off,,,,,21,0,7,,,,6,,72,0
9069,note_off,,,,,21,0,11,,,,12,,45,0
9069,note_off,,,,,21,0,10,,,,11,,57,0
9069,note_off,,,,,21,0,12,,,,13,,57,0
9072,note_on,,,,,6,0,1,,,,0,,71,127
9072,note_on,,,,,3,0,10,,,,11,,55,36
9072,note_on,,,,,3,0,11,,,,12,,43,36
9072,note_on,,,,,3,0,12,,,,13,,55,36
9072,note_on,,,,,3,0,7,,,,6,,71,96
9093,note_off,,,,,21,0,7,,,,6,,71,0
9093,note_off,,,,,21,0,12,,,,13,,55,0
9093,note_off,,,,,21,0,10,,,,11,,55,0
9093,note_off,,,,,21,0,11,,,,12,,43,0
9096,note_on,,,,,3,0,7,,,,6,,69,96
9096,note_on,,,,,3,0,11,,,,12,,41,36
9096,note_on,,,,,3,0,12,,,,13,,53,36
9096,note_on,,,,,3,0,10,,,,11,,53,36
9114,note_off,,,,,42,0,1,,,,0,,71,0
9117,note_off,,,,,21,0,7,,,,6,,69,0
9117,note_off,,,,,21,0,12,,,,13,,53,0
9117,note_off,,,,,21,0,10,,,,11,,53,0
9117,note_off,,,,,21,0,11,,,,12,,41,0
9120,note_on,,,,,6,0,1,,,,0,,71,127
9120,note_on,,,,,3,0,7,,,,6,,71,96
9120,note_on,,,,,3,0,12,,,,13,,55,36
9120,note_on,,,,,3,0,10,,,,11,,55,36
9120,note_on,,,,,3,0,11,,,,12,,43,36
9141,note_off,,,,,21,0,7,,,,6,,71,0
9141,note_off,,,,,21,0,10,,,,11,,55,0
9141,note_off,,,,,21,0,11,,,,12,,43,0
9141,note_off,,,,,21,0,12,,,,13,,55,0
9144,note_on,,,,,3,0,12,,,,13,,53,36
9144,note_on,,,,,3,0,10,,,,11,,53,36
9144,note_on,,,,,3,0,7,,,,6,,67,96
9144,note_on,,,,,3,0,11,,,,12,,41,36
9162,note_off,,,,,42,0,1,,,,0,,71,0
9165,note_off,,,,,21,0,10,,,,11,,53,0
9165,note_off,,,,,21,0,7,,,,6,,67,0
9165,note_off,,,,,21,0,11,,,,12,,41,0
9165,note_off,,,,,21,0,12,,,,13,,53,0
9168,note_on,,,,,3,0,12,,,,13,,52,36
9168,note_on,,,,,6,0,1,,,,0,,71,127
9168,note_on,,,,,3,0,11,,,,12,,40,36
9168,note_on,,,,,3,0,10,,,,11,,52,36
9168,note_on,,,,,3,0,7,,,,6,,76,96
9189,note_off,,,,,21,0,10,,,,11,,52,0
9189,note_off,,,,,21,0,12,,,,13,,52,0
9189,note_off,,,,,21,0,1,,,,0,,71,0
9189,note_off,,,,,21,0,11,,,,12,,40,0
9192,note_on,,,,,3,0,11,,,,12,,45,36
9192,note_on,,,,,3,0,10,,,,11,,57,36
9192,note_on,,,,,3,0,12,,,,13,,57,36
9192,note_on,,,,,3,0,1,,,,0,,72,127
9210,note_off,,,,,42,0,7,,,,6,,76,0
9213,note_off,,,,,21,0,12,,,,13,,57,0
9213,note_off,,,,,21,0,1,,,,0,,72,0
9213,note_off,,,,,21,0,10,,,,11,,57,0
9213,note_off,,,,,21,0,11,,,,12,,45,0
9216,note_on,,,,,3,0,12,,,,13,,55,36
9216,note_on,,,,,3,0,1,,,,0,,71,127
9216,note_on,,,,,3,0,10,,,,11,,55,36
9216,note_on,,,,,0,0,7,,,,6,,76,96
9216,note_on,,,,,0,0,7,,,,6,,71,96
9216,note_on,,,,,6,0,7,,,,6,,64,96
9216,note_on,,,,,3,0,11,,,,12,,43,36
9237,note_off,,,,,21,0,11,,,,12,,43,0
9237,note_off,,,,,21,0,1,,,,0,,71,0
9237,note_off,,,,,21,0,10,,,,11,,55,0
9237,note_off,,,,,21,0,12,,,,13,,55,0
9240,note_on,,,,,3,0,1,,,,0,,69,127
9240,note_on,,,,,3,0,12,,,,13,,53,36
9240,note_on,,,,,3,0,10,,,,11,,53,36
9240,note_on,,,,,3,0,11,,,,12,,41,36
9258,note_off,,,,,0,0,7,,,,6,,76,0
9258,note_off,,,,,0,0,7,,,,6,,71,0
9258,note_off,,,,,42,0,7,,,,6,,64,0
9261,note_off,,,,,21,0,11,,,,12,,41,0
9261,note_off,,,,,21,0,1,,,,0,,69,0
9261,note_off,,,,,21,0,12,,,,13,,53,0
9261,note_off,,,,,21,0,10,,,,11,,53,0
9264,note_on,,,,,3,0,10,,,,11,,55,36
9264,note_on,,,,,3,0,11,,,,12,,43,36
9264,note_on,,,,,3,0,12,,,,13,,55,36
9264,note_on,,,,,3,0,1,,,,0,,71,127
9264,note_on,,,,,0,0,7,,,,6,,71,96
9264,note_on,,,,,0,0,7,,,,6,,76,96
9264,note_on,,,,,6,0,7,,,,6,,64,96
9285,note_off,,,,,21,0,11,,,,12,,43,0
9285,note_off,,,,,21,0,1,,,,0,,71,0
9285,note_off,,,,,21,0,12,,,,13,,55,0
9285,note_off,,,,,21,0,10,,,,11,,55,0
9288,note_on,,,,,3,0,1,,,,0,,67,127
9288,note_on,,,,,3,0,12,,,,13,,52,36
9288,note_on,,,,,3,0,10,,,,11,,52,36
9288,note_on,,,,,3,0,11,,,,12,,40,36
9306,note_off,,,,,0,0,7,,,,6,,76,0
9306,note_off,,,,,0,0,7,,,,6,,71,0
9306,note_off,,,,,42,0,7,,,,6,,64,0
9309,note_off,,,,,21,0,12,,,,13,,52,0
9309,note_off,,,,,21,0,1,,,,0,,67,0
9309,note_off,,,,,21,0,10,,,,11,,52,0
9309,note_off,,,,,21,0,11,,,,12,,40,0
9312,note_on,,,,,3,0,11,,,,12,,45,36
9312,note_on,,,,,3,0,10,,,,11,,57,36
9312,note_on,,,,,0,0,7,,,,6,,76,96
9312,note_on,,,,,3,0,12,,,,13,,57,36
9312,note_on,,,,,6,0,7,,,,6,,60,96
9312,note_on,,,,,3,0,1,,,,0,,72,127
9312,note_on,,,,,0,0,7,,,,6,,69,96
9333,note_off,,,,,21,0,12,,,,13,,57,0
9333,note_off,,,,,21,0,10,,,,11,,57,0
9333,note_off,,,,,21,0,11,,,,12,,45,0
9333,note_off,,,,,0,0,7,,,,6,,76,0
9333,note_off,,,,,0,0,7,,,,6,,69,0
9333,note_off,,,,,21,0,7,,,,6,,60,0
9336,note_on,,,,,3,0,11,,,,12,,46,36
9336,note_on,,,,,3,0,12,,,,13,,58,36
9336,note_on,,,,,3,0,10,,,,11,,58,36
9336,note_on,,,,,3,0,7,,,,6,,74,96
9354,note_off,,,,,42,0,1,,,,0,,72,0
9357,note_off,,,,,21,0,10,,,,11,,58,0
9357,note_off,,,,,21,0,7,,,,6,,74,0
9357,note_off,,,,,21,0,12,,,,13,,58,0
9357,note_off,,,,,21,0,11,,,,12,,46,0
9360,note_on,,,,,6,0,1,,,,0,,72,127
9360,note_on,,,,,3,0,10,,,,11,,57,36
9360,note_on,,,,,3,0,12,,,,13,,57,36
9360,note_on,,,,,3,0,11,,,,12,,45,36
9360,note_on,,,,,3,0,7,,,,6,,72,96
9381,note_off,,,,,21,0,11,,,,12,,45,0
9381,note_off,,,,,21,0,7,,,,6,,72,0
9381,note_off,,,,,21,0,12,,,,13,,57,0
9381,note_off,,,,,21,0,10,,,,11,,57,0
9384,note_on,,,,,3,0,7,,,,6,,71,96
9384,note_on,,,,,3,0,10,,,,11,,55,36
9384,note_on,,,,,3,0,12,,,,13,,55,36
9384,note_on,,,,,3,0,11,,,,12,,43,36
9402,note_off,,,,,42,0,1,,,,0,,72,0
9405,note_off,,,,,21,0,7,,,,6,,71,0
9405,note_off,,,,,21,0,11,,,,12,,43,0
9405,note_off,,,,,21,0,10,,,,11,,55,0
9405,note_off,,,,,21,0,12,,,,13,,55,0
9408,note_on,,,,,6,0,1,,,,0,,72,127
9408,note_on,,,,,3,0,12,,,,13,,57,36
9408,note_on,,,,,3,0,10,,,,11,,57,36
9408,note_on,,,,,3,0,7,,,,6,,72,96
9408,note_on,,,,,3,0,11,,,,12,,45,36
9429,note_off,,,,,21,0,7,,,,6,,72,0
9429,note_off,,,,,21,0,10,,,,11,,57,0
9429,note_off,,,,,21,0,11,,,,12,,45,0
9429,note_off,,,,,21,0,12,,,,13,,57,0
9432,note_on,,,,,3,0,12,,,,13,,55,36
9432,note_on,,,,,3,0,7,,,,6,,69,96
9432,note_on,,,,,3,0,10,,,,11,,55,36
9432,note_on,,,,,3,0,11,,,,12,,43,36
9450,note_off,,,,,42,0,1,,,,0,,72,0
9453,note_off,,,,,21,0,10,,,,11,,55,0
9453,note_off,,,,,21,0,11,,,,12,,43,0
9453,note_off,,,,,21,0,7,,,,6,,69,0
9453,note_off,,,,,21,0,12,,,,13,,55,0
9456,note_on,,,,,3,0,11,,,,12,,41,36
9456,note_on,,,,,3,0,10,,,,11,,53,36
9456,note_on,,,,,3,0,12,,,,13,,53,36
9456,note_on,,,,,6,0,1,,,,0,,72,127
9456,note_on,,,,,3,0,7,,,,6,,77,96
9477,note_off,,,,,21,0,11,,,,12,,41,0
9477,note_off,,,,,21,0,1,,,,0,,72,0
9477,note_off,,,,,21,0,12,,,,13,,53,0
9477,note_off,,,,,21,0,10,,,,11,,53,0
9480,note_on,,,,,3,0,12,,,,13,,58,36
9480,note_on,,,,,3,0,10,,,,11,,58,36
9480,note_on,,,,,3,0,11,,,,12,,46,36
9480,note_on,,,,,3,0,1,,,,0,,74,127
9498,note_off,,,,,42,0,7,,,,6,,77,0
9501,note_off,,,,,21,0,10,,,,11,,58,0
9501,note_off,,,,,21,0,11,,,,12,,46,0
9501,note_off,,,,,21,0,1,,,,0,,74,0
9501,note_off,,,,,21,0,12,,,,13,,58,0
9504,note_on,,,,,3,0,1,,,,0,,72,127
9504,note_on,,,,,6,0,7,,,,6,,60,96
9504,note_on,,,,,0,0,7,,,,6,,69,96
9504,note_on,,,,,0,0,7,,,,6,,77,96
9504,note_on,,,,,3,0,11,,,,12,,45,36
9504,note_on,,,,,3,0,12,,,,13,,57,36
9504,note_on,,,,,3,0,10,,,,11,,57,36
9525,note_off,,,,,21,0,12,,,,13,,57,0
9525,note_off,,,,,21,0,10,,,,11,,57,0
9525,note_off,,,,,21,0,1,,,,0,,72,0
9525,note_off,,,,,21,0,11,,,,12,,45,0
9528,note_on,,,,,3,0,1,,,,0,,71,127
9528,note_on,,,,,3,0,11,,,,12,,43,36
9528,note_on,,,,,3,0,10,,,,11,,55,36
9528,note_on,,,,,3,0,12,,,,13,,55,36
9546,note_off,,,,,42,0,7,,,,6,,60,0
9546,note_off,,,,,0,0,7,,,,6,,69,0
9546,note_off,,,,,0,0,7,,,,6,,77,0
9549,note_off,,,,,21,0,11,,,,12,,43,0
9549,note_off,,,,,21,0,1,,,,0,,71,0
9549,note_off,,,,,21,0,10,,,,11,,55,0
9549,note_off,,,,,21,0,12,,,,13,,55,0
9552,note_on,,,,,3,0,1,,,,0,,72,127
9552,note_on,,,,,3,0,10,,,,11,,57,36
9552,note_on,,,,,3,0,11,,,,12,,45,36
9552,note_on,,,,,0,0,7,,,,6,,69,96
9552,note_on,,,,,6,0,7,,,,6,,60,96
9552,note_on,,,,,0,0,7,,,,6,,77,96
9552,note_on,,,,,3,0,12,,,,13,,57,36
9573,note_off,,,,,21,0,1,,,,0,,72,0
9573,note_off,,,,,21,0,11,,,,12,,45,0
9573,note_off,,,,,21,0,10,,,,11,,57,0
9573,note_off,,,,,21,0,12,,,,13,,57,0
9576,note_on,,,,,3,0,12,,,,13,,53,36
9576,note_on,,,,,3,0,10,,,,11,,53,36
9576,note_on,,,,,3,0,1,,,,0,,69,127
9576,note_on,,,,,3,0,11,,,,12,,41,36
9594,note_off,,,,,0,0,7,,,,6,,77,0
9594,note_off,,,,,0,0,7,,,,6,,69,0
9594,note_off,,,,,42,0,7,,,,6,,60,0
9597,note_off,,,,,21,0,12,,,,13,,53,0
9597,note_off,,,,,21,0,10,,,,11,,53,0
9597,note_off,,,,,21,0,1,,,,0,,69,0
9597,note_off,,,,,21,0,11,,,,12,,41,0
9600,note_on,,,,,3,0,11,,,,12,,43,36
9600,note_on,,,,,3,0,10,,,,11,,55,36
9600,note_on,,,,,3,0,1,,,,0,,71,127
9600,note_on,,,,,3,0,12,,,,13,,55,36
9600,note_on,,,,,0,0,7,,,,6,,77,96
9600,note_on,,,,,0,0,7,,,,6,,67,96
9600,note_on,,,,,6,0,7,,,,6,,59,96
9621,note_off,,,,,0,0,7,,,,6,,77,0
9621,note_off,,,,,21,0,7,,,,6,,59,0
9621,note_off,,,,,0,0,7,,,,6,,67,0
9621,note_off,,,,,21,0,1,,,,0,,71,0
9624,note_on,,,,,3,0,7,,,,6,,76,96
9624,note_on,,,,,3,0,1,,,,0,,72,127
9642,note_off,,,,,42,0,11,,,,12,,43,0
9642,note_off,,,,,42,0,12,,,,13,,55,0
9642,note_off,,,,,42,0,10,,,,11,,55,0
9645,note_off,,,,,21,0,7,,,,6,,76,0
9645,note_off,,,,,21,0,1,,,,0,,72,0
9648,note_on,,,,,3,0,1,,,,0,,71,127
9648,note_on,,,,,6,0,10,,,,11,,43,36
9648,note_on,,,,,3,0,7,,,,6,,74,96
9648,note_on,,,,,6,0,11,,,,12,,31,36
9648,note_on,,,,,6,0,12,,,,13,,43,36
9669,note_off,,,,,21,0,1,,,,0,,71,0
9669,note_off,,,,,21,0,7,,,,6,,74,0
9672,note_on,,,,,3,0,1,,,,0,,69,127
9672,note_on,,,,,3,0,7,,,,6,,72,96
9690,note_off,,,,,42,0,10,,,,11,,43,0
9690,note_off,,,,,42,0,11,,,,12,,31,0
9690,note_off,,,,,42,0,12,,,,13,,43,0
9693,note_off,,,,,21,0,7,,,,6,,72,0
9693,note_off,,,,,21,0,1,,,,0,,69,0
9696,note_on,,,,,6,0,10,,,,11,,43,36
9696,note_on,,,,,3,0,7,,,,6,,74,96
9696,note_on,,,,,6,0,11,,,,12,,31,36
9696,note_on,,,,,6,0,12,,,,13,,43,36
9696,note_on,,,,,3,0,1,,,,0,,67,127
9717,note_off,,,,,21,0,7,,,,6,,74,0
9717,note_off,,,,,21,0,1,,,,0,,67,0
9720,note_on,,,,,3,0,7,,,,6,,71,96
9720,note_on,,,,,3,0,1,,,,0,,69,127
9738,note_off,,,,,42,0,12,,,,13,,43,0
9738,note_off,,,,,42,0,11,,,,12,,31,0
9738,note_off,,,,,42,0,10,,,,11,,43,0
9741,note_off,,,,,21,0,7,,,,6,,71,0
9741,note_off,,,,,21,0,1,,,,0,,69,0
9744,note_on,,,,,3,0,7,,,,6,,79,96
9744,note_on,,,,,6,0,11,,,,12,,31,36
9744,note_on,,,,,6,0,12,,,,13,,43,36
9744,note_on,,,,,3,0,1,,,,0,,71,127
9744,note_on,,,,,6,0,10,,,,11,,43,36
9765,note_off,,,,,21,0,1,,,,0,,71,0
9768,note_on,,,,,3,0,1,,,,0,,72,127
9786,note_off,,,,,42,0,11,,,,12,,31,0
9786,note_off,,,,,42,0,7,,,,6,,79,0
9786,note_off,,,,,42,0,12,,,,13,,43,0
9786,note_off,,,,,42,0,10,,,,11,,43,0
9789,note_off,,,,,21,0,1,,,,0,,72,0
9792,note_on,,,,,6,0,10,,,,11,,47,36
9792,note_on,,,,,6,0,12,,,,13,,47,36
9792,note_on,,,,,6,0,11,,,,12,,35,36
9792,note_on,,,,,6,0,7,,,,6,,79,96
9792,note_on,,,,,3,0,1,,,,0,,74,127
9813,note_off,,,,,21,0,12,,,,13,,47,0
9813,note_off,,,,,21,0,11,,,,12,,35,0
9813,note_off,,,,,21,0,1,,,,0,,74,0
9813,note_off,,,,,21,0,10,,,,11,,47,0
9816,note_on,,,,,3,0,10,,,,11,,45,36
9816,note_on,,,,,3,0,12,,,,13,,45,36
9816,note_on,,,,,3,0,11,,,,12,,33,36
9816,note_on,,,,,3,0,1,,,,0,,72,127
9834,note_off,,,,,42,0,7,,,,6,,79,0
9837,note_off,,,,,21,0,10,,,,11,,45,0
9837,note_off,,,,,21,0,1,,,,0,,72,0
9837,note_off,,,,,21,0,12,,,,13,,45,0
9837,note_off,,,,,21,0,11,,,,12,,33,0
9840,note_on,,,,,3,0,12,,,,13,,47,36
9840,note_on,,,,,3,0,1,,,,0,,74,127
9840,note_on,,,,,3,0,10,,,,11,,47,36
9840,note_on,,,,,6,0,7,,,,6,,79,96
9840,note_on,,,,,3,0,11,,,,12,,35,36
9861,note_off,,,,,21,0,10,,,,11,,47,0
9861,note_off,,,,,21,0,11,,,,12,,35,0
9861,note_off,,,,,21,0,12,,,,13,,47,0
9861,note_off,,,,,21,0,1,,,,0,,74,0
9864,note_on,,,,,3,0,10,,,,11,,43,36
9864,note_on,,,,,3,0,12,,,,13,,43,36
9864,note_on,,,,,3,0,1,,,,0,,71,127
9864,note_on,,,,,3,0,11,,,,12,,31,36
9882,note_off,,,,,42,0,7,,,,6,,79,0
9885,note_off,,,,,21,0,1,,,,0,,71,0
9885,note_off,,,,,21,0,12,,,,13,,43,0
9885,note_off,,,,,21,0,10,,,,11,,43,0
9885,note_off,,,,,21,0,11,,,,12,,31,0
9888,note_on,,,,,3,0,10,,,,11,,48,36
9888,note_on,,,,,1350,0,2,,,,1,,67,127
9888,note_on,,,,,1356,0,6,,,,5,,48,62
9888,note_on,,,,,0,0,12,,,,13,,48,36
9888,note_on,,,,,0,0,12,,,,13,,76,36
9888,note_on,,,,,3,0,12,,,,13,,67,36
9888,note_on,,,,,3,0,11,,,,12,,36,36
9888,note_on,,,,,3,0,1,,,,0,,72,127
9888,note_on,,,,,6,0,7,,,,6,,79,96
9909,note_off,,,,,21,0,1,,,,0,,72,0
9912,note_on,,,,,3,0,1,,,,0,,74,127
9930,note_off,,,,,0,0,12,,,,13,,76,0
9930,note_off,,,,,42,0,12,,,,13,,67,0
9930,note_off,,,,,42,0,11,,,,12,,36,0
9930,note_off,,,,,0,0,12,,,,13,,48,0
9930,note_off,,,,,42,0,6,,,,5,,48,0
9930,note_off,,,,,42,0,2,,,,1,,67,0
9930,note_off,,,,,42,0,10,,,,11,,48,0
9933,note_off,,,,,21,0,1,,,,0,,74,0
9936,note_on,,,,,1404,0,13,,,,14,,64,75
9936,note_on,,,,,1398,0,8,,,,7,,72,75
9936,note_on,,,,,0,0,12,,,,13,,52,36
9936,note_on,,,,,6,0,6,,,,5,,52,62
9936,note_on,,,,,3,0,1,,,,0,,72,127
9936,note_on,,,,,0,0,12,,,,13,,72,36
9936,note_on,,,,,6,0,2,,,,1,,67,127
9936,note_on,,,,,6,0,11,,,,12,,40,36
9936,note_on,,,,,1404,0,4,,,,3,,67,62
9936,note_on,,,,,6,0,12,,,,13,,67,36
9936,note_on,,,,,6,0,10,,,,11,,52,36
9936,note_on,,,,,1398,0,3,,,,2,,72,62
9936,note_on,,,,,1404,0,5,,,,4,,64,62
9936,note_on,,,,,1404,0,9,,,,8,,67,75
9957,note_off,,,,,21,0,1,,,,0,,72,0
9957,note_off,,,,,21,0,2,,,,1,,67,0
9960,note_on,,,,,3,0,2,,,,1,,67,127
9960,note_on,,,,,3,0,1,,,,0,,74,127
9978,note_off,,,,,42,0,4,,,,3,,67,0
9978,note_off,,,,,42,0,11,,,,12,,40,0
9978,note_off,,,,,42,0,10,,,,11,,52,0
9978,note_off,,,,,42,0,3,,,,2,,72,0
9978,note_off,,,,,42,0,9,,,,8,,67,0
9978,note_off,,,,,42,0,5,,,,4,,64,0
9978,note_off,,,,,42,0,13,,,,14,,64,0
9978,note_off,,,,,42,0,8,,,,7,,72,0
9978,note_off,,,,,0,0,12,,,,13,,52,0
9978,note_off,,,,,0,0,12,,,,13,,72,0
9978,note_off,,,,,42,0,12,,,,13,,67,0
9978,note_off,,,,,42,0,6,,,,5,,52,0
9981,note_off,,,,,21,0,1,,,,0,,74,0
9981,note_off,,,,,21,0,2,,,,1,,67,0
9984,note_on,,,,,6,0,8,,,,7,,72,75
9984,note_on,,,,,3,0,1,,,,0,,76,127
9984,note_on,,,,,3,0,2,,,,1,,67,127
9984,note_on,,,,,6,0,9,,,,8,,67,75
9984,note_on,,,,,6,0,13,,,,14,,64,75
9984,note_on,,,,,6,0,5,,,,4,,64,62
9984,note_on,,,,,6,0,10,,,,11,,55,36
9984,note_on,,,,,6,0,3,,,,2,,72,62
9984,note_on,,,,,6,0,6,,,,5,,55,62
9984,note_on,,,,,0,0,12,,,,13,,55,36
9984,note_on,,,,,0,0,12,,,,13,,72,36
9984,note_on,,,,,6,0,4,,,,3,,67,62
9984,note_on,,,,,6,0,12,,,,13,,64,36
9984,note_on,,,,,6,0,11,,,,12,,43,36
10005,note_off,,,,,21,0,2,,,,1,,67,0
10005,note_off,,,,,21,0,1,,,,0,,76,0
10008,note_on,,,,,3,0,2,,,,1,,67,127
10008,note_on,,,,,3,0,1,,,,0,,74,127
10026,note_off,,,,,42,0,13,,,,14,,64,0
10026,note_off,,,,,0,0,12,,,,13,,55,0
10026,note_off,,,,,0,0,12,,,,13,,72,0
10026,note_off,,,,,42,0,12,,,,13,,64,0
10026,note_off,,,,,42,0,4,,,,3,,67,0
10026,note_off,,,,,42,0,5,,,,4,,64,0
10026,note_off,,,,,42,0,9,,,,8,,67,0
10026,note_off,,,,,42,0,10,,,,11,,55,0
10026,note_off,,,,,42,0,8,,,,7,,72,0
10026,note_off,,,,,42,0,6,,,,5,,55,0
10026,note_off,,,,,42,0,3,,,,2,,72,0
10026,note_off,,,,,42,0,11,,,,12,,43,0
10029,note_off,,,,,21,0,1,,,,0,,74,0
10029,note_off,,,,,21,0,2,,,,1,,67,0
10032,note_on,,,,,6,0,9,,,,8,,67,75
10032,note_on,,,,,6,0,12,,,,13,,67,36
10032,note_on,,,,,0,0,12,,,,13,,72,36
10032,note_on,,,,,3,0,1,,,,0,,72,127
10032,note_on,,,,,6,0,13,,,,14,,64,75
10032,note_on,,,,,0,0,12,,,,13,,52,36
10032,note_on,,,,,6,0,11,,,,12,,40,36
10032,note_on,,,,,6,0,3,,,,2,,72,62
10032,note_on,,,,,6,0,6,,,,5,,52,62
10032,note_on,,,,,3,0,2,,,,1,,67,127
10032,note_on,,,,,6,0,10,,,,11,,52,36
10032,note_on,,,,,6,0,5,,,,4,,64,62
10032,note_on,,,,,6,0,4,,,,3,,67,62
10032,note_on,,,,,6,0,8,,,,7,,72,75
10074,note_off,,,,,42,0,9,,,,8,,67,0
10074,note_off,,,,,42,0,10,,,,11,,52,0
10074,note_off,,,,,42,0,11,,,,12,,40,0
10074,note_off,,,,,42,0,12,,,,13,,67,0
10074,note_off,,,,,42,0,6,,,,5,,52,0
10074,note_off,,,,,0,0,12,,,,13,,52,0
10074,note_off,,,,,42,0,1,,,,0,,72,0
10074,note_off,,,,,0,0,12,,,,13,,72,0
10074,note_off,,,,,42,0,3,,,,2,,72,0
10074,note_off,,,,,42,0,2,,,,1,,67,0
10074,note_off,,,,,42,0,4,,,,3,,67,0
10074,note_off,,,,,42,0,8,,,,7,,72,0
10074,note_off,,,,,42,0,5,,,,4,,64,0
10074,note_off,,,,,42,0,13,,,,14,,64,0
10080,note_on,,,,,6,0,5,,,,4,,67,62
10080,note_on,,,,,6,0,12,,,,13,,67,36
10080,note_on,,,,,0,0,12,,,,13,,76,36
10080,note_on,,,,,0,0,12,,,,13,,48,36
10080,note_on,,,,,6,0,3,,,,2,,76,62
10080,note_on,,,,,6,0,4,,,,3,,72,62
10080,note_on,,,,,6,0,10,,,,11,,48,36
10080,note_on,,,,,6,0,13,,,,14,,67,75
10080,note_on,,,,,6,0,11,,,,12,,36,36
10080,note_on,,,,,6,0,8,,,,7,,76,75
10080,note_on,,,,,6,0,9,,,,8,,72,75
10080,note_on,,,,,6,0,6,,,,5,,48,62
10101,note_off,,,,,21,0,8,,,,7,,76,0
10101,note_off,,,,,21,0,3,,,,2,,76,0
10101,note_off,,,,,21,0,5,,,,4,,67,0
10101,note_off,,,,,21,0,13,,,,14,,67,0
10101,note_off,,,,,21,0,4,,,,3,,72,0
10101,note_off,,,,,21,0,9,,,,8,,72,0
10104,note_on,,,,,3,0,8,,,,7,,74,75
10104,note_on,,,,,3,0,3,,,,2,,74,62
10104,note_on,,,,,3,0,4,,,,3,,71,62
10104,note_on,,,,,3,0,5,,,,4,,65,62
10104,note_on,,,,,3,0,13,,,,14,,65,75
10104,note_on,,,,,3,0,9,,,,8,,71,75
10122,note_off,,,,,42,0,10,,,,11,,48,0
10122,note_off,,,,,0,0,12,,,,13,,48,0
10122,note_off,,,,,0,0,12,,,,13,,76,0
10122,note_off,,,,,42,0,12,,,,13,,67,0
10122,note_off,,,,,42,0,6,,,,5,,48,0
10122,note_off,,,,,42,0,11,,,,12,,36,0
10125,note_off,,,,,21,0,9,,,,8,,71,0
10125,note_off,,,,,21,0,4,,,,3,,71,0
10125,note_off,,,,,21,0,13,,,,14,,65,0
10125,note_off,,,,,21,0,3,,,,2,,74,0
10125,note_off,,,,,21,0,5,,,,4,,65,0
10125,note_off,,,,,21,0,8,,,,7,,74,0
10128,note_on,,,,,3,0,5,,,,4,,67,62
10128,note_on,,,,,3,0,9,,,,8,,72,75
10128,note_on,,,,,3,0,8,,,,7,,76,75
10128,note_on,,,,,3,0,4,,,,3,,72,62
10128,note_on,,,,,3,0,13,,,,14,,67,75
10128,note_on,,,,,3,0,3,,,,2,,76,62
10149,note_off,,,,,21,0,8,,,,7,,76,0
10149,note_off,,,,,21,0,5,,,,4,,67,0
10149,note_off,,,,,21,0,9,,,,8,,72,0
10149,note_off,,,,,21,0,4,,,,3,,72,0
10149,note_off,,,,,21,0,13,,,,14,,67,0
10149,note_off,,,,,21,0,3,,,,2,,76,0
10152,note_on,,,,,3,0,4,,,,3,,67,62
10152,note_on,,,,,3,0,3,,,,2,,72,62
10152,note_on,,,,,3,0,5,,,,4,,64,62
10152,note_on,,,,,3,0,13,,,,14,,64,75
10152,note_on,,,,,3,0,9,,,,8,,67,75
10152,note_on,,,,,3,0,8,,,,7,,72,75
10173,note_off,,,,,21,0,3,,,,2,,72,0
10173,note_off,,,,,21,0,13,,,,14,,64,0
10173,note_off,,,,,21,0,4,,,,3,,67,0
10173,note_off,,,,,21,0,9,,,,8,,67,0
10173,note_off,,,,,21,0,5,,,,4,,64,0
10173,note_off,,,,,21,0,8,,,,7,,72,0
10176,note_on,,,,,3,0,5,,,,4,,67,62
10176,note_on,,,,,102,0,2,,,,1,,67,127
10176,note_on,,,,,102,0,1,,,,0,,74,127
10176,note_on,,,,,3,0,13,,,,14,,67,75
10176,note_on,,,,,3,0,4,,,,3,,74,62
10176,note_on,,,,,3,0,3,,,,2,,79,62
10176,note_on,,,,,3,0,9,,,,8,,74,75
10176,note_on,,,,,54,0,11,,,,12,,35,36
10176,note_on,,,,,0,0,12,,,,13,,47,36
10176,note_on,,,,,54,0,10,,,,11,,47,36
10176,note_on,,,,,3,0,8,,,,7,,79,75
10176,note_on,,,,,54,0,6,,,,5,,47,62
10176,note_on,,,,,54,0,12,,,,13,,67,36
10176,note_on,,,,,0,0,12,,,,13,,74,36
10197,note_off,,,,,21,0,1,,,,0,,74,0
10200,note_on,,,,,3,0,1,,,,0,,76,127
10218,note_off,,,,,42,0,5,,,,4,,67,0
10218,note_off,,,,,42,0,6,,,,5,,47,0
10218,note_off,,,,,42,0,2,,,,1,,67,0
10218,note_off,,,,,42,0,12,,,,13,,67,0
10218,note_off,,,,,42,0,3,,,,2,,79,0
10218,note_off,,,,,42,0,9,,,,8,,74,0
10218,note_off,,,,,0,0,12,,,,13,,47,0
10218,note_off,,,,,42,0,8,,,,7,,79,0
10218,note_off,,,,,42,0,4,,,,3,,74,0
10218,note_off,,,,,42,0,11,,,,12,,35,0
10218,note_off,,,,,42,0,10,,,,11,,47,0
10218,note_off,,,,,42,0,13,,,,14,,67,0
10218,note_off,,,,,0,0,12,,,,13,,74,0
10221,note_off,,,,,21,0,1,,,,0,,76,0
10224,note_on,,,,,6,0,3,,,,2,,79,62
10224,note_on,,,,,6,0,13,,,,14,,67,75
10224,note_on,,,,,6,0,2,,,,1,,67,127
10224,note_on,,,,,6,0,11,,,,12,,38,36
10224,note_on,,,,,6,0,4,,,,3,,74,62
10224,note_on,,,,,6,0,9,,,,8,,74,75
10224,note_on,,,,,6,0,5,,,,4,,67,62
10224,note_on,,,,,3,0,1,,,,0,,74,127
10224,note_on,,,,,0,0,12,,,,13,,71,36
10224,note_on,,,,,0,0,12,,,,13,,50,36
10224,note_on,,,,,6,0,8,,,,7,,79,75
10224,note_on,,,,,6,0,10,,,,11,,50,36
10224,note_on,,,,,6,0,6,,,,5,,50,62
10224,note_on,,,,,6,0,12,,,,13,,67,36
10245,note_off,,,,,21,0,1,,,,0,,74,0
10245,note_off,,,,,21,0,2,,,,1,,67,0
10248,note_on,,,,,3,0,1,,,,0,,76,127
10248,note_on,,,,,3,0,2,,,,1,,67,127
10266,note_off,,,,,42,0,3,,,,2,,79,0
10266,note_off,,,,,42,0,10,,,,11,,50,0
10266,note_off,,,,,0,0,12,,,,13,,71,0
10266,note_off,,,,,0,0,12,,,,13,,50,0
10266,note_off,,,,,42,0,4,,,,3,,74,0
10266,note_off,,,,,42,0,5,,,,4,,67,0
10266,note_off,,,,,42,0,8,,,,7,,79,0
10266,note_off,,,,,42,0,12,,,,13,,67,0
10266,note_off,,,,,42,0,6,,,,5,,50,0
10266,note_off,,,,,42,0,11,,,,12,,38,0
10266,note_off,,,,,42,0,13,,,,14,,67,0
10266,note_off,,,,,42,0,9,,,,8,,74,0
10269,note_off,,,,,21,0,1,,,,0,,76,0
10269,note_off,,,,,21,0,2,,,,1,,67,0
10272,note_on,,,,,6,0,8,,,,7,,79,75
10272,note_on,,,,,3,0,1,,,,0,,77,127
10272,note_on,,,,,6,0,10,,,,11,,55,36
10272,note_on,,,,,3,0,2,,,,1,,67,127
10272,note_on,,,,,6,0,13,,,,14,,67,75
10272,note_on,,,,,6,0,3,,,,2,,79,62
10272,note_on,,,,,0,0,12,,,,13,,55,36
10272,note_on,,,,,6,0,4,,,,3,,74,62
10272,note_on,,,,,6,0,12,,,,13,,62,36
10272,note_on,,,,,6,0,9,,,,8,,74,75
10272,note_on,,,,,6,0,6,,,,5,,55,62
10272,note_on,,,,,0,0,12,,,,13,,71,36
10272,note_on,,,,,6,0,11,,,,12,,43,36
10272,note_on,,,,,6,0,5,,,,4,,67,62
10293,note_off,,,,,21,0,1,,,,0,,77,0
10293,note_off,,,,,21,0,2,,,,1,,67,0
10296,note_on,,,,,3,0,2,,,,1,,67,127
10296,note_on,,,,,3,0,1,,,,0,,76,127
10314,note_off,,,,,0,0,12,,,,13,,55,0
10314,note_off,,,,,42,0,6,,,,5,,55,0
10314,note_off,,,,,42,0,4,,,,3,,74,0
10314,note_off,,,,,42,0,8,,,,7,,79,0
10314,note_off,,,,,42,0,5,,,,4,,67,0
10314,note_off,,,,,42,0,13,,,,14,,67,0
10314,note_off,,,,,42,0,9,,,,8,,74,0
10314,note_off,,,,,42,0,10,,,,11,,55,0
10314,note_off,,,,,42,0,3,,,,2,,79,0
10314,note_off,,,,,42,0,12,,,,13,,62,0
10314,note_off,,,,,42,0,11,,,,12,,43,0
10314,note_off,,,,,0,0,12,,,,13,,71,0
10317,note_off,,,,,21,0,1,,,,0,,76,0
10317,note_off,,,,,21,0,2,,,,1,,67,0
10320,note_on,,,,,6,0,5,,,,4,,67,62
10320,note_on,,,,,6,0,9,,,,8,,74,75
10320,note_on,,,,,3,0,1,,,,0,,74,127
10320,note_on,,,,,6,0,4,,,,3,,74,62
10320,note_on,,,,,6,0,8,,,,7,,79,75
10320,note_on,,,,,6,0,6,,,,5,,47,62
10320,note_on,,,,,3,0,2,,,,1,,67,127
10320,note_on,,,,,0,0,12,,,,13,,47,36
10320,note_on,,,,,6,0,12,,,,13,,62,36
10320,note_on,,,,,6,0,11,,,,12,,35,36
10320,note_on,,,,,6,0,13,,,,14,,67,75
10320,note_on,,,,,6,0,10,,,,11,,47,36
10320,note_on,,,,,6,0,3,,,,2,,79,62
10320,note_on,,,,,0,0,12,,,,13,,67,36
10362,note_off,,,,,42,0,1,,,,0,,74,0
10362,note_off,,,,,42,0,5,,,,4,,67,0
10362,note_off,,,,,42,0,12,,,,13,,62,0
10362,note_off,,,,,42,0,6,,,,5,,47,0
10362,note_off,,,,,42,0,2,,,,1,,67,0
10362,note_off,,,,,42,0,9,,,,8,,74,0
10362,note_off,,,,,0,0,12,,,,13,,47,0
10362,note_off,,,,,0,0,12,,,,13,,67,0
10362,note_off,,,,,42,0,10,,,,11,,47,0
10362,note_off,,,,,42,0,3,,,,2,,79,0
10362,note_off,,,,,42,0,8,,,,7,,79,0
10362,note_off,,,,,42,0,11,,,,12,,35,0
10362,note_off,,,,,42,0,4,,,,3,,74,0
10362,note_off,,,,,42,0,13,,,,14,,67,0
10368,note_on,,,,,6,0,8,,,,7,,83,75
10368,note_on,,,,,6,0,9,,,,8,,79,75
10368,note_on,,,,,6,0,11,,,,12,,31,36
10368,note_on,,,,,6,0,6,,,,5,,43,62
10368,note_on,,,,,6,0,5,,,,4,,74,62
10368,note_on,,,,,6,0,13,,,,14,,74,75
10368,note_on,,,,,0,0,12,,,,13,,43,36
10368,note_on,,,,,0,0,12,,,,13,,71,36
10368,note_on,,,,,6,0,12,,,,13,,62,36
10368,note_on,,,,,6,0,10,,,,11,,43,36
10368,note_on,,,,,6,0,3,,,,2,,83,62
10368,note_on,,,,,6,0,4,,,,3,,79,62
10389,note_off,,,,,21,0,8,,,,7,,83,0
10389,note_off,,,,,21,0,9,,,,8,,79,0
10389,note_off,,,,,21,0,3,,,,2,,83,0
10389,note_off,,,,,21,0,13,,,,14,,74,0
10389,note_off,,,,,21,0,5,,,,4,,74,0
10389,note_off,,,,,21,0,4,,,,3,,79,0
10392,note_on,,,,,3,0,4,,,,3,,77,62
10392,note_on,,,,,3,0,5,,,,4,,72,62
10392,note_on,,,,,3,0,8,,,,7,,81,75
10392,note_on,,,,,3,0,9,,,,8,,77,75
10392,note_on,,,,,3,0,13,,,,14,,72,75
10392,note_on,,,,,3,0,3,,,,2,,81,62
10410,note_off,,,,,42,0,11,,,,12,,31,0
10410,note_off,,,,,42,0,10,,,,11,,43,0
10410,note_off,,,,,42,0,12,,,,13,,62,0
10410,note_off,,,,,0,0,12,,,,13,,71,0
10410,note_off,,,,,0,0,12,,,,13,,43,0
10410,note_off,,,,,42,0,6,,,,5,,43,0
10413,note_off,,,,,21,0,13,,,,14,,72,0
10413,note_off,,,,,21,0,9,,,,8,,77,0
10413,note_off,,,,,21,0,5,,,,4,,72,0
10413,note_off,,,,,21,0,4,,,,3,,77,0
10413,note_off,,,,,21,0,8,,,,7,,81,0
10413,note_off,,,,,21,0,3,,,,2,,81,0
10416,note_on,,,,,3,0,5,,,,4,,74,62
10416,note_on,,,,,3,0,8,,,,7,,83,75
10416,note_on,,,,,3,0,3,,,,2,,83,62
10416,note_on,,,,,3,0,9,,,,8,,79,75
10416,note_on,,,,,3,0,4,,,,3,,79,62
10416,note_on,,,,,3,0,13,,,,14,,74,75
10437,note_off,,,,,21,0,3,,,,2,,83,0
10437,note_off,,,,,21,0,4,,,,3,,79,0
10437,note_off,,,,,21,0,9,,,,8,,79,0
10437,note_off,,,,,21,0,5,,,,4,,74,0
10437,note_off,,,,,21,0,13,,,,14,,74,0
10437,note_off,,,,,21,0,8,,,,7,,83,0
10440,note_on,,,,,3,0,13,,,,14,,71,75
10440,note_on,,,,,3,0,9,,,,8,,74,75
10440,note_on,,,,,3,0,3,,,,2,,79,62
10440,note_on,,,,,3,0,5,,,,4,,71,62
10440,note_on,,,,,3,0,8,,,,7,,79,75
10440,note_on,,,,,3,0,4,,,,3,,74,62
10461,note_off,,,,,21,0,5,,,,4,,71,0
10461,note_off,,,,,21,0,9,,,,8,,74,0
10461,note_off,,,,,21,0,3,,,,2,,79,0
10461,note_off,,,,,21,0,4,,,,3,,74,0
10461,note_off,,,,,21,0,13,,,,14,,71,0
10461,note_off,,,,,21,0,8,,,,7,,79,0
10464,note_on,,,,,102,0,2,,,,1,,72,127
10464,note_on,,,,,3,0,8,,,,7,,84,75
10464,note_on,,,,,3,0,4,,,,3,,81,62
10464,note_on,,,,,102,0,1,,,,0,,76,127
10464,note_on,,,,,0,0,12,,,,13,,45,36
10464,note_on,,,,,3,0,5,,,,4,,76,62
10464,note_on,,,,,3,0,13,,,,14,,76,75
10464,note_on,,,,,0,0,12,,,,13,,72,36
10464,note_on,,,,,54,0,10,,,,11,,45,36
10464,note_on,,,,,54,0,6,,,,5,,45,62
10464,note_on,,,,,3,0,3,,,,2,,84,62
10464,note_on,,,,,54,0,12,,,,13,,64,36
10464,note_on,,,,,54,0,11,,,,12,,33,36
10464,note_on,,,,,3,0,9,,,,8,,81,75
10485,note_off,,,,,597,0,7,,,,6,,79,0
10485,note_off,,,,,21,0,1,,,,0,,76,0
10488,note_on,,,,,3,0,7,,,,6,,81,96
10488,note_on,,,,,3,0,1,,,,0,,77,127
10506,note_off,,,,,42,0,5,,,,4,,76,0
10506,note_off,,,,,42,0,12,,,,13,,64,0
10506,note_off,,,,,42,0,6,,,,5,,45,0
10506,note_off,,,,,42,0,9,,,,8,,81,0
10506,note_off,,,,,42,0,4,,,,3,,81,0
10506,note_off,,,,,0,0,12,,,,13,,45,0
10506,note_off,,,,,42,0,3,,,,2,,84,0
10506,note_off,,,,,42,0,13,,,,14,,76,0
10506,note_off,,,,,42,0,2,,,,1,,72,0
10506,note_off,,,,,42,0,10,,,,11,,45,0
10506,note_off,,,,,42,0,8,,,,7,,84,0
10506,note_off,,,,,0,0,12,,,,13,,72,0
10506,note_off,,,,,42,0,11,,,,12,,33,0
10509,note_off,,,,,21,0,7,,,,6,,81,0
10509,note_off,,,,,21,0,1,,,,0,,77,0
10512,note_on,,,,,6,0,9,,,,8,,81,75
10512,note_on,,,,,6,0,5,,,,4,,76,62
10512,note_on,,,,,6,0,6,,,,5,,48,62
10512,note_on,,,,,6,0,8,,,,7,,84,75
10512,note_on,,,,,6,0,10,,,,11,,48,36
10512,note_on,,,,,6,0,12,,,,13,,64,36
10512,note_on,,,,,0,0,12,,,,13,,48,36
10512,note_on,,,,,6,0,2,,,,1,,67,127
10512,note_on,,,,,3,0,7,,,,6,,79,96
10512,note_on,,,,,0,0,12,,,,13,,69,36
10512,note_on,,,,,6,0,3,,,,2,,84,62
10512,note_on,,,,,6,0,4,,,,3,,81,62
10512,note_on,,,,,6,0,11,,,,12,,36,36
10512,note_on,,,,,3,0,1,,,,0,,76,127
10512,note_on,,,,,6,0,13,,,,14,,76,75
10533,note_off,,,,,21,0,7,,,,6,,79,0
10533,note_off,,,,,21,0,1,,,,0,,76,0
10536,note_on,,,,,3,0,1,,,,0,,74,127
10536,note_on,,,,,3,0,7,,,,6,,77,96
10554,note_off,,,,,0,0,12,,,,13,,69,0
10554,note_off,,,,,42,0,8,,,,7,,84,0
10554,note_off,,,,,42,0,9,,,,8,,81,0
10554,note_off,,,,,42,0,3,,,,2,,84,0
10554,note_off,,,,,42,0,10,,,,11,,48,0
10554,note_off,,,,,42,0,12,,,,13,,64,0
10554,note_off,,,,,42,0,6,,,,5,,48,0
10554,note_off,,,,,42,0,13,,,,14,,76,0
10554,note_off,,,,,0,0,12,,,,13,,48,0
10554,note_off,,,,,42,0,11,,,,12,,36,0
10554,note_off,,,,,42,0,5,,,,4,,76,0
10554,note_off,,,,,42,0,4,,,,3,,81,0
10554,note_off,,,,,42,0,2,,,,1,,67,0
10557,note_off,,,,,21,0,1,,,,0,,74,0
10557,note_off,,,,,21,0,7,,,,6,,77,0
10560,note_on,,,,,6,0,8,,,,7,,84,75
10560,note_on,,,,,6,0,3,,,,2,,84,62
10560,note_on,,,,,6,0,11,,,,12,,33,36
10560,note_on,,,,,6,0,4,,,,3,,81,62
10560,note_on,,,,,6,0,2,,,,1,,60,127
10560,note_on,,,,,3,0,7,,,,6,,79,96
10560,note_on,,,,,6,0,6,,,,5,,45,62
10560,note_on,,,,,6,0,13,,,,14,,76,75
10560,note_on,,,,,6,0,12,,,,13,,64,36
10560,note_on,,,,,0,0,12,,,,13,,72,36
10560,note_on,,,,,0,0,12,,,,13,,45,36
10560,note_on,,,,,6,0,9,,,,8,,81,75
10560,note_on,,,,,6,0,5,,,,4,,76,62
10560,note_on,,,,,3,0,1,,,,0,,76,127
10560,note_on,,,,,6,0,10,,,,11,,45,36
10581,note_off,,,,,21,0,7,,,,6,,79,0
10581,note_off,,,,,21,0,1,,,,0,,76,0
10584,note_on,,,,,3,0,1,,,,0,,72,127
10584,note_on,,,,,3,0,7,,,,6,,76,96
10602,note_off,,,,,42,0,9,,,,8,,81,0
10602,note_off,,,,,42,0,5,,,,4,,76,0
10602,note_off,,,,,42,0,8,,,,7,,84,0
10602,note_off,,,,,42,0,10,,,,11,,45,0
10602,note_off,,,,,42,0,3,,,,2,,84,0
10602,note_off,,,,,42,0,13,,,,14,,76,0
10602,note_off,,,,,42,0,4,,,,3,,81,0
10602,note_off,,,,,42,0,6,,,,5,,45,0
10602,note_off,,,,,42,0,2,,,,1,,60,0
10602,note_off,,,,,42,0,12,,,,13,,64,0
10602,note_off,,,,,0,0,12,,,,13,,72,0
10602,note_off,,,,,0,0,12,,,,13,,45,0
10602,note_off,,,,,42,0,11,,,,12,,33,0
10605,note_off,,,,,21,0,7,,,,6,,76,0
10605,note_off,,,,,21,0,1,,,,0,,72,0
10608,note_on,,,,,6,0,10,,,,11,,41,36
10608,note_on,,,,,6,0,11,,,,12,,29,36
10608,note_on,,,,,6,0,5,,,,4,,74,62
10608,note_on,,,,,3,0,7,,,,6,,81,96
10608,note_on,,,,,6,0,4,,,,3,,81,62
10608,note_on,,,,,6,0,8,,,,7,,84,75
10608,note_on,,,,,0,0,12,,,,13,,69,36
10608,note_on,,,,,6,0,12,,,,13,,62,36
10608,note_on,,,,,6,0,6,,,,5,,41,62
10608,note_on,,,,,6,0,3,,,,2,,84,62
10608,note_on,,,,,6,0,9,,,,8,,81,75
10608,note_on,,,,,0,0,12,,,,13,,41,36
10608,note_on,,,,,3,0,1,,,,0,,74,127
10608,note_on,,,,,6,0,13,,,,14,,74,75
10608,note_on,,,,,6,0,2,,,,1,,65,127
10629,note_off,,,,,21,0,1,,,,0,,74,0
10629,note_off,,,,,21,0,7,,,,6,,81,0
10632,note_on,,,,,3,0,1,,,,0,,76,127
10632,note_on,,,,,3,0,7,,,,6,,82,96
10650,note_off,,,,,42,0,4,,,,3,,81,0
10650,note_off,,,,,42,0,9,,,,8,,81,0
10650,note_off,,,,,42,0,10,,,,11,,41,0
10650,note_off,,,,,42,0,11,,,,12,,29,0
10650,note_off,,,,,42,0,6,,,,5,,41,0
10650,note_off,,,,,42,0,13,,,,14,,74,0
10650,note_off,,,,,0,0,12,,,,13,,69,0
10650,note_off,,,,,42,0,12,,,,13,,62,0
10650,note_off,,,,,42,0,3,,,,2,,84,0
10650,note_off,,,,,42,0,8,,,,7,,84,0
10650,note_off,,,,,0,0,12,,,,13,,41,0
10650,note_off,,,,,42,0,2,,,,1,,65,0
10650,note_off,,,,,42,0,5,,,,4,,74,0
10653,note_off,,,,,21,0,1,,,,0,,76,0
10653,note_off,,,,,21,0,7,,,,6,,82,0
10656,note_on,,,,,6,0,5,,,,4,,69,62
10656,note_on,,,,,6,0,4,,,,3,,77,62
10656,note_on,,,,,6,0,13,,,,14,,69,75
10656,note_on,,,,,6,0,11,,,,12,,26,36
10656,note_on,,,,,6,0,9,,,,8,,77,75
10656,note_on,,,,,3,0,7,,,,6,,81,96
10656,note_on,,,,,0,0,12,,,,13,,38,36
10656,note_on,,,,,3,0,1,,,,0,,77,127
10656,note_on,,,,,6,0,3,,,,2,,86,62
10656,note_on,,,,,6,0,2,,,,1,,69,127
10656,note_on,,,,,6,0,6,,,,5,,38,62
10656,note_on,,,,,0,0,12,,,,13,,69,36
10656,note_on,,,,,6,0,10,,,,11,,38,36
10656,note_on,,,,,6,0,12,,,,13,,65,36
10656,note_on,,,,,6,0,8,,,,7,,86,75
10677,note_off,,,,,21,0,7,,,,6,,81,0
10677,note_off,,,,,21,0,3,,,,2,,86,0
10677,note_off,,,,,21,0,8,,,,7,,86,0
10677,note_off,,,,,21,0,1,,,,0,,77,0
10680,note_on,,,,,3,0,1,,,,0,,76,127
10680,note_on,,,,,3,0,8,,,,7,,84,75
10680,note_on,,,,,3,0,7,,,,6,,79,96
10680,note_on,,,,,3,0,3,,,,2,,84,62
10698,note_off,,,,,0,0,12,,,,13,,69,0
10698,note_off,,,,,42,0,5,,,,4,,69,0
10698,note_off,,,,,42,0,2,,,,1,,69,0
10698,note_off,,,,,0,0,12,,,,13,,38,0
10698,note_off,,,,,42,0,13,,,,14,,69,0
10698,note_off,,,,,42,0,11,,,,12,,26,0
10698,note_off,,,,,42,0,4,,,,3,,77,0
10698,note_off,,,,,42,0,6,,,,5,,38,0
10698,note_off,,,,,42,0,10,,,,11,,38,0
10698,note_off,,,,,42,0,12,,,,13,,65,0
10698,note_off,,,,,42,0,9,,,,8,,77,0
10701,note_off,,,,,21,0,3,,,,2,,84,0
10701,note_off,,,,,21,0,7,,,,6,,79,0
10701,note_off,,,,,21,0,8,,,,7,,84,0
10701,note_off,,,,,21,0,1,,,,0,,76,0
10704,note_on,,,,,3,0,3,,,,2,,83,62
10704,note_on,,,,,6,0,13,,,,14,,74,75
10704,note_on,,,,,6,0,5,,,,4,,74,62
10704,note_on,,,,,3,0,7,,,,6,,77,96
10704,note_on,,,,,3,0,8,,,,7,,83,75
10704,note_on,,,,,6,0,9,,,,8,,81,75
10704,note_on,,,,,3,0,1,,,,0,,74,127
10704,note_on,,,,,6,0,4,,,,3,,81,62
10704,note_on,,,,,6,0,2,,,,1,,72,127
10725,note_off,,,,,21,0,3,,,,2,,83,0
10725,note_off,,,,,21,0,1,,,,0,,74,0
10725,note_off,,,,,21,0,8,,,,7,,83,0
10725,note_off,,,,,21,0,7,,,,6,,77,0
10728,note_on,,,,,3,0,3,,,,2,,81,62
10728,note_on,,,,,3,0,8,,,,7,,81,75
10728,note_on,,,,,3,0,1,,,,0,,72,127
10728,note_on,,,,,3,0,7,,,,6,,76,96
10746,note_off,,,,,42,0,2,,,,1,,72,0
10746,note_off,,,,,42,0,4,,,,3,,81,0
10746,note_off,,,,,42,0,5,,,,4,,74,0
10746,note_off,,,,,42,0,13,,,,14,,74,0
10746,note_off,,,,,42,0,9,,,,8,,81,0
10749,note_off,,,,,21,0,3,,,,2,,81,0
10749,note_off,,,,,21,0,1,,,,0,,72,0
10749,note_off,,,,,21,0,8,,,,7,,81,0
10749,note_off,,,,,21,0,7,,,,6,,76,0
10752,note_on,,,,,6,0,2,,,,1,,67,127
10752,note_on,,,,,3,0,8,,,,7,,83,75
10752,note_on,,,,,54,0,12,,,,13,,62,36
10752,note_on,,,,,0,0,12,,,,13,,71,36
10752,note_on,,,,,0,0,12,,,,13,,43,36
10752,note_on,,,,,54,0,10,,,,11,,43,36
10752,note_on,,,,,3,0,7,,,,6,,74,96
10752,note_on,,,,,6,0,13,,,,14,,74,75
10752,note_on,,,,,54,0,6,,,,5,,43,62
10752,note_on,,,,,54,0,11,,,,12,,31,36
10752,note_on,,,,,6,0,9,,,,8,,79,75
10752,note_on,,,,,6,0,4,,,,3,,79,62
10752,note_on,,,,,3,0,3,,,,2,,83,62
10752,note_on,,,,,3,0,1,,,,0,,74,127
10752,note_on,,,,,6,0,5,,,,4,,74,62
10773,note_off,,,,,21,0,4,,,,3,,79,0
10773,note_off,,,,,21,0,3,,,,2,,83,0
10773,note_off,,,,,21,0,8,,,,7,,83,0
10773,note_off,,,,,21,0,9,,,,8,,79,0
10776,note_on,,,,,3,0,9,,,,8,,81,75
10776,note_on,,,,,3,0,4,,,,3,,81,62
10776,note_on,,,,,3,0,3,,,,2,,84,62
10776,note_on,,,,,3,0,8,,,,7,,84,75
10794,note_off,,,,,0,0,12,,,,13,,43,0
10794,note_off,,,,,0,0,12,,,,13,,71,0
10794,note_off,,,,,42,0,2,,,,1,,67,0
10794,note_off,,,,,42,0,13,,,,14,,74,0
10794,note_off,,,,,42,0,11,,,,12,,31,0
10794,note_off,,,,,42,0,5,,,,4,,74,0
10794,note_off,,,,,42,0,6,,,,5,,43,0
10794,note_off,,,,,42,0,7,,,,6,,74,0
10794,note_off,,,,,42,0,10,,,,11,,43,0
10794,note_off,,,,,42,0,12,,,,13,,62,0
10794,note_off,,,,,42,0,1,,,,0,,74,0
10797,note_off,,,,,21,0,3,,,,2,,84,0
10797,note_off,,,,,21,0,8,,,,7,,84,0
10797,note_off,,,,,21,0,9,,,,8,,81,0
10797,note_off,,,,,21,0,4,,,,3,,81,0
10800,note_on,,,,,6,0,2,,,,1,,67,127
10800,note_on,,,,,6,0,1,,,,0,,74,127
10800,note_on,,,,,6,0,11,,,,12,,31,36
10800,note_on,,,,,3,0,8,,,,7,,86,75
10800,note_on,,,,,3,0,3,,,,2,,86,62
10800,note_on,,,,,3,0,4,,,,3,,83,62
10800,note_on,,,,,0,0,12,,,,13,,43,36
10800,note_on,,,,,0,0,12,,,,13,,72,36
10800,note_on,,,,,6,0,12,,,,13,,67,36
10800,note_on,,,,,6,0,10,,,,11,,43,36
10800,note_on,,,,,6,0,7,,,,6,,72,96
10800,note_on,,,,,6,0,13,,,,14,,69,75
10800,note_on,,,,,3,0,9,,,,8,,83,75
10800,note_on,,,,,6,0,6,,,,5,,43,62
10800,note_on,,,,,6,0,5,,,,4,,69,62
10810,note_off,,,,,10,0,8,,,,7,,86,0
10810,note_off,,,,,10,0,3,,,,2,,86,0
10810,note_off,,,,,10,0,4,,,,3,,83,0
10810,note_off,,,,,10,0,9,,,,8,,83,0
10812,note_on,,,,,2,0,9,,,,8,,81,75
10812,note_on,,,,,2,0,8,,,,7,,84,75
10812,note_on,,,,,2,0,3,,,,2,,84,62
10812,note_on,,,,,2,0,4,,,,3,,81,62
10821,note_off,,,,,21,0,1,,,,0,,74,0
10821,note_off,,,,,21,0,7,,,,6,,72,0
10821,note_off,,,,,21,0,2,,,,1,,67,0
10822,note_off,,,,,10,0,8,,,,7,,84,0
10822,note_off,,,,,10,0,4,,,,3,,81,0
10822,note_off,,,,,10,0,9,,,,8,,81,0
10822,note_off,,,,,10,0,3,,,,2,,84,0
10824,note_on,,,,,3,0,1,,,,0,,74,127
10824,note_on,,,,,3,0,7,,,,6,,71,96
10824,note_on,,,,,2,0,9,,,,8,,83,75
10824,note_on,,,,,3,0,2,,,,1,,67,127
10824,note_on,,,,,2,0,8,,,,7,,86,75
10824,note_on,,,,,2,0,3,,,,2,,86,62
10824,note_on,,,,,2,0,4,,,,3,,83,62
10834,note_off,,,,,10,0,4,,,,3,,83,0
10834,note_off,,,,,10,0,8,,,,7,,86,0
10834,note_off,,,,,10,0,3,,,,2,,86,0
10834,note_off,,,,,10,0,9,,,,8,,83,0
10836,note_on,,,,,2,0,3,,,,2,,84,62
10836,note_on,,,,,2,0,8,,,,7,,84,75
10836,note_on,,,,,2,0,9,,,,8,,81,75
10836,note_on,,,,,2,0,4,,,,3,,81,62
10842,note_off,,,,,42,0,5,,,,4,,69,0
10842,note_off,,,,,42,0,13,,,,14,,69,0
10842,note_off,,,,,42,0,12,,,,13,,67,0
10842,note_off,,,,,42,0,11,,,,12,,31,0
10842,note_off,,,,,0,0,12,,,,13,,72,0
10842,note_off,,,,,0,0,12,,,,13,,43,0
10842,note_off,,,,,42,0,6,,,,5,,43,0
10842,note_off,,,,,42,0,10,,,,11,,43,0
10845,note_off,,,,,21,0,2,,,,1,,67,0
10845,note_off,,,,,21,0,1,,,,0,,74,0
10845,note_off,,,,,21,0,7,,,,6,,71,0
10846,note_off,,,,,10,0,8,,,,7,,84,0
10846,note_off,,,,,10,0,9,,,,8,,81,0
10846,note_off,,,,,10,0,3,,,,2,,84,0
10846,note_off,,,,,10,0,4,,,,3,,81,0
10848,note_on,,,,,3,0,1,,,,0,,74,127
10848,note_on,,,,,2,0,9,,,,8,,83,75
10848,note_on,,,,,3,0,7,,,,6,,69,96
10848,note_on,,,,,6,0,11,,,,12,,31,36
10848,note_on,,,,,3,0,2,,,,1,,67,127
10848,note_on,,,,,6,0,12,,,,13,,71,36
10848,note_on,,,,,0,0,12,,,,13,,78,36
10848,note_on,,,,,0,0,12,,,,13,,43,36
10848,note_on,,,,,6,0,6,,,,5,,43,62
10848,note_on,,,,,2,0,8,,,,7,,86,75
10848,note_on,,,,,2,0,4,,,,3,,83,62
10848,note_on,,,,,6,0,5,,,,4,,78,62
10848,note_on,,,,,6,0,10,,,,11,,43,36
10848,note_on,,,,,6,0,13,,,,14,,66,75
10848,note_on,,,,,2,0,3,,,,2,,86,62
10858,note_off,,,,,10,0,8,,,,7,,86,0
10858,note_off,,,,,10,0,9,,,,8,,83,0
10858,note_off,,,,,10,0,3,,,,2,,86,0
10858,note_off,,,,,10,0,4,,,,3,,83,0
10860,note_on,,,,,2,0,8,,,,7,,84,75
10860,note_on,,,,,2,0,4,,,,3,,81,62
10860,note_on,,,,,2,0,9,,,,8,,81,75
10860,note_on,,,,,2,0,3,,,,2,,84,62
10869,note_off,,,,,21,0,7,,,,6,,69,0
10869,note_off,,,,,21,0,2,,,,1,,67,0
10869,note_off,,,,,21,0,1,,,,0,,74,0
10870,note_off,,,,,10,0,3,,,,2,,84,0
10870,note_off,,,,,10,0,9,,,,8,,81,0
10870,note_off,,,,,10,0,4,,,,3,,81,0
10870,note_off,,,,,10,0,8,,,,7,,84,0
10872,note_on,,,,,2,0,8,,,,7,,83,75
10872,note_on,,,,,2,0,3,,,,2,,83,62
10872,note_on,,,,,3,0,1,,,,0,,74,127
10872,note_on,,,,,2,0,9,,,,8,,79,75
10872,note_on,,,,,2,0,4,,,,3,,79,62
10872,note_on,,,,,3,0,7,,,,6,,67,96
10872,note_on,,,,,3,0,2,,,,1,,67,127
10882,note_off,,,,,10,0,4,,,,3,,79,0
10882,note_off,,,,,10,0,8,,,,7,,83,0
10882,note_off,,,,,10,0,9,,,,8,,79,0
10882,note_off,,,,,10,0,3,,,,2,,83,0
10884,note_on,,,,,2,0,3,,,,2,,84,62
10884,note_on,,,,,2,0,8,,,,7,,84,75
10884,note_on,,,,,2,0,9,,,,8,,81,75
10884,note_on,,,,,2,0,4,,,,3,,81,62
10890,note_off,,,,,42,0,5,,,,4,,78,0
10890,note_off,,,,,0,0,12,,,,13,,43,0
10890,note_off,,,,,0,0,12,,,,13,,78,0
10890,note_off,,,,,42,0,12,,,,13,,71,0
10890,note_off,,,,,42,0,10,,,,11,,43,0
10890,note_off,,,,,42,0,6,,,,5,,43,0
10890,note_off,,,,,42,0,13,,,,14,,66,0
10890,note_off,,,,,42,0,11,,,,12,,31,0
10893,note_off,,,,,21,0,1,,,,0,,74,0
10893,note_off,,,,,21,0,7,,,,6,,67,0
10893,note_off,,,,,21,0,2,,,,1,,67,0
10894,note_off,,,,,10,0,3,,,,2,,84,0
10894,note_off,,,,,10,0,9,,,,8,,81,0
10894,note_off,,,,,10,0,8,,,,7,,84,0
10894,note_off,,,,,10,0,4,,,,3,,81,0
10896,note_on,,,,,2,0,9,,,,8,,83,75
10896,note_on,,,,,6,0,13,,,,14,,62,75
10896,note_on,,,,,2,0,8,,,,7,,86,75
10896,note_on,,,,,3,0,7,,,,6,,74,96
10896,note_on,,,,,3,0,1,,,,0,,74,127
10896,note_on,,,,,6,0,6,,,,5,,43,62
10896,note_on,,,,,0,0,12,,,,13,,43,36
10896,note_on,,,,,2,0,3,,,,2,,86,62
10896,note_on,,,,,0,0,12,,,,13,,79,36
10896,note_on,,,,,2,0,4,,,,3,,83,62
10896,note_on,,,,,6,0,12,,,,13,,71,36
10896,note_on,,,,,6,0,10,,,,11,,43,36
10896,note_on,,,,,6,0,5,,,,4,,79,62
10896,note_on,,,,,3,0,2,,,,1,,67,127
10896,note_on,,,,,6,0,11,,,,12,,31,36
10917,note_off,,,,,21,0,10,,,,11,,43,0
10917,note_off,,,,,21,0,12,,,,13,,43,0
10917,note_off,,,,,21,0,11,,,,12,,31,0
10917,note_off,,,,,21,0,7,,,,6,,74,0
10920,note_on,,,,,3,0,7,,,,6,,76,96
10920,note_on,,,,,3,0,11,,,,12,,33,36
10920,note_on,,,,,3,0,10,,,,11,,45,36
10920,note_on,,,,,3,0,12,,,,13,,45,36
10938,note_off,,,,,42,0,8,,,,7,,86,0
10938,note_off,,,,,42,0,2,,,,1,,67,0
10938,note_off,,,,,42,0,4,,,,3,,83,0
10938,note_off,,,,,42,0,3,,,,2,,86,0
10938,note_off,,,,,42,0,1,,,,0,,74,0
10938,note_off,,,,,42,0,5,,,,4,,79,0
10941,note_off,,,,,21,0,10,,,,11,,45,0
10941,note_off,,,,,21,0,11,,,,12,,33,0
10941,note_off,,,,,21,0,7,,,,6,,76,0
10941,note_off,,,,,21,0,12,,,,13,,45,0
10944,note_on,,,,,3,0,12,,,,13,,47,36
10944,note_on,,,,,6,0,3,,,,2,,79,62
10944,note_on,,,,,3,0,11,,,,12,,35,36
10944,note_on,,,,,3,0,7,,,,6,,77,96
10944,note_on,,,,,3,0,10,,,,11,,47,36
10944,note_on,,,,,6,0,8,,,,7,,79,75
10954,note_off,,,,,10,0,7,,,,6,,77,0
10956,note_on,,,,,2,0,7,,,,6,,76,96
10965,note_off,,,,,21,0,11,,,,12,,35,0
10965,note_off,,,,,21,0,10,,,,11,,47,0
10965,note_off,,,,,21,0,12,,,,13,,47,0
10966,note_off,,,,,10,0,7,,,,6,,76,0
10968,note_on,,,,,3,0,12,,,,13,,45,36
10968,note_on,,,,,3,0,11,,,,12,,33,36
10968,note_on,,,,,2,0,7,,,,6,,77,96
10968,note_on,,,,,3,0,10,,,,11,,45,36
10978,note_off,,,,,10,0,7,,,,6,,77,0
10980,note_off,,,,,12,0,12,,,,13,,71,0
10980,note_off,,,,,84,0,9,,,,8,,83,0
10980,note_off,,,,,84,0,6,,,,5,,43,0
10980,note_on,,,,,2,0,7,,,,6,,76,96
10980,note_off,,,,,0,0,12,,,,13,,79,0
10980,note_off,,,,,84,0,13,,,,14,,62,0
10986,note_off,,,,,42,0,8,,,,7,,79,0
10986,note_off,,,,,42,0,3,,,,2,,79,0
10989,note_off,,,,,9,0,12,,,,13,,45,0
10989,note_off,,,,,21,0,11,,,,12,,33,0
10989,note_off,,,,,21,0,10,,,,11,,45,0
10990,note_off,,,,,10,0,7,,,,6,,76,0
10992,note_on,,,,,3,0,12,,,,13,,47,36
10992,note_on,,,,,3,0,11,,,,12,,35,36
10992,note_on,,,,,2,0,7,,,,6,,77,96
10992,note_on,,,,,3,0,10,,,,11,,47,36
11002,note_off,,,,,10,0,7,,,,6,,77,0
11004,note_on,,,,,2,0,7,,,,6,,76,96
11013,note_off,,,,,21,0,10,,,,11,,47,0
11013,note_off,,,,,21,0,12,,,,13,,47,0
11013,note_off,,,,,21,0,11,,,,12,,35,0
11014,note_off,,,,,10,0,7,,,,6,,76,0
11016,note_on,,,,,2,0,7,,,,6,,74,96
11016,note_on,,,,,3,0,12,,,,13,,43,36
11016,note_on,,,,,3,0,10,,,,11,,43,36
11016,note_on,,,,,3,0,11,,,,12,,31,36
11026,note_off,,,,,10,0,7,,,,6,,74,0
11028,note_on,,,,,2,0,7,,,,6,,76,96
11037,note_off,,,,,21,0,10,,,,11,,43,0
11037,note_off,,,,,21,0,11,,,,12,,31,0
11037,note_off,,,,,21,0,12,,,,13,,43,0
11038,note_off,,,,,10,0,7,,,,6,,76,0
11040,note_on,,,,,2,0,7,,,,6,,77,96
11040,note_on,,,,,3,0,11,,,,12,,38,36
11040,note_on,,,,,3,0,12,,,,13,,50,36
11040,note_on,,,,,3,0,10,,,,11,,50,36
11061,note_off,,,,,21,0,11,,,,12,,38,0
11061,note_off,,,,,21,0,12,,,,13,,50,0
11061,note_off,,,,,21,0,10,,,,11,,50,0
11061,note_off,,,,,21,0,7,,,,6,,77,0
11064,note_on,,,,,3,0,12,,,,13,,52,36
11064,note_on,,,,,3,0,10,,,,11,,52,36
11064,note_on,,,,,3,0,7,,,,6,,76,96
11064,note_on,,,,,3,0,11,,,,12,,40,36
11085,note_off,,,,,21,0,10,,,,11,,52,0
11085,note_off,,,,,21,0,11,,,,12,,40,0
11085,note_off,,,,,21,0,12,,,,13,,52,0
11085,note_off,,,,,21,0,7,,,,6,,76,0
11088,note_on,,,,,3,0,12,,,,13,,53,36
11088,note_on,,,,,3,0,10,,,,11,,53,36
11088,note_on,,,,,3,0,11,,,,12,,41,36
11088,note_on,,,,,3,0,7,,,,6,,74,96
11109,note_off,,,,,21,0,7,,,,6,,74,0
11109,note_off,,,,,21,0,10,,,,11,,53,0
11109,note_off,,,,,21,0,11,,,,12,,41,0
11109,note_off,,,,,21,0,12,,,,13,,53,0
11112,note_on,,,,,3,0,11,,,,12,,40,36
11112,note_on,,,,,3,0,12,,,,13,,52,36
11112,note_on,,,,,3,0,7,,,,6,,72,96
11112,note_on,,,,,3,0,10,,,,11,,52,36
11133,note_off,,,,,21,0,12,,,,13,,52,0
11133,note_off,,,,,21,0,11,,,,12,,40,0
11133,note_off,,,,,21,0,10,,,,11,,52,0
11133,note_off,,,,,21,0,7,,,,6,,72,0
11136,note_on,,,,,3,0,7,,,,6,,74,96
11136,note_on,,,,,3,0,10,,,,11,,53,36
11136,note_on,,,,,3,0,12,,,,13,,53,36
11136,note_on,,,,,3,0,11,,,,12,,41,36
11157,note_off,,,,,21,0,10,,,,11,,53,0
11157,note_off,,,,,21,0,7,,,,6,,74,0
11157,note_off,,,,,21,0,11,,,,12,,41,0
11157,note_off,,,,,21,0,12,,,,13,,53,0
11160,note_on,,,,,3,0,11,,,,12,,38,36
11160,note_on,,,,,3,0,10,,,,11,,50,36
11160,note_on,,,,,3,0,12,,,,13,,50,36
11160,note_on,,,,,3,0,7,,,,6,,71,96
11181,note_off,,,,,21,0,7,,,,6,,71,0
11181,note_off,,,,,21,0,10,,,,11,,50,0
11181,note_off,,,,,21,0,11,,,,12,,38,0
11181,note_off,,,,,21,0,12,,,,13,,50,0
11184,note_on,,,,,3,0,10,,,,11,,52,36
11184,note_on,,,,,3,0,11,,,,12,,40,36
11184,note_on,,,,,3,0,7,,,,6,,79,96
11184,note_on,,,,,3,0,12,,,,13,,52,36
11205,note_off,,,,,21,0,7,,,,6,,79,0
11205,note_off,,,,,21,0,10,,,,11,,52,0
11205,note_off,,,,,21,0,11,,,,12,,40,0
11205,note_off,,,,,21,0,12,,,,13,,52,0
11208,note_on,,,,,3,0,11,,,,12,,41,36
11208,note_on,,,,,3,0,10,,,,11,,53,36
11208,note_on,,,,,3,0,12,,,,13,,53,36
11208,note_on,,,,,3,0,7,,,,6,,74,96
11229,note_off,,,,,21,0,10,,,,11,,53,0
11229,note_off,,,,,21,0,7,,,,6,,74,0
11229,note_off,,,,,21,0,12,,,,13,,53,0
11229,note_off,,,,,21,0,11,,,,12,,41,0
11232,note_on,,,,,3,0,7,,,,6,,76,96
11232,note_on,,,,,3,0,12,,,,13,,55,36
11232,note_on,,,,,3,0,10,,,,11,,55,36
11232,note_on,,,,,3,0,11,,,,12,,43,36
11253,note_off,,,,,21,0,11,,,,12,,43,0
11253,note_off,,,,,21,0,10,,,,11,,55,0
11253,note_off,,,,,21,0,12,,,,13,,55,0
11253,note_off,,,,,21,0,7,,,,6,,76,0
11256,note_on,,,,,3,0,12,,,,13,,52,36
11256,note_on,,,,,3,0,11,,,,12,,40,36
11256,note_on,,,,,3,0,10,,,,11,,52,36
11256,note_on,,,,,3,0,7,,,,6,,71,96
11277,note_off,,,,,21,0,7,,,,6,,71,0
11277,note_off,,,,,21,0,10,,,,11,,52,0
11277,note_off,,,,,21,0,11,,,,12,,40,0
11277,note_off,,,,,21,0,12,,,,13,,52,0
11280,note_on,,,,,3,0,12,,,,13,,57,36
11280,note_on,,,,,3,0,11,,,,12,,45,36
11280,note_on,,,,,3,0,10,,,,11,,57,36
11280,note_on,,,,,3,0,7,,,,6,,72,96
11301,note_off,,,,,21,0,7,,,,6,,72,0
11301,note_off,,,,,21,0,10,,,,11,,57,0
11301,note_off,,,,,21,0,12,,,,13,,57,0
11301,note_off,,,,,21,0,11,,,,12,,45,0
11304,note_on,,,,,3,0,12,,,,13,,55,36
11304,note_on,,,,,3,0,10,,,,11,,55,36
11304,note_on,,,,,3,0,7,,,,6,,71,96
11304,note_on,,,,,3,0,11,,,,12,,43,36
11325,note_off,,,,,21,0,10,,,,11,,55,0
11325,note_off,,,,,21,0,7,,,,6,,71,0
11325,note_off,,,,,21,0,12,,,,13,,55,0
11325,note_off,,,,,21,0,11,,,,12,,43,0
11328,note_on,,,,,3,0,7,,,,6,,72,96
11328,note_on,,,,,3,0,11,,,,12,,45,36
11328,note_on,,,,,3,0,10,,,,11,,57,36
11328,note_on,,,,,3,0,12,,,,13,,57,36
11349,note_off,,,,,21,0,12,,,,13,,57,0
11349,note_off,,,,,21,0,11,,,,12,,45,0
11349,note_off,,,,,21,0,10,,,,11,,57,0
11349,note_off,,,,,21,0,7,,,,6,,72,0
11352,note_on,,,,,3,0,11,,,,12,,41,36
11352,note_on,,,,,3,0,12,,,,13,,53,36
11352,note_on,,,,,3,0,7,,,,6,,77,96
11352,note_on,,,,,3,0,10,,,,11,,53,36
11373,note_off,,,,,21,0,12,,,,13,,53,0
11373,note_off,,,,,21,0,11,,,,12,,41,0
11373,note_off,,,,,21,0,10,,,,11,,53,0
11373,note_off,,,,,21,0,7,,,,6,,77,0
11376,note_on,,,,,0,0,7,,,,6,,74,96
11376,note_on,,,,,3,0,11,,,,12,,43,36
11376,note_on,,,,,3,0,12,,,,13,,55,36
11376,note_on,,,,,3,0,7,,,,6,,67,96
11376,note_on,,,,,3,0,10,,,,11,,55,36
11418,note_off,,,,,42,0,12,,,,13,,55,0
11418,note_off,,,,,42,0,10,,,,11,,55,0
11418,note_off,,,,,42,0,11,,,,12,,43,0
11424,note_on,,,,,6,0,10,,,,11,,43,36
11424,note_on,,,,,6,0,11,,,,12,,31,36
11424,note_on,,,,,6,0,12,,,,13,,43,36
11439,note_off,,,,,63,0,7,,,,6,,67,0
11439,note_off,,,,,0,0,7,,,,6,,74,0
11448,note_on,,,,,9,0,7,,,,6,,72,96
11466,note_off,,,,,42,0,10,,,,11,,43,0
11466,note_off,,,,,42,0,11,,,,12,,31,0
11466,note_off,,,,,42,0,12,,,,13,,43,0
11469,note_off,,,,,21,0,7,,,,6,,72,0
11472,note_on,,,,,6,0,10,,,,11,,36,36
11472,note_on,,,,,6,0,12,,,,13,,36,36
11472,note_on,,,,,0,0,7,,,,6,,72,96
11472,note_on,,,,,0,0,7,,,,6,,67,96
11472,note_on,,,,,3,0,7,,,,6,,60,96
11472,note_on,,,,,6,0,11,,,,12,,24,36
11496,note_on,,,,,510,0,8,,,,7,,67,127
11514,note_off,,,,,42,0,12,,,,13,,36,0
11514,note_off,,,,,42,0,10,,,,11,,36,0
11514,note_off,,,,,42,0,11,,,,12,,24,0
11517,note_off,,,,,21,0,8,,,,7,,67,0
11520,note_on,,,,,6,0,12,,,,13,,40,36
11520,note_on,,,,,6,0,10,,,,11,,40,36
11520,note_on,,,,,3,0,8,,,,7,,72,127
11520,note_on,,,,,6,0,11,,,,12,,28,36
11541,note_off,,,,,21,0,8,,,,7,,72,0
11544,note_on,,,,,3,0,8,,,,7,,76,127
11556,note_off,,,,,0,0,7,,,,6,,72,0
11556,note_off,,,,,0,0,7,,,,6,,67,0
11556,note_off,,,,,84,0,7,,,,6,,60,0
11562,note_off,,,,,42,0,12,,,,13,,40,0
11562,note_off,,,,,42,0,11,,,,12,,28,0
11562,note_off,,,,,42,0,10,,,,11,,40,0
11565,note_off,,,,,21,0,8,,,,7,,76,0
11568,note_on,,,,,0,0,12,,,,13,,43,36
11568,note_on,,,,,0,0,12,,,,13,,71,36
11568,note_on,,,,,6,0,12,,,,13,,62,36
11568,note_on,,,,,3,0,8,,,,7,,74,127
11568,note_on,,,,,6,0,10,,,,11,,43,36
11568,note_on,,,,,588,0,13,,,,14,,67,75
11568,note_on,,,,,6,0,11,,,,12,,31,36
11568,note_on,,,,,588,0,9,,,,8,,71,75
11589,note_off,,,,,21,0,8,,,,7,,74,0
11592,note_on,,,,,3,0,8,,,,7,,77,127
11610,note_off,,,,,0,0,12,,,,13,,71,0
11610,note_off,,,,,42,0,11,,,,12,,31,0
11610,note_off,,,,,42,0,13,,,,14,,67,0
11610,note_off,,,,,42,0,9,,,,8,,71,0
11610,note_off,,,,,0,0,12,,,,13,,43,0
11610,note_off,,,,,42,0,10,,,,11,,43,0
11610,note_off,,,,,42,0,12,,,,13,,62,0
11613,note_off,,,,,21,0,8,,,,7,,77,0
11616,note_on,,,,,6,0,10,,,,11,,48,36
11616,note_on,,,,,6,0,9,,,,8,,72,75
11616,note_on,,,,,6,0,11,,,,12,,36,36
11616,note_on,,,,,6,0,13,,,,14,,67,75
11616,note_on,,,,,3,0,8,,,,7,,76,127
11616,note_on,,,,,0,0,12,,,,13,,48,36
11616,note_on,,,,,0,0,12,,,,13,,76,36
11616,note_on,,,,,6,0,12,,,,13,,67,36
11637,note_off,,,,,21,0,8,,,,7,,76,0
11640,note_on,,,,,3,0,8,,,,7,,74,127
11658,note_off,,,,,42,0,9,,,,8,,72,0
11658,note_off,,,,,0,0,12,,,,13,,48,0
11658,note_off,,,,,0,0,12,,,,13,,76,0
11658,note_off,,,,,42,0,12,,,,13,,67,0
11658,note_off,,,,,42,0,11,,,,12,,36,0
11658,note_off,,,,,42,0,10,,,,11,,48,0
11658,note_off,,,,,42,0,13,,,,14,,67,0
11661,note_off,,,,,21,0,8,,,,7,,74,0
11664,note_on,,,,,6,0,12,,,,13,,52,36
11664,note_on,,,,,6,0,10,,,,11,,52,36
11664,note_on,,,,,3,0,8,,,,7,,72,127
11664,note_on,,,,,6,0,11,,,,12,,40,36
11685,note_off,,,,,21,0,8,,,,7,,72,0
11688,note_on,,,,,3,0,8,,,,7,,71,127
11706,note_off,,,,,42,0,10,,,,11,,52,0
11706,note_off,,,,,42,0,12,,,,13,,52,0
11706,note_off,,,,,42,0,11,,,,12,,40,0
11709,note_off,,,,,21,0,8,,,,7,,71,0
11712,note_on,,,,,3,0,8,,,,7,,72,127
11712,note_on,,,,,6,0,10,,,,11,,57,36
11712,note_on,,,,,6,0,11,,,,12,,45,36
11712,note_on,,,,,6,0,12,,,,13,,57,36
11733,note_off,,,,,21,0,8,,,,7,,72,0
11736,note_on,,,,,3,0,8,,,,7,,69,127
11754,note_off,,,,,42,0,10,,,,11,,57,0
11754,note_off,,,,,42,0,12,,,,13,,57,0
11754,note_off,,,,,42,0,11,,,,12,,45,0
11757,note_off,,,,,21,0,8,,,,7,,69,0
11760,note_on,,,,,6,0,12,,,,13,,67,36
11760,note_on,,,,,3,0,8,,,,7,,74,127
11760,note_on,,,,,0,0,12,,,,13,,74,36
11760,note_on,,,,,0,0,12,,,,13,,47,36
11760,note_on,,,,,6,0,11,,,,12,,35,36
11760,note_on,,,,,102,0,13,,,,14,,62,75
11760,note_on,,,,,102,0,9,,,,8,,67,75
11760,note_on,,,,,6,0,10,,,,11,,47,36
11781,note_off,,,,,21,0,8,,,,7,,74,0
11784,note_on,,,,,3,0,8,,,,7,,62,127
11802,note_off,,,,,0,0,12,,,,13,,74,0
11802,note_off,,,,,42,0,12,,,,13,,67,0
11802,note_off,,,,,42,0,10,,,,11,,47,0
11802,note_off,,,,,42,0,9,,,,8,,67,0
11802,note_off,,,,,42,0,13,,,,14,,62,0
11802,note_off,,,,,42,0,11,,,,12,,35,0
11802,note_off,,,,,0,0,12,,,,13,,47,0
11805,note_off,,,,,21,0,8,,,,7,,62,0
11808,note_on,,,,,6,0,11,,,,12,,38,36
11808,note_on,,,,,3,0,8,,,,7,,67,127
11808,note_on,,,,,6,0,12,,,,13,,50,36
11808,note_on,,,,,6,0,10,,,,11,,50,36
11829,note_off,,,,,21,0,8,,,,7,,67,0
11832,note_on,,,,,3,0,8,,,,7,,69,127
11850,note_off,,,,,42,0,10,,,,11,,50,0
11850,note_off,,,,,42,0,11,,,,12,,38,0
11850,note_off,,,,,42,0,12,,,,13,,50,0
11853,note_off,,,,,21,0,8,,,,7,,69,0
11856,note_on,,,,,6,0,11,,,,12,,43,36
11856,note_on,,,,,3,0,8,,,,7,,71,127
11856,note_on,,,,,6,0,10,,,,11,,55,36
11856,note_on,,,,,6,0,12,,,,13,,55,36
11877,note_off,,,,,21,0,8,,,,7,,71,0
11880,note_on,,,,,3,0,8,,,,7,,67,127
11898,note_off,,,,,42,0,11,,,,12,,43,0
11898,note_off,,,,,42,0,12,,,,13,,55,0
11898,note_off,,,,,42,0,10,,,,11,,55,0
11901,note_off,,,,,21,0,8,,,,7,,67,0
11904,note_on,,,,,6,0,12,,,,13,,64,36
11904,note_on,,,,,0,0,12,,,,13,,72,36
11904,note_on,,,,,0,0,12,,,,13,,45,36
11904,note_on,,,,,102,0,13,,,,14,,64,75
11904,note_on,,,,,3,0,8,,,,7,,72,127
11904,note_on,,,,,102,0,9,,,,8,,69,75
11904,note_on,,,,,6,0,10,,,,11,,45,36
11904,note_on,,,,,6,0,11,,,,12,,33,36
11925,note_off,,,,,21,0,8,,,,7,,72,0
11928,note_on,,,,,3,0,8,,,,7,,71,127
11946,note_off,,,,,42,0,13,,,,14,,64,0
11946,note_off,,,,,42,0,11,,,,12,,33,0
11946,note_off,,,,,42,0,9,,,,8,,69,0
11946,note_off,,,,,42,0,10,,,,11,,45,0
11946,note_off,,,,,0,0,12,,,,13,,72,0
11946,note_off,,,,,42,0,12,,,,13,,64,0
11946,note_off,,,,,0,0,12,,,,13,,45,0
11949,note_off,,,,,21,0,8,,,,7,,71,0
11952,note_on,,,,,6,0,12,,,,13,,48,36
11952,note_on,,,,,3,0,8,,,,7,,69,127
11952,note_on,,,,,6,0,10,,,,11,,48,36
11952,note_on,,,,,6,0,11,,,,12,,36,36
11973,note_off,,,,,21,0,8,,,,7,,69,0
11976,note_on,,,,,3,0,8,,,,7,,67,127
11994,note_off,,,,,42,0,11,,,,12,,36,0
11994,note_off,,,,,42,0,10,,,,11,,48,0
11994,note_off,,,,,42,0,12,,,,13,,48,0
11997,note_off,,,,,21,0,8,,,,7,,67,0
12000,note_on,,,,,6,0,11,,,,12,,41,36
12000,note_on,,,,,6,0,12,,,,13,,53,36
12000,note_on,,,,,6,0,10,,,,11,,53,36
12000,note_on,,,,,3,0,8,,,,7,,69,127
12021,note_off,,,,,21,0,8,,,,7,,69,0
12024,note_on,,,,,3,0,8,,,,7,,65,127
12042,note_off,,,,,42,0,11,,,,12,,41,0
12042,note_off,,,,,42,0,12,,,,13,,53,0
12042,note_off,,,,,42,0,10,,,,11,,53,0
12045,note_off,,,,,21,0,8,,,,7,,65,0
12048,note_on,,,,,0,0,12,,,,13,,71,36
12048,note_on,,,,,102,0,9,,,,8,,64,75
12048,note_on,,,,,6,0,11,,,,12,,31,36
12048,note_on,,,,,102,0,13,,,,14,,59,75
12048,note_on,,,,,3,0,8,,,,7,,71,127
12048,note_on,,,,,6,0,12,,,,13,,64,36
12048,note_on,,,,,6,0,10,,,,11,,43,36
12048,note_on,,,,,0,0,12,,,,13,,43,36
12069,note_off,,,,,21,0,8,,,,7,,71,0
12072,note_on,,,,,3,0,8,,,,7,,59,127
12090,note_off,,,,,0,0,12,,,,13,,43,0
12090,note_off,,,,,0,0,12,,,,13,,71,0
12090,note_off,,,,,42,0,10,,,,11,,43,0
12090,note_off,,,,,42,0,13,,,,14,,59,0
12090,note_off,,,,,42,0,11,,,,12,,31,0
12090,note_off,,,,,42,0,9,,,,8,,64,0
12090,note_off,,,,,42,0,12,,,,13,,64,0
12093,note_off,,,,,21,0,8,,,,7,,59,0
12096,note_on,,,,,3,0,8,,,,7,,64,127
12096,note_on,,,,,6,0,10,,,,11,,47,36
12096,note_on,,,,,6,0,11,,,,12,,35,36
12096,note_on,,,,,6,0,12,,,,13,,47,36
12117,note_off,,,,,21,0,8,,,,7,,64,0
12120,note_on,,,,,3,0,8,,,,7,,65,127
12138,note_off,,,,,42,0,12,,,,13,,47,0
12138,note_off,,,,,42,0,10,,,,11,,47,0
12138,note_off,,,,,42,0,11,,,,12,,35,0
12141,note_off,,,,,21,0,8,,,,7,,65,0
12144,note_on,,,,,6,0,12,,,,13,,52,36
12144,note_on,,,,,3,0,8,,,,7,,67,127
12144,note_on,,,,,6,0,11,,,,12,,40,36
12144,note_on,,,,,6,0,10,,,,11,,52,36
12165,note_off,,,,,21,0,8,,,,7,,67,0
12168,note_on,,,,,3,0,8,,,,7,,64,127
12186,note_off,,,,,42,0,11,,,,12,,40,0
12186,note_off,,,,,42,0,10,,,,11,,52,0
12186,note_off,,,,,42,0,12,,,,13,,52,0
12189,note_off,,,,,21,0,8,,,,7,,64,0
12192,note_on,,,,,6,0,10,,,,11,,41,36
12192,note_on,,,,,6,0,11,,,,12,,29,36
12192,note_on,,,,,102,0,9,,,,8,,65,75
12192,note_on,,,,,6,0,12,,,,13,,69,36
12192,note_on,,,,,102,0,13,,,,14,,60,75
12192,note_on,,,,,0,0,12,,,,13,,72,36
12192,note_on,,,,,3,0,8,,,,7,,69,127
12192,note_on,,,,,0,0,12,,,,13,,41,36
12213,note_off,,,,,21,0,8,,,,7,,69,0
12216,note_on,,,,,3,0,8,,,,7,,67,127
12234,note_off,,,,,42,0,13,,,,14,,60,0
12234,note_off,,,,,42,0,9,,,,8,,65,0
12234,note_off,,,,,42,0,12,,,,13,,69,0
12234,note_off,,,,,0,0,12,,,,13,,41,0
12234,note_off,,,,,0,0,12,,,,13,,72,0
12234,note_off,,,,,42,0,11,,,,12,,29,0
12234,note_off,,,,,42,0,10,,,,11,,41,0
12237,note_off,,,,,21,0,8,,,,7,,67,0
12240,note_on,,,,,6,0,11,,,,12,,33,36
12240,note_on,,,,,6,0,12,,,,13,,45,36
12240,note_on,,,,,6,0,10,,,,11,,45,36
12240,note_on,,,,,3,0,8,,,,7,,65,127
12261,note_off,,,,,21,0,8,,,,7,,65,0
12264,note_on,,,,,3,0,8,,,,7,,64,127
12282,note_off,,,,,42,0,12,,,,13,,45,0
12282,note_off,,,,,42,0,10,,,,11,,45,0
12282,note_off,,,,,42,0,11,,,,12,,33,0
12285,note_off,,,,,21,0,8,,,,7,,64,0
12288,note_on,,,,,3,0,8,,,,7,,65,127
12288,note_on,,,,,6,0,12,,,,13,,50,36
12288,note_on,,,,,6,0,10,,,,11,,50,36
12288,note_on,,,,,6,0,11,,,,12,,38,36
12309,note_off,,,,,21,0,8,,,,7,,65,0
12312,note_on,,,,,3,0,8,,,,7,,62,127
12330,note_off,,,,,42,0,10,,,,11,,50,0
12330,note_off,,,,,42,0,12,,,,13,,50,0
12330,note_off,,,,,42,0,11,,,,12,,38,0
12333,note_off,,,,,21,0,8,,,,7,,62,0
12336,note_on,,,,,6,0,11,,,,12,,28,36
12336,note_on,,,,,3,0,8,,,,7,,67,127
12336,note_on,,,,,6,0,12,,,,13,,64,36
12336,note_on,,,,,0,0,12,,,,13,,72,36
12336,note_on,,,,,0,0,12,,,,13,,40,36
12336,note_on,,,,,6,0,10,,,,11,,40,36
12336,note_on,,,,,102,0,13,,,,14,,55,75
12336,note_on,,,,,102,0,9,,,,8,,60,75
12357,note_off,,,,,21,0,8,,,,7,,67,0
12360,note_on,,,,,3,0,8,,,,7,,55,127
12378,note_off,,,,,42,0,12,,,,13,,64,0
12378,note_off,,,,,42,0,11,,,,12,,28,0
12378,note_off,,,,,0,0,12,,,,13,,40,0
12378,note_off,,,,,0,0,12,,,,13,,72,0
12378,note_off,,,,,42,0,13,,,,14,,55,0
12378,note_off,,,,,42,0,10,,,,11,,40,0
12378,note_off,,,,,42,0,9,,,,8,,60,0
12381,note_off,,,,,21,0,8,,,,7,,55,0
12384,note_on,,,,,3,0,8,,,,7,,60,127
12384,note_on,,,,,6,0,10,,,,11,,43,36
12384,note_on,,,,,6,0,12,,,,13,,43,36
12384,note_on,,,,,6,0,11,,,,12,,31,36
12405,note_off,,,,,21,0,8,,,,7,,60,0
12408,note_on,,,,,3,0,8,,,,7,,62,127
12426,note_off,,,,,42,0,10,,,,11,,43,0
12426,note_off,,,,,42,0,12,,,,13,,43,0
12426,note_off,,,,,42,0,11,,,,12,,31,0
12429,note_off,,,,,21,0,8,,,,7,,62,0
12432,note_on,,,,,6,0,11,,,,12,,36,36
12432,note_on,,,,,3,0,8,,,,7,,64,127
12432,note_on,,,,,6,0,12,,,,13,,48,36
12432,note_on,,,,,6,0,10,,,,11,,48,36
12453,note_off,,,,,21,0,8,,,,7,,64,0
12456,note_on,,,,,3,0,8,,,,7,,60,127
12474,note_off,,,,,42,0,12,,,,13,,48,0
12474,note_off,,,,,42,0,10,,,,11,,48,0
12474,note_off,,,,,42,0,11,,,,12,,36,0
12477,note_off,,,,,21,0,8,,,,7,,60,0
12480,note_on,,,,,1542,0,5,,,,4,,65,96
12480,note_on,,,,,6,0,10,,,,11,,38,36
12480,note_on,,,,,0,0,12,,,,13,,38,36
12480,note_on,,,,,0,0,12,,,,13,,77,36
12480,note_on,,,,,1494,0,3,,,,2,,74,96
12480,note_on,,,,,6,0,12,,,,13,,69,36
12480,note_on,,,,,3,0,8,,,,7,,65,127
12480,note_on,,,,,1542,0,4,,,,3,,69,96
12480,note_on,,,,,102,0,9,,,,8,,62,75
12480,note_on,,,,,6,0,11,,,,12,,26,36
12480,note_on,,,,,1500,0,6,,,,5,,50,62
12480,note_on,,,,,102,0,13,,,,14,,57,75
12501,note_off,,,,,21,0,5,,,,4,,65,0
12501,note_off,,,,,21,0,4,,,,3,,69,0
12501,note_off,,,,,21,0,3,,,,2,,74,0
12504,note_on,,,,,3,0,5,,,,4,,67,96
12504,note_on,,,,,3,0,3,,,,2,,76,96
12504,note_on,,,,,3,0,4,,,,3,,70,96
12522,note_off,,,,,42,0,10,,,,11,,38,0
12522,note_off,,,,,42,0,6,,,,5,,50,0
12522,note_off,,,,,42,0,12,,,,13,,69,0
12522,note_off,,,,,42,0,11,,,,12,,26,0
12522,note_off,,,,,42,0,13,,,,14,,57,0
12522,note_off,,,,,42,0,9,,,,8,,62,0
12522,note_off,,,,,0,0,12,,,,13,,38,0
12522,note_off,,,,,0,0,12,,,,13,,77,0
12522,note_off,,,,,42,0,8,,,,7,,65,0
12525,note_off,,,,,21,0,3,,,,2,,76,0
12525,note_off,,,,,21,0,4,,,,3,,70,0
12525,note_off,,,,,21,0,5,,,,4,,67,0
12528,note_on,,,,,6,0,13,,,,14,,57,75
12528,note_on,,,,,6,0,9,,,,8,,62,75
12528,note_on,,,,,6,0,11,,,,12,,33,36
12528,note_on,,,,,6,0,8,,,,7,,65,127
12528,note_on,,,,,0,0,12,,,,13,,77,36
12528,note_on,,,,,3,0,3,,,,2,,74,96
12528,note_on,,,,,3,0,4,,,,3,,69,96
12528,note_on,,,,,0,0,12,,,,13,,45,36
12528,note_on,,,,,6,0,12,,,,13,,74,36
12528,note_on,,,,,6,0,10,,,,11,,45,36
12528,note_on,,,,,6,0,6,,,,5,,57,62
12528,note_on,,,,,3,0,5,,,,4,,65,96
12549,note_off,,,,,21,0,3,,,,2,,74,0
12549,note_off,,,,,21,0,5,,,,4,,65,0
12549,note_off,,,,,21,0,4,,,,3,,69,0
12552,note_on,,,,,3,0,5,,,,4,,67,96
12552,note_on,,,,,3,0,3,,,,2,,76,96
12552,note_on,,,,,3,0,4,,,,3,,67,96
12570,note_off,,,,,42,0,12,,,,13,,74,0
12570,note_off,,,,,42,0,6,,,,5,,57,0
12570,note_off,,,,,42,0,10,,,,11,,45,0
12570,note_off,,,,,42,0,11,,,,12,,33,0
12570,note_off,,,,,42,0,8,,,,7,,65,0
12570,note_off,,,,,42,0,13,,,,14,,57,0
12570,note_off,,,,,0,0,12,,,,13,,45,0
12570,note_off,,,,,42,0,9,,,,8,,62,0
12570,note_off,,,,,0,0,12,,,,13,,77,0
12573,note_off,,,,,21,0,4,,,,3,,67,0
12573,note_off,,,,,21,0,5,,,,4,,67,0
12573,note_off,,,,,21,0,3,,,,2,,76,0
12576,note_on,,,,,3,0,5,,,,4,,69,96
12576,note_on,,,,,3,0,3,,,,2,,77,96
12576,note_on,,,,,6,0,11,,,,12,,38,36
12576,note_on,,,,,6,0,12,,,,13,,69,36
12576,note_on,,,,,6,0,6,,,,5,,62,62
12576,note_on,,,,,6,0,9,,,,8,,62,75
12576,note_on,,,,,6,0,13,,,,14,,57,75
12576,note_on,,,,,0,0,12,,,,13,,77,36
12576,note_on,,,,,3,0,4,,,,3,,65,96
12576,note_on,,,,,0,0,12,,,,13,,50,36
12576,note_on,,,,,6,0,8,,,,7,,65,127
12576,note_on,,,,,6,0,10,,,,11,,50,36
12597,note_off,,,,,21,0,5,,,,4,,69,0
12597,note_off,,,,,21,0,4,,,,3,,65,0
12597,note_off,,,,,21,0,3,,,,2,,77,0
12600,note_on,,,,,3,0,4,,,,3,,67,96
12600,note_on,,,,,3,0,3,,,,2,,76,96
12600,note_on,,,,,3,0,5,,,,4,,67,96
12618,note_off,,,,,42,0,12,,,,13,,69,0
12618,note_off,,,,,42,0,6,,,,5,,62,0
12618,note_off,,,,,0,0,12,,,,13,,50,0
12618,note_off,,,,,42,0,8,,,,7,,65,0
12618,note_off,,,,,42,0,10,,,,11,,50,0
12618,note_off,,,,,42,0,13,,,,14,,57,0
12618,note_off,,,,,42,0,11,,,,12,,38,0
12618,note_off,,,,,0,0,12,,,,13,,77,0
12618,note_off,,,,,42,0,9,,,,8,,62,0
12621,note_off,,,,,21,0,4,,,,3,,67,0
12621,note_off,,,,,21,0,3,,,,2,,76,0
12621,note_off,,,,,21,0,5,,,,4,,67,0
12624,note_on,,,,,6,0,8,,,,7,,65,127
12624,note_on,,,,,3,0,5,,,,4,,65,96
12624,note_on,,,,,3,0,4,,,,3,,69,96
12624,note_on,,,,,6,0,6,,,,5,,48,62
12624,note_on,,,,,6,0,10,,,,11,,36,36
12624,note_on,,,,,6,0,13,,,,14,,57,75
12624,note_on,,,,,6,0,11,,,,12,,24,36
12624,note_on,,,,,6,0,9,,,,8,,62,75
12624,note_on,,,,,3,0,3,,,,2,,74,96
12624,note_on,,,,,0,0,12,,,,13,,36,36
12624,note_on,,,,,0,0,12,,,,13,,77,36
12624,note_on,,,,,6,0,12,,,,13,,69,36
12645,note_off,,,,,21,0,8,,,,7,,65,0
12648,note_on,,,,,3,0,8,,,,7,,67,127
12666,note_off,,,,,42,0,11,,,,12,,24,0
12666,note_off,,,,,42,0,3,,,,2,,74,0
12666,note_off,,,,,42,0,13,,,,14,,57,0
12666,note_off,,,,,42,0,4,,,,3,,69,0
12666,note_off,,,,,42,0,12,,,,13,,69,0
12666,note_off,,,,,0,0,12,,,,13,,77,0
12666,note_off,,,,,0,0,12,,,,13,,36,0
12666,note_off,,,,,42,0,10,,,,11,,36,0
12666,note_off,,,,,42,0,5,,,,4,,65,0
12666,note_off,,,,,42,0,9,,,,8,,62,0
12666,note_off,,,,,42,0,6,,,,5,,48,0
12669,note_off,,,,,21,0,8,,,,7,,67,0
12672,note_on,,,,,6,0,5,,,,4,,65,96
12672,note_on,,,,,6,0,12,,,,13,,74,36
12672,note_on,,,,,0,0,12,,,,13,,77,36
12672,note_on,,,,,0,0,12,,,,13,,45,36
12672,note_on,,,,,3,0,8,,,,7,,65,127
12672,note_on,,,,,6,0,6,,,,5,,57,62
12672,note_on,,,,,6,0,3,,,,2,,74,96
12672,note_on,,,,,6,0,11,,,,12,,33,36
12672,note_on,,,,,6,0,4,,,,3,,69,96
12672,note_on,,,,,6,0,10,,,,11,,45,36
12693,note_off,,,,,21,0,8,,,,7,,65,0
12696,note_on,,,,,3,0,8,,,,7,,64,127
12714,note_off,,,,,42,0,5,,,,4,,65,0
12714,note_off,,,,,42,0,10,,,,11,,45,0
12714,note_off,,,,,42,0,6,,,,5,,57,0
12714,note_off,,,,,42,0,12,,,,13,,74,0
12714,note_off,,,,,42,0,4,,,,3,,69,0
12714,note_off,,,,,42,0,11,,,,12,,33,0
12714,note_off,,,,,0,0,12,,,,13,,45,0
12714,note_off,,,,,0,0,12,,,,13,,77,0
12714,note_off,,,,,42,0,3,,,,2,,74,0
12717,note_off,,,,,21,0,8,,,,7,,64,0
12720,note_on,,,,,6,0,5,,,,4,,65,96
12720,note_on,,,,,6,0,4,,,,3,,69,96
12720,note_on,,,,,6,0,3,,,,2,,74,96
12720,note_on,,,,,0,0,12,,,,13,,77,36
12720,note_on,,,,,6,0,10,,,,11,,50,36
12720,note_on,,,,,3,0,8,,,,7,,65,127
12720,note_on,,,,,6,0,11,,,,12,,38,36
12720,note_on,,,,,6,0,6,,,,5,,62,62
12720,note_on,,,,,6,0,12,,,,13,,69,36
12720,note_on,,,,,0,0,12,,,,13,,50,36
12741,note_off,,,,,21,0,8,,,,7,,65,0
12744,note_on,,,,,3,0,8,,,,7,,62,127
12762,note_off,,,,,42,0,5,,,,4,,65,0
12762,note_off,,,,,0,0,12,,,,13,,50,0
12762,note_off,,,,,42,0,11,,,,12,,38,0
12762,note_off,,,,,0,0,12,,,,13,,77,0
12762,note_off,,,,,42,0,4,,,,3,,69,0
12762,note_off,,,,,42,0,12,,,,13,,69,0
12762,note_off,,,,,42,0,3,,,,2,,74,0
12762,note_off,,,,,42,0,6,,,,5,,62,0
12762,note_off,,,,,42,0,10,,,,11,,50,0
12765,note_off,,,,,21,0,8,,,,7,,62,0
12768,note_on,,,,,6,0,6,,,,5,,47,62
12768,note_on,,,,,6,0,4,,,,3,,67,96
12768,note_on,,,,,6,0,5,,,,4,,65,96
12768,note_on,,,,,102,0,13,,,,14,,55,75
12768,note_on,,,,,6,0,11,,,,12,,35,36
12768,note_on,,,,,0,0,12,,,,13,,47,36
12768,note_on,,,,,0,0,12,,,,13,,74,36
12768,note_on,,,,,6,0,12,,,,13,,67,36
12768,note_on,,,,,102,0,9,,,,8,,62,75
12768,note_on,,,,,6,0,10,,,,11,,47,36
12768,note_on,,,,,6,0,3,,,,2,,74,96
12768,note_on,,,,,3,0,8,,,,7,,74,127
12789,note_off,,,,,21,0,5,,,,4,,65,0
12789,note_off,,,,,21,0,3,,,,2,,74,0
12792,note_on,,,,,3,0,5,,,,4,,67,96
12792,note_on,,,,,3,0,3,,,,2,,76,96
12810,note_off,,,,,42,0,12,,,,13,,67,0
12810,note_off,,,,,42,0,6,,,,5,,47,0
12810,note_off,,,,,42,0,13,,,,14,,55,0
12810,note_off,,,,,0,0,12,,,,13,,47,0
12810,note_off,,,,,42,0,8,,,,7,,74,0
12810,note_off,,,,,42,0,9,,,,8,,62,0
12810,note_off,,,,,42,0,10,,,,11,,47,0
12810,note_off,,,,,0,0,12,,,,13,,74,0
12810,note_off,,,,,42,0,11,,,,12,,35,0
12810,note_off,,,,,42,0,4,,,,3,,67,0
12813,note_off,,,,,21,0,5,,,,4,,67,0
12813,note_off,,,,,21,0,3,,,,2,,76,0
12816,note_on,,,,,3,0,3,,,,2,,74,96
12816,note_on,,,,,3,0,5,,,,4,,65,96
12816,note_on,,,,,6,0,6,,,,5,,43,62
12816,note_on,,,,,6,0,9,,,,8,,62,75
12816,note_on,,,,,0,0,12,,,,13,,43,36
12816,note_on,,,,,6,0,10,,,,11,,43,36
12816,note_on,,,,,6,0,13,,,,14,,55,75
12816,note_on,,,,,6,0,4,,,,3,,71,96
12816,note_on,,,,,0,0,12,,,,13,,74,36
12816,note_on,,,,,6,0,12,,,,13,,71,36
12816,note_on,,,,,6,0,11,,,,12,,31,36
12816,note_on,,,,,6,0,8,,,,7,,65,127
12837,note_off,,,,,21,0,3,,,,2,,74,0
12837,note_off,,,,,21,0,5,,,,4,,65,0
12837,note_off,,,,,21,0,4,,,,3,,71,0
12840,note_on,,,,,3,0,5,,,,4,,67,96
12840,note_on,,,,,3,0,3,,,,2,,76,96
12840,note_on,,,,,3,0,4,,,,3,,72,96
12858,note_off,,,,,42,0,12,,,,13,,71,0
12858,note_off,,,,,42,0,8,,,,7,,65,0
12858,note_off,,,,,42,0,11,,,,12,,31,0
12858,note_off,,,,,0,0,12,,,,13,,43,0
12858,note_off,,,,,42,0,10,,,,11,,43,0
12858,note_off,,,,,0,0,12,,,,13,,74,0
12858,note_off,,,,,42,0,6,,,,5,,43,0
12858,note_off,,,,,42,0,13,,,,14,,55,0
12858,note_off,,,,,42,0,9,,,,8,,62,0
12861,note_off,,,,,21,0,3,,,,2,,76,0
12861,note_off,,,,,21,0,4,,,,3,,72,0
12861,note_off,,,,,21,0,5,,,,4,,67,0
12864,note_on,,,,,3,0,3,,,,2,,77,96
12864,note_on,,,,,6,0,6,,,,5,,50,62
12864,note_on,,,,,6,0,13,,,,14,,55,75
12864,note_on,,,,,6,0,11,,,,12,,38,36
12864,note_on,,,,,3,0,5,,,,4,,69,96
12864,note_on,,,,,6,0,10,,,,11,,50,36
12864,note_on,,,,,6,0,12,,,,13,,71,36
12864,note_on,,,,,0,0,12,,,,13,,79,36
12864,note_on,,,,,6,0,8,,,,7,,65,127
12864,note_on,,,,,3,0,4,,,,3,,74,96
12864,note_on,,,,,6,0,9,,,,8,,62,75
12864,note_on,,,,,0,0,12,,,,13,,50,36
12885,note_off,,,,,21,0,5,,,,4,,69,0
12885,note_off,,,,,21,0,3,,,,2,,77,0
12885,note_off,,,,,21,0,4,,,,3,,74,0
12888,note_on,,,,,3,0,4,,,,3,,72,96
12888,note_on,,,,,3,0,3,,,,2,,76,96
12888,note_on,,,,,3,0,5,,,,4,,67,96
12906,note_off,,,,,42,0,10,,,,11,,50,0
12906,note_off,,,,,42,0,8,,,,7,,65,0
12906,note_off,,,,,42,0,11,,,,12,,38,0
12906,note_off,,,,,42,0,13,,,,14,,55,0
12906,note_off,,,,,42,0,12,,,,13,,71,0
12906,note_off,,,,,0,0,12,,,,13,,50,0
12906,note_off,,,,,0,0,12,,,,13,,79,0
12906,note_off,,,,,42,0,9,,,,8,,62,0
12906,note_off,,,,,42,0,6,,,,5,,50,0
12909,note_off,,,,,21,0,3,,,,2,,76,0
12909,note_off,,,,,21,0,4,,,,3,,72,0
12909,note_off,,,,,21,0,5,,,,4,,67,0
12912,note_on,,,,,6,0,8,,,,7,,65,127
12912,note_on,,,,,6,0,9,,,,8,,62,75
12912,note_on,,,,,6,0,12,,,,13,,71,36
12912,note_on,,,,,0,0,12,,,,13,,74,36
12912,note_on,,,,,0,0,12,,,,13,,55,36
12912,note_on,,,,,6,0,10,,,,11,,55,36
12912,note_on,,,,,6,0,6,,,,5,,55,62
12912,note_on,,,,,6,0,13,,,,14,,55,75
12912,note_on,,,,,3,0,3,,,,2,,74,96
12912,note_on,,,,,3,0,4,,,,3,,71,96
12912,note_on,,,,,3,0,5,,,,4,,65,96
12912,note_on,,,,,6,0,11,,,,12,,43,36
12954,note_off,,,,,42,0,12,,,,13,,71,0
12954,note_off,,,,,0,0,12,,,,13,,74,0
12954,note_off,,,,,42,0,4,,,,3,,71,0
12954,note_off,,,,,42,0,13,,,,14,,55,0
12954,note_off,,,,,0,0,12,,,,13,,55,0
12954,note_off,,,,,42,0,11,,,,12,,43,0
12954,note_off,,,,,42,0,9,,,,8,,62,0
12954,note_off,,,,,42,0,6,,,,5,,55,0
12954,note_off,,,,,42,0,5,,,,4,,65,0
12954,note_off,,,,,42,0,8,,,,7,,65,0
12954,note_off,,,,,42,0,10,,,,11,,55,0
12954,note_off,,,,,42,0,3,,,,2,,74,0
12960,note_on,,,,,0,0,12,,,,13,,71,36
12960,note_on,,,,,6,0,3,,,,2,,74,96
12960,note_on,,,,,6,0,12,,,,13,,62,36
12960,note_on,,,,,6,0,5,,,,4,,65,96
12960,note_on,,,,,6,0,10,,,,11,,43,36
12960,note_on,,,,,0,0,12,,,,13,,43,36
12960,note_on,,,,,6,0,6,,,,5,,43,62
12960,note_on,,,,,6,0,11,,,,12,,31,36
12960,note_on,,,,,6,0,13,,,,14,,59,75
12960,note_on,,,,,6,0,8,,,,7,,67,127
12960,note_on,,,,,6,0,9,,,,8,,64,75
12960,note_on,,,,,6,0,4,,,,3,,67,96
12981,note_off,,,,,21,0,9,,,,8,,64,0
12981,note_off,,,,,21,0,8,,,,7,,67,0
12984,note_on,,,,,3,0,9,,,,8,,62,75
12984,note_on,,,,,3,0,8,,,,7,,65,127
13002,note_off,,,,,0,0,12,,,,13,,71,0
13002,note_off,,,,,42,0,13,,,,14,,59,0
13002,note_off,,,,,0,0,12,,,,13,,43,0
13002,note_off,,,,,42,0,6,,,,5,,43,0
13002,note_off,,,,,42,0,4,,,,3,,67,0
13002,note_off,,,,,42,0,11,,,,12,,31,0
13002,note_off,,,,,42,0,5,,,,4,,65,0
13002,note_off,,,,,42,0,3,,,,2,,74,0
13002,note_off,,,,,42,0,10,,,,11,,43,0
13002,note_off,,,,,42,0,12,,,,13,,62,0
13005,note_off,,,,,21,0,9,,,,8,,62,0
13005,note_off,,,,,21,0,8,,,,7,,65,0
13008,note_on,,,,,6,0,10,,,,11,,55,36
13008,note_on,,,,,3,0,8,,,,7,,64,127
13008,note_on,,,,,6,0,13,,,,14,,55,75
13008,note_on,,,,,6,0,3,,,,2,,74,96
13008,note_on,,,,,6,0,11,,,,12,,43,36
13008,note_on,,,,,6,0,12,,,,13,,71,36
13008,note_on,,,,,6,0,5,,,,4,,65,96
13008,note_on,,,,,3,0,9,,,,8,,60,75
13008,note_on,,,,,6,0,6,,,,5,,55,62
13008,note_on,,,,,6,0,4,,,,3,,67,96
13008,note_on,,,,,0,0,12,,,,13,,55,36
13008,note_on,,,,,0,0,12,,,,13,,74,36
13029,note_off,,,,,21,0,8,,,,7,,64,0
13029,note_off,,,,,21,0,9,,,,8,,60,0
13032,note_on,,,,,3,0,9,,,,8,,59,75
13032,note_on,,,,,3,0,8,,,,7,,62,127
13050,note_off,,,,,42,0,11,,,,12,,43,0
13050,note_off,,,,,0,0,12,,,,13,,55,0
13050,note_off,,,,,0,0,12,,,,13,,74,0
13050,note_off,,,,,42,0,10,,,,11,,55,0
13050,note_off,,,,,42,0,13,,,,14,,55,0
13050,note_off,,,,,42,0,6,,,,5,,55,0
13050,note_off,,,,,42,0,5,,,,4,,65,0
13050,note_off,,,,,42,0,4,,,,3,,67,0
13050,note_off,,,,,42,0,3,,,,2,,74,0
13050,note_off,,,,,42,0,12,,,,13,,71,0
13053,note_off,,,,,21,0,8,,,,7,,62,0
13053,note_off,,,,,21,0,9,,,,8,,59,0
13056,note_on,,,,,0,0,12,,,,13,,48,36
13056,note_on,,,,,6,0,13,,,,14,,55,75
13056,note_on,,,,,3,0,9,,,,8,,60,75
13056,note_on,,,,,6,0,12,,,,13,,67,36
13056,note_on,,,,,0,0,12,,,,13,,76,36
13056,note_on,,,,,6,0,11,,,,12,,36,36
13056,note_on,,,,,6,0,10,,,,11,,48,36
13056,note_on,,,,,6,0,5,,,,4,,64,96
13056,note_on,,,,,6,0,3,,,,2,,72,96
13056,note_on,,,,,6,0,6,,,,5,,48,62
13056,note_on,,,,,6,0,4,,,,3,,67,96
13056,note_on,,,,,3,0,8,,,,7,,64,127
13077,note_off,,,,,21,0,5,,,,4,,64,0
13077,note_off,,,,,21,0,3,,,,2,,72,0
13077,note_off,,,,,21,0,4,,,,3,,67,0
13080,note_on,,,,,3,0,5,,,,4,,65,96
13080,note_on,,,,,3,0,3,,,,2,,74,96
13080,note_on,,,,,3,0,4,,,,3,,69,96
13098,note_off,,,,,42,0,8,,,,7,,64,0
13098,note_off,,,,,42,0,10,,,,11,,48,0
13098,note_off,,,,,42,0,13,,,,14,,55,0
13098,note_off,,,,,42,0,11,,,,12,,36,0
13098,note_off,,,,,42,0,6,,,,5,,48,0
13098,note_off,,,,,42,0,9,,,,8,,60,0
13098,note_off,,,,,0,0,12,,,,13,,48,0
13098,note_off,,,,,0,0,12,,,,13,,76,0
13098,note_off,,,,,42,0,12,,,,13,,67,0
13101,note_off,,,,,21,0,4,,,,3,,69,0
13101,note_off,,,,,21,0,5,,,,4,,65,0
13101,note_off,,,,,21,0,3,,,,2,,74,0
13104,note_on,,,,,0,0,12,,,,13,,55,36
13104,note_on,,,,,0,0,12,,,,13,,72,36
13104,note_on,,,,,6,0,12,,,,13,,64,36
13104,note_on,,,,,6,0,9,,,,8,,60,75
13104,note_on,,,,,3,0,4,,,,3,,67,96
13104,note_on,,,,,6,0,10,,,,11,,55,36
13104,note_on,,,,,3,0,3,,,,2,,72,96
13104,note_on,,,,,6,0,6,,,,5,,55,62
13104,note_on,,,,,3,0,5,,,,4,,64,96
13104,note_on,,,,,6,0,8,,,,7,,64,127
13104,note_on,,,,,6,0,13,,,,14,,55,75
13104,note_on,,,,,6,0,11,,,,12,,43,36
13125,note_off,,,,,21,0,4,,,,3,,67,0
13125,note_off,,,,,21,0,5,,,,4,,64,0
13125,note_off,,,,,21,0,3,,,,2,,72,0
13128,note_on,,,,,3,0,4,,,,3,,65,96
13128,note_on,,,,,3,0,5,,,,4,,65,96
13128,note_on,,,,,3,0,3,,,,2,,74,96
13146,note_off,,,,,42,0,6,,,,5,,55,0
13146,note_off,,,,,42,0,12,,,,13,,64,0
13146,note_off,,,,,0,0,12,,,,13,,72,0
13146,note_off,,,,,42,0,11,,,,12,,43,0
13146,note_off,,,,,42,0,10,,,,11,,55,0
13146,note_off,,,,,0,0,12,,,,13,,55,0
13146,note_off,,,,,42,0,13,,,,14,,55,0
13146,note_off,,,,,42,0,8,,,,7,,64,0
13146,note_off,,,,,42,0,9,,,,8,,60,0
13149,note_off,,,,,21,0,4,,,,3,,65,0
13149,note_off,,,,,21,0,3,,,,2,,74,0
13149,note_off,,,,,21,0,5,,,,4,,65,0
13152,note_on,,,,,6,0,6,,,,5,,60,62
13152,note_on,,,,,3,0,4,,,,3,,64,96
13152,note_on,,,,,6,0,12,,,,13,,67,36
13152,note_on,,,,,0,0,12,,,,13,,72,36
13152,note_on,,,,,0,0,12,,,,13,,60,36
13152,note_on,,,,,3,0,5,,,,4,,67,96
13152,note_on,,,,,6,0,10,,,,11,,60,36
13152,note_on,,,,,6,0,13,,,,14,,55,75
13152,note_on,,,,,6,0,11,,,,12,,48,36
13152,note_on,,,,,3,0,3,,,,2,,76,96
13152,note_on,,,,,6,0,8,,,,7,,64,127
13152,note_on,,,,,6,0,9,,,,8,,60,75
13173,note_off,,,,,21,0,5,,,,4,,67,0
13173,note_off,,,,,21,0,4,,,,3,,64,0
13173,note_off,,,,,21,0,3,,,,2,,76,0
13176,note_on,,,,,3,0,4,,,,3,,65,96
13176,note_on,,,,,3,0,5,,,,4,,65,96
13176,note_on,,,,,3,0,3,,,,2,,74,96
13194,note_off,,,,,42,0,9,,,,8,,60,0
13194,note_off,,,,,42,0,12,,,,13,,67,0
13194,note_off,,,,,0,0,12,,,,13,,72,0
13194,note_off,,,,,0,0,12,,,,13,,60,0
13194,note_off,,,,,42,0,8,,,,7,,64,0
13194,note_off,,,,,42,0,10,,,,11,,60,0
13194,note_off,,,,,42,0,6,,,,5,,60,0
13194,note_off,,,,,42,0,11,,,,12,,48,0
13194,note_off,,,,,42,0,13,,,,14,,55,0
13197,note_off,,,,,21,0,4,,,,3,,65,0
13197,note_off,,,,,21,0,3,,,,2,,74,0
13197,note_off,,,,,21,0,5,,,,4,,65,0
13200,note_on,,,,,3,0,3,,,,2,,72,96
13200,note_on,,,,,6,0,11,,,,12,,35,36
13200,note_on,,,,,6,0,8,,,,7,,64,127
13200,note_on,,,,,6,0,6,,,,5,,47,62
13200,note_on,,,,,6,0,13,,,,14,,55,75
13200,note_on,,,,,6,0,10,,,,11,,47,36
13200,note_on,,,,,6,0,9,,,,8,,60,75
13200,note_on,,,,,3,0,5,,,,4,,64,96
13200,note_on,,,,,0,0,12,,,,13,,47,36
13200,note_on,,,,,0,0,12,,,,13,,76,36
13200,note_on,,,,,6,0,12,,,,13,,67,36
13200,note_on,,,,,3,0,4,,,,3,,67,96
13221,note_off,,,,,21,0,8,,,,7,,64,0
13224,note_on,,,,,3,0,8,,,,7,,65,127
13242,note_off,,,,,42,0,10,,,,11,,47,0
13242,note_off,,,,,42,0,9,,,,8,,60,0
13242,note_off,,,,,42,0,3,,,,2,,72,0
13242,note_off,,,,,42,0,11,,,,12,,35,0
13242,note_off,,,,,42,0,5,,,,4,,64,0
13242,note_off,,,,,42,0,13,,,,14,,55,0
13242,note_off,,,,,42,0,6,,,,5,,47,0
13242,note_off,,,,,42,0,12,,,,13,,67,0
13242,note_off,,,,,0,0,12,,,,13,,76,0
13242,note_off,,,,,0,0,12,,,,13,,47,0
13242,note_off,,,,,42,0,4,,,,3,,67,0
13245,note_off,,,,,21,0,8,,,,7,,65,0
13248,note_on,,,,,6,0,11,,,,12,,43,36
13248,note_on,,,,,6,0,6,,,,5,,55,62
13248,note_on,,,,,6,0,12,,,,13,,64,36
13248,note_on,,,,,0,0,12,,,,13,,72,36
13248,note_on,,,,,0,0,12,,,,13,,55,36
13248,note_on,,,,,6,0,3,,,,2,,72,96
13248,note_on,,,,,6,0,5,,,,4,,64,96
13248,note_on,,,,,6,0,10,,,,11,,55,36
13248,note_on,,,,,3,0,8,,,,7,,64,127
13248,note_on,,,,,6,0,4,,,,3,,67,96
13269,note_off,,,,,21,0,8,,,,7,,64,0
13272,note_on,,,,,3,0,8,,,,7,,62,127
13290,note_off,,,,,42,0,6,,,,5,,55,0
13290,note_off,,,,,42,0,5,,,,4,,64,0
13290,note_off,,,,,42,0,11,,,,12,,43,0
13290,note_off,,,,,42,0,10,,,,11,,55,0
13290,note_off,,,,,0,0,12,,,,13,,72,0
13290,note_off,,,,,42,0,12,,,,13,,64,0
13290,note_off,,,,,42,0,3,,,,2,,72,0
13290,note_off,,,,,42,0,4,,,,3,,67,0
13290,note_off,,,,,0,0,12,,,,13,,55,0
13293,note_off,,,,,21,0,8,,,,7,,62,0
13296,note_on,,,,,6,0,4,,,,3,,67,96
13296,note_on,,,,,6,0,12,,,,13,,67,36
13296,note_on,,,,,6,0,11,,,,12,,48,36
13296,note_on,,,,,0,0,12,,,,13,,72,36
13296,note_on,,,,,6,0,5,,,,4,,64,96
13296,note_on,,,,,0,0,12,,,,13,,60,36
13296,note_on,,,,,6,0,10,,,,11,,60,36
13296,note_on,,,,,6,0,3,,,,2,,72,96
13296,note_on,,,,,6,0,6,,,,5,,60,62
13296,note_on,,,,,3,0,8,,,,7,,64,127
13317,note_off,,,,,21,0,8,,,,7,,64,0
13320,note_on,,,,,3,0,8,,,,7,,60,127
13338,note_off,,,,,0,0,12,,,,13,,72,0
13338,note_off,,,,,42,0,4,,,,3,,67,0
13338,note_off,,,,,0,0,12,,,,13,,60,0
13338,note_off,,,,,42,0,12,,,,13,,67,0
13338,note_off,,,,,42,0,5,,,,4,,64,0
13338,note_off,,,,,42,0,6,,,,5,,60,0
13338,note_off,,,,,42,0,11,,,,12,,48,0
13338,note_off,,,,,42,0,10,,,,11,,60,0
13338,note_off,,,,,42,0,3,,,,2,,72,0
13341,note_off,,,,,21,0,8,,,,7,,60,0
13344,note_on,,,,,6,0,10,,,,11,,45,36
13344,note_on,,,,,6,0,4,,,,3,,69,96
13344,note_on,,,,,6,0,6,,,,5,,45,62
13344,note_on,,,,,102,0,9,,,,8,,60,75
13344,note_on,,,,,6,0,5,,,,4,,64,96
13344,note_on,,,,,102,0,13,,,,14,,57,75
13344,note_on,,,,,6,0,3,,,,2,,72,96
13344,note_on,,,,,3,0,8,,,,7,,72,127
13344,note_on,,,,,6,0,12,,,,13,,65,36
13344,note_on,,,,,0,0,12,,,,13,,72,36
13344,note_on,,,,,0,0,12,,,,13,,45,36
13344,note_on,,,,,6,0,11,,,,12,,33,36
13365,note_off,,,,,21,0,5,,,,4,,64,0
13365,note_off,,,,,21,0,3,,,,2,,72,0
13365,note_off,,,,,21,0,4,,,,3,,69,0
13368,note_on,,,,,3,0,5,,,,4,,65,96
13368,note_on,,,,,3,0,3,,,,2,,74,96
13368,note_on,,,,,3,0,4,,,,3,,71,96
13386,note_off,,,,,42,0,9,,,,8,,60,0
13386,note_off,,,,,42,0,11,,,,12,,33,0
13386,note_off,,,,,42,0,6,,,,5,,45,0
13386,note_off,,,,,42,0,10,,,,11,,45,0
13386,note_off,,,,,42,0,12,,,,13,,65,0
13386,note_off,,,,,0,0,12,,,,13,,72,0
13386,note_off,,,,,42,0,8,,,,7,,72,0
13386,note_off,,,,,0,0,12,,,,13,,45,0
13386,note_off,,,,,42,0,13,,,,14,,57,0
13389,note_off,,,,,21,0,3,,,,2,,74,0
13389,note_off,,,,,21,0,5,,,,4,,65,0
13389,note_off,,,,,21,0,4,,,,3,,71,0
13392,note_on,,,,,3,0,5,,,,4,,64,96
13392,note_on,,,,,6,0,6,,,,5,,57,62
13392,note_on,,,,,0,0,12,,,,13,,57,36
13392,note_on,,,,,0,0,12,,,,13,,77,36
13392,note_on,,,,,6,0,12,,,,13,,72,36
13392,note_on,,,,,3,0,3,,,,2,,72,96
13392,note_on,,,,,6,0,10,,,,11,,57,36
13392,note_on,,,,,6,0,11,,,,12,,45,36
13392,note_on,,,,,6,0,8,,,,7,,64,127
13392,note_on,,,,,6,0,13,,,,14,,57,75
13392,note_on,,,,,6,0,9,,,,8,,60,75
13392,note_on,,,,,3,0,4,,,,3,,69,96
13413,note_off,,,,,21,0,4,,,,3,,69,0
13413,note_off,,,,,21,0,3,,,,2,,72,0
13413,note_off,,,,,21,0,5,,,,4,,64,0
13416,note_on,,,,,3,0,4,,,,3,,71,96
13416,note_on,,,,,3,0,5,,,,4,,65,96
13416,note_on,,,,,3,0,3,,,,2,,74,96
13434,note_off,,,,,42,0,12,,,,13,,72,0
13434,note_off,,,,,42,0,8,,,,7,,64,0
13434,note_off,,,,,0,0,12,,,,13,,77,0
13434,note_off,,,,,42,0,9,,,,8,,60,0
13434,note_off,,,,,0,0,12,,,,13,,57,0
13434,note_off,,,,,42,0,10,,,,11,,57,0
13434,note_off,,,,,42,0,13,,,,14,,57,0
13434,note_off,,,,,42,0,6,,,,5,,57,0
13434,note_off,,,,,42,0,11,,,,12,,45,0
13437,note_off,,,,,21,0,4,,,,3,,71,0
13437,note_off,,,,,21,0,5,,,,4,,65,0
13437,note_off,,,,,21,0,3,,,,2,,74,0
13440,note_on,,,,,3,0,4,,,,3,,72,96
13440,note_on,,,,,6,0,13,,,,14,,57,75
13440,note_on,,,,,6,0,11,,,,12,,40,36
13440,note_on,,,,,6,0,8,,,,7,,64,127
13440,note_on,,,,,3,0,3,,,,2,,76,96
13440,note_on,,,,,0,0,12,,,,13,,52,36
13440,note_on,,,,,0,0,12,,,,13,,81,36
13440,note_on,,,,,6,0,12,,,,13,,72,36
13440,note_on,,,,,6,0,6,,,,5,,52,62
13440,note_on,,,,,3,0,5,,,,4,,67,96
13440,note_on,,,,,6,0,10,,,,11,,52,36
13440,note_on,,,,,6,0,9,,,,8,,60,75
13461,note_off,,,,,21,0,3,,,,2,,76,0
13461,note_off,,,,,21,0,5,,,,4,,67,0
13461,note_off,,,,,21,0,4,,,,3,,72,0
13464,note_on,,,,,3,0,4,,,,3,,71,96
13464,note_on,,,,,3,0,5,,,,4,,65,96
13464,note_on,,,,,3,0,3,,,,2,,74,96
13482,note_off,,,,,42,0,8,,,,7,,64,0
13482,note_off,,,,,0,0,12,,,,13,,52,0
13482,note_off,,,,,42,0,12,,,,13,,72,0
13482,note_off,,,,,0,0,12,,,,13,,81,0
13482,note_off,,,,,42,0,6,,,,5,,52,0
13482,note_off,,,,,42,0,11,,,,12,,40,0
13482,note_off,,,,,42,0,13,,,,14,,57,0
13482,note_off,,,,,42,0,9,,,,8,,60,0
13482,note_off,,,,,42,0,10,,,,11,,52,0
13485,note_off,,,,,21,0,5,,,,4,,65,0
13485,note_off,,,,,21,0,4,,,,3,,71,0
13485,note_off,,,,,21,0,3,,,,2,,74,0
13488,note_on,,,,,3,0,3,,,,2,,72,96
13488,note_on,,,,,6,0,11,,,,12,,41,36
13488,note_on,,,,,0,0,12,,,,13,,53,36
13488,note_on,,,,,6,0,10,,,,11,,53,36
13488,note_on,,,,,6,0,9,,,,8,,60,75
13488,note_on,,,,,3,0,5,,,,4,,64,96
13488,note_on,,,,,6,0,8,,,,7,,64,127
13488,note_on,,,,,3,0,4,,,,3,,69,96
13488,note_on,,,,,6,0,13,,,,14,,57,75
13488,note_on,,,,,6,0,6,,,,5,,53,62
13488,note_on,,,,,6,0,12,,,,13,,72,36
13488,note_on,,,,,0,0,12,,,,13,,81,36
13530,note_off,,,,,42,0,9,,,,8,,60,0
13530,note_off,,,,,42,0,4,,,,3,,69,0
13530,note_off,,,,,42,0,8,,,,7,,64,0
13530,note_off,,,,,42,0,10,,,,11,,53,0
13530,note_off,,,,,42,0,13,,,,14,,57,0
13530,note_off,,,,,42,0,11,,,,12,,41,0
13530,note_off,,,,,42,0,6,,,,5,,53,0
13530,note_off,,,,,0,0,12,,,,13,,81,0
13530,note_off,,,,,42,0,5,,,,4,,64,0
13530,note_off,,,,,42,0,3,,,,2,,72,0
13530,note_off,,,,,0,0,12,,,,13,,53,0
13530,note_off,,,,,42,0,12,,,,13,,72,0
13536,note_on,,,,,6,0,6,,,,5,,57,62
13536,note_on,,,,,6,0,9,,,,8,,62,75
13536,note_on,,,,,6,0,4,,,,3,,69,96
13536,note_on,,,,,6,0,5,,,,4,,62,96
13536,note_on,,,,,0,0,12,,,,13,,57,36
13536,note_on,,,,,6,0,8,,,,7,,65,127
13536,note_on,,,,,0,0,12,,,,13,,74,36
13536,note_on,,,,,6,0,12,,,,13,,69,36
13536,note_on,,,,,6,0,13,,,,14,,57,75
13536,note_on,,,,,6,0,11,,,,12,,45,36
13536,note_on,,,,,6,0,3,,,,2,,74,96
13536,note_on,,,,,6,0,10,,,,11,,57,36
13557,note_off,,,,,21,0,8,,,,7,,65,0
13557,note_off,,,,,21,0,5,,,,4,,62,0
13557,note_off,,,,,21,0,3,,,,2,,74,0
13560,note_on,,,,,3,0,5,,,,4,,64,96
13560,note_on,,,,,3,0,8,,,,7,,64,127
13560,note_on,,,,,3,0,3,,,,2,,72,96
13578,note_off,,,,,42,0,13,,,,14,,57,0
13578,note_off,,,,,42,0,9,,,,8,,62,0
13578,note_off,,,,,0,0,12,,,,13,,57,0
13578,note_off,,,,,0,0,12,,,,13,,74,0
13578,note_off,,,,,42,0,12,,,,13,,69,0
13578,note_off,,,,,42,0,11,,,,12,,45,0
13578,note_off,,,,,42,0,10,,,,11,,57,0
13578,note_off,,,,,42,0,4,,,,3,,69,0
13578,note_off,,,,,42,0,6,,,,5,,57,0
13581,note_off,,,,,21,0,3,,,,2,,72,0
13581,note_off,,,,,21,0,8,,,,7,,64,0
13581,note_off,,,,,21,0,5,,,,4,,64,0
13584,note_on,,,,,3,0,8,,,,7,,62,127
13584,note_on,,,,,6,0,13,,,,14,,53,75
13584,note_on,,,,,6,0,4,,,,3,,69,96
13584,note_on,,,,,3,0,3,,,,2,,71,96
13584,note_on,,,,,6,0,9,,,,8,,57,75
13584,note_on,,,,,6,0,12,,,,13,,69,36
13584,note_on,,,,,0,0,12,,,,13,,77,36
13584,note_on,,,,,0,0,12,,,,13,,50,36
13584,note_on,,,,,6,0,11,,,,12,,38,36
13584,note_on,,,,,3,0,5,,,,4,,65,96
13584,note_on,,,,,6,0,6,,,,5,,50,62
13584,note_on,,,,,6,0,10,,,,11,,50,36
13605,note_off,,,,,21,0,8,,,,7,,62,0
13605,note_off,,,,,21,0,5,,,,4,,65,0
13605,note_off,,,,,21,0,3,,,,2,,71,0
13608,note_on,,,,,3,0,5,,,,4,,64,96
13608,note_on,,,,,3,0,3,,,,2,,72,96
13608,note_on,,,,,3,0,8,,,,7,,60,127
13626,note_off,,,,,42,0,12,,,,13,,69,0
13626,note_off,,,,,0,0,12,,,,13,,77,0
13626,note_off,,,,,0,0,12,,,,13,,50,0
13626,note_off,,,,,42,0,9,,,,8,,57,0
13626,note_off,,,,,42,0,13,,,,14,,53,0
13626,note_off,,,,,42,0,10,,,,11,,50,0
13626,note_off,,,,,42,0,11,,,,12,,38,0
13626,note_off,,,,,42,0,6,,,,5,,50,0
13626,note_off,,,,,42,0,4,,,,3,,69,0
13629,note_off,,,,,21,0,3,,,,2,,72,0
13629,note_off,,,,,21,0,8,,,,7,,60,0
13629,note_off,,,,,21,0,5,,,,4,,64,0
13632,note_on,,,,,6,0,13,,,,14,,50,75
13632,note_on,,,,,0,0,12,,,,13,,43,36
13632,note_on,,,,,6,0,9,,,,8,,55,75
13632,note_on,,,,,6,0,4,,,,3,,71,96
13632,note_on,,,,,6,0,11,,,,12,,31,36
13632,note_on,,,,,6,0,6,,,,5,,43,62
13632,note_on,,,,,6,0,10,,,,11,,43,36
13632,note_on,,,,,3,0,5,,,,4,,65,96
13632,note_on,,,,,6,0,12,,,,13,,62,36
13632,note_on,,,,,0,0,12,,,,13,,71,36
13632,note_on,,,,,3,0,8,,,,7,,59,127
13632,note_on,,,,,3,0,3,,,,2,,74,96
13653,note_off,,,,,21,0,8,,,,7,,59,0
13656,note_on,,,,,3,0,8,,,,7,,57,127
13674,note_off,,,,,0,0,12,,,,13,,43,0
13674,note_off,,,,,42,0,9,,,,8,,55,0
13674,note_off,,,,,42,0,6,,,,5,,43,0
13674,note_off,,,,,42,0,5,,,,4,,65,0
13674,note_off,,,,,42,0,4,,,,3,,71,0
13674,note_off,,,,,42,0,11,,,,12,,31,0
13674,note_off,,,,,0,0,12,,,,13,,71,0
13674,note_off,,,,,42,0,3,,,,2,,74,0
13674,note_off,,,,,42,0,13,,,,14,,50,0
13674,note_off,,,,,42,0,12,,,,13,,62,0
13674,note_off,,,,,42,0,10,,,,11,,43,0
13677,note_off,,,,,21,0,8,,,,7,,57,0
13680,note_on,,,,,6,0,11,,,,12,,35,36
13680,note_on,,,,,6,0,13,,,,14,,50,75
13680,note_on,,,,,0,0,12,,,,13,,47,36
13680,note_on,,,,,3,0,8,,,,7,,59,127
13680,note_on,,,,,6,0,12,,,,13,,62,36
13680,note_on,,,,,6,0,10,,,,11,,47,36
13680,note_on,,,,,0,0,12,,,,13,,67,36
13680,note_on,,,,,6,0,9,,,,8,,55,75
13680,note_on,,,,,6,0,6,,,,5,,47,62
13701,note_off,,,,,21,0,8,,,,7,,59,0
13704,note_on,,,,,3,0,8,,,,7,,55,127
13722,note_off,,,,,42,0,10,,,,11,,47,0
13722,note_off,,,,,42,0,6,,,,5,,47,0
13722,note_off,,,,,42,0,12,,,,13,,62,0
13722,note_off,,,,,0,0,12,,,,13,,47,0
13722,note_off,,,,,0,0,12,,,,13,,67,0
13722,note_off,,,,,42,0,9,,,,8,,55,0
13722,note_off,,,,,42,0,11,,,,12,,35,0
13722,note_off,,,,,42,0,13,,,,14,,50,0
13725,note_off,,,,,21,0,8,,,,7,,55,0
13728,note_on,,,,,6,0,12,,,,13,,59,36
13728,note_on,,,,,6,0,9,,,,8,,59,75
13728,note_on,,,,,0,0,12,,,,13,,67,36
13728,note_on,,,,,6,0,6,,,,5,,50,62
13728,note_on,,,,,6,0,13,,,,14,,55,75
13728,note_on,,,,,0,0,12,,,,13,,50,36
13728,note_on,,,,,6,0,10,,,,11,,50,36
13728,note_on,,,,,6,0,11,,,,12,,38,36
13728,note_on,,,,,3,0,8,,,,7,,62,127
13749,note_off,,,,,21,0,9,,,,8,,59,0
13749,note_off,,,,,21,0,8,,,,7,,62,0
13752,note_on,,,,,3,0,9,,,,8,,57,75
13752,note_on,,,,,3,0,8,,,,7,,60,127
13770,note_off,,,,,0,0,12,,,,13,,50,0
13770,note_off,,,,,0,0,12,,,,13,,67,0
13770,note_off,,,,,42,0,12,,,,13,,59,0
13770,note_off,,,,,42,0,10,,,,11,,50,0
13770,note_off,,,,,42,0,11,,,,12,,38,0
13770,note_off,,,,,42,0,13,,,,14,,55,0
13770,note_off,,,,,42,0,6,,,,5,,50,0
13773,note_off,,,,,21,0,8,,,,7,,60,0
13773,note_off,,,,,21,0,9,,,,8,,57,0
13776,note_on,,,,,6,0,6,,,,5,,43,62
13776,note_on,,,,,0,0,12,,,,13,,43,36
13776,note_on,,,,,0,0,12,,,,13,,71,36
13776,note_on,,,,,6,0,12,,,,13,,62,36
13776,note_on,,,,,6,0,13,,,,14,,55,75
13776,note_on,,,,,6,0,10,,,,11,,43,36
13776,note_on,,,,,6,0,11,,,,12,,31,36
13776,note_on,,,,,3,0,8,,,,7,,62,127
13776,note_on,,,,,102,0,5,,,,4,,71,96
13776,note_on,,,,,102,0,4,,,,3,,74,96
13776,note_on,,,,,102,0,3,,,,2,,79,96
13776,note_on,,,,,3,0,9,,,,8,,59,75
13797,note_off,,,,,21,0,9,,,,8,,59,0
13797,note_off,,,,,21,0,8,,,,7,,62,0
13800,note_on,,,,,3,0,9,,,,8,,55,75
13800,note_on,,,,,3,0,8,,,,7,,59,127
13818,note_off,,,,,42,0,6,,,,5,,43,0
13818,note_off,,,,,42,0,13,,,,14,,55,0
13818,note_off,,,,,42,0,5,,,,4,,71,0
13818,note_off,,,,,42,0,4,,,,3,,74,0
13818,note_off,,,,,0,0,12,,,,13,,71,0
13818,note_off,,,,,0,0,12,,,,13,,43,0
13818,note_off,,,,,42,0,10,,,,11,,43,0
13818,note_off,,,,,42,0,11,,,,12,,31,0
13818,note_off,,,,,42,0,12,,,,13,,62,0
13818,note_off,,,,,42,0,3,,,,2,,79,0
13821,note_off,,,,,21,0,8,,,,7,,59,0
13821,note_off,,,,,21,0,9,,,,8,,55,0
13824,note_on,,,,,6,0,6,,,,5,,47,62
13824,note_on,,,,,3,0,9,,,,8,,62,75
13824,note_on,,,,,6,0,10,,,,11,,47,36
13824,note_on,,,,,6,0,13,,,,14,,55,75
13824,note_on,,,,,3,0,8,,,,7,,65,127
13824,note_on,,,,,0,0,12,,,,13,,47,36
13824,note_on,,,,,0,0,12,,,,13,,67,36
13824,note_on,,,,,6,0,11,,,,12,,35,36
13824,note_on,,,,,6,0,12,,,,13,,62,36
13845,note_off,,,,,21,0,9,,,,8,,62,0
13845,note_off,,,,,21,0,8,,,,7,,65,0
13848,note_on,,,,,3,0,8,,,,7,,64,127
13848,note_on,,,,,3,0,9,,,,8,,60,75
13866,note_off,,,,,0,0,12,,,,13,,67,0
13866,note_off,,,,,42,0,12,,,,13,,62,0
13866,note_off,,,,,42,0,13,,,,14,,55,0
13866,note_off,,,,,0,0,12,,,,13,,47,0
13866,note_off,,,,,42,0,6,,,,5,,47,0
13866,note_off,,,,,42,0,10,,,,11,,47,0
13866,note_off,,,,,42,0,11,,,,12,,35,0
13869,note_off,,,,,21,0,9,,,,8,,60,0
13869,note_off,,,,,21,0,8,,,,7,,64,0
13872,note_on,,,,,6,0,13,,,,14,,59,75
13872,note_on,,,,,0,0,12,,,,13,,50,36
13872,note_on,,,,,0,0,12,,,,13,,67,36
13872,note_on,,,,,6,0,12,,,,13,,59,36
13872,note_on,,,,,6,0,10,,,,11,,50,36
13872,note_on,,,,,3,0,8,,,,7,,65,127
13872,note_on,,,,,6,0,11,,,,12,,38,36
13872,note_on,,,,,3,0,9,,,,8,,62,75
13872,note_on,,,,,6,0,6,,,,5,,50,62
13893,note_off,,,,,21,0,8,,,,7,,65,0
13893,note_off,,,,,21,0,9,,,,8,,62,0
13896,note_on,,,,,3,0,8,,,,7,,62,127
13896,note_on,,,,,3,0,9,,,,8,,59,75
13914,note_off,,,,,42,0,13,,,,14,,59,0
13914,note_off,,,,,42,0,11,,,,12,,38,0
13914,note_off,,,,,42,0,6,,,,5,,50,0
13914,note_off,,,,,42,0,10,,,,11,,50,0
13914,note_off,,,,,42,0,12,,,,13,,59,0
13914,note_off,,,,,0,0,12,,,,13,,67,0
13914,note_off,,,,,0,0,12,,,,13,,50,0
13917,note_off,,,,,21,0,9,,,,8,,59,0
13917,note_off,,,,,21,0,8,,,,7,,62,0
13920,note_on,,,,,6,0,10,,,,11,,43,36
13920,note_on,,,,,102,0,4,,,,3,,71,96
13920,note_on,,,,,0,0,12,,,,13,,43,36
13920,note_on,,,,,0,0,12,,,,13,,74,36
13920,note_on,,,,,6,0,11,,,,12,,31,36
13920,note_on,,,,,102,0,3,,,,2,,74,96
13920,note_on,,,,,6,0,6,,,,5,,43,62
13920,note_on,,,,,102,0,5,,,,4,,67,96
13920,note_on,,,,,6,0,12,,,,13,,71,36
13920,note_on,,,,,6,0,13,,,,14,,62,75
13920,note_on,,,,,3,0,9,,,,8,,65,75
13920,note_on,,,,,3,0,8,,,,7,,71,127
13941,note_off,,,,,21,0,13,,,,14,,62,0
13941,note_off,,,,,21,0,9,,,,8,,65,0
13941,note_off,,,,,21,0,8,,,,7,,71,0
13944,note_on,,,,,3,0,8,,,,7,,69,127
13944,note_on,,,,,3,0,9,,,,8,,64,75
13944,note_on,,,,,3,0,13,,,,14,,60,75
13962,note_off,,,,,0,0,12,,,,13,,43,0
13962,note_off,,,,,42,0,3,,,,2,,74,0
13962,note_off,,,,,42,0,6,,,,5,,43,0
13962,note_off,,,,,42,0,4,,,,3,,71,0
13962,note_off,,,,,42,0,5,,,,4,,67,0
13962,note_off,,,,,42,0,11,,,,12,,31,0
13962,note_off,,,,,0,0,12,,,,13,,74,0
13962,note_off,,,,,42,0,12,,,,13,,71,0
13962,note_off,,,,,42,0,10,,,,11,,43,0
13965,note_off,,,,,21,0,8,,,,7,,69,0
13965,note_off,,,,,21,0,13,,,,14,,60,0
13965,note_off,,,,,21,0,9,,,,8,,64,0
13968,note_on,,,,,3,0,9,,,,8,,65,75
13968,note_on,,,,,0,0,12,,,,13,,47,36
13968,note_on,,,,,0,0,12,,,,13,,74,36
13968,note_on,,,,,3,0,8,,,,7,,71,127
13968,note_on,,,,,3,0,13,,,,14,,62,75
13968,note_on,,,,,6,0,10,,,,11,,47,36
13968,note_on,,,,,6,0,11,,,,12,,35,36
13968,note_on,,,,,6,0,12,,,,13,,67,36
13968,note_on,,,,,6,0,6,,,,5,,47,62
13989,note_off,,,,,21,0,9,,,,8,,65,0
13989,note_off,,,,,21,0,13,,,,14,,62,0
13989,note_off,,,,,21,0,8,,,,7,,71,0
13992,note_on,,,,,3,0,8,,,,7,,67,127
13992,note_on,,,,,3,0,9,,,,8,,62,75
13992,note_on,,,,,3,0,13,,,,14,,59,75
14010,note_off,,,,,42,0,12,,,,13,,67,0
14010,note_off,,,,,42,0,11,,,,12,,35,0
14010,note_off,,,,,42,0,6,,,,5,,47,0
14010,note_off,,,,,0,0,12,,,,13,,47,0
14010,note_off,,,,,42,0,10,,,,11,,47,0
14010,note_off,,,,,0,0,12,,,,13,,74,0
14013,note_off,,,,,21,0,8,,,,7,,67,0
14013,note_off,,,,,21,0,9,,,,8,,62,0
14013,note_off,,,,,21,0,13,,,,14,,59,0
14016,note_on,,,,,6,0,11,,,,12,,38,36
14016,note_on,,,,,3,0,8,,,,7,,74,127
14016,note_on,,,,,6,0,6,,,,5,,50,62
14016,note_on,,,,,6,0,10,,,,11,,50,36
14016,note_on,,,,,6,0,12,,,,13,,71,36
14016,note_on,,,,,0,0,12,,,,13,,79,36
14016,note_on,,,,,0,0,12,,,,13,,50,36
14016,note_on,,,,,3,0,9,,,,8,,71,75
14016,note_on,,,,,3,0,13,,,,14,,65,75
14037,note_off,,,,,21,0,8,,,,7,,74,0
14037,note_off,,,,,21,0,9,,,,8,,71,0
14037,note_off,,,,,21,0,13,,,,14,,65,0
14040,note_on,,,,,3,0,13,,,,14,,64,75
14040,note_on,,,,,3,0,8,,,,7,,72,127
14040,note_on,,,,,3,0,9,,,,8,,69,75
14058,note_off,,,,,0,0,12,,,,13,,50,0
14058,note_off,,,,,0,0,12,,,,13,,79,0
14058,note_off,,,,,42,0,12,,,,13,,71,0
14058,note_off,,,,,42,0,6,,,,5,,50,0
14058,note_off,,,,,42,0,10,,,,11,,50,0
14058,note_off,,,,,42,0,11,,,,12,,38,0
14061,note_off,,,,,21,0,13,,,,14,,64,0
14061,note_off,,,,,21,0,8,,,,7,,72,0
14061,note_off,,,,,21,0,9,,,,8,,69,0
14064,note_on,,,,,3,0,9,,,,8,,71,75
14064,note_on,,,,,102,0,3,,,,2,,71,96
14064,note_on,,,,,102,0,4,,,,3,,67,96
14064,note_on,,,,,6,0,11,,,,12,,43,36
14064,note_on,,,,,3,0,8,,,,7,,74,127
14064,note_on,,,,,6,0,10,,,,11,,55,36
14064,note_on,,,,,3,0,13,,,,14,,65,75
14064,note_on,,,,,6,0,6,,,,5,,55,62
14064,note_on,,,,,6,0,12,,,,13,,71,36
14064,note_on,,,,,0,0,12,,,,13,,74,36
14064,note_on,,,,,0,0,12,,,,13,,55,36
14064,note_on,,,,,102,0,5,,,,4,,62,96
14085,note_off,,,,,21,0,13,,,,14,,65,0
14085,note_off,,,,,21,0,9,,,,8,,71,0
14085,note_off,,,,,21,0,8,,,,7,,74,0
14088,note_on,,,,,3,0,9,,,,8,,67,75
14088,note_on,,,,,3,0,8,,,,7,,71,127
14088,note_on,,,,,3,0,13,,,,14,,62,75
14106,note_off,,,,,42,0,10,,,,11,,55,0
14106,note_off,,,,,42,0,4,,,,3,,67,0
14106,note_off,,,,,42,0,5,,,,4,,62,0
14106,note_off,,,,,42,0,6,,,,5,,55,0
14106,note_off,,,,,42,0,12,,,,13,,71,0
14106,note_off,,,,,42,0,3,,,,2,,71,0
14106,note_off,,,,,0,0,12,,,,13,,74,0
14106,note_off,,,,,0,0,12,,,,13,,55,0
14106,note_off,,,,,42,0,11,,,,12,,43,0
14109,note_off,,,,,21,0,8,,,,7,,71,0
14109,note_off,,,,,21,0,9,,,,8,,67,0
14109,note_off,,,,,21,0,13,,,,14,,62,0
14112,note_on,,,,,6,0,11,,,,12,,47,36
14112,note_on,,,,,3,0,13,,,,14,,71,75
14112,note_on,,,,,6,0,12,,,,13,,67,36
14112,note_on,,,,,0,0,12,,,,13,,74,36
14112,note_on,,,,,0,0,12,,,,13,,59,36
14112,note_on,,,,,3,0,9,,,,8,,74,75
14112,note_on,,,,,6,0,6,,,,5,,59,62
14112,note_on,,,,,6,0,10,,,,11,,59,36
14112,note_on,,,,,3,0,8,,,,7,,77,127
14133,note_off,,,,,21,0,13,,,,14,,71,0
14133,note_off,,,,,21,0,9,,,,8,,74,0
14133,note_off,,,,,21,0,8,,,,7,,77,0
14136,note_on,,,,,3,0,9,,,,8,,72,75
14136,note_on,,,,,3,0,8,,,,7,,76,127
14136,note_on,,,,,3,0,13,,,,14,,72,75
14154,note_off,,,,,42,0,11,,,,12,,47,0
14154,note_off,,,,,42,0,6,,,,5,,59,0
14154,note_off,,,,,42,0,10,,,,11,,59,0
14154,note_off,,,,,42,0,12,,,,13,,67,0
14154,note_off,,,,,0,0,12,,,,13,,74,0
14154,note_off,,,,,0,0,12,,,,13,,59,0
14157,note_off,,,,,21,0,8,,,,7,,76,0
14157,note_off,,,,,21,0,9,,,,8,,72,0
14157,note_off,,,,,21,0,13,,,,14,,72,0
14160,note_on,,,,,3,0,9,,,,8,,74,75
14160,note_on,,,,,6,0,12,,,,13,,71,36
14160,note_on,,,,,0,0,12,,,,13,,55,36
14160,note_on,,,,,0,0,12,,,,13,,74,36
14160,note_on,,,,,3,0,8,,,,7,,77,127
14160,note_on,,,,,6,0,6,,,,5,,55,62
14160,note_on,,,,,6,0,10,,,,11,,55,36
14160,note_on,,,,,3,0,13,,,,14,,69,75
14160,note_on,,,,,6,0,11,,,,12,,43,36
14181,note_off,,,,,21,0,8,,,,7,,77,0
14181,note_off,,,,,21,0,9,,,,8,,74,0
14181,note_off,,,,,21,0,13,,,,14,,69,0
14184,note_on,,,,,3,0,8,,,,7,,74,127
14184,note_on,,,,,3,0,9,,,,8,,71,75
14184,note_on,,,,,3,0,13,,,,14,,71,75
14202,note_off,,,,,42,0,12,,,,13,,71,0
14202,note_off,,,,,42,0,10,,,,11,,55,0
14202,note_off,,,,,0,0,12,,,,13,,55,0
14202,note_off,,,,,42,0,6,,,,5,,55,0
14202,note_off,,,,,42,0,11,,,,12,,43,0
14202,note_off,,,,,0,0,12,,,,13,,74,0
14205,note_off,,,,,21,0,13,,,,14,,71,0
14205,note_off,,,,,21,0,9,,,,8,,71,0
14205,note_off,,,,,21,0,8,,,,7,,74,0
14208,note_on,,,,,3,0,8,,,,7,,76,127
14208,note_on,,,,,102,0,4,,,,3,,67,96
14208,note_on,,,,,3,0,9,,,,8,,72,75
14208,note_on,,,,,3,0,13,,,,14,,67,75
14208,note_on,,,,,102,0,3,,,,2,,72,96
14208,note_on,,,,,0,0,12,,,,13,,76,36
14208,note_on,,,,,6,0,12,,,,13,,67,36
14208,note_on,,,,,102,0,5,,,,4,,64,96
14208,note_on,,,,,6,0,6,,,,5,,60,62
14208,note_on,,,,,6,0,11,,,,12,,48,36
14208,note_on,,,,,0,0,12,,,,13,,60,36
14208,note_on,,,,,6,0,10,,,,11,,60,36
14229,note_off,,,,,21,0,10,,,,11,,60,0
14229,note_off,,,,,21,0,4,,,,3,,67,0
14229,note_off,,,,,21,0,8,,,,7,,76,0
14229,note_off,,,,,21,0,11,,,,12,,48,0
14229,note_off,,,,,21,0,12,,,,13,,60,0
14229,note_off,,,,,21,0,5,,,,4,,64,0
14229,note_off,,,,,21,0,6,,,,5,,60,0
14229,note_off,,,,,21,0,3,,,,2,,72,0
14232,note_on,,,,,3,0,10,,,,11,,59,36
14232,note_on,,,,,3,0,11,,,,12,,47,36
14232,note_on,,,,,3,0,3,,,,2,,74,96
14232,note_on,,,,,3,0,8,,,,7,,74,127
14232,note_on,,,,,3,0,6,,,,5,,59,62
14232,note_on,,,,,3,0,5,,,,4,,65,96
14232,note_on,,,,,3,0,12,,,,13,,59,36
14232,note_on,,,,,3,0,4,,,,3,,69,96
14250,note_off,,,,,18,0,12,,,,13,,67,0
14250,note_off,,,,,42,0,9,,,,8,,72,0
14250,note_off,,,,,0,0,12,,,,13,,76,0
14250,note_off,,,,,42,0,13,,,,14,,67,0
14253,note_off,,,,,21,0,10,,,,11,,59,0
14253,note_off,,,,,21,0,8,,,,7,,74,0
14253,note_off,,,,,21,0,11,,,,12,,47,0
14253,note_off,,,,,21,0,4,,,,3,,69,0
14253,note_off,,,,,21,0,3,,,,2,,74,0
14253,note_off,,,,,21,0,6,,,,5,,59,0
14253,note_off,,,,,21,0,5,,,,4,,65,0
14253,note_off,,,,,3,0,12,,,,13,,59,0
14256,note_on,,,,,6,0,13,,,,14,,64,75
14256,note_on,,,,,3,0,11,,,,12,,48,36
14256,note_on,,,,,3,0,4,,,,3,,67,96
14256,note_on,,,,,3,0,5,,,,4,,64,96
14256,note_on,,,,,3,0,8,,,,7,,76,127
14256,note_on,,,,,3,0,10,,,,11,,60,36
14256,note_on,,,,,3,0,3,,,,2,,72,96
14256,note_on,,,,,6,0,9,,,,8,,67,75
14256,note_on,,,,,3,0,12,,,,13,,67,36
14256,note_on,,,,,0,0,12,,,,13,,76,36
14256,note_on,,,,,0,0,12,,,,13,,60,36
14256,note_on,,,,,3,0,6,,,,5,,60,62
14277,note_off,,,,,21,0,8,,,,7,,76,0
14277,note_off,,,,,21,0,3,,,,2,,72,0
14277,note_off,,,,,21,0,11,,,,12,,48,0
14277,note_off,,,,,21,0,6,,,,5,,60,0
14277,note_off,,,,,21,0,12,,,,13,,60,0
14277,note_off,,,,,21,0,10,,,,11,,60,0
14277,note_off,,,,,21,0,5,,,,4,,64,0
14280,note_on,,,,,3,0,12,,,,13,,59,36
14280,note_on,,,,,3,0,10,,,,11,,59,36
14280,note_on,,,,,3,0,5,,,,4,,65,96
14280,note_on,,,,,3,0,8,,,,7,,71,127
14280,note_on,,,,,3,0,3,,,,2,,74,96
14280,note_on,,,,,3,0,11,,,,12,,47,36
14280,note_on,,,,,3,0,6,,,,5,,59,62
14298,note_off,,,,,18,0,12,,,,13,,67,0
14298,note_off,,,,,0,0,12,,,,13,,76,0
14298,note_off,,,,,42,0,4,,,,3,,67,0
14298,note_off,,,,,42,0,13,,,,14,,64,0
14298,note_off,,,,,42,0,9,,,,8,,67,0
14301,note_off,,,,,21,0,10,,,,11,,59,0
14301,note_off,,,,,21,0,8,,,,7,,71,0
14301,note_off,,,,,21,0,11,,,,12,,47,0
14301,note_off,,,,,21,0,3,,,,2,,74,0
14301,note_off,,,,,3,0,12,,,,13,,59,0
14301,note_off,,,,,21,0,6,,,,5,,59,0
14301,note_off,,,,,21,0,5,,,,4,,65,0
14304,note_on,,,,,3,0,3,,,,2,,76,96
14304,note_on,,,,,0,0,12,,,,13,,77,36
14304,note_on,,,,,0,0,12,,,,13,,57,36
14304,note_on,,,,,3,0,12,,,,13,,72,36
14304,note_on,,,,,3,0,6,,,,5,,57,62
14304,note_on,,,,,3,0,11,,,,12,,45,36
14304,note_on,,,,,3,0,10,,,,11,,57,36
14304,note_on,,,,,6,0,4,,,,3,,72,96
14304,note_on,,,,,3,0,8,,,,7,,72,127
14304,note_on,,,,,6,0,9,,,,8,,60,75
14304,note_on,,,,,3,0,5,,,,4,,67,96
14304,note_on,,,,,6,0,13,,,,14,,69,75
14325,note_off,,,,,21,0,3,,,,2,,76,0
14325,note_off,,,,,21,0,8,,,,7,,72,0
14325,note_off,,,,,21,0,5,,,,4,,67,0
14328,note_on,,,,,3,0,3,,,,2,,74,96
14328,note_on,,,,,3,0,8,,,,7,,71,127
14328,note_on,,,,,3,0,5,,,,4,,65,96
14346,note_off,,,,,42,0,12,,,,13,,72,0
14346,note_off,,,,,0,0,12,,,,13,,77,0
14349,note_off,,,,,21,0,3,,,,2,,74,0
14349,note_off,,,,,21,0,5,,,,4,,65,0
14349,note_off,,,,,21,0,8,,,,7,,71,0
14352,note_on,,,,,3,0,8,,,,7,,72,127
14352,note_on,,,,,0,0,12,,,,13,,74,36
14352,note_on,,,,,3,0,3,,,,2,,72,96
14352,note_on,,,,,6,0,12,,,,13,,65,36
14352,note_on,,,,,3,0,5,,,,4,,64,96
14373,note_off,,,,,69,0,9,,,,8,,60,0
14373,note_off,,,,,69,0,13,,,,14,,69,0
14373,note_off,,,,,21,0,12,,,,13,,57,0
14373,note_off,,,,,69,0,10,,,,11,,57,0
14373,note_off,,,,,69,0,6,,,,5,,57,0
14373,note_off,,,,,21,0,3,,,,2,,72,0
14373,note_off,,,,,69,0,11,,,,12,,45,0
14373,note_off,,,,,69,0,4,,,,3,,72,0
14373,note_off,,,,,21,0,8,,,,7,,72,0
14373,note_off,,,,,21,0,5,,,,4,,64,0
14376,note_on,,,,,3,0,6,,,,5,,53,62
14376,note_on,,,,,3,0,12,,,,13,,53,36
14376,note_on,,,,,3,0,4,,,,3,,69,96
14376,note_on,,,,,3,0,13,,,,14,,62,75
14376,note_on,,,,,3,0,5,,,,4,,65,96
14376,note_on,,,,,3,0,9,,,,8,,69,75
14376,note_on,,,,,3,0,8,,,,7,,74,127
14376,note_on,,,,,3,0,10,,,,11,,53,36
14376,note_on,,,,,3,0,11,,,,12,,41,36
14376,note_on,,,,,3,0,3,,,,2,,74,96
14394,note_off,,,,,18,0,12,,,,13,,65,0
14394,note_off,,,,,0,0,12,,,,13,,74,0
14397,note_off,,,,,21,0,5,,,,4,,65,0
14397,note_off,,,,,21,0,11,,,,12,,41,0
14397,note_off,,,,,21,0,8,,,,7,,74,0
14397,note_off,,,,,21,0,10,,,,11,,53,0
14397,note_off,,,,,21,0,6,,,,5,,53,0
14397,note_off,,,,,21,0,13,,,,14,,62,0
14397,note_off,,,,,3,0,12,,,,13,,53,0
14397,note_off,,,,,21,0,9,,,,8,,69,0
14397,note_off,,,,,21,0,3,,,,2,,74,0
14397,note_off,,,,,21,0,4,,,,3,,69,0
14400,note_on,,,,,3,0,13,,,,14,,67,75
14400,note_on,,,,,3,0,5,,,,4,,62,96
14400,note_on,,,,,3,0,6,,,,5,,55,62
14400,note_on,,,,,3,0,11,,,,12,,43,36
14400,note_on,,,,,3,0,8,,,,7,,74,127
14400,note_on,,,,,3,0,3,,,,2,,71,96
14400,note_on,,,,,3,0,12,,,,13,,62,36
14400,note_on,,,,,3,0,9,,,,8,,62,75
14400,note_on,,,,,0,0,12,,,,13,,71,36
14400,note_on,,,,,3,0,10,,,,11,,55,36
14400,note_on,,,,,0,0,12,,,,13,,55,36
14400,note_on,,,,,3,0,4,,,,3,,67,96
14442,note_off,,,,,42,0,9,,,,8,,62,0
14442,note_off,,,,,42,0,12,,,,13,,62,0
14442,note_off,,,,,0,0,12,,,,13,,71,0
14442,note_off,,,,,0,0,12,,,,13,,55,0
14442,note_off,,,,,42,0,6,,,,5,,55,0
14442,note_off,,,,,42,0,13,,,,14,,67,0
14442,note_off,,,,,42,0,11,,,,12,,43,0
14442,note_off,,,,,42,0,10,,,,11,,55,0
14448,note_on,,,,,0,0,12,,,,13,,72,36
14448,note_on,,,,,0,0,12,,,,13,,43,36
14448,note_on,,,,,6,0,13,,,,14,,65,75
14448,note_on,,,,,6,0,6,,,,5,,43,62
14448,note_on,,,,,6,0,11,,,,12,,31,36
14448,note_on,,,,,6,0,12,,,,13,,64,36
14448,note_on,,,,,6,0,10,,,,11,,43,36
14448,note_on,,,,,6,0,9,,,,8,,67,75
14463,note_off,,,,,63,0,4,,,,3,,67,0
14463,note_off,,,,,63,0,5,,,,4,,62,0
14463,note_off,,,,,63,0,8,,,,7,,74,0
14463,note_off,,,,,63,0,3,,,,2,,71,0
14472,note_on,,,,,9,0,5,,,,4,,64,96
14472,note_on,,,,,9,0,4,,,,3,,67,96
14472,note_on,,,,,9,0,8,,,,7,,72,127
14472,note_on,,,,,9,0,3,,,,2,,72,96
14490,note_off,,,,,0,0,12,,,,13,,43,0
14490,note_off,,,,,42,0,6,,,,5,,43,0
14490,note_off,,,,,0,0,12,,,,13,,72,0
14490,note_off,,,,,42,0,12,,,,13,,64,0
14490,note_off,,,,,42,0,11,,,,12,,31,0
14490,note_off,,,,,42,0,13,,,,14,,65,0
14490,note_off,,,,,42,0,9,,,,8,,67,0
14490,note_off,,,,,42,0,10,,,,11,,43,0
14493,note_off,,,,,21,0,3,,,,2,,72,0
14493,note_off,,,,,21,0,5,,,,4,,64,0
14493,note_off,,,,,21,0,8,,,,7,,72,0
14493,note_off,,,,,21,0,4,,,,3,,67,0
14496,note_on,,,,,0,0,12,,,,13,,48,36
14496,note_on,,,,,6,0,6,,,,5,,48,62
14496,note_on,,,,,3,0,3,,,,2,,72,96
14496,note_on,,,,,6,0,12,,,,13,,67,36
14496,note_on,,,,,6,0,11,,,,12,,36,36
14496,note_on,,,,,0,0,12,,,,13,,76,36
14496,note_on,,,,,3,0,4,,,,3,,67,96
14496,note_on,,,,,3,0,5,,,,4,,64,96
14496,note_on,,,,,3,0,8,,,,7,,72,127
14496,note_on,,,,,6,0,13,,,,14,,64,75
14496,note_on,,,,,6,0,10,,,,11,,48,36
14496,note_on,,,,,6,0,9,,,,8,,67,75
14517,note_off,,,,,21,0,8,,,,7,,72,0
14520,note_on,,,,,3,0,8,,,,7,,71,127
14538,note_off,,,,,42,0,12,,,,13,,67,0
14538,note_off,,,,,0,0,12,,,,13,,76,0
14538,note_off,,,,,0,0,12,,,,13,,48,0
14538,note_off,,,,,42,0,10,,,,11,,48,0
14538,note_off,,,,,42,0,6,,,,5,,48,0
14538,note_off,,,,,42,0,5,,,,4,,64,0
14538,note_off,,,,,42,0,3,,,,2,,72,0
14538,note_off,,,,,42,0,11,,,,12,,36,0
14538,note_off,,,,,42,0,4,,,,3,,67,0
14538,note_off,,,,,42,0,9,,,,8,,67,0
14538,note_off,,,,,42,0,13,,,,14,,64,0
14541,note_off,,,,,21,0,8,,,,7,,71,0
14544,note_on,,,,,3,0,8,,,,7,,72,127
14544,note_on,,,,,6,0,10,,,,11,,52,36
14544,note_on,,,,,6,0,11,,,,12,,40,36
14544,note_on,,,,,6,0,9,,,,8,,67,75
14544,note_on,,,,,0,0,12,,,,13,,72,36
14544,note_on,,,,,6,0,13,,,,14,,60,75
14544,note_on,,,,,6,0,12,,,,13,,67,36
14544,note_on,,,,,0,0,12,,,,13,,52,36
14565,note_off,,,,,21,0,8,,,,7,,72,0
14568,note_on,,,,,3,0,8,,,,7,,67,127
14586,note_off,,,,,42,0,11,,,,12,,40,0
14586,note_off,,,,,42,0,10,,,,11,,52,0
14586,note_off,,,,,42,0,9,,,,8,,67,0
14586,note_off,,,,,42,0,13,,,,14,,60,0
14586,note_off,,,,,42,0,12,,,,13,,67,0
14586,note_off,,,,,0,0,12,,,,13,,72,0
14586,note_off,,,,,0,0,12,,,,13,,52,0
14589,note_off,,,,,21,0,8,,,,7,,67,0
14592,note_on,,,,,0,0,12,,,,13,,48,36
14592,note_on,,,,,0,0,12,,,,13,,76,36
14592,note_on,,,,,6,0,12,,,,13,,67,36
14592,note_on,,,,,6,0,10,,,,11,,48,36
14592,note_on,,,,,6,0,9,,,,8,,64,75
14592,note_on,,,,,6,0,11,,,,12,,36,36
14592,note_on,,,,,6,0,13,,,,14,,60,75
14592,note_on,,,,,3,0,8,,,,7,,69,127
14613,note_off,,,,,21,0,8,,,,7,,69,0
14616,note_on,,,,,3,0,8,,,,7,,67,127
14634,note_off,,,,,42,0,11,,,,12,,36,0
14634,note_off,,,,,42,0,12,,,,13,,67,0
14634,note_off,,,,,42,0,10,,,,11,,48,0
14634,note_off,,,,,0,0,12,,,,13,,48,0
14634,note_off,,,,,0,0,12,,,,13,,76,0
14637,note_off,,,,,21,0,8,,,,7,,67,0
14640,note_on,,,,,3,0,8,,,,7,,69,127
14640,note_on,,,,,0,0,12,,,,13,,45,36
14640,note_on,,,,,0,0,12,,,,13,,72,36
14640,note_on,,,,,6,0,12,,,,13,,64,36
14640,note_on,,,,,6,0,11,,,,12,,33,36
14640,note_on,,,,,6,0,10,,,,11,,45,36
14661,note_off,,,,,21,0,8,,,,7,,69,0
14664,note_on,,,,,3,0,8,,,,7,,64,127
14682,note_off,,,,,90,0,13,,,,14,,60,0
14682,note_off,,,,,42,0,10,,,,11,,45,0
14682,note_off,,,,,90,0,9,,,,8,,64,0
14682,note_off,,,,,0,0,12,,,,13,,45,0
14682,note_off,,,,,42,0,11,,,,12,,33,0
14682,note_off,,,,,42,0,12,,,,13,,64,0
14682,note_off,,,,,0,0,12,,,,13,,72,0
14685,note_off,,,,,21,0,8,,,,7,,64,0
14688,note_on,,,,,3,0,8,,,,7,,65,127
14688,note_on,,,,,6,0,11,,,,12,,38,36
14688,note_on,,,,,6,0,12,,,,13,,69,36
14688,note_on,,,,,0,0,12,,,,13,,50,36
14688,note_on,,,,,0,0,12,,,,13,,77,36
14688,note_on,,,,,6,0,13,,,,14,,57,75
14688,note_on,,,,,6,0,9,,,,8,,62,75
14688,note_on,,,,,6,0,10,,,,11,,50,36
14709,note_off,,,,,21,0,8,,,,7,,65,0
14712,note_on,,,,,3,0,8,,,,7,,64,127
14730,note_off,,,,,42,0,11,,,,12,,38,0
14730,note_off,,,,,0,0,12,,,,13,,77,0
14730,note_off,,,,,42,0,10,,,,11,,50,0
14730,note_off,,,,,42,0,13,,,,14,,57,0
14730,note_off,,,,,42,0,9,,,,8,,62,0
14730,note_off,,,,,42,0,12,,,,13,,69,0
14730,note_off,,,,,0,0,12,,,,13,,50,0
14733,note_off,,,,,21,0,8,,,,7,,64,0
14736,note_on,,,,,6,0,10,,,,11,,43,36
14736,note_on,,,,,6,0,9,,,,8,,59,75
14736,note_on,,,,,6,0,12,,,,13,,62,36
14736,note_on,,,,,0,0,12,,,,13,,71,36
14736,note_on,,,,,0,0,12,,,,13,,43,36
14736,note_on,,,,,6,0,13,,,,14,,55,75
14736,note_on,,,,,6,0,11,,,,12,,31,36
14736,note_on,,,,,3,0,8,,,,7,,65,127
14757,note_off,,,,,21,0,8,,,,7,,65,0
14760,note_on,,,,,3,0,8,,,,7,,62,127
14778,note_off,,,,,42,0,13,,,,14,,55,0
14778,note_off,,,,,42,0,9,,,,8,,59,0
14778,note_off,,,,,42,0,11,,,,12,,31,0
14778,note_off,,,,,42,0,12,,,,13,,62,0
14778,note_off,,,,,0,0,12,,,,13,,71,0
14778,note_off,,,,,0,0,12,,,,13,,43,0
14778,note_off,,,,,42,0,10,,,,11,,43,0
14781,note_off,,,,,21,0,8,,,,7,,62,0
14784,note_on,,,,,6,0,10,,,,11,,48,36
14784,note_on,,,,,3,0,8,,,,7,,64,127
14784,note_on,,,,,0,0,12,,,,13,,76,36
14784,note_on,,,,,0,0,12,,,,13,,48,36
14784,note_on,,,,,6,0,11,,,,12,,36,36
14784,note_on,,,,,6,0,12,,,,13,,67,36
14784,note_on,,,,,6,0,13,,,,14,,55,75
14784,note_on,,,,,6,0,9,,,,8,,60,75
14805,note_off,,,,,21,0,8,,,,7,,64,0
14808,note_on,,,,,3,0,8,,,,7,,62,127
14826,note_off,,,,,42,0,10,,,,11,,48,0
14826,note_off,,,,,0,0,12,,,,13,,76,0
14826,note_off,,,,,0,0,12,,,,13,,48,0
14826,note_off,,,,,42,0,12,,,,13,,67,0
14826,note_off,,,,,42,0,13,,,,14,,55,0
14826,note_off,,,,,42,0,11,,,,12,,36,0
14826,note_off,,,,,42,0,9,,,,8,,60,0
14829,note_off,,,,,21,0,8,,,,7,,62,0
14832,note_on,,,,,0,0,12,,,,13,,74,36
14832,note_on,,,,,0,0,12,,,,13,,43,36
14832,note_on,,,,,6,0,11,,,,12,,31,36
14832,note_on,,,,,3,0,8,,,,7,,64,127
14832,note_on,,,,,6,0,12,,,,13,,71,36
14832,note_on,,,,,6,0,10,,,,11,,43,36
14832,note_on,,,,,6,0,9,,,,8,,59,75
14832,note_on,,,,,6,0,13,,,,14,,55,75
14853,note_off,,,,,21,0,8,,,,7,,64,0
14856,note_on,,,,,3,0,8,,,,7,,59,127
14874,note_off,,,,,0,0,12,,,,13,,43,0
14874,note_off,,,,,42,0,10,,,,11,,43,0
14874,note_off,,,,,42,0,13,,,,14,,55,0
14874,note_off,,,,,42,0,9,,,,8,,59,0
14874,note_off,,,,,42,0,11,,,,12,,31,0
14874,note_off,,,,,42,0,12,,,,13,,71,0
14874,note_off,,,,,0,0,12,,,,13,,74,0
14877,note_off,,,,,21,0,8,,,,7,,59,0
14880,note_on,,,,,3,0,8,,,,7,,60,127
14880,note_on,,,,,0,0,12,,,,13,,72,36
14880,note_on,,,,,6,0,13,,,,14,,52,75
14880,note_on,,,,,6,0,12,,,,13,,64,36
14880,note_on,,,,,0,0,12,,,,13,,45,36
14880,note_on,,,,,6,0,11,,,,12,,33,36
14880,note_on,,,,,6,0,9,,,,8,,57,75
14880,note_on,,,,,6,0,10,,,,11,,45,36
14901,note_off,,,,,21,0,8,,,,7,,60,0
14904,note_on,,,,,3,0,8,,,,7,,59,127
14922,note_off,,,,,42,0,12,,,,13,,64,0
14922,note_off,,,,,0,0,12,,,,13,,72,0
14925,note_off,,,,,21,0,8,,,,7,,59,0
14928,note_on,,,,,3,0,8,,,,7,,60,127
14928,note_on,,,,,6,0,12,,,,13,,60,36
14928,note_on,,,,,0,0,12,,,,13,,69,36
14949,note_off,,,,,69,0,10,,,,11,,45,0
14949,note_off,,,,,21,0,12,,,,13,,45,0
14949,note_off,,,,,69,0,11,,,,12,,33,0
14949,note_off,,,,,69,0,9,,,,8,,57,0
14949,note_off,,,,,21,0,8,,,,7,,60,0
14949,note_off,,,,,69,0,13,,,,14,,52,0
14952,note_on,,,,,3,0,12,,,,13,,41,36
14952,note_on,,,,,3,0,11,,,,12,,29,36
14952,note_on,,,,,3,0,13,,,,14,,57,75
14952,note_on,,,,,3,0,8,,,,7,,62,127
14952,note_on,,,,,3,0,9,,,,8,,60,75
14952,note_on,,,,,3,0,10,,,,11,,41,36
14970,note_off,,,,,0,0,12,,,,13,,69,0
14970,note_off,,,,,18,0,12,,,,13,,60,0
14973,note_off,,,,,21,0,8,,,,7,,62,0
14973,note_off,,,,,3,0,12,,,,13,,41,0
14973,note_off,,,,,21,0,9,,,,8,,60,0
14973,note_off,,,,,21,0,10,,,,11,,41,0
14973,note_off,,,,,21,0,11,,,,12,,29,0
14973,note_off,,,,,21,0,13,,,,14,,57,0
14976,note_on,,,,,3,0,9,,,,8,,59,75
14976,note_on,,,,,3,0,10,,,,11,,43,36
14976,note_on,,,,,0,0,12,,,,13,,71,36
14976,note_on,,,,,3,0,8,,,,7,,62,127
14976,note_on,,,,,3,0,11,,,,12,,31,36
14976,note_on,,,,,3,0,12,,,,13,,62,36
14976,note_on,,,,,0,0,12,,,,13,,43,36
14976,note_on,,,,,3,0,13,,,,14,,55,75
15018,note_off,,,,,42,0,13,,,,14,,55,0
15018,note_off,,,,,42,0,10,,,,11,,43,0
15018,note_off,,,,,42,0,11,,,,12,,31,0
15018,note_off,,,,,0,0,12,,,,13,,43,0
15018,note_off,,,,,0,0,12,,,,13,,71,0
15018,note_off,,,,,42,0,12,,,,13,,62,0
15024,note_on,,,,,6,0,11,,,,12,,31,36
15024,note_on,,,,,0,0,12,,,,13,,71,36
15024,note_on,,,,,6,0,13,,,,14,,53,75
15024,note_on,,,,,6,0,12,,,,13,,62,36
15024,note_on,,,,,0,0,12,,,,13,,43,36
15024,note_on,,,,,6,0,10,,,,11,,43,36
15039,note_off,,,,,63,0,9,,,,8,,59,0
15039,note_off,,,,,63,0,8,,,,7,,62,0
15048,note_on,,,,,9,0,8,,,,7,,60,127
15048,note_on,,,,,9,0,9,,,,8,,55,75
15066,note_off,,,,,0,0,12,,,,13,,43,0
15066,note_off,,,,,42,0,12,,,,13,,62,0
15066,note_off,,,,,42,0,10,,,,11,,43,0
15066,note_off,,,,,42,0,13,,,,14,,53,0
15066,note_off,,,,,0,0,12,,,,13,,71,0
15066,note_off,,,,,42,0,11,,,,12,,31,0
15069,note_off,,,,,21,0,8,,,,7,,60,0
15069,note_off,,,,,21,0,9,,,,8,,55,0
15072,note_on,,,,,6,0,10,,,,11,,48,36
15072,note_on,,,,,3,0,8,,,,7,,60,127
15072,note_on,,,,,3,0,9,,,,8,,55,75
15072,note_on,,,,,6,0,11,,,,12,,36,36
15072,note_on,,,,,6,0,13,,,,14,,52,75
15072,note_on,,,,,6,0,12,,,,13,,67,36
15072,note_on,,,,,0,0,12,,,,13,,76,36
15072,note_on,,,,,0,0,12,,,,13,,48,36
15093,note_off,,,,,21,0,10,,,,11,,48,0
15093,note_off,,,,,21,0,12,,,,13,,48,0
15093,note_off,,,,,21,0,11,,,,12,,36,0
15096,note_on,,,,,3,0,12,,,,13,,50,36
15096,note_on,,,,,3,0,11,,,,12,,38,36
15096,note_on,,,,,3,0,10,,,,11,,50,36
15114,note_off,,,,,42,0,8,,,,7,,60,0
15114,note_off,,,,,42,0,9,,,,8,,55,0
15114,note_off,,,,,18,0,12,,,,13,,67,0
15114,note_off,,,,,42,0,13,,,,14,,52,0
15114,note_off,,,,,0,0,12,,,,13,,76,0
15117,note_off,,,,,21,0,11,,,,12,,38,0
15117,note_off,,,,,3,0,12,,,,13,,50,0
15117,note_off,,,,,21,0,10,,,,11,,50,0
15120,note_on,,,,,3,0,11,,,,12,,40,36
15120,note_on,,,,,3,0,10,,,,11,,52,36
15120,note_on,,,,,3564,0,7,,,,6,,67,96
15120,note_on,,,,,0,0,12,,,,13,,79,36
15120,note_on,,,,,3,0,12,,,,13,,72,36
15120,note_on,,,,,0,0,12,,,,13,,52,36
15141,note_off,,,,,21,0,11,,,,12,,40,0
15141,note_off,,,,,21,0,10,,,,11,,52,0
15141,note_off,,,,,21,0,12,,,,13,,52,0
15144,note_on,,,,,3,0,12,,,,13,,50,36
15144,note_on,,,,,3,0,11,,,,12,,38,36
15144,note_on,,,,,3,0,10,,,,11,,50,36
15162,note_off,,,,,0,0,12,,,,13,,79,0
15162,note_off,,,,,18,0,12,,,,13,,72,0
15162,note_off,,,,,42,0,7,,,,6,,67,0
15165,note_off,,,,,21,0,11,,,,12,,38,0
15165,note_off,,,,,21,0,10,,,,11,,50,0
15165,note_off,,,,,3,0,12,,,,13,,50,0
15168,note_on,,,,,0,0,12,,,,13,,52,36
15168,note_on,,,,,0,0,12,,,,13,,72,36
15168,note_on,,,,,3,0,12,,,,13,,67,36
15168,note_on,,,,,3,0,10,,,,11,,52,36
15168,note_on,,,,,3,0,11,,,,12,,40,36
15168,note_on,,,,,6,0,7,,,,6,,69,96
15189,note_off,,,,,21,0,10,,,,11,,52,0
15189,note_off,,,,,21,0,11,,,,12,,40,0
15189,note_off,,,,,21,0,12,,,,13,,52,0
15189,note_off,,,,,21,0,7,,,,6,,69,0
15192,note_on,,,,,3,0,7,,,,6,,70,96
15192,note_on,,,,,3,0,11,,,,12,,36,36
15192,note_on,,,,,3,0,10,,,,11,,48,36
15192,note_on,,,,,3,0,12,,,,13,,48,36
15202,note_off,,,,,10,0,7,,,,6,,70,0
15204,note_on,,,,,2,0,7,,,,6,,72,96
15210,note_off,,,,,18,0,12,,,,13,,67,0
15210,note_off,,,,,0,0,12,,,,13,,72,0
15213,note_off,,,,,21,0,10,,,,11,,48,0
15213,note_off,,,,,21,0,11,,,,12,,36,0
15213,note_off,,,,,3,0,12,,,,13,,48,0
15214,note_off,,,,,10,0,7,,,,6,,72,0
15216,note_on,,,,,3,0,11,,,,12,,41,36
15216,note_on,,,,,3,0,10,,,,11,,53,36
15216,note_on,,,,,0,0,12,,,,13,,81,36
15216,note_on,,,,,3,0,12,,,,13,,72,36
15216,note_on,,,,,2,0,7,,,,6,,70,96
15216,note_on,,,,,0,0,12,,,,13,,53,36
15226,note_off,,,,,10,0,7,,,,6,,70,0
15228,note_on,,,,,2,0,7,,,,6,,69,96
15237,note_off,,,,,21,0,12,,,,13,,53,0
15237,note_off,,,,,21,0,11,,,,12,,41,0
15237,note_off,,,,,21,0,10,,,,11,,53,0
15238,note_off,,,,,10,0,7,,,,6,,69,0
15240,note_on,,,,,3,0,12,,,,13,,55,36
15240,note_on,,,,,3,0,11,,,,12,,43,36
15240,note_on,,,,,3,0,10,,,,11,,55,36
15240,note_on,,,,,2,0,7,,,,6,,70,96
15250,note_off,,,,,10,0,7,,,,6,,70,0
15252,note_on,,,,,2,0,7,,,,6,,69,96
15258,note_off,,,,,0,0,12,,,,13,,81,0
15258,note_off,,,,,18,0,12,,,,13,,72,0
15261,note_off,,,,,21,0,10,,,,11,,55,0
15261,note_off,,,,,21,0,11,,,,12,,43,0
15261,note_off,,,,,3,0,12,,,,13,,55,0
15262,note_off,,,,,10,0,7,,,,6,,69,0
15264,note_on,,,,,0,0,12,,,,13,,57,36
15264,note_on,,,,,726,0,4,,,,3,,72,62
15264,note_on,,,,,0,0,12,,,,13,,77,36
15264,note_on,,,,,726,0,5,,,,4,,65,62
15264,note_on,,,,,726,0,3,,,,2,,77,62
15264,note_on,,,,,3,0,10,,,,11,,57,36
15264,note_on,,,,,3,0,11,,,,12,,45,36
15264,note_on,,,,,2,0,7,,,,6,,67,96
15264,note_on,,,,,726,0,6,,,,5,,57,62
15264,note_on,,,,,3,0,12,,,,13,,72,36
15285,note_off,,,,,21,0,7,,,,6,,67,0
15285,note_off,,,,,21,0,4,,,,3,,72,0
15285,note_off,,,,,21,0,3,,,,2,,77,0
15285,note_off,,,,,21,0,6,,,,5,,57,0
15285,note_off,,,,,21,0,11,,,,12,,45,0
15285,note_off,,,,,21,0,10,,,,11,,57,0
15285,note_off,,,,,21,0,12,,,,13,,57,0
15288,note_on,,,,,3,0,12,,,,13,,55,36
15288,note_on,,,,,3,0,11,,,,12,,43,36
15288,note_on,,,,,3,0,3,,,,2,,76,62
15288,note_on,,,,,3,0,10,,,,11,,55,36
15288,note_on,,,,,3,0,7,,,,6,,65,96
15288,note_on,,,,,3,0,6,,,,5,,55,62
15288,note_on,,,,,3,0,4,,,,3,,70,62
15306,note_off,,,,,42,0,5,,,,4,,65,0
15306,note_off,,,,,18,0,12,,,,13,,72,0
15306,note_off,,,,,0,0,12,,,,13,,77,0
15309,note_off,,,,,21,0,4,,,,3,,70,0
15309,note_off,,,,,21,0,6,,,,5,,55,0
15309,note_off,,,,,21,0,7,,,,6,,65,0
15309,note_off,,,,,21,0,3,,,,2,,76,0
15309,note_off,,,,,3,0,12,,,,13,,55,0
15309,note_off,,,,,21,0,10,,,,11,,55,0
15309,note_off,,,,,21,0,11,,,,12,,43,0
15312,note_on,,,,,3,0,6,,,,5,,57,62
15312,note_on,,,,,3,0,10,,,,11,,57,36
15312,note_on,,,,,0,0,12,,,,13,,72,36
15312,note_on,,,,,3,0,3,,,,2,,77,62
15312,note_on,,,,,3,0,11,,,,12,,45,36
15312,note_on,,,,,6,0,5,,,,4,,65,62
15312,note_on,,,,,0,0,12,,,,13,,57,36
15312,note_on,,,,,3,0,7,,,,6,,77,96
15312,note_on,,,,,3,0,4,,,,3,,72,62
15312,note_on,,,,,3,0,12,,,,13,,65,36
15333,note_off,,,,,21,0,10,,,,11,,57,0
15333,note_off,,,,,21,0,4,,,,3,,72,0
15333,note_off,,,,,21,0,3,,,,2,,77,0
15333,note_off,,,,,21,0,11,,,,12,,45,0
15333,note_off,,,,,21,0,6,,,,5,,57,0
15333,note_off,,,,,21,0,12,,,,13,,57,0
15336,note_on,,,,,3,0,11,,,,12,,41,36
15336,note_on,,,,,3,0,3,,,,2,,72,62
15336,note_on,,,,,3,0,6,,,,5,,53,62
15336,note_on,,,,,3,0,12,,,,13,,53,36
15336,note_on,,,,,3,0,10,,,,11,,53,36
15336,note_on,,,,,3,0,4,,,,3,,69,62
15354,note_off,,,,,18,0,12,,,,13,,65,0
15354,note_off,,,,,42,0,5,,,,4,,65,0
15354,note_off,,,,,0,0,12,,,,13,,72,0
15357,note_off,,,,,21,0,3,,,,2,,72,0
15357,note_off,,,,,21,0,6,,,,5,,53,0
15357,note_off,,,,,21,0,4,,,,3,,69,0
15357,note_off,,,,,21,0,11,,,,12,,41,0
15357,note_off,,,,,21,0,10,,,,11,,53,0
15357,note_off,,,,,3,0,12,,,,13,,53,0
15360,note_on,,,,,3,0,6,,,,5,,58,62
15360,note_on,,,,,3,0,3,,,,2,,74,62
15360,note_on,,,,,3,0,11,,,,12,,46,36
15360,note_on,,,,,3,0,4,,,,3,,70,62
15360,note_on,,,,,3,0,10,,,,11,,58,36
15360,note_on,,,,,6,0,5,,,,4,,65,62
15360,note_on,,,,,3,0,12,,,,13,,65,36
15360,note_on,,,,,0,0,12,,,,13,,74,36
15360,note_on,,,,,0,0,12,,,,13,,58,36
15381,note_off,,,,,21,0,12,,,,13,,58,0
15381,note_off,,,,,69,0,7,,,,6,,77,0
15381,note_off,,,,,21,0,11,,,,12,,46,0
15381,note_off,,,,,21,0,10,,,,11,,58,0
15384,note_on,,,,,3,0,10,,,,11,,57,36
15384,note_on,,,,,3,0,12,,,,13,,57,36
15384,note_on,,,,,3,0,7,,,,6,,79,96
15384,note_on,,,,,3,0,11,,,,12,,45,36
15394,note_off,,,,,10,0,7,,,,6,,79,0
15396,note_on,,,,,2,0,7,,,,6,,77,96
15402,note_off,,,,,42,0,3,,,,2,,74,0
15402,note_off,,,,,42,0,4,,,,3,,70,0
15402,note_off,,,,,42,0,5,,,,4,,65,0
15402,note_off,,,,,42,0,6,,,,5,,58,0
15402,note_off,,,,,18,0,12,,,,13,,65,0
15402,note_off,,,,,0,0,12,,,,13,,74,0
15405,note_off,,,,,21,0,11,,,,12,,45,0
15405,note_off,,,,,21,0,10,,,,11,,57,0
15405,note_off,,,,,3,0,12,,,,13,,57,0
15406,note_off,,,,,10,0,7,,,,6,,77,0
15408,note_on,,,,,3,0,10,,,,11,,55,36
15408,note_on,,,,,2,0,7,,,,6,,76,96
15408,note_on,,,,,3,0,11,,,,12,,43,36
15408,note_on,,,,,3,0,12,,,,13,,55,36
15418,note_off,,,,,10,0,7,,,,6,,76,0
15420,note_on,,,,,2,0,7,,,,6,,77,96
15429,note_off,,,,,21,0,12,,,,13,,55,0
15429,note_off,,,,,21,0,10,,,,11,,55,0
15429,note_off,,,,,21,0,11,,,,12,,43,0
15430,note_off,,,,,10,0,7,,,,6,,77,0
15432,note_on,,,,,3,0,12,,,,13,,57,36
15432,note_on,,,,,2,0,7,,,,6,,79,96
15432,note_on,,,,,3,0,10,,,,11,,57,36
15432,note_on,,,,,3,0,11,,,,12,,45,36
15453,note_off,,,,,21,0,11,,,,12,,45,0
15453,note_off,,,,,21,0,12,,,,13,,57,0
15453,note_off,,,,,21,0,7,,,,6,,79,0
15453,note_off,,,,,21,0,10,,,,11,,57,0
15456,note_on,,,,,3,0,10,,,,11,,58,36
15456,note_on,,,,,3,0,12,,,,13,,58,36
15456,note_on,,,,,3,0,11,,,,12,,46,36
15456,note_on,,,,,3,0,7,,,,6,,77,96
15477,note_off,,,,,21,0,11,,,,12,,46,0
15477,note_off,,,,,21,0,10,,,,11,,58,0
15477,note_off,,,,,21,0,7,,,,6,,77,0
15477,note_off,,,,,21,0,12,,,,13,,58,0
15480,note_on,,,,,3,0,11,,,,12,,43,36
15480,note_on,,,,,3,0,7,,,,6,,76,96
15480,note_on,,,,,3,0,12,,,,13,,55,36
15480,note_on,,,,,3,0,10,,,,11,,55,36
15501,note_off,,,,,21,0,12,,,,13,,55,0
15501,note_off,,,,,21,0,7,,,,6,,76,0
15501,note_off,,,,,21,0,11,,,,12,,43,0
15501,note_off,,,,,21,0,10,,,,11,,55,0
15504,note_on,,,,,3,0,11,,,,12,,45,36
15504,note_on,,,,,3,0,12,,,,13,,57,36
15504,note_on,,,,,3,0,10,,,,11,,57,36
15504,note_on,,,,,3,0,7,,,,6,,74,96
15514,note_off,,,,,10,0,7,,,,6,,74,0
15516,note_on,,,,,2,0,7,,,,6,,73,96
15525,note_off,,,,,21,0,11,,,,12,,45,0
15525,note_off,,,,,21,0,12,,,,13,,57,0
15525,note_off,,,,,21,0,10,,,,11,,57,0
15526,note_off,,,,,10,0,7,,,,6,,73,0
15528,note_on,,,,,2,0,7,,,,6,,74,96
15528,note_on,,,,,3,0,10,,,,11,,59,36
15528,note_on,,,,,3,0,11,,,,12,,47,36
15528,note_on,,,,,3,0,12,,,,13,,59,36
15538,note_off,,,,,10,0,7,,,,6,,74,0
15540,note_on,,,,,2,0,7,,,,6,,73,96
15549,note_off,,,,,21,0,10,,,,11,,59,0
15549,note_off,,,,,21,0,12,,,,13,,59,0
15549,note_off,,,,,21,0,11,,,,12,,47,0
15550,note_off,,,,,10,0,7,,,,6,,73,0
15552,note_on,,,,,438,0,13,,,,14,,69,75
15552,note_on,,,,,3,0,10,,,,11,,61,36
15552,note_on,,,,,2,0,7,,,,6,,74,96
15552,note_on,,,,,4614,0,1,,,,0,,57,127
15552,note_on,,,,,4614,0,2,,,,1,,57,127
15552,note_on,,,,,438,0,9,,,,8,,76,75
15552,note_on,,,,,3,0,12,,,,13,,65,36
15552,note_on,,,,,0,0,12,,,,13,,72,36
15552,note_on,,,,,0,0,12,,,,13,,61,36
15552,note_on,,,,,3,0,11,,,,12,,49,36
15552,note_on,,,,,438,0,8,,,,7,,81,75
15562,note_off,,,,,10,0,7,,,,6,,74,0
15564,note_on,,,,,2,0,7,,,,6,,73,96
15573,note_off,,,,,21,0,2,,,,1,,57,0
15573,note_off,,,,,21,0,8,,,,7,,81,0
15573,note_off,,,,,21,0,12,,,,13,,61,0
15573,note_off,,,,,21,0,11,,,,12,,49,0
15573,note_off,,,,,21,0,10,,,,11,,61,0
15573,note_off,,,,,21,0,9,,,,8,,76,0
15573,note_off,,,,,21,0,1,,,,0,,57,0
15574,note_off,,,,,10,0,7,,,,6,,73,0
15576,note_on,,,,,2,0,7,,,,6,,71,96
15576,note_on,,,,,3,0,9,,,,8,,74,75
15576,note_on,,,,,3,0,8,,,,7,,79,75
15576,note_on,,,,,3,0,10,,,,11,,59,36
15576,note_on,,,,,3,0,11,,,,12,,47,36
15576,note_on,,,,,3,0,12,,,,13,,59,36
15576,note_on,,,,,3,0,1,,,,0,,57,127
15576,note_on,,,,,3,0,2,,,,1,,57,127
15594,note_off,,,,,42,0,13,,,,14,,69,0
15594,note_off,,,,,0,0,12,,,,13,,72,0
15594,note_off,,,,,18,0,12,,,,13,,65,0
15597,note_off,,,,,21,0,2,,,,1,,57,0
15597,note_off,,,,,21,0,8,,,,7,,79,0
15597,note_off,,,,,21,0,7,,,,6,,71,0
15597,note_off,,,,,21,0,9,,,,8,,74,0
15597,note_off,,,,,21,0,1,,,,0,,57,0
15597,note_off,,,,,21,0,10,,,,11,,59,0
15597,note_off,,,,,3,0,12,,,,13,,59,0
15597,note_off,,,,,21,0,11,,,,12,,47,0
15600,note_on,,,,,3,0,12,,,,13,,65,36
15600,note_on,,,,,3,0,8,,,,7,,81,75
15600,note_on,,,,,0,0,12,,,,13,,61,36
15600,note_on,,,,,0,0,12,,,,13,,72,36
15600,note_on,,,,,3,0,2,,,,1,,57,127
15600,note_on,,,,,6,0,13,,,,14,,69,75
15600,note_on,,,,,3,0,7,,,,6,,69,96
15600,note_on,,,,,3,0,9,,,,8,,76,75
15600,note_on,,,,,3,0,1,,,,0,,57,127
15600,note_on,,,,,198,0,3,,,,2,,81,62
15600,note_on,,,,,3,0,11,,,,12,,49,36
15600,note_on,,,,,3,0,10,,,,11,,61,36
15621,note_off,,,,,21,0,8,,,,7,,81,0
15621,note_off,,,,,21,0,10,,,,11,,61,0
15621,note_off,,,,,21,0,12,,,,13,,61,0
15621,note_off,,,,,21,0,9,,,,8,,76,0
15621,note_off,,,,,21,0,11,,,,12,,49,0
15621,note_off,,,,,21,0,2,,,,1,,57,0
15621,note_off,,,,,21,0,1,,,,0,,57,0
15624,note_on,,,,,3,0,12,,,,13,,57,36
15624,note_on,,,,,3,0,11,,,,12,,45,36
15624,note_on,,,,,3,0,9,,,,8,,73,75
15624,note_on,,,,,3,0,2,,,,1,,57,127
15624,note_on,,,,,3,0,8,,,,7,,76,75
15624,note_on,,,,,3,0,10,,,,11,,57,36
15624,note_on,,,,,3,0,1,,,,0,,57,127
15642,note_off,,,,,42,0,7,,,,6,,69,0
15642,note_off,,,,,18,0,12,,,,13,,65,0
15642,note_off,,,,,0,0,12,,,,13,,72,0
15642,note_off,,,,,42,0,13,,,,14,,69,0
15645,note_off,,,,,21,0,10,,,,11,,57,0
15645,note_off,,,,,21,0,8,,,,7,,76,0
15645,note_off,,,,,21,0,11,,,,12,,45,0
15645,note_off,,,,,3,0,12,,,,13,,57,0
15645,note_off,,,,,21,0,1,,,,0,,57,0
15645,note_off,,,,,21,0,2,,,,1,,57,0
15645,note_off,,,,,21,0,9,,,,8,,73,0
15648,note_on,,,,,3,0,1,,,,0,,57,127
15648,note_on,,,,,3,0,11,,,,12,,50,36
15648,note_on,,,,,3,0,8,,,,7,,77,75
15648,note_on,,,,,3,0,9,,,,8,,74,75
15648,note_on,,,,,3,0,10,,,,11,,62,36
15648,note_on,,,,,3,0,2,,,,1,,57,127
15648,note_on,,,,,0,0,12,,,,13,,62,36
15648,note_on,,,,,0,0,12,,,,13,,81,36
15648,note_on,,,,,3,0,12,,,,13,,65,36
15648,note_on,,,,,6,0,13,,,,14,,69,75
15690,note_off,,,,,0,0,12,,,,13,,62,0
15690,note_off,,,,,42,0,2,,,,1,,57,0
15690,note_off,,,,,42,0,1,,,,0,,57,0
15690,note_off,,,,,0,0,12,,,,13,,81,0
15690,note_off,,,,,42,0,12,,,,13,,65,0
15690,note_off,,,,,42,0,13,,,,14,,69,0
15690,note_off,,,,,42,0,11,,,,12,,50,0
15690,note_off,,,,,42,0,9,,,,8,,74,0
15690,note_off,,,,,90,0,3,,,,2,,81,0
15690,note_off,,,,,42,0,10,,,,11,,62,0
15690,note_off,,,,,42,0,8,,,,7,,77,0
15696,note_on,,,,,6,0,11,,,,12,,38,36
15696,note_on,,,,,54,0,7,,,,6,,77,96
15696,note_on,,,,,6,0,12,,,,13,,50,36
15696,note_on,,,,,6,0,3,,,,2,,83,62
15696,note_on,,,,,6,0,10,,,,11,,50,36
15717,note_off,,,,,21,0,7,,,,6,,77,0
15720,note_on,,,,,3,0,7,,,,6,,76,96
15738,note_off,,,,,42,0,10,,,,11,,50,0
15738,note_off,,,,,42,0,3,,,,2,,83,0
15738,note_off,,,,,42,0,12,,,,13,,50,0
15738,note_off,,,,,42,0,11,,,,12,,38,0
15741,note_off,,,,,21,0,7,,,,6,,76,0
15744,note_on,,,,,6,0,11,,,,12,,40,36
15744,note_on,,,,,6,0,12,,,,13,,52,36
15744,note_on,,,,,6,0,10,,,,11,,52,36
15744,note_on,,,,,6,0,3,,,,2,,81,62
15744,note_on,,,,,3,0,7,,,,6,,76,96
15754,note_off,,,,,10,0,3,,,,2,,81,0
15756,note_on,,,,,2,0,3,,,,2,,80,62
15765,note_off,,,,,21,0,7,,,,6,,76,0
15766,note_off,,,,,10,0,3,,,,2,,80,0
15768,note_on,,,,,3,0,7,,,,6,,74,96
15768,note_on,,,,,2,0,3,,,,2,,81,62
15778,note_off,,,,,10,0,3,,,,2,,81,0
15780,note_on,,,,,2,0,3,,,,2,,80,62
15786,note_off,,,,,42,0,12,,,,13,,52,0
15786,note_off,,,,,42,0,10,,,,11,,52,0
15786,note_off,,,,,42,0,11,,,,12,,40,0
15789,note_off,,,,,21,0,7,,,,6,,74,0
15790,note_off,,,,,10,0,3,,,,2,,80,0
15792,note_on,,,,,2,0,3,,,,2,,81,62
15792,note_on,,,,,3,0,7,,,,6,,74,96
15792,note_on,,,,,6,0,10,,,,11,,53,36
15792,note_on,,,,,6,0,12,,,,13,,53,36
15792,note_on,,,,,6,0,11,,,,12,,41,36
15802,note_off,,,,,10,0,3,,,,2,,81,0
15804,note_on,,,,,2,0,3,,,,2,,80,62
15813,note_off,,,,,21,0,7,,,,6,,74,0
15814,note_off,,,,,10,0,3,,,,2,,80,0
15816,note_on,,,,,3,0,7,,,,6,,72,96
15816,note_on,,,,,2,0,3,,,,2,,83,62
15834,note_off,,,,,42,0,11,,,,12,,41,0
15834,note_off,,,,,42,0,10,,,,11,,53,0
15834,note_off,,,,,42,0,12,,,,13,,53,0
15837,note_off,,,,,21,0,7,,,,6,,72,0
15837,note_off,,,,,21,0,3,,,,2,,83,0
15840,note_on,,,,,3,0,3,,,,2,,81,62
15840,note_on,,,,,3,0,7,,,,6,,72,96
15840,note_on,,,,,6,0,10,,,,11,,52,36
15840,note_on,,,,,6,0,11,,,,12,,40,36
15840,note_on,,,,,6,0,12,,,,13,,52,36
15861,note_off,,,,,21,0,3,,,,2,,81,0
15861,note_off,,,,,21,0,7,,,,6,,72,0
15864,note_on,,,,,3,0,3,,,,2,,80,62
15864,note_on,,,,,3,0,7,,,,6,,71,96
15882,note_off,,,,,42,0,11,,,,12,,40,0
15882,note_off,,,,,42,0,10,,,,11,,52,0
15882,note_off,,,,,42,0,12,,,,13,,52,0
15885,note_off,,,,,21,0,7,,,,6,,71,0
15885,note_off,,,,,21,0,3,,,,2,,80,0
15888,note_on,,,,,6,0,10,,,,11,,50,36
15888,note_on,,,,,6,0,12,,,,13,,50,36
15888,note_on,,,,,6,0,11,,,,12,,38,36
15888,note_on,,,,,3,0,3,,,,2,,81,62
15888,note_on,,,,,3,0,7,,,,6,,71,96
15909,note_off,,,,,21,0,7,,,,6,,71,0
15909,note_off,,,,,21,0,3,,,,2,,81,0
15912,note_on,,,,,3,0,3,,,,2,,83,62
15912,note_on,,,,,3,0,7,,,,6,,76,96
15930,note_off,,,,,42,0,10,,,,11,,50,0
15930,note_off,,,,,42,0,12,,,,13,,50,0
15930,note_off,,,,,42,0,11,,,,12,,38,0
15933,note_off,,,,,21,0,7,,,,6,,76,0
15933,note_off,,,,,21,0,3,,,,2,,83,0
15936,note_on,,,,,3,0,7,,,,6,,76,96
15936,note_on,,,,,3,0,3,,,,2,,76,62
15936,note_on,,,,,6,0,11,,,,12,,36,36
15936,note_on,,,,,6,0,10,,,,11,,48,36
15936,note_on,,,,,6,0,12,,,,13,,48,36
15957,note_off,,,,,21,0,7,,,,6,,76,0
15960,note_on,,,,,3,0,7,,,,6,,74,96
15978,note_off,,,,,42,0,11,,,,12,,36,0
15978,note_off,,,,,42,0,10,,,,11,,48,0
15978,note_off,,,,,42,0,12,,,,13,,48,0
15981,note_off,,,,,21,0,7,,,,6,,74,0
15984,note_on,,,,,6,0,10,,,,11,,60,36
15984,note_on,,,,,3,0,7,,,,6,,74,96
15984,note_on,,,,,6,0,11,,,,12,,48,36
15984,note_on,,,,,6,0,12,,,,13,,60,36
16005,note_off,,,,,21,0,7,,,,6,,74,0
16008,note_on,,,,,3,0,7,,,,6,,71,96
16026,note_off,,,,,42,0,10,,,,11,,60,0
16026,note_off,,,,,42,0,11,,,,12,,48,0
16026,note_off,,,,,42,0,12,,,,13,,60,0
16029,note_off,,,,,21,0,7,,,,6,,71,0
16032,note_on,,,,,3,0,7,,,,6,,72,96
16032,note_on,,,,,6,0,10,,,,11,,62,36
16032,note_on,,,,,6,0,11,,,,12,,50,36
16032,note_on,,,,,6,0,12,,,,13,,62,36
16053,note_off,,,,,21,0,7,,,,6,,72,0
16056,note_on,,,,,3,0,7,,,,6,,69,96
16074,note_off,,,,,42,0,10,,,,11,,62,0
16074,note_off,,,,,42,0,12,,,,13,,62,0
16074,note_off,,,,,42,0,11,,,,12,,50,0
16077,note_off,,,,,21,0,7,,,,6,,69,0
16080,note_on,,,,,6,0,12,,,,13,,64,36
16080,note_on,,,,,6,0,11,,,,12,,52,36
16080,note_on,,,,,3,0,7,,,,6,,68,96
16080,note_on,,,,,6,0,10,,,,11,,64,36
16122,note_off,,,,,42,0,12,,,,13,,64,0
16122,note_off,,,,,42,0,11,,,,12,,52,0
16122,note_off,,,,,42,0,10,,,,11,,64,0
16122,note_off,,,,,42,0,7,,,,6,,68,0
16122,note_off,,,,,186,0,3,,,,2,,76,0
16128,note_on,,,,,6,0,10,,,,11,,62,36
16128,note_on,,,,,6,0,7,,,,6,,71,96
16128,note_on,,,,,6,0,12,,,,13,,62,36
16128,note_on,,,,,6,0,3,,,,2,,69,62
16128,note_on,,,,,6,0,11,,,,12,,50,36
16138,note_off,,,,,10,0,3,,,,2,,69,0
16140,note_on,,,,,2,0,3,,,,2,,68,62
16149,note_off,,,,,21,0,11,,,,12,,50,0
16149,note_off,,,,,21,0,7,,,,6,,71,0
16149,note_off,,,,,21,0,12,,,,13,,62,0
16149,note_off,,,,,21,0,10,,,,11,,62,0
16150,note_off,,,,,10,0,3,,,,2,,68,0
16152,note_on,,,,,3,0,12,,,,13,,60,36
16152,note_on,,,,,3,0,7,,,,6,,72,96
16152,note_on,,,,,2,0,3,,,,2,,69,62
16152,note_on,,,,,3,0,11,,,,12,,48,36
16152,note_on,,,,,3,0,10,,,,11,,60,36
16162,note_off,,,,,10,0,3,,,,2,,69,0
16164,note_on,,,,,2,0,3,,,,2,,68,62
16173,note_off,,,,,21,0,12,,,,13,,60,0
16173,note_off,,,,,21,0,10,,,,11,,60,0
16173,note_off,,,,,21,0,7,,,,6,,72,0
16173,note_off,,,,,21,0,11,,,,12,,48,0
16174,note_off,,,,,10,0,3,,,,2,,68,0
16176,note_on,,,,,2,0,3,,,,2,,69,62
16176,note_on,,,,,3,0,12,,,,13,,59,36
16176,note_on,,,,,3,0,10,,,,11,,59,36
16176,note_on,,,,,3,0,11,,,,12,,47,36
16176,note_on,,,,,3,0,7,,,,6,,74,96
16186,note_off,,,,,10,0,7,,,,6,,74,0
16188,note_on,,,,,2,0,7,,,,6,,72,96
16197,note_off,,,,,21,0,12,,,,13,,59,0
16197,note_off,,,,,21,0,10,,,,11,,59,0
16197,note_off,,,,,21,0,11,,,,12,,47,0
16198,note_off,,,,,10,0,7,,,,6,,72,0
16200,note_on,,,,,3,0,11,,,,12,,43,36
16200,note_on,,,,,3,0,12,,,,13,,55,36
16200,note_on,,,,,2,0,7,,,,6,,74,96
16200,note_on,,,,,3,0,10,,,,11,,57,36
16210,note_off,,,,,10,0,7,,,,6,,74,0
16212,note_on,,,,,2,0,7,,,,6,,72,96
16218,note_off,,,,,42,0,3,,,,2,,69,0
16221,note_off,,,,,21,0,12,,,,13,,55,0
16221,note_off,,,,,21,0,11,,,,12,,43,0
16221,note_off,,,,,21,0,10,,,,11,,57,0
16222,note_off,,,,,10,0,7,,,,6,,72,0
16224,note_on,,,,,3,0,10,,,,11,,56,36
16224,note_on,,,,,2,0,7,,,,6,,74,96
16224,note_on,,,,,3,0,11,,,,12,,44,36
16224,note_on,,,,,3,0,12,,,,13,,56,36
16224,note_on,,,,,6,0,3,,,,2,,71,62
16245,note_off,,,,,21,0,3,,,,2,,71,0
16248,note_on,,,,,3,0,3,,,,2,,72,62
16266,note_off,,,,,42,0,12,,,,13,,56,0
16266,note_off,,,,,42,0,11,,,,12,,44,0
16266,note_off,,,,,42,0,10,,,,11,,56,0
16269,note_off,,,,,21,0,3,,,,2,,72,0
16272,note_on,,,,,3,0,3,,,,2,,71,62
16272,note_on,,,,,6,0,11,,,,12,,40,36
16272,note_on,,,,,6,0,10,,,,11,,52,36
16272,note_on,,,,,6,0,12,,,,13,,52,36
16287,note_off,,,,,63,0,7,,,,6,,74,0
16293,note_off,,,,,21,0,3,,,,2,,71,0
16296,note_on,,,,,3,0,3,,,,2,,68,62
16296,note_on,,,,,9,0,7,,,,6,,76,96
16306,note_off,,,,,10,0,7,,,,6,,76,0
16308,note_on,,,,,2,0,7,,,,6,,77,96
16314,note_off,,,,,42,0,10,,,,11,,52,0
16314,note_off,,,,,42,0,11,,,,12,,40,0
16314,note_off,,,,,42,0,12,,,,13,,52,0
16317,note_off,,,,,21,0,3,,,,2,,68,0
16318,note_off,,,,,10,0,7,,,,6,,77,0
16320,note_on,,,,,6,0,12,,,,13,,56,36
16320,note_on,,,,,2,0,7,,,,6,,76,96
16320,note_on,,,,,3,0,3,,,,2,,69,62
16320,note_on,,,,,6,0,10,,,,11,,56,36
16320,note_on,,,,,6,0,11,,,,12,,44,36
16341,note_off,,,,,21,0,3,,,,2,,69,0
16341,note_off,,,,,21,0,7,,,,6,,76,0
16344,note_on,,,,,3,0,3,,,,2,,71,62
16344,note_on,,,,,3,0,7,,,,6,,74,96
16362,note_off,,,,,42,0,11,,,,12,,44,0
16362,note_off,,,,,42,0,10,,,,11,,56,0
16362,note_off,,,,,42,0,12,,,,13,,56,0
16365,note_off,,,,,21,0,7,,,,6,,74,0
16365,note_off,,,,,21,0,3,,,,2,,71,0
16368,note_on,,,,,6,0,12,,,,13,,57,36
16368,note_on,,,,,6,0,10,,,,11,,57,36
16368,note_on,,,,,3,0,7,,,,6,,72,96
16368,note_on,,,,,3,0,3,,,,2,,64,62
16368,note_on,,,,,6,0,11,,,,12,,45,36
16389,note_off,,,,,21,0,7,,,,6,,72,0
16392,note_on,,,,,3,0,7,,,,6,,71,96
16410,note_off,,,,,42,0,11,,,,12,,45,0
16410,note_off,,,,,42,0,12,,,,13,,57,0
16410,note_off,,,,,42,0,3,,,,2,,64,0
16410,note_off,,,,,42,0,10,,,,11,,57,0
16413,note_off,,,,,21,0,7,,,,6,,71,0
16416,note_on,,,,,6,0,10,,,,11,,45,36
16416,note_on,,,,,6,0,11,,,,12,,33,36
16416,note_on,,,,,6,0,12,,,,13,,45,36
16416,note_on,,,,,6,0,3,,,,2,,76,62
16416,note_on,,,,,3,0,7,,,,6,,74,96
16437,note_off,,,,,21,0,7,,,,6,,74,0
16440,note_on,,,,,3,0,7,,,,6,,72,96
16458,note_off,,,,,42,0,12,,,,13,,45,0
16458,note_off,,,,,42,0,11,,,,12,,33,0
16458,note_off,,,,,42,0,10,,,,11,,45,0
16461,note_off,,,,,21,0,7,,,,6,,72,0
16464,note_on,,,,,6,0,12,,,,13,,48,36
16464,note_on,,,,,6,0,11,,,,12,,36,36
16464,note_on,,,,,3,0,7,,,,6,,71,96
16464,note_on,,,,,6,0,10,,,,11,,48,36
16485,note_off,,,,,21,0,7,,,,6,,71,0
16488,note_on,,,,,3,0,7,,,,6,,69,96
16506,note_off,,,,,42,0,11,,,,12,,36,0
16506,note_off,,,,,42,0,12,,,,13,,48,0
16506,note_off,,,,,42,0,10,,,,11,,48,0
16509,note_off,,,,,21,0,7,,,,6,,69,0
16512,note_on,,,,,3,0,7,,,,6,,77,96
16512,note_on,,,,,6,0,10,,,,11,,50,36
16512,note_on,,,,,6,0,12,,,,13,,50,36
16512,note_on,,,,,6,0,11,,,,12,,38,36
16533,note_off,,,,,21,0,12,,,,13,,50,0
16533,note_off,,,,,21,0,7,,,,6,,77,0
16533,note_off,,,,,21,0,10,,,,11,,50,0
16533,note_off,,,,,21,0,11,,,,12,,38,0
16536,note_on,,,,,3,0,11,,,,12,,40,36
16536,note_on,,,,,3,0,7,,,,6,,69,96
16536,note_on,,,,,3,0,10,,,,11,,52,36
16536,note_on,,,,,3,0,12,,,,13,,52,36
16554,note_off,,,,,138,0,3,,,,2,,76,0
16557,note_off,,,,,21,0,7,,,,6,,69,0
16557,note_off,,,,,21,0,12,,,,13,,52,0
16557,note_off,,,,,21,0,10,,,,11,,52,0
16557,note_off,,,,,21,0,11,,,,12,,40,0
16560,note_on,,,,,3,0,11,,,,12,,41,36
16560,note_on,,,,,6,0,3,,,,2,,74,62
16560,note_on,,,,,3,0,12,,,,13,,53,36
16560,note_on,,,,,3,0,7,,,,6,,62,96
16560,note_on,,,,,3,0,10,,,,11,,53,36
16581,note_off,,,,,21,0,10,,,,11,,53,0
16581,note_off,,,,,21,0,7,,,,6,,62,0
16581,note_off,,,,,21,0,11,,,,12,,41,0
16581,note_off,,,,,21,0,12,,,,13,,53,0
16584,note_on,,,,,3,0,10,,,,11,,50,36
16584,note_on,,,,,3,0,7,,,,6,,69,96
16584,note_on,,,,,3,0,12,,,,13,,50,36
16584,note_on,,,,,3,0,11,,,,12,,38,36
16602,note_off,,,,,42,0,3,,,,2,,74,0
16605,note_off,,,,,21,0,7,,,,6,,69,0
16605,note_off,,,,,21,0,12,,,,13,,50,0
16605,note_off,,,,,21,0,11,,,,12,,38,0
16605,note_off,,,,,21,0,10,,,,11,,50,0
16608,note_on,,,,,3,0,7,,,,6,,77,96
16608,note_on,,,,,6,0,3,,,,2,,81,62
16608,note_on,,,,,3,0,11,,,,12,,36,36
16608,note_on,,,,,3,0,10,,,,11,,48,36
16608,note_on,,,,,3,0,12,,,,13,,48,36
16629,note_off,,,,,21,0,12,,,,13,,48,0
16629,note_off,,,,,21,0,10,,,,11,,48,0
16629,note_off,,,,,21,0,11,,,,12,,36,0
16632,note_on,,,,,3,0,12,,,,13,,47,36
16632,note_on,,,,,3,0,10,,,,11,,47,36
16632,note_on,,,,,3,0,11,,,,12,,35,36
16650,note_off,,,,,42,0,7,,,,6,,77,0
16653,note_off,,,,,21,0,10,,,,11,,47,0
16653,note_off,,,,,21,0,11,,,,12,,35,0
16653,note_off,,,,,21,0,12,,,,13,,47,0
16656,note_on,,,,,3,0,10,,,,11,,48,36
16656,note_on,,,,,3,0,11,,,,12,,36,36
16656,note_on,,,,,3,0,12,,,,13,,48,36
16677,note_off,,,,,21,0,11,,,,12,,36,0
16677,note_off,,,,,21,0,12,,,,13,,48,0
16677,note_off,,,,,21,0,10,,,,11,,48,0
16680,note_on,,,,,3,0,10,,,,11,,50,36
16680,note_on,,,,,3,0,12,,,,13,,50,36
16680,note_on,,,,,3,0,11,,,,12,,38,36
16698,note_off,,,,,90,0,3,,,,2,,81,0
16701,note_off,,,,,21,0,10,,,,11,,50,0
16701,note_off,,,,,21,0,12,,,,13,,50,0
16701,note_off,,,,,21,0,11,,,,12,,38,0
16704,note_on,,,,,54,0,7,,,,6,,71,96
16704,note_on,,,,,3,0,10,,,,11,,52,36
16704,note_on,,,,,3,0,12,,,,13,,52,36
16704,note_on,,,,,6,0,3,,,,2,,81,62
16704,note_on,,,,,3,0,11,,,,12,,40,36
16714,note_off,,,,,10,0,3,,,,2,,81,0
16716,note_on,,,,,2,0,3,,,,2,,80,62
16725,note_off,,,,,21,0,7,,,,6,,71,0
16725,note_off,,,,,21,0,11,,,,12,,40,0
16725,note_off,,,,,21,0,10,,,,11,,52,0
16725,note_off,,,,,21,0,12,,,,13,,52,0
16726,note_off,,,,,10,0,3,,,,2,,80,0
16728,note_on,,,,,2,0,3,,,,2,,81,62
16728,note_on,,,,,3,0,7,,,,6,,72,96
16728,note_on,,,,,3,0,11,,,,12,,36,36
16728,note_on,,,,,3,0,12,,,,13,,48,36
16728,note_on,,,,,3,0,10,,,,11,,48,36
16738,note_off,,,,,10,0,3,,,,2,,81,0
16740,note_on,,,,,2,0,3,,,,2,,80,62
16749,note_off,,,,,21,0,12,,,,13,,48,0
16749,note_off,,,,,21,0,7,,,,6,,72,0
16749,note_off,,,,,21,0,11,,,,12,,36,0
16749,note_off,,,,,21,0,10,,,,11,,48,0
16750,note_off,,,,,10,0,3,,,,2,,80,0
16752,note_on,,,,,3,0,10,,,,11,,47,36
16752,note_on,,,,,3,0,7,,,,6,,72,96
16752,note_on,,,,,3,0,12,,,,13,,47,36
16752,note_on,,,,,3,0,11,,,,12,,35,36
16752,note_on,,,,,2,0,3,,,,2,,81,62
16773,note_off,,,,,21,0,12,,,,13,,47,0
16773,note_off,,,,,21,0,10,,,,11,,47,0
16773,note_off,,,,,21,0,7,,,,6,,72,0
16773,note_off,,,,,21,0,11,,,,12,,35,0
16776,note_on,,,,,3,0,11,,,,12,,33,36
16776,note_on,,,,,3,0,12,,,,13,,45,36
16776,note_on,,,,,3,0,7,,,,6,,74,96
16776,note_on,,,,,3,0,10,,,,11,,45,36
16794,note_off,,,,,42,0,3,,,,2,,81,0
16797,note_off,,,,,21,0,10,,,,11,,45,0
16797,note_off,,,,,21,0,7,,,,6,,74,0
16797,note_off,,,,,21,0,11,,,,12,,33,0
16797,note_off,,,,,21,0,12,,,,13,,45,0
16800,note_on,,,,,3,0,7,,,,6,,68,96
16800,note_on,,,,,3,0,10,,,,11,,47,36
16800,note_on,,,,,3,0,12,,,,13,,47,36
16800,note_on,,,,,3,0,11,,,,12,,35,36
16800,note_on,,,,,6,0,3,,,,2,,74,62
16821,note_off,,,,,21,0,10,,,,11,,47,0
16821,note_off,,,,,21,0,7,,,,6,,68,0
16821,note_off,,,,,21,0,11,,,,12,,35,0
16821,note_off,,,,,21,0,12,,,,13,,47,0
16824,note_on,,,,,3,0,7,,,,6,,71,96
16824,note_on,,,,,3,0,10,,,,11,,48,36
16824,note_on,,,,,3,0,12,,,,13,,48,36
16824,note_on,,,,,3,0,11,,,,12,,36,36
16842,note_off,,,,,42,0,3,,,,2,,74,0
16845,note_off,,,,,21,0,10,,,,11,,48,0
16845,note_off,,,,,21,0,12,,,,13,,48,0
16845,note_off,,,,,21,0,7,,,,6,,71,0
16845,note_off,,,,,21,0,11,,,,12,,36,0
16848,note_on,,,,,6,0,3,,,,2,,71,62
16848,note_on,,,,,3,0,7,,,,6,,74,96
16848,note_on,,,,,3,0,10,,,,11,,50,36
16848,note_on,,,,,3,0,12,,,,13,,50,36
16848,note_on,,,,,3,0,11,,,,12,,38,36
16869,note_off,,,,,21,0,11,,,,12,,38,0
16869,note_off,,,,,21,0,10,,,,11,,50,0
16869,note_off,,,,,21,0,7,,,,6,,74,0
16869,note_off,,,,,21,0,12,,,,13,,50,0
16872,note_on,,,,,3,0,11,,,,12,,35,36
16872,note_on,,,,,3,0,7,,,,6,,77,96
16872,note_on,,,,,3,0,12,,,,13,,47,36
16872,note_on,,,,,3,0,10,,,,11,,47,36
16890,note_off,,,,,42,0,3,,,,2,,71,0
16893,note_off,,,,,21,0,11,,,,12,,35,0
16893,note_off,,,,,21,0,12,,,,13,,47,0
16893,note_off,,,,,21,0,10,,,,11,,47,0
16893,note_off,,,,,21,0,7,,,,6,,77,0
16896,note_on,,,,,3,0,10,,,,11,,45,36
16896,note_on,,,,,3,0,7,,,,6,,76,96
16896,note_on,,,,,3,0,12,,,,13,,45,36
16896,note_on,,,,,3,0,11,,,,12,,33,36
16896,note_on,,,,,6,0,3,,,,2,,72,62
16917,note_off,,,,,21,0,10,,,,11,,45,0
16917,note_off,,,,,21,0,12,,,,13,,45,0
16917,note_off,,,,,21,0,11,,,,12,,33,0
16920,note_on,,,,,3,0,10,,,,11,,44,36
16920,note_on,,,,,3,0,12,,,,13,,44,36
16920,note_on,,,,,3,0,11,,,,12,,32,36
16941,note_off,,,,,21,0,10,,,,11,,44,0
16941,note_off,,,,,21,0,12,,,,13,,44,0
16941,note_off,,,,,21,0,11,,,,12,,32,0
16944,note_on,,,,,3,0,11,,,,12,,33,36
16944,note_on,,,,,3,0,10,,,,11,,45,36
16944,note_on,,,,,3,0,12,,,,13,,45,36
16965,note_off,,,,,21,0,12,,,,13,,45,0
16965,note_off,,,,,69,0,7,,,,6,,76,0
16965,note_off,,,,,21,0,11,,,,12,,33,0
16965,note_off,,,,,21,0,10,,,,11,,45,0
16965,note_off,,,,,69,0,3,,,,2,,72,0
16968,note_on,,,,,3,0,7,,,,6,,74,96
16968,note_on,,,,,3,0,12,,,,13,,50,36
16968,note_on,,,,,3,0,10,,,,11,,50,36
16968,note_on,,,,,3,0,11,,,,12,,38,36
16968,note_on,,,,,3,0,3,,,,2,,74,62
16989,note_off,,,,,21,0,12,,,,13,,50,0
16989,note_off,,,,,21,0,7,,,,6,,74,0
16989,note_off,,,,,21,0,10,,,,11,,50,0
16989,note_off,,,,,21,0,11,,,,12,,38,0
16989,note_off,,,,,21,0,3,,,,2,,74,0
16992,note_on,,,,,3,0,7,,,,6,,72,96
16992,note_on,,,,,3,0,11,,,,12,,40,36
16992,note_on,,,,,3,0,10,,,,11,,52,36
16992,note_on,,,,,3,0,3,,,,2,,68,62
16992,note_on,,,,,3,0,12,,,,13,,52,36
17034,note_off,,,,,42,0,11,,,,12,,40,0
17034,note_off,,,,,42,0,12,,,,13,,52,0
17034,note_off,,,,,42,0,7,,,,6,,72,0
17034,note_off,,,,,42,0,10,,,,11,,52,0
17040,note_on,,,,,6,0,7,,,,6,,72,96
17040,note_on,,,,,6,0,11,,,,12,,28,36
17040,note_on,,,,,6,0,10,,,,11,,40,36
17040,note_on,,,,,6,0,12,,,,13,,40,36
17050,note_off,,,,,10,0,7,,,,6,,72,0
17052,note_on,,,,,2,0,7,,,,6,,71,96
17055,note_off,,,,,63,0,3,,,,2,,68,0
17062,note_off,,,,,10,0,7,,,,6,,71,0
17064,note_on,,,,,9,0,3,,,,2,,69,62
17064,note_on,,,,,2,0,7,,,,6,,69,96
17082,note_off,,,,,42,0,10,,,,11,,40,0
17082,note_off,,,,,42,0,12,,,,13,,40,0
17082,note_off,,,,,42,0,11,,,,12,,28,0
17085,note_off,,,,,21,0,3,,,,2,,69,0
17085,note_off,,,,,21,0,7,,,,6,,69,0
17088,note_on,,,,,6,0,10,,,,11,,45,36
17088,note_on,,,,,6,0,11,,,,12,,33,36
17088,note_on,,,,,3,0,3,,,,2,,69,62
17088,note_on,,,,,1686,0,6,,,,5,,45,62
17088,note_on,,,,,3,0,7,,,,6,,69,96
17088,note_on,,,,,6,0,12,,,,13,,45,36
17109,note_off,,,,,21,0,11,,,,12,,33,0
17109,note_off,,,,,21,0,6,,,,5,,45,0
17109,note_off,,,,,21,0,10,,,,11,,45,0
17109,note_off,,,,,21,0,12,,,,13,,45,0
17112,note_on,,,,,3,0,11,,,,12,,35,36
17112,note_on,,,,,3,0,12,,,,13,,47,36
17112,note_on,,,,,3,0,6,,,,5,,47,62
17112,note_on,,,,,3,0,10,,,,11,,47,36
17130,note_off,,,,,42,0,7,,,,6,,69,0
17130,note_off,,,,,42,0,3,,,,2,,69,0
17133,note_off,,,,,21,0,12,,,,13,,47,0
17133,note_off,,,,,21,0,6,,,,5,,47,0
17133,note_off,,,,,21,0,11,,,,12,,35,0
17133,note_off,,,,,21,0,10,,,,11,,47,0
17136,note_on,,,,,6,0,7,,,,6,,76,96
17136,note_on,,,,,6,0,3,,,,2,,81,62
17136,note_on,,,,,1734,0,5,,,,4,,69,62
17136,note_on,,,,,1734,0,4,,,,3,,76,62
17136,note_on,,,,,1446,0,2,,,,1,,72,127
17136,note_on,,,,,3,0,6,,,,5,,48,62
17136,note_on,,,,,3,0,11,,,,12,,36,36
17136,note_on,,,,,3,0,10,,,,11,,48,36
17136,note_on,,,,,3,0,12,,,,13,,48,36
17157,note_off,,,,,21,0,4,,,,3,,76,0
17157,note_off,,,,,21,0,6,,,,5,,48,0
17157,note_off,,,,,21,0,12,,,,13,,48,0
17157,note_off,,,,,21,0,10,,,,11,,48,0
17157,note_off,,,,,21,0,11,,,,12,,36,0
17157,note_off,,,,,21,0,3,,,,2,,81,0
17160,note_on,,,,,3,0,4,,,,3,,74,62
17160,note_on,,,,,3,0,6,,,,5,,47,62
17160,note_on,,,,,3,0,10,,,,11,,47,36
17160,note_on,,,,,3,0,3,,,,2,,80,62
17160,note_on,,,,,3,0,12,,,,13,,47,36
17160,note_on,,,,,3,0,11,,,,12,,35,36
17178,note_off,,,,,42,0,7,,,,6,,76,0
17178,note_off,,,,,42,0,2,,,,1,,72,0
17178,note_off,,,,,42,0,5,,,,4,,69,0
17181,note_off,,,,,21,0,10,,,,11,,47,0
17181,note_off,,,,,21,0,12,,,,13,,47,0
17181,note_off,,,,,21,0,11,,,,12,,35,0
17181,note_off,,,,,21,0,3,,,,2,,80,0
17181,note_off,,,,,21,0,6,,,,5,,47,0
17181,note_off,,,,,21,0,4,,,,3,,74,0
17184,note_on,,,,,3,0,11,,,,12,,36,36
17184,note_on,,,,,6,0,2,,,,1,,72,127
17184,note_on,,,,,3,0,3,,,,2,,81,62
17184,note_on,,,,,3,0,4,,,,3,,76,62
17184,note_on,,,,,3,0,6,,,,5,,48,62
17184,note_on,,,,,3,0,10,,,,11,,48,36
17184,note_on,,,,,3,0,12,,,,13,,48,36
17184,note_on,,,,,6,0,7,,,,6,,81,96
17184,note_on,,,,,6,0,5,,,,4,,69,62
17205,note_off,,,,,21,0,6,,,,5,,48,0
17205,note_off,,,,,21,0,12,,,,13,,48,0
17205,note_off,,,,,21,0,11,,,,12,,36,0
17205,note_off,,,,,21,0,10,,,,11,,48,0
17205,note_off,,,,,21,0,4,,,,3,,76,0
17205,note_off,,,,,21,0,3,,,,2,,81,0
17208,note_on,,,,,3,0,4,,,,3,,72,62
17208,note_on,,,,,3,0,11,,,,12,,33,36
17208,note_on,,,,,3,0,12,,,,13,,45,36
17208,note_on,,,,,3,0,10,,,,11,,45,36
17208,note_on,,,,,3,0,6,,,,5,,45,62
17208,note_on,,,,,3,0,3,,,,2,,76,62
17226,note_off,,,,,42,0,7,,,,6,,81,0
17226,note_off,,,,,42,0,5,,,,4,,69,0
17226,note_off,,,,,42,0,2,,,,1,,72,0
17229,note_off,,,,,21,0,6,,,,5,,45,0
17229,note_off,,,,,21,0,12,,,,13,,45,0
17229,note_off,,,,,21,0,4,,,,3,,72,0
17229,note_off,,,,,21,0,3,,,,2,,76,0
17229,note_off,,,,,21,0,10,,,,11,,45,0
17229,note_off,,,,,21,0,11,,,,12,,33,0
17232,note_on,,,,,6,0,2,,,,1,,72,127
17232,note_on,,,,,6,0,7,,,,6,,79,96
17232,note_on,,,,,3,0,3,,,,2,,77,62
17232,note_on,,,,,3,0,10,,,,11,,50,36
17232,note_on,,,,,3,0,11,,,,12,,38,36
17232,note_on,,,,,3,0,6,,,,5,,50,62
17232,note_on,,,,,3,0,12,,,,13,,50,36
17232,note_on,,,,,6,0,5,,,,4,,69,62
17232,note_on,,,,,3,0,4,,,,3,,74,62
17242,note_off,,,,,10,0,7,,,,6,,79,0
17244,note_on,,,,,2,0,7,,,,6,,77,96
17253,note_off,,,,,21,0,10,,,,11,,50,0
17253,note_off,,,,,21,0,11,,,,12,,38,0
17253,note_off,,,,,21,0,6,,,,5,,50,0
17253,note_off,,,,,21,0,2,,,,1,,72,0
17253,note_off,,,,,21,0,12,,,,13,,50,0
17254,note_off,,,,,10,0,7,,,,6,,77,0
17256,note_on,,,,,3,0,6,,,,5,,52,62
17256,note_on,,,,,3,0,10,,,,11,,52,36
17256,note_on,,,,,3,0,12,,,,13,,52,36
17256,note_on,,,,,3,0,2,,,,1,,71,127
17256,note_on,,,,,2,0,7,,,,6,,79,96
17256,note_on,,,,,3,0,11,,,,12,,40,36
17266,note_off,,,,,10,0,7,,,,6,,79,0
17268,note_on,,,,,2,0,7,,,,6,,77,96
17274,note_off,,,,,42,0,5,,,,4,,69,0
17274,note_off,,,,,42,0,3,,,,2,,77,0
17274,note_off,,,,,42,0,4,,,,3,,74,0
17277,note_off,,,,,21,0,10,,,,11,,52,0
17277,note_off,,,,,21,0,2,,,,1,,71,0
17277,note_off,,,,,21,0,12,,,,13,,52,0
17277,note_off,,,,,21,0,6,,,,5,,52,0
17277,note_off,,,,,21,0,11,,,,12,,40,0
17278,note_off,,,,,10,0,7,,,,6,,77,0
17280,note_on,,,,,3,0,12,,,,13,,69,36
17280,note_on,,,,,0,0,12,,,,13,,74,36
17280,note_on,,,,,3,0,11,,,,12,,41,36
17280,note_on,,,,,0,0,12,,,,13,,53,36
17280,note_on,,,,,1590,0,13,,,,14,,62,75
17280,note_on,,,,,2,0,7,,,,6,,76,96
17280,note_on,,,,,3,0,10,,,,11,,53,36
17280,note_on,,,,,1590,0,1,,,,0,,77,127
17280,note_on,,,,,3,0,2,,,,1,,69,127
17280,note_on,,,,,1590,0,8,,,,7,,74,75
17280,note_on,,,,,1590,0,9,,,,8,,69,75
17280,note_on,,,,,3,0,6,,,,5,,53,62
17301,note_off,,,,,21,0,12,,,,13,,53,0
17301,note_off,,,,,21,0,7,,,,6,,76,0
17301,note_off,,,,,21,0,2,,,,1,,69,0
17301,note_off,,,,,21,0,11,,,,12,,41,0
17301,note_off,,,,,21,0,10,,,,11,,53,0
17301,note_off,,,,,21,0,8,,,,7,,74,0
17301,note_off,,,,,21,0,6,,,,5,,53,0
17304,note_on,,,,,3,0,7,,,,6,,77,96
17304,note_on,,,,,3,0,2,,,,1,,67,127
17304,note_on,,,,,3,0,8,,,,7,,73,75
17304,note_on,,,,,3,0,6,,,,5,,52,62
17304,note_on,,,,,3,0,12,,,,13,,52,36
17304,note_on,,,,,3,0,10,,,,11,,52,36
17304,note_on,,,,,3,0,11,,,,12,,40,36
17322,note_off,,,,,42,0,13,,,,14,,62,0
17322,note_off,,,,,0,0,12,,,,13,,74,0
17322,note_off,,,,,42,0,1,,,,0,,77,0
17322,note_off,,,,,18,0,12,,,,13,,69,0
17322,note_off,,,,,42,0,9,,,,8,,69,0
17325,note_off,,,,,3,0,12,,,,13,,52,0
17325,note_off,,,,,21,0,2,,,,1,,67,0
17325,note_off,,,,,21,0,10,,,,11,,52,0
17325,note_off,,,,,21,0,11,,,,12,,40,0
17325,note_off,,,,,21,0,7,,,,6,,77,0
17325,note_off,,,,,21,0,6,,,,5,,52,0
17325,note_off,,,,,21,0,8,,,,7,,73,0
17328,note_on,,,,,3,0,8,,,,7,,74,75
17328,note_on,,,,,3,0,11,,,,12,,41,36
17328,note_on,,,,,6,0,13,,,,14,,62,75
17328,note_on,,,,,0,0,12,,,,13,,74,36
17328,note_on,,,,,3,0,12,,,,13,,69,36
17328,note_on,,,,,6,0,9,,,,8,,69,75
17328,note_on,,,,,3,0,6,,,,5,,53,62
17328,note_on,,,,,3,0,7,,,,6,,74,96
17328,note_on,,,,,3,0,10,,,,11,,53,36
17328,note_on,,,,,6,0,1,,,,0,,77,127
17328,note_on,,,,,3,0,2,,,,1,,69,127
17328,note_on,,,,,0,0,12,,,,13,,53,36
17349,note_off,,,,,21,0,11,,,,12,,41,0
17349,note_off,,,,,21,0,8,,,,7,,74,0
17349,note_off,,,,,21,0,10,,,,11,,53,0
17349,note_off,,,,,21,0,12,,,,13,,53,0
17349,note_off,,,,,21,0,6,,,,5,,53,0
17349,note_off,,,,,21,0,2,,,,1,,69,0
17352,note_on,,,,,3,0,10,,,,11,,50,36
17352,note_on,,,,,3,0,12,,,,13,,50,36
17352,note_on,,,,,3,0,11,,,,12,,38,36
17352,note_on,,,,,3,0,6,,,,5,,50,62
17352,note_on,,,,,3,0,2,,,,1,,65,127
17352,note_on,,,,,3,0,8,,,,7,,69,75
17370,note_off,,,,,42,0,9,,,,8,,69,0
17370,note_off,,,,,42,0,1,,,,0,,77,0
17370,note_off,,,,,42,0,7,,,,6,,74,0
17370,note_off,,,,,42,0,13,,,,14,,62,0
17370,note_off,,,,,18,0,12,,,,13,,69,0
17370,note_off,,,,,0,0,12,,,,13,,74,0
17373,note_off,,,,,21,0,10,,,,11,,50,0
17373,note_off,,,,,21,0,2,,,,1,,65,0
17373,note_off,,,,,21,0,11,,,,12,,38,0
17373,note_off,,,,,21,0,8,,,,7,,69,0
17373,note_off,,,,,21,0,6,,,,5,,50,0
17373,note_off,,,,,3,0,12,,,,13,,50,0
17376,note_on,,,,,3,0,12,,,,13,,71,36
17376,note_on,,,,,3,0,8,,,,7,,71,75
17376,note_on,,,,,0,0,12,,,,13,,43,36
17376,note_on,,,,,0,0,12,,,,13,,74,36
17376,note_on,,,,,3,0,2,,,,1,,71,127
17376,note_on,,,,,3,0,11,,,,12,,31,36
17376,note_on,,,,,3,0,10,,,,11,,43,36
17376,note_on,,,,,3,0,6,,,,5,,43,62
17376,note_on,,,,,6,0,13,,,,14,,62,75
17376,note_on,,,,,6,0,1,,,,0,,77,127
17376,note_on,,,,,6,0,9,,,,8,,67,75
17397,note_off,,,,,21,0,6,,,,5,,43,0
17397,note_off,,,,,21,0,10,,,,11,,43,0
17397,note_off,,,,,21,0,1,,,,0,,77,0
17397,note_off,,,,,21,0,12,,,,13,,43,0
17397,note_off,,,,,21,0,11,,,,12,,31,0
17400,note_on,,,,,3,0,6,,,,5,,45,62
17400,note_on,,,,,3,0,1,,,,0,,76,127
17400,note_on,,,,,3,0,12,,,,13,,45,36
17400,note_on,,,,,3,0,10,,,,11,,45,36
17400,note_on,,,,,3,0,11,,,,12,,33,36
17418,note_off,,,,,0,0,12,,,,13,,74,0
17418,note_off,,,,,18,0,12,,,,13,,71,0
17418,note_off,,,,,42,0,2,,,,1,,71,0
17418,note_off,,,,,42,0,8,,,,7,,71,0
17418,note_off,,,,,42,0,13,,,,14,,62,0
17418,note_off,,,,,42,0,9,,,,8,,67,0
17421,note_off,,,,,21,0,6,,,,5,,45,0
17421,note_off,,,,,21,0,11,,,,12,,33,0
17421,note_off,,,,,3,0,12,,,,13,,45,0
17421,note_off,,,,,21,0,1,,,,0,,76,0
17421,note_off,,,,,21,0,10,,,,11,,45,0
17424,note_on,,,,,3,0,11,,,,12,,35,36
17424,note_on,,,,,150,0,5,,,,4,,67,62
17424,note_on,,,,,3,0,1,,,,0,,74,127
17424,note_on,,,,,3,0,10,,,,11,,47,36
17424,note_on,,,,,150,0,4,,,,3,,74,62
17424,note_on,,,,,6,0,2,,,,1,,71,127
17424,note_on,,,,,3,0,6,,,,5,,47,62
17424,note_on,,,,,54,0,7,,,,6,,74,96
17424,note_on,,,,,150,0,3,,,,2,,79,62
17424,note_on,,,,,0,0,12,,,,13,,47,36
17424,note_on,,,,,3,0,12,,,,13,,74,36
17424,note_on,,,,,0,0,12,,,,13,,79,36
17445,note_off,,,,,21,0,1,,,,0,,74,0
17445,note_off,,,,,21,0,11,,,,12,,35,0
17445,note_off,,,,,21,0,3,,,,2,,79,0
17445,note_off,,,,,21,0,6,,,,5,,47,0
17445,note_off,,,,,21,0,12,,,,13,,47,0
17445,note_off,,,,,21,0,10,,,,11,,47,0
17448,note_on,,,,,3,0,6,,,,5,,45,62
17448,note_on,,,,,3,0,3,,,,2,,78,62
17448,note_on,,,,,3,0,1,,,,0,,72,127
17448,note_on,,,,,3,0,12,,,,13,,45,36
17448,note_on,,,,,3,0,11,,,,12,,33,36
17448,note_on,,,,,3,0,10,,,,11,,45,36
17466,note_off,,,,,42,0,4,,,,3,,74,0
17466,note_off,,,,,42,0,2,,,,1,,71,0
17466,note_off,,,,,42,0,5,,,,4,,67,0
17466,note_off,,,,,42,0,7,,,,6,,74,0
17466,note_off,,,,,0,0,12,,,,13,,79,0
17466,note_off,,,,,18,0,12,,,,13,,74,0
17469,note_off,,,,,3,0,12,,,,13,,45,0
17469,note_off,,,,,21,0,6,,,,5,,45,0
17469,note_off,,,,,21,0,10,,,,11,,45,0
17469,note_off,,,,,21,0,11,,,,12,,33,0
17469,note_off,,,,,21,0,1,,,,0,,72,0
17469,note_off,,,,,21,0,3,,,,2,,78,0
17472,note_on,,,,,3,0,11,,,,12,,35,36
17472,note_on,,,,,3,0,1,,,,0,,74,127
17472,note_on,,,,,6,0,2,,,,1,,71,127
17472,note_on,,,,,6,0,4,,,,3,,74,62
17472,note_on,,,,,0,0,12,,,,13,,47,36
17472,note_on,,,,,0,0,12,,,,13,,79,36
17472,note_on,,,,,6,0,7,,,,6,,76,96
17472,note_on,,,,,3,0,3,,,,2,,79,62
17472,note_on,,,,,3,0,10,,,,11,,47,36
17472,note_on,,,,,3,0,6,,,,5,,47,62
17472,note_on,,,,,3,0,12,,,,13,,74,36
17472,note_on,,,,,6,0,5,,,,4,,67,62
17482,note_off,,,,,10,0,7,,,,6,,76,0
17484,note_on,,,,,2,0,7,,,,6,,77,96
17493,note_off,,,,,21,0,3,,,,2,,79,0
17493,note_off,,,,,21,0,11,,,,12,,35,0
17493,note_off,,,,,21,0,1,,,,0,,74,0
17493,note_off,,,,,21,0,12,,,,13,,47,0
17493,note_off,,,,,21,0,6,,,,5,,47,0
17493,note_off,,,,,21,0,10,,,,11,,47,0
17494,note_off,,,,,10,0,7,,,,6,,77,0
17496,note_on,,,,,3,0,12,,,,13,,43,36
17496,note_on,,,,,3,0,11,,,,12,,31,36
17496,note_on,,,,,3,0,3,,,,2,,74,62
17496,note_on,,,,,3,0,10,,,,11,,43,36
17496,note_on,,,,,2,0,7,,,,6,,79,96
17496,note_on,,,,,3,0,6,,,,5,,43,62
17496,note_on,,,,,3,0,1,,,,0,,71,127
17514,note_off,,,,,42,0,5,,,,4,,67,0
17514,note_off,,,,,42,0,2,,,,1,,71,0
17514,note_off,,,,,42,0,4,,,,3,,74,0
17514,note_off,,,,,0,0,12,,,,13,,79,0
17514,note_off,,,,,18,0,12,,,,13,,74,0
17517,note_off,,,,,21,0,1,,,,0,,71,0
17517,note_off,,,,,21,0,3,,,,2,,74,0
17517,note_off,,,,,3,0,12,,,,13,,43,0
17517,note_off,,,,,21,0,6,,,,5,,43,0
17517,note_off,,,,,21,0,10,,,,11,,43,0
17517,note_off,,,,,21,0,7,,,,6,,79,0
17517,note_off,,,,,21,0,11,,,,12,,31,0
17520,note_on,,,,,3,0,10,,,,11,,48,36
17520,note_on,,,,,3,0,6,,,,5,,48,62
17520,note_on,,,,,3,0,3,,,,2,,76,62
17520,note_on,,,,,3,0,7,,,,6,,77,96
17520,note_on,,,,,6,0,2,,,,1,,71,127
17520,note_on,,,,,3,0,1,,,,0,,76,127
17520,note_on,,,,,6,0,5,,,,4,,67,62
17520,note_on,,,,,3,0,12,,,,13,,67,36
17520,note_on,,,,,0,0,12,,,,13,,76,36
17520,note_on,,,,,0,0,12,,,,13,,48,36
17520,note_on,,,,,3,0,11,,,,12,,36,36
17520,note_on,,,,,6,0,4,,,,3,,72,62
17541,note_off,,,,,21,0,7,,,,6,,77,0
17541,note_off,,,,,21,0,2,,,,1,,71,0
17541,note_off,,,,,21,0,12,,,,13,,48,0
17541,note_off,,,,,21,0,10,,,,11,,48,0
17541,note_off,,,,,21,0,11,,,,12,,36,0
17541,note_off,,,,,21,0,6,,,,5,,48,0
17544,note_on,,,,,3,0,11,,,,12,,38,36
17544,note_on,,,,,3,0,2,,,,1,,69,127
17544,note_on,,,,,3,0,10,,,,11,,50,36
17544,note_on,,,,,3,0,7,,,,6,,76,96
17544,note_on,,,,,3,0,12,,,,13,,50,36
17544,note_on,,,,,3,0,6,,,,5,,50,62
17562,note_off,,,,,18,0,12,,,,13,,67,0
17562,note_off,,,,,42,0,1,,,,0,,76,0
17562,note_off,,,,,42,0,5,,,,4,,67,0
17562,note_off,,,,,0,0,12,,,,13,,76,0
17562,note_off,,,,,42,0,4,,,,3,,72,0
17562,note_off,,,,,42,0,3,,,,2,,76,0
17565,note_off,,,,,21,0,11,,,,12,,38,0
17565,note_off,,,,,21,0,2,,,,1,,69,0
17565,note_off,,,,,3,0,12,,,,13,,50,0
17565,note_off,,,,,21,0,6,,,,5,,50,0
17565,note_off,,,,,21,0,10,,,,11,,50,0
17565,note_off,,,,,21,0,7,,,,6,,76,0
17568,note_on,,,,,150,0,13,,,,14,,60,75
17568,note_on,,,,,0,0,12,,,,13,,52,36
17568,note_on,,,,,3,0,12,,,,13,,60,36
17568,note_on,,,,,6,0,1,,,,0,,76,127
17568,note_on,,,,,150,0,8,,,,7,,72,75
17568,note_on,,,,,3,0,7,,,,6,,74,96
17568,note_on,,,,,3,0,6,,,,5,,52,62
17568,note_on,,,,,150,0,9,,,,8,,67,75
17568,note_on,,,,,3,0,2,,,,1,,67,127
17568,note_on,,,,,0,0,12,,,,13,,67,36
17568,note_on,,,,,3,0,11,,,,12,,40,36
17568,note_on,,,,,3,0,10,,,,11,,52,36
17589,note_off,,,,,21,0,12,,,,13,,52,0
17589,note_off,,,,,21,0,11,,,,12,,40,0
17589,note_off,,,,,21,0,10,,,,11,,52,0
17589,note_off,,,,,21,0,7,,,,6,,74,0
17589,note_off,,,,,21,0,6,,,,5,,52,0
17589,note_off,,,,,21,0,2,,,,1,,67,0
17589,note_off,,,,,21,0,8,,,,7,,72,0
17592,note_on,,,,,3,0,12,,,,13,,50,36
17592,note_on,,,,,3,0,10,,,,11,,50,36
17592,note_on,,,,,3,0,7,,,,6,,76,96
17592,note_on,,,,,3,0,6,,,,5,,50,62
17592,note_on,,,,,3,0,2,,,,1,,65,127
17592,note_on,,,,,3,0,8,,,,7,,71,75
17592,note_on,,,,,3,0,11,,,,12,,38,36
17610,note_off,,,,,42,0,1,,,,0,,76,0
17610,note_off,,,,,42,0,9,,,,8,,67,0
17610,note_off,,,,,18,0,12,,,,13,,60,0
17610,note_off,,,,,0,0,12,,,,13,,67,0
17610,note_off,,,,,42,0,13,,,,14,,60,0
17613,note_off,,,,,21,0,7,,,,6,,76,0
17613,note_off,,,,,21,0,2,,,,1,,65,0
17613,note_off,,,,,21,0,6,,,,5,,50,0
17613,note_off,,,,,21,0,10,,,,11,,50,0
17613,note_off,,,,,3,0,12,,,,13,,50,0
17613,note_off,,,,,21,0,11,,,,12,,38,0
17613,note_off,,,,,21,0,8,,,,7,,71,0
17616,note_on,,,,,6,0,13,,,,14,,60,75
17616,note_on,,,,,0,0,12,,,,13,,67,36
17616,note_on,,,,,0,0,12,,,,13,,52,36
17616,note_on,,,,,6,0,9,,,,8,,67,75
17616,note_on,,,,,6,0,1,,,,0,,76,127
17616,note_on,,,,,3,0,8,,,,7,,72,75
17616,note_on,,,,,3,0,10,,,,11,,52,36
17616,note_on,,,,,3,0,6,,,,5,,52,62
17616,note_on,,,,,3,0,12,,,,13,,60,36
17616,note_on,,,,,3,0,2,,,,1,,67,127
17616,note_on,,,,,3,0,11,,,,12,,40,36
17616,note_on,,,,,3,0,7,,,,6,,72,96
17637,note_off,,,,,21,0,10,,,,11,,52,0
17637,note_off,,,,,21,0,6,,,,5,,52,0
17637,note_off,,,,,21,0,12,,,,13,,52,0
17637,note_off,,,,,21,0,8,,,,7,,72,0
17637,note_off,,,,,21,0,11,,,,12,,40,0
17637,note_off,,,,,21,0,2,,,,1,,67,0
17640,note_on,,,,,3,0,11,,,,12,,36,36
17640,note_on,,,,,3,0,10,,,,11,,48,36
17640,note_on,,,,,3,0,6,,,,5,,48,62
17640,note_on,,,,,3,0,12,,,,13,,48,36
17640,note_on,,,,,3,0,8,,,,7,,67,75
17640,note_on,,,,,3,0,2,,,,1,,60,127
17658,note_off,,,,,42,0,7,,,,6,,72,0
17658,note_off,,,,,42,0,13,,,,14,,60,0
17658,note_off,,,,,42,0,9,,,,8,,67,0
17658,note_off,,,,,0,0,12,,,,13,,67,0
17658,note_off,,,,,42,0,1,,,,0,,76,0
17658,note_off,,,,,18,0,12,,,,13,,60,0
17661,note_off,,,,,21,0,6,,,,5,,48,0
17661,note_off,,,,,21,0,8,,,,7,,67,0
17661,note_off,,,,,21,0,2,,,,1,,60,0
17661,note_off,,,,,3,0,12,,,,13,,48,0
17661,note_off,,,,,21,0,11,,,,12,,36,0
17661,note_off,,,,,21,0,10,,,,11,,48,0
17664,note_on,,,,,3,0,8,,,,7,,69,75
17664,note_on,,,,,6,0,13,,,,14,,62,75
17664,note_on,,,,,3,0,11,,,,12,,41,36
17664,note_on,,,,,6,0,1,,,,0,,76,127
17664,note_on,,,,,6,0,9,,,,8,,65,75
17664,note_on,,,,,3,0,10,,,,11,,53,36
17664,note_on,,,,,3,0,2,,,,1,,69,127
17664,note_on,,,,,0,0,12,,,,13,,53,36
17664,note_on,,,,,0,0,12,,,,13,,69,36
17664,note_on,,,,,3,0,12,,,,13,,62,36
17664,note_on,,,,,3,0,6,,,,5,,53,62
17685,note_off,,,,,21,0,11,,,,12,,41,0
17685,note_off,,,,,21,0,1,,,,0,,76,0
17685,note_off,,,,,21,0,12,,,,13,,53,0
17685,note_off,,,,,21,0,10,,,,11,,53,0
17688,note_on,,,,,3,0,1,,,,0,,74,127
17688,note_on,,,,,3,0,12,,,,13,,55,36
17688,note_on,,,,,3,0,11,,,,12,,43,36
17688,note_on,,,,,3,0,10,,,,11,,55,36
17706,note_off,,,,,42,0,8,,,,7,,69,0
17706,note_off,,,,,42,0,2,,,,1,,69,0
17706,note_off,,,,,42,0,13,,,,14,,62,0
17706,note_off,,,,,42,0,6,,,,5,,53,0
17706,note_off,,,,,0,0,12,,,,13,,69,0
17706,note_off,,,,,18,0,12,,,,13,,62,0
17706,note_off,,,,,42,0,9,,,,8,,65,0
17709,note_off,,,,,21,0,11,,,,12,,43,0
17709,note_off,,,,,21,0,1,,,,0,,74,0
17709,note_off,,,,,21,0,10,,,,11,,55,0
17709,note_off,,,,,3,0,12,,,,13,,55,0
17712,note_on,,,,,54,0,7,,,,6,,77,96
17712,note_on,,,,,3,0,11,,,,12,,45,36
17712,note_on,,,,,3,0,12,,,,13,,57,36
17712,note_on,,,,,3,0,10,,,,11,,57,36
17712,note_on,,,,,3,0,1,,,,0,,72,127
17733,note_off,,,,,21,0,11,,,,12,,45,0
17733,note_off,,,,,21,0,7,,,,6,,77,0
17733,note_off,,,,,21,0,12,,,,13,,57,0
17733,note_off,,,,,21,0,1,,,,0,,72,0
17733,note_off,,,,,21,0,10,,,,11,,57,0
17736,note_on,,,,,3,0,12,,,,13,,55,36
17736,note_on,,,,,3,0,10,,,,11,,55,36
17736,note_on,,,,,3,0,11,,,,12,,43,36
17736,note_on,,,,,3,0,7,,,,6,,76,96
17736,note_on,,,,,3,0,1,,,,0,,71,127
17757,note_off,,,,,21,0,12,,,,13,,55,0
17757,note_off,,,,,21,0,11,,,,12,,43,0
17757,note_off,,,,,21,0,7,,,,6,,76,0
17757,note_off,,,,,21,0,10,,,,11,,55,0
17757,note_off,,,,,21,0,1,,,,0,,71,0
17760,note_on,,,,,3,0,11,,,,12,,45,36
17760,note_on,,,,,3,0,10,,,,11,,57,36
17760,note_on,,,,,3,0,1,,,,0,,72,127
17760,note_on,,,,,3,0,7,,,,6,,76,96
17760,note_on,,,,,3,0,12,,,,13,,57,36
17781,note_off,,,,,21,0,7,,,,6,,76,0
17781,note_off,,,,,21,0,1,,,,0,,72,0
17781,note_off,,,,,21,0,11,,,,12,,45,0
17781,note_off,,,,,21,0,12,,,,13,,57,0
17781,note_off,,,,,21,0,10,,,,11,,57,0
17784,note_on,,,,,3,0,7,,,,6,,74,96
17784,note_on,,,,,3,0,12,,,,13,,53,36
17784,note_on,,,,,3,0,10,,,,11,,53,36
17784,note_on,,,,,3,0,11,,,,12,,41,36
17784,note_on,,,,,3,0,1,,,,0,,69,127
17805,note_off,,,,,21,0,11,,,,12,,41,0
17805,note_off,,,,,21,0,12,,,,13,,53,0
17805,note_off,,,,,21,0,1,,,,0,,69,0
17805,note_off,,,,,21,0,7,,,,6,,74,0
17805,note_off,,,,,21,0,10,,,,11,,53,0
17808,note_on,,,,,3,0,11,,,,12,,47,36
17808,note_on,,,,,3,0,1,,,,0,,74,127
17808,note_on,,,,,3,0,12,,,,13,,59,36
17808,note_on,,,,,3,0,10,,,,11,,59,36
17808,note_on,,,,,3,0,7,,,,6,,74,96
17829,note_off,,,,,21,0,1,,,,0,,74,0
17829,note_off,,,,,21,0,7,,,,6,,74,0
17832,note_on,,,,,3,0,1,,,,0,,77,127
17832,note_on,,,,,3,0,7,,,,6,,71,96
17850,note_off,,,,,42,0,10,,,,11,,59,0
17850,note_off,,,,,42,0,11,,,,12,,47,0
17850,note_off,,,,,42,0,12,,,,13,,59,0
17853,note_off,,,,,21,0,7,,,,6,,71,0
17853,note_off,,,,,21,0,1,,,,0,,77,0
17856,note_on,,,,,6,0,11,,,,12,,40,36
17856,note_on,,,,,3,0,1,,,,0,,76,127
17856,note_on,,,,,6,0,12,,,,13,,52,36
17856,note_on,,,,,6,0,10,,,,11,,52,36
17856,note_on,,,,,3,0,7,,,,6,,68,96
17877,note_off,,,,,21,0,7,,,,6,,68,0
17877,note_off,,,,,21,0,1,,,,0,,76,0
17880,note_on,,,,,3,0,1,,,,0,,74,127
17880,note_on,,,,,3,0,7,,,,6,,77,96
17898,note_off,,,,,42,0,11,,,,12,,40,0
17898,note_off,,,,,42,0,12,,,,13,,52,0
17898,note_off,,,,,42,0,10,,,,11,,52,0
17901,note_off,,,,,21,0,7,,,,6,,77,0
17901,note_off,,,,,21,0,1,,,,0,,74,0
17904,note_on,,,,,6,0,12,,,,13,,57,36
17904,note_on,,,,,6,0,10,,,,11,,57,36
17904,note_on,,,,,3,0,7,,,,6,,76,96
17904,note_on,,,,,6,0,11,,,,12,,45,36
17904,note_on,,,,,3,0,1,,,,0,,72,127
17925,note_off,,,,,21,0,1,,,,0,,72,0
17925,note_off,,,,,21,0,7,,,,6,,76,0
17928,note_on,,,,,3,0,1,,,,0,,71,127
17928,note_on,,,,,3,0,7,,,,6,,74,96
17946,note_off,,,,,42,0,11,,,,12,,45,0
17946,note_off,,,,,42,0,10,,,,11,,57,0
17946,note_off,,,,,42,0,12,,,,13,,57,0
17949,note_off,,,,,21,0,7,,,,6,,74,0
17949,note_off,,,,,21,0,1,,,,0,,71,0
17952,note_on,,,,,6,0,10,,,,11,,50,75
17952,note_on,,,,,6,0,11,,,,12,,38,75
17952,note_on,,,,,3,0,1,,,,0,,72,127
17952,note_on,,,,,3,0,7,,,,6,,76,96
17952,note_on,,,,,6,0,12,,,,13,,50,75
17973,note_off,,,,,21,0,7,,,,6,,76,0
17973,note_off,,,,,21,0,1,,,,0,,72,0
17976,note_on,,,,,3,0,7,,,,6,,69,96
17976,note_on,,,,,3,0,1,,,,0,,74,127
17994,note_off,,,,,42,0,12,,,,13,,50,0
17994,note_off,,,,,42,0,11,,,,12,,38,0
17994,note_off,,,,,42,0,10,,,,11,,50,0
17997,note_off,,,,,21,0,7,,,,6,,69,0
17997,note_off,,,,,21,0,1,,,,0,,74,0
18000,note_on,,,,,6,0,12,,,,13,,52,75
18000,note_on,,,,,6,0,10,,,,11,,52,75
18000,note_on,,,,,3,0,7,,,,6,,68,96
18000,note_on,,,,,6,0,11,,,,12,,40,75
18000,note_on,,,,,3,0,1,,,,0,,72,127
18010,note_off,,,,,10,0,1,,,,0,,72,0
18012,note_on,,,,,2,0,1,,,,0,,71,127
18022,note_off,,,,,10,0,1,,,,0,,71,0
18024,note_on,,,,,2,0,1,,,,0,,72,127
18034,note_off,,,,,10,0,1,,,,0,,72,0
18036,note_on,,,,,2,0,1,,,,0,,71,127
18042,note_off,,,,,42,0,12,,,,13,,52,0
18042,note_off,,,,,42,0,10,,,,11,,52,0
18042,note_off,,,,,42,0,11,,,,12,,40,0
18046,note_off,,,,,10,0,1,,,,0,,71,0
18048,note_on,,,,,6,0,12,,,,13,,40,75
18048,note_on,,,,,6,0,10,,,,11,,40,75
18048,note_on,,,,,6,0,11,,,,12,,28,75
18048,note_on,,,,,2,0,1,,,,0,,72,127
18058,note_off,,,,,10,0,1,,,,0,,72,0
18060,note_on,,,,,2,0,1,,,,0,,71,127
18063,note_off,,,,,63,0,7,,,,6,,68,0
18070,note_off,,,,,10,0,1,,,,0,,71,0
18072,note_on,,,,,2,0,1,,,,0,,69,127
18072,note_on,,,,,9,0,7,,,,6,,69,96
18090,note_off,,,,,42,0,10,,,,11,,40,0
18090,note_off,,,,,42,0,12,,,,13,,40,0
18090,note_off,,,,,42,0,11,,,,12,,28,0
18093,note_off,,,,,21,0,7,,,,6,,69,0
18093,note_off,,,,,21,0,1,,,,0,,69,0
18096,note_on,,,,,390,0,6,,,,5,,45,127
18096,note_on,,,,,6,0,10,,,,11,,45,75
18096,note_on,,,,,3,0,7,,,,6,,69,96
18096,note_on,,,,,6,0,12,,,,13,,45,75
18096,note_on,,,,,6,0,11,,,,12,,33,75
18096,note_on,,,,,3,0,1,,,,0,,69,127
18120,note_on,,,,,558,0,3,,,,2,,64,127
18138,note_off,,,,,42,0,12,,,,13,,45,0
18138,note_off,,,,,42,0,10,,,,11,,45,0
18138,note_off,,,,,42,0,11,,,,12,,33,0
18138,note_off,,,,,42,0,6,,,,5,,45,0
18141,note_off,,,,,21,0,3,,,,2,,64,0
18144,note_on,,,,,3,0,3,,,,2,,69,127
18144,note_on,,,,,6,0,6,,,,5,,52,127
18144,note_on,,,,,6,0,12,,,,13,,60,75
18144,note_on,,,,,0,0,12,,,,13,,52,75
18144,note_on,,,,,0,0,12,,,,13,,69,75
18144,note_on,,,,,6,0,10,,,,11,,52,75
18144,note_on,,,,,582,0,4,,,,3,,69,127
18144,note_on,,,,,582,0,5,,,,4,,60,127
18144,note_on,,,,,6,0,11,,,,12,,40,75
18165,note_off,,,,,21,0,3,,,,2,,69,0
18165,note_off,,,,,21,0,4,,,,3,,69,0
18165,note_off,,,,,21,0,5,,,,4,,60,0
18168,note_on,,,,,3,0,3,,,,2,,71,127
18168,note_on,,,,,3,0,4,,,,3,,68,127
18168,note_on,,,,,3,0,5,,,,4,,62,127
18180,note_off,,,,,84,0,1,,,,0,,69,0
18180,note_off,,,,,84,0,7,,,,6,,69,0
18186,note_off,,,,,42,0,6,,,,5,,52,0
18186,note_off,,,,,42,0,12,,,,13,,60,0
18186,note_off,,,,,0,0,12,,,,13,,69,0
18186,note_off,,,,,42,0,10,,,,11,,52,0
18186,note_off,,,,,0,0,12,,,,13,,52,0
18186,note_off,,,,,42,0,11,,,,12,,40,0
18189,note_off,,,,,21,0,5,,,,4,,62,0
18189,note_off,,,,,21,0,4,,,,3,,68,0
18189,note_off,,,,,21,0,3,,,,2,,71,0
18192,note_on,,,,,0,0,12,,,,13,,72,75
18192,note_on,,,,,3,0,4,,,,3,,69,127
18192,note_on,,,,,0,0,12,,,,13,,57,75
18192,note_on,,,,,6,0,11,,,,12,,45,75
18192,note_on,,,,,6,0,12,,,,13,,64,75
18192,note_on,,,,,3,0,3,,,,2,,72,127
18192,note_on,,,,,6,0,6,,,,5,,57,127
18192,note_on,,,,,3,0,5,,,,4,,64,127
18192,note_on,,,,,6,0,10,,,,11,,57,75
18213,note_off,,,,,21,0,3,,,,2,,72,0
18213,note_off,,,,,21,0,5,,,,4,,64,0
18216,note_on,,,,,3,0,3,,,,2,,69,127
18216,note_on,,,,,3,0,5,,,,4,,65,127
18234,note_off,,,,,42,0,6,,,,5,,57,0
18234,note_off,,,,,42,0,10,,,,11,,57,0
18234,note_off,,,,,0,0,12,,,,13,,72,0
18234,note_off,,,,,42,0,4,,,,3,,69,0
18234,note_off,,,,,42,0,11,,,,12,,45,0
18234,note_off,,,,,42,0,12,,,,13,,64,0
18234,note_off,,,,,0,0,12,,,,13,,57,0
18237,note_off,,,,,21,0,3,,,,2,,69,0
18237,note_off,,,,,21,0,5,,,,4,,65,0
18240,note_on,,,,,534,0,8,,,,7,,83,127
18240,note_on,,,,,3,0,3,,,,2,,74,127
18240,note_on,,,,,534,0,9,,,,8,,80,127
18240,note_on,,,,,3,0,5,,,,4,,62,127
18240,note_on,,,,,6,0,4,,,,3,,68,127
18240,note_on,,,,,6,0,11,,,,12,,35,75
18240,note_on,,,,,6,0,6,,,,5,,47,127
18240,note_on,,,,,6,0,10,,,,11,,47,75
18240,note_on,,,,,534,0,13,,,,14,,74,127
18240,note_on,,,,,0,0,12,,,,13,,74,75
18240,note_on,,,,,0,0,12,,,,13,,47,75
18240,note_on,,,,,6,0,12,,,,13,,68,75
18261,note_off,,,,,21,0,9,,,,8,,80,0
18261,note_off,,,,,21,0,13,,,,14,,74,0
18261,note_off,,,,,21,0,8,,,,7,,83,0
18264,note_on,,,,,3,0,9,,,,8,,81,127
18264,note_on,,,,,3,0,13,,,,14,,76,127
18264,note_on,,,,,3,0,8,,,,7,,84,127
18282,note_off,,,,,42,0,10,,,,11,,47,0
18282,note_off,,,,,42,0,4,,,,3,,68,0
18282,note_off,,,,,42,0,6,,,,5,,47,0
18282,note_off,,,,,42,0,3,,,,2,,74,0
18282,note_off,,,,,42,0,5,,,,4,,62,0
18282,note_off,,,,,42,0,11,,,,12,,35,0
18282,note_off,,,,,0,0,12,,,,13,,47,0
18282,note_off,,,,,0,0,12,,,,13,,74,0
18282,note_off,,,,,42,0,12,,,,13,,68,0
18285,note_off,,,,,21,0,8,,,,7,,84,0
18285,note_off,,,,,21,0,9,,,,8,,81,0
18285,note_off,,,,,21,0,13,,,,14,,76,0
18288,note_on,,,,,6,0,6,,,,5,,50,127
18288,note_on,,,,,3,0,9,,,,8,,80,127
18288,note_on,,,,,6,0,4,,,,3,,68,127
18288,note_on,,,,,6,0,11,,,,12,,38,75
18288,note_on,,,,,6,0,5,,,,4,,62,127
18288,note_on,,,,,6,0,10,,,,11,,50,75
18288,note_on,,,,,3,0,8,,,,7,,83,127
18288,note_on,,,,,0,0,12,,,,13,,50,75
18288,note_on,,,,,0,0,12,,,,13,,80,75
18288,note_on,,,,,6,0,3,,,,2,,74,127
18288,note_on,,,,,3,0,13,,,,14,,74,127
18288,note_on,,,,,6,0,12,,,,13,,71,75
18309,note_off,,,,,21,0,9,,,,8,,80,0
18309,note_off,,,,,21,0,13,,,,14,,74,0
18309,note_off,,,,,21,0,8,,,,7,,83,0
18312,note_on,,,,,3,0,8,,,,7,,84,127
18312,note_on,,,,,3,0,13,,,,14,,76,127
18312,note_on,,,,,3,0,9,,,,8,,81,127
18330,note_off,,,,,42,0,5,,,,4,,62,0
18330,note_off,,,,,0,0,12,,,,13,,80,0
18330,note_off,,,,,42,0,12,,,,13,,71,0
18330,note_off,,,,,42,0,11,,,,12,,38,0
18330,note_off,,,,,42,0,6,,,,5,,50,0
18330,note_off,,,,,42,0,3,,,,2,,74,0
18330,note_off,,,,,42,0,10,,,,11,,50,0
18330,note_off,,,,,0,0,12,,,,13,,50,0
18330,note_off,,,,,42,0,4,,,,3,,68,0
18333,note_off,,,,,21,0,13,,,,14,,76,0
18333,note_off,,,,,21,0,9,,,,8,,81,0
18333,note_off,,,,,21,0,8,,,,7,,84,0
18336,note_on,,,,,6,0,12,,,,13,,71,75
18336,note_on,,,,,6,0,11,,,,12,,44,75
18336,note_on,,,,,6,0,6,,,,5,,56,127
18336,note_on,,,,,0,0,12,,,,13,,74,75
18336,note_on,,,,,6,0,5,,,,4,,62,127
18336,note_on,,,,,6,0,4,,,,3,,68,127
18336,note_on,,,,,3,0,8,,,,7,,86,127
18336,note_on,,,,,3,0,13,,,,14,,77,127
18336,note_on,,,,,6,0,3,,,,2,,74,127
18336,note_on,,,,,6,0,10,,,,11,,56,75
18336,note_on,,,,,0,0,12,,,,13,,56,75
18336,note_on,,,,,3,0,9,,,,8,,83,127
18357,note_off,,,,,21,0,13,,,,14,,77,0
18357,note_off,,,,,21,0,8,,,,7,,86,0
18357,note_off,,,,,21,0,9,,,,8,,83,0
18360,note_on,,,,,3,0,9,,,,8,,76,127
18360,note_on,,,,,3,0,13,,,,14,,76,127
18360,note_on,,,,,3,0,8,,,,7,,84,127
18378,note_off,,,,,42,0,10,,,,11,,56,0
18378,note_off,,,,,42,0,11,,,,12,,44,0
18378,note_off,,,,,0,0,12,,,,13,,56,0
18378,note_off,,,,,0,0,12,,,,13,,74,0
18378,note_off,,,,,42,0,5,,,,4,,62,0
18378,note_off,,,,,42,0,3,,,,2,,74,0
18378,note_off,,,,,42,0,6,,,,5,,56,0
18378,note_off,,,,,42,0,12,,,,13,,71,0
18378,note_off,,,,,42,0,4,,,,3,,68,0
18381,note_off,,,,,21,0,9,,,,8,,76,0
18381,note_off,,,,,21,0,13,,,,14,,76,0
18381,note_off,,,,,21,0,8,,,,7,,84,0
18384,note_on,,,,,6,0,6,,,,5,,45,127
18384,note_on,,,,,6,0,11,,,,12,,33,75
18384,note_on,,,,,6,0,3,,,,2,,74,127
18384,note_on,,,,,6,0,5,,,,4,,65,127
18384,note_on,,,,,6,0,4,,,,3,,71,127
18384,note_on,,,,,0,0,12,,,,13,,74,75
18384,note_on,,,,,3,0,13,,,,14,,74,127
18384,note_on,,,,,6,0,10,,,,11,,45,75
18384,note_on,,,,,6,0,12,,,,13,,65,75
18384,note_on,,,,,3,0,9,,,,8,,77,127
18384,note_on,,,,,0,0,12,,,,13,,45,75
18384,note_on,,,,,3,0,8,,,,7,,83,127
18405,note_off,,,,,21,0,3,,,,2,,74,0
18408,note_on,,,,,3,0,3,,,,2,,76,127
18426,note_off,,,,,42,0,10,,,,11,,45,0
18426,note_off,,,,,42,0,11,,,,12,,33,0
18426,note_off,,,,,0,0,12,,,,13,,74,0
18426,note_off,,,,,42,0,6,,,,5,,45,0
18426,note_off,,,,,42,0,12,,,,13,,65,0
18426,note_off,,,,,42,0,5,,,,4,,65,0
18426,note_off,,,,,42,0,13,,,,14,,74,0
18426,note_off,,,,,42,0,4,,,,3,,71,0
18426,note_off,,,,,42,0,9,,,,8,,77,0
18426,note_off,,,,,0,0,12,,,,13,,45,0
18426,note_off,,,,,42,0,8,,,,7,,83,0
18429,note_off,,,,,21,0,3,,,,2,,76,0
18432,note_on,,,,,0,0,12,,,,13,,50,75
18432,note_on,,,,,6,0,10,,,,11,,50,75
18432,note_on,,,,,6,0,11,,,,12,,38,75
18432,note_on,,,,,0,0,12,,,,13,,71,75
18432,note_on,,,,,6,0,12,,,,13,,65,75
18432,note_on,,,,,6,0,13,,,,14,,74,127
18432,note_on,,,,,3,0,3,,,,2,,74,127
18432,note_on,,,,,6,0,9,,,,8,,77,127
18432,note_on,,,,,6,0,8,,,,7,,83,127
18432,note_on,,,,,6,0,6,,,,5,,50,127
18453,note_off,,,,,21,0,3,,,,2,,74,0
18456,note_on,,,,,3,0,3,,,,2,,72,127
18474,note_off,,,,,42,0,8,,,,7,,83,0
18474,note_off,,,,,42,0,9,,,,8,,77,0
18474,note_off,,,,,42,0,13,,,,14,,74,0
18474,note_off,,,,,0,0,12,,,,13,,50,0
18474,note_off,,,,,0,0,12,,,,13,,71,0
18474,note_off,,,,,42,0,12,,,,13,,65,0
18474,note_off,,,,,42,0,11,,,,12,,38,0
18474,note_off,,,,,42,0,6,,,,5,,50,0
18474,note_off,,,,,42,0,10,,,,11,,50,0
18477,note_off,,,,,21,0,3,,,,2,,72,0
18480,note_on,,,,,6,0,10,,,,11,,57,75
18480,note_on,,,,,6,0,9,,,,8,,77,127
18480,note_on,,,,,0,0,12,,,,13,,57,75
18480,note_on,,,,,0,0,12,,,,13,,74,75
18480,note_on,,,,,6,0,12,,,,13,,65,75
18480,note_on,,,,,6,0,6,,,,5,,57,127
18480,note_on,,,,,3,0,3,,,,2,,74,127
18480,note_on,,,,,6,0,11,,,,12,,45,75
18480,note_on,,,,,6,0,13,,,,14,,74,127
18480,note_on,,,,,6,0,8,,,,7,,83,127
18501,note_off,,,,,21,0,3,,,,2,,74,0
18504,note_on,,,,,3,0,3,,,,2,,71,127
18522,note_off,,,,,42,0,9,,,,8,,77,0
18522,note_off,,,,,42,0,10,,,,11,,57,0
18522,note_off,,,,,42,0,12,,,,13,,65,0
18522,note_off,,,,,42,0,11,,,,12,,45,0
18522,note_off,,,,,42,0,8,,,,7,,83,0
18522,note_off,,,,,0,0,12,,,,13,,74,0
18522,note_off,,,,,42,0,6,,,,5,,57,0
18522,note_off,,,,,42,0,13,,,,14,,74,0
18522,note_off,,,,,0,0,12,,,,13,,57,0
18525,note_off,,,,,21,0,3,,,,2,,71,0
18528,note_on,,,,,6,0,13,,,,14,,74,127
18528,note_on,,,,,102,0,5,,,,4,,64,127
18528,note_on,,,,,6,0,11,,,,12,,32,75
18528,note_on,,,,,6,0,10,,,,11,,44,75
18528,note_on,,,,,6,0,6,,,,5,,44,127
18528,note_on,,,,,102,0,4,,,,3,,71,127
18528,note_on,,,,,6,0,9,,,,8,,76,127
18528,note_on,,,,,0,0,12,,,,13,,71,75
18528,note_on,,,,,6,0,12,,,,13,,64,75
18528,note_on,,,,,0,0,12,,,,13,,44,75
18528,note_on,,,,,6,0,8,,,,7,,83,127
18528,note_on,,,,,3,0,3,,,,2,,83,127
18549,note_off,,,,,21,0,8,,,,7,,83,0
18549,note_off,,,,,21,0,13,,,,14,,74,0
18552,note_on,,,,,3,0,13,,,,14,,76,127
18552,note_on,,,,,3,0,8,,,,7,,84,127
18570,note_off,,,,,42,0,6,,,,5,,44,0
18570,note_off,,,,,42,0,3,,,,2,,83,0
18570,note_off,,,,,42,0,11,,,,12,,32,0
18570,note_off,,,,,42,0,10,,,,11,,44,0
18570,note_off,,,,,0,0,12,,,,13,,71,0
18570,note_off,,,,,0,0,12,,,,13,,44,0
18570,note_off,,,,,42,0,9,,,,8,,76,0
18570,note_off,,,,,42,0,4,,,,3,,71,0
18570,note_off,,,,,42,0,5,,,,4,,64,0
18570,note_off,,,,,42,0,12,,,,13,,64,0
18573,note_off,,,,,21,0,13,,,,14,,76,0
18573,note_off,,,,,21,0,8,,,,7,,84,0
18576,note_on,,,,,6,0,11,,,,12,,38,75
18576,note_on,,,,,0,0,12,,,,13,,71,75
18576,note_on,,,,,3,0,8,,,,7,,83,127
18576,note_on,,,,,6,0,12,,,,13,,62,75
18576,note_on,,,,,6,0,9,,,,8,,80,127
18576,note_on,,,,,6,0,4,,,,3,,71,127
18576,note_on,,,,,6,0,6,,,,5,,50,127
18576,note_on,,,,,3,0,13,,,,14,,74,127
18576,note_on,,,,,6,0,10,,,,11,,50,75
18576,note_on,,,,,0,0,12,,,,13,,50,75
18576,note_on,,,,,6,0,5,,,,4,,64,127
18576,note_on,,,,,6,0,3,,,,2,,74,127
18597,note_off,,,,,21,0,8,,,,7,,83,0
18597,note_off,,,,,21,0,13,,,,14,,74,0
18597,note_off,,,,,21,0,9,,,,8,,80,0
18600,note_on,,,,,3,0,13,,,,14,,76,127
18600,note_on,,,,,3,0,8,,,,7,,84,127
18600,note_on,,,,,3,0,9,,,,8,,81,127
18618,note_off,,,,,0,0,12,,,,13,,50,0
18618,note_off,,,,,42,0,6,,,,5,,50,0
18618,note_off,,,,,42,0,12,,,,13,,62,0
18618,note_off,,,,,0,0,12,,,,13,,71,0
18618,note_off,,,,,42,0,3,,,,2,,74,0
18618,note_off,,,,,42,0,5,,,,4,,64,0
18618,note_off,,,,,42,0,4,,,,3,,71,0
18618,note_off,,,,,42,0,10,,,,11,,50,0
18618,note_off,,,,,42,0,11,,,,12,,38,0
18621,note_off,,,,,21,0,9,,,,8,,81,0
18621,note_off,,,,,21,0,8,,,,7,,84,0
18621,note_off,,,,,21,0,13,,,,14,,76,0
18624,note_on,,,,,6,0,5,,,,4,,64,127
18624,note_on,,,,,3,0,9,,,,8,,83,127
18624,note_on,,,,,3,0,8,,,,7,,86,127
18624,note_on,,,,,6,0,4,,,,3,,71,127
18624,note_on,,,,,6,0,10,,,,11,,59,75
18624,note_on,,,,,3,0,13,,,,14,,77,127
18624,note_on,,,,,6,0,6,,,,5,,59,127
18624,note_on,,,,,6,0,12,,,,13,,71,75
18624,note_on,,,,,6,0,11,,,,12,,47,75
18624,note_on,,,,,0,0,12,,,,13,,74,75
18624,note_on,,,,,0,0,12,,,,13,,59,75
18624,note_on,,,,,6,0,3,,,,2,,74,127
18645,note_off,,,,,21,0,8,,,,7,,86,0
18645,note_off,,,,,21,0,13,,,,14,,77,0
18645,note_off,,,,,21,0,9,,,,8,,83,0
18648,note_on,,,,,3,0,8,,,,7,,84,127
18648,note_on,,,,,3,0,13,,,,14,,76,127
18648,note_on,,,,,3,0,9,,,,8,,81,127
18666,note_off,,,,,42,0,10,,,,11,,59,0
18666,note_off,,,,,42,0,4,,,,3,,71,0
18666,note_off,,,,,42,0,11,,,,12,,47,0
18666,note_off,,,,,42,0,5,,,,4,,64,0
18666,note_off,,,,,42,0,12,,,,13,,71,0
18666,note_off,,,,,42,0,3,,,,2,,74,0
18666,note_off,,,,,42,0,6,,,,5,,59,0
18666,note_off,,,,,0,0,12,,,,13,,59,0
18666,note_off,,,,,0,0,12,,,,13,,74,0
18669,note_off,,,,,21,0,9,,,,8,,81,0
18669,note_off,,,,,21,0,13,,,,14,,76,0
18669,note_off,,,,,21,0,8,,,,7,,84,0
18672,note_on,,,,,6,0,3,,,,2,,74,127
18672,note_on,,,,,6,0,10,,,,11,,56,75
18672,note_on,,,,,6,0,4,,,,3,,71,127
18672,note_on,,,,,3,0,13,,,,14,,74,127
18672,note_on,,,,,6,0,6,,,,5,,56,127
18672,note_on,,,,,3,0,9,,,,8,,80,127
18672,note_on,,,,,6,0,11,,,,12,,44,75
18672,note_on,,,,,3,0,8,,,,7,,83,127
18672,note_on,,,,,6,0,12,,,,13,,71,75
18672,note_on,,,,,0,0,12,,,,13,,74,75
18672,note_on,,,,,6,0,5,,,,4,,64,127
18672,note_on,,,,,0,0,12,,,,13,,56,75
18714,note_off,,,,,42,0,13,,,,14,,74,0
18714,note_off,,,,,42,0,8,,,,7,,83,0
18714,note_off,,,,,42,0,4,,,,3,,71,0
18714,note_off,,,,,42,0,10,,,,11,,56,0
18714,note_off,,,,,42,0,3,,,,2,,74,0
18714,note_off,,,,,42,0,12,,,,13,,71,0
18714,note_off,,,,,42,0,6,,,,5,,56,0
18714,note_off,,,,,0,0,12,,,,13,,56,0
18714,note_off,,,,,0,0,12,,,,13,,74,0
18714,note_off,,,,,42,0,5,,,,4,,64,0
18714,note_off,,,,,42,0,11,,,,12,,44,0
18714,note_off,,,,,42,0,9,,,,8,,80,0
18720,note_on,,,,,6,0,12,,,,13,,68,75
18720,note_on,,,,,6,0,11,,,,12,,40,75
18720,note_on,,,,,6,0,13,,,,14,,74,127
18720,note_on,,,,,6,0,9,,,,8,,80,127
18720,note_on,,,,,0,0,12,,,,13,,71,75
18720,note_on,,,,,6,0,6,,,,5,,52,127
18720,note_on,,,,,6,0,5,,,,4,,68,127
18720,note_on,,,,,6,0,8,,,,7,,83,127
18720,note_on,,,,,6,0,4,,,,3,,72,127
18720,note_on,,,,,6,0,10,,,,11,,52,75
18720,note_on,,,,,6,0,3,,,,2,,76,127
18720,note_on,,,,,0,0,12,,,,13,,52,75
18741,note_off,,,,,21,0,4,,,,3,,72,0
18741,note_off,,,,,21,0,3,,,,2,,76,0
18744,note_on,,,,,3,0,3,,,,2,,74,127
18744,note_on,,,,,3,0,4,,,,3,,71,127
18762,note_off,,,,,0,0,12,,,,13,,71,0
18762,note_off,,,,,42,0,11,,,,12,,40,0
18762,note_off,,,,,42,0,12,,,,13,,68,0
18762,note_off,,,,,0,0,12,,,,13,,52,0
18762,note_off,,,,,42,0,9,,,,8,,80,0
18762,note_off,,,,,42,0,6,,,,5,,52,0
18762,note_off,,,,,42,0,8,,,,7,,83,0
18762,note_off,,,,,42,0,13,,,,14,,74,0
18762,note_off,,,,,42,0,10,,,,11,,52,0
18762,note_off,,,,,42,0,5,,,,4,,68,0
18765,note_off,,,,,21,0,4,,,,3,,71,0
18765,note_off,,,,,21,0,3,,,,2,,74,0
18768,note_on,,,,,6,0,9,,,,8,,80,127
18768,note_on,,,,,6,0,6,,,,5,,40,127
18768,note_on,,,,,6,0,12,,,,13,,69,75
18768,note_on,,,,,3,0,3,,,,2,,72,127
18768,note_on,,,,,0,0,12,,,,13,,72,75
18768,note_on,,,,,0,0,12,,,,13,,40,75
18768,note_on,,,,,6,0,8,,,,7,,83,127
18768,note_on,,,,,6,0,13,,,,14,,74,127
18768,note_on,,,,,6,0,10,,,,11,,40,75
18768,note_on,,,,,6,0,5,,,,4,,64,127
18768,note_on,,,,,6,0,11,,,,12,,28,75
18768,note_on,,,,,3,0,4,,,,3,,69,127
18789,note_off,,,,,21,0,3,,,,2,,72,0
18789,note_off,,,,,21,0,4,,,,3,,69,0
18792,note_on,,,,,3,0,3,,,,2,,71,127
18792,note_on,,,,,3,0,4,,,,3,,68,127
18810,note_off,,,,,42,0,6,,,,5,,40,0
18810,note_off,,,,,42,0,8,,,,7,,83,0
18810,note_off,,,,,42,0,5,,,,4,,64,0
18810,note_off,,,,,42,0,12,,,,13,,69,0
18810,note_off,,,,,0,0,12,,,,13,,72,0
18810,note_off,,,,,0,0,12,,,,13,,40,0
18810,note_off,,,,,42,0,13,,,,14,,74,0
18810,note_off,,,,,42,0,10,,,,11,,40,0
18810,note_off,,,,,42,0,11,,,,12,,28,0
18810,note_off,,,,,42,0,9,,,,8,,80,0
18813,note_off,,,,,21,0,4,,,,3,,68,0
18813,note_off,,,,,21,0,3,,,,2,,71,0
18816,note_on,,,,,6,0,9,,,,8,,76,127
18816,note_on,,,,,6,0,13,,,,14,,72,127
18816,note_on,,,,,6,0,8,,,,7,,81,127
18816,note_on,,,,,3,0,3,,,,2,,72,127
18816,note_on,,,,,6,0,6,,,,5,,45,127
18816,note_on,,,,,0,0,12,,,,13,,45,75
18816,note_on,,,,,0,0,12,,,,13,,72,75
18816,note_on,,,,,6,0,11,,,,12,,33,75
18816,note_on,,,,,6,0,12,,,,13,,64,75
18816,note_on,,,,,6,0,10,,,,11,,45,75
18816,note_on,,,,,3,0,4,,,,3,,69,127
18816,note_on,,,,,6,0,5,,,,4,,64,127
18837,note_off,,,,,21,0,13,,,,14,,72,0
18837,note_off,,,,,21,0,9,,,,8,,76,0
18837,note_off,,,,,21,0,8,,,,7,,81,0
18840,note_on,,,,,3,0,13,,,,14,,74,127
18840,note_on,,,,,3,0,9,,,,8,,77,127
18840,note_on,,,,,3,0,8,,,,7,,83,127
18858,note_off,,,,,0,0,12,,,,13,,72,0
18858,note_off,,,,,42,0,12,,,,13,,64,0
18858,note_off,,,,,42,0,5,,,,4,,64,0
18858,note_off,,,,,42,0,10,,,,11,,45,0
18858,note_off,,,,,42,0,4,,,,3,,69,0
18858,note_off,,,,,42,0,3,,,,2,,72,0
18858,note_off,,,,,42,0,6,,,,5,,45,0
18858,note_off,,,,,0,0,12,,,,13,,45,0
18858,note_off,,,,,42,0,11,,,,12,,33,0
18861,note_off,,,,,21,0,8,,,,7,,83,0
18861,note_off,,,,,21,0,13,,,,14,,74,0
18861,note_off,,,,,21,0,9,,,,8,,77,0
18864,note_on,,,,,3,0,13,,,,14,,72,127
18864,note_on,,,,,6,0,3,,,,2,,72,127
18864,note_on,,,,,6,0,10,,,,11,,52,75
18864,note_on,,,,,6,0,6,,,,5,,52,127
18864,note_on,,,,,6,0,12,,,,13,,69,75
18864,note_on,,,,,0,0,12,,,,13,,72,75
18864,note_on,,,,,3,0,9,,,,8,,76,127
18864,note_on,,,,,6,0,4,,,,3,,69,127
18864,note_on,,,,,3,0,8,,,,7,,81,127
18864,note_on,,,,,6,0,11,,,,12,,40,75
18864,note_on,,,,,6,0,5,,,,4,,64,127
18864,note_on,,,,,0,0,12,,,,13,,52,75
18885,note_off,,,,,21,0,13,,,,14,,72,0
18885,note_off,,,,,21,0,9,,,,8,,76,0
18885,note_off,,,,,21,0,8,,,,7,,81,0
18888,note_on,,,,,3,0,13,,,,14,,74,127
18888,note_on,,,,,3,0,8,,,,7,,83,127
18888,note_on,,,,,3,0,9,,,,8,,74,127
18906,note_off,,,,,42,0,6,,,,5,,52,0
18906,note_off,,,,,42,0,5,,,,4,,64,0
18906,note_off,,,,,42,0,4,,,,3,,69,0
18906,note_off,,,,,42,0,11,,,,12,,40,0
18906,note_off,,,,,42,0,10,,,,11,,52,0
18906,note_off,,,,,42,0,12,,,,13,,69,0
18906,note_off,,,,,0,0,12,,,,13,,72,0
18906,note_off,,,,,0,0,12,,,,13,,52,0
18906,note_off,,,,,42,0,3,,,,2,,72,0
18909,note_off,,,,,21,0,8,,,,7,,83,0
18909,note_off,,,,,21,0,13,,,,14,,74,0
18909,note_off,,,,,21,0,9,,,,8,,74,0
18912,note_on,,,,,6,0,11,,,,12,,45,75
18912,note_on,,,,,6,0,3,,,,2,,72,127
18912,note_on,,,,,3,0,13,,,,14,,76,127
18912,note_on,,,,,6,0,4,,,,3,,69,127
18912,note_on,,,,,6,0,5,,,,4,,64,127
18912,note_on,,,,,6,0,12,,,,13,,64,75
18912,note_on,,,,,0,0,12,,,,13,,57,75
18912,note_on,,,,,6,0,10,,,,11,,57,75
18912,note_on,,,,,3,0,9,,,,8,,72,127
18912,note_on,,,,,3,0,8,,,,7,,84,127
18912,note_on,,,,,6,0,6,,,,5,,57,127
18912,note_on,,,,,0,0,12,,,,13,,72,75
18933,note_off,,,,,21,0,8,,,,7,,84,0
18933,note_off,,,,,21,0,9,,,,8,,72,0
18933,note_off,,,,,21,0,13,,,,14,,76,0
18936,note_on,,,,,3,0,13,,,,14,,74,127
18936,note_on,,,,,3,0,9,,,,8,,74,127
18936,note_on,,,,,3,0,8,,,,7,,83,127
18954,note_off,,,,,0,0,12,,,,13,,72,0
18954,note_off,,,,,42,0,3,,,,2,,72,0
18954,note_off,,,,,42,0,10,,,,11,,57,0
18954,note_off,,,,,42,0,12,,,,13,,64,0
18954,note_off,,,,,42,0,4,,,,3,,69,0
18954,note_off,,,,,42,0,6,,,,5,,57,0
18954,note_off,,,,,42,0,5,,,,4,,64,0
18954,note_off,,,,,42,0,11,,,,12,,45,0
18954,note_off,,,,,0,0,12,,,,13,,57,0
18957,note_off,,,,,21,0,13,,,,14,,74,0
18957,note_off,,,,,21,0,8,,,,7,,83,0
18957,note_off,,,,,21,0,9,,,,8,,74,0
18960,note_on,,,,,6,0,10,,,,11,,43,75
18960,note_on,,,,,6,0,5,,,,4,,64,127
18960,note_on,,,,,6,0,11,,,,12,,31,75
18960,note_on,,,,,6,0,4,,,,3,,69,127
18960,note_on,,,,,6,0,6,,,,5,,43,127
18960,note_on,,,,,6,0,12,,,,13,,64,75
18960,note_on,,,,,0,0,12,,,,13,,72,75
18960,note_on,,,,,0,0,12,,,,13,,43,75
18960,note_on,,,,,3,0,9,,,,8,,76,127
18960,note_on,,,,,3,0,8,,,,7,,81,127
18960,note_on,,,,,3,0,13,,,,14,,72,127
18960,note_on,,,,,6,0,3,,,,2,,72,127
18981,note_off,,,,,21,0,3,,,,2,,72,0
18984,note_on,,,,,3,0,3,,,,2,,74,127
19002,note_off,,,,,42,0,5,,,,4,,64,0
19002,note_off,,,,,42,0,10,,,,11,,43,0
19002,note_off,,,,,42,0,8,,,,7,,81,0
19002,note_off,,,,,42,0,13,,,,14,,72,0
19002,note_off,,,,,42,0,4,,,,3,,69,0
19002,note_off,,,,,42,0,12,,,,13,,64,0
19002,note_off,,,,,0,0,12,,,,13,,72,0
19002,note_off,,,,,0,0,12,,,,13,,43,0
19002,note_off,,,,,42,0,11,,,,12,,31,0
19002,note_off,,,,,42,0,9,,,,8,,76,0
19002,note_off,,,,,42,0,6,,,,5,,43,0
19005,note_off,,,,,21,0,3,,,,2,,74,0
19008,note_on,,,,,0,0,12,,,,13,,52,75
19008,note_on,,,,,6,0,8,,,,7,,81,127
19008,note_on,,,,,3,0,3,,,,2,,72,127
19008,note_on,,,,,6,0,10,,,,11,,52,75
19008,note_on,,,,,0,0,12,,,,13,,72,75
19008,note_on,,,,,6,0,11,,,,12,,40,75
19008,note_on,,,,,6,0,12,,,,13,,69,75
19008,note_on,,,,,6,0,13,,,,14,,72,127
19008,note_on,,,,,6,0,6,,,,5,,52,127
19008,note_on,,,,,6,0,9,,,,8,,76,127
19029,note_off,,,,,21,0,3,,,,2,,72,0
19032,note_on,,,,,3,0,3,,,,2,,71,127
19050,note_off,,,,,42,0,9,,,,8,,76,0
19050,note_off,,,,,42,0,8,,,,7,,81,0
19050,note_off,,,,,42,0,12,,,,13,,69,0
19050,note_off,,,,,0,0,12,,,,13,,72,0
19050,note_off,,,,,0,0,12,,,,13,,52,0
19050,note_off,,,,,42,0,6,,,,5,,52,0
19050,note_off,,,,,42,0,13,,,,14,,72,0
19050,note_off,,,,,42,0,11,,,,12,,40,0
19050,note_off,,,,,42,0,10,,,,11,,52,0
19053,note_off,,,,,21,0,3,,,,2,,71,0
19056,note_on,,,,,6,0,12,,,,13,,64,75
19056,note_on,,,,,6,0,13,,,,14,,72,127
19056,note_on,,,,,6,0,11,,,,12,,45,75
19056,note_on,,,,,3,0,3,,,,2,,72,127
19056,note_on,,,,,0,0,12,,,,13,,72,75
19056,note_on,,,,,6,0,8,,,,7,,81,127
19056,note_on,,,,,6,0,6,,,,5,,57,127
19056,note_on,,,,,6,0,9,,,,8,,76,127
19056,note_on,,,,,0,0,12,,,,13,,57,75
19056,note_on,,,,,6,0,10,,,,11,,57,75
19077,note_off,,,,,21,0,3,,,,2,,72,0
19080,note_on,,,,,3,0,3,,,,2,,69,127
19098,note_off,,,,,42,0,10,,,,11,,57,0
19098,note_off,,,,,0,0,12,,,,13,,57,0
19098,note_off,,,,,42,0,11,,,,12,,45,0
19098,note_off,,,,,0,0,12,,,,13,,72,0
19098,note_off,,,,,42,0,12,,,,13,,64,0
19098,note_off,,,,,42,0,13,,,,14,,72,0
19098,note_off,,,,,42,0,8,,,,7,,81,0
19098,note_off,,,,,42,0,9,,,,8,,76,0
19098,note_off,,,,,42,0,6,,,,5,,57,0
19101,note_off,,,,,21,0,3,,,,2,,69,0
19104,note_on,,,,,3,0,3,,,,2,,81,127
19104,note_on,,,,,6,0,8,,,,7,,81,127
19104,note_on,,,,,6,0,6,,,,5,,41,127
19104,note_on,,,,,102,0,4,,,,3,,69,127
19104,note_on,,,,,6,0,9,,,,8,,77,127
19104,note_on,,,,,6,0,13,,,,14,,72,127
19104,note_on,,,,,6,0,12,,,,13,,60,75
19104,note_on,,,,,0,0,12,,,,13,,69,75
19104,note_on,,,,,0,0,12,,,,13,,41,75
19104,note_on,,,,,6,0,10,,,,11,,41,75
19104,note_on,,,,,6,0,11,,,,12,,29,75
19104,note_on,,,,,102,0,5,,,,4,,65,127
19125,note_off,,,,,21,0,8,,,,7,,81,0
19125,note_off,,,,,21,0,13,,,,14,,72,0
19125,note_off,,,,,21,0,9,,,,8,,77,0
19128,note_on,,,,,3,0,13,,,,14,,74,127
19128,note_on,,,,,3,0,8,,,,7,,83,127
19128,note_on,,,,,3,0,9,,,,8,,79,127
19146,note_off,,,,,42,0,3,,,,2,,81,0
19146,note_off,,,,,42,0,6,,,,5,,41,0
19146,note_off,,,,,42,0,11,,,,12,,29,0
19146,note_off,,,,,42,0,4,,,,3,,69,0
19146,note_off,,,,,42,0,12,,,,13,,60,0
19146,note_off,,,,,0,0,12,,,,13,,69,0
19146,note_off,,,,,42,0,10,,,,11,,41,0
19146,note_off,,,,,0,0,12,,,,13,,41,0
19146,note_off,,,,,42,0,5,,,,4,,65,0
19149,note_off,,,,,21,0,9,,,,8,,79,0
19149,note_off,,,,,21,0,13,,,,14,,74,0
19149,note_off,,,,,21,0,8,,,,7,,83,0
19152,note_on,,,,,3,0,9,,,,8,,77,127
19152,note_on,,,,,3,0,8,,,,7,,81,127
19152,note_on,,,,,0,0,12,,,,13,,53,75
19152,note_on,,,,,0,0,12,,,,13,,72,75
19152,note_on,,,,,6,0,12,,,,13,,69,75
19152,note_on,,,,,6,0,11,,,,12,,41,75
19152,note_on,,,,,6,0,10,,,,11,,53,75
19152,note_on,,,,,6,0,5,,,,4,,65,127
19152,note_on,,,,,6,0,4,,,,3,,69,127
19152,note_on,,,,,3,0,13,,,,14,,72,127
19152,note_on,,,,,6,0,3,,,,2,,72,127
19152,note_on,,,,,6,0,6,,,,5,,53,127
19173,note_off,,,,,21,0,13,,,,14,,72,0
19173,note_off,,,,,21,0,9,,,,8,,77,0
19173,note_off,,,,,21,0,8,,,,7,,81,0
19176,note_on,,,,,3,0,13,,,,14,,74,127
19176,note_on,,,,,3,0,8,,,,7,,83,127
19176,note_on,,,,,3,0,9,,,,8,,79,127
19194,note_off,,,,,0,0,12,,,,13,,72,0
19194,note_off,,,,,42,0,4,,,,3,,69,0
19194,note_off,,,,,42,0,11,,,,12,,41,0
19194,note_off,,,,,42,0,5,,,,4,,65,0
19194,note_off,,,,,42,0,12,,,,13,,69,0
19194,note_off,,,,,42,0,3,,,,2,,72,0
19194,note_off,,,,,42,0,6,,,,5,,53,0
19194,note_off,,,,,42,0,10,,,,11,,53,0
19194,note_off,,,,,0,0,12,,,,13,,53,0
19197,note_off,,,,,21,0,9,,,,8,,79,0
19197,note_off,,,,,21,0,8,,,,7,,83,0
19197,note_off,,,,,21,0,13,,,,14,,74,0
19200,note_on,,,,,3,0,13,,,,14,,76,127
19200,note_on,,,,,3,0,8,,,,7,,84,127
19200,note_on,,,,,6,0,4,,,,3,,69,127
19200,note_on,,,,,6,0,3,,,,2,,72,127
19200,note_on,,,,,6,0,11,,,,12,,36,75
19200,note_on,,,,,6,0,12,,,,13,,69,75
19200,note_on,,,,,0,0,12,,,,13,,77,75
19200,note_on,,,,,0,0,12,,,,13,,48,75
19200,note_on,,,,,6,0,5,,,,4,,65,127
19200,note_on,,,,,6,0,10,,,,11,,48,75
19200,note_on,,,,,6,0,6,,,,5,,48,127
19200,note_on,,,,,3,0,9,,,,8,,81,127
19221,note_off,,,,,21,0,8,,,,7,,84,0
19221,note_off,,,,,21,0,13,,,,14,,76,0
19221,note_off,,,,,21,0,9,,,,8,,81,0
19224,note_on,,,,,3,0,13,,,,14,,74,127
19224,note_on,,,,,3,0,8,,,,7,,83,127
19224,note_on,,,,,3,0,9,,,,8,,79,127
19242,note_off,,,,,42,0,4,,,,3,,69,0
19242,note_off,,,,,42,0,3,,,,2,,72,0
19242,note_off,,,,,0,0,12,,,,13,,77,0
19242,note_off,,,,,42,0,12,,,,13,,69,0
19242,note_off,,,,,0,0,12,,,,13,,48,0
19242,note_off,,,,,42,0,11,,,,12,,36,0
19242,note_off,,,,,42,0,5,,,,4,,65,0
19242,note_off,,,,,42,0,10,,,,11,,48,0
19242,note_off,,,,,42,0,6,,,,5,,48,0
19245,note_off,,,,,21,0,13,,,,14,,74,0
19245,note_off,,,,,21,0,9,,,,8,,79,0
19245,note_off,,,,,21,0,8,,,,7,,83,0
19248,note_on,,,,,3,0,13,,,,14,,72,127
19248,note_on,,,,,6,0,10,,,,11,,50,75
19248,note_on,,,,,6,0,11,,,,12,,38,75
19248,note_on,,,,,6,0,6,,,,5,,50,127
19248,note_on,,,,,6,0,12,,,,13,,69,75
19248,note_on,,,,,0,0,12,,,,13,,77,75
19248,note_on,,,,,0,0,12,,,,13,,50,75
19248,note_on,,,,,3,0,8,,,,7,,81,127
19248,note_on,,,,,6,0,5,,,,4,,65,127
19248,note_on,,,,,6,0,3,,,,2,,72,127
19248,note_on,,,,,6,0,4,,,,3,,69,127
19248,note_on,,,,,3,0,9,,,,8,,77,127
19290,note_off,,,,,42,0,11,,,,12,,38,0
19290,note_off,,,,,42,0,12,,,,13,,69,0
19290,note_off,,,,,42,0,6,,,,5,,50,0
19290,note_off,,,,,42,0,13,,,,14,,72,0
19290,note_off,,,,,42,0,9,,,,8,,77,0
19290,note_off,,,,,0,0,12,,,,13,,77,0
19290,note_off,,,,,0,0,12,,,,13,,50,0
19290,note_off,,,,,42,0,10,,,,11,,50,0
19290,note_off,,,,,42,0,8,,,,7,,81,0
19290,note_off,,,,,42,0,5,,,,4,,65,0
19290,note_off,,,,,42,0,4,,,,3,,69,0
19290,note_off,,,,,42,0,3,,,,2,,72,0
19296,note_on,,,,,6,0,9,,,,8,,77,127
19296,note_on,,,,,6,0,5,,,,4,,69,127
19296,note_on,,,,,6,0,3,,,,2,,74,127
19296,note_on,,,,,6,0,11,,,,12,,41,75
19296,note_on,,,,,6,0,6,,,,5,,53,127
19296,note_on,,,,,0,0,12,,,,13,,53,75
19296,note_on,,,,,6,0,13,,,,14,,71,127
19296,note_on,,,,,6,0,12,,,,13,,69,75
19296,note_on,,,,,6,0,8,,,,7,,83,127
19296,note_on,,,,,0,0,12,,,,13,,72,75
19296,note_on,,,,,6,0,4,,,,3,,69,127
19296,note_on,,,,,6,0,10,,,,11,,53,75
19317,note_off,,,,,21,0,13,,,,14,,71,0
19317,note_off,,,,,21,0,3,,,,2,,74,0
19317,note_off,,,,,21,0,8,,,,7,,83,0
19320,note_on,,,,,3,0,13,,,,14,,72,127
19320,note_on,,,,,3,0,3,,,,2,,72,127
19320,note_on,,,,,3,0,8,,,,7,,81,127
19338,note_off,,,,,42,0,6,,,,5,,53,0
19338,note_off,,,,,42,0,10,,,,11,,53,0
19338,note_off,,,,,0,0,12,,,,13,,72,0
19338,note_off,,,,,42,0,12,,,,13,,69,0
19338,note_off,,,,,42,0,4,,,,3,,69,0
19338,note_off,,,,,0,0,12,,,,13,,53,0
19338,note_off,,,,,42,0,11,,,,12,,41,0
19338,note_off,,,,,42,0,9,,,,8,,77,0
19338,note_off,,,,,42,0,5,,,,4,,69,0
19341,note_off,,,,,21,0,8,,,,7,,81,0
19341,note_off,,,,,21,0,13,,,,14,,72,0
19341,note_off,,,,,21,0,3,,,,2,,72,0
19344,note_on,,,,,6,0,9,,,,8,,77,127
19344,note_on,,,,,6,0,11,,,,12,,35,75
19344,note_on,,,,,6,0,5,,,,4,,71,127
19344,note_on,,,,,3,0,8,,,,7,,80,127
19344,note_on,,,,,6,0,10,,,,11,,47,75
19344,note_on,,,,,6,0,12,,,,13,,68,75
19344,note_on,,,,,0,0,12,,,,13,,47,75
19344,note_on,,,,,6,0,4,,,,3,,62,127
19344,note_on,,,,,3,0,13,,,,14,,74,127
19344,note_on,,,,,3,0,3,,,,2,,71,127
19344,note_on,,,,,0,0,12,,,,13,,74,75
19344,note_on,,,,,6,0,6,,,,5,,47,127
19365,note_off,,,,,21,0,13,,,,14,,74,0
19365,note_off,,,,,21,0,3,,,,2,,71,0
19365,note_off,,,,,21,0,8,,,,7,,80,0
19368,note_on,,,,,3,0,13,,,,14,,72,127
19368,note_on,,,,,3,0,3,,,,2,,69,127
19368,note_on,,,,,3,0,8,,,,7,,81,127
19386,note_off,,,,,42,0,4,,,,3,,62,0
19386,note_off,,,,,42,0,12,,,,13,,68,0
19386,note_off,,,,,42,0,11,,,,12,,35,0
19386,note_off,,,,,42,0,9,,,,8,,77,0
19386,note_off,,,,,42,0,6,,,,5,,47,0
19386,note_off,,,,,42,0,10,,,,11,,47,0
19386,note_off,,,,,0,0,12,,,,13,,47,0
19386,note_off,,,,,0,0,12,,,,13,,74,0
19386,note_off,,,,,42,0,5,,,,4,,71,0
19389,note_off,,,,,21,0,13,,,,14,,72,0
19389,note_off,,,,,21,0,8,,,,7,,81,0
19389,note_off,,,,,21,0,3,,,,2,,69,0
19392,note_on,,,,,6,0,12,,,,13,,68,75
19392,note_on,,,,,0,0,12,,,,13,,71,75
19392,note_on,,,,,6,0,6,,,,5,,40,127
19392,note_on,,,,,0,0,12,,,,13,,40,75
19392,note_on,,,,,3,0,8,,,,7,,83,127
19392,note_on,,,,,6,0,10,,,,11,,40,75
19392,note_on,,,,,6,0,9,,,,8,,68,127
19392,note_on,,,,,3,0,3,,,,2,,68,127
19392,note_on,,,,,3,0,13,,,,14,,71,127
19392,note_on,,,,,6,0,11,,,,12,,28,75
19392,note_on,,,,,6,0,4,,,,3,,62,127
19392,note_on,,,,,6,0,5,,,,4,,71,127
19413,note_off,,,,,21,0,3,,,,2,,68,0
19416,note_on,,,,,3,0,3,,,,2,,66,127
19434,note_off,,,,,42,0,13,,,,14,,71,0
19434,note_off,,,,,42,0,8,,,,7,,83,0
19434,note_off,,,,,42,0,6,,,,5,,40,0
19434,note_off,,,,,42,0,9,,,,8,,68,0
19434,note_off,,,,,42,0,5,,,,4,,71,0
19434,note_off,,,,,0,0,12,,,,13,,40,0
19434,note_off,,,,,42,0,11,,,,12,,28,0
19434,note_off,,,,,42,0,4,,,,3,,62,0
19434,note_off,,,,,42,0,12,,,,13,,68,0
19434,note_off,,,,,42,0,10,,,,11,,40,0
19434,note_off,,,,,0,0,12,,,,13,,71,0
19437,note_off,,,,,21,0,3,,,,2,,66,0
19440,note_on,,,,,6,0,10,,,,11,,44,75
19440,note_on,,,,,3,0,3,,,,2,,68,127
19440,note_on,,,,,6,0,6,,,,5,,44,127
19440,note_on,,,,,6,0,4,,,,3,,62,127
19440,note_on,,,,,6,0,11,,,,12,,32,75
19440,note_on,,,,,6,0,12,,,,13,,44,75
19440,note_on,,,,,6,0,5,,,,4,,68,127
19461,note_off,,,,,21,0,3,,,,2,,68,0
19464,note_on,,,,,3,0,3,,,,2,,64,127
19482,note_off,,,,,42,0,11,,,,12,,32,0
19482,note_off,,,,,42,0,12,,,,13,,44,0
19482,note_off,,,,,42,0,10,,,,11,,44,0
19482,note_off,,,,,42,0,6,,,,5,,44,0
19482,note_off,,,,,42,0,5,,,,4,,68,0
19482,note_off,,,,,42,0,4,,,,3,,62,0
19485,note_off,,,,,21,0,3,,,,2,,64,0
19488,note_on,,,,,6,0,4,,,,3,,68,127
19488,note_on,,,,,6,0,10,,,,11,,47,75
19488,note_on,,,,,6,0,12,,,,13,,47,75
19488,note_on,,,,,3,0,3,,,,2,,71,127
19488,note_on,,,,,6,0,5,,,,4,,62,127
19488,note_on,,,,,6,0,6,,,,5,,47,127
19488,note_on,,,,,6,0,11,,,,12,,35,75
19509,note_off,,,,,21,0,3,,,,2,,71,0
19509,note_off,,,,,21,0,4,,,,3,,68,0
19509,note_off,,,,,21,0,5,,,,4,,62,0
19512,note_on,,,,,3,0,5,,,,4,,60,127
19512,note_on,,,,,3,0,3,,,,2,,69,127
19512,note_on,,,,,3,0,4,,,,3,,66,127
19530,note_off,,,,,42,0,11,,,,12,,35,0
19530,note_off,,,,,42,0,6,,,,5,,47,0
19530,note_off,,,,,42,0,12,,,,13,,47,0
19530,note_off,,,,,42,0,10,,,,11,,47,0
19533,note_off,,,,,21,0,3,,,,2,,69,0
19533,note_off,,,,,21,0,4,,,,3,,66,0
19533,note_off,,,,,21,0,5,,,,4,,60,0
19536,note_on,,,,,6,0,10,,,,11,,52,75
19536,note_on,,,,,6,0,6,,,,5,,52,127
19536,note_on,,,,,3,0,5,,,,4,,62,127
19536,note_on,,,,,6,0,12,,,,13,,52,75
19536,note_on,,,,,3,0,4,,,,3,,68,127
19536,note_on,,,,,3,0,3,,,,2,,71,127
19536,note_on,,,,,6,0,11,,,,12,,40,75
19557,note_off,,,,,21,0,4,,,,3,,68,0
19557,note_off,,,,,21,0,3,,,,2,,71,0
19560,note_on,,,,,3,0,3,,,,2,,68,127
19560,note_on,,,,,3,0,4,,,,3,,64,127
19578,note_off,,,,,42,0,11,,,,12,,40,0
19578,note_off,,,,,42,0,6,,,,5,,52,0
19578,note_off,,,,,42,0,10,,,,11,,52,0
19578,note_off,,,,,42,0,5,,,,4,,62,0
19578,note_off,,,,,42,0,12,,,,13,,52,0
19581,note_off,,,,,21,0,3,,,,2,,68,0
19581,note_off,,,,,21,0,4,,,,3,,64,0
19584,note_on,,,,,6,0,6,,,,5,,56,127
19584,note_on,,,,,6,0,10,,,,11,,56,75
19584,note_on,,,,,3,0,3,,,,2,,74,127
19584,note_on,,,,,6,0,12,,,,13,,56,75
19584,note_on,,,,,3,0,4,,,,3,,71,127
19584,note_on,,,,,6,0,11,,,,12,,44,75
19584,note_on,,,,,6,0,5,,,,4,,64,127
19605,note_off,,,,,21,0,4,,,,3,,71,0
19605,note_off,,,,,21,0,3,,,,2,,74,0
19608,note_on,,,,,3,0,4,,,,3,,69,127
19608,note_on,,,,,3,0,3,,,,2,,72,127
19626,note_off,,,,,42,0,12,,,,13,,56,0
19626,note_off,,,,,42,0,5,,,,4,,64,0
19626,note_off,,,,,42,0,11,,,,12,,44,0
19626,note_off,,,,,42,0,10,,,,11,,56,0
19626,note_off,,,,,42,0,6,,,,5,,56,0
19629,note_off,,,,,21,0,3,,,,2,,72,0
19629,note_off,,,,,21,0,4,,,,3,,69,0
19632,note_on,,,,,6,0,12,,,,13,,52,75
19632,note_on,,,,,6,0,11,,,,12,,40,75
19632,note_on,,,,,3,0,4,,,,3,,71,127
19632,note_on,,,,,6,0,6,,,,5,,52,127
19632,note_on,,,,,6,0,10,,,,11,,52,75
19632,note_on,,,,,3,0,3,,,,2,,74,127
19632,note_on,,,,,6,0,5,,,,4,,68,127
19653,note_off,,,,,21,0,3,,,,2,,74,0
19653,note_off,,,,,21,0,4,,,,3,,71,0
19656,note_on,,,,,3,0,3,,,,2,,71,127
19656,note_on,,,,,3,0,4,,,,3,,68,127
19674,note_off,,,,,42,0,6,,,,5,,52,0
19674,note_off,,,,,42,0,11,,,,12,,40,0
19674,note_off,,,,,42,0,10,,,,11,,52,0
19674,note_off,,,,,42,0,5,,,,4,,68,0
19674,note_off,,,,,42,0,12,,,,13,,52,0
19677,note_off,,,,,21,0,4,,,,3,,68,0
19677,note_off,,,,,21,0,3,,,,2,,71,0
19680,note_on,,,,,6,0,6,,,,5,,57,127
19680,note_on,,,,,6,0,5,,,,4,,64,127
19680,note_on,,,,,6,0,10,,,,11,,57,75
19680,note_on,,,,,3,0,4,,,,3,,69,127
19680,note_on,,,,,3,0,3,,,,2,,72,127
19680,note_on,,,,,6,0,11,,,,12,,45,75
19680,note_on,,,,,6,0,12,,,,13,,57,75
19701,note_off,,,,,21,0,11,,,,12,,45,0
19701,note_off,,,,,21,0,3,,,,2,,72,0
19701,note_off,,,,,21,0,12,,,,13,,57,0
19701,note_off,,,,,21,0,10,,,,11,,57,0
19701,note_off,,,,,21,0,6,,,,5,,57,0
19704,note_on,,,,,3,0,12,,,,13,,56,75
19704,note_on,,,,,3,0,10,,,,11,,56,75
19704,note_on,,,,,3,0,6,,,,5,,56,127
19704,note_on,,,,,3,0,3,,,,2,,71,127
19704,note_on,,,,,3,0,11,,,,12,,44,75
19725,note_off,,,,,21,0,12,,,,13,,56,0
19725,note_off,,,,,21,0,10,,,,11,,56,0
19725,note_off,,,,,21,0,6,,,,5,,56,0
19725,note_off,,,,,21,0,3,,,,2,,71,0
19725,note_off,,,,,21,0,11,,,,12,,44,0
19728,note_on,,,,,3,0,10,,,,11,,57,75
19728,note_on,,,,,3,0,6,,,,5,,57,127
19728,note_on,,,,,3,0,12,,,,13,,57,75
19728,note_on,,,,,3,0,11,,,,12,,45,75
19728,note_on,,,,,3,0,3,,,,2,,72,127
19743,note_off,,,,,63,0,4,,,,3,,69,0
19743,note_off,,,,,63,0,5,,,,4,,64,0
19749,note_off,,,,,21,0,11,,,,12,,45,0
19749,note_off,,,,,21,0,10,,,,11,,57,0
19749,note_off,,,,,21,0,6,,,,5,,57,0
19749,note_off,,,,,21,0,12,,,,13,,57,0
19749,note_off,,,,,21,0,3,,,,2,,72,0
19752,note_on,,,,,3,0,11,,,,12,,40,75
19752,note_on,,,,,3,0,12,,,,13,,52,75
19752,note_on,,,,,9,0,5,,,,4,,62,127
19752,note_on,,,,,3,0,6,,,,5,,52,127
19752,note_on,,,,,9,0,4,,,,3,,71,127
19752,note_on,,,,,3,0,3,,,,2,,68,127
19752,note_on,,,,,3,0,10,,,,11,,52,75
19773,note_off,,,,,21,0,4,,,,3,,71,0
19773,note_off,,,,,21,0,6,,,,5,,52,0
19773,note_off,,,,,21,0,11,,,,12,,40,0
19773,note_off,,,,,21,0,3,,,,2,,68,0
19773,note_off,,,,,21,0,10,,,,11,,52,0
19773,note_off,,,,,21,0,12,,,,13,,52,0
19773,note_off,,,,,21,0,5,,,,4,,62,0
19776,note_on,,,,,3,0,12,,,,13,,53,75
19776,note_on,,,,,3,0,11,,,,12,,41,75
19776,note_on,,,,,3,0,6,,,,5,,53,127
19776,note_on,,,,,3,0,3,,,,2,,69,127
19776,note_on,,,,,3,0,5,,,,4,,60,127
19776,note_on,,,,,3,0,10,,,,11,,53,75
19776,note_on,,,,,3,0,4,,,,3,,69,127
19797,note_off,,,,,21,0,3,,,,2,,69,0
19800,note_on,,,,,3,0,3,,,,2,,68,127
19821,note_off,,,,,21,0,3,,,,2,,68,0
19824,note_on,,,,,3,0,3,,,,2,,69,127
19845,note_off,,,,,69,0,5,,,,4,,60,0
19845,note_off,,,,,69,0,12,,,,13,,53,0
19845,note_off,,,,,69,0,10,,,,11,,53,0
19845,note_off,,,,,69,0,6,,,,5,,53,0
19845,note_off,,,,,69,0,11,,,,12,,41,0
19845,note_off,,,,,69,0,4,,,,3,,69,0
19845,note_off,,,,,21,0,3,,,,2,,69,0
19848,note_on,,,,,3,0,10,,,,11,,50,75
19848,note_on,,,,,3,0,11,,,,12,,38,75
19848,note_on,,,,,3,0,3,,,,2,,71,127
19848,note_on,,,,,3,0,6,,,,5,,50,127
19848,note_on,,,,,3,0,5,,,,4,,65,127
19848,note_on,,,,,3,0,12,,,,13,,50,75
19848,note_on,,,,,3,0,4,,,,3,,69,127
19869,note_off,,,,,21,0,12,,,,13,,50,0
19869,note_off,,,,,21,0,10,,,,11,,50,0
19869,note_off,,,,,21,0,4,,,,3,,69,0
19869,note_off,,,,,21,0,11,,,,12,,38,0
19869,note_off,,,,,21,0,5,,,,4,,65,0
19869,note_off,,,,,21,0,3,,,,2,,71,0
19869,note_off,,,,,21,0,6,,,,5,,50,0
19872,note_on,,,,,3,0,11,,,,12,,40,75
19872,note_on,,,,,3,0,10,,,,11,,52,75
19872,note_on,,,,,3,0,12,,,,13,,52,75
19872,note_on,,,,,3,0,4,,,,3,,68,127
19872,note_on,,,,,3,0,5,,,,4,,64,127
19872,note_on,,,,,3,0,6,,,,5,,52,127
19872,note_on,,,,,3,0,3,,,,2,,71,127
19914,note_off,,,,,42,0,6,,,,5,,52,0
19914,note_off,,,,,42,0,10,,,,11,,52,0
19914,note_off,,,,,42,0,12,,,,13,,52,0
19914,note_off,,,,,42,0,11,,,,12,,40,0
19920,note_on,,,,,6,0,6,,,,5,,40,127
19920,note_on,,,,,6,0,10,,,,11,,40,75
19920,note_on,,,,,6,0,11,,,,12,,28,75
19920,note_on,,,,,6,0,12,,,,13,,40,75
19935,note_off,,,,,63,0,5,,,,4,,64,0
19935,note_off,,,,,63,0,4,,,,3,,68,0
19935,note_off,,,,,63,0,3,,,,2,,71,0
19944,note_on,,,,,9,0,5,,,,4,,64,127
19944,note_on,,,,,9,0,4,,,,3,,69,127
19944,note_on,,,,,9,0,3,,,,2,,69,127
19962,note_off,,,,,42,0,12,,,,13,,40,0
19962,note_off,,,,,42,0,10,,,,11,,40,0
19962,note_off,,,,,42,0,6,,,,5,,40,0
19962,note_off,,,,,42,0,11,,,,12,,28,0
19965,note_off,,,,,21,0,3,,,,2,,69,0
19965,note_off,,,,,21,0,4,,,,3,,69,0
19965,note_off,,,,,21,0,5,,,,4,,64,0
19968,note_on,,,,,6,0,11,,,,12,,33,49
19968,note_on,,,,,6,0,10,,,,11,,45,49
19968,note_on,,,,,3,0,3,,,,2,,69,62
19968,note_on,,,,,3,0,5,,,,4,,60,62
19968,note_on,,,,,6,0,6,,,,5,,45,62
19968,note_on,,,,,3,0,4,,,,3,,64,62
19968,note_on,,,,,6,0,12,,,,13,,45,49
19989,note_off,,,,,21,0,12,,,,13,,45,0
19989,note_off,,,,,21,0,11,,,,12,,33,0
19989,note_off,,,,,21,0,6,,,,5,,45,0
19989,note_off,,,,,21,0,10,,,,11,,45,0
19992,note_on,,,,,3,0,11,,,,12,,35,49
19992,note_on,,,,,3,0,12,,,,13,,47,49
19992,note_on,,,,,3,0,6,,,,5,,47,62
19992,note_on,,,,,3,0,10,,,,11,,47,49
20010,note_off,,,,,42,0,4,,,,3,,64,0
20010,note_off,,,,,42,0,5,,,,4,,60,0
20010,note_off,,,,,42,0,3,,,,2,,69,0
20013,note_off,,,,,21,0,11,,,,12,,35,0
20013,note_off,,,,,21,0,12,,,,13,,47,0
20013,note_off,,,,,21,0,6,,,,5,,47,0
20013,note_off,,,,,21,0,10,,,,11,,47,0
20016,note_on,,,,,582,0,8,,,,7,,76,75
20016,note_on,,,,,1836,0,7,,,,6,,72,96
20016,note_on,,,,,582,0,13,,,,14,,69,75
20016,note_on,,,,,0,0,12,,,,13,,76,49
20016,note_on,,,,,582,0,9,,,,8,,72,75
20016,note_on,,,,,3,0,12,,,,13,,69,49
20016,note_on,,,,,3,0,11,,,,12,,36,49
20016,note_on,,,,,3,0,6,,,,5,,48,62
20016,note_on,,,,,0,0,12,,,,13,,48,49
20016,note_on,,,,,3,0,10,,,,11,,48,49
20037,note_off,,,,,21,0,10,,,,11,,48,0
20037,note_off,,,,,21,0,6,,,,5,,48,0
20037,note_off,,,,,21,0,12,,,,13,,48,0
20037,note_off,,,,,21,0,11,,,,12,,36,0
20040,note_on,,,,,3,0,6,,,,5,,47,62
20040,note_on,,,,,3,0,11,,,,12,,35,49
20040,note_on,,,,,3,0,10,,,,11,,47,49
20040,note_on,,,,,3,0,12,,,,13,,47,49
20058,note_off,,,,,42,0,13,,,,14,,69,0
20058,note_off,,,,,18,0,12,,,,13,,69,0
20058,note_off,,,,,0,0,12,,,,13,,76,0
20058,note_off,,,,,42,0,9,,,,8,,72,0
20058,note_off,,,,,42,0,7,,,,6,,72,0
20058,note_off,,,,,42,0,8,,,,7,,76,0
20061,note_off,,,,,21,0,11,,,,12,,35,0
20061,note_off,,,,,21,0,10,,,,11,,47,0
20061,note_off,,,,,21,0,6,,,,5,,47,0
20061,note_off,,,,,3,0,12,,,,13,,47,0
20064,note_on,,,,,6,0,8,,,,7,,81,75
20064,note_on,,,,,3,0,11,,,,12,,36,49
20064,note_on,,,,,3,0,10,,,,11,,48,49
20064,note_on,,,,,0,0,12,,,,13,,48,49
20064,note_on,,,,,3,0,12,,,,13,,69,49
20064,note_on,,,,,6,0,7,,,,6,,72,96
20064,note_on,,,,,3,0,6,,,,5,,48,62
20064,note_on,,,,,6,0,13,,,,14,,72,75
20064,note_on,,,,,0,0,12,,,,13,,76,49
20064,note_on,,,,,6,0,9,,,,8,,76,75
20085,note_off,,,,,21,0,11,,,,12,,36,0
20085,note_off,,,,,21,0,6,,,,5,,48,0
20085,note_off,,,,,21,0,10,,,,11,,48,0
20085,note_off,,,,,21,0,12,,,,13,,48,0
20088,note_on,,,,,3,0,12,,,,13,,45,49
20088,note_on,,,,,3,0,6,,,,5,,45,62
20088,note_on,,,,,3,0,11,,,,12,,33,49
20088,note_on,,,,,3,0,10,,,,11,,45,49
20106,note_off,,,,,42,0,9,,,,8,,76,0
20106,note_off,,,,,42,0,7,,,,6,,72,0
20106,note_off,,,,,42,0,13,,,,14,,72,0
20106,note_off,,,,,0,0,12,,,,13,,76,0
20106,note_off,,,,,42,0,8,,,,7,,81,0
20106,note_off,,,,,18,0,12,,,,13,,69,0
20109,note_off,,,,,21,0,11,,,,12,,33,0
20109,note_off,,,,,3,0,12,,,,13,,45,0
20109,note_off,,,,,21,0,6,,,,5,,45,0
20109,note_off,,,,,21,0,10,,,,11,,45,0
20112,note_on,,,,,3,0,10,,,,11,,50,49
20112,note_on,,,,,3,0,12,,,,13,,69,49
20112,note_on,,,,,6,0,13,,,,14,,69,75
20112,note_on,,,,,6,0,7,,,,6,,72,96
20112,note_on,,,,,3,0,6,,,,5,,50,62
20112,note_on,,,,,0,0,12,,,,13,,77,49
20112,note_on,,,,,6,0,9,,,,8,,74,75
20112,note_on,,,,,3,0,11,,,,12,,38,49
20112,note_on,,,,,6,0,8,,,,7,,77,75
20112,note_on,,,,,0,0,12,,,,13,,50,49
20133,note_off,,,,,21,0,10,,,,11,,50,0
20133,note_off,,,,,21,0,12,,,,13,,50,0
20133,note_off,,,,,21,0,11,,,,12,,38,0
20133,note_off,,,,,21,0,6,,,,5,,50,0
20133,note_off,,,,,21,0,7,,,,6,,72,0
20136,note_on,,,,,3,0,11,,,,12,,40,49
20136,note_on,,,,,3,0,7,,,,6,,75,96
20136,note_on,,,,,3,0,12,,,,13,,52,49
20136,note_on,,,,,3,0,10,,,,11,,52,49
20136,note_on,,,,,3,0,6,,,,5,,52,62
20154,note_off,,,,,18,0,12,,,,13,,69,0
20154,note_off,,,,,0,0,12,,,,13,,77,0
20154,note_off,,,,,42,0,13,,,,14,,69,0
20154,note_off,,,,,42,0,8,,,,7,,77,0
20154,note_off,,,,,42,0,9,,,,8,,74,0
20157,note_off,,,,,3,0,12,,,,13,,52,0
20157,note_off,,,,,21,0,10,,,,11,,52,0
20157,note_off,,,,,21,0,6,,,,5,,52,0
20157,note_off,,,,,21,0,11,,,,12,,40,0
20157,note_off,,,,,21,0,7,,,,6,,75,0
20160,note_on,,,,,150,0,4,,,,3,,65,62
20160,note_on,,,,,1980,0,1,,,,0,,77,127
20160,note_on,,,,,3,0,11,,,,12,,41,49
20160,note_on,,,,,3,0,6,,,,5,,53,62
20160,note_on,,,,,150,0,3,,,,2,,69,62
20160,note_on,,,,,3,0,12,,,,13,,69,49
20160,note_on,,,,,150,0,5,,,,4,,62,62
20160,note_on,,,,,0,0,12,,,,13,,74,49
20160,note_on,,,,,0,0,12,,,,13,,53,49
20160,note_on,,,,,3,0,10,,,,11,,53,49
20160,note_on,,,,,3,0,7,,,,6,,74,96
20181,note_off,,,,,21,0,7,,,,6,,74,0
20181,note_off,,,,,21,0,11,,,,12,,41,0
20181,note_off,,,,,21,0,12,,,,13,,53,0
20181,note_off,,,,,21,0,6,,,,5,,53,0
20181,note_off,,,,,21,0,10,,,,11,,53,0
20184,note_on,,,,,3,0,6,,,,5,,52,62
20184,note_on,,,,,3,0,12,,,,13,,52,49
20184,note_on,,,,,3,0,10,,,,11,,52,49
20184,note_on,,,,,3,0,11,,,,12,,40,49
20184,note_on,,,,,3,0,7,,,,6,,72,96
20202,note_off,,,,,0,0,12,,,,13,,74,0
20202,note_off,,,,,42,0,4,,,,3,,65,0
20202,note_off,,,,,42,0,5,,,,4,,62,0
20202,note_off,,,,,42,0,1,,,,0,,77,0
20202,note_off,,,,,42,0,3,,,,2,,69,0
20202,note_off,,,,,18,0,12,,,,13,,69,0
20205,note_off,,,,,21,0,10,,,,11,,52,0
20205,note_off,,,,,3,0,12,,,,13,,52,0
20205,note_off,,,,,21,0,11,,,,12,,40,0
20205,note_off,,,,,21,0,6,,,,5,,52,0
20205,note_off,,,,,21,0,7,,,,6,,72,0
20208,note_on,,,,,6,0,3,,,,2,,74,62
20208,note_on,,,,,3,0,6,,,,5,,53,62
20208,note_on,,,,,0,0,12,,,,13,,74,49
20208,note_on,,,,,6,0,4,,,,3,,69,62
20208,note_on,,,,,6,0,5,,,,4,,65,62
20208,note_on,,,,,3,0,7,,,,6,,70,96
20208,note_on,,,,,3,0,11,,,,12,,41,49
20208,note_on,,,,,3,0,12,,,,13,,69,49
20208,note_on,,,,,6,0,1,,,,0,,77,127
20208,note_on,,,,,0,0,12,,,,13,,53,49
20208,note_on,,,,,3,0,10,,,,11,,53,49
20229,note_off,,,,,21,0,7,,,,6,,70,0
20229,note_off,,,,,21,0,12,,,,13,,53,0
20229,note_off,,,,,21,0,6,,,,5,,53,0
20229,note_off,,,,,21,0,10,,,,11,,53,0
20229,note_off,,,,,21,0,11,,,,12,,41,0
20232,note_on,,,,,3,0,11,,,,12,,38,49
20232,note_on,,,,,3,0,6,,,,5,,50,62
20232,note_on,,,,,3,0,12,,,,13,,50,49
20232,note_on,,,,,3,0,7,,,,6,,69,96
20232,note_on,,,,,3,0,10,,,,11,,50,49
20250,note_off,,,,,42,0,5,,,,4,,65,0
20250,note_off,,,,,42,0,4,,,,3,,69,0
20250,note_off,,,,,18,0,12,,,,13,,69,0
20250,note_off,,,,,0,0,12,,,,13,,74,0
20250,note_off,,,,,42,0,1,,,,0,,77,0
20250,note_off,,,,,42,0,3,,,,2,,74,0
20253,note_off,,,,,21,0,6,,,,5,,50,0
20253,note_off,,,,,21,0,10,,,,11,,50,0
20253,note_off,,,,,21,0,11,,,,12,,38,0
20253,note_off,,,,,21,0,7,,,,6,,69,0
20253,note_off,,,,,3,0,12,,,,13,,50,0
20256,note_on,,,,,3,0,6,,,,5,,43,62
20256,note_on,,,,,6,0,3,,,,2,,70,62
20256,note_on,,,,,3,0,12,,,,13,,62,49
20256,note_on,,,,,3,0,10,,,,11,,43,49
20256,note_on,,,,,6,0,1,,,,0,,77,127
20256,note_on,,,,,0,0,12,,,,13,,43,49
20256,note_on,,,,,3,0,11,,,,12,,31,49
20256,note_on,,,,,3,0,7,,,,6,,70,96
20256,note_on,,,,,6,0,5,,,,4,,62,62
20256,note_on,,,,,6,0,4,,,,3,,67,62
20256,note_on,,,,,0,0,12,,,,13,,70,49
20277,note_off,,,,,21,0,6,,,,5,,43,0
20277,note_off,,,,,21,0,1,,,,0,,77,0
20277,note_off,,,,,21,0,11,,,,12,,31,0
20277,note_off,,,,,21,0,10,,,,11,,43,0
20277,note_off,,,,,21,0,12,,,,13,,43,0
20280,note_on,,,,,3,0,6,,,,5,,45,62
20280,note_on,,,,,3,0,11,,,,12,,33,49
20280,note_on,,,,,3,0,1,,,,0,,76,127
20280,note_on,,,,,3,0,12,,,,13,,45,49
20280,note_on,,,,,3,0,10,,,,11,,45,49
20298,note_off,,,,,42,0,4,,,,3,,67,0
20298,note_off,,,,,42,0,7,,,,6,,70,0
20298,note_off,,,,,42,0,5,,,,4,,62,0
20298,note_off,,,,,18,0,12,,,,13,,62,0
20298,note_off,,,,,42,0,3,,,,2,,70,0
20298,note_off,,,,,0,0,12,,,,13,,70,0
20301,note_off,,,,,3,0,12,,,,13,,45,0
20301,note_off,,,,,21,0,6,,,,5,,45,0
20301,note_off,,,,,21,0,10,,,,11,,45,0
20301,note_off,,,,,21,0,1,,,,0,,76,0
20301,note_off,,,,,21,0,11,,,,12,,33,0
20304,note_on,,,,,0,0,12,,,,13,,46,49
20304,note_on,,,,,6,0,7,,,,6,,69,96
20304,note_on,,,,,150,0,9,,,,8,,70,75
20304,note_on,,,,,150,0,8,,,,7,,74,75
20304,note_on,,,,,3,0,6,,,,5,,46,62
20304,note_on,,,,,3,0,1,,,,0,,74,127
20304,note_on,,,,,3,0,12,,,,13,,62,49
20304,note_on,,,,,3,0,11,,,,12,,34,49
20304,note_on,,,,,3,0,10,,,,11,,46,49
20304,note_on,,,,,0,0,12,,,,13,,67,49
20304,note_on,,,,,150,0,13,,,,14,,67,75
20325,note_off,,,,,21,0,12,,,,13,,46,0
20325,note_off,,,,,21,0,6,,,,5,,46,0
20325,note_off,,,,,21,0,1,,,,0,,74,0
20325,note_off,,,,,21,0,11,,,,12,,34,0
20325,note_off,,,,,21,0,7,,,,6,,69,0
20325,note_off,,,,,21,0,10,,,,11,,46,0
20328,note_on,,,,,3,0,1,,,,0,,72,127
20328,note_on,,,,,3,0,6,,,,5,,45,62
20328,note_on,,,,,3,0,11,,,,12,,33,49
20328,note_on,,,,,3,0,10,,,,11,,45,49
20328,note_on,,,,,3,0,7,,,,6,,67,96
20328,note_on,,,,,3,0,12,,,,13,,45,49
20346,note_off,,,,,42,0,13,,,,14,,67,0
20346,note_off,,,,,0,0,12,,,,13,,67,0
20346,note_off,,,,,18,0,12,,,,13,,62,0
20346,note_off,,,,,42,0,9,,,,8,,70,0
20346,note_off,,,,,42,0,8,,,,7,,74,0
20349,note_off,,,,,21,0,1,,,,0,,72,0
20349,note_off,,,,,21,0,11,,,,12,,33,0
20349,note_off,,,,,21,0,6,,,,5,,45,0
20349,note_off,,,,,21,0,7,,,,6,,67,0
20349,note_off,,,,,3,0,12,,,,13,,45,0
20349,note_off,,,,,21,0,10,,,,11,,45,0
20352,note_on,,,,,0,0,12,,,,13,,67,49
20352,note_on,,,,,0,0,12,,,,13,,46,49
20352,note_on,,,,,3,0,7,,,,6,,70,96
20352,note_on,,,,,3,0,12,,,,13,,62,49
20352,note_on,,,,,3,0,10,,,,11,,46,49
20352,note_on,,,,,6,0,8,,,,7,,79,75
20352,note_on,,,,,6,0,13,,,,14,,70,75
20352,note_on,,,,,3,0,6,,,,5,,46,62
20352,note_on,,,,,6,0,9,,,,8,,74,75
20352,note_on,,,,,3,0,1,,,,0,,74,127
20352,note_on,,,,,3,0,11,,,,12,,34,49
20373,note_off,,,,,21,0,1,,,,0,,74,0
20373,note_off,,,,,21,0,10,,,,11,,46,0
20373,note_off,,,,,21,0,12,,,,13,,46,0
20373,note_off,,,,,21,0,6,,,,5,,46,0
20373,note_off,,,,,21,0,11,,,,12,,34,0
20376,note_on,,,,,3,0,12,,,,13,,43,49
20376,note_on,,,,,3,0,11,,,,12,,31,49
20376,note_on,,,,,3,0,1,,,,0,,70,127
20376,note_on,,,,,3,0,10,,,,11,,43,49
20376,note_on,,,,,3,0,6,,,,5,,43,62
20394,note_off,,,,,42,0,9,,,,8,,74,0
20394,note_off,,,,,42,0,8,,,,7,,79,0
20394,note_off,,,,,18,0,12,,,,13,,62,0
20394,note_off,,,,,0,0,12,,,,13,,67,0
20394,note_off,,,,,42,0,13,,,,14,,70,0
20397,note_off,,,,,21,0,11,,,,12,,31,0
20397,note_off,,,,,21,0,1,,,,0,,70,0
20397,note_off,,,,,21,0,6,,,,5,,43,0
20397,note_off,,,,,21,0,10,,,,11,,43,0
20397,note_off,,,,,3,0,12,,,,13,,43,0
20400,note_on,,,,,3,0,6,,,,5,,48,62
20400,note_on,,,,,6,0,13,,,,14,,67,75
20400,note_on,,,,,3,0,11,,,,12,,36,49
20400,note_on,,,,,0,0,12,,,,13,,48,49
20400,note_on,,,,,3,0,12,,,,13,,67,49
20400,note_on,,,,,6,0,8,,,,7,,76,75
20400,note_on,,,,,0,0,12,,,,13,,76,49
20400,note_on,,,,,3,0,1,,,,0,,76,127
20400,note_on,,,,,3,0,10,,,,11,,48,49
20400,note_on,,,,,6,0,9,,,,8,,72,75
20421,note_off,,,,,69,0,7,,,,6,,70,0
20421,note_off,,,,,21,0,12,,,,13,,48,0
20421,note_off,,,,,21,0,6,,,,5,,48,0
20421,note_off,,,,,21,0,10,,,,11,,48,0
20421,note_off,,,,,21,0,11,,,,12,,36,0
20424,note_on,,,,,3,0,12,,,,13,,50,49
20424,note_on,,,,,3,0,6,,,,5,,50,62
20424,note_on,,,,,3,0,10,,,,11,,50,49
20424,note_on,,,,,3,0,11,,,,12,,38,49
20424,note_on,,,,,3,0,7,,,,6,,72,96
20434,note_off,,,,,10,0,7,,,,6,,72,0
20436,note_on,,,,,2,0,7,,,,6,,74,96
20442,note_off,,,,,42,0,8,,,,7,,76,0
20442,note_off,,,,,18,0,12,,,,13,,67,0
20442,note_off,,,,,42,0,1,,,,0,,76,0
20442,note_off,,,,,42,0,13,,,,14,,67,0
20442,note_off,,,,,0,0,12,,,,13,,76,0
20442,note_off,,,,,42,0,9,,,,8,,72,0
20445,note_off,,,,,21,0,10,,,,11,,50,0
20445,note_off,,,,,21,0,11,,,,12,,38,0
20445,note_off,,,,,3,0,12,,,,13,,50,0
20445,note_off,,,,,21,0,6,,,,5,,50,0
20446,note_off,,,,,10,0,7,,,,6,,74,0
20448,note_on,,,,,150,0,4,,,,3,,64,62
20448,note_on,,,,,150,0,5,,,,4,,60,62
20448,note_on,,,,,3,0,11,,,,12,,40,49
20448,note_on,,,,,0,0,12,,,,13,,67,49
20448,note_on,,,,,3,0,10,,,,11,,52,49
20448,note_on,,,,,3,0,6,,,,5,,52,62
20448,note_on,,,,,2742,0,2,,,,1,,67,127
20448,note_on,,,,,6,0,1,,,,0,,77,127
20448,note_on,,,,,3,0,12,,,,13,,60,49
20448,note_on,,,,,150,0,3,,,,2,,67,62
20448,note_on,,,,,0,0,12,,,,13,,52,49
20448,note_on,,,,,2,0,7,,,,6,,72,96
20458,note_off,,,,,10,0,1,,,,0,,77,0
20460,note_on,,,,,2,0,1,,,,0,,76,127
20469,note_off,,,,,21,0,7,,,,6,,72,0
20469,note_off,,,,,21,0,6,,,,5,,52,0
20469,note_off,,,,,21,0,12,,,,13,,52,0
20469,note_off,,,,,21,0,11,,,,12,,40,0
20469,note_off,,,,,21,0,10,,,,11,,52,0
20469,note_off,,,,,21,0,2,,,,1,,67,0
20470,note_off,,,,,10,0,1,,,,0,,76,0
20472,note_on,,,,,3,0,6,,,,5,,50,62
20472,note_on,,,,,3,0,10,,,,11,,50,49
20472,note_on,,,,,3,0,12,,,,13,,50,49
20472,note_on,,,,,2,0,1,,,,0,,77,127
20472,note_on,,,,,3,0,7,,,,6,,70,96
20472,note_on,,,,,3,0,2,,,,1,,67,127
20472,note_on,,,,,3,0,11,,,,12,,38,49
20482,note_off,,,,,10,0,1,,,,0,,77,0
20484,note_on,,,,,2,0,1,,,,0,,76,127
20490,note_off,,,,,18,0,12,,,,13,,60,0
20490,note_off,,,,,42,0,5,,,,4,,60,0
20490,note_off,,,,,42,0,4,,,,3,,64,0
20490,note_off,,,,,0,0,12,,,,13,,67,0
20490,note_off,,,,,42,0,3,,,,2,,67,0
20493,note_off,,,,,21,0,2,,,,1,,67,0
20493,note_off,,,,,3,0,12,,,,13,,50,0
20493,note_off,,,,,21,0,6,,,,5,,50,0
20493,note_off,,,,,21,0,10,,,,11,,50,0
20493,note_off,,,,,21,0,11,,,,12,,38,0
20493,note_off,,,,,21,0,7,,,,6,,70,0
20494,note_off,,,,,10,0,1,,,,0,,76,0
20496,note_on,,,,,3,0,12,,,,13,,60,49
20496,note_on,,,,,0,0,12,,,,13,,67,49
20496,note_on,,,,,0,0,12,,,,13,,52,49
20496,note_on,,,,,3,0,10,,,,11,,52,49
20496,note_on,,,,,3,0,2,,,,1,,67,127
20496,note_on,,,,,6,0,4,,,,3,,67,62
20496,note_on,,,,,3,0,6,,,,5,,52,62
20496,note_on,,,,,6,0,3,,,,2,,72,62
20496,note_on,,,,,2,0,1,,,,0,,77,127
20496,note_on,,,,,6,0,5,,,,4,,64,62
20496,note_on,,,,,3,0,11,,,,12,,40,49
20496,note_on,,,,,3,0,7,,,,6,,69,96
20506,note_off,,,,,10,0,1,,,,0,,77,0
20508,note_on,,,,,2,0,1,,,,0,,76,127
20517,note_off,,,,,21,0,10,,,,11,,52,0
20517,note_off,,,,,21,0,7,,,,6,,69,0
20517,note_off,,,,,21,0,11,,,,12,,40,0
20517,note_off,,,,,21,0,2,,,,1,,67,0
20517,note_off,,,,,21,0,12,,,,13,,52,0
20517,note_off,,,,,21,0,6,,,,5,,52,0
20518,note_off,,,,,10,0,1,,,,0,,76,0
20520,note_on,,,,,3,0,7,,,,6,,70,96
20520,note_on,,,,,3,0,10,,,,11,,48,49
20520,note_on,,,,,2,0,1,,,,0,,74,127
20520,note_on,,,,,3,0,11,,,,12,,36,49
20520,note_on,,,,,3,0,6,,,,5,,48,62
20520,note_on,,,,,3,0,12,,,,13,,48,49
20520,note_on,,,,,3,0,2,,,,1,,67,127
20530,note_off,,,,,10,0,1,,,,0,,74,0
20532,note_on,,,,,2,0,1,,,,0,,76,127
20538,note_off,,,,,42,0,4,,,,3,,67,0
20538,note_off,,,,,42,0,5,,,,4,,64,0
20538,note_off,,,,,0,0,12,,,,13,,67,0
20538,note_off,,,,,18,0,12,,,,13,,60,0
20538,note_off,,,,,42,0,3,,,,2,,72,0
20541,note_off,,,,,21,0,7,,,,6,,70,0
20541,note_off,,,,,21,0,6,,,,5,,48,0
20541,note_off,,,,,3,0,12,,,,13,,48,0
20541,note_off,,,,,21,0,11,,,,12,,36,0
20541,note_off,,,,,21,0,10,,,,11,,48,0
20541,note_off,,,,,21,0,2,,,,1,,67,0
20542,note_off,,,,,10,0,1,,,,0,,76,0
20544,note_on,,,,,2,0,1,,,,0,,77,127
20544,note_on,,,,,6,0,5,,,,4,,60,62
20544,note_on,,,,,3,0,2,,,,1,,69,127
20544,note_on,,,,,6,0,4,,,,3,,65,62
20544,note_on,,,,,3,0,6,,,,5,,41,62
20544,note_on,,,,,0,0,12,,,,13,,41,49
20544,note_on,,,,,3,0,7,,,,6,,70,96
20544,note_on,,,,,0,0,12,,,,13,,69,49
20544,note_on,,,,,3,0,12,,,,13,,60,49
20544,note_on,,,,,6,0,3,,,,2,,69,62
20544,note_on,,,,,3,0,10,,,,11,,41,49
20544,note_on,,,,,3,0,11,,,,12,,29,49
20554,note_off,,,,,10,0,7,,,,6,,70,0
20556,note_on,,,,,2,0,7,,,,6,,69,96
20565,note_off,,,,,21,0,12,,,,13,,41,0
20565,note_off,,,,,21,0,10,,,,11,,41,0
20565,note_off,,,,,21,0,11,,,,12,,29,0
20565,note_off,,,,,21,0,6,,,,5,,41,0
20566,note_off,,,,,10,0,7,,,,6,,69,0
20568,note_on,,,,,3,0,11,,,,12,,31,49
20568,note_on,,,,,3,0,6,,,,5,,43,62
20568,note_on,,,,,2,0,7,,,,6,,70,96
20568,note_on,,,,,3,0,12,,,,13,,43,49
20568,note_on,,,,,3,0,10,,,,11,,43,49
20578,note_off,,,,,10,0,7,,,,6,,70,0
20580,note_on,,,,,2,0,7,,,,6,,69,96
20586,note_off,,,,,42,0,4,,,,3,,65,0
20586,note_off,,,,,42,0,3,,,,2,,69,0
20586,note_off,,,,,42,0,5,,,,4,,60,0
20586,note_off,,,,,42,0,1,,,,0,,77,0
20586,note_off,,,,,42,0,2,,,,1,,69,0
20586,note_off,,,,,18,0,12,,,,13,,60,0
20586,note_off,,,,,0,0,12,,,,13,,69,0
20589,note_off,,,,,21,0,11,,,,12,,31,0
20589,note_off,,,,,3,0,12,,,,13,,43,0
20589,note_off,,,,,21,0,6,,,,5,,43,0
20589,note_off,,,,,21,0,10,,,,11,,43,0
20590,note_off,,,,,10,0,7,,,,6,,69,0
20592,note_on,,,,,150,0,13,,,,14,,72,75
20592,note_on,,,,,3,0,11,,,,12,,33,49
20592,note_on,,,,,3,0,10,,,,11,,45,49
20592,note_on,,,,,3,0,6,,,,5,,45,62
20592,note_on,,,,,150,0,9,,,,8,,69,75
20592,note_on,,,,,0,0,12,,,,13,,45,49
20592,note_on,,,,,0,0,12,,,,13,,69,49
20592,note_on,,,,,3,0,12,,,,13,,60,49
20592,note_on,,,,,150,0,8,,,,7,,72,75
20592,note_on,,,,,2,0,7,,,,6,,67,96
20613,note_off,,,,,21,0,13,,,,14,,72,0
20613,note_off,,,,,21,0,11,,,,12,,33,0
20613,note_off,,,,,21,0,8,,,,7,,72,0
20613,note_off,,,,,21,0,6,,,,5,,45,0
20613,note_off,,,,,21,0,10,,,,11,,45,0
20613,note_off,,,,,21,0,9,,,,8,,69,0
20613,note_off,,,,,21,0,12,,,,13,,45,0
20613,note_off,,,,,21,0,7,,,,6,,67,0
20616,note_on,,,,,3,0,7,,,,6,,69,96
20616,note_on,,,,,3,0,11,,,,12,,31,49
20616,note_on,,,,,3,0,6,,,,5,,43,62
20616,note_on,,,,,3,0,13,,,,14,,70,75
20616,note_on,,,,,3,0,8,,,,7,,74,75
20616,note_on,,,,,3,0,12,,,,13,,43,49
20616,note_on,,,,,3,0,9,,,,8,,70,75
20616,note_on,,,,,3,0,10,,,,11,,43,49
20634,note_off,,,,,0,0,12,,,,13,,69,0
20634,note_off,,,,,18,0,12,,,,13,,60,0
20637,note_off,,,,,3,0,12,,,,13,,43,0
20637,note_off,,,,,21,0,6,,,,5,,43,0
20637,note_off,,,,,21,0,10,,,,11,,43,0
20637,note_off,,,,,21,0,9,,,,8,,70,0
20637,note_off,,,,,21,0,7,,,,6,,69,0
20637,note_off,,,,,21,0,8,,,,7,,74,0
20637,note_off,,,,,21,0,13,,,,14,,70,0
20637,note_off,,,,,21,0,11,,,,12,,31,0
20640,note_on,,,,,3,0,11,,,,12,,29,49
20640,note_on,,,,,3,0,12,,,,13,,63,49
20640,note_on,,,,,0,0,12,,,,13,,69,49
20640,note_on,,,,,0,0,12,,,,13,,41,49
20640,note_on,,,,,3,0,6,,,,5,,41,62
20640,note_on,,,,,3,0,13,,,,14,,69,75
20640,note_on,,,,,3,0,7,,,,6,,65,96
20640,note_on,,,,,3,0,9,,,,8,,72,75
20640,note_on,,,,,3,0,10,,,,11,,41,49
20640,note_on,,,,,3,0,8,,,,7,,75,75
20661,note_off,,,,,21,0,13,,,,14,,69,0
20661,note_off,,,,,21,0,8,,,,7,,75,0
20661,note_off,,,,,21,0,10,,,,11,,41,0
20661,note_off,,,,,21,0,6,,,,5,,41,0
20661,note_off,,,,,21,0,12,,,,13,,41,0
20661,note_off,,,,,21,0,9,,,,8,,72,0
20661,note_off,,,,,21,0,11,,,,12,,29,0
20664,note_on,,,,,3,0,13,,,,14,,67,75
20664,note_on,,,,,3,0,12,,,,13,,39,49
20664,note_on,,,,,3,0,10,,,,11,,39,49
20664,note_on,,,,,3,0,8,,,,7,,72,75
20664,note_on,,,,,3,0,6,,,,5,,39,62
20664,note_on,,,,,3,0,9,,,,8,,69,75
20664,note_on,,,,,3,0,11,,,,12,,27,49
20682,note_off,,,,,18,0,12,,,,13,,63,0
20682,note_off,,,,,42,0,7,,,,6,,65,0
20682,note_off,,,,,0,0,12,,,,13,,69,0
20685,note_off,,,,,21,0,11,,,,12,,27,0
20685,note_off,,,,,21,0,6,,,,5,,39,0
20685,note_off,,,,,21,0,9,,,,8,,69,0
20685,note_off,,,,,21,0,13,,,,14,,67,0
20685,note_off,,,,,3,0,12,,,,13,,39,0
20685,note_off,,,,,21,0,8,,,,7,,72,0
20685,note_off,,,,,21,0,10,,,,11,,39,0
20688,note_on,,,,,3,0,12,,,,13,,65,49
20688,note_on,,,,,0,0,12,,,,13,,69,49
20688,note_on,,,,,3,0,13,,,,14,,69,75
20688,note_on,,,,,3,0,10,,,,11,,38,49
20688,note_on,,,,,3,0,6,,,,5,,38,62
20688,note_on,,,,,3,0,9,,,,8,,74,75
20688,note_on,,,,,3,0,8,,,,7,,77,75
20688,note_on,,,,,0,0,12,,,,13,,38,49
20688,note_on,,,,,3,0,11,,,,12,,26,49
20709,note_off,,,,,21,0,12,,,,13,,38,0
20709,note_off,,,,,21,0,11,,,,12,,26,0
20709,note_off,,,,,21,0,6,,,,5,,38,0
20709,note_off,,,,,21,0,10,,,,11,,38,0
20712,note_on,,,,,3,0,6,,,,5,,39,62
20712,note_on,,,,,3,0,10,,,,11,,39,49
20712,note_on,,,,,3,0,12,,,,13,,39,49
20712,note_on,,,,,3,0,11,,,,12,,27,49
20730,note_off,,,,,18,0,12,,,,13,,65,0
20730,note_off,,,,,42,0,9,,,,8,,74,0
20730,note_off,,,,,42,0,8,,,,7,,77,0
20730,note_off,,,,,42,0,13,,,,14,,69,0
20730,note_off,,,,,0,0,12,,,,13,,69,0
20733,note_off,,,,,21,0,11,,,,12,,27,0
20733,note_off,,,,,21,0,10,,,,11,,39,0
20733,note_off,,,,,3,0,12,,,,13,,39,0
20733,note_off,,,,,21,0,6,,,,5,,39,0
20736,note_on,,,,,6,0,9,,,,8,,62,75
20736,note_on,,,,,3,0,6,,,,5,,41,62
20736,note_on,,,,,3,0,10,,,,11,,41,49
20736,note_on,,,,,0,0,12,,,,13,,41,49
20736,note_on,,,,,54,0,7,,,,6,,77,96
20736,note_on,,,,,6,0,13,,,,14,,69,75
20736,note_on,,,,,0,0,12,,,,13,,69,49
20736,note_on,,,,,3,0,12,,,,13,,62,49
20736,note_on,,,,,6,0,8,,,,7,,69,75
20736,note_on,,,,,3,0,11,,,,12,,29,49
20757,note_off,,,,,21,0,6,,,,5,,41,0
20757,note_off,,,,,21,0,10,,,,11,,41,0
20757,note_off,,,,,21,0,12,,,,13,,41,0
20757,note_off,,,,,21,0,11,,,,12,,29,0
20760,note_on,,,,,3,0,11,,,,12,,27,49
20760,note_on,,,,,3,0,10,,,,11,,39,49
20760,note_on,,,,,3,0,6,,,,5,,39,62
20760,note_on,,,,,3,0,12,,,,13,,39,49
20778,note_off,,,,,42,0,8,,,,7,,69,0
20778,note_off,,,,,42,0,9,,,,8,,62,0
20778,note_off,,,,,42,0,13,,,,14,,69,0
20778,note_off,,,,,18,0,12,,,,13,,62,0
20778,note_off,,,,,42,0,7,,,,6,,77,0
20778,note_off,,,,,0,0,12,,,,13,,69,0
20781,note_off,,,,,21,0,6,,,,5,,39,0
20781,note_off,,,,,21,0,10,,,,11,,39,0
20781,note_off,,,,,3,0,12,,,,13,,39,0
20781,note_off,,,,,21,0,11,,,,12,,27,0
20784,note_on,,,,,3,0,6,,,,5,,41,62
20784,note_on,,,,,6,0,13,,,,14,,65,75
20784,note_on,,,,,3,0,12,,,,13,,62,49
20784,note_on,,,,,6,0,9,,,,8,,69,75
20784,note_on,,,,,3,0,11,,,,12,,29,49
20784,note_on,,,,,0,0,12,,,,13,,41,49
20784,note_on,,,,,6,0,7,,,,6,,77,96
20784,note_on,,,,,3,0,10,,,,11,,41,49
20784,note_on,,,,,0,0,12,,,,13,,69,49
20784,note_on,,,,,6,0,8,,,,7,,74,75
20805,note_off,,,,,21,0,6,,,,5,,41,0
20805,note_off,,,,,21,0,12,,,,13,,41,0
20805,note_off,,,,,21,0,11,,,,12,,29,0
20805,note_off,,,,,21,0,10,,,,11,,41,0
20808,note_on,,,,,3,0,12,,,,13,,38,49
20808,note_on,,,,,3,0,10,,,,11,,38,49
20808,note_on,,,,,3,0,11,,,,12,,26,49
20808,note_on,,,,,3,0,6,,,,5,,38,62
20826,note_off,,,,,18,0,12,,,,13,,62,0
20826,note_off,,,,,0,0,12,,,,13,,69,0
20826,note_off,,,,,42,0,7,,,,6,,77,0
20826,note_off,,,,,42,0,13,,,,14,,65,0
20826,note_off,,,,,42,0,8,,,,7,,74,0
20826,note_off,,,,,42,0,9,,,,8,,69,0
20829,note_off,,,,,21,0,10,,,,11,,38,0
20829,note_off,,,,,3,0,12,,,,13,,38,0
20829,note_off,,,,,21,0,6,,,,5,,38,0
20829,note_off,,,,,21,0,11,,,,12,,26,0
20832,note_on,,,,,3,0,11,,,,12,,31,49
20832,note_on,,,,,3,0,10,,,,11,,43,49
20832,note_on,,,,,3,0,12,,,,13,,62,49
20832,note_on,,,,,6,0,8,,,,7,,70,75
20832,note_on,,,,,6,0,13,,,,14,,62,75
20832,note_on,,,,,6,0,9,,,,8,,67,75
20832,note_on,,,,,3,0,6,,,,5,,43,62
20832,note_on,,,,,0,0,12,,,,13,,43,49
20832,note_on,,,,,0,0,12,,,,13,,70,49
20832,note_on,,,,,6,0,7,,,,6,,77,96
20853,note_off,,,,,21,0,11,,,,12,,31,0
20853,note_off,,,,,21,0,6,,,,5,,43,0
20853,note_off,,,,,21,0,7,,,,6,,77,0
20853,note_off,,,,,21,0,10,,,,11,,43,0
20853,note_off,,,,,21,0,12,,,,13,,43,0
20856,note_on,,,,,3,0,7,,,,6,,80,96
20856,note_on,,,,,3,0,12,,,,13,,45,49
20856,note_on,,,,,3,0,11,,,,12,,33,49
20856,note_on,,,,,3,0,10,,,,11,,45,49
20856,note_on,,,,,3,0,6,,,,5,,45,62
20874,note_off,,,,,0,0,12,,,,13,,70,0
20874,note_off,,,,,18,0,12,,,,13,,62,0
20874,note_off,,,,,42,0,9,,,,8,,67,0
20874,note_off,,,,,42,0,13,,,,14,,62,0
20874,note_off,,,,,42,0,8,,,,7,,70,0
20877,note_off,,,,,21,0,10,,,,11,,45,0
20877,note_off,,,,,21,0,6,,,,5,,45,0
20877,note_off,,,,,3,0,12,,,,13,,45,0
20877,note_off,,,,,21,0,11,,,,12,,33,0
20877,note_off,,,,,21,0,7,,,,6,,80,0
20880,note_on,,,,,3,0,7,,,,6,,79,96
20880,note_on,,,,,3,0,12,,,,13,,70,49
20880,note_on,,,,,0,0,12,,,,13,,74,49
20880,note_on,,,,,294,0,3,,,,2,,74,62
20880,note_on,,,,,294,0,5,,,,4,,67,62
20880,note_on,,,,,3,0,10,,,,11,,46,49
20880,note_on,,,,,294,0,4,,,,3,,70,62
20880,note_on,,,,,294,0,2,,,,1,,70,127
20880,note_on,,,,,3,0,6,,,,5,,46,62
20880,note_on,,,,,3,0,11,,,,12,,34,49
20880,note_on,,,,,0,0,12,,,,13,,46,49
20901,note_off,,,,,21,0,7,,,,6,,79,0
20901,note_off,,,,,21,0,11,,,,12,,34,0
20901,note_off,,,,,21,0,10,,,,11,,46,0
20901,note_off,,,,,21,0,6,,,,5,,46,0
20901,note_off,,,,,21,0,12,,,,13,,46,0
20904,note_on,,,,,3,0,12,,,,13,,45,49
20904,note_on,,,,,3,0,7,,,,6,,77,96
20904,note_on,,,,,3,0,11,,,,12,,33,49
20904,note_on,,,,,3,0,10,,,,11,,45,49
20904,note_on,,,,,3,0,6,,,,5,,45,62
20922,note_off,,,,,42,0,3,,,,2,,74,0
20922,note_off,,,,,42,0,5,,,,4,,67,0
20922,note_off,,,,,18,0,12,,,,13,,70,0
20922,note_off,,,,,42,0,2,,,,1,,70,0
20922,note_off,,,,,0,0,12,,,,13,,74,0
20922,note_off,,,,,42,0,4,,,,3,,70,0
20925,note_off,,,,,21,0,7,,,,6,,77,0
20925,note_off,,,,,21,0,6,,,,5,,45,0
20925,note_off,,,,,21,0,11,,,,12,,33,0
20925,note_off,,,,,21,0,10,,,,11,,45,0
20925,note_off,,,,,3,0,12,,,,13,,45,0
20928,note_on,,,,,3,0,7,,,,6,,75,96
20928,note_on,,,,,3,0,6,,,,5,,46,62
20928,note_on,,,,,6,0,5,,,,4,,70,62
20928,note_on,,,,,3,0,11,,,,12,,34,49
20928,note_on,,,,,0,0,12,,,,13,,46,49
20928,note_on,,,,,3,0,10,,,,11,,46,49
20928,note_on,,,,,6,0,4,,,,3,,74,62
20928,note_on,,,,,6,0,3,,,,2,,79,62
20928,note_on,,,,,0,0,12,,,,13,,74,49
20928,note_on,,,,,3,0,12,,,,13,,67,49
20928,note_on,,,,,6,0,2,,,,1,,70,127
20949,note_off,,,,,21,0,10,,,,11,,46,0
20949,note_off,,,,,21,0,6,,,,5,,46,0
20949,note_off,,,,,21,0,12,,,,13,,46,0
20949,note_off,,,,,21,0,7,,,,6,,75,0
20949,note_off,,,,,21,0,11,,,,12,,34,0
20952,note_on,,,,,3,0,6,,,,5,,43,62
20952,note_on,,,,,3,0,10,,,,11,,43,49
20952,note_on,,,,,3,0,7,,,,6,,74,96
20952,note_on,,,,,3,0,12,,,,13,,43,49
20952,note_on,,,,,3,0,11,,,,12,,31,49
20970,note_off,,,,,42,0,4,,,,3,,74,0
20970,note_off,,,,,42,0,5,,,,4,,70,0
20970,note_off,,,,,42,0,2,,,,1,,70,0
20970,note_off,,,,,0,0,12,,,,13,,74,0
20970,note_off,,,,,18,0,12,,,,13,,67,0
20970,note_off,,,,,42,0,3,,,,2,,79,0
20973,note_off,,,,,3,0,12,,,,13,,43,0
20973,note_off,,,,,21,0,6,,,,5,,43,0
20973,note_off,,,,,21,0,7,,,,6,,74,0
20973,note_off,,,,,21,0,10,,,,11,,43,0
20973,note_off,,,,,21,0,11,,,,12,,31,0
20976,note_on,,,,,6,0,3,,,,2,,75,62
20976,note_on,,,,,6,0,5,,,,4,,67,62
20976,note_on,,,,,3,0,7,,,,6,,75,96
20976,note_on,,,,,3,0,6,,,,5,,48,62
20976,note_on,,,,,3,0,11,,,,12,,36,49
20976,note_on,,,,,0,0,12,,,,13,,48,49
20976,note_on,,,,,0,0,12,,,,13,,75,49
20976,note_on,,,,,3,0,12,,,,13,,72,49
20976,note_on,,,,,6,0,4,,,,3,,72,62
20976,note_on,,,,,6,0,2,,,,1,,70,127
20976,note_on,,,,,3,0,10,,,,11,,48,49
20997,note_off,,,,,21,0,10,,,,11,,48,0
20997,note_off,,,,,21,0,6,,,,5,,48,0
20997,note_off,,,,,21,0,2,,,,1,,70,0
20997,note_off,,,,,21,0,12,,,,13,,48,0
20997,note_off,,,,,21,0,11,,,,12,,36,0
21000,note_on,,,,,3,0,12,,,,13,,50,49
21000,note_on,,,,,3,0,6,,,,5,,50,62
21000,note_on,,,,,3,0,2,,,,1,,69,127
21000,note_on,,,,,3,0,10,,,,11,,50,49
21000,note_on,,,,,3,0,11,,,,12,,38,49
21018,note_off,,,,,42,0,5,,,,4,,67,0
21018,note_off,,,,,42,0,7,,,,6,,75,0
21018,note_off,,,,,0,0,12,,,,13,,75,0
21018,note_off,,,,,18,0,12,,,,13,,72,0
21018,note_off,,,,,42,0,4,,,,3,,72,0
21018,note_off,,,,,42,0,3,,,,2,,75,0
21021,note_off,,,,,21,0,10,,,,11,,50,0
21021,note_off,,,,,21,0,2,,,,1,,69,0
21021,note_off,,,,,3,0,12,,,,13,,50,0
21021,note_off,,,,,21,0,6,,,,5,,50,0
21021,note_off,,,,,21,0,11,,,,12,,38,0
21024,note_on,,,,,3,0,10,,,,11,,51,49
21024,note_on,,,,,6,0,7,,,,6,,74,96
21024,note_on,,,,,3,0,2,,,,1,,67,127
21024,note_on,,,,,3,0,11,,,,12,,39,49
21024,note_on,,,,,150,0,8,,,,7,,67,75
21024,note_on,,,,,150,0,13,,,,14,,60,75
21024,note_on,,,,,0,0,12,,,,13,,51,49
21024,note_on,,,,,3,0,6,,,,5,,51,62
21024,note_on,,,,,150,0,9,,,,8,,63,75
21024,note_on,,,,,0,0,12,,,,13,,72,49
21024,note_on,,,,,3,0,12,,,,13,,67,49
21045,note_off,,,,,21,0,10,,,,11,,51,0
21045,note_off,,,,,21,0,12,,,,13,,51,0
21045,note_off,,,,,21,0,6,,,,5,,51,0
21045,note_off,,,,,21,0,11,,,,12,,39,0
21045,note_off,,,,,21,0,2,,,,1,,67,0
21045,note_off,,,,,21,0,7,,,,6,,74,0
21048,note_on,,,,,3,0,7,,,,6,,72,96
21048,note_on,,,,,3,0,12,,,,13,,50,49
21048,note_on,,,,,3,0,10,,,,11,,50,49
21048,note_on,,,,,3,0,11,,,,12,,38,49
21048,note_on,,,,,3,0,6,,,,5,,50,62
21048,note_on,,,,,3,0,2,,,,1,,65,127
21066,note_off,,,,,0,0,12,,,,13,,72,0
21066,note_off,,,,,42,0,9,,,,8,,63,0
21066,note_off,,,,,42,0,13,,,,14,,60,0
21066,note_off,,,,,18,0,12,,,,13,,67,0
21066,note_off,,,,,42,0,8,,,,7,,67,0
21069,note_off,,,,,21,0,6,,,,5,,50,0
21069,note_off,,,,,3,0,12,,,,13,,50,0
21069,note_off,,,,,21,0,7,,,,6,,72,0
21069,note_off,,,,,21,0,11,,,,12,,38,0
21069,note_off,,,,,21,0,10,,,,11,,50,0
21069,note_off,,,,,21,0,2,,,,1,,65,0
21072,note_on,,,,,6,0,9,,,,8,,67,75
21072,note_on,,,,,6,0,13,,,,14,,60,75
21072,note_on,,,,,3,0,7,,,,6,,75,96
21072,note_on,,,,,3,0,11,,,,12,,39,49
21072,note_on,,,,,0,0,12,,,,13,,51,49
21072,note_on,,,,,0,0,12,,,,13,,72,49
21072,note_on,,,,,3,0,10,,,,11,,51,49
21072,note_on,,,,,3,0,2,,,,1,,67,127
21072,note_on,,,,,3,0,6,,,,5,,51,62
21072,note_on,,,,,6,0,8,,,,7,,72,75
21072,note_on,,,,,3,0,12,,,,13,,67,49
21093,note_off,,,,,21,0,12,,,,13,,51,0
21093,note_off,,,,,21,0,2,,,,1,,67,0
21093,note_off,,,,,21,0,11,,,,12,,39,0
21093,note_off,,,,,21,0,6,,,,5,,51,0
21093,note_off,,,,,21,0,10,,,,11,,51,0
21096,note_on,,,,,3,0,12,,,,13,,48,49
21096,note_on,,,,,3,0,2,,,,1,,63,127
21096,note_on,,,,,3,0,6,,,,5,,48,62
21096,note_on,,,,,3,0,11,,,,12,,36,49
21096,note_on,,,,,3,0,10,,,,11,,48,49
21114,note_off,,,,,0,0,12,,,,13,,72,0
21114,note_off,,,,,42,0,13,,,,14,,60,0
21114,note_off,,,,,18,0,12,,,,13,,67,0
21114,note_off,,,,,42,0,9,,,,8,,67,0
21114,note_off,,,,,42,0,8,,,,7,,72,0
21117,note_off,,,,,21,0,11,,,,12,,36,0
21117,note_off,,,,,21,0,6,,,,5,,48,0
21117,note_off,,,,,21,0,10,,,,11,,48,0
21117,note_off,,,,,3,0,12,,,,13,,48,0
21117,note_off,,,,,21,0,2,,,,1,,63,0
21120,note_on,,,,,6,0,13,,,,14,,60,75
21120,note_on,,,,,0,0,12,,,,13,,53,49
21120,note_on,,,,,0,0,12,,,,13,,72,49
21120,note_on,,,,,6,0,8,,,,7,,69,75
21120,note_on,,,,,6,0,9,,,,8,,65,75
21120,note_on,,,,,3,0,10,,,,11,,53,49
21120,note_on,,,,,3,0,2,,,,1,,69,127
21120,note_on,,,,,3,0,6,,,,5,,53,62
21120,note_on,,,,,3,0,11,,,,12,,41,49
21120,note_on,,,,,3,0,12,,,,13,,69,49
21141,note_off,,,,,21,0,11,,,,12,,41,0
21141,note_off,,,,,21,0,10,,,,11,,53,0
21141,note_off,,,,,69,0,7,,,,6,,75,0
21141,note_off,,,,,21,0,6,,,,5,,53,0
21141,note_off,,,,,21,0,12,,,,13,,53,0
21144,note_on,,,,,3,0,10,,,,11,,55,49
21144,note_on,,,,,3,0,12,,,,13,,55,49
21144,note_on,,,,,3,0,6,,,,5,,55,62
21144,note_on,,,,,3,0,11,,,,12,,43,49
21144,note_on,,,,,3,0,7,,,,6,,77,96
21154,note_off,,,,,10,0,7,,,,6,,77,0
21156,note_on,,,,,2,0,7,,,,6,,79,96
21162,note_off,,,,,18,0,12,,,,13,,69,0
21162,note_off,,,,,42,0,2,,,,1,,69,0
21162,note_off,,,,,42,0,9,,,,8,,65,0
21162,note_off,,,,,42,0,13,,,,14,,60,0
21162,note_off,,,,,0,0,12,,,,13,,72,0
21162,note_off,,,,,42,0,8,,,,7,,69,0
21165,note_off,,,,,21,0,11,,,,12,,43,0
21165,note_off,,,,,21,0,6,,,,5,,55,0
21165,note_off,,,,,3,0,12,,,,13,,55,0
21165,note_off,,,,,21,0,10,,,,11,,55,0
21166,note_off,,,,,10,0,7,,,,6,,79,0
21168,note_on,,,,,3,0,6,,,,5,,57,62
21168,note_on,,,,,0,0,12,,,,13,,72,49
21168,note_on,,,,,0,0,12,,,,13,,57,49
21168,note_on,,,,,3,0,11,,,,12,,45,49
21168,note_on,,,,,3,0,12,,,,13,,65,49
21168,note_on,,,,,150,0,3,,,,2,,72,62
21168,note_on,,,,,6,0,2,,,,1,,70,127
21168,note_on,,,,,3,0,10,,,,11,,57,49
21168,note_on,,,,,150,0,4,,,,3,,69,62
21168,note_on,,,,,150,0,5,,,,4,,65,62
21168,note_on,,,,,2,0,7,,,,6,,77,96
21168,note_on,,,,,582,0,1,,,,0,,65,127
21178,note_off,,,,,10,0,2,,,,1,,70,0
21180,note_on,,,,,2,0,2,,,,1,,69,127
21189,note_off,,,,,21,0,11,,,,12,,45,0
21189,note_off,,,,,21,0,12,,,,13,,57,0
21189,note_off,,,,,21,0,10,,,,11,,57,0
21189,note_off,,,,,21,0,7,,,,6,,77,0
21189,note_off,,,,,21,0,1,,,,0,,65,0
21189,note_off,,,,,21,0,6,,,,5,,57,0
21190,note_off,,,,,10,0,2,,,,1,,69,0
21192,note_on,,,,,3,0,10,,,,11,,55,49
21192,note_on,,,,,3,0,12,,,,13,,55,49
21192,note_on,,,,,3,0,11,,,,12,,43,49
21192,note_on,,,,,3,0,7,,,,6,,75,96
21192,note_on,,,,,2,0,2,,,,1,,70,127
21192,note_on,,,,,3,0,1,,,,0,,65,127
21192,note_on,,,,,3,0,6,,,,5,,55,62
21202,note_off,,,,,10,0,2,,,,1,,70,0
21204,note_on,,,,,2,0,2,,,,1,,69,127
21210,note_off,,,,,18,0,12,,,,13,,65,0
21210,note_off,,,,,42,0,3,,,,2,,72,0
21210,note_off,,,,,0,0,12,,,,13,,72,0
21210,note_off,,,,,42,0,4,,,,3,,69,0
21210,note_off,,,,,42,0,5,,,,4,,65,0
21213,note_off,,,,,21,0,11,,,,12,,43,0
21213,note_off,,,,,21,0,7,,,,6,,75,0
21213,note_off,,,,,21,0,10,,,,11,,55,0
21213,note_off,,,,,21,0,1,,,,0,,65,0
21213,note_off,,,,,21,0,6,,,,5,,55,0
21213,note_off,,,,,3,0,12,,,,13,,55,0
21214,note_off,,,,,10,0,2,,,,1,,69,0
21216,note_on,,,,,0,0,12,,,,13,,72,49
21216,note_on,,,,,6,0,4,,,,3,,72,62
21216,note_on,,,,,3,0,7,,,,6,,74,96
21216,note_on,,,,,3,0,12,,,,13,,65,49
21216,note_on,,,,,3,0,10,,,,11,,57,49
21216,note_on,,,,,3,0,1,,,,0,,65,127
21216,note_on,,,,,2,0,2,,,,1,,70,127
21216,note_on,,,,,6,0,5,,,,4,,67,62
21216,note_on,,,,,3,0,11,,,,12,,45,49
21216,note_on,,,,,6,0,3,,,,2,,77,62
21216,note_on,,,,,0,0,12,,,,13,,57,49
21216,note_on,,,,,3,0,6,,,,5,,57,62
21226,note_off,,,,,10,0,2,,,,1,,70,0
21228,note_on,,,,,2,0,2,,,,1,,69,127
21237,note_off,,,,,21,0,10,,,,11,,57,0
21237,note_off,,,,,21,0,6,,,,5,,57,0
21237,note_off,,,,,21,0,1,,,,0,,65,0
21237,note_off,,,,,21,0,12,,,,13,,57,0
21237,note_off,,,,,21,0,7,,,,6,,74,0
21237,note_off,,,,,21,0,11,,,,12,,45,0
21238,note_off,,,,,10,0,2,,,,1,,69,0
21240,note_on,,,,,3,0,6,,,,5,,53,62
21240,note_on,,,,,3,0,7,,,,6,,75,96
21240,note_on,,,,,3,0,12,,,,13,,53,49
21240,note_on,,,,,3,0,1,,,,0,,65,127
21240,note_on,,,,,3,0,11,,,,12,,41,49
21240,note_on,,,,,3,0,10,,,,11,,53,49
21240,note_on,,,,,2,0,2,,,,1,,67,127
21250,note_off,,,,,10,0,2,,,,1,,67,0
21252,note_on,,,,,2,0,2,,,,1,,69,127
21258,note_off,,,,,42,0,4,,,,3,,72,0
21258,note_off,,,,,42,0,5,,,,4,,67,0
21258,note_off,,,,,18,0,12,,,,13,,65,0
21258,note_off,,,,,0,0,12,,,,13,,72,0
21258,note_off,,,,,42,0,3,,,,2,,77,0
21261,note_off,,,,,21,0,6,,,,5,,53,0
21261,note_off,,,,,3,0,12,,,,13,,53,0
21261,note_off,,,,,21,0,10,,,,11,,53,0
21261,note_off,,,,,21,0,1,,,,0,,65,0
21261,note_off,,,,,21,0,11,,,,12,,41,0
21261,note_off,,,,,21,0,7,,,,6,,75,0
21262,note_off,,,,,10,0,2,,,,1,,69,0
21264,note_on,,,,,0,0,12,,,,13,,58,49
21264,note_on,,,,,6,0,3,,,,2,,74,62
21264,note_on,,,,,3,0,12,,,,13,,65,49
21264,note_on,,,,,0,0,12,,,,13,,74,49
21264,note_on,,,,,3,0,7,,,,6,,75,96
21264,note_on,,,,,3,0,10,,,,11,,58,49
21264,note_on,,,,,6,0,5,,,,4,,65,62
21264,note_on,,,,,3,0,11,,,,12,,46,49
21264,note_on,,,,,6,0,4,,,,3,,70,62
21264,note_on,,,,,3,0,1,,,,0,,65,127
21264,note_on,,,,,2,0,2,,,,1,,70,127
21264,note_on,,,,,3,0,6,,,,5,,58,62
21274,note_off,,,,,10,0,7,,,,6,,75,0
21276,note_on,,,,,2,0,7,,,,6,,74,96
21285,note_off,,,,,21,0,3,,,,2,,74,0
21285,note_off,,,,,21,0,11,,,,12,,46,0
21285,note_off,,,,,21,0,10,,,,11,,58,0
21285,note_off,,,,,21,0,6,,,,5,,58,0
21285,note_off,,,,,21,0,12,,,,13,,58,0
21286,note_off,,,,,10,0,7,,,,6,,74,0
21288,note_on,,,,,3,0,10,,,,11,,60,49
21288,note_on,,,,,3,0,3,,,,2,,75,62
21288,note_on,,,,,3,0,6,,,,5,,60,62
21288,note_on,,,,,2,0,7,,,,6,,75,96
21288,note_on,,,,,3,0,11,,,,12,,48,49
21288,note_on,,,,,3,0,12,,,,13,,60,49
21298,note_off,,,,,10,0,7,,,,6,,75,0
21300,note_on,,,,,2,0,7,,,,6,,74,96
21306,note_off,,,,,42,0,4,,,,3,,70,0
21306,note_off,,,,,42,0,1,,,,0,,65,0
21306,note_off,,,,,0,0,12,,,,13,,74,0
21306,note_off,,,,,42,0,5,,,,4,,65,0
21306,note_off,,,,,42,0,2,,,,1,,70,0
21306,note_off,,,,,18,0,12,,,,13,,65,0
21309,note_off,,,,,21,0,11,,,,12,,48,0
21309,note_off,,,,,21,0,3,,,,2,,75,0
21309,note_off,,,,,3,0,12,,,,13,,60,0
21309,note_off,,,,,21,0,6,,,,5,,60,0
21309,note_off,,,,,21,0,10,,,,11,,60,0
21310,note_off,,,,,10,0,7,,,,6,,74,0
21312,note_on,,,,,3,0,11,,,,12,,50,49
21312,note_on,,,,,3,0,12,,,,13,,65,49
21312,note_on,,,,,6,0,5,,,,4,,65,62
21312,note_on,,,,,3,0,3,,,,2,,74,62
21312,note_on,,,,,6,0,4,,,,3,,70,62
21312,note_on,,,,,0,0,12,,,,13,,70,49
21312,note_on,,,,,3,0,6,,,,5,,62,62
21312,note_on,,,,,0,0,12,,,,13,,62,49
21312,note_on,,,,,2,0,7,,,,6,,72,96
21312,note_on,,,,,150,0,8,,,,7,,77,75
21312,note_on,,,,,3,0,10,,,,11,,62,49
21333,note_off,,,,,21,0,11,,,,12,,50,0
21333,note_off,,,,,21,0,6,,,,5,,62,0
21333,note_off,,,,,21,0,7,,,,6,,72,0
21333,note_off,,,,,21,0,3,,,,2,,74,0
21333,note_off,,,,,21,0,12,,,,13,,62,0
21333,note_off,,,,,21,0,10,,,,11,,62,0
21336,note_on,,,,,3,0,12,,,,13,,60,49
21336,note_on,,,,,3,0,11,,,,12,,48,49
21336,note_on,,,,,3,0,3,,,,2,,75,62
21336,note_on,,,,,3,0,10,,,,11,,60,49
21336,note_on,,,,,3,0,7,,,,6,,74,96
21336,note_on,,,,,3,0,6,,,,5,,60,62
21354,note_off,,,,,42,0,5,,,,4,,65,0
21354,note_off,,,,,42,0,4,,,,3,,70,0
21354,note_off,,,,,18,0,12,,,,13,,65,0
21354,note_off,,,,,42,0,8,,,,7,,77,0
21354,note_off,,,,,0,0,12,,,,13,,70,0
21357,note_off,,,,,21,0,11,,,,12,,48,0
21357,note_off,,,,,21,0,6,,,,5,,60,0
21357,note_off,,,,,3,0,12,,,,13,,60,0
21357,note_off,,,,,21,0,10,,,,11,,60,0
21357,note_off,,,,,21,0,7,,,,6,,74,0
21357,note_off,,,,,21,0,3,,,,2,,75,0
21360,note_on,,,,,6,0,4,,,,3,,74,62
21360,note_on,,,,,3,0,3,,,,2,,77,62
21360,note_on,,,,,3,0,11,,,,12,,50,49
21360,note_on,,,,,6,0,5,,,,4,,70,62
21360,note_on,,,,,6,0,8,,,,7,,82,75
21360,note_on,,,,,3,0,10,,,,11,,62,49
21360,note_on,,,,,3,0,6,,,,5,,62,62
21360,note_on,,,,,3,0,12,,,,13,,65,49
21360,note_on,,,,,0,0,12,,,,13,,70,49
21360,note_on,,,,,0,0,12,,,,13,,62,49
21360,note_on,,,,,3,0,7,,,,6,,70,96
21381,note_off,,,,,21,0,3,,,,2,,77,0
21381,note_off,,,,,21,0,12,,,,13,,62,0
21381,note_off,,,,,21,0,10,,,,11,,62,0
21381,note_off,,,,,21,0,6,,,,5,,62,0
21381,note_off,,,,,21,0,11,,,,12,,50,0
21384,note_on,,,,,3,0,12,,,,13,,58,49
21384,note_on,,,,,3,0,3,,,,2,,74,62
21384,note_on,,,,,3,0,10,,,,11,,58,49
21384,note_on,,,,,3,0,6,,,,5,,58,62
21384,note_on,,,,,3,0,11,,,,12,,46,49
21402,note_off,,,,,42,0,4,,,,3,,74,0
21402,note_off,,,,,0,0,12,,,,13,,70,0
21402,note_off,,,,,42,0,7,,,,6,,70,0
21402,note_off,,,,,18,0,12,,,,13,,65,0
21402,note_off,,,,,42,0,5,,,,4,,70,0
21405,note_off,,,,,21,0,3,,,,2,,74,0
21405,note_off,,,,,3,0,12,,,,13,,58,0
21405,note_off,,,,,21,0,10,,,,11,,58,0
21405,note_off,,,,,21,0,11,,,,12,,46,0
21405,note_off,,,,,21,0,6,,,,5,,58,0
21408,note_on,,,,,3,0,6,,,,5,,60,62
21408,note_on,,,,,3,0,12,,,,13,,67,49
21408,note_on,,,,,3,0,3,,,,2,,75,62
21408,note_on,,,,,0,0,12,,,,13,,75,49
21408,note_on,,,,,0,0,12,,,,13,,60,49
21408,note_on,,,,,3,0,11,,,,12,,48,49
21408,note_on,,,,,6,0,4,,,,3,,72,62
21408,note_on,,,,,6,0,5,,,,4,,67,62
21408,note_on,,,,,3,0,10,,,,11,,60,49
21450,note_off,,,,,42,0,11,,,,12,,48,0
21450,note_off,,,,,42,0,10,,,,11,,60,0
21450,note_off,,,,,42,0,3,,,,2,,75,0
21450,note_off,,,,,42,0,5,,,,4,,67,0
21450,note_off,,,,,42,0,4,,,,3,,72,0
21450,note_off,,,,,0,0,12,,,,13,,60,0
21450,note_off,,,,,90,0,8,,,,7,,82,0
21450,note_off,,,,,42,0,6,,,,5,,60,0
21450,note_off,,,,,0,0,12,,,,13,,75,0
21450,note_off,,,,,42,0,12,,,,13,,67,0
21456,note_on,,,,,6,0,10,,,,11,,48,49
21456,note_on,,,,,6,0,12,,,,13,,48,49
21456,note_on,,,,,6,0,8,,,,7,,81,75
21456,note_on,,,,,6,0,11,,,,12,,36,49
21456,note_on,,,,,54,0,7,,,,6,,75,96
21477,note_off,,,,,21,0,7,,,,6,,75,0
21480,note_on,,,,,3,0,7,,,,6,,74,96
21498,note_off,,,,,42,0,12,,,,13,,48,0
21498,note_off,,,,,42,0,8,,,,7,,81,0
21498,note_off,,,,,42,0,11,,,,12,,36,0
21498,note_off,,,,,42,0,10,,,,11,,48,0
21501,note_off,,,,,21,0,7,,,,6,,74,0
21504,note_on,,,,,6,0,10,,,,11,,50,49
21504,note_on,,,,,6,0,8,,,,7,,79,75
21504,note_on,,,,,6,0,11,,,,12,,38,49
21504,note_on,,,,,3,0,7,,,,6,,74,96
21504,note_on,,,,,6,0,12,,,,13,,50,49
21514,note_off,,,,,10,0,8,,,,7,,79,0
21516,note_on,,,,,2,0,8,,,,7,,78,75
21525,note_off,,,,,21,0,7,,,,6,,74,0
21526,note_off,,,,,10,0,8,,,,7,,78,0
21528,note_on,,,,,3,0,7,,,,6,,72,96
21528,note_on,,,,,2,0,8,,,,7,,79,75
21538,note_off,,,,,10,0,8,,,,7,,79,0
21540,note_on,,,,,2,0,8,,,,7,,78,75
21546,note_off,,,,,42,0,12,,,,13,,50,0
21546,note_off,,,,,42,0,10,,,,11,,50,0
21546,note_off,,,,,42,0,11,,,,12,,38,0
21549,note_off,,,,,21,0,7,,,,6,,72,0
21550,note_off,,,,,10,0,8,,,,7,,78,0
21552,note_on,,,,,6,0,11,,,,12,,39,49
21552,note_on,,,,,6,0,12,,,,13,,51,49
21552,note_on,,,,,2,0,8,,,,7,,78,75
21552,note_on,,,,,6,0,10,,,,11,,51,49
21552,note_on,,,,,3,0,7,,,,6,,72,96
21573,note_off,,,,,21,0,7,,,,6,,72,0
21573,note_off,,,,,21,0,8,,,,7,,78,0
21576,note_on,,,,,3,0,7,,,,6,,70,96
21576,note_on,,,,,3,0,8,,,,7,,81,75
21594,note_off,,,,,42,0,12,,,,13,,51,0
21594,note_off,,,,,42,0,11,,,,12,,39,0
21594,note_off,,,,,42,0,10,,,,11,,51,0
21597,note_off,,,,,21,0,7,,,,6,,70,0
21597,note_off,,,,,21,0,8,,,,7,,81,0
21600,note_on,,,,,6,0,12,,,,13,,50,49
21600,note_on,,,,,3,0,7,,,,6,,70,96
21600,note_on,,,,,6,0,11,,,,12,,38,49
21600,note_on,,,,,6,0,10,,,,11,,50,49
21600,note_on,,,,,3,0,8,,,,7,,79,75
21621,note_off,,,,,21,0,8,,,,7,,79,0
21621,note_off,,,,,21,0,7,,,,6,,70,0
21624,note_on,,,,,3,0,8,,,,7,,78,75
21624,note_on,,,,,3,0,7,,,,6,,69,96
21642,note_off,,,,,42,0,11,,,,12,,38,0
21642,note_off,,,,,42,0,10,,,,11,,50,0
21642,note_off,,,,,42,0,12,,,,13,,50,0
21645,note_off,,,,,21,0,8,,,,7,,78,0
21645,note_off,,,,,21,0,7,,,,6,,69,0
21648,note_on,,,,,6,0,11,,,,12,,36,49
21648,note_on,,,,,3,0,8,,,,7,,79,75
21648,note_on,,,,,3,0,7,,,,6,,69,96
21648,note_on,,,,,6,0,12,,,,13,,48,49
21648,note_on,,,,,6,0,10,,,,11,,48,49
21669,note_off,,,,,21,0,8,,,,7,,79,0
21669,note_off,,,,,21,0,7,,,,6,,69,0
21672,note_on,,,,,3,0,7,,,,6,,74,96
21672,note_on,,,,,3,0,8,,,,7,,81,75
21690,note_off,,,,,42,0,12,,,,13,,48,0
21690,note_off,,,,,42,0,11,,,,12,,36,0
21690,note_off,,,,,42,0,10,,,,11,,48,0
21693,note_off,,,,,21,0,7,,,,6,,74,0
21693,note_off,,,,,21,0,8,,,,7,,81,0
21696,note_on,,,,,3,0,8,,,,7,,74,75
21696,note_on,,,,,6,0,12,,,,13,,46,49
21696,note_on,,,,,3,0,7,,,,6,,74,96
21696,note_on,,,,,6,0,10,,,,11,,46,49
21696,note_on,,,,,6,0,11,,,,12,,34,49
21717,note_off,,,,,21,0,7,,,,6,,74,0
21720,note_on,,,,,3,0,7,,,,6,,72,96
21738,note_off,,,,,42,0,11,,,,12,,34,0
21738,note_off,,,,,42,0,10,,,,11,,46,0
21738,note_off,,,,,42,0,12,,,,13,,46,0
21741,note_off,,,,,21,0,7,,,,6,,72,0
21744,note_on,,,,,3,0,7,,,,6,,72,96
21744,note_on,,,,,6,0,11,,,,12,,46,49
21744,note_on,,,,,6,0,12,,,,13,,58,49
21744,note_on,,,,,6,0,10,,,,11,,58,49
21765,note_off,,,,,21,0,7,,,,6,,72,0
21768,note_on,,,,,3,0,7,,,,6,,69,96
21786,note_off,,,,,42,0,12,,,,13,,58,0
21786,note_off,,,,,42,0,10,,,,11,,58,0
21786,note_off,,,,,42,0,11,,,,12,,46,0
21789,note_off,,,,,21,0,7,,,,6,,69,0
21792,note_on,,,,,6,0,11,,,,12,,48,49
21792,note_on,,,,,6,0,10,,,,11,,60,49
21792,note_on,,,,,3,0,7,,,,6,,70,96
21792,note_on,,,,,6,0,12,,,,13,,60,49
21813,note_off,,,,,21,0,7,,,,6,,70,0
21816,note_on,,,,,3,0,7,,,,6,,67,96
21834,note_off,,,,,42,0,11,,,,12,,48,0
21834,note_off,,,,,42,0,10,,,,11,,60,0
21834,note_off,,,,,42,0,12,,,,13,,60,0
21837,note_off,,,,,21,0,7,,,,6,,67,0
21840,note_on,,,,,6,0,11,,,,12,,50,49
21840,note_on,,,,,6,0,10,,,,11,,62,49
21840,note_on,,,,,6,0,12,,,,13,,62,49
21840,note_on,,,,,3,0,7,,,,6,,66,96
21882,note_off,,,,,42,0,11,,,,12,,50,0
21882,note_off,,,,,42,0,12,,,,13,,62,0
21882,note_off,,,,,42,0,10,,,,11,,62,0
21882,note_off,,,,,186,0,8,,,,7,,74,0
21882,note_off,,,,,42,0,7,,,,6,,66,0
21888,note_on,,,,,6,0,10,,,,11,,60,49
21888,note_on,,,,,6,0,8,,,,7,,67,75
21888,note_on,,,,,6,0,7,,,,6,,69,96
21888,note_on,,,,,6,0,11,,,,12,,48,49
21888,note_on,,,,,6,0,12,,,,13,,60,49
21898,note_off,,,,,10,0,8,,,,7,,67,0
21900,note_on,,,,,2,0,8,,,,7,,66,75
21909,note_off,,,,,21,0,7,,,,6,,69,0
21909,note_off,,,,,21,0,12,,,,13,,60,0
21909,note_off,,,,,21,0,11,,,,12,,48,0
21909,note_off,,,,,21,0,10,,,,11,,60,0
21910,note_off,,,,,10,0,8,,,,7,,66,0
21912,note_on,,,,,3,0,10,,,,11,,58,49
21912,note_on,,,,,2,0,8,,,,7,,67,75
21912,note_on,,,,,3,0,11,,,,12,,46,49
21912,note_on,,,,,3,0,12,,,,13,,58,49
21912,note_on,,,,,3,0,7,,,,6,,70,96
21922,note_off,,,,,10,0,8,,,,7,,67,0
21924,note_on,,,,,2,0,8,,,,7,,66,75
21933,note_off,,,,,21,0,7,,,,6,,70,0
21933,note_off,,,,,21,0,12,,,,13,,58,0
21933,note_off,,,,,21,0,10,,,,11,,58,0
21933,note_off,,,,,21,0,11,,,,12,,46,0
21934,note_off,,,,,10,0,8,,,,7,,66,0
21936,note_on,,,,,3,0,7,,,,6,,72,96
21936,note_on,,,,,3,0,11,,,,12,,45,49
21936,note_on,,,,,3,0,10,,,,11,,57,49
21936,note_on,,,,,3,0,12,,,,13,,57,49
21936,note_on,,,,,2,0,8,,,,7,,67,75
21946,note_off,,,,,10,0,7,,,,6,,72,0
21948,note_on,,,,,2,0,7,,,,6,,70,96
21957,note_off,,,,,21,0,11,,,,12,,45,0
21957,note_off,,,,,21,0,12,,,,13,,57,0
21957,note_off,,,,,21,0,10,,,,11,,57,0
21958,note_off,,,,,10,0,7,,,,6,,70,0
21960,note_on,,,,,3,0,10,,,,11,,55,49
21960,note_on,,,,,3,0,12,,,,13,,55,49
21960,note_on,,,,,2,0,7,,,,6,,72,96
21960,note_on,,,,,3,0,11,,,,12,,43,49
21970,note_off,,,,,10,0,7,,,,6,,72,0
21972,note_on,,,,,2,0,7,,,,6,,70,96
21978,note_off,,,,,42,0,8,,,,7,,67,0
21981,note_off,,,,,21,0,10,,,,11,,55,0
21981,note_off,,,,,21,0,11,,,,12,,43,0
21981,note_off,,,,,21,0,12,,,,13,,55,0
21982,note_off,,,,,10,0,7,,,,6,,70,0
21984,note_on,,,,,2,0,7,,,,6,,72,96
21984,note_on,,,,,3,0,10,,,,11,,54,49
21984,note_on,,,,,3,0,11,,,,12,,42,49
21984,note_on,,,,,6,0,8,,,,7,,69,75
21984,note_on,,,,,3,0,12,,,,13,,54,49
22005,note_off,,,,,21,0,8,,,,7,,69,0
22008,note_on,,,,,3,0,8,,,,7,,70,75
22026,note_off,,,,,42,0,10,,,,11,,54,0
22026,note_off,,,,,42,0,12,,,,13,,54,0
22026,note_off,,,,,42,0,11,,,,12,,42,0
22029,note_off,,,,,21,0,8,,,,7,,70,0
22032,note_on,,,,,6,0,12,,,,13,,50,49
22032,note_on,,,,,6,0,10,,,,11,,50,49
22032,note_on,,,,,6,0,11,,,,12,,38,49
22032,note_on,,,,,3,0,8,,,,7,,69,75
22047,note_off,,,,,63,0,7,,,,6,,72,0
22053,note_off,,,,,21,0,8,,,,7,,69,0
22056,note_on,,,,,3,0,8,,,,7,,66,75
22056,note_on,,,,,9,0,7,,,,6,,74,96
22066,note_off,,,,,10,0,7,,,,6,,74,0
22068,note_on,,,,,2,0,7,,,,6,,75,96
22074,note_off,,,,,42,0,11,,,,12,,38,0
22074,note_off,,,,,42,0,12,,,,13,,50,0
22074,note_off,,,,,42,0,10,,,,11,,50,0
22077,note_off,,,,,21,0,8,,,,7,,66,0
22078,note_off,,,,,10,0,7,,,,6,,75,0
22080,note_on,,,,,6,0,10,,,,11,,54,49
22080,note_on,,,,,6,0,12,,,,13,,54,49
22080,note_on,,,,,2,0,7,,,,6,,74,96
22080,note_on,,,,,6,0,11,,,,12,,42,49
22080,note_on,,,,,3,0,8,,,,7,,67,75
22101,note_off,,,,,21,0,8,,,,7,,67,0
22101,note_off,,,,,21,0,7,,,,6,,74,0
22104,note_on,,,,,3,0,7,,,,6,,72,96
22104,note_on,,,,,3,0,8,,,,7,,69,75
22122,note_off,,,,,42,0,11,,,,12,,42,0
22122,note_off,,,,,42,0,12,,,,13,,54,0
22122,note_off,,,,,42,0,10,,,,11,,54,0
22125,note_off,,,,,21,0,8,,,,7,,69,0
22125,note_off,,,,,21,0,7,,,,6,,72,0
22128,note_on,,,,,6,0,10,,,,11,,55,49
22128,note_on,,,,,3,0,7,,,,6,,70,96
22128,note_on,,,,,6,0,11,,,,12,,43,49
22128,note_on,,,,,3,0,8,,,,7,,62,75
22128,note_on,,,,,6,0,12,,,,13,,55,49
22149,note_off,,,,,21,0,7,,,,6,,70,0
22152,note_on,,,,,3,0,7,,,,6,,69,96
22170,note_off,,,,,42,0,10,,,,11,,55,0
22170,note_off,,,,,42,0,11,,,,12,,43,0
22170,note_off,,,,,42,0,8,,,,7,,62,0
22170,note_off,,,,,42,0,12,,,,13,,55,0
22173,note_off,,,,,21,0,7,,,,6,,69,0
22176,note_on,,,,,6,0,10,,,,11,,43,49
22176,note_on,,,,,3,0,7,,,,6,,72,96
22176,note_on,,,,,6,0,11,,,,12,,31,49
22176,note_on,,,,,6,0,8,,,,7,,74,75
22176,note_on,,,,,6,0,12,,,,13,,43,49
22197,note_off,,,,,21,0,7,,,,6,,72,0
22200,note_on,,,,,3,0,7,,,,6,,70,96
22218,note_off,,,,,42,0,11,,,,12,,31,0
22218,note_off,,,,,42,0,10,,,,11,,43,0
22218,note_off,,,,,42,0,12,,,,13,,43,0
22221,note_off,,,,,21,0,7,,,,6,,70,0
22224,note_on,,,,,6,0,11,,,,12,,34,49
22224,note_on,,,,,6,0,12,,,,13,,46,49
22224,note_on,,,,,6,0,10,,,,11,,46,49
22224,note_on,,,,,3,0,7,,,,6,,69,96
22245,note_off,,,,,21,0,7,,,,6,,69,0
22248,note_on,,,,,3,0,7,,,,6,,67,96
22266,note_off,,,,,42,0,12,,,,13,,46,0
22266,note_off,,,,,42,0,11,,,,12,,34,0
22266,note_off,,,,,42,0,10,,,,11,,46,0
22269,note_off,,,,,21,0,7,,,,6,,67,0
22272,note_on,,,,,6,0,10,,,,11,,48,49
22272,note_on,,,,,6,0,12,,,,13,,48,49
22272,note_on,,,,,6,0,11,,,,12,,36,49
22272,note_on,,,,,3,0,7,,,,6,,75,96
22293,note_off,,,,,21,0,11,,,,12,,36,0
22293,note_off,,,,,21,0,12,,,,13,,48,0
22293,note_off,,,,,21,0,10,,,,11,,48,0
22293,note_off,,,,,21,0,7,,,,6,,75,0
22296,note_on,,,,,3,0,10,,,,11,,50,49
22296,note_on,,,,,3,0,12,,,,13,,50,49
22296,note_on,,,,,3,0,11,,,,12,,38,49
22296,note_on,,,,,3,0,7,,,,6,,67,96
22314,note_off,,,,,138,0,8,,,,7,,74,0
22317,note_off,,,,,21,0,12,,,,13,,50,0
22317,note_off,,,,,21,0,11,,,,12,,38,0
22317,note_off,,,,,21,0,7,,,,6,,67,0
22317,note_off,,,,,21,0,10,,,,11,,50,0
22320,note_on,,,,,3,0,7,,,,6,,60,96
22320,note_on,,,,,3,0,11,,,,12,,39,49
22320,note_on,,,,,3,0,10,,,,11,,51,49
22320,note_on,,,,,3,0,12,,,,13,,51,49
22320,note_on,,,,,6,0,8,,,,7,,72,75
22341,note_off,,,,,21,0,7,,,,6,,60,0
22341,note_off,,,,,21,0,11,,,,12,,39,0
22341,note_off,,,,,21,0,10,,,,11,,51,0
22341,note_off,,,,,21,0,12,,,,13,,51,0
22344,note_on,,,,,3,0,7,,,,6,,67,96
22344,note_on,,,,,3,0,10,,,,11,,48,49
22344,note_on,,,,,3,0,12,,,,13,,48,49
22344,note_on,,,,,3,0,11,,,,12,,36,49
22362,note_off,,,,,42,0,8,,,,7,,72,0
22365,note_off,,,,,21,0,12,,,,13,,48,0
22365,note_off,,,,,21,0,7,,,,6,,67,0
22365,note_off,,,,,21,0,10,,,,11,,48,0
22365,note_off,,,,,21,0,11,,,,12,,36,0
22368,note_on,,,,,3,0,7,,,,6,,75,96
22368,note_on,,,,,6,0,8,,,,7,,79,75
22368,note_on,,,,,3,0,10,,,,11,,46,49
22368,note_on,,,,,3,0,11,,,,12,,34,49
22368,note_on,,,,,3,0,12,,,,13,,46,49
22389,note_off,,,,,21,0,11,,,,12,,34,0
22389,note_off,,,,,21,0,10,,,,11,,46,0
22389,note_off,,,,,21,0,12,,,,13,,46,0
22392,note_on,,,,,3,0,11,,,,12,,33,49
22392,note_on,,,,,3,0,12,,,,13,,45,49
22392,note_on,,,,,3,0,10,,,,11,,45,49
22410,note_off,,,,,42,0,7,,,,6,,75,0
22413,note_off,,,,,21,0,10,,,,11,,45,0
22413,note_off,,,,,21,0,11,,,,12,,33,0
22413,note_off,,,,,21,0,12,,,,13,,45,0
22416,note_on,,,,,3,0,12,,,,13,,46,49
22416,note_on,,,,,3,0,10,,,,11,,46,49
22416,note_on,,,,,3,0,11,,,,12,,34,49
22437,note_off,,,,,21,0,12,,,,13,,46,0
22437,note_off,,,,,21,0,10,,,,11,,46,0
22437,note_off,,,,,21,0,11,,,,12,,34,0
22440,note_on,,,,,3,0,12,,,,13,,48,49
22440,note_on,,,,,3,0,11,,,,12,,36,49
22440,note_on,,,,,3,0,10,,,,11,,48,49
22458,note_off,,,,,90,0,8,,,,7,,79,0
22461,note_off,,,,,21,0,12,,,,13,,48,0
22461,note_off,,,,,21,0,10,,,,11,,48,0
22461,note_off,,,,,21,0,11,,,,12,,36,0
22464,note_on,,,,,3,0,10,,,,11,,50,49
22464,note_on,,,,,3,0,11,,,,12,,38,49
22464,note_on,,,,,6,0,8,,,,7,,78,75
22464,note_on,,,,,54,0,7,,,,6,,69,96
22464,note_on,,,,,3,0,12,,,,13,,50,49
22485,note_off,,,,,21,0,11,,,,12,,38,0
22485,note_off,,,,,21,0,7,,,,6,,69,0
22485,note_off,,,,,21,0,10,,,,11,,50,0
22485,note_off,,,,,21,0,12,,,,13,,50,0
22488,note_on,,,,,3,0,11,,,,12,,34,49
22488,note_on,,,,,3,0,10,,,,11,,46,49
22488,note_on,,,,,3,0,12,,,,13,,46,49
22488,note_on,,,,,3,0,7,,,,6,,70,96
22506,note_off,,,,,42,0,8,,,,7,,78,0
22509,note_off,,,,,21,0,11,,,,12,,34,0
22509,note_off,,,,,21,0,7,,,,6,,70,0
22509,note_off,,,,,21,0,10,,,,11,,46,0
22509,note_off,,,,,21,0,12,,,,13,,46,0
22512,note_on,,,,,3,0,11,,,,12,,33,49
22512,note_on,,,,,6,0,8,,,,7,,79,75
22512,note_on,,,,,3,0,10,,,,11,,45,49
22512,note_on,,,,,3,0,12,,,,13,,45,49
22512,note_on,,,,,3,0,7,,,,6,,70,96
22533,note_off,,,,,21,0,12,,,,13,,45,0
22533,note_off,,,,,21,0,7,,,,6,,70,0
22533,note_off,,,,,21,0,10,,,,11,,45,0
22533,note_off,,,,,21,0,11,,,,12,,33,0
22536,note_on,,,,,3,0,11,,,,12,,31,49
22536,note_on,,,,,3,0,12,,,,13,,43,49
22536,note_on,,,,,3,0,10,,,,11,,43,49
22536,note_on,,,,,3,0,7,,,,6,,72,96
22554,note_off,,,,,42,0,8,,,,7,,79,0
22557,note_off,,,,,21,0,11,,,,12,,31,0
22557,note_off,,,,,21,0,12,,,,13,,43,0
22557,note_off,,,,,21,0,10,,,,11,,43,0
22557,note_off,,,,,21,0,7,,,,6,,72,0
22560,note_on,,,,,3,0,12,,,,13,,45,49
22560,note_on,,,,,6,0,8,,,,7,,84,75
22560,note_on,,,,,3,0,11,,,,12,,33,49
22560,note_on,,,,,3,0,7,,,,6,,66,96
22560,note_on,,,,,3,0,10,,,,11,,45,49
22581,note_off,,,,,21,0,11,,,,12,,33,0
22581,note_off,,,,,21,0,10,,,,11,,45,0
22581,note_off,,,,,21,0,12,,,,13,,45,0
22581,note_off,,,,,21,0,7,,,,6,,66,0
22584,note_on,,,,,3,0,10,,,,11,,46,49
22584,note_on,,,,,3,0,11,,,,12,,34,49
22584,note_on,,,,,3,0,7,,,,6,,69,96
22584,note_on,,,,,3,0,12,,,,13,,46,49
22602,note_off,,,,,42,0,8,,,,7,,84,0
22605,note_off,,,,,21,0,10,,,,11,,46,0
22605,note_off,,,,,21,0,12,,,,13,,46,0
22605,note_off,,,,,21,0,7,,,,6,,69,0
22605,note_off,,,,,21,0,11,,,,12,,34,0
22608,note_on,,,,,3,0,7,,,,6,,72,96
22608,note_on,,,,,3,0,10,,,,11,,48,49
22608,note_on,,,,,3,0,12,,,,13,,48,49
22608,note_on,,,,,6,0,8,,,,7,,81,75
22608,note_on,,,,,3,0,11,,,,12,,36,49
22629,note_off,,,,,21,0,7,,,,6,,72,0
22629,note_off,,,,,21,0,10,,,,11,,48,0
22629,note_off,,,,,21,0,11,,,,12,,36,0
22629,note_off,,,,,21,0,12,,,,13,,48,0
22632,note_on,,,,,3,0,12,,,,13,,45,49
22632,note_on,,,,,3,0,10,,,,11,,45,49
22632,note_on,,,,,3,0,11,,,,12,,33,49
22632,note_on,,,,,3,0,7,,,,6,,75,96
22650,note_off,,,,,42,0,8,,,,7,,81,0
22653,note_off,,,,,21,0,11,,,,12,,33,0
22653,note_off,,,,,21,0,12,,,,13,,45,0
22653,note_off,,,,,21,0,10,,,,11,,45,0
22653,note_off,,,,,21,0,7,,,,6,,75,0
22656,note_on,,,,,3,0,10,,,,11,,43,49
22656,note_on,,,,,3,0,7,,,,6,,74,96
22656,note_on,,,,,6,0,8,,,,7,,82,75
22656,note_on,,,,,3,0,11,,,,12,,31,49
22656,note_on,,,,,3,0,12,,,,13,,43,49
22677,note_off,,,,,21,0,12,,,,13,,43,0
22677,note_off,,,,,21,0,11,,,,12,,31,0
22677,note_off,,,,,21,0,10,,,,11,,43,0
22680,note_on,,,,,3,0,12,,,,13,,42,49
22680,note_on,,,,,3,0,11,,,,12,,30,49
22680,note_on,,,,,3,0,10,,,,11,,42,49
22701,note_off,,,,,21,0,11,,,,12,,30,0
22701,note_off,,,,,21,0,10,,,,11,,42,0
22701,note_off,,,,,21,0,12,,,,13,,42,0
22704,note_on,,,,,3,0,11,,,,12,,31,49
22704,note_on,,,,,3,0,12,,,,13,,43,49
22704,note_on,,,,,3,0,10,,,,11,,43,49
22725,note_off,,,,,21,0,11,,,,12,,31,0
22725,note_off,,,,,69,0,7,,,,6,,74,0
22725,note_off,,,,,21,0,10,,,,11,,43,0
22725,note_off,,,,,21,0,12,,,,13,,43,0
22725,note_off,,,,,69,0,8,,,,7,,82,0
22728,note_on,,,,,3,0,7,,,,6,,72,96
22728,note_on,,,,,3,0,10,,,,11,,48,49
22728,note_on,,,,,3,0,12,,,,13,,48,49
22728,note_on,,,,,3,0,11,,,,12,,36,49
22728,note_on,,,,,3,0,8,,,,7,,84,75
22749,note_off,,,,,21,0,7,,,,6,,72,0
22749,note_off,,,,,21,0,10,,,,11,,48,0
22749,note_off,,,,,21,0,12,,,,13,,48,0
22749,note_off,,,,,21,0,8,,,,7,,84,0
22749,note_off,,,,,21,0,11,,,,12,,36,0
22752,note_on,,,,,3,0,12,,,,13,,50,49
22752,note_on,,,,,3,0,7,,,,6,,72,96
22752,note_on,,,,,3,0,11,,,,12,,38,49
22752,note_on,,,,,3,0,8,,,,7,,78,75
22752,note_on,,,,,3,0,10,,,,11,,50,49
22762,note_off,,,,,10,0,7,,,,6,,72,0
22764,note_on,,,,,2,0,7,,,,6,,70,96
22774,note_off,,,,,10,0,7,,,,6,,70,0
22776,note_on,,,,,2,0,7,,,,6,,72,96
22786,note_off,,,,,10,0,7,,,,6,,72,0
22788,note_on,,,,,2,0,7,,,,6,,70,96
22794,note_off,,,,,42,0,11,,,,12,,38,0
22794,note_off,,,,,42,0,12,,,,13,,50,0
22794,note_off,,,,,42,0,10,,,,11,,50,0
22798,note_off,,,,,10,0,7,,,,6,,70,0
22800,note_on,,,,,6,0,10,,,,11,,38,49
22800,note_on,,,,,6,0,12,,,,13,,38,49
22800,note_on,,,,,2,0,7,,,,6,,69,96
22800,note_on,,,,,6,0,11,,,,12,,26,49
22815,note_off,,,,,63,0,8,,,,7,,78,0
22821,note_off,,,,,21,0,7,,,,6,,69,0
22824,note_on,,,,,3,0,7,,,,6,,67,96
22824,note_on,,,,,9,0,8,,,,7,,79,75
22842,note_off,,,,,42,0,10,,,,11,,38,0
22842,note_off,,,,,42,0,11,,,,12,,26,0
22842,note_off,,,,,42,0,12,,,,13,,38,0
22845,note_off,,,,,21,0,7,,,,6,,67,0
22845,note_off,,,,,21,0,8,,,,7,,79,0
22848,note_on,,,,,6,0,12,,,,13,,43,49
22848,note_on,,,,,1398,0,6,,,,5,,43,49
22848,note_on,,,,,3,0,7,,,,6,,67,96
22848,note_on,,,,,6,0,10,,,,11,,43,49
22848,note_on,,,,,6,0,11,,,,12,,31,49
22848,note_on,,,,,3,0,8,,,,7,,79,49
22869,note_off,,,,,21,0,12,,,,13,,43,0
22869,note_off,,,,,21,0,10,,,,11,,43,0
22869,note_off,,,,,21,0,6,,,,5,,43,0
22869,note_off,,,,,21,0,11,,,,12,,31,0
22872,note_on,,,,,3,0,12,,,,13,,45,49
22872,note_on,,,,,3,0,11,,,,12,,33,49
22872,note_on,,,,,3,0,6,,,,5,,45,49
22872,note_on,,,,,3,0,10,,,,11,,45,49
22890,note_off,,,,,42,0,7,,,,6,,67,0
22890,note_off,,,,,42,0,8,,,,7,,79,0
22893,note_off,,,,,21,0,6,,,,5,,45,0
22893,note_off,,,,,21,0,12,,,,13,,45,0
22893,note_off,,,,,21,0,11,,,,12,,33,0
22893,note_off,,,,,21,0,10,,,,11,,45,0
22896,note_on,,,,,3,0,11,,,,12,,34,49
22896,note_on,,,,,6,0,7,,,,6,,74,96
22896,note_on,,,,,3,0,10,,,,11,,46,49
22896,note_on,,,,,3,0,12,,,,13,,62,49
22896,note_on,,,,,0,0,12,,,,13,,70,49
22896,note_on,,,,,0,0,12,,,,13,,46,49
22896,note_on,,,,,1446,0,3,,,,2,,82,49
22896,note_on,,,,,3,0,6,,,,5,,46,49
22896,note_on,,,,,1446,0,4,,,,3,,79,49
22896,note_on,,,,,1446,0,5,,,,4,,74,49
22917,note_off,,,,,21,0,11,,,,12,,34,0
22917,note_off,,,,,21,0,4,,,,3,,79,0
22917,note_off,,,,,21,0,6,,,,5,,46,0
22917,note_off,,,,,21,0,10,,,,11,,46,0
22917,note_off,,,,,21,0,12,,,,13,,46,0
22920,note_on,,,,,3,0,4,,,,3,,77,49
22920,note_on,,,,,3,0,11,,,,12,,33,49
22920,note_on,,,,,3,0,6,,,,5,,45,49
22920,note_on,,,,,3,0,12,,,,13,,45,49
22920,note_on,,,,,3,0,10,,,,11,,45,49
22938,note_off,,,,,42,0,7,,,,6,,74,0
22938,note_off,,,,,42,0,5,,,,4,,74,0
22938,note_off,,,,,42,0,3,,,,2,,82,0
22938,note_off,,,,,18,0,12,,,,13,,62,0
22938,note_off,,,,,0,0,12,,,,13,,70,0
22941,note_off,,,,,21,0,4,,,,3,,77,0
22941,note_off,,,,,21,0,10,,,,11,,45,0
22941,note_off,,,,,21,0,11,,,,12,,33,0
22941,note_off,,,,,21,0,6,,,,5,,45,0
22941,note_off,,,,,3,0,12,,,,13,,45,0
22944,note_on,,,,,3,0,11,,,,12,,34,49
22944,note_on,,,,,3,0,6,,,,5,,46,49
22944,note_on,,,,,0,0,12,,,,13,,46,49
22944,note_on,,,,,3,0,10,,,,11,,46,49
22944,note_on,,,,,0,0,12,,,,13,,67,49
22944,note_on,,,,,3,0,4,,,,3,,79,49
22944,note_on,,,,,6,0,3,,,,2,,82,49
22944,note_on,,,,,6,0,7,,,,6,,79,96
22944,note_on,,,,,3,0,12,,,,13,,62,49
22944,note_on,,,,,6,0,5,,,,4,,74,49
22965,note_off,,,,,21,0,4,,,,3,,79,0
22965,note_off,,,,,21,0,6,,,,5,,46,0
22965,note_off,,,,,21,0,10,,,,11,,46,0
22965,note_off,,,,,21,0,11,,,,12,,34,0
22965,note_off,,,,,21,0,12,,,,13,,46,0
22968,note_on,,,,,3,0,12,,,,13,,43,49
22968,note_on,,,,,3,0,10,,,,11,,43,49
22968,note_on,,,,,3,0,11,,,,12,,31,49
22968,note_on,,,,,3,0,4,,,,3,,74,49
22968,note_on,,,,,3,0,6,,,,5,,43,49
22986,note_off,,,,,0,0,12,,,,13,,67,0
22986,note_off,,,,,42,0,7,,,,6,,79,0
22986,note_off,,,,,42,0,5,,,,4,,74,0
22986,note_off,,,,,18,0,12,,,,13,,62,0
22986,note_off,,,,,42,0,3,,,,2,,82,0
22989,note_off,,,,,3,0,12,,,,13,,43,0
22989,note_off,,,,,21,0,10,,,,11,,43,0
22989,note_off,,,,,21,0,11,,,,12,,31,0
22989,note_off,,,,,21,0,4,,,,3,,74,0
22989,note_off,,,,,21,0,6,,,,5,,43,0
22992,note_on,,,,,6,0,3,,,,2,,82,49
22992,note_on,,,,,0,0,12,,,,13,,48,49
22992,note_on,,,,,0,0,12,,,,13,,70,49
22992,note_on,,,,,3,0,10,,,,11,,48,49
22992,note_on,,,,,3,0,4,,,,3,,75,49
22992,note_on,,,,,3,0,12,,,,13,,63,49
22992,note_on,,,,,6,0,7,,,,6,,77,96
22992,note_on,,,,,3,0,11,,,,12,,36,49
22992,note_on,,,,,3,0,6,,,,5,,48,49
22992,note_on,,,,,6,0,5,,,,4,,72,49
23002,note_off,,,,,10,0,7,,,,6,,77,0
23004,note_on,,,,,2,0,7,,,,6,,75,96
23013,note_off,,,,,21,0,11,,,,12,,36,0
23013,note_off,,,,,21,0,3,,,,2,,82,0
23013,note_off,,,,,21,0,10,,,,11,,48,0
23013,note_off,,,,,21,0,6,,,,5,,48,0
23013,note_off,,,,,21,0,12,,,,13,,48,0
23014,note_off,,,,,10,0,7,,,,6,,75,0
23016,note_on,,,,,3,0,6,,,,5,,50,49
23016,note_on,,,,,3,0,11,,,,12,,38,49
23016,note_on,,,,,3,0,12,,,,13,,50,49
23016,note_on,,,,,3,0,3,,,,2,,81,49
23016,note_on,,,,,2,0,7,,,,6,,77,96
23016,note_on,,,,,3,0,10,,,,11,,50,49
23026,note_off,,,,,10,0,7,,,,6,,77,0
23028,note_on,,,,,2,0,7,,,,6,,75,96
23034,note_off,,,,,42,0,4,,,,3,,75,0
23034,note_off,,,,,0,0,12,,,,13,,70,0
23034,note_off,,,,,18,0,12,,,,13,,63,0
23034,note_off,,,,,42,0,5,,,,4,,72,0
23037,note_off,,,,,21,0,6,,,,5,,50,0
23037,note_off,,,,,3,0,12,,,,13,,50,0
23037,note_off,,,,,21,0,10,,,,11,,50,0
23037,note_off,,,,,21,0,3,,,,2,,81,0
23037,note_off,,,,,21,0,11,,,,12,,38,0
23038,note_off,,,,,10,0,7,,,,6,,75,0
23040,note_on,,,,,3,0,10,,,,11,,51,49
23040,note_on,,,,,0,0,12,,,,13,,51,49
23040,note_on,,,,,3,0,11,,,,12,,39,49
23040,note_on,,,,,3,0,3,,,,2,,79,49
23040,note_on,,,,,1878,0,9,,,,8,,72,49
23040,note_on,,,,,150,0,8,,,,7,,75,49
23040,note_on,,,,,2,0,7,,,,6,,74,96
23040,note_on,,,,,3,0,12,,,,13,,67,49
23040,note_on,,,,,0,0,12,,,,13,,72,49
23040,note_on,,,,,1878,0,13,,,,14,,67,75
23040,note_on,,,,,3,0,6,,,,5,,51,49
23061,note_off,,,,,21,0,9,,,,8,,72,0
23061,note_off,,,,,21,0,11,,,,12,,39,0
23061,note_off,,,,,21,0,3,,,,2,,79,0
23061,note_off,,,,,21,0,12,,,,13,,51,0
23061,note_off,,,,,21,0,7,,,,6,,74,0
23061,note_off,,,,,21,0,10,,,,11,,51,0
23061,note_off,,,,,21,0,6,,,,5,,51,0
23064,note_on,,,,,3,0,3,,,,2,,77,49
23064,note_on,,,,,3,0,6,,,,5,,50,49
23064,note_on,,,,,3,0,9,,,,8,,71,49
23064,note_on,,,,,3,0,7,,,,6,,75,96
23064,note_on,,,,,3,0,12,,,,13,,50,49
23064,note_on,,,,,3,0,10,,,,11,,50,49
23064,note_on,,,,,3,0,11,,,,12,,38,49
23082,note_off,,,,,42,0,8,,,,7,,75,0
23082,note_off,,,,,18,0,12,,,,13,,67,0
23082,note_off,,,,,0,0,12,,,,13,,72,0
23082,note_off,,,,,42,0,13,,,,14,,67,0
23085,note_off,,,,,21,0,7,,,,6,,75,0
23085,note_off,,,,,21,0,11,,,,12,,38,0
23085,note_off,,,,,21,0,6,,,,5,,50,0
23085,note_off,,,,,21,0,10,,,,11,,50,0
23085,note_off,,,,,21,0,3,,,,2,,77,0
23085,note_off,,,,,21,0,9,,,,8,,71,0
23085,note_off,,,,,3,0,12,,,,13,,50,0
23088,note_on,,,,,3,0,9,,,,8,,72,49
23088,note_on,,,,,0,0,12,,,,13,,51,49
23088,note_on,,,,,0,0,12,,,,13,,72,49
23088,note_on,,,,,3,0,10,,,,11,,51,49
23088,note_on,,,,,3,0,12,,,,13,,67,49
23088,note_on,,,,,3,0,6,,,,5,,51,49
23088,note_on,,,,,6,0,13,,,,14,,67,75
23088,note_on,,,,,3,0,3,,,,2,,79,49
23088,note_on,,,,,3,0,11,,,,12,,39,49
23088,note_on,,,,,6,0,8,,,,7,,75,49
23088,note_on,,,,,3,0,7,,,,6,,72,96
23109,note_off,,,,,21,0,3,,,,2,,79,0
23109,note_off,,,,,21,0,11,,,,12,,39,0
23109,note_off,,,,,21,0,6,,,,5,,51,0
23109,note_off,,,,,21,0,9,,,,8,,72,0
23109,note_off,,,,,21,0,12,,,,13,,51,0
23109,note_off,,,,,21,0,10,,,,11,,51,0
23112,note_on,,,,,3,0,11,,,,12,,36,49
23112,note_on,,,,,3,0,6,,,,5,,48,49
23112,note_on,,,,,3,0,9,,,,8,,67,49
23112,note_on,,,,,3,0,10,,,,11,,48,49
23112,note_on,,,,,3,0,3,,,,2,,75,49
23112,note_on,,,,,3,0,12,,,,13,,48,49
23130,note_off,,,,,42,0,8,,,,7,,75,0
23130,note_off,,,,,42,0,7,,,,6,,72,0
23130,note_off,,,,,18,0,12,,,,13,,67,0
23130,note_off,,,,,0,0,12,,,,13,,72,0
23130,note_off,,,,,42,0,13,,,,14,,67,0
23133,note_off,,,,,21,0,10,,,,11,,48,0
23133,note_off,,,,,21,0,11,,,,12,,36,0
23133,note_off,,,,,21,0,6,,,,5,,48,0
23133,note_off,,,,,21,0,3,,,,2,,75,0
23133,note_off,,,,,21,0,9,,,,8,,67,0
23133,note_off,,,,,3,0,12,,,,13,,48,0
23136,note_on,,,,,3,0,12,,,,13,,69,49
23136,note_on,,,,,0,0,12,,,,13,,75,49
23136,note_on,,,,,3,0,10,,,,11,,53,49
23136,note_on,,,,,0,0,12,,,,13,,53,49
23136,note_on,,,,,6,0,8,,,,7,,75,49
23136,note_on,,,,,3,0,3,,,,2,,81,49
23136,note_on,,,,,6,0,13,,,,14,,65,75
23136,note_on,,,,,3,0,6,,,,5,,53,49
23136,note_on,,,,,3,0,11,,,,12,,41,49
23136,note_on,,,,,3,0,9,,,,8,,69,49
23157,note_off,,,,,21,0,12,,,,13,,53,0
23157,note_off,,,,,21,0,6,,,,5,,53,0
23157,note_off,,,,,21,0,10,,,,11,,53,0
23157,note_off,,,,,21,0,8,,,,7,,75,0
23157,note_off,,,,,21,0,11,,,,12,,41,0
23160,note_on,,,,,3,0,10,,,,11,,55,49
23160,note_on,,,,,3,0,6,,,,5,,55,49
23160,note_on,,,,,3,0,11,,,,12,,43,49
23160,note_on,,,,,3,0,8,,,,7,,74,49
23160,note_on,,,,,3,0,12,,,,13,,55,49
23178,note_off,,,,,42,0,13,,,,14,,65,0
23178,note_off,,,,,0,0,12,,,,13,,75,0
23178,note_off,,,,,18,0,12,,,,13,,69,0
23178,note_off,,,,,42,0,3,,,,2,,81,0
23178,note_off,,,,,42,0,9,,,,8,,69,0
23181,note_off,,,,,3,0,12,,,,13,,55,0
23181,note_off,,,,,21,0,10,,,,11,,55,0
23181,note_off,,,,,21,0,11,,,,12,,43,0
23181,note_off,,,,,21,0,8,,,,7,,74,0
23181,note_off,,,,,21,0,6,,,,5,,55,0
23184,note_on,,,,,3,0,6,,,,5,,57,49
23184,note_on,,,,,3,0,11,,,,12,,45,49
23184,note_on,,,,,3,0,8,,,,7,,72,49
23184,note_on,,,,,150,0,4,,,,3,,77,49
23184,note_on,,,,,0,0,12,,,,13,,57,49
23184,note_on,,,,,3,0,12,,,,13,,65,49
23184,note_on,,,,,6,0,3,,,,2,,82,49
23184,note_on,,,,,150,0,5,,,,4,,72,49
23184,note_on,,,,,54,0,7,,,,6,,72,96
23184,note_on,,,,,3,0,10,,,,11,,57,49
23184,note_on,,,,,0,0,12,,,,13,,72,49
23194,note_off,,,,,10,0,3,,,,2,,82,0
23196,note_on,,,,,2,0,3,,,,2,,81,49
23205,note_off,,,,,21,0,8,,,,7,,72,0
23205,note_off,,,,,21,0,11,,,,12,,45,0
23205,note_off,,,,,21,0,6,,,,5,,57,0
23205,note_off,,,,,21,0,4,,,,3,,77,0
23205,note_off,,,,,21,0,10,,,,11,,57,0
23205,note_off,,,,,21,0,12,,,,13,,57,0
23206,note_off,,,,,10,0,3,,,,2,,81,0
23208,note_on,,,,,3,0,11,,,,12,,43,49
23208,note_on,,,,,3,0,6,,,,5,,55,49
23208,note_on,,,,,3,0,10,,,,11,,55,49
23208,note_on,,,,,3,0,4,,,,3,,75,49
23208,note_on,,,,,3,0,12,,,,13,,55,49
23208,note_on,,,,,2,0,3,,,,2,,82,49
23208,note_on,,,,,3,0,8,,,,7,,70,49
23218,note_off,,,,,10,0,3,,,,2,,82,0
23220,note_on,,,,,2,0,3,,,,2,,81,49
23226,note_off,,,,,18,0,12,,,,13,,65,0
23226,note_off,,,,,0,0,12,,,,13,,72,0
23226,note_off,,,,,42,0,5,,,,4,,72,0
23226,note_off,,,,,42,0,7,,,,6,,72,0
23229,note_off,,,,,21,0,4,,,,3,,75,0
23229,note_off,,,,,21,0,11,,,,12,,43,0
23229,note_off,,,,,3,0,12,,,,13,,55,0
23229,note_off,,,,,21,0,8,,,,7,,70,0
23229,note_off,,,,,21,0,6,,,,5,,55,0
23229,note_off,,,,,21,0,10,,,,11,,55,0
23230,note_off,,,,,10,0,3,,,,2,,81,0
23232,note_on,,,,,2,0,3,,,,2,,82,49
23232,note_on,,,,,3,0,4,,,,3,,77,49
23232,note_on,,,,,0,0,12,,,,13,,72,49
23232,note_on,,,,,0,0,12,,,,13,,57,49
23232,note_on,,,,,3,0,11,,,,12,,45,49
23232,note_on,,,,,3,0,6,,,,5,,57,49
23232,note_on,,,,,6,0,5,,,,4,,72,49
23232,note_on,,,,,3,0,8,,,,7,,72,49
23232,note_on,,,,,3,0,12,,,,13,,65,49
23232,note_on,,,,,3,0,10,,,,11,,57,49
23232,note_on,,,,,6,0,7,,,,6,,74,96
23242,note_off,,,,,10,0,3,,,,2,,82,0
23244,note_on,,,,,2,0,3,,,,2,,81,49
23253,note_off,,,,,21,0,4,,,,3,,77,0
23253,note_off,,,,,21,0,11,,,,12,,45,0
23253,note_off,,,,,21,0,12,,,,13,,57,0
23253,note_off,,,,,21,0,7,,,,6,,74,0
23253,note_off,,,,,21,0,8,,,,7,,72,0
23253,note_off,,,,,21,0,10,,,,11,,57,0
23253,note_off,,,,,21,0,6,,,,5,,57,0
23254,note_off,,,,,10,0,3,,,,2,,81,0
23256,note_on,,,,,3,0,6,,,,5,,53,49
23256,note_on,,,,,3,0,12,,,,13,,53,49
23256,note_on,,,,,3,0,10,,,,11,,53,49
23256,note_on,,,,,2,0,3,,,,2,,79,49
23256,note_on,,,,,3,0,7,,,,6,,75,96
23256,note_on,,,,,3,0,4,,,,3,,72,49
23256,note_on,,,,,3,0,11,,,,12,,41,49
23256,note_on,,,,,3,0,8,,,,7,,69,49
23266,note_off,,,,,10,0,3,,,,2,,79,0
23266,note_off,,,,,10,0,7,,,,6,,75,0
23268,note_on,,,,,2,0,3,,,,2,,81,49
23268,note_on,,,,,2,0,7,,,,6,,77,96
23274,note_off,,,,,18,0,12,,,,13,,65,0
23274,note_off,,,,,42,0,5,,,,4,,72,0
23274,note_off,,,,,0,0,12,,,,13,,72,0
23277,note_off,,,,,21,0,8,,,,7,,69,0
23277,note_off,,,,,21,0,10,,,,11,,53,0
23277,note_off,,,,,21,0,11,,,,12,,41,0
23277,note_off,,,,,21,0,4,,,,3,,72,0
23277,note_off,,,,,3,0,12,,,,13,,53,0
23277,note_off,,,,,21,0,6,,,,5,,53,0
23278,note_off,,,,,10,0,7,,,,6,,77,0
23278,note_off,,,,,10,0,3,,,,2,,81,0
23280,note_on,,,,,3,0,10,,,,11,,58,49
23280,note_on,,,,,3,0,8,,,,7,,74,49
23280,note_on,,,,,0,0,12,,,,13,,58,49
23280,note_on,,,,,0,0,12,,,,13,,74,49
23280,note_on,,,,,3,0,12,,,,13,,65,49
23280,note_on,,,,,6,0,5,,,,4,,70,49
23280,note_on,,,,,3,0,4,,,,3,,74,49
23280,note_on,,,,,2,0,3,,,,2,,82,49
23280,note_on,,,,,2,0,7,,,,6,,76,96
23280,note_on,,,,,3,0,6,,,,5,,58,49
23280,note_on,,,,,3,0,11,,,,12,,46,49
23301,note_off,,,,,21,0,8,,,,7,,74,0
23301,note_off,,,,,21,0,12,,,,13,,58,0
23301,note_off,,,,,21,0,10,,,,11,,58,0
23301,note_off,,,,,21,0,11,,,,12,,46,0
23301,note_off,,,,,21,0,7,,,,6,,76,0
23304,note_on,,,,,3,0,12,,,,13,,60,49
23304,note_on,,,,,3,0,10,,,,11,,60,49
23304,note_on,,,,,3,0,11,,,,12,,48,49
23304,note_on,,,,,3,0,8,,,,7,,75,49
23304,note_on,,,,,3,0,7,,,,6,,74,96
23322,note_off,,,,,0,0,12,,,,13,,74,0
23322,note_off,,,,,42,0,4,,,,3,,74,0
23322,note_off,,,,,18,0,12,,,,13,,65,0
23322,note_off,,,,,42,0,6,,,,5,,58,0
23322,note_off,,,,,42,0,3,,,,2,,82,0
23322,note_off,,,,,42,0,5,,,,4,,70,0
23325,note_off,,,,,21,0,8,,,,7,,75,0
23325,note_off,,,,,21,0,7,,,,6,,74,0
23325,note_off,,,,,21,0,10,,,,11,,60,0
23325,note_off,,,,,3,0,12,,,,13,,60,0
23325,note_off,,,,,21,0,11,,,,12,,48,0
23328,note_on,,,,,3,0,12,,,,13,,65,49
23328,note_on,,,,,0,0,12,,,,13,,70,49
23328,note_on,,,,,0,0,12,,,,13,,62,49
23328,note_on,,,,,3,0,10,,,,11,,62,49
23328,note_on,,,,,3,0,7,,,,6,,72,96
23328,note_on,,,,,3,0,8,,,,7,,74,49
23328,note_on,,,,,150,0,13,,,,14,,65,75
23328,note_on,,,,,150,0,9,,,,8,,70,49
23328,note_on,,,,,3,0,11,,,,12,,50,49
23349,note_off,,,,,21,0,9,,,,8,,70,0
23349,note_off,,,,,21,0,8,,,,7,,74,0
23349,note_off,,,,,21,0,10,,,,11,,62,0
23349,note_off,,,,,21,0,7,,,,6,,72,0
23349,note_off,,,,,21,0,12,,,,13,,62,0
23349,note_off,,,,,21,0,11,,,,12,,50,0
23352,note_on,,,,,3,0,8,,,,7,,75,49
23352,note_on,,,,,3,0,9,,,,8,,69,49
23352,note_on,,,,,3,0,10,,,,11,,60,49
23352,note_on,,,,,3,0,7,,,,6,,74,96
23352,note_on,,,,,3,0,11,,,,12,,48,49
23352,note_on,,,,,3,0,12,,,,13,,60,49
23370,note_off,,,,,42,0,13,,,,14,,65,0
23370,note_off,,,,,0,0,12,,,,13,,70,0
23370,note_off,,,,,18,0,12,,,,13,,65,0
23373,note_off,,,,,21,0,9,,,,8,,69,0
23373,note_off,,,,,21,0,8,,,,7,,75,0
23373,note_off,,,,,21,0,11,,,,12,,48,0
23373,note_off,,,,,3,0,12,,,,13,,60,0
23373,note_off,,,,,21,0,10,,,,11,,60,0
23373,note_off,,,,,21,0,7,,,,6,,74,0
23376,note_on,,,,,3,0,10,,,,11,,62,49
23376,note_on,,,,,3,0,9,,,,8,,70,49
23376,note_on,,,,,3,0,11,,,,12,,50,49
23376,note_on,,,,,6,0,13,,,,14,,65,75
23376,note_on,,,,,3,0,12,,,,13,,65,49
23376,note_on,,,,,3,0,8,,,,7,,77,49
23376,note_on,,,,,3,0,7,,,,6,,70,96
23376,note_on,,,,,0,0,12,,,,13,,70,49
23376,note_on,,,,,0,0,12,,,,13,,62,49
23397,note_off,,,,,21,0,11,,,,12,,50,0
23397,note_off,,,,,21,0,9,,,,8,,70,0
23397,note_off,,,,,21,0,12,,,,13,,62,0
23397,note_off,,,,,21,0,10,,,,11,,62,0
23400,note_on,,,,,3,0,12,,,,13,,58,49
23400,note_on,,,,,3,0,10,,,,11,,58,49
23400,note_on,,,,,3,0,11,,,,12,,46,49
23400,note_on,,,,,3,0,9,,,,8,,65,49
23418,note_off,,,,,42,0,7,,,,6,,70,0
23418,note_off,,,,,0,0,12,,,,13,,70,0
23418,note_off,,,,,42,0,8,,,,7,,77,0
23418,note_off,,,,,18,0,12,,,,13,,65,0
23418,note_off,,,,,42,0,13,,,,14,,65,0
23421,note_off,,,,,21,0,10,,,,11,,58,0
23421,note_off,,,,,3,0,12,,,,13,,58,0
23421,note_off,,,,,21,0,9,,,,8,,65,0
23421,note_off,,,,,21,0,11,,,,12,,46,0
23424,set_tempo,,,,,6,1,7,1500000,,,,,,
23424,set_tempo,,,,,23328,1,0,1500000,,,,,,
23424,note_on,,,,,0,0,11,,,,12,,38,49
23424,set_tempo,,,,,6,1,8,1500000,,,,,,
23424,note_on,,,,,0,0,12,,,,13,,50,49
23424,set_tempo,,,,,3,1,11,1500000,,,,,,
23424,set_tempo,,,,,2118,1,1,1500000,,,,,,
23424,set_tempo,,,,,2118,1,2,1500000,,,,,,
23424,set_tempo,,,,,102,1,5,1500000,,,,,,
23424,note_on,,,,,0,0,8,,,,7,,70,49
23424,set_tempo,,,,,102,1,3,1500000,,,,,,
23424,set_tempo,,,,,102,1,4,1500000,,,,,,
23424,set_tempo,,,,,6,1,13,1500000,,,,,,
23424,set_tempo,,,,,3,1,12,1500000,,,,,,
23424,note_on,,,,,0,0,12,,,,13,,65,49
23424,note_on,,,,,0,0,12,,,,13,,70,49
23424,note_on,,,,,0,0,9,,,,8,,65,49
23424,note_on,,,,,0,0,13,,,,14,,56,49
23424,set_tempo,,,,,3,1,9,1500000,,,,,,
23424,set_tempo,,,,,102,1,6,1500000,,,,,,
23424,set_tempo,,,,,3,1,10,1500000,,,,,,
23424,note_on,,,,,0,0,10,,,,11,,50,49
23472,note_on,,,,,48,0,7,,,,6,,77,96
23508,note_off,,,,,84,0,13,,,,14,,56,0
23514,note_off,,,,,42,0,7,,,,6,,77,0
23520,note_on,,,,,6,0,7,,,,6,,68,96
23520,note_on,,,,,12,0,13,,,,14,,53,49
23556,note_off,,,,,0,0,12,,,,13,,50,0
23556,note_off,,,,,132,0,10,,,,11,,50,0
23556,note_off,,,,,132,0,11,,,,12,,38,0
23556,note_off,,,,,132,0,9,,,,8,,65,0
23556,note_off,,,,,132,0,12,,,,13,,65,0
23556,note_off,,,,,0,0,12,,,,13,,70,0
23562,note_off,,,,,42,0,13,,,,14,,53,0
23562,note_off,,,,,42,0,7,,,,6,,68,0
23568,note_on,,,,,12,0,11,,,,12,,39,49
23568,note_on,,,,,12,0,10,,,,11,,51,49
23568,note_on,,,,,6,0,13,,,,14,,51,49
23568,note_on,,,,,12,0,9,,,,8,,67,49
23568,note_on,,,,,6,0,7,,,,6,,67,96
23589,note_off,,,,,21,0,10,,,,11,,51,0
23589,note_off,,,,,21,0,11,,,,12,,39,0
23592,note_on,,,,,3,0,11,,,,12,,38,49
23592,note_on,,,,,3,0,10,,,,11,,50,49
23610,note_off,,,,,42,0,13,,,,14,,51,0
23613,note_off,,,,,21,0,10,,,,11,,50,0
23613,note_off,,,,,21,0,11,,,,12,,38,0
23616,note_on,,,,,0,0,13,,,,14,,58,49
23616,time_signature,2,4,96,8,6,1,13,,,,,,,
23616,time_signature,2,4,96,8,192,1,8,,,,,,,
23616,time_signature,2,4,96,8,192,1,6,,,,,,,
23616,time_signature,2,4,96,8,192,1,3,,,,,,,
23616,time_signature,2,4,96,8,192,1,0,,,,,,,
23616,time_signature,2,4,96,8,60,1,12,,,,,,,
23616,note_on,,,,,0,0,11,,,,12,,39,49
23616,time_signature,2,4,96,8,48,1,9,,,,,,,
23616,note_on,,,,,0,0,10,,,,11,,51,49
23616,time_signature,2,4,96,8,3,1,10,,,,,,,
23616,time_signature,2,4,96,8,48,1,7,,,,,,,
23616,time_signature,2,4,96,8,3,1,11,,,,,,,
23616,time_signature,2,4,96,8,192,1,1,,,,,,,
23616,time_signature,2,4,96,8,192,1,2,,,,,,,
23616,time_signature,2,4,96,8,192,1,4,,,,,,,
23616,time_signature,2,4,96,8,192,1,5,,,,,,,
23631,note_off,,,,,15,0,7,,,,6,,67,0
23631,note_off,,,,,15,0,8,,,,7,,70,0
23637,note_off,,,,,21,0,13,,,,14,,58,0
23637,note_off,,,,,21,0,10,,,,11,,51,0
23637,note_off,,,,,21,0,11,,,,12,,39,0
23640,note_on,,,,,9,0,8,,,,7,,69,49
23640,note_on,,,,,3,0,13,,,,14,,60,49
23640,note_on,,,,,9,0,7,,,,6,,75,96
23640,note_on,,,,,3,0,11,,,,12,,36,49
23640,note_on,,,,,3,0,10,,,,11,,48,49
23661,note_off,,,,,21,0,8,,,,7,,69,0
23661,note_off,,,,,21,0,7,,,,6,,75,0
23661,note_off,,,,,21,0,11,,,,12,,36,0
23661,note_off,,,,,21,0,10,,,,11,,48,0
23661,note_off,,,,,21,0,13,,,,14,,60,0
23664,note_on,,,,,3,0,8,,,,7,,70,49
23664,note_on,,,,,3,0,7,,,,6,,74,96
23664,note_on,,,,,3,0,10,,,,11,,55,49
23664,note_on,,,,,3,0,13,,,,14,,62,49
23664,note_on,,,,,3,0,11,,,,12,,43,49
23685,note_off,,,,,21,0,10,,,,11,,55,0
23685,note_off,,,,,21,0,11,,,,12,,43,0
23685,note_off,,,,,21,0,8,,,,7,,70,0
23688,note_on,,,,,3,0,10,,,,11,,53,49
23688,note_on,,,,,3,0,11,,,,12,,41,49
23688,note_on,,,,,3,0,8,,,,7,,69,49
23709,note_off,,,,,21,0,10,,,,11,,53,0
23709,note_off,,,,,21,0,8,,,,7,,69,0
23709,note_off,,,,,21,0,11,,,,12,,41,0
23712,note_on,,,,,3,0,8,,,,7,,70,49
23712,note_on,,,,,3,0,11,,,,12,,43,49
23712,note_on,,,,,3,0,10,,,,11,,55,49
23722,note_off,,,,,58,0,7,,,,6,,74,0
23724,note_on,,,,,2,0,7,,,,6,,75,96
23733,note_off,,,,,69,0,13,,,,14,,62,0
23733,note_off,,,,,21,0,8,,,,7,,70,0
23733,note_off,,,,,21,0,11,,,,12,,43,0
23733,note_off,,,,,21,0,10,,,,11,,55,0
23734,note_off,,,,,10,0,7,,,,6,,75,0
23736,note_on,,,,,2,0,7,,,,6,,77,96
23736,note_on,,,,,3,0,11,,,,12,,39,49
23736,note_on,,,,,3,0,10,,,,11,,51,49
23736,note_on,,,,,3,0,13,,,,14,,60,49
23736,note_on,,,,,3,0,8,,,,7,,72,49
23754,note_off,,,,,138,0,9,,,,8,,67,0
23757,note_off,,,,,21,0,8,,,,7,,72,0
23757,note_off,,,,,21,0,11,,,,12,,39,0
23757,note_off,,,,,21,0,10,,,,11,,51,0
23757,note_off,,,,,21,0,13,,,,14,,60,0
23757,note_off,,,,,21,0,7,,,,6,,77,0
23760,note_on,,,,,3,0,8,,,,7,,72,49
23760,note_on,,,,,6,0,9,,,,8,,65,49
23760,note_on,,,,,3,0,11,,,,12,,41,49
23760,note_on,,,,,3,0,13,,,,14,,60,49
23760,note_on,,,,,3,0,7,,,,6,,69,96
23760,note_on,,,,,3,0,10,,,,11,,53,49
23802,note_off,,,,,42,0,11,,,,12,,41,0
23802,note_off,,,,,42,0,10,,,,11,,53,0
23802,note_off,,,,,42,0,9,,,,8,,65,0
23808,time_signature,6,4,96,8,48,1,8,,,,,,,
23808,time_signature,6,4,96,8,192,1,5,,,,,,,
23808,time_signature,6,4,96,8,192,1,6,,,,,,,
23808,time_signature,6,4,96,8,48,1,13,,,,,,,
23808,time_signature,6,4,96,8,192,1,0,,,,,,,
23808,time_signature,6,4,96,8,192,1,2,,,,,,,
23808,note_on,,,,,0,0,9,,,,8,,65,49
23808,time_signature,6,4,96,8,6,1,9,,,,,,,
23808,note_on,,,,,0,0,11,,,,12,,29,49
23808,time_signature,6,4,96,8,6,1,11,,,,,,,
23808,time_signature,6,4,96,8,192,1,3,,,,,,,
23808,time_signature,6,4,96,8,192,1,4,,,,,,,
23808,time_signature,6,4,96,8,48,1,7,,,,,,,
23808,time_signature,6,4,96,8,192,1,1,,,,,,,
23808,time_signature,6,4,96,8,192,1,12,,,,,,,
23808,note_on,,,,,0,0,10,,,,11,,41,49
23808,time_signature,6,4,96,8,6,1,10,,,,,,,
23823,note_off,,,,,15,0,13,,,,14,,60,0
23823,note_off,,,,,15,0,7,,,,6,,69,0
23823,note_off,,,,,15,0,8,,,,7,,72,0
23832,note_on,,,,,9,0,8,,,,7,,70,49
23832,note_on,,,,,9,0,13,,,,14,,62,49
23832,note_on,,,,,9,0,7,,,,6,,70,96
23850,note_off,,,,,42,0,11,,,,12,,29,0
23850,note_off,,,,,42,0,10,,,,11,,41,0
23850,note_off,,,,,42,0,9,,,,8,,65,0
23853,note_off,,,,,21,0,8,,,,7,,70,0
23853,note_off,,,,,21,0,13,,,,14,,62,0
23853,note_off,,,,,21,0,7,,,,6,,70,0
23856,note_on,,,,,3,0,8,,,,7,,70,49
23856,note_on,,,,,6,0,11,,,,12,,34,49
23856,note_on,,,,,3,0,7,,,,6,,70,96
23856,note_on,,,,,6,0,9,,,,8,,65,49
23856,note_on,,,,,3,0,13,,,,14,,62,49
23856,note_on,,,,,6,0,10,,,,11,,46,49
23898,note_off,,,,,42,0,10,,,,11,,46,0
23898,note_off,,,,,42,0,9,,,,8,,65,0
23898,note_off,,,,,42,0,11,,,,12,,34,0
23898,note_off,,,,,42,0,13,,,,14,,62,0
23898,note_off,,,,,42,0,8,,,,7,,70,0
23904,set_tempo,,,,,6,1,11,600000,,,,,,
23904,set_tempo,,,,,96,1,0,600000,,,,,,
23904,set_tempo,,,,,6,1,9,600000,,,,,,
23904,note_on,,,,,0,0,3,,,,2,,77,96
23904,note_on,,,,,0,0,9,,,,8,,65,96
23904,note_on,,,,,0,0,4,,,,3,,74,96
23904,set_tempo,,,,,96,1,4,600000,,,,,,
23904,set_tempo,,,,,96,1,3,600000,,,,,,
23904,note_on,,,,,0,0,6,,,,5,,45,96
23904,note_on,,,,,0,0,11,,,,12,,33,96
23904,note_on,,,,,0,0,5,,,,4,,70,96
23904,set_tempo,,,,,48,1,7,600000,,,,,,
23904,set_tempo,,,,,96,1,5,600000,,,,,,
23904,set_tempo,,,,,96,1,6,600000,,,,,,
23904,note_on,,,,,0,0,10,,,,11,,45,96
23904,note_on,,,,,0,0,13,,,,14,,58,96
23904,set_tempo,,,,,96,1,12,600000,,,,,,
23904,note_on,,,,,0,0,8,,,,7,,74,96
23904,set_tempo,,,,,6,1,8,600000,,,,,,
23904,set_tempo,,,,,6,1,13,600000,,,,,,
23904,set_tempo,,,,,96,1,1,600000,,,,,,
23904,note_on,,,,,0,0,12,,,,13,,65,96
23904,note_on,,,,,0,0,12,,,,13,,45,96
23904,set_tempo,,,,,96,1,2,600000,,,,,,
23904,note_on,,,,,0,0,12,,,,13,,74,96
23904,set_tempo,,,,,6,1,10,600000,,,,,,
23925,note_off,,,,,21,0,8,,,,7,,74,0
23928,note_on,,,,,3,0,8,,,,7,,72,96
23946,note_off,,,,,42,0,12,,,,13,,65,0
23946,note_off,,,,,0,0,12,,,,13,,74,0
23946,note_off,,,,,0,0,12,,,,13,,45,0
23946,note_off,,,,,42,0,13,,,,14,,58,0
23946,note_off,,,,,42,0,9,,,,8,,65,0
23946,note_off,,,,,42,0,10,,,,11,,45,0
23946,note_off,,,,,42,0,11,,,,12,,33,0
23946,note_off,,,,,42,0,5,,,,4,,70,0
23946,note_off,,,,,42,0,7,,,,6,,70,0
23946,note_off,,,,,42,0,3,,,,2,,77,0
23946,note_off,,,,,42,0,6,,,,5,,45,0
23946,note_off,,,,,42,0,4,,,,3,,74,0
23949,note_off,,,,,21,0,8,,,,7,,72,0
23952,note_on,,,,,6,0,9,,,,8,,64,96
23952,note_on,,,,,6,0,13,,,,14,,58,96
23952,note_on,,,,,6,0,4,,,,3,,76,96
23952,note_on,,,,,6,0,10,,,,11,,43,96
23952,note_on,,,,,6,0,5,,,,4,,70,96
23952,note_on,,,,,3,0,8,,,,7,,74,96
23952,note_on,,,,,6,0,11,,,,12,,31,96
23952,note_on,,,,,6,0,12,,,,13,,70,96
23952,note_on,,,,,0,0,12,,,,13,,76,96
23952,note_on,,,,,0,0,12,,,,13,,43,96
23952,note_on,,,,,6,0,6,,,,5,,43,96
23952,note_on,,,,,6,0,3,,,,2,,82,96
23973,note_off,,,,,21,0,8,,,,7,,74,0
23976,note_on,,,,,3,0,8,,,,7,,70,96
23994,note_off,,,,,42,0,3,,,,2,,82,0
23994,note_off,,,,,42,0,10,,,,11,,43,0
23994,note_off,,,,,42,0,9,,,,8,,64,0
23994,note_off,,,,,42,0,6,,,,5,,43,0
23994,note_off,,,,,42,0,5,,,,4,,70,0
23994,note_off,,,,,42,0,11,,,,12,,31,0
23994,note_off,,,,,42,0,4,,,,3,,76,0
23994,note_off,,,,,42,0,12,,,,13,,70,0
23994,note_off,,,,,0,0,12,,,,13,,76,0
23994,note_off,,,,,0,0,12,,,,13,,43,0
23994,note_off,,,,,42,0,13,,,,14,,58,0
23997,note_off,,,,,21,0,8,,,,7,,70,0
24000,note_on,,,,,6,0,9,,,,8,,69,75
24000,note_on,,,,,6,0,3,,,,2,,81,62
24000,note_on,,,,,6,0,4,,,,3,,77,62
24000,note_on,,,,,6,0,6,,,,5,,41,62
24000,note_on,,,,,0,0,12,,,,13,,41,49
24000,note_on,,,,,0,0,12,,,,13,,72,49
24000,note_on,,,,,3,0,8,,,,7,,72,75
24000,note_on,,,,,6,0,12,,,,13,,69,49
24000,note_on,,,,,6,0,11,,,,12,,29,49
24000,note_on,,,,,6,0,5,,,,4,,72,62
24000,note_on,,,,,6,0,10,,,,11,,41,49
24000,note_on,,,,,6,0,13,,,,14,,65,75
24021,note_off,,,,,21,0,10,,,,11,,41,0
24021,note_off,,,,,21,0,12,,,,13,,41,0
24021,note_off,,,,,21,0,11,,,,12,,29,0
24024,note_on,,,,,3,0,12,,,,13,,43,49
24024,note_on,,,,,3,0,10,,,,11,,43,49
24024,note_on,,,,,3,0,11,,,,12,,31,49
24042,note_off,,,,,42,0,3,,,,2,,81,0
24042,note_off,,,,,0,0,12,,,,13,,72,0
24042,note_off,,,,,18,0,12,,,,13,,69,0
24042,note_off,,,,,42,0,9,,,,8,,69,0
24042,note_off,,,,,42,0,5,,,,4,,72,0
24042,note_off,,,,,42,0,13,,,,14,,65,0
24042,note_off,,,,,42,0,8,,,,7,,72,0
24042,note_off,,,,,42,0,4,,,,3,,77,0
24045,note_off,,,,,21,0,10,,,,11,,43,0
24045,note_off,,,,,21,0,11,,,,12,,31,0
24045,note_off,,,,,3,0,12,,,,13,,43,0
24048,note_on,,,,,3,0,12,,,,13,,65,49
24048,note_on,,,,,0,0,12,,,,13,,72,49
24048,note_on,,,,,0,0,12,,,,13,,45,49
24048,note_on,,,,,102,0,7,,,,6,,65,127
24048,note_on,,,,,3,0,11,,,,12,,33,49
24048,note_on,,,,,6,0,9,,,,8,,60,75
24048,note_on,,,,,6,0,4,,,,3,,72,62
24048,note_on,,,,,6,0,13,,,,14,,57,75
24048,note_on,,,,,6,0,8,,,,7,,65,75
24048,note_on,,,,,3,0,10,,,,11,,45,49
24048,note_on,,,,,6,0,3,,,,2,,77,62
24048,note_on,,,,,6,0,5,,,,4,,69,62
24069,note_off,,,,,21,0,11,,,,12,,33,0
24069,note_off,,,,,21,0,12,,,,13,,45,0
24069,note_off,,,,,21,0,10,,,,11,,45,0
24072,note_on,,,,,3,0,12,,,,13,,43,49
24072,note_on,,,,,3,0,10,,,,11,,43,49
24072,note_on,,,,,3,0,11,,,,12,,31,49
24084,note_off,,,,,84,0,6,,,,5,,41,0
24090,note_off,,,,,18,0,12,,,,13,,65,0
24090,note_off,,,,,42,0,7,,,,6,,65,0
24090,note_off,,,,,42,0,3,,,,2,,77,0
24090,note_off,,,,,42,0,13,,,,14,,57,0
24090,note_off,,,,,42,0,5,,,,4,,69,0
24090,note_off,,,,,42,0,4,,,,3,,72,0
24090,note_off,,,,,42,0,8,,,,7,,65,0
24090,note_off,,,,,0,0,12,,,,13,,72,0
24090,note_off,,,,,42,0,9,,,,8,,60,0
24093,note_off,,,,,21,0,10,,,,11,,43,0
24093,note_off,,,,,3,0,12,,,,13,,43,0
24093,note_off,,,,,21,0,11,,,,12,,31,0
24096,note_on,,,,,6,0,7,,,,6,,65,127
24096,note_on,,,,,3,0,12,,,,13,,45,49
24096,note_on,,,,,3,0,11,,,,12,,33,49
24096,note_on,,,,,3,0,10,,,,11,,45,49
24117,note_off,,,,,21,0,10,,,,11,,45,0
24117,note_off,,,,,21,0,11,,,,12,,33,0
24117,note_off,,,,,21,0,12,,,,13,,45,0
24120,note_on,,,,,3,0,11,,,,12,,29,49
24120,note_on,,,,,3,0,10,,,,11,,41,49
24120,note_on,,,,,3,0,12,,,,13,,41,49
24138,note_off,,,,,42,0,7,,,,6,,65,0
24141,note_off,,,,,21,0,12,,,,13,,41,0
24141,note_off,,,,,21,0,11,,,,12,,29,0
24141,note_off,,,,,21,0,10,,,,11,,41,0
24144,note_on,,,,,3,0,11,,,,12,,41,49
24144,note_on,,,,,6,0,7,,,,6,,65,127
24144,note_on,,,,,3,0,12,,,,13,,53,49
24144,note_on,,,,,3,0,10,,,,11,,53,49
24186,note_off,,,,,42,0,7,,,,6,,65,0
24186,note_off,,,,,42,0,10,,,,11,,53,0
24186,note_off,,,,,42,0,11,,,,12,,41,0
24186,note_off,,,,,42,0,12,,,,13,,53,0
24192,note_on,,,,,6,0,12,,,,13,,52,49
24192,note_on,,,,,6,0,10,,,,11,,52,49
24192,note_on,,,,,6,0,11,,,,12,,40,49
24192,note_on,,,,,6,0,7,,,,6,,69,127
24213,note_off,,,,,21,0,7,,,,6,,69,0
24216,note_on,,,,,3,0,7,,,,6,,67,127
24234,note_off,,,,,42,0,10,,,,11,,52,0
24234,note_off,,,,,42,0,11,,,,12,,40,0
24234,note_off,,,,,42,0,12,,,,13,,52,0
24237,note_off,,,,,21,0,7,,,,6,,67,0
24240,note_on,,,,,3,0,7,,,,6,,69,127
24240,note_on,,,,,6,0,12,,,,13,,50,49
24240,note_on,,,,,6,0,10,,,,11,,50,49
24240,note_on,,,,,6,0,11,,,,12,,38,49
24261,note_off,,,,,21,0,7,,,,6,,69,0
24264,note_on,,,,,3,0,7,,,,6,,65,127
24282,note_off,,,,,42,0,10,,,,11,,50,0
24282,note_off,,,,,42,0,12,,,,13,,50,0
24282,note_off,,,,,42,0,11,,,,12,,38,0
24285,note_off,,,,,21,0,7,,,,6,,65,0
24288,note_on,,,,,6,0,11,,,,12,,36,49
24288,note_on,,,,,6,0,10,,,,11,,48,49
24288,note_on,,,,,3,0,7,,,,6,,72,127
24288,note_on,,,,,6,0,12,,,,13,,48,49
24309,note_off,,,,,21,0,12,,,,13,,48,0
24309,note_off,,,,,21,0,11,,,,12,,36,0
24309,note_off,,,,,21,0,10,,,,11,,48,0
24312,note_on,,,,,3,0,12,,,,13,,50,49
24312,note_on,,,,,3,0,11,,,,12,,38,49
24312,note_on,,,,,3,0,10,,,,11,,50,49
24330,note_off,,,,,42,0,7,,,,6,,72,0
24333,note_off,,,,,21,0,10,,,,11,,50,0
24333,note_off,,,,,21,0,12,,,,13,,50,0
24333,note_off,,,,,21,0,11,,,,12,,38,0
24336,note_on,,,,,3,0,12,,,,13,,52,49
24336,note_on,,,,,6,0,7,,,,6,,72,127
24336,note_on,,,,,3,0,10,,,,11,,52,49
24336,note_on,,,,,3,0,11,,,,12,,40,49
24357,note_off,,,,,21,0,10,,,,11,,52,0
24357,note_off,,,,,21,0,11,,,,12,,40,0
24357,note_off,,,,,21,0,12,,,,13,,52,0
24360,note_on,,,,,3,0,11,,,,12,,38,49
24360,note_on,,,,,3,0,10,,,,11,,50,49
24360,note_on,,,,,3,0,12,,,,13,,50,49
24378,note_off,,,,,42,0,7,,,,6,,72,0
24381,note_off,,,,,21,0,12,,,,13,,50,0
24381,note_off,,,,,21,0,11,,,,12,,38,0
24381,note_off,,,,,21,0,10,,,,11,,50,0
24384,note_on,,,,,6,0,7,,,,6,,72,127
24384,note_on,,,,,3,0,10,,,,11,,52,49
24384,note_on,,,,,3,0,11,,,,12,,40,49
24384,note_on,,,,,3,0,12,,,,13,,52,49
24405,note_off,,,,,21,0,10,,,,11,,52,0
24405,note_off,,,,,21,0,12,,,,13,,52,0
24405,note_off,,,,,21,0,11,,,,12,,40,0
24408,note_on,,,,,3,0,10,,,,11,,48,49
24408,note_on,,,,,3,0,12,,,,13,,48,49
24408,note_on,,,,,3,0,11,,,,12,,36,49
24426,note_off,,,,,42,0,7,,,,6,,72,0
24429,note_off,,,,,21,0,10,,,,11,,48,0
24429,note_off,,,,,21,0,11,,,,12,,36,0
24429,note_off,,,,,21,0,12,,,,13,,48,0
24432,note_on,,,,,3,0,10,,,,11,,58,49
24432,note_on,,,,,6,0,7,,,,6,,72,127
24432,note_on,,,,,3,0,11,,,,12,,46,49
24432,note_on,,,,,3,0,12,,,,13,,58,49
24474,note_off,,,,,42,0,11,,,,12,,46,0
24474,note_off,,,,,42,0,7,,,,6,,72,0
24474,note_off,,,,,42,0,10,,,,11,,58,0
24474,note_off,,,,,42,0,12,,,,13,,58,0
24480,note_on,,,,,6,0,12,,,,13,,57,49
24480,note_on,,,,,6,0,10,,,,11,,57,49
24480,note_on,,,,,6,0,7,,,,6,,76,127
24480,note_on,,,,,6,0,11,,,,12,,45,49
24501,note_off,,,,,21,0,7,,,,6,,76,0
24504,note_on,,,,,3,0,7,,,,6,,74,127
24522,note_off,,,,,42,0,10,,,,11,,57,0
24522,note_off,,,,,42,0,12,,,,13,,57,0
24522,note_off,,,,,42,0,11,,,,12,,45,0
24525,note_off,,,,,21,0,7,,,,6,,74,0
24528,note_on,,,,,3,0,7,,,,6,,76,127
24528,note_on,,,,,6,0,12,,,,13,,55,49
24528,note_on,,,,,6,0,10,,,,11,,55,49
24528,note_on,,,,,6,0,11,,,,12,,43,49
24549,note_off,,,,,21,0,7,,,,6,,76,0
24552,note_on,,,,,3,0,7,,,,6,,72,127
24570,note_off,,,,,42,0,11,,,,12,,43,0
24570,note_off,,,,,42,0,12,,,,13,,55,0
24570,note_off,,,,,42,0,10,,,,11,,55,0
24573,note_off,,,,,21,0,7,,,,6,,72,0
24576,note_on,,,,,6,0,11,,,,12,,45,49
24576,note_on,,,,,6,0,10,,,,11,,57,49
24576,note_on,,,,,6,0,12,,,,13,,57,49
24576,note_on,,,,,3,0,7,,,,6,,60,127
24576,note_on,,,,,0,0,7,,,,6,,69,127
24576,note_on,,,,,0,0,7,,,,6,,77,127
24618,note_off,,,,,42,0,10,,,,11,,57,0
24618,note_off,,,,,0,0,7,,,,6,,77,0
24618,note_off,,,,,0,0,7,,,,6,,69,0
24618,note_off,,,,,42,0,12,,,,13,,57,0
24618,note_off,,,,,42,0,7,,,,6,,60,0
24618,note_off,,,,,42,0,11,,,,12,,45,0
24624,note_on,,,,,6,0,12,,,,13,,50,49
24624,note_on,,,,,6,0,10,,,,11,,50,49
24624,note_on,,,,,6,0,11,,,,12,,38,49
24624,note_on,,,,,6,0,7,,,,6,,76,127
24645,note_off,,,,,21,0,7,,,,6,,76,0
24648,note_on,,,,,3,0,7,,,,6,,74,127
24666,note_off,,,,,42,0,12,,,,13,,50,0
24666,note_off,,,,,42,0,10,,,,11,,50,0
24666,note_off,,,,,42,0,11,,,,12,,38,0
24669,note_off,,,,,21,0,7,,,,6,,74,0
24672,note_on,,,,,6,0,10,,,,11,,52,49
24672,note_on,,,,,6,0,11,,,,12,,40,49
24672,note_on,,,,,3,0,7,,,,6,,72,127
24672,note_on,,,,,6,0,12,,,,13,,52,49
24693,note_off,,,,,21,0,7,,,,6,,72,0
24696,note_on,,,,,3,0,7,,,,6,,70,127
24714,note_off,,,,,42,0,12,,,,13,,52,0
24714,note_off,,,,,42,0,11,,,,12,,40,0
24714,note_off,,,,,42,0,10,,,,11,,52,0
24717,note_off,,,,,21,0,7,,,,6,,70,0
24720,note_on,,,,,6,0,12,,,,13,,53,49
24720,note_on,,,,,3,0,7,,,,6,,69,127
24720,note_on,,,,,6,0,10,,,,11,,53,49
24720,note_on,,,,,6,0,11,,,,12,,41,49
24741,note_off,,,,,21,0,7,,,,6,,69,0
24744,note_on,,,,,3,0,7,,,,6,,70,127
24762,note_off,,,,,42,0,12,,,,13,,53,0
24762,note_off,,,,,42,0,10,,,,11,,53,0
24762,note_off,,,,,42,0,11,,,,12,,41,0
24765,note_off,,,,,21,0,7,,,,6,,70,0
24768,note_on,,,,,6,0,12,,,,13,,52,49
24768,note_on,,,,,6,0,11,,,,12,,40,49
24768,note_on,,,,,6,0,10,,,,11,,52,49
24768,note_on,,,,,3,0,7,,,,6,,72,127
24778,note_off,,,,,10,0,7,,,,6,,72,0
24780,note_on,,,,,2,0,7,,,,6,,70,127
24789,note_off,,,,,21,0,10,,,,11,,52,0
24789,note_off,,,,,21,0,11,,,,12,,40,0
24789,note_off,,,,,21,0,12,,,,13,,52,0
24790,note_off,,,,,10,0,7,,,,6,,70,0
24792,note_on,,,,,2,0,7,,,,6,,72,127
24792,note_on,,,,,3,0,12,,,,13,,50,49
24792,note_on,,,,,3,0,11,,,,12,,38,49
24792,note_on,,,,,3,0,10,,,,11,,50,49
24802,note_off,,,,,10,0,7,,,,6,,72,0
24804,note_on,,,,,2,0,7,,,,6,,70,127
24813,note_off,,,,,21,0,12,,,,13,,50,0
24813,note_off,,,,,21,0,11,,,,12,,38,0
24813,note_off,,,,,21,0,10,,,,11,,50,0
24814,note_off,,,,,10,0,7,,,,6,,70,0
24816,note_on,,,,,3,0,12,,,,13,,48,49
24816,note_on,,,,,3,0,10,,,,11,,48,49
24816,note_on,,,,,3,0,11,,,,12,,36,49
24816,note_on,,,,,2,0,7,,,,6,,72,127
24826,note_off,,,,,10,0,7,,,,6,,72,0
24828,note_on,,,,,2,0,7,,,,6,,70,127
24837,note_off,,,,,21,0,10,,,,11,,48,0
24837,note_off,,,,,21,0,12,,,,13,,48,0
24837,note_off,,,,,21,0,11,,,,12,,36,0
24838,note_off,,,,,10,0,7,,,,6,,70,0
24840,note_on,,,,,3,0,10,,,,11,,46,49
24840,note_on,,,,,3,0,12,,,,13,,46,49
24840,note_on,,,,,3,0,11,,,,12,,34,49
24840,note_on,,,,,2,0,7,,,,6,,69,127
24850,note_off,,,,,10,0,7,,,,6,,69,0
24852,note_on,,,,,2,0,7,,,,6,,70,127
24861,note_off,,,,,21,0,12,,,,13,,46,0
24861,note_off,,,,,21,0,10,,,,11,,46,0
24861,note_off,,,,,21,0,11,,,,12,,34,0
24862,note_off,,,,,10,0,7,,,,6,,70,0
24864,note_on,,,,,3,0,10,,,,11,,45,49
24864,note_on,,,,,3,0,12,,,,13,,45,49
24864,note_on,,,,,3,0,11,,,,12,,33,49
24864,note_on,,,,,2,0,7,,,,6,,72,127
24885,note_off,,,,,21,0,7,,,,6,,72,0
24885,note_off,,,,,21,0,12,,,,13,,45,0
24885,note_off,,,,,21,0,10,,,,11,,45,0
24885,note_off,,,,,21,0,11,,,,12,,33,0
24888,note_on,,,,,3,0,7,,,,6,,69,127
24888,note_on,,,,,3,0,12,,,,13,,46,49
24888,note_on,,,,,3,0,10,,,,11,,46,49
24888,note_on,,,,,3,0,11,,,,12,,34,49
24909,note_off,,,,,21,0,12,,,,13,,46,0
24909,note_off,,,,,21,0,10,,,,11,,46,0
24909,note_off,,,,,21,0,7,,,,6,,69,0
24909,note_off,,,,,21,0,11,,,,12,,34,0
24912,note_on,,,,,3,0,11,,,,12,,36,49
24912,note_on,,,,,3,0,10,,,,11,,48,49
24912,note_on,,,,,3,0,7,,,,6,,67,127
24912,note_on,,,,,3,0,12,,,,13,,48,49
24922,note_off,,,,,10,0,11,,,,12,,36,0
24922,note_off,,,,,10,0,10,,,,11,,48,0
24922,note_off,,,,,10,0,7,,,,6,,67,0
24922,note_off,,,,,10,0,12,,,,13,,48,0
24924,note_on,,,,,2,0,10,,,,11,,46,49
24924,note_on,,,,,2,0,7,,,,6,,65,127
24924,note_on,,,,,2,0,12,,,,13,,46,49
24924,note_on,,,,,2,0,11,,,,12,,34,49
24934,note_off,,,,,10,0,11,,,,12,,34,0
24934,note_off,,,,,10,0,7,,,,6,,65,0
24934,note_off,,,,,10,0,10,,,,11,,46,0
24934,note_off,,,,,10,0,12,,,,13,,46,0
24936,note_on,,,,,2,0,7,,,,6,,67,127
24936,note_on,,,,,2,0,10,,,,11,,48,49
24936,note_on,,,,,2,0,12,,,,13,,48,49
24936,note_on,,,,,2,0,11,,,,12,,36,49
24946,note_off,,,,,10,0,11,,,,12,,36,0
24946,note_off,,,,,10,0,12,,,,13,,48,0
24946,note_off,,,,,10,0,10,,,,11,,48,0
24946,note_off,,,,,10,0,7,,,,6,,67,0
24948,note_on,,,,,2,0,10,,,,11,,46,49
24948,note_on,,,,,2,0,7,,,,6,,65,127
24948,note_on,,,,,2,0,11,,,,12,,34,49
24948,note_on,,,,,2,0,12,,,,13,,46,49
24958,note_off,,,,,10,0,11,,,,12,,34,0
24958,note_off,,,,,10,0,7,,,,6,,65,0
24958,note_off,,,,,10,0,10,,,,11,,46,0
24958,note_off,,,,,10,0,12,,,,13,,46,0
24960,note_on,,,,,2,0,10,,,,11,,48,49
24960,note_on,,,,,2,0,11,,,,12,,36,49
24960,note_on,,,,,2,0,7,,,,6,,67,127
24960,note_on,,,,,2,0,12,,,,13,,48,49
24970,note_off,,,,,10,0,11,,,,12,,36,0
24970,note_off,,,,,10,0,12,,,,13,,48,0
24970,note_off,,,,,10,0,7,,,,6,,67,0
24970,note_off,,,,,10,0,10,,,,11,,48,0
24972,note_on,,,,,2,0,11,,,,12,,34,49
24972,note_on,,,,,2,0,7,,,,6,,65,127
24972,note_on,,,,,2,0,10,,,,11,,46,49
24972,note_on,,,,,2,0,12,,,,13,,46,49
24982,note_off,,,,,10,0,10,,,,11,,46,0
24982,note_off,,,,,10,0,7,,,,6,,65,0
24982,note_off,,,,,10,0,11,,,,12,,34,0
24982,note_off,,,,,10,0,12,,,,13,,46,0
24984,note_on,,,,,2,0,11,,,,12,,33,49
24984,note_on,,,,,2,0,12,,,,13,,45,49
24984,note_on,,,,,2,0,7,,,,6,,70,127
24984,note_on,,,,,2,0,10,,,,11,,45,49
24994,note_off,,,,,10,0,12,,,,13,,45,0
24994,note_off,,,,,10,0,11,,,,12,,33,0
24994,note_off,,,,,10,0,7,,,,6,,70,0
24994,note_off,,,,,10,0,10,,,,11,,45,0
24996,note_on,,,,,2,0,12,,,,13,,46,49
24996,note_on,,,,,2,0,10,,,,11,,46,49
24996,note_on,,,,,2,0,11,,,,12,,34,49
24996,note_on,,,,,2,0,7,,,,6,,69,127
25006,note_off,,,,,10,0,7,,,,6,,69,0
25006,note_off,,,,,10,0,10,,,,11,,46,0
25006,note_off,,,,,10,0,11,,,,12,,34,0
25006,note_off,,,,,10,0,12,,,,13,,46,0
25008,note_on,,,,,2,0,10,,,,11,,48,49
25008,note_on,,,,,2,0,7,,,,6,,60,127
25008,note_on,,,,,0,0,7,,,,6,,67,127
25008,note_on,,,,,2,0,11,,,,12,,36,49
25008,note_on,,,,,2,0,12,,,,13,,48,49
25029,note_off,,,,,21,0,12,,,,13,,48,0
25029,note_off,,,,,21,0,10,,,,11,,48,0
25029,note_off,,,,,21,0,11,,,,12,,36,0
25032,note_on,,,,,3,0,11,,,,12,,38,49
25032,note_on,,,,,3,0,12,,,,13,,50,49
25032,note_on,,,,,3,0,10,,,,11,,50,49
25053,note_off,,,,,21,0,12,,,,13,,50,0
25053,note_off,,,,,21,0,10,,,,11,,50,0
25053,note_off,,,,,21,0,11,,,,12,,38,0
25056,note_on,,,,,3,0,10,,,,11,,52,49
25056,note_on,,,,,1152,0,1,,,,0,,72,127
25056,note_on,,,,,3,0,12,,,,13,,52,49
25056,note_on,,,,,1152,0,2,,,,1,,60,127
25056,note_on,,,,,3,0,11,,,,12,,40,49
25077,note_off,,,,,21,0,1,,,,0,,72,0
25077,note_off,,,,,21,0,2,,,,1,,60,0
25077,note_off,,,,,21,0,10,,,,11,,52,0
25077,note_off,,,,,21,0,12,,,,13,,52,0
25077,note_off,,,,,21,0,11,,,,12,,40,0
25080,note_on,,,,,3,0,1,,,,0,,70,127
25080,note_on,,,,,3,0,2,,,,1,,60,127
25080,note_on,,,,,3,0,10,,,,11,,50,49
25080,note_on,,,,,3,0,12,,,,13,,50,49
25080,note_on,,,,,3,0,11,,,,12,,38,49
25092,note_off,,,,,0,0,7,,,,6,,67,0
25092,note_off,,,,,84,0,7,,,,6,,60,0
25101,note_off,,,,,21,0,10,,,,11,,50,0
25101,note_off,,,,,21,0,12,,,,13,,50,0
25101,note_off,,,,,21,0,2,,,,1,,60,0
25101,note_off,,,,,21,0,1,,,,0,,70,0
25101,note_off,,,,,21,0,11,,,,12,,38,0
25104,note_on,,,,,3,0,1,,,,0,,69,127
25104,note_on,,,,,3,0,10,,,,11,,52,49
25104,note_on,,,,,3,0,11,,,,12,,40,49
25104,note_on,,,,,3,0,12,,,,13,,52,49
25104,note_on,,,,,3,0,2,,,,1,,60,127
25125,note_off,,,,,21,0,12,,,,13,,52,0
25125,note_off,,,,,21,0,11,,,,12,,40,0
25125,note_off,,,,,21,0,2,,,,1,,60,0
25125,note_off,,,,,21,0,1,,,,0,,69,0
25125,note_off,,,,,21,0,10,,,,11,,52,0
25128,note_on,,,,,3,0,1,,,,0,,67,127
25128,note_on,,,,,3,0,10,,,,11,,48,49
25128,note_on,,,,,3,0,12,,,,13,,48,49
25128,note_on,,,,,3,0,11,,,,12,,36,49
25128,note_on,,,,,3,0,2,,,,1,,60,127
25149,note_off,,,,,21,0,2,,,,1,,60,0
25149,note_off,,,,,21,0,1,,,,0,,67,0
25149,note_off,,,,,21,0,11,,,,12,,36,0
25149,note_off,,,,,21,0,12,,,,13,,48,0
25149,note_off,,,,,21,0,10,,,,11,,48,0
25152,note_on,,,,,3,0,10,,,,11,,53,49
25152,note_on,,,,,3,0,1,,,,0,,65,127
25152,note_on,,,,,3,0,11,,,,12,,41,49
25152,note_on,,,,,0,0,12,,,,13,,72,49
25152,note_on,,,,,0,0,12,,,,13,,53,49
25152,note_on,,,,,3,0,12,,,,13,,69,49
25152,note_on,,,,,3,0,2,,,,1,,57,127
25152,note_on,,,,,1068,0,6,,,,5,,53,62
25173,note_off,,,,,21,0,1,,,,0,,65,0
25176,note_on,,,,,3,0,1,,,,0,,67,127
25194,note_off,,,,,42,0,2,,,,1,,57,0
25194,note_off,,,,,0,0,12,,,,13,,53,0
25194,note_off,,,,,0,0,12,,,,13,,72,0
25194,note_off,,,,,42,0,12,,,,13,,69,0
25194,note_off,,,,,42,0,6,,,,5,,53,0
25194,note_off,,,,,42,0,11,,,,12,,41,0
25194,note_off,,,,,42,0,10,,,,11,,53,0
25197,note_off,,,,,21,0,1,,,,0,,67,0
25200,note_on,,,,,3,0,1,,,,0,,65,127
25200,note_on,,,,,0,0,12,,,,13,,57,49
25200,note_on,,,,,0,0,12,,,,13,,77,49
25200,note_on,,,,,6,0,12,,,,13,,72,49
25200,note_on,,,,,6,0,2,,,,1,,57,127
25200,note_on,,,,,1110,0,8,,,,7,,65,75
25200,note_on,,,,,108,0,7,,,,6,,65,127
25200,note_on,,,,,6,0,11,,,,12,,45,49
25200,note_on,,,,,6,0,6,,,,5,,57,62
25200,note_on,,,,,1110,0,9,,,,8,,60,75
25200,note_on,,,,,1110,0,4,,,,3,,65,62
25200,note_on,,,,,1110,0,5,,,,4,,60,62
25200,note_on,,,,,1110,0,13,,,,14,,57,75
25200,note_on,,,,,1110,0,3,,,,2,,65,62
25200,note_on,,,,,6,0,10,,,,11,,57,49
25221,note_off,,,,,21,0,1,,,,0,,65,0
25221,note_off,,,,,21,0,2,,,,1,,57,0
25224,note_on,,,,,3,0,1,,,,0,,67,127
25224,note_on,,,,,3,0,2,,,,1,,57,127
25242,note_off,,,,,42,0,12,,,,13,,72,0
25242,note_off,,,,,42,0,4,,,,3,,65,0
25242,note_off,,,,,42,0,13,,,,14,,57,0
25242,note_off,,,,,42,0,3,,,,2,,65,0
25242,note_off,,,,,0,0,12,,,,13,,77,0
25242,note_off,,,,,42,0,5,,,,4,,60,0
25242,note_off,,,,,0,0,12,,,,13,,57,0
25242,note_off,,,,,42,0,10,,,,11,,57,0
25242,note_off,,,,,42,0,9,,,,8,,60,0
25242,note_off,,,,,42,0,8,,,,7,,65,0
25242,note_off,,,,,42,0,6,,,,5,,57,0
25242,note_off,,,,,42,0,11,,,,12,,45,0
25242,note_off,,,,,42,0,7,,,,6,,65,0
25245,note_off,,,,,21,0,2,,,,1,,57,0
25245,note_off,,,,,21,0,1,,,,0,,67,0
25248,note_on,,,,,3,0,1,,,,0,,69,127
25248,note_on,,,,,6,0,3,,,,2,,65,62
25248,note_on,,,,,6,0,11,,,,12,,48,49
25248,note_on,,,,,6,0,7,,,,6,,65,127
25248,note_on,,,,,6,0,8,,,,7,,65,75
25248,note_on,,,,,6,0,4,,,,3,,65,62
25248,note_on,,,,,6,0,9,,,,8,,60,75
25248,note_on,,,,,6,0,5,,,,4,,60,62
25248,note_on,,,,,6,0,13,,,,14,,57,75
25248,note_on,,,,,6,0,10,,,,11,,60,49
25248,note_on,,,,,0,0,12,,,,13,,81,49
25248,note_on,,,,,6,0,6,,,,5,,60,62
25248,note_on,,,,,6,0,12,,,,13,,77,49
25248,note_on,,,,,3,0,2,,,,1,,57,127
25248,note_on,,,,,0,0,12,,,,13,,60,49
25269,note_off,,,,,21,0,2,,,,1,,57,0
25269,note_off,,,,,21,0,1,,,,0,,69,0
25272,note_on,,,,,3,0,2,,,,1,,57,127
25272,note_on,,,,,3,0,1,,,,0,,67,127
25290,note_off,,,,,42,0,5,,,,4,,60,0
25290,note_off,,,,,42,0,8,,,,7,,65,0
25290,note_off,,,,,42,0,7,,,,6,,65,0
25290,note_off,,,,,42,0,10,,,,11,,60,0
25290,note_off,,,,,42,0,6,,,,5,,60,0
25290,note_off,,,,,42,0,3,,,,2,,65,0
25290,note_off,,,,,42,0,13,,,,14,,57,0
25290,note_off,,,,,42,0,9,,,,8,,60,0
25290,note_off,,,,,42,0,4,,,,3,,65,0
25290,note_off,,,,,42,0,12,,,,13,,77,0
25290,note_off,,,,,0,0,12,,,,13,,81,0
25290,note_off,,,,,0,0,12,,,,13,,60,0
25290,note_off,,,,,42,0,11,,,,12,,48,0
25293,note_off,,,,,21,0,1,,,,0,,67,0
25293,note_off,,,,,21,0,2,,,,1,,57,0
25296,note_on,,,,,6,0,3,,,,2,,65,62
25296,note_on,,,,,6,0,8,,,,7,,65,75
25296,note_on,,,,,6,0,4,,,,3,,65,62
25296,note_on,,,,,6,0,5,,,,4,,60,62
25296,note_on,,,,,3,0,1,,,,0,,65,127
25296,note_on,,,,,0,0,12,,,,13,,77,49
25296,note_on,,,,,3,0,2,,,,1,,57,127
25296,note_on,,,,,6,0,9,,,,8,,60,75
25296,note_on,,,,,6,0,12,,,,13,,72,49
25296,note_on,,,,,6,0,11,,,,12,,45,49
25296,note_on,,,,,6,0,13,,,,14,,57,75
25296,note_on,,,,,6,0,7,,,,6,,65,127
25296,note_on,,,,,0,0,12,,,,13,,57,49
25296,note_on,,,,,6,0,6,,,,5,,57,62
25296,note_on,,,,,6,0,10,,,,11,,57,49
25338,note_off,,,,,42,0,9,,,,8,,60,0
25338,note_off,,,,,42,0,7,,,,6,,65,0
25338,note_off,,,,,42,0,5,,,,4,,60,0
25338,note_off,,,,,42,0,6,,,,5,,57,0
25338,note_off,,,,,42,0,8,,,,7,,65,0
25338,note_off,,,,,42,0,2,,,,1,,57,0
25338,note_off,,,,,42,0,4,,,,3,,65,0
25338,note_off,,,,,42,0,11,,,,12,,45,0
25338,note_off,,,,,42,0,3,,,,2,,65,0
25338,note_off,,,,,42,0,13,,,,14,,57,0
25338,note_off,,,,,42,0,12,,,,13,,72,0
25338,note_off,,,,,0,0,12,,,,13,,77,0
25338,note_off,,,,,42,0,10,,,,11,,57,0
25338,note_off,,,,,42,0,1,,,,0,,65,0
25338,note_off,,,,,0,0,12,,,,13,,57,0
25344,note_on,,,,,6,0,10,,,,11,,53,49
25344,note_on,,,,,6,0,3,,,,2,,69,62
25344,note_on,,,,,6,0,7,,,,6,,69,127
25344,note_on,,,,,6,0,11,,,,12,,41,49
25344,note_on,,,,,6,0,9,,,,8,,65,75
25344,note_on,,,,,6,0,5,,,,4,,60,62
25344,note_on,,,,,6,0,8,,,,7,,69,75
25344,note_on,,,,,6,0,6,,,,5,,53,62
25344,note_on,,,,,6,0,4,,,,3,,65,62
25344,note_on,,,,,0,0,12,,,,13,,53,49
25344,note_on,,,,,6,0,13,,,,14,,60,75
25344,note_on,,,,,6,0,12,,,,13,,69,49
25344,note_on,,,,,0,0,12,,,,13,,72,49
25365,note_off,,,,,21,0,3,,,,2,,69,0
25365,note_off,,,,,21,0,4,,,,3,,65,0
25365,note_off,,,,,21,0,13,,,,14,,60,0
25365,note_off,,,,,21,0,7,,,,6,,69,0
25365,note_off,,,,,21,0,9,,,,8,,65,0
25365,note_off,,,,,21,0,8,,,,7,,69,0
25368,note_on,,,,,3,0,4,,,,3,,64,62
25368,note_on,,,,,3,0,3,,,,2,,67,62
25368,note_on,,,,,3,0,7,,,,6,,67,127
25368,note_on,,,,,3,0,13,,,,14,,58,75
25368,note_on,,,,,3,0,9,,,,8,,64,75
25368,note_on,,,,,3,0,8,,,,7,,67,75
25386,note_off,,,,,42,0,6,,,,5,,53,0
25386,note_off,,,,,0,0,12,,,,13,,72,0
25386,note_off,,,,,42,0,10,,,,11,,53,0
25386,note_off,,,,,42,0,5,,,,4,,60,0
25386,note_off,,,,,42,0,12,,,,13,,69,0
25386,note_off,,,,,0,0,12,,,,13,,53,0
25386,note_off,,,,,42,0,11,,,,12,,41,0
25389,note_off,,,,,21,0,3,,,,2,,67,0
25389,note_off,,,,,21,0,7,,,,6,,67,0
25389,note_off,,,,,21,0,13,,,,14,,58,0
25389,note_off,,,,,21,0,8,,,,7,,67,0
25389,note_off,,,,,21,0,4,,,,3,,64,0
25389,note_off,,,,,21,0,9,,,,8,,64,0
25392,note_on,,,,,3,0,4,,,,3,,65,62
25392,note_on,,,,,3,0,3,,,,2,,69,62
25392,note_on,,,,,3,0,9,,,,8,,65,75
25392,note_on,,,,,3,0,8,,,,7,,69,75
25392,note_on,,,,,3,0,7,,,,6,,69,127
25392,note_on,,,,,6,0,5,,,,4,,60,62
25392,note_on,,,,,3,0,13,,,,14,,60,75
25413,note_off,,,,,21,0,13,,,,14,,60,0
25413,note_off,,,,,21,0,4,,,,3,,65,0
25413,note_off,,,,,21,0,8,,,,7,,69,0
25413,note_off,,,,,21,0,7,,,,6,,69,0
25413,note_off,,,,,21,0,3,,,,2,,69,0
25413,note_off,,,,,21,0,9,,,,8,,65,0
25416,note_on,,,,,3,0,9,,,,8,,60,75
25416,note_on,,,,,3,0,4,,,,3,,60,62
25416,note_on,,,,,3,0,3,,,,2,,65,62
25416,note_on,,,,,3,0,8,,,,7,,65,75
25416,note_on,,,,,3,0,7,,,,6,,65,127
25416,note_on,,,,,3,0,13,,,,14,,57,75
25434,note_off,,,,,42,0,5,,,,4,,60,0
25437,note_off,,,,,21,0,13,,,,14,,57,0
25437,note_off,,,,,21,0,9,,,,8,,60,0
25437,note_off,,,,,21,0,7,,,,6,,65,0
25437,note_off,,,,,21,0,3,,,,2,,65,0
25437,note_off,,,,,21,0,4,,,,3,,60,0
25437,note_off,,,,,21,0,8,,,,7,,65,0
25440,note_on,,,,,6,0,5,,,,4,,64,62
25440,note_on,,,,,54,0,6,,,,5,,52,62
25440,note_on,,,,,54,0,11,,,,12,,40,49
25440,note_on,,,,,3,0,4,,,,3,,67,62
25440,note_on,,,,,3,0,3,,,,2,,72,62
25440,note_on,,,,,102,0,1,,,,0,,67,127
25440,note_on,,,,,54,0,10,,,,11,,52,49
25440,note_on,,,,,54,0,12,,,,13,,67,49
25440,note_on,,,,,0,0,12,,,,13,,72,49
25440,note_on,,,,,0,0,12,,,,13,,52,49
25440,note_on,,,,,3,0,13,,,,14,,64,75
25440,note_on,,,,,3,0,7,,,,6,,72,127
25440,note_on,,,,,102,0,2,,,,1,,60,127
25440,note_on,,,,,3,0,8,,,,7,,72,75
25440,note_on,,,,,3,0,9,,,,8,,67,75
25461,note_off,,,,,21,0,1,,,,0,,67,0
25464,note_on,,,,,3,0,1,,,,0,,69,127
25482,note_off,,,,,42,0,12,,,,13,,67,0
25482,note_off,,,,,42,0,13,,,,14,,64,0
25482,note_off,,,,,0,0,12,,,,13,,72,0
25482,note_off,,,,,0,0,12,,,,13,,52,0
25482,note_off,,,,,42,0,5,,,,4,,64,0
25482,note_off,,,,,42,0,6,,,,5,,52,0
25482,note_off,,,,,42,0,8,,,,7,,72,0
25482,note_off,,,,,42,0,11,,,,12,,40,0
25482,note_off,,,,,42,0,10,,,,11,,52,0
25482,note_off,,,,,42,0,3,,,,2,,72,0
25482,note_off,,,,,42,0,9,,,,8,,67,0
25482,note_off,,,,,42,0,4,,,,3,,67,0
25482,note_off,,,,,42,0,7,,,,6,,72,0
25482,note_off,,,,,42,0,2,,,,1,,60,0
25485,note_off,,,,,21,0,1,,,,0,,69,0
25488,note_on,,,,,6,0,5,,,,4,,64,62
25488,note_on,,,,,6,0,3,,,,2,,72,62
25488,note_on,,,,,6,0,12,,,,13,,72,49
25488,note_on,,,,,0,0,12,,,,13,,76,49
25488,note_on,,,,,0,0,12,,,,13,,55,49
25488,note_on,,,,,6,0,6,,,,5,,55,62
25488,note_on,,,,,6,0,2,,,,1,,60,127
25488,note_on,,,,,3,0,1,,,,0,,67,127
25488,note_on,,,,,6,0,10,,,,11,,55,49
25488,note_on,,,,,6,0,8,,,,7,,72,75
25488,note_on,,,,,6,0,7,,,,6,,72,127
25488,note_on,,,,,6,0,11,,,,12,,43,49
25488,note_on,,,,,6,0,13,,,,14,,64,75
25488,note_on,,,,,6,0,9,,,,8,,67,75
25488,note_on,,,,,6,0,4,,,,3,,67,62
25509,note_off,,,,,21,0,2,,,,1,,60,0
25509,note_off,,,,,21,0,1,,,,0,,67,0
25512,note_on,,,,,3,0,1,,,,0,,69,127
25512,note_on,,,,,3,0,2,,,,1,,60,127
25530,note_off,,,,,42,0,8,,,,7,,72,0
25530,note_off,,,,,42,0,3,,,,2,,72,0
25530,note_off,,,,,42,0,9,,,,8,,67,0
25530,note_off,,,,,42,0,6,,,,5,,55,0
25530,note_off,,,,,42,0,4,,,,3,,67,0
25530,note_off,,,,,42,0,10,,,,11,,55,0
25530,note_off,,,,,42,0,5,,,,4,,64,0
25530,note_off,,,,,0,0,12,,,,13,,76,0
25530,note_off,,,,,0,0,12,,,,13,,55,0
25530,note_off,,,,,42,0,13,,,,14,,64,0
25530,note_off,,,,,42,0,12,,,,13,,72,0
25530,note_off,,,,,42,0,11,,,,12,,43,0
25530,note_off,,,,,42,0,7,,,,6,,72,0
25533,note_off,,,,,21,0,1,,,,0,,69,0
25533,note_off,,,,,21,0,2,,,,1,,60,0
25536,note_on,,,,,6,0,3,,,,2,,72,62
25536,note_on,,,,,6,0,7,,,,6,,72,127
25536,note_on,,,,,6,0,9,,,,8,,67,75
25536,note_on,,,,,6,0,6,,,,5,,60,62
25536,note_on,,,,,6,0,5,,,,4,,64,62
25536,note_on,,,,,3,0,1,,,,0,,70,127
25536,note_on,,,,,6,0,11,,,,12,,48,49
25536,note_on,,,,,6,0,8,,,,7,,72,75
25536,note_on,,,,,6,0,13,,,,14,,64,75
25536,note_on,,,,,3,0,2,,,,1,,60,127
25536,note_on,,,,,6,0,4,,,,3,,67,62
25536,note_on,,,,,6,0,10,,,,11,,60,49
25536,note_on,,,,,6,0,12,,,,13,,76,49
25536,note_on,,,,,0,0,12,,,,13,,79,49
25536,note_on,,,,,0,0,12,,,,13,,60,49
25557,note_off,,,,,21,0,2,,,,1,,60,0
25557,note_off,,,,,21,0,1,,,,0,,70,0
25560,note_on,,,,,3,0,2,,,,1,,60,127
25560,note_on,,,,,3,0,1,,,,0,,69,127
25578,note_off,,,,,0,0,12,,,,13,,79,0
25578,note_off,,,,,42,0,4,,,,3,,67,0
25578,note_off,,,,,42,0,5,,,,4,,64,0
25578,note_off,,,,,42,0,12,,,,13,,76,0
25578,note_off,,,,,42,0,13,,,,14,,64,0
25578,note_off,,,,,42,0,11,,,,12,,48,0
25578,note_off,,,,,0,0,12,,,,13,,60,0
25578,note_off,,,,,42,0,10,,,,11,,60,0
25578,note_off,,,,,42,0,8,,,,7,,72,0
25578,note_off,,,,,42,0,9,,,,8,,67,0
25578,note_off,,,,,42,0,7,,,,6,,72,0
25578,note_off,,,,,42,0,6,,,,5,,60,0
25578,note_off,,,,,42,0,3,,,,2,,72,0
25581,note_off,,,,,21,0,2,,,,1,,60,0
25581,note_off,,,,,21,0,1,,,,0,,69,0
25584,note_on,,,,,6,0,5,,,,4,,64,62
25584,note_on,,,,,0,0,12,,,,13,,72,49
25584,note_on,,,,,0,0,12,,,,13,,52,49
25584,note_on,,,,,6,0,10,,,,11,,52,49
25584,note_on,,,,,6,0,4,,,,3,,67,62
25584,note_on,,,,,6,0,8,,,,7,,72,75
25584,note_on,,,,,6,0,3,,,,2,,72,62
25584,note_on,,,,,6,0,9,,,,8,,67,75
25584,note_on,,,,,3,0,1,,,,0,,67,127
25584,note_on,,,,,6,0,11,,,,12,,40,49
25584,note_on,,,,,3,0,2,,,,1,,60,127
25584,note_on,,,,,6,0,12,,,,13,,67,49
25584,note_on,,,,,6,0,13,,,,14,,64,75
25584,note_on,,,,,6,0,7,,,,6,,72,127
25584,note_on,,,,,6,0,6,,,,5,,52,62
25626,note_off,,,,,42,0,8,,,,7,,72,0
25626,note_off,,,,,42,0,5,,,,4,,64,0
25626,note_off,,,,,42,0,12,,,,13,,67,0
25626,note_off,,,,,0,0,12,,,,13,,72,0
25626,note_off,,,,,0,0,12,,,,13,,52,0
25626,note_off,,,,,42,0,11,,,,12,,40,0
25626,note_off,,,,,42,0,3,,,,2,,72,0
25626,note_off,,,,,42,0,10,,,,11,,52,0
25626,note_off,,,,,42,0,13,,,,14,,64,0
25626,note_off,,,,,42,0,4,,,,3,,67,0
25626,note_off,,,,,42,0,9,,,,8,,67,0
25626,note_off,,,,,42,0,2,,,,1,,60,0
25626,note_off,,,,,42,0,7,,,,6,,72,0
25626,note_off,,,,,42,0,6,,,,5,,52,0
25626,note_off,,,,,42,0,1,,,,0,,67,0
25632,note_on,,,,,6,0,4,,,,3,,72,62
25632,note_on,,,,,6,0,5,,,,4,,67,62
25632,note_on,,,,,6,0,7,,,,6,,76,127
25632,note_on,,,,,6,0,11,,,,12,,36,49
25632,note_on,,,,,6,0,12,,,,13,,64,49
25632,note_on,,,,,0,0,12,,,,13,,48,49
25632,note_on,,,,,6,0,3,,,,2,,76,62
25632,note_on,,,,,6,0,6,,,,5,,48,62
25632,note_on,,,,,6,0,10,,,,11,,48,49
25632,note_on,,,,,6,0,8,,,,7,,76,75
25632,note_on,,,,,6,0,9,,,,8,,72,75
25632,note_on,,,,,0,0,12,,,,13,,67,49
25632,note_on,,,,,6,0,13,,,,14,,67,75
25653,note_off,,,,,21,0,8,,,,7,,76,0
25653,note_off,,,,,21,0,4,,,,3,,72,0
25653,note_off,,,,,21,0,9,,,,8,,72,0
25653,note_off,,,,,21,0,3,,,,2,,76,0
25653,note_off,,,,,21,0,7,,,,6,,76,0
25653,note_off,,,,,21,0,13,,,,14,,67,0
25653,note_off,,,,,21,0,5,,,,4,,67,0
25656,note_on,,,,,3,0,13,,,,14,,65,75
25656,note_on,,,,,3,0,8,,,,7,,74,75
25656,note_on,,,,,3,0,9,,,,8,,71,75
25656,note_on,,,,,3,0,4,,,,3,,71,62
25656,note_on,,,,,3,0,3,,,,2,,74,62
25656,note_on,,,,,3,0,7,,,,6,,74,127
25656,note_on,,,,,3,0,5,,,,4,,65,62
25674,note_off,,,,,42,0,10,,,,11,,48,0
25674,note_off,,,,,42,0,6,,,,5,,48,0
25674,note_off,,,,,42,0,11,,,,12,,36,0
25674,note_off,,,,,42,0,12,,,,13,,64,0
25674,note_off,,,,,0,0,12,,,,13,,67,0
25674,note_off,,,,,0,0,12,,,,13,,48,0
25677,note_off,,,,,21,0,13,,,,14,,65,0
25677,note_off,,,,,21,0,8,,,,7,,74,0
25677,note_off,,,,,21,0,7,,,,6,,74,0
25677,note_off,,,,,21,0,3,,,,2,,74,0
25677,note_off,,,,,21,0,5,,,,4,,65,0
25677,note_off,,,,,21,0,4,,,,3,,71,0
25677,note_off,,,,,21,0,9,,,,8,,71,0
25680,note_on,,,,,3,0,5,,,,4,,67,62
25680,note_on,,,,,3,0,13,,,,14,,67,75
25680,note_on,,,,,3,0,8,,,,7,,76,75
25680,note_on,,,,,3,0,7,,,,6,,76,127
25680,note_on,,,,,3,0,3,,,,2,,76,62
25680,note_on,,,,,3,0,9,,,,8,,72,75
25680,note_on,,,,,3,0,4,,,,3,,72,62
25701,note_off,,,,,21,0,3,,,,2,,76,0
25701,note_off,,,,,21,0,5,,,,4,,67,0
25701,note_off,,,,,21,0,4,,,,3,,72,0
25701,note_off,,,,,21,0,8,,,,7,,76,0
25701,note_off,,,,,21,0,9,,,,8,,72,0
25701,note_off,,,,,21,0,7,,,,6,,76,0
25701,note_off,,,,,21,0,13,,,,14,,67,0
25704,note_on,,,,,3,0,13,,,,14,,64,75
25704,note_on,,,,,3,0,3,,,,2,,72,62
25704,note_on,,,,,3,0,7,,,,6,,72,127
25704,note_on,,,,,3,0,8,,,,7,,72,75
25704,note_on,,,,,3,0,4,,,,3,,67,62
25704,note_on,,,,,3,0,5,,,,4,,64,62
25704,note_on,,,,,3,0,9,,,,8,,67,75
25725,note_off,,,,,21,0,8,,,,7,,72,0
25725,note_off,,,,,21,0,5,,,,4,,64,0
25725,note_off,,,,,21,0,4,,,,3,,67,0
25725,note_off,,,,,21,0,9,,,,8,,67,0
25725,note_off,,,,,21,0,13,,,,14,,64,0
25725,note_off,,,,,21,0,7,,,,6,,72,0
25725,note_off,,,,,21,0,3,,,,2,,72,0
25728,note_on,,,,,54,0,11,,,,12,,38,49
25728,note_on,,,,,54,0,10,,,,11,,50,49
25728,note_on,,,,,102,0,2,,,,1,,65,127
25728,note_on,,,,,3,0,3,,,,2,,77,62
25728,note_on,,,,,3,0,13,,,,14,,69,75
25728,note_on,,,,,54,0,6,,,,5,,50,62
25728,note_on,,,,,3,0,8,,,,7,,77,75
25728,note_on,,,,,0,0,12,,,,13,,50,49
25728,note_on,,,,,0,0,12,,,,13,,77,49
25728,note_on,,,,,54,0,12,,,,13,,69,49
25728,note_on,,,,,3,0,4,,,,3,,74,62
25728,note_on,,,,,3,0,5,,,,4,,69,62
25728,note_on,,,,,3,0,9,,,,8,,74,75
25728,note_on,,,,,3,0,7,,,,6,,77,127
25728,note_on,,,,,102,0,1,,,,0,,69,127
25749,note_off,,,,,21,0,1,,,,0,,69,0
25749,note_off,,,,,21,0,2,,,,1,,65,0
25752,note_on,,,,,3,0,1,,,,0,,70,127
25752,note_on,,,,,3,0,2,,,,1,,67,127
25770,note_off,,,,,0,0,12,,,,13,,77,0
25770,note_off,,,,,0,0,12,,,,13,,50,0
25770,note_off,,,,,42,0,13,,,,14,,69,0
25770,note_off,,,,,42,0,5,,,,4,,69,0
25770,note_off,,,,,42,0,10,,,,11,,50,0
25770,note_off,,,,,42,0,7,,,,6,,77,0
25770,note_off,,,,,42,0,8,,,,7,,77,0
25770,note_off,,,,,42,0,6,,,,5,,50,0
25770,note_off,,,,,42,0,4,,,,3,,74,0
25770,note_off,,,,,42,0,11,,,,12,,38,0
25770,note_off,,,,,42,0,9,,,,8,,74,0
25770,note_off,,,,,42,0,12,,,,13,,69,0
25770,note_off,,,,,42,0,3,,,,2,,77,0
25773,note_off,,,,,21,0,2,,,,1,,67,0
25773,note_off,,,,,21,0,1,,,,0,,70,0
25776,note_on,,,,,6,0,12,,,,13,,74,49
25776,note_on,,,,,6,0,3,,,,2,,77,62
25776,note_on,,,,,3,0,1,,,,0,,69,127
25776,note_on,,,,,6,0,6,,,,5,,53,62
25776,note_on,,,,,6,0,11,,,,12,,41,49
25776,note_on,,,,,0,0,12,,,,13,,77,49
25776,note_on,,,,,0,0,12,,,,13,,53,49
25776,note_on,,,,,6,0,4,,,,3,,74,62
25776,note_on,,,,,6,0,8,,,,7,,77,75
25776,note_on,,,,,6,0,13,,,,14,,69,75
25776,note_on,,,,,6,0,7,,,,6,,62,127
25776,note_on,,,,,0,0,7,,,,6,,69,127
25776,note_on,,,,,6,0,5,,,,4,,69,62
25776,note_on,,,,,0,0,7,,,,6,,77,127
25776,note_on,,,,,3,0,2,,,,1,,65,127
25776,note_on,,,,,6,0,10,,,,11,,53,49
25776,note_on,,,,,6,0,9,,,,8,,74,75
25797,note_off,,,,,21,0,2,,,,1,,65,0
25797,note_off,,,,,21,0,1,,,,0,,69,0
25800,note_on,,,,,3,0,1,,,,0,,70,127
25800,note_on,,,,,3,0,2,,,,1,,67,127
25818,note_off,,,,,0,0,7,,,,6,,69,0
25818,note_off,,,,,0,0,7,,,,6,,77,0
25818,note_off,,,,,42,0,6,,,,5,,53,0
25818,note_off,,,,,42,0,9,,,,8,,74,0
25818,note_off,,,,,42,0,11,,,,12,,41,0
25818,note_off,,,,,42,0,7,,,,6,,62,0
25818,note_off,,,,,0,0,12,,,,13,,77,0
25818,note_off,,,,,42,0,10,,,,11,,53,0
25818,note_off,,,,,42,0,3,,,,2,,77,0
25818,note_off,,,,,0,0,12,,,,13,,53,0
25818,note_off,,,,,42,0,12,,,,13,,74,0
25818,note_off,,,,,42,0,8,,,,7,,77,0
25818,note_off,,,,,42,0,5,,,,4,,69,0
25818,note_off,,,,,42,0,4,,,,3,,74,0
25818,note_off,,,,,42,0,13,,,,14,,69,0
25821,note_off,,,,,21,0,2,,,,1,,67,0
25821,note_off,,,,,21,0,1,,,,0,,70,0
25824,note_on,,,,,6,0,13,,,,14,,69,75
25824,note_on,,,,,6,0,4,,,,3,,74,62
25824,note_on,,,,,0,0,12,,,,13,,77,49
25824,note_on,,,,,6,0,7,,,,6,,62,127
25824,note_on,,,,,0,0,7,,,,6,,69,127
25824,note_on,,,,,0,0,7,,,,6,,77,127
25824,note_on,,,,,6,0,12,,,,13,,69,49
25824,note_on,,,,,6,0,5,,,,4,,69,62
25824,note_on,,,,,0,0,12,,,,13,,50,49
25824,note_on,,,,,6,0,11,,,,12,,38,49
25824,note_on,,,,,6,0,3,,,,2,,77,62
25824,note_on,,,,,6,0,9,,,,8,,74,75
25824,note_on,,,,,6,0,6,,,,5,,50,62
25824,note_on,,,,,3,0,1,,,,0,,72,127
25824,note_on,,,,,6,0,8,,,,7,,77,75
25824,note_on,,,,,6,0,10,,,,11,,50,49
25824,note_on,,,,,3,0,2,,,,1,,69,127
25845,note_off,,,,,21,0,2,,,,1,,69,0
25845,note_off,,,,,21,0,1,,,,0,,72,0
25848,note_on,,,,,3,0,1,,,,0,,70,127
25848,note_on,,,,,3,0,2,,,,1,,67,127
25866,note_off,,,,,0,0,12,,,,13,,77,0
25866,note_off,,,,,42,0,5,,,,4,,69,0
25866,note_off,,,,,0,0,12,,,,13,,50,0
25866,note_off,,,,,42,0,3,,,,2,,77,0
25866,note_off,,,,,0,0,7,,,,6,,77,0
25866,note_off,,,,,42,0,4,,,,3,,74,0
25866,note_off,,,,,42,0,12,,,,13,,69,0
25866,note_off,,,,,42,0,13,,,,14,,69,0
25866,note_off,,,,,42,0,6,,,,5,,50,0
25866,note_off,,,,,42,0,10,,,,11,,50,0
25866,note_off,,,,,42,0,9,,,,8,,74,0
25866,note_off,,,,,0,0,7,,,,6,,69,0
25866,note_off,,,,,42,0,11,,,,12,,38,0
25866,note_off,,,,,42,0,7,,,,6,,62,0
25866,note_off,,,,,42,0,8,,,,7,,77,0
25869,note_off,,,,,21,0,1,,,,0,,70,0
25869,note_off,,,,,21,0,2,,,,1,,67,0
25872,note_on,,,,,6,0,11,,,,12,,33,49
25872,note_on,,,,,6,0,6,,,,5,,45,62
25872,note_on,,,,,6,0,3,,,,2,,77,62
25872,note_on,,,,,6,0,9,,,,8,,72,75
25872,note_on,,,,,6,0,7,,,,6,,60,127
25872,note_on,,,,,6,0,12,,,,13,,65,49
25872,note_on,,,,,0,0,7,,,,6,,77,127
25872,note_on,,,,,0,0,12,,,,13,,72,49
25872,note_on,,,,,0,0,12,,,,13,,45,49
25872,note_on,,,,,6,0,8,,,,7,,77,75
25872,note_on,,,,,6,0,5,,,,4,,69,62
25872,note_on,,,,,3,0,1,,,,0,,69,127
25872,note_on,,,,,6,0,4,,,,3,,72,62
25872,note_on,,,,,6,0,13,,,,14,,69,75
25872,note_on,,,,,6,0,10,,,,11,,45,49
25872,note_on,,,,,3,0,2,,,,1,,65,127
25872,note_on,,,,,0,0,7,,,,6,,69,127
25893,note_off,,,,,21,0,1,,,,0,,69,0
25893,note_off,,,,,21,0,2,,,,1,,65,0
25896,note_on,,,,,3,0,1,,,,0,,70,127
25896,note_on,,,,,3,0,2,,,,1,,67,127
25914,note_off,,,,,42,0,8,,,,7,,77,0
25914,note_off,,,,,42,0,9,,,,8,,72,0
25914,note_off,,,,,42,0,11,,,,12,,33,0
25914,note_off,,,,,42,0,3,,,,2,,77,0
25914,note_off,,,,,42,0,10,,,,11,,45,0
25914,note_off,,,,,42,0,4,,,,3,,72,0
25914,note_off,,,,,42,0,13,,,,14,,69,0
25914,note_off,,,,,42,0,6,,,,5,,45,0
25914,note_off,,,,,42,0,5,,,,4,,69,0
25914,note_off,,,,,0,0,12,,,,13,,45,0
25914,note_off,,,,,42,0,7,,,,6,,60,0
25914,note_off,,,,,0,0,7,,,,6,,69,0
25914,note_off,,,,,0,0,7,,,,6,,77,0
25914,note_off,,,,,42,0,12,,,,13,,65,0
25914,note_off,,,,,0,0,12,,,,13,,72,0
25917,note_off,,,,,21,0,2,,,,1,,67,0
25917,note_off,,,,,21,0,1,,,,0,,70,0
25920,note_on,,,,,6,0,12,,,,13,,60,49
25920,note_on,,,,,3,0,1,,,,0,,69,127
25920,note_on,,,,,6,0,9,,,,8,,76,75
25920,note_on,,,,,6,0,11,,,,12,,29,49
25920,note_on,,,,,6,0,3,,,,2,,79,62
25920,note_on,,,,,6,0,8,,,,7,,79,75
25920,note_on,,,,,6,0,4,,,,3,,76,62
25920,note_on,,,,,6,0,5,,,,4,,60,62
25920,note_on,,,,,6,0,6,,,,5,,41,62
25920,note_on,,,,,6,0,7,,,,6,,79,127
25920,note_on,,,,,6,0,10,,,,11,,41,49
25920,note_on,,,,,6,0,13,,,,14,,60,75
25920,note_on,,,,,3,0,2,,,,1,,65,127
25920,note_on,,,,,0,0,12,,,,13,,69,49
25920,note_on,,,,,0,0,12,,,,13,,41,49
25941,note_off,,,,,21,0,1,,,,0,,69,0
25941,note_off,,,,,21,0,9,,,,8,,76,0
25941,note_off,,,,,21,0,3,,,,2,,79,0
25941,note_off,,,,,21,0,8,,,,7,,79,0
25941,note_off,,,,,21,0,4,,,,3,,76,0
25941,note_off,,,,,21,0,2,,,,1,,65,0
25941,note_off,,,,,21,0,7,,,,6,,79,0
25944,note_on,,,,,3,0,3,,,,2,,77,62
25944,note_on,,,,,3,0,4,,,,3,,74,62
25944,note_on,,,,,3,0,9,,,,8,,74,75
25944,note_on,,,,,3,0,1,,,,0,,70,127
25944,note_on,,,,,3,0,2,,,,1,,67,127
25944,note_on,,,,,3,0,8,,,,7,,77,75
25944,note_on,,,,,3,0,7,,,,6,,77,127
25962,note_off,,,,,42,0,11,,,,12,,29,0
25962,note_off,,,,,0,0,12,,,,13,,41,0
25962,note_off,,,,,0,0,12,,,,13,,69,0
25962,note_off,,,,,42,0,6,,,,5,,41,0
25962,note_off,,,,,42,0,13,,,,14,,60,0
25962,note_off,,,,,42,0,5,,,,4,,60,0
25962,note_off,,,,,42,0,10,,,,11,,41,0
25962,note_off,,,,,42,0,12,,,,13,,60,0
25965,note_off,,,,,21,0,1,,,,0,,70,0
25965,note_off,,,,,21,0,2,,,,1,,67,0
25965,note_off,,,,,21,0,4,,,,3,,74,0
25965,note_off,,,,,21,0,9,,,,8,,74,0
25965,note_off,,,,,21,0,3,,,,2,,77,0
25965,note_off,,,,,21,0,8,,,,7,,77,0
25965,note_off,,,,,21,0,7,,,,6,,77,0
25968,note_on,,,,,3,0,7,,,,6,,76,127
25968,note_on,,,,,3,0,2,,,,1,,69,127
25968,note_on,,,,,3,0,1,,,,0,,72,127
25968,note_on,,,,,3,0,4,,,,3,,72,62
25968,note_on,,,,,3,0,8,,,,7,,76,75
25968,note_on,,,,,6,0,13,,,,14,,65,75
25968,note_on,,,,,6,0,5,,,,4,,65,62
25968,note_on,,,,,3,0,3,,,,2,,76,62
25968,note_on,,,,,3,0,9,,,,8,,72,75
25989,note_off,,,,,21,0,9,,,,8,,72,0
25989,note_off,,,,,21,0,3,,,,2,,76,0
25989,note_off,,,,,21,0,8,,,,7,,76,0
25989,note_off,,,,,21,0,7,,,,6,,76,0
25989,note_off,,,,,21,0,4,,,,3,,72,0
25992,note_on,,,,,3,0,9,,,,8,,71,75
25992,note_on,,,,,3,0,7,,,,6,,74,127
25992,note_on,,,,,3,0,8,,,,7,,74,75
25992,note_on,,,,,3,0,4,,,,3,,71,62
25992,note_on,,,,,3,0,3,,,,2,,74,62
26010,note_off,,,,,42,0,5,,,,4,,65,0
26010,note_off,,,,,42,0,13,,,,14,,65,0
26010,note_off,,,,,42,0,2,,,,1,,69,0
26010,note_off,,,,,42,0,1,,,,0,,72,0
26013,note_off,,,,,21,0,8,,,,7,,74,0
26013,note_off,,,,,21,0,3,,,,2,,74,0
26013,note_off,,,,,21,0,9,,,,8,,71,0
26013,note_off,,,,,21,0,4,,,,3,,71,0
26013,note_off,,,,,21,0,7,,,,6,,74,0
26016,note_on,,,,,54,0,6,,,,5,,48,62
26016,note_on,,,,,6,0,1,,,,0,,67,127
26016,note_on,,,,,6,0,2,,,,1,,60,127
26016,note_on,,,,,54,0,12,,,,13,,67,49
26016,note_on,,,,,3,0,7,,,,6,,76,127
26016,note_on,,,,,6,0,5,,,,4,,67,62
26016,note_on,,,,,0,0,12,,,,13,,76,49
26016,note_on,,,,,3,0,8,,,,7,,76,75
26016,note_on,,,,,0,0,12,,,,13,,48,49
26016,note_on,,,,,54,0,10,,,,11,,48,49
26016,note_on,,,,,3,0,9,,,,8,,72,75
26016,note_on,,,,,3,0,4,,,,3,,72,62
26016,note_on,,,,,54,0,11,,,,12,,36,49
26016,note_on,,,,,6,0,13,,,,14,,67,75
26016,note_on,,,,,3,0,3,,,,2,,76,62
26037,note_off,,,,,21,0,9,,,,8,,72,0
26037,note_off,,,,,21,0,8,,,,7,,76,0
26037,note_off,,,,,21,0,7,,,,6,,76,0
26037,note_off,,,,,21,0,4,,,,3,,72,0
26037,note_off,,,,,21,0,3,,,,2,,76,0
26040,note_on,,,,,3,0,3,,,,2,,77,62
26040,note_on,,,,,3,0,8,,,,7,,77,75
26040,note_on,,,,,3,0,7,,,,6,,77,127
26040,note_on,,,,,3,0,9,,,,8,,74,75
26040,note_on,,,,,3,0,4,,,,3,,74,62
26058,note_off,,,,,42,0,13,,,,14,,67,0
26058,note_off,,,,,42,0,12,,,,13,,67,0
26058,note_off,,,,,0,0,12,,,,13,,76,0
26058,note_off,,,,,0,0,12,,,,13,,48,0
26058,note_off,,,,,42,0,1,,,,0,,67,0
26058,note_off,,,,,42,0,6,,,,5,,48,0
26058,note_off,,,,,42,0,11,,,,12,,36,0
26058,note_off,,,,,42,0,10,,,,11,,48,0
26058,note_off,,,,,42,0,5,,,,4,,67,0
26058,note_off,,,,,42,0,2,,,,1,,60,0
26061,note_off,,,,,21,0,7,,,,6,,77,0
26061,note_off,,,,,21,0,4,,,,3,,74,0
26061,note_off,,,,,21,0,3,,,,2,,77,0
26061,note_off,,,,,21,0,9,,,,8,,74,0
26061,note_off,,,,,21,0,8,,,,7,,77,0
26064,note_on,,,,,6,0,6,,,,5,,48,62
26064,note_on,,,,,3,0,4,,,,3,,76,62
26064,note_on,,,,,6,0,5,,,,4,,60,62
26064,note_on,,,,,3,0,8,,,,7,,79,75
26064,note_on,,,,,0,0,12,,,,13,,48,49
26064,note_on,,,,,0,0,12,,,,13,,74,49
26064,note_on,,,,,6,0,13,,,,14,,60,75
26064,note_on,,,,,6,0,11,,,,12,,36,49
26064,note_on,,,,,6,0,1,,,,0,,67,127
26064,note_on,,,,,6,0,10,,,,11,,48,49
26064,note_on,,,,,3,0,9,,,,8,,76,75
26064,note_on,,,,,3,0,3,,,,2,,79,62
26064,note_on,,,,,6,0,12,,,,13,,69,49
26064,note_on,,,,,3,0,7,,,,6,,79,127
26064,note_on,,,,,6,0,2,,,,1,,60,127
26074,note_off,,,,,10,0,9,,,,8,,76,0
26074,note_off,,,,,10,0,3,,,,2,,79,0
26074,note_off,,,,,10,0,4,,,,3,,76,0
26074,note_off,,,,,10,0,8,,,,7,,79,0
26074,note_off,,,,,10,0,7,,,,6,,79,0
26076,note_on,,,,,2,0,8,,,,7,,77,75
26076,note_on,,,,,2,0,7,,,,6,,77,127
26076,note_on,,,,,2,0,4,,,,3,,74,62
26076,note_on,,,,,2,0,3,,,,2,,77,62
26076,note_on,,,,,2,0,9,,,,8,,74,75
26085,note_off,,,,,21,0,1,,,,0,,67,0
26085,note_off,,,,,21,0,2,,,,1,,60,0
26086,note_off,,,,,10,0,7,,,,6,,77,0
26086,note_off,,,,,10,0,4,,,,3,,74,0
26086,note_off,,,,,10,0,9,,,,8,,74,0
26086,note_off,,,,,10,0,8,,,,7,,77,0
26086,note_off,,,,,10,0,3,,,,2,,77,0
26088,note_on,,,,,2,0,7,,,,6,,79,127
26088,note_on,,,,,2,0,8,,,,7,,79,75
26088,note_on,,,,,2,0,3,,,,2,,79,62
26088,note_on,,,,,3,0,2,,,,1,,60,127
26088,note_on,,,,,3,0,1,,,,0,,67,127
26088,note_on,,,,,2,0,9,,,,8,,76,75
26088,note_on,,,,,2,0,4,,,,3,,76,62
26098,note_off,,,,,10,0,4,,,,3,,76,0
26098,note_off,,,,,10,0,9,,,,8,,76,0
26098,note_off,,,,,10,0,7,,,,6,,79,0
26098,note_off,,,,,10,0,3,,,,2,,79,0
26098,note_off,,,,,10,0,8,,,,7,,79,0
26100,note_on,,,,,2,0,4,,,,3,,74,62
26100,note_on,,,,,2,0,3,,,,2,,77,62
26100,note_on,,,,,2,0,7,,,,6,,77,127
26100,note_on,,,,,2,0,9,,,,8,,74,75
26100,note_on,,,,,2,0,8,,,,7,,77,75
26106,note_off,,,,,42,0,12,,,,13,,69,0
26106,note_off,,,,,0,0,12,,,,13,,74,0
26106,note_off,,,,,0,0,12,,,,13,,48,0
26106,note_off,,,,,42,0,10,,,,11,,48,0
26106,note_off,,,,,42,0,5,,,,4,,60,0
26106,note_off,,,,,42,0,6,,,,5,,48,0
26106,note_off,,,,,42,0,11,,,,12,,36,0
26106,note_off,,,,,42,0,13,,,,14,,60,0
26109,note_off,,,,,21,0,1,,,,0,,67,0
26109,note_off,,,,,21,0,2,,,,1,,60,0
26110,note_off,,,,,10,0,7,,,,6,,77,0
26110,note_off,,,,,10,0,4,,,,3,,74,0
26110,note_off,,,,,10,0,8,,,,7,,77,0
26110,note_off,,,,,10,0,3,,,,2,,77,0
26110,note_off,,,,,10,0,9,,,,8,,74,0
26112,note_on,,,,,2,0,9,,,,8,,76,75
26112,note_on,,,,,2,0,7,,,,6,,79,127
26112,note_on,,,,,3,0,1,,,,0,,67,127
26112,note_on,,,,,6,0,12,,,,13,,67,49
26112,note_on,,,,,0,0,12,,,,13,,76,49
26112,note_on,,,,,0,0,12,,,,13,,48,49
26112,note_on,,,,,6,0,10,,,,11,,48,49
26112,note_on,,,,,2,0,3,,,,2,,79,62
26112,note_on,,,,,3,0,2,,,,1,,60,127
26112,note_on,,,,,6,0,6,,,,5,,48,62
26112,note_on,,,,,6,0,11,,,,12,,36,49
26112,note_on,,,,,6,0,13,,,,14,,67,75
26112,note_on,,,,,2,0,8,,,,7,,79,75
26112,note_on,,,,,6,0,5,,,,4,,67,62
26112,note_on,,,,,2,0,4,,,,3,,76,62
26122,note_off,,,,,10,0,7,,,,6,,79,0
26122,note_off,,,,,10,0,8,,,,7,,79,0
26122,note_off,,,,,10,0,9,,,,8,,76,0
26122,note_off,,,,,10,0,4,,,,3,,76,0
26122,note_off,,,,,10,0,3,,,,2,,79,0
26124,note_on,,,,,2,0,4,,,,3,,74,62
26124,note_on,,,,,2,0,8,,,,7,,77,75
26124,note_on,,,,,2,0,9,,,,8,,74,75
26124,note_on,,,,,2,0,3,,,,2,,77,62
26124,note_on,,,,,2,0,7,,,,6,,77,127
26133,note_off,,,,,21,0,2,,,,1,,60,0
26133,note_off,,,,,21,0,1,,,,0,,67,0
26134,note_off,,,,,10,0,9,,,,8,,74,0
26134,note_off,,,,,10,0,3,,,,2,,77,0
26134,note_off,,,,,10,0,4,,,,3,,74,0
26134,note_off,,,,,10,0,8,,,,7,,77,0
26134,note_off,,,,,10,0,7,,,,6,,77,0
26136,note_on,,,,,2,0,4,,,,3,,72,62
26136,note_on,,,,,2,0,9,,,,8,,72,75
26136,note_on,,,,,2,0,3,,,,2,,76,62
26136,note_on,,,,,3,0,2,,,,1,,60,127
26136,note_on,,,,,2,0,7,,,,6,,76,127
26136,note_on,,,,,3,0,1,,,,0,,67,127
26136,note_on,,,,,2,0,8,,,,7,,76,75
26146,note_off,,,,,10,0,7,,,,6,,76,0
26146,note_off,,,,,10,0,3,,,,2,,76,0
26146,note_off,,,,,10,0,4,,,,3,,72,0
26146,note_off,,,,,10,0,8,,,,7,,76,0
26146,note_off,,,,,10,0,9,,,,8,,72,0
26148,note_on,,,,,2,0,7,,,,6,,77,127
26148,note_on,,,,,2,0,8,,,,7,,77,75
26148,note_on,,,,,2,0,3,,,,2,,77,62
26148,note_on,,,,,2,0,4,,,,3,,74,62
26148,note_on,,,,,2,0,9,,,,8,,74,75
26154,note_off,,,,,0,0,12,,,,13,,48,0
26154,note_off,,,,,42,0,13,,,,14,,67,0
26154,note_off,,,,,42,0,5,,,,4,,67,0
26154,note_off,,,,,42,0,10,,,,11,,48,0
26154,note_off,,,,,42,0,6,,,,5,,48,0
26154,note_off,,,,,42,0,12,,,,13,,67,0
26154,note_off,,,,,0,0,12,,,,13,,76,0
26154,note_off,,,,,42,0,11,,,,12,,36,0
26157,note_off,,,,,21,0,2,,,,1,,60,0
26157,note_off,,,,,21,0,1,,,,0,,67,0
26158,note_off,,,,,10,0,7,,,,6,,77,0
26158,note_off,,,,,10,0,4,,,,3,,74,0
26158,note_off,,,,,10,0,9,,,,8,,74,0
26158,note_off,,,,,10,0,8,,,,7,,77,0
26158,note_off,,,,,10,0,3,,,,2,,77,0
26160,note_on,,,,,3,0,2,,,,1,,60,127
26160,note_on,,,,,6,0,12,,,,13,,67,49
26160,note_on,,,,,2,0,7,,,,6,,79,127
26160,note_on,,,,,6,0,6,,,,5,,48,62
26160,note_on,,,,,2,0,8,,,,7,,79,75
26160,note_on,,,,,6,0,10,,,,11,,48,49
26160,note_on,,,,,6,0,5,,,,4,,72,62
26160,note_on,,,,,2,0,9,,,,8,,76,75
26160,note_on,,,,,0,0,12,,,,13,,48,49
26160,note_on,,,,,0,0,12,,,,13,,76,49
26160,note_on,,,,,3,0,1,,,,0,,67,127
26160,note_on,,,,,6,0,11,,,,12,,36,49
26160,note_on,,,,,2,0,4,,,,3,,76,62
26160,note_on,,,,,2,0,3,,,,2,,79,62
26160,note_on,,,,,6,0,13,,,,14,,72,75
26181,note_off,,,,,21,0,11,,,,12,,36,0
26181,note_off,,,,,21,0,6,,,,5,,48,0
26181,note_off,,,,,21,0,12,,,,13,,48,0
26181,note_off,,,,,21,0,10,,,,11,,48,0
26184,note_on,,,,,3,0,10,,,,11,,50,49
26184,note_on,,,,,3,0,12,,,,13,,50,49
26184,note_on,,,,,3,0,11,,,,12,,38,49
26184,note_on,,,,,3,0,6,,,,5,,50,62
26202,note_off,,,,,42,0,9,,,,8,,76,0
26202,note_off,,,,,18,0,12,,,,13,,67,0
26202,note_off,,,,,42,0,4,,,,3,,76,0
26202,note_off,,,,,42,0,13,,,,14,,72,0
26202,note_off,,,,,42,0,8,,,,7,,79,0
26202,note_off,,,,,42,0,7,,,,6,,79,0
26202,note_off,,,,,42,0,1,,,,0,,67,0
26202,note_off,,,,,42,0,2,,,,1,,60,0
26202,note_off,,,,,42,0,5,,,,4,,72,0
26202,note_off,,,,,0,0,12,,,,13,,76,0
26202,note_off,,,,,42,0,3,,,,2,,79,0
26205,note_off,,,,,21,0,10,,,,11,,50,0
26205,note_off,,,,,3,0,12,,,,13,,50,0
26205,note_off,,,,,21,0,11,,,,12,,38,0
26205,note_off,,,,,21,0,6,,,,5,,50,0
26208,note_on,,,,,6,0,5,,,,4,,64,62
26208,note_on,,,,,6,0,1,,,,0,,72,127
26208,note_on,,,,,6,0,8,,,,7,,72,75
26208,note_on,,,,,3,0,10,,,,11,,52,49
26208,note_on,,,,,0,0,12,,,,13,,52,49
26208,note_on,,,,,3,0,12,,,,13,,67,49
26208,note_on,,,,,6,0,9,,,,8,,67,75
26208,note_on,,,,,3,0,11,,,,12,,40,49
26208,note_on,,,,,6,0,13,,,,14,,64,75
26208,note_on,,,,,3,0,6,,,,5,,52,62
26208,note_on,,,,,0,0,12,,,,13,,72,49
26208,note_on,,,,,6,0,4,,,,3,,67,62
26208,note_on,,,,,6,0,3,,,,2,,72,62
26208,note_on,,,,,6,0,2,,,,1,,67,127
26229,note_off,,,,,21,0,12,,,,13,,52,0
26229,note_off,,,,,21,0,11,,,,12,,40,0
26229,note_off,,,,,21,0,6,,,,5,,52,0
26229,note_off,,,,,21,0,2,,,,1,,67,0
26229,note_off,,,,,21,0,1,,,,0,,72,0
26229,note_off,,,,,21,0,10,,,,11,,52,0
26232,note_on,,,,,3,0,11,,,,12,,38,49
26232,note_on,,,,,3,0,10,,,,11,,50,49
26232,note_on,,,,,3,0,1,,,,0,,70,127
26232,note_on,,,,,3,0,12,,,,13,,50,49
26232,note_on,,,,,3,0,6,,,,5,,50,62
26232,note_on,,,,,3,0,2,,,,1,,67,127
26250,note_off,,,,,42,0,13,,,,14,,64,0
26250,note_off,,,,,42,0,8,,,,7,,72,0
26250,note_off,,,,,42,0,9,,,,8,,67,0
26250,note_off,,,,,0,0,12,,,,13,,72,0
26250,note_off,,,,,18,0,12,,,,13,,67,0
26250,note_off,,,,,42,0,5,,,,4,,64,0
26250,note_off,,,,,42,0,3,,,,2,,72,0
26250,note_off,,,,,42,0,4,,,,3,,67,0
26253,note_off,,,,,21,0,10,,,,11,,50,0
26253,note_off,,,,,21,0,1,,,,0,,70,0
26253,note_off,,,,,3,0,12,,,,13,,50,0
26253,note_off,,,,,21,0,6,,,,5,,50,0
26253,note_off,,,,,21,0,11,,,,12,,38,0
26253,note_off,,,,,21,0,2,,,,1,,67,0
26256,note_on,,,,,3,0,6,,,,5,,52,62
26256,note_on,,,,,3,0,12,,,,13,,67,49
26256,note_on,,,,,3,0,10,,,,11,,52,49
26256,note_on,,,,,3,0,2,,,,1,,67,127
26256,note_on,,,,,0,0,12,,,,13,,72,49
26256,note_on,,,,,0,0,12,,,,13,,52,49
26256,note_on,,,,,3,0,1,,,,0,,72,127
26256,note_on,,,,,3,0,11,,,,12,,40,49
26277,note_off,,,,,21,0,1,,,,0,,72,0
26277,note_off,,,,,21,0,2,,,,1,,67,0
26277,note_off,,,,,21,0,10,,,,11,,52,0
26277,note_off,,,,,21,0,12,,,,13,,52,0
26277,note_off,,,,,21,0,6,,,,5,,52,0
26277,note_off,,,,,21,0,11,,,,12,,40,0
26280,note_on,,,,,3,0,6,,,,5,,48,62
26280,note_on,,,,,3,0,11,,,,12,,36,49
26280,note_on,,,,,3,0,1,,,,0,,67,127
26280,note_on,,,,,3,0,12,,,,13,,48,49
26280,note_on,,,,,3,0,2,,,,1,,67,127
26280,note_on,,,,,3,0,10,,,,11,,48,49
26298,note_off,,,,,18,0,12,,,,13,,67,0
26298,note_off,,,,,0,0,12,,,,13,,72,0
26301,note_off,,,,,3,0,12,,,,13,,48,0
26301,note_off,,,,,21,0,1,,,,0,,67,0
26301,note_off,,,,,21,0,6,,,,5,,48,0
26301,note_off,,,,,21,0,2,,,,1,,67,0
26301,note_off,,,,,21,0,11,,,,12,,36,0
26301,note_off,,,,,21,0,10,,,,11,,48,0
26304,note_on,,,,,3,0,11,,,,12,,41,49
26304,note_on,,,,,3,0,10,,,,11,,53,49
26304,note_on,,,,,3,0,2,,,,1,,65,127
26304,note_on,,,,,3,0,6,,,,5,,53,62
26304,note_on,,,,,3,0,1,,,,0,,69,127
26304,note_on,,,,,0,0,12,,,,13,,53,49
26304,note_on,,,,,0,0,12,,,,13,,72,49
26304,note_on,,,,,3,0,12,,,,13,,69,49
26325,note_off,,,,,21,0,6,,,,5,,53,0
26325,note_off,,,,,21,0,12,,,,13,,53,0
26325,note_off,,,,,21,0,10,,,,11,,53,0
26325,note_off,,,,,21,0,11,,,,12,,41,0
26328,note_on,,,,,3,0,6,,,,5,,55,62
26328,note_on,,,,,3,0,12,,,,13,,55,49
26328,note_on,,,,,3,0,11,,,,12,,43,49
26328,note_on,,,,,3,0,10,,,,11,,55,49
26346,note_off,,,,,0,0,12,,,,13,,72,0
26346,note_off,,,,,42,0,2,,,,1,,65,0
26346,note_off,,,,,18,0,12,,,,13,,69,0
26346,note_off,,,,,42,0,1,,,,0,,69,0
26349,note_off,,,,,21,0,11,,,,12,,43,0
26349,note_off,,,,,3,0,12,,,,13,,55,0
26349,note_off,,,,,21,0,10,,,,11,,55,0
26349,note_off,,,,,21,0,6,,,,5,,55,0
26352,note_on,,,,,0,0,7,,,,6,,72,127
26352,note_on,,,,,0,0,7,,,,6,,65,127
26352,note_on,,,,,150,0,7,,,,6,,81,127
26352,note_on,,,,,3,0,10,,,,11,,57,49
26352,note_on,,,,,102,0,3,,,,2,,77,62
26352,note_on,,,,,3,0,12,,,,13,,65,49
26352,note_on,,,,,0,0,12,,,,13,,72,49
26352,note_on,,,,,0,0,12,,,,13,,57,49
26352,note_on,,,,,3,0,6,,,,5,,57,62
26352,note_on,,,,,102,0,13,,,,14,,65,75
26352,note_on,,,,,102,0,9,,,,8,,72,75
26352,note_on,,,,,102,0,8,,,,7,,77,75
26352,note_on,,,,,3,0,11,,,,12,,45,49
26373,note_off,,,,,21,0,12,,,,13,,57,0
26373,note_off,,,,,21,0,10,,,,11,,57,0
26373,note_off,,,,,21,0,3,,,,2,,77,0
26373,note_off,,,,,21,0,6,,,,5,,57,0
26373,note_off,,,,,21,0,11,,,,12,,45,0
26373,note_off,,,,,21,0,8,,,,7,,77,0
26376,note_on,,,,,3,0,12,,,,13,,55,49
26376,note_on,,,,,3,0,8,,,,7,,76,75
26376,note_on,,,,,3,0,10,,,,11,,55,49
26376,note_on,,,,,3,0,6,,,,5,,55,62
26376,note_on,,,,,3,0,3,,,,2,,76,62
26376,note_on,,,,,3,0,11,,,,12,,43,49
26394,note_off,,,,,18,0,12,,,,13,,65,0
26394,note_off,,,,,0,0,12,,,,13,,72,0
26394,note_off,,,,,42,0,7,,,,6,,81,0
26394,note_off,,,,,0,0,7,,,,6,,65,0
26394,note_off,,,,,42,0,9,,,,8,,72,0
26394,note_off,,,,,0,0,7,,,,6,,72,0
26394,note_off,,,,,42,0,13,,,,14,,65,0
26397,note_off,,,,,21,0,6,,,,5,,55,0
26397,note_off,,,,,21,0,3,,,,2,,76,0
26397,note_off,,,,,21,0,10,,,,11,,55,0
26397,note_off,,,,,3,0,12,,,,13,,55,0
26397,note_off,,,,,21,0,8,,,,7,,76,0
26397,note_off,,,,,21,0,11,,,,12,,43,0
26400,note_on,,,,,0,0,7,,,,6,,65,127
26400,note_on,,,,,3,0,12,,,,13,,65,49
26400,note_on,,,,,6,0,7,,,,6,,81,127
26400,note_on,,,,,0,0,12,,,,13,,57,49
26400,note_on,,,,,3,0,10,,,,11,,57,49
26400,note_on,,,,,3,0,8,,,,7,,77,75
26400,note_on,,,,,0,0,12,,,,13,,72,49
26400,note_on,,,,,6,0,13,,,,14,,65,75
26400,note_on,,,,,0,0,7,,,,6,,72,127
26400,note_on,,,,,3,0,11,,,,12,,45,49
26400,note_on,,,,,6,0,9,,,,8,,72,75
26400,note_on,,,,,3,0,3,,,,2,,77,62
26400,note_on,,,,,3,0,6,,,,5,,57,62
26421,note_off,,,,,21,0,3,,,,2,,77,0
26421,note_off,,,,,21,0,12,,,,13,,57,0
26421,note_off,,,,,21,0,6,,,,5,,57,0
26421,note_off,,,,,21,0,10,,,,11,,57,0
26421,note_off,,,,,21,0,8,,,,7,,77,0
26421,note_off,,,,,21,0,11,,,,12,,45,0
26424,note_on,,,,,3,0,11,,,,12,,41,49
26424,note_on,,,,,3,0,6,,,,5,,53,62
26424,note_on,,,,,3,0,10,,,,11,,53,49
26424,note_on,,,,,3,0,8,,,,7,,72,75
26424,note_on,,,,,3,0,12,,,,13,,53,49
26424,note_on,,,,,3,0,3,,,,2,,72,62
26442,note_off,,,,,42,0,13,,,,14,,65,0
26442,note_off,,,,,0,0,12,,,,13,,72,0
26442,note_off,,,,,18,0,12,,,,13,,65,0
26442,note_off,,,,,0,0,7,,,,6,,72,0
26442,note_off,,,,,0,0,7,,,,6,,65,0
26442,note_off,,,,,42,0,7,,,,6,,81,0
26442,note_off,,,,,42,0,9,,,,8,,72,0
26445,note_off,,,,,3,0,12,,,,13,,53,0
26445,note_off,,,,,21,0,11,,,,12,,41,0
26445,note_off,,,,,21,0,8,,,,7,,72,0
26445,note_off,,,,,21,0,3,,,,2,,72,0
26445,note_off,,,,,21,0,10,,,,11,,53,0
26445,note_off,,,,,21,0,6,,,,5,,53,0
26448,note_on,,,,,6,0,13,,,,14,,65,75
26448,note_on,,,,,3,0,3,,,,2,,74,62
26448,note_on,,,,,6,0,7,,,,6,,81,127
26448,note_on,,,,,0,0,7,,,,6,,70,127
26448,note_on,,,,,0,0,7,,,,6,,74,127
26448,note_on,,,,,3,0,6,,,,5,,46,62
26448,note_on,,,,,0,0,12,,,,13,,74,49
26448,note_on,,,,,3,0,12,,,,13,,65,49
26448,note_on,,,,,0,0,12,,,,13,,46,49
26448,note_on,,,,,3,0,10,,,,11,,46,49
26448,note_on,,,,,3,0,8,,,,7,,74,75
26448,note_on,,,,,3,0,11,,,,12,,34,49
26448,note_on,,,,,6,0,9,,,,8,,70,75
26469,note_off,,,,,21,0,10,,,,11,,46,0
26469,note_off,,,,,21,0,7,,,,6,,81,0
26469,note_off,,,,,21,0,6,,,,5,,46,0
26469,note_off,,,,,21,0,12,,,,13,,46,0
26469,note_off,,,,,21,0,11,,,,12,,34,0
26472,note_on,,,,,3,0,10,,,,11,,48,49
26472,note_on,,,,,3,0,6,,,,5,,48,62
26472,note_on,,,,,3,0,12,,,,13,,48,49
26472,note_on,,,,,3,0,7,,,,6,,79,127
26472,note_on,,,,,3,0,11,,,,12,,36,49
26490,note_off,,,,,18,0,7,,,,6,,70,0
26490,note_off,,,,,0,0,7,,,,6,,74,0
26490,note_off,,,,,42,0,13,,,,14,,65,0
26490,note_off,,,,,0,0,12,,,,13,,74,0
26490,note_off,,,,,42,0,8,,,,7,,74,0
26490,note_off,,,,,42,0,9,,,,8,,70,0
26490,note_off,,,,,18,0,12,,,,13,,65,0
26490,note_off,,,,,42,0,3,,,,2,,74,0
26493,note_off,,,,,3,0,7,,,,6,,79,0
26493,note_off,,,,,3,0,12,,,,13,,48,0
26493,note_off,,,,,21,0,6,,,,5,,48,0
26493,note_off,,,,,21,0,11,,,,12,,36,0
26493,note_off,,,,,21,0,10,,,,11,,48,0
26496,note_on,,,,,3,0,12,,,,13,,65,49
26496,note_on,,,,,3,0,11,,,,12,,38,49
26496,note_on,,,,,3,0,6,,,,5,,50,62
26496,note_on,,,,,6,0,3,,,,2,,74,62
26496,note_on,,,,,0,0,12,,,,13,,74,49
26496,note_on,,,,,0,0,12,,,,13,,50,49
26496,note_on,,,,,246,0,4,,,,3,,70,62
26496,note_on,,,,,3,0,7,,,,6,,77,127
26496,note_on,,,,,246,0,5,,,,4,,69,62
26496,note_on,,,,,3,0,10,,,,11,,50,49
26496,note_on,,,,,6,0,8,,,,7,,74,75
26517,note_off,,,,,21,0,12,,,,13,,50,0
26517,note_off,,,,,21,0,11,,,,12,,38,0
26517,note_off,,,,,21,0,6,,,,5,,50,0
26517,note_off,,,,,21,0,10,,,,11,,50,0
26517,note_off,,,,,21,0,7,,,,6,,77,0
26520,note_on,,,,,3,0,11,,,,12,,36,49
26520,note_on,,,,,3,0,10,,,,11,,48,49
26520,note_on,,,,,3,0,6,,,,5,,48,62
26520,note_on,,,,,3,0,12,,,,13,,48,49
26520,note_on,,,,,3,0,7,,,,6,,76,127
26538,note_off,,,,,18,0,12,,,,13,,65,0
26538,note_off,,,,,0,0,12,,,,13,,74,0
26538,note_off,,,,,42,0,4,,,,3,,70,0
26538,note_off,,,,,42,0,5,,,,4,,69,0
26538,note_off,,,,,42,0,8,,,,7,,74,0
26538,note_off,,,,,42,0,3,,,,2,,74,0
26541,note_off,,,,,21,0,11,,,,12,,36,0
26541,note_off,,,,,21,0,6,,,,5,,48,0
26541,note_off,,,,,21,0,7,,,,6,,76,0
26541,note_off,,,,,3,0,12,,,,13,,48,0
26541,note_off,,,,,21,0,10,,,,11,,48,0
26544,note_on,,,,,6,0,8,,,,7,,74,75
26544,note_on,,,,,6,0,3,,,,2,,74,62
26544,note_on,,,,,0,0,12,,,,13,,50,49
26544,note_on,,,,,0,0,12,,,,13,,70,49
26544,note_on,,,,,3,0,7,,,,6,,77,127
26544,note_on,,,,,3,0,10,,,,11,,50,49
26544,note_on,,,,,3,0,12,,,,13,,65,49
26544,note_on,,,,,6,0,5,,,,4,,69,62
26544,note_on,,,,,3,0,11,,,,12,,38,49
26544,note_on,,,,,6,0,4,,,,3,,70,62
26544,note_on,,,,,3,0,6,,,,5,,50,62
26565,note_off,,,,,21,0,11,,,,12,,38,0
26565,note_off,,,,,21,0,7,,,,6,,77,0
26565,note_off,,,,,21,0,12,,,,13,,50,0
26565,note_off,,,,,21,0,6,,,,5,,50,0
26565,note_off,,,,,21,0,10,,,,11,,50,0
26568,note_on,,,,,3,0,7,,,,6,,74,127
26568,note_on,,,,,3,0,11,,,,12,,34,49
26568,note_on,,,,,3,0,6,,,,5,,46,62
26568,note_on,,,,,3,0,12,,,,13,,46,49
26568,note_on,,,,,3,0,10,,,,11,,46,49
26586,note_off,,,,,42,0,3,,,,2,,74,0
26586,note_off,,,,,18,0,12,,,,13,,65,0
26586,note_off,,,,,0,0,12,,,,13,,70,0
26586,note_off,,,,,42,0,8,,,,7,,74,0
26586,note_off,,,,,42,0,5,,,,4,,69,0
26586,note_off,,,,,42,0,4,,,,3,,70,0
26589,note_off,,,,,21,0,7,,,,6,,74,0
26589,note_off,,,,,3,0,12,,,,13,,46,0
26589,note_off,,,,,21,0,10,,,,11,,46,0
26589,note_off,,,,,21,0,11,,,,12,,34,0
26589,note_off,,,,,21,0,6,,,,5,,46,0
26592,note_on,,,,,3,0,11,,,,12,,40,49
26592,note_on,,,,,3,0,10,,,,11,,52,49
26592,note_on,,,,,3,0,7,,,,6,,79,127
26592,note_on,,,,,6,0,8,,,,7,,74,75
26592,note_on,,,,,6,0,3,,,,2,,74,62
26592,note_on,,,,,3,0,12,,,,13,,67,49
26592,note_on,,,,,0,0,12,,,,13,,52,49
26592,note_on,,,,,0,0,12,,,,13,,70,49
26592,note_on,,,,,6,0,4,,,,3,,70,62
26592,note_on,,,,,3,0,6,,,,5,,52,62
26592,note_on,,,,,6,0,5,,,,4,,67,62
26613,note_off,,,,,21,0,12,,,,13,,52,0
26613,note_off,,,,,21,0,6,,,,5,,52,0
26613,note_off,,,,,21,0,8,,,,7,,74,0
26613,note_off,,,,,21,0,10,,,,11,,52,0
26613,note_off,,,,,21,0,11,,,,12,,40,0
26613,note_off,,,,,21,0,3,,,,2,,74,0
26616,note_on,,,,,3,0,6,,,,5,,53,62
26616,note_on,,,,,3,0,3,,,,2,,72,62
26616,note_on,,,,,3,0,8,,,,7,,72,75
26616,note_on,,,,,3,0,10,,,,11,,53,49
26616,note_on,,,,,3,0,11,,,,12,,41,49
26616,note_on,,,,,3,0,12,,,,13,,53,49
26634,note_off,,,,,42,0,5,,,,4,,67,0
26634,note_off,,,,,42,0,7,,,,6,,79,0
26634,note_off,,,,,42,0,4,,,,3,,70,0
26634,note_off,,,,,0,0,12,,,,13,,70,0
26634,note_off,,,,,18,0,12,,,,13,,67,0
26637,note_off,,,,,21,0,11,,,,12,,41,0
26637,note_off,,,,,21,0,3,,,,2,,72,0
26637,note_off,,,,,21,0,6,,,,5,,53,0
26637,note_off,,,,,21,0,10,,,,11,,53,0
26637,note_off,,,,,3,0,12,,,,13,,53,0
26637,note_off,,,,,21,0,8,,,,7,,72,0
26640,note_on,,,,,150,0,9,,,,8,,67,75
26640,note_on,,,,,0,0,7,,,,6,,74,127
26640,note_on,,,,,3,0,3,,,,2,,70,62
26640,note_on,,,,,3,0,8,,,,7,,70,75
26640,note_on,,,,,6,0,7,,,,6,,79,127
26640,note_on,,,,,0,0,7,,,,6,,70,127
26640,note_on,,,,,3,0,6,,,,5,,55,62
26640,note_on,,,,,150,0,13,,,,14,,64,75
26640,note_on,,,,,0,0,12,,,,13,,55,49
26640,note_on,,,,,0,0,12,,,,13,,76,49
26640,note_on,,,,,3,0,12,,,,13,,70,49
26640,note_on,,,,,3,0,10,,,,11,,55,49
26640,note_on,,,,,3,0,11,,,,12,,43,49
26661,note_off,,,,,21,0,11,,,,12,,43,0
26661,note_off,,,,,21,0,6,,,,5,,55,0
26661,note_off,,,,,21,0,10,,,,11,,55,0
26661,note_off,,,,,21,0,3,,,,2,,70,0
26661,note_off,,,,,21,0,8,,,,7,,70,0
26661,note_off,,,,,21,0,12,,,,13,,55,0
26664,note_on,,,,,3,0,11,,,,12,,41,49
26664,note_on,,,,,3,0,3,,,,2,,69,62
26664,note_on,,,,,3,0,8,,,,7,,69,75
26664,note_on,,,,,3,0,6,,,,5,,53,62
26664,note_on,,,,,3,0,12,,,,13,,53,49
26664,note_on,,,,,3,0,10,,,,11,,53,49
26682,note_off,,,,,0,0,7,,,,6,,74,0
26682,note_off,,,,,0,0,7,,,,6,,70,0
26682,note_off,,,,,42,0,7,,,,6,,79,0
26682,note_off,,,,,18,0,12,,,,13,,70,0
26682,note_off,,,,,0,0,12,,,,13,,76,0
26682,note_off,,,,,42,0,9,,,,8,,67,0
26682,note_off,,,,,42,0,13,,,,14,,64,0
26685,note_off,,,,,21,0,11,,,,12,,41,0
26685,note_off,,,,,21,0,6,,,,5,,53,0
26685,note_off,,,,,21,0,8,,,,7,,69,0
26685,note_off,,,,,21,0,3,,,,2,,69,0
26685,note_off,,,,,21,0,10,,,,11,,53,0
26685,note_off,,,,,3,0,12,,,,13,,53,0
26688,note_on,,,,,3,0,12,,,,13,,70,49
26688,note_on,,,,,3,0,6,,,,5,,55,62
26688,note_on,,,,,6,0,13,,,,14,,64,75
26688,note_on,,,,,0,0,12,,,,13,,55,49
26688,note_on,,,,,3,0,10,,,,11,,55,49
26688,note_on,,,,,0,0,12,,,,13,,76,49
26688,note_on,,,,,0,0,7,,,,6,,70,127
26688,note_on,,,,,3,0,11,,,,12,,43,49
26688,note_on,,,,,3,0,3,,,,2,,70,62
26688,note_on,,,,,0,0,7,,,,6,,74,127
26688,note_on,,,,,6,0,7,,,,6,,79,127
26688,note_on,,,,,6,0,9,,,,8,,67,75
26688,note_on,,,,,3,0,8,,,,7,,70,75
26709,note_off,,,,,21,0,3,,,,2,,70,0
26709,note_off,,,,,21,0,10,,,,11,,55,0
26709,note_off,,,,,21,0,8,,,,7,,70,0
26709,note_off,,,,,21,0,6,,,,5,,55,0
26709,note_off,,,,,21,0,12,,,,13,,55,0
26709,note_off,,,,,21,0,11,,,,12,,43,0
26712,note_on,,,,,3,0,6,,,,5,,52,62
26712,note_on,,,,,3,0,11,,,,12,,40,49
26712,note_on,,,,,3,0,10,,,,11,,52,49
26712,note_on,,,,,3,0,8,,,,7,,67,75
26712,note_on,,,,,3,0,12,,,,13,,52,49
26712,note_on,,,,,3,0,3,,,,2,,67,62
26730,note_off,,,,,42,0,7,,,,6,,79,0
26730,note_off,,,,,18,0,12,,,,13,,70,0
26730,note_off,,,,,42,0,9,,,,8,,67,0
26730,note_off,,,,,42,0,13,,,,14,,64,0
26730,note_off,,,,,0,0,12,,,,13,,76,0
26730,note_off,,,,,0,0,7,,,,6,,74,0
26730,note_off,,,,,0,0,7,,,,6,,70,0
26733,note_off,,,,,21,0,3,,,,2,,67,0
26733,note_off,,,,,21,0,10,,,,11,,52,0
26733,note_off,,,,,21,0,6,,,,5,,52,0
26733,note_off,,,,,3,0,12,,,,13,,52,0
26733,note_off,,,,,21,0,8,,,,7,,67,0
26733,note_off,,,,,21,0,11,,,,12,,40,0
26736,note_on,,,,,0,0,7,,,,6,,72,127
26736,note_on,,,,,3,0,10,,,,11,,45,49
26736,note_on,,,,,6,0,13,,,,14,,60,75
26736,note_on,,,,,6,0,7,,,,6,,79,127
26736,note_on,,,,,0,0,7,,,,6,,69,127
26736,note_on,,,,,3,0,8,,,,7,,72,75
26736,note_on,,,,,0,0,12,,,,13,,45,49
26736,note_on,,,,,6,0,9,,,,8,,64,75
26736,note_on,,,,,0,0,12,,,,13,,72,49
26736,note_on,,,,,3,0,11,,,,12,,33,49
26736,note_on,,,,,3,0,12,,,,13,,64,49
26736,note_on,,,,,3,0,3,,,,2,,72,62
26736,note_on,,,,,3,0,6,,,,5,,45,62
26757,note_off,,,,,21,0,12,,,,13,,45,0
26757,note_off,,,,,21,0,7,,,,6,,79,0
26757,note_off,,,,,21,0,11,,,,12,,33,0
26757,note_off,,,,,21,0,6,,,,5,,45,0
26757,note_off,,,,,21,0,10,,,,11,,45,0
26760,note_on,,,,,3,0,6,,,,5,,46,62
26760,note_on,,,,,3,0,7,,,,6,,77,127
26760,note_on,,,,,3,0,12,,,,13,,46,49
26760,note_on,,,,,3,0,10,,,,11,,46,49
26760,note_on,,,,,3,0,11,,,,12,,34,49
26778,note_off,,,,,42,0,8,,,,7,,72,0
26778,note_off,,,,,0,0,12,,,,13,,72,0
26778,note_off,,,,,18,0,7,,,,6,,69,0
26778,note_off,,,,,42,0,9,,,,8,,64,0
26778,note_off,,,,,0,0,7,,,,6,,72,0
26778,note_off,,,,,42,0,13,,,,14,,60,0
26778,note_off,,,,,18,0,12,,,,13,,64,0
26778,note_off,,,,,42,0,3,,,,2,,72,0
26781,note_off,,,,,3,0,7,,,,6,,77,0
26781,note_off,,,,,21,0,6,,,,5,,46,0
26781,note_off,,,,,21,0,11,,,,12,,34,0
26781,note_off,,,,,21,0,10,,,,11,,46,0
26781,note_off,,,,,3,0,12,,,,13,,46,0
26784,note_on,,,,,3,0,11,,,,12,,36,49
26784,note_on,,,,,0,0,12,,,,13,,79,49
26784,note_on,,,,,0,0,12,,,,13,,48,49
26784,note_on,,,,,6,0,8,,,,7,,72,75
26784,note_on,,,,,6,0,3,,,,2,,72,62
26784,note_on,,,,,3,0,7,,,,6,,76,127
26784,note_on,,,,,3,0,10,,,,11,,48,49
26784,note_on,,,,,150,0,4,,,,3,,69,62
26784,note_on,,,,,3,0,6,,,,5,,48,62
26784,note_on,,,,,3,0,12,,,,13,,69,49
26784,note_on,,,,,150,0,5,,,,4,,67,62
26805,note_off,,,,,21,0,11,,,,12,,36,0
26805,note_off,,,,,21,0,10,,,,11,,48,0
26805,note_off,,,,,21,0,7,,,,6,,76,0
26805,note_off,,,,,21,0,12,,,,13,,48,0
26805,note_off,,,,,21,0,6,,,,5,,48,0
26808,note_on,,,,,3,0,6,,,,5,,46,62
26808,note_on,,,,,3,0,7,,,,6,,74,127
26808,note_on,,,,,3,0,10,,,,11,,46,49
26808,note_on,,,,,3,0,12,,,,13,,46,49
26808,note_on,,,,,3,0,11,,,,12,,34,49
26826,note_off,,,,,42,0,3,,,,2,,72,0
26826,note_off,,,,,42,0,8,,,,7,,72,0
26826,note_off,,,,,42,0,5,,,,4,,67,0
26826,note_off,,,,,42,0,4,,,,3,,69,0
26826,note_off,,,,,18,0,12,,,,13,,69,0
26826,note_off,,,,,0,0,12,,,,13,,79,0
26829,note_off,,,,,21,0,10,,,,11,,46,0
26829,note_off,,,,,3,0,12,,,,13,,46,0
26829,note_off,,,,,21,0,11,,,,12,,34,0
26829,note_off,,,,,21,0,6,,,,5,,46,0
26829,note_off,,,,,21,0,7,,,,6,,74,0
26832,note_on,,,,,3,0,11,,,,12,,36,49
26832,note_on,,,,,0,0,12,,,,13,,48,49
26832,note_on,,,,,0,0,12,,,,13,,79,49
26832,note_on,,,,,3,0,12,,,,13,,69,49
26832,note_on,,,,,3,0,6,,,,5,,48,62
26832,note_on,,,,,6,0,4,,,,3,,69,62
26832,note_on,,,,,6,0,5,,,,4,,67,62
26832,note_on,,,,,6,0,3,,,,2,,72,62
26832,note_on,,,,,6,0,8,,,,7,,72,75
26832,note_on,,,,,3,0,7,,,,6,,76,127
26832,note_on,,,,,3,0,10,,,,11,,48,49
26853,note_off,,,,,21,0,11,,,,12,,36,0
26853,note_off,,,,,21,0,6,,,,5,,48,0
26853,note_off,,,,,21,0,10,,,,11,,48,0
26853,note_off,,,,,21,0,12,,,,13,,48,0
26853,note_off,,,,,21,0,7,,,,6,,76,0
26856,note_on,,,,,3,0,6,,,,5,,45,62
26856,note_on,,,,,3,0,10,,,,11,,45,49
26856,note_on,,,,,3,0,11,,,,12,,33,49
26856,note_on,,,,,3,0,7,,,,6,,72,127
26856,note_on,,,,,3,0,12,,,,13,,45,49
26874,note_off,,,,,0,0,12,,,,13,,79,0
26874,note_off,,,,,42,0,5,,,,4,,67,0
26874,note_off,,,,,42,0,4,,,,3,,69,0
26874,note_off,,,,,42,0,3,,,,2,,72,0
26874,note_off,,,,,18,0,12,,,,13,,69,0
26874,note_off,,,,,42,0,8,,,,7,,72,0
26877,note_off,,,,,21,0,7,,,,6,,72,0
26877,note_off,,,,,3,0,12,,,,13,,45,0
26877,note_off,,,,,21,0,11,,,,12,,33,0
26877,note_off,,,,,21,0,6,,,,5,,45,0
26877,note_off,,,,,21,0,10,,,,11,,45,0
26880,note_on,,,,,6,0,8,,,,7,,72,75
26880,note_on,,,,,6,0,3,,,,2,,72,62
26880,note_on,,,,,3,0,11,,,,12,,38,49
26880,note_on,,,,,3,0,10,,,,11,,50,49
26880,note_on,,,,,6,0,4,,,,3,,69,62
26880,note_on,,,,,3,0,12,,,,13,,69,49
26880,note_on,,,,,3,0,6,,,,5,,50,62
26880,note_on,,,,,3,0,7,,,,6,,77,127
26880,note_on,,,,,0,0,12,,,,13,,77,49
26880,note_on,,,,,0,0,12,,,,13,,50,49
26880,note_on,,,,,6,0,5,,,,4,,65,62
26901,note_off,,,,,21,0,11,,,,12,,38,0
26901,note_off,,,,,21,0,8,,,,7,,72,0
26901,note_off,,,,,21,0,12,,,,13,,50,0
26901,note_off,,,,,21,0,10,,,,11,,50,0
26901,note_off,,,,,21,0,6,,,,5,,50,0
26901,note_off,,,,,21,0,3,,,,2,,72,0
26904,note_on,,,,,3,0,11,,,,12,,40,49
26904,note_on,,,,,3,0,3,,,,2,,70,62
26904,note_on,,,,,3,0,6,,,,5,,52,62
26904,note_on,,,,,3,0,10,,,,11,,52,49
26904,note_on,,,,,3,0,8,,,,7,,70,75
26904,note_on,,,,,3,0,12,,,,13,,52,49
26922,note_off,,,,,42,0,4,,,,3,,69,0
26922,note_off,,,,,42,0,7,,,,6,,77,0
26922,note_off,,,,,18,0,12,,,,13,,69,0
26922,note_off,,,,,0,0,12,,,,13,,77,0
26922,note_off,,,,,42,0,5,,,,4,,65,0
26925,note_off,,,,,21,0,8,,,,7,,70,0
26925,note_off,,,,,21,0,11,,,,12,,40,0
26925,note_off,,,,,21,0,6,,,,5,,52,0
26925,note_off,,,,,21,0,3,,,,2,,70,0
26925,note_off,,,,,21,0,10,,,,11,,52,0
26925,note_off,,,,,3,0,12,,,,13,,52,0
26928,note_on,,,,,0,0,7,,,,6,,62,127
26928,note_on,,,,,3,0,6,,,,5,,53,62
26928,note_on,,,,,3,0,3,,,,2,,69,62
26928,note_on,,,,,150,0,9,,,,8,,65,75
26928,note_on,,,,,0,0,12,,,,13,,74,49
26928,note_on,,,,,0,0,12,,,,13,,53,49
26928,note_on,,,,,3,0,10,,,,11,,53,49
26928,note_on,,,,,6,0,7,,,,6,,77,127
26928,note_on,,,,,0,0,7,,,,6,,69,127
26928,note_on,,,,,3,0,8,,,,7,,69,75
26928,note_on,,,,,3,0,12,,,,13,,69,49
26928,note_on,,,,,3,0,11,,,,12,,41,49
26928,note_on,,,,,150,0,13,,,,14,,62,75
26949,note_off,,,,,21,0,12,,,,13,,53,0
26949,note_off,,,,,21,0,11,,,,12,,41,0
26949,note_off,,,,,21,0,10,,,,11,,53,0
26949,note_off,,,,,21,0,8,,,,7,,69,0
26949,note_off,,,,,21,0,3,,,,2,,69,0
26949,note_off,,,,,21,0,6,,,,5,,53,0
26952,note_on,,,,,3,0,8,,,,7,,67,75
26952,note_on,,,,,3,0,3,,,,2,,67,62
26952,note_on,,,,,3,0,10,,,,11,,52,49
26952,note_on,,,,,3,0,12,,,,13,,52,49
26952,note_on,,,,,3,0,6,,,,5,,52,62
26952,note_on,,,,,3,0,11,,,,12,,40,49
26970,note_off,,,,,0,0,12,,,,13,,74,0
26970,note_off,,,,,18,0,12,,,,13,,69,0
26970,note_off,,,,,42,0,7,,,,6,,77,0
26970,note_off,,,,,0,0,7,,,,6,,62,0
26970,note_off,,,,,42,0,9,,,,8,,65,0
26970,note_off,,,,,0,0,7,,,,6,,69,0
26970,note_off,,,,,42,0,13,,,,14,,62,0
26973,note_off,,,,,21,0,11,,,,12,,40,0
26973,note_off,,,,,21,0,6,,,,5,,52,0
26973,note_off,,,,,21,0,10,,,,11,,52,0
26973,note_off,,,,,21,0,8,,,,7,,67,0
26973,note_off,,,,,21,0,3,,,,2,,67,0
26973,note_off,,,,,3,0,12,,,,13,,52,0
26976,note_on,,,,,3,0,12,,,,13,,69,49
26976,note_on,,,,,3,0,3,,,,2,,69,62
26976,note_on,,,,,0,0,12,,,,13,,74,49
26976,note_on,,,,,0,0,12,,,,13,,53,49
26976,note_on,,,,,3,0,8,,,,7,,69,75
26976,note_on,,,,,6,0,13,,,,14,,62,75
26976,note_on,,,,,6,0,7,,,,6,,77,127
26976,note_on,,,,,3,0,11,,,,12,,41,49
26976,note_on,,,,,0,0,7,,,,6,,62,127
26976,note_on,,,,,0,0,7,,,,6,,69,127
26976,note_on,,,,,3,0,6,,,,5,,53,62
26976,note_on,,,,,3,0,10,,,,11,,53,49
26976,note_on,,,,,6,0,9,,,,8,,65,75
26997,note_off,,,,,21,0,8,,,,7,,69,0
26997,note_off,,,,,21,0,11,,,,12,,41,0
26997,note_off,,,,,21,0,6,,,,5,,53,0
26997,note_off,,,,,21,0,10,,,,11,,53,0
26997,note_off,,,,,21,0,12,,,,13,,53,0
26997,note_off,,,,,21,0,3,,,,2,,69,0
27000,note_on,,,,,3,0,12,,,,13,,50,49
27000,note_on,,,,,3,0,10,,,,11,,50,49
27000,note_on,,,,,3,0,11,,,,12,,38,49
27000,note_on,,,,,3,0,8,,,,7,,65,75
27000,note_on,,,,,3,0,6,,,,5,,50,62
27000,note_on,,,,,3,0,3,,,,2,,65,62
27018,note_off,,,,,0,0,12,,,,13,,74,0
27018,note_off,,,,,42,0,9,,,,8,,65,0
27018,note_off,,,,,42,0,7,,,,6,,77,0
27018,note_off,,,,,0,0,7,,,,6,,62,0
27018,note_off,,,,,18,0,12,,,,13,,69,0
27018,note_off,,,,,42,0,13,,,,14,,62,0
27018,note_off,,,,,0,0,7,,,,6,,69,0
27021,note_off,,,,,21,0,8,,,,7,,65,0
27021,note_off,,,,,21,0,10,,,,11,,50,0
27021,note_off,,,,,3,0,12,,,,13,,50,0
27021,note_off,,,,,21,0,6,,,,5,,50,0
27021,note_off,,,,,21,0,3,,,,2,,65,0
27021,note_off,,,,,21,0,11,,,,12,,38,0
27024,note_on,,,,,3,0,3,,,,2,,70,62
27024,note_on,,,,,3,0,10,,,,11,,43,49
27024,note_on,,,,,3,0,6,,,,5,,43,62
27024,note_on,,,,,6,0,13,,,,14,,58,75
27024,note_on,,,,,6,0,7,,,,6,,77,127
27024,note_on,,,,,0,0,7,,,,6,,58,127
27024,note_on,,,,,0,0,7,,,,6,,67,127
27024,note_on,,,,,3,0,11,,,,12,,31,49
27024,note_on,,,,,6,0,9,,,,8,,62,75
27024,note_on,,,,,3,0,8,,,,7,,70,75
27024,note_on,,,,,3,0,12,,,,13,,62,49
27024,note_on,,,,,0,0,12,,,,13,,43,49
27024,note_on,,,,,0,0,12,,,,13,,70,49
27045,note_off,,,,,21,0,12,,,,13,,43,0
27045,note_off,,,,,21,0,6,,,,5,,43,0
27045,note_off,,,,,21,0,10,,,,11,,43,0
27045,note_off,,,,,21,0,7,,,,6,,77,0
27045,note_off,,,,,21,0,11,,,,12,,31,0
27048,note_on,,,,,3,0,12,,,,13,,45,49
27048,note_on,,,,,3,0,7,,,,6,,76,127
27048,note_on,,,,,3,0,6,,,,5,,45,62
27048,note_on,,,,,3,0,11,,,,12,,33,49
27048,note_on,,,,,3,0,10,,,,11,,45,49
27066,note_off,,,,,0,0,12,,,,13,,70,0
27066,note_off,,,,,0,0,7,,,,6,,67,0
27066,note_off,,,,,18,0,7,,,,6,,58,0
27066,note_off,,,,,42,0,3,,,,2,,70,0
27066,note_off,,,,,42,0,9,,,,8,,62,0
27066,note_off,,,,,42,0,13,,,,14,,58,0
27066,note_off,,,,,42,0,8,,,,7,,70,0
27066,note_off,,,,,18,0,12,,,,13,,62,0
27069,note_off,,,,,21,0,10,,,,11,,45,0
27069,note_off,,,,,21,0,6,,,,5,,45,0
27069,note_off,,,,,21,0,11,,,,12,,33,0
27069,note_off,,,,,3,0,7,,,,6,,76,0
27069,note_off,,,,,3,0,12,,,,13,,45,0
27072,note_on,,,,,3,0,11,,,,12,,34,49
27072,note_on,,,,,6,0,3,,,,2,,70,62
27072,note_on,,,,,3,0,12,,,,13,,67,49
27072,note_on,,,,,3,0,6,,,,5,,46,62
27072,note_on,,,,,0,0,12,,,,13,,77,49
27072,note_on,,,,,150,0,4,,,,3,,67,62
27072,note_on,,,,,0,0,12,,,,13,,46,49
27072,note_on,,,,,150,0,5,,,,4,,65,62
27072,note_on,,,,,3,0,7,,,,6,,74,127
27072,note_on,,,,,6,0,8,,,,7,,70,75
27072,note_on,,,,,3,0,10,,,,11,,46,49
27093,note_off,,,,,21,0,11,,,,12,,34,0
27093,note_off,,,,,21,0,6,,,,5,,46,0
27093,note_off,,,,,21,0,10,,,,11,,46,0
27093,note_off,,,,,21,0,12,,,,13,,46,0
27093,note_off,,,,,21,0,7,,,,6,,74,0
27096,note_on,,,,,3,0,7,,,,6,,72,127
27096,note_on,,,,,3,0,11,,,,12,,33,49
27096,note_on,,,,,3,0,6,,,,5,,45,62
27096,note_on,,,,,3,0,10,,,,11,,45,49
27096,note_on,,,,,3,0,12,,,,13,,45,49
27114,note_off,,,,,42,0,4,,,,3,,67,0
27114,note_off,,,,,42,0,3,,,,2,,70,0
27114,note_off,,,,,42,0,5,,,,4,,65,0
27114,note_off,,,,,42,0,8,,,,7,,70,0
27114,note_off,,,,,0,0,12,,,,13,,77,0
27114,note_off,,,,,18,0,12,,,,13,,67,0
27117,note_off,,,,,3,0,12,,,,13,,45,0
27117,note_off,,,,,21,0,7,,,,6,,72,0
27117,note_off,,,,,21,0,10,,,,11,,45,0
27117,note_off,,,,,21,0,11,,,,12,,33,0
27117,note_off,,,,,21,0,6,,,,5,,45,0
27120,note_on,,,,,0,0,12,,,,13,,77,49
27120,note_on,,,,,6,0,4,,,,3,,67,62
27120,note_on,,,,,6,0,8,,,,7,,70,75
27120,note_on,,,,,3,0,11,,,,12,,34,49
27120,note_on,,,,,3,0,6,,,,5,,46,62
27120,note_on,,,,,6,0,3,,,,2,,70,62
27120,note_on,,,,,3,0,12,,,,13,,67,49
27120,note_on,,,,,3,0,10,,,,11,,46,49
27120,note_on,,,,,3,0,7,,,,6,,74,127
27120,note_on,,,,,0,0,12,,,,13,,46,49
27120,note_on,,,,,6,0,5,,,,4,,65,62
27141,note_off,,,,,21,0,7,,,,6,,74,0
27141,note_off,,,,,21,0,10,,,,11,,46,0
27141,note_off,,,,,21,0,11,,,,12,,34,0
27141,note_off,,,,,21,0,6,,,,5,,46,0
27141,note_off,,,,,21,0,12,,,,13,,46,0
27144,note_on,,,,,3,0,10,,,,11,,43,49
27144,note_on,,,,,3,0,12,,,,13,,43,49
27144,note_on,,,,,3,0,11,,,,12,,31,49
27144,note_on,,,,,3,0,7,,,,6,,70,127
27144,note_on,,,,,3,0,6,,,,5,,43,62
27162,note_off,,,,,18,0,12,,,,13,,67,0
27162,note_off,,,,,42,0,8,,,,7,,70,0
27162,note_off,,,,,42,0,5,,,,4,,65,0
27162,note_off,,,,,42,0,3,,,,2,,70,0
27162,note_off,,,,,42,0,4,,,,3,,67,0
27162,note_off,,,,,0,0,12,,,,13,,77,0
27165,note_off,,,,,3,0,12,,,,13,,43,0
27165,note_off,,,,,21,0,10,,,,11,,43,0
27165,note_off,,,,,21,0,6,,,,5,,43,0
27165,note_off,,,,,21,0,7,,,,6,,70,0
27165,note_off,,,,,21,0,11,,,,12,,31,0
27168,note_on,,,,,6,0,3,,,,2,,70,62
27168,note_on,,,,,3,0,12,,,,13,,67,49
27168,note_on,,,,,0,0,12,,,,13,,76,49
27168,note_on,,,,,0,0,12,,,,13,,48,49
27168,note_on,,,,,6,0,8,,,,7,,70,75
27168,note_on,,,,,3,0,10,,,,11,,48,49
27168,note_on,,,,,6,0,4,,,,3,,67,62
27168,note_on,,,,,6,0,5,,,,4,,64,62
27168,note_on,,,,,3,0,7,,,,6,,76,127
27168,note_on,,,,,3,0,6,,,,5,,48,62
27168,note_on,,,,,3,0,11,,,,12,,36,49
27189,note_off,,,,,21,0,7,,,,6,,76,0
27189,note_off,,,,,21,0,8,,,,7,,70,0
27189,note_off,,,,,21,0,3,,,,2,,70,0
27192,note_on,,,,,3,0,7,,,,6,,77,127
27192,note_on,,,,,3,0,3,,,,2,,69,62
27192,note_on,,,,,3,0,8,,,,7,,69,75
27210,note_off,,,,,42,0,6,,,,5,,48,0
27210,note_off,,,,,42,0,5,,,,4,,64,0
27210,note_off,,,,,42,0,11,,,,12,,36,0
27210,note_off,,,,,42,0,10,,,,11,,48,0
27210,note_off,,,,,42,0,4,,,,3,,67,0
27210,note_off,,,,,42,0,12,,,,13,,67,0
27210,note_off,,,,,0,0,12,,,,13,,76,0
27210,note_off,,,,,0,0,12,,,,13,,48,0
27213,note_off,,,,,21,0,3,,,,2,,69,0
27213,note_off,,,,,21,0,8,,,,7,,69,0
27213,note_off,,,,,21,0,7,,,,6,,77,0
27216,note_on,,,,,3,0,7,,,,6,,76,127
27216,note_on,,,,,6,0,11,,,,12,,36,49
27216,note_on,,,,,3,0,8,,,,7,,67,75
27216,note_on,,,,,870,0,2,,,,1,,60,127
27216,note_on,,,,,150,0,9,,,,8,,64,75
27216,note_on,,,,,3,0,3,,,,2,,67,62
27216,note_on,,,,,6,0,10,,,,11,,48,49
27216,note_on,,,,,6,0,5,,,,4,,64,62
27216,note_on,,,,,6,0,4,,,,3,,67,62
27216,note_on,,,,,870,0,1,,,,0,,60,127
27216,note_on,,,,,6,0,6,,,,5,,48,62
27216,note_on,,,,,150,0,13,,,,14,,60,75
27216,note_on,,,,,6,0,12,,,,13,,67,49
27216,note_on,,,,,0,0,12,,,,13,,76,49
27216,note_on,,,,,0,0,12,,,,13,,48,49
27237,note_off,,,,,21,0,8,,,,7,,67,0
27237,note_off,,,,,21,0,3,,,,2,,67,0
27237,note_off,,,,,21,0,7,,,,6,,76,0
27240,note_on,,,,,3,0,7,,,,6,,74,127
27240,note_on,,,,,3,0,8,,,,7,,65,75
27240,note_on,,,,,3,0,3,,,,2,,65,62
27258,note_off,,,,,42,0,11,,,,12,,36,0
27258,note_off,,,,,42,0,9,,,,8,,64,0
27258,note_off,,,,,42,0,13,,,,14,,60,0
27258,note_off,,,,,42,0,1,,,,0,,60,0
27258,note_off,,,,,42,0,6,,,,5,,48,0
27258,note_off,,,,,0,0,12,,,,13,,76,0
27258,note_off,,,,,0,0,12,,,,13,,48,0
27258,note_off,,,,,42,0,10,,,,11,,48,0
27258,note_off,,,,,42,0,4,,,,3,,67,0
27258,note_off,,,,,42,0,5,,,,4,,64,0
27258,note_off,,,,,42,0,12,,,,13,,67,0
27258,note_off,,,,,42,0,2,,,,1,,60,0
27261,note_off,,,,,21,0,3,,,,2,,65,0
27261,note_off,,,,,21,0,8,,,,7,,65,0
27261,note_off,,,,,21,0,7,,,,6,,74,0
27264,note_on,,,,,6,0,5,,,,4,,64,62
27264,note_on,,,,,6,0,11,,,,12,,36,49
27264,note_on,,,,,6,0,12,,,,13,,67,49
27264,note_on,,,,,0,0,12,,,,13,,76,49
27264,note_on,,,,,0,0,12,,,,13,,48,49
27264,note_on,,,,,3,0,8,,,,7,,67,75
27264,note_on,,,,,6,0,1,,,,0,,60,127
27264,note_on,,,,,6,0,9,,,,8,,64,75
27264,note_on,,,,,3,0,7,,,,6,,76,127
27264,note_on,,,,,6,0,13,,,,14,,60,75
27264,note_on,,,,,6,0,4,,,,3,,67,62
27264,note_on,,,,,6,0,10,,,,11,,48,49
27264,note_on,,,,,6,0,2,,,,1,,60,127
27264,note_on,,,,,6,0,6,,,,5,,48,62
27264,note_on,,,,,3,0,3,,,,2,,67,62
27285,note_off,,,,,21,0,7,,,,6,,76,0
27285,note_off,,,,,21,0,3,,,,2,,67,0
27285,note_off,,,,,21,0,8,,,,7,,67,0
27288,note_on,,,,,3,0,7,,,,6,,72,127
27288,note_on,,,,,3,0,3,,,,2,,64,62
27288,note_on,,,,,3,0,8,,,,7,,64,75
27306,note_off,,,,,42,0,11,,,,12,,36,0
27306,note_off,,,,,42,0,5,,,,4,,64,0
27306,note_off,,,,,42,0,2,,,,1,,60,0
27306,note_off,,,,,42,0,12,,,,13,,67,0
27306,note_off,,,,,0,0,12,,,,13,,76,0
27306,note_off,,,,,0,0,12,,,,13,,48,0
27306,note_off,,,,,42,0,10,,,,11,,48,0
27306,note_off,,,,,42,0,13,,,,14,,60,0
27306,note_off,,,,,42,0,6,,,,5,,48,0
27306,note_off,,,,,42,0,1,,,,0,,60,0
27306,note_off,,,,,42,0,9,,,,8,,64,0
27306,note_off,,,,,42,0,4,,,,3,,67,0
27309,note_off,,,,,21,0,8,,,,7,,64,0
27309,note_off,,,,,21,0,3,,,,2,,64,0
27309,note_off,,,,,21,0,7,,,,6,,72,0
27312,note_on,,,,,6,0,12,,,,13,,69,49
27312,note_on,,,,,0,0,12,,,,13,,77,49
27312,note_on,,,,,0,0,12,,,,13,,48,49
27312,note_on,,,,,6,0,11,,,,12,,36,49
27312,note_on,,,,,6,0,9,,,,8,,65,75
27312,note_on,,,,,6,0,10,,,,11,,48,49
27312,note_on,,,,,6,0,1,,,,0,,60,127
27312,note_on,,,,,3,0,3,,,,2,,69,62
27312,note_on,,,,,3,0,8,,,,7,,69,75
27312,note_on,,,,,6,0,6,,,,5,,48,62
27312,note_on,,,,,6,0,5,,,,4,,60,62
27312,note_on,,,,,6,0,2,,,,1,,60,127
27312,note_on,,,,,6,0,4,,,,3,,65,62
27312,note_on,,,,,3,0,7,,,,6,,77,127
27312,note_on,,,,,6,0,13,,,,14,,60,75
27333,note_off,,,,,21,0,7,,,,6,,77,0
27336,note_on,,,,,3,0,7,,,,6,,76,127
27354,note_off,,,,,42,0,3,,,,2,,69,0
27354,note_off,,,,,42,0,9,,,,8,,65,0
27354,note_off,,,,,0,0,12,,,,13,,48,0
27354,note_off,,,,,0,0,12,,,,13,,77,0
27354,note_off,,,,,42,0,12,,,,13,,69,0
27354,note_off,,,,,42,0,1,,,,0,,60,0
27354,note_off,,,,,42,0,8,,,,7,,69,0
27354,note_off,,,,,42,0,10,,,,11,,48,0
27354,note_off,,,,,42,0,4,,,,3,,65,0
27354,note_off,,,,,42,0,2,,,,1,,60,0
27354,note_off,,,,,42,0,5,,,,4,,60,0
27354,note_off,,,,,42,0,11,,,,12,,36,0
27354,note_off,,,,,42,0,13,,,,14,,60,0
27354,note_off,,,,,42,0,6,,,,5,,48,0
27357,note_off,,,,,21,0,7,,,,6,,76,0
27360,note_on,,,,,6,0,9,,,,8,,65,75
27360,note_on,,,,,6,0,6,,,,5,,48,62
27360,note_on,,,,,6,0,5,,,,4,,60,62
27360,note_on,,,,,3,0,7,,,,6,,77,127
27360,note_on,,,,,0,0,12,,,,13,,48,49
27360,note_on,,,,,0,0,12,,,,13,,77,49
27360,note_on,,,,,6,0,1,,,,0,,60,127
27360,note_on,,,,,6,0,2,,,,1,,60,127
27360,note_on,,,,,6,0,8,,,,7,,69,75
27360,note_on,,,,,6,0,13,,,,14,,60,75
27360,note_on,,,,,6,0,4,,,,3,,65,62
27360,note_on,,,,,6,0,11,,,,12,,36,49
27360,note_on,,,,,6,0,3,,,,2,,69,62
27360,note_on,,,,,6,0,10,,,,11,,48,49
27360,note_on,,,,,6,0,12,,,,13,,69,49
27381,note_off,,,,,21,0,7,,,,6,,77,0
27384,note_on,,,,,3,0,7,,,,6,,79,127
27402,note_off,,,,,42,0,13,,,,14,,60,0
27402,note_off,,,,,42,0,4,,,,3,,65,0
27402,note_off,,,,,42,0,11,,,,12,,36,0
27402,note_off,,,,,42,0,10,,,,11,,48,0
27402,note_off,,,,,42,0,5,,,,4,,60,0
27402,note_off,,,,,42,0,6,,,,5,,48,0
27402,note_off,,,,,42,0,12,,,,13,,69,0
27402,note_off,,,,,0,0,12,,,,13,,77,0
27402,note_off,,,,,42,0,2,,,,1,,60,0
27402,note_off,,,,,42,0,1,,,,0,,60,0
27402,note_off,,,,,42,0,8,,,,7,,69,0
27402,note_off,,,,,42,0,3,,,,2,,69,0
27402,note_off,,,,,0,0,12,,,,13,,48,0
27402,note_off,,,,,42,0,9,,,,8,,65,0
27405,note_off,,,,,21,0,7,,,,6,,79,0
27408,note_on,,,,,6,0,11,,,,12,,36,49
27408,note_on,,,,,6,0,5,,,,4,,60,62
27408,note_on,,,,,6,0,1,,,,0,,60,127
27408,note_on,,,,,6,0,6,,,,5,,48,62
27408,note_on,,,,,3,0,7,,,,6,,81,127
27408,note_on,,,,,6,0,4,,,,3,,65,62
27408,note_on,,,,,6,0,13,,,,14,,60,75
27408,note_on,,,,,6,0,8,,,,7,,69,75
27408,note_on,,,,,6,0,3,,,,2,,69,62
27408,note_on,,,,,0,0,12,,,,13,,48,49
27408,note_on,,,,,6,0,10,,,,11,,48,49
27408,note_on,,,,,6,0,12,,,,13,,69,49
27408,note_on,,,,,0,0,12,,,,13,,77,49
27408,note_on,,,,,6,0,2,,,,1,,60,127
27408,note_on,,,,,6,0,9,,,,8,,65,75
27429,note_off,,,,,21,0,7,,,,6,,81,0
27432,note_on,,,,,3,0,7,,,,6,,77,127
27450,note_off,,,,,42,0,4,,,,3,,65,0
27450,note_off,,,,,42,0,3,,,,2,,69,0
27450,note_off,,,,,42,0,8,,,,7,,69,0
27450,note_off,,,,,42,0,2,,,,1,,60,0
27450,note_off,,,,,42,0,5,,,,4,,60,0
27450,note_off,,,,,42,0,9,,,,8,,65,0
27450,note_off,,,,,42,0,13,,,,14,,60,0
27450,note_off,,,,,42,0,1,,,,0,,60,0
27450,note_off,,,,,42,0,11,,,,12,,36,0
27450,note_off,,,,,42,0,12,,,,13,,69,0
27450,note_off,,,,,0,0,12,,,,13,,77,0
27450,note_off,,,,,0,0,12,,,,13,,48,0
27450,note_off,,,,,42,0,10,,,,11,,48,0
27450,note_off,,,,,42,0,6,,,,5,,48,0
27453,note_off,,,,,21,0,7,,,,6,,77,0
27456,note_on,,,,,6,0,13,,,,14,,62,75
27456,note_on,,,,,6,0,2,,,,1,,60,127
27456,note_on,,,,,6,0,8,,,,7,,69,75
27456,note_on,,,,,6,0,1,,,,0,,60,127
27456,note_on,,,,,6,0,4,,,,3,,65,62
27456,note_on,,,,,6,0,5,,,,4,,62,62
27456,note_on,,,,,3,0,7,,,,6,,82,127
27456,note_on,,,,,0,0,12,,,,13,,48,49
27456,note_on,,,,,6,0,3,,,,2,,69,62
27456,note_on,,,,,6,0,9,,,,8,,65,75
27456,note_on,,,,,6,0,12,,,,13,,69,49
27456,note_on,,,,,0,0,12,,,,13,,77,49
27456,note_on,,,,,6,0,11,,,,12,,36,49
27456,note_on,,,,,6,0,6,,,,5,,48,62
27456,note_on,,,,,6,0,10,,,,11,,48,49
27477,note_off,,,,,21,0,8,,,,7,,69,0
27477,note_off,,,,,21,0,3,,,,2,,69,0
27480,note_on,,,,,3,0,8,,,,7,,70,75
27480,note_on,,,,,3,0,3,,,,2,,70,62
27498,note_off,,,,,42,0,2,,,,1,,60,0
27498,note_off,,,,,42,0,1,,,,0,,60,0
27498,note_off,,,,,42,0,4,,,,3,,65,0
27498,note_off,,,,,42,0,7,,,,6,,82,0
27498,note_off,,,,,42,0,11,,,,12,,36,0
27498,note_off,,,,,42,0,6,,,,5,,48,0
27498,note_off,,,,,42,0,5,,,,4,,62,0
27498,note_off,,,,,42,0,13,,,,14,,62,0
27498,note_off,,,,,0,0,12,,,,13,,48,0
27498,note_off,,,,,0,0,12,,,,13,,77,0
27498,note_off,,,,,42,0,12,,,,13,,69,0
27498,note_off,,,,,42,0,10,,,,11,,48,0
27498,note_off,,,,,42,0,9,,,,8,,65,0
27501,note_off,,,,,21,0,3,,,,2,,70,0
27501,note_off,,,,,21,0,8,,,,7,,70,0
27504,note_on,,,,,6,0,4,,,,3,,65,62
27504,note_on,,,,,6,0,2,,,,1,,60,127
27504,note_on,,,,,3,0,8,,,,7,,69,75
27504,note_on,,,,,6,0,12,,,,13,,69,49
27504,note_on,,,,,0,0,12,,,,13,,77,49
27504,note_on,,,,,0,0,12,,,,13,,48,49
27504,note_on,,,,,6,0,13,,,,14,,62,75
27504,note_on,,,,,6,0,7,,,,6,,82,127
27504,note_on,,,,,3,0,3,,,,2,,69,62
27504,note_on,,,,,6,0,1,,,,0,,60,127
27504,note_on,,,,,6,0,10,,,,11,,48,49
27504,note_on,,,,,6,0,5,,,,4,,62,62
27504,note_on,,,,,6,0,11,,,,12,,36,49
27504,note_on,,,,,6,0,9,,,,8,,65,75
27504,note_on,,,,,6,0,6,,,,5,,48,62
27525,note_off,,,,,21,0,3,,,,2,,69,0
27525,note_off,,,,,21,0,8,,,,7,,69,0
27528,note_on,,,,,3,0,8,,,,7,,67,75
27528,note_on,,,,,3,0,3,,,,2,,67,62
27546,note_off,,,,,42,0,4,,,,3,,65,0
27546,note_off,,,,,42,0,7,,,,6,,82,0
27546,note_off,,,,,42,0,10,,,,11,,48,0
27546,note_off,,,,,42,0,12,,,,13,,69,0
27546,note_off,,,,,0,0,12,,,,13,,48,0
27546,note_off,,,,,42,0,5,,,,4,,62,0
27546,note_off,,,,,42,0,1,,,,0,,60,0
27546,note_off,,,,,0,0,12,,,,13,,77,0
27546,note_off,,,,,42,0,9,,,,8,,65,0
27546,note_off,,,,,42,0,2,,,,1,,60,0
27546,note_off,,,,,42,0,11,,,,12,,36,0
27546,note_off,,,,,42,0,6,,,,5,,48,0
27546,note_off,,,,,42,0,13,,,,14,,62,0
27549,note_off,,,,,21,0,3,,,,2,,67,0
27549,note_off,,,,,21,0,8,,,,7,,67,0
27552,note_on,,,,,6,0,10,,,,11,,48,49
27552,note_on,,,,,6,0,5,,,,4,,62,62
27552,note_on,,,,,6,0,11,,,,12,,36,49
27552,note_on,,,,,6,0,4,,,,3,,65,62
27552,note_on,,,,,0,0,12,,,,13,,48,49
27552,note_on,,,,,0,0,12,,,,13,,77,49
27552,note_on,,,,,6,0,12,,,,13,,69,49
27552,note_on,,,,,6,0,9,,,,8,,65,75
27552,note_on,,,,,6,0,7,,,,6,,82,127
27552,note_on,,,,,6,0,13,,,,14,,62,75
27552,note_on,,,,,6,0,6,,,,5,,48,62
27552,note_on,,,,,3,0,3,,,,2,,69,62
27552,note_on,,,,,6,0,2,,,,1,,60,127
27552,note_on,,,,,6,0,1,,,,0,,60,127
27552,note_on,,,,,3,0,8,,,,7,,69,75
27573,note_off,,,,,21,0,3,,,,2,,69,0
27573,note_off,,,,,21,0,8,,,,7,,69,0
27576,note_on,,,,,3,0,8,,,,7,,65,75
27576,note_on,,,,,3,0,3,,,,2,,65,62
27594,note_off,,,,,42,0,13,,,,14,,62,0
27594,note_off,,,,,42,0,4,,,,3,,65,0
27594,note_off,,,,,42,0,11,,,,12,,36,0
27594,note_off,,,,,42,0,10,,,,11,,48,0
27594,note_off,,,,,42,0,5,,,,4,,62,0
27594,note_off,,,,,42,0,9,,,,8,,65,0
27594,note_off,,,,,42,0,1,,,,0,,60,0
27594,note_off,,,,,0,0,12,,,,13,,48,0
27594,note_off,,,,,42,0,7,,,,6,,82,0
27594,note_off,,,,,42,0,6,,,,5,,48,0
27594,note_off,,,,,42,0,2,,,,1,,60,0
27594,note_off,,,,,42,0,12,,,,13,,69,0
27594,note_off,,,,,0,0,12,,,,13,,77,0
27597,note_off,,,,,21,0,3,,,,2,,65,0
27597,note_off,,,,,21,0,8,,,,7,,65,0
27600,note_on,,,,,3,0,3,,,,2,,67,62
27600,note_on,,,,,6,0,2,,,,1,,60,127
27600,note_on,,,,,6,0,13,,,,14,,55,75
27600,note_on,,,,,6,0,4,,,,3,,60,62
27600,note_on,,,,,6,0,11,,,,12,,36,49
27600,note_on,,,,,6,0,7,,,,6,,82,127
27600,note_on,,,,,6,0,12,,,,13,,67,49
27600,note_on,,,,,0,0,12,,,,13,,76,49
27600,note_on,,,,,0,0,12,,,,13,,48,49
27600,note_on,,,,,6,0,1,,,,0,,60,127
27600,note_on,,,,,6,0,10,,,,11,,48,49
27600,note_on,,,,,3,0,8,,,,7,,67,75
27600,note_on,,,,,6,0,9,,,,8,,64,75
27600,note_on,,,,,6,0,5,,,,4,,64,62
27600,note_on,,,,,6,0,6,,,,5,,48,62
27621,note_off,,,,,21,0,3,,,,2,,67,0
27621,note_off,,,,,21,0,8,,,,7,,67,0
27621,note_off,,,,,21,0,7,,,,6,,82,0
27624,note_on,,,,,3,0,3,,,,2,,69,62
27624,note_on,,,,,3,0,8,,,,7,,69,75
27624,note_on,,,,,3,0,7,,,,6,,84,127
27642,note_off,,,,,42,0,13,,,,14,,55,0
27642,note_off,,,,,42,0,9,,,,8,,64,0
27642,note_off,,,,,0,0,12,,,,13,,48,0
27642,note_off,,,,,42,0,5,,,,4,,64,0
27642,note_off,,,,,42,0,12,,,,13,,67,0
27642,note_off,,,,,0,0,12,,,,13,,76,0
27642,note_off,,,,,42,0,11,,,,12,,36,0
27642,note_off,,,,,42,0,2,,,,1,,60,0
27642,note_off,,,,,42,0,10,,,,11,,48,0
27642,note_off,,,,,42,0,4,,,,3,,60,0
27642,note_off,,,,,42,0,1,,,,0,,60,0
27642,note_off,,,,,42,0,6,,,,5,,48,0
27645,note_off,,,,,21,0,3,,,,2,,69,0
27645,note_off,,,,,21,0,8,,,,7,,69,0
27645,note_off,,,,,21,0,7,,,,6,,84,0
27648,note_on,,,,,6,0,5,,,,4,,64,62
27648,note_on,,,,,6,0,9,,,,8,,64,75
27648,note_on,,,,,3,0,8,,,,7,,67,75
27648,note_on,,,,,6,0,4,,,,3,,60,62
27648,note_on,,,,,6,0,11,,,,12,,36,49
27648,note_on,,,,,6,0,6,,,,5,,48,62
27648,note_on,,,,,6,0,12,,,,13,,67,49
27648,note_on,,,,,6,0,1,,,,0,,60,127
27648,note_on,,,,,6,0,10,,,,11,,48,49
27648,note_on,,,,,6,0,2,,,,1,,60,127
27648,note_on,,,,,3,0,3,,,,2,,67,62
27648,note_on,,,,,3,0,7,,,,6,,82,127
27648,note_on,,,,,0,0,12,,,,13,,76,49
27648,note_on,,,,,0,0,12,,,,13,,48,49
27648,note_on,,,,,6,0,13,,,,14,,55,75
27669,note_off,,,,,21,0,3,,,,2,,67,0
27669,note_off,,,,,21,0,8,,,,7,,67,0
27669,note_off,,,,,21,0,7,,,,6,,82,0
27672,note_on,,,,,3,0,3,,,,2,,65,62
27672,note_on,,,,,3,0,7,,,,6,,81,127
27672,note_on,,,,,3,0,8,,,,7,,65,75
27690,note_off,,,,,42,0,13,,,,14,,55,0
27690,note_off,,,,,42,0,9,,,,8,,64,0
27690,note_off,,,,,42,0,5,,,,4,,64,0
27690,note_off,,,,,42,0,4,,,,3,,60,0
27690,note_off,,,,,42,0,12,,,,13,,67,0
27690,note_off,,,,,0,0,12,,,,13,,48,0
27690,note_off,,,,,0,0,12,,,,13,,76,0
27690,note_off,,,,,42,0,11,,,,12,,36,0
27690,note_off,,,,,42,0,1,,,,0,,60,0
27690,note_off,,,,,42,0,10,,,,11,,48,0
27690,note_off,,,,,42,0,2,,,,1,,60,0
27690,note_off,,,,,42,0,6,,,,5,,48,0
27693,note_off,,,,,21,0,3,,,,2,,65,0
27693,note_off,,,,,21,0,7,,,,6,,81,0
27693,note_off,,,,,21,0,8,,,,7,,65,0
27696,note_on,,,,,6,0,12,,,,13,,67,49
27696,note_on,,,,,6,0,1,,,,0,,60,127
27696,note_on,,,,,6,0,2,,,,1,,60,127
27696,note_on,,,,,6,0,6,,,,5,,48,62
27696,note_on,,,,,3,0,3,,,,2,,67,62
27696,note_on,,,,,6,0,9,,,,8,,64,75
27696,note_on,,,,,0,0,12,,,,13,,76,49
27696,note_on,,,,,3,0,8,,,,7,,67,75
27696,note_on,,,,,3,0,7,,,,6,,82,127
27696,note_on,,,,,0,0,12,,,,13,,48,49
27696,note_on,,,,,6,0,5,,,,4,,60,62
27696,note_on,,,,,6,0,11,,,,12,,36,49
27696,note_on,,,,,6,0,4,,,,3,,60,62
27696,note_on,,,,,6,0,13,,,,14,,55,75
27696,note_on,,,,,6,0,10,,,,11,,48,49
27717,note_off,,,,,21,0,7,,,,6,,82,0
27717,note_off,,,,,21,0,3,,,,2,,67,0
27717,note_off,,,,,21,0,8,,,,7,,67,0
27720,note_on,,,,,3,0,7,,,,6,,79,127
27720,note_on,,,,,3,0,8,,,,7,,64,75
27720,note_on,,,,,3,0,3,,,,2,,64,62
27738,note_off,,,,,42,0,10,,,,11,,48,0
27738,note_off,,,,,0,0,12,,,,13,,48,0
27738,note_off,,,,,0,0,12,,,,13,,76,0
27738,note_off,,,,,42,0,12,,,,13,,67,0
27738,note_off,,,,,42,0,9,,,,8,,64,0
27738,note_off,,,,,42,0,1,,,,0,,60,0
27738,note_off,,,,,42,0,13,,,,14,,55,0
27738,note_off,,,,,42,0,11,,,,12,,36,0
27738,note_off,,,,,42,0,5,,,,4,,60,0
27738,note_off,,,,,42,0,2,,,,1,,60,0
27738,note_off,,,,,42,0,4,,,,3,,60,0
27738,note_off,,,,,42,0,6,,,,5,,48,0
27741,note_off,,,,,21,0,7,,,,6,,79,0
27741,note_off,,,,,21,0,3,,,,2,,64,0
27741,note_off,,,,,21,0,8,,,,7,,64,0
27744,note_on,,,,,6,0,6,,,,5,,48,62
27744,note_on,,,,,0,0,12,,,,13,,77,49
27744,note_on,,,,,6,0,4,,,,3,,60,62
27744,note_on,,,,,0,0,12,,,,13,,48,49
27744,note_on,,,,,6,0,11,,,,12,,36,49
27744,note_on,,,,,6,0,5,,,,4,,65,62
27744,note_on,,,,,3,0,7,,,,6,,81,127
27744,note_on,,,,,6,0,10,,,,11,,48,49
27744,note_on,,,,,6,0,12,,,,13,,69,49
27744,note_on,,,,,6,0,9,,,,8,,69,75
27744,note_on,,,,,3,0,3,,,,2,,65,62
27744,note_on,,,,,6,0,13,,,,14,,60,75
27744,note_on,,,,,3,0,8,,,,7,,65,75
27744,note_on,,,,,6,0,2,,,,1,,60,127
27744,note_on,,,,,6,0,1,,,,0,,60,127
27765,note_off,,,,,21,0,7,,,,6,,81,0
27765,note_off,,,,,21,0,3,,,,2,,65,0
27765,note_off,,,,,21,0,8,,,,7,,65,0
27768,note_on,,,,,3,0,7,,,,6,,79,127
27768,note_on,,,,,3,0,8,,,,7,,67,75
27768,note_on,,,,,3,0,3,,,,2,,67,62
27786,note_off,,,,,42,0,12,,,,13,,69,0
27786,note_off,,,,,0,0,12,,,,13,,77,0
27786,note_off,,,,,0,0,12,,,,13,,48,0
27786,note_off,,,,,42,0,4,,,,3,,60,0
27786,note_off,,,,,42,0,5,,,,4,,65,0
27786,note_off,,,,,42,0,11,,,,12,,36,0
27786,note_off,,,,,42,0,9,,,,8,,69,0
27786,note_off,,,,,42,0,10,,,,11,,48,0
27786,note_off,,,,,42,0,6,,,,5,,48,0
27786,note_off,,,,,42,0,13,,,,14,,60,0
27786,note_off,,,,,42,0,1,,,,0,,60,0
27786,note_off,,,,,42,0,2,,,,1,,60,0
27789,note_off,,,,,21,0,8,,,,7,,67,0
27789,note_off,,,,,21,0,7,,,,6,,79,0
27789,note_off,,,,,21,0,3,,,,2,,67,0
27792,note_on,,,,,6,0,1,,,,0,,60,127
27792,note_on,,,,,6,0,9,,,,8,,69,75
27792,note_on,,,,,6,0,10,,,,11,,48,49
27792,note_on,,,,,6,0,2,,,,1,,60,127
27792,note_on,,,,,3,0,7,,,,6,,81,127
27792,note_on,,,,,6,0,13,,,,14,,60,75
27792,note_on,,,,,3,0,3,,,,2,,65,62
27792,note_on,,,,,6,0,6,,,,5,,48,62
27792,note_on,,,,,3,0,8,,,,7,,65,75
27792,note_on,,,,,6,0,5,,,,4,,65,62
27792,note_on,,,,,6,0,4,,,,3,,60,62
27792,note_on,,,,,6,0,12,,,,13,,69,49
27792,note_on,,,,,0,0,12,,,,13,,77,49
27792,note_on,,,,,0,0,12,,,,13,,48,49
27792,note_on,,,,,6,0,11,,,,12,,36,49
27813,note_off,,,,,21,0,8,,,,7,,65,0
27813,note_off,,,,,21,0,3,,,,2,,65,0
27813,note_off,,,,,21,0,7,,,,6,,81,0
27816,note_on,,,,,3,0,8,,,,7,,64,75
27816,note_on,,,,,3,0,7,,,,6,,84,127
27816,note_on,,,,,3,0,3,,,,2,,64,62
27834,note_off,,,,,42,0,1,,,,0,,60,0
27834,note_off,,,,,42,0,10,,,,11,,48,0
27834,note_off,,,,,42,0,6,,,,5,,48,0
27834,note_off,,,,,42,0,9,,,,8,,69,0
27834,note_off,,,,,42,0,12,,,,13,,69,0
27834,note_off,,,,,42,0,11,,,,12,,36,0
27834,note_off,,,,,42,0,5,,,,4,,65,0
27834,note_off,,,,,0,0,12,,,,13,,48,0
27834,note_off,,,,,42,0,2,,,,1,,60,0
27834,note_off,,,,,0,0,12,,,,13,,77,0
27834,note_off,,,,,42,0,13,,,,14,,60,0
27834,note_off,,,,,42,0,4,,,,3,,60,0
27837,note_off,,,,,21,0,8,,,,7,,64,0
27837,note_off,,,,,21,0,7,,,,6,,84,0
27837,note_off,,,,,21,0,3,,,,2,,64,0
27840,note_on,,,,,6,0,13,,,,14,,62,75
27840,note_on,,,,,6,0,1,,,,0,,60,127
27840,note_on,,,,,3,0,3,,,,2,,65,62
27840,note_on,,,,,6,0,5,,,,4,,65,62
27840,note_on,,,,,3,0,8,,,,7,,65,75
27840,note_on,,,,,6,0,10,,,,11,,48,49
27840,note_on,,,,,6,0,4,,,,3,,62,62
27840,note_on,,,,,6,0,6,,,,5,,48,62
27840,note_on,,,,,3,0,7,,,,6,,83,127
27840,note_on,,,,,6,0,12,,,,13,,69,49
27840,note_on,,,,,6,0,9,,,,8,,65,75
27840,note_on,,,,,0,0,12,,,,13,,77,49
27840,note_on,,,,,0,0,12,,,,13,,48,49
27840,note_on,,,,,6,0,2,,,,1,,60,127
27840,note_on,,,,,6,0,11,,,,12,,36,49
27861,note_off,,,,,21,0,3,,,,2,,65,0
27861,note_off,,,,,21,0,7,,,,6,,83,0
27861,note_off,,,,,21,0,8,,,,7,,65,0
27864,note_on,,,,,3,0,3,,,,2,,62,62
27864,note_on,,,,,3,0,7,,,,6,,86,127
27864,note_on,,,,,3,0,8,,,,7,,62,75
27882,note_off,,,,,42,0,10,,,,11,,48,0
27882,note_off,,,,,0,0,12,,,,13,,48,0
27882,note_off,,,,,0,0,12,,,,13,,77,0
27882,note_off,,,,,42,0,11,,,,12,,36,0
27882,note_off,,,,,42,0,12,,,,13,,69,0
27882,note_off,,,,,42,0,1,,,,0,,60,0
27882,note_off,,,,,42,0,4,,,,3,,62,0
27882,note_off,,,,,42,0,6,,,,5,,48,0
27882,note_off,,,,,42,0,2,,,,1,,60,0
27882,note_off,,,,,42,0,9,,,,8,,65,0
27882,note_off,,,,,42,0,13,,,,14,,62,0
27882,note_off,,,,,42,0,5,,,,4,,65,0
27885,note_off,,,,,21,0,3,,,,2,,62,0
27885,note_off,,,,,21,0,7,,,,6,,86,0
27885,note_off,,,,,21,0,8,,,,7,,62,0
27888,note_on,,,,,6,0,13,,,,14,,55,75
27888,note_on,,,,,6,0,2,,,,1,,60,127
27888,note_on,,,,,0,0,12,,,,13,,79,49
27888,note_on,,,,,0,0,12,,,,13,,48,49
27888,note_on,,,,,6,0,10,,,,11,,48,49
27888,note_on,,,,,6,0,4,,,,3,,60,62
27888,note_on,,,,,3,0,7,,,,6,,84,127
27888,note_on,,,,,3,0,3,,,,2,,64,62
27888,note_on,,,,,6,0,12,,,,13,,64,49
27888,note_on,,,,,6,0,1,,,,0,,60,127
27888,note_on,,,,,6,0,11,,,,12,,36,49
27888,note_on,,,,,6,0,6,,,,5,,48,62
27888,note_on,,,,,3,0,8,,,,7,,64,75
27888,note_on,,,,,6,0,5,,,,4,,67,62
27888,note_on,,,,,6,0,9,,,,8,,67,75
27909,note_off,,,,,21,0,10,,,,11,,48,0
27909,note_off,,,,,21,0,12,,,,13,,48,0
27909,note_off,,,,,21,0,11,,,,12,,36,0
27912,note_on,,,,,3,0,11,,,,12,,34,49
27912,note_on,,,,,3,0,10,,,,11,,46,49
27912,note_on,,,,,3,0,12,,,,13,,46,49
27930,note_off,,,,,42,0,7,,,,6,,84,0
27930,note_off,,,,,42,0,1,,,,0,,60,0
27930,note_off,,,,,42,0,2,,,,1,,60,0
27930,note_off,,,,,42,0,8,,,,7,,64,0
27930,note_off,,,,,42,0,3,,,,2,,64,0
27933,note_off,,,,,21,0,11,,,,12,,34,0
27933,note_off,,,,,21,0,12,,,,13,,46,0
27933,note_off,,,,,21,0,10,,,,11,,46,0
27936,note_on,,,,,3,0,11,,,,12,,36,49
27936,note_on,,,,,3,0,12,,,,13,,48,49
27936,note_on,,,,,3,0,10,,,,11,,48,49
27936,note_on,,,,,6,0,8,,,,7,,60,75
27936,note_on,,,,,6,0,7,,,,6,,72,127
27936,note_on,,,,,0,0,7,,,,6,,72,127
27936,note_on,,,,,6,0,3,,,,2,,60,62
27957,note_off,,,,,21,0,12,,,,13,,48,0
27957,note_off,,,,,21,0,11,,,,12,,36,0
27957,note_off,,,,,21,0,10,,,,11,,48,0
27960,note_on,,,,,3,0,11,,,,12,,38,49
27960,note_on,,,,,3,0,12,,,,13,,50,49
27960,note_on,,,,,3,0,10,,,,11,,50,49
27972,note_off,,,,,84,0,4,,,,3,,60,0
27972,note_off,,,,,12,0,12,,,,13,,64,0
27972,note_off,,,,,84,0,9,,,,8,,67,0
27972,note_off,,,,,0,0,12,,,,13,,79,0
27972,note_off,,,,,84,0,6,,,,5,,48,0
27972,note_off,,,,,84,0,13,,,,14,,55,0
27972,note_off,,,,,84,0,5,,,,4,,67,0
27978,note_off,,,,,42,0,3,,,,2,,60,0
27978,note_off,,,,,0,0,7,,,,6,,72,0
27978,note_off,,,,,42,0,7,,,,6,,72,0
27978,note_off,,,,,42,0,8,,,,7,,60,0
27981,note_off,,,,,21,0,11,,,,12,,38,0
27981,note_off,,,,,9,0,12,,,,13,,50,0
27981,note_off,,,,,21,0,10,,,,11,,50,0
27984,note_on,,,,,0,0,7,,,,6,,72,127
27984,note_on,,,,,3,0,11,,,,12,,36,49
27984,note_on,,,,,3,0,12,,,,13,,48,49
27984,note_on,,,,,3,0,10,,,,11,,48,49
27984,note_on,,,,,6,0,7,,,,6,,72,127
28005,note_off,,,,,21,0,11,,,,12,,36,0
28005,note_off,,,,,21,0,10,,,,11,,48,0
28005,note_off,,,,,21,0,12,,,,13,,48,0
28008,note_on,,,,,3,0,12,,,,13,,46,49
28008,note_on,,,,,3,0,10,,,,11,,46,49
28008,note_on,,,,,3,0,11,,,,12,,34,49
28026,note_off,,,,,0,0,7,,,,6,,72,0
28026,note_off,,,,,42,0,7,,,,6,,72,0
28029,note_off,,,,,21,0,10,,,,11,,46,0
28029,note_off,,,,,21,0,11,,,,12,,34,0
28029,note_off,,,,,21,0,12,,,,13,,46,0
28032,note_on,,,,,3,0,10,,,,11,,45,49
28032,note_on,,,,,6,0,7,,,,6,,72,127
28032,note_on,,,,,0,0,7,,,,6,,72,127
28032,note_on,,,,,3,0,11,,,,12,,33,49
28032,note_on,,,,,3,0,12,,,,13,,45,49
28053,note_off,,,,,21,0,12,,,,13,,45,0
28053,note_off,,,,,21,0,10,,,,11,,45,0
28053,note_off,,,,,21,0,7,,,,6,,72,0
28053,note_off,,,,,0,0,7,,,,6,,72,0
28053,note_off,,,,,21,0,11,,,,12,,33,0
28056,note_on,,,,,3,0,11,,,,12,,34,49
28056,note_on,,,,,3,0,12,,,,13,,46,49
28056,note_on,,,,,3,0,10,,,,11,,46,49
28056,note_on,,,,,3,0,7,,,,6,,74,127
28077,note_off,,,,,21,0,11,,,,12,,34,0
28077,note_off,,,,,21,0,7,,,,6,,74,0
28077,note_off,,,,,21,0,12,,,,13,,46,0
28077,note_off,,,,,21,0,10,,,,11,,46,0
28080,note_on,,,,,3,0,7,,,,6,,72,127
28080,note_on,,,,,150,0,1,,,,0,,65,127
28080,note_on,,,,,3,0,11,,,,12,,33,49
28080,note_on,,,,,3,0,10,,,,11,,45,49
28080,note_on,,,,,3,0,12,,,,13,,45,49
28101,note_off,,,,,21,0,7,,,,6,,72,0
28101,note_off,,,,,21,0,12,,,,13,,45,0
28101,note_off,,,,,21,0,11,,,,12,,33,0
28101,note_off,,,,,21,0,10,,,,11,,45,0
28104,note_on,,,,,3,0,12,,,,13,,43,49
28104,note_on,,,,,3,0,7,,,,6,,70,127
28104,note_on,,,,,3,0,11,,,,12,,31,49
28104,note_on,,,,,3,0,10,,,,11,,43,49
28122,note_off,,,,,42,0,1,,,,0,,65,0
28125,note_off,,,,,21,0,7,,,,6,,70,0
28125,note_off,,,,,21,0,11,,,,12,,31,0
28125,note_off,,,,,21,0,12,,,,13,,43,0
28125,note_off,,,,,21,0,10,,,,11,,43,0
28128,note_on,,,,,3,0,12,,,,13,,45,49
28128,note_on,,,,,3,0,10,,,,11,,45,49
28128,note_on,,,,,3,0,7,,,,6,,72,127
28128,note_on,,,,,6,0,1,,,,0,,65,127
28128,note_on,,,,,3,0,11,,,,12,,33,49
28149,note_off,,,,,21,0,10,,,,11,,45,0
28149,note_off,,,,,21,0,12,,,,13,,45,0
28149,note_off,,,,,21,0,7,,,,6,,72,0
28149,note_off,,,,,21,0,11,,,,12,,33,0
28152,note_on,,,,,3,0,10,,,,11,,41,49
28152,note_on,,,,,3,0,7,,,,6,,69,127
28152,note_on,,,,,3,0,11,,,,12,,29,49
28152,note_on,,,,,3,0,12,,,,13,,41,49
28170,note_off,,,,,42,0,1,,,,0,,65,0
28173,note_off,,,,,21,0,7,,,,6,,69,0
28173,note_off,,,,,21,0,11,,,,12,,29,0
28173,note_off,,,,,21,0,12,,,,13,,41,0
28173,note_off,,,,,21,0,10,,,,11,,41,0
28176,note_on,,,,,6,0,1,,,,0,,65,127
28176,note_on,,,,,3,0,7,,,,6,,74,127
28176,note_on,,,,,3,0,11,,,,12,,34,49
28176,note_on,,,,,3,0,12,,,,13,,46,49
28176,note_on,,,,,3,0,10,,,,11,,46,49
28197,note_off,,,,,21,0,11,,,,12,,34,0
28197,note_off,,,,,21,0,12,,,,13,,46,0
28197,note_off,,,,,21,0,10,,,,11,,46,0
28200,note_on,,,,,3,0,10,,,,11,,48,49
28200,note_on,,,,,3,0,11,,,,12,,36,49
28200,note_on,,,,,3,0,12,,,,13,,48,49
28218,note_off,,,,,42,0,1,,,,0,,65,0
28218,note_off,,,,,42,0,7,,,,6,,74,0
28221,note_off,,,,,21,0,10,,,,11,,48,0
28221,note_off,,,,,21,0,11,,,,12,,36,0
28221,note_off,,,,,21,0,12,,,,13,,48,0
28224,note_on,,,,,6,0,7,,,,6,,74,127
28224,note_on,,,,,0,0,7,,,,6,,65,127
28224,note_on,,,,,6,0,1,,,,0,,70,127
28224,note_on,,,,,0,0,12,,,,13,,65,49
28224,note_on,,,,,3,0,12,,,,13,,58,49
28224,note_on,,,,,3,0,10,,,,11,,50,49
28224,note_on,,,,,0,0,7,,,,6,,58,127
28224,note_on,,,,,3,0,11,,,,12,,38,49
28224,note_on,,,,,0,0,12,,,,13,,50,49
28245,note_off,,,,,21,0,10,,,,11,,50,0
28245,note_off,,,,,21,0,11,,,,12,,38,0
28245,note_off,,,,,21,0,1,,,,0,,70,0
28245,note_off,,,,,21,0,12,,,,13,,50,0
28248,note_on,,,,,3,0,1,,,,0,,69,127
28248,note_on,,,,,3,0,11,,,,12,,36,49
28248,note_on,,,,,3,0,10,,,,11,,48,49
28248,note_on,,,,,3,0,12,,,,13,,48,49
28266,note_off,,,,,18,0,12,,,,13,,58,0
28266,note_off,,,,,0,0,12,,,,13,,65,0
28266,note_off,,,,,42,0,7,,,,6,,74,0
28266,note_off,,,,,0,0,7,,,,6,,58,0
28266,note_off,,,,,0,0,7,,,,6,,65,0
28269,note_off,,,,,3,0,12,,,,13,,48,0
28269,note_off,,,,,21,0,11,,,,12,,36,0
28269,note_off,,,,,21,0,10,,,,11,,48,0
28269,note_off,,,,,21,0,1,,,,0,,69,0
28272,note_on,,,,,3,0,1,,,,0,,70,127
28272,note_on,,,,,3,0,11,,,,12,,34,49
28272,note_on,,,,,6,0,7,,,,6,,74,127
28272,note_on,,,,,0,0,7,,,,6,,58,127
28272,note_on,,,,,0,0,7,,,,6,,65,127
28272,note_on,,,,,0,0,12,,,,13,,46,49
28272,note_on,,,,,0,0,12,,,,13,,65,49
28272,note_on,,,,,3,0,12,,,,13,,58,49
28272,note_on,,,,,3,0,10,,,,11,,46,49
28293,note_off,,,,,21,0,12,,,,13,,46,0
28293,note_off,,,,,21,0,1,,,,0,,70,0
28293,note_off,,,,,21,0,11,,,,12,,34,0
28293,note_off,,,,,21,0,10,,,,11,,46,0
28296,note_on,,,,,3,0,12,,,,13,,45,49
28296,note_on,,,,,3,0,10,,,,11,,45,49
28296,note_on,,,,,3,0,11,,,,12,,33,49
28296,note_on,,,,,3,0,1,,,,0,,65,127
28314,note_off,,,,,18,0,12,,,,13,,58,0
28314,note_off,,,,,0,0,7,,,,6,,65,0
28314,note_off,,,,,0,0,7,,,,6,,58,0
28314,note_off,,,,,42,0,7,,,,6,,74,0
28314,note_off,,,,,0,0,12,,,,13,,65,0
28317,note_off,,,,,21,0,1,,,,0,,65,0
28317,note_off,,,,,21,0,10,,,,11,,45,0
28317,note_off,,,,,21,0,11,,,,12,,33,0
28317,note_off,,,,,3,0,12,,,,13,,45,0
28320,note_on,,,,,3,0,1,,,,0,,67,127
28320,note_on,,,,,0,0,7,,,,6,,58,127
28320,note_on,,,,,0,0,7,,,,6,,67,127
28320,note_on,,,,,3,0,12,,,,13,,58,49
28320,note_on,,,,,3,0,11,,,,12,,31,49
28320,note_on,,,,,0,0,12,,,,13,,43,49
28320,note_on,,,,,6,0,7,,,,6,,74,127
28320,note_on,,,,,3,0,10,,,,11,,43,49
28320,note_on,,,,,0,0,12,,,,13,,67,49
28341,note_off,,,,,21,0,10,,,,11,,43,0
28341,note_off,,,,,21,0,11,,,,12,,31,0
28341,note_off,,,,,21,0,12,,,,13,,43,0
28344,note_on,,,,,3,0,10,,,,11,,45,49
28344,note_on,,,,,3,0,11,,,,12,,33,49
28344,note_on,,,,,3,0,12,,,,13,,45,49
28362,note_off,,,,,42,0,1,,,,0,,67,0
28362,note_off,,,,,0,0,12,,,,13,,67,0
28362,note_off,,,,,0,0,7,,,,6,,67,0
28362,note_off,,,,,0,0,7,,,,6,,58,0
28362,note_off,,,,,42,0,7,,,,6,,74,0
28362,note_off,,,,,18,0,12,,,,13,,58,0
28365,note_off,,,,,3,0,12,,,,13,,45,0
28365,note_off,,,,,21,0,10,,,,11,,45,0
28365,note_off,,,,,21,0,11,,,,12,,33,0
28368,note_on,,,,,3,0,10,,,,11,,46,49
28368,note_on,,,,,3,0,12,,,,13,,46,49
28368,note_on,,,,,6,0,7,,,,6,,79,127
28368,note_on,,,,,6,0,1,,,,0,,67,127
28368,note_on,,,,,3,0,11,,,,12,,34,49
28389,note_off,,,,,21,0,7,,,,6,,79,0
28389,note_off,,,,,21,0,11,,,,12,,34,0
28389,note_off,,,,,21,0,10,,,,11,,46,0
28389,note_off,,,,,21,0,12,,,,13,,46,0
28392,note_on,,,,,3,0,12,,,,13,,45,49
28392,note_on,,,,,3,0,7,,,,6,,77,127
28392,note_on,,,,,3,0,10,,,,11,,45,49
28392,note_on,,,,,3,0,11,,,,12,,33,49
28410,note_off,,,,,42,0,1,,,,0,,67,0
28413,note_off,,,,,21,0,7,,,,6,,77,0
28413,note_off,,,,,21,0,12,,,,13,,45,0
28413,note_off,,,,,21,0,11,,,,12,,33,0
28413,note_off,,,,,21,0,10,,,,11,,45,0
28416,note_on,,,,,3,0,11,,,,12,,34,49
28416,note_on,,,,,3,0,7,,,,6,,79,127
28416,note_on,,,,,3,0,10,,,,11,,46,49
28416,note_on,,,,,3,0,12,,,,13,,46,49
28416,note_on,,,,,6,0,1,,,,0,,67,127
28437,note_off,,,,,21,0,7,,,,6,,79,0
28437,note_off,,,,,21,0,11,,,,12,,34,0
28437,note_off,,,,,21,0,12,,,,13,,46,0
28437,note_off,,,,,21,0,10,,,,11,,46,0
28440,note_on,,,,,3,0,7,,,,6,,74,127
28440,note_on,,,,,3,0,12,,,,13,,43,49
28440,note_on,,,,,3,0,11,,,,12,,31,49
28440,note_on,,,,,3,0,10,,,,11,,43,49
28458,note_off,,,,,42,0,1,,,,0,,67,0
28461,note_off,,,,,21,0,12,,,,13,,43,0
28461,note_off,,,,,21,0,10,,,,11,,43,0
28461,note_off,,,,,21,0,7,,,,6,,74,0
28461,note_off,,,,,21,0,11,,,,12,,31,0
28464,note_on,,,,,3,0,10,,,,11,,48,49
28464,note_on,,,,,3,0,11,,,,12,,36,49
28464,note_on,,,,,6,0,1,,,,0,,67,127
28464,note_on,,,,,3,0,7,,,,6,,76,127
28464,note_on,,,,,3,0,12,,,,13,,48,49
28485,note_off,,,,,21,0,12,,,,13,,48,0
28485,note_off,,,,,21,0,11,,,,12,,36,0
28485,note_off,,,,,21,0,10,,,,11,,48,0
28488,note_on,,,,,3,0,10,,,,11,,50,49
28488,note_on,,,,,3,0,12,,,,13,,50,49
28488,note_on,,,,,3,0,11,,,,12,,38,49
28506,note_off,,,,,42,0,1,,,,0,,67,0
28506,note_off,,,,,42,0,7,,,,6,,76,0
28509,note_off,,,,,21,0,12,,,,13,,50,0
28509,note_off,,,,,21,0,11,,,,12,,38,0
28509,note_off,,,,,21,0,10,,,,11,,50,0
28512,note_on,,,,,3,0,11,,,,12,,40,49
28512,note_on,,,,,3,0,10,,,,11,,52,49
28512,note_on,,,,,6,0,1,,,,0,,72,127
28512,note_on,,,,,0,0,7,,,,6,,67,127
28512,note_on,,,,,3,0,12,,,,13,,60,49
28512,note_on,,,,,0,0,12,,,,13,,67,49
28512,note_on,,,,,0,0,7,,,,6,,60,127
28512,note_on,,,,,0,0,12,,,,13,,52,49
28512,note_on,,,,,6,0,7,,,,6,,76,127
28533,note_off,,,,,21,0,12,,,,13,,52,0
28533,note_off,,,,,21,0,11,,,,12,,40,0
28533,note_off,,,,,21,0,10,,,,11,,52,0
28533,note_off,,,,,21,0,1,,,,0,,72,0
28536,note_on,,,,,3,0,12,,,,13,,50,49
28536,note_on,,,,,3,0,10,,,,11,,50,49
28536,note_on,,,,,3,0,11,,,,12,,38,49
28536,note_on,,,,,3,0,1,,,,0,,70,127
28554,note_off,,,,,0,0,12,,,,13,,67,0
28554,note_off,,,,,42,0,7,,,,6,,76,0
28554,note_off,,,,,18,0,12,,,,13,,60,0
28554,note_off,,,,,0,0,7,,,,6,,60,0
28554,note_off,,,,,0,0,7,,,,6,,67,0
28557,note_off,,,,,3,0,12,,,,13,,50,0
28557,note_off,,,,,21,0,10,,,,11,,50,0
28557,note_off,,,,,21,0,1,,,,0,,70,0
28557,note_off,,,,,21,0,11,,,,12,,38,0
28560,note_on,,,,,0,0,12,,,,13,,67,49
28560,note_on,,,,,6,0,7,,,,6,,76,127
28560,note_on,,,,,0,0,7,,,,6,,67,127
28560,note_on,,,,,3,0,1,,,,0,,72,127
28560,note_on,,,,,3,0,12,,,,13,,60,49
28560,note_on,,,,,0,0,12,,,,13,,48,49
28560,note_on,,,,,3,0,10,,,,11,,48,49
28560,note_on,,,,,0,0,7,,,,6,,60,127
28560,note_on,,,,,3,0,11,,,,12,,36,49
28581,note_off,,,,,21,0,10,,,,11,,48,0
28581,note_off,,,,,21,0,11,,,,12,,36,0
28581,note_off,,,,,21,0,12,,,,13,,48,0
28581,note_off,,,,,21,0,1,,,,0,,72,0
28584,note_on,,,,,3,0,11,,,,12,,34,49
28584,note_on,,,,,3,0,12,,,,13,,46,49
28584,note_on,,,,,3,0,10,,,,11,,46,49
28584,note_on,,,,,3,0,1,,,,0,,67,127
28602,note_off,,,,,0,0,7,,,,6,,67,0
28602,note_off,,,,,18,0,12,,,,13,,60,0
28602,note_off,,,,,42,0,7,,,,6,,76,0
28602,note_off,,,,,0,0,12,,,,13,,67,0
28602,note_off,,,,,0,0,7,,,,6,,60,0
28605,note_off,,,,,21,0,1,,,,0,,67,0
28605,note_off,,,,,21,0,10,,,,11,,46,0
28605,note_off,,,,,3,0,12,,,,13,,46,0
28605,note_off,,,,,21,0,11,,,,12,,34,0
28608,note_on,,,,,3,0,1,,,,0,,69,127
28608,note_on,,,,,3,0,10,,,,11,,45,49
28608,note_on,,,,,3,0,12,,,,13,,60,49
28608,note_on,,,,,0,0,12,,,,13,,45,49
28608,note_on,,,,,6,0,7,,,,6,,76,127
28608,note_on,,,,,0,0,7,,,,6,,60,127
28608,note_on,,,,,0,0,7,,,,6,,69,127
28608,note_on,,,,,3,0,11,,,,12,,33,49
28608,note_on,,,,,0,0,12,,,,13,,69,49
28629,note_off,,,,,21,0,11,,,,12,,33,0
28629,note_off,,,,,21,0,10,,,,11,,45,0
28629,note_off,,,,,21,0,12,,,,13,,45,0
28632,note_on,,,,,3,0,11,,,,12,,34,49
28632,note_on,,,,,3,0,12,,,,13,,46,49
28632,note_on,,,,,3,0,10,,,,11,,46,49
28650,note_off,,,,,42,0,1,,,,0,,69,0
28650,note_off,,,,,18,0,12,,,,13,,60,0
28650,note_off,,,,,0,0,12,,,,13,,69,0
28650,note_off,,,,,42,0,7,,,,6,,76,0
28650,note_off,,,,,0,0,7,,,,6,,60,0
28650,note_off,,,,,0,0,7,,,,6,,69,0
28653,note_off,,,,,3,0,12,,,,13,,46,0
28653,note_off,,,,,21,0,10,,,,11,,46,0
28653,note_off,,,,,21,0,11,,,,12,,34,0
28656,note_on,,,,,6,0,7,,,,6,,81,127
28656,note_on,,,,,3,0,10,,,,11,,48,49
28656,note_on,,,,,6,0,1,,,,0,,69,127
28656,note_on,,,,,3,0,11,,,,12,,36,49
28656,note_on,,,,,3,0,12,,,,13,,48,49
28677,note_off,,,,,21,0,7,,,,6,,81,0
28677,note_off,,,,,21,0,11,,,,12,,36,0
28677,note_off,,,,,21,0,12,,,,13,,48,0
28677,note_off,,,,,21,0,10,,,,11,,48,0
28680,note_on,,,,,3,0,12,,,,13,,46,49
28680,note_on,,,,,3,0,10,,,,11,,46,49
28680,note_on,,,,,3,0,11,,,,12,,34,49
28680,note_on,,,,,3,0,7,,,,6,,79,127
28698,note_off,,,,,42,0,1,,,,0,,69,0
28701,note_off,,,,,21,0,12,,,,13,,46,0
28701,note_off,,,,,21,0,11,,,,12,,34,0
28701,note_off,,,,,21,0,10,,,,11,,46,0
28701,note_off,,,,,21,0,7,,,,6,,79,0
28704,note_on,,,,,3,0,11,,,,12,,36,49
28704,note_on,,,,,3,0,12,,,,13,,48,49
28704,note_on,,,,,6,0,1,,,,0,,69,127
28704,note_on,,,,,3,0,10,,,,11,,48,49
28704,note_on,,,,,3,0,7,,,,6,,81,127
28725,note_off,,,,,21,0,11,,,,12,,36,0
28725,note_off,,,,,21,0,7,,,,6,,81,0
28725,note_off,,,,,21,0,12,,,,13,,48,0
28725,note_off,,,,,21,0,10,,,,11,,48,0
28728,note_on,,,,,3,0,10,,,,11,,45,49
28728,note_on,,,,,3,0,7,,,,6,,76,127
28728,note_on,,,,,3,0,11,,,,12,,33,49
28728,note_on,,,,,3,0,12,,,,13,,45,49
28746,note_off,,,,,42,0,1,,,,0,,69,0
28749,note_off,,,,,21,0,7,,,,6,,76,0
28749,note_off,,,,,21,0,12,,,,13,,45,0
28749,note_off,,,,,21,0,11,,,,12,,33,0
28749,note_off,,,,,21,0,10,,,,11,,45,0
28752,note_on,,,,,3,0,7,,,,6,,77,127
28752,note_on,,,,,3,0,12,,,,13,,50,49
28752,note_on,,,,,3,0,10,,,,11,,50,49
28752,note_on,,,,,3,0,11,,,,12,,38,49
28752,note_on,,,,,6,0,1,,,,0,,69,127
28773,note_off,,,,,21,0,11,,,,12,,38,0
28773,note_off,,,,,21,0,12,,,,13,,50,0
28773,note_off,,,,,21,0,10,,,,11,,50,0
28776,note_on,,,,,3,0,10,,,,11,,52,49
28776,note_on,,,,,3,0,11,,,,12,,40,49
28776,note_on,,,,,3,0,12,,,,13,,52,49
28794,note_off,,,,,42,0,7,,,,6,,77,0
28794,note_off,,,,,42,0,1,,,,0,,69,0
28797,note_off,,,,,21,0,10,,,,11,,52,0
28797,note_off,,,,,21,0,11,,,,12,,40,0
28797,note_off,,,,,21,0,12,,,,13,,52,0
28800,note_on,,,,,3,0,11,,,,12,,41,49
28800,note_on,,,,,0,0,12,,,,13,,69,49
28800,note_on,,,,,3,0,10,,,,11,,53,49
28800,note_on,,,,,3,0,12,,,,13,,62,49
28800,note_on,,,,,0,0,7,,,,6,,69,127
28800,note_on,,,,,0,0,12,,,,13,,53,49
28800,note_on,,,,,0,0,7,,,,6,,62,127
28800,note_on,,,,,6,0,7,,,,6,,77,127
28800,note_on,,,,,6,0,1,,,,0,,74,127
28821,note_off,,,,,21,0,10,,,,11,,53,0
28821,note_off,,,,,21,0,11,,,,12,,41,0
28821,note_off,,,,,21,0,12,,,,13,,53,0
28821,note_off,,,,,21,0,1,,,,0,,74,0
28824,note_on,,,,,3,0,12,,,,13,,52,49
28824,note_on,,,,,3,0,10,,,,11,,52,49
28824,note_on,,,,,3,0,11,,,,12,,40,49
28824,note_on,,,,,3,0,1,,,,0,,72,127
28842,note_off,,,,,18,0,12,,,,13,,62,0
28842,note_off,,,,,0,0,12,,,,13,,69,0
28842,note_off,,,,,42,0,7,,,,6,,77,0
28842,note_off,,,,,0,0,7,,,,6,,69,0
28842,note_off,,,,,0,0,7,,,,6,,62,0
28845,note_off,,,,,21,0,11,,,,12,,40,0
28845,note_off,,,,,21,0,10,,,,11,,52,0
28845,note_off,,,,,3,0,12,,,,13,,52,0
28845,note_off,,,,,21,0,1,,,,0,,72,0
28848,note_on,,,,,3,0,1,,,,0,,74,127
28848,note_on,,,,,3,0,10,,,,11,,53,49
28848,note_on,,,,,0,0,12,,,,13,,69,49
28848,note_on,,,,,0,0,12,,,,13,,53,49
28848,note_on,,,,,3,0,11,,,,12,,41,49
28848,note_on,,,,,0,0,7,,,,6,,69,127
28848,note_on,,,,,0,0,7,,,,6,,62,127
28848,note_on,,,,,6,0,7,,,,6,,77,127
28848,note_on,,,,,3,0,12,,,,13,,62,49
28869,note_off,,,,,21,0,12,,,,13,,53,0
28869,note_off,,,,,21,0,1,,,,0,,74,0
28869,note_off,,,,,21,0,11,,,,12,,41,0
28869,note_off,,,,,21,0,10,,,,11,,53,0
28872,note_on,,,,,3,0,11,,,,12,,38,49
28872,note_on,,,,,3,0,10,,,,11,,50,49
28872,note_on,,,,,3,0,1,,,,0,,69,127
28872,note_on,,,,,3,0,12,,,,13,,50,49
28890,note_off,,,,,0,0,7,,,,6,,69,0
28890,note_off,,,,,0,0,12,,,,13,,69,0
28890,note_off,,,,,42,0,7,,,,6,,77,0
28890,note_off,,,,,0,0,7,,,,6,,62,0
28890,note_off,,,,,18,0,12,,,,13,,62,0
28893,note_off,,,,,3,0,12,,,,13,,50,0
28893,note_off,,,,,21,0,10,,,,11,,50,0
28893,note_off,,,,,21,0,11,,,,12,,38,0
28893,note_off,,,,,21,0,1,,,,0,,69,0
28896,note_on,,,,,3,0,10,,,,11,,55,49
28896,note_on,,,,,3,0,12,,,,13,,62,49
28896,note_on,,,,,3,0,11,,,,12,,43,49
28896,note_on,,,,,3,0,1,,,,0,,71,127
28896,note_on,,,,,0,0,12,,,,13,,71,49
28896,note_on,,,,,6,0,7,,,,6,,77,127
28896,note_on,,,,,0,0,7,,,,6,,62,127
28896,note_on,,,,,0,0,7,,,,6,,71,127
28896,note_on,,,,,0,0,12,,,,13,,55,49
28917,note_off,,,,,21,0,10,,,,11,,55,0
28917,note_off,,,,,21,0,11,,,,12,,43,0
28917,note_off,,,,,21,0,12,,,,13,,55,0
28920,note_on,,,,,3,0,10,,,,11,,57,49
28920,note_on,,,,,3,0,12,,,,13,,57,49
28920,note_on,,,,,3,0,11,,,,12,,45,49
28938,note_off,,,,,0,0,7,,,,6,,71,0
28938,note_off,,,,,0,0,7,,,,6,,62,0
28938,note_off,,,,,0,0,12,,,,13,,71,0
28938,note_off,,,,,42,0,7,,,,6,,77,0
28938,note_off,,,,,42,0,1,,,,0,,71,0
28938,note_off,,,,,18,0,12,,,,13,,62,0
28941,note_off,,,,,3,0,12,,,,13,,57,0
28941,note_off,,,,,21,0,11,,,,12,,45,0
28941,note_off,,,,,21,0,10,,,,11,,57,0
28944,note_on,,,,,3,0,11,,,,12,,47,49
28944,note_on,,,,,3,0,12,,,,13,,59,49
28944,note_on,,,,,3,0,10,,,,11,,59,49
28944,note_on,,,,,6,0,1,,,,0,,72,127
28944,note_on,,,,,6,0,7,,,,6,,79,127
28954,note_off,,,,,10,0,1,,,,0,,72,0
28956,note_on,,,,,2,0,1,,,,0,,71,127
28965,note_off,,,,,21,0,11,,,,12,,47,0
28965,note_off,,,,,21,0,7,,,,6,,79,0
28965,note_off,,,,,21,0,10,,,,11,,59,0
28965,note_off,,,,,21,0,12,,,,13,,59,0
28966,note_off,,,,,10,0,1,,,,0,,71,0
28968,note_on,,,,,3,0,7,,,,6,,77,127
28968,note_on,,,,,2,0,1,,,,0,,72,127
28968,note_on,,,,,3,0,11,,,,12,,45,49
28968,note_on,,,,,3,0,10,,,,11,,57,49
28968,note_on,,,,,3,0,12,,,,13,,57,49
28978,note_off,,,,,10,0,1,,,,0,,72,0
28980,note_on,,,,,2,0,1,,,,0,,71,127
28989,note_off,,,,,21,0,11,,,,12,,45,0
28989,note_off,,,,,21,0,10,,,,11,,57,0
28989,note_off,,,,,21,0,7,,,,6,,77,0
28989,note_off,,,,,21,0,12,,,,13,,57,0
28990,note_off,,,,,10,0,1,,,,0,,71,0
28992,note_on,,,,,3,0,7,,,,6,,76,127
28992,note_on,,,,,3,0,10,,,,11,,59,49
28992,note_on,,,,,2,0,1,,,,0,,72,127
28992,note_on,,,,,3,0,11,,,,12,,47,49
28992,note_on,,,,,3,0,12,,,,13,,59,49
29002,note_off,,,,,10,0,1,,,,0,,72,0
29004,note_on,,,,,2,0,1,,,,0,,71,127
29013,note_off,,,,,21,0,10,,,,11,,59,0
29013,note_off,,,,,21,0,11,,,,12,,47,0
29013,note_off,,,,,21,0,7,,,,6,,76,0
29013,note_off,,,,,21,0,12,,,,13,,59,0
29014,note_off,,,,,10,0,1,,,,0,,71,0
29016,note_on,,,,,3,0,7,,,,6,,74,127
29016,note_on,,,,,3,0,11,,,,12,,43,49
29016,note_on,,,,,3,0,10,,,,11,,55,49
29016,note_on,,,,,3,0,12,,,,13,,55,49
29016,note_on,,,,,2,0,1,,,,0,,69,127
29026,note_off,,,,,10,0,1,,,,0,,69,0
29028,note_on,,,,,2,0,1,,,,0,,71,127
29037,note_off,,,,,21,0,12,,,,13,,55,0
29037,note_off,,,,,21,0,7,,,,6,,74,0
29037,note_off,,,,,21,0,11,,,,12,,43,0
29037,note_off,,,,,21,0,10,,,,11,,55,0
29038,note_off,,,,,10,0,1,,,,0,,71,0
29040,note_on,,,,,3,0,10,,,,11,,60,49
29040,note_on,,,,,3,0,12,,,,13,,60,49
29040,note_on,,,,,2,0,1,,,,0,,74,127
29040,note_on,,,,,3,0,11,,,,12,,48,49
29040,note_on,,,,,3,0,7,,,,6,,76,127
29050,note_off,,,,,10,0,1,,,,0,,74,0
29052,note_on,,,,,2,0,1,,,,0,,72,127
29061,note_off,,,,,21,0,7,,,,6,,76,0
29062,note_off,,,,,10,0,1,,,,0,,72,0
29064,note_on,,,,,2,0,1,,,,0,,74,127
29064,note_on,,,,,3,0,7,,,,6,,77,127
29074,note_off,,,,,10,0,1,,,,0,,74,0
29076,note_on,,,,,2,0,1,,,,0,,72,127
29082,note_off,,,,,42,0,10,,,,11,,60,0
29082,note_off,,,,,42,0,12,,,,13,,60,0
29082,note_off,,,,,42,0,11,,,,12,,48,0
29085,note_off,,,,,21,0,7,,,,6,,77,0
29086,note_off,,,,,10,0,1,,,,0,,72,0
29088,note_on,,,,,3,0,7,,,,6,,76,127
29088,note_on,,,,,6,0,10,,,,11,,48,49
29088,note_on,,,,,6,0,12,,,,13,,48,49
29088,note_on,,,,,2,0,1,,,,0,,74,127
29088,note_on,,,,,6,0,11,,,,12,,36,49
29098,note_off,,,,,10,0,1,,,,0,,74,0
29100,note_on,,,,,2,0,1,,,,0,,72,127
29109,note_off,,,,,21,0,7,,,,6,,76,0
29110,note_off,,,,,10,0,1,,,,0,,72,0
29112,note_on,,,,,2,0,1,,,,0,,74,127
29112,note_on,,,,,3,0,7,,,,6,,74,127
29122,note_off,,,,,10,0,1,,,,0,,74,0
29124,note_on,,,,,2,0,1,,,,0,,72,127
29130,note_off,,,,,42,0,10,,,,11,,48,0
29130,note_off,,,,,42,0,12,,,,13,,48,0
29130,note_off,,,,,42,0,11,,,,12,,36,0
29133,note_off,,,,,21,0,7,,,,6,,74,0
29134,note_off,,,,,10,0,1,,,,0,,72,0
29136,note_on,,,,,6,0,10,,,,11,,48,49
29136,note_on,,,,,3,0,7,,,,6,,72,127
29136,note_on,,,,,6,0,11,,,,12,,36,49
29136,note_on,,,,,2,0,1,,,,0,,74,127
29136,note_on,,,,,6,0,12,,,,13,,48,49
29146,note_off,,,,,10,0,1,,,,0,,74,0
29148,note_on,,,,,2,0,1,,,,0,,72,127
29157,note_off,,,,,21,0,7,,,,6,,72,0
29158,note_off,,,,,10,0,1,,,,0,,72,0
29160,note_on,,,,,2,0,1,,,,0,,74,127
29160,note_on,,,,,3,0,7,,,,6,,74,127
29170,note_off,,,,,10,0,1,,,,0,,74,0
29172,note_on,,,,,2,0,1,,,,0,,72,127
29178,note_off,,,,,42,0,10,,,,11,,48,0
29178,note_off,,,,,42,0,12,,,,13,,48,0
29178,note_off,,,,,42,0,11,,,,12,,36,0
29181,note_off,,,,,21,0,7,,,,6,,74,0
29182,note_off,,,,,10,0,1,,,,0,,72,0
29184,note_on,,,,,6,0,11,,,,12,,36,49
29184,note_on,,,,,3,0,7,,,,6,,76,127
29184,note_on,,,,,6,0,10,,,,11,,48,49
29184,note_on,,,,,2,0,1,,,,0,,74,127
29184,note_on,,,,,6,0,12,,,,13,,48,49
29194,note_off,,,,,10,0,1,,,,0,,74,0
29196,note_on,,,,,2,0,1,,,,0,,72,127
29205,note_off,,,,,21,0,7,,,,6,,76,0
29206,note_off,,,,,10,0,1,,,,0,,72,0
29208,note_on,,,,,2,0,1,,,,0,,74,127
29208,note_on,,,,,3,0,7,,,,6,,77,127
29218,note_off,,,,,10,0,1,,,,0,,74,0
29220,note_on,,,,,2,0,1,,,,0,,72,127
29226,note_off,,,,,42,0,11,,,,12,,36,0
29226,note_off,,,,,42,0,10,,,,11,,48,0
29226,note_off,,,,,42,0,12,,,,13,,48,0
29229,note_off,,,,,21,0,7,,,,6,,77,0
29230,note_off,,,,,10,0,1,,,,0,,72,0
29232,note_on,,,,,2,0,1,,,,0,,74,127
29232,note_on,,,,,6,0,12,,,,13,,52,49
29232,note_on,,,,,6,0,11,,,,12,,40,49
29232,note_on,,,,,6,0,10,,,,11,,52,49
29232,note_on,,,,,3,0,7,,,,6,,79,127
29242,note_off,,,,,10,0,1,,,,0,,74,0
29244,note_on,,,,,2,0,1,,,,0,,72,127
29253,note_off,,,,,21,0,12,,,,13,,52,0
29253,note_off,,,,,21,0,10,,,,11,,52,0
29253,note_off,,,,,21,0,11,,,,12,,40,0
29253,note_off,,,,,21,0,7,,,,6,,79,0
29254,note_off,,,,,10,0,1,,,,0,,72,0
29256,note_on,,,,,3,0,12,,,,13,,50,49
29256,note_on,,,,,3,0,11,,,,12,,38,49
29256,note_on,,,,,3,0,10,,,,11,,50,49
29256,note_on,,,,,2,0,1,,,,0,,74,127
29256,note_on,,,,,3,0,7,,,,6,,77,127
29266,note_off,,,,,10,0,1,,,,0,,74,0
29268,note_on,,,,,2,0,1,,,,0,,72,127
29277,note_off,,,,,21,0,12,,,,13,,50,0
29277,note_off,,,,,21,0,11,,,,12,,38,0
29277,note_off,,,,,21,0,7,,,,6,,77,0
29277,note_off,,,,,21,0,10,,,,11,,50,0
29278,note_off,,,,,10,0,1,,,,0,,72,0
29280,note_on,,,,,3,0,11,,,,12,,40,49
29280,note_on,,,,,2,0,1,,,,0,,74,127
29280,note_on,,,,,3,0,12,,,,13,,52,49
29280,note_on,,,,,3,0,10,,,,11,,52,49
29280,note_on,,,,,3,0,7,,,,6,,79,127
29290,note_off,,,,,10,0,1,,,,0,,74,0
29292,note_on,,,,,2,0,1,,,,0,,72,127
29301,note_off,,,,,21,0,7,,,,6,,79,0
29301,note_off,,,,,21,0,11,,,,12,,40,0
29301,note_off,,,,,21,0,10,,,,11,,52,0
29301,note_off,,,,,21,0,12,,,,13,,52,0
29302,note_off,,,,,10,0,1,,,,0,,72,0
29304,note_on,,,,,2,0,1,,,,0,,74,127
29304,note_on,,,,,3,0,7,,,,6,,76,127
29304,note_on,,,,,3,0,11,,,,12,,36,49
29304,note_on,,,,,3,0,12,,,,13,,48,49
29304,note_on,,,,,3,0,10,,,,11,,48,49
29314,note_off,,,,,10,0,1,,,,0,,74,0
29316,note_on,,,,,2,0,1,,,,0,,72,127
29325,note_off,,,,,21,0,10,,,,11,,48,0
29325,note_off,,,,,21,0,12,,,,13,,48,0
29325,note_off,,,,,21,0,7,,,,6,,76,0
29325,note_off,,,,,21,0,11,,,,12,,36,0
29326,note_off,,,,,10,0,1,,,,0,,72,0
29328,note_on,,,,,1398,0,2,,,,1,,65,127
29328,note_on,,,,,2,0,1,,,,0,,74,127
29328,note_on,,,,,0,0,12,,,,13,,72,49
29328,note_on,,,,,3,0,11,,,,12,,41,49
29328,note_on,,,,,1356,0,6,,,,5,,53,62
29328,note_on,,,,,3,0,10,,,,11,,53,49
29328,note_on,,,,,3,0,12,,,,13,,69,49
29328,note_on,,,,,3,0,7,,,,6,,77,127
29328,note_on,,,,,0,0,12,,,,13,,53,49
29338,note_off,,,,,10,0,1,,,,0,,74,0
29340,note_on,,,,,2,0,1,,,,0,,72,127
29349,note_off,,,,,21,0,2,,,,1,,65,0
29350,note_off,,,,,10,0,1,,,,0,,72,0
29352,note_on,,,,,2,0,1,,,,0,,74,127
29352,note_on,,,,,3,0,2,,,,1,,67,127
29362,note_off,,,,,10,0,1,,,,0,,74,0
29364,note_on,,,,,2,0,1,,,,0,,72,127
29370,note_off,,,,,42,0,7,,,,6,,77,0
29370,note_off,,,,,42,0,6,,,,5,,53,0
29370,note_off,,,,,42,0,12,,,,13,,69,0
29370,note_off,,,,,0,0,12,,,,13,,72,0
29370,note_off,,,,,0,0,12,,,,13,,53,0
29370,note_off,,,,,42,0,11,,,,12,,41,0
29370,note_off,,,,,42,0,10,,,,11,,53,0
29373,note_off,,,,,21,0,2,,,,1,,67,0
29374,note_off,,,,,10,0,1,,,,0,,72,0
29376,note_on,,,,,6,0,10,,,,11,,57,49
29376,note_on,,,,,1398,0,8,,,,7,,65,75
29376,note_on,,,,,6,0,12,,,,13,,72,49
29376,note_on,,,,,6,0,6,,,,5,,57,62
29376,note_on,,,,,6,0,7,,,,6,,77,127
29376,note_on,,,,,1398,0,3,,,,2,,65,62
29376,note_on,,,,,0,0,12,,,,13,,77,49
29376,note_on,,,,,0,0,12,,,,13,,57,49
29376,note_on,,,,,1404,0,13,,,,14,,57,75
29376,note_on,,,,,1404,0,9,,,,8,,60,75
29376,note_on,,,,,6,0,11,,,,12,,45,49
29376,note_on,,,,,2,0,1,,,,0,,74,127
29376,note_on,,,,,1404,0,5,,,,4,,60,62
29376,note_on,,,,,1404,0,4,,,,3,,65,62
29376,note_on,,,,,3,0,2,,,,1,,65,127
29386,note_off,,,,,10,0,1,,,,0,,74,0
29386,note_off,,,,,10,0,7,,,,6,,77,0
29388,note_on,,,,,2,0,7,,,,6,,76,127
29388,note_on,,,,,2,0,1,,,,0,,72,127
29397,note_off,,,,,21,0,2,,,,1,,65,0
29398,note_off,,,,,10,0,7,,,,6,,76,0
29398,note_off,,,,,10,0,1,,,,0,,72,0
29400,note_on,,,,,2,0,7,,,,6,,74,127
29400,note_on,,,,,3,0,2,,,,1,,67,127
29400,note_on,,,,,2,0,1,,,,0,,74,127
29410,note_off,,,,,10,0,1,,,,0,,74,0
29412,note_on,,,,,2,0,1,,,,0,,72,127
29418,note_off,,,,,42,0,11,,,,12,,45,0
29418,note_off,,,,,42,0,9,,,,8,,60,0
29418,note_off,,,,,42,0,13,,,,14,,57,0
29418,note_off,,,,,42,0,12,,,,13,,72,0
29418,note_off,,,,,42,0,4,,,,3,,65,0
29418,note_off,,,,,42,0,5,,,,4,,60,0
29418,note_off,,,,,42,0,3,,,,2,,65,0
29418,note_off,,,,,42,0,8,,,,7,,65,0
29418,note_off,,,,,42,0,10,,,,11,,57,0
29418,note_off,,,,,0,0,12,,,,13,,57,0
29418,note_off,,,,,0,0,12,,,,13,,77,0
29418,note_off,,,,,42,0,6,,,,5,,57,0
29421,note_off,,,,,21,0,2,,,,1,,67,0
29421,note_off,,,,,21,0,7,,,,6,,74,0
29422,note_off,,,,,10,0,1,,,,0,,72,0
29424,note_on,,,,,6,0,8,,,,7,,65,75
29424,note_on,,,,,6,0,6,,,,5,,60,62
29424,note_on,,,,,0,0,12,,,,13,,81,49
29424,note_on,,,,,0,0,12,,,,13,,60,49
29424,note_on,,,,,6,0,3,,,,2,,65,62
29424,note_on,,,,,6,0,12,,,,13,,77,49
29424,note_on,,,,,6,0,11,,,,12,,48,49
29424,note_on,,,,,2,0,1,,,,0,,74,127
29424,note_on,,,,,6,0,4,,,,3,,65,62
29424,note_on,,,,,6,0,13,,,,14,,57,75
29424,note_on,,,,,6,0,9,,,,8,,60,75
29424,note_on,,,,,3,0,7,,,,6,,72,127
29424,note_on,,,,,6,0,10,,,,11,,60,49
29424,note_on,,,,,6,0,5,,,,4,,60,62
29424,note_on,,,,,3,0,2,,,,1,,69,127
29434,note_off,,,,,10,0,1,,,,0,,74,0
29436,note_on,,,,,2,0,1,,,,0,,72,127
29445,note_off,,,,,21,0,2,,,,1,,69,0
29446,note_off,,,,,10,0,1,,,,0,,72,0
29448,note_on,,,,,2,0,1,,,,0,,74,127
29448,note_on,,,,,3,0,2,,,,1,,67,127
29458,note_off,,,,,10,0,1,,,,0,,74,0
29460,note_on,,,,,2,0,1,,,,0,,72,127
29466,note_off,,,,,42,0,13,,,,14,,57,0
29466,note_off,,,,,42,0,6,,,,5,,60,0
29466,note_off,,,,,42,0,9,,,,8,,60,0
29466,note_off,,,,,42,0,7,,,,6,,72,0
29466,note_off,,,,,42,0,11,,,,12,,48,0
29466,note_off,,,,,42,0,4,,,,3,,65,0
29466,note_off,,,,,42,0,5,,,,4,,60,0
29466,note_off,,,,,42,0,10,,,,11,,60,0
29466,note_off,,,,,42,0,12,,,,13,,77,0
29466,note_off,,,,,0,0,12,,,,13,,60,0
29466,note_off,,,,,0,0,12,,,,13,,81,0
29466,note_off,,,,,42,0,8,,,,7,,65,0
29466,note_off,,,,,42,0,3,,,,2,,65,0
29469,note_off,,,,,21,0,2,,,,1,,67,0
29470,note_off,,,,,10,0,1,,,,0,,72,0
29472,note_on,,,,,6,0,9,,,,8,,60,75
29472,note_on,,,,,0,0,12,,,,13,,57,49
29472,note_on,,,,,6,0,4,,,,3,,65,62
29472,note_on,,,,,6,0,12,,,,13,,72,49
29472,note_on,,,,,6,0,13,,,,14,,57,75
29472,note_on,,,,,6,0,6,,,,5,,57,62
29472,note_on,,,,,0,0,12,,,,13,,77,49
29472,note_on,,,,,6,0,3,,,,2,,65,62
29472,note_on,,,,,6,0,8,,,,7,,65,75
29472,note_on,,,,,6,0,10,,,,11,,57,49
29472,note_on,,,,,2,0,1,,,,0,,72,127
29472,note_on,,,,,6,0,11,,,,12,,45,49
29472,note_on,,,,,3,0,2,,,,1,,65,127
29472,note_on,,,,,6,0,5,,,,4,,60,62
29514,note_off,,,,,42,0,2,,,,1,,65,0
29514,note_off,,,,,42,0,12,,,,13,,72,0
29514,note_off,,,,,0,0,12,,,,13,,77,0
29514,note_off,,,,,0,0,12,,,,13,,57,0
29514,note_off,,,,,42,0,13,,,,14,,57,0
29514,note_off,,,,,42,0,8,,,,7,,65,0
29514,note_off,,,,,42,0,11,,,,12,,45,0
29514,note_off,,,,,42,0,1,,,,0,,72,0
29514,note_off,,,,,42,0,10,,,,11,,57,0
29514,note_off,,,,,42,0,4,,,,3,,65,0
29514,note_off,,,,,42,0,3,,,,2,,65,0
29514,note_off,,,,,42,0,6,,,,5,,57,0
29514,note_off,,,,,42,0,5,,,,4,,60,0
29514,note_off,,,,,42,0,9,,,,8,,60,0
29520,note_on,,,,,6,0,1,,,,0,,69,127
29520,note_on,,,,,54,0,7,,,,6,,72,127
29520,note_on,,,,,6,0,13,,,,14,,60,75
29520,note_on,,,,,6,0,6,,,,5,,53,62
29520,note_on,,,,,6,0,8,,,,7,,69,75
29520,note_on,,,,,0,0,12,,,,13,,53,49
29520,note_on,,,,,0,0,12,,,,13,,72,49
29520,note_on,,,,,6,0,9,,,,8,,65,75
29520,note_on,,,,,6,0,4,,,,3,,65,62
29520,note_on,,,,,6,0,3,,,,2,,69,62
29520,note_on,,,,,6,0,12,,,,13,,69,49
29520,note_on,,,,,6,0,2,,,,1,,60,127
29520,note_on,,,,,6,0,10,,,,11,,53,49
29520,note_on,,,,,6,0,11,,,,12,,41,49
29520,note_on,,,,,6,0,5,,,,4,,60,62
29541,note_off,,,,,21,0,9,,,,8,,65,0
29541,note_off,,,,,21,0,4,,,,3,,65,0
29541,note_off,,,,,21,0,13,,,,14,,60,0
29541,note_off,,,,,21,0,8,,,,7,,69,0
29541,note_off,,,,,21,0,3,,,,2,,69,0
29544,note_on,,,,,3,0,3,,,,2,,67,62
29544,note_on,,,,,3,0,13,,,,14,,58,75
29544,note_on,,,,,3,0,9,,,,8,,64,75
29544,note_on,,,,,3,0,4,,,,3,,64,62
29544,note_on,,,,,3,0,8,,,,7,,67,75
29562,note_off,,,,,42,0,11,,,,12,,41,0
29562,note_off,,,,,42,0,5,,,,4,,60,0
29562,note_off,,,,,42,0,7,,,,6,,72,0
29562,note_off,,,,,42,0,10,,,,11,,53,0
29562,note_off,,,,,42,0,1,,,,0,,69,0
29562,note_off,,,,,42,0,12,,,,13,,69,0
29562,note_off,,,,,42,0,6,,,,5,,53,0
29562,note_off,,,,,0,0,12,,,,13,,72,0
29562,note_off,,,,,42,0,2,,,,1,,60,0
29562,note_off,,,,,0,0,12,,,,13,,53,0
29565,note_off,,,,,21,0,13,,,,14,,58,0
29565,note_off,,,,,21,0,3,,,,2,,67,0
29565,note_off,,,,,21,0,9,,,,8,,64,0
29565,note_off,,,,,21,0,8,,,,7,,67,0
29565,note_off,,,,,21,0,4,,,,3,,64,0
29568,note_on,,,,,3,0,8,,,,7,,69,75
29568,note_on,,,,,3,0,9,,,,8,,65,75
29568,note_on,,,,,3,0,4,,,,3,,65,62
29568,note_on,,,,,6,0,1,,,,0,,65,127
29568,note_on,,,,,6,0,2,,,,1,,57,127
29568,note_on,,,,,3,0,3,,,,2,,69,62
29568,note_on,,,,,3,0,13,,,,14,,60,75
29568,note_on,,,,,6,0,5,,,,4,,60,62
29568,note_on,,,,,6,0,7,,,,6,,72,127
29589,note_off,,,,,21,0,8,,,,7,,69,0
29589,note_off,,,,,21,0,13,,,,14,,60,0
29589,note_off,,,,,21,0,9,,,,8,,65,0
29589,note_off,,,,,21,0,4,,,,3,,65,0
29589,note_off,,,,,21,0,3,,,,2,,69,0
29592,note_on,,,,,3,0,8,,,,7,,65,75
29592,note_on,,,,,3,0,4,,,,3,,60,62
29592,note_on,,,,,3,0,13,,,,14,,57,75
29592,note_on,,,,,3,0,9,,,,8,,60,75
29592,note_on,,,,,3,0,3,,,,2,,65,62
29610,note_off,,,,,42,0,1,,,,0,,65,0
29610,note_off,,,,,42,0,7,,,,6,,72,0
29610,note_off,,,,,42,0,5,,,,4,,60,0
29610,note_off,,,,,42,0,2,,,,1,,57,0
29613,note_off,,,,,21,0,9,,,,8,,60,0
29613,note_off,,,,,21,0,8,,,,7,,65,0
29613,note_off,,,,,21,0,3,,,,2,,65,0
29613,note_off,,,,,21,0,4,,,,3,,60,0
29613,note_off,,,,,21,0,13,,,,14,,57,0
29616,note_on,,,,,6,0,7,,,,6,,74,127
29616,note_on,,,,,6,0,2,,,,1,,60,127
29616,note_on,,,,,54,0,10,,,,11,,52,49
29616,note_on,,,,,3,0,3,,,,2,,72,62
29616,note_on,,,,,6,0,1,,,,0,,67,127
29616,note_on,,,,,0,0,12,,,,13,,72,49
29616,note_on,,,,,0,0,12,,,,13,,52,49
29616,note_on,,,,,3,0,4,,,,3,,67,62
29616,note_on,,,,,54,0,6,,,,5,,52,62
29616,note_on,,,,,3,0,8,,,,7,,72,75
29616,note_on,,,,,54,0,12,,,,13,,67,49
29616,note_on,,,,,54,0,11,,,,12,,40,49
29616,note_on,,,,,3,0,13,,,,14,,64,75
29616,note_on,,,,,6,0,5,,,,4,,64,62
29616,note_on,,,,,3,0,9,,,,8,,67,75
29626,note_off,,,,,10,0,7,,,,6,,74,0
29628,note_on,,,,,2,0,7,,,,6,,72,127
29637,note_off,,,,,21,0,1,,,,0,,67,0
29638,note_off,,,,,10,0,7,,,,6,,72,0
29640,note_on,,,,,2,0,7,,,,6,,74,127
29640,note_on,,,,,3,0,1,,,,0,,69,127
29650,note_off,,,,,10,0,7,,,,6,,74,0
29652,note_on,,,,,2,0,7,,,,6,,72,127
29658,note_off,,,,,42,0,12,,,,13,,67,0
29658,note_off,,,,,42,0,4,,,,3,,67,0
29658,note_off,,,,,42,0,6,,,,5,,52,0
29658,note_off,,,,,42,0,3,,,,2,,72,0
29658,note_off,,,,,42,0,2,,,,1,,60,0
29658,note_off,,,,,0,0,12,,,,13,,52,0
29658,note_off,,,,,42,0,13,,,,14,,64,0
29658,note_off,,,,,42,0,11,,,,12,,40,0
29658,note_off,,,,,0,0,12,,,,13,,72,0
29658,note_off,,,,,42,0,10,,,,11,,52,0
29658,note_off,,,,,42,0,5,,,,4,,64,0
29658,note_off,,,,,42,0,9,,,,8,,67,0
29658,note_off,,,,,42,0,8,,,,7,,72,0
29661,note_off,,,,,21,0,1,,,,0,,69,0
29662,note_off,,,,,10,0,7,,,,6,,72,0
29664,note_on,,,,,0,0,12,,,,13,,55,49
29664,note_on,,,,,0,0,12,,,,13,,76,49
29664,note_on,,,,,6,0,12,,,,13,,72,49
29664,note_on,,,,,6,0,13,,,,14,,64,75
29664,note_on,,,,,3,0,1,,,,0,,67,127
29664,note_on,,,,,6,0,3,,,,2,,72,62
29664,note_on,,,,,6,0,2,,,,1,,60,127
29664,note_on,,,,,6,0,10,,,,11,,55,49
29664,note_on,,,,,6,0,5,,,,4,,64,62
29664,note_on,,,,,6,0,9,,,,8,,67,75
29664,note_on,,,,,6,0,11,,,,12,,43,49
29664,note_on,,,,,2,0,7,,,,6,,74,127
29664,note_on,,,,,6,0,8,,,,7,,72,75
29664,note_on,,,,,6,0,4,,,,3,,67,62
29664,note_on,,,,,6,0,6,,,,5,,55,62
29674,note_off,,,,,10,0,7,,,,6,,74,0
29676,note_on,,,,,2,0,7,,,,6,,72,127
29685,note_off,,,,,21,0,1,,,,0,,67,0
29685,note_off,,,,,21,0,2,,,,1,,60,0
29686,note_off,,,,,10,0,7,,,,6,,72,0
29688,note_on,,,,,2,0,7,,,,6,,74,127
29688,note_on,,,,,3,0,1,,,,0,,69,127
29688,note_on,,,,,3,0,2,,,,1,,60,127
29698,note_off,,,,,10,0,7,,,,6,,74,0
29700,note_on,,,,,2,0,7,,,,6,,72,127
29706,note_off,,,,,42,0,12,,,,13,,72,0
29706,note_off,,,,,42,0,8,,,,7,,72,0
29706,note_off,,,,,42,0,13,,,,14,,64,0
29706,note_off,,,,,42,0,11,,,,12,,43,0
29706,note_off,,,,,42,0,9,,,,8,,67,0
29706,note_off,,,,,42,0,5,,,,4,,64,0
29706,note_off,,,,,0,0,12,,,,13,,76,0
29706,note_off,,,,,42,0,6,,,,5,,55,0
29706,note_off,,,,,42,0,3,,,,2,,72,0
29706,note_off,,,,,42,0,4,,,,3,,67,0
29706,note_off,,,,,0,0,12,,,,13,,55,0
29706,note_off,,,,,42,0,10,,,,11,,55,0
29709,note_off,,,,,21,0,1,,,,0,,69,0
29709,note_off,,,,,21,0,2,,,,1,,60,0
29710,note_off,,,,,10,0,7,,,,6,,72,0
29712,note_on,,,,,6,0,13,,,,14,,64,75
29712,note_on,,,,,0,0,12,,,,13,,60,49
29712,note_on,,,,,0,0,12,,,,13,,79,49
29712,note_on,,,,,6,0,12,,,,13,,76,49
29712,note_on,,,,,6,0,8,,,,7,,72,75
29712,note_on,,,,,6,0,9,,,,8,,67,75
29712,note_on,,,,,3,0,2,,,,1,,60,127
29712,note_on,,,,,6,0,3,,,,2,,72,62
29712,note_on,,,,,6,0,4,,,,3,,67,62
29712,note_on,,,,,6,0,11,,,,12,,48,49
29712,note_on,,,,,3,0,1,,,,0,,70,127
29712,note_on,,,,,6,0,5,,,,4,,64,62
29712,note_on,,,,,6,0,6,,,,5,,60,62
29712,note_on,,,,,2,0,7,,,,6,,74,127
29712,note_on,,,,,6,0,10,,,,11,,60,49
29722,note_off,,,,,10,0,7,,,,6,,74,0
29724,note_on,,,,,2,0,7,,,,6,,72,127
29733,note_off,,,,,21,0,1,,,,0,,70,0
29733,note_off,,,,,21,0,2,,,,1,,60,0
29734,note_off,,,,,10,0,7,,,,6,,72,0
29736,note_on,,,,,3,0,1,,,,0,,69,127
29736,note_on,,,,,3,0,2,,,,1,,60,127
29736,note_on,,,,,2,0,7,,,,6,,74,127
29746,note_off,,,,,10,0,7,,,,6,,74,0
29748,note_on,,,,,2,0,7,,,,6,,72,127
29754,note_off,,,,,42,0,11,,,,12,,48,0
29754,note_off,,,,,42,0,6,,,,5,,60,0
29754,note_off,,,,,42,0,10,,,,11,,60,0
29754,note_off,,,,,42,0,5,,,,4,,64,0
29754,note_off,,,,,0,0,12,,,,13,,60,0
29754,note_off,,,,,42,0,9,,,,8,,67,0
29754,note_off,,,,,42,0,13,,,,14,,64,0
29754,note_off,,,,,0,0,12,,,,13,,79,0
29754,note_off,,,,,42,0,12,,,,13,,76,0
29754,note_off,,,,,42,0,4,,,,3,,67,0
29754,note_off,,,,,42,0,8,,,,7,,72,0
29754,note_off,,,,,42,0,3,,,,2,,72,0
29757,note_off,,,,,21,0,1,,,,0,,69,0
29757,note_off,,,,,21,0,2,,,,1,,60,0
29760,note_on,,,,,3,0,1,,,,0,,67,127
29760,note_on,,,,,3,0,2,,,,1,,60,127
29760,note_on,,,,,6,0,6,,,,5,,52,62
29760,note_on,,,,,6,0,11,,,,12,,40,49
29760,note_on,,,,,6,0,9,,,,8,,67,75
29760,note_on,,,,,6,0,5,,,,4,,64,62
29760,note_on,,,,,6,0,10,,,,11,,52,49
29760,note_on,,,,,0,0,12,,,,13,,72,49
29760,note_on,,,,,0,0,12,,,,13,,52,49
29760,note_on,,,,,6,0,12,,,,13,,67,49
29760,note_on,,,,,6,0,4,,,,3,,67,62
29760,note_on,,,,,6,0,13,,,,14,,64,75
29760,note_on,,,,,6,0,8,,,,7,,72,75
29760,note_on,,,,,6,0,3,,,,2,,72,62
29781,note_off,,,,,33,0,7,,,,6,,72,0
29784,note_on,,,,,3,0,7,,,,6,,74,127
29802,note_off,,,,,42,0,8,,,,7,,72,0
29802,note_off,,,,,42,0,4,,,,3,,67,0
29802,note_off,,,,,42,0,5,,,,4,,64,0
29802,note_off,,,,,42,0,9,,,,8,,67,0
29802,note_off,,,,,42,0,2,,,,1,,60,0
29802,note_off,,,,,42,0,3,,,,2,,72,0
29802,note_off,,,,,42,0,6,,,,5,,52,0
29802,note_off,,,,,0,0,12,,,,13,,52,0
29802,note_off,,,,,42,0,10,,,,11,,52,0
29802,note_off,,,,,42,0,11,,,,12,,40,0
29802,note_off,,,,,42,0,12,,,,13,,67,0
29802,note_off,,,,,42,0,1,,,,0,,67,0
29802,note_off,,,,,42,0,13,,,,14,,64,0
29802,note_off,,,,,0,0,12,,,,13,,72,0
29805,note_off,,,,,21,0,7,,,,6,,74,0
29808,note_on,,,,,6,0,4,,,,3,,72,62
29808,note_on,,,,,6,0,5,,,,4,,67,62
29808,note_on,,,,,0,0,12,,,,13,,48,49
29808,note_on,,,,,0,0,12,,,,13,,67,49
29808,note_on,,,,,6,0,9,,,,8,,72,75
29808,note_on,,,,,6,0,12,,,,13,,64,49
29808,note_on,,,,,6,0,6,,,,5,,48,62
29808,note_on,,,,,6,0,3,,,,2,,76,62
29808,note_on,,,,,6,0,8,,,,7,,76,75
29808,note_on,,,,,3,0,7,,,,6,,72,127
29808,note_on,,,,,6,0,13,,,,14,,67,75
29808,note_on,,,,,6,0,10,,,,11,,48,49
29808,note_on,,,,,6,0,11,,,,12,,36,49
29829,note_off,,,,,21,0,9,,,,8,,72,0
29829,note_off,,,,,21,0,8,,,,7,,76,0
29829,note_off,,,,,21,0,5,,,,4,,67,0
29829,note_off,,,,,21,0,3,,,,2,,76,0
29829,note_off,,,,,21,0,4,,,,3,,72,0
29829,note_off,,,,,21,0,13,,,,14,,67,0
29829,note_off,,,,,21,0,7,,,,6,,72,0
29832,note_on,,,,,3,0,3,,,,2,,74,62
29832,note_on,,,,,3,0,13,,,,14,,65,75
29832,note_on,,,,,3,0,8,,,,7,,74,75
29832,note_on,,,,,3,0,4,,,,3,,71,62
29832,note_on,,,,,3,0,9,,,,8,,71,75
29832,note_on,,,,,3,0,5,,,,4,,65,62
29832,note_on,,,,,3,0,7,,,,6,,70,127
29850,note_off,,,,,0,0,12,,,,13,,48,0
29850,note_off,,,,,42,0,12,,,,13,,64,0
29850,note_off,,,,,0,0,12,,,,13,,67,0
29850,note_off,,,,,42,0,6,,,,5,,48,0
29850,note_off,,,,,42,0,11,,,,12,,36,0
29850,note_off,,,,,42,0,10,,,,11,,48,0
29853,note_off,,,,,21,0,7,,,,6,,70,0
29853,note_off,,,,,21,0,8,,,,7,,74,0
29853,note_off,,,,,21,0,13,,,,14,,65,0
29853,note_off,,,,,21,0,9,,,,8,,71,0
29853,note_off,,,,,21,0,3,,,,2,,74,0
29853,note_off,,,,,21,0,5,,,,4,,65,0
29853,note_off,,,,,21,0,4,,,,3,,71,0
29856,note_on,,,,,3,0,13,,,,14,,67,75
29856,note_on,,,,,3,0,5,,,,4,,67,62
29856,note_on,,,,,3,0,8,,,,7,,76,75
29856,note_on,,,,,3,0,9,,,,8,,72,75
29856,note_on,,,,,3,0,4,,,,3,,72,62
29856,note_on,,,,,3,0,3,,,,2,,76,62
29856,note_on,,,,,3,0,7,,,,6,,69,127
29877,note_off,,,,,21,0,4,,,,3,,72,0
29877,note_off,,,,,21,0,9,,,,8,,72,0
29877,note_off,,,,,21,0,8,,,,7,,76,0
29877,note_off,,,,,21,0,7,,,,6,,69,0
29877,note_off,,,,,21,0,13,,,,14,,67,0
29877,note_off,,,,,21,0,5,,,,4,,67,0
29877,note_off,,,,,21,0,3,,,,2,,76,0
29880,note_on,,,,,3,0,8,,,,7,,72,75
29880,note_on,,,,,3,0,5,,,,4,,64,62
29880,note_on,,,,,3,0,4,,,,3,,67,62
29880,note_on,,,,,3,0,13,,,,14,,64,75
29880,note_on,,,,,3,0,9,,,,8,,67,75
29880,note_on,,,,,3,0,7,,,,6,,67,127
29880,note_on,,,,,3,0,3,,,,2,,72,62
29901,note_off,,,,,21,0,8,,,,7,,72,0
29901,note_off,,,,,21,0,7,,,,6,,67,0
29901,note_off,,,,,21,0,3,,,,2,,72,0
29901,note_off,,,,,21,0,13,,,,14,,64,0
29901,note_off,,,,,21,0,4,,,,3,,67,0
29901,note_off,,,,,21,0,9,,,,8,,67,0
29901,note_off,,,,,21,0,5,,,,4,,64,0
29904,note_on,,,,,54,0,6,,,,5,,50,62
29904,note_on,,,,,102,0,1,,,,0,,69,127
29904,note_on,,,,,54,0,11,,,,12,,38,49
29904,note_on,,,,,3,0,13,,,,14,,69,75
29904,note_on,,,,,3,0,7,,,,6,,65,127
29904,note_on,,,,,3,0,5,,,,4,,69,62
29904,note_on,,,,,3,0,8,,,,7,,77,75
29904,note_on,,,,,3,0,3,,,,2,,77,62
29904,note_on,,,,,102,0,2,,,,1,,65,127
29904,note_on,,,,,3,0,9,,,,8,,74,75
29904,note_on,,,,,3,0,4,,,,3,,74,62
29904,note_on,,,,,54,0,10,,,,11,,50,49
29904,note_on,,,,,0,0,12,,,,13,,77,49
29904,note_on,,,,,0,0,12,,,,13,,50,49
29904,note_on,,,,,54,0,12,,,,13,,69,49
29925,note_off,,,,,21,0,2,,,,1,,65,0
29925,note_off,,,,,21,0,1,,,,0,,69,0
29928,note_on,,,,,3,0,2,,,,1,,67,127
29928,note_on,,,,,3,0,1,,,,0,,70,127
29946,note_off,,,,,42,0,4,,,,3,,74,0
29946,note_off,,,,,42,0,7,,,,6,,65,0
29946,note_off,,,,,42,0,9,,,,8,,74,0
29946,note_off,,,,,42,0,12,,,,13,,69,0
29946,note_off,,,,,0,0,12,,,,13,,77,0
29946,note_off,,,,,42,0,8,,,,7,,77,0
29946,note_off,,,,,42,0,11,,,,12,,38,0
29946,note_off,,,,,42,0,5,,,,4,,69,0
29946,note_off,,,,,42,0,6,,,,5,,50,0
29946,note_off,,,,,42,0,10,,,,11,,50,0
29946,note_off,,,,,42,0,3,,,,2,,77,0
29946,note_off,,,,,0,0,12,,,,13,,50,0
29946,note_off,,,,,42,0,13,,,,14,,69,0
29949,note_off,,,,,21,0,1,,,,0,,70,0
29949,note_off,,,,,21,0,2,,,,1,,67,0
29952,note_on,,,,,6,0,10,,,,11,,53,49
29952,note_on,,,,,6,0,8,,,,7,,77,75
29952,note_on,,,,,6,0,13,,,,14,,69,75
29952,note_on,,,,,0,0,7,,,,6,,77,127
29952,note_on,,,,,6,0,3,,,,2,,77,62
29952,note_on,,,,,6,0,9,,,,8,,74,75
29952,note_on,,,,,6,0,11,,,,12,,41,49
29952,note_on,,,,,0,0,7,,,,6,,69,127
29952,note_on,,,,,3,0,2,,,,1,,65,127
29952,note_on,,,,,0,0,12,,,,13,,53,49
29952,note_on,,,,,6,0,7,,,,6,,62,127
29952,note_on,,,,,6,0,12,,,,13,,74,49
29952,note_on,,,,,3,0,1,,,,0,,69,127
29952,note_on,,,,,6,0,4,,,,3,,74,62
29952,note_on,,,,,6,0,6,,,,5,,53,62
29952,note_on,,,,,0,0,12,,,,13,,77,49
29952,note_on,,,,,6,0,5,,,,4,,69,62
29973,note_off,,,,,21,0,2,,,,1,,65,0
29973,note_off,,,,,21,0,1,,,,0,,69,0
29976,note_on,,,,,3,0,2,,,,1,,67,127
29976,note_on,,,,,3,0,1,,,,0,,70,127
29994,note_off,,,,,42,0,9,,,,8,,74,0
29994,note_off,,,,,42,0,13,,,,14,,69,0
29994,note_off,,,,,42,0,8,,,,7,,77,0
29994,note_off,,,,,0,0,7,,,,6,,77,0
29994,note_off,,,,,42,0,3,,,,2,,77,0
29994,note_off,,,,,0,0,7,,,,6,,69,0
29994,note_off,,,,,42,0,5,,,,4,,69,0
29994,note_off,,,,,42,0,11,,,,12,,41,0
29994,note_off,,,,,42,0,4,,,,3,,74,0
29994,note_off,,,,,42,0,6,,,,5,,53,0
29994,note_off,,,,,42,0,10,,,,11,,53,0
29994,note_off,,,,,0,0,12,,,,13,,53,0
29994,note_off,,,,,0,0,12,,,,13,,77,0
29994,note_off,,,,,42,0,12,,,,13,,74,0
29994,note_off,,,,,42,0,7,,,,6,,62,0
29997,note_off,,,,,21,0,2,,,,1,,67,0
29997,note_off,,,,,21,0,1,,,,0,,70,0
30000,note_on,,,,,6,0,6,,,,5,,50,62
30000,note_on,,,,,6,0,13,,,,14,,69,75
30000,note_on,,,,,3,0,2,,,,1,,69,127
30000,note_on,,,,,6,0,10,,,,11,,50,49
30000,note_on,,,,,6,0,8,,,,7,,77,75
30000,note_on,,,,,6,0,4,,,,3,,74,62
30000,note_on,,,,,6,0,3,,,,2,,77,62
30000,note_on,,,,,6,0,11,,,,12,,38,49
30000,note_on,,,,,6,0,7,,,,6,,62,127
30000,note_on,,,,,6,0,12,,,,13,,69,49
30000,note_on,,,,,0,0,12,,,,13,,77,49
30000,note_on,,,,,0,0,12,,,,13,,50,49
30000,note_on,,,,,0,0,7,,,,6,,69,127
30000,note_on,,,,,0,0,7,,,,6,,77,127
30000,note_on,,,,,6,0,9,,,,8,,74,75
30000,note_on,,,,,6,0,5,,,,4,,69,62
30000,note_on,,,,,3,0,1,,,,0,,72,127
30021,note_off,,,,,21,0,1,,,,0,,72,0
30021,note_off,,,,,21,0,2,,,,1,,69,0
30024,note_on,,,,,3,0,2,,,,1,,67,127
30024,note_on,,,,,3,0,1,,,,0,,70,127
30042,note_off,,,,,42,0,8,,,,7,,77,0
30042,note_off,,,,,42,0,10,,,,11,,50,0
30042,note_off,,,,,42,0,12,,,,13,,69,0
30042,note_off,,,,,0,0,12,,,,13,,77,0
30042,note_off,,,,,0,0,12,,,,13,,50,0
30042,note_off,,,,,42,0,9,,,,8,,74,0
30042,note_off,,,,,42,0,5,,,,4,,69,0
30042,note_off,,,,,42,0,11,,,,12,,38,0
30042,note_off,,,,,42,0,13,,,,14,,69,0
30042,note_off,,,,,42,0,6,,,,5,,50,0
30042,note_off,,,,,42,0,4,,,,3,,74,0
30042,note_off,,,,,42,0,7,,,,6,,62,0
30042,note_off,,,,,0,0,7,,,,6,,69,0
30042,note_off,,,,,0,0,7,,,,6,,77,0
30042,note_off,,,,,42,0,3,,,,2,,77,0
30045,note_off,,,,,21,0,2,,,,1,,67,0
30045,note_off,,,,,21,0,1,,,,0,,70,0
30048,note_on,,,,,6,0,9,,,,8,,72,75
30048,note_on,,,,,6,0,8,,,,7,,77,75
30048,note_on,,,,,6,0,10,,,,11,,45,49
30048,note_on,,,,,6,0,11,,,,12,,33,49
30048,note_on,,,,,3,0,1,,,,0,,69,127
30048,note_on,,,,,0,0,7,,,,6,,77,127
30048,note_on,,,,,0,0,12,,,,13,,45,49
30048,note_on,,,,,0,0,12,,,,13,,72,49
30048,note_on,,,,,6,0,13,,,,14,,69,75
30048,note_on,,,,,6,0,12,,,,13,,65,49
30048,note_on,,,,,6,0,4,,,,3,,72,62
30048,note_on,,,,,6,0,6,,,,5,,45,62
30048,note_on,,,,,3,0,2,,,,1,,65,127
30048,note_on,,,,,6,0,3,,,,2,,77,62
30048,note_on,,,,,0,0,7,,,,6,,69,127
30048,note_on,,,,,6,0,7,,,,6,,60,127
30048,note_on,,,,,6,0,5,,,,4,,69,62
30069,note_off,,,,,21,0,2,,,,1,,65,0
30069,note_off,,,,,21,0,1,,,,0,,69,0
30072,note_on,,,,,3,0,2,,,,1,,67,127
30072,note_on,,,,,3,0,1,,,,0,,70,127
30090,note_off,,,,,42,0,8,,,,7,,77,0
30090,note_off,,,,,42,0,9,,,,8,,72,0
30090,note_off,,,,,0,0,12,,,,13,,45,0
30090,note_off,,,,,42,0,4,,,,3,,72,0
30090,note_off,,,,,42,0,5,,,,4,,69,0
30090,note_off,,,,,42,0,6,,,,5,,45,0
30090,note_off,,,,,0,0,12,,,,13,,72,0
30090,note_off,,,,,42,0,11,,,,12,,33,0
30090,note_off,,,,,42,0,3,,,,2,,77,0
30090,note_off,,,,,42,0,12,,,,13,,65,0
30090,note_off,,,,,42,0,13,,,,14,,69,0
30090,note_off,,,,,42,0,10,,,,11,,45,0
30090,note_off,,,,,42,0,7,,,,6,,60,0
30090,note_off,,,,,0,0,7,,,,6,,69,0
30090,note_off,,,,,0,0,7,,,,6,,77,0
30093,note_off,,,,,21,0,1,,,,0,,70,0
30093,note_off,,,,,21,0,2,,,,1,,67,0
30096,note_on,,,,,0,0,12,,,,13,,41,49
30096,note_on,,,,,3,0,2,,,,1,,65,127
30096,note_on,,,,,6,0,12,,,,13,,60,49
30096,note_on,,,,,6,0,9,,,,8,,76,75
30096,note_on,,,,,0,0,12,,,,13,,69,49
30096,note_on,,,,,6,0,3,,,,2,,79,62
30096,note_on,,,,,6,0,11,,,,12,,29,49
30096,note_on,,,,,6,0,10,,,,11,,41,49
30096,note_on,,,,,6,0,13,,,,14,,60,75
30096,note_on,,,,,6,0,5,,,,4,,60,62
30096,note_on,,,,,6,0,6,,,,5,,41,62
30096,note_on,,,,,6,0,4,,,,3,,76,62
30096,note_on,,,,,6,0,8,,,,7,,79,75
30096,note_on,,,,,3,0,1,,,,0,,69,127
30096,note_on,,,,,6,0,7,,,,6,,79,127
30117,note_off,,,,,21,0,4,,,,3,,76,0
30117,note_off,,,,,21,0,9,,,,8,,76,0
30117,note_off,,,,,21,0,2,,,,1,,65,0
30117,note_off,,,,,21,0,7,,,,6,,79,0
30117,note_off,,,,,21,0,3,,,,2,,79,0
30117,note_off,,,,,21,0,8,,,,7,,79,0
30117,note_off,,,,,21,0,1,,,,0,,69,0
30120,note_on,,,,,3,0,7,,,,6,,77,127
30120,note_on,,,,,3,0,8,,,,7,,77,75
30120,note_on,,,,,3,0,1,,,,0,,70,127
30120,note_on,,,,,3,0,9,,,,8,,74,75
30120,note_on,,,,,3,0,3,,,,2,,77,62
30120,note_on,,,,,3,0,4,,,,3,,74,62
30120,note_on,,,,,3,0,2,,,,1,,67,127
30138,note_off,,,,,42,0,12,,,,13,,60,0
30138,note_off,,,,,0,0,12,,,,13,,41,0
30138,note_off,,,,,0,0,12,,,,13,,69,0
30138,note_off,,,,,42,0,5,,,,4,,60,0
30138,note_off,,,,,42,0,10,,,,11,,41,0
30138,note_off,,,,,42,0,6,,,,5,,41,0
30138,note_off,,,,,42,0,11,,,,12,,29,0
30138,note_off,,,,,42,0,13,,,,14,,60,0
30141,note_off,,,,,21,0,2,,,,1,,67,0
30141,note_off,,,,,21,0,3,,,,2,,77,0
30141,note_off,,,,,21,0,8,,,,7,,77,0
30141,note_off,,,,,21,0,4,,,,3,,74,0
30141,note_off,,,,,21,0,7,,,,6,,77,0
30141,note_off,,,,,21,0,1,,,,0,,70,0
30141,note_off,,,,,21,0,9,,,,8,,74,0
30144,note_on,,,,,3,0,7,,,,6,,76,127
30144,note_on,,,,,3,0,4,,,,3,,72,62
30144,note_on,,,,,6,0,13,,,,14,,65,75
30144,note_on,,,,,3,0,9,,,,8,,72,75
30144,note_on,,,,,3,0,1,,,,0,,72,127
30144,note_on,,,,,6,0,5,,,,4,,65,62
30144,note_on,,,,,3,0,3,,,,2,,76,62
30144,note_on,,,,,3,0,8,,,,7,,76,75
30144,note_on,,,,,3,0,2,,,,1,,69,127
30165,note_off,,,,,21,0,9,,,,8,,72,0
30165,note_off,,,,,21,0,3,,,,2,,76,0
30165,note_off,,,,,21,0,4,,,,3,,72,0
30165,note_off,,,,,21,0,8,,,,7,,76,0
30165,note_off,,,,,21,0,7,,,,6,,76,0
30168,note_on,,,,,3,0,9,,,,8,,71,75
30168,note_on,,,,,3,0,4,,,,3,,71,62
30168,note_on,,,,,3,0,3,,,,2,,74,62
30168,note_on,,,,,3,0,8,,,,7,,74,75
30168,note_on,,,,,3,0,7,,,,6,,74,127
30186,note_off,,,,,42,0,13,,,,14,,65,0
30186,note_off,,,,,42,0,5,,,,4,,65,0
30186,note_off,,,,,42,0,1,,,,0,,72,0
30186,note_off,,,,,42,0,2,,,,1,,69,0
30189,note_off,,,,,21,0,8,,,,7,,74,0
30189,note_off,,,,,21,0,4,,,,3,,71,0
30189,note_off,,,,,21,0,9,,,,8,,71,0
30189,note_off,,,,,21,0,3,,,,2,,74,0
30189,note_off,,,,,21,0,7,,,,6,,74,0
30192,note_on,,,,,6,0,1,,,,0,,67,127
30192,note_on,,,,,54,0,6,,,,5,,48,62
30192,note_on,,,,,54,0,11,,,,12,,36,49
30192,note_on,,,,,6,0,5,,,,4,,67,62
30192,note_on,,,,,54,0,10,,,,11,,48,49
30192,note_on,,,,,6,0,2,,,,1,,60,127
30192,note_on,,,,,0,0,12,,,,13,,48,49
30192,note_on,,,,,3,0,7,,,,6,,76,127
30192,note_on,,,,,6,0,13,,,,14,,67,75
30192,note_on,,,,,3,0,9,,,,8,,72,75
30192,note_on,,,,,54,0,12,,,,13,,67,49
30192,note_on,,,,,0,0,12,,,,13,,76,49
30192,note_on,,,,,3,0,8,,,,7,,76,75
30192,note_on,,,,,3,0,4,,,,3,,72,62
30192,note_on,,,,,3,0,3,,,,2,,76,62
30213,note_off,,,,,21,0,4,,,,3,,72,0
30213,note_off,,,,,21,0,9,,,,8,,72,0
30213,note_off,,,,,21,0,8,,,,7,,76,0
30213,note_off,,,,,21,0,3,,,,2,,76,0
30216,note_on,,,,,3,0,4,,,,3,,74,62
30216,note_on,,,,,3,0,8,,,,7,,77,75
30216,note_on,,,,,3,0,3,,,,2,,77,62
30216,note_on,,,,,3,0,9,,,,8,,74,75
30234,note_off,,,,,0,0,12,,,,13,,48,0
30234,note_off,,,,,0,0,12,,,,13,,76,0
30234,note_off,,,,,42,0,12,,,,13,,67,0
30234,note_off,,,,,42,0,2,,,,1,,60,0
30234,note_off,,,,,42,0,10,,,,11,,48,0
30234,note_off,,,,,42,0,13,,,,14,,67,0
30234,note_off,,,,,42,0,1,,,,0,,67,0
30234,note_off,,,,,42,0,5,,,,4,,67,0
30234,note_off,,,,,42,0,11,,,,12,,36,0
30234,note_off,,,,,42,0,7,,,,6,,76,0
30234,note_off,,,,,42,0,6,,,,5,,48,0
30237,note_off,,,,,21,0,3,,,,2,,77,0
30237,note_off,,,,,21,0,9,,,,8,,74,0
30237,note_off,,,,,21,0,4,,,,3,,74,0
30237,note_off,,,,,21,0,8,,,,7,,77,0
30240,note_on,,,,,3,0,9,,,,8,,76,75
30240,note_on,,,,,6,0,1,,,,0,,67,127
30240,note_on,,,,,6,0,2,,,,1,,60,127
30240,note_on,,,,,6,0,10,,,,11,,48,49
30240,note_on,,,,,3,0,3,,,,2,,79,62
30240,note_on,,,,,6,0,13,,,,14,,67,75
30240,note_on,,,,,6,0,6,,,,5,,48,62
30240,note_on,,,,,6,0,5,,,,4,,67,62
30240,note_on,,,,,3,0,8,,,,7,,79,75
30240,note_on,,,,,6,0,11,,,,12,,36,49
30240,note_on,,,,,6,0,12,,,,13,,67,49
30240,note_on,,,,,0,0,12,,,,13,,76,49
30240,note_on,,,,,3,0,4,,,,3,,76,62
30240,note_on,,,,,0,0,12,,,,13,,48,49
30240,note_on,,,,,6,0,7,,,,6,,72,127
30250,note_off,,,,,10,0,8,,,,7,,79,0
30250,note_off,,,,,10,0,9,,,,8,,76,0
30250,note_off,,,,,10,0,3,,,,2,,79,0
30250,note_off,,,,,10,0,4,,,,3,,76,0
30252,note_on,,,,,2,0,8,,,,7,,77,75
30252,note_on,,,,,2,0,3,,,,2,,77,62
30252,note_on,,,,,2,0,4,,,,3,,74,62
30252,note_on,,,,,2,0,9,,,,8,,74,75
30261,note_off,,,,,21,0,1,,,,0,,67,0
30261,note_off,,,,,21,0,2,,,,1,,60,0
30262,note_off,,,,,10,0,3,,,,2,,77,0
30262,note_off,,,,,10,0,4,,,,3,,74,0
30262,note_off,,,,,10,0,9,,,,8,,74,0
30262,note_off,,,,,10,0,8,,,,7,,77,0
30264,note_on,,,,,2,0,9,,,,8,,76,75
30264,note_on,,,,,3,0,1,,,,0,,67,127
30264,note_on,,,,,2,0,4,,,,3,,76,62
30264,note_on,,,,,3,0,2,,,,1,,60,127
30264,note_on,,,,,2,0,3,,,,2,,79,62
30264,note_on,,,,,2,0,8,,,,7,,79,75
30274,note_off,,,,,10,0,4,,,,3,,76,0
30274,note_off,,,,,10,0,8,,,,7,,79,0
30274,note_off,,,,,10,0,3,,,,2,,79,0
30274,note_off,,,,,10,0,9,,,,8,,76,0
30276,note_on,,,,,2,0,9,,,,8,,74,75
30276,note_on,,,,,2,0,4,,,,3,,74,62
30276,note_on,,,,,2,0,8,,,,7,,77,75
30276,note_on,,,,,2,0,3,,,,2,,77,62
30282,note_off,,,,,42,0,6,,,,5,,48,0
30282,note_off,,,,,42,0,7,,,,6,,72,0
30282,note_off,,,,,0,0,12,,,,13,,76,0
30282,note_off,,,,,42,0,11,,,,12,,36,0
30282,note_off,,,,,42,0,12,,,,13,,67,0
30282,note_off,,,,,0,0,12,,,,13,,48,0
30282,note_off,,,,,42,0,10,,,,11,,48,0
30282,note_off,,,,,42,0,13,,,,14,,67,0
30282,note_off,,,,,42,0,5,,,,4,,67,0
30285,note_off,,,,,21,0,1,,,,0,,67,0
30285,note_off,,,,,21,0,2,,,,1,,60,0
30286,note_off,,,,,10,0,9,,,,8,,74,0
30286,note_off,,,,,10,0,3,,,,2,,77,0
30286,note_off,,,,,10,0,4,,,,3,,74,0
30286,note_off,,,,,10,0,8,,,,7,,77,0
30288,note_on,,,,,6,0,11,,,,12,,36,49
30288,note_on,,,,,2,0,4,,,,3,,76,62
30288,note_on,,,,,6,0,7,,,,6,,67,127
30288,note_on,,,,,2,0,3,,,,2,,79,62
30288,note_on,,,,,3,0,2,,,,1,,60,127
30288,note_on,,,,,6,0,6,,,,5,,48,62
30288,note_on,,,,,6,0,5,,,,4,,71,62
30288,note_on,,,,,6,0,13,,,,14,,71,75
30288,note_on,,,,,6,0,10,,,,11,,48,49
30288,note_on,,,,,3,0,1,,,,0,,67,127
30288,note_on,,,,,6,0,12,,,,13,,67,49
30288,note_on,,,,,0,0,12,,,,13,,74,49
30288,note_on,,,,,0,0,12,,,,13,,48,49
30288,note_on,,,,,2,0,8,,,,7,,79,75
30288,note_on,,,,,2,0,9,,,,8,,76,75
30298,note_off,,,,,10,0,4,,,,3,,76,0
30298,note_off,,,,,10,0,8,,,,7,,79,0
30298,note_off,,,,,10,0,3,,,,2,,79,0
30298,note_off,,,,,10,0,9,,,,8,,76,0
30300,note_on,,,,,2,0,9,,,,8,,74,75
30300,note_on,,,,,2,0,3,,,,2,,77,62
30300,note_on,,,,,2,0,4,,,,3,,74,62
30300,note_on,,,,,2,0,8,,,,7,,77,75
30309,note_off,,,,,21,0,2,,,,1,,60,0
30309,note_off,,,,,21,0,1,,,,0,,67,0
30310,note_off,,,,,10,0,9,,,,8,,74,0
30310,note_off,,,,,10,0,8,,,,7,,77,0
30310,note_off,,,,,10,0,4,,,,3,,74,0
30310,note_off,,,,,10,0,3,,,,2,,77,0
30312,note_on,,,,,2,0,9,,,,8,,72,75
30312,note_on,,,,,2,0,4,,,,3,,72,62
30312,note_on,,,,,3,0,1,,,,0,,67,127
30312,note_on,,,,,3,0,2,,,,1,,60,127
30312,note_on,,,,,2,0,8,,,,7,,76,75
30312,note_on,,,,,2,0,3,,,,2,,76,62
30322,note_off,,,,,10,0,9,,,,8,,72,0
30322,note_off,,,,,10,0,8,,,,7,,76,0
30322,note_off,,,,,10,0,4,,,,3,,72,0
30322,note_off,,,,,10,0,3,,,,2,,76,0
30324,note_on,,,,,2,0,3,,,,2,,77,62
30324,note_on,,,,,2,0,9,,,,8,,74,75
30324,note_on,,,,,2,0,4,,,,3,,74,62
30324,note_on,,,,,2,0,8,,,,7,,77,75
30330,note_off,,,,,42,0,5,,,,4,,71,0
30330,note_off,,,,,42,0,6,,,,5,,48,0
30330,note_off,,,,,42,0,11,,,,12,,36,0
30330,note_off,,,,,42,0,13,,,,14,,71,0
30330,note_off,,,,,42,0,12,,,,13,,67,0
30330,note_off,,,,,0,0,12,,,,13,,74,0
30330,note_off,,,,,0,0,12,,,,13,,48,0
30330,note_off,,,,,42,0,10,,,,11,,48,0
30333,note_off,,,,,21,0,1,,,,0,,67,0
30333,note_off,,,,,21,0,2,,,,1,,60,0
30334,note_off,,,,,10,0,3,,,,2,,77,0
30334,note_off,,,,,10,0,9,,,,8,,74,0
30334,note_off,,,,,10,0,8,,,,7,,77,0
30334,note_off,,,,,10,0,4,,,,3,,74,0
30336,note_on,,,,,6,0,13,,,,14,,72,75
30336,note_on,,,,,6,0,5,,,,4,,72,62
30336,note_on,,,,,2,0,3,,,,2,,79,62
30336,note_on,,,,,6,0,6,,,,5,,48,62
30336,note_on,,,,,6,0,11,,,,12,,36,49
30336,note_on,,,,,2,0,4,,,,3,,76,62
30336,note_on,,,,,2,0,9,,,,8,,76,75
30336,note_on,,,,,6,0,10,,,,11,,48,49
30336,note_on,,,,,6,0,12,,,,13,,67,49
30336,note_on,,,,,3,0,1,,,,0,,67,127
30336,note_on,,,,,3,0,2,,,,1,,60,127
30336,note_on,,,,,0,0,12,,,,13,,48,49
30336,note_on,,,,,0,0,12,,,,13,,76,49
30336,note_on,,,,,2,0,8,,,,7,,79,75
30357,note_off,,,,,21,0,11,,,,12,,36,0
30357,note_off,,,,,21,0,12,,,,13,,48,0
30357,note_off,,,,,69,0,7,,,,6,,67,0
30357,note_off,,,,,21,0,10,,,,11,,48,0
30360,note_on,,,,,3,0,12,,,,13,,50,49
30360,note_on,,,,,3,0,7,,,,6,,69,127
30360,note_on,,,,,3,0,11,,,,12,,38,49
30360,note_on,,,,,3,0,10,,,,11,,50,49
30378,note_off,,,,,42,0,8,,,,7,,79,0
30378,note_off,,,,,42,0,3,,,,2,,79,0
30378,note_off,,,,,42,0,2,,,,1,,60,0
30378,note_off,,,,,42,0,1,,,,0,,67,0
30381,note_off,,,,,21,0,10,,,,11,,50,0
30381,note_off,,,,,21,0,12,,,,13,,50,0
30381,note_off,,,,,21,0,7,,,,6,,69,0
30381,note_off,,,,,21,0,11,,,,12,,38,0
30384,note_on,,,,,6,0,8,,,,7,,72,75
30384,note_on,,,,,3,0,12,,,,13,,52,49
30384,note_on,,,,,3,0,7,,,,6,,70,127
30384,note_on,,,,,6,0,3,,,,2,,72,62
30384,note_on,,,,,3,0,11,,,,12,,40,49
30384,note_on,,,,,3,0,10,,,,11,,52,49
30394,note_off,,,,,10,0,7,,,,6,,70,0
30396,note_on,,,,,2,0,7,,,,6,,69,127
30405,note_off,,,,,21,0,11,,,,12,,40,0
30405,note_off,,,,,21,0,12,,,,13,,52,0
30405,note_off,,,,,21,0,10,,,,11,,52,0
30406,note_off,,,,,10,0,7,,,,6,,69,0
30408,note_on,,,,,3,0,11,,,,12,,38,49
30408,note_on,,,,,3,0,10,,,,11,,50,49
30408,note_on,,,,,3,0,12,,,,13,,50,49
30408,note_on,,,,,2,0,7,,,,6,,70,127
30418,note_off,,,,,10,0,7,,,,6,,70,0
30420,note_off,,,,,84,0,6,,,,5,,48,0
30420,note_on,,,,,2,0,7,,,,6,,69,127
30420,note_off,,,,,84,0,4,,,,3,,76,0
30420,note_off,,,,,0,0,12,,,,13,,76,0
30420,note_off,,,,,84,0,13,,,,14,,72,0
30420,note_off,,,,,12,0,12,,,,13,,67,0
30420,note_off,,,,,84,0,9,,,,8,,76,0
30420,note_off,,,,,84,0,5,,,,4,,72,0
30426,note_off,,,,,42,0,3,,,,2,,72,0
30426,note_off,,,,,42,0,8,,,,7,,72,0
30429,note_off,,,,,9,0,12,,,,13,,50,0
30429,note_off,,,,,21,0,10,,,,11,,50,0
30429,note_off,,,,,21,0,11,,,,12,,38,0
30430,note_off,,,,,10,0,7,,,,6,,69,0
30432,note_on,,,,,2,0,7,,,,6,,70,127
30432,note_on,,,,,3,0,12,,,,13,,52,49
30432,note_on,,,,,3,0,11,,,,12,,40,49
30432,note_on,,,,,3,0,10,,,,11,,52,49
30442,note_off,,,,,10,0,7,,,,6,,70,0
30444,note_on,,,,,2,0,7,,,,6,,69,127
30453,note_off,,,,,21,0,12,,,,13,,52,0
30453,note_off,,,,,21,0,11,,,,12,,40,0
30453,note_off,,,,,21,0,10,,,,11,,52,0
30454,note_off,,,,,10,0,7,,,,6,,69,0
30456,note_on,,,,,3,0,11,,,,12,,36,49
30456,note_on,,,,,3,0,10,,,,11,,48,49
30456,note_on,,,,,2,0,7,,,,6,,67,127
30456,note_on,,,,,3,0,12,,,,13,,48,49
30466,note_off,,,,,10,0,7,,,,6,,67,0
30468,note_on,,,,,2,0,7,,,,6,,69,127
30477,note_off,,,,,21,0,11,,,,12,,36,0
30477,note_off,,,,,21,0,10,,,,11,,48,0
30477,note_off,,,,,21,0,12,,,,13,,48,0
30478,note_off,,,,,10,0,7,,,,6,,69,0
30480,note_on,,,,,2,0,7,,,,6,,70,127
30480,note_on,,,,,3,0,10,,,,11,,55,49
30480,note_on,,,,,3,0,11,,,,12,,43,49
30480,note_on,,,,,3,0,12,,,,13,,55,49
30501,note_off,,,,,21,0,11,,,,12,,43,0
30501,note_off,,,,,21,0,7,,,,6,,70,0
30501,note_off,,,,,21,0,12,,,,13,,55,0
30501,note_off,,,,,21,0,10,,,,11,,55,0
30504,note_on,,,,,3,0,11,,,,12,,45,49
30504,note_on,,,,,3,0,7,,,,6,,69,127
30504,note_on,,,,,3,0,10,,,,11,,57,49
30504,note_on,,,,,3,0,12,,,,13,,57,49
30525,note_off,,,,,21,0,12,,,,13,,57,0
30525,note_off,,,,,21,0,7,,,,6,,69,0
30525,note_off,,,,,21,0,11,,,,12,,45,0
30525,note_off,,,,,21,0,10,,,,11,,57,0
30528,note_on,,,,,3,0,12,,,,13,,58,49
30528,note_on,,,,,3,0,11,,,,12,,46,49
30528,note_on,,,,,3,0,7,,,,6,,67,127
30528,note_on,,,,,3,0,10,,,,11,,58,49
30549,note_off,,,,,21,0,11,,,,12,,46,0
30549,note_off,,,,,21,0,10,,,,11,,58,0
30549,note_off,,,,,21,0,7,,,,6,,67,0
30549,note_off,,,,,21,0,12,,,,13,,58,0
30552,note_on,,,,,3,0,7,,,,6,,65,127
30552,note_on,,,,,3,0,10,,,,11,,57,49
30552,note_on,,,,,3,0,12,,,,13,,57,49
30552,note_on,,,,,3,0,11,,,,12,,45,49
30573,note_off,,,,,21,0,12,,,,13,,57,0
30573,note_off,,,,,21,0,11,,,,12,,45,0
30573,note_off,,,,,21,0,7,,,,6,,65,0
30573,note_off,,,,,21,0,10,,,,11,,57,0
30576,note_on,,,,,3,0,10,,,,11,,58,49
30576,note_on,,,,,3,0,12,,,,13,,58,49
30576,note_on,,,,,3,0,11,,,,12,,46,49
30576,note_on,,,,,3,0,7,,,,6,,67,127
30597,note_off,,,,,21,0,10,,,,11,,58,0
30597,note_off,,,,,21,0,12,,,,13,,58,0
30597,note_off,,,,,21,0,11,,,,12,,46,0
30597,note_off,,,,,21,0,7,,,,6,,67,0
30600,note_on,,,,,3,0,7,,,,6,,64,127
30600,note_on,,,,,3,0,10,,,,11,,55,49
30600,note_on,,,,,3,0,12,,,,13,,55,49
30600,note_on,,,,,3,0,11,,,,12,,43,49
30621,note_off,,,,,21,0,11,,,,12,,43,0
30621,note_off,,,,,21,0,12,,,,13,,55,0
30621,note_off,,,,,21,0,7,,,,6,,64,0
30621,note_off,,,,,21,0,10,,,,11,,55,0
30624,note_on,,,,,3,0,12,,,,13,,57,49
30624,note_on,,,,,3,0,7,,,,6,,72,127
30624,note_on,,,,,3,0,11,,,,12,,45,49
30624,note_on,,,,,3,0,10,,,,11,,57,49
30645,note_off,,,,,21,0,10,,,,11,,57,0
30645,note_off,,,,,21,0,11,,,,12,,45,0
30645,note_off,,,,,21,0,7,,,,6,,72,0
30645,note_off,,,,,21,0,12,,,,13,,57,0
30648,note_on,,,,,3,0,10,,,,11,,58,49
30648,note_on,,,,,3,0,11,,,,12,,46,49
30648,note_on,,,,,3,0,12,,,,13,,58,49
30648,note_on,,,,,3,0,7,,,,6,,67,127
30669,note_off,,,,,21,0,11,,,,12,,46,0
30669,note_off,,,,,21,0,12,,,,13,,58,0
30669,note_off,,,,,21,0,10,,,,11,,58,0
30669,note_off,,,,,21,0,7,,,,6,,67,0
30672,note_on,,,,,3,0,7,,,,6,,69,127
30672,note_on,,,,,3,0,12,,,,13,,60,49
30672,note_on,,,,,3,0,11,,,,12,,48,49
30672,note_on,,,,,3,0,10,,,,11,,60,49
30693,note_off,,,,,21,0,10,,,,11,,60,0
30693,note_off,,,,,21,0,11,,,,12,,48,0
30693,note_off,,,,,21,0,7,,,,6,,69,0
30693,note_off,,,,,21,0,12,,,,13,,60,0
30696,note_on,,,,,3,0,11,,,,12,,45,49
30696,note_on,,,,,3,0,10,,,,11,,57,49
30696,note_on,,,,,3,0,12,,,,13,,57,49
30696,note_on,,,,,3,0,7,,,,6,,64,127
30717,note_off,,,,,21,0,12,,,,13,,57,0
30717,note_off,,,,,21,0,10,,,,11,,57,0
30717,note_off,,,,,21,0,11,,,,12,,45,0
30717,note_off,,,,,21,0,7,,,,6,,64,0
30720,note_on,,,,,3,0,11,,,,12,,50,49
30720,note_on,,,,,3,0,12,,,,13,,62,49
30720,note_on,,,,,3,0,7,,,,6,,65,127
30720,note_on,,,,,3,0,10,,,,11,,62,49
30741,note_off,,,,,21,0,7,,,,6,,65,0
30741,note_off,,,,,21,0,10,,,,11,,62,0
30741,note_off,,,,,21,0,11,,,,12,,50,0
30741,note_off,,,,,21,0,12,,,,13,,62,0
30744,note_on,,,,,3,0,7,,,,6,,64,127
30744,note_on,,,,,3,0,11,,,,12,,48,49
30744,note_on,,,,,3,0,12,,,,13,,60,49
30744,note_on,,,,,3,0,10,,,,11,,60,49
30765,note_off,,,,,21,0,7,,,,6,,64,0
30765,note_off,,,,,21,0,11,,,,12,,48,0
30765,note_off,,,,,21,0,10,,,,11,,60,0
30765,note_off,,,,,21,0,12,,,,13,,60,0
30768,note_on,,,,,3,0,11,,,,12,,50,49
30768,note_on,,,,,3,0,10,,,,11,,62,49
30768,note_on,,,,,3,0,7,,,,6,,65,127
30768,note_on,,,,,3,0,12,,,,13,,62,49
30789,note_off,,,,,21,0,10,,,,11,,62,0
30789,note_off,,,,,21,0,12,,,,13,,62,0
30789,note_off,,,,,21,0,7,,,,6,,65,0
30789,note_off,,,,,21,0,11,,,,12,,50,0
30792,note_on,,,,,3,0,10,,,,11,,58,49
30792,note_on,,,,,3,0,12,,,,13,,58,49
30792,note_on,,,,,3,0,7,,,,6,,70,127
30792,note_on,,,,,3,0,11,,,,12,,46,49
30813,note_off,,,,,21,0,12,,,,13,,58,0
30813,note_off,,,,,21,0,10,,,,11,,58,0
30813,note_off,,,,,21,0,7,,,,6,,70,0
30813,note_off,,,,,21,0,11,,,,12,,46,0
30816,note_on,,,,,0,0,7,,,,6,,60,127
30816,note_on,,,,,3,0,7,,,,6,,67,127
30816,note_on,,,,,3,0,11,,,,12,,48,49
30816,note_on,,,,,3,0,12,,,,13,,60,49
30816,note_on,,,,,3,0,10,,,,11,,60,49
30858,note_off,,,,,42,0,11,,,,12,,48,0
30858,note_off,,,,,42,0,10,,,,11,,60,0
30858,note_off,,,,,42,0,12,,,,13,,60,0
30864,note_on,,,,,6,0,12,,,,13,,48,49
30864,note_on,,,,,6,0,11,,,,12,,36,49
30864,note_on,,,,,6,0,10,,,,11,,48,49
30879,note_off,,,,,63,0,7,,,,6,,67,0
30888,note_on,,,,,9,0,7,,,,6,,65,127
30900,note_off,,,,,12,0,7,,,,6,,60,0
30906,note_off,,,,,42,0,10,,,,11,,48,0
30906,note_off,,,,,42,0,11,,,,12,,36,0
30906,note_off,,,,,42,0,12,,,,13,,48,0
30909,note_off,,,,,9,0,7,,,,6,,65,0
30912,note_on,,,,,6,0,12,,,,13,,69,49
30912,note_on,,,,,3,0,7,,,,6,,65,127
30912,note_on,,,,,0,0,12,,,,13,,72,49
30912,note_on,,,,,0,0,12,,,,13,,53,49
30912,note_on,,,,,534,0,1,,,,0,,65,127
30912,note_on,,,,,492,0,6,,,,5,,53,62
30912,note_on,,,,,534,0,2,,,,1,,57,127
30912,note_on,,,,,6,0,11,,,,12,,41,49
30912,note_on,,,,,6,0,10,,,,11,,53,49
30933,note_off,,,,,21,0,1,,,,0,,65,0
30936,note_on,,,,,3,0,1,,,,0,,67,127
30954,note_off,,,,,42,0,2,,,,1,,57,0
30954,note_off,,,,,42,0,10,,,,11,,53,0
30954,note_off,,,,,42,0,7,,,,6,,65,0
30954,note_off,,,,,42,0,11,,,,12,,41,0
30954,note_off,,,,,42,0,6,,,,5,,53,0
30954,note_off,,,,,0,0,12,,,,13,,72,0
30954,note_off,,,,,0,0,12,,,,13,,53,0
30954,note_off,,,,,42,0,12,,,,13,,69,0
30957,note_off,,,,,21,0,1,,,,0,,67,0
30960,note_on,,,,,0,0,12,,,,13,,77,49
30960,note_on,,,,,6,0,10,,,,11,,57,49
30960,note_on,,,,,6,0,7,,,,6,,65,127
30960,note_on,,,,,6,0,11,,,,12,,45,49
30960,note_on,,,,,6,0,2,,,,1,,57,127
30960,note_on,,,,,540,0,13,,,,14,,57,75
30960,note_on,,,,,6,0,6,,,,5,,57,62
30960,note_on,,,,,534,0,3,,,,2,,65,62
30960,note_on,,,,,540,0,5,,,,4,,60,62
30960,note_on,,,,,534,0,8,,,,7,,65,75
30960,note_on,,,,,540,0,9,,,,8,,60,75
30960,note_on,,,,,0,0,12,,,,13,,57,49
30960,note_on,,,,,6,0,12,,,,13,,72,49
30960,note_on,,,,,540,0,4,,,,3,,65,62
30960,note_on,,,,,3,0,1,,,,0,,65,127
30981,note_off,,,,,21,0,1,,,,0,,65,0
30981,note_off,,,,,21,0,2,,,,1,,57,0
30984,note_on,,,,,3,0,1,,,,0,,67,127
30984,note_on,,,,,3,0,2,,,,1,,57,127
31002,note_off,,,,,42,0,12,,,,13,,72,0
31002,note_off,,,,,42,0,10,,,,11,,57,0
31002,note_off,,,,,42,0,11,,,,12,,45,0
31002,note_off,,,,,42,0,5,,,,4,,60,0
31002,note_off,,,,,42,0,4,,,,3,,65,0
31002,note_off,,,,,42,0,7,,,,6,,65,0
31002,note_off,,,,,0,0,12,,,,13,,57,0
31002,note_off,,,,,42,0,8,,,,7,,65,0
31002,note_off,,,,,42,0,9,,,,8,,60,0
31002,note_off,,,,,42,0,3,,,,2,,65,0
31002,note_off,,,,,42,0,6,,,,5,,57,0
31002,note_off,,,,,0,0,12,,,,13,,77,0
31002,note_off,,,,,42,0,13,,,,14,,57,0
31005,note_off,,,,,21,0,2,,,,1,,57,0
31005,note_off,,,,,21,0,1,,,,0,,67,0
31008,note_on,,,,,0,0,12,,,,13,,81,49
31008,note_on,,,,,6,0,8,,,,7,,65,75
31008,note_on,,,,,6,0,7,,,,6,,65,127
31008,note_on,,,,,3,0,2,,,,1,,57,127
31008,note_on,,,,,6,0,9,,,,8,,60,75
31008,note_on,,,,,6,0,11,,,,12,,48,49
31008,note_on,,,,,6,0,10,,,,11,,60,49
31008,note_on,,,,,6,0,3,,,,2,,65,62
31008,note_on,,,,,6,0,6,,,,5,,60,62
31008,note_on,,,,,6,0,12,,,,13,,77,49
31008,note_on,,,,,0,0,12,,,,13,,60,49
31008,note_on,,,,,3,0,1,,,,0,,69,127
31008,note_on,,,,,6,0,5,,,,4,,60,62
31008,note_on,,,,,6,0,4,,,,3,,65,62
31008,note_on,,,,,6,0,13,,,,14,,57,75
31029,note_off,,,,,21,0,1,,,,0,,69,0
31029,note_off,,,,,21,0,2,,,,1,,57,0
31032,note_on,,,,,3,0,1,,,,0,,67,127
31032,note_on,,,,,3,0,2,,,,1,,57,127
31050,note_off,,,,,42,0,5,,,,4,,60,0
31050,note_off,,,,,42,0,8,,,,7,,65,0
31050,note_off,,,,,42,0,4,,,,3,,65,0
31050,note_off,,,,,42,0,9,,,,8,,60,0
31050,note_off,,,,,42,0,10,,,,11,,60,0
31050,note_off,,,,,0,0,12,,,,13,,60,0
31050,note_off,,,,,0,0,12,,,,13,,81,0
31050,note_off,,,,,42,0,12,,,,13,,77,0
31050,note_off,,,,,42,0,6,,,,5,,60,0
31050,note_off,,,,,42,0,11,,,,12,,48,0
31050,note_off,,,,,42,0,7,,,,6,,65,0
31050,note_off,,,,,42,0,3,,,,2,,65,0
31050,note_off,,,,,42,0,13,,,,14,,57,0
31053,note_off,,,,,21,0,1,,,,0,,67,0
31053,note_off,,,,,21,0,2,,,,1,,57,0
31056,note_on,,,,,0,0,12,,,,13,,57,49
31056,note_on,,,,,0,0,12,,,,13,,77,49
31056,note_on,,,,,6,0,12,,,,13,,72,49
31056,note_on,,,,,6,0,13,,,,14,,57,75
31056,note_on,,,,,6,0,8,,,,7,,65,75
31056,note_on,,,,,6,0,7,,,,6,,65,127
31056,note_on,,,,,6,0,11,,,,12,,45,49
31056,note_on,,,,,6,0,10,,,,11,,57,49
31056,note_on,,,,,6,0,4,,,,3,,65,62
31056,note_on,,,,,6,0,6,,,,5,,57,62
31056,note_on,,,,,6,0,9,,,,8,,60,75
31056,note_on,,,,,3,0,1,,,,0,,65,127
31056,note_on,,,,,6,0,3,,,,2,,65,62
31056,note_on,,,,,6,0,5,,,,4,,60,62
31056,note_on,,,,,3,0,2,,,,1,,57,127
31098,note_off,,,,,42,0,11,,,,12,,45,0
31098,note_off,,,,,42,0,4,,,,3,,65,0
31098,note_off,,,,,42,0,1,,,,0,,65,0
31098,note_off,,,,,42,0,8,,,,7,,65,0
31098,note_off,,,,,42,0,9,,,,8,,60,0
31098,note_off,,,,,42,0,13,,,,14,,57,0
31098,note_off,,,,,42,0,3,,,,2,,65,0
31098,note_off,,,,,42,0,6,,,,5,,57,0
31098,note_off,,,,,42,0,2,,,,1,,57,0
31098,note_off,,,,,0,0,12,,,,13,,57,0
31098,note_off,,,,,0,0,12,,,,13,,77,0
31098,note_off,,,,,42,0,10,,,,11,,57,0
31098,note_off,,,,,42,0,7,,,,6,,65,0
31098,note_off,,,,,42,0,12,,,,13,,72,0
31098,note_off,,,,,42,0,5,,,,4,,60,0
31104,note_on,,,,,6,0,3,,,,2,,69,62
31104,note_on,,,,,0,0,12,,,,13,,53,49
31104,note_on,,,,,6,0,11,,,,12,,41,49
31104,note_on,,,,,0,0,12,,,,13,,72,49
31104,note_on,,,,,6,0,12,,,,13,,69,49
31104,note_on,,,,,6,0,9,,,,8,,65,75
31104,note_on,,,,,6,0,6,,,,5,,53,62
31104,note_on,,,,,6,0,4,,,,3,,65,62
31104,note_on,,,,,6,0,10,,,,11,,53,49
31104,note_on,,,,,6,0,5,,,,4,,60,62
31104,note_on,,,,,6,0,7,,,,6,,69,127
31104,note_on,,,,,6,0,13,,,,14,,60,75
31104,note_on,,,,,6,0,8,,,,7,,69,75
31125,note_off,,,,,21,0,8,,,,7,,69,0
31125,note_off,,,,,21,0,4,,,,3,,65,0
31125,note_off,,,,,21,0,9,,,,8,,65,0
31125,note_off,,,,,21,0,7,,,,6,,69,0
31125,note_off,,,,,21,0,3,,,,2,,69,0
31125,note_off,,,,,21,0,13,,,,14,,60,0
31128,note_on,,,,,3,0,9,,,,8,,64,75
31128,note_on,,,,,3,0,8,,,,7,,67,75
31128,note_on,,,,,3,0,13,,,,14,,58,75
31128,note_on,,,,,3,0,7,,,,6,,67,127
31128,note_on,,,,,3,0,3,,,,2,,67,62
31128,note_on,,,,,3,0,4,,,,3,,64,62
31146,note_off,,,,,42,0,12,,,,13,,69,0
31146,note_off,,,,,42,0,6,,,,5,,53,0
31146,note_off,,,,,0,0,12,,,,13,,72,0
31146,note_off,,,,,42,0,5,,,,4,,60,0
31146,note_off,,,,,42,0,11,,,,12,,41,0
31146,note_off,,,,,0,0,12,,,,13,,53,0
31146,note_off,,,,,42,0,10,,,,11,,53,0
31149,note_off,,,,,21,0,7,,,,6,,67,0
31149,note_off,,,,,21,0,3,,,,2,,67,0
31149,note_off,,,,,21,0,13,,,,14,,58,0
31149,note_off,,,,,21,0,9,,,,8,,64,0
31149,note_off,,,,,21,0,8,,,,7,,67,0
31149,note_off,,,,,21,0,4,,,,3,,64,0
31152,note_on,,,,,3,0,9,,,,8,,65,75
31152,note_on,,,,,3,0,7,,,,6,,69,127
31152,note_on,,,,,6,0,5,,,,4,,60,62
31152,note_on,,,,,3,0,4,,,,3,,65,62
31152,note_on,,,,,3,0,8,,,,7,,69,75
31152,note_on,,,,,3,0,13,,,,14,,60,75
31152,note_on,,,,,3,0,3,,,,2,,69,62
31173,note_off,,,,,21,0,3,,,,2,,69,0
31173,note_off,,,,,21,0,9,,,,8,,65,0
31173,note_off,,,,,21,0,8,,,,7,,69,0
31173,note_off,,,,,21,0,4,,,,3,,65,0
31173,note_off,,,,,21,0,7,,,,6,,69,0
31173,note_off,,,,,21,0,13,,,,14,,60,0
31176,note_on,,,,,3,0,7,,,,6,,65,127
31176,note_on,,,,,3,0,3,,,,2,,65,62
31176,note_on,,,,,3,0,13,,,,14,,57,75
31176,note_on,,,,,3,0,8,,,,7,,65,75
31176,note_on,,,,,3,0,9,,,,8,,60,75
31176,note_on,,,,,3,0,4,,,,3,,60,62
31194,note_off,,,,,42,0,5,,,,4,,60,0
31197,note_off,,,,,21,0,7,,,,6,,65,0
31197,note_off,,,,,21,0,3,,,,2,,65,0
31197,note_off,,,,,21,0,4,,,,3,,60,0
31197,note_off,,,,,21,0,9,,,,8,,60,0
31197,note_off,,,,,21,0,13,,,,14,,57,0
31197,note_off,,,,,21,0,8,,,,7,,65,0
31200,note_on,,,,,3,0,4,,,,3,,67,62
31200,note_on,,,,,0,0,12,,,,13,,72,49
31200,note_on,,,,,0,0,12,,,,13,,52,49
31200,note_on,,,,,3,0,13,,,,14,,64,75
31200,note_on,,,,,102,0,1,,,,0,,67,127
31200,note_on,,,,,6,0,5,,,,4,,64,62
31200,note_on,,,,,54,0,10,,,,11,,52,49
31200,note_on,,,,,54,0,12,,,,13,,67,49
31200,note_on,,,,,3,0,9,,,,8,,67,75
31200,note_on,,,,,54,0,6,,,,5,,52,62
31200,note_on,,,,,3,0,3,,,,2,,72,62
31200,note_on,,,,,54,0,11,,,,12,,40,49
31200,note_on,,,,,102,0,2,,,,1,,60,127
31200,note_on,,,,,3,0,8,,,,7,,72,75
31200,note_on,,,,,3,0,7,,,,6,,72,127
31221,note_off,,,,,21,0,1,,,,0,,67,0
31224,note_on,,,,,3,0,1,,,,0,,69,127
31242,note_off,,,,,42,0,3,,,,2,,72,0
31242,note_off,,,,,42,0,10,,,,11,,52,0
31242,note_off,,,,,42,0,11,,,,12,,40,0
31242,note_off,,,,,42,0,8,,,,7,,72,0
31242,note_off,,,,,42,0,7,,,,6,,72,0
31242,note_off,,,,,42,0,4,,,,3,,67,0
31242,note_off,,,,,42,0,6,,,,5,,52,0
31242,note_off,,,,,42,0,9,,,,8,,67,0
31242,note_off,,,,,0,0,12,,,,13,,52,0
31242,note_off,,,,,42,0,5,,,,4,,64,0
31242,note_off,,,,,42,0,13,,,,14,,64,0
31242,note_off,,,,,0,0,12,,,,13,,72,0
31242,note_off,,,,,42,0,12,,,,13,,67,0
31242,note_off,,,,,42,0,2,,,,1,,60,0
31245,note_off,,,,,21,0,1,,,,0,,69,0
31248,note_on,,,,,6,0,13,,,,14,,64,75
31248,note_on,,,,,6,0,5,,,,4,,64,62
31248,note_on,,,,,6,0,11,,,,12,,43,49
31248,note_on,,,,,6,0,7,,,,6,,72,127
31248,note_on,,,,,6,0,9,,,,8,,67,75
31248,note_on,,,,,6,0,10,,,,11,,55,49
31248,note_on,,,,,6,0,6,,,,5,,55,62
31248,note_on,,,,,6,0,8,,,,7,,72,75
31248,note_on,,,,,6,0,4,,,,3,,67,62
31248,note_on,,,,,3,0,1,,,,0,,67,127
31248,note_on,,,,,6,0,3,,,,2,,72,62
31248,note_on,,,,,0,0,12,,,,13,,55,49
31248,note_on,,,,,6,0,2,,,,1,,60,127
31248,note_on,,,,,6,0,12,,,,13,,72,49
31248,note_on,,,,,0,0,12,,,,13,,76,49
31269,note_off,,,,,21,0,1,,,,0,,67,0
31269,note_off,,,,,21,0,2,,,,1,,60,0
31272,note_on,,,,,3,0,1,,,,0,,69,127
31272,note_on,,,,,3,0,2,,,,1,,60,127
31290,note_off,,,,,42,0,4,,,,3,,67,0
31290,note_off,,,,,0,0,12,,,,13,,76,0
31290,note_off,,,,,42,0,12,,,,13,,72,0
31290,note_off,,,,,42,0,13,,,,14,,64,0
31290,note_off,,,,,0,0,12,,,,13,,55,0
31290,note_off,,,,,42,0,5,,,,4,,64,0
31290,note_off,,,,,42,0,9,,,,8,,67,0
31290,note_off,,,,,42,0,3,,,,2,,72,0
31290,note_off,,,,,42,0,8,,,,7,,72,0
31290,note_off,,,,,42,0,7,,,,6,,72,0
31290,note_off,,,,,42,0,11,,,,12,,43,0
31290,note_off,,,,,42,0,6,,,,5,,55,0
31290,note_off,,,,,42,0,10,,,,11,,55,0
31293,note_off,,,,,21,0,1,,,,0,,69,0
31293,note_off,,,,,21,0,2,,,,1,,60,0
31296,note_on,,,,,6,0,13,,,,14,,64,75
31296,note_on,,,,,3,0,1,,,,0,,70,127
31296,note_on,,,,,6,0,4,,,,3,,67,62
31296,note_on,,,,,6,0,10,,,,11,,60,49
31296,note_on,,,,,6,0,6,,,,5,,60,62
31296,note_on,,,,,6,0,8,,,,7,,72,75
31296,note_on,,,,,6,0,7,,,,6,,72,127
31296,note_on,,,,,6,0,11,,,,12,,48,49
31296,note_on,,,,,6,0,12,,,,13,,76,49
31296,note_on,,,,,0,0,12,,,,13,,79,49
31296,note_on,,,,,0,0,12,,,,13,,60,49
31296,note_on,,,,,6,0,9,,,,8,,67,75
31296,note_on,,,,,3,0,2,,,,1,,60,127
31296,note_on,,,,,6,0,3,,,,2,,72,62
31296,note_on,,,,,6,0,5,,,,4,,64,62
31317,note_off,,,,,21,0,2,,,,1,,60,0
31317,note_off,,,,,21,0,1,,,,0,,70,0
31320,note_on,,,,,3,0,1,,,,0,,69,127
31320,note_on,,,,,3,0,2,,,,1,,60,127
31338,note_off,,,,,42,0,5,,,,4,,64,0
31338,note_off,,,,,42,0,3,,,,2,,72,0
31338,note_off,,,,,42,0,9,,,,8,,67,0
31338,note_off,,,,,42,0,4,,,,3,,67,0
31338,note_off,,,,,42,0,6,,,,5,,60,0
31338,note_off,,,,,42,0,8,,,,7,,72,0
31338,note_off,,,,,42,0,13,,,,14,,64,0
31338,note_off,,,,,0,0,12,,,,13,,60,0
31338,note_off,,,,,42,0,11,,,,12,,48,0
31338,note_off,,,,,42,0,10,,,,11,,60,0
31338,note_off,,,,,0,0,12,,,,13,,79,0
31338,note_off,,,,,42,0,12,,,,13,,76,0
31338,note_off,,,,,42,0,7,,,,6,,72,0
31341,note_off,,,,,21,0,2,,,,1,,60,0
31341,note_off,,,,,21,0,1,,,,0,,69,0
31344,note_on,,,,,6,0,6,,,,5,,52,62
31344,note_on,,,,,3,0,2,,,,1,,60,127
31344,note_on,,,,,0,0,12,,,,13,,72,49
31344,note_on,,,,,6,0,12,,,,13,,67,49
31344,note_on,,,,,6,0,3,,,,2,,72,62
31344,note_on,,,,,6,0,7,,,,6,,72,127
31344,note_on,,,,,0,0,12,,,,13,,52,49
31344,note_on,,,,,6,0,5,,,,4,,64,62
31344,note_on,,,,,6,0,10,,,,11,,52,49
31344,note_on,,,,,6,0,9,,,,8,,67,75
31344,note_on,,,,,6,0,11,,,,12,,40,49
31344,note_on,,,,,3,0,1,,,,0,,67,127
31344,note_on,,,,,6,0,4,,,,3,,67,62
31344,note_on,,,,,6,0,13,,,,14,,64,75
31344,note_on,,,,,6,0,8,,,,7,,72,75
31386,note_off,,,,,42,0,2,,,,1,,60,0
31386,note_off,,,,,42,0,8,,,,7,,72,0
31386,note_off,,,,,42,0,1,,,,0,,67,0
31386,note_off,,,,,42,0,12,,,,13,,67,0
31386,note_off,,,,,0,0,12,,,,13,,52,0
31386,note_off,,,,,42,0,7,,,,6,,72,0
31386,note_off,,,,,42,0,11,,,,12,,40,0
31386,note_off,,,,,42,0,9,,,,8,,67,0
31386,note_off,,,,,42,0,4,,,,3,,67,0
31386,note_off,,,,,42,0,10,,,,11,,52,0
31386,note_off,,,,,42,0,6,,,,5,,52,0
31386,note_off,,,,,42,0,5,,,,4,,64,0
31386,note_off,,,,,42,0,13,,,,14,,64,0
31386,note_off,,,,,42,0,3,,,,2,,72,0
31386,note_off,,,,,0,0,12,,,,13,,72,0
31392,note_on,,,,,6,0,9,,,,8,,72,75
31392,note_on,,,,,6,0,11,,,,12,,36,49
31392,note_on,,,,,6,0,6,,,,5,,48,62
31392,note_on,,,,,6,0,3,,,,2,,76,62
31392,note_on,,,,,6,0,5,,,,4,,67,62
31392,note_on,,,,,6,0,12,,,,13,,64,49
31392,note_on,,,,,0,0,12,,,,13,,67,49
31392,note_on,,,,,0,0,12,,,,13,,48,49
31392,note_on,,,,,6,0,13,,,,14,,67,75
31392,note_on,,,,,6,0,10,,,,11,,48,49
31392,note_on,,,,,6,0,4,,,,3,,72,62
31392,note_on,,,,,6,0,8,,,,7,,76,75
31392,note_on,,,,,6,0,7,,,,6,,76,127
31413,note_off,,,,,21,0,3,,,,2,,76,0
31413,note_off,,,,,21,0,13,,,,14,,67,0
31413,note_off,,,,,21,0,4,,,,3,,72,0
31413,note_off,,,,,21,0,8,,,,7,,76,0
31413,note_off,,,,,21,0,9,,,,8,,72,0
31413,note_off,,,,,21,0,5,,,,4,,67,0
31413,note_off,,,,,21,0,7,,,,6,,76,0
31416,note_on,,,,,3,0,13,,,,14,,65,75
31416,note_on,,,,,3,0,3,,,,2,,74,62
31416,note_on,,,,,3,0,9,,,,8,,71,75
31416,note_on,,,,,3,0,4,,,,3,,71,62
31416,note_on,,,,,3,0,5,,,,4,,65,62
31416,note_on,,,,,3,0,7,,,,6,,74,127
31416,note_on,,,,,3,0,8,,,,7,,74,75
31434,note_off,,,,,42,0,11,,,,12,,36,0
31434,note_off,,,,,42,0,12,,,,13,,64,0
31434,note_off,,,,,0,0,12,,,,13,,67,0
31434,note_off,,,,,0,0,12,,,,13,,48,0
31434,note_off,,,,,42,0,6,,,,5,,48,0
31434,note_off,,,,,42,0,10,,,,11,,48,0
31437,note_off,,,,,21,0,9,,,,8,,71,0
31437,note_off,,,,,21,0,5,,,,4,,65,0
31437,note_off,,,,,21,0,4,,,,3,,71,0
31437,note_off,,,,,21,0,3,,,,2,,74,0
31437,note_off,,,,,21,0,8,,,,7,,74,0
31437,note_off,,,,,21,0,13,,,,14,,65,0
31437,note_off,,,,,21,0,7,,,,6,,74,0
31440,note_on,,,,,3,0,8,,,,7,,76,75
31440,note_on,,,,,3,0,13,,,,14,,67,75
31440,note_on,,,,,3,0,7,,,,6,,76,127
31440,note_on,,,,,3,0,3,,,,2,,76,62
31440,note_on,,,,,3,0,4,,,,3,,72,62
31440,note_on,,,,,3,0,5,,,,4,,67,62
31440,note_on,,,,,3,0,9,,,,8,,72,75
31461,note_off,,,,,21,0,3,,,,2,,76,0
31461,note_off,,,,,21,0,8,,,,7,,76,0
31461,note_off,,,,,21,0,5,,,,4,,67,0
31461,note_off,,,,,21,0,4,,,,3,,72,0
31461,note_off,,,,,21,0,7,,,,6,,76,0
31461,note_off,,,,,21,0,13,,,,14,,67,0
31461,note_off,,,,,21,0,9,,,,8,,72,0
31464,note_on,,,,,3,0,13,,,,14,,64,75
31464,note_on,,,,,3,0,4,,,,3,,67,62
31464,note_on,,,,,3,0,7,,,,6,,72,127
31464,note_on,,,,,3,0,3,,,,2,,72,62
31464,note_on,,,,,3,0,9,,,,8,,67,75
31464,note_on,,,,,3,0,8,,,,7,,72,75
31464,note_on,,,,,3,0,5,,,,4,,64,62
31485,note_off,,,,,21,0,8,,,,7,,72,0
31485,note_off,,,,,21,0,3,,,,2,,72,0
31485,note_off,,,,,21,0,4,,,,3,,67,0
31485,note_off,,,,,21,0,7,,,,6,,72,0
31485,note_off,,,,,21,0,5,,,,4,,64,0
31485,note_off,,,,,21,0,9,,,,8,,67,0
31485,note_off,,,,,21,0,13,,,,14,,64,0
31488,note_on,,,,,54,0,10,,,,11,,50,49
31488,note_on,,,,,54,0,6,,,,5,,50,62
31488,note_on,,,,,3,0,9,,,,8,,74,75
31488,note_on,,,,,3,0,13,,,,14,,69,75
31488,note_on,,,,,3,0,7,,,,6,,77,127
31488,note_on,,,,,54,0,12,,,,13,,69,49
31488,note_on,,,,,0,0,12,,,,13,,77,49
31488,note_on,,,,,0,0,12,,,,13,,50,49
31488,note_on,,,,,54,0,11,,,,12,,38,49
31488,note_on,,,,,3,0,4,,,,3,,74,62
31488,note_on,,,,,3,0,3,,,,2,,77,62
31488,note_on,,,,,102,0,2,,,,1,,65,127
31488,note_on,,,,,102,0,1,,,,0,,69,127
31488,note_on,,,,,3,0,8,,,,7,,77,75
31488,note_on,,,,,3,0,5,,,,4,,69,62
31509,note_off,,,,,21,0,2,,,,1,,65,0
31509,note_off,,,,,21,0,1,,,,0,,69,0
31512,note_on,,,,,3,0,1,,,,0,,70,127
31512,note_on,,,,,3,0,2,,,,1,,67,127
31530,note_off,,,,,42,0,8,,,,7,,77,0
31530,note_off,,,,,42,0,13,,,,14,,69,0
31530,note_off,,,,,42,0,12,,,,13,,69,0
31530,note_off,,,,,0,0,12,,,,13,,77,0
31530,note_off,,,,,42,0,10,,,,11,,50,0
31530,note_off,,,,,42,0,7,,,,6,,77,0
31530,note_off,,,,,0,0,12,,,,13,,50,0
31530,note_off,,,,,42,0,5,,,,4,,69,0
31530,note_off,,,,,42,0,9,,,,8,,74,0
31530,note_off,,,,,42,0,4,,,,3,,74,0
31530,note_off,,,,,42,0,11,,,,12,,38,0
31530,note_off,,,,,42,0,6,,,,5,,50,0
31530,note_off,,,,,42,0,3,,,,2,,77,0
31533,note_off,,,,,21,0,1,,,,0,,70,0
31533,note_off,,,,,21,0,2,,,,1,,67,0
31536,note_on,,,,,0,0,12,,,,13,,77,49
31536,note_on,,,,,6,0,4,,,,3,,74,62
31536,note_on,,,,,6,0,11,,,,12,,41,49
31536,note_on,,,,,6,0,13,,,,14,,69,75
31536,note_on,,,,,6,0,9,,,,8,,74,75
31536,note_on,,,,,0,0,12,,,,13,,53,49
31536,note_on,,,,,6,0,5,,,,4,,69,62
31536,note_on,,,,,3,0,2,,,,1,,65,127
31536,note_on,,,,,6,0,3,,,,2,,77,62
31536,note_on,,,,,6,0,6,,,,5,,53,62
31536,note_on,,,,,6,0,10,,,,11,,53,49
31536,note_on,,,,,6,0,7,,,,6,,77,127
31536,note_on,,,,,6,0,8,,,,7,,77,75
31536,note_on,,,,,3,0,1,,,,0,,69,127
31536,note_on,,,,,6,0,12,,,,13,,74,49
31557,note_off,,,,,21,0,1,,,,0,,69,0
31557,note_off,,,,,21,0,2,,,,1,,65,0
31560,note_on,,,,,3,0,2,,,,1,,67,127
31560,note_on,,,,,3,0,1,,,,0,,70,127
31578,note_off,,,,,42,0,7,,,,6,,77,0
31578,note_off,,,,,42,0,12,,,,13,,74,0
31578,note_off,,,,,0,0,12,,,,13,,77,0
31578,note_off,,,,,0,0,12,,,,13,,53,0
31578,note_off,,,,,42,0,13,,,,14,,69,0
31578,note_off,,,,,42,0,4,,,,3,,74,0
31578,note_off,,,,,42,0,8,,,,7,,77,0
31578,note_off,,,,,42,0,5,,,,4,,69,0
31578,note_off,,,,,42,0,9,,,,8,,74,0
31578,note_off,,,,,42,0,11,,,,12,,41,0
31578,note_off,,,,,42,0,3,,,,2,,77,0
31578,note_off,,,,,42,0,10,,,,11,,53,0
31578,note_off,,,,,42,0,6,,,,5,,53,0
31581,note_off,,,,,21,0,1,,,,0,,70,0
31581,note_off,,,,,21,0,2,,,,1,,67,0
31584,note_on,,,,,6,0,7,,,,6,,77,127
31584,note_on,,,,,3,0,1,,,,0,,72,127
31584,note_on,,,,,6,0,5,,,,4,,69,62
31584,note_on,,,,,3,0,2,,,,1,,69,127
31584,note_on,,,,,6,0,12,,,,13,,69,49
31584,note_on,,,,,6,0,3,,,,2,,77,62
31584,note_on,,,,,0,0,12,,,,13,,77,49
31584,note_on,,,,,0,0,12,,,,13,,50,49
31584,note_on,,,,,6,0,11,,,,12,,38,49
31584,note_on,,,,,6,0,9,,,,8,,74,75
31584,note_on,,,,,6,0,4,,,,3,,74,62
31584,note_on,,,,,6,0,8,,,,7,,77,75
31584,note_on,,,,,6,0,13,,,,14,,69,75
31584,note_on,,,,,6,0,6,,,,5,,50,62
31584,note_on,,,,,6,0,10,,,,11,,50,49
31605,note_off,,,,,21,0,2,,,,1,,69,0
31605,note_off,,,,,21,0,1,,,,0,,72,0
31608,note_on,,,,,3,0,1,,,,0,,70,127
31608,note_on,,,,,3,0,2,,,,1,,67,127
31626,note_off,,,,,42,0,4,,,,3,,74,0
31626,note_off,,,,,42,0,12,,,,13,,69,0
31626,note_off,,,,,42,0,5,,,,4,,69,0
31626,note_off,,,,,42,0,13,,,,14,,69,0
31626,note_off,,,,,42,0,7,,,,6,,77,0
31626,note_off,,,,,42,0,8,,,,7,,77,0
31626,note_off,,,,,0,0,12,,,,13,,77,0
31626,note_off,,,,,42,0,3,,,,2,,77,0
31626,note_off,,,,,42,0,6,,,,5,,50,0
31626,note_off,,,,,42,0,11,,,,12,,38,0
31626,note_off,,,,,42,0,9,,,,8,,74,0
31626,note_off,,,,,42,0,10,,,,11,,50,0
31626,note_off,,,,,0,0,12,,,,13,,50,0
31629,note_off,,,,,21,0,2,,,,1,,67,0
31629,note_off,,,,,21,0,1,,,,0,,70,0
31632,note_on,,,,,6,0,13,,,,14,,69,75
31632,note_on,,,,,3,0,1,,,,0,,69,127
31632,note_on,,,,,6,0,5,,,,4,,69,62
31632,note_on,,,,,6,0,4,,,,3,,72,62
31632,note_on,,,,,6,0,6,,,,5,,45,62
31632,note_on,,,,,3,0,2,,,,1,,65,127
31632,note_on,,,,,6,0,7,,,,6,,77,127
31632,note_on,,,,,6,0,8,,,,7,,77,75
31632,note_on,,,,,6,0,10,,,,11,,45,49
31632,note_on,,,,,0,0,12,,,,13,,72,49
31632,note_on,,,,,6,0,11,,,,12,,33,49
31632,note_on,,,,,6,0,3,,,,2,,77,62
31632,note_on,,,,,0,0,12,,,,13,,45,49
31632,note_on,,,,,6,0,12,,,,13,,65,49
31632,note_on,,,,,6,0,9,,,,8,,72,75
31653,note_off,,,,,21,0,1,,,,0,,69,0
31653,note_off,,,,,21,0,2,,,,1,,65,0
31656,note_on,,,,,3,0,1,,,,0,,70,127
31656,note_on,,,,,3,0,2,,,,1,,67,127
31674,note_off,,,,,42,0,13,,,,14,,69,0
31674,note_off,,,,,0,0,12,,,,13,,45,0
31674,note_off,,,,,0,0,12,,,,13,,72,0
31674,note_off,,,,,42,0,6,,,,5,,45,0
31674,note_off,,,,,42,0,4,,,,3,,72,0
31674,note_off,,,,,42,0,5,,,,4,,69,0
31674,note_off,,,,,42,0,12,,,,13,,65,0
31674,note_off,,,,,42,0,8,,,,7,,77,0
31674,note_off,,,,,42,0,9,,,,8,,72,0
31674,note_off,,,,,42,0,3,,,,2,,77,0
31674,note_off,,,,,42,0,7,,,,6,,77,0
31674,note_off,,,,,42,0,10,,,,11,,45,0
31674,note_off,,,,,42,0,11,,,,12,,33,0
31677,note_off,,,,,21,0,2,,,,1,,67,0
31677,note_off,,,,,21,0,1,,,,0,,70,0
31680,note_on,,,,,6,0,13,,,,14,,60,75
31680,note_on,,,,,6,0,11,,,,12,,29,49
31680,note_on,,,,,6,0,3,,,,2,,79,62
31680,note_on,,,,,3,0,2,,,,1,,65,127
31680,note_on,,,,,6,0,7,,,,6,,79,127
31680,note_on,,,,,6,0,5,,,,4,,60,62
31680,note_on,,,,,6,0,12,,,,13,,60,49
31680,note_on,,,,,0,0,12,,,,13,,41,49
31680,note_on,,,,,6,0,10,,,,11,,41,49
31680,note_on,,,,,6,0,6,,,,5,,41,62
31680,note_on,,,,,3,0,1,,,,0,,69,127
31680,note_on,,,,,6,0,8,,,,7,,79,75
31680,note_on,,,,,6,0,9,,,,8,,76,75
31680,note_on,,,,,0,0,12,,,,13,,69,49
31680,note_on,,,,,6,0,4,,,,3,,76,62
31701,note_off,,,,,21,0,2,,,,1,,65,0
31701,note_off,,,,,21,0,8,,,,7,,79,0
31701,note_off,,,,,21,0,9,,,,8,,76,0
31701,note_off,,,,,21,0,4,,,,3,,76,0
31701,note_off,,,,,21,0,3,,,,2,,79,0
31701,note_off,,,,,21,0,7,,,,6,,79,0
31701,note_off,,,,,21,0,1,,,,0,,69,0
31704,note_on,,,,,3,0,2,,,,1,,67,127
31704,note_on,,,,,3,0,4,,,,3,,74,62
31704,note_on,,,,,3,0,1,,,,0,,70,127
31704,note_on,,,,,3,0,3,,,,2,,77,62
31704,note_on,,,,,3,0,8,,,,7,,77,75
31704,note_on,,,,,3,0,9,,,,8,,74,75
31704,note_on,,,,,3,0,7,,,,6,,77,127
31722,note_off,,,,,42,0,10,,,,11,,41,0
31722,note_off,,,,,0,0,12,,,,13,,69,0
31722,note_off,,,,,0,0,12,,,,13,,41,0
31722,note_off,,,,,42,0,12,,,,13,,60,0
31722,note_off,,,,,42,0,11,,,,12,,29,0
31722,note_off,,,,,42,0,13,,,,14,,60,0
31722,note_off,,,,,42,0,6,,,,5,,41,0
31722,note_off,,,,,42,0,5,,,,4,,60,0
31725,note_off,,,,,21,0,1,,,,0,,70,0
31725,note_off,,,,,21,0,9,,,,8,,74,0
31725,note_off,,,,,21,0,8,,,,7,,77,0
31725,note_off,,,,,21,0,4,,,,3,,74,0
31725,note_off,,,,,21,0,2,,,,1,,67,0
31725,note_off,,,,,21,0,7,,,,6,,77,0
31725,note_off,,,,,21,0,3,,,,2,,77,0
31728,note_on,,,,,6,0,5,,,,4,,65,62
31728,note_on,,,,,3,0,4,,,,3,,72,62
31728,note_on,,,,,3,0,7,,,,6,,76,127
31728,note_on,,,,,3,0,1,,,,0,,72,127
31728,note_on,,,,,3,0,3,,,,2,,76,62
31728,note_on,,,,,3,0,2,,,,1,,69,127
31728,note_on,,,,,3,0,9,,,,8,,72,75
31728,note_on,,,,,3,0,8,,,,7,,76,75
31728,note_on,,,,,6,0,13,,,,14,,65,75
31749,note_off,,,,,21,0,4,,,,3,,72,0
31749,note_off,,,,,21,0,7,,,,6,,76,0
31749,note_off,,,,,21,0,3,,,,2,,76,0
31749,note_off,,,,,21,0,9,,,,8,,72,0
31749,note_off,,,,,21,0,8,,,,7,,76,0
31752,note_on,,,,,3,0,8,,,,7,,74,75
31752,note_on,,,,,3,0,9,,,,8,,71,75
31752,note_on,,,,,3,0,7,,,,6,,74,127
31752,note_on,,,,,3,0,4,,,,3,,71,62
31752,note_on,,,,,3,0,3,,,,2,,74,62
31770,note_off,,,,,42,0,5,,,,4,,65,0
31770,note_off,,,,,42,0,1,,,,0,,72,0
31770,note_off,,,,,42,0,13,,,,14,,65,0
31770,note_off,,,,,42,0,2,,,,1,,69,0
31773,note_off,,,,,21,0,3,,,,2,,74,0
31773,note_off,,,,,21,0,9,,,,8,,71,0
31773,note_off,,,,,21,0,4,,,,3,,71,0
31773,note_off,,,,,21,0,7,,,,6,,74,0
31773,note_off,,,,,21,0,8,,,,7,,74,0
31776,note_on,,,,,0,0,12,,,,13,,48,49
31776,note_on,,,,,3,0,7,,,,6,,76,127
31776,note_on,,,,,3,0,4,,,,3,,72,62
31776,note_on,,,,,3,0,3,,,,2,,76,62
31776,note_on,,,,,0,0,12,,,,13,,76,49
31776,note_on,,,,,54,0,12,,,,13,,67,49
31776,note_on,,,,,54,0,11,,,,12,,36,49
31776,note_on,,,,,54,0,10,,,,11,,48,49
31776,note_on,,,,,3,0,8,,,,7,,76,75
31776,note_on,,,,,6,0,2,,,,1,,60,127
31776,note_on,,,,,6,0,5,,,,4,,67,62
31776,note_on,,,,,54,0,6,,,,5,,48,62
31776,note_on,,,,,6,0,13,,,,14,,67,75
31776,note_on,,,,,6,0,1,,,,0,,67,127
31776,note_on,,,,,3,0,9,,,,8,,72,75
31797,note_off,,,,,21,0,3,,,,2,,76,0
31797,note_off,,,,,21,0,4,,,,3,,72,0
31797,note_off,,,,,21,0,9,,,,8,,72,0
31797,note_off,,,,,21,0,8,,,,7,,76,0
31797,note_off,,,,,21,0,7,,,,6,,76,0
31800,note_on,,,,,3,0,4,,,,3,,74,62
31800,note_on,,,,,3,0,8,,,,7,,77,75
31800,note_on,,,,,3,0,9,,,,8,,74,75
31800,note_on,,,,,3,0,3,,,,2,,77,62
31800,note_on,,,,,3,0,7,,,,6,,77,127
31818,note_off,,,,,0,0,12,,,,13,,48,0
31818,note_off,,,,,42,0,12,,,,13,,67,0
31818,note_off,,,,,42,0,10,,,,11,,48,0
31818,note_off,,,,,0,0,12,,,,13,,76,0
31818,note_off,,,,,42,0,5,,,,4,,67,0
31818,note_off,,,,,42,0,13,,,,14,,67,0
31818,note_off,,,,,42,0,1,,,,0,,67,0
31818,note_off,,,,,42,0,11,,,,12,,36,0
31818,note_off,,,,,42,0,2,,,,1,,60,0
31818,note_off,,,,,42,0,6,,,,5,,48,0
31821,note_off,,,,,21,0,3,,,,2,,77,0
31821,note_off,,,,,21,0,4,,,,3,,74,0
31821,note_off,,,,,21,0,7,,,,6,,77,0
31821,note_off,,,,,21,0,9,,,,8,,74,0
31821,note_off,,,,,21,0,8,,,,7,,77,0
31824,note_on,,,,,6,0,10,,,,11,,48,49
31824,note_on,,,,,3,0,8,,,,7,,79,75
31824,note_on,,,,,3,0,3,,,,2,,79,62
31824,note_on,,,,,6,0,2,,,,1,,60,127
31824,note_on,,,,,0,0,12,,,,13,,48,49
31824,note_on,,,,,6,0,11,,,,12,,36,49
31824,note_on,,,,,6,0,1,,,,0,,67,127
31824,note_on,,,,,6,0,13,,,,14,,60,75
31824,note_on,,,,,6,0,5,,,,4,,60,62
31824,note_on,,,,,3,0,9,,,,8,,76,75
31824,note_on,,,,,6,0,6,,,,5,,48,62
31824,note_on,,,,,3,0,7,,,,6,,79,127
31824,note_on,,,,,0,0,12,,,,13,,74,49
31824,note_on,,,,,6,0,12,,,,13,,69,49
31824,note_on,,,,,3,0,4,,,,3,,76,62
31834,note_off,,,,,10,0,4,,,,3,,76,0
31834,note_off,,,,,10,0,8,,,,7,,79,0
31834,note_off,,,,,10,0,7,,,,6,,79,0
31834,note_off,,,,,10,0,3,,,,2,,79,0
31834,note_off,,,,,10,0,9,,,,8,,76,0
31836,note_on,,,,,2,0,8,,,,7,,77,75
31836,note_on,,,,,2,0,3,,,,2,,77,62
31836,note_on,,,,,2,0,9,,,,8,,74,75
31836,note_on,,,,,2,0,4,,,,3,,74,62
31836,note_on,,,,,2,0,7,,,,6,,77,127
31845,note_off,,,,,21,0,2,,,,1,,60,0
31845,note_off,,,,,21,0,1,,,,0,,67,0
31846,note_off,,,,,10,0,7,,,,6,,77,0
31846,note_off,,,,,10,0,9,,,,8,,74,0
31846,note_off,,,,,10,0,3,,,,2,,77,0
31846,note_off,,,,,10,0,8,,,,7,,77,0
31846,note_off,,,,,10,0,4,,,,3,,74,0
31848,note_on,,,,,2,0,8,,,,7,,79,75
31848,note_on,,,,,2,0,4,,,,3,,76,62
31848,note_on,,,,,2,0,3,,,,2,,79,62
31848,note_on,,,,,2,0,7,,,,6,,79,127
31848,note_on,,,,,2,0,9,,,,8,,76,75
31848,note_on,,,,,3,0,2,,,,1,,60,127
31848,note_on,,,,,3,0,1,,,,0,,67,127
31858,note_off,,,,,10,0,7,,,,6,,79,0
31858,note_off,,,,,10,0,9,,,,8,,76,0
31858,note_off,,,,,10,0,8,,,,7,,79,0
31858,note_off,,,,,10,0,3,,,,2,,79,0
31858,note_off,,,,,10,0,4,,,,3,,76,0
31860,note_on,,,,,2,0,7,,,,6,,77,127
31860,note_on,,,,,2,0,3,,,,2,,77,62
31860,note_on,,,,,2,0,9,,,,8,,74,75
31860,note_on,,,,,2,0,4,,,,3,,74,62
31860,note_on,,,,,2,0,8,,,,7,,77,75
31866,note_off,,,,,42,0,5,,,,4,,60,0
31866,note_off,,,,,42,0,11,,,,12,,36,0
31866,note_off,,,,,42,0,13,,,,14,,60,0
31866,note_off,,,,,0,0,12,,,,13,,48,0
31866,note_off,,,,,42,0,6,,,,5,,48,0
31866,note_off,,,,,42,0,10,,,,11,,48,0
31866,note_off,,,,,42,0,12,,,,13,,69,0
31866,note_off,,,,,0,0,12,,,,13,,74,0
31869,note_off,,,,,21,0,1,,,,0,,67,0
31869,note_off,,,,,21,0,2,,,,1,,60,0
31870,note_off,,,,,10,0,4,,,,3,,74,0
31870,note_off,,,,,10,0,8,,,,7,,77,0
31870,note_off,,,,,10,0,3,,,,2,,77,0
31870,note_off,,,,,10,0,7,,,,6,,77,0
31870,note_off,,,,,10,0,9,,,,8,,74,0
31872,note_on,,,,,3,0,2,,,,1,,60,127
31872,note_on,,,,,6,0,5,,,,4,,67,62
31872,note_on,,,,,2,0,8,,,,7,,79,75
31872,note_on,,,,,6,0,11,,,,12,,36,49
31872,note_on,,,,,3,0,1,,,,0,,67,127
31872,note_on,,,,,2,0,4,,,,3,,76,62
31872,note_on,,,,,6,0,10,,,,11,,48,49
31872,note_on,,,,,2,0,7,,,,6,,79,127
31872,note_on,,,,,6,0,13,,,,14,,67,75
31872,note_on,,,,,6,0,6,,,,5,,48,62
31872,note_on,,,,,2,0,3,,,,2,,79,62
31872,note_on,,,,,0,0,12,,,,13,,48,49
31872,note_on,,,,,0,0,12,,,,13,,76,49
31872,note_on,,,,,6,0,12,,,,13,,67,49
31872,note_on,,,,,2,0,9,,,,8,,76,75
31882,note_off,,,,,10,0,4,,,,3,,76,0
31882,note_off,,,,,10,0,9,,,,8,,76,0
31882,note_off,,,,,10,0,8,,,,7,,79,0
31882,note_off,,,,,10,0,7,,,,6,,79,0
31882,note_off,,,,,10,0,3,,,,2,,79,0
31884,note_on,,,,,2,0,8,,,,7,,77,75
31884,note_on,,,,,2,0,4,,,,3,,74,62
31884,note_on,,,,,2,0,9,,,,8,,74,75
31884,note_on,,,,,2,0,7,,,,6,,77,127
31884,note_on,,,,,2,0,3,,,,2,,77,62
31893,note_off,,,,,21,0,1,,,,0,,67,0
31893,note_off,,,,,21,0,2,,,,1,,60,0
31894,note_off,,,,,10,0,4,,,,3,,74,0
31894,note_off,,,,,10,0,3,,,,2,,77,0
31894,note_off,,,,,10,0,9,,,,8,,74,0
31894,note_off,,,,,10,0,7,,,,6,,77,0
31894,note_off,,,,,10,0,8,,,,7,,77,0
31896,note_on,,,,,3,0,2,,,,1,,60,127
31896,note_on,,,,,2,0,3,,,,2,,76,62
31896,note_on,,,,,2,0,4,,,,3,,72,62
31896,note_on,,,,,2,0,7,,,,6,,76,127
31896,note_on,,,,,2,0,9,,,,8,,72,75
31896,note_on,,,,,2,0,8,,,,7,,76,75
31896,note_on,,,,,3,0,1,,,,0,,67,127
31906,note_off,,,,,10,0,8,,,,7,,76,0
31906,note_off,,,,,10,0,4,,,,3,,72,0
31906,note_off,,,,,10,0,3,,,,2,,76,0
31906,note_off,,,,,10,0,9,,,,8,,72,0
31906,note_off,,,,,10,0,7,,,,6,,76,0
31908,note_on,,,,,2,0,3,,,,2,,77,62
31908,note_on,,,,,2,0,8,,,,7,,77,75
31908,note_on,,,,,2,0,9,,,,8,,74,75
31908,note_on,,,,,2,0,7,,,,6,,77,127
31908,note_on,,,,,2,0,4,,,,3,,74,62
31914,note_off,,,,,42,0,5,,,,4,,67,0
31914,note_off,,,,,42,0,13,,,,14,,67,0
31914,note_off,,,,,42,0,11,,,,12,,36,0
31914,note_off,,,,,0,0,12,,,,13,,76,0
31914,note_off,,,,,42,0,6,,,,5,,48,0
31914,note_off,,,,,0,0,12,,,,13,,48,0
31914,note_off,,,,,42,0,10,,,,11,,48,0
31914,note_off,,,,,42,0,12,,,,13,,67,0
31917,note_off,,,,,21,0,1,,,,0,,67,0
31917,note_off,,,,,21,0,2,,,,1,,60,0
31918,note_off,,,,,10,0,8,,,,7,,77,0
31918,note_off,,,,,10,0,3,,,,2,,77,0
31918,note_off,,,,,10,0,7,,,,6,,77,0
31918,note_off,,,,,10,0,9,,,,8,,74,0
31918,note_off,,,,,10,0,4,,,,3,,74,0
31920,note_on,,,,,0,0,12,,,,13,,48,49
31920,note_on,,,,,6,0,12,,,,13,,67,49
31920,note_on,,,,,6,0,11,,,,12,,36,49
31920,note_on,,,,,6,0,13,,,,14,,72,75
31920,note_on,,,,,2,0,9,,,,8,,76,75
31920,note_on,,,,,3,0,2,,,,1,,60,127
31920,note_on,,,,,2,0,3,,,,2,,79,62
31920,note_on,,,,,2,0,7,,,,6,,79,127
31920,note_on,,,,,0,0,12,,,,13,,76,49
31920,note_on,,,,,2,0,4,,,,3,,76,62
31920,note_on,,,,,6,0,6,,,,5,,48,62
31920,note_on,,,,,6,0,5,,,,4,,72,62
31920,note_on,,,,,6,0,10,,,,11,,48,49
31920,note_on,,,,,2,0,8,,,,7,,79,75
31920,note_on,,,,,3,0,1,,,,0,,67,127
31962,note_off,,,,,42,0,7,,,,6,,79,0
31962,note_off,,,,,42,0,2,,,,1,,60,0
31962,note_off,,,,,42,0,8,,,,7,,79,0
31962,note_off,,,,,42,0,3,,,,2,,79,0
31962,note_off,,,,,42,0,10,,,,11,,48,0
31962,note_off,,,,,42,0,1,,,,0,,67,0
31962,note_off,,,,,42,0,6,,,,5,,48,0
31962,note_off,,,,,42,0,12,,,,13,,67,0
31962,note_off,,,,,0,0,12,,,,13,,48,0
31962,note_off,,,,,0,0,12,,,,13,,76,0
31962,note_off,,,,,42,0,11,,,,12,,36,0
31968,note_on,,,,,6,0,7,,,,6,,72,127
31968,note_on,,,,,6,0,12,,,,13,,67,49
31968,note_on,,,,,0,0,12,,,,13,,72,49
31968,note_on,,,,,6,0,6,,,,5,,52,62
31968,note_on,,,,,6,0,11,,,,12,,40,49
31968,note_on,,,,,6,0,3,,,,2,,72,62
31968,note_on,,,,,6,0,10,,,,11,,52,49
31968,note_on,,,,,6,0,8,,,,7,,72,75
31968,note_on,,,,,0,0,12,,,,13,,52,49
31989,note_off,,,,,21,0,10,,,,11,,52,0
31989,note_off,,,,,21,0,12,,,,13,,52,0
31989,note_off,,,,,21,0,11,,,,12,,40,0
31989,note_off,,,,,21,0,6,,,,5,,52,0
31992,note_on,,,,,3,0,6,,,,5,,50,62
31992,note_on,,,,,3,0,11,,,,12,,38,49
31992,note_on,,,,,3,0,12,,,,13,,50,49
31992,note_on,,,,,3,0,10,,,,11,,50,49
32004,note_off,,,,,84,0,5,,,,4,,72,0
32004,note_off,,,,,84,0,4,,,,3,,76,0
32004,note_off,,,,,84,0,9,,,,8,,76,0
32004,note_off,,,,,84,0,13,,,,14,,72,0
32010,note_off,,,,,0,0,12,,,,13,,72,0
32010,note_off,,,,,42,0,8,,,,7,,72,0
32010,note_off,,,,,18,0,12,,,,13,,67,0
32010,note_off,,,,,42,0,3,,,,2,,72,0
32010,note_off,,,,,42,0,7,,,,6,,72,0
32013,note_off,,,,,3,0,12,,,,13,,50,0
32013,note_off,,,,,21,0,6,,,,5,,50,0
32013,note_off,,,,,21,0,10,,,,11,,50,0
32013,note_off,,,,,21,0,11,,,,12,,38,0
32016,note_on,,,,,3,0,12,,,,13,,67,49
32016,note_on,,,,,0,0,12,,,,13,,52,49
32016,note_on,,,,,0,0,12,,,,13,,72,49
32016,note_on,,,,,3,0,10,,,,11,,52,49
32016,note_on,,,,,12,0,9,,,,8,,72,75
32016,note_on,,,,,12,0,13,,,,14,,67,75
32016,note_on,,,,,3,0,11,,,,12,,40,49
32016,note_on,,,,,6,0,7,,,,6,,79,127
32016,note_on,,,,,6,0,8,,,,7,,79,75
32016,note_on,,,,,6,0,3,,,,2,,79,62
32016,note_on,,,,,12,0,5,,,,4,,67,62
32016,note_on,,,,,3,0,6,,,,5,,52,62
32016,note_on,,,,,12,0,4,,,,3,,72,62
32037,note_off,,,,,21,0,11,,,,12,,40,0
32037,note_off,,,,,21,0,6,,,,5,,52,0
32037,note_off,,,,,21,0,12,,,,13,,52,0
32037,note_off,,,,,21,0,9,,,,8,,72,0
32037,note_off,,,,,21,0,10,,,,11,,52,0
32040,note_on,,,,,3,0,10,,,,11,,48,49
32040,note_on,,,,,3,0,12,,,,13,,48,49
32040,note_on,,,,,3,0,6,,,,5,,48,62
32040,note_on,,,,,3,0,11,,,,12,,36,49
32058,note_off,,,,,42,0,5,,,,4,,67,0
32058,note_off,,,,,42,0,8,,,,7,,79,0
32058,note_off,,,,,42,0,3,,,,2,,79,0
32058,note_off,,,,,18,0,12,,,,13,,67,0
32058,note_off,,,,,42,0,4,,,,3,,72,0
32058,note_off,,,,,0,0,12,,,,13,,72,0
32058,note_off,,,,,42,0,13,,,,14,,67,0
32058,note_off,,,,,42,0,7,,,,6,,79,0
32061,note_off,,,,,3,0,12,,,,13,,48,0
32061,note_off,,,,,21,0,10,,,,11,,48,0
32061,note_off,,,,,21,0,11,,,,12,,36,0
32061,note_off,,,,,21,0,6,,,,5,,48,0
32064,note_on,,,,,3,0,11,,,,12,,41,49
32064,note_on,,,,,6,0,13,,,,14,,65,75
32064,note_on,,,,,6,0,5,,,,4,,65,62
32064,note_on,,,,,3,0,10,,,,11,,53,49
32064,note_on,,,,,27,0,9,,,,8,,72,75
32064,note_on,,,,,6,0,4,,,,3,,72,62
32064,note_on,,,,,6,0,7,,,,6,,81,127
32064,note_on,,,,,3,0,6,,,,5,,53,62
32064,note_on,,,,,6,0,8,,,,7,,81,75
32064,note_on,,,,,3,0,12,,,,13,,69,49
32064,note_on,,,,,0,0,12,,,,13,,74,49
32064,note_on,,,,,0,0,12,,,,13,,53,49
32064,note_on,,,,,6,0,3,,,,2,,81,62
32085,note_off,,,,,21,0,8,,,,7,,81,0
32085,note_off,,,,,21,0,3,,,,2,,81,0
32085,note_off,,,,,21,0,7,,,,6,,81,0
32088,note_on,,,,,3,0,3,,,,2,,79,62
32088,note_on,,,,,3,0,7,,,,6,,79,127
32088,note_on,,,,,3,0,8,,,,7,,79,75
32106,note_off,,,,,42,0,13,,,,14,,65,0
32106,note_off,,,,,42,0,4,,,,3,,72,0
32106,note_off,,,,,42,0,6,,,,5,,53,0
32106,note_off,,,,,42,0,5,,,,4,,65,0
32106,note_off,,,,,42,0,10,,,,11,,53,0
32106,note_off,,,,,0,0,12,,,,13,,74,0
32106,note_off,,,,,0,0,12,,,,13,,53,0
32106,note_off,,,,,42,0,11,,,,12,,41,0
32106,note_off,,,,,42,0,9,,,,8,,72,0
32106,note_off,,,,,42,0,12,,,,13,,69,0
32109,note_off,,,,,21,0,8,,,,7,,79,0
32109,note_off,,,,,21,0,7,,,,6,,79,0
32109,note_off,,,,,21,0,3,,,,2,,79,0
32112,note_on,,,,,6,0,6,,,,5,,57,62
32112,note_on,,,,,6,0,10,,,,11,,57,49
32112,note_on,,,,,3,0,8,,,,7,,77,75
32112,note_on,,,,,3,0,3,,,,2,,77,62
32112,note_on,,,,,3,0,7,,,,6,,77,127
32112,note_on,,,,,6,0,11,,,,12,,45,49
32112,note_on,,,,,6,0,12,,,,13,,65,49
32112,note_on,,,,,0,0,12,,,,13,,74,49
32112,note_on,,,,,0,0,12,,,,13,,57,49
32133,note_off,,,,,21,0,7,,,,6,,77,0
32133,note_off,,,,,21,0,8,,,,7,,77,0
32133,note_off,,,,,21,0,3,,,,2,,77,0
32136,note_on,,,,,3,0,7,,,,6,,76,127
32136,note_on,,,,,3,0,3,,,,2,,76,62
32136,note_on,,,,,3,0,8,,,,7,,76,75
32154,note_off,,,,,42,0,6,,,,5,,57,0
32154,note_off,,,,,42,0,12,,,,13,,65,0
32154,note_off,,,,,0,0,12,,,,13,,57,0
32154,note_off,,,,,42,0,10,,,,11,,57,0
32154,note_off,,,,,42,0,11,,,,12,,45,0
32154,note_off,,,,,0,0,12,,,,13,,74,0
32157,note_off,,,,,21,0,8,,,,7,,76,0
32157,note_off,,,,,21,0,3,,,,2,,76,0
32157,note_off,,,,,21,0,7,,,,6,,76,0
32160,note_on,,,,,3,0,3,,,,2,,77,62
32160,note_on,,,,,3,0,7,,,,6,,77,127
32160,note_on,,,,,6,0,6,,,,5,,62,62
32160,note_on,,,,,6,0,11,,,,12,,50,49
32160,note_on,,,,,0,0,12,,,,13,,62,49
32160,note_on,,,,,0,0,12,,,,13,,77,49
32160,note_on,,,,,6,0,12,,,,13,,69,49
32160,note_on,,,,,6,0,10,,,,11,,62,49
32160,note_on,,,,,3,0,8,,,,7,,77,75
32181,note_off,,,,,21,0,3,,,,2,,77,0
32181,note_off,,,,,21,0,7,,,,6,,77,0
32181,note_off,,,,,21,0,8,,,,7,,77,0
32184,note_on,,,,,3,0,8,,,,7,,74,75
32184,note_on,,,,,3,0,3,,,,2,,74,62
32184,note_on,,,,,3,0,7,,,,6,,74,127
32202,note_off,,,,,42,0,6,,,,5,,62,0
32202,note_off,,,,,0,0,12,,,,13,,77,0
32202,note_off,,,,,42,0,12,,,,13,,69,0
32202,note_off,,,,,0,0,12,,,,13,,62,0
32202,note_off,,,,,42,0,11,,,,12,,50,0
32202,note_off,,,,,42,0,10,,,,11,,62,0
32205,note_off,,,,,21,0,3,,,,2,,74,0
32205,note_off,,,,,21,0,7,,,,6,,74,0
32205,note_off,,,,,21,0,8,,,,7,,74,0
32208,note_on,,,,,102,0,9,,,,8,,72,75
32208,note_on,,,,,3,0,7,,,,6,,79,127
32208,note_on,,,,,3,0,8,,,,7,,79,75
32208,note_on,,,,,3,0,3,,,,2,,79,62
32208,note_on,,,,,102,0,5,,,,4,,67,62
32208,note_on,,,,,6,0,11,,,,12,,40,49
32208,note_on,,,,,0,0,12,,,,13,,52,49
32208,note_on,,,,,6,0,10,,,,11,,52,49
32208,note_on,,,,,102,0,13,,,,14,,67,75
32208,note_on,,,,,6,0,12,,,,13,,72,49
32208,note_on,,,,,0,0,12,,,,13,,79,49
32208,note_on,,,,,6,0,6,,,,5,,52,62
32208,note_on,,,,,102,0,4,,,,3,,72,62
32229,note_off,,,,,21,0,3,,,,2,,79,0
32229,note_off,,,,,21,0,7,,,,6,,79,0
32229,note_off,,,,,21,0,8,,,,7,,79,0
32232,note_on,,,,,3,0,7,,,,6,,67,127
32232,note_on,,,,,3,0,3,,,,2,,67,62
32232,note_on,,,,,3,0,8,,,,7,,67,75
32250,note_off,,,,,42,0,5,,,,4,,67,0
32250,note_off,,,,,42,0,4,,,,3,,72,0
32250,note_off,,,,,42,0,10,,,,11,,52,0
32250,note_off,,,,,0,0,12,,,,13,,79,0
32250,note_off,,,,,0,0,12,,,,13,,52,0
32250,note_off,,,,,42,0,13,,,,14,,67,0
32250,note_off,,,,,42,0,12,,,,13,,72,0
32250,note_off,,,,,42,0,11,,,,12,,40,0
32250,note_off,,,,,42,0,9,,,,8,,72,0
32250,note_off,,,,,42,0,6,,,,5,,52,0
32253,note_off,,,,,21,0,3,,,,2,,67,0
32253,note_off,,,,,21,0,8,,,,7,,67,0
32253,note_off,,,,,21,0,7,,,,6,,67,0
32256,note_on,,,,,6,0,10,,,,11,,55,49
32256,note_on,,,,,6,0,11,,,,12,,43,49
32256,note_on,,,,,6,0,6,,,,5,,55,62
32256,note_on,,,,,3,0,8,,,,7,,72,75
32256,note_on,,,,,0,0,12,,,,13,,76,49
32256,note_on,,,,,6,0,12,,,,13,,72,49
32256,note_on,,,,,3,0,7,,,,6,,72,127
32256,note_on,,,,,3,0,3,,,,2,,72,62
32256,note_on,,,,,0,0,12,,,,13,,55,49
32277,note_off,,,,,21,0,7,,,,6,,72,0
32277,note_off,,,,,21,0,3,,,,2,,72,0
32277,note_off,,,,,21,0,8,,,,7,,72,0
32280,note_on,,,,,3,0,7,,,,6,,74,127
32280,note_on,,,,,3,0,8,,,,7,,74,75
32280,note_on,,,,,3,0,3,,,,2,,74,62
32298,note_off,,,,,42,0,10,,,,11,,55,0
32298,note_off,,,,,0,0,12,,,,13,,55,0
32298,note_off,,,,,0,0,12,,,,13,,76,0
32298,note_off,,,,,42,0,6,,,,5,,55,0
32298,note_off,,,,,42,0,12,,,,13,,72,0
32298,note_off,,,,,42,0,11,,,,12,,43,0
32301,note_off,,,,,21,0,3,,,,2,,74,0
32301,note_off,,,,,21,0,7,,,,6,,74,0
32301,note_off,,,,,21,0,8,,,,7,,74,0
32304,note_on,,,,,3,0,8,,,,7,,76,75
32304,note_on,,,,,6,0,11,,,,12,,48,49
32304,note_on,,,,,6,0,6,,,,5,,60,62
32304,note_on,,,,,6,0,10,,,,11,,60,49
32304,note_on,,,,,6,0,12,,,,13,,67,49
32304,note_on,,,,,0,0,12,,,,13,,76,49
32304,note_on,,,,,0,0,12,,,,13,,60,49
32304,note_on,,,,,3,0,3,,,,2,,76,62
32304,note_on,,,,,3,0,7,,,,6,,76,127
32325,note_off,,,,,21,0,8,,,,7,,76,0
32325,note_off,,,,,21,0,3,,,,2,,76,0
32325,note_off,,,,,21,0,7,,,,6,,76,0
32328,note_on,,,,,3,0,3,,,,2,,72,62
32328,note_on,,,,,3,0,7,,,,6,,72,127
32328,note_on,,,,,3,0,8,,,,7,,72,75
32346,note_off,,,,,42,0,12,,,,13,,67,0
32346,note_off,,,,,42,0,10,,,,11,,60,0
32346,note_off,,,,,42,0,6,,,,5,,60,0
32346,note_off,,,,,0,0,12,,,,13,,60,0
32346,note_off,,,,,0,0,12,,,,13,,76,0
32346,note_off,,,,,42,0,11,,,,12,,48,0
32349,note_off,,,,,21,0,7,,,,6,,72,0
32349,note_off,,,,,21,0,8,,,,7,,72,0
32349,note_off,,,,,21,0,3,,,,2,,72,0
32352,note_on,,,,,102,0,13,,,,14,,69,75
32352,note_on,,,,,6,0,11,,,,12,,38,49
32352,note_on,,,,,0,0,12,,,,13,,50,49
32352,note_on,,,,,3,0,3,,,,2,,77,62
32352,note_on,,,,,102,0,9,,,,8,,74,75
32352,note_on,,,,,6,0,10,,,,11,,50,49
32352,note_on,,,,,3,0,7,,,,6,,77,127
32352,note_on,,,,,102,0,4,,,,3,,74,62
32352,note_on,,,,,6,0,6,,,,5,,50,62
32352,note_on,,,,,102,0,5,,,,4,,69,62
32352,note_on,,,,,0,0,12,,,,13,,77,49
32352,note_on,,,,,6,0,12,,,,13,,70,49
32352,note_on,,,,,3,0,8,,,,7,,77,75
32373,note_off,,,,,21,0,7,,,,6,,77,0
32373,note_off,,,,,21,0,3,,,,2,,77,0
32373,note_off,,,,,21,0,8,,,,7,,77,0
32376,note_on,,,,,3,0,8,,,,7,,76,75
32376,note_on,,,,,3,0,7,,,,6,,76,127
32376,note_on,,,,,3,0,3,,,,2,,76,62
32394,note_off,,,,,0,0,12,,,,13,,77,0
32394,note_off,,,,,42,0,5,,,,4,,69,0
32394,note_off,,,,,42,0,6,,,,5,,50,0
32394,note_off,,,,,42,0,10,,,,11,,50,0
32394,note_off,,,,,42,0,12,,,,13,,70,0
32394,note_off,,,,,42,0,13,,,,14,,69,0
32394,note_off,,,,,42,0,4,,,,3,,74,0
32394,note_off,,,,,42,0,9,,,,8,,74,0
32394,note_off,,,,,42,0,11,,,,12,,38,0
32394,note_off,,,,,0,0,12,,,,13,,50,0
32397,note_off,,,,,21,0,7,,,,6,,76,0
32397,note_off,,,,,21,0,8,,,,7,,76,0
32397,note_off,,,,,21,0,3,,,,2,,76,0
32400,note_on,,,,,6,0,10,,,,11,,53,49
32400,note_on,,,,,3,0,8,,,,7,,74,75
32400,note_on,,,,,6,0,11,,,,12,,41,49
32400,note_on,,,,,3,0,7,,,,6,,74,127
32400,note_on,,,,,3,0,3,,,,2,,74,62
32400,note_on,,,,,6,0,12,,,,13,,62,49
32400,note_on,,,,,0,0,12,,,,13,,70,49
32400,note_on,,,,,0,0,12,,,,13,,53,49
32400,note_on,,,,,6,0,6,,,,5,,53,62
32421,note_off,,,,,21,0,8,,,,7,,74,0
32421,note_off,,,,,21,0,3,,,,2,,74,0
32421,note_off,,,,,21,0,7,,,,6,,74,0
32424,note_on,,,,,3,0,7,,,,6,,72,127
32424,note_on,,,,,3,0,3,,,,2,,72,62
32424,note_on,,,,,3,0,8,,,,7,,72,75
32442,note_off,,,,,42,0,11,,,,12,,41,0
32442,note_off,,,,,42,0,10,,,,11,,53,0
32442,note_off,,,,,0,0,12,,,,13,,53,0
32442,note_off,,,,,42,0,6,,,,5,,53,0
32442,note_off,,,,,0,0,12,,,,13,,70,0
32442,note_off,,,,,42,0,12,,,,13,,62,0
32445,note_off,,,,,21,0,8,,,,7,,72,0
32445,note_off,,,,,21,0,3,,,,2,,72,0
32445,note_off,,,,,21,0,7,,,,6,,72,0
32448,note_on,,,,,6,0,6,,,,5,,58,62
32448,note_on,,,,,3,0,3,,,,2,,74,62
32448,note_on,,,,,6,0,11,,,,12,,46,49
32448,note_on,,,,,0,0,12,,,,13,,74,49
32448,note_on,,,,,0,0,12,,,,13,,58,49
32448,note_on,,,,,6,0,10,,,,11,,58,49
32448,note_on,,,,,3,0,7,,,,6,,74,127
32448,note_on,,,,,3,0,8,,,,7,,74,75
32448,note_on,,,,,6,0,12,,,,13,,65,49
32469,note_off,,,,,21,0,7,,,,6,,74,0
32469,note_off,,,,,21,0,3,,,,2,,74,0
32469,note_off,,,,,21,0,8,,,,7,,74,0
32472,note_on,,,,,3,0,8,,,,7,,70,75
32472,note_on,,,,,3,0,7,,,,6,,70,127
32472,note_on,,,,,3,0,3,,,,2,,70,62
32490,note_off,,,,,42,0,12,,,,13,,65,0
32490,note_off,,,,,42,0,6,,,,5,,58,0
32490,note_off,,,,,42,0,10,,,,11,,58,0
32490,note_off,,,,,42,0,11,,,,12,,46,0
32490,note_off,,,,,0,0,12,,,,13,,74,0
32490,note_off,,,,,0,0,12,,,,13,,58,0
32493,note_off,,,,,21,0,8,,,,7,,70,0
32493,note_off,,,,,21,0,7,,,,6,,70,0
32493,note_off,,,,,21,0,3,,,,2,,70,0
32496,note_on,,,,,102,0,13,,,,14,,64,75
32496,note_on,,,,,3,0,8,,,,7,,76,75
32496,note_on,,,,,102,0,9,,,,8,,69,75
32496,note_on,,,,,6,0,10,,,,11,,48,49
32496,note_on,,,,,6,0,11,,,,12,,36,49
32496,note_on,,,,,3,0,3,,,,2,,76,62
32496,note_on,,,,,0,0,12,,,,13,,48,49
32496,note_on,,,,,3,0,7,,,,6,,76,127
32496,note_on,,,,,102,0,5,,,,4,,64,62
32496,note_on,,,,,6,0,6,,,,5,,48,62
32496,note_on,,,,,6,0,12,,,,13,,69,49
32496,note_on,,,,,0,0,12,,,,13,,76,49
32496,note_on,,,,,102,0,4,,,,3,,69,62
32517,note_off,,,,,21,0,8,,,,7,,76,0
32517,note_off,,,,,21,0,3,,,,2,,76,0
32517,note_off,,,,,21,0,7,,,,6,,76,0
32520,note_on,,,,,3,0,8,,,,7,,64,75
32520,note_on,,,,,3,0,7,,,,6,,64,127
32520,note_on,,,,,3,0,3,,,,2,,64,62
32538,note_off,,,,,42,0,10,,,,11,,48,0
32538,note_off,,,,,42,0,4,,,,3,,69,0
32538,note_off,,,,,42,0,12,,,,13,,69,0
32538,note_off,,,,,42,0,9,,,,8,,69,0
32538,note_off,,,,,42,0,5,,,,4,,64,0
32538,note_off,,,,,42,0,13,,,,14,,64,0
32538,note_off,,,,,42,0,11,,,,12,,36,0
32538,note_off,,,,,42,0,6,,,,5,,48,0
32538,note_off,,,,,0,0,12,,,,13,,48,0
32538,note_off,,,,,0,0,12,,,,13,,76,0
32541,note_off,,,,,21,0,3,,,,2,,64,0
32541,note_off,,,,,21,0,8,,,,7,,64,0
32541,note_off,,,,,21,0,7,,,,6,,64,0
32544,note_on,,,,,6,0,10,,,,11,,52,49
32544,note_on,,,,,6,0,11,,,,12,,40,49
32544,note_on,,,,,3,0,3,,,,2,,69,62
32544,note_on,,,,,0,0,12,,,,13,,81,49
32544,note_on,,,,,0,0,12,,,,13,,52,49
32544,note_on,,,,,6,0,12,,,,13,,72,49
32544,note_on,,,,,3,0,8,,,,7,,69,75
32544,note_on,,,,,3,0,7,,,,6,,69,127
32544,note_on,,,,,6,0,6,,,,5,,52,62
32565,note_off,,,,,21,0,8,,,,7,,69,0
32565,note_off,,,,,21,0,7,,,,6,,69,0
32565,note_off,,,,,21,0,3,,,,2,,69,0
32568,note_on,,,,,3,0,7,,,,6,,70,127
32568,note_on,,,,,3,0,8,,,,7,,70,75
32568,note_on,,,,,3,0,3,,,,2,,70,62
32586,note_off,,,,,42,0,11,,,,12,,40,0
32586,note_off,,,,,0,0,12,,,,13,,52,0
32586,note_off,,,,,42,0,6,,,,5,,52,0
32586,note_off,,,,,42,0,12,,,,13,,72,0
32586,note_off,,,,,0,0,12,,,,13,,81,0
32586,note_off,,,,,42,0,10,,,,11,,52,0
32589,note_off,,,,,21,0,8,,,,7,,70,0
32589,note_off,,,,,21,0,7,,,,6,,70,0
32589,note_off,,,,,21,0,3,,,,2,,70,0
32592,note_on,,,,,3,0,3,,,,2,,72,62
32592,note_on,,,,,6,0,10,,,,11,,57,49
32592,note_on,,,,,6,0,6,,,,5,,57,62
32592,note_on,,,,,6,0,11,,,,12,,45,49
32592,note_on,,,,,3,0,8,,,,7,,72,75
32592,note_on,,,,,0,0,12,,,,13,,57,49
32592,note_on,,,,,0,0,12,,,,13,,72,49
32592,note_on,,,,,3,0,7,,,,6,,72,127
32592,note_on,,,,,6,0,12,,,,13,,64,49
32613,note_off,,,,,21,0,8,,,,7,,72,0
32613,note_off,,,,,21,0,3,,,,2,,72,0
32613,note_off,,,,,21,0,7,,,,6,,72,0
32616,note_on,,,,,3,0,8,,,,7,,69,75
32616,note_on,,,,,3,0,7,,,,6,,69,127
32616,note_on,,,,,3,0,3,,,,2,,69,62
32634,note_off,,,,,42,0,12,,,,13,,64,0
32634,note_off,,,,,42,0,10,,,,11,,57,0
32634,note_off,,,,,42,0,6,,,,5,,57,0
32634,note_off,,,,,0,0,12,,,,13,,57,0
32634,note_off,,,,,0,0,12,,,,13,,72,0
32634,note_off,,,,,42,0,11,,,,12,,45,0
32637,note_off,,,,,21,0,7,,,,6,,69,0
32637,note_off,,,,,21,0,3,,,,2,,69,0
32637,note_off,,,,,21,0,8,,,,7,,69,0
32640,note_on,,,,,6,0,12,,,,13,,67,49
32640,note_on,,,,,102,0,5,,,,4,,65,62
32640,note_on,,,,,0,0,12,,,,13,,74,49
32640,note_on,,,,,0,0,12,,,,13,,46,49
32640,note_on,,,,,102,0,4,,,,3,,70,62
32640,note_on,,,,,6,0,10,,,,11,,46,49
32640,note_on,,,,,102,0,9,,,,8,,70,75
32640,note_on,,,,,102,0,13,,,,14,,65,75
32640,note_on,,,,,6,0,6,,,,5,,46,62
32640,note_on,,,,,3,0,3,,,,2,,74,62
32640,note_on,,,,,3,0,8,,,,7,,74,75
32640,note_on,,,,,6,0,11,,,,12,,34,49
32640,note_on,,,,,3,0,7,,,,6,,74,127
32661,note_off,,,,,21,0,3,,,,2,,74,0
32661,note_off,,,,,21,0,8,,,,7,,74,0
32661,note_off,,,,,21,0,7,,,,6,,74,0
32664,note_on,,,,,3,0,7,,,,6,,72,127
32664,note_on,,,,,3,0,8,,,,7,,72,75
32664,note_on,,,,,3,0,3,,,,2,,72,62
32682,note_off,,,,,42,0,11,,,,12,,34,0
32682,note_off,,,,,42,0,6,,,,5,,46,0
32682,note_off,,,,,42,0,12,,,,13,,67,0
32682,note_off,,,,,0,0,12,,,,13,,74,0
32682,note_off,,,,,42,0,10,,,,11,,46,0
32682,note_off,,,,,42,0,9,,,,8,,70,0
32682,note_off,,,,,42,0,4,,,,3,,70,0
32682,note_off,,,,,42,0,5,,,,4,,65,0
32682,note_off,,,,,0,0,12,,,,13,,46,0
32682,note_off,,,,,42,0,13,,,,14,,65,0
32685,note_off,,,,,21,0,7,,,,6,,72,0
32685,note_off,,,,,21,0,3,,,,2,,72,0
32685,note_off,,,,,21,0,8,,,,7,,72,0
32688,note_on,,,,,3,0,7,,,,6,,70,127
32688,note_on,,,,,6,0,10,,,,11,,50,49
32688,note_on,,,,,6,0,6,,,,5,,50,62
32688,note_on,,,,,6,0,12,,,,13,,70,49
32688,note_on,,,,,0,0,12,,,,13,,79,49
32688,note_on,,,,,0,0,12,,,,13,,50,49
32688,note_on,,,,,3,0,3,,,,2,,70,62
32688,note_on,,,,,6,0,11,,,,12,,38,49
32688,note_on,,,,,3,0,8,,,,7,,70,75
32709,note_off,,,,,21,0,3,,,,2,,70,0
32709,note_off,,,,,21,0,8,,,,7,,70,0
32709,note_off,,,,,21,0,7,,,,6,,70,0
32712,note_on,,,,,3,0,7,,,,6,,69,127
32712,note_on,,,,,3,0,8,,,,7,,69,75
32712,note_on,,,,,3,0,3,,,,2,,69,62
32730,note_off,,,,,42,0,10,,,,11,,50,0
32730,note_off,,,,,0,0,12,,,,13,,50,0
32730,note_off,,,,,42,0,12,,,,13,,70,0
32730,note_off,,,,,42,0,11,,,,12,,38,0
32730,note_off,,,,,42,0,6,,,,5,,50,0
32730,note_off,,,,,0,0,12,,,,13,,79,0
32733,note_off,,,,,21,0,8,,,,7,,69,0
32733,note_off,,,,,21,0,3,,,,2,,69,0
32733,note_off,,,,,21,0,7,,,,6,,69,0
32736,note_on,,,,,6,0,12,,,,13,,74,49
32736,note_on,,,,,3,0,3,,,,2,,70,62
32736,note_on,,,,,6,0,6,,,,5,,55,62
32736,note_on,,,,,0,0,12,,,,13,,55,49
32736,note_on,,,,,6,0,10,,,,11,,55,49
32736,note_on,,,,,0,0,12,,,,13,,82,49
32736,note_on,,,,,6,0,11,,,,12,,43,49
32736,note_on,,,,,3,0,7,,,,6,,70,127
32736,note_on,,,,,3,0,8,,,,7,,70,75
32757,note_off,,,,,21,0,3,,,,2,,70,0
32757,note_off,,,,,21,0,7,,,,6,,70,0
32757,note_off,,,,,21,0,8,,,,7,,70,0
32760,note_on,,,,,3,0,8,,,,7,,67,75
32760,note_on,,,,,3,0,3,,,,2,,67,62
32760,note_on,,,,,3,0,7,,,,6,,67,127
32778,note_off,,,,,0,0,12,,,,13,,82,0
32778,note_off,,,,,42,0,6,,,,5,,55,0
32778,note_off,,,,,42,0,12,,,,13,,74,0
32778,note_off,,,,,42,0,10,,,,11,,55,0
32778,note_off,,,,,0,0,12,,,,13,,55,0
32778,note_off,,,,,42,0,11,,,,12,,43,0
32781,note_off,,,,,21,0,3,,,,2,,67,0
32781,note_off,,,,,21,0,7,,,,6,,67,0
32781,note_off,,,,,21,0,8,,,,7,,67,0
32784,note_on,,,,,6,0,6,,,,5,,45,62
32784,note_on,,,,,6,0,11,,,,12,,33,49
32784,note_on,,,,,6,0,10,,,,11,,45,49
32784,note_on,,,,,3,0,3,,,,2,,72,62
32784,note_on,,,,,3,0,8,,,,7,,72,75
32784,note_on,,,,,102,0,9,,,,8,,65,75
32784,note_on,,,,,102,0,4,,,,3,,65,62
32784,note_on,,,,,6,0,12,,,,13,,65,49
32784,note_on,,,,,102,0,5,,,,4,,60,62
32784,note_on,,,,,0,0,12,,,,13,,72,49
32784,note_on,,,,,3,0,7,,,,6,,72,127
32784,note_on,,,,,102,0,13,,,,14,,60,75
32784,note_on,,,,,0,0,12,,,,13,,45,49
32805,note_off,,,,,21,0,7,,,,6,,72,0
32805,note_off,,,,,21,0,3,,,,2,,72,0
32805,note_off,,,,,21,0,8,,,,7,,72,0
32808,note_on,,,,,3,0,3,,,,2,,60,62
32808,note_on,,,,,3,0,7,,,,6,,60,127
32808,note_on,,,,,3,0,8,,,,7,,60,75
32826,note_off,,,,,42,0,12,,,,13,,65,0
32826,note_off,,,,,0,0,12,,,,13,,72,0
32826,note_off,,,,,0,0,12,,,,13,,45,0
32826,note_off,,,,,42,0,6,,,,5,,45,0
32826,note_off,,,,,42,0,10,,,,11,,45,0
32826,note_off,,,,,42,0,4,,,,3,,65,0
32826,note_off,,,,,42,0,5,,,,4,,60,0
32826,note_off,,,,,42,0,11,,,,12,,33,0
32826,note_off,,,,,42,0,9,,,,8,,65,0
32826,note_off,,,,,42,0,13,,,,14,,60,0
32829,note_off,,,,,21,0,7,,,,6,,60,0
32829,note_off,,,,,21,0,3,,,,2,,60,0
32829,note_off,,,,,21,0,8,,,,7,,60,0
32832,note_on,,,,,6,0,10,,,,11,,48,49
32832,note_on,,,,,3,0,7,,,,6,,65,127
32832,note_on,,,,,6,0,6,,,,5,,48,62
32832,note_on,,,,,6,0,11,,,,12,,36,49
32832,note_on,,,,,0,0,12,,,,13,,48,49
32832,note_on,,,,,3,0,8,,,,7,,65,75
32832,note_on,,,,,3,0,3,,,,2,,65,62
32832,note_on,,,,,6,0,12,,,,13,,69,49
32832,note_on,,,,,0,0,12,,,,13,,77,49
32853,note_off,,,,,21,0,3,,,,2,,65,0
32853,note_off,,,,,21,0,7,,,,6,,65,0
32853,note_off,,,,,21,0,8,,,,7,,65,0
32856,note_on,,,,,3,0,7,,,,6,,67,127
32856,note_on,,,,,3,0,3,,,,2,,67,62
32856,note_on,,,,,3,0,8,,,,7,,67,75
32874,note_off,,,,,42,0,12,,,,13,,69,0
32874,note_off,,,,,0,0,12,,,,13,,77,0
32874,note_off,,,,,42,0,6,,,,5,,48,0
32874,note_off,,,,,42,0,11,,,,12,,36,0
32874,note_off,,,,,42,0,10,,,,11,,48,0
32874,note_off,,,,,0,0,12,,,,13,,48,0
32877,note_off,,,,,21,0,7,,,,6,,67,0
32877,note_off,,,,,21,0,3,,,,2,,67,0
32877,note_off,,,,,21,0,8,,,,7,,67,0
32880,note_on,,,,,3,0,3,,,,2,,69,62
32880,note_on,,,,,3,0,7,,,,6,,69,127
32880,note_on,,,,,0,0,12,,,,13,,53,49
32880,note_on,,,,,6,0,6,,,,5,,53,62
32880,note_on,,,,,3,0,8,,,,7,,69,75
32880,note_on,,,,,6,0,10,,,,11,,53,49
32880,note_on,,,,,0,0,12,,,,13,,81,49
32880,note_on,,,,,6,0,11,,,,12,,41,49
32880,note_on,,,,,6,0,12,,,,13,,72,49
32901,note_off,,,,,21,0,7,,,,6,,69,0
32901,note_off,,,,,21,0,8,,,,7,,69,0
32901,note_off,,,,,21,0,3,,,,2,,69,0
32904,note_on,,,,,3,0,8,,,,7,,65,75
32904,note_on,,,,,3,0,7,,,,6,,65,127
32904,note_on,,,,,3,0,3,,,,2,,65,62
32922,note_off,,,,,42,0,12,,,,13,,72,0
32922,note_off,,,,,42,0,11,,,,12,,41,0
32922,note_off,,,,,0,0,12,,,,13,,81,0
32922,note_off,,,,,42,0,10,,,,11,,53,0
32922,note_off,,,,,42,0,6,,,,5,,53,0
32922,note_off,,,,,0,0,12,,,,13,,53,0
32925,note_off,,,,,21,0,8,,,,7,,65,0
32925,note_off,,,,,21,0,7,,,,6,,65,0
32925,note_off,,,,,21,0,3,,,,2,,65,0
32928,note_on,,,,,6,0,12,,,,13,,62,49
32928,note_on,,,,,966,0,1,,,,0,,70,127
32928,note_on,,,,,0,0,12,,,,13,,43,49
32928,note_on,,,,,0,0,12,,,,13,,70,49
32928,note_on,,,,,966,0,2,,,,1,,67,127
32928,note_on,,,,,102,0,4,,,,3,,67,62
32928,note_on,,,,,3,0,3,,,,2,,70,62
32928,note_on,,,,,102,0,5,,,,4,,62,62
32928,note_on,,,,,6,0,11,,,,12,,31,49
32928,note_on,,,,,3,0,7,,,,6,,70,127
32928,note_on,,,,,3,0,8,,,,7,,70,75
32928,note_on,,,,,102,0,13,,,,14,,62,75
32928,note_on,,,,,102,0,9,,,,8,,67,75
32928,note_on,,,,,6,0,10,,,,11,,43,49
32928,note_on,,,,,6,0,6,,,,5,,43,62
32949,note_off,,,,,21,0,2,,,,1,,67,0
32949,note_off,,,,,21,0,1,,,,0,,70,0
32952,note_on,,,,,3,0,2,,,,1,,69,127
32952,note_on,,,,,3,0,1,,,,0,,72,127
32970,note_off,,,,,42,0,10,,,,11,,43,0
32970,note_off,,,,,42,0,4,,,,3,,67,0
32970,note_off,,,,,42,0,7,,,,6,,70,0
32970,note_off,,,,,42,0,8,,,,7,,70,0
32970,note_off,,,,,42,0,12,,,,13,,62,0
32970,note_off,,,,,0,0,12,,,,13,,70,0
32970,note_off,,,,,42,0,6,,,,5,,43,0
32970,note_off,,,,,42,0,11,,,,12,,31,0
32970,note_off,,,,,42,0,3,,,,2,,70,0
32970,note_off,,,,,42,0,5,,,,4,,62,0
32970,note_off,,,,,42,0,9,,,,8,,67,0
32970,note_off,,,,,42,0,13,,,,14,,62,0
32970,note_off,,,,,0,0,12,,,,13,,43,0
32973,note_off,,,,,21,0,2,,,,1,,69,0
32973,note_off,,,,,21,0,1,,,,0,,72,0
32976,note_on,,,,,6,0,12,,,,13,,70,49
32976,note_on,,,,,6,0,10,,,,11,,50,49
32976,note_on,,,,,6,0,8,,,,7,,70,75
32976,note_on,,,,,6,0,7,,,,6,,70,127
32976,note_on,,,,,3,0,1,,,,0,,70,127
32976,note_on,,,,,3,0,2,,,,1,,67,127
32976,note_on,,,,,0,0,12,,,,13,,79,49
32976,note_on,,,,,6,0,3,,,,2,,70,62
32976,note_on,,,,,0,0,12,,,,13,,50,49
32976,note_on,,,,,6,0,13,,,,14,,62,75
32976,note_on,,,,,6,0,6,,,,5,,50,62
32976,note_on,,,,,6,0,9,,,,8,,67,75
32976,note_on,,,,,6,0,4,,,,3,,67,62
32976,note_on,,,,,6,0,5,,,,4,,62,62
32976,note_on,,,,,6,0,11,,,,12,,38,49
32997,note_off,,,,,21,0,2,,,,1,,67,0
32997,note_off,,,,,21,0,1,,,,0,,70,0
33000,note_on,,,,,3,0,2,,,,1,,69,127
33000,note_on,,,,,3,0,1,,,,0,,72,127
33018,note_off,,,,,42,0,10,,,,11,,50,0
33018,note_off,,,,,42,0,7,,,,6,,70,0
33018,note_off,,,,,42,0,5,,,,4,,62,0
33018,note_off,,,,,42,0,8,,,,7,,70,0
33018,note_off,,,,,42,0,4,,,,3,,67,0
33018,note_off,,,,,42,0,6,,,,5,,50,0
33018,note_off,,,,,42,0,11,,,,12,,38,0
33018,note_off,,,,,42,0,13,,,,14,,62,0
33018,note_off,,,,,0,0,12,,,,13,,79,0
33018,note_off,,,,,42,0,9,,,,8,,67,0
33018,note_off,,,,,42,0,3,,,,2,,70,0
33018,note_off,,,,,42,0,12,,,,13,,70,0
33018,note_off,,,,,0,0,12,,,,13,,50,0
33021,note_off,,,,,21,0,2,,,,1,,69,0
33021,note_off,,,,,21,0,1,,,,0,,72,0
33024,note_on,,,,,3,0,2,,,,1,,70,127
33024,note_on,,,,,6,0,10,,,,11,,55,49
33024,note_on,,,,,6,0,6,,,,5,,55,62
33024,note_on,,,,,6,0,11,,,,12,,43,49
33024,note_on,,,,,6,0,9,,,,8,,67,75
33024,note_on,,,,,6,0,12,,,,13,,74,49
33024,note_on,,,,,6,0,3,,,,2,,70,62
33024,note_on,,,,,0,0,12,,,,13,,82,49
33024,note_on,,,,,3,0,1,,,,0,,74,127
33024,note_on,,,,,6,0,5,,,,4,,62,62
33024,note_on,,,,,6,0,4,,,,3,,67,62
33024,note_on,,,,,6,0,8,,,,7,,70,75
33024,note_on,,,,,6,0,7,,,,6,,70,127
33024,note_on,,,,,0,0,12,,,,13,,55,49
33024,note_on,,,,,6,0,13,,,,14,,62,75
33045,note_off,,,,,21,0,1,,,,0,,74,0
33045,note_off,,,,,21,0,2,,,,1,,70,0
33048,note_on,,,,,3,0,1,,,,0,,72,127
33048,note_on,,,,,3,0,2,,,,1,,69,127
33066,note_off,,,,,42,0,13,,,,14,,62,0
33066,note_off,,,,,42,0,8,,,,7,,70,0
33066,note_off,,,,,42,0,6,,,,5,,55,0
33066,note_off,,,,,42,0,11,,,,12,,43,0
33066,note_off,,,,,42,0,12,,,,13,,74,0
33066,note_off,,,,,0,0,12,,,,13,,82,0
33066,note_off,,,,,42,0,3,,,,2,,70,0
33066,note_off,,,,,42,0,5,,,,4,,62,0
33066,note_off,,,,,42,0,7,,,,6,,70,0
33066,note_off,,,,,42,0,4,,,,3,,67,0
33066,note_off,,,,,42,0,9,,,,8,,67,0
33066,note_off,,,,,0,0,12,,,,13,,55,0
33066,note_off,,,,,42,0,10,,,,11,,55,0
33069,note_off,,,,,21,0,2,,,,1,,69,0
33069,note_off,,,,,21,0,1,,,,0,,72,0
33072,note_on,,,,,6,0,13,,,,14,,62,75
33072,note_on,,,,,6,0,9,,,,8,,67,75
33072,note_on,,,,,6,0,3,,,,2,,70,62
33072,note_on,,,,,3,0,2,,,,1,,67,127
33072,note_on,,,,,6,0,11,,,,12,,29,49
33072,note_on,,,,,3,0,1,,,,0,,70,127
33072,note_on,,,,,6,0,10,,,,11,,41,49
33072,note_on,,,,,6,0,12,,,,13,,70,49
33072,note_on,,,,,6,0,7,,,,6,,70,127
33072,note_on,,,,,6,0,8,,,,7,,70,75
33072,note_on,,,,,6,0,6,,,,5,,41,62
33072,note_on,,,,,0,0,12,,,,13,,79,49
33072,note_on,,,,,0,0,12,,,,13,,41,49
33072,note_on,,,,,6,0,5,,,,4,,62,62
33072,note_on,,,,,6,0,4,,,,3,,67,62
33093,note_off,,,,,21,0,3,,,,2,,70,0
33093,note_off,,,,,21,0,8,,,,7,,70,0
33093,note_off,,,,,21,0,7,,,,6,,70,0
33096,note_on,,,,,3,0,3,,,,2,,72,62
33096,note_on,,,,,3,0,7,,,,6,,72,127
33096,note_on,,,,,3,0,8,,,,7,,72,75
33114,note_off,,,,,42,0,1,,,,0,,70,0
33114,note_off,,,,,0,0,12,,,,13,,41,0
33114,note_off,,,,,0,0,12,,,,13,,79,0
33114,note_off,,,,,42,0,5,,,,4,,62,0
33114,note_off,,,,,42,0,4,,,,3,,67,0
33114,note_off,,,,,42,0,6,,,,5,,41,0
33114,note_off,,,,,42,0,10,,,,11,,41,0
33114,note_off,,,,,42,0,12,,,,13,,70,0
33114,note_off,,,,,42,0,9,,,,8,,67,0
33114,note_off,,,,,42,0,13,,,,14,,62,0
33114,note_off,,,,,42,0,11,,,,12,,29,0
33114,note_off,,,,,42,0,2,,,,1,,67,0
33117,note_off,,,,,21,0,7,,,,6,,72,0
33117,note_off,,,,,21,0,8,,,,7,,72,0
33117,note_off,,,,,21,0,3,,,,2,,72,0
33120,note_on,,,,,6,0,2,,,,1,,67,127
33120,note_on,,,,,3,0,3,,,,2,,70,62
33120,note_on,,,,,6,0,11,,,,12,,38,49
33120,note_on,,,,,6,0,10,,,,11,,50,49
33120,note_on,,,,,6,0,12,,,,13,,50,49
33120,note_on,,,,,3,0,8,,,,7,,70,75
33120,note_on,,,,,6,0,1,,,,0,,70,127
33120,note_on,,,,,3,0,7,,,,6,,70,127
33120,note_on,,,,,6,0,6,,,,5,,50,62
33141,note_off,,,,,21,0,7,,,,6,,70,0
33141,note_off,,,,,21,0,8,,,,7,,70,0
33141,note_off,,,,,21,0,3,,,,2,,70,0
33144,note_on,,,,,3,0,8,,,,7,,69,75
33144,note_on,,,,,3,0,7,,,,6,,69,127
33144,note_on,,,,,3,0,3,,,,2,,69,62
33162,note_off,,,,,42,0,12,,,,13,,50,0
33162,note_off,,,,,42,0,2,,,,1,,67,0
33162,note_off,,,,,42,0,6,,,,5,,50,0
33162,note_off,,,,,42,0,10,,,,11,,50,0
33162,note_off,,,,,42,0,1,,,,0,,70,0
33162,note_off,,,,,42,0,11,,,,12,,38,0
33165,note_off,,,,,21,0,3,,,,2,,69,0
33165,note_off,,,,,21,0,7,,,,6,,69,0
33165,note_off,,,,,21,0,8,,,,7,,69,0
33168,note_on,,,,,6,0,6,,,,5,,55,62
33168,note_on,,,,,6,0,12,,,,13,,55,49
33168,note_on,,,,,6,0,11,,,,12,,43,49
33168,note_on,,,,,3,0,3,,,,2,,70,62
33168,note_on,,,,,3,0,8,,,,7,,70,75
33168,note_on,,,,,6,0,2,,,,1,,67,127
33168,note_on,,,,,6,0,1,,,,0,,70,127
33168,note_on,,,,,3,0,7,,,,6,,70,127
33168,note_on,,,,,6,0,10,,,,11,,55,49
33189,note_off,,,,,21,0,8,,,,7,,70,0
33189,note_off,,,,,21,0,7,,,,6,,70,0
33189,note_off,,,,,21,0,3,,,,2,,70,0
33192,note_on,,,,,3,0,7,,,,6,,67,127
33192,note_on,,,,,3,0,8,,,,7,,67,75
33192,note_on,,,,,3,0,3,,,,2,,67,62
33210,note_off,,,,,42,0,12,,,,13,,55,0
33210,note_off,,,,,42,0,10,,,,11,,55,0
33210,note_off,,,,,42,0,6,,,,5,,55,0
33210,note_off,,,,,42,0,2,,,,1,,67,0
33210,note_off,,,,,42,0,11,,,,12,,43,0
33210,note_off,,,,,42,0,1,,,,0,,70,0
33213,note_off,,,,,21,0,3,,,,2,,67,0
33213,note_off,,,,,21,0,8,,,,7,,67,0
33213,note_off,,,,,21,0,7,,,,6,,67,0
33216,note_on,,,,,6,0,6,,,,5,,40,62
33216,note_on,,,,,102,0,13,,,,14,,60,75
33216,note_on,,,,,3,0,3,,,,2,,79,62
33216,note_on,,,,,3,0,7,,,,6,,79,127
33216,note_on,,,,,102,0,9,,,,8,,67,75
33216,note_on,,,,,102,0,4,,,,3,,67,62
33216,note_on,,,,,0,0,12,,,,13,,72,49
33216,note_on,,,,,6,0,1,,,,0,,70,127
33216,note_on,,,,,102,0,5,,,,4,,60,62
33216,note_on,,,,,0,0,12,,,,13,,40,49
33216,note_on,,,,,6,0,12,,,,13,,67,49
33216,note_on,,,,,6,0,10,,,,11,,40,49
33216,note_on,,,,,6,0,2,,,,1,,67,127
33216,note_on,,,,,3,0,8,,,,7,,79,75
33216,note_on,,,,,6,0,11,,,,12,,28,49
33237,note_off,,,,,21,0,2,,,,1,,67,0
33237,note_off,,,,,21,0,1,,,,0,,70,0
33240,note_on,,,,,3,0,1,,,,0,,72,127
33240,note_on,,,,,3,0,2,,,,1,,69,127
33258,note_off,,,,,42,0,13,,,,14,,60,0
33258,note_off,,,,,42,0,5,,,,4,,60,0
33258,note_off,,,,,42,0,11,,,,12,,28,0
33258,note_off,,,,,42,0,3,,,,2,,79,0
33258,note_off,,,,,42,0,9,,,,8,,67,0
33258,note_off,,,,,0,0,12,,,,13,,72,0
33258,note_off,,,,,42,0,12,,,,13,,67,0
33258,note_off,,,,,42,0,6,,,,5,,40,0
33258,note_off,,,,,42,0,7,,,,6,,79,0
33258,note_off,,,,,42,0,10,,,,11,,40,0
33258,note_off,,,,,42,0,8,,,,7,,79,0
33258,note_off,,,,,0,0,12,,,,13,,40,0
33258,note_off,,,,,42,0,4,,,,3,,67,0
33261,note_off,,,,,21,0,2,,,,1,,69,0
33261,note_off,,,,,21,0,1,,,,0,,72,0
33264,note_on,,,,,6,0,3,,,,2,,70,62
33264,note_on,,,,,6,0,13,,,,14,,60,75
33264,note_on,,,,,6,0,11,,,,12,,36,49
33264,note_on,,,,,6,0,9,,,,8,,67,75
33264,note_on,,,,,3,0,1,,,,0,,70,127
33264,note_on,,,,,6,0,5,,,,4,,60,62
33264,note_on,,,,,6,0,12,,,,13,,67,49
33264,note_on,,,,,3,0,2,,,,1,,67,127
33264,note_on,,,,,0,0,12,,,,13,,48,49
33264,note_on,,,,,6,0,8,,,,7,,70,75
33264,note_on,,,,,6,0,7,,,,6,,70,127
33264,note_on,,,,,6,0,10,,,,11,,48,49
33264,note_on,,,,,0,0,12,,,,13,,76,49
33264,note_on,,,,,6,0,4,,,,3,,67,62
33264,note_on,,,,,6,0,6,,,,5,,48,62
33285,note_off,,,,,21,0,1,,,,0,,70,0
33285,note_off,,,,,21,0,2,,,,1,,67,0
33288,note_on,,,,,3,0,2,,,,1,,69,127
33288,note_on,,,,,3,0,1,,,,0,,72,127
33306,note_off,,,,,42,0,3,,,,2,,70,0
33306,note_off,,,,,42,0,6,,,,5,,48,0
33306,note_off,,,,,42,0,7,,,,6,,70,0
33306,note_off,,,,,42,0,12,,,,13,,67,0
33306,note_off,,,,,42,0,13,,,,14,,60,0
33306,note_off,,,,,0,0,12,,,,13,,48,0
33306,note_off,,,,,42,0,9,,,,8,,67,0
33306,note_off,,,,,42,0,5,,,,4,,60,0
33306,note_off,,,,,42,0,10,,,,11,,48,0
33306,note_off,,,,,42,0,11,,,,12,,36,0
33306,note_off,,,,,42,0,4,,,,3,,67,0
33306,note_off,,,,,0,0,12,,,,13,,76,0
33306,note_off,,,,,42,0,8,,,,7,,70,0
33309,note_off,,,,,21,0,1,,,,0,,72,0
33309,note_off,,,,,21,0,2,,,,1,,69,0
33312,note_on,,,,,6,0,9,,,,8,,67,75
33312,note_on,,,,,6,0,10,,,,11,,55,49
33312,note_on,,,,,3,0,2,,,,1,,70,127
33312,note_on,,,,,6,0,7,,,,6,,70,127
33312,note_on,,,,,6,0,12,,,,13,,72,49
33312,note_on,,,,,6,0,6,,,,5,,55,62
33312,note_on,,,,,6,0,3,,,,2,,70,62
33312,note_on,,,,,6,0,13,,,,14,,60,75
33312,note_on,,,,,6,0,5,,,,4,,60,62
33312,note_on,,,,,0,0,12,,,,13,,55,49
33312,note_on,,,,,0,0,12,,,,13,,76,49
33312,note_on,,,,,3,0,1,,,,0,,74,127
33312,note_on,,,,,6,0,11,,,,12,,43,49
33312,note_on,,,,,6,0,4,,,,3,,67,62
33312,note_on,,,,,6,0,8,,,,7,,70,75
33333,note_off,,,,,21,0,2,,,,1,,70,0
33333,note_off,,,,,21,0,1,,,,0,,74,0
33336,note_on,,,,,3,0,2,,,,1,,69,127
33336,note_on,,,,,3,0,1,,,,0,,72,127
33354,note_off,,,,,42,0,5,,,,4,,60,0
33354,note_off,,,,,42,0,4,,,,3,,67,0
33354,note_off,,,,,42,0,10,,,,11,,55,0
33354,note_off,,,,,42,0,9,,,,8,,67,0
33354,note_off,,,,,42,0,6,,,,5,,55,0
33354,note_off,,,,,42,0,3,,,,2,,70,0
33354,note_off,,,,,42,0,13,,,,14,,60,0
33354,note_off,,,,,0,0,12,,,,13,,55,0
33354,note_off,,,,,0,0,12,,,,13,,76,0
33354,note_off,,,,,42,0,12,,,,13,,72,0
33354,note_off,,,,,42,0,11,,,,12,,43,0
33354,note_off,,,,,42,0,7,,,,6,,70,0
33354,note_off,,,,,42,0,8,,,,7,,70,0
33357,note_off,,,,,21,0,1,,,,0,,72,0
33357,note_off,,,,,21,0,2,,,,1,,69,0
33360,note_on,,,,,3,0,1,,,,0,,70,127
33360,note_on,,,,,6,0,13,,,,14,,60,75
33360,note_on,,,,,6,0,6,,,,5,,52,62
33360,note_on,,,,,6,0,4,,,,3,,67,62
33360,note_on,,,,,6,0,11,,,,12,,40,49
33360,note_on,,,,,6,0,12,,,,13,,72,49
33360,note_on,,,,,0,0,12,,,,13,,79,49
33360,note_on,,,,,0,0,12,,,,13,,52,49
33360,note_on,,,,,6,0,8,,,,7,,70,75
33360,note_on,,,,,3,0,2,,,,1,,67,127
33360,note_on,,,,,6,0,7,,,,6,,70,127
33360,note_on,,,,,6,0,3,,,,2,,70,62
33360,note_on,,,,,6,0,10,,,,11,,52,49
33360,note_on,,,,,6,0,5,,,,4,,60,62
33360,note_on,,,,,6,0,9,,,,8,,67,75
33402,note_off,,,,,42,0,2,,,,1,,67,0
33402,note_off,,,,,42,0,6,,,,5,,52,0
33402,note_off,,,,,42,0,5,,,,4,,60,0
33402,note_off,,,,,42,0,11,,,,12,,40,0
33402,note_off,,,,,42,0,13,,,,14,,60,0
33402,note_off,,,,,42,0,12,,,,13,,72,0
33402,note_off,,,,,0,0,12,,,,13,,79,0
33402,note_off,,,,,0,0,12,,,,13,,52,0
33402,note_off,,,,,42,0,8,,,,7,,70,0
33402,note_off,,,,,42,0,4,,,,3,,67,0
33402,note_off,,,,,42,0,10,,,,11,,52,0
33402,note_off,,,,,42,0,1,,,,0,,70,0
33402,note_off,,,,,42,0,7,,,,6,,70,0
33402,note_off,,,,,42,0,9,,,,8,,67,0
33402,note_off,,,,,42,0,3,,,,2,,70,0
33408,note_on,,,,,6,0,9,,,,8,,69,75
33408,note_on,,,,,6,0,1,,,,0,,70,127
33408,note_on,,,,,6,0,10,,,,11,,48,49
33408,note_on,,,,,6,0,2,,,,1,,67,127
33408,note_on,,,,,6,0,8,,,,7,,72,75
33408,note_on,,,,,6,0,3,,,,2,,72,62
33408,note_on,,,,,0,0,12,,,,13,,48,49
33408,note_on,,,,,0,0,12,,,,13,,76,49
33408,note_on,,,,,6,0,12,,,,13,,67,49
33408,note_on,,,,,6,0,7,,,,6,,72,127
33408,note_on,,,,,6,0,5,,,,4,,64,62
33408,note_on,,,,,6,0,11,,,,12,,36,49
33408,note_on,,,,,6,0,6,,,,5,,48,62
33408,note_on,,,,,6,0,4,,,,3,,69,62
33408,note_on,,,,,6,0,13,,,,14,,64,75
33429,note_off,,,,,21,0,9,,,,8,,69,0
33429,note_off,,,,,21,0,3,,,,2,,72,0
33429,note_off,,,,,21,0,7,,,,6,,72,0
33429,note_off,,,,,21,0,4,,,,3,,69,0
33429,note_off,,,,,21,0,8,,,,7,,72,0
33432,note_on,,,,,3,0,3,,,,2,,70,62
33432,note_on,,,,,3,0,8,,,,7,,70,75
33432,note_on,,,,,3,0,9,,,,8,,67,75
33432,note_on,,,,,3,0,4,,,,3,,67,62
33432,note_on,,,,,3,0,7,,,,6,,70,127
33450,note_off,,,,,42,0,5,,,,4,,64,0
33450,note_off,,,,,42,0,6,,,,5,,48,0
33450,note_off,,,,,42,0,11,,,,12,,36,0
33450,note_off,,,,,42,0,1,,,,0,,70,0
33450,note_off,,,,,42,0,12,,,,13,,67,0
33450,note_off,,,,,0,0,12,,,,13,,76,0
33450,note_off,,,,,0,0,12,,,,13,,48,0
33450,note_off,,,,,42,0,10,,,,11,,48,0
33450,note_off,,,,,42,0,13,,,,14,,64,0
33450,note_off,,,,,42,0,2,,,,1,,67,0
33453,note_off,,,,,21,0,3,,,,2,,70,0
33453,note_off,,,,,21,0,8,,,,7,,70,0
33453,note_off,,,,,21,0,9,,,,8,,67,0
33453,note_off,,,,,21,0,4,,,,3,,67,0
33453,note_off,,,,,21,0,7,,,,6,,70,0
33456,note_on,,,,,6,0,5,,,,4,,60,62
33456,note_on,,,,,6,0,10,,,,11,,60,49
33456,note_on,,,,,0,0,12,,,,13,,60,49
33456,note_on,,,,,6,0,1,,,,0,,70,127
33456,note_on,,,,,6,0,6,,,,5,,60,62
33456,note_on,,,,,3,0,8,,,,7,,69,75
33456,note_on,,,,,3,0,7,,,,6,,69,127
33456,note_on,,,,,6,0,2,,,,1,,67,127
33456,note_on,,,,,6,0,13,,,,14,,60,75
33456,note_on,,,,,0,0,12,,,,13,,76,49
33456,note_on,,,,,3,0,3,,,,2,,69,62
33456,note_on,,,,,6,0,12,,,,13,,67,49
33456,note_on,,,,,6,0,11,,,,12,,48,49
33456,note_on,,,,,3,0,4,,,,3,,65,62
33456,note_on,,,,,3,0,9,,,,8,,65,75
33477,note_off,,,,,21,0,3,,,,2,,69,0
33477,note_off,,,,,21,0,8,,,,7,,69,0
33477,note_off,,,,,21,0,9,,,,8,,65,0
33477,note_off,,,,,21,0,4,,,,3,,65,0
33477,note_off,,,,,21,0,7,,,,6,,69,0
33480,note_on,,,,,3,0,8,,,,7,,67,75
33480,note_on,,,,,3,0,3,,,,2,,67,62
33480,note_on,,,,,3,0,7,,,,6,,67,127
33480,note_on,,,,,3,0,9,,,,8,,64,75
33480,note_on,,,,,3,0,4,,,,3,,64,62
33498,note_off,,,,,42,0,10,,,,11,,60,0
33498,note_off,,,,,42,0,5,,,,4,,60,0
33498,note_off,,,,,42,0,2,,,,1,,67,0
33498,note_off,,,,,42,0,6,,,,5,,60,0
33498,note_off,,,,,42,0,1,,,,0,,70,0
33498,note_off,,,,,0,0,12,,,,13,,60,0
33498,note_off,,,,,0,0,12,,,,13,,76,0
33498,note_off,,,,,42,0,12,,,,13,,67,0
33498,note_off,,,,,42,0,11,,,,12,,48,0
33498,note_off,,,,,42,0,13,,,,14,,60,0
33501,note_off,,,,,21,0,8,,,,7,,67,0
33501,note_off,,,,,21,0,3,,,,2,,67,0
33501,note_off,,,,,21,0,7,,,,6,,67,0
33501,note_off,,,,,21,0,4,,,,3,,64,0
33501,note_off,,,,,21,0,9,,,,8,,64,0
33504,note_on,,,,,6,0,10,,,,11,,41,49
33504,note_on,,,,,6,0,5,,,,4,,60,62
33504,note_on,,,,,6,0,12,,,,13,,72,49
33504,note_on,,,,,6,0,11,,,,12,,29,49
33504,note_on,,,,,0,0,12,,,,13,,41,49
33504,note_on,,,,,6,0,6,,,,5,,41,62
33504,note_on,,,,,6,0,2,,,,1,,65,127
33504,note_on,,,,,3,0,8,,,,7,,69,75
33504,note_on,,,,,0,0,12,,,,13,,81,49
33504,note_on,,,,,3,0,4,,,,3,,65,62
33504,note_on,,,,,3,0,7,,,,6,,69,127
33504,note_on,,,,,6,0,13,,,,14,,60,75
33504,note_on,,,,,3,0,3,,,,2,,69,62
33504,note_on,,,,,6,0,1,,,,0,,69,127
33504,note_on,,,,,3,0,9,,,,8,,65,75
33525,note_off,,,,,21,0,1,,,,0,,69,0
33525,note_off,,,,,21,0,2,,,,1,,65,0
33528,note_on,,,,,3,0,1,,,,0,,70,127
33528,note_on,,,,,3,0,2,,,,1,,67,127
33546,note_off,,,,,42,0,10,,,,11,,41,0
33546,note_off,,,,,42,0,7,,,,6,,69,0
33546,note_off,,,,,0,0,12,,,,13,,41,0
33546,note_off,,,,,42,0,5,,,,4,,60,0
33546,note_off,,,,,42,0,12,,,,13,,72,0
33546,note_off,,,,,42,0,9,,,,8,,65,0
33546,note_off,,,,,42,0,6,,,,5,,41,0
33546,note_off,,,,,42,0,8,,,,7,,69,0
33546,note_off,,,,,42,0,4,,,,3,,65,0
33546,note_off,,,,,42,0,11,,,,12,,29,0
33546,note_off,,,,,42,0,13,,,,14,,60,0
33546,note_off,,,,,42,0,3,,,,2,,69,0
33546,note_off,,,,,0,0,12,,,,13,,81,0
33549,note_off,,,,,21,0,2,,,,1,,67,0
33549,note_off,,,,,21,0,1,,,,0,,70,0
33552,note_on,,,,,6,0,10,,,,11,,48,49
33552,note_on,,,,,6,0,5,,,,4,,60,62
33552,note_on,,,,,6,0,9,,,,8,,65,75
33552,note_on,,,,,3,0,1,,,,0,,69,127
33552,note_on,,,,,6,0,3,,,,2,,69,62
33552,note_on,,,,,6,0,12,,,,13,,69,49
33552,note_on,,,,,6,0,7,,,,6,,69,127
33552,note_on,,,,,6,0,11,,,,12,,36,49
33552,note_on,,,,,6,0,8,,,,7,,69,75
33552,note_on,,,,,6,0,4,,,,3,,65,62
33552,note_on,,,,,6,0,6,,,,5,,48,62
33552,note_on,,,,,6,0,13,,,,14,,60,75
33552,note_on,,,,,0,0,12,,,,13,,77,49
33552,note_on,,,,,3,0,2,,,,1,,65,127
33552,note_on,,,,,0,0,12,,,,13,,48,49
33573,note_off,,,,,21,0,2,,,,1,,65,0
33573,note_off,,,,,21,0,1,,,,0,,69,0
33576,note_on,,,,,3,0,2,,,,1,,67,127
33576,note_on,,,,,3,0,1,,,,0,,70,127
33594,note_off,,,,,0,0,12,,,,13,,77,0
33594,note_off,,,,,42,0,10,,,,11,,48,0
33594,note_off,,,,,0,0,12,,,,13,,48,0
33594,note_off,,,,,42,0,9,,,,8,,65,0
33594,note_off,,,,,42,0,7,,,,6,,69,0
33594,note_off,,,,,42,0,8,,,,7,,69,0
33594,note_off,,,,,42,0,13,,,,14,,60,0
33594,note_off,,,,,42,0,4,,,,3,,65,0
33594,note_off,,,,,42,0,12,,,,13,,69,0
33594,note_off,,,,,42,0,5,,,,4,,60,0
33594,note_off,,,,,42,0,6,,,,5,,48,0
33594,note_off,,,,,42,0,11,,,,12,,36,0
33594,note_off,,,,,42,0,3,,,,2,,69,0
33597,note_off,,,,,21,0,1,,,,0,,70,0
33597,note_off,,,,,21,0,2,,,,1,,67,0
33600,note_on,,,,,0,0,12,,,,13,,72,49
33600,note_on,,,,,6,0,4,,,,3,,65,62
33600,note_on,,,,,3,0,1,,,,0,,72,127
33600,note_on,,,,,6,0,10,,,,11,,53,49
33600,note_on,,,,,6,0,5,,,,4,,60,62
33600,note_on,,,,,6,0,8,,,,7,,69,75
33600,note_on,,,,,6,0,3,,,,2,,69,62
33600,note_on,,,,,3,0,2,,,,1,,69,127
33600,note_on,,,,,6,0,6,,,,5,,53,62
33600,note_on,,,,,6,0,13,,,,14,,60,75
33600,note_on,,,,,0,0,12,,,,13,,53,49
33600,note_on,,,,,6,0,7,,,,6,,69,127
33600,note_on,,,,,6,0,12,,,,13,,69,49
33600,note_on,,,,,6,0,11,,,,12,,41,49
33600,note_on,,,,,6,0,9,,,,8,,65,75
33621,note_off,,,,,21,0,2,,,,1,,69,0
33621,note_off,,,,,21,0,1,,,,0,,72,0
33624,note_on,,,,,3,0,2,,,,1,,67,127
33624,note_on,,,,,3,0,1,,,,0,,70,127
33642,note_off,,,,,42,0,11,,,,12,,41,0
33642,note_off,,,,,0,0,12,,,,13,,53,0
33642,note_off,,,,,0,0,12,,,,13,,72,0
33642,note_off,,,,,42,0,12,,,,13,,69,0
33642,note_off,,,,,42,0,5,,,,4,,60,0
33642,note_off,,,,,42,0,9,,,,8,,65,0
33642,note_off,,,,,42,0,7,,,,6,,69,0
33642,note_off,,,,,42,0,3,,,,2,,69,0
33642,note_off,,,,,42,0,13,,,,14,,60,0
33642,note_off,,,,,42,0,6,,,,5,,53,0
33642,note_off,,,,,42,0,10,,,,11,,53,0
33642,note_off,,,,,42,0,8,,,,7,,69,0
33642,note_off,,,,,42,0,4,,,,3,,65,0
33645,note_off,,,,,21,0,1,,,,0,,70,0
33645,note_off,,,,,21,0,2,,,,1,,67,0
33648,note_on,,,,,6,0,4,,,,3,,65,62
33648,note_on,,,,,6,0,8,,,,7,,69,75
33648,note_on,,,,,6,0,13,,,,14,,60,75
33648,note_on,,,,,6,0,3,,,,2,,69,62
33648,note_on,,,,,6,0,6,,,,5,,40,62
33648,note_on,,,,,6,0,10,,,,11,,40,49
33648,note_on,,,,,6,0,9,,,,8,,65,75
33648,note_on,,,,,6,0,12,,,,13,,60,49
33648,note_on,,,,,0,0,12,,,,13,,40,49
33648,note_on,,,,,6,0,7,,,,6,,69,127
33648,note_on,,,,,3,0,2,,,,1,,65,127
33648,note_on,,,,,6,0,5,,,,4,,60,62
33648,note_on,,,,,6,0,11,,,,12,,28,49
33648,note_on,,,,,3,0,1,,,,0,,69,127
33648,note_on,,,,,0,0,12,,,,13,,69,49
33669,note_off,,,,,21,0,3,,,,2,,69,0
33669,note_off,,,,,21,0,7,,,,6,,69,0
33669,note_off,,,,,21,0,8,,,,7,,69,0
33672,note_on,,,,,3,0,7,,,,6,,70,127
33672,note_on,,,,,3,0,3,,,,2,,70,62
33672,note_on,,,,,3,0,8,,,,7,,70,75
33690,note_off,,,,,0,0,12,,,,13,,69,0
33690,note_off,,,,,42,0,4,,,,3,,65,0
33690,note_off,,,,,42,0,2,,,,1,,65,0
33690,note_off,,,,,42,0,6,,,,5,,40,0
33690,note_off,,,,,42,0,12,,,,13,,60,0
33690,note_off,,,,,42,0,13,,,,14,,60,0
33690,note_off,,,,,42,0,9,,,,8,,65,0
33690,note_off,,,,,42,0,11,,,,12,,28,0
33690,note_off,,,,,42,0,5,,,,4,,60,0
33690,note_off,,,,,0,0,12,,,,13,,40,0
33690,note_off,,,,,42,0,1,,,,0,,69,0
33690,note_off,,,,,42,0,10,,,,11,,40,0
33693,note_off,,,,,21,0,3,,,,2,,70,0
33693,note_off,,,,,21,0,8,,,,7,,70,0
33693,note_off,,,,,21,0,7,,,,6,,70,0
33696,note_on,,,,,3,0,8,,,,7,,69,75
33696,note_on,,,,,6,0,10,,,,11,,48,49
33696,note_on,,,,,6,0,6,,,,5,,48,62
33696,note_on,,,,,6,0,2,,,,1,,65,127
33696,note_on,,,,,3,0,3,,,,2,,69,62
33696,note_on,,,,,6,0,11,,,,12,,36,49
33696,note_on,,,,,3,0,7,,,,6,,69,127
33696,note_on,,,,,6,0,1,,,,0,,69,127
33696,note_on,,,,,6,0,12,,,,13,,48,49
33717,note_off,,,,,21,0,3,,,,2,,69,0
33717,note_off,,,,,21,0,7,,,,6,,69,0
33717,note_off,,,,,21,0,8,,,,7,,69,0
33720,note_on,,,,,3,0,7,,,,6,,67,127
33720,note_on,,,,,3,0,8,,,,7,,67,75
33720,note_on,,,,,3,0,3,,,,2,,67,62
33738,note_off,,,,,42,0,12,,,,13,,48,0
33738,note_off,,,,,42,0,1,,,,0,,69,0
33738,note_off,,,,,42,0,2,,,,1,,65,0
33738,note_off,,,,,42,0,11,,,,12,,36,0
33738,note_off,,,,,42,0,6,,,,5,,48,0
33738,note_off,,,,,42,0,10,,,,11,,48,0
33741,note_off,,,,,21,0,3,,,,2,,67,0
33741,note_off,,,,,21,0,7,,,,6,,67,0
33741,note_off,,,,,21,0,8,,,,7,,67,0
33744,note_on,,,,,3,0,8,,,,7,,69,75
33744,note_on,,,,,6,0,6,,,,5,,53,62
33744,note_on,,,,,6,0,11,,,,12,,41,49
33744,note_on,,,,,6,0,2,,,,1,,65,127
33744,note_on,,,,,3,0,3,,,,2,,69,62
33744,note_on,,,,,6,0,1,,,,0,,69,127
33744,note_on,,,,,6,0,10,,,,11,,53,49
33744,note_on,,,,,6,0,12,,,,13,,53,49
33744,note_on,,,,,3,0,7,,,,6,,69,127
33765,note_off,,,,,21,0,8,,,,7,,69,0
33765,note_off,,,,,21,0,7,,,,6,,69,0
33765,note_off,,,,,21,0,3,,,,2,,69,0
33768,note_on,,,,,3,0,7,,,,6,,65,127
33768,note_on,,,,,3,0,8,,,,7,,65,75
33768,note_on,,,,,3,0,3,,,,2,,65,62
33786,note_off,,,,,42,0,10,,,,11,,53,0
33786,note_off,,,,,42,0,1,,,,0,,69,0
33786,note_off,,,,,42,0,6,,,,5,,53,0
33786,note_off,,,,,42,0,2,,,,1,,65,0
33786,note_off,,,,,42,0,11,,,,12,,41,0
33786,note_off,,,,,42,0,12,,,,13,,53,0
33789,note_off,,,,,21,0,7,,,,6,,65,0
33789,note_off,,,,,21,0,3,,,,2,,65,0
33789,note_off,,,,,21,0,8,,,,7,,65,0
33792,note_on,,,,,3,0,3,,,,2,,77,62
33792,note_on,,,,,6,0,11,,,,12,,26,49
33792,note_on,,,,,0,0,12,,,,13,,38,49
33792,note_on,,,,,3,0,7,,,,6,,77,127
33792,note_on,,,,,102,0,5,,,,4,,62,62
33792,note_on,,,,,0,0,12,,,,13,,77,49
33792,note_on,,,,,6,0,12,,,,13,,69,49
33792,note_on,,,,,102,0,9,,,,8,,65,75
33792,note_on,,,,,6,0,10,,,,11,,38,49
33792,note_on,,,,,6,0,6,,,,5,,38,62
33792,note_on,,,,,102,0,13,,,,14,,62,75
33792,note_on,,,,,6,0,1,,,,0,,69,127
33792,note_on,,,,,102,0,4,,,,3,,65,62
33792,note_on,,,,,6,0,2,,,,1,,65,127
33792,note_on,,,,,3,0,8,,,,7,,77,75
33813,note_off,,,,,21,0,2,,,,1,,65,0
33813,note_off,,,,,21,0,1,,,,0,,69,0
33816,note_on,,,,,3,0,1,,,,0,,70,127
33816,note_on,,,,,3,0,2,,,,1,,67,127
33834,note_off,,,,,42,0,8,,,,7,,77,0
33834,note_off,,,,,42,0,4,,,,3,,65,0
33834,note_off,,,,,42,0,11,,,,12,,26,0
33834,note_off,,,,,42,0,7,,,,6,,77,0
33834,note_off,,,,,42,0,9,,,,8,,65,0
33834,note_off,,,,,0,0,12,,,,13,,38,0
33834,note_off,,,,,0,0,12,,,,13,,77,0
33834,note_off,,,,,42,0,13,,,,14,,62,0
33834,note_off,,,,,42,0,3,,,,2,,77,0
33834,note_off,,,,,42,0,6,,,,5,,38,0
33834,note_off,,,,,42,0,5,,,,4,,62,0
33834,note_off,,,,,42,0,10,,,,11,,38,0
33834,note_off,,,,,42,0,12,,,,13,,69,0
33837,note_off,,,,,21,0,1,,,,0,,70,0
33837,note_off,,,,,21,0,2,,,,1,,67,0
33840,note_on,,,,,6,0,12,,,,13,,65,49
33840,note_on,,,,,0,0,12,,,,13,,69,49
33840,note_on,,,,,0,0,12,,,,13,,50,49
33840,note_on,,,,,6,0,11,,,,12,,38,49
33840,note_on,,,,,6,0,9,,,,8,,65,75
33840,note_on,,,,,3,0,2,,,,1,,65,127
33840,note_on,,,,,6,0,5,,,,4,,62,62
33840,note_on,,,,,6,0,3,,,,2,,69,62
33840,note_on,,,,,6,0,10,,,,11,,50,49
33840,note_on,,,,,6,0,8,,,,7,,69,75
33840,note_on,,,,,6,0,6,,,,5,,50,62
33840,note_on,,,,,6,0,7,,,,6,,69,127
33840,note_on,,,,,6,0,13,,,,14,,62,75
33840,note_on,,,,,3,0,1,,,,0,,69,127
33840,note_on,,,,,6,0,4,,,,3,,65,62
33861,note_off,,,,,21,0,2,,,,1,,65,0
33861,note_off,,,,,21,0,1,,,,0,,69,0
33864,note_on,,,,,3,0,2,,,,1,,67,127
33864,note_on,,,,,3,0,1,,,,0,,70,127
33882,note_off,,,,,42,0,7,,,,6,,69,0
33882,note_off,,,,,42,0,11,,,,12,,38,0
33882,note_off,,,,,42,0,5,,,,4,,62,0
33882,note_off,,,,,42,0,9,,,,8,,65,0
33882,note_off,,,,,42,0,8,,,,7,,69,0
33882,note_off,,,,,0,0,12,,,,13,,50,0
33882,note_off,,,,,42,0,3,,,,2,,69,0
33882,note_off,,,,,42,0,12,,,,13,,65,0
33882,note_off,,,,,0,0,12,,,,13,,69,0
33882,note_off,,,,,42,0,6,,,,5,,50,0
33882,note_off,,,,,42,0,13,,,,14,,62,0
33882,note_off,,,,,42,0,10,,,,11,,50,0
33882,note_off,,,,,42,0,4,,,,3,,65,0
33885,note_off,,,,,21,0,1,,,,0,,70,0
33885,note_off,,,,,21,0,2,,,,1,,67,0
33888,note_on,,,,,6,0,5,,,,4,,62,62
33888,note_on,,,,,6,0,6,,,,5,,45,62
33888,note_on,,,,,6,0,3,,,,2,,69,62
33888,note_on,,,,,6,0,13,,,,14,,62,75
33888,note_on,,,,,6,0,8,,,,7,,69,75
33888,note_on,,,,,3,0,2,,,,1,,69,127
33888,note_on,,,,,6,0,7,,,,6,,69,127
33888,note_on,,,,,6,0,10,,,,11,,45,49
33888,note_on,,,,,3,0,1,,,,0,,72,127
33888,note_on,,,,,0,0,12,,,,13,,45,49
33888,note_on,,,,,0,0,12,,,,13,,74,49
33888,note_on,,,,,6,0,4,,,,3,,65,62
33888,note_on,,,,,6,0,11,,,,12,,33,49
33888,note_on,,,,,6,0,9,,,,8,,65,75
33888,note_on,,,,,6,0,12,,,,13,,65,49
33909,note_off,,,,,21,0,1,,,,0,,72,0
33909,note_off,,,,,21,0,2,,,,1,,69,0
33912,note_on,,,,,3,0,1,,,,0,,70,127
33912,note_on,,,,,3,0,2,,,,1,,67,127
33930,note_off,,,,,42,0,3,,,,2,,69,0
33930,note_off,,,,,42,0,11,,,,12,,33,0
33930,note_off,,,,,42,0,13,,,,14,,62,0
33930,note_off,,,,,42,0,8,,,,7,,69,0
33930,note_off,,,,,42,0,4,,,,3,,65,0
33930,note_off,,,,,42,0,10,,,,11,,45,0
33930,note_off,,,,,42,0,12,,,,13,,65,0
33930,note_off,,,,,42,0,5,,,,4,,62,0
33930,note_off,,,,,0,0,12,,,,13,,74,0
33930,note_off,,,,,42,0,7,,,,6,,69,0
33930,note_off,,,,,0,0,12,,,,13,,45,0
33930,note_off,,,,,42,0,6,,,,5,,45,0
33930,note_off,,,,,42,0,9,,,,8,,65,0
33933,note_off,,,,,21,0,1,,,,0,,70,0
33933,note_off,,,,,21,0,2,,,,1,,67,0
33936,note_on,,,,,6,0,11,,,,12,,34,49
33936,note_on,,,,,6,0,9,,,,8,,65,75
33936,note_on,,,,,6,0,8,,,,7,,69,75
33936,note_on,,,,,6,0,5,,,,4,,62,62
33936,note_on,,,,,0,0,12,,,,13,,46,49
33936,note_on,,,,,0,0,12,,,,13,,74,49
33936,note_on,,,,,3,0,1,,,,0,,69,127
33936,note_on,,,,,6,0,10,,,,11,,46,49
33936,note_on,,,,,6,0,12,,,,13,,65,49
33936,note_on,,,,,6,0,4,,,,3,,65,62
33936,note_on,,,,,6,0,6,,,,5,,46,62
33936,note_on,,,,,6,0,3,,,,2,,69,62
33936,note_on,,,,,3,0,2,,,,1,,65,127
33936,note_on,,,,,6,0,7,,,,6,,69,127
33936,note_on,,,,,6,0,13,,,,14,,62,75
33978,note_off,,,,,42,0,12,,,,13,,65,0
33978,note_off,,,,,42,0,5,,,,4,,62,0
33978,note_off,,,,,42,0,11,,,,12,,34,0
33978,note_off,,,,,0,0,12,,,,13,,46,0
33978,note_off,,,,,0,0,12,,,,13,,74,0
33978,note_off,,,,,42,0,1,,,,0,,69,0
33978,note_off,,,,,42,0,13,,,,14,,62,0
33978,note_off,,,,,42,0,7,,,,6,,69,0
33978,note_off,,,,,42,0,9,,,,8,,65,0
33978,note_off,,,,,42,0,6,,,,5,,46,0
33978,note_off,,,,,42,0,3,,,,2,,69,0
33978,note_off,,,,,42,0,10,,,,11,,46,0
33978,note_off,,,,,42,0,4,,,,3,,65,0
33978,note_off,,,,,42,0,8,,,,7,,69,0
33978,note_off,,,,,42,0,2,,,,1,,65,0
33984,note_on,,,,,6,0,4,,,,3,,67,62
33984,note_on,,,,,6,0,11,,,,12,,38,49
33984,note_on,,,,,6,0,5,,,,4,,62,62
33984,note_on,,,,,6,0,3,,,,2,,70,62
33984,note_on,,,,,6,0,7,,,,6,,70,127
33984,note_on,,,,,6,0,9,,,,8,,67,75
33984,note_on,,,,,6,0,8,,,,7,,70,75
33984,note_on,,,,,6,0,12,,,,13,,67,49
33984,note_on,,,,,0,0,12,,,,13,,74,49
33984,note_on,,,,,0,0,12,,,,13,,50,49
33984,note_on,,,,,6,0,6,,,,5,,50,62
33984,note_on,,,,,6,0,13,,,,14,,62,75
33984,note_on,,,,,6,0,1,,,,0,,67,127
33984,note_on,,,,,6,0,10,,,,11,,50,49
33984,note_on,,,,,6,0,2,,,,1,,65,127
34005,note_off,,,,,21,0,3,,,,2,,70,0
34005,note_off,,,,,21,0,1,,,,0,,67,0
34005,note_off,,,,,21,0,8,,,,7,,70,0
34005,note_off,,,,,21,0,7,,,,6,,70,0
34008,note_on,,,,,3,0,3,,,,2,,69,62
34008,note_on,,,,,3,0,1,,,,0,,69,127
34008,note_on,,,,,3,0,7,,,,6,,69,127
34008,note_on,,,,,3,0,8,,,,7,,69,75
34026,note_off,,,,,42,0,4,,,,3,,67,0
34026,note_off,,,,,42,0,9,,,,8,,67,0
34026,note_off,,,,,42,0,11,,,,12,,38,0
34026,note_off,,,,,42,0,13,,,,14,,62,0
34026,note_off,,,,,42,0,5,,,,4,,62,0
34026,note_off,,,,,42,0,2,,,,1,,65,0
34026,note_off,,,,,0,0,12,,,,13,,50,0
34026,note_off,,,,,0,0,12,,,,13,,74,0
34026,note_off,,,,,42,0,12,,,,13,,67,0
34026,note_off,,,,,42,0,10,,,,11,,50,0
34026,note_off,,,,,42,0,6,,,,5,,50,0
34029,note_off,,,,,21,0,1,,,,0,,69,0
34029,note_off,,,,,21,0,3,,,,2,,69,0
34029,note_off,,,,,21,0,8,,,,7,,69,0
34029,note_off,,,,,21,0,7,,,,6,,69,0
34032,note_on,,,,,3,0,7,,,,6,,67,127
34032,note_on,,,,,6,0,11,,,,12,,31,49
34032,note_on,,,,,6,0,13,,,,14,,58,75
34032,note_on,,,,,6,0,10,,,,11,,43,49
34032,note_on,,,,,6,0,9,,,,8,,62,75
34032,note_on,,,,,6,0,4,,,,3,,62,62
34032,note_on,,,,,3,0,1,,,,0,,70,127
34032,note_on,,,,,3,0,8,,,,7,,67,75
34032,note_on,,,,,6,0,2,,,,1,,65,127
34032,note_on,,,,,0,0,12,,,,13,,43,49
34032,note_on,,,,,6,0,5,,,,4,,62,62
34032,note_on,,,,,0,0,12,,,,13,,82,49
34032,note_on,,,,,6,0,12,,,,13,,74,49
34032,note_on,,,,,3,0,3,,,,2,,67,62
34032,note_on,,,,,6,0,6,,,,5,,43,62
34053,note_off,,,,,21,0,3,,,,2,,67,0
34053,note_off,,,,,21,0,1,,,,0,,70,0
34053,note_off,,,,,21,0,8,,,,7,,67,0
34053,note_off,,,,,21,0,7,,,,6,,67,0
34056,note_on,,,,,3,0,8,,,,7,,65,75
34056,note_on,,,,,3,0,1,,,,0,,69,127
34056,note_on,,,,,3,0,3,,,,2,,65,62
34056,note_on,,,,,3,0,7,,,,6,,65,127
34074,note_off,,,,,42,0,11,,,,12,,31,0
34074,note_off,,,,,42,0,4,,,,3,,62,0
34074,note_off,,,,,42,0,5,,,,4,,62,0
34074,note_off,,,,,42,0,9,,,,8,,62,0
34074,note_off,,,,,42,0,13,,,,14,,58,0
34074,note_off,,,,,42,0,12,,,,13,,74,0
34074,note_off,,,,,0,0,12,,,,13,,82,0
34074,note_off,,,,,0,0,12,,,,13,,43,0
34074,note_off,,,,,42,0,2,,,,1,,65,0
34074,note_off,,,,,42,0,6,,,,5,,43,0
34074,note_off,,,,,42,0,10,,,,11,,43,0
34077,note_off,,,,,21,0,1,,,,0,,69,0
34077,note_off,,,,,21,0,8,,,,7,,65,0
34077,note_off,,,,,21,0,7,,,,6,,65,0
34077,note_off,,,,,21,0,3,,,,2,,65,0
34080,note_on,,,,,0,0,12,,,,13,,76,49
34080,note_on,,,,,6,0,9,,,,8,,64,75
34080,note_on,,,,,6,0,5,,,,4,,64,62
34080,note_on,,,,,6,0,13,,,,14,,60,75
34080,note_on,,,,,6,0,11,,,,12,,36,49
34080,note_on,,,,,6,0,12,,,,13,,67,49
34080,note_on,,,,,6,0,4,,,,3,,60,62
34080,note_on,,,,,6,0,6,,,,5,,48,62
34080,note_on,,,,,3,0,7,,,,6,,64,127
34080,note_on,,,,,3,0,3,,,,2,,64,62
34080,note_on,,,,,3,0,1,,,,0,,67,127
34080,note_on,,,,,6,0,10,,,,11,,48,49
34080,note_on,,,,,6,0,2,,,,1,,60,127
34080,note_on,,,,,0,0,12,,,,13,,48,49
34080,note_on,,,,,3,0,8,,,,7,,64,75
34101,note_off,,,,,21,0,8,,,,7,,64,0
34101,note_off,,,,,21,0,7,,,,6,,64,0
34101,note_off,,,,,21,0,3,,,,2,,64,0
34104,note_on,,,,,3,0,3,,,,2,,62,62
34104,note_on,,,,,3,0,7,,,,6,,62,127
34104,note_on,,,,,3,0,8,,,,7,,62,75
34122,note_off,,,,,42,0,6,,,,5,,48,0
34122,note_off,,,,,42,0,11,,,,12,,36,0
34122,note_off,,,,,42,0,2,,,,1,,60,0
34122,note_off,,,,,42,0,5,,,,4,,64,0
34122,note_off,,,,,42,0,10,,,,11,,48,0
34122,note_off,,,,,42,0,12,,,,13,,67,0
34122,note_off,,,,,0,0,12,,,,13,,76,0
34122,note_off,,,,,42,0,13,,,,14,,60,0
34122,note_off,,,,,42,0,4,,,,3,,60,0
34122,note_off,,,,,42,0,9,,,,8,,64,0
34122,note_off,,,,,0,0,12,,,,13,,48,0
34122,note_off,,,,,42,0,1,,,,0,,67,0
34125,note_off,,,,,21,0,3,,,,2,,62,0
34125,note_off,,,,,21,0,7,,,,6,,62,0
34125,note_off,,,,,21,0,8,,,,7,,62,0
34128,note_on,,,,,6,0,13,,,,14,,67,75
34128,note_on,,,,,6,0,12,,,,13,,67,49
34128,note_on,,,,,0,0,12,,,,13,,72,49
34128,note_on,,,,,0,0,12,,,,13,,52,49
34128,note_on,,,,,6,0,5,,,,4,,67,62
34128,note_on,,,,,6,0,9,,,,8,,60,75
34128,note_on,,,,,6,0,4,,,,3,,60,62
34128,note_on,,,,,3,0,8,,,,7,,64,75
34128,note_on,,,,,3,0,3,,,,2,,64,62
34128,note_on,,,,,3,0,7,,,,6,,64,127
34128,note_on,,,,,6,0,11,,,,12,,40,49
34128,note_on,,,,,6,0,6,,,,5,,52,62
34128,note_on,,,,,6,0,1,,,,0,,60,127
34128,note_on,,,,,6,0,10,,,,11,,52,49
34149,note_off,,,,,21,0,7,,,,6,,64,0
34149,note_off,,,,,21,0,3,,,,2,,64,0
34149,note_off,,,,,21,0,1,,,,0,,60,0
34149,note_off,,,,,21,0,8,,,,7,,64,0
34152,note_on,,,,,3,0,1,,,,0,,60,127
34152,note_on,,,,,3,0,3,,,,2,,60,62
34152,note_on,,,,,3,0,7,,,,6,,60,127
34152,note_on,,,,,3,0,8,,,,7,,60,75
34170,note_off,,,,,0,0,12,,,,13,,52,0
34170,note_off,,,,,42,0,12,,,,13,,67,0
34170,note_off,,,,,0,0,12,,,,13,,72,0
34170,note_off,,,,,42,0,13,,,,14,,67,0
34170,note_off,,,,,42,0,6,,,,5,,52,0
34170,note_off,,,,,42,0,5,,,,4,,67,0
34170,note_off,,,,,42,0,9,,,,8,,60,0
34170,note_off,,,,,42,0,4,,,,3,,60,0
34170,note_off,,,,,42,0,11,,,,12,,40,0
34170,note_off,,,,,42,0,10,,,,11,,52,0
34173,note_off,,,,,21,0,7,,,,6,,60,0
34173,note_off,,,,,21,0,3,,,,2,,60,0
34173,note_off,,,,,21,0,8,,,,7,,60,0
34173,note_off,,,,,21,0,1,,,,0,,60,0
34176,note_on,,,,,3,0,8,,,,7,,67,75
34176,note_on,,,,,6,0,9,,,,8,,64,75
34176,note_on,,,,,6,0,10,,,,11,,55,49
34176,note_on,,,,,0,0,12,,,,13,,72,49
34176,note_on,,,,,0,0,12,,,,13,,55,49
34176,note_on,,,,,6,0,6,,,,5,,55,62
34176,note_on,,,,,6,0,5,,,,4,,64,62
34176,note_on,,,,,6,0,12,,,,13,,64,49
34176,note_on,,,,,3,0,7,,,,6,,67,127
34176,note_on,,,,,3,0,1,,,,0,,60,127
34176,note_on,,,,,6,0,4,,,,3,,64,62
34176,note_on,,,,,6,0,13,,,,14,,64,75
34176,note_on,,,,,3,0,3,,,,2,,67,62
34176,note_on,,,,,6,0,11,,,,12,,43,49
34197,note_off,,,,,21,0,9,,,,8,,64,0
34197,note_off,,,,,21,0,7,,,,6,,67,0
34197,note_off,,,,,21,0,3,,,,2,,67,0
34197,note_off,,,,,21,0,4,,,,3,,64,0
34197,note_off,,,,,21,0,8,,,,7,,67,0
34197,note_off,,,,,21,0,1,,,,0,,60,0
34200,note_on,,,,,3,0,7,,,,6,,65,127
34200,note_on,,,,,3,0,4,,,,3,,62,62
34200,note_on,,,,,3,0,9,,,,8,,62,75
34200,note_on,,,,,3,0,1,,,,0,,60,127
34200,note_on,,,,,3,0,8,,,,7,,65,75
34200,note_on,,,,,3,0,3,,,,2,,65,62
34218,note_off,,,,,0,0,12,,,,13,,55,0
34218,note_off,,,,,42,0,6,,,,5,,55,0
34218,note_off,,,,,42,0,11,,,,12,,43,0
34218,note_off,,,,,42,0,10,,,,11,,55,0
34218,note_off,,,,,42,0,5,,,,4,,64,0
34218,note_off,,,,,42,0,13,,,,14,,64,0
34218,note_off,,,,,42,0,12,,,,13,,64,0
34218,note_off,,,,,0,0,12,,,,13,,72,0
34221,note_off,,,,,21,0,7,,,,6,,65,0
34221,note_off,,,,,21,0,4,,,,3,,62,0
34221,note_off,,,,,21,0,1,,,,0,,60,0
34221,note_off,,,,,21,0,9,,,,8,,62,0
34221,note_off,,,,,21,0,3,,,,2,,65,0
34221,note_off,,,,,21,0,8,,,,7,,65,0
34224,note_on,,,,,3,0,3,,,,2,,67,62
34224,note_on,,,,,3,0,1,,,,0,,60,127
34224,note_on,,,,,6,0,11,,,,12,,36,49
34224,note_on,,,,,3,0,8,,,,7,,67,75
34224,note_on,,,,,102,0,2,,,,1,,67,127
34224,note_on,,,,,3,0,7,,,,6,,67,127
34224,note_on,,,,,6,0,13,,,,14,,60,75
34224,note_on,,,,,6,0,6,,,,5,,48,62
34224,note_on,,,,,0,0,12,,,,13,,48,49
34224,note_on,,,,,6,0,10,,,,11,,48,49
34224,note_on,,,,,6,0,5,,,,4,,60,62
34224,note_on,,,,,3,0,9,,,,8,,64,75
34224,note_on,,,,,3,0,4,,,,3,,64,62
34224,note_on,,,,,6,0,12,,,,13,,67,49
34224,note_on,,,,,0,0,12,,,,13,,76,49
34245,note_off,,,,,21,0,4,,,,3,,64,0
34245,note_off,,,,,21,0,8,,,,7,,67,0
34245,note_off,,,,,21,0,9,,,,8,,64,0
34245,note_off,,,,,21,0,3,,,,2,,67,0
34245,note_off,,,,,21,0,7,,,,6,,67,0
34248,note_on,,,,,3,0,8,,,,7,,64,75
34248,note_on,,,,,3,0,4,,,,3,,60,62
34248,note_on,,,,,3,0,3,,,,2,,64,62
34248,note_on,,,,,3,0,7,,,,6,,64,127
34248,note_on,,,,,3,0,9,,,,8,,60,75
34266,note_off,,,,,42,0,11,,,,12,,36,0
34266,note_off,,,,,42,0,6,,,,5,,48,0
34266,note_off,,,,,42,0,13,,,,14,,60,0
34266,note_off,,,,,0,0,12,,,,13,,48,0
34266,note_off,,,,,42,0,5,,,,4,,60,0
34266,note_off,,,,,0,0,12,,,,13,,76,0
34266,note_off,,,,,42,0,12,,,,13,,67,0
34266,note_off,,,,,42,0,1,,,,0,,60,0
34266,note_off,,,,,42,0,2,,,,1,,67,0
34266,note_off,,,,,42,0,10,,,,11,,48,0
34269,note_off,,,,,21,0,9,,,,8,,60,0
34269,note_off,,,,,21,0,8,,,,7,,64,0
34269,note_off,,,,,21,0,7,,,,6,,64,0
34269,note_off,,,,,21,0,4,,,,3,,60,0
34269,note_off,,,,,21,0,3,,,,2,,64,0
34272,note_on,,,,,3,0,8,,,,7,,70,75
34272,note_on,,,,,3,0,4,,,,3,,67,62
34272,note_on,,,,,6,0,6,,,,5,,52,62
34272,note_on,,,,,6,0,11,,,,12,,40,49
34272,note_on,,,,,3,0,7,,,,6,,70,127
34272,note_on,,,,,0,0,12,,,,13,,52,49
34272,note_on,,,,,3,0,9,,,,8,,67,75
34272,note_on,,,,,0,0,12,,,,13,,72,49
34272,note_on,,,,,6,0,2,,,,1,,60,127
34272,note_on,,,,,6,0,5,,,,4,,60,62
34272,note_on,,,,,6,0,13,,,,14,,60,75
34272,note_on,,,,,3,0,3,,,,2,,70,62
34272,note_on,,,,,6,0,10,,,,11,,52,49
34272,note_on,,,,,6,0,12,,,,13,,67,49
34293,note_off,,,,,21,0,7,,,,6,,70,0
34293,note_off,,,,,21,0,4,,,,3,,67,0
34293,note_off,,,,,21,0,2,,,,1,,60,0
34293,note_off,,,,,21,0,9,,,,8,,67,0
34293,note_off,,,,,21,0,3,,,,2,,70,0
34293,note_off,,,,,21,0,8,,,,7,,70,0
34296,note_on,,,,,3,0,2,,,,1,,60,127
34296,note_on,,,,,3,0,9,,,,8,,65,75
34296,note_on,,,,,3,0,7,,,,6,,69,127
34296,note_on,,,,,3,0,4,,,,3,,65,62
34296,note_on,,,,,3,0,3,,,,2,,69,62
34296,note_on,,,,,3,0,8,,,,7,,69,75
34314,note_off,,,,,42,0,11,,,,12,,40,0
34314,note_off,,,,,0,0,12,,,,13,,52,0
34314,note_off,,,,,0,0,12,,,,13,,72,0
34314,note_off,,,,,42,0,12,,,,13,,67,0
34314,note_off,,,,,42,0,13,,,,14,,60,0
34314,note_off,,,,,42,0,6,,,,5,,52,0
34314,note_off,,,,,42,0,5,,,,4,,60,0
34314,note_off,,,,,42,0,10,,,,11,,52,0
34317,note_off,,,,,21,0,2,,,,1,,60,0
34317,note_off,,,,,21,0,4,,,,3,,65,0
34317,note_off,,,,,21,0,3,,,,2,,69,0
34317,note_off,,,,,21,0,9,,,,8,,65,0
34317,note_off,,,,,21,0,8,,,,7,,69,0
34317,note_off,,,,,21,0,7,,,,6,,69,0
34320,note_on,,,,,0,0,12,,,,13,,72,49
34320,note_on,,,,,6,0,12,,,,13,,64,49
34320,note_on,,,,,3,0,3,,,,2,,70,62
34320,note_on,,,,,3,0,4,,,,3,,67,62
34320,note_on,,,,,6,0,5,,,,4,,64,62
34320,note_on,,,,,6,0,10,,,,11,,55,49
34320,note_on,,,,,6,0,11,,,,12,,43,49
34320,note_on,,,,,6,0,13,,,,14,,64,75
34320,note_on,,,,,6,0,6,,,,5,,55,62
34320,note_on,,,,,3,0,8,,,,7,,70,75
34320,note_on,,,,,3,0,7,,,,6,,70,127
34320,note_on,,,,,3,0,9,,,,8,,67,75
34320,note_on,,,,,3,0,2,,,,1,,60,127
34320,note_on,,,,,0,0,12,,,,13,,55,49
34341,note_off,,,,,21,0,7,,,,6,,70,0
34341,note_off,,,,,21,0,9,,,,8,,67,0
34341,note_off,,,,,21,0,8,,,,7,,70,0
34341,note_off,,,,,21,0,2,,,,1,,60,0
34341,note_off,,,,,21,0,4,,,,3,,67,0
34341,note_off,,,,,21,0,3,,,,2,,70,0
34344,note_on,,,,,3,0,9,,,,8,,64,75
34344,note_on,,,,,3,0,7,,,,6,,67,127
34344,note_on,,,,,3,0,4,,,,3,,64,62
34344,note_on,,,,,3,0,3,,,,2,,67,62
34344,note_on,,,,,3,0,2,,,,1,,60,127
34344,note_on,,,,,3,0,8,,,,7,,67,75
34362,note_off,,,,,42,0,13,,,,14,,64,0
34362,note_off,,,,,42,0,6,,,,5,,55,0
34362,note_off,,,,,42,0,5,,,,4,,64,0
34362,note_off,,,,,42,0,11,,,,12,,43,0
34362,note_off,,,,,42,0,10,,,,11,,55,0
34362,note_off,,,,,42,0,12,,,,13,,64,0
34362,note_off,,,,,0,0,12,,,,13,,55,0
34362,note_off,,,,,0,0,12,,,,13,,72,0
34365,note_off,,,,,21,0,8,,,,7,,67,0
34365,note_off,,,,,21,0,2,,,,1,,60,0
34365,note_off,,,,,21,0,4,,,,3,,64,0
34365,note_off,,,,,21,0,9,,,,8,,64,0
34365,note_off,,,,,21,0,7,,,,6,,67,0
34365,note_off,,,,,21,0,3,,,,2,,67,0
34368,note_on,,,,,3,0,3,,,,2,,76,62
34368,note_on,,,,,3,0,4,,,,3,,70,62
34368,note_on,,,,,3,0,7,,,,6,,76,127
34368,note_on,,,,,3,0,2,,,,1,,60,127
34368,note_on,,,,,6,0,10,,,,11,,48,49
34368,note_on,,,,,6,0,6,,,,5,,48,62
34368,note_on,,,,,6,0,12,,,,13,,67,49
34368,note_on,,,,,6,0,13,,,,14,,67,75
34368,note_on,,,,,6,0,5,,,,4,,67,62
34368,note_on,,,,,102,0,1,,,,0,,70,127
34368,note_on,,,,,3,0,8,,,,7,,76,75
34368,note_on,,,,,0,0,12,,,,13,,76,49
34368,note_on,,,,,0,0,12,,,,13,,48,49
34368,note_on,,,,,3,0,9,,,,8,,70,75
34368,note_on,,,,,6,0,11,,,,12,,36,49
34389,note_off,,,,,21,0,8,,,,7,,76,0
34389,note_off,,,,,21,0,3,,,,2,,76,0
34389,note_off,,,,,21,0,9,,,,8,,70,0
34389,note_off,,,,,21,0,5,,,,4,,67,0
34389,note_off,,,,,21,0,4,,,,3,,70,0
34389,note_off,,,,,21,0,7,,,,6,,76,0
34389,note_off,,,,,21,0,13,,,,14,,67,0
34392,note_on,,,,,3,0,8,,,,7,,74,75
34392,note_on,,,,,3,0,9,,,,8,,69,75
34392,note_on,,,,,3,0,3,,,,2,,74,62
34392,note_on,,,,,3,0,4,,,,3,,69,62
34392,note_on,,,,,3,0,13,,,,14,,65,75
34392,note_on,,,,,3,0,7,,,,6,,74,127
34392,note_on,,,,,3,0,5,,,,4,,65,62
34410,note_off,,,,,42,0,12,,,,13,,67,0
34410,note_off,,,,,42,0,11,,,,12,,36,0
34410,note_off,,,,,0,0,12,,,,13,,48,0
34410,note_off,,,,,42,0,6,,,,5,,48,0
34410,note_off,,,,,42,0,1,,,,0,,70,0
34410,note_off,,,,,42,0,2,,,,1,,60,0
34410,note_off,,,,,42,0,10,,,,11,,48,0
34410,note_off,,,,,0,0,12,,,,13,,76,0
34413,note_off,,,,,21,0,4,,,,3,,69,0
34413,note_off,,,,,21,0,9,,,,8,,69,0
34413,note_off,,,,,21,0,5,,,,4,,65,0
34413,note_off,,,,,21,0,3,,,,2,,74,0
34413,note_off,,,,,21,0,13,,,,14,,65,0
34413,note_off,,,,,21,0,8,,,,7,,74,0
34413,note_off,,,,,21,0,7,,,,6,,74,0
34416,note_on,,,,,3,0,8,,,,7,,76,75
34416,note_on,,,,,6,0,12,,,,13,,67,49
34416,note_on,,,,,0,0,12,,,,13,,52,49
34416,note_on,,,,,6,0,11,,,,12,,40,49
34416,note_on,,,,,3,0,13,,,,14,,67,75
34416,note_on,,,,,3,0,9,,,,8,,70,75
34416,note_on,,,,,3,0,4,,,,3,,70,62
34416,note_on,,,,,3,0,7,,,,6,,76,127
34416,note_on,,,,,6,0,1,,,,0,,60,127
34416,note_on,,,,,6,0,6,,,,5,,52,62
34416,note_on,,,,,0,0,12,,,,13,,72,49
34416,note_on,,,,,3,0,3,,,,2,,76,62
34416,note_on,,,,,6,0,10,,,,11,,52,49
34416,note_on,,,,,3,0,5,,,,4,,67,62
34437,note_off,,,,,21,0,9,,,,8,,70,0
34437,note_off,,,,,21,0,13,,,,14,,67,0
34437,note_off,,,,,21,0,4,,,,3,,70,0
34437,note_off,,,,,21,0,3,,,,2,,76,0
34437,note_off,,,,,21,0,8,,,,7,,76,0
34437,note_off,,,,,21,0,1,,,,0,,60,0
34437,note_off,,,,,21,0,5,,,,4,,67,0
34437,note_off,,,,,21,0,7,,,,6,,76,0
34440,note_on,,,,,3,0,8,,,,7,,72,75
34440,note_on,,,,,3,0,3,,,,2,,72,62
34440,note_on,,,,,3,0,5,,,,4,,64,62
34440,note_on,,,,,3,0,4,,,,3,,67,62
34440,note_on,,,,,3,0,1,,,,0,,60,127
34440,note_on,,,,,3,0,9,,,,8,,67,75
34440,note_on,,,,,3,0,7,,,,6,,72,127
34440,note_on,,,,,3,0,13,,,,14,,64,75
34458,note_off,,,,,0,0,12,,,,13,,52,0
34458,note_off,,,,,42,0,10,,,,11,,52,0
34458,note_off,,,,,42,0,6,,,,5,,52,0
34458,note_off,,,,,0,0,12,,,,13,,72,0
34458,note_off,,,,,42,0,12,,,,13,,67,0
34458,note_off,,,,,42,0,11,,,,12,,40,0
34461,note_off,,,,,21,0,4,,,,3,,67,0
34461,note_off,,,,,21,0,7,,,,6,,72,0
34461,note_off,,,,,21,0,5,,,,4,,64,0
34461,note_off,,,,,21,0,8,,,,7,,72,0
34461,note_off,,,,,21,0,3,,,,2,,72,0
34461,note_off,,,,,21,0,1,,,,0,,60,0
34461,note_off,,,,,21,0,13,,,,14,,64,0
34461,note_off,,,,,21,0,9,,,,8,,67,0
34464,note_on,,,,,3,0,1,,,,0,,60,127
34464,note_on,,,,,3,0,8,,,,7,,79,75
34464,note_on,,,,,3,0,13,,,,14,,70,75
34464,note_on,,,,,6,0,12,,,,13,,64,49
34464,note_on,,,,,0,0,12,,,,13,,72,49
34464,note_on,,,,,0,0,12,,,,13,,55,49
34464,note_on,,,,,3,0,7,,,,6,,79,127
34464,note_on,,,,,3,0,9,,,,8,,76,75
34464,note_on,,,,,6,0,11,,,,12,,43,49
34464,note_on,,,,,3,0,4,,,,3,,76,62
34464,note_on,,,,,6,0,10,,,,11,,55,49
34464,note_on,,,,,3,0,5,,,,4,,70,62
34464,note_on,,,,,6,0,6,,,,5,,55,62
34464,note_on,,,,,3,0,3,,,,2,,79,62
34485,note_off,,,,,21,0,9,,,,8,,76,0
34485,note_off,,,,,21,0,8,,,,7,,79,0
34485,note_off,,,,,21,0,5,,,,4,,70,0
34485,note_off,,,,,21,0,13,,,,14,,70,0
34485,note_off,,,,,21,0,3,,,,2,,79,0
34485,note_off,,,,,21,0,7,,,,6,,79,0
34485,note_off,,,,,21,0,1,,,,0,,60,0
34485,note_off,,,,,21,0,4,,,,3,,76,0
34488,note_on,,,,,3,0,1,,,,0,,60,127
34488,note_on,,,,,3,0,8,,,,7,,77,75
34488,note_on,,,,,3,0,13,,,,14,,69,75
34488,note_on,,,,,3,0,3,,,,2,,77,62
34488,note_on,,,,,3,0,9,,,,8,,74,75
34488,note_on,,,,,3,0,7,,,,6,,77,127
34488,note_on,,,,,3,0,5,,,,4,,69,62
34488,note_on,,,,,3,0,4,,,,3,,72,62
34506,note_off,,,,,42,0,10,,,,11,,55,0
34506,note_off,,,,,42,0,6,,,,5,,55,0
34506,note_off,,,,,42,0,11,,,,12,,43,0
34506,note_off,,,,,42,0,12,,,,13,,64,0
34506,note_off,,,,,0,0,12,,,,13,,55,0
34506,note_off,,,,,0,0,12,,,,13,,72,0
34509,note_off,,,,,21,0,5,,,,4,,69,0
34509,note_off,,,,,21,0,8,,,,7,,77,0
34509,note_off,,,,,21,0,1,,,,0,,60,0
34509,note_off,,,,,21,0,7,,,,6,,77,0
34509,note_off,,,,,21,0,13,,,,14,,69,0
34509,note_off,,,,,21,0,4,,,,3,,72,0
34509,note_off,,,,,21,0,9,,,,8,,74,0
34509,note_off,,,,,21,0,3,,,,2,,77,0
34512,note_on,,,,,6,0,10,,,,11,,48,49
34512,note_on,,,,,3,0,4,,,,3,,79,62
34512,note_on,,,,,6,0,6,,,,5,,48,62
34512,note_on,,,,,3,0,8,,,,7,,79,75
34512,note_on,,,,,3,0,13,,,,14,,70,75
34512,note_on,,,,,6,0,12,,,,13,,67,49
34512,note_on,,,,,3,0,7,,,,6,,79,127
34512,note_on,,,,,3,0,9,,,,8,,76,75
34512,note_on,,,,,6,0,11,,,,12,,36,49
34512,note_on,,,,,102,0,2,,,,1,,70,127
34512,note_on,,,,,0,0,12,,,,13,,48,49
34512,note_on,,,,,3,0,1,,,,0,,60,127
34512,note_on,,,,,0,0,12,,,,13,,76,49
34512,note_on,,,,,3,0,3,,,,2,,79,62
34512,note_on,,,,,3,0,5,,,,4,,70,62
34533,note_off,,,,,21,0,7,,,,6,,79,0
34533,note_off,,,,,21,0,9,,,,8,,76,0
34533,note_off,,,,,21,0,13,,,,14,,70,0
34533,note_off,,,,,21,0,3,,,,2,,79,0
34533,note_off,,,,,21,0,8,,,,7,,79,0
34533,note_off,,,,,21,0,4,,,,3,,79,0
34533,note_off,,,,,21,0,5,,,,4,,70,0
34536,note_on,,,,,3,0,3,,,,2,,76,62
34536,note_on,,,,,3,0,7,,,,6,,76,127
34536,note_on,,,,,3,0,8,,,,7,,76,75
34536,note_on,,,,,3,0,13,,,,14,,67,75
34536,note_on,,,,,3,0,9,,,,8,,72,75
34536,note_on,,,,,3,0,5,,,,4,,67,62
34536,note_on,,,,,3,0,4,,,,3,,77,62
34554,note_off,,,,,42,0,1,,,,0,,60,0
34554,note_off,,,,,42,0,2,,,,1,,70,0
34554,note_off,,,,,0,0,12,,,,13,,48,0
34554,note_off,,,,,0,0,12,,,,13,,76,0
34554,note_off,,,,,42,0,12,,,,13,,67,0
34554,note_off,,,,,42,0,11,,,,12,,36,0
34554,note_off,,,,,42,0,6,,,,5,,48,0
34554,note_off,,,,,42,0,10,,,,11,,48,0
34557,note_off,,,,,21,0,13,,,,14,,67,0
34557,note_off,,,,,21,0,7,,,,6,,76,0
34557,note_off,,,,,21,0,5,,,,4,,67,0
34557,note_off,,,,,21,0,9,,,,8,,72,0
34557,note_off,,,,,21,0,4,,,,3,,77,0
34557,note_off,,,,,21,0,8,,,,7,,76,0
34557,note_off,,,,,21,0,3,,,,2,,76,0
34560,note_on,,,,,6,0,2,,,,1,,60,127
34560,note_on,,,,,3,0,9,,,,8,,79,75
34560,note_on,,,,,3,0,13,,,,14,,76,75
34560,note_on,,,,,3,0,4,,,,3,,79,62
34560,note_on,,,,,6,0,11,,,,12,,40,49
34560,note_on,,,,,3,0,5,,,,4,,76,62
34560,note_on,,,,,6,0,10,,,,11,,52,49
34560,note_on,,,,,3,0,3,,,,2,,82,62
34560,note_on,,,,,0,0,12,,,,13,,72,49
34560,note_on,,,,,6,0,12,,,,13,,67,49
34560,note_on,,,,,3,0,8,,,,7,,82,75
34560,note_on,,,,,3,0,7,,,,6,,82,127
34560,note_on,,,,,6,0,6,,,,5,,52,62
34560,note_on,,,,,0,0,12,,,,13,,52,49
34581,note_off,,,,,21,0,9,,,,8,,79,0
34581,note_off,,,,,21,0,3,,,,2,,82,0
34581,note_off,,,,,21,0,2,,,,1,,60,0
34581,note_off,,,,,21,0,7,,,,6,,82,0
34581,note_off,,,,,21,0,4,,,,3,,79,0
34581,note_off,,,,,21,0,8,,,,7,,82,0
34584,note_on,,,,,3,0,2,,,,1,,60,127
34584,note_on,,,,,3,0,8,,,,7,,81,75
34584,note_on,,,,,3,0,9,,,,8,,77,75
34584,note_on,,,,,3,0,3,,,,2,,81,62
34584,note_on,,,,,3,0,7,,,,6,,81,127
34584,note_on,,,,,3,0,4,,,,3,,76,62
34602,note_off,,,,,42,0,6,,,,5,,52,0
34602,note_off,,,,,42,0,11,,,,12,,40,0
34602,note_off,,,,,42,0,12,,,,13,,67,0
34602,note_off,,,,,0,0,12,,,,13,,72,0
34602,note_off,,,,,0,0,12,,,,13,,52,0
34602,note_off,,,,,42,0,5,,,,4,,76,0
34602,note_off,,,,,42,0,10,,,,11,,52,0
34602,note_off,,,,,42,0,13,,,,14,,76,0
34605,note_off,,,,,21,0,4,,,,3,,76,0
34605,note_off,,,,,21,0,8,,,,7,,81,0
34605,note_off,,,,,21,0,2,,,,1,,60,0
34605,note_off,,,,,21,0,7,,,,6,,81,0
34605,note_off,,,,,21,0,9,,,,8,,77,0
34605,note_off,,,,,21,0,3,,,,2,,81,0
34608,note_on,,,,,6,0,5,,,,4,,76,62
34608,note_on,,,,,3,0,2,,,,1,,60,127
34608,note_on,,,,,6,0,13,,,,14,,76,75
34608,note_on,,,,,6,0,6,,,,5,,48,62
34608,note_on,,,,,3,0,3,,,,2,,82,62
34608,note_on,,,,,6,0,11,,,,12,,36,49
34608,note_on,,,,,3,0,9,,,,8,,79,75
34608,note_on,,,,,0,0,12,,,,13,,48,49
34608,note_on,,,,,0,0,12,,,,13,,76,49
34608,note_on,,,,,3,0,7,,,,6,,82,127
34608,note_on,,,,,6,0,12,,,,13,,67,49
34608,note_on,,,,,6,0,10,,,,11,,48,49
34608,note_on,,,,,3,0,8,,,,7,,82,75
34629,note_off,,,,,21,0,9,,,,8,,79,0
34629,note_off,,,,,21,0,2,,,,1,,60,0
34629,note_off,,,,,21,0,3,,,,2,,82,0
34629,note_off,,,,,21,0,7,,,,6,,82,0
34629,note_off,,,,,21,0,8,,,,7,,82,0
34632,note_on,,,,,3,0,3,,,,2,,79,62
34632,note_on,,,,,3,0,2,,,,1,,60,127
34632,note_on,,,,,3,0,9,,,,8,,76,75
34632,note_on,,,,,3,0,8,,,,7,,79,75
34632,note_on,,,,,3,0,7,,,,6,,79,127
34650,note_off,,,,,42,0,12,,,,13,,67,0
34650,note_off,,,,,42,0,10,,,,11,,48,0
34650,note_off,,,,,42,0,13,,,,14,,76,0
34650,note_off,,,,,42,0,5,,,,4,,76,0
34650,note_off,,,,,0,0,12,,,,13,,48,0
34650,note_off,,,,,42,0,11,,,,12,,36,0
34650,note_off,,,,,0,0,12,,,,13,,76,0
34650,note_off,,,,,42,0,6,,,,5,,48,0
34653,note_off,,,,,21,0,7,,,,6,,79,0
34653,note_off,,,,,21,0,8,,,,7,,79,0
34653,note_off,,,,,21,0,9,,,,8,,76,0
34653,note_off,,,,,21,0,2,,,,1,,60,0
34653,note_off,,,,,21,0,3,,,,2,,79,0
34656,note_on,,,,,6,0,11,,,,12,,41,49
34656,note_on,,,,,0,0,12,,,,13,,53,49
34656,note_on,,,,,3,0,7,,,,6,,81,127
34656,note_on,,,,,3,0,3,,,,2,,81,62
34656,note_on,,,,,3,0,9,,,,8,,77,75
34656,note_on,,,,,6,0,13,,,,14,,72,75
34656,note_on,,,,,0,0,12,,,,13,,81,49
34656,note_on,,,,,3,0,8,,,,7,,81,75
34656,note_on,,,,,6,0,10,,,,11,,53,49
34656,note_on,,,,,102,0,1,,,,0,,69,127
34656,note_on,,,,,6,0,5,,,,4,,72,62
34656,note_on,,,,,6,0,12,,,,13,,72,49
34656,note_on,,,,,51,0,4,,,,3,,77,62
34656,note_on,,,,,6,0,6,,,,5,,53,62
34656,note_on,,,,,3,0,2,,,,1,,65,127
34677,note_off,,,,,21,0,10,,,,11,,53,0
34677,note_off,,,,,21,0,1,,,,0,,69,0
34677,note_off,,,,,21,0,7,,,,6,,81,0
34677,note_off,,,,,21,0,2,,,,1,,65,0
34677,note_off,,,,,21,0,12,,,,13,,53,0
34677,note_off,,,,,21,0,3,,,,2,,81,0
34677,note_off,,,,,21,0,6,,,,5,,53,0
34677,note_off,,,,,21,0,11,,,,12,,41,0
34677,note_off,,,,,21,0,8,,,,7,,81,0
34680,note_on,,,,,3,0,1,,,,0,,70,127
34680,note_on,,,,,3,0,10,,,,11,,52,49
34680,note_on,,,,,3,0,8,,,,7,,79,75
34680,note_on,,,,,3,0,3,,,,2,,79,62
34680,note_on,,,,,3,0,7,,,,6,,79,127
34680,note_on,,,,,3,0,6,,,,5,,52,62
34680,note_on,,,,,3,0,12,,,,13,,52,49
34680,note_on,,,,,3,0,2,,,,1,,67,127
34680,note_on,,,,,3,0,11,,,,12,,40,49
34698,note_off,,,,,42,0,4,,,,3,,77,0
34698,note_off,,,,,0,0,12,,,,13,,81,0
34698,note_off,,,,,42,0,13,,,,14,,72,0
34698,note_off,,,,,18,0,12,,,,13,,72,0
34698,note_off,,,,,42,0,9,,,,8,,77,0
34698,note_off,,,,,42,0,5,,,,4,,72,0
34701,note_off,,,,,21,0,1,,,,0,,70,0
34701,note_off,,,,,21,0,8,,,,7,,79,0
34701,note_off,,,,,21,0,3,,,,2,,79,0
34701,note_off,,,,,3,0,12,,,,13,,52,0
34701,note_off,,,,,21,0,7,,,,6,,79,0
34701,note_off,,,,,21,0,11,,,,12,,40,0
34701,note_off,,,,,21,0,6,,,,5,,52,0
34701,note_off,,,,,21,0,2,,,,1,,67,0
34701,note_off,,,,,21,0,10,,,,11,,52,0
34704,note_on,,,,,3,0,8,,,,7,,81,75
34704,note_on,,,,,3,0,3,,,,2,,81,62
34704,note_on,,,,,3,0,7,,,,6,,81,127
34704,note_on,,,,,3,0,1,,,,0,,69,127
34704,note_on,,,,,6,0,13,,,,14,,69,75
34704,note_on,,,,,3,0,10,,,,11,,53,49
34704,note_on,,,,,6,0,9,,,,8,,72,75
34704,note_on,,,,,3,0,12,,,,13,,72,49
34704,note_on,,,,,0,0,12,,,,13,,81,49
34704,note_on,,,,,0,0,12,,,,13,,53,49
34704,note_on,,,,,3,0,6,,,,5,,53,62
34704,note_on,,,,,6,0,5,,,,4,,69,62
34704,note_on,,,,,3,0,11,,,,12,,41,49
34704,note_on,,,,,6,0,4,,,,3,,72,62
34704,note_on,,,,,3,0,2,,,,1,,65,127
34725,note_off,,,,,21,0,1,,,,0,,69,0
34725,note_off,,,,,21,0,10,,,,11,,53,0
34725,note_off,,,,,21,0,12,,,,13,,53,0
34725,note_off,,,,,21,0,8,,,,7,,81,0
34725,note_off,,,,,21,0,3,,,,2,,81,0
34725,note_off,,,,,21,0,2,,,,1,,65,0
34725,note_off,,,,,21,0,6,,,,5,,53,0
34725,note_off,,,,,21,0,11,,,,12,,41,0
34725,note_off,,,,,21,0,7,,,,6,,81,0
34728,note_on,,,,,3,0,2,,,,1,,67,127
34728,note_on,,,,,3,0,3,,,,2,,76,62
34728,note_on,,,,,3,0,6,,,,5,,52,62
34728,note_on,,,,,3,0,1,,,,0,,70,127
34728,note_on,,,,,3,0,12,,,,13,,52,49
34728,note_on,,,,,3,0,7,,,,6,,76,127
34728,note_on,,,,,3,0,8,,,,7,,76,75
34728,note_on,,,,,3,0,10,,,,11,,52,49
34728,note_on,,,,,3,0,11,,,,12,,40,49
34746,note_off,,,,,42,0,5,,,,4,,69,0
34746,note_off,,,,,42,0,13,,,,14,,69,0
34746,note_off,,,,,0,0,12,,,,13,,81,0
34746,note_off,,,,,42,0,9,,,,8,,72,0
34746,note_off,,,,,18,0,12,,,,13,,72,0
34746,note_off,,,,,42,0,4,,,,3,,72,0
34749,note_off,,,,,21,0,10,,,,11,,52,0
34749,note_off,,,,,21,0,7,,,,6,,76,0
34749,note_off,,,,,21,0,11,,,,12,,40,0
34749,note_off,,,,,3,0,12,,,,13,,52,0
34749,note_off,,,,,21,0,2,,,,1,,67,0
34749,note_off,,,,,21,0,3,,,,2,,76,0
34749,note_off,,,,,21,0,6,,,,5,,52,0
34749,note_off,,,,,21,0,8,,,,7,,76,0
34749,note_off,,,,,21,0,1,,,,0,,70,0
34752,note_on,,,,,3,0,6,,,,5,,50,62
34752,note_on,,,,,3,0,11,,,,12,,38,49
34752,note_on,,,,,6,0,5,,,,4,,69,62
34752,note_on,,,,,3,0,12,,,,13,,69,49
34752,note_on,,,,,3,0,8,,,,7,,77,75
34752,note_on,,,,,0,0,12,,,,13,,77,49
34752,note_on,,,,,3,0,2,,,,1,,69,127
34752,note_on,,,,,3,0,3,,,,2,,77,62
34752,note_on,,,,,6,0,13,,,,14,,69,75
34752,note_on,,,,,3,0,1,,,,0,,72,127
34752,note_on,,,,,3,0,7,,,,6,,77,127
34752,note_on,,,,,6,0,4,,,,3,,74,62
34752,note_on,,,,,6,0,9,,,,8,,74,75
34752,note_on,,,,,3,0,10,,,,11,,50,49
34752,note_on,,,,,0,0,12,,,,13,,50,49
34773,note_off,,,,,21,0,3,,,,2,,77,0
34773,note_off,,,,,21,0,8,,,,7,,77,0
34773,note_off,,,,,21,0,2,,,,1,,69,0
34773,note_off,,,,,21,0,7,,,,6,,77,0
34773,note_off,,,,,21,0,1,,,,0,,72,0
34776,note_on,,,,,3,0,2,,,,1,,67,127
34776,note_on,,,,,3,0,1,,,,0,,70,127
34776,note_on,,,,,3,0,3,,,,2,,76,62
34776,note_on,,,,,3,0,7,,,,6,,76,127
34776,note_on,,,,,3,0,8,,,,7,,76,75
34794,note_off,,,,,0,0,12,,,,13,,77,0
34794,note_off,,,,,42,0,12,,,,13,,69,0
34797,note_off,,,,,21,0,1,,,,0,,70,0
34797,note_off,,,,,21,0,3,,,,2,,76,0
34797,note_off,,,,,21,0,8,,,,7,,76,0
34797,note_off,,,,,21,0,2,,,,1,,67,0
34797,note_off,,,,,21,0,7,,,,6,,76,0
34800,note_on,,,,,3,0,8,,,,7,,77,75
34800,note_on,,,,,3,0,1,,,,0,,69,127
34800,note_on,,,,,3,0,3,,,,2,,77,62
34800,note_on,,,,,6,0,12,,,,13,,70,49
34800,note_on,,,,,0,0,12,,,,13,,77,49
34800,note_on,,,,,3,0,2,,,,1,,65,127
34800,note_on,,,,,3,0,7,,,,6,,77,127
34821,note_off,,,,,69,0,11,,,,12,,38,0
34821,note_off,,,,,69,0,13,,,,14,,69,0
34821,note_off,,,,,21,0,8,,,,7,,77,0
34821,note_off,,,,,21,0,12,,,,13,,50,0
34821,note_off,,,,,69,0,5,,,,4,,69,0
34821,note_off,,,,,69,0,4,,,,3,,74,0
34821,note_off,,,,,69,0,9,,,,8,,74,0
34821,note_off,,,,,69,0,10,,,,11,,50,0
34821,note_off,,,,,69,0,6,,,,5,,50,0
34821,note_off,,,,,21,0,7,,,,6,,77,0
34821,note_off,,,,,21,0,3,,,,2,,77,0
34824,note_on,,,,,3,0,7,,,,6,,79,127
34824,note_on,,,,,3,0,9,,,,8,,77,75
34824,note_on,,,,,3,0,3,,,,2,,79,62
34824,note_on,,,,,3,0,8,,,,7,,79,75
34824,note_on,,,,,3,0,10,,,,11,,46,49
34824,note_on,,,,,3,0,4,,,,3,,77,62
34824,note_on,,,,,3,0,13,,,,14,,74,75
34824,note_on,,,,,3,0,11,,,,12,,34,49
34824,note_on,,,,,3,0,6,,,,5,,46,62
34824,note_on,,,,,3,0,5,,,,4,,74,62
34824,note_on,,,,,3,0,12,,,,13,,46,49
34842,note_off,,,,,18,0,12,,,,13,,70,0
34842,note_off,,,,,42,0,2,,,,1,,65,0
34842,note_off,,,,,42,0,1,,,,0,,69,0
34842,note_off,,,,,0,0,12,,,,13,,77,0
34845,note_off,,,,,21,0,4,,,,3,,77,0
34845,note_off,,,,,21,0,11,,,,12,,34,0
34845,note_off,,,,,21,0,6,,,,5,,46,0
34845,note_off,,,,,21,0,8,,,,7,,79,0
34845,note_off,,,,,21,0,10,,,,11,,46,0
34845,note_off,,,,,21,0,5,,,,4,,74,0
34845,note_off,,,,,21,0,9,,,,8,,77,0
34845,note_off,,,,,21,0,13,,,,14,,74,0
34845,note_off,,,,,21,0,3,,,,2,,79,0
34845,note_off,,,,,21,0,7,,,,6,,79,0
34845,note_off,,,,,3,0,12,,,,13,,46,0
34848,note_on,,,,,3,0,7,,,,6,,79,127
34848,note_on,,,,,6,0,2,,,,1,,60,127
34848,note_on,,,,,3,0,9,,,,8,,76,75
34848,note_on,,,,,3,0,3,,,,2,,79,62
34848,note_on,,,,,0,0,12,,,,13,,79,49
34848,note_on,,,,,0,0,12,,,,13,,48,49
34848,note_on,,,,,3,0,4,,,,3,,76,62
34848,note_on,,,,,3,0,8,,,,7,,79,75
34848,note_on,,,,,3,0,11,,,,12,,36,49
34848,note_on,,,,,3,0,6,,,,5,,48,62
34848,note_on,,,,,3,0,10,,,,11,,48,49
34848,note_on,,,,,3,0,5,,,,4,,72,62
34848,note_on,,,,,3,0,13,,,,14,,72,75
34848,note_on,,,,,6,0,1,,,,0,,67,127
34848,note_on,,,,,3,0,12,,,,13,,76,49
34869,note_off,,,,,21,0,1,,,,0,,67,0
34869,note_off,,,,,21,0,2,,,,1,,60,0
34872,note_on,,,,,3,0,1,,,,0,,65,127
34872,note_on,,,,,3,0,2,,,,1,,60,127
34890,note_off,,,,,42,0,5,,,,4,,72,0
34890,note_off,,,,,42,0,12,,,,13,,76,0
34890,note_off,,,,,0,0,12,,,,13,,79,0
34890,note_off,,,,,42,0,10,,,,11,,48,0
34890,note_off,,,,,0,0,12,,,,13,,48,0
34890,note_off,,,,,42,0,6,,,,5,,48,0
34890,note_off,,,,,42,0,11,,,,12,,36,0
34890,note_off,,,,,42,0,13,,,,14,,72,0
34893,note_off,,,,,21,0,2,,,,1,,60,0
34893,note_off,,,,,21,0,1,,,,0,,65,0
34896,note_on,,,,,6,0,5,,,,4,,70,62
34896,note_on,,,,,6,0,6,,,,5,,36,62
34896,note_on,,,,,0,0,12,,,,13,,36,49
34896,note_on,,,,,6,0,10,,,,11,,36,49
34896,note_on,,,,,3,0,1,,,,0,,67,127
34896,note_on,,,,,0,0,12,,,,13,,76,49
34896,note_on,,,,,6,0,11,,,,12,,24,49
34896,note_on,,,,,6,0,12,,,,13,,67,49
34896,note_on,,,,,3,0,2,,,,1,,60,127
34896,note_on,,,,,6,0,13,,,,14,,70,75
34911,note_off,,,,,63,0,4,,,,3,,76,0
34911,note_off,,,,,63,0,7,,,,6,,79,0
34911,note_off,,,,,63,0,3,,,,2,,79,0
34911,note_off,,,,,63,0,8,,,,7,,79,0
34911,note_off,,,,,63,0,9,,,,8,,76,0
34917,note_off,,,,,21,0,1,,,,0,,67,0
34917,note_off,,,,,21,0,2,,,,1,,60,0
34920,note_on,,,,,9,0,9,,,,8,,77,75
34920,note_on,,,,,9,0,8,,,,7,,77,75
34920,note_on,,,,,9,0,3,,,,2,,77,62
34920,note_on,,,,,3,0,1,,,,0,,69,127
34920,note_on,,,,,9,0,7,,,,6,,77,127
34920,note_on,,,,,9,0,4,,,,3,,77,62
34920,note_on,,,,,3,0,2,,,,1,,60,127
34938,note_off,,,,,42,0,13,,,,14,,70,0
34938,note_off,,,,,42,0,11,,,,12,,24,0
34938,note_off,,,,,42,0,5,,,,4,,70,0
34938,note_off,,,,,42,0,12,,,,13,,67,0
34938,note_off,,,,,42,0,10,,,,11,,36,0
34938,note_off,,,,,0,0,12,,,,13,,36,0
34938,note_off,,,,,42,0,6,,,,5,,36,0
34938,note_off,,,,,0,0,12,,,,13,,76,0
34941,note_off,,,,,21,0,2,,,,1,,60,0
34941,note_off,,,,,21,0,3,,,,2,,77,0
34941,note_off,,,,,21,0,8,,,,7,,77,0
34941,note_off,,,,,21,0,4,,,,3,,77,0
34941,note_off,,,,,21,0,1,,,,0,,69,0
34941,note_off,,,,,21,0,7,,,,6,,77,0
34941,note_off,,,,,21,0,9,,,,8,,77,0
34944,note_on,,,,,3,0,1,,,,0,,65,127
34944,note_on,,,,,6,0,13,,,,14,,69,75
34944,note_on,,,,,3,0,4,,,,3,,77,62
34944,note_on,,,,,3,0,9,,,,8,,77,75
34944,note_on,,,,,6,0,10,,,,11,,41,49
34944,note_on,,,,,6,0,6,,,,5,,41,62
34944,note_on,,,,,3,0,7,,,,6,,77,127
34944,note_on,,,,,6,0,11,,,,12,,29,49
34944,note_on,,,,,6,0,5,,,,4,,69,62
34944,note_on,,,,,3,0,2,,,,1,,57,127
34944,note_on,,,,,6,0,12,,,,13,,72,49
34944,note_on,,,,,0,0,12,,,,13,,81,49
34944,note_on,,,,,0,0,12,,,,13,,41,49
34944,note_on,,,,,3,0,8,,,,7,,77,75
34944,note_on,,,,,3,0,3,,,,2,,77,62
34965,note_off,,,,,21,0,1,,,,0,,65,0
34965,note_off,,,,,21,0,7,,,,6,,77,0
34965,note_off,,,,,21,0,8,,,,7,,77,0
34965,note_off,,,,,21,0,3,,,,2,,77,0
34968,note_on,,,,,3,0,7,,,,6,,76,127
34968,note_on,,,,,3,0,8,,,,7,,76,75
34968,note_on,,,,,3,0,1,,,,0,,67,127
34968,note_on,,,,,3,0,3,,,,2,,76,62
34986,note_off,,,,,42,0,4,,,,3,,77,0
34986,note_off,,,,,42,0,12,,,,13,,72,0
34986,note_off,,,,,0,0,12,,,,13,,81,0
34986,note_off,,,,,0,0,12,,,,13,,41,0
34986,note_off,,,,,42,0,5,,,,4,,69,0
34986,note_off,,,,,42,0,2,,,,1,,57,0
34986,note_off,,,,,42,0,6,,,,5,,41,0
34986,note_off,,,,,42,0,13,,,,14,,69,0
34986,note_off,,,,,42,0,9,,,,8,,77,0
34986,note_off,,,,,42,0,11,,,,12,,29,0
34986,note_off,,,,,42,0,10,,,,11,,41,0
34989,note_off,,,,,21,0,3,,,,2,,76,0
34989,note_off,,,,,21,0,8,,,,7,,76,0
34989,note_off,,,,,21,0,1,,,,0,,67,0
34989,note_off,,,,,21,0,7,,,,6,,76,0
34992,note_on,,,,,3,0,1,,,,0,,65,127
34992,note_on,,,,,6,0,9,,,,8,,72,75
34992,note_on,,,,,6,0,5,,,,4,,65,62
34992,note_on,,,,,6,0,10,,,,11,,45,49
34992,note_on,,,,,6,0,6,,,,5,,45,62
34992,note_on,,,,,3,0,8,,,,7,,77,75
34992,note_on,,,,,6,0,11,,,,12,,33,49
34992,note_on,,,,,6,0,13,,,,14,,65,75
34992,note_on,,,,,3,0,7,,,,6,,77,127
34992,note_on,,,,,6,0,2,,,,1,,57,127
34992,note_on,,,,,6,0,12,,,,13,,72,49
34992,note_on,,,,,0,0,12,,,,13,,77,49
34992,note_on,,,,,0,0,12,,,,13,,45,49
34992,note_on,,,,,3,0,3,,,,2,,77,62
34992,note_on,,,,,6,0,4,,,,3,,72,62
35013,note_off,,,,,21,0,3,,,,2,,77,0
35013,note_off,,,,,21,0,2,,,,1,,57,0
35013,note_off,,,,,21,0,1,,,,0,,65,0
35013,note_off,,,,,21,0,8,,,,7,,77,0
35013,note_off,,,,,21,0,7,,,,6,,77,0
35016,note_on,,,,,3,0,8,,,,7,,72,75
35016,note_on,,,,,3,0,1,,,,0,,67,127
35016,note_on,,,,,3,0,7,,,,6,,72,127
35016,note_on,,,,,3,0,2,,,,1,,57,127
35016,note_on,,,,,3,0,3,,,,2,,72,62
35034,note_off,,,,,0,0,12,,,,13,,45,0
35034,note_off,,,,,0,0,12,,,,13,,77,0
35034,note_off,,,,,42,0,12,,,,13,,72,0
35034,note_off,,,,,42,0,13,,,,14,,65,0
35034,note_off,,,,,42,0,11,,,,12,,33,0
35034,note_off,,,,,42,0,4,,,,3,,72,0
35034,note_off,,,,,42,0,10,,,,11,,45,0
35034,note_off,,,,,42,0,9,,,,8,,72,0
35034,note_off,,,,,42,0,5,,,,4,,65,0
35034,note_off,,,,,42,0,6,,,,5,,45,0
35037,note_off,,,,,21,0,8,,,,7,,72,0
35037,note_off,,,,,21,0,1,,,,0,,67,0
35037,note_off,,,,,21,0,3,,,,2,,72,0
35037,note_off,,,,,21,0,2,,,,1,,57,0
35037,note_off,,,,,21,0,7,,,,6,,72,0
35040,note_on,,,,,6,0,12,,,,13,,72,49
35040,note_on,,,,,6,0,4,,,,3,,69,62
35040,note_on,,,,,3,0,7,,,,6,,74,127
35040,note_on,,,,,6,0,6,,,,5,,41,62
35040,note_on,,,,,3,0,3,,,,2,,74,62
35040,note_on,,,,,6,0,11,,,,12,,29,49
35040,note_on,,,,,0,0,12,,,,13,,81,49
35040,note_on,,,,,6,0,9,,,,8,,69,75
35040,note_on,,,,,6,0,10,,,,11,,41,49
35040,note_on,,,,,3,0,8,,,,7,,74,75
35040,note_on,,,,,0,0,12,,,,13,,41,49
35040,note_on,,,,,6,0,5,,,,4,,65,62
35040,note_on,,,,,3,0,2,,,,1,,57,127
35040,note_on,,,,,6,0,13,,,,14,,65,75
35040,note_on,,,,,3,0,1,,,,0,,69,127
35061,note_off,,,,,21,0,1,,,,0,,69,0
35061,note_off,,,,,21,0,7,,,,6,,74,0
35061,note_off,,,,,21,0,3,,,,2,,74,0
35061,note_off,,,,,21,0,8,,,,7,,74,0
35061,note_off,,,,,21,0,2,,,,1,,57,0
35064,note_on,,,,,3,0,2,,,,1,,57,127
35064,note_on,,,,,3,0,3,,,,2,,72,62
35064,note_on,,,,,3,0,1,,,,0,,67,127
35064,note_on,,,,,3,0,8,,,,7,,72,75
35064,note_on,,,,,3,0,7,,,,6,,72,127
35082,note_off,,,,,42,0,13,,,,14,,65,0
35082,note_off,,,,,0,0,12,,,,13,,81,0
35082,note_off,,,,,42,0,12,,,,13,,72,0
35082,note_off,,,,,42,0,6,,,,5,,41,0
35082,note_off,,,,,42,0,5,,,,4,,65,0
35082,note_off,,,,,42,0,10,,,,11,,41,0
35082,note_off,,,,,42,0,11,,,,12,,29,0
35082,note_off,,,,,0,0,12,,,,13,,41,0
35082,note_off,,,,,42,0,9,,,,8,,69,0
35082,note_off,,,,,42,0,4,,,,3,,69,0
35085,note_off,,,,,21,0,1,,,,0,,67,0
35085,note_off,,,,,21,0,7,,,,6,,72,0
35085,note_off,,,,,21,0,2,,,,1,,57,0
35085,note_off,,,,,21,0,8,,,,7,,72,0
35085,note_off,,,,,21,0,3,,,,2,,72,0
35088,note_on,,,,,3,0,1,,,,0,,65,127
35088,note_on,,,,,0,0,12,,,,13,,77,49
35088,note_on,,,,,0,0,12,,,,13,,38,49
35088,note_on,,,,,3,0,7,,,,6,,74,127
35088,note_on,,,,,6,0,13,,,,14,,65,75
35088,note_on,,,,,6,0,10,,,,11,,38,49
35088,note_on,,,,,3,0,8,,,,7,,74,75
35088,note_on,,,,,6,0,11,,,,12,,26,49
35088,note_on,,,,,6,0,9,,,,8,,69,75
35088,note_on,,,,,6,0,6,,,,5,,38,62
35088,note_on,,,,,3,0,2,,,,1,,57,127
35088,note_on,,,,,6,0,5,,,,4,,65,62
35088,note_on,,,,,6,0,12,,,,13,,69,49
35088,note_on,,,,,6,0,4,,,,3,,69,62
35088,note_on,,,,,3,0,3,,,,2,,74,62
35109,note_off,,,,,21,0,3,,,,2,,74,0
35109,note_off,,,,,21,0,8,,,,7,,74,0
35109,note_off,,,,,21,0,7,,,,6,,74,0
35112,note_on,,,,,3,0,3,,,,2,,69,62
35112,note_on,,,,,3,0,7,,,,6,,69,127
35112,note_on,,,,,3,0,8,,,,7,,69,75
35130,note_off,,,,,42,0,2,,,,1,,57,0
35130,note_off,,,,,42,0,1,,,,0,,65,0
35130,note_off,,,,,42,0,5,,,,4,,65,0
35130,note_off,,,,,42,0,13,,,,14,,65,0
35130,note_off,,,,,42,0,11,,,,12,,26,0
35130,note_off,,,,,0,0,12,,,,13,,38,0
35130,note_off,,,,,42,0,12,,,,13,,69,0
35130,note_off,,,,,0,0,12,,,,13,,77,0
35130,note_off,,,,,42,0,10,,,,11,,38,0
35130,note_off,,,,,42,0,9,,,,8,,69,0
35130,note_off,,,,,42,0,4,,,,3,,69,0
35130,note_off,,,,,42,0,6,,,,5,,38,0
35133,note_off,,,,,21,0,8,,,,7,,69,0
35133,note_off,,,,,21,0,3,,,,2,,69,0
35133,note_off,,,,,21,0,7,,,,6,,69,0
35136,note_on,,,,,3,0,3,,,,2,,70,62
35136,note_on,,,,,3,0,7,,,,6,,70,127
35136,note_on,,,,,6,0,4,,,,3,,67,62
35136,note_on,,,,,6,0,5,,,,4,,62,62
35136,note_on,,,,,6,0,6,,,,5,,43,62
35136,note_on,,,,,6,0,11,,,,12,,31,49
35136,note_on,,,,,6,0,10,,,,11,,43,49
35136,note_on,,,,,6,0,9,,,,8,,67,75
35136,note_on,,,,,0,0,12,,,,13,,43,49
35136,note_on,,,,,0,0,12,,,,13,,70,49
35136,note_on,,,,,6,0,12,,,,13,,62,49
35136,note_on,,,,,6,0,13,,,,14,,62,75
35136,note_on,,,,,3,0,8,,,,7,,70,75
35157,note_off,,,,,21,0,7,,,,6,,70,0
35157,note_off,,,,,21,0,3,,,,2,,70,0
35157,note_off,,,,,21,0,8,,,,7,,70,0
35160,note_on,,,,,3,0,8,,,,7,,69,75
35160,note_on,,,,,3,0,7,,,,6,,69,127
35160,note_on,,,,,3,0,3,,,,2,,69,62
35178,note_off,,,,,42,0,13,,,,14,,62,0
35178,note_off,,,,,42,0,4,,,,3,,67,0
35178,note_off,,,,,42,0,10,,,,11,,43,0
35178,note_off,,,,,42,0,12,,,,13,,62,0
35178,note_off,,,,,0,0,12,,,,13,,43,0
35178,note_off,,,,,42,0,9,,,,8,,67,0
35178,note_off,,,,,42,0,11,,,,12,,31,0
35178,note_off,,,,,0,0,12,,,,13,,70,0
35178,note_off,,,,,42,0,6,,,,5,,43,0
35178,note_off,,,,,42,0,5,,,,4,,62,0
35181,note_off,,,,,21,0,7,,,,6,,69,0
35181,note_off,,,,,21,0,8,,,,7,,69,0
35181,note_off,,,,,21,0,3,,,,2,,69,0
35184,note_on,,,,,6,0,12,,,,13,,67,49
35184,note_on,,,,,0,0,12,,,,13,,76,49
35184,note_on,,,,,3,0,3,,,,2,,70,62
35184,note_on,,,,,3,0,7,,,,6,,70,127
35184,note_on,,,,,3,0,8,,,,7,,70,75
35184,note_on,,,,,6,0,4,,,,3,,64,62
35184,note_on,,,,,6,0,10,,,,11,,36,49
35184,note_on,,,,,6,0,13,,,,14,,60,75
35184,note_on,,,,,6,0,6,,,,5,,36,62
35184,note_on,,,,,0,0,12,,,,13,,36,49
35184,note_on,,,,,6,0,5,,,,4,,60,62
35184,note_on,,,,,6,0,9,,,,8,,64,75
35184,note_on,,,,,6,0,11,,,,12,,24,49
35205,note_off,,,,,21,0,3,,,,2,,70,0
35205,note_off,,,,,21,0,8,,,,7,,70,0
35205,note_off,,,,,21,0,7,,,,6,,70,0
35208,note_on,,,,,3,0,7,,,,6,,67,127
35208,note_on,,,,,3,0,3,,,,2,,67,62
35208,note_on,,,,,3,0,8,,,,7,,67,75
35226,note_off,,,,,42,0,4,,,,3,,64,0
35226,note_off,,,,,42,0,9,,,,8,,64,0
35226,note_off,,,,,42,0,10,,,,11,,36,0
35226,note_off,,,,,42,0,11,,,,12,,24,0
35226,note_off,,,,,42,0,6,,,,5,,36,0
35226,note_off,,,,,42,0,13,,,,14,,60,0
35226,note_off,,,,,0,0,12,,,,13,,36,0
35226,note_off,,,,,0,0,12,,,,13,,76,0
35226,note_off,,,,,42,0,12,,,,13,,67,0
35226,note_off,,,,,42,0,5,,,,4,,60,0
35229,note_off,,,,,21,0,3,,,,2,,67,0
35229,note_off,,,,,21,0,8,,,,7,,67,0
35229,note_off,,,,,21,0,7,,,,6,,67,0
35232,note_on,,,,,3,0,7,,,,6,,69,127
35232,note_on,,,,,6,0,6,,,,5,,41,62
35232,note_on,,,,,6,0,13,,,,14,,60,75
35232,note_on,,,,,6,0,5,,,,4,,60,62
35232,note_on,,,,,6,0,10,,,,11,,41,49
35232,note_on,,,,,102,0,1,,,,0,,65,127
35232,note_on,,,,,6,0,11,,,,12,,29,49
35232,note_on,,,,,0,0,12,,,,13,,69,49
35232,note_on,,,,,0,0,12,,,,13,,41,49
35232,note_on,,,,,6,0,9,,,,8,,65,75
35232,note_on,,,,,3,0,8,,,,7,,69,75
35232,note_on,,,,,3,0,3,,,,2,,69,62
35232,note_on,,,,,6,0,12,,,,13,,60,49
35232,note_on,,,,,6,0,4,,,,3,,65,62
35232,note_on,,,,,102,0,2,,,,1,,57,127
35253,note_off,,,,,21,0,7,,,,6,,69,0
35253,note_off,,,,,21,0,8,,,,7,,69,0
35253,note_off,,,,,21,0,1,,,,0,,65,0
35253,note_off,,,,,21,0,3,,,,2,,69,0
35256,note_on,,,,,3,0,8,,,,7,,67,75
35256,note_on,,,,,3,0,1,,,,0,,67,127
35256,note_on,,,,,3,0,3,,,,2,,67,62
35256,note_on,,,,,3,0,7,,,,6,,67,127
35274,note_off,,,,,0,0,12,,,,13,,41,0
35274,note_off,,,,,42,0,2,,,,1,,57,0
35274,note_off,,,,,42,0,6,,,,5,,41,0
35274,note_off,,,,,42,0,12,,,,13,,60,0
35274,note_off,,,,,42,0,11,,,,12,,29,0
35274,note_off,,,,,0,0,12,,,,13,,69,0
35274,note_off,,,,,42,0,10,,,,11,,41,0
35277,note_off,,,,,21,0,7,,,,6,,67,0
35277,note_off,,,,,21,0,8,,,,7,,67,0
35277,note_off,,,,,21,0,3,,,,2,,67,0
35277,note_off,,,,,21,0,1,,,,0,,67,0
35280,note_on,,,,,6,0,10,,,,11,,45,49
35280,note_on,,,,,0,0,12,,,,13,,45,49
35280,note_on,,,,,3,0,8,,,,7,,69,75
35280,note_on,,,,,0,0,12,,,,13,,74,49
35280,note_on,,,,,6,0,6,,,,5,,45,62
35280,note_on,,,,,6,0,12,,,,13,,65,49
35280,note_on,,,,,3,0,1,,,,0,,65,127
35280,note_on,,,,,6,0,2,,,,1,,57,127
35280,note_on,,,,,3,0,3,,,,2,,69,62
35280,note_on,,,,,3,0,7,,,,6,,69,127
35280,note_on,,,,,6,0,11,,,,12,,33,49
35295,note_off,,,,,63,0,4,,,,3,,65,0
35295,note_off,,,,,63,0,9,,,,8,,65,0
35295,note_off,,,,,63,0,13,,,,14,,60,0
35295,note_off,,,,,63,0,5,,,,4,,60,0
35301,note_off,,,,,21,0,1,,,,0,,65,0
35301,note_off,,,,,21,0,3,,,,2,,69,0
35301,note_off,,,,,21,0,7,,,,6,,69,0
35301,note_off,,,,,21,0,8,,,,7,,69,0
35301,note_off,,,,,21,0,2,,,,1,,57,0
35304,note_on,,,,,9,0,13,,,,14,,58,75
35304,note_on,,,,,3,0,3,,,,2,,64,62
35304,note_on,,,,,3,0,2,,,,1,,57,127
35304,note_on,,,,,9,0,4,,,,3,,64,62
35304,note_on,,,,,3,0,7,,,,6,,64,127
35304,note_on,,,,,3,0,8,,,,7,,64,75
35304,note_on,,,,,3,0,1,,,,0,,67,127
35304,note_on,,,,,9,0,5,,,,4,,60,62
35304,note_on,,,,,9,0,9,,,,8,,64,75
35322,note_off,,,,,42,0,10,,,,11,,45,0
35322,note_off,,,,,0,0,12,,,,13,,74,0
35322,note_off,,,,,42,0,12,,,,13,,65,0
35322,note_off,,,,,42,0,11,,,,12,,33,0
35322,note_off,,,,,42,0,6,,,,5,,45,0
35322,note_off,,,,,0,0,12,,,,13,,45,0
35325,note_off,,,,,21,0,3,,,,2,,64,0
35325,note_off,,,,,21,0,13,,,,14,,58,0
35325,note_off,,,,,21,0,5,,,,4,,60,0
35325,note_off,,,,,21,0,7,,,,6,,64,0
35325,note_off,,,,,21,0,9,,,,8,,64,0
35325,note_off,,,,,21,0,2,,,,1,,57,0
35325,note_off,,,,,21,0,8,,,,7,,64,0
35325,note_off,,,,,21,0,1,,,,0,,67,0
35325,note_off,,,,,21,0,4,,,,3,,64,0
35328,note_on,,,,,3,0,7,,,,6,,65,127
35328,note_on,,,,,3,0,8,,,,7,,65,75
35328,note_on,,,,,3,0,5,,,,4,,62,62
35328,note_on,,,,,6,0,11,,,,12,,38,49
35328,note_on,,,,,3,0,1,,,,0,,69,127
35328,note_on,,,,,6,0,6,,,,5,,50,62
35328,note_on,,,,,0,0,12,,,,13,,50,49
35328,note_on,,,,,0,0,12,,,,13,,77,49
35328,note_on,,,,,6,0,12,,,,13,,69,49
35328,note_on,,,,,3,0,4,,,,3,,62,62
35328,note_on,,,,,6,0,10,,,,11,,50,49
35328,note_on,,,,,3,0,2,,,,1,,57,127
35328,note_on,,,,,3,0,9,,,,8,,62,75
35328,note_on,,,,,3,0,3,,,,2,,65,62
35328,note_on,,,,,3,0,13,,,,14,,57,75
35349,note_off,,,,,21,0,8,,,,7,,65,0
35349,note_off,,,,,21,0,1,,,,0,,69,0
35349,note_off,,,,,21,0,2,,,,1,,57,0
35349,note_off,,,,,21,0,7,,,,6,,65,0
35349,note_off,,,,,21,0,3,,,,2,,65,0
35352,note_on,,,,,3,0,2,,,,1,,57,127
35352,note_on,,,,,3,0,8,,,,7,,64,75
35352,note_on,,,,,3,0,1,,,,0,,67,127
35352,note_on,,,,,3,0,3,,,,2,,64,62
35352,note_on,,,,,3,0,7,,,,6,,64,127
35370,note_off,,,,,0,0,12,,,,13,,77,0
35370,note_off,,,,,42,0,12,,,,13,,69,0
35373,note_off,,,,,21,0,2,,,,1,,57,0
35373,note_off,,,,,21,0,3,,,,2,,64,0
35373,note_off,,,,,21,0,7,,,,6,,64,0
35373,note_off,,,,,21,0,1,,,,0,,67,0
35373,note_off,,,,,21,0,8,,,,7,,64,0
35376,set_tempo,,,,,3,1,7,750000,,,,,,
35376,set_tempo,,,,,3,1,1,750000,,,,,,
35376,set_tempo,,,,,11472,1,0,750000,,,,,,
35376,end_of_track,,,,,0,1,0,,,,,,,
35376,set_tempo,,,,,3,1,2,750000,,,,,,
35376,note_on,,,,,0,0,2,,,,1,,57,127
35376,set_tempo,,,,,3,1,3,750000,,,,,,
35376,note_on,,,,,0,0,3,,,,2,,65,62
35376,set_tempo,,,,,48,1,11,750000,,,,,,
35376,set_tempo,,,,,3,1,8,750000,,,,,,
35376,set_tempo,,,,,48,1,5,750000,,,,,,
35376,set_tempo,,,,,48,1,4,750000,,,,,,
35376,set_tempo,,,,,48,1,13,750000,,,,,,
35376,set_tempo,,,,,48,1,6,750000,,,,,,
35376,note_on,,,,,0,0,8,,,,7,,65,75
35376,set_tempo,,,,,48,1,9,750000,,,,,,
35376,set_tempo,,,,,6,1,12,750000,,,,,,
35376,note_on,,,,,0,0,12,,,,13,,65,49
35376,note_on,,,,,0,0,12,,,,13,,74,49
35376,note_on,,,,,0,0,7,,,,6,,65,127
35376,set_tempo,,,,,48,1,10,750000,,,,,,
35376,note_on,,,,,0,0,1,,,,0,,65,127
35397,note_off,,,,,21,0,11,,,,12,,38,0
35397,note_off,,,,,21,0,9,,,,8,,62,0
35397,note_off,,,,,21,0,12,,,,13,,50,0
35397,note_off,,,,,21,0,8,,,,7,,65,0
35397,note_off,,,,,21,0,3,,,,2,,65,0
35397,note_off,,,,,21,0,6,,,,5,,50,0
35397,note_off,,,,,21,0,10,,,,11,,50,0
35397,note_off,,,,,21,0,5,,,,4,,62,0
35397,note_off,,,,,21,0,4,,,,3,,62,0
35397,note_off,,,,,21,0,7,,,,6,,65,0
35397,note_off,,,,,21,0,13,,,,14,,57,0
35400,note_on,,,,,3,0,4,,,,3,,65,62
35400,note_on,,,,,3,0,6,,,,5,,46,62
35400,note_on,,,,,3,0,3,,,,2,,67,62
35400,note_on,,,,,3,0,11,,,,12,,34,49
35400,note_on,,,,,3,0,10,,,,11,,46,49
35400,note_on,,,,,3,0,5,,,,4,,62,62
35400,note_on,,,,,3,0,13,,,,14,,62,75
35400,note_on,,,,,3,0,12,,,,13,,46,49
35400,note_on,,,,,3,0,7,,,,6,,67,127
35400,note_on,,,,,3,0,8,,,,7,,67,75
35400,note_on,,,,,3,0,9,,,,8,,65,75
35418,note_off,,,,,42,0,1,,,,0,,65,0
35418,note_off,,,,,42,0,2,,,,1,,57,0
35418,note_off,,,,,18,0,12,,,,13,,65,0
35418,note_off,,,,,0,0,12,,,,13,,74,0
35421,note_off,,,,,21,0,8,,,,7,,67,0
35421,note_off,,,,,21,0,13,,,,14,,62,0
35421,note_off,,,,,21,0,6,,,,5,,46,0
35421,note_off,,,,,21,0,7,,,,6,,67,0
35421,note_off,,,,,3,0,12,,,,13,,46,0
35421,note_off,,,,,21,0,11,,,,12,,34,0
35421,note_off,,,,,21,0,3,,,,2,,67,0
35421,note_off,,,,,21,0,5,,,,4,,62,0
35421,note_off,,,,,21,0,10,,,,11,,46,0
35421,note_off,,,,,21,0,4,,,,3,,65,0
35421,note_off,,,,,21,0,9,,,,8,,65,0
35424,note_on,,,,,0,0,12,,,,13,,48,49
35424,note_on,,,,,0,0,12,,,,13,,76,49
35424,note_on,,,,,3,0,12,,,,13,,67,49
35424,note_on,,,,,3,0,8,,,,7,,67,75
35424,note_on,,,,,3,0,11,,,,12,,36,49
35424,note_on,,,,,3,0,6,,,,5,,48,62
35424,note_on,,,,,3,0,3,,,,2,,67,62
35424,note_on,,,,,3,0,13,,,,14,,60,75
35424,note_on,,,,,3,0,4,,,,3,,64,62
35424,note_on,,,,,6,0,1,,,,0,,60,127
35424,note_on,,,,,3,0,5,,,,4,,60,62
35424,note_on,,,,,3,0,10,,,,11,,48,49
35424,note_on,,,,,3,0,9,,,,8,,64,75
35424,note_on,,,,,3,0,7,,,,6,,67,127
35424,note_on,,,,,6,0,2,,,,1,,57,127
35445,note_off,,,,,21,0,1,,,,0,,60,0
35445,note_off,,,,,21,0,2,,,,1,,57,0
35448,note_on,,,,,3,0,2,,,,1,,57,127
35448,note_on,,,,,3,0,1,,,,0,,60,127
35466,note_off,,,,,42,0,10,,,,11,,48,0
35466,note_off,,,,,42,0,11,,,,12,,36,0
35466,note_off,,,,,0,0,12,,,,13,,76,0
35466,note_off,,,,,0,0,12,,,,13,,48,0
35466,note_off,,,,,42,0,12,,,,13,,67,0
35466,note_off,,,,,42,0,6,,,,5,,48,0
35469,note_off,,,,,21,0,1,,,,0,,60,0
35469,note_off,,,,,21,0,2,,,,1,,57,0
35472,note_on,,,,,6,0,6,,,,5,,36,62
35472,note_on,,,,,0,0,12,,,,13,,36,49
35472,note_on,,,,,3,0,1,,,,0,,60,127
35472,note_on,,,,,0,0,12,,,,13,,67,49
35472,note_on,,,,,3,0,2,,,,1,,57,127
35472,note_on,,,,,6,0,10,,,,11,,36,49
35472,note_on,,,,,6,0,11,,,,12,,24,49
35472,note_on,,,,,6,0,12,,,,13,,64,49
35487,note_off,,,,,63,0,8,,,,7,,67,0
35487,note_off,,,,,63,0,13,,,,14,,60,0
35487,note_off,,,,,63,0,3,,,,2,,67,0
35487,note_off,,,,,63,0,5,,,,4,,60,0
35487,note_off,,,,,63,0,4,,,,3,,64,0
35487,note_off,,,,,63,0,7,,,,6,,67,0
35487,note_off,,,,,63,0,9,,,,8,,64,0
35493,note_off,,,,,21,0,1,,,,0,,60,0
35493,note_off,,,,,21,0,2,,,,1,,57,0
35496,note_on,,,,,9,0,5,,,,4,,60,62
35496,note_on,,,,,9,0,3,,,,2,,65,62
35496,note_on,,,,,9,0,7,,,,6,,65,127
35496,note_on,,,,,3,0,1,,,,0,,60,127
35496,note_on,,,,,9,0,8,,,,7,,65,75
35496,note_on,,,,,9,0,13,,,,14,,60,75
35496,note_on,,,,,9,0,9,,,,8,,65,75
35496,note_on,,,,,3,0,2,,,,1,,57,127
35496,note_on,,,,,9,0,4,,,,3,,65,62
35514,note_off,,,,,0,0,12,,,,13,,36,0
35514,note_off,,,,,0,0,12,,,,13,,67,0
35514,note_off,,,,,42,0,12,,,,13,,64,0
35514,note_off,,,,,42,0,11,,,,12,,24,0
35514,note_off,,,,,42,0,10,,,,11,,36,0
35514,note_off,,,,,42,0,6,,,,5,,36,0
35517,note_off,,,,,21,0,3,,,,2,,65,0
35517,note_off,,,,,21,0,13,,,,14,,60,0
35517,note_off,,,,,21,0,9,,,,8,,65,0
35517,note_off,,,,,21,0,8,,,,7,,65,0
35517,note_off,,,,,21,0,5,,,,4,,60,0
35517,note_off,,,,,21,0,2,,,,1,,57,0
35517,note_off,,,,,21,0,1,,,,0,,60,0
35517,note_off,,,,,21,0,4,,,,3,,65,0
35517,note_off,,,,,21,0,7,,,,6,,65,0
35520,note_on,,,,,3,0,13,,,,14,,60,75
35520,note_on,,,,,6,0,11,,,,12,,29,49
35520,note_on,,,,,3,0,9,,,,8,,65,75
35520,note_on,,,,,3,0,1,,,,0,,57,127
35520,note_on,,,,,3,0,7,,,,6,,65,127
35520,note_on,,,,,0,0,12,,,,13,,69,49
35520,note_on,,,,,6,0,12,,,,13,,60,49
35520,note_on,,,,,0,0,12,,,,13,,41,49
35520,note_on,,,,,3,0,2,,,,1,,53,127
35520,note_on,,,,,3,0,5,,,,4,,60,62
35520,note_on,,,,,3,0,4,,,,3,,65,62
35520,note_on,,,,,3,0,8,,,,7,,65,75
35520,note_on,,,,,6,0,10,,,,11,,41,49
35520,note_on,,,,,3,0,3,,,,2,,65,62
35520,note_on,,,,,6,0,6,,,,5,,41,62
35796,note_off,,,,,276,0,11,,,,12,,29,0
35796,note_off,,,,,276,0,4,,,,3,,65,0
35796,end_of_track,,,,,0,1,1,,,,,,,
35796,end_of_track,,,,,0,1,10,,,,,,,
35796,note_off,,,,,276,0,10,,,,11,,41,0
35796,end_of_track,,,,,0,1,9,,,,,,,
35796,note_off,,,,,276,0,9,,,,8,,65,0
35796,end_of_track,,,,,0,1,8,,,,,,,
35796,note_off,,,,,276,0,8,,,,7,,65,0
35796,note_off,,,,,276,0,13,,,,14,,60,0
35796,end_of_track,,,,,0,1,7,,,,,,,
35796,note_off,,,,,276,0,7,,,,6,,65,0
35796,end_of_track,,,,,0,1,6,,,,,,,
35796,note_off,,,,,276,0,6,,,,5,,41,0
35796,end_of_track,,,,,0,1,5,,,,,,,
35796,note_off,,,,,276,0,5,,,,4,,60,0
35796,end_of_track,,,,,0,1,4,,,,,,,
35796,end_of_track,,,,,0,1,11,,,,,,,
35796,end_of_track,,,,,0,1,3,,,,,,,
35796,note_off,,,,,276,0,3,,,,2,,65,0
35796,note_off,,,,,276,0,12,,,,13,,60,0
35796,note_off,,,,,0,0,12,,,,13,,69,0
35796,note_off,,,,,0,0,12,,,,13,,41,0
35796,end_of_track,,,,,0,1,12,,,,,,,
35796,end_of_track,,,,,0,1,2,,,,,,,
35796,note_off,,,,,276,0,2,,,,1,,53,0
35796,note_off,,,,,276,0,1,,,,0,,57,0
35796,end_of_track,,,,,0,1,13,,,,,,,
