tick,type,time,meta,track,numerator,denominator,clocks_per_click,notated_32nd_notes_per_beat,key,tempo,program,channel,control,value,note,velocity
0,track_name,0,1,0,,,,,,,,,,,,
0,note_on,0,0,5,,,,,,,,0,,,54,75
0,note_on,0,0,5,,,,,,,,0,,,57,117
0,note_on,0,0,5,,,,,,,,0,,,62,90
0,control_change,0,0,5,,,,,,,,0,7,115,,
0,program_change,0,0,5,,,,,,,6,0,,,,
0,end_of_track,0,1,16,,,,,,,,,,,,
0,note_on,0,0,4,,,,,,,,10,,,38,111
0,program_change,0,0,6,,,,,,,6,0,,,,
0,control_change,0,0,4,,,,,,,,10,7,127,,
0,track_name,0,1,4,,,,,,,,,,,,
0,note_on,0,0,3,,,,,,,,1,,,54,93
0,control_change,0,0,3,,,,,,,,1,7,127,,
0,program_change,0,0,3,,,,,,,41,1,,,,
0,track_name,0,1,3,,,,,,,,,,,,
0,note_on,0,0,2,,,,,,,,1,,,57,111
0,control_change,0,0,2,,,,,,,,1,7,127,,
0,program_change,0,0,4,,,,,,,42,10,,,,
0,control_change,0,0,6,,,,,,,,0,7,115,,
0,note_on,0,0,6,,,,,,,,0,,,50,80
0,track_name,0,1,7,,,,,,,,,,,,
0,track_name,0,1,16,,,,,,,,,,,,
0,end_of_track,0,1,15,,,,,,,,,,,,
0,track_name,0,1,15,,,,,,,,,,,,
0,end_of_track,0,1,14,,,,,,,,,,,,
0,track_name,0,1,14,,,,,,,,,,,,
0,end_of_track,0,1,13,,,,,,,,,,,,
0,end_of_track,0,1,12,,,,,,,,,,,,
0,track_name,0,1,12,,,,,,,,,,,,
0,end_of_track,0,1,11,,,,,,,,,,,,
0,track_name,0,1,11,,,,,,,,,,,,
0,end_of_track,0,1,10,,,,,,,,,,,,
0,track_name,0,1,10,,,,,,,,,,,,
0,end_of_track,0,1,9,,,,,,,,,,,,
0,track_name,0,1,9,,,,,,,,,,,,
0,end_of_track,0,1,8,,,,,,,,,,,,
0,track_name,0,1,8,,,,,,,,,,,,
0,end_of_track,0,1,7,,,,,,,,,,,,
0,program_change,0,0,2,,,,,,,40,1,,,,
0,track_name,0,1,2,,,,,,,,,,,,
0,end_of_track,0,1,17,,,,,,,,,,,,
0,time_signature,0,1,0,4,4,24,8,,,,,,,,
0,set_tempo,0,1,0,,,,,,666667,,,,,,
0,track_name,0,1,1,,,,,,,,,,,,
0,program_change,0,0,1,,,,,,,40,1,,,,
0,control_change,0,0,1,,,,,,,,1,7,127,,
0,note_on,0,0,1,,,,,,,,1,,,62,127
0,key_signature,0,1,0,,,,,C,,,,,,,
3,aftertouch,3,0,2,,,,,,,,1,,64,,
3,aftertouch,3,0,3,,,,,,,,1,,64,,
3,aftertouch,3,0,1,,,,,,,,1,,64,,
13,aftertouch,10,0,1,,,,,,,,1,,0,,
15,aftertouch,2,0,1,,,,,,,,1,,32,,
15,aftertouch,12,0,2,,,,,,,,1,,32,,
15,aftertouch,12,0,3,,,,,,,,1,,32,,
25,aftertouch,10,0,1,,,,,,,,1,,0,,
27,aftertouch,2,0,1,,,,,,,,1,,16,,
27,aftertouch,12,0,3,,,,,,,,1,,16,,
27,aftertouch,12,0,2,,,,,,,,1,,16,,
37,aftertouch,10,0,1,,,,,,,,1,,0,,
39,aftertouch,12,0,2,,,,,,,,1,,8,,
39,aftertouch,2,0,1,,,,,,,,1,,8,,
39,aftertouch,12,0,3,,,,,,,,1,,8,,
48,aftertouch,9,0,1,,,,,,,,1,,0,,
51,aftertouch,12,0,3,,,,,,,,1,,4,,
51,aftertouch,12,0,2,,,,,,,,1,,4,,
51,aftertouch,3,0,1,,,,,,,,1,,4,,
61,aftertouch,10,0,1,,,,,,,,1,,0,,
63,aftertouch,2,0,1,,,,,,,,1,,2,,
63,aftertouch,12,0,2,,,,,,,,1,,2,,
63,aftertouch,12,0,3,,,,,,,,1,,2,,
73,aftertouch,10,0,1,,,,,,,,1,,0,,
75,aftertouch,12,0,3,,,,,,,,1,,1,,
75,aftertouch,12,0,2,,,,,,,,1,,1,,
75,aftertouch,2,0,1,,,,,,,,1,,1,,
85,aftertouch,10,0,1,,,,,,,,1,,0,,
96,note_on,96,0,6,,,,,,,,0,,,50,0
113,note_on,38,0,2,,,,,,,,1,,,57,0
113,note_on,28,0,1,,,,,,,,1,,,62,0
113,note_on,38,0,3,,,,,,,,1,,,54,0
113,note_on,113,0,4,,,,,,,,10,,,38,0
123,aftertouch,0,0,5,,,,,,,,0,,64,,
123,aftertouch,123,0,5,,,,,,,,0,,64,,
134,aftertouch,11,0,5,,,,,,,,0,,32,,
135,aftertouch,1,0,5,,,,,,,,0,,32,,
146,aftertouch,11,0,5,,,,,,,,0,,16,,
147,aftertouch,1,0,5,,,,,,,,0,,16,,
159,aftertouch,12,0,5,,,,,,,,0,,8,,
159,aftertouch,0,0,5,,,,,,,,0,,8,,
170,aftertouch,11,0,5,,,,,,,,0,,4,,
170,aftertouch,0,0,5,,,,,,,,0,,4,,
183,aftertouch,13,0,5,,,,,,,,0,,2,,
183,aftertouch,0,0,5,,,,,,,,0,,2,,
194,aftertouch,11,0,5,,,,,,,,0,,1,,
194,aftertouch,0,0,5,,,,,,,,0,,1,,
216,note_on,0,0,5,,,,,,,,0,,,57,0
216,note_on,0,0,5,,,,,,,,0,,,62,0
216,note_on,22,0,5,,,,,,,,0,,,54,0
240,note_on,0,0,5,,,,,,,,0,,,57,117
240,note_on,24,0,5,,,,,,,,0,,,66,98
240,note_on,127,0,3,,,,,,,,1,,,57,102
240,note_on,144,0,6,,,,,,,,0,,,38,80
240,note_on,127,0,2,,,,,,,,1,,,62,127
240,note_on,127,0,1,,,,,,,,1,,,66,127
240,note_on,127,0,4,,,,,,,,10,,,26,108
240,note_on,0,0,5,,,,,,,,0,,,62,110
250,aftertouch,10,0,4,,,,,,,,10,,18,,
250,aftertouch,10,0,2,,,,,,,,1,,18,,
250,aftertouch,10,0,3,,,,,,,,1,,18,,
254,aftertouch,4,0,2,,,,,,,,1,,0,,
256,aftertouch,6,0,4,,,,,,,,10,,9,,
256,aftertouch,6,0,3,,,,,,,,1,,9,,
256,aftertouch,2,0,2,,,,,,,,1,,9,,
266,aftertouch,10,0,2,,,,,,,,1,,0,,
268,aftertouch,12,0,4,,,,,,,,10,,4,,
268,aftertouch,2,0,2,,,,,,,,1,,4,,
268,aftertouch,12,0,3,,,,,,,,1,,4,,
278,aftertouch,10,0,2,,,,,,,,1,,0,,
280,aftertouch,2,0,2,,,,,,,,1,,2,,
280,aftertouch,12,0,3,,,,,,,,1,,2,,
280,aftertouch,12,0,4,,,,,,,,10,,2,,
287,control_change,7,0,4,,,,,,,,10,7,101,,
290,aftertouch,10,0,2,,,,,,,,1,,0,,
292,aftertouch,5,0,4,,,,,,,,10,,1,,
292,aftertouch,12,0,3,,,,,,,,1,,1,,
293,aftertouch,3,0,2,,,,,,,,1,,1,,
302,aftertouch,9,0,2,,,,,,,,1,,0,,
336,note_on,96,0,6,,,,,,,,0,,,38,0
348,note_on,0,0,5,,,,,,,,0,,,66,0
348,note_on,108,0,5,,,,,,,,0,,,62,0
353,note_on,61,0,3,,,,,,,,1,,,57,0
353,note_on,51,0,2,,,,,,,,1,,,62,0
353,note_on,61,0,4,,,,,,,,10,,,26,0
353,note_on,113,0,1,,,,,,,,1,,,66,0
456,note_on,108,0,5,,,,,,,,0,,,57,0
480,note_on,127,0,2,,,,,,,,1,,,66,127
480,note_on,127,0,3,,,,,,,,1,,,62,127
480,note_on,127,0,4,,,,,,,,10,,,38,127
480,note_on,144,0,6,,,,,,,,0,,,50,80
480,note_on,127,0,1,,,,,,,,1,,,69,120
480,note_on,0,0,5,,,,,,,,0,,,66,127
480,note_on,0,0,5,,,,,,,,0,,,62,127
480,note_on,24,0,5,,,,,,,,0,,,69,93
489,aftertouch,9,0,5,,,,,,,,0,,18,,
490,aftertouch,1,0,5,,,,,,,,0,,18,,
496,aftertouch,6,0,5,,,,,,,,0,,9,,
496,aftertouch,0,0,5,,,,,,,,0,,9,,
507,aftertouch,11,0,5,,,,,,,,0,,4,,
507,aftertouch,0,0,5,,,,,,,,0,,4,,
520,aftertouch,0,0,5,,,,,,,,0,,2,,
520,aftertouch,13,0,5,,,,,,,,0,,2,,
532,aftertouch,0,0,5,,,,,,,,0,,1,,
532,aftertouch,12,0,5,,,,,,,,0,,1,,
576,note_on,96,0,6,,,,,,,,0,,,50,0
588,note_on,56,0,5,,,,,,,,0,,,69,0
593,note_on,113,0,4,,,,,,,,10,,,38,0
593,note_on,113,0,2,,,,,,,,1,,,66,0
593,note_on,113,0,1,,,,,,,,1,,,69,0
593,note_on,113,0,3,,,,,,,,1,,,62,0
696,note_on,108,0,5,,,,,,,,0,,,66,0
696,note_on,0,0,5,,,,,,,,0,,,62,0
840,note_on,247,0,2,,,,,,,,1,,,62,81
840,note_on,264,0,6,,,,,,,,0,,,38,80
840,note_on,247,0,1,,,,,,,,1,,,66,127
840,note_on,247,0,4,,,,,,,,10,,,26,123
840,note_on,144,0,5,,,,,,,,0,,,66,80
840,note_on,247,0,3,,,,,,,,1,,,57,93
840,note_on,0,0,5,,,,,,,,0,,,62,80
871,note_on,31,0,1,,,,,,,,1,,,66,0
872,note_on,32,0,2,,,,,,,,1,,,62,0
888,note_on,0,0,5,,,,,,,,0,,,66,0
888,note_on,48,0,5,,,,,,,,0,,,62,0
898,control_change,27,0,1,,,,,,,,1,7,107,,
900,note_on,0,0,5,,,,,,,,0,,,64,80
900,note_on,2,0,1,,,,,,,,1,,,67,117
900,note_on,12,0,5,,,,,,,,0,,,67,80
900,note_on,28,0,2,,,,,,,,1,,,64,81
902,note_on,62,0,4,,,,,,,,10,,,26,0
908,note_on,68,0,3,,,,,,,,1,,,57,0
930,note_on,30,0,2,,,,,,,,1,,,64,0
936,note_on,96,0,6,,,,,,,,0,,,38,0
938,note_on,38,0,1,,,,,,,,1,,,67,0
948,note_on,0,0,5,,,,,,,,0,,,67,0
948,note_on,48,0,5,,,,,,,,0,,,64,0
960,note_on,22,0,1,,,,,,,,1,,,69,96
960,note_on,30,0,2,,,,,,,,1,,,66,127
960,note_on,12,0,5,,,,,,,,0,,,69,110
960,note_on,58,0,4,,,,,,,,10,,,38,111
960,note_on,52,0,3,,,,,,,,1,,,62,55
960,note_on,24,0,6,,,,,,,,0,,,50,86
960,note_on,0,0,5,,,,,,,,0,,,66,120
992,note_on,32,0,6,,,,,,,,0,,,50,0
1005,note_on,45,0,4,,,,,,,,10,,,38,0
1006,note_on,46,0,1,,,,,,,,1,,,69,0
1007,note_on,47,0,2,,,,,,,,1,,,66,0
1017,note_on,57,0,5,,,,,,,,0,,,69,0
1018,note_on,58,0,3,,,,,,,,1,,,62,0
1020,note_on,15,0,4,,,,,,,,10,,,40,99
1020,note_on,28,0,6,,,,,,,,0,,,52,89
1035,note_on,18,0,5,,,,,,,,0,,,66,0
1049,note_on,29,0,6,,,,,,,,0,,,52,0
1066,note_on,46,0,4,,,,,,,,10,,,40,0
1080,note_on,74,0,1,,,,,,,,1,,,66,123
1080,note_on,0,0,5,,,,,,,,0,,,62,89
1080,note_on,45,0,5,,,,,,,,0,,,66,82
1080,note_on,62,0,3,,,,,,,,1,,,57,64
1080,note_on,73,0,2,,,,,,,,1,,,62,84
1080,note_on,31,0,6,,,,,,,,0,,,54,111
1080,note_on,14,0,4,,,,,,,,10,,,42,79
1106,note_on,26,0,6,,,,,,,,0,,,54,0
1113,note_on,33,0,1,,,,,,,,1,,,66,0
1117,note_on,37,0,5,,,,,,,,0,,,66,0
1118,note_on,38,0,4,,,,,,,,10,,,42,0
1118,note_on,38,0,2,,,,,,,,1,,,62,0
1124,note_on,7,0,5,,,,,,,,0,,,62,0
1140,note_on,34,0,6,,,,,,,,0,,,52,79
1140,note_on,0,0,5,,,,,,,,0,,,64,72
1140,note_on,16,0,5,,,,,,,,0,,,67,96
1140,note_on,22,0,4,,,,,,,,10,,,40,96
1140,note_on,22,0,2,,,,,,,,1,,,64,89
1140,note_on,27,0,1,,,,,,,,1,,,67,96
1148,note_on,68,0,3,,,,,,,,1,,,57,0
1165,note_on,25,0,6,,,,,,,,0,,,52,0
1177,note_on,37,0,1,,,,,,,,1,,,67,0
1178,note_on,38,0,2,,,,,,,,1,,,64,0
1180,note_on,40,0,5,,,,,,,,0,,,64,0
1180,note_on,0,0,5,,,,,,,,0,,,67,0
1191,note_on,51,0,4,,,,,,,,10,,,40,0
1200,note_on,9,0,4,,,,,,,,10,,,38,111
1200,note_on,0,0,5,,,,,,,,0,,,66,105
1200,note_on,23,0,1,,,,,,,,1,,,69,117
1200,note_on,22,0,2,,,,,,,,1,,,66,72
1200,note_on,52,0,3,,,,,,,,1,,,62,58
1200,note_on,20,0,5,,,,,,,,0,,,69,90
1200,note_on,35,0,6,,,,,,,,0,,,50,96
1231,note_on,31,0,6,,,,,,,,0,,,50,0
1244,note_on,44,0,1,,,,,,,,1,,,69,0
1250,note_on,50,0,4,,,,,,,,10,,,38,0
1250,note_on,50,0,2,,,,,,,,1,,,66,0
1255,note_on,55,0,5,,,,,,,,0,,,69,0
1260,note_on,29,0,6,,,,,,,,0,,,52,84
1260,note_on,10,0,4,,,,,,,,10,,,40,84
1268,note_on,68,0,3,,,,,,,,1,,,62,0
1281,note_on,26,0,5,,,,,,,,0,,,66,0
1288,note_on,28,0,6,,,,,,,,0,,,52,0
1308,note_on,48,0,4,,,,,,,,10,,,40,0
1320,note_on,76,0,1,,,,,,,,1,,,74,108
1320,note_on,12,0,4,,,,,,,,10,,,42,120
1320,note_on,32,0,6,,,,,,,,0,,,54,111
1320,note_on,0,0,5,,,,,,,,0,,,74,98
1320,note_on,39,0,5,,,,,,,,0,,,69,89
1320,note_on,52,0,3,,,,,,,,1,,,57,58
1320,note_on,70,0,2,,,,,,,,1,,,69,84
1344,note_on,24,0,6,,,,,,,,0,,,54,0
1359,note_on,39,0,5,,,,,,,,0,,,69,0
1359,note_on,39,0,4,,,,,,,,10,,,42,0
1365,note_on,45,0,1,,,,,,,,1,,,74,0
1370,note_on,50,0,2,,,,,,,,1,,,69,0
1380,note_on,36,0,6,,,,,,,,0,,,52,96
1380,note_on,21,0,4,,,,,,,,10,,,40,102
1380,note_on,21,0,5,,,,,,,,0,,,67,77
1385,note_on,65,0,3,,,,,,,,1,,,57,0
1389,note_on,9,0,5,,,,,,,,0,,,74,0
1406,note_on,26,0,6,,,,,,,,0,,,52,0
1422,note_on,33,0,5,,,,,,,,0,,,67,0
1427,note_on,47,0,4,,,,,,,,10,,,40,0
1440,note_on,18,0,5,,,,,,,,0,,,69,102
1440,note_on,55,0,3,,,,,,,,1,,,62,66
1440,note_on,34,0,6,,,,,,,,0,,,50,74
1440,note_on,0,0,5,,,,,,,,0,,,66,102
1440,note_on,13,0,4,,,,,,,,10,,,38,77
1440,note_on,70,0,2,,,,,,,,1,,,66,84
1440,note_on,75,0,1,,,,,,,,1,,,69,117
1469,note_on,29,0,6,,,,,,,,0,,,50,0
1484,note_on,44,0,4,,,,,,,,10,,,38,0
1490,note_on,50,0,1,,,,,,,,1,,,69,0
1490,note_on,50,0,2,,,,,,,,1,,,66,0
1498,note_on,58,0,5,,,,,,,,0,,,69,0
1500,note_on,16,0,4,,,,,,,,10,,,40,91
1500,note_on,31,0,6,,,,,,,,0,,,52,64
1503,note_on,63,0,3,,,,,,,,1,,,62,0
1519,note_on,21,0,5,,,,,,,,0,,,66,0
1531,note_on,31,0,6,,,,,,,,0,,,52,0
1548,note_on,48,0,4,,,,,,,,10,,,40,0
1560,note_on,70,0,2,,,,,,,,1,,,62,58
1560,note_on,0,0,5,,,,,,,,0,,,62,96
1560,note_on,41,0,5,,,,,,,,0,,,69,90
1560,note_on,70,0,1,,,,,,,,1,,,69,105
1560,note_on,12,0,4,,,,,,,,10,,,42,72
1560,note_on,57,0,3,,,,,,,,1,,,57,55
1560,note_on,29,0,6,,,,,,,,0,,,54,77
1589,note_on,29,0,6,,,,,,,,0,,,54,0
1597,note_on,37,0,1,,,,,,,,1,,,69,0
1601,control_change,41,0,4,,,,,,,,10,7,97,,
1603,note_on,2,0,4,,,,,,,,10,,,42,0
1604,note_on,44,0,5,,,,,,,,0,,,69,0
1609,note_on,49,0,2,,,,,,,,1,,,62,0
1620,note_on,23,0,1,,,,,,,,1,,,67,93
1620,note_on,16,0,5,,,,,,,,0,,,67,90
1620,note_on,17,0,4,,,,,,,,10,,,40,102
1620,note_on,31,0,6,,,,,,,,0,,,52,79
1623,note_on,63,0,3,,,,,,,,1,,,57,0
1637,note_on,17,0,5,,,,,,,,0,,,62,0
1644,note_on,24,0,6,,,,,,,,0,,,52,0
1652,note_on,32,0,1,,,,,,,,1,,,67,0
1670,note_on,33,0,5,,,,,,,,0,,,67,0
1670,note_on,50,0,4,,,,,,,,10,,,40,0
1680,note_on,71,0,2,,,,,,,,1,,,62,74
1680,note_on,10,0,5,,,,,,,,0,,,66,117
1680,note_on,28,0,1,,,,,,,,1,,,66,93
1680,note_on,10,0,4,,,,,,,,10,,,38,126
1680,note_on,36,0,6,,,,,,,,0,,,50,99
1680,note_on,0,0,5,,,,,,,,0,,,62,99
1680,note_on,57,0,3,,,,,,,,1,,,57,64
1717,note_on,37,0,6,,,,,,,,0,,,50,0
1732,note_on,52,0,2,,,,,,,,1,,,62,0
1740,note_on,60,0,1,,,,,,,,1,,,66,0
1743,note_on,63,0,5,,,,,,,,0,,,66,0
1749,note_on,69,0,3,,,,,,,,1,,,57,0
1754,note_on,74,0,4,,,,,,,,10,,,38,0
1793,note_on,50,0,5,,,,,,,,0,,,62,0
1800,note_on,68,0,2,,,,,,,,1,,,66,43
1800,note_on,7,0,5,,,,,,,,0,,,64,96
1800,note_on,46,0,4,,,,,,,,10,,,37,123
1800,note_on,51,0,3,,,,,,,,1,,,57,69
1800,note_on,83,0,6,,,,,,,,0,,,49,102
1800,note_on,60,0,1,,,,,,,,1,,,64,127
1830,note_on,30,0,1,,,,,,,,1,,,64,0
1839,note_on,39,0,5,,,,,,,,0,,,64,0
1857,note_on,57,0,6,,,,,,,,0,,,49,0
1860,note_on,30,0,1,,,,,,,,1,,,62,108
1860,note_on,21,0,5,,,,,,,,0,,,62,96
1874,note_on,74,0,3,,,,,,,,1,,,57,0
1882,note_on,82,0,4,,,,,,,,10,,,37,0
1896,note_on,36,0,1,,,,,,,,1,,,62,0
1905,note_on,45,0,5,,,,,,,,0,,,62,0
1920,note_on,46,0,3,,,,,,,,1,,,62,64
1920,note_on,24,0,1,,,,,,,,1,,,67,108
1920,note_on,38,0,4,,,,,,,,10,,,35,114
1920,note_on,63,0,6,,,,,,,,0,,,47,102
1920,note_on,15,0,5,,,,,,,,0,,,67,127
1953,note_on,33,0,1,,,,,,,,1,,,67,0
1965,note_on,45,0,5,,,,,,,,0,,,67,0
1972,note_on,52,0,6,,,,,,,,0,,,47,0
1980,note_on,15,0,5,,,,,,,,0,,,69,90
1980,note_on,27,0,1,,,,,,,,1,,,69,93
2001,note_on,81,0,3,,,,,,,,1,,,62,0
2014,note_on,34,0,1,,,,,,,,1,,,69,0
2025,note_on,45,0,5,,,,,,,,0,,,69,0
2036,note_on,236,0,2,,,,,,,,1,,,66,0
2039,control_change,119,0,4,,,,,,,,10,7,96,,
2040,note_on,39,0,3,,,,,,,,1,,,61,51
2040,note_on,1,0,4,,,,,,,,10,,,37,117
2040,note_on,68,0,6,,,,,,,,0,,,49,124
2040,note_on,4,0,2,,,,,,,,1,,,64,30
2040,note_on,15,0,5,,,,,,,,0,,,71,79
2040,note_on,26,0,1,,,,,,,,1,,,71,111
2042,note_on,2,0,4,,,,,,,,10,,,35,0
2076,note_on,36,0,1,,,,,,,,1,,,71,0
2079,note_on,39,0,5,,,,,,,,0,,,71,0
2097,note_on,57,0,6,,,,,,,,0,,,49,0
2100,note_on,24,0,1,,,,,,,,1,,,67,93
2100,note_on,21,0,5,,,,,,,,0,,,67,82
2120,note_on,80,0,3,,,,,,,,1,,,61,0
2131,note_on,31,0,1,,,,,,,,1,,,67,0
2139,note_on,39,0,5,,,,,,,,0,,,67,0
2160,note_on,0,0,4,,,,,,,,10,,,38,96
2160,note_on,29,0,1,,,,,,,,1,,,66,124
2160,note_on,63,0,6,,,,,,,,0,,,50,89
2160,note_on,21,0,5,,,,,,,,0,,,66,96
2160,note_on,118,0,4,,,,,,,,10,,,37,0
2160,note_on,40,0,3,,,,,,,,1,,,57,51
2182,control_change,22,0,4,,,,,,,,10,7,94,,
2196,note_on,36,0,1,,,,,,,,1,,,66,0
2206,note_on,46,0,5,,,,,,,,0,,,66,0
2220,note_on,24,0,1,,,,,,,,1,,,67,84
2220,note_on,14,0,5,,,,,,,,0,,,67,110
2228,note_on,68,0,6,,,,,,,,0,,,50,0
2231,note_on,71,0,3,,,,,,,,1,,,57,0
2257,note_on,37,0,1,,,,,,,,1,,,67,0
2262,note_on,222,0,2,,,,,,,,1,,,64,0
2270,note_on,50,0,5,,,,,,,,0,,,67,0
2277,note_on,95,0,4,,,,,,,,10,,,38,0
2280,note_on,49,0,3,,,,,,,,1,,,57,48
2280,note_on,52,0,6,,,,,,,,0,,,38,99
2280,note_on,10,0,5,,,,,,,,0,,,69,75
2280,note_on,18,0,2,,,,,,,,1,,,62,30
2280,note_on,3,0,4,,,,,,,,10,,,26,114
2280,note_on,23,0,1,,,,,,,,1,,,69,89
2283,aftertouch,3,0,6,,,,,,,,0,,3,,
2283,aftertouch,3,0,4,,,,,,,,10,,3,,
2292,aftertouch,9,0,4,,,,,,,,10,,0,,
2294,aftertouch,2,0,4,,,,,,,,10,,1,,
2294,aftertouch,11,0,6,,,,,,,,0,,1,,
2304,aftertouch,10,0,4,,,,,,,,10,,0,,
2311,note_on,31,0,1,,,,,,,,1,,,69,0
2324,note_on,44,0,5,,,,,,,,0,,,69,0
2340,note_on,29,0,1,,,,,,,,1,,,66,111
2340,note_on,16,0,5,,,,,,,,0,,,66,73
2344,note_on,50,0,6,,,,,,,,0,,,38,0
2351,note_on,71,0,3,,,,,,,,1,,,57,0
2372,note_on,32,0,1,,,,,,,,1,,,66,0
2379,note_on,39,0,5,,,,,,,,0,,,66,0
2385,note_on,105,0,2,,,,,,,,1,,,62,0
2396,aftertouch,92,0,4,,,,,,,,10,,6,,
2399,aftertouch,3,0,4,,,,,,,,10,,0,,
2400,note_on,21,0,5,,,,,,,,0,,,64,66
2400,note_on,15,0,2,,,,,,,,1,,,61,66
2400,note_on,49,0,3,,,,,,,,1,,,57,30
2400,note_on,1,0,4,,,,,,,,10,,,33,102
2400,note_on,28,0,1,,,,,,,,1,,,64,117
2400,note_on,56,0,6,,,,,,,,0,,,45,77
2403,aftertouch,3,0,5,,,,,,,,0,,3,,
2403,aftertouch,0,0,5,,,,,,,,0,,3,,
2410,note_on,10,0,4,,,,,,,,10,,,26,0
2414,aftertouch,11,0,5,,,,,,,,0,,1,,
2414,aftertouch,0,0,5,,,,,,,,0,,1,,
2428,note_on,28,0,1,,,,,,,,1,,,64,0
2430,note_on,16,0,5,,,,,,,,0,,,64,0
2438,control_change,10,0,1,,,,,,,,1,7,105,,
2447,control_change,9,0,1,,,,,,,,1,7,104,,
2452,control_change,42,0,4,,,,,,,,10,7,95,,
2460,note_on,30,0,5,,,,,,,,0,,,69,82
2460,note_on,13,0,1,,,,,,,,1,,,69,99
2494,note_on,34,0,1,,,,,,,,1,,,69,0
2502,note_on,42,0,5,,,,,,,,0,,,69,0
2520,note_on,26,0,1,,,,,,,,1,,,71,89
2520,note_on,18,0,5,,,,,,,,0,,,71,93
2535,control_change,15,0,1,,,,,,,,1,7,102,,
2544,control_change,9,0,1,,,,,,,,1,7,101,,
2552,note_on,8,0,1,,,,,,,,1,,,71,0
2553,control_change,1,0,1,,,,,,,,1,7,99,,
2562,note_on,42,0,5,,,,,,,,0,,,71,0
2580,note_on,18,0,5,,,,,,,,0,,,73,88
2580,note_on,27,0,1,,,,,,,,1,,,73,102
2614,note_on,34,0,1,,,,,,,,1,,,73,0
2616,note_on,164,0,4,,,,,,,,10,,,33,0
2616,note_on,216,0,2,,,,,,,,1,,,61,0
2616,note_on,216,0,6,,,,,,,,0,,,45,0
2616,note_on,216,0,3,,,,,,,,1,,,57,0
2620,note_on,40,0,5,,,,,,,,0,,,73,0
2640,note_on,26,0,1,,,,,,,,1,,,74,111
2640,note_on,20,0,5,,,,,,,,0,,,74,127
2643,control_change,27,0,4,,,,,,,,10,7,97,,
2672,note_on,32,0,1,,,,,,,,1,,,74,0
2681,control_change,38,0,4,,,,,,,,10,7,98,,
2683,control_change,11,0,1,,,,,,,,1,7,100,,
2685,note_on,45,0,5,,,,,,,,0,,,74,0
2692,control_change,11,0,4,,,,,,,,10,7,100,,
2700,note_on,15,0,5,,,,,,,,0,,,76,96
2700,note_on,17,0,1,,,,,,,,1,,,76,79
2705,control_change,5,0,1,,,,,,,,1,7,101,,
2713,control_change,8,0,1,,,,,,,,1,7,103,,
2722,control_change,9,0,1,,,,,,,,1,7,104,,
2725,note_on,3,0,1,,,,,,,,1,,,76,0
2729,control_change,37,0,4,,,,,,,,10,7,101,,
2731,control_change,6,0,1,,,,,,,,1,7,106,,
2739,control_change,8,0,1,,,,,,,,1,7,107,,
2740,note_on,40,0,5,,,,,,,,0,,,76,0
2748,control_change,9,0,1,,,,,,,,1,7,109,,
2760,note_on,20,0,5,,,,,,,,0,,,78,113
2760,note_on,12,0,1,,,,,,,,1,,,78,93
2787,note_on,27,0,1,,,,,,,,1,,,78,0
2789,control_change,60,0,4,,,,,,,,10,7,103,,
2804,note_on,44,0,5,,,,,,,,0,,,78,0
2817,control_change,28,0,4,,,,,,,,10,7,104,,
2820,note_on,33,0,1,,,,,,,,1,,,79,96
2820,note_on,16,0,5,,,,,,,,0,,,79,127
2852,note_on,32,0,1,,,,,,,,1,,,79,0
2862,note_on,42,0,5,,,,,,,,0,,,79,0
2875,aftertouch,58,0,4,,,,,,,,10,,31,,
2876,control_change,24,0,1,,,,,,,,1,7,110,,
2880,note_on,4,0,1,,,,,,,,1,,,81,127
2880,note_on,264,0,6,,,,,,,,0,,,42,111
2880,note_on,264,0,2,,,,,,,,1,,,73,30
2880,note_on,5,0,4,,,,,,,,10,,,30,127
2880,note_on,18,0,5,,,,,,,,0,,,81,102
2880,note_on,264,0,3,,,,,,,,1,,,66,48
2885,aftertouch,5,0,4,,,,,,,,10,,0,,
2886,aftertouch,6,0,5,,,,,,,,0,,15,,
2887,aftertouch,2,0,4,,,,,,,,10,,15,,
2887,aftertouch,1,0,5,,,,,,,,0,,15,,
2887,aftertouch,7,0,6,,,,,,,,0,,15,,
2892,control_change,5,0,4,,,,,,,,10,7,106,,
2897,aftertouch,5,0,4,,,,,,,,10,,0,,
2898,aftertouch,11,0,5,,,,,,,,0,,7,,
2898,aftertouch,0,0,5,,,,,,,,0,,7,,
2899,aftertouch,12,0,6,,,,,,,,0,,7,,
2899,aftertouch,2,0,4,,,,,,,,10,,7,,
2909,aftertouch,10,0,4,,,,,,,,10,,0,,
2910,note_on,30,0,2,,,,,,,,1,,,73,0
2910,note_on,30,0,3,,,,,,,,1,,,66,0
2911,aftertouch,12,0,6,,,,,,,,0,,3,,
2911,aftertouch,2,0,4,,,,,,,,10,,3,,
2911,aftertouch,13,0,5,,,,,,,,0,,3,,
2911,aftertouch,0,0,5,,,,,,,,0,,3,,
2916,note_on,36,0,1,,,,,,,,1,,,81,0
2918,aftertouch,7,0,4,,,,,,,,10,,0,,
2918,note_on,7,0,6,,,,,,,,0,,,42,0
2926,note_on,8,0,4,,,,,,,,10,,,30,0
2928,note_on,17,0,5,,,,,,,,0,,,81,0
2940,note_on,30,0,2,,,,,,,,1,,,73,64
2940,note_on,14,0,4,,,,,,,,10,,,31,127
2940,note_on,30,0,3,,,,,,,,1,,,66,84
2940,note_on,22,0,6,,,,,,,,0,,,43,93
2940,note_on,24,0,1,,,,,,,,1,,,81,79
2940,note_on,12,0,5,,,,,,,,0,,,69,66
2946,aftertouch,6,0,5,,,,,,,,0,,9,,
2946,aftertouch,0,0,5,,,,,,,,0,,9,,
2947,aftertouch,7,0,6,,,,,,,,0,,9,,
2947,aftertouch,7,0,4,,,,,,,,10,,9,,
2958,aftertouch,11,0,4,,,,,,,,10,,0,,
2960,aftertouch,13,0,6,,,,,,,,0,,4,,
2960,aftertouch,14,0,5,,,,,,,,0,,4,,
2960,aftertouch,2,0,4,,,,,,,,10,,4,,
2960,aftertouch,0,0,5,,,,,,,,0,,4,,
2970,aftertouch,10,0,4,,,,,,,,10,,0,,
2972,aftertouch,12,0,6,,,,,,,,0,,2,,
2972,aftertouch,12,0,5,,,,,,,,0,,2,,
2972,aftertouch,0,0,5,,,,,,,,0,,2,,
2973,note_on,33,0,1,,,,,,,,1,,,81,0
2973,note_on,1,0,6,,,,,,,,0,,,43,0
2973,aftertouch,3,0,4,,,,,,,,10,,2,,
2974,note_on,34,0,2,,,,,,,,1,,,73,0
2976,note_on,36,0,3,,,,,,,,1,,,66,0
2979,aftertouch,6,0,4,,,,,,,,10,,0,,
2979,note_on,7,0,5,,,,,,,,0,,,69,0
2988,note_on,9,0,4,,,,,,,,10,,,31,0
3000,note_on,27,0,6,,,,,,,,0,,,45,99
3000,note_on,26,0,2,,,,,,,,1,,,73,89
3000,note_on,12,0,4,,,,,,,,10,,,33,127
3000,note_on,24,0,3,,,,,,,,1,,,66,89
3000,note_on,21,0,5,,,,,,,,0,,,81,88
3000,note_on,27,0,1,,,,,,,,1,,,81,89
3012,control_change,12,0,1,,,,,,,,1,7,112,,
3024,control_change,24,0,4,,,,,,,,10,7,107,,
3030,note_on,18,0,1,,,,,,,,1,,,81,0
3033,note_on,33,0,2,,,,,,,,1,,,73,0
3033,note_on,33,0,3,,,,,,,,1,,,66,0
3037,note_on,37,0,6,,,,,,,,0,,,45,0
3039,note_on,15,0,4,,,,,,,,10,,,33,0
3044,note_on,44,0,5,,,,,,,,0,,,81,0
3060,note_on,21,0,4,,,,,,,,10,,,35,113
3060,note_on,30,0,1,,,,,,,,1,,,81,69
3060,note_on,27,0,2,,,,,,,,1,,,73,77
3060,note_on,27,0,3,,,,,,,,1,,,66,108
3060,note_on,16,0,5,,,,,,,,0,,,69,93
3060,note_on,23,0,6,,,,,,,,0,,,47,108
3088,note_on,28,0,3,,,,,,,,1,,,66,0
3089,note_on,29,0,2,,,,,,,,1,,,73,0
3089,note_on,29,0,1,,,,,,,,1,,,81,0
3092,note_on,32,0,6,,,,,,,,0,,,47,0
3103,aftertouch,43,0,4,,,,,,,,10,,38,,
3104,note_on,44,0,5,,,,,,,,0,,,69,0
3105,note_on,2,0,4,,,,,,,,10,,,35,0
3107,aftertouch,2,0,4,,,,,,,,10,,0,,
3109,aftertouch,2,0,4,,,,,,,,10,,25,,
3119,aftertouch,10,0,4,,,,,,,,10,,0,,
3119,aftertouch,30,0,2,,,,,,,,1,,38,,
3120,note_on,1,0,2,,,,,,,,1,,,73,127
3120,note_on,31,0,1,,,,,,,,1,,,81,117
3120,note_on,32,0,3,,,,,,,,1,,,66,105
3120,note_on,28,0,6,,,,,,,,0,,,49,102
3120,note_on,16,0,5,,,,,,,,0,,,81,127
3120,note_on,1,0,4,,,,,,,,10,,,37,116
3122,aftertouch,2,0,4,,,,,,,,10,,12,,
3129,aftertouch,9,0,2,,,,,,,,1,,0,,
3130,aftertouch,10,0,5,,,,,,,,0,,19,,
3130,aftertouch,0,0,5,,,,,,,,0,,19,,
3131,aftertouch,11,0,3,,,,,,,,1,,19,,
3131,aftertouch,9,0,4,,,,,,,,10,,19,,
3131,aftertouch,11,0,6,,,,,,,,0,,19,,
3131,aftertouch,2,0,2,,,,,,,,1,,19,,
3141,aftertouch,10,0,2,,,,,,,,1,,0,,
3142,aftertouch,12,0,5,,,,,,,,0,,9,,
3143,aftertouch,2,0,2,,,,,,,,1,,9,,
3143,aftertouch,12,0,4,,,,,,,,10,,9,,
3143,aftertouch,1,0,5,,,,,,,,0,,9,,
3143,aftertouch,12,0,6,,,,,,,,0,,9,,
3143,aftertouch,12,0,3,,,,,,,,1,,9,,
3145,aftertouch,2,0,2,,,,,,,,1,,0,,
3148,note_on,3,0,2,,,,,,,,1,,,73,0
3149,note_on,29,0,1,,,,,,,,1,,,81,0
3149,note_on,6,0,3,,,,,,,,1,,,66,0
3156,note_on,13,0,6,,,,,,,,0,,,49,0
3157,aftertouch,0,0,5,,,,,,,,0,,1,,
3157,aftertouch,14,0,4,,,,,,,,10,,1,,
3157,aftertouch,14,0,5,,,,,,,,0,,1,,
3157,aftertouch,1,0,6,,,,,,,,0,,1,,
3159,aftertouch,2,0,4,,,,,,,,10,,0,,
3171,note_on,14,0,5,,,,,,,,0,,,81,0
3178,note_on,19,0,4,,,,,,,,10,,,37,0
3180,note_on,23,0,6,,,,,,,,0,,,50,84
3180,note_on,31,0,1,,,,,,,,1,,,81,89
3180,note_on,9,0,5,,,,,,,,0,,,69,127
3180,note_on,32,0,2,,,,,,,,1,,,73,127
3180,note_on,31,0,3,,,,,,,,1,,,66,127
3180,note_on,2,0,4,,,,,,,,10,,,38,127
3207,note_on,27,0,1,,,,,,,,1,,,81,0
3209,note_on,29,0,2,,,,,,,,1,,,73,0
3210,note_on,30,0,3,,,,,,,,1,,,66,0
3215,note_on,35,0,6,,,,,,,,0,,,50,0
3230,note_on,50,0,5,,,,,,,,0,,,69,0
3232,note_on,52,0,4,,,,,,,,10,,,38,0
3240,note_on,30,0,3,,,,,,,,1,,,66,127
3240,note_on,33,0,1,,,,,,,,1,,,81,127
3240,note_on,10,0,5,,,,,,,,0,,,81,127
3240,note_on,8,0,4,,,,,,,,10,,,40,127
3240,note_on,31,0,2,,,,,,,,1,,,73,127
3240,note_on,25,0,6,,,,,,,,0,,,52,89
3248,aftertouch,8,0,4,,,,,,,,10,,0,,
3250,aftertouch,10,0,1,,,,,,,,1,,0,,
3251,aftertouch,3,0,4,,,,,,,,10,,9,,
3252,aftertouch,1,0,4,,,,,,,,10,,6,,
3252,aftertouch,2,0,1,,,,,,,,1,,6,,
3252,aftertouch,12,0,2,,,,,,,,1,,6,,
3252,aftertouch,12,0,3,,,,,,,,1,,6,,
3260,aftertouch,8,0,4,,,,,,,,10,,0,,
3262,aftertouch,10,0,1,,,,,,,,1,,0,,
3263,aftertouch,3,0,4,,,,,,,,10,,4,,
3265,aftertouch,13,0,2,,,,,,,,1,,3,,
3265,aftertouch,3,0,1,,,,,,,,1,,3,,
3265,aftertouch,13,0,3,,,,,,,,1,,3,,
3267,note_on,2,0,2,,,,,,,,1,,,73,0
3267,note_on,2,0,1,,,,,,,,1,,,81,0
3269,note_on,4,0,3,,,,,,,,1,,,66,0
3271,note_on,31,0,6,,,,,,,,0,,,52,0
3272,aftertouch,9,0,4,,,,,,,,10,,0,,
3274,aftertouch,7,0,1,,,,,,,,1,,0,,
3275,aftertouch,3,0,4,,,,,,,,10,,2,,
3276,aftertouch,7,0,3,,,,,,,,1,,1,,
3276,aftertouch,9,0,2,,,,,,,,1,,1,,
3276,aftertouch,1,0,4,,,,,,,,10,,1,,
3276,aftertouch,2,0,1,,,,,,,,1,,1,,
3282,aftertouch,6,0,1,,,,,,,,1,,0,,
3287,aftertouch,11,0,4,,,,,,,,10,,1,,
3290,note_on,50,0,5,,,,,,,,0,,,81,0
3296,note_on,9,0,4,,,,,,,,10,,,40,0
3297,aftertouch,1,0,4,,,,,,,,10,,0,,
3300,note_on,18,0,1,,,,,,,,1,,,81,127
3300,note_on,10,0,5,,,,,,,,0,,,69,127
3300,note_on,24,0,2,,,,,,,,1,,,73,127
3300,note_on,3,0,4,,,,,,,,10,,,42,116
3300,note_on,24,0,3,,,,,,,,1,,,66,127
3300,note_on,29,0,6,,,,,,,,0,,,54,96
3325,note_on,25,0,1,,,,,,,,1,,,81,0
3327,note_on,27,0,6,,,,,,,,0,,,54,0
3327,note_on,27,0,2,,,,,,,,1,,,73,0
3332,note_on,32,0,3,,,,,,,,1,,,66,0
3342,control_change,17,0,1,,,,,,,,1,7,111,,
3345,note_on,45,0,5,,,,,,,,0,,,69,0
3348,aftertouch,6,0,1,,,,,,,,1,,6,,
3358,note_on,58,0,4,,,,,,,,10,,,42,0
3358,aftertouch,10,0,1,,,,,,,,1,,0,,
3360,note_on,28,0,3,,,,,,,,1,,,63,93
3360,note_on,15,0,5,,,,,,,,0,,,81,127
3360,note_on,33,0,6,,,,,,,,0,,,47,111
3360,aftertouch,0,0,1,,,,,,,,1,,12,,
3360,note_on,2,0,4,,,,,,,,10,,,35,116
3360,note_on,33,0,2,,,,,,,,1,,,71,127
3360,note_on,2,0,1,,,,,,,,1,,,81,126
3365,control_change,5,0,1,,,,,,,,1,7,110,,
3370,aftertouch,0,0,5,,,,,,,,0,,9,,
3370,aftertouch,10,0,5,,,,,,,,0,,9,,
3371,aftertouch,11,0,6,,,,,,,,0,,9,,
3372,aftertouch,2,0,5,,,,,,,,0,,6,,
3372,aftertouch,0,0,5,,,,,,,,0,,6,,
3373,aftertouch,2,0,6,,,,,,,,0,,6,,
3382,control_change,17,0,1,,,,,,,,1,7,108,,
3382,aftertouch,10,0,5,,,,,,,,0,,4,,
3383,aftertouch,10,0,6,,,,,,,,0,,4,,
3383,aftertouch,1,0,5,,,,,,,,0,,4,,
3394,aftertouch,11,0,5,,,,,,,,0,,2,,
3394,aftertouch,0,0,5,,,,,,,,0,,2,,
3395,aftertouch,12,0,6,,,,,,,,0,,2,,
3396,aftertouch,2,0,5,,,,,,,,0,,1,,
3396,aftertouch,0,0,5,,,,,,,,0,,1,,
3397,aftertouch,2,0,6,,,,,,,,0,,1,,
3407,aftertouch,11,0,5,,,,,,,,0,,1,,
3407,aftertouch,10,0,6,,,,,,,,0,,1,,
3407,aftertouch,0,0,5,,,,,,,,0,,1,,
3415,note_on,8,0,5,,,,,,,,0,,,81,0
3420,note_on,5,0,5,,,,,,,,0,,,78,93
3420,note_on,13,0,6,,,,,,,,0,,,51,127
3421,note_on,1,0,6,,,,,,,,0,,,47,0
3456,control_change,96,0,4,,,,,,,,10,7,106,,
3465,control_change,9,0,4,,,,,,,,10,7,105,,
3473,note_on,113,0,2,,,,,,,,1,,,71,0
3473,note_on,52,0,6,,,,,,,,0,,,51,0
3473,note_on,8,0,4,,,,,,,,10,,,35,0
3473,note_on,53,0,5,,,,,,,,0,,,78,0
3473,note_on,91,0,1,,,,,,,,1,,,81,0
3473,note_on,113,0,3,,,,,,,,1,,,63,0
3480,note_on,7,0,6,,,,,,,,0,,,54,102
3480,note_on,7,0,5,,,,,,,,0,,,75,88
3518,note_on,38,0,6,,,,,,,,0,,,54,0
3525,note_on,45,0,5,,,,,,,,0,,,75,0
3540,note_on,22,0,6,,,,,,,,0,,,59,72
3540,note_on,15,0,5,,,,,,,,0,,,71,85
3552,note_on,12,0,6,,,,,,,,0,,,59,0
3569,note_on,29,0,5,,,,,,,,0,,,71,0
3600,note_on,48,0,6,,,,,,,,0,,,59,124
3600,note_on,31,0,5,,,,,,,,0,,,71,117
3603,control_change,130,0,4,,,,,,,,10,7,103,,
3617,control_change,144,0,1,,,,,,,,1,7,107,,
3618,control_change,15,0,4,,,,,,,,10,7,102,,
3630,control_change,12,0,4,,,,,,,,10,7,100,,
3654,note_on,54,0,6,,,,,,,,0,,,59,0
3655,control_change,25,0,4,,,,,,,,10,7,99,,
3659,note_on,59,0,5,,,,,,,,0,,,71,0
3660,note_on,1,0,5,,,,,,,,0,,,75,96
3660,note_on,6,0,6,,,,,,,,0,,,54,77
3686,note_on,26,0,6,,,,,,,,0,,,54,0
3702,control_change,47,0,4,,,,,,,,10,7,97,,
3705,note_on,45,0,5,,,,,,,,0,,,75,0
3720,note_on,15,0,5,,,,,,,,0,,,78,127
3720,note_on,34,0,6,,,,,,,,0,,,51,84
3731,control_change,29,0,4,,,,,,,,10,7,96,,
3741,control_change,124,0,1,,,,,,,,1,7,105,,
3751,control_change,20,0,4,,,,,,,,10,7,94,,
3753,note_on,33,0,6,,,,,,,,0,,,51,0
3773,note_on,53,0,5,,,,,,,,0,,,78,0
3780,note_on,27,0,6,,,,,,,,0,,,47,79
3780,note_on,7,0,5,,,,,,,,0,,,81,127
3808,note_on,28,0,6,,,,,,,,0,,,47,0
3825,note_on,45,0,5,,,,,,,,0,,,81,0
3840,note_on,32,0,6,,,,,,,,0,,,40,79
3840,note_on,89,0,4,,,,,,,,10,,,28,127
3840,note_on,367,0,2,,,,,,,,1,,,71,127
3840,note_on,367,0,3,,,,,,,,1,,,64,127
3840,note_on,15,0,5,,,,,,,,0,,,79,106
3840,note_on,99,0,1,,,,,,,,1,,,79,127
3866,note_on,26,0,2,,,,,,,,1,,,71,0
3871,note_on,31,0,3,,,,,,,,1,,,64,0
3872,note_on,32,0,1,,,,,,,,1,,,79,0
3880,control_change,40,0,4,,,,,,,,10,7,95,,
3884,note_on,44,0,6,,,,,,,,0,,,40,0
3889,note_on,49,0,5,,,,,,,,0,,,79,0
3897,note_on,17,0,4,,,,,,,,10,,,28,0
3900,note_on,29,0,3,,,,,,,,1,,,64,72
3900,note_on,11,0,5,,,,,,,,0,,,67,63
3900,note_on,3,0,4,,,,,,,,10,,,30,127
3900,note_on,34,0,2,,,,,,,,1,,,71,72
3900,note_on,28,0,1,,,,,,,,1,,,79,89
3900,note_on,16,0,6,,,,,,,,0,,,42,120
3926,note_on,26,0,2,,,,,,,,1,,,71,0
3927,note_on,27,0,1,,,,,,,,1,,,79,0
3930,note_on,30,0,3,,,,,,,,1,,,64,0
3933,note_on,33,0,6,,,,,,,,0,,,42,0
3939,control_change,39,0,4,,,,,,,,10,7,97,,
3944,note_on,44,0,5,,,,,,,,0,,,67,0
3954,note_on,15,0,4,,,,,,,,10,,,30,0
3960,note_on,30,0,3,,,,,,,,1,,,64,61
3960,note_on,6,0,4,,,,,,,,10,,,31,127
3960,note_on,27,0,6,,,,,,,,0,,,43,93
3960,note_on,34,0,2,,,,,,,,1,,,71,48
3960,note_on,16,0,5,,,,,,,,0,,,79,96
3960,note_on,33,0,1,,,,,,,,1,,,79,64
3988,note_on,28,0,2,,,,,,,,1,,,71,0
3991,note_on,31,0,3,,,,,,,,1,,,64,0
3992,note_on,32,0,1,,,,,,,,1,,,79,0
3993,note_on,33,0,6,,,,,,,,0,,,43,0
4010,note_on,50,0,5,,,,,,,,0,,,79,0
4017,control_change,25,0,1,,,,,,,,1,7,106,,
4017,control_change,57,0,4,,,,,,,,10,7,98,,
4020,note_on,10,0,5,,,,,,,,0,,,67,79
4020,note_on,3,0,1,,,,,,,,1,,,79,58
4020,note_on,3,0,4,,,,,,,,10,,,33,127
4020,note_on,27,0,6,,,,,,,,0,,,45,93
4020,note_on,32,0,2,,,,,,,,1,,,71,79
4020,note_on,29,0,3,,,,,,,,1,,,64,64
4022,note_on,2,0,4,,,,,,,,10,,,31,0
4047,note_on,27,0,2,,,,,,,,1,,,71,0
4049,note_on,29,0,3,,,,,,,,1,,,64,0
4050,note_on,30,0,1,,,,,,,,1,,,79,0
4052,note_on,32,0,6,,,,,,,,0,,,45,0
4062,note_on,42,0,5,,,,,,,,0,,,67,0
4071,control_change,21,0,1,,,,,,,,1,7,107,,
4080,note_on,28,0,6,,,,,,,,0,,,47,84
4080,note_on,58,0,4,,,,,,,,10,,,35,127
4080,note_on,33,0,2,,,,,,,,1,,,71,102
4080,note_on,18,0,5,,,,,,,,0,,,79,102
4080,note_on,31,0,3,,,,,,,,1,,,64,111
4080,note_on,9,0,1,,,,,,,,1,,,79,64
4086,note_on,6,0,4,,,,,,,,10,,,33,0
4107,note_on,27,0,2,,,,,,,,1,,,71,0
4108,note_on,28,0,1,,,,,,,,1,,,79,0
4111,note_on,31,0,6,,,,,,,,0,,,47,0
4115,note_on,35,0,3,,,,,,,,1,,,64,0
4128,note_on,48,0,5,,,,,,,,0,,,79,0
4132,note_on,46,0,4,,,,,,,,10,,,35,0
4134,control_change,2,0,4,,,,,,,,10,7,100,,
4140,note_on,29,0,6,,,,,,,,0,,,49,93
4140,note_on,25,0,3,,,,,,,,1,,,64,89
4140,note_on,32,0,1,,,,,,,,1,,,79,84
4140,note_on,12,0,5,,,,,,,,0,,,67,102
4140,note_on,6,0,4,,,,,,,,10,,,37,127
4140,note_on,33,0,2,,,,,,,,1,,,71,84
4147,control_change,7,0,1,,,,,,,,1,7,109,,
4165,note_on,25,0,2,,,,,,,,1,,,71,0
4166,note_on,26,0,3,,,,,,,,1,,,64,0
4169,note_on,22,0,1,,,,,,,,1,,,79,0
4178,control_change,38,0,4,,,,,,,,10,7,101,,
4179,note_on,39,0,6,,,,,,,,0,,,49,0
4188,note_on,48,0,5,,,,,,,,0,,,67,0
4200,note_on,12,0,5,,,,,,,,0,,,79,96
4200,note_on,22,0,4,,,,,,,,10,,,38,127
4200,note_on,34,0,3,,,,,,,,1,,,64,108
4200,note_on,31,0,1,,,,,,,,1,,,79,77
4200,note_on,21,0,6,,,,,,,,0,,,50,81
4200,note_on,35,0,2,,,,,,,,1,,,71,127
4218,note_on,18,0,4,,,,,,,,10,,,37,0
4225,note_on,25,0,2,,,,,,,,1,,,71,0
4226,note_on,26,0,3,,,,,,,,1,,,64,0
4228,note_on,28,0,1,,,,,,,,1,,,79,0
4250,note_on,50,0,5,,,,,,,,0,,,79,0
4254,note_on,54,0,6,,,,,,,,0,,,50,0
4259,note_on,41,0,4,,,,,,,,10,,,38,0
4260,note_on,34,0,3,,,,,,,,1,,,64,127
4260,note_on,35,0,2,,,,,,,,1,,,71,127
4260,note_on,32,0,1,,,,,,,,1,,,79,111
4260,note_on,6,0,6,,,,,,,,0,,,52,84
4260,note_on,1,0,4,,,,,,,,10,,,40,127
4260,note_on,10,0,5,,,,,,,,0,,,79,20
4266,note_on,6,0,5,,,,,,,,0,,,79,0
4285,note_on,25,0,3,,,,,,,,1,,,64,0
4288,note_on,28,0,1,,,,,,,,1,,,79,0
4290,note_on,30,0,6,,,,,,,,0,,,52,0
4294,note_on,34,0,2,,,,,,,,1,,,71,0
4300,control_change,12,0,1,,,,,,,,1,7,110,,
4320,note_on,35,0,3,,,,,,,,1,,,64,127
4320,note_on,26,0,2,,,,,,,,1,,,73,124
4320,note_on,30,0,6,,,,,,,,0,,,45,117
4320,note_on,54,0,5,,,,,,,,0,,,79,127
4320,note_on,60,0,4,,,,,,,,10,,,33,127
4320,note_on,20,0,1,,,,,,,,1,,,79,127
4332,note_on,12,0,4,,,,,,,,10,,,40,0
4373,note_on,53,0,6,,,,,,,,0,,,45,0
4375,note_on,55,0,5,,,,,,,,0,,,79,0
4380,note_on,7,0,6,,,,,,,,0,,,49,123
4380,note_on,5,0,5,,,,,,,,0,,,76,117
4411,note_on,31,0,6,,,,,,,,0,,,49,0
4425,note_on,45,0,5,,,,,,,,0,,,76,0
4433,note_on,101,0,4,,,,,,,,10,,,33,0
4433,note_on,113,0,3,,,,,,,,1,,,64,0
4433,note_on,113,0,2,,,,,,,,1,,,73,0
4433,note_on,113,0,1,,,,,,,,1,,,79,0
4440,note_on,15,0,5,,,,,,,,0,,,73,102
4440,note_on,29,0,6,,,,,,,,0,,,52,84
4476,note_on,36,0,6,,,,,,,,0,,,52,0
4489,note_on,49,0,5,,,,,,,,0,,,73,0
4500,note_on,24,0,6,,,,,,,,0,,,57,96
4500,note_on,11,0,5,,,,,,,,0,,,69,75
4530,note_on,30,0,5,,,,,,,,0,,,69,0
4532,note_on,32,0,6,,,,,,,,0,,,57,0
4560,note_on,28,0,6,,,,,,,,0,,,57,96
4560,note_on,30,0,5,,,,,,,,0,,,69,96
4593,note_on,33,0,6,,,,,,,,0,,,57,0
4603,control_change,170,0,1,,,,,,,,1,7,108,,
4616,note_on,56,0,5,,,,,,,,0,,,69,0
4620,note_on,4,0,5,,,,,,,,0,,,73,96
4620,note_on,27,0,6,,,,,,,,0,,,52,74
4647,note_on,27,0,6,,,,,,,,0,,,52,0
4652,control_change,49,0,1,,,,,,,,1,7,107,,
4669,note_on,49,0,5,,,,,,,,0,,,73,0
4680,note_on,33,0,6,,,,,,,,0,,,49,66
4680,note_on,11,0,5,,,,,,,,0,,,76,90
4685,control_change,252,0,4,,,,,,,,10,7,100,,
4700,control_change,15,0,4,,,,,,,,10,7,99,,
4708,note_on,28,0,6,,,,,,,,0,,,49,0
4718,control_change,18,0,4,,,,,,,,10,7,97,,
4727,control_change,9,0,4,,,,,,,,10,7,96,,
4733,note_on,53,0,5,,,,,,,,0,,,76,0
4736,control_change,9,0,4,,,,,,,,10,7,94,,
4740,note_on,7,0,5,,,,,,,,0,,,79,110
4740,note_on,32,0,6,,,,,,,,0,,,45,93
4744,control_change,8,0,4,,,,,,,,10,7,93,,
4765,control_change,21,0,4,,,,,,,,10,7,91,,
4769,note_on,29,0,6,,,,,,,,0,,,45,0
4773,control_change,8,0,4,,,,,,,,10,7,90,,
4782,control_change,9,0,4,,,,,,,,10,7,88,,
4793,note_on,53,0,5,,,,,,,,0,,,79,0
4798,control_change,16,0,4,,,,,,,,10,7,87,,
4800,note_on,2,0,4,,,,,,,,10,,,26,127
4800,note_on,31,0,6,,,,,,,,0,,,38,99
4800,note_on,148,0,1,,,,,,,,1,,,78,127
4800,note_on,7,0,5,,,,,,,,0,,,78,88
4800,note_on,367,0,2,,,,,,,,1,,,74,124
4800,note_on,367,0,3,,,,,,,,1,,,69,74
4819,control_change,19,0,1,,,,,,,,1,7,105,,
4826,note_on,26,0,2,,,,,,,,1,,,74,0
4837,note_on,18,0,1,,,,,,,,1,,,78,0
4837,note_on,37,0,3,,,,,,,,1,,,69,0
4840,note_on,40,0,6,,,,,,,,0,,,38,0
4852,note_on,52,0,4,,,,,,,,10,,,26,0
4852,note_on,52,0,5,,,,,,,,0,,,78,0
4860,note_on,23,0,1,,,,,,,,1,,,78,89
4860,note_on,23,0,3,,,,,,,,1,,,69,74
4860,note_on,34,0,2,,,,,,,,1,,,74,79
4860,note_on,8,0,5,,,,,,,,0,,,66,63
4860,note_on,20,0,6,,,,,,,,0,,,40,84
4860,note_on,8,0,4,,,,,,,,10,,,28,127
4885,note_on,25,0,2,,,,,,,,1,,,74,0
4887,note_on,27,0,1,,,,,,,,1,,,78,0
4887,control_change,27,0,4,,,,,,,,10,7,88,,
4894,note_on,34,0,3,,,,,,,,1,,,69,0
4902,note_on,42,0,6,,,,,,,,0,,,40,0
4906,control_change,19,0,4,,,,,,,,10,7,89,,
4906,note_on,46,0,5,,,,,,,,0,,,66,0
4918,note_on,12,0,4,,,,,,,,10,,,28,0
4920,note_on,2,0,4,,,,,,,,10,,,30,127
4920,note_on,18,0,6,,,,,,,,0,,,42,126
4920,note_on,14,0,5,,,,,,,,0,,,78,85
4920,note_on,33,0,1,,,,,,,,1,,,78,77
4920,note_on,26,0,3,,,,,,,,1,,,69,81
4920,note_on,35,0,2,,,,,,,,1,,,74,79
4945,control_change,25,0,4,,,,,,,,10,7,91,,
4948,note_on,28,0,2,,,,,,,,1,,,74,0
4949,note_on,29,0,6,,,,,,,,0,,,42,0
4952,note_on,32,0,1,,,,,,,,1,,,78,0
4953,note_on,33,0,3,,,,,,,,1,,,69,0
4965,control_change,20,0,4,,,,,,,,10,7,92,,
4974,note_on,54,0,5,,,,,,,,0,,,78,0
4975,note_on,10,0,4,,,,,,,,10,,,30,0
4980,note_on,31,0,6,,,,,,,,0,,,43,99
4980,note_on,28,0,1,,,,,,,,1,,,78,89
4980,note_on,27,0,3,,,,,,,,1,,,69,89
4980,note_on,5,0,4,,,,,,,,10,,,31,127
4980,note_on,6,0,5,,,,,,,,0,,,66,70
4980,note_on,32,0,2,,,,,,,,1,,,74,86
4996,control_change,16,0,4,,,,,,,,10,7,94,,
5006,note_on,26,0,2,,,,,,,,1,,,74,0
5007,note_on,27,0,3,,,,,,,,1,,,69,0
5010,note_on,30,0,1,,,,,,,,1,,,78,0
5015,note_on,35,0,6,,,,,,,,0,,,43,0
5018,note_on,38,0,5,,,,,,,,0,,,66,0
5025,control_change,29,0,4,,,,,,,,10,7,95,,
5040,note_on,25,0,6,,,,,,,,0,,,45,93
5040,note_on,34,0,2,,,,,,,,1,,,74,108
5040,note_on,30,0,1,,,,,,,,1,,,78,84
5040,note_on,15,0,4,,,,,,,,10,,,33,123
5040,note_on,33,0,3,,,,,,,,1,,,69,99
5040,note_on,22,0,5,,,,,,,,0,,,78,73
5047,note_on,7,0,4,,,,,,,,10,,,31,0
5066,note_on,26,0,3,,,,,,,,1,,,69,0
5066,note_on,26,0,2,,,,,,,,1,,,74,0
5072,note_on,32,0,6,,,,,,,,0,,,45,0
5073,note_on,33,0,1,,,,,,,,1,,,78,0
5091,control_change,44,0,4,,,,,,,,10,7,97,,
5097,note_on,57,0,5,,,,,,,,0,,,78,0
5100,note_on,3,0,5,,,,,,,,0,,,66,88
5100,note_on,9,0,4,,,,,,,,10,,,35,127
5100,note_on,28,0,6,,,,,,,,0,,,47,84
5100,note_on,34,0,2,,,,,,,,1,,,74,127
5100,note_on,27,0,1,,,,,,,,1,,,78,111
5100,note_on,34,0,3,,,,,,,,1,,,69,86
5101,note_on,1,0,4,,,,,,,,10,,,33,0
5111,control_change,11,0,1,,,,,,,,1,7,106,,
5125,note_on,25,0,2,,,,,,,,1,,,74,0
5125,note_on,25,0,3,,,,,,,,1,,,69,0
5129,note_on,18,0,1,,,,,,,,1,,,78,0
5136,note_on,36,0,6,,,,,,,,0,,,47,0
5139,note_on,39,0,5,,,,,,,,0,,,66,0
5147,note_on,46,0,4,,,,,,,,10,,,35,0
5160,note_on,31,0,1,,,,,,,,1,,,78,99
5160,note_on,21,0,5,,,,,,,,0,,,78,120
5160,note_on,24,0,6,,,,,,,,0,,,49,114
5160,note_on,35,0,2,,,,,,,,1,,,74,127
5160,note_on,35,0,3,,,,,,,,1,,,69,127
5160,note_on,13,0,4,,,,,,,,10,,,37,127
5162,control_change,2,0,4,,,,,,,,10,7,98,,
5162,control_change,2,0,1,,,,,,,,1,7,107,,
5184,note_on,24,0,2,,,,,,,,1,,,74,0
5188,note_on,28,0,3,,,,,,,,1,,,69,0
5194,note_on,32,0,1,,,,,,,,1,,,78,0
5202,note_on,42,0,5,,,,,,,,0,,,78,0
5202,note_on,42,0,6,,,,,,,,0,,,49,0
5209,aftertouch,15,0,1,,,,,,,,1,,6,,
5218,aftertouch,9,0,1,,,,,,,,1,,0,,
5220,note_on,18,0,5,,,,,,,,0,,,78,124
5220,note_on,32,0,3,,,,,,,,1,,,69,127
5220,note_on,36,0,2,,,,,,,,1,,,74,127
5220,aftertouch,2,0,1,,,,,,,,1,,3,,
5220,note_on,0,0,1,,,,,,,,1,,,78,125
5220,note_on,58,0,4,,,,,,,,10,,,38,127
5220,note_on,18,0,6,,,,,,,,0,,,50,102
5225,note_on,5,0,4,,,,,,,,10,,,37,0
5228,control_change,8,0,1,,,,,,,,1,7,109,,
5230,aftertouch,2,0,1,,,,,,,,1,,0,,
5232,aftertouch,2,0,1,,,,,,,,1,,1,,
5232,aftertouch,12,0,3,,,,,,,,1,,1,,
5232,aftertouch,7,0,4,,,,,,,,10,,1,,
5232,aftertouch,12,0,6,,,,,,,,0,,1,,
5232,aftertouch,12,0,5,,,,,,,,0,,1,,
5232,aftertouch,0,0,5,,,,,,,,0,,1,,
5233,aftertouch,13,0,2,,,,,,,,1,,1,,
5240,aftertouch,8,0,1,,,,,,,,1,,0,,
5244,note_on,11,0,2,,,,,,,,1,,,74,0
5247,note_on,15,0,6,,,,,,,,0,,,50,0
5249,note_on,17,0,3,,,,,,,,1,,,69,0
5254,note_on,14,0,1,,,,,,,,1,,,78,0
5262,note_on,30,0,5,,,,,,,,0,,,78,0
5280,note_on,0,0,4,,,,,,,,10,,,35,127
5280,note_on,36,0,2,,,,,,,,1,,,74,127
5280,note_on,31,0,3,,,,,,,,1,,,71,123
5280,note_on,18,0,5,,,,,,,,0,,,79,106
5280,note_on,26,0,1,,,,,,,,1,,,79,84
5280,note_on,48,0,4,,,,,,,,10,,,38,0
5280,note_on,33,0,6,,,,,,,,0,,,47,108
5320,note_on,40,0,1,,,,,,,,1,,,79,0
5322,note_on,42,0,2,,,,,,,,1,,,74,0
5332,note_on,52,0,5,,,,,,,,0,,,79,0
5339,note_on,59,0,6,,,,,,,,0,,,47,0
5340,note_on,20,0,1,,,,,,,,1,,,81,111
5340,note_on,8,0,5,,,,,,,,0,,,81,127
5361,note_on,81,0,4,,,,,,,,10,,,35,0
5376,note_on,36,0,1,,,,,,,,1,,,81,0
5389,note_on,49,0,5,,,,,,,,0,,,81,0
5393,note_on,113,0,3,,,,,,,,1,,,71,0
5400,note_on,24,0,1,,,,,,,,1,,,83,102
5400,note_on,39,0,4,,,,,,,,10,,,47,84
5400,note_on,11,0,5,,,,,,,,0,,,83,93
5400,note_on,61,0,6,,,,,,,,0,,,59,127
5435,note_on,35,0,1,,,,,,,,1,,,83,0
5440,note_on,40,0,5,,,,,,,,0,,,83,0
5460,note_on,25,0,1,,,,,,,,1,,,79,81
5460,note_on,20,0,5,,,,,,,,0,,,79,93
5487,note_on,27,0,1,,,,,,,,1,,,79,0
5492,note_on,32,0,5,,,,,,,,0,,,79,0
5520,note_on,127,0,3,,,,,,,,1,,,66,89
5520,note_on,28,0,5,,,,,,,,0,,,78,113
5520,note_on,33,0,1,,,,,,,,1,,,78,125
5520,note_on,198,0,2,,,,,,,,1,,,73,79
5542,note_on,142,0,6,,,,,,,,0,,,59,0
5556,note_on,36,0,1,,,,,,,,1,,,78,0
5564,note_on,44,0,5,,,,,,,,0,,,78,0
5566,note_on,46,0,2,,,,,,,,1,,,73,0
5580,note_on,16,0,5,,,,,,,,0,,,79,113
5580,note_on,24,0,1,,,,,,,,1,,,79,74
5619,note_on,39,0,5,,,,,,,,0,,,79,0
5622,note_on,42,0,1,,,,,,,,1,,,79,0
5626,note_on,226,0,4,,,,,,,,10,,,47,0
5633,note_on,113,0,3,,,,,,,,1,,,66,0
5640,note_on,18,0,1,,,,,,,,1,,,81,79
5640,note_on,14,0,4,,,,,,,,10,,,45,93
5640,note_on,98,0,6,,,,,,,,0,,,57,127
5640,note_on,21,0,5,,,,,,,,0,,,81,88
5678,note_on,38,0,1,,,,,,,,1,,,81,0
5688,note_on,48,0,5,,,,,,,,0,,,81,0
5696,note_on,56,0,6,,,,,,,,0,,,57,0
5700,note_on,12,0,5,,,,,,,,0,,,78,120
5700,note_on,22,0,1,,,,,,,,1,,,78,91
5722,note_on,82,0,4,,,,,,,,10,,,45,0
5734,note_on,34,0,1,,,,,,,,1,,,78,0
5744,note_on,44,0,5,,,,,,,,0,,,78,0
5760,note_on,16,0,5,,,,,,,,0,,,76,127
5760,note_on,38,0,4,,,,,,,,10,,,43,120
5760,note_on,194,0,2,,,,,,,,1,,,71,93
5760,note_on,127,0,3,,,,,,,,1,,,67,79
5760,note_on,64,0,6,,,,,,,,0,,,43,127
5760,note_on,26,0,1,,,,,,,,1,,,76,84
5793,note_on,33,0,1,,,,,,,,1,,,76,0
5805,note_on,45,0,5,,,,,,,,0,,,76,0
5806,note_on,46,0,6,,,,,,,,0,,,43,0
5815,note_on,55,0,2,,,,,,,,1,,,71,0
5820,note_on,15,0,5,,,,,,,,0,,,78,88
5820,note_on,27,0,1,,,,,,,,1,,,78,74
5823,note_on,63,0,4,,,,,,,,10,,,43,0
5864,note_on,44,0,5,,,,,,,,0,,,78,0
5864,note_on,44,0,1,,,,,,,,1,,,78,0
5873,note_on,113,0,3,,,,,,,,1,,,67,0
5880,note_on,74,0,6,,,,,,,,0,,,55,127
5880,note_on,16,0,5,,,,,,,,0,,,79,113
5880,note_on,57,0,4,,,,,,,,10,,,31,89
5880,note_on,16,0,1,,,,,,,,1,,,79,74
5917,note_on,37,0,1,,,,,,,,1,,,79,0
5922,note_on,42,0,5,,,,,,,,0,,,79,0
5940,note_on,18,0,5,,,,,,,,0,,,76,93
5940,note_on,23,0,1,,,,,,,,1,,,76,77
5973,note_on,33,0,1,,,,,,,,1,,,76,0
5977,note_on,37,0,5,,,,,,,,0,,,76,0
5988,control_change,108,0,4,,,,,,,,10,7,100,,
6000,note_on,23,0,5,,,,,,,,0,,,74,90
6000,note_on,127,0,3,,,,,,,,1,,,62,61
6000,note_on,27,0,1,,,,,,,,1,,,74,96
6000,note_on,185,0,2,,,,,,,,1,,,69,93
6025,control_change,37,0,4,,,,,,,,10,7,101,,
6035,note_on,35,0,1,,,,,,,,1,,,74,0
6045,note_on,45,0,5,,,,,,,,0,,,74,0
6051,note_on,171,0,6,,,,,,,,0,,,55,0
6054,note_on,54,0,2,,,,,,,,1,,,69,0
6060,note_on,25,0,1,,,,,,,,1,,,76,66
6060,note_on,15,0,5,,,,,,,,0,,,76,102
6090,note_on,30,0,1,,,,,,,,1,,,76,0
6104,note_on,44,0,5,,,,,,,,0,,,76,0
6113,note_on,113,0,3,,,,,,,,1,,,62,0
6114,note_on,89,0,4,,,,,,,,10,,,31,0
6120,note_on,30,0,1,,,,,,,,1,,,78,96
6120,note_on,16,0,5,,,,,,,,0,,,78,110
6120,note_on,6,0,4,,,,,,,,10,,,30,120
6120,note_on,69,0,6,,,,,,,,0,,,54,125
6156,note_on,36,0,1,,,,,,,,1,,,78,0
6157,note_on,37,0,5,,,,,,,,0,,,78,0
6177,note_on,57,0,6,,,,,,,,0,,,54,0
6180,note_on,24,0,1,,,,,,,,1,,,74,89
6180,note_on,23,0,5,,,,,,,,0,,,74,93
6215,note_on,95,0,4,,,,,,,,10,,,30,0
6216,note_on,36,0,1,,,,,,,,1,,,74,0
6224,note_on,44,0,5,,,,,,,,0,,,74,0
6234,control_change,19,0,4,,,,,,,,10,7,100,,
6240,note_on,186,0,2,,,,,,,,1,,,67,96
6240,note_on,16,0,5,,,,,,,,0,,,73,98
6240,note_on,127,0,3,,,,,,,,1,,,64,74
6240,note_on,6,0,4,,,,,,,,10,,,28,86
6240,note_on,63,0,6,,,,,,,,0,,,40,124
6240,note_on,24,0,1,,,,,,,,1,,,73,111
6255,control_change,15,0,4,,,,,,,,10,7,99,,
6276,note_on,36,0,1,,,,,,,,1,,,73,0
6280,note_on,40,0,5,,,,,,,,0,,,73,0
6286,note_on,46,0,6,,,,,,,,0,,,40,0
6299,note_on,59,0,2,,,,,,,,1,,,67,0
6300,note_on,24,0,1,,,,,,,,1,,,74,66
6300,note_on,20,0,5,,,,,,,,0,,,74,96
6320,note_on,65,0,4,,,,,,,,10,,,28,0
6339,note_on,39,0,1,,,,,,,,1,,,74,0
6340,note_on,40,0,5,,,,,,,,0,,,74,0
6353,note_on,113,0,3,,,,,,,,1,,,64,0
6360,note_on,20,0,5,,,,,,,,0,,,76,82
6360,note_on,21,0,1,,,,,,,,1,,,76,89
6360,note_on,74,0,6,,,,,,,,0,,,52,117
6360,note_on,40,0,4,,,,,,,,10,,,40,96
6375,control_change,15,0,1,,,,,,,,1,7,108,,
6390,control_change,15,0,1,,,,,,,,1,7,107,,
6393,note_on,33,0,5,,,,,,,,0,,,76,0
6395,note_on,5,0,1,,,,,,,,1,,,76,0
6420,note_on,25,0,1,,,,,,,,1,,,73,89
6420,note_on,27,0,5,,,,,,,,0,,,73,73
6447,note_on,27,0,1,,,,,,,,1,,,73,0
6456,note_on,36,0,5,,,,,,,,0,,,73,0
6480,note_on,33,0,1,,,,,,,,1,,,67,102
6480,note_on,181,0,2,,,,,,,,1,,,64,69
6480,note_on,24,0,5,,,,,,,,0,,,67,106
6480,note_on,127,0,3,,,,,,,,1,,,61,66
6514,note_on,34,0,1,,,,,,,,1,,,67,0
6522,note_on,42,0,5,,,,,,,,0,,,67,0
6537,note_on,57,0,2,,,,,,,,1,,,64,0
6540,note_on,26,0,1,,,,,,,,1,,,69,72
6540,note_on,18,0,5,,,,,,,,0,,,69,102
6548,note_on,68,0,3,,,,,,,,1,,,61,0
6549,note_on,189,0,6,,,,,,,,0,,,52,0
6577,note_on,37,0,1,,,,,,,,1,,,69,0
6584,note_on,44,0,5,,,,,,,,0,,,69,0
6588,note_on,228,0,4,,,,,,,,10,,,40,0
6600,note_on,12,0,4,,,,,,,,10,,,38,89
6600,note_on,63,0,2,,,,,,,,1,,,66,64
6600,note_on,51,0,6,,,,,,,,0,,,50,111
6600,note_on,23,0,1,,,,,,,,1,,,71,89
6600,note_on,16,0,5,,,,,,,,0,,,71,96
6600,note_on,52,0,3,,,,,,,,1,,,62,58
6636,note_on,36,0,5,,,,,,,,0,,,71,0
6641,control_change,41,0,4,,,,,,,,10,7,97,,
6641,note_on,41,0,1,,,,,,,,1,,,71,0
6652,note_on,52,0,2,,,,,,,,1,,,66,0
6660,note_on,24,0,5,,,,,,,,0,,,67,98
6660,note_on,19,0,1,,,,,,,,1,,,67,79
6661,note_on,61,0,6,,,,,,,,0,,,50,0
6661,control_change,20,0,4,,,,,,,,10,7,96,,
6666,note_on,66,0,3,,,,,,,,1,,,62,0
6688,control_change,27,0,4,,,,,,,,10,7,94,,
6690,note_on,30,0,1,,,,,,,,1,,,67,0
6699,note_on,39,0,5,,,,,,,,0,,,67,0
6704,note_on,16,0,4,,,,,,,,10,,,38,0
6720,note_on,68,0,2,,,,,,,,1,,,67,77
6720,note_on,30,0,1,,,,,,,,1,,,64,74
6720,note_on,59,0,6,,,,,,,,0,,,49,123
6720,note_on,21,0,5,,,,,,,,0,,,64,127
6720,note_on,16,0,4,,,,,,,,10,,,37,89
6720,note_on,54,0,3,,,,,,,,1,,,64,79
6720,control_change,0,0,4,,,,,,,,10,7,93,,
6753,note_on,33,0,1,,,,,,,,1,,,64,0
6758,note_on,38,0,5,,,,,,,,0,,,64,0
6769,note_on,49,0,2,,,,,,,,1,,,67,0
6780,note_on,27,0,1,,,,,,,,1,,,66,74
6780,note_on,60,0,6,,,,,,,,0,,,49,0
6780,note_on,22,0,5,,,,,,,,0,,,66,96
6781,note_on,61,0,3,,,,,,,,1,,,64,0
6817,note_on,37,0,1,,,,,,,,1,,,66,0
6826,note_on,46,0,5,,,,,,,,0,,,66,0
6840,note_on,14,0,5,,,,,,,,0,,,67,102
6840,note_on,23,0,1,,,,,,,,1,,,67,77
6840,note_on,71,0,2,,,,,,,,1,,,64,74
6840,note_on,59,0,3,,,,,,,,1,,,61,77
6840,note_on,60,0,6,,,,,,,,0,,,52,93
6873,note_on,33,0,3,,,,,,,,1,,,61,0
6875,note_on,35,0,1,,,,,,,,1,,,67,0
6879,note_on,39,0,2,,,,,,,,1,,,64,0
6889,note_on,49,0,5,,,,,,,,0,,,67,0
6900,note_on,25,0,1,,,,,,,,1,,,64,86
6900,note_on,27,0,3,,,,,,,,1,,,62,66
6900,note_on,21,0,2,,,,,,,,1,,,66,77
6900,note_on,11,0,5,,,,,,,,0,,,64,90
6913,note_on,73,0,6,,,,,,,,0,,,52,0
6930,note_on,30,0,1,,,,,,,,1,,,64,0
6938,note_on,38,0,5,,,,,,,,0,,,64,0
6938,note_on,38,0,3,,,,,,,,1,,,62,0
6939,note_on,39,0,2,,,,,,,,1,,,66,0
6960,note_on,22,0,5,,,,,,,,0,,,61,110
6960,note_on,22,0,3,,,,,,,,1,,,64,66
6960,note_on,30,0,1,,,,,,,,1,,,61,105
6960,note_on,47,0,6,,,,,,,,0,,,57,84
6960,note_on,21,0,2,,,,,,,,1,,,67,77
6994,note_on,34,0,1,,,,,,,,1,,,61,0
6999,note_on,39,0,5,,,,,,,,0,,,61,0
7015,note_on,55,0,3,,,,,,,,1,,,64,0
7020,note_on,26,0,1,,,,,,,,1,,,62,66
7020,note_on,21,0,5,,,,,,,,0,,,62,96
7022,note_on,62,0,2,,,,,,,,1,,,67,0
7029,note_on,69,0,6,,,,,,,,0,,,57,0
7055,note_on,35,0,1,,,,,,,,1,,,62,0
7064,note_on,44,0,5,,,,,,,,0,,,62,0
7080,note_on,65,0,3,,,,,,,,1,,,61,58
7080,note_on,16,0,5,,,,,,,,0,,,64,85
7080,note_on,51,0,6,,,,,,,,0,,,52,89
7080,note_on,25,0,1,,,,,,,,1,,,64,81
7080,note_on,58,0,2,,,,,,,,1,,,64,79
7114,note_on,34,0,1,,,,,,,,1,,,64,0
7118,note_on,38,0,6,,,,,,,,0,,,52,0
7119,note_on,39,0,5,,,,,,,,0,,,64,0
7119,note_on,39,0,3,,,,,,,,1,,,61,0
7123,note_on,43,0,2,,,,,,,,1,,,64,0
7140,note_on,21,0,3,,,,,,,,1,,,62,64
7140,note_on,26,0,1,,,,,,,,1,,,61,64
7140,note_on,17,0,2,,,,,,,,1,,,66,77
7140,note_on,21,0,5,,,,,,,,0,,,61,110
7165,note_on,25,0,1,,,,,,,,1,,,61,0
7173,note_on,33,0,5,,,,,,,,0,,,61,0
7182,note_on,42,0,2,,,,,,,,1,,,66,0
7187,note_on,47,0,3,,,,,,,,1,,,62,0
7200,note_on,82,0,6,,,,,,,,0,,,49,127
7200,note_on,27,0,5,,,,,,,,0,,,57,110
7200,note_on,13,0,3,,,,,,,,1,,,64,69
7200,note_on,18,0,2,,,,,,,,1,,,67,66
7200,note_on,35,0,1,,,,,,,,1,,,57,127
7248,note_on,528,0,4,,,,,,,,10,,,37,0
7254,note_on,54,0,6,,,,,,,,0,,,49,0
7260,note_on,12,0,4,,,,,,,,10,,,38,80
7260,note_on,6,0,6,,,,,,,,0,,,50,74
7279,note_on,19,0,6,,,,,,,,0,,,50,0
7308,note_on,48,0,4,,,,,,,,10,,,38,0
7313,note_on,113,0,3,,,,,,,,1,,,64,0
7313,note_on,113,0,2,,,,,,,,1,,,67,0
7313,note_on,113,0,1,,,,,,,,1,,,57,0
7320,note_on,41,0,6,,,,,,,,0,,,52,91
7320,note_on,12,0,4,,,,,,,,10,,,40,80
7343,note_on,143,0,5,,,,,,,,0,,,57,0
7349,note_on,29,0,6,,,,,,,,0,,,52,0
7368,note_on,48,0,4,,,,,,,,10,,,40,0
7380,note_on,31,0,6,,,,,,,,0,,,49,127
7380,note_on,12,0,4,,,,,,,,10,,,37,80
7392,note_on,12,0,6,,,,,,,,0,,,49,0
7428,note_on,48,0,4,,,,,,,,10,,,37,0
7440,note_on,48,0,6,,,,,,,,0,,,45,89
7440,note_on,12,0,4,,,,,,,,10,,,33,80
7479,note_on,39,0,6,,,,,,,,0,,,45,0
7500,note_on,21,0,6,,,,,,,,0,,,47,86
7535,note_on,35,0,6,,,,,,,,0,,,47,0
7536,note_on,96,0,4,,,,,,,,10,,,33,0
7560,note_on,25,0,6,,,,,,,,0,,,49,117
7560,note_on,247,0,3,,,,,,,,1,,,69,64
7560,note_on,24,0,4,,,,,,,,10,,,37,80
7560,note_on,247,0,1,,,,,,,,1,,,76,96
7560,note_on,247,0,2,,,,,,,,1,,,76,64
7560,note_on,217,0,5,,,,,,,,0,,,76,110
7589,note_on,29,0,6,,,,,,,,0,,,49,0
7620,note_on,60,0,1,,,,,,,,1,,,78,72
7620,note_on,31,0,6,,,,,,,,0,,,45,72
7620,note_on,60,0,5,,,,,,,,0,,,78,88
7620,note_on,60,0,3,,,,,,,,1,,,69,0
7624,note_on,4,0,5,,,,,,,,0,,,76,0
7626,note_on,6,0,1,,,,,,,,1,,,76,0
7631,note_on,71,0,2,,,,,,,,1,,,76,0
7637,note_on,13,0,5,,,,,,,,0,,,78,0
7647,note_on,21,0,1,,,,,,,,1,,,78,0
7650,note_on,13,0,5,,,,,,,,0,,,79,96
7650,note_on,3,0,1,,,,,,,,1,,,79,111
7651,note_on,31,0,6,,,,,,,,0,,,45,0
7656,note_on,96,0,4,,,,,,,,10,,,37,0
7679,note_on,29,0,1,,,,,,,,1,,,79,0
7680,note_on,49,0,2,,,,,,,,1,,,74,66
7680,note_on,30,0,5,,,,,,,,0,,,78,93
7680,note_on,29,0,6,,,,,,,,0,,,50,77
7680,note_on,1,0,1,,,,,,,,1,,,78,80
7680,note_on,60,0,3,,,,,,,,1,,,69,81
7680,note_on,24,0,4,,,,,,,,10,,,38,79
7682,note_on,2,0,5,,,,,,,,0,,,79,0
7744,note_on,64,0,6,,,,,,,,0,,,50,0
7747,note_on,67,0,2,,,,,,,,1,,,74,0
7759,note_on,79,0,3,,,,,,,,1,,,69,0
7776,note_on,96,0,1,,,,,,,,1,,,78,0
7785,note_on,105,0,4,,,,,,,,10,,,38,0
7794,note_on,112,0,5,,,,,,,,0,,,78,0
7800,note_on,15,0,4,,,,,,,,10,,,42,93
7800,note_on,53,0,2,,,,,,,,1,,,69,64
7800,note_on,56,0,6,,,,,,,,0,,,54,84
7800,note_on,41,0,3,,,,,,,,1,,,67,81
7800,note_on,6,0,5,,,,,,,,0,,,76,117
7838,note_on,38,0,5,,,,,,,,0,,,76,0
7842,note_on,42,0,3,,,,,,,,1,,,67,0
7860,note_on,22,0,5,,,,,,,,0,,,74,96
7860,note_on,18,0,3,,,,,,,,1,,,66,64
7862,note_on,62,0,2,,,,,,,,1,,,69,0
7874,note_on,74,0,6,,,,,,,,0,,,54,0
7891,note_on,115,0,1,,,,,,,,1,,,76,117
7896,note_on,36,0,5,,,,,,,,0,,,74,0
7903,note_on,43,0,3,,,,,,,,1,,,66,0
7904,note_on,104,0,4,,,,,,,,10,,,42,0
7920,note_on,17,0,3,,,,,,,,1,,,64,79
7920,note_on,24,0,5,,,,,,,,0,,,76,127
7920,note_on,46,0,6,,,,,,,,0,,,55,84
7920,note_on,58,0,2,,,,,,,,1,,,71,66
7920,note_on,16,0,4,,,,,,,,10,,,43,79
7923,note_on,32,0,1,,,,,,,,1,,,76,0
7951,note_on,28,0,1,,,,,,,,1,,,74,89
7981,note_on,30,0,1,,,,,,,,1,,,74,0
7982,note_on,62,0,2,,,,,,,,1,,,71,0
7989,note_on,69,0,3,,,,,,,,1,,,64,0
7991,note_on,71,0,5,,,,,,,,0,,,76,0
7993,note_on,73,0,6,,,,,,,,0,,,55,0
8011,note_on,30,0,1,,,,,,,,1,,,76,105
8022,note_on,102,0,4,,,,,,,,10,,,43,0
8040,note_on,18,0,4,,,,,,,,10,,,45,102
8040,note_on,49,0,5,,,,,,,,0,,,74,93
8040,note_on,47,0,6,,,,,,,,0,,,57,108
8040,note_on,58,0,2,,,,,,,,1,,,69,66
8040,note_on,51,0,3,,,,,,,,1,,,67,84
8065,note_on,54,0,1,,,,,,,,1,,,76,0
8090,note_on,50,0,5,,,,,,,,0,,,74,0
8096,note_on,56,0,2,,,,,,,,1,,,69,0
8100,note_on,10,0,5,,,,,,,,0,,,73,88
8100,note_on,60,0,3,,,,,,,,1,,,67,0
8112,note_on,72,0,6,,,,,,,,0,,,57,0
8131,note_on,66,0,1,,,,,,,,1,,,74,114
8134,note_on,94,0,4,,,,,,,,10,,,45,0
8140,note_on,40,0,5,,,,,,,,0,,,73,0
8160,note_on,64,0,2,,,,,,,,1,,,62,58
8160,note_on,20,0,5,,,,,,,,0,,,74,88
8160,note_on,26,0,4,,,,,,,,10,,,47,89
8160,note_on,48,0,6,,,,,,,,0,,,59,108
8160,note_on,60,0,3,,,,,,,,1,,,66,84
8162,note_on,31,0,1,,,,,,,,1,,,74,0
8191,note_on,29,0,1,,,,,,,,1,,,73,84
8210,note_on,50,0,5,,,,,,,,0,,,74,0
8212,note_on,52,0,2,,,,,,,,1,,,62,0
8213,control_change,53,0,4,,,,,,,,10,7,97,,
8213,note_on,53,0,3,,,,,,,,1,,,66,0
8215,note_on,55,0,6,,,,,,,,0,,,59,0
8225,note_on,34,0,1,,,,,,,,1,,,73,0
8227,control_change,14,0,4,,,,,,,,10,7,98,,
8236,control_change,9,0,4,,,,,,,,10,7,100,,
8244,control_change,8,0,4,,,,,,,,10,7,101,,
8251,note_on,26,0,1,,,,,,,,1,,,74,89
8267,note_on,23,0,4,,,,,,,,10,,,47,0
8280,note_on,70,0,5,,,,,,,,0,,,69,127
8280,note_on,68,0,2,,,,,,,,1,,,69,64
8280,note_on,13,0,4,,,,,,,,10,,,42,127
8280,note_on,67,0,3,,,,,,,,1,,,66,72
8280,note_on,65,0,6,,,,,,,,0,,,42,126
8316,note_on,36,0,4,,,,,,,,10,,,42,0
8317,note_on,37,0,6,,,,,,,,0,,,42,0
8322,note_on,71,0,1,,,,,,,,1,,,74,0
8324,note_on,44,0,5,,,,,,,,0,,,69,0
8340,note_on,16,0,5,,,,,,,,0,,,57,85
8340,note_on,24,0,4,,,,,,,,10,,,42,127
8340,note_on,23,0,6,,,,,,,,0,,,54,111
8371,note_on,49,0,1,,,,,,,,1,,,69,96
8371,note_on,31,0,6,,,,,,,,0,,,54,0
8382,note_on,42,0,5,,,,,,,,0,,,57,0
8391,note_on,51,0,4,,,,,,,,10,,,42,0
8400,note_on,9,0,4,,,,,,,,10,,,43,117
8400,note_on,18,0,5,,,,,,,,0,,,71,88
8400,note_on,29,0,1,,,,,,,,1,,,69,0
8400,note_on,29,0,6,,,,,,,,0,,,43,105
8431,note_on,31,0,1,,,,,,,,1,,,69,89
8436,note_on,36,0,6,,,,,,,,0,,,43,0
8442,note_on,42,0,4,,,,,,,,10,,,43,0
8446,note_on,166,0,3,,,,,,,,1,,,66,0
8447,control_change,5,0,4,,,,,,,,10,7,103,,
8453,note_on,53,0,5,,,,,,,,0,,,71,0
8460,note_on,7,0,5,,,,,,,,0,,,59,73
8460,note_on,24,0,6,,,,,,,,0,,,55,86
8460,note_on,13,0,4,,,,,,,,10,,,43,102
8465,note_on,34,0,1,,,,,,,,1,,,69,0
8476,control_change,16,0,4,,,,,,,,10,7,104,,
8484,note_on,204,0,2,,,,,,,,1,,,69,0
8489,note_on,29,0,5,,,,,,,,0,,,59,0
8491,note_on,26,0,1,,,,,,,,1,,,71,102
8492,note_on,32,0,6,,,,,,,,0,,,55,0
8506,note_on,30,0,4,,,,,,,,10,,,43,0
8518,note_on,27,0,1,,,,,,,,1,,,71,0
8520,note_on,31,0,5,,,,,,,,0,,,73,96
8520,note_on,14,0,4,,,,,,,,10,,,45,96
8520,note_on,74,0,3,,,,,,,,1,,,64,64
8520,note_on,36,0,2,,,,,,,,1,,,67,55
8520,note_on,28,0,6,,,,,,,,0,,,45,64
8551,note_on,33,0,1,,,,,,,,1,,,71,81
8557,note_on,37,0,6,,,,,,,,0,,,45,0
8558,note_on,38,0,4,,,,,,,,10,,,45,0
8559,note_on,39,0,5,,,,,,,,0,,,73,0
8580,note_on,22,0,4,,,,,,,,10,,,45,99
8580,note_on,23,0,6,,,,,,,,0,,,57,89
8580,note_on,21,0,5,,,,,,,,0,,,61,70
8584,note_on,33,0,1,,,,,,,,1,,,71,0
8588,control_change,8,0,4,,,,,,,,10,7,106,,
8597,note_on,77,0,3,,,,,,,,1,,,64,0
8611,note_on,31,0,6,,,,,,,,0,,,57,0
8611,note_on,27,0,1,,,,,,,,1,,,73,84
8613,note_on,33,0,5,,,,,,,,0,,,61,0
8615,note_on,95,0,2,,,,,,,,1,,,67,0
8621,note_on,33,0,4,,,,,,,,10,,,45,0
8640,note_on,19,0,4,,,,,,,,10,,,47,84
8640,note_on,43,0,3,,,,,,,,1,,,62,69
8640,note_on,29,0,1,,,,,,,,1,,,74,86
8640,note_on,27,0,5,,,,,,,,0,,,74,124
8640,note_on,25,0,2,,,,,,,,1,,,66,84
8640,note_on,29,0,6,,,,,,,,0,,,47,86
8641,note_on,1,0,1,,,,,,,,1,,,73,0
8668,note_on,27,0,1,,,,,,,,1,,,74,0
8675,note_on,35,0,6,,,,,,,,0,,,47,0
8679,note_on,39,0,4,,,,,,,,10,,,47,0
8688,note_on,48,0,5,,,,,,,,0,,,74,0
8700,note_on,25,0,6,,,,,,,,0,,,59,77
8700,note_on,32,0,1,,,,,,,,1,,,74,96
8700,note_on,12,0,5,,,,,,,,0,,,62,96
8700,note_on,21,0,4,,,,,,,,10,,,47,79
8703,note_on,63,0,2,,,,,,,,1,,,66,0
8706,note_on,66,0,3,,,,,,,,1,,,62,0
8718,note_on,18,0,6,,,,,,,,0,,,59,0
8728,note_on,28,0,5,,,,,,,,0,,,62,0
8732,note_on,32,0,1,,,,,,,,1,,,74,0
8745,note_on,45,0,4,,,,,,,,10,,,47,0
8760,note_on,15,0,4,,,,,,,,10,,,42,127
8760,note_on,57,0,2,,,,,,,,1,,,69,43
8760,note_on,32,0,5,,,,,,,,0,,,69,96
8760,note_on,54,0,3,,,,,,,,1,,,66,66
8760,note_on,42,0,6,,,,,,,,0,,,42,126
8760,note_on,28,0,1,,,,,,,,1,,,69,124
8788,note_on,28,0,1,,,,,,,,1,,,69,0
8797,note_on,37,0,6,,,,,,,,0,,,42,0
8799,note_on,39,0,4,,,,,,,,10,,,42,0
8802,note_on,42,0,5,,,,,,,,0,,,69,0
8820,note_on,32,0,1,,,,,,,,1,,,69,93
8820,note_on,18,0,5,,,,,,,,0,,,57,82
8820,note_on,23,0,6,,,,,,,,0,,,54,86
8820,note_on,21,0,4,,,,,,,,10,,,42,93
8853,note_on,33,0,6,,,,,,,,0,,,54,0
8855,note_on,35,0,1,,,,,,,,1,,,69,0
8862,note_on,42,0,5,,,,,,,,0,,,57,0
8866,note_on,46,0,4,,,,,,,,10,,,42,0
8880,note_on,14,0,4,,,,,,,,10,,,43,108
8880,note_on,27,0,6,,,,,,,,0,,,43,108
8880,note_on,18,0,5,,,,,,,,0,,,71,102
8880,note_on,25,0,1,,,,,,,,1,,,71,117
8912,note_on,32,0,1,,,,,,,,1,,,71,0
8916,note_on,36,0,6,,,,,,,,0,,,43,0
8919,note_on,39,0,4,,,,,,,,10,,,43,0
8928,note_on,48,0,5,,,,,,,,0,,,71,0
8940,note_on,21,0,4,,,,,,,,10,,,43,79
8940,note_on,28,0,1,,,,,,,,1,,,71,96
8940,note_on,12,0,5,,,,,,,,0,,,59,90
8940,note_on,24,0,6,,,,,,,,0,,,55,74
8970,note_on,30,0,5,,,,,,,,0,,,59,0
8972,note_on,212,0,3,,,,,,,,1,,,66,0
8977,note_on,37,0,6,,,,,,,,0,,,55,0
8980,note_on,40,0,1,,,,,,,,1,,,71,0
8985,note_on,45,0,4,,,,,,,,10,,,43,0
8988,note_on,228,0,2,,,,,,,,1,,,69,0
8991,control_change,6,0,4,,,,,,,,10,7,107,,
9000,note_on,20,0,1,,,,,,,,1,,,73,127
9000,note_on,23,0,6,,,,,,,,0,,,45,74
9000,note_on,9,0,4,,,,,,,,10,,,45,84
9000,note_on,12,0,2,,,,,,,,1,,,67,61
9000,note_on,30,0,5,,,,,,,,0,,,73,98
9000,note_on,28,0,3,,,,,,,,1,,,64,58
9031,note_on,31,0,1,,,,,,,,1,,,73,0
9036,note_on,36,0,4,,,,,,,,10,,,45,0
9040,control_change,4,0,4,,,,,,,,10,7,109,,
9042,note_on,42,0,5,,,,,,,,0,,,73,0
9044,note_on,44,0,6,,,,,,,,0,,,45,0
9060,note_on,18,0,5,,,,,,,,0,,,61,70
9060,note_on,20,0,4,,,,,,,,10,,,45,108
9060,note_on,16,0,6,,,,,,,,0,,,57,81
9060,note_on,29,0,1,,,,,,,,1,,,73,111
9083,note_on,83,0,2,,,,,,,,1,,,67,0
9091,note_on,31,0,5,,,,,,,,0,,,61,0
9095,note_on,35,0,6,,,,,,,,0,,,57,0
9097,note_on,97,0,3,,,,,,,,1,,,64,0
9100,note_on,40,0,4,,,,,,,,10,,,45,0
9102,note_on,42,0,1,,,,,,,,1,,,73,0
9120,note_on,25,0,6,,,,,,,,0,,,47,79
9120,note_on,37,0,2,,,,,,,,1,,,66,51
9120,note_on,23,0,3,,,,,,,,1,,,62,64
9120,note_on,20,0,4,,,,,,,,10,,,47,96
9120,note_on,29,0,5,,,,,,,,0,,,74,90
9120,note_on,18,0,1,,,,,,,,1,,,74,124
9156,note_on,36,0,4,,,,,,,,10,,,47,0
9158,note_on,38,0,6,,,,,,,,0,,,47,0
9163,note_on,43,0,1,,,,,,,,1,,,74,0
9168,note_on,48,0,5,,,,,,,,0,,,74,0
9180,note_on,12,0,5,,,,,,,,0,,,76,102
9180,note_on,17,0,1,,,,,,,,1,,,76,86
9180,note_on,24,0,4,,,,,,,,10,,,47,79
9180,note_on,22,0,6,,,,,,,,0,,,59,69
9199,note_on,79,0,2,,,,,,,,1,,,66,0
9208,note_on,88,0,3,,,,,,,,1,,,62,0
9209,note_on,29,0,6,,,,,,,,0,,,59,0
9212,note_on,32,0,5,,,,,,,,0,,,76,0
9215,note_on,35,0,1,,,,,,,,1,,,76,0
9225,note_on,45,0,4,,,,,,,,10,,,47,0
9232,control_change,7,0,4,,,,,,,,10,7,108,,
9240,note_on,8,0,4,,,,,,,,10,,,45,102
9240,note_on,31,0,6,,,,,,,,0,,,45,102
9240,note_on,25,0,1,,,,,,,,1,,,78,117
9240,note_on,41,0,2,,,,,,,,1,,,73,96
9240,note_on,28,0,5,,,,,,,,0,,,78,82
9240,note_on,32,0,3,,,,,,,,1,,,69,89
9241,control_change,1,0,4,,,,,,,,10,7,106,,
9250,control_change,9,0,4,,,,,,,,10,7,105,,
9259,control_change,9,0,4,,,,,,,,10,7,102,,
9263,control_change,23,0,1,,,,,,,,1,7,110,,
9267,control_change,8,0,4,,,,,,,,10,7,100,,
9271,note_on,31,0,2,,,,,,,,1,,,73,0
9275,note_on,35,0,3,,,,,,,,1,,,69,0
9278,note_on,38,0,6,,,,,,,,0,,,45,0
9280,note_on,13,0,4,,,,,,,,10,,,45,0
9285,note_on,22,0,1,,,,,,,,1,,,78,0
9291,note_on,51,0,5,,,,,,,,0,,,78,0
9300,note_on,22,0,6,,,,,,,,0,,,57,84
9300,note_on,25,0,3,,,,,,,,1,,,69,84
9300,note_on,20,0,4,,,,,,,,10,,,45,93
9300,note_on,9,0,5,,,,,,,,0,,,74,113
9300,note_on,15,0,1,,,,,,,,1,,,74,120
9300,note_on,29,0,2,,,,,,,,1,,,73,86
9331,note_on,31,0,6,,,,,,,,0,,,57,0
9338,note_on,38,0,2,,,,,,,,1,,,73,0
9343,note_on,43,0,3,,,,,,,,1,,,69,0
9344,note_on,44,0,5,,,,,,,,0,,,74,0
9346,note_on,46,0,1,,,,,,,,1,,,74,0
9349,note_on,49,0,4,,,,,,,,10,,,45,0
9360,note_on,29,0,6,,,,,,,,0,,,47,96
9360,note_on,16,0,5,,,,,,,,0,,,79,96
9360,note_on,17,0,3,,,,,,,,1,,,62,102
9360,note_on,22,0,2,,,,,,,,1,,,74,89
9360,note_on,14,0,1,,,,,,,,1,,,79,102
9360,note_on,11,0,4,,,,,,,,10,,,47,96
9371,control_change,11,0,4,,,,,,,,10,7,101,,
9391,control_change,20,0,4,,,,,,,,10,7,103,,
9392,note_on,1,0,4,,,,,,,,10,,,47,0
9395,note_on,35,0,2,,,,,,,,1,,,74,0
9399,note_on,39,0,3,,,,,,,,1,,,62,0
9400,note_on,40,0,6,,,,,,,,0,,,47,0
9401,control_change,9,0,4,,,,,,,,10,7,104,,
9404,note_on,44,0,1,,,,,,,,1,,,79,0
9406,note_on,46,0,5,,,,,,,,0,,,79,0
9420,note_on,25,0,2,,,,,,,,1,,,74,96
9420,note_on,21,0,3,,,,,,,,1,,,62,102
9420,note_on,20,0,6,,,,,,,,0,,,59,84
9420,note_on,14,0,5,,,,,,,,0,,,76,113
9420,note_on,16,0,1,,,,,,,,1,,,76,77
9420,note_on,19,0,4,,,,,,,,10,,,47,96
9425,control_change,5,0,4,,,,,,,,10,7,106,,
9451,note_on,31,0,6,,,,,,,,0,,,59,0
9459,note_on,39,0,2,,,,,,,,1,,,74,0
9461,note_on,41,0,1,,,,,,,,1,,,76,0
9462,note_on,42,0,3,,,,,,,,1,,,62,0
9464,note_on,44,0,5,,,,,,,,0,,,76,0
9465,note_on,40,0,4,,,,,,,,10,,,47,0
9480,note_on,19,0,1,,,,,,,,1,,,81,89
9480,note_on,21,0,2,,,,,,,,1,,,76,108
9480,note_on,29,0,6,,,,,,,,0,,,49,99
9480,note_on,15,0,4,,,,,,,,10,,,49,120
9480,note_on,16,0,5,,,,,,,,0,,,81,102
9480,note_on,18,0,3,,,,,,,,1,,,57,84
9512,note_on,32,0,2,,,,,,,,1,,,76,0
9518,note_on,38,0,6,,,,,,,,0,,,49,0
9521,note_on,41,0,3,,,,,,,,1,,,57,0
9523,note_on,43,0,4,,,,,,,,10,,,49,0
9540,note_on,22,0,6,,,,,,,,0,,,61,72
9540,note_on,28,0,2,,,,,,,,1,,,76,89
9540,note_on,17,0,4,,,,,,,,10,,,49,89
9540,note_on,19,0,3,,,,,,,,1,,,57,96
9559,note_on,19,0,6,,,,,,,,0,,,61,0
9559,note_on,79,0,1,,,,,,,,1,,,81,0
9576,note_on,36,0,2,,,,,,,,1,,,76,0
9583,note_on,43,0,3,,,,,,,,1,,,57,0
9587,note_on,107,0,5,,,,,,,,0,,,81,0
9595,note_on,55,0,4,,,,,,,,10,,,49,0
9600,note_on,5,0,4,,,,,,,,10,,,50,89
9600,note_on,24,0,2,,,,,,,,1,,,69,64
9600,note_on,41,0,6,,,,,,,,0,,,50,111
9600,note_on,13,0,5,,,,,,,,0,,,78,70
9600,note_on,41,0,1,,,,,,,,1,,,78,64
9600,note_on,17,0,3,,,,,,,,1,,,62,72
9605,control_change,5,0,4,,,,,,,,10,7,107,,
9621,note_on,21,0,1,,,,,,,,1,,,78,0
9622,control_change,17,0,4,,,,,,,,10,7,109,,
9627,note_on,27,0,5,,,,,,,,0,,,78,0
9630,note_on,9,0,1,,,,,,,,1,,,79,86
9630,note_on,3,0,5,,,,,,,,0,,,79,90
9646,note_on,16,0,5,,,,,,,,0,,,79,0
9653,note_on,23,0,1,,,,,,,,1,,,79,0
9660,note_on,14,0,5,,,,,,,,0,,,78,85
9660,note_on,7,0,1,,,,,,,,1,,,78,74
9672,note_on,72,0,6,,,,,,,,0,,,50,0
9674,note_on,74,0,2,,,,,,,,1,,,69,0
9679,note_on,79,0,3,,,,,,,,1,,,62,0
9693,note_on,33,0,5,,,,,,,,0,,,78,0
9701,note_on,79,0,4,,,,,,,,10,,,50,0
9712,note_on,52,0,1,,,,,,,,1,,,78,0
9720,note_on,19,0,4,,,,,,,,10,,,47,93
9720,note_on,41,0,3,,,,,,,,1,,,66,64
9720,note_on,8,0,1,,,,,,,,1,,,76,120
9720,note_on,48,0,6,,,,,,,,0,,,47,77
9720,note_on,46,0,2,,,,,,,,1,,,71,61
9720,note_on,27,0,5,,,,,,,,0,,,76,96
9762,note_on,42,0,1,,,,,,,,1,,,76,0
9772,note_on,52,0,5,,,,,,,,0,,,76,0
9779,control_change,59,0,4,,,,,,,,10,7,108,,
9780,note_on,18,0,1,,,,,,,,1,,,74,74
9780,note_on,8,0,5,,,,,,,,0,,,74,102
9793,note_on,73,0,6,,,,,,,,0,,,47,0
9811,note_on,91,0,3,,,,,,,,1,,,66,0
9815,note_on,36,0,4,,,,,,,,10,,,47,0
9820,note_on,40,0,5,,,,,,,,0,,,74,0
9822,note_on,42,0,1,,,,,,,,1,,,74,0
9822,note_on,102,0,2,,,,,,,,1,,,71,0
9825,aftertouch,3,0,1,,,,,,,,1,,25,,
9834,aftertouch,9,0,1,,,,,,,,1,,0,,
9837,aftertouch,3,0,1,,,,,,,,1,,12,,
9840,note_on,3,0,1,,,,,,,,1,,,78,127
9840,note_on,47,0,6,,,,,,,,0,,,43,108
9840,note_on,25,0,4,,,,,,,,10,,,43,84
9840,note_on,20,0,5,,,,,,,,0,,,78,127
9840,note_on,29,0,3,,,,,,,,1,,,67,84
9840,note_on,18,0,2,,,,,,,,1,,,71,55
9847,aftertouch,7,0,1,,,,,,,,1,,0,,
9849,aftertouch,2,0,1,,,,,,,,1,,6,,
9849,aftertouch,0,0,5,,,,,,,,0,,6,,
9849,aftertouch,9,0,5,,,,,,,,0,,6,,
9849,aftertouch,9,0,3,,,,,,,,1,,6,,
9849,aftertouch,0,0,4,,,,,,,,10,,6,,
9849,aftertouch,9,0,2,,,,,,,,1,,6,,
9849,aftertouch,9,0,6,,,,,,,,0,,6,,
9849,control_change,9,0,4,,,,,,,,10,7,106,,
9859,aftertouch,10,0,1,,,,,,,,1,,0,,
9860,aftertouch,0,0,5,,,,,,,,0,,3,,
9860,aftertouch,11,0,5,,,,,,,,0,,3,,
9861,aftertouch,12,0,2,,,,,,,,1,,3,,
9861,aftertouch,2,0,1,,,,,,,,1,,3,,
9861,aftertouch,12,0,3,,,,,,,,1,,3,,
9861,aftertouch,12,0,4,,,,,,,,10,,3,,
9861,aftertouch,12,0,6,,,,,,,,0,,3,,
9870,aftertouch,9,0,1,,,,,,,,1,,0,,
9880,note_on,20,0,5,,,,,,,,0,,,78,0
9889,note_on,19,0,1,,,,,,,,1,,,78,0
9895,control_change,34,0,4,,,,,,,,10,7,105,,
9900,note_on,11,0,1,,,,,,,,1,,,76,77
9900,note_on,20,0,5,,,,,,,,0,,,76,79
9921,note_on,60,0,6,,,,,,,,0,,,43,0
9924,note_on,63,0,3,,,,,,,,1,,,67,0
9933,note_on,72,0,2,,,,,,,,1,,,71,0
9938,note_on,43,0,4,,,,,,,,10,,,43,0
9947,note_on,47,0,1,,,,,,,,1,,,76,0
9948,note_on,48,0,5,,,,,,,,0,,,76,0
9960,note_on,12,0,5,,,,,,,,0,,,74,102
9960,note_on,27,0,2,,,,,,,,1,,,69,48
9960,note_on,36,0,3,,,,,,,,1,,,64,58
9960,note_on,39,0,6,,,,,,,,0,,,45,74
9960,note_on,22,0,4,,,,,,,,10,,,45,89
9960,note_on,13,0,1,,,,,,,,1,,,74,96
9994,note_on,34,0,1,,,,,,,,1,,,74,0
10000,note_on,40,0,5,,,,,,,,0,,,74,0
10020,note_on,20,0,5,,,,,,,,0,,,73,75
10020,note_on,26,0,1,,,,,,,,1,,,73,69
10029,note_on,69,0,6,,,,,,,,0,,,45,0
10047,note_on,87,0,2,,,,,,,,1,,,69,0
10056,note_on,96,0,3,,,,,,,,1,,,64,0
10058,note_on,38,0,5,,,,,,,,0,,,73,0
10064,note_on,44,0,1,,,,,,,,1,,,73,0
10066,note_on,106,0,4,,,,,,,,10,,,45,0
10080,note_on,33,0,2,,,,,,,,1,,,69,26
10080,note_on,16,0,1,,,,,,,,1,,,74,127
10080,note_on,22,0,5,,,,,,,,0,,,74,127
10080,note_on,14,0,4,,,,,,,,10,,,38,111
10080,note_on,24,0,3,,,,,,,,1,,,66,55
10080,note_on,51,0,6,,,,,,,,0,,,38,124
10139,note_on,59,0,5,,,,,,,,0,,,74,0
10140,note_on,1,0,5,,,,,,,,0,,,73,75
10167,note_on,27,0,5,,,,,,,,0,,,73,0
10170,note_on,3,0,5,,,,,,,,0,,,71,96
10174,note_on,94,0,1,,,,,,,,1,,,74,0
10190,control_change,16,0,1,,,,,,,,1,7,108,,
10194,note_on,24,0,5,,,,,,,,0,,,71,0
10200,note_on,6,0,5,,,,,,,,0,,,69,90
10200,control_change,120,0,4,,,,,,,,10,7,103,,
10207,note_on,127,0,6,,,,,,,,0,,,38,0
10213,note_on,13,0,5,,,,,,,,0,,,69,0
10219,note_on,139,0,3,,,,,,,,1,,,66,0
10219,note_on,139,0,2,,,,,,,,1,,,69,0
10230,note_on,17,0,5,,,,,,,,0,,,67,75
10251,control_change,51,0,4,,,,,,,,10,7,102,,
10253,control_change,63,0,1,,,,,,,,1,7,107,,
10254,note_on,24,0,5,,,,,,,,0,,,67,0
10258,note_on,7,0,4,,,,,,,,10,,,38,0
10260,note_on,6,0,5,,,,,,,,0,,,66,82
10266,control_change,8,0,4,,,,,,,,10,7,100,,
10278,note_on,18,0,5,,,,,,,,0,,,66,0
10290,note_on,12,0,5,,,,,,,,0,,,64,88
10308,note_on,18,0,5,,,,,,,,0,,,64,0
10317,control_change,51,0,4,,,,,,,,10,7,99,,
10320,note_on,12,0,5,,,,,,,,0,,,62,104
10380,note_on,173,0,6,,,,,,,,0,,,61,96
10392,control_change,75,0,4,,,,,,,,10,7,97,,
10410,note_on,30,0,6,,,,,,,,0,,,59,79
10413,note_on,93,0,5,,,,,,,,0,,,62,0
10417,note_on,7,0,6,,,,,,,,0,,,61,0
10433,control_change,41,0,4,,,,,,,,10,7,96,,
10440,note_on,23,0,6,,,,,,,,0,,,57,74
10440,note_on,187,0,1,,,,,,,,1,,,66,69
10440,note_on,221,0,2,,,,,,,,1,,,62,55
10442,note_on,2,0,6,,,,,,,,0,,,59,0
10447,control_change,14,0,4,,,,,,,,10,7,94,,
10469,note_on,27,0,6,,,,,,,,0,,,57,0
10470,note_on,1,0,6,,,,,,,,0,,,55,77
10479,note_on,39,0,1,,,,,,,,1,,,66,0
10480,control_change,1,0,1,,,,,,,,1,7,105,,
10483,control_change,36,0,4,,,,,,,,10,7,93,,
10492,note_on,52,0,2,,,,,,,,1,,,62,0
10494,note_on,24,0,6,,,,,,,,0,,,55,0
10500,note_on,6,0,6,,,,,,,,0,,,54,84
10500,note_on,8,0,2,,,,,,,,1,,,64,58
10500,note_on,20,0,1,,,,,,,,1,,,67,79
10516,note_on,16,0,6,,,,,,,,0,,,54,0
10530,note_on,14,0,6,,,,,,,,0,,,52,84
10543,note_on,43,0,1,,,,,,,,1,,,67,0
10545,note_on,45,0,2,,,,,,,,1,,,64,0
10557,note_on,27,0,6,,,,,,,,0,,,52,0
10560,note_on,17,0,1,,,,,,,,1,,,69,66
10560,note_on,3,0,6,,,,,,,,0,,,50,81
10560,note_on,147,0,5,,,,,,,,0,,,62,96
10560,note_on,15,0,2,,,,,,,,1,,,66,55
10611,note_on,51,0,1,,,,,,,,1,,,69,0
10614,note_on,54,0,2,,,,,,,,1,,,66,0
10615,note_on,55,0,5,,,,,,,,0,,,62,0
10620,note_on,5,0,5,,,,,,,,0,,,57,73
10665,note_on,45,0,5,,,,,,,,0,,,57,0
10680,note_on,69,0,1,,,,,,,,1,,,66,72
10680,note_on,15,0,5,,,,,,,,0,,,62,96
10680,note_on,66,0,2,,,,,,,,1,,,57,58
10687,note_on,127,0,6,,,,,,,,0,,,50,0
10712,note_on,32,0,1,,,,,,,,1,,,66,0
10724,note_on,44,0,5,,,,,,,,0,,,62,0
10735,control_change,23,0,1,,,,,,,,1,7,104,,
10740,note_on,5,0,1,,,,,,,,1,,,67,69
10740,note_on,16,0,5,,,,,,,,0,,,64,110
10760,note_on,80,0,2,,,,,,,,1,,,57,0
10775,note_on,35,0,5,,,,,,,,0,,,64,0
10783,note_on,43,0,1,,,,,,,,1,,,67,0
10800,note_on,40,0,2,,,,,,,,1,,,62,61
10800,note_on,17,0,1,,,,,,,,1,,,69,66
10800,note_on,25,0,5,,,,,,,,0,,,66,88
10838,note_on,38,0,1,,,,,,,,1,,,69,0
10848,note_on,48,0,5,,,,,,,,0,,,66,0
10860,note_on,12,0,5,,,,,,,,0,,,62,82
10860,note_on,60,0,2,,,,,,,,1,,,62,0
10900,note_on,40,0,5,,,,,,,,0,,,62,0
10920,note_on,60,0,2,,,,,,,,1,,,62,55
10920,note_on,20,0,5,,,,,,,,0,,,66,102
10920,note_on,82,0,1,,,,,,,,1,,,74,69
10957,note_on,37,0,1,,,,,,,,1,,,74,0
10959,note_on,39,0,5,,,,,,,,0,,,66,0
10963,note_on,43,0,2,,,,,,,,1,,,62,0
10980,note_on,17,0,2,,,,,,,,1,,,64,51
10980,note_on,21,0,5,,,,,,,,0,,,67,90
11012,note_on,32,0,5,,,,,,,,0,,,67,0
11022,note_on,42,0,2,,,,,,,,1,,,64,0
11040,note_on,353,0,6,,,,,,,,0,,,50,84
11040,note_on,28,0,5,,,,,,,,0,,,67,66
11040,note_on,18,0,2,,,,,,,,1,,,66,72
11040,note_on,83,0,1,,,,,,,,1,,,69,74
11082,note_on,42,0,1,,,,,,,,1,,,69,0
11085,note_on,45,0,6,,,,,,,,0,,,50,0
11100,note_on,60,0,5,,,,,,,,0,,,67,0
11100,note_on,0,0,5,,,,,,,,0,,,69,66
11100,note_on,15,0,6,,,,,,,,0,,,45,84
11107,note_on,67,0,2,,,,,,,,1,,,66,0
11130,note_on,30,0,5,,,,,,,,0,,,71,25
11145,note_on,15,0,5,,,,,,,,0,,,69,0
11146,note_on,46,0,6,,,,,,,,0,,,45,0
11147,note_on,2,0,5,,,,,,,,0,,,71,0
11160,note_on,78,0,1,,,,,,,,1,,,69,64
11160,note_on,13,0,5,,,,,,,,0,,,69,73
11160,note_on,14,0,6,,,,,,,,0,,,50,72
11160,note_on,53,0,2,,,,,,,,1,,,66,51
11199,note_on,39,0,1,,,,,,,,1,,,69,0
11202,note_on,42,0,6,,,,,,,,0,,,50,0
11204,note_on,44,0,2,,,,,,,,1,,,66,0
11217,note_on,57,0,5,,,,,,,,0,,,69,0
11220,note_on,16,0,2,,,,,,,,1,,,64,51
11220,note_on,21,0,1,,,,,,,,1,,,67,64
11220,note_on,18,0,6,,,,,,,,0,,,52,69
11258,note_on,38,0,6,,,,,,,,0,,,52,0
11265,note_on,45,0,1,,,,,,,,1,,,67,0
11270,note_on,50,0,2,,,,,,,,1,,,64,0
11280,note_on,22,0,6,,,,,,,,0,,,54,89
11280,note_on,15,0,1,,,,,,,,1,,,66,58
11280,note_on,10,0,2,,,,,,,,1,,,62,55
11332,note_on,52,0,6,,,,,,,,0,,,54,0
11340,note_on,8,0,6,,,,,,,,0,,,50,79
11341,note_on,61,0,2,,,,,,,,1,,,62,0
11344,note_on,64,0,1,,,,,,,,1,,,66,0
11392,note_on,52,0,6,,,,,,,,0,,,50,0
11400,note_on,59,0,2,,,,,,,,1,,,57,64
11400,note_on,56,0,1,,,,,,,,1,,,64,66
11400,note_on,183,0,5,,,,,,,,0,,,69,127
11400,note_on,8,0,6,,,,,,,,0,,,52,66
11441,note_on,41,0,1,,,,,,,,1,,,64,0
11444,note_on,44,0,6,,,,,,,,0,,,52,0
11460,note_on,19,0,1,,,,,,,,1,,,62,58
11460,note_on,16,0,6,,,,,,,,0,,,54,91
11462,note_on,62,0,2,,,,,,,,1,,,57,0
11486,note_on,26,0,6,,,,,,,,0,,,54,0
11489,note_on,89,0,5,,,,,,,,0,,,69,0
11500,note_on,40,0,1,,,,,,,,1,,,62,0
11520,note_on,34,0,6,,,,,,,,0,,,55,111
11520,note_on,31,0,5,,,,,,,,0,,,71,96
11573,note_on,53,0,5,,,,,,,,0,,,71,0
11580,note_on,7,0,5,,,,,,,,0,,,73,82
11615,note_on,95,0,6,,,,,,,,0,,,55,0
11634,note_on,54,0,5,,,,,,,,0,,,73,0
11640,note_on,6,0,5,,,,,,,,0,,,74,88
11682,note_on,42,0,5,,,,,,,,0,,,74,0
11700,note_on,18,0,5,,,,,,,,0,,,71,82
11729,note_on,29,0,5,,,,,,,,0,,,71,0
11760,note_on,31,0,5,,,,,,,,0,,,69,73
11775,note_on,15,0,5,,,,,,,,0,,,69,0
11790,note_on,15,0,5,,,,,,,,0,,,71,79
11814,note_on,24,0,5,,,,,,,,0,,,71,0
11820,note_on,205,0,6,,,,,,,,0,,,54,79
11820,note_on,6,0,5,,,,,,,,0,,,69,79
11862,note_on,42,0,6,,,,,,,,0,,,54,0
11880,note_on,18,0,6,,,,,,,,0,,,52,79
11925,note_on,45,0,6,,,,,,,,0,,,52,0
11927,note_on,107,0,5,,,,,,,,0,,,69,0
11940,note_on,13,0,5,,,,,,,,0,,,69,85
11940,note_on,15,0,6,,,,,,,,0,,,50,79
11973,note_on,33,0,5,,,,,,,,0,,,69,0
11992,note_on,52,0,6,,,,,,,,0,,,50,0
12000,note_on,8,0,6,,,,,,,,0,,,55,74
12000,note_on,27,0,5,,,,,,,,0,,,71,96
12048,note_on,48,0,5,,,,,,,,0,,,71,0
12060,note_on,12,0,5,,,,,,,,0,,,73,66
12077,note_on,17,0,5,,,,,,,,0,,,73,0
12090,note_on,13,0,5,,,,,,,,0,,,74,73
12120,note_on,30,0,5,,,,,,,,0,,,73,82
12121,note_on,1,0,5,,,,,,,,0,,,74,0
12136,note_on,136,0,6,,,,,,,,0,,,55,0
12171,note_on,50,0,5,,,,,,,,0,,,73,0
12180,note_on,9,0,5,,,,,,,,0,,,74,96
12209,note_on,29,0,5,,,,,,,,0,,,74,0
12210,note_on,1,0,5,,,,,,,,0,,,76,70
12229,note_on,19,0,5,,,,,,,,0,,,76,0
12240,note_on,11,0,5,,,,,,,,0,,,69,90
12290,note_on,50,0,5,,,,,,,,0,,,69,0
12300,note_on,10,0,5,,,,,,,,0,,,73,70
12338,note_on,38,0,5,,,,,,,,0,,,73,0
12360,note_on,22,0,5,,,,,,,,0,,,74,85
12360,note_on,224,0,6,,,,,,,,0,,,54,86
12390,note_on,30,0,5,,,,,,,,0,,,74,0
12416,note_on,56,0,6,,,,,,,,0,,,54,0
12420,note_on,30,0,5,,,,,,,,0,,,78,82
12464,note_on,44,0,5,,,,,,,,0,,,78,0
12480,note_on,64,0,6,,,,,,,,0,,,52,72
12480,note_on,16,0,5,,,,,,,,0,,,79,90
12526,note_on,46,0,5,,,,,,,,0,,,79,0
12536,note_on,56,0,6,,,,,,,,0,,,52,0
12540,note_on,14,0,5,,,,,,,,0,,,78,75
12577,note_on,37,0,5,,,,,,,,0,,,78,0
12600,note_on,23,0,5,,,,,,,,0,,,76,75
12600,note_on,64,0,6,,,,,,,,0,,,49,91
12640,note_on,40,0,5,,,,,,,,0,,,76,0
12654,note_on,54,0,6,,,,,,,,0,,,49,0
12660,note_on,20,0,5,,,,,,,,0,,,79,85
12709,note_on,49,0,5,,,,,,,,0,,,79,0
12720,note_on,11,0,5,,,,,,,,0,,,78,85
12720,note_on,66,0,6,,,,,,,,0,,,50,84
12769,note_on,49,0,5,,,,,,,,0,,,78,0
12772,note_on,52,0,6,,,,,,,,0,,,50,0
12780,note_on,11,0,5,,,,,,,,0,,,76,90
12824,note_on,44,0,5,,,,,,,,0,,,76,0
12840,note_on,68,0,6,,,,,,,,0,,,38,123
12840,note_on,16,0,5,,,,,,,,0,,,74,88
12879,note_on,39,0,5,,,,,,,,0,,,74,0
12899,note_on,59,0,6,,,,,,,,0,,,38,0
12900,note_on,21,0,5,,,,,,,,0,,,78,93
12950,note_on,50,0,5,,,,,,,,0,,,78,0
12960,note_on,10,0,5,,,,,,,,0,,,76,90
12960,note_on,61,0,6,,,,,,,,0,,,45,99
13009,note_on,49,0,5,,,,,,,,0,,,76,0
13020,note_on,11,0,5,,,,,,,,0,,,74,96
13055,control_change,1555,0,1,,,,,,,,1,7,106,,
13065,note_on,45,0,5,,,,,,,,0,,,74,0
13080,note_on,15,0,5,,,,,,,,0,,,73,93
13117,control_change,62,0,1,,,,,,,,1,7,107,,
13125,note_on,45,0,5,,,,,,,,0,,,73,0
13140,note_on,15,0,5,,,,,,,,0,,,71,88
13159,note_on,199,0,6,,,,,,,,0,,,45,0
13192,note_on,52,0,5,,,,,,,,0,,,71,0
13200,note_on,8,0,5,,,,,,,,0,,,69,93
13205,control_change,88,0,1,,,,,,,,1,7,109,,
13244,note_on,44,0,5,,,,,,,,0,,,69,0
13260,note_on,16,0,5,,,,,,,,0,,,67,90
13301,control_change,96,0,1,,,,,,,,1,7,110,,
13304,note_on,44,0,5,,,,,,,,0,,,67,0
13320,note_on,16,0,5,,,,,,,,0,,,66,96
13358,control_change,2875,0,4,,,,,,,,10,7,94,,
13367,control_change,9,0,4,,,,,,,,10,7,95,,
13368,note_on,48,0,5,,,,,,,,0,,,66,0
13380,note_on,12,0,5,,,,,,,,0,,,64,90
13415,control_change,48,0,4,,,,,,,,10,7,97,,
13425,note_on,45,0,5,,,,,,,,0,,,64,0
13435,control_change,20,0,4,,,,,,,,10,7,98,,
13440,note_on,5,0,4,,,,,,,,10,,,38,127
13440,note_on,0,0,2,,,,,,,,1,,,57,127
13440,aftertouch,1978,0,2,,,,,,,,1,,6,,
13440,note_on,139,0,1,,,,,,,,1,,,62,127
13440,note_on,0,0,5,,,,,,,,0,,,57,127
13440,note_on,0,0,5,,,,,,,,0,,,54,127
13440,note_on,0,0,3,,,,,,,,1,,,54,127
13440,note_on,15,0,5,,,,,,,,0,,,62,127
13440,note_on,281,0,6,,,,,,,,0,,,50,120
13440,aftertouch,3221,0,3,,,,,,,,1,,6,,
13449,aftertouch,9,0,2,,,,,,,,1,,0,,
13452,aftertouch,3,0,2,,,,,,,,1,,3,,
13452,aftertouch,12,0,3,,,,,,,,1,,3,,
13461,aftertouch,9,0,2,,,,,,,,1,,0,,
13463,aftertouch,2,0,2,,,,,,,,1,,1,,
13463,aftertouch,11,0,3,,,,,,,,1,,1,,
13472,aftertouch,9,0,2,,,,,,,,1,,0,,
13530,aftertouch,90,0,6,,,,,,,,0,,3,,
13542,aftertouch,12,0,6,,,,,,,,0,,4,,
13553,note_on,81,0,2,,,,,,,,1,,,57,0
13553,note_on,113,0,1,,,,,,,,1,,,62,0
13553,note_on,11,0,6,,,,,,,,0,,,50,0
13553,note_on,113,0,4,,,,,,,,10,,,38,0
13553,note_on,0,0,5,,,,,,,,0,,,62,0
13553,note_on,0,0,5,,,,,,,,0,,,54,0
13553,note_on,113,0,5,,,,,,,,0,,,57,0
13553,note_on,90,0,3,,,,,,,,1,,,54,0
13554,aftertouch,1,0,6,,,,,,,,0,,2,,
13680,note_on,127,0,4,,,,,,,,10,,,26,123
13680,note_on,127,0,2,,,,,,,,1,,,62,127
13680,note_on,126,0,6,,,,,,,,0,,,38,96
13680,note_on,127,0,1,,,,,,,,1,,,66,127
13680,note_on,0,0,5,,,,,,,,0,,,57,102
13680,note_on,0,0,5,,,,,,,,0,,,66,110
13680,note_on,127,0,5,,,,,,,,0,,,62,102
13680,note_on,127,0,3,,,,,,,,1,,,57,111
13746,aftertouch,66,0,6,,,,,,,,0,,1,,
13793,note_on,113,0,3,,,,,,,,1,,,57,0
13793,note_on,113,0,4,,,,,,,,10,,,26,0
13793,note_on,113,0,2,,,,,,,,1,,,62,0
13793,note_on,113,0,1,,,,,,,,1,,,66,0
13793,note_on,47,0,6,,,,,,,,0,,,38,0
13793,note_on,0,0,5,,,,,,,,0,,,62,0
13793,note_on,0,0,5,,,,,,,,0,,,66,0
13793,note_on,113,0,5,,,,,,,,0,,,57,0
13881,aftertouch,88,0,3,,,,,,,,1,,3,,
13881,aftertouch,88,0,2,,,,,,,,1,,3,,
13891,aftertouch,10,0,2,,,,,,,,1,,0,,
13893,aftertouch,12,0,3,,,,,,,,1,,4,,
13893,aftertouch,2,0,2,,,,,,,,1,,4,,
13903,aftertouch,10,0,2,,,,,,,,1,,0,,
13905,aftertouch,12,0,3,,,,,,,,1,,2,,
13905,aftertouch,2,0,2,,,,,,,,1,,2,,
13920,note_on,15,0,3,,,,,,,,1,,,62,120
13920,note_on,127,0,1,,,,,,,,1,,,69,127
13920,note_on,127,0,6,,,,,,,,0,,,50,124
13920,note_on,0,0,5,,,,,,,,0,,,62,102
13920,note_on,0,0,5,,,,,,,,0,,,69,110
13920,note_on,127,0,5,,,,,,,,0,,,66,127
13920,note_on,15,0,2,,,,,,,,1,,,66,127
13920,note_on,127,0,4,,,,,,,,10,,,38,127
13978,aftertouch,0,0,5,,,,,,,,0,,3,,
13978,aftertouch,58,0,5,,,,,,,,0,,3,,
13991,aftertouch,0,0,5,,,,,,,,0,,4,,
13991,aftertouch,13,0,5,,,,,,,,0,,4,,
14002,aftertouch,11,0,5,,,,,,,,0,,2,,
14003,aftertouch,1,0,5,,,,,,,,0,,2,,
14033,note_on,113,0,3,,,,,,,,1,,,62,0
14033,note_on,113,0,4,,,,,,,,10,,,38,0
14033,note_on,113,0,1,,,,,,,,1,,,69,0
14033,note_on,113,0,2,,,,,,,,1,,,66,0
14033,note_on,0,0,5,,,,,,,,0,,,66,0
14033,note_on,0,0,5,,,,,,,,0,,,69,0
14033,note_on,30,0,5,,,,,,,,0,,,62,0
14033,note_on,113,0,6,,,,,,,,0,,,50,0
14035,aftertouch,2,0,2,,,,,,,,1,,0,,
14037,aftertouch,4,0,3,,,,,,,,1,,1,,
14037,aftertouch,2,0,2,,,,,,,,1,,1,,
14038,aftertouch,1,0,2,,,,,,,,1,,0,,
14042,aftertouch,9,0,4,,,,,,,,10,,1,,
14271,note_on,233,0,2,,,,,,,,1,,,62,127
14271,note_on,234,0,3,,,,,,,,1,,,57,96
14276,note_on,234,0,4,,,,,,,,10,,,26,89
14280,note_on,247,0,5,,,,,,,,0,,,62,80
14280,note_on,0,0,5,,,,,,,,0,,,66,80
14280,note_on,247,0,1,,,,,,,,1,,,66,117
14280,note_on,247,0,6,,,,,,,,0,,,38,114
14307,note_on,27,0,1,,,,,,,,1,,,66,0
14307,note_on,36,0,2,,,,,,,,1,,,62,0
14328,note_on,48,0,5,,,,,,,,0,,,66,0
14328,note_on,57,0,3,,,,,,,,1,,,57,0
14328,note_on,0,0,5,,,,,,,,0,,,62,0
14331,note_on,24,0,2,,,,,,,,1,,,64,89
14339,note_on,63,0,4,,,,,,,,10,,,26,0
14340,note_on,0,0,5,,,,,,,,0,,,67,80
14340,note_on,33,0,1,,,,,,,,1,,,67,111
14340,note_on,12,0,5,,,,,,,,0,,,64,80
14359,note_on,28,0,2,,,,,,,,1,,,64,0
14372,note_on,32,0,1,,,,,,,,1,,,67,0
14382,control_change,43,0,4,,,,,,,,10,7,102,,
14388,note_on,48,0,5,,,,,,,,0,,,67,0
14388,note_on,0,0,5,,,,,,,,0,,,64,0
14391,control_change,9,0,4,,,,,,,,10,7,100,,
14393,note_on,113,0,6,,,,,,,,0,,,38,0
14400,note_on,9,0,4,,,,,,,,10,,,38,120
14400,note_on,12,0,5,,,,,,,,0,,,66,81
14400,note_on,0,0,5,,,,,,,,0,,,69,106
14400,note_on,7,0,6,,,,,,,,0,,,50,89
14400,note_on,41,0,2,,,,,,,,1,,,66,127
14400,note_on,28,0,1,,,,,,,,1,,,69,127
14400,note_on,72,0,3,,,,,,,,1,,,62,74
14407,control_change,7,0,4,,,,,,,,10,7,99,,
14445,note_on,38,0,4,,,,,,,,10,,,38,0
14447,control_change,2,0,4,,,,,,,,10,7,97,,
14452,note_on,52,0,3,,,,,,,,1,,,62,0
14454,note_on,54,0,6,,,,,,,,0,,,50,0
14456,note_on,56,0,1,,,,,,,,1,,,69,0
14460,note_on,13,0,4,,,,,,,,10,,,40,72
14460,note_on,6,0,6,,,,,,,,0,,,52,102
14468,note_on,68,0,2,,,,,,,,1,,,66,0
14473,note_on,73,0,5,,,,,,,,0,,,69,0
14478,note_on,5,0,5,,,,,,,,0,,,66,0
14497,note_on,37,0,6,,,,,,,,0,,,52,0
14498,control_change,38,0,4,,,,,,,,10,7,96,,
14504,note_on,6,0,4,,,,,,,,10,,,40,0
14520,note_on,23,0,6,,,,,,,,0,,,54,84
14520,note_on,52,0,2,,,,,,,,1,,,62,117
14520,note_on,68,0,3,,,,,,,,1,,,57,84
14520,note_on,16,0,4,,,,,,,,10,,,42,102
14520,note_on,0,0,5,,,,,,,,0,,,62,117
14520,note_on,42,0,5,,,,,,,,0,,,66,93
14520,note_on,64,0,1,,,,,,,,1,,,66,127
14526,control_change,6,0,4,,,,,,,,10,7,94,,
14546,note_on,26,0,1,,,,,,,,1,,,66,0
14548,note_on,28,0,6,,,,,,,,0,,,54,0
14549,note_on,29,0,2,,,,,,,,1,,,62,0
14551,control_change,25,0,4,,,,,,,,10,7,93,,
14556,note_on,5,0,4,,,,,,,,10,,,42,0
14566,note_on,0,0,5,,,,,,,,0,,,66,0
14566,note_on,46,0,5,,,,,,,,0,,,62,0
14572,note_on,52,0,3,,,,,,,,1,,,57,0
14580,note_on,14,0,5,,,,,,,,0,,,64,79
14580,note_on,0,0,5,,,,,,,,0,,,67,120
14580,note_on,32,0,6,,,,,,,,0,,,52,81
14580,note_on,24,0,4,,,,,,,,10,,,40,89
14580,note_on,31,0,2,,,,,,,,1,,,64,111
14580,note_on,34,0,1,,,,,,,,1,,,67,127
14609,note_on,29,0,6,,,,,,,,0,,,52,0
14610,note_on,30,0,1,,,,,,,,1,,,67,0
14612,note_on,32,0,2,,,,,,,,1,,,64,0
14619,note_on,39,0,5,,,,,,,,0,,,64,0
14620,note_on,1,0,5,,,,,,,,0,,,67,0
14622,note_on,42,0,4,,,,,,,,10,,,40,0
14640,note_on,0,0,5,,,,,,,,0,,,69,127
14640,note_on,31,0,6,,,,,,,,0,,,50,84
14640,note_on,68,0,3,,,,,,,,1,,,62,66
14640,note_on,18,0,4,,,,,,,,10,,,38,96
14640,note_on,30,0,1,,,,,,,,1,,,69,127
14640,note_on,20,0,5,,,,,,,,0,,,66,91
14640,note_on,28,0,2,,,,,,,,1,,,66,123
14672,note_on,32,0,6,,,,,,,,0,,,50,0
14684,note_on,44,0,4,,,,,,,,10,,,38,0
14689,note_on,49,0,3,,,,,,,,1,,,62,0
14691,note_on,51,0,1,,,,,,,,1,,,69,0
14697,note_on,57,0,5,,,,,,,,0,,,69,0
14700,note_on,28,0,6,,,,,,,,0,,,52,72
14700,note_on,16,0,4,,,,,,,,10,,,40,74
14718,note_on,21,0,5,,,,,,,,0,,,66,0
14720,note_on,80,0,2,,,,,,,,1,,,66,0
14723,control_change,23,0,4,,,,,,,,10,7,91,,
14730,note_on,30,0,6,,,,,,,,0,,,52,0
14741,note_on,18,0,4,,,,,,,,10,,,40,0
14760,note_on,19,0,4,,,,,,,,10,,,42,77
14760,note_on,30,0,6,,,,,,,,0,,,54,102
14760,note_on,0,0,5,,,,,,,,0,,,69,77
14760,note_on,69,0,1,,,,,,,,1,,,74,126
14760,note_on,71,0,3,,,,,,,,1,,,57,72
14760,note_on,40,0,2,,,,,,,,1,,,69,117
14760,note_on,42,0,5,,,,,,,,0,,,74,127
14787,note_on,27,0,6,,,,,,,,0,,,54,0
14795,note_on,35,0,4,,,,,,,,10,,,42,0
14806,note_on,46,0,1,,,,,,,,1,,,74,0
14807,note_on,47,0,3,,,,,,,,1,,,57,0
14820,note_on,25,0,4,,,,,,,,10,,,40,89
14820,note_on,33,0,6,,,,,,,,0,,,52,69
14825,note_on,65,0,2,,,,,,,,1,,,69,0
14829,note_on,69,0,5,,,,,,,,0,,,74,0
14851,note_on,31,0,6,,,,,,,,0,,,52,0
14855,note_on,26,0,5,,,,,,,,0,,,69,0
14861,note_on,41,0,4,,,,,,,,10,,,40,0
14880,note_on,29,0,6,,,,,,,,0,,,50,84
14880,note_on,19,0,4,,,,,,,,10,,,38,102
14880,note_on,25,0,5,,,,,,,,0,,,66,81
14880,note_on,0,0,5,,,,,,,,0,,,69,127
14880,note_on,74,0,1,,,,,,,,1,,,69,127
14880,note_on,55,0,2,,,,,,,,1,,,66,127
14880,note_on,73,0,3,,,,,,,,1,,,62,66
14913,note_on,33,0,6,,,,,,,,0,,,50,0
14916,control_change,36,0,1,,,,,,,,1,7,108,,
14917,note_on,37,0,4,,,,,,,,10,,,38,0
14926,note_on,46,0,3,,,,,,,,1,,,62,0
14930,note_on,14,0,1,,,,,,,,1,,,69,0
14940,note_on,23,0,4,,,,,,,,10,,,40,84
14940,note_on,27,0,6,,,,,,,,0,,,52,79
14944,note_on,64,0,5,,,,,,,,0,,,69,0
14952,note_on,8,0,5,,,,,,,,0,,,66,0
14952,note_on,72,0,2,,,,,,,,1,,,66,0
14971,note_on,31,0,6,,,,,,,,0,,,52,0
14979,note_on,39,0,4,,,,,,,,10,,,40,0
15000,note_on,48,0,5,,,,,,,,0,,,69,106
15000,note_on,0,0,5,,,,,,,,0,,,62,86
15000,note_on,29,0,6,,,,,,,,0,,,54,102
15000,note_on,21,0,4,,,,,,,,10,,,42,111
15000,note_on,70,0,1,,,,,,,,1,,,69,127
15000,note_on,74,0,3,,,,,,,,1,,,57,84
15000,note_on,48,0,2,,,,,,,,1,,,62,102
15033,note_on,33,0,6,,,,,,,,0,,,54,0
15036,note_on,36,0,1,,,,,,,,1,,,69,0
15038,note_on,38,0,3,,,,,,,,1,,,57,0
15039,note_on,39,0,4,,,,,,,,10,,,42,0
15042,note_on,42,0,5,,,,,,,,0,,,69,0
15060,note_on,21,0,4,,,,,,,,10,,,40,84
15060,note_on,18,0,5,,,,,,,,0,,,67,117
15060,note_on,27,0,6,,,,,,,,0,,,52,66
15060,note_on,24,0,1,,,,,,,,1,,,67,93
15064,note_on,64,0,2,,,,,,,,1,,,62,0
15074,note_on,14,0,5,,,,,,,,0,,,62,0
15090,note_on,30,0,6,,,,,,,,0,,,52,0
15092,note_on,32,0,1,,,,,,,,1,,,67,0
15099,note_on,39,0,4,,,,,,,,10,,,40,0
15114,note_on,40,0,5,,,,,,,,0,,,67,0
15120,note_on,0,0,5,,,,,,,,0,,,62,77
15120,note_on,21,0,4,,,,,,,,10,,,38,99
15120,note_on,6,0,5,,,,,,,,0,,,66,98
15120,note_on,30,0,6,,,,,,,,0,,,50,69
15120,note_on,82,0,3,,,,,,,,1,,,57,84
15120,note_on,56,0,2,,,,,,,,1,,,62,84
15120,note_on,28,0,1,,,,,,,,1,,,66,127
15156,note_on,36,0,3,,,,,,,,1,,,57,0
15176,note_on,56,0,6,,,,,,,,0,,,50,0
15186,note_on,66,0,1,,,,,,,,1,,,66,0
15190,note_on,70,0,5,,,,,,,,0,,,66,0
15192,note_on,72,0,2,,,,,,,,1,,,62,0
15199,note_on,79,0,4,,,,,,,,10,,,38,0
15233,note_on,43,0,5,,,,,,,,0,,,62,0
15240,note_on,54,0,1,,,,,,,,1,,,64,117
15240,note_on,7,0,5,,,,,,,,0,,,64,127
15240,note_on,41,0,4,,,,,,,,10,,,37,96
15240,note_on,84,0,3,,,,,,,,1,,,57,66
15240,note_on,48,0,2,,,,,,,,1,,,66,72
15240,note_on,64,0,6,,,,,,,,0,,,49,69
15244,control_change,4,0,1,,,,,,,,1,7,107,,
15282,note_on,38,0,1,,,,,,,,1,,,64,0
15282,note_on,42,0,3,,,,,,,,1,,,57,0
15289,note_on,49,0,5,,,,,,,,0,,,64,0
15300,note_on,11,0,5,,,,,,,,0,,,62,96
15300,note_on,18,0,1,,,,,,,,1,,,62,84
15301,note_on,61,0,6,,,,,,,,0,,,49,0
15322,note_on,82,0,4,,,,,,,,10,,,37,0
15341,note_on,41,0,1,,,,,,,,1,,,62,0
15346,note_on,46,0,5,,,,,,,,0,,,62,0
15360,note_on,14,0,5,,,,,,,,0,,,67,102
15360,note_on,59,0,6,,,,,,,,0,,,47,72
15360,note_on,78,0,3,,,,,,,,1,,,62,69
15360,note_on,19,0,1,,,,,,,,1,,,67,120
15360,note_on,38,0,4,,,,,,,,10,,,35,89
15394,note_on,34,0,1,,,,,,,,1,,,67,0
15407,note_on,47,0,3,,,,,,,,1,,,62,0
15411,note_on,51,0,5,,,,,,,,0,,,67,0
15420,note_on,26,0,1,,,,,,,,1,,,69,77
15420,note_on,60,0,6,,,,,,,,0,,,47,0
15420,note_on,9,0,5,,,,,,,,0,,,69,96
15456,note_on,36,0,1,,,,,,,,1,,,69,0
15464,note_on,44,0,5,,,,,,,,0,,,69,0
15465,note_on,225,0,2,,,,,,,,1,,,66,0
15480,note_on,73,0,3,,,,,,,,1,,,61,61
15480,note_on,120,0,4,,,,,,,,10,,,37,89
15480,note_on,15,0,2,,,,,,,,1,,,64,48
15480,note_on,60,0,6,,,,,,,,0,,,49,81
15480,note_on,16,0,5,,,,,,,,0,,,71,110
15480,note_on,24,0,1,,,,,,,,1,,,71,124
15492,note_on,12,0,4,,,,,,,,10,,,35,0
15518,note_on,38,0,1,,,,,,,,1,,,71,0
15530,note_on,50,0,3,,,,,,,,1,,,61,0
15534,note_on,54,0,5,,,,,,,,0,,,71,0
15540,note_on,22,0,1,,,,,,,,1,,,67,108
15540,note_on,6,0,5,,,,,,,,0,,,67,102
15540,note_on,60,0,6,,,,,,,,0,,,49,0
15575,note_on,35,0,1,,,,,,,,1,,,67,0
15590,note_on,50,0,5,,,,,,,,0,,,67,0
15600,note_on,25,0,1,,,,,,,,1,,,66,124
15600,note_on,10,0,5,,,,,,,,0,,,66,98
15600,note_on,70,0,3,,,,,,,,1,,,57,51
15600,note_on,108,0,4,,,,,,,,10,,,37,0
15600,note_on,0,0,4,,,,,,,,10,,,38,96
15600,note_on,60,0,6,,,,,,,,0,,,50,108
15636,note_on,36,0,1,,,,,,,,1,,,66,0
15639,note_on,39,0,3,,,,,,,,1,,,57,0
15650,note_on,50,0,5,,,,,,,,0,,,66,0
15652,note_on,52,0,6,,,,,,,,0,,,50,0
15660,note_on,24,0,1,,,,,,,,1,,,67,117
15660,note_on,10,0,5,,,,,,,,0,,,67,90
15694,note_on,34,0,1,,,,,,,,1,,,67,0
15702,note_on,222,0,2,,,,,,,,1,,,64,0
15704,note_on,104,0,4,,,,,,,,10,,,38,0
15716,note_on,56,0,5,,,,,,,,0,,,67,0
15720,note_on,4,0,5,,,,,,,,0,,,69,110
15720,note_on,68,0,6,,,,,,,,0,,,38,124
15720,note_on,16,0,4,,,,,,,,10,,,26,77
15720,note_on,18,0,2,,,,,,,,1,,,62,43
15720,note_on,26,0,1,,,,,,,,1,,,69,111
15720,note_on,81,0,3,,,,,,,,1,,,57,69
15750,note_on,30,0,1,,,,,,,,1,,,69,0
15760,note_on,40,0,3,,,,,,,,1,,,57,0
15768,note_on,48,0,5,,,,,,,,0,,,69,0
15774,note_on,54,0,6,,,,,,,,0,,,38,0
15780,note_on,12,0,5,,,,,,,,0,,,66,75
15780,note_on,30,0,1,,,,,,,,1,,,66,127
15819,note_on,39,0,1,,,,,,,,1,,,66,0
15827,note_on,107,0,2,,,,,,,,1,,,62,0
15828,note_on,48,0,5,,,,,,,,0,,,66,0
15834,note_on,114,0,4,,,,,,,,10,,,26,0
15840,note_on,80,0,3,,,,,,,,1,,,57,55
15840,note_on,66,0,6,,,,,,,,0,,,45,86
15840,note_on,12,0,5,,,,,,,,0,,,64,110
15840,note_on,21,0,1,,,,,,,,1,,,64,127
15840,note_on,13,0,2,,,,,,,,1,,,61,48
15840,note_on,6,0,4,,,,,,,,10,,,33,81
15891,note_on,51,0,5,,,,,,,,0,,,64,0
15900,note_on,9,0,5,,,,,,,,0,,,67,88
15948,note_on,48,0,5,,,,,,,,0,,,67,0
15953,note_on,113,0,1,,,,,,,,1,,,64,0
15953,note_on,113,0,4,,,,,,,,10,,,33,0
15953,note_on,113,0,6,,,,,,,,0,,,45,0
15953,note_on,113,0,2,,,,,,,,1,,,61,0
15953,note_on,113,0,3,,,,,,,,1,,,57,0
15960,note_on,12,0,5,,,,,,,,0,,,69,96
16016,note_on,56,0,5,,,,,,,,0,,,69,0
16020,note_on,4,0,5,,,,,,,,0,,,73,102
16057,note_on,37,0,5,,,,,,,,0,,,73,0
16080,note_on,23,0,5,,,,,,,,0,,,76,82
16080,note_on,127,0,3,,,,,,,,1,,,61,72
16132,note_on,52,0,5,,,,,,,,0,,,76,0
16140,note_on,8,0,5,,,,,,,,0,,,73,110
16186,note_on,46,0,5,,,,,,,,0,,,73,0
16193,note_on,113,0,3,,,,,,,,1,,,61,0
16200,note_on,14,0,5,,,,,,,,0,,,71,88
16200,note_on,247,0,6,,,,,,,,0,,,57,105
16219,note_on,19,0,6,,,,,,,,0,,,57,0
16252,note_on,52,0,5,,,,,,,,0,,,71,0
16254,control_change,301,0,1,,,,,,,,1,7,105,,
16260,note_on,8,0,5,,,,,,,,0,,,69,96
16297,control_change,43,0,1,,,,,,,,1,7,104,,
16304,note_on,44,0,5,,,,,,,,0,,,69,0
16320,note_on,127,0,3,,,,,,,,1,,,64,35
16320,note_on,16,0,5,,,,,,,,0,,,67,102
16320,note_on,367,0,2,,,,,,,,1,,,57,48
16320,note_on,23,0,1,,,,,,,,1,,,61,39
16320,note_on,101,0,6,,,,,,,,0,,,57,89
16362,control_change,42,0,1,,,,,,,,1,7,102,,
16374,note_on,54,0,5,,,,,,,,0,,,67,0
16380,note_on,6,0,5,,,,,,,,0,,,69,98
16427,note_on,107,0,6,,,,,,,,0,,,57,0
16431,note_on,51,0,5,,,,,,,,0,,,69,0
16433,note_on,113,0,3,,,,,,,,1,,,64,0
16433,note_on,113,0,2,,,,,,,,1,,,57,0
16433,note_on,71,0,1,,,,,,,,1,,,61,0
16440,note_on,9,0,5,,,,,,,,0,,,73,102
16440,note_on,13,0,6,,,,,,,,0,,,45,77
16494,note_on,54,0,5,,,,,,,,0,,,73,0
16500,note_on,6,0,5,,,,,,,,0,,,76,102
16542,note_on,42,0,5,,,,,,,,0,,,76,0
16547,note_on,107,0,6,,,,,,,,0,,,45,0
16560,note_on,127,0,1,,,,,,,,1,,,64,26
16560,note_on,18,0,5,,,,,,,,0,,,79,96
16560,note_on,127,0,2,,,,,,,,1,,,61,43
16616,note_on,56,0,5,,,,,,,,0,,,79,0
16620,note_on,4,0,5,,,,,,,,0,,,78,117
16673,note_on,113,0,2,,,,,,,,1,,,61,0
16673,note_on,113,0,1,,,,,,,,1,,,64,0
16676,note_on,56,0,5,,,,,,,,0,,,78,0
16680,note_on,133,0,6,,,,,,,,0,,,57,81
16680,note_on,4,0,5,,,,,,,,0,,,76,110
16698,note_on,18,0,6,,,,,,,,0,,,57,0
16731,note_on,51,0,5,,,,,,,,0,,,76,0
16740,note_on,9,0,5,,,,,,,,0,,,74,96
16792,note_on,52,0,5,,,,,,,,0,,,74,0
16800,note_on,367,0,3,,,,,,,,1,,,57,39
16800,note_on,8,0,5,,,,,,,,0,,,73,102
16800,note_on,102,0,6,,,,,,,,0,,,57,120
16800,note_on,127,0,1,,,,,,,,1,,,69,30
16800,note_on,127,0,2,,,,,,,,1,,,64,48
16852,note_on,52,0,5,,,,,,,,0,,,73,0
16860,note_on,8,0,5,,,,,,,,0,,,74,85
16910,note_on,50,0,5,,,,,,,,0,,,74,0
16913,note_on,113,0,2,,,,,,,,1,,,64,0
16913,note_on,113,0,3,,,,,,,,1,,,57,0
16913,note_on,113,0,1,,,,,,,,1,,,69,0
16913,note_on,113,0,6,,,,,,,,0,,,57,0
16920,note_on,7,0,6,,,,,,,,0,,,45,81
16920,note_on,10,0,5,,,,,,,,0,,,76,117
16969,note_on,49,0,5,,,,,,,,0,,,76,0
16980,note_on,11,0,5,,,,,,,,0,,,73,88
17034,note_on,54,0,5,,,,,,,,0,,,73,0
17040,note_on,127,0,3,,,,,,,,1,,,61,39
17040,note_on,6,0,5,,,,,,,,0,,,69,85
17044,note_on,124,0,6,,,,,,,,0,,,45,0
17088,note_on,48,0,5,,,,,,,,0,,,69,0
17100,note_on,12,0,5,,,,,,,,0,,,73,85
17153,note_on,113,0,3,,,,,,,,1,,,61,0
17157,note_on,57,0,5,,,,,,,,0,,,73,0
17160,note_on,116,0,6,,,,,,,,0,,,57,69
17160,note_on,3,0,5,,,,,,,,0,,,71,96
17175,note_on,15,0,6,,,,,,,,0,,,57,0
17208,note_on,48,0,5,,,,,,,,0,,,71,0
17220,note_on,12,0,5,,,,,,,,0,,,69,90
17273,note_on,53,0,5,,,,,,,,0,,,69,0
17280,note_on,105,0,6,,,,,,,,0,,,57,74
17280,note_on,367,0,2,,,,,,,,1,,,61,51
17280,note_on,7,0,5,,,,,,,,0,,,79,90
17280,note_on,367,0,1,,,,,,,,1,,,64,18
17280,note_on,127,0,3,,,,,,,,1,,,64,35
17330,note_on,50,0,5,,,,,,,,0,,,79,0
17340,note_on,10,0,5,,,,,,,,0,,,78,79
17390,note_on,50,0,5,,,,,,,,0,,,78,0
17393,note_on,113,0,3,,,,,,,,1,,,64,0
17393,note_on,113,0,6,,,,,,,,0,,,57,0
17393,note_on,113,0,2,,,,,,,,1,,,61,0
17393,note_on,113,0,1,,,,,,,,1,,,64,0
17400,note_on,10,0,5,,,,,,,,0,,,76,82
17400,note_on,7,0,6,,,,,,,,0,,,45,64
17446,note_on,46,0,5,,,,,,,,0,,,76,0
17460,note_on,14,0,5,,,,,,,,0,,,74,102
17510,note_on,50,0,5,,,,,,,,0,,,74,0
17519,note_on,119,0,6,,,,,,,,0,,,45,0
17520,note_on,10,0,5,,,,,,,,0,,,73,75
17520,note_on,127,0,1,,,,,,,,1,,,69,51
17520,note_on,127,0,2,,,,,,,,1,,,64,48
17572,note_on,52,0,5,,,,,,,,0,,,73,0
17580,note_on,8,0,5,,,,,,,,0,,,74,75
17630,note_on,50,0,5,,,,,,,,0,,,74,0
17633,note_on,113,0,2,,,,,,,,1,,,64,0
17633,note_on,113,0,1,,,,,,,,1,,,69,0
17640,note_on,10,0,5,,,,,,,,0,,,76,90
17640,note_on,121,0,6,,,,,,,,0,,,57,64
17666,note_on,26,0,6,,,,,,,,0,,,57,0
17695,note_on,55,0,5,,,,,,,,0,,,76,0
17700,note_on,5,0,5,,,,,,,,0,,,73,88
17752,note_on,52,0,5,,,,,,,,0,,,73,0
17760,note_on,127,0,2,,,,,,,,1,,,69,39
17760,note_on,8,0,5,,,,,,,,0,,,69,70
17760,note_on,94,0,6,,,,,,,,0,,,57,64
17760,note_on,127,0,1,,,,,,,,1,,,73,14
17760,note_on,367,0,3,,,,,,,,1,,,57,35
17806,note_on,46,0,5,,,,,,,,0,,,69,0
17820,note_on,14,0,5,,,,,,,,0,,,73,102
17853,note_on,93,0,6,,,,,,,,0,,,57,0
17873,note_on,113,0,3,,,,,,,,1,,,57,0
17873,note_on,113,0,2,,,,,,,,1,,,69,0
17873,note_on,113,0,1,,,,,,,,1,,,73,0
17874,note_on,54,0,5,,,,,,,,0,,,73,0
17880,note_on,27,0,6,,,,,,,,0,,,45,66
17880,note_on,6,0,5,,,,,,,,0,,,71,90
17928,note_on,48,0,5,,,,,,,,0,,,71,0
17940,note_on,12,0,5,,,,,,,,0,,,69,79
17988,note_on,48,0,5,,,,,,,,0,,,69,0
18000,note_on,127,0,3,,,,,,,,1,,,61,39
18000,note_on,12,0,5,,,,,,,,0,,,79,90
18015,note_on,135,0,6,,,,,,,,0,,,45,0
18053,note_on,53,0,5,,,,,,,,0,,,79,0
18060,note_on,7,0,5,,,,,,,,0,,,78,82
18106,note_on,46,0,5,,,,,,,,0,,,78,0
18113,note_on,113,0,3,,,,,,,,1,,,61,0
18120,note_on,14,0,5,,,,,,,,0,,,76,85
18165,note_on,45,0,5,,,,,,,,0,,,76,0
18180,note_on,15,0,5,,,,,,,,0,,,74,106
18226,note_on,46,0,5,,,,,,,,0,,,74,0
18240,note_on,127,0,3,,,,,,,,1,,,64,39
18240,note_on,14,0,5,,,,,,,,0,,,73,85
18284,note_on,44,0,5,,,,,,,,0,,,73,0
18300,note_on,16,0,5,,,,,,,,0,,,74,90
18346,note_on,46,0,5,,,,,,,,0,,,74,0
18353,note_on,113,0,3,,,,,,,,1,,,64,0
18360,note_on,14,0,5,,,,,,,,0,,,76,82
18406,note_on,46,0,5,,,,,,,,0,,,76,0
18420,note_on,14,0,5,,,,,,,,0,,,73,82
18455,note_on,35,0,5,,,,,,,,0,,,73,0
18480,note_on,25,0,5,,,,,,,,0,,,69,85
18556,note_on,76,0,5,,,,,,,,0,,,69,0
18589,control_change,716,0,1,,,,,,,,1,7,103,,
18600,note_on,0,0,5,,,,,,,,0,,,73,120
18600,note_on,44,0,5,,,,,,,,0,,,69,74
18600,note_on,2647,0,4,,,,,,,,10,,,33,89
18600,note_on,11,0,1,,,,,,,,1,,,73,105
18600,note_on,247,0,3,,,,,,,,1,,,64,72
18600,note_on,585,0,6,,,,,,,,0,,,45,89
18600,note_on,727,0,2,,,,,,,,1,,,69,111
18626,note_on,26,0,1,,,,,,,,1,,,73,0
18633,note_on,33,0,2,,,,,,,,1,,,69,0
18633,note_on,33,0,5,,,,,,,,0,,,73,0
18644,note_on,44,0,6,,,,,,,,0,,,45,0
18651,control_change,25,0,1,,,,,,,,1,7,104,,
18660,note_on,27,0,5,,,,,,,,0,,,69,0
18660,note_on,0,0,5,,,,,,,,0,,,74,117
18660,note_on,9,0,1,,,,,,,,1,,,74,127
18660,note_on,0,0,5,,,,,,,,0,,,71,79
18660,note_on,27,0,2,,,,,,,,1,,,71,105
18661,note_on,61,0,4,,,,,,,,10,,,33,0
18663,control_change,3,0,1,,,,,,,,1,7,106,,
18670,note_on,70,0,3,,,,,,,,1,,,64,0
18691,note_on,31,0,2,,,,,,,,1,,,71,0
18692,note_on,29,0,1,,,,,,,,1,,,74,0
18696,control_change,4,0,1,,,,,,,,1,7,107,,
18698,note_on,38,0,5,,,,,,,,0,,,74,0
18705,note_on,7,0,5,,,,,,,,0,,,71,0
18707,control_change,11,0,1,,,,,,,,1,7,109,,
18720,note_on,0,0,5,,,,,,,,0,,,76,117
18720,note_on,29,0,2,,,,,,,,1,,,73,117
18720,note_on,50,0,3,,,,,,,,1,,,69,77
18720,note_on,76,0,6,,,,,,,,0,,,57,96
18720,note_on,13,0,1,,,,,,,,1,,,76,99
18720,note_on,59,0,4,,,,,,,,10,,,45,96
18720,note_on,15,0,5,,,,,,,,0,,,73,86
18750,control_change,30,0,4,,,,,,,,10,7,92,,
18755,note_on,35,0,6,,,,,,,,0,,,57,0
18767,note_on,47,0,1,,,,,,,,1,,,76,0
18771,note_on,21,0,4,,,,,,,,10,,,45,0
18777,control_change,6,0,4,,,,,,,,10,7,94,,
18779,note_on,59,0,2,,,,,,,,1,,,73,0
18780,note_on,25,0,6,,,,,,,,0,,,59,74
18780,note_on,60,0,3,,,,,,,,1,,,69,0
18780,note_on,3,0,4,,,,,,,,10,,,47,72
18788,note_on,68,0,5,,,,,,,,0,,,76,0
18794,control_change,14,0,4,,,,,,,,10,7,95,,
18794,note_on,6,0,5,,,,,,,,0,,,73,0
18811,note_on,31,0,6,,,,,,,,0,,,59,0
18813,control_change,19,0,4,,,,,,,,10,7,97,,
18825,note_on,12,0,4,,,,,,,,10,,,47,0
18836,control_change,11,0,4,,,,,,,,10,7,98,,
18840,note_on,29,0,6,,,,,,,,0,,,61,69
18840,note_on,61,0,2,,,,,,,,1,,,69,120
18840,note_on,73,0,1,,,,,,,,1,,,73,127
18840,note_on,46,0,5,,,,,,,,0,,,73,110
18840,note_on,0,0,5,,,,,,,,0,,,69,96
18840,note_on,4,0,4,,,,,,,,10,,,49,108
18840,note_on,60,0,3,,,,,,,,1,,,64,79
18850,control_change,10,0,4,,,,,,,,10,7,100,,
18860,control_change,10,0,4,,,,,,,,10,7,101,,
18869,note_on,29,0,1,,,,,,,,1,,,73,0
18869,note_on,29,0,2,,,,,,,,1,,,69,0
18871,note_on,31,0,6,,,,,,,,0,,,61,0
18876,note_on,16,0,4,,,,,,,,10,,,49,0
18878,note_on,38,0,5,,,,,,,,0,,,73,0
18894,note_on,16,0,5,,,,,,,,0,,,69,0
18900,note_on,6,0,5,,,,,,,,0,,,74,113
18900,note_on,0,0,5,,,,,,,,0,,,71,77
18900,note_on,29,0,6,,,,,,,,0,,,59,79
18900,note_on,24,0,4,,,,,,,,10,,,47,74
18900,note_on,31,0,1,,,,,,,,1,,,74,124
18900,note_on,31,0,2,,,,,,,,1,,,71,111
18903,note_on,63,0,3,,,,,,,,1,,,64,0
18932,note_on,32,0,2,,,,,,,,1,,,71,0
18933,note_on,33,0,5,,,,,,,,0,,,74,0
18933,note_on,33,0,1,,,,,,,,1,,,74,0
18935,note_on,35,0,6,,,,,,,,0,,,59,0
18940,note_on,40,0,4,,,,,,,,10,,,47,0
18945,note_on,12,0,5,,,,,,,,0,,,71,0
18960,note_on,20,0,4,,,,,,,,10,,,45,77
18960,note_on,28,0,2,,,,,,,,1,,,73,125
18960,note_on,0,0,5,,,,,,,,0,,,73,89
18960,note_on,15,0,5,,,,,,,,0,,,76,127
18960,note_on,27,0,1,,,,,,,,1,,,76,108
18960,note_on,57,0,3,,,,,,,,1,,,69,102
18960,note_on,25,0,6,,,,,,,,0,,,57,66
18975,control_change,15,0,4,,,,,,,,10,7,103,,
18996,note_on,36,0,6,,,,,,,,0,,,57,0
19002,note_on,42,0,1,,,,,,,,1,,,76,0
19002,note_on,27,0,4,,,,,,,,10,,,45,0
19006,control_change,4,0,4,,,,,,,,10,7,104,,
19015,note_on,55,0,5,,,,,,,,0,,,76,0
19020,note_on,60,0,3,,,,,,,,1,,,69,0
19020,note_on,24,0,6,,,,,,,,0,,,59,74
19020,note_on,14,0,4,,,,,,,,10,,,47,72
19021,control_change,1,0,4,,,,,,,,10,7,106,,
19029,note_on,69,0,2,,,,,,,,1,,,73,0
19033,note_on,18,0,5,,,,,,,,0,,,73,0
19049,control_change,28,0,4,,,,,,,,10,7,107,,
19051,note_on,31,0,6,,,,,,,,0,,,59,0
19059,note_on,10,0,4,,,,,,,,10,,,47,0
19080,note_on,47,0,5,,,,,,,,0,,,81,127
19080,note_on,21,0,4,,,,,,,,10,,,49,108
19080,note_on,51,0,2,,,,,,,,1,,,76,117
19080,note_on,0,0,5,,,,,,,,0,,,76,102
19080,note_on,29,0,6,,,,,,,,0,,,61,96
19080,note_on,78,0,1,,,,,,,,1,,,81,127
19080,note_on,60,0,3,,,,,,,,1,,,64,72
19110,note_on,30,0,6,,,,,,,,0,,,61,0
19115,note_on,35,0,4,,,,,,,,10,,,49,0
19132,note_on,52,0,1,,,,,,,,1,,,81,0
19140,note_on,30,0,6,,,,,,,,0,,,59,79
19140,note_on,25,0,4,,,,,,,,10,,,47,84
19144,note_on,64,0,3,,,,,,,,1,,,64,0
19149,note_on,69,0,5,,,,,,,,0,,,81,0
19153,note_on,73,0,2,,,,,,,,1,,,76,0
19162,note_on,13,0,5,,,,,,,,0,,,76,0
19175,note_on,35,0,6,,,,,,,,0,,,59,0
19182,note_on,42,0,4,,,,,,,,10,,,47,0
19200,note_on,68,0,1,,,,,,,,1,,,76,127
19200,note_on,47,0,2,,,,,,,,1,,,73,127
19200,note_on,25,0,6,,,,,,,,0,,,57,79
19200,note_on,38,0,5,,,,,,,,0,,,73,81
19200,note_on,0,0,5,,,,,,,,0,,,76,102
19200,note_on,56,0,3,,,,,,,,1,,,69,89
19200,note_on,18,0,4,,,,,,,,10,,,45,96
19236,note_on,36,0,6,,,,,,,,0,,,57,0
19245,note_on,45,0,1,,,,,,,,1,,,76,0
19245,note_on,45,0,4,,,,,,,,10,,,45,0
19260,note_on,15,0,4,,,,,,,,10,,,47,66
19260,note_on,24,0,6,,,,,,,,0,,,59,72
19264,note_on,64,0,5,,,,,,,,0,,,76,0
19271,note_on,71,0,3,,,,,,,,1,,,69,0
19278,note_on,14,0,5,,,,,,,,0,,,73,0
19278,note_on,78,0,2,,,,,,,,1,,,73,0
19296,note_on,36,0,6,,,,,,,,0,,,59,0
19304,note_on,44,0,4,,,,,,,,10,,,47,0
19320,note_on,0,0,5,,,,,,,,0,,,69,93
19320,note_on,42,0,5,,,,,,,,0,,,76,88
19320,note_on,16,0,4,,,,,,,,10,,,49,105
19320,note_on,42,0,2,,,,,,,,1,,,69,89
19320,note_on,24,0,6,,,,,,,,0,,,61,79
19320,note_on,49,0,3,,,,,,,,1,,,64,84
19320,note_on,75,0,1,,,,,,,,1,,,76,124
19353,note_on,33,0,1,,,,,,,,1,,,76,0
19362,note_on,42,0,5,,,,,,,,0,,,76,0
19364,note_on,44,0,4,,,,,,,,10,,,49,0
19366,note_on,46,0,6,,,,,,,,0,,,61,0
19380,note_on,18,0,5,,,,,,,,0,,,74,85
19380,note_on,27,0,1,,,,,,,,1,,,74,93
19380,note_on,16,0,4,,,,,,,,10,,,47,79
19380,note_on,14,0,6,,,,,,,,0,,,59,72
19383,note_on,63,0,2,,,,,,,,1,,,69,0
19390,note_on,70,0,3,,,,,,,,1,,,64,0
19391,control_change,11,0,4,,,,,,,,10,7,106,,
19392,control_change,12,0,1,,,,,,,,1,7,108,,
19394,note_on,14,0,5,,,,,,,,0,,,69,0
19405,control_change,13,0,1,,,,,,,,1,7,107,,
19416,control_change,25,0,4,,,,,,,,10,7,105,,
19418,note_on,2,0,4,,,,,,,,10,,,47,0
19418,note_on,38,0,6,,,,,,,,0,,,59,0
19420,note_on,15,0,1,,,,,,,,1,,,74,0
19422,note_on,28,0,5,,,,,,,,0,,,74,0
19440,note_on,20,0,1,,,,,,,,1,,,73,117
19440,note_on,57,0,2,,,,,,,,1,,,69,91
19440,note_on,22,0,6,,,,,,,,0,,,57,77
19440,note_on,50,0,3,,,,,,,,1,,,64,72
19440,note_on,0,0,5,,,,,,,,0,,,73,120
19440,note_on,22,0,4,,,,,,,,10,,,45,99
19440,note_on,18,0,5,,,,,,,,0,,,69,89
19453,control_change,13,0,4,,,,,,,,10,7,103,,
19476,control_change,23,0,4,,,,,,,,10,7,102,,
19501,note_on,61,0,1,,,,,,,,1,,,73,0
19506,note_on,66,0,6,,,,,,,,0,,,57,0
19511,note_on,71,0,2,,,,,,,,1,,,69,0
19513,note_on,73,0,3,,,,,,,,1,,,64,0
19515,note_on,75,0,5,,,,,,,,0,,,73,0
19527,control_change,0,0,4,,,,,,,,10,7,97,,
19527,note_on,51,0,4,,,,,,,,10,,,45,0
19528,control_change,1,0,4,,,,,,,,10,7,100,,
19560,note_on,49,0,2,,,,,,,,1,,,64,64
19560,note_on,45,0,5,,,,,,,,0,,,71,88
19560,note_on,47,0,3,,,,,,,,1,,,61,55
19560,note_on,59,0,1,,,,,,,,1,,,71,127
19560,note_on,54,0,6,,,,,,,,0,,,45,102
19560,note_on,32,0,4,,,,,,,,10,,,33,84
19565,control_change,5,0,4,,,,,,,,10,7,96,,
19590,control_change,25,0,4,,,,,,,,10,7,94,,
19596,note_on,36,0,1,,,,,,,,1,,,71,0
19599,note_on,39,0,5,,,,,,,,0,,,71,0
19617,control_change,27,0,4,,,,,,,,10,7,99,,
19620,note_on,60,0,6,,,,,,,,0,,,45,0
19620,note_on,21,0,5,,,,,,,,0,,,69,75
19620,note_on,24,0,1,,,,,,,,1,,,69,99
19623,note_on,63,0,3,,,,,,,,1,,,61,0
19624,note_on,64,0,2,,,,,,,,1,,,64,0
19653,note_on,33,0,1,,,,,,,,1,,,69,0
19656,note_on,36,0,5,,,,,,,,0,,,69,0
19662,note_on,6,0,5,,,,,,,,0,,,69,0
19680,note_on,27,0,1,,,,,,,,1,,,64,35
19680,note_on,56,0,2,,,,,,,,1,,,61,39
19680,note_on,63,0,4,,,,,,,,10,,,33,0
19680,note_on,18,0,5,,,,,,,,0,,,76,96
19680,note_on,60,0,6,,,,,,,,0,,,57,79
19680,note_on,57,0,3,,,,,,,,1,,,57,8
19726,note_on,46,0,5,,,,,,,,0,,,76,0
19740,note_on,14,0,5,,,,,,,,0,,,81,110
19758,note_on,78,0,6,,,,,,,,0,,,57,0
19784,note_on,44,0,5,,,,,,,,0,,,81,0
19800,note_on,42,0,6,,,,,,,,0,,,61,61
19800,note_on,16,0,5,,,,,,,,0,,,76,90
19840,note_on,40,0,6,,,,,,,,0,,,61,0
19849,note_on,49,0,5,,,,,,,,0,,,76,0
19860,note_on,20,0,6,,,,,,,,0,,,59,72
19860,note_on,11,0,5,,,,,,,,0,,,74,90
19902,note_on,42,0,5,,,,,,,,0,,,74,0
19906,control_change,226,0,1,,,,,,,,1,7,105,,
19913,note_on,53,0,6,,,,,,,,0,,,59,0
19920,note_on,18,0,5,,,,,,,,0,,,73,88
19920,note_on,7,0,6,,,,,,,,0,,,57,72
19928,control_change,22,0,1,,,,,,,,1,7,104,,
19964,note_on,44,0,5,,,,,,,,0,,,73,0
19977,note_on,57,0,6,,,,,,,,0,,,57,0
19980,note_on,16,0,5,,,,,,,,0,,,76,85
20008,control_change,80,0,1,,,,,,,,1,7,102,,
20030,note_on,50,0,5,,,,,,,,0,,,76,0
20040,note_on,63,0,6,,,,,,,,0,,,52,84
20040,note_on,10,0,5,,,,,,,,0,,,73,85
20084,note_on,44,0,5,,,,,,,,0,,,73,0
20086,note_on,46,0,6,,,,,,,,0,,,52,0
20100,note_on,16,0,5,,,,,,,,0,,,71,82
20138,note_on,38,0,5,,,,,,,,0,,,71,0
20160,note_on,22,0,5,,,,,,,,0,,,69,82
20160,note_on,74,0,6,,,,,,,,0,,,57,89
20178,control_change,170,0,1,,,,,,,,1,7,101,,
20210,note_on,50,0,5,,,,,,,,0,,,69,0
20220,note_on,10,0,5,,,,,,,,0,,,79,82
20234,note_on,74,0,6,,,,,,,,0,,,57,0
20277,note_on,57,0,5,,,,,,,,0,,,79,0
20280,note_on,3,0,5,,,,,,,,0,,,76,93
20280,note_on,46,0,6,,,,,,,,0,,,61,51
20324,note_on,44,0,5,,,,,,,,0,,,76,0
20326,note_on,46,0,6,,,,,,,,0,,,61,0
20340,note_on,16,0,5,,,,,,,,0,,,74,82
20340,note_on,14,0,6,,,,,,,,0,,,59,69
20384,note_on,44,0,5,,,,,,,,0,,,74,0
20386,note_on,46,0,6,,,,,,,,0,,,59,0
20400,note_on,16,0,5,,,,,,,,0,,,73,96
20400,note_on,14,0,6,,,,,,,,0,,,57,72
20442,note_on,42,0,5,,,,,,,,0,,,73,0
20457,note_on,57,0,6,,,,,,,,0,,,57,0
20460,note_on,18,0,5,,,,,,,,0,,,76,82
20498,note_on,38,0,5,,,,,,,,0,,,76,0
20520,note_on,63,0,6,,,,,,,,0,,,52,58
20520,note_on,22,0,5,,,,,,,,0,,,73,102
20562,note_on,42,0,5,,,,,,,,0,,,73,0
20580,note_on,18,0,5,,,,,,,,0,,,71,88
20587,note_on,67,0,6,,,,,,,,0,,,52,0
20626,note_on,46,0,5,,,,,,,,0,,,71,0
20640,note_on,14,0,5,,,,,,,,0,,,69,82
20640,note_on,53,0,6,,,,,,,,0,,,54,89
20686,note_on,46,0,5,,,,,,,,0,,,69,0
20700,note_on,14,0,5,,,,,,,,0,,,78,102
20735,note_on,95,0,6,,,,,,,,0,,,54,0
20749,note_on,49,0,5,,,,,,,,0,,,78,0
20760,note_on,11,0,5,,,,,,,,0,,,74,102
20760,note_on,25,0,6,,,,,,,,0,,,59,77
20790,note_on,30,0,5,,,,,,,,0,,,74,0
20799,note_on,39,0,6,,,,,,,,0,,,59,0
20820,note_on,30,0,5,,,,,,,,0,,,73,70
20820,note_on,21,0,6,,,,,,,,0,,,57,84
20832,note_on,654,0,1,,,,,,,,1,,,64,0
20832,note_on,1152,0,3,,,,,,,,1,,,57,0
20832,note_on,1152,0,2,,,,,,,,1,,,61,0
20860,note_on,40,0,6,,,,,,,,0,,,57,0
20868,note_on,48,0,5,,,,,,,,0,,,73,0
20880,note_on,12,0,5,,,,,,,,0,,,71,79
20880,note_on,20,0,6,,,,,,,,0,,,56,93
20929,note_on,49,0,5,,,,,,,,0,,,71,0
20939,note_on,59,0,6,,,,,,,,0,,,56,0
20940,note_on,11,0,5,,,,,,,,0,,,74,79
20989,note_on,49,0,5,,,,,,,,0,,,74,0
21000,note_on,61,0,6,,,,,,,,0,,,54,77
21000,note_on,11,0,5,,,,,,,,0,,,71,90
21045,note_on,45,0,5,,,,,,,,0,,,71,0
21057,note_on,57,0,6,,,,,,,,0,,,54,0
21060,note_on,15,0,5,,,,,,,,0,,,69,79
21091,note_on,31,0,5,,,,,,,,0,,,69,0
21120,note_on,29,0,5,,,,,,,,0,,,68,75
21120,note_on,63,0,6,,,,,,,,0,,,52,89
21169,note_on,49,0,5,,,,,,,,0,,,68,0
21179,note_on,59,0,6,,,,,,,,0,,,52,0
21180,note_on,11,0,5,,,,,,,,0,,,71,75
21217,note_on,37,0,5,,,,,,,,0,,,71,0
21240,note_on,61,0,6,,,,,,,,0,,,54,89
21240,note_on,23,0,5,,,,,,,,0,,,74,82
21288,note_on,48,0,5,,,,,,,,0,,,74,0
21297,note_on,57,0,6,,,,,,,,0,,,54,0
21300,note_on,12,0,5,,,,,,,,0,,,78,82
21346,note_on,46,0,5,,,,,,,,0,,,78,0
21360,note_on,14,0,5,,,,,,,,0,,,76,82
21360,note_on,63,0,6,,,,,,,,0,,,56,81
21387,note_on,27,0,5,,,,,,,,0,,,76,0
21390,note_on,3,0,5,,,,,,,,0,,,78,82
21415,note_on,25,0,5,,,,,,,,0,,,78,0
21420,note_on,5,0,5,,,,,,,,0,,,76,75
21480,note_on,120,0,6,,,,,,,,0,,,52,89
21486,note_on,66,0,5,,,,,,,,0,,,76,0
21487,note_on,7,0,6,,,,,,,,0,,,56,0
21540,note_on,54,0,5,,,,,,,,0,,,74,85
21543,note_on,56,0,6,,,,,,,,0,,,52,0
21561,control_change,1881,0,4,,,,,,,,10,7,95,,
21573,note_on,33,0,5,,,,,,,,0,,,74,0
21600,note_on,27,0,5,,,,,,,,0,,,73,75
21600,note_on,39,0,4,,,,,,,,10,,,45,39
21600,note_on,57,0,6,,,,,,,,0,,,57,105
21646,note_on,46,0,5,,,,,,,,0,,,73,0
21660,note_on,14,0,5,,,,,,,,0,,,76,96
21671,control_change,71,0,4,,,,,,,,10,7,97,,
21698,note_on,38,0,5,,,,,,,,0,,,76,0
21713,note_on,113,0,6,,,,,,,,0,,,57,0
21713,note_on,42,0,4,,,,,,,,10,,,45,0
21720,note_on,0,0,1,,,,,,,,1,,,64,79
21720,control_change,888,0,1,,,,,,,,1,7,99,,
21720,note_on,888,0,2,,,,,,,,1,,,61,22
21720,note_on,888,0,3,,,,,,,,1,,,57,39
21720,note_on,22,0,5,,,,,,,,0,,,80,96
21776,note_on,56,0,5,,,,,,,,0,,,80,0
21780,note_on,4,0,5,,,,,,,,0,,,81,88
21781,note_on,61,0,3,,,,,,,,1,,,57,0
21784,note_on,64,0,1,,,,,,,,1,,,64,0
21791,note_on,71,0,2,,,,,,,,1,,,61,0
21828,note_on,48,0,5,,,,,,,,0,,,81,0
21840,note_on,12,0,5,,,,,,,,0,,,71,90
21840,note_on,127,0,4,,,,,,,,10,,,44,30
21840,note_on,127,0,6,,,,,,,,0,,,56,127
21892,note_on,52,0,5,,,,,,,,0,,,71,0
21900,note_on,8,0,5,,,,,,,,0,,,76,90
21927,control_change,87,0,4,,,,,,,,10,7,98,,
21936,control_change,9,0,4,,,,,,,,10,7,100,,
21948,note_on,48,0,5,,,,,,,,0,,,76,0
21953,note_on,113,0,6,,,,,,,,0,,,56,0
21953,note_on,17,0,4,,,,,,,,10,,,44,0
21960,note_on,12,0,5,,,,,,,,0,,,80,82
21960,note_on,176,0,1,,,,,,,,1,,,64,58
21960,note_on,179,0,3,,,,,,,,1,,,56,43
21960,note_on,169,0,2,,,,,,,,1,,,61,1
22012,note_on,52,0,5,,,,,,,,0,,,80,0
22020,note_on,8,0,5,,,,,,,,0,,,81,82
22021,note_on,61,0,1,,,,,,,,1,,,64,0
22037,note_on,77,0,3,,,,,,,,1,,,56,0
22042,note_on,82,0,2,,,,,,,,1,,,61,0
22065,note_on,45,0,5,,,,,,,,0,,,81,0
22080,note_on,15,0,5,,,,,,,,0,,,69,75
22080,note_on,127,0,6,,,,,,,,0,,,54,111
22080,note_on,127,0,4,,,,,,,,10,,,42,30
22129,note_on,49,0,5,,,,,,,,0,,,69,0
22140,note_on,11,0,5,,,,,,,,0,,,81,82
22191,note_on,51,0,5,,,,,,,,0,,,81,0
22193,note_on,113,0,4,,,,,,,,10,,,42,0
22193,control_change,0,0,4,,,,,,,,10,7,101,,
22193,note_on,113,0,6,,,,,,,,0,,,54,0
22200,note_on,158,0,2,,,,,,,,1,,,61,18
22200,note_on,179,0,1,,,,,,,,1,,,64,58
22200,note_on,163,0,3,,,,,,,,1,,,54,30
22200,note_on,9,0,5,,,,,,,,0,,,80,88
22255,note_on,55,0,1,,,,,,,,1,,,64,0
22255,note_on,55,0,5,,,,,,,,0,,,80,0
22260,note_on,5,0,5,,,,,,,,0,,,81,82
22267,note_on,67,0,2,,,,,,,,1,,,61,0
22268,note_on,68,0,3,,,,,,,,1,,,54,0
22317,note_on,57,0,5,,,,,,,,0,,,81,0
22320,note_on,127,0,4,,,,,,,,10,,,35,35
22320,note_on,3,0,5,,,,,,,,0,,,71,66
22320,note_on,127,0,6,,,,,,,,0,,,47,108
22341,control_change,21,0,4,,,,,,,,10,7,99,,
22373,note_on,53,0,5,,,,,,,,0,,,71,0
22380,note_on,7,0,5,,,,,,,,0,,,75,102
22397,control_change,56,0,4,,,,,,,,10,7,100,,
22433,note_on,36,0,4,,,,,,,,10,,,35,0
22433,note_on,53,0,5,,,,,,,,0,,,75,0
22433,note_on,113,0,6,,,,,,,,0,,,47,0
22440,note_on,172,0,3,,,,,,,,1,,,59,39
22440,note_on,7,0,5,,,,,,,,0,,,78,102
22440,note_on,185,0,1,,,,,,,,1,,,63,58
22440,note_on,173,0,2,,,,,,,,1,,,59,26
22493,note_on,53,0,1,,,,,,,,1,,,63,0
22493,note_on,53,0,5,,,,,,,,0,,,78,0
22500,note_on,60,0,2,,,,,,,,1,,,59,0
22500,note_on,7,0,5,,,,,,,,0,,,81,85
22502,note_on,62,0,3,,,,,,,,1,,,59,0
22550,note_on,50,0,5,,,,,,,,0,,,81,0
22560,note_on,67,0,1,,,,,,,,1,,,64,39
22560,note_on,127,0,6,,,,,,,,0,,,52,102
22560,note_on,58,0,3,,,,,,,,1,,,52,26
22560,note_on,10,0,5,,,,,,,,0,,,80,82
22560,note_on,60,0,2,,,,,,,,1,,,59,14
22560,note_on,127,0,4,,,,,,,,10,,,40,43
22612,note_on,52,0,5,,,,,,,,0,,,80,0
22620,note_on,8,0,5,,,,,,,,0,,,76,73
22661,control_change,101,0,1,,,,,,,,1,7,100,,
22661,control_change,101,0,4,,,,,,,,10,7,100,,
22664,note_on,44,0,5,,,,,,,,0,,,76,0
22672,control_change,11,0,1,,,,,,,,1,7,101,,
22673,note_on,113,0,2,,,,,,,,1,,,59,0
22673,note_on,113,0,3,,,,,,,,1,,,52,0
22673,note_on,1,0,1,,,,,,,,1,,,64,0
22673,note_on,113,0,6,,,,,,,,0,,,52,0
22673,note_on,12,0,4,,,,,,,,10,,,40,0
22678,control_change,5,0,4,,,,,,,,10,7,101,,
22680,note_on,16,0,5,,,,,,,,0,,,71,82
22680,control_change,7,0,1,,,,,,,,1,7,103,,
22711,note_on,31,0,5,,,,,,,,0,,,71,0
22740,note_on,29,0,5,,,,,,,,0,,,68,93
22776,note_on,36,0,5,,,,,,,,0,,,68,0
22800,note_on,24,0,5,,,,,,,,0,,,64,79
22833,control_change,153,0,1,,,,,,,,1,7,104,,
22840,note_on,40,0,5,,,,,,,,0,,,64,0
22859,control_change,26,0,1,,,,,,,,1,7,106,,
22860,note_on,20,0,5,,,,,,,,0,,,71,82
22860,note_on,187,0,6,,,,,,,,0,,,54,93
22894,control_change,35,0,1,,,,,,,,1,7,107,,
22898,note_on,38,0,5,,,,,,,,0,,,71,0
22916,note_on,56,0,6,,,,,,,,0,,,54,0
22920,note_on,4,0,6,,,,,,,,0,,,52,102
22920,note_on,22,0,5,,,,,,,,0,,,73,73
22955,control_change,61,0,1,,,,,,,,1,7,109,,
22968,note_on,48,0,5,,,,,,,,0,,,73,0
22975,note_on,55,0,6,,,,,,,,0,,,52,0
22980,note_on,12,0,5,,,,,,,,0,,,74,102
22980,note_on,5,0,6,,,,,,,,0,,,50,81
23024,note_on,44,0,5,,,,,,,,0,,,74,0
23031,control_change,353,0,4,,,,,,,,10,7,103,,
23037,note_on,57,0,6,,,,,,,,0,,,50,0
23040,note_on,3,0,6,,,,,,,,0,,,49,64
23040,note_on,367,0,3,,,,,,,,1,,,61,127
23040,note_on,85,0,1,,,,,,,,1,,,76,108
23040,note_on,16,0,5,,,,,,,,0,,,76,93
23040,note_on,367,0,2,,,,,,,,1,,,68,77
23040,note_on,9,0,4,,,,,,,,10,,,37,127
23054,aftertouch,14,0,5,,,,,,,,0,,12,,
23055,aftertouch,15,0,3,,,,,,,,1,,12,,
23055,aftertouch,15,0,4,,,,,,,,10,,12,,
23055,aftertouch,15,0,1,,,,,,,,1,,12,,
23055,aftertouch,1,0,5,,,,,,,,0,,12,,
23055,aftertouch,15,0,6,,,,,,,,0,,12,,
23055,aftertouch,15,0,2,,,,,,,,1,,12,,
23065,aftertouch,10,0,1,,,,,,,,1,,0,,
23067,aftertouch,2,0,1,,,,,,,,1,,6,,
23067,aftertouch,12,0,6,,,,,,,,0,,6,,
23067,aftertouch,12,0,5,,,,,,,,0,,6,,
23067,aftertouch,0,0,5,,,,,,,,0,,6,,
23067,aftertouch,12,0,4,,,,,,,,10,,6,,
23067,aftertouch,12,0,2,,,,,,,,1,,6,,
23067,aftertouch,12,0,3,,,,,,,,1,,6,,
23069,note_on,2,0,4,,,,,,,,10,,,37,0
23070,note_on,3,0,3,,,,,,,,1,,,61,0
23073,aftertouch,0,0,1,,,,,,,,1,,0,,
23073,note_on,6,0,2,,,,,,,,1,,,68,0
23073,note_on,6,0,1,,,,,,,,1,,,76,0
23079,note_on,12,0,5,,,,,,,,0,,,76,0
23097,note_on,30,0,6,,,,,,,,0,,,49,0
23100,note_on,3,0,6,,,,,,,,0,,,50,64
23100,note_on,27,0,1,,,,,,,,1,,,76,117
23100,note_on,30,0,3,,,,,,,,1,,,61,105
23100,note_on,21,0,5,,,,,,,,0,,,64,75
23100,note_on,31,0,4,,,,,,,,10,,,38,117
23100,note_on,27,0,2,,,,,,,,1,,,68,91
23125,note_on,25,0,3,,,,,,,,1,,,61,0
23128,note_on,28,0,1,,,,,,,,1,,,76,0
23132,note_on,32,0,2,,,,,,,,1,,,68,0
23136,note_on,36,0,5,,,,,,,,0,,,64,0
23144,note_on,44,0,4,,,,,,,,10,,,38,0
23157,note_on,57,0,6,,,,,,,,0,,,50,0
23160,note_on,24,0,5,,,,,,,,0,,,76,90
23160,note_on,16,0,4,,,,,,,,10,,,40,93
23160,note_on,3,0,6,,,,,,,,0,,,52,84
23160,note_on,35,0,3,,,,,,,,1,,,61,66
23160,note_on,28,0,2,,,,,,,,1,,,68,102
23160,note_on,32,0,1,,,,,,,,1,,,76,93
23186,note_on,26,0,3,,,,,,,,1,,,61,0
23188,note_on,28,0,2,,,,,,,,1,,,68,0
23188,note_on,28,0,1,,,,,,,,1,,,76,0
23206,note_on,46,0,5,,,,,,,,0,,,76,0
23213,note_on,53,0,6,,,,,,,,0,,,52,0
23217,note_on,57,0,4,,,,,,,,10,,,40,0
23220,note_on,34,0,3,,,,,,,,1,,,61,86
23220,note_on,32,0,1,,,,,,,,1,,,76,117
23220,note_on,14,0,5,,,,,,,,0,,,64,90
23220,note_on,32,0,2,,,,,,,,1,,,68,124
23220,note_on,3,0,4,,,,,,,,10,,,42,80
23220,note_on,7,0,6,,,,,,,,0,,,54,111
23239,note_on,19,0,1,,,,,,,,1,,,76,0
23240,note_on,20,0,3,,,,,,,,1,,,61,0
23247,note_on,27,0,2,,,,,,,,1,,,68,0
23256,control_change,17,0,1,,,,,,,,1,7,110,,
23258,note_on,38,0,5,,,,,,,,0,,,64,0
23265,note_on,45,0,6,,,,,,,,0,,,54,0
23268,note_on,48,0,4,,,,,,,,10,,,42,0
23280,note_on,24,0,1,,,,,,,,1,,,76,127
23280,note_on,33,0,2,,,,,,,,1,,,68,127
23280,note_on,22,0,5,,,,,,,,0,,,76,117
23280,note_on,12,0,4,,,,,,,,10,,,44,127
23280,note_on,40,0,3,,,,,,,,1,,,61,93
23280,note_on,15,0,6,,,,,,,,0,,,56,64
23300,note_on,20,0,1,,,,,,,,1,,,76,0
23301,note_on,21,0,3,,,,,,,,1,,,61,0
23306,note_on,26,0,2,,,,,,,,1,,,68,0
23316,note_on,36,0,4,,,,,,,,10,,,44,0
23328,note_on,48,0,5,,,,,,,,0,,,76,0
23337,note_on,57,0,6,,,,,,,,0,,,56,0
23340,note_on,34,0,2,,,,,,,,1,,,68,125
23340,note_on,40,0,1,,,,,,,,1,,,76,127
23340,note_on,12,0,5,,,,,,,,0,,,64,96
23340,note_on,3,0,6,,,,,,,,0,,,57,102
23340,note_on,24,0,4,,,,,,,,10,,,45,111
23340,note_on,39,0,3,,,,,,,,1,,,61,127
23359,note_on,19,0,1,,,,,,,,1,,,76,0
23363,note_on,23,0,3,,,,,,,,1,,,61,0
23365,note_on,25,0,2,,,,,,,,1,,,68,0
23381,note_on,41,0,4,,,,,,,,10,,,45,0
23386,note_on,46,0,6,,,,,,,,0,,,57,0
23388,note_on,48,0,5,,,,,,,,0,,,64,0
23400,note_on,37,0,3,,,,,,,,1,,,61,127
23400,note_on,14,0,6,,,,,,,,0,,,59,79
23400,note_on,35,0,2,,,,,,,,1,,,68,125
23400,note_on,19,0,4,,,,,,,,10,,,47,89
23400,note_on,12,0,5,,,,,,,,0,,,76,110
23400,note_on,41,0,1,,,,,,,,1,,,76,127
23407,aftertouch,7,0,3,,,,,,,,1,,0,,
23409,aftertouch,9,0,4,,,,,,,,10,,38,,
23409,aftertouch,2,0,3,,,,,,,,1,,38,,
23409,control_change,0,0,4,,,,,,,,10,7,104,,
23418,note_on,18,0,1,,,,,,,,1,,,76,0
23418,aftertouch,9,0,3,,,,,,,,1,,0,,
23420,aftertouch,2,0,3,,,,,,,,1,,19,,
23420,aftertouch,11,0,4,,,,,,,,10,,19,,
23424,note_on,4,0,3,,,,,,,,1,,,61,0
23424,note_on,24,0,2,,,,,,,,1,,,68,0
23429,aftertouch,5,0,3,,,,,,,,1,,0,,
23432,aftertouch,3,0,3,,,,,,,,1,,12,,
23432,aftertouch,12,0,4,,,,,,,,10,,12,,
23437,note_on,37,0,6,,,,,,,,0,,,59,0
23438,note_on,6,0,4,,,,,,,,10,,,47,0
23442,aftertouch,10,0,3,,,,,,,,1,,0,,
23444,aftertouch,2,0,3,,,,,,,,1,,6,,
23444,aftertouch,6,0,4,,,,,,,,10,,6,,
23450,note_on,50,0,5,,,,,,,,0,,,76,0
23454,aftertouch,10,0,3,,,,,,,,1,,0,,
23456,aftertouch,2,0,3,,,,,,,,1,,3,,
23456,aftertouch,12,0,4,,,,,,,,10,,3,,
23460,note_on,36,0,2,,,,,,,,1,,,68,127
23460,note_on,42,0,1,,,,,,,,1,,,76,127
23460,note_on,4,0,3,,,,,,,,1,,,61,127
23460,note_on,23,0,6,,,,,,,,0,,,61,81
23460,note_on,4,0,4,,,,,,,,10,,,49,124
23460,note_on,10,0,5,,,,,,,,0,,,64,127
23464,aftertouch,4,0,3,,,,,,,,1,,0,,
23475,note_on,15,0,1,,,,,,,,1,,,76,0
23487,note_on,23,0,3,,,,,,,,1,,,61,0
23487,note_on,27,0,2,,,,,,,,1,,,68,0
23490,note_on,30,0,6,,,,,,,,0,,,61,0
23504,control_change,44,0,4,,,,,,,,10,7,103,,
23508,note_on,48,0,5,,,,,,,,0,,,64,0
23514,note_on,10,0,4,,,,,,,,10,,,49,0
23518,control_change,4,0,4,,,,,,,,10,7,102,,
23518,aftertouch,31,0,3,,,,,,,,1,,64,,
23520,note_on,30,0,6,,,,,,,,0,,,54,93
23520,note_on,2,0,3,,,,,,,,1,,,61,127
23520,note_on,2,0,4,,,,,,,,10,,,42,127
23520,note_on,33,0,2,,,,,,,,1,,,70,105
23520,note_on,45,0,1,,,,,,,,1,,,76,126
23520,note_on,12,0,5,,,,,,,,0,,,76,127
23527,control_change,7,0,4,,,,,,,,10,7,100,,
23528,aftertouch,8,0,5,,,,,,,,0,,38,,
23529,aftertouch,9,0,6,,,,,,,,0,,38,,
23529,aftertouch,1,0,5,,,,,,,,0,,38,,
23539,aftertouch,10,0,5,,,,,,,,0,,19,,
23540,aftertouch,1,0,5,,,,,,,,0,,19,,
23540,aftertouch,11,0,6,,,,,,,,0,,19,,
23541,control_change,14,0,4,,,,,,,,10,7,99,,
23552,aftertouch,12,0,5,,,,,,,,0,,12,,
23552,aftertouch,0,0,5,,,,,,,,0,,12,,
23552,aftertouch,12,0,6,,,,,,,,0,,12,,
23564,aftertouch,12,0,6,,,,,,,,0,,6,,
23564,aftertouch,0,0,5,,,,,,,,0,,6,,
23564,aftertouch,12,0,5,,,,,,,,0,,6,,
23565,control_change,24,0,4,,,,,,,,10,7,97,,
23565,note_on,45,0,1,,,,,,,,1,,,76,0
23572,note_on,8,0,5,,,,,,,,0,,,76,0
23575,aftertouch,3,0,5,,,,,,,,0,,3,,
23576,aftertouch,12,0,6,,,,,,,,0,,3,,
23576,aftertouch,1,0,5,,,,,,,,0,,3,,
23579,control_change,14,0,4,,,,,,,,10,7,96,,
23580,note_on,4,0,5,,,,,,,,0,,,73,102
23580,note_on,4,0,6,,,,,,,,0,,,58,69
23587,control_change,8,0,4,,,,,,,,10,7,94,,
23589,note_on,9,0,6,,,,,,,,0,,,54,0
23599,control_change,12,0,4,,,,,,,,10,7,93,,
23627,control_change,28,0,4,,,,,,,,10,7,91,,
23633,note_on,113,0,3,,,,,,,,1,,,61,0
23633,note_on,6,0,4,,,,,,,,10,,,42,0
23633,note_on,113,0,2,,,,,,,,1,,,70,0
23634,note_on,54,0,5,,,,,,,,0,,,73,0
23635,note_on,46,0,6,,,,,,,,0,,,58,0
23640,note_on,6,0,5,,,,,,,,0,,,70,102
23640,note_on,5,0,6,,,,,,,,0,,,61,89
23692,note_on,52,0,5,,,,,,,,0,,,70,0
23696,note_on,56,0,6,,,,,,,,0,,,61,0
23700,note_on,8,0,5,,,,,,,,0,,,66,88
23700,note_on,4,0,6,,,,,,,,0,,,64,77
23726,note_on,26,0,6,,,,,,,,0,,,64,0
23727,note_on,27,0,5,,,,,,,,0,,,66,0
23760,note_on,33,0,5,,,,,,,,0,,,66,88
23760,note_on,34,0,6,,,,,,,,0,,,64,114
23764,control_change,131,0,4,,,,,,,,10,7,90,,
23773,control_change,9,0,4,,,,,,,,10,7,88,,
23797,control_change,24,0,4,,,,,,,,10,7,87,,
23815,note_on,55,0,5,,,,,,,,0,,,66,0
23816,note_on,56,0,6,,,,,,,,0,,,64,0
23820,note_on,5,0,5,,,,,,,,0,,,70,110
23820,note_on,4,0,6,,,,,,,,0,,,61,89
23836,control_change,39,0,4,,,,,,,,10,7,85,,
23854,control_change,289,0,1,,,,,,,,1,7,108,,
23855,control_change,19,0,4,,,,,,,,10,7,84,,
23869,note_on,49,0,5,,,,,,,,0,,,70,0
23879,note_on,59,0,6,,,,,,,,0,,,61,0
23880,note_on,11,0,5,,,,,,,,0,,,73,102
23880,note_on,1,0,6,,,,,,,,0,,,58,58
23928,note_on,48,0,5,,,,,,,,0,,,73,0
23937,note_on,57,0,6,,,,,,,,0,,,58,0
23940,note_on,12,0,5,,,,,,,,0,,,76,102
23940,note_on,3,0,6,,,,,,,,0,,,54,89
23977,note_on,37,0,6,,,,,,,,0,,,54,0
23985,note_on,45,0,5,,,,,,,,0,,,76,0
24000,note_on,145,0,4,,,,,,,,10,,,35,77
24000,note_on,15,0,5,,,,,,,,0,,,74,102
24000,note_on,367,0,3,,,,,,,,1,,,66,58
24000,note_on,146,0,1,,,,,,,,1,,,74,127
24000,note_on,367,0,2,,,,,,,,1,,,71,102
24000,note_on,23,0,6,,,,,,,,0,,,47,72
24004,control_change,4,0,1,,,,,,,,1,7,109,,
24024,note_on,24,0,3,,,,,,,,1,,,66,0
24026,note_on,22,0,1,,,,,,,,1,,,74,0
24034,note_on,34,0,2,,,,,,,,1,,,71,0
24048,note_on,48,0,5,,,,,,,,0,,,74,0
24054,aftertouch,54,0,4,,,,,,,,10,,51,,
24057,aftertouch,0,0,4,,,,,,,,10,,0,,
24057,note_on,3,0,4,,,,,,,,10,,,35,0
24059,note_on,59,0,6,,,,,,,,0,,,47,0
24060,note_on,1,0,6,,,,,,,,0,,,49,111
24060,note_on,34,0,1,,,,,,,,1,,,74,127
24060,note_on,3,0,4,,,,,,,,10,,,37,125
24060,note_on,12,0,5,,,,,,,,0,,,62,63
24060,note_on,26,0,2,,,,,,,,1,,,71,99
24060,note_on,36,0,3,,,,,,,,1,,,66,39
24061,aftertouch,1,0,4,,,,,,,,10,,37,,
24068,control_change,7,0,4,,,,,,,,10,7,85,,
24069,aftertouch,1,0,4,,,,,,,,10,,0,,
24072,aftertouch,3,0,4,,,,,,,,10,,18,,
24072,aftertouch,12,0,5,,,,,,,,0,,18,,
24072,aftertouch,12,0,6,,,,,,,,0,,18,,
24072,aftertouch,0,0,5,,,,,,,,0,,18,,
24081,aftertouch,9,0,4,,,,,,,,10,,0,,
24083,aftertouch,0,0,5,,,,,,,,0,,9,,
24083,aftertouch,11,0,5,,,,,,,,0,,9,,
24083,aftertouch,2,0,4,,,,,,,,10,,9,,
24083,aftertouch,11,0,6,,,,,,,,0,,9,,
24085,aftertouch,2,0,4,,,,,,,,10,,0,,
24085,note_on,25,0,1,,,,,,,,1,,,74,0
24085,note_on,25,0,3,,,,,,,,1,,,66,0
24089,control_change,4,0,4,,,,,,,,10,7,86,,
24093,note_on,4,0,4,,,,,,,,10,,,37,0
24095,note_on,35,0,2,,,,,,,,1,,,71,0
24099,note_on,16,0,5,,,,,,,,0,,,62,0
24104,control_change,11,0,4,,,,,,,,10,7,88,,
24113,control_change,9,0,4,,,,,,,,10,7,89,,
24117,note_on,34,0,6,,,,,,,,0,,,49,0
24120,note_on,25,0,2,,,,,,,,1,,,71,123
24120,note_on,3,0,6,,,,,,,,0,,,50,86
24120,note_on,35,0,3,,,,,,,,1,,,66,72
24120,note_on,35,0,1,,,,,,,,1,,,74,124
24120,note_on,7,0,4,,,,,,,,10,,,38,108
24120,note_on,21,0,5,,,,,,,,0,,,74,90
24142,note_on,22,0,1,,,,,,,,1,,,74,0
24146,note_on,26,0,3,,,,,,,,1,,,66,0
24146,control_change,26,0,4,,,,,,,,10,7,91,,
24152,control_change,10,0,1,,,,,,,,1,7,110,,
24154,note_on,34,0,2,,,,,,,,1,,,71,0
24158,control_change,12,0,4,,,,,,,,10,7,92,,
24164,note_on,6,0,4,,,,,,,,10,,,38,0
24166,note_on,46,0,6,,,,,,,,0,,,50,0
24168,note_on,48,0,5,,,,,,,,0,,,74,0
24176,control_change,12,0,4,,,,,,,,10,7,94,,
24180,note_on,14,0,6,,,,,,,,0,,,52,89
24180,note_on,12,0,5,,,,,,,,0,,,62,82
24180,note_on,34,0,3,,,,,,,,1,,,66,84
24180,note_on,28,0,1,,,,,,,,1,,,74,126
24180,note_on,26,0,2,,,,,,,,1,,,71,117
24180,note_on,4,0,4,,,,,,,,10,,,40,93
24201,control_change,21,0,4,,,,,,,,10,7,95,,
24203,note_on,23,0,3,,,,,,,,1,,,66,0
24204,note_on,24,0,1,,,,,,,,1,,,74,0
24212,note_on,32,0,2,,,,,,,,1,,,71,0
24218,note_on,17,0,4,,,,,,,,10,,,40,0
24219,note_on,39,0,5,,,,,,,,0,,,62,0
24222,note_on,42,0,6,,,,,,,,0,,,52,0
24240,note_on,22,0,4,,,,,,,,10,,,42,127
24240,note_on,36,0,1,,,,,,,,1,,,74,127
24240,note_on,28,0,2,,,,,,,,1,,,69,102
24240,note_on,37,0,3,,,,,,,,1,,,66,126
24240,note_on,18,0,6,,,,,,,,0,,,54,61
24240,note_on,21,0,5,,,,,,,,0,,,74,124
24252,control_change,12,0,4,,,,,,,,10,7,97,,
24261,note_on,21,0,3,,,,,,,,1,,,66,0
24264,note_on,24,0,1,,,,,,,,1,,,74,0
24272,note_on,32,0,2,,,,,,,,1,,,69,0
24281,note_on,29,0,4,,,,,,,,10,,,42,0
24289,note_on,49,0,5,,,,,,,,0,,,74,0
24295,note_on,55,0,6,,,,,,,,0,,,54,0
24300,note_on,19,0,4,,,,,,,,10,,,44,99
24300,note_on,11,0,5,,,,,,,,0,,,62,102
24300,note_on,39,0,3,,,,,,,,1,,,66,127
24300,note_on,36,0,1,,,,,,,,1,,,74,127
24300,note_on,28,0,2,,,,,,,,1,,,69,84
24300,note_on,5,0,6,,,,,,,,0,,,56,77
24301,control_change,1,0,4,,,,,,,,10,7,98,,
24319,control_change,18,0,4,,,,,,,,10,7,100,,
24321,note_on,21,0,1,,,,,,,,1,,,74,0
24321,note_on,21,0,3,,,,,,,,1,,,66,0
24328,note_on,28,0,2,,,,,,,,1,,,69,0
24342,note_on,42,0,5,,,,,,,,0,,,62,0
24343,note_on,24,0,4,,,,,,,,10,,,44,0
24347,control_change,4,0,4,,,,,,,,10,7,101,,
24359,note_on,59,0,6,,,,,,,,0,,,56,0
24360,note_on,39,0,1,,,,,,,,1,,,74,120
24360,note_on,18,0,5,,,,,,,,0,,,74,127
24360,note_on,13,0,4,,,,,,,,10,,,45,114
24360,note_on,39,0,3,,,,,,,,1,,,66,127
24360,note_on,32,0,2,,,,,,,,1,,,69,124
24360,note_on,1,0,6,,,,,,,,0,,,57,77
24363,aftertouch,3,0,6,,,,,,,,0,,6,,
24363,aftertouch,0,0,5,,,,,,,,0,,6,,
24363,aftertouch,3,0,3,,,,,,,,1,,6,,
24363,aftertouch,3,0,5,,,,,,,,0,,6,,
24364,aftertouch,4,0,4,,,,,,,,10,,6,,
24372,aftertouch,9,0,3,,,,,,,,1,,0,,
24373,aftertouch,10,0,5,,,,,,,,0,,3,,
24374,aftertouch,11,0,6,,,,,,,,0,,3,,
24374,aftertouch,2,0,3,,,,,,,,1,,3,,
24374,aftertouch,1,0,5,,,,,,,,0,,3,,
24374,aftertouch,10,0,4,,,,,,,,10,,3,,
24377,aftertouch,3,0,3,,,,,,,,1,,0,,
24381,note_on,21,0,1,,,,,,,,1,,,74,0
24382,note_on,5,0,3,,,,,,,,1,,,66,0
24393,note_on,33,0,2,,,,,,,,1,,,69,0
24397,note_on,23,0,6,,,,,,,,0,,,57,0
24399,control_change,25,0,4,,,,,,,,10,7,103,,
24406,note_on,7,0,4,,,,,,,,10,,,45,0
24411,note_on,37,0,5,,,,,,,,0,,,74,0
24420,note_on,23,0,6,,,,,,,,0,,,59,69
24420,note_on,27,0,2,,,,,,,,1,,,69,123
24420,note_on,14,0,4,,,,,,,,10,,,47,111
24420,note_on,38,0,3,,,,,,,,1,,,66,125
24420,note_on,39,0,1,,,,,,,,1,,,74,127
24420,note_on,9,0,5,,,,,,,,0,,,62,127
24422,control_change,2,0,4,,,,,,,,10,7,105,,
24437,control_change,15,0,4,,,,,,,,10,7,103,,
24438,note_on,18,0,1,,,,,,,,1,,,74,0
24442,note_on,22,0,3,,,,,,,,1,,,66,0
24447,control_change,10,0,4,,,,,,,,10,7,104,,
24448,control_change,1,0,4,,,,,,,,10,7,102,,
24456,control_change,8,0,4,,,,,,,,10,7,100,,
24458,control_change,2,0,4,,,,,,,,10,7,106,,
24460,note_on,40,0,5,,,,,,,,0,,,62,0
24464,note_on,44,0,2,,,,,,,,1,,,69,0
24465,control_change,7,0,4,,,,,,,,10,7,99,,
24470,note_on,5,0,4,,,,,,,,10,,,47,0
24476,note_on,56,0,6,,,,,,,,0,,,59,0
24480,note_on,4,0,6,,,,,,,,0,,,52,72
24480,note_on,10,0,4,,,,,,,,10,,,40,117
24480,note_on,16,0,2,,,,,,,,1,,,68,111
24480,note_on,20,0,5,,,,,,,,0,,,74,127
24480,note_on,42,0,1,,,,,,,,1,,,74,127
24480,note_on,38,0,3,,,,,,,,1,,,64,127
24482,control_change,2,0,4,,,,,,,,10,7,97,,
24491,control_change,9,0,4,,,,,,,,10,7,96,,
24500,control_change,9,0,4,,,,,,,,10,7,94,,
24508,control_change,8,0,4,,,,,,,,10,7,93,,
24536,note_on,56,0,6,,,,,,,,0,,,52,0
24536,note_on,56,0,1,,,,,,,,1,,,74,0
24537,note_on,57,0,5,,,,,,,,0,,,74,0
24540,note_on,3,0,5,,,,,,,,0,,,71,98
24540,note_on,4,0,6,,,,,,,,0,,,56,61
24589,note_on,49,0,5,,,,,,,,0,,,71,0
24593,note_on,85,0,4,,,,,,,,10,,,40,0
24593,note_on,113,0,2,,,,,,,,1,,,68,0
24593,note_on,113,0,3,,,,,,,,1,,,64,0
24596,note_on,56,0,6,,,,,,,,0,,,56,0
24599,control_change,6,0,4,,,,,,,,10,7,91,,
24600,note_on,11,0,5,,,,,,,,0,,,68,82
24600,note_on,4,0,6,,,,,,,,0,,,59,74
24654,note_on,54,0,6,,,,,,,,0,,,59,0
24657,note_on,57,0,5,,,,,,,,0,,,68,0
24660,note_on,3,0,5,,,,,,,,0,,,64,79
24660,note_on,6,0,6,,,,,,,,0,,,62,77
24686,note_on,26,0,5,,,,,,,,0,,,64,0
24689,note_on,29,0,6,,,,,,,,0,,,62,0
24720,note_on,34,0,5,,,,,,,,0,,,64,93
24720,note_on,31,0,6,,,,,,,,0,,,62,79
24764,control_change,165,0,4,,,,,,,,10,7,90,,
24769,note_on,49,0,5,,,,,,,,0,,,64,0
24776,note_on,56,0,6,,,,,,,,0,,,62,0
24780,note_on,4,0,6,,,,,,,,0,,,59,66
24780,note_on,11,0,5,,,,,,,,0,,,68,82
24799,control_change,35,0,4,,,,,,,,10,7,88,,
24834,note_on,54,0,5,,,,,,,,0,,,68,0
24836,note_on,56,0,6,,,,,,,,0,,,59,0
24840,note_on,4,0,6,,,,,,,,0,,,56,89
24840,note_on,6,0,5,,,,,,,,0,,,71,96
24844,control_change,45,0,4,,,,,,,,10,7,87,,
24894,note_on,54,0,5,,,,,,,,0,,,71,0
24895,note_on,55,0,6,,,,,,,,0,,,56,0
24900,note_on,5,0,6,,,,,,,,0,,,52,69
24900,note_on,6,0,5,,,,,,,,0,,,74,90
24928,note_on,28,0,6,,,,,,,,0,,,52,0
24957,note_on,57,0,5,,,,,,,,0,,,74,0
24960,note_on,367,0,3,,,,,,,,1,,,64,127
24960,note_on,424,0,1,,,,,,,,1,,,73,125
24960,note_on,116,0,4,,,,,,,,10,,,33,105
24960,note_on,367,0,2,,,,,,,,1,,,69,127
24960,note_on,32,0,6,,,,,,,,0,,,45,81
24960,note_on,3,0,5,,,,,,,,0,,,73,93
24988,note_on,28,0,1,,,,,,,,1,,,73,0
24989,note_on,29,0,3,,,,,,,,1,,,64,0
24990,note_on,30,0,2,,,,,,,,1,,,69,0
25004,note_on,44,0,4,,,,,,,,10,,,33,0
25008,note_on,48,0,5,,,,,,,,0,,,73,0
25017,note_on,57,0,6,,,,,,,,0,,,45,0
25020,note_on,12,0,5,,,,,,,,0,,,61,70
25020,note_on,16,0,4,,,,,,,,10,,,35,93
25020,note_on,3,0,6,,,,,,,,0,,,47,84
25020,note_on,31,0,3,,,,,,,,1,,,64,77
25020,note_on,32,0,1,,,,,,,,1,,,73,124
25020,note_on,30,0,2,,,,,,,,1,,,69,105
25045,control_change,25,0,4,,,,,,,,10,7,88,,
25045,note_on,25,0,1,,,,,,,,1,,,73,0
25045,note_on,25,0,2,,,,,,,,1,,,69,0
25048,note_on,28,0,3,,,,,,,,1,,,64,0
25056,control_change,11,0,4,,,,,,,,10,7,89,,
25059,note_on,3,0,4,,,,,,,,10,,,35,0
25062,note_on,42,0,5,,,,,,,,0,,,61,0
25075,note_on,55,0,6,,,,,,,,0,,,47,0
25080,note_on,35,0,2,,,,,,,,1,,,69,127
25080,note_on,35,0,1,,,,,,,,1,,,73,124
25080,note_on,32,0,3,,,,,,,,1,,,64,58
25080,note_on,5,0,6,,,,,,,,0,,,49,105
25080,note_on,18,0,5,,,,,,,,0,,,73,96
25080,note_on,21,0,4,,,,,,,,10,,,37,127
25106,note_on,26,0,1,,,,,,,,1,,,73,0
25107,note_on,27,0,2,,,,,,,,1,,,69,0
25110,note_on,30,0,3,,,,,,,,1,,,64,0
25112,control_change,32,0,4,,,,,,,,10,7,91,,
25125,note_on,13,0,4,,,,,,,,10,,,37,0
25125,note_on,45,0,6,,,,,,,,0,,,49,0
25134,note_on,54,0,5,,,,,,,,0,,,73,0
25140,note_on,15,0,6,,,,,,,,0,,,50,74
25140,note_on,15,0,4,,,,,,,,10,,,38,124
25140,note_on,6,0,5,,,,,,,,0,,,61,110
25140,note_on,30,0,3,,,,,,,,1,,,64,55
25140,note_on,33,0,2,,,,,,,,1,,,69,127
25140,note_on,34,0,1,,,,,,,,1,,,73,81
25145,control_change,5,0,4,,,,,,,,10,7,92,,
25163,note_on,23,0,2,,,,,,,,1,,,69,0
25164,note_on,24,0,1,,,,,,,,1,,,73,0
25169,note_on,29,0,3,,,,,,,,1,,,64,0
25178,note_on,38,0,5,,,,,,,,0,,,61,0
25182,control_change,0,0,4,,,,,,,,10,7,94,,
25182,note_on,37,0,4,,,,,,,,10,,,38,0
25194,note_on,54,0,6,,,,,,,,0,,,50,0
25200,note_on,37,0,2,,,,,,,,1,,,69,127
25200,note_on,18,0,4,,,,,,,,10,,,40,117
25200,note_on,6,0,6,,,,,,,,0,,,52,69
25200,note_on,36,0,1,,,,,,,,1,,,73,99
25200,note_on,31,0,3,,,,,,,,1,,,64,96
25200,note_on,22,0,5,,,,,,,,0,,,73,110
25224,note_on,24,0,1,,,,,,,,1,,,73,0
25225,note_on,25,0,2,,,,,,,,1,,,69,0
25225,control_change,25,0,4,,,,,,,,10,7,95,,
25228,note_on,28,0,3,,,,,,,,1,,,64,0
25238,note_on,13,0,4,,,,,,,,10,,,40,0
25244,note_on,44,0,5,,,,,,,,0,,,73,0
25252,note_on,52,0,6,,,,,,,,0,,,52,0
25260,note_on,32,0,3,,,,,,,,1,,,64,81
25260,note_on,36,0,1,,,,,,,,1,,,73,96
25260,note_on,22,0,4,,,,,,,,10,,,42,123
25260,note_on,16,0,5,,,,,,,,0,,,61,120
25260,note_on,35,0,2,,,,,,,,1,,,69,123
25260,note_on,8,0,6,,,,,,,,0,,,54,66
25282,control_change,22,0,4,,,,,,,,10,7,97,,
25283,note_on,23,0,1,,,,,,,,1,,,73,0
25285,note_on,25,0,2,,,,,,,,1,,,69,0
25286,note_on,26,0,3,,,,,,,,1,,,64,0
25296,note_on,14,0,4,,,,,,,,10,,,42,0
25302,note_on,42,0,5,,,,,,,,0,,,61,0
25314,note_on,54,0,6,,,,,,,,0,,,54,0
25320,note_on,35,0,2,,,,,,,,1,,,69,124
25320,note_on,37,0,1,,,,,,,,1,,,73,108
25320,note_on,24,0,4,,,,,,,,10,,,44,127
25320,note_on,18,0,5,,,,,,,,0,,,73,120
25320,note_on,6,0,6,,,,,,,,0,,,56,81
25320,note_on,34,0,3,,,,,,,,1,,,64,125
25326,control_change,6,0,4,,,,,,,,10,7,98,,
25341,control_change,15,0,4,,,,,,,,10,7,100,,
25342,note_on,22,0,1,,,,,,,,1,,,73,0
25345,note_on,25,0,2,,,,,,,,1,,,69,0
25346,note_on,26,0,3,,,,,,,,1,,,64,0
25361,note_on,20,0,4,,,,,,,,10,,,44,0
25373,control_change,12,0,4,,,,,,,,10,7,101,,
25374,note_on,54,0,5,,,,,,,,0,,,73,0
25380,note_on,38,0,1,,,,,,,,1,,,73,117
25380,note_on,34,0,3,,,,,,,,1,,,64,114
25380,note_on,6,0,5,,,,,,,,0,,,73,82
25380,note_on,7,0,4,,,,,,,,10,,,45,96
25380,note_on,35,0,2,,,,,,,,1,,,69,126
25396,note_on,76,0,6,,,,,,,,0,,,56,0
25401,note_on,21,0,1,,,,,,,,1,,,73,0
25402,note_on,22,0,2,,,,,,,,1,,,69,0
25405,note_on,25,0,3,,,,,,,,1,,,64,0
25418,note_on,38,0,5,,,,,,,,0,,,73,0
25430,note_on,50,0,4,,,,,,,,10,,,45,0
25440,note_on,35,0,3,,,,,,,,1,,,66,89
25440,note_on,39,0,1,,,,,,,,1,,,74,114
25440,note_on,22,0,5,,,,,,,,0,,,74,102
25440,note_on,44,0,6,,,,,,,,0,,,54,105
25440,note_on,38,0,2,,,,,,,,1,,,69,117
25440,note_on,10,0,4,,,,,,,,10,,,42,111
25459,control_change,19,0,4,,,,,,,,10,7,100,,
25470,note_on,30,0,1,,,,,,,,1,,,74,0
25479,control_change,20,0,4,,,,,,,,10,7,99,,
25486,note_on,46,0,5,,,,,,,,0,,,74,0
25488,control_change,9,0,4,,,,,,,,10,7,97,,
25494,note_on,54,0,6,,,,,,,,0,,,54,0
25497,control_change,9,0,4,,,,,,,,10,7,96,,
25500,note_on,30,0,1,,,,,,,,1,,,76,102
25500,note_on,14,0,5,,,,,,,,0,,,76,102
25505,control_change,8,0,4,,,,,,,,10,7,94,,
25510,note_on,5,0,4,,,,,,,,10,,,42,0
25514,control_change,4,0,4,,,,,,,,10,7,93,,
25529,note_on,29,0,1,,,,,,,,1,,,76,0
25551,note_on,51,0,5,,,,,,,,0,,,76,0
25553,note_on,113,0,3,,,,,,,,1,,,66,0
25553,note_on,113,0,2,,,,,,,,1,,,69,0
25560,note_on,9,0,5,,,,,,,,0,,,78,102
25560,note_on,31,0,1,,,,,,,,1,,,78,86
25560,note_on,46,0,4,,,,,,,,10,,,30,89
25560,note_on,66,0,6,,,,,,,,0,,,42,114
25564,control_change,4,0,4,,,,,,,,10,7,94,,
25572,control_change,8,0,4,,,,,,,,10,7,95,,
25581,control_change,9,0,4,,,,,,,,10,7,97,,
25590,control_change,9,0,4,,,,,,,,10,7,98,,
25590,note_on,30,0,1,,,,,,,,1,,,78,0
25598,note_on,38,0,5,,,,,,,,0,,,78,0
25599,control_change,9,0,4,,,,,,,,10,7,100,,
25610,control_change,11,0,4,,,,,,,,10,7,101,,
25620,note_on,22,0,5,,,,,,,,0,,,74,98
25620,note_on,30,0,1,,,,,,,,1,,,74,84
25641,control_change,21,0,1,,,,,,,,1,7,108,,
25650,note_on,9,0,1,,,,,,,,1,,,74,0
25666,note_on,46,0,5,,,,,,,,0,,,74,0
25680,note_on,127,0,2,,,,,,,,1,,,68,93
25680,note_on,14,0,5,,,,,,,,0,,,73,73
25680,note_on,127,0,3,,,,,,,,1,,,61,86
25680,note_on,30,0,1,,,,,,,,1,,,73,127
25687,control_change,7,0,1,,,,,,,,1,7,107,,
25711,note_on,24,0,1,,,,,,,,1,,,73,0
25725,note_on,45,0,5,,,,,,,,0,,,73,0
25740,note_on,29,0,1,,,,,,,,1,,,74,99
25740,note_on,15,0,5,,,,,,,,0,,,74,110
25747,note_on,187,0,6,,,,,,,,0,,,42,0
25761,note_on,151,0,4,,,,,,,,10,,,30,0
25769,note_on,29,0,1,,,,,,,,1,,,74,0
25780,control_change,19,0,4,,,,,,,,10,7,100,,
25788,note_on,48,0,5,,,,,,,,0,,,74,0
25793,note_on,113,0,3,,,,,,,,1,,,61,0
25793,note_on,113,0,2,,,,,,,,1,,,68,0
25800,note_on,53,0,6,,,,,,,,0,,,40,111
25800,note_on,20,0,4,,,,,,,,10,,,28,77
25800,note_on,31,0,1,,,,,,,,1,,,76,102
25800,note_on,12,0,5,,,,,,,,0,,,76,102
25810,control_change,10,0,4,,,,,,,,10,7,99,,
25829,note_on,29,0,1,,,,,,,,1,,,76,0
25846,note_on,46,0,5,,,,,,,,0,,,76,0
25853,control_change,24,0,1,,,,,,,,1,7,105,,
25860,note_on,7,0,1,,,,,,,,1,,,73,120
25860,note_on,14,0,5,,,,,,,,0,,,73,82
25877,note_on,77,0,6,,,,,,,,0,,,40,0
25887,note_on,27,0,1,,,,,,,,1,,,73,0
25892,note_on,82,0,4,,,,,,,,10,,,28,0
25906,note_on,46,0,5,,,,,,,,0,,,73,0
25920,note_on,28,0,4,,,,,,,,10,,,26,96
25920,note_on,33,0,1,,,,,,,,1,,,71,105
25920,note_on,127,0,2,,,,,,,,1,,,66,84
25920,note_on,14,0,5,,,,,,,,0,,,71,117
25920,note_on,43,0,6,,,,,,,,0,,,38,123
25920,note_on,127,0,3,,,,,,,,1,,,62,74
25952,note_on,32,0,1,,,,,,,,1,,,71,0
25968,note_on,48,0,5,,,,,,,,0,,,71,0
25980,note_on,12,0,5,,,,,,,,0,,,73,96
25980,note_on,28,0,1,,,,,,,,1,,,73,120
25981,note_on,61,0,6,,,,,,,,0,,,38,0
25995,note_on,75,0,4,,,,,,,,10,,,26,0
26010,note_on,30,0,1,,,,,,,,1,,,73,0
26025,note_on,45,0,5,,,,,,,,0,,,73,0
26033,note_on,113,0,3,,,,,,,,1,,,62,0
26033,note_on,113,0,2,,,,,,,,1,,,66,0
26040,control_change,0,0,4,,,,,,,,10,7,97,,
26040,note_on,15,0,5,,,,,,,,0,,,74,96
26040,note_on,59,0,6,,,,,,,,0,,,50,123
26040,note_on,30,0,1,,,,,,,,1,,,74,96
26040,note_on,45,0,4,,,,,,,,10,,,38,84
26053,control_change,13,0,4,,,,,,,,10,7,96,,
26067,note_on,27,0,1,,,,,,,,1,,,74,0
26093,note_on,53,0,5,,,,,,,,0,,,74,0
26100,note_on,33,0,1,,,,,,,,1,,,71,89
26100,note_on,7,0,5,,,,,,,,0,,,71,98
26133,note_on,33,0,1,,,,,,,,1,,,71,0
26142,note_on,42,0,5,,,,,,,,0,,,71,0
26160,note_on,27,0,1,,,,,,,,1,,,69,89
26160,note_on,127,0,2,,,,,,,,1,,,64,89
26160,note_on,18,0,5,,,,,,,,0,,,69,85
26160,note_on,127,0,3,,,,,,,,1,,,57,74
26179,control_change,126,0,4,,,,,,,,10,7,94,,
26190,note_on,30,0,1,,,,,,,,1,,,69,0
26206,note_on,46,0,5,,,,,,,,0,,,69,0
26220,note_on,30,0,1,,,,,,,,1,,,71,77
26220,note_on,14,0,5,,,,,,,,0,,,71,93
26252,note_on,32,0,1,,,,,,,,1,,,71,0
26263,note_on,223,0,6,,,,,,,,0,,,50,0
26268,note_on,48,0,5,,,,,,,,0,,,71,0
26272,note_on,93,0,4,,,,,,,,10,,,38,0
26273,note_on,113,0,3,,,,,,,,1,,,57,0
26273,note_on,113,0,2,,,,,,,,1,,,64,0
26280,note_on,28,0,1,,,,,,,,1,,,73,108
26280,note_on,12,0,5,,,,,,,,0,,,73,73
26280,note_on,17,0,6,,,,,,,,0,,,49,96
26280,note_on,8,0,4,,,,,,,,10,,,37,89
26307,control_change,27,0,1,,,,,,,,1,7,104,,
26309,note_on,2,0,1,,,,,,,,1,,,73,0
26322,note_on,42,0,5,,,,,,,,0,,,73,0
26340,note_on,31,0,1,,,,,,,,1,,,69,93
26340,note_on,18,0,5,,,,,,,,0,,,69,93
26343,note_on,63,0,6,,,,,,,,0,,,49,0
26368,note_on,28,0,1,,,,,,,,1,,,69,0
26378,note_on,98,0,4,,,,,,,,10,,,37,0
26379,note_on,39,0,5,,,,,,,,0,,,69,0
26388,control_change,10,0,4,,,,,,,,10,7,93,,
26400,note_on,127,0,2,,,,,,,,1,,,62,79
26400,note_on,12,0,4,,,,,,,,10,,,35,89
26400,note_on,32,0,1,,,,,,,,1,,,68,96
26400,note_on,57,0,6,,,,,,,,0,,,47,89
26400,note_on,127,0,3,,,,,,,,1,,,59,66
26400,note_on,21,0,5,,,,,,,,0,,,68,88
26428,note_on,28,0,1,,,,,,,,1,,,68,0
26442,note_on,42,0,5,,,,,,,,0,,,68,0
26454,note_on,54,0,6,,,,,,,,0,,,47,0
26460,note_on,32,0,1,,,,,,,,1,,,69,84
26460,note_on,18,0,5,,,,,,,,0,,,69,85
26490,note_on,90,0,4,,,,,,,,10,,,35,0
26494,note_on,34,0,1,,,,,,,,1,,,69,0
26508,note_on,48,0,5,,,,,,,,0,,,69,0
26513,note_on,113,0,2,,,,,,,,1,,,62,0
26513,note_on,113,0,3,,,,,,,,1,,,59,0
26520,note_on,30,0,4,,,,,,,,10,,,47,96
26520,note_on,26,0,1,,,,,,,,1,,,71,84
26520,note_on,12,0,5,,,,,,,,0,,,71,90
26520,note_on,66,0,6,,,,,,,,0,,,59,111
26549,note_on,29,0,1,,,,,,,,1,,,71,0
26562,note_on,42,0,5,,,,,,,,0,,,71,0
26580,note_on,18,0,5,,,,,,,,0,,,68,66
26580,note_on,31,0,1,,,,,,,,1,,,68,84
26598,control_change,78,0,4,,,,,,,,10,7,91,,
26603,note_on,23,0,1,,,,,,,,1,,,68,0
26624,note_on,44,0,5,,,,,,,,0,,,68,0
26633,control_change,35,0,4,,,,,,,,10,7,90,,
26640,note_on,37,0,1,,,,,,,,1,,,62,102
26640,note_on,127,0,2,,,,,,,,1,,,59,96
26640,note_on,16,0,5,,,,,,,,0,,,62,90
26640,note_on,127,0,3,,,,,,,,1,,,56,77
26676,note_on,36,0,1,,,,,,,,1,,,62,0
26678,note_on,38,0,5,,,,,,,,0,,,62,0
26700,note_on,24,0,1,,,,,,,,1,,,64,72
26700,note_on,22,0,5,,,,,,,,0,,,64,93
26709,note_on,69,0,2,,,,,,,,1,,,59,0
26715,note_on,75,0,3,,,,,,,,1,,,56,0
26725,note_on,205,0,6,,,,,,,,0,,,59,0
26729,note_on,96,0,4,,,,,,,,10,,,47,0
26735,note_on,35,0,1,,,,,,,,1,,,64,0
26739,note_on,39,0,5,,,,,,,,0,,,64,0
26760,note_on,45,0,3,,,,,,,,1,,,57,74
26760,note_on,35,0,6,,,,,,,,0,,,57,120
26760,note_on,25,0,1,,,,,,,,1,,,66,86
26760,note_on,31,0,4,,,,,,,,10,,,45,89
26760,note_on,21,0,5,,,,,,,,0,,,66,93
26760,note_on,51,0,2,,,,,,,,1,,,61,69
26794,note_on,34,0,1,,,,,,,,1,,,66,0
26814,note_on,54,0,5,,,,,,,,0,,,66,0
26815,note_on,55,0,6,,,,,,,,0,,,57,0
26820,note_on,6,0,5,,,,,,,,0,,,62,117
26820,note_on,26,0,1,,,,,,,,1,,,62,93
26821,control_change,1,0,1,,,,,,,,1,7,102,,
26826,note_on,66,0,2,,,,,,,,1,,,61,0
26828,note_on,68,0,3,,,,,,,,1,,,57,0
26844,note_on,84,0,4,,,,,,,,10,,,45,0
26851,note_on,30,0,1,,,,,,,,1,,,62,0
26862,note_on,42,0,5,,,,,,,,0,,,62,0
26880,note_on,54,0,2,,,,,,,,1,,,62,66
26880,note_on,18,0,5,,,,,,,,0,,,59,102
26880,control_change,0,0,4,,,,,,,,10,7,88,,
26880,note_on,65,0,6,,,,,,,,0,,,56,126
26880,note_on,29,0,1,,,,,,,,1,,,59,124
26880,note_on,36,0,4,,,,,,,,10,,,44,61
26880,note_on,52,0,3,,,,,,,,1,,,59,64
26910,note_on,30,0,1,,,,,,,,1,,,59,0
26924,note_on,44,0,5,,,,,,,,0,,,59,0
26935,note_on,55,0,6,,,,,,,,0,,,56,0
26940,note_on,16,0,5,,,,,,,,0,,,61,117
26940,note_on,30,0,1,,,,,,,,1,,,61,120
26945,note_on,65,0,3,,,,,,,,1,,,59,0
26952,note_on,72,0,2,,,,,,,,1,,,62,0
26979,note_on,39,0,1,,,,,,,,1,,,61,0
26980,note_on,40,0,5,,,,,,,,0,,,61,0
27000,note_on,20,0,5,,,,,,,,0,,,62,110
27000,note_on,65,0,6,,,,,,,,0,,,44,124
27000,note_on,21,0,1,,,,,,,,1,,,62,72
27000,note_on,55,0,3,,,,,,,,1,,,56,72
27000,note_on,48,0,2,,,,,,,,1,,,59,89
27033,note_on,33,0,2,,,,,,,,1,,,59,0
27035,note_on,35,0,3,,,,,,,,1,,,56,0
27039,note_on,39,0,1,,,,,,,,1,,,62,0
27042,note_on,42,0,5,,,,,,,,0,,,62,0
27060,note_on,21,0,1,,,,,,,,1,,,59,84
27060,note_on,18,0,5,,,,,,,,0,,,59,102
27060,note_on,27,0,2,,,,,,,,1,,,61,69
27060,note_on,25,0,3,,,,,,,,1,,,57,72
27096,note_on,36,0,2,,,,,,,,1,,,61,0
27099,note_on,39,0,5,,,,,,,,0,,,59,0
27101,note_on,41,0,3,,,,,,,,1,,,57,0
27101,note_on,41,0,1,,,,,,,,1,,,59,0
27120,note_on,21,0,5,,,,,,,,0,,,56,73
27120,note_on,24,0,2,,,,,,,,1,,,62,102
27120,note_on,19,0,1,,,,,,,,1,,,56,84
27120,note_on,19,0,3,,,,,,,,1,,,59,61
27154,note_on,34,0,1,,,,,,,,1,,,56,0
27159,note_on,39,0,5,,,,,,,,0,,,56,0
27177,note_on,57,0,3,,,,,,,,1,,,59,0
27180,note_on,21,0,5,,,,,,,,0,,,57,110
27180,note_on,26,0,1,,,,,,,,1,,,57,108
27190,note_on,70,0,2,,,,,,,,1,,,62,0
27220,note_on,40,0,1,,,,,,,,1,,,57,0
27228,note_on,48,0,5,,,,,,,,0,,,57,0
27228,note_on,228,0,6,,,,,,,,0,,,44,0
27240,note_on,63,0,3,,,,,,,,1,,,56,61
27240,note_on,12,0,5,,,,,,,,0,,,59,110
27240,note_on,20,0,1,,,,,,,,1,,,59,81
27240,note_on,12,0,6,,,,,,,,0,,,56,123
27240,note_on,50,0,2,,,,,,,,1,,,59,96
27268,note_on,28,0,2,,,,,,,,1,,,59,0
27273,note_on,33,0,1,,,,,,,,1,,,59,0
27276,note_on,36,0,3,,,,,,,,1,,,56,0
27280,note_on,40,0,5,,,,,,,,0,,,59,0
27282,note_on,42,0,6,,,,,,,,0,,,56,0
27300,note_on,20,0,5,,,,,,,,0,,,61,93
27300,note_on,32,0,2,,,,,,,,1,,,57,77
27300,note_on,18,0,6,,,,,,,,0,,,54,102
27300,note_on,24,0,3,,,,,,,,1,,,57,69
27300,note_on,27,0,1,,,,,,,,1,,,61,124
27312,note_on,432,0,4,,,,,,,,10,,,44,0
27328,note_on,28,0,1,,,,,,,,1,,,61,0
27330,note_on,30,0,2,,,,,,,,1,,,57,0
27338,note_on,38,0,5,,,,,,,,0,,,61,0
27341,note_on,41,0,3,,,,,,,,1,,,57,0
27356,note_on,56,0,6,,,,,,,,0,,,54,0
27360,note_on,4,0,6,,,,,,,,0,,,52,96
27360,note_on,22,0,5,,,,,,,,0,,,62,93
27360,note_on,32,0,1,,,,,,,,1,,,62,124
27360,note_on,19,0,3,,,,,,,,1,,,59,58
27360,note_on,30,0,2,,,,,,,,1,,,56,72
27393,note_on,33,0,1,,,,,,,,1,,,62,0
27409,note_on,49,0,5,,,,,,,,0,,,62,0
27420,note_on,11,0,5,,,,,,,,0,,,64,75
27420,note_on,27,0,1,,,,,,,,1,,,64,93
27452,note_on,32,0,1,,,,,,,,1,,,64,0
27456,note_on,96,0,6,,,,,,,,0,,,52,0
27460,note_on,40,0,5,,,,,,,,0,,,64,0
27480,note_on,24,0,6,,,,,,,,0,,,40,96
27480,note_on,20,0,5,,,,,,,,0,,,66,102
27480,note_on,28,0,1,,,,,,,,1,,,66,89
27488,note_on,128,0,3,,,,,,,,1,,,59,0
27504,note_on,144,0,2,,,,,,,,1,,,56,0
27523,note_on,43,0,1,,,,,,,,1,,,66,0
27535,note_on,55,0,5,,,,,,,,0,,,66,0
27539,control_change,227,0,4,,,,,,,,10,7,87,,
27540,note_on,5,0,5,,,,,,,,0,,,68,88
27540,note_on,17,0,1,,,,,,,,1,,,68,102
27573,note_on,93,0,6,,,,,,,,0,,,40,0
27585,note_on,45,0,5,,,,,,,,0,,,68,0
27586,note_on,46,0,1,,,,,,,,1,,,68,0
27600,note_on,15,0,5,,,,,,,,0,,,69,88
27600,note_on,27,0,6,,,,,,,,0,,,42,81
27600,note_on,14,0,1,,,,,,,,1,,,69,105
27642,note_on,42,0,1,,,,,,,,1,,,69,0
27651,note_on,51,0,5,,,,,,,,0,,,69,0
27660,note_on,18,0,1,,,,,,,,1,,,71,84
27660,note_on,9,0,5,,,,,,,,0,,,71,96
27663,control_change,3,0,1,,,,,,,,1,7,103,,
27683,note_on,144,0,4,,,,,,,,10,,,40,77
27688,note_on,88,0,6,,,,,,,,0,,,42,0
27701,note_on,38,0,1,,,,,,,,1,,,71,0
27704,note_on,44,0,5,,,,,,,,0,,,71,0
27720,note_on,16,0,5,,,,,,,,0,,,73,110
27720,note_on,32,0,6,,,,,,,,0,,,44,102
27720,note_on,19,0,1,,,,,,,,1,,,73,96
27720,note_on,232,0,3,,,,,,,,1,,,64,51
27720,note_on,216,0,2,,,,,,,,1,,,71,96
27724,control_change,41,0,4,,,,,,,,10,7,88,,
27731,control_change,7,0,4,,,,,,,,10,7,89,,
27737,control_change,17,0,1,,,,,,,,1,7,104,,
27759,note_on,22,0,1,,,,,,,,1,,,73,0
27762,control_change,31,0,4,,,,,,,,10,7,91,,
27770,note_on,50,0,5,,,,,,,,0,,,73,0
27780,note_on,10,0,5,,,,,,,,0,,,74,102
27780,note_on,21,0,1,,,,,,,,1,,,74,89
27787,note_on,25,0,4,,,,,,,,10,,,40,0
27789,control_change,2,0,4,,,,,,,,10,7,92,,
27791,note_on,71,0,3,,,,,,,,1,,,64,0
27793,control_change,13,0,1,,,,,,,,1,7,106,,
27800,note_on,80,0,2,,,,,,,,1,,,71,0
27801,note_on,81,0,6,,,,,,,,0,,,44,0
27803,note_on,14,0,4,,,,,,,,10,,,42,105
27804,note_on,24,0,5,,,,,,,,0,,,74,0
27810,note_on,6,0,5,,,,,,,,0,,,76,102
27810,note_on,17,0,1,,,,,,,,1,,,76,66
27811,note_on,1,0,1,,,,,,,,1,,,74,0
27832,note_on,21,0,1,,,,,,,,1,,,76,0
27835,note_on,25,0,5,,,,,,,,0,,,76,0
27840,note_on,8,0,1,,,,,,,,1,,,73,126
27840,note_on,39,0,6,,,,,,,,0,,,45,86
27840,note_on,37,0,4,,,,,,,,10,,,45,81
27840,note_on,5,0,5,,,,,,,,0,,,73,117
27840,note_on,49,0,3,,,,,,,,1,,,64,69
27840,note_on,40,0,2,,,,,,,,1,,,69,89
27909,note_on,69,0,2,,,,,,,,1,,,69,0
27913,note_on,73,0,4,,,,,,,,10,,,42,0
27919,note_on,79,0,1,,,,,,,,1,,,73,0
27924,note_on,84,0,3,,,,,,,,1,,,64,0
27938,note_on,25,0,4,,,,,,,,10,,,45,0
27940,note_on,100,0,6,,,,,,,,0,,,45,0
27941,note_on,101,0,5,,,,,,,,0,,,73,0
27960,note_on,51,0,2,,,,,,,,1,,,64,79
27960,note_on,20,0,6,,,,,,,,0,,,37,114
27960,note_on,22,0,4,,,,,,,,10,,,37,127
27960,note_on,36,0,3,,,,,,,,1,,,62,77
27960,note_on,19,0,5,,,,,,,,0,,,71,82
27960,note_on,41,0,1,,,,,,,,1,,,71,96
27961,control_change,1,0,1,,,,,,,,1,7,107,,
27963,aftertouch,3,0,5,,,,,,,,0,,44,,
27963,aftertouch,3,0,6,,,,,,,,0,,44,,
27963,control_change,3,0,4,,,,,,,,10,7,95,,
27964,aftertouch,1,0,5,,,,,,,,0,,44,,
27964,aftertouch,1,0,4,,,,,,,,10,,44,,
27972,aftertouch,8,0,4,,,,,,,,10,,0,,
27974,aftertouch,11,0,6,,,,,,,,0,,22,,
27974,aftertouch,2,0,4,,,,,,,,10,,22,,
27974,aftertouch,0,0,5,,,,,,,,0,,22,,
27974,aftertouch,10,0,5,,,,,,,,0,,22,,
27984,aftertouch,10,0,4,,,,,,,,10,,0,,
27986,aftertouch,2,0,4,,,,,,,,10,,11,,
27986,aftertouch,12,0,5,,,,,,,,0,,11,,
27986,aftertouch,0,0,5,,,,,,,,0,,11,,
27986,aftertouch,12,0,6,,,,,,,,0,,11,,
27995,aftertouch,9,0,4,,,,,,,,10,,0,,
27996,note_on,35,0,1,,,,,,,,1,,,71,0
27997,aftertouch,11,0,6,,,,,,,,0,,5,,
27998,aftertouch,12,0,5,,,,,,,,0,,5,,
27999,aftertouch,4,0,4,,,,,,,,10,,5,,
27999,aftertouch,1,0,5,,,,,,,,0,,5,,
28000,note_on,40,0,3,,,,,,,,1,,,62,0
28000,note_on,1,0,5,,,,,,,,0,,,71,0
28003,aftertouch,4,0,4,,,,,,,,10,,0,,
28004,note_on,1,0,4,,,,,,,,10,,,37,0
28014,note_on,17,0,6,,,,,,,,0,,,37,0
28020,note_on,6,0,6,,,,,,,,0,,,49,124
28020,note_on,20,0,3,,,,,,,,1,,,61,72
28020,note_on,24,0,1,,,,,,,,1,,,69,96
28020,note_on,16,0,4,,,,,,,,10,,,37,111
28020,note_on,20,0,5,,,,,,,,0,,,69,85
28031,aftertouch,11,0,5,,,,,,,,0,,3,,
28031,aftertouch,11,0,6,,,,,,,,0,,3,,
28032,aftertouch,12,0,4,,,,,,,,10,,3,,
28033,aftertouch,2,0,5,,,,,,,,0,,3,,
28035,note_on,75,0,2,,,,,,,,1,,,64,0
28042,aftertouch,10,0,4,,,,,,,,10,,0,,
28044,aftertouch,13,0,6,,,,,,,,0,,1,,
28044,aftertouch,2,0,4,,,,,,,,10,,1,,
28044,aftertouch,0,0,5,,,,,,,,0,,1,,
28044,aftertouch,11,0,5,,,,,,,,0,,1,,
28052,note_on,32,0,1,,,,,,,,1,,,69,0
28052,note_on,8,0,5,,,,,,,,0,,,69,0
28054,note_on,34,0,3,,,,,,,,1,,,61,0
28054,aftertouch,10,0,4,,,,,,,,10,,0,,
28066,note_on,22,0,6,,,,,,,,0,,,49,0
28069,note_on,15,0,4,,,,,,,,10,,,37,0
28080,note_on,28,0,1,,,,,,,,1,,,71,125
28080,note_on,11,0,4,,,,,,,,10,,,38,120
28080,note_on,26,0,3,,,,,,,,1,,,59,58
28080,note_on,45,0,2,,,,,,,,1,,,66,81
28080,note_on,14,0,6,,,,,,,,0,,,38,102
28080,note_on,28,0,5,,,,,,,,0,,,71,120
28087,control_change,7,0,4,,,,,,,,10,7,97,,
28090,aftertouch,10,0,5,,,,,,,,0,,12,,
28090,aftertouch,10,0,6,,,,,,,,0,,12,,
28091,aftertouch,1,0,5,,,,,,,,0,,12,,
28091,aftertouch,4,0,4,,,,,,,,10,,12,,
28101,aftertouch,10,0,4,,,,,,,,10,,0,,
28103,aftertouch,2,0,4,,,,,,,,10,,6,,
28103,aftertouch,12,0,5,,,,,,,,0,,6,,
28103,aftertouch,0,0,5,,,,,,,,0,,6,,
28103,aftertouch,13,0,6,,,,,,,,0,,6,,
28113,aftertouch,10,0,4,,,,,,,,10,,0,,
28115,aftertouch,12,0,5,,,,,,,,0,,3,,
28115,aftertouch,0,0,5,,,,,,,,0,,3,,
28115,aftertouch,2,0,4,,,,,,,,10,,3,,
28115,aftertouch,12,0,6,,,,,,,,0,,3,,
28120,note_on,5,0,4,,,,,,,,10,,,38,0
28125,aftertouch,5,0,4,,,,,,,,10,,0,,
28137,note_on,22,0,6,,,,,,,,0,,,38,0
28140,note_on,3,0,6,,,,,,,,0,,,50,89
28140,note_on,15,0,4,,,,,,,,10,,,38,111
28149,aftertouch,0,0,5,,,,,,,,0,,12,,
28149,aftertouch,34,0,5,,,,,,,,0,,12,,
28149,aftertouch,9,0,6,,,,,,,,0,,12,,
28149,aftertouch,9,0,4,,,,,,,,10,,12,,
28151,note_on,71,0,1,,,,,,,,1,,,71,0
28152,note_on,72,0,3,,,,,,,,1,,,59,0
28157,note_on,77,0,2,,,,,,,,1,,,66,0
28159,aftertouch,10,0,4,,,,,,,,10,,0,,
28161,aftertouch,2,0,4,,,,,,,,10,,9,,
28161,aftertouch,12,0,6,,,,,,,,0,,9,,
28161,aftertouch,12,0,5,,,,,,,,0,,9,,
28161,aftertouch,0,0,5,,,,,,,,0,,9,,
28170,aftertouch,9,0,4,,,,,,,,10,,0,,
28170,note_on,9,0,5,,,,,,,,0,,,71,0
28172,aftertouch,11,0,6,,,,,,,,0,,4,,
28172,aftertouch,2,0,5,,,,,,,,0,,4,,
28173,aftertouch,3,0,4,,,,,,,,10,,4,,
28173,aftertouch,1,0,5,,,,,,,,0,,4,,
28183,aftertouch,10,0,4,,,,,,,,10,,0,,
28185,aftertouch,0,0,6,,,,,,,,0,,2,,
28185,note_on,13,0,6,,,,,,,,0,,,50,0
28185,aftertouch,12,0,5,,,,,,,,0,,2,,
28185,aftertouch,0,0,5,,,,,,,,0,,2,,
28185,aftertouch,2,0,4,,,,,,,,10,,2,,
28186,note_on,1,0,4,,,,,,,,10,,,38,0
28189,aftertouch,3,0,4,,,,,,,,10,,0,,
28200,note_on,48,0,3,,,,,,,,1,,,62,77
28200,note_on,15,0,5,,,,,,,,0,,,69,79
28200,note_on,49,0,1,,,,,,,,1,,,69,117
28200,note_on,43,0,2,,,,,,,,1,,,64,66
28200,note_on,15,0,6,,,,,,,,0,,,40,86
28200,note_on,11,0,4,,,,,,,,10,,,40,126
28230,note_on,30,0,5,,,,,,,,0,,,69,0
28233,note_on,33,0,4,,,,,,,,10,,,40,0
28235,note_on,35,0,1,,,,,,,,1,,,69,0
28239,aftertouch,4,0,1,,,,,,,,1,,6,,
28240,control_change,7,0,4,,,,,,,,10,7,96,,
28248,aftertouch,9,0,1,,,,,,,,1,,0,,
28250,aftertouch,2,0,1,,,,,,,,1,,3,,
28257,note_on,57,0,6,,,,,,,,0,,,40,0
28259,aftertouch,9,0,1,,,,,,,,1,,0,,
28260,note_on,3,0,6,,,,,,,,0,,,52,77
28260,note_on,20,0,4,,,,,,,,10,,,40,93
28260,note_on,1,0,1,,,,,,,,1,,,68,96
28260,note_on,30,0,5,,,,,,,,0,,,68,63
28262,aftertouch,2,0,5,,,,,,,,0,,1,,
28262,aftertouch,2,0,4,,,,,,,,10,,1,,
28262,control_change,0,0,4,,,,,,,,10,7,94,,
28262,aftertouch,2,0,1,,,,,,,,1,,1,,
28262,aftertouch,2,0,6,,,,,,,,0,,1,,
28262,aftertouch,62,0,3,,,,,,,,1,,1,,
28263,aftertouch,63,0,2,,,,,,,,1,,1,,
28263,aftertouch,1,0,5,,,,,,,,0,,1,,
28271,aftertouch,9,0,1,,,,,,,,1,,0,,
28273,note_on,10,0,2,,,,,,,,1,,,64,0
28273,note_on,11,0,3,,,,,,,,1,,,62,0
28275,control_change,13,0,4,,,,,,,,10,7,93,,
28292,note_on,29,0,5,,,,,,,,0,,,68,0
28297,note_on,26,0,1,,,,,,,,1,,,68,0
28305,note_on,43,0,6,,,,,,,,0,,,52,0
28309,note_on,34,0,4,,,,,,,,10,,,40,0
28320,note_on,11,0,4,,,,,,,,10,,,33,105
28320,note_on,47,0,3,,,,,,,,1,,,61,66
28320,note_on,23,0,1,,,,,,,,1,,,69,77
28320,note_on,15,0,6,,,,,,,,0,,,45,96
28320,note_on,28,0,5,,,,,,,,0,,,69,75
28320,note_on,47,0,2,,,,,,,,1,,,64,64
28350,control_change,30,0,1,,,,,,,,1,7,105,,
28371,note_on,51,0,5,,,,,,,,0,,,69,0
28380,note_on,9,0,5,,,,,,,,0,,,73,88
28385,control_change,35,0,1,,,,,,,,1,7,104,,
28395,note_on,15,0,5,,,,,,,,0,,,73,0
28410,note_on,15,0,5,,,,,,,,0,,,74,75
28415,note_on,95,0,6,,,,,,,,0,,,45,0
28429,note_on,19,0,5,,,,,,,,0,,,74,0
28433,note_on,113,0,4,,,,,,,,10,,,33,0
28433,note_on,113,0,3,,,,,,,,1,,,61,0
28433,note_on,48,0,1,,,,,,,,1,,,69,0
28433,note_on,113,0,2,,,,,,,,1,,,64,0
28440,note_on,25,0,6,,,,,,,,0,,,49,105
28440,note_on,11,0,5,,,,,,,,0,,,76,110
28478,note_on,38,0,5,,,,,,,,0,,,76,0
28500,note_on,22,0,5,,,,,,,,0,,,69,79
28524,note_on,84,0,6,,,,,,,,0,,,49,0
28544,note_on,44,0,5,,,,,,,,0,,,69,0
28560,note_on,36,0,6,,,,,,,,0,,,50,102
28560,note_on,16,0,5,,,,,,,,0,,,78,127
28599,note_on,39,0,5,,,,,,,,0,,,78,0
28620,note_on,21,0,5,,,,,,,,0,,,69,75
28640,note_on,80,0,6,,,,,,,,0,,,50,0
28660,note_on,40,0,5,,,,,,,,0,,,69,0
28680,note_on,20,0,5,,,,,,,,0,,,80,106
28680,note_on,40,0,6,,,,,,,,0,,,52,66
28717,note_on,37,0,5,,,,,,,,0,,,80,0
28740,note_on,23,0,5,,,,,,,,0,,,69,58
28773,note_on,93,0,6,,,,,,,,0,,,52,0
28777,note_on,37,0,5,,,,,,,,0,,,69,0
28800,note_on,23,0,5,,,,,,,,0,,,81,96
28800,note_on,27,0,6,,,,,,,,0,,,54,77
28850,note_on,50,0,5,,,,,,,,0,,,81,0
28860,note_on,10,0,5,,,,,,,,0,,,80,58
28884,note_on,24,0,5,,,,,,,,0,,,80,0
28890,note_on,6,0,5,,,,,,,,0,,,78,102
28896,note_on,96,0,6,,,,,,,,0,,,54,0
28920,note_on,24,0,6,,,,,,,,0,,,49,81
28920,note_on,30,0,5,,,,,,,,0,,,76,93
28920,note_on,487,0,1,,,,,,,,1,,,64,58
28920,note_on,487,0,4,,,,,,,,10,,,37,58
28920,note_on,487,0,2,,,,,,,,1,,,64,58
28920,note_on,487,0,3,,,,,,,,1,,,57,84
28922,note_on,2,0,5,,,,,,,,0,,,78,0
28924,control_change,4,0,4,,,,,,,,10,7,94,,
28933,control_change,9,0,4,,,,,,,,10,7,95,,
28950,note_on,30,0,1,,,,,,,,1,,,64,0
28950,note_on,30,0,2,,,,,,,,1,,,64,0
28955,note_on,35,0,3,,,,,,,,1,,,57,0
28958,note_on,25,0,4,,,,,,,,10,,,37,0
28970,note_on,48,0,5,,,,,,,,0,,,76,0
28980,note_on,30,0,2,,,,,,,,1,,,64,64
28980,note_on,30,0,1,,,,,,,,1,,,64,64
28980,note_on,25,0,3,,,,,,,,1,,,57,117
28980,note_on,22,0,4,,,,,,,,10,,,37,84
28980,note_on,10,0,5,,,,,,,,0,,,74,85
28995,aftertouch,0,0,5,,,,,,,,0,,3,,
28995,aftertouch,75,0,6,,,,,,,,0,,3,,
28995,aftertouch,15,0,5,,,,,,,,0,,3,,
28995,aftertouch,15,0,4,,,,,,,,10,,3,,
28995,aftertouch,15,0,3,,,,,,,,1,,3,,
29005,aftertouch,10,0,3,,,,,,,,1,,0,,
29006,note_on,11,0,6,,,,,,,,0,,,49,0
29007,aftertouch,1,0,6,,,,,,,,0,,1,,
29007,aftertouch,2,0,3,,,,,,,,1,,1,,
29007,aftertouch,12,0,5,,,,,,,,0,,1,,
29007,aftertouch,0,0,5,,,,,,,,0,,1,,
29007,aftertouch,12,0,4,,,,,,,,10,,1,,
29016,aftertouch,9,0,3,,,,,,,,1,,0,,
29019,note_on,12,0,5,,,,,,,,0,,,74,0
29020,note_on,4,0,3,,,,,,,,1,,,57,0
29027,note_on,47,0,2,,,,,,,,1,,,64,0
29027,note_on,47,0,1,,,,,,,,1,,,64,0
29028,note_on,21,0,4,,,,,,,,10,,,37,0
29040,note_on,20,0,3,,,,,,,,1,,,57,120
29040,note_on,21,0,5,,,,,,,,0,,,73,70
29040,note_on,13,0,1,,,,,,,,1,,,66,84
29040,note_on,13,0,2,,,,,,,,1,,,66,84
29040,note_on,33,0,6,,,,,,,,0,,,50,72
29040,note_on,12,0,4,,,,,,,,10,,,38,69
29052,note_on,12,0,5,,,,,,,,0,,,73,0
29070,note_on,18,0,5,,,,,,,,0,,,74,117
29076,note_on,36,0,4,,,,,,,,10,,,38,0
29077,note_on,37,0,1,,,,,,,,1,,,66,0
29077,note_on,37,0,2,,,,,,,,1,,,66,0
29083,note_on,43,0,3,,,,,,,,1,,,57,0
29100,note_on,30,0,5,,,,,,,,0,,,76,88
29100,note_on,23,0,2,,,,,,,,1,,,66,84
29100,note_on,17,0,3,,,,,,,,1,,,57,105
29100,note_on,23,0,1,,,,,,,,1,,,66,84
29100,note_on,24,0,4,,,,,,,,10,,,38,77
29101,control_change,1,0,1,,,,,,,,1,7,106,,
29114,note_on,14,0,5,,,,,,,,0,,,74,0
29127,control_change,26,0,1,,,,,,,,1,7,107,,
29133,note_on,19,0,5,,,,,,,,0,,,76,0
29136,note_on,96,0,6,,,,,,,,0,,,50,0
29137,note_on,10,0,1,,,,,,,,1,,,66,0
29137,note_on,37,0,2,,,,,,,,1,,,66,0
29139,note_on,39,0,3,,,,,,,,1,,,57,0
29145,note_on,45,0,4,,,,,,,,10,,,38,0
29160,note_on,23,0,1,,,,,,,,1,,,68,74
29160,note_on,23,0,2,,,,,,,,1,,,68,74
29160,note_on,24,0,6,,,,,,,,0,,,52,66
29160,note_on,21,0,3,,,,,,,,1,,,64,120
29160,note_on,27,0,5,,,,,,,,0,,,71,96
29160,note_on,15,0,4,,,,,,,,10,,,40,89
29176,note_on,16,0,5,,,,,,,,0,,,71,0
29190,note_on,14,0,5,,,,,,,,0,,,73,102
29190,note_on,30,0,2,,,,,,,,1,,,68,0
29190,note_on,30,0,1,,,,,,,,1,,,68,0
29193,note_on,33,0,3,,,,,,,,1,,,64,0
29193,control_change,3,0,1,,,,,,,,1,7,109,,
29204,note_on,44,0,4,,,,,,,,10,,,40,0
29209,note_on,19,0,5,,,,,,,,0,,,73,0
29220,note_on,16,0,4,,,,,,,,10,,,40,77
29220,note_on,30,0,2,,,,,,,,1,,,68,77
29220,note_on,27,0,3,,,,,,,,1,,,64,108
29220,note_on,27,0,1,,,,,,,,1,,,68,77
29220,note_on,11,0,5,,,,,,,,0,,,74,110
29233,note_on,73,0,6,,,,,,,,0,,,52,0
29248,note_on,28,0,5,,,,,,,,0,,,74,0
29250,note_on,30,0,3,,,,,,,,1,,,64,0
29255,note_on,35,0,2,,,,,,,,1,,,68,0
29255,note_on,35,0,1,,,,,,,,1,,,68,0
29266,note_on,46,0,4,,,,,,,,10,,,40,0
29280,note_on,25,0,2,,,,,,,,1,,,69,79
29280,note_on,25,0,1,,,,,,,,1,,,69,79
29280,note_on,47,0,6,,,,,,,,0,,,45,96
29280,note_on,14,0,4,,,,,,,,10,,,33,114
29280,note_on,30,0,3,,,,,,,,1,,,64,126
29280,note_on,32,0,5,,,,,,,,0,,,73,82
29296,note_on,16,0,5,,,,,,,,0,,,73,0
29310,note_on,14,0,5,,,,,,,,0,,,71,75
29328,note_on,18,0,5,,,,,,,,0,,,71,0
29340,note_on,12,0,5,,,,,,,,0,,,69,98
29344,control_change,64,0,1,,,,,,,,1,7,108,,
29365,control_change,21,0,1,,,,,,,,1,7,107,,
29370,note_on,30,0,5,,,,,,,,0,,,69,0
29392,note_on,112,0,6,,,,,,,,0,,,45,0
29393,note_on,28,0,1,,,,,,,,1,,,69,0
29393,note_on,113,0,4,,,,,,,,10,,,33,0
29393,note_on,113,0,2,,,,,,,,1,,,69,0
29393,note_on,113,0,3,,,,,,,,1,,,64,0
29400,note_on,30,0,5,,,,,,,,0,,,76,88
29439,note_on,39,0,5,,,,,,,,0,,,76,0
29460,note_on,21,0,5,,,,,,,,0,,,73,88
29485,note_on,25,0,5,,,,,,,,0,,,73,0
29520,note_on,35,0,5,,,,,,,,0,,,81,106
29556,note_on,36,0,5,,,,,,,,0,,,81,0
29580,note_on,24,0,5,,,,,,,,0,,,76,106
29628,note_on,48,0,5,,,,,,,,0,,,76,0
29640,note_on,12,0,5,,,,,,,,0,,,73,96
29640,note_on,248,0,6,,,,,,,,0,,,64,108
29675,note_on,35,0,6,,,,,,,,0,,,64,0
29678,note_on,38,0,5,,,,,,,,0,,,73,0
29700,note_on,25,0,6,,,,,,,,0,,,61,91
29700,note_on,22,0,5,,,,,,,,0,,,69,82
29727,note_on,27,0,5,,,,,,,,0,,,69,0
29740,note_on,40,0,6,,,,,,,,0,,,61,0
29760,note_on,33,0,5,,,,,,,,0,,,64,110
29760,note_on,20,0,6,,,,,,,,0,,,57,84
29798,note_on,38,0,5,,,,,,,,0,,,64,0
29820,note_on,22,0,5,,,,,,,,0,,,69,85
29844,note_on,24,0,5,,,,,,,,0,,,69,0
29849,note_on,89,0,6,,,,,,,,0,,,57,0
29850,note_on,6,0,5,,,,,,,,0,,,68,88
29875,note_on,25,0,5,,,,,,,,0,,,68,0
29880,note_on,5,0,5,,,,,,,,0,,,69,93
29880,note_on,31,0,6,,,,,,,,0,,,61,86
29913,note_on,33,0,5,,,,,,,,0,,,69,0
29933,note_on,53,0,6,,,,,,,,0,,,61,0
29940,note_on,27,0,5,,,,,,,,0,,,64,79
29940,note_on,7,0,6,,,,,,,,0,,,57,96
29967,note_on,27,0,5,,,,,,,,0,,,64,0
29979,note_on,39,0,6,,,,,,,,0,,,57,0
29985,control_change,592,0,4,,,,,,,,10,7,94,,
30000,note_on,21,0,6,,,,,,,,0,,,52,84
30000,note_on,33,0,5,,,,,,,,0,,,61,88
30015,control_change,30,0,4,,,,,,,,10,7,93,,
30040,note_on,40,0,5,,,,,,,,0,,,61,0
30059,control_change,666,0,1,,,,,,,,1,7,109,,
30060,note_on,20,0,5,,,,,,,,0,,,64,79
30077,note_on,17,0,5,,,,,,,,0,,,64,0
30090,note_on,13,0,5,,,,,,,,0,,,62,75
30113,note_on,113,0,6,,,,,,,,0,,,52,0
30114,note_on,24,0,5,,,,,,,,0,,,62,0
30120,note_on,7,0,6,,,,,,,,0,,,57,64
30120,note_on,6,0,5,,,,,,,,0,,,64,82
30149,note_on,29,0,5,,,,,,,,0,,,64,0
30177,note_on,57,0,6,,,,,,,,0,,,57,0
30180,note_on,3,0,6,,,,,,,,0,,,52,69
30180,note_on,31,0,5,,,,,,,,0,,,61,98
30208,note_on,28,0,5,,,,,,,,0,,,61,0
30237,note_on,57,0,6,,,,,,,,0,,,52,0
30240,note_on,3,0,6,,,,,,,,0,,,49,64
30240,note_on,32,0,5,,,,,,,,0,,,57,88
30265,note_on,25,0,6,,,,,,,,0,,,49,0
30270,note_on,5,0,6,,,,,,,,0,,,50,72
30287,note_on,17,0,6,,,,,,,,0,,,50,0
30300,note_on,13,0,6,,,,,,,,0,,,52,79
30336,note_on,36,0,6,,,,,,,,0,,,52,0
30360,note_on,301,0,1,,,,,,,,1,,,64,72
30360,note_on,967,0,2,,,,,,,,1,,,64,39
30360,note_on,24,0,6,,,,,,,,0,,,45,89
30360,note_on,967,0,3,,,,,,,,1,,,61,105
30393,note_on,33,0,1,,,,,,,,1,,,64,0
30394,note_on,34,0,2,,,,,,,,1,,,64,0
30397,note_on,37,0,3,,,,,,,,1,,,61,0
30420,note_on,26,0,2,,,,,,,,1,,,64,43
30420,note_on,27,0,1,,,,,,,,1,,,64,69
30420,note_on,23,0,3,,,,,,,,1,,,61,96
30456,note_on,36,0,2,,,,,,,,1,,,64,0
30462,note_on,42,0,3,,,,,,,,1,,,61,0
30466,note_on,46,0,1,,,,,,,,1,,,64,0
30480,note_on,24,0,2,,,,,,,,1,,,66,61
30480,note_on,14,0,1,,,,,,,,1,,,66,81
30480,note_on,18,0,3,,,,,,,,1,,,62,99
30492,note_on,132,0,6,,,,,,,,0,,,45,0
30507,note_on,27,0,2,,,,,,,,1,,,66,0
30512,note_on,32,0,1,,,,,,,,1,,,66,0
30519,note_on,39,0,3,,,,,,,,1,,,62,0
30540,note_on,28,0,1,,,,,,,,1,,,66,66
30540,note_on,33,0,2,,,,,,,,1,,,66,48
30540,note_on,21,0,3,,,,,,,,1,,,62,96
30569,note_on,29,0,2,,,,,,,,1,,,66,0
30574,note_on,34,0,1,,,,,,,,1,,,66,0
30578,note_on,38,0,3,,,,,,,,1,,,62,0
30600,note_on,22,0,3,,,,,,,,1,,,59,81
30600,note_on,31,0,2,,,,,,,,1,,,68,61
30600,note_on,26,0,1,,,,,,,,1,,,68,84
30629,note_on,29,0,2,,,,,,,,1,,,68,0
30632,note_on,32,0,1,,,,,,,,1,,,68,0
30635,note_on,35,0,3,,,,,,,,1,,,59,0
30660,note_on,31,0,2,,,,,,,,1,,,68,39
30660,note_on,28,0,1,,,,,,,,1,,,68,69
30660,note_on,25,0,3,,,,,,,,1,,,59,69
30697,note_on,37,0,3,,,,,,,,1,,,59,0
30697,note_on,37,0,1,,,,,,,,1,,,68,0
30699,note_on,39,0,2,,,,,,,,1,,,68,0
30720,note_on,23,0,3,,,,,,,,1,,,61,77
30720,note_on,23,0,1,,,,,,,,1,,,69,66
30720,note_on,21,0,2,,,,,,,,1,,,69,48
30758,note_on,38,0,1,,,,,,,,1,,,69,0
30770,note_on,50,0,3,,,,,,,,1,,,61,0
30774,note_on,54,0,2,,,,,,,,1,,,69,0
30780,note_on,22,0,1,,,,,,,,1,,,69,66
30813,note_on,33,0,1,,,,,,,,1,,,69,0
30840,note_on,66,0,2,,,,,,,,1,,,64,26
30840,note_on,70,0,3,,,,,,,,1,,,61,81
30840,note_on,27,0,1,,,,,,,,1,,,64,96
30840,note_on,348,0,6,,,,,,,,0,,,37,105
30840,note_on,825,0,4,,,,,,,,10,,,37,96
30862,control_change,22,0,4,,,,,,,,10,7,94,,
30871,control_change,9,0,4,,,,,,,,10,7,95,,
30873,note_on,33,0,1,,,,,,,,1,,,64,0
30879,note_on,8,0,4,,,,,,,,10,,,37,0
30879,note_on,39,0,6,,,,,,,,0,,,37,0
30900,note_on,27,0,1,,,,,,,,1,,,64,84
30900,note_on,21,0,6,,,,,,,,0,,,49,93
30900,note_on,21,0,4,,,,,,,,10,,,37,127
30908,control_change,8,0,1,,,,,,,,1,7,110,,
30941,note_on,33,0,1,,,,,,,,1,,,64,0
30944,note_on,44,0,6,,,,,,,,0,,,49,0
30948,note_on,48,0,4,,,,,,,,10,,,37,0
30954,aftertouch,13,0,1,,,,,,,,1,,6,,
30957,aftertouch,3,0,1,,,,,,,,1,,0,,
30959,aftertouch,2,0,1,,,,,,,,1,,3,,
30960,note_on,12,0,4,,,,,,,,10,,,38,74
30960,note_on,16,0,6,,,,,,,,0,,,38,102
30960,note_on,1,0,1,,,,,,,,1,,,66,105
30968,aftertouch,8,0,1,,,,,,,,1,,0,,
30971,aftertouch,3,0,1,,,,,,,,1,,1,,
30971,aftertouch,131,0,2,,,,,,,,1,,1,,
30971,aftertouch,131,0,3,,,,,,,,1,,1,,
30981,aftertouch,10,0,1,,,,,,,,1,,0,,
30996,note_on,36,0,4,,,,,,,,10,,,38,0
30996,note_on,15,0,1,,,,,,,,1,,,66,0
31008,note_on,768,0,5,,,,,,,,0,,,57,0
31012,note_on,52,0,6,,,,,,,,0,,,38,0
31020,note_on,24,0,1,,,,,,,,1,,,66,105
31020,note_on,24,0,4,,,,,,,,10,,,38,96
31020,note_on,12,0,5,,,,,,,,0,,,59,85
31020,note_on,8,0,6,,,,,,,,0,,,50,89
31049,note_on,78,0,3,,,,,,,,1,,,61,0
31050,note_on,30,0,5,,,,,,,,0,,,61,127
31057,note_on,7,0,5,,,,,,,,0,,,59,0
31057,note_on,37,0,1,,,,,,,,1,,,66,0
31064,note_on,44,0,6,,,,,,,,0,,,50,0
31068,note_on,97,0,2,,,,,,,,1,,,64,0
31070,note_on,50,0,4,,,,,,,,10,,,38,0
31078,note_on,21,0,5,,,,,,,,0,,,61,0
31080,note_on,12,0,2,,,,,,,,1,,,62,48
31080,note_on,2,0,5,,,,,,,,0,,,62,102
31080,note_on,16,0,6,,,,,,,,0,,,40,93
31080,note_on,31,0,3,,,,,,,,1,,,59,74
31080,note_on,10,0,4,,,,,,,,10,,,40,96
31080,note_on,23,0,1,,,,,,,,1,,,68,111
31109,note_on,29,0,5,,,,,,,,0,,,62,0
31110,note_on,1,0,5,,,,,,,,0,,,64,88
31111,note_on,31,0,4,,,,,,,,10,,,40,0
31113,note_on,33,0,1,,,,,,,,1,,,68,0
31140,note_on,30,0,5,,,,,,,,0,,,64,0
31140,note_on,29,0,4,,,,,,,,10,,,40,72
31140,note_on,27,0,1,,,,,,,,1,,,68,111
31140,note_on,60,0,6,,,,,,,,0,,,52,84
31140,note_on,0,0,5,,,,,,,,0,,,66,79
31141,note_on,1,0,6,,,,,,,,0,,,40,0
31145,note_on,65,0,2,,,,,,,,1,,,62,0
31170,note_on,30,0,5,,,,,,,,0,,,68,124
31179,note_on,38,0,6,,,,,,,,0,,,52,0
31182,note_on,102,0,3,,,,,,,,1,,,59,0
31183,note_on,43,0,1,,,,,,,,1,,,68,0
31185,note_on,15,0,5,,,,,,,,0,,,66,0
31186,note_on,46,0,4,,,,,,,,10,,,40,0
31186,note_on,1,0,5,,,,,,,,0,,,68,0
31200,note_on,14,0,4,,,,,,,,10,,,42,91
31200,note_on,55,0,2,,,,,,,,1,,,61,51
31200,note_on,17,0,1,,,,,,,,1,,,69,117
31200,note_on,14,0,5,,,,,,,,0,,,69,102
31200,note_on,18,0,3,,,,,,,,1,,,57,89
31200,note_on,21,0,6,,,,,,,,0,,,42,84
31238,note_on,38,0,4,,,,,,,,10,,,42,0
31246,note_on,46,0,1,,,,,,,,1,,,69,0
31255,note_on,55,0,5,,,,,,,,0,,,69,0
31260,note_on,5,0,5,,,,,,,,0,,,71,102
31260,note_on,14,0,1,,,,,,,,1,,,71,93
31260,note_on,22,0,4,,,,,,,,10,,,42,89
31260,note_on,60,0,6,,,,,,,,0,,,54,84
31265,note_on,65,0,2,,,,,,,,1,,,61,0
31266,note_on,6,0,6,,,,,,,,0,,,42,0
31282,note_on,82,0,3,,,,,,,,1,,,57,0
31306,note_on,40,0,6,,,,,,,,0,,,54,0
31306,note_on,46,0,1,,,,,,,,1,,,71,0
31307,note_on,47,0,4,,,,,,,,10,,,42,0
31316,note_on,56,0,5,,,,,,,,0,,,71,0
31320,note_on,14,0,1,,,,,,,,1,,,73,93
31320,note_on,13,0,4,,,,,,,,10,,,40,77
31320,note_on,14,0,6,,,,,,,,0,,,40,89
31320,note_on,55,0,2,,,,,,,,1,,,64,77
31320,note_on,4,0,5,,,,,,,,0,,,73,102
31320,note_on,38,0,3,,,,,,,,1,,,69,84
31339,control_change,19,0,1,,,,,,,,1,7,112,,
31354,note_on,34,0,2,,,,,,,,1,,,64,0
31362,note_on,42,0,4,,,,,,,,10,,,40,0
31368,note_on,48,0,3,,,,,,,,1,,,69,0
31371,note_on,32,0,1,,,,,,,,1,,,73,0
31377,note_on,57,0,5,,,,,,,,0,,,73,0
31380,note_on,3,0,5,,,,,,,,0,,,69,90
31380,note_on,9,0,1,,,,,,,,1,,,69,89
31380,note_on,60,0,6,,,,,,,,0,,,52,79
31380,note_on,12,0,3,,,,,,,,1,,,68,84
31380,note_on,26,0,2,,,,,,,,1,,,64,84
31380,note_on,18,0,4,,,,,,,,10,,,40,66
31384,note_on,4,0,6,,,,,,,,0,,,40,0
31413,note_on,29,0,6,,,,,,,,0,,,52,0
31421,note_on,41,0,1,,,,,,,,1,,,69,0
31425,note_on,45,0,5,,,,,,,,0,,,69,0
31427,note_on,47,0,2,,,,,,,,1,,,64,0
31430,note_on,50,0,3,,,,,,,,1,,,68,0
31432,note_on,52,0,4,,,,,,,,10,,,40,0
31440,note_on,10,0,3,,,,,,,,1,,,66,72
31440,note_on,8,0,4,,,,,,,,10,,,42,84
31440,note_on,15,0,5,,,,,,,,0,,,74,102
31440,note_on,27,0,6,,,,,,,,0,,,42,91
31440,note_on,13,0,2,,,,,,,,1,,,69,93
31440,note_on,19,0,1,,,,,,,,1,,,74,117
31473,note_on,33,0,2,,,,,,,,1,,,69,0
31480,note_on,40,0,3,,,,,,,,1,,,66,0
31481,note_on,41,0,4,,,,,,,,10,,,42,0
31484,note_on,44,0,1,,,,,,,,1,,,74,0
31492,note_on,52,0,5,,,,,,,,0,,,74,0
31500,note_on,19,0,4,,,,,,,,10,,,42,93
31500,note_on,60,0,6,,,,,,,,0,,,54,81
31500,note_on,16,0,1,,,,,,,,1,,,71,89
31500,note_on,8,0,5,,,,,,,,0,,,71,96
31500,note_on,27,0,2,,,,,,,,1,,,69,79
31500,note_on,20,0,3,,,,,,,,1,,,66,77
31504,note_on,4,0,6,,,,,,,,0,,,42,0
31512,control_change,12,0,4,,,,,,,,10,7,94,,
31537,note_on,33,0,6,,,,,,,,0,,,54,0
31538,note_on,38,0,5,,,,,,,,0,,,71,0
31539,note_on,39,0,2,,,,,,,,1,,,69,0
31539,note_on,27,0,4,,,,,,,,10,,,42,0
31544,note_on,44,0,3,,,,,,,,1,,,66,0
31545,note_on,45,0,1,,,,,,,,1,,,71,0
31560,note_on,15,0,1,,,,,,,,1,,,76,108
31560,note_on,22,0,5,,,,,,,,0,,,76,113
31560,note_on,21,0,4,,,,,,,,10,,,44,102
31560,note_on,23,0,6,,,,,,,,0,,,44,72
31560,note_on,21,0,2,,,,,,,,1,,,71,93
31560,note_on,16,0,3,,,,,,,,1,,,64,102
31594,note_on,34,0,2,,,,,,,,1,,,71,0
31594,note_on,34,0,3,,,,,,,,1,,,64,0
31597,note_on,37,0,4,,,,,,,,10,,,44,0
31620,note_on,26,0,2,,,,,,,,1,,,71,89
31620,note_on,60,0,6,,,,,,,,0,,,56,66
31620,note_on,23,0,4,,,,,,,,10,,,44,81
31620,note_on,26,0,3,,,,,,,,1,,,64,89
31623,control_change,3,0,4,,,,,,,,10,7,95,,
31646,note_on,26,0,6,,,,,,,,0,,,44,0
31649,note_on,89,0,1,,,,,,,,1,,,76,0
31654,note_on,94,0,5,,,,,,,,0,,,76,0
31655,note_on,35,0,3,,,,,,,,1,,,64,0
31657,control_change,34,0,4,,,,,,,,10,7,97,,
31660,note_on,40,0,2,,,,,,,,1,,,71,0
31674,note_on,28,0,6,,,,,,,,0,,,56,0
31675,note_on,18,0,4,,,,,,,,10,,,44,0
31680,note_on,31,0,1,,,,,,,,1,,,74,93
31680,note_on,6,0,6,,,,,,,,0,,,45,93
31680,note_on,26,0,5,,,,,,,,0,,,74,96
31680,note_on,20,0,2,,,,,,,,1,,,69,108
31680,note_on,25,0,3,,,,,,,,1,,,64,102
31680,note_on,5,0,4,,,,,,,,10,,,45,69
31724,note_on,44,0,1,,,,,,,,1,,,74,0
31735,note_on,55,0,5,,,,,,,,0,,,74,0
31740,note_on,16,0,1,,,,,,,,1,,,73,108
31740,note_on,5,0,5,,,,,,,,0,,,73,96
31744,note_on,64,0,2,,,,,,,,1,,,69,0
31758,note_on,78,0,6,,,,,,,,0,,,45,0
31773,note_on,93,0,4,,,,,,,,10,,,45,0
31776,note_on,96,0,3,,,,,,,,1,,,64,0
31778,note_on,38,0,5,,,,,,,,0,,,73,0
31780,note_on,40,0,1,,,,,,,,1,,,73,0
31800,note_on,20,0,1,,,,,,,,1,,,71,108
31800,note_on,42,0,6,,,,,,,,0,,,42,51
31800,note_on,27,0,4,,,,,,,,10,,,42,74
31800,note_on,22,0,5,,,,,,,,0,,,71,90
31800,note_on,24,0,3,,,,,,,,1,,,66,89
31800,note_on,56,0,2,,,,,,,,1,,,61,84
31850,note_on,50,0,1,,,,,,,,1,,,71,0
31860,note_on,60,0,5,,,,,,,,0,,,69,82
31860,control_change,60,0,4,,,,,,,,10,7,96,,
31860,note_on,10,0,1,,,,,,,,1,,,69,81
31861,note_on,1,0,5,,,,,,,,0,,,71,0
31861,note_on,61,0,6,,,,,,,,0,,,42,0
31879,control_change,19,0,4,,,,,,,,10,7,94,,
31889,note_on,89,0,2,,,,,,,,1,,,61,0
31898,note_on,19,0,4,,,,,,,,10,,,42,0
31900,note_on,39,0,5,,,,,,,,0,,,69,0
31905,note_on,105,0,3,,,,,,,,1,,,66,0
31908,note_on,48,0,1,,,,,,,,1,,,69,0
31920,note_on,12,0,1,,,,,,,,1,,,73,117
31920,note_on,22,0,4,,,,,,,,10,,,38,96
31920,note_on,20,0,5,,,,,,,,0,,,73,88
31920,note_on,31,0,2,,,,,,,,1,,,66,102
31920,note_on,15,0,3,,,,,,,,1,,,66,96
31920,note_on,59,0,6,,,,,,,,0,,,38,81
31923,control_change,3,0,4,,,,,,,,10,7,93,,
31965,note_on,45,0,1,,,,,,,,1,,,73,0
31976,note_on,56,0,5,,,,,,,,0,,,73,0
31980,note_on,4,0,5,,,,,,,,0,,,71,96
31980,note_on,15,0,1,,,,,,,,1,,,71,84
32008,note_on,88,0,2,,,,,,,,1,,,66,0
32012,note_on,92,0,6,,,,,,,,0,,,38,0
32013,note_on,93,0,3,,,,,,,,1,,,66,0
32020,note_on,97,0,4,,,,,,,,10,,,38,0
32022,note_on,42,0,1,,,,,,,,1,,,71,0
32028,note_on,48,0,5,,,,,,,,0,,,71,0
32040,note_on,12,0,5,,,,,,,,0,,,69,106
32040,note_on,18,0,1,,,,,,,,1,,,69,108
32040,note_on,20,0,4,,,,,,,,10,,,40,84
32040,note_on,27,0,3,,,,,,,,1,,,59,89
32040,note_on,32,0,2,,,,,,,,1,,,64,72
32040,note_on,28,0,6,,,,,,,,0,,,40,77
32077,note_on,37,0,1,,,,,,,,1,,,69,0
32088,note_on,48,0,5,,,,,,,,0,,,69,0
32100,note_on,12,0,5,,,,,,,,0,,,68,88
32100,note_on,23,0,1,,,,,,,,1,,,68,105
32110,control_change,70,0,4,,,,,,,,10,7,91,,
32125,note_on,85,0,2,,,,,,,,1,,,64,0
32128,note_on,88,0,6,,,,,,,,0,,,40,0
32132,note_on,92,0,3,,,,,,,,1,,,59,0
32134,note_on,24,0,4,,,,,,,,10,,,40,0
32137,note_on,37,0,5,,,,,,,,0,,,68,0
32145,note_on,45,0,1,,,,,,,,1,,,68,0
32160,note_on,32,0,6,,,,,,,,0,,,45,108
32160,note_on,15,0,1,,,,,,,,1,,,69,120
32160,note_on,23,0,5,,,,,,,,0,,,69,102
32160,note_on,26,0,4,,,,,,,,10,,,33,99
32160,note_on,35,0,2,,,,,,,,1,,,64,66
32160,note_on,28,0,3,,,,,,,,1,,,61,96
32252,note_on,92,0,5,,,,,,,,0,,,69,0
32273,note_on,113,0,1,,,,,,,,1,,,69,0
32273,note_on,113,0,4,,,,,,,,10,,,33,0
32273,note_on,113,0,3,,,,,,,,1,,,61,0
32273,note_on,113,0,6,,,,,,,,0,,,45,0
32273,note_on,113,0,2,,,,,,,,1,,,64,0
32280,note_on,28,0,5,,,,,,,,0,,,67,90
32309,note_on,29,0,5,,,,,,,,0,,,67,0
32310,note_on,1,0,5,,,,,,,,0,,,66,70
32335,note_on,25,0,5,,,,,,,,0,,,66,0
32340,note_on,5,0,5,,,,,,,,0,,,64,85
32359,note_on,19,0,5,,,,,,,,0,,,64,0
32370,note_on,11,0,5,,,,,,,,0,,,66,79
32388,note_on,18,0,5,,,,,,,,0,,,66,0
32400,note_on,12,0,5,,,,,,,,0,,,67,90
32426,note_on,26,0,5,,,,,,,,0,,,67,0
32430,note_on,4,0,5,,,,,,,,0,,,66,63
32449,note_on,19,0,5,,,,,,,,0,,,66,0
32460,note_on,11,0,5,,,,,,,,0,,,64,66
32479,control_change,206,0,4,,,,,,,,10,7,92,,
32479,note_on,19,0,5,,,,,,,,0,,,64,0
32487,control_change,8,0,4,,,,,,,,10,7,94,,
32490,note_on,11,0,5,,,,,,,,0,,,62,85
32496,control_change,9,0,4,,,,,,,,10,7,95,,
32507,note_on,17,0,5,,,,,,,,0,,,62,0
32520,note_on,13,0,5,,,,,,,,0,,,61,110
32524,control_change,28,0,4,,,,,,,,10,7,97,,
32537,control_change,13,0,4,,,,,,,,10,7,98,,
32550,note_on,30,0,5,,,,,,,,0,,,59,79
32553,note_on,3,0,5,,,,,,,,0,,,61,0
32555,control_change,18,0,4,,,,,,,,10,7,100,,
32564,note_on,11,0,5,,,,,,,,0,,,59,0
32580,note_on,16,0,5,,,,,,,,0,,,57,106
32595,note_on,15,0,5,,,,,,,,0,,,57,0
32595,note_on,0,0,5,,,,,,,,0,,,55,96
32603,control_change,48,0,4,,,,,,,,10,7,101,,
32609,note_on,14,0,5,,,,,,,,0,,,55,0
32610,note_on,1,0,5,,,,,,,,0,,,54,110
32625,note_on,15,0,5,,,,,,,,0,,,52,85
32637,note_on,12,0,5,,,,,,,,0,,,54,0
32639,note_on,2,0,5,,,,,,,,0,,,52,0
32640,note_on,0,0,5,,,,,,,,0,,,62,120
32640,note_on,1,0,5,,,,,,,,0,,,66,120
32640,note_on,0,0,5,,,,,,,,0,,,57,120
32640,note_on,367,0,3,,,,,,,,1,,,54,127
32640,note_on,367,0,6,,,,,,,,0,,,50,96
32640,note_on,367,0,1,,,,,,,,1,,,62,127
32640,note_on,367,0,2,,,,,,,,1,,,57,93
32640,note_on,37,0,4,,,,,,,,10,,,38,79
32736,note_on,0,0,5,,,,,,,,0,,,66,0
32736,note_on,0,0,5,,,,,,,,0,,,62,0
32736,note_on,96,0,5,,,,,,,,0,,,57,0
32753,note_on,113,0,3,,,,,,,,1,,,54,0
32753,note_on,113,0,1,,,,,,,,1,,,62,0
32753,note_on,113,0,4,,,,,,,,10,,,38,0
32753,note_on,113,0,2,,,,,,,,1,,,57,0
32753,note_on,113,0,6,,,,,,,,0,,,50,0
32880,note_on,127,0,1,,,,,,,,1,,,66,127
32880,note_on,127,0,4,,,,,,,,10,,,26,93
32880,note_on,127,0,2,,,,,,,,1,,,62,124
32880,note_on,144,0,5,,,,,,,,0,,,62,120
32880,note_on,0,0,5,,,,,,,,0,,,57,120
32880,note_on,127,0,6,,,,,,,,0,,,38,89
32880,note_on,127,0,3,,,,,,,,1,,,57,127
32880,note_on,0,0,5,,,,,,,,0,,,54,120
32976,note_on,96,0,5,,,,,,,,0,,,54,0
32976,note_on,0,0,5,,,,,,,,0,,,57,0
32976,note_on,0,0,5,,,,,,,,0,,,62,0
32993,note_on,113,0,6,,,,,,,,0,,,38,0
32993,note_on,113,0,2,,,,,,,,1,,,62,0
32993,note_on,113,0,4,,,,,,,,10,,,26,0
32993,note_on,113,0,1,,,,,,,,1,,,66,0
32993,note_on,113,0,3,,,,,,,,1,,,57,0
33120,note_on,127,0,1,,,,,,,,1,,,69,127
33120,note_on,127,0,3,,,,,,,,1,,,62,84
33120,note_on,127,0,4,,,,,,,,10,,,38,127
33120,note_on,127,0,6,,,,,,,,0,,,50,77
33120,note_on,144,0,5,,,,,,,,0,,,57,120
33120,note_on,127,0,2,,,,,,,,1,,,66,127
33168,note_on,48,0,5,,,,,,,,0,,,57,0
33180,note_on,12,0,5,,,,,,,,0,,,59,120
33228,note_on,48,0,5,,,,,,,,0,,,59,0
33233,note_on,113,0,3,,,,,,,,1,,,62,0
33233,note_on,113,0,1,,,,,,,,1,,,69,0
33233,note_on,113,0,4,,,,,,,,10,,,38,0
33233,note_on,113,0,2,,,,,,,,1,,,66,0
33233,note_on,113,0,6,,,,,,,,0,,,50,0
33240,note_on,12,0,5,,,,,,,,0,,,60,120
33288,note_on,48,0,5,,,,,,,,0,,,60,0
33300,note_on,12,0,5,,,,,,,,0,,,66,120
33348,note_on,48,0,5,,,,,,,,0,,,66,0
33360,note_on,12,0,5,,,,,,,,0,,,69,120
33360,note_on,127,0,3,,,,,,,,1,,,66,91
33360,note_on,127,0,6,,,,,,,,0,,,50,89
33402,note_on,42,0,6,,,,,,,,0,,,50,0
33408,note_on,48,0,5,,,,,,,,0,,,69,0
33418,control_change,185,0,1,,,,,,,,1,7,111,,
33420,note_on,12,0,5,,,,,,,,0,,,66,120
33458,control_change,40,0,1,,,,,,,,1,7,110,,
33468,note_on,48,0,5,,,,,,,,0,,,66,0
33473,note_on,113,0,3,,,,,,,,1,,,66,0
33480,note_on,12,0,5,,,,,,,,0,,,64,120
33528,note_on,48,0,5,,,,,,,,0,,,64,0
33540,note_on,12,0,5,,,,,,,,0,,,62,120
33568,control_change,335,0,4,,,,,,,,10,7,100,,
33583,control_change,125,0,1,,,,,,,,1,7,108,,
33588,note_on,48,0,5,,,,,,,,0,,,62,0
33600,control_change,32,0,4,,,,,,,,10,7,99,,
33600,note_on,127,0,3,,,,,,,,1,,,69,64
33600,note_on,0,0,1,,,,,,,,1,,,66,86
33600,control_change,17,0,1,,,,,,,,1,7,107,,
33600,note_on,198,0,6,,,,,,,,0,,,50,102
33600,note_on,12,0,5,,,,,,,,0,,,60,96
33600,note_on,367,0,2,,,,,,,,1,,,62,51
33632,control_change,32,0,4,,,,,,,,10,7,97,,
33633,note_on,33,0,5,,,,,,,,0,,,60,0
33660,note_on,27,0,5,,,,,,,,0,,,62,75
33666,control_change,34,0,4,,,,,,,,10,7,96,,
33679,control_change,79,0,1,,,,,,,,1,7,104,,
33688,control_change,22,0,4,,,,,,,,10,7,94,,
33704,note_on,44,0,5,,,,,,,,0,,,62,0
33706,note_on,106,0,6,,,,,,,,0,,,50,0
33713,note_on,113,0,3,,,,,,,,1,,,69,0
33713,note_on,34,0,1,,,,,,,,1,,,66,0
33713,note_on,113,0,2,,,,,,,,1,,,62,0
33714,control_change,26,0,4,,,,,,,,10,7,93,,
33720,note_on,16,0,5,,,,,,,,0,,,66,110
33720,note_on,14,0,6,,,,,,,,0,,,38,77
33766,note_on,46,0,5,,,,,,,,0,,,66,0
33780,note_on,14,0,5,,,,,,,,0,,,69,110
33825,note_on,105,0,6,,,,,,,,0,,,38,0
33826,note_on,46,0,5,,,,,,,,0,,,69,0
33840,note_on,127,0,2,,,,,,,,1,,,66,61
33840,note_on,14,0,5,,,,,,,,0,,,72,127
33888,control_change,175,0,1,,,,,,,,1,7,105,,
33890,note_on,50,0,5,,,,,,,,0,,,72,0
33900,note_on,10,0,5,,,,,,,,0,,,71,82
33913,note_on,25,0,1,,,,,,,,1,,,69,74
33948,note_on,48,0,5,,,,,,,,0,,,71,0
33953,note_on,113,0,2,,,,,,,,1,,,66,0
33960,note_on,12,0,5,,,,,,,,0,,,69,90
33960,note_on,135,0,6,,,,,,,,0,,,50,93
33978,note_on,18,0,6,,,,,,,,0,,,50,0
34010,note_on,50,0,5,,,,,,,,0,,,69,0
34020,note_on,10,0,5,,,,,,,,0,,,67,96
34026,note_on,113,0,1,,,,,,,,1,,,69,0
34055,note_on,35,0,5,,,,,,,,0,,,67,0
34080,note_on,102,0,6,,,,,,,,0,,,50,96
34080,note_on,127,0,2,,,,,,,,1,,,69,58
34080,note_on,367,0,3,,,,,,,,1,,,62,66
34080,note_on,25,0,5,,,,,,,,0,,,66,102
34130,note_on,50,0,5,,,,,,,,0,,,66,0
34140,note_on,10,0,5,,,,,,,,0,,,67,110
34153,note_on,127,0,1,,,,,,,,1,,,74,43
34172,note_on,92,0,6,,,,,,,,0,,,50,0
34184,note_on,44,0,5,,,,,,,,0,,,67,0
34193,note_on,113,0,3,,,,,,,,1,,,62,0
34193,note_on,113,0,2,,,,,,,,1,,,69,0
34200,note_on,28,0,6,,,,,,,,0,,,38,84
34200,note_on,16,0,5,,,,,,,,0,,,69,66
34249,note_on,49,0,5,,,,,,,,0,,,69,0
34260,note_on,11,0,5,,,,,,,,0,,,66,93
34266,note_on,113,0,1,,,,,,,,1,,,74,0
34299,note_on,99,0,6,,,,,,,,0,,,38,0
34310,note_on,50,0,5,,,,,,,,0,,,66,0
34320,note_on,127,0,3,,,,,,,,1,,,66,72
34320,note_on,10,0,5,,,,,,,,0,,,62,102
34372,note_on,52,0,5,,,,,,,,0,,,62,0
34380,note_on,8,0,5,,,,,,,,0,,,66,88
34429,note_on,49,0,5,,,,,,,,0,,,66,0
34433,note_on,113,0,3,,,,,,,,1,,,66,0
34440,note_on,141,0,6,,,,,,,,0,,,50,84
34440,note_on,11,0,5,,,,,,,,0,,,64,90
34471,note_on,31,0,6,,,,,,,,0,,,50,0
34479,note_on,39,0,5,,,,,,,,0,,,64,0
34500,note_on,21,0,5,,,,,,,,0,,,62,110
34550,note_on,50,0,5,,,,,,,,0,,,62,0
34560,note_on,367,0,2,,,,,,,,1,,,66,55
34560,note_on,294,0,1,,,,,,,,1,,,69,30
34560,note_on,89,0,6,,,,,,,,0,,,50,84
34560,note_on,127,0,3,,,,,,,,1,,,69,74
34560,note_on,10,0,5,,,,,,,,0,,,72,127
34615,note_on,55,0,5,,,,,,,,0,,,72,0
34620,note_on,5,0,5,,,,,,,,0,,,71,93
34629,control_change,69,0,1,,,,,,,,1,7,102,,
34663,note_on,103,0,6,,,,,,,,0,,,50,0
34665,note_on,45,0,5,,,,,,,,0,,,71,0
34680,note_on,15,0,5,,,,,,,,0,,,69,110
34680,note_on,17,0,6,,,,,,,,0,,,38,89
34734,note_on,54,0,5,,,,,,,,0,,,69,0
34740,note_on,6,0,5,,,,,,,,0,,,67,110
34776,note_on,216,0,3,,,,,,,,1,,,69,0
34776,note_on,216,0,2,,,,,,,,1,,,66,0
34776,note_on,147,0,1,,,,,,,,1,,,69,0
34779,note_on,99,0,6,,,,,,,,0,,,38,0
34780,note_on,40,0,5,,,,,,,,0,,,67,0
34800,note_on,24,0,1,,,,,,,,1,,,74,14
34800,note_on,24,0,2,,,,,,,,1,,,69,66
34800,note_on,20,0,5,,,,,,,,0,,,66,110
34849,note_on,49,0,5,,,,,,,,0,,,66,0
34860,note_on,11,0,5,,,,,,,,0,,,67,102
34909,note_on,49,0,5,,,,,,,,0,,,67,0
34920,note_on,11,0,5,,,,,,,,0,,,69,88
34920,note_on,141,0,6,,,,,,,,0,,,50,74
34953,note_on,33,0,6,,,,,,,,0,,,50,0
34970,note_on,50,0,5,,,,,,,,0,,,69,0
34980,note_on,10,0,5,,,,,,,,0,,,66,102
35016,note_on,216,0,2,,,,,,,,1,,,69,0
35016,note_on,216,0,1,,,,,,,,1,,,74,0
35026,note_on,46,0,5,,,,,,,,0,,,66,0
35040,note_on,264,0,3,,,,,,,,1,,,62,64
35040,note_on,24,0,2,,,,,,,,1,,,74,55
35040,note_on,87,0,6,,,,,,,,0,,,50,64
35040,note_on,24,0,1,,,,,,,,1,,,78,8
35040,note_on,14,0,5,,,,,,,,0,,,62,106
35089,note_on,49,0,5,,,,,,,,0,,,62,0
35100,note_on,11,0,5,,,,,,,,0,,,66,102
35128,note_on,88,0,6,,,,,,,,0,,,50,0
35151,note_on,51,0,5,,,,,,,,0,,,66,0
35160,note_on,32,0,6,,,,,,,,0,,,38,79
35160,note_on,9,0,5,,,,,,,,0,,,64,82
35205,note_on,45,0,5,,,,,,,,0,,,64,0
35220,note_on,15,0,5,,,,,,,,0,,,62,110
35256,note_on,216,0,2,,,,,,,,1,,,74,0
35256,note_on,216,0,3,,,,,,,,1,,,62,0
35256,note_on,216,0,1,,,,,,,,1,,,78,0
35267,note_on,107,0,6,,,,,,,,0,,,38,0
35273,note_on,53,0,5,,,,,,,,0,,,62,0
35280,note_on,7,0,5,,,,,,,,0,,,72,127
35280,note_on,24,0,3,,,,,,,,1,,,66,64
35334,note_on,54,0,5,,,,,,,,0,,,72,0
35340,note_on,6,0,5,,,,,,,,0,,,71,88
35386,note_on,46,0,5,,,,,,,,0,,,71,0
35400,note_on,14,0,5,,,,,,,,0,,,69,98
35456,note_on,56,0,5,,,,,,,,0,,,69,0
35460,note_on,4,0,5,,,,,,,,0,,,67,90
35496,note_on,216,0,3,,,,,,,,1,,,66,0
35496,note_on,36,0,5,,,,,,,,0,,,67,0
35520,note_on,24,0,3,,,,,,,,1,,,69,74
35520,note_on,24,0,5,,,,,,,,0,,,66,98
35571,note_on,51,0,5,,,,,,,,0,,,66,0
35580,note_on,9,0,5,,,,,,,,0,,,67,90
35622,note_on,42,0,5,,,,,,,,0,,,67,0
35640,note_on,18,0,5,,,,,,,,0,,,69,90
35676,note_on,36,0,5,,,,,,,,0,,,69,0
35700,note_on,24,0,5,,,,,,,,0,,,66,102
35702,control_change,446,0,1,,,,,,,,1,7,103,,
35728,note_on,28,0,5,,,,,,,,0,,,66,0
35736,note_on,216,0,3,,,,,,,,1,,,69,0
35746,control_change,44,0,1,,,,,,,,1,7,104,,
35760,note_on,32,0,5,,,,,,,,0,,,62,102
35760,note_on,24,0,3,,,,,,,,1,,,57,84
35780,control_change,34,0,1,,,,,,,,1,7,106,,
35806,control_change,26,0,1,,,,,,,,1,7,107,,
35819,note_on,59,0,5,,,,,,,,0,,,62,0
35831,control_change,25,0,1,,,,,,,,1,7,109,,
35835,note_on,75,0,3,,,,,,,,1,,,57,0
35880,note_on,0,0,5,,,,,,,,0,,,62,89
35880,note_on,613,0,6,,,,,,,,0,,,38,96
35880,note_on,2166,0,4,,,,,,,,10,,,26,111
35880,note_on,61,0,5,,,,,,,,0,,,66,127
35880,note_on,624,0,2,,,,,,,,1,,,62,127
35880,note_on,45,0,3,,,,,,,,1,,,62,77
35880,note_on,49,0,1,,,,,,,,1,,,66,105
35915,note_on,35,0,1,,,,,,,,1,,,66,0
35915,note_on,35,0,2,,,,,,,,1,,,62,0
35919,note_on,39,0,6,,,,,,,,0,,,38,0
35926,note_on,46,0,5,,,,,,,,0,,,62,0
35926,note_on,0,0,5,,,,,,,,0,,,66,0
35936,note_on,56,0,4,,,,,,,,10,,,26,0
35940,note_on,25,0,2,,,,,,,,1,,,64,105
35940,note_on,14,0,5,,,,,,,,0,,,67,106
35940,note_on,25,0,1,,,,,,,,1,,,67,124
35940,note_on,0,0,5,,,,,,,,0,,,64,81
35949,note_on,69,0,3,,,,,,,,1,,,62,0
35956,control_change,20,0,4,,,,,,,,10,7,91,,
35965,control_change,9,0,4,,,,,,,,10,7,90,,
35974,note_on,34,0,2,,,,,,,,1,,,64,0
35975,note_on,35,0,5,,,,,,,,0,,,64,0
35979,note_on,4,0,5,,,,,,,,0,,,67,0
35984,note_on,44,0,1,,,,,,,,1,,,67,0
36000,note_on,81,0,6,,,,,,,,0,,,50,89
36000,note_on,26,0,2,,,,,,,,1,,,66,99
36000,note_on,21,0,5,,,,,,,,0,,,66,105
36000,note_on,35,0,4,,,,,,,,10,,,38,111
36000,note_on,16,0,1,,,,,,,,1,,,69,124
36000,note_on,51,0,3,,,,,,,,1,,,57,89
36000,note_on,0,0,5,,,,,,,,0,,,69,127
36042,note_on,42,0,6,,,,,,,,0,,,50,0
36047,note_on,47,0,4,,,,,,,,10,,,38,0
36057,note_on,57,0,1,,,,,,,,1,,,69,0
36060,note_on,18,0,6,,,,,,,,0,,,52,77
36060,note_on,13,0,4,,,,,,,,10,,,40,72
36063,note_on,63,0,5,,,,,,,,0,,,69,0
36071,note_on,71,0,2,,,,,,,,1,,,66,0
36073,note_on,73,0,3,,,,,,,,1,,,57,0
36082,note_on,19,0,5,,,,,,,,0,,,66,0
36099,note_on,39,0,6,,,,,,,,0,,,52,0
36102,note_on,42,0,4,,,,,,,,10,,,40,0
36120,note_on,0,0,5,,,,,,,,0,,,66,102
36120,note_on,47,0,3,,,,,,,,1,,,62,74
36120,note_on,63,0,1,,,,,,,,1,,,66,86
36120,note_on,18,0,4,,,,,,,,10,,,42,81
36120,note_on,49,0,2,,,,,,,,1,,,62,127
36120,note_on,38,0,5,,,,,,,,0,,,62,89
36120,note_on,21,0,6,,,,,,,,0,,,54,74
36145,control_change,25,0,1,,,,,,,,1,7,108,,
36150,note_on,30,0,2,,,,,,,,1,,,62,0
36151,note_on,31,0,6,,,,,,,,0,,,54,0
36153,note_on,8,0,1,,,,,,,,1,,,66,0
36153,note_on,33,0,5,,,,,,,,0,,,66,0
36156,note_on,36,0,4,,,,,,,,10,,,42,0
36156,note_on,3,0,5,,,,,,,,0,,,62,0
36157,aftertouch,4,0,1,,,,,,,,1,,18,,
36167,aftertouch,10,0,1,,,,,,,,1,,0,,
36169,aftertouch,2,0,1,,,,,,,,1,,9,,
36179,aftertouch,10,0,1,,,,,,,,1,,0,,
36180,note_on,0,0,5,,,,,,,,0,,,67,110
36180,note_on,1,0,1,,,,,,,,1,,,67,91
36180,note_on,29,0,6,,,,,,,,0,,,52,102
36180,note_on,30,0,2,,,,,,,,1,,,64,102
36180,note_on,24,0,4,,,,,,,,10,,,40,81
36180,note_on,24,0,5,,,,,,,,0,,,64,96
36181,aftertouch,1,0,1,,,,,,,,1,,4,,
36190,aftertouch,9,0,1,,,,,,,,1,,0,,
36194,note_on,74,0,3,,,,,,,,1,,,62,0
36202,control_change,12,0,1,,,,,,,,1,7,107,,
36209,note_on,29,0,5,,,,,,,,0,,,67,0
36211,note_on,31,0,2,,,,,,,,1,,,64,0
36213,note_on,4,0,5,,,,,,,,0,,,64,0
36213,note_on,33,0,6,,,,,,,,0,,,52,0
36216,note_on,14,0,1,,,,,,,,1,,,67,0
36220,note_on,40,0,4,,,,,,,,10,,,40,0
36240,note_on,24,0,1,,,,,,,,1,,,69,124
36240,note_on,0,0,5,,,,,,,,0,,,66,111
36240,note_on,27,0,5,,,,,,,,0,,,69,127
36240,note_on,27,0,6,,,,,,,,0,,,50,72
36240,note_on,20,0,4,,,,,,,,10,,,38,108
36240,note_on,46,0,3,,,,,,,,1,,,57,84
36240,note_on,29,0,2,,,,,,,,1,,,66,127
36279,note_on,39,0,6,,,,,,,,0,,,50,0
36281,note_on,41,0,4,,,,,,,,10,,,38,0
36300,note_on,60,0,5,,,,,,,,0,,,69,0
36300,note_on,21,0,6,,,,,,,,0,,,52,74
36300,note_on,19,0,4,,,,,,,,10,,,40,99
36304,note_on,4,0,5,,,,,,,,0,,,66,0
36312,note_on,72,0,1,,,,,,,,1,,,69,0
36316,note_on,76,0,3,,,,,,,,1,,,57,0
36324,note_on,84,0,2,,,,,,,,1,,,66,0
36332,note_on,32,0,6,,,,,,,,0,,,52,0
36339,note_on,39,0,4,,,,,,,,10,,,40,0
36360,note_on,36,0,2,,,,,,,,1,,,69,123
36360,note_on,48,0,1,,,,,,,,1,,,74,127
36360,note_on,28,0,6,,,,,,,,0,,,54,84
36360,note_on,56,0,5,,,,,,,,0,,,74,127
36360,note_on,0,0,5,,,,,,,,0,,,69,111
36360,note_on,21,0,4,,,,,,,,10,,,42,124
36393,note_on,33,0,6,,,,,,,,0,,,54,0
36395,note_on,35,0,4,,,,,,,,10,,,42,0
36420,note_on,27,0,6,,,,,,,,0,,,52,72
36420,note_on,25,0,4,,,,,,,,10,,,40,84
36424,note_on,64,0,1,,,,,,,,1,,,74,0
36429,note_on,69,0,5,,,,,,,,0,,,69,0
36432,note_on,3,0,5,,,,,,,,0,,,74,0
36438,note_on,78,0,2,,,,,,,,1,,,69,0
36458,note_on,38,0,6,,,,,,,,0,,,52,0
36466,note_on,46,0,4,,,,,,,,10,,,40,0
36480,note_on,14,0,4,,,,,,,,10,,,38,89
36480,note_on,56,0,1,,,,,,,,1,,,69,127
36480,note_on,22,0,6,,,,,,,,0,,,50,84
36480,note_on,48,0,5,,,,,,,,0,,,66,105
36480,note_on,164,0,3,,,,,,,,1,,,62,79
36480,note_on,42,0,2,,,,,,,,1,,,66,86
36480,note_on,0,0,5,,,,,,,,0,,,69,127
36483,control_change,3,0,1,,,,,,,,1,7,109,,
36519,note_on,39,0,6,,,,,,,,0,,,50,0
36519,note_on,39,0,4,,,,,,,,10,,,38,0
36537,note_on,57,0,3,,,,,,,,1,,,62,0
36540,note_on,21,0,4,,,,,,,,10,,,40,74
36540,note_on,21,0,6,,,,,,,,0,,,52,72
36547,note_on,64,0,1,,,,,,,,1,,,69,0
36548,note_on,68,0,5,,,,,,,,0,,,69,0
36552,note_on,4,0,5,,,,,,,,0,,,66,0
36555,note_on,75,0,2,,,,,,,,1,,,66,0
36579,note_on,39,0,6,,,,,,,,0,,,52,0
36584,note_on,44,0,4,,,,,,,,10,,,40,0
36600,note_on,0,0,5,,,,,,,,0,,,69,102
36600,note_on,63,0,3,,,,,,,,1,,,57,74
36600,note_on,48,0,5,,,,,,,,0,,,62,89
36600,note_on,21,0,6,,,,,,,,0,,,54,96
36600,note_on,16,0,4,,,,,,,,10,,,42,86
36600,note_on,53,0,1,,,,,,,,1,,,69,124
36600,note_on,45,0,2,,,,,,,,1,,,62,99
36636,note_on,36,0,6,,,,,,,,0,,,54,0
36640,note_on,40,0,1,,,,,,,,1,,,69,0
36641,note_on,41,0,4,,,,,,,,10,,,42,0
36644,note_on,44,0,5,,,,,,,,0,,,69,0
36660,note_on,24,0,6,,,,,,,,0,,,52,69
36660,note_on,19,0,4,,,,,,,,10,,,40,79
36660,note_on,16,0,5,,,,,,,,0,,,67,106
36660,note_on,20,0,1,,,,,,,,1,,,67,79
36672,note_on,12,0,5,,,,,,,,0,,,62,0
36676,note_on,76,0,3,,,,,,,,1,,,57,0
36677,note_on,77,0,2,,,,,,,,1,,,62,0
36691,note_on,31,0,6,,,,,,,,0,,,52,0
36699,note_on,27,0,5,,,,,,,,0,,,67,0
36702,note_on,42,0,1,,,,,,,,1,,,67,0
36704,note_on,44,0,4,,,,,,,,10,,,40,0
36720,note_on,18,0,1,,,,,,,,1,,,66,125
36720,note_on,29,0,6,,,,,,,,0,,,50,84
36720,note_on,21,0,5,,,,,,,,0,,,62,84
36720,note_on,43,0,2,,,,,,,,1,,,62,120
36720,note_on,44,0,3,,,,,,,,1,,,57,72
36720,note_on,16,0,4,,,,,,,,10,,,38,96
36720,note_on,0,0,5,,,,,,,,0,,,66,110
36784,note_on,64,0,5,,,,,,,,0,,,66,0
36793,note_on,73,0,1,,,,,,,,1,,,66,0
36794,note_on,74,0,2,,,,,,,,1,,,62,0
36798,note_on,78,0,6,,,,,,,,0,,,50,0
36799,note_on,79,0,4,,,,,,,,10,,,38,0
36818,note_on,98,0,3,,,,,,,,1,,,57,0
36840,note_on,22,0,3,,,,,,,,1,,,54,61
36840,note_on,46,0,2,,,,,,,,1,,,57,93
36840,note_on,56,0,5,,,,,,,,0,,,64,90
36840,note_on,41,0,4,,,,,,,,10,,,26,93
36840,note_on,47,0,1,,,,,,,,1,,,64,96
36840,note_on,42,0,6,,,,,,,,0,,,38,102
36877,note_on,37,0,5,,,,,,,,0,,,64,0
36880,note_on,40,0,1,,,,,,,,1,,,64,0
36900,note_on,23,0,5,,,,,,,,0,,,62,85
36900,note_on,20,0,1,,,,,,,,1,,,62,74
36909,note_on,69,0,6,,,,,,,,0,,,38,0
36914,note_on,74,0,3,,,,,,,,1,,,54,0
36914,note_on,74,0,2,,,,,,,,1,,,57,0
36928,note_on,28,0,1,,,,,,,,1,,,62,0
36936,note_on,36,0,5,,,,,,,,0,,,62,0
36938,note_on,2,0,5,,,,,,,,0,,,62,0
36951,note_on,111,0,4,,,,,,,,10,,,26,0
36960,note_on,22,0,5,,,,,,,,0,,,69,106
36960,note_on,32,0,1,,,,,,,,1,,,57,14
36960,note_on,46,0,3,,,,,,,,1,,,54,30
36960,note_on,46,0,2,,,,,,,,1,,,62,51
36960,note_on,51,0,6,,,,,,,,0,,,50,64
37005,note_on,45,0,5,,,,,,,,0,,,69,0
37020,note_on,15,0,5,,,,,,,,0,,,74,106
37056,note_on,96,0,6,,,,,,,,0,,,50,0
37062,note_on,42,0,5,,,,,,,,0,,,74,0
37080,note_on,18,0,5,,,,,,,,0,,,69,82
37080,note_on,24,0,6,,,,,,,,0,,,54,89
37098,control_change,138,0,1,,,,,,,,1,7,108,,
37120,note_on,40,0,6,,,,,,,,0,,,54,0
37124,note_on,44,0,5,,,,,,,,0,,,69,0
37138,control_change,40,0,1,,,,,,,,1,7,107,,
37140,note_on,20,0,6,,,,,,,,0,,,52,72
37140,note_on,16,0,5,,,,,,,,0,,,67,90
37172,note_on,32,0,5,,,,,,,,0,,,67,0
37196,note_on,56,0,6,,,,,,,,0,,,52,0
37200,note_on,28,0,5,,,,,,,,0,,,66,120
37200,note_on,4,0,6,,,,,,,,0,,,50,89
37218,control_change,80,0,1,,,,,,,,1,7,105,,
37239,note_on,39,0,5,,,,,,,,0,,,66,0
37260,note_on,21,0,5,,,,,,,,0,,,69,96
37276,note_on,76,0,6,,,,,,,,0,,,50,0
37299,note_on,39,0,5,,,,,,,,0,,,69,0
37320,note_on,44,0,6,,,,,,,,0,,,45,89
37320,note_on,21,0,5,,,,,,,,0,,,66,117
37355,note_on,35,0,5,,,,,,,,0,,,66,0
37380,note_on,25,0,5,,,,,,,,0,,,64,117
37384,note_on,64,0,6,,,,,,,,0,,,45,0
37419,note_on,39,0,5,,,,,,,,0,,,64,0
37440,note_on,21,0,5,,,,,,,,0,,,62,110
37440,note_on,56,0,6,,,,,,,,0,,,50,79
37441,control_change,223,0,1,,,,,,,,1,7,104,,
37490,note_on,50,0,5,,,,,,,,0,,,62,0
37500,note_on,10,0,5,,,,,,,,0,,,72,102
37516,note_on,76,0,6,,,,,,,,0,,,50,0
37544,note_on,44,0,5,,,,,,,,0,,,72,0
37560,note_on,16,0,5,,,,,,,,0,,,69,102
37560,note_on,44,0,6,,,,,,,,0,,,54,81
37600,note_on,40,0,6,,,,,,,,0,,,54,0
37614,note_on,54,0,5,,,,,,,,0,,,69,0
37620,note_on,6,0,5,,,,,,,,0,,,67,88
37620,note_on,20,0,6,,,,,,,,0,,,52,69
37660,note_on,40,0,6,,,,,,,,0,,,52,0
37666,note_on,46,0,5,,,,,,,,0,,,67,0
37680,note_on,14,0,5,,,,,,,,0,,,66,90
37680,note_on,20,0,6,,,,,,,,0,,,50,84
37717,note_on,37,0,5,,,,,,,,0,,,66,0
37740,note_on,23,0,5,,,,,,,,0,,,69,90
37755,note_on,75,0,6,,,,,,,,0,,,50,0
37782,note_on,42,0,5,,,,,,,,0,,,69,0
37800,note_on,45,0,6,,,,,,,,0,,,45,89
37800,note_on,18,0,5,,,,,,,,0,,,66,73
37832,note_on,32,0,5,,,,,,,,0,,,66,0
37860,note_on,28,0,5,,,,,,,,0,,,64,90
37885,note_on,85,0,6,,,,,,,,0,,,45,0
37902,note_on,42,0,5,,,,,,,,0,,,64,0
37920,note_on,18,0,5,,,,,,,,0,,,62,102
37920,note_on,35,0,6,,,,,,,,0,,,47,66
37930,control_change,979,0,4,,,,,,,,10,7,88,,
37969,note_on,49,0,5,,,,,,,,0,,,62,0
37977,control_change,47,0,4,,,,,,,,10,7,87,,
37980,note_on,11,0,5,,,,,,,,0,,,71,96
38014,note_on,94,0,6,,,,,,,,0,,,47,0
38024,note_on,44,0,5,,,,,,,,0,,,71,0
38040,note_on,26,0,6,,,,,,,,0,,,52,74
38040,note_on,16,0,5,,,,,,,,0,,,67,93
38080,note_on,40,0,6,,,,,,,,0,,,52,0
38086,note_on,46,0,5,,,,,,,,0,,,67,0
38100,note_on,20,0,6,,,,,,,,0,,,50,77
38100,note_on,14,0,5,,,,,,,,0,,,66,82
38112,note_on,1152,0,2,,,,,,,,1,,,62,0
38112,note_on,1152,0,3,,,,,,,,1,,,54,0
38112,note_on,671,0,1,,,,,,,,1,,,57,0
38139,note_on,39,0,6,,,,,,,,0,,,50,0
38142,note_on,42,0,5,,,,,,,,0,,,66,0
38160,note_on,21,0,6,,,,,,,,0,,,49,89
38160,note_on,18,0,5,,,,,,,,0,,,64,75
38200,note_on,40,0,5,,,,,,,,0,,,64,0
38220,note_on,20,0,5,,,,,,,,0,,,67,90
38240,note_on,80,0,6,,,,,,,,0,,,49,0
38271,note_on,51,0,5,,,,,,,,0,,,67,0
38280,note_on,40,0,6,,,,,,,,0,,,47,84
38280,note_on,9,0,5,,,,,,,,0,,,64,90
38320,note_on,40,0,5,,,,,,,,0,,,64,0
38340,note_on,20,0,5,,,,,,,,0,,,62,73
38364,note_on,84,0,6,,,,,,,,0,,,47,0
38373,note_on,33,0,5,,,,,,,,0,,,62,0
38400,note_on,36,0,6,,,,,,,,0,,,45,96
38400,note_on,27,0,5,,,,,,,,0,,,61,117
38444,note_on,44,0,5,,,,,,,,0,,,61,0
38460,note_on,16,0,5,,,,,,,,0,,,64,75
38488,note_on,88,0,6,,,,,,,,0,,,45,0
38505,note_on,45,0,5,,,,,,,,0,,,64,0
38520,note_on,32,0,6,,,,,,,,0,,,47,69
38520,note_on,15,0,5,,,,,,,,0,,,67,102
38549,note_on,29,0,5,,,,,,,,0,,,67,0
38577,note_on,57,0,6,,,,,,,,0,,,47,0
38580,note_on,31,0,5,,,,,,,,0,,,71,102
38608,note_on,28,0,5,,,,,,,,0,,,71,0
38640,note_on,32,0,5,,,,,,,,0,,,69,85
38640,note_on,63,0,6,,,,,,,,0,,,49,84
38656,note_on,16,0,5,,,,,,,,0,,,69,0
38670,note_on,14,0,5,,,,,,,,0,,,71,102
38685,note_on,15,0,5,,,,,,,,0,,,71,0
38696,note_on,56,0,6,,,,,,,,0,,,49,0
38700,note_on,15,0,5,,,,,,,,0,,,69,82
38760,note_on,64,0,6,,,,,,,,0,,,45,89
38803,note_on,103,0,5,,,,,,,,0,,,69,0
38815,note_on,55,0,6,,,,,,,,0,,,45,0
38820,note_on,17,0,5,,,,,,,,0,,,67,93
38849,note_on,29,0,5,,,,,,,,0,,,67,0
38880,note_on,903,0,4,,,,,,,,10,,,38,58
38880,note_on,65,0,6,,,,,,,,0,,,50,108
38880,note_on,31,0,5,,,,,,,,0,,,66,75
38931,note_on,51,0,5,,,,,,,,0,,,66,0
38940,note_on,9,0,5,,,,,,,,0,,,69,75
38957,control_change,77,0,4,,,,,,,,10,7,88,,
38968,control_change,11,0,4,,,,,,,,10,7,89,,
38978,note_on,38,0,5,,,,,,,,0,,,69,0
39000,note_on,22,0,5,,,,,,,,0,,,73,102
39000,note_on,888,0,2,,,,,,,,1,,,66,30
39000,note_on,888,0,1,,,,,,,,1,,,69,30
39000,note_on,888,0,3,,,,,,,,1,,,62,48
39048,note_on,48,0,5,,,,,,,,0,,,73,0
39060,note_on,12,0,5,,,,,,,,0,,,74,106
39072,note_on,72,0,1,,,,,,,,1,,,69,0
39075,note_on,75,0,3,,,,,,,,1,,,62,0
39087,note_on,87,0,2,,,,,,,,1,,,66,0
39096,note_on,128,0,4,,,,,,,,10,,,38,0
39096,note_on,216,0,6,,,,,,,,0,,,50,0
39106,note_on,46,0,5,,,,,,,,0,,,74,0
39120,note_on,24,0,4,,,,,,,,10,,,37,61
39120,note_on,14,0,5,,,,,,,,0,,,64,75
39120,note_on,24,0,6,,,,,,,,0,,,49,89
39169,note_on,49,0,5,,,,,,,,0,,,64,0
39180,note_on,11,0,5,,,,,,,,0,,,69,117
39222,note_on,42,0,5,,,,,,,,0,,,69,0
39240,note_on,168,0,1,,,,,,,,1,,,69,35
39240,note_on,165,0,3,,,,,,,,1,,,61,39
39240,note_on,153,0,2,,,,,,,,1,,,66,22
39240,note_on,18,0,5,,,,,,,,0,,,73,110
39288,note_on,48,0,5,,,,,,,,0,,,73,0
39300,note_on,12,0,5,,,,,,,,0,,,74,102
39311,note_on,71,0,1,,,,,,,,1,,,69,0
39326,note_on,86,0,3,,,,,,,,1,,,61,0
39334,note_on,94,0,2,,,,,,,,1,,,66,0
39336,note_on,216,0,4,,,,,,,,10,,,37,0
39336,note_on,216,0,6,,,,,,,,0,,,49,0
39348,note_on,48,0,5,,,,,,,,0,,,74,0
39360,note_on,12,0,5,,,,,,,,0,,,62,44
39360,note_on,24,0,4,,,,,,,,10,,,35,51
39360,note_on,24,0,6,,,,,,,,0,,,47,77
39408,note_on,48,0,5,,,,,,,,0,,,62,0
39420,note_on,12,0,5,,,,,,,,0,,,69,96
39469,note_on,49,0,5,,,,,,,,0,,,69,0
39480,note_on,169,0,1,,,,,,,,1,,,69,30
39480,note_on,146,0,2,,,,,,,,1,,,66,26
39480,note_on,154,0,3,,,,,,,,1,,,59,55
39480,note_on,11,0,5,,,,,,,,0,,,73,73
39530,note_on,50,0,5,,,,,,,,0,,,73,0
39540,note_on,10,0,5,,,,,,,,0,,,74,96
39545,note_on,65,0,1,,,,,,,,1,,,69,0
39553,note_on,73,0,3,,,,,,,,1,,,59,0
39564,note_on,84,0,2,,,,,,,,1,,,66,0
39576,note_on,216,0,4,,,,,,,,10,,,35,0
39576,note_on,216,0,6,,,,,,,,0,,,47,0
39584,note_on,44,0,5,,,,,,,,0,,,74,0
39600,note_on,24,0,6,,,,,,,,0,,,52,84
39600,note_on,24,0,4,,,,,,,,10,,,40,51
39600,note_on,16,0,5,,,,,,,,0,,,64,85
39653,note_on,53,0,5,,,,,,,,0,,,64,0
39660,note_on,7,0,5,,,,,,,,0,,,68,85
39709,note_on,49,0,5,,,,,,,,0,,,68,0
39720,note_on,11,0,5,,,,,,,,0,,,71,102
39720,note_on,156,0,2,,,,,,,,1,,,64,26
39720,note_on,175,0,1,,,,,,,,1,,,68,8
39720,note_on,167,0,3,,,,,,,,1,,,52,55
39774,note_on,54,0,5,,,,,,,,0,,,71,0
39780,note_on,6,0,5,,,,,,,,0,,,74,96
39780,note_on,60,0,2,,,,,,,,1,,,64,0
39788,note_on,68,0,1,,,,,,,,1,,,68,0
39791,note_on,71,0,3,,,,,,,,1,,,52,0
39801,control_change,13,0,1,,,,,,,,1,7,106,,
39816,note_on,216,0,4,,,,,,,,10,,,40,0
39816,note_on,216,0,6,,,,,,,,0,,,52,0
39817,note_on,37,0,5,,,,,,,,0,,,74,0
39827,control_change,26,0,1,,,,,,,,1,7,107,,
39840,note_on,60,0,2,,,,,,,,1,,,64,43
39840,note_on,24,0,6,,,,,,,,0,,,45,96
39840,note_on,24,0,4,,,,,,,,10,,,33,58
39840,note_on,23,0,5,,,,,,,,0,,,73,75
39840,note_on,13,0,1,,,,,,,,1,,,69,22
39840,note_on,49,0,3,,,,,,,,1,,,57,69
39864,control_change,24,0,1,,,,,,,,1,7,109,,
39891,note_on,51,0,5,,,,,,,,0,,,73,0
39900,note_on,9,0,5,,,,,,,,0,,,69,85
39925,control_change,85,0,4,,,,,,,,10,7,91,,
39955,control_change,30,0,4,,,,,,,,10,7,92,,
39957,note_on,57,0,5,,,,,,,,0,,,69,0
39960,note_on,3,0,5,,,,,,,,0,,,64,75
39997,note_on,37,0,5,,,,,,,,0,,,64,0
40020,note_on,23,0,5,,,,,,,,0,,,61,75
40056,note_on,216,0,6,,,,,,,,0,,,45,0
40056,note_on,216,0,2,,,,,,,,1,,,64,0
40056,note_on,192,0,1,,,,,,,,1,,,69,0
40065,note_on,45,0,5,,,,,,,,0,,,61,0
40080,note_on,15,0,5,,,,,,,,0,,,57,110
40131,note_on,51,0,5,,,,,,,,0,,,57,0
40140,note_on,9,0,5,,,,,,,,0,,,76,104
40140,note_on,84,0,6,,,,,,,,0,,,47,86
40186,note_on,46,0,5,,,,,,,,0,,,76,0
40196,note_on,56,0,6,,,,,,,,0,,,47,0
40200,note_on,14,0,5,,,,,,,,0,,,78,110
40200,note_on,4,0,6,,,,,,,,0,,,45,93
40224,control_change,168,0,1,,,,,,,,1,7,110,,
40245,note_on,45,0,5,,,,,,,,0,,,78,0
40246,note_on,46,0,6,,,,,,,,0,,,45,0
40260,note_on,15,0,5,,,,,,,,0,,,79,98
40260,note_on,14,0,6,,,,,,,,0,,,43,86
40272,note_on,432,0,3,,,,,,,,1,,,57,0
40272,note_on,317,0,4,,,,,,,,10,,,33,0
40302,note_on,42,0,5,,,,,,,,0,,,79,0
40315,note_on,55,0,6,,,,,,,,0,,,43,0
40320,note_on,96,0,1,,,,,,,,1,,,81,127
40320,note_on,5,0,6,,,,,,,,0,,,42,99
40320,note_on,48,0,3,,,,,,,,1,,,66,105
40320,note_on,264,0,2,,,,,,,,1,,,73,127
40320,note_on,48,0,4,,,,,,,,10,,,30,127
40320,note_on,18,0,5,,,,,,,,0,,,81,88
40329,control_change,9,0,1,,,,,,,,1,7,112,,
40343,control_change,23,0,4,,,,,,,,10,7,94,,
40344,note_on,15,0,1,,,,,,,,1,,,81,0
40348,note_on,28,0,2,,,,,,,,1,,,73,0
40359,note_on,39,0,3,,,,,,,,1,,,66,0
40364,note_on,44,0,5,,,,,,,,0,,,81,0
40370,note_on,27,0,4,,,,,,,,10,,,30,0
40375,note_on,55,0,6,,,,,,,,0,,,42,0
40380,note_on,21,0,3,,,,,,,,1,,,66,108
40380,note_on,10,0,4,,,,,,,,10,,,31,108
40380,note_on,32,0,2,,,,,,,,1,,,73,86
40380,note_on,36,0,1,,,,,,,,1,,,81,96
40380,note_on,16,0,5,,,,,,,,0,,,69,110
40380,note_on,5,0,6,,,,,,,,0,,,43,86
40401,note_on,21,0,1,,,,,,,,1,,,81,0
40405,note_on,25,0,2,,,,,,,,1,,,73,0
40415,note_on,35,0,3,,,,,,,,1,,,66,0
40418,note_on,38,0,5,,,,,,,,0,,,69,0
40425,note_on,45,0,4,,,,,,,,10,,,31,0
40435,note_on,55,0,6,,,,,,,,0,,,43,0
40440,note_on,25,0,3,,,,,,,,1,,,66,102
40440,note_on,22,0,5,,,,,,,,0,,,81,124
40440,note_on,15,0,4,,,,,,,,10,,,33,102
40440,note_on,35,0,2,,,,,,,,1,,,73,114
40440,note_on,39,0,1,,,,,,,,1,,,81,105
40440,note_on,5,0,6,,,,,,,,0,,,45,96
40462,note_on,22,0,1,,,,,,,,1,,,81,0
40465,note_on,25,0,2,,,,,,,,1,,,73,0
40476,note_on,36,0,3,,,,,,,,1,,,66,0
40476,note_on,36,0,5,,,,,,,,0,,,81,0
40497,note_on,57,0,6,,,,,,,,0,,,45,0
40500,note_on,3,0,6,,,,,,,,0,,,47,89
40500,note_on,60,0,4,,,,,,,,10,,,35,89
40500,note_on,35,0,2,,,,,,,,1,,,73,127
40500,note_on,38,0,1,,,,,,,,1,,,81,127
40500,note_on,24,0,5,,,,,,,,0,,,69,96
40500,note_on,24,0,3,,,,,,,,1,,,66,105
40501,note_on,1,0,4,,,,,,,,10,,,33,0
40507,control_change,6,0,4,,,,,,,,10,7,95,,
40521,note_on,21,0,1,,,,,,,,1,,,81,0
40525,note_on,25,0,2,,,,,,,,1,,,73,0
40537,note_on,37,0,5,,,,,,,,0,,,69,0
40538,note_on,38,0,3,,,,,,,,1,,,66,0
40540,note_on,40,0,6,,,,,,,,0,,,47,0
40546,note_on,39,0,4,,,,,,,,10,,,35,0
40560,note_on,23,0,5,,,,,,,,0,,,81,88
40560,note_on,35,0,2,,,,,,,,1,,,73,99
40560,note_on,22,0,3,,,,,,,,1,,,66,111
40560,note_on,14,0,4,,,,,,,,10,,,37,80
40560,note_on,39,0,1,,,,,,,,1,,,81,127
40560,note_on,20,0,6,,,,,,,,0,,,49,89
40581,note_on,21,0,1,,,,,,,,1,,,81,0
40584,note_on,24,0,2,,,,,,,,1,,,73,0
40596,note_on,36,0,3,,,,,,,,1,,,66,0
40605,note_on,45,0,6,,,,,,,,0,,,49,0
40605,note_on,45,0,5,,,,,,,,0,,,81,0
40608,note_on,48,0,4,,,,,,,,10,,,37,0
40618,aftertouch,34,0,2,,,,,,,,1,,44,,
40620,note_on,2,0,2,,,,,,,,1,,,73,93
40620,note_on,15,0,6,,,,,,,,0,,,50,89
40620,note_on,24,0,3,,,,,,,,1,,,66,127
40620,note_on,39,0,1,,,,,,,,1,,,81,120
40620,note_on,15,0,5,,,,,,,,0,,,69,88
40620,note_on,12,0,4,,,,,,,,10,,,38,111
40627,aftertouch,7,0,2,,,,,,,,1,,0,,
40629,aftertouch,9,0,5,,,,,,,,0,,22,,
40629,aftertouch,9,0,3,,,,,,,,1,,22,,
40629,aftertouch,9,0,6,,,,,,,,0,,22,,
40629,aftertouch,2,0,2,,,,,,,,1,,22,,
40630,aftertouch,1,0,5,,,,,,,,0,,22,,
40638,aftertouch,9,0,2,,,,,,,,1,,0,,
40640,aftertouch,11,0,6,,,,,,,,0,,11,,
40641,aftertouch,0,0,5,,,,,,,,0,,11,,
40641,aftertouch,3,0,2,,,,,,,,1,,0,,
40641,aftertouch,0,0,2,,,,,,,,1,,11,,
40641,aftertouch,11,0,5,,,,,,,,0,,11,,
40641,aftertouch,21,0,4,,,,,,,,10,,0,,
40641,aftertouch,12,0,3,,,,,,,,1,,11,,
40641,aftertouch,0,0,3,,,,,,,,1,,0,,
40641,aftertouch,0,0,4,,,,,,,,10,,11,,
40641,aftertouch,1,0,6,,,,,,,,0,,0,,
40641,aftertouch,0,0,5,,,,,,,,0,,0,,
40642,aftertouch,1,0,5,,,,,,,,0,,0,,
40642,note_on,22,0,1,,,,,,,,1,,,81,0
40645,note_on,4,0,2,,,,,,,,1,,,73,0
40655,note_on,14,0,3,,,,,,,,1,,,66,0
40659,note_on,18,0,4,,,,,,,,10,,,38,0
40660,note_on,18,0,5,,,,,,,,0,,,69,0
40676,note_on,35,0,6,,,,,,,,0,,,50,0
40678,aftertouch,23,0,3,,,,,,,,1,,25,,
40680,note_on,2,0,3,,,,,,,,1,,,66,125
40680,note_on,20,0,5,,,,,,,,0,,,81,127
40680,note_on,38,0,1,,,,,,,,1,,,81,127
40680,note_on,35,0,2,,,,,,,,1,,,73,127
40680,note_on,21,0,4,,,,,,,,10,,,40,111
40680,note_on,4,0,6,,,,,,,,0,,,52,96
40687,aftertouch,7,0,3,,,,,,,,1,,0,,
40690,aftertouch,10,0,1,,,,,,,,1,,0,,
40690,aftertouch,10,0,2,,,,,,,,1,,0,,
40690,aftertouch,10,0,4,,,,,,,,10,,12,,
40690,aftertouch,3,0,3,,,,,,,,1,,12,,
40690,aftertouch,10,0,6,,,,,,,,0,,12,,
40690,aftertouch,0,0,5,,,,,,,,0,,12,,
40690,aftertouch,10,0,5,,,,,,,,0,,12,,
40692,aftertouch,2,0,1,,,,,,,,1,,34,,
40693,aftertouch,3,0,4,,,,,,,,10,,3,,
40693,aftertouch,3,0,2,,,,,,,,1,,3,,
40693,aftertouch,3,0,3,,,,,,,,1,,3,,
40693,aftertouch,0,0,2,,,,,,,,1,,34,,
40699,aftertouch,6,0,3,,,,,,,,1,,0,,
40702,aftertouch,0,0,5,,,,,,,,0,,6,,
40702,aftertouch,9,0,4,,,,,,,,10,,6,,
40702,aftertouch,12,0,5,,,,,,,,0,,6,,
40702,aftertouch,0,0,1,,,,,,,,1,,0,,
40702,aftertouch,12,0,6,,,,,,,,0,,6,,
40702,note_on,10,0,1,,,,,,,,1,,,81,0
40702,aftertouch,3,0,3,,,,,,,,1,,6,,
40703,note_on,10,0,2,,,,,,,,1,,,73,0
40703,aftertouch,0,0,2,,,,,,,,1,,0,,
40704,aftertouch,2,0,1,,,,,,,,1,,17,,
40704,aftertouch,2,0,3,,,,,,,,1,,17,,
40704,aftertouch,2,0,4,,,,,,,,10,,17,,
40704,aftertouch,1,0,2,,,,,,,,1,,17,,
40705,aftertouch,1,0,2,,,,,,,,1,,1,,
40706,aftertouch,2,0,3,,,,,,,,1,,0,,
40711,note_on,5,0,3,,,,,,,,1,,,66,0
40713,aftertouch,9,0,1,,,,,,,,1,,0,,
40714,aftertouch,9,0,2,,,,,,,,1,,0,,
40715,aftertouch,11,0,4,,,,,,,,10,,8,,
40715,aftertouch,1,0,2,,,,,,,,1,,8,,
40715,aftertouch,2,0,1,,,,,,,,1,,8,,
40715,aftertouch,4,0,3,,,,,,,,1,,8,,
40717,note_on,15,0,5,,,,,,,,0,,,81,0
40722,note_on,7,0,4,,,,,,,,10,,,40,0
40725,aftertouch,10,0,1,,,,,,,,1,,0,,
40725,note_on,23,0,6,,,,,,,,0,,,52,0
40727,aftertouch,2,0,1,,,,,,,,1,,4,,
40727,aftertouch,5,0,4,,,,,,,,10,,4,,
40727,aftertouch,12,0,3,,,,,,,,1,,4,,
40727,aftertouch,12,0,2,,,,,,,,1,,4,,
40736,aftertouch,9,0,1,,,,,,,,1,,0,,
40737,aftertouch,10,0,3,,,,,,,,1,,31,,
40739,aftertouch,3,0,1,,,,,,,,1,,2,,
40739,aftertouch,2,0,3,,,,,,,,1,,2,,
40739,aftertouch,12,0,2,,,,,,,,1,,2,,
40739,aftertouch,12,0,4,,,,,,,,10,,2,,
40740,note_on,15,0,6,,,,,,,,0,,,54,74
40740,note_on,23,0,5,,,,,,,,0,,,69,88
40740,note_on,1,0,1,,,,,,,,1,,,81,127
40740,note_on,1,0,4,,,,,,,,10,,,42,127
40740,note_on,1,0,2,,,,,,,,1,,,73,127
40740,note_on,1,0,3,,,,,,,,1,,,66,117
40742,aftertouch,2,0,1,,,,,,,,1,,0,,
40746,aftertouch,6,0,3,,,,,,,,1,,0,,
40748,aftertouch,8,0,4,,,,,,,,10,,15,,
40748,aftertouch,8,0,6,,,,,,,,0,,15,,
40748,aftertouch,2,0,3,,,,,,,,1,,15,,
40748,aftertouch,0,0,5,,,,,,,,0,,15,,
40748,aftertouch,8,0,5,,,,,,,,0,,15,,
40757,aftertouch,9,0,3,,,,,,,,1,,0,,
40758,aftertouch,10,0,6,,,,,,,,0,,7,,
40759,aftertouch,2,0,3,,,,,,,,1,,7,,
40759,aftertouch,11,0,5,,,,,,,,0,,7,,
40759,aftertouch,11,0,4,,,,,,,,10,,7,,
40759,aftertouch,0,0,5,,,,,,,,0,,7,,
40762,control_change,20,0,1,,,,,,,,1,7,111,,
40763,note_on,1,0,1,,,,,,,,1,,,81,0
40765,aftertouch,6,0,3,,,,,,,,1,,0,,
40767,note_on,27,0,2,,,,,,,,1,,,73,0
40771,note_on,6,0,3,,,,,,,,1,,,66,0
40782,note_on,23,0,5,,,,,,,,0,,,69,0
40796,note_on,38,0,6,,,,,,,,0,,,54,0
40797,control_change,34,0,1,,,,,,,,1,7,110,,
40798,control_change,39,0,4,,,,,,,,10,7,94,,
40800,aftertouch,3,0,1,,,,,,,,1,,31,,
40800,note_on,0,0,1,,,,,,,,1,,,81,127
40800,note_on,18,0,5,,,,,,,,0,,,81,102
40800,aftertouch,33,0,2,,,,,,,,1,,6,,
40800,note_on,0,0,4,,,,,,,,10,,,35,120
40800,note_on,2,0,4,,,,,,,,10,,,42,0
40800,note_on,4,0,6,,,,,,,,0,,,47,99
40800,note_on,0,0,2,,,,,,,,1,,,71,127
40800,note_on,29,0,3,,,,,,,,1,,,63,127
40809,control_change,9,0,4,,,,,,,,10,7,93,,
40813,aftertouch,13,0,5,,,,,,,,0,,3,,
40813,aftertouch,0,0,5,,,,,,,,0,,3,,
40813,aftertouch,13,0,6,,,,,,,,0,,3,,
40824,aftertouch,11,0,6,,,,,,,,0,,17,,
40824,aftertouch,11,0,5,,,,,,,,0,,17,,
40824,aftertouch,0,0,5,,,,,,,,0,,17,,
40825,aftertouch,1,0,6,,,,,,,,0,,1,,
40825,aftertouch,1,0,5,,,,,,,,0,,1,,
40834,aftertouch,9,0,6,,,,,,,,0,,8,,
40835,aftertouch,10,0,5,,,,,,,,0,,8,,
40837,control_change,28,0,4,,,,,,,,10,7,91,,
40847,aftertouch,13,0,6,,,,,,,,0,,4,,
40847,aftertouch,12,0,5,,,,,,,,0,,4,,
40848,aftertouch,1,0,5,,,,,,,,0,,4,,
40853,note_on,5,0,5,,,,,,,,0,,,81,0
40859,aftertouch,12,0,6,,,,,,,,0,,2,,
40859,aftertouch,6,0,5,,,,,,,,0,,2,,
40859,aftertouch,0,0,5,,,,,,,,0,,2,,
40860,note_on,1,0,6,,,,,,,,0,,,51,79
40860,control_change,23,0,4,,,,,,,,10,7,90,,
40860,note_on,1,0,5,,,,,,,,0,,,78,120
40864,note_on,4,0,6,,,,,,,,0,,,47,0
40901,control_change,41,0,4,,,,,,,,10,7,88,,
40905,note_on,45,0,5,,,,,,,,0,,,78,0
40919,control_change,119,0,1,,,,,,,,1,7,108,,
40920,note_on,15,0,5,,,,,,,,0,,,75,82
40920,note_on,56,0,6,,,,,,,,0,,,54,93
40921,note_on,1,0,6,,,,,,,,0,,,51,0
40969,note_on,49,0,5,,,,,,,,0,,,75,0
40980,note_on,11,0,5,,,,,,,,0,,,71,90
40980,note_on,59,0,6,,,,,,,,0,,,59,86
40983,note_on,3,0,6,,,,,,,,0,,,54,0
40997,note_on,14,0,6,,,,,,,,0,,,59,0
40998,note_on,18,0,5,,,,,,,,0,,,71,0
41016,note_on,216,0,3,,,,,,,,1,,,63,0
41016,note_on,115,0,4,,,,,,,,10,,,35,0
41016,note_on,216,0,2,,,,,,,,1,,,71,0
41016,note_on,97,0,1,,,,,,,,1,,,81,0
41040,note_on,42,0,5,,,,,,,,0,,,71,113
41040,note_on,43,0,6,,,,,,,,0,,,59,124
41052,control_change,36,0,4,,,,,,,,10,7,87,,
41095,note_on,55,0,5,,,,,,,,0,,,71,0
41100,note_on,60,0,6,,,,,,,,0,,,54,84
41100,note_on,5,0,5,,,,,,,,0,,,75,106
41101,note_on,1,0,6,,,,,,,,0,,,59,0
41145,note_on,45,0,5,,,,,,,,0,,,75,0
41159,note_on,58,0,6,,,,,,,,0,,,54,0
41160,note_on,15,0,5,,,,,,,,0,,,78,82
41160,note_on,1,0,6,,,,,,,,0,,,51,72
41208,note_on,48,0,5,,,,,,,,0,,,78,0
41216,note_on,56,0,6,,,,,,,,0,,,51,0
41220,note_on,12,0,5,,,,,,,,0,,,81,93
41220,note_on,4,0,6,,,,,,,,0,,,47,86
41250,note_on,30,0,6,,,,,,,,0,,,47,0
41260,note_on,40,0,5,,,,,,,,0,,,81,0
41280,note_on,264,0,2,,,,,,,,1,,,71,127
41280,note_on,228,0,4,,,,,,,,10,,,28,114
41280,note_on,20,0,5,,,,,,,,0,,,79,120
41280,note_on,264,0,1,,,,,,,,1,,,79,126
41280,note_on,30,0,6,,,,,,,,0,,,40,111
41280,note_on,264,0,3,,,,,,,,1,,,64,126
41298,control_change,18,0,4,,,,,,,,10,7,81,,
41306,control_change,8,0,4,,,,,,,,10,7,79,,
41308,note_on,28,0,2,,,,,,,,1,,,71,0
41309,note_on,29,0,1,,,,,,,,1,,,79,0
41314,note_on,34,0,3,,,,,,,,1,,,64,0
41324,note_on,44,0,5,,,,,,,,0,,,79,0
41337,note_on,57,0,6,,,,,,,,0,,,40,0
41340,note_on,16,0,5,,,,,,,,0,,,67,110
41340,note_on,31,0,1,,,,,,,,1,,,79,114
41340,note_on,32,0,2,,,,,,,,1,,,71,117
41340,note_on,34,0,4,,,,,,,,10,,,30,105
41340,note_on,3,0,6,,,,,,,,0,,,42,102
41340,note_on,26,0,3,,,,,,,,1,,,64,77
41342,note_on,2,0,4,,,,,,,,10,,,28,0
41366,note_on,26,0,2,,,,,,,,1,,,71,0
41367,note_on,27,0,1,,,,,,,,1,,,79,0
41371,note_on,31,0,3,,,,,,,,1,,,64,0
41379,note_on,39,0,5,,,,,,,,0,,,67,0
41381,note_on,39,0,4,,,,,,,,10,,,30,0
41384,note_on,44,0,6,,,,,,,,0,,,42,0
41396,control_change,29,0,1,,,,,,,,1,7,109,,
41400,note_on,4,0,1,,,,,,,,1,,,79,89
41400,note_on,16,0,6,,,,,,,,0,,,43,96
41400,note_on,19,0,4,,,,,,,,10,,,31,127
41400,note_on,34,0,2,,,,,,,,1,,,71,96
41400,note_on,29,0,3,,,,,,,,1,,,64,124
41400,note_on,21,0,5,,,,,,,,0,,,79,124
41404,control_change,4,0,4,,,,,,,,10,7,80,,
41425,control_change,21,0,4,,,,,,,,10,7,82,,
41430,note_on,30,0,1,,,,,,,,1,,,79,0
41432,note_on,32,0,3,,,,,,,,1,,,64,0
41433,note_on,33,0,2,,,,,,,,1,,,71,0
41439,note_on,39,0,5,,,,,,,,0,,,79,0
41441,control_change,16,0,4,,,,,,,,10,7,83,,
41446,note_on,46,0,6,,,,,,,,0,,,43,0
41448,note_on,7,0,4,,,,,,,,10,,,31,0
41460,note_on,12,0,4,,,,,,,,10,,,33,127
41460,note_on,27,0,2,,,,,,,,1,,,71,96
41460,note_on,28,0,3,,,,,,,,1,,,64,127
41460,note_on,21,0,5,,,,,,,,0,,,67,102
41460,note_on,14,0,6,,,,,,,,0,,,45,89
41460,note_on,30,0,1,,,,,,,,1,,,79,89
41467,control_change,7,0,4,,,,,,,,10,7,85,,
41481,control_change,14,0,4,,,,,,,,10,7,86,,
41484,note_on,24,0,1,,,,,,,,1,,,79,0
41489,note_on,29,0,2,,,,,,,,1,,,71,0
41490,control_change,9,0,4,,,,,,,,10,7,88,,
41490,note_on,30,0,3,,,,,,,,1,,,64,0
41496,note_on,36,0,6,,,,,,,,0,,,45,0
41498,control_change,8,0,4,,,,,,,,10,7,89,,
41502,note_on,42,0,5,,,,,,,,0,,,67,0
41504,note_on,6,0,4,,,,,,,,10,,,33,0
41520,note_on,16,0,4,,,,,,,,10,,,35,127
41520,note_on,30,0,3,,,,,,,,1,,,64,127
41520,note_on,18,0,5,,,,,,,,0,,,79,104
41520,note_on,24,0,6,,,,,,,,0,,,47,89
41520,note_on,31,0,2,,,,,,,,1,,,71,117
41520,note_on,36,0,1,,,,,,,,1,,,79,123
41524,control_change,4,0,4,,,,,,,,10,7,91,,
41547,note_on,27,0,1,,,,,,,,1,,,79,0
41548,control_change,24,0,4,,,,,,,,10,7,92,,
41549,note_on,29,0,2,,,,,,,,1,,,71,0
41549,note_on,29,0,3,,,,,,,,1,,,64,0
41559,note_on,39,0,6,,,,,,,,0,,,47,0
41562,note_on,42,0,5,,,,,,,,0,,,79,0
41566,control_change,19,0,1,,,,,,,,1,7,110,,
41567,note_on,19,0,4,,,,,,,,10,,,35,0
41576,control_change,9,0,4,,,,,,,,10,7,94,,
41580,note_on,21,0,6,,,,,,,,0,,,49,81
41580,note_on,31,0,2,,,,,,,,1,,,71,91
41580,note_on,4,0,4,,,,,,,,10,,,37,127
41580,note_on,18,0,5,,,,,,,,0,,,67,102
41580,note_on,14,0,1,,,,,,,,1,,,79,91
41580,note_on,31,0,3,,,,,,,,1,,,64,126
41604,control_change,24,0,4,,,,,,,,10,7,95,,
41604,note_on,24,0,1,,,,,,,,1,,,79,0
41607,note_on,27,0,3,,,,,,,,1,,,64,0
41608,note_on,28,0,2,,,,,,,,1,,,71,0
41620,note_on,40,0,5,,,,,,,,0,,,67,0
41633,note_on,53,0,6,,,,,,,,0,,,49,0
41637,note_on,33,0,4,,,,,,,,10,,,37,0
41640,note_on,36,0,1,,,,,,,,1,,,79,127
41640,note_on,7,0,6,,,,,,,,0,,,50,79
41640,note_on,3,0,4,,,,,,,,10,,,38,99
41640,note_on,20,0,5,,,,,,,,0,,,79,102
41640,note_on,33,0,3,,,,,,,,1,,,64,126
41640,note_on,32,0,2,,,,,,,,1,,,71,84
41646,control_change,6,0,4,,,,,,,,10,7,101,,
41648,aftertouch,8,0,2,,,,,,,,1,,25,,
41648,aftertouch,8,0,1,,,,,,,,1,,25,,
41648,aftertouch,8,0,3,,,,,,,,1,,25,,
41648,aftertouch,2,0,4,,,,,,,,10,,25,,
41657,aftertouch,9,0,1,,,,,,,,1,,0,,
41657,control_change,9,0,4,,,,,,,,10,7,97,,
41659,aftertouch,2,0,4,,,,,,,,10,,12,,
41659,aftertouch,2,0,1,,,,,,,,1,,12,,
41659,aftertouch,11,0,2,,,,,,,,1,,12,,
41659,aftertouch,11,0,3,,,,,,,,1,,12,,
41665,note_on,6,0,1,,,,,,,,1,,,79,0
41666,note_on,7,0,2,,,,,,,,1,,,71,0
41667,note_on,8,0,3,,,,,,,,1,,,64,0
41669,aftertouch,4,0,1,,,,,,,,1,,0,,
41671,aftertouch,2,0,1,,,,,,,,1,,6,,
41671,aftertouch,5,0,2,,,,,,,,1,,6,,
41671,aftertouch,4,0,3,,,,,,,,1,,6,,
41671,aftertouch,12,0,4,,,,,,,,10,,6,,
41678,note_on,7,0,4,,,,,,,,10,,,38,0
41680,aftertouch,9,0,1,,,,,,,,1,,0,,
41682,aftertouch,11,0,3,,,,,,,,1,,3,,
41682,aftertouch,4,0,4,,,,,,,,10,,3,,
41682,aftertouch,11,0,2,,,,,,,,1,,3,,
41683,aftertouch,3,0,1,,,,,,,,1,,3,,
41686,note_on,46,0,5,,,,,,,,0,,,79,0
41692,aftertouch,9,0,1,,,,,,,,1,,0,,
41694,aftertouch,2,0,1,,,,,,,,1,,1,,
41694,aftertouch,12,0,4,,,,,,,,10,,1,,
41694,aftertouch,12,0,2,,,,,,,,1,,1,,
41694,aftertouch,12,0,3,,,,,,,,1,,1,,
41695,note_on,55,0,6,,,,,,,,0,,,50,0
41700,note_on,6,0,4,,,,,,,,10,,,40,126
41700,note_on,6,0,2,,,,,,,,1,,,71,124
41700,note_on,6,0,1,,,,,,,,1,,,79,127
41700,note_on,5,0,6,,,,,,,,0,,,52,96
41700,note_on,6,0,3,,,,,,,,1,,,64,120
41700,note_on,14,0,5,,,,,,,,0,,,67,96
41704,aftertouch,4,0,1,,,,,,,,1,,0,,
41721,control_change,0,0,4,,,,,,,,10,7,98,,
41721,control_change,21,0,4,,,,,,,,10,7,100,,
41723,note_on,19,0,1,,,,,,,,1,,,79,0
41724,note_on,24,0,3,,,,,,,,1,,,64,0
41730,note_on,30,0,2,,,,,,,,1,,,71,0
41730,control_change,9,0,4,,,,,,,,10,7,99,,
41738,control_change,8,0,4,,,,,,,,10,7,97,,
41739,note_on,39,0,5,,,,,,,,0,,,67,0
41747,note_on,9,0,4,,,,,,,,10,,,40,0
41747,control_change,0,0,4,,,,,,,,10,7,96,,
41747,control_change,0,0,4,,,,,,,,10,7,100,,
41753,note_on,53,0,6,,,,,,,,0,,,52,0
41755,control_change,8,0,4,,,,,,,,10,7,94,,
41760,note_on,37,0,1,,,,,,,,1,,,79,127
41760,note_on,21,0,5,,,,,,,,0,,,79,117
41760,note_on,30,0,2,,,,,,,,1,,,73,127
41760,note_on,36,0,3,,,,,,,,1,,,64,123
41760,note_on,7,0,6,,,,,,,,0,,,45,108
41760,note_on,5,0,4,,,,,,,,10,,,33,126
41764,control_change,4,0,4,,,,,,,,10,7,93,,
41768,aftertouch,0,0,5,,,,,,,,0,,25,,
41768,aftertouch,8,0,6,,,,,,,,0,,25,,
41768,aftertouch,8,0,5,,,,,,,,0,,25,,
41774,control_change,10,0,4,,,,,,,,10,7,91,,
41778,aftertouch,10,0,6,,,,,,,,0,,12,,
41779,aftertouch,0,0,5,,,,,,,,0,,12,,
41779,aftertouch,11,0,5,,,,,,,,0,,12,,
41783,control_change,9,0,4,,,,,,,,10,7,90,,
41791,aftertouch,13,0,6,,,,,,,,0,,6,,
41791,aftertouch,0,0,5,,,,,,,,0,,6,,
41791,aftertouch,12,0,5,,,,,,,,0,,6,,
41794,control_change,11,0,4,,,,,,,,10,7,88,,
41795,note_on,4,0,6,,,,,,,,0,,,45,0
41802,aftertouch,11,0,5,,,,,,,,0,,3,,
41802,aftertouch,0,0,5,,,,,,,,0,,3,,
41802,aftertouch,7,0,6,,,,,,,,0,,3,,
41811,control_change,17,0,4,,,,,,,,10,7,87,,
41812,note_on,10,0,5,,,,,,,,0,,,79,0
41814,aftertouch,2,0,5,,,,,,,,0,,1,,
41814,aftertouch,0,0,5,,,,,,,,0,,1,,
41814,aftertouch,12,0,6,,,,,,,,0,,1,,
41820,note_on,6,0,5,,,,,,,,0,,,76,88
41820,note_on,6,0,6,,,,,,,,0,,,49,72
41829,control_change,18,0,4,,,,,,,,10,7,85,,
41840,control_change,11,0,4,,,,,,,,10,7,84,,
41857,control_change,17,0,4,,,,,,,,10,7,82,,
41864,note_on,44,0,6,,,,,,,,0,,,49,0
41866,note_on,46,0,5,,,,,,,,0,,,76,0
41873,control_change,16,0,4,,,,,,,,10,7,81,,
41880,note_on,14,0,5,,,,,,,,0,,,73,82
41880,note_on,16,0,6,,,,,,,,0,,,52,79
41922,note_on,42,0,6,,,,,,,,0,,,52,0
41928,note_on,48,0,5,,,,,,,,0,,,73,0
41940,note_on,18,0,6,,,,,,,,0,,,57,93
41940,note_on,12,0,5,,,,,,,,0,,,69,82
41957,note_on,17,0,5,,,,,,,,0,,,69,0
41964,note_on,24,0,6,,,,,,,,0,,,57,0
41976,note_on,103,0,4,,,,,,,,10,,,33,0
41976,note_on,216,0,1,,,,,,,,1,,,79,0
41976,note_on,216,0,3,,,,,,,,1,,,64,0
41976,note_on,216,0,2,,,,,,,,1,,,73,0
42000,note_on,43,0,5,,,,,,,,0,,,69,117
42000,note_on,36,0,6,,,,,,,,0,,,57,102
42019,control_change,43,0,4,,,,,,,,10,7,79,,
42028,control_change,9,0,4,,,,,,,,10,7,78,,
42039,control_change,11,0,4,,,,,,,,10,7,76,,
42050,note_on,50,0,5,,,,,,,,0,,,69,0
42060,note_on,60,0,6,,,,,,,,0,,,52,84
42060,note_on,10,0,5,,,,,,,,0,,,73,96
42063,note_on,3,0,6,,,,,,,,0,,,57,0
42080,control_change,41,0,4,,,,,,,,10,7,75,,
42100,note_on,40,0,5,,,,,,,,0,,,73,0
42113,note_on,50,0,6,,,,,,,,0,,,52,0
42120,note_on,20,0,5,,,,,,,,0,,,76,90
42120,note_on,7,0,6,,,,,,,,0,,,49,77
42122,control_change,42,0,4,,,,,,,,10,7,73,,
42159,control_change,183,0,1,,,,,,,,1,7,108,,
42170,note_on,50,0,5,,,,,,,,0,,,76,0
42179,note_on,59,0,6,,,,,,,,0,,,49,0
42180,note_on,10,0,5,,,,,,,,0,,,79,98
42180,note_on,1,0,6,,,,,,,,0,,,45,89
42197,control_change,38,0,1,,,,,,,,1,7,107,,
42209,note_on,29,0,6,,,,,,,,0,,,45,0
42212,control_change,90,0,4,,,,,,,,10,7,72,,
42222,note_on,42,0,5,,,,,,,,0,,,79,0
42240,note_on,18,0,5,,,,,,,,0,,,78,120
42240,note_on,28,0,4,,,,,,,,10,,,26,111
42240,note_on,43,0,1,,,,,,,,1,,,78,125
42240,note_on,264,0,2,,,,,,,,1,,,74,127
42240,note_on,31,0,6,,,,,,,,0,,,38,111
42240,note_on,264,0,3,,,,,,,,1,,,69,102
42270,note_on,30,0,3,,,,,,,,1,,,69,0
42270,note_on,30,0,2,,,,,,,,1,,,74,0
42276,note_on,36,0,1,,,,,,,,1,,,78,0
42279,note_on,39,0,5,,,,,,,,0,,,78,0
42293,note_on,53,0,6,,,,,,,,0,,,38,0
42294,note_on,54,0,4,,,,,,,,10,,,26,0
42300,note_on,7,0,6,,,,,,,,0,,,40,102
42300,note_on,30,0,2,,,,,,,,1,,,74,84
42300,note_on,6,0,4,,,,,,,,10,,,28,124
42300,note_on,24,0,1,,,,,,,,1,,,78,117
42300,note_on,21,0,5,,,,,,,,0,,,66,96
42300,note_on,30,0,3,,,,,,,,1,,,69,127
42326,control_change,26,0,4,,,,,,,,10,7,73,,
42329,note_on,29,0,3,,,,,,,,1,,,69,0
42331,note_on,31,0,2,,,,,,,,1,,,74,0
42332,note_on,32,0,1,,,,,,,,1,,,78,0
42335,note_on,35,0,5,,,,,,,,0,,,66,0
42336,control_change,10,0,4,,,,,,,,10,7,74,,
42337,note_on,37,0,6,,,,,,,,0,,,40,0
42344,control_change,8,0,4,,,,,,,,10,7,76,,
42348,note_on,4,0,4,,,,,,,,10,,,28,0
42353,control_change,5,0,4,,,,,,,,10,7,77,,
42360,note_on,29,0,2,,,,,,,,1,,,74,108
42360,note_on,23,0,6,,,,,,,,0,,,42,91
42360,note_on,28,0,1,,,,,,,,1,,,78,102
42360,note_on,31,0,3,,,,,,,,1,,,69,127
42360,note_on,7,0,4,,,,,,,,10,,,30,126
42360,note_on,25,0,5,,,,,,,,0,,,78,127
42378,control_change,18,0,4,,,,,,,,10,7,79,,
42386,control_change,8,0,4,,,,,,,,10,7,80,,
42389,note_on,29,0,2,,,,,,,,1,,,74,0
42390,note_on,30,0,1,,,,,,,,1,,,78,0
42390,note_on,30,0,3,,,,,,,,1,,,69,0
42393,note_on,33,0,6,,,,,,,,0,,,42,0
42396,note_on,36,0,5,,,,,,,,0,,,78,0
42399,control_change,13,0,4,,,,,,,,10,7,82,,
42405,note_on,6,0,4,,,,,,,,10,,,30,0
42410,control_change,5,0,4,,,,,,,,10,7,83,,
42420,note_on,30,0,1,,,,,,,,1,,,78,126
42420,note_on,31,0,2,,,,,,,,1,,,74,123
42420,note_on,27,0,6,,,,,,,,0,,,43,120
42420,note_on,10,0,4,,,,,,,,10,,,31,102
42420,note_on,30,0,3,,,,,,,,1,,,69,126
42420,note_on,24,0,5,,,,,,,,0,,,66,88
42438,control_change,18,0,4,,,,,,,,10,7,85,,
42448,note_on,28,0,2,,,,,,,,1,,,74,0
42449,note_on,29,0,3,,,,,,,,1,,,69,0
42449,note_on,29,0,1,,,,,,,,1,,,78,0
42457,control_change,19,0,4,,,,,,,,10,7,86,,
42458,note_on,38,0,6,,,,,,,,0,,,43,0
42458,note_on,38,0,5,,,,,,,,0,,,66,0
42461,note_on,4,0,4,,,,,,,,10,,,31,0
42480,note_on,22,0,5,,,,,,,,0,,,78,127
42480,note_on,31,0,3,,,,,,,,1,,,69,127
42480,note_on,22,0,6,,,,,,,,0,,,45,102
42480,note_on,19,0,4,,,,,,,,10,,,33,125
42480,note_on,32,0,2,,,,,,,,1,,,74,127
42480,note_on,31,0,1,,,,,,,,1,,,78,89
42494,control_change,14,0,4,,,,,,,,10,7,88,,
42507,note_on,27,0,2,,,,,,,,1,,,74,0
42507,note_on,27,0,3,,,,,,,,1,,,69,0
42508,note_on,28,0,1,,,,,,,,1,,,78,0
42513,note_on,33,0,6,,,,,,,,0,,,45,0
42519,note_on,39,0,5,,,,,,,,0,,,78,0
42521,control_change,27,0,4,,,,,,,,10,7,89,,
42528,note_on,7,0,4,,,,,,,,10,,,33,0
42540,note_on,12,0,4,,,,,,,,10,,,35,117
42540,note_on,33,0,3,,,,,,,,1,,,69,125
42540,note_on,27,0,6,,,,,,,,0,,,47,96
42540,note_on,33,0,2,,,,,,,,1,,,74,126
42540,note_on,32,0,1,,,,,,,,1,,,78,105
42540,note_on,21,0,5,,,,,,,,0,,,66,88
42543,control_change,3,0,1,,,,,,,,1,7,109,,
42565,note_on,25,0,2,,,,,,,,1,,,74,0
42566,note_on,26,0,3,,,,,,,,1,,,69,0
42567,note_on,24,0,1,,,,,,,,1,,,78,0
42569,note_on,29,0,6,,,,,,,,0,,,47,0
42575,note_on,35,0,5,,,,,,,,0,,,66,0
42575,note_on,35,0,4,,,,,,,,10,,,35,0
42581,control_change,6,0,4,,,,,,,,10,7,91,,
42600,note_on,35,0,2,,,,,,,,1,,,74,127
42600,note_on,19,0,4,,,,,,,,10,,,37,120
42600,note_on,33,0,1,,,,,,,,1,,,78,108
42600,note_on,25,0,5,,,,,,,,0,,,78,117
42600,note_on,34,0,3,,,,,,,,1,,,69,120
42600,note_on,31,0,6,,,,,,,,0,,,49,102
42611,aftertouch,11,0,3,,,,,,,,1,,1,,
42618,control_change,18,0,4,,,,,,,,10,7,92,,
42623,note_on,23,0,2,,,,,,,,1,,,74,0
42626,note_on,26,0,1,,,,,,,,1,,,78,0
42627,note_on,16,0,3,,,,,,,,1,,,69,0
42640,note_on,22,0,4,,,,,,,,10,,,37,0
42640,note_on,40,0,5,,,,,,,,0,,,78,0
42646,note_on,46,0,6,,,,,,,,0,,,49,0
42660,note_on,33,0,3,,,,,,,,1,,,69,123
42660,note_on,14,0,6,,,,,,,,0,,,50,81
42660,note_on,37,0,2,,,,,,,,1,,,74,127
42660,note_on,34,0,1,,,,,,,,1,,,78,127
42660,note_on,20,0,5,,,,,,,,0,,,78,127
42660,note_on,20,0,4,,,,,,,,10,,,38,102
42681,note_on,21,0,2,,,,,,,,1,,,74,0
42689,note_on,29,0,1,,,,,,,,1,,,78,0
42689,note_on,29,0,3,,,,,,,,1,,,69,0
42691,note_on,31,0,6,,,,,,,,0,,,50,0
42696,note_on,36,0,5,,,,,,,,0,,,78,0
42708,control_change,48,0,4,,,,,,,,10,7,91,,
42711,note_on,3,0,4,,,,,,,,10,,,38,0
42717,control_change,6,0,4,,,,,,,,10,7,88,,
42719,aftertouch,38,0,2,,,,,,,,1,,3,,
42720,note_on,31,0,3,,,,,,,,1,,,71,117
42720,note_on,1,0,2,,,,,,,,1,,,74,127
42720,note_on,29,0,6,,,,,,,,0,,,47,89
42720,note_on,3,0,4,,,,,,,,10,,,35,127
42720,note_on,31,0,1,,,,,,,,1,,,79,125
42720,note_on,24,0,5,,,,,,,,0,,,79,96
42726,control_change,6,0,4,,,,,,,,10,7,87,,
42729,aftertouch,9,0,2,,,,,,,,1,,0,,
42731,aftertouch,11,0,5,,,,,,,,0,,1,,
42731,aftertouch,2,0,2,,,,,,,,1,,1,,
42731,aftertouch,0,0,5,,,,,,,,0,,1,,
42731,aftertouch,5,0,4,,,,,,,,10,,1,,
42731,aftertouch,11,0,6,,,,,,,,0,,1,,
42741,aftertouch,10,0,2,,,,,,,,1,,0,,
42753,note_on,33,0,1,,,,,,,,1,,,79,0
42755,control_change,24,0,4,,,,,,,,10,7,85,,
42768,note_on,37,0,5,,,,,,,,0,,,79,0
42778,note_on,37,0,2,,,,,,,,1,,,74,0
42779,note_on,48,0,6,,,,,,,,0,,,47,0
42780,note_on,27,0,1,,,,,,,,1,,,81,102
42780,note_on,12,0,5,,,,,,,,0,,,81,127
42792,note_on,37,0,4,,,,,,,,10,,,35,0
42819,note_on,39,0,5,,,,,,,,0,,,81,0
42820,note_on,40,0,1,,,,,,,,1,,,81,0
42826,control_change,34,0,4,,,,,,,,10,7,86,,
42835,control_change,9,0,4,,,,,,,,10,7,89,,
42840,note_on,20,0,1,,,,,,,,1,,,83,117
42840,note_on,21,0,5,,,,,,,,0,,,83,120
42840,note_on,61,0,6,,,,,,,,0,,,59,89
42840,note_on,5,0,4,,,,,,,,10,,,47,89
42843,control_change,3,0,4,,,,,,,,10,7,91,,
42852,control_change,9,0,4,,,,,,,,10,7,92,,
42869,control_change,17,0,4,,,,,,,,10,7,94,,
42873,note_on,33,0,1,,,,,,,,1,,,83,0
42878,note_on,38,0,5,,,,,,,,0,,,83,0
42900,note_on,27,0,1,,,,,,,,1,,,79,108
42900,note_on,22,0,5,,,,,,,,0,,,79,127
42930,note_on,30,0,1,,,,,,,,1,,,79,0
42936,note_on,216,0,3,,,,,,,,1,,,71,0
42938,note_on,38,0,5,,,,,,,,0,,,79,0
42960,note_on,22,0,5,,,,,,,,0,,,78,124
42960,note_on,30,0,1,,,,,,,,1,,,78,127
42960,note_on,24,0,3,,,,,,,,1,,,66,84
42960,note_on,182,0,2,,,,,,,,1,,,73,93
42997,note_on,37,0,1,,,,,,,,1,,,78,0
43002,note_on,42,0,5,,,,,,,,0,,,78,0
43011,note_on,171,0,6,,,,,,,,0,,,59,0
43018,note_on,58,0,2,,,,,,,,1,,,73,0
43020,note_on,18,0,5,,,,,,,,0,,,79,110
43020,note_on,23,0,1,,,,,,,,1,,,79,102
43057,note_on,37,0,1,,,,,,,,1,,,79,0
43059,note_on,39,0,5,,,,,,,,0,,,79,0
43078,note_on,209,0,4,,,,,,,,10,,,47,0
43080,note_on,23,0,1,,,,,,,,1,,,81,102
43080,note_on,69,0,6,,,,,,,,0,,,57,108
43080,note_on,2,0,4,,,,,,,,10,,,45,86
43080,note_on,21,0,5,,,,,,,,0,,,81,93
43090,control_change,10,0,4,,,,,,,,10,7,93,,
43101,control_change,11,0,4,,,,,,,,10,7,91,,
43117,note_on,37,0,1,,,,,,,,1,,,81,0
43124,note_on,44,0,5,,,,,,,,0,,,81,0
43140,note_on,60,0,6,,,,,,,,0,,,57,0
43140,note_on,23,0,1,,,,,,,,1,,,78,91
43140,note_on,16,0,5,,,,,,,,0,,,78,98
43165,note_on,64,0,4,,,,,,,,10,,,45,0
43176,note_on,216,0,3,,,,,,,,1,,,66,0
43177,control_change,12,0,4,,,,,,,,10,7,90,,
43178,note_on,38,0,5,,,,,,,,0,,,78,0
43179,note_on,39,0,1,,,,,,,,1,,,78,0
43189,control_change,12,0,4,,,,,,,,10,7,88,,
43200,note_on,21,0,1,,,,,,,,1,,,76,84
43200,note_on,24,0,3,,,,,,,,1,,,67,114
43200,note_on,60,0,6,,,,,,,,0,,,55,123
43200,note_on,11,0,4,,,,,,,,10,,,43,89
43200,note_on,182,0,2,,,,,,,,1,,,71,86
43200,note_on,22,0,5,,,,,,,,0,,,76,102
43217,control_change,17,0,4,,,,,,,,10,7,87,,
43235,note_on,35,0,1,,,,,,,,1,,,76,0
43244,note_on,44,0,5,,,,,,,,0,,,76,0
43260,note_on,16,0,5,,,,,,,,0,,,78,96
43260,note_on,25,0,1,,,,,,,,1,,,78,111
43260,note_on,60,0,6,,,,,,,,0,,,55,0
43262,note_on,45,0,4,,,,,,,,10,,,43,0
43297,note_on,37,0,5,,,,,,,,0,,,78,0
43303,note_on,43,0,1,,,,,,,,1,,,78,0
43320,note_on,23,0,5,,,,,,,,0,,,79,110
43320,note_on,60,0,6,,,,,,,,0,,,43,111
43320,note_on,17,0,1,,,,,,,,1,,,79,89
43320,note_on,58,0,4,,,,,,,,10,,,31,89
43355,note_on,35,0,1,,,,,,,,1,,,79,0
43365,note_on,45,0,5,,,,,,,,0,,,79,0
43380,note_on,25,0,1,,,,,,,,1,,,76,74
43380,note_on,15,0,5,,,,,,,,0,,,76,96
43413,note_on,33,0,1,,,,,,,,1,,,76,0
43415,note_on,35,0,5,,,,,,,,0,,,76,0
43416,note_on,216,0,2,,,,,,,,1,,,71,0
43416,note_on,216,0,3,,,,,,,,1,,,67,0
43430,control_change,110,0,4,,,,,,,,10,7,85,,
43440,note_on,24,0,2,,,,,,,,1,,,69,89
43440,note_on,27,0,1,,,,,,,,1,,,74,84
43440,note_on,25,0,5,,,,,,,,0,,,74,88
43440,note_on,24,0,3,,,,,,,,1,,,62,102
43479,note_on,39,0,1,,,,,,,,1,,,74,0
43480,note_on,40,0,5,,,,,,,,0,,,74,0
43500,note_on,20,0,5,,,,,,,,0,,,76,85
43500,note_on,21,0,1,,,,,,,,1,,,76,74
43521,note_on,201,0,6,,,,,,,,0,,,43,0
43536,note_on,36,0,1,,,,,,,,1,,,76,0
43537,note_on,37,0,5,,,,,,,,0,,,76,0
43549,note_on,119,0,4,,,,,,,,10,,,31,0
43560,note_on,23,0,5,,,,,,,,0,,,78,106
43560,note_on,39,0,6,,,,,,,,0,,,42,96
43560,note_on,24,0,1,,,,,,,,1,,,78,102
43560,note_on,11,0,4,,,,,,,,10,,,30,99
43591,note_on,31,0,1,,,,,,,,1,,,78,0
43597,note_on,37,0,5,,,,,,,,0,,,78,0
43617,note_on,57,0,6,,,,,,,,0,,,42,0
43620,note_on,29,0,1,,,,,,,,1,,,74,84
43620,note_on,23,0,5,,,,,,,,0,,,74,102
43645,note_on,85,0,4,,,,,,,,10,,,30,0
43654,note_on,34,0,1,,,,,,,,1,,,74,0
43656,note_on,216,0,2,,,,,,,,1,,,69,0
43656,note_on,216,0,3,,,,,,,,1,,,62,0
43658,note_on,38,0,5,,,,,,,,0,,,74,0
43680,note_on,35,0,4,,,,,,,,10,,,28,89
43680,note_on,63,0,6,,,,,,,,0,,,40,93
43680,note_on,24,0,2,,,,,,,,1,,,67,79
43680,note_on,24,0,3,,,,,,,,1,,,64,89
43680,note_on,22,0,5,,,,,,,,0,,,73,96
43680,note_on,26,0,1,,,,,,,,1,,,73,126
43690,control_change,10,0,4,,,,,,,,10,7,84,,
43717,note_on,37,0,1,,,,,,,,1,,,73,0
43726,note_on,46,0,6,,,,,,,,0,,,40,0
43729,note_on,49,0,5,,,,,,,,0,,,73,0
43740,note_on,11,0,5,,,,,,,,0,,,74,106
43740,note_on,23,0,1,,,,,,,,1,,,74,102
43758,note_on,68,0,4,,,,,,,,10,,,28,0
43780,note_on,40,0,1,,,,,,,,1,,,74,0
43780,note_on,40,0,5,,,,,,,,0,,,74,0
43800,note_on,20,0,5,,,,,,,,0,,,76,88
43800,note_on,42,0,4,,,,,,,,10,,,40,89
43800,note_on,20,0,1,,,,,,,,1,,,76,89
43800,note_on,74,0,6,,,,,,,,0,,,52,117
43806,control_change,6,0,4,,,,,,,,10,7,85,,
43815,control_change,9,0,4,,,,,,,,10,7,86,,
43824,control_change,9,0,4,,,,,,,,10,7,88,,
43836,note_on,36,0,1,,,,,,,,1,,,76,0
43844,note_on,44,0,5,,,,,,,,0,,,76,0
43860,note_on,16,0,5,,,,,,,,0,,,73,93
43860,note_on,24,0,1,,,,,,,,1,,,73,81
43890,note_on,30,0,1,,,,,,,,1,,,73,0
43891,note_on,31,0,5,,,,,,,,0,,,73,0
43896,note_on,216,0,3,,,,,,,,1,,,64,0
43896,note_on,216,0,2,,,,,,,,1,,,67,0
43920,note_on,24,0,3,,,,,,,,1,,,61,69
43920,note_on,30,0,1,,,,,,,,1,,,67,105
43920,note_on,24,0,2,,,,,,,,1,,,64,89
43920,note_on,29,0,5,,,,,,,,0,,,67,127
43952,note_on,32,0,5,,,,,,,,0,,,67,0
43963,note_on,43,0,1,,,,,,,,1,,,67,0
43978,note_on,178,0,6,,,,,,,,0,,,52,0
43980,note_on,28,0,5,,,,,,,,0,,,69,93
43980,note_on,17,0,1,,,,,,,,1,,,69,79
43986,note_on,66,0,2,,,,,,,,1,,,64,0
43993,note_on,73,0,3,,,,,,,,1,,,61,0
44003,control_change,179,0,4,,,,,,,,10,7,87,,
44018,note_on,38,0,5,,,,,,,,0,,,69,0
44020,note_on,40,0,1,,,,,,,,1,,,69,0
44027,control_change,24,0,4,,,,,,,,10,7,85,,
44033,note_on,6,0,4,,,,,,,,10,,,40,0
44040,note_on,20,0,1,,,,,,,,1,,,71,117
44040,note_on,22,0,5,,,,,,,,0,,,71,117
44040,note_on,47,0,3,,,,,,,,1,,,62,72
44040,note_on,54,0,2,,,,,,,,1,,,66,66
44040,note_on,7,0,4,,,,,,,,10,,,38,79
44040,note_on,62,0,6,,,,,,,,0,,,50,99
44078,note_on,38,0,1,,,,,,,,1,,,71,0
44084,note_on,44,0,5,,,,,,,,0,,,71,0
44093,note_on,53,0,6,,,,,,,,0,,,50,0
44100,note_on,16,0,5,,,,,,,,0,,,67,102
44100,note_on,22,0,1,,,,,,,,1,,,67,84
44119,note_on,79,0,2,,,,,,,,1,,,66,0
44119,note_on,79,0,3,,,,,,,,1,,,62,0
44124,note_on,84,0,4,,,,,,,,10,,,38,0
44129,note_on,29,0,1,,,,,,,,1,,,67,0
44132,control_change,3,0,1,,,,,,,,1,7,108,,
44132,note_on,32,0,5,,,,,,,,0,,,67,0
44160,note_on,28,0,1,,,,,,,,1,,,64,126
44160,note_on,67,0,6,,,,,,,,0,,,49,77
44160,note_on,41,0,3,,,,,,,,1,,,64,74
44160,note_on,41,0,2,,,,,,,,1,,,67,74
44160,note_on,36,0,4,,,,,,,,10,,,37,66
44160,note_on,28,0,5,,,,,,,,0,,,64,98
44160,control_change,0,0,4,,,,,,,,10,7,84,,
44199,note_on,39,0,5,,,,,,,,0,,,64,0
44202,note_on,42,0,1,,,,,,,,1,,,64,0
44202,note_on,42,0,6,,,,,,,,0,,,49,0
44220,note_on,18,0,1,,,,,,,,1,,,66,91
44220,note_on,21,0,5,,,,,,,,0,,,66,96
44230,note_on,70,0,3,,,,,,,,1,,,64,0
44237,note_on,77,0,2,,,,,,,,1,,,67,0
44256,note_on,36,0,5,,,,,,,,0,,,66,0
44259,note_on,39,0,1,,,,,,,,1,,,66,0
44280,note_on,50,0,3,,,,,,,,1,,,61,89
44280,note_on,24,0,5,,,,,,,,0,,,67,85
44280,note_on,21,0,1,,,,,,,,1,,,67,81
44280,note_on,78,0,6,,,,,,,,0,,,37,124
44280,note_on,43,0,2,,,,,,,,1,,,64,79
44313,note_on,33,0,3,,,,,,,,1,,,61,0
44315,note_on,35,0,2,,,,,,,,1,,,64,0
44318,note_on,38,0,5,,,,,,,,0,,,67,0
44319,note_on,39,0,1,,,,,,,,1,,,67,0
44340,note_on,22,0,5,,,,,,,,0,,,64,93
44340,note_on,27,0,3,,,,,,,,1,,,62,66
44340,note_on,25,0,2,,,,,,,,1,,,66,81
44340,note_on,21,0,1,,,,,,,,1,,,64,89
44368,note_on,28,0,1,,,,,,,,1,,,64,0
44371,note_on,31,0,5,,,,,,,,0,,,64,0
44377,note_on,37,0,2,,,,,,,,1,,,66,0
44380,note_on,40,0,3,,,,,,,,1,,,62,0
44400,note_on,20,0,3,,,,,,,,1,,,64,96
44400,note_on,29,0,5,,,,,,,,0,,,61,110
44400,note_on,32,0,1,,,,,,,,1,,,61,105
44400,note_on,23,0,2,,,,,,,,1,,,67,72
44430,note_on,150,0,6,,,,,,,,0,,,37,0
44436,note_on,36,0,1,,,,,,,,1,,,61,0
44439,note_on,39,0,5,,,,,,,,0,,,61,0
44460,note_on,21,0,5,,,,,,,,0,,,62,85
44460,note_on,24,0,1,,,,,,,,1,,,62,111
44470,note_on,70,0,3,,,,,,,,1,,,64,0
44482,note_on,82,0,2,,,,,,,,1,,,67,0
44500,note_on,40,0,1,,,,,,,,1,,,62,0
44502,note_on,42,0,5,,,,,,,,0,,,62,0
44520,note_on,20,0,1,,,,,,,,1,,,64,93
44520,note_on,38,0,2,,,,,,,,1,,,64,77
44520,note_on,90,0,6,,,,,,,,0,,,49,127
44520,note_on,18,0,5,,,,,,,,0,,,64,82
44520,note_on,50,0,3,,,,,,,,1,,,61,74
44551,note_on,31,0,3,,,,,,,,1,,,61,0
44555,note_on,35,0,2,,,,,,,,1,,,64,0
44556,note_on,36,0,1,,,,,,,,1,,,64,0
44566,note_on,46,0,6,,,,,,,,0,,,49,0
44568,note_on,48,0,5,,,,,,,,0,,,64,0
44580,note_on,24,0,1,,,,,,,,1,,,61,93
44580,note_on,25,0,2,,,,,,,,1,,,66,69
44580,note_on,14,0,6,,,,,,,,0,,,47,77
44580,note_on,12,0,5,,,,,,,,0,,,61,73
44580,note_on,29,0,3,,,,,,,,1,,,62,79
44592,note_on,432,0,4,,,,,,,,10,,,37,0
44602,note_on,22,0,1,,,,,,,,1,,,61,0
44617,note_on,37,0,6,,,,,,,,0,,,47,0
44619,note_on,39,0,5,,,,,,,,0,,,61,0
44620,note_on,40,0,3,,,,,,,,1,,,62,0
44626,note_on,46,0,2,,,,,,,,1,,,66,0
44640,note_on,20,0,3,,,,,,,,1,,,64,89
44640,note_on,21,0,5,,,,,,,,0,,,57,75
44640,note_on,14,0,2,,,,,,,,1,,,67,89
44640,note_on,23,0,6,,,,,,,,0,,,49,120
44640,note_on,38,0,1,,,,,,,,1,,,57,117
44670,note_on,30,0,6,,,,,,,,0,,,49,0
44689,note_on,49,0,5,,,,,,,,0,,,57,0
44700,note_on,11,0,5,,,,,,,,0,,,61,85
44700,note_on,30,0,6,,,,,,,,0,,,52,74
44727,note_on,87,0,1,,,,,,,,1,,,57,0
44739,note_on,39,0,6,,,,,,,,0,,,52,0
44750,note_on,110,0,3,,,,,,,,1,,,64,0
44751,note_on,51,0,5,,,,,,,,0,,,61,0
44760,note_on,120,0,2,,,,,,,,1,,,67,0
44760,note_on,21,0,6,,,,,,,,0,,,57,81
44760,note_on,9,0,5,,,,,,,,0,,,64,75
44815,note_on,55,0,5,,,,,,,,0,,,64,0
44819,note_on,59,0,6,,,,,,,,0,,,57,0
44820,note_on,1,0,6,,,,,,,,0,,,52,77
44820,note_on,5,0,5,,,,,,,,0,,,67,88
44845,note_on,25,0,5,,,,,,,,0,,,67,0
44854,control_change,262,0,4,,,,,,,,10,7,82,,
44860,note_on,40,0,6,,,,,,,,0,,,52,0
44880,note_on,20,0,6,,,,,,,,0,,,49,81
44880,note_on,35,0,5,,,,,,,,0,,,69,88
44924,note_on,44,0,5,,,,,,,,0,,,69,0
44932,note_on,52,0,6,,,,,,,,0,,,49,0
44940,note_on,8,0,6,,,,,,,,0,,,52,84
44940,note_on,16,0,5,,,,,,,,0,,,73,88
44984,note_on,44,0,5,,,,,,,,0,,,73,0
44984,note_on,130,0,4,,,,,,,,10,,,35,69
44997,note_on,57,0,6,,,,,,,,0,,,52,0
45000,note_on,16,0,5,,,,,,,,0,,,76,90
45000,note_on,273,0,1,,,,,,,,1,,,76,105
45000,note_on,3,0,6,,,,,,,,0,,,49,91
45000,note_on,250,0,3,,,,,,,,1,,,69,89
45000,note_on,240,0,2,,,,,,,,1,,,76,102
45054,note_on,54,0,5,,,,,,,,0,,,76,0
45055,note_on,55,0,6,,,,,,,,0,,,49,0
45060,note_on,60,0,1,,,,,,,,1,,,78,66
45060,note_on,5,0,6,,,,,,,,0,,,45,64
45060,note_on,6,0,5,,,,,,,,0,,,78,75
45069,note_on,9,0,1,,,,,,,,1,,,76,0
45081,note_on,81,0,2,,,,,,,,1,,,76,0
45082,note_on,13,0,1,,,,,,,,1,,,78,0
45085,note_on,85,0,3,,,,,,,,1,,,69,0
45090,note_on,30,0,5,,,,,,,,0,,,78,0
45090,note_on,8,0,1,,,,,,,,1,,,79,84
45090,note_on,0,0,5,,,,,,,,0,,,79,82
45090,note_on,106,0,4,,,,,,,,10,,,35,0
45104,note_on,14,0,4,,,,,,,,10,,,37,84
45107,note_on,17,0,1,,,,,,,,1,,,79,0
45117,note_on,57,0,6,,,,,,,,0,,,45,0
45120,note_on,35,0,3,,,,,,,,1,,,69,96
45120,note_on,13,0,1,,,,,,,,1,,,78,111
45120,note_on,0,0,5,,,,,,,,0,,,78,120
45120,note_on,39,0,2,,,,,,,,1,,,74,111
45120,note_on,30,0,5,,,,,,,,0,,,79,0
45120,note_on,16,0,4,,,,,,,,10,,,38,66
45120,note_on,3,0,6,,,,,,,,0,,,50,86
45199,note_on,79,0,2,,,,,,,,1,,,74,0
45201,note_on,81,0,6,,,,,,,,0,,,50,0
45207,note_on,87,0,1,,,,,,,,1,,,78,0
45209,note_on,89,0,3,,,,,,,,1,,,69,0
45210,note_on,90,0,4,,,,,,,,10,,,37,0
45219,note_on,99,0,5,,,,,,,,0,,,78,0
45221,note_on,11,0,4,,,,,,,,10,,,38,0
45240,note_on,21,0,5,,,,,,,,0,,,76,127
45240,note_on,31,0,3,,,,,,,,1,,,67,79
45240,note_on,39,0,6,,,,,,,,0,,,42,74
45240,note_on,19,0,4,,,,,,,,10,,,30,127
45240,note_on,41,0,2,,,,,,,,1,,,69,79
45240,note_on,33,0,1,,,,,,,,1,,,76,111
45271,note_on,31,0,6,,,,,,,,0,,,42,0
45278,note_on,38,0,1,,,,,,,,1,,,76,0
45284,note_on,44,0,4,,,,,,,,10,,,30,0
45287,note_on,47,0,3,,,,,,,,1,,,67,0
45288,note_on,48,0,5,,,,,,,,0,,,76,0
45300,note_on,16,0,4,,,,,,,,10,,,30,111
45300,aftertouch,0,0,4,,,,,,,,10,,6,,
45300,note_on,13,0,3,,,,,,,,1,,,66,84
45300,note_on,29,0,6,,,,,,,,0,,,54,93
45300,note_on,22,0,1,,,,,,,,1,,,74,79
45300,note_on,12,0,5,,,,,,,,0,,,74,75
45309,aftertouch,9,0,4,,,,,,,,10,,0,,
45312,aftertouch,0,0,5,,,,,,,,0,,3,,
45312,aftertouch,12,0,5,,,,,,,,0,,3,,
45312,aftertouch,3,0,4,,,,,,,,10,,3,,
45312,aftertouch,12,0,6,,,,,,,,0,,3,,
45318,note_on,78,0,2,,,,,,,,1,,,69,0
45321,aftertouch,9,0,4,,,,,,,,10,,0,,
45322,aftertouch,10,0,5,,,,,,,,0,,1,,
45323,aftertouch,11,0,6,,,,,,,,0,,1,,
45323,aftertouch,1,0,5,,,,,,,,0,,1,,
45324,aftertouch,3,0,4,,,,,,,,10,,1,,
45326,control_change,2,0,4,,,,,,,,10,7,85,,
45332,note_on,9,0,6,,,,,,,,0,,,54,0
45333,aftertouch,7,0,4,,,,,,,,10,,0,,
45333,note_on,33,0,1,,,,,,,,1,,,74,0
45340,note_on,40,0,3,,,,,,,,1,,,66,0
45340,note_on,17,0,5,,,,,,,,0,,,74,0
45344,control_change,11,0,4,,,,,,,,10,7,84,,
45346,note_on,2,0,4,,,,,,,,10,,,30,0
45348,control_change,15,0,1,,,,,,,,1,7,107,,
45360,note_on,42,0,2,,,,,,,,1,,,71,69
45360,note_on,14,0,4,,,,,,,,10,,,31,89
45360,note_on,20,0,3,,,,,,,,1,,,64,96
45360,note_on,12,0,1,,,,,,,,1,,,76,93
45360,note_on,20,0,5,,,,,,,,0,,,76,117
45360,note_on,28,0,6,,,,,,,,0,,,43,105
45394,control_change,34,0,4,,,,,,,,10,7,82,,
45396,note_on,36,0,6,,,,,,,,0,,,43,0
45399,note_on,5,0,4,,,,,,,,10,,,31,0
45420,note_on,24,0,6,,,,,,,,0,,,55,108
45420,note_on,21,0,4,,,,,,,,10,,,31,117
45437,note_on,77,0,5,,,,,,,,0,,,76,0
45437,note_on,77,0,1,,,,,,,,1,,,76,0
45440,note_on,80,0,3,,,,,,,,1,,,64,0
45444,note_on,84,0,2,,,,,,,,1,,,71,0
45453,note_on,33,0,6,,,,,,,,0,,,55,0
45462,note_on,42,0,4,,,,,,,,10,,,31,0
45480,note_on,40,0,3,,,,,,,,1,,,67,89
45480,note_on,43,0,1,,,,,,,,1,,,74,102
45480,note_on,27,0,6,,,,,,,,0,,,45,102
45480,note_on,43,0,5,,,,,,,,0,,,74,106
45480,note_on,18,0,4,,,,,,,,10,,,33,111
45480,note_on,36,0,2,,,,,,,,1,,,69,79
45497,control_change,17,0,4,,,,,,,,10,7,85,,
45512,note_on,15,0,4,,,,,,,,10,,,33,0
45518,note_on,38,0,1,,,,,,,,1,,,74,0
45519,note_on,39,0,5,,,,,,,,0,,,74,0
45526,note_on,46,0,6,,,,,,,,0,,,45,0
45540,note_on,28,0,4,,,,,,,,10,,,33,89
45540,note_on,14,0,6,,,,,,,,0,,,57,79
45540,note_on,22,0,1,,,,,,,,1,,,73,84
45540,note_on,21,0,5,,,,,,,,0,,,73,102
45544,control_change,4,0,4,,,,,,,,10,7,83,,
45552,control_change,12,0,1,,,,,,,,1,7,109,,
45559,note_on,79,0,3,,,,,,,,1,,,67,0
45561,note_on,81,0,2,,,,,,,,1,,,69,0
45576,note_on,36,0,6,,,,,,,,0,,,57,0
45577,note_on,37,0,5,,,,,,,,0,,,73,0
45580,note_on,28,0,1,,,,,,,,1,,,73,0
45590,note_on,46,0,4,,,,,,,,10,,,33,0
45600,note_on,41,0,3,,,,,,,,1,,,66,102
45600,note_on,10,0,4,,,,,,,,10,,,26,125
45600,note_on,23,0,5,,,,,,,,0,,,74,113
45600,note_on,24,0,6,,,,,,,,0,,,50,89
45600,note_on,39,0,2,,,,,,,,1,,,69,79
45600,note_on,20,0,1,,,,,,,,1,,,74,127
45652,note_on,52,0,5,,,,,,,,0,,,74,0
45660,note_on,8,0,5,,,,,,,,0,,,78,93
45660,control_change,60,0,1,,,,,,,,1,7,110,,
45684,note_on,84,0,6,,,,,,,,0,,,50,0
45685,note_on,25,0,5,,,,,,,,0,,,78,0
45690,note_on,5,0,5,,,,,,,,0,,,79,102
45720,note_on,30,0,5,,,,,,,,0,,,81,102
45720,note_on,36,0,6,,,,,,,,0,,,54,120
45744,note_on,24,0,5,,,,,,,,0,,,79,0
45768,note_on,24,0,5,,,,,,,,0,,,81,0
45780,note_on,12,0,5,,,,,,,,0,,,74,96
45791,note_on,71,0,6,,,,,,,,0,,,54,0
45816,note_on,216,0,3,,,,,,,,1,,,66,0
45816,note_on,216,0,2,,,,,,,,1,,,69,0
45816,note_on,156,0,1,,,,,,,,1,,,74,0
45816,note_on,216,0,4,,,,,,,,10,,,26,0
45820,note_on,40,0,5,,,,,,,,0,,,74,0
45840,note_on,20,0,5,,,,,,,,0,,,83,113
45840,note_on,49,0,6,,,,,,,,0,,,55,91
45893,note_on,53,0,5,,,,,,,,0,,,83,0
45900,note_on,7,0,5,,,,,,,,0,,,74,75
45911,note_on,71,0,6,,,,,,,,0,,,55,0
45949,note_on,49,0,5,,,,,,,,0,,,74,0
45960,note_on,49,0,6,,,,,,,,0,,,57,125
45960,note_on,11,0,5,,,,,,,,0,,,85,124
46011,note_on,51,0,5,,,,,,,,0,,,85,0
46020,note_on,9,0,5,,,,,,,,0,,,74,75
46032,note_on,72,0,6,,,,,,,,0,,,57,0
46071,note_on,51,0,5,,,,,,,,0,,,74,0
46073,control_change,257,0,4,,,,,,,,10,7,86,,
46080,note_on,9,0,5,,,,,,,,0,,,86,85
46080,note_on,48,0,6,,,,,,,,0,,,59,102
46084,control_change,11,0,4,,,,,,,,10,7,88,,
46091,control_change,275,0,1,,,,,,,,1,7,108,,
46093,control_change,9,0,4,,,,,,,,10,7,89,,
46135,note_on,55,0,5,,,,,,,,0,,,86,0
46139,control_change,48,0,1,,,,,,,,1,7,107,,
46140,note_on,5,0,5,,,,,,,,0,,,85,88
46164,note_on,84,0,6,,,,,,,,0,,,59,0
46166,note_on,26,0,5,,,,,,,,0,,,85,0
46170,note_on,4,0,5,,,,,,,,0,,,83,75
46200,note_on,30,0,5,,,,,,,,0,,,81,73
46200,note_on,61,0,1,,,,,,,,1,,,69,64
46200,note_on,36,0,6,,,,,,,,0,,,54,91
46200,note_on,384,0,2,,,,,,,,1,,,69,61
46200,note_on,384,0,3,,,,,,,,1,,,62,77
46200,note_on,107,0,4,,,,,,,,10,,,30,77
46210,note_on,10,0,5,,,,,,,,0,,,83,0
46232,note_on,32,0,2,,,,,,,,1,,,69,0
46233,note_on,33,0,1,,,,,,,,1,,,69,0
46236,note_on,26,0,5,,,,,,,,0,,,81,0
46236,note_on,36,0,4,,,,,,,,10,,,30,0
46238,note_on,38,0,3,,,,,,,,1,,,62,0
46260,note_on,27,0,1,,,,,,,,1,,,69,69
46260,note_on,24,0,5,,,,,,,,0,,,79,85
46260,note_on,22,0,3,,,,,,,,1,,,62,64
46260,note_on,28,0,2,,,,,,,,1,,,69,61
46260,note_on,24,0,4,,,,,,,,10,,,30,58
46285,note_on,85,0,6,,,,,,,,0,,,54,0
46289,note_on,29,0,5,,,,,,,,0,,,79,0
46292,note_on,32,0,3,,,,,,,,1,,,62,0
46299,note_on,39,0,2,,,,,,,,1,,,69,0
46304,note_on,44,0,1,,,,,,,,1,,,69,0
46305,note_on,45,0,4,,,,,,,,10,,,30,0
46320,note_on,35,0,6,,,,,,,,0,,,55,72
46320,note_on,16,0,1,,,,,,,,1,,,71,72
46320,note_on,28,0,3,,,,,,,,1,,,62,74
46320,note_on,21,0,2,,,,,,,,1,,,71,66
46320,note_on,15,0,4,,,,,,,,10,,,31,79
46320,note_on,31,0,5,,,,,,,,0,,,78,102
46335,note_on,15,0,5,,,,,,,,0,,,78,0
46349,note_on,29,0,1,,,,,,,,1,,,71,0
46350,note_on,15,0,5,,,,,,,,0,,,79,117
46350,note_on,30,0,4,,,,,,,,10,,,31,0
46351,note_on,31,0,2,,,,,,,,1,,,71,0
46353,note_on,33,0,3,,,,,,,,1,,,62,0
46364,control_change,14,0,4,,,,,,,,10,7,91,,
46380,note_on,30,0,5,,,,,,,,0,,,81,110
46380,note_on,31,0,1,,,,,,,,1,,,71,55
46380,note_on,16,0,4,,,,,,,,10,,,31,74
46380,note_on,29,0,2,,,,,,,,1,,,71,61
46380,note_on,27,0,3,,,,,,,,1,,,62,61
46393,control_change,13,0,4,,,,,,,,10,7,92,,
46394,note_on,14,0,5,,,,,,,,0,,,79,0
46410,note_on,30,0,1,,,,,,,,1,,,71,0
46411,note_on,91,0,6,,,,,,,,0,,,55,0
46412,note_on,32,0,2,,,,,,,,1,,,71,0
46418,note_on,38,0,3,,,,,,,,1,,,62,0
46419,note_on,25,0,5,,,,,,,,0,,,81,0
46425,note_on,32,0,4,,,,,,,,10,,,31,0
46440,note_on,22,0,3,,,,,,,,1,,,69,69
46440,note_on,15,0,4,,,,,,,,10,,,33,69
46440,note_on,28,0,2,,,,,,,,1,,,73,58
46440,note_on,29,0,6,,,,,,,,0,,,57,89
46440,note_on,21,0,5,,,,,,,,0,,,76,110
46440,note_on,30,0,1,,,,,,,,1,,,73,64
46442,control_change,2,0,4,,,,,,,,10,7,94,,
46456,note_on,16,0,5,,,,,,,,0,,,76,0
46468,note_on,28,0,2,,,,,,,,1,,,73,0
46470,note_on,14,0,5,,,,,,,,0,,,78,106
46472,note_on,30,0,4,,,,,,,,10,,,33,0
46472,note_on,32,0,1,,,,,,,,1,,,73,0
46476,note_on,36,0,3,,,,,,,,1,,,69,0
46488,note_on,18,0,5,,,,,,,,0,,,78,0
46500,note_on,12,0,5,,,,,,,,0,,,79,102
46500,note_on,32,0,2,,,,,,,,1,,,73,30
46500,note_on,24,0,3,,,,,,,,1,,,69,79
46500,note_on,28,0,4,,,,,,,,10,,,33,55
46500,note_on,28,0,1,,,,,,,,1,,,73,58
46520,control_change,20,0,4,,,,,,,,10,7,95,,
46522,note_on,82,0,6,,,,,,,,0,,,57,0
46529,note_on,29,0,5,,,,,,,,0,,,79,0
46532,note_on,32,0,2,,,,,,,,1,,,73,0
46534,note_on,34,0,3,,,,,,,,1,,,69,0
46540,note_on,40,0,1,,,,,,,,1,,,73,0
46548,note_on,28,0,4,,,,,,,,10,,,33,0
46560,note_on,26,0,3,,,,,,,,1,,,69,64
46560,note_on,20,0,1,,,,,,,,1,,,74,79
46560,note_on,12,0,4,,,,,,,,10,,,26,72
46560,note_on,31,0,5,,,,,,,,0,,,78,110
46560,note_on,38,0,6,,,,,,,,0,,,50,81
46560,note_on,28,0,2,,,,,,,,1,,,74,66
46577,control_change,17,0,1,,,,,,,,1,7,109,,
46579,note_on,19,0,5,,,,,,,,0,,,78,0
46590,note_on,11,0,5,,,,,,,,0,,,76,85
46608,note_on,18,0,5,,,,,,,,0,,,76,0
46620,note_on,12,0,5,,,,,,,,0,,,74,102
46655,note_on,35,0,5,,,,,,,,0,,,74,0
46658,note_on,98,0,6,,,,,,,,0,,,50,0
46680,note_on,25,0,5,,,,,,,,0,,,81,90
46729,note_on,49,0,5,,,,,,,,0,,,81,0
46740,note_on,11,0,5,,,,,,,,0,,,78,102
46776,note_on,216,0,4,,,,,,,,10,,,26,0
46776,note_on,216,0,2,,,,,,,,1,,,74,0
46776,note_on,216,0,3,,,,,,,,1,,,69,0
46776,note_on,199,0,1,,,,,,,,1,,,74,0
46790,note_on,50,0,5,,,,,,,,0,,,78,0
46800,note_on,10,0,5,,,,,,,,0,,,86,110
46822,control_change,46,0,1,,,,,,,,1,7,110,,
46825,note_on,25,0,5,,,,,,,,0,,,86,0
46860,note_on,35,0,5,,,,,,,,0,,,81,79
46900,note_on,40,0,5,,,,,,,,0,,,81,0
46920,note_on,20,0,5,,,,,,,,0,,,78,44
46920,note_on,262,0,6,,,,,,,,0,,,57,74
46953,note_on,33,0,5,,,,,,,,0,,,78,0
46962,note_on,42,0,6,,,,,,,,0,,,57,0
46980,note_on,18,0,6,,,,,,,,0,,,54,58
46980,note_on,27,0,5,,,,,,,,0,,,74,79
47007,note_on,27,0,5,,,,,,,,0,,,74,0
47009,note_on,29,0,6,,,,,,,,0,,,54,0
47040,note_on,31,0,6,,,,,,,,0,,,50,58
47040,note_on,33,0,5,,,,,,,,0,,,69,90
47079,note_on,39,0,5,,,,,,,,0,,,69,0
47100,note_on,21,0,5,,,,,,,,0,,,74,102
47119,note_on,79,0,6,,,,,,,,0,,,50,0
47127,note_on,27,0,5,,,,,,,,0,,,74,0
47130,note_on,3,0,5,,,,,,,,0,,,73,70
47156,note_on,26,0,5,,,,,,,,0,,,73,0
47160,note_on,4,0,5,,,,,,,,0,,,74,79
47160,note_on,41,0,6,,,,,,,,0,,,54,51
47200,note_on,40,0,5,,,,,,,,0,,,74,0
47206,note_on,46,0,6,,,,,,,,0,,,54,0
47220,note_on,14,0,6,,,,,,,,0,,,50,58
47220,note_on,20,0,5,,,,,,,,0,,,69,96
47249,note_on,29,0,5,,,,,,,,0,,,69,0
47250,note_on,30,0,6,,,,,,,,0,,,50,0
47280,note_on,30,0,6,,,,,,,,0,,,45,69
47280,note_on,31,0,5,,,,,,,,0,,,66,63
47337,note_on,57,0,5,,,,,,,,0,,,66,0
47340,note_on,3,0,5,,,,,,,,0,,,69,90
47353,note_on,73,0,6,,,,,,,,0,,,45,0
47369,note_on,29,0,5,,,,,,,,0,,,69,0
47370,note_on,1,0,5,,,,,,,,0,,,67,102
47399,note_on,29,0,5,,,,,,,,0,,,67,0
47400,note_on,47,0,6,,,,,,,,0,,,50,64
47400,note_on,1,0,5,,,,,,,,0,,,69,85
47457,note_on,57,0,5,,,,,,,,0,,,69,0
47459,note_on,59,0,6,,,,,,,,0,,,50,0
47460,note_on,3,0,5,,,,,,,,0,,,66,93
47460,note_on,1,0,6,,,,,,,,0,,,45,39
47474,control_change,698,0,4,,,,,,,,10,7,94,,
47487,control_change,13,0,4,,,,,,,,10,7,93,,
47500,note_on,40,0,6,,,,,,,,0,,,45,0
47507,control_change,685,0,1,,,,,,,,1,7,108,,
47514,control_change,27,0,4,,,,,,,,10,7,91,,
47517,note_on,57,0,5,,,,,,,,0,,,66,0
47520,note_on,3,0,5,,,,,,,,0,,,62,117
47520,note_on,20,0,6,,,,,,,,0,,,42,84
47525,control_change,11,0,4,,,,,,,,10,7,90,,
47540,control_change,15,0,4,,,,,,,,10,7,88,,
47544,note_on,24,0,6,,,,,,,,0,,,42,0
47547,control_change,40,0,1,,,,,,,,1,7,107,,
47550,note_on,6,0,6,,,,,,,,0,,,43,72
47555,control_change,15,0,4,,,,,,,,10,7,87,,
47567,note_on,17,0,6,,,,,,,,0,,,43,0
47580,note_on,13,0,6,,,,,,,,0,,,45,55
47599,note_on,19,0,6,,,,,,,,0,,,45,0
47640,note_on,93,0,1,,,,,,,,1,,,69,84
47640,note_on,864,0,3,,,,,,,,1,,,66,72
47640,note_on,864,0,2,,,,,,,,1,,,69,51
47640,note_on,41,0,6,,,,,,,,0,,,38,74
47671,note_on,31,0,3,,,,,,,,1,,,66,0
47671,note_on,31,0,2,,,,,,,,1,,,69,0
47675,note_on,35,0,1,,,,,,,,1,,,69,0
47700,note_on,29,0,3,,,,,,,,1,,,66,81
47700,note_on,25,0,1,,,,,,,,1,,,69,74
47700,note_on,29,0,2,,,,,,,,1,,,69,51
47704,control_change,149,0,4,,,,,,,,10,7,85,,
47722,control_change,18,0,4,,,,,,,,10,7,84,,
47732,note_on,32,0,3,,,,,,,,1,,,66,0
47739,note_on,39,0,1,,,,,,,,1,,,69,0
47740,note_on,40,0,2,,,,,,,,1,,,69,0
47760,note_on,20,0,2,,,,,,,,1,,,71,74
47760,note_on,28,0,3,,,,,,,,1,,,67,79
47760,note_on,21,0,1,,,,,,,,1,,,71,89
47777,note_on,137,0,6,,,,,,,,0,,,38,0
47789,note_on,29,0,2,,,,,,,,1,,,71,0
47792,note_on,32,0,3,,,,,,,,1,,,67,0
47793,note_on,33,0,1,,,,,,,,1,,,71,0
47820,note_on,28,0,3,,,,,,,,1,,,67,79
47820,note_on,27,0,1,,,,,,,,1,,,71,93
47820,note_on,31,0,2,,,,,,,,1,,,71,58
47851,note_on,31,0,2,,,,,,,,1,,,71,0
47851,note_on,31,0,3,,,,,,,,1,,,67,0
47856,note_on,36,0,1,,,,,,,,1,,,71,0
47880,note_on,29,0,3,,,,,,,,1,,,64,84
47880,note_on,24,0,1,,,,,,,,1,,,73,89
47880,note_on,29,0,2,,,,,,,,1,,,73,43
47910,note_on,30,0,3,,,,,,,,1,,,64,0
47913,note_on,33,0,2,,,,,,,,1,,,73,0
47915,note_on,35,0,1,,,,,,,,1,,,73,0
47940,note_on,27,0,2,,,,,,,,1,,,73,48
47940,note_on,25,0,1,,,,,,,,1,,,73,91
47940,note_on,30,0,3,,,,,,,,1,,,64,66
47972,note_on,32,0,3,,,,,,,,1,,,64,0
47975,note_on,35,0,1,,,,,,,,1,,,73,0
47976,note_on,36,0,2,,,,,,,,1,,,73,0
48000,note_on,28,0,3,,,,,,,,1,,,66,72
48000,note_on,25,0,1,,,,,,,,1,,,74,93
48000,note_on,24,0,2,,,,,,,,1,,,74,66
48038,note_on,38,0,1,,,,,,,,1,,,74,0
48050,note_on,50,0,2,,,,,,,,1,,,74,0
48051,note_on,51,0,3,,,,,,,,1,,,66,0
48060,note_on,22,0,1,,,,,,,,1,,,74,69
48101,note_on,41,0,1,,,,,,,,1,,,74,0
48108,control_change,7,0,1,,,,,,,,1,7,109,,
48120,note_on,343,0,6,,,,,,,,0,,,42,111
48120,note_on,69,0,3,,,,,,,,1,,,66,127
48120,note_on,12,0,1,,,,,,,,1,,,69,124
48120,note_on,398,0,4,,,,,,,,10,,,30,127
48120,note_on,70,0,2,,,,,,,,1,,,69,55
48153,note_on,33,0,1,,,,,,,,1,,,69,0
48155,note_on,35,0,4,,,,,,,,10,,,30,0
48156,note_on,36,0,6,,,,,,,,0,,,42,0
48180,note_on,27,0,1,,,,,,,,1,,,69,126
48180,note_on,25,0,4,,,,,,,,10,,,30,126
48180,note_on,24,0,6,,,,,,,,0,,,54,93
48212,note_on,32,0,6,,,,,,,,0,,,54,0
48220,note_on,40,0,1,,,,,,,,1,,,69,0
48222,note_on,42,0,4,,,,,,,,10,,,30,0
48240,note_on,20,0,1,,,,,,,,1,,,71,127
48240,note_on,28,0,6,,,,,,,,0,,,43,86
48240,note_on,18,0,4,,,,,,,,10,,,31,102
48275,note_on,35,0,4,,,,,,,,10,,,31,0
48276,note_on,36,0,6,,,,,,,,0,,,43,0
48279,note_on,39,0,1,,,,,,,,1,,,71,0
48288,note_on,768,0,5,,,,,,,,0,,,62,0
48300,note_on,25,0,4,,,,,,,,10,,,31,102
48300,note_on,21,0,1,,,,,,,,1,,,71,117
48300,note_on,24,0,6,,,,,,,,0,,,55,108
48300,note_on,12,0,5,,,,,,,,0,,,64,106
48325,note_on,25,0,5,,,,,,,,0,,,64,0
48330,note_on,5,0,5,,,,,,,,0,,,66,102
48331,note_on,211,0,3,,,,,,,,1,,,66,0
48331,note_on,31,0,6,,,,,,,,0,,,55,0
48337,note_on,37,0,1,,,,,,,,1,,,71,0
48340,note_on,40,0,4,,,,,,,,10,,,31,0
48345,control_change,5,0,4,,,,,,,,10,7,79,,
48354,note_on,24,0,5,,,,,,,,0,,,66,0
48360,note_on,29,0,6,,,,,,,,0,,,45,96
48360,note_on,240,0,2,,,,,,,,1,,,67,61
48360,note_on,15,0,4,,,,,,,,10,,,33,99
48360,note_on,23,0,1,,,,,,,,1,,,73,111
48360,note_on,6,0,5,,,,,,,,0,,,67,127
48360,note_on,29,0,3,,,,,,,,1,,,64,96
48362,note_on,2,0,2,,,,,,,,1,,,69,0
48362,control_change,2,0,4,,,,,,,,10,7,78,,
48374,control_change,12,0,4,,,,,,,,10,7,76,,
48379,note_on,19,0,5,,,,,,,,0,,,67,0
48379,control_change,19,0,1,,,,,,,,1,7,108,,
48390,note_on,16,0,4,,,,,,,,10,,,33,0
48390,note_on,11,0,5,,,,,,,,0,,,69,85
48397,note_on,18,0,1,,,,,,,,1,,,73,0
48418,note_on,28,0,5,,,,,,,,0,,,69,0
48419,note_on,59,0,6,,,,,,,,0,,,45,0
48420,note_on,30,0,4,,,,,,,,10,,,33,99
48420,note_on,1,0,6,,,,,,,,0,,,57,74
48420,note_on,23,0,1,,,,,,,,1,,,73,84
48420,note_on,2,0,5,,,,,,,,0,,,71,85
48431,control_change,11,0,4,,,,,,,,10,7,75,,
48450,note_on,88,0,2,,,,,,,,1,,,67,0
48450,note_on,30,0,5,,,,,,,,0,,,73,127
48451,note_on,1,0,5,,,,,,,,0,,,71,0
48453,note_on,93,0,3,,,,,,,,1,,,64,0
48454,note_on,34,0,1,,,,,,,,1,,,73,0
48456,note_on,36,0,6,,,,,,,,0,,,57,0
48459,note_on,28,0,4,,,,,,,,10,,,33,0
48469,note_on,18,0,5,,,,,,,,0,,,73,0
48480,note_on,21,0,4,,,,,,,,10,,,35,96
48480,note_on,27,0,3,,,,,,,,1,,,62,111
48480,note_on,24,0,6,,,,,,,,0,,,47,117
48480,note_on,11,0,5,,,,,,,,0,,,74,106
48480,note_on,30,0,2,,,,,,,,1,,,66,77
48480,note_on,26,0,1,,,,,,,,1,,,74,105
48482,control_change,2,0,4,,,,,,,,10,7,73,,
48506,note_on,26,0,3,,,,,,,,1,,,62,0
48522,note_on,40,0,4,,,,,,,,10,,,35,0
48522,note_on,42,0,1,,,,,,,,1,,,74,0
48533,note_on,53,0,5,,,,,,,,0,,,74,0
48535,note_on,55,0,6,,,,,,,,0,,,47,0
48540,note_on,7,0,5,,,,,,,,0,,,76,110
48540,note_on,5,0,6,,,,,,,,0,,,59,84
48540,note_on,34,0,3,,,,,,,,1,,,62,96
48540,note_on,18,0,1,,,,,,,,1,,,76,102
48540,note_on,18,0,4,,,,,,,,10,,,35,102
48556,note_on,76,0,2,,,,,,,,1,,,66,0
48570,note_on,30,0,6,,,,,,,,0,,,59,0
48576,note_on,36,0,4,,,,,,,,10,,,35,0
48581,note_on,41,0,3,,,,,,,,1,,,62,0
48583,note_on,43,0,1,,,,,,,,1,,,76,0
48585,note_on,45,0,5,,,,,,,,0,,,76,0
48600,note_on,19,0,3,,,,,,,,1,,,61,93
48600,note_on,17,0,1,,,,,,,,1,,,78,99
48600,note_on,30,0,6,,,,,,,,0,,,45,81
48600,note_on,15,0,5,,,,,,,,0,,,78,117
48600,note_on,24,0,4,,,,,,,,10,,,33,127
48600,note_on,44,0,2,,,,,,,,1,,,69,84
48631,note_on,31,0,2,,,,,,,,1,,,69,0
48634,note_on,34,0,3,,,,,,,,1,,,61,0
48635,note_on,35,0,4,,,,,,,,10,,,33,0
48641,note_on,41,0,1,,,,,,,,1,,,78,0
48655,note_on,55,0,5,,,,,,,,0,,,78,0
48656,note_on,56,0,6,,,,,,,,0,,,45,0
48660,note_on,25,0,4,,,,,,,,10,,,33,89
48660,note_on,26,0,3,,,,,,,,1,,,61,102
48660,note_on,4,0,6,,,,,,,,0,,,57,84
48660,note_on,5,0,5,,,,,,,,0,,,74,127
48660,note_on,19,0,1,,,,,,,,1,,,74,93
48660,note_on,29,0,2,,,,,,,,1,,,69,69
48693,note_on,33,0,6,,,,,,,,0,,,57,0
48697,note_on,37,0,3,,,,,,,,1,,,61,0
48698,control_change,38,0,4,,,,,,,,10,7,74,,
48699,note_on,39,0,5,,,,,,,,0,,,74,0
48700,note_on,40,0,1,,,,,,,,1,,,74,0
48701,note_on,3,0,4,,,,,,,,10,,,33,0
48704,note_on,44,0,2,,,,,,,,1,,,69,0
48717,control_change,16,0,4,,,,,,,,10,7,76,,
48720,note_on,3,0,4,,,,,,,,10,,,35,127
48720,note_on,21,0,5,,,,,,,,0,,,79,88
48720,note_on,20,0,1,,,,,,,,1,,,79,117
48720,note_on,23,0,3,,,,,,,,1,,,59,86
48720,note_on,16,0,2,,,,,,,,1,,,74,89
48720,note_on,27,0,6,,,,,,,,0,,,47,84
48728,control_change,8,0,4,,,,,,,,10,7,77,,
48746,note_on,18,0,4,,,,,,,,10,,,35,0
48751,note_on,31,0,3,,,,,,,,1,,,59,0
48758,note_on,38,0,2,,,,,,,,1,,,74,0
48758,note_on,38,0,1,,,,,,,,1,,,79,0
48763,control_change,17,0,4,,,,,,,,10,7,79,,
48766,note_on,46,0,5,,,,,,,,0,,,79,0
48778,control_change,15,0,4,,,,,,,,10,7,80,,
48779,note_on,59,0,6,,,,,,,,0,,,47,0
48780,note_on,1,0,6,,,,,,,,0,,,59,79
48780,note_on,29,0,3,,,,,,,,1,,,59,96
48780,note_on,22,0,1,,,,,,,,1,,,76,96
48780,note_on,2,0,4,,,,,,,,10,,,35,108
48780,note_on,14,0,5,,,,,,,,0,,,76,102
48780,note_on,22,0,2,,,,,,,,1,,,74,108
48808,note_on,28,0,6,,,,,,,,0,,,59,0
48813,note_on,33,0,2,,,,,,,,1,,,74,0
48813,control_change,33,0,4,,,,,,,,10,7,82,,
48816,note_on,36,0,3,,,,,,,,1,,,59,0
48818,note_on,5,0,4,,,,,,,,10,,,35,0
48820,note_on,40,0,1,,,,,,,,1,,,76,0
48825,note_on,45,0,5,,,,,,,,0,,,76,0
48840,note_on,15,0,5,,,,,,,,0,,,81,127
48840,note_on,27,0,2,,,,,,,,1,,,76,105
48840,note_on,24,0,3,,,,,,,,1,,,57,89
48840,note_on,22,0,4,,,,,,,,10,,,37,117
48840,note_on,32,0,6,,,,,,,,0,,,49,96
48840,note_on,20,0,1,,,,,,,,1,,,81,124
48842,control_change,2,0,4,,,,,,,,10,7,83,,
48865,control_change,23,0,4,,,,,,,,10,7,85,,
48869,note_on,29,0,2,,,,,,,,1,,,76,0
48871,note_on,31,0,3,,,,,,,,1,,,57,0
48875,note_on,10,0,4,,,,,,,,10,,,37,0
48895,note_on,55,0,6,,,,,,,,0,,,49,0
48900,note_on,29,0,3,,,,,,,,1,,,57,96
48900,note_on,31,0,2,,,,,,,,1,,,76,96
48900,note_on,25,0,4,,,,,,,,10,,,37,127
48900,note_on,5,0,6,,,,,,,,0,,,61,89
48913,note_on,73,0,5,,,,,,,,0,,,81,0
48932,note_on,32,0,3,,,,,,,,1,,,57,0
48933,note_on,93,0,1,,,,,,,,1,,,81,0
48935,note_on,35,0,2,,,,,,,,1,,,76,0
48939,note_on,39,0,6,,,,,,,,0,,,61,0
48943,note_on,43,0,4,,,,,,,,10,,,37,0
48960,note_on,47,0,5,,,,,,,,0,,,79,117
48960,note_on,17,0,4,,,,,,,,10,,,38,126
48960,note_on,28,0,3,,,,,,,,1,,,57,72
48960,note_on,27,0,1,,,,,,,,1,,,79,84
48960,note_on,21,0,6,,,,,,,,0,,,50,117
48960,note_on,25,0,2,,,,,,,,1,,,74,96
49000,note_on,40,0,1,,,,,,,,1,,,79,0
49017,note_on,57,0,5,,,,,,,,0,,,79,0
49020,note_on,20,0,1,,,,,,,,1,,,78,127
49020,note_on,3,0,5,,,,,,,,0,,,78,117
49028,note_on,68,0,6,,,,,,,,0,,,50,0
49035,note_on,75,0,2,,,,,,,,1,,,74,0
49042,note_on,82,0,3,,,,,,,,1,,,57,0
49047,note_on,87,0,4,,,,,,,,10,,,38,0
49055,note_on,35,0,1,,,,,,,,1,,,78,0
49062,note_on,42,0,5,,,,,,,,0,,,78,0
49080,note_on,45,0,2,,,,,,,,1,,,66,51
49080,note_on,25,0,1,,,,,,,,1,,,76,111
49080,note_on,52,0,6,,,,,,,,0,,,47,96
49080,note_on,33,0,4,,,,,,,,10,,,35,123
49080,note_on,38,0,3,,,,,,,,1,,,59,64
49080,note_on,18,0,5,,,,,,,,0,,,76,110
49117,note_on,37,0,5,,,,,,,,0,,,76,0
49123,note_on,43,0,1,,,,,,,,1,,,76,0
49140,note_on,23,0,5,,,,,,,,0,,,74,127
49140,note_on,17,0,1,,,,,,,,1,,,74,111
49147,note_on,67,0,6,,,,,,,,0,,,47,0
49168,note_on,88,0,4,,,,,,,,10,,,35,0
49172,note_on,92,0,3,,,,,,,,1,,,59,0
49174,note_on,94,0,2,,,,,,,,1,,,66,0
49179,note_on,39,0,1,,,,,,,,1,,,74,0
49180,note_on,40,0,5,,,,,,,,0,,,74,0
49188,control_change,20,0,4,,,,,,,,10,7,86,,
49200,note_on,12,0,4,,,,,,,,10,,,31,117
49200,note_on,26,0,2,,,,,,,,1,,,71,55
49200,note_on,28,0,3,,,,,,,,1,,,59,72
49200,note_on,20,0,5,,,,,,,,0,,,78,113
49200,note_on,21,0,1,,,,,,,,1,,,78,93
49200,note_on,53,0,6,,,,,,,,0,,,43,96
49210,control_change,10,0,4,,,,,,,,10,7,88,,
49236,note_on,36,0,1,,,,,,,,1,,,78,0
49248,note_on,48,0,5,,,,,,,,0,,,78,0
49260,note_on,12,0,5,,,,,,,,0,,,76,110
49260,note_on,24,0,1,,,,,,,,1,,,76,108
49269,note_on,69,0,6,,,,,,,,0,,,43,0
49290,note_on,80,0,4,,,,,,,,10,,,31,0
49291,note_on,91,0,2,,,,,,,,1,,,71,0
49300,note_on,100,0,3,,,,,,,,1,,,59,0
49302,note_on,42,0,1,,,,,,,,1,,,76,0
49308,note_on,48,0,5,,,,,,,,0,,,76,0
49320,note_on,20,0,3,,,,,,,,1,,,64,84
49320,note_on,12,0,5,,,,,,,,0,,,74,127
49320,note_on,30,0,4,,,,,,,,10,,,33,89
49320,note_on,29,0,2,,,,,,,,1,,,69,69
49320,note_on,18,0,1,,,,,,,,1,,,74,127
49320,note_on,51,0,6,,,,,,,,0,,,45,79
49343,control_change,23,0,4,,,,,,,,10,7,89,,
49356,note_on,36,0,1,,,,,,,,1,,,74,0
49362,note_on,42,0,5,,,,,,,,0,,,74,0
49379,note_on,59,0,6,,,,,,,,0,,,45,0
49380,note_on,24,0,1,,,,,,,,1,,,73,108
49380,note_on,18,0,5,,,,,,,,0,,,73,120
49401,note_on,81,0,2,,,,,,,,1,,,69,0
49408,note_on,65,0,4,,,,,,,,10,,,33,0
49414,note_on,34,0,1,,,,,,,,1,,,73,0
49416,note_on,36,0,5,,,,,,,,0,,,73,0
49416,note_on,96,0,3,,,,,,,,1,,,64,0
49440,note_on,26,0,1,,,,,,,,1,,,74,127
49440,note_on,39,0,2,,,,,,,,1,,,69,51
49440,note_on,24,0,5,,,,,,,,0,,,74,127
49440,note_on,24,0,3,,,,,,,,1,,,66,66
49440,note_on,61,0,6,,,,,,,,0,,,38,89
49440,note_on,32,0,4,,,,,,,,10,,,26,124
49476,note_on,36,0,6,,,,,,,,0,,,38,0
49551,note_on,111,0,4,,,,,,,,10,,,26,0
49560,note_on,9,0,4,,,,,,,,10,,,42,89
49560,note_on,84,0,6,,,,,,,,0,,,54,89
49594,note_on,34,0,4,,,,,,,,10,,,42,0
49597,note_on,37,0,6,,,,,,,,0,,,54,0
49620,note_on,23,0,6,,,,,,,,0,,,52,72
49620,note_on,26,0,4,,,,,,,,10,,,40,77
49652,note_on,32,0,6,,,,,,,,0,,,52,0
49656,note_on,216,0,2,,,,,,,,1,,,69,0
49656,note_on,216,0,1,,,,,,,,1,,,74,0
49656,note_on,216,0,3,,,,,,,,1,,,66,0
49656,note_on,216,0,5,,,,,,,,0,,,74,0
49660,note_on,40,0,4,,,,,,,,10,,,40,0
49667,control_change,7,0,4,,,,,,,,10,7,88,,
49680,note_on,28,0,6,,,,,,,,0,,,50,72
49680,note_on,13,0,4,,,,,,,,10,,,38,93
49686,control_change,6,0,4,,,,,,,,10,7,87,,
49714,control_change,28,0,4,,,,,,,,10,7,85,,
49726,note_on,46,0,6,,,,,,,,0,,,50,0
49734,control_change,20,0,4,,,,,,,,10,7,84,,
49740,note_on,14,0,6,,,,,,,,0,,,52,69
49754,control_change,20,0,4,,,,,,,,10,7,82,,
49755,note_on,15,0,6,,,,,,,,0,,,52,0
49770,note_on,15,0,6,,,,,,,,0,,,50,69
49772,note_on,18,0,4,,,,,,,,10,,,38,0
49773,control_change,1,0,4,,,,,,,,10,7,81,,
49786,note_on,16,0,6,,,,,,,,0,,,50,0
49800,note_on,27,0,4,,,,,,,,10,,,37,64
49800,note_on,14,0,6,,,,,,,,0,,,49,91
49804,control_change,4,0,4,,,,,,,,10,7,79,,
49813,control_change,9,0,4,,,,,,,,10,7,78,,
49838,control_change,25,0,4,,,,,,,,10,7,76,,
49857,control_change,19,0,4,,,,,,,,10,7,75,,
49859,note_on,59,0,6,,,,,,,,0,,,49,0
49860,note_on,1,0,6,,,,,,,,0,,,50,77
49877,control_change,20,0,4,,,,,,,,10,7,73,,
49879,note_on,19,0,6,,,,,,,,0,,,50,0
49890,note_on,11,0,6,,,,,,,,0,,,49,77
49898,control_change,21,0,4,,,,,,,,10,7,72,,
49900,note_on,2,0,4,,,,,,,,10,,,37,0
49908,note_on,18,0,6,,,,,,,,0,,,49,0
49920,note_on,12,0,6,,,,,,,,0,,,47,77
49920,control_change,264,0,1,,,,,,,,1,7,107,,
49920,note_on,0,0,1,,,,,,,,1,,,59,35
49920,control_change,0,0,4,,,,,,,,10,7,70,,
49920,note_on,264,0,3,,,,,,,,1,,,59,51
49920,note_on,264,0,5,,,,,,,,0,,,78,96
49920,note_on,20,0,4,,,,,,,,10,,,35,89
49920,note_on,264,0,2,,,,,,,,1,,,59,26
49966,note_on,46,0,5,,,,,,,,0,,,78,0
49979,note_on,59,0,6,,,,,,,,0,,,47,0
49980,note_on,14,0,5,,,,,,,,0,,,71,110
49980,note_on,1,0,6,,,,,,,,0,,,50,77
49989,note_on,69,0,3,,,,,,,,1,,,59,0
50013,note_on,33,0,6,,,,,,,,0,,,50,0
50024,note_on,44,0,5,,,,,,,,0,,,71,0
50040,note_on,51,0,3,,,,,,,,1,,,59,58
50040,note_on,16,0,5,,,,,,,,0,,,70,110
50040,note_on,27,0,6,,,,,,,,0,,,54,102
50084,note_on,44,0,5,,,,,,,,0,,,70,0
50100,note_on,16,0,5,,,,,,,,0,,,71,75
50104,note_on,64,0,3,,,,,,,,1,,,59,0
50136,note_on,216,0,2,,,,,,,,1,,,59,0
50136,note_on,216,0,1,,,,,,,,1,,,59,0
50136,note_on,216,0,4,,,,,,,,10,,,35,0
50157,note_on,57,0,5,,,,,,,,0,,,71,0
50160,note_on,24,0,2,,,,,,,,1,,,62,14
50160,note_on,56,0,3,,,,,,,,1,,,59,48
50160,note_on,3,0,5,,,,,,,,0,,,66,82
50168,note_on,128,0,6,,,,,,,,0,,,54,0
50193,note_on,57,0,1,,,,,,,,1,,,62,43
50204,control_change,11,0,1,,,,,,,,1,7,104,,
50206,note_on,46,0,5,,,,,,,,0,,,66,0
50220,note_on,14,0,5,,,,,,,,0,,,71,102
50236,note_on,76,0,3,,,,,,,,1,,,59,0
50266,note_on,46,0,5,,,,,,,,0,,,71,0
50280,note_on,112,0,6,,,,,,,,0,,,52,84
50280,note_on,14,0,5,,,,,,,,0,,,73,117
50280,note_on,44,0,3,,,,,,,,1,,,59,58
50296,control_change,92,0,1,,,,,,,,1,7,105,,
50325,note_on,45,0,5,,,,,,,,0,,,73,0
50340,note_on,15,0,5,,,,,,,,0,,,70,85
50341,note_on,61,0,6,,,,,,,,0,,,52,0
50349,note_on,69,0,3,,,,,,,,1,,,59,0
50376,note_on,216,0,2,,,,,,,,1,,,62,0
50379,note_on,39,0,5,,,,,,,,0,,,70,0
50400,note_on,21,0,5,,,,,,,,0,,,71,90
50400,note_on,24,0,2,,,,,,,,1,,,66,22
50400,note_on,59,0,6,,,,,,,,0,,,50,79
50400,note_on,51,0,3,,,,,,,,1,,,59,51
50409,note_on,113,0,1,,,,,,,,1,,,62,0
50433,note_on,24,0,1,,,,,,,,1,,,66,22
50442,note_on,42,0,5,,,,,,,,0,,,71,0
50460,note_on,18,0,5,,,,,,,,0,,,66,82
50469,note_on,69,0,6,,,,,,,,0,,,50,0
50476,note_on,76,0,3,,,,,,,,1,,,59,0
50512,note_on,52,0,5,,,,,,,,0,,,66,0
50520,note_on,44,0,3,,,,,,,,1,,,59,51
50520,note_on,8,0,5,,,,,,,,0,,,67,75
50520,note_on,51,0,6,,,,,,,,0,,,49,81
50557,note_on,37,0,5,,,,,,,,0,,,67,0
50580,note_on,23,0,5,,,,,,,,0,,,64,88
50586,note_on,66,0,6,,,,,,,,0,,,49,0
50591,note_on,71,0,3,,,,,,,,1,,,59,0
50616,note_on,216,0,2,,,,,,,,1,,,66,0
50620,note_on,40,0,5,,,,,,,,0,,,64,0
50640,note_on,20,0,5,,,,,,,,0,,,66,110
50640,note_on,54,0,6,,,,,,,,0,,,50,66
50640,note_on,49,0,3,,,,,,,,1,,,59,51
50649,note_on,216,0,1,,,,,,,,1,,,66,0
50688,note_on,48,0,5,,,,,,,,0,,,66,0
50700,note_on,12,0,5,,,,,,,,0,,,71,75
50704,note_on,64,0,6,,,,,,,,0,,,50,0
50719,note_on,79,0,3,,,,,,,,1,,,59,0
50754,note_on,54,0,5,,,,,,,,0,,,71,0
50760,note_on,41,0,3,,,,,,,,1,,,59,51
50760,note_on,6,0,5,,,,,,,,0,,,73,88
50760,note_on,56,0,6,,,,,,,,0,,,47,72
50810,note_on,50,0,5,,,,,,,,0,,,73,0
50820,note_on,10,0,5,,,,,,,,0,,,74,90
50830,note_on,70,0,6,,,,,,,,0,,,47,0
50840,note_on,80,0,3,,,,,,,,1,,,59,0
50847,note_on,27,0,5,,,,,,,,0,,,74,0
50880,note_on,40,0,3,,,,,,,,1,,,57,48
50880,note_on,744,0,4,,,,,,,,10,,,33,86
50880,note_on,33,0,5,,,,,,,,0,,,73,70
50880,note_on,264,0,2,,,,,,,,1,,,57,39
50880,note_on,231,0,1,,,,,,,,1,,,57,43
50880,note_on,50,0,6,,,,,,,,0,,,45,69
50919,note_on,39,0,6,,,,,,,,0,,,45,0
50920,note_on,40,0,5,,,,,,,,0,,,73,0
50940,note_on,20,0,5,,,,,,,,0,,,78,82
50940,note_on,21,0,6,,,,,,,,0,,,54,66
50959,note_on,79,0,3,,,,,,,,1,,,57,0
50982,note_on,42,0,6,,,,,,,,0,,,54,0
50993,note_on,53,0,5,,,,,,,,0,,,78,0
51000,note_on,41,0,3,,,,,,,,1,,,57,48
51000,note_on,18,0,6,,,,,,,,0,,,61,117
51000,note_on,7,0,5,,,,,,,,0,,,77,102
51052,note_on,52,0,5,,,,,,,,0,,,77,0
51060,note_on,8,0,5,,,,,,,,0,,,78,96
51073,note_on,73,0,3,,,,,,,,1,,,57,0
51096,note_on,216,0,1,,,,,,,,1,,,57,0
51096,note_on,216,0,4,,,,,,,,10,,,33,0
51096,note_on,216,0,2,,,,,,,,1,,,57,0
51108,note_on,48,0,5,,,,,,,,0,,,78,0
51120,note_on,47,0,3,,,,,,,,1,,,57,48
51120,note_on,120,0,6,,,,,,,,0,,,61,0
51120,note_on,24,0,2,,,,,,,,1,,,61,30
51120,note_on,24,0,1,,,,,,,,1,,,61,39
51120,note_on,12,0,5,,,,,,,,0,,,73,96
51166,note_on,46,0,5,,,,,,,,0,,,73,0
51180,note_on,14,0,5,,,,,,,,0,,,78,104
51195,note_on,75,0,3,,,,,,,,1,,,57,0
51233,note_on,53,0,5,,,,,,,,0,,,78,0
51240,note_on,120,0,6,,,,,,,,0,,,59,74
51240,note_on,7,0,5,,,,,,,,0,,,80,88
51240,note_on,45,0,3,,,,,,,,1,,,57,58
51289,note_on,49,0,5,,,,,,,,0,,,80,0
51300,note_on,11,0,5,,,,,,,,0,,,77,88
51308,note_on,68,0,3,,,,,,,,1,,,57,0
51317,note_on,77,0,6,,,,,,,,0,,,59,0
51336,note_on,216,0,1,,,,,,,,1,,,61,0
51336,note_on,216,0,2,,,,,,,,1,,,61,0
51344,note_on,44,0,5,,,,,,,,0,,,77,0
51360,note_on,43,0,6,,,,,,,,0,,,57,79
51360,note_on,52,0,3,,,,,,,,1,,,57,43
51360,note_on,24,0,1,,,,,,,,1,,,66,26
51360,note_on,24,0,2,,,,,,,,1,,,66,22
51360,note_on,16,0,5,,,,,,,,0,,,78,98
51416,note_on,56,0,5,,,,,,,,0,,,78,0
51420,note_on,4,0,5,,,,,,,,0,,,73,117
51433,note_on,73,0,6,,,,,,,,0,,,57,0
51438,note_on,78,0,3,,,,,,,,1,,,57,0
51469,note_on,49,0,5,,,,,,,,0,,,73,0
51480,note_on,47,0,6,,,,,,,,0,,,54,66
51480,note_on,42,0,3,,,,,,,,1,,,57,48
51480,note_on,11,0,5,,,,,,,,0,,,74,90
51518,control_change,422,0,4,,,,,,,,10,7,69,,
51522,note_on,42,0,5,,,,,,,,0,,,74,0
51540,note_on,18,0,5,,,,,,,,0,,,71,102
51552,note_on,72,0,3,,,,,,,,1,,,57,0
51553,note_on,73,0,6,,,,,,,,0,,,54,0
51555,control_change,37,0,4,,,,,,,,10,7,67,,
51576,note_on,216,0,1,,,,,,,,1,,,66,0
51576,note_on,216,0,2,,,,,,,,1,,,66,0
51588,note_on,48,0,5,,,,,,,,0,,,71,0
51600,note_on,47,0,6,,,,,,,,0,,,57,79
51600,note_on,12,0,5,,,,,,,,0,,,73,104
51600,note_on,48,0,3,,,,,,,,1,,,57,51
51646,note_on,46,0,5,,,,,,,,0,,,73,0
51660,note_on,14,0,5,,,,,,,,0,,,78,88
51674,note_on,74,0,6,,,,,,,,0,,,57,0
51679,note_on,79,0,3,,,,,,,,1,,,57,0
51715,note_on,55,0,5,,,,,,,,0,,,78,0
51720,note_on,41,0,3,,,,,,,,1,,,57,48
51720,note_on,5,0,5,,,,,,,,0,,,77,63
51720,note_on,46,0,6,,,,,,,,0,,,62,66
51759,note_on,39,0,5,,,,,,,,0,,,77,0
51765,note_on,45,0,6,,,,,,,,0,,,62,0
51780,note_on,21,0,5,,,,,,,,0,,,78,75
51802,note_on,82,0,3,,,,,,,,1,,,57,0
51832,note_on,52,0,5,,,,,,,,0,,,78,0
51840,note_on,285,0,4,,,,,,,,10,,,31,102
51840,note_on,264,0,1,,,,,,,,1,,,55,30
51840,note_on,75,0,6,,,,,,,,0,,,43,77
51840,note_on,38,0,3,,,,,,,,1,,,55,35
51840,note_on,264,0,2,,,,,,,,1,,,55,30
51840,note_on,8,0,5,,,,,,,,0,,,71,82
51892,note_on,52,0,5,,,,,,,,0,,,71,0
51895,note_on,55,0,6,,,,,,,,0,,,43,0
51900,note_on,5,0,6,,,,,,,,0,,,50,84
51900,note_on,8,0,5,,,,,,,,0,,,70,70
51912,note_on,72,0,3,,,,,,,,1,,,55,0
51932,note_on,32,0,6,,,,,,,,0,,,50,0
51939,note_on,39,0,5,,,,,,,,0,,,70,0
51960,note_on,21,0,5,,,,,,,,0,,,71,96
51960,note_on,48,0,3,,,,,,,,1,,,55,64
51960,note_on,28,0,6,,,,,,,,0,,,55,79
52013,note_on,53,0,5,,,,,,,,0,,,71,0
52020,note_on,7,0,5,,,,,,,,0,,,76,90
52033,note_on,73,0,3,,,,,,,,1,,,55,0
52056,note_on,216,0,4,,,,,,,,10,,,31,0
52056,note_on,216,0,2,,,,,,,,1,,,55,0
52056,note_on,216,0,1,,,,,,,,1,,,55,0
52077,note_on,57,0,5,,,,,,,,0,,,76,0
52080,note_on,47,0,3,,,,,,,,1,,,55,64
52080,note_on,24,0,1,,,,,,,,1,,,59,18
52080,note_on,3,0,5,,,,,,,,0,,,78,75
52080,note_on,24,0,2,,,,,,,,1,,,59,18
52132,note_on,52,0,5,,,,,,,,0,,,78,0
52140,note_on,8,0,5,,,,,,,,0,,,75,96
52157,note_on,77,0,3,,,,,,,,1,,,55,0
52176,note_on,216,0,6,,,,,,,,0,,,55,0
52192,note_on,52,0,5,,,,,,,,0,,,75,0
52200,note_on,43,0,3,,,,,,,,1,,,55,64
52200,note_on,8,0,5,,,,,,,,0,,,76,79
52200,note_on,24,0,6,,,,,,,,0,,,54,66
52250,note_on,50,0,5,,,,,,,,0,,,76,0
52260,note_on,10,0,5,,,,,,,,0,,,71,73
52264,note_on,64,0,6,,,,,,,,0,,,54,0
52273,note_on,73,0,3,,,,,,,,1,,,55,0
52296,note_on,216,0,2,,,,,,,,1,,,59,0
52296,note_on,216,0,1,,,,,,,,1,,,59,0
52312,note_on,52,0,5,,,,,,,,0,,,71,0
52320,note_on,8,0,5,,,,,,,,0,,,72,96
52320,note_on,56,0,6,,,,,,,,0,,,52,84
52320,note_on,24,0,2,,,,,,,,1,,,64,26
52320,note_on,24,0,1,,,,,,,,1,,,64,22
52320,note_on,47,0,3,,,,,,,,1,,,55,35
52374,note_on,54,0,5,,,,,,,,0,,,72,0
52380,note_on,6,0,5,,,,,,,,0,,,69,73
52390,note_on,70,0,6,,,,,,,,0,,,52,0
52396,note_on,76,0,3,,,,,,,,1,,,55,0
52424,note_on,44,0,5,,,,,,,,0,,,69,0
52440,note_on,16,0,5,,,,,,,,0,,,71,75
52440,note_on,50,0,6,,,,,,,,0,,,50,66
52440,note_on,44,0,3,,,,,,,,1,,,55,30
52490,note_on,50,0,5,,,,,,,,0,,,71,0
52500,note_on,10,0,5,,,,,,,,0,,,66,75
52513,note_on,73,0,3,,,,,,,,1,,,55,0
52515,note_on,75,0,6,,,,,,,,0,,,50,0
52536,note_on,216,0,2,,,,,,,,1,,,64,0
52536,note_on,216,0,1,,,,,,,,1,,,64,0
52546,note_on,46,0,5,,,,,,,,0,,,66,0
52560,note_on,14,0,5,,,,,,,,0,,,67,66
52560,note_on,47,0,3,,,,,,,,1,,,55,48
52560,note_on,45,0,6,,,,,,,,0,,,49,66
52616,note_on,56,0,5,,,,,,,,0,,,67,0
52620,note_on,4,0,5,,,,,,,,0,,,64,79
52634,note_on,74,0,3,,,,,,,,1,,,55,0
52638,note_on,78,0,6,,,,,,,,0,,,49,0
52671,control_change,135,0,1,,,,,,,,1,7,102,,
52673,note_on,53,0,5,,,,,,,,0,,,64,0
52680,note_on,42,0,6,,,,,,,,0,,,52,64
52680,note_on,46,0,3,,,,,,,,1,,,55,48
52680,note_on,7,0,5,,,,,,,,0,,,66,58
52730,note_on,50,0,5,,,,,,,,0,,,66,0
52740,note_on,10,0,5,,,,,,,,0,,,67,63
52758,note_on,78,0,3,,,,,,,,1,,,55,0
52761,note_on,81,0,6,,,,,,,,0,,,52,0
52780,note_on,40,0,5,,,,,,,,0,,,67,0
52800,note_on,744,0,4,,,,,,,,10,,,30,93
52800,note_on,264,0,2,,,,,,,,1,,,66,14
52800,note_on,42,0,3,,,,,,,,1,,,54,48
52800,note_on,20,0,5,,,,,,,,0,,,58,102
52800,note_on,129,0,1,,,,,,,,1,,,66,22
52800,note_on,39,0,6,,,,,,,,0,,,42,89
52855,note_on,55,0,6,,,,,,,,0,,,42,0
52856,note_on,56,0,5,,,,,,,,0,,,58,0
52860,note_on,5,0,6,,,,,,,,0,,,49,81
52860,note_on,4,0,5,,,,,,,,0,,,66,88
52868,note_on,68,0,3,,,,,,,,1,,,54,0
52898,note_on,38,0,6,,,,,,,,0,,,49,0
52905,control_change,105,0,1,,,,,,,,1,7,103,,
52915,note_on,55,0,5,,,,,,,,0,,,66,0
52920,note_on,52,0,3,,,,,,,,1,,,54,43
52920,note_on,5,0,5,,,,,,,,0,,,73,75
52920,note_on,22,0,6,,,,,,,,0,,,56,61
52977,note_on,57,0,5,,,,,,,,0,,,73,0
52980,note_on,3,0,5,,,,,,,,0,,,74,96
53000,note_on,80,0,3,,,,,,,,1,,,54,0
53016,note_on,111,0,1,,,,,,,,1,,,66,0
53016,note_on,216,0,4,,,,,,,,10,,,30,0
53016,note_on,216,0,2,,,,,,,,1,,,66,0
53030,note_on,50,0,5,,,,,,,,0,,,74,0
53040,note_on,24,0,1,,,,,,,,1,,,73,26
53040,note_on,24,0,2,,,,,,,,1,,,73,22
53040,note_on,40,0,3,,,,,,,,1,,,54,30
53040,note_on,10,0,5,,,,,,,,0,,,76,96
53095,note_on,55,0,5,,,,,,,,0,,,76,0
53100,note_on,5,0,5,,,,,,,,0,,,73,82
53122,note_on,82,0,3,,,,,,,,1,,,54,0
53136,note_on,216,0,6,,,,,,,,0,,,56,0
53151,note_on,51,0,5,,,,,,,,0,,,73,0
53160,note_on,9,0,5,,,,,,,,0,,,74,96
53160,note_on,38,0,3,,,,,,,,1,,,54,22
53160,note_on,24,0,6,,,,,,,,0,,,59,79
53214,note_on,54,0,5,,,,,,,,0,,,74,0
53220,note_on,6,0,5,,,,,,,,0,,,71,85
53234,note_on,74,0,3,,,,,,,,1,,,54,0
53249,note_on,89,0,6,,,,,,,,0,,,59,0
53256,note_on,216,0,1,,,,,,,,1,,,73,0
53256,note_on,216,0,2,,,,,,,,1,,,73,0
53271,note_on,51,0,5,,,,,,,,0,,,71,0
53280,note_on,9,0,5,,,,,,,,0,,,70,93
53280,note_on,24,0,2,,,,,,,,1,,,78,8
53280,note_on,46,0,3,,,,,,,,1,,,54,26
53280,note_on,24,0,1,,,,,,,,1,,,78,11
53280,note_on,31,0,6,,,,,,,,0,,,61,64
53336,note_on,56,0,5,,,,,,,,0,,,70,0
53340,note_on,4,0,5,,,,,,,,0,,,73,106
53355,note_on,75,0,6,,,,,,,,0,,,61,0
53370,note_on,90,0,3,,,,,,,,1,,,54,0
53388,note_on,48,0,5,,,,,,,,0,,,73,0
53400,note_on,12,0,5,,,,,,,,0,,,76,117
53400,note_on,45,0,6,,,,,,,,0,,,59,74
53400,note_on,30,0,3,,,,,,,,1,,,54,30
53455,note_on,55,0,5,,,,,,,,0,,,76,0
53460,note_on,5,0,5,,,,,,,,0,,,79,106
53477,note_on,77,0,3,,,,,,,,1,,,54,0
53481,note_on,81,0,6,,,,,,,,0,,,59,0
53496,note_on,216,0,2,,,,,,,,1,,,78,0
53496,note_on,216,0,1,,,,,,,,1,,,78,0
53515,note_on,55,0,5,,,,,,,,0,,,79,0
53520,note_on,43,0,3,,,,,,,,1,,,54,39
53520,note_on,39,0,6,,,,,,,,0,,,58,96
53520,note_on,5,0,5,,,,,,,,0,,,78,93
53577,note_on,57,0,5,,,,,,,,0,,,78,0
53580,note_on,3,0,5,,,,,,,,0,,,76,79
53588,note_on,68,0,6,,,,,,,,0,,,58,0
53597,note_on,77,0,3,,,,,,,,1,,,54,0
53634,note_on,54,0,5,,,,,,,,0,,,76,0
53640,note_on,52,0,6,,,,,,,,0,,,54,66
53640,note_on,43,0,3,,,,,,,,1,,,54,35
53640,note_on,6,0,5,,,,,,,,0,,,74,82
53689,note_on,49,0,5,,,,,,,,0,,,74,0
53700,note_on,11,0,5,,,,,,,,0,,,73,88
53713,note_on,73,0,3,,,,,,,,1,,,54,0
53715,note_on,75,0,6,,,,,,,,0,,,54,0
53751,note_on,51,0,5,,,,,,,,0,,,73,0
53760,note_on,264,0,1,,,,,,,,1,,,78,1
53760,note_on,744,0,4,,,,,,,,10,,,47,77
53760,note_on,45,0,6,,,,,,,,0,,,59,72
53760,note_on,9,0,5,,,,,,,,0,,,74,82
53760,note_on,264,0,2,,,,,,,,1,,,71,8
53760,note_on,47,0,3,,,,,,,,1,,,54,48
53779,note_on,19,0,6,,,,,,,,0,,,59,0
53816,note_on,56,0,5,,,,,,,,0,,,74,0
53820,note_on,4,0,5,,,,,,,,0,,,73,75
53840,note_on,80,0,3,,,,,,,,1,,,54,0
53859,note_on,39,0,5,,,,,,,,0,,,73,0
53880,note_on,40,0,3,,,,,,,,1,,,59,51
53880,note_on,21,0,5,,,,,,,,0,,,74,82
53880,note_on,101,0,6,,,,,,,,0,,,59,72
53928,note_on,48,0,5,,,,,,,,0,,,74,0
53940,note_on,12,0,5,,,,,,,,0,,,78,82
53976,note_on,216,0,4,,,,,,,,10,,,47,0
53982,note_on,102,0,6,,,,,,,,0,,,59,0
54000,note_on,60,0,5,,,,,,,,0,,,83,85
54000,note_on,24,0,4,,,,,,,,10,,,45,79
54000,note_on,18,0,6,,,,,,,,0,,,57,74
54007,note_on,7,0,5,,,,,,,,0,,,78,0
54027,note_on,27,0,6,,,,,,,,0,,,57,0
54053,note_on,46,0,5,,,,,,,,0,,,83,0
54060,note_on,7,0,5,,,,,,,,0,,,78,88
54106,note_on,226,0,3,,,,,,,,1,,,59,0
54108,note_on,48,0,5,,,,,,,,0,,,78,0
54120,note_on,14,0,3,,,,,,,,1,,,61,55
54120,note_on,12,0,5,,,,,,,,0,,,74,90
54120,note_on,93,0,6,,,,,,,,0,,,57,79
54173,note_on,53,0,5,,,,,,,,0,,,74,0
54180,note_on,7,0,5,,,,,,,,0,,,73,70
54202,note_on,442,0,1,,,,,,,,1,,,78,0
54213,note_on,93,0,3,,,,,,,,1,,,61,0
54216,note_on,216,0,4,,,,,,,,10,,,45,0
54224,note_on,44,0,5,,,,,,,,0,,,73,0
54240,note_on,16,0,5,,,,,,,,0,,,74,82
54240,note_on,24,0,4,,,,,,,,10,,,44,77
54240,note_on,38,0,1,,,,,,,,1,,,77,26
54240,note_on,27,0,3,,,,,,,,1,,,62,55
54240,note_on,120,0,6,,,,,,,,0,,,56,77
54254,note_on,14,0,6,,,,,,,,0,,,57,0
54267,note_on,13,0,6,,,,,,,,0,,,56,0
54297,note_on,57,0,5,,,,,,,,0,,,74,0
54300,note_on,3,0,5,,,,,,,,0,,,73,96
54344,note_on,44,0,5,,,,,,,,0,,,73,0
54355,note_on,595,0,2,,,,,,,,1,,,71,0
54360,note_on,5,0,2,,,,,,,,1,,,73,11
54360,note_on,16,0,5,,,,,,,,0,,,74,79
54360,note_on,93,0,6,,,,,,,,0,,,56,89
54412,note_on,52,0,5,,,,,,,,0,,,74,0
54420,note_on,8,0,5,,,,,,,,0,,,78,75
54455,note_on,215,0,1,,,,,,,,1,,,77,0
54456,note_on,216,0,4,,,,,,,,10,,,44,0
54458,note_on,98,0,2,,,,,,,,1,,,73,0
54466,control_change,11,0,1,,,,,,,,1,7,102,,
54480,note_on,60,0,5,,,,,,,,0,,,83,102
54480,note_on,22,0,2,,,,,,,,1,,,71,18
54480,note_on,120,0,6,,,,,,,,0,,,54,77
54480,note_on,24,0,4,,,,,,,,10,,,42,69
54480,note_on,14,0,1,,,,,,,,1,,,78,14
54484,note_on,4,0,5,,,,,,,,0,,,78,0
54493,note_on,13,0,6,,,,,,,,0,,,56,0
54499,control_change,19,0,4,,,,,,,,10,7,68,,
54504,note_on,11,0,6,,,,,,,,0,,,54,0
54531,control_change,32,0,4,,,,,,,,10,7,70,,
54536,note_on,52,0,5,,,,,,,,0,,,83,0
54540,note_on,4,0,5,,,,,,,,0,,,78,75
54557,control_change,26,0,4,,,,,,,,10,7,71,,
54563,note_on,83,0,2,,,,,,,,1,,,71,0
54587,note_on,347,0,3,,,,,,,,1,,,62,0
54596,note_on,56,0,5,,,,,,,,0,,,78,0
54600,note_on,37,0,2,,,,,,,,1,,,69,18
54600,note_on,13,0,3,,,,,,,,1,,,66,58
54600,note_on,96,0,6,,,,,,,,0,,,54,74
54600,note_on,4,0,5,,,,,,,,0,,,74,79
54650,note_on,50,0,5,,,,,,,,0,,,74,0
54660,note_on,10,0,5,,,,,,,,0,,,71,73
54696,note_on,139,0,4,,,,,,,,10,,,42,0
54697,note_on,217,0,1,,,,,,,,1,,,78,0
54701,note_on,101,0,3,,,,,,,,1,,,66,0
54701,note_on,101,0,2,,,,,,,,1,,,69,0
54710,note_on,50,0,5,,,,,,,,0,,,71,0
54720,note_on,19,0,2,,,,,,,,1,,,68,26
54720,note_on,19,0,3,,,,,,,,1,,,61,55
54720,note_on,120,0,6,,,,,,,,0,,,53,79
54720,control_change,0,0,4,,,,,,,,10,7,73,,
54720,note_on,23,0,1,,,,,,,,1,,,80,8
54720,note_on,10,0,5,,,,,,,,0,,,73,70
54720,note_on,24,0,4,,,,,,,,10,,,41,66
54729,note_on,9,0,6,,,,,,,,0,,,54,0
54739,control_change,19,0,1,,,,,,,,1,7,101,,
54748,note_on,19,0,6,,,,,,,,0,,,53,0
54766,control_change,46,0,4,,,,,,,,10,7,74,,
54776,note_on,56,0,5,,,,,,,,0,,,73,0
54780,note_on,4,0,5,,,,,,,,0,,,71,70
54808,control_change,42,0,4,,,,,,,,10,7,76,,
54835,note_on,55,0,5,,,,,,,,0,,,71,0
54840,note_on,5,0,5,,,,,,,,0,,,73,70
54840,note_on,92,0,6,,,,,,,,0,,,53,74
54894,note_on,54,0,5,,,,,,,,0,,,73,0
54900,note_on,6,0,5,,,,,,,,0,,,80,66
54913,note_on,193,0,2,,,,,,,,1,,,68,0
54936,note_on,128,0,4,,,,,,,,10,,,41,0
54942,note_on,222,0,3,,,,,,,,1,,,61,0
54956,note_on,56,0,5,,,,,,,,0,,,80,0
54960,note_on,120,0,6,,,,,,,,0,,,49,64
54960,note_on,47,0,2,,,,,,,,1,,,73,18
54960,note_on,4,0,5,,,,,,,,0,,,83,117
54960,note_on,18,0,3,,,,,,,,1,,,65,61
54970,note_on,10,0,6,,,,,,,,0,,,53,0
54995,note_on,25,0,6,,,,,,,,0,,,49,0
55016,note_on,80,0,4,,,,,,,,10,,,37,77
55016,note_on,56,0,5,,,,,,,,0,,,83,0
55020,note_on,4,0,5,,,,,,,,0,,,80,75
55071,note_on,51,0,5,,,,,,,,0,,,80,0
55080,note_on,9,0,5,,,,,,,,0,,,73,66
55080,note_on,85,0,6,,,,,,,,0,,,49,77
55137,note_on,57,0,5,,,,,,,,0,,,73,0
55140,note_on,3,0,5,,,,,,,,0,,,71,66
55184,note_on,224,0,3,,,,,,,,1,,,65,0
55190,note_on,50,0,5,,,,,,,,0,,,71,0
55199,note_on,119,0,6,,,,,,,,0,,,49,0
55200,note_on,16,0,3,,,,,,,,1,,,66,39
55200,note_on,10,0,5,,,,,,,,0,,,73,66
55200,note_on,1,0,6,,,,,,,,0,,,54,81
55232,note_on,216,0,4,,,,,,,,10,,,37,0
55232,note_on,32,0,6,,,,,,,,0,,,54,0
55256,note_on,56,0,5,,,,,,,,0,,,73,0
55256,note_on,24,0,4,,,,,,,,10,,,42,72
55260,note_on,4,0,5,,,,,,,,0,,,71,63
55284,control_change,28,0,4,,,,,,,,10,7,75,,
55312,note_on,52,0,5,,,,,,,,0,,,71,0
55320,note_on,88,0,6,,,,,,,,0,,,54,77
55320,note_on,8,0,5,,,,,,,,0,,,73,75
55320,note_on,360,0,2,,,,,,,,1,,,73,0
55320,note_on,0,0,2,,,,,,,,1,,,74,30
55328,control_change,44,0,4,,,,,,,,10,7,73,,
55377,note_on,57,0,5,,,,,,,,0,,,73,0
55380,note_on,3,0,5,,,,,,,,0,,,78,70
55404,note_on,665,0,1,,,,,,,,1,,,80,0
55420,note_on,100,0,2,,,,,,,,1,,,74,0
55440,note_on,36,0,1,,,,,,,,1,,,78,22
55440,note_on,120,0,6,,,,,,,,0,,,42,89
55440,note_on,60,0,5,,,,,,,,0,,,81,110
55440,note_on,20,0,2,,,,,,,,1,,,73,35
55444,note_on,4,0,5,,,,,,,,0,,,78,0
55459,note_on,19,0,6,,,,,,,,0,,,54,0
55464,note_on,5,0,6,,,,,,,,0,,,42,0
55472,note_on,144,0,4,,,,,,,,10,,,42,0
55496,note_on,24,0,4,,,,,,,,10,,,30,72
55498,note_on,54,0,5,,,,,,,,0,,,81,0
55500,note_on,2,0,5,,,,,,,,0,,,78,75
55500,control_change,4,0,4,,,,,,,,10,7,72,,
55527,control_change,27,0,4,,,,,,,,10,7,70,,
55529,note_on,89,0,1,,,,,,,,1,,,78,0
55531,control_change,2,0,1,,,,,,,,1,7,99,,
55535,note_on,95,0,2,,,,,,,,1,,,73,0
55559,note_on,59,0,5,,,,,,,,0,,,78,0
55560,note_on,96,0,6,,,,,,,,0,,,42,89
55560,note_on,25,0,2,,,,,,,,1,,,71,22
55560,note_on,1,0,5,,,,,,,,0,,,73,66
55560,note_on,29,0,1,,,,,,,,1,,,77,18
55561,control_change,34,0,4,,,,,,,,10,7,69,,
55616,note_on,56,0,5,,,,,,,,0,,,73,0
55620,note_on,4,0,5,,,,,,,,0,,,71,85
55651,note_on,91,0,1,,,,,,,,1,,,77,0
55668,note_on,108,0,2,,,,,,,,1,,,71,0
55671,note_on,51,0,5,,,,,,,,0,,,71,0
55676,note_on,116,0,6,,,,,,,,0,,,42,0
55680,note_on,12,0,2,,,,,,,,1,,,73,22
55680,note_on,119,0,4,,,,,,,,10,,,42,89
55680,note_on,4,0,6,,,,,,,,0,,,54,89
55680,note_on,29,0,1,,,,,,,,1,,,78,11
55680,note_on,9,0,5,,,,,,,,0,,,73,82
55687,control_change,7,0,4,,,,,,,,10,7,67,,
55699,note_on,19,0,6,,,,,,,,0,,,54,0
55700,control_change,13,0,4,,,,,,,,10,7,66,,
55712,note_on,12,0,4,,,,,,,,10,,,30,0
55724,control_change,12,0,4,,,,,,,,10,7,64,,
55737,note_on,57,0,5,,,,,,,,0,,,73,0
55740,note_on,3,0,5,,,,,,,,0,,,71,55
55755,control_change,31,0,4,,,,,,,,10,7,63,,
55755,note_on,555,0,3,,,,,,,,1,,,66,0
55797,note_on,57,0,5,,,,,,,,0,,,71,0
55800,note_on,45,0,3,,,,,,,,1,,,57,48
55800,note_on,3,0,5,,,,,,,,0,,,73,63
55800,note_on,101,0,6,,,,,,,,0,,,54,51
55813,note_on,133,0,1,,,,,,,,1,,,78,0
55853,note_on,53,0,5,,,,,,,,0,,,73,0
55860,note_on,7,0,5,,,,,,,,0,,,78,96
55863,note_on,183,0,2,,,,,,,,1,,,73,0
55896,note_on,141,0,4,,,,,,,,10,,,42,0
55915,note_on,55,0,5,,,,,,,,0,,,78,0
55920,note_on,57,0,2,,,,,,,,1,,,69,14
55920,note_on,5,0,5,,,,,,,,0,,,81,96
55920,note_on,24,0,4,,,,,,,,10,,,43,79
55920,note_on,107,0,1,,,,,,,,1,,,73,22
55920,note_on,120,0,6,,,,,,,,0,,,55,66
55922,note_on,2,0,6,,,,,,,,0,,,54,0
55938,note_on,16,0,6,,,,,,,,0,,,55,0
55980,note_on,60,0,5,,,,,,,,0,,,78,66
55987,note_on,7,0,5,,,,,,,,0,,,81,0
56037,note_on,237,0,3,,,,,,,,1,,,57,0
56040,note_on,102,0,6,,,,,,,,0,,,55,79
56040,note_on,53,0,5,,,,,,,,0,,,73,58
56040,note_on,3,0,3,,,,,,,,1,,,59,55
56043,note_on,3,0,5,,,,,,,,0,,,78,0
56046,note_on,126,0,1,,,,,,,,1,,,73,0
56096,note_on,53,0,5,,,,,,,,0,,,73,0
56100,note_on,4,0,5,,,,,,,,0,,,71,58
56136,note_on,216,0,4,,,,,,,,10,,,43,0
56147,note_on,107,0,3,,,,,,,,1,,,59,0
56156,note_on,56,0,5,,,,,,,,0,,,71,0
56160,note_on,114,0,1,,,,,,,,1,,,75,18
56160,note_on,120,0,6,,,,,,,,0,,,54,89
56160,note_on,13,0,3,,,,,,,,1,,,60,48
56160,note_on,4,0,5,,,,,,,,0,,,72,82
56160,note_on,24,0,4,,,,,,,,10,,,42,74
56173,note_on,13,0,6,,,,,,,,0,,,55,0
56188,note_on,15,0,6,,,,,,,,0,,,54,0
56216,note_on,56,0,5,,,,,,,,0,,,72,0
56220,note_on,4,0,5,,,,,,,,0,,,71,66
56270,note_on,50,0,5,,,,,,,,0,,,71,0
56280,note_on,10,0,5,,,,,,,,0,,,72,82
56280,note_on,92,0,6,,,,,,,,0,,,54,96
56280,note_on,360,0,2,,,,,,,,1,,,69,0
56280,note_on,0,0,2,,,,,,,,1,,,71,30
56291,note_on,131,0,1,,,,,,,,1,,,75,0
56331,note_on,51,0,5,,,,,,,,0,,,72,0
56340,note_on,9,0,5,,,,,,,,0,,,78,85
56376,note_on,216,0,4,,,,,,,,10,,,42,0
56387,note_on,107,0,2,,,,,,,,1,,,71,0
56396,note_on,116,0,6,,,,,,,,0,,,54,0
56400,note_on,13,0,2,,,,,,,,1,,,69,30
56400,note_on,109,0,1,,,,,,,,1,,,76,18
56400,note_on,4,0,6,,,,,,,,0,,,52,96
56400,note_on,24,0,4,,,,,,,,10,,,40,74
56400,note_on,60,0,5,,,,,,,,0,,,81,82
56403,note_on,3,0,5,,,,,,,,0,,,78,0
56430,note_on,30,0,6,,,,,,,,0,,,52,0
56459,note_on,56,0,5,,,,,,,,0,,,81,0
56460,note_on,1,0,5,,,,,,,,0,,,78,82
56472,control_change,72,0,4,,,,,,,,10,7,64,,
56485,control_change,13,0,4,,,,,,,,10,7,65,,
56501,note_on,341,0,3,,,,,,,,1,,,60,0
56505,note_on,105,0,2,,,,,,,,1,,,69,0
56519,note_on,59,0,5,,,,,,,,0,,,78,0
56520,note_on,90,0,6,,,,,,,,0,,,52,79
56520,note_on,1,0,5,,,,,,,,0,,,72,79
56520,note_on,19,0,3,,,,,,,,1,,,64,48
56520,note_on,15,0,2,,,,,,,,1,,,67,48
56522,note_on,122,0,1,,,,,,,,1,,,76,0
56575,note_on,55,0,5,,,,,,,,0,,,72,0
56580,note_on,5,0,5,,,,,,,,0,,,69,63
56608,note_on,88,0,2,,,,,,,,1,,,67,0
56616,note_on,131,0,4,,,,,,,,10,,,40,0
56632,note_on,112,0,3,,,,,,,,1,,,64,0
56636,note_on,56,0,5,,,,,,,,0,,,69,0
56640,note_on,24,0,4,,,,,,,,10,,,39,72
56640,note_on,118,0,1,,,,,,,,1,,,78,8
56640,note_on,32,0,2,,,,,,,,1,,,66,14
56640,note_on,8,0,3,,,,,,,,1,,,59,48
56640,note_on,120,0,6,,,,,,,,0,,,51,81
56640,note_on,4,0,5,,,,,,,,0,,,71,75
56643,note_on,3,0,6,,,,,,,,0,,,52,0
56658,note_on,15,0,6,,,,,,,,0,,,51,0
56692,note_on,52,0,5,,,,,,,,0,,,71,0
56700,note_on,8,0,5,,,,,,,,0,,,69,49
56756,note_on,56,0,5,,,,,,,,0,,,69,0
56760,note_on,102,0,6,,,,,,,,0,,,51,77
56760,note_on,4,0,5,,,,,,,,0,,,71,70
56816,note_on,56,0,5,,,,,,,,0,,,71,0
56820,note_on,4,0,5,,,,,,,,0,,,78,75
56827,note_on,187,0,2,,,,,,,,1,,,66,0
56856,note_on,216,0,4,,,,,,,,10,,,39,0
56862,note_on,222,0,3,,,,,,,,1,,,59,0
56878,note_on,58,0,5,,,,,,,,0,,,78,0
56880,note_on,53,0,2,,,,,,,,1,,,71,39
56880,note_on,2,0,5,,,,,,,,0,,,81,90
56880,note_on,18,0,3,,,,,,,,1,,,63,48
56880,note_on,24,0,4,,,,,,,,10,,,35,72
56880,note_on,120,0,6,,,,,,,,0,,,47,79
56883,note_on,3,0,6,,,,,,,,0,,,51,0
56912,note_on,29,0,6,,,,,,,,0,,,47,0
56935,note_on,55,0,5,,,,,,,,0,,,81,0
56940,note_on,5,0,5,,,,,,,,0,,,78,82
56988,note_on,48,0,5,,,,,,,,0,,,78,0
57000,note_on,12,0,5,,,,,,,,0,,,71,63
57000,note_on,88,0,6,,,,,,,,0,,,47,77
57058,note_on,58,0,5,,,,,,,,0,,,71,0
57060,note_on,2,0,5,,,,,,,,0,,,69,58
57066,control_change,426,0,1,,,,,,,,1,7,98,,
57096,note_on,216,0,4,,,,,,,,10,,,35,0
57109,note_on,229,0,3,,,,,,,,1,,,63,0
57113,note_on,53,0,5,,,,,,,,0,,,69,0
57120,note_on,120,0,6,,,,,,,,0,,,52,77
57120,note_on,24,0,4,,,,,,,,10,,,40,79
57120,note_on,7,0,5,,,,,,,,0,,,71,93
57120,note_on,11,0,3,,,,,,,,1,,,64,61
57122,note_on,2,0,6,,,,,,,,0,,,47,0
57149,note_on,27,0,6,,,,,,,,0,,,52,0
57176,note_on,56,0,5,,,,,,,,0,,,71,0
57180,note_on,4,0,5,,,,,,,,0,,,69,66
57235,note_on,55,0,5,,,,,,,,0,,,69,0
57240,note_on,5,0,5,,,,,,,,0,,,71,79
57240,note_on,91,0,6,,,,,,,,0,,,52,69
57240,note_on,360,0,2,,,,,,,,1,,,71,0
57240,note_on,0,0,2,,,,,,,,1,,,72,30
57293,note_on,53,0,5,,,,,,,,0,,,71,0
57300,note_on,7,0,5,,,,,,,,0,,,78,88
57336,note_on,216,0,4,,,,,,,,10,,,40,0
57337,note_on,271,0,1,,,,,,,,1,,,78,0
57344,note_on,104,0,2,,,,,,,,1,,,72,0
57355,note_on,55,0,5,,,,,,,,0,,,78,0
57360,note_on,120,0,6,,,,,,,,0,,,52,0
57360,note_on,24,0,4,,,,,,,,10,,,28,72
57360,note_on,0,0,6,,,,,,,,0,,,40,74
57360,note_on,23,0,1,,,,,,,,1,,,76,14
57360,note_on,5,0,5,,,,,,,,0,,,81,96
57360,note_on,16,0,2,,,,,,,,1,,,71,35
57392,note_on,32,0,6,,,,,,,,0,,,40,0
57417,note_on,57,0,5,,,,,,,,0,,,81,0
57420,note_on,3,0,5,,,,,,,,0,,,78,82
57441,note_on,81,0,1,,,,,,,,1,,,76,0
57454,note_on,94,0,2,,,,,,,,1,,,71,0
57472,note_on,52,0,5,,,,,,,,0,,,78,0
57480,note_on,26,0,2,,,,,,,,1,,,69,30
57480,note_on,39,0,1,,,,,,,,1,,,75,14
57480,note_on,8,0,5,,,,,,,,0,,,71,75
57480,note_on,88,0,6,,,,,,,,0,,,40,74
57536,note_on,56,0,5,,,,,,,,0,,,71,0
57540,note_on,4,0,5,,,,,,,,0,,,69,73
57566,note_on,86,0,1,,,,,,,,1,,,75,0
57576,note_on,216,0,4,,,,,,,,10,,,28,0
57579,note_on,99,0,2,,,,,,,,1,,,69,0
57589,note_on,49,0,5,,,,,,,,0,,,69,0
57592,note_on,112,0,6,,,,,,,,0,,,40,0
57600,note_on,21,0,2,,,,,,,,1,,,71,43
57600,note_on,34,0,1,,,,,,,,1,,,76,30
57600,note_on,8,0,6,,,,,,,,0,,,52,69
57600,note_on,11,0,5,,,,,,,,0,,,71,79
57600,note_on,24,0,4,,,,,,,,10,,,40,72
57635,note_on,35,0,6,,,,,,,,0,,,52,0
57657,note_on,57,0,5,,,,,,,,0,,,71,0
57660,note_on,3,0,5,,,,,,,,0,,,69,66
57665,note_on,545,0,3,,,,,,,,1,,,64,0
57712,note_on,112,0,1,,,,,,,,1,,,76,0
57713,note_on,53,0,5,,,,,,,,0,,,69,0
57720,note_on,55,0,3,,,,,,,,1,,,64,48
57720,note_on,7,0,5,,,,,,,,0,,,71,73
57720,note_on,85,0,6,,,,,,,,0,,,52,89
57772,note_on,52,0,5,,,,,,,,0,,,71,0
57778,note_on,178,0,2,,,,,,,,1,,,71,0
57780,note_on,8,0,5,,,,,,,,0,,,76,90
57816,note_on,216,0,4,,,,,,,,10,,,40,0
57836,note_on,56,0,5,,,,,,,,0,,,76,0
57840,note_on,24,0,4,,,,,,,,10,,,42,69
57840,note_on,4,0,5,,,,,,,,0,,,79,73
57840,note_on,62,0,2,,,,,,,,1,,,69,30
57840,note_on,120,0,6,,,,,,,,0,,,54,89
57840,note_on,128,0,1,,,,,,,,1,,,71,30
57849,note_on,9,0,6,,,,,,,,0,,,52,0
57870,note_on,21,0,6,,,,,,,,0,,,54,0
57890,note_on,50,0,5,,,,,,,,0,,,79,0
57900,note_on,10,0,5,,,,,,,,0,,,76,90
57944,note_on,224,0,3,,,,,,,,1,,,64,0
57948,note_on,48,0,5,,,,,,,,0,,,76,0
57960,note_on,16,0,3,,,,,,,,1,,,63,61
57960,note_on,12,0,5,,,,,,,,0,,,71,63
57960,note_on,90,0,6,,,,,,,,0,,,54,89
57970,note_on,130,0,1,,,,,,,,1,,,71,0
58015,note_on,175,0,2,,,,,,,,1,,,69,0
58015,note_on,55,0,5,,,,,,,,0,,,71,0
58020,note_on,5,0,5,,,,,,,,0,,,69,70
58054,note_on,94,0,3,,,,,,,,1,,,63,0
58056,note_on,216,0,4,,,,,,,,10,,,42,0
58066,note_on,46,0,5,,,,,,,,0,,,69,0
58079,note_on,119,0,6,,,,,,,,0,,,54,0
58080,note_on,65,0,2,,,,,,,,1,,,67,30
58080,note_on,14,0,5,,,,,,,,0,,,71,79
58080,note_on,26,0,3,,,,,,,,1,,,64,51
58080,note_on,24,0,4,,,,,,,,10,,,40,72
58080,note_on,1,0,6,,,,,,,,0,,,52,72
58080,note_on,110,0,1,,,,,,,,1,,,73,35
58118,note_on,38,0,6,,,,,,,,0,,,52,0
58136,note_on,56,0,5,,,,,,,,0,,,71,0
58140,note_on,4,0,5,,,,,,,,0,,,69,70
58192,note_on,52,0,5,,,,,,,,0,,,69,0
58200,note_on,82,0,6,,,,,,,,0,,,52,74
58200,note_on,8,0,5,,,,,,,,0,,,71,75
58201,note_on,121,0,1,,,,,,,,1,,,73,0
58251,note_on,171,0,2,,,,,,,,1,,,67,0
58256,note_on,56,0,5,,,,,,,,0,,,71,0
58260,note_on,4,0,5,,,,,,,,0,,,76,66
58296,note_on,216,0,4,,,,,,,,10,,,40,0
58301,note_on,221,0,3,,,,,,,,1,,,64,0
58314,note_on,54,0,5,,,,,,,,0,,,76,0
58320,note_on,19,0,3,,,,,,,,1,,,59,51
58320,note_on,119,0,1,,,,,,,,1,,,74,22
58320,note_on,69,0,2,,,,,,,,1,,,66,39
58320,note_on,24,0,4,,,,,,,,10,,,38,96
58320,note_on,6,0,5,,,,,,,,0,,,79,93
58320,note_on,120,0,6,,,,,,,,0,,,50,84
58328,note_on,8,0,6,,,,,,,,0,,,52,0
58355,note_on,27,0,6,,,,,,,,0,,,50,0
58378,note_on,58,0,5,,,,,,,,0,,,79,0
58380,note_on,2,0,5,,,,,,,,0,,,76,75
58436,note_on,56,0,5,,,,,,,,0,,,76,0
58440,note_on,85,0,6,,,,,,,,0,,,50,79
58440,note_on,4,0,5,,,,,,,,0,,,71,82
58445,note_on,125,0,1,,,,,,,,1,,,74,0
58490,note_on,170,0,2,,,,,,,,1,,,66,0
58497,note_on,57,0,5,,,,,,,,0,,,71,0
58500,note_on,3,0,5,,,,,,,,0,,,69,75
58533,note_on,33,0,5,,,,,,,,0,,,69,0
58534,note_on,214,0,3,,,,,,,,1,,,59,0
58536,note_on,216,0,4,,,,,,,,10,,,38,0
58560,note_on,24,0,4,,,,,,,,10,,,37,77
58560,note_on,115,0,1,,,,,,,,1,,,76,18
58560,note_on,27,0,5,,,,,,,,0,,,70,102
58560,note_on,26,0,3,,,,,,,,1,,,61,55
58560,note_on,120,0,6,,,,,,,,0,,,49,77
58560,note_on,70,0,2,,,,,,,,1,,,64,26
58564,note_on,4,0,6,,,,,,,,0,,,50,0
58595,control_change,35,0,1,,,,,,,,1,7,96,,
58605,note_on,41,0,6,,,,,,,,0,,,49,0
58619,note_on,59,0,5,,,,,,,,0,,,70,0
58620,note_on,1,0,5,,,,,,,,0,,,76,79
58648,note_on,88,0,3,,,,,,,,1,,,61,0
58680,note_on,75,0,6,,,,,,,,0,,,49,77
58680,note_on,32,0,3,,,,,,,,1,,,64,51
58680,note_on,60,0,5,,,,,,,,0,,,79,85
58683,note_on,3,0,5,,,,,,,,0,,,76,0
58718,note_on,158,0,2,,,,,,,,1,,,64,0
58733,note_on,50,0,5,,,,,,,,0,,,79,0
58740,note_on,7,0,5,,,,,,,,0,,,78,73
58776,note_on,216,0,4,,,,,,,,10,,,37,0
58799,note_on,59,0,5,,,,,,,,0,,,78,0
58800,note_on,120,0,6,,,,,,,,0,,,50,79
58800,note_on,24,0,4,,,,,,,,10,,,38,89
58800,note_on,82,0,2,,,,,,,,1,,,71,30
58800,note_on,1,0,5,,,,,,,,0,,,79,96
58804,note_on,4,0,6,,,,,,,,0,,,49,0
58837,note_on,33,0,6,,,,,,,,0,,,50,0
58853,note_on,53,0,5,,,,,,,,0,,,79,0
58860,note_on,7,0,5,,,,,,,,0,,,76,75
58906,note_on,226,0,3,,,,,,,,1,,,64,0
58915,note_on,55,0,5,,,,,,,,0,,,76,0
58920,note_on,14,0,3,,,,,,,,1,,,62,55
58920,note_on,83,0,6,,,,,,,,0,,,50,74
58920,note_on,5,0,5,,,,,,,,0,,,71,66
58976,note_on,56,0,5,,,,,,,,0,,,71,0
58980,note_on,4,0,5,,,,,,,,0,,,76,85
58999,note_on,199,0,2,,,,,,,,1,,,71,0
59016,note_on,216,0,4,,,,,,,,10,,,38,0
59019,note_on,99,0,3,,,,,,,,1,,,62,0
59039,note_on,119,0,6,,,,,,,,0,,,50,0
59040,note_on,41,0,2,,,,,,,,1,,,73,22
59040,note_on,1,0,6,,,,,,,,0,,,49,84
59040,note_on,21,0,3,,,,,,,,1,,,64,48
59040,note_on,24,0,4,,,,,,,,10,,,37,86
59040,note_on,60,0,5,,,,,,,,0,,,70,82
59043,note_on,3,0,5,,,,,,,,0,,,76,0
59080,note_on,40,0,6,,,,,,,,0,,,49,0
59100,note_on,57,0,5,,,,,,,,0,,,70,0
59100,note_on,0,0,5,,,,,,,,0,,,76,90
59132,note_on,92,0,3,,,,,,,,1,,,64,0
59159,note_on,59,0,5,,,,,,,,0,,,76,0
59160,note_on,80,0,6,,,,,,,,0,,,49,81
59160,note_on,28,0,3,,,,,,,,1,,,67,51
59160,note_on,1,0,5,,,,,,,,0,,,79,98
59210,note_on,170,0,2,,,,,,,,1,,,73,0
59216,note_on,56,0,5,,,,,,,,0,,,79,0
59220,note_on,4,0,5,,,,,,,,0,,,78,82
59256,note_on,216,0,4,,,,,,,,10,,,37,0
59276,note_on,116,0,6,,,,,,,,0,,,49,0
59276,note_on,56,0,5,,,,,,,,0,,,78,0
59280,note_on,4,0,5,,,,,,,,0,,,79,98
59280,note_on,70,0,2,,,,,,,,1,,,74,43
59280,note_on,24,0,4,,,,,,,,10,,,35,61
59280,note_on,4,0,6,,,,,,,,0,,,47,79
59292,control_change,697,0,1,,,,,,,,1,7,95,,
59316,note_on,36,0,6,,,,,,,,0,,,47,0
59337,note_on,57,0,5,,,,,,,,0,,,79,0
59340,note_on,3,0,5,,,,,,,,0,,,76,90
59375,note_on,215,0,3,,,,,,,,1,,,67,0
59399,note_on,59,0,5,,,,,,,,0,,,76,0
59400,note_on,84,0,6,,,,,,,,0,,,47,72
59400,note_on,25,0,3,,,,,,,,1,,,71,51
59400,note_on,1,0,5,,,,,,,,0,,,71,73
59453,note_on,173,0,2,,,,,,,,1,,,74,0
59455,note_on,55,0,5,,,,,,,,0,,,71,0
59460,note_on,5,0,5,,,,,,,,0,,,76,90
59496,note_on,216,0,4,,,,,,,,10,,,35,0
59506,note_on,106,0,3,,,,,,,,1,,,71,0
59508,note_on,108,0,6,,,,,,,,0,,,47,0
59519,note_on,59,0,5,,,,,,,,0,,,76,0
59520,note_on,67,0,2,,,,,,,,1,,,73,22
59520,note_on,14,0,3,,,,,,,,1,,,64,48
59520,note_on,24,0,4,,,,,,,,10,,,34,72
59520,note_on,12,0,6,,,,,,,,0,,,46,84
59520,note_on,1,0,5,,,,,,,,0,,,73,82
59560,note_on,40,0,6,,,,,,,,0,,,46,0
59577,note_on,57,0,5,,,,,,,,0,,,73,0
59580,note_on,3,0,5,,,,,,,,0,,,71,66
59617,note_on,97,0,3,,,,,,,,1,,,64,0
59636,note_on,56,0,5,,,,,,,,0,,,71,0
59640,note_on,23,0,3,,,,,,,,1,,,61,35
59640,note_on,4,0,5,,,,,,,,0,,,73,85
59640,note_on,80,0,6,,,,,,,,0,,,46,89
59694,note_on,54,0,5,,,,,,,,0,,,73,0
59700,note_on,6,0,5,,,,,,,,0,,,76,96
59705,control_change,413,0,1,,,,,,,,1,7,93,,
59736,note_on,216,0,4,,,,,,,,10,,,34,0
59760,note_on,24,0,4,,,,,,,,10,,,37,61
59760,note_on,60,0,5,,,,,,,,0,,,79,93
59760,note_on,120,0,6,,,,,,,,0,,,49,77
59763,note_on,3,0,6,,,,,,,,0,,,46,0
59768,note_on,8,0,5,,,,,,,,0,,,76,0
59796,note_on,33,0,6,,,,,,,,0,,,49,0
59820,note_on,52,0,5,,,,,,,,0,,,76,75
59830,note_on,10,0,5,,,,,,,,0,,,79,0
59863,note_on,223,0,3,,,,,,,,1,,,61,0
59880,note_on,50,0,5,,,,,,,,0,,,73,93
59880,note_on,84,0,6,,,,,,,,0,,,49,89
59880,note_on,17,0,3,,,,,,,,1,,,64,51
59902,note_on,22,0,5,,,,,,,,0,,,76,0
59937,note_on,35,0,5,,,,,,,,0,,,73,0
59940,note_on,3,0,5,,,,,,,,0,,,71,79
59970,note_on,265,0,1,,,,,,,,1,,,76,0
59974,note_on,94,0,3,,,,,,,,1,,,64,0
59976,note_on,216,0,4,,,,,,,,10,,,37,0
59993,note_on,113,0,6,,,,,,,,0,,,49,0
59994,note_on,54,0,5,,,,,,,,0,,,71,0
60000,note_on,30,0,1,,,,,,,,1,,,73,11
60000,note_on,6,0,5,,,,,,,,0,,,73,96
60000,note_on,26,0,3,,,,,,,,1,,,66,22
60000,note_on,7,0,6,,,,,,,,0,,,46,86
60000,note_on,24,0,4,,,,,,,,10,,,34,81
60042,note_on,42,0,6,,,,,,,,0,,,46,0
60058,note_on,58,0,5,,,,,,,,0,,,73,0
60060,note_on,2,0,5,,,,,,,,0,,,71,73
60100,note_on,100,0,3,,,,,,,,1,,,66,0
60118,note_on,58,0,5,,,,,,,,0,,,71,0
60120,note_on,2,0,5,,,,,,,,0,,,73,93
60120,note_on,20,0,3,,,,,,,,1,,,54,30
60120,note_on,78,0,6,,,,,,,,0,,,46,81
60171,note_on,171,0,1,,,,,,,,1,,,73,0
60177,note_on,57,0,5,,,,,,,,0,,,73,0
60180,note_on,3,0,5,,,,,,,,0,,,76,85
60183,note_on,663,0,2,,,,,,,,1,,,73,0
60216,note_on,216,0,4,,,,,,,,10,,,34,0
60240,note_on,24,0,4,,,,,,,,10,,,30,81
60240,note_on,57,0,2,,,,,,,,1,,,61,30
60240,note_on,120,0,6,,,,,,,,0,,,42,117
60240,note_on,69,0,1,,,,,,,,1,,,70,14
60240,note_on,60,0,5,,,,,,,,0,,,78,82
60246,note_on,6,0,5,,,,,,,,0,,,76,0
60248,note_on,8,0,6,,,,,,,,0,,,46,0
60292,note_on,44,0,6,,,,,,,,0,,,42,0
60296,note_on,50,0,5,,,,,,,,0,,,78,0
60300,note_on,4,0,5,,,,,,,,0,,,76,79
60344,note_on,224,0,3,,,,,,,,1,,,54,0
60355,note_on,55,0,5,,,,,,,,0,,,76,0
60360,note_on,68,0,6,,,,,,,,0,,,42,89
60360,note_on,16,0,3,,,,,,,,1,,,58,39
60360,note_on,5,0,5,,,,,,,,0,,,73,85
60400,note_on,160,0,1,,,,,,,,1,,,70,0
60414,note_on,54,0,5,,,,,,,,0,,,73,0
60420,note_on,6,0,5,,,,,,,,0,,,70,88
60431,note_on,191,0,2,,,,,,,,1,,,61,0
60454,note_on,94,0,3,,,,,,,,1,,,58,0
60456,note_on,216,0,4,,,,,,,,10,,,30,0
60460,note_on,40,0,5,,,,,,,,0,,,70,0
60463,note_on,103,0,6,,,,,,,,0,,,42,0
60480,note_on,17,0,6,,,,,,,,0,,,47,84
60480,note_on,24,0,4,,,,,,,,10,,,35,66
60480,note_on,49,0,2,,,,,,,,1,,,62,30
60480,note_on,80,0,1,,,,,,,,1,,,66,14
60480,note_on,26,0,3,,,,,,,,1,,,59,30
60480,note_on,20,0,5,,,,,,,,0,,,66,75
60535,note_on,55,0,6,,,,,,,,0,,,47,0
60539,note_on,59,0,5,,,,,,,,0,,,66,0
60540,note_on,1,0,5,,,,,,,,0,,,73,79
60567,note_on,87,0,3,,,,,,,,1,,,59,0
60594,note_on,54,0,5,,,,,,,,0,,,73,0
60600,note_on,6,0,5,,,,,,,,0,,,74,82
60600,note_on,65,0,6,,,,,,,,0,,,47,79
60600,note_on,33,0,3,,,,,,,,1,,,62,55
60657,note_on,57,0,5,,,,,,,,0,,,74,0
60660,note_on,3,0,5,,,,,,,,0,,,76,79
60696,note_on,216,0,4,,,,,,,,10,,,35,0
60698,note_on,98,0,3,,,,,,,,1,,,62,0
60716,note_on,116,0,6,,,,,,,,0,,,47,0
60716,note_on,56,0,5,,,,,,,,0,,,76,0
60720,note_on,22,0,3,,,,,,,,1,,,66,39
60720,note_on,4,0,6,,,,,,,,0,,,49,81
60720,note_on,24,0,4,,,,,,,,10,,,37,66
60720,note_on,4,0,5,,,,,,,,0,,,74,85
60757,note_on,37,0,6,,,,,,,,0,,,49,0
60780,note_on,60,0,5,,,,,,,,0,,,73,75
60784,note_on,4,0,5,,,,,,,,0,,,74,0
60822,note_on,102,0,3,,,,,,,,1,,,66,0
60828,note_on,44,0,5,,,,,,,,0,,,73,0
60840,note_on,18,0,3,,,,,,,,1,,,70,35
60840,note_on,12,0,5,,,,,,,,0,,,66,73
60840,note_on,83,0,6,,,,,,,,0,,,49,89
60895,note_on,55,0,5,,,,,,,,0,,,66,0
60900,note_on,5,0,5,,,,,,,,0,,,73,73
60915,note_on,435,0,2,,,,,,,,1,,,62,0
60936,note_on,216,0,4,,,,,,,,10,,,37,0
60947,note_on,107,0,3,,,,,,,,1,,,70,0
60957,note_on,57,0,5,,,,,,,,0,,,73,0
60960,note_on,120,0,6,,,,,,,,0,,,50,77
60960,note_on,3,0,5,,,,,,,,0,,,66,82
60960,note_on,24,0,4,,,,,,,,10,,,38,74
60960,note_on,13,0,3,,,,,,,,1,,,71,69
60960,note_on,45,0,2,,,,,,,,1,,,74,18
60969,note_on,9,0,6,,,,,,,,0,,,49,0
60997,note_on,28,0,6,,,,,,,,0,,,50,0
61016,note_on,56,0,5,,,,,,,,0,,,66,0
61020,note_on,4,0,5,,,,,,,,0,,,71,73
61041,note_on,81,0,3,,,,,,,,1,,,71,0
61076,note_on,56,0,5,,,,,,,,0,,,71,0
61080,note_on,83,0,6,,,,,,,,0,,,50,86
61080,note_on,39,0,3,,,,,,,,1,,,66,58
61080,note_on,4,0,5,,,,,,,,0,,,74,85
61140,note_on,60,0,5,,,,,,,,0,,,76,102
61143,note_on,3,0,5,,,,,,,,0,,,74,0
61176,note_on,216,0,4,,,,,,,,10,,,38,0
61195,note_on,52,0,5,,,,,,,,0,,,76,0
61200,note_on,24,0,4,,,,,,,,10,,,40,72
61200,note_on,120,0,6,,,,,,,,0,,,52,79
61200,note_on,5,0,5,,,,,,,,0,,,74,63
61202,note_on,2,0,6,,,,,,,,0,,,50,0
61246,note_on,44,0,6,,,,,,,,0,,,52,0
61256,note_on,56,0,5,,,,,,,,0,,,74,0
61260,note_on,4,0,5,,,,,,,,0,,,71,79
61315,note_on,55,0,5,,,,,,,,0,,,71,0
61315,note_on,235,0,3,,,,,,,,1,,,66,0
61320,note_on,5,0,3,,,,,,,,1,,,68,58
61320,note_on,74,0,6,,,,,,,,0,,,52,74
61320,note_on,5,0,5,,,,,,,,0,,,66,75
61373,note_on,53,0,5,,,,,,,,0,,,66,0
61380,note_on,7,0,5,,,,,,,,0,,,71,73
61398,note_on,438,0,2,,,,,,,,1,,,74,0
61407,note_on,27,0,5,,,,,,,,0,,,71,0
61416,note_on,216,0,4,,,,,,,,10,,,40,0
61420,note_on,100,0,3,,,,,,,,1,,,68,0
61440,note_on,120,0,6,,,,,,,,0,,,54,72
61440,note_on,20,0,3,,,,,,,,1,,,69,39
61440,note_on,33,0,5,,,,,,,,0,,,69,75
61440,note_on,24,0,4,,,,,,,,10,,,42,55
61440,note_on,42,0,2,,,,,,,,1,,,72,30
61460,note_on,20,0,6,,,,,,,,0,,,52,0
61477,note_on,17,0,6,,,,,,,,0,,,54,0
61497,note_on,57,0,5,,,,,,,,0,,,69,0
61500,note_on,3,0,5,,,,,,,,0,,,67,70
61529,note_on,89,0,3,,,,,,,,1,,,69,0
61552,note_on,52,0,5,,,,,,,,0,,,67,0
61560,note_on,31,0,3,,,,,,,,1,,,57,48
61560,note_on,83,0,6,,,,,,,,0,,,54,77
61560,note_on,8,0,5,,,,,,,,0,,,69,82
61610,note_on,50,0,5,,,,,,,,0,,,69,0
61620,note_on,10,0,5,,,,,,,,0,,,72,85
61641,note_on,201,0,2,,,,,,,,1,,,72,0
61656,note_on,216,0,4,,,,,,,,10,,,42,0
61656,note_on,96,0,3,,,,,,,,1,,,57,0
61679,note_on,59,0,5,,,,,,,,0,,,72,0
61680,note_on,1,0,5,,,,,,,,0,,,75,75
61680,note_on,39,0,2,,,,,,,,1,,,71,30
61680,note_on,120,0,6,,,,,,,,0,,,47,79
61680,note_on,24,0,4,,,,,,,,10,,,35,64
61680,note_on,24,0,3,,,,,,,,1,,,63,58
61693,note_on,13,0,6,,,,,,,,0,,,54,0
61715,note_on,22,0,6,,,,,,,,0,,,47,0
61738,note_on,58,0,5,,,,,,,,0,,,75,0
61740,note_on,2,0,5,,,,,,,,0,,,72,75
61779,note_on,99,0,3,,,,,,,,1,,,63,0
61797,note_on,57,0,5,,,,,,,,0,,,72,0
61800,note_on,21,0,3,,,,,,,,1,,,66,58
61800,note_on,85,0,6,,,,,,,,0,,,47,77
61800,note_on,3,0,5,,,,,,,,0,,,69,82
61853,note_on,53,0,5,,,,,,,,0,,,69,0
61860,note_on,7,0,5,,,,,,,,0,,,66,88
61896,note_on,216,0,4,,,,,,,,10,,,35,0
61907,note_on,1427,0,1,,,,,,,,1,,,66,0
61910,note_on,110,0,6,,,,,,,,0,,,47,0
61910,note_on,50,0,5,,,,,,,,0,,,66,0
61913,note_on,113,0,3,,,,,,,,1,,,66,0
61920,note_on,10,0,5,,,,,,,,0,,,67,82
61920,note_on,13,0,1,,,,,,,,1,,,64,14
61920,note_on,7,0,3,,,,,,,,1,,,67,61
61920,note_on,24,0,4,,,,,,,,10,,,40,69
61920,note_on,10,0,6,,,,,,,,0,,,52,96
61959,note_on,39,0,6,,,,,,,,0,,,52,0
61979,note_on,59,0,5,,,,,,,,0,,,67,0
61980,note_on,1,0,5,,,,,,,,0,,,66,88
62025,note_on,45,0,5,,,,,,,,0,,,66,0
62032,control_change,112,0,1,,,,,,,,1,7,92,,
62040,note_on,81,0,6,,,,,,,,0,,,52,89
62040,note_on,15,0,5,,,,,,,,0,,,67,75
62092,note_on,52,0,5,,,,,,,,0,,,67,0
62100,note_on,8,0,5,,,,,,,,0,,,71,79
62131,note_on,451,0,2,,,,,,,,1,,,71,0
62136,note_on,216,0,4,,,,,,,,10,,,40,0
62160,note_on,24,0,4,,,,,,,,10,,,43,66
62160,note_on,120,0,6,,,,,,,,0,,,55,89
62160,note_on,29,0,2,,,,,,,,1,,,71,30
62160,note_on,60,0,5,,,,,,,,0,,,71,0
62160,note_on,0,0,5,,,,,,,,0,,,76,85
62166,note_on,6,0,6,,,,,,,,0,,,52,0
62200,note_on,34,0,6,,,,,,,,0,,,55,0
62220,note_on,60,0,5,,,,,,,,0,,,71,63
62223,note_on,3,0,5,,,,,,,,0,,,76,0
62276,note_on,53,0,5,,,,,,,,0,,,71,0
62280,note_on,80,0,6,,,,,,,,0,,,55,74
62280,note_on,4,0,5,,,,,,,,0,,,67,75
62337,note_on,57,0,5,,,,,,,,0,,,67,0
62340,note_on,3,0,5,,,,,,,,0,,,66,75
62376,note_on,216,0,4,,,,,,,,10,,,43,0
62390,note_on,230,0,2,,,,,,,,1,,,71,0
62397,note_on,57,0,5,,,,,,,,0,,,66,0
62400,note_on,24,0,4,,,,,,,,10,,,45,77
62400,note_on,120,0,6,,,,,,,,0,,,57,96
62400,note_on,3,0,5,,,,,,,,0,,,67,96
62400,note_on,10,0,2,,,,,,,,1,,,69,22
62403,note_on,3,0,6,,,,,,,,0,,,55,0
62440,note_on,37,0,6,,,,,,,,0,,,57,0
62458,note_on,58,0,5,,,,,,,,0,,,67,0
62460,note_on,2,0,5,,,,,,,,0,,,66,66
62493,note_on,573,0,3,,,,,,,,1,,,67,0
62516,note_on,56,0,5,,,,,,,,0,,,66,0
62520,note_on,27,0,3,,,,,,,,1,,,57,51
62520,note_on,4,0,5,,,,,,,,0,,,67,88
62520,note_on,80,0,6,,,,,,,,0,,,57,84
62579,note_on,59,0,5,,,,,,,,0,,,67,0
62580,note_on,1,0,5,,,,,,,,0,,,71,79
62616,note_on,216,0,4,,,,,,,,10,,,45,0
62620,note_on,100,0,3,,,,,,,,1,,,57,0
62636,note_on,56,0,5,,,,,,,,0,,,71,0
62640,note_on,20,0,3,,,,,,,,1,,,61,55
62640,note_on,24,0,4,,,,,,,,10,,,33,66
62640,note_on,120,0,6,,,,,,,,0,,,45,99
62640,note_on,4,0,5,,,,,,,,0,,,73,66
62653,note_on,13,0,6,,,,,,,,0,,,57,0
62677,note_on,24,0,6,,,,,,,,0,,,45,0
62695,note_on,55,0,5,,,,,,,,0,,,73,0
62700,note_on,5,0,5,,,,,,,,0,,,71,96
62747,note_on,107,0,3,,,,,,,,1,,,61,0
62757,note_on,57,0,5,,,,,,,,0,,,71,0
62760,note_on,83,0,6,,,,,,,,0,,,45,74
62760,note_on,13,0,3,,,,,,,,1,,,64,61
62760,note_on,3,0,5,,,,,,,,0,,,67,90
62817,note_on,57,0,5,,,,,,,,0,,,67,0
62820,note_on,3,0,5,,,,,,,,0,,,64,85
62856,note_on,216,0,4,,,,,,,,10,,,33,0
62874,note_on,114,0,3,,,,,,,,1,,,64,0
62876,note_on,116,0,6,,,,,,,,0,,,45,0
62876,note_on,844,0,1,,,,,,,,1,,,64,0
62876,note_on,56,0,5,,,,,,,,0,,,64,0
62880,note_on,4,0,5,,,,,,,,0,,,66,70
62880,note_on,24,0,4,,,,,,,,10,,,38,84
62880,note_on,4,0,1,,,,,,,,1,,,62,35
62880,note_on,6,0,3,,,,,,,,1,,,66,55
62880,note_on,4,0,6,,,,,,,,0,,,50,81
62925,note_on,45,0,6,,,,,,,,0,,,50,0
62936,note_on,56,0,5,,,,,,,,0,,,66,0
62940,note_on,4,0,5,,,,,,,,0,,,64,90
62996,note_on,56,0,5,,,,,,,,0,,,64,0
63000,note_on,4,0,5,,,,,,,,0,,,66,82
63000,note_on,75,0,6,,,,,,,,0,,,50,74
63056,note_on,56,0,5,,,,,,,,0,,,66,0
63060,note_on,4,0,5,,,,,,,,0,,,69,82
63096,note_on,216,0,4,,,,,,,,10,,,38,0
63120,note_on,60,0,5,,,,,,,,0,,,74,85
63120,note_on,120,0,6,,,,,,,,0,,,54,96
63120,note_on,24,0,4,,,,,,,,10,,,42,102
63124,note_on,4,0,6,,,,,,,,0,,,50,0
63128,note_on,8,0,5,,,,,,,,0,,,69,0
63153,note_on,29,0,6,,,,,,,,0,,,54,0
63180,note_on,52,0,5,,,,,,,,0,,,74,0
63180,note_on,0,0,5,,,,,,,,0,,,69,82
63240,note_on,87,0,6,,,,,,,,0,,,54,72
63240,note_on,60,0,5,,,,,,,,0,,,69,0
63240,note_on,0,0,5,,,,,,,,0,,,66,96
63297,note_on,57,0,5,,,,,,,,0,,,66,0
63300,note_on,3,0,5,,,,,,,,0,,,72,75
63304,note_on,904,0,2,,,,,,,,1,,,69,0
63336,note_on,216,0,4,,,,,,,,10,,,42,0
63360,note_on,60,0,5,,,,,,,,0,,,62,66
63360,note_on,24,0,4,,,,,,,,10,,,43,77
63360,note_on,120,0,6,,,,,,,,0,,,55,89
63360,note_on,56,0,2,,,,,,,,1,,,71,39
63361,note_on,1,0,5,,,,,,,,0,,,72,0
63366,note_on,6,0,6,,,,,,,,0,,,54,0
63392,note_on,26,0,6,,,,,,,,0,,,55,0
63417,note_on,56,0,5,,,,,,,,0,,,62,0
63420,note_on,3,0,5,,,,,,,,0,,,66,85
63454,note_on,574,0,3,,,,,,,,1,,,66,0
63480,note_on,60,0,5,,,,,,,,0,,,71,90
63480,note_on,26,0,3,,,,,,,,1,,,55,43
63480,note_on,88,0,6,,,,,,,,0,,,55,79
63481,note_on,1,0,5,,,,,,,,0,,,66,0
63540,note_on,59,0,5,,,,,,,,0,,,70,82
63541,note_on,1,0,5,,,,,,,,0,,,71,0
63576,note_on,216,0,4,,,,,,,,10,,,43,0
63584,note_on,104,0,3,,,,,,,,1,,,55,0
63586,note_on,226,0,2,,,,,,,,1,,,71,0
63600,note_on,16,0,3,,,,,,,,1,,,59,48
63600,note_on,14,0,2,,,,,,,,1,,,69,18
63600,note_on,24,0,4,,,,,,,,10,,,42,105
63600,note_on,120,0,6,,,,,,,,0,,,54,66
63600,note_on,59,0,5,,,,,,,,0,,,71,82
63604,note_on,4,0,5,,,,,,,,0,,,70,0
63621,note_on,21,0,6,,,,,,,,0,,,55,0
63632,note_on,11,0,6,,,,,,,,0,,,54,0
63657,note_on,53,0,5,,,,,,,,0,,,71,0
63660,note_on,3,0,5,,,,,,,,0,,,66,82
63707,note_on,107,0,3,,,,,,,,1,,,59,0
63717,note_on,57,0,5,,,,,,,,0,,,66,0
63720,note_on,13,0,3,,,,,,,,1,,,62,58
63720,note_on,88,0,6,,,,,,,,0,,,54,84
63720,note_on,3,0,5,,,,,,,,0,,,62,79
63779,note_on,59,0,5,,,,,,,,0,,,62,0
63780,note_on,1,0,5,,,,,,,,0,,,66,75
63812,note_on,212,0,2,,,,,,,,1,,,69,0
63816,note_on,216,0,4,,,,,,,,10,,,42,0
63819,note_on,99,0,3,,,,,,,,1,,,62,0
63822,note_on,42,0,5,,,,,,,,0,,,66,0
63823,note_on,943,0,1,,,,,,,,1,,,62,0
63840,note_on,24,0,4,,,,,,,,10,,,43,81
63840,note_on,21,0,3,,,,,,,,1,,,55,55
63840,note_on,28,0,2,,,,,,,,1,,,67,30
63840,note_on,17,0,1,,,,,,,,1,,,64,30
63840,note_on,18,0,5,,,,,,,,0,,,64,75
63840,note_on,120,0,6,,,,,,,,0,,,55,79
63855,note_on,15,0,6,,,,,,,,0,,,54,0
63885,note_on,30,0,6,,,,,,,,0,,,55,0
63891,note_on,51,0,5,,,,,,,,0,,,64,0
63900,note_on,9,0,5,,,,,,,,0,,,62,75
63935,note_on,95,0,3,,,,,,,,1,,,55,0
63953,note_on,53,0,5,,,,,,,,0,,,62,0
63960,note_on,25,0,3,,,,,,,,1,,,67,66
63960,note_on,7,0,5,,,,,,,,0,,,64,75
63960,note_on,75,0,6,,,,,,,,0,,,55,74
64002,note_on,42,0,5,,,,,,,,0,,,64,0
64020,note_on,18,0,5,,,,,,,,0,,,71,58
64054,note_on,214,0,1,,,,,,,,1,,,64,0
64056,note_on,216,0,4,,,,,,,,10,,,43,0
64079,note_on,59,0,5,,,,,,,,0,,,71,0
64080,note_on,1,0,5,,,,,,,,0,,,73,82
64080,note_on,120,0,6,,,,,,,,0,,,52,84
64080,note_on,24,0,4,,,,,,,,10,,,40,79
64080,note_on,26,0,1,,,,,,,,1,,,67,43
64084,note_on,4,0,6,,,,,,,,0,,,55,0
64118,note_on,34,0,6,,,,,,,,0,,,52,0
64137,note_on,57,0,5,,,,,,,,0,,,73,0
64140,note_on,3,0,5,,,,,,,,0,,,71,90
64183,note_on,223,0,3,,,,,,,,1,,,67,0
64196,note_on,56,0,5,,,,,,,,0,,,71,0
64200,note_on,17,0,3,,,,,,,,1,,,64,30
64200,note_on,4,0,5,,,,,,,,0,,,67,88
64200,note_on,82,0,6,,,,,,,,0,,,52,58
64256,note_on,56,0,5,,,,,,,,0,,,67,0
64260,note_on,4,0,5,,,,,,,,0,,,71,63
64279,note_on,199,0,1,,,,,,,,1,,,67,0
64288,note_on,28,0,5,,,,,,,,0,,,71,0
64296,note_on,216,0,4,,,,,,,,10,,,40,0
64318,note_on,478,0,2,,,,,,,,1,,,67,0
64320,note_on,41,0,1,,,,,,,,1,,,61,22
64320,note_on,24,0,4,,,,,,,,10,,,42,81
64320,note_on,120,0,6,,,,,,,,0,,,54,64
64320,note_on,2,0,2,,,,,,,,1,,,66,14
64320,note_on,32,0,5,,,,,,,,0,,,64,70
64324,note_on,4,0,6,,,,,,,,0,,,52,0
64353,note_on,29,0,6,,,,,,,,0,,,54,0
64375,note_on,55,0,5,,,,,,,,0,,,64,0
64380,note_on,5,0,5,,,,,,,,0,,,62,73
64431,note_on,231,0,3,,,,,,,,1,,,64,0
64432,note_on,52,0,5,,,,,,,,0,,,62,0
64440,note_on,87,0,6,,,,,,,,0,,,54,77
64440,note_on,8,0,5,,,,,,,,0,,,64,79
64440,note_on,9,0,3,,,,,,,,1,,,54,48
64498,note_on,58,0,5,,,,,,,,0,,,64,0
64500,note_on,2,0,5,,,,,,,,0,,,70,58
64536,note_on,216,0,4,,,,,,,,10,,,42,0
64539,note_on,99,0,3,,,,,,,,1,,,54,0
64560,note_on,120,0,6,,,,,,,,0,,,42,89
64560,note_on,24,0,4,,,,,,,,10,,,30,64
64560,note_on,0,0,5,,,,,,,,0,,,73,88
64560,note_on,60,0,5,,,,,,,,0,,,70,0
64560,note_on,21,0,3,,,,,,,,1,,,58,48
64566,note_on,6,0,6,,,,,,,,0,,,54,0
64585,control_change,25,0,4,,,,,,,,10,7,64,,
64599,note_on,33,0,6,,,,,,,,0,,,42,0
64620,note_on,60,0,5,,,,,,,,0,,,70,70
64634,note_on,14,0,5,,,,,,,,0,,,73,0
64659,control_change,74,0,4,,,,,,,,10,7,65,,
64669,note_on,109,0,3,,,,,,,,1,,,58,0
64680,note_on,11,0,3,,,,,,,,1,,,61,58
64680,note_on,81,0,6,,,,,,,,0,,,42,81
64680,note_on,46,0,5,,,,,,,,0,,,70,0
64680,note_on,0,0,5,,,,,,,,0,,,64,79
64735,note_on,55,0,5,,,,,,,,0,,,64,0
64740,note_on,5,0,5,,,,,,,,0,,,61,88
64766,note_on,86,0,6,,,,,,,,0,,,42,0
64771,control_change,451,0,1,,,,,,,,1,7,90,,
64776,note_on,117,0,4,,,,,,,,10,,,30,0
64786,note_on,15,0,1,,,,,,,,1,,,61,0
64795,note_on,55,0,5,,,,,,,,0,,,61,0
64800,note_on,24,0,4,,,,,,,,10,,,30,86
64800,note_on,14,0,1,,,,,,,,1,,,62,26
64800,note_on,5,0,5,,,,,,,,0,,,62,85
64800,note_on,120,0,3,,,,,,,,1,,,54,66
64800,note_on,34,0,6,,,,,,,,0,,,42,91
64802,note_on,2,0,3,,,,,,,,1,,,61,0
64803,control_change,3,0,4,,,,,,,,10,7,67,,
64819,control_change,16,0,4,,,,,,,,10,7,73,,
64829,control_change,10,0,4,,,,,,,,10,7,68,,
64835,note_on,35,0,6,,,,,,,,0,,,42,0
64846,control_change,17,0,4,,,,,,,,10,7,70,,
64854,note_on,54,0,5,,,,,,,,0,,,62,0
64860,note_on,6,0,5,,,,,,,,0,,,61,88
64878,control_change,32,0,4,,,,,,,,10,7,74,,
64884,control_change,6,0,4,,,,,,,,10,7,71,,
64892,note_on,90,0,3,,,,,,,,1,,,54,0
64910,note_on,50,0,5,,,,,,,,0,,,61,0
64920,note_on,10,0,5,,,,,,,,0,,,62,79
64920,note_on,28,0,3,,,,,,,,1,,,59,55
64920,note_on,85,0,6,,,,,,,,0,,,42,84
64977,note_on,57,0,5,,,,,,,,0,,,62,0
64980,note_on,3,0,5,,,,,,,,0,,,66,82
65016,note_on,132,0,4,,,,,,,,10,,,30,0
65034,note_on,114,0,3,,,,,,,,1,,,59,0
65035,note_on,55,0,5,,,,,,,,0,,,66,0
65040,note_on,6,0,3,,,,,,,,1,,,62,43
65040,note_on,5,0,5,,,,,,,,0,,,71,90
65040,note_on,24,0,4,,,,,,,,10,,,42,105
65040,note_on,120,0,6,,,,,,,,0,,,54,69
65054,note_on,14,0,6,,,,,,,,0,,,42,0
65073,note_on,19,0,6,,,,,,,,0,,,54,0
65100,note_on,60,0,5,,,,,,,,0,,,66,73
65104,note_on,4,0,5,,,,,,,,0,,,71,0
65155,note_on,115,0,3,,,,,,,,1,,,62,0
65160,note_on,5,0,3,,,,,,,,1,,,66,55
65160,note_on,87,0,6,,,,,,,,0,,,54,117
65160,note_on,56,0,5,,,,,,,,0,,,62,73
65163,note_on,3,0,5,,,,,,,,0,,,66,0
65214,note_on,51,0,5,,,,,,,,0,,,62,0
65220,note_on,6,0,5,,,,,,,,0,,,61,70
65248,note_on,928,0,2,,,,,,,,1,,,66,0
65256,note_on,216,0,4,,,,,,,,10,,,42,0
65261,note_on,101,0,6,,,,,,,,0,,,54,0
65271,note_on,111,0,3,,,,,,,,1,,,66,0
65272,note_on,52,0,5,,,,,,,,0,,,61,0
65280,note_on,24,0,4,,,,,,,,10,,,42,127
65280,control_change,0,0,4,,,,,,,,10,7,76,,
65280,note_on,8,0,5,,,,,,,,0,,,62,73
65280,note_on,32,0,2,,,,,,,,1,,,68,35
65280,note_on,9,0,3,,,,,,,,1,,,62,30
65280,note_on,19,0,6,,,,,,,,0,,,54,111
65315,control_change,35,0,4,,,,,,,,10,7,77,,
65317,note_on,37,0,6,,,,,,,,0,,,54,0
65337,note_on,57,0,5,,,,,,,,0,,,62,0
65340,note_on,3,0,5,,,,,,,,0,,,66,82
65388,note_on,108,0,3,,,,,,,,1,,,62,0
65396,note_on,56,0,5,,,,,,,,0,,,66,0
65400,note_on,12,0,3,,,,,,,,1,,,59,61
65400,note_on,4,0,5,,,,,,,,0,,,71,82
65400,note_on,83,0,6,,,,,,,,0,,,54,84
65460,note_on,60,0,5,,,,,,,,0,,,71,0
65460,note_on,0,0,5,,,,,,,,0,,,70,73
65483,control_change,683,0,1,,,,,,,,1,7,91,,
65496,control_change,13,0,1,,,,,,,,1,7,92,,
65496,note_on,181,0,4,,,,,,,,10,,,42,0
65504,control_change,8,0,1,,,,,,,,1,7,94,,
65510,note_on,110,0,3,,,,,,,,1,,,59,0
65520,note_on,60,0,5,,,,,,,,0,,,71,85
65520,note_on,10,0,3,,,,,,,,1,,,56,30
65520,note_on,120,0,6,,,,,,,,0,,,54,0
65520,note_on,0,0,6,,,,,,,,0,,,42,117
65524,note_on,4,0,5,,,,,,,,0,,,70,0
65580,note_on,56,0,5,,,,,,,,0,,,66,75
65581,note_on,61,0,6,,,,,,,,0,,,42,0
65586,note_on,6,0,5,,,,,,,,0,,,71,0
65613,note_on,117,0,4,,,,,,,,10,,,30,99
65618,control_change,5,0,4,,,,,,,,10,7,79,,
65627,control_change,9,0,4,,,,,,,,10,7,86,,
65634,note_on,114,0,3,,,,,,,,1,,,56,0
65635,note_on,49,0,5,,,,,,,,0,,,66,0
65640,note_on,5,0,5,,,,,,,,0,,,62,79
65640,note_on,59,0,6,,,,,,,,0,,,42,79
65640,note_on,6,0,3,,,,,,,,1,,,59,51
65648,control_change,144,0,1,,,,,,,,1,7,95,,
65651,control_change,24,0,4,,,,,,,,10,7,80,,
65654,control_change,3,0,4,,,,,,,,10,7,88,,
65683,control_change,29,0,4,,,,,,,,10,7,82,,
65697,note_on,57,0,5,,,,,,,,0,,,62,0
65698,control_change,50,0,1,,,,,,,,1,7,97,,
65700,note_on,3,0,5,,,,,,,,0,,,66,82
65701,control_change,18,0,4,,,,,,,,10,7,89,,
65702,control_change,1,0,4,,,,,,,,10,7,83,,
65725,note_on,85,0,6,,,,,,,,0,,,42,0
65726,control_change,24,0,4,,,,,,,,10,7,85,,
65745,note_on,465,0,2,,,,,,,,1,,,68,0
65746,note_on,46,0,5,,,,,,,,0,,,66,0
65751,note_on,111,0,3,,,,,,,,1,,,59,0
65756,note_on,58,0,1,,,,,,,,1,,,62,0
65760,note_on,4,0,1,,,,,,,,1,,,61,39
65760,note_on,14,0,5,,,,,,,,0,,,61,73
65760,note_on,9,0,3,,,,,,,,1,,,61,55
65760,note_on,15,0,2,,,,,,,,1,,,66,30
65760,note_on,35,0,6,,,,,,,,0,,,42,127
65804,note_on,44,0,6,,,,,,,,0,,,42,0
65820,note_on,60,0,5,,,,,,,,0,,,61,0
65820,note_on,0,0,5,,,,,,,,0,,,64,82
65821,control_change,61,0,1,,,,,,,,1,7,98,,
65829,note_on,103,0,4,,,,,,,,10,,,30,0
65853,note_on,24,0,4,,,,,,,,10,,,30,117
65858,control_change,37,0,1,,,,,,,,1,7,100,,
65861,note_on,101,0,3,,,,,,,,1,,,61,0
65875,control_change,17,0,1,,,,,,,,1,7,101,,
65877,control_change,24,0,4,,,,,,,,10,7,91,,
65879,note_on,59,0,5,,,,,,,,0,,,64,0
65880,note_on,19,0,3,,,,,,,,1,,,62,64
65880,note_on,1,0,5,,,,,,,,0,,,70,88
65880,note_on,76,0,6,,,,,,,,0,,,42,117
65896,control_change,19,0,4,,,,,,,,10,7,92,,
65917,control_change,42,0,1,,,,,,,,1,7,103,,
65925,control_change,29,0,4,,,,,,,,10,7,94,,
65937,note_on,57,0,5,,,,,,,,0,,,70,0
65940,note_on,3,0,5,,,,,,,,0,,,68,79
65955,control_change,30,0,4,,,,,,,,10,7,95,,
66000,note_on,120,0,3,,,,,,,,1,,,64,51
66000,note_on,60,0,5,,,,,,,,0,,,70,90
66000,note_on,120,0,6,,,,,,,,0,,,54,120
66002,note_on,2,0,6,,,,,,,,0,,,42,0
66005,note_on,5,0,3,,,,,,,,1,,,62,0
66006,note_on,6,0,5,,,,,,,,0,,,68,0
66033,note_on,31,0,6,,,,,,,,0,,,54,0
66035,control_change,118,0,1,,,,,,,,1,7,104,,
66060,note_on,54,0,5,,,,,,,,0,,,64,85
66068,note_on,8,0,5,,,,,,,,0,,,70,0
66069,note_on,114,0,4,,,,,,,,10,,,30,0
66078,control_change,43,0,1,,,,,,,,1,7,106,,
66093,note_on,24,0,4,,,,,,,,10,,,42,127
66118,note_on,50,0,5,,,,,,,,0,,,64,0
66120,note_on,2,0,5,,,,,,,,0,,,61,82
66120,note_on,87,0,6,,,,,,,,0,,,54,77
66120,control_change,42,0,1,,,,,,,,1,7,107,,
66139,control_change,46,0,4,,,,,,,,10,7,97,,
66156,note_on,36,0,1,,,,,,,,1,,,61,0
66158,control_change,2,0,1,,,,,,,,1,7,109,,
66175,note_on,415,0,2,,,,,,,,1,,,66,0
66176,note_on,56,0,5,,,,,,,,0,,,61,0
66180,note_on,4,0,5,,,,,,,,0,,,64,96
66198,note_on,78,0,6,,,,,,,,0,,,54,0
66201,note_on,62,0,4,,,,,,,,10,,,42,0
66216,note_on,211,0,3,,,,,,,,1,,,64,0
66220,note_on,40,0,5,,,,,,,,0,,,64,0
66240,note_on,0,0,5,,,,,,,,0,,,62,111
66240,note_on,42,0,6,,,,,,,,0,,,59,127
66240,note_on,39,0,4,,,,,,,,10,,,47,124
66240,note_on,0,0,1,,,,,,,,1,,,71,127
66240,control_change,82,0,1,,,,,,,,1,7,110,,
66240,note_on,65,0,2,,,,,,,,1,,,66,127
66240,note_on,24,0,3,,,,,,,,1,,,62,108
66240,note_on,0,0,5,,,,,,,,0,,,71,111
66240,note_on,20,0,5,,,,,,,,0,,,66,77
66336,note_on,0,0,5,,,,,,,,0,,,66,0
66336,note_on,0,0,5,,,,,,,,0,,,71,0
66336,note_on,96,0,5,,,,,,,,0,,,62,0
66456,note_on,216,0,3,,,,,,,,1,,,62,0
66456,note_on,216,0,2,,,,,,,,1,,,66,0
66456,note_on,216,0,6,,,,,,,,0,,,59,0
66456,note_on,216,0,1,,,,,,,,1,,,71,0
66456,note_on,216,0,4,,,,,,,,10,,,47,0
66480,note_on,144,0,5,,,,,,,,0,,,74,104
66480,note_on,0,0,5,,,,,,,,0,,,71,104
66480,note_on,24,0,2,,,,,,,,1,,,71,127
66480,note_on,24,0,6,,,,,,,,0,,,47,108
66480,note_on,24,0,3,,,,,,,,1,,,66,127
66480,note_on,0,0,5,,,,,,,,0,,,66,99
66480,note_on,24,0,4,,,,,,,,10,,,35,108
66538,control_change,58,0,4,,,,,,,,10,7,98,,
66548,note_on,92,0,1,,,,,,,,1,,,74,127
66556,control_change,18,0,4,,,,,,,,10,7,100,,
66571,control_change,15,0,4,,,,,,,,10,7,101,,
66576,note_on,96,0,5,,,,,,,,0,,,71,0
66576,note_on,0,0,5,,,,,,,,0,,,74,0
66576,note_on,0,0,5,,,,,,,,0,,,66,0
66696,note_on,216,0,6,,,,,,,,0,,,47,0
66696,note_on,216,0,3,,,,,,,,1,,,66,0
66696,note_on,216,0,2,,,,,,,,1,,,71,0
66696,note_on,125,0,4,,,,,,,,10,,,35,0
66720,note_on,24,0,6,,,,,,,,0,,,59,126
66720,note_on,24,0,3,,,,,,,,1,,,71,127
66720,note_on,24,0,2,,,,,,,,1,,,74,127
66720,note_on,144,0,5,,,,,,,,0,,,78,104
66720,note_on,0,0,5,,,,,,,,0,,,74,127
66720,note_on,0,0,5,,,,,,,,0,,,71,127
66720,note_on,24,0,4,,,,,,,,10,,,47,111
66764,note_on,216,0,1,,,,,,,,1,,,74,0
66788,note_on,24,0,1,,,,,,,,1,,,78,127
66816,note_on,0,0,5,,,,,,,,0,,,74,0
66816,note_on,0,0,5,,,,,,,,0,,,78,0
66816,note_on,96,0,5,,,,,,,,0,,,71,0
66936,note_on,216,0,6,,,,,,,,0,,,59,0
66936,note_on,216,0,4,,,,,,,,10,,,47,0
66936,note_on,216,0,2,,,,,,,,1,,,74,0
66936,note_on,216,0,3,,,,,,,,1,,,71,0
67004,note_on,216,0,1,,,,,,,,1,,,78,0
67080,note_on,144,0,2,,,,,,,,1,,,71,123
67080,note_on,264,0,5,,,,,,,,0,,,74,96
67080,note_on,0,0,5,,,,,,,,0,,,71,77
67080,note_on,144,0,6,,,,,,,,0,,,47,117
67080,note_on,144,0,3,,,,,,,,1,,,66,69
67080,note_on,144,0,4,,,,,,,,10,,,35,84
67112,note_on,32,0,2,,,,,,,,1,,,71,0
67117,note_on,37,0,6,,,,,,,,0,,,47,0
67128,note_on,48,0,5,,,,,,,,0,,,71,0
67128,note_on,0,0,5,,,,,,,,0,,,74,0
67140,note_on,28,0,2,,,,,,,,1,,,73,123
67140,note_on,0,0,5,,,,,,,,0,,,73,99
67140,note_on,12,0,5,,,,,,,,0,,,76,87
67148,note_on,144,0,1,,,,,,,,1,,,74,127
67150,note_on,70,0,4,,,,,,,,10,,,35,0
67159,note_on,79,0,3,,,,,,,,1,,,66,0
67168,note_on,28,0,2,,,,,,,,1,,,73,0
67180,note_on,32,0,1,,,,,,,,1,,,74,0
67188,note_on,0,0,5,,,,,,,,0,,,76,0
67188,note_on,48,0,5,,,,,,,,0,,,73,0
67200,note_on,50,0,4,,,,,,,,10,,,47,91
67200,note_on,0,0,5,,,,,,,,0,,,78,93
67200,note_on,12,0,5,,,,,,,,0,,,74,126
67200,note_on,41,0,3,,,,,,,,1,,,71,74
67200,note_on,83,0,6,,,,,,,,0,,,59,81
67200,note_on,20,0,1,,,,,,,,1,,,78,93
67200,note_on,32,0,2,,,,,,,,1,,,74,127
67235,note_on,35,0,4,,,,,,,,10,,,47,0
67240,note_on,40,0,6,,,,,,,,0,,,59,0
67260,note_on,20,0,6,,,,,,,,0,,,61,74
67260,note_on,25,0,4,,,,,,,,10,,,49,86
67266,note_on,66,0,3,,,,,,,,1,,,71,0
67274,note_on,74,0,5,,,,,,,,0,,,74,0
67275,note_on,1,0,5,,,,,,,,0,,,78,0
67276,note_on,76,0,1,,,,,,,,1,,,78,0
67278,note_on,78,0,2,,,,,,,,1,,,74,0
67297,note_on,37,0,6,,,,,,,,0,,,61,0
67311,note_on,51,0,4,,,,,,,,10,,,49,0
67315,control_change,4,0,4,,,,,,,,10,7,103,,
67320,note_on,42,0,2,,,,,,,,1,,,71,111
67320,note_on,0,0,5,,,,,,,,0,,,74,127
67320,note_on,45,0,5,,,,,,,,0,,,71,77
67320,note_on,23,0,6,,,,,,,,0,,,62,89
67320,note_on,5,0,4,,,,,,,,10,,,50,111
67320,note_on,44,0,1,,,,,,,,1,,,74,96
67320,note_on,54,0,3,,,,,,,,1,,,66,81
67328,control_change,8,0,4,,,,,,,,10,7,104,,
67336,control_change,8,0,4,,,,,,,,10,7,106,,
67345,control_change,9,0,4,,,,,,,,10,7,107,,
67353,control_change,8,0,4,,,,,,,,10,7,109,,
67353,note_on,33,0,2,,,,,,,,1,,,71,0
67355,note_on,35,0,5,,,,,,,,0,,,74,0
67356,note_on,36,0,6,,,,,,,,0,,,62,0
67360,note_on,40,0,1,,,,,,,,1,,,74,0
67362,note_on,9,0,4,,,,,,,,10,,,50,0
67365,note_on,10,0,5,,,,,,,,0,,,71,0
67380,note_on,20,0,1,,,,,,,,1,,,76,89
67380,note_on,18,0,4,,,,,,,,10,,,49,127
67380,note_on,0,0,5,,,,,,,,0,,,76,98
67380,note_on,15,0,5,,,,,,,,0,,,73,77
67380,note_on,24,0,6,,,,,,,,0,,,61,96
67380,note_on,27,0,2,,,,,,,,1,,,73,96
67399,note_on,79,0,3,,,,,,,,1,,,66,0
67408,note_on,28,0,5,,,,,,,,0,,,76,0
67416,note_on,36,0,2,,,,,,,,1,,,73,0
67417,note_on,37,0,6,,,,,,,,0,,,61,0
67418,note_on,38,0,4,,,,,,,,10,,,49,0
67418,note_on,10,0,5,,,,,,,,0,,,73,0
67423,note_on,43,0,1,,,,,,,,1,,,76,0
67440,note_on,22,0,4,,,,,,,,10,,,47,117
67440,note_on,41,0,3,,,,,,,,1,,,71,89
67440,note_on,24,0,2,,,,,,,,1,,,74,127
67440,note_on,22,0,5,,,,,,,,0,,,74,111
67440,note_on,0,0,5,,,,,,,,0,,,78,113
67440,note_on,23,0,6,,,,,,,,0,,,59,86
67440,note_on,17,0,1,,,,,,,,1,,,78,127
67452,control_change,12,0,4,,,,,,,,10,7,108,,
67461,control_change,9,0,4,,,,,,,,10,7,106,,
67473,note_on,33,0,6,,,,,,,,0,,,59,0
67488,note_on,27,0,4,,,,,,,,10,,,47,0
67500,note_on,60,0,5,,,,,,,,0,,,74,0
67500,note_on,27,0,6,,,,,,,,0,,,61,117
67500,note_on,12,0,4,,,,,,,,10,,,49,93
67515,note_on,75,0,3,,,,,,,,1,,,71,0
67516,note_on,76,0,2,,,,,,,,1,,,74,0
67527,note_on,87,0,1,,,,,,,,1,,,78,0
67528,note_on,28,0,5,,,,,,,,0,,,78,0
67529,note_on,29,0,6,,,,,,,,0,,,61,0
67536,control_change,36,0,4,,,,,,,,10,7,105,,
67540,note_on,4,0,4,,,,,,,,10,,,49,0
67547,control_change,7,0,4,,,,,,,,10,7,103,,
67560,note_on,44,0,2,,,,,,,,1,,,78,105
67560,note_on,31,0,6,,,,,,,,0,,,62,89
67560,note_on,33,0,1,,,,,,,,1,,,83,96
67560,note_on,45,0,3,,,,,,,,1,,,66,96
67560,note_on,0,0,5,,,,,,,,0,,,78,81
67560,note_on,32,0,5,,,,,,,,0,,,83,127
67560,note_on,13,0,4,,,,,,,,10,,,50,111
67598,note_on,38,0,6,,,,,,,,0,,,62,0
67600,note_on,40,0,4,,,,,,,,10,,,50,0
67613,note_on,53,0,5,,,,,,,,0,,,78,0
67620,note_on,20,0,4,,,,,,,,10,,,49,127
67620,note_on,7,0,5,,,,,,,,0,,,76,89
67620,note_on,22,0,6,,,,,,,,0,,,61,89
67636,note_on,16,0,5,,,,,,,,0,,,83,0
67638,note_on,78,0,2,,,,,,,,1,,,78,0
67643,note_on,83,0,3,,,,,,,,1,,,66,0
67644,note_on,84,0,1,,,,,,,,1,,,83,0
67655,note_on,35,0,6,,,,,,,,0,,,61,0
67658,note_on,22,0,5,,,,,,,,0,,,76,0
67662,note_on,42,0,4,,,,,,,,10,,,49,0
67680,note_on,36,0,1,,,,,,,,1,,,78,117
67680,note_on,18,0,4,,,,,,,,10,,,47,81
67680,note_on,22,0,5,,,,,,,,0,,,74,108
67680,note_on,42,0,2,,,,,,,,1,,,74,108
67680,note_on,0,0,5,,,,,,,,0,,,78,127
67680,note_on,25,0,6,,,,,,,,0,,,59,69
67680,note_on,37,0,3,,,,,,,,1,,,71,74
67719,note_on,39,0,6,,,,,,,,0,,,59,0
67723,note_on,43,0,4,,,,,,,,10,,,47,0
67740,note_on,17,0,4,,,,,,,,10,,,49,89
67740,note_on,21,0,6,,,,,,,,0,,,61,61
67754,note_on,74,0,5,,,,,,,,0,,,74,0
67761,note_on,81,0,2,,,,,,,,1,,,74,0
67764,note_on,10,0,5,,,,,,,,0,,,78,0
67764,note_on,84,0,3,,,,,,,,1,,,71,0
67775,note_on,95,0,1,,,,,,,,1,,,78,0
67785,note_on,45,0,4,,,,,,,,10,,,49,0
67785,note_on,45,0,6,,,,,,,,0,,,61,0
67791,control_change,16,0,1,,,,,,,,1,7,108,,
67800,note_on,9,0,1,,,,,,,,1,,,78,127
67800,note_on,0,0,5,,,,,,,,0,,,71,93
67800,note_on,36,0,5,,,,,,,,0,,,78,127
67800,note_on,36,0,3,,,,,,,,1,,,66,89
67800,note_on,39,0,2,,,,,,,,1,,,71,84
67800,note_on,15,0,6,,,,,,,,0,,,62,66
67800,note_on,15,0,4,,,,,,,,10,,,50,111
67842,note_on,42,0,1,,,,,,,,1,,,78,0
67843,note_on,43,0,4,,,,,,,,10,,,50,0
67845,note_on,45,0,6,,,,,,,,0,,,62,0
67849,note_on,49,0,5,,,,,,,,0,,,78,0
67855,control_change,12,0,4,,,,,,,,10,7,102,,
67860,note_on,5,0,4,,,,,,,,10,,,49,117
67860,note_on,11,0,5,,,,,,,,0,,,76,90
67860,note_on,18,0,1,,,,,,,,1,,,76,89
67860,note_on,15,0,6,,,,,,,,0,,,61,72
67873,note_on,13,0,5,,,,,,,,0,,,71,0
67882,note_on,82,0,2,,,,,,,,1,,,71,0
67886,control_change,26,0,4,,,,,,,,10,7,100,,
67890,note_on,90,0,3,,,,,,,,1,,,66,0
67897,note_on,24,0,5,,,,,,,,0,,,76,0
67902,note_on,42,0,1,,,,,,,,1,,,76,0
67908,note_on,22,0,4,,,,,,,,10,,,49,0
67916,note_on,56,0,6,,,,,,,,0,,,61,0
67920,note_on,30,0,3,,,,,,,,1,,,66,81
67920,note_on,18,0,1,,,,,,,,1,,,74,127
67920,note_on,0,0,5,,,,,,,,0,,,74,127
67920,note_on,23,0,5,,,,,,,,0,,,71,96
67920,note_on,38,0,2,,,,,,,,1,,,71,89
67920,note_on,4,0,6,,,,,,,,0,,,59,96
67920,note_on,12,0,4,,,,,,,,10,,,47,114
67994,note_on,74,0,2,,,,,,,,1,,,71,0
67995,note_on,75,0,5,,,,,,,,0,,,74,0
68001,note_on,81,0,4,,,,,,,,10,,,47,0
68009,note_on,89,0,3,,,,,,,,1,,,66,0
68011,note_on,91,0,1,,,,,,,,1,,,74,0
68012,note_on,92,0,6,,,,,,,,0,,,59,0
68034,control_change,33,0,4,,,,,,,,10,7,99,,
68040,note_on,46,0,2,,,,,,,,1,,,66,66
68040,note_on,45,0,5,,,,,,,,0,,,73,82
68040,note_on,29,0,1,,,,,,,,1,,,73,74
68040,note_on,6,0,4,,,,,,,,10,,,35,105
68040,note_on,28,0,6,,,,,,,,0,,,47,84
68040,note_on,31,0,3,,,,,,,,1,,,62,58
68078,note_on,38,0,1,,,,,,,,1,,,73,0
68097,note_on,57,0,5,,,,,,,,0,,,73,0
68100,note_on,22,0,1,,,,,,,,1,,,71,89
68100,note_on,3,0,5,,,,,,,,0,,,71,82
68120,note_on,80,0,2,,,,,,,,1,,,66,0
68122,note_on,82,0,3,,,,,,,,1,,,62,0
68124,note_on,84,0,6,,,,,,,,0,,,47,0
68131,note_on,91,0,4,,,,,,,,10,,,35,0
68136,note_on,36,0,5,,,,,,,,0,,,71,0
68138,note_on,38,0,1,,,,,,,,1,,,71,0
68155,note_on,19,0,5,,,,,,,,0,,,71,0
68160,note_on,40,0,2,,,,,,,,1,,,62,26
68160,control_change,0,0,4,,,,,,,,10,7,97,,
68160,note_on,36,0,6,,,,,,,,0,,,52,89
68160,note_on,5,0,5,,,,,,,,0,,,80,85
68160,note_on,29,0,4,,,,,,,,10,,,40,123
68160,note_on,0,0,1,,,,,,,,1,,,62,35
68160,control_change,22,0,1,,,,,,,,1,7,107,,
68166,note_on,44,0,3,,,,,,,,1,,,62,39
68181,control_change,21,0,4,,,,,,,,10,7,96,,
68197,note_on,37,0,5,,,,,,,,0,,,80,0
68220,note_on,23,0,5,,,,,,,,0,,,74,85
68245,note_on,85,0,6,,,,,,,,0,,,52,0
68255,control_change,95,0,1,,,,,,,,1,7,105,,
68276,note_on,56,0,5,,,,,,,,0,,,74,0
68280,note_on,4,0,5,,,,,,,,0,,,73,104
68280,note_on,35,0,6,,,,,,,,0,,,40,86
68322,note_on,42,0,6,,,,,,,,0,,,40,0
68329,note_on,49,0,5,,,,,,,,0,,,73,0
68340,note_on,11,0,5,,,,,,,,0,,,71,120
68376,note_on,216,0,2,,,,,,,,1,,,62,0
68376,note_on,195,0,4,,,,,,,,10,,,40,0
68376,note_on,121,0,1,,,,,,,,1,,,62,0
68382,note_on,216,0,3,,,,,,,,1,,,62,0
68388,note_on,48,0,5,,,,,,,,0,,,71,0
68400,note_on,78,0,6,,,,,,,,0,,,64,77
68400,note_on,24,0,2,,,,,,,,1,,,68,14
68409,control_change,33,0,1,,,,,,,,1,7,104,,
68419,note_on,37,0,3,,,,,,,,1,,,68,39
68426,control_change,17,0,1,,,,,,,,1,7,102,,
68441,note_on,15,0,1,,,,,,,,1,,,68,39
68460,note_on,72,0,5,,,,,,,,0,,,71,96
68490,note_on,90,0,6,,,,,,,,0,,,64,0
68494,control_change,118,0,4,,,,,,,,10,7,94,,
68515,note_on,55,0,5,,,,,,,,0,,,71,0
68520,note_on,30,0,6,,,,,,,,0,,,52,79
68520,note_on,5,0,5,,,,,,,,0,,,73,106
68540,control_change,46,0,4,,,,,,,,10,7,93,,
68564,note_on,44,0,5,,,,,,,,0,,,73,0
68574,note_on,54,0,6,,,,,,,,0,,,52,0
68580,note_on,16,0,5,,,,,,,,0,,,74,98
68616,note_on,216,0,2,,,,,,,,1,,,68,0
68626,note_on,207,0,3,,,,,,,,1,,,71,43
68635,note_on,9,0,3,,,,,,,,1,,,68,0
68637,note_on,57,0,5,,,,,,,,0,,,74,0
68640,note_on,3,0,5,,,,,,,,0,,,80,120
68640,note_on,66,0,6,,,,,,,,0,,,52,89
68640,note_on,24,0,2,,,,,,,,1,,,71,18
68657,note_on,216,0,1,,,,,,,,1,,,68,0
68681,note_on,24,0,1,,,,,,,,1,,,71,35
68684,note_on,44,0,5,,,,,,,,0,,,80,0
68700,note_on,16,0,5,,,,,,,,0,,,74,102
68705,control_change,165,0,4,,,,,,,,10,7,91,,
68753,note_on,53,0,5,,,,,,,,0,,,74,0
68756,control_change,51,0,4,,,,,,,,10,7,90,,
68757,note_on,117,0,6,,,,,,,,0,,,52,0
68760,note_on,7,0,5,,,,,,,,0,,,73,96
68760,note_on,3,0,6,,,,,,,,0,,,40,99
68764,control_change,83,0,1,,,,,,,,1,7,101,,
68791,note_on,31,0,6,,,,,,,,0,,,40,0
68804,note_on,44,0,5,,,,,,,,0,,,73,0
68820,note_on,16,0,5,,,,,,,,0,,,71,96
68842,note_on,207,0,3,,,,,,,,1,,,71,0
68856,note_on,216,0,2,,,,,,,,1,,,71,0
68868,note_on,48,0,5,,,,,,,,0,,,71,0
68880,note_on,89,0,6,,,,,,,,0,,,64,99
68897,note_on,133,0,1,,,,,,,,1,,,71,0
68940,note_on,72,0,5,,,,,,,,0,,,71,102
68992,note_on,52,0,5,,,,,,,,0,,,71,0
68992,note_on,112,0,6,,,,,,,,0,,,64,0
69000,note_on,8,0,5,,,,,,,,0,,,73,110
69000,note_on,8,0,6,,,,,,,,0,,,52,72
69048,note_on,48,0,5,,,,,,,,0,,,73,0
69060,note_on,12,0,5,,,,,,,,0,,,74,117
69060,note_on,60,0,6,,,,,,,,0,,,52,0
69092,note_on,32,0,5,,,,,,,,0,,,74,0
69114,control_change,358,0,4,,,,,,,,10,7,91,,
69120,note_on,28,0,5,,,,,,,,0,,,81,127
69120,note_on,6,0,4,,,,,,,,10,,,45,127
69120,note_on,0,0,1,,,,,,,,1,,,69,127
69120,control_change,223,0,1,,,,,,,,1,7,106,,
69120,note_on,264,0,2,,,,,,,,1,,,64,127
69120,note_on,60,0,6,,,,,,,,0,,,57,86
69120,note_on,278,0,3,,,,,,,,1,,,61,89
69128,control_change,8,0,1,,,,,,,,1,7,107,,
69137,control_change,9,0,1,,,,,,,,1,7,109,,
69141,control_change,21,0,4,,,,,,,,10,7,100,,
69168,control_change,31,0,1,,,,,,,,1,7,110,,
69170,note_on,50,0,5,,,,,,,,0,,,81,0
69176,control_change,8,0,1,,,,,,,,1,7,112,,
69180,note_on,10,0,5,,,,,,,,0,,,76,102
69214,control_change,73,0,4,,,,,,,,10,7,97,,
69225,note_on,45,0,5,,,,,,,,0,,,76,0
69231,control_change,55,0,1,,,,,,,,1,7,111,,
69231,control_change,17,0,4,,,,,,,,10,7,98,,
69240,note_on,15,0,5,,,,,,,,0,,,73,82
69270,note_on,30,0,5,,,,,,,,0,,,73,0
69300,note_on,30,0,5,,,,,,,,0,,,81,106
69336,note_on,216,0,6,,,,,,,,0,,,57,0
69336,note_on,216,0,2,,,,,,,,1,,,64,0
69336,note_on,105,0,1,,,,,,,,1,,,69,0
69336,note_on,105,0,4,,,,,,,,10,,,45,0
69336,note_on,216,0,3,,,,,,,,1,,,61,0
69337,note_on,37,0,5,,,,,,,,0,,,81,0
69360,note_on,24,0,2,,,,,,,,1,,,69,102
69360,note_on,24,0,4,,,,,,,,10,,,33,126
69360,note_on,24,0,3,,,,,,,,1,,,64,96
69360,note_on,23,0,5,,,,,,,,0,,,76,110
69360,note_on,24,0,6,,,,,,,,0,,,45,96
69395,control_change,59,0,1,,,,,,,,1,7,110,,
69406,note_on,46,0,5,,,,,,,,0,,,76,0
69420,note_on,14,0,5,,,,,,,,0,,,73,88
69450,note_on,30,0,5,,,,,,,,0,,,73,0
69462,control_change,102,0,4,,,,,,,,10,7,101,,
69467,note_on,72,0,1,,,,,,,,1,,,73,127
69480,note_on,30,0,5,,,,,,,,0,,,69,110
69525,note_on,45,0,5,,,,,,,,0,,,69,0
69540,note_on,15,0,5,,,,,,,,0,,,76,96
69576,note_on,216,0,6,,,,,,,,0,,,45,0
69576,note_on,216,0,3,,,,,,,,1,,,64,0
69576,note_on,114,0,4,,,,,,,,10,,,33,0
69576,note_on,216,0,2,,,,,,,,1,,,69,0
69580,note_on,40,0,5,,,,,,,,0,,,76,0
69600,note_on,20,0,5,,,,,,,,0,,,73,82
69600,note_on,24,0,3,,,,,,,,1,,,69,96
69600,note_on,24,0,2,,,,,,,,1,,,73,127
69600,note_on,24,0,4,,,,,,,,10,,,45,123
69600,note_on,24,0,6,,,,,,,,0,,,57,120
69651,note_on,51,0,5,,,,,,,,0,,,73,0
69660,note_on,9,0,5,,,,,,,,0,,,69,90
69683,note_on,216,0,1,,,,,,,,1,,,73,0
69695,note_on,35,0,5,,,,,,,,0,,,69,0
69707,note_on,24,0,1,,,,,,,,1,,,76,127
69720,note_on,25,0,5,,,,,,,,0,,,64,106
69757,note_on,37,0,5,,,,,,,,0,,,64,0
69780,note_on,23,0,5,,,,,,,,0,,,61,117
69808,note_on,28,0,5,,,,,,,,0,,,61,0
69816,note_on,216,0,4,,,,,,,,10,,,45,0
69816,note_on,216,0,6,,,,,,,,0,,,57,0
69816,note_on,216,0,3,,,,,,,,1,,,69,0
69816,note_on,216,0,2,,,,,,,,1,,,73,0
69840,note_on,32,0,5,,,,,,,,0,,,57,127
69923,note_on,216,0,1,,,,,,,,1,,,76,0
69925,note_on,85,0,5,,,,,,,,0,,,57,0
69960,note_on,35,0,5,,,,,,,,0,,,73,102
69960,note_on,144,0,4,,,,,,,,10,,,33,108
69960,note_on,144,0,2,,,,,,,,1,,,69,124
69960,note_on,144,0,3,,,,,,,,1,,,64,79
69960,note_on,144,0,6,,,,,,,,0,,,45,105
69960,note_on,0,0,5,,,,,,,,0,,,69,102
69991,note_on,31,0,2,,,,,,,,1,,,69,0
70000,note_on,40,0,5,,,,,,,,0,,,73,0
70004,note_on,4,0,5,,,,,,,,0,,,69,0
70004,note_on,44,0,6,,,,,,,,0,,,45,0
70006,note_on,46,0,4,,,,,,,,10,,,33,0
70020,note_on,0,0,5,,,,,,,,0,,,74,102
70020,note_on,16,0,5,,,,,,,,0,,,71,89
70020,note_on,29,0,2,,,,,,,,1,,,71,89
70024,control_change,18,0,4,,,,,,,,10,7,100,,
70035,note_on,75,0,3,,,,,,,,1,,,64,0
70057,note_on,37,0,5,,,,,,,,0,,,74,0
70061,note_on,41,0,2,,,,,,,,1,,,71,0
70064,note_on,7,0,5,,,,,,,,0,,,71,0
70067,note_on,144,0,1,,,,,,,,1,,,73,93
70080,note_on,76,0,6,,,,,,,,0,,,57,84
70080,note_on,19,0,2,,,,,,,,1,,,73,117
70080,note_on,45,0,3,,,,,,,,1,,,69,64
70080,note_on,13,0,1,,,,,,,,1,,,76,127
70080,note_on,56,0,4,,,,,,,,10,,,45,84
70080,note_on,0,0,5,,,,,,,,0,,,76,127
70080,note_on,16,0,5,,,,,,,,0,,,73,96
70081,control_change,1,0,4,,,,,,,,10,7,99,,
70105,note_on,25,0,1,,,,,,,,1,,,73,0
70119,note_on,38,0,4,,,,,,,,10,,,45,0
70133,note_on,53,0,6,,,,,,,,0,,,57,0
70140,note_on,7,0,6,,,,,,,,0,,,59,64
70140,note_on,60,0,3,,,,,,,,1,,,69,0
70140,note_on,60,0,5,,,,,,,,0,,,76,0
70140,note_on,21,0,4,,,,,,,,10,,,47,89
70142,note_on,62,0,2,,,,,,,,1,,,73,0
70147,note_on,42,0,1,,,,,,,,1,,,76,0
70152,note_on,12,0,5,,,,,,,,0,,,73,0
70179,note_on,39,0,4,,,,,,,,10,,,47,0
70184,note_on,44,0,6,,,,,,,,0,,,59,0
70200,note_on,58,0,2,,,,,,,,1,,,69,127
70200,note_on,60,0,3,,,,,,,,1,,,64,79
70200,note_on,21,0,4,,,,,,,,10,,,49,89
70200,note_on,0,0,5,,,,,,,,0,,,73,98
70200,note_on,48,0,5,,,,,,,,0,,,69,89
70200,note_on,16,0,6,,,,,,,,0,,,61,91
70200,note_on,53,0,1,,,,,,,,1,,,73,93
70227,note_on,27,0,2,,,,,,,,1,,,69,0
70230,note_on,30,0,4,,,,,,,,10,,,49,0
70232,note_on,32,0,1,,,,,,,,1,,,73,0
70238,note_on,38,0,5,,,,,,,,0,,,73,0
70242,note_on,42,0,6,,,,,,,,0,,,61,0
70245,note_on,7,0,5,,,,,,,,0,,,69,0
70260,note_on,33,0,2,,,,,,,,1,,,71,84
70260,note_on,15,0,5,,,,,,,,0,,,71,74
70260,note_on,0,0,5,,,,,,,,0,,,74,88
70260,note_on,30,0,4,,,,,,,,10,,,47,89
70260,note_on,18,0,6,,,,,,,,0,,,59,84
70260,note_on,28,0,1,,,,,,,,1,,,74,124
70269,note_on,69,0,3,,,,,,,,1,,,64,0
70275,control_change,15,0,4,,,,,,,,10,7,100,,
70288,control_change,28,0,1,,,,,,,,1,7,109,,
70290,note_on,30,0,2,,,,,,,,1,,,71,0
70293,note_on,18,0,4,,,,,,,,10,,,47,0
70298,note_on,10,0,1,,,,,,,,1,,,74,0
70302,note_on,42,0,6,,,,,,,,0,,,59,0
70304,note_on,44,0,5,,,,,,,,0,,,74,0
70312,note_on,8,0,5,,,,,,,,0,,,71,0
70317,control_change,24,0,4,,,,,,,,10,7,101,,
70320,note_on,18,0,6,,,,,,,,0,,,57,79
70320,note_on,51,0,3,,,,,,,,1,,,69,72
70320,note_on,0,0,5,,,,,,,,0,,,76,98
70320,note_on,22,0,1,,,,,,,,1,,,76,99
70320,note_on,3,0,4,,,,,,,,10,,,45,96
70320,note_on,8,0,5,,,,,,,,0,,,73,84
70320,note_on,30,0,2,,,,,,,,1,,,73,117
70352,note_on,32,0,4,,,,,,,,10,,,45,0
70364,note_on,44,0,6,,,,,,,,0,,,57,0
70370,note_on,50,0,1,,,,,,,,1,,,76,0
70374,note_on,54,0,2,,,,,,,,1,,,73,0
70375,note_on,55,0,5,,,,,,,,0,,,76,0
70380,note_on,28,0,4,,,,,,,,10,,,47,66
70380,note_on,16,0,6,,,,,,,,0,,,59,74
70393,note_on,73,0,3,,,,,,,,1,,,69,0
70404,note_on,29,0,5,,,,,,,,0,,,73,0
70411,note_on,31,0,4,,,,,,,,10,,,47,0
70425,note_on,45,0,6,,,,,,,,0,,,59,0
70427,control_change,16,0,4,,,,,,,,10,7,103,,
70440,note_on,47,0,3,,,,,,,,1,,,64,69
70440,note_on,70,0,1,,,,,,,,1,,,81,93
70440,note_on,66,0,2,,,,,,,,1,,,76,96
70440,note_on,13,0,4,,,,,,,,10,,,49,72
70440,note_on,15,0,6,,,,,,,,0,,,61,89
70440,note_on,36,0,5,,,,,,,,0,,,76,102
70440,note_on,0,0,5,,,,,,,,0,,,81,127
70467,note_on,27,0,4,,,,,,,,10,,,49,0
70480,note_on,40,0,6,,,,,,,,0,,,61,0
70485,note_on,45,0,5,,,,,,,,0,,,76,0
70488,note_on,48,0,1,,,,,,,,1,,,81,0
70500,note_on,20,0,6,,,,,,,,0,,,59,79
70500,note_on,33,0,4,,,,,,,,10,,,47,89
70500,note_on,15,0,5,,,,,,,,0,,,74,96
70509,control_change,9,0,4,,,,,,,,10,7,104,,
70510,note_on,10,0,5,,,,,,,,0,,,81,0
70512,note_on,72,0,3,,,,,,,,1,,,64,0
70513,note_on,73,0,2,,,,,,,,1,,,76,0
70532,note_on,23,0,4,,,,,,,,10,,,47,0
70543,control_change,11,0,4,,,,,,,,10,7,106,,
70544,note_on,34,0,5,,,,,,,,0,,,74,0
70544,note_on,44,0,6,,,,,,,,0,,,59,0
70560,note_on,16,0,5,,,,,,,,0,,,73,127
70560,note_on,0,0,5,,,,,,,,0,,,76,110
70560,note_on,47,0,2,,,,,,,,1,,,73,117
70560,note_on,48,0,3,,,,,,,,1,,,69,74
70560,note_on,17,0,4,,,,,,,,10,,,45,79
70560,note_on,72,0,1,,,,,,,,1,,,76,108
70560,note_on,16,0,6,,,,,,,,0,,,57,64
70593,note_on,33,0,4,,,,,,,,10,,,45,0
70612,note_on,52,0,5,,,,,,,,0,,,76,0
70612,note_on,52,0,6,,,,,,,,0,,,57,0
70618,note_on,58,0,1,,,,,,,,1,,,76,0
70620,note_on,27,0,4,,,,,,,,10,,,47,69
70620,note_on,8,0,6,,,,,,,,0,,,59,64
70634,note_on,74,0,3,,,,,,,,1,,,69,0
70638,note_on,78,0,2,,,,,,,,1,,,73,0
70645,note_on,33,0,5,,,,,,,,0,,,73,0
70655,note_on,35,0,4,,,,,,,,10,,,47,0
70676,note_on,56,0,6,,,,,,,,0,,,59,0
70680,note_on,25,0,4,,,,,,,,10,,,49,91
70680,note_on,42,0,2,,,,,,,,1,,,69,89
70680,note_on,4,0,6,,,,,,,,0,,,61,77
70680,note_on,0,0,5,,,,,,,,0,,,69,108
70680,note_on,46,0,3,,,,,,,,1,,,64,66
70680,note_on,35,0,5,,,,,,,,0,,,76,110
70680,note_on,62,0,1,,,,,,,,1,,,76,117
70714,note_on,34,0,1,,,,,,,,1,,,76,0
70717,note_on,37,0,4,,,,,,,,10,,,49,0
70725,note_on,45,0,6,,,,,,,,0,,,61,0
70725,note_on,45,0,5,,,,,,,,0,,,76,0
70740,note_on,15,0,6,,,,,,,,0,,,59,74
70740,note_on,26,0,1,,,,,,,,1,,,74,96
70740,note_on,23,0,4,,,,,,,,10,,,47,79
70740,note_on,15,0,5,,,,,,,,0,,,74,88
70749,control_change,9,0,4,,,,,,,,10,7,105,,
70754,note_on,74,0,2,,,,,,,,1,,,69,0
70760,note_on,20,0,5,,,,,,,,0,,,69,0
70760,note_on,80,0,3,,,,,,,,1,,,64,0
70771,note_on,22,0,4,,,,,,,,10,,,47,0
70779,note_on,39,0,6,,,,,,,,0,,,59,0
70786,note_on,26,0,5,,,,,,,,0,,,74,0
70788,note_on,48,0,1,,,,,,,,1,,,74,0
70800,note_on,12,0,1,,,,,,,,1,,,73,91
70800,note_on,29,0,4,,,,,,,,10,,,45,79
70800,note_on,40,0,3,,,,,,,,1,,,64,51
70800,note_on,21,0,6,,,,,,,,0,,,57,89
70800,note_on,46,0,2,,,,,,,,1,,,69,96
70800,note_on,14,0,5,,,,,,,,0,,,73,93
70800,note_on,0,0,5,,,,,,,,0,,,69,111
70853,control_change,53,0,4,,,,,,,,10,7,103,,
70856,note_on,56,0,5,,,,,,,,0,,,73,0
70867,note_on,67,0,1,,,,,,,,1,,,73,0
70878,note_on,78,0,2,,,,,,,,1,,,69,0
70881,note_on,81,0,6,,,,,,,,0,,,57,0
70885,note_on,32,0,4,,,,,,,,10,,,45,0
70887,note_on,87,0,3,,,,,,,,1,,,64,0
70910,control_change,25,0,4,,,,,,,,10,7,102,,
70920,note_on,53,0,1,,,,,,,,1,,,71,84
70920,note_on,64,0,5,,,,,,,,0,,,71,90
70920,note_on,33,0,3,,,,,,,,1,,,61,61
70920,note_on,42,0,2,,,,,,,,1,,,64,72
70920,note_on,39,0,6,,,,,,,,0,,,45,69
70920,note_on,10,0,4,,,,,,,,10,,,33,89
70945,control_change,25,0,4,,,,,,,,10,7,100,,
70961,note_on,41,0,1,,,,,,,,1,,,71,0
70966,control_change,5,0,1,,,,,,,,1,7,108,,
70976,note_on,56,0,5,,,,,,,,0,,,71,0
70980,note_on,4,0,5,,,,,,,,0,,,69,79
70980,note_on,14,0,1,,,,,,,,1,,,69,84
70982,control_change,2,0,1,,,,,,,,1,7,107,,
70986,note_on,66,0,6,,,,,,,,0,,,45,0
70991,note_on,71,0,2,,,,,,,,1,,,64,0
71009,note_on,64,0,4,,,,,,,,10,,,33,0
71009,control_change,27,0,1,,,,,,,,1,7,105,,
71010,note_on,90,0,3,,,,,,,,1,,,61,0
71016,note_on,36,0,5,,,,,,,,0,,,69,0
71018,control_change,9,0,1,,,,,,,,1,7,104,,
71028,note_on,10,0,1,,,,,,,,1,,,69,0
71030,note_on,14,0,5,,,,,,,,0,,,69,0
71040,note_on,49,0,2,,,,,,,,1,,,60,43
71040,control_change,12,0,1,,,,,,,,1,7,102,,
71040,control_change,0,0,4,,,,,,,,10,7,99,,
71040,note_on,31,0,4,,,,,,,,10,,,38,89
71040,note_on,0,0,1,,,,,,,,1,,,60,18
71040,note_on,54,0,6,,,,,,,,0,,,50,79
71040,note_on,30,0,3,,,,,,,,1,,,60,72
71040,control_change,0,0,1,,,,,,,,1,7,101,,
71040,note_on,10,0,5,,,,,,,,0,,,78,106
71060,control_change,20,0,1,,,,,,,,1,7,99,,
71088,note_on,48,0,5,,,,,,,,0,,,78,0
71094,control_change,34,0,1,,,,,,,,1,7,98,,
71100,note_on,12,0,5,,,,,,,,0,,,72,102
71131,control_change,91,0,4,,,,,,,,10,7,97,,
71148,note_on,108,0,6,,,,,,,,0,,,50,0
71154,note_on,54,0,5,,,,,,,,0,,,72,0
71160,note_on,6,0,5,,,,,,,,0,,,71,98
71160,note_on,12,0,6,,,,,,,,0,,,38,89
71200,note_on,40,0,5,,,,,,,,0,,,71,0
71202,note_on,42,0,6,,,,,,,,0,,,38,0
71220,note_on,20,0,5,,,,,,,,0,,,69,110
71256,note_on,125,0,4,,,,,,,,10,,,38,0
71256,note_on,162,0,1,,,,,,,,1,,,60,0
71256,note_on,216,0,3,,,,,,,,1,,,60,0
71256,note_on,216,0,2,,,,,,,,1,,,60,0
71273,note_on,53,0,5,,,,,,,,0,,,69,0
71280,note_on,78,0,6,,,,,,,,0,,,62,102
71280,note_on,24,0,2,,,,,,,,1,,,66,61
71280,note_on,24,0,3,,,,,,,,1,,,66,58
71284,control_change,28,0,4,,,,,,,,10,7,96,,
71303,control_change,47,0,1,,,,,,,,1,7,96,,
71338,control_change,54,0,4,,,,,,,,10,7,94,,
71340,note_on,67,0,5,,,,,,,,0,,,69,88
71355,control_change,52,0,1,,,,,,,,1,7,95,,
71363,control_change,25,0,4,,,,,,,,10,7,93,,
71387,note_on,32,0,1,,,,,,,,1,,,66,39
71392,note_on,52,0,5,,,,,,,,0,,,69,0
71393,note_on,113,0,6,,,,,,,,0,,,62,0
71400,note_on,7,0,6,,,,,,,,0,,,50,79
71400,note_on,8,0,5,,,,,,,,0,,,71,127
71437,note_on,37,0,6,,,,,,,,0,,,50,0
71456,note_on,56,0,5,,,,,,,,0,,,71,0
71460,note_on,4,0,5,,,,,,,,0,,,72,120
71496,note_on,216,0,2,,,,,,,,1,,,66,0
71496,note_on,216,0,3,,,,,,,,1,,,66,0
71516,note_on,56,0,5,,,,,,,,0,,,72,0
71520,note_on,24,0,2,,,,,,,,1,,,69,48
71520,note_on,4,0,5,,,,,,,,0,,,78,127
71520,note_on,24,0,3,,,,,,,,1,,,69,39
71520,note_on,83,0,6,,,,,,,,0,,,50,102
71568,note_on,48,0,5,,,,,,,,0,,,78,0
71580,note_on,12,0,5,,,,,,,,0,,,72,117
71603,note_on,216,0,1,,,,,,,,1,,,66,0
71627,note_on,24,0,1,,,,,,,,1,,,69,55
71636,note_on,56,0,5,,,,,,,,0,,,72,0
71640,note_on,4,0,5,,,,,,,,0,,,71,124
71640,note_on,120,0,6,,,,,,,,0,,,38,102
71667,note_on,27,0,6,,,,,,,,0,,,38,0
71697,note_on,57,0,5,,,,,,,,0,,,71,0
71698,note_on,31,0,6,,,,,,,,0,,,50,0
71700,note_on,3,0,5,,,,,,,,0,,,69,124
71736,note_on,216,0,2,,,,,,,,1,,,69,0
71736,note_on,216,0,3,,,,,,,,1,,,69,0
71755,note_on,55,0,5,,,,,,,,0,,,69,0
71760,note_on,62,0,6,,,,,,,,0,,,62,111
71820,note_on,65,0,5,,,,,,,,0,,,69,113
71843,note_on,216,0,1,,,,,,,,1,,,69,0
71873,note_on,53,0,5,,,,,,,,0,,,69,0
71878,note_on,118,0,6,,,,,,,,0,,,62,0
71880,note_on,2,0,6,,,,,,,,0,,,50,79
71880,note_on,7,0,5,,,,,,,,0,,,71,117
71918,note_on,38,0,6,,,,,,,,0,,,50,0
71929,note_on,49,0,5,,,,,,,,0,,,71,0
71940,note_on,11,0,5,,,,,,,,0,,,72,110
71972,control_change,609,0,4,,,,,,,,10,7,91,,
71973,note_on,33,0,5,,,,,,,,0,,,72,0
71998,control_change,155,0,1,,,,,,,,1,7,97,,
72000,note_on,82,0,6,,,,,,,,0,,,55,93
72000,note_on,264,0,2,,,,,,,,1,,,62,74
72000,control_change,2,0,1,,,,,,,,1,7,106,,
72000,note_on,27,0,5,,,,,,,,0,,,79,127
72000,note_on,0,0,1,,,,,,,,1,,,67,127
72000,note_on,264,0,3,,,,,,,,1,,,59,89
72000,note_on,28,0,4,,,,,,,,10,,,43,102
72008,control_change,8,0,4,,,,,,,,10,7,92,,
72037,control_change,37,0,1,,,,,,,,1,7,107,,
72046,note_on,46,0,5,,,,,,,,0,,,79,0
72054,control_change,46,0,4,,,,,,,,10,7,94,,
72060,note_on,14,0,5,,,,,,,,0,,,74,102
72110,note_on,50,0,5,,,,,,,,0,,,74,0
72120,note_on,10,0,5,,,,,,,,0,,,71,124
72170,note_on,50,0,5,,,,,,,,0,,,71,0
72180,note_on,10,0,5,,,,,,,,0,,,79,117
72216,note_on,216,0,2,,,,,,,,1,,,62,0
72216,note_on,162,0,4,,,,,,,,10,,,43,0
72216,note_on,216,0,3,,,,,,,,1,,,59,0
72216,note_on,179,0,1,,,,,,,,1,,,67,0
72216,note_on,216,0,6,,,,,,,,0,,,55,0
72222,note_on,42,0,5,,,,,,,,0,,,79,0
72240,note_on,24,0,2,,,,,,,,1,,,67,127
72240,note_on,24,0,3,,,,,,,,1,,,62,81
72240,note_on,24,0,6,,,,,,,,0,,,43,99
72240,note_on,18,0,5,,,,,,,,0,,,74,127
72240,note_on,24,0,4,,,,,,,,10,,,31,117
72281,control_change,65,0,1,,,,,,,,1,7,109,,
72291,note_on,51,0,5,,,,,,,,0,,,74,0
72300,note_on,9,0,5,,,,,,,,0,,,71,96
72312,control_change,72,0,4,,,,,,,,10,7,95,,
72328,note_on,28,0,5,,,,,,,,0,,,71,0
72352,note_on,71,0,1,,,,,,,,1,,,71,86
72360,note_on,32,0,5,,,,,,,,0,,,67,110
72364,control_change,12,0,1,,,,,,,,1,7,112,,
72409,note_on,49,0,5,,,,,,,,0,,,67,0
72420,note_on,11,0,5,,,,,,,,0,,,74,102
72456,note_on,144,0,4,,,,,,,,10,,,31,0
72456,note_on,216,0,6,,,,,,,,0,,,43,0
72456,note_on,216,0,2,,,,,,,,1,,,67,0
72456,note_on,216,0,3,,,,,,,,1,,,62,0
72463,control_change,99,0,1,,,,,,,,1,7,110,,
72464,note_on,44,0,5,,,,,,,,0,,,74,0
72480,note_on,24,0,3,,,,,,,,1,,,67,96
72480,note_on,16,0,5,,,,,,,,0,,,71,106
72480,note_on,24,0,2,,,,,,,,1,,,71,126
72480,note_on,24,0,6,,,,,,,,0,,,55,127
72480,note_on,24,0,4,,,,,,,,10,,,43,127
72535,note_on,55,0,5,,,,,,,,0,,,71,0
72540,note_on,5,0,5,,,,,,,,0,,,67,93
72568,note_on,105,0,1,,,,,,,,1,,,71,0
72571,note_on,31,0,5,,,,,,,,0,,,67,0
72592,note_on,24,0,1,,,,,,,,1,,,74,127
72600,note_on,29,0,5,,,,,,,,0,,,62,88
72640,note_on,40,0,5,,,,,,,,0,,,62,0
72660,note_on,20,0,5,,,,,,,,0,,,59,124
72685,note_on,25,0,5,,,,,,,,0,,,59,0
72696,note_on,216,0,3,,,,,,,,1,,,67,0
72696,note_on,216,0,4,,,,,,,,10,,,43,0
72696,note_on,216,0,2,,,,,,,,1,,,71,0
72696,note_on,216,0,6,,,,,,,,0,,,55,0
72720,note_on,35,0,5,,,,,,,,0,,,55,113
72787,control_change,91,0,4,,,,,,,,10,7,94,,
72808,note_on,216,0,1,,,,,,,,1,,,74,0
72809,control_change,22,0,4,,,,,,,,10,7,93,,
72813,note_on,93,0,5,,,,,,,,0,,,55,0
72840,note_on,31,0,4,,,,,,,,10,,,43,108
72840,note_on,0,0,5,,,,,,,,0,,,59,127
72840,note_on,27,0,5,,,,,,,,0,,,55,93
72840,note_on,144,0,3,,,,,,,,1,,,50,72
72840,note_on,144,0,6,,,,,,,,0,,,43,84
72840,note_on,144,0,2,,,,,,,,1,,,55,127
72861,control_change,53,0,1,,,,,,,,1,7,111,,
72871,note_on,31,0,2,,,,,,,,1,,,55,0
72873,control_change,12,0,1,,,,,,,,1,7,110,,
72878,note_on,38,0,5,,,,,,,,0,,,55,0
72879,note_on,1,0,5,,,,,,,,0,,,59,0
72894,note_on,54,0,6,,,,,,,,0,,,43,0
72894,note_on,54,0,4,,,,,,,,10,,,43,0
72900,note_on,29,0,2,,,,,,,,1,,,57,102
72900,note_on,21,0,5,,,,,,,,0,,,57,93
72900,note_on,0,0,5,,,,,,,,0,,,60,117
72911,note_on,71,0,3,,,,,,,,1,,,50,0
72912,control_change,39,0,1,,,,,,,,1,7,108,,
72933,note_on,33,0,2,,,,,,,,1,,,57,0
72935,note_on,35,0,5,,,,,,,,0,,,60,0
72945,note_on,10,0,5,,,,,,,,0,,,57,0
72952,note_on,40,0,1,,,,,,,,1,,,59,99
72960,note_on,66,0,6,,,,,,,,0,,,43,96
72960,note_on,8,0,1,,,,,,,,1,,,62,127
72960,note_on,0,0,5,,,,,,,,0,,,62,127
72960,note_on,49,0,3,,,,,,,,1,,,55,84
72960,note_on,27,0,2,,,,,,,,1,,,59,84
72960,note_on,66,0,4,,,,,,,,10,,,31,102
72960,note_on,15,0,5,,,,,,,,0,,,59,96
72961,control_change,1,0,4,,,,,,,,10,7,91,,
72990,note_on,30,0,1,,,,,,,,1,,,59,0
72995,note_on,35,0,6,,,,,,,,0,,,43,0
72995,note_on,34,0,4,,,,,,,,10,,,31,0
73002,control_change,7,0,4,,,,,,,,10,7,90,,
73019,note_on,29,0,1,,,,,,,,1,,,62,0
73020,note_on,18,0,4,,,,,,,,10,,,33,84
73020,note_on,25,0,6,,,,,,,,0,,,45,84
73021,note_on,61,0,2,,,,,,,,1,,,59,0
73025,note_on,65,0,3,,,,,,,,1,,,55,0
73041,note_on,81,0,5,,,,,,,,0,,,59,0
73042,note_on,1,0,5,,,,,,,,0,,,62,0
73055,note_on,35,0,4,,,,,,,,10,,,33,0
73057,note_on,37,0,6,,,,,,,,0,,,45,0
73080,note_on,23,0,6,,,,,,,,0,,,47,84
73080,note_on,55,0,3,,,,,,,,1,,,50,61
73080,note_on,61,0,1,,,,,,,,1,,,59,126
73080,note_on,59,0,2,,,,,,,,1,,,55,93
73080,note_on,38,0,5,,,,,,,,0,,,55,79
73080,note_on,25,0,4,,,,,,,,10,,,35,77
73080,note_on,0,0,5,,,,,,,,0,,,59,110
73112,note_on,32,0,5,,,,,,,,0,,,59,0
73113,note_on,33,0,4,,,,,,,,10,,,35,0
73114,note_on,34,0,1,,,,,,,,1,,,59,0
73116,note_on,4,0,5,,,,,,,,0,,,55,0
73117,note_on,37,0,6,,,,,,,,0,,,47,0
73117,note_on,37,0,2,,,,,,,,1,,,55,0
73140,note_on,27,0,4,,,,,,,,10,,,33,79
73140,note_on,26,0,1,,,,,,,,1,,,60,126
73140,note_on,23,0,2,,,,,,,,1,,,57,86
73140,note_on,23,0,6,,,,,,,,0,,,45,69
73140,note_on,24,0,5,,,,,,,,0,,,57,89
73140,note_on,0,0,5,,,,,,,,0,,,60,90
73154,note_on,74,0,3,,,,,,,,1,,,50,0
73170,note_on,30,0,5,,,,,,,,0,,,60,0
73173,note_on,33,0,4,,,,,,,,10,,,33,0
73178,note_on,38,0,2,,,,,,,,1,,,57,0
73179,note_on,39,0,6,,,,,,,,0,,,45,0
73182,note_on,12,0,5,,,,,,,,0,,,57,0
73182,note_on,42,0,1,,,,,,,,1,,,60,0
73200,note_on,18,0,5,,,,,,,,0,,,62,127
73200,note_on,27,0,4,,,,,,,,10,,,31,89
73200,note_on,18,0,1,,,,,,,,1,,,62,114
73200,note_on,46,0,3,,,,,,,,1,,,55,66
73200,note_on,22,0,2,,,,,,,,1,,,59,89
73200,note_on,0,0,5,,,,,,,,0,,,59,89
73200,note_on,21,0,6,,,,,,,,0,,,43,86
73233,note_on,33,0,4,,,,,,,,10,,,31,0
73237,note_on,37,0,6,,,,,,,,0,,,43,0
73260,note_on,27,0,4,,,,,,,,10,,,33,84
73260,note_on,60,0,1,,,,,,,,1,,,62,0
73260,note_on,23,0,6,,,,,,,,0,,,45,77
73268,note_on,68,0,3,,,,,,,,1,,,55,0
73275,note_on,75,0,2,,,,,,,,1,,,59,0
73285,note_on,85,0,5,,,,,,,,0,,,62,0
73289,note_on,29,0,4,,,,,,,,10,,,33,0
73292,note_on,7,0,5,,,,,,,,0,,,59,0
73296,note_on,36,0,6,,,,,,,,0,,,45,0
73320,note_on,60,0,1,,,,,,,,1,,,67,124
73320,note_on,31,0,4,,,,,,,,10,,,35,89
73320,note_on,45,0,2,,,,,,,,1,,,62,102
73320,note_on,24,0,6,,,,,,,,0,,,47,102
73320,note_on,52,0,3,,,,,,,,1,,,50,48
73320,note_on,0,0,5,,,,,,,,0,,,67,127
73320,note_on,28,0,5,,,,,,,,0,,,62,102
73349,note_on,29,0,4,,,,,,,,10,,,35,0
73357,note_on,37,0,6,,,,,,,,0,,,47,0
73373,note_on,53,0,1,,,,,,,,1,,,67,0
73379,note_on,59,0,5,,,,,,,,0,,,62,0
73380,note_on,1,0,5,,,,,,,,0,,,60,79
73380,note_on,23,0,6,,,,,,,,0,,,45,72
73380,note_on,31,0,4,,,,,,,,10,,,33,89
73383,control_change,3,0,4,,,,,,,,10,7,91,,
73397,note_on,77,0,2,,,,,,,,1,,,62,0
73398,note_on,18,0,5,,,,,,,,0,,,67,0
73412,note_on,29,0,4,,,,,,,,10,,,33,0
73416,note_on,36,0,6,,,,,,,,0,,,45,0
73418,note_on,98,0,3,,,,,,,,1,,,50,0
73419,control_change,7,0,4,,,,,,,,10,7,92,,
73431,control_change,12,0,4,,,,,,,,10,7,94,,
73433,note_on,35,0,5,,,,,,,,0,,,60,0
73440,note_on,22,0,3,,,,,,,,1,,,55,64
73440,note_on,0,0,5,,,,,,,,0,,,62,124
73440,note_on,24,0,6,,,,,,,,0,,,43,96
73440,note_on,43,0,2,,,,,,,,1,,,59,77
73440,note_on,67,0,1,,,,,,,,1,,,62,120
73440,note_on,9,0,4,,,,,,,,10,,,31,99
73440,note_on,7,0,5,,,,,,,,0,,,59,123
73472,note_on,32,0,4,,,,,,,,10,,,31,0
73479,note_on,39,0,6,,,,,,,,0,,,43,0
73499,note_on,59,0,1,,,,,,,,1,,,62,0
73500,note_on,28,0,4,,,,,,,,10,,,33,84
73500,note_on,21,0,6,,,,,,,,0,,,45,72
73515,note_on,75,0,5,,,,,,,,0,,,62,0
73523,note_on,83,0,2,,,,,,,,1,,,59,0
73531,note_on,16,0,5,,,,,,,,0,,,59,0
73531,note_on,31,0,4,,,,,,,,10,,,33,0
73532,note_on,92,0,3,,,,,,,,1,,,55,0
73538,note_on,38,0,6,,,,,,,,0,,,45,0
73560,note_on,29,0,5,,,,,,,,0,,,62,102
73560,note_on,28,0,3,,,,,,,,1,,,50,58
73560,note_on,61,0,1,,,,,,,,1,,,62,99
73560,note_on,29,0,4,,,,,,,,10,,,35,84
73560,note_on,22,0,6,,,,,,,,0,,,47,66
73560,note_on,37,0,2,,,,,,,,1,,,55,74
73560,note_on,0,0,5,,,,,,,,0,,,55,117
73589,note_on,29,0,4,,,,,,,,10,,,35,0
73597,note_on,37,0,6,,,,,,,,0,,,47,0
73599,note_on,39,0,1,,,,,,,,1,,,62,0
73613,note_on,53,0,5,,,,,,,,0,,,62,0
73620,note_on,7,0,5,,,,,,,,0,,,60,79
73620,note_on,21,0,1,,,,,,,,1,,,60,124
73620,note_on,31,0,4,,,,,,,,10,,,33,66
73620,note_on,23,0,6,,,,,,,,0,,,45,58
73626,note_on,66,0,3,,,,,,,,1,,,50,0
73645,note_on,25,0,5,,,,,,,,0,,,55,0
73651,note_on,91,0,2,,,,,,,,1,,,55,0
73660,note_on,40,0,6,,,,,,,,0,,,45,0
73660,note_on,15,0,5,,,,,,,,0,,,60,0
73661,note_on,41,0,4,,,,,,,,10,,,33,0
73665,note_on,45,0,1,,,,,,,,1,,,60,0
73680,note_on,20,0,6,,,,,,,,0,,,43,79
73680,note_on,29,0,2,,,,,,,,1,,,55,120
73680,note_on,15,0,1,,,,,,,,1,,,59,96
73680,note_on,20,0,5,,,,,,,,0,,,55,120
73680,note_on,54,0,3,,,,,,,,1,,,50,51
73680,note_on,19,0,4,,,,,,,,10,,,31,102
73680,note_on,0,0,5,,,,,,,,0,,,59,110
73726,control_change,46,0,4,,,,,,,,10,7,93,,
73726,note_on,46,0,5,,,,,,,,0,,,59,0
73740,note_on,60,0,1,,,,,,,,1,,,59,0
73740,note_on,14,0,5,,,,,,,,0,,,62,110
73756,note_on,76,0,6,,,,,,,,0,,,43,0
73761,note_on,35,0,4,,,,,,,,10,,,31,0
73763,note_on,83,0,2,,,,,,,,1,,,55,0
73785,note_on,45,0,5,,,,,,,,0,,,62,0
73787,note_on,107,0,3,,,,,,,,1,,,50,0
73794,control_change,54,0,1,,,,,,,,1,7,109,,
73800,note_on,37,0,2,,,,,,,,1,,,62,89
73800,note_on,44,0,6,,,,,,,,0,,,55,111
73800,note_on,13,0,3,,,,,,,,1,,,59,55
73800,note_on,39,0,4,,,,,,,,10,,,43,89
73800,note_on,15,0,5,,,,,,,,0,,,67,85
73800,note_on,6,0,1,,,,,,,,1,,,57,127
73839,note_on,39,0,1,,,,,,,,1,,,57,0
73851,control_change,51,0,4,,,,,,,,10,7,91,,
73856,note_on,56,0,5,,,,,,,,0,,,67,0
73860,note_on,4,0,5,,,,,,,,0,,,71,82
73860,note_on,21,0,1,,,,,,,,1,,,55,124
73871,note_on,71,0,2,,,,,,,,1,,,62,0
73877,note_on,77,0,6,,,,,,,,0,,,55,0
73882,control_change,31,0,4,,,,,,,,10,7,90,,
73896,note_on,36,0,5,,,,,,,,0,,,55,0
73897,note_on,15,0,4,,,,,,,,10,,,43,0
73900,note_on,4,0,5,,,,,,,,0,,,71,0
73901,note_on,41,0,1,,,,,,,,1,,,55,0
73920,note_on,49,0,2,,,,,,,,1,,,64,96
73920,note_on,19,0,1,,,,,,,,1,,,72,86
73920,note_on,23,0,4,,,,,,,,10,,,40,96
73920,note_on,43,0,6,,,,,,,,0,,,52,102
73920,note_on,20,0,5,,,,,,,,0,,,72,110
73959,note_on,39,0,1,,,,,,,,1,,,72,0
73972,note_on,52,0,5,,,,,,,,0,,,72,0
73980,note_on,21,0,1,,,,,,,,1,,,74,108
73980,note_on,8,0,5,,,,,,,,0,,,74,75
73989,note_on,69,0,6,,,,,,,,0,,,52,0
73995,note_on,75,0,2,,,,,,,,1,,,64,0
74008,note_on,88,0,4,,,,,,,,10,,,40,0
74020,note_on,40,0,1,,,,,,,,1,,,74,0
74028,note_on,228,0,3,,,,,,,,1,,,59,0
74031,note_on,51,0,5,,,,,,,,0,,,74,0
74040,note_on,45,0,2,,,,,,,,1,,,69,79
74040,note_on,51,0,6,,,,,,,,0,,,54,102
74040,note_on,32,0,4,,,,,,,,10,,,42,117
74040,note_on,20,0,1,,,,,,,,1,,,72,105
74040,note_on,9,0,5,,,,,,,,0,,,72,102
74040,note_on,12,0,3,,,,,,,,1,,,57,69
74082,note_on,42,0,5,,,,,,,,0,,,72,0
74084,note_on,44,0,1,,,,,,,,1,,,72,0
74100,note_on,18,0,5,,,,,,,,0,,,69,110
74100,note_on,16,0,1,,,,,,,,1,,,69,89
74103,note_on,63,0,6,,,,,,,,0,,,54,0
74115,note_on,75,0,4,,,,,,,,10,,,42,0
74135,note_on,35,0,1,,,,,,,,1,,,69,0
74148,note_on,48,0,5,,,,,,,,0,,,69,0
74149,note_on,109,0,3,,,,,,,,1,,,57,0
74160,note_on,25,0,1,,,,,,,,1,,,71,108
74160,note_on,11,0,3,,,,,,,,1,,,50,48
74160,note_on,45,0,4,,,,,,,,10,,,43,99
74160,note_on,57,0,6,,,,,,,,0,,,55,93
74160,note_on,12,0,5,,,,,,,,0,,,71,113
74198,note_on,38,0,1,,,,,,,,1,,,71,0
74205,note_on,45,0,5,,,,,,,,0,,,71,0
74220,note_on,15,0,5,,,,,,,,0,,,72,93
74220,note_on,22,0,1,,,,,,,,1,,,72,99
74232,note_on,72,0,6,,,,,,,,0,,,55,0
74247,note_on,87,0,4,,,,,,,,10,,,43,0
74259,note_on,99,0,3,,,,,,,,1,,,50,0
74262,note_on,222,0,2,,,,,,,,1,,,69,0
74265,note_on,45,0,5,,,,,,,,0,,,72,0
74266,note_on,46,0,1,,,,,,,,1,,,72,0
74280,note_on,48,0,6,,,,,,,,0,,,43,102
74280,note_on,21,0,3,,,,,,,,1,,,62,64
74280,note_on,33,0,4,,,,,,,,10,,,31,96
74280,note_on,15,0,5,,,,,,,,0,,,71,90
74280,note_on,18,0,2,,,,,,,,1,,,67,89
74280,note_on,14,0,1,,,,,,,,1,,,71,102
74319,note_on,39,0,5,,,,,,,,0,,,71,0
74325,note_on,45,0,1,,,,,,,,1,,,71,0
74340,note_on,21,0,5,,,,,,,,0,,,67,96
74340,note_on,15,0,1,,,,,,,,1,,,67,105
74350,note_on,70,0,6,,,,,,,,0,,,43,0
74370,note_on,90,0,4,,,,,,,,10,,,31,0
74372,note_on,92,0,3,,,,,,,,1,,,62,0
74377,note_on,37,0,1,,,,,,,,1,,,67,0
74379,note_on,39,0,5,,,,,,,,0,,,67,0
74381,note_on,101,0,2,,,,,,,,1,,,67,0
74400,note_on,30,0,4,,,,,,,,10,,,38,108
74400,note_on,28,0,3,,,,,,,,1,,,62,74
74400,note_on,50,0,6,,,,,,,,0,,,50,96
74400,note_on,23,0,1,,,,,,,,1,,,69,124
74400,note_on,19,0,2,,,,,,,,1,,,66,96
74400,note_on,21,0,5,,,,,,,,0,,,69,102
74440,note_on,40,0,5,,,,,,,,0,,,69,0
74441,note_on,41,0,1,,,,,,,,1,,,69,0
74460,note_on,19,0,1,,,,,,,,1,,,62,84
74460,note_on,20,0,5,,,,,,,,0,,,62,127
74498,control_change,98,0,4,,,,,,,,10,7,88,,
74503,note_on,43,0,1,,,,,,,,1,,,62,0
74505,note_on,45,0,5,,,,,,,,0,,,62,0
74520,note_on,17,0,1,,,,,,,,1,,,64,105
74520,note_on,15,0,5,,,,,,,,0,,,64,90
74538,control_change,18,0,1,,,,,,,,1,7,110,,
74562,note_on,24,0,1,,,,,,,,1,,,64,0
74568,note_on,48,0,5,,,,,,,,0,,,64,0
74580,note_on,18,0,1,,,,,,,,1,,,66,93
74580,note_on,12,0,5,,,,,,,,0,,,66,85
74616,note_on,216,0,6,,,,,,,,0,,,50,0
74616,note_on,216,0,3,,,,,,,,1,,,62,0
74616,note_on,216,0,2,,,,,,,,1,,,66,0
74616,note_on,118,0,4,,,,,,,,10,,,38,0
74619,note_on,39,0,1,,,,,,,,1,,,66,0
74629,note_on,49,0,5,,,,,,,,0,,,66,0
74640,note_on,21,0,1,,,,,,,,1,,,67,127
74640,note_on,11,0,5,,,,,,,,0,,,67,110
74642,control_change,26,0,4,,,,,,,,10,7,87,,
74645,control_change,5,0,1,,,,,,,,1,7,112,,
74672,note_on,27,0,1,,,,,,,,1,,,67,0
74677,control_change,5,0,1,,,,,,,,1,7,113,,
74690,note_on,50,0,5,,,,,,,,0,,,67,0
74700,note_on,23,0,1,,,,,,,,1,,,69,93
74700,note_on,84,0,6,,,,,,,,0,,,52,102
74700,note_on,10,0,5,,,,,,,,0,,,69,110
74722,control_change,80,0,4,,,,,,,,10,7,85,,
74733,note_on,33,0,1,,,,,,,,1,,,69,0
74739,control_change,17,0,4,,,,,,,,10,7,84,,
74745,note_on,45,0,6,,,,,,,,0,,,52,0
74746,note_on,46,0,5,,,,,,,,0,,,69,0
74747,control_change,8,0,4,,,,,,,,10,7,82,,
74760,note_on,27,0,1,,,,,,,,1,,,71,105
74760,note_on,14,0,5,,,,,,,,0,,,71,110
74760,note_on,15,0,6,,,,,,,,0,,,50,89
74764,control_change,17,0,4,,,,,,,,10,7,81,,
74795,note_on,35,0,1,,,,,,,,1,,,71,0
74798,note_on,38,0,6,,,,,,,,0,,,50,0
74804,note_on,44,0,5,,,,,,,,0,,,71,0
74804,control_change,40,0,4,,,,,,,,10,7,79,,
74813,control_change,9,0,4,,,,,,,,10,7,76,,
74820,note_on,16,0,5,,,,,,,,0,,,72,110
74820,note_on,25,0,1,,,,,,,,1,,,72,117
74820,note_on,22,0,6,,,,,,,,0,,,48,81
74822,control_change,9,0,4,,,,,,,,10,7,75,,
74854,note_on,34,0,1,,,,,,,,1,,,72,0
74856,note_on,36,0,6,,,,,,,,0,,,48,0
74862,note_on,42,0,5,,,,,,,,0,,,72,0
74880,note_on,26,0,1,,,,,,,,1,,,74,66
74880,note_on,24,0,6,,,,,,,,0,,,47,111
74880,note_on,264,0,2,,,,,,,,1,,,71,127
74880,note_on,18,0,5,,,,,,,,0,,,74,75
74880,note_on,58,0,4,,,,,,,,10,,,35,125
74880,note_on,264,0,3,,,,,,,,1,,,66,84
74908,note_on,28,0,2,,,,,,,,1,,,71,0
74908,note_on,28,0,1,,,,,,,,1,,,74,0
74909,note_on,29,0,3,,,,,,,,1,,,66,0
74916,note_on,36,0,4,,,,,,,,10,,,35,0
74916,note_on,36,0,5,,,,,,,,0,,,74,0
74920,note_on,40,0,6,,,,,,,,0,,,47,0
74940,note_on,20,0,6,,,,,,,,0,,,48,86
74940,note_on,24,0,5,,,,,,,,0,,,62,73
74940,note_on,31,0,3,,,,,,,,1,,,66,96
74940,note_on,32,0,1,,,,,,,,1,,,74,69
74940,note_on,24,0,4,,,,,,,,10,,,36,99
74940,note_on,32,0,2,,,,,,,,1,,,71,81
74961,control_change,21,0,4,,,,,,,,10,7,76,,
74967,note_on,27,0,5,,,,,,,,0,,,62,0
74970,note_on,30,0,2,,,,,,,,1,,,71,0
74970,control_change,9,0,4,,,,,,,,10,7,77,,
74971,note_on,31,0,3,,,,,,,,1,,,66,0
74975,note_on,35,0,1,,,,,,,,1,,,74,0
74978,note_on,8,0,4,,,,,,,,10,,,36,0
74980,note_on,40,0,6,,,,,,,,0,,,48,0
75000,note_on,29,0,3,,,,,,,,1,,,66,86
75000,note_on,30,0,2,,,,,,,,1,,,71,89
75000,note_on,20,0,6,,,,,,,,0,,,50,111
75000,note_on,33,0,5,,,,,,,,0,,,74,117
75000,note_on,22,0,4,,,,,,,,10,,,38,125
75000,note_on,25,0,1,,,,,,,,1,,,74,84
75013,control_change,13,0,4,,,,,,,,10,7,79,,
75024,control_change,11,0,4,,,,,,,,10,7,80,,
75028,note_on,28,0,2,,,,,,,,1,,,71,0
75030,note_on,30,0,5,,,,,,,,0,,,74,0
75031,note_on,31,0,3,,,,,,,,1,,,66,0
75034,note_on,34,0,1,,,,,,,,1,,,74,0
75035,control_change,11,0,4,,,,,,,,10,7,82,,
75042,note_on,7,0,4,,,,,,,,10,,,38,0
75044,note_on,44,0,6,,,,,,,,0,,,50,0
75053,control_change,11,0,4,,,,,,,,10,7,83,,
75060,note_on,7,0,4,,,,,,,,10,,,40,127
75060,note_on,26,0,1,,,,,,,,1,,,74,91
75060,note_on,16,0,6,,,,,,,,0,,,52,96
75060,note_on,29,0,3,,,,,,,,1,,,66,117
75060,note_on,30,0,5,,,,,,,,0,,,62,88
75060,note_on,32,0,2,,,,,,,,1,,,71,117
75077,control_change,17,0,4,,,,,,,,10,7,85,,
75086,note_on,26,0,2,,,,,,,,1,,,71,0
75086,note_on,26,0,5,,,,,,,,0,,,62,0
75091,note_on,31,0,1,,,,,,,,1,,,74,0
75095,note_on,35,0,6,,,,,,,,0,,,52,0
75096,note_on,36,0,3,,,,,,,,1,,,66,0
75096,note_on,19,0,4,,,,,,,,10,,,40,0
75097,control_change,1,0,4,,,,,,,,10,7,86,,
75106,control_change,9,0,4,,,,,,,,10,7,88,,
75115,control_change,9,0,4,,,,,,,,10,7,89,,
75120,note_on,25,0,6,,,,,,,,0,,,54,77
75120,note_on,5,0,4,,,,,,,,10,,,42,127
75120,note_on,24,0,3,,,,,,,,1,,,66,123
75120,note_on,29,0,1,,,,,,,,1,,,74,114
75120,note_on,34,0,5,,,,,,,,0,,,74,120
75120,note_on,34,0,2,,,,,,,,1,,,71,102
75149,note_on,29,0,1,,,,,,,,1,,,74,0
75149,note_on,29,0,5,,,,,,,,0,,,74,0
75150,note_on,30,0,2,,,,,,,,1,,,71,0
75152,control_change,32,0,4,,,,,,,,10,7,91,,
75155,note_on,35,0,3,,,,,,,,1,,,66,0
75162,note_on,42,0,6,,,,,,,,0,,,54,0
75166,note_on,14,0,4,,,,,,,,10,,,42,0
75168,control_change,2,0,4,,,,,,,,10,7,92,,
75180,note_on,30,0,2,,,,,,,,1,,,71,127
75180,note_on,12,0,4,,,,,,,,10,,,43,105
75180,note_on,25,0,3,,,,,,,,1,,,66,127
75180,note_on,18,0,6,,,,,,,,0,,,55,111
75180,note_on,31,0,1,,,,,,,,1,,,74,127
75180,note_on,31,0,5,,,,,,,,0,,,62,110
75199,control_change,19,0,4,,,,,,,,10,7,94,,
75209,note_on,29,0,5,,,,,,,,0,,,62,0
75210,note_on,30,0,1,,,,,,,,1,,,74,0
75211,note_on,31,0,2,,,,,,,,1,,,71,0
75215,note_on,35,0,3,,,,,,,,1,,,66,0
75218,note_on,38,0,6,,,,,,,,0,,,55,0
75219,note_on,20,0,4,,,,,,,,10,,,43,0
75223,control_change,4,0,4,,,,,,,,10,7,95,,
75239,aftertouch,24,0,3,,,,,,,,1,,44,,
75240,note_on,1,0,3,,,,,,,,1,,,66,127
75240,note_on,29,0,2,,,,,,,,1,,,71,117
75240,note_on,30,0,1,,,,,,,,1,,,74,127
75240,note_on,17,0,4,,,,,,,,10,,,45,93
75240,note_on,31,0,5,,,,,,,,0,,,74,124
75240,note_on,22,0,6,,,,,,,,0,,,57,99
75246,aftertouch,6,0,3,,,,,,,,1,,0,,
75248,aftertouch,8,0,5,,,,,,,,0,,22,,
75249,aftertouch,9,0,4,,,,,,,,10,,22,,
75249,aftertouch,3,0,3,,,,,,,,1,,22,,
75249,aftertouch,1,0,5,,,,,,,,0,,22,,
75249,aftertouch,9,0,6,,,,,,,,0,,22,,
75255,aftertouch,6,0,3,,,,,,,,1,,0,,
75256,aftertouch,1,0,3,,,,,,,,1,,11,,
75256,aftertouch,7,0,5,,,,,,,,0,,11,,
75257,aftertouch,8,0,4,,,,,,,,10,,11,,
75257,aftertouch,1,0,5,,,,,,,,0,,11,,
75257,aftertouch,8,0,6,,,,,,,,0,,11,,
75263,aftertouch,7,0,3,,,,,,,,1,,0,,
75265,aftertouch,8,0,6,,,,,,,,0,,5,,
75265,aftertouch,8,0,5,,,,,,,,0,,5,,
75265,control_change,8,0,4,,,,,,,,10,7,97,,
75266,aftertouch,1,0,5,,,,,,,,0,,5,,
75266,aftertouch,1,0,4,,,,,,,,10,,5,,
75266,aftertouch,3,0,3,,,,,,,,1,,5,,
75269,note_on,29,0,1,,,,,,,,1,,,74,0
75270,note_on,30,0,2,,,,,,,,1,,,71,0
75271,aftertouch,5,0,3,,,,,,,,1,,0,,
75272,note_on,7,0,6,,,,,,,,0,,,57,0
75274,note_on,8,0,4,,,,,,,,10,,,45,0
75274,note_on,3,0,3,,,,,,,,1,,,66,0
75291,control_change,17,0,4,,,,,,,,10,7,98,,
75293,aftertouch,24,0,1,,,,,,,,1,,12,,
75300,note_on,26,0,3,,,,,,,,1,,,66,127
75300,note_on,30,0,2,,,,,,,,1,,,71,77
75300,note_on,28,0,6,,,,,,,,0,,,59,86
75300,note_on,7,0,1,,,,,,,,1,,,74,127
75300,note_on,9,0,4,,,,,,,,10,,,47,102
75301,aftertouch,1,0,1,,,,,,,,1,,0,,
75303,aftertouch,3,0,3,,,,,,,,1,,6,,
75303,aftertouch,3,0,6,,,,,,,,0,,6,,
75303,aftertouch,37,0,5,,,,,,,,0,,6,,
75304,aftertouch,4,0,4,,,,,,,,10,,6,,
75304,aftertouch,4,0,2,,,,,,,,1,,6,,
75304,aftertouch,1,0,5,,,,,,,,0,,6,,
75304,aftertouch,3,0,1,,,,,,,,1,,6,,
75309,control_change,5,0,4,,,,,,,,10,7,100,,
75312,aftertouch,8,0,1,,,,,,,,1,,0,,
75313,aftertouch,10,0,3,,,,,,,,1,,3,,
75314,aftertouch,10,0,2,,,,,,,,1,,3,,
75314,aftertouch,10,0,5,,,,,,,,0,,3,,
75314,aftertouch,11,0,6,,,,,,,,0,,3,,
75314,aftertouch,5,0,4,,,,,,,,10,,3,,
75314,aftertouch,2,0,1,,,,,,,,1,,3,,
75317,aftertouch,3,0,1,,,,,,,,1,,0,,
75317,control_change,3,0,4,,,,,,,,10,7,99,,
75328,note_on,11,0,1,,,,,,,,1,,,74,0
75332,note_on,19,0,3,,,,,,,,1,,,66,0
75337,note_on,23,0,6,,,,,,,,0,,,59,0
75339,note_on,25,0,2,,,,,,,,1,,,71,0
75345,note_on,31,0,5,,,,,,,,0,,,74,0
75346,note_on,29,0,4,,,,,,,,10,,,47,0
75349,control_change,3,0,4,,,,,,,,10,7,101,,
75360,note_on,32,0,1,,,,,,,,1,,,74,127
75360,note_on,11,0,4,,,,,,,,10,,,40,127
75360,note_on,21,0,2,,,,,,,,1,,,68,127
75360,note_on,28,0,3,,,,,,,,1,,,64,127
75360,note_on,23,0,6,,,,,,,,0,,,52,105
75365,control_change,5,0,4,,,,,,,,10,7,97,,
75379,control_change,14,0,4,,,,,,,,10,7,96,,
75392,control_change,13,0,4,,,,,,,,10,7,94,,
75417,control_change,25,0,4,,,,,,,,10,7,93,,
75420,note_on,75,0,5,,,,,,,,0,,,77,120
75421,note_on,61,0,6,,,,,,,,0,,,52,0
75447,control_change,30,0,4,,,,,,,,10,7,91,,
75458,note_on,38,0,5,,,,,,,,0,,,77,0
75464,control_change,17,0,4,,,,,,,,10,7,90,,
75472,control_change,8,0,4,,,,,,,,10,7,88,,
75480,note_on,59,0,6,,,,,,,,0,,,64,96
75480,note_on,22,0,5,,,,,,,,0,,,80,106
75525,note_on,45,0,5,,,,,,,,0,,,80,0
75540,note_on,15,0,5,,,,,,,,0,,,81,127
75554,note_on,74,0,6,,,,,,,,0,,,64,0
75576,note_on,216,0,3,,,,,,,,1,,,64,0
75576,note_on,216,0,1,,,,,,,,1,,,74,0
75576,note_on,104,0,4,,,,,,,,10,,,40,0
75576,note_on,216,0,2,,,,,,,,1,,,68,0
75592,note_on,52,0,5,,,,,,,,0,,,81,0
75600,note_on,8,0,5,,,,,,,,0,,,83,88
75608,control_change,32,0,4,,,,,,,,10,7,87,,
75631,control_change,23,0,4,,,,,,,,10,7,85,,
75642,note_on,42,0,5,,,,,,,,0,,,83,0
75644,control_change,13,0,4,,,,,,,,10,7,84,,
75660,note_on,18,0,5,,,,,,,,0,,,77,90
75660,note_on,106,0,6,,,,,,,,0,,,50,89
75662,control_change,18,0,4,,,,,,,,10,7,82,,
75671,control_change,9,0,4,,,,,,,,10,7,81,,
75693,control_change,22,0,4,,,,,,,,10,7,79,,
75704,control_change,11,0,4,,,,,,,,10,7,78,,
75704,note_on,44,0,6,,,,,,,,0,,,50,0
75704,note_on,44,0,5,,,,,,,,0,,,77,0
75720,note_on,16,0,6,,,,,,,,0,,,48,69
75720,note_on,16,0,5,,,,,,,,0,,,76,75
75721,control_change,17,0,4,,,,,,,,10,7,76,,
75742,control_change,21,0,4,,,,,,,,10,7,75,,
75759,control_change,183,0,1,,,,,,,,1,7,111,,
75764,note_on,44,0,6,,,,,,,,0,,,48,0
75771,note_on,51,0,5,,,,,,,,0,,,76,0
75772,control_change,30,0,4,,,,,,,,10,7,73,,
75780,note_on,16,0,6,,,,,,,,0,,,47,84
75780,note_on,9,0,5,,,,,,,,0,,,74,82
75808,note_on,28,0,5,,,,,,,,0,,,74,0
75824,note_on,44,0,6,,,,,,,,0,,,47,0
75839,aftertouch,80,0,1,,,,,,,,1,,31,,
75840,note_on,264,0,2,,,,,,,,1,,,69,127
75840,note_on,68,0,4,,,,,,,,10,,,33,102
75840,note_on,16,0,6,,,,,,,,0,,,45,99
75840,note_on,1,0,1,,,,,,,,1,,,72,127
75840,note_on,264,0,3,,,,,,,,1,,,64,74
75840,note_on,32,0,5,,,,,,,,0,,,72,66
75847,aftertouch,7,0,1,,,,,,,,1,,0,,
75849,aftertouch,9,0,4,,,,,,,,10,,15,,
75849,aftertouch,9,0,6,,,,,,,,0,,15,,
75849,aftertouch,0,0,5,,,,,,,,0,,15,,
75849,aftertouch,9,0,5,,,,,,,,0,,15,,
75849,aftertouch,9,0,3,,,,,,,,1,,15,,
75849,aftertouch,2,0,1,,,,,,,,1,,15,,
75849,aftertouch,9,0,2,,,,,,,,1,,15,,
75854,control_change,5,0,1,,,,,,,,1,7,110,,
75858,aftertouch,4,0,1,,,,,,,,1,,0,,
75859,aftertouch,10,0,6,,,,,,,,0,,7,,
75860,aftertouch,11,0,4,,,,,,,,10,,7,,
75860,aftertouch,2,0,1,,,,,,,,1,,7,,
75860,aftertouch,11,0,3,,,,,,,,1,,7,,
75860,aftertouch,11,0,5,,,,,,,,0,,7,,
75860,aftertouch,0,0,5,,,,,,,,0,,7,,
75860,aftertouch,11,0,2,,,,,,,,1,,7,,
75867,aftertouch,7,0,1,,,,,,,,1,,0,,
75867,note_on,7,0,3,,,,,,,,1,,,64,0
75870,note_on,10,0,2,,,,,,,,1,,,69,0
75870,note_on,3,0,1,,,,,,,,1,,,72,0
75879,note_on,19,0,5,,,,,,,,0,,,72,0
75883,note_on,23,0,4,,,,,,,,10,,,33,0
75886,note_on,27,0,6,,,,,,,,0,,,45,0
75900,note_on,17,0,4,,,,,,,,10,,,35,91
75900,note_on,30,0,2,,,,,,,,1,,,69,89
75900,note_on,33,0,3,,,,,,,,1,,,64,51
75900,note_on,14,0,6,,,,,,,,0,,,47,108
75900,note_on,30,0,1,,,,,,,,1,,,72,99
75900,note_on,21,0,5,,,,,,,,0,,,60,82
75929,note_on,29,0,2,,,,,,,,1,,,69,0
75930,note_on,30,0,5,,,,,,,,0,,,60,0
75931,note_on,31,0,1,,,,,,,,1,,,72,0
75934,note_on,34,0,3,,,,,,,,1,,,64,0
75941,note_on,41,0,4,,,,,,,,10,,,35,0
75944,note_on,44,0,6,,,,,,,,0,,,47,0
75960,note_on,30,0,5,,,,,,,,0,,,72,79
75960,note_on,26,0,3,,,,,,,,1,,,64,69
75960,note_on,16,0,6,,,,,,,,0,,,48,111
75960,note_on,31,0,2,,,,,,,,1,,,69,86
75960,note_on,29,0,1,,,,,,,,1,,,72,111
75960,note_on,19,0,4,,,,,,,,10,,,36,102
75962,control_change,2,0,4,,,,,,,,10,7,74,,
75976,control_change,14,0,4,,,,,,,,10,7,76,,
75987,control_change,11,0,4,,,,,,,,10,7,77,,
75989,note_on,29,0,1,,,,,,,,1,,,72,0
75992,note_on,32,0,2,,,,,,,,1,,,69,0
75992,note_on,32,0,5,,,,,,,,0,,,72,0
75995,note_on,35,0,3,,,,,,,,1,,,64,0
76006,note_on,19,0,4,,,,,,,,10,,,36,0
76009,control_change,3,0,4,,,,,,,,10,7,79,,
76013,note_on,53,0,6,,,,,,,,0,,,48,0
76019,control_change,10,0,4,,,,,,,,10,7,80,,
76020,note_on,7,0,6,,,,,,,,0,,,50,84
76020,note_on,28,0,5,,,,,,,,0,,,60,79
76020,note_on,1,0,4,,,,,,,,10,,,38,127
76020,note_on,31,0,1,,,,,,,,1,,,72,120
76020,note_on,28,0,2,,,,,,,,1,,,69,102
76020,note_on,25,0,3,,,,,,,,1,,,64,64
76036,control_change,16,0,4,,,,,,,,10,7,82,,
76039,note_on,19,0,5,,,,,,,,0,,,60,0
76046,note_on,26,0,1,,,,,,,,1,,,72,0
76051,note_on,31,0,3,,,,,,,,1,,,64,0
76052,note_on,32,0,2,,,,,,,,1,,,69,0
76053,control_change,17,0,4,,,,,,,,10,7,83,,
76055,note_on,2,0,4,,,,,,,,10,,,38,0
76062,note_on,42,0,6,,,,,,,,0,,,50,0
76080,note_on,18,0,6,,,,,,,,0,,,52,117
76080,note_on,28,0,2,,,,,,,,1,,,69,117
76080,note_on,34,0,1,,,,,,,,1,,,72,114
76080,note_on,41,0,5,,,,,,,,0,,,72,102
76080,note_on,29,0,3,,,,,,,,1,,,64,72
76080,note_on,25,0,4,,,,,,,,10,,,40,125
76083,control_change,3,0,4,,,,,,,,10,7,85,,
76103,control_change,20,0,4,,,,,,,,10,7,86,,
76107,note_on,27,0,1,,,,,,,,1,,,72,0
76109,note_on,29,0,5,,,,,,,,0,,,72,0
76111,note_on,31,0,2,,,,,,,,1,,,69,0
76112,note_on,32,0,3,,,,,,,,1,,,64,0
76115,note_on,12,0,4,,,,,,,,10,,,40,0
76116,control_change,1,0,4,,,,,,,,10,7,88,,
76118,note_on,38,0,6,,,,,,,,0,,,52,0
76125,control_change,9,0,4,,,,,,,,10,7,89,,
76140,note_on,15,0,4,,,,,,,,10,,,42,127
76140,note_on,22,0,6,,,,,,,,0,,,54,127
76140,note_on,28,0,3,,,,,,,,1,,,64,89
76140,note_on,33,0,1,,,,,,,,1,,,72,120
76140,note_on,29,0,2,,,,,,,,1,,,69,111
76140,note_on,31,0,5,,,,,,,,0,,,60,79
76166,note_on,26,0,1,,,,,,,,1,,,72,0
76167,control_change,27,0,4,,,,,,,,10,7,91,,
76171,note_on,31,0,2,,,,,,,,1,,,69,0
76171,note_on,31,0,3,,,,,,,,1,,,64,0
76171,note_on,31,0,5,,,,,,,,0,,,60,0
76182,note_on,42,0,6,,,,,,,,0,,,54,0
76185,note_on,18,0,4,,,,,,,,10,,,42,0
76185,control_change,0,0,4,,,,,,,,10,7,92,,
76200,note_on,29,0,2,,,,,,,,1,,,69,89
76200,note_on,34,0,1,,,,,,,,1,,,72,127
76200,note_on,29,0,3,,,,,,,,1,,,64,102
76200,note_on,29,0,5,,,,,,,,0,,,72,117
76200,note_on,15,0,4,,,,,,,,10,,,43,127
76200,note_on,18,0,6,,,,,,,,0,,,55,108
76204,aftertouch,4,0,1,,,,,,,,1,,0,,
76205,aftertouch,5,0,4,,,,,,,,10,,0,,
76206,aftertouch,2,0,1,,,,,,,,1,,25,,
76206,aftertouch,1,0,4,,,,,,,,10,,25,,
76206,aftertouch,6,0,3,,,,,,,,1,,25,,
76206,aftertouch,6,0,2,,,,,,,,1,,25,,
76214,aftertouch,8,0,1,,,,,,,,1,,0,,
76215,control_change,9,0,4,,,,,,,,10,7,94,,
76216,aftertouch,2,0,1,,,,,,,,1,,12,,
76216,aftertouch,10,0,3,,,,,,,,1,,12,,
76216,aftertouch,10,0,2,,,,,,,,1,,12,,
76216,aftertouch,1,0,4,,,,,,,,10,,12,,
76225,aftertouch,9,0,1,,,,,,,,1,,0,,
76226,aftertouch,10,0,3,,,,,,,,1,,6,,
76227,aftertouch,0,0,1,,,,,,,,1,,6,,
76227,aftertouch,11,0,4,,,,,,,,10,,6,,
76227,aftertouch,11,0,2,,,,,,,,1,,6,,
76227,note_on,2,0,1,,,,,,,,1,,,72,0
76229,note_on,2,0,2,,,,,,,,1,,,69,0
76231,note_on,5,0,3,,,,,,,,1,,,64,0
76235,aftertouch,8,0,1,,,,,,,,1,,0,,
76237,control_change,10,0,4,,,,,,,,10,7,95,,
76238,aftertouch,7,0,3,,,,,,,,1,,3,,
76238,aftertouch,9,0,2,,,,,,,,1,,3,,
76238,aftertouch,3,0,1,,,,,,,,1,,3,,
76238,aftertouch,1,0,4,,,,,,,,10,,3,,
76242,note_on,42,0,6,,,,,,,,0,,,55,0
76246,aftertouch,8,0,1,,,,,,,,1,,0,,
76246,note_on,8,0,4,,,,,,,,10,,,43,0
76248,aftertouch,2,0,1,,,,,,,,1,,1,,
76248,aftertouch,10,0,3,,,,,,,,1,,1,,
76249,aftertouch,11,0,2,,,,,,,,1,,1,,
76249,aftertouch,3,0,4,,,,,,,,10,,1,,
76255,aftertouch,7,0,1,,,,,,,,1,,0,,
76260,note_on,11,0,4,,,,,,,,10,,,45,127
76260,note_on,5,0,1,,,,,,,,1,,,72,99
76260,note_on,12,0,3,,,,,,,,1,,,64,123
76260,note_on,11,0,2,,,,,,,,1,,,69,84
76260,note_on,18,0,6,,,,,,,,0,,,57,108
76279,note_on,79,0,5,,,,,,,,0,,,72,0
76283,note_on,23,0,1,,,,,,,,1,,,72,0
76285,control_change,25,0,4,,,,,,,,10,7,97,,
76288,note_on,28,0,2,,,,,,,,1,,,69,0
76298,control_change,13,0,4,,,,,,,,10,7,98,,
76298,note_on,38,0,3,,,,,,,,1,,,64,0
76299,note_on,1,0,4,,,,,,,,10,,,45,0
76304,note_on,44,0,6,,,,,,,,0,,,57,0
76307,control_change,8,0,4,,,,,,,,10,7,100,,
76315,aftertouch,32,0,1,,,,,,,,1,,38,,
76316,control_change,9,0,4,,,,,,,,10,7,99,,
76320,note_on,32,0,2,,,,,,,,1,,,69,127
76320,note_on,5,0,1,,,,,,,,1,,,72,127
76320,note_on,22,0,3,,,,,,,,1,,,66,127
76320,note_on,16,0,6,,,,,,,,0,,,50,86
76320,note_on,4,0,4,,,,,,,,10,,,38,126
76325,control_change,5,0,4,,,,,,,,10,7,97,,
76326,aftertouch,6,0,6,,,,,,,,0,,25,,
76326,aftertouch,47,0,5,,,,,,,,0,,25,,
76333,control_change,8,0,4,,,,,,,,10,7,96,,
76335,aftertouch,9,0,6,,,,,,,,0,,12,,
76336,aftertouch,10,0,5,,,,,,,,0,,12,,
76336,aftertouch,0,0,5,,,,,,,,0,,12,,
76342,control_change,9,0,4,,,,,,,,10,7,94,,
76347,aftertouch,11,0,5,,,,,,,,0,,6,,
76347,aftertouch,12,0,6,,,,,,,,0,,6,,
76350,control_change,8,0,4,,,,,,,,10,7,93,,
76358,aftertouch,0,0,5,,,,,,,,0,,3,,
76358,aftertouch,11,0,6,,,,,,,,0,,3,,
76358,aftertouch,11,0,5,,,,,,,,0,,3,,
76359,control_change,9,0,4,,,,,,,,10,7,91,,
76367,control_change,8,0,4,,,,,,,,10,7,90,,
76369,aftertouch,0,0,5,,,,,,,,0,,1,,
76369,aftertouch,11,0,5,,,,,,,,0,,1,,
76369,aftertouch,11,0,6,,,,,,,,0,,1,,
76376,control_change,9,0,4,,,,,,,,10,7,88,,
76380,note_on,11,0,5,,,,,,,,0,,,74,127
76385,control_change,9,0,4,,,,,,,,10,7,87,,
76394,note_on,25,0,6,,,,,,,,0,,,50,0
76395,note_on,15,0,5,,,,,,,,0,,,74,0
76406,control_change,21,0,4,,,,,,,,10,7,85,,
76410,note_on,15,0,5,,,,,,,,0,,,76,110
76423,control_change,17,0,4,,,,,,,,10,7,84,,
76427,note_on,17,0,5,,,,,,,,0,,,76,0
76440,note_on,46,0,6,,,,,,,,0,,,62,127
76440,note_on,13,0,5,,,,,,,,0,,,78,127
76477,note_on,37,0,5,,,,,,,,0,,,78,0
76500,note_on,23,0,5,,,,,,,,0,,,79,102
76517,note_on,77,0,6,,,,,,,,0,,,62,0
76536,note_on,113,0,4,,,,,,,,10,,,38,0
76536,note_on,216,0,1,,,,,,,,1,,,72,0
76536,note_on,216,0,3,,,,,,,,1,,,66,0
76536,note_on,216,0,2,,,,,,,,1,,,69,0
76548,note_on,48,0,5,,,,,,,,0,,,79,0
76560,note_on,12,0,5,,,,,,,,0,,,81,85
76561,control_change,25,0,4,,,,,,,,10,7,82,,
76586,control_change,25,0,4,,,,,,,,10,7,81,,
76604,note_on,44,0,5,,,,,,,,0,,,81,0
76620,note_on,16,0,5,,,,,,,,0,,,76,85
76620,note_on,103,0,6,,,,,,,,0,,,48,84
76649,control_change,63,0,4,,,,,,,,10,7,79,,
76652,note_on,32,0,5,,,,,,,,0,,,76,0
76666,note_on,46,0,6,,,,,,,,0,,,48,0
76680,note_on,28,0,5,,,,,,,,0,,,74,40
76680,note_on,14,0,6,,,,,,,,0,,,47,79
76696,control_change,47,0,4,,,,,,,,10,7,78,,
76706,control_change,10,0,4,,,,,,,,10,7,76,,
76713,note_on,33,0,5,,,,,,,,0,,,74,0
76718,note_on,38,0,6,,,,,,,,0,,,47,0
76740,note_on,22,0,6,,,,,,,,0,,,45,72
76740,note_on,27,0,5,,,,,,,,0,,,72,63
76742,control_change,36,0,4,,,,,,,,10,7,75,,
76759,note_on,19,0,5,,,,,,,,0,,,72,0
76777,note_on,37,0,6,,,,,,,,0,,,45,0
76800,note_on,264,0,1,,,,,,,,1,,,71,127
76800,note_on,41,0,5,,,,,,,,0,,,71,63
76800,note_on,264,0,2,,,,,,,,1,,,67,96
76800,note_on,23,0,6,,,,,,,,0,,,43,72
76800,note_on,58,0,4,,,,,,,,10,,,31,127
76800,note_on,264,0,3,,,,,,,,1,,,62,102
76828,note_on,28,0,2,,,,,,,,1,,,67,0
76829,note_on,29,0,1,,,,,,,,1,,,71,0
76830,note_on,30,0,3,,,,,,,,1,,,62,0
76836,note_on,36,0,5,,,,,,,,0,,,71,0
76840,note_on,40,0,4,,,,,,,,10,,,31,0
76846,note_on,46,0,6,,,,,,,,0,,,43,0
76860,note_on,24,0,5,,,,,,,,0,,,59,82
76860,note_on,32,0,2,,,,,,,,1,,,67,79
76860,note_on,20,0,4,,,,,,,,10,,,33,102
76860,note_on,14,0,6,,,,,,,,0,,,45,79
76860,note_on,30,0,3,,,,,,,,1,,,62,72
76860,note_on,31,0,1,,,,,,,,1,,,71,124
76888,note_on,28,0,2,,,,,,,,1,,,67,0
76889,note_on,29,0,1,,,,,,,,1,,,71,0
76890,note_on,30,0,5,,,,,,,,0,,,59,0
76891,note_on,31,0,3,,,,,,,,1,,,62,0
76899,note_on,39,0,6,,,,,,,,0,,,45,0
76902,note_on,42,0,4,,,,,,,,10,,,33,0
76916,control_change,14,0,4,,,,,,,,10,7,76,,
76920,note_on,32,0,2,,,,,,,,1,,,67,79
76920,note_on,4,0,4,,,,,,,,10,,,35,124
76920,note_on,31,0,1,,,,,,,,1,,,71,102
76920,note_on,30,0,5,,,,,,,,0,,,71,85
76920,note_on,21,0,6,,,,,,,,0,,,47,89
76920,note_on,29,0,3,,,,,,,,1,,,62,79
76928,control_change,8,0,4,,,,,,,,10,7,77,,
76949,note_on,29,0,2,,,,,,,,1,,,67,0
76950,note_on,30,0,1,,,,,,,,1,,,71,0
76953,note_on,33,0,5,,,,,,,,0,,,71,0
76955,control_change,27,0,4,,,,,,,,10,7,79,,
76956,note_on,36,0,3,,,,,,,,1,,,62,0
76960,note_on,40,0,6,,,,,,,,0,,,47,0
76963,note_on,8,0,4,,,,,,,,10,,,35,0
76965,control_change,2,0,4,,,,,,,,10,7,80,,
76977,control_change,12,0,4,,,,,,,,10,7,82,,
76980,note_on,27,0,5,,,,,,,,0,,,59,79
76980,note_on,3,0,4,,,,,,,,10,,,36,124
76980,note_on,24,0,3,,,,,,,,1,,,62,93
76980,note_on,31,0,2,,,,,,,,1,,,67,69
76980,note_on,30,0,1,,,,,,,,1,,,71,114
76980,note_on,20,0,6,,,,,,,,0,,,48,89
76989,control_change,9,0,4,,,,,,,,10,7,83,,
77009,note_on,29,0,3,,,,,,,,1,,,62,0
77009,note_on,29,0,1,,,,,,,,1,,,71,0
77011,note_on,31,0,2,,,,,,,,1,,,67,0
77015,note_on,26,0,4,,,,,,,,10,,,36,0
77015,note_on,35,0,5,,,,,,,,0,,,59,0
77018,note_on,38,0,6,,,,,,,,0,,,48,0
77025,control_change,10,0,4,,,,,,,,10,7,85,,
77040,note_on,22,0,6,,,,,,,,0,,,50,111
77040,note_on,31,0,3,,,,,,,,1,,,62,86
77040,note_on,25,0,5,,,,,,,,0,,,71,88
77040,note_on,29,0,2,,,,,,,,1,,,67,84
77040,note_on,31,0,1,,,,,,,,1,,,71,93
77040,note_on,15,0,4,,,,,,,,10,,,38,102
77044,control_change,4,0,4,,,,,,,,10,7,86,,
77060,control_change,16,0,4,,,,,,,,10,7,88,,
77069,note_on,29,0,3,,,,,,,,1,,,62,0
77071,control_change,11,0,4,,,,,,,,10,7,89,,
77071,note_on,31,0,1,,,,,,,,1,,,71,0
77072,note_on,32,0,2,,,,,,,,1,,,67,0
77077,note_on,37,0,5,,,,,,,,0,,,71,0
77080,note_on,9,0,4,,,,,,,,10,,,38,0
77086,note_on,46,0,6,,,,,,,,0,,,50,0
77097,control_change,17,0,4,,,,,,,,10,7,91,,
77100,note_on,3,0,4,,,,,,,,10,,,40,126
77100,note_on,31,0,3,,,,,,,,1,,,62,84
77100,note_on,28,0,2,,,,,,,,1,,,67,89
77100,note_on,23,0,5,,,,,,,,0,,,59,82
77100,note_on,29,0,1,,,,,,,,1,,,71,111
77100,note_on,14,0,6,,,,,,,,0,,,52,102
77117,note_on,17,0,5,,,,,,,,0,,,59,0
77128,control_change,28,0,4,,,,,,,,10,7,92,,
77129,note_on,29,0,3,,,,,,,,1,,,62,0
77130,note_on,30,0,1,,,,,,,,1,,,71,0
77132,note_on,4,0,4,,,,,,,,10,,,40,0
77133,note_on,33,0,2,,,,,,,,1,,,67,0
77136,note_on,36,0,6,,,,,,,,0,,,52,0
77148,control_change,16,0,4,,,,,,,,10,7,94,,
77160,note_on,31,0,3,,,,,,,,1,,,62,96
77160,note_on,30,0,1,,,,,,,,1,,,71,111
77160,note_on,24,0,6,,,,,,,,0,,,54,79
77160,note_on,12,0,4,,,,,,,,10,,,42,108
77160,note_on,43,0,5,,,,,,,,0,,,71,127
77160,note_on,27,0,2,,,,,,,,1,,,67,102
77183,control_change,23,0,4,,,,,,,,10,7,95,,
77187,note_on,27,0,5,,,,,,,,0,,,71,0
77189,note_on,29,0,1,,,,,,,,1,,,71,0
77189,note_on,29,0,3,,,,,,,,1,,,62,0
77194,note_on,34,0,2,,,,,,,,1,,,67,0
77195,note_on,35,0,6,,,,,,,,0,,,54,0
77209,note_on,26,0,4,,,,,,,,10,,,42,0
77220,note_on,31,0,3,,,,,,,,1,,,62,96
77220,note_on,33,0,5,,,,,,,,0,,,71,85
77220,note_on,11,0,4,,,,,,,,10,,,43,111
77220,note_on,31,0,1,,,,,,,,1,,,71,81
77220,note_on,25,0,6,,,,,,,,0,,,55,96
77220,note_on,26,0,2,,,,,,,,1,,,67,86
77245,note_on,25,0,1,,,,,,,,1,,,71,0
77247,note_on,27,0,3,,,,,,,,1,,,62,0
77248,note_on,28,0,6,,,,,,,,0,,,55,0
77250,note_on,30,0,4,,,,,,,,10,,,43,0
77251,note_on,31,0,2,,,,,,,,1,,,67,0
77252,note_on,32,0,5,,,,,,,,0,,,71,0
77260,control_change,10,0,4,,,,,,,,10,7,94,,
77268,control_change,8,0,4,,,,,,,,10,7,93,,
77280,note_on,12,0,4,,,,,,,,10,,,40,127
77280,note_on,29,0,2,,,,,,,,1,,,67,93
77280,note_on,28,0,5,,,,,,,,0,,,72,93
77280,note_on,35,0,1,,,,,,,,1,,,72,77
77280,note_on,33,0,3,,,,,,,,1,,,64,117
77280,note_on,32,0,6,,,,,,,,0,,,52,108
77292,control_change,12,0,4,,,,,,,,10,7,91,,
77320,note_on,40,0,5,,,,,,,,0,,,72,0
77326,note_on,46,0,6,,,,,,,,0,,,52,0
77337,control_change,57,0,1,,,,,,,,1,7,108,,
77340,note_on,20,0,5,,,,,,,,0,,,78,82
77341,note_on,49,0,4,,,,,,,,10,,,40,0
77357,note_on,17,0,5,,,,,,,,0,,,78,0
77368,control_change,31,0,1,,,,,,,,1,7,107,,
77370,note_on,13,0,5,,,,,,,,0,,,79,88
77388,control_change,47,0,4,,,,,,,,10,7,92,,
77396,control_change,8,0,4,,,,,,,,10,7,94,,
77400,note_on,30,0,5,,,,,,,,0,,,81,127
77400,note_on,74,0,6,,,,,,,,0,,,40,108
77400,note_on,4,0,4,,,,,,,,10,,,28,124
77401,note_on,1,0,5,,,,,,,,0,,,79,0
77405,control_change,5,0,4,,,,,,,,10,7,95,,
77448,note_on,47,0,5,,,,,,,,0,,,81,0
77460,note_on,12,0,5,,,,,,,,0,,,72,102
77496,note_on,216,0,2,,,,,,,,1,,,67,0
77496,note_on,128,0,1,,,,,,,,1,,,72,0
77496,note_on,216,0,3,,,,,,,,1,,,64,0
77504,note_on,44,0,5,,,,,,,,0,,,72,0
77519,note_on,119,0,6,,,,,,,,0,,,40,0
77520,note_on,24,0,2,,,,,,,,1,,,66,69
77520,note_on,16,0,5,,,,,,,,0,,,71,79
77520,note_on,24,0,1,,,,,,,,1,,,71,77
77520,note_on,24,0,3,,,,,,,,1,,,59,66
77558,note_on,38,0,5,,,,,,,,0,,,71,0
77580,note_on,22,0,5,,,,,,,,0,,,76,75
77604,note_on,24,0,5,,,,,,,,0,,,76,0
77610,note_on,6,0,5,,,,,,,,0,,,78,93
77622,note_on,217,0,4,,,,,,,,10,,,28,0
77634,control_change,12,0,4,,,,,,,,10,7,94,,
77640,note_on,121,0,6,,,,,,,,0,,,38,93
77640,note_on,30,0,5,,,,,,,,0,,,78,0
77640,note_on,0,0,5,,,,,,,,0,,,79,127
77640,note_on,6,0,4,,,,,,,,10,,,26,114
77649,control_change,9,0,4,,,,,,,,10,7,93,,
77673,control_change,24,0,4,,,,,,,,10,7,91,,
77682,note_on,42,0,5,,,,,,,,0,,,79,0
77683,control_change,10,0,4,,,,,,,,10,7,90,,
77700,note_on,18,0,5,,,,,,,,0,,,76,82
77706,note_on,66,0,6,,,,,,,,0,,,38,0
77733,note_on,33,0,5,,,,,,,,0,,,76,0
77734,note_on,51,0,4,,,,,,,,10,,,26,0
77736,note_on,216,0,2,,,,,,,,1,,,66,0
77736,note_on,216,0,3,,,,,,,,1,,,59,0
77736,note_on,216,0,1,,,,,,,,1,,,71,0
77742,control_change,8,0,4,,,,,,,,10,7,88,,
77760,note_on,24,0,2,,,,,,,,1,,,64,79
77760,note_on,24,0,3,,,,,,,,1,,,60,77
77760,note_on,54,0,6,,,,,,,,0,,,36,102
77760,note_on,18,0,4,,,,,,,,10,,,24,102
77760,note_on,24,0,1,,,,,,,,1,,,69,102
77760,note_on,27,0,5,,,,,,,,0,,,69,75
77790,control_change,30,0,4,,,,,,,,10,7,87,,
77805,note_on,45,0,5,,,,,,,,0,,,69,0
77820,note_on,15,0,5,,,,,,,,0,,,74,90
77828,note_on,68,0,6,,,,,,,,0,,,36,0
77839,note_on,19,0,5,,,,,,,,0,,,74,0
77850,note_on,11,0,5,,,,,,,,0,,,76,73
77862,note_on,72,0,4,,,,,,,,10,,,24,0
77877,note_on,27,0,5,,,,,,,,0,,,76,0
77880,note_on,52,0,6,,,,,,,,0,,,45,69
77880,note_on,3,0,5,,,,,,,,0,,,78,127
77880,note_on,18,0,4,,,,,,,,10,,,33,89
77922,note_on,42,0,5,,,,,,,,0,,,78,0
77940,note_on,18,0,5,,,,,,,,0,,,74,96
77947,control_change,67,0,4,,,,,,,,10,7,85,,
77950,note_on,70,0,6,,,,,,,,0,,,45,0
77969,note_on,29,0,5,,,,,,,,0,,,74,0
77976,note_on,216,0,3,,,,,,,,1,,,60,0
77976,note_on,216,0,1,,,,,,,,1,,,69,0
77976,note_on,216,0,2,,,,,,,,1,,,64,0
77982,note_on,35,0,4,,,,,,,,10,,,33,0
78000,note_on,24,0,1,,,,,,,,1,,,67,89
78000,note_on,24,0,2,,,,,,,,1,,,62,77
78000,note_on,31,0,5,,,,,,,,0,,,67,75
78000,note_on,18,0,4,,,,,,,,10,,,35,111
78000,note_on,24,0,3,,,,,,,,1,,,62,64
78000,note_on,50,0,6,,,,,,,,0,,,47,89
78048,note_on,48,0,5,,,,,,,,0,,,67,0
78060,note_on,12,0,5,,,,,,,,0,,,72,75
78068,note_on,68,0,6,,,,,,,,0,,,47,0
78077,note_on,17,0,5,,,,,,,,0,,,72,0
78090,note_on,13,0,5,,,,,,,,0,,,74,96
78093,note_on,93,0,4,,,,,,,,10,,,35,0
78119,note_on,29,0,5,,,,,,,,0,,,74,0
78120,note_on,1,0,5,,,,,,,,0,,,76,82
78120,note_on,52,0,6,,,,,,,,0,,,48,96
78120,note_on,27,0,4,,,,,,,,10,,,36,105
78158,note_on,38,0,5,,,,,,,,0,,,76,0
78180,note_on,22,0,5,,,,,,,,0,,,72,85
78180,note_on,60,0,6,,,,,,,,0,,,48,0
78187,control_change,67,0,4,,,,,,,,10,7,84,,
78216,note_on,216,0,1,,,,,,,,1,,,67,0
78216,note_on,29,0,4,,,,,,,,10,,,36,0
78216,note_on,216,0,2,,,,,,,,1,,,62,0
78216,note_on,216,0,3,,,,,,,,1,,,62,0
78225,note_on,45,0,5,,,,,,,,0,,,72,0
78240,note_on,24,0,1,,,,,,,,1,,,62,72
78240,note_on,24,0,2,,,,,,,,1,,,62,61
78240,note_on,24,0,3,,,,,,,,1,,,57,58
78240,note_on,60,0,6,,,,,,,,0,,,50,96
78240,note_on,24,0,4,,,,,,,,10,,,38,127
78240,note_on,15,0,5,,,,,,,,0,,,66,96
78285,note_on,45,0,5,,,,,,,,0,,,66,0
78294,note_on,54,0,6,,,,,,,,0,,,50,0
78300,note_on,15,0,5,,,,,,,,0,,,72,88
78322,note_on,82,0,3,,,,,,,,1,,,57,0
78351,note_on,51,0,5,,,,,,,,0,,,72,0
78360,note_on,38,0,3,,,,,,,,1,,,62,55
78360,note_on,66,0,6,,,,,,,,0,,,38,124
78360,note_on,9,0,5,,,,,,,,0,,,74,96
78411,note_on,51,0,5,,,,,,,,0,,,74,0
78419,note_on,59,0,3,,,,,,,,1,,,62,0
78420,note_on,9,0,5,,,,,,,,0,,,72,90
78450,note_on,30,0,5,,,,,,,,0,,,72,0
78456,note_on,216,0,4,,,,,,,,10,,,38,0
78456,note_on,216,0,2,,,,,,,,1,,,62,0
78456,note_on,216,0,1,,,,,,,,1,,,62,0
78480,note_on,61,0,3,,,,,,,,1,,,62,64
78480,note_on,24,0,1,,,,,,,,1,,,66,89
78480,note_on,30,0,5,,,,,,,,0,,,69,82
78480,note_on,24,0,2,,,,,,,,1,,,66,66
78483,note_on,123,0,6,,,,,,,,0,,,38,0
78524,note_on,44,0,5,,,,,,,,0,,,69,0
78540,note_on,16,0,5,,,,,,,,0,,,72,79
78549,note_on,69,0,3,,,,,,,,1,,,62,0
78588,note_on,48,0,5,,,,,,,,0,,,72,0
78600,note_on,117,0,6,,,,,,,,0,,,50,84
78600,note_on,12,0,5,,,,,,,,0,,,66,58
78600,note_on,51,0,3,,,,,,,,1,,,62,61
78640,note_on,40,0,5,,,,,,,,0,,,66,0
78646,note_on,46,0,6,,,,,,,,0,,,50,0
78660,note_on,20,0,5,,,,,,,,0,,,72,79
78672,note_on,72,0,3,,,,,,,,1,,,62,0
78696,note_on,216,0,2,,,,,,,,1,,,66,0
78696,note_on,216,0,1,,,,,,,,1,,,66,0
78704,note_on,44,0,5,,,,,,,,0,,,72,0
78720,note_on,48,0,3,,,,,,,,1,,,62,51
78720,note_on,24,0,2,,,,,,,,1,,,69,43
78720,note_on,24,0,1,,,,,,,,1,,,69,79
78720,note_on,16,0,5,,,,,,,,0,,,62,79
78720,note_on,74,0,6,,,,,,,,0,,,50,74
78765,note_on,45,0,5,,,,,,,,0,,,62,0
78780,note_on,15,0,5,,,,,,,,0,,,72,70
78783,note_on,63,0,6,,,,,,,,0,,,50,0
78783,note_on,63,0,3,,,,,,,,1,,,62,0
78831,note_on,51,0,5,,,,,,,,0,,,72,0
78840,note_on,9,0,5,,,,,,,,0,,,74,93
78840,note_on,57,0,3,,,,,,,,1,,,62,61
78840,note_on,57,0,6,,,,,,,,0,,,38,61
78880,note_on,40,0,6,,,,,,,,0,,,38,0
78882,note_on,42,0,5,,,,,,,,0,,,74,0
78900,note_on,18,0,5,,,,,,,,0,,,72,90
78900,note_on,20,0,6,,,,,,,,0,,,40,66
78906,note_on,66,0,3,,,,,,,,1,,,62,0
78936,note_on,216,0,2,,,,,,,,1,,,69,0
78936,note_on,216,0,1,,,,,,,,1,,,69,0
78944,note_on,44,0,6,,,,,,,,0,,,40,0
78945,note_on,45,0,5,,,,,,,,0,,,72,0
78960,note_on,54,0,3,,,,,,,,1,,,62,58
78960,note_on,15,0,5,,,,,,,,0,,,69,75
78960,note_on,16,0,6,,,,,,,,0,,,42,69
79012,note_on,52,0,5,,,,,,,,0,,,69,0
79015,note_on,55,0,6,,,,,,,,0,,,42,0
79020,note_on,8,0,5,,,,,,,,0,,,72,73
79029,note_on,69,0,3,,,,,,,,1,,,62,0
79065,note_on,45,0,5,,,,,,,,0,,,72,0
79080,note_on,144,0,2,,,,,,,,1,,,66,58
79080,note_on,144,0,1,,,,,,,,1,,,66,124
79080,note_on,65,0,6,,,,,,,,0,,,45,89
79080,note_on,15,0,5,,,,,,,,0,,,66,88
79080,note_on,51,0,3,,,,,,,,1,,,62,48
79112,note_on,32,0,1,,,,,,,,1,,,66,0
79117,note_on,37,0,2,,,,,,,,1,,,66,0
79122,note_on,42,0,5,,,,,,,,0,,,66,0
79136,note_on,56,0,6,,,,,,,,0,,,45,0
79140,note_on,18,0,5,,,,,,,,0,,,72,85
79140,note_on,28,0,1,,,,,,,,1,,,67,102
79140,note_on,23,0,2,,,,,,,,1,,,67,69
79152,note_on,72,0,3,,,,,,,,1,,,62,0
79175,note_on,35,0,2,,,,,,,,1,,,67,0
79175,note_on,35,0,5,,,,,,,,0,,,72,0
79179,note_on,39,0,1,,,,,,,,1,,,67,0
79200,note_on,21,0,1,,,,,,,,1,,,69,108
79200,note_on,25,0,5,,,,,,,,0,,,62,90
79200,note_on,48,0,3,,,,,,,,1,,,62,58
79200,note_on,64,0,6,,,,,,,,0,,,50,69
79200,note_on,25,0,2,,,,,,,,1,,,69,64
79239,note_on,39,0,5,,,,,,,,0,,,62,0
79251,note_on,51,0,2,,,,,,,,1,,,69,0
79256,note_on,56,0,1,,,,,,,,1,,,69,0
79256,note_on,56,0,6,,,,,,,,0,,,50,0
79260,note_on,21,0,5,,,,,,,,0,,,72,82
79272,note_on,72,0,3,,,,,,,,1,,,62,0
79308,note_on,48,0,5,,,,,,,,0,,,72,0
79320,note_on,64,0,1,,,,,,,,1,,,66,127
79320,note_on,48,0,3,,,,,,,,1,,,62,58
79320,note_on,69,0,2,,,,,,,,1,,,66,66
79320,note_on,64,0,6,,,,,,,,0,,,45,66
79320,note_on,12,0,5,,,,,,,,0,,,74,88
79353,note_on,33,0,1,,,,,,,,1,,,66,0
79356,note_on,36,0,2,,,,,,,,1,,,66,0
79357,note_on,37,0,5,,,,,,,,0,,,74,0
79379,note_on,59,0,6,,,,,,,,0,,,45,0
79380,note_on,23,0,5,,,,,,,,0,,,72,73
79380,note_on,24,0,2,,,,,,,,1,,,67,64
79380,note_on,27,0,1,,,,,,,,1,,,67,84
79388,note_on,68,0,3,,,,,,,,1,,,62,0
79409,note_on,29,0,2,,,,,,,,1,,,67,0
79418,note_on,38,0,1,,,,,,,,1,,,67,0
79419,note_on,39,0,5,,,,,,,,0,,,72,0
79440,note_on,31,0,2,,,,,,,,1,,,69,35
79440,note_on,61,0,6,,,,,,,,0,,,50,79
79440,note_on,52,0,3,,,,,,,,1,,,62,51
79440,note_on,22,0,1,,,,,,,,1,,,69,127
79440,note_on,21,0,5,,,,,,,,0,,,69,85
79448,control_change,8,0,1,,,,,,,,1,7,105,,
79485,note_on,45,0,5,,,,,,,,0,,,69,0
79487,note_on,47,0,2,,,,,,,,1,,,69,0
79487,control_change,39,0,1,,,,,,,,1,7,104,,
79491,note_on,4,0,1,,,,,,,,1,,,69,0
79496,note_on,56,0,6,,,,,,,,0,,,50,0
79500,note_on,15,0,5,,,,,,,,0,,,72,79
79501,note_on,61,0,3,,,,,,,,1,,,62,0
79544,note_on,44,0,5,,,,,,,,0,,,72,0
79560,note_on,16,0,5,,,,,,,,0,,,66,66
79560,note_on,59,0,3,,,,,,,,1,,,62,48
79560,note_on,69,0,1,,,,,,,,1,,,74,126
79560,note_on,73,0,2,,,,,,,,1,,,74,64
79560,note_on,64,0,6,,,,,,,,0,,,54,72
79597,note_on,37,0,5,,,,,,,,0,,,66,0
79606,note_on,46,0,1,,,,,,,,1,,,74,0
79615,note_on,55,0,2,,,,,,,,1,,,74,0
79616,note_on,56,0,6,,,,,,,,0,,,54,0
79620,note_on,23,0,5,,,,,,,,0,,,72,82
79621,note_on,61,0,3,,,,,,,,1,,,62,0
79658,note_on,38,0,5,,,,,,,,0,,,72,0
79680,note_on,22,0,5,,,,,,,,0,,,62,73
79680,note_on,64,0,6,,,,,,,,0,,,57,77
79680,note_on,74,0,1,,,,,,,,1,,,69,89
79680,note_on,65,0,2,,,,,,,,1,,,69,39
79680,note_on,59,0,3,,,,,,,,1,,,62,48
79722,note_on,42,0,5,,,,,,,,0,,,62,0
79736,note_on,56,0,2,,,,,,,,1,,,69,0
79740,note_on,18,0,5,,,,,,,,0,,,72,66
79741,note_on,61,0,6,,,,,,,,0,,,57,0
79746,note_on,66,0,1,,,,,,,,1,,,69,0
79748,note_on,68,0,3,,,,,,,,1,,,62,0
79786,note_on,46,0,5,,,,,,,,0,,,72,0
79800,note_on,14,0,5,,,,,,,,0,,,74,90
79800,note_on,54,0,1,,,,,,,,1,,,69,108
79800,note_on,52,0,3,,,,,,,,1,,,62,55
79800,note_on,59,0,6,,,,,,,,0,,,54,66
79800,note_on,64,0,2,,,,,,,,1,,,69,55
79837,note_on,37,0,1,,,,,,,,1,,,69,0
79838,note_on,38,0,2,,,,,,,,1,,,69,0
79844,note_on,44,0,5,,,,,,,,0,,,74,0
79857,note_on,57,0,6,,,,,,,,0,,,54,0
79860,note_on,22,0,2,,,,,,,,1,,,67,43
79860,note_on,23,0,1,,,,,,,,1,,,67,96
79860,note_on,16,0,5,,,,,,,,0,,,72,73
79863,note_on,63,0,3,,,,,,,,1,,,62,0
79903,note_on,43,0,2,,,,,,,,1,,,67,0
79904,note_on,44,0,5,,,,,,,,0,,,72,0
79917,note_on,57,0,1,,,,,,,,1,,,67,0
79920,note_on,3,0,1,,,,,,,,1,,,66,77
79920,note_on,17,0,2,,,,,,,,1,,,66,48
79920,note_on,57,0,3,,,,,,,,1,,,62,55
79920,note_on,16,0,5,,,,,,,,0,,,69,73
79920,note_on,63,0,6,,,,,,,,0,,,50,69
79966,note_on,46,0,5,,,,,,,,0,,,69,0
79972,note_on,52,0,2,,,,,,,,1,,,66,0
79975,note_on,55,0,6,,,,,,,,0,,,50,0
79980,note_on,14,0,5,,,,,,,,0,,,72,58
79985,note_on,65,0,3,,,,,,,,1,,,62,0
79990,note_on,70,0,1,,,,,,,,1,,,66,0
80024,note_on,44,0,5,,,,,,,,0,,,72,0
80040,note_on,16,0,5,,,,,,,,0,,,66,63
80040,note_on,55,0,3,,,,,,,,1,,,62,58
80040,note_on,65,0,6,,,,,,,,0,,,54,51
80040,note_on,50,0,1,,,,,,,,1,,,64,108
80040,note_on,68,0,2,,,,,,,,1,,,64,48
80074,note_on,34,0,1,,,,,,,,1,,,64,0
80075,note_on,35,0,2,,,,,,,,1,,,64,0
80082,note_on,42,0,5,,,,,,,,0,,,66,0
80100,note_on,18,0,5,,,,,,,,0,,,72,75
80100,note_on,60,0,6,,,,,,,,0,,,54,0
80100,note_on,25,0,2,,,,,,,,1,,,62,58
80100,note_on,26,0,1,,,,,,,,1,,,62,79
80115,note_on,75,0,3,,,,,,,,1,,,62,0
80132,note_on,32,0,5,,,,,,,,0,,,72,0
80136,note_on,36,0,1,,,,,,,,1,,,62,0
80138,note_on,38,0,2,,,,,,,,1,,,62,0
80160,note_on,1704,0,4,,,,,,,,10,,,31,89
80160,note_on,28,0,5,,,,,,,,0,,,62,73
80160,note_on,22,0,2,,,,,,,,1,,,67,51
80160,note_on,60,0,6,,,,,,,,0,,,43,96
80160,note_on,45,0,3,,,,,,,,1,,,62,66
80160,note_on,24,0,1,,,,,,,,1,,,67,125
80198,note_on,38,0,5,,,,,,,,0,,,62,0
80206,note_on,46,0,2,,,,,,,,1,,,67,0
80217,note_on,57,0,1,,,,,,,,1,,,67,0
80220,note_on,22,0,5,,,,,,,,0,,,65,75
80232,note_on,72,0,3,,,,,,,,1,,,62,0
80240,control_change,23,0,1,,,,,,,,1,7,102,,
80265,note_on,45,0,5,,,,,,,,0,,,65,0
80280,note_on,40,0,1,,,,,,,,1,,,55,127
80280,note_on,15,0,5,,,,,,,,0,,,67,102
80280,note_on,48,0,3,,,,,,,,1,,,55,58
80280,note_on,74,0,2,,,,,,,,1,,,55,51
80318,note_on,38,0,5,,,,,,,,0,,,67,0
80340,note_on,22,0,5,,,,,,,,0,,,65,79
80359,note_on,79,0,3,,,,,,,,1,,,55,0
80360,note_on,80,0,1,,,,,,,,1,,,55,0
80361,note_on,81,0,2,,,,,,,,1,,,55,0
80376,note_on,216,0,4,,,,,,,,10,,,31,0
80376,note_on,216,0,6,,,,,,,,0,,,43,0
80379,note_on,39,0,5,,,,,,,,0,,,65,0
80400,note_on,21,0,5,,,,,,,,0,,,62,63
80400,note_on,41,0,3,,,,,,,,1,,,55,58
80400,note_on,24,0,4,,,,,,,,10,,,35,79
80400,note_on,24,0,6,,,,,,,,0,,,47,69
80439,note_on,39,0,5,,,,,,,,0,,,62,0
80460,note_on,21,0,5,,,,,,,,0,,,65,79
80471,note_on,71,0,3,,,,,,,,1,,,55,0
80498,note_on,38,0,5,,,,,,,,0,,,65,0
80520,note_on,160,0,1,,,,,,,,1,,,67,96
80520,note_on,159,0,2,,,,,,,,1,,,67,58
80520,note_on,49,0,3,,,,,,,,1,,,55,58
80520,note_on,22,0,5,,,,,,,,0,,,59,73
80558,note_on,38,0,5,,,,,,,,0,,,59,0
80559,note_on,39,0,2,,,,,,,,1,,,67,0
80563,note_on,43,0,1,,,,,,,,1,,,67,0
80580,note_on,22,0,5,,,,,,,,0,,,65,79
80580,note_on,17,0,1,,,,,,,,1,,,65,69
80580,note_on,21,0,2,,,,,,,,1,,,65,48
80597,note_on,77,0,3,,,,,,,,1,,,55,0
80616,note_on,216,0,4,,,,,,,,10,,,35,0
80616,note_on,216,0,6,,,,,,,,0,,,47,0
80619,note_on,39,0,2,,,,,,,,1,,,65,0
80621,note_on,41,0,1,,,,,,,,1,,,65,0
80622,note_on,42,0,5,,,,,,,,0,,,65,0
80640,note_on,24,0,6,,,,,,,,0,,,50,89
80640,note_on,18,0,5,,,,,,,,0,,,55,88
80640,note_on,43,0,3,,,,,,,,1,,,55,55
80640,note_on,19,0,1,,,,,,,,1,,,67,93
80640,note_on,21,0,2,,,,,,,,1,,,67,64
80640,note_on,24,0,4,,,,,,,,10,,,38,89
80677,note_on,37,0,2,,,,,,,,1,,,67,0
80680,note_on,40,0,5,,,,,,,,0,,,55,0
80700,note_on,60,0,1,,,,,,,,1,,,67,0
80700,note_on,20,0,5,,,,,,,,0,,,65,75
80714,note_on,74,0,3,,,,,,,,1,,,55,0
80750,note_on,50,0,5,,,,,,,,0,,,65,0
80760,note_on,83,0,2,,,,,,,,1,,,55,35
80760,note_on,60,0,1,,,,,,,,1,,,55,86
80760,note_on,10,0,5,,,,,,,,0,,,67,96
80760,note_on,46,0,3,,,,,,,,1,,,55,48
80799,note_on,39,0,1,,,,,,,,1,,,55,0
80800,note_on,40,0,2,,,,,,,,1,,,55,0
80800,note_on,40,0,5,,,,,,,,0,,,67,0
80820,note_on,21,0,1,,,,,,,,1,,,57,124
80820,note_on,20,0,2,,,,,,,,1,,,57,58
80820,note_on,20,0,5,,,,,,,,0,,,65,75
80824,note_on,64,0,3,,,,,,,,1,,,55,0
80856,note_on,216,0,4,,,,,,,,10,,,38,0
80856,note_on,216,0,6,,,,,,,,0,,,50,0
80862,note_on,42,0,5,,,,,,,,0,,,65,0
80865,note_on,45,0,2,,,,,,,,1,,,57,0
80870,note_on,50,0,1,,,,,,,,1,,,57,0
80880,note_on,15,0,2,,,,,,,,1,,,59,43
80880,note_on,18,0,5,,,,,,,,0,,,62,66
80880,note_on,56,0,3,,,,,,,,1,,,55,51
80880,note_on,10,0,1,,,,,,,,1,,,59,127
80924,note_on,44,0,5,,,,,,,,0,,,62,0
80939,note_on,59,0,3,,,,,,,,1,,,55,0
80940,note_on,16,0,5,,,,,,,,0,,,65,75
80947,note_on,67,0,1,,,,,,,,1,,,59,0
80948,note_on,68,0,2,,,,,,,,1,,,59,0
80986,note_on,46,0,5,,,,,,,,0,,,65,0
81000,note_on,53,0,1,,,,,,,,1,,,62,117
81000,note_on,144,0,4,,,,,,,,10,,,35,72
81000,note_on,14,0,5,,,,,,,,0,,,59,66
81000,note_on,52,0,2,,,,,,,,1,,,62,58
81000,note_on,61,0,3,,,,,,,,1,,,55,51
81000,note_on,144,0,6,,,,,,,,0,,,47,84
81043,note_on,43,0,4,,,,,,,,10,,,35,0
81045,note_on,45,0,5,,,,,,,,0,,,59,0
81046,note_on,46,0,6,,,,,,,,0,,,47,0
81060,note_on,17,0,4,,,,,,,,10,,,36,86
81060,note_on,14,0,6,,,,,,,,0,,,48,79
81060,note_on,15,0,5,,,,,,,,0,,,65,73
81065,note_on,65,0,2,,,,,,,,1,,,62,0
81068,note_on,68,0,1,,,,,,,,1,,,62,0
81082,note_on,82,0,3,,,,,,,,1,,,55,0
81095,note_on,35,0,6,,,,,,,,0,,,48,0
81102,note_on,42,0,5,,,,,,,,0,,,65,0
81115,note_on,55,0,4,,,,,,,,10,,,36,0
81120,note_on,18,0,5,,,,,,,,0,,,55,63
81120,note_on,55,0,2,,,,,,,,1,,,67,51
81120,note_on,52,0,1,,,,,,,,1,,,67,108
81120,note_on,25,0,6,,,,,,,,0,,,50,96
81120,note_on,38,0,3,,,,,,,,1,,,55,43
81120,note_on,5,0,4,,,,,,,,10,,,38,108
81162,note_on,42,0,5,,,,,,,,0,,,55,0
81180,note_on,18,0,5,,,,,,,,0,,,65,75
81181,note_on,61,0,1,,,,,,,,1,,,67,0
81186,note_on,66,0,6,,,,,,,,0,,,50,0
81186,note_on,66,0,2,,,,,,,,1,,,67,0
81191,note_on,71,0,3,,,,,,,,1,,,55,0
81198,note_on,78,0,4,,,,,,,,10,,,38,0
81231,note_on,51,0,5,,,,,,,,0,,,65,0
81240,note_on,49,0,3,,,,,,,,1,,,55,74
81240,note_on,9,0,5,,,,,,,,0,,,67,90
81240,note_on,59,0,1,,,,,,,,1,,,62,108
81240,note_on,54,0,6,,,,,,,,0,,,47,79
81240,note_on,54,0,2,,,,,,,,1,,,62,48
81240,note_on,42,0,4,,,,,,,,10,,,35,74
81276,note_on,36,0,6,,,,,,,,0,,,47,0
81279,note_on,39,0,5,,,,,,,,0,,,67,0
81279,note_on,39,0,4,,,,,,,,10,,,35,0
81300,note_on,21,0,4,,,,,,,,10,,,36,84
81300,note_on,24,0,6,,,,,,,,0,,,48,58
81300,note_on,21,0,5,,,,,,,,0,,,65,55
81303,note_on,63,0,1,,,,,,,,1,,,62,0
81304,note_on,64,0,2,,,,,,,,1,,,62,0
81313,note_on,73,0,3,,,,,,,,1,,,55,0
81339,note_on,39,0,6,,,,,,,,0,,,48,0
81341,note_on,41,0,4,,,,,,,,10,,,36,0
81342,note_on,42,0,5,,,,,,,,0,,,65,0
81360,note_on,18,0,5,,,,,,,,0,,,62,66
81360,note_on,47,0,3,,,,,,,,1,,,55,51
81360,note_on,19,0,4,,,,,,,,10,,,38,84
81360,note_on,57,0,1,,,,,,,,1,,,67,89
81360,note_on,21,0,6,,,,,,,,0,,,50,64
81360,note_on,56,0,2,,,,,,,,1,,,67,58
81406,note_on,46,0,5,,,,,,,,0,,,62,0
81420,note_on,14,0,5,,,,,,,,0,,,65,58
81428,note_on,68,0,6,,,,,,,,0,,,50,0
81429,note_on,69,0,2,,,,,,,,1,,,67,0
81432,note_on,72,0,1,,,,,,,,1,,,67,0
81435,note_on,75,0,3,,,,,,,,1,,,55,0
81443,note_on,83,0,4,,,,,,,,10,,,38,0
81465,note_on,45,0,5,,,,,,,,0,,,65,0
81480,note_on,45,0,3,,,,,,,,1,,,55,58
81480,note_on,37,0,4,,,,,,,,10,,,43,55
81480,note_on,48,0,1,,,,,,,,1,,,71,89
81480,note_on,15,0,5,,,,,,,,0,,,59,49
81480,note_on,52,0,6,,,,,,,,0,,,55,74
81480,note_on,51,0,2,,,,,,,,1,,,71,48
81519,note_on,39,0,5,,,,,,,,0,,,59,0
81532,control_change,52,0,4,,,,,,,,10,7,82,,
81540,note_on,21,0,5,,,,,,,,0,,,65,63
81550,note_on,70,0,6,,,,,,,,0,,,55,0
81556,note_on,76,0,1,,,,,,,,1,,,71,0
81559,note_on,79,0,2,,,,,,,,1,,,71,0
81563,note_on,83,0,3,,,,,,,,1,,,55,0
81580,note_on,40,0,5,,,,,,,,0,,,65,0
81589,note_on,57,0,4,,,,,,,,10,,,43,0
81600,note_on,11,0,4,,,,,,,,10,,,38,64
81600,note_on,44,0,1,,,,,,,,1,,,74,96
81600,note_on,41,0,2,,,,,,,,1,,,74,51
81600,note_on,20,0,5,,,,,,,,0,,,55,63
81600,note_on,50,0,6,,,,,,,,0,,,50,74
81600,note_on,37,0,3,,,,,,,,1,,,55,74
81642,note_on,42,0,5,,,,,,,,0,,,55,0
81660,note_on,18,0,5,,,,,,,,0,,,65,73
81666,note_on,66,0,1,,,,,,,,1,,,74,0
81667,note_on,67,0,2,,,,,,,,1,,,74,0
81669,note_on,69,0,6,,,,,,,,0,,,50,0
81678,note_on,78,0,4,,,,,,,,10,,,38,0
81679,note_on,79,0,3,,,,,,,,1,,,55,0
81709,note_on,49,0,5,,,,,,,,0,,,65,0
81720,note_on,11,0,5,,,,,,,,0,,,67,79
81720,note_on,41,0,3,,,,,,,,1,,,55,72
81720,note_on,54,0,1,,,,,,,,1,,,71,89
81720,note_on,53,0,2,,,,,,,,1,,,71,48
81720,note_on,42,0,4,,,,,,,,10,,,38,89
81720,note_on,51,0,6,,,,,,,,0,,,50,79
81768,note_on,48,0,4,,,,,,,,10,,,38,0
81769,note_on,49,0,5,,,,,,,,0,,,67,0
81774,note_on,54,0,6,,,,,,,,0,,,50,0
81777,control_change,9,0,4,,,,,,,,10,7,81,,
81780,note_on,3,0,4,,,,,,,,10,,,36,72
81780,note_on,6,0,6,,,,,,,,0,,,48,69
81780,note_on,11,0,5,,,,,,,,0,,,65,75
81788,note_on,68,0,2,,,,,,,,1,,,71,0
81796,note_on,76,0,1,,,,,,,,1,,,71,0
81798,note_on,78,0,3,,,,,,,,1,,,55,0
81832,note_on,52,0,4,,,,,,,,10,,,36,0
81832,note_on,52,0,6,,,,,,,,0,,,48,0
81834,note_on,54,0,5,,,,,,,,0,,,65,0
81840,note_on,6,0,5,,,,,,,,0,,,62,73
81840,note_on,44,0,1,,,,,,,,1,,,67,86
81840,note_on,52,0,2,,,,,,,,1,,,67,51
81840,note_on,8,0,4,,,,,,,,10,,,35,74
81840,note_on,8,0,6,,,,,,,,0,,,47,69
81840,note_on,42,0,3,,,,,,,,1,,,55,51
81893,note_on,53,0,5,,,,,,,,0,,,62,0
81900,note_on,7,0,5,,,,,,,,0,,,65,44
81905,note_on,65,0,2,,,,,,,,1,,,67,0
81918,note_on,78,0,1,,,,,,,,1,,,67,0
81922,note_on,82,0,3,,,,,,,,1,,,55,0
81929,note_on,89,0,6,,,,,,,,0,,,47,0
81939,note_on,39,0,5,,,,,,,,0,,,65,0
81955,note_on,115,0,4,,,,,,,,10,,,35,0
81960,note_on,5,0,4,,,,,,,,10,,,33,79
81960,note_on,38,0,3,,,,,,,,1,,,55,64
81960,note_on,55,0,2,,,,,,,,1,,,65,48
81960,note_on,31,0,6,,,,,,,,0,,,45,74
81960,note_on,42,0,1,,,,,,,,1,,,65,84
81960,note_on,21,0,5,,,,,,,,0,,,59,58
81999,note_on,39,0,5,,,,,,,,0,,,59,0
82008,note_on,48,0,4,,,,,,,,10,,,33,0
82012,note_on,52,0,6,,,,,,,,0,,,45,0
82020,note_on,12,0,4,,,,,,,,10,,,31,89
82020,note_on,21,0,5,,,,,,,,0,,,65,63
82020,note_on,8,0,6,,,,,,,,0,,,43,69
82030,note_on,70,0,1,,,,,,,,1,,,65,0
82039,note_on,79,0,2,,,,,,,,1,,,65,0
82045,note_on,85,0,3,,,,,,,,1,,,55,0
82056,note_on,36,0,5,,,,,,,,0,,,65,0
82066,note_on,46,0,6,,,,,,,,0,,,43,0
82080,note_on,24,0,5,,,,,,,,0,,,64,85
82080,note_on,50,0,1,,,,,,,,1,,,64,79
82080,note_on,14,0,6,,,,,,,,0,,,44,111
82080,note_on,35,0,3,,,,,,,,1,,,59,72
82080,note_on,60,0,4,,,,,,,,10,,,32,96
82080,note_on,41,0,2,,,,,,,,1,,,64,58
82086,note_on,6,0,4,,,,,,,,10,,,31,0
82126,note_on,46,0,5,,,,,,,,0,,,64,0
82140,note_on,14,0,5,,,,,,,,0,,,74,85
82154,note_on,74,0,3,,,,,,,,1,,,59,0
82196,note_on,56,0,5,,,,,,,,0,,,74,0
82200,note_on,4,0,5,,,,,,,,0,,,76,85
82200,note_on,46,0,3,,,,,,,,1,,,56,55
82217,note_on,137,0,6,,,,,,,,0,,,44,0
82248,note_on,48,0,5,,,,,,,,0,,,76,0
82260,note_on,12,0,5,,,,,,,,0,,,74,79
82281,note_on,81,0,3,,,,,,,,1,,,56,0
82296,note_on,216,0,2,,,,,,,,1,,,64,0
82296,note_on,210,0,4,,,,,,,,10,,,32,0
82296,note_on,216,0,1,,,,,,,,1,,,64,0
82306,note_on,46,0,5,,,,,,,,0,,,74,0
82320,note_on,24,0,1,,,,,,,,1,,,68,96
82320,note_on,39,0,3,,,,,,,,1,,,56,51
82320,note_on,24,0,2,,,,,,,,1,,,68,48
82320,note_on,14,0,5,,,,,,,,0,,,71,79
82370,note_on,50,0,5,,,,,,,,0,,,71,0
82375,control_change,55,0,1,,,,,,,,1,7,101,,
82380,note_on,10,0,5,,,,,,,,0,,,74,85
82401,note_on,81,0,3,,,,,,,,1,,,56,0
82425,note_on,45,0,5,,,,,,,,0,,,74,0
82440,note_on,15,0,5,,,,,,,,0,,,68,88
82440,note_on,223,0,6,,,,,,,,0,,,52,79
82440,note_on,39,0,3,,,,,,,,1,,,56,43
82484,note_on,44,0,5,,,,,,,,0,,,68,0
82496,note_on,56,0,6,,,,,,,,0,,,52,0
82500,note_on,16,0,5,,,,,,,,0,,,74,90
82515,note_on,75,0,3,,,,,,,,1,,,56,0
82536,note_on,161,0,1,,,,,,,,1,,,68,0
82536,note_on,216,0,2,,,,,,,,1,,,68,0
82552,note_on,52,0,5,,,,,,,,0,,,74,0
82560,note_on,45,0,3,,,,,,,,1,,,56,55
82560,note_on,24,0,2,,,,,,,,1,,,71,51
82560,note_on,24,0,1,,,,,,,,1,,,71,114
82560,note_on,8,0,5,,,,,,,,0,,,64,79
82560,note_on,64,0,6,,,,,,,,0,,,52,96
82606,note_on,46,0,5,,,,,,,,0,,,64,0
82620,note_on,14,0,5,,,,,,,,0,,,74,73
82628,note_on,68,0,6,,,,,,,,0,,,52,0
82647,note_on,87,0,3,,,,,,,,1,,,56,0
82673,note_on,53,0,5,,,,,,,,0,,,74,0
82680,note_on,7,0,5,,,,,,,,0,,,76,75
82680,note_on,33,0,3,,,,,,,,1,,,56,48
82680,note_on,52,0,6,,,,,,,,0,,,40,74
82724,note_on,44,0,5,,,,,,,,0,,,76,0
82725,note_on,45,0,6,,,,,,,,0,,,40,0
82740,note_on,15,0,6,,,,,,,,0,,,42,84
82740,note_on,16,0,5,,,,,,,,0,,,74,82
82754,note_on,74,0,3,,,,,,,,1,,,56,0
82776,note_on,216,0,1,,,,,,,,1,,,71,0
82776,note_on,216,0,2,,,,,,,,1,,,71,0
82786,note_on,46,0,6,,,,,,,,0,,,42,0
82786,note_on,46,0,5,,,,,,,,0,,,74,0
82800,note_on,14,0,6,,,,,,,,0,,,44,96
82800,note_on,14,0,5,,,,,,,,0,,,71,70
82800,note_on,46,0,3,,,,,,,,1,,,56,48
82845,note_on,45,0,5,,,,,,,,0,,,71,0
82859,note_on,59,0,6,,,,,,,,0,,,44,0
82860,note_on,15,0,5,,,,,,,,0,,,74,88
82878,note_on,78,0,3,,,,,,,,1,,,56,0
82908,note_on,48,0,5,,,,,,,,0,,,74,0
82920,note_on,12,0,5,,,,,,,,0,,,68,75
82920,note_on,144,0,1,,,,,,,,1,,,68,105
82920,note_on,61,0,6,,,,,,,,0,,,47,79
82920,note_on,144,0,2,,,,,,,,1,,,68,66
82920,note_on,42,0,3,,,,,,,,1,,,56,77
82953,note_on,33,0,1,,,,,,,,1,,,68,0
82954,note_on,34,0,2,,,,,,,,1,,,68,0
82964,note_on,44,0,5,,,,,,,,0,,,68,0
82979,note_on,59,0,6,,,,,,,,0,,,47,0
82980,note_on,26,0,2,,,,,,,,1,,,69,64
82980,note_on,16,0,5,,,,,,,,0,,,74,79
82980,note_on,27,0,1,,,,,,,,1,,,69,111
83002,note_on,82,0,3,,,,,,,,1,,,56,0
83015,note_on,35,0,2,,,,,,,,1,,,69,0
83020,note_on,40,0,1,,,,,,,,1,,,69,0
83030,note_on,50,0,5,,,,,,,,0,,,74,0
83040,note_on,20,0,1,,,,,,,,1,,,71,96
83040,note_on,25,0,2,,,,,,,,1,,,71,51
83040,note_on,10,0,5,,,,,,,,0,,,64,63
83040,note_on,38,0,3,,,,,,,,1,,,56,58
83040,note_on,61,0,6,,,,,,,,0,,,52,84
83085,note_on,45,0,5,,,,,,,,0,,,64,0
83091,note_on,51,0,2,,,,,,,,1,,,71,0
83100,note_on,15,0,5,,,,,,,,0,,,74,66
83103,note_on,63,0,6,,,,,,,,0,,,52,0
83108,note_on,68,0,1,,,,,,,,1,,,71,0
83128,note_on,88,0,3,,,,,,,,1,,,56,0
83149,note_on,49,0,5,,,,,,,,0,,,74,0
83160,note_on,52,0,1,,,,,,,,1,,,68,120
83160,note_on,32,0,3,,,,,,,,1,,,56,55
83160,note_on,11,0,5,,,,,,,,0,,,76,82
83160,note_on,57,0,6,,,,,,,,0,,,47,72
83160,note_on,69,0,2,,,,,,,,1,,,68,39
83191,note_on,31,0,1,,,,,,,,1,,,68,0
83197,note_on,37,0,2,,,,,,,,1,,,68,0
83200,note_on,40,0,5,,,,,,,,0,,,76,0
83220,note_on,20,0,5,,,,,,,,0,,,74,79
83220,note_on,29,0,1,,,,,,,,1,,,69,89
83220,note_on,23,0,2,,,,,,,,1,,,69,48
83231,note_on,71,0,6,,,,,,,,0,,,47,0
83246,note_on,86,0,3,,,,,,,,1,,,56,0
83252,note_on,32,0,2,,,,,,,,1,,,69,0
83259,note_on,39,0,5,,,,,,,,0,,,74,0
83260,note_on,40,0,1,,,,,,,,1,,,69,0
83280,note_on,28,0,2,,,,,,,,1,,,71,35
83280,note_on,34,0,3,,,,,,,,1,,,56,51
83280,note_on,49,0,6,,,,,,,,0,,,52,74
83280,note_on,20,0,1,,,,,,,,1,,,71,89
83280,note_on,21,0,5,,,,,,,,0,,,71,73
83326,note_on,46,0,5,,,,,,,,0,,,71,0
83338,note_on,58,0,1,,,,,,,,1,,,71,0
83340,note_on,14,0,5,,,,,,,,0,,,74,85
83342,note_on,62,0,2,,,,,,,,1,,,71,0
83346,note_on,66,0,6,,,,,,,,0,,,52,0
83364,note_on,84,0,3,,,,,,,,1,,,56,0
83384,note_on,44,0,5,,,,,,,,0,,,74,0
83400,note_on,36,0,3,,,,,,,,1,,,56,55
83400,note_on,54,0,6,,,,,,,,0,,,56,96
83400,note_on,62,0,1,,,,,,,,1,,,76,108
83400,note_on,58,0,2,,,,,,,,1,,,76,66
83400,note_on,16,0,5,,,,,,,,0,,,68,79
83439,note_on,39,0,5,,,,,,,,0,,,68,0
83448,note_on,48,0,1,,,,,,,,1,,,76,0
83449,note_on,49,0,2,,,,,,,,1,,,76,0
83460,note_on,21,0,5,,,,,,,,0,,,74,75
83460,note_on,60,0,6,,,,,,,,0,,,56,0
83486,note_on,86,0,3,,,,,,,,1,,,56,0
83510,note_on,50,0,5,,,,,,,,0,,,74,0
83520,note_on,72,0,1,,,,,,,,1,,,71,77
83520,note_on,60,0,6,,,,,,,,0,,,59,66
83520,note_on,71,0,2,,,,,,,,1,,,71,61
83520,note_on,34,0,3,,,,,,,,1,,,56,58
83520,note_on,10,0,5,,,,,,,,0,,,64,73
83568,note_on,48,0,5,,,,,,,,0,,,64,0
83574,note_on,54,0,1,,,,,,,,1,,,71,0
83575,note_on,55,0,6,,,,,,,,0,,,59,0
83580,note_on,12,0,5,,,,,,,,0,,,74,79
83595,note_on,75,0,2,,,,,,,,1,,,71,0
83600,note_on,80,0,3,,,,,,,,1,,,56,0
83628,note_on,48,0,5,,,,,,,,0,,,74,0
83640,note_on,12,0,5,,,,,,,,0,,,76,75
83640,note_on,66,0,1,,,,,,,,1,,,71,93
83640,note_on,40,0,3,,,,,,,,1,,,56,64
83640,note_on,65,0,6,,,,,,,,0,,,56,66
83640,note_on,45,0,2,,,,,,,,1,,,71,58
83678,note_on,38,0,1,,,,,,,,1,,,71,0
83679,note_on,39,0,2,,,,,,,,1,,,71,0
83688,note_on,48,0,5,,,,,,,,0,,,76,0
83700,note_on,22,0,1,,,,,,,,1,,,69,89
83700,note_on,12,0,5,,,,,,,,0,,,74,70
83700,note_on,21,0,2,,,,,,,,1,,,69,61
83703,note_on,63,0,6,,,,,,,,0,,,56,0
83726,note_on,86,0,3,,,,,,,,1,,,56,0
83745,note_on,45,0,2,,,,,,,,1,,,69,0
83745,note_on,45,0,5,,,,,,,,0,,,74,0
83751,note_on,51,0,1,,,,,,,,1,,,69,0
83760,note_on,34,0,3,,,,,,,,1,,,56,61
83760,note_on,15,0,5,,,,,,,,0,,,71,79
83760,note_on,9,0,1,,,,,,,,1,,,68,89
83760,note_on,57,0,6,,,,,,,,0,,,52,74
83760,note_on,15,0,2,,,,,,,,1,,,68,51
83813,note_on,53,0,5,,,,,,,,0,,,71,0
83820,note_on,7,0,5,,,,,,,,0,,,74,63
83821,note_on,61,0,6,,,,,,,,0,,,52,0
83839,note_on,79,0,1,,,,,,,,1,,,68,0
83843,note_on,83,0,3,,,,,,,,1,,,56,0
83849,note_on,89,0,2,,,,,,,,1,,,68,0
83855,note_on,35,0,5,,,,,,,,0,,,74,0
83880,note_on,25,0,5,,,,,,,,0,,,68,66
83880,note_on,37,0,3,,,,,,,,1,,,56,61
83880,note_on,59,0,6,,,,,,,,0,,,56,58
83880,note_on,31,0,2,,,,,,,,1,,,66,58
83880,note_on,41,0,1,,,,,,,,1,,,66,105
83920,note_on,40,0,1,,,,,,,,1,,,66,0
83922,note_on,42,0,2,,,,,,,,1,,,66,0
83925,note_on,45,0,5,,,,,,,,0,,,68,0
83940,note_on,18,0,2,,,,,,,,1,,,64,55
83940,note_on,15,0,5,,,,,,,,0,,,74,58
83940,note_on,20,0,1,,,,,,,,1,,,64,84
83944,note_on,64,0,6,,,,,,,,0,,,56,0
83961,note_on,81,0,3,,,,,,,,1,,,56,0
83973,note_on,33,0,5,,,,,,,,0,,,74,0
83980,note_on,40,0,2,,,,,,,,1,,,64,0
83996,note_on,56,0,1,,,,,,,,1,,,64,0
84000,note_on,20,0,2,,,,,,,,1,,,72,66
84000,note_on,39,0,3,,,,,,,,1,,,57,66
84000,note_on,56,0,6,,,,,,,,0,,,45,77
84000,note_on,4,0,1,,,,,,,,1,,,72,117
84000,note_on,27,0,5,,,,,,,,0,,,69,58
84000,note_on,1704,0,4,,,,,,,,10,,,33,58
84048,note_on,48,0,2,,,,,,,,1,,,72,0
84053,note_on,53,0,5,,,,,,,,0,,,69,0
84060,note_on,7,0,5,,,,,,,,0,,,76,90
84064,note_on,64,0,1,,,,,,,,1,,,72,0
84086,note_on,86,0,3,,,,,,,,1,,,57,0
84112,note_on,52,0,5,,,,,,,,0,,,76,0
84120,note_on,56,0,1,,,,,,,,1,,,57,86
84120,note_on,34,0,3,,,,,,,,1,,,57,58
84120,note_on,8,0,5,,,,,,,,0,,,81,85
84120,note_on,72,0,2,,,,,,,,1,,,57,48
84177,note_on,57,0,5,,,,,,,,0,,,81,0
84180,note_on,3,0,5,,,,,,,,0,,,80,82
84200,note_on,80,0,3,,,,,,,,1,,,57,0
84216,note_on,216,0,6,,,,,,,,0,,,45,0
84216,note_on,216,0,4,,,,,,,,10,,,33,0
84217,note_on,97,0,2,,,,,,,,1,,,57,0
84237,note_on,57,0,5,,,,,,,,0,,,80,0
84240,note_on,3,0,5,,,,,,,,0,,,81,85
84240,note_on,24,0,6,,,,,,,,0,,,48,74
84240,note_on,24,0,4,,,,,,,,10,,,36,84
84240,note_on,40,0,3,,,,,,,,1,,,57,55
84248,note_on,128,0,1,,,,,,,,1,,,57,0
84286,note_on,46,0,5,,,,,,,,0,,,81,0
84300,note_on,14,0,5,,,,,,,,0,,,76,63
84325,note_on,85,0,3,,,,,,,,1,,,57,0
84344,note_on,44,0,5,,,,,,,,0,,,76,0
84360,note_on,35,0,3,,,,,,,,1,,,57,58
84360,note_on,112,0,1,,,,,,,,1,,,69,84
84360,note_on,143,0,2,,,,,,,,1,,,69,61
84360,note_on,16,0,5,,,,,,,,0,,,72,70
84401,note_on,41,0,1,,,,,,,,1,,,69,0
84401,note_on,41,0,2,,,,,,,,1,,,69,0
84402,note_on,42,0,5,,,,,,,,0,,,72,0
84420,note_on,18,0,5,,,,,,,,0,,,76,63
84420,note_on,19,0,2,,,,,,,,1,,,68,51
84420,note_on,19,0,1,,,,,,,,1,,,68,96
84440,note_on,80,0,3,,,,,,,,1,,,57,0
84456,note_on,216,0,6,,,,,,,,0,,,48,0
84456,note_on,216,0,4,,,,,,,,10,,,36,0
84462,note_on,42,0,1,,,,,,,,1,,,68,0
84464,note_on,44,0,2,,,,,,,,1,,,68,0
84476,note_on,56,0,5,,,,,,,,0,,,76,0
84480,note_on,4,0,5,,,,,,,,0,,,69,63
84480,note_on,40,0,3,,,,,,,,1,,,57,61
84480,note_on,18,0,1,,,,,,,,1,,,69,117
84480,note_on,16,0,2,,,,,,,,1,,,69,58
84480,note_on,24,0,6,,,,,,,,0,,,52,96
84480,note_on,24,0,4,,,,,,,,10,,,40,72
84532,note_on,52,0,5,,,,,,,,0,,,69,0
84540,note_on,8,0,5,,,,,,,,0,,,76,73
84547,note_on,67,0,2,,,,,,,,1,,,69,0
84558,note_on,78,0,1,,,,,,,,1,,,69,0
84562,note_on,82,0,3,,,,,,,,1,,,57,0
84593,note_on,53,0,5,,,,,,,,0,,,76,0
84600,note_on,42,0,1,,,,,,,,1,,,57,72
84600,note_on,38,0,3,,,,,,,,1,,,57,61
84600,note_on,53,0,2,,,,,,,,1,,,57,51
84600,note_on,7,0,5,,,,,,,,0,,,81,85
84640,note_on,40,0,2,,,,,,,,1,,,57,0
84647,note_on,47,0,1,,,,,,,,1,,,57,0
84657,note_on,57,0,5,,,,,,,,0,,,81,0
84660,note_on,3,0,5,,,,,,,,0,,,80,75
84660,note_on,13,0,1,,,,,,,,1,,,59,74
84660,note_on,20,0,2,,,,,,,,1,,,59,64
84678,note_on,78,0,3,,,,,,,,1,,,57,0
84696,note_on,216,0,4,,,,,,,,10,,,40,0
84696,note_on,216,0,6,,,,,,,,0,,,52,0
84697,note_on,37,0,2,,,,,,,,1,,,59,0
84703,note_on,43,0,1,,,,,,,,1,,,59,0
84717,note_on,57,0,5,,,,,,,,0,,,80,0
84720,note_on,3,0,5,,,,,,,,0,,,81,82
84720,note_on,23,0,2,,,,,,,,1,,,60,61
84720,note_on,17,0,1,,,,,,,,1,,,60,77
84720,note_on,42,0,3,,,,,,,,1,,,57,48
84765,note_on,45,0,5,,,,,,,,0,,,81,0
84779,note_on,59,0,1,,,,,,,,1,,,60,0
84780,note_on,15,0,5,,,,,,,,0,,,76,66
84790,note_on,70,0,2,,,,,,,,1,,,60,0
84805,note_on,85,0,3,,,,,,,,1,,,57,0
84826,note_on,46,0,5,,,,,,,,0,,,76,0
84840,note_on,50,0,2,,,,,,,,1,,,64,69
84840,note_on,14,0,5,,,,,,,,0,,,72,66
84840,note_on,61,0,1,,,,,,,,1,,,64,86
84840,note_on,144,0,4,,,,,,,,10,,,36,72
84840,note_on,35,0,3,,,,,,,,1,,,57,51
84840,note_on,144,0,6,,,,,,,,0,,,48,69
84886,note_on,46,0,4,,,,,,,,10,,,36,0
84890,note_on,50,0,5,,,,,,,,0,,,72,0
84894,note_on,54,0,6,,,,,,,,0,,,48,0
84900,note_on,10,0,5,,,,,,,,0,,,76,70
84900,note_on,14,0,4,,,,,,,,10,,,38,79
84900,note_on,6,0,6,,,,,,,,0,,,50,84
84907,note_on,67,0,1,,,,,,,,1,,,64,0
84912,note_on,72,0,2,,,,,,,,1,,,64,0
84922,note_on,82,0,3,,,,,,,,1,,,57,0
84937,note_on,37,0,6,,,,,,,,0,,,50,0
84948,note_on,48,0,4,,,,,,,,10,,,38,0
84955,note_on,55,0,5,,,,,,,,0,,,76,0
84960,note_on,38,0,3,,,,,,,,1,,,57,58
84960,note_on,5,0,5,,,,,,,,0,,,69,63
84960,note_on,12,0,4,,,,,,,,10,,,40,66
84960,note_on,23,0,6,,,,,,,,0,,,52,77
84960,note_on,48,0,2,,,,,,,,1,,,69,30
84960,note_on,53,0,1,,,,,,,,1,,,69,84
85011,note_on,51,0,5,,,,,,,,0,,,69,0
85020,note_on,9,0,5,,,,,,,,0,,,76,70
85023,note_on,63,0,1,,,,,,,,1,,,69,0
85024,note_on,64,0,6,,,,,,,,0,,,52,0
85032,note_on,72,0,4,,,,,,,,10,,,40,0
85034,note_on,74,0,3,,,,,,,,1,,,57,0
85037,note_on,77,0,2,,,,,,,,1,,,69,0
85069,note_on,49,0,5,,,,,,,,0,,,76,0
85080,note_on,11,0,5,,,,,,,,0,,,81,90
85080,note_on,56,0,6,,,,,,,,0,,,48,69
85080,note_on,43,0,2,,,,,,,,1,,,64,48
85080,note_on,48,0,4,,,,,,,,10,,,36,72
85080,note_on,57,0,1,,,,,,,,1,,,64,96
85080,note_on,46,0,3,,,,,,,,1,,,57,51
85124,note_on,44,0,4,,,,,,,,10,,,36,0
85125,note_on,45,0,6,,,,,,,,0,,,48,0
85140,note_on,0,0,5,,,,,,,,0,,,80,66
85140,note_on,16,0,4,,,,,,,,10,,,38,66
85140,note_on,60,0,5,,,,,,,,0,,,81,0
85140,note_on,15,0,6,,,,,,,,0,,,50,64
85143,note_on,63,0,2,,,,,,,,1,,,64,0
85147,note_on,67,0,1,,,,,,,,1,,,64,0
85152,note_on,72,0,3,,,,,,,,1,,,57,0
85179,note_on,39,0,6,,,,,,,,0,,,50,0
85188,note_on,48,0,4,,,,,,,,10,,,38,0
85197,note_on,57,0,5,,,,,,,,0,,,80,0
85200,note_on,21,0,6,,,,,,,,0,,,52,58
85200,note_on,48,0,3,,,,,,,,1,,,57,48
85200,note_on,3,0,5,,,,,,,,0,,,81,75
85200,note_on,53,0,1,,,,,,,,1,,,69,93
85200,note_on,12,0,4,,,,,,,,10,,,40,64
85200,note_on,57,0,2,,,,,,,,1,,,69,58
85246,note_on,46,0,5,,,,,,,,0,,,81,0
85260,note_on,14,0,5,,,,,,,,0,,,76,66
85262,note_on,62,0,1,,,,,,,,1,,,69,0
85263,note_on,63,0,6,,,,,,,,0,,,52,0
85272,note_on,72,0,2,,,,,,,,1,,,69,0
85279,note_on,79,0,3,,,,,,,,1,,,57,0
85286,note_on,86,0,4,,,,,,,,10,,,40,0
85317,note_on,57,0,5,,,,,,,,0,,,76,0
85320,note_on,3,0,5,,,,,,,,0,,,72,73
85320,note_on,34,0,4,,,,,,,,10,,,45,58
85320,note_on,58,0,1,,,,,,,,1,,,72,77
85320,note_on,57,0,6,,,,,,,,0,,,57,64
85320,note_on,41,0,3,,,,,,,,1,,,57,43
85320,note_on,48,0,2,,,,,,,,1,,,72,55
85376,note_on,56,0,5,,,,,,,,0,,,72,0
85380,note_on,4,0,5,,,,,,,,0,,,76,96
85382,note_on,62,0,1,,,,,,,,1,,,72,0
85384,note_on,64,0,6,,,,,,,,0,,,57,0
85396,note_on,76,0,3,,,,,,,,1,,,57,0
85401,note_on,81,0,4,,,,,,,,10,,,45,0
85416,note_on,96,0,2,,,,,,,,1,,,72,0
85439,note_on,59,0,5,,,,,,,,0,,,76,0
85440,note_on,44,0,3,,,,,,,,1,,,57,51
85440,note_on,1,0,5,,,,,,,,0,,,69,55
85440,note_on,24,0,2,,,,,,,,1,,,76,64
85440,note_on,58,0,1,,,,,,,,1,,,76,117
85440,note_on,56,0,6,,,,,,,,0,,,52,69
85440,note_on,39,0,4,,,,,,,,10,,,40,84
85490,note_on,50,0,5,,,,,,,,0,,,69,0
85495,note_on,55,0,2,,,,,,,,1,,,76,0
85496,note_on,56,0,1,,,,,,,,1,,,76,0
85499,note_on,59,0,6,,,,,,,,0,,,52,0
85500,note_on,10,0,5,,,,,,,,0,,,76,75
85514,note_on,74,0,3,,,,,,,,1,,,57,0
85521,note_on,81,0,4,,,,,,,,10,,,40,0
85553,note_on,53,0,5,,,,,,,,0,,,76,0
85560,note_on,61,0,6,,,,,,,,0,,,52,66
85560,note_on,39,0,4,,,,,,,,10,,,40,79
85560,note_on,64,0,1,,,,,,,,1,,,72,86
85560,note_on,7,0,5,,,,,,,,0,,,81,90
85560,note_on,65,0,2,,,,,,,,1,,,72,58
85560,note_on,46,0,3,,,,,,,,1,,,57,43
85606,note_on,46,0,6,,,,,,,,0,,,52,0
85610,note_on,50,0,4,,,,,,,,10,,,40,0
85615,note_on,55,0,5,,,,,,,,0,,,81,0
85620,note_on,10,0,4,,,,,,,,10,,,38,55
85620,note_on,5,0,5,,,,,,,,0,,,80,82
85620,note_on,14,0,6,,,,,,,,0,,,50,55
85627,note_on,67,0,3,,,,,,,,1,,,57,0
85634,note_on,74,0,1,,,,,,,,1,,,72,0
85639,note_on,79,0,2,,,,,,,,1,,,72,0
85662,note_on,42,0,6,,,,,,,,0,,,50,0
85667,note_on,47,0,4,,,,,,,,10,,,38,0
85678,note_on,58,0,5,,,,,,,,0,,,80,0
85680,note_on,53,0,3,,,,,,,,1,,,57,51
85680,note_on,13,0,4,,,,,,,,10,,,36,58
85680,note_on,41,0,2,,,,,,,,1,,,69,55
85680,note_on,2,0,5,,,,,,,,0,,,81,75
85680,note_on,18,0,6,,,,,,,,0,,,48,66
85680,note_on,46,0,1,,,,,,,,1,,,69,77
85733,note_on,53,0,5,,,,,,,,0,,,81,0
85739,note_on,59,0,6,,,,,,,,0,,,48,0
85740,note_on,7,0,5,,,,,,,,0,,,76,55
85746,note_on,66,0,1,,,,,,,,1,,,69,0
85758,note_on,78,0,2,,,,,,,,1,,,69,0
85758,note_on,78,0,3,,,,,,,,1,,,57,0
85784,note_on,104,0,4,,,,,,,,10,,,36,0
85790,note_on,50,0,5,,,,,,,,0,,,76,0
85800,note_on,16,0,4,,,,,,,,10,,,35,64
85800,note_on,42,0,3,,,,,,,,1,,,57,48
85800,note_on,54,0,1,,,,,,,,1,,,66,77
85800,note_on,61,0,6,,,,,,,,0,,,47,61
85800,note_on,42,0,2,,,,,,,,1,,,66,51
85800,note_on,10,0,5,,,,,,,,0,,,72,70
85848,note_on,48,0,4,,,,,,,,10,,,35,0
85857,note_on,57,0,6,,,,,,,,0,,,47,0
85858,note_on,58,0,5,,,,,,,,0,,,72,0
85860,note_on,12,0,4,,,,,,,,10,,,33,74
85860,note_on,2,0,5,,,,,,,,0,,,76,63
85860,note_on,3,0,6,,,,,,,,0,,,45,79
85864,note_on,64,0,2,,,,,,,,1,,,66,0
85876,note_on,76,0,1,,,,,,,,1,,,66,0
85880,note_on,80,0,3,,,,,,,,1,,,57,0
85897,note_on,37,0,6,,,,,,,,0,,,45,0
85903,note_on,43,0,4,,,,,,,,10,,,33,0
85919,note_on,59,0,5,,,,,,,,0,,,76,0
85920,note_on,23,0,6,,,,,,,,0,,,51,89
85920,note_on,56,0,2,,,,,,,,1,,,59,64
85920,note_on,40,0,3,,,,,,,,1,,,59,58
85920,note_on,17,0,4,,,,,,,,10,,,39,93
85920,note_on,44,0,1,,,,,,,,1,,,59,108
85920,note_on,1,0,5,,,,,,,,0,,,71,73
85975,note_on,55,0,5,,,,,,,,0,,,71,0
85980,note_on,5,0,5,,,,,,,,0,,,78,58
86000,note_on,80,0,3,,,,,,,,1,,,59,0
86035,note_on,55,0,5,,,,,,,,0,,,78,0
86040,note_on,40,0,3,,,,,,,,1,,,59,58
86040,note_on,5,0,5,,,,,,,,0,,,81,79
86100,note_on,60,0,5,,,,,,,,0,,,79,73
86101,note_on,1,0,5,,,,,,,,0,,,81,0
86107,note_on,67,0,3,,,,,,,,1,,,59,0
86136,note_on,216,0,6,,,,,,,,0,,,51,0
86136,note_on,216,0,1,,,,,,,,1,,,59,0
86136,note_on,216,0,2,,,,,,,,1,,,59,0
86136,note_on,216,0,4,,,,,,,,10,,,39,0
86160,note_on,24,0,2,,,,,,,,1,,,63,55
86160,note_on,53,0,3,,,,,,,,1,,,59,58
86160,note_on,24,0,1,,,,,,,,1,,,63,105
86160,note_on,59,0,5,,,,,,,,0,,,81,88
86172,note_on,12,0,5,,,,,,,,0,,,79,0
86220,note_on,48,0,5,,,,,,,,0,,,78,70
86236,note_on,76,0,3,,,,,,,,1,,,59,0
86236,note_on,16,0,5,,,,,,,,0,,,81,0
86275,note_on,39,0,5,,,,,,,,0,,,78,0
86280,note_on,5,0,5,,,,,,,,0,,,75,75
86280,note_on,44,0,3,,,,,,,,1,,,59,51
86280,note_on,144,0,6,,,,,,,,0,,,59,79
86337,note_on,57,0,5,,,,,,,,0,,,75,0
86340,note_on,3,0,5,,,,,,,,0,,,78,66
86346,note_on,66,0,6,,,,,,,,0,,,59,0
86348,note_on,68,0,3,,,,,,,,1,,,59,0
86376,note_on,216,0,1,,,,,,,,1,,,63,0
86376,note_on,216,0,2,,,,,,,,1,,,63,0
86392,note_on,52,0,5,,,,,,,,0,,,78,0
86400,note_on,52,0,3,,,,,,,,1,,,59,43
86400,note_on,8,0,5,,,,,,,,0,,,71,70
86400,note_on,54,0,6,,,,,,,,0,,,59,69
86400,note_on,24,0,1,,,,,,,,1,,,66,127
86400,note_on,24,0,2,,,,,,,,1,,,66,39
86456,note_on,56,0,5,,,,,,,,0,,,71,0
86460,note_on,60,0,6,,,,,,,,0,,,59,0
86460,note_on,4,0,5,,,,,,,,0,,,78,75
86475,note_on,75,0,3,,,,,,,,1,,,59,0
86520,note_on,45,0,3,,,,,,,,1,,,59,55
86520,note_on,60,0,5,,,,,,,,0,,,81,85
86520,note_on,60,0,6,,,,,,,,0,,,47,69
86529,note_on,9,0,5,,,,,,,,0,,,78,0
86565,note_on,45,0,6,,,,,,,,0,,,47,0
86580,note_on,15,0,6,,,,,,,,0,,,49,66
86580,note_on,51,0,5,,,,,,,,0,,,79,90
86584,note_on,64,0,3,,,,,,,,1,,,59,0
86592,note_on,12,0,5,,,,,,,,0,,,81,0
86616,note_on,216,0,1,,,,,,,,1,,,66,0
86616,note_on,216,0,2,,,,,,,,1,,,66,0
86626,note_on,46,0,6,,,,,,,,0,,,49,0
86640,note_on,48,0,5,,,,,,,,0,,,81,88
86640,note_on,14,0,6,,,,,,,,0,,,51,61
86640,note_on,56,0,3,,,,,,,,1,,,59,48
86644,note_on,4,0,5,,,,,,,,0,,,79,0
86695,note_on,55,0,6,,,,,,,,0,,,51,0
86697,note_on,53,0,5,,,,,,,,0,,,81,0
86700,note_on,3,0,5,,,,,,,,0,,,78,82
86706,note_on,66,0,3,,,,,,,,1,,,59,0
86756,note_on,56,0,5,,,,,,,,0,,,78,0
86760,note_on,4,0,5,,,,,,,,0,,,75,75
86760,note_on,65,0,6,,,,,,,,0,,,54,89
86760,note_on,54,0,3,,,,,,,,1,,,59,35
86760,note_on,144,0,2,,,,,,,,1,,,63,48
86760,note_on,144,0,1,,,,,,,,1,,,63,124
86792,note_on,32,0,2,,,,,,,,1,,,63,0
86800,note_on,40,0,1,,,,,,,,1,,,63,0
86817,note_on,57,0,5,,,,,,,,0,,,75,0
86820,note_on,3,0,5,,,,,,,,0,,,78,58
86820,note_on,28,0,2,,,,,,,,1,,,64,58
86820,note_on,20,0,1,,,,,,,,1,,,64,89
86820,note_on,60,0,6,,,,,,,,0,,,54,0
86829,note_on,69,0,3,,,,,,,,1,,,59,0
86854,note_on,34,0,2,,,,,,,,1,,,64,0
86865,note_on,45,0,1,,,,,,,,1,,,64,0
86875,note_on,55,0,5,,,,,,,,0,,,78,0
86880,note_on,60,0,6,,,,,,,,0,,,59,84
86880,note_on,51,0,3,,,,,,,,1,,,59,43
86880,note_on,15,0,1,,,,,,,,1,,,66,96
86880,note_on,5,0,5,,,,,,,,0,,,71,66
86880,note_on,26,0,2,,,,,,,,1,,,66,51
86937,note_on,57,0,6,,,,,,,,0,,,59,0
86939,note_on,59,0,5,,,,,,,,0,,,71,0
86940,note_on,1,0,5,,,,,,,,0,,,75,66
86940,note_on,60,0,2,,,,,,,,1,,,66,0
86941,note_on,61,0,1,,,,,,,,1,,,66,0
86947,note_on,67,0,3,,,,,,,,1,,,59,0
86982,note_on,42,0,5,,,,,,,,0,,,75,0
87000,note_on,63,0,6,,,,,,,,0,,,54,89
87000,note_on,60,0,2,,,,,,,,1,,,63,58
87000,note_on,18,0,5,,,,,,,,0,,,81,79
87000,note_on,53,0,3,,,,,,,,1,,,59,35
87000,note_on,59,0,1,,,,,,,,1,,,63,120
87034,note_on,34,0,2,,,,,,,,1,,,63,0
87036,note_on,36,0,1,,,,,,,,1,,,63,0
87058,note_on,58,0,5,,,,,,,,0,,,81,0
87060,note_on,2,0,5,,,,,,,,0,,,79,75
87060,note_on,26,0,2,,,,,,,,1,,,64,48
87060,note_on,24,0,1,,,,,,,,1,,,64,102
87061,note_on,61,0,3,,,,,,,,1,,,59,0
87064,note_on,64,0,6,,,,,,,,0,,,54,0
87101,note_on,41,0,2,,,,,,,,1,,,64,0
87108,note_on,48,0,1,,,,,,,,1,,,64,0
87120,note_on,56,0,6,,,,,,,,0,,,59,69
87120,note_on,60,0,5,,,,,,,,0,,,79,0
87120,note_on,12,0,1,,,,,,,,1,,,66,86
87120,note_on,59,0,3,,,,,,,,1,,,59,51
87120,note_on,0,0,5,,,,,,,,0,,,81,82
87120,note_on,19,0,2,,,,,,,,1,,,66,26
87174,note_on,54,0,1,,,,,,,,1,,,66,0
87180,note_on,60,0,5,,,,,,,,0,,,78,73
87182,note_on,62,0,2,,,,,,,,1,,,66,0
87187,note_on,67,0,6,,,,,,,,0,,,59,0
87188,note_on,8,0,5,,,,,,,,0,,,81,0
87194,note_on,74,0,3,,,,,,,,1,,,59,0
87228,note_on,40,0,5,,,,,,,,0,,,78,0
87240,note_on,53,0,6,,,,,,,,0,,,63,84
87240,note_on,46,0,3,,,,,,,,1,,,59,39
87240,note_on,12,0,5,,,,,,,,0,,,75,75
87240,note_on,58,0,2,,,,,,,,1,,,71,51
87240,note_on,66,0,1,,,,,,,,1,,,71,89
87289,note_on,49,0,2,,,,,,,,1,,,71,0
87295,note_on,55,0,5,,,,,,,,0,,,75,0
87300,note_on,5,0,5,,,,,,,,0,,,78,44
87301,note_on,61,0,6,,,,,,,,0,,,63,0
87304,note_on,64,0,1,,,,,,,,1,,,71,0
87307,note_on,67,0,3,,,,,,,,1,,,59,0
87355,note_on,55,0,5,,,,,,,,0,,,78,0
87360,note_on,71,0,2,,,,,,,,1,,,66,72
87360,note_on,53,0,3,,,,,,,,1,,,59,64
87360,note_on,56,0,1,,,,,,,,1,,,66,117
87360,note_on,5,0,5,,,,,,,,0,,,71,79
87360,note_on,59,0,6,,,,,,,,0,,,66,61
87418,note_on,58,0,5,,,,,,,,0,,,71,0
87418,note_on,58,0,3,,,,,,,,1,,,59,0
87420,note_on,2,0,5,,,,,,,,0,,,78,82
87424,note_on,64,0,1,,,,,,,,1,,,66,0
87427,note_on,67,0,6,,,,,,,,0,,,66,0
87428,note_on,68,0,2,,,,,,,,1,,,66,0
87472,control_change,1336,0,4,,,,,,,,10,7,82,,
87480,note_on,53,0,6,,,,,,,,0,,,63,64
87480,note_on,56,0,1,,,,,,,,1,,,66,105
87480,note_on,52,0,2,,,,,,,,1,,,66,77
87480,note_on,60,0,5,,,,,,,,0,,,81,82
87480,note_on,62,0,3,,,,,,,,1,,,59,74
87483,note_on,3,0,5,,,,,,,,0,,,78,0
87513,control_change,41,0,4,,,,,,,,10,7,83,,
87521,note_on,41,0,2,,,,,,,,1,,,66,0
87527,note_on,47,0,1,,,,,,,,1,,,66,0
87540,note_on,57,0,5,,,,,,,,0,,,79,73
87540,note_on,19,0,2,,,,,,,,1,,,64,72
87540,note_on,13,0,1,,,,,,,,1,,,64,74
87543,note_on,63,0,6,,,,,,,,0,,,63,0
87543,note_on,3,0,5,,,,,,,,0,,,81,0
87550,note_on,70,0,3,,,,,,,,1,,,59,0
87589,note_on,49,0,2,,,,,,,,1,,,64,0
87598,note_on,58,0,1,,,,,,,,1,,,64,0
87600,note_on,11,0,2,,,,,,,,1,,,63,96
87600,note_on,2,0,1,,,,,,,,1,,,63,102
87600,note_on,57,0,5,,,,,,,,0,,,81,82
87600,note_on,57,0,6,,,,,,,,0,,,59,66
87600,note_on,50,0,3,,,,,,,,1,,,59,72
87607,note_on,7,0,5,,,,,,,,0,,,79,0
87660,note_on,53,0,5,,,,,,,,0,,,78,75
87666,note_on,66,0,6,,,,,,,,0,,,59,0
87675,note_on,15,0,5,,,,,,,,0,,,81,0
87677,note_on,77,0,1,,,,,,,,1,,,63,0
87677,note_on,77,0,3,,,,,,,,1,,,59,0
87679,note_on,79,0,2,,,,,,,,1,,,63,0
87715,note_on,40,0,5,,,,,,,,0,,,78,0
87720,note_on,43,0,1,,,,,,,,1,,,61,124
87720,note_on,207,0,4,,,,,,,,10,,,39,127
87720,note_on,43,0,3,,,,,,,,1,,,59,74
87720,note_on,41,0,2,,,,,,,,1,,,61,72
87720,note_on,5,0,5,,,,,,,,0,,,75,88
87720,note_on,54,0,6,,,,,,,,0,,,63,69
87723,control_change,3,0,4,,,,,,,,10,7,82,,
87742,control_change,19,0,4,,,,,,,,10,7,81,,
87757,note_on,37,0,2,,,,,,,,1,,,61,0
87761,note_on,41,0,1,,,,,,,,1,,,61,0
87775,note_on,55,0,5,,,,,,,,0,,,75,0
87780,note_on,19,0,1,,,,,,,,1,,,59,74
87780,note_on,5,0,5,,,,,,,,0,,,78,82
87780,note_on,23,0,2,,,,,,,,1,,,59,72
87783,note_on,63,0,6,,,,,,,,0,,,63,0
87796,control_change,54,0,4,,,,,,,,10,7,79,,
87801,note_on,81,0,3,,,,,,,,1,,,59,0
87809,note_on,13,0,4,,,,,,,,10,,,39,0
87833,note_on,53,0,2,,,,,,,,1,,,59,0
87836,note_on,56,0,5,,,,,,,,0,,,78,0
87836,note_on,56,0,1,,,,,,,,1,,,59,0
87840,note_on,7,0,2,,,,,,,,1,,,71,84
87840,note_on,57,0,6,,,,,,,,0,,,64,108
87840,note_on,39,0,3,,,,,,,,1,,,64,77
87840,note_on,4,0,5,,,,,,,,0,,,71,113
87840,note_on,4,0,1,,,,,,,,1,,,79,127
87840,note_on,31,0,4,,,,,,,,10,,,40,127
87844,control_change,4,0,1,,,,,,,,1,7,103,,
87861,control_change,17,0,1,,,,,,,,1,7,104,,
87870,control_change,9,0,1,,,,,,,,1,7,106,,
87878,control_change,8,0,1,,,,,,,,1,7,107,,
87887,control_change,9,0,1,,,,,,,,1,7,109,,
87895,note_on,55,0,5,,,,,,,,0,,,71,0
87900,note_on,5,0,5,,,,,,,,0,,,79,96
87912,note_on,25,0,1,,,,,,,,1,,,79,0
87916,note_on,76,0,2,,,,,,,,1,,,71,0
87923,note_on,83,0,3,,,,,,,,1,,,64,0
87925,note_on,85,0,6,,,,,,,,0,,,64,0
87932,note_on,92,0,4,,,,,,,,10,,,40,0
87956,note_on,56,0,5,,,,,,,,0,,,79,0
87960,note_on,35,0,6,,,,,,,,0,,,60,79
87960,note_on,44,0,2,,,,,,,,1,,,72,79
87960,note_on,4,0,5,,,,,,,,0,,,78,102
87960,note_on,28,0,4,,,,,,,,10,,,36,127
87960,note_on,48,0,1,,,,,,,,1,,,78,105
87960,note_on,37,0,3,,,,,,,,1,,,67,99
88000,note_on,40,0,1,,,,,,,,1,,,78,0
88015,note_on,55,0,5,,,,,,,,0,,,78,0
88020,note_on,20,0,1,,,,,,,,1,,,76,89
88020,note_on,5,0,5,,,,,,,,0,,,76,93
88029,note_on,69,0,6,,,,,,,,0,,,60,0
88042,note_on,82,0,2,,,,,,,,1,,,72,0
88048,note_on,88,0,3,,,,,,,,1,,,67,0
88060,note_on,100,0,4,,,,,,,,10,,,36,0
88062,note_on,42,0,5,,,,,,,,0,,,76,0
88070,note_on,50,0,1,,,,,,,,1,,,76,0
88080,note_on,18,0,5,,,,,,,,0,,,79,110
88080,note_on,32,0,3,,,,,,,,1,,,69,86
88080,note_on,20,0,4,,,,,,,,10,,,33,127
88080,note_on,10,0,1,,,,,,,,1,,,78,102
88080,note_on,38,0,2,,,,,,,,1,,,72,84
88080,note_on,51,0,6,,,,,,,,0,,,57,96
88137,note_on,57,0,1,,,,,,,,1,,,78,0
88139,note_on,59,0,5,,,,,,,,0,,,79,0
88140,note_on,1,0,5,,,,,,,,0,,,78,75
88142,control_change,62,0,4,,,,,,,,10,7,80,,
88152,note_on,72,0,6,,,,,,,,0,,,57,0
88163,note_on,83,0,2,,,,,,,,1,,,72,0
88169,note_on,89,0,3,,,,,,,,1,,,69,0
88189,note_on,47,0,4,,,,,,,,10,,,33,0
88199,note_on,59,0,5,,,,,,,,0,,,78,0
88200,note_on,48,0,6,,,,,,,,0,,,59,89
88200,note_on,11,0,4,,,,,,,,10,,,35,111
88200,note_on,31,0,3,,,,,,,,1,,,66,91
88200,note_on,1,0,5,,,,,,,,0,,,76,96
88200,note_on,63,0,1,,,,,,,,1,,,76,77
88200,note_on,37,0,2,,,,,,,,1,,,71,74
88245,note_on,45,0,1,,,,,,,,1,,,76,0
88253,note_on,53,0,5,,,,,,,,0,,,76,0
88260,note_on,15,0,1,,,,,,,,1,,,75,66
88260,note_on,7,0,5,,,,,,,,0,,,75,88
88270,note_on,70,0,6,,,,,,,,0,,,59,0
88275,note_on,75,0,2,,,,,,,,1,,,71,0
88282,note_on,82,0,3,,,,,,,,1,,,66,0
88292,note_on,92,0,4,,,,,,,,10,,,35,0
88293,note_on,33,0,5,,,,,,,,0,,,75,0
88303,note_on,43,0,1,,,,,,,,1,,,75,0
88320,note_on,50,0,6,,,,,,,,0,,,55,79
88320,note_on,28,0,4,,,,,,,,10,,,31,69
88320,note_on,27,0,5,,,,,,,,0,,,76,98
88320,note_on,38,0,3,,,,,,,,1,,,64,58
88320,note_on,45,0,2,,,,,,,,1,,,71,72
88320,note_on,17,0,1,,,,,,,,1,,,76,30
88358,note_on,38,0,5,,,,,,,,0,,,76,0
88380,note_on,22,0,5,,,,,,,,0,,,76,106
88419,note_on,99,0,6,,,,,,,,0,,,55,0
88430,note_on,50,0,5,,,,,,,,0,,,76,0
88433,note_on,113,0,4,,,,,,,,10,,,31,0
88440,note_on,10,0,5,,,,,,,,0,,,74,98
88440,note_on,21,0,6,,,,,,,,0,,,56,108
88440,note_on,7,0,4,,,,,,,,10,,,32,39
88485,note_on,45,0,5,,,,,,,,0,,,74,0
88500,note_on,15,0,5,,,,,,,,0,,,76,96
88531,note_on,211,0,2,,,,,,,,1,,,71,0
88536,note_on,96,0,6,,,,,,,,0,,,56,0
88537,note_on,37,0,5,,,,,,,,0,,,76,0
88560,note_on,23,0,5,,,,,,,,0,,,72,85
88560,note_on,29,0,2,,,,,,,,1,,,68,58
88560,note_on,120,0,4,,,,,,,,10,,,32,0
88605,note_on,45,0,5,,,,,,,,0,,,72,0
88620,note_on,15,0,5,,,,,,,,0,,,76,75
88669,note_on,49,0,5,,,,,,,,0,,,76,0
88680,note_on,11,0,5,,,,,,,,0,,,71,90
88680,note_on,144,0,6,,,,,,,,0,,,52,93
88732,note_on,52,0,5,,,,,,,,0,,,71,0
88740,note_on,8,0,5,,,,,,,,0,,,76,85
88753,note_on,73,0,6,,,,,,,,0,,,52,0
88761,note_on,441,0,3,,,,,,,,1,,,64,0
88770,note_on,210,0,2,,,,,,,,1,,,68,0
88778,note_on,38,0,5,,,,,,,,0,,,76,0
88800,note_on,47,0,6,,,,,,,,0,,,57,96
88800,note_on,30,0,2,,,,,,,,1,,,69,48
88800,note_on,39,0,3,,,,,,,,1,,,60,14
88800,note_on,22,0,5,,,,,,,,0,,,72,88
88806,control_change,486,0,1,,,,,,,,1,7,108,,
88850,note_on,50,0,5,,,,,,,,0,,,72,0
88860,note_on,10,0,5,,,,,,,,0,,,76,75
88870,note_on,70,0,6,,,,,,,,0,,,57,0
88898,control_change,92,0,1,,,,,,,,1,7,107,,
88899,note_on,39,0,5,,,,,,,,0,,,76,0
88920,note_on,50,0,6,,,,,,,,0,,,55,77
88920,note_on,21,0,5,,,,,,,,0,,,71,88
88973,note_on,53,0,5,,,,,,,,0,,,71,0
88980,note_on,7,0,5,,,,,,,,0,,,76,79
88991,note_on,71,0,6,,,,,,,,0,,,55,0
89005,control_change,107,0,1,,,,,,,,1,7,105,,
89024,note_on,44,0,5,,,,,,,,0,,,76,0
89040,note_on,49,0,6,,,,,,,,0,,,54,77
89040,note_on,16,0,5,,,,,,,,0,,,69,85
89051,control_change,46,0,1,,,,,,,,1,7,104,,
89093,note_on,53,0,5,,,,,,,,0,,,69,0
89100,note_on,7,0,5,,,,,,,,0,,,76,82
89104,note_on,64,0,6,,,,,,,,0,,,54,0
89149,note_on,49,0,5,,,,,,,,0,,,76,0
89160,note_on,11,0,5,,,,,,,,0,,,67,82
89160,note_on,56,0,6,,,,,,,,0,,,52,96
89214,note_on,54,0,5,,,,,,,,0,,,67,0
89220,note_on,6,0,5,,,,,,,,0,,,76,90
89226,note_on,66,0,6,,,,,,,,0,,,52,0
89258,note_on,38,0,5,,,,,,,,0,,,76,0
89270,note_on,219,0,1,,,,,,,,1,,,76,0
89280,note_on,22,0,5,,,,,,,,0,,,66,70
89280,note_on,10,0,1,,,,,,,,1,,,78,72
89280,note_on,54,0,6,,,,,,,,0,,,51,79
89322,note_on,42,0,6,,,,,,,,0,,,51,0
89326,note_on,46,0,5,,,,,,,,0,,,66,0
89340,note_on,14,0,5,,,,,,,,0,,,67,73
89340,note_on,18,0,6,,,,,,,,0,,,52,79
89385,note_on,45,0,5,,,,,,,,0,,,67,0
89393,note_on,53,0,6,,,,,,,,0,,,52,0
89400,note_on,7,0,6,,,,,,,,0,,,54,64
89400,note_on,15,0,5,,,,,,,,0,,,69,73
89444,note_on,44,0,6,,,,,,,,0,,,54,0
89449,note_on,49,0,5,,,,,,,,0,,,69,0
89460,note_on,16,0,6,,,,,,,,0,,,52,79
89460,note_on,11,0,5,,,,,,,,0,,,71,82
89492,note_on,32,0,5,,,,,,,,0,,,71,0
89496,note_on,696,0,3,,,,,,,,1,,,60,0
89496,note_on,216,0,1,,,,,,,,1,,,78,0
89496,note_on,696,0,2,,,,,,,,1,,,69,0
89500,note_on,40,0,6,,,,,,,,0,,,52,0
89520,note_on,20,0,6,,,,,,,,0,,,51,81
89520,note_on,28,0,5,,,,,,,,0,,,72,82
89549,note_on,29,0,5,,,,,,,,0,,,72,0
89550,note_on,1,0,5,,,,,,,,0,,,71,117
89560,note_on,40,0,6,,,,,,,,0,,,51,0
89579,note_on,29,0,5,,,,,,,,0,,,71,0
89580,note_on,20,0,6,,,,,,,,0,,,54,74
89580,note_on,1,0,5,,,,,,,,0,,,72,85
89635,note_on,55,0,6,,,,,,,,0,,,54,0
89640,note_on,1080,0,4,,,,,,,,10,,,35,127
89640,note_on,144,0,3,,,,,,,,1,,,54,127
89640,note_on,5,0,6,,,,,,,,0,,,47,79
89640,note_on,144,0,1,,,,,,,,1,,,71,86
89640,note_on,144,0,2,,,,,,,,1,,,63,111
89688,note_on,108,0,5,,,,,,,,0,,,72,0
89690,note_on,50,0,1,,,,,,,,1,,,71,0
89699,note_on,59,0,6,,,,,,,,0,,,47,0
89700,note_on,12,0,5,,,,,,,,0,,,71,117
89700,note_on,1,0,6,,,,,,,,0,,,51,74
89717,note_on,77,0,2,,,,,,,,1,,,63,0
89724,note_on,84,0,4,,,,,,,,10,,,35,0
89737,note_on,97,0,3,,,,,,,,1,,,54,0
89738,note_on,38,0,5,,,,,,,,0,,,71,0
89746,note_on,46,0,6,,,,,,,,0,,,51,0
89760,note_on,70,0,1,,,,,,,,1,,,69,96
89760,note_on,14,0,6,,,,,,,,0,,,52,91
89760,note_on,22,0,5,,,,,,,,0,,,69,124
89760,note_on,36,0,4,,,,,,,,10,,,40,127
89760,note_on,23,0,3,,,,,,,,1,,,52,120
89760,note_on,43,0,2,,,,,,,,1,,,59,79
89808,note_on,48,0,5,,,,,,,,0,,,69,0
89808,note_on,48,0,1,,,,,,,,1,,,69,0
89820,note_on,12,0,1,,,,,,,,1,,,67,79
89820,note_on,12,0,5,,,,,,,,0,,,67,90
89828,note_on,68,0,6,,,,,,,,0,,,52,0
89830,note_on,70,0,2,,,,,,,,1,,,59,0
89847,note_on,87,0,4,,,,,,,,10,,,40,0
89859,note_on,99,0,3,,,,,,,,1,,,52,0
89861,note_on,41,0,1,,,,,,,,1,,,67,0
89862,note_on,42,0,5,,,,,,,,0,,,67,0
89868,aftertouch,21,0,4,,,,,,,,10,,18,,
89877,aftertouch,9,0,4,,,,,,,,10,,0,,
89879,aftertouch,2,0,4,,,,,,,,10,,15,,
89880,note_on,21,0,3,,,,,,,,1,,,57,127
89880,note_on,1,0,4,,,,,,,,10,,,36,127
89880,note_on,18,0,5,,,,,,,,0,,,66,106
89880,note_on,52,0,6,,,,,,,,0,,,48,117
89880,note_on,19,0,1,,,,,,,,1,,,66,64
89880,note_on,50,0,2,,,,,,,,1,,,60,84
89887,aftertouch,7,0,4,,,,,,,,10,,0,,
89889,aftertouch,9,0,6,,,,,,,,0,,7,,
89889,aftertouch,9,0,5,,,,,,,,0,,7,,
89890,aftertouch,3,0,4,,,,,,,,10,,7,,
89898,aftertouch,8,0,4,,,,,,,,10,,0,,
89900,aftertouch,11,0,5,,,,,,,,0,,3,,
89900,aftertouch,11,0,6,,,,,,,,0,,3,,
89900,aftertouch,2,0,4,,,,,,,,10,,3,,
89908,aftertouch,8,0,4,,,,,,,,10,,0,,
89910,aftertouch,10,0,6,,,,,,,,0,,1,,
89911,aftertouch,11,0,5,,,,,,,,0,,1,,
89911,aftertouch,3,0,4,,,,,,,,10,,1,,
89918,note_on,7,0,5,,,,,,,,0,,,66,0
89919,aftertouch,8,0,4,,,,,,,,10,,0,,
89927,note_on,47,0,1,,,,,,,,1,,,66,0
89940,note_on,22,0,5,,,,,,,,0,,,64,110
89940,note_on,13,0,1,,,,,,,,1,,,64,86
89965,note_on,55,0,6,,,,,,,,0,,,48,0
89966,control_change,26,0,1,,,,,,,,1,7,106,,
89971,note_on,91,0,3,,,,,,,,1,,,57,0
89971,note_on,31,0,5,,,,,,,,0,,,64,0
89974,note_on,8,0,1,,,,,,,,1,,,64,0
89977,note_on,58,0,4,,,,,,,,10,,,36,0
89987,control_change,10,0,4,,,,,,,,10,7,79,,
89987,control_change,13,0,1,,,,,,,,1,7,107,,
90000,note_on,13,0,1,,,,,,,,1,,,67,124
90000,note_on,29,0,3,,,,,,,,1,,,59,127
90000,note_on,29,0,5,,,,,,,,0,,,67,93
90000,note_on,13,0,4,,,,,,,,10,,,33,108
90000,note_on,35,0,6,,,,,,,,0,,,45,127
90001,control_change,1,0,4,,,,,,,,10,7,80,,
90010,control_change,9,0,4,,,,,,,,10,7,82,,
90015,control_change,15,0,1,,,,,,,,1,7,109,,
90018,control_change,8,0,4,,,,,,,,10,7,83,,
90033,control_change,15,0,4,,,,,,,,10,7,85,,
90044,note_on,29,0,1,,,,,,,,1,,,67,0
90046,control_change,13,0,4,,,,,,,,10,7,86,,
90055,note_on,55,0,5,,,,,,,,0,,,67,0
90060,note_on,5,0,5,,,,,,,,0,,,66,73
90060,note_on,16,0,1,,,,,,,,1,,,66,77
90063,control_change,17,0,4,,,,,,,,10,7,88,,
90066,note_on,186,0,2,,,,,,,,1,,,60,0
90080,control_change,17,0,4,,,,,,,,10,7,89,,
90086,note_on,86,0,6,,,,,,,,0,,,45,0
90103,note_on,43,0,1,,,,,,,,1,,,66,0
90104,note_on,24,0,4,,,,,,,,10,,,33,0
90105,control_change,1,0,4,,,,,,,,10,7,91,,
90106,note_on,46,0,5,,,,,,,,0,,,66,0
90106,note_on,106,0,3,,,,,,,,1,,,59,0
90114,control_change,9,0,4,,,,,,,,10,7,92,,
90116,aftertouch,10,0,3,,,,,,,,1,,12,,
90120,note_on,6,0,4,,,,,,,,10,,,35,127
90120,note_on,34,0,6,,,,,,,,0,,,47,127
90120,note_on,4,0,3,,,,,,,,1,,,54,127
90120,note_on,14,0,5,,,,,,,,0,,,64,98
90120,note_on,54,0,2,,,,,,,,1,,,59,127
90120,note_on,17,0,1,,,,,,,,1,,,64,96
90122,aftertouch,2,0,3,,,,,,,,1,,0,,
90124,aftertouch,4,0,6,,,,,,,,0,,6,,
90124,aftertouch,4,0,5,,,,,,,,0,,6,,
90124,control_change,4,0,4,,,,,,,,10,7,94,,
90124,aftertouch,2,0,3,,,,,,,,1,,6,,
90125,aftertouch,1,0,4,,,,,,,,10,,6,,
90131,aftertouch,7,0,3,,,,,,,,1,,0,,
90132,aftertouch,8,0,6,,,,,,,,0,,3,,
90133,aftertouch,1,0,6,,,,,,,,0,,0,,
90133,aftertouch,9,0,5,,,,,,,,0,,3,,
90133,aftertouch,2,0,3,,,,,,,,1,,3,,
90133,aftertouch,8,0,4,,,,,,,,10,,3,,
90139,aftertouch,6,0,3,,,,,,,,1,,0,,
90139,control_change,6,0,4,,,,,,,,10,7,95,,
90140,aftertouch,7,0,5,,,,,,,,0,,1,,
90141,aftertouch,8,0,6,,,,,,,,0,,1,,
90141,aftertouch,2,0,3,,,,,,,,1,,1,,
90141,aftertouch,2,0,4,,,,,,,,10,,1,,
90142,aftertouch,1,0,6,,,,,,,,0,,0,,
90148,aftertouch,7,0,3,,,,,,,,1,,0,,
90157,note_on,17,0,5,,,,,,,,0,,,64,0
90161,note_on,41,0,1,,,,,,,,1,,,64,0
90173,note_on,53,0,2,,,,,,,,1,,,59,0
90180,note_on,19,0,1,,,,,,,,1,,,63,93
90180,note_on,23,0,5,,,,,,,,0,,,63,93
90202,control_change,22,0,1,,,,,,,,1,7,108,,
90210,note_on,68,0,6,,,,,,,,0,,,47,0
90215,note_on,74,0,4,,,,,,,,10,,,35,0
90219,note_on,39,0,5,,,,,,,,0,,,63,0
90222,note_on,20,0,1,,,,,,,,1,,,63,0
90224,note_on,76,0,3,,,,,,,,1,,,54,0
90240,note_on,67,0,2,,,,,,,,1,,,59,125
90240,note_on,21,0,5,,,,,,,,0,,,64,55
90240,note_on,16,0,3,,,,,,,,1,,,55,127
90240,control_change,18,0,1,,,,,,,,1,7,107,,
90240,note_on,25,0,4,,,,,,,,10,,,28,127
90240,note_on,30,0,6,,,,,,,,0,,,40,102
90240,note_on,0,0,1,,,,,,,,1,,,64,93
90263,control_change,23,0,4,,,,,,,,10,7,93,,
90275,control_change,12,0,4,,,,,,,,10,7,91,,
90280,note_on,40,0,5,,,,,,,,0,,,64,0
90285,control_change,10,0,4,,,,,,,,10,7,90,,
90300,note_on,20,0,5,,,,,,,,0,,,71,66
90300,control_change,15,0,4,,,,,,,,10,7,88,,
90311,control_change,11,0,4,,,,,,,,10,7,87,,
90325,control_change,14,0,4,,,,,,,,10,7,85,,
90333,control_change,8,0,4,,,,,,,,10,7,84,,
90345,note_on,45,0,5,,,,,,,,0,,,71,0
90348,control_change,15,0,4,,,,,,,,10,7,82,,
90360,note_on,15,0,5,,,,,,,,0,,,73,99
90409,note_on,49,0,5,,,,,,,,0,,,73,0
90420,note_on,11,0,5,,,,,,,,0,,,75,74
90456,note_on,216,0,1,,,,,,,,1,,,64,0
90456,note_on,216,0,6,,,,,,,,0,,,40,0
90456,note_on,216,0,3,,,,,,,,1,,,55,0
90456,note_on,216,0,2,,,,,,,,1,,,59,0
90456,note_on,108,0,4,,,,,,,,10,,,28,0
90471,note_on,51,0,5,,,,,,,,0,,,75,0
90480,note_on,24,0,6,,,,,,,,0,,,43,96
90480,note_on,24,0,4,,,,,,,,10,,,31,96
90480,note_on,9,0,5,,,,,,,,0,,,76,86
90484,control_change,4,0,4,,,,,,,,10,7,81,,
90517,note_on,37,0,5,,,,,,,,0,,,76,0
90522,control_change,38,0,4,,,,,,,,10,7,79,,
90540,note_on,23,0,5,,,,,,,,0,,,67,69
90543,control_change,21,0,4,,,,,,,,10,7,78,,
90575,control_change,32,0,4,,,,,,,,10,7,76,,
90585,note_on,45,0,5,,,,,,,,0,,,67,0
90600,note_on,15,0,5,,,,,,,,0,,,66,66
90650,note_on,50,0,5,,,,,,,,0,,,66,0
90660,note_on,10,0,5,,,,,,,,0,,,64,61
90687,note_on,27,0,5,,,,,,,,0,,,64,0
90696,note_on,121,0,4,,,,,,,,10,,,31,0
90696,note_on,216,0,6,,,,,,,,0,,,43,0
90720,note_on,33,0,5,,,,,,,,0,,,66,77
90720,note_on,24,0,4,,,,,,,,10,,,35,96
90720,note_on,24,0,6,,,,,,,,0,,,47,117
90767,note_on,47,0,5,,,,,,,,0,,,66,0
90780,note_on,13,0,5,,,,,,,,0,,,76,74
90828,note_on,48,0,5,,,,,,,,0,,,76,0
90840,note_on,12,0,5,,,,,,,,0,,,74,72
90875,control_change,419,0,1,,,,,,,,1,7,109,,
90885,note_on,45,0,5,,,,,,,,0,,,74,0
90900,note_on,15,0,5,,,,,,,,0,,,73,64
90936,note_on,216,0,4,,,,,,,,10,,,35,0
90936,note_on,216,0,6,,,,,,,,0,,,47,0
90945,note_on,45,0,5,,,,,,,,0,,,73,0
90960,note_on,15,0,5,,,,,,,,0,,,74,77
91005,note_on,45,0,5,,,,,,,,0,,,74,0
91020,note_on,15,0,5,,,,,,,,0,,,78,93
91068,note_on,48,0,5,,,,,,,,0,,,78,0
91080,note_on,144,0,4,,,,,,,,10,,,35,61
91080,note_on,144,0,6,,,,,,,,0,,,47,79
91080,note_on,12,0,5,,,,,,,,0,,,80,64
91134,note_on,54,0,5,,,,,,,,0,,,80,0
91140,note_on,6,0,5,,,,,,,,0,,,81,74
91145,note_on,65,0,4,,,,,,,,10,,,35,0
91153,note_on,73,0,6,,,,,,,,0,,,47,0
91192,note_on,52,0,5,,,,,,,,0,,,81,0
91200,note_on,55,0,4,,,,,,,,10,,,28,64
91200,note_on,8,0,5,,,,,,,,0,,,80,69
91200,note_on,47,0,6,,,,,,,,0,,,40,102
91252,note_on,52,0,5,,,,,,,,0,,,80,0
91260,note_on,8,0,5,,,,,,,,0,,,74,66
91278,control_change,403,0,1,,,,,,,,1,7,108,,
91289,control_change,11,0,1,,,,,,,,1,7,107,,
91304,note_on,44,0,5,,,,,,,,0,,,74,0
91320,note_on,16,0,5,,,,,,,,0,,,72,79
91336,control_change,47,0,1,,,,,,,,1,7,105,,
91368,note_on,48,0,5,,,,,,,,0,,,72,0
91380,note_on,12,0,5,,,,,,,,0,,,71,72
91394,control_change,58,0,1,,,,,,,,1,7,104,,
91416,note_on,216,0,6,,,,,,,,0,,,40,0
91416,note_on,216,0,4,,,,,,,,10,,,28,0
91419,note_on,39,0,5,,,,,,,,0,,,71,0
91440,note_on,24,0,6,,,,,,,,0,,,45,86
91440,note_on,24,0,4,,,,,,,,10,,,33,74
91440,note_on,21,0,5,,,,,,,,0,,,72,69
91453,control_change,59,0,1,,,,,,,,1,7,102,,
91487,note_on,47,0,5,,,,,,,,0,,,72,0
91500,note_on,13,0,5,,,,,,,,0,,,76,79
91551,note_on,51,0,5,,,,,,,,0,,,76,0
91560,note_on,9,0,5,,,,,,,,0,,,81,72
91611,note_on,51,0,5,,,,,,,,0,,,81,0
91620,note_on,9,0,5,,,,,,,,0,,,79,66
91635,control_change,182,0,1,,,,,,,,1,7,101,,
91656,note_on,216,0,4,,,,,,,,10,,,33,0
91656,note_on,216,0,6,,,,,,,,0,,,45,0
91666,note_on,46,0,5,,,,,,,,0,,,79,0
91680,note_on,24,0,4,,,,,,,,10,,,38,69
91680,note_on,24,0,6,,,,,,,,0,,,50,102
91680,note_on,14,0,5,,,,,,,,0,,,78,84
91726,note_on,46,0,5,,,,,,,,0,,,78,0
91740,note_on,14,0,5,,,,,,,,0,,,72,102
91788,note_on,48,0,5,,,,,,,,0,,,72,0
91800,note_on,12,0,5,,,,,,,,0,,,71,84
91844,note_on,44,0,5,,,,,,,,0,,,71,0
91860,note_on,16,0,5,,,,,,,,0,,,69,74
91895,note_on,35,0,5,,,,,,,,0,,,69,0
91896,note_on,216,0,4,,,,,,,,10,,,38,0
91896,note_on,216,0,6,,,,,,,,0,,,50,0
91920,note_on,25,0,5,,,,,,,,0,,,71,72
91961,control_change,326,0,1,,,,,,,,1,7,99,,
91970,note_on,50,0,5,,,,,,,,0,,,71,0
91980,note_on,10,0,5,,,,,,,,0,,,74,89
92026,note_on,46,0,5,,,,,,,,0,,,74,0
92040,note_on,14,0,5,,,,,,,,0,,,79,79
92040,note_on,144,0,4,,,,,,,,10,,,40,69
92040,note_on,144,0,6,,,,,,,,0,,,52,99
92087,note_on,47,0,5,,,,,,,,0,,,79,0
92093,note_on,53,0,6,,,,,,,,0,,,52,0
92100,note_on,13,0,5,,,,,,,,0,,,78,72
92118,note_on,78,0,4,,,,,,,,10,,,40,0
92134,note_on,34,0,5,,,,,,,,0,,,78,0
92160,note_on,42,0,4,,,,,,,,10,,,33,66
92160,note_on,26,0,5,,,,,,,,0,,,79,77
92160,note_on,67,0,6,,,,,,,,0,,,45,105
92198,note_on,38,0,5,,,,,,,,0,,,79,0
92220,note_on,22,0,5,,,,,,,,0,,,76,79
92272,note_on,52,0,5,,,,,,,,0,,,76,0
92280,note_on,8,0,5,,,,,,,,0,,,73,74
92315,note_on,35,0,5,,,,,,,,0,,,73,0
92340,note_on,25,0,5,,,,,,,,0,,,69,58
92365,note_on,25,0,5,,,,,,,,0,,,69,0
92376,note_on,216,0,4,,,,,,,,10,,,33,0
92376,note_on,216,0,6,,,,,,,,0,,,45,0
92400,note_on,24,0,6,,,,,,,,0,,,50,89
92400,note_on,35,0,5,,,,,,,,0,,,69,66
92400,note_on,24,0,4,,,,,,,,10,,,38,74
92440,note_on,40,0,5,,,,,,,,0,,,69,0
92460,note_on,20,0,5,,,,,,,,0,,,73,77
92498,note_on,38,0,5,,,,,,,,0,,,73,0
92520,note_on,22,0,5,,,,,,,,0,,,74,79
92559,note_on,39,0,5,,,,,,,,0,,,74,0
92580,note_on,21,0,5,,,,,,,,0,,,78,84
92616,note_on,216,0,6,,,,,,,,0,,,50,0
92616,note_on,216,0,4,,,,,,,,10,,,38,0
92626,note_on,46,0,5,,,,,,,,0,,,78,0
92640,note_on,24,0,4,,,,,,,,10,,,44,84
92640,note_on,14,0,5,,,,,,,,0,,,76,84
92640,note_on,24,0,6,,,,,,,,0,,,56,127
92696,note_on,56,0,5,,,,,,,,0,,,76,0
92700,note_on,4,0,5,,,,,,,,0,,,74,74
92750,note_on,50,0,5,,,,,,,,0,,,74,0
92760,note_on,10,0,5,,,,,,,,0,,,71,55
92800,note_on,40,0,5,,,,,,,,0,,,71,0
92820,note_on,20,0,5,,,,,,,,0,,,69,69
92852,note_on,32,0,5,,,,,,,,0,,,69,0
92856,note_on,216,0,4,,,,,,,,10,,,44,0
92856,note_on,216,0,6,,,,,,,,0,,,56,0
92880,note_on,28,0,5,,,,,,,,0,,,68,61
92925,note_on,45,0,5,,,,,,,,0,,,68,0
92940,note_on,15,0,5,,,,,,,,0,,,71,79
92979,note_on,39,0,5,,,,,,,,0,,,71,0
93000,note_on,144,0,4,,,,,,,,10,,,47,66
93000,note_on,21,0,5,,,,,,,,0,,,74,89
93000,note_on,1039,0,1,,,,,,,,1,,,68,77
93000,note_on,144,0,6,,,,,,,,0,,,59,93
93036,note_on,36,0,6,,,,,,,,0,,,59,0
93038,note_on,38,0,1,,,,,,,,1,,,68,0
93047,note_on,47,0,4,,,,,,,,10,,,47,0
93049,note_on,49,0,5,,,,,,,,0,,,74,0
93060,note_on,11,0,5,,,,,,,,0,,,73,84
93060,note_on,22,0,1,,,,,,,,1,,,69,89
93060,note_on,24,0,6,,,,,,,,0,,,57,79
93060,note_on,13,0,4,,,,,,,,10,,,45,66
93094,note_on,34,0,6,,,,,,,,0,,,57,0
93094,note_on,34,0,1,,,,,,,,1,,,69,0
93101,note_on,41,0,4,,,,,,,,10,,,45,0
93106,note_on,46,0,5,,,,,,,,0,,,73,0
93120,note_on,26,0,1,,,,,,,,1,,,71,102
93120,note_on,19,0,4,,,,,,,,10,,,44,64
93120,note_on,26,0,6,,,,,,,,0,,,56,84
93120,note_on,14,0,5,,,,,,,,0,,,74,89
93164,note_on,44,0,5,,,,,,,,0,,,74,0
93180,note_on,16,0,5,,,,,,,,0,,,76,84
93190,note_on,70,0,4,,,,,,,,10,,,44,0
93202,note_on,82,0,1,,,,,,,,1,,,71,0
93204,note_on,84,0,6,,,,,,,,0,,,56,0
93227,note_on,47,0,5,,,,,,,,0,,,76,0
93240,note_on,50,0,4,,,,,,,,10,,,47,72
93240,note_on,38,0,1,,,,,,,,1,,,74,84
93240,note_on,13,0,5,,,,,,,,0,,,74,66
93240,note_on,36,0,6,,,,,,,,0,,,59,89
93276,note_on,36,0,6,,,,,,,,0,,,59,0
93278,note_on,38,0,1,,,,,,,,1,,,74,0
93282,note_on,42,0,5,,,,,,,,0,,,74,0
93285,note_on,45,0,4,,,,,,,,10,,,47,0
93300,note_on,24,0,6,,,,,,,,0,,,57,89
93300,note_on,18,0,5,,,,,,,,0,,,73,64
93300,note_on,22,0,1,,,,,,,,1,,,73,84
93300,note_on,15,0,4,,,,,,,,10,,,45,77
93331,note_on,31,0,6,,,,,,,,0,,,57,0
93336,note_on,36,0,4,,,,,,,,10,,,45,0
93337,note_on,37,0,5,,,,,,,,0,,,73,0
93339,note_on,39,0,1,,,,,,,,1,,,73,0
93360,note_on,23,0,5,,,,,,,,0,,,74,79
93360,note_on,21,0,1,,,,,,,,1,,,71,84
93360,note_on,29,0,6,,,,,,,,0,,,56,91
93360,note_on,24,0,4,,,,,,,,10,,,44,89
93408,note_on,48,0,5,,,,,,,,0,,,74,0
93420,note_on,12,0,5,,,,,,,,0,,,83,84
93427,note_on,67,0,4,,,,,,,,10,,,44,0
93432,note_on,72,0,6,,,,,,,,0,,,56,0
93453,note_on,93,0,1,,,,,,,,1,,,71,0
93466,note_on,46,0,5,,,,,,,,0,,,83,0
93480,note_on,27,0,1,,,,,,,,1,,,80,120
93480,note_on,48,0,6,,,,,,,,0,,,52,89
93480,note_on,53,0,4,,,,,,,,10,,,40,72
93480,note_on,14,0,5,,,,,,,,0,,,74,72
93526,note_on,46,0,5,,,,,,,,0,,,74,0
93540,note_on,14,0,5,,,,,,,,0,,,83,66
93554,note_on,74,0,4,,,,,,,,10,,,40,0
93554,note_on,74,0,6,,,,,,,,0,,,52,0
93568,note_on,88,0,1,,,,,,,,1,,,80,0
93574,note_on,34,0,5,,,,,,,,0,,,83,0
93600,note_on,26,0,5,,,,,,,,0,,,74,81
93600,note_on,46,0,4,,,,,,,,10,,,45,64
93600,note_on,46,0,6,,,,,,,,0,,,57,77
93600,note_on,32,0,1,,,,,,,,1,,,81,96
93645,note_on,45,0,5,,,,,,,,0,,,74,0
93660,note_on,15,0,5,,,,,,,,0,,,76,84
93676,note_on,76,0,1,,,,,,,,1,,,81,0
93681,note_on,81,0,6,,,,,,,,0,,,57,0
93686,note_on,86,0,4,,,,,,,,10,,,45,0
93709,note_on,49,0,5,,,,,,,,0,,,76,0
93720,note_on,11,0,5,,,,,,,,0,,,73,84
93720,note_on,34,0,4,,,,,,,,10,,,33,79
93720,note_on,44,0,1,,,,,,,,1,,,76,79
93720,note_on,39,0,6,,,,,,,,0,,,45,96
93766,note_on,46,0,5,,,,,,,,0,,,73,0
93780,note_on,14,0,5,,,,,,,,0,,,71,66
93801,note_on,81,0,4,,,,,,,,10,,,33,0
93804,note_on,84,0,1,,,,,,,,1,,,76,0
93810,note_on,90,0,6,,,,,,,,0,,,45,0
93819,note_on,39,0,5,,,,,,,,0,,,71,0
93840,note_on,30,0,6,,,,,,,,0,,,57,96
93840,note_on,21,0,5,,,,,,,,0,,,73,81
93840,note_on,39,0,4,,,,,,,,10,,,45,64
93840,note_on,36,0,1,,,,,,,,1,,,69,77
93889,note_on,49,0,5,,,,,,,,0,,,73,0
93900,note_on,11,0,5,,,,,,,,0,,,76,84
93918,note_on,78,0,4,,,,,,,,10,,,45,0
93918,note_on,78,0,6,,,,,,,,0,,,57,0
93922,note_on,82,0,1,,,,,,,,1,,,69,0
93929,note_on,29,0,5,,,,,,,,0,,,76,0
93960,note_on,42,0,4,,,,,,,,10,,,45,74
93960,note_on,42,0,6,,,,,,,,0,,,57,96
93960,note_on,31,0,5,,,,,,,,0,,,69,66
93960,note_on,38,0,1,,,,,,,,1,,,72,84
93998,note_on,38,0,6,,,,,,,,0,,,57,0
94003,note_on,43,0,1,,,,,,,,1,,,72,0
94007,note_on,47,0,5,,,,,,,,0,,,69,0
94007,note_on,47,0,4,,,,,,,,10,,,45,0
94020,note_on,13,0,4,,,,,,,,10,,,43,74
94020,note_on,13,0,5,,,,,,,,0,,,71,89
94020,note_on,17,0,1,,,,,,,,1,,,71,79
94020,note_on,22,0,6,,,,,,,,0,,,55,96
94053,note_on,33,0,6,,,,,,,,0,,,55,0
94056,note_on,36,0,5,,,,,,,,0,,,71,0
94070,note_on,50,0,4,,,,,,,,10,,,43,0
94071,note_on,51,0,1,,,,,,,,1,,,71,0
94080,note_on,9,0,1,,,,,,,,1,,,69,79
94080,note_on,10,0,4,,,,,,,,10,,,42,77
94080,note_on,24,0,5,,,,,,,,0,,,72,69
94080,note_on,27,0,6,,,,,,,,0,,,54,96
94133,note_on,53,0,5,,,,,,,,0,,,72,0
94140,note_on,7,0,5,,,,,,,,0,,,74,84
94159,note_on,79,0,6,,,,,,,,0,,,54,0
94159,note_on,79,0,4,,,,,,,,10,,,42,0
94163,note_on,83,0,1,,,,,,,,1,,,69,0
94194,note_on,54,0,5,,,,,,,,0,,,74,0
94200,note_on,41,0,4,,,,,,,,10,,,45,74
94200,note_on,41,0,6,,,,,,,,0,,,57,102
94200,note_on,6,0,5,,,,,,,,0,,,72,66
94200,note_on,37,0,1,,,,,,,,1,,,72,66
94232,note_on,32,0,6,,,,,,,,0,,,57,0
94242,note_on,42,0,1,,,,,,,,1,,,72,0
94244,note_on,44,0,4,,,,,,,,10,,,45,0
94248,note_on,48,0,5,,,,,,,,0,,,72,0
94260,note_on,16,0,4,,,,,,,,10,,,43,66
94260,note_on,12,0,5,,,,,,,,0,,,71,61
94260,note_on,28,0,6,,,,,,,,0,,,55,96
94260,note_on,18,0,1,,,,,,,,1,,,71,66
94295,note_on,35,0,6,,,,,,,,0,,,55,0
94296,note_on,36,0,5,,,,,,,,0,,,71,0
94305,note_on,45,0,4,,,,,,,,10,,,43,0
94308,note_on,48,0,1,,,,,,,,1,,,71,0
94320,note_on,24,0,5,,,,,,,,0,,,72,66
94320,note_on,15,0,4,,,,,,,,10,,,42,84
94320,note_on,25,0,6,,,,,,,,0,,,54,81
94320,note_on,12,0,1,,,,,,,,1,,,69,74
94370,note_on,50,0,5,,,,,,,,0,,,72,0
94380,note_on,10,0,5,,,,,,,,0,,,81,84
94391,note_on,71,0,6,,,,,,,,0,,,54,0
94394,note_on,74,0,4,,,,,,,,10,,,42,0
94411,note_on,91,0,1,,,,,,,,1,,,69,0
94417,note_on,37,0,5,,,,,,,,0,,,81,0
94440,note_on,46,0,4,,,,,,,,10,,,38,64
94440,note_on,23,0,5,,,,,,,,0,,,72,72
94440,note_on,29,0,1,,,,,,,,1,,,78,84
94440,note_on,49,0,6,,,,,,,,0,,,50,84
94497,note_on,57,0,5,,,,,,,,0,,,72,0
94500,note_on,3,0,5,,,,,,,,0,,,81,66
94512,note_on,72,0,6,,,,,,,,0,,,50,0
94528,note_on,88,0,4,,,,,,,,10,,,38,0
94533,note_on,33,0,5,,,,,,,,0,,,81,0
94533,note_on,93,0,1,,,,,,,,1,,,78,0
94560,note_on,27,0,5,,,,,,,,0,,,72,72
94560,note_on,32,0,4,,,,,,,,10,,,43,74
94560,note_on,48,0,6,,,,,,,,0,,,55,108
94560,note_on,27,0,1,,,,,,,,1,,,79,74
94610,note_on,50,0,5,,,,,,,,0,,,72,0
94620,note_on,10,0,5,,,,,,,,0,,,74,79
94635,note_on,75,0,4,,,,,,,,10,,,43,0
94654,note_on,94,0,6,,,,,,,,0,,,55,0
94654,note_on,94,0,1,,,,,,,,1,,,79,0
94668,note_on,48,0,5,,,,,,,,0,,,74,0
94680,note_on,26,0,1,,,,,,,,1,,,74,77
94680,note_on,26,0,6,,,,,,,,0,,,43,93
94680,note_on,12,0,5,,,,,,,,0,,,71,84
94680,note_on,45,0,4,,,,,,,,10,,,31,77
94729,note_on,49,0,5,,,,,,,,0,,,71,0
94740,note_on,11,0,5,,,,,,,,0,,,69,64
94765,note_on,85,0,1,,,,,,,,1,,,74,0
94768,note_on,88,0,4,,,,,,,,10,,,31,0
94769,note_on,89,0,6,,,,,,,,0,,,43,0
94778,note_on,38,0,5,,,,,,,,0,,,69,0
94800,note_on,35,0,1,,,,,,,,1,,,67,77
94800,note_on,31,0,6,,,,,,,,0,,,55,84
94800,note_on,32,0,4,,,,,,,,10,,,43,66
94800,note_on,22,0,5,,,,,,,,0,,,71,79
94846,note_on,46,0,5,,,,,,,,0,,,71,0
94860,note_on,60,0,6,,,,,,,,0,,,54,69
94860,note_on,14,0,5,,,,,,,,0,,,74,84
94867,note_on,7,0,6,,,,,,,,0,,,55,0
94874,note_on,74,0,4,,,,,,,,10,,,43,0
94894,note_on,94,0,1,,,,,,,,1,,,67,0
94895,note_on,28,0,6,,,,,,,,0,,,54,0
94909,note_on,49,0,5,,,,,,,,0,,,74,0
94920,note_on,46,0,4,,,,,,,,10,,,40,66
94920,note_on,26,0,1,,,,,,,,1,,,71,72
94920,note_on,11,0,5,,,,,,,,0,,,76,77
94920,note_on,25,0,6,,,,,,,,0,,,52,74
94969,note_on,49,0,6,,,,,,,,0,,,52,0
94977,note_on,57,0,5,,,,,,,,0,,,76,0
94980,note_on,11,0,6,,,,,,,,0,,,50,69
94980,note_on,3,0,5,,,,,,,,0,,,78,66
95005,note_on,85,0,4,,,,,,,,10,,,40,0
95012,note_on,32,0,6,,,,,,,,0,,,50,0
95012,note_on,92,0,1,,,,,,,,1,,,71,0
95017,note_on,37,0,5,,,,,,,,0,,,78,0
95040,note_on,28,0,6,,,,,,,,0,,,49,117
95040,note_on,28,0,1,,,,,,,,1,,,76,74
95040,note_on,35,0,4,,,,,,,,10,,,37,72
95040,note_on,23,0,5,,,,,,,,0,,,79,81
95087,note_on,47,0,5,,,,,,,,0,,,79,0
95100,note_on,13,0,5,,,,,,,,0,,,81,72
95122,note_on,82,0,4,,,,,,,,10,,,37,0
95125,note_on,85,0,6,,,,,,,,0,,,49,0
95130,note_on,90,0,1,,,,,,,,1,,,76,0
95142,note_on,42,0,5,,,,,,,,0,,,81,0
95160,note_on,35,0,6,,,,,,,,0,,,52,102
95160,note_on,38,0,4,,,,,,,,10,,,40,66
95160,note_on,18,0,5,,,,,,,,0,,,79,79
95160,note_on,30,0,1,,,,,,,,1,,,73,77
95198,note_on,38,0,1,,,,,,,,1,,,73,0
95207,note_on,47,0,5,,,,,,,,0,,,79,0
95220,note_on,22,0,1,,,,,,,,1,,,74,84
95220,note_on,13,0,5,,,,,,,,0,,,78,61
95231,note_on,71,0,6,,,,,,,,0,,,52,0
95247,note_on,87,0,4,,,,,,,,10,,,40,0
95253,note_on,33,0,5,,,,,,,,0,,,78,0
95263,note_on,43,0,1,,,,,,,,1,,,74,0
95280,note_on,27,0,5,,,,,,,,0,,,79,79
95280,note_on,49,0,6,,,,,,,,0,,,45,99
95280,note_on,17,0,1,,,,,,,,1,,,76,77
95280,note_on,33,0,4,,,,,,,,10,,,33,89
95324,note_on,44,0,5,,,,,,,,0,,,79,0
95340,note_on,16,0,5,,,,,,,,0,,,76,79
95358,note_on,78,0,6,,,,,,,,0,,,45,0
95366,note_on,86,0,1,,,,,,,,1,,,76,0
95379,note_on,99,0,4,,,,,,,,10,,,33,0
95390,note_on,50,0,5,,,,,,,,0,,,76,0
95400,note_on,34,0,1,,,,,,,,1,,,74,72
95400,note_on,10,0,5,,,,,,,,0,,,69,69
95400,note_on,42,0,6,,,,,,,,0,,,57,93
95400,note_on,21,0,4,,,,,,,,10,,,45,55
95442,note_on,42,0,1,,,,,,,,1,,,74,0
95448,note_on,48,0,5,,,,,,,,0,,,69,0
95460,note_on,18,0,1,,,,,,,,1,,,73,77
95460,note_on,12,0,5,,,,,,,,0,,,79,74
95491,note_on,91,0,4,,,,,,,,10,,,45,0
95496,note_on,96,0,6,,,,,,,,0,,,57,0
95502,note_on,42,0,1,,,,,,,,1,,,73,0
95512,note_on,52,0,5,,,,,,,,0,,,79,0
95520,note_on,18,0,1,,,,,,,,1,,,74,79
95520,note_on,24,0,6,,,,,,,,0,,,50,84
95520,note_on,8,0,5,,,,,,,,0,,,78,69
95520,note_on,29,0,4,,,,,,,,10,,,38,84
95580,note_on,60,0,5,,,,,,,,0,,,76,79
95593,note_on,13,0,5,,,,,,,,0,,,78,0
95603,note_on,83,0,1,,,,,,,,1,,,74,0
95604,note_on,84,0,4,,,,,,,,10,,,38,0
95606,note_on,86,0,6,,,,,,,,0,,,50,0
95628,note_on,35,0,5,,,,,,,,0,,,76,0
95640,note_on,12,0,5,,,,,,,,0,,,74,84
95640,note_on,36,0,4,,,,,,,,10,,,33,77
95640,note_on,34,0,6,,,,,,,,0,,,45,84
95640,note_on,37,0,1,,,,,,,,1,,,66,61
95683,note_on,43,0,1,,,,,,,,1,,,66,0
95688,note_on,48,0,5,,,,,,,,0,,,74,0
95700,note_on,12,0,5,,,,,,,,0,,,73,89
95700,note_on,17,0,1,,,,,,,,1,,,67,74
95717,note_on,77,0,6,,,,,,,,0,,,45,0
95724,control_change,24,0,1,,,,,,,,1,7,100,,
95742,note_on,102,0,4,,,,,,,,10,,,33,0
95742,note_on,42,0,5,,,,,,,,0,,,73,0
95744,note_on,20,0,1,,,,,,,,1,,,67,0
95753,control_change,9,0,1,,,,,,,,1,7,101,,
95760,note_on,7,0,1,,,,,,,,1,,,69,84
95760,note_on,18,0,5,,,,,,,,0,,,74,66
95760,note_on,43,0,6,,,,,,,,0,,,54,79
95760,note_on,18,0,4,,,,,,,,10,,,42,51
95771,control_change,11,0,1,,,,,,,,1,7,103,,
95800,control_change,29,0,1,,,,,,,,1,7,104,,
95813,note_on,53,0,5,,,,,,,,0,,,74,0
95820,note_on,7,0,5,,,,,,,,0,,,78,72
95829,control_change,29,0,1,,,,,,,,1,7,106,,
95853,note_on,93,0,4,,,,,,,,10,,,42,0
95856,note_on,96,0,6,,,,,,,,0,,,54,0
95864,note_on,35,0,1,,,,,,,,1,,,69,0
95880,note_on,27,0,4,,,,,,,,10,,,38,77
95880,note_on,60,0,5,,,,,,,,0,,,81,89
95880,note_on,24,0,6,,,,,,,,0,,,50,69
95880,note_on,16,0,1,,,,,,,,1,,,67,74
95888,note_on,8,0,5,,,,,,,,0,,,78,0
95890,control_change,10,0,1,,,,,,,,1,7,107,,
95930,note_on,40,0,1,,,,,,,,1,,,67,0
95935,note_on,47,0,5,,,,,,,,0,,,81,0
95940,note_on,10,0,1,,,,,,,,1,,,66,61
95940,note_on,5,0,5,,,,,,,,0,,,72,66
95968,note_on,88,0,4,,,,,,,,10,,,38,0
95969,note_on,89,0,6,,,,,,,,0,,,50,0
95980,note_on,40,0,1,,,,,,,,1,,,66,0
95980,note_on,40,0,5,,,,,,,,0,,,72,0
96000,note_on,31,0,6,,,,,,,,0,,,55,89
96000,note_on,32,0,4,,,,,,,,10,,,43,55
96000,note_on,20,0,1,,,,,,,,1,,,67,81
96000,note_on,20,0,5,,,,,,,,0,,,71,66
96060,note_on,60,0,5,,,,,,,,0,,,74,74
96072,note_on,12,0,5,,,,,,,,0,,,71,0
96082,note_on,82,0,1,,,,,,,,1,,,67,0
96083,note_on,83,0,4,,,,,,,,10,,,43,0
96090,note_on,90,0,6,,,,,,,,0,,,55,0
96110,note_on,38,0,5,,,,,,,,0,,,74,0
96120,note_on,37,0,4,,,,,,,,10,,,40,74
96120,note_on,10,0,5,,,,,,,,0,,,79,84
96120,note_on,30,0,6,,,,,,,,0,,,52,84
96120,note_on,38,0,1,,,,,,,,1,,,71,77
96160,note_on,40,0,6,,,,,,,,0,,,52,0
96167,note_on,47,0,5,,,,,,,,0,,,79,0
96172,note_on,52,0,4,,,,,,,,10,,,40,0
96180,note_on,13,0,5,,,,,,,,0,,,78,86
96180,note_on,20,0,6,,,,,,,,0,,,54,58
96180,note_on,8,0,4,,,,,,,,10,,,42,77
96202,note_on,82,0,1,,,,,,,,1,,,71,0
96220,note_on,40,0,6,,,,,,,,0,,,54,0
96222,note_on,42,0,5,,,,,,,,0,,,78,0
96226,note_on,46,0,4,,,,,,,,10,,,42,0
96240,note_on,20,0,6,,,,,,,,0,,,55,86
96240,note_on,18,0,5,,,,,,,,0,,,76,96
96240,note_on,14,0,4,,,,,,,,10,,,43,66
96240,note_on,38,0,1,,,,,,,,1,,,76,79
96293,note_on,53,0,5,,,,,,,,0,,,76,0
96300,note_on,7,0,5,,,,,,,,0,,,74,72
96327,note_on,87,0,4,,,,,,,,10,,,43,0
96332,note_on,32,0,5,,,,,,,,0,,,74,0
96341,note_on,101,0,1,,,,,,,,1,,,76,0
96341,note_on,101,0,6,,,,,,,,0,,,55,0
96360,note_on,19,0,6,,,,,,,,0,,,52,69
96360,note_on,33,0,4,,,,,,,,10,,,40,79
96360,note_on,28,0,5,,,,,,,,0,,,73,69
96360,note_on,19,0,1,,,,,,,,1,,,79,84
96408,note_on,48,0,5,,,,,,,,0,,,73,0
96420,note_on,12,0,5,,,,,,,,0,,,71,58
96437,note_on,77,0,1,,,,,,,,1,,,79,0
96448,note_on,88,0,4,,,,,,,,10,,,40,0
96452,note_on,92,0,6,,,,,,,,0,,,52,0
96457,note_on,37,0,5,,,,,,,,0,,,71,0
96480,note_on,23,0,5,,,,,,,,0,,,69,74
96480,note_on,32,0,4,,,,,,,,10,,,37,81
96480,note_on,28,0,6,,,,,,,,0,,,49,72
96480,note_on,43,0,1,,,,,,,,1,,,79,74
96527,note_on,47,0,5,,,,,,,,0,,,69,0
96540,note_on,13,0,5,,,,,,,,0,,,66,61
96586,note_on,46,0,5,,,,,,,,0,,,66,0
96595,note_on,115,0,6,,,,,,,,0,,,49,0
96600,note_on,14,0,5,,,,,,,,0,,,67,74
96642,note_on,42,0,5,,,,,,,,0,,,67,0
96660,note_on,18,0,5,,,,,,,,0,,,64,74
96684,note_on,24,0,5,,,,,,,,0,,,64,0
96696,note_on,216,0,4,,,,,,,,10,,,37,0
96706,note_on,226,0,1,,,,,,,,1,,,79,0
96720,note_on,36,0,5,,,,,,,,0,,,57,108
96772,control_change,66,0,1,,,,,,,,1,7,109,,
96774,note_on,54,0,5,,,,,,,,0,,,57,0
96840,note_on,6384,0,2,,,,,,,,1,,,73,89
96840,note_on,68,0,1,,,,,,,,1,,,79,96
96840,note_on,144,0,4,,,,,,,,10,,,33,84
96840,note_on,245,0,6,,,,,,,,0,,,45,77
96840,note_on,6384,0,3,,,,,,,,1,,,64,102
96840,note_on,66,0,5,,,,,,,,0,,,79,114
96905,note_on,65,0,4,,,,,,,,10,,,33,0
96909,note_on,69,0,6,,,,,,,,0,,,45,0
96912,note_on,72,0,2,,,,,,,,1,,,73,0
96914,note_on,74,0,3,,,,,,,,1,,,64,0
96921,note_on,81,0,1,,,,,,,,1,,,79,0
96942,note_on,102,0,5,,,,,,,,0,,,79,0
96960,note_on,55,0,4,,,,,,,,10,,,38,102
96960,note_on,51,0,6,,,,,,,,0,,,50,89
96960,note_on,39,0,1,,,,,,,,1,,,78,84
96960,note_on,48,0,2,,,,,,,,1,,,69,105
96960,note_on,46,0,3,,,,,,,,1,,,62,124
96960,note_on,18,0,5,,,,,,,,0,,,78,124
96980,control_change,20,0,4,,,,,,,,10,7,77,,
96997,note_on,37,0,6,,,,,,,,0,,,50,0
96997,note_on,37,0,1,,,,,,,,1,,,78,0
97007,control_change,27,0,4,,,,,,,,10,7,79,,
97008,note_on,48,0,5,,,,,,,,0,,,78,0
97020,note_on,23,0,1,,,,,,,,1,,,79,96
97020,note_on,12,0,5,,,,,,,,0,,,79,96
97032,control_change,25,0,4,,,,,,,,10,7,80,,
97042,note_on,10,0,4,,,,,,,,10,,,38,0
97062,note_on,42,0,1,,,,,,,,1,,,79,0
97074,note_on,54,0,5,,,,,,,,0,,,79,0
97080,note_on,38,0,4,,,,,,,,10,,,50,127
97080,note_on,83,0,6,,,,,,,,0,,,62,99
97080,note_on,18,0,1,,,,,,,,1,,,81,84
97080,note_on,6,0,5,,,,,,,,0,,,81,84
97085,control_change,5,0,4,,,,,,,,10,7,82,,
97093,control_change,8,0,4,,,,,,,,10,7,83,,
97103,control_change,23,0,1,,,,,,,,1,7,110,,
97125,note_on,22,0,1,,,,,,,,1,,,81,0
97134,note_on,54,0,5,,,,,,,,0,,,81,0
97140,note_on,6,0,5,,,,,,,,0,,,78,86
97140,note_on,15,0,1,,,,,,,,1,,,78,81
97176,note_on,216,0,3,,,,,,,,1,,,62,0
97176,note_on,36,0,1,,,,,,,,1,,,78,0
97176,note_on,216,0,2,,,,,,,,1,,,69,0
97185,note_on,45,0,5,,,,,,,,0,,,78,0
97200,note_on,24,0,3,,,,,,,,1,,,64,108
97200,note_on,15,0,5,,,,,,,,0,,,76,123
97200,note_on,24,0,2,,,,,,,,1,,,69,89
97200,note_on,24,0,1,,,,,,,,1,,,76,86
97215,control_change,122,0,4,,,,,,,,10,7,85,,
97233,control_change,18,0,4,,,,,,,,10,7,86,,
97241,note_on,41,0,1,,,,,,,,1,,,76,0
97243,note_on,163,0,6,,,,,,,,0,,,62,0
97248,note_on,48,0,5,,,,,,,,0,,,76,0
97259,control_change,26,0,4,,,,,,,,10,7,88,,
97260,note_on,19,0,1,,,,,,,,1,,,78,89
97260,note_on,12,0,5,,,,,,,,0,,,78,93
97268,control_change,9,0,4,,,,,,,,10,7,89,,
97287,note_on,19,0,4,,,,,,,,10,,,50,0
97298,note_on,38,0,5,,,,,,,,0,,,78,0
97301,note_on,41,0,1,,,,,,,,1,,,78,0
97320,note_on,77,0,6,,,,,,,,0,,,61,99
97320,note_on,22,0,5,,,,,,,,0,,,79,111
97320,note_on,33,0,4,,,,,,,,10,,,49,108
97320,note_on,19,0,1,,,,,,,,1,,,79,81
97358,note_on,38,0,1,,,,,,,,1,,,79,0
97366,note_on,46,0,5,,,,,,,,0,,,79,0
97370,note_on,50,0,6,,,,,,,,0,,,61,0
97380,note_on,22,0,1,,,,,,,,1,,,76,72
97380,note_on,14,0,5,,,,,,,,0,,,76,84
97411,note_on,91,0,4,,,,,,,,10,,,49,0
97416,note_on,216,0,2,,,,,,,,1,,,69,0
97416,note_on,216,0,3,,,,,,,,1,,,64,0
97420,note_on,40,0,5,,,,,,,,0,,,76,0
97424,note_on,44,0,1,,,,,,,,1,,,76,0
97440,note_on,24,0,3,,,,,,,,1,,,66,102
97440,note_on,16,0,1,,,,,,,,1,,,74,81
97440,note_on,70,0,6,,,,,,,,0,,,59,105
97440,note_on,29,0,4,,,,,,,,10,,,47,89
97440,note_on,24,0,2,,,,,,,,1,,,71,96
97440,note_on,20,0,5,,,,,,,,0,,,74,93
97479,note_on,39,0,5,,,,,,,,0,,,74,0
97479,note_on,39,0,1,,,,,,,,1,,,74,0
97495,note_on,55,0,6,,,,,,,,0,,,59,0
97500,note_on,21,0,1,,,,,,,,1,,,76,66
97500,note_on,21,0,5,,,,,,,,0,,,76,84
97514,note_on,74,0,4,,,,,,,,10,,,47,0
97538,note_on,38,0,5,,,,,,,,0,,,76,0
97542,note_on,42,0,1,,,,,,,,1,,,76,0
97560,note_on,18,0,1,,,,,,,,1,,,78,69
97560,note_on,65,0,6,,,,,,,,0,,,47,91
97560,note_on,22,0,5,,,,,,,,0,,,78,64
97560,note_on,46,0,4,,,,,,,,10,,,35,89
97597,note_on,37,0,1,,,,,,,,1,,,78,0
97598,note_on,38,0,5,,,,,,,,0,,,78,0
97620,note_on,22,0,5,,,,,,,,0,,,74,79
97620,note_on,23,0,1,,,,,,,,1,,,74,93
97654,note_on,34,0,5,,,,,,,,0,,,74,0
97656,note_on,216,0,3,,,,,,,,1,,,66,0
97656,note_on,216,0,2,,,,,,,,1,,,71,0
97668,note_on,48,0,1,,,,,,,,1,,,74,0
97680,note_on,26,0,5,,,,,,,,0,,,73,77
97680,note_on,24,0,2,,,,,,,,1,,,66,89
97680,note_on,24,0,3,,,,,,,,1,,,66,105
97680,note_on,12,0,1,,,,,,,,1,,,73,72
97721,note_on,41,0,1,,,,,,,,1,,,73,0
97725,note_on,45,0,5,,,,,,,,0,,,73,0
97740,note_on,19,0,1,,,,,,,,1,,,74,77
97740,note_on,15,0,5,,,,,,,,0,,,74,93
97767,note_on,207,0,4,,,,,,,,10,,,35,0
97768,note_on,208,0,6,,,,,,,,0,,,47,0
97776,note_on,36,0,5,,,,,,,,0,,,74,0
97780,note_on,40,0,1,,,,,,,,1,,,74,0
97799,control_change,32,0,4,,,,,,,,10,7,88,,
97800,note_on,1,0,4,,,,,,,,10,,,33,96
97800,note_on,32,0,6,,,,,,,,0,,,45,105
97800,note_on,24,0,5,,,,,,,,0,,,76,77
97800,note_on,20,0,1,,,,,,,,1,,,76,89
97838,control_change,38,0,4,,,,,,,,10,7,87,,
97839,note_on,39,0,5,,,,,,,,0,,,76,0
97841,note_on,41,0,1,,,,,,,,1,,,76,0
97860,note_on,21,0,5,,,,,,,,0,,,73,84
97860,note_on,19,0,1,,,,,,,,1,,,73,69
97875,note_on,75,0,6,,,,,,,,0,,,45,0
97880,note_on,42,0,4,,,,,,,,10,,,33,0
97894,note_on,34,0,5,,,,,,,,0,,,73,0
97896,note_on,216,0,3,,,,,,,,1,,,66,0
97896,note_on,216,0,2,,,,,,,,1,,,66,0
97898,note_on,38,0,1,,,,,,,,1,,,73,0
97920,note_on,45,0,6,,,,,,,,0,,,43,102
97920,note_on,24,0,2,,,,,,,,1,,,67,89
97920,note_on,24,0,3,,,,,,,,1,,,62,99
97920,note_on,22,0,1,,,,,,,,1,,,71,86
97920,note_on,40,0,4,,,,,,,,10,,,31,108
97920,note_on,26,0,5,,,,,,,,0,,,71,108
97960,note_on,40,0,5,,,,,,,,0,,,71,0
97964,note_on,44,0,1,,,,,,,,1,,,71,0
97965,note_on,45,0,2,,,,,,,,1,,,67,0
97980,note_on,20,0,5,,,,,,,,0,,,73,77
97980,note_on,16,0,1,,,,,,,,1,,,73,64
97985,note_on,65,0,3,,,,,,,,1,,,62,0
97999,note_on,79,0,6,,,,,,,,0,,,43,0
98002,note_on,82,0,4,,,,,,,,10,,,31,0
98025,note_on,45,0,1,,,,,,,,1,,,73,0
98026,note_on,46,0,5,,,,,,,,0,,,73,0
98040,note_on,38,0,4,,,,,,,,10,,,30,114
98040,note_on,41,0,6,,,,,,,,0,,,42,72
98040,note_on,55,0,3,,,,,,,,1,,,66,96
98040,note_on,15,0,1,,,,,,,,1,,,74,66
98040,note_on,14,0,5,,,,,,,,0,,,74,99
98040,note_on,75,0,2,,,,,,,,1,,,69,74
98070,note_on,30,0,6,,,,,,,,0,,,42,0
98074,note_on,34,0,5,,,,,,,,0,,,74,0
98076,note_on,36,0,4,,,,,,,,10,,,30,0
98089,note_on,49,0,1,,,,,,,,1,,,74,0
98100,note_on,26,0,5,,,,,,,,0,,,69,84
98100,note_on,30,0,6,,,,,,,,0,,,54,126
98100,note_on,11,0,1,,,,,,,,1,,,69,84
98100,note_on,24,0,4,,,,,,,,10,,,30,81
98136,note_on,36,0,5,,,,,,,,0,,,69,0
98138,note_on,38,0,6,,,,,,,,0,,,54,0
98141,note_on,41,0,4,,,,,,,,10,,,30,0
98143,note_on,43,0,1,,,,,,,,1,,,69,0
98160,note_on,17,0,1,,,,,,,,1,,,71,79
98160,note_on,24,0,5,,,,,,,,0,,,71,93
98160,note_on,22,0,6,,,,,,,,0,,,43,89
98160,note_on,19,0,4,,,,,,,,10,,,31,108
98196,note_on,36,0,4,,,,,,,,10,,,31,0
98201,note_on,161,0,2,,,,,,,,1,,,69,0
98202,note_on,42,0,1,,,,,,,,1,,,71,0
98206,note_on,46,0,5,,,,,,,,0,,,71,0
98209,note_on,49,0,6,,,,,,,,0,,,43,0
98220,note_on,14,0,5,,,,,,,,0,,,74,89
98220,note_on,24,0,4,,,,,,,,10,,,31,86
98220,note_on,18,0,1,,,,,,,,1,,,74,84
98220,note_on,11,0,6,,,,,,,,0,,,55,86
98239,note_on,19,0,5,,,,,,,,0,,,74,0
98260,note_on,40,0,4,,,,,,,,10,,,31,0
98261,note_on,221,0,3,,,,,,,,1,,,66,0
98263,note_on,43,0,1,,,,,,,,1,,,74,0
98264,note_on,44,0,6,,,,,,,,0,,,55,0
98280,note_on,41,0,5,,,,,,,,0,,,73,84
98280,note_on,20,0,4,,,,,,,,10,,,33,89
98280,note_on,17,0,1,,,,,,,,1,,,73,55
98280,note_on,16,0,6,,,,,,,,0,,,45,102
98280,note_on,79,0,2,,,,,,,,1,,,67,84
98280,note_on,19,0,3,,,,,,,,1,,,64,79
98314,note_on,34,0,4,,,,,,,,10,,,33,0
98321,note_on,41,0,1,,,,,,,,1,,,73,0
98335,note_on,55,0,6,,,,,,,,0,,,45,0
98340,note_on,0,0,5,,,,,,,,0,,,76,84
98340,note_on,60,0,5,,,,,,,,0,,,73,0
98340,note_on,19,0,1,,,,,,,,1,,,76,81
98340,note_on,5,0,6,,,,,,,,0,,,57,89
98340,note_on,26,0,4,,,,,,,,10,,,33,74
98354,note_on,74,0,2,,,,,,,,1,,,67,0
98359,note_on,19,0,5,,,,,,,,0,,,76,0
98360,note_on,80,0,3,,,,,,,,1,,,64,0
98387,note_on,47,0,1,,,,,,,,1,,,76,0
98388,note_on,48,0,6,,,,,,,,0,,,57,0
98388,note_on,48,0,4,,,,,,,,10,,,33,0
98400,note_on,12,0,4,,,,,,,,10,,,35,84
98400,note_on,46,0,2,,,,,,,,1,,,66,81
98400,note_on,13,0,1,,,,,,,,1,,,74,77
98400,note_on,41,0,5,,,,,,,,0,,,74,96
98400,note_on,12,0,6,,,,,,,,0,,,47,79
98400,note_on,40,0,3,,,,,,,,1,,,71,86
98401,control_change,1,0,4,,,,,,,,10,7,85,,
98440,note_on,39,0,4,,,,,,,,10,,,35,0
98444,note_on,44,0,1,,,,,,,,1,,,74,0
98445,note_on,45,0,2,,,,,,,,1,,,66,0
98448,note_on,48,0,6,,,,,,,,0,,,47,0
98456,note_on,56,0,5,,,,,,,,0,,,74,0
98460,note_on,20,0,4,,,,,,,,10,,,35,69
98460,note_on,12,0,6,,,,,,,,0,,,59,89
98460,note_on,16,0,1,,,,,,,,1,,,76,89
98460,note_on,4,0,5,,,,,,,,0,,,76,84
98472,note_on,72,0,3,,,,,,,,1,,,71,0
98487,note_on,27,0,6,,,,,,,,0,,,59,0
98489,note_on,29,0,5,,,,,,,,0,,,76,0
98503,note_on,43,0,4,,,,,,,,10,,,35,0
98508,note_on,48,0,1,,,,,,,,1,,,76,0
98520,note_on,31,0,5,,,,,,,,0,,,78,81
98520,note_on,33,0,6,,,,,,,,0,,,42,79
98520,note_on,17,0,4,,,,,,,,10,,,30,117
98520,note_on,75,0,2,,,,,,,,1,,,66,61
98520,note_on,12,0,1,,,,,,,,1,,,78,72
98520,note_on,48,0,3,,,,,,,,1,,,69,84
98557,note_on,37,0,5,,,,,,,,0,,,78,0
98559,note_on,39,0,4,,,,,,,,10,,,30,0
98564,note_on,44,0,1,,,,,,,,1,,,78,0
98569,note_on,49,0,6,,,,,,,,0,,,42,0
98580,note_on,16,0,1,,,,,,,,1,,,69,72
98580,note_on,21,0,4,,,,,,,,10,,,30,111
98580,note_on,23,0,5,,,,,,,,0,,,69,84
98580,note_on,11,0,6,,,,,,,,0,,,54,91
98608,note_on,28,0,5,,,,,,,,0,,,69,0
98618,note_on,38,0,6,,,,,,,,0,,,54,0
98624,note_on,44,0,1,,,,,,,,1,,,69,0
98627,note_on,47,0,4,,,,,,,,10,,,30,0
98640,note_on,13,0,4,,,,,,,,10,,,31,108
98640,note_on,22,0,6,,,,,,,,0,,,43,86
98640,note_on,32,0,5,,,,,,,,0,,,71,99
98640,note_on,16,0,1,,,,,,,,1,,,71,84
98678,note_on,38,0,4,,,,,,,,10,,,31,0
98685,note_on,45,0,6,,,,,,,,0,,,43,0
98687,note_on,47,0,1,,,,,,,,1,,,71,0
98689,note_on,49,0,5,,,,,,,,0,,,71,0
98700,note_on,15,0,6,,,,,,,,0,,,55,111
98700,note_on,13,0,1,,,,,,,,1,,,74,81
98700,note_on,22,0,4,,,,,,,,10,,,31,89
98700,note_on,11,0,5,,,,,,,,0,,,74,77
98712,note_on,192,0,2,,,,,,,,1,,,66,0
98726,note_on,26,0,5,,,,,,,,0,,,74,0
98743,note_on,43,0,4,,,,,,,,10,,,31,0
98744,note_on,44,0,6,,,,,,,,0,,,55,0
98744,note_on,44,0,1,,,,,,,,1,,,74,0
98760,note_on,34,0,5,,,,,,,,0,,,73,117
98760,note_on,16,0,6,,,,,,,,0,,,45,89
98760,note_on,17,0,4,,,,,,,,10,,,33,84
98760,note_on,16,0,1,,,,,,,,1,,,73,69
98760,note_on,48,0,2,,,,,,,,1,,,64,79
98760,note_on,240,0,3,,,,,,,,1,,,67,84
98761,note_on,1,0,3,,,,,,,,1,,,69,0
98795,note_on,35,0,4,,,,,,,,10,,,33,0
98802,note_on,42,0,1,,,,,,,,1,,,73,0
98808,note_on,48,0,6,,,,,,,,0,,,45,0
98811,note_on,51,0,5,,,,,,,,0,,,73,0
98820,note_on,18,0,1,,,,,,,,1,,,76,72
98820,note_on,12,0,6,,,,,,,,0,,,57,77
98820,note_on,9,0,5,,,,,,,,0,,,76,89
98820,note_on,25,0,4,,,,,,,,10,,,33,81
98842,note_on,82,0,2,,,,,,,,1,,,64,0
98851,control_change,31,0,1,,,,,,,,1,7,112,,
98857,note_on,37,0,5,,,,,,,,0,,,76,0
98866,note_on,46,0,6,,,,,,,,0,,,57,0
98867,note_on,47,0,4,,,,,,,,10,,,33,0
98868,note_on,17,0,1,,,,,,,,1,,,76,0
98868,note_on,107,0,3,,,,,,,,1,,,67,0
98880,note_on,12,0,1,,,,,,,,1,,,74,77
98880,note_on,13,0,4,,,,,,,,10,,,35,77
98880,note_on,38,0,2,,,,,,,,1,,,71,74
98880,note_on,14,0,6,,,,,,,,0,,,47,102
98880,note_on,12,0,3,,,,,,,,1,,,66,102
98880,note_on,23,0,5,,,,,,,,0,,,74,124
98882,control_change,2,0,1,,,,,,,,1,7,113,,
98913,note_on,33,0,4,,,,,,,,10,,,35,0
98926,note_on,44,0,1,,,,,,,,1,,,74,0
98926,note_on,46,0,5,,,,,,,,0,,,74,0
98930,note_on,50,0,6,,,,,,,,0,,,47,0
98940,note_on,14,0,1,,,,,,,,1,,,76,89
98940,note_on,10,0,6,,,,,,,,0,,,59,84
98940,note_on,27,0,4,,,,,,,,10,,,35,93
98940,note_on,14,0,5,,,,,,,,0,,,76,96
98947,note_on,67,0,2,,,,,,,,1,,,71,0
98971,note_on,91,0,3,,,,,,,,1,,,66,0
98974,note_on,34,0,6,,,,,,,,0,,,59,0
98983,note_on,43,0,4,,,,,,,,10,,,35,0
98985,note_on,45,0,1,,,,,,,,1,,,76,0
98990,note_on,50,0,5,,,,,,,,0,,,76,0
99000,note_on,29,0,3,,,,,,,,1,,,69,89
99000,note_on,26,0,6,,,,,,,,0,,,45,77
99000,note_on,10,0,5,,,,,,,,0,,,78,114
99000,note_on,15,0,1,,,,,,,,1,,,78,74
99000,note_on,17,0,4,,,,,,,,10,,,33,102
99000,note_on,53,0,2,,,,,,,,1,,,73,89
99033,note_on,33,0,2,,,,,,,,1,,,73,0
99035,note_on,35,0,5,,,,,,,,0,,,78,0
99037,note_on,37,0,3,,,,,,,,1,,,69,0
99038,note_on,38,0,4,,,,,,,,10,,,33,0
99041,note_on,41,0,1,,,,,,,,1,,,78,0
99051,note_on,51,0,6,,,,,,,,0,,,45,0
99060,note_on,27,0,2,,,,,,,,1,,,73,77
99060,note_on,23,0,3,,,,,,,,1,,,69,81
99060,note_on,19,0,1,,,,,,,,1,,,73,69
99060,note_on,9,0,6,,,,,,,,0,,,57,79
99060,note_on,25,0,5,,,,,,,,0,,,73,93
99060,note_on,22,0,4,,,,,,,,10,,,33,84
99094,note_on,34,0,6,,,,,,,,0,,,57,0
99097,note_on,37,0,5,,,,,,,,0,,,73,0
99101,note_on,41,0,2,,,,,,,,1,,,73,0
99102,note_on,42,0,1,,,,,,,,1,,,73,0
99104,note_on,44,0,4,,,,,,,,10,,,33,0
99108,note_on,48,0,3,,,,,,,,1,,,69,0
99120,note_on,12,0,3,,,,,,,,1,,,66,96
99120,note_on,23,0,5,,,,,,,,0,,,74,123
99120,note_on,19,0,2,,,,,,,,1,,,71,77
99120,note_on,26,0,6,,,,,,,,0,,,47,102
99120,note_on,16,0,4,,,,,,,,10,,,35,111
99120,note_on,18,0,1,,,,,,,,1,,,74,102
99129,aftertouch,9,0,3,,,,,,,,1,,0,,
99131,aftertouch,11,0,5,,,,,,,,0,,6,,
99131,aftertouch,11,0,6,,,,,,,,0,,6,,
99131,aftertouch,2,0,3,,,,,,,,1,,6,,
99133,aftertouch,2,0,3,,,,,,,,1,,0,,
99135,aftertouch,4,0,5,,,,,,,,0,,3,,
99135,aftertouch,4,0,6,,,,,,,,0,,3,,
99136,aftertouch,3,0,3,,,,,,,,1,,3,,
99142,aftertouch,6,0,3,,,,,,,,1,,0,,
99143,aftertouch,8,0,5,,,,,,,,0,,1,,
99143,aftertouch,8,0,6,,,,,,,,0,,1,,
99144,aftertouch,2,0,3,,,,,,,,1,,1,,
99151,control_change,31,0,1,,,,,,,,1,7,115,,
99151,aftertouch,7,0,3,,,,,,,,1,,0,,
99153,note_on,33,0,4,,,,,,,,10,,,35,0
99156,note_on,5,0,3,,,,,,,,1,,,66,0
99157,note_on,37,0,2,,,,,,,,1,,,71,0
99163,note_on,12,0,1,,,,,,,,1,,,74,0
99166,note_on,23,0,5,,,,,,,,0,,,74,0
99171,note_on,28,0,6,,,,,,,,0,,,47,0
99180,note_on,9,0,6,,,,,,,,0,,,59,77
99180,note_on,24,0,3,,,,,,,,1,,,66,74
99180,note_on,23,0,2,,,,,,,,1,,,71,72
99180,note_on,27,0,4,,,,,,,,10,,,35,77
99180,note_on,14,0,5,,,,,,,,0,,,78,120
99180,note_on,17,0,1,,,,,,,,1,,,78,89
99209,note_on,29,0,6,,,,,,,,0,,,59,0
99215,note_on,35,0,5,,,,,,,,0,,,78,0
99217,note_on,37,0,3,,,,,,,,1,,,66,0
99218,note_on,38,0,4,,,,,,,,10,,,35,0
99220,note_on,40,0,1,,,,,,,,1,,,78,0
99221,note_on,41,0,2,,,,,,,,1,,,71,0
99240,note_on,19,0,2,,,,,,,,1,,,76,89
99240,note_on,22,0,4,,,,,,,,10,,,37,124
99240,note_on,20,0,1,,,,,,,,1,,,76,77
99240,note_on,23,0,3,,,,,,,,1,,,69,77
99240,note_on,25,0,5,,,,,,,,0,,,76,117
99240,note_on,31,0,6,,,,,,,,0,,,49,99
99274,note_on,34,0,2,,,,,,,,1,,,76,0
99274,note_on,34,0,4,,,,,,,,10,,,37,0
99277,note_on,37,0,3,,,,,,,,1,,,69,0
99285,note_on,45,0,5,,,,,,,,0,,,76,0
99288,note_on,48,0,6,,,,,,,,0,,,49,0
99294,note_on,54,0,1,,,,,,,,1,,,76,0
99300,note_on,23,0,3,,,,,,,,1,,,69,89
99300,note_on,15,0,5,,,,,,,,0,,,79,102
99300,note_on,12,0,6,,,,,,,,0,,,61,117
99300,note_on,6,0,1,,,,,,,,1,,,79,66
99300,note_on,26,0,2,,,,,,,,1,,,76,79
99300,note_on,26,0,4,,,,,,,,10,,,37,102
99303,control_change,3,0,4,,,,,,,,10,7,86,,
99336,note_on,36,0,6,,,,,,,,0,,,61,0
99339,note_on,39,0,3,,,,,,,,1,,,69,0
99340,note_on,40,0,2,,,,,,,,1,,,76,0
99341,note_on,41,0,1,,,,,,,,1,,,79,0
99343,note_on,40,0,4,,,,,,,,10,,,37,0
99345,note_on,45,0,5,,,,,,,,0,,,79,0
99360,note_on,21,0,3,,,,,,,,1,,,69,111
99360,note_on,15,0,5,,,,,,,,0,,,78,120
99360,note_on,24,0,6,,,,,,,,0,,,50,79
99360,note_on,17,0,4,,,,,,,,10,,,38,108
99360,note_on,19,0,1,,,,,,,,1,,,78,84
99360,note_on,20,0,2,,,,,,,,1,,,74,96
99393,note_on,33,0,4,,,,,,,,10,,,38,0
99397,note_on,37,0,3,,,,,,,,1,,,69,0
99399,note_on,39,0,2,,,,,,,,1,,,74,0
99405,note_on,45,0,5,,,,,,,,0,,,78,0
99408,note_on,48,0,6,,,,,,,,0,,,50,0
99410,note_on,50,0,1,,,,,,,,1,,,78,0
99420,note_on,15,0,5,,,,,,,,0,,,79,89
99420,note_on,23,0,3,,,,,,,,1,,,69,96
99420,note_on,27,0,4,,,,,,,,10,,,38,79
99420,note_on,21,0,2,,,,,,,,1,,,74,96
99420,note_on,12,0,6,,,,,,,,0,,,62,89
99420,note_on,10,0,1,,,,,,,,1,,,79,77
99443,note_on,23,0,6,,,,,,,,0,,,62,0
99464,note_on,44,0,4,,,,,,,,10,,,38,0
99464,note_on,44,0,2,,,,,,,,1,,,74,0
99466,note_on,46,0,3,,,,,,,,1,,,69,0
99468,note_on,48,0,1,,,,,,,,1,,,79,0
99471,note_on,51,0,5,,,,,,,,0,,,79,0
99480,note_on,16,0,4,,,,,,,,10,,,33,108
99480,note_on,9,0,5,,,,,,,,0,,,81,111
99480,note_on,12,0,1,,,,,,,,1,,,81,74
99480,note_on,16,0,2,,,,,,,,1,,,73,77
99480,note_on,37,0,6,,,,,,,,0,,,45,114
99480,note_on,14,0,3,,,,,,,,1,,,67,102
99515,note_on,35,0,4,,,,,,,,10,,,33,0
99517,note_on,37,0,3,,,,,,,,1,,,67,0
99519,note_on,39,0,2,,,,,,,,1,,,73,0
99526,note_on,46,0,5,,,,,,,,0,,,81,0
99529,note_on,49,0,1,,,,,,,,1,,,81,0
99532,note_on,52,0,6,,,,,,,,0,,,45,0
99540,note_on,23,0,3,,,,,,,,1,,,67,102
99540,note_on,25,0,4,,,,,,,,10,,,33,96
99540,note_on,11,0,1,,,,,,,,1,,,73,72
99540,note_on,14,0,5,,,,,,,,0,,,73,108
99540,note_on,21,0,2,,,,,,,,1,,,73,72
99540,note_on,8,0,6,,,,,,,,0,,,57,111
99552,control_change,12,0,4,,,,,,,,10,7,88,,
99574,note_on,34,0,6,,,,,,,,0,,,57,0
99578,note_on,38,0,2,,,,,,,,1,,,73,0
99580,note_on,28,0,4,,,,,,,,10,,,33,0
99580,note_on,40,0,1,,,,,,,,1,,,73,0
99580,note_on,40,0,5,,,,,,,,0,,,73,0
99587,note_on,47,0,3,,,,,,,,1,,,67,0
99594,control_change,14,0,4,,,,,,,,10,7,89,,
99600,note_on,20,0,1,,,,,,,,1,,,74,77
99600,note_on,13,0,3,,,,,,,,1,,,66,81
99600,note_on,20,0,5,,,,,,,,0,,,74,125
99600,note_on,6,0,4,,,,,,,,10,,,35,96
99600,note_on,22,0,2,,,,,,,,1,,,71,74
99600,note_on,26,0,6,,,,,,,,0,,,47,77
99635,note_on,35,0,4,,,,,,,,10,,,35,0
99639,note_on,39,0,3,,,,,,,,1,,,66,0
99641,note_on,41,0,2,,,,,,,,1,,,71,0
99643,note_on,43,0,1,,,,,,,,1,,,74,0
99646,note_on,46,0,5,,,,,,,,0,,,74,0
99654,note_on,54,0,6,,,,,,,,0,,,47,0
99660,note_on,6,0,6,,,,,,,,0,,,59,89
99660,note_on,14,0,5,,,,,,,,0,,,78,114
99660,note_on,25,0,4,,,,,,,,10,,,35,84
99660,note_on,19,0,2,,,,,,,,1,,,71,72
99660,note_on,17,0,1,,,,,,,,1,,,78,77
99660,note_on,21,0,3,,,,,,,,1,,,66,99
99691,note_on,31,0,6,,,,,,,,0,,,59,0
99701,note_on,41,0,1,,,,,,,,1,,,78,0
99702,note_on,42,0,3,,,,,,,,1,,,66,0
99702,note_on,42,0,2,,,,,,,,1,,,71,0
99704,note_on,44,0,4,,,,,,,,10,,,35,0
99706,note_on,46,0,5,,,,,,,,0,,,78,0
99720,note_on,18,0,2,,,,,,,,1,,,76,102
99720,note_on,18,0,3,,,,,,,,1,,,69,96
99720,note_on,16,0,4,,,,,,,,10,,,37,114
99720,note_on,14,0,5,,,,,,,,0,,,76,108
99720,note_on,19,0,1,,,,,,,,1,,,76,79
99720,note_on,29,0,6,,,,,,,,0,,,49,84
99755,note_on,35,0,2,,,,,,,,1,,,76,0
99756,note_on,36,0,3,,,,,,,,1,,,69,0
99758,note_on,38,0,4,,,,,,,,10,,,37,0
99769,note_on,49,0,5,,,,,,,,0,,,76,0
99771,note_on,51,0,6,,,,,,,,0,,,49,0
99773,note_on,53,0,1,,,,,,,,1,,,76,0
99780,note_on,22,0,4,,,,,,,,10,,,37,74
99780,note_on,11,0,5,,,,,,,,0,,,79,89
99780,note_on,9,0,6,,,,,,,,0,,,61,108
99780,note_on,25,0,2,,,,,,,,1,,,76,79
99780,note_on,7,0,1,,,,,,,,1,,,79,84
99780,note_on,24,0,3,,,,,,,,1,,,69,74
99817,note_on,37,0,3,,,,,,,,1,,,69,0
99817,note_on,37,0,2,,,,,,,,1,,,76,0
99818,note_on,38,0,6,,,,,,,,0,,,61,0
99819,note_on,39,0,4,,,,,,,,10,,,37,0
99821,note_on,41,0,1,,,,,,,,1,,,79,0
99832,note_on,52,0,5,,,,,,,,0,,,79,0
99840,note_on,23,0,2,,,,,,,,1,,,74,77
99840,note_on,19,0,1,,,,,,,,1,,,78,69
99840,note_on,8,0,5,,,,,,,,0,,,78,111
99840,note_on,23,0,3,,,,,,,,1,,,69,84
99840,note_on,21,0,4,,,,,,,,10,,,38,96
99840,note_on,22,0,6,,,,,,,,0,,,50,96
99874,note_on,34,0,4,,,,,,,,10,,,38,0
99888,note_on,48,0,5,,,,,,,,0,,,78,0
99889,note_on,49,0,1,,,,,,,,1,,,78,0
99892,note_on,52,0,6,,,,,,,,0,,,50,0
99900,note_on,26,0,4,,,,,,,,10,,,38,86
99900,note_on,12,0,5,,,,,,,,0,,,79,89
99900,note_on,11,0,1,,,,,,,,1,,,79,66
99900,note_on,8,0,6,,,,,,,,0,,,62,89
99948,note_on,48,0,4,,,,,,,,10,,,38,0
99950,note_on,50,0,1,,,,,,,,1,,,79,0
99954,note_on,54,0,5,,,,,,,,0,,,79,0
99954,note_on,54,0,6,,,,,,,,0,,,62,0
99960,note_on,10,0,1,,,,,,,,1,,,81,74
99960,note_on,6,0,5,,,,,,,,0,,,81,93
99960,note_on,12,0,4,,,,,,,,10,,,42,126
99960,note_on,6,0,6,,,,,,,,0,,,54,5
99991,note_on,31,0,4,,,,,,,,10,,,42,0
99998,note_on,38,0,6,,,,,,,,0,,,54,0
100002,note_on,42,0,5,,,,,,,,0,,,81,0
100009,note_on,169,0,3,,,,,,,,1,,,69,0
100010,note_on,50,0,1,,,,,,,,1,,,81,0
100020,note_on,29,0,4,,,,,,,,10,,,42,84
100020,note_on,22,0,6,,,,,,,,0,,,62,79
100020,note_on,10,0,1,,,,,,,,1,,,78,89
100020,note_on,18,0,5,,,,,,,,0,,,78,81
100055,note_on,35,0,4,,,,,,,,10,,,42,0
100059,note_on,39,0,5,,,,,,,,0,,,78,0
100062,note_on,42,0,1,,,,,,,,1,,,78,0
100066,note_on,46,0,6,,,,,,,,0,,,62,0
100080,note_on,14,0,6,,,,,,,,0,,,59,86
100080,note_on,21,0,5,,,,,,,,0,,,79,105
100080,note_on,18,0,1,,,,,,,,1,,,79,79
100080,note_on,25,0,4,,,,,,,,10,,,47,127
100081,note_on,241,0,2,,,,,,,,1,,,74,0
100111,note_on,31,0,4,,,,,,,,10,,,47,0
100122,note_on,42,0,1,,,,,,,,1,,,79,0
100134,note_on,54,0,5,,,,,,,,0,,,79,0
100140,note_on,59,0,2,,,,,,,,1,,,73,86
100140,note_on,131,0,3,,,,,,,,1,,,67,77
100140,note_on,18,0,1,,,,,,,,1,,,76,69
100140,note_on,6,0,5,,,,,,,,0,,,76,96
100140,note_on,29,0,4,,,,,,,,10,,,47,108
100164,note_on,84,0,6,,,,,,,,0,,,59,0
100181,note_on,41,0,1,,,,,,,,1,,,76,0
100182,note_on,42,0,3,,,,,,,,1,,,67,0
100182,note_on,42,0,4,,,,,,,,10,,,47,0
100184,note_on,44,0,5,,,,,,,,0,,,76,0
100185,note_on,45,0,2,,,,,,,,1,,,73,0
100200,note_on,36,0,6,,,,,,,,0,,,55,120
100200,note_on,15,0,2,,,,,,,,1,,,74,89
100200,note_on,19,0,1,,,,,,,,1,,,78,89
100200,note_on,16,0,5,,,,,,,,0,,,78,102
100200,note_on,18,0,3,,,,,,,,1,,,69,79
100200,note_on,18,0,4,,,,,,,,10,,,43,102
100234,note_on,34,0,4,,,,,,,,10,,,43,0
100242,note_on,42,0,3,,,,,,,,1,,,69,0
100243,note_on,43,0,1,,,,,,,,1,,,78,0
100245,note_on,45,0,2,,,,,,,,1,,,74,0
100250,note_on,50,0,5,,,,,,,,0,,,78,0
100260,note_on,26,0,4,,,,,,,,10,,,43,84
100260,note_on,17,0,1,,,,,,,,1,,,74,72
100260,note_on,10,0,5,,,,,,,,0,,,74,84
100260,note_on,15,0,2,,,,,,,,1,,,71,74
100260,note_on,18,0,3,,,,,,,,1,,,66,74
100292,note_on,92,0,6,,,,,,,,0,,,55,0
100299,note_on,39,0,4,,,,,,,,10,,,43,0
100303,note_on,43,0,1,,,,,,,,1,,,74,0
100304,note_on,44,0,2,,,,,,,,1,,,71,0
100308,note_on,48,0,5,,,,,,,,0,,,74,0
100308,note_on,48,0,3,,,,,,,,1,,,66,0
100320,note_on,12,0,3,,,,,,,,1,,,64,35
100320,note_on,17,0,1,,,,,,,,1,,,73,35
100320,note_on,16,0,2,,,,,,,,1,,,69,35
100320,note_on,28,0,6,,,,,,,,0,,,57,99
100320,note_on,12,0,5,,,,,,,,0,,,73,74
100320,note_on,21,0,4,,,,,,,,10,,,45,51
100372,note_on,52,0,5,,,,,,,,0,,,73,0
100380,note_on,8,0,5,,,,,,,,0,,,74,99
100399,note_on,79,0,6,,,,,,,,0,,,57,0
100433,note_on,53,0,5,,,,,,,,0,,,74,0
100440,note_on,7,0,5,,,,,,,,0,,,76,93
100440,note_on,41,0,6,,,,,,,,0,,,61,111
100489,note_on,49,0,5,,,,,,,,0,,,76,0
100500,note_on,11,0,5,,,,,,,,0,,,73,96
100521,note_on,81,0,6,,,,,,,,0,,,61,0
100533,control_change,213,0,1,,,,,,,,1,7,114,,
100542,note_on,42,0,5,,,,,,,,0,,,73,0
100560,note_on,18,0,5,,,,,,,,0,,,74,96
100560,note_on,39,0,6,,,,,,,,0,,,64,108
100604,control_change,71,0,1,,,,,,,,1,7,113,,
100605,note_on,45,0,5,,,,,,,,0,,,74,0
100620,note_on,15,0,5,,,,,,,,0,,,71,66
100641,note_on,81,0,6,,,,,,,,0,,,64,0
100661,control_change,341,0,4,,,,,,,,10,7,88,,
100662,note_on,42,0,5,,,,,,,,0,,,71,0
100680,note_on,18,0,5,,,,,,,,0,,,73,86
100680,note_on,39,0,6,,,,,,,,0,,,67,117
100731,note_on,51,0,5,,,,,,,,0,,,73,0
100740,note_on,9,0,5,,,,,,,,0,,,69,72
100753,note_on,73,0,6,,,,,,,,0,,,67,0
100763,control_change,102,0,4,,,,,,,,10,7,87,,
100788,note_on,48,0,5,,,,,,,,0,,,69,0
100800,note_on,47,0,6,,,,,,,,0,,,64,84
100800,control_change,196,0,1,,,,,,,,1,7,111,,
100800,note_on,12,0,5,,,,,,,,0,,,67,99
100844,control_change,44,0,1,,,,,,,,1,7,110,,
100845,note_on,45,0,5,,,,,,,,0,,,67,0
100860,note_on,15,0,5,,,,,,,,0,,,69,74
100894,control_change,50,0,1,,,,,,,,1,7,108,,
100897,note_on,97,0,6,,,,,,,,0,,,64,0
100912,note_on,52,0,5,,,,,,,,0,,,69,0
100920,note_on,23,0,6,,,,,,,,0,,,61,77
100920,note_on,8,0,5,,,,,,,,0,,,71,66
100939,control_change,45,0,1,,,,,,,,1,7,107,,
100956,note_on,36,0,5,,,,,,,,0,,,71,0
100970,note_on,50,0,6,,,,,,,,0,,,61,0
100980,note_on,24,0,5,,,,,,,,0,,,66,72
100996,control_change,233,0,4,,,,,,,,10,7,85,,
101016,note_on,36,0,5,,,,,,,,0,,,66,0
101032,control_change,93,0,1,,,,,,,,1,7,105,,
101040,note_on,24,0,5,,,,,,,,0,,,67,74
101040,note_on,70,0,6,,,,,,,,0,,,57,77
101074,note_on,34,0,6,,,,,,,,0,,,57,0
101081,control_change,49,0,1,,,,,,,,1,7,104,,
101082,note_on,42,0,5,,,,,,,,0,,,67,0
101085,control_change,89,0,4,,,,,,,,10,7,84,,
101100,note_on,26,0,6,,,,,,,,0,,,54,69
101100,note_on,18,0,5,,,,,,,,0,,,62,66
101131,note_on,31,0,6,,,,,,,,0,,,54,0
101135,control_change,50,0,4,,,,,,,,10,7,82,,
101142,note_on,42,0,5,,,,,,,,0,,,62,0
101160,note_on,29,0,6,,,,,,,,0,,,55,93
101160,note_on,18,0,5,,,,,,,,0,,,64,84
101191,note_on,31,0,6,,,,,,,,0,,,55,0
101198,control_change,63,0,4,,,,,,,,10,7,81,,
101200,note_on,40,0,5,,,,,,,,0,,,64,0
101220,note_on,29,0,6,,,,,,,,0,,,52,84
101220,note_on,20,0,5,,,,,,,,0,,,61,77
101245,note_on,25,0,6,,,,,,,,0,,,52,0
101256,note_on,36,0,5,,,,,,,,0,,,61,0
101257,control_change,59,0,4,,,,,,,,10,7,79,,
101280,note_on,24,0,5,,,,,,,,0,,,57,84
101280,note_on,35,0,6,,,,,,,,0,,,49,72
101314,control_change,57,0,4,,,,,,,,10,7,78,,
101326,note_on,46,0,6,,,,,,,,0,,,49,0
101340,note_on,14,0,6,,,,,,,,0,,,50,61
101353,note_on,39,0,4,,,,,,,,10,,,45,0
101356,note_on,16,0,6,,,,,,,,0,,,50,0
101370,note_on,14,0,6,,,,,,,,0,,,52,66
101372,note_on,92,0,5,,,,,,,,0,,,57,0
101385,note_on,15,0,6,,,,,,,,0,,,52,0
101400,note_on,15,0,6,,,,,,,,0,,,45,84
101400,note_on,47,0,4,,,,,,,,10,,,33,89
101451,note_on,51,0,6,,,,,,,,0,,,45,0
101453,control_change,53,0,4,,,,,,,,10,7,76,,
101460,note_on,9,0,6,,,,,,,,0,,,49,74
101472,note_on,1152,0,3,,,,,,,,1,,,64,0
101472,note_on,391,0,1,,,,,,,,1,,,73,0
101472,note_on,1152,0,2,,,,,,,,1,,,69,0
101482,note_on,29,0,4,,,,,,,,10,,,33,0
101506,note_on,46,0,6,,,,,,,,0,,,49,0
101520,note_on,14,0,6,,,,,,,,0,,,47,79
101520,note_on,38,0,4,,,,,,,,10,,,32,111
101538,note_on,18,0,6,,,,,,,,0,,,47,0
101550,note_on,12,0,6,,,,,,,,0,,,45,77
101568,note_on,18,0,6,,,,,,,,0,,,45,0
101580,note_on,12,0,6,,,,,,,,0,,,44,89
101580,note_on,208,0,5,,,,,,,,0,,,73,96
101601,note_on,81,0,4,,,,,,,,10,,,32,0
101617,note_on,37,0,6,,,,,,,,0,,,44,0
101624,note_on,44,0,5,,,,,,,,0,,,73,0
101634,control_change,33,0,4,,,,,,,,10,7,77,,
101640,note_on,23,0,6,,,,,,,,0,,,45,84
101640,note_on,16,0,5,,,,,,,,0,,,72,79
101640,note_on,6,0,4,,,,,,,,10,,,30,72
101662,note_on,22,0,6,,,,,,,,0,,,45,0
101670,note_on,8,0,6,,,,,,,,0,,,44,64
101687,note_on,47,0,5,,,,,,,,0,,,72,0
101689,note_on,19,0,6,,,,,,,,0,,,44,0
101698,control_change,58,0,4,,,,,,,,10,7,79,,
101700,note_on,13,0,5,,,,,,,,0,,,73,77
101700,note_on,11,0,6,,,,,,,,0,,,42,89
101726,control_change,28,0,4,,,,,,,,10,7,80,,
101731,note_on,5,0,4,,,,,,,,10,,,30,0
101736,note_on,36,0,6,,,,,,,,0,,,42,0
101745,note_on,45,0,5,,,,,,,,0,,,73,0
101751,control_change,20,0,4,,,,,,,,10,7,82,,
101760,control_change,0,0,4,,,,,,,,10,7,83,,
101760,note_on,24,0,6,,,,,,,,0,,,41,102
101760,note_on,288,0,1,,,,,,,,1,,,68,48
101760,note_on,15,0,5,,,,,,,,0,,,80,96
101760,note_on,9,0,4,,,,,,,,10,,,29,72
101820,note_on,0,0,5,,,,,,,,0,,,73,64
101820,note_on,60,0,5,,,,,,,,0,,,80,0
101858,note_on,38,0,5,,,,,,,,0,,,73,0
101873,note_on,113,0,6,,,,,,,,0,,,41,0
101880,note_on,7,0,6,,,,,,,,0,,,53,72
101880,note_on,22,0,5,,,,,,,,0,,,72,74
101918,note_on,38,0,5,,,,,,,,0,,,72,0
101924,note_on,44,0,6,,,,,,,,0,,,53,0
101940,note_on,22,0,5,,,,,,,,0,,,73,64
101975,note_on,35,0,5,,,,,,,,0,,,73,0
101976,note_on,216,0,4,,,,,,,,10,,,29,0
102000,note_on,25,0,5,,,,,,,,0,,,65,61
102000,note_on,528,0,2,,,,,,,,1,,,68,48
102000,note_on,76,0,6,,,,,,,,0,,,53,77
102000,note_on,240,0,1,,,,,,,,1,,,71,48
102050,note_on,50,0,5,,,,,,,,0,,,65,0
102060,note_on,10,0,5,,,,,,,,0,,,73,77
102070,control_change,94,0,4,,,,,,,,10,7,82,,
102107,control_change,37,0,4,,,,,,,,10,7,81,,
102107,note_on,47,0,5,,,,,,,,0,,,73,0
102119,note_on,119,0,6,,,,,,,,0,,,53,0
102120,note_on,1,0,6,,,,,,,,0,,,41,74
102120,note_on,13,0,5,,,,,,,,0,,,71,64
102149,note_on,29,0,6,,,,,,,,0,,,41,0
102165,note_on,45,0,5,,,,,,,,0,,,71,0
102180,note_on,15,0,5,,,,,,,,0,,,73,74
102192,note_on,192,0,1,,,,,,,,1,,,68,0
102216,note_on,216,0,2,,,,,,,,1,,,68,0
102224,note_on,44,0,5,,,,,,,,0,,,73,0
102240,note_on,48,0,1,,,,,,,,1,,,74,39
102240,note_on,24,0,2,,,,,,,,1,,,71,48
102240,note_on,16,0,5,,,,,,,,0,,,74,79
102240,note_on,768,0,3,,,,,,,,1,,,68,66
102240,note_on,91,0,6,,,,,,,,0,,,41,77
102280,note_on,40,0,5,,,,,,,,0,,,74,0
102300,note_on,20,0,5,,,,,,,,0,,,71,64
102348,note_on,48,0,5,,,,,,,,0,,,71,0
102360,note_on,12,0,5,,,,,,,,0,,,73,72
102360,note_on,120,0,6,,,,,,,,0,,,53,64
102362,note_on,2,0,6,,,,,,,,0,,,41,0
102392,note_on,30,0,6,,,,,,,,0,,,53,0
102400,note_on,40,0,5,,,,,,,,0,,,73,0
102420,note_on,20,0,5,,,,,,,,0,,,69,77
102432,note_on,192,0,1,,,,,,,,1,,,71,0
102456,note_on,216,0,2,,,,,,,,1,,,71,0
102456,note_on,216,0,3,,,,,,,,1,,,68,0
102460,note_on,40,0,5,,,,,,,,0,,,69,0
102480,note_on,20,0,5,,,,,,,,0,,,71,79
102480,note_on,24,0,2,,,,,,,,1,,,74,48
102480,note_on,88,0,6,,,,,,,,0,,,53,84
102480,note_on,24,0,3,,,,,,,,1,,,65,61
102536,note_on,56,0,5,,,,,,,,0,,,71,0
102540,note_on,4,0,5,,,,,,,,0,,,80,77
102588,note_on,48,0,5,,,,,,,,0,,,80,0
102596,note_on,116,0,6,,,,,,,,0,,,53,0
102600,note_on,12,0,5,,,,,,,,0,,,78,81
102600,note_on,4,0,6,,,,,,,,0,,,41,79
102648,note_on,48,0,6,,,,,,,,0,,,41,0
102649,note_on,49,0,5,,,,,,,,0,,,78,0
102660,note_on,11,0,5,,,,,,,,0,,,80,61
102672,note_on,240,0,1,,,,,,,,1,,,74,0
102687,note_on,27,0,5,,,,,,,,0,,,80,0
102696,note_on,216,0,3,,,,,,,,1,,,65,0
102696,note_on,216,0,2,,,,,,,,1,,,74,0
102720,note_on,24,0,3,,,,,,,,1,,,61,55
102720,note_on,33,0,5,,,,,,,,0,,,69,77
102720,note_on,613,0,4,,,,,,,,10,,,30,61
102720,note_on,48,0,1,,,,,,,,1,,,66,35
102720,note_on,72,0,6,,,,,,,,0,,,42,111
102768,note_on,48,0,5,,,,,,,,0,,,69,0
102780,note_on,12,0,5,,,,,,,,0,,,71,66
102825,note_on,45,0,5,,,,,,,,0,,,71,0
102840,note_on,144,0,2,,,,,,,,1,,,66,30
102840,note_on,120,0,6,,,,,,,,0,,,54,77
102840,note_on,15,0,5,,,,,,,,0,,,73,81
102850,note_on,10,0,6,,,,,,,,0,,,42,0
102868,note_on,18,0,6,,,,,,,,0,,,54,0
102890,note_on,50,0,5,,,,,,,,0,,,73,0
102900,note_on,10,0,5,,,,,,,,0,,,78,96
102936,note_on,216,0,4,,,,,,,,10,,,30,0
102936,note_on,216,0,1,,,,,,,,1,,,66,0
102936,note_on,216,0,3,,,,,,,,1,,,61,0
102939,note_on,39,0,5,,,,,,,,0,,,78,0
102960,note_on,24,0,1,,,,,,,,1,,,69,30
102960,note_on,92,0,6,,,,,,,,0,,,54,48
102960,note_on,21,0,5,,,,,,,,0,,,73,64
103004,note_on,44,0,5,,,,,,,,0,,,73,0
103020,note_on,16,0,5,,,,,,,,0,,,71,84
103056,note_on,216,0,2,,,,,,,,1,,,66,0
103069,note_on,49,0,5,,,,,,,,0,,,71,0
103080,note_on,144,0,3,,,,,,,,1,,,66,58
103080,note_on,11,0,5,,,,,,,,0,,,69,72
103080,note_on,120,0,6,,,,,,,,0,,,42,74
103080,note_on,24,0,2,,,,,,,,1,,,69,35
103084,note_on,4,0,6,,,,,,,,0,,,54,0
103103,note_on,19,0,6,,,,,,,,0,,,42,0
103129,note_on,49,0,5,,,,,,,,0,,,69,0
103140,note_on,11,0,5,,,,,,,,0,,,68,69
103176,note_on,216,0,1,,,,,,,,1,,,69,0
103176,note_on,36,0,5,,,,,,,,0,,,68,0
103200,note_on,24,0,5,,,,,,,,0,,,66,77
103200,note_on,97,0,6,,,,,,,,0,,,42,89
103200,note_on,24,0,1,,,,,,,,1,,,73,22
103258,note_on,58,0,5,,,,,,,,0,,,66,0
103260,note_on,2,0,5,,,,,,,,0,,,68,84
103296,note_on,216,0,3,,,,,,,,1,,,66,0
103296,note_on,216,0,2,,,,,,,,1,,,69,0
103300,note_on,40,0,5,,,,,,,,0,,,68,0
103320,note_on,120,0,6,,,,,,,,0,,,54,66
103320,note_on,24,0,3,,,,,,,,1,,,69,55
103320,note_on,24,0,2,,,,,,,,1,,,73,26
103320,note_on,20,0,5,,,,,,,,0,,,69,66
103332,note_on,12,0,6,,,,,,,,0,,,42,0
103360,note_on,28,0,6,,,,,,,,0,,,54,0
103368,note_on,48,0,5,,,,,,,,0,,,69,0
103380,note_on,12,0,5,,,,,,,,0,,,73,61
103416,note_on,216,0,1,,,,,,,,1,,,73,0
103427,note_on,47,0,5,,,,,,,,0,,,73,0
103440,note_on,13,0,5,,,,,,,,0,,,69,79
103440,note_on,80,0,6,,,,,,,,0,,,54,105
103486,note_on,46,0,5,,,,,,,,0,,,69,0
103500,note_on,14,0,5,,,,,,,,0,,,68,89
103536,note_on,216,0,3,,,,,,,,1,,,69,0
103536,note_on,216,0,2,,,,,,,,1,,,73,0
103547,note_on,47,0,5,,,,,,,,0,,,68,0
103555,control_change,139,0,1,,,,,,,,1,7,105,,
103560,note_on,13,0,5,,,,,,,,0,,,66,72
103560,note_on,120,0,6,,,,,,,,0,,,42,96
103562,note_on,2,0,6,,,,,,,,0,,,54,0
103582,control_change,646,0,4,,,,,,,,10,7,82,,
103600,note_on,40,0,5,,,,,,,,0,,,66,0
103604,control_change,49,0,1,,,,,,,,1,7,104,,
103604,note_on,42,0,6,,,,,,,,0,,,42,0
103620,note_on,20,0,5,,,,,,,,0,,,64,72
103660,control_change,56,0,1,,,,,,,,1,7,102,,
103662,note_on,42,0,5,,,,,,,,0,,,64,0
103680,note_on,98,0,4,,,,,,,,10,,,35,66
103680,note_on,76,0,6,,,,,,,,0,,,47,84
103680,note_on,20,0,1,,,,,,,,1,,,71,43
103680,note_on,18,0,5,,,,,,,,0,,,62,72
103680,note_on,144,0,3,,,,,,,,1,,,66,48
103733,note_on,53,0,5,,,,,,,,0,,,62,0
103740,note_on,7,0,5,,,,,,,,0,,,64,84
103785,note_on,45,0,5,,,,,,,,0,,,64,0
103798,note_on,118,0,6,,,,,,,,0,,,47,0
103800,note_on,15,0,5,,,,,,,,0,,,66,77
103800,note_on,2,0,6,,,,,,,,0,,,59,89
103844,note_on,44,0,6,,,,,,,,0,,,59,0
103853,note_on,53,0,5,,,,,,,,0,,,66,0
103860,note_on,7,0,5,,,,,,,,0,,,71,74
103896,note_on,216,0,4,,,,,,,,10,,,35,0
103896,note_on,216,0,1,,,,,,,,1,,,71,0
103896,note_on,216,0,3,,,,,,,,1,,,66,0
103902,note_on,42,0,5,,,,,,,,0,,,71,0
103920,note_on,18,0,5,,,,,,,,0,,,66,84
103920,note_on,76,0,6,,,,,,,,0,,,59,69
103920,note_on,24,0,1,,,,,,,,1,,,74,43
103920,note_on,384,0,2,,,,,,,,1,,,71,51
103965,note_on,45,0,5,,,,,,,,0,,,66,0
103980,note_on,15,0,5,,,,,,,,0,,,64,74
104030,note_on,50,0,5,,,,,,,,0,,,64,0
104040,note_on,10,0,5,,,,,,,,0,,,62,66
104040,note_on,120,0,6,,,,,,,,0,,,47,66
104048,note_on,8,0,6,,,,,,,,0,,,59,0
104073,note_on,25,0,6,,,,,,,,0,,,47,0
104088,note_on,48,0,5,,,,,,,,0,,,62,0
104100,note_on,12,0,5,,,,,,,,0,,,61,89
104136,note_on,216,0,2,,,,,,,,1,,,71,0
104136,note_on,216,0,1,,,,,,,,1,,,74,0
104152,note_on,52,0,5,,,,,,,,0,,,61,0
104160,note_on,24,0,1,,,,,,,,1,,,78,39
104160,note_on,24,0,2,,,,,,,,1,,,74,48
104160,note_on,8,0,5,,,,,,,,0,,,59,69
104160,note_on,264,0,3,,,,,,,,1,,,59,51
104160,note_on,87,0,6,,,,,,,,0,,,47,72
104214,note_on,54,0,5,,,,,,,,0,,,59,0
104220,note_on,6,0,5,,,,,,,,0,,,61,77
104267,note_on,47,0,5,,,,,,,,0,,,61,0
104279,note_on,119,0,6,,,,,,,,0,,,47,0
104280,note_on,13,0,5,,,,,,,,0,,,62,58
104280,note_on,1,0,6,,,,,,,,0,,,59,74
104317,note_on,37,0,6,,,,,,,,0,,,59,0
104336,note_on,56,0,5,,,,,,,,0,,,62,0
104340,note_on,4,0,5,,,,,,,,0,,,66,66
104376,note_on,216,0,3,,,,,,,,1,,,59,0
104376,note_on,216,0,2,,,,,,,,1,,,74,0
104376,note_on,216,0,1,,,,,,,,1,,,78,0
104380,note_on,40,0,5,,,,,,,,0,,,66,0
104400,note_on,20,0,5,,,,,,,,0,,,71,89
104400,note_on,24,0,2,,,,,,,,1,,,78,35
104400,note_on,24,0,3,,,,,,,,1,,,62,55
104400,note_on,83,0,6,,,,,,,,0,,,59,120
104451,note_on,51,0,5,,,,,,,,0,,,71,0
104460,note_on,9,0,5,,,,,,,,0,,,73,89
104508,note_on,48,0,5,,,,,,,,0,,,73,0
104520,note_on,120,0,6,,,,,,,,0,,,59,0
104520,note_on,0,0,6,,,,,,,,0,,,47,81
104520,note_on,12,0,5,,,,,,,,0,,,74,79
104569,note_on,49,0,5,,,,,,,,0,,,74,0
104580,note_on,11,0,5,,,,,,,,0,,,71,61
104591,note_on,71,0,6,,,,,,,,0,,,47,0
104616,note_on,216,0,3,,,,,,,,1,,,62,0
104616,note_on,216,0,2,,,,,,,,1,,,78,0
104627,note_on,47,0,5,,,,,,,,0,,,71,0
104640,note_on,49,0,6,,,,,,,,0,,,49,48
104640,note_on,264,0,1,,,,,,,,1,,,73,1
104640,note_on,13,0,5,,,,,,,,0,,,77,77
104640,note_on,744,0,4,,,,,,,,10,,,37,48
104640,note_on,24,0,2,,,,,,,,1,,,68,1
104640,note_on,24,0,3,,,,,,,,1,,,61,48
104693,note_on,53,0,5,,,,,,,,0,,,77,0
104700,note_on,7,0,5,,,,,,,,0,,,71,61
104720,note_on,80,0,3,,,,,,,,1,,,61,0
104745,note_on,45,0,5,,,,,,,,0,,,71,0
104760,note_on,40,0,3,,,,,,,,1,,,61,43
104760,note_on,15,0,5,,,,,,,,0,,,80,84
104805,note_on,45,0,5,,,,,,,,0,,,80,0
104820,note_on,15,0,5,,,,,,,,0,,,71,58
104838,note_on,78,0,3,,,,,,,,1,,,61,0
104856,note_on,216,0,4,,,,,,,,10,,,37,0
104856,note_on,216,0,6,,,,,,,,0,,,49,0
104860,note_on,40,0,5,,,,,,,,0,,,71,0
104880,note_on,42,0,3,,,,,,,,1,,,61,39
104880,note_on,24,0,6,,,,,,,,0,,,53,58
104880,note_on,24,0,4,,,,,,,,10,,,41,58
104880,note_on,20,0,5,,,,,,,,0,,,77,79
104929,note_on,49,0,5,,,,,,,,0,,,77,0
104940,note_on,11,0,5,,,,,,,,0,,,71,51
104954,note_on,74,0,3,,,,,,,,1,,,61,0
104984,note_on,44,0,5,,,,,,,,0,,,71,0
105000,note_on,16,0,5,,,,,,,,0,,,80,86
105000,note_on,46,0,3,,,,,,,,1,,,61,48
105045,note_on,45,0,5,,,,,,,,0,,,80,0
105060,note_on,15,0,5,,,,,,,,0,,,71,58
105076,note_on,76,0,3,,,,,,,,1,,,61,0
105095,note_on,455,0,2,,,,,,,,1,,,68,0
105096,note_on,216,0,4,,,,,,,,10,,,41,0
105096,note_on,216,0,6,,,,,,,,0,,,53,0
105108,note_on,48,0,5,,,,,,,,0,,,71,0
105120,note_on,44,0,3,,,,,,,,1,,,61,55
105120,note_on,25,0,2,,,,,,,,1,,,71,30
105120,note_on,24,0,6,,,,,,,,0,,,56,66
105120,note_on,12,0,5,,,,,,,,0,,,77,81
105120,note_on,24,0,4,,,,,,,,10,,,44,48
105158,control_change,518,0,1,,,,,,,,1,7,101,,
105170,note_on,50,0,5,,,,,,,,0,,,77,0
105180,note_on,10,0,5,,,,,,,,0,,,71,51
105200,note_on,80,0,3,,,,,,,,1,,,61,0
105215,note_on,35,0,5,,,,,,,,0,,,71,0
105240,note_on,40,0,3,,,,,,,,1,,,61,48
105240,note_on,25,0,5,,,,,,,,0,,,80,77
105287,note_on,47,0,5,,,,,,,,0,,,80,0
105300,note_on,13,0,5,,,,,,,,0,,,71,48
105312,note_on,72,0,3,,,,,,,,1,,,61,0
105327,control_change,169,0,1,,,,,,,,1,7,99,,
105336,note_on,216,0,6,,,,,,,,0,,,56,0
105336,note_on,216,0,4,,,,,,,,10,,,44,0
105345,note_on,45,0,5,,,,,,,,0,,,71,0
105360,note_on,15,0,5,,,,,,,,0,,,77,74
105360,note_on,48,0,3,,,,,,,,1,,,61,48
105373,control_change,46,0,1,,,,,,,,1,7,98,,
105407,note_on,47,0,5,,,,,,,,0,,,77,0
105420,note_on,13,0,5,,,,,,,,0,,,71,61
105438,note_on,78,0,3,,,,,,,,1,,,61,0
105467,note_on,47,0,5,,,,,,,,0,,,71,0
105480,note_on,13,0,5,,,,,,,,0,,,80,64
105480,note_on,42,0,3,,,,,,,,1,,,61,39
105532,note_on,52,0,5,,,,,,,,0,,,80,0
105540,note_on,8,0,5,,,,,,,,0,,,71,55
105567,note_on,87,0,3,,,,,,,,1,,,61,0
105585,note_on,45,0,5,,,,,,,,0,,,71,0
105593,note_on,473,0,2,,,,,,,,1,,,71,0
105600,note_on,33,0,3,,,,,,,,1,,,61,35
105600,note_on,7,0,2,,,,,,,,1,,,69,18
105600,note_on,264,0,6,,,,,,,,0,,,49,64
105600,note_on,15,0,5,,,,,,,,0,,,78,74
105600,note_on,264,0,4,,,,,,,,10,,,37,61
105648,note_on,48,0,5,,,,,,,,0,,,78,0
105660,note_on,12,0,5,,,,,,,,0,,,69,51
105691,note_on,91,0,3,,,,,,,,1,,,61,0
105699,note_on,39,0,5,,,,,,,,0,,,69,0
105720,note_on,29,0,3,,,,,,,,1,,,61,30
105720,note_on,21,0,5,,,,,,,,0,,,81,74
105770,note_on,50,0,5,,,,,,,,0,,,81,0
105780,note_on,10,0,5,,,,,,,,0,,,69,69
105802,note_on,82,0,3,,,,,,,,1,,,61,0
105816,note_on,216,0,4,,,,,,,,10,,,37,0
105816,note_on,216,0,6,,,,,,,,0,,,49,0
105827,note_on,47,0,5,,,,,,,,0,,,69,0
105840,note_on,24,0,6,,,,,,,,0,,,54,84
105840,note_on,24,0,4,,,,,,,,10,,,42,48
105840,note_on,38,0,3,,,,,,,,1,,,61,39
105840,note_on,13,0,5,,,,,,,,0,,,78,77
105895,note_on,55,0,5,,,,,,,,0,,,78,0
105900,note_on,5,0,5,,,,,,,,0,,,69,64
105915,note_on,75,0,3,,,,,,,,1,,,61,0
105949,note_on,49,0,5,,,,,,,,0,,,69,0
105960,note_on,11,0,5,,,,,,,,0,,,81,89
105960,note_on,45,0,3,,,,,,,,1,,,61,35
105998,note_on,38,0,5,,,,,,,,0,,,81,0
106020,note_on,22,0,5,,,,,,,,0,,,69,64
106032,note_on,72,0,3,,,,,,,,1,,,61,0
106056,note_on,216,0,6,,,,,,,,0,,,54,0
106056,note_on,216,0,4,,,,,,,,10,,,42,0
106067,note_on,47,0,5,,,,,,,,0,,,69,0
106080,note_on,24,0,4,,,,,,,,10,,,45,64
106080,note_on,13,0,5,,,,,,,,0,,,78,89
106080,note_on,48,0,3,,,,,,,,1,,,61,30
106080,note_on,24,0,6,,,,,,,,0,,,57,84
106081,control_change,708,0,1,,,,,,,,1,7,96,,
106136,note_on,56,0,5,,,,,,,,0,,,78,0
106140,note_on,4,0,5,,,,,,,,0,,,69,72
106159,note_on,79,0,3,,,,,,,,1,,,61,0
106188,note_on,48,0,5,,,,,,,,0,,,69,0
106200,note_on,41,0,3,,,,,,,,1,,,61,30
106200,note_on,12,0,5,,,,,,,,0,,,81,74
106245,note_on,45,0,5,,,,,,,,0,,,81,0
106260,note_on,15,0,5,,,,,,,,0,,,69,74
106267,note_on,67,0,3,,,,,,,,1,,,61,0
106296,note_on,216,0,4,,,,,,,,10,,,45,0
106296,note_on,216,0,6,,,,,,,,0,,,57,0
106304,note_on,44,0,5,,,,,,,,0,,,69,0
106320,note_on,53,0,3,,,,,,,,1,,,61,35
106320,note_on,16,0,5,,,,,,,,0,,,78,84
106368,note_on,48,0,5,,,,,,,,0,,,78,0
106380,note_on,12,0,5,,,,,,,,0,,,69,64
106395,note_on,75,0,3,,,,,,,,1,,,61,0
106431,note_on,51,0,5,,,,,,,,0,,,69,0
106440,note_on,45,0,3,,,,,,,,1,,,61,26
106440,note_on,9,0,5,,,,,,,,0,,,81,79
106492,note_on,52,0,5,,,,,,,,0,,,81,0
106500,note_on,8,0,5,,,,,,,,0,,,69,64
106514,note_on,74,0,3,,,,,,,,1,,,61,0
106535,note_on,35,0,5,,,,,,,,0,,,69,0
106551,note_on,951,0,2,,,,,,,,1,,,69,0
106560,note_on,25,0,5,,,,,,,,0,,,80,77
106560,note_on,9,0,2,,,,,,,,1,,,65,18
106560,note_on,264,0,4,,,,,,,,10,,,37,48
106560,note_on,264,0,6,,,,,,,,0,,,49,77
106560,note_on,46,0,3,,,,,,,,1,,,61,35
106607,note_on,47,0,5,,,,,,,,0,,,80,0
106620,control_change,60,0,4,,,,,,,,10,7,83,,
106620,note_on,13,0,5,,,,,,,,0,,,73,64
106650,note_on,90,0,3,,,,,,,,1,,,61,0
106659,control_change,39,0,4,,,,,,,,10,7,85,,
106671,note_on,51,0,5,,,,,,,,0,,,73,0
106672,note_on,13,0,4,,,,,,,,10,,,37,0
106677,control_change,5,0,4,,,,,,,,10,7,86,,
106680,note_on,9,0,5,,,,,,,,0,,,83,79
106680,note_on,30,0,3,,,,,,,,1,,,61,48
106699,control_change,22,0,4,,,,,,,,10,7,88,,
106710,note_on,150,0,6,,,,,,,,0,,,49,0
106734,note_on,54,0,5,,,,,,,,0,,,83,0
106740,note_on,6,0,5,,,,,,,,0,,,73,64
106754,note_on,74,0,3,,,,,,,,1,,,61,0
106784,note_on,44,0,5,,,,,,,,0,,,73,0
106800,note_on,46,0,3,,,,,,,,1,,,61,51
106800,note_on,90,0,6,,,,,,,,0,,,53,74
106800,note_on,101,0,4,,,,,,,,10,,,41,61
106800,note_on,16,0,5,,,,,,,,0,,,80,96
106840,note_on,40,0,6,,,,,,,,0,,,53,0
106860,note_on,60,0,5,,,,,,,,0,,,73,66
106863,note_on,3,0,5,,,,,,,,0,,,80,0
106872,note_on,72,0,3,,,,,,,,1,,,61,0
106873,note_on,73,0,4,,,,,,,,10,,,41,0
106905,note_on,42,0,5,,,,,,,,0,,,73,0
106920,note_on,48,0,3,,,,,,,,1,,,61,48
106920,note_on,47,0,4,,,,,,,,10,,,44,61
106920,note_on,80,0,6,,,,,,,,0,,,56,84
106920,note_on,15,0,5,,,,,,,,0,,,83,79
106927,control_change,7,0,4,,,,,,,,10,7,89,,
106930,control_change,3,0,4,,,,,,,,10,7,94,,
106952,control_change,22,0,4,,,,,,,,10,7,95,,
106966,note_on,46,0,5,,,,,,,,0,,,83,0
106967,note_on,47,0,6,,,,,,,,0,,,56,0
106973,control_change,21,0,4,,,,,,,,10,7,91,,
106980,note_on,14,0,5,,,,,,,,0,,,73,51
106992,note_on,72,0,3,,,,,,,,1,,,61,0
106993,note_on,20,0,4,,,,,,,,10,,,44,0
107024,note_on,44,0,5,,,,,,,,0,,,73,0
107034,control_change,41,0,4,,,,,,,,10,7,92,,
107040,note_on,6,0,4,,,,,,,,10,,,47,51
107040,note_on,48,0,3,,,,,,,,1,,,61,39
107040,note_on,73,0,6,,,,,,,,0,,,59,72
107040,note_on,16,0,5,,,,,,,,0,,,80,66
107092,note_on,52,0,5,,,,,,,,0,,,80,0
107100,note_on,8,0,5,,,,,,,,0,,,73,51
107114,note_on,74,0,3,,,,,,,,1,,,61,0
107144,note_on,44,0,5,,,,,,,,0,,,73,0
107160,note_on,16,0,5,,,,,,,,0,,,83,79
107160,note_on,46,0,3,,,,,,,,1,,,61,39
107206,note_on,46,0,5,,,,,,,,0,,,83,0
107210,control_change,1129,0,1,,,,,,,,1,7,95,,
107220,note_on,14,0,5,,,,,,,,0,,,73,66
107229,note_on,69,0,3,,,,,,,,1,,,61,0
107256,note_on,216,0,4,,,,,,,,10,,,47,0
107256,note_on,216,0,6,,,,,,,,0,,,59,0
107258,note_on,38,0,5,,,,,,,,0,,,73,0
107280,note_on,51,0,3,,,,,,,,1,,,61,30
107280,note_on,22,0,5,,,,,,,,0,,,80,81
107285,control_change,29,0,4,,,,,,,,10,7,94,,
107294,control_change,9,0,4,,,,,,,,10,7,93,,
107308,control_change,14,0,4,,,,,,,,10,7,91,,
107316,control_change,8,0,4,,,,,,,,10,7,90,,
107325,control_change,9,0,4,,,,,,,,10,7,88,,
107332,note_on,52,0,5,,,,,,,,0,,,80,0
107334,control_change,9,0,4,,,,,,,,10,7,87,,
107340,note_on,8,0,5,,,,,,,,0,,,73,72
107350,note_on,70,0,3,,,,,,,,1,,,61,0
107352,control_change,18,0,4,,,,,,,,10,7,85,,
107370,control_change,18,0,4,,,,,,,,10,7,84,,
107384,note_on,44,0,5,,,,,,,,0,,,73,0
107387,control_change,17,0,4,,,,,,,,10,7,82,,
107400,note_on,16,0,5,,,,,,,,0,,,83,86
107400,note_on,50,0,3,,,,,,,,1,,,61,35
107411,control_change,24,0,4,,,,,,,,10,7,81,,
107418,control_change,208,0,1,,,,,,,,1,7,93,,
107460,note_on,0,0,5,,,,,,,,0,,,73,66
107460,note_on,60,0,5,,,,,,,,0,,,83,0
107478,note_on,78,0,3,,,,,,,,1,,,61,0
107502,note_on,42,0,5,,,,,,,,0,,,73,0
107511,note_on,951,0,2,,,,,,,,1,,,65,0
107520,note_on,18,0,5,,,,,,,,0,,,81,84
107520,note_on,264,0,6,,,,,,,,0,,,49,84
107520,note_on,9,0,2,,,,,,,,1,,,66,1
107520,note_on,109,0,4,,,,,,,,10,,,37,64
107520,note_on,42,0,3,,,,,,,,1,,,61,26
107574,note_on,54,0,5,,,,,,,,0,,,81,0
107580,note_on,6,0,5,,,,,,,,0,,,73,51
107597,note_on,77,0,3,,,,,,,,1,,,61,0
107622,note_on,42,0,5,,,,,,,,0,,,73,0
107640,note_on,43,0,3,,,,,,,,1,,,61,30
107640,note_on,18,0,5,,,,,,,,0,,,85,84
107650,note_on,130,0,4,,,,,,,,10,,,37,0
107673,control_change,23,0,4,,,,,,,,10,7,82,,
107681,control_change,8,0,4,,,,,,,,10,7,83,,
107690,control_change,9,0,4,,,,,,,,10,7,85,,
107693,note_on,53,0,5,,,,,,,,0,,,85,0
107694,note_on,174,0,6,,,,,,,,0,,,49,0
107700,note_on,7,0,5,,,,,,,,0,,,73,66
107711,control_change,21,0,4,,,,,,,,10,7,86,,
107714,note_on,74,0,3,,,,,,,,1,,,61,0
107724,control_change,13,0,4,,,,,,,,10,7,88,,
107745,note_on,45,0,5,,,,,,,,0,,,73,0
107747,control_change,23,0,4,,,,,,,,10,7,89,,
107760,note_on,13,0,4,,,,,,,,10,,,42,58
107760,note_on,46,0,3,,,,,,,,1,,,61,43
107760,note_on,15,0,5,,,,,,,,0,,,81,72
107760,note_on,66,0,6,,,,,,,,0,,,54,81
107784,control_change,24,0,4,,,,,,,,10,7,91,,
107793,note_on,33,0,6,,,,,,,,0,,,54,0
107816,note_on,56,0,5,,,,,,,,0,,,81,0
107820,note_on,4,0,5,,,,,,,,0,,,73,51
107833,note_on,73,0,3,,,,,,,,1,,,61,0
107839,note_on,55,0,4,,,,,,,,10,,,42,0
107864,note_on,44,0,5,,,,,,,,0,,,73,0
107880,note_on,16,0,5,,,,,,,,0,,,85,77
107880,note_on,47,0,3,,,,,,,,1,,,61,48
107880,note_on,41,0,4,,,,,,,,10,,,45,64
107880,note_on,87,0,6,,,,,,,,0,,,57,66
107926,note_on,46,0,6,,,,,,,,0,,,57,0
107932,note_on,52,0,5,,,,,,,,0,,,85,0
107940,note_on,8,0,5,,,,,,,,0,,,73,64
107945,control_change,65,0,4,,,,,,,,10,7,92,,
107961,note_on,81,0,3,,,,,,,,1,,,61,0
107964,note_on,19,0,4,,,,,,,,10,,,45,0
107974,note_on,34,0,5,,,,,,,,0,,,73,0
107978,control_change,14,0,4,,,,,,,,10,7,94,,
108000,note_on,22,0,4,,,,,,,,10,,,49,43
108000,note_on,74,0,6,,,,,,,,0,,,61,66
108000,note_on,39,0,3,,,,,,,,1,,,61,48
108000,note_on,26,0,5,,,,,,,,0,,,81,79
108007,control_change,7,0,4,,,,,,,,10,7,95,,
108053,note_on,53,0,5,,,,,,,,0,,,81,0
108060,note_on,7,0,5,,,,,,,,0,,,73,39
108082,note_on,82,0,3,,,,,,,,1,,,61,0
108091,note_on,31,0,5,,,,,,,,0,,,73,0
108120,note_on,38,0,3,,,,,,,,1,,,61,35
108120,note_on,29,0,5,,,,,,,,0,,,85,64
108122,note_on,115,0,4,,,,,,,,10,,,49,0
108173,note_on,53,0,5,,,,,,,,0,,,85,0
108180,note_on,7,0,5,,,,,,,,0,,,73,72
108192,note_on,72,0,3,,,,,,,,1,,,61,0
108217,note_on,37,0,5,,,,,,,,0,,,73,0
108240,note_on,48,0,3,,,,,,,,1,,,61,35
108240,note_on,23,0,5,,,,,,,,0,,,81,79
108241,note_on,241,0,6,,,,,,,,0,,,61,0
108289,control_change,167,0,4,,,,,,,,10,7,94,,
108292,note_on,52,0,5,,,,,,,,0,,,81,0
108300,note_on,8,0,5,,,,,,,,0,,,73,64
108302,control_change,13,0,4,,,,,,,,10,7,93,,
108315,note_on,75,0,3,,,,,,,,1,,,61,0
108320,control_change,18,0,4,,,,,,,,10,7,91,,
108330,control_change,10,0,4,,,,,,,,10,7,90,,
108347,control_change,17,0,4,,,,,,,,10,7,88,,
108351,note_on,51,0,5,,,,,,,,0,,,73,0
108360,note_on,9,0,5,,,,,,,,0,,,85,72
108360,note_on,45,0,3,,,,,,,,1,,,61,39
108364,control_change,17,0,4,,,,,,,,10,7,87,,
108380,control_change,16,0,4,,,,,,,,10,7,85,,
108398,control_change,18,0,4,,,,,,,,10,7,84,,
108399,note_on,39,0,5,,,,,,,,0,,,85,0
108416,control_change,18,0,4,,,,,,,,10,7,82,,
108420,note_on,21,0,5,,,,,,,,0,,,73,77
108422,note_on,62,0,3,,,,,,,,1,,,61,0
108427,note_on,907,0,2,,,,,,,,1,,,66,0
108433,note_on,1015,0,1,,,,,,,,1,,,73,0
108437,control_change,21,0,4,,,,,,,,10,7,81,,
108450,note_on,30,0,5,,,,,,,,0,,,73,0
108456,control_change,19,0,4,,,,,,,,10,7,79,,
108466,control_change,10,0,4,,,,,,,,10,7,78,,
108480,note_on,58,0,3,,,,,,,,1,,,59,14
108480,note_on,239,0,6,,,,,,,,0,,,41,84
108480,note_on,53,0,2,,,,,,,,1,,,68,3
108480,note_on,47,0,1,,,,,,,,1,,,74,18
108480,note_on,30,0,5,,,,,,,,0,,,74,69
108480,note_on,14,0,4,,,,,,,,10,,,29,8
108527,note_on,47,0,5,,,,,,,,0,,,74,0
108530,control_change,50,0,1,,,,,,,,1,7,94,,
108540,note_on,13,0,5,,,,,,,,0,,,73,74
108552,note_on,72,0,6,,,,,,,,0,,,41,0
108556,control_change,26,0,1,,,,,,,,1,7,95,,
108582,control_change,26,0,1,,,,,,,,1,7,97,,
108589,note_on,49,0,5,,,,,,,,0,,,73,0
108600,note_on,11,0,5,,,,,,,,0,,,74,66
108645,note_on,45,0,5,,,,,,,,0,,,74,0
108660,note_on,15,0,5,,,,,,,,0,,,83,79
108660,note_on,108,0,6,,,,,,,,0,,,62,72
108664,control_change,82,0,1,,,,,,,,1,7,98,,
108686,note_on,26,0,6,,,,,,,,0,,,62,0
108692,note_on,32,0,5,,,,,,,,0,,,83,0
108715,control_change,51,0,1,,,,,,,,1,7,100,,
108720,note_on,28,0,5,,,,,,,,0,,,83,102
108720,note_on,34,0,6,,,,,,,,0,,,62,69
108728,control_change,248,0,4,,,,,,,,10,7,79,,
108746,control_change,18,0,4,,,,,,,,10,7,80,,
108774,control_change,59,0,1,,,,,,,,1,7,101,,
108776,note_on,56,0,6,,,,,,,,0,,,62,0
108776,note_on,56,0,5,,,,,,,,0,,,83,0
108780,note_on,4,0,6,,,,,,,,0,,,61,58
108780,note_on,4,0,5,,,,,,,,0,,,81,89
108781,control_change,35,0,4,,,,,,,,10,7,82,,
108805,control_change,24,0,4,,,,,,,,10,7,83,,
108829,note_on,49,0,6,,,,,,,,0,,,61,0
108829,control_change,55,0,1,,,,,,,,1,7,103,,
108840,note_on,60,0,5,,,,,,,,0,,,81,0
108840,note_on,0,0,5,,,,,,,,0,,,83,74
108840,note_on,11,0,6,,,,,,,,0,,,62,58
108862,control_change,57,0,4,,,,,,,,10,7,85,,
108893,note_on,53,0,6,,,,,,,,0,,,62,0
108895,note_on,55,0,5,,,,,,,,0,,,83,0
108897,control_change,35,0,4,,,,,,,,10,7,86,,
108900,note_on,5,0,5,,,,,,,,0,,,80,64
108900,note_on,7,0,6,,,,,,,,0,,,59,64
108917,note_on,17,0,6,,,,,,,,0,,,59,0
108927,control_change,98,0,1,,,,,,,,1,7,104,,
108931,note_on,31,0,5,,,,,,,,0,,,80,0
108944,control_change,47,0,4,,,,,,,,10,7,88,,
108960,note_on,29,0,5,,,,,,,,0,,,80,81
108960,note_on,43,0,6,,,,,,,,0,,,59,79
108968,control_change,24,0,4,,,,,,,,10,7,89,,
109010,control_change,83,0,1,,,,,,,,1,7,106,,
109016,note_on,56,0,6,,,,,,,,0,,,59,0
109017,note_on,57,0,5,,,,,,,,0,,,80,0
109020,note_on,3,0,5,,,,,,,,0,,,78,66
109020,note_on,4,0,6,,,,,,,,0,,,57,51
109034,control_change,66,0,4,,,,,,,,10,7,91,,
109078,note_on,58,0,5,,,,,,,,0,,,78,0
109078,note_on,58,0,6,,,,,,,,0,,,57,0
109080,note_on,2,0,5,,,,,,,,0,,,80,66
109080,note_on,2,0,6,,,,,,,,0,,,59,66
109103,control_change,93,0,1,,,,,,,,1,7,107,,
109131,control_change,97,0,4,,,,,,,,10,7,92,,
109133,note_on,53,0,6,,,,,,,,0,,,59,0
109136,note_on,56,0,5,,,,,,,,0,,,80,0
109140,note_on,7,0,6,,,,,,,,0,,,56,58
109140,note_on,4,0,5,,,,,,,,0,,,77,72
109153,control_change,50,0,1,,,,,,,,1,7,109,,
109168,note_on,28,0,6,,,,,,,,0,,,56,0
109172,note_on,32,0,5,,,,,,,,0,,,77,0
109189,control_change,58,0,4,,,,,,,,10,7,94,,
109200,note_on,28,0,5,,,,,,,,0,,,77,72
109200,note_on,32,0,6,,,,,,,,0,,,56,61
109217,control_change,28,0,4,,,,,,,,10,7,95,,
109254,note_on,54,0,5,,,,,,,,0,,,77,0
109260,note_on,6,0,5,,,,,,,,0,,,78,61
109260,note_on,60,0,6,,,,,,,,0,,,57,64
109261,note_on,1,0,6,,,,,,,,0,,,56,0
109276,control_change,59,0,4,,,,,,,,10,7,97,,
109306,note_on,45,0,6,,,,,,,,0,,,57,0
109320,note_on,60,0,5,,,,,,,,0,,,80,81
109320,note_on,14,0,6,,,,,,,,0,,,59,55
109330,control_change,177,0,1,,,,,,,,1,7,110,,
109339,control_change,63,0,4,,,,,,,,10,7,98,,
109340,note_on,20,0,5,,,,,,,,0,,,78,0
109365,control_change,26,0,4,,,,,,,,10,7,100,,
109378,note_on,58,0,6,,,,,,,,0,,,59,0
109379,note_on,39,0,5,,,,,,,,0,,,80,0
109380,note_on,2,0,6,,,,,,,,0,,,56,61
109380,note_on,1,0,5,,,,,,,,0,,,74,72
109410,control_change,80,0,1,,,,,,,,1,7,112,,
109424,note_on,44,0,6,,,,,,,,0,,,56,0
109427,note_on,47,0,5,,,,,,,,0,,,74,0
109440,note_on,16,0,6,,,,,,,,0,,,53,79
109440,note_on,13,0,5,,,,,,,,0,,,74,86
109471,control_change,106,0,4,,,,,,,,10,7,101,,
109500,note_on,60,0,5,,,,,,,,0,,,73,66
109522,note_on,22,0,5,,,,,,,,0,,,74,0
109560,note_on,38,0,5,,,,,,,,0,,,74,74
109564,note_on,4,0,5,,,,,,,,0,,,73,0
109585,control_change,114,0,4,,,,,,,,10,7,103,,
109595,note_on,155,0,6,,,,,,,,0,,,53,0
109598,note_on,34,0,5,,,,,,,,0,,,74,0
109620,note_on,22,0,5,,,,,,,,0,,,71,58
109620,note_on,25,0,6,,,,,,,,0,,,50,72
109623,control_change,38,0,4,,,,,,,,10,7,104,,
109645,note_on,25,0,5,,,,,,,,0,,,71,0
109645,note_on,25,0,6,,,,,,,,0,,,50,0
109673,control_change,50,0,4,,,,,,,,10,7,106,,
109680,note_on,35,0,6,,,,,,,,0,,,50,64
109680,note_on,35,0,5,,,,,,,,0,,,71,64
109717,control_change,44,0,4,,,,,,,,10,7,107,,
109735,note_on,55,0,5,,,,,,,,0,,,71,0
109735,note_on,55,0,6,,,,,,,,0,,,50,0
109740,note_on,5,0,5,,,,,,,,0,,,70,77
109740,note_on,5,0,6,,,,,,,,0,,,49,61
109796,note_on,56,0,6,,,,,,,,0,,,49,0
109800,note_on,4,0,6,,,,,,,,0,,,50,58
109800,note_on,60,0,5,,,,,,,,0,,,71,66
109808,note_on,8,0,5,,,,,,,,0,,,70,0
109824,control_change,414,0,1,,,,,,,,1,7,111,,
109851,note_on,51,0,6,,,,,,,,0,,,50,0
109860,note_on,9,0,6,,,,,,,,0,,,47,79
109860,control_change,36,0,1,,,,,,,,1,7,110,,
109860,note_on,0,0,5,,,,,,,,0,,,68,58
109860,note_on,52,0,5,,,,,,,,0,,,71,0
109888,control_change,171,0,4,,,,,,,,10,7,109,,
109892,note_on,32,0,6,,,,,,,,0,,,47,0
109895,note_on,35,0,5,,,,,,,,0,,,68,0
109901,control_change,41,0,1,,,,,,,,1,7,108,,
109920,note_on,28,0,6,,,,,,,,0,,,47,66
109920,note_on,25,0,5,,,,,,,,0,,,68,58
109954,control_change,53,0,1,,,,,,,,1,7,107,,
109975,note_on,55,0,6,,,,,,,,0,,,47,0
109976,note_on,56,0,5,,,,,,,,0,,,68,0
109980,note_on,5,0,6,,,,,,,,0,,,44,66
109980,note_on,4,0,5,,,,,,,,0,,,71,64
110004,note_on,24,0,5,,,,,,,,0,,,71,0
110010,note_on,6,0,5,,,,,,,,0,,,74,84
110025,note_on,15,0,5,,,,,,,,0,,,74,0
110033,note_on,53,0,6,,,,,,,,0,,,44,0
110040,note_on,7,0,6,,,,,,,,0,,,41,64
110040,note_on,15,0,5,,,,,,,,0,,,80,127
110064,control_change,176,0,4,,,,,,,,10,7,108,,
110065,control_change,111,0,1,,,,,,,,1,7,105,,
110078,note_on,13,0,1,,,,,,,,1,,,74,0
110082,control_change,18,0,4,,,,,,,,10,7,106,,
110086,note_on,1606,0,2,,,,,,,,1,,,68,0
110095,control_change,17,0,1,,,,,,,,1,7,104,,
110098,control_change,16,0,4,,,,,,,,10,7,105,,
110112,control_change,14,0,4,,,,,,,,10,7,103,,
110121,control_change,9,0,4,,,,,,,,10,7,102,,
110124,note_on,1644,0,3,,,,,,,,1,,,59,0
110130,control_change,9,0,4,,,,,,,,10,7,100,,
110139,control_change,9,0,4,,,,,,,,10,7,99,,
110143,note_on,4,0,4,,,,,,,,10,,,29,0
110152,control_change,9,0,4,,,,,,,,10,7,97,,
110153,note_on,113,0,5,,,,,,,,0,,,80,0
110153,note_on,113,0,6,,,,,,,,0,,,41,0
110161,control_change,9,0,4,,,,,,,,10,7,96,,
110163,control_change,68,0,1,,,,,,,,1,7,102,,
110170,control_change,9,0,4,,,,,,,,10,7,94,,
110179,control_change,9,0,4,,,,,,,,10,7,93,,
110280,note_on,156,0,3,,,,,,,,1,,,59,120
110280,note_on,117,0,1,,,,,,,,1,,,74,55
110280,note_on,127,0,5,,,,,,,,0,,,71,79
110280,note_on,194,0,2,,,,,,,,1,,,68,96
110280,note_on,127,0,6,,,,,,,,0,,,53,51
110280,note_on,101,0,4,,,,,,,,10,,,41,96
110320,note_on,40,0,1,,,,,,,,1,,,74,0
110326,note_on,46,0,2,,,,,,,,1,,,68,0
110337,note_on,57,0,5,,,,,,,,0,,,71,0
110340,note_on,3,0,5,,,,,,,,0,,,73,77
110342,note_on,62,0,3,,,,,,,,1,,,59,0
110351,note_on,71,0,4,,,,,,,,10,,,41,0
110364,note_on,24,0,5,,,,,,,,0,,,73,0
110370,note_on,6,0,5,,,,,,,,0,,,74,79
110370,note_on,90,0,6,,,,,,,,0,,,53,0
110394,note_on,24,0,5,,,,,,,,0,,,74,0
110400,note_on,80,0,1,,,,,,,,1,,,73,77
110400,note_on,58,0,3,,,,,,,,1,,,57,117
110400,note_on,6,0,5,,,,,,,,0,,,73,123
110400,note_on,74,0,2,,,,,,,,1,,,69,96
110400,note_on,30,0,6,,,,,,,,0,,,54,74
110400,note_on,49,0,4,,,,,,,,10,,,42,89
110439,control_change,39,0,4,,,,,,,,10,7,94,,
110447,control_change,8,0,4,,,,,,,,10,7,95,,
110451,note_on,51,0,6,,,,,,,,0,,,54,0
110455,note_on,55,0,3,,,,,,,,1,,,57,0
110457,note_on,57,0,1,,,,,,,,1,,,73,0
110472,note_on,72,0,2,,,,,,,,1,,,69,0
110495,note_on,48,0,4,,,,,,,,10,,,42,0
110500,note_on,100,0,5,,,,,,,,0,,,73,0
110520,note_on,20,0,5,,,,,,,,0,,,71,96
110520,note_on,48,0,2,,,,,,,,1,,,68,124
110520,note_on,25,0,4,,,,,,,,10,,,38,93
110520,note_on,69,0,6,,,,,,,,0,,,50,72
110520,note_on,63,0,1,,,,,,,,1,,,71,79
110520,note_on,65,0,3,,,,,,,,1,,,62,117
110528,control_change,8,0,1,,,,,,,,1,7,103,,
110550,control_change,22,0,1,,,,,,,,1,7,104,,
110557,note_on,37,0,2,,,,,,,,1,,,68,0
110559,control_change,9,0,1,,,,,,,,1,7,106,,
110560,note_on,40,0,5,,,,,,,,0,,,71,0
110564,note_on,5,0,1,,,,,,,,1,,,71,0
110567,control_change,3,0,1,,,,,,,,1,7,107,,
110576,control_change,9,0,1,,,,,,,,1,7,109,,
110580,note_on,23,0,2,,,,,,,,1,,,66,64
110580,note_on,20,0,5,,,,,,,,0,,,69,84
110580,note_on,4,0,1,,,,,,,,1,,,69,74
110587,note_on,67,0,6,,,,,,,,0,,,50,0
110604,note_on,84,0,4,,,,,,,,10,,,38,0
110615,note_on,35,0,2,,,,,,,,1,,,66,0
110622,note_on,42,0,1,,,,,,,,1,,,69,0
110624,note_on,44,0,5,,,,,,,,0,,,69,0
110640,note_on,36,0,4,,,,,,,,10,,,35,93
110640,note_on,53,0,6,,,,,,,,0,,,47,79
110640,note_on,18,0,1,,,,,,,,1,,,73,84
110640,note_on,25,0,2,,,,,,,,1,,,69,96
110640,note_on,16,0,5,,,,,,,,0,,,73,108
110646,control_change,6,0,4,,,,,,,,10,7,94,,
110666,control_change,20,0,4,,,,,,,,10,7,93,,
110679,note_on,39,0,2,,,,,,,,1,,,69,0
110684,note_on,44,0,1,,,,,,,,1,,,73,0
110690,note_on,170,0,3,,,,,,,,1,,,62,0
110692,note_on,52,0,5,,,,,,,,0,,,73,0
110700,note_on,16,0,1,,,,,,,,1,,,71,66
110700,note_on,21,0,2,,,,,,,,1,,,68,111
110700,note_on,8,0,5,,,,,,,,0,,,71,96
110704,note_on,64,0,6,,,,,,,,0,,,47,0
110705,control_change,39,0,4,,,,,,,,10,7,91,,
110713,control_change,8,0,4,,,,,,,,10,7,90,,
110716,note_on,3,0,4,,,,,,,,10,,,35,0
110727,control_change,27,0,1,,,,,,,,1,7,108,,
110735,note_on,35,0,2,,,,,,,,1,,,68,0
110737,note_on,37,0,5,,,,,,,,0,,,71,0
110744,control_change,0,0,1,,,,,,,,1,7,107,,
110744,note_on,17,0,1,,,,,,,,1,,,71,0
110760,note_on,23,0,5,,,,,,,,0,,,69,79
110760,note_on,44,0,4,,,,,,,,10,,,37,102
110760,note_on,56,0,6,,,,,,,,0,,,49,86
110760,note_on,70,0,3,,,,,,,,1,,,61,127
110760,note_on,16,0,1,,,,,,,,1,,,69,72
110760,note_on,25,0,2,,,,,,,,1,,,66,81
110794,note_on,34,0,5,,,,,,,,0,,,69,0
110798,note_on,38,0,2,,,,,,,,1,,,66,0
110803,note_on,43,0,1,,,,,,,,1,,,69,0
110820,note_on,17,0,1,,,,,,,,1,,,68,69
110820,note_on,26,0,5,,,,,,,,0,,,68,66
110820,note_on,22,0,2,,,,,,,,1,,,65,93
110828,note_on,68,0,6,,,,,,,,0,,,49,0
110846,note_on,86,0,4,,,,,,,,10,,,37,0
110849,note_on,29,0,5,,,,,,,,0,,,68,0
110853,note_on,93,0,3,,,,,,,,1,,,61,0
110855,note_on,35,0,2,,,,,,,,1,,,65,0
110867,note_on,47,0,1,,,,,,,,1,,,68,0
110880,note_on,27,0,3,,,,,,,,1,,,57,96
110880,note_on,52,0,6,,,,,,,,0,,,42,93
110880,note_on,34,0,4,,,,,,,,10,,,30,99
110880,note_on,25,0,2,,,,,,,,1,,,66,84
110880,note_on,13,0,1,,,,,,,,1,,,66,96
110880,note_on,31,0,5,,,,,,,,0,,,66,80
110930,note_on,50,0,1,,,,,,,,1,,,66,0
110947,note_on,67,0,2,,,,,,,,1,,,66,0
110994,note_on,114,0,3,,,,,,,,1,,,57,0
111000,note_on,70,0,1,,,,,,,,1,,,73,64
111000,note_on,53,0,2,,,,,,,,1,,,69,89
111003,note_on,123,0,6,,,,,,,,0,,,42,0
111034,note_on,34,0,1,,,,,,,,1,,,73,0
111036,note_on,36,0,2,,,,,,,,1,,,69,0
111037,note_on,157,0,4,,,,,,,,10,,,30,0
111060,note_on,26,0,1,,,,,,,,1,,,73,69
111060,note_on,24,0,2,,,,,,,,1,,,69,79
111095,note_on,35,0,2,,,,,,,,1,,,69,0
111099,note_on,39,0,1,,,,,,,,1,,,73,0
111120,note_on,25,0,2,,,,,,,,1,,,71,69
111120,note_on,21,0,1,,,,,,,,1,,,74,89
111149,note_on,29,0,2,,,,,,,,1,,,71,0
111156,note_on,36,0,1,,,,,,,,1,,,74,0
111180,note_on,31,0,2,,,,,,,,1,,,71,79
111180,note_on,24,0,1,,,,,,,,1,,,74,77
111213,note_on,33,0,2,,,,,,,,1,,,71,0
111216,note_on,36,0,1,,,,,,,,1,,,74,0
111240,note_on,24,0,1,,,,,,,,1,,,71,77
111240,note_on,27,0,2,,,,,,,,1,,,68,64
111272,note_on,32,0,2,,,,,,,,1,,,68,0
111272,note_on,32,0,1,,,,,,,,1,,,71,0
111300,note_on,28,0,2,,,,,,,,1,,,68,72
111300,note_on,28,0,1,,,,,,,,1,,,71,72
111336,note_on,36,0,1,,,,,,,,1,,,71,0
111338,note_on,38,0,2,,,,,,,,1,,,68,0
111360,note_on,22,0,2,,,,,,,,1,,,69,79
111360,note_on,357,0,6,,,,,,,,0,,,54,96
111360,note_on,24,0,1,,,,,,,,1,,,73,81
111393,note_on,33,0,1,,,,,,,,1,,,73,0
111396,note_on,36,0,2,,,,,,,,1,,,69,0
111420,note_on,27,0,1,,,,,,,,1,,,73,96
111420,note_on,24,0,2,,,,,,,,1,,,69,72
111456,note_on,36,0,1,,,,,,,,1,,,73,0
111456,note_on,36,0,2,,,,,,,,1,,,69,0
111477,note_on,117,0,6,,,,,,,,0,,,54,0
111480,note_on,24,0,1,,,,,,,,1,,,69,74
111480,note_on,24,0,2,,,,,,,,1,,,66,69
111480,note_on,486,0,3,,,,,,,,1,,,61,127
111489,control_change,9,0,1,,,,,,,,1,7,105,,
111513,note_on,24,0,1,,,,,,,,1,,,69,0
111514,note_on,34,0,2,,,,,,,,1,,,66,0
111516,note_on,36,0,3,,,,,,,,1,,,61,0
111517,control_change,4,0,1,,,,,,,,1,7,104,,
111540,note_on,26,0,2,,,,,,,,1,,,66,66
111540,note_on,23,0,1,,,,,,,,1,,,69,96
111540,note_on,24,0,3,,,,,,,,1,,,61,120
111576,note_on,36,0,2,,,,,,,,1,,,66,0
111578,note_on,38,0,3,,,,,,,,1,,,61,0
111580,note_on,40,0,1,,,,,,,,1,,,69,0
111585,control_change,5,0,1,,,,,,,,1,7,102,,
111600,note_on,15,0,1,,,,,,,,1,,,71,79
111600,note_on,24,0,2,,,,,,,,1,,,68,127
111600,note_on,22,0,3,,,,,,,,1,,,62,124
111634,note_on,34,0,1,,,,,,,,1,,,71,0
111636,note_on,36,0,3,,,,,,,,1,,,62,0
111639,note_on,39,0,2,,,,,,,,1,,,68,0
111640,aftertouch,6,0,1,,,,,,,,1,,6,,
111643,aftertouch,3,0,1,,,,,,,,1,,0,,
111646,aftertouch,3,0,1,,,,,,,,1,,3,,
111654,aftertouch,8,0,1,,,,,,,,1,,0,,
111657,aftertouch,3,0,1,,,,,,,,1,,1,,
111660,note_on,3,0,1,,,,,,,,1,,,71,96
111660,note_on,21,0,2,,,,,,,,1,,,68,127
111660,note_on,24,0,3,,,,,,,,1,,,62,120
111665,aftertouch,5,0,1,,,,,,,,1,,0,,
111695,note_on,35,0,3,,,,,,,,1,,,62,0
111697,note_on,37,0,2,,,,,,,,1,,,68,0
111700,note_on,35,0,1,,,,,,,,1,,,71,0
111720,note_on,25,0,3,,,,,,,,1,,,59,120
111720,note_on,20,0,1,,,,,,,,1,,,68,86
111720,note_on,23,0,2,,,,,,,,1,,,65,102
111752,note_on,32,0,2,,,,,,,,1,,,65,0
111753,control_change,33,0,1,,,,,,,,1,7,101,,
111753,note_on,33,0,3,,,,,,,,1,,,59,0
111754,note_on,1,0,1,,,,,,,,1,,,68,0
111780,note_on,27,0,3,,,,,,,,1,,,59,72
111780,note_on,28,0,2,,,,,,,,1,,,65,89
111780,note_on,26,0,1,,,,,,,,1,,,68,93
111815,note_on,35,0,3,,,,,,,,1,,,59,0
111822,note_on,42,0,1,,,,,,,,1,,,68,0
111823,note_on,43,0,2,,,,,,,,1,,,65,0
111828,control_change,791,0,4,,,,,,,,10,7,92,,
111840,note_on,25,0,3,,,,,,,,1,,,61,89
111840,aftertouch,0,0,2,,,,,,,,1,,12,,
111840,note_on,17,0,2,,,,,,,,1,,,66,117
111840,note_on,18,0,1,,,,,,,,1,,,69,84
111849,aftertouch,9,0,2,,,,,,,,1,,0,,
111851,aftertouch,2,0,2,,,,,,,,1,,54,,
111851,aftertouch,11,0,3,,,,,,,,1,,54,,
111851,aftertouch,374,0,6,,,,,,,,0,,54,,
111851,aftertouch,23,0,4,,,,,,,,10,,54,,
111852,control_change,1,0,4,,,,,,,,10,7,94,,
111859,aftertouch,8,0,2,,,,,,,,1,,0,,
111860,aftertouch,9,0,6,,,,,,,,0,,88,,
111861,aftertouch,2,0,2,,,,,,,,1,,88,,
111861,aftertouch,10,0,3,,,,,,,,1,,88,,
111861,aftertouch,9,0,4,,,,,,,,10,,88,,
111870,aftertouch,9,0,2,,,,,,,,1,,0,,
111872,aftertouch,2,0,2,,,,,,,,1,,105,,
111872,aftertouch,12,0,6,,,,,,,,0,,105,,
111872,aftertouch,11,0,3,,,,,,,,1,,105,,
111872,aftertouch,11,0,4,,,,,,,,10,,105,,
111880,aftertouch,8,0,2,,,,,,,,1,,0,,
111882,aftertouch,10,0,6,,,,,,,,0,,97,,
111883,aftertouch,3,0,2,,,,,,,,1,,97,,
111883,aftertouch,11,0,4,,,,,,,,10,,97,,
111883,aftertouch,11,0,3,,,,,,,,1,,97,,
111891,aftertouch,8,0,2,,,,,,,,1,,0,,
111893,aftertouch,10,0,4,,,,,,,,10,,80,,
111893,aftertouch,11,0,6,,,,,,,,0,,80,,
111893,aftertouch,10,0,3,,,,,,,,1,,80,,
111893,aftertouch,2,0,2,,,,,,,,1,,80,,
111902,aftertouch,9,0,2,,,,,,,,1,,0,,
111904,aftertouch,11,0,3,,,,,,,,1,,65,,
111904,aftertouch,11,0,6,,,,,,,,0,,65,,
111904,aftertouch,2,0,2,,,,,,,,1,,65,,
111904,aftertouch,11,0,4,,,,,,,,10,,65,,
111913,aftertouch,9,0,2,,,,,,,,1,,0,,
111915,aftertouch,2,0,2,,,,,,,,1,,57,,
111915,aftertouch,11,0,6,,,,,,,,0,,57,,
111915,aftertouch,11,0,4,,,,,,,,10,,57,,
111915,aftertouch,11,0,3,,,,,,,,1,,57,,
111923,aftertouch,8,0,2,,,,,,,,1,,0,,
111924,aftertouch,9,0,6,,,,,,,,0,,53,,
111925,aftertouch,2,0,2,,,,,,,,1,,53,,
111925,aftertouch,10,0,3,,,,,,,,1,,53,,
111925,aftertouch,10,0,4,,,,,,,,10,,53,,
111934,aftertouch,9,0,2,,,,,,,,1,,0,,
111935,note_on,1055,0,5,,,,,,,,0,,,66,0
111935,aftertouch,11,0,6,,,,,,,,0,,26,,
111936,aftertouch,11,0,3,,,,,,,,1,,26,,
111936,aftertouch,11,0,4,,,,,,,,10,,26,,
111936,aftertouch,2,0,2,,,,,,,,1,,26,,
111938,note_on,2,0,3,,,,,,,,1,,,61,0
111939,note_on,99,0,1,,,,,,,,1,,,69,0
111941,aftertouch,5,0,2,,,,,,,,1,,0,,
111948,note_on,7,0,2,,,,,,,,1,,,66,0
111960,note_on,24,0,4,,,,,,,,10,,,30,105
111960,note_on,25,0,5,,,,,,,,0,,,64,64
111960,note_on,25,0,6,,,,,,,,0,,,42,84
111976,control_change,16,0,4,,,,,,,,10,7,95,,
111993,note_on,33,0,6,,,,,,,,0,,,42,0
111998,note_on,22,0,4,,,,,,,,10,,,30,0
112020,note_on,27,0,6,,,,,,,,0,,,54,84
112020,note_on,22,0,4,,,,,,,,10,,,30,105
112036,note_on,76,0,5,,,,,,,,0,,,64,0
112054,note_on,34,0,6,,,,,,,,0,,,54,0
112060,note_on,40,0,4,,,,,,,,10,,,30,0
112080,note_on,26,0,6,,,,,,,,0,,,44,93
112080,note_on,20,0,4,,,,,,,,10,,,32,127
112080,note_on,44,0,5,,,,,,,,0,,,62,72
112106,note_on,26,0,5,,,,,,,,0,,,62,0
112110,note_on,4,0,5,,,,,,,,0,,,64,66
112120,note_on,40,0,4,,,,,,,,10,,,32,0
112128,note_on,48,0,6,,,,,,,,0,,,44,0
112135,note_on,25,0,5,,,,,,,,0,,,64,0
112140,note_on,20,0,4,,,,,,,,10,,,32,124
112140,note_on,12,0,6,,,,,,,,0,,,56,77
112140,note_on,5,0,5,,,,,,,,0,,,62,58
112174,note_on,34,0,6,,,,,,,,0,,,56,0
112177,note_on,37,0,4,,,,,,,,10,,,32,0
112188,note_on,48,0,5,,,,,,,,0,,,62,0
112197,aftertouch,20,0,4,,,,,,,,10,,25,,
112200,note_on,3,0,4,,,,,,,,10,,,34,99
112200,note_on,26,0,6,,,,,,,,0,,,46,120
112200,note_on,12,0,5,,,,,,,,0,,,61,84
112205,aftertouch,5,0,4,,,,,,,,10,,0,,
112208,aftertouch,8,0,6,,,,,,,,0,,21,,
112208,aftertouch,3,0,4,,,,,,,,10,,21,,
112216,aftertouch,8,0,4,,,,,,,,10,,0,,
112218,aftertouch,10,0,6,,,,,,,,0,,10,,
112218,aftertouch,2,0,4,,,,,,,,10,,10,,
112227,aftertouch,9,0,4,,,,,,,,10,,0,,
112229,aftertouch,2,0,4,,,,,,,,10,,5,,
112229,aftertouch,11,0,6,,,,,,,,0,,5,,
112230,aftertouch,1,0,4,,,,,,,,10,,0,,
112236,note_on,6,0,4,,,,,,,,10,,,34,0
112249,note_on,20,0,6,,,,,,,,0,,,46,0
112260,note_on,11,0,6,,,,,,,,0,,,58,58
112260,note_on,24,0,4,,,,,,,,10,,,34,117
112285,note_on,85,0,5,,,,,,,,0,,,61,0
112302,note_on,42,0,6,,,,,,,,0,,,58,0
112304,note_on,44,0,4,,,,,,,,10,,,34,0
112320,note_on,18,0,6,,,,,,,,0,,,47,102
112320,note_on,16,0,4,,,,,,,,10,,,35,124
112320,note_on,35,0,5,,,,,,,,0,,,62,89
112364,note_on,44,0,5,,,,,,,,0,,,62,0
112380,note_on,442,0,3,,,,,,,,1,,,62,81
112380,note_on,16,0,5,,,,,,,,0,,,59,79
112408,note_on,88,0,4,,,,,,,,10,,,35,0
112425,note_on,45,0,3,,,,,,,,1,,,62,0
112429,note_on,49,0,5,,,,,,,,0,,,59,0
112434,note_on,114,0,6,,,,,,,,0,,,47,0
112440,note_on,32,0,4,,,,,,,,10,,,35,72
112440,note_on,11,0,5,,,,,,,,0,,,58,66
112440,note_on,15,0,3,,,,,,,,1,,,61,77
112452,control_change,12,0,4,,,,,,,,10,7,94,,
112465,control_change,13,0,4,,,,,,,,10,7,93,,
112478,note_on,38,0,5,,,,,,,,0,,,58,0
112481,note_on,41,0,3,,,,,,,,1,,,61,0
112497,control_change,558,0,1,,,,,,,,1,7,103,,
112500,note_on,22,0,5,,,,,,,,0,,,59,79
112500,note_on,19,0,3,,,,,,,,1,,,62,79
112525,control_change,60,0,4,,,,,,,,10,7,91,,
112535,control_change,10,0,4,,,,,,,,10,7,90,,
112536,note_on,1,0,4,,,,,,,,10,,,35,0
112543,note_on,43,0,3,,,,,,,,1,,,62,0
112549,note_on,49,0,5,,,,,,,,0,,,59,0
112560,note_on,11,0,5,,,,,,,,0,,,67,89
112560,note_on,17,0,3,,,,,,,,1,,,59,84
112560,note_on,24,0,4,,,,,,,,10,,,35,74
112571,control_change,11,0,4,,,,,,,,10,7,88,,
112595,control_change,24,0,4,,,,,,,,10,7,87,,
112620,note_on,123,0,1,,,,,,,,1,,,62,72
112620,note_on,672,0,2,,,,,,,,1,,,59,89
112654,note_on,59,0,4,,,,,,,,10,,,35,0
112662,note_on,42,0,2,,,,,,,,1,,,59,0
112666,note_on,46,0,1,,,,,,,,1,,,62,0
112677,note_on,117,0,3,,,,,,,,1,,,59,0
112680,note_on,26,0,4,,,,,,,,10,,,35,58
112680,note_on,14,0,1,,,,,,,,1,,,60,89
112680,note_on,18,0,2,,,,,,,,1,,,57,84
112680,note_on,246,0,6,,,,,,,,0,,,59,89
112723,note_on,43,0,2,,,,,,,,1,,,57,0
112724,note_on,44,0,1,,,,,,,,1,,,60,0
112740,note_on,17,0,2,,,,,,,,1,,,59,77
112740,note_on,16,0,1,,,,,,,,1,,,62,79
112756,note_on,76,0,6,,,,,,,,0,,,59,0
112771,note_on,91,0,4,,,,,,,,10,,,35,0
112783,note_on,43,0,1,,,,,,,,1,,,62,0
112794,note_on,54,0,2,,,,,,,,1,,,59,0
112800,note_on,29,0,4,,,,,,,,10,,,35,58
112800,note_on,6,0,2,,,,,,,,1,,,55,120
112800,note_on,17,0,1,,,,,,,,1,,,59,72
112800,note_on,44,0,6,,,,,,,,0,,,47,102
112823,note_on,263,0,5,,,,,,,,0,,,67,0
112860,note_on,37,0,5,,,,,,,,0,,,62,79
112860,note_on,183,0,3,,,,,,,,1,,,59,79
112892,note_on,92,0,1,,,,,,,,1,,,59,0
112896,note_on,96,0,4,,,,,,,,10,,,35,0
112905,note_on,45,0,3,,,,,,,,1,,,59,0
112911,note_on,51,0,5,,,,,,,,0,,,62,0
112912,note_on,112,0,6,,,,,,,,0,,,47,0
112915,note_on,115,0,2,,,,,,,,1,,,55,0
112920,note_on,9,0,5,,,,,,,,0,,,61,81
112920,note_on,15,0,3,,,,,,,,1,,,57,93
112920,note_on,24,0,4,,,,,,,,10,,,35,66
112958,note_on,38,0,5,,,,,,,,0,,,61,0
112961,control_change,69,0,1,,,,,,,,1,7,104,,
112968,note_on,48,0,3,,,,,,,,1,,,57,0
112980,note_on,22,0,5,,,,,,,,0,,,62,84
112980,note_on,12,0,3,,,,,,,,1,,,59,89
113001,control_change,40,0,1,,,,,,,,1,7,106,,
113011,note_on,91,0,4,,,,,,,,10,,,35,0
113026,note_on,46,0,5,,,,,,,,0,,,62,0
113033,note_on,53,0,3,,,,,,,,1,,,59,0
113040,note_on,29,0,4,,,,,,,,10,,,35,66
113040,note_on,7,0,3,,,,,,,,1,,,55,102
113040,note_on,14,0,5,,,,,,,,0,,,71,120
113100,note_on,185,0,2,,,,,,,,1,,,71,102
113100,note_on,99,0,1,,,,,,,,1,,,67,84
113135,note_on,95,0,4,,,,,,,,10,,,35,0
113142,note_on,42,0,1,,,,,,,,1,,,67,0
113144,note_on,44,0,2,,,,,,,,1,,,71,0
113145,control_change,10,0,4,,,,,,,,10,7,88,,
113152,note_on,112,0,3,,,,,,,,1,,,55,0
113160,note_on,16,0,2,,,,,,,,1,,,69,84
113160,note_on,248,0,6,,,,,,,,0,,,59,79
113160,note_on,15,0,4,,,,,,,,10,,,35,64
113160,note_on,18,0,1,,,,,,,,1,,,66,77
113169,control_change,9,0,4,,,,,,,,10,7,89,,
113201,note_on,41,0,2,,,,,,,,1,,,69,0
113209,note_on,49,0,1,,,,,,,,1,,,66,0
113219,control_change,10,0,1,,,,,,,,1,7,107,,
113220,note_on,19,0,2,,,,,,,,1,,,71,89
113220,note_on,1,0,1,,,,,,,,1,,,67,74
113229,note_on,69,0,6,,,,,,,,0,,,59,0
113239,control_change,70,0,4,,,,,,,,10,7,91,,
113250,note_on,11,0,4,,,,,,,,10,,,35,0
113261,note_on,41,0,2,,,,,,,,1,,,71,0
113267,note_on,47,0,1,,,,,,,,1,,,67,0
113271,control_change,21,0,4,,,,,,,,10,7,92,,
113280,note_on,13,0,1,,,,,,,,1,,,62,79
113280,note_on,51,0,6,,,,,,,,0,,,47,96
113280,note_on,19,0,2,,,,,,,,1,,,67,89
113280,note_on,9,0,4,,,,,,,,10,,,35,72
113298,control_change,18,0,4,,,,,,,,10,7,94,,
113318,note_on,278,0,5,,,,,,,,0,,,71,0
113328,control_change,30,0,4,,,,,,,,10,7,95,,
113340,note_on,22,0,5,,,,,,,,0,,,67,79
113340,note_on,188,0,3,,,,,,,,1,,,71,105
113368,note_on,40,0,4,,,,,,,,10,,,35,0
113370,control_change,90,0,1,,,,,,,,1,7,109,,
113374,note_on,4,0,1,,,,,,,,1,,,62,0
113376,note_on,36,0,3,,,,,,,,1,,,71,0
113387,note_on,107,0,2,,,,,,,,1,,,67,0
113388,note_on,108,0,6,,,,,,,,0,,,47,0
113390,note_on,50,0,5,,,,,,,,0,,,67,0
113400,note_on,10,0,5,,,,,,,,0,,,66,72
113400,note_on,32,0,4,,,,,,,,10,,,35,58
113400,note_on,24,0,3,,,,,,,,1,,,69,86
113443,note_on,43,0,3,,,,,,,,1,,,69,0
113451,note_on,51,0,5,,,,,,,,0,,,66,0
113460,note_on,9,0,5,,,,,,,,0,,,67,102
113460,note_on,17,0,3,,,,,,,,1,,,71,81
113464,control_change,64,0,4,,,,,,,,10,7,97,,
113485,note_on,21,0,4,,,,,,,,10,,,35,0
113502,note_on,42,0,3,,,,,,,,1,,,71,0
113506,control_change,21,0,4,,,,,,,,10,7,98,,
113509,note_on,49,0,5,,,,,,,,0,,,67,0
113520,note_on,14,0,4,,,,,,,,10,,,35,58
113520,note_on,11,0,5,,,,,,,,0,,,74,108
113520,note_on,18,0,3,,,,,,,,1,,,67,84
113553,control_change,33,0,4,,,,,,,,10,7,100,,
113570,control_change,196,0,1,,,,,,,,1,7,110,,
113580,note_on,10,0,1,,,,,,,,1,,,71,72
113580,note_on,193,0,2,,,,,,,,1,,,74,96
113611,note_on,58,0,4,,,,,,,,10,,,35,0
113620,note_on,40,0,2,,,,,,,,1,,,74,0
113628,note_on,48,0,1,,,,,,,,1,,,71,0
113629,note_on,109,0,3,,,,,,,,1,,,67,0
113640,note_on,29,0,4,,,,,,,,10,,,35,43
113640,note_on,252,0,6,,,,,,,,0,,,59,81
113640,note_on,20,0,2,,,,,,,,1,,,73,86
113640,note_on,12,0,1,,,,,,,,1,,,69,72
113654,control_change,14,0,4,,,,,,,,10,7,101,,
113661,control_change,21,0,1,,,,,,,,1,7,112,,
113681,note_on,41,0,2,,,,,,,,1,,,73,0
113688,note_on,27,0,1,,,,,,,,1,,,69,0
113692,note_on,52,0,6,,,,,,,,0,,,59,0
113700,note_on,12,0,1,,,,,,,,1,,,71,69
113700,note_on,19,0,2,,,,,,,,1,,,74,102
113706,control_change,6,0,1,,,,,,,,1,7,113,,
113718,control_change,12,0,1,,,,,,,,1,7,115,,
113736,note_on,82,0,4,,,,,,,,10,,,35,0
113743,note_on,43,0,2,,,,,,,,1,,,74,0
113753,note_on,35,0,1,,,,,,,,1,,,71,0
113757,control_change,21,0,4,,,,,,,,10,7,103,,
113760,note_on,7,0,1,,,,,,,,1,,,65,74
113760,note_on,68,0,6,,,,,,,,0,,,44,114
113760,note_on,3,0,4,,,,,,,,10,,,32,61
113760,note_on,17,0,2,,,,,,,,1,,,71,117
113805,control_change,45,0,4,,,,,,,,10,7,104,,
113808,note_on,288,0,5,,,,,,,,0,,,74,0
113820,note_on,191,0,3,,,,,,,,1,,,69,96
113820,note_on,12,0,5,,,,,,,,0,,,73,89
113845,note_on,40,0,4,,,,,,,,10,,,32,0
113855,control_change,10,0,4,,,,,,,,10,7,106,,
113858,note_on,98,0,1,,,,,,,,1,,,65,0
113861,note_on,101,0,2,,,,,,,,1,,,71,0
113863,note_on,43,0,3,,,,,,,,1,,,69,0
113867,note_on,47,0,5,,,,,,,,0,,,73,0
113870,note_on,110,0,6,,,,,,,,0,,,44,0
113880,note_on,17,0,3,,,,,,,,1,,,68,89
113880,note_on,25,0,4,,,,,,,,10,,,32,61
113880,note_on,13,0,5,,,,,,,,0,,,71,61
113909,control_change,29,0,4,,,,,,,,10,7,107,,
113921,note_on,41,0,3,,,,,,,,1,,,68,0
113930,note_on,50,0,5,,,,,,,,0,,,71,0
113940,note_on,10,0,5,,,,,,,,0,,,74,89
113940,note_on,19,0,3,,,,,,,,1,,,66,86
113975,note_on,35,0,3,,,,,,,,1,,,66,0
113979,note_on,70,0,4,,,,,,,,10,,,32,0
113989,note_on,49,0,5,,,,,,,,0,,,74,0
114000,note_on,21,0,4,,,,,,,,10,,,32,58
114000,note_on,11,0,5,,,,,,,,0,,,80,123
114000,note_on,25,0,3,,,,,,,,1,,,65,74
114060,note_on,202,0,1,,,,,,,,1,,,74,77
114060,note_on,199,0,2,,,,,,,,1,,,71,123
114091,note_on,91,0,4,,,,,,,,10,,,32,0
114099,note_on,39,0,1,,,,,,,,1,,,74,0
114102,note_on,42,0,2,,,,,,,,1,,,71,0
114120,note_on,21,0,1,,,,,,,,1,,,73,89
114120,note_on,29,0,4,,,,,,,,10,,,32,72
114120,note_on,18,0,2,,,,,,,,1,,,69,89
114120,note_on,250,0,6,,,,,,,,0,,,56,99
114131,note_on,131,0,3,,,,,,,,1,,,65,0
114162,note_on,42,0,2,,,,,,,,1,,,69,0
114167,note_on,47,0,1,,,,,,,,1,,,73,0
114178,note_on,58,0,6,,,,,,,,0,,,56,0
114180,note_on,13,0,1,,,,,,,,1,,,74,69
114180,note_on,18,0,2,,,,,,,,1,,,71,96
114222,note_on,42,0,1,,,,,,,,1,,,74,0
114224,note_on,104,0,4,,,,,,,,10,,,32,0
114229,note_on,49,0,2,,,,,,,,1,,,71,0
114240,note_on,11,0,2,,,,,,,,1,,,68,72
114240,note_on,62,0,6,,,,,,,,0,,,41,96
114240,note_on,18,0,1,,,,,,,,1,,,71,72
114240,note_on,16,0,4,,,,,,,,10,,,29,84
114297,note_on,297,0,5,,,,,,,,0,,,80,0
114300,note_on,169,0,3,,,,,,,,1,,,69,86
114300,note_on,3,0,5,,,,,,,,0,,,78,93
114328,note_on,88,0,4,,,,,,,,10,,,29,0
114341,note_on,41,0,3,,,,,,,,1,,,69,0
114341,note_on,101,0,1,,,,,,,,1,,,71,0
114350,note_on,110,0,2,,,,,,,,1,,,68,0
114352,note_on,52,0,5,,,,,,,,0,,,78,0
114360,note_on,32,0,4,,,,,,,,10,,,29,84
114360,note_on,19,0,3,,,,,,,,1,,,68,72
114360,note_on,8,0,5,,,,,,,,0,,,77,111
114366,note_on,126,0,6,,,,,,,,0,,,41,0
114408,note_on,48,0,3,,,,,,,,1,,,68,0
114411,note_on,51,0,5,,,,,,,,0,,,77,0
114420,note_on,12,0,3,,,,,,,,1,,,66,96
114420,note_on,9,0,5,,,,,,,,0,,,78,91
114452,note_on,32,0,5,,,,,,,,0,,,78,0
114458,note_on,98,0,4,,,,,,,,10,,,29,0
114471,note_on,51,0,3,,,,,,,,1,,,66,0
114480,note_on,9,0,3,,,,,,,,1,,,65,77
114480,note_on,22,0,4,,,,,,,,10,,,29,84
114480,note_on,28,0,5,,,,,,,,0,,,83,127
114540,note_on,199,0,1,,,,,,,,1,,,80,72
114540,note_on,190,0,2,,,,,,,,1,,,71,102
114577,note_on,37,0,1,,,,,,,,1,,,80,0
114578,note_on,98,0,4,,,,,,,,10,,,29,0
114583,note_on,43,0,2,,,,,,,,1,,,71,0
114591,note_on,111,0,3,,,,,,,,1,,,65,0
114600,note_on,22,0,4,,,,,,,,10,,,29,77
114600,note_on,17,0,2,,,,,,,,1,,,69,74
114600,note_on,234,0,6,,,,,,,,0,,,53,111
114600,note_on,23,0,1,,,,,,,,1,,,78,69
114644,note_on,44,0,2,,,,,,,,1,,,69,0
114646,note_on,46,0,1,,,,,,,,1,,,78,0
114648,note_on,48,0,6,,,,,,,,0,,,53,0
114660,note_on,14,0,1,,,,,,,,1,,,80,66
114660,note_on,16,0,2,,,,,,,,1,,,71,84
114690,note_on,90,0,4,,,,,,,,10,,,29,0
114709,note_on,49,0,2,,,,,,,,1,,,71,0
114716,note_on,56,0,1,,,,,,,,1,,,80,0
114720,note_on,11,0,2,,,,,,,,1,,,68,66
114720,note_on,30,0,4,,,,,,,,10,,,25,74
114720,note_on,72,0,6,,,,,,,,0,,,37,111
114720,note_on,129,0,3,,,,,,,,1,,,61,43
114720,note_on,4,0,1,,,,,,,,1,,,77,79
114770,note_on,290,0,5,,,,,,,,0,,,83,0
114780,note_on,10,0,5,,,,,,,,0,,,81,89
114836,note_on,56,0,5,,,,,,,,0,,,81,0
114840,note_on,4,0,5,,,,,,,,0,,,80,79
114841,note_on,121,0,6,,,,,,,,0,,,37,0
114886,note_on,46,0,5,,,,,,,,0,,,80,0
114900,note_on,14,0,5,,,,,,,,0,,,81,84
114901,control_change,181,0,4,,,,,,,,10,7,109,,
114918,control_change,17,0,4,,,,,,,,10,7,110,,
114945,note_on,45,0,5,,,,,,,,0,,,81,0
114960,note_on,15,0,5,,,,,,,,0,,,86,127
115020,note_on,179,0,6,,,,,,,,0,,,49,81
115050,note_on,30,0,6,,,,,,,,0,,,51,81
115053,note_on,3,0,6,,,,,,,,0,,,49,0
115080,note_on,27,0,6,,,,,,,,0,,,53,111
115081,note_on,1,0,6,,,,,,,,0,,,51,0
115103,note_on,22,0,6,,,,,,,,0,,,53,0
115106,control_change,386,0,1,,,,,,,,1,7,114,,
115110,note_on,7,0,6,,,,,,,,0,,,54,99
115128,control_change,22,0,1,,,,,,,,1,7,113,,
115135,note_on,25,0,6,,,,,,,,0,,,54,0
115140,note_on,5,0,6,,,,,,,,0,,,56,114
115164,note_on,24,0,6,,,,,,,,0,,,56,0
115170,note_on,6,0,6,,,,,,,,0,,,57,81
115173,control_change,45,0,1,,,,,,,,1,7,111,,
115187,note_on,14,0,1,,,,,,,,1,,,77,0
115197,control_change,10,0,1,,,,,,,,1,7,110,,
115200,note_on,480,0,3,,,,,,,,1,,,61,0
115200,note_on,30,0,6,,,,,,,,0,,,59,99
115201,note_on,1,0,6,,,,,,,,0,,,57,0
115201,note_on,481,0,2,,,,,,,,1,,,68,0
115210,control_change,292,0,4,,,,,,,,10,7,109,,
115214,control_change,17,0,1,,,,,,,,1,7,108,,
115219,control_change,9,0,4,,,,,,,,10,7,108,,
115225,note_on,6,0,4,,,,,,,,10,,,25,0
115230,control_change,16,0,1,,,,,,,,1,7,107,,
115239,control_change,14,0,4,,,,,,,,10,7,106,,
115258,control_change,19,0,4,,,,,,,,10,7,105,,
115258,note_on,298,0,5,,,,,,,,0,,,86,0
115260,note_on,2,0,5,,,,,,,,0,,,85,30
115278,control_change,48,0,1,,,,,,,,1,7,105,,
115289,control_change,31,0,4,,,,,,,,10,7,103,,
115312,control_change,34,0,1,,,,,,,,1,7,104,,
115312,note_on,52,0,5,,,,,,,,0,,,85,0
115318,control_change,29,0,4,,,,,,,,10,7,102,,
115320,note_on,8,0,5,,,,,,,,0,,,83,22
115334,control_change,16,0,4,,,,,,,,10,7,100,,
115350,control_change,16,0,4,,,,,,,,10,7,99,,
115357,control_change,45,0,1,,,,,,,,1,7,102,,
115367,control_change,17,0,4,,,,,,,,10,7,97,,
115368,note_on,48,0,5,,,,,,,,0,,,83,0
115380,note_on,12,0,5,,,,,,,,0,,,81,39
115382,control_change,15,0,4,,,,,,,,10,7,96,,
115383,control_change,26,0,1,,,,,,,,1,7,101,,
115403,control_change,21,0,4,,,,,,,,10,7,94,,
115413,control_change,10,0,4,,,,,,,,10,7,93,,
115432,note_on,52,0,5,,,,,,,,0,,,81,0
115440,note_on,8,0,5,,,,,,,,0,,,80,48
115444,note_on,243,0,6,,,,,,,,0,,,59,0
115448,control_change,35,0,4,,,,,,,,10,7,91,,
115491,note_on,51,0,5,,,,,,,,0,,,80,0
115500,note_on,9,0,5,,,,,,,,0,,,78,22
115560,note_on,60,0,5,,,,,,,,0,,,77,43
115561,note_on,1,0,5,,,,,,,,0,,,78,0
115608,note_on,47,0,5,,,,,,,,0,,,77,0
115620,note_on,12,0,5,,,,,,,,0,,,78,39
115674,note_on,54,0,5,,,,,,,,0,,,78,0
115680,note_on,6,0,5,,,,,,,,0,,,74,39
115737,note_on,57,0,5,,,,,,,,0,,,74,0
115740,note_on,3,0,5,,,,,,,,0,,,73,30
115800,note_on,356,0,6,,,,,,,,0,,,56,74
115800,note_on,60,0,5,,,,,,,,0,,,72,48
115813,note_on,13,0,5,,,,,,,,0,,,73,0
115846,note_on,33,0,5,,,,,,,,0,,,72,0
115860,note_on,14,0,5,,,,,,,,0,,,73,26
115907,note_on,107,0,6,,,,,,,,0,,,56,0
115918,note_on,58,0,5,,,,,,,,0,,,73,0
115920,note_on,13,0,6,,,,,,,,0,,,57,79
115920,note_on,2,0,5,,,,,,,,0,,,65,58
115977,note_on,57,0,5,,,,,,,,0,,,65,0
115980,note_on,3,0,5,,,,,,,,0,,,66,39
116014,note_on,94,0,6,,,,,,,,0,,,57,0
116016,control_change,633,0,1,,,,,,,,1,7,103,,
116033,control_change,17,0,1,,,,,,,,1,7,104,,
116036,note_on,56,0,5,,,,,,,,0,,,66,0
116040,note_on,4,0,5,,,,,,,,0,,,60,30
116040,note_on,26,0,6,,,,,,,,0,,,54,77
116047,control_change,14,0,1,,,,,,,,1,7,106,,
116057,control_change,10,0,1,,,,,,,,1,7,107,,
116070,control_change,13,0,1,,,,,,,,1,7,109,,
116100,note_on,60,0,5,,,,,,,,0,,,61,58
116103,note_on,3,0,5,,,,,,,,0,,,60,0
116122,note_on,82,0,6,,,,,,,,0,,,54,0
116146,note_on,43,0,5,,,,,,,,0,,,61,0
116160,set_tempo,116160,1,0,,,,,,681818,,,,,,
116160,note_on,14,0,5,,,,,,,,0,,,68,80
116160,note_on,38,0,6,,,,,,,,0,,,48,51
116190,note_on,30,0,6,,,,,,,,0,,,51,51
116220,note_on,30,0,6,,,,,,,,0,,,54,55
116234,control_change,164,0,1,,,,,,,,1,7,110,,
116323,note_on,103,0,6,,,,,,,,0,,,48,0
116345,note_on,22,0,6,,,,,,,,0,,,51,0
116377,note_on,32,0,6,,,,,,,,0,,,54,0
116400,note_on,23,0,6,,,,,,,,0,,,49,61
116430,note_on,270,0,5,,,,,,,,0,,,66,30
116440,note_on,10,0,5,,,,,,,,0,,,68,0
116460,note_on,20,0,5,,,,,,,,0,,,65,43
116462,note_on,2,0,5,,,,,,,,0,,,66,0
116467,control_change,233,0,1,,,,,,,,1,7,112,,
116497,note_on,97,0,6,,,,,,,,0,,,49,0
116511,note_on,49,0,5,,,,,,,,0,,,65,0
116520,note_on,23,0,6,,,,,,,,0,,,37,64
116520,note_on,9,0,5,,,,,,,,0,,,66,26
116591,note_on,71,0,6,,,,,,,,0,,,37,0
116633,note_on,113,0,5,,,,,,,,0,,,66,0
116640,note_on,0,0,5,,,,,,,,0,,,57,58
116640,note_on,0,0,5,,,,,,,,0,,,61,64
116640,note_on,49,0,6,,,,,,,,0,,,42,51
116640,note_on,7,0,5,,,,,,,,0,,,66,43
116876,note_on,236,0,5,,,,,,,,0,,,66,0
116880,note_on,0,0,5,,,,,,,,0,,,61,0
116880,note_on,4,0,5,,,,,,,,0,,,57,0
116886,control_change,1438,0,4,,,,,,,,10,7,92,,
116888,note_on,248,0,6,,,,,,,,0,,,42,0
116902,control_change,16,0,4,,,,,,,,10,7,94,,
116914,control_change,12,0,4,,,,,,,,10,7,95,,
116940,control_change,26,0,4,,,,,,,,10,7,97,,
116951,control_change,11,0,4,,,,,,,,10,7,98,,
116974,control_change,23,0,4,,,,,,,,10,7,100,,
117120,note_on,1920,0,3,,,,,,,,1,,,54,105
117120,note_on,240,0,5,,,,,,,,0,,,54,75
117120,note_on,0,0,5,,,,,,,,0,,,57,117
117120,set_tempo,960,1,0,,,,,,666667,,,,,,
117120,note_on,653,0,1,,,,,,,,1,,,62,108
117120,note_on,146,0,4,,,,,,,,10,,,38,127
117120,note_on,1919,0,2,,,,,,,,1,,,57,124
117120,note_on,0,0,5,,,,,,,,0,,,62,90
117120,note_on,232,0,6,,,,,,,,0,,,50,93
117135,aftertouch,15,0,6,,,,,,,,0,,32,,
117147,aftertouch,12,0,6,,,,,,,,0,,16,,
117159,aftertouch,12,0,6,,,,,,,,0,,8,,
117171,aftertouch,12,0,6,,,,,,,,0,,4,,
117183,aftertouch,12,0,6,,,,,,,,0,,2,,
117195,aftertouch,12,0,6,,,,,,,,0,,1,,
117243,aftertouch,0,0,5,,,,,,,,0,,64,,
117243,aftertouch,123,0,5,,,,,,,,0,,64,,
117254,aftertouch,11,0,5,,,,,,,,0,,32,,
117255,aftertouch,1,0,5,,,,,,,,0,,32,,
117266,aftertouch,11,0,5,,,,,,,,0,,16,,
117267,aftertouch,1,0,5,,,,,,,,0,,16,,
117279,aftertouch,12,0,5,,,,,,,,0,,8,,
117279,aftertouch,0,0,5,,,,,,,,0,,8,,
117290,aftertouch,11,0,5,,,,,,,,0,,4,,
117290,aftertouch,0,0,5,,,,,,,,0,,4,,
117303,aftertouch,0,0,5,,,,,,,,0,,2,,
117303,aftertouch,13,0,5,,,,,,,,0,,2,,
117314,aftertouch,11,0,5,,,,,,,,0,,1,,
117314,aftertouch,0,0,5,,,,,,,,0,,1,,
117336,note_on,22,0,5,,,,,,,,0,,,62,0
117336,note_on,216,0,2,,,,,,,,1,,,57,0
117336,note_on,0,0,5,,,,,,,,0,,,57,0
117336,note_on,216,0,4,,,,,,,,10,,,38,0
117336,note_on,216,0,3,,,,,,,,1,,,54,0
117336,note_on,216,0,1,,,,,,,,1,,,62,0
117336,note_on,141,0,6,,,,,,,,0,,,50,0
117336,note_on,0,0,5,,,,,,,,0,,,54,0
117360,note_on,24,0,4,,,,,,,,10,,,26,102
117360,note_on,24,0,3,,,,,,,,1,,,57,127
117360,note_on,24,0,2,,,,,,,,1,,,62,124
117360,note_on,24,0,6,,,,,,,,0,,,38,105
117360,note_on,24,0,5,,,,,,,,0,,,62,110
117360,note_on,0,0,5,,,,,,,,0,,,57,117
117360,note_on,24,0,1,,,,,,,,1,,,66,127
117360,note_on,0,0,5,,,,,,,,0,,,66,98
117370,aftertouch,10,0,6,,,,,,,,0,,18,,
117376,aftertouch,6,0,6,,,,,,,,0,,9,,
117388,aftertouch,12,0,6,,,,,,,,0,,4,,
117400,aftertouch,12,0,6,,,,,,,,0,,2,,
117412,aftertouch,12,0,6,,,,,,,,0,,1,,
117468,note_on,108,0,5,,,,,,,,0,,,66,0
117468,note_on,0,0,5,,,,,,,,0,,,62,0
117576,note_on,216,0,2,,,,,,,,1,,,62,0
117576,note_on,164,0,6,,,,,,,,0,,,38,0
117576,note_on,108,0,5,,,,,,,,0,,,57,0
117576,note_on,216,0,4,,,,,,,,10,,,26,0
117576,note_on,216,0,3,,,,,,,,1,,,57,0
117576,note_on,216,0,1,,,,,,,,1,,,66,0
117600,note_on,24,0,6,,,,,,,,0,,,50,108
117600,note_on,0,0,5,,,,,,,,0,,,69,93
117600,note_on,0,0,5,,,,,,,,0,,,62,127
117600,note_on,24,0,1,,,,,,,,1,,,69,127
117600,note_on,24,0,5,,,,,,,,0,,,66,127
117600,note_on,24,0,4,,,,,,,,10,,,38,127
117600,note_on,24,0,2,,,,,,,,1,,,66,127
117600,note_on,24,0,3,,,,,,,,1,,,62,111
117609,aftertouch,9,0,5,,,,,,,,0,,18,,
117610,aftertouch,1,0,5,,,,,,,,0,,18,,
117616,aftertouch,0,0,5,,,,,,,,0,,9,,
117616,aftertouch,6,0,5,,,,,,,,0,,9,,
117627,aftertouch,11,0,5,,,,,,,,0,,4,,
117627,aftertouch,0,0,5,,,,,,,,0,,4,,
117640,aftertouch,13,0,5,,,,,,,,0,,2,,
117640,aftertouch,0,0,5,,,,,,,,0,,2,,
117652,aftertouch,0,0,5,,,,,,,,0,,1,,
117652,aftertouch,12,0,5,,,,,,,,0,,1,,
117664,control_change,64,0,4,,,,,,,,10,7,99,,
117699,control_change,35,0,4,,,,,,,,10,7,97,,
117708,note_on,56,0,5,,,,,,,,0,,,69,0
117816,note_on,216,0,6,,,,,,,,0,,,50,0
117816,note_on,0,0,5,,,,,,,,0,,,66,0
117816,note_on,216,0,1,,,,,,,,1,,,69,0
117816,note_on,117,0,4,,,,,,,,10,,,38,0
117816,note_on,216,0,2,,,,,,,,1,,,66,0
117816,note_on,108,0,5,,,,,,,,0,,,62,0
117816,note_on,216,0,3,,,,,,,,1,,,62,0
117960,note_on,144,0,3,,,,,,,,1,,,57,89
117960,note_on,144,0,1,,,,,,,,1,,,66,127
117960,note_on,144,0,4,,,,,,,,10,,,26,111
117960,note_on,0,0,5,,,,,,,,0,,,62,80
117960,note_on,144,0,5,,,,,,,,0,,,66,80
117960,note_on,144,0,6,,,,,,,,0,,,38,102
117960,note_on,144,0,2,,,,,,,,1,,,62,105
117987,note_on,27,0,1,,,,,,,,1,,,66,0
117990,note_on,30,0,2,,,,,,,,1,,,62,0
117997,note_on,37,0,6,,,,,,,,0,,,38,0
118008,note_on,48,0,5,,,,,,,,0,,,62,0
118008,note_on,0,0,5,,,,,,,,0,,,66,0
118015,note_on,55,0,4,,,,,,,,10,,,26,0
118020,note_on,30,0,2,,,,,,,,1,,,64,114
118020,note_on,12,0,5,,,,,,,,0,,,67,80
118020,note_on,0,0,5,,,,,,,,0,,,64,80
118020,note_on,33,0,1,,,,,,,,1,,,67,111
118032,note_on,72,0,3,,,,,,,,1,,,57,0
118058,note_on,38,0,1,,,,,,,,1,,,67,0
118060,note_on,40,0,2,,,,,,,,1,,,64,0
118068,note_on,48,0,5,,,,,,,,0,,,64,0
118068,note_on,0,0,5,,,,,,,,0,,,67,0
118080,note_on,20,0,2,,,,,,,,1,,,66,127
118080,note_on,83,0,6,,,,,,,,0,,,50,86
118080,note_on,48,0,3,,,,,,,,1,,,62,84
118080,note_on,0,0,5,,,,,,,,0,,,69,110
118080,note_on,12,0,5,,,,,,,,0,,,66,120
118080,note_on,22,0,1,,,,,,,,1,,,69,114
118080,note_on,65,0,4,,,,,,,,10,,,38,77
118112,note_on,32,0,6,,,,,,,,0,,,50,0
118125,note_on,45,0,1,,,,,,,,1,,,69,0
118125,note_on,45,0,4,,,,,,,,10,,,38,0
118137,note_on,57,0,5,,,,,,,,0,,,69,0
118140,note_on,15,0,4,,,,,,,,10,,,40,89
118140,note_on,28,0,6,,,,,,,,0,,,52,89
118148,note_on,68,0,3,,,,,,,,1,,,62,0
118149,note_on,69,0,2,,,,,,,,1,,,66,0
118155,note_on,18,0,5,,,,,,,,0,,,66,0
118169,note_on,29,0,6,,,,,,,,0,,,52,0
118178,note_on,38,0,4,,,,,,,,10,,,40,0
118200,note_on,75,0,1,,,,,,,,1,,,66,96
118200,note_on,22,0,4,,,,,,,,10,,,42,93
118200,note_on,31,0,6,,,,,,,,0,,,54,111
118200,note_on,52,0,3,,,,,,,,1,,,57,72
118200,note_on,45,0,5,,,,,,,,0,,,62,89
118200,note_on,0,0,5,,,,,,,,0,,,66,82
118200,note_on,51,0,2,,,,,,,,1,,,62,124
118226,note_on,26,0,6,,,,,,,,0,,,54,0
118228,note_on,28,0,2,,,,,,,,1,,,62,0
118230,note_on,30,0,1,,,,,,,,1,,,66,0
118237,note_on,37,0,5,,,,,,,,0,,,66,0
118241,note_on,41,0,4,,,,,,,,10,,,42,0
118244,note_on,7,0,5,,,,,,,,0,,,62,0
118260,note_on,19,0,4,,,,,,,,10,,,40,77
118260,note_on,32,0,2,,,,,,,,1,,,64,108
118260,note_on,0,0,5,,,,,,,,0,,,67,96
118260,note_on,34,0,6,,,,,,,,0,,,52,79
118260,note_on,16,0,5,,,,,,,,0,,,64,72
118260,note_on,30,0,1,,,,,,,,1,,,67,84
118271,note_on,71,0,3,,,,,,,,1,,,57,0
118285,note_on,25,0,6,,,,,,,,0,,,52,0
118292,note_on,32,0,1,,,,,,,,1,,,67,0
118294,note_on,34,0,2,,,,,,,,1,,,64,0
118300,note_on,40,0,5,,,,,,,,0,,,67,0
118300,note_on,0,0,5,,,,,,,,0,,,64,0
118304,note_on,44,0,4,,,,,,,,10,,,40,0
118320,note_on,16,0,4,,,,,,,,10,,,38,102
118320,note_on,26,0,2,,,,,,,,1,,,66,111
118320,note_on,35,0,6,,,,,,,,0,,,50,96
118320,note_on,49,0,3,,,,,,,,1,,,62,58
118320,note_on,28,0,1,,,,,,,,1,,,69,96
118320,note_on,20,0,5,,,,,,,,0,,,69,90
118320,note_on,0,0,5,,,,,,,,0,,,66,105
118351,note_on,31,0,6,,,,,,,,0,,,50,0
118364,note_on,44,0,4,,,,,,,,10,,,38,0
118368,note_on,48,0,1,,,,,,,,1,,,69,0
118375,note_on,55,0,5,,,,,,,,0,,,69,0
118380,note_on,29,0,6,,,,,,,,0,,,52,84
118380,note_on,16,0,4,,,,,,,,10,,,40,79
118386,note_on,66,0,3,,,,,,,,1,,,62,0
118392,note_on,72,0,2,,,,,,,,1,,,66,0
118401,note_on,26,0,5,,,,,,,,0,,,66,0
118408,note_on,28,0,6,,,,,,,,0,,,52,0
118423,note_on,43,0,4,,,,,,,,10,,,40,0
118440,note_on,17,0,4,,,,,,,,10,,,42,89
118440,note_on,39,0,5,,,,,,,,0,,,69,89
118440,note_on,72,0,1,,,,,,,,1,,,74,111
118440,note_on,54,0,3,,,,,,,,1,,,57,74
118440,note_on,0,0,5,,,,,,,,0,,,74,98
118440,note_on,32,0,6,,,,,,,,0,,,54,111
118440,note_on,48,0,2,,,,,,,,1,,,69,96
118464,note_on,24,0,6,,,,,,,,0,,,54,0
118479,note_on,39,0,5,,,,,,,,0,,,69,0
118481,note_on,41,0,4,,,,,,,,10,,,42,0
118489,note_on,49,0,1,,,,,,,,1,,,74,0
118500,note_on,21,0,5,,,,,,,,0,,,67,77
118500,note_on,36,0,6,,,,,,,,0,,,52,96
118500,note_on,19,0,4,,,,,,,,10,,,40,89
118503,note_on,63,0,3,,,,,,,,1,,,57,0
118508,note_on,68,0,2,,,,,,,,1,,,69,0
118509,note_on,9,0,5,,,,,,,,0,,,74,0
118526,note_on,26,0,6,,,,,,,,0,,,52,0
118542,note_on,33,0,5,,,,,,,,0,,,67,0
118544,note_on,44,0,4,,,,,,,,10,,,40,0
118560,note_on,16,0,4,,,,,,,,10,,,38,96
118560,note_on,34,0,6,,,,,,,,0,,,50,74
118560,note_on,18,0,5,,,,,,,,0,,,66,102
118560,note_on,57,0,3,,,,,,,,1,,,62,58
118560,note_on,52,0,2,,,,,,,,1,,,66,117
118560,note_on,71,0,1,,,,,,,,1,,,69,84
118560,note_on,0,0,5,,,,,,,,0,,,69,102
118589,note_on,29,0,6,,,,,,,,0,,,50,0
118599,note_on,39,0,4,,,,,,,,10,,,38,0
118609,note_on,49,0,1,,,,,,,,1,,,69,0
118618,note_on,58,0,5,,,,,,,,0,,,69,0
118620,note_on,21,0,4,,,,,,,,10,,,40,84
118620,note_on,31,0,6,,,,,,,,0,,,52,64
118621,note_on,61,0,3,,,,,,,,1,,,62,0
118636,note_on,76,0,2,,,,,,,,1,,,66,0
118639,note_on,21,0,5,,,,,,,,0,,,66,0
118651,note_on,31,0,6,,,,,,,,0,,,52,0
118664,note_on,44,0,4,,,,,,,,10,,,40,0
118680,note_on,0,0,5,,,,,,,,0,,,62,96
118680,note_on,59,0,3,,,,,,,,1,,,57,79
118680,note_on,16,0,4,,,,,,,,10,,,42,105
118680,note_on,41,0,5,,,,,,,,0,,,69,90
118680,note_on,44,0,2,,,,,,,,1,,,62,117
118680,note_on,29,0,6,,,,,,,,0,,,54,77
118680,note_on,71,0,1,,,,,,,,1,,,69,89
118709,note_on,29,0,6,,,,,,,,0,,,54,0
118720,note_on,40,0,4,,,,,,,,10,,,42,0
118720,note_on,40,0,1,,,,,,,,1,,,69,0
118724,note_on,44,0,5,,,,,,,,0,,,69,0
118734,note_on,54,0,2,,,,,,,,1,,,62,0
118740,note_on,31,0,6,,,,,,,,0,,,52,79
118740,note_on,20,0,1,,,,,,,,1,,,67,93
118740,note_on,16,0,5,,,,,,,,0,,,67,90
118740,note_on,20,0,4,,,,,,,,10,,,40,77
118741,note_on,61,0,3,,,,,,,,1,,,57,0
118757,note_on,17,0,5,,,,,,,,0,,,62,0
118764,note_on,24,0,6,,,,,,,,0,,,52,0
118777,note_on,37,0,4,,,,,,,,10,,,40,0
118785,note_on,45,0,1,,,,,,,,1,,,67,0
118790,note_on,33,0,5,,,,,,,,0,,,67,0
118800,note_on,0,0,5,,,,,,,,0,,,66,117
118800,note_on,10,0,5,,,,,,,,0,,,62,99
118800,note_on,59,0,3,,,,,,,,1,,,57,74
118800,note_on,66,0,2,,,,,,,,1,,,62,126
118800,note_on,15,0,1,,,,,,,,1,,,66,66
118800,note_on,36,0,6,,,,,,,,0,,,50,99
118800,note_on,23,0,4,,,,,,,,10,,,38,102
118837,note_on,37,0,6,,,,,,,,0,,,50,0
118856,note_on,56,0,1,,,,,,,,1,,,66,0
118858,note_on,58,0,3,,,,,,,,1,,,57,0
118863,note_on,63,0,5,,,,,,,,0,,,66,0
118872,note_on,72,0,2,,,,,,,,1,,,62,0
118891,note_on,91,0,4,,,,,,,,10,,,38,0
118920,note_on,64,0,1,,,,,,,,1,,,64,81
118920,note_on,83,0,6,,,,,,,,0,,,49,102
118920,note_on,48,0,2,,,,,,,,1,,,66,89
118920,note_on,62,0,3,,,,,,,,1,,,57,66
118920,note_on,57,0,5,,,,,,,,0,,,64,96
118920,note_on,29,0,4,,,,,,,,10,,,37,114
118959,note_on,39,0,5,,,,,,,,0,,,64,0
118960,note_on,40,0,1,,,,,,,,1,,,64,0
118977,note_on,57,0,6,,,,,,,,0,,,49,0
118980,note_on,20,0,1,,,,,,,,1,,,62,79
118980,note_on,21,0,5,,,,,,,,0,,,62,96
118982,note_on,62,0,3,,,,,,,,1,,,57,0
119010,note_on,90,0,4,,,,,,,,10,,,37,0
119016,note_on,36,0,5,,,,,,,,0,,,62,0
119025,note_on,9,0,5,,,,,,,,0,,,62,0
119027,note_on,47,0,1,,,,,,,,1,,,62,0
119040,note_on,13,0,1,,,,,,,,1,,,67,96
119040,note_on,63,0,6,,,,,,,,0,,,47,102
119040,note_on,15,0,5,,,,,,,,0,,,67,127
119040,note_on,58,0,3,,,,,,,,1,,,62,55
119040,note_on,30,0,4,,,,,,,,10,,,35,89
119078,note_on,38,0,1,,,,,,,,1,,,67,0
119085,note_on,45,0,5,,,,,,,,0,,,67,0
119092,note_on,52,0,6,,,,,,,,0,,,47,0
119100,note_on,15,0,5,,,,,,,,0,,,69,90
119100,note_on,22,0,1,,,,,,,,1,,,69,77
119115,note_on,75,0,3,,,,,,,,1,,,62,0
119136,note_on,96,0,4,,,,,,,,10,,,35,0
119138,note_on,38,0,1,,,,,,,,1,,,69,0
119145,note_on,45,0,5,,,,,,,,0,,,69,0
119154,control_change,18,0,4,,,,,,,,10,7,91,,
119160,note_on,240,0,2,,,,,,,,1,,,64,79
119160,note_on,68,0,6,,,,,,,,0,,,49,124
119160,note_on,45,0,3,,,,,,,,1,,,61,77
119160,note_on,6,0,4,,,,,,,,10,,,37,114
119160,note_on,22,0,1,,,,,,,,1,,,71,89
119160,note_on,15,0,5,,,,,,,,0,,,71,79
119164,note_on,4,0,2,,,,,,,,1,,,66,0
119165,control_change,5,0,4,,,,,,,,10,7,90,,
119183,control_change,18,0,4,,,,,,,,10,7,88,,
119197,note_on,37,0,1,,,,,,,,1,,,71,0
119199,note_on,39,0,5,,,,,,,,0,,,71,0
119217,note_on,57,0,6,,,,,,,,0,,,49,0
119220,note_on,21,0,5,,,,,,,,0,,,67,82
119220,note_on,23,0,1,,,,,,,,1,,,67,79
119239,note_on,79,0,3,,,,,,,,1,,,61,0
119252,note_on,32,0,1,,,,,,,,1,,,67,0
119254,note_on,71,0,4,,,,,,,,10,,,37,0
119259,note_on,39,0,5,,,,,,,,0,,,67,0
119280,note_on,63,0,6,,,,,,,,0,,,50,89
119280,note_on,21,0,5,,,,,,,,0,,,66,96
119280,note_on,41,0,3,,,,,,,,1,,,57,64
119280,note_on,28,0,1,,,,,,,,1,,,66,72
119280,note_on,26,0,4,,,,,,,,10,,,38,111
119317,note_on,37,0,1,,,,,,,,1,,,66,0
119326,note_on,46,0,5,,,,,,,,0,,,66,0
119340,note_on,23,0,1,,,,,,,,1,,,67,84
119340,note_on,14,0,5,,,,,,,,0,,,67,110
119345,note_on,65,0,3,,,,,,,,1,,,57,0
119348,note_on,68,0,6,,,,,,,,0,,,50,0
119353,control_change,73,0,4,,,,,,,,10,7,89,,
119380,note_on,40,0,1,,,,,,,,1,,,67,0
119381,note_on,28,0,4,,,,,,,,10,,,38,0
119390,note_on,50,0,5,,,,,,,,0,,,67,0
119398,note_on,234,0,2,,,,,,,,1,,,64,0
119400,note_on,55,0,3,,,,,,,,1,,,57,51
119400,note_on,19,0,4,,,,,,,,10,,,26,114
119400,note_on,2,0,2,,,,,,,,1,,,62,79
119400,note_on,20,0,1,,,,,,,,1,,,69,79
119400,note_on,10,0,5,,,,,,,,0,,,69,75
119400,note_on,52,0,6,,,,,,,,0,,,38,99
119403,aftertouch,3,0,6,,,,,,,,0,,3,,
119414,aftertouch,11,0,6,,,,,,,,0,,1,,
119434,note_on,34,0,1,,,,,,,,1,,,69,0
119435,control_change,35,0,4,,,,,,,,10,7,88,,
119444,note_on,44,0,5,,,,,,,,0,,,69,0
119460,note_on,16,0,5,,,,,,,,0,,,66,73
119460,note_on,26,0,1,,,,,,,,1,,,66,96
119464,note_on,50,0,6,,,,,,,,0,,,38,0
119472,control_change,37,0,4,,,,,,,,10,7,87,,
119474,note_on,74,0,3,,,,,,,,1,,,57,0
119497,note_on,37,0,1,,,,,,,,1,,,66,0
119499,note_on,39,0,5,,,,,,,,0,,,66,0
119500,note_on,28,0,4,,,,,,,,10,,,26,0
119508,control_change,8,0,4,,,,,,,,10,7,85,,
119520,note_on,56,0,6,,,,,,,,0,,,45,77
119520,note_on,21,0,5,,,,,,,,0,,,64,66
119520,note_on,23,0,1,,,,,,,,1,,,64,117
119520,note_on,46,0,3,,,,,,,,1,,,57,79
119520,note_on,12,0,4,,,,,,,,10,,,33,111
119520,note_on,120,0,2,,,,,,,,1,,,62,0
119520,note_on,0,0,2,,,,,,,,1,,,61,93
119523,aftertouch,0,0,5,,,,,,,,0,,3,,
119523,aftertouch,3,0,5,,,,,,,,0,,3,,
119525,control_change,5,0,4,,,,,,,,10,7,84,,
119534,aftertouch,11,0,5,,,,,,,,0,,1,,
119534,aftertouch,0,0,5,,,,,,,,0,,1,,
119543,control_change,18,0,4,,,,,,,,10,7,82,,
119550,note_on,30,0,1,,,,,,,,1,,,64,0
119550,note_on,16,0,5,,,,,,,,0,,,64,0
119565,control_change,22,0,4,,,,,,,,10,7,81,,
119580,note_on,30,0,1,,,,,,,,1,,,69,102
119580,note_on,30,0,5,,,,,,,,0,,,69,82
119603,control_change,38,0,4,,,,,,,,10,7,79,,
119621,control_change,18,0,4,,,,,,,,10,7,78,,
119622,note_on,42,0,5,,,,,,,,0,,,69,0
119623,note_on,43,0,1,,,,,,,,1,,,69,0
119640,note_on,18,0,5,,,,,,,,0,,,71,93
119640,note_on,17,0,1,,,,,,,,1,,,71,79
119670,control_change,30,0,1,,,,,,,,1,7,111,,
119678,note_on,8,0,1,,,,,,,,1,,,71,0
119682,note_on,42,0,5,,,,,,,,0,,,71,0
119700,note_on,18,0,5,,,,,,,,0,,,73,88
119700,note_on,22,0,1,,,,,,,,1,,,73,93
119712,control_change,12,0,1,,,,,,,,1,7,110,,
119736,note_on,115,0,4,,,,,,,,10,,,33,0
119736,note_on,216,0,6,,,,,,,,0,,,45,0
119736,note_on,216,0,2,,,,,,,,1,,,61,0
119736,note_on,216,0,3,,,,,,,,1,,,57,0
119739,note_on,27,0,1,,,,,,,,1,,,73,0
119740,note_on,40,0,5,,,,,,,,0,,,73,0
119760,note_on,21,0,1,,,,,,,,1,,,74,84
119760,note_on,20,0,5,,,,,,,,0,,,74,127
119771,control_change,35,0,4,,,,,,,,10,7,76,,
119796,control_change,25,0,4,,,,,,,,10,7,75,,
119799,note_on,39,0,1,,,,,,,,1,,,74,0
119805,note_on,45,0,5,,,,,,,,0,,,74,0
119820,note_on,21,0,1,,,,,,,,1,,,76,102
119820,note_on,15,0,5,,,,,,,,0,,,76,96
119820,control_change,0,0,1,,,,,,,,1,7,108,,
119851,note_on,31,0,1,,,,,,,,1,,,76,0
119860,note_on,40,0,5,,,,,,,,0,,,76,0
119869,control_change,73,0,4,,,,,,,,10,7,73,,
119880,note_on,20,0,5,,,,,,,,0,,,78,113
119880,note_on,29,0,1,,,,,,,,1,,,78,102
119890,control_change,21,0,4,,,,,,,,10,7,72,,
119903,control_change,13,0,4,,,,,,,,10,7,70,,
119917,note_on,37,0,1,,,,,,,,1,,,78,0
119924,note_on,44,0,5,,,,,,,,0,,,78,0
119940,note_on,16,0,5,,,,,,,,0,,,79,127
119940,note_on,23,0,1,,,,,,,,1,,,79,105
119952,control_change,12,0,1,,,,,,,,1,7,109,,
119975,note_on,23,0,1,,,,,,,,1,,,79,0
119982,note_on,42,0,5,,,,,,,,0,,,79,0
120000,note_on,18,0,5,,,,,,,,0,,,81,102
120000,note_on,97,0,4,,,,,,,,10,,,30,123
120000,note_on,264,0,6,,,,,,,,0,,,42,111
120000,note_on,264,0,2,,,,,,,,1,,,73,93
120000,note_on,25,0,1,,,,,,,,1,,,81,96
120000,note_on,264,0,3,,,,,,,,1,,,66,39
120006,aftertouch,6,0,5,,,,,,,,0,,15,,
120007,aftertouch,1,0,5,,,,,,,,0,,15,,
120007,aftertouch,7,0,6,,,,,,,,0,,15,,
120018,aftertouch,11,0,5,,,,,,,,0,,7,,
120018,aftertouch,0,0,5,,,,,,,,0,,7,,
120019,aftertouch,12,0,6,,,,,,,,0,,7,,
120026,note_on,26,0,3,,,,,,,,1,,,66,0
120029,note_on,29,0,2,,,,,,,,1,,,73,0
120031,aftertouch,12,0,6,,,,,,,,0,,3,,
120031,aftertouch,13,0,5,,,,,,,,0,,3,,
120031,aftertouch,0,0,5,,,,,,,,0,,3,,
120035,note_on,35,0,1,,,,,,,,1,,,81,0
120037,note_on,37,0,4,,,,,,,,10,,,30,0
120038,note_on,7,0,6,,,,,,,,0,,,42,0
120048,note_on,17,0,5,,,,,,,,0,,,81,0
120060,note_on,22,0,6,,,,,,,,0,,,43,93
120060,note_on,31,0,2,,,,,,,,1,,,73,111
120060,note_on,12,0,5,,,,,,,,0,,,69,66
120060,note_on,25,0,1,,,,,,,,1,,,81,124
120060,note_on,34,0,3,,,,,,,,1,,,66,72
120060,note_on,23,0,4,,,,,,,,10,,,31,127
120066,aftertouch,0,0,5,,,,,,,,0,,9,,
120066,aftertouch,6,0,5,,,,,,,,0,,9,,
120067,aftertouch,7,0,6,,,,,,,,0,,9,,
120080,aftertouch,13,0,6,,,,,,,,0,,4,,
120080,aftertouch,0,0,5,,,,,,,,0,,4,,
120080,aftertouch,14,0,5,,,,,,,,0,,4,,
120086,control_change,26,0,4,,,,,,,,10,7,71,,
120087,note_on,27,0,2,,,,,,,,1,,,73,0
120092,aftertouch,0,0,5,,,,,,,,0,,2,,
120092,aftertouch,12,0,6,,,,,,,,0,,2,,
120092,aftertouch,12,0,5,,,,,,,,0,,2,,
120093,note_on,33,0,3,,,,,,,,1,,,66,0
120093,note_on,1,0,6,,,,,,,,0,,,43,0
120094,note_on,34,0,1,,,,,,,,1,,,81,0
120096,control_change,2,0,1,,,,,,,,1,7,110,,
120099,note_on,7,0,5,,,,,,,,0,,,69,0
120100,note_on,14,0,4,,,,,,,,10,,,31,0
120105,control_change,5,0,4,,,,,,,,10,7,73,,
120117,aftertouch,30,0,2,,,,,,,,1,,38,,
120120,note_on,24,0,1,,,,,,,,1,,,81,123
120120,note_on,3,0,2,,,,,,,,1,,,73,127
120120,note_on,21,0,5,,,,,,,,0,,,81,88
120120,note_on,27,0,3,,,,,,,,1,,,66,96
120120,note_on,27,0,6,,,,,,,,0,,,45,99
120120,note_on,15,0,4,,,,,,,,10,,,33,117
120126,aftertouch,6,0,2,,,,,,,,1,,0,,
120128,aftertouch,2,0,2,,,,,,,,1,,19,,
120128,aftertouch,8,0,4,,,,,,,,10,,19,,
120128,aftertouch,8,0,3,,,,,,,,1,,19,,
120129,control_change,1,0,4,,,,,,,,10,7,74,,
120136,aftertouch,8,0,2,,,,,,,,1,,0,,
120138,aftertouch,9,0,4,,,,,,,,10,,9,,
120138,aftertouch,2,0,2,,,,,,,,1,,9,,
120138,aftertouch,10,0,3,,,,,,,,1,,9,,
120143,aftertouch,5,0,2,,,,,,,,1,,0,,
120146,control_change,8,0,4,,,,,,,,10,7,76,,
120149,note_on,11,0,3,,,,,,,,1,,,66,0
120150,note_on,7,0,2,,,,,,,,1,,,73,0
120154,note_on,34,0,1,,,,,,,,1,,,81,0
120157,note_on,37,0,6,,,,,,,,0,,,45,0
120160,control_change,0,0,4,,,,,,,,10,7,77,,
120160,note_on,14,0,4,,,,,,,,10,,,33,0
120161,control_change,7,0,1,,,,,,,,1,7,112,,
120164,note_on,44,0,5,,,,,,,,0,,,81,0
120180,note_on,23,0,6,,,,,,,,0,,,47,108
120180,note_on,16,0,5,,,,,,,,0,,,69,93
120180,note_on,19,0,1,,,,,,,,1,,,81,96
120180,note_on,30,0,2,,,,,,,,1,,,73,127
120180,note_on,20,0,4,,,,,,,,10,,,35,126
120180,note_on,31,0,3,,,,,,,,1,,,66,117
120196,control_change,16,0,4,,,,,,,,10,7,79,,
120210,note_on,30,0,2,,,,,,,,1,,,73,0
120210,note_on,30,0,3,,,,,,,,1,,,66,0
120212,note_on,32,0,6,,,,,,,,0,,,47,0
120212,note_on,32,0,1,,,,,,,,1,,,81,0
120219,control_change,23,0,4,,,,,,,,10,7,80,,
120223,note_on,4,0,4,,,,,,,,10,,,35,0
120224,note_on,44,0,5,,,,,,,,0,,,69,0
120240,note_on,17,0,4,,,,,,,,10,,,37,127
120240,note_on,16,0,5,,,,,,,,0,,,81,127
120240,note_on,28,0,6,,,,,,,,0,,,49,102
120240,note_on,30,0,3,,,,,,,,1,,,66,125
120240,note_on,28,0,1,,,,,,,,1,,,81,124
120240,note_on,30,0,2,,,,,,,,1,,,73,127
120244,control_change,4,0,4,,,,,,,,10,7,82,,
120250,aftertouch,10,0,5,,,,,,,,0,,19,,
120250,aftertouch,0,0,5,,,,,,,,0,,19,,
120251,aftertouch,11,0,6,,,,,,,,0,,19,,
120262,aftertouch,12,0,5,,,,,,,,0,,9,,
120263,aftertouch,12,0,6,,,,,,,,0,,9,,
120263,aftertouch,1,0,5,,,,,,,,0,,9,,
120271,note_on,31,0,2,,,,,,,,1,,,73,0
120273,note_on,33,0,3,,,,,,,,1,,,66,0
120273,note_on,33,0,1,,,,,,,,1,,,81,0
120275,control_change,31,0,4,,,,,,,,10,7,83,,
120276,note_on,13,0,6,,,,,,,,0,,,49,0
120277,aftertouch,1,0,6,,,,,,,,0,,1,,
120277,aftertouch,0,0,5,,,,,,,,0,,1,,
120277,aftertouch,14,0,5,,,,,,,,0,,1,,
120285,note_on,10,0,4,,,,,,,,10,,,37,0
120291,note_on,14,0,5,,,,,,,,0,,,81,0
120300,note_on,27,0,3,,,,,,,,1,,,66,127
120300,note_on,23,0,6,,,,,,,,0,,,50,84
120300,note_on,29,0,2,,,,,,,,1,,,73,127
120300,note_on,15,0,4,,,,,,,,10,,,38,84
120300,note_on,27,0,1,,,,,,,,1,,,81,91
120300,note_on,9,0,5,,,,,,,,0,,,69,127
120316,control_change,16,0,4,,,,,,,,10,7,85,,
120322,control_change,22,0,1,,,,,,,,1,7,113,,
120329,note_on,29,0,3,,,,,,,,1,,,66,0
120330,note_on,8,0,1,,,,,,,,1,,,81,0
120331,note_on,31,0,2,,,,,,,,1,,,73,0
120335,note_on,35,0,6,,,,,,,,0,,,50,0
120335,note_on,19,0,4,,,,,,,,10,,,38,0
120337,control_change,2,0,4,,,,,,,,10,7,86,,
120350,note_on,50,0,5,,,,,,,,0,,,69,0
120360,note_on,29,0,2,,,,,,,,1,,,73,127
120360,note_on,25,0,6,,,,,,,,0,,,52,89
120360,control_change,0,0,4,,,,,,,,10,7,88,,
120360,note_on,10,0,5,,,,,,,,0,,,81,127
120360,note_on,30,0,1,,,,,,,,1,,,81,127
120360,note_on,31,0,3,,,,,,,,1,,,66,117
120360,note_on,23,0,4,,,,,,,,10,,,40,102
120361,aftertouch,1,0,3,,,,,,,,1,,31,,
120365,aftertouch,4,0,3,,,,,,,,1,,0,,
120366,aftertouch,6,0,4,,,,,,,,10,,6,,
120366,aftertouch,1,0,3,,,,,,,,1,,6,,
120366,aftertouch,6,0,2,,,,,,,,1,,6,,
120367,aftertouch,1,0,3,,,,,,,,1,,21,,
120367,aftertouch,1,0,4,,,,,,,,10,,21,,
120371,control_change,0,0,4,,,,,,,,10,7,89,,
120371,control_change,4,0,4,,,,,,,,10,7,94,,
120375,aftertouch,8,0,3,,,,,,,,1,,0,,
120375,aftertouch,9,0,2,,,,,,,,1,,0,,
120377,aftertouch,2,0,3,,,,,,,,1,,10,,
120377,aftertouch,0,0,3,,,,,,,,1,,3,,
120377,aftertouch,6,0,4,,,,,,,,10,,3,,
120377,aftertouch,2,0,2,,,,,,,,1,,3,,
120378,aftertouch,1,0,4,,,,,,,,10,,10,,
120386,aftertouch,0,0,2,,,,,,,,1,,0,,
120386,note_on,9,0,2,,,,,,,,1,,,73,0
120386,aftertouch,9,0,3,,,,,,,,1,,0,,
120388,aftertouch,0,0,4,,,,,,,,10,,5,,
120388,aftertouch,0,0,3,,,,,,,,1,,1,,
120388,aftertouch,2,0,2,,,,,,,,1,,1,,
120388,aftertouch,2,0,3,,,,,,,,1,,5,,
120388,aftertouch,10,0,4,,,,,,,,10,,1,,
120389,aftertouch,1,0,3,,,,,,,,1,,0,,
120391,note_on,2,0,3,,,,,,,,1,,,66,0
120391,note_on,31,0,6,,,,,,,,0,,,52,0
120392,note_on,32,0,1,,,,,,,,1,,,81,0
120396,aftertouch,8,0,2,,,,,,,,1,,0,,
120401,note_on,13,0,4,,,,,,,,10,,,40,0
120410,note_on,50,0,5,,,,,,,,0,,,81,0
120413,control_change,12,0,4,,,,,,,,10,7,91,,
120420,note_on,7,0,4,,,,,,,,10,,,42,120
120420,note_on,28,0,1,,,,,,,,1,,,81,124
120420,note_on,29,0,6,,,,,,,,0,,,54,96
120420,note_on,24,0,2,,,,,,,,1,,,73,127
120420,note_on,29,0,3,,,,,,,,1,,,66,127
120420,note_on,10,0,5,,,,,,,,0,,,69,127
120432,control_change,12,0,4,,,,,,,,10,7,92,,
120447,note_on,27,0,6,,,,,,,,0,,,54,0
120449,note_on,29,0,2,,,,,,,,1,,,73,0
120452,note_on,32,0,3,,,,,,,,1,,,66,0
120453,note_on,33,0,1,,,,,,,,1,,,81,0
120465,note_on,45,0,5,,,,,,,,0,,,69,0
120475,note_on,43,0,4,,,,,,,,10,,,42,0
120475,control_change,0,0,4,,,,,,,,10,7,93,,
120480,note_on,27,0,1,,,,,,,,1,,,81,86
120480,note_on,15,0,5,,,,,,,,0,,,81,127
120480,note_on,5,0,4,,,,,,,,10,,,35,93
120480,note_on,31,0,2,,,,,,,,1,,,71,127
120480,note_on,33,0,6,,,,,,,,0,,,47,111
120480,note_on,28,0,3,,,,,,,,1,,,63,127
120488,control_change,8,0,4,,,,,,,,10,7,91,,
120490,aftertouch,10,0,5,,,,,,,,0,,9,,
120490,aftertouch,0,0,5,,,,,,,,0,,9,,
120491,aftertouch,11,0,6,,,,,,,,0,,9,,
120492,aftertouch,2,0,5,,,,,,,,0,,6,,
120492,aftertouch,0,0,5,,,,,,,,0,,6,,
120493,aftertouch,2,0,6,,,,,,,,0,,6,,
120496,control_change,8,0,4,,,,,,,,10,7,90,,
120502,aftertouch,10,0,5,,,,,,,,0,,4,,
120503,aftertouch,10,0,6,,,,,,,,0,,4,,
120503,aftertouch,1,0,5,,,,,,,,0,,4,,
120505,control_change,9,0,4,,,,,,,,10,7,88,,
120514,aftertouch,11,0,5,,,,,,,,0,,2,,
120514,aftertouch,0,0,5,,,,,,,,0,,2,,
120515,aftertouch,12,0,6,,,,,,,,0,,2,,
120516,aftertouch,0,0,5,,,,,,,,0,,1,,
120516,aftertouch,2,0,5,,,,,,,,0,,1,,
120517,control_change,12,0,4,,,,,,,,10,7,87,,
120517,aftertouch,2,0,6,,,,,,,,0,,1,,
120527,aftertouch,0,0,5,,,,,,,,0,,1,,
120527,aftertouch,10,0,6,,,,,,,,0,,1,,
120527,aftertouch,11,0,5,,,,,,,,0,,1,,
120533,control_change,16,0,4,,,,,,,,10,7,85,,
120535,note_on,8,0,5,,,,,,,,0,,,81,0
120540,note_on,5,0,5,,,,,,,,0,,,78,93
120540,note_on,13,0,6,,,,,,,,0,,,51,127
120541,note_on,1,0,6,,,,,,,,0,,,47,0
120541,control_change,8,0,4,,,,,,,,10,7,84,,
120560,control_change,19,0,4,,,,,,,,10,7,82,,
120582,control_change,22,0,4,,,,,,,,10,7,81,,
120588,note_on,108,0,1,,,,,,,,1,,,81,0
120593,note_on,52,0,6,,,,,,,,0,,,51,0
120593,note_on,53,0,5,,,,,,,,0,,,78,0
120600,note_on,7,0,5,,,,,,,,0,,,75,88
120600,note_on,7,0,6,,,,,,,,0,,,54,102
120612,control_change,24,0,1,,,,,,,,1,7,111,,
120626,control_change,14,0,1,,,,,,,,1,7,110,,
120638,note_on,38,0,6,,,,,,,,0,,,54,0
120639,control_change,13,0,1,,,,,,,,1,7,108,,
120645,note_on,45,0,5,,,,,,,,0,,,75,0
120660,note_on,15,0,5,,,,,,,,0,,,71,85
120660,note_on,22,0,6,,,,,,,,0,,,59,72
120661,control_change,22,0,1,,,,,,,,1,7,107,,
120672,note_on,12,0,6,,,,,,,,0,,,59,0
120689,note_on,29,0,5,,,,,,,,0,,,71,0
120696,note_on,216,0,2,,,,,,,,1,,,71,0
120696,note_on,114,0,4,,,,,,,,10,,,35,0
120696,note_on,216,0,3,,,,,,,,1,,,63,0
120720,note_on,48,0,6,,,,,,,,0,,,59,124
120720,note_on,31,0,5,,,,,,,,0,,,71,117
120730,control_change,69,0,1,,,,,,,,1,7,105,,
120732,control_change,36,0,4,,,,,,,,10,7,79,,
120753,control_change,23,0,1,,,,,,,,1,7,104,,
120757,control_change,25,0,4,,,,,,,,10,7,78,,
120774,note_on,54,0,6,,,,,,,,0,,,59,0
120779,note_on,59,0,5,,,,,,,,0,,,71,0
120780,note_on,1,0,5,,,,,,,,0,,,75,96
120780,note_on,6,0,6,,,,,,,,0,,,54,77
120782,control_change,25,0,4,,,,,,,,10,7,76,,
120806,note_on,26,0,6,,,,,,,,0,,,54,0
120813,control_change,31,0,4,,,,,,,,10,7,75,,
120825,note_on,45,0,5,,,,,,,,0,,,75,0
120840,note_on,34,0,6,,,,,,,,0,,,51,84
120840,note_on,15,0,5,,,,,,,,0,,,78,127
120849,control_change,36,0,4,,,,,,,,10,7,73,,
120861,control_change,12,0,4,,,,,,,,10,7,72,,
120873,note_on,33,0,6,,,,,,,,0,,,51,0
120880,control_change,19,0,4,,,,,,,,10,7,70,,
120893,note_on,53,0,5,,,,,,,,0,,,78,0
120900,note_on,7,0,5,,,,,,,,0,,,81,127
120900,note_on,27,0,6,,,,,,,,0,,,47,79
120905,control_change,25,0,4,,,,,,,,10,7,69,,
120928,note_on,28,0,6,,,,,,,,0,,,47,0
120945,note_on,45,0,5,,,,,,,,0,,,81,0
120960,note_on,32,0,6,,,,,,,,0,,,40,79
120960,note_on,264,0,3,,,,,,,,1,,,64,102
120960,note_on,264,0,2,,,,,,,,1,,,71,127
120960,note_on,55,0,4,,,,,,,,10,,,28,111
120960,note_on,15,0,5,,,,,,,,0,,,79,106
120960,note_on,207,0,1,,,,,,,,1,,,79,93
120985,note_on,25,0,3,,,,,,,,1,,,64,0
120988,note_on,28,0,1,,,,,,,,1,,,79,0
120989,note_on,29,0,2,,,,,,,,1,,,71,0
121004,note_on,44,0,6,,,,,,,,0,,,40,0
121008,note_on,48,0,4,,,,,,,,10,,,28,0
121009,note_on,49,0,5,,,,,,,,0,,,79,0
121020,note_on,31,0,2,,,,,,,,1,,,71,84
121020,note_on,35,0,3,,,,,,,,1,,,64,102
121020,note_on,11,0,5,,,,,,,,0,,,67,63
121020,note_on,12,0,4,,,,,,,,10,,,30,127
121020,note_on,32,0,1,,,,,,,,1,,,79,81
121020,note_on,16,0,6,,,,,,,,0,,,42,120
121037,control_change,17,0,4,,,,,,,,10,7,70,,
121046,note_on,26,0,3,,,,,,,,1,,,64,0
121047,note_on,27,0,2,,,,,,,,1,,,71,0
121049,note_on,29,0,1,,,,,,,,1,,,79,0
121050,control_change,13,0,4,,,,,,,,10,7,71,,
121053,note_on,33,0,6,,,,,,,,0,,,42,0
121058,note_on,8,0,4,,,,,,,,10,,,30,0
121063,control_change,14,0,1,,,,,,,,1,7,106,,
121064,note_on,44,0,5,,,,,,,,0,,,67,0
121080,note_on,17,0,1,,,,,,,,1,,,79,111
121080,note_on,34,0,3,,,,,,,,1,,,64,105
121080,note_on,27,0,6,,,,,,,,0,,,43,93
121080,note_on,33,0,2,,,,,,,,1,,,71,99
121080,note_on,16,0,5,,,,,,,,0,,,79,96
121080,note_on,22,0,4,,,,,,,,10,,,31,102
121084,control_change,4,0,4,,,,,,,,10,7,73,,
121101,control_change,17,0,4,,,,,,,,10,7,74,,
121102,control_change,22,0,1,,,,,,,,1,7,107,,
121108,note_on,28,0,2,,,,,,,,1,,,71,0
121108,note_on,28,0,3,,,,,,,,1,,,64,0
121110,note_on,8,0,1,,,,,,,,1,,,79,0
121113,note_on,33,0,6,,,,,,,,0,,,43,0
121119,control_change,18,0,4,,,,,,,,10,7,76,,
121123,note_on,4,0,4,,,,,,,,10,,,31,0
121123,control_change,13,0,1,,,,,,,,1,7,109,,
121130,control_change,7,0,4,,,,,,,,10,7,77,,
121130,note_on,50,0,5,,,,,,,,0,,,79,0
121140,note_on,10,0,4,,,,,,,,10,,,33,127
121140,note_on,10,0,5,,,,,,,,0,,,67,79
121140,note_on,32,0,2,,,,,,,,1,,,71,117
121140,note_on,32,0,3,,,,,,,,1,,,64,117
121140,note_on,27,0,6,,,,,,,,0,,,45,93
121140,note_on,17,0,1,,,,,,,,1,,,79,93
121148,control_change,8,0,4,,,,,,,,10,7,79,,
121158,control_change,10,0,4,,,,,,,,10,7,80,,
121166,note_on,26,0,3,,,,,,,,1,,,64,0
121167,note_on,27,0,2,,,,,,,,1,,,71,0
121170,note_on,30,0,1,,,,,,,,1,,,79,0
121172,note_on,32,0,6,,,,,,,,0,,,45,0
121177,control_change,19,0,4,,,,,,,,10,7,82,,
121181,note_on,4,0,4,,,,,,,,10,,,33,0
121182,note_on,42,0,5,,,,,,,,0,,,67,0
121192,control_change,11,0,4,,,,,,,,10,7,83,,
121200,note_on,8,0,4,,,,,,,,10,,,35,124
121200,note_on,30,0,1,,,,,,,,1,,,79,84
121200,note_on,18,0,5,,,,,,,,0,,,79,102
121200,note_on,28,0,6,,,,,,,,0,,,47,84
121200,note_on,33,0,2,,,,,,,,1,,,71,125
121200,note_on,34,0,3,,,,,,,,1,,,64,96
121215,control_change,15,0,4,,,,,,,,10,7,85,,
121226,note_on,26,0,3,,,,,,,,1,,,64,0
121228,note_on,28,0,1,,,,,,,,1,,,79,0
121228,note_on,28,0,2,,,,,,,,1,,,71,0
121231,note_on,31,0,6,,,,,,,,0,,,47,0
121234,control_change,19,0,4,,,,,,,,10,7,86,,
121241,note_on,7,0,4,,,,,,,,10,,,35,0
121243,aftertouch,2,0,4,,,,,,,,10,,6,,
121248,note_on,48,0,5,,,,,,,,0,,,79,0
121251,control_change,8,0,4,,,,,,,,10,7,88,,
121252,aftertouch,1,0,4,,,,,,,,10,,0,,
121252,control_change,24,0,1,,,,,,,,1,7,110,,
121254,aftertouch,2,0,4,,,,,,,,10,,3,,
121259,control_change,5,0,4,,,,,,,,10,7,89,,
121260,note_on,29,0,6,,,,,,,,0,,,49,93
121260,note_on,12,0,5,,,,,,,,0,,,67,102
121260,note_on,1,0,4,,,,,,,,10,,,37,124
121260,note_on,34,0,3,,,,,,,,1,,,64,117
121260,note_on,8,0,1,,,,,,,,1,,,79,108
121260,note_on,32,0,2,,,,,,,,1,,,71,84
121262,aftertouch,2,0,4,,,,,,,,10,,0,,
121265,aftertouch,3,0,4,,,,,,,,10,,1,,
121271,control_change,6,0,4,,,,,,,,10,7,91,,
121273,aftertouch,2,0,4,,,,,,,,10,,0,,
121281,control_change,8,0,4,,,,,,,,10,7,92,,
121284,note_on,24,0,1,,,,,,,,1,,,79,0
121286,note_on,26,0,3,,,,,,,,1,,,64,0
121288,note_on,28,0,2,,,,,,,,1,,,71,0
121299,note_on,39,0,6,,,,,,,,0,,,49,0
121308,note_on,48,0,5,,,,,,,,0,,,67,0
121310,note_on,29,0,4,,,,,,,,10,,,37,0
121312,control_change,2,0,4,,,,,,,,10,7,94,,
121313,control_change,29,0,1,,,,,,,,1,7,112,,
121320,note_on,34,0,3,,,,,,,,1,,,64,111
121320,note_on,12,0,5,,,,,,,,0,,,79,96
121320,note_on,7,0,1,,,,,,,,1,,,79,84
121320,note_on,21,0,6,,,,,,,,0,,,50,81
121320,note_on,32,0,2,,,,,,,,1,,,71,124
121320,note_on,8,0,4,,,,,,,,10,,,38,102
121323,control_change,3,0,4,,,,,,,,10,7,100,,
121330,control_change,7,0,4,,,,,,,,10,7,95,,
121334,control_change,4,0,4,,,,,,,,10,7,101,,
121345,note_on,25,0,1,,,,,,,,1,,,79,0
121346,note_on,26,0,3,,,,,,,,1,,,64,0
121347,note_on,27,0,2,,,,,,,,1,,,71,0
121356,note_on,22,0,4,,,,,,,,10,,,38,0
121362,control_change,17,0,1,,,,,,,,1,7,113,,
121370,note_on,50,0,5,,,,,,,,0,,,79,0
121374,note_on,54,0,6,,,,,,,,0,,,50,0
121380,note_on,33,0,2,,,,,,,,1,,,71,127
121380,note_on,10,0,5,,,,,,,,0,,,79,20
121380,note_on,34,0,3,,,,,,,,1,,,64,89
121380,note_on,24,0,4,,,,,,,,10,,,40,124
121380,note_on,18,0,1,,,,,,,,1,,,79,108
121380,note_on,6,0,6,,,,,,,,0,,,52,84
121386,note_on,6,0,5,,,,,,,,0,,,79,0
121392,control_change,12,0,4,,,,,,,,10,7,97,,
121402,note_on,22,0,3,,,,,,,,1,,,64,0
121407,note_on,27,0,1,,,,,,,,1,,,79,0
121410,note_on,30,0,6,,,,,,,,0,,,52,0
121415,control_change,23,0,4,,,,,,,,10,7,100,,
121417,note_on,37,0,2,,,,,,,,1,,,71,0
121426,note_on,11,0,4,,,,,,,,10,,,40,0
121428,control_change,2,0,4,,,,,,,,10,7,98,,
121433,control_change,5,0,4,,,,,,,,10,7,99,,
121440,note_on,7,0,4,,,,,,,,10,,,33,96
121440,note_on,38,0,3,,,,,,,,1,,,64,127
121440,note_on,30,0,6,,,,,,,,0,,,45,117
121440,note_on,23,0,2,,,,,,,,1,,,73,127
121440,note_on,54,0,5,,,,,,,,0,,,79,127
121440,note_on,33,0,1,,,,,,,,1,,,79,127
121453,control_change,13,0,4,,,,,,,,10,7,97,,
121462,control_change,9,0,4,,,,,,,,10,7,96,,
121470,control_change,8,0,4,,,,,,,,10,7,94,,
121479,control_change,9,0,4,,,,,,,,10,7,93,,
121487,control_change,8,0,4,,,,,,,,10,7,91,,
121493,note_on,53,0,6,,,,,,,,0,,,45,0
121494,note_on,54,0,1,,,,,,,,1,,,79,0
121495,note_on,55,0,5,,,,,,,,0,,,79,0
121496,control_change,9,0,4,,,,,,,,10,7,88,,
121500,note_on,7,0,6,,,,,,,,0,,,49,123
121500,note_on,5,0,5,,,,,,,,0,,,76,117
121504,control_change,8,0,4,,,,,,,,10,7,87,,
121518,control_change,14,0,4,,,,,,,,10,7,85,,
121527,control_change,9,0,4,,,,,,,,10,7,84,,
121531,note_on,31,0,6,,,,,,,,0,,,49,0
121535,control_change,8,0,4,,,,,,,,10,7,82,,
121544,control_change,9,0,4,,,,,,,,10,7,81,,
121545,note_on,45,0,5,,,,,,,,0,,,76,0
121560,note_on,29,0,6,,,,,,,,0,,,52,84
121560,note_on,15,0,5,,,,,,,,0,,,73,102
121596,note_on,36,0,6,,,,,,,,0,,,52,0
121609,note_on,49,0,5,,,,,,,,0,,,73,0
121620,note_on,11,0,5,,,,,,,,0,,,69,75
121620,note_on,24,0,6,,,,,,,,0,,,57,96
121650,note_on,30,0,5,,,,,,,,0,,,69,0
121652,note_on,32,0,6,,,,,,,,0,,,57,0
121653,control_change,159,0,1,,,,,,,,1,7,111,,
121656,note_on,112,0,4,,,,,,,,10,,,33,0
121656,note_on,216,0,3,,,,,,,,1,,,64,0
121656,note_on,216,0,2,,,,,,,,1,,,73,0
121680,note_on,28,0,6,,,,,,,,0,,,57,96
121680,note_on,30,0,5,,,,,,,,0,,,69,96
121682,control_change,26,0,4,,,,,,,,10,7,79,,
121686,control_change,33,0,1,,,,,,,,1,7,110,,
121693,control_change,11,0,4,,,,,,,,10,7,78,,
121711,control_change,18,0,4,,,,,,,,10,7,76,,
121713,note_on,33,0,6,,,,,,,,0,,,57,0
121717,control_change,31,0,1,,,,,,,,1,7,108,,
121736,note_on,56,0,5,,,,,,,,0,,,69,0
121740,note_on,4,0,5,,,,,,,,0,,,73,96
121740,note_on,27,0,6,,,,,,,,0,,,52,74
121750,control_change,39,0,4,,,,,,,,10,7,75,,
121767,note_on,27,0,6,,,,,,,,0,,,52,0
121768,control_change,51,0,1,,,,,,,,1,7,107,,
121789,note_on,49,0,5,,,,,,,,0,,,73,0
121796,control_change,46,0,4,,,,,,,,10,7,73,,
121800,note_on,11,0,5,,,,,,,,0,,,76,90
121800,note_on,33,0,6,,,,,,,,0,,,49,66
121807,control_change,11,0,4,,,,,,,,10,7,72,,
121828,note_on,28,0,6,,,,,,,,0,,,49,0
121845,control_change,77,0,1,,,,,,,,1,7,105,,
121853,note_on,53,0,5,,,,,,,,0,,,76,0
121860,note_on,32,0,6,,,,,,,,0,,,45,93
121860,note_on,7,0,5,,,,,,,,0,,,79,110
121889,note_on,29,0,6,,,,,,,,0,,,45,0
121913,note_on,53,0,5,,,,,,,,0,,,79,0
121920,note_on,75,0,1,,,,,,,,1,,,78,126
121920,note_on,264,0,3,,,,,,,,1,,,69,86
121920,note_on,113,0,4,,,,,,,,10,,,26,84
121920,note_on,7,0,5,,,,,,,,0,,,78,88
121920,note_on,31,0,6,,,,,,,,0,,,38,99
121920,note_on,264,0,2,,,,,,,,1,,,74,120
121947,note_on,27,0,3,,,,,,,,1,,,69,0
121950,note_on,30,0,1,,,,,,,,1,,,78,0
121960,note_on,40,0,2,,,,,,,,1,,,74,0
121960,note_on,40,0,6,,,,,,,,0,,,38,0
121969,note_on,49,0,4,,,,,,,,10,,,26,0
121972,note_on,52,0,5,,,,,,,,0,,,78,0
121980,note_on,8,0,5,,,,,,,,0,,,66,63
121980,note_on,33,0,3,,,,,,,,1,,,69,96
121980,note_on,11,0,4,,,,,,,,10,,,28,117
121980,note_on,20,0,6,,,,,,,,0,,,40,84
121980,note_on,30,0,1,,,,,,,,1,,,78,72
121980,note_on,20,0,2,,,,,,,,1,,,74,117
122005,note_on,25,0,3,,,,,,,,1,,,69,0
122012,note_on,32,0,1,,,,,,,,1,,,78,0
122015,note_on,35,0,2,,,,,,,,1,,,74,0
122021,control_change,41,0,4,,,,,,,,10,7,73,,
122022,note_on,42,0,6,,,,,,,,0,,,40,0
122026,note_on,46,0,5,,,,,,,,0,,,66,0
122029,control_change,0,0,4,,,,,,,,10,7,74,,
122029,note_on,8,0,4,,,,,,,,10,,,28,0
122040,note_on,25,0,2,,,,,,,,1,,,74,124
122040,note_on,28,0,1,,,,,,,,1,,,78,84
122040,note_on,35,0,3,,,,,,,,1,,,69,127
122040,note_on,18,0,6,,,,,,,,0,,,42,126
122040,note_on,14,0,5,,,,,,,,0,,,78,85
122040,note_on,11,0,4,,,,,,,,10,,,30,124
122055,control_change,15,0,1,,,,,,,,1,7,106,,
122066,note_on,26,0,3,,,,,,,,1,,,69,0
122069,note_on,29,0,6,,,,,,,,0,,,42,0
122073,note_on,18,0,1,,,,,,,,1,,,78,0
122076,note_on,36,0,2,,,,,,,,1,,,74,0
122087,control_change,14,0,1,,,,,,,,1,7,107,,
122093,note_on,53,0,4,,,,,,,,10,,,30,0
122094,control_change,1,0,4,,,,,,,,10,7,76,,
122094,note_on,54,0,5,,,,,,,,0,,,78,0
122100,note_on,13,0,1,,,,,,,,1,,,78,96
122100,note_on,6,0,5,,,,,,,,0,,,66,70
122100,note_on,6,0,4,,,,,,,,10,,,31,96
122100,note_on,24,0,2,,,,,,,,1,,,74,89
122100,note_on,31,0,6,,,,,,,,0,,,43,99
122100,note_on,34,0,3,,,,,,,,1,,,69,117
122118,control_change,18,0,4,,,,,,,,10,7,77,,
122124,note_on,24,0,3,,,,,,,,1,,,69,0
122132,note_on,32,0,1,,,,,,,,1,,,78,0
122134,note_on,34,0,2,,,,,,,,1,,,74,0
122135,note_on,35,0,6,,,,,,,,0,,,43,0
122136,control_change,4,0,1,,,,,,,,1,7,109,,
122138,note_on,38,0,5,,,,,,,,0,,,66,0
122139,note_on,21,0,4,,,,,,,,10,,,31,0
122149,control_change,10,0,4,,,,,,,,10,7,79,,
122158,control_change,9,0,4,,,,,,,,10,7,80,,
122160,note_on,2,0,4,,,,,,,,10,,,33,123
122160,note_on,25,0,6,,,,,,,,0,,,45,93
122160,note_on,24,0,1,,,,,,,,1,,,78,89
122160,note_on,22,0,5,,,,,,,,0,,,78,73
122160,note_on,36,0,3,,,,,,,,1,,,69,126
122160,note_on,26,0,2,,,,,,,,1,,,74,120
122180,control_change,20,0,4,,,,,,,,10,7,82,,
122184,note_on,24,0,3,,,,,,,,1,,,69,0
122187,note_on,27,0,1,,,,,,,,1,,,78,0
122191,note_on,31,0,2,,,,,,,,1,,,74,0
122192,note_on,32,0,6,,,,,,,,0,,,45,0
122194,control_change,14,0,4,,,,,,,,10,7,83,,
122215,control_change,21,0,4,,,,,,,,10,7,85,,
122217,note_on,2,0,4,,,,,,,,10,,,33,0
122217,note_on,57,0,5,,,,,,,,0,,,78,0
122220,note_on,3,0,5,,,,,,,,0,,,66,88
122220,note_on,28,0,6,,,,,,,,0,,,47,84
122220,note_on,29,0,2,,,,,,,,1,,,74,127
122220,note_on,33,0,1,,,,,,,,1,,,78,123
122220,note_on,36,0,3,,,,,,,,1,,,69,126
122220,note_on,3,0,4,,,,,,,,10,,,35,124
122224,control_change,4,0,4,,,,,,,,10,7,86,,
122233,control_change,9,0,4,,,,,,,,10,7,88,,
122243,note_on,23,0,3,,,,,,,,1,,,69,0
122245,control_change,12,0,4,,,,,,,,10,7,89,,
122246,note_on,26,0,1,,,,,,,,1,,,78,0
122251,note_on,31,0,2,,,,,,,,1,,,74,0
122256,note_on,36,0,6,,,,,,,,0,,,47,0
122259,note_on,39,0,5,,,,,,,,0,,,66,0
122262,control_change,16,0,1,,,,,,,,1,7,110,,
122266,control_change,21,0,4,,,,,,,,10,7,91,,
122270,note_on,4,0,4,,,,,,,,10,,,35,0
122280,note_on,24,0,6,,,,,,,,0,,,49,114
122280,note_on,21,0,5,,,,,,,,0,,,78,120
122280,note_on,37,0,3,,,,,,,,1,,,69,117
122280,note_on,18,0,1,,,,,,,,1,,,78,120
122280,note_on,29,0,2,,,,,,,,1,,,74,86
122280,note_on,10,0,4,,,,,,,,10,,,37,66
122303,note_on,23,0,3,,,,,,,,1,,,69,0
122307,note_on,27,0,1,,,,,,,,1,,,78,0
122312,note_on,32,0,2,,,,,,,,1,,,74,0
122322,note_on,42,0,6,,,,,,,,0,,,49,0
122322,note_on,42,0,5,,,,,,,,0,,,78,0
122340,note_on,37,0,3,,,,,,,,1,,,69,127
122340,note_on,18,0,6,,,,,,,,0,,,50,102
122340,note_on,18,0,5,,,,,,,,0,,,78,124
122340,note_on,33,0,1,,,,,,,,1,,,78,99
122340,note_on,28,0,2,,,,,,,,1,,,74,93
122340,note_on,60,0,4,,,,,,,,10,,,38,117
122342,note_on,2,0,4,,,,,,,,10,,,37,0
122352,aftertouch,0,0,5,,,,,,,,0,,1,,
122352,aftertouch,12,0,5,,,,,,,,0,,1,,
122352,aftertouch,12,0,6,,,,,,,,0,,1,,
122366,note_on,26,0,3,,,,,,,,1,,,69,0
122367,note_on,27,0,1,,,,,,,,1,,,78,0
122367,note_on,15,0,6,,,,,,,,0,,,50,0
122371,note_on,31,0,2,,,,,,,,1,,,74,0
122378,control_change,36,0,4,,,,,,,,10,7,90,,
122382,note_on,30,0,5,,,,,,,,0,,,78,0
122388,note_on,10,0,4,,,,,,,,10,,,38,0
122393,control_change,5,0,4,,,,,,,,10,7,88,,
122400,note_on,7,0,4,,,,,,,,10,,,35,105
122400,note_on,18,0,5,,,,,,,,0,,,79,106
122400,note_on,33,0,1,,,,,,,,1,,,79,123
122400,note_on,33,0,6,,,,,,,,0,,,47,108
122400,note_on,29,0,2,,,,,,,,1,,,74,127
122400,note_on,34,0,3,,,,,,,,1,,,71,114
122436,note_on,36,0,1,,,,,,,,1,,,79,0
122452,note_on,52,0,5,,,,,,,,0,,,79,0
122459,note_on,59,0,6,,,,,,,,0,,,47,0
122460,note_on,8,0,5,,,,,,,,0,,,81,127
122460,note_on,24,0,1,,,,,,,,1,,,81,105
122488,control_change,88,0,4,,,,,,,,10,7,89,,
122494,note_on,34,0,1,,,,,,,,1,,,81,0
122496,control_change,8,0,4,,,,,,,,10,7,91,,
122500,note_on,4,0,4,,,,,,,,10,,,35,0
122505,control_change,5,0,4,,,,,,,,10,7,94,,
122509,note_on,49,0,5,,,,,,,,0,,,81,0
122513,control_change,8,0,4,,,,,,,,10,7,95,,
122520,note_on,26,0,1,,,,,,,,1,,,83,89
122520,note_on,11,0,5,,,,,,,,0,,,83,93
122520,note_on,61,0,6,,,,,,,,0,,,59,127
122520,note_on,7,0,4,,,,,,,,10,,,47,89
122522,control_change,2,0,4,,,,,,,,10,7,97,,
122537,control_change,17,0,1,,,,,,,,1,7,112,,
122547,control_change,25,0,4,,,,,,,,10,7,98,,
122553,note_on,16,0,1,,,,,,,,1,,,83,0
122560,note_on,40,0,5,,,,,,,,0,,,83,0
122580,note_on,20,0,5,,,,,,,,0,,,79,93
122580,note_on,27,0,1,,,,,,,,1,,,79,111
122607,note_on,27,0,1,,,,,,,,1,,,79,0
122612,note_on,32,0,5,,,,,,,,0,,,79,0
122616,note_on,216,0,2,,,,,,,,1,,,74,0
122616,note_on,216,0,3,,,,,,,,1,,,71,0
122640,note_on,28,0,5,,,,,,,,0,,,78,113
122640,note_on,33,0,1,,,,,,,,1,,,78,88
122640,note_on,24,0,3,,,,,,,,1,,,66,120
122640,note_on,24,0,2,,,,,,,,1,,,73,127
122662,note_on,142,0,6,,,,,,,,0,,,59,0
122670,note_on,30,0,1,,,,,,,,1,,,78,0
122684,note_on,44,0,5,,,,,,,,0,,,78,0
122700,note_on,30,0,1,,,,,,,,1,,,79,96
122700,note_on,16,0,5,,,,,,,,0,,,79,113
122738,note_on,38,0,1,,,,,,,,1,,,79,0
122739,note_on,39,0,5,,,,,,,,0,,,79,0
122746,note_on,199,0,4,,,,,,,,10,,,47,0
122760,note_on,22,0,1,,,,,,,,1,,,81,89
122760,note_on,14,0,4,,,,,,,,10,,,45,99
122760,note_on,98,0,6,,,,,,,,0,,,57,127
122760,note_on,21,0,5,,,,,,,,0,,,81,88
122762,control_change,2,0,4,,,,,,,,10,7,97,,
122773,control_change,11,0,4,,,,,,,,10,7,96,,
122784,control_change,11,0,4,,,,,,,,10,7,94,,
122792,note_on,32,0,1,,,,,,,,1,,,81,0
122808,note_on,48,0,5,,,,,,,,0,,,81,0
122816,note_on,56,0,6,,,,,,,,0,,,57,0
122820,note_on,28,0,1,,,,,,,,1,,,78,74
122820,note_on,12,0,5,,,,,,,,0,,,78,120
122843,note_on,59,0,4,,,,,,,,10,,,45,0
122855,note_on,35,0,1,,,,,,,,1,,,78,0
122856,note_on,216,0,2,,,,,,,,1,,,73,0
122856,note_on,216,0,3,,,,,,,,1,,,66,0
122864,note_on,44,0,5,,,,,,,,0,,,78,0
122880,note_on,25,0,1,,,,,,,,1,,,76,108
122880,note_on,24,0,2,,,,,,,,1,,,71,117
122880,note_on,37,0,4,,,,,,,,10,,,43,105
122880,note_on,64,0,6,,,,,,,,0,,,43,127
122880,note_on,16,0,5,,,,,,,,0,,,76,127
122880,note_on,24,0,3,,,,,,,,1,,,67,105
122912,control_change,0,0,1,,,,,,,,1,7,111,,
122912,note_on,32,0,1,,,,,,,,1,,,76,0
122925,note_on,45,0,5,,,,,,,,0,,,76,0
122926,note_on,46,0,6,,,,,,,,0,,,43,0
122940,note_on,15,0,5,,,,,,,,0,,,78,88
122940,note_on,28,0,1,,,,,,,,1,,,78,86
122946,note_on,66,0,4,,,,,,,,10,,,43,0
122974,note_on,34,0,1,,,,,,,,1,,,78,0
122978,control_change,32,0,4,,,,,,,,10,7,93,,
122984,note_on,44,0,5,,,,,,,,0,,,78,0
123000,note_on,16,0,5,,,,,,,,0,,,79,113
123000,note_on,26,0,1,,,,,,,,1,,,79,89
123000,note_on,22,0,4,,,,,,,,10,,,31,102
123000,note_on,74,0,6,,,,,,,,0,,,55,127
123029,note_on,29,0,1,,,,,,,,1,,,79,0
123042,note_on,42,0,5,,,,,,,,0,,,79,0
123060,note_on,31,0,1,,,,,,,,1,,,76,89
123060,note_on,18,0,5,,,,,,,,0,,,76,93
123089,note_on,29,0,1,,,,,,,,1,,,76,0
123093,control_change,4,0,1,,,,,,,,1,7,110,,
123096,note_on,216,0,3,,,,,,,,1,,,67,0
123096,note_on,216,0,2,,,,,,,,1,,,71,0
123097,note_on,37,0,5,,,,,,,,0,,,76,0
123120,note_on,23,0,5,,,,,,,,0,,,74,90
123120,note_on,27,0,1,,,,,,,,1,,,74,111
123120,note_on,24,0,3,,,,,,,,1,,,62,96
123120,note_on,24,0,2,,,,,,,,1,,,69,108
123152,note_on,32,0,1,,,,,,,,1,,,74,0
123165,note_on,45,0,5,,,,,,,,0,,,74,0
123171,note_on,171,0,6,,,,,,,,0,,,55,0
123180,note_on,15,0,5,,,,,,,,0,,,76,102
123180,note_on,28,0,1,,,,,,,,1,,,76,77
123213,note_on,33,0,1,,,,,,,,1,,,76,0
123214,control_change,214,0,4,,,,,,,,10,7,91,,
123224,note_on,44,0,5,,,,,,,,0,,,76,0
123225,note_on,11,0,4,,,,,,,,10,,,31,0
123232,control_change,7,0,4,,,,,,,,10,7,90,,
123240,note_on,27,0,1,,,,,,,,1,,,78,102
123240,note_on,8,0,4,,,,,,,,10,,,30,84
123240,note_on,16,0,5,,,,,,,,0,,,78,110
123240,note_on,69,0,6,,,,,,,,0,,,54,125
123269,note_on,29,0,1,,,,,,,,1,,,78,0
123277,note_on,37,0,5,,,,,,,,0,,,78,0
123297,note_on,57,0,6,,,,,,,,0,,,54,0
123300,note_on,31,0,1,,,,,,,,1,,,74,117
123300,note_on,23,0,5,,,,,,,,0,,,74,93
123324,note_on,84,0,4,,,,,,,,10,,,30,0
123328,note_on,28,0,1,,,,,,,,1,,,74,0
123336,note_on,216,0,2,,,,,,,,1,,,69,0
123336,note_on,216,0,3,,,,,,,,1,,,62,0
123344,note_on,44,0,5,,,,,,,,0,,,74,0
123360,note_on,16,0,5,,,,,,,,0,,,73,98
123360,note_on,24,0,3,,,,,,,,1,,,64,102
123360,note_on,32,0,1,,,,,,,,1,,,73,77
123360,note_on,24,0,2,,,,,,,,1,,,67,117
123360,note_on,63,0,6,,,,,,,,0,,,40,124
123360,note_on,36,0,4,,,,,,,,10,,,28,96
123393,note_on,33,0,1,,,,,,,,1,,,73,0
123400,note_on,40,0,5,,,,,,,,0,,,73,0
123406,note_on,46,0,6,,,,,,,,0,,,40,0
123420,note_on,20,0,5,,,,,,,,0,,,74,96
123420,note_on,27,0,1,,,,,,,,1,,,74,81
123451,note_on,91,0,4,,,,,,,,10,,,28,0
123455,note_on,35,0,1,,,,,,,,1,,,74,0
123460,note_on,40,0,5,,,,,,,,0,,,74,0
123465,control_change,14,0,4,,,,,,,,10,7,91,,
123480,note_on,25,0,1,,,,,,,,1,,,76,84
123480,note_on,20,0,5,,,,,,,,0,,,76,82
123480,note_on,15,0,4,,,,,,,,10,,,40,77
123480,note_on,74,0,6,,,,,,,,0,,,52,117
123512,note_on,32,0,1,,,,,,,,1,,,76,0
123513,note_on,33,0,5,,,,,,,,0,,,76,0
123540,note_on,28,0,1,,,,,,,,1,,,73,81
123540,note_on,27,0,5,,,,,,,,0,,,73,73
123569,note_on,29,0,1,,,,,,,,1,,,73,0
123576,note_on,36,0,5,,,,,,,,0,,,73,0
123576,note_on,216,0,3,,,,,,,,1,,,64,0
123576,note_on,216,0,2,,,,,,,,1,,,67,0
123600,note_on,24,0,2,,,,,,,,1,,,64,84
123600,note_on,24,0,3,,,,,,,,1,,,61,102
123600,note_on,24,0,5,,,,,,,,0,,,67,106
123600,note_on,31,0,1,,,,,,,,1,,,67,89
123630,note_on,30,0,1,,,,,,,,1,,,67,0
123642,note_on,42,0,5,,,,,,,,0,,,67,0
123660,note_on,18,0,5,,,,,,,,0,,,69,102
123660,note_on,30,0,1,,,,,,,,1,,,69,79
123665,note_on,65,0,3,,,,,,,,1,,,61,0
123667,note_on,67,0,2,,,,,,,,1,,,64,0
123669,note_on,189,0,6,,,,,,,,0,,,52,0
123695,note_on,35,0,1,,,,,,,,1,,,69,0
123704,note_on,44,0,5,,,,,,,,0,,,69,0
123716,note_on,236,0,4,,,,,,,,10,,,40,0
123720,note_on,51,0,6,,,,,,,,0,,,50,111
123720,note_on,25,0,1,,,,,,,,1,,,71,102
123720,note_on,55,0,3,,,,,,,,1,,,62,84
123720,note_on,16,0,5,,,,,,,,0,,,71,96
123720,note_on,53,0,2,,,,,,,,1,,,66,81
123720,note_on,4,0,4,,,,,,,,10,,,38,84
123756,note_on,36,0,5,,,,,,,,0,,,71,0
123757,note_on,37,0,1,,,,,,,,1,,,71,0
123780,note_on,23,0,1,,,,,,,,1,,,67,89
123780,note_on,24,0,5,,,,,,,,0,,,67,98
123781,note_on,61,0,6,,,,,,,,0,,,50,0
123784,control_change,4,0,1,,,,,,,,1,7,108,,
123786,note_on,66,0,3,,,,,,,,1,,,62,0
123796,note_on,76,0,2,,,,,,,,1,,,66,0
123803,note_on,83,0,4,,,,,,,,10,,,38,0
123808,note_on,24,0,1,,,,,,,,1,,,67,0
123819,note_on,39,0,5,,,,,,,,0,,,67,0
123825,control_change,22,0,4,,,,,,,,10,7,90,,
123840,note_on,44,0,2,,,,,,,,1,,,67,66
123840,note_on,21,0,5,,,,,,,,0,,,64,127
123840,note_on,32,0,1,,,,,,,,1,,,64,69
123840,note_on,15,0,4,,,,,,,,10,,,37,89
123840,note_on,59,0,6,,,,,,,,0,,,49,123
123840,control_change,0,0,4,,,,,,,,10,7,88,,
123840,note_on,54,0,3,,,,,,,,1,,,64,72
123870,note_on,30,0,1,,,,,,,,1,,,64,0
123878,note_on,38,0,5,,,,,,,,0,,,64,0
123900,note_on,22,0,5,,,,,,,,0,,,66,96
123900,note_on,60,0,6,,,,,,,,0,,,49,0
123900,note_on,30,0,1,,,,,,,,1,,,66,96
123904,note_on,64,0,3,,,,,,,,1,,,64,0
123926,note_on,86,0,2,,,,,,,,1,,,67,0
123934,note_on,34,0,1,,,,,,,,1,,,66,0
123946,note_on,46,0,5,,,,,,,,0,,,66,0
123960,note_on,26,0,1,,,,,,,,1,,,67,117
123960,note_on,34,0,2,,,,,,,,1,,,64,96
123960,note_on,60,0,6,,,,,,,,0,,,52,93
123960,note_on,14,0,5,,,,,,,,0,,,67,102
123960,note_on,56,0,3,,,,,,,,1,,,61,84
123988,note_on,28,0,2,,,,,,,,1,,,64,0
123993,note_on,33,0,3,,,,,,,,1,,,61,0
123996,note_on,36,0,1,,,,,,,,1,,,67,0
124009,note_on,49,0,5,,,,,,,,0,,,67,0
124020,note_on,11,0,5,,,,,,,,0,,,64,90
124020,note_on,27,0,3,,,,,,,,1,,,62,79
124020,note_on,24,0,1,,,,,,,,1,,,64,84
124020,note_on,32,0,2,,,,,,,,1,,,66,91
124033,note_on,73,0,6,,,,,,,,0,,,52,0
124046,note_on,26,0,1,,,,,,,,1,,,64,0
124055,note_on,35,0,3,,,,,,,,1,,,62,0
124058,note_on,38,0,5,,,,,,,,0,,,64,0
124060,note_on,40,0,2,,,,,,,,1,,,66,0
124080,note_on,22,0,5,,,,,,,,0,,,61,110
124080,note_on,25,0,3,,,,,,,,1,,,64,96
124080,note_on,34,0,1,,,,,,,,1,,,61,117
124080,note_on,47,0,6,,,,,,,,0,,,57,84
124080,note_on,20,0,2,,,,,,,,1,,,67,99
124111,note_on,31,0,1,,,,,,,,1,,,61,0
124119,note_on,39,0,5,,,,,,,,0,,,61,0
124129,note_on,49,0,3,,,,,,,,1,,,64,0
124140,note_on,21,0,5,,,,,,,,0,,,62,96
124140,note_on,29,0,1,,,,,,,,1,,,62,84
124149,note_on,69,0,6,,,,,,,,0,,,57,0
124159,note_on,79,0,2,,,,,,,,1,,,67,0
124179,note_on,39,0,1,,,,,,,,1,,,62,0
124184,note_on,44,0,5,,,,,,,,0,,,62,0
124200,note_on,41,0,2,,,,,,,,1,,,64,84
124200,note_on,16,0,5,,,,,,,,0,,,64,85
124200,note_on,21,0,1,,,,,,,,1,,,64,77
124200,note_on,51,0,6,,,,,,,,0,,,52,89
124200,note_on,71,0,3,,,,,,,,1,,,61,77
124231,note_on,31,0,2,,,,,,,,1,,,64,0
124233,note_on,33,0,3,,,,,,,,1,,,61,0
124235,note_on,35,0,1,,,,,,,,1,,,64,0
124238,note_on,38,0,6,,,,,,,,0,,,52,0
124239,note_on,39,0,5,,,,,,,,0,,,64,0
124260,note_on,25,0,1,,,,,,,,1,,,61,102
124260,note_on,29,0,2,,,,,,,,1,,,66,89
124260,note_on,21,0,5,,,,,,,,0,,,61,110
124260,note_on,27,0,3,,,,,,,,1,,,62,84
124289,note_on,29,0,1,,,,,,,,1,,,61,0
124293,note_on,33,0,5,,,,,,,,0,,,61,0
124297,note_on,37,0,3,,,,,,,,1,,,62,0
124303,note_on,43,0,2,,,,,,,,1,,,66,0
124320,note_on,31,0,1,,,,,,,,1,,,57,89
124320,note_on,17,0,2,,,,,,,,1,,,67,89
124320,note_on,27,0,5,,,,,,,,0,,,57,110
124320,note_on,82,0,6,,,,,,,,0,,,49,127
124320,note_on,23,0,3,,,,,,,,1,,,64,69
124368,note_on,528,0,4,,,,,,,,10,,,37,0
124374,note_on,54,0,6,,,,,,,,0,,,49,0
124380,note_on,6,0,6,,,,,,,,0,,,50,74
124380,note_on,12,0,4,,,,,,,,10,,,38,80
124397,note_on,77,0,1,,,,,,,,1,,,57,0
124399,note_on,19,0,6,,,,,,,,0,,,50,0
124428,note_on,48,0,4,,,,,,,,10,,,38,0
124440,note_on,12,0,4,,,,,,,,10,,,40,80
124440,note_on,41,0,6,,,,,,,,0,,,52,91
124463,note_on,143,0,5,,,,,,,,0,,,57,0
124463,note_on,143,0,2,,,,,,,,1,,,67,0
124465,note_on,145,0,3,,,,,,,,1,,,64,0
124469,note_on,29,0,6,,,,,,,,0,,,52,0
124488,note_on,48,0,4,,,,,,,,10,,,40,0
124500,note_on,12,0,4,,,,,,,,10,,,37,80
124500,note_on,31,0,6,,,,,,,,0,,,49,127
124512,note_on,12,0,6,,,,,,,,0,,,49,0
124548,note_on,48,0,4,,,,,,,,10,,,37,0
124560,note_on,12,0,4,,,,,,,,10,,,33,80
124560,note_on,48,0,6,,,,,,,,0,,,45,89
124599,note_on,39,0,6,,,,,,,,0,,,45,0
124620,note_on,21,0,6,,,,,,,,0,,,47,86
124655,note_on,35,0,6,,,,,,,,0,,,47,0
124656,note_on,96,0,4,,,,,,,,10,,,33,0
124680,note_on,217,0,2,,,,,,,,1,,,76,84
124680,note_on,24,0,4,,,,,,,,10,,,37,80
124680,note_on,215,0,3,,,,,,,,1,,,69,74
124680,note_on,283,0,1,,,,,,,,1,,,76,84
124680,note_on,217,0,5,,,,,,,,0,,,76,110
124680,note_on,25,0,6,,,,,,,,0,,,49,117
124709,note_on,29,0,6,,,,,,,,0,,,49,0
124740,note_on,60,0,5,,,,,,,,0,,,78,88
124740,note_on,31,0,6,,,,,,,,0,,,45,72
124740,note_on,60,0,1,,,,,,,,1,,,78,66
124744,note_on,4,0,5,,,,,,,,0,,,76,0
124750,note_on,10,0,1,,,,,,,,1,,,76,0
124753,note_on,73,0,3,,,,,,,,1,,,69,0
124753,note_on,73,0,2,,,,,,,,1,,,76,0
124757,note_on,13,0,5,,,,,,,,0,,,78,0
124759,note_on,9,0,1,,,,,,,,1,,,78,0
124770,note_on,13,0,5,,,,,,,,0,,,79,96
124770,note_on,11,0,1,,,,,,,,1,,,79,81
124771,note_on,31,0,6,,,,,,,,0,,,45,0
124776,note_on,96,0,4,,,,,,,,10,,,37,0
124790,note_on,20,0,1,,,,,,,,1,,,79,0
124800,note_on,10,0,1,,,,,,,,1,,,78,86
124800,note_on,47,0,3,,,,,,,,1,,,69,66
124800,note_on,47,0,2,,,,,,,,1,,,74,111
124800,note_on,24,0,4,,,,,,,,10,,,38,84
124800,note_on,29,0,6,,,,,,,,0,,,50,77
124800,note_on,30,0,5,,,,,,,,0,,,78,93
124802,note_on,2,0,5,,,,,,,,0,,,79,0
124850,control_change,50,0,4,,,,,,,,10,7,82,,
124864,note_on,64,0,6,,,,,,,,0,,,50,0
124868,note_on,68,0,2,,,,,,,,1,,,74,0
124877,note_on,77,0,1,,,,,,,,1,,,78,0
124884,note_on,84,0,3,,,,,,,,1,,,69,0
124900,note_on,50,0,4,,,,,,,,10,,,38,0
124914,note_on,112,0,5,,,,,,,,0,,,78,0
124920,note_on,20,0,4,,,,,,,,10,,,42,79
124920,note_on,52,0,2,,,,,,,,1,,,69,79
124920,note_on,6,0,5,,,,,,,,0,,,76,117
124920,note_on,43,0,1,,,,,,,,1,,,76,89
124920,note_on,36,0,3,,,,,,,,1,,,67,102
124920,note_on,56,0,6,,,,,,,,0,,,54,84
124949,note_on,29,0,3,,,,,,,,1,,,67,0
124958,note_on,38,0,5,,,,,,,,0,,,76,0
124958,note_on,38,0,1,,,,,,,,1,,,76,0
124980,note_on,22,0,5,,,,,,,,0,,,74,96
124980,note_on,31,0,3,,,,,,,,1,,,66,84
124980,note_on,22,0,1,,,,,,,,1,,,74,77
124987,note_on,67,0,2,,,,,,,,1,,,69,0
124994,note_on,74,0,6,,,,,,,,0,,,54,0
125008,note_on,28,0,3,,,,,,,,1,,,66,0
125013,note_on,93,0,4,,,,,,,,10,,,42,0
125016,note_on,36,0,5,,,,,,,,0,,,74,0
125016,note_on,36,0,1,,,,,,,,1,,,74,0
125040,note_on,27,0,4,,,,,,,,10,,,43,96
125040,note_on,24,0,5,,,,,,,,0,,,76,127
125040,note_on,46,0,6,,,,,,,,0,,,55,84
125040,note_on,32,0,3,,,,,,,,1,,,64,102
125040,note_on,53,0,2,,,,,,,,1,,,71,79
125040,note_on,24,0,1,,,,,,,,1,,,76,120
125104,note_on,64,0,1,,,,,,,,1,,,76,0
125111,note_on,71,0,5,,,,,,,,0,,,76,0
125113,note_on,73,0,6,,,,,,,,0,,,55,0
125114,note_on,74,0,3,,,,,,,,1,,,64,0
125118,note_on,78,0,2,,,,,,,,1,,,71,0
125139,control_change,35,0,1,,,,,,,,1,7,109,,
125144,note_on,104,0,4,,,,,,,,10,,,43,0
125160,note_on,49,0,5,,,,,,,,0,,,74,93
125160,note_on,47,0,6,,,,,,,,0,,,57,108
125160,note_on,46,0,3,,,,,,,,1,,,67,93
125160,note_on,21,0,1,,,,,,,,1,,,74,89
125160,note_on,42,0,2,,,,,,,,1,,,69,66
125160,note_on,16,0,4,,,,,,,,10,,,45,86
125194,note_on,34,0,1,,,,,,,,1,,,74,0
125210,note_on,50,0,5,,,,,,,,0,,,74,0
125220,note_on,10,0,5,,,,,,,,0,,,73,88
125220,note_on,26,0,1,,,,,,,,1,,,73,77
125222,note_on,62,0,2,,,,,,,,1,,,69,0
125229,note_on,69,0,3,,,,,,,,1,,,67,0
125232,note_on,72,0,6,,,,,,,,0,,,57,0
125254,note_on,94,0,4,,,,,,,,10,,,45,0
125260,note_on,40,0,5,,,,,,,,0,,,73,0
125271,note_on,51,0,1,,,,,,,,1,,,73,0
125280,note_on,26,0,4,,,,,,,,10,,,47,81
125280,note_on,48,0,6,,,,,,,,0,,,59,108
125280,note_on,20,0,5,,,,,,,,0,,,74,88
125280,note_on,51,0,3,,,,,,,,1,,,66,89
125280,note_on,58,0,2,,,,,,,,1,,,62,74
125280,note_on,9,0,1,,,,,,,,1,,,74,96
125329,note_on,49,0,3,,,,,,,,1,,,66,0
125330,note_on,50,0,5,,,,,,,,0,,,74,0
125335,note_on,55,0,6,,,,,,,,0,,,59,0
125335,note_on,55,0,1,,,,,,,,1,,,74,0
125340,note_on,60,0,2,,,,,,,,1,,,62,0
125376,control_change,41,0,1,,,,,,,,1,7,110,,
125398,note_on,118,0,4,,,,,,,,10,,,47,0
125400,note_on,70,0,5,,,,,,,,0,,,69,127
125400,note_on,71,0,3,,,,,,,,1,,,66,89
125400,note_on,60,0,2,,,,,,,,1,,,69,69
125400,note_on,24,0,1,,,,,,,,1,,,69,93
125400,note_on,2,0,4,,,,,,,,10,,,42,127
125400,note_on,65,0,6,,,,,,,,0,,,42,126
125426,note_on,26,0,1,,,,,,,,1,,,69,0
125432,note_on,32,0,4,,,,,,,,10,,,42,0
125437,note_on,37,0,6,,,,,,,,0,,,42,0
125444,note_on,44,0,5,,,,,,,,0,,,69,0
125460,note_on,16,0,5,,,,,,,,0,,,57,85
125460,note_on,28,0,4,,,,,,,,10,,,42,81
125460,note_on,34,0,1,,,,,,,,1,,,69,89
125460,note_on,23,0,6,,,,,,,,0,,,54,111
125483,control_change,23,0,4,,,,,,,,10,7,83,,
125491,note_on,31,0,6,,,,,,,,0,,,54,0
125496,note_on,36,0,1,,,,,,,,1,,,69,0
125502,note_on,42,0,5,,,,,,,,0,,,57,0
125509,note_on,26,0,4,,,,,,,,10,,,42,0
125512,control_change,16,0,1,,,,,,,,1,7,112,,
125520,note_on,11,0,4,,,,,,,,10,,,43,102
125520,note_on,8,0,1,,,,,,,,1,,,71,96
125520,note_on,18,0,5,,,,,,,,0,,,71,88
125520,note_on,29,0,6,,,,,,,,0,,,43,105
125545,control_change,25,0,4,,,,,,,,10,7,85,,
125553,note_on,33,0,1,,,,,,,,1,,,71,0
125556,note_on,36,0,6,,,,,,,,0,,,43,0
125558,note_on,13,0,4,,,,,,,,10,,,43,0
125573,note_on,53,0,5,,,,,,,,0,,,71,0
125580,note_on,22,0,4,,,,,,,,10,,,43,84
125580,note_on,7,0,5,,,,,,,,0,,,59,73
125580,note_on,27,0,1,,,,,,,,1,,,71,96
125580,note_on,24,0,6,,,,,,,,0,,,55,86
125591,note_on,191,0,3,,,,,,,,1,,,66,0
125609,note_on,29,0,5,,,,,,,,0,,,59,0
125612,note_on,32,0,6,,,,,,,,0,,,55,0
125615,note_on,35,0,1,,,,,,,,1,,,71,0
125622,note_on,42,0,4,,,,,,,,10,,,43,0
125624,note_on,224,0,2,,,,,,,,1,,,69,0
125640,note_on,16,0,2,,,,,,,,1,,,67,74
125640,note_on,31,0,5,,,,,,,,0,,,73,96
125640,note_on,49,0,3,,,,,,,,1,,,64,84
125640,note_on,25,0,1,,,,,,,,1,,,73,93
125640,note_on,18,0,4,,,,,,,,10,,,45,99
125640,note_on,28,0,6,,,,,,,,0,,,45,64
125673,note_on,33,0,1,,,,,,,,1,,,73,0
125675,note_on,35,0,4,,,,,,,,10,,,45,0
125677,note_on,37,0,6,,,,,,,,0,,,45,0
125679,note_on,39,0,5,,,,,,,,0,,,73,0
125700,note_on,25,0,4,,,,,,,,10,,,45,77
125700,note_on,21,0,5,,,,,,,,0,,,61,70
125700,note_on,23,0,6,,,,,,,,0,,,57,89
125700,note_on,27,0,1,,,,,,,,1,,,73,89
125718,note_on,78,0,3,,,,,,,,1,,,64,0
125731,note_on,31,0,6,,,,,,,,0,,,57,0
125733,note_on,33,0,5,,,,,,,,0,,,61,0
125733,note_on,93,0,2,,,,,,,,1,,,67,0
125738,note_on,38,0,1,,,,,,,,1,,,73,0
125741,note_on,41,0,4,,,,,,,,10,,,45,0
125760,note_on,19,0,4,,,,,,,,10,,,47,102
125760,note_on,22,0,1,,,,,,,,1,,,74,102
125760,note_on,29,0,6,,,,,,,,0,,,47,86
125760,note_on,27,0,2,,,,,,,,1,,,66,58
125760,note_on,27,0,5,,,,,,,,0,,,74,124
125760,note_on,42,0,3,,,,,,,,1,,,62,84
125791,note_on,31,0,1,,,,,,,,1,,,74,0
125795,note_on,35,0,6,,,,,,,,0,,,47,0
125801,note_on,41,0,4,,,,,,,,10,,,47,0
125808,note_on,48,0,5,,,,,,,,0,,,74,0
125817,note_on,57,0,3,,,,,,,,1,,,62,0
125819,note_on,59,0,2,,,,,,,,1,,,66,0
125820,note_on,29,0,1,,,,,,,,1,,,74,77
125820,note_on,25,0,6,,,,,,,,0,,,59,77
125820,note_on,12,0,5,,,,,,,,0,,,62,96
125820,note_on,19,0,4,,,,,,,,10,,,47,72
125838,note_on,18,0,6,,,,,,,,0,,,59,0
125848,note_on,28,0,5,,,,,,,,0,,,62,0
125853,note_on,33,0,1,,,,,,,,1,,,74,0
125865,note_on,45,0,4,,,,,,,,10,,,47,0
125880,note_on,61,0,2,,,,,,,,1,,,69,69
125880,note_on,63,0,3,,,,,,,,1,,,66,89
125880,note_on,15,0,4,,,,,,,,10,,,42,127
125880,note_on,42,0,6,,,,,,,,0,,,42,126
125880,note_on,27,0,1,,,,,,,,1,,,69,84
125880,note_on,32,0,5,,,,,,,,0,,,69,96
125911,note_on,31,0,1,,,,,,,,1,,,69,0
125915,note_on,35,0,4,,,,,,,,10,,,42,0
125917,note_on,37,0,6,,,,,,,,0,,,42,0
125922,note_on,42,0,5,,,,,,,,0,,,69,0
125940,note_on,29,0,1,,,,,,,,1,,,69,79
125940,note_on,18,0,5,,,,,,,,0,,,57,82
125940,note_on,25,0,4,,,,,,,,10,,,42,111
125940,note_on,23,0,6,,,,,,,,0,,,54,86
125973,note_on,33,0,6,,,,,,,,0,,,54,0
125979,note_on,39,0,1,,,,,,,,1,,,69,0
125982,note_on,42,0,4,,,,,,,,10,,,42,0
125982,note_on,42,0,5,,,,,,,,0,,,57,0
125991,aftertouch,9,0,4,,,,,,,,10,,6,,
125994,aftertouch,3,0,4,,,,,,,,10,,0,,
125996,aftertouch,2,0,4,,,,,,,,10,,3,,
126000,note_on,27,0,6,,,,,,,,0,,,43,108
126000,note_on,18,0,5,,,,,,,,0,,,71,102
126000,note_on,4,0,4,,,,,,,,10,,,43,127
126000,note_on,21,0,1,,,,,,,,1,,,71,84
126004,aftertouch,4,0,4,,,,,,,,10,,0,,
126007,aftertouch,3,0,4,,,,,,,,10,,1,,
126015,aftertouch,8,0,4,,,,,,,,10,,0,,
126030,note_on,30,0,1,,,,,,,,1,,,71,0
126036,note_on,36,0,6,,,,,,,,0,,,43,0
126041,note_on,26,0,4,,,,,,,,10,,,43,0
126048,note_on,48,0,5,,,,,,,,0,,,71,0
126060,note_on,19,0,4,,,,,,,,10,,,43,96
126060,note_on,12,0,5,,,,,,,,0,,,59,90
126060,note_on,24,0,6,,,,,,,,0,,,55,74
126060,note_on,30,0,1,,,,,,,,1,,,71,79
126090,note_on,30,0,5,,,,,,,,0,,,59,0
126091,note_on,211,0,2,,,,,,,,1,,,69,0
126096,note_on,36,0,1,,,,,,,,1,,,71,0
126097,note_on,37,0,6,,,,,,,,0,,,55,0
126101,note_on,221,0,3,,,,,,,,1,,,66,0
126102,note_on,42,0,4,,,,,,,,10,,,43,0
126120,note_on,19,0,3,,,,,,,,1,,,64,79
126120,note_on,23,0,6,,,,,,,,0,,,45,74
126120,note_on,24,0,1,,,,,,,,1,,,73,77
126120,note_on,30,0,5,,,,,,,,0,,,73,98
126120,note_on,29,0,2,,,,,,,,1,,,67,72
126120,note_on,18,0,4,,,,,,,,10,,,45,117
126146,note_on,26,0,1,,,,,,,,1,,,73,0
126153,note_on,33,0,4,,,,,,,,10,,,45,0
126162,note_on,42,0,5,,,,,,,,0,,,73,0
126164,note_on,44,0,6,,,,,,,,0,,,45,0
126180,note_on,16,0,6,,,,,,,,0,,,57,81
126180,note_on,34,0,1,,,,,,,,1,,,73,72
126180,note_on,18,0,5,,,,,,,,0,,,61,70
126180,note_on,27,0,4,,,,,,,,10,,,45,93
126211,note_on,31,0,5,,,,,,,,0,,,61,0
126211,note_on,91,0,3,,,,,,,,1,,,64,0
126215,note_on,35,0,6,,,,,,,,0,,,57,0
126215,note_on,95,0,2,,,,,,,,1,,,67,0
126217,note_on,37,0,1,,,,,,,,1,,,73,0
126221,note_on,41,0,4,,,,,,,,10,,,45,0
126238,control_change,17,0,4,,,,,,,,10,7,86,,
126240,note_on,2,0,4,,,,,,,,10,,,47,123
126240,note_on,25,0,6,,,,,,,,0,,,47,79
126240,note_on,29,0,5,,,,,,,,0,,,74,90
126240,note_on,25,0,2,,,,,,,,1,,,66,66
126240,note_on,23,0,1,,,,,,,,1,,,74,102
126240,note_on,29,0,3,,,,,,,,1,,,62,69
126277,note_on,37,0,4,,,,,,,,10,,,47,0
126278,note_on,38,0,6,,,,,,,,0,,,47,0
126285,control_change,8,0,4,,,,,,,,10,7,88,,
126286,note_on,46,0,1,,,,,,,,1,,,74,0
126288,note_on,48,0,5,,,,,,,,0,,,74,0
126300,note_on,14,0,1,,,,,,,,1,,,76,72
126300,note_on,15,0,4,,,,,,,,10,,,47,86
126300,note_on,22,0,6,,,,,,,,0,,,59,69
126300,note_on,12,0,5,,,,,,,,0,,,76,102
126328,note_on,88,0,2,,,,,,,,1,,,66,0
126329,note_on,29,0,6,,,,,,,,0,,,59,0
126332,note_on,92,0,3,,,,,,,,1,,,62,0
126332,note_on,32,0,5,,,,,,,,0,,,76,0
126339,control_change,39,0,4,,,,,,,,10,7,89,,
126340,note_on,40,0,1,,,,,,,,1,,,76,0
126342,note_on,3,0,4,,,,,,,,10,,,47,0
126360,note_on,20,0,1,,,,,,,,1,,,78,96
126360,note_on,18,0,4,,,,,,,,10,,,45,114
126360,note_on,28,0,3,,,,,,,,1,,,69,93
126360,note_on,28,0,5,,,,,,,,0,,,78,82
126360,note_on,31,0,6,,,,,,,,0,,,45,102
126360,note_on,32,0,2,,,,,,,,1,,,73,111
126393,note_on,33,0,2,,,,,,,,1,,,73,0
126394,note_on,34,0,3,,,,,,,,1,,,69,0
126395,note_on,35,0,4,,,,,,,,10,,,45,0
126398,note_on,38,0,6,,,,,,,,0,,,45,0
126403,note_on,43,0,1,,,,,,,,1,,,78,0
126411,note_on,51,0,5,,,,,,,,0,,,78,0
126420,note_on,26,0,3,,,,,,,,1,,,69,84
126420,note_on,17,0,1,,,,,,,,1,,,74,77
126420,note_on,9,0,5,,,,,,,,0,,,74,113
126420,note_on,22,0,6,,,,,,,,0,,,57,84
126420,note_on,25,0,4,,,,,,,,10,,,45,89
126420,note_on,27,0,2,,,,,,,,1,,,73,105
126451,note_on,31,0,6,,,,,,,,0,,,57,0
126458,note_on,38,0,1,,,,,,,,1,,,74,0
126462,note_on,42,0,3,,,,,,,,1,,,69,0
126464,note_on,44,0,5,,,,,,,,0,,,74,0
126464,note_on,44,0,4,,,,,,,,10,,,45,0
126465,note_on,45,0,2,,,,,,,,1,,,73,0
126480,note_on,16,0,5,,,,,,,,0,,,79,96
126480,note_on,22,0,1,,,,,,,,1,,,79,72
126480,note_on,16,0,4,,,,,,,,10,,,47,114
126480,note_on,15,0,2,,,,,,,,1,,,74,77
126480,note_on,29,0,6,,,,,,,,0,,,47,96
126480,note_on,18,0,3,,,,,,,,1,,,62,84
126510,note_on,30,0,4,,,,,,,,10,,,47,0
126516,note_on,36,0,3,,,,,,,,1,,,62,0
126519,note_on,39,0,1,,,,,,,,1,,,79,0
126520,note_on,40,0,6,,,,,,,,0,,,47,0
126520,note_on,40,0,2,,,,,,,,1,,,74,0
126526,note_on,46,0,5,,,,,,,,0,,,79,0
126540,note_on,14,0,5,,,,,,,,0,,,76,113
126540,note_on,24,0,3,,,,,,,,1,,,62,72
126540,note_on,20,0,2,,,,,,,,1,,,74,111
126540,note_on,21,0,1,,,,,,,,1,,,76,69
126540,note_on,20,0,6,,,,,,,,0,,,59,84
126540,note_on,30,0,4,,,,,,,,10,,,47,93
126571,note_on,31,0,6,,,,,,,,0,,,59,0
126581,note_on,41,0,4,,,,,,,,10,,,47,0
126582,note_on,42,0,2,,,,,,,,1,,,74,0
126584,note_on,44,0,1,,,,,,,,1,,,76,0
126584,note_on,44,0,5,,,,,,,,0,,,76,0
126585,note_on,45,0,3,,,,,,,,1,,,62,0
126592,control_change,11,0,4,,,,,,,,10,7,91,,
126600,note_on,16,0,5,,,,,,,,0,,,81,102
126600,note_on,29,0,6,,,,,,,,0,,,49,99
126600,note_on,15,0,3,,,,,,,,1,,,57,84
126600,note_on,16,0,1,,,,,,,,1,,,81,81
126600,note_on,18,0,2,,,,,,,,1,,,76,89
126600,note_on,8,0,4,,,,,,,,10,,,49,89
126624,control_change,24,0,4,,,,,,,,10,7,92,,
126633,note_on,33,0,2,,,,,,,,1,,,76,0
126638,note_on,38,0,6,,,,,,,,0,,,49,0
126638,note_on,14,0,4,,,,,,,,10,,,49,0
126640,note_on,40,0,3,,,,,,,,1,,,57,0
126641,control_change,3,0,4,,,,,,,,10,7,94,,
126660,note_on,22,0,6,,,,,,,,0,,,61,72
126660,note_on,19,0,4,,,,,,,,10,,,49,108
126660,note_on,27,0,2,,,,,,,,1,,,76,66
126660,note_on,20,0,3,,,,,,,,1,,,57,79
126672,note_on,72,0,1,,,,,,,,1,,,81,0
126679,note_on,19,0,6,,,,,,,,0,,,61,0
126691,note_on,31,0,2,,,,,,,,1,,,76,0
126703,note_on,43,0,3,,,,,,,,1,,,57,0
126707,note_on,47,0,4,,,,,,,,10,,,49,0
126707,note_on,107,0,5,,,,,,,,0,,,81,0
126720,note_on,13,0,4,,,,,,,,10,,,50,102
126720,note_on,0,0,2,,,,,,,,1,,,69,79
126720,note_on,29,0,2,,,,,,,,1,,,69,84
126720,note_on,17,0,3,,,,,,,,1,,,62,96
126720,note_on,41,0,6,,,,,,,,0,,,50,111
126720,note_on,13,0,5,,,,,,,,0,,,78,70
126720,note_on,48,0,1,,,,,,,,1,,,78,93
126721,note_on,1,0,2,,,,,,,,1,,,69,0
126741,note_on,21,0,1,,,,,,,,1,,,78,0
126747,note_on,27,0,5,,,,,,,,0,,,78,0
126750,note_on,3,0,5,,,,,,,,0,,,79,90
126750,note_on,9,0,1,,,,,,,,1,,,79,84
126766,note_on,16,0,5,,,,,,,,0,,,79,0
126780,note_on,0,0,1,,,,,,,,1,,,78,84
126780,note_on,14,0,5,,,,,,,,0,,,78,85
126780,note_on,30,0,1,,,,,,,,1,,,79,0
126792,note_on,72,0,6,,,,,,,,0,,,50,0
126797,note_on,76,0,2,,,,,,,,1,,,69,0
126798,note_on,78,0,3,,,,,,,,1,,,62,0
126813,note_on,33,0,5,,,,,,,,0,,,78,0
126820,note_on,100,0,4,,,,,,,,10,,,50,0
126824,control_change,4,0,4,,,,,,,,10,7,93,,
126824,note_on,44,0,1,,,,,,,,1,,,78,0
126840,note_on,42,0,3,,,,,,,,1,,,66,111
126840,note_on,16,0,4,,,,,,,,10,,,47,96
126840,note_on,16,0,1,,,,,,,,1,,,76,89
126840,note_on,43,0,2,,,,,,,,1,,,71,79
126840,note_on,48,0,6,,,,,,,,0,,,47,77
126840,note_on,27,0,5,,,,,,,,0,,,76,96
126883,note_on,43,0,1,,,,,,,,1,,,76,0
126892,note_on,52,0,5,,,,,,,,0,,,76,0
126900,note_on,17,0,1,,,,,,,,1,,,74,89
126900,note_on,8,0,5,,,,,,,,0,,,74,102
126913,note_on,73,0,6,,,,,,,,0,,,47,0
126927,note_on,87,0,3,,,,,,,,1,,,66,0
126930,note_on,90,0,2,,,,,,,,1,,,71,0
126935,note_on,95,0,4,,,,,,,,10,,,47,0
126938,note_on,38,0,1,,,,,,,,1,,,74,0
126940,note_on,40,0,5,,,,,,,,0,,,74,0
126960,note_on,25,0,4,,,,,,,,10,,,43,77
126960,note_on,47,0,6,,,,,,,,0,,,43,108
126960,note_on,33,0,3,,,,,,,,1,,,67,77
126960,note_on,20,0,5,,,,,,,,0,,,78,127
126960,note_on,30,0,2,,,,,,,,1,,,71,81
126960,note_on,22,0,1,,,,,,,,1,,,78,86
126969,aftertouch,9,0,5,,,,,,,,0,,6,,
126969,aftertouch,0,0,5,,,,,,,,0,,6,,
126969,aftertouch,9,0,6,,,,,,,,0,,6,,
126980,aftertouch,11,0,5,,,,,,,,0,,3,,
126980,aftertouch,0,0,5,,,,,,,,0,,3,,
126981,aftertouch,12,0,6,,,,,,,,0,,3,,
126996,control_change,36,0,4,,,,,,,,10,7,91,,
126997,note_on,37,0,1,,,,,,,,1,,,78,0
127000,note_on,20,0,5,,,,,,,,0,,,78,0
127020,note_on,23,0,1,,,,,,,,1,,,76,79
127020,note_on,20,0,5,,,,,,,,0,,,76,79
127041,note_on,60,0,6,,,,,,,,0,,,43,0
127046,note_on,86,0,3,,,,,,,,1,,,67,0
127052,note_on,92,0,2,,,,,,,,1,,,71,0
127054,note_on,58,0,4,,,,,,,,10,,,43,0
127059,note_on,39,0,1,,,,,,,,1,,,76,0
127068,note_on,48,0,5,,,,,,,,0,,,76,0
127080,note_on,34,0,3,,,,,,,,1,,,64,81
127080,note_on,26,0,4,,,,,,,,10,,,45,102
127080,note_on,28,0,2,,,,,,,,1,,,69,84
127080,note_on,39,0,6,,,,,,,,0,,,45,74
127080,note_on,21,0,1,,,,,,,,1,,,74,93
127080,note_on,12,0,5,,,,,,,,0,,,74,102
127111,note_on,31,0,1,,,,,,,,1,,,74,0
127118,control_change,38,0,4,,,,,,,,10,7,90,,
127120,note_on,40,0,5,,,,,,,,0,,,74,0
127140,note_on,20,0,5,,,,,,,,0,,,73,75
127140,note_on,29,0,1,,,,,,,,1,,,73,74
127149,note_on,69,0,6,,,,,,,,0,,,45,0
127158,note_on,78,0,2,,,,,,,,1,,,69,0
127161,control_change,43,0,4,,,,,,,,10,7,88,,
127169,note_on,89,0,3,,,,,,,,1,,,64,0
127177,note_on,37,0,1,,,,,,,,1,,,73,0
127178,note_on,38,0,5,,,,,,,,0,,,73,0
127186,note_on,25,0,4,,,,,,,,10,,,45,0
127200,note_on,31,0,3,,,,,,,,1,,,66,89
127200,note_on,51,0,6,,,,,,,,0,,,38,124
127200,note_on,22,0,5,,,,,,,,0,,,74,127
127200,note_on,23,0,1,,,,,,,,1,,,74,120
127200,note_on,42,0,2,,,,,,,,1,,,69,86
127200,note_on,14,0,4,,,,,,,,10,,,38,120
127259,note_on,59,0,5,,,,,,,,0,,,74,0
127260,note_on,1,0,5,,,,,,,,0,,,73,75
127287,note_on,27,0,5,,,,,,,,0,,,73,0
127290,note_on,3,0,5,,,,,,,,0,,,71,96
127314,note_on,24,0,5,,,,,,,,0,,,71,0
127320,note_on,6,0,5,,,,,,,,0,,,69,90
127327,note_on,127,0,6,,,,,,,,0,,,38,0
127333,note_on,13,0,5,,,,,,,,0,,,69,0
127350,note_on,17,0,5,,,,,,,,0,,,67,75
127374,note_on,24,0,5,,,,,,,,0,,,67,0
127380,note_on,6,0,5,,,,,,,,0,,,66,82
127398,note_on,18,0,5,,,,,,,,0,,,66,0
127410,note_on,12,0,5,,,,,,,,0,,,64,88
127416,note_on,216,0,3,,,,,,,,1,,,66,0
127416,note_on,216,0,2,,,,,,,,1,,,69,0
127416,note_on,216,0,1,,,,,,,,1,,,74,0
127416,note_on,216,0,4,,,,,,,,10,,,38,0
127428,note_on,18,0,5,,,,,,,,0,,,64,0
127440,note_on,12,0,5,,,,,,,,0,,,62,104
127500,note_on,173,0,6,,,,,,,,0,,,61,96
127530,note_on,30,0,6,,,,,,,,0,,,59,79
127533,note_on,93,0,5,,,,,,,,0,,,62,0
127537,note_on,7,0,6,,,,,,,,0,,,61,0
127547,control_change,131,0,1,,,,,,,,1,7,111,,
127560,note_on,23,0,6,,,,,,,,0,,,57,74
127560,note_on,13,0,1,,,,,,,,1,,,66,89
127560,note_on,144,0,2,,,,,,,,1,,,62,79
127562,note_on,2,0,6,,,,,,,,0,,,59,0
127589,note_on,27,0,6,,,,,,,,0,,,57,0
127590,note_on,1,0,6,,,,,,,,0,,,55,77
127598,note_on,38,0,2,,,,,,,,1,,,62,0
127598,note_on,38,0,1,,,,,,,,1,,,66,0
127614,note_on,24,0,6,,,,,,,,0,,,55,0
127618,control_change,20,0,1,,,,,,,,1,7,110,,
127620,note_on,2,0,1,,,,,,,,1,,,67,79
127620,note_on,6,0,6,,,,,,,,0,,,54,84
127620,note_on,22,0,2,,,,,,,,1,,,64,86
127636,note_on,16,0,6,,,,,,,,0,,,54,0
127645,control_change,25,0,1,,,,,,,,1,7,108,,
127650,note_on,14,0,6,,,,,,,,0,,,52,84
127660,note_on,40,0,2,,,,,,,,1,,,64,0
127661,note_on,16,0,1,,,,,,,,1,,,67,0
127677,note_on,27,0,6,,,,,,,,0,,,52,0
127680,note_on,3,0,6,,,,,,,,0,,,50,81
127680,note_on,19,0,1,,,,,,,,1,,,69,74
127680,note_on,147,0,5,,,,,,,,0,,,62,96
127680,note_on,20,0,2,,,,,,,,1,,,66,89
127735,note_on,55,0,5,,,,,,,,0,,,62,0
127736,note_on,56,0,1,,,,,,,,1,,,69,0
127740,note_on,5,0,5,,,,,,,,0,,,57,73
127749,note_on,69,0,2,,,,,,,,1,,,66,0
127785,note_on,45,0,5,,,,,,,,0,,,57,0
127800,note_on,15,0,5,,,,,,,,0,,,62,96
127800,note_on,64,0,1,,,,,,,,1,,,66,69
127800,note_on,51,0,2,,,,,,,,1,,,57,66
127807,note_on,127,0,6,,,,,,,,0,,,50,0
127837,note_on,37,0,1,,,,,,,,1,,,66,0
127844,note_on,44,0,5,,,,,,,,0,,,62,0
127860,note_on,23,0,1,,,,,,,,1,,,67,64
127860,note_on,16,0,5,,,,,,,,0,,,64,110
127874,note_on,74,0,2,,,,,,,,1,,,57,0
127895,note_on,35,0,5,,,,,,,,0,,,64,0
127907,note_on,47,0,1,,,,,,,,1,,,67,0
127920,note_on,25,0,5,,,,,,,,0,,,66,88
127920,note_on,46,0,2,,,,,,,,1,,,62,72
127920,note_on,13,0,1,,,,,,,,1,,,69,79
127968,note_on,48,0,5,,,,,,,,0,,,66,0
127972,note_on,52,0,1,,,,,,,,1,,,69,0
127978,note_on,58,0,2,,,,,,,,1,,,62,0
127980,note_on,12,0,5,,,,,,,,0,,,62,82
128020,note_on,40,0,5,,,,,,,,0,,,62,0
128040,note_on,62,0,2,,,,,,,,1,,,62,84
128040,note_on,20,0,5,,,,,,,,0,,,66,102
128040,note_on,68,0,1,,,,,,,,1,,,74,74
128079,note_on,39,0,5,,,,,,,,0,,,66,0
128084,note_on,44,0,2,,,,,,,,1,,,62,0
128095,note_on,55,0,1,,,,,,,,1,,,74,0
128100,note_on,16,0,2,,,,,,,,1,,,64,79
128100,note_on,21,0,5,,,,,,,,0,,,67,90
128132,note_on,32,0,5,,,,,,,,0,,,67,0
128143,note_on,43,0,2,,,,,,,,1,,,64,0
128160,note_on,17,0,2,,,,,,,,1,,,66,84
128160,note_on,353,0,6,,,,,,,,0,,,50,84
128160,note_on,28,0,5,,,,,,,,0,,,67,66
128160,note_on,65,0,1,,,,,,,,1,,,69,74
128205,note_on,45,0,6,,,,,,,,0,,,50,0
128211,note_on,51,0,1,,,,,,,,1,,,69,0
128220,note_on,15,0,6,,,,,,,,0,,,45,84
128220,note_on,60,0,5,,,,,,,,0,,,67,0
128220,note_on,0,0,5,,,,,,,,0,,,69,66
128236,note_on,76,0,2,,,,,,,,1,,,66,0
128250,note_on,30,0,5,,,,,,,,0,,,71,25
128265,note_on,15,0,5,,,,,,,,0,,,69,0
128266,note_on,46,0,6,,,,,,,,0,,,45,0
128267,note_on,2,0,5,,,,,,,,0,,,71,0
128280,note_on,14,0,6,,,,,,,,0,,,50,72
128280,note_on,44,0,2,,,,,,,,1,,,66,77
128280,note_on,69,0,1,,,,,,,,1,,,69,79
128280,note_on,13,0,5,,,,,,,,0,,,69,73
128321,note_on,41,0,1,,,,,,,,1,,,69,0
128322,note_on,42,0,6,,,,,,,,0,,,50,0
128323,note_on,43,0,2,,,,,,,,1,,,66,0
128337,note_on,57,0,5,,,,,,,,0,,,69,0
128340,note_on,18,0,6,,,,,,,,0,,,52,69
128340,note_on,17,0,2,,,,,,,,1,,,64,72
128340,note_on,19,0,1,,,,,,,,1,,,67,74
128378,note_on,38,0,6,,,,,,,,0,,,52,0
128379,note_on,39,0,2,,,,,,,,1,,,64,0
128381,note_on,41,0,1,,,,,,,,1,,,67,0
128400,note_on,19,0,1,,,,,,,,1,,,66,69
128400,note_on,21,0,2,,,,,,,,1,,,62,58
128400,note_on,22,0,6,,,,,,,,0,,,54,89
128452,note_on,52,0,6,,,,,,,,0,,,54,0
128460,note_on,8,0,6,,,,,,,,0,,,50,79
128472,note_on,72,0,2,,,,,,,,1,,,62,0
128481,note_on,81,0,1,,,,,,,,1,,,66,0
128512,note_on,52,0,6,,,,,,,,0,,,50,0
128520,note_on,8,0,6,,,,,,,,0,,,52,66
128520,note_on,183,0,5,,,,,,,,0,,,69,127
128520,note_on,39,0,1,,,,,,,,1,,,64,66
128520,note_on,48,0,2,,,,,,,,1,,,57,64
128559,note_on,39,0,1,,,,,,,,1,,,64,0
128564,note_on,44,0,6,,,,,,,,0,,,52,0
128580,note_on,16,0,6,,,,,,,,0,,,54,91
128580,note_on,21,0,1,,,,,,,,1,,,62,66
128591,note_on,71,0,2,,,,,,,,1,,,57,0
128606,note_on,26,0,6,,,,,,,,0,,,54,0
128609,note_on,89,0,5,,,,,,,,0,,,69,0
128627,note_on,47,0,1,,,,,,,,1,,,62,0
128640,note_on,34,0,6,,,,,,,,0,,,55,111
128640,note_on,31,0,5,,,,,,,,0,,,71,96
128693,note_on,53,0,5,,,,,,,,0,,,71,0
128700,note_on,7,0,5,,,,,,,,0,,,73,82
128735,note_on,95,0,6,,,,,,,,0,,,55,0
128754,note_on,54,0,5,,,,,,,,0,,,73,0
128760,note_on,6,0,5,,,,,,,,0,,,74,88
128780,control_change,153,0,1,,,,,,,,1,7,107,,
128802,note_on,42,0,5,,,,,,,,0,,,74,0
128820,note_on,18,0,5,,,,,,,,0,,,71,82
128849,note_on,29,0,5,,,,,,,,0,,,71,0
128880,note_on,31,0,5,,,,,,,,0,,,69,73
128895,note_on,15,0,5,,,,,,,,0,,,69,0
128910,note_on,15,0,5,,,,,,,,0,,,71,79
128934,note_on,24,0,5,,,,,,,,0,,,71,0
128940,note_on,6,0,5,,,,,,,,0,,,69,79
128940,note_on,205,0,6,,,,,,,,0,,,54,79
128982,note_on,42,0,6,,,,,,,,0,,,54,0
129000,note_on,18,0,6,,,,,,,,0,,,52,79
129045,note_on,45,0,6,,,,,,,,0,,,52,0
129047,note_on,107,0,5,,,,,,,,0,,,69,0
129060,note_on,13,0,5,,,,,,,,0,,,69,85
129060,note_on,15,0,6,,,,,,,,0,,,50,79
129093,note_on,33,0,5,,,,,,,,0,,,69,0
129112,note_on,52,0,6,,,,,,,,0,,,50,0
129120,note_on,27,0,5,,,,,,,,0,,,71,96
129120,note_on,8,0,6,,,,,,,,0,,,55,74
129168,note_on,48,0,5,,,,,,,,0,,,71,0
129180,note_on,12,0,5,,,,,,,,0,,,73,66
129197,note_on,17,0,5,,,,,,,,0,,,73,0
129210,note_on,13,0,5,,,,,,,,0,,,74,73
129240,note_on,30,0,5,,,,,,,,0,,,73,82
129241,note_on,1,0,5,,,,,,,,0,,,74,0
129256,note_on,136,0,6,,,,,,,,0,,,55,0
129291,note_on,50,0,5,,,,,,,,0,,,73,0
129300,note_on,9,0,5,,,,,,,,0,,,74,96
129329,note_on,29,0,5,,,,,,,,0,,,74,0
129330,note_on,1,0,5,,,,,,,,0,,,76,70
129349,note_on,19,0,5,,,,,,,,0,,,76,0
129360,note_on,11,0,5,,,,,,,,0,,,69,90
129410,note_on,50,0,5,,,,,,,,0,,,69,0
129420,note_on,10,0,5,,,,,,,,0,,,73,70
129458,note_on,38,0,5,,,,,,,,0,,,73,0
129480,note_on,224,0,6,,,,,,,,0,,,54,86
129480,note_on,22,0,5,,,,,,,,0,,,74,85
129510,note_on,30,0,5,,,,,,,,0,,,74,0
129536,note_on,56,0,6,,,,,,,,0,,,54,0
129540,note_on,30,0,5,,,,,,,,0,,,78,82
129584,note_on,44,0,5,,,,,,,,0,,,78,0
129600,note_on,16,0,5,,,,,,,,0,,,79,90
129600,note_on,64,0,6,,,,,,,,0,,,52,72
129646,note_on,46,0,5,,,,,,,,0,,,79,0
129656,note_on,56,0,6,,,,,,,,0,,,52,0
129660,note_on,14,0,5,,,,,,,,0,,,78,75
129697,note_on,37,0,5,,,,,,,,0,,,78,0
129720,note_on,64,0,6,,,,,,,,0,,,49,91
129720,note_on,23,0,5,,,,,,,,0,,,76,75
129760,note_on,40,0,5,,,,,,,,0,,,76,0
129774,note_on,54,0,6,,,,,,,,0,,,49,0
129780,note_on,20,0,5,,,,,,,,0,,,79,85
129829,note_on,49,0,5,,,,,,,,0,,,79,0
129840,note_on,11,0,5,,,,,,,,0,,,78,85
129840,note_on,66,0,6,,,,,,,,0,,,50,84
129889,note_on,49,0,5,,,,,,,,0,,,78,0
129892,note_on,52,0,6,,,,,,,,0,,,50,0
129900,note_on,11,0,5,,,,,,,,0,,,76,90
129944,note_on,44,0,5,,,,,,,,0,,,76,0
129960,note_on,16,0,5,,,,,,,,0,,,74,88
129960,note_on,68,0,6,,,,,,,,0,,,38,123
129999,note_on,39,0,5,,,,,,,,0,,,74,0
130019,note_on,59,0,6,,,,,,,,0,,,38,0
130020,note_on,21,0,5,,,,,,,,0,,,78,93
130070,note_on,50,0,5,,,,,,,,0,,,78,0
130080,note_on,61,0,6,,,,,,,,0,,,45,99
130080,note_on,10,0,5,,,,,,,,0,,,76,90
130129,note_on,49,0,5,,,,,,,,0,,,76,0
130140,note_on,11,0,5,,,,,,,,0,,,74,96
130150,control_change,2734,0,4,,,,,,,,10,7,89,,
130185,note_on,45,0,5,,,,,,,,0,,,74,0
130200,note_on,15,0,5,,,,,,,,0,,,73,93
130245,note_on,45,0,5,,,,,,,,0,,,73,0
130260,note_on,15,0,5,,,,,,,,0,,,71,88
130279,note_on,199,0,6,,,,,,,,0,,,45,0
130284,control_change,134,0,4,,,,,,,,10,7,91,,
130312,note_on,52,0,5,,,,,,,,0,,,71,0
130320,note_on,8,0,5,,,,,,,,0,,,69,93
130332,control_change,48,0,4,,,,,,,,10,7,92,,
130358,control_change,1578,0,1,,,,,,,,1,7,109,,
130364,note_on,44,0,5,,,,,,,,0,,,69,0
130380,note_on,16,0,5,,,,,,,,0,,,67,90
130394,control_change,62,0,4,,,,,,,,10,7,94,,
130424,note_on,44,0,5,,,,,,,,0,,,67,0
130440,control_change,46,0,4,,,,,,,,10,7,95,,
130440,note_on,16,0,5,,,,,,,,0,,,66,96
130488,note_on,48,0,5,,,,,,,,0,,,66,0
130500,note_on,12,0,5,,,,,,,,0,,,64,90
130526,control_change,168,0,1,,,,,,,,1,7,110,,
130545,note_on,45,0,5,,,,,,,,0,,,64,0
130560,note_on,120,0,4,,,,,,,,10,,,38,124
130560,note_on,0,0,5,,,,,,,,0,,,62,127
130560,note_on,281,0,6,,,,,,,,0,,,50,120
130560,note_on,15,0,5,,,,,,,,0,,,57,127
130560,note_on,3144,0,3,,,,,,,,1,,,54,127
130560,note_on,34,0,1,,,,,,,,1,,,62,117
130560,note_on,1969,0,2,,,,,,,,1,,,57,102
130560,note_on,0,0,5,,,,,,,,0,,,54,127
130570,aftertouch,10,0,4,,,,,,,,10,,6,,
130578,aftertouch,8,0,4,,,,,,,,10,,0,,
130580,aftertouch,2,0,4,,,,,,,,10,,3,,
130776,note_on,216,0,5,,,,,,,,0,,,62,0
130776,note_on,216,0,6,,,,,,,,0,,,50,0
130776,note_on,216,0,3,,,,,,,,1,,,54,0
130776,note_on,0,0,5,,,,,,,,0,,,54,0
130776,note_on,216,0,2,,,,,,,,1,,,57,0
130776,note_on,216,0,1,,,,,,,,1,,,62,0
130776,note_on,0,0,5,,,,,,,,0,,,57,0
130776,note_on,196,0,4,,,,,,,,10,,,38,0
130800,note_on,0,0,5,,,,,,,,0,,,66,110
130800,note_on,24,0,6,,,,,,,,0,,,38,96
130800,note_on,24,0,2,,,,,,,,1,,,62,125
130800,note_on,24,0,1,,,,,,,,1,,,66,126
130800,note_on,24,0,3,,,,,,,,1,,,57,96
130800,note_on,0,0,5,,,,,,,,0,,,62,102
130800,note_on,24,0,4,,,,,,,,10,,,26,124
130800,note_on,24,0,5,,,,,,,,0,,,57,102
130881,aftertouch,0,0,5,,,,,,,,0,,3,,
130881,aftertouch,81,0,5,,,,,,,,0,,3,,
130890,aftertouch,90,0,6,,,,,,,,0,,3,,
130894,aftertouch,13,0,5,,,,,,,,0,,4,,
130894,aftertouch,0,0,5,,,,,,,,0,,4,,
130902,aftertouch,12,0,6,,,,,,,,0,,4,,
130905,aftertouch,11,0,5,,,,,,,,0,,2,,
130906,aftertouch,1,0,5,,,,,,,,0,,2,,
130908,note_on,0,0,5,,,,,,,,0,,,66,0
130908,note_on,2,0,5,,,,,,,,0,,,62,0
130914,aftertouch,12,0,6,,,,,,,,0,,2,,
131016,note_on,216,0,4,,,,,,,,10,,,26,0
131016,note_on,216,0,1,,,,,,,,1,,,66,0
131016,note_on,216,0,2,,,,,,,,1,,,62,0
131016,note_on,216,0,3,,,,,,,,1,,,57,0
131016,note_on,108,0,5,,,,,,,,0,,,57,0
131016,note_on,102,0,6,,,,,,,,0,,,38,0
131037,aftertouch,21,0,5,,,,,,,,0,,1,,
131038,aftertouch,1,0,5,,,,,,,,0,,1,,
131040,note_on,2,0,5,,,,,,,,0,,,62,102
131040,note_on,0,0,5,,,,,,,,0,,,66,127
131040,note_on,24,0,4,,,,,,,,10,,,38,126
131040,note_on,0,0,5,,,,,,,,0,,,69,110
131040,note_on,24,0,1,,,,,,,,1,,,69,79
131040,note_on,24,0,2,,,,,,,,1,,,66,111
131040,note_on,24,0,3,,,,,,,,1,,,62,108
131040,note_on,24,0,6,,,,,,,,0,,,50,124
131256,note_on,216,0,5,,,,,,,,0,,,69,0
131256,note_on,0,0,5,,,,,,,,0,,,66,0
131256,note_on,216,0,1,,,,,,,,1,,,69,0
131256,note_on,0,0,5,,,,,,,,0,,,62,0
131256,note_on,216,0,6,,,,,,,,0,,,50,0
131256,note_on,216,0,2,,,,,,,,1,,,66,0
131256,note_on,216,0,3,,,,,,,,1,,,62,0
131256,note_on,216,0,4,,,,,,,,10,,,38,0
131400,note_on,144,0,2,,,,,,,,1,,,62,108
131400,note_on,144,0,6,,,,,,,,0,,,38,114
131400,note_on,144,0,5,,,,,,,,0,,,66,80
131400,note_on,0,0,5,,,,,,,,0,,,62,80
131400,note_on,144,0,1,,,,,,,,1,,,66,124
131400,note_on,144,0,3,,,,,,,,1,,,57,89
131400,note_on,144,0,4,,,,,,,,10,,,26,124
131429,note_on,29,0,6,,,,,,,,0,,,38,0
131433,note_on,33,0,1,,,,,,,,1,,,66,0
131435,note_on,35,0,2,,,,,,,,1,,,62,0
131448,note_on,48,0,5,,,,,,,,0,,,62,0
131448,note_on,0,0,5,,,,,,,,0,,,66,0
131453,note_on,53,0,4,,,,,,,,10,,,26,0
131458,note_on,58,0,3,,,,,,,,1,,,57,0
131460,note_on,0,0,5,,,,,,,,0,,,64,80
131460,note_on,27,0,1,,,,,,,,1,,,67,84
131460,note_on,12,0,5,,,,,,,,0,,,67,80
131460,note_on,25,0,2,,,,,,,,1,,,64,105
131495,note_on,35,0,2,,,,,,,,1,,,64,0
131499,note_on,39,0,1,,,,,,,,1,,,67,0
131508,note_on,48,0,5,,,,,,,,0,,,64,0
131508,note_on,0,0,5,,,,,,,,0,,,67,0
131520,note_on,91,0,6,,,,,,,,0,,,50,89
131520,note_on,62,0,3,,,,,,,,1,,,62,91
131520,note_on,21,0,1,,,,,,,,1,,,69,123
131520,note_on,0,0,5,,,,,,,,0,,,69,106
131520,note_on,67,0,4,,,,,,,,10,,,38,96
131520,note_on,25,0,2,,,,,,,,1,,,66,117
131520,note_on,12,0,5,,,,,,,,0,,,66,81
131529,control_change,9,0,4,,,,,,,,10,7,94,,
131554,control_change,25,0,4,,,,,,,,10,7,93,,
131561,note_on,7,0,4,,,,,,,,10,,,38,0
131573,note_on,53,0,3,,,,,,,,1,,,62,0
131574,note_on,54,0,6,,,,,,,,0,,,50,0
131578,note_on,58,0,1,,,,,,,,1,,,69,0
131580,note_on,19,0,4,,,,,,,,10,,,40,96
131580,note_on,6,0,6,,,,,,,,0,,,52,102
131589,note_on,69,0,2,,,,,,,,1,,,66,0
131593,note_on,73,0,5,,,,,,,,0,,,69,0
131598,note_on,5,0,5,,,,,,,,0,,,66,0
131614,note_on,34,0,4,,,,,,,,10,,,40,0
131615,control_change,1,0,4,,,,,,,,10,7,91,,
131617,note_on,37,0,6,,,,,,,,0,,,52,0
131635,control_change,20,0,4,,,,,,,,10,7,90,,
131640,note_on,42,0,5,,,,,,,,0,,,62,117
131640,note_on,0,0,5,,,,,,,,0,,,66,93
131640,note_on,62,0,1,,,,,,,,1,,,66,105
131640,note_on,5,0,4,,,,,,,,10,,,42,102
131640,note_on,67,0,3,,,,,,,,1,,,57,84
131640,note_on,51,0,2,,,,,,,,1,,,62,111
131640,note_on,23,0,6,,,,,,,,0,,,54,84
131663,control_change,23,0,4,,,,,,,,10,7,88,,
131668,note_on,28,0,6,,,,,,,,0,,,54,0
131670,note_on,30,0,2,,,,,,,,1,,,62,0
131672,note_on,32,0,1,,,,,,,,1,,,66,0
131672,note_on,9,0,4,,,,,,,,10,,,42,0
131686,note_on,46,0,5,,,,,,,,0,,,66,0
131686,note_on,0,0,5,,,,,,,,0,,,62,0
131694,note_on,54,0,3,,,,,,,,1,,,57,0
131700,note_on,28,0,1,,,,,,,,1,,,67,105
131700,note_on,30,0,2,,,,,,,,1,,,64,111
131700,note_on,32,0,6,,,,,,,,0,,,52,81
131700,note_on,0,0,5,,,,,,,,0,,,67,120
131700,note_on,14,0,5,,,,,,,,0,,,64,79
131700,note_on,28,0,4,,,,,,,,10,,,40,74
131721,control_change,21,0,4,,,,,,,,10,7,87,,
131729,note_on,29,0,6,,,,,,,,0,,,52,0
131732,note_on,32,0,1,,,,,,,,1,,,67,0
131733,note_on,33,0,2,,,,,,,,1,,,64,0
131735,note_on,14,0,4,,,,,,,,10,,,40,0
131739,note_on,39,0,5,,,,,,,,0,,,64,0
131740,note_on,1,0,5,,,,,,,,0,,,67,0
131760,note_on,20,0,5,,,,,,,,0,,,69,127
131760,note_on,27,0,2,,,,,,,,1,,,66,114
131760,note_on,28,0,1,,,,,,,,1,,,69,123
131760,note_on,66,0,3,,,,,,,,1,,,62,91
131760,note_on,0,0,5,,,,,,,,0,,,66,91
131760,note_on,31,0,6,,,,,,,,0,,,50,84
131760,note_on,25,0,4,,,,,,,,10,,,38,105
131792,note_on,32,0,6,,,,,,,,0,,,50,0
131797,note_on,37,0,4,,,,,,,,10,,,38,0
131814,note_on,54,0,1,,,,,,,,1,,,69,0
131817,note_on,57,0,5,,,,,,,,0,,,69,0
131820,note_on,28,0,6,,,,,,,,0,,,52,72
131820,note_on,23,0,4,,,,,,,,10,,,40,96
131825,note_on,65,0,3,,,,,,,,1,,,62,0
131829,note_on,69,0,2,,,,,,,,1,,,66,0
131838,note_on,21,0,5,,,,,,,,0,,,66,0
131850,note_on,30,0,6,,,,,,,,0,,,52,0
131852,note_on,32,0,4,,,,,,,,10,,,40,0
131880,note_on,42,0,5,,,,,,,,0,,,69,77
131880,note_on,28,0,4,,,,,,,,10,,,42,108
131880,note_on,0,0,5,,,,,,,,0,,,74,127
131880,note_on,55,0,3,,,,,,,,1,,,57,105
131880,note_on,66,0,1,,,,,,,,1,,,74,91
131880,note_on,30,0,6,,,,,,,,0,,,54,102
131880,note_on,51,0,2,,,,,,,,1,,,69,117
131907,note_on,27,0,6,,,,,,,,0,,,54,0
131916,note_on,36,0,4,,,,,,,,10,,,42,0
131939,note_on,59,0,3,,,,,,,,1,,,57,0
131940,note_on,24,0,4,,,,,,,,10,,,40,79
131940,note_on,33,0,6,,,,,,,,0,,,52,69
131945,note_on,65,0,1,,,,,,,,1,,,74,0
131949,note_on,69,0,5,,,,,,,,0,,,74,0
131952,note_on,72,0,2,,,,,,,,1,,,69,0
131971,note_on,31,0,6,,,,,,,,0,,,52,0
131975,note_on,26,0,5,,,,,,,,0,,,69,0
131977,note_on,37,0,4,,,,,,,,10,,,40,0
131983,control_change,38,0,1,,,,,,,,1,7,108,,
132000,note_on,29,0,6,,,,,,,,0,,,50,84
132000,note_on,25,0,5,,,,,,,,0,,,66,81
132000,note_on,61,0,3,,,,,,,,1,,,62,124
132000,note_on,17,0,1,,,,,,,,1,,,69,84
132000,note_on,23,0,4,,,,,,,,10,,,38,84
132000,note_on,48,0,2,,,,,,,,1,,,66,93
132000,note_on,0,0,5,,,,,,,,0,,,69,127
132033,note_on,33,0,6,,,,,,,,0,,,50,0
132035,note_on,35,0,4,,,,,,,,10,,,38,0
132058,note_on,58,0,1,,,,,,,,1,,,69,0
132060,note_on,27,0,6,,,,,,,,0,,,52,79
132060,note_on,25,0,4,,,,,,,,10,,,40,74
132064,note_on,64,0,5,,,,,,,,0,,,69,0
132067,note_on,67,0,3,,,,,,,,1,,,62,0
132072,note_on,8,0,5,,,,,,,,0,,,66,0
132077,note_on,77,0,2,,,,,,,,1,,,66,0
132091,note_on,31,0,6,,,,,,,,0,,,52,0
132100,note_on,40,0,4,,,,,,,,10,,,40,0
132120,note_on,20,0,4,,,,,,,,10,,,42,72
132120,note_on,29,0,6,,,,,,,,0,,,54,102
132120,note_on,43,0,2,,,,,,,,1,,,62,74
132120,note_on,48,0,5,,,,,,,,0,,,69,106
132120,note_on,0,0,5,,,,,,,,0,,,62,86
132120,note_on,53,0,3,,,,,,,,1,,,57,79
132120,note_on,62,0,1,,,,,,,,1,,,69,117
132153,note_on,33,0,6,,,,,,,,0,,,54,0
132161,note_on,41,0,1,,,,,,,,1,,,69,0
132162,note_on,42,0,5,,,,,,,,0,,,69,0
132162,note_on,42,0,4,,,,,,,,10,,,42,0
132180,note_on,18,0,5,,,,,,,,0,,,67,117
132180,note_on,19,0,1,,,,,,,,1,,,67,74
132180,note_on,27,0,6,,,,,,,,0,,,52,66
132180,note_on,18,0,4,,,,,,,,10,,,40,84
132184,note_on,64,0,3,,,,,,,,1,,,57,0
132192,note_on,72,0,2,,,,,,,,1,,,62,0
132194,note_on,14,0,5,,,,,,,,0,,,62,0
132210,note_on,30,0,6,,,,,,,,0,,,52,0
132220,note_on,40,0,4,,,,,,,,10,,,40,0
132231,note_on,51,0,1,,,,,,,,1,,,67,0
132234,note_on,40,0,5,,,,,,,,0,,,67,0
132240,note_on,20,0,4,,,,,,,,10,,,38,99
132240,note_on,6,0,5,,,,,,,,0,,,62,77
132240,note_on,30,0,6,,,,,,,,0,,,50,69
132240,note_on,0,0,5,,,,,,,,0,,,66,98
132240,note_on,48,0,2,,,,,,,,1,,,62,79
132240,note_on,9,0,1,,,,,,,,1,,,66,111
132240,note_on,56,0,3,,,,,,,,1,,,57,84
132296,note_on,56,0,6,,,,,,,,0,,,50,0
132304,note_on,64,0,3,,,,,,,,1,,,57,0
132310,note_on,70,0,1,,,,,,,,1,,,66,0
132310,note_on,70,0,5,,,,,,,,0,,,66,0
132319,note_on,79,0,4,,,,,,,,10,,,38,0
132323,note_on,83,0,2,,,,,,,,1,,,62,0
132360,note_on,50,0,1,,,,,,,,1,,,64,93
132360,note_on,64,0,6,,,,,,,,0,,,49,69
132360,note_on,37,0,2,,,,,,,,1,,,66,72
132360,note_on,50,0,5,,,,,,,,0,,,64,127
132360,note_on,56,0,3,,,,,,,,1,,,57,74
132360,note_on,41,0,4,,,,,,,,10,,,37,72
132402,note_on,42,0,1,,,,,,,,1,,,64,0
132409,note_on,49,0,5,,,,,,,,0,,,64,0
132420,note_on,11,0,5,,,,,,,,0,,,62,96
132420,note_on,18,0,1,,,,,,,,1,,,62,93
132421,note_on,61,0,6,,,,,,,,0,,,49,0
132431,note_on,71,0,3,,,,,,,,1,,,57,0
132440,note_on,80,0,4,,,,,,,,10,,,37,0
132456,note_on,36,0,5,,,,,,,,0,,,62,0
132463,note_on,43,0,1,,,,,,,,1,,,62,0
132466,note_on,10,0,5,,,,,,,,0,,,62,0
132480,note_on,14,0,5,,,,,,,,0,,,67,102
132480,note_on,17,0,1,,,,,,,,1,,,67,93
132480,note_on,49,0,3,,,,,,,,1,,,62,66
132480,note_on,40,0,4,,,,,,,,10,,,35,86
132480,note_on,59,0,6,,,,,,,,0,,,47,72
132486,aftertouch,6,0,4,,,,,,,,10,,6,,
132486,aftertouch,126,0,2,,,,,,,,1,,6,,
132486,aftertouch,6,0,3,,,,,,,,1,,6,,
132486,aftertouch,6,0,1,,,,,,,,1,,6,,
132495,aftertouch,9,0,1,,,,,,,,1,,0,,
132496,aftertouch,10,0,3,,,,,,,,1,,3,,
132497,aftertouch,11,0,2,,,,,,,,1,,3,,
132497,aftertouch,2,0,1,,,,,,,,1,,3,,
132497,aftertouch,11,0,4,,,,,,,,10,,3,,
132505,aftertouch,8,0,1,,,,,,,,1,,0,,
132508,aftertouch,3,0,1,,,,,,,,1,,1,,
132508,aftertouch,11,0,4,,,,,,,,10,,1,,
132508,aftertouch,11,0,2,,,,,,,,1,,1,,
132508,aftertouch,12,0,3,,,,,,,,1,,1,,
132516,aftertouch,8,0,1,,,,,,,,1,,0,,
132519,note_on,3,0,1,,,,,,,,1,,,67,0
132531,note_on,51,0,5,,,,,,,,0,,,67,0
132540,note_on,21,0,1,,,,,,,,1,,,69,93
132540,note_on,60,0,6,,,,,,,,0,,,47,0
132540,note_on,9,0,5,,,,,,,,0,,,69,96
132564,note_on,56,0,3,,,,,,,,1,,,62,0
132569,note_on,61,0,4,,,,,,,,10,,,35,0
132581,note_on,41,0,1,,,,,,,,1,,,69,0
132584,note_on,44,0,5,,,,,,,,0,,,69,0
132600,note_on,31,0,4,,,,,,,,10,,,37,111
132600,note_on,36,0,3,,,,,,,,1,,,61,74
132600,note_on,19,0,1,,,,,,,,1,,,71,89
132600,note_on,16,0,5,,,,,,,,0,,,71,110
132600,note_on,92,0,2,,,,,,,,1,,,64,30
132600,note_on,60,0,6,,,,,,,,0,,,49,81
132602,note_on,2,0,2,,,,,,,,1,,,66,0
132639,note_on,39,0,1,,,,,,,,1,,,71,0
132654,note_on,54,0,5,,,,,,,,0,,,71,0
132660,note_on,21,0,1,,,,,,,,1,,,67,99
132660,note_on,60,0,6,,,,,,,,0,,,49,0
132660,note_on,6,0,5,,,,,,,,0,,,67,102
132684,note_on,84,0,4,,,,,,,,10,,,37,0
132693,note_on,33,0,1,,,,,,,,1,,,67,0
132710,note_on,50,0,5,,,,,,,,0,,,67,0
132719,note_on,119,0,3,,,,,,,,1,,,61,0
132720,note_on,60,0,6,,,,,,,,0,,,50,108
132720,note_on,27,0,1,,,,,,,,1,,,66,102
132720,note_on,36,0,4,,,,,,,,10,,,38,96
132720,note_on,10,0,5,,,,,,,,0,,,66,98
132720,note_on,1,0,3,,,,,,,,1,,,57,66
132739,control_change,19,0,4,,,,,,,,10,7,88,,
132753,control_change,14,0,4,,,,,,,,10,7,89,,
132760,note_on,40,0,1,,,,,,,,1,,,66,0
132770,note_on,50,0,5,,,,,,,,0,,,66,0
132772,note_on,52,0,6,,,,,,,,0,,,50,0
132780,note_on,20,0,1,,,,,,,,1,,,67,81
132780,note_on,10,0,5,,,,,,,,0,,,67,90
132808,note_on,55,0,4,,,,,,,,10,,,38,0
132820,note_on,40,0,1,,,,,,,,1,,,67,0
132822,note_on,102,0,3,,,,,,,,1,,,57,0
132831,note_on,229,0,2,,,,,,,,1,,,64,0
132836,note_on,56,0,5,,,,,,,,0,,,67,0
132840,note_on,18,0,3,,,,,,,,1,,,57,64
132840,note_on,20,0,1,,,,,,,,1,,,69,86
132840,note_on,9,0,2,,,,,,,,1,,,62,30
132840,note_on,32,0,4,,,,,,,,10,,,26,93
132840,note_on,4,0,5,,,,,,,,0,,,69,110
132840,note_on,68,0,6,,,,,,,,0,,,38,124
132876,control_change,36,0,4,,,,,,,,10,7,91,,
132876,note_on,36,0,1,,,,,,,,1,,,69,0
132876,control_change,0,0,1,,,,,,,,1,7,109,,
132888,note_on,48,0,5,,,,,,,,0,,,69,0
132894,note_on,54,0,6,,,,,,,,0,,,38,0
132900,note_on,12,0,5,,,,,,,,0,,,66,75
132900,note_on,24,0,1,,,,,,,,1,,,66,84
132932,note_on,92,0,3,,,,,,,,1,,,57,0
132936,note_on,60,0,4,,,,,,,,10,,,26,0
132940,note_on,40,0,1,,,,,,,,1,,,66,0
132942,control_change,6,0,4,,,,,,,,10,7,92,,
132948,note_on,48,0,5,,,,,,,,0,,,66,0
132960,note_on,18,0,4,,,,,,,,10,,,33,117
132960,note_on,20,0,1,,,,,,,,1,,,64,81
132960,note_on,12,0,5,,,,,,,,0,,,64,110
132960,note_on,66,0,6,,,,,,,,0,,,45,86
132960,note_on,120,0,2,,,,,,,,1,,,61,48
132960,note_on,28,0,3,,,,,,,,1,,,57,69
132963,note_on,3,0,2,,,,,,,,1,,,62,0
132970,control_change,10,0,4,,,,,,,,10,7,94,,
132982,control_change,12,0,4,,,,,,,,10,7,95,,
133011,note_on,51,0,5,,,,,,,,0,,,64,0
133020,note_on,9,0,5,,,,,,,,0,,,67,88
133068,note_on,48,0,5,,,,,,,,0,,,67,0
133080,note_on,12,0,5,,,,,,,,0,,,69,96
133136,note_on,56,0,5,,,,,,,,0,,,69,0
133140,note_on,4,0,5,,,,,,,,0,,,73,102
133142,note_on,182,0,6,,,,,,,,0,,,45,0
133176,note_on,194,0,4,,,,,,,,10,,,33,0
133176,note_on,213,0,2,,,,,,,,1,,,61,0
133176,note_on,216,0,1,,,,,,,,1,,,64,0
133176,note_on,216,0,3,,,,,,,,1,,,57,0
133177,note_on,37,0,5,,,,,,,,0,,,73,0
133200,note_on,24,0,3,,,,,,,,1,,,61,84
133200,note_on,23,0,5,,,,,,,,0,,,76,82
133222,control_change,46,0,4,,,,,,,,10,7,94,,
133231,control_change,9,0,4,,,,,,,,10,7,93,,
133240,control_change,9,0,4,,,,,,,,10,7,91,,
133250,control_change,10,0,4,,,,,,,,10,7,90,,
133252,note_on,52,0,5,,,,,,,,0,,,76,0
133260,note_on,8,0,5,,,,,,,,0,,,73,110
133264,control_change,14,0,4,,,,,,,,10,7,88,,
133280,control_change,16,0,4,,,,,,,,10,7,87,,
133306,note_on,46,0,5,,,,,,,,0,,,73,0
133316,control_change,36,0,4,,,,,,,,10,7,85,,
133320,note_on,14,0,5,,,,,,,,0,,,71,88
133320,note_on,178,0,6,,,,,,,,0,,,57,105
133339,note_on,19,0,6,,,,,,,,0,,,57,0
133353,control_change,177,0,1,,,,,,,,1,7,108,,
133372,note_on,52,0,5,,,,,,,,0,,,71,0
133380,note_on,8,0,5,,,,,,,,0,,,69,96
133391,control_change,38,0,1,,,,,,,,1,7,107,,
133416,note_on,216,0,3,,,,,,,,1,,,61,0
133424,note_on,44,0,5,,,,,,,,0,,,69,0
133440,control_change,49,0,1,,,,,,,,1,7,105,,
133440,note_on,264,0,2,,,,,,,,1,,,57,43
133440,note_on,16,0,5,,,,,,,,0,,,67,102
133440,note_on,101,0,6,,,,,,,,0,,,57,89
133440,note_on,24,0,3,,,,,,,,1,,,64,55
133440,note_on,0,0,1,,,,,,,,1,,,61,48
133494,note_on,54,0,5,,,,,,,,0,,,67,0
133500,note_on,6,0,5,,,,,,,,0,,,69,98
133547,note_on,107,0,6,,,,,,,,0,,,57,0
133551,note_on,51,0,5,,,,,,,,0,,,69,0
133560,note_on,9,0,5,,,,,,,,0,,,73,102
133560,note_on,13,0,6,,,,,,,,0,,,45,77
133614,note_on,54,0,5,,,,,,,,0,,,73,0
133620,note_on,6,0,5,,,,,,,,0,,,76,102
133656,note_on,216,0,2,,,,,,,,1,,,57,0
133656,note_on,216,0,3,,,,,,,,1,,,64,0
133656,note_on,216,0,1,,,,,,,,1,,,61,0
133662,note_on,42,0,5,,,,,,,,0,,,76,0
133667,note_on,107,0,6,,,,,,,,0,,,45,0
133680,note_on,18,0,5,,,,,,,,0,,,79,96
133680,note_on,24,0,2,,,,,,,,1,,,61,51
133690,note_on,34,0,1,,,,,,,,1,,,64,55
133736,note_on,56,0,5,,,,,,,,0,,,79,0
133740,note_on,4,0,5,,,,,,,,0,,,78,117
133796,note_on,56,0,5,,,,,,,,0,,,78,0
133800,note_on,133,0,6,,,,,,,,0,,,57,81
133800,note_on,4,0,5,,,,,,,,0,,,76,110
133818,note_on,18,0,6,,,,,,,,0,,,57,0
133851,note_on,51,0,5,,,,,,,,0,,,76,0
133860,note_on,9,0,5,,,,,,,,0,,,74,96
133896,note_on,216,0,2,,,,,,,,1,,,61,0
133906,note_on,216,0,1,,,,,,,,1,,,64,0
133912,note_on,52,0,5,,,,,,,,0,,,74,0
133920,note_on,264,0,3,,,,,,,,1,,,57,55
133920,note_on,8,0,5,,,,,,,,0,,,73,102
133920,note_on,24,0,2,,,,,,,,1,,,64,26
133920,note_on,102,0,6,,,,,,,,0,,,57,120
133930,note_on,24,0,1,,,,,,,,1,,,69,30
133972,note_on,52,0,5,,,,,,,,0,,,73,0
133980,note_on,8,0,5,,,,,,,,0,,,74,85
134030,note_on,50,0,5,,,,,,,,0,,,74,0
134033,note_on,113,0,6,,,,,,,,0,,,57,0
134040,note_on,7,0,6,,,,,,,,0,,,45,81
134040,note_on,10,0,5,,,,,,,,0,,,76,117
134089,note_on,49,0,5,,,,,,,,0,,,76,0
134100,note_on,11,0,5,,,,,,,,0,,,73,88
134136,note_on,216,0,3,,,,,,,,1,,,57,0
134136,note_on,216,0,2,,,,,,,,1,,,64,0
134146,note_on,216,0,1,,,,,,,,1,,,69,0
134154,note_on,54,0,5,,,,,,,,0,,,73,0
134160,note_on,6,0,5,,,,,,,,0,,,69,85
134160,note_on,24,0,3,,,,,,,,1,,,61,35
134164,note_on,124,0,6,,,,,,,,0,,,45,0
134208,note_on,48,0,5,,,,,,,,0,,,69,0
134220,note_on,12,0,5,,,,,,,,0,,,73,85
134277,note_on,57,0,5,,,,,,,,0,,,73,0
134280,note_on,116,0,6,,,,,,,,0,,,57,69
134280,note_on,3,0,5,,,,,,,,0,,,71,96
134295,note_on,15,0,6,,,,,,,,0,,,57,0
134328,note_on,48,0,5,,,,,,,,0,,,71,0
134340,note_on,12,0,5,,,,,,,,0,,,69,90
134376,note_on,216,0,3,,,,,,,,1,,,61,0
134393,note_on,53,0,5,,,,,,,,0,,,69,0
134400,note_on,105,0,6,,,,,,,,0,,,57,74
134400,note_on,7,0,5,,,,,,,,0,,,79,90
134400,note_on,254,0,1,,,,,,,,1,,,64,14
134400,note_on,264,0,2,,,,,,,,1,,,61,1
134400,note_on,24,0,3,,,,,,,,1,,,64,35
134450,note_on,50,0,5,,,,,,,,0,,,79,0
134460,note_on,10,0,5,,,,,,,,0,,,78,79
134510,note_on,50,0,5,,,,,,,,0,,,78,0
134513,note_on,113,0,6,,,,,,,,0,,,57,0
134520,note_on,7,0,6,,,,,,,,0,,,45,64
134520,note_on,10,0,5,,,,,,,,0,,,76,82
134566,note_on,46,0,5,,,,,,,,0,,,76,0
134580,note_on,14,0,5,,,,,,,,0,,,74,102
134616,note_on,216,0,3,,,,,,,,1,,,64,0
134616,note_on,216,0,1,,,,,,,,1,,,64,0
134616,note_on,216,0,2,,,,,,,,1,,,61,0
134630,note_on,50,0,5,,,,,,,,0,,,74,0
134639,note_on,119,0,6,,,,,,,,0,,,45,0
134640,note_on,24,0,2,,,,,,,,1,,,64,3
134640,note_on,24,0,1,,,,,,,,1,,,69,35
134640,note_on,10,0,5,,,,,,,,0,,,73,75
134692,note_on,52,0,5,,,,,,,,0,,,73,0
134700,note_on,8,0,5,,,,,,,,0,,,74,75
134750,note_on,50,0,5,,,,,,,,0,,,74,0
134760,note_on,10,0,5,,,,,,,,0,,,76,90
134760,note_on,121,0,6,,,,,,,,0,,,57,64
134786,note_on,26,0,6,,,,,,,,0,,,57,0
134815,note_on,55,0,5,,,,,,,,0,,,76,0
134820,note_on,5,0,5,,,,,,,,0,,,73,88
134856,note_on,216,0,1,,,,,,,,1,,,69,0
134856,note_on,216,0,2,,,,,,,,1,,,64,0
134872,note_on,52,0,5,,,,,,,,0,,,73,0
134880,note_on,24,0,2,,,,,,,,1,,,69,8
134880,note_on,94,0,6,,,,,,,,0,,,57,64
134880,note_on,24,0,1,,,,,,,,1,,,73,22
134880,note_on,8,0,5,,,,,,,,0,,,69,70
134880,note_on,264,0,3,,,,,,,,1,,,57,18
134926,note_on,46,0,5,,,,,,,,0,,,69,0
134940,note_on,14,0,5,,,,,,,,0,,,73,102
134955,control_change,75,0,1,,,,,,,,1,7,104,,
134973,note_on,93,0,6,,,,,,,,0,,,57,0
134994,note_on,54,0,5,,,,,,,,0,,,73,0
135000,note_on,27,0,6,,,,,,,,0,,,45,66
135000,note_on,6,0,5,,,,,,,,0,,,71,90
135048,note_on,48,0,5,,,,,,,,0,,,71,0
135060,note_on,12,0,5,,,,,,,,0,,,69,79
135096,note_on,216,0,2,,,,,,,,1,,,69,0
135096,note_on,216,0,3,,,,,,,,1,,,57,0
135096,note_on,141,0,1,,,,,,,,1,,,73,0
135108,note_on,48,0,5,,,,,,,,0,,,69,0
135120,note_on,12,0,5,,,,,,,,0,,,79,90
135120,note_on,24,0,3,,,,,,,,1,,,61,14
135135,note_on,135,0,6,,,,,,,,0,,,45,0
135173,note_on,53,0,5,,,,,,,,0,,,79,0
135180,note_on,7,0,5,,,,,,,,0,,,78,82
135226,note_on,46,0,5,,,,,,,,0,,,78,0
135240,note_on,14,0,5,,,,,,,,0,,,76,85
135285,note_on,45,0,5,,,,,,,,0,,,76,0
135300,note_on,15,0,5,,,,,,,,0,,,74,106
135336,note_on,216,0,3,,,,,,,,1,,,61,0
135346,note_on,46,0,5,,,,,,,,0,,,74,0
135360,note_on,14,0,5,,,,,,,,0,,,73,85
135360,note_on,24,0,3,,,,,,,,1,,,64,35
135404,note_on,44,0,5,,,,,,,,0,,,73,0
135420,note_on,16,0,5,,,,,,,,0,,,74,90
135466,note_on,46,0,5,,,,,,,,0,,,74,0
135480,note_on,14,0,5,,,,,,,,0,,,76,82
135526,note_on,46,0,5,,,,,,,,0,,,76,0
135540,note_on,14,0,5,,,,,,,,0,,,73,82
135575,note_on,35,0,5,,,,,,,,0,,,73,0
135576,note_on,216,0,3,,,,,,,,1,,,64,0
135593,control_change,497,0,1,,,,,,,,1,7,106,,
135600,note_on,25,0,5,,,,,,,,0,,,69,85
135632,control_change,39,0,1,,,,,,,,1,7,107,,
135644,control_change,12,0,1,,,,,,,,1,7,109,,
135676,note_on,76,0,5,,,,,,,,0,,,69,0
135696,control_change,52,0,1,,,,,,,,1,7,110,,
135720,note_on,144,0,3,,,,,,,,1,,,64,96
135720,note_on,0,0,5,,,,,,,,0,,,73,120
135720,note_on,44,0,5,,,,,,,,0,,,69,74
135720,note_on,624,0,2,,,,,,,,1,,,69,89
135720,note_on,24,0,1,,,,,,,,1,,,73,89
135720,note_on,585,0,6,,,,,,,,0,,,45,89
135720,note_on,2404,0,4,,,,,,,,10,,,33,105
135752,note_on,32,0,1,,,,,,,,1,,,73,0
135753,note_on,33,0,5,,,,,,,,0,,,73,0
135753,note_on,33,0,2,,,,,,,,1,,,69,0
135764,note_on,44,0,6,,,,,,,,0,,,45,0
135764,note_on,44,0,4,,,,,,,,10,,,33,0
135780,note_on,0,0,5,,,,,,,,0,,,74,117
135780,note_on,28,0,1,,,,,,,,1,,,74,99
135780,note_on,27,0,2,,,,,,,,1,,,71,96
135780,note_on,0,0,5,,,,,,,,0,,,71,79
135780,note_on,27,0,5,,,,,,,,0,,,69,0
135792,note_on,72,0,3,,,,,,,,1,,,64,0
135816,note_on,36,0,2,,,,,,,,1,,,71,0
135818,note_on,38,0,5,,,,,,,,0,,,74,0
135823,note_on,43,0,1,,,,,,,,1,,,74,0
135825,note_on,7,0,5,,,,,,,,0,,,71,0
135840,note_on,76,0,4,,,,,,,,10,,,45,102
135840,note_on,0,0,5,,,,,,,,0,,,76,117
135840,note_on,48,0,3,,,,,,,,1,,,69,108
135840,note_on,76,0,6,,,,,,,,0,,,57,96
135840,note_on,17,0,1,,,,,,,,1,,,76,99
135840,note_on,24,0,2,,,,,,,,1,,,73,108
135840,note_on,15,0,5,,,,,,,,0,,,73,86
135875,note_on,35,0,6,,,,,,,,0,,,57,0
135885,note_on,45,0,4,,,,,,,,10,,,45,0
135895,note_on,55,0,1,,,,,,,,1,,,76,0
135900,note_on,15,0,4,,,,,,,,10,,,47,84
135900,note_on,25,0,6,,,,,,,,0,,,59,74
135903,note_on,63,0,2,,,,,,,,1,,,73,0
135907,note_on,67,0,3,,,,,,,,1,,,69,0
135908,note_on,68,0,5,,,,,,,,0,,,76,0
135914,note_on,6,0,5,,,,,,,,0,,,73,0
135931,note_on,31,0,6,,,,,,,,0,,,59,0
135940,note_on,40,0,4,,,,,,,,10,,,47,0
135960,note_on,57,0,2,,,,,,,,1,,,69,84
135960,note_on,20,0,4,,,,,,,,10,,,49,77
135960,note_on,65,0,1,,,,,,,,1,,,73,124
135960,note_on,29,0,6,,,,,,,,0,,,61,69
135960,note_on,53,0,3,,,,,,,,1,,,64,84
135960,note_on,0,0,5,,,,,,,,0,,,69,96
135960,note_on,46,0,5,,,,,,,,0,,,73,110
135991,note_on,31,0,6,,,,,,,,0,,,61,0
135994,note_on,34,0,2,,,,,,,,1,,,69,0
135997,note_on,37,0,1,,,,,,,,1,,,73,0
135998,note_on,38,0,5,,,,,,,,0,,,73,0
135998,note_on,38,0,4,,,,,,,,10,,,49,0
136014,note_on,16,0,5,,,,,,,,0,,,69,0
136020,note_on,23,0,1,,,,,,,,1,,,74,124
136020,note_on,6,0,5,,,,,,,,0,,,71,77
136020,note_on,0,0,5,,,,,,,,0,,,74,113
136020,note_on,26,0,2,,,,,,,,1,,,71,89
136020,note_on,22,0,4,,,,,,,,10,,,47,66
136020,note_on,29,0,6,,,,,,,,0,,,59,79
136032,note_on,72,0,3,,,,,,,,1,,,64,0
136046,control_change,26,0,4,,,,,,,,10,7,84,,
136053,note_on,33,0,5,,,,,,,,0,,,74,0
136055,note_on,35,0,6,,,,,,,,0,,,59,0
136059,note_on,39,0,2,,,,,,,,1,,,71,0
136061,note_on,41,0,1,,,,,,,,1,,,74,0
136062,note_on,16,0,4,,,,,,,,10,,,47,0
136065,note_on,12,0,5,,,,,,,,0,,,71,0
136080,note_on,18,0,4,,,,,,,,10,,,45,72
136080,note_on,48,0,3,,,,,,,,1,,,69,114
136080,note_on,19,0,1,,,,,,,,1,,,76,111
136080,note_on,21,0,2,,,,,,,,1,,,73,96
136080,note_on,15,0,5,,,,,,,,0,,,73,89
136080,note_on,0,0,5,,,,,,,,0,,,76,127
136080,note_on,25,0,6,,,,,,,,0,,,57,66
136116,note_on,36,0,6,,,,,,,,0,,,57,0
136126,note_on,46,0,4,,,,,,,,10,,,45,0
136129,note_on,49,0,1,,,,,,,,1,,,76,0
136135,note_on,55,0,5,,,,,,,,0,,,76,0
136140,note_on,24,0,6,,,,,,,,0,,,59,74
136140,note_on,14,0,4,,,,,,,,10,,,47,79
136142,note_on,62,0,3,,,,,,,,1,,,69,0
136147,note_on,67,0,2,,,,,,,,1,,,73,0
136153,note_on,18,0,5,,,,,,,,0,,,73,0
136171,note_on,31,0,6,,,,,,,,0,,,59,0
136183,note_on,43,0,4,,,,,,,,10,,,47,0
136200,note_on,0,0,5,,,,,,,,0,,,76,102
136200,note_on,47,0,5,,,,,,,,0,,,81,127
136200,note_on,58,0,3,,,,,,,,1,,,64,111
136200,note_on,53,0,2,,,,,,,,1,,,76,89
136200,note_on,71,0,1,,,,,,,,1,,,81,77
136200,note_on,17,0,4,,,,,,,,10,,,49,86
136200,note_on,29,0,6,,,,,,,,0,,,61,96
136230,note_on,30,0,6,,,,,,,,0,,,61,0
136243,note_on,43,0,4,,,,,,,,10,,,49,0
136258,note_on,58,0,1,,,,,,,,1,,,81,0
136260,note_on,17,0,4,,,,,,,,10,,,47,74
136260,note_on,30,0,6,,,,,,,,0,,,59,79
136269,note_on,69,0,2,,,,,,,,1,,,76,0
136269,note_on,69,0,5,,,,,,,,0,,,81,0
136273,note_on,73,0,3,,,,,,,,1,,,64,0
136282,note_on,13,0,5,,,,,,,,0,,,76,0
136295,note_on,35,0,6,,,,,,,,0,,,59,0
136307,note_on,47,0,4,,,,,,,,10,,,47,0
136320,note_on,47,0,3,,,,,,,,1,,,69,89
136320,note_on,62,0,1,,,,,,,,1,,,76,126
136320,note_on,51,0,2,,,,,,,,1,,,73,72
136320,note_on,38,0,5,,,,,,,,0,,,73,81
136320,note_on,25,0,6,,,,,,,,0,,,57,79
136320,note_on,0,0,5,,,,,,,,0,,,76,102
136320,note_on,13,0,4,,,,,,,,10,,,45,66
136356,note_on,36,0,6,,,,,,,,0,,,57,0
136365,note_on,45,0,4,,,,,,,,10,,,45,0
136372,note_on,52,0,1,,,,,,,,1,,,76,0
136380,note_on,24,0,6,,,,,,,,0,,,59,72
136380,note_on,15,0,4,,,,,,,,10,,,47,64
136384,note_on,64,0,5,,,,,,,,0,,,76,0
136397,note_on,77,0,3,,,,,,,,1,,,69,0
136398,note_on,14,0,5,,,,,,,,0,,,73,0
136400,note_on,80,0,2,,,,,,,,1,,,73,0
136414,control_change,34,0,4,,,,,,,,10,7,85,,
136416,note_on,36,0,6,,,,,,,,0,,,59,0
136427,control_change,13,0,4,,,,,,,,10,7,86,,
136432,note_on,5,0,4,,,,,,,,10,,,47,0
136440,note_on,0,0,5,,,,,,,,0,,,69,93
136440,note_on,43,0,3,,,,,,,,1,,,64,74
136440,note_on,8,0,4,,,,,,,,10,,,49,77
136440,note_on,40,0,2,,,,,,,,1,,,73,102
136440,note_on,42,0,5,,,,,,,,0,,,76,88
136440,note_on,68,0,1,,,,,,,,1,,,76,99
136440,note_on,24,0,6,,,,,,,,0,,,61,79
136443,control_change,3,0,4,,,,,,,,10,7,88,,
136476,note_on,36,0,1,,,,,,,,1,,,76,0
136480,note_on,37,0,4,,,,,,,,10,,,49,0
136482,note_on,42,0,5,,,,,,,,0,,,76,0
136486,note_on,46,0,6,,,,,,,,0,,,61,0
136500,note_on,18,0,5,,,,,,,,0,,,74,85
136500,note_on,20,0,4,,,,,,,,10,,,47,72
136500,note_on,24,0,1,,,,,,,,1,,,74,102
136500,note_on,14,0,6,,,,,,,,0,,,59,72
136509,note_on,69,0,2,,,,,,,,1,,,73,0
136514,note_on,14,0,5,,,,,,,,0,,,69,0
136519,note_on,79,0,3,,,,,,,,1,,,64,0
136520,control_change,20,0,4,,,,,,,,10,7,89,,
136537,control_change,17,0,4,,,,,,,,10,7,91,,
136538,note_on,38,0,6,,,,,,,,0,,,59,0
136539,note_on,2,0,4,,,,,,,,10,,,47,0
136542,note_on,28,0,5,,,,,,,,0,,,74,0
136545,note_on,45,0,1,,,,,,,,1,,,74,0
136560,note_on,18,0,5,,,,,,,,0,,,69,89
136560,note_on,0,0,5,,,,,,,,0,,,73,120
136560,note_on,41,0,3,,,,,,,,1,,,64,84
136560,note_on,22,0,6,,,,,,,,0,,,57,77
136560,note_on,21,0,4,,,,,,,,10,,,45,79
136560,note_on,15,0,1,,,,,,,,1,,,73,102
136560,note_on,51,0,2,,,,,,,,1,,,69,66
136626,note_on,66,0,6,,,,,,,,0,,,57,0
136629,note_on,69,0,1,,,,,,,,1,,,73,0
136635,note_on,75,0,5,,,,,,,,0,,,73,0
136636,note_on,76,0,3,,,,,,,,1,,,64,0
136640,note_on,80,0,2,,,,,,,,1,,,69,0
136643,note_on,83,0,4,,,,,,,,10,,,45,0
136680,note_on,37,0,4,,,,,,,,10,,,33,111
136680,note_on,45,0,5,,,,,,,,0,,,71,88
136680,note_on,54,0,6,,,,,,,,0,,,45,102
136680,note_on,44,0,3,,,,,,,,1,,,61,77
136680,note_on,51,0,1,,,,,,,,1,,,71,96
136680,note_on,40,0,2,,,,,,,,1,,,64,48
136704,control_change,24,0,4,,,,,,,,10,7,92,,
136719,note_on,39,0,5,,,,,,,,0,,,71,0
136722,note_on,42,0,1,,,,,,,,1,,,71,0
136740,note_on,21,0,5,,,,,,,,0,,,69,75
136740,note_on,60,0,6,,,,,,,,0,,,45,0
136740,note_on,18,0,1,,,,,,,,1,,,69,58
136746,note_on,66,0,2,,,,,,,,1,,,64,0
136754,note_on,74,0,3,,,,,,,,1,,,61,0
136782,note_on,42,0,5,,,,,,,,0,,,69,0
136784,note_on,80,0,4,,,,,,,,10,,,33,0
136784,note_on,44,0,1,,,,,,,,1,,,69,0
136800,note_on,16,0,1,,,,,,,,1,,,64,14
136800,note_on,54,0,2,,,,,,,,1,,,61,8
136800,note_on,18,0,5,,,,,,,,0,,,76,96
136800,note_on,46,0,3,,,,,,,,1,,,57,39
136800,note_on,60,0,6,,,,,,,,0,,,57,79
136846,note_on,46,0,5,,,,,,,,0,,,76,0
136860,note_on,14,0,5,,,,,,,,0,,,81,110
136878,note_on,78,0,6,,,,,,,,0,,,57,0
136904,note_on,44,0,5,,,,,,,,0,,,81,0
136920,note_on,42,0,6,,,,,,,,0,,,61,61
136920,note_on,16,0,5,,,,,,,,0,,,76,90
136960,note_on,40,0,6,,,,,,,,0,,,61,0
136969,note_on,49,0,5,,,,,,,,0,,,76,0
136980,note_on,20,0,6,,,,,,,,0,,,59,72
136980,note_on,11,0,5,,,,,,,,0,,,74,90
136992,note_on,12,0,5,,,,,,,,0,,,69,0
137022,note_on,30,0,5,,,,,,,,0,,,74,0
137026,control_change,226,0,1,,,,,,,,1,7,108,,
137033,note_on,53,0,6,,,,,,,,0,,,59,0
137040,note_on,18,0,5,,,,,,,,0,,,73,88
137040,note_on,7,0,6,,,,,,,,0,,,57,72
137061,control_change,35,0,1,,,,,,,,1,7,107,,
137084,note_on,44,0,5,,,,,,,,0,,,73,0
137097,note_on,57,0,6,,,,,,,,0,,,57,0
137100,note_on,16,0,5,,,,,,,,0,,,76,85
137150,note_on,50,0,5,,,,,,,,0,,,76,0
137160,note_on,63,0,6,,,,,,,,0,,,52,84
137160,note_on,10,0,5,,,,,,,,0,,,73,85
137195,control_change,134,0,1,,,,,,,,1,7,105,,
137204,note_on,44,0,5,,,,,,,,0,,,73,0
137206,note_on,46,0,6,,,,,,,,0,,,52,0
137220,note_on,16,0,5,,,,,,,,0,,,71,82
137258,note_on,38,0,5,,,,,,,,0,,,71,0
137280,note_on,74,0,6,,,,,,,,0,,,57,89
137280,note_on,22,0,5,,,,,,,,0,,,69,82
137330,note_on,50,0,5,,,,,,,,0,,,69,0
137331,control_change,136,0,1,,,,,,,,1,7,104,,
137340,note_on,10,0,5,,,,,,,,0,,,79,82
137354,note_on,74,0,6,,,,,,,,0,,,57,0
137397,note_on,57,0,5,,,,,,,,0,,,79,0
137400,note_on,3,0,5,,,,,,,,0,,,76,93
137400,note_on,46,0,6,,,,,,,,0,,,61,51
137444,note_on,44,0,5,,,,,,,,0,,,76,0
137446,note_on,46,0,6,,,,,,,,0,,,61,0
137460,note_on,14,0,6,,,,,,,,0,,,59,69
137460,note_on,16,0,5,,,,,,,,0,,,74,82
137504,note_on,44,0,5,,,,,,,,0,,,74,0
137506,note_on,46,0,6,,,,,,,,0,,,59,0
137520,note_on,16,0,5,,,,,,,,0,,,73,96
137520,note_on,14,0,6,,,,,,,,0,,,57,72
137562,note_on,42,0,5,,,,,,,,0,,,73,0
137577,note_on,57,0,6,,,,,,,,0,,,57,0
137580,note_on,18,0,5,,,,,,,,0,,,76,82
137618,note_on,38,0,5,,,,,,,,0,,,76,0
137640,note_on,22,0,5,,,,,,,,0,,,73,102
137640,note_on,63,0,6,,,,,,,,0,,,52,58
137682,note_on,42,0,5,,,,,,,,0,,,73,0
137700,note_on,18,0,5,,,,,,,,0,,,71,88
137707,note_on,67,0,6,,,,,,,,0,,,52,0
137746,note_on,46,0,5,,,,,,,,0,,,71,0
137760,note_on,53,0,6,,,,,,,,0,,,54,89
137760,note_on,14,0,5,,,,,,,,0,,,69,82
137806,note_on,46,0,5,,,,,,,,0,,,69,0
137820,note_on,14,0,5,,,,,,,,0,,,78,102
137855,note_on,95,0,6,,,,,,,,0,,,54,0
137869,note_on,49,0,5,,,,,,,,0,,,78,0
137880,note_on,11,0,5,,,,,,,,0,,,74,102
137880,note_on,25,0,6,,,,,,,,0,,,59,77
137910,note_on,30,0,5,,,,,,,,0,,,74,0
137919,note_on,39,0,6,,,,,,,,0,,,59,0
137940,note_on,21,0,6,,,,,,,,0,,,57,84
137940,note_on,30,0,5,,,,,,,,0,,,73,70
137952,note_on,621,0,1,,,,,,,,1,,,64,0
137952,note_on,1152,0,2,,,,,,,,1,,,61,0
137952,note_on,1152,0,3,,,,,,,,1,,,57,0
137980,note_on,40,0,6,,,,,,,,0,,,57,0
137988,note_on,48,0,5,,,,,,,,0,,,73,0
138000,note_on,20,0,6,,,,,,,,0,,,56,93
138000,note_on,12,0,5,,,,,,,,0,,,71,79
138049,note_on,49,0,5,,,,,,,,0,,,71,0
138059,note_on,59,0,6,,,,,,,,0,,,56,0
138060,note_on,11,0,5,,,,,,,,0,,,74,79
138109,note_on,49,0,5,,,,,,,,0,,,74,0
138120,note_on,11,0,5,,,,,,,,0,,,71,90
138120,note_on,61,0,6,,,,,,,,0,,,54,77
138165,note_on,45,0,5,,,,,,,,0,,,71,0
138177,note_on,57,0,6,,,,,,,,0,,,54,0
138180,note_on,15,0,5,,,,,,,,0,,,69,79
138211,note_on,31,0,5,,,,,,,,0,,,69,0
138240,note_on,63,0,6,,,,,,,,0,,,52,89
138240,note_on,29,0,5,,,,,,,,0,,,68,75
138273,control_change,321,0,1,,,,,,,,1,7,102,,
138289,note_on,49,0,5,,,,,,,,0,,,68,0
138299,note_on,59,0,6,,,,,,,,0,,,52,0
138300,note_on,11,0,5,,,,,,,,0,,,71,75
138337,note_on,37,0,5,,,,,,,,0,,,71,0
138360,note_on,23,0,5,,,,,,,,0,,,74,82
138360,note_on,61,0,6,,,,,,,,0,,,54,89
138408,note_on,48,0,5,,,,,,,,0,,,74,0
138417,note_on,57,0,6,,,,,,,,0,,,54,0
138420,note_on,12,0,5,,,,,,,,0,,,78,82
138466,note_on,46,0,5,,,,,,,,0,,,78,0
138480,note_on,14,0,5,,,,,,,,0,,,76,82
138480,note_on,63,0,6,,,,,,,,0,,,56,81
138507,note_on,27,0,5,,,,,,,,0,,,76,0
138510,note_on,3,0,5,,,,,,,,0,,,78,82
138535,note_on,25,0,5,,,,,,,,0,,,78,0
138540,note_on,5,0,5,,,,,,,,0,,,76,75
138600,note_on,120,0,6,,,,,,,,0,,,52,89
138606,note_on,66,0,5,,,,,,,,0,,,76,0
138607,note_on,7,0,6,,,,,,,,0,,,56,0
138660,note_on,54,0,5,,,,,,,,0,,,74,85
138663,note_on,56,0,6,,,,,,,,0,,,52,0
138693,note_on,33,0,5,,,,,,,,0,,,74,0
138720,note_on,1936,0,4,,,,,,,,10,,,45,72
138720,note_on,57,0,6,,,,,,,,0,,,57,105
138720,note_on,27,0,5,,,,,,,,0,,,73,75
138766,note_on,46,0,5,,,,,,,,0,,,73,0
138780,note_on,14,0,5,,,,,,,,0,,,76,96
138818,note_on,38,0,5,,,,,,,,0,,,76,0
138821,control_change,548,0,1,,,,,,,,1,7,103,,
138840,note_on,888,0,2,,,,,,,,1,,,61,58
138840,note_on,22,0,5,,,,,,,,0,,,80,96
138840,note_on,19,0,1,,,,,,,,1,,,64,35
138840,note_on,888,0,3,,,,,,,,1,,,57,58
138887,note_on,47,0,1,,,,,,,,1,,,64,0
138896,note_on,56,0,5,,,,,,,,0,,,80,0
138900,note_on,4,0,5,,,,,,,,0,,,81,88
138909,note_on,69,0,2,,,,,,,,1,,,61,0
138922,note_on,82,0,3,,,,,,,,1,,,57,0
138936,note_on,216,0,6,,,,,,,,0,,,57,0
138936,note_on,216,0,4,,,,,,,,10,,,45,0
138948,note_on,48,0,5,,,,,,,,0,,,81,0
138949,control_change,62,0,1,,,,,,,,1,7,104,,
138960,note_on,12,0,5,,,,,,,,0,,,71,90
138960,note_on,24,0,6,,,,,,,,0,,,56,127
138960,note_on,24,0,4,,,,,,,,10,,,44,89
138962,control_change,2,0,4,,,,,,,,10,7,94,,
138974,control_change,12,0,4,,,,,,,,10,7,95,,
138992,control_change,43,0,1,,,,,,,,1,7,106,,
138996,control_change,22,0,4,,,,,,,,10,7,97,,
139012,note_on,52,0,5,,,,,,,,0,,,71,0
139020,note_on,8,0,5,,,,,,,,0,,,76,90
139068,note_on,48,0,5,,,,,,,,0,,,76,0
139080,note_on,171,0,2,,,,,,,,1,,,61,39
139080,note_on,88,0,1,,,,,,,,1,,,64,22
139080,note_on,12,0,5,,,,,,,,0,,,80,82
139080,note_on,158,0,3,,,,,,,,1,,,56,64
139085,control_change,5,0,1,,,,,,,,1,7,107,,
139132,note_on,52,0,5,,,,,,,,0,,,80,0
139132,note_on,47,0,1,,,,,,,,1,,,64,0
139135,control_change,3,0,1,,,,,,,,1,7,109,,
139140,note_on,8,0,5,,,,,,,,0,,,81,82
139164,note_on,84,0,2,,,,,,,,1,,,61,0
139175,note_on,95,0,3,,,,,,,,1,,,56,0
139176,note_on,216,0,6,,,,,,,,0,,,56,0
139176,note_on,180,0,4,,,,,,,,10,,,44,0
139185,note_on,45,0,5,,,,,,,,0,,,81,0
139200,note_on,15,0,5,,,,,,,,0,,,69,75
139200,note_on,24,0,6,,,,,,,,0,,,54,111
139200,note_on,24,0,4,,,,,,,,10,,,42,81
139249,note_on,49,0,5,,,,,,,,0,,,69,0
139260,note_on,11,0,5,,,,,,,,0,,,81,82
139311,note_on,51,0,5,,,,,,,,0,,,81,0
139316,control_change,116,0,4,,,,,,,,10,7,96,,
139320,note_on,185,0,1,,,,,,,,1,,,64,30
139320,note_on,145,0,3,,,,,,,,1,,,54,77
139320,note_on,156,0,2,,,,,,,,1,,,61,39
139320,note_on,9,0,5,,,,,,,,0,,,80,88
139373,note_on,53,0,1,,,,,,,,1,,,64,0
139375,note_on,55,0,5,,,,,,,,0,,,80,0
139380,note_on,5,0,5,,,,,,,,0,,,81,82
139388,control_change,15,0,1,,,,,,,,1,7,108,,
139394,note_on,74,0,2,,,,,,,,1,,,61,0
139404,note_on,84,0,3,,,,,,,,1,,,54,0
139416,note_on,100,0,4,,,,,,,,10,,,42,0
139416,note_on,216,0,6,,,,,,,,0,,,54,0
139419,control_change,31,0,1,,,,,,,,1,7,107,,
139437,note_on,57,0,5,,,,,,,,0,,,81,0
139440,note_on,24,0,6,,,,,,,,0,,,47,108
139440,note_on,24,0,4,,,,,,,,10,,,35,89
139440,note_on,3,0,5,,,,,,,,0,,,71,66
139447,control_change,7,0,4,,,,,,,,10,7,94,,
139458,control_change,11,0,4,,,,,,,,10,7,93,,
139491,control_change,33,0,4,,,,,,,,10,7,91,,
139493,note_on,53,0,5,,,,,,,,0,,,71,0
139500,note_on,7,0,5,,,,,,,,0,,,75,102
139507,control_change,16,0,4,,,,,,,,10,7,90,,
139526,control_change,19,0,4,,,,,,,,10,7,88,,
139544,control_change,18,0,4,,,,,,,,10,7,87,,
139553,note_on,53,0,5,,,,,,,,0,,,75,0
139560,note_on,141,0,1,,,,,,,,1,,,63,35
139560,note_on,7,0,5,,,,,,,,0,,,78,102
139560,note_on,156,0,3,,,,,,,,1,,,59,77
139560,note_on,166,0,2,,,,,,,,1,,,59,35
139612,note_on,52,0,1,,,,,,,,1,,,63,0
139613,control_change,1,0,1,,,,,,,,1,7,109,,
139613,note_on,53,0,5,,,,,,,,0,,,78,0
139613,note_on,53,0,3,,,,,,,,1,,,59,0
139618,note_on,58,0,2,,,,,,,,1,,,59,0
139620,note_on,7,0,5,,,,,,,,0,,,81,85
139656,note_on,112,0,4,,,,,,,,10,,,35,0
139656,note_on,216,0,6,,,,,,,,0,,,47,0
139670,note_on,50,0,5,,,,,,,,0,,,81,0
139680,note_on,24,0,6,,,,,,,,0,,,52,102
139680,note_on,10,0,5,,,,,,,,0,,,80,82
139680,note_on,67,0,3,,,,,,,,1,,,52,61
139680,note_on,62,0,2,,,,,,,,1,,,59,26
139680,note_on,67,0,1,,,,,,,,1,,,64,18
139680,note_on,24,0,4,,,,,,,,10,,,40,79
139695,control_change,15,0,4,,,,,,,,10,7,85,,
139704,control_change,9,0,4,,,,,,,,10,7,84,,
139725,control_change,21,0,4,,,,,,,,10,7,82,,
139732,note_on,52,0,5,,,,,,,,0,,,80,0
139740,note_on,8,0,5,,,,,,,,0,,,76,73
139744,control_change,19,0,4,,,,,,,,10,7,81,,
139760,control_change,16,0,4,,,,,,,,10,7,79,,
139769,control_change,9,0,4,,,,,,,,10,7,76,,
139784,note_on,44,0,5,,,,,,,,0,,,76,0
139800,note_on,16,0,5,,,,,,,,0,,,71,82
139831,note_on,31,0,5,,,,,,,,0,,,71,0
139860,note_on,29,0,5,,,,,,,,0,,,68,93
139896,note_on,216,0,6,,,,,,,,0,,,52,0
139896,note_on,36,0,5,,,,,,,,0,,,68,0
139920,note_on,24,0,5,,,,,,,,0,,,64,79
139960,note_on,40,0,5,,,,,,,,0,,,64,0
139980,note_on,84,0,6,,,,,,,,0,,,54,93
139980,note_on,20,0,5,,,,,,,,0,,,71,82
140018,note_on,38,0,5,,,,,,,,0,,,71,0
140036,note_on,56,0,6,,,,,,,,0,,,54,0
140040,note_on,22,0,5,,,,,,,,0,,,73,73
140040,note_on,4,0,6,,,,,,,,0,,,52,102
140088,note_on,48,0,5,,,,,,,,0,,,73,0
140095,note_on,55,0,6,,,,,,,,0,,,52,0
140100,note_on,12,0,5,,,,,,,,0,,,74,102
140100,note_on,5,0,6,,,,,,,,0,,,50,81
140112,note_on,432,0,1,,,,,,,,1,,,64,0
140112,note_on,343,0,4,,,,,,,,10,,,40,0
140112,note_on,432,0,2,,,,,,,,1,,,59,0
140112,note_on,432,0,3,,,,,,,,1,,,52,0
140144,note_on,44,0,5,,,,,,,,0,,,74,0
140157,note_on,57,0,6,,,,,,,,0,,,50,0
140160,note_on,48,0,2,,,,,,,,1,,,68,84
140160,note_on,16,0,5,,,,,,,,0,,,76,93
140160,note_on,48,0,3,,,,,,,,1,,,61,127
140160,note_on,48,0,4,,,,,,,,10,,,37,86
140160,note_on,3,0,6,,,,,,,,0,,,49,64
140160,note_on,48,0,1,,,,,,,,1,,,76,96
140174,aftertouch,14,0,5,,,,,,,,0,,12,,
140175,aftertouch,15,0,6,,,,,,,,0,,12,,
140175,aftertouch,1,0,5,,,,,,,,0,,12,,
140182,note_on,22,0,3,,,,,,,,1,,,61,0
140185,note_on,25,0,1,,,,,,,,1,,,76,0
140187,aftertouch,12,0,6,,,,,,,,0,,6,,
140187,aftertouch,12,0,5,,,,,,,,0,,6,,
140187,aftertouch,0,0,5,,,,,,,,0,,6,,
140189,note_on,29,0,2,,,,,,,,1,,,68,0
140196,note_on,36,0,4,,,,,,,,10,,,37,0
140199,note_on,12,0,5,,,,,,,,0,,,76,0
140217,note_on,30,0,6,,,,,,,,0,,,49,0
140220,note_on,38,0,3,,,,,,,,1,,,61,127
140220,note_on,3,0,6,,,,,,,,0,,,50,64
140220,note_on,21,0,5,,,,,,,,0,,,64,75
140220,note_on,31,0,2,,,,,,,,1,,,68,96
140220,note_on,24,0,4,,,,,,,,10,,,38,123
140220,note_on,35,0,1,,,,,,,,1,,,76,84
140223,aftertouch,3,0,4,,,,,,,,10,,25,,
140230,aftertouch,7,0,4,,,,,,,,10,,0,,
140233,aftertouch,3,0,4,,,,,,,,10,,12,,
140241,aftertouch,8,0,4,,,,,,,,10,,0,,
140242,note_on,22,0,3,,,,,,,,1,,,61,0
140243,note_on,23,0,1,,,,,,,,1,,,76,0
140243,aftertouch,2,0,4,,,,,,,,10,,6,,
140246,note_on,26,0,2,,,,,,,,1,,,68,0
140248,control_change,5,0,4,,,,,,,,10,7,77,,
140252,aftertouch,4,0,4,,,,,,,,10,,0,,
140254,aftertouch,2,0,4,,,,,,,,10,,3,,
140256,note_on,36,0,5,,,,,,,,0,,,64,0
140263,aftertouch,9,0,4,,,,,,,,10,,0,,
140265,aftertouch,2,0,4,,,,,,,,10,,1,,
140266,control_change,0,0,4,,,,,,,,10,7,79,,
140266,aftertouch,1,0,4,,,,,,,,10,,0,,
140267,note_on,1,0,4,,,,,,,,10,,,38,0
140277,note_on,57,0,6,,,,,,,,0,,,50,0
140280,control_change,0,0,4,,,,,,,,10,7,80,,
140280,note_on,37,0,1,,,,,,,,1,,,76,124
140280,note_on,24,0,5,,,,,,,,0,,,76,90
140280,note_on,38,0,3,,,,,,,,1,,,61,117
140280,note_on,3,0,6,,,,,,,,0,,,52,84
140280,note_on,13,0,4,,,,,,,,10,,,40,124
140280,note_on,34,0,2,,,,,,,,1,,,68,123
140292,control_change,12,0,4,,,,,,,,10,7,82,,
140301,control_change,9,0,4,,,,,,,,10,7,83,,
140303,note_on,23,0,1,,,,,,,,1,,,76,0
140306,note_on,26,0,3,,,,,,,,1,,,61,0
140309,note_on,29,0,2,,,,,,,,1,,,68,0
140312,control_change,9,0,1,,,,,,,,1,7,110,,
140312,note_on,11,0,4,,,,,,,,10,,,40,0
140317,control_change,5,0,4,,,,,,,,10,7,85,,
140326,control_change,9,0,4,,,,,,,,10,7,86,,
140326,note_on,46,0,5,,,,,,,,0,,,76,0
140333,note_on,53,0,6,,,,,,,,0,,,52,0
140334,control_change,8,0,4,,,,,,,,10,7,88,,
140340,note_on,28,0,1,,,,,,,,1,,,76,123
140340,note_on,7,0,6,,,,,,,,0,,,54,111
140340,note_on,34,0,3,,,,,,,,1,,,61,93
140340,note_on,6,0,4,,,,,,,,10,,,42,127
140340,note_on,31,0,2,,,,,,,,1,,,68,127
140340,note_on,14,0,5,,,,,,,,0,,,64,90
140343,control_change,3,0,4,,,,,,,,10,7,89,,
140359,control_change,16,0,4,,,,,,,,10,7,91,,
140362,note_on,22,0,1,,,,,,,,1,,,76,0
140366,note_on,26,0,3,,,,,,,,1,,,61,0
140367,note_on,27,0,2,,,,,,,,1,,,68,0
140378,note_on,38,0,5,,,,,,,,0,,,64,0
140385,note_on,45,0,6,,,,,,,,0,,,54,0
140387,control_change,28,0,4,,,,,,,,10,7,92,,
140395,note_on,8,0,4,,,,,,,,10,,,42,0
140400,note_on,22,0,5,,,,,,,,0,,,76,117
140400,note_on,38,0,1,,,,,,,,1,,,76,126
140400,note_on,33,0,2,,,,,,,,1,,,68,127
140400,note_on,34,0,3,,,,,,,,1,,,61,127
140400,note_on,15,0,6,,,,,,,,0,,,56,64
140400,note_on,5,0,4,,,,,,,,10,,,44,127
140403,control_change,3,0,4,,,,,,,,10,7,94,,
140422,note_on,22,0,1,,,,,,,,1,,,76,0
140425,note_on,25,0,3,,,,,,,,1,,,61,0
140426,note_on,26,0,2,,,,,,,,1,,,68,0
140427,control_change,24,0,4,,,,,,,,10,7,95,,
140447,note_on,20,0,4,,,,,,,,10,,,44,0
140448,note_on,48,0,5,,,,,,,,0,,,76,0
140457,note_on,57,0,6,,,,,,,,0,,,56,0
140460,note_on,12,0,5,,,,,,,,0,,,64,96
140460,note_on,38,0,1,,,,,,,,1,,,76,93
140460,note_on,34,0,2,,,,,,,,1,,,68,111
140460,note_on,3,0,6,,,,,,,,0,,,57,102
140460,note_on,13,0,4,,,,,,,,10,,,45,108
140460,note_on,35,0,3,,,,,,,,1,,,61,127
140464,control_change,4,0,1,,,,,,,,1,7,112,,
140466,control_change,6,0,4,,,,,,,,10,7,97,,
140481,note_on,17,0,1,,,,,,,,1,,,76,0
140485,note_on,25,0,2,,,,,,,,1,,,68,0
140488,note_on,28,0,3,,,,,,,,1,,,61,0
140498,note_on,32,0,4,,,,,,,,10,,,45,0
140506,note_on,46,0,6,,,,,,,,0,,,57,0
140508,note_on,48,0,5,,,,,,,,0,,,64,0
140511,control_change,30,0,1,,,,,,,,1,7,113,,
140520,note_on,9,0,1,,,,,,,,1,,,76,114
140520,note_on,12,0,5,,,,,,,,0,,,76,110
140520,note_on,32,0,3,,,,,,,,1,,,61,127
140520,note_on,14,0,6,,,,,,,,0,,,59,79
140520,note_on,35,0,2,,,,,,,,1,,,68,127
140520,note_on,22,0,4,,,,,,,,10,,,47,102
140523,control_change,3,0,4,,,,,,,,10,7,98,,
140540,note_on,20,0,1,,,,,,,,1,,,76,0
140544,note_on,24,0,2,,,,,,,,1,,,68,0
140547,note_on,27,0,3,,,,,,,,1,,,61,0
140557,note_on,37,0,6,,,,,,,,0,,,59,0
140558,note_on,35,0,4,,,,,,,,10,,,47,0
140570,note_on,50,0,5,,,,,,,,0,,,76,0
140573,control_change,15,0,4,,,,,,,,10,7,100,,
140576,aftertouch,29,0,3,,,,,,,,1,,6,,
140576,aftertouch,3,0,4,,,,,,,,10,,6,,
140578,aftertouch,2,0,3,,,,,,,,1,,0,,
140579,aftertouch,1,0,3,,,,,,,,1,,3,,
140580,note_on,36,0,2,,,,,,,,1,,,68,127
140580,note_on,23,0,6,,,,,,,,0,,,61,81
140580,note_on,1,0,3,,,,,,,,1,,,61,127
140580,aftertouch,0,0,4,,,,,,,,10,,3,,
140580,note_on,4,0,4,,,,,,,,10,,,49,123
140580,note_on,40,0,1,,,,,,,,1,,,76,127
140580,note_on,10,0,5,,,,,,,,0,,,64,127
140586,aftertouch,6,0,3,,,,,,,,1,,0,,
140588,aftertouch,2,0,3,,,,,,,,1,,1,,
140588,control_change,0,0,4,,,,,,,,10,7,101,,
140588,aftertouch,8,0,4,,,,,,,,10,,1,,
140595,aftertouch,7,0,3,,,,,,,,1,,0,,
140599,note_on,19,0,1,,,,,,,,1,,,76,0
140603,note_on,23,0,2,,,,,,,,1,,,68,0
140606,note_on,11,0,3,,,,,,,,1,,,61,0
140610,note_on,30,0,6,,,,,,,,0,,,61,0
140628,note_on,48,0,5,,,,,,,,0,,,64,0
140631,note_on,43,0,4,,,,,,,,10,,,49,0
140640,note_on,30,0,6,,,,,,,,0,,,54,93
140640,note_on,9,0,4,,,,,,,,10,,,42,117
140640,note_on,41,0,1,,,,,,,,1,,,76,127
140640,note_on,12,0,5,,,,,,,,0,,,76,127
140640,note_on,34,0,3,,,,,,,,1,,,61,127
140640,note_on,37,0,2,,,,,,,,1,,,70,127
140648,aftertouch,8,0,5,,,,,,,,0,,38,,
140649,aftertouch,1,0,5,,,,,,,,0,,38,,
140649,aftertouch,9,0,6,,,,,,,,0,,38,,
140658,control_change,18,0,4,,,,,,,,10,7,100,,
140659,aftertouch,10,0,5,,,,,,,,0,,19,,
140660,aftertouch,1,0,5,,,,,,,,0,,19,,
140660,aftertouch,11,0,6,,,,,,,,0,,19,,
140666,control_change,8,0,4,,,,,,,,10,7,99,,
140672,aftertouch,0,0,5,,,,,,,,0,,12,,
140672,aftertouch,12,0,6,,,,,,,,0,,12,,
140672,aftertouch,12,0,5,,,,,,,,0,,12,,
140675,control_change,9,0,4,,,,,,,,10,7,97,,
140684,aftertouch,12,0,5,,,,,,,,0,,6,,
140684,aftertouch,0,0,5,,,,,,,,0,,6,,
140684,aftertouch,12,0,6,,,,,,,,0,,6,,
140685,control_change,10,0,4,,,,,,,,10,7,96,,
140692,note_on,8,0,5,,,,,,,,0,,,76,0
140695,note_on,55,0,1,,,,,,,,1,,,76,0
140695,aftertouch,3,0,5,,,,,,,,0,,3,,
140696,aftertouch,12,0,6,,,,,,,,0,,3,,
140696,aftertouch,1,0,5,,,,,,,,0,,3,,
140698,control_change,13,0,4,,,,,,,,10,7,94,,
140700,note_on,4,0,6,,,,,,,,0,,,58,69
140700,note_on,4,0,5,,,,,,,,0,,,73,102
140707,control_change,9,0,4,,,,,,,,10,7,93,,
140709,note_on,9,0,6,,,,,,,,0,,,54,0
140724,control_change,17,0,4,,,,,,,,10,7,91,,
140733,control_change,9,0,4,,,,,,,,10,7,90,,
140742,control_change,9,0,4,,,,,,,,10,7,88,,
140750,control_change,8,0,4,,,,,,,,10,7,87,,
140754,note_on,54,0,5,,,,,,,,0,,,73,0
140755,note_on,46,0,6,,,,,,,,0,,,58,0
140759,control_change,9,0,4,,,,,,,,10,7,85,,
140760,note_on,6,0,5,,,,,,,,0,,,70,102
140760,note_on,5,0,6,,,,,,,,0,,,61,89
140812,note_on,52,0,5,,,,,,,,0,,,70,0
140816,note_on,56,0,6,,,,,,,,0,,,61,0
140820,note_on,4,0,6,,,,,,,,0,,,64,77
140820,note_on,8,0,5,,,,,,,,0,,,66,88
140824,control_change,129,0,1,,,,,,,,1,7,111,,
140846,note_on,26,0,6,,,,,,,,0,,,64,0
140847,note_on,27,0,5,,,,,,,,0,,,66,0
140856,note_on,216,0,2,,,,,,,,1,,,70,0
140856,note_on,216,0,3,,,,,,,,1,,,61,0
140856,note_on,97,0,4,,,,,,,,10,,,42,0
140858,control_change,34,0,1,,,,,,,,1,7,110,,
140880,note_on,34,0,6,,,,,,,,0,,,64,114
140880,note_on,33,0,5,,,,,,,,0,,,66,88
140887,control_change,31,0,4,,,,,,,,10,7,84,,
140892,control_change,34,0,1,,,,,,,,1,7,108,,
140896,control_change,9,0,4,,,,,,,,10,7,82,,
140910,control_change,14,0,4,,,,,,,,10,7,81,,
140935,note_on,55,0,5,,,,,,,,0,,,66,0
140936,note_on,56,0,6,,,,,,,,0,,,64,0
140940,note_on,4,0,6,,,,,,,,0,,,61,89
140940,note_on,5,0,5,,,,,,,,0,,,70,110
140940,control_change,30,0,4,,,,,,,,10,7,79,,
140951,control_change,11,0,4,,,,,,,,10,7,78,,
140952,control_change,60,0,1,,,,,,,,1,7,107,,
140963,control_change,12,0,4,,,,,,,,10,7,76,,
140986,control_change,23,0,4,,,,,,,,10,7,75,,
140989,note_on,49,0,5,,,,,,,,0,,,70,0
140999,note_on,59,0,6,,,,,,,,0,,,61,0
141000,note_on,11,0,5,,,,,,,,0,,,73,102
141000,note_on,1,0,6,,,,,,,,0,,,58,58
141016,control_change,30,0,4,,,,,,,,10,7,73,,
141032,control_change,16,0,4,,,,,,,,10,7,72,,
141047,control_change,15,0,4,,,,,,,,10,7,70,,
141048,note_on,48,0,5,,,,,,,,0,,,73,0
141057,note_on,57,0,6,,,,,,,,0,,,58,0
141060,note_on,12,0,5,,,,,,,,0,,,76,102
141060,note_on,3,0,6,,,,,,,,0,,,54,89
141097,note_on,37,0,6,,,,,,,,0,,,54,0
141105,note_on,45,0,5,,,,,,,,0,,,76,0
141120,note_on,264,0,3,,,,,,,,1,,,66,127
141120,note_on,73,0,4,,,,,,,,10,,,35,84
141120,note_on,23,0,6,,,,,,,,0,,,47,72
141120,note_on,15,0,5,,,,,,,,0,,,74,102
141120,note_on,264,0,2,,,,,,,,1,,,71,127
141120,note_on,168,0,1,,,,,,,,1,,,74,127
141144,note_on,24,0,3,,,,,,,,1,,,66,0
141146,note_on,26,0,1,,,,,,,,1,,,74,0
141148,note_on,28,0,2,,,,,,,,1,,,71,0
141166,note_on,46,0,4,,,,,,,,10,,,35,0
141168,note_on,48,0,5,,,,,,,,0,,,74,0
141179,note_on,59,0,6,,,,,,,,0,,,47,0
141180,note_on,36,0,3,,,,,,,,1,,,66,124
141180,note_on,1,0,6,,,,,,,,0,,,49,111
141180,note_on,12,0,5,,,,,,,,0,,,62,63
141180,note_on,34,0,1,,,,,,,,1,,,74,111
141180,note_on,32,0,2,,,,,,,,1,,,71,111
141180,note_on,14,0,4,,,,,,,,10,,,37,127
141192,aftertouch,0,0,5,,,,,,,,0,,18,,
141192,aftertouch,12,0,5,,,,,,,,0,,18,,
141192,control_change,12,0,4,,,,,,,,10,7,71,,
141192,aftertouch,12,0,6,,,,,,,,0,,18,,
141203,aftertouch,0,0,5,,,,,,,,0,,9,,
141203,aftertouch,11,0,6,,,,,,,,0,,9,,
141203,aftertouch,11,0,5,,,,,,,,0,,9,,
141206,note_on,26,0,3,,,,,,,,1,,,66,0
141208,note_on,28,0,2,,,,,,,,1,,,71,0
141209,note_on,29,0,1,,,,,,,,1,,,74,0
141215,control_change,23,0,4,,,,,,,,10,7,73,,
141219,note_on,16,0,5,,,,,,,,0,,,62,0
141223,note_on,8,0,4,,,,,,,,10,,,37,0
141228,control_change,5,0,4,,,,,,,,10,7,74,,
141236,control_change,8,0,4,,,,,,,,10,7,76,,
141236,control_change,27,0,1,,,,,,,,1,7,109,,
141237,note_on,34,0,6,,,,,,,,0,,,49,0
141240,note_on,32,0,2,,,,,,,,1,,,71,120
141240,note_on,3,0,6,,,,,,,,0,,,50,86
141240,note_on,4,0,4,,,,,,,,10,,,38,125
141240,note_on,21,0,5,,,,,,,,0,,,74,90
141240,note_on,4,0,1,,,,,,,,1,,,74,111
141240,note_on,34,0,3,,,,,,,,1,,,66,124
141245,control_change,5,0,4,,,,,,,,10,7,77,,
141263,control_change,18,0,4,,,,,,,,10,7,79,,
141264,note_on,24,0,3,,,,,,,,1,,,66,0
141266,note_on,26,0,1,,,,,,,,1,,,74,0
141268,note_on,28,0,2,,,,,,,,1,,,71,0
141275,control_change,9,0,1,,,,,,,,1,7,110,,
141276,control_change,13,0,4,,,,,,,,10,7,80,,
141286,note_on,46,0,6,,,,,,,,0,,,50,0
141286,note_on,10,0,4,,,,,,,,10,,,38,0
141288,note_on,48,0,5,,,,,,,,0,,,74,0
141289,control_change,3,0,4,,,,,,,,10,7,82,,
141298,control_change,9,0,4,,,,,,,,10,7,83,,
141300,note_on,2,0,4,,,,,,,,10,,,40,102
141300,note_on,14,0,6,,,,,,,,0,,,52,89
141300,note_on,25,0,1,,,,,,,,1,,,74,117
141300,note_on,12,0,5,,,,,,,,0,,,62,82
141300,note_on,32,0,2,,,,,,,,1,,,71,86
141300,note_on,36,0,3,,,,,,,,1,,,66,127
141320,control_change,20,0,4,,,,,,,,10,7,85,,
141324,note_on,24,0,3,,,,,,,,1,,,66,0
141326,note_on,26,0,1,,,,,,,,1,,,74,0
141330,control_change,10,0,4,,,,,,,,10,7,86,,
141333,note_on,33,0,2,,,,,,,,1,,,71,0
141339,note_on,39,0,5,,,,,,,,0,,,62,0
141340,control_change,10,0,4,,,,,,,,10,7,88,,
141342,note_on,42,0,6,,,,,,,,0,,,52,0
141343,note_on,3,0,4,,,,,,,,10,,,40,0
141349,control_change,6,0,4,,,,,,,,10,7,89,,
141360,note_on,34,0,1,,,,,,,,1,,,74,93
141360,note_on,27,0,2,,,,,,,,1,,,69,99
141360,note_on,36,0,3,,,,,,,,1,,,66,127
141360,note_on,18,0,6,,,,,,,,0,,,54,61
141360,note_on,21,0,5,,,,,,,,0,,,74,124
141360,note_on,11,0,4,,,,,,,,10,,,42,127
141384,note_on,24,0,1,,,,,,,,1,,,74,0
141384,note_on,24,0,3,,,,,,,,1,,,66,0
141387,note_on,27,0,2,,,,,,,,1,,,69,0
141387,control_change,27,0,4,,,,,,,,10,7,91,,
141390,note_on,3,0,4,,,,,,,,10,,,42,0
141396,control_change,6,0,4,,,,,,,,10,7,92,,
141406,control_change,10,0,4,,,,,,,,10,7,94,,
141409,note_on,49,0,5,,,,,,,,0,,,74,0
141415,note_on,55,0,6,,,,,,,,0,,,54,0
141420,note_on,5,0,6,,,,,,,,0,,,56,77
141420,note_on,14,0,4,,,,,,,,10,,,44,93
141420,note_on,36,0,1,,,,,,,,1,,,74,96
141420,note_on,11,0,5,,,,,,,,0,,,62,102
141420,note_on,36,0,3,,,,,,,,1,,,66,127
141420,note_on,33,0,2,,,,,,,,1,,,69,127
141424,control_change,4,0,4,,,,,,,,10,7,95,,
141433,control_change,13,0,1,,,,,,,,1,7,112,,
141443,note_on,10,0,1,,,,,,,,1,,,74,0
141446,note_on,26,0,2,,,,,,,,1,,,69,0
141446,note_on,26,0,3,,,,,,,,1,,,66,0
141453,note_on,29,0,4,,,,,,,,10,,,44,0
141462,note_on,42,0,5,,,,,,,,0,,,62,0
141470,control_change,27,0,1,,,,,,,,1,7,113,,
141470,control_change,17,0,4,,,,,,,,10,7,97,,
141479,note_on,59,0,6,,,,,,,,0,,,56,0
141480,note_on,10,0,4,,,,,,,,10,,,45,117
141480,note_on,34,0,2,,,,,,,,1,,,69,120
141480,note_on,1,0,6,,,,,,,,0,,,57,77
141480,note_on,34,0,3,,,,,,,,1,,,66,127
141480,note_on,10,0,1,,,,,,,,1,,,74,93
141480,note_on,18,0,5,,,,,,,,0,,,74,127
141483,aftertouch,3,0,6,,,,,,,,0,,6,,
141483,aftertouch,3,0,5,,,,,,,,0,,6,,
141483,aftertouch,0,0,5,,,,,,,,0,,6,,
141493,aftertouch,10,0,5,,,,,,,,0,,3,,
141494,aftertouch,11,0,6,,,,,,,,0,,3,,
141494,aftertouch,1,0,5,,,,,,,,0,,3,,
141494,control_change,14,0,4,,,,,,,,10,7,98,,
141502,note_on,22,0,1,,,,,,,,1,,,74,0
141504,note_on,24,0,3,,,,,,,,1,,,66,0
141507,note_on,27,0,2,,,,,,,,1,,,69,0
141516,control_change,22,0,4,,,,,,,,10,7,100,,
141517,note_on,23,0,6,,,,,,,,0,,,57,0
141520,note_on,4,0,4,,,,,,,,10,,,45,0
141531,note_on,37,0,5,,,,,,,,0,,,74,0
141540,note_on,9,0,5,,,,,,,,0,,,62,127
141540,note_on,23,0,6,,,,,,,,0,,,59,69
141540,note_on,38,0,1,,,,,,,,1,,,74,84
141540,note_on,33,0,2,,,,,,,,1,,,69,114
141540,note_on,20,0,4,,,,,,,,10,,,47,99
141540,note_on,36,0,3,,,,,,,,1,,,66,127
141559,note_on,19,0,1,,,,,,,,1,,,74,0
141564,note_on,24,0,3,,,,,,,,1,,,66,0
141570,control_change,30,0,4,,,,,,,,10,7,101,,
141572,control_change,2,0,4,,,,,,,,10,7,100,,
141575,note_on,35,0,2,,,,,,,,1,,,69,0
141580,note_on,40,0,5,,,,,,,,0,,,62,0
141582,note_on,10,0,4,,,,,,,,10,,,47,0
141582,control_change,0,0,4,,,,,,,,10,7,99,,
141596,note_on,56,0,6,,,,,,,,0,,,59,0
141597,control_change,15,0,4,,,,,,,,10,7,97,,
141600,note_on,20,0,5,,,,,,,,0,,,74,127
141600,note_on,25,0,2,,,,,,,,1,,,68,111
141600,note_on,3,0,4,,,,,,,,10,,,40,126
141600,note_on,41,0,1,,,,,,,,1,,,74,127
141600,note_on,36,0,3,,,,,,,,1,,,64,127
141600,note_on,4,0,6,,,,,,,,0,,,52,72
141607,control_change,7,0,4,,,,,,,,10,7,96,,
141619,control_change,12,0,4,,,,,,,,10,7,94,,
141630,control_change,11,0,4,,,,,,,,10,7,93,,
141646,control_change,16,0,4,,,,,,,,10,7,91,,
141656,note_on,56,0,6,,,,,,,,0,,,52,0
141657,note_on,57,0,5,,,,,,,,0,,,74,0
141657,control_change,11,0,4,,,,,,,,10,7,90,,
141660,note_on,3,0,5,,,,,,,,0,,,71,98
141660,note_on,4,0,6,,,,,,,,0,,,56,61
141669,control_change,12,0,4,,,,,,,,10,7,88,,
141679,control_change,10,0,4,,,,,,,,10,7,87,,
141696,control_change,17,0,4,,,,,,,,10,7,85,,
141705,control_change,9,0,4,,,,,,,,10,7,84,,
141709,note_on,49,0,5,,,,,,,,0,,,71,0
141716,note_on,56,0,6,,,,,,,,0,,,56,0
141718,control_change,13,0,4,,,,,,,,10,7,82,,
141718,control_change,118,0,1,,,,,,,,1,7,111,,
141720,note_on,4,0,6,,,,,,,,0,,,59,74
141720,note_on,11,0,5,,,,,,,,0,,,68,82
141774,note_on,54,0,6,,,,,,,,0,,,59,0
141777,note_on,57,0,5,,,,,,,,0,,,68,0
141780,note_on,3,0,5,,,,,,,,0,,,64,79
141780,note_on,6,0,6,,,,,,,,0,,,62,77
141806,note_on,26,0,5,,,,,,,,0,,,64,0
141809,note_on,29,0,6,,,,,,,,0,,,62,0
141816,note_on,98,0,1,,,,,,,,1,,,74,0
141816,note_on,98,0,4,,,,,,,,10,,,40,0
141816,note_on,216,0,3,,,,,,,,1,,,64,0
141816,note_on,216,0,2,,,,,,,,1,,,68,0
141840,note_on,31,0,6,,,,,,,,0,,,62,79
141840,note_on,34,0,5,,,,,,,,0,,,64,93
141856,control_change,40,0,4,,,,,,,,10,7,81,,
141860,control_change,44,0,1,,,,,,,,1,7,110,,
141880,control_change,20,0,1,,,,,,,,1,7,108,,
141889,note_on,49,0,5,,,,,,,,0,,,64,0
141896,note_on,56,0,6,,,,,,,,0,,,62,0
141900,note_on,4,0,6,,,,,,,,0,,,59,66
141900,note_on,11,0,5,,,,,,,,0,,,68,82
141913,control_change,57,0,4,,,,,,,,10,7,79,,
141946,control_change,66,0,1,,,,,,,,1,7,107,,
141954,note_on,54,0,5,,,,,,,,0,,,68,0
141956,note_on,56,0,6,,,,,,,,0,,,59,0
141960,note_on,6,0,5,,,,,,,,0,,,71,96
141960,note_on,4,0,6,,,,,,,,0,,,56,89
142014,note_on,54,0,5,,,,,,,,0,,,71,0
142015,note_on,55,0,6,,,,,,,,0,,,56,0
142020,note_on,6,0,5,,,,,,,,0,,,74,90
142020,note_on,5,0,6,,,,,,,,0,,,52,69
142046,control_change,133,0,4,,,,,,,,10,7,80,,
142048,note_on,28,0,6,,,,,,,,0,,,52,0
142069,control_change,23,0,4,,,,,,,,10,7,82,,
142077,note_on,57,0,5,,,,,,,,0,,,74,0
142080,note_on,3,0,5,,,,,,,,0,,,73,93
142080,note_on,134,0,1,,,,,,,,1,,,73,108
142080,note_on,264,0,2,,,,,,,,1,,,69,117
142080,note_on,264,0,3,,,,,,,,1,,,64,93
142080,note_on,32,0,6,,,,,,,,0,,,45,81
142080,note_on,11,0,4,,,,,,,,10,,,33,96
142084,control_change,4,0,4,,,,,,,,10,7,83,,
142100,note_on,20,0,3,,,,,,,,1,,,64,0
142109,note_on,29,0,2,,,,,,,,1,,,69,0
142109,note_on,29,0,1,,,,,,,,1,,,73,0
142114,control_change,30,0,4,,,,,,,,10,7,85,,
142120,note_on,6,0,4,,,,,,,,10,,,33,0
142128,note_on,48,0,5,,,,,,,,0,,,73,0
142132,control_change,12,0,4,,,,,,,,10,7,86,,
142137,note_on,57,0,6,,,,,,,,0,,,45,0
142140,note_on,31,0,1,,,,,,,,1,,,73,93
142140,note_on,8,0,4,,,,,,,,10,,,35,124
142140,note_on,31,0,2,,,,,,,,1,,,69,120
142140,note_on,3,0,6,,,,,,,,0,,,47,84
142140,note_on,12,0,5,,,,,,,,0,,,61,70
142140,note_on,40,0,3,,,,,,,,1,,,64,99
142149,control_change,9,0,4,,,,,,,,10,7,88,,
142166,note_on,26,0,3,,,,,,,,1,,,64,0
142167,note_on,27,0,1,,,,,,,,1,,,73,0
142173,note_on,33,0,2,,,,,,,,1,,,69,0
142173,control_change,24,0,4,,,,,,,,10,7,89,,
142182,note_on,42,0,5,,,,,,,,0,,,61,0
142186,note_on,13,0,4,,,,,,,,10,,,35,0
142195,note_on,55,0,6,,,,,,,,0,,,47,0
142200,note_on,34,0,3,,,,,,,,1,,,64,96
142200,note_on,33,0,1,,,,,,,,1,,,73,74
142200,note_on,27,0,2,,,,,,,,1,,,69,89
142200,note_on,18,0,5,,,,,,,,0,,,73,96
142200,note_on,5,0,6,,,,,,,,0,,,49,105
142200,note_on,14,0,4,,,,,,,,10,,,37,127
142214,control_change,14,0,4,,,,,,,,10,7,91,,
142225,note_on,25,0,3,,,,,,,,1,,,64,0
142226,note_on,26,0,1,,,,,,,,1,,,73,0
142227,note_on,27,0,2,,,,,,,,1,,,69,0
142236,control_change,22,0,4,,,,,,,,10,7,92,,
142245,note_on,45,0,6,,,,,,,,0,,,49,0
142248,note_on,12,0,4,,,,,,,,10,,,37,0
142254,note_on,54,0,5,,,,,,,,0,,,73,0
142260,note_on,35,0,3,,,,,,,,1,,,64,111
142260,note_on,6,0,5,,,,,,,,0,,,61,110
142260,note_on,15,0,6,,,,,,,,0,,,50,74
142260,note_on,34,0,1,,,,,,,,1,,,73,105
142260,note_on,33,0,2,,,,,,,,1,,,69,93
142260,note_on,12,0,4,,,,,,,,10,,,38,108
142263,control_change,3,0,4,,,,,,,,10,7,94,,
142271,control_change,11,0,1,,,,,,,,1,7,109,,
142282,control_change,19,0,4,,,,,,,,10,7,95,,
142284,note_on,13,0,1,,,,,,,,1,,,73,0
142285,note_on,25,0,3,,,,,,,,1,,,64,0
142288,note_on,28,0,2,,,,,,,,1,,,69,0
142298,note_on,38,0,5,,,,,,,,0,,,61,0
142306,note_on,24,0,4,,,,,,,,10,,,38,0
142310,aftertouch,0,0,4,,,,,,,,10,,6,,
142310,aftertouch,22,0,2,,,,,,,,1,,6,,
142310,aftertouch,25,0,3,,,,,,,,1,,6,,
142310,control_change,4,0,4,,,,,,,,10,7,97,,
142314,note_on,54,0,6,,,,,,,,0,,,50,0
142319,aftertouch,9,0,2,,,,,,,,1,,0,,
142320,note_on,22,0,5,,,,,,,,0,,,73,110
142320,note_on,10,0,3,,,,,,,,1,,,64,89
142320,note_on,36,0,1,,,,,,,,1,,,73,120
142320,note_on,10,0,4,,,,,,,,10,,,40,114
142320,note_on,1,0,2,,,,,,,,1,,,69,96
142320,note_on,6,0,6,,,,,,,,0,,,52,69
142321,aftertouch,1,0,3,,,,,,,,1,,3,,
142321,aftertouch,1,0,4,,,,,,,,10,,3,,
142321,aftertouch,1,0,2,,,,,,,,1,,3,,
142329,aftertouch,8,0,2,,,,,,,,1,,0,,
142332,aftertouch,11,0,4,,,,,,,,10,,1,,
142332,aftertouch,11,0,3,,,,,,,,1,,1,,
142332,aftertouch,3,0,2,,,,,,,,1,,1,,
142333,aftertouch,1,0,2,,,,,,,,1,,0,,
142338,control_change,6,0,4,,,,,,,,10,7,98,,
142344,note_on,12,0,3,,,,,,,,1,,,64,0
142345,note_on,12,0,2,,,,,,,,1,,,69,0
142345,note_on,25,0,1,,,,,,,,1,,,73,0
142357,control_change,19,0,4,,,,,,,,10,7,100,,
142358,note_on,1,0,4,,,,,,,,10,,,40,0
142364,note_on,44,0,5,,,,,,,,0,,,73,0
142372,note_on,52,0,6,,,,,,,,0,,,52,0
142375,control_change,17,0,4,,,,,,,,10,7,101,,
142380,note_on,16,0,5,,,,,,,,0,,,61,120
142380,note_on,35,0,1,,,,,,,,1,,,73,99
142380,note_on,5,0,4,,,,,,,,10,,,42,111
142380,note_on,35,0,2,,,,,,,,1,,,69,89
142380,note_on,8,0,6,,,,,,,,0,,,54,66
142380,note_on,36,0,3,,,,,,,,1,,,64,96
142387,control_change,7,0,1,,,,,,,,1,7,110,,
142402,note_on,15,0,1,,,,,,,,1,,,73,0
142404,note_on,24,0,3,,,,,,,,1,,,64,0
142408,note_on,28,0,2,,,,,,,,1,,,69,0
142418,note_on,38,0,4,,,,,,,,10,,,42,0
142422,note_on,42,0,5,,,,,,,,0,,,61,0
142434,note_on,54,0,6,,,,,,,,0,,,54,0
142439,control_change,21,0,4,,,,,,,,10,7,103,,
142440,note_on,6,0,6,,,,,,,,0,,,56,81
142440,note_on,38,0,1,,,,,,,,1,,,73,111
142440,note_on,1,0,4,,,,,,,,10,,,44,96
142440,note_on,36,0,3,,,,,,,,1,,,64,102
142440,note_on,32,0,2,,,,,,,,1,,,69,96
142440,note_on,18,0,5,,,,,,,,0,,,73,120
142463,note_on,23,0,1,,,,,,,,1,,,73,0
142465,note_on,25,0,3,,,,,,,,1,,,64,0
142467,note_on,27,0,2,,,,,,,,1,,,69,0
142483,note_on,43,0,4,,,,,,,,10,,,44,0
142489,control_change,6,0,4,,,,,,,,10,7,104,,
142494,note_on,54,0,5,,,,,,,,0,,,73,0
142500,note_on,6,0,5,,,,,,,,0,,,73,82
142500,note_on,11,0,4,,,,,,,,10,,,45,74
142500,note_on,33,0,2,,,,,,,,1,,,69,111
142500,note_on,35,0,3,,,,,,,,1,,,64,86
142500,note_on,37,0,1,,,,,,,,1,,,73,127
142516,note_on,76,0,6,,,,,,,,0,,,56,0
142521,note_on,21,0,1,,,,,,,,1,,,73,0
142524,note_on,24,0,2,,,,,,,,1,,,69,0
142527,note_on,27,0,3,,,,,,,,1,,,64,0
142538,note_on,38,0,5,,,,,,,,0,,,73,0
142553,note_on,53,0,4,,,,,,,,10,,,45,0
142560,note_on,36,0,2,,,,,,,,1,,,69,105
142560,note_on,33,0,3,,,,,,,,1,,,66,111
142560,note_on,44,0,6,,,,,,,,0,,,54,105
142560,note_on,7,0,4,,,,,,,,10,,,42,124
142560,note_on,22,0,5,,,,,,,,0,,,74,102
142560,note_on,39,0,1,,,,,,,,1,,,74,93
142599,note_on,39,0,1,,,,,,,,1,,,74,0
142606,note_on,46,0,5,,,,,,,,0,,,74,0
142614,note_on,54,0,6,,,,,,,,0,,,54,0
142620,note_on,21,0,1,,,,,,,,1,,,76,89
142620,note_on,14,0,5,,,,,,,,0,,,76,102
142620,note_on,60,0,4,,,,,,,,10,,,42,0
142655,note_on,35,0,1,,,,,,,,1,,,76,0
142671,note_on,51,0,5,,,,,,,,0,,,76,0
142680,note_on,66,0,6,,,,,,,,0,,,42,114
142680,note_on,25,0,1,,,,,,,,1,,,78,108
142680,note_on,9,0,5,,,,,,,,0,,,78,102
142680,note_on,60,0,4,,,,,,,,10,,,30,127
142709,note_on,29,0,1,,,,,,,,1,,,78,0
142718,note_on,38,0,5,,,,,,,,0,,,78,0
142740,note_on,22,0,5,,,,,,,,0,,,74,98
142740,note_on,31,0,1,,,,,,,,1,,,74,126
142776,note_on,216,0,3,,,,,,,,1,,,66,0
142776,note_on,216,0,2,,,,,,,,1,,,69,0
142782,note_on,42,0,1,,,,,,,,1,,,74,0
142786,note_on,46,0,5,,,,,,,,0,,,74,0
142800,note_on,24,0,2,,,,,,,,1,,,68,69
142800,note_on,14,0,5,,,,,,,,0,,,73,73
142800,note_on,24,0,3,,,,,,,,1,,,61,102
142800,note_on,18,0,1,,,,,,,,1,,,73,93
142829,control_change,149,0,4,,,,,,,,10,7,103,,
142831,control_change,0,0,1,,,,,,,,1,7,108,,
142831,note_on,31,0,1,,,,,,,,1,,,73,0
142837,control_change,8,0,4,,,,,,,,10,7,102,,
142845,note_on,45,0,5,,,,,,,,0,,,73,0
142846,control_change,9,0,4,,,,,,,,10,7,100,,
142860,note_on,29,0,1,,,,,,,,1,,,74,117
142860,note_on,15,0,5,,,,,,,,0,,,74,110
142865,control_change,19,0,4,,,,,,,,10,7,99,,
142867,note_on,187,0,6,,,,,,,,0,,,42,0
142893,note_on,33,0,1,,,,,,,,1,,,74,0
142898,note_on,33,0,4,,,,,,,,10,,,30,0
142908,note_on,48,0,5,,,,,,,,0,,,74,0
142920,note_on,22,0,4,,,,,,,,10,,,28,89
142920,note_on,27,0,1,,,,,,,,1,,,76,89
142920,note_on,12,0,5,,,,,,,,0,,,76,102
142920,note_on,53,0,6,,,,,,,,0,,,40,111
142958,note_on,38,0,1,,,,,,,,1,,,76,0
142965,control_change,45,0,4,,,,,,,,10,7,97,,
142966,note_on,46,0,5,,,,,,,,0,,,76,0
142978,control_change,20,0,1,,,,,,,,1,7,107,,
142980,note_on,2,0,1,,,,,,,,1,,,73,96
142980,note_on,14,0,5,,,,,,,,0,,,73,82
142997,note_on,77,0,6,,,,,,,,0,,,40,0
143013,note_on,33,0,1,,,,,,,,1,,,73,0
143014,note_on,49,0,4,,,,,,,,10,,,28,0
143016,note_on,216,0,3,,,,,,,,1,,,61,0
143016,note_on,216,0,2,,,,,,,,1,,,68,0
143026,note_on,46,0,5,,,,,,,,0,,,73,0
143040,note_on,43,0,6,,,,,,,,0,,,38,123
143040,note_on,24,0,2,,,,,,,,1,,,66,81
143040,note_on,27,0,1,,,,,,,,1,,,71,105
143040,note_on,26,0,4,,,,,,,,10,,,26,124
143040,note_on,14,0,5,,,,,,,,0,,,71,117
143040,note_on,24,0,3,,,,,,,,1,,,62,84
143079,note_on,39,0,1,,,,,,,,1,,,71,0
143088,note_on,48,0,5,,,,,,,,0,,,71,0
143100,note_on,12,0,5,,,,,,,,0,,,73,96
143100,note_on,21,0,1,,,,,,,,1,,,73,84
143101,note_on,61,0,6,,,,,,,,0,,,38,0
143114,note_on,74,0,4,,,,,,,,10,,,26,0
143133,control_change,33,0,1,,,,,,,,1,7,105,,
143134,note_on,1,0,1,,,,,,,,1,,,73,0
143145,note_on,45,0,5,,,,,,,,0,,,73,0
143160,note_on,15,0,5,,,,,,,,0,,,74,96
143160,note_on,46,0,4,,,,,,,,10,,,38,102
143160,note_on,26,0,1,,,,,,,,1,,,74,86
143160,note_on,59,0,6,,,,,,,,0,,,50,123
143172,control_change,12,0,1,,,,,,,,1,7,104,,
143193,note_on,21,0,1,,,,,,,,1,,,74,0
143213,note_on,53,0,5,,,,,,,,0,,,74,0
143216,control_change,56,0,4,,,,,,,,10,7,96,,
143220,note_on,27,0,1,,,,,,,,1,,,73,1
143220,note_on,7,0,5,,,,,,,,0,,,71,98
143225,note_on,5,0,1,,,,,,,,1,,,73,0
143256,note_on,216,0,2,,,,,,,,1,,,66,0
143256,note_on,216,0,3,,,,,,,,1,,,62,0
143262,note_on,42,0,5,,,,,,,,0,,,71,0
143280,note_on,18,0,5,,,,,,,,0,,,69,85
143280,note_on,24,0,3,,,,,,,,1,,,57,81
143280,note_on,55,0,1,,,,,,,,1,,,69,81
143280,note_on,24,0,2,,,,,,,,1,,,64,89
143312,note_on,32,0,1,,,,,,,,1,,,69,0
143326,note_on,46,0,5,,,,,,,,0,,,69,0
143340,note_on,28,0,1,,,,,,,,1,,,71,72
143340,note_on,14,0,5,,,,,,,,0,,,71,93
143349,control_change,9,0,1,,,,,,,,1,7,102,,
143361,note_on,145,0,4,,,,,,,,10,,,38,0
143375,note_on,26,0,1,,,,,,,,1,,,71,0
143383,note_on,223,0,6,,,,,,,,0,,,50,0
143388,note_on,48,0,5,,,,,,,,0,,,71,0
143400,note_on,39,0,4,,,,,,,,10,,,37,93
143400,note_on,12,0,5,,,,,,,,0,,,73,73
143400,note_on,25,0,1,,,,,,,,1,,,73,89
143400,note_on,17,0,6,,,,,,,,0,,,49,96
143430,note_on,30,0,1,,,,,,,,1,,,73,0
143442,note_on,42,0,5,,,,,,,,0,,,73,0
143460,note_on,18,0,5,,,,,,,,0,,,69,93
143460,note_on,30,0,1,,,,,,,,1,,,69,117
143463,note_on,63,0,6,,,,,,,,0,,,49,0
143485,note_on,85,0,4,,,,,,,,10,,,37,0
143490,note_on,30,0,1,,,,,,,,1,,,69,0
143496,note_on,216,0,2,,,,,,,,1,,,64,0
143496,note_on,216,0,3,,,,,,,,1,,,57,0
143499,note_on,39,0,5,,,,,,,,0,,,69,0
143520,note_on,24,0,2,,,,,,,,1,,,62,79
143520,note_on,35,0,4,,,,,,,,10,,,35,77
143520,note_on,24,0,3,,,,,,,,1,,,59,79
143520,note_on,30,0,1,,,,,,,,1,,,68,111
143520,note_on,21,0,5,,,,,,,,0,,,68,88
143520,note_on,57,0,6,,,,,,,,0,,,47,89
143553,note_on,33,0,1,,,,,,,,1,,,68,0
143562,note_on,42,0,5,,,,,,,,0,,,68,0
143574,note_on,54,0,6,,,,,,,,0,,,47,0
143580,note_on,18,0,5,,,,,,,,0,,,69,85
143580,note_on,27,0,1,,,,,,,,1,,,69,93
143607,note_on,87,0,4,,,,,,,,10,,,35,0
143616,note_on,36,0,1,,,,,,,,1,,,69,0
143628,note_on,48,0,5,,,,,,,,0,,,69,0
143640,note_on,12,0,5,,,,,,,,0,,,71,90
143640,note_on,24,0,1,,,,,,,,1,,,71,84
143640,note_on,33,0,4,,,,,,,,10,,,47,102
143640,note_on,66,0,6,,,,,,,,0,,,59,111
143654,control_change,14,0,4,,,,,,,,10,7,94,,
143673,control_change,19,0,4,,,,,,,,10,7,93,,
143676,note_on,36,0,1,,,,,,,,1,,,71,0
143682,note_on,42,0,5,,,,,,,,0,,,71,0
143700,note_on,18,0,5,,,,,,,,0,,,68,66
143700,note_on,24,0,1,,,,,,,,1,,,68,77
143718,control_change,18,0,1,,,,,,,,1,7,101,,
143736,note_on,216,0,2,,,,,,,,1,,,62,0
143736,note_on,216,0,3,,,,,,,,1,,,59,0
143738,note_on,20,0,1,,,,,,,,1,,,68,0
143744,note_on,44,0,5,,,,,,,,0,,,68,0
143760,note_on,24,0,2,,,,,,,,1,,,59,77
143760,note_on,24,0,3,,,,,,,,1,,,56,84
143760,note_on,16,0,5,,,,,,,,0,,,62,90
143760,note_on,22,0,1,,,,,,,,1,,,62,102
143766,aftertouch,6,0,3,,,,,,,,1,,6,,
143766,aftertouch,93,0,4,,,,,,,,10,,6,,
143768,aftertouch,2,0,3,,,,,,,,1,,0,,
143770,aftertouch,4,0,4,,,,,,,,10,,3,,
143770,aftertouch,2,0,3,,,,,,,,1,,3,,
143777,aftertouch,7,0,3,,,,,,,,1,,0,,
143778,aftertouch,1,0,3,,,,,,,,1,,1,,
143779,aftertouch,9,0,4,,,,,,,,10,,1,,
143785,aftertouch,7,0,3,,,,,,,,1,,0,,
143798,note_on,38,0,1,,,,,,,,1,,,62,0
143798,note_on,38,0,5,,,,,,,,0,,,62,0
143820,note_on,22,0,5,,,,,,,,0,,,64,93
143820,note_on,22,0,1,,,,,,,,1,,,64,93
143823,note_on,63,0,2,,,,,,,,1,,,59,0
143827,note_on,42,0,3,,,,,,,,1,,,56,0
143845,note_on,205,0,6,,,,,,,,0,,,59,0
143850,control_change,71,0,4,,,,,,,,10,7,91,,
143854,note_on,34,0,1,,,,,,,,1,,,64,0
143859,note_on,9,0,4,,,,,,,,10,,,47,0
143859,note_on,39,0,5,,,,,,,,0,,,64,0
143876,control_change,17,0,4,,,,,,,,10,7,90,,
143880,note_on,53,0,3,,,,,,,,1,,,57,79
143880,note_on,26,0,1,,,,,,,,1,,,66,72
143880,note_on,57,0,2,,,,,,,,1,,,61,74
143880,note_on,21,0,5,,,,,,,,0,,,66,93
143880,note_on,35,0,6,,,,,,,,0,,,57,120
143880,note_on,4,0,4,,,,,,,,10,,,45,108
143917,note_on,37,0,1,,,,,,,,1,,,66,0
143934,note_on,54,0,5,,,,,,,,0,,,66,0
143935,note_on,55,0,6,,,,,,,,0,,,57,0
143940,note_on,23,0,1,,,,,,,,1,,,62,102
143940,note_on,6,0,5,,,,,,,,0,,,62,117
143941,note_on,61,0,2,,,,,,,,1,,,61,0
143949,note_on,69,0,3,,,,,,,,1,,,57,0
143961,note_on,81,0,4,,,,,,,,10,,,45,0
143972,note_on,32,0,1,,,,,,,,1,,,62,0
143982,note_on,42,0,5,,,,,,,,0,,,62,0
144000,note_on,28,0,1,,,,,,,,1,,,59,89
144000,note_on,18,0,5,,,,,,,,0,,,59,102
144000,note_on,51,0,3,,,,,,,,1,,,59,69
144000,note_on,39,0,4,,,,,,,,10,,,44,66
144000,note_on,59,0,2,,,,,,,,1,,,62,74
144000,note_on,65,0,6,,,,,,,,0,,,56,126
144040,note_on,40,0,1,,,,,,,,1,,,59,0
144044,note_on,44,0,5,,,,,,,,0,,,59,0
144055,note_on,55,0,6,,,,,,,,0,,,56,0
144060,note_on,20,0,1,,,,,,,,1,,,61,84
144060,note_on,16,0,5,,,,,,,,0,,,61,117
144063,note_on,63,0,3,,,,,,,,1,,,59,0
144067,note_on,67,0,2,,,,,,,,1,,,62,0
144096,note_on,36,0,1,,,,,,,,1,,,61,0
144100,note_on,40,0,5,,,,,,,,0,,,61,0
144120,note_on,53,0,2,,,,,,,,1,,,59,96
144120,note_on,65,0,6,,,,,,,,0,,,44,124
144120,note_on,57,0,3,,,,,,,,1,,,56,84
144120,note_on,20,0,5,,,,,,,,0,,,62,110
144120,note_on,24,0,1,,,,,,,,1,,,62,81
144149,note_on,29,0,3,,,,,,,,1,,,56,0
144152,note_on,32,0,2,,,,,,,,1,,,59,0
144162,note_on,42,0,5,,,,,,,,0,,,62,0
144163,note_on,43,0,1,,,,,,,,1,,,62,0
144180,note_on,31,0,3,,,,,,,,1,,,57,66
144180,note_on,17,0,1,,,,,,,,1,,,59,81
144180,note_on,18,0,5,,,,,,,,0,,,59,102
144180,note_on,28,0,2,,,,,,,,1,,,61,81
144212,note_on,32,0,1,,,,,,,,1,,,59,0
144217,note_on,37,0,3,,,,,,,,1,,,57,0
144218,note_on,38,0,2,,,,,,,,1,,,61,0
144219,note_on,39,0,5,,,,,,,,0,,,59,0
144240,note_on,28,0,1,,,,,,,,1,,,56,74
144240,note_on,22,0,2,,,,,,,,1,,,62,84
144240,note_on,23,0,3,,,,,,,,1,,,59,79
144240,note_on,21,0,5,,,,,,,,0,,,56,73
144279,note_on,39,0,5,,,,,,,,0,,,56,0
144282,note_on,42,0,1,,,,,,,,1,,,56,0
144300,note_on,21,0,5,,,,,,,,0,,,57,110
144300,note_on,18,0,1,,,,,,,,1,,,57,86
144302,note_on,62,0,3,,,,,,,,1,,,59,0
144304,note_on,64,0,2,,,,,,,,1,,,62,0
144340,note_on,40,0,1,,,,,,,,1,,,57,0
144348,note_on,48,0,5,,,,,,,,0,,,57,0
144348,note_on,228,0,6,,,,,,,,0,,,44,0
144360,note_on,56,0,2,,,,,,,,1,,,59,102
144360,note_on,58,0,3,,,,,,,,1,,,56,108
144360,note_on,12,0,6,,,,,,,,0,,,56,123
144360,note_on,20,0,1,,,,,,,,1,,,59,81
144360,note_on,12,0,5,,,,,,,,0,,,59,110
144392,note_on,32,0,2,,,,,,,,1,,,59,0
144393,note_on,33,0,3,,,,,,,,1,,,56,0
144394,control_change,394,0,4,,,,,,,,10,7,88,,
144400,note_on,40,0,5,,,,,,,,0,,,59,0
144400,note_on,40,0,1,,,,,,,,1,,,59,0
144402,note_on,42,0,6,,,,,,,,0,,,56,0
144420,note_on,18,0,6,,,,,,,,0,,,54,102
144420,note_on,20,0,5,,,,,,,,0,,,61,93
144420,note_on,28,0,2,,,,,,,,1,,,57,89
144420,note_on,20,0,1,,,,,,,,1,,,61,102
144420,note_on,27,0,3,,,,,,,,1,,,57,89
144452,note_on,32,0,2,,,,,,,,1,,,57,0
144457,note_on,37,0,1,,,,,,,,1,,,61,0
144458,note_on,38,0,3,,,,,,,,1,,,57,0
144458,note_on,38,0,5,,,,,,,,0,,,61,0
144476,note_on,56,0,6,,,,,,,,0,,,54,0
144480,note_on,23,0,1,,,,,,,,1,,,62,102
144480,note_on,22,0,3,,,,,,,,1,,,59,89
144480,note_on,4,0,6,,,,,,,,0,,,52,96
144480,note_on,22,0,5,,,,,,,,0,,,62,93
144480,note_on,28,0,2,,,,,,,,1,,,56,84
144529,note_on,49,0,5,,,,,,,,0,,,62,0
144530,note_on,50,0,1,,,,,,,,1,,,62,0
144540,note_on,11,0,5,,,,,,,,0,,,64,75
144540,note_on,10,0,1,,,,,,,,1,,,64,58
144576,note_on,96,0,6,,,,,,,,0,,,52,0
144580,note_on,40,0,5,,,,,,,,0,,,64,0
144582,note_on,42,0,1,,,,,,,,1,,,64,0
144589,note_on,195,0,4,,,,,,,,10,,,44,0
144600,note_on,18,0,1,,,,,,,,1,,,66,84
144600,note_on,11,0,4,,,,,,,,10,,,40,89
144600,note_on,24,0,6,,,,,,,,0,,,40,96
144600,note_on,20,0,5,,,,,,,,0,,,66,102
144602,note_on,122,0,3,,,,,,,,1,,,59,0
144603,note_on,123,0,2,,,,,,,,1,,,56,0
144648,note_on,48,0,1,,,,,,,,1,,,66,0
144655,note_on,55,0,5,,,,,,,,0,,,66,0
144660,note_on,5,0,5,,,,,,,,0,,,68,88
144660,note_on,12,0,1,,,,,,,,1,,,68,72
144686,note_on,86,0,4,,,,,,,,10,,,40,0
144693,note_on,93,0,6,,,,,,,,0,,,40,0
144704,note_on,44,0,1,,,,,,,,1,,,68,0
144705,note_on,45,0,5,,,,,,,,0,,,68,0
144720,note_on,15,0,5,,,,,,,,0,,,69,88
144720,note_on,27,0,6,,,,,,,,0,,,42,81
144720,note_on,16,0,1,,,,,,,,1,,,69,111
144720,note_on,34,0,4,,,,,,,,10,,,42,93
144771,note_on,51,0,5,,,,,,,,0,,,69,0
144777,note_on,57,0,1,,,,,,,,1,,,69,0
144780,note_on,3,0,1,,,,,,,,1,,,71,69
144780,note_on,9,0,5,,,,,,,,0,,,71,96
144791,control_change,11,0,1,,,,,,,,1,7,103,,
144808,note_on,88,0,6,,,,,,,,0,,,42,0
144818,note_on,98,0,4,,,,,,,,10,,,42,0
144824,note_on,44,0,5,,,,,,,,0,,,71,0
144837,note_on,46,0,1,,,,,,,,1,,,71,0
144840,note_on,3,0,1,,,,,,,,1,,,73,66
144840,note_on,32,0,6,,,,,,,,0,,,44,102
144840,note_on,16,0,5,,,,,,,,0,,,73,110
144840,note_on,238,0,3,,,,,,,,1,,,64,74
144840,note_on,237,0,2,,,,,,,,1,,,71,77
144840,note_on,22,0,4,,,,,,,,10,,,44,117
144890,note_on,50,0,5,,,,,,,,0,,,73,0
144897,note_on,57,0,1,,,,,,,,1,,,73,0
144900,note_on,10,0,5,,,,,,,,0,,,74,102
144913,control_change,16,0,1,,,,,,,,1,7,104,,
144915,note_on,75,0,3,,,,,,,,1,,,64,0
144920,note_on,7,0,1,,,,,,,,1,,,74,74
144920,note_on,80,0,2,,,,,,,,1,,,71,0
144921,note_on,81,0,6,,,,,,,,0,,,44,0
144924,note_on,24,0,5,,,,,,,,0,,,74,0
144930,note_on,6,0,5,,,,,,,,0,,,76,102
144935,note_on,95,0,4,,,,,,,,10,,,44,0
144939,control_change,19,0,1,,,,,,,,1,7,106,,
144940,note_on,1,0,1,,,,,,,,1,,,76,96
144949,note_on,9,0,1,,,,,,,,1,,,74,0
144955,note_on,25,0,5,,,,,,,,0,,,76,0
144960,note_on,11,0,1,,,,,,,,1,,,73,77
144960,note_on,25,0,4,,,,,,,,10,,,45,93
144960,note_on,45,0,3,,,,,,,,1,,,64,89
144960,note_on,39,0,6,,,,,,,,0,,,45,86
144960,note_on,40,0,2,,,,,,,,1,,,69,74
144960,note_on,5,0,5,,,,,,,,0,,,73,117
144969,note_on,9,0,1,,,,,,,,1,,,76,0
144974,control_change,5,0,1,,,,,,,,1,7,107,,
145027,note_on,67,0,2,,,,,,,,1,,,69,0
145050,note_on,76,0,1,,,,,,,,1,,,73,0
145051,note_on,91,0,3,,,,,,,,1,,,64,0
145055,note_on,95,0,4,,,,,,,,10,,,45,0
145060,note_on,100,0,6,,,,,,,,0,,,45,0
145061,note_on,101,0,5,,,,,,,,0,,,73,0
145080,note_on,20,0,6,,,,,,,,0,,,37,114
145080,note_on,19,0,5,,,,,,,,0,,,71,82
145080,note_on,53,0,2,,,,,,,,1,,,64,66
145080,note_on,30,0,1,,,,,,,,1,,,71,74
145080,note_on,25,0,4,,,,,,,,10,,,37,127
145080,note_on,29,0,3,,,,,,,,1,,,62,79
145083,aftertouch,3,0,6,,,,,,,,0,,44,,
145083,aftertouch,3,0,5,,,,,,,,0,,44,,
145084,aftertouch,1,0,5,,,,,,,,0,,44,,
145094,aftertouch,10,0,5,,,,,,,,0,,22,,
145094,aftertouch,0,0,5,,,,,,,,0,,22,,
145094,aftertouch,11,0,6,,,,,,,,0,,22,,
145106,aftertouch,12,0,5,,,,,,,,0,,11,,
145106,aftertouch,0,0,5,,,,,,,,0,,11,,
145106,aftertouch,12,0,6,,,,,,,,0,,11,,
145114,note_on,34,0,3,,,,,,,,1,,,62,0
145117,note_on,37,0,4,,,,,,,,10,,,37,0
145117,aftertouch,11,0,6,,,,,,,,0,,5,,
145118,aftertouch,12,0,5,,,,,,,,0,,5,,
145119,aftertouch,1,0,5,,,,,,,,0,,5,,
145120,note_on,1,0,5,,,,,,,,0,,,71,0
145123,note_on,43,0,1,,,,,,,,1,,,71,0
145134,note_on,17,0,6,,,,,,,,0,,,37,0
145140,note_on,20,0,5,,,,,,,,0,,,69,85
145140,note_on,17,0,1,,,,,,,,1,,,69,72
145140,note_on,23,0,4,,,,,,,,10,,,37,127
145140,note_on,26,0,3,,,,,,,,1,,,61,74
145140,note_on,6,0,6,,,,,,,,0,,,49,124
145151,aftertouch,11,0,6,,,,,,,,0,,3,,
145151,aftertouch,11,0,5,,,,,,,,0,,3,,
145153,aftertouch,2,0,5,,,,,,,,0,,3,,
145156,note_on,76,0,2,,,,,,,,1,,,64,0
145164,aftertouch,0,0,5,,,,,,,,0,,1,,
145164,aftertouch,11,0,5,,,,,,,,0,,1,,
145164,aftertouch,13,0,6,,,,,,,,0,,1,,
145172,note_on,8,0,5,,,,,,,,0,,,69,0
145177,note_on,37,0,3,,,,,,,,1,,,61,0
145179,note_on,39,0,1,,,,,,,,1,,,69,0
145183,note_on,43,0,4,,,,,,,,10,,,37,0
145184,control_change,1,0,4,,,,,,,,10,7,89,,
145186,note_on,22,0,6,,,,,,,,0,,,49,0
145200,note_on,14,0,6,,,,,,,,0,,,38,102
145200,note_on,23,0,3,,,,,,,,1,,,59,84
145200,note_on,16,0,4,,,,,,,,10,,,38,108
145200,note_on,44,0,2,,,,,,,,1,,,66,72
145200,note_on,28,0,5,,,,,,,,0,,,71,120
145200,note_on,21,0,1,,,,,,,,1,,,71,93
145210,aftertouch,10,0,6,,,,,,,,0,,12,,
145210,aftertouch,10,0,5,,,,,,,,0,,12,,
145211,aftertouch,1,0,5,,,,,,,,0,,12,,
145223,aftertouch,12,0,5,,,,,,,,0,,6,,
145223,aftertouch,0,0,5,,,,,,,,0,,6,,
145223,aftertouch,13,0,6,,,,,,,,0,,6,,
145230,control_change,30,0,1,,,,,,,,1,7,109,,
145235,aftertouch,12,0,5,,,,,,,,0,,3,,
145235,aftertouch,0,0,5,,,,,,,,0,,3,,
145235,aftertouch,12,0,6,,,,,,,,0,,3,,
145237,note_on,37,0,4,,,,,,,,10,,,38,0
145257,note_on,22,0,6,,,,,,,,0,,,38,0
145260,note_on,3,0,6,,,,,,,,0,,,50,89
145260,note_on,23,0,4,,,,,,,,10,,,38,108
145269,aftertouch,34,0,5,,,,,,,,0,,12,,
145269,aftertouch,0,0,5,,,,,,,,0,,12,,
145269,aftertouch,9,0,6,,,,,,,,0,,12,,
145278,note_on,78,0,2,,,,,,,,1,,,66,0
145279,note_on,49,0,1,,,,,,,,1,,,71,0
145281,aftertouch,0,0,5,,,,,,,,0,,9,,
145281,aftertouch,12,0,6,,,,,,,,0,,9,,
145281,aftertouch,12,0,5,,,,,,,,0,,9,,
145281,note_on,81,0,3,,,,,,,,1,,,59,0
145290,note_on,9,0,5,,,,,,,,0,,,71,0
145292,aftertouch,2,0,5,,,,,,,,0,,4,,
145292,aftertouch,11,0,6,,,,,,,,0,,4,,
145293,aftertouch,1,0,5,,,,,,,,0,,4,,
145304,note_on,44,0,4,,,,,,,,10,,,38,0
145305,aftertouch,0,0,5,,,,,,,,0,,2,,
145305,aftertouch,12,0,5,,,,,,,,0,,2,,
145305,aftertouch,0,0,6,,,,,,,,0,,2,,
145305,note_on,13,0,6,,,,,,,,0,,,50,0
145320,note_on,15,0,6,,,,,,,,0,,,40,86
145320,note_on,15,0,5,,,,,,,,0,,,69,79
145320,note_on,39,0,3,,,,,,,,1,,,62,102
145320,note_on,41,0,1,,,,,,,,1,,,69,93
145320,note_on,16,0,4,,,,,,,,10,,,40,93
145320,note_on,42,0,2,,,,,,,,1,,,64,55
145326,control_change,6,0,4,,,,,,,,10,7,87,,
145350,note_on,30,0,5,,,,,,,,0,,,69,0
145352,note_on,26,0,4,,,,,,,,10,,,40,0
145356,note_on,36,0,1,,,,,,,,1,,,69,0
145377,note_on,57,0,6,,,,,,,,0,,,40,0
145380,note_on,24,0,1,,,,,,,,1,,,68,66
145380,note_on,3,0,6,,,,,,,,0,,,52,77
145380,note_on,28,0,4,,,,,,,,10,,,40,93
145380,note_on,30,0,5,,,,,,,,0,,,68,63
145382,aftertouch,2,0,5,,,,,,,,0,,1,,
145382,aftertouch,2,0,6,,,,,,,,0,,1,,
145383,aftertouch,1,0,5,,,,,,,,0,,1,,
145386,control_change,6,0,1,,,,,,,,1,7,110,,
145396,control_change,16,0,4,,,,,,,,10,7,88,,
145399,note_on,79,0,2,,,,,,,,1,,,64,0
145407,note_on,87,0,3,,,,,,,,1,,,62,0
145412,note_on,29,0,5,,,,,,,,0,,,68,0
145419,note_on,33,0,1,,,,,,,,1,,,68,0
145425,note_on,43,0,6,,,,,,,,0,,,52,0
145428,note_on,32,0,4,,,,,,,,10,,,40,0
145440,note_on,28,0,5,,,,,,,,0,,,69,75
145440,note_on,21,0,1,,,,,,,,1,,,69,93
145440,note_on,33,0,3,,,,,,,,1,,,61,96
145440,note_on,15,0,6,,,,,,,,0,,,45,96
145440,note_on,41,0,2,,,,,,,,1,,,64,89
145440,note_on,12,0,4,,,,,,,,10,,,33,117
145491,note_on,51,0,5,,,,,,,,0,,,69,0
145500,note_on,9,0,5,,,,,,,,0,,,73,88
145515,note_on,15,0,5,,,,,,,,0,,,73,0
145530,note_on,15,0,5,,,,,,,,0,,,74,75
145535,note_on,95,0,6,,,,,,,,0,,,45,0
145549,note_on,19,0,5,,,,,,,,0,,,74,0
145560,note_on,25,0,6,,,,,,,,0,,,49,105
145560,note_on,11,0,5,,,,,,,,0,,,76,110
145598,note_on,38,0,5,,,,,,,,0,,,76,0
145620,note_on,22,0,5,,,,,,,,0,,,69,79
145644,note_on,84,0,6,,,,,,,,0,,,49,0
145656,note_on,216,0,3,,,,,,,,1,,,61,0
145656,note_on,216,0,1,,,,,,,,1,,,69,0
145656,note_on,216,0,4,,,,,,,,10,,,33,0
145656,note_on,216,0,2,,,,,,,,1,,,64,0
145664,note_on,44,0,5,,,,,,,,0,,,69,0
145680,note_on,16,0,5,,,,,,,,0,,,78,127
145680,note_on,36,0,6,,,,,,,,0,,,50,102
145719,note_on,39,0,5,,,,,,,,0,,,78,0
145740,note_on,21,0,5,,,,,,,,0,,,69,75
145760,note_on,80,0,6,,,,,,,,0,,,50,0
145780,note_on,40,0,5,,,,,,,,0,,,69,0
145800,note_on,40,0,6,,,,,,,,0,,,52,66
145800,note_on,20,0,5,,,,,,,,0,,,80,106
145837,note_on,37,0,5,,,,,,,,0,,,80,0
145860,note_on,23,0,5,,,,,,,,0,,,69,58
145893,note_on,93,0,6,,,,,,,,0,,,52,0
145897,note_on,37,0,5,,,,,,,,0,,,69,0
145920,note_on,23,0,5,,,,,,,,0,,,81,96
145920,note_on,27,0,6,,,,,,,,0,,,54,77
145970,note_on,50,0,5,,,,,,,,0,,,81,0
145980,note_on,10,0,5,,,,,,,,0,,,80,58
146004,note_on,24,0,5,,,,,,,,0,,,80,0
146010,note_on,6,0,5,,,,,,,,0,,,78,102
146016,note_on,96,0,6,,,,,,,,0,,,54,0
146040,note_on,24,0,6,,,,,,,,0,,,49,81
146040,note_on,384,0,2,,,,,,,,1,,,64,66
146040,note_on,384,0,1,,,,,,,,1,,,64,58
146040,note_on,384,0,4,,,,,,,,10,,,37,93
146040,note_on,30,0,5,,,,,,,,0,,,76,93
146040,note_on,384,0,3,,,,,,,,1,,,57,64
146042,note_on,2,0,5,,,,,,,,0,,,78,0
146075,note_on,35,0,3,,,,,,,,1,,,57,0
146076,note_on,36,0,1,,,,,,,,1,,,64,0
146076,note_on,36,0,2,,,,,,,,1,,,64,0
146083,note_on,43,0,4,,,,,,,,10,,,37,0
146090,note_on,48,0,5,,,,,,,,0,,,76,0
146100,note_on,10,0,5,,,,,,,,0,,,74,85
146100,note_on,24,0,2,,,,,,,,1,,,64,72
146100,note_on,17,0,4,,,,,,,,10,,,37,93
146100,note_on,25,0,3,,,,,,,,1,,,57,79
146100,note_on,24,0,1,,,,,,,,1,,,64,35
146115,aftertouch,75,0,6,,,,,,,,0,,3,,
146115,aftertouch,15,0,5,,,,,,,,0,,3,,
146115,aftertouch,0,0,5,,,,,,,,0,,3,,
146126,note_on,11,0,6,,,,,,,,0,,,49,0
146127,aftertouch,12,0,5,,,,,,,,0,,1,,
146127,aftertouch,0,0,5,,,,,,,,0,,1,,
146127,aftertouch,1,0,6,,,,,,,,0,,1,,
146138,note_on,38,0,1,,,,,,,,1,,,64,0
146139,note_on,12,0,5,,,,,,,,0,,,74,0
146142,note_on,42,0,3,,,,,,,,1,,,57,0
146144,note_on,44,0,2,,,,,,,,1,,,64,0
146150,note_on,50,0,4,,,,,,,,10,,,37,0
146160,note_on,10,0,4,,,,,,,,10,,,38,89
146160,note_on,33,0,6,,,,,,,,0,,,50,72
146160,note_on,21,0,5,,,,,,,,0,,,73,70
146160,note_on,18,0,3,,,,,,,,1,,,57,79
146160,note_on,22,0,1,,,,,,,,1,,,66,61
146160,note_on,16,0,2,,,,,,,,1,,,66,72
146172,note_on,12,0,5,,,,,,,,0,,,73,0
146187,note_on,27,0,1,,,,,,,,1,,,66,0
146190,note_on,18,0,5,,,,,,,,0,,,74,117
146193,note_on,33,0,2,,,,,,,,1,,,66,0
146196,note_on,36,0,3,,,,,,,,1,,,57,0
146199,note_on,39,0,4,,,,,,,,10,,,38,0
146218,aftertouch,19,0,4,,,,,,,,10,,6,,
146220,note_on,27,0,2,,,,,,,,1,,,66,77
146220,note_on,24,0,3,,,,,,,,1,,,57,89
146220,note_on,2,0,4,,,,,,,,10,,,38,86
146220,note_on,33,0,1,,,,,,,,1,,,66,43
146220,note_on,30,0,5,,,,,,,,0,,,76,88
146227,aftertouch,7,0,4,,,,,,,,10,,0,,
146229,aftertouch,2,0,4,,,,,,,,10,,3,,
146233,control_change,4,0,4,,,,,,,,10,7,88,,
146234,note_on,14,0,5,,,,,,,,0,,,74,0
146238,aftertouch,5,0,4,,,,,,,,10,,0,,
146239,aftertouch,1,0,4,,,,,,,,10,,1,,
146248,aftertouch,9,0,4,,,,,,,,10,,0,,
146253,control_change,5,0,4,,,,,,,,10,7,89,,
146253,note_on,19,0,5,,,,,,,,0,,,76,0
146254,note_on,34,0,3,,,,,,,,1,,,57,0
146255,note_on,35,0,2,,,,,,,,1,,,66,0
146256,note_on,96,0,6,,,,,,,,0,,,50,0
146256,note_on,36,0,1,,,,,,,,1,,,66,0
146264,note_on,11,0,4,,,,,,,,10,,,38,0
146280,note_on,24,0,6,,,,,,,,0,,,52,66
146280,note_on,16,0,4,,,,,,,,10,,,40,124
146280,note_on,27,0,5,,,,,,,,0,,,71,96
146280,note_on,26,0,3,,,,,,,,1,,,64,77
146280,note_on,24,0,1,,,,,,,,1,,,68,48
146280,note_on,25,0,2,,,,,,,,1,,,68,64
146296,note_on,16,0,5,,,,,,,,0,,,71,0
146309,note_on,29,0,1,,,,,,,,1,,,68,0
146310,note_on,14,0,5,,,,,,,,0,,,73,102
146311,note_on,31,0,4,,,,,,,,10,,,40,0
146312,note_on,32,0,3,,,,,,,,1,,,64,0
146312,note_on,32,0,2,,,,,,,,1,,,68,0
146329,note_on,19,0,5,,,,,,,,0,,,73,0
146340,note_on,28,0,3,,,,,,,,1,,,64,93
146340,note_on,31,0,1,,,,,,,,1,,,68,43
146340,note_on,29,0,4,,,,,,,,10,,,40,120
146340,note_on,11,0,5,,,,,,,,0,,,74,110
146340,note_on,28,0,2,,,,,,,,1,,,68,58
146353,note_on,73,0,6,,,,,,,,0,,,52,0
146368,note_on,28,0,5,,,,,,,,0,,,74,0
146370,control_change,30,0,1,,,,,,,,1,7,112,,
146372,note_on,32,0,3,,,,,,,,1,,,64,0
146375,note_on,5,0,1,,,,,,,,1,,,68,0
146376,note_on,36,0,2,,,,,,,,1,,,68,0
146380,control_change,40,0,4,,,,,,,,10,7,90,,
146384,control_change,4,0,4,,,,,,,,10,7,91,,
146387,note_on,3,0,4,,,,,,,,10,,,40,0
146398,control_change,23,0,1,,,,,,,,1,7,113,,
146400,note_on,2,0,1,,,,,,,,1,,,69,35
146400,note_on,24,0,2,,,,,,,,1,,,69,69
146400,note_on,32,0,5,,,,,,,,0,,,73,82
146400,note_on,47,0,6,,,,,,,,0,,,45,96
146400,note_on,28,0,3,,,,,,,,1,,,64,111
146400,control_change,0,0,4,,,,,,,,10,7,88,,
146400,note_on,13,0,4,,,,,,,,10,,,33,96
146416,note_on,16,0,5,,,,,,,,0,,,73,0
146425,control_change,25,0,4,,,,,,,,10,7,87,,
146430,note_on,14,0,5,,,,,,,,0,,,71,75
146448,note_on,18,0,5,,,,,,,,0,,,71,0
146460,note_on,12,0,5,,,,,,,,0,,,69,98
146490,note_on,30,0,5,,,,,,,,0,,,69,0
146520,note_on,30,0,5,,,,,,,,0,,,76,88
146559,note_on,39,0,5,,,,,,,,0,,,76,0
146580,note_on,21,0,5,,,,,,,,0,,,73,88
146605,note_on,25,0,5,,,,,,,,0,,,73,0
146616,note_on,216,0,2,,,,,,,,1,,,69,0
146616,note_on,216,0,6,,,,,,,,0,,,45,0
146616,note_on,216,0,1,,,,,,,,1,,,69,0
146616,note_on,191,0,4,,,,,,,,10,,,33,0
146616,note_on,216,0,3,,,,,,,,1,,,64,0
146640,note_on,35,0,5,,,,,,,,0,,,81,106
146676,note_on,36,0,5,,,,,,,,0,,,81,0
146700,note_on,24,0,5,,,,,,,,0,,,76,106
146748,note_on,48,0,5,,,,,,,,0,,,76,0
146760,note_on,144,0,6,,,,,,,,0,,,64,108
146760,note_on,12,0,5,,,,,,,,0,,,73,96
146795,note_on,35,0,6,,,,,,,,0,,,64,0
146798,note_on,38,0,5,,,,,,,,0,,,73,0
146820,note_on,25,0,6,,,,,,,,0,,,61,91
146820,note_on,22,0,5,,,,,,,,0,,,69,82
146847,note_on,27,0,5,,,,,,,,0,,,69,0
146860,note_on,40,0,6,,,,,,,,0,,,61,0
146880,note_on,33,0,5,,,,,,,,0,,,64,110
146880,note_on,20,0,6,,,,,,,,0,,,57,84
146918,note_on,38,0,5,,,,,,,,0,,,64,0
146940,note_on,22,0,5,,,,,,,,0,,,69,85
146964,note_on,24,0,5,,,,,,,,0,,,69,0
146969,note_on,89,0,6,,,,,,,,0,,,57,0
146970,note_on,6,0,5,,,,,,,,0,,,68,88
146995,note_on,25,0,5,,,,,,,,0,,,68,0
147000,note_on,31,0,6,,,,,,,,0,,,61,86
147000,note_on,5,0,5,,,,,,,,0,,,69,93
147033,note_on,33,0,5,,,,,,,,0,,,69,0
147053,note_on,53,0,6,,,,,,,,0,,,61,0
147060,note_on,7,0,6,,,,,,,,0,,,57,96
147060,note_on,27,0,5,,,,,,,,0,,,64,79
147087,note_on,27,0,5,,,,,,,,0,,,64,0
147099,note_on,39,0,6,,,,,,,,0,,,57,0
147120,note_on,33,0,5,,,,,,,,0,,,61,88
147120,note_on,21,0,6,,,,,,,,0,,,52,84
147160,note_on,40,0,5,,,,,,,,0,,,61,0
147180,note_on,20,0,5,,,,,,,,0,,,64,79
147197,note_on,17,0,5,,,,,,,,0,,,64,0
147210,note_on,13,0,5,,,,,,,,0,,,62,75
147233,note_on,113,0,6,,,,,,,,0,,,52,0
147234,note_on,24,0,5,,,,,,,,0,,,62,0
147240,note_on,6,0,5,,,,,,,,0,,,64,82
147240,note_on,7,0,6,,,,,,,,0,,,57,64
147269,note_on,29,0,5,,,,,,,,0,,,64,0
147297,note_on,57,0,6,,,,,,,,0,,,57,0
147300,note_on,31,0,5,,,,,,,,0,,,61,98
147300,note_on,3,0,6,,,,,,,,0,,,52,69
147328,note_on,28,0,5,,,,,,,,0,,,61,0
147357,note_on,57,0,6,,,,,,,,0,,,52,0
147360,note_on,3,0,6,,,,,,,,0,,,49,64
147360,note_on,32,0,5,,,,,,,,0,,,57,88
147385,note_on,25,0,6,,,,,,,,0,,,49,0
147390,note_on,5,0,6,,,,,,,,0,,,50,72
147407,note_on,17,0,6,,,,,,,,0,,,50,0
147420,note_on,13,0,6,,,,,,,,0,,,52,79
147456,note_on,36,0,6,,,,,,,,0,,,52,0
147480,note_on,24,0,6,,,,,,,,0,,,45,89
147480,note_on,864,0,3,,,,,,,,1,,,61,84
147480,note_on,864,0,2,,,,,,,,1,,,64,79
147480,note_on,864,0,1,,,,,,,,1,,,64,55
147509,note_on,29,0,1,,,,,,,,1,,,64,0
147510,note_on,30,0,2,,,,,,,,1,,,64,0
147512,note_on,32,0,3,,,,,,,,1,,,61,0
147536,control_change,27,0,1,,,,,,,,1,7,111,,
147540,note_on,28,0,3,,,,,,,,1,,,61,84
147540,note_on,30,0,2,,,,,,,,1,,,64,66
147540,note_on,4,0,1,,,,,,,,1,,,64,64
147577,note_on,37,0,2,,,,,,,,1,,,64,0
147577,note_on,37,0,3,,,,,,,,1,,,61,0
147580,note_on,40,0,1,,,,,,,,1,,,64,0
147600,note_on,20,0,1,,,,,,,,1,,,66,77
147600,note_on,23,0,3,,,,,,,,1,,,62,84
147600,note_on,23,0,2,,,,,,,,1,,,66,81
147632,note_on,32,0,3,,,,,,,,1,,,62,0
147633,note_on,33,0,2,,,,,,,,1,,,66,0
147638,note_on,38,0,1,,,,,,,,1,,,66,0
147660,note_on,28,0,3,,,,,,,,1,,,62,79
147660,note_on,22,0,1,,,,,,,,1,,,66,66
147660,note_on,27,0,2,,,,,,,,1,,,66,77
147692,note_on,32,0,3,,,,,,,,1,,,62,0
147692,note_on,32,0,2,,,,,,,,1,,,66,0
147695,note_on,35,0,1,,,,,,,,1,,,66,0
147720,note_on,28,0,3,,,,,,,,1,,,59,89
147720,note_on,25,0,1,,,,,,,,1,,,68,61
147720,note_on,28,0,2,,,,,,,,1,,,68,64
147752,note_on,32,0,2,,,,,,,,1,,,68,0
147753,note_on,33,0,1,,,,,,,,1,,,68,0
147753,note_on,33,0,3,,,,,,,,1,,,59,0
147780,note_on,27,0,1,,,,,,,,1,,,68,61
147780,note_on,28,0,2,,,,,,,,1,,,68,61
147780,note_on,27,0,3,,,,,,,,1,,,59,69
147804,note_on,324,0,6,,,,,,,,0,,,45,0
147818,note_on,38,0,3,,,,,,,,1,,,59,0
147819,note_on,39,0,1,,,,,,,,1,,,68,0
147819,note_on,39,0,2,,,,,,,,1,,,68,0
147840,note_on,22,0,3,,,,,,,,1,,,61,84
147840,note_on,21,0,1,,,,,,,,1,,,69,66
147840,note_on,21,0,2,,,,,,,,1,,,69,58
147872,note_on,32,0,1,,,,,,,,1,,,69,0
147888,note_on,48,0,3,,,,,,,,1,,,61,0
147900,note_on,28,0,1,,,,,,,,1,,,69,55
147908,note_on,68,0,2,,,,,,,,1,,,69,0
147939,note_on,39,0,1,,,,,,,,1,,,69,0
147960,note_on,52,0,2,,,,,,,,1,,,64,51
147960,note_on,1344,0,4,,,,,,,,10,,,37,127
147960,note_on,21,0,1,,,,,,,,1,,,64,96
147960,note_on,72,0,3,,,,,,,,1,,,61,66
147960,note_on,156,0,6,,,,,,,,0,,,37,105
147992,note_on,32,0,1,,,,,,,,1,,,64,0
147996,note_on,36,0,4,,,,,,,,10,,,37,0
147999,note_on,39,0,6,,,,,,,,0,,,37,0
148020,note_on,28,0,1,,,,,,,,1,,,64,93
148020,note_on,24,0,4,,,,,,,,10,,,37,111
148020,note_on,21,0,6,,,,,,,,0,,,49,93
148060,note_on,40,0,1,,,,,,,,1,,,64,0
148064,note_on,44,0,6,,,,,,,,0,,,49,0
148065,note_on,45,0,4,,,,,,,,10,,,37,0
148080,note_on,15,0,4,,,,,,,,10,,,38,126
148080,note_on,16,0,6,,,,,,,,0,,,38,102
148080,note_on,20,0,1,,,,,,,,1,,,66,102
148111,note_on,31,0,1,,,,,,,,1,,,66,0
148119,note_on,39,0,4,,,,,,,,10,,,38,0
148128,note_on,768,0,5,,,,,,,,0,,,57,0
148132,note_on,52,0,6,,,,,,,,0,,,38,0
148140,note_on,8,0,6,,,,,,,,0,,,50,89
148140,note_on,29,0,1,,,,,,,,1,,,66,81
148140,note_on,21,0,4,,,,,,,,10,,,38,120
148140,note_on,12,0,5,,,,,,,,0,,,59,85
148170,note_on,30,0,5,,,,,,,,0,,,61,127
148176,note_on,36,0,1,,,,,,,,1,,,66,0
148177,note_on,7,0,5,,,,,,,,0,,,59,0
148179,note_on,39,0,4,,,,,,,,10,,,38,0
148184,note_on,44,0,6,,,,,,,,0,,,50,0
148188,note_on,228,0,3,,,,,,,,1,,,61,0
148194,note_on,234,0,2,,,,,,,,1,,,64,0
148198,note_on,21,0,5,,,,,,,,0,,,61,0
148200,note_on,12,0,3,,,,,,,,1,,,59,69
148200,note_on,6,0,2,,,,,,,,1,,,62,58
148200,note_on,16,0,6,,,,,,,,0,,,40,93
148200,note_on,21,0,4,,,,,,,,10,,,40,127
148200,note_on,2,0,5,,,,,,,,0,,,62,102
148200,note_on,24,0,1,,,,,,,,1,,,68,111
148229,note_on,29,0,5,,,,,,,,0,,,62,0
148229,note_on,29,0,4,,,,,,,,10,,,40,0
148230,note_on,1,0,5,,,,,,,,0,,,64,88
148231,note_on,31,0,1,,,,,,,,1,,,68,0
148260,note_on,60,0,6,,,,,,,,0,,,52,84
148260,note_on,29,0,1,,,,,,,,1,,,68,96
148260,note_on,30,0,5,,,,,,,,0,,,64,0
148260,note_on,31,0,4,,,,,,,,10,,,40,102
148260,note_on,0,0,5,,,,,,,,0,,,66,79
148261,note_on,1,0,6,,,,,,,,0,,,40,0
148281,note_on,81,0,2,,,,,,,,1,,,62,0
148286,control_change,26,0,4,,,,,,,,10,7,98,,
148290,note_on,30,0,5,,,,,,,,0,,,68,124
148295,note_on,35,0,1,,,,,,,,1,,,68,0
148299,note_on,38,0,6,,,,,,,,0,,,52,0
148304,note_on,104,0,3,,,,,,,,1,,,59,0
148305,note_on,15,0,5,,,,,,,,0,,,66,0
148306,note_on,1,0,5,,,,,,,,0,,,68,0
148307,note_on,21,0,4,,,,,,,,10,,,40,0
148320,note_on,14,0,5,,,,,,,,0,,,69,102
148320,note_on,13,0,4,,,,,,,,10,,,42,111
148320,note_on,25,0,1,,,,,,,,1,,,69,99
148320,note_on,21,0,6,,,,,,,,0,,,42,84
148320,note_on,16,0,3,,,,,,,,1,,,57,64
148320,note_on,39,0,2,,,,,,,,1,,,61,51
148354,note_on,34,0,4,,,,,,,,10,,,42,0
148363,note_on,43,0,1,,,,,,,,1,,,69,0
148375,note_on,55,0,5,,,,,,,,0,,,69,0
148380,note_on,26,0,4,,,,,,,,10,,,42,105
148380,note_on,5,0,5,,,,,,,,0,,,71,102
148380,note_on,60,0,6,,,,,,,,0,,,54,84
148380,note_on,17,0,1,,,,,,,,1,,,71,96
148383,note_on,63,0,2,,,,,,,,1,,,61,0
148386,note_on,6,0,6,,,,,,,,0,,,42,0
148412,note_on,92,0,3,,,,,,,,1,,,57,0
148418,note_on,38,0,1,,,,,,,,1,,,71,0
148423,note_on,43,0,4,,,,,,,,10,,,42,0
148426,note_on,40,0,6,,,,,,,,0,,,54,0
148436,note_on,56,0,5,,,,,,,,0,,,71,0
148440,note_on,17,0,4,,,,,,,,10,,,40,84
148440,note_on,14,0,6,,,,,,,,0,,,40,89
148440,note_on,22,0,1,,,,,,,,1,,,73,84
148440,note_on,28,0,3,,,,,,,,1,,,69,84
148440,note_on,57,0,2,,,,,,,,1,,,64,102
148440,note_on,4,0,5,,,,,,,,0,,,73,102
148470,note_on,30,0,2,,,,,,,,1,,,64,0
148476,note_on,36,0,1,,,,,,,,1,,,73,0
148479,note_on,39,0,4,,,,,,,,10,,,40,0
148480,control_change,1,0,4,,,,,,,,10,7,100,,
148481,note_on,41,0,3,,,,,,,,1,,,69,0
148497,note_on,57,0,5,,,,,,,,0,,,73,0
148499,control_change,19,0,4,,,,,,,,10,7,101,,
148500,note_on,3,0,5,,,,,,,,0,,,69,90
148500,note_on,30,0,2,,,,,,,,1,,,64,58
148500,note_on,24,0,1,,,,,,,,1,,,69,84
148500,note_on,60,0,6,,,,,,,,0,,,52,79
148500,note_on,1,0,4,,,,,,,,10,,,40,77
148500,note_on,19,0,3,,,,,,,,1,,,68,84
148504,note_on,4,0,6,,,,,,,,0,,,40,0
148533,note_on,29,0,6,,,,,,,,0,,,52,0
148535,note_on,35,0,1,,,,,,,,1,,,69,0
148545,note_on,45,0,5,,,,,,,,0,,,69,0
148545,note_on,45,0,2,,,,,,,,1,,,64,0
148546,note_on,46,0,4,,,,,,,,10,,,40,0
148549,note_on,49,0,3,,,,,,,,1,,,68,0
148560,note_on,15,0,2,,,,,,,,1,,,69,96
148560,note_on,11,0,3,,,,,,,,1,,,66,86
148560,note_on,15,0,5,,,,,,,,0,,,74,102
148560,note_on,27,0,6,,,,,,,,0,,,42,91
148560,note_on,14,0,4,,,,,,,,10,,,42,126
148560,note_on,25,0,1,,,,,,,,1,,,74,108
148591,note_on,31,0,2,,,,,,,,1,,,69,0
148596,note_on,36,0,1,,,,,,,,1,,,74,0
148597,note_on,37,0,3,,,,,,,,1,,,66,0
148601,note_on,41,0,4,,,,,,,,10,,,42,0
148612,note_on,52,0,5,,,,,,,,0,,,74,0
148620,note_on,60,0,6,,,,,,,,0,,,54,81
148620,note_on,8,0,5,,,,,,,,0,,,71,96
148620,note_on,29,0,2,,,,,,,,1,,,69,84
148620,note_on,23,0,3,,,,,,,,1,,,66,91
148620,note_on,24,0,1,,,,,,,,1,,,71,89
148620,note_on,19,0,4,,,,,,,,10,,,42,127
148624,note_on,4,0,6,,,,,,,,0,,,42,0
148657,note_on,33,0,6,,,,,,,,0,,,54,0
148658,note_on,38,0,5,,,,,,,,0,,,71,0
148660,note_on,40,0,2,,,,,,,,1,,,69,0
148660,note_on,40,0,1,,,,,,,,1,,,71,0
148670,note_on,50,0,3,,,,,,,,1,,,66,0
148674,note_on,54,0,4,,,,,,,,10,,,42,0
148680,note_on,20,0,1,,,,,,,,1,,,76,81
148680,note_on,20,0,2,,,,,,,,1,,,71,77
148680,note_on,23,0,6,,,,,,,,0,,,44,72
148680,note_on,10,0,3,,,,,,,,1,,,64,79
148680,note_on,22,0,5,,,,,,,,0,,,76,113
148680,note_on,6,0,4,,,,,,,,10,,,44,127
148688,aftertouch,8,0,4,,,,,,,,10,,3,,
148692,control_change,4,0,4,,,,,,,,10,7,103,,
148696,aftertouch,4,0,4,,,,,,,,10,,0,,
148698,aftertouch,2,0,4,,,,,,,,10,,1,,
148707,aftertouch,9,0,4,,,,,,,,10,,0,,
148716,note_on,9,0,4,,,,,,,,10,,,44,0
148720,note_on,40,0,2,,,,,,,,1,,,71,0
148720,note_on,40,0,3,,,,,,,,1,,,64,0
148740,note_on,60,0,6,,,,,,,,0,,,56,66
148740,note_on,20,0,2,,,,,,,,1,,,71,111
148740,note_on,24,0,4,,,,,,,,10,,,44,74
148740,note_on,20,0,3,,,,,,,,1,,,64,77
148741,aftertouch,1,0,4,,,,,,,,10,,6,,
148749,aftertouch,8,0,4,,,,,,,,10,,0,,
148749,control_change,0,0,4,,,,,,,,10,7,104,,
148751,aftertouch,2,0,4,,,,,,,,10,,3,,
148760,aftertouch,9,0,4,,,,,,,,10,,0,,
148762,aftertouch,2,0,4,,,,,,,,10,,1,,
148763,note_on,83,0,1,,,,,,,,1,,,76,0
148766,note_on,26,0,6,,,,,,,,0,,,44,0
148771,aftertouch,9,0,4,,,,,,,,10,,0,,
148774,note_on,94,0,5,,,,,,,,0,,,76,0
148777,note_on,37,0,2,,,,,,,,1,,,71,0
148786,note_on,15,0,4,,,,,,,,10,,,44,0
148787,note_on,47,0,3,,,,,,,,1,,,64,0
148794,note_on,28,0,6,,,,,,,,0,,,56,0
148800,note_on,13,0,3,,,,,,,,1,,,64,99
148800,note_on,26,0,5,,,,,,,,0,,,74,96
148800,note_on,14,0,4,,,,,,,,10,,,45,102
148800,note_on,6,0,6,,,,,,,,0,,,45,93
148800,note_on,37,0,1,,,,,,,,1,,,74,96
148800,note_on,23,0,2,,,,,,,,1,,,69,102
148838,note_on,38,0,1,,,,,,,,1,,,74,0
148855,note_on,55,0,5,,,,,,,,0,,,74,0
148855,note_on,55,0,2,,,,,,,,1,,,69,0
148860,note_on,22,0,1,,,,,,,,1,,,73,96
148860,note_on,5,0,5,,,,,,,,0,,,73,96
148878,note_on,78,0,6,,,,,,,,0,,,45,0
148882,note_on,82,0,3,,,,,,,,1,,,64,0
148891,note_on,91,0,4,,,,,,,,10,,,45,0
148894,note_on,34,0,1,,,,,,,,1,,,73,0
148898,note_on,38,0,5,,,,,,,,0,,,73,0
148920,note_on,38,0,3,,,,,,,,1,,,66,96
148920,note_on,26,0,1,,,,,,,,1,,,71,81
148920,note_on,29,0,4,,,,,,,,10,,,42,127
148920,note_on,42,0,6,,,,,,,,0,,,42,51
148920,note_on,65,0,2,,,,,,,,1,,,61,72
148920,note_on,22,0,5,,,,,,,,0,,,71,90
148941,control_change,21,0,4,,,,,,,,10,7,106,,
148961,note_on,41,0,1,,,,,,,,1,,,71,0
148980,note_on,60,0,5,,,,,,,,0,,,69,82
148980,note_on,19,0,1,,,,,,,,1,,,69,77
148981,note_on,1,0,5,,,,,,,,0,,,71,0
148981,note_on,61,0,6,,,,,,,,0,,,42,0
149001,note_on,81,0,2,,,,,,,,1,,,61,0
149006,note_on,86,0,3,,,,,,,,1,,,66,0
149013,note_on,33,0,1,,,,,,,,1,,,69,0
149013,note_on,72,0,4,,,,,,,,10,,,42,0
149020,note_on,39,0,5,,,,,,,,0,,,69,0
149040,note_on,34,0,3,,,,,,,,1,,,66,79
149040,note_on,27,0,4,,,,,,,,10,,,38,111
149040,note_on,20,0,5,,,,,,,,0,,,73,88
149040,note_on,39,0,2,,,,,,,,1,,,66,77
149040,note_on,59,0,6,,,,,,,,0,,,38,81
149040,note_on,27,0,1,,,,,,,,1,,,73,127
149072,note_on,32,0,1,,,,,,,,1,,,73,0
149096,note_on,56,0,5,,,,,,,,0,,,73,0
149100,note_on,4,0,5,,,,,,,,0,,,71,96
149100,note_on,28,0,1,,,,,,,,1,,,71,84
149125,note_on,85,0,2,,,,,,,,1,,,66,0
149130,note_on,90,0,4,,,,,,,,10,,,38,0
149132,note_on,92,0,6,,,,,,,,0,,,38,0
149138,note_on,38,0,1,,,,,,,,1,,,71,0
149138,note_on,98,0,3,,,,,,,,1,,,66,0
149148,note_on,48,0,5,,,,,,,,0,,,71,0
149160,note_on,12,0,5,,,,,,,,0,,,69,106
149160,note_on,22,0,3,,,,,,,,1,,,59,96
149160,note_on,30,0,4,,,,,,,,10,,,40,127
149160,note_on,22,0,1,,,,,,,,1,,,69,102
149160,note_on,35,0,2,,,,,,,,1,,,64,66
149160,note_on,28,0,6,,,,,,,,0,,,40,77
149191,note_on,31,0,1,,,,,,,,1,,,69,0
149207,control_change,47,0,4,,,,,,,,10,7,107,,
149208,note_on,48,0,5,,,,,,,,0,,,69,0
149220,note_on,29,0,1,,,,,,,,1,,,68,91
149220,note_on,12,0,5,,,,,,,,0,,,68,88
149246,note_on,86,0,2,,,,,,,,1,,,64,0
149248,note_on,88,0,6,,,,,,,,0,,,40,0
149257,note_on,37,0,5,,,,,,,,0,,,68,0
149258,note_on,38,0,1,,,,,,,,1,,,68,0
149260,note_on,100,0,3,,,,,,,,1,,,59,0
149268,note_on,61,0,4,,,,,,,,10,,,40,0
149280,note_on,20,0,3,,,,,,,,1,,,61,89
149280,note_on,12,0,4,,,,,,,,10,,,33,111
149280,note_on,23,0,5,,,,,,,,0,,,69,102
149280,note_on,32,0,6,,,,,,,,0,,,45,108
149280,note_on,22,0,1,,,,,,,,1,,,69,120
149280,note_on,34,0,2,,,,,,,,1,,,64,58
149343,control_change,63,0,4,,,,,,,,10,7,106,,
149364,control_change,21,0,4,,,,,,,,10,7,105,,
149372,note_on,92,0,5,,,,,,,,0,,,69,0
149385,control_change,21,0,4,,,,,,,,10,7,103,,
149398,control_change,13,0,4,,,,,,,,10,7,102,,
149400,note_on,28,0,5,,,,,,,,0,,,67,90
149429,note_on,29,0,5,,,,,,,,0,,,67,0
149430,note_on,1,0,5,,,,,,,,0,,,66,70
149455,note_on,25,0,5,,,,,,,,0,,,66,0
149460,note_on,5,0,5,,,,,,,,0,,,64,85
149479,note_on,19,0,5,,,,,,,,0,,,64,0
149490,note_on,11,0,5,,,,,,,,0,,,66,79
149496,note_on,98,0,4,,,,,,,,10,,,33,0
149496,note_on,216,0,6,,,,,,,,0,,,45,0
149496,note_on,216,0,3,,,,,,,,1,,,61,0
149496,note_on,216,0,2,,,,,,,,1,,,64,0
149496,note_on,216,0,1,,,,,,,,1,,,69,0
149508,note_on,18,0,5,,,,,,,,0,,,66,0
149520,note_on,12,0,5,,,,,,,,0,,,67,90
149527,control_change,31,0,4,,,,,,,,10,7,100,,
149546,note_on,26,0,5,,,,,,,,0,,,67,0
149550,note_on,4,0,5,,,,,,,,0,,,66,63
149552,control_change,25,0,4,,,,,,,,10,7,99,,
149569,note_on,19,0,5,,,,,,,,0,,,66,0
149578,control_change,26,0,4,,,,,,,,10,7,97,,
149580,note_on,11,0,5,,,,,,,,0,,,64,66
149599,note_on,19,0,5,,,,,,,,0,,,64,0
149600,control_change,22,0,4,,,,,,,,10,7,96,,
149610,note_on,11,0,5,,,,,,,,0,,,62,85
149620,control_change,20,0,4,,,,,,,,10,7,94,,
149627,note_on,17,0,5,,,,,,,,0,,,62,0
149640,note_on,13,0,5,,,,,,,,0,,,61,110
149670,note_on,30,0,5,,,,,,,,0,,,59,79
149673,note_on,3,0,5,,,,,,,,0,,,61,0
149684,note_on,11,0,5,,,,,,,,0,,,59,0
149693,control_change,73,0,4,,,,,,,,10,7,95,,
149700,note_on,16,0,5,,,,,,,,0,,,57,106
149714,note_on,14,0,5,,,,,,,,0,,,57,0
149715,note_on,1,0,5,,,,,,,,0,,,55,96
149722,control_change,29,0,4,,,,,,,,10,7,97,,
149729,note_on,14,0,5,,,,,,,,0,,,55,0
149730,note_on,1,0,5,,,,,,,,0,,,54,110
149745,control_change,23,0,4,,,,,,,,10,7,98,,
149745,note_on,15,0,5,,,,,,,,0,,,52,85
149757,note_on,12,0,5,,,,,,,,0,,,54,0
149759,note_on,2,0,5,,,,,,,,0,,,52,0
149760,note_on,15,0,4,,,,,,,,10,,,38,127
149760,note_on,264,0,3,,,,,,,,1,,,54,105
149760,note_on,264,0,6,,,,,,,,0,,,50,96
149760,note_on,0,0,5,,,,,,,,0,,,57,72
149760,note_on,264,0,2,,,,,,,,1,,,57,111
149760,note_on,0,0,5,,,,,,,,0,,,66,51
149760,note_on,1,0,5,,,,,,,,0,,,62,74
149760,note_on,264,0,1,,,,,,,,1,,,62,120
149765,aftertouch,5,0,3,,,,,,,,1,,0,,
149767,aftertouch,2,0,3,,,,,,,,1,,1,,
149774,aftertouch,7,0,3,,,,,,,,1,,0,,
149856,note_on,96,0,5,,,,,,,,0,,,57,0
149856,note_on,0,0,5,,,,,,,,0,,,66,0
149856,note_on,0,0,5,,,,,,,,0,,,62,0
149875,aftertouch,101,0,3,,,,,,,,1,,6,,
149877,aftertouch,2,0,3,,,,,,,,1,,0,,
149878,aftertouch,1,0,3,,,,,,,,1,,3,,
149976,note_on,98,0,3,,,,,,,,1,,,54,0
149976,note_on,216,0,6,,,,,,,,0,,,50,0
149976,note_on,216,0,4,,,,,,,,10,,,38,0
149976,note_on,216,0,2,,,,,,,,1,,,57,0
149976,note_on,216,0,1,,,,,,,,1,,,62,0
150000,note_on,24,0,3,,,,,,,,1,,,57,126
150000,note_on,0,0,5,,,,,,,,0,,,62,77
150000,note_on,0,0,5,,,,,,,,0,,,54,64
150000,note_on,144,0,5,,,,,,,,0,,,57,79
150000,note_on,24,0,1,,,,,,,,1,,,66,127
150000,note_on,24,0,6,,,,,,,,0,,,38,89
150000,note_on,24,0,2,,,,,,,,1,,,62,96
150096,note_on,0,0,5,,,,,,,,0,,,57,0
150096,note_on,96,0,5,,,,,,,,0,,,62,0
150096,note_on,0,0,5,,,,,,,,0,,,54,0
150113,note_on,137,0,4,,,,,,,,10,,,26,93
150216,note_on,216,0,2,,,,,,,,1,,,62,0
150216,note_on,216,0,1,,,,,,,,1,,,66,0
150216,note_on,216,0,6,,,,,,,,0,,,38,0
150216,note_on,216,0,3,,,,,,,,1,,,57,0
150240,note_on,24,0,2,,,,,,,,1,,,66,117
150240,note_on,24,0,6,,,,,,,,0,,,50,77
150240,note_on,144,0,5,,,,,,,,0,,,57,84
150240,note_on,24,0,1,,,,,,,,1,,,69,108
150240,note_on,24,0,3,,,,,,,,1,,,62,117
150288,note_on,48,0,5,,,,,,,,0,,,57,0
150300,note_on,12,0,5,,,,,,,,0,,,59,89
150329,note_on,216,0,4,,,,,,,,10,,,26,0
150348,note_on,48,0,5,,,,,,,,0,,,59,0
150353,note_on,24,0,4,,,,,,,,10,,,38,127
150360,note_on,12,0,5,,,,,,,,0,,,60,72
150408,note_on,48,0,5,,,,,,,,0,,,60,0
150420,note_on,12,0,5,,,,,,,,0,,,66,64
150456,note_on,216,0,6,,,,,,,,0,,,50,0
150456,note_on,216,0,1,,,,,,,,1,,,69,0
150456,note_on,216,0,2,,,,,,,,1,,,66,0
150456,note_on,216,0,3,,,,,,,,1,,,62,0
150468,note_on,48,0,5,,,,,,,,0,,,66,0
150480,note_on,24,0,3,,,,,,,,1,,,66,51
150480,note_on,12,0,5,,,,,,,,0,,,69,79
150528,note_on,48,0,5,,,,,,,,0,,,69,0
150540,note_on,12,0,5,,,,,,,,0,,,66,84
150569,note_on,216,0,4,,,,,,,,10,,,38,0
150588,note_on,48,0,5,,,,,,,,0,,,66,0
150600,note_on,144,0,6,,,,,,,,0,,,50,89
150600,note_on,12,0,5,,,,,,,,0,,,64,72
150635,control_change,66,0,4,,,,,,,,10,7,97,,
150642,note_on,42,0,6,,,,,,,,0,,,50,0
150648,note_on,48,0,5,,,,,,,,0,,,64,0
150660,note_on,12,0,5,,,,,,,,0,,,62,84
150668,control_change,33,0,4,,,,,,,,10,7,96,,
150688,control_change,20,0,4,,,,,,,,10,7,94,,
150696,note_on,216,0,3,,,,,,,,1,,,66,0
150708,note_on,48,0,5,,,,,,,,0,,,62,0
150720,note_on,0,0,1,,,,,,,,1,,,66,30
150720,note_on,264,0,2,,,,,,,,1,,,62,35
150720,note_on,78,0,6,,,,,,,,0,,,50,102
150720,control_change,264,0,1,,,,,,,,1,7,110,,
150720,note_on,12,0,5,,,,,,,,0,,,60,96
150720,note_on,24,0,3,,,,,,,,1,,,69,69
150740,control_change,20,0,1,,,,,,,,1,7,108,,
150753,note_on,33,0,5,,,,,,,,0,,,60,0
150771,control_change,31,0,1,,,,,,,,1,7,107,,
150780,note_on,27,0,5,,,,,,,,0,,,62,75
150824,note_on,44,0,5,,,,,,,,0,,,62,0
150826,note_on,106,0,6,,,,,,,,0,,,50,0
150840,note_on,14,0,6,,,,,,,,0,,,38,77
150840,note_on,16,0,5,,,,,,,,0,,,66,110
150886,note_on,46,0,5,,,,,,,,0,,,66,0
150900,note_on,14,0,5,,,,,,,,0,,,69,110
150936,note_on,165,0,1,,,,,,,,1,,,66,0
150936,note_on,216,0,3,,,,,,,,1,,,69,0
150936,note_on,216,0,2,,,,,,,,1,,,62,0
150945,note_on,105,0,6,,,,,,,,0,,,38,0
150946,note_on,46,0,5,,,,,,,,0,,,69,0
150960,note_on,14,0,5,,,,,,,,0,,,72,127
150960,note_on,24,0,2,,,,,,,,1,,,66,43
150971,control_change,35,0,1,,,,,,,,1,7,105,,
151010,note_on,50,0,5,,,,,,,,0,,,72,0
151020,note_on,10,0,5,,,,,,,,0,,,71,82
151059,note_on,88,0,1,,,,,,,,1,,,69,35
151068,note_on,48,0,5,,,,,,,,0,,,71,0
151080,note_on,12,0,5,,,,,,,,0,,,69,90
151080,note_on,135,0,6,,,,,,,,0,,,50,93
151098,note_on,18,0,6,,,,,,,,0,,,50,0
151130,note_on,50,0,5,,,,,,,,0,,,69,0
151140,note_on,10,0,5,,,,,,,,0,,,67,96
151175,note_on,35,0,5,,,,,,,,0,,,67,0
151176,note_on,216,0,2,,,,,,,,1,,,66,0
151200,note_on,102,0,6,,,,,,,,0,,,50,96
151200,note_on,264,0,3,,,,,,,,1,,,62,48
151200,note_on,24,0,2,,,,,,,,1,,,69,35
151200,note_on,25,0,5,,,,,,,,0,,,66,102
151250,note_on,50,0,5,,,,,,,,0,,,66,0
151260,note_on,10,0,5,,,,,,,,0,,,67,110
151275,note_on,216,0,1,,,,,,,,1,,,69,0
151292,note_on,92,0,6,,,,,,,,0,,,50,0
151299,note_on,24,0,1,,,,,,,,1,,,74,22
151304,note_on,44,0,5,,,,,,,,0,,,67,0
151320,note_on,16,0,5,,,,,,,,0,,,69,66
151320,note_on,28,0,6,,,,,,,,0,,,38,84
151369,note_on,49,0,5,,,,,,,,0,,,69,0
151380,note_on,11,0,5,,,,,,,,0,,,66,93
151416,note_on,216,0,2,,,,,,,,1,,,69,0
151416,note_on,216,0,3,,,,,,,,1,,,62,0
151419,note_on,99,0,6,,,,,,,,0,,,38,0
151430,note_on,50,0,5,,,,,,,,0,,,66,0
151440,note_on,24,0,3,,,,,,,,1,,,66,55
151440,note_on,10,0,5,,,,,,,,0,,,62,102
151492,note_on,52,0,5,,,,,,,,0,,,62,0
151500,note_on,8,0,5,,,,,,,,0,,,66,88
151515,note_on,216,0,1,,,,,,,,1,,,74,0
151549,note_on,49,0,5,,,,,,,,0,,,66,0
151560,note_on,11,0,5,,,,,,,,0,,,64,90
151560,note_on,141,0,6,,,,,,,,0,,,50,84
151591,note_on,31,0,6,,,,,,,,0,,,50,0
151599,note_on,39,0,5,,,,,,,,0,,,64,0
151620,note_on,21,0,5,,,,,,,,0,,,62,110
151656,note_on,216,0,3,,,,,,,,1,,,66,0
151670,note_on,50,0,5,,,,,,,,0,,,62,0
151680,note_on,165,0,1,,,,,,,,1,,,69,3
151680,note_on,24,0,3,,,,,,,,1,,,69,69
151680,note_on,10,0,5,,,,,,,,0,,,72,127
151680,note_on,89,0,6,,,,,,,,0,,,50,84
151680,note_on,264,0,2,,,,,,,,1,,,66,26
151735,note_on,55,0,5,,,,,,,,0,,,72,0
151740,note_on,5,0,5,,,,,,,,0,,,71,93
151783,note_on,103,0,6,,,,,,,,0,,,50,0
151785,note_on,45,0,5,,,,,,,,0,,,71,0
151800,note_on,15,0,5,,,,,,,,0,,,69,110
151800,note_on,17,0,6,,,,,,,,0,,,38,89
151854,note_on,54,0,5,,,,,,,,0,,,69,0
151860,note_on,6,0,5,,,,,,,,0,,,67,110
151896,note_on,216,0,1,,,,,,,,1,,,69,0
151896,note_on,216,0,3,,,,,,,,1,,,69,0
151896,note_on,216,0,2,,,,,,,,1,,,66,0
151899,note_on,99,0,6,,,,,,,,0,,,38,0
151900,note_on,40,0,5,,,,,,,,0,,,67,0
151920,note_on,24,0,1,,,,,,,,1,,,74,8
151920,note_on,24,0,2,,,,,,,,1,,,69,30
151920,note_on,20,0,5,,,,,,,,0,,,66,110
151969,note_on,49,0,5,,,,,,,,0,,,66,0
151980,note_on,11,0,5,,,,,,,,0,,,67,102
152029,note_on,49,0,5,,,,,,,,0,,,67,0
152040,note_on,141,0,6,,,,,,,,0,,,50,74
152040,note_on,11,0,5,,,,,,,,0,,,69,88
152073,note_on,33,0,6,,,,,,,,0,,,50,0
152090,note_on,50,0,5,,,,,,,,0,,,69,0
152100,note_on,10,0,5,,,,,,,,0,,,66,102
152136,note_on,216,0,1,,,,,,,,1,,,74,0
152136,note_on,216,0,2,,,,,,,,1,,,69,0
152146,note_on,46,0,5,,,,,,,,0,,,66,0
152160,note_on,14,0,5,,,,,,,,0,,,62,106
152160,note_on,24,0,1,,,,,,,,1,,,78,1
152160,note_on,87,0,6,,,,,,,,0,,,50,64
152160,note_on,24,0,2,,,,,,,,1,,,74,43
152160,note_on,264,0,3,,,,,,,,1,,,62,66
152209,note_on,49,0,5,,,,,,,,0,,,62,0
152220,note_on,11,0,5,,,,,,,,0,,,66,102
152248,note_on,88,0,6,,,,,,,,0,,,50,0
152271,note_on,51,0,5,,,,,,,,0,,,66,0
152280,note_on,32,0,6,,,,,,,,0,,,38,79
152280,note_on,9,0,5,,,,,,,,0,,,64,82
152325,note_on,45,0,5,,,,,,,,0,,,64,0
152340,note_on,15,0,5,,,,,,,,0,,,62,110
152376,note_on,216,0,2,,,,,,,,1,,,74,0
152376,note_on,216,0,1,,,,,,,,1,,,78,0
152376,note_on,216,0,3,,,,,,,,1,,,62,0
152387,note_on,107,0,6,,,,,,,,0,,,38,0
152393,note_on,53,0,5,,,,,,,,0,,,62,0
152400,note_on,7,0,5,,,,,,,,0,,,72,127
152400,note_on,24,0,3,,,,,,,,1,,,66,64
152454,note_on,54,0,5,,,,,,,,0,,,72,0
152460,note_on,6,0,5,,,,,,,,0,,,71,88
152506,note_on,46,0,5,,,,,,,,0,,,71,0
152520,note_on,14,0,5,,,,,,,,0,,,69,98
152576,note_on,56,0,5,,,,,,,,0,,,69,0
152580,note_on,4,0,5,,,,,,,,0,,,67,90
152616,note_on,36,0,5,,,,,,,,0,,,67,0
152616,note_on,216,0,3,,,,,,,,1,,,66,0
152640,note_on,24,0,3,,,,,,,,1,,,69,51
152640,note_on,24,0,5,,,,,,,,0,,,66,98
152691,note_on,51,0,5,,,,,,,,0,,,66,0
152700,note_on,9,0,5,,,,,,,,0,,,67,90
152742,note_on,42,0,5,,,,,,,,0,,,67,0
152760,note_on,18,0,5,,,,,,,,0,,,69,90
152796,note_on,36,0,5,,,,,,,,0,,,69,0
152820,note_on,24,0,5,,,,,,,,0,,,66,102
152848,note_on,28,0,5,,,,,,,,0,,,66,0
152856,note_on,216,0,3,,,,,,,,1,,,69,0
152880,note_on,32,0,5,,,,,,,,0,,,62,102
152922,control_change,2234,0,4,,,,,,,,10,7,87,,
152939,note_on,59,0,5,,,,,,,,0,,,62,0
152952,control_change,30,0,4,,,,,,,,10,7,88,,
152964,control_change,12,0,4,,,,,,,,10,7,89,,
152978,control_change,14,0,4,,,,,,,,10,7,91,,
152987,control_change,9,0,4,,,,,,,,10,7,92,,
152995,control_change,8,0,4,,,,,,,,10,7,94,,
153000,note_on,61,0,5,,,,,,,,0,,,62,89
153000,note_on,0,0,5,,,,,,,,0,,,66,127
153000,note_on,624,0,2,,,,,,,,1,,,62,86
153000,note_on,613,0,6,,,,,,,,0,,,38,96
153000,note_on,5,0,4,,,,,,,,10,,,26,126
153000,note_on,144,0,3,,,,,,,,1,,,57,64
153000,note_on,624,0,1,,,,,,,,1,,,66,127
153031,note_on,31,0,2,,,,,,,,1,,,62,0
153038,note_on,38,0,1,,,,,,,,1,,,66,0
153039,note_on,39,0,6,,,,,,,,0,,,38,0
153046,note_on,46,0,5,,,,,,,,0,,,66,0
153046,note_on,0,0,5,,,,,,,,0,,,62,0
153048,aftertouch,10,0,1,,,,,,,,1,,6,,
153057,aftertouch,9,0,1,,,,,,,,1,,0,,
153058,note_on,58,0,4,,,,,,,,10,,,26,0
153059,aftertouch,2,0,1,,,,,,,,1,,3,,
153060,note_on,1,0,1,,,,,,,,1,,,67,111
153060,note_on,14,0,5,,,,,,,,0,,,64,81
153060,note_on,0,0,5,,,,,,,,0,,,67,106
153060,note_on,29,0,2,,,,,,,,1,,,64,86
153067,aftertouch,7,0,1,,,,,,,,1,,0,,
153070,aftertouch,70,0,3,,,,,,,,1,,1,,
153070,aftertouch,3,0,1,,,,,,,,1,,1,,
153070,aftertouch,10,0,2,,,,,,,,1,,1,,
153070,aftertouch,12,0,4,,,,,,,,10,,1,,
153076,note_on,6,0,3,,,,,,,,1,,,57,0
153078,aftertouch,8,0,1,,,,,,,,1,,0,,
153094,note_on,24,0,2,,,,,,,,1,,,64,0
153095,note_on,35,0,5,,,,,,,,0,,,64,0
153099,note_on,4,0,5,,,,,,,,0,,,67,0
153101,note_on,23,0,1,,,,,,,,1,,,67,0
153120,note_on,44,0,3,,,,,,,,1,,,62,77
153120,note_on,19,0,1,,,,,,,,1,,,69,96
153120,note_on,26,0,2,,,,,,,,1,,,66,120
153120,note_on,50,0,4,,,,,,,,10,,,38,84
153120,note_on,0,0,5,,,,,,,,0,,,69,127
153120,note_on,21,0,5,,,,,,,,0,,,66,105
153120,note_on,81,0,6,,,,,,,,0,,,50,89
153162,note_on,42,0,6,,,,,,,,0,,,50,0
153165,note_on,45,0,4,,,,,,,,10,,,38,0
153179,note_on,59,0,1,,,,,,,,1,,,69,0
153180,note_on,15,0,4,,,,,,,,10,,,40,89
153180,note_on,18,0,6,,,,,,,,0,,,52,77
153183,note_on,63,0,5,,,,,,,,0,,,69,0
153192,note_on,72,0,2,,,,,,,,1,,,66,0
153195,note_on,75,0,3,,,,,,,,1,,,62,0
153202,note_on,19,0,5,,,,,,,,0,,,66,0
153219,note_on,39,0,6,,,,,,,,0,,,52,0
153223,note_on,43,0,4,,,,,,,,10,,,40,0
153240,note_on,21,0,6,,,,,,,,0,,,54,74
153240,note_on,17,0,4,,,,,,,,10,,,42,114
153240,note_on,48,0,2,,,,,,,,1,,,62,77
153240,note_on,0,0,5,,,,,,,,0,,,66,102
153240,note_on,38,0,5,,,,,,,,0,,,62,89
153240,note_on,61,0,1,,,,,,,,1,,,66,111
153240,note_on,45,0,3,,,,,,,,1,,,57,111
153271,note_on,31,0,6,,,,,,,,0,,,54,0
153272,note_on,32,0,2,,,,,,,,1,,,62,0
153273,note_on,33,0,5,,,,,,,,0,,,66,0
153274,note_on,34,0,1,,,,,,,,1,,,66,0
153276,note_on,3,0,5,,,,,,,,0,,,62,0
153281,note_on,41,0,4,,,,,,,,10,,,42,0
153287,control_change,13,0,1,,,,,,,,1,7,106,,
153300,note_on,29,0,6,,,,,,,,0,,,52,102
153300,note_on,24,0,5,,,,,,,,0,,,67,110
153300,note_on,28,0,2,,,,,,,,1,,,64,72
153300,note_on,0,0,5,,,,,,,,0,,,64,96
153300,note_on,13,0,1,,,,,,,,1,,,67,96
153300,note_on,19,0,4,,,,,,,,10,,,40,89
153309,note_on,69,0,3,,,,,,,,1,,,57,0
153329,note_on,29,0,5,,,,,,,,0,,,67,0
153333,note_on,4,0,5,,,,,,,,0,,,64,0
153333,note_on,33,0,6,,,,,,,,0,,,52,0
153336,note_on,36,0,2,,,,,,,,1,,,64,0
153339,note_on,39,0,1,,,,,,,,1,,,67,0
153342,note_on,42,0,4,,,,,,,,10,,,40,0
153360,note_on,24,0,2,,,,,,,,1,,,66,89
153360,note_on,27,0,6,,,,,,,,0,,,50,72
153360,note_on,21,0,1,,,,,,,,1,,,69,111
153360,note_on,51,0,3,,,,,,,,1,,,62,89
153360,note_on,18,0,4,,,,,,,,10,,,38,86
153360,note_on,27,0,5,,,,,,,,0,,,69,127
153360,note_on,0,0,5,,,,,,,,0,,,66,111
153376,control_change,16,0,1,,,,,,,,1,7,107,,
153399,note_on,39,0,6,,,,,,,,0,,,50,0
153404,note_on,44,0,4,,,,,,,,10,,,38,0
153409,note_on,33,0,1,,,,,,,,1,,,69,0
153420,note_on,21,0,6,,,,,,,,0,,,52,74
153420,note_on,60,0,5,,,,,,,,0,,,69,0
153420,note_on,16,0,4,,,,,,,,10,,,40,86
153424,note_on,4,0,5,,,,,,,,0,,,66,0
153436,note_on,76,0,2,,,,,,,,1,,,66,0
153440,note_on,80,0,3,,,,,,,,1,,,62,0
153452,note_on,32,0,6,,,,,,,,0,,,52,0
153462,note_on,42,0,4,,,,,,,,10,,,40,0
153480,note_on,18,0,4,,,,,,,,10,,,42,114
153480,note_on,44,0,2,,,,,,,,1,,,69,77
153480,note_on,71,0,1,,,,,,,,1,,,74,77
153480,note_on,56,0,5,,,,,,,,0,,,74,127
153480,note_on,40,0,3,,,,,,,,1,,,57,111
153480,note_on,28,0,6,,,,,,,,0,,,54,84
153480,note_on,0,0,5,,,,,,,,0,,,69,111
153481,control_change,1,0,1,,,,,,,,1,7,109,,
153513,note_on,33,0,6,,,,,,,,0,,,54,0
153519,note_on,39,0,4,,,,,,,,10,,,42,0
153539,note_on,58,0,1,,,,,,,,1,,,74,0
153540,note_on,27,0,6,,,,,,,,0,,,52,72
153540,note_on,21,0,4,,,,,,,,10,,,40,111
153549,note_on,69,0,2,,,,,,,,1,,,69,0
153549,note_on,69,0,5,,,,,,,,0,,,69,0
153552,note_on,3,0,5,,,,,,,,0,,,74,0
153561,note_on,81,0,3,,,,,,,,1,,,57,0
153578,note_on,38,0,6,,,,,,,,0,,,52,0
153587,note_on,47,0,4,,,,,,,,10,,,40,0
153600,note_on,0,0,5,,,,,,,,0,,,69,127
153600,note_on,13,0,4,,,,,,,,10,,,38,102
153600,note_on,51,0,2,,,,,,,,1,,,66,96
153600,note_on,48,0,5,,,,,,,,0,,,66,105
153600,note_on,22,0,6,,,,,,,,0,,,50,84
153600,note_on,61,0,1,,,,,,,,1,,,69,86
153600,note_on,39,0,3,,,,,,,,1,,,62,81
153639,note_on,39,0,6,,,,,,,,0,,,50,0
153643,note_on,43,0,4,,,,,,,,10,,,38,0
153654,note_on,54,0,1,,,,,,,,1,,,69,0
153660,note_on,17,0,4,,,,,,,,10,,,40,111
153660,note_on,21,0,6,,,,,,,,0,,,52,72
153668,note_on,68,0,5,,,,,,,,0,,,69,0
153672,note_on,4,0,5,,,,,,,,0,,,66,0
153673,note_on,73,0,3,,,,,,,,1,,,62,0
153680,note_on,80,0,2,,,,,,,,1,,,66,0
153699,note_on,39,0,6,,,,,,,,0,,,52,0
153706,note_on,46,0,4,,,,,,,,10,,,40,0
153720,note_on,48,0,5,,,,,,,,0,,,62,89
153720,note_on,14,0,4,,,,,,,,10,,,42,105
153720,note_on,40,0,2,,,,,,,,1,,,62,74
153720,note_on,66,0,1,,,,,,,,1,,,69,74
153720,note_on,47,0,3,,,,,,,,1,,,57,79
153720,note_on,0,0,5,,,,,,,,0,,,69,102
153720,note_on,21,0,6,,,,,,,,0,,,54,96
153749,note_on,29,0,1,,,,,,,,1,,,69,0
153756,note_on,36,0,6,,,,,,,,0,,,54,0
153758,note_on,38,0,4,,,,,,,,10,,,42,0
153764,note_on,44,0,5,,,,,,,,0,,,69,0
153780,note_on,24,0,6,,,,,,,,0,,,52,69
153780,note_on,31,0,1,,,,,,,,1,,,67,84
153780,note_on,22,0,4,,,,,,,,10,,,40,81
153780,note_on,16,0,5,,,,,,,,0,,,67,106
153790,note_on,70,0,2,,,,,,,,1,,,62,0
153792,note_on,12,0,5,,,,,,,,0,,,62,0
153794,note_on,74,0,3,,,,,,,,1,,,57,0
153811,note_on,31,0,6,,,,,,,,0,,,52,0
153819,note_on,27,0,5,,,,,,,,0,,,67,0
153827,note_on,47,0,4,,,,,,,,10,,,40,0
153827,note_on,47,0,1,,,,,,,,1,,,67,0
153840,note_on,13,0,1,,,,,,,,1,,,66,91
153840,note_on,29,0,6,,,,,,,,0,,,50,84
153840,note_on,46,0,3,,,,,,,,1,,,57,72
153840,note_on,50,0,2,,,,,,,,1,,,62,72
153840,note_on,21,0,5,,,,,,,,0,,,66,110
153840,note_on,0,0,5,,,,,,,,0,,,62,84
153840,note_on,13,0,4,,,,,,,,10,,,38,99
153904,note_on,64,0,5,,,,,,,,0,,,66,0
153912,note_on,72,0,1,,,,,,,,1,,,66,0
153917,note_on,77,0,2,,,,,,,,1,,,62,0
153918,note_on,78,0,6,,,,,,,,0,,,50,0
153925,note_on,85,0,3,,,,,,,,1,,,57,0
153927,note_on,87,0,4,,,,,,,,10,,,38,0
153953,note_on,49,0,5,,,,,,,,0,,,62,0
153960,note_on,7,0,5,,,,,,,,0,,,64,90
153960,note_on,35,0,3,,,,,,,,1,,,54,72
153960,note_on,33,0,4,,,,,,,,10,,,26,123
153960,note_on,48,0,1,,,,,,,,1,,,64,112
153960,note_on,43,0,2,,,,,,,,1,,,57,69
153960,note_on,42,0,6,,,,,,,,0,,,38,102
153997,note_on,37,0,5,,,,,,,,0,,,64,0
154000,note_on,40,0,1,,,,,,,,1,,,64,0
154020,note_on,23,0,5,,,,,,,,0,,,62,85
154020,note_on,20,0,1,,,,,,,,1,,,62,74
154029,note_on,69,0,6,,,,,,,,0,,,38,0
154039,note_on,79,0,2,,,,,,,,1,,,57,0
154040,note_on,80,0,3,,,,,,,,1,,,54,0
154050,note_on,30,0,1,,,,,,,,1,,,62,0
154058,note_on,38,0,5,,,,,,,,0,,,62,0
154071,note_on,111,0,4,,,,,,,,10,,,26,0
154080,note_on,41,0,2,,,,,,,,1,,,62,30
154080,note_on,30,0,1,,,,,,,,1,,,57,18
154080,note_on,51,0,6,,,,,,,,0,,,50,64
154080,note_on,40,0,3,,,,,,,,1,,,54,22
154080,note_on,22,0,5,,,,,,,,0,,,69,106
154125,note_on,45,0,5,,,,,,,,0,,,69,0
154140,note_on,15,0,5,,,,,,,,0,,,74,106
154176,note_on,96,0,6,,,,,,,,0,,,50,0
154182,note_on,42,0,5,,,,,,,,0,,,74,0
154200,note_on,18,0,5,,,,,,,,0,,,69,82
154200,note_on,24,0,6,,,,,,,,0,,,54,89
154240,note_on,40,0,6,,,,,,,,0,,,54,0
154244,note_on,44,0,5,,,,,,,,0,,,69,0
154260,note_on,16,0,5,,,,,,,,0,,,67,90
154260,note_on,20,0,6,,,,,,,,0,,,52,72
154292,note_on,32,0,5,,,,,,,,0,,,67,0
154316,note_on,56,0,6,,,,,,,,0,,,52,0
154320,note_on,28,0,5,,,,,,,,0,,,66,120
154320,note_on,4,0,6,,,,,,,,0,,,50,89
154359,note_on,39,0,5,,,,,,,,0,,,66,0
154380,note_on,21,0,5,,,,,,,,0,,,69,96
154396,note_on,76,0,6,,,,,,,,0,,,50,0
154419,note_on,39,0,5,,,,,,,,0,,,69,0
154440,note_on,21,0,5,,,,,,,,0,,,66,117
154440,note_on,44,0,6,,,,,,,,0,,,45,89
154475,note_on,35,0,5,,,,,,,,0,,,66,0
154500,note_on,25,0,5,,,,,,,,0,,,64,117
154504,note_on,64,0,6,,,,,,,,0,,,45,0
154539,note_on,39,0,5,,,,,,,,0,,,64,0
154560,note_on,21,0,5,,,,,,,,0,,,62,110
154560,note_on,56,0,6,,,,,,,,0,,,50,79
154610,note_on,50,0,5,,,,,,,,0,,,62,0
154620,note_on,10,0,5,,,,,,,,0,,,72,102
154636,note_on,76,0,6,,,,,,,,0,,,50,0
154664,note_on,44,0,5,,,,,,,,0,,,72,0
154680,note_on,16,0,5,,,,,,,,0,,,69,102
154680,note_on,44,0,6,,,,,,,,0,,,54,81
154720,note_on,40,0,6,,,,,,,,0,,,54,0
154734,note_on,54,0,5,,,,,,,,0,,,69,0
154740,note_on,20,0,6,,,,,,,,0,,,52,69
154740,note_on,6,0,5,,,,,,,,0,,,67,88
154774,control_change,694,0,1,,,,,,,,1,7,108,,
154780,note_on,40,0,6,,,,,,,,0,,,52,0
154786,note_on,46,0,5,,,,,,,,0,,,67,0
154800,note_on,14,0,5,,,,,,,,0,,,66,90
154800,note_on,20,0,6,,,,,,,,0,,,50,84
154837,note_on,37,0,5,,,,,,,,0,,,66,0
154860,note_on,23,0,5,,,,,,,,0,,,69,90
154875,note_on,75,0,6,,,,,,,,0,,,50,0
154902,note_on,42,0,5,,,,,,,,0,,,69,0
154920,note_on,45,0,6,,,,,,,,0,,,45,89
154920,note_on,18,0,5,,,,,,,,0,,,66,73
154952,note_on,32,0,5,,,,,,,,0,,,66,0
154980,note_on,28,0,5,,,,,,,,0,,,64,90
155005,note_on,85,0,6,,,,,,,,0,,,45,0
155022,note_on,42,0,5,,,,,,,,0,,,64,0
155040,note_on,18,0,5,,,,,,,,0,,,62,102
155040,note_on,35,0,6,,,,,,,,0,,,47,66
155089,note_on,49,0,5,,,,,,,,0,,,62,0
155100,note_on,11,0,5,,,,,,,,0,,,71,96
155134,note_on,94,0,6,,,,,,,,0,,,47,0
155144,note_on,44,0,5,,,,,,,,0,,,71,0
155160,note_on,16,0,5,,,,,,,,0,,,67,93
155160,note_on,26,0,6,,,,,,,,0,,,52,74
155200,note_on,40,0,6,,,,,,,,0,,,52,0
155206,note_on,46,0,5,,,,,,,,0,,,67,0
155220,note_on,20,0,6,,,,,,,,0,,,50,77
155220,note_on,14,0,5,,,,,,,,0,,,66,82
155232,note_on,458,0,1,,,,,,,,1,,,57,0
155232,note_on,1152,0,2,,,,,,,,1,,,62,0
155232,note_on,1152,0,3,,,,,,,,1,,,54,0
155259,note_on,39,0,6,,,,,,,,0,,,50,0
155262,note_on,42,0,5,,,,,,,,0,,,66,0
155280,note_on,21,0,6,,,,,,,,0,,,49,89
155280,note_on,18,0,5,,,,,,,,0,,,64,75
155320,note_on,40,0,5,,,,,,,,0,,,64,0
155340,note_on,20,0,5,,,,,,,,0,,,67,90
155360,note_on,80,0,6,,,,,,,,0,,,49,0
155391,note_on,51,0,5,,,,,,,,0,,,67,0
155400,note_on,40,0,6,,,,,,,,0,,,47,84
155400,note_on,9,0,5,,,,,,,,0,,,64,90
155440,note_on,40,0,5,,,,,,,,0,,,64,0
155460,note_on,20,0,5,,,,,,,,0,,,62,73
155484,note_on,84,0,6,,,,,,,,0,,,47,0
155493,note_on,33,0,5,,,,,,,,0,,,62,0
155520,note_on,27,0,5,,,,,,,,0,,,61,117
155520,note_on,36,0,6,,,,,,,,0,,,45,96
155564,note_on,44,0,5,,,,,,,,0,,,61,0
155580,note_on,16,0,5,,,,,,,,0,,,64,75
155608,note_on,88,0,6,,,,,,,,0,,,45,0
155625,note_on,45,0,5,,,,,,,,0,,,64,0
155640,note_on,32,0,6,,,,,,,,0,,,47,69
155640,note_on,15,0,5,,,,,,,,0,,,67,102
155669,note_on,29,0,5,,,,,,,,0,,,67,0
155697,note_on,57,0,6,,,,,,,,0,,,47,0
155700,note_on,31,0,5,,,,,,,,0,,,71,102
155728,note_on,28,0,5,,,,,,,,0,,,71,0
155760,note_on,63,0,6,,,,,,,,0,,,49,84
155760,note_on,32,0,5,,,,,,,,0,,,69,85
155776,note_on,16,0,5,,,,,,,,0,,,69,0
155790,note_on,14,0,5,,,,,,,,0,,,71,102
155805,note_on,15,0,5,,,,,,,,0,,,71,0
155816,note_on,56,0,6,,,,,,,,0,,,49,0
155820,note_on,15,0,5,,,,,,,,0,,,69,82
155880,note_on,64,0,6,,,,,,,,0,,,45,89
155923,note_on,103,0,5,,,,,,,,0,,,69,0
155935,note_on,55,0,6,,,,,,,,0,,,45,0
155940,note_on,17,0,5,,,,,,,,0,,,67,93
155969,note_on,29,0,5,,,,,,,,0,,,67,0
156000,note_on,1929,0,4,,,,,,,,10,,,38,84
156000,note_on,31,0,5,,,,,,,,0,,,66,75
156000,note_on,65,0,6,,,,,,,,0,,,50,108
156051,note_on,51,0,5,,,,,,,,0,,,66,0
156060,note_on,9,0,5,,,,,,,,0,,,69,75
156098,note_on,38,0,5,,,,,,,,0,,,69,0
156120,note_on,888,0,1,,,,,,,,1,,,69,35
156120,note_on,888,0,2,,,,,,,,1,,,66,55
156120,note_on,888,0,3,,,,,,,,1,,,62,64
156120,note_on,22,0,5,,,,,,,,0,,,73,102
156168,note_on,48,0,5,,,,,,,,0,,,73,0
156175,control_change,55,0,1,,,,,,,,1,7,109,,
156180,note_on,12,0,5,,,,,,,,0,,,74,106
156183,note_on,8,0,1,,,,,,,,1,,,69,0
156189,note_on,69,0,3,,,,,,,,1,,,62,0
156194,note_on,74,0,2,,,,,,,,1,,,66,0
156216,note_on,216,0,6,,,,,,,,0,,,50,0
156226,note_on,46,0,5,,,,,,,,0,,,74,0
156240,note_on,240,0,4,,,,,,,,10,,,37,77
156240,note_on,14,0,5,,,,,,,,0,,,64,75
156240,note_on,24,0,6,,,,,,,,0,,,49,89
156264,control_change,24,0,4,,,,,,,,10,7,93,,
156289,note_on,49,0,5,,,,,,,,0,,,64,0
156300,note_on,11,0,5,,,,,,,,0,,,69,117
156342,note_on,42,0,5,,,,,,,,0,,,69,0
156360,note_on,18,0,5,,,,,,,,0,,,73,110
156360,note_on,171,0,3,,,,,,,,1,,,61,58
156360,note_on,166,0,2,,,,,,,,1,,,66,43
156360,note_on,177,0,1,,,,,,,,1,,,69,8
156408,note_on,48,0,5,,,,,,,,0,,,73,0
156420,note_on,12,0,5,,,,,,,,0,,,74,102
156423,note_on,63,0,1,,,,,,,,1,,,69,0
156432,note_on,168,0,4,,,,,,,,10,,,38,0
156435,note_on,75,0,2,,,,,,,,1,,,66,0
156437,note_on,77,0,3,,,,,,,,1,,,61,0
156456,note_on,216,0,6,,,,,,,,0,,,49,0
156468,note_on,48,0,5,,,,,,,,0,,,74,0
156480,note_on,24,0,6,,,,,,,,0,,,47,77
156480,note_on,12,0,5,,,,,,,,0,,,62,44
156480,note_on,48,0,4,,,,,,,,10,,,35,66
156528,note_on,48,0,5,,,,,,,,0,,,62,0
156540,note_on,12,0,5,,,,,,,,0,,,69,96
156568,control_change,145,0,1,,,,,,,,1,7,108,,
156589,note_on,49,0,5,,,,,,,,0,,,69,0
156600,note_on,11,0,5,,,,,,,,0,,,73,73
156600,note_on,165,0,2,,,,,,,,1,,,66,39
156600,note_on,163,0,3,,,,,,,,1,,,59,55
156600,note_on,32,0,1,,,,,,,,1,,,69,35
156650,note_on,50,0,5,,,,,,,,0,,,73,0
156651,control_change,51,0,1,,,,,,,,1,7,107,,
156660,note_on,10,0,5,,,,,,,,0,,,74,96
156667,note_on,16,0,1,,,,,,,,1,,,69,0
156669,note_on,69,0,2,,,,,,,,1,,,66,0
156672,note_on,192,0,4,,,,,,,,10,,,37,0
156672,note_on,72,0,3,,,,,,,,1,,,59,0
156696,note_on,24,0,4,,,,,,,,10,,,35,0
156696,note_on,216,0,6,,,,,,,,0,,,47,0
156704,note_on,44,0,5,,,,,,,,0,,,74,0
156720,note_on,16,0,5,,,,,,,,0,,,64,85
156720,note_on,24,0,6,,,,,,,,0,,,52,84
156720,note_on,24,0,4,,,,,,,,10,,,40,69
156726,control_change,59,0,1,,,,,,,,1,7,104,,
156727,control_change,7,0,4,,,,,,,,10,7,84,,
156730,control_change,3,0,4,,,,,,,,10,7,91,,
156741,control_change,11,0,4,,,,,,,,10,7,90,,
156741,control_change,0,0,4,,,,,,,,10,7,82,,
156759,control_change,18,0,4,,,,,,,,10,7,81,,
156773,note_on,53,0,5,,,,,,,,0,,,64,0
156774,control_change,15,0,4,,,,,,,,10,7,88,,
156780,note_on,7,0,5,,,,,,,,0,,,68,85
156783,control_change,9,0,4,,,,,,,,10,7,87,,
156793,control_change,0,0,4,,,,,,,,10,7,85,,
156793,control_change,10,0,4,,,,,,,,10,7,79,,
156804,control_change,11,0,4,,,,,,,,10,7,78,,
156815,control_change,11,0,4,,,,,,,,10,7,76,,
156829,note_on,49,0,5,,,,,,,,0,,,68,0
156833,control_change,18,0,4,,,,,,,,10,7,75,,
156840,note_on,11,0,5,,,,,,,,0,,,71,102
156840,note_on,114,0,1,,,,,,,,1,,,68,11
156840,note_on,168,0,3,,,,,,,,1,,,52,64
156840,note_on,171,0,2,,,,,,,,1,,,64,48
156872,control_change,32,0,1,,,,,,,,1,7,106,,
156891,note_on,19,0,1,,,,,,,,1,,,68,0
156894,note_on,54,0,5,,,,,,,,0,,,71,0
156895,control_change,4,0,1,,,,,,,,1,7,107,,
156898,note_on,58,0,2,,,,,,,,1,,,64,0
156900,note_on,6,0,5,,,,,,,,0,,,74,96
156907,note_on,67,0,3,,,,,,,,1,,,52,0
156925,control_change,30,0,1,,,,,,,,1,7,105,,
156936,note_on,216,0,6,,,,,,,,0,,,52,0
156937,note_on,37,0,5,,,,,,,,0,,,74,0
156947,control_change,22,0,1,,,,,,,,1,7,109,,
156960,note_on,23,0,5,,,,,,,,0,,,73,75
156960,note_on,24,0,6,,,,,,,,0,,,45,96
156960,note_on,13,0,1,,,,,,,,1,,,69,30
156960,note_on,53,0,3,,,,,,,,1,,,57,18
156960,note_on,127,0,4,,,,,,,,10,,,33,74
156960,note_on,62,0,2,,,,,,,,1,,,64,55
157011,note_on,51,0,5,,,,,,,,0,,,73,0
157020,note_on,9,0,5,,,,,,,,0,,,69,85
157077,note_on,57,0,5,,,,,,,,0,,,69,0
157080,note_on,120,0,4,,,,,,,,10,,,33,0
157080,note_on,3,0,5,,,,,,,,0,,,64,75
157117,note_on,37,0,5,,,,,,,,0,,,64,0
157140,note_on,23,0,5,,,,,,,,0,,,61,75
157152,note_on,72,0,4,,,,,,,,10,,,40,0
157176,note_on,216,0,2,,,,,,,,1,,,64,0
157176,note_on,216,0,6,,,,,,,,0,,,45,0
157176,note_on,216,0,3,,,,,,,,1,,,57,0
157176,note_on,216,0,1,,,,,,,,1,,,69,0
157185,note_on,45,0,5,,,,,,,,0,,,61,0
157200,note_on,15,0,5,,,,,,,,0,,,57,110
157251,note_on,51,0,5,,,,,,,,0,,,57,0
157260,note_on,9,0,5,,,,,,,,0,,,76,104
157260,note_on,84,0,6,,,,,,,,0,,,47,86
157306,note_on,46,0,5,,,,,,,,0,,,76,0
157316,note_on,56,0,6,,,,,,,,0,,,47,0
157320,note_on,4,0,6,,,,,,,,0,,,45,93
157320,note_on,14,0,5,,,,,,,,0,,,78,110
157365,note_on,45,0,5,,,,,,,,0,,,78,0
157366,note_on,46,0,6,,,,,,,,0,,,45,0
157380,note_on,15,0,5,,,,,,,,0,,,79,98
157380,note_on,14,0,6,,,,,,,,0,,,43,86
157422,note_on,42,0,5,,,,,,,,0,,,79,0
157435,note_on,55,0,6,,,,,,,,0,,,43,0
157440,note_on,18,0,5,,,,,,,,0,,,81,88
157440,note_on,264,0,1,,,,,,,,1,,,81,127
157440,note_on,288,0,4,,,,,,,,10,,,30,127
157440,note_on,264,0,3,,,,,,,,1,,,66,111
157440,note_on,5,0,6,,,,,,,,0,,,42,99
157440,note_on,264,0,2,,,,,,,,1,,,73,81
157464,note_on,24,0,1,,,,,,,,1,,,81,0
157466,note_on,26,0,2,,,,,,,,1,,,73,0
157469,note_on,29,0,3,,,,,,,,1,,,66,0
157472,control_change,8,0,1,,,,,,,,1,7,110,,
157483,note_on,43,0,4,,,,,,,,10,,,30,0
157484,note_on,44,0,5,,,,,,,,0,,,81,0
157495,note_on,55,0,6,,,,,,,,0,,,42,0
157500,note_on,5,0,6,,,,,,,,0,,,43,86
157500,note_on,31,0,3,,,,,,,,1,,,66,124
157500,note_on,34,0,2,,,,,,,,1,,,73,124
157500,note_on,28,0,1,,,,,,,,1,,,81,126
157500,note_on,16,0,5,,,,,,,,0,,,69,110
157500,note_on,17,0,4,,,,,,,,10,,,31,120
157512,control_change,12,0,4,,,,,,,,10,7,76,,
157521,control_change,9,0,4,,,,,,,,10,7,77,,
157526,note_on,26,0,2,,,,,,,,1,,,73,0
157526,note_on,26,0,1,,,,,,,,1,,,81,0
157531,note_on,31,0,3,,,,,,,,1,,,66,0
157534,control_change,13,0,4,,,,,,,,10,7,79,,
157538,note_on,38,0,5,,,,,,,,0,,,69,0
157546,control_change,12,0,4,,,,,,,,10,7,80,,
157549,note_on,3,0,4,,,,,,,,10,,,31,0
157555,control_change,6,0,4,,,,,,,,10,7,82,,
157555,note_on,55,0,6,,,,,,,,0,,,43,0
157560,note_on,5,0,6,,,,,,,,0,,,45,96
157560,note_on,34,0,2,,,,,,,,1,,,73,120
157560,note_on,22,0,5,,,,,,,,0,,,81,124
157560,note_on,29,0,3,,,,,,,,1,,,66,127
157560,note_on,34,0,1,,,,,,,,1,,,81,127
157560,note_on,5,0,4,,,,,,,,10,,,33,126
157564,control_change,4,0,4,,,,,,,,10,7,83,,
157583,note_on,23,0,1,,,,,,,,1,,,81,0
157586,note_on,26,0,2,,,,,,,,1,,,73,0
157587,control_change,23,0,4,,,,,,,,10,7,85,,
157592,note_on,32,0,3,,,,,,,,1,,,66,0
157596,note_on,36,0,5,,,,,,,,0,,,81,0
157605,control_change,18,0,4,,,,,,,,10,7,86,,
157607,control_change,24,0,1,,,,,,,,1,7,112,,
157611,note_on,6,0,4,,,,,,,,10,,,33,0
157617,note_on,57,0,6,,,,,,,,0,,,45,0
157620,note_on,9,0,4,,,,,,,,10,,,35,108
157620,note_on,34,0,2,,,,,,,,1,,,73,111
157620,note_on,3,0,6,,,,,,,,0,,,47,89
157620,note_on,28,0,3,,,,,,,,1,,,66,120
157620,note_on,13,0,1,,,,,,,,1,,,81,125
157620,note_on,24,0,5,,,,,,,,0,,,69,96
157635,control_change,15,0,4,,,,,,,,10,7,88,,
157644,note_on,24,0,2,,,,,,,,1,,,73,0
157645,note_on,25,0,1,,,,,,,,1,,,81,0
157648,note_on,28,0,3,,,,,,,,1,,,66,0
157651,control_change,16,0,4,,,,,,,,10,7,89,,
157657,note_on,37,0,5,,,,,,,,0,,,69,0
157660,note_on,40,0,6,,,,,,,,0,,,47,0
157664,note_on,13,0,4,,,,,,,,10,,,35,0
157680,note_on,36,0,2,,,,,,,,1,,,73,127
157680,note_on,23,0,5,,,,,,,,0,,,81,88
157680,note_on,32,0,3,,,,,,,,1,,,66,127
157680,note_on,20,0,6,,,,,,,,0,,,49,89
157680,note_on,35,0,1,,,,,,,,1,,,81,127
157680,note_on,16,0,4,,,,,,,,10,,,37,72
157691,control_change,11,0,4,,,,,,,,10,7,91,,
157702,control_change,11,0,4,,,,,,,,10,7,92,,
157703,note_on,23,0,1,,,,,,,,1,,,81,0
157705,note_on,25,0,2,,,,,,,,1,,,73,0
157709,note_on,29,0,3,,,,,,,,1,,,66,0
157713,control_change,11,0,4,,,,,,,,10,7,94,,
157722,control_change,9,0,4,,,,,,,,10,7,95,,
157725,note_on,45,0,6,,,,,,,,0,,,49,0
157725,note_on,45,0,5,,,,,,,,0,,,81,0
157731,note_on,9,0,4,,,,,,,,10,,,37,0
157740,note_on,35,0,2,,,,,,,,1,,,73,127
157740,note_on,9,0,4,,,,,,,,10,,,38,86
157740,note_on,37,0,1,,,,,,,,1,,,81,102
157740,note_on,31,0,3,,,,,,,,1,,,66,127
157740,note_on,15,0,6,,,,,,,,0,,,50,89
157740,note_on,15,0,5,,,,,,,,0,,,69,88
157749,aftertouch,9,0,6,,,,,,,,0,,22,,
157749,aftertouch,9,0,5,,,,,,,,0,,22,,
157750,aftertouch,1,0,5,,,,,,,,0,,22,,
157753,control_change,13,0,4,,,,,,,,10,7,97,,
157760,aftertouch,11,0,6,,,,,,,,0,,11,,
157761,aftertouch,11,0,5,,,,,,,,0,,0,,
157761,aftertouch,0,0,5,,,,,,,,0,,11,,
157761,aftertouch,1,0,6,,,,,,,,0,,0,,
157761,aftertouch,0,0,5,,,,,,,,0,,11,,
157762,aftertouch,1,0,5,,,,,,,,0,,0,,
157763,note_on,23,0,1,,,,,,,,1,,,81,0
157764,note_on,24,0,2,,,,,,,,1,,,73,0
157770,note_on,30,0,3,,,,,,,,1,,,66,0
157771,note_on,18,0,4,,,,,,,,10,,,38,0
157778,control_change,7,0,4,,,,,,,,10,7,98,,
157780,note_on,18,0,5,,,,,,,,0,,,69,0
157796,note_on,35,0,6,,,,,,,,0,,,50,0
157800,note_on,4,0,6,,,,,,,,0,,,52,96
157800,note_on,20,0,5,,,,,,,,0,,,81,127
157800,note_on,30,0,3,,,,,,,,1,,,66,120
157800,note_on,37,0,1,,,,,,,,1,,,81,123
157800,note_on,36,0,2,,,,,,,,1,,,73,93
157800,note_on,22,0,4,,,,,,,,10,,,40,124
157805,aftertouch,5,0,1,,,,,,,,1,,0,,
157807,aftertouch,2,0,1,,,,,,,,1,,3,,
157807,aftertouch,7,0,3,,,,,,,,1,,3,,
157807,aftertouch,7,0,4,,,,,,,,10,,3,,
157807,aftertouch,7,0,2,,,,,,,,1,,3,,
157810,aftertouch,10,0,6,,,,,,,,0,,12,,
157810,aftertouch,0,0,5,,,,,,,,0,,12,,
157810,aftertouch,10,0,5,,,,,,,,0,,12,,
157811,control_change,4,0,4,,,,,,,,10,7,100,,
157815,aftertouch,8,0,1,,,,,,,,1,,0,,
157816,aftertouch,9,0,3,,,,,,,,1,,1,,
157817,aftertouch,6,0,4,,,,,,,,10,,1,,
157817,aftertouch,10,0,2,,,,,,,,1,,1,,
157817,aftertouch,2,0,1,,,,,,,,1,,1,,
157822,aftertouch,0,0,5,,,,,,,,0,,6,,
157822,aftertouch,12,0,5,,,,,,,,0,,6,,
157822,note_on,5,0,1,,,,,,,,1,,,81,0
157822,aftertouch,12,0,6,,,,,,,,0,,6,,
157824,note_on,7,0,2,,,,,,,,1,,,73,0
157826,aftertouch,4,0,1,,,,,,,,1,,0,,
157828,note_on,12,0,3,,,,,,,,1,,,66,0
157837,note_on,15,0,5,,,,,,,,0,,,81,0
157837,note_on,20,0,4,,,,,,,,10,,,40,0
157845,note_on,23,0,6,,,,,,,,0,,,52,0
157850,control_change,13,0,4,,,,,,,,10,7,101,,
157860,note_on,10,0,4,,,,,,,,10,,,42,93
157860,note_on,23,0,5,,,,,,,,0,,,69,88
157860,note_on,36,0,2,,,,,,,,1,,,73,126
157860,note_on,34,0,1,,,,,,,,1,,,81,127
157860,note_on,32,0,3,,,,,,,,1,,,66,105
157860,note_on,15,0,6,,,,,,,,0,,,54,74
157868,aftertouch,8,0,6,,,,,,,,0,,15,,
157868,aftertouch,0,0,5,,,,,,,,0,,15,,
157868,aftertouch,8,0,5,,,,,,,,0,,15,,
157878,aftertouch,10,0,6,,,,,,,,0,,7,,
157879,aftertouch,11,0,5,,,,,,,,0,,7,,
157879,aftertouch,0,0,5,,,,,,,,0,,7,,
157881,note_on,21,0,1,,,,,,,,1,,,81,0
157883,note_on,23,0,2,,,,,,,,1,,,73,0
157894,note_on,34,0,3,,,,,,,,1,,,66,0
157900,control_change,40,0,4,,,,,,,,10,7,103,,
157900,control_change,0,0,4,,,,,,,,10,7,102,,
157902,note_on,23,0,5,,,,,,,,0,,,69,0
157908,note_on,8,0,4,,,,,,,,10,,,42,0
157908,control_change,0,0,4,,,,,,,,10,7,100,,
157915,control_change,34,0,1,,,,,,,,1,7,113,,
157916,note_on,38,0,6,,,,,,,,0,,,54,0
157916,aftertouch,1,0,1,,,,,,,,1,,6,,
157918,control_change,10,0,4,,,,,,,,10,7,99,,
157920,note_on,37,0,2,,,,,,,,1,,,71,126
157920,note_on,26,0,3,,,,,,,,1,,,63,127
157920,note_on,4,0,1,,,,,,,,1,,,81,127
157920,note_on,18,0,5,,,,,,,,0,,,81,102
157920,note_on,2,0,4,,,,,,,,10,,,35,123
157920,note_on,4,0,6,,,,,,,,0,,,47,99
157930,control_change,10,0,1,,,,,,,,1,7,111,,
157933,aftertouch,13,0,6,,,,,,,,0,,3,,
157933,aftertouch,13,0,5,,,,,,,,0,,3,,
157933,aftertouch,0,0,5,,,,,,,,0,,3,,
157935,control_change,15,0,4,,,,,,,,10,7,97,,
157944,control_change,9,0,4,,,,,,,,10,7,96,,
157944,aftertouch,11,0,5,,,,,,,,0,,17,,
157944,aftertouch,0,0,5,,,,,,,,0,,17,,
157944,aftertouch,11,0,6,,,,,,,,0,,17,,
157945,aftertouch,1,0,5,,,,,,,,0,,1,,
157945,aftertouch,1,0,6,,,,,,,,0,,1,,
157952,control_change,8,0,4,,,,,,,,10,7,94,,
157952,control_change,22,0,1,,,,,,,,1,7,110,,
157954,aftertouch,9,0,6,,,,,,,,0,,8,,
157955,aftertouch,10,0,5,,,,,,,,0,,8,,
157961,control_change,9,0,4,,,,,,,,10,7,93,,
157967,aftertouch,13,0,6,,,,,,,,0,,4,,
157967,aftertouch,12,0,5,,,,,,,,0,,4,,
157968,aftertouch,1,0,5,,,,,,,,0,,4,,
157970,control_change,9,0,4,,,,,,,,10,7,91,,
157973,note_on,5,0,5,,,,,,,,0,,,81,0
157978,control_change,8,0,4,,,,,,,,10,7,90,,
157979,aftertouch,12,0,6,,,,,,,,0,,2,,
157979,aftertouch,0,0,5,,,,,,,,0,,2,,
157979,aftertouch,6,0,5,,,,,,,,0,,2,,
157980,note_on,1,0,5,,,,,,,,0,,,78,120
157980,note_on,1,0,6,,,,,,,,0,,,51,79
157984,note_on,4,0,6,,,,,,,,0,,,47,0
157987,control_change,9,0,4,,,,,,,,10,7,87,,
157995,control_change,8,0,4,,,,,,,,10,7,85,,
158001,control_change,49,0,1,,,,,,,,1,7,108,,
158004,control_change,9,0,4,,,,,,,,10,7,84,,
158019,control_change,15,0,4,,,,,,,,10,7,82,,
158025,note_on,45,0,5,,,,,,,,0,,,78,0
158031,control_change,12,0,4,,,,,,,,10,7,81,,
158040,note_on,15,0,5,,,,,,,,0,,,75,82
158040,note_on,56,0,6,,,,,,,,0,,,54,93
158041,note_on,1,0,6,,,,,,,,0,,,51,0
158089,note_on,49,0,5,,,,,,,,0,,,75,0
158100,note_on,59,0,6,,,,,,,,0,,,59,86
158100,note_on,11,0,5,,,,,,,,0,,,71,90
158103,note_on,3,0,6,,,,,,,,0,,,54,0
158117,note_on,14,0,6,,,,,,,,0,,,59,0
158118,note_on,18,0,5,,,,,,,,0,,,71,0
158136,note_on,216,0,3,,,,,,,,1,,,63,0
158136,note_on,216,0,2,,,,,,,,1,,,71,0
158136,note_on,135,0,1,,,,,,,,1,,,81,0
158136,note_on,105,0,4,,,,,,,,10,,,35,0
158160,note_on,43,0,6,,,,,,,,0,,,59,124
158160,note_on,42,0,5,,,,,,,,0,,,71,113
158174,control_change,38,0,4,,,,,,,,10,7,79,,
158181,control_change,45,0,1,,,,,,,,1,7,107,,
158187,control_change,13,0,4,,,,,,,,10,7,78,,
158205,control_change,18,0,4,,,,,,,,10,7,76,,
158215,note_on,55,0,5,,,,,,,,0,,,71,0
158215,control_change,10,0,4,,,,,,,,10,7,75,,
158220,note_on,60,0,6,,,,,,,,0,,,54,84
158220,note_on,5,0,5,,,,,,,,0,,,75,106
158221,note_on,1,0,6,,,,,,,,0,,,59,0
158227,control_change,12,0,4,,,,,,,,10,7,73,,
158242,control_change,15,0,4,,,,,,,,10,7,72,,
158242,control_change,61,0,1,,,,,,,,1,7,105,,
158253,control_change,11,0,4,,,,,,,,10,7,70,,
158255,control_change,13,0,1,,,,,,,,1,7,104,,
158265,note_on,45,0,5,,,,,,,,0,,,75,0
158267,control_change,14,0,4,,,,,,,,10,7,69,,
158269,control_change,14,0,1,,,,,,,,1,7,102,,
158278,control_change,11,0,4,,,,,,,,10,7,67,,
158279,note_on,58,0,6,,,,,,,,0,,,54,0
158280,note_on,15,0,5,,,,,,,,0,,,78,82
158280,note_on,1,0,6,,,,,,,,0,,,51,72
158287,control_change,9,0,4,,,,,,,,10,7,66,,
158295,control_change,8,0,4,,,,,,,,10,7,64,,
158326,control_change,57,0,1,,,,,,,,1,7,101,,
158328,note_on,48,0,5,,,,,,,,0,,,78,0
158336,note_on,56,0,6,,,,,,,,0,,,51,0
158340,note_on,4,0,6,,,,,,,,0,,,47,86
158340,note_on,12,0,5,,,,,,,,0,,,81,93
158370,note_on,30,0,6,,,,,,,,0,,,47,0
158380,note_on,40,0,5,,,,,,,,0,,,81,0
158400,note_on,264,0,2,,,,,,,,1,,,71,127
158400,note_on,30,0,6,,,,,,,,0,,,40,111
158400,note_on,20,0,5,,,,,,,,0,,,79,120
158400,note_on,105,0,4,,,,,,,,10,,,28,126
158400,note_on,74,0,1,,,,,,,,1,,,79,127
158400,note_on,264,0,3,,,,,,,,1,,,64,114
158411,control_change,11,0,4,,,,,,,,10,7,65,,
158427,note_on,27,0,1,,,,,,,,1,,,79,0
158429,note_on,29,0,2,,,,,,,,1,,,71,0
158430,note_on,30,0,3,,,,,,,,1,,,64,0
158434,control_change,23,0,4,,,,,,,,10,7,67,,
158444,note_on,44,0,5,,,,,,,,0,,,79,0
158446,control_change,12,0,4,,,,,,,,10,7,68,,
158449,note_on,3,0,4,,,,,,,,10,,,28,0
158454,control_change,5,0,4,,,,,,,,10,7,70,,
158457,note_on,57,0,6,,,,,,,,0,,,40,0
158460,note_on,33,0,1,,,,,,,,1,,,79,96
158460,note_on,16,0,5,,,,,,,,0,,,67,110
158460,note_on,6,0,4,,,,,,,,10,,,30,127
158460,note_on,30,0,3,,,,,,,,1,,,64,102
158460,note_on,3,0,6,,,,,,,,0,,,42,102
158460,note_on,31,0,2,,,,,,,,1,,,71,99
158463,control_change,3,0,4,,,,,,,,10,7,71,,
158463,control_change,3,0,1,,,,,,,,1,7,103,,
158474,control_change,11,0,4,,,,,,,,10,7,73,,
158483,control_change,9,0,4,,,,,,,,10,7,74,,
158485,note_on,25,0,2,,,,,,,,1,,,71,0
158485,note_on,22,0,1,,,,,,,,1,,,79,0
158492,control_change,9,0,4,,,,,,,,10,7,76,,
158493,note_on,33,0,3,,,,,,,,1,,,64,0
158499,note_on,39,0,5,,,,,,,,0,,,67,0
158500,control_change,8,0,4,,,,,,,,10,7,77,,
158504,note_on,4,0,4,,,,,,,,10,,,30,0
158504,note_on,44,0,6,,,,,,,,0,,,42,0
158509,control_change,5,0,4,,,,,,,,10,7,79,,
158517,control_change,8,0,4,,,,,,,,10,7,80,,
158520,note_on,21,0,5,,,,,,,,0,,,79,124
158520,note_on,3,0,4,,,,,,,,10,,,31,108
158520,note_on,16,0,6,,,,,,,,0,,,43,96
158520,note_on,35,0,1,,,,,,,,1,,,79,117
158520,note_on,27,0,3,,,,,,,,1,,,64,77
158520,note_on,35,0,2,,,,,,,,1,,,71,93
158527,control_change,7,0,4,,,,,,,,10,7,82,,
158536,control_change,9,0,4,,,,,,,,10,7,83,,
158546,note_on,26,0,1,,,,,,,,1,,,79,0
158548,note_on,28,0,2,,,,,,,,1,,,71,0
158551,note_on,31,0,3,,,,,,,,1,,,64,0
158552,control_change,16,0,4,,,,,,,,10,7,85,,
158559,note_on,39,0,5,,,,,,,,0,,,79,0
158566,note_on,46,0,6,,,,,,,,0,,,43,0
158568,note_on,16,0,4,,,,,,,,10,,,31,0
158573,control_change,5,0,4,,,,,,,,10,7,86,,
158580,note_on,34,0,1,,,,,,,,1,,,79,84
158580,note_on,32,0,2,,,,,,,,1,,,71,84
158580,note_on,29,0,3,,,,,,,,1,,,64,81
158580,note_on,7,0,4,,,,,,,,10,,,33,127
158580,note_on,21,0,5,,,,,,,,0,,,67,102
158580,note_on,14,0,6,,,,,,,,0,,,45,89
158589,control_change,9,0,4,,,,,,,,10,7,88,,
158598,control_change,9,0,4,,,,,,,,10,7,89,,
158600,control_change,20,0,1,,,,,,,,1,7,104,,
158604,note_on,4,0,1,,,,,,,,1,,,79,0
158608,note_on,28,0,2,,,,,,,,1,,,71,0
158611,note_on,31,0,3,,,,,,,,1,,,64,0
158616,note_on,36,0,6,,,,,,,,0,,,45,0
158617,control_change,19,0,4,,,,,,,,10,7,91,,
158622,note_on,42,0,5,,,,,,,,0,,,67,0
158625,note_on,8,0,4,,,,,,,,10,,,33,0
158628,control_change,3,0,4,,,,,,,,10,7,92,,
158638,control_change,10,0,4,,,,,,,,10,7,94,,
158640,note_on,24,0,6,,,,,,,,0,,,47,89
158640,note_on,18,0,5,,,,,,,,0,,,79,104
158640,note_on,36,0,1,,,,,,,,1,,,79,127
158640,note_on,29,0,3,,,,,,,,1,,,64,127
158640,note_on,2,0,4,,,,,,,,10,,,35,124
158640,note_on,32,0,2,,,,,,,,1,,,71,108
158646,control_change,6,0,1,,,,,,,,1,7,106,,
158647,control_change,7,0,4,,,,,,,,10,7,95,,
158664,note_on,18,0,1,,,,,,,,1,,,79,0
158666,note_on,26,0,2,,,,,,,,1,,,71,0
158668,control_change,21,0,4,,,,,,,,10,7,97,,
158672,note_on,32,0,3,,,,,,,,1,,,64,0
158675,note_on,7,0,4,,,,,,,,10,,,35,0
158677,control_change,2,0,4,,,,,,,,10,7,98,,
158679,note_on,39,0,6,,,,,,,,0,,,47,0
158682,note_on,42,0,5,,,,,,,,0,,,79,0
158683,control_change,19,0,1,,,,,,,,1,7,107,,
158686,control_change,9,0,4,,,,,,,,10,7,100,,
158700,note_on,17,0,1,,,,,,,,1,,,79,124
158700,note_on,34,0,2,,,,,,,,1,,,71,96
158700,note_on,14,0,4,,,,,,,,10,,,37,127
158700,note_on,21,0,6,,,,,,,,0,,,49,81
158700,note_on,28,0,3,,,,,,,,1,,,64,108
158700,note_on,18,0,5,,,,,,,,0,,,67,102
158705,control_change,5,0,4,,,,,,,,10,7,101,,
158714,control_change,14,0,1,,,,,,,,1,7,109,,
158724,note_on,10,0,1,,,,,,,,1,,,79,0
158726,note_on,26,0,2,,,,,,,,1,,,71,0
158729,note_on,29,0,3,,,,,,,,1,,,64,0
158736,note_on,31,0,4,,,,,,,,10,,,37,0
158740,note_on,40,0,5,,,,,,,,0,,,67,0
158742,control_change,6,0,4,,,,,,,,10,7,103,,
158750,aftertouch,8,0,4,,,,,,,,10,,18,,
158753,note_on,53,0,6,,,,,,,,0,,,49,0
158759,aftertouch,9,0,4,,,,,,,,10,,0,,
158760,note_on,31,0,3,,,,,,,,1,,,64,93
158760,note_on,20,0,5,,,,,,,,0,,,79,102
158760,note_on,7,0,6,,,,,,,,0,,,50,79
158760,note_on,34,0,2,,,,,,,,1,,,71,123
158760,note_on,1,0,4,,,,,,,,10,,,38,124
158760,note_on,36,0,1,,,,,,,,1,,,79,123
158761,aftertouch,1,0,4,,,,,,,,10,,9,,
158769,aftertouch,8,0,4,,,,,,,,10,,0,,
158772,aftertouch,3,0,4,,,,,,,,10,,4,,
158780,aftertouch,8,0,4,,,,,,,,10,,0,,
158780,note_on,20,0,1,,,,,,,,1,,,79,0
158783,aftertouch,3,0,4,,,,,,,,10,,2,,
158787,aftertouch,0,0,4,,,,,,,,10,,0,,
158787,control_change,4,0,4,,,,,,,,10,7,104,,
158788,note_on,28,0,2,,,,,,,,1,,,71,0
158791,note_on,31,0,3,,,,,,,,1,,,64,0
158799,note_on,12,0,4,,,,,,,,10,,,38,0
158806,note_on,46,0,5,,,,,,,,0,,,79,0
158809,control_change,10,0,4,,,,,,,,10,7,106,,
158815,note_on,55,0,6,,,,,,,,0,,,50,0
158820,note_on,40,0,1,,,,,,,,1,,,79,126
158820,note_on,11,0,4,,,,,,,,10,,,40,99
158820,note_on,5,0,6,,,,,,,,0,,,52,96
158820,note_on,32,0,2,,,,,,,,1,,,71,86
158820,note_on,14,0,5,,,,,,,,0,,,67,96
158820,note_on,29,0,3,,,,,,,,1,,,64,108
158842,note_on,22,0,1,,,,,,,,1,,,79,0
158850,note_on,30,0,3,,,,,,,,1,,,64,0
158853,note_on,33,0,2,,,,,,,,1,,,71,0
158859,note_on,39,0,5,,,,,,,,0,,,67,0
158869,note_on,49,0,4,,,,,,,,10,,,40,0
158871,control_change,29,0,1,,,,,,,,1,7,110,,
158871,control_change,2,0,4,,,,,,,,10,7,106,,
158873,note_on,53,0,6,,,,,,,,0,,,52,0
158873,control_change,2,0,4,,,,,,,,10,7,107,,
158879,control_change,6,0,4,,,,,,,,10,7,105,,
158880,note_on,21,0,5,,,,,,,,0,,,79,117
158880,note_on,1,0,4,,,,,,,,10,,,33,127
158880,note_on,30,0,3,,,,,,,,1,,,64,117
158880,note_on,7,0,6,,,,,,,,0,,,45,108
158880,note_on,9,0,1,,,,,,,,1,,,79,127
158880,note_on,27,0,2,,,,,,,,1,,,73,127
158888,control_change,8,0,4,,,,,,,,10,7,102,,
158888,aftertouch,8,0,5,,,,,,,,0,,25,,
158888,aftertouch,0,0,5,,,,,,,,0,,25,,
158888,aftertouch,8,0,6,,,,,,,,0,,25,,
158896,control_change,8,0,4,,,,,,,,10,7,100,,
158898,aftertouch,10,0,6,,,,,,,,0,,12,,
158899,aftertouch,11,0,5,,,,,,,,0,,12,,
158899,aftertouch,0,0,5,,,,,,,,0,,12,,
158905,control_change,9,0,4,,,,,,,,10,7,99,,
158911,aftertouch,12,0,5,,,,,,,,0,,6,,
158911,aftertouch,0,0,5,,,,,,,,0,,6,,
158911,aftertouch,13,0,6,,,,,,,,0,,6,,
158914,control_change,9,0,4,,,,,,,,10,7,97,,
158915,note_on,4,0,6,,,,,,,,0,,,45,0
158922,control_change,8,0,4,,,,,,,,10,7,94,,
158922,aftertouch,11,0,5,,,,,,,,0,,3,,
158922,aftertouch,0,0,5,,,,,,,,0,,3,,
158922,aftertouch,7,0,6,,,,,,,,0,,3,,
158931,control_change,9,0,4,,,,,,,,10,7,93,,
158932,note_on,10,0,5,,,,,,,,0,,,79,0
158934,aftertouch,12,0,6,,,,,,,,0,,1,,
158934,aftertouch,0,0,5,,,,,,,,0,,1,,
158934,aftertouch,2,0,5,,,,,,,,0,,1,,
158939,control_change,8,0,4,,,,,,,,10,7,91,,
158940,note_on,6,0,5,,,,,,,,0,,,76,88
158940,note_on,6,0,6,,,,,,,,0,,,49,72
158945,control_change,65,0,1,,,,,,,,1,7,108,,
158948,control_change,9,0,4,,,,,,,,10,7,90,,
158953,control_change,8,0,1,,,,,,,,1,7,107,,
158956,control_change,8,0,4,,,,,,,,10,7,88,,
158965,control_change,9,0,4,,,,,,,,10,7,87,,
158974,control_change,9,0,4,,,,,,,,10,7,85,,
158983,control_change,9,0,4,,,,,,,,10,7,84,,
158984,note_on,44,0,6,,,,,,,,0,,,49,0
158986,note_on,46,0,5,,,,,,,,0,,,76,0
158998,control_change,15,0,4,,,,,,,,10,7,82,,
158999,control_change,46,0,1,,,,,,,,1,7,105,,
159000,note_on,14,0,5,,,,,,,,0,,,73,82
159000,note_on,16,0,6,,,,,,,,0,,,52,79
159042,note_on,42,0,6,,,,,,,,0,,,52,0
159048,note_on,48,0,5,,,,,,,,0,,,73,0
159060,note_on,12,0,5,,,,,,,,0,,,69,82
159060,note_on,18,0,6,,,,,,,,0,,,57,93
159077,note_on,17,0,5,,,,,,,,0,,,69,0
159084,note_on,24,0,6,,,,,,,,0,,,57,0
159096,note_on,98,0,4,,,,,,,,10,,,33,0
159096,note_on,97,0,1,,,,,,,,1,,,79,0
159096,note_on,216,0,2,,,,,,,,1,,,73,0
159096,note_on,216,0,3,,,,,,,,1,,,64,0
159120,note_on,36,0,6,,,,,,,,0,,,57,102
159120,note_on,43,0,5,,,,,,,,0,,,69,117
159139,control_change,43,0,4,,,,,,,,10,7,81,,
159144,control_change,48,0,1,,,,,,,,1,7,104,,
159170,note_on,50,0,5,,,,,,,,0,,,69,0
159173,control_change,34,0,4,,,,,,,,10,7,79,,
159175,control_change,31,0,1,,,,,,,,1,7,102,,
159180,note_on,10,0,5,,,,,,,,0,,,73,96
159180,note_on,60,0,6,,,,,,,,0,,,52,84
159183,note_on,3,0,6,,,,,,,,0,,,57,0
159189,control_change,16,0,4,,,,,,,,10,7,78,,
159204,control_change,29,0,1,,,,,,,,1,7,101,,
159217,control_change,28,0,4,,,,,,,,10,7,76,,
159220,note_on,40,0,5,,,,,,,,0,,,73,0
159233,note_on,50,0,6,,,,,,,,0,,,52,0
159240,control_change,23,0,4,,,,,,,,10,7,75,,
159240,note_on,7,0,6,,,,,,,,0,,,49,77
159240,note_on,20,0,5,,,,,,,,0,,,76,90
159270,control_change,30,0,4,,,,,,,,10,7,73,,
159274,control_change,70,0,1,,,,,,,,1,7,99,,
159290,note_on,50,0,5,,,,,,,,0,,,76,0
159296,control_change,22,0,1,,,,,,,,1,7,98,,
159298,control_change,28,0,4,,,,,,,,10,7,72,,
159299,note_on,59,0,6,,,,,,,,0,,,49,0
159300,note_on,10,0,5,,,,,,,,0,,,79,98
159300,note_on,1,0,6,,,,,,,,0,,,45,89
159329,note_on,29,0,6,,,,,,,,0,,,45,0
159342,note_on,42,0,5,,,,,,,,0,,,79,0
159360,note_on,18,0,5,,,,,,,,0,,,78,120
159360,note_on,264,0,2,,,,,,,,1,,,74,120
159360,note_on,64,0,1,,,,,,,,1,,,78,127
159360,note_on,62,0,4,,,,,,,,10,,,26,127
159360,note_on,264,0,3,,,,,,,,1,,,69,66
159360,note_on,31,0,6,,,,,,,,0,,,38,111
159387,note_on,27,0,2,,,,,,,,1,,,74,0
159387,note_on,27,0,1,,,,,,,,1,,,78,0
159391,control_change,31,0,4,,,,,,,,10,7,73,,
159394,note_on,34,0,3,,,,,,,,1,,,69,0
159399,note_on,39,0,5,,,,,,,,0,,,78,0
159403,note_on,12,0,4,,,,,,,,10,,,26,0
159407,control_change,4,0,4,,,,,,,,10,7,74,,
159413,note_on,53,0,6,,,,,,,,0,,,38,0
159420,note_on,13,0,4,,,,,,,,10,,,28,102
159420,note_on,21,0,5,,,,,,,,0,,,66,96
159420,note_on,33,0,1,,,,,,,,1,,,78,89
159420,note_on,7,0,6,,,,,,,,0,,,40,102
159420,note_on,33,0,2,,,,,,,,1,,,74,108
159420,note_on,26,0,3,,,,,,,,1,,,69,89
159429,control_change,9,0,4,,,,,,,,10,7,76,,
159442,control_change,13,0,4,,,,,,,,10,7,77,,
159448,note_on,28,0,1,,,,,,,,1,,,78,0
159449,note_on,29,0,2,,,,,,,,1,,,74,0
159453,note_on,33,0,3,,,,,,,,1,,,69,0
159455,note_on,35,0,5,,,,,,,,0,,,66,0
159457,note_on,37,0,6,,,,,,,,0,,,40,0
159466,note_on,24,0,4,,,,,,,,10,,,28,0
159480,note_on,23,0,6,,,,,,,,0,,,42,91
159480,note_on,14,0,4,,,,,,,,10,,,30,126
159480,note_on,27,0,3,,,,,,,,1,,,69,81
159480,note_on,25,0,5,,,,,,,,0,,,78,127
159480,note_on,32,0,1,,,,,,,,1,,,78,126
159480,note_on,31,0,2,,,,,,,,1,,,74,127
159484,control_change,4,0,4,,,,,,,,10,7,79,,
159506,control_change,26,0,1,,,,,,,,1,7,100,,
159507,note_on,1,0,1,,,,,,,,1,,,78,0
159510,note_on,30,0,2,,,,,,,,1,,,74,0
159510,control_change,26,0,4,,,,,,,,10,7,80,,
159512,note_on,32,0,3,,,,,,,,1,,,69,0
159513,note_on,33,0,6,,,,,,,,0,,,42,0
159516,note_on,36,0,5,,,,,,,,0,,,78,0
159531,control_change,24,0,1,,,,,,,,1,7,101,,
159532,note_on,22,0,4,,,,,,,,10,,,30,0
159540,note_on,9,0,1,,,,,,,,1,,,78,120
159540,note_on,8,0,4,,,,,,,,10,,,31,102
159540,note_on,24,0,5,,,,,,,,0,,,66,88
159540,note_on,30,0,2,,,,,,,,1,,,74,127
159540,note_on,27,0,6,,,,,,,,0,,,43,120
159540,note_on,28,0,3,,,,,,,,1,,,69,89
159549,control_change,9,0,4,,,,,,,,10,7,82,,
159552,control_change,12,0,1,,,,,,,,1,7,103,,
159564,note_on,12,0,1,,,,,,,,1,,,78,0
159565,control_change,16,0,4,,,,,,,,10,7,83,,
159566,note_on,26,0,2,,,,,,,,1,,,74,0
159572,note_on,32,0,3,,,,,,,,1,,,69,0
159577,control_change,13,0,1,,,,,,,,1,7,104,,
159578,note_on,38,0,5,,,,,,,,0,,,66,0
159578,note_on,38,0,6,,,,,,,,0,,,43,0
159587,note_on,22,0,4,,,,,,,,10,,,31,0
159587,control_change,0,0,4,,,,,,,,10,7,85,,
159598,control_change,11,0,4,,,,,,,,10,7,86,,
159599,aftertouch,22,0,1,,,,,,,,1,,6,,
159600,note_on,22,0,5,,,,,,,,0,,,78,127
159600,note_on,22,0,6,,,,,,,,0,,,45,102
159600,note_on,28,0,3,,,,,,,,1,,,69,77
159600,note_on,1,0,1,,,,,,,,1,,,78,120
159600,note_on,34,0,2,,,,,,,,1,,,74,127
159600,note_on,2,0,4,,,,,,,,10,,,33,108
159602,control_change,2,0,1,,,,,,,,1,7,106,,
159608,control_change,8,0,4,,,,,,,,10,7,88,,
159608,aftertouch,6,0,1,,,,,,,,1,,0,,
159610,aftertouch,10,0,3,,,,,,,,1,,3,,
159610,aftertouch,10,0,2,,,,,,,,1,,3,,
159610,aftertouch,2,0,1,,,,,,,,1,,3,,
159610,aftertouch,2,0,4,,,,,,,,10,,3,,
159617,control_change,7,0,4,,,,,,,,10,7,89,,
159618,aftertouch,8,0,1,,,,,,,,1,,0,,
159620,aftertouch,10,0,3,,,,,,,,1,,1,,
159620,aftertouch,3,0,4,,,,,,,,10,,1,,
159620,aftertouch,10,0,2,,,,,,,,1,,1,,
159620,aftertouch,0,0,1,,,,,,,,1,,0,,
159620,aftertouch,2,0,1,,,,,,,,1,,1,,
159625,note_on,5,0,1,,,,,,,,1,,,78,0
159628,note_on,8,0,2,,,,,,,,1,,,74,0
159632,note_on,12,0,3,,,,,,,,1,,,69,0
159632,control_change,12,0,4,,,,,,,,10,7,91,,
159633,note_on,33,0,6,,,,,,,,0,,,45,0
159634,note_on,2,0,4,,,,,,,,10,,,33,0
159638,control_change,13,0,1,,,,,,,,1,7,107,,
159639,note_on,39,0,5,,,,,,,,0,,,78,0
159640,control_change,6,0,4,,,,,,,,10,7,92,,
159649,control_change,9,0,4,,,,,,,,10,7,94,,
159657,control_change,8,0,4,,,,,,,,10,7,95,,
159660,note_on,22,0,1,,,,,,,,1,,,78,117
159660,note_on,27,0,6,,,,,,,,0,,,47,96
159660,note_on,32,0,2,,,,,,,,1,,,74,123
159660,note_on,21,0,5,,,,,,,,0,,,66,88
159660,note_on,28,0,3,,,,,,,,1,,,69,96
159660,note_on,3,0,4,,,,,,,,10,,,35,120
159669,control_change,9,0,4,,,,,,,,10,7,97,,
159685,note_on,25,0,1,,,,,,,,1,,,78,0
159688,note_on,28,0,2,,,,,,,,1,,,74,0
159689,note_on,29,0,6,,,,,,,,0,,,47,0
159691,note_on,31,0,3,,,,,,,,1,,,69,0
159693,control_change,24,0,4,,,,,,,,10,7,98,,
159695,note_on,35,0,5,,,,,,,,0,,,66,0
159695,note_on,2,0,4,,,,,,,,10,,,35,0
159695,control_change,10,0,1,,,,,,,,1,7,109,,
159711,control_change,16,0,4,,,,,,,,10,7,100,,
159720,note_on,29,0,3,,,,,,,,1,,,69,77
159720,note_on,31,0,6,,,,,,,,0,,,49,102
159720,note_on,25,0,5,,,,,,,,0,,,78,117
159720,note_on,9,0,4,,,,,,,,10,,,37,127
159720,note_on,25,0,1,,,,,,,,1,,,78,108
159720,note_on,32,0,2,,,,,,,,1,,,74,105
159722,control_change,2,0,4,,,,,,,,10,7,101,,
159747,note_on,27,0,1,,,,,,,,1,,,78,0
159748,note_on,28,0,2,,,,,,,,1,,,74,0
159750,note_on,30,0,3,,,,,,,,1,,,69,0
159759,note_on,37,0,4,,,,,,,,10,,,37,0
159760,note_on,40,0,5,,,,,,,,0,,,78,0
159766,note_on,46,0,6,,,,,,,,0,,,49,0
159777,control_change,30,0,1,,,,,,,,1,7,110,,
159780,note_on,30,0,3,,,,,,,,1,,,69,84
159780,note_on,20,0,5,,,,,,,,0,,,78,127
159780,note_on,21,0,4,,,,,,,,10,,,38,108
159780,note_on,14,0,6,,,,,,,,0,,,50,81
159780,note_on,3,0,1,,,,,,,,1,,,78,117
159780,note_on,32,0,2,,,,,,,,1,,,74,111
159805,note_on,25,0,1,,,,,,,,1,,,78,0
159807,note_on,27,0,2,,,,,,,,1,,,74,0
159811,note_on,31,0,6,,,,,,,,0,,,50,0
159815,note_on,35,0,3,,,,,,,,1,,,69,0
159816,note_on,36,0,5,,,,,,,,0,,,78,0
159822,note_on,42,0,4,,,,,,,,10,,,38,0
159840,note_on,18,0,4,,,,,,,,10,,,35,127
159840,note_on,33,0,2,,,,,,,,1,,,74,120
159840,note_on,29,0,6,,,,,,,,0,,,47,89
159840,note_on,24,0,5,,,,,,,,0,,,79,96
159840,note_on,35,0,1,,,,,,,,1,,,79,125
159840,note_on,25,0,3,,,,,,,,1,,,71,93
159851,aftertouch,11,0,6,,,,,,,,0,,1,,
159851,aftertouch,0,0,5,,,,,,,,0,,1,,
159851,aftertouch,11,0,5,,,,,,,,0,,1,,
159869,note_on,29,0,1,,,,,,,,1,,,79,0
159888,note_on,37,0,5,,,,,,,,0,,,79,0
159892,note_on,52,0,2,,,,,,,,1,,,74,0
159899,note_on,48,0,6,,,,,,,,0,,,47,0
159900,note_on,12,0,5,,,,,,,,0,,,81,127
159900,note_on,60,0,4,,,,,,,,10,,,35,0
159900,note_on,31,0,1,,,,,,,,1,,,81,117
159929,note_on,29,0,1,,,,,,,,1,,,81,0
159939,note_on,39,0,5,,,,,,,,0,,,81,0
159939,control_change,39,0,4,,,,,,,,10,7,103,,
159960,note_on,61,0,6,,,,,,,,0,,,59,89
159960,note_on,21,0,5,,,,,,,,0,,,83,120
159960,note_on,21,0,4,,,,,,,,10,,,47,111
159960,note_on,31,0,1,,,,,,,,1,,,83,114
159987,note_on,27,0,1,,,,,,,,1,,,83,0
159998,note_on,38,0,5,,,,,,,,0,,,83,0
160020,note_on,33,0,1,,,,,,,,1,,,79,117
160020,note_on,22,0,5,,,,,,,,0,,,79,127
160046,note_on,26,0,1,,,,,,,,1,,,79,0
160056,note_on,216,0,3,,,,,,,,1,,,71,0
160058,note_on,38,0,5,,,,,,,,0,,,79,0
160080,note_on,34,0,1,,,,,,,,1,,,78,108
160080,note_on,22,0,5,,,,,,,,0,,,78,124
160080,note_on,24,0,3,,,,,,,,1,,,66,105
160080,note_on,188,0,2,,,,,,,,1,,,73,117
160112,note_on,32,0,1,,,,,,,,1,,,78,0
160122,note_on,42,0,5,,,,,,,,0,,,78,0
160131,note_on,171,0,6,,,,,,,,0,,,59,0
160139,note_on,59,0,2,,,,,,,,1,,,73,0
160140,note_on,28,0,1,,,,,,,,1,,,79,108
160140,note_on,18,0,5,,,,,,,,0,,,79,110
160171,note_on,31,0,1,,,,,,,,1,,,79,0
160179,note_on,39,0,5,,,,,,,,0,,,79,0
160188,note_on,228,0,4,,,,,,,,10,,,47,0
160200,note_on,12,0,4,,,,,,,,10,,,45,96
160200,note_on,69,0,6,,,,,,,,0,,,57,108
160200,note_on,29,0,1,,,,,,,,1,,,81,77
160200,note_on,21,0,5,,,,,,,,0,,,81,93
160230,note_on,30,0,1,,,,,,,,1,,,81,0
160244,note_on,44,0,5,,,,,,,,0,,,81,0
160260,note_on,16,0,5,,,,,,,,0,,,78,98
160260,note_on,60,0,6,,,,,,,,0,,,57,0
160260,note_on,30,0,1,,,,,,,,1,,,78,105
160264,control_change,64,0,4,,,,,,,,10,7,102,,
160267,note_on,3,0,4,,,,,,,,10,,,45,0
160287,note_on,27,0,1,,,,,,,,1,,,78,0
160293,control_change,26,0,4,,,,,,,,10,7,100,,
160296,note_on,216,0,3,,,,,,,,1,,,66,0
160298,note_on,38,0,5,,,,,,,,0,,,78,0
160320,note_on,33,0,1,,,,,,,,1,,,76,117
160320,note_on,22,0,5,,,,,,,,0,,,76,102
160320,note_on,181,0,2,,,,,,,,1,,,71,89
160320,note_on,60,0,6,,,,,,,,0,,,55,123
160320,note_on,27,0,4,,,,,,,,10,,,43,84
160320,note_on,24,0,3,,,,,,,,1,,,67,96
160350,control_change,30,0,1,,,,,,,,1,7,108,,
160352,note_on,2,0,1,,,,,,,,1,,,76,0
160364,note_on,44,0,5,,,,,,,,0,,,76,0
160370,note_on,50,0,4,,,,,,,,10,,,43,0
160380,note_on,28,0,1,,,,,,,,1,,,78,111
160380,note_on,16,0,5,,,,,,,,0,,,78,96
160380,note_on,60,0,6,,,,,,,,0,,,55,0
160406,control_change,26,0,1,,,,,,,,1,7,107,,
160407,note_on,1,0,1,,,,,,,,1,,,78,0
160417,note_on,37,0,5,,,,,,,,0,,,78,0
160440,note_on,70,0,4,,,,,,,,10,,,31,96
160440,note_on,60,0,6,,,,,,,,0,,,43,111
160440,note_on,33,0,1,,,,,,,,1,,,79,89
160440,note_on,23,0,5,,,,,,,,0,,,79,110
160468,note_on,28,0,1,,,,,,,,1,,,79,0
160482,control_change,42,0,4,,,,,,,,10,7,99,,
160485,note_on,45,0,5,,,,,,,,0,,,79,0
160500,note_on,15,0,5,,,,,,,,0,,,76,96
160500,note_on,32,0,1,,,,,,,,1,,,76,111
160526,note_on,26,0,1,,,,,,,,1,,,76,0
160535,note_on,35,0,5,,,,,,,,0,,,76,0
160536,note_on,216,0,3,,,,,,,,1,,,67,0
160536,note_on,216,0,2,,,,,,,,1,,,71,0
160560,note_on,34,0,1,,,,,,,,1,,,74,114
160560,note_on,25,0,5,,,,,,,,0,,,74,88
160560,note_on,24,0,2,,,,,,,,1,,,69,84
160560,note_on,24,0,3,,,,,,,,1,,,62,89
160591,note_on,31,0,1,,,,,,,,1,,,74,0
160600,note_on,40,0,5,,,,,,,,0,,,74,0
160620,note_on,20,0,5,,,,,,,,0,,,76,85
160620,note_on,29,0,1,,,,,,,,1,,,76,84
160641,note_on,201,0,6,,,,,,,,0,,,43,0
160648,note_on,28,0,1,,,,,,,,1,,,76,0
160657,note_on,37,0,5,,,,,,,,0,,,76,0
160662,note_on,180,0,4,,,,,,,,10,,,31,0
160680,note_on,23,0,5,,,,,,,,0,,,78,106
160680,note_on,39,0,6,,,,,,,,0,,,42,96
160680,note_on,18,0,4,,,,,,,,10,,,30,81
160680,note_on,32,0,1,,,,,,,,1,,,78,114
160709,note_on,29,0,1,,,,,,,,1,,,78,0
160717,note_on,37,0,5,,,,,,,,0,,,78,0
160737,note_on,57,0,6,,,,,,,,0,,,42,0
160740,note_on,31,0,1,,,,,,,,1,,,74,102
160740,note_on,23,0,5,,,,,,,,0,,,74,102
160767,note_on,27,0,1,,,,,,,,1,,,74,0
160771,note_on,91,0,4,,,,,,,,10,,,30,0
160776,note_on,216,0,3,,,,,,,,1,,,62,0
160776,note_on,216,0,2,,,,,,,,1,,,69,0
160778,note_on,38,0,5,,,,,,,,0,,,74,0
160800,note_on,22,0,5,,,,,,,,0,,,73,96
160800,note_on,33,0,1,,,,,,,,1,,,73,81
160800,note_on,63,0,6,,,,,,,,0,,,40,93
160800,note_on,29,0,4,,,,,,,,10,,,28,111
160800,note_on,24,0,2,,,,,,,,1,,,67,102
160800,note_on,24,0,3,,,,,,,,1,,,64,93
160833,note_on,33,0,1,,,,,,,,1,,,73,0
160846,note_on,46,0,6,,,,,,,,0,,,40,0
160849,note_on,49,0,5,,,,,,,,0,,,73,0
160860,note_on,27,0,1,,,,,,,,1,,,74,111
160860,note_on,11,0,5,,,,,,,,0,,,74,106
160870,note_on,70,0,4,,,,,,,,10,,,28,0
160895,note_on,35,0,1,,,,,,,,1,,,74,0
160900,note_on,40,0,5,,,,,,,,0,,,74,0
160920,note_on,74,0,6,,,,,,,,0,,,52,117
160920,note_on,20,0,5,,,,,,,,0,,,76,88
160920,note_on,25,0,1,,,,,,,,1,,,76,102
160920,note_on,50,0,4,,,,,,,,10,,,40,124
160949,note_on,29,0,1,,,,,,,,1,,,76,0
160950,control_change,1,0,1,,,,,,,,1,7,105,,
160964,note_on,44,0,5,,,,,,,,0,,,76,0
160980,note_on,16,0,5,,,,,,,,0,,,73,93
160980,note_on,30,0,1,,,,,,,,1,,,73,96
161002,note_on,22,0,1,,,,,,,,1,,,73,0
161011,note_on,31,0,5,,,,,,,,0,,,73,0
161016,note_on,216,0,2,,,,,,,,1,,,67,0
161016,note_on,216,0,3,,,,,,,,1,,,64,0
161040,note_on,29,0,5,,,,,,,,0,,,67,127
161040,note_on,24,0,2,,,,,,,,1,,,64,96
161040,note_on,24,0,3,,,,,,,,1,,,61,111
161040,note_on,38,0,1,,,,,,,,1,,,67,84
161072,note_on,32,0,5,,,,,,,,0,,,67,0
161075,note_on,35,0,1,,,,,,,,1,,,67,0
161086,aftertouch,11,0,1,,,,,,,,1,,6,,
161086,aftertouch,166,0,4,,,,,,,,10,,6,,
161086,aftertouch,46,0,2,,,,,,,,1,,6,,
161086,aftertouch,46,0,3,,,,,,,,1,,6,,
161094,aftertouch,8,0,1,,,,,,,,1,,0,,
161096,aftertouch,10,0,3,,,,,,,,1,,3,,
161097,aftertouch,11,0,2,,,,,,,,1,,3,,
161097,aftertouch,11,0,4,,,,,,,,10,,3,,
161097,aftertouch,3,0,1,,,,,,,,1,,3,,
161098,note_on,178,0,6,,,,,,,,0,,,52,0
161100,note_on,28,0,5,,,,,,,,0,,,69,93
161100,note_on,3,0,1,,,,,,,,1,,,69,84
161105,aftertouch,5,0,1,,,,,,,,1,,0,,
161105,note_on,8,0,2,,,,,,,,1,,,64,0
161106,control_change,9,0,4,,,,,,,,10,7,97,,
161107,aftertouch,2,0,1,,,,,,,,1,,1,,
161108,aftertouch,2,0,4,,,,,,,,10,,1,,
161108,aftertouch,3,0,2,,,,,,,,1,,1,,
161108,aftertouch,12,0,3,,,,,,,,1,,1,,
161111,note_on,3,0,3,,,,,,,,1,,,61,0
161114,aftertouch,7,0,1,,,,,,,,1,,0,,
161128,note_on,20,0,4,,,,,,,,10,,,40,0
161131,note_on,17,0,1,,,,,,,,1,,,69,0
161138,note_on,38,0,5,,,,,,,,0,,,69,0
161160,note_on,49,0,3,,,,,,,,1,,,62,111
161160,note_on,62,0,6,,,,,,,,0,,,50,99
161160,note_on,22,0,5,,,,,,,,0,,,71,117
161160,note_on,52,0,2,,,,,,,,1,,,66,69
161160,note_on,29,0,1,,,,,,,,1,,,71,111
161160,note_on,32,0,4,,,,,,,,10,,,38,111
161162,control_change,2,0,4,,,,,,,,10,7,96,,
161189,note_on,29,0,1,,,,,,,,1,,,71,0
161204,note_on,44,0,5,,,,,,,,0,,,71,0
161213,note_on,53,0,6,,,,,,,,0,,,50,0
161220,note_on,31,0,1,,,,,,,,1,,,67,102
161220,note_on,16,0,5,,,,,,,,0,,,67,102
161227,note_on,67,0,2,,,,,,,,1,,,66,0
161232,note_on,70,0,4,,,,,,,,10,,,38,0
161237,note_on,77,0,3,,,,,,,,1,,,62,0
161247,note_on,27,0,1,,,,,,,,1,,,67,0
161252,note_on,32,0,5,,,,,,,,0,,,67,0
161280,note_on,48,0,4,,,,,,,,10,,,37,81
161280,note_on,67,0,6,,,,,,,,0,,,49,77
161280,note_on,33,0,1,,,,,,,,1,,,64,89
161280,note_on,43,0,3,,,,,,,,1,,,64,79
161280,note_on,28,0,5,,,,,,,,0,,,64,98
161280,note_on,53,0,2,,,,,,,,1,,,67,84
161312,note_on,32,0,1,,,,,,,,1,,,64,0
161319,note_on,39,0,5,,,,,,,,0,,,64,0
161322,note_on,42,0,6,,,,,,,,0,,,49,0
161340,note_on,21,0,5,,,,,,,,0,,,66,96
161340,note_on,28,0,1,,,,,,,,1,,,66,111
161354,control_change,14,0,1,,,,,,,,1,7,104,,
161356,note_on,76,0,3,,,,,,,,1,,,64,0
161362,note_on,82,0,2,,,,,,,,1,,,67,0
161363,control_change,9,0,1,,,,,,,,1,7,102,,
161373,note_on,10,0,1,,,,,,,,1,,,66,0
161376,note_on,36,0,5,,,,,,,,0,,,66,0
161383,control_change,10,0,1,,,,,,,,1,7,101,,
161400,note_on,17,0,1,,,,,,,,1,,,67,102
161400,note_on,78,0,6,,,,,,,,0,,,37,124
161400,note_on,44,0,3,,,,,,,,1,,,61,111
161400,note_on,38,0,2,,,,,,,,1,,,64,99
161400,note_on,24,0,5,,,,,,,,0,,,67,85
161427,note_on,27,0,1,,,,,,,,1,,,67,0
161427,note_on,27,0,2,,,,,,,,1,,,64,0
161430,note_on,30,0,3,,,,,,,,1,,,61,0
161438,note_on,38,0,5,,,,,,,,0,,,67,0
161460,note_on,22,0,5,,,,,,,,0,,,64,93
161460,note_on,30,0,3,,,,,,,,1,,,62,89
161460,note_on,33,0,1,,,,,,,,1,,,64,111
161460,note_on,33,0,2,,,,,,,,1,,,66,91
161487,note_on,27,0,1,,,,,,,,1,,,64,0
161491,note_on,31,0,5,,,,,,,,0,,,64,0
161491,note_on,31,0,2,,,,,,,,1,,,66,0
161494,note_on,34,0,3,,,,,,,,1,,,62,0
161520,note_on,33,0,1,,,,,,,,1,,,61,86
161520,note_on,26,0,3,,,,,,,,1,,,64,89
161520,note_on,29,0,5,,,,,,,,0,,,61,110
161520,note_on,29,0,2,,,,,,,,1,,,67,102
161550,note_on,150,0,6,,,,,,,,0,,,37,0
161551,note_on,31,0,1,,,,,,,,1,,,61,0
161559,note_on,39,0,5,,,,,,,,0,,,61,0
161577,note_on,57,0,3,,,,,,,,1,,,64,0
161580,note_on,29,0,1,,,,,,,,1,,,62,93
161580,note_on,21,0,5,,,,,,,,0,,,62,85
161592,note_on,72,0,2,,,,,,,,1,,,67,0
161613,note_on,33,0,1,,,,,,,,1,,,62,0
161622,note_on,42,0,5,,,,,,,,0,,,62,0
161640,note_on,90,0,6,,,,,,,,0,,,49,127
161640,note_on,27,0,1,,,,,,,,1,,,64,96
161640,note_on,48,0,2,,,,,,,,1,,,64,79
161640,note_on,63,0,3,,,,,,,,1,,,61,93
161640,note_on,18,0,5,,,,,,,,0,,,64,82
161665,note_on,25,0,1,,,,,,,,1,,,64,0
161671,note_on,31,0,3,,,,,,,,1,,,61,0
161676,note_on,36,0,2,,,,,,,,1,,,64,0
161686,note_on,46,0,6,,,,,,,,0,,,49,0
161688,note_on,48,0,5,,,,,,,,0,,,64,0
161700,note_on,12,0,5,,,,,,,,0,,,61,73
161700,note_on,29,0,3,,,,,,,,1,,,62,89
161700,note_on,35,0,1,,,,,,,,1,,,61,81
161700,note_on,24,0,2,,,,,,,,1,,,66,77
161700,note_on,14,0,6,,,,,,,,0,,,47,77
161727,note_on,27,0,1,,,,,,,,1,,,61,0
161731,note_on,31,0,2,,,,,,,,1,,,66,0
161731,note_on,31,0,3,,,,,,,,1,,,62,0
161737,note_on,37,0,6,,,,,,,,0,,,47,0
161739,control_change,459,0,4,,,,,,,,10,7,94,,
161739,note_on,39,0,5,,,,,,,,0,,,61,0
161757,control_change,30,0,1,,,,,,,,1,7,99,,
161760,note_on,23,0,6,,,,,,,,0,,,49,120
161760,note_on,29,0,2,,,,,,,,1,,,67,93
161760,note_on,3,0,1,,,,,,,,1,,,57,84
161760,note_on,29,0,3,,,,,,,,1,,,64,77
161760,note_on,21,0,5,,,,,,,,0,,,57,75
161790,note_on,30,0,6,,,,,,,,0,,,49,0
161809,note_on,49,0,5,,,,,,,,0,,,57,0
161820,note_on,30,0,6,,,,,,,,0,,,52,74
161820,note_on,11,0,5,,,,,,,,0,,,61,85
161859,note_on,39,0,6,,,,,,,,0,,,52,0
161862,note_on,123,0,4,,,,,,,,10,,,37,0
161871,note_on,51,0,5,,,,,,,,0,,,61,0
161880,note_on,21,0,6,,,,,,,,0,,,57,81
161880,note_on,9,0,5,,,,,,,,0,,,64,75
161880,note_on,18,0,4,,,,,,,,10,,,35,84
161935,note_on,55,0,5,,,,,,,,0,,,64,0
161939,note_on,59,0,6,,,,,,,,0,,,57,0
161940,note_on,5,0,5,,,,,,,,0,,,67,88
161940,note_on,1,0,6,,,,,,,,0,,,52,77
161965,note_on,25,0,5,,,,,,,,0,,,67,0
161976,note_on,216,0,1,,,,,,,,1,,,57,0
161976,note_on,216,0,2,,,,,,,,1,,,67,0
161976,note_on,96,0,4,,,,,,,,10,,,35,0
161976,note_on,216,0,3,,,,,,,,1,,,64,0
161980,note_on,40,0,6,,,,,,,,0,,,52,0
162000,note_on,24,0,4,,,,,,,,10,,,37,99
162000,note_on,35,0,5,,,,,,,,0,,,69,88
162000,note_on,20,0,6,,,,,,,,0,,,49,81
162044,note_on,44,0,5,,,,,,,,0,,,69,0
162052,note_on,52,0,6,,,,,,,,0,,,49,0
162060,note_on,8,0,6,,,,,,,,0,,,52,84
162060,note_on,16,0,5,,,,,,,,0,,,73,88
162088,note_on,88,0,4,,,,,,,,10,,,37,0
162104,note_on,44,0,5,,,,,,,,0,,,73,0
162117,note_on,57,0,6,,,,,,,,0,,,52,0
162120,note_on,16,0,5,,,,,,,,0,,,76,90
162120,note_on,144,0,3,,,,,,,,1,,,69,111
162120,note_on,32,0,4,,,,,,,,10,,,33,74
162120,note_on,3,0,6,,,,,,,,0,,,49,91
162120,note_on,144,0,2,,,,,,,,1,,,76,81
162120,note_on,144,0,1,,,,,,,,1,,,76,111
162123,control_change,3,0,1,,,,,,,,1,7,100,,
162168,control_change,45,0,1,,,,,,,,1,7,101,,
162174,note_on,54,0,5,,,,,,,,0,,,76,0
162175,note_on,55,0,6,,,,,,,,0,,,49,0
162180,note_on,5,0,6,,,,,,,,0,,,45,64
162180,note_on,12,0,1,,,,,,,,1,,,78,64
162180,note_on,6,0,5,,,,,,,,0,,,78,75
162184,note_on,4,0,1,,,,,,,,1,,,76,0
162190,note_on,70,0,3,,,,,,,,1,,,69,0
162200,note_on,80,0,2,,,,,,,,1,,,76,0
162202,note_on,18,0,1,,,,,,,,1,,,78,0
162210,note_on,0,0,5,,,,,,,,0,,,79,82
162210,note_on,8,0,1,,,,,,,,1,,,79,96
162210,note_on,30,0,5,,,,,,,,0,,,78,0
162214,note_on,94,0,4,,,,,,,,10,,,33,0
162236,note_on,26,0,1,,,,,,,,1,,,79,0
162237,note_on,57,0,6,,,,,,,,0,,,45,0
162240,note_on,4,0,1,,,,,,,,1,,,78,96
162240,note_on,0,0,5,,,,,,,,0,,,78,120
162240,note_on,50,0,3,,,,,,,,1,,,69,111
162240,note_on,40,0,2,,,,,,,,1,,,74,89
162240,note_on,26,0,4,,,,,,,,10,,,38,86
162240,note_on,3,0,6,,,,,,,,0,,,50,86
162240,note_on,30,0,5,,,,,,,,0,,,79,0
162267,control_change,27,0,1,,,,,,,,1,7,103,,
162299,control_change,59,0,4,,,,,,,,10,7,95,,
162321,note_on,81,0,6,,,,,,,,0,,,50,0
162324,note_on,84,0,2,,,,,,,,1,,,74,0
162327,note_on,87,0,3,,,,,,,,1,,,69,0
162329,note_on,30,0,4,,,,,,,,10,,,38,0
162331,note_on,64,0,1,,,,,,,,1,,,78,0
162339,note_on,99,0,5,,,,,,,,0,,,78,0
162360,note_on,21,0,5,,,,,,,,0,,,76,127
162360,note_on,39,0,6,,,,,,,,0,,,42,74
162360,note_on,33,0,3,,,,,,,,1,,,67,102
162360,note_on,31,0,4,,,,,,,,10,,,30,105
162360,note_on,36,0,2,,,,,,,,1,,,69,72
162360,note_on,29,0,1,,,,,,,,1,,,76,111
162391,note_on,31,0,3,,,,,,,,1,,,67,0
162391,note_on,31,0,6,,,,,,,,0,,,42,0
162393,note_on,33,0,1,,,,,,,,1,,,76,0
162400,note_on,40,0,4,,,,,,,,10,,,30,0
162408,note_on,48,0,5,,,,,,,,0,,,76,0
162420,note_on,20,0,4,,,,,,,,10,,,30,123
162420,note_on,12,0,5,,,,,,,,0,,,74,75
162420,note_on,29,0,6,,,,,,,,0,,,54,93
162420,note_on,27,0,1,,,,,,,,1,,,74,108
162420,note_on,29,0,3,,,,,,,,1,,,66,111
162432,aftertouch,12,0,5,,,,,,,,0,,3,,
162432,aftertouch,0,0,5,,,,,,,,0,,3,,
162432,aftertouch,12,0,6,,,,,,,,0,,3,,
162437,note_on,77,0,2,,,,,,,,1,,,69,0
162442,aftertouch,10,0,5,,,,,,,,0,,1,,
162443,aftertouch,1,0,5,,,,,,,,0,,1,,
162443,aftertouch,11,0,6,,,,,,,,0,,1,,
162447,note_on,27,0,1,,,,,,,,1,,,74,0
162452,note_on,9,0,6,,,,,,,,0,,,54,0
162460,note_on,40,0,3,,,,,,,,1,,,66,0
162460,note_on,17,0,5,,,,,,,,0,,,74,0
162466,note_on,46,0,4,,,,,,,,10,,,30,0
162480,note_on,20,0,3,,,,,,,,1,,,64,108
162480,note_on,33,0,1,,,,,,,,1,,,76,89
162480,note_on,20,0,5,,,,,,,,0,,,76,117
162480,note_on,43,0,2,,,,,,,,1,,,71,89
162480,note_on,14,0,4,,,,,,,,10,,,31,127
162480,note_on,28,0,6,,,,,,,,0,,,43,105
162516,note_on,36,0,6,,,,,,,,0,,,43,0
162520,note_on,40,0,4,,,,,,,,10,,,31,0
162520,control_change,40,0,1,,,,,,,,1,7,104,,
162540,note_on,20,0,4,,,,,,,,10,,,31,123
162540,note_on,24,0,6,,,,,,,,0,,,55,108
162549,note_on,29,0,1,,,,,,,,1,,,76,0
162557,note_on,77,0,5,,,,,,,,0,,,76,0
162561,note_on,81,0,3,,,,,,,,1,,,64,0
162565,note_on,85,0,2,,,,,,,,1,,,71,0
162573,note_on,33,0,6,,,,,,,,0,,,55,0
162583,note_on,43,0,4,,,,,,,,10,,,31,0
162600,note_on,35,0,2,,,,,,,,1,,,69,77
162600,note_on,51,0,1,,,,,,,,1,,,74,127
162600,note_on,43,0,5,,,,,,,,0,,,74,106
162600,note_on,17,0,4,,,,,,,,10,,,33,123
162600,note_on,27,0,6,,,,,,,,0,,,45,102
162600,note_on,39,0,3,,,,,,,,1,,,67,108
162633,note_on,33,0,4,,,,,,,,10,,,33,0
162634,note_on,34,0,1,,,,,,,,1,,,74,0
162639,note_on,39,0,5,,,,,,,,0,,,74,0
162646,note_on,46,0,6,,,,,,,,0,,,45,0
162660,note_on,21,0,5,,,,,,,,0,,,73,102
162660,note_on,14,0,6,,,,,,,,0,,,57,79
162660,note_on,26,0,1,,,,,,,,1,,,73,77
162660,note_on,27,0,4,,,,,,,,10,,,33,117
162675,note_on,75,0,2,,,,,,,,1,,,69,0
162683,note_on,83,0,3,,,,,,,,1,,,67,0
162696,note_on,36,0,6,,,,,,,,0,,,57,0
162697,note_on,37,0,5,,,,,,,,0,,,73,0
162698,note_on,38,0,1,,,,,,,,1,,,73,0
162705,note_on,45,0,4,,,,,,,,10,,,33,0
162720,note_on,37,0,3,,,,,,,,1,,,66,99
162720,note_on,24,0,6,,,,,,,,0,,,50,89
162720,note_on,45,0,2,,,,,,,,1,,,69,89
162720,note_on,22,0,1,,,,,,,,1,,,74,127
162720,note_on,23,0,5,,,,,,,,0,,,74,113
162720,note_on,15,0,4,,,,,,,,10,,,26,123
162762,control_change,42,0,1,,,,,,,,1,7,106,,
162772,note_on,52,0,5,,,,,,,,0,,,74,0
162780,note_on,8,0,5,,,,,,,,0,,,78,93
162804,note_on,84,0,6,,,,,,,,0,,,50,0
162805,note_on,25,0,5,,,,,,,,0,,,78,0
162810,note_on,5,0,5,,,,,,,,0,,,79,102
162840,note_on,30,0,5,,,,,,,,0,,,81,102
162840,note_on,36,0,6,,,,,,,,0,,,54,120
162864,note_on,24,0,5,,,,,,,,0,,,79,0
162888,note_on,24,0,5,,,,,,,,0,,,81,0
162900,note_on,12,0,5,,,,,,,,0,,,74,96
162911,note_on,71,0,6,,,,,,,,0,,,54,0
162936,note_on,174,0,1,,,,,,,,1,,,74,0
162936,note_on,216,0,4,,,,,,,,10,,,26,0
162936,note_on,216,0,3,,,,,,,,1,,,66,0
162936,note_on,216,0,2,,,,,,,,1,,,69,0
162940,note_on,40,0,5,,,,,,,,0,,,74,0
162960,note_on,20,0,5,,,,,,,,0,,,83,113
162960,note_on,49,0,6,,,,,,,,0,,,55,91
162970,control_change,34,0,4,,,,,,,,10,7,94,,
163013,note_on,53,0,5,,,,,,,,0,,,83,0
163020,note_on,7,0,5,,,,,,,,0,,,74,75
163031,note_on,71,0,6,,,,,,,,0,,,55,0
163069,note_on,49,0,5,,,,,,,,0,,,74,0
163080,note_on,49,0,6,,,,,,,,0,,,57,125
163080,note_on,11,0,5,,,,,,,,0,,,85,124
163131,note_on,51,0,5,,,,,,,,0,,,85,0
163140,note_on,9,0,5,,,,,,,,0,,,74,75
163152,note_on,72,0,6,,,,,,,,0,,,57,0
163191,note_on,51,0,5,,,,,,,,0,,,74,0
163200,note_on,9,0,5,,,,,,,,0,,,86,85
163200,note_on,48,0,6,,,,,,,,0,,,59,102
163255,note_on,55,0,5,,,,,,,,0,,,86,0
163260,note_on,5,0,5,,,,,,,,0,,,85,88
163284,note_on,84,0,6,,,,,,,,0,,,59,0
163286,note_on,26,0,5,,,,,,,,0,,,85,0
163290,note_on,4,0,5,,,,,,,,0,,,83,75
163320,note_on,36,0,6,,,,,,,,0,,,54,91
163320,note_on,384,0,3,,,,,,,,1,,,62,79
163320,note_on,350,0,4,,,,,,,,10,,,30,84
163320,note_on,384,0,1,,,,,,,,1,,,69,69
163320,note_on,30,0,5,,,,,,,,0,,,81,73
163320,note_on,384,0,2,,,,,,,,1,,,69,58
163330,note_on,10,0,5,,,,,,,,0,,,83,0
163351,note_on,31,0,3,,,,,,,,1,,,62,0
163351,note_on,31,0,2,,,,,,,,1,,,69,0
163352,note_on,32,0,1,,,,,,,,1,,,69,0
163356,note_on,26,0,5,,,,,,,,0,,,81,0
163356,note_on,36,0,4,,,,,,,,10,,,30,0
163380,note_on,24,0,4,,,,,,,,10,,,30,89
163380,note_on,24,0,5,,,,,,,,0,,,79,85
163380,note_on,29,0,3,,,,,,,,1,,,62,64
163380,note_on,29,0,2,,,,,,,,1,,,69,66
163380,note_on,28,0,1,,,,,,,,1,,,69,55
163405,note_on,85,0,6,,,,,,,,0,,,54,0
163409,note_on,29,0,5,,,,,,,,0,,,79,0
163417,note_on,37,0,3,,,,,,,,1,,,62,0
163420,note_on,40,0,2,,,,,,,,1,,,69,0
163421,note_on,41,0,1,,,,,,,,1,,,69,0
163425,note_on,45,0,4,,,,,,,,10,,,30,0
163440,note_on,31,0,5,,,,,,,,0,,,78,102
163440,note_on,19,0,1,,,,,,,,1,,,71,74
163440,note_on,23,0,3,,,,,,,,1,,,62,77
163440,note_on,15,0,4,,,,,,,,10,,,31,81
163440,note_on,20,0,2,,,,,,,,1,,,71,66
163440,note_on,35,0,6,,,,,,,,0,,,55,72
163455,note_on,15,0,5,,,,,,,,0,,,78,0
163470,note_on,30,0,2,,,,,,,,1,,,71,0
163470,note_on,15,0,5,,,,,,,,0,,,79,117
163473,note_on,33,0,1,,,,,,,,1,,,71,0
163474,note_on,34,0,3,,,,,,,,1,,,62,0
163479,note_on,39,0,4,,,,,,,,10,,,31,0
163500,note_on,27,0,1,,,,,,,,1,,,71,66
163500,note_on,21,0,4,,,,,,,,10,,,31,84
163500,note_on,30,0,2,,,,,,,,1,,,71,55
163500,note_on,30,0,5,,,,,,,,0,,,81,110
163500,note_on,26,0,3,,,,,,,,1,,,62,79
163514,note_on,14,0,5,,,,,,,,0,,,79,0
163531,note_on,91,0,6,,,,,,,,0,,,55,0
163531,note_on,31,0,2,,,,,,,,1,,,71,0
163531,note_on,31,0,1,,,,,,,,1,,,71,0
163539,note_on,25,0,5,,,,,,,,0,,,81,0
163542,note_on,42,0,3,,,,,,,,1,,,62,0
163545,note_on,45,0,4,,,,,,,,10,,,31,0
163560,note_on,21,0,5,,,,,,,,0,,,76,110
163560,note_on,29,0,1,,,,,,,,1,,,73,51
163560,note_on,29,0,6,,,,,,,,0,,,57,89
163560,note_on,29,0,2,,,,,,,,1,,,73,66
163560,note_on,15,0,4,,,,,,,,10,,,33,89
163560,note_on,18,0,3,,,,,,,,1,,,69,79
163565,control_change,5,0,1,,,,,,,,1,7,107,,
163576,note_on,16,0,5,,,,,,,,0,,,76,0
163590,note_on,14,0,5,,,,,,,,0,,,78,106
163591,note_on,26,0,1,,,,,,,,1,,,73,0
163592,note_on,32,0,2,,,,,,,,1,,,73,0
163594,note_on,34,0,4,,,,,,,,10,,,33,0
163596,note_on,36,0,3,,,,,,,,1,,,69,0
163608,note_on,18,0,5,,,,,,,,0,,,78,0
163620,note_on,28,0,2,,,,,,,,1,,,73,51
163620,note_on,24,0,3,,,,,,,,1,,,69,84
163620,note_on,26,0,4,,,,,,,,10,,,33,84
163620,note_on,12,0,5,,,,,,,,0,,,79,102
163620,note_on,29,0,1,,,,,,,,1,,,73,51
163642,note_on,82,0,6,,,,,,,,0,,,57,0
163648,note_on,28,0,2,,,,,,,,1,,,73,0
163649,note_on,29,0,5,,,,,,,,0,,,79,0
163654,note_on,34,0,3,,,,,,,,1,,,69,0
163655,note_on,35,0,1,,,,,,,,1,,,73,0
163665,control_change,45,0,4,,,,,,,,10,7,95,,
163668,note_on,3,0,4,,,,,,,,10,,,33,0
163680,note_on,31,0,5,,,,,,,,0,,,78,110
163680,note_on,12,0,4,,,,,,,,10,,,26,96
163680,note_on,25,0,1,,,,,,,,1,,,74,64
163680,note_on,38,0,6,,,,,,,,0,,,50,81
163680,note_on,32,0,2,,,,,,,,1,,,74,66
163680,note_on,26,0,3,,,,,,,,1,,,69,117
163689,control_change,9,0,1,,,,,,,,1,7,109,,
163699,note_on,19,0,5,,,,,,,,0,,,78,0
163710,note_on,11,0,5,,,,,,,,0,,,76,85
163728,note_on,18,0,5,,,,,,,,0,,,76,0
163740,note_on,12,0,5,,,,,,,,0,,,74,102
163762,control_change,82,0,4,,,,,,,,10,7,97,,
163775,note_on,35,0,5,,,,,,,,0,,,74,0
163800,note_on,25,0,5,,,,,,,,0,,,81,90
163849,note_on,49,0,5,,,,,,,,0,,,81,0
163860,note_on,11,0,5,,,,,,,,0,,,78,102
163896,note_on,134,0,4,,,,,,,,10,,,26,0
163896,note_on,216,0,2,,,,,,,,1,,,74,0
163896,note_on,207,0,1,,,,,,,,1,,,74,0
163896,note_on,216,0,3,,,,,,,,1,,,69,0
163896,note_on,216,0,6,,,,,,,,0,,,50,0
163910,note_on,50,0,5,,,,,,,,0,,,78,0
163920,note_on,10,0,5,,,,,,,,0,,,86,110
163945,note_on,25,0,5,,,,,,,,0,,,86,0
163980,note_on,35,0,5,,,,,,,,0,,,81,79
164020,note_on,40,0,5,,,,,,,,0,,,81,0
164033,control_change,137,0,4,,,,,,,,10,7,98,,
164040,note_on,20,0,5,,,,,,,,0,,,78,44
164040,note_on,144,0,6,,,,,,,,0,,,57,74
164073,note_on,33,0,5,,,,,,,,0,,,78,0
164082,note_on,42,0,6,,,,,,,,0,,,57,0
164100,note_on,27,0,5,,,,,,,,0,,,74,79
164100,note_on,18,0,6,,,,,,,,0,,,54,58
164127,note_on,27,0,5,,,,,,,,0,,,74,0
164129,note_on,29,0,6,,,,,,,,0,,,54,0
164160,note_on,31,0,6,,,,,,,,0,,,50,58
164160,note_on,33,0,5,,,,,,,,0,,,69,90
164199,note_on,39,0,5,,,,,,,,0,,,69,0
164220,note_on,21,0,5,,,,,,,,0,,,74,102
164239,note_on,79,0,6,,,,,,,,0,,,50,0
164247,note_on,27,0,5,,,,,,,,0,,,74,0
164250,note_on,3,0,5,,,,,,,,0,,,73,70
164266,control_change,370,0,1,,,,,,,,1,7,110,,
164276,note_on,26,0,5,,,,,,,,0,,,73,0
164280,note_on,41,0,6,,,,,,,,0,,,54,51
164280,note_on,4,0,5,,,,,,,,0,,,74,79
164320,note_on,40,0,5,,,,,,,,0,,,74,0
164326,note_on,46,0,6,,,,,,,,0,,,54,0
164340,note_on,20,0,5,,,,,,,,0,,,69,96
164340,note_on,14,0,6,,,,,,,,0,,,50,58
164369,note_on,29,0,5,,,,,,,,0,,,69,0
164370,note_on,30,0,6,,,,,,,,0,,,50,0
164400,note_on,30,0,6,,,,,,,,0,,,45,69
164400,note_on,31,0,5,,,,,,,,0,,,66,63
164457,note_on,57,0,5,,,,,,,,0,,,66,0
164460,note_on,3,0,5,,,,,,,,0,,,69,90
164473,note_on,73,0,6,,,,,,,,0,,,45,0
164489,note_on,29,0,5,,,,,,,,0,,,69,0
164490,note_on,1,0,5,,,,,,,,0,,,67,102
164519,note_on,29,0,5,,,,,,,,0,,,67,0
164520,note_on,47,0,6,,,,,,,,0,,,50,64
164520,note_on,1,0,5,,,,,,,,0,,,69,85
164577,note_on,57,0,5,,,,,,,,0,,,69,0
164579,note_on,59,0,6,,,,,,,,0,,,50,0
164580,note_on,1,0,6,,,,,,,,0,,,45,39
164580,note_on,3,0,5,,,,,,,,0,,,66,93
164620,note_on,40,0,6,,,,,,,,0,,,45,0
164637,note_on,57,0,5,,,,,,,,0,,,66,0
164640,note_on,20,0,6,,,,,,,,0,,,42,84
164640,note_on,3,0,5,,,,,,,,0,,,62,117
164664,note_on,24,0,6,,,,,,,,0,,,42,0
164670,note_on,6,0,6,,,,,,,,0,,,43,72
164682,control_change,649,0,4,,,,,,,,10,7,100,,
164687,note_on,17,0,6,,,,,,,,0,,,43,0
164700,note_on,13,0,6,,,,,,,,0,,,45,55
164719,note_on,19,0,6,,,,,,,,0,,,45,0
164756,control_change,490,0,1,,,,,,,,1,7,108,,
164760,note_on,4,0,1,,,,,,,,1,,,69,96
164760,note_on,864,0,2,,,,,,,,1,,,69,77
164760,note_on,864,0,3,,,,,,,,1,,,66,86
164760,note_on,41,0,6,,,,,,,,0,,,38,74
164784,control_change,24,0,1,,,,,,,,1,7,107,,
164791,note_on,7,0,1,,,,,,,,1,,,69,0
164792,note_on,32,0,2,,,,,,,,1,,,69,0
164792,note_on,32,0,3,,,,,,,,1,,,66,0
164820,note_on,29,0,1,,,,,,,,1,,,69,89
164820,note_on,28,0,2,,,,,,,,1,,,69,74
164820,note_on,28,0,3,,,,,,,,1,,,66,84
164860,note_on,40,0,2,,,,,,,,1,,,69,0
164862,note_on,42,0,3,,,,,,,,1,,,66,0
164862,note_on,42,0,1,,,,,,,,1,,,69,0
164880,note_on,18,0,3,,,,,,,,1,,,67,84
164880,note_on,20,0,2,,,,,,,,1,,,71,72
164880,note_on,18,0,1,,,,,,,,1,,,71,89
164897,note_on,137,0,6,,,,,,,,0,,,38,0
164911,note_on,31,0,2,,,,,,,,1,,,71,0
164913,note_on,33,0,1,,,,,,,,1,,,71,0
164913,note_on,33,0,3,,,,,,,,1,,,67,0
164940,note_on,27,0,1,,,,,,,,1,,,71,74
164940,note_on,27,0,3,,,,,,,,1,,,67,102
164940,note_on,29,0,2,,,,,,,,1,,,71,72
164975,note_on,35,0,2,,,,,,,,1,,,71,0
164976,note_on,36,0,1,,,,,,,,1,,,71,0
164976,note_on,36,0,3,,,,,,,,1,,,67,0
165000,note_on,24,0,1,,,,,,,,1,,,73,64
165000,note_on,25,0,2,,,,,,,,1,,,73,51
165000,note_on,24,0,3,,,,,,,,1,,,64,84
165007,control_change,7,0,1,,,,,,,,1,7,109,,
165028,note_on,28,0,2,,,,,,,,1,,,73,0
165031,note_on,24,0,1,,,,,,,,1,,,73,0
165034,note_on,34,0,3,,,,,,,,1,,,64,0
165060,note_on,26,0,3,,,,,,,,1,,,64,66
165060,note_on,29,0,1,,,,,,,,1,,,73,81
165060,note_on,32,0,2,,,,,,,,1,,,73,51
165092,note_on,32,0,2,,,,,,,,1,,,73,0
165094,note_on,34,0,1,,,,,,,,1,,,73,0
165098,note_on,38,0,3,,,,,,,,1,,,64,0
165120,set_tempo,48000,1,0,,,,,,714286,,,,,,
165120,note_on,28,0,2,,,,,,,,1,,,74,66
165120,note_on,22,0,3,,,,,,,,1,,,66,84
165120,note_on,26,0,1,,,,,,,,1,,,74,66
165151,note_on,31,0,1,,,,,,,,1,,,74,0
165166,note_on,46,0,3,,,,,,,,1,,,66,0
165180,note_on,29,0,1,,,,,,,,1,,,74,84
165188,note_on,68,0,2,,,,,,,,1,,,74,0
165209,control_change,29,0,1,,,,,,,,1,7,110,,
165211,note_on,2,0,1,,,,,,,,1,,,74,0
165240,note_on,29,0,1,,,,,,,,1,,,69,127
165240,note_on,52,0,2,,,,,,,,1,,,69,81
165240,note_on,74,0,3,,,,,,,,1,,,66,125
165240,note_on,558,0,4,,,,,,,,10,,,30,123
165240,note_on,343,0,6,,,,,,,,0,,,42,111
165269,note_on,29,0,1,,,,,,,,1,,,69,0
165275,note_on,35,0,4,,,,,,,,10,,,30,0
165276,note_on,36,0,6,,,,,,,,0,,,42,0
165300,note_on,24,0,6,,,,,,,,0,,,54,93
165300,note_on,25,0,4,,,,,,,,10,,,30,111
165300,note_on,31,0,1,,,,,,,,1,,,69,108
165332,note_on,32,0,6,,,,,,,,0,,,54,0
165338,note_on,38,0,1,,,,,,,,1,,,69,0
165345,note_on,45,0,4,,,,,,,,10,,,30,0
165360,note_on,28,0,6,,,,,,,,0,,,43,86
165360,note_on,15,0,4,,,,,,,,10,,,31,93
165360,note_on,22,0,1,,,,,,,,1,,,71,120
165393,note_on,33,0,1,,,,,,,,1,,,71,0
165396,note_on,36,0,6,,,,,,,,0,,,43,0
165400,note_on,40,0,4,,,,,,,,10,,,31,0
165408,note_on,768,0,5,,,,,,,,0,,,62,0
165420,note_on,12,0,5,,,,,,,,0,,,64,106
165420,note_on,27,0,1,,,,,,,,1,,,71,96
165420,note_on,20,0,4,,,,,,,,10,,,31,117
165420,note_on,24,0,6,,,,,,,,0,,,55,108
165445,note_on,25,0,5,,,,,,,,0,,,64,0
165450,note_on,5,0,5,,,,,,,,0,,,66,102
165451,note_on,31,0,6,,,,,,,,0,,,55,0
165460,note_on,40,0,1,,,,,,,,1,,,71,0
165467,note_on,47,0,4,,,,,,,,10,,,31,0
165472,note_on,232,0,3,,,,,,,,1,,,66,0
165474,note_on,24,0,5,,,,,,,,0,,,66,0
165480,note_on,29,0,6,,,,,,,,0,,,45,96
165480,note_on,8,0,3,,,,,,,,1,,,64,86
165480,note_on,20,0,1,,,,,,,,1,,,73,111
165480,note_on,13,0,4,,,,,,,,10,,,33,84
165480,note_on,6,0,5,,,,,,,,0,,,67,127
165480,note_on,240,0,2,,,,,,,,1,,,67,74
165481,note_on,1,0,2,,,,,,,,1,,,69,0
165499,note_on,19,0,5,,,,,,,,0,,,67,0
165510,note_on,11,0,5,,,,,,,,0,,,69,85
165512,note_on,32,0,1,,,,,,,,1,,,73,0
165516,note_on,36,0,4,,,,,,,,10,,,33,0
165538,note_on,28,0,5,,,,,,,,0,,,69,0
165539,note_on,59,0,6,,,,,,,,0,,,45,0
165540,note_on,28,0,1,,,,,,,,1,,,73,96
165540,note_on,1,0,6,,,,,,,,0,,,57,74
165540,note_on,2,0,5,,,,,,,,0,,,71,85
165540,note_on,24,0,4,,,,,,,,10,,,33,105
165543,control_change,3,0,4,,,,,,,,10,7,97,,
165570,note_on,30,0,5,,,,,,,,0,,,73,127
165571,note_on,1,0,5,,,,,,,,0,,,71,0
165576,note_on,95,0,2,,,,,,,,1,,,67,0
165576,note_on,96,0,3,,,,,,,,1,,,64,0
165576,note_on,36,0,6,,,,,,,,0,,,57,0
165577,note_on,37,0,1,,,,,,,,1,,,73,0
165581,note_on,38,0,4,,,,,,,,10,,,33,0
165589,note_on,18,0,5,,,,,,,,0,,,73,0
165600,note_on,24,0,3,,,,,,,,1,,,62,111
165600,note_on,11,0,5,,,,,,,,0,,,74,106
165600,note_on,19,0,4,,,,,,,,10,,,35,84
165600,note_on,24,0,2,,,,,,,,1,,,66,96
165600,note_on,24,0,6,,,,,,,,0,,,47,117
165600,note_on,23,0,1,,,,,,,,1,,,74,123
165634,note_on,34,0,4,,,,,,,,10,,,35,0
165640,note_on,40,0,3,,,,,,,,1,,,62,0
165641,note_on,41,0,1,,,,,,,,1,,,74,0
165653,note_on,53,0,5,,,,,,,,0,,,74,0
165655,note_on,55,0,6,,,,,,,,0,,,47,0
165660,note_on,5,0,6,,,,,,,,0,,,59,84
165660,note_on,19,0,1,,,,,,,,1,,,76,111
165660,note_on,26,0,4,,,,,,,,10,,,35,77
165660,note_on,7,0,5,,,,,,,,0,,,76,110
165660,note_on,20,0,3,,,,,,,,1,,,62,79
165665,note_on,65,0,2,,,,,,,,1,,,66,0
165690,note_on,30,0,6,,,,,,,,0,,,59,0
165697,note_on,37,0,1,,,,,,,,1,,,76,0
165703,note_on,43,0,4,,,,,,,,10,,,35,0
165705,note_on,45,0,5,,,,,,,,0,,,76,0
165707,note_on,47,0,3,,,,,,,,1,,,62,0
165720,note_on,30,0,6,,,,,,,,0,,,45,81
165720,note_on,15,0,5,,,,,,,,0,,,78,117
165720,note_on,23,0,1,,,,,,,,1,,,78,114
165720,note_on,55,0,2,,,,,,,,1,,,69,93
165720,note_on,13,0,3,,,,,,,,1,,,61,81
165720,note_on,17,0,4,,,,,,,,10,,,33,102
165733,control_change,13,0,4,,,,,,,,10,7,98,,
165749,control_change,29,0,1,,,,,,,,1,7,112,,
165754,control_change,21,0,4,,,,,,,,10,7,100,,
165754,note_on,34,0,2,,,,,,,,1,,,69,0
165757,note_on,37,0,3,,,,,,,,1,,,61,0
165758,note_on,4,0,4,,,,,,,,10,,,33,0
165760,note_on,11,0,1,,,,,,,,1,,,78,0
165775,note_on,55,0,5,,,,,,,,0,,,78,0
165776,note_on,56,0,6,,,,,,,,0,,,45,0
165780,note_on,4,0,6,,,,,,,,0,,,57,84
165780,note_on,22,0,4,,,,,,,,10,,,33,93
165780,note_on,20,0,1,,,,,,,,1,,,74,111
165780,note_on,23,0,3,,,,,,,,1,,,61,105
165780,note_on,5,0,5,,,,,,,,0,,,74,127
165780,note_on,26,0,2,,,,,,,,1,,,69,77
165791,control_change,11,0,1,,,,,,,,1,7,113,,
165795,control_change,15,0,4,,,,,,,,10,7,101,,
165813,note_on,33,0,6,,,,,,,,0,,,57,0
165819,note_on,39,0,5,,,,,,,,0,,,74,0
165821,note_on,30,0,1,,,,,,,,1,,,74,0
165823,note_on,28,0,4,,,,,,,,10,,,33,0
165824,note_on,44,0,3,,,,,,,,1,,,61,0
165825,note_on,45,0,2,,,,,,,,1,,,69,0
165840,note_on,21,0,5,,,,,,,,0,,,79,88
165840,note_on,15,0,2,,,,,,,,1,,,74,102
165840,note_on,27,0,6,,,,,,,,0,,,47,84
165840,note_on,19,0,1,,,,,,,,1,,,79,86
165840,note_on,16,0,3,,,,,,,,1,,,59,89
165840,note_on,17,0,4,,,,,,,,10,,,35,124
165870,note_on,30,0,4,,,,,,,,10,,,35,0
165873,note_on,33,0,2,,,,,,,,1,,,74,0
165877,note_on,37,0,1,,,,,,,,1,,,79,0
165879,note_on,39,0,3,,,,,,,,1,,,59,0
165886,note_on,46,0,5,,,,,,,,0,,,79,0
165899,note_on,59,0,6,,,,,,,,0,,,47,0
165900,note_on,27,0,2,,,,,,,,1,,,74,89
165900,note_on,1,0,6,,,,,,,,0,,,59,79
165900,note_on,23,0,1,,,,,,,,1,,,76,89
165900,note_on,21,0,3,,,,,,,,1,,,59,86
165900,note_on,14,0,5,,,,,,,,0,,,76,102
165900,note_on,30,0,4,,,,,,,,10,,,35,96
165928,note_on,28,0,6,,,,,,,,0,,,59,0
165940,note_on,40,0,4,,,,,,,,10,,,35,0
165940,note_on,40,0,3,,,,,,,,1,,,59,0
165942,note_on,42,0,1,,,,,,,,1,,,76,0
165942,note_on,42,0,2,,,,,,,,1,,,74,0
165945,note_on,45,0,5,,,,,,,,0,,,76,0
165960,note_on,20,0,4,,,,,,,,10,,,37,66
165960,note_on,18,0,1,,,,,,,,1,,,81,120
165960,note_on,32,0,6,,,,,,,,0,,,49,96
165960,note_on,15,0,5,,,,,,,,0,,,81,127
165960,note_on,20,0,3,,,,,,,,1,,,57,108
165960,note_on,18,0,2,,,,,,,,1,,,76,111
165995,note_on,35,0,2,,,,,,,,1,,,76,0
165997,note_on,37,0,3,,,,,,,,1,,,57,0
166000,note_on,40,0,4,,,,,,,,10,,,37,0
166015,note_on,55,0,6,,,,,,,,0,,,49,0
166020,note_on,23,0,3,,,,,,,,1,,,57,86
166020,note_on,20,0,4,,,,,,,,10,,,37,120
166020,note_on,5,0,6,,,,,,,,0,,,61,89
166020,note_on,25,0,2,,,,,,,,1,,,76,86
166033,note_on,73,0,5,,,,,,,,0,,,81,0
166035,control_change,15,0,4,,,,,,,,10,7,103,,
166046,note_on,86,0,1,,,,,,,,1,,,81,0
166055,note_on,35,0,3,,,,,,,,1,,,57,0
166058,note_on,38,0,2,,,,,,,,1,,,76,0
166059,note_on,39,0,6,,,,,,,,0,,,61,0
166068,note_on,33,0,4,,,,,,,,10,,,37,0
166080,note_on,25,0,3,,,,,,,,1,,,57,120
166080,note_on,22,0,2,,,,,,,,1,,,74,84
166080,set_tempo,960,1,0,,,,,,895522,,,,,,
166080,note_on,47,0,5,,,,,,,,0,,,79,117
166080,note_on,34,0,1,,,,,,,,1,,,79,117
166080,note_on,12,0,4,,,,,,,,10,,,38,120
166080,end_of_track,0,1,0,,,,,,,,,,,,
166080,note_on,21,0,6,,,,,,,,0,,,50,117
166095,note_on,15,0,5,,,,,,,,0,,,81,85
166099,note_on,4,0,5,,,,,,,,0,,,79,0
166110,note_on,11,0,5,,,,,,,,0,,,79,90
166113,note_on,3,0,5,,,,,,,,0,,,81,0
166114,note_on,34,0,1,,,,,,,,1,,,79,0
166127,note_on,14,0,5,,,,,,,,0,,,79,0
166136,control_change,22,0,1,,,,,,,,1,7,115,,
166140,note_on,4,0,1,,,,,,,,1,,,78,108
166140,note_on,13,0,5,,,,,,,,0,,,78,117
166148,note_on,68,0,6,,,,,,,,0,,,50,0
166155,note_on,75,0,2,,,,,,,,1,,,74,0
166163,note_on,83,0,3,,,,,,,,1,,,57,0
166165,control_change,85,0,4,,,,,,,,10,7,104,,
166171,note_on,6,0,4,,,,,,,,10,,,38,0
166176,note_on,36,0,1,,,,,,,,1,,,78,0
166182,note_on,42,0,5,,,,,,,,0,,,78,0
166186,note_on,15,0,4,,,,,,,,10,,,35,93
166187,note_on,24,0,3,,,,,,,,1,,,59,89
166200,note_on,52,0,6,,,,,,,,0,,,47,96
166200,note_on,45,0,2,,,,,,,,1,,,66,64
166200,note_on,24,0,1,,,,,,,,1,,,76,89
166200,note_on,18,0,5,,,,,,,,0,,,76,110
166237,note_on,37,0,5,,,,,,,,0,,,76,0
166239,note_on,39,0,1,,,,,,,,1,,,76,0
166260,note_on,21,0,1,,,,,,,,1,,,74,120
166260,note_on,23,0,5,,,,,,,,0,,,74,127
166266,control_change,80,0,4,,,,,,,,10,7,106,,
166267,note_on,67,0,6,,,,,,,,0,,,47,0
166281,note_on,94,0,3,,,,,,,,1,,,59,0
166284,note_on,18,0,4,,,,,,,,10,,,35,0
166288,note_on,88,0,2,,,,,,,,1,,,66,0
166296,note_on,36,0,1,,,,,,,,1,,,74,0
166300,note_on,40,0,5,,,,,,,,0,,,74,0
166302,note_on,18,0,4,,,,,,,,10,,,31,96
166311,note_on,30,0,3,,,,,,,,1,,,59,74
166320,note_on,32,0,2,,,,,,,,1,,,71,89
166320,note_on,24,0,1,,,,,,,,1,,,78,123
166320,note_on,53,0,6,,,,,,,,0,,,43,96
166320,note_on,20,0,5,,,,,,,,0,,,78,113
166329,control_change,27,0,4,,,,,,,,10,7,105,,
166356,note_on,36,0,1,,,,,,,,1,,,78,0
166368,note_on,48,0,5,,,,,,,,0,,,78,0
166373,control_change,44,0,4,,,,,,,,10,7,103,,
166380,note_on,12,0,5,,,,,,,,0,,,76,110
166380,note_on,24,0,1,,,,,,,,1,,,76,89
166389,note_on,69,0,6,,,,,,,,0,,,43,0
166404,note_on,84,0,2,,,,,,,,1,,,71,0
166422,note_on,49,0,4,,,,,,,,10,,,31,0
166422,note_on,42,0,1,,,,,,,,1,,,76,0
166426,note_on,4,0,4,,,,,,,,10,,,33,117
166428,note_on,48,0,5,,,,,,,,0,,,76,0
166431,note_on,120,0,3,,,,,,,,1,,,59,0
166438,note_on,7,0,3,,,,,,,,1,,,64,79
166440,note_on,18,0,1,,,,,,,,1,,,74,111
166440,note_on,51,0,6,,,,,,,,0,,,45,79
166440,note_on,36,0,2,,,,,,,,1,,,69,79
166440,note_on,12,0,5,,,,,,,,0,,,74,127
166466,note_on,26,0,1,,,,,,,,1,,,74,0
166482,note_on,42,0,5,,,,,,,,0,,,74,0
166485,control_change,59,0,4,,,,,,,,10,7,104,,
166499,note_on,59,0,6,,,,,,,,0,,,45,0
166500,note_on,34,0,1,,,,,,,,1,,,73,108
166500,note_on,18,0,5,,,,,,,,0,,,73,120
166509,control_change,24,0,4,,,,,,,,10,7,106,,
166516,note_on,7,0,4,,,,,,,,10,,,33,0
166521,note_on,83,0,3,,,,,,,,1,,,64,0
166525,note_on,85,0,2,,,,,,,,1,,,69,0
166527,control_change,11,0,4,,,,,,,,10,7,107,,
166534,note_on,34,0,1,,,,,,,,1,,,73,0
166536,note_on,36,0,5,,,,,,,,0,,,73,0
166545,note_on,18,0,4,,,,,,,,10,,,26,99
166549,note_on,28,0,3,,,,,,,,1,,,66,93
166560,note_on,35,0,2,,,,,,,,1,,,69,81
166560,note_on,61,0,6,,,,,,,,0,,,38,89
166560,note_on,24,0,5,,,,,,,,0,,,74,107
166560,note_on,26,0,1,,,,,,,,1,,,74,96
166590,note_on,30,0,5,,,,,,,,0,,,73,112
166592,note_on,2,0,5,,,,,,,,0,,,74,0
166609,control_change,49,0,1,,,,,,,,1,7,114,,
166620,note_on,28,0,5,,,,,,,,0,,,74,90
166622,note_on,2,0,5,,,,,,,,0,,,73,0
166668,note_on,108,0,6,,,,,,,,0,,,38,0
166668,end_of_track,0,1,6,,,,,,,,,,,,
166770,note_on,225,0,4,,,,,,,,10,,,26,0
166770,end_of_track,0,1,4,,,,,,,,,,,,
166774,note_on,225,0,3,,,,,,,,1,,,66,0
166774,end_of_track,0,1,3,,,,,,,,,,,,
166785,end_of_track,0,1,2,,,,,,,,,,,,
166785,note_on,225,0,2,,,,,,,,1,,,69,0
166799,end_of_track,0,1,1,,,,,,,,,,,,
166799,note_on,190,0,1,,,,,,,,1,,,74,0
166800,end_of_track,0,1,5,,,,,,,,,,,,
166800,note_on,178,0,5,,,,,,,,0,,,74,0
