tick,type,time,meta,track,numerator,denominator,clocks_per_click,notated_32nd_notes_per_beat,key,tempo,program,channel,control,value,note,velocity
0,track_name,0,1,0,,,,,,,,,,,,
0,note_on,0,0,2,,,,,,,,2,,,57,127
0,control_change,0,0,2,,,,,,,,2,10,95,,
0,control_change,0,0,2,,,,,,,,2,7,96,,
0,program_change,0,0,2,,,,,,,0,2,,,,
0,track_name,0,1,2,,,,,,,,,,,,
0,note_on,0,0,1,,,,,,,,0,,,69,127
0,control_change,0,0,1,,,,,,,,0,10,30,,
0,control_change,0,0,1,,,,,,,,0,7,105,,
0,program_change,0,0,1,,,,,,,0,0,,,,
0,track_name,0,1,1,,,,,,,,,,,,
0,end_of_track,0,1,3,,,,,,,,,,,,
0,marker,0,1,0,,,,,,,,,,,,
0,marker,0,1,0,,,,,,,,,,,,
0,set_tempo,0,1,0,,,,,,750000,,,,,,
0,key_signature,0,1,0,,,,,A,,,,,,,
0,time_signature,0,1,0,12,8,12,8,,,,,,,,
15,note_on,0,0,1,,,,,,,,0,,,68,127
15,note_on,15,0,1,,,,,,,,0,,,69,0
20,control_change,5,0,1,,,,,,,,0,7,110,,
25,set_tempo,25,1,0,,,,,,736196,,,,,,
30,note_on,0,0,2,,,,,,,,2,,,59,127
30,note_on,0,0,1,,,,,,,,0,,,69,127
30,note_on,10,0,1,,,,,,,,0,,,68,0
30,note_on,30,0,2,,,,,,,,2,,,57,0
50,set_tempo,25,1,0,,,,,,740741,,,,,,
55,set_tempo,5,1,0,,,,,,745342,,,,,,
60,note_on,30,0,2,,,,,,,,2,,,59,0
60,note_on,0,0,2,,,,,,,,2,,,61,127
80,control_change,50,0,1,,,,,,,,0,7,111,,
90,note_on,0,0,2,,,,,,,,2,,,59,127
90,note_on,30,0,2,,,,,,,,2,,,61,0
120,note_on,0,0,2,,,,,,,,2,,,57,127
120,note_on,30,0,2,,,,,,,,2,,,59,0
120,note_on,40,0,1,,,,,,,,0,,,69,0
120,note_on,0,0,1,,,,,,,,0,,,69,127
125,set_tempo,70,1,0,,,,,,740741,,,,,,
150,note_on,30,0,2,,,,,,,,2,,,57,0
150,note_on,0,0,2,,,,,,,,2,,,56,127
150,note_on,30,0,1,,,,,,,,0,,,69,0
180,note_on,30,0,2,,,,,,,,2,,,56,0
180,note_on,30,0,1,,,,,,,,0,,,69,127
180,note_on,0,0,2,,,,,,,,2,,,54,127
195,note_on,0,0,1,,,,,,,,0,,,68,127
195,note_on,15,0,1,,,,,,,,0,,,69,0
210,note_on,0,0,1,,,,,,,,0,,,69,127
210,note_on,15,0,1,,,,,,,,0,,,68,0
210,note_on,0,0,2,,,,,,,,2,,,56,127
210,note_on,30,0,2,,,,,,,,2,,,54,0
240,note_on,0,0,2,,,,,,,,2,,,57,127
240,note_on,30,0,2,,,,,,,,2,,,56,0
270,note_on,30,0,2,,,,,,,,2,,,57,0
270,note_on,0,0,2,,,,,,,,2,,,56,127
300,note_on,30,0,2,,,,,,,,2,,,56,0
300,note_on,0,0,2,,,,,,,,2,,,54,127
300,note_on,90,0,1,,,,,,,,0,,,69,0
300,note_on,0,0,1,,,,,,,,0,,,69,127
330,note_on,0,0,2,,,,,,,,2,,,52,127
330,note_on,30,0,1,,,,,,,,0,,,69,0
330,note_on,30,0,2,,,,,,,,2,,,54,0
360,note_on,0,0,2,,,,,,,,2,,,50,127
360,note_on,30,0,1,,,,,,,,0,,,71,127
360,note_on,30,0,2,,,,,,,,2,,,52,0
375,note_on,15,0,1,,,,,,,,0,,,71,0
375,note_on,0,0,1,,,,,,,,0,,,69,127
390,note_on,0,0,1,,,,,,,,0,,,71,127
390,note_on,30,0,2,,,,,,,,2,,,50,0
390,note_on,0,0,2,,,,,,,,2,,,54,127
390,note_on,15,0,1,,,,,,,,0,,,69,0
420,note_on,30,0,2,,,,,,,,2,,,54,0
420,note_on,0,0,2,,,,,,,,2,,,57,127
450,note_on,30,0,2,,,,,,,,2,,,57,0
450,note_on,0,0,2,,,,,,,,2,,,54,127
480,note_on,30,0,2,,,,,,,,2,,,54,0
480,note_on,0,0,2,,,,,,,,2,,,50,127
510,note_on,30,0,2,,,,,,,,2,,,50,0
510,note_on,0,0,2,,,,,,,,2,,,54,127
540,note_on,30,0,2,,,,,,,,2,,,54,0
540,note_on,0,0,2,,,,,,,,2,,,47,127
570,note_on,30,0,2,,,,,,,,2,,,47,0
570,note_on,0,0,2,,,,,,,,2,,,50,127
600,note_on,30,0,2,,,,,,,,2,,,50,0
600,note_on,0,0,2,,,,,,,,2,,,54,127
630,note_on,0,0,2,,,,,,,,2,,,50,127
630,note_on,30,0,2,,,,,,,,2,,,54,0
660,note_on,0,0,2,,,,,,,,2,,,47,127
660,note_on,30,0,2,,,,,,,,2,,,50,0
690,note_on,0,0,2,,,,,,,,2,,,50,127
690,note_on,30,0,2,,,,,,,,2,,,47,0
720,note_on,30,0,2,,,,,,,,2,,,50,0
720,note_on,0,0,2,,,,,,,,2,,,44,127
750,note_on,0,0,1,,,,,,,,0,,,69,127
750,note_on,360,0,1,,,,,,,,0,,,71,0
780,note_on,60,0,2,,,,,,,,2,,,44,0
780,note_on,0,0,2,,,,,,,,2,,,47,127
780,note_on,30,0,1,,,,,,,,0,,,69,0
780,note_on,0,0,1,,,,,,,,0,,,68,127
810,note_on,30,0,2,,,,,,,,2,,,47,0
810,note_on,0,0,1,,,,,,,,0,,,69,127
810,note_on,30,0,1,,,,,,,,0,,,68,0
840,note_on,0,0,1,,,,,,,,0,,,71,127
840,note_on,30,0,1,,,,,,,,0,,,69,0
840,note_on,30,0,2,,,,,,,,2,,,44,127
870,note_on,30,0,1,,,,,,,,0,,,71,0
870,note_on,30,0,2,,,,,,,,2,,,44,0
870,note_on,0,0,1,,,,,,,,0,,,73,127
900,note_on,30,0,1,,,,,,,,0,,,73,0
900,note_on,0,0,1,,,,,,,,0,,,74,127
900,note_on,30,0,2,,,,,,,,2,,,40,127
930,note_on,0,0,1,,,,,,,,0,,,73,127
930,note_on,30,0,1,,,,,,,,0,,,74,0
930,note_on,30,0,2,,,,,,,,2,,,40,0
960,note_on,0,0,1,,,,,,,,0,,,74,127
960,note_on,30,0,1,,,,,,,,0,,,73,0
960,note_on,30,0,2,,,,,,,,2,,,42,127
990,note_on,30,0,2,,,,,,,,2,,,42,0
990,note_on,30,0,1,,,,,,,,0,,,74,0
990,note_on,0,0,1,,,,,,,,0,,,78,127
1020,note_on,0,0,1,,,,,,,,0,,,76,127
1020,note_on,30,0,2,,,,,,,,2,,,44,127
1020,note_on,30,0,1,,,,,,,,0,,,78,0
1050,note_on,30,0,2,,,,,,,,2,,,44,0
1050,note_on,0,0,1,,,,,,,,0,,,74,127
1050,note_on,30,0,1,,,,,,,,0,,,76,0
1080,note_on,30,0,1,,,,,,,,0,,,74,0
1080,note_on,0,0,1,,,,,,,,0,,,73,127
1080,note_on,30,0,2,,,,,,,,2,,,45,127
1110,note_on,30,0,1,,,,,,,,0,,,73,0
1110,note_on,0,0,1,,,,,,,,0,,,69,127
1140,note_on,0,0,1,,,,,,,,0,,,73,127
1140,note_on,30,0,1,,,,,,,,0,,,69,0
1170,note_on,0,0,1,,,,,,,,0,,,76,127
1170,note_on,30,0,1,,,,,,,,0,,,73,0
1200,note_on,120,0,2,,,,,,,,2,,,45,0
1200,note_on,0,0,1,,,,,,,,0,,,81,127
1200,note_on,30,0,1,,,,,,,,0,,,76,0
1230,note_on,30,0,1,,,,,,,,0,,,81,0
1230,note_on,0,0,1,,,,,,,,0,,,78,127
1260,note_on,0,0,1,,,,,,,,0,,,75,127
1260,note_on,30,0,1,,,,,,,,0,,,78,0
1290,note_on,0,0,1,,,,,,,,0,,,71,127
1290,note_on,30,0,1,,,,,,,,0,,,75,0
1320,note_on,0,0,1,,,,,,,,0,,,75,127
1320,note_on,30,0,1,,,,,,,,0,,,71,0
1350,note_on,0,0,1,,,,,,,,0,,,78,127
1350,note_on,30,0,1,,,,,,,,0,,,75,0
1380,note_on,0,0,1,,,,,,,,0,,,81,127
1380,note_on,30,0,1,,,,,,,,0,,,78,0
1410,note_on,0,0,1,,,,,,,,0,,,78,127
1410,note_on,30,0,1,,,,,,,,0,,,81,0
1440,note_on,0,0,1,,,,,,,,0,,,80,127
1440,note_on,30,0,1,,,,,,,,0,,,78,0
1440,note_on,240,0,2,,,,,,,,2,,,52,127
1455,note_on,15,0,2,,,,,,,,2,,,52,0
1455,note_on,0,0,2,,,,,,,,2,,,51,127
1470,note_on,30,0,1,,,,,,,,0,,,80,0
1470,note_on,0,0,1,,,,,,,,0,,,81,127
1470,note_on,0,0,2,,,,,,,,2,,,52,127
1470,note_on,15,0,2,,,,,,,,2,,,51,0
1500,note_on,0,0,1,,,,,,,,0,,,80,127
1500,note_on,30,0,1,,,,,,,,0,,,81,0
1530,note_on,0,0,1,,,,,,,,0,,,78,127
1530,note_on,30,0,1,,,,,,,,0,,,80,0
1560,note_on,0,0,2,,,,,,,,2,,,52,127
1560,note_on,0,0,1,,,,,,,,0,,,76,127
1560,note_on,30,0,1,,,,,,,,0,,,78,0
1560,note_on,90,0,2,,,,,,,,2,,,52,0
1590,note_on,30,0,2,,,,,,,,2,,,52,0
1590,note_on,30,0,1,,,,,,,,0,,,76,0
1590,note_on,0,0,1,,,,,,,,0,,,75,127
1620,note_on,0,0,1,,,,,,,,0,,,73,127
1620,note_on,30,0,1,,,,,,,,0,,,75,0
1620,note_on,30,0,2,,,,,,,,2,,,52,127
1635,note_on,0,0,2,,,,,,,,2,,,51,127
1635,note_on,15,0,2,,,,,,,,2,,,52,0
1650,note_on,0,0,2,,,,,,,,2,,,52,127
1650,note_on,0,0,1,,,,,,,,0,,,75,127
1650,note_on,30,0,1,,,,,,,,0,,,73,0
1650,note_on,15,0,2,,,,,,,,2,,,51,0
1680,note_on,30,0,1,,,,,,,,0,,,75,0
1680,note_on,0,0,1,,,,,,,,0,,,76,127
1710,note_on,0,0,1,,,,,,,,0,,,75,127
1710,note_on,30,0,1,,,,,,,,0,,,76,0
1740,note_on,0,0,2,,,,,,,,2,,,52,127
1740,note_on,90,0,2,,,,,,,,2,,,52,0
1740,note_on,30,0,1,,,,,,,,0,,,75,0
1740,note_on,0,0,1,,,,,,,,0,,,73,127
1770,note_on,0,0,1,,,,,,,,0,,,71,127
1770,note_on,30,0,2,,,,,,,,2,,,52,0
1770,note_on,30,0,1,,,,,,,,0,,,73,0
1800,note_on,30,0,1,,,,,,,,0,,,71,0
1800,note_on,30,0,2,,,,,,,,2,,,54,127
1800,note_on,0,0,1,,,,,,,,0,,,69,127
1815,note_on,0,0,2,,,,,,,,2,,,53,127
1815,note_on,15,0,2,,,,,,,,2,,,54,0
1830,note_on,0,0,2,,,,,,,,2,,,54,127
1830,note_on,30,0,1,,,,,,,,0,,,69,0
1830,note_on,0,0,1,,,,,,,,0,,,73,127
1830,note_on,15,0,2,,,,,,,,2,,,53,0
1860,note_on,30,0,1,,,,,,,,0,,,73,0
1860,note_on,0,0,1,,,,,,,,0,,,76,127
1890,note_on,30,0,1,,,,,,,,0,,,76,0
1890,note_on,0,0,1,,,,,,,,0,,,73,127
1920,note_on,30,0,1,,,,,,,,0,,,73,0
1920,note_on,0,0,1,,,,,,,,0,,,69,127
1950,note_on,0,0,1,,,,,,,,0,,,73,127
1950,note_on,30,0,1,,,,,,,,0,,,69,0
1980,note_on,30,0,1,,,,,,,,0,,,73,0
1980,note_on,0,0,1,,,,,,,,0,,,66,127
2010,note_on,30,0,1,,,,,,,,0,,,66,0
2010,note_on,0,0,1,,,,,,,,0,,,69,127
2040,note_on,30,0,1,,,,,,,,0,,,69,0
2040,note_on,0,0,1,,,,,,,,0,,,73,127
2070,note_on,0,0,1,,,,,,,,0,,,69,127
2070,note_on,30,0,1,,,,,,,,0,,,73,0
2100,note_on,0,0,1,,,,,,,,0,,,66,127
2100,note_on,30,0,1,,,,,,,,0,,,69,0
2130,note_on,30,0,1,,,,,,,,0,,,66,0
2130,note_on,0,0,1,,,,,,,,0,,,69,127
2160,note_on,0,0,2,,,,,,,,2,,,54,127
2160,note_on,330,0,2,,,,,,,,2,,,54,0
2160,note_on,0,0,1,,,,,,,,0,,,63,127
2160,note_on,30,0,1,,,,,,,,0,,,69,0
2190,note_on,30,0,1,,,,,,,,0,,,63,0
2190,note_on,30,0,2,,,,,,,,2,,,54,0
2190,note_on,0,0,2,,,,,,,,2,,,52,127
2220,note_on,30,0,1,,,,,,,,0,,,66,127
2220,note_on,30,0,2,,,,,,,,2,,,52,0
2220,note_on,0,0,2,,,,,,,,2,,,51,127
2250,note_on,30,0,1,,,,,,,,0,,,66,0
2250,note_on,0,0,2,,,,,,,,2,,,52,127
2250,note_on,30,0,2,,,,,,,,2,,,51,0
2280,note_on,0,0,2,,,,,,,,2,,,54,127
2280,note_on,30,0,2,,,,,,,,2,,,52,0
2280,note_on,30,0,1,,,,,,,,0,,,63,127
2310,note_on,30,0,2,,,,,,,,2,,,54,0
2310,note_on,30,0,1,,,,,,,,0,,,63,0
2310,note_on,0,0,2,,,,,,,,2,,,56,127
2340,note_on,30,0,2,,,,,,,,2,,,56,0
2340,note_on,30,0,1,,,,,,,,0,,,59,127
2340,note_on,0,0,2,,,,,,,,2,,,57,127
2370,note_on,30,0,2,,,,,,,,2,,,57,0
2370,note_on,0,0,2,,,,,,,,2,,,44,127
2370,note_on,0,0,1,,,,,,,,0,,,63,127
2370,note_on,30,0,1,,,,,,,,0,,,59,0
2400,note_on,30,0,1,,,,,,,,0,,,63,0
2400,note_on,0,0,2,,,,,,,,2,,,45,127
2400,note_on,30,0,2,,,,,,,,2,,,44,0
2400,note_on,0,0,1,,,,,,,,0,,,66,127
2430,note_on,0,0,2,,,,,,,,2,,,49,127
2430,note_on,30,0,2,,,,,,,,2,,,45,0
2430,note_on,30,0,1,,,,,,,,0,,,66,0
2430,note_on,0,0,1,,,,,,,,0,,,69,127
2460,note_on,0,0,1,,,,,,,,0,,,68,127
2460,note_on,30,0,1,,,,,,,,0,,,69,0
2460,note_on,30,0,2,,,,,,,,2,,,49,0
2460,note_on,0,0,2,,,,,,,,2,,,47,127
2490,note_on,0,0,1,,,,,,,,0,,,66,127
2490,note_on,30,0,1,,,,,,,,0,,,68,0
2490,note_on,0,0,2,,,,,,,,2,,,45,127
2490,note_on,30,0,2,,,,,,,,2,,,47,0
2520,note_on,30,0,1,,,,,,,,0,,,66,0
2520,note_on,0,0,1,,,,,,,,0,,,64,127
2520,note_on,0,0,2,,,,,,,,2,,,44,127
2520,note_on,30,0,2,,,,,,,,2,,,45,0
2550,note_on,30,0,1,,,,,,,,0,,,64,0
2550,note_on,0,0,2,,,,,,,,2,,,40,127
2550,note_on,0,0,1,,,,,,,,0,,,68,127
2550,note_on,30,0,2,,,,,,,,2,,,44,0
2580,note_on,30,0,1,,,,,,,,0,,,68,0
2580,note_on,0,0,1,,,,,,,,0,,,71,127
2580,note_on,0,0,2,,,,,,,,2,,,44,127
2580,note_on,30,0,2,,,,,,,,2,,,40,0
2610,note_on,30,0,2,,,,,,,,2,,,44,0
2610,note_on,0,0,2,,,,,,,,2,,,47,127
2610,note_on,0,0,1,,,,,,,,0,,,76,127
2610,note_on,30,0,1,,,,,,,,0,,,71,0
2640,note_on,30,0,1,,,,,,,,0,,,76,0
2640,note_on,30,0,2,,,,,,,,2,,,47,0
2640,note_on,0,0,2,,,,,,,,2,,,52,127
2640,note_on,0,0,1,,,,,,,,0,,,71,127
2670,note_on,0,0,1,,,,,,,,0,,,68,127
2670,note_on,30,0,2,,,,,,,,2,,,52,0
2670,note_on,0,0,2,,,,,,,,2,,,47,127
2670,note_on,30,0,1,,,,,,,,0,,,71,0
2700,note_on,30,0,2,,,,,,,,2,,,47,0
2700,note_on,0,0,2,,,,,,,,2,,,44,127
2700,note_on,0,0,1,,,,,,,,0,,,64,127
2700,note_on,30,0,1,,,,,,,,0,,,68,0
2730,note_on,0,0,2,,,,,,,,2,,,40,127
2730,note_on,30,0,2,,,,,,,,2,,,44,0
2760,note_on,0,0,2,,,,,,,,2,,,44,127
2760,note_on,30,0,2,,,,,,,,2,,,40,0
2790,note_on,30,0,2,,,,,,,,2,,,44,0
2790,note_on,0,0,2,,,,,,,,2,,,47,127
2820,note_on,0,0,2,,,,,,,,2,,,50,127
2820,note_on,120,0,1,,,,,,,,0,,,64,0
2820,note_on,30,0,2,,,,,,,,2,,,47,0
2850,note_on,0,0,2,,,,,,,,2,,,47,127
2850,note_on,30,0,2,,,,,,,,2,,,50,0
2880,note_on,60,0,1,,,,,,,,0,,,76,127
2880,note_on,0,0,2,,,,,,,,2,,,49,127
2880,note_on,30,0,2,,,,,,,,2,,,47,0
2895,note_on,0,0,1,,,,,,,,0,,,74,127
2895,note_on,15,0,1,,,,,,,,0,,,76,0
2910,note_on,0,0,2,,,,,,,,2,,,50,127
2910,note_on,0,0,1,,,,,,,,0,,,76,127
2910,note_on,15,0,1,,,,,,,,0,,,74,0
2910,note_on,30,0,2,,,,,,,,2,,,49,0
2940,note_on,30,0,2,,,,,,,,2,,,50,0
2940,note_on,0,0,2,,,,,,,,2,,,52,127
2970,note_on,30,0,2,,,,,,,,2,,,52,0
2970,note_on,0,0,2,,,,,,,,2,,,50,127
3000,note_on,0,0,2,,,,,,,,2,,,49,127
3000,note_on,30,0,2,,,,,,,,2,,,50,0
3000,note_on,0,0,1,,,,,,,,0,,,76,127
3000,note_on,90,0,1,,,,,,,,0,,,76,0
3030,note_on,0,0,2,,,,,,,,2,,,47,127
3030,note_on,30,0,2,,,,,,,,2,,,49,0
3030,note_on,30,0,1,,,,,,,,0,,,76,0
3060,note_on,30,0,1,,,,,,,,0,,,76,127
3060,note_on,30,0,2,,,,,,,,2,,,47,0
3060,note_on,0,0,2,,,,,,,,2,,,45,127
3075,note_on,15,0,1,,,,,,,,0,,,76,0
3075,note_on,0,0,1,,,,,,,,0,,,74,127
3090,note_on,0,0,2,,,,,,,,2,,,47,127
3090,note_on,15,0,1,,,,,,,,0,,,74,0
3090,note_on,0,0,1,,,,,,,,0,,,76,127
3090,note_on,30,0,2,,,,,,,,2,,,45,0
3120,note_on,0,0,2,,,,,,,,2,,,49,127
3120,note_on,30,0,2,,,,,,,,2,,,47,0
3150,note_on,30,0,2,,,,,,,,2,,,49,0
3150,note_on,0,0,2,,,,,,,,2,,,47,127
3180,note_on,90,0,1,,,,,,,,0,,,76,0
3180,note_on,0,0,2,,,,,,,,2,,,45,127
3180,note_on,0,0,1,,,,,,,,0,,,76,127
3180,note_on,30,0,2,,,,,,,,2,,,47,0
3210,note_on,30,0,2,,,,,,,,2,,,45,0
3210,note_on,0,0,2,,,,,,,,2,,,44,127
3210,note_on,30,0,1,,,,,,,,0,,,76,0
3240,note_on,30,0,1,,,,,,,,0,,,76,127
3240,note_on,0,0,2,,,,,,,,2,,,42,127
3240,note_on,30,0,2,,,,,,,,2,,,44,0
3270,note_on,30,0,1,,,,,,,,0,,,76,0
3270,note_on,0,0,1,,,,,,,,0,,,81,127
3270,note_on,30,0,2,,,,,,,,2,,,42,0
3300,note_on,30,0,1,,,,,,,,0,,,81,0
3300,note_on,0,0,1,,,,,,,,0,,,76,127
3300,note_on,30,0,2,,,,,,,,2,,,54,127
3330,note_on,30,0,2,,,,,,,,2,,,54,0
3330,note_on,30,0,1,,,,,,,,0,,,76,0
3330,note_on,0,0,1,,,,,,,,0,,,73,127
3360,note_on,30,0,1,,,,,,,,0,,,73,0
3360,note_on,0,0,1,,,,,,,,0,,,69,127
3360,note_on,30,0,2,,,,,,,,2,,,49,127
3390,note_on,0,0,1,,,,,,,,0,,,73,127
3390,note_on,30,0,1,,,,,,,,0,,,69,0
3390,note_on,30,0,2,,,,,,,,2,,,49,0
3420,note_on,0,0,1,,,,,,,,0,,,76,127
3420,note_on,30,0,1,,,,,,,,0,,,73,0
3420,note_on,30,0,2,,,,,,,,2,,,45,127
3450,note_on,0,0,1,,,,,,,,0,,,81,127
3450,note_on,30,0,1,,,,,,,,0,,,76,0
3450,note_on,30,0,2,,,,,,,,2,,,45,0
3480,note_on,30,0,1,,,,,,,,0,,,81,0
3480,note_on,0,0,1,,,,,,,,0,,,76,127
3480,note_on,30,0,2,,,,,,,,2,,,42,127
3510,note_on,30,0,1,,,,,,,,0,,,76,0
3510,note_on,30,0,2,,,,,,,,2,,,42,0
3510,note_on,0,0,1,,,,,,,,0,,,73,127
3540,note_on,30,0,2,,,,,,,,2,,,45,127
3540,note_on,0,0,1,,,,,,,,0,,,69,127
3540,note_on,30,0,1,,,,,,,,0,,,73,0
3570,note_on,0,0,1,,,,,,,,0,,,73,127
3570,note_on,30,0,1,,,,,,,,0,,,69,0
3570,note_on,30,0,2,,,,,,,,2,,,45,0
3590,control_change,20,0,1,,,,,,,,0,7,108,,
3600,note_on,10,0,1,,,,,,,,0,,,73,0
3600,note_on,30,0,2,,,,,,,,2,,,47,127
3600,note_on,0,0,1,,,,,,,,0,,,74,127
3610,control_change,10,0,1,,,,,,,,0,7,107,,
3615,note_on,5,0,1,,,,,,,,0,,,74,0
3615,note_on,0,0,1,,,,,,,,0,,,73,127
3620,control_change,5,0,1,,,,,,,,0,7,105,,
3630,note_on,10,0,1,,,,,,,,0,,,73,0
3630,note_on,0,0,1,,,,,,,,0,,,74,127
3630,note_on,30,0,2,,,,,,,,2,,,47,0
3630,note_on,0,0,2,,,,,,,,2,,,49,127
3650,control_change,20,0,1,,,,,,,,0,7,104,,
3660,note_on,30,0,2,,,,,,,,2,,,49,0
3660,note_on,0,0,2,,,,,,,,2,,,50,127
3670,control_change,20,0,1,,,,,,,,0,7,103,,
3680,control_change,10,0,1,,,,,,,,0,7,102,,
3690,note_on,0,0,2,,,,,,,,2,,,49,127
3690,note_on,30,0,2,,,,,,,,2,,,50,0
3700,control_change,20,0,1,,,,,,,,0,7,101,,
3710,control_change,10,0,1,,,,,,,,0,7,100,,
3720,note_on,0,0,2,,,,,,,,2,,,47,127
3720,note_on,10,0,1,,,,,,,,0,,,74,0
3720,note_on,30,0,2,,,,,,,,2,,,49,0
3720,note_on,0,0,1,,,,,,,,0,,,74,127
3750,control_change,0,0,1,,,,,,,,0,7,99,,
3750,note_on,30,0,1,,,,,,,,0,,,74,0
3750,note_on,30,0,2,,,,,,,,2,,,47,0
3750,note_on,0,0,2,,,,,,,,2,,,45,127
3760,control_change,10,0,1,,,,,,,,0,7,98,,
3780,note_on,20,0,1,,,,,,,,0,,,74,127
3780,note_on,30,0,2,,,,,,,,2,,,45,0
3780,note_on,0,0,2,,,,,,,,2,,,44,127
3780,control_change,0,0,1,,,,,,,,0,7,97,,
3790,control_change,10,0,1,,,,,,,,0,7,96,,
3795,note_on,5,0,1,,,,,,,,0,,,74,0
3795,note_on,0,0,1,,,,,,,,0,,,73,127
3810,note_on,0,0,1,,,,,,,,0,,,74,127
3810,control_change,0,0,1,,,,,,,,0,7,95,,
3810,note_on,30,0,2,,,,,,,,2,,,44,0
3810,note_on,15,0,1,,,,,,,,0,,,73,0
3810,note_on,0,0,2,,,,,,,,2,,,45,127
3840,note_on,30,0,2,,,,,,,,2,,,45,0
3840,note_on,0,0,2,,,,,,,,2,,,47,127
3850,control_change,40,0,1,,,,,,,,0,7,94,,
3860,control_change,10,0,1,,,,,,,,0,7,92,,
3870,note_on,30,0,2,,,,,,,,2,,,47,0
3870,note_on,0,0,2,,,,,,,,2,,,45,127
3880,control_change,20,0,1,,,,,,,,0,7,91,,
3890,control_change,10,0,1,,,,,,,,0,7,90,,
3900,control_change,0,0,1,,,,,,,,0,7,89,,
3900,note_on,0,0,1,,,,,,,,0,,,74,127
3900,note_on,10,0,1,,,,,,,,0,,,74,0
3900,note_on,30,0,2,,,,,,,,2,,,45,0
3900,note_on,0,0,2,,,,,,,,2,,,44,127
3910,control_change,10,0,1,,,,,,,,0,7,88,,
3930,control_change,0,0,1,,,,,,,,0,7,87,,
3930,note_on,0,0,2,,,,,,,,2,,,42,127
3930,note_on,30,0,2,,,,,,,,2,,,44,0
3930,note_on,20,0,1,,,,,,,,0,,,74,0
3950,control_change,20,0,1,,,,,,,,0,7,86,,
3960,note_on,10,0,1,,,,,,,,0,,,74,127
3960,note_on,0,0,2,,,,,,,,2,,,40,127
3960,note_on,30,0,2,,,,,,,,2,,,42,0
3960,control_change,0,0,1,,,,,,,,0,7,85,,
3980,control_change,20,0,1,,,,,,,,0,7,84,,
3990,note_on,30,0,2,,,,,,,,2,,,40,0
3990,control_change,0,0,1,,,,,,,,0,7,83,,
3990,note_on,10,0,1,,,,,,,,0,,,74,0
3990,note_on,0,0,1,,,,,,,,0,,,83,127
4000,control_change,10,0,1,,,,,,,,0,7,82,,
4010,control_change,10,0,1,,,,,,,,0,7,81,,
4020,note_on,10,0,1,,,,,,,,0,,,83,0
4020,note_on,0,0,1,,,,,,,,0,,,80,127
4020,note_on,30,0,2,,,,,,,,2,,,47,127
4030,control_change,10,0,1,,,,,,,,0,7,80,,
4040,control_change,10,0,1,,,,,,,,0,7,79,,
4050,note_on,30,0,2,,,,,,,,2,,,47,0
4050,note_on,10,0,1,,,,,,,,0,,,80,0
4050,note_on,0,0,1,,,,,,,,0,,,74,127
4050,control_change,0,0,1,,,,,,,,0,7,78,,
4080,note_on,30,0,1,,,,,,,,0,,,74,0
4080,note_on,0,0,1,,,,,,,,0,,,71,127
4080,control_change,0,0,1,,,,,,,,0,7,77,,
4080,note_on,30,0,2,,,,,,,,2,,,44,127
4090,control_change,10,0,1,,,,,,,,0,7,76,,
4110,note_on,0,0,1,,,,,,,,0,,,74,127
4110,note_on,30,0,2,,,,,,,,2,,,44,0
4110,note_on,20,0,1,,,,,,,,0,,,71,0
4110,control_change,0,0,1,,,,,,,,0,7,75,,
4130,control_change,20,0,1,,,,,,,,0,7,74,,
4140,note_on,10,0,1,,,,,,,,0,,,74,0
4140,note_on,0,0,1,,,,,,,,0,,,80,127
4140,control_change,0,0,1,,,,,,,,0,7,73,,
4140,note_on,30,0,2,,,,,,,,2,,,40,127
4170,note_on,30,0,1,,,,,,,,0,,,80,0
4170,note_on,0,0,1,,,,,,,,0,,,83,127
4170,control_change,0,0,1,,,,,,,,0,7,72,,
4180,control_change,10,0,1,,,,,,,,0,7,71,,
4200,note_on,20,0,1,,,,,,,,0,,,83,0
4200,note_on,0,0,1,,,,,,,,0,,,80,127
4230,note_on,30,0,1,,,,,,,,0,,,80,0
4230,note_on,0,0,1,,,,,,,,0,,,74,127
4260,note_on,0,0,1,,,,,,,,0,,,71,127
4260,note_on,30,0,1,,,,,,,,0,,,74,0
4260,note_on,120,0,2,,,,,,,,2,,,40,0
4280,control_change,20,0,1,,,,,,,,0,7,70,,
4290,note_on,10,0,1,,,,,,,,0,,,71,0
4290,note_on,0,0,1,,,,,,,,0,,,74,127
4320,note_on,30,0,1,,,,,,,,0,,,74,0
4320,note_on,0,0,1,,,,,,,,0,,,73,127
4350,note_on,30,0,1,,,,,,,,0,,,73,0
4350,note_on,90,0,2,,,,,,,,2,,,45,127
4380,note_on,0,0,2,,,,,,,,2,,,49,127
4380,note_on,30,0,2,,,,,,,,2,,,45,0
4410,note_on,0,0,2,,,,,,,,2,,,52,127
4410,note_on,30,0,2,,,,,,,,2,,,49,0
4440,note_on,30,0,2,,,,,,,,2,,,52,0
4440,note_on,0,0,2,,,,,,,,2,,,57,127
4470,note_on,0,0,2,,,,,,,,2,,,56,127
4470,note_on,30,0,2,,,,,,,,2,,,57,0
4500,note_on,30,0,2,,,,,,,,2,,,56,0
4500,note_on,0,0,2,,,,,,,,2,,,54,127
4530,note_on,180,0,1,,,,,,,,0,,,62,127
4560,note_on,0,0,1,,,,,,,,0,,,66,127
4560,note_on,30,0,1,,,,,,,,0,,,62,0
4560,note_on,60,0,2,,,,,,,,2,,,54,0
4590,note_on,0,0,1,,,,,,,,0,,,69,127
4590,note_on,30,0,1,,,,,,,,0,,,66,0
4620,note_on,0,0,1,,,,,,,,0,,,74,127
4620,note_on,30,0,1,,,,,,,,0,,,69,0
4650,note_on,0,0,1,,,,,,,,0,,,73,127
4650,note_on,30,0,1,,,,,,,,0,,,74,0
4680,note_on,30,0,1,,,,,,,,0,,,73,0
4680,note_on,0,0,1,,,,,,,,0,,,71,127
4710,note_on,150,0,2,,,,,,,,2,,,44,127
4740,note_on,0,0,2,,,,,,,,2,,,47,127
4740,note_on,60,0,1,,,,,,,,0,,,71,0
4740,note_on,30,0,2,,,,,,,,2,,,44,0
4770,note_on,30,0,2,,,,,,,,2,,,47,0
4770,note_on,0,0,2,,,,,,,,2,,,51,127
4800,note_on,0,0,2,,,,,,,,2,,,56,127
4800,note_on,30,0,2,,,,,,,,2,,,51,0
4830,note_on,30,0,2,,,,,,,,2,,,56,0
4830,note_on,0,0,2,,,,,,,,2,,,54,127
4860,note_on,30,0,2,,,,,,,,2,,,54,0
4860,note_on,0,0,2,,,,,,,,2,,,53,127
4890,note_on,150,0,1,,,,,,,,0,,,61,127
4920,note_on,0,0,1,,,,,,,,0,,,65,127
4920,note_on,60,0,2,,,,,,,,2,,,53,0
4920,note_on,30,0,1,,,,,,,,0,,,61,0
4950,note_on,0,0,1,,,,,,,,0,,,68,127
4950,note_on,30,0,1,,,,,,,,0,,,65,0
4980,note_on,0,0,1,,,,,,,,0,,,73,127
4980,note_on,30,0,1,,,,,,,,0,,,68,0
5010,note_on,0,0,1,,,,,,,,0,,,71,127
5010,note_on,30,0,1,,,,,,,,0,,,73,0
5040,note_on,0,0,1,,,,,,,,0,,,69,127
5040,note_on,30,0,1,,,,,,,,0,,,71,0
5070,note_on,150,0,2,,,,,,,,2,,,42,127
5100,note_on,0,0,2,,,,,,,,2,,,45,127
5100,note_on,60,0,1,,,,,,,,0,,,69,0
5100,note_on,30,0,2,,,,,,,,2,,,42,0
5130,note_on,30,0,2,,,,,,,,2,,,45,0
5130,note_on,0,0,2,,,,,,,,2,,,49,127
5160,note_on,0,0,2,,,,,,,,2,,,54,127
5160,note_on,30,0,2,,,,,,,,2,,,49,0
5190,note_on,0,0,2,,,,,,,,2,,,52,127
5190,note_on,30,0,2,,,,,,,,2,,,54,0
5220,note_on,0,0,2,,,,,,,,2,,,50,127
5220,note_on,30,0,2,,,,,,,,2,,,52,0
5250,note_on,150,0,1,,,,,,,,0,,,59,127
5280,note_on,60,0,2,,,,,,,,2,,,50,0
5280,note_on,30,0,1,,,,,,,,0,,,59,0
5280,note_on,0,0,1,,,,,,,,0,,,62,127
5310,note_on,30,0,1,,,,,,,,0,,,62,0
5310,note_on,0,0,1,,,,,,,,0,,,66,127
5340,note_on,30,0,1,,,,,,,,0,,,66,0
5340,note_on,0,0,1,,,,,,,,0,,,71,127
5340,control_change,0,0,1,,,,,,,,0,7,64,,
5360,control_change,20,0,1,,,,,,,,0,7,66,,
5370,note_on,10,0,1,,,,,,,,0,,,71,0
5370,note_on,0,0,1,,,,,,,,0,,,69,127
5380,control_change,10,0,1,,,,,,,,0,7,67,,
5390,control_change,10,0,1,,,,,,,,0,7,68,,
5400,note_on,10,0,1,,,,,,,,0,,,69,0
5400,note_on,0,0,1,,,,,,,,0,,,68,127
5400,control_change,0,0,1,,,,,,,,0,7,69,,
5420,control_change,20,0,1,,,,,,,,0,7,71,,
5430,note_on,0,0,1,,,,,,,,0,,,66,127
5430,note_on,10,0,1,,,,,,,,0,,,68,0
5430,note_on,150,0,2,,,,,,,,2,,,47,127
5440,control_change,10,0,1,,,,,,,,0,7,72,,
5450,control_change,10,0,1,,,,,,,,0,7,73,,
5460,note_on,10,0,1,,,,,,,,0,,,66,0
5460,note_on,0,0,2,,,,,,,,2,,,50,127
5460,note_on,0,0,1,,,,,,,,0,,,71,127
5460,note_on,30,0,2,,,,,,,,2,,,47,0
5470,control_change,10,0,1,,,,,,,,0,7,75,,
5480,control_change,10,0,1,,,,,,,,0,7,76,,
5490,note_on,10,0,1,,,,,,,,0,,,71,0
5490,note_on,0,0,1,,,,,,,,0,,,69,127
5490,control_change,0,0,1,,,,,,,,0,7,77,,
5490,note_on,30,0,2,,,,,,,,2,,,50,0
5490,note_on,0,0,2,,,,,,,,2,,,54,127
5510,control_change,20,0,1,,,,,,,,0,7,78,,
5520,note_on,0,0,1,,,,,,,,0,,,68,127
5520,note_on,0,0,2,,,,,,,,2,,,59,127
5520,note_on,10,0,1,,,,,,,,0,,,69,0
5520,note_on,30,0,2,,,,,,,,2,,,54,0
5520,control_change,0,0,1,,,,,,,,0,7,79,,
5530,control_change,10,0,1,,,,,,,,0,7,80,,
5550,note_on,20,0,1,,,,,,,,0,,,68,0
5550,note_on,0,0,1,,,,,,,,0,,,66,127
5550,note_on,30,0,2,,,,,,,,2,,,59,0
5550,note_on,0,0,2,,,,,,,,2,,,57,127
5550,control_change,0,0,1,,,,,,,,0,7,81,,
5560,control_change,10,0,1,,,,,,,,0,7,82,,
5570,control_change,10,0,1,,,,,,,,0,7,83,,
5580,note_on,10,0,1,,,,,,,,0,,,66,0
5580,note_on,30,0,2,,,,,,,,2,,,57,0
5580,note_on,0,0,2,,,,,,,,2,,,56,127
5580,control_change,0,0,1,,,,,,,,0,7,84,,
5580,note_on,0,0,1,,,,,,,,0,,,65,127
5590,control_change,10,0,1,,,,,,,,0,7,85,,
5600,control_change,10,0,1,,,,,,,,0,7,86,,
5610,note_on,30,0,2,,,,,,,,2,,,56,0
5610,control_change,0,0,1,,,,,,,,0,7,87,,
5610,note_on,0,0,1,,,,,,,,0,,,68,127
5610,note_on,10,0,1,,,,,,,,0,,,65,0
5610,note_on,0,0,2,,,,,,,,2,,,49,127
5620,control_change,10,0,1,,,,,,,,0,7,89,,
5640,note_on,0,0,2,,,,,,,,2,,,53,127
5640,note_on,30,0,2,,,,,,,,2,,,49,0
5640,note_on,0,0,1,,,,,,,,0,,,73,127
5640,control_change,0,0,1,,,,,,,,0,7,91,,
5640,note_on,20,0,1,,,,,,,,0,,,68,0
5650,control_change,10,0,1,,,,,,,,0,7,92,,
5660,control_change,10,0,1,,,,,,,,0,7,93,,
5670,control_change,0,0,1,,,,,,,,0,7,94,,
5670,note_on,0,0,1,,,,,,,,0,,,71,127
5670,note_on,10,0,1,,,,,,,,0,,,73,0
5670,note_on,30,0,2,,,,,,,,2,,,53,0
5670,note_on,0,0,2,,,,,,,,2,,,56,127
5680,control_change,10,0,1,,,,,,,,0,7,85,,
5690,control_change,10,0,1,,,,,,,,0,7,95,,
5700,note_on,30,0,2,,,,,,,,2,,,56,0
5700,note_on,0,0,2,,,,,,,,2,,,61,127
5700,note_on,10,0,1,,,,,,,,0,,,71,0
5700,note_on,0,0,1,,,,,,,,0,,,69,127
5710,control_change,10,0,1,,,,,,,,0,7,96,,
5720,control_change,10,0,1,,,,,,,,0,7,97,,
5730,note_on,10,0,1,,,,,,,,0,,,69,0
5730,note_on,0,0,1,,,,,,,,0,,,68,127
5730,control_change,0,0,1,,,,,,,,0,7,99,,
5730,note_on,30,0,2,,,,,,,,2,,,61,0
5730,note_on,0,0,2,,,,,,,,2,,,59,127
5740,control_change,10,0,1,,,,,,,,0,7,100,,
5760,note_on,0,0,2,,,,,,,,2,,,57,127
5760,note_on,20,0,1,,,,,,,,0,,,68,0
5760,note_on,0,0,1,,,,,,,,0,,,66,127
5760,control_change,0,0,1,,,,,,,,0,7,101,,
5760,note_on,30,0,2,,,,,,,,2,,,59,0
5780,control_change,20,0,1,,,,,,,,0,7,102,,
5790,note_on,0,0,2,,,,,,,,2,,,59,127
5790,note_on,30,0,2,,,,,,,,2,,,57,0
5790,control_change,0,0,1,,,,,,,,0,7,103,,
5790,note_on,10,0,1,,,,,,,,0,,,66,0
5810,control_change,20,0,1,,,,,,,,0,7,103,,
5820,note_on,0,0,2,,,,,,,,2,,,57,127
5820,note_on,30,0,2,,,,,,,,2,,,59,0
5820,note_on,10,0,1,,,,,,,,0,,,78,127
5850,note_on,30,0,1,,,,,,,,0,,,78,0
5850,note_on,0,0,2,,,,,,,,2,,,56,127
5850,note_on,30,0,2,,,,,,,,2,,,57,0
5870,control_change,20,0,1,,,,,,,,0,7,104,,
5880,note_on,0,0,2,,,,,,,,2,,,54,127
5880,note_on,30,0,2,,,,,,,,2,,,56,0
5880,note_on,10,0,1,,,,,,,,0,,,66,127
5910,note_on,30,0,1,,,,,,,,0,,,66,0
5910,note_on,30,0,2,,,,,,,,2,,,54,0
5910,note_on,0,0,2,,,,,,,,2,,,52,127
5920,control_change,10,0,1,,,,,,,,0,7,103,,
5940,note_on,0,0,2,,,,,,,,2,,,50,127
5940,note_on,20,0,1,,,,,,,,0,,,66,127
5940,note_on,30,0,2,,,,,,,,2,,,52,0
5950,control_change,10,0,1,,,,,,,,0,7,98,,
5960,control_change,10,0,1,,,,,,,,0,7,100,,
5970,note_on,30,0,2,,,,,,,,2,,,50,0
5970,note_on,0,0,2,,,,,,,,2,,,52,127
6000,note_on,0,0,1,,,,,,,,0,,,61,127
6000,note_on,40,0,1,,,,,,,,0,,,66,0
6000,note_on,30,0,2,,,,,,,,2,,,52,0
6000,note_on,0,0,2,,,,,,,,2,,,54,127
6030,note_on,30,0,2,,,,,,,,2,,,54,0
6030,note_on,0,0,2,,,,,,,,2,,,52,127
6060,note_on,0,0,1,,,,,,,,0,,,66,127
6060,note_on,60,0,1,,,,,,,,0,,,61,0
6060,note_on,30,0,2,,,,,,,,2,,,52,0
6060,note_on,0,0,2,,,,,,,,2,,,50,127
6090,note_on,30,0,2,,,,,,,,2,,,50,0
6090,note_on,0,0,2,,,,,,,,2,,,49,127
6120,note_on,0,0,1,,,,,,,,0,,,68,127
6120,note_on,30,0,2,,,,,,,,2,,,49,0
6120,note_on,0,0,2,,,,,,,,2,,,47,127
6120,note_on,60,0,1,,,,,,,,0,,,66,0
6135,note_on,15,0,1,,,,,,,,0,,,68,0
6135,note_on,0,0,1,,,,,,,,0,,,66,127
6150,note_on,30,0,2,,,,,,,,2,,,47,0
6150,note_on,15,0,1,,,,,,,,0,,,66,0
6150,note_on,0,0,1,,,,,,,,0,,,68,127
6150,note_on,0,0,2,,,,,,,,2,,,50,127
6180,note_on,30,0,2,,,,,,,,2,,,50,0
6180,note_on,0,0,2,,,,,,,,2,,,54,127
6210,note_on,30,0,2,,,,,,,,2,,,54,0
6210,note_on,0,0,2,,,,,,,,2,,,50,127
6240,note_on,30,0,2,,,,,,,,2,,,50,0
6240,note_on,0,0,2,,,,,,,,2,,,47,127
6270,note_on,0,0,2,,,,,,,,2,,,50,127
6270,note_on,30,0,2,,,,,,,,2,,,47,0
6300,note_on,0,0,2,,,,,,,,2,,,44,127
6300,note_on,30,0,2,,,,,,,,2,,,50,0
6330,note_on,0,0,2,,,,,,,,2,,,47,127
6330,note_on,30,0,2,,,,,,,,2,,,44,0
6360,note_on,0,0,2,,,,,,,,2,,,50,127
6360,note_on,30,0,2,,,,,,,,2,,,47,0
6390,note_on,30,0,2,,,,,,,,2,,,50,0
6390,note_on,0,0,2,,,,,,,,2,,,47,127
6420,note_on,0,0,2,,,,,,,,2,,,44,127
6420,note_on,30,0,2,,,,,,,,2,,,47,0
6450,note_on,0,0,2,,,,,,,,2,,,47,127
6450,note_on,30,0,2,,,,,,,,2,,,44,0
6480,note_on,0,0,2,,,,,,,,2,,,41,127
6480,note_on,30,0,2,,,,,,,,2,,,47,0
6510,note_on,30,0,2,,,,,,,,2,,,41,0
6510,note_on,0,0,1,,,,,,,,0,,,66,127
6510,note_on,360,0,1,,,,,,,,0,,,68,0
6540,note_on,0,0,1,,,,,,,,0,,,65,127
6540,note_on,30,0,2,,,,,,,,2,,,44,127
6540,note_on,30,0,1,,,,,,,,0,,,66,0
6570,note_on,30,0,2,,,,,,,,2,,,44,0
6570,note_on,0,0,1,,,,,,,,0,,,66,127
6570,note_on,30,0,1,,,,,,,,0,,,65,0
6600,note_on,30,0,1,,,,,,,,0,,,66,0
6600,note_on,0,0,1,,,,,,,,0,,,68,127
6600,note_on,30,0,2,,,,,,,,2,,,41,127
6630,note_on,30,0,2,,,,,,,,2,,,41,0
6630,note_on,30,0,1,,,,,,,,0,,,68,0
6630,note_on,0,0,1,,,,,,,,0,,,69,127
6660,note_on,30,0,2,,,,,,,,2,,,37,127
6660,note_on,30,0,1,,,,,,,,0,,,69,0
6660,note_on,0,0,1,,,,,,,,0,,,71,127
6690,note_on,30,0,1,,,,,,,,0,,,71,0
6690,note_on,0,0,1,,,,,,,,0,,,69,127
6690,note_on,30,0,2,,,,,,,,2,,,37,0
6720,note_on,30,0,2,,,,,,,,2,,,39,127
6720,note_on,0,0,1,,,,,,,,0,,,71,127
6720,note_on,30,0,1,,,,,,,,0,,,69,0
6750,note_on,30,0,2,,,,,,,,2,,,39,0
6750,note_on,30,0,1,,,,,,,,0,,,71,0
6750,note_on,0,0,1,,,,,,,,0,,,74,127
6780,note_on,30,0,2,,,,,,,,2,,,41,127
6780,note_on,30,0,1,,,,,,,,0,,,74,0
6780,note_on,0,0,1,,,,,,,,0,,,73,127
6810,note_on,30,0,2,,,,,,,,2,,,41,0
6810,note_on,30,0,1,,,,,,,,0,,,73,0
6810,note_on,0,0,1,,,,,,,,0,,,71,127
6840,note_on,30,0,1,,,,,,,,0,,,71,0
6840,note_on,0,0,1,,,,,,,,0,,,69,127
6840,note_on,30,0,2,,,,,,,,2,,,42,127
6870,note_on,30,0,1,,,,,,,,0,,,69,0
6870,note_on,30,0,2,,,,,,,,2,,,42,0
6870,note_on,0,0,1,,,,,,,,0,,,66,127
6900,note_on,30,0,1,,,,,,,,0,,,66,0
6900,note_on,30,0,2,,,,,,,,2,,,54,127
6900,note_on,0,0,1,,,,,,,,0,,,69,127
6930,note_on,30,0,1,,,,,,,,0,,,69,0
6930,note_on,0,0,1,,,,,,,,0,,,73,127
6930,note_on,30,0,2,,,,,,,,2,,,54,0
6960,note_on,30,0,1,,,,,,,,0,,,73,0
6960,note_on,0,0,1,,,,,,,,0,,,78,127
6960,note_on,30,0,2,,,,,,,,2,,,51,127
6990,note_on,0,0,1,,,,,,,,0,,,75,127
6990,note_on,30,0,1,,,,,,,,0,,,78,0
6990,note_on,30,0,2,,,,,,,,2,,,51,0
7020,note_on,30,0,1,,,,,,,,0,,,75,0
7020,note_on,0,0,1,,,,,,,,0,,,72,127
7020,note_on,30,0,2,,,,,,,,2,,,56,127
7050,note_on,30,0,1,,,,,,,,0,,,72,0
7050,note_on,0,0,1,,,,,,,,0,,,68,127
7050,note_on,30,0,2,,,,,,,,2,,,56,0
7080,note_on,30,0,2,,,,,,,,2,,,54,127
7080,note_on,0,0,1,,,,,,,,0,,,72,127
7080,note_on,30,0,1,,,,,,,,0,,,68,0
7110,note_on,0,0,1,,,,,,,,0,,,75,127
7110,note_on,30,0,2,,,,,,,,2,,,54,0
7110,note_on,30,0,1,,,,,,,,0,,,72,0
7140,note_on,0,0,1,,,,,,,,0,,,78,127
7140,note_on,30,0,2,,,,,,,,2,,,56,127
7140,note_on,30,0,1,,,,,,,,0,,,75,0
7170,note_on,30,0,1,,,,,,,,0,,,78,0
7170,note_on,0,0,1,,,,,,,,0,,,75,127
7170,note_on,30,0,2,,,,,,,,2,,,56,0
7200,note_on,0,0,1,,,,,,,,0,,,76,127
7200,note_on,30,0,2,,,,,,,,2,,,49,127
7200,note_on,30,0,1,,,,,,,,0,,,75,0
7215,note_on,0,0,2,,,,,,,,2,,,47,127
7215,note_on,15,0,2,,,,,,,,2,,,49,0
7230,note_on,0,0,2,,,,,,,,2,,,49,127
7230,note_on,15,0,2,,,,,,,,2,,,47,0
7230,note_on,0,0,1,,,,,,,,0,,,78,127
7230,note_on,30,0,1,,,,,,,,0,,,76,0
7260,note_on,0,0,1,,,,,,,,0,,,76,127
7260,note_on,30,0,1,,,,,,,,0,,,78,0
7290,note_on,30,0,1,,,,,,,,0,,,76,0
7290,note_on,0,0,1,,,,,,,,0,,,75,127
7320,note_on,0,0,1,,,,,,,,0,,,73,127
7320,note_on,0,0,2,,,,,,,,2,,,49,127
7320,note_on,30,0,1,,,,,,,,0,,,75,0
7320,note_on,90,0,2,,,,,,,,2,,,49,0
7350,note_on,30,0,2,,,,,,,,2,,,49,0
7350,note_on,30,0,1,,,,,,,,0,,,73,0
7350,note_on,0,0,1,,,,,,,,0,,,71,127
7380,note_on,30,0,2,,,,,,,,2,,,49,127
7380,note_on,0,0,1,,,,,,,,0,,,69,127
7380,note_on,30,0,1,,,,,,,,0,,,71,0
7395,note_on,15,0,2,,,,,,,,2,,,49,0
7395,note_on,0,0,2,,,,,,,,2,,,47,127
7410,note_on,0,0,2,,,,,,,,2,,,49,127
7410,note_on,15,0,2,,,,,,,,2,,,47,0
7410,note_on,30,0,1,,,,,,,,0,,,69,0
7410,note_on,0,0,1,,,,,,,,0,,,71,127
7440,note_on,30,0,1,,,,,,,,0,,,71,0
7440,note_on,0,0,1,,,,,,,,0,,,73,127
7470,note_on,30,0,1,,,,,,,,0,,,73,0
7470,note_on,0,0,1,,,,,,,,0,,,71,127
7500,note_on,90,0,2,,,,,,,,2,,,49,0
7500,note_on,0,0,1,,,,,,,,0,,,69,127
7500,note_on,0,0,2,,,,,,,,2,,,49,127
7500,note_on,30,0,1,,,,,,,,0,,,71,0
7530,note_on,0,0,1,,,,,,,,0,,,68,127
7530,note_on,30,0,2,,,,,,,,2,,,49,0
7530,note_on,30,0,1,,,,,,,,0,,,69,0
7560,note_on,30,0,1,,,,,,,,0,,,68,0
7560,note_on,0,0,1,,,,,,,,0,,,66,127
7560,note_on,30,0,2,,,,,,,,2,,,51,127
7575,note_on,15,0,2,,,,,,,,2,,,51,0
7575,note_on,0,0,2,,,,,,,,2,,,50,127
7590,note_on,0,0,2,,,,,,,,2,,,51,127
7590,note_on,15,0,2,,,,,,,,2,,,50,0
7590,note_on,0,0,1,,,,,,,,0,,,69,127
7590,note_on,30,0,1,,,,,,,,0,,,66,0
7620,note_on,0,0,1,,,,,,,,0,,,73,127
7620,note_on,30,0,1,,,,,,,,0,,,69,0
7650,note_on,0,0,1,,,,,,,,0,,,69,127
7650,note_on,30,0,1,,,,,,,,0,,,73,0
7680,note_on,0,0,1,,,,,,,,0,,,66,127
7680,note_on,30,0,1,,,,,,,,0,,,69,0
7710,note_on,0,0,1,,,,,,,,0,,,69,127
7710,note_on,30,0,1,,,,,,,,0,,,66,0
7740,note_on,0,0,1,,,,,,,,0,,,63,127
7740,note_on,30,0,1,,,,,,,,0,,,69,0
7770,note_on,0,0,1,,,,,,,,0,,,66,127
7770,note_on,30,0,1,,,,,,,,0,,,63,0
7800,note_on,0,0,1,,,,,,,,0,,,69,127
7800,note_on,30,0,1,,,,,,,,0,,,66,0
7830,note_on,30,0,1,,,,,,,,0,,,69,0
7830,note_on,0,0,1,,,,,,,,0,,,66,127
7860,note_on,0,0,1,,,,,,,,0,,,63,127
7860,note_on,30,0,1,,,,,,,,0,,,66,0
7890,note_on,30,0,1,,,,,,,,0,,,63,0
7890,note_on,0,0,1,,,,,,,,0,,,66,127
7920,note_on,30,0,1,,,,,,,,0,,,66,0
7920,note_on,0,0,1,,,,,,,,0,,,60,127
7920,note_on,330,0,2,,,,,,,,2,,,51,0
7920,note_on,0,0,2,,,,,,,,2,,,50,127
7950,note_on,30,0,1,,,,,,,,0,,,60,0
7950,note_on,0,0,2,,,,,,,,2,,,49,127
7950,note_on,30,0,2,,,,,,,,2,,,50,0
7980,note_on,30,0,2,,,,,,,,2,,,49,0
7980,note_on,30,0,1,,,,,,,,0,,,63,127
7980,note_on,0,0,2,,,,,,,,2,,,48,127
8010,note_on,0,0,2,,,,,,,,2,,,49,127
8010,note_on,30,0,2,,,,,,,,2,,,48,0
8010,note_on,30,0,1,,,,,,,,0,,,63,0
8040,note_on,30,0,1,,,,,,,,0,,,66,127
8040,note_on,0,0,2,,,,,,,,2,,,51,127
8040,note_on,30,0,2,,,,,,,,2,,,49,0
8070,note_on,30,0,2,,,,,,,,2,,,51,0
8070,note_on,0,0,2,,,,,,,,2,,,52,127
8070,note_on,30,0,1,,,,,,,,0,,,66,0
8100,note_on,30,0,2,,,,,,,,2,,,52,0
8100,note_on,30,0,1,,,,,,,,0,,,69,127
8100,note_on,0,0,2,,,,,,,,2,,,54,127
8130,note_on,0,0,2,,,,,,,,2,,,52,127
8130,note_on,30,0,2,,,,,,,,2,,,54,0
8130,note_on,30,0,1,,,,,,,,0,,,69,0
8160,note_on,30,0,1,,,,,,,,0,,,68,127
8160,note_on,30,0,2,,,,,,,,2,,,52,0
8160,note_on,0,0,2,,,,,,,,2,,,54,127
8190,note_on,30,0,2,,,,,,,,2,,,54,0
8190,note_on,30,0,1,,,,,,,,0,,,68,0
8190,note_on,0,0,2,,,,,,,,2,,,57,127
8220,note_on,30,0,1,,,,,,,,0,,,72,127
8220,note_on,30,0,2,,,,,,,,2,,,57,0
8220,note_on,0,0,2,,,,,,,,2,,,56,127
8250,note_on,30,0,2,,,,,,,,2,,,56,0
8250,note_on,0,0,2,,,,,,,,2,,,54,127
8250,note_on,30,0,1,,,,,,,,0,,,72,0
8280,note_on,30,0,2,,,,,,,,2,,,54,0
8280,note_on,30,0,1,,,,,,,,0,,,73,127
8280,note_on,0,0,2,,,,,,,,2,,,52,127
8310,note_on,30,0,2,,,,,,,,2,,,52,0
8310,note_on,0,0,2,,,,,,,,2,,,49,127
8310,note_on,30,0,1,,,,,,,,0,,,73,0
8310,note_on,0,0,1,,,,,,,,0,,,76,127
8340,note_on,30,0,2,,,,,,,,2,,,49,0
8340,note_on,0,0,2,,,,,,,,2,,,52,127
8340,note_on,30,0,1,,,,,,,,0,,,76,0
8340,note_on,0,0,1,,,,,,,,0,,,80,127
8370,note_on,30,0,2,,,,,,,,2,,,52,0
8370,note_on,0,0,2,,,,,,,,2,,,56,127
8370,note_on,30,0,1,,,,,,,,0,,,80,0
8370,note_on,0,0,1,,,,,,,,0,,,76,127
8400,note_on,30,0,1,,,,,,,,0,,,76,0
8400,note_on,0,0,1,,,,,,,,0,,,73,127
8400,note_on,0,0,2,,,,,,,,2,,,61,127
8400,note_on,30,0,2,,,,,,,,2,,,56,0
8430,note_on,0,0,1,,,,,,,,0,,,76,127
8430,note_on,0,0,2,,,,,,,,2,,,56,127
8430,note_on,30,0,2,,,,,,,,2,,,61,0
8430,note_on,30,0,1,,,,,,,,0,,,73,0
8460,note_on,0,0,2,,,,,,,,2,,,52,127
8460,note_on,30,0,1,,,,,,,,0,,,76,0
8460,note_on,30,0,2,,,,,,,,2,,,56,0
8460,note_on,0,0,1,,,,,,,,0,,,80,127
8490,note_on,30,0,2,,,,,,,,2,,,52,0
8490,note_on,0,0,1,,,,,,,,0,,,76,127
8490,note_on,0,0,2,,,,,,,,2,,,49,127
8490,note_on,30,0,1,,,,,,,,0,,,80,0
8520,note_on,0,0,2,,,,,,,,2,,,52,127
8520,note_on,30,0,2,,,,,,,,2,,,49,0
8520,note_on,30,0,1,,,,,,,,0,,,76,0
8520,note_on,0,0,1,,,,,,,,0,,,73,127
8550,note_on,0,0,1,,,,,,,,0,,,76,127
8550,note_on,30,0,1,,,,,,,,0,,,73,0
8550,note_on,0,0,2,,,,,,,,2,,,56,127
8550,note_on,30,0,2,,,,,,,,2,,,52,0
8580,note_on,0,0,1,,,,,,,,0,,,80,127
8580,note_on,30,0,1,,,,,,,,0,,,76,0
8580,note_on,30,0,2,,,,,,,,2,,,56,0
8580,note_on,0,0,2,,,,,,,,2,,,61,127
8610,note_on,30,0,1,,,,,,,,0,,,80,0
8610,note_on,30,0,2,,,,,,,,2,,,61,0
8610,note_on,0,0,1,,,,,,,,0,,,76,127
8610,note_on,0,0,2,,,,,,,,2,,,59,127
8640,note_on,30,0,2,,,,,,,,2,,,59,0
8640,note_on,30,0,1,,,,,,,,0,,,76,0
8640,note_on,0,0,2,,,,,,,,2,,,58,127
8640,note_on,0,0,1,,,,,,,,0,,,73,127
8670,note_on,30,0,2,,,,,,,,2,,,58,0
8670,note_on,30,0,1,,,,,,,,0,,,73,0
8670,note_on,0,0,2,,,,,,,,2,,,42,127
8670,note_on,0,0,1,,,,,,,,0,,,76,127
8700,note_on,0,0,2,,,,,,,,2,,,46,127
8700,note_on,30,0,2,,,,,,,,2,,,42,0
8700,note_on,30,0,1,,,,,,,,0,,,76,0
8700,note_on,0,0,1,,,,,,,,0,,,78,127
8730,note_on,0,0,2,,,,,,,,2,,,49,127
8730,note_on,30,0,1,,,,,,,,0,,,78,0
8730,note_on,30,0,2,,,,,,,,2,,,46,0
8730,note_on,0,0,1,,,,,,,,0,,,76,127
8760,note_on,30,0,1,,,,,,,,0,,,76,0
8760,note_on,0,0,1,,,,,,,,0,,,73,127
8760,note_on,30,0,2,,,,,,,,2,,,49,0
8760,note_on,0,0,2,,,,,,,,2,,,54,127
8790,note_on,30,0,2,,,,,,,,2,,,54,0
8790,note_on,0,0,2,,,,,,,,2,,,49,127
8790,note_on,0,0,1,,,,,,,,0,,,76,127
8790,note_on,30,0,1,,,,,,,,0,,,73,0
8820,note_on,30,0,1,,,,,,,,0,,,76,0
8820,note_on,0,0,2,,,,,,,,2,,,46,127
8820,note_on,30,0,2,,,,,,,,2,,,49,0
8820,note_on,0,0,1,,,,,,,,0,,,78,127
8850,note_on,30,0,1,,,,,,,,0,,,78,0
8850,note_on,0,0,1,,,,,,,,0,,,76,127
8850,note_on,0,0,2,,,,,,,,2,,,42,127
8850,note_on,30,0,2,,,,,,,,2,,,46,0
8880,note_on,0,0,2,,,,,,,,2,,,46,127
8880,note_on,30,0,1,,,,,,,,0,,,76,0
8880,note_on,30,0,2,,,,,,,,2,,,42,0
8880,note_on,0,0,1,,,,,,,,0,,,73,127
8910,note_on,30,0,2,,,,,,,,2,,,46,0
8910,note_on,0,0,2,,,,,,,,2,,,49,127
8910,note_on,30,0,1,,,,,,,,0,,,73,0
8910,note_on,0,0,1,,,,,,,,0,,,76,127
8940,note_on,30,0,1,,,,,,,,0,,,76,0
8940,note_on,0,0,1,,,,,,,,0,,,78,127
8940,note_on,30,0,2,,,,,,,,2,,,49,0
8940,note_on,0,0,2,,,,,,,,2,,,54,127
8970,note_on,0,0,1,,,,,,,,0,,,70,127
8970,note_on,30,0,2,,,,,,,,2,,,54,0
8970,note_on,30,0,1,,,,,,,,0,,,78,0
8970,note_on,0,0,2,,,,,,,,2,,,52,127
9000,note_on,30,0,1,,,,,,,,0,,,70,0
9000,note_on,0,0,1,,,,,,,,0,,,71,127
9000,note_on,0,0,2,,,,,,,,2,,,50,127
9000,note_on,30,0,2,,,,,,,,2,,,52,0
9030,note_on,30,0,1,,,,,,,,0,,,71,0
9030,note_on,0,0,1,,,,,,,,0,,,74,127
9030,note_on,0,0,2,,,,,,,,2,,,47,127
9030,note_on,30,0,2,,,,,,,,2,,,50,0
9060,note_on,30,0,1,,,,,,,,0,,,74,0
9060,note_on,0,0,1,,,,,,,,0,,,78,127
9060,note_on,30,0,2,,,,,,,,2,,,47,0
9060,note_on,0,0,2,,,,,,,,2,,,50,127
9090,note_on,0,0,1,,,,,,,,0,,,74,127
9090,note_on,30,0,1,,,,,,,,0,,,78,0
9090,note_on,0,0,2,,,,,,,,2,,,54,127
9090,note_on,30,0,2,,,,,,,,2,,,50,0
9120,note_on,0,0,1,,,,,,,,0,,,71,127
9120,note_on,30,0,1,,,,,,,,0,,,74,0
9120,note_on,0,0,2,,,,,,,,2,,,59,127
9120,note_on,30,0,2,,,,,,,,2,,,54,0
9150,note_on,30,0,1,,,,,,,,0,,,71,0
9150,note_on,30,0,2,,,,,,,,2,,,59,0
9150,note_on,0,0,2,,,,,,,,2,,,54,127
9150,note_on,0,0,1,,,,,,,,0,,,74,127
9180,note_on,0,0,1,,,,,,,,0,,,78,127
9180,note_on,0,0,2,,,,,,,,2,,,50,127
9180,note_on,30,0,2,,,,,,,,2,,,54,0
9180,note_on,30,0,1,,,,,,,,0,,,74,0
9210,note_on,30,0,1,,,,,,,,0,,,78,0
9210,note_on,0,0,1,,,,,,,,0,,,74,127
9210,note_on,30,0,2,,,,,,,,2,,,50,0
9210,note_on,0,0,2,,,,,,,,2,,,47,127
9240,note_on,0,0,1,,,,,,,,0,,,71,127
9240,note_on,30,0,1,,,,,,,,0,,,74,0
9240,note_on,0,0,2,,,,,,,,2,,,50,127
9240,note_on,30,0,2,,,,,,,,2,,,47,0
9270,note_on,0,0,1,,,,,,,,0,,,74,127
9270,note_on,30,0,2,,,,,,,,2,,,50,0
9270,note_on,30,0,1,,,,,,,,0,,,71,0
9270,note_on,0,0,2,,,,,,,,2,,,54,127
9300,note_on,0,0,2,,,,,,,,2,,,59,127
9300,note_on,30,0,2,,,,,,,,2,,,54,0
9300,note_on,0,0,1,,,,,,,,0,,,78,127
9300,note_on,30,0,1,,,,,,,,0,,,74,0
9330,note_on,0,0,2,,,,,,,,2,,,57,127
9330,note_on,0,0,1,,,,,,,,0,,,74,127
9330,note_on,30,0,1,,,,,,,,0,,,78,0
9330,note_on,30,0,2,,,,,,,,2,,,59,0
9360,note_on,0,0,1,,,,,,,,0,,,71,127
9360,note_on,30,0,2,,,,,,,,2,,,57,0
9360,note_on,30,0,1,,,,,,,,0,,,74,0
9360,note_on,0,0,2,,,,,,,,2,,,56,127
9390,note_on,30,0,1,,,,,,,,0,,,71,0
9390,note_on,0,0,1,,,,,,,,0,,,74,127
9390,note_on,0,0,2,,,,,,,,2,,,40,127
9390,note_on,30,0,2,,,,,,,,2,,,56,0
9420,note_on,30,0,1,,,,,,,,0,,,74,0
9420,note_on,0,0,1,,,,,,,,0,,,76,127
9420,note_on,0,0,2,,,,,,,,2,,,44,127
9420,note_on,30,0,2,,,,,,,,2,,,40,0
9450,note_on,30,0,1,,,,,,,,0,,,76,0
9450,note_on,0,0,2,,,,,,,,2,,,47,127
9450,note_on,30,0,2,,,,,,,,2,,,44,0
9450,note_on,0,0,1,,,,,,,,0,,,74,127
9480,note_on,0,0,1,,,,,,,,0,,,71,127
9480,note_on,0,0,2,,,,,,,,2,,,52,127
9480,note_on,30,0,1,,,,,,,,0,,,74,0
9480,note_on,30,0,2,,,,,,,,2,,,47,0
9510,note_on,30,0,1,,,,,,,,0,,,71,0
9510,note_on,0,0,2,,,,,,,,2,,,47,127
9510,note_on,0,0,1,,,,,,,,0,,,74,127
9510,note_on,30,0,2,,,,,,,,2,,,52,0
9540,note_on,30,0,2,,,,,,,,2,,,47,0
9540,note_on,0,0,2,,,,,,,,2,,,44,127
9540,note_on,30,0,1,,,,,,,,0,,,74,0
9540,note_on,0,0,1,,,,,,,,0,,,76,127
9570,note_on,0,0,1,,,,,,,,0,,,74,127
9570,note_on,30,0,2,,,,,,,,2,,,44,0
9570,note_on,0,0,2,,,,,,,,2,,,40,127
9570,note_on,30,0,1,,,,,,,,0,,,76,0
9600,note_on,0,0,1,,,,,,,,0,,,71,127
9600,note_on,30,0,2,,,,,,,,2,,,40,0
9600,note_on,0,0,2,,,,,,,,2,,,44,127
9600,note_on,30,0,1,,,,,,,,0,,,74,0
9630,note_on,30,0,1,,,,,,,,0,,,71,0
9630,note_on,0,0,1,,,,,,,,0,,,74,127
9630,note_on,30,0,2,,,,,,,,2,,,44,0
9630,note_on,0,0,2,,,,,,,,2,,,47,127
9660,note_on,30,0,1,,,,,,,,0,,,74,0
9660,note_on,0,0,1,,,,,,,,0,,,76,127
9660,note_on,0,0,2,,,,,,,,2,,,52,127
9660,note_on,30,0,2,,,,,,,,2,,,47,0
9690,note_on,0,0,2,,,,,,,,2,,,50,127
9690,note_on,0,0,1,,,,,,,,0,,,68,127
9690,note_on,30,0,1,,,,,,,,0,,,76,0
9690,note_on,30,0,2,,,,,,,,2,,,52,0
9720,note_on,30,0,2,,,,,,,,2,,,50,0
9720,note_on,0,0,2,,,,,,,,2,,,49,127
9720,note_on,0,0,1,,,,,,,,0,,,69,127
9720,note_on,30,0,1,,,,,,,,0,,,68,0
9735,note_on,15,0,1,,,,,,,,0,,,69,0
9735,note_on,0,0,1,,,,,,,,0,,,71,127
9750,note_on,15,0,1,,,,,,,,0,,,71,0
9750,note_on,0,0,1,,,,,,,,0,,,69,127
9750,note_on,0,0,2,,,,,,,,2,,,50,127
9750,note_on,30,0,2,,,,,,,,2,,,49,0
9780,note_on,0,0,2,,,,,,,,2,,,52,127
9780,note_on,30,0,2,,,,,,,,2,,,50,0
9810,note_on,30,0,2,,,,,,,,2,,,52,0
9810,note_on,0,0,2,,,,,,,,2,,,50,127
9840,note_on,90,0,1,,,,,,,,0,,,69,0
9840,note_on,0,0,1,,,,,,,,0,,,69,127
9840,note_on,0,0,2,,,,,,,,2,,,49,127
9840,note_on,30,0,2,,,,,,,,2,,,50,0
9870,note_on,30,0,1,,,,,,,,0,,,69,0
9870,note_on,0,0,2,,,,,,,,2,,,47,127
9870,note_on,30,0,2,,,,,,,,2,,,49,0
9900,note_on,30,0,1,,,,,,,,0,,,69,127
9900,note_on,0,0,2,,,,,,,,2,,,45,127
9900,note_on,30,0,2,,,,,,,,2,,,47,0
9915,note_on,0,0,1,,,,,,,,0,,,68,127
9915,note_on,15,0,1,,,,,,,,0,,,69,0
9930,note_on,30,0,2,,,,,,,,2,,,45,0
9930,note_on,15,0,1,,,,,,,,0,,,68,0
9930,note_on,0,0,1,,,,,,,,0,,,69,127
9930,note_on,0,0,2,,,,,,,,2,,,47,127
9960,note_on,30,0,2,,,,,,,,2,,,47,0
9960,note_on,0,0,2,,,,,,,,2,,,49,127
9990,note_on,0,0,2,,,,,,,,2,,,47,127
9990,note_on,30,0,2,,,,,,,,2,,,49,0
10020,note_on,0,0,2,,,,,,,,2,,,45,127
10020,note_on,30,0,2,,,,,,,,2,,,47,0
10020,note_on,0,0,1,,,,,,,,0,,,69,127
10020,note_on,90,0,1,,,,,,,,0,,,69,0
10050,note_on,0,0,2,,,,,,,,2,,,44,127
10050,note_on,30,0,1,,,,,,,,0,,,69,0
10050,note_on,30,0,2,,,,,,,,2,,,45,0
10080,note_on,0,0,2,,,,,,,,2,,,42,127
10080,note_on,30,0,1,,,,,,,,0,,,69,127
10080,note_on,30,0,2,,,,,,,,2,,,44,0
10110,note_on,30,0,1,,,,,,,,0,,,69,0
10110,note_on,0,0,1,,,,,,,,0,,,75,127
10110,note_on,30,0,2,,,,,,,,2,,,42,0
10140,note_on,30,0,1,,,,,,,,0,,,75,0
10140,note_on,30,0,2,,,,,,,,2,,,45,127
10140,note_on,0,0,1,,,,,,,,0,,,71,127
10170,note_on,30,0,1,,,,,,,,0,,,71,0
10170,note_on,0,0,1,,,,,,,,0,,,69,127
10170,note_on,30,0,2,,,,,,,,2,,,45,0
10200,note_on,30,0,1,,,,,,,,0,,,69,0
10200,note_on,0,0,1,,,,,,,,0,,,66,127
10200,note_on,30,0,2,,,,,,,,2,,,51,127
10230,note_on,0,0,1,,,,,,,,0,,,69,127
10230,note_on,30,0,1,,,,,,,,0,,,66,0
10260,note_on,30,0,1,,,,,,,,0,,,69,0
10260,note_on,0,0,1,,,,,,,,0,,,71,127
10290,note_on,30,0,1,,,,,,,,0,,,71,0
10290,note_on,0,0,1,,,,,,,,0,,,75,127
10320,note_on,0,0,2,,,,,,,,2,,,49,127
10320,note_on,30,0,1,,,,,,,,0,,,75,0
10320,note_on,0,0,1,,,,,,,,0,,,71,127
10320,note_on,120,0,2,,,,,,,,2,,,51,0
10350,note_on,30,0,1,,,,,,,,0,,,71,0
10350,note_on,0,0,1,,,,,,,,0,,,69,127
10380,note_on,0,0,1,,,,,,,,0,,,66,127
10380,note_on,60,0,2,,,,,,,,2,,,49,0
10380,note_on,30,0,1,,,,,,,,0,,,69,0
10380,note_on,0,0,2,,,,,,,,2,,,47,127
10410,note_on,30,0,1,,,,,,,,0,,,66,0
10410,note_on,0,0,1,,,,,,,,0,,,69,127
10420,control_change,10,0,1,,,,,,,,0,7,106,,
10440,note_on,60,0,2,,,,,,,,2,,,47,0
10440,note_on,0,0,1,,,,,,,,0,,,67,127
10440,note_on,0,0,2,,,,,,,,2,,,52,127
10440,note_on,20,0,1,,,,,,,,0,,,69,0
10455,note_on,0,0,1,,,,,,,,0,,,66,127
10455,note_on,15,0,1,,,,,,,,0,,,67,0
10460,control_change,5,0,1,,,,,,,,0,7,105,,
10470,note_on,10,0,1,,,,,,,,0,,,66,0
10470,note_on,0,0,1,,,,,,,,0,,,67,127
10470,note_on,30,0,2,,,,,,,,2,,,52,0
10470,note_on,0,0,2,,,,,,,,2,,,54,127
10500,control_change,30,0,1,,,,,,,,0,7,104,,
10500,note_on,0,0,2,,,,,,,,2,,,55,127
10500,note_on,30,0,2,,,,,,,,2,,,54,0
10530,note_on,30,0,2,,,,,,,,2,,,55,0
10530,control_change,30,0,1,,,,,,,,0,7,103,,
10530,note_on,0,0,2,,,,,,,,2,,,54,127
10540,control_change,10,0,1,,,,,,,,0,7,102,,
10560,note_on,0,0,1,,,,,,,,0,,,67,127
10560,control_change,0,0,1,,,,,,,,0,7,101,,
10560,note_on,20,0,1,,,,,,,,0,,,67,0
10560,note_on,0,0,2,,,,,,,,2,,,52,127
10560,note_on,30,0,2,,,,,,,,2,,,54,0
10570,control_change,10,0,1,,,,,,,,0,7,100,,
10580,control_change,10,0,1,,,,,,,,0,7,99,,
10590,note_on,0,0,2,,,,,,,,2,,,50,127
10590,note_on,30,0,2,,,,,,,,2,,,52,0
10590,note_on,10,0,1,,,,,,,,0,,,67,0
10590,control_change,0,0,1,,,,,,,,0,7,97,,
10620,note_on,0,0,2,,,,,,,,2,,,49,127
10620,note_on,30,0,1,,,,,,,,0,,,67,127
10620,control_change,0,0,1,,,,,,,,0,7,96,,
10620,note_on,30,0,2,,,,,,,,2,,,50,0
10630,control_change,10,0,1,,,,,,,,0,7,95,,
10635,note_on,0,0,1,,,,,,,,0,,,66,127
10635,note_on,5,0,1,,,,,,,,0,,,67,0
10640,control_change,5,0,1,,,,,,,,0,7,93,,
10650,note_on,0,0,2,,,,,,,,2,,,50,127
10650,note_on,0,0,1,,,,,,,,0,,,67,127
10650,note_on,30,0,2,,,,,,,,2,,,49,0
10650,control_change,0,0,1,,,,,,,,0,7,92,,
10650,note_on,10,0,1,,,,,,,,0,,,66,0
10660,control_change,10,0,1,,,,,,,,0,7,90,,
10670,control_change,10,0,1,,,,,,,,0,7,88,,
10680,control_change,10,0,1,,,,,,,,0,7,87,,
10680,note_on,30,0,2,,,,,,,,2,,,50,0
10680,note_on,0,0,2,,,,,,,,2,,,52,127
10690,control_change,10,0,1,,,,,,,,0,7,86,,
10700,control_change,10,0,1,,,,,,,,0,7,85,,
10710,note_on,30,0,2,,,,,,,,2,,,52,0
10710,note_on,0,0,2,,,,,,,,2,,,50,127
10720,control_change,20,0,1,,,,,,,,0,7,84,,
10730,control_change,10,0,1,,,,,,,,0,7,83,,
10740,note_on,10,0,1,,,,,,,,0,,,67,0
10740,note_on,0,0,2,,,,,,,,2,,,49,127
10740,note_on,30,0,2,,,,,,,,2,,,50,0
10740,note_on,0,0,1,,,,,,,,0,,,67,127
10750,control_change,10,0,1,,,,,,,,0,7,81,,
10770,note_on,20,0,1,,,,,,,,0,,,67,0
10770,control_change,0,0,1,,,,,,,,0,7,79,,
10770,note_on,0,0,2,,,,,,,,2,,,47,127
10770,note_on,30,0,2,,,,,,,,2,,,49,0
10780,control_change,10,0,1,,,,,,,,0,7,78,,
10800,note_on,20,0,1,,,,,,,,0,,,67,127
10800,control_change,0,0,1,,,,,,,,0,7,76,,
10800,note_on,0,0,2,,,,,,,,2,,,45,127
10800,note_on,30,0,2,,,,,,,,2,,,47,0
10820,control_change,20,0,1,,,,,,,,0,7,75,,
10830,control_change,0,0,1,,,,,,,,0,7,74,,
10830,note_on,0,0,1,,,,,,,,0,,,76,127
10830,note_on,10,0,1,,,,,,,,0,,,67,0
10830,note_on,30,0,2,,,,,,,,2,,,45,0
10840,control_change,10,0,1,,,,,,,,0,7,73,,
10850,control_change,10,0,1,,,,,,,,0,7,72,,
10860,note_on,10,0,1,,,,,,,,0,,,76,0
10860,note_on,0,0,1,,,,,,,,0,,,73,127
10860,note_on,30,0,2,,,,,,,,2,,,52,127
10870,control_change,10,0,1,,,,,,,,0,7,71,,
10890,note_on,20,0,1,,,,,,,,0,,,73,0
10890,note_on,0,0,1,,,,,,,,0,,,67,127
10890,note_on,30,0,2,,,,,,,,2,,,52,0
10900,control_change,10,0,1,,,,,,,,0,7,72,,
10920,note_on,30,0,2,,,,,,,,2,,,49,127
10920,note_on,20,0,1,,,,,,,,0,,,67,0
10920,note_on,0,0,1,,,,,,,,0,,,64,127
10950,note_on,30,0,2,,,,,,,,2,,,49,0
10950,note_on,0,0,1,,,,,,,,0,,,67,127
10950,note_on,30,0,1,,,,,,,,0,,,64,0
10980,note_on,30,0,2,,,,,,,,2,,,45,127
10980,note_on,0,0,1,,,,,,,,0,,,73,127
10980,note_on,30,0,1,,,,,,,,0,,,67,0
11010,note_on,0,0,1,,,,,,,,0,,,76,127
11010,note_on,30,0,1,,,,,,,,0,,,73,0
11040,note_on,0,0,1,,,,,,,,0,,,73,127
11040,note_on,30,0,1,,,,,,,,0,,,76,0
11070,note_on,30,0,1,,,,,,,,0,,,73,0
11070,note_on,0,0,1,,,,,,,,0,,,67,127
11100,note_on,0,0,1,,,,,,,,0,,,64,127
11100,note_on,120,0,2,,,,,,,,2,,,45,0
11100,note_on,30,0,1,,,,,,,,0,,,67,0
11130,note_on,0,0,1,,,,,,,,0,,,67,127
11130,note_on,30,0,1,,,,,,,,0,,,64,0
11160,note_on,30,0,1,,,,,,,,0,,,67,0
11160,note_on,0,0,1,,,,,,,,0,,,66,127
11190,note_on,90,0,2,,,,,,,,2,,,50,127
11220,note_on,30,0,2,,,,,,,,2,,,50,0
11220,note_on,60,0,1,,,,,,,,0,,,66,0
11220,note_on,0,0,2,,,,,,,,2,,,54,127
11250,note_on,0,0,2,,,,,,,,2,,,57,127
11250,note_on,30,0,2,,,,,,,,2,,,54,0
11280,note_on,30,0,2,,,,,,,,2,,,57,0
11280,note_on,0,0,2,,,,,,,,2,,,62,127
11310,note_on,30,0,2,,,,,,,,2,,,62,0
11310,note_on,0,0,2,,,,,,,,2,,,61,127
11340,note_on,30,0,2,,,,,,,,2,,,61,0
11340,note_on,0,0,2,,,,,,,,2,,,59,127
11370,note_on,150,0,1,,,,,,,,0,,,56,127
11400,note_on,60,0,2,,,,,,,,2,,,59,0
11400,note_on,30,0,1,,,,,,,,0,,,56,0
11400,note_on,0,0,1,,,,,,,,0,,,59,127
11430,note_on,30,0,1,,,,,,,,0,,,59,0
11430,note_on,0,0,1,,,,,,,,0,,,62,127
11460,note_on,0,0,1,,,,,,,,0,,,68,127
11460,note_on,30,0,1,,,,,,,,0,,,62,0
11490,note_on,30,0,1,,,,,,,,0,,,68,0
11490,note_on,0,0,1,,,,,,,,0,,,66,127
11520,note_on,30,0,1,,,,,,,,0,,,66,0
11520,control_change,0,0,1,,,,,,,,0,7,65,,
11520,note_on,0,0,1,,,,,,,,0,,,64,127
11540,control_change,20,0,1,,,,,,,,0,7,66,,
11550,note_on,150,0,2,,,,,,,,2,,,49,127
11560,control_change,20,0,1,,,,,,,,0,7,67,,
11580,control_change,0,0,1,,,,,,,,0,7,68,,
11580,note_on,20,0,1,,,,,,,,0,,,64,0
11580,note_on,30,0,2,,,,,,,,2,,,49,0
11580,note_on,0,0,2,,,,,,,,2,,,52,127
11600,control_change,20,0,1,,,,,,,,0,7,69,,
11610,control_change,10,0,1,,,,,,,,0,7,70,,
11610,note_on,0,0,2,,,,,,,,2,,,56,127
11610,note_on,30,0,2,,,,,,,,2,,,52,0
11630,control_change,20,0,1,,,,,,,,0,7,71,,
11640,control_change,10,0,1,,,,,,,,0,7,72,,
11640,note_on,0,0,2,,,,,,,,2,,,61,127
11640,note_on,30,0,2,,,,,,,,2,,,56,0
11650,control_change,10,0,1,,,,,,,,0,7,73,,
11660,control_change,10,0,1,,,,,,,,0,7,75,,
11670,control_change,10,0,1,,,,,,,,0,7,76,,
11670,note_on,30,0,2,,,,,,,,2,,,61,0
11670,note_on,0,0,2,,,,,,,,2,,,59,127
11690,control_change,20,0,1,,,,,,,,0,7,77,,
11700,note_on,30,0,2,,,,,,,,2,,,59,0
11700,note_on,0,0,2,,,,,,,,2,,,57,127
11700,control_change,10,0,1,,,,,,,,0,7,78,,
11710,control_change,10,0,1,,,,,,,,0,7,79,,
11720,control_change,10,0,1,,,,,,,,0,7,80,,
11730,note_on,10,0,1,,,,,,,,0,,,54,127
11740,control_change,10,0,1,,,,,,,,0,7,81,,
11760,note_on,0,0,1,,,,,,,,0,,,57,127
11760,note_on,60,0,2,,,,,,,,2,,,57,0
11760,note_on,20,0,1,,,,,,,,0,,,54,0
11770,control_change,10,0,1,,,,,,,,0,7,82,,
11790,note_on,0,0,1,,,,,,,,0,,,61,127
11790,note_on,20,0,1,,,,,,,,0,,,57,0
11790,control_change,0,0,1,,,,,,,,0,7,83,,
11800,control_change,10,0,1,,,,,,,,0,7,84,,
11810,control_change,10,0,1,,,,,,,,0,7,86,,
11820,note_on,10,0,1,,,,,,,,0,,,61,0
11820,note_on,0,0,1,,,,,,,,0,,,66,127
11830,control_change,10,0,1,,,,,,,,0,7,87,,
11850,note_on,20,0,1,,,,,,,,0,,,66,0
11850,note_on,0,0,1,,,,,,,,0,,,64,127
11860,control_change,10,0,1,,,,,,,,0,7,88,,
11880,note_on,0,0,1,,,,,,,,0,,,62,127
11880,control_change,0,0,1,,,,,,,,0,7,89,,
11880,note_on,20,0,1,,,,,,,,0,,,64,0
11910,control_change,30,0,1,,,,,,,,0,7,90,,
11910,note_on,150,0,2,,,,,,,,2,,,47,127
11930,control_change,20,0,1,,,,,,,,0,7,91,,
11940,note_on,10,0,1,,,,,,,,0,,,62,0
11940,note_on,0,0,2,,,,,,,,2,,,50,127
11940,note_on,30,0,2,,,,,,,,2,,,47,0
11960,control_change,20,0,1,,,,,,,,0,7,92,,
11970,note_on,0,0,2,,,,,,,,2,,,54,127
11970,control_change,10,0,1,,,,,,,,0,7,93,,
11970,note_on,30,0,2,,,,,,,,2,,,50,0
11990,control_change,20,0,1,,,,,,,,0,7,94,,
12000,note_on,30,0,2,,,,,,,,2,,,54,0
12000,control_change,10,0,1,,,,,,,,0,7,98,,
12000,note_on,0,0,2,,,,,,,,2,,,59,127
12010,control_change,10,0,1,,,,,,,,0,7,99,,
12020,control_change,10,0,1,,,,,,,,0,7,100,,
12030,note_on,0,0,2,,,,,,,,2,,,57,127
12030,control_change,10,0,1,,,,,,,,0,7,101,,
12030,note_on,30,0,2,,,,,,,,2,,,59,0
12060,note_on,0,0,2,,,,,,,,2,,,56,127
12060,note_on,30,0,2,,,,,,,,2,,,57,0
12060,control_change,30,0,1,,,,,,,,0,7,102,,
12070,control_change,10,0,1,,,,,,,,0,7,103,,
12090,control_change,0,0,1,,,,,,,,0,7,104,,
12090,note_on,20,0,1,,,,,,,,0,,,52,127
12100,control_change,10,0,1,,,,,,,,0,7,105,,
12120,note_on,0,0,1,,,,,,,,0,,,56,127
12120,note_on,60,0,2,,,,,,,,2,,,56,0
12120,note_on,20,0,1,,,,,,,,0,,,52,0
12130,control_change,10,0,1,,,,,,,,0,7,106,,
12150,note_on,20,0,1,,,,,,,,0,,,56,0
12150,note_on,0,0,1,,,,,,,,0,,,59,127
12170,control_change,20,0,1,,,,,,,,0,7,107,,
12180,note_on,10,0,1,,,,,,,,0,,,59,0
12180,note_on,0,0,1,,,,,,,,0,,,64,127
12190,control_change,10,0,1,,,,,,,,0,7,108,,
12210,note_on,20,0,1,,,,,,,,0,,,64,0
12210,note_on,0,0,1,,,,,,,,0,,,62,127
12210,control_change,0,0,1,,,,,,,,0,7,109,,
12220,control_change,10,0,1,,,,,,,,0,7,110,,
12240,note_on,120,0,2,,,,,,,,2,,,45,127
12240,note_on,0,0,1,,,,,,,,0,,,61,127
12240,note_on,20,0,1,,,,,,,,0,,,62,0
12255,note_on,15,0,2,,,,,,,,2,,,45,0
12255,note_on,0,0,2,,,,,,,,2,,,44,127
12270,note_on,15,0,2,,,,,,,,2,,,44,0
12270,note_on,0,0,2,,,,,,,,2,,,45,127
12270,note_on,30,0,1,,,,,,,,0,,,61,0
12270,note_on,0,0,1,,,,,,,,0,,,57,127
12300,note_on,0,0,1,,,,,,,,0,,,61,127
12300,note_on,30,0,1,,,,,,,,0,,,57,0
12330,note_on,0,0,1,,,,,,,,0,,,64,127
12330,note_on,30,0,1,,,,,,,,0,,,61,0
12360,note_on,90,0,2,,,,,,,,2,,,45,0
12360,note_on,0,0,1,,,,,,,,0,,,69,127
12360,note_on,30,0,1,,,,,,,,0,,,64,0
12360,note_on,0,0,2,,,,,,,,2,,,45,127
12390,note_on,0,0,1,,,,,,,,0,,,64,127
12390,note_on,30,0,1,,,,,,,,0,,,69,0
12390,note_on,30,0,2,,,,,,,,2,,,45,0
12420,note_on,0,0,1,,,,,,,,0,,,73,127
12420,note_on,30,0,1,,,,,,,,0,,,64,0
12420,note_on,30,0,2,,,,,,,,2,,,45,127
12435,note_on,15,0,2,,,,,,,,2,,,45,0
12435,note_on,0,0,2,,,,,,,,2,,,44,127
12450,note_on,0,0,1,,,,,,,,0,,,69,127
12450,note_on,30,0,1,,,,,,,,0,,,73,0
12450,note_on,0,0,2,,,,,,,,2,,,45,127
12450,note_on,15,0,2,,,,,,,,2,,,44,0
12480,note_on,0,0,1,,,,,,,,0,,,73,127
12480,note_on,30,0,1,,,,,,,,0,,,69,0
12510,note_on,0,0,1,,,,,,,,0,,,76,127
12510,note_on,30,0,1,,,,,,,,0,,,73,0
12540,note_on,90,0,2,,,,,,,,2,,,45,0
12540,note_on,30,0,1,,,,,,,,0,,,76,0
12540,note_on,0,0,1,,,,,,,,0,,,81,127
12540,note_on,0,0,2,,,,,,,,2,,,45,127
12570,note_on,0,0,1,,,,,,,,0,,,78,127
12570,note_on,30,0,2,,,,,,,,2,,,45,0
12570,note_on,30,0,1,,,,,,,,0,,,81,0
12600,note_on,30,0,2,,,,,,,,2,,,47,127
12600,note_on,30,0,1,,,,,,,,0,,,78,0
12600,note_on,0,0,1,,,,,,,,0,,,74,127
12615,note_on,0,0,2,,,,,,,,2,,,46,127
12615,note_on,15,0,2,,,,,,,,2,,,47,0
12630,note_on,0,0,1,,,,,,,,0,,,78,127
12630,note_on,0,0,2,,,,,,,,2,,,47,127
12630,note_on,15,0,2,,,,,,,,2,,,46,0
12630,note_on,30,0,1,,,,,,,,0,,,74,0
12660,note_on,30,0,1,,,,,,,,0,,,78,0
12660,note_on,0,0,1,,,,,,,,0,,,81,127
12690,note_on,30,0,1,,,,,,,,0,,,81,0
12690,note_on,0,0,1,,,,,,,,0,,,78,127
12720,note_on,0,0,1,,,,,,,,0,,,74,127
12720,note_on,30,0,1,,,,,,,,0,,,78,0
12750,note_on,30,0,1,,,,,,,,0,,,74,0
12750,note_on,0,0,1,,,,,,,,0,,,78,127
12780,note_on,30,0,1,,,,,,,,0,,,78,0
12780,note_on,0,0,1,,,,,,,,0,,,71,127
12810,note_on,30,0,1,,,,,,,,0,,,71,0
12810,note_on,0,0,1,,,,,,,,0,,,74,127
12840,note_on,30,0,1,,,,,,,,0,,,74,0
12840,note_on,0,0,1,,,,,,,,0,,,78,127
12870,note_on,30,0,1,,,,,,,,0,,,78,0
12870,note_on,0,0,1,,,,,,,,0,,,74,127
12900,note_on,30,0,1,,,,,,,,0,,,74,0
12900,note_on,0,0,1,,,,,,,,0,,,71,127
12930,note_on,30,0,1,,,,,,,,0,,,71,0
12930,note_on,0,0,1,,,,,,,,0,,,74,127
12960,note_on,0,0,1,,,,,,,,0,,,68,127
12960,note_on,30,0,1,,,,,,,,0,,,74,0
12960,note_on,330,0,2,,,,,,,,2,,,47,0
12960,note_on,0,0,2,,,,,,,,2,,,47,127
12990,note_on,30,0,1,,,,,,,,0,,,68,0
12990,note_on,30,0,2,,,,,,,,2,,,47,0
12990,note_on,0,0,2,,,,,,,,2,,,45,127
13020,note_on,0,0,2,,,,,,,,2,,,44,127
13020,note_on,30,0,1,,,,,,,,0,,,71,127
13020,note_on,30,0,2,,,,,,,,2,,,45,0
13050,note_on,30,0,2,,,,,,,,2,,,44,0
13050,note_on,0,0,2,,,,,,,,2,,,45,127
13050,note_on,30,0,1,,,,,,,,0,,,71,0
13080,note_on,30,0,2,,,,,,,,2,,,45,0
13080,note_on,0,0,2,,,,,,,,2,,,47,127
13080,note_on,30,0,1,,,,,,,,0,,,74,127
13110,note_on,0,0,2,,,,,,,,2,,,49,127
13110,note_on,30,0,2,,,,,,,,2,,,47,0
13110,note_on,30,0,1,,,,,,,,0,,,74,0
13140,note_on,0,0,2,,,,,,,,2,,,50,127
13140,note_on,30,0,2,,,,,,,,2,,,49,0
13140,note_on,30,0,1,,,,,,,,0,,,78,127
13170,note_on,0,0,2,,,,,,,,2,,,49,127
13170,note_on,30,0,2,,,,,,,,2,,,50,0
13200,note_on,60,0,1,,,,,,,,0,,,78,0
13200,note_on,0,0,1,,,,,,,,0,,,76,127
13200,note_on,0,0,2,,,,,,,,2,,,50,127
13200,note_on,30,0,2,,,,,,,,2,,,49,0
13230,note_on,30,0,1,,,,,,,,0,,,76,0
13230,note_on,0,0,2,,,,,,,,2,,,54,127
13230,note_on,30,0,2,,,,,,,,2,,,50,0
13260,note_on,30,0,1,,,,,,,,0,,,71,127
13260,note_on,0,0,2,,,,,,,,2,,,52,127
13260,note_on,30,0,2,,,,,,,,2,,,54,0
13290,note_on,30,0,1,,,,,,,,0,,,71,0
13290,note_on,30,0,2,,,,,,,,2,,,52,0
13290,note_on,0,0,2,,,,,,,,2,,,50,127
13320,note_on,30,0,2,,,,,,,,2,,,50,0
13320,note_on,0,0,2,,,,,,,,2,,,49,127
13320,note_on,30,0,1,,,,,,,,0,,,78,127
13350,note_on,30,0,2,,,,,,,,2,,,49,0
13350,note_on,0,0,2,,,,,,,,2,,,47,127
13380,note_on,30,0,2,,,,,,,,2,,,47,0
13380,note_on,0,0,2,,,,,,,,2,,,49,127
13380,note_on,0,0,1,,,,,,,,0,,,76,127
13380,note_on,60,0,1,,,,,,,,0,,,78,0
13410,note_on,30,0,1,,,,,,,,0,,,76,0
13410,note_on,0,0,2,,,,,,,,2,,,52,127
13410,note_on,30,0,2,,,,,,,,2,,,49,0
13440,note_on,30,0,2,,,,,,,,2,,,52,0
13440,note_on,0,0,2,,,,,,,,2,,,50,127
13440,note_on,30,0,1,,,,,,,,0,,,69,127
13470,note_on,30,0,1,,,,,,,,0,,,69,0
13470,note_on,0,0,2,,,,,,,,2,,,49,127
13470,note_on,30,0,2,,,,,,,,2,,,50,0
13500,note_on,30,0,1,,,,,,,,0,,,76,127
13500,note_on,0,0,2,,,,,,,,2,,,47,127
13500,note_on,30,0,2,,,,,,,,2,,,49,0
13530,note_on,30,0,2,,,,,,,,2,,,47,0
13530,note_on,0,0,2,,,,,,,,2,,,45,127
13560,note_on,0,0,1,,,,,,,,0,,,74,127
13560,note_on,60,0,1,,,,,,,,0,,,76,0
13560,note_on,30,0,2,,,,,,,,2,,,45,0
13560,note_on,0,0,2,,,,,,,,2,,,47,127
13590,note_on,0,0,2,,,,,,,,2,,,50,127
13590,note_on,30,0,2,,,,,,,,2,,,47,0
13590,note_on,30,0,1,,,,,,,,0,,,74,0
13620,note_on,30,0,1,,,,,,,,0,,,68,127
13620,note_on,0,0,2,,,,,,,,2,,,49,127
13620,note_on,30,0,2,,,,,,,,2,,,50,0
13650,note_on,30,0,1,,,,,,,,0,,,68,0
13650,note_on,30,0,2,,,,,,,,2,,,49,0
13650,note_on,0,0,2,,,,,,,,2,,,47,127
13680,note_on,30,0,2,,,,,,,,2,,,47,0
13680,note_on,0,0,2,,,,,,,,2,,,45,127
13680,note_on,30,0,1,,,,,,,,0,,,74,127
13680,control_change,0,0,1,,,,,,,,0,7,109,,
13710,note_on,0,0,2,,,,,,,,2,,,44,127
13710,note_on,30,0,2,,,,,,,,2,,,45,0
13740,note_on,0,0,1,,,,,,,,0,,,73,127
13740,note_on,0,0,2,,,,,,,,2,,,45,127
13740,note_on,30,0,2,,,,,,,,2,,,44,0
13740,note_on,60,0,1,,,,,,,,0,,,74,0
13770,note_on,0,0,2,,,,,,,,2,,,47,127
13770,note_on,30,0,2,,,,,,,,2,,,45,0
13770,note_on,30,0,1,,,,,,,,0,,,73,0
13800,note_on,30,0,1,,,,,,,,0,,,64,127
13800,note_on,30,0,2,,,,,,,,2,,,47,0
13800,note_on,0,0,2,,,,,,,,2,,,49,127
13830,note_on,0,0,2,,,,,,,,2,,,45,127
13830,note_on,30,0,1,,,,,,,,0,,,64,0
13830,note_on,30,0,2,,,,,,,,2,,,49,0
13840,control_change,10,0,1,,,,,,,,0,7,110,,
13860,note_on,30,0,2,,,,,,,,2,,,45,0
13860,note_on,0,0,2,,,,,,,,2,,,50,127
13860,note_on,20,0,1,,,,,,,,0,,,66,127
13860,control_change,0,0,1,,,,,,,,0,7,111,,
13870,control_change,10,0,1,,,,,,,,0,7,112,,
13875,note_on,0,0,2,,,,,,,,2,,,49,127
13875,note_on,15,0,2,,,,,,,,2,,,50,0
13890,control_change,0,0,1,,,,,,,,0,7,113,,
13890,note_on,0,0,1,,,,,,,,0,,,68,127
13890,note_on,20,0,1,,,,,,,,0,,,66,0
13890,note_on,0,0,2,,,,,,,,2,,,50,127
13890,note_on,15,0,2,,,,,,,,2,,,49,0
13920,note_on,0,0,1,,,,,,,,0,,,69,127
13920,note_on,30,0,1,,,,,,,,0,,,68,0
13920,control_change,0,0,1,,,,,,,,0,7,114,,
13930,control_change,10,0,1,,,,,,,,0,7,115,,
13950,note_on,20,0,1,,,,,,,,0,,,69,0
13950,note_on,0,0,1,,,,,,,,0,,,71,127
13980,note_on,0,0,1,,,,,,,,0,,,73,127
13980,note_on,90,0,2,,,,,,,,2,,,50,0
13980,note_on,0,0,2,,,,,,,,2,,,50,127
13980,note_on,30,0,1,,,,,,,,0,,,71,0
14010,note_on,30,0,1,,,,,,,,0,,,73,0
14010,note_on,0,0,1,,,,,,,,0,,,74,127
14010,control_change,0,0,1,,,,,,,,0,7,116,,
14020,control_change,10,0,1,,,,,,,,0,7,117,,
14040,note_on,0,0,2,,,,,,,,2,,,50,127
14040,note_on,0,0,1,,,,,,,,0,,,68,127
14040,note_on,60,0,2,,,,,,,,2,,,50,0
14040,note_on,20,0,1,,,,,,,,0,,,74,0
14070,note_on,30,0,1,,,,,,,,0,,,68,0
14070,note_on,0,0,1,,,,,,,,0,,,64,127
14100,note_on,30,0,1,,,,,,,,0,,,64,0
14100,note_on,0,0,1,,,,,,,,0,,,68,127
14110,control_change,10,0,1,,,,,,,,0,7,118,,
14130,note_on,20,0,1,,,,,,,,0,,,68,0
14130,note_on,0,0,1,,,,,,,,0,,,71,127
14130,control_change,0,0,1,,,,,,,,0,7,119,,
14160,note_on,0,0,1,,,,,,,,0,,,76,127
14160,note_on,30,0,1,,,,,,,,0,,,71,0
14190,note_on,30,0,1,,,,,,,,0,,,76,0
14190,note_on,0,0,1,,,,,,,,0,,,71,127
14210,control_change,20,0,1,,,,,,,,0,7,120,,
14220,note_on,10,0,1,,,,,,,,0,,,71,0
14220,note_on,0,0,1,,,,,,,,0,,,80,127
14250,note_on,30,0,1,,,,,,,,0,,,80,0
14250,note_on,0,0,1,,,,,,,,0,,,76,127
14280,note_on,30,0,1,,,,,,,,0,,,76,0
14280,note_on,0,0,1,,,,,,,,0,,,83,127
14300,control_change,20,0,1,,,,,,,,0,7,121,,
14310,note_on,10,0,1,,,,,,,,0,,,83,0
14310,note_on,0,0,1,,,,,,,,0,,,80,127
14340,note_on,30,0,1,,,,,,,,0,,,80,0
14340,note_on,0,0,1,,,,,,,,0,,,76,127
14370,note_on,330,0,2,,,,,,,,2,,,50,0
14370,note_on,0,0,1,,,,,,,,0,,,80,127
14370,note_on,30,0,1,,,,,,,,0,,,76,0
14400,control_change,0,0,1,,,,,,,,0,7,123,,
14400,note_on,0,0,1,,,,,,,,0,,,81,127
14400,note_on,30,0,2,,,,,,,,2,,,49,127
14400,note_on,30,0,1,,,,,,,,0,,,80,0
14405,set_tempo,14280,1,0,,,,,,754717,,,,,,
14410,control_change,10,0,1,,,,,,,,0,7,124,,
14415,set_tempo,10,1,0,,,,,,759494,,,,,,
14420,set_tempo,5,1,0,,,,,,769231,,,,,,
14425,set_tempo,5,1,0,,,,,,774194,,,,,,
14430,set_tempo,5,1,0,,,,,,784314,,,,,,
14430,note_on,30,0,2,,,,,,,,2,,,49,0
14430,note_on,0,0,2,,,,,,,,2,,,50,127
14440,set_tempo,10,1,0,,,,,,789474,,,,,,
14445,set_tempo,5,1,0,,,,,,794702,,,,,,
14450,set_tempo,5,1,0,,,,,,800000,,,,,,
14455,set_tempo,5,1,0,,,,,,810811,,,,,,
14460,set_tempo,5,1,0,,,,,,816327,,,,,,
14460,note_on,30,0,2,,,,,,,,2,,,50,0
14460,note_on,50,0,1,,,,,,,,0,,,81,0
14460,note_on,0,0,1,,,,,,,,0,,,76,127
14460,note_on,0,0,2,,,,,,,,2,,,49,127
14470,set_tempo,10,1,0,,,,,,827586,,,,,,
14475,set_tempo,5,1,0,,,,,,833333,,,,,,
14480,set_tempo,5,1,0,,,,,,851064,,,,,,
14490,note_on,0,0,2,,,,,,,,2,,,47,127
14490,note_on,30,0,2,,,,,,,,2,,,49,0
14500,set_tempo,20,1,0,,,,,,857143,,,,,,
14505,set_tempo,5,1,0,,,,,,869565,,,,,,
14510,set_tempo,5,1,0,,,,,,875912,,,,,,
14515,set_tempo,5,1,0,,,,,,882353,,,,,,
14520,note_on,60,0,1,,,,,,,,0,,,76,0
14520,note_on,0,0,2,,,,,,,,2,,,45,127
14520,note_on,0,0,1,,,,,,,,0,,,73,127
14520,note_on,30,0,2,,,,,,,,2,,,47,0
14525,set_tempo,10,1,0,,,,,,895522,,,,,,
14530,set_tempo,5,1,0,,,,,,902256,,,,,,
14545,set_tempo,15,1,0,,,,,,923077,,,,,,
14550,note_on,0,0,2,,,,,,,,2,,,44,127
14550,set_tempo,5,1,0,,,,,,930233,,,,,,
14550,note_on,30,0,2,,,,,,,,2,,,45,0
14555,set_tempo,5,1,0,,,,,,937500,,,,,,
14560,set_tempo,5,1,0,,,,,,944882,,,,,,
14565,set_tempo,5,1,0,,,,,,952381,,,,,,
14570,set_tempo,5,1,0,,,,,,960000,,,,,,
14575,set_tempo,5,1,0,,,,,,967742,,,,,,
14580,set_tempo,5,1,0,,,,,,975610,,,,,,
14580,note_on,0,0,2,,,,,,,,2,,,42,127
14580,note_on,30,0,2,,,,,,,,2,,,44,0
14580,note_on,60,0,1,,,,,,,,0,,,73,0
14580,note_on,0,0,1,,,,,,,,0,,,69,127
14595,set_tempo,15,1,0,,,,,,983607,,,,,,
14605,set_tempo,10,1,0,,,,,,991736,,,,,,
14610,note_on,30,0,1,,,,,,,,0,,,69,0
14610,note_on,0,0,1,,,,,,,,0,,,74,127
14610,set_tempo,5,1,0,,,,,,1008403,,,,,,
14610,note_on,30,0,2,,,,,,,,2,,,42,0
14610,note_on,0,0,2,,,,,,,,2,,,54,127
14615,set_tempo,5,1,0,,,,,,1016949,,,,,,
14620,set_tempo,5,1,0,,,,,,1025641,,,,,,
14625,set_tempo,5,1,0,,,,,,1034483,,,,,,
14630,set_tempo,5,1,0,,,,,,1043478,,,,,,
14640,note_on,30,0,1,,,,,,,,0,,,74,0
14640,note_on,0,0,1,,,,,,,,0,,,73,127
14640,note_on,30,0,2,,,,,,,,2,,,54,0
14640,note_on,0,0,2,,,,,,,,2,,,52,127
14645,set_tempo,15,1,0,,,,,,1052632,,,,,,
14650,set_tempo,5,1,0,,,,,,1061947,,,,,,
14655,set_tempo,5,1,0,,,,,,1071429,,,,,,
14665,set_tempo,10,1,0,,,,,,1081081,,,,,,
14670,note_on,30,0,1,,,,,,,,0,,,73,0
14670,note_on,0,0,1,,,,,,,,0,,,71,127
14670,note_on,30,0,2,,,,,,,,2,,,52,0
14670,note_on,0,0,2,,,,,,,,2,,,50,127
14675,set_tempo,10,1,0,,,,,,1090909,,,,,,
14680,set_tempo,5,1,0,,,,,,1111111,,,,,,
14695,set_tempo,15,1,0,,,,,,1121495,,,,,,
14700,note_on,0,0,1,,,,,,,,0,,,76,127
14700,note_on,30,0,1,,,,,,,,0,,,71,0
14700,note_on,30,0,2,,,,,,,,2,,,50,0
14700,note_on,0,0,2,,,,,,,,2,,,49,127
14710,set_tempo,15,1,0,,,,,,1132075,,,,,,
14715,set_tempo,5,1,0,,,,,,1142857,,,,,,
14720,set_tempo,5,1,0,,,,,,1153846,,,,,,
14730,note_on,30,0,2,,,,,,,,2,,,49,0
14730,note_on,0,0,2,,,,,,,,2,,,47,127
14730,set_tempo,10,1,0,,,,,,1165049,,,,,,
14740,set_tempo,10,1,0,,,,,,1176471,,,,,,
14755,set_tempo,15,1,0,,,,,,1188119,,,,,,
14760,set_tempo,5,1,0,,,,,,1200000,,,,,,
14760,note_on,0,0,2,,,,,,,,2,,,49,127
14760,note_on,30,0,2,,,,,,,,2,,,47,0
14765,set_tempo,5,1,0,,,,,,1212121,,,,,,
14775,set_tempo,10,1,0,,,,,,1224490,,,,,,
14790,note_on,0,0,1,,,,,,,,0,,,78,127
14790,note_on,90,0,1,,,,,,,,0,,,76,0
14790,note_on,0,0,2,,,,,,,,2,,,50,127
14790,note_on,30,0,2,,,,,,,,2,,,49,0
14795,set_tempo,20,1,0,,,,,,1237113,,,,,,
14805,set_tempo,10,1,0,,,,,,1250000,,,,,,
14810,set_tempo,5,1,0,,,,,,1263158,,,,,,
14815,set_tempo,5,1,0,,,,,,1276596,,,,,,
14820,note_on,0,0,2,,,,,,,,2,,,52,127
14820,note_on,30,0,2,,,,,,,,2,,,50,0
14820,note_on,30,0,1,,,,,,,,0,,,78,0
14820,note_on,0,0,1,,,,,,,,0,,,73,127
14825,set_tempo,10,1,0,,,,,,1290323,,,,,,
14840,set_tempo,15,1,0,,,,,,1304348,,,,,,
14845,set_tempo,5,1,0,,,,,,1318681,,,,,,
14855,set_tempo,10,1,0,,,,,,1333333,,,,,,
14870,set_tempo,15,1,0,,,,,,1348315,,,,,,
14880,note_on,60,0,2,,,,,,,,2,,,52,0
14880,note_on,0,0,2,,,,,,,,2,,,40,127
14880,set_tempo,10,1,0,,,,,,1363636,,,,,,
14880,note_on,60,0,1,,,,,,,,0,,,73,0
14880,note_on,0,0,1,,,,,,,,0,,,71,127
14895,set_tempo,15,1,0,,,,,,1379310,,,,,,
14900,set_tempo,5,1,0,,,,,,1395349,,,,,,
14910,note_on,30,0,1,,,,,,,,0,,,71,0
14910,note_on,0,0,1,,,,,,,,0,,,69,127
14915,set_tempo,15,1,0,,,,,,1411765,,,,,,
14920,set_tempo,5,1,0,,,,,,1428571,,,,,,
14935,set_tempo,15,1,0,,,,,,1445783,,,,,,
14940,note_on,0,0,2,,,,,,,,2,,,45,127
14940,note_on,60,0,2,,,,,,,,2,,,40,0
14940,note_on,0,0,1,,,,,,,,0,,,69,127
14940,note_on,30,0,1,,,,,,,,0,,,69,0
14950,set_tempo,15,1,0,,,,,,1463415,,,,,,
14965,set_tempo,15,1,0,,,,,,1481481,,,,,,
14985,set_tempo,20,1,0,,,,,,1500000,,,,,,
15000,set_tempo,15,1,0,,,,,,1518987,,,,,,
15005,set_tempo,5,1,0,,,,,,1538462,,,,,,
15025,set_tempo,20,1,0,,,,,,1558442,,,,,,
15055,set_tempo,30,1,0,,,,,,1578947,,,,,,
15090,set_tempo,35,1,0,,,,,,1600000,,,,,,
15105,set_tempo,15,1,0,,,,,,1621622,,,,,,
15120,note_on,180,0,2,,,,,,,,2,,,45,0
15120,note_on,180,0,1,,,,,,,,0,,,69,0
15120,end_of_track,0,1,1,,,,,,,,,,,,
15120,end_of_track,0,1,2,,,,,,,,,,,,
15170,set_tempo,65,1,0,,,,,,1666667,,,,,,
15175,set_tempo,5,1,0,,,,,,1643836,,,,,,
15220,set_tempo,45,1,0,,,,,,1621622,,,,,,
15285,set_tempo,65,1,0,,,,,,1621622,,,,,,
15310,set_tempo,25,1,0,,,,,,1643836,,,,,,
15360,set_tempo,50,1,0,,,,,,1621622,,,,,,
15400,set_tempo,40,1,0,,,,,,1643836,,,,,,
15445,end_of_track,0,1,0,,,,,,,,,,,,
15445,set_tempo,45,1,0,,,,,,1666667,,,,,,
