tick,type,key,time,meta,track,numerator,denominator,clocks_per_click,notated_32nd_notes_per_beat,tempo,program,channel,note,velocity
0,key_signature,F,0,1,0,,,,,,,,,
0,time_signature,,0,1,0,4,4,24,8,,,,,
0,set_tempo,,0,1,0,,,,,666337,,,,
0,note_on,,0,0,1,,,,,,,0,69,88
0,program_change,,0,0,1,,,,,,0,0,,
192,note_on,,0,0,1,,,,,,,0,62,88
192,note_on,,192,0,1,,,,,,,0,69,0
336,note_on,,144,0,1,,,,,,,0,62,0
336,note_on,,0,0,1,,,,,,,0,64,88
384,note_on,,0,0,1,,,,,,,0,65,88
384,note_on,,48,0,1,,,,,,,0,64,0
528,note_on,,0,0,1,,,,,,,0,67,88
528,note_on,,144,0,1,,,,,,,0,65,0
576,note_on,,0,0,1,,,,,,,0,69,88
576,note_on,,48,0,1,,,,,,,0,67,0
768,note_on,,0,0,1,,,,,,,0,70,88
768,note_on,,192,0,1,,,,,,,0,69,0
960,note_on,,192,0,1,,,,,,,0,70,0
960,note_on,,0,0,1,,,,,,,0,69,88
1104,note_on,,144,0,1,,,,,,,0,69,0
1104,note_on,,0,0,1,,,,,,,0,67,88
1152,note_on,,1152,0,4,,,,,,,0,50,88
1152,note_on,,48,0,1,,,,,,,0,67,0
1152,note_on,,0,0,1,,,,,,,0,65,88
1344,note_on,,0,0,4,,,,,,,0,57,88
1344,note_on,,192,0,4,,,,,,,0,50,0
1344,note_on,,192,0,1,,,,,,,0,65,0
1344,note_on,,0,0,1,,,,,,,0,65,72
1392,note_on,,48,0,1,,,,,,,0,65,0
1392,note_on,,0,0,1,,,,,,,0,64,72
1440,note_on,,48,0,1,,,,,,,0,64,0
1440,note_on,,0,0,1,,,,,,,0,65,72
1488,note_on,,144,0,4,,,,,,,0,57,0
1488,note_on,,48,0,1,,,,,,,0,65,0
1488,note_on,,0,0,1,,,,,,,0,67,72
1488,note_on,,0,0,4,,,,,,,0,55,88
1536,note_on,,0,0,4,,,,,,,0,53,88
1536,note_on,,48,0,1,,,,,,,0,67,0
1536,note_on,,0,0,1,,,,,,,0,69,72
1536,note_on,,48,0,4,,,,,,,0,55,0
1584,note_on,,48,0,1,,,,,,,0,69,0
1584,note_on,,0,0,1,,,,,,,0,70,72
1632,note_on,,48,0,1,,,,,,,0,70,0
1632,note_on,,0,0,1,,,,,,,0,72,72
1680,note_on,,144,0,4,,,,,,,0,53,0
1680,note_on,,0,0,4,,,,,,,0,52,88
1728,note_on,,0,0,4,,,,,,,0,50,88
1728,note_on,,48,0,4,,,,,,,0,52,0
1776,note_on,,0,0,1,,,,,,,0,70,72
1776,note_on,,144,0,1,,,,,,,0,72,0
1824,note_on,,48,0,1,,,,,,,0,70,0
1824,note_on,,0,0,1,,,,,,,0,69,72
1872,note_on,,48,0,1,,,,,,,0,69,0
1872,note_on,,0,0,1,,,,,,,0,70,72
1920,note_on,,48,0,1,,,,,,,0,70,0
1920,note_on,,0,0,1,,,,,,,0,64,72
1920,note_on,,192,0,4,,,,,,,0,50,0
1920,note_on,,0,0,4,,,,,,,0,49,88
1968,note_on,,0,0,1,,,,,,,0,65,72
1968,note_on,,48,0,1,,,,,,,0,64,0
2016,note_on,,0,0,1,,,,,,,0,67,72
2016,note_on,,48,0,1,,,,,,,0,65,0
2112,note_on,,192,0,4,,,,,,,0,49,0
2112,note_on,,0,0,4,,,,,,,0,50,88
2160,note_on,,144,0,1,,,,,,,0,67,0
2160,note_on,,0,0,1,,,,,,,0,69,72
2208,note_on,,48,0,1,,,,,,,0,69,0
2208,note_on,,0,0,1,,,,,,,0,65,72
2256,note_on,,48,0,1,,,,,,,0,65,0
2256,note_on,,0,0,1,,,,,,,0,67,72
2256,note_on,,0,0,4,,,,,,,0,52,88
2256,note_on,,144,0,4,,,,,,,0,50,0
2304,note_on,,2304,0,2,,,,,,,0,74,88
2304,note_on,,0,0,4,,,,,,,0,53,88
2304,note_on,,48,0,4,,,,,,,0,52,0
2304,note_on,,0,0,1,,,,,,,0,69,72
2304,note_on,,48,0,1,,,,,,,0,67,0
2352,note_on,,48,0,1,,,,,,,0,69,0
2352,note_on,,0,0,1,,,,,,,0,67,72
2400,note_on,,48,0,1,,,,,,,0,67,0
2400,note_on,,0,0,1,,,,,,,0,65,72
2448,note_on,,48,0,1,,,,,,,0,65,0
2448,note_on,,0,0,1,,,,,,,0,64,72
2496,note_on,,192,0,2,,,,,,,0,74,0
2496,note_on,,0,0,1,,,,,,,0,62,72
2496,note_on,,192,0,4,,,,,,,0,53,0
2496,note_on,,0,0,4,,,,,,,0,53,88
2496,note_on,,48,0,1,,,,,,,0,64,0
2496,note_on,,0,0,2,,,,,,,0,81,88
2544,note_on,,0,0,4,,,,,,,0,55,88
2544,note_on,,48,0,4,,,,,,,0,53,0
2544,note_on,,0,0,1,,,,,,,0,59,72
2544,note_on,,48,0,1,,,,,,,0,62,0
2592,note_on,,0,0,4,,,,,,,0,53,88
2592,note_on,,48,0,4,,,,,,,0,55,0
2592,note_on,,0,0,1,,,,,,,0,61,72
2592,note_on,,48,0,1,,,,,,,0,59,0
2640,note_on,,144,0,2,,,,,,,0,81,0
2640,note_on,,0,0,2,,,,,,,0,79,88
2640,note_on,,48,0,4,,,,,,,0,53,0
2640,note_on,,0,0,4,,,,,,,0,52,88
2688,note_on,,96,0,1,,,,,,,0,61,0
2688,note_on,,0,0,1,,,,,,,0,62,72
2688,note_on,,48,0,2,,,,,,,0,79,0
2688,note_on,,0,0,2,,,,,,,0,77,88
2688,note_on,,48,0,4,,,,,,,0,52,0
2688,note_on,,0,0,4,,,,,,,0,50,88
2736,note_on,,48,0,4,,,,,,,0,50,0
2736,note_on,,0,0,4,,,,,,,0,53,72
2784,note_on,,48,0,4,,,,,,,0,53,0
2784,note_on,,0,0,4,,,,,,,0,55,72
2832,note_on,,48,0,4,,,,,,,0,55,0
2832,note_on,,0,0,4,,,,,,,0,57,72
2832,note_on,,144,0,2,,,,,,,0,77,0
2832,note_on,,0,0,2,,,,,,,0,76,88
2880,note_on,,48,0,4,,,,,,,0,57,0
2880,note_on,,0,0,1,,,,,,,0,62,72
2880,note_on,,192,0,1,,,,,,,0,62,0
2880,note_on,,0,0,4,,,,,,,0,58,72
2880,note_on,,0,0,2,,,,,,,0,74,88
2880,note_on,,48,0,2,,,,,,,0,76,0
2928,note_on,,48,0,1,,,,,,,0,62,0
2928,note_on,,0,0,1,,,,,,,0,64,72
2976,note_on,,0,0,1,,,,,,,0,65,72
2976,note_on,,48,0,1,,,,,,,0,64,0
3024,note_on,,48,0,1,,,,,,,0,65,0
3024,note_on,,0,0,1,,,,,,,0,67,72
3072,note_on,,192,0,2,,,,,,,0,74,0
3072,note_on,,0,0,2,,,,,,,0,73,88
3072,note_on,,192,0,4,,,,,,,0,58,0
3072,note_on,,0,0,4,,,,,,,0,57,72
3072,note_on,,48,0,1,,,,,,,0,67,0
3072,note_on,,0,0,1,,,,,,,0,69,72
3120,note_on,,48,0,1,,,,,,,0,69,0
3120,note_on,,0,0,1,,,,,,,0,64,72
3168,note_on,,48,0,1,,,,,,,0,64,0
3168,note_on,,0,0,1,,,,,,,0,69,72
3216,note_on,,144,0,4,,,,,,,0,57,0
3216,note_on,,0,0,4,,,,,,,0,45,72
3264,note_on,,0,0,4,,,,,,,0,47,72
3264,note_on,,48,0,4,,,,,,,0,45,0
3264,note_on,,192,0,2,,,,,,,0,73,0
3264,note_on,,0,0,2,,,,,,,0,74,88
3312,note_on,,0,0,1,,,,,,,0,62,72
3312,note_on,,144,0,1,,,,,,,0,69,0
3360,note_on,,0,0,1,,,,,,,0,67,72
3360,note_on,,48,0,1,,,,,,,0,62,0
3408,note_on,,0,0,4,,,,,,,0,49,72
3408,note_on,,144,0,4,,,,,,,0,47,0
3408,note_on,,144,0,2,,,,,,,0,74,0
3408,note_on,,0,0,2,,,,,,,0,76,88
3456,note_on,,0,0,4,,,,,,,0,50,72
3456,note_on,,48,0,4,,,,,,,0,49,0
3456,note_on,,3456,0,3,,,,,,,0,62,88
3456,note_on,,0,0,1,,,,,,,0,65,72
3456,note_on,,96,0,1,,,,,,,0,67,0
3456,note_on,,0,0,2,,,,,,,0,77,88
3456,note_on,,48,0,2,,,,,,,0,76,0
3504,note_on,,0,0,1,,,,,,,0,69,72
3504,note_on,,48,0,1,,,,,,,0,65,0
3552,note_on,,0,0,1,,,,,,,0,71,72
3552,note_on,,48,0,1,,,,,,,0,69,0
3600,note_on,,0,0,1,,,,,,,0,73,72
3600,note_on,,0,0,4,,,,,,,0,52,72
3600,note_on,,144,0,4,,,,,,,0,50,0
3600,note_on,,48,0,1,,,,,,,0,71,0
3648,note_on,,48,0,1,,,,,,,0,73,0
3648,note_on,,0,0,1,,,,,,,0,74,72
3648,note_on,,48,0,4,,,,,,,0,52,0
3648,note_on,,0,0,2,,,,,,,0,77,88
3648,note_on,,0,0,4,,,,,,,0,53,72
3648,note_on,,192,0,3,,,,,,,0,62,0
3648,note_on,,192,0,2,,,,,,,0,77,0
3648,note_on,,0,0,3,,,,,,,0,57,88
3696,note_on,,48,0,1,,,,,,,0,74,0
3696,note_on,,0,0,1,,,,,,,0,69,72
3696,note_on,,0,0,2,,,,,,,0,81,88
3696,note_on,,48,0,2,,,,,,,0,77,0
3744,note_on,,96,0,4,,,,,,,0,53,0
3744,note_on,,0,0,4,,,,,,,0,50,72
3744,note_on,,0,0,2,,,,,,,0,79,88
3744,note_on,,0,0,1,,,,,,,0,74,72
3744,note_on,,48,0,1,,,,,,,0,69,0
3744,note_on,,48,0,2,,,,,,,0,81,0
3792,note_on,,48,0,2,,,,,,,0,79,0
3792,note_on,,0,0,2,,,,,,,0,77,88
3792,note_on,,144,0,3,,,,,,,0,57,0
3792,note_on,,0,0,3,,,,,,,0,59,88
3840,note_on,,0,0,4,,,,,,,0,57,72
3840,note_on,,0,0,1,,,,,,,0,72,72
3840,note_on,,0,0,2,,,,,,,0,76,88
3840,note_on,,48,0,3,,,,,,,0,59,0
3840,note_on,,96,0,1,,,,,,,0,74,0
3840,note_on,,0,0,3,,,,,,,0,60,88
3840,note_on,,96,0,4,,,,,,,0,50,0
3840,note_on,,48,0,2,,,,,,,0,77,0
3888,note_on,,48,0,2,,,,,,,0,76,0
3888,note_on,,0,0,2,,,,,,,0,80,72
3936,note_on,,0,0,2,,,,,,,0,81,72
3936,note_on,,48,0,2,,,,,,,0,80,0
3984,note_on,,48,0,2,,,,,,,0,81,0
3984,note_on,,0,0,2,,,,,,,0,83,72
3984,note_on,,144,0,3,,,,,,,0,60,0
3984,note_on,,0,0,3,,,,,,,0,62,88
4032,note_on,,192,0,4,,,,,,,0,57,0
4032,note_on,,48,0,3,,,,,,,0,62,0
4032,note_on,,48,0,2,,,,,,,0,83,0
4032,note_on,,0,0,4,,,,,,,0,57,72
4032,note_on,,0,0,3,,,,,,,0,64,88
4032,note_on,,192,0,1,,,,,,,0,72,0
4032,note_on,,0,0,2,,,,,,,0,84,72
4080,note_on,,0,0,4,,,,,,,0,57,72
4080,note_on,,48,0,4,,,,,,,0,57,0
4128,note_on,,0,0,4,,,,,,,0,58,72
4128,note_on,,48,0,4,,,,,,,0,57,0
4176,note_on,,48,0,4,,,,,,,0,58,0
4176,note_on,,0,0,4,,,,,,,0,60,72
4224,note_on,,48,0,4,,,,,,,0,60,0
4224,note_on,,0,0,4,,,,,,,0,62,72
4224,note_on,,192,0,3,,,,,,,0,64,0
4224,note_on,,192,0,2,,,,,,,0,84,0
4224,note_on,,0,0,2,,,,,,,0,84,72
4224,note_on,,0,0,3,,,,,,,0,65,88
4272,note_on,,48,0,2,,,,,,,0,84,0
4272,note_on,,0,0,2,,,,,,,0,84,72
4320,note_on,,48,0,2,,,,,,,0,84,0
4320,note_on,,0,0,2,,,,,,,0,82,72
4368,note_on,,48,0,2,,,,,,,0,82,0
4368,note_on,,0,0,2,,,,,,,0,81,72
4416,note_on,,0,0,4,,,,,,,0,55,72
4416,note_on,,192,0,4,,,,,,,0,62,0
4416,note_on,,0,0,3,,,,,,,0,64,88
4416,note_on,,48,0,2,,,,,,,0,81,0
4416,note_on,,0,0,2,,,,,,,0,82,72
4416,note_on,,192,0,3,,,,,,,0,65,0
4464,note_on,,432,0,1,,,,,,,0,81,56
4512,note_on,,48,0,1,,,,,,,0,81,0
4512,note_on,,0,0,1,,,,,,,0,79,56
4560,note_on,,144,0,3,,,,,,,0,64,0
4560,note_on,,0,0,3,,,,,,,0,62,88
4560,note_on,,48,0,1,,,,,,,0,79,0
4560,note_on,,0,0,1,,,,,,,0,77,56
4608,note_on,,192,0,4,,,,,,,0,55,0
4608,note_on,,0,0,4,,,,,,,0,55,72
4608,note_on,,0,0,1,,,,,,,0,76,56
4608,note_on,,0,0,3,,,,,,,0,61,88
4608,note_on,,48,0,3,,,,,,,0,62,0
4608,note_on,,48,0,1,,,,,,,0,77,0
4608,note_on,,192,0,2,,,,,,,0,82,0
4608,note_on,,0,0,2,,,,,,,0,82,72
4656,note_on,,0,0,4,,,,,,,0,55,72
4656,note_on,,48,0,2,,,,,,,0,82,0
4656,note_on,,48,0,4,,,,,,,0,55,0
4656,note_on,,0,0,2,,,,,,,0,82,72
4704,note_on,,48,0,2,,,,,,,0,82,0
4704,note_on,,0,0,2,,,,,,,0,81,72
4704,note_on,,0,0,4,,,,,,,0,53,72
4704,note_on,,48,0,4,,,,,,,0,55,0
4752,note_on,,0,0,2,,,,,,,0,79,72
4752,note_on,,48,0,4,,,,,,,0,53,0
4752,note_on,,0,0,4,,,,,,,0,52,72
4752,note_on,,48,0,2,,,,,,,0,81,0
4800,note_on,,48,0,2,,,,,,,0,79,0
4800,note_on,,0,0,2,,,,,,,0,81,72
4800,note_on,,0,0,3,,,,,,,0,61,88
4800,note_on,,192,0,3,,,,,,,0,61,0
4800,note_on,,48,0,4,,,,,,,0,52,0
4800,note_on,,0,0,4,,,,,,,0,53,72
4800,note_on,,0,0,1,,,,,,,0,76,56
4800,note_on,,192,0,1,,,,,,,0,76,0
4848,note_on,,48,0,3,,,,,,,0,61,0
4848,note_on,,0,0,3,,,,,,,0,57,88
4848,note_on,,48,0,1,,,,,,,0,76,0
4848,note_on,,0,0,1,,,,,,,0,79,56
4896,note_on,,48,0,3,,,,,,,0,57,0
4896,note_on,,0,0,3,,,,,,,0,59,88
4896,note_on,,48,0,1,,,,,,,0,79,0
4896,note_on,,0,0,1,,,,,,,0,77,56
4944,note_on,,48,0,3,,,,,,,0,59,0
4944,note_on,,0,0,3,,,,,,,0,61,88
4944,note_on,,0,0,1,,,,,,,0,76,56
4944,note_on,,48,0,1,,,,,,,0,77,0
4992,note_on,,192,0,2,,,,,,,0,81,0
4992,note_on,,192,0,4,,,,,,,0,53,0
4992,note_on,,0,0,1,,,,,,,0,77,56
4992,note_on,,0,0,2,,,,,,,0,81,72
4992,note_on,,0,0,3,,,,,,,0,62,88
4992,note_on,,48,0,3,,,,,,,0,61,0
4992,note_on,,0,0,4,,,,,,,0,53,72
4992,note_on,,48,0,1,,,,,,,0,76,0
5040,note_on,,48,0,4,,,,,,,0,53,0
5040,note_on,,0,0,4,,,,,,,0,53,72
5088,note_on,,0,0,2,,,,,,,0,82,72
5088,note_on,,48,0,4,,,,,,,0,53,0
5088,note_on,,0,0,4,,,,,,,0,52,72
5088,note_on,,96,0,2,,,,,,,0,81,0
5136,note_on,,48,0,4,,,,,,,0,52,0
5136,note_on,,0,0,4,,,,,,,0,50,72
5184,note_on,,0,0,2,,,,,,,0,79,72
5184,note_on,,48,0,4,,,,,,,0,50,0
5184,note_on,,96,0,2,,,,,,,0,82,0
5184,note_on,,192,0,1,,,,,,,0,77,0
5184,note_on,,192,0,3,,,,,,,0,62,0
5184,note_on,,0,0,3,,,,,,,0,62,88
5184,note_on,,0,0,1,,,,,,,0,76,56
5184,note_on,,0,0,4,,,,,,,0,52,72
5232,note_on,,48,0,3,,,,,,,0,62,0
5232,note_on,,0,0,3,,,,,,,0,62,72
5280,note_on,,48,0,3,,,,,,,0,62,0
5280,note_on,,0,0,3,,,,,,,0,61,72
5328,note_on,,48,0,3,,,,,,,0,61,0
5328,note_on,,0,0,3,,,,,,,0,59,72
5376,note_on,,0,0,4,,,,,,,0,57,72
5376,note_on,,192,0,2,,,,,,,0,79,0
5376,note_on,,0,0,2,,,,,,,0,79,72
5376,note_on,,48,0,3,,,,,,,0,59,0
5376,note_on,,0,0,3,,,,,,,0,61,72
5376,note_on,,192,0,1,,,,,,,0,76,0
5376,note_on,,0,0,1,,,,,,,0,76,56
5376,note_on,,192,0,4,,,,,,,0,52,0
5424,note_on,,48,0,1,,,,,,,0,76,0
5424,note_on,,0,0,1,,,,,,,0,69,72
5472,note_on,,48,0,1,,,,,,,0,69,0
5472,note_on,,0,0,1,,,,,,,0,71,72
5472,note_on,,0,0,3,,,,,,,0,62,72
5472,note_on,,96,0,3,,,,,,,0,61,0
5520,note_on,,0,0,3,,,,,,,0,64,72
5520,note_on,,48,0,3,,,,,,,0,62,0
5520,note_on,,0,0,1,,,,,,,0,73,72
5520,note_on,,48,0,1,,,,,,,0,71,0
5568,note_on,,0,0,3,,,,,,,0,65,72
5568,note_on,,48,0,3,,,,,,,0,64,0
5568,note_on,,0,0,1,,,,,,,0,74,72
5568,note_on,,48,0,1,,,,,,,0,73,0
5616,note_on,,48,0,1,,,,,,,0,74,0
5616,note_on,,0,0,1,,,,,,,0,69,72
5616,note_on,,0,0,3,,,,,,,0,64,72
5616,note_on,,48,0,3,,,,,,,0,65,0
5664,note_on,,0,0,2,,,,,,,0,77,72
5664,note_on,,288,0,2,,,,,,,0,79,0
5664,note_on,,0,0,1,,,,,,,0,74,72
5664,note_on,,48,0,3,,,,,,,0,64,0
5664,note_on,,0,0,3,,,,,,,0,65,72
5664,note_on,,48,0,1,,,,,,,0,69,0
5712,note_on,,48,0,3,,,,,,,0,65,0
5712,note_on,,0,0,3,,,,,,,0,67,72
5760,note_on,,0,0,4,,,,,,,0,57,72
5760,note_on,,96,0,2,,,,,,,0,77,0
5760,note_on,,48,0,3,,,,,,,0,67,0
5760,note_on,,0,0,2,,,,,,,0,76,72
5760,note_on,,0,0,1,,,,,,,0,74,72
5760,note_on,,96,0,1,,,,,,,0,74,0
5760,note_on,,0,0,3,,,,,,,0,69,72
5760,note_on,,384,0,4,,,,,,,0,57,0
5808,note_on,,0,0,1,,,,,,,0,74,72
5808,note_on,,48,0,1,,,,,,,0,74,0
5856,note_on,,0,0,3,,,,,,,0,64,72
5856,note_on,,96,0,3,,,,,,,0,69,0
5856,note_on,,48,0,1,,,,,,,0,74,0
5856,note_on,,0,0,1,,,,,,,0,73,72
5904,note_on,,48,0,1,,,,,,,0,73,0
5904,note_on,,0,0,1,,,,,,,0,71,72
5952,note_on,,48,0,1,,,,,,,0,71,0
5952,note_on,,0,0,4,,,,,,,0,57,72
5952,note_on,,0,0,1,,,,,,,0,73,72
5952,note_on,,192,0,2,,,,,,,0,76,0
5952,note_on,,192,0,4,,,,,,,0,57,0
5952,note_on,,96,0,3,,,,,,,0,64,0
5952,note_on,,0,0,3,,,,,,,0,69,72
6000,note_on,,0,0,4,,,,,,,0,58,72
6000,note_on,,48,0,4,,,,,,,0,57,0
6048,note_on,,0,0,4,,,,,,,0,57,72
6048,note_on,,48,0,4,,,,,,,0,58,0
6096,note_on,,0,0,4,,,,,,,0,55,72
6096,note_on,,48,0,4,,,,,,,0,57,0
6144,note_on,,192,0,1,,,,,,,0,73,0
6144,note_on,,0,0,4,,,,,,,0,53,72
6144,note_on,,192,0,3,,,,,,,0,69,0
6144,note_on,,48,0,4,,,,,,,0,55,0
6144,note_on,,192,0,2,,,,,,,0,74,88
6192,note_on,,48,0,1,,,,,,,0,57,72
6240,note_on,,48,0,1,,,,,,,0,57,0
6240,note_on,,0,0,1,,,,,,,0,59,72
6288,note_on,,48,0,1,,,,,,,0,59,0
6288,note_on,,0,0,1,,,,,,,0,61,72
6336,note_on,,0,0,2,,,,,,,0,69,88
6336,note_on,,192,0,2,,,,,,,0,74,0
6336,note_on,,48,0,1,,,,,,,0,61,0
6336,note_on,,0,0,1,,,,,,,0,62,72
6384,note_on,,48,0,1,,,,,,,0,62,0
6384,note_on,,0,0,1,,,,,,,0,64,72
6432,note_on,,48,0,1,,,,,,,0,64,0
6432,note_on,,0,0,1,,,,,,,0,65,72
6432,note_on,,288,0,4,,,,,,,0,53,0
6432,note_on,,0,0,4,,,,,,,0,50,72
6480,note_on,,144,0,2,,,,,,,0,69,0
6480,note_on,,0,0,2,,,,,,,0,71,88
6528,note_on,,96,0,1,,,,,,,0,65,0
6528,note_on,,96,0,4,,,,,,,0,50,0
6528,note_on,,0,0,2,,,,,,,0,72,88
6528,note_on,,0,0,1,,,,,,,0,65,72
6528,note_on,,48,0,2,,,,,,,0,71,0
6528,note_on,,0,0,4,,,,,,,0,57,72
6576,note_on,,0,0,1,,,,,,,0,67,72
6576,note_on,,48,0,1,,,,,,,0,65,0
6624,note_on,,0,0,4,,,,,,,0,53,72
6624,note_on,,0,0,1,,,,,,,0,69,72
6624,note_on,,48,0,1,,,,,,,0,67,0
6624,note_on,,96,0,4,,,,,,,0,57,0
6672,note_on,,144,0,2,,,,,,,0,72,0
6672,note_on,,0,0,2,,,,,,,0,74,88
6720,note_on,,0,0,4,,,,,,,0,60,72
6720,note_on,,0,0,2,,,,,,,0,76,88
6720,note_on,,96,0,4,,,,,,,0,53,0
6720,note_on,,48,0,2,,,,,,,0,74,0
6768,note_on,,0,0,1,,,,,,,0,67,72
6768,note_on,,144,0,1,,,,,,,0,69,0
6816,note_on,,48,0,1,,,,,,,0,67,0
6816,note_on,,0,0,1,,,,,,,0,65,72
6864,note_on,,48,0,1,,,,,,,0,65,0
6864,note_on,,0,0,1,,,,,,,0,64,72
6912,note_on,,0,0,2,,,,,,,0,77,88
6912,note_on,,192,0,2,,,,,,,0,76,0
6912,note_on,,0,0,4,,,,,,,0,60,72
6912,note_on,,192,0,4,,,,,,,0,60,0
6912,note_on,,0,0,1,,,,,,,0,62,72
6912,note_on,,48,0,1,,,,,,,0,64,0
6960,note_on,,0,0,4,,,,,,,0,60,72
6960,note_on,,48,0,4,,,,,,,0,60,0
7008,note_on,,48,0,4,,,,,,,0,60,0
7008,note_on,,96,0,1,,,,,,,0,62,0
7008,note_on,,0,0,1,,,,,,,0,74,72
7008,note_on,,0,0,4,,,,,,,0,59,72
7056,note_on,,0,0,4,,,,,,,0,57,72
7056,note_on,,48,0,4,,,,,,,0,59,0
7104,note_on,,0,0,4,,,,,,,0,56,72
7104,note_on,,48,0,4,,,,,,,0,57,0
7104,note_on,,192,0,2,,,,,,,0,77,0
7104,note_on,,0,0,2,,,,,,,0,76,88
7152,note_on,,144,0,1,,,,,,,0,74,0
7152,note_on,,0,0,1,,,,,,,0,74,72
7200,note_on,,48,0,1,,,,,,,0,74,0
7200,note_on,,0,0,1,,,,,,,0,72,72
7248,note_on,,48,0,1,,,,,,,0,72,0
7248,note_on,,0,0,1,,,,,,,0,71,72
7248,note_on,,0,0,2,,,,,,,0,74,88
7248,note_on,,144,0,2,,,,,,,0,76,0
7296,note_on,,1152,0,3,,,,,,,0,57,88
7296,note_on,,0,0,2,,,,,,,0,72,88
7296,note_on,,48,0,2,,,,,,,0,74,0
7296,note_on,,192,0,4,,,,,,,0,56,0
7296,note_on,,0,0,4,,,,,,,0,57,72
7296,note_on,,48,0,1,,,,,,,0,71,0
7296,note_on,,0,0,1,,,,,,,0,69,72
7344,note_on,,0,0,1,,,,,,,0,64,72
7344,note_on,,48,0,1,,,,,,,0,69,0
7392,note_on,,0,0,1,,,,,,,0,66,72
7392,note_on,,48,0,1,,,,,,,0,64,0
7440,note_on,,0,0,1,,,,,,,0,68,72
7440,note_on,,48,0,1,,,,,,,0,66,0
7488,note_on,,0,0,1,,,,,,,0,69,72
7488,note_on,,0,0,4,,,,,,,0,57,72
7488,note_on,,192,0,4,,,,,,,0,57,0
7488,note_on,,192,0,2,,,,,,,0,72,0
7488,note_on,,0,0,2,,,,,,,0,72,88
7488,note_on,,192,0,3,,,,,,,0,57,0
7488,note_on,,0,0,3,,,,,,,0,64,88
7488,note_on,,48,0,1,,,,,,,0,68,0
7536,note_on,,48,0,2,,,,,,,0,72,0
7536,note_on,,0,0,4,,,,,,,0,55,72
7536,note_on,,48,0,4,,,,,,,0,57,0
7536,note_on,,0,0,2,,,,,,,0,71,88
7584,note_on,,48,0,4,,,,,,,0,55,0
7584,note_on,,48,0,2,,,,,,,0,71,0
7584,note_on,,0,0,4,,,,,,,0,53,72
7584,note_on,,0,0,2,,,,,,,0,72,88
7632,note_on,,0,0,3,,,,,,,0,62,88
7632,note_on,,48,0,2,,,,,,,0,72,0
7632,note_on,,0,0,2,,,,,,,0,74,88
7632,note_on,,144,0,3,,,,,,,0,64,0
7680,note_on,,48,0,3,,,,,,,0,62,0
7680,note_on,,0,0,3,,,,,,,0,60,88
7680,note_on,,96,0,4,,,,,,,0,53,0
7680,note_on,,0,0,4,,,,,,,0,52,72
7680,note_on,,192,0,1,,,,,,,0,69,0
7680,note_on,,0,0,2,,,,,,,0,76,88
7680,note_on,,48,0,2,,,,,,,0,74,0
7680,note_on,,0,0,1,,,,,,,0,69,72
7728,note_on,,0,0,1,,,,,,,0,68,72
7728,note_on,,48,0,1,,,,,,,0,69,0
7776,note_on,,0,0,2,,,,,,,0,75,72
7776,note_on,,0,0,1,,,,,,,0,69,72
7776,note_on,,48,0,1,,,,,,,0,68,0
7776,note_on,,96,0,2,,,,,,,0,76,0
7824,note_on,,0,0,3,,,,,,,0,59,88
7824,note_on,,0,0,1,,,,,,,0,71,72
7824,note_on,,48,0,1,,,,,,,0,69,0
7824,note_on,,144,0,3,,,,,,,0,60,0
7872,note_on,,48,0,3,,,,,,,0,59,0
7872,note_on,,0,0,1,,,,,,,0,72,72
7872,note_on,,0,0,3,,,,,,,0,57,88
7872,note_on,,48,0,1,,,,,,,0,71,0
7920,note_on,,0,0,2,,,,,,,0,78,72
7920,note_on,,144,0,2,,,,,,,0,75,0
7968,note_on,,0,0,2,,,,,,,0,76,72
7968,note_on,,48,0,2,,,,,,,0,78,0
8016,note_on,,48,0,2,,,,,,,0,76,0
8016,note_on,,0,0,2,,,,,,,0,75,72
8064,note_on,,192,0,3,,,,,,,0,57,0
8064,note_on,,0,0,2,,,,,,,0,76,72
8064,note_on,,0,0,1,,,,,,,0,71,72
8064,note_on,,192,0,1,,,,,,,0,72,0
8064,note_on,,48,0,2,,,,,,,0,75,0
8064,note_on,,0,0,3,,,,,,,0,56,88
8064,note_on,,0,0,4,,,,,,,0,52,72
8064,note_on,,384,0,4,,,,,,,0,52,0
8112,note_on,,0,0,2,,,,,,,0,74,72
8112,note_on,,48,0,2,,,,,,,0,76,0
8160,note_on,,0,0,2,,,,,,,0,72,72
8160,note_on,,48,0,2,,,,,,,0,74,0
8208,note_on,,48,0,2,,,,,,,0,72,0
8208,note_on,,0,0,2,,,,,,,0,71,72
8256,note_on,,192,0,4,,,,,,,0,52,0
8256,note_on,,0,0,2,,,,,,,0,72,72
8256,note_on,,48,0,2,,,,,,,0,71,0
8256,note_on,,0,0,1,,,,,,,0,71,72
8256,note_on,,192,0,1,,,,,,,0,71,0
8256,note_on,,192,0,3,,,,,,,0,56,0
8256,note_on,,0,0,3,,,,,,,0,57,88
8304,note_on,,0,0,1,,,,,,,0,71,72
8304,note_on,,48,0,1,,,,,,,0,71,0
8352,note_on,,0,0,1,,,,,,,0,69,72
8352,note_on,,48,0,1,,,,,,,0,71,0
8400,note_on,,144,0,2,,,,,,,0,72,0
8400,note_on,,0,0,1,,,,,,,0,68,72
8400,note_on,,0,0,3,,,,,,,0,59,88
8400,note_on,,144,0,3,,,,,,,0,57,0
8400,note_on,,48,0,1,,,,,,,0,69,0
8400,note_on,,0,0,2,,,,,,,0,71,72
8448,note_on,,0,0,2,,,,,,,0,69,72
8448,note_on,,48,0,2,,,,,,,0,71,0
8448,note_on,,192,0,4,,,,,,,0,57,88
8448,note_on,,0,0,1,,,,,,,0,69,72
8448,note_on,,48,0,1,,,,,,,0,68,0
8448,note_on,,48,0,3,,,,,,,0,59,0
8448,note_on,,0,0,3,,,,,,,0,60,88
8496,note_on,,0,0,1,,,,,,,0,67,72
8496,note_on,,48,0,1,,,,,,,0,69,0
8544,note_on,,0,0,1,,,,,,,0,65,72
8544,note_on,,48,0,1,,,,,,,0,67,0
8592,note_on,,0,0,1,,,,,,,0,64,72
8592,note_on,,48,0,1,,,,,,,0,65,0
8640,note_on,,48,0,1,,,,,,,0,64,0
8640,note_on,,192,0,4,,,,,,,0,57,0
8640,note_on,,192,0,3,,,,,,,0,60,0
8640,note_on,,0,0,3,,,,,,,0,60,88
8640,note_on,,192,0,2,,,,,,,0,69,0
8640,note_on,,0,0,4,,,,,,,0,50,88
8640,note_on,,0,0,2,,,,,,,0,69,72
8640,note_on,,0,0,1,,,,,,,0,65,72
8688,note_on,,48,0,2,,,,,,,0,69,0
8688,note_on,,0,0,2,,,,,,,0,70,72
8688,note_on,,48,0,3,,,,,,,0,60,0
8688,note_on,,0,0,3,,,,,,,0,62,88
8736,note_on,,48,0,2,,,,,,,0,70,0
8736,note_on,,0,0,2,,,,,,,0,69,72
8736,note_on,,48,0,3,,,,,,,0,62,0
8736,note_on,,0,0,3,,,,,,,0,60,88
8784,note_on,,48,0,3,,,,,,,0,60,0
8784,note_on,,0,0,3,,,,,,,0,58,88
8784,note_on,,0,0,2,,,,,,,0,67,72
8784,note_on,,144,0,1,,,,,,,0,65,0
8784,note_on,,0,0,1,,,,,,,0,67,72
8784,note_on,,48,0,2,,,,,,,0,69,0
8784,note_on,,144,0,4,,,,,,,0,50,0
8784,note_on,,0,0,4,,,,,,,0,52,88
8832,note_on,,48,0,2,,,,,,,0,67,0
8832,note_on,,0,0,2,,,,,,,0,69,72
8832,note_on,,48,0,4,,,,,,,0,52,0
8832,note_on,,0,0,4,,,,,,,0,53,88
8832,note_on,,0,0,1,,,,,,,0,60,72
8832,note_on,,48,0,1,,,,,,,0,67,0
8832,note_on,,0,0,3,,,,,,,0,57,88
8832,note_on,,48,0,3,,,,,,,0,58,0
8880,note_on,,48,0,2,,,,,,,0,69,0
8880,note_on,,0,0,2,,,,,,,0,72,72
8928,note_on,,48,0,2,,,,,,,0,72,0
8928,note_on,,0,0,2,,,,,,,0,74,72
8976,note_on,,0,0,4,,,,,,,0,55,88
8976,note_on,,48,0,2,,,,,,,0,74,0
8976,note_on,,0,0,2,,,,,,,0,76,72
8976,note_on,,144,0,4,,,,,,,0,53,0
9024,note_on,,0,0,4,,,,,,,0,57,88
9024,note_on,,192,0,1,,,,,,,0,60,0
9024,note_on,,48,0,4,,,,,,,0,55,0
9024,note_on,,192,0,3,,,,,,,0,57,0
9024,note_on,,48,0,2,,,,,,,0,76,0
9024,note_on,,0,0,2,,,,,,,0,77,72
9072,note_on,,48,0,3,,,,,,,0,64,72
9072,note_on,,48,0,2,,,,,,,0,77,0
9072,note_on,,0,0,2,,,,,,,0,79,72
9120,note_on,,0,0,3,,,,,,,0,62,72
9120,note_on,,48,0,3,,,,,,,0,64,0
9120,note_on,,48,0,2,,,,,,,0,79,0
9120,note_on,,0,0,2,,,,,,,0,81,72
9168,note_on,,0,0,3,,,,,,,0,61,72
9168,note_on,,48,0,3,,,,,,,0,62,0
9216,note_on,,0,0,3,,,,,,,0,62,72
9216,note_on,,0,0,2,,,,,,,0,81,72
9216,note_on,,96,0,2,,,,,,,0,81,0
9216,note_on,,192,0,4,,,,,,,0,57,0
9216,note_on,,48,0,3,,,,,,,0,61,0
9216,note_on,,0,0,4,,,,,,,0,58,88
9264,note_on,,0,0,2,,,,,,,0,79,72
9264,note_on,,48,0,2,,,,,,,0,81,0
9312,note_on,,0,0,2,,,,,,,0,77,72
9312,note_on,,48,0,2,,,,,,,0,79,0
9360,note_on,,0,0,2,,,,,,,0,76,72
9360,note_on,,48,0,2,,,,,,,0,77,0
9408,note_on,,192,0,4,,,,,,,0,58,0
9408,note_on,,0,0,4,,,,,,,0,57,88
9408,note_on,,0,0,2,,,,,,,0,77,72
9408,note_on,,192,0,3,,,,,,,0,62,0
9408,note_on,,0,0,3,,,,,,,0,62,72
9408,note_on,,48,0,2,,,,,,,0,76,0
9456,note_on,,0,0,3,,,,,,,0,61,72
9456,note_on,,48,0,3,,,,,,,0,62,0
9456,note_on,,48,0,2,,,,,,,0,77,0
9456,note_on,,0,0,2,,,,,,,0,76,72
9504,note_on,,48,0,3,,,,,,,0,61,0
9504,note_on,,0,0,2,,,,,,,0,74,72
9504,note_on,,48,0,2,,,,,,,0,76,0
9504,note_on,,0,0,3,,,,,,,0,64,72
9552,note_on,,0,0,4,,,,,,,0,55,88
9552,note_on,,144,0,4,,,,,,,0,57,0
9552,note_on,,48,0,2,,,,,,,0,74,0
9552,note_on,,0,0,2,,,,,,,0,73,72
9600,note_on,,48,0,4,,,,,,,0,55,0
9600,note_on,,0,0,4,,,,,,,0,53,88
9600,note_on,,0,0,3,,,,,,,0,57,72
9600,note_on,,576,0,1,,,,,,,0,62,88
9600,note_on,,96,0,3,,,,,,,0,64,0
9600,note_on,,48,0,2,,,,,,,0,73,0
9600,note_on,,0,0,2,,,,,,,0,74,72
9648,note_on,,48,0,2,,,,,,,0,74,0
9648,note_on,,0,0,2,,,,,,,0,69,72
9696,note_on,,48,0,2,,,,,,,0,69,0
9696,note_on,,0,0,2,,,,,,,0,71,72
9744,note_on,,0,0,2,,,,,,,0,73,72
9744,note_on,,48,0,2,,,,,,,0,71,0
9792,note_on,,0,0,4,,,,,,,0,53,88
9792,note_on,,192,0,1,,,,,,,0,62,0
9792,note_on,,0,0,1,,,,,,,0,69,88
9792,note_on,,192,0,4,,,,,,,0,53,0
9792,note_on,,48,0,2,,,,,,,0,73,0
9792,note_on,,0,0,2,,,,,,,0,74,72
9840,note_on,,48,0,4,,,,,,,0,53,0
9840,note_on,,0,0,4,,,,,,,0,52,88
9888,note_on,,288,0,3,,,,,,,0,57,0
9888,note_on,,0,0,4,,,,,,,0,53,88
9888,note_on,,48,0,4,,,,,,,0,52,0
9888,note_on,,0,0,3,,,,,,,0,62,72
9936,note_on,,0,0,1,,,,,,,0,67,88
9936,note_on,,144,0,1,,,,,,,0,69,0
9936,note_on,,0,0,4,,,,,,,0,55,88
9936,note_on,,48,0,4,,,,,,,0,53,0
9984,note_on,,48,0,1,,,,,,,0,67,0
9984,note_on,,0,0,3,,,,,,,0,62,72
9984,note_on,,0,0,2,,,,,,,0,74,72
9984,note_on,,192,0,2,,,,,,,0,74,0
9984,note_on,,48,0,4,,,,,,,0,55,0
9984,note_on,,96,0,3,,,,,,,0,62,0
9984,note_on,,0,0,4,,,,,,,0,57,88
9984,note_on,,0,0,1,,,,,,,0,65,88
10032,note_on,,0,0,2,,,,,,,0,72,72
10032,note_on,,48,0,2,,,,,,,0,74,0
10080,note_on,,48,0,2,,,,,,,0,72,0
10080,note_on,,0,0,2,,,,,,,0,70,72
10128,note_on,,144,0,3,,,,,,,0,62,0
10128,note_on,,0,0,3,,,,,,,0,60,72
10128,note_on,,144,0,1,,,,,,,0,65,0
10128,note_on,,0,0,1,,,,,,,0,64,88
10128,note_on,,48,0,2,,,,,,,0,70,0
10128,note_on,,0,0,2,,,,,,,0,69,72
10176,note_on,,0,0,3,,,,,,,0,58,72
10176,note_on,,48,0,3,,,,,,,0,60,0
10176,note_on,,192,0,4,,,,,,,0,57,0
10176,note_on,,0,0,1,,,,,,,0,62,88
10176,note_on,,48,0,1,,,,,,,0,64,0
10176,note_on,,0,0,2,,,,,,,0,67,72
10176,note_on,,48,0,2,,,,,,,0,69,0
10224,note_on,,48,0,4,,,,,,,0,57,72
10272,note_on,,0,0,4,,,,,,,0,55,72
10272,note_on,,48,0,4,,,,,,,0,57,0
10320,note_on,,48,0,4,,,,,,,0,55,0
10320,note_on,,0,0,4,,,,,,,0,53,72
10368,note_on,,192,0,1,,,,,,,0,62,0
10368,note_on,,0,0,1,,,,,,,0,61,88
10368,note_on,,192,0,2,,,,,,,0,67,0
10368,note_on,,0,0,2,,,,,,,0,67,72
10368,note_on,,0,0,4,,,,,,,0,52,72
10368,note_on,,48,0,4,,,,,,,0,53,0
10368,note_on,,192,0,3,,,,,,,0,58,0
10368,note_on,,0,0,3,,,,,,,0,58,72
10416,note_on,,48,0,3,,,,,,,0,58,0
10416,note_on,,0,0,3,,,,,,,0,58,72
10464,note_on,,0,0,3,,,,,,,0,57,72
10464,note_on,,48,0,3,,,,,,,0,58,0
10512,note_on,,0,0,3,,,,,,,0,55,72
10512,note_on,,48,0,3,,,,,,,0,57,0
10560,note_on,,0,0,2,,,,,,,0,67,72
10560,note_on,,192,0,2,,,,,,,0,67,0
10560,note_on,,0,0,3,,,,,,,0,57,72
10560,note_on,,0,0,4,,,,,,,0,50,72
10560,note_on,,0,0,1,,,,,,,0,62,88
10560,note_on,,192,0,1,,,,,,,0,61,0
10560,note_on,,192,0,4,,,,,,,0,52,0
10560,note_on,,48,0,3,,,,,,,0,55,0
10608,note_on,,0,0,2,,,,,,,0,65,72
10608,note_on,,48,0,2,,,,,,,0,67,0
10656,note_on,,48,0,2,,,,,,,0,65,0
10656,note_on,,0,0,2,,,,,,,0,70,72
10704,note_on,,144,0,1,,,,,,,0,62,0
10704,note_on,,0,0,3,,,,,,,0,55,72
10704,note_on,,144,0,3,,,,,,,0,57,0
10704,note_on,,0,0,1,,,,,,,0,64,88
10752,note_on,,0,0,1,,,,,,,0,65,88
10752,note_on,,192,0,4,,,,,,,0,50,0
10752,note_on,,0,0,3,,,,,,,0,57,72
10752,note_on,,96,0,2,,,,,,,0,70,0
10752,note_on,,48,0,3,,,,,,,0,55,0
10752,note_on,,48,0,1,,,,,,,0,64,0
10752,note_on,,0,0,2,,,,,,,0,69,72
10752,note_on,,0,0,4,,,,,,,0,50,72
10800,note_on,,48,0,4,,,,,,,0,50,0
10800,note_on,,0,0,4,,,,,,,0,50,72
10848,note_on,,0,0,3,,,,,,,0,58,72
10848,note_on,,48,0,4,,,,,,,0,50,0
10848,note_on,,0,0,4,,,,,,,0,48,72
10848,note_on,,96,0,3,,,,,,,0,57,0
10896,note_on,,48,0,4,,,,,,,0,48,0
10896,note_on,,0,0,4,,,,,,,0,46,72
10944,note_on,,48,0,4,,,,,,,0,46,0
10944,note_on,,0,0,4,,,,,,,0,45,72
10944,note_on,,192,0,2,,,,,,,0,69,0
10944,note_on,,96,0,3,,,,,,,0,58,0
10944,note_on,,0,0,3,,,,,,,0,60,72
10944,note_on,,192,0,1,,,,,,,0,65,0
10944,note_on,,0,0,1,,,,,,,0,65,88
10992,note_on,,48,0,1,,,,,,,0,65,0
10992,note_on,,0,0,1,,,,,,,0,67,88
11040,note_on,,0,0,1,,,,,,,0,65,88
11040,note_on,,48,0,1,,,,,,,0,67,0
11088,note_on,,48,0,1,,,,,,,0,65,0
11088,note_on,,0,0,1,,,,,,,0,63,88
11136,note_on,,192,0,3,,,,,,,0,60,0
11136,note_on,,0,0,3,,,,,,,0,60,72
11136,note_on,,192,0,4,,,,,,,0,45,0
11136,note_on,,0,0,4,,,,,,,0,46,72
11136,note_on,,48,0,1,,,,,,,0,63,0
11136,note_on,,0,0,1,,,,,,,0,62,88
11184,note_on,,48,0,3,,,,,,,0,60,0
11184,note_on,,0,0,3,,,,,,,0,58,72
11232,note_on,,48,0,3,,,,,,,0,58,0
11232,note_on,,0,0,3,,,,,,,0,57,72
11280,note_on,,0,0,3,,,,,,,0,55,72
11280,note_on,,48,0,3,,,,,,,0,57,0
11328,note_on,,0,0,4,,,,,,,0,46,72
11328,note_on,,0,0,3,,,,,,,0,53,72
11328,note_on,,48,0,3,,,,,,,0,55,0
11328,note_on,,192,0,4,,,,,,,0,46,0
11376,note_on,,0,0,4,,,,,,,0,46,72
11376,note_on,,48,0,4,,,,,,,0,46,0
11424,note_on,,96,0,3,,,,,,,0,53,0
11424,note_on,,0,0,4,,,,,,,0,45,72
11424,note_on,,48,0,4,,,,,,,0,46,0
11424,note_on,,0,0,3,,,,,,,0,55,72
11472,note_on,,0,0,4,,,,,,,0,43,72
11472,note_on,,48,0,4,,,,,,,0,45,0
11520,note_on,,48,0,4,,,,,,,0,43,0
11520,note_on,,0,0,4,,,,,,,0,42,72
11520,note_on,,0,0,1,,,,,,,0,62,88
11520,note_on,,384,0,1,,,,,,,0,62,0
11520,note_on,,0,0,3,,,,,,,0,57,72
11520,note_on,,96,0,3,,,,,,,0,55,0
11568,note_on,,0,0,1,,,,,,,0,63,72
11568,note_on,,48,0,1,,,,,,,0,62,0
11616,note_on,,0,0,1,,,,,,,0,62,72
11616,note_on,,48,0,1,,,,,,,0,63,0
11664,note_on,,0,0,1,,,,,,,0,60,72
11664,note_on,,48,0,1,,,,,,,0,62,0
11712,note_on,,192,0,3,,,,,,,0,57,0
11712,note_on,,0,0,3,,,,,,,0,57,72
11712,note_on,,0,0,1,,,,,,,0,58,72
11712,note_on,,48,0,1,,,,,,,0,60,0
11712,note_on,,0,0,4,,,,,,,0,43,72
11712,note_on,,192,0,4,,,,,,,0,42,0
11760,note_on,,48,0,3,,,,,,,0,57,0
11760,note_on,,0,0,3,,,,,,,0,55,72
11808,note_on,,48,0,3,,,,,,,0,55,0
11808,note_on,,0,0,3,,,,,,,0,53,72
11856,note_on,,48,0,3,,,,,,,0,53,0
11856,note_on,,0,0,3,,,,,,,0,52,72
11904,note_on,,192,0,4,,,,,,,0,43,0
11904,note_on,,192,0,1,,,,,,,0,58,0
11904,note_on,,0,0,3,,,,,,,0,50,72
11904,note_on,,0,0,1,,,,,,,0,58,72
11904,note_on,,0,0,4,,,,,,,0,43,72
11904,note_on,,48,0,3,,,,,,,0,52,0
11952,note_on,,0,0,4,,,,,,,0,43,72
11952,note_on,,48,0,4,,,,,,,0,43,0
12000,note_on,,0,0,3,,,,,,,0,52,72
12000,note_on,,96,0,3,,,,,,,0,50,0
12000,note_on,,0,0,4,,,,,,,0,41,72
12000,note_on,,48,0,4,,,,,,,0,43,0
12048,note_on,,0,0,4,,,,,,,0,40,72
12048,note_on,,48,0,4,,,,,,,0,41,0
12096,note_on,,0,0,4,,,,,,,0,38,72
12096,note_on,,48,0,4,,,,,,,0,40,0
12096,note_on,,96,0,3,,,,,,,0,52,0
12096,note_on,,0,0,3,,,,,,,0,53,72
12096,note_on,,192,0,1,,,,,,,0,58,0
12096,note_on,,0,0,1,,,,,,,0,58,72
12144,note_on,,48,0,1,,,,,,,0,58,0
12144,note_on,,0,0,1,,,,,,,0,62,72
12192,note_on,,96,0,3,,,,,,,0,53,0
12192,note_on,,0,0,3,,,,,,,0,55,72
12192,note_on,,0,0,4,,,,,,,0,40,72
12192,note_on,,96,0,4,,,,,,,0,38,0
12192,note_on,,48,0,1,,,,,,,0,62,0
12192,note_on,,0,0,1,,,,,,,0,60,72
12240,note_on,,48,0,1,,,,,,,0,60,0
12240,note_on,,0,0,1,,,,,,,0,58,72
12288,note_on,,0,0,4,,,,,,,0,41,88
12288,note_on,,96,0,4,,,,,,,0,40,0
12288,note_on,,48,0,1,,,,,,,0,58,0
12288,note_on,,0,0,1,,,,,,,0,57,72
12288,note_on,,96,0,3,,,,,,,0,55,0
12288,note_on,,0,0,3,,,,,,,0,55,72
12336,note_on,,48,0,3,,,,,,,0,55,0
12336,note_on,,0,0,3,,,,,,,0,55,72
12384,note_on,,48,0,3,,,,,,,0,55,0
12384,note_on,,0,0,3,,,,,,,0,53,72
12432,note_on,,0,0,1,,,,,,,0,69,72
12432,note_on,,144,0,1,,,,,,,0,57,0
12480,note_on,,0,0,4,,,,,,,0,48,88
12480,note_on,,0,0,1,,,,,,,0,67,72
12480,note_on,,48,0,1,,,,,,,0,69,0
12480,note_on,,1536,0,2,,,,,,,0,72,88
12480,note_on,,192,0,4,,,,,,,0,41,0
12528,note_on,,0,0,1,,,,,,,0,65,72
12528,note_on,,48,0,1,,,,,,,0,67,0
12576,note_on,,48,0,1,,,,,,,0,65,0
12576,note_on,,0,0,3,,,,,,,0,52,72
12576,note_on,,0,0,1,,,,,,,0,67,72
12576,note_on,,192,0,3,,,,,,,0,53,0
12624,note_on,,144,0,4,,,,,,,0,48,0
12624,note_on,,0,0,4,,,,,,,0,46,88
12672,note_on,,96,0,3,,,,,,,0,52,0
12672,note_on,,0,0,1,,,,,,,0,60,72
12672,note_on,,96,0,1,,,,,,,0,67,0
12672,note_on,,48,0,4,,,,,,,0,46,0
12672,note_on,,0,0,3,,,,,,,0,53,72
12672,note_on,,0,0,2,,,,,,,0,65,88
12672,note_on,,192,0,2,,,,,,,0,72,0
12672,note_on,,0,0,4,,,,,,,0,45,88
12720,note_on,,0,0,3,,,,,,,0,48,72
12720,note_on,,48,0,3,,,,,,,0,53,0
12768,note_on,,48,0,3,,,,,,,0,48,0
12768,note_on,,0,0,3,,,,,,,0,50,72
12816,note_on,,0,0,4,,,,,,,0,43,88
12816,note_on,,48,0,3,,,,,,,0,50,0
12816,note_on,,0,0,3,,,,,,,0,52,72
12816,note_on,,144,0,4,,,,,,,0,45,0
12816,note_on,,0,0,2,,,,,,,0,67,88
12816,note_on,,144,0,2,,,,,,,0,65,0
12864,note_on,,0,0,4,,,,,,,0,41,88
12864,note_on,,48,0,3,,,,,,,0,52,0
12864,note_on,,0,0,3,,,,,,,0,53,72
12864,note_on,,192,0,1,,,,,,,0,60,0
12864,note_on,,48,0,4,,,,,,,0,43,0
12864,note_on,,0,0,2,,,,,,,0,69,88
12864,note_on,,48,0,2,,,,,,,0,67,0
12912,note_on,,48,0,1,,,,,,,0,65,72
12960,note_on,,48,0,1,,,,,,,0,65,0
12960,note_on,,96,0,3,,,,,,,0,53,0
12960,note_on,,0,0,1,,,,,,,0,64,72
13008,note_on,,0,0,2,,,,,,,0,70,88
13008,note_on,,0,0,1,,,,,,,0,62,72
13008,note_on,,48,0,1,,,,,,,0,64,0
13008,note_on,,144,0,2,,,,,,,0,69,0
13056,note_on,,0,0,4,,,,,,,0,40,88
13056,note_on,,192,0,4,,,,,,,0,41,0
13056,note_on,,0,0,2,,,,,,,0,72,88
13056,note_on,,48,0,2,,,,,,,0,70,0
13056,note_on,,48,0,1,,,,,,,0,62,0
13056,note_on,,0,0,1,,,,,,,0,67,72
13104,note_on,,48,0,1,,,,,,,0,67,0
13104,note_on,,0,0,1,,,,,,,0,69,72
13152,note_on,,48,0,1,,,,,,,0,69,0
13152,note_on,,0,0,1,,,,,,,0,70,72
13200,note_on,,240,0,3,,,,,,,0,48,72
13248,note_on,,0,0,4,,,,,,,0,41,88
13248,note_on,,192,0,2,,,,,,,0,72,0
13248,note_on,,0,0,2,,,,,,,0,74,88
13248,note_on,,192,0,4,,,,,,,0,40,0
13248,note_on,,48,0,3,,,,,,,0,48,0
13248,note_on,,0,0,3,,,,,,,0,53,72
13296,note_on,,144,0,1,,,,,,,0,70,0
13296,note_on,,0,0,1,,,,,,,0,69,72
13344,note_on,,0,0,1,,,,,,,0,70,72
13344,note_on,,48,0,1,,,,,,,0,69,0
13392,note_on,,0,0,4,,,,,,,0,43,88
13392,note_on,,0,0,3,,,,,,,0,52,72
13392,note_on,,144,0,4,,,,,,,0,41,0
13392,note_on,,144,0,3,,,,,,,0,53,0
13440,note_on,,48,0,4,,,,,,,0,43,0
13440,note_on,,48,0,3,,,,,,,0,52,0
13440,note_on,,0,0,2,,,,,,,0,72,88
13440,note_on,,0,0,3,,,,,,,0,53,72
13440,note_on,,96,0,1,,,,,,,0,70,0
13440,note_on,,0,0,1,,,,,,,0,69,72
13440,note_on,,0,0,4,,,,,,,0,45,88
13440,note_on,,192,0,2,,,,,,,0,74,0
13488,note_on,,0,0,3,,,,,,,0,57,72
13488,note_on,,48,0,3,,,,,,,0,53,0
13536,note_on,,96,0,1,,,,,,,0,69,0
13536,note_on,,0,0,1,,,,,,,0,64,72
13536,note_on,,0,0,3,,,,,,,0,60,72
13536,note_on,,48,0,3,,,,,,,0,57,0
13584,note_on,,144,0,2,,,,,,,0,72,0
13584,note_on,,0,0,2,,,,,,,0,70,88
13632,note_on,,0,0,4,,,,,,,0,45,88
13632,note_on,,192,0,4,,,,,,,0,45,0
13632,note_on,,0,0,1,,,,,,,0,65,72
13632,note_on,,48,0,2,,,,,,,0,70,0
13632,note_on,,0,0,2,,,,,,,0,69,88
13632,note_on,,96,0,1,,,,,,,0,64,0
13680,note_on,,48,0,4,,,,,,,0,45,0
13680,note_on,,0,0,4,,,,,,,0,46,88
13728,note_on,,48,0,4,,,,,,,0,46,0
13728,note_on,,0,0,4,,,,,,,0,45,88
13776,note_on,,48,0,4,,,,,,,0,45,0
13776,note_on,,0,0,4,,,,,,,0,43,88
13824,note_on,,0,0,2,,,,,,,0,69,88
13824,note_on,,0,0,1,,,,,,,0,65,72
13824,note_on,,0,0,3,,,,,,,0,60,72
13824,note_on,,288,0,3,,,,,,,0,60,0
13824,note_on,,192,0,1,,,,,,,0,65,0
13824,note_on,,48,0,4,,,,,,,0,43,0
13824,note_on,,0,0,4,,,,,,,0,41,88
13824,note_on,,192,0,2,,,,,,,0,69,0
13872,note_on,,48,0,1,,,,,,,0,65,0
13872,note_on,,0,0,1,,,,,,,0,64,72
13872,note_on,,0,0,3,,,,,,,0,58,72
13872,note_on,,48,0,3,,,,,,,0,60,0
13872,note_on,,48,0,2,,,,,,,0,69,0
13872,note_on,,0,0,2,,,,,,,0,67,88
13920,note_on,,0,0,3,,,,,,,0,57,72
13920,note_on,,48,0,3,,,,,,,0,58,0
13920,note_on,,48,0,2,,,,,,,0,67,0
13920,note_on,,0,0,2,,,,,,,0,69,88
13920,note_on,,48,0,1,,,,,,,0,64,0
13920,note_on,,0,0,1,,,,,,,0,65,72
13968,note_on,,0,0,3,,,,,,,0,55,72
13968,note_on,,48,0,1,,,,,,,0,65,0
13968,note_on,,0,0,1,,,,,,,0,67,72
13968,note_on,,48,0,2,,,,,,,0,69,0
13968,note_on,,0,0,2,,,,,,,0,70,88
13968,note_on,,48,0,3,,,,,,,0,57,0
14016,note_on,,48,0,2,,,,,,,0,70,0
14016,note_on,,48,0,1,,,,,,,0,67,0
14016,note_on,,0,0,2,,,,,,,0,72,88
14016,note_on,,48,0,3,,,,,,,0,55,0
14016,note_on,,192,0,4,,,,,,,0,41,0
14016,note_on,,0,0,4,,,,,,,0,41,88
14016,note_on,,0,0,1,,,,,,,0,69,72
14016,note_on,,0,0,3,,,,,,,0,53,72
14064,note_on,,48,0,4,,,,,,,0,41,0
14064,note_on,,0,0,4,,,,,,,0,45,72
14112,note_on,,48,0,4,,,,,,,0,45,0
14112,note_on,,0,0,4,,,,,,,0,46,72
14160,note_on,,0,0,4,,,,,,,0,48,72
14160,note_on,,48,0,4,,,,,,,0,46,0
14208,note_on,,0,0,3,,,,,,,0,53,72
14208,note_on,,0,0,2,,,,,,,0,72,88
14208,note_on,,192,0,2,,,,,,,0,72,0
14208,note_on,,0,0,4,,,,,,,0,50,72
14208,note_on,,192,0,1,,,,,,,0,69,0
14208,note_on,,0,0,1,,,,,,,0,69,72
14208,note_on,,48,0,4,,,,,,,0,48,0
14208,note_on,,192,0,3,,,,,,,0,53,0
14256,note_on,,0,0,2,,,,,,,0,74,72
14256,note_on,,48,0,3,,,,,,,0,53,0
14256,note_on,,48,0,2,,,,,,,0,72,0
14256,note_on,,0,0,3,,,,,,,0,52,72
14256,note_on,,0,0,1,,,,,,,0,70,72
14256,note_on,,48,0,1,,,,,,,0,69,0
14304,note_on,,48,0,1,,,,,,,0,70,0
14304,note_on,,0,0,2,,,,,,,0,72,72
14304,note_on,,48,0,2,,,,,,,0,74,0
14304,note_on,,0,0,1,,,,,,,0,69,72
14304,note_on,,48,0,3,,,,,,,0,52,0
14304,note_on,,0,0,3,,,,,,,0,53,72
14352,note_on,,48,0,1,,,,,,,0,69,0
14352,note_on,,0,0,2,,,,,,,0,70,72
14352,note_on,,48,0,2,,,,,,,0,72,0
14352,note_on,,0,0,3,,,,,,,0,55,72
14352,note_on,,0,0,1,,,,,,,0,67,72
14352,note_on,,48,0,3,,,,,,,0,53,0
14400,note_on,,48,0,2,,,,,,,0,70,0
14400,note_on,,0,0,2,,,,,,,0,69,72
14400,note_on,,48,0,1,,,,,,,0,67,0
14400,note_on,,0,0,4,,,,,,,0,50,72
14400,note_on,,0,0,3,,,,,,,0,57,72
14400,note_on,,48,0,3,,,,,,,0,55,0
14400,note_on,,192,0,4,,,,,,,0,50,0
14400,note_on,,0,0,1,,,,,,,0,65,72
14448,note_on,,0,0,4,,,,,,,0,52,72
14448,note_on,,48,0,4,,,,,,,0,50,0
14496,note_on,,0,0,1,,,,,,,0,69,72
14496,note_on,,96,0,2,,,,,,,0,69,0
14496,note_on,,0,0,2,,,,,,,0,77,72
14496,note_on,,96,0,3,,,,,,,0,57,0
14496,note_on,,0,0,4,,,,,,,0,50,72
14496,note_on,,96,0,1,,,,,,,0,65,0
14496,note_on,,48,0,4,,,,,,,0,52,0
14544,note_on,,48,0,4,,,,,,,0,50,0
14544,note_on,,0,0,4,,,,,,,0,48,72
14592,note_on,,0,0,2,,,,,,,0,77,72
14592,note_on,,96,0,2,,,,,,,0,77,0
14592,note_on,,48,0,4,,,,,,,0,48,0
14592,note_on,,96,0,1,,,,,,,0,69,0
14592,note_on,,0,0,1,,,,,,,0,67,72
14592,note_on,,0,0,4,,,,,,,0,47,72
14640,note_on,,0,0,4,,,,,,,0,50,72
14640,note_on,,48,0,4,,,,,,,0,47,0
14688,note_on,,0,0,2,,,,,,,0,76,72
14688,note_on,,48,0,4,,,,,,,0,50,0
14688,note_on,,0,0,4,,,,,,,0,48,72
14688,note_on,,96,0,2,,,,,,,0,77,0
14736,note_on,,48,0,4,,,,,,,0,48,0
14736,note_on,,0,0,4,,,,,,,0,47,72
14784,note_on,,48,0,4,,,,,,,0,47,0
14784,note_on,,0,0,1,,,,,,,0,65,72
14784,note_on,,192,0,1,,,,,,,0,67,0
14784,note_on,,0,0,4,,,,,,,0,45,72
14832,note_on,,48,0,4,,,,,,,0,45,0
14832,note_on,,0,0,4,,,,,,,0,43,72
14880,note_on,,192,0,2,,,,,,,0,76,0
14880,note_on,,48,0,4,,,,,,,0,43,0
14880,note_on,,0,0,4,,,,,,,0,45,72
14880,note_on,,0,0,2,,,,,,,0,74,72
14928,note_on,,0,0,4,,,,,,,0,47,72
14928,note_on,,48,0,4,,,,,,,0,45,0
14976,note_on,,0,0,1,,,,,,,0,64,72
14976,note_on,,96,0,2,,,,,,,0,74,0
14976,note_on,,0,0,2,,,,,,,0,74,72
14976,note_on,,48,0,4,,,,,,,0,47,0
14976,note_on,,0,0,4,,,,,,,0,48,72
14976,note_on,,192,0,1,,,,,,,0,65,0
15024,note_on,,48,0,4,,,,,,,0,48,0
15024,note_on,,0,0,4,,,,,,,0,50,72
15072,note_on,,0,0,4,,,,,,,0,52,72
15072,note_on,,48,0,4,,,,,,,0,50,0
15072,note_on,,0,0,2,,,,,,,0,72,72
15072,note_on,,96,0,2,,,,,,,0,74,0
15120,note_on,,0,0,4,,,,,,,0,53,72
15120,note_on,,48,0,4,,,,,,,0,52,0
15168,note_on,,0,0,1,,,,,,,0,62,72
15168,note_on,,192,0,1,,,,,,,0,64,0
15168,note_on,,0,0,4,,,,,,,0,55,72
15168,note_on,,48,0,4,,,,,,,0,53,0
15216,note_on,,0,0,4,,,,,,,0,57,72
15216,note_on,,48,0,4,,,,,,,0,55,0
15264,note_on,,192,0,2,,,,,,,0,72,0
15264,note_on,,48,0,4,,,,,,,0,57,0
15264,note_on,,0,0,4,,,,,,,0,55,72
15264,note_on,,0,0,2,,,,,,,0,70,72
15312,note_on,,48,0,4,,,,,,,0,55,0
15312,note_on,,0,0,4,,,,,,,0,53,72
15360,note_on,,0,0,2,,,,,,,0,70,72
15360,note_on,,192,0,1,,,,,,,0,62,0
15360,note_on,,864,0,3,,,,,,,0,60,88
15360,note_on,,0,0,1,,,,,,,0,60,72
15360,note_on,,48,0,4,,,,,,,0,53,0
15360,note_on,,96,0,2,,,,,,,0,70,0
15360,note_on,,0,0,4,,,,,,,0,52,72
15408,note_on,,0,0,4,,,,,,,0,48,72
15408,note_on,,48,0,4,,,,,,,0,52,0
15456,note_on,,0,0,4,,,,,,,0,53,72
15456,note_on,,48,0,4,,,,,,,0,48,0
15504,note_on,,0,0,2,,,,,,,0,69,72
15504,note_on,,144,0,2,,,,,,,0,70,0
15552,note_on,,192,0,1,,,,,,,0,60,0
15552,note_on,,192,0,3,,,,,,,0,60,0
15552,note_on,,0,0,3,,,,,,,0,55,88
15552,note_on,,0,0,2,,,,,,,0,72,72
15552,note_on,,48,0,2,,,,,,,0,69,0
15552,note_on,,0,0,1,,,,,,,0,67,88
15600,note_on,,0,0,2,,,,,,,0,71,72
15600,note_on,,48,0,2,,,,,,,0,72,0
15648,note_on,,0,0,4,,,,,,,0,51,72
15648,note_on,,48,0,2,,,,,,,0,71,0
15648,note_on,,192,0,4,,,,,,,0,53,0
15648,note_on,,0,0,2,,,,,,,0,72,72
15696,note_on,,0,0,3,,,,,,,0,57,88
15696,note_on,,144,0,3,,,,,,,0,55,0
15744,note_on,,0,0,3,,,,,,,0,58,88
15744,note_on,,96,0,4,,,,,,,0,51,0
15744,note_on,,0,0,2,,,,,,,0,66,72
15744,note_on,,0,0,1,,,,,,,0,74,88
15744,note_on,,192,0,1,,,,,,,0,67,0
15744,note_on,,96,0,2,,,,,,,0,72,0
15744,note_on,,48,0,3,,,,,,,0,57,0
15744,note_on,,0,0,4,,,,,,,0,50,72
15792,note_on,,0,0,2,,,,,,,0,62,72
15792,note_on,,48,0,2,,,,,,,0,66,0
15840,note_on,,48,0,2,,,,,,,0,62,0
15840,note_on,,0,0,2,,,,,,,0,67,72
15888,note_on,,0,0,3,,,,,,,0,60,88
15888,note_on,,144,0,3,,,,,,,0,58,0
15888,note_on,,144,0,1,,,,,,,0,74,0
15888,note_on,,0,0,1,,,,,,,0,72,88
15936,note_on,,0,0,1,,,,,,,0,70,88
15936,note_on,,48,0,1,,,,,,,0,72,0
15936,note_on,,0,0,3,,,,,,,0,62,88
15936,note_on,,48,0,3,,,,,,,0,60,0
15984,note_on,,144,0,2,,,,,,,0,67,0
15984,note_on,,0,0,2,,,,,,,0,79,72
16032,note_on,,0,0,2,,,,,,,0,77,72
16032,note_on,,48,0,2,,,,,,,0,79,0
16080,note_on,,0,0,1,,,,,,,0,69,88
16080,note_on,,144,0,1,,,,,,,0,70,0
16128,note_on,,96,0,2,,,,,,,0,77,0
16128,note_on,,384,0,4,,,,,,,0,50,0
16128,note_on,,0,0,2,,,,,,,0,70,72
16128,note_on,,192,0,3,,,,,,,0,62,0
16128,note_on,,0,0,4,,,,,,,0,50,72
16128,note_on,,48,0,1,,,,,,,0,69,0
16128,note_on,,0,0,1,,,,,,,0,67,88
16128,note_on,,0,0,3,,,,,,,0,63,88
16176,note_on,,0,0,4,,,,,,,0,43,72
16176,note_on,,48,0,4,,,,,,,0,50,0
16224,note_on,,48,0,4,,,,,,,0,43,0
16224,note_on,,0,0,4,,,,,,,0,48,72
16272,note_on,,144,0,2,,,,,,,0,70,0
16272,note_on,,0,0,2,,,,,,,0,69,72
16320,note_on,,48,0,2,,,,,,,0,69,0
16320,note_on,,0,0,1,,,,,,,0,66,88
16320,note_on,,0,0,3,,,,,,,0,62,88
16320,note_on,,192,0,3,,,,,,,0,63,0
16320,note_on,,0,0,2,,,,,,,0,74,72
16320,note_on,,192,0,1,,,,,,,0,67,0
16368,note_on,,0,0,4,,,,,,,0,48,72
16368,note_on,,144,0,4,,,,,,,0,48,0
16416,note_on,,0,0,4,,,,,,,0,46,72
16416,note_on,,48,0,4,,,,,,,0,48,0
16416,note_on,,96,0,2,,,,,,,0,74,0
16464,note_on,,48,0,4,,,,,,,0,46,0
16464,note_on,,0,0,4,,,,,,,0,45,72
16464,note_on,,0,0,3,,,,,,,0,60,88
16464,note_on,,144,0,3,,,,,,,0,62,0
16512,note_on,,0,0,1,,,,,,,0,67,88
16512,note_on,,192,0,1,,,,,,,0,66,0
16512,note_on,,0,0,3,,,,,,,0,58,88
16512,note_on,,48,0,3,,,,,,,0,60,0
16512,note_on,,0,0,4,,,,,,,0,43,72
16512,note_on,,48,0,4,,,,,,,0,45,0
16560,note_on,,0,0,4,,,,,,,0,50,72
16560,note_on,,48,0,4,,,,,,,0,43,0
16608,note_on,,0,0,4,,,,,,,0,52,72
16608,note_on,,48,0,4,,,,,,,0,50,0
16656,note_on,,0,0,1,,,,,,,0,69,88
16656,note_on,,144,0,1,,,,,,,0,67,0
16656,note_on,,0,0,4,,,,,,,0,54,72
16656,note_on,,48,0,4,,,,,,,0,52,0
16704,note_on,,0,0,1,,,,,,,0,70,88
16704,note_on,,48,0,1,,,,,,,0,69,0
16704,note_on,,0,0,3,,,,,,,0,58,88
16704,note_on,,192,0,3,,,,,,,0,58,0
16704,note_on,,0,0,4,,,,,,,0,55,72
16704,note_on,,48,0,4,,,,,,,0,54,0
16752,note_on,,0,0,3,,,,,,,0,57,88
16752,note_on,,48,0,3,,,,,,,0,58,0
16800,note_on,,384,0,2,,,,,,,0,74,72
16800,note_on,,0,0,3,,,,,,,0,58,88
16800,note_on,,48,0,3,,,,,,,0,57,0
16848,note_on,,48,0,3,,,,,,,0,58,0
16848,note_on,,0,0,3,,,,,,,0,60,88
16896,note_on,,0,0,2,,,,,,,0,79,72
16896,note_on,,96,0,2,,,,,,,0,74,0
16896,note_on,,0,0,1,,,,,,,0,70,88
16896,note_on,,192,0,1,,,,,,,0,70,0
16896,note_on,,0,0,3,,,,,,,0,62,88
16896,note_on,,48,0,3,,,,,,,0,60,0
16896,note_on,,192,0,4,,,,,,,0,55,0
16896,note_on,,0,0,4,,,,,,,0,55,72
16944,note_on,,48,0,1,,,,,,,0,70,0
16944,note_on,,0,0,1,,,,,,,0,72,88
16992,note_on,,48,0,1,,,,,,,0,72,0
16992,note_on,,0,0,1,,,,,,,0,70,88
16992,note_on,,96,0,4,,,,,,,0,55,0
16992,note_on,,0,0,4,,,,,,,0,53,72
17040,note_on,,0,0,1,,,,,,,0,69,88
17040,note_on,,48,0,1,,,,,,,0,70,0
17088,note_on,,48,0,1,,,,,,,0,69,0
17088,note_on,,96,0,4,,,,,,,0,53,0
17088,note_on,,0,0,3,,,,,,,0,62,88
17088,note_on,,0,0,4,,,,,,,0,51,72
17088,note_on,,0,0,1,,,,,,,0,67,88
17088,note_on,,192,0,3,,,,,,,0,62,0
17136,note_on,,48,0,3,,,,,,,0,62,0
17136,note_on,,0,0,3,,,,,,,0,62,72
17136,note_on,,0,0,1,,,,,,,0,70,72
17136,note_on,,48,0,1,,,,,,,0,67,0
17184,note_on,,0,0,2,,,,,,,0,77,72
17184,note_on,,0,0,3,,,,,,,0,60,72
17184,note_on,,48,0,3,,,,,,,0,62,0
17184,note_on,,288,0,2,,,,,,,0,79,0
17184,note_on,,48,0,1,,,,,,,0,70,0
17184,note_on,,0,0,1,,,,,,,0,69,72
17232,note_on,,0,0,2,,,,,,,0,75,72
17232,note_on,,0,0,1,,,,,,,0,67,72
17232,note_on,,48,0,2,,,,,,,0,77,0
17232,note_on,,48,0,1,,,,,,,0,69,0
17232,note_on,,48,0,3,,,,,,,0,60,0
17232,note_on,,0,0,3,,,,,,,0,58,72
17280,note_on,,0,0,4,,,,,,,0,51,72
17280,note_on,,192,0,4,,,,,,,0,51,0
17280,note_on,,0,0,2,,,,,,,0,77,72
17280,note_on,,48,0,2,,,,,,,0,75,0
17280,note_on,,48,0,1,,,,,,,0,67,0
17280,note_on,,0,0,3,,,,,,,0,60,72
17280,note_on,,0,0,1,,,,,,,0,69,72
17280,note_on,,48,0,3,,,,,,,0,58,0
17328,note_on,,48,0,4,,,,,,,0,51,0
17328,note_on,,0,0,4,,,,,,,0,51,72
17376,note_on,,0,0,1,,,,,,,0,72,72
17376,note_on,,48,0,4,,,,,,,0,51,0
17376,note_on,,96,0,1,,,,,,,0,69,0
17376,note_on,,0,0,4,,,,,,,0,50,72
17424,note_on,,48,0,4,,,,,,,0,50,0
17424,note_on,,0,0,4,,,,,,,0,48,72
17472,note_on,,48,0,4,,,,,,,0,48,0
17472,note_on,,192,0,3,,,,,,,0,60,0
17472,note_on,,0,0,4,,,,,,,0,50,72
17472,note_on,,0,0,1,,,,,,,0,65,72
17472,note_on,,96,0,1,,,,,,,0,72,0
17472,note_on,,192,0,2,,,,,,,0,77,0
17472,note_on,,0,0,2,,,,,,,0,77,72
17472,note_on,,0,0,3,,,,,,,0,60,72
17520,note_on,,0,0,3,,,,,,,0,53,72
17520,note_on,,48,0,3,,,,,,,0,60,0
17520,note_on,,48,0,2,,,,,,,0,77,0
17520,note_on,,0,0,2,,,,,,,0,75,72
17568,note_on,,48,0,2,,,,,,,0,75,0
17568,note_on,,48,0,3,,,,,,,0,53,0
17568,note_on,,0,0,3,,,,,,,0,58,72
17568,note_on,,0,0,2,,,,,,,0,74,72
17616,note_on,,144,0,1,,,,,,,0,65,0
17616,note_on,,0,0,4,,,,,,,0,51,72
17616,note_on,,144,0,4,,,,,,,0,50,0
17616,note_on,,0,0,1,,,,,,,0,67,72
17664,note_on,,96,0,3,,,,,,,0,58,0
17664,note_on,,0,0,3,,,,,,,0,58,72
17664,note_on,,0,0,4,,,,,,,0,53,88
17664,note_on,,0,0,2,,,,,,,0,74,72
17664,note_on,,48,0,1,,,,,,,0,67,0
17664,note_on,,0,0,1,,,,,,,0,65,72
17664,note_on,,96,0,2,,,,,,,0,74,0
17664,note_on,,48,0,4,,,,,,,0,51,0
17712,note_on,,48,0,1,,,,,,,0,65,0
17712,note_on,,0,0,1,,,,,,,0,63,72
17712,note_on,,0,0,2,,,,,,,0,67,72
17712,note_on,,48,0,2,,,,,,,0,74,0
17760,note_on,,0,0,1,,,,,,,0,62,72
17760,note_on,,0,0,2,,,,,,,0,65,72
17760,note_on,,48,0,2,,,,,,,0,67,0
17760,note_on,,0,0,3,,,,,,,0,57,72
17760,note_on,,96,0,3,,,,,,,0,58,0
17760,note_on,,48,0,1,,,,,,,0,63,0
17808,note_on,,0,0,2,,,,,,,0,63,72
17808,note_on,,48,0,2,,,,,,,0,65,0
17808,note_on,,48,0,1,,,,,,,0,62,0
17808,note_on,,0,0,1,,,,,,,0,60,72
17856,note_on,,192,0,4,,,,,,,0,53,0
17856,note_on,,0,0,2,,,,,,,0,62,72
17856,note_on,,48,0,2,,,,,,,0,63,0
17856,note_on,,0,0,3,,,,,,,0,58,72
17856,note_on,,96,0,3,,,,,,,0,57,0
17856,note_on,,48,0,1,,,,,,,0,60,0
17856,note_on,,0,0,1,,,,,,,0,62,72
17856,note_on,,0,0,4,,,,,,,0,46,88
17904,note_on,,0,0,2,,,,,,,0,65,72
17904,note_on,,48,0,2,,,,,,,0,62,0
17952,note_on,,48,0,2,,,,,,,0,65,0
17952,note_on,,0,0,2,,,,,,,0,67,72
18000,note_on,,0,0,2,,,,,,,0,69,72
18000,note_on,,48,0,2,,,,,,,0,67,0
18000,note_on,,0,0,4,,,,,,,0,48,88
18000,note_on,,144,0,4,,,,,,,0,46,0
18048,note_on,,192,0,1,,,,,,,0,62,0
18048,note_on,,48,0,4,,,,,,,0,48,0
18048,note_on,,0,0,4,,,,,,,0,50,88
18048,note_on,,192,0,3,,,,,,,0,58,0
18048,note_on,,0,0,2,,,,,,,0,70,72
18048,note_on,,48,0,2,,,,,,,0,69,0
18096,note_on,,0,0,2,,,,,,,0,65,72
18096,note_on,,48,0,1,,,,,,,0,57,72
18096,note_on,,48,0,2,,,,,,,0,70,0
18144,note_on,,0,0,2,,,,,,,0,70,72
18144,note_on,,0,0,1,,,,,,,0,58,72
18144,note_on,,48,0,1,,,,,,,0,57,0
18144,note_on,,48,0,2,,,,,,,0,65,0
18192,note_on,,0,0,4,,,,,,,0,51,88
18192,note_on,,144,0,4,,,,,,,0,50,0
18192,note_on,,48,0,1,,,,,,,0,58,0
18192,note_on,,0,0,1,,,,,,,0,60,72
18240,note_on,,0,0,1,,,,,,,0,62,72
18240,note_on,,48,0,1,,,,,,,0,60,0
18240,note_on,,192,0,3,,,,,,,0,65,88
18240,note_on,,0,0,4,,,,,,,0,53,88
18240,note_on,,48,0,4,,,,,,,0,51,0
18288,note_on,,0,0,2,,,,,,,0,72,72
18288,note_on,,48,0,1,,,,,,,0,62,0
18288,note_on,,0,0,1,,,,,,,0,60,72
18288,note_on,,144,0,2,,,,,,,0,70,0
18336,note_on,,48,0,2,,,,,,,0,72,0
18336,note_on,,0,0,1,,,,,,,0,63,72
18336,note_on,,0,0,2,,,,,,,0,70,72
18336,note_on,,48,0,1,,,,,,,0,60,0
18384,note_on,,48,0,2,,,,,,,0,70,0
18384,note_on,,0,0,2,,,,,,,0,69,72
18432,note_on,,0,0,3,,,,,,,0,58,88
18432,note_on,,192,0,3,,,,,,,0,65,0
18432,note_on,,48,0,2,,,,,,,0,69,0
18432,note_on,,0,0,2,,,,,,,0,70,72
18432,note_on,,192,0,4,,,,,,,0,53,0
18432,note_on,,0,0,4,,,,,,,0,55,88
18432,note_on,,96,0,1,,,,,,,0,63,0
18432,note_on,,0,0,1,,,,,,,0,62,72
18480,note_on,,0,0,2,,,,,,,0,72,72
18480,note_on,,48,0,2,,,,,,,0,70,0
18528,note_on,,0,0,2,,,,,,,0,74,72
18528,note_on,,96,0,1,,,,,,,0,62,0
18528,note_on,,0,0,1,,,,,,,0,67,72
18528,note_on,,48,0,2,,,,,,,0,72,0
18576,note_on,,48,0,1,,,,,,,0,67,0
18576,note_on,,0,0,3,,,,,,,0,60,88
18576,note_on,,144,0,3,,,,,,,0,58,0
18576,note_on,,0,0,1,,,,,,,0,69,72
18624,note_on,,48,0,1,,,,,,,0,69,0
18624,note_on,,0,0,4,,,,,,,0,53,88
18624,note_on,,0,0,3,,,,,,,0,62,88
18624,note_on,,48,0,3,,,,,,,0,60,0
18624,note_on,,192,0,4,,,,,,,0,55,0
18624,note_on,,0,0,1,,,,,,,0,70,72
18672,note_on,,0,0,2,,,,,,,0,75,72
18672,note_on,,144,0,2,,,,,,,0,74,0
18672,note_on,,0,0,1,,,,,,,0,72,72
18672,note_on,,48,0,1,,,,,,,0,70,0
18720,note_on,,0,0,1,,,,,,,0,74,72
18720,note_on,,48,0,1,,,,,,,0,72,0
18720,note_on,,48,0,2,,,,,,,0,75,0
18720,note_on,,0,0,2,,,,,,,0,77,72
18768,note_on,,144,0,3,,,,,,,0,62,0
18768,note_on,,0,0,3,,,,,,,0,63,88
18768,note_on,,0,0,4,,,,,,,0,51,88
18768,note_on,,144,0,4,,,,,,,0,53,0
18816,note_on,,48,0,4,,,,,,,0,51,0
18816,note_on,,0,0,2,,,,,,,0,77,72
18816,note_on,,96,0,2,,,,,,,0,77,0
18816,note_on,,0,0,4,,,,,,,0,50,88
18816,note_on,,0,0,1,,,,,,,0,74,72
18816,note_on,,0,0,3,,,,,,,0,65,88
18816,note_on,,48,0,3,,,,,,,0,63,0
18816,note_on,,96,0,1,,,,,,,0,74,0
18864,note_on,,48,0,1,,,,,,,0,74,0
18864,note_on,,0,0,1,,,,,,,0,72,72
18864,note_on,,0,0,2,,,,,,,0,75,72
18864,note_on,,48,0,2,,,,,,,0,77,0
18912,note_on,,0,0,2,,,,,,,0,74,72
18912,note_on,,0,0,1,,,,,,,0,70,72
18912,note_on,,48,0,1,,,,,,,0,72,0
18912,note_on,,48,0,2,,,,,,,0,75,0
18960,note_on,,0,0,2,,,,,,,0,72,72
18960,note_on,,0,0,1,,,,,,,0,69,72
18960,note_on,,48,0,1,,,,,,,0,70,0
18960,note_on,,48,0,2,,,,,,,0,74,0
19008,note_on,,48,0,1,,,,,,,0,69,0
19008,note_on,,0,0,3,,,,,,,0,67,88
19008,note_on,,192,0,3,,,,,,,0,65,0
19008,note_on,,0,0,2,,,,,,,0,70,72
19008,note_on,,192,0,4,,,,,,,0,50,0
19008,note_on,,0,0,4,,,,,,,0,50,88
19008,note_on,,48,0,2,,,,,,,0,72,0
19008,note_on,,0,0,1,,,,,,,0,67,72
19056,note_on,,0,0,1,,,,,,,0,69,72
19056,note_on,,48,0,4,,,,,,,0,50,0
19056,note_on,,0,0,4,,,,,,,0,48,88
19056,note_on,,48,0,1,,,,,,,0,67,0
19104,note_on,,48,0,1,,,,,,,0,69,0
19104,note_on,,0,0,1,,,,,,,0,70,72
19104,note_on,,48,0,4,,,,,,,0,48,0
19104,note_on,,0,0,4,,,,,,,0,50,88
19152,note_on,,0,0,4,,,,,,,0,51,88
19152,note_on,,0,0,2,,,,,,,0,72,72
19152,note_on,,144,0,2,,,,,,,0,70,0
19152,note_on,,48,0,4,,,,,,,0,50,0
19200,note_on,,0,0,2,,,,,,,0,74,72
19200,note_on,,0,0,1,,,,,,,0,70,72
19200,note_on,,48,0,2,,,,,,,0,72,0
19200,note_on,,96,0,1,,,,,,,0,70,0
19200,note_on,,0,0,3,,,,,,,0,65,88
19200,note_on,,0,0,4,,,,,,,0,53,88
19200,note_on,,48,0,4,,,,,,,0,51,0
19200,note_on,,192,0,3,,,,,,,0,67,0
19248,note_on,,0,0,1,,,,,,,0,67,72
19248,note_on,,48,0,1,,,,,,,0,70,0
19296,note_on,,0,0,1,,,,,,,0,69,72
19296,note_on,,96,0,2,,,,,,,0,74,0
19296,note_on,,0,0,2,,,,,,,0,72,72
19296,note_on,,48,0,1,,,,,,,0,67,0
19344,note_on,,144,0,3,,,,,,,0,65,0
19344,note_on,,0,0,3,,,,,,,0,63,88
19392,note_on,,48,0,3,,,,,,,0,63,0
19392,note_on,,0,0,3,,,,,,,0,62,88
19392,note_on,,96,0,2,,,,,,,0,72,0
19392,note_on,,0,0,2,,,,,,,0,77,72
19440,note_on,,0,0,1,,,,,,,0,65,72
19440,note_on,,144,0,1,,,,,,,0,69,0
19488,note_on,,48,0,1,,,,,,,0,65,0
19488,note_on,,0,0,1,,,,,,,0,67,72
19536,note_on,,48,0,1,,,,,,,0,67,0
19536,note_on,,0,0,1,,,,,,,0,69,72
19584,note_on,,0,0,2,,,,,,,0,77,72
19584,note_on,,192,0,3,,,,,,,0,62,0
19584,note_on,,0,0,3,,,,,,,0,62,88
19584,note_on,,192,0,2,,,,,,,0,77,0
19584,note_on,,48,0,1,,,,,,,0,69,0
19584,note_on,,0,0,1,,,,,,,0,70,72
19584,note_on,,0,0,4,,,,,,,0,53,88
19584,note_on,,384,0,4,,,,,,,0,53,0
19632,note_on,,0,0,2,,,,,,,0,76,72
19632,note_on,,48,0,2,,,,,,,0,77,0
19632,note_on,,48,0,3,,,,,,,0,62,0
19632,note_on,,0,0,3,,,,,,,0,60,88
19680,note_on,,0,0,2,,,,,,,0,77,72
19680,note_on,,0,0,3,,,,,,,0,62,88
19680,note_on,,48,0,2,,,,,,,0,76,0
19680,note_on,,48,0,3,,,,,,,0,60,0
19728,note_on,,0,0,3,,,,,,,0,64,88
19728,note_on,,0,0,2,,,,,,,0,79,72
19728,note_on,,48,0,2,,,,,,,0,77,0
19728,note_on,,48,0,3,,,,,,,0,62,0
19776,note_on,,0,0,1,,,,,,,0,70,72
19776,note_on,,48,0,3,,,,,,,0,64,0
19776,note_on,,0,0,3,,,,,,,0,65,88
19776,note_on,,192,0,1,,,,,,,0,70,0
19776,note_on,,192,0,4,,,,,,,0,53,0
19776,note_on,,0,0,4,,,,,,,0,53,88
19776,note_on,,48,0,2,,,,,,,0,79,0
19776,note_on,,0,0,2,,,,,,,0,72,72
19824,note_on,,0,0,1,,,,,,,0,70,72
19824,note_on,,48,0,4,,,,,,,0,53,0
19824,note_on,,0,0,4,,,,,,,0,53,88
19824,note_on,,48,0,2,,,,,,,0,72,0
19824,note_on,,0,0,2,,,,,,,0,72,72
19824,note_on,,0,0,3,,,,,,,0,65,88
19824,note_on,,48,0,1,,,,,,,0,70,0
19824,set_tempo,,19824,1,0,,,,,799605,,,,
19824,note_on,,48,0,3,,,,,,,0,65,0
19872,note_on,,0,0,1,,,,,,,0,69,72
19872,note_on,,48,0,1,,,,,,,0,70,0
19920,note_on,,48,0,1,,,,,,,0,69,0
19920,note_on,,0,0,1,,,,,,,0,67,72
19968,note_on,,48,0,1,,,,,,,0,67,0
19968,note_on,,0,0,3,,,,,,,0,65,88
19968,set_tempo,,144,1,0,,,,,666337,,,,
19968,note_on,,144,0,3,,,,,,,0,65,0
19968,note_on,,0,0,2,,,,,,,0,72,72
19968,note_on,,144,0,2,,,,,,,0,72,0
19968,note_on,,0,0,4,,,,,,,0,53,88
19968,note_on,,144,0,4,,,,,,,0,53,0
19968,note_on,,0,0,1,,,,,,,0,69,72
20064,note_on,,96,0,1,,,,,,,0,69,0
20064,note_on,,96,0,3,,,,,,,0,65,0
20064,note_on,,96,0,4,,,,,,,0,53,0
20064,note_on,,96,0,2,,,,,,,0,72,0
20064,note_on,,0,0,2,,,,,,,0,77,72
20160,note_on,,96,0,2,,,,,,,0,77,0
20160,note_on,,0,0,2,,,,,,,0,72,72
20160,note_on,,96,0,3,,,,,,,0,65,88
20256,note_on,,0,0,3,,,,,,,0,60,88
20256,note_on,,192,0,1,,,,,,,0,72,72
20256,note_on,,96,0,3,,,,,,,0,65,0
20304,note_on,,0,0,2,,,,,,,0,74,72
20304,note_on,,144,0,2,,,,,,,0,72,0
20352,note_on,,0,0,3,,,,,,,0,60,88
20352,note_on,,0,0,1,,,,,,,0,67,72
20352,note_on,,48,0,2,,,,,,,0,74,0
20352,note_on,,96,0,1,,,,,,,0,72,0
20352,note_on,,288,0,4,,,,,,,0,60,88
20352,note_on,,0,0,2,,,,,,,0,75,72
20352,note_on,,96,0,3,,,,,,,0,60,0
20400,note_on,,0,0,3,,,,,,,0,62,88
20400,note_on,,48,0,3,,,,,,,0,60,0
20448,note_on,,48,0,3,,,,,,,0,62,0
20448,note_on,,0,0,3,,,,,,,0,63,88
20448,note_on,,0,0,4,,,,,,,0,55,88
20448,note_on,,96,0,4,,,,,,,0,60,0
20496,note_on,,144,0,1,,,,,,,0,67,0
20496,note_on,,0,0,1,,,,,,,0,69,72
20496,note_on,,144,0,2,,,,,,,0,75,0
20496,note_on,,0,0,2,,,,,,,0,77,72
20544,note_on,,0,0,1,,,,,,,0,70,72
20544,note_on,,48,0,2,,,,,,,0,77,0
20544,note_on,,0,0,2,,,,,,,0,79,72
20544,note_on,,48,0,1,,,,,,,0,69,0
20592,note_on,,0,0,3,,,,,,,0,65,88
20592,note_on,,144,0,3,,,,,,,0,63,0
20592,note_on,,0,0,4,,,,,,,0,57,88
20592,note_on,,144,0,4,,,,,,,0,55,0
20640,note_on,,0,0,3,,,,,,,0,67,88
20640,note_on,,48,0,3,,,,,,,0,65,0
20640,note_on,,0,0,4,,,,,,,0,58,88
20640,note_on,,48,0,4,,,,,,,0,57,0
20640,note_on,,0,0,2,,,,,,,0,74,72
20640,note_on,,96,0,2,,,,,,,0,79,0
20688,note_on,,144,0,1,,,,,,,0,70,0
20688,note_on,,0,0,1,,,,,,,0,72,72
20736,note_on,,0,0,4,,,,,,,0,58,88
20736,note_on,,0,0,2,,,,,,,0,74,72
20736,note_on,,96,0,2,,,,,,,0,74,0
20736,note_on,,0,0,1,,,,,,,0,74,72
20736,note_on,,0,0,3,,,,,,,0,62,88
20736,note_on,,96,0,3,,,,,,,0,67,0
20736,note_on,,96,0,4,,,,,,,0,58,0
20736,note_on,,48,0,1,,,,,,,0,72,0
20784,note_on,,0,0,2,,,,,,,0,76,72
20784,note_on,,48,0,2,,,,,,,0,74,0
20784,note_on,,48,0,4,,,,,,,0,58,0
20784,note_on,,0,0,4,,,,,,,0,60,88
20832,note_on,,0,0,2,,,,,,,0,77,72
20832,note_on,,48,0,2,,,,,,,0,76,0
20832,note_on,,0,0,1,,,,,,,0,69,72
20832,note_on,,96,0,1,,,,,,,0,74,0
20832,note_on,,48,0,4,,,,,,,0,60,0
20832,note_on,,0,0,4,,,,,,,0,62,88
20880,note_on,,144,0,3,,,,,,,0,62,0
20880,note_on,,0,0,3,,,,,,,0,64,88
20928,note_on,,0,0,3,,,,,,,0,65,88
20928,note_on,,96,0,4,,,,,,,0,62,0
20928,note_on,,48,0,3,,,,,,,0,64,0
20928,note_on,,0,0,4,,,,,,,0,57,88
20976,note_on,,144,0,2,,,,,,,0,77,0
20976,note_on,,0,0,2,,,,,,,0,79,72
20976,note_on,,144,0,1,,,,,,,0,69,0
20976,note_on,,0,0,1,,,,,,,0,70,72
21024,note_on,,48,0,2,,,,,,,0,79,0
21024,note_on,,0,0,2,,,,,,,0,81,72
21024,note_on,,48,0,1,,,,,,,0,70,0
21024,note_on,,0,0,1,,,,,,,0,72,72
21072,note_on,,144,0,3,,,,,,,0,65,0
21072,note_on,,0,0,4,,,,,,,0,58,88
21072,note_on,,144,0,4,,,,,,,0,57,0
21072,note_on,,0,0,3,,,,,,,0,67,88
21120,note_on,,0,0,1,,,,,,,0,72,72
21120,note_on,,96,0,2,,,,,,,0,81,0
21120,note_on,,0,0,2,,,,,,,0,76,72
21120,note_on,,0,0,3,,,,,,,0,69,88
21120,note_on,,48,0,3,,,,,,,0,67,0
21120,note_on,,48,0,4,,,,,,,0,58,0
21120,note_on,,0,0,4,,,,,,,0,60,88
21120,note_on,,96,0,1,,,,,,,0,72,0
21168,note_on,,0,0,2,,,,,,,0,77,72
21168,note_on,,48,0,2,,,,,,,0,76,0
21216,note_on,,0,0,4,,,,,,,0,55,88
21216,note_on,,0,0,2,,,,,,,0,79,72
21216,note_on,,48,0,2,,,,,,,0,77,0
21216,note_on,,96,0,4,,,,,,,0,60,0
21216,note_on,,96,0,1,,,,,,,0,72,0
21216,note_on,,0,0,3,,,,,,,0,64,88
21216,note_on,,96,0,3,,,,,,,0,69,0
21216,note_on,,0,0,1,,,,,,,0,70,72
21264,note_on,,0,0,3,,,,,,,0,65,88
21264,note_on,,48,0,3,,,,,,,0,64,0
21264,note_on,,48,0,4,,,,,,,0,55,0
21264,note_on,,0,0,4,,,,,,,0,57,88
21312,note_on,,0,0,2,,,,,,,0,74,72
21312,note_on,,96,0,2,,,,,,,0,79,0
21312,note_on,,0,0,3,,,,,,,0,67,88
21312,note_on,,48,0,3,,,,,,,0,65,0
21312,note_on,,48,0,4,,,,,,,0,57,0
21312,note_on,,0,0,4,,,,,,,0,58,88
21360,note_on,,48,0,2,,,,,,,0,74,0
21360,note_on,,0,0,2,,,,,,,0,76,72
21408,note_on,,0,0,1,,,,,,,0,69,72
21408,note_on,,96,0,3,,,,,,,0,67,0
21408,note_on,,0,0,3,,,,,,,0,62,88
21408,note_on,,0,0,4,,,,,,,0,53,88
21408,note_on,,192,0,1,,,,,,,0,70,0
21408,note_on,,0,0,2,,,,,,,0,77,72
21408,note_on,,96,0,4,,,,,,,0,58,0
21408,note_on,,48,0,2,,,,,,,0,76,0
21456,note_on,,48,0,4,,,,,,,0,53,0
21456,note_on,,0,0,4,,,,,,,0,55,88
21504,note_on,,96,0,3,,,,,,,0,62,0
21504,note_on,,0,0,1,,,,,,,0,69,72
21504,note_on,,96,0,1,,,,,,,0,69,0
21504,note_on,,96,0,2,,,,,,,0,77,0
21504,note_on,,0,0,4,,,,,,,0,57,88
21504,note_on,,0,0,2,,,,,,,0,76,88
21504,note_on,,0,0,3,,,,,,,0,62,88
21504,note_on,,48,0,4,,,,,,,0,55,0
21552,note_on,,0,0,3,,,,,,,0,62,88
21552,note_on,,48,0,3,,,,,,,0,62,0
21552,note_on,,48,0,1,,,,,,,0,69,0
21552,note_on,,0,0,1,,,,,,,0,71,72
21600,note_on,,48,0,3,,,,,,,0,62,0
21600,note_on,,48,0,1,,,,,,,0,71,0
21600,note_on,,0,0,3,,,,,,,0,61,88
21600,note_on,,0,0,1,,,,,,,0,69,72
21648,note_on,,48,0,1,,,,,,,0,69,0
21648,note_on,,0,0,1,,,,,,,0,68,72
21648,note_on,,0,0,3,,,,,,,0,59,88
21648,note_on,,48,0,3,,,,,,,0,61,0
21696,note_on,,48,0,1,,,,,,,0,68,0
21696,note_on,,0,0,4,,,,,,,0,57,88
21696,note_on,,192,0,2,,,,,,,0,76,0
21696,note_on,,0,0,1,,,,,,,0,69,72
21696,note_on,,0,0,2,,,,,,,0,81,88
21696,note_on,,192,0,4,,,,,,,0,57,0
21696,note_on,,0,0,3,,,,,,,0,61,88
21696,note_on,,48,0,3,,,,,,,0,59,0
21744,note_on,,0,0,4,,,,,,,0,55,88
21744,note_on,,48,0,4,,,,,,,0,57,0
21792,note_on,,0,0,4,,,,,,,0,53,88
21792,note_on,,48,0,4,,,,,,,0,55,0
21840,note_on,,144,0,2,,,,,,,0,81,0
21840,note_on,,0,0,2,,,,,,,0,79,88
21840,note_on,,48,0,4,,,,,,,0,53,0
21840,note_on,,0,0,4,,,,,,,0,52,88
21888,note_on,,192,0,1,,,,,,,0,69,0
21888,note_on,,0,0,2,,,,,,,0,77,88
21888,note_on,,0,0,4,,,,,,,0,50,88
21888,note_on,,48,0,4,,,,,,,0,52,0
21888,note_on,,48,0,2,,,,,,,0,79,0
21888,note_on,,192,0,3,,,,,,,0,61,0
21888,note_on,,0,0,3,,,,,,,0,62,88
21936,note_on,,0,0,3,,,,,,,0,57,88
21936,note_on,,48,0,3,,,,,,,0,62,0
21984,note_on,,48,0,3,,,,,,,0,57,0
21984,note_on,,0,0,3,,,,,,,0,60,88
22032,note_on,,144,0,2,,,,,,,0,77,0
22032,note_on,,0,0,2,,,,,,,0,76,88
22080,note_on,,48,0,2,,,,,,,0,76,0
22080,note_on,,192,0,4,,,,,,,0,50,0
22080,note_on,,192,0,1,,,,,,,0,62,88
22080,note_on,,0,0,2,,,,,,,0,74,88
22128,note_on,,0,0,3,,,,,,,0,57,88
22128,note_on,,144,0,3,,,,,,,0,60,0
22176,note_on,,48,0,3,,,,,,,0,57,0
22176,note_on,,0,0,3,,,,,,,0,58,88
22176,note_on,,96,0,4,,,,,,,0,55,88
22224,note_on,,0,0,3,,,,,,,0,67,88
22224,note_on,,48,0,3,,,,,,,0,58,0
22272,note_on,,0,0,4,,,,,,,0,55,88
22272,note_on,,0,0,3,,,,,,,0,64,88
22272,note_on,,96,0,4,,,,,,,0,55,0
22272,note_on,,48,0,3,,,,,,,0,67,0
22272,note_on,,0,0,2,,,,,,,0,73,88
22272,note_on,,192,0,1,,,,,,,0,62,0
22272,note_on,,0,0,1,,,,,,,0,69,88
22272,note_on,,192,0,2,,,,,,,0,74,0
22320,note_on,,48,0,4,,,,,,,0,55,0
22320,note_on,,0,0,4,,,,,,,0,52,88
22368,note_on,,0,0,4,,,,,,,0,53,88
22368,note_on,,48,0,4,,,,,,,0,52,0
22368,note_on,,96,0,3,,,,,,,0,64,0
22368,note_on,,0,0,3,,,,,,,0,57,88
22416,note_on,,144,0,1,,,,,,,0,69,0
22416,note_on,,0,0,1,,,,,,,0,67,88
22464,note_on,,48,0,1,,,,,,,0,67,0
22464,note_on,,192,0,2,,,,,,,0,73,0
22464,note_on,,0,0,2,,,,,,,0,74,88
22464,note_on,,0,0,1,,,,,,,0,65,88
22512,note_on,,0,0,3,,,,,,,0,57,88
22512,note_on,,144,0,3,,,,,,,0,57,0
22560,note_on,,48,0,3,,,,,,,0,57,0
22560,note_on,,0,0,3,,,,,,,0,59,88
22608,note_on,,48,0,3,,,,,,,0,59,0
22608,note_on,,0,0,3,,,,,,,0,61,88
22608,note_on,,144,0,2,,,,,,,0,74,0
22608,note_on,,0,0,2,,,,,,,0,76,88
22608,note_on,,0,0,1,,,,,,,0,64,88
22608,note_on,,144,0,1,,,,,,,0,65,0
22656,note_on,,288,0,4,,,,,,,0,53,0
22656,note_on,,0,0,4,,,,,,,0,53,88
22656,note_on,,48,0,2,,,,,,,0,76,0
22656,note_on,,0,0,1,,,,,,,0,62,88
22656,note_on,,0,0,3,,,,,,,0,62,88
22656,note_on,,0,0,2,,,,,,,0,77,88
22656,note_on,,48,0,1,,,,,,,0,64,0
22656,note_on,,48,0,3,,,,,,,0,61,0
22704,note_on,,0,0,4,,,,,,,0,52,88
22704,note_on,,48,0,4,,,,,,,0,53,0
22752,note_on,,96,0,3,,,,,,,0,62,0
22752,note_on,,48,0,4,,,,,,,0,52,0
22752,note_on,,0,0,4,,,,,,,0,53,88
22800,note_on,,0,0,4,,,,,,,0,55,88
22800,note_on,,48,0,4,,,,,,,0,53,0
22848,note_on,,48,0,4,,,,,,,0,55,0
22848,note_on,,0,0,1,,,,,,,0,61,88
22848,note_on,,192,0,1,,,,,,,0,62,0
22848,note_on,,0,0,2,,,,,,,0,77,88
22848,note_on,,192,0,2,,,,,,,0,77,0
22848,note_on,,0,0,4,,,,,,,0,57,88
22896,note_on,,0,0,2,,,,,,,0,79,88
22896,note_on,,48,0,2,,,,,,,0,77,0
22944,note_on,,0,0,2,,,,,,,0,77,88
22944,note_on,,192,0,3,,,,,,,0,69,88
22944,note_on,,48,0,2,,,,,,,0,79,0
22992,note_on,,48,0,2,,,,,,,0,77,0
22992,note_on,,0,0,2,,,,,,,0,76,88
23040,note_on,,48,0,2,,,,,,,0,76,0
23040,note_on,,0,0,2,,,,,,,0,74,88
23040,note_on,,0,0,3,,,,,,,0,70,88
23040,note_on,,96,0,3,,,,,,,0,69,0
23040,note_on,,0,0,4,,,,,,,0,57,88
23040,note_on,,192,0,4,,,,,,,0,57,0
23040,note_on,,192,0,1,,,,,,,0,61,0
23040,note_on,,0,0,1,,,,,,,0,62,88
23088,note_on,,48,0,4,,,,,,,0,57,0
23088,note_on,,0,0,4,,,,,,,0,54,88
23136,note_on,,48,0,4,,,,,,,0,54,0
23136,note_on,,0,0,4,,,,,,,0,55,88
23136,note_on,,96,0,3,,,,,,,0,70,0
23136,note_on,,0,0,3,,,,,,,0,58,88
23184,note_on,,144,0,1,,,,,,,0,62,0
23184,note_on,,0,0,1,,,,,,,0,64,88
23232,note_on,,96,0,3,,,,,,,0,58,0
23232,note_on,,48,0,1,,,,,,,0,64,0
23232,note_on,,0,0,1,,,,,,,0,65,88
23232,note_on,,96,0,4,,,,,,,0,55,0
23232,note_on,,0,0,4,,,,,,,0,50,88
23232,note_on,,0,0,3,,,,,,,0,57,88
23280,note_on,,48,0,3,,,,,,,0,57,0
23280,note_on,,0,0,3,,,,,,,0,55,88
23328,note_on,,48,0,3,,,,,,,0,55,0
23328,note_on,,288,0,2,,,,,,,0,74,0
23328,note_on,,0,0,2,,,,,,,0,69,72
23328,note_on,,0,0,3,,,,,,,0,57,88
23376,note_on,,48,0,3,,,,,,,0,57,0
23376,note_on,,0,0,3,,,,,,,0,58,88
23424,note_on,,48,0,3,,,,,,,0,58,0
23424,note_on,,0,0,3,,,,,,,0,60,88
23424,note_on,,192,0,1,,,,,,,0,65,0
23424,note_on,,0,0,1,,,,,,,0,65,88
23424,note_on,,96,0,2,,,,,,,0,69,0
23424,note_on,,0,0,4,,,,,,,0,45,88
23424,note_on,,192,0,4,,,,,,,0,50,0
23424,note_on,,0,0,2,,,,,,,0,69,72
23472,note_on,,0,0,1,,,,,,,0,67,88
23472,note_on,,48,0,1,,,,,,,0,65,0
23520,note_on,,0,0,2,,,,,,,0,72,72
23520,note_on,,0,0,1,,,,,,,0,65,88
23520,note_on,,96,0,2,,,,,,,0,69,0
23520,note_on,,48,0,1,,,,,,,0,67,0
23568,note_on,,48,0,1,,,,,,,0,65,0
23568,note_on,,0,0,1,,,,,,,0,63,88
23616,note_on,,192,0,3,,,,,,,0,60,0
23616,note_on,,48,0,1,,,,,,,0,63,0
23616,note_on,,0,0,1,,,,,,,0,62,88
23616,note_on,,0,0,2,,,,,,,0,65,72
23616,note_on,,96,0,2,,,,,,,0,72,0
23616,note_on,,192,0,4,,,,,,,0,45,0
23616,note_on,,0,0,4,,,,,,,0,46,88
23616,note_on,,0,0,3,,,,,,,0,60,88
23664,note_on,,48,0,3,,,,,,,0,60,0
23664,note_on,,0,0,3,,,,,,,0,60,88
23712,note_on,,48,0,3,,,,,,,0,60,0
23712,note_on,,0,0,3,,,,,,,0,58,88
23760,note_on,,0,0,3,,,,,,,0,57,88
23760,note_on,,48,0,3,,,,,,,0,58,0
23808,note_on,,48,0,3,,,,,,,0,57,0
23808,note_on,,192,0,2,,,,,,,0,65,0
23808,note_on,,0,0,1,,,,,,,0,62,88
23808,note_on,,192,0,1,,,,,,,0,62,0
23808,note_on,,0,0,3,,,,,,,0,55,88
23808,note_on,,192,0,4,,,,,,,0,46,0
23808,note_on,,0,0,4,,,,,,,0,47,88
23808,note_on,,0,0,2,,,,,,,0,65,72
23856,note_on,,48,0,2,,,,,,,0,65,0
23856,note_on,,0,0,2,,,,,,,0,69,72
23904,note_on,,48,0,2,,,,,,,0,69,0
23904,note_on,,0,0,2,,,,,,,0,67,72
23952,note_on,,48,0,2,,,,,,,0,67,0
23952,note_on,,0,0,2,,,,,,,0,65,72
24000,note_on,,48,0,2,,,,,,,0,65,0
24000,note_on,,0,0,4,,,,,,,0,48,88
24000,note_on,,0,0,2,,,,,,,0,64,72
24000,note_on,,192,0,4,,,,,,,0,47,0
24000,note_on,,0,0,1,,,,,,,0,62,88
24000,note_on,,192,0,1,,,,,,,0,62,0
24048,note_on,,0,0,1,,,,,,,0,62,72
24048,note_on,,48,0,1,,,,,,,0,62,0
24096,note_on,,0,0,1,,,,,,,0,60,72
24096,note_on,,48,0,1,,,,,,,0,62,0
24144,note_on,,48,0,1,,,,,,,0,60,0
24144,note_on,,0,0,1,,,,,,,0,58,72
24192,note_on,,192,0,2,,,,,,,0,64,0
24192,note_on,,384,0,3,,,,,,,0,55,0
24192,note_on,,192,0,4,,,,,,,0,48,0
24192,note_on,,0,0,4,,,,,,,0,49,88
24192,note_on,,0,0,3,,,,,,,0,55,88
24192,note_on,,0,0,2,,,,,,,0,64,72
24192,note_on,,48,0,1,,,,,,,0,58,0
24192,note_on,,0,0,1,,,,,,,0,57,72
24240,note_on,,48,0,3,,,,,,,0,55,0
24240,note_on,,0,0,3,,,,,,,0,55,88
24288,note_on,,48,0,3,,,,,,,0,55,0
24288,note_on,,0,0,3,,,,,,,0,53,88
24336,note_on,,48,0,3,,,,,,,0,53,0
24336,note_on,,0,0,3,,,,,,,0,52,88
24384,note_on,,0,0,2,,,,,,,0,64,72
24384,note_on,,192,0,4,,,,,,,0,49,0
24384,note_on,,0,0,4,,,,,,,0,50,88
24384,note_on,,192,0,2,,,,,,,0,64,0
24384,note_on,,0,0,3,,,,,,,0,53,88
24384,note_on,,48,0,3,,,,,,,0,52,0
24432,note_on,,48,0,2,,,,,,,0,64,0
24432,note_on,,0,0,2,,,,,,,0,62,72
24480,note_on,,0,0,4,,,,,,,0,50,88
24480,note_on,,0,0,1,,,,,,,0,56,72
24480,note_on,,96,0,4,,,,,,,0,50,0
24480,note_on,,288,0,1,,,,,,,0,57,0
24480,note_on,,0,0,3,,,,,,,0,53,72
24480,note_on,,96,0,3,,,,,,,0,53,0
24480,set_tempo,,4512,1,0,,,,,799605,,,,
24480,note_on,,0,0,2,,,,,,,0,61,72
24480,note_on,,48,0,2,,,,,,,0,62,0
24528,note_on,,0,0,2,,,,,,,0,62,72
24528,note_on,,48,0,2,,,,,,,0,61,0
24576,note_on,,0,0,4,,,,,,,0,45,88
24576,note_on,,48,0,2,,,,,,,0,62,0
24576,note_on,,0,0,2,,,,,,,0,61,72
24576,note_on,,96,0,4,,,,,,,0,50,0
24576,set_tempo,,96,1,0,,,,,666337,,,,
24576,note_on,,0,0,1,,,,,,,0,57,72
24576,note_on,,96,0,3,,,,,,,0,53,0
24576,note_on,,0,0,3,,,,,,,0,52,72
24576,note_on,,96,0,1,,,,,,,0,56,0
24672,note_on,,0,0,2,,,,,,,0,76,72
24672,note_on,,96,0,2,,,,,,,0,61,0
24672,note_on,,96,0,3,,,,,,,0,52,0
24672,note_on,,96,0,1,,,,,,,0,57,0
24672,note_on,,96,0,4,,,,,,,0,45,0
24768,note_on,,0,0,2,,,,,,,0,81,72
24768,note_on,,96,0,2,,,,,,,0,76,0
24768,note_on,,96,0,4,,,,,,,0,57,88
24864,note_on,,192,0,1,,,,,,,0,69,72
24864,note_on,,0,0,4,,,,,,,0,62,88
24864,note_on,,96,0,4,,,,,,,0,57,0
24912,note_on,,0,0,2,,,,,,,0,79,72
24912,note_on,,144,0,2,,,,,,,0,81,0
24960,note_on,,0,0,1,,,,,,,0,74,72
24960,note_on,,288,0,3,,,,,,,0,62,72
24960,note_on,,96,0,1,,,,,,,0,69,0
24960,note_on,,0,0,2,,,,,,,0,77,72
24960,note_on,,48,0,2,,,,,,,0,79,0
24960,note_on,,0,0,4,,,,,,,0,62,88
24960,note_on,,96,0,4,,,,,,,0,62,0
25008,note_on,,0,0,4,,,,,,,0,60,88
25008,note_on,,48,0,4,,,,,,,0,62,0
25056,note_on,,0,0,4,,,,,,,0,58,88
25056,note_on,,96,0,3,,,,,,,0,62,0
25056,note_on,,0,0,3,,,,,,,0,67,72
25056,note_on,,48,0,4,,,,,,,0,60,0
25104,note_on,,0,0,1,,,,,,,0,72,72
25104,note_on,,144,0,1,,,,,,,0,74,0
25104,note_on,,0,0,2,,,,,,,0,76,72
25104,note_on,,144,0,2,,,,,,,0,77,0
25152,note_on,,48,0,1,,,,,,,0,72,0
25152,note_on,,0,0,2,,,,,,,0,77,72
25152,note_on,,48,0,2,,,,,,,0,76,0
25152,note_on,,0,0,1,,,,,,,0,70,72
25200,note_on,,0,0,3,,,,,,,0,65,72
25200,note_on,,144,0,4,,,,,,,0,58,0
25200,note_on,,0,0,4,,,,,,,0,57,88
25200,note_on,,144,0,3,,,,,,,0,67,0
25248,note_on,,0,0,4,,,,,,,0,55,88
25248,note_on,,48,0,4,,,,,,,0,57,0
25248,note_on,,96,0,2,,,,,,,0,77,0
25248,note_on,,0,0,2,,,,,,,0,79,72
25248,note_on,,0,0,3,,,,,,,0,64,72
25248,note_on,,48,0,3,,,,,,,0,65,0
25296,note_on,,0,0,1,,,,,,,0,69,72
25296,note_on,,144,0,1,,,,,,,0,70,0
25344,note_on,,0,0,2,,,,,,,0,79,72
25344,note_on,,96,0,4,,,,,,,0,55,0
25344,note_on,,0,0,4,,,,,,,0,60,88
25344,note_on,,96,0,2,,,,,,,0,79,0
25344,note_on,,48,0,1,,,,,,,0,69,0
25344,note_on,,0,0,1,,,,,,,0,67,72
25344,note_on,,0,0,3,,,,,,,0,64,72
25344,note_on,,96,0,3,,,,,,,0,64,0
25392,note_on,,0,0,3,,,,,,,0,62,72
25392,note_on,,48,0,3,,,,,,,0,64,0
25392,note_on,,48,0,2,,,,,,,0,79,0
25392,note_on,,0,0,2,,,,,,,0,77,72
25440,note_on,,48,0,3,,,,,,,0,62,0
25440,note_on,,48,0,2,,,,,,,0,77,0
25440,note_on,,0,0,2,,,,,,,0,76,72
25440,note_on,,0,0,1,,,,,,,0,72,72
25440,note_on,,96,0,1,,,,,,,0,67,0
25440,note_on,,0,0,3,,,,,,,0,60,72
25488,note_on,,0,0,4,,,,,,,0,58,88
25488,note_on,,144,0,4,,,,,,,0,60,0
25536,note_on,,0,0,4,,,,,,,0,57,88
25536,note_on,,0,0,3,,,,,,,0,65,72
25536,note_on,,96,0,3,,,,,,,0,60,0
25536,note_on,,48,0,4,,,,,,,0,58,0
25584,note_on,,144,0,2,,,,,,,0,76,0
25584,note_on,,0,0,1,,,,,,,0,70,72
25584,note_on,,144,0,1,,,,,,,0,72,0
25584,note_on,,0,0,2,,,,,,,0,74,72
25632,note_on,,0,0,1,,,,,,,0,69,72
25632,note_on,,48,0,2,,,,,,,0,74,0
25632,note_on,,0,0,2,,,,,,,0,72,72
25632,note_on,,48,0,1,,,,,,,0,70,0
25680,note_on,,0,0,4,,,,,,,0,55,88
25680,note_on,,144,0,4,,,,,,,0,57,0
25680,note_on,,0,0,3,,,,,,,0,64,72
25680,note_on,,144,0,3,,,,,,,0,65,0
25728,note_on,,96,0,2,,,,,,,0,72,0
25728,note_on,,48,0,3,,,,,,,0,64,0
25728,note_on,,0,0,2,,,,,,,0,77,72
25728,note_on,,96,0,1,,,,,,,0,69,0
25728,note_on,,0,0,1,,,,,,,0,69,72
25728,note_on,,0,0,4,,,,,,,0,53,88
25728,note_on,,48,0,4,,,,,,,0,55,0
25728,note_on,,0,0,3,,,,,,,0,62,72
25776,note_on,,48,0,2,,,,,,,0,77,0
25776,note_on,,0,0,2,,,,,,,0,76,72
25776,note_on,,0,0,1,,,,,,,0,67,72
25776,note_on,,48,0,1,,,,,,,0,69,0
25824,note_on,,0,0,1,,,,,,,0,65,72
25824,note_on,,48,0,1,,,,,,,0,67,0
25824,note_on,,96,0,4,,,,,,,0,53,0
25824,note_on,,0,0,4,,,,,,,0,58,88
25824,note_on,,0,0,2,,,,,,,0,74,72
25824,note_on,,48,0,2,,,,,,,0,76,0
25872,note_on,,48,0,4,,,,,,,0,58,0
25872,note_on,,0,0,4,,,,,,,0,57,88
25920,note_on,,96,0,2,,,,,,,0,74,0
25920,note_on,,0,0,2,,,,,,,0,79,72
25920,note_on,,0,0,1,,,,,,,0,70,72
25920,note_on,,48,0,4,,,,,,,0,57,0
25920,note_on,,96,0,1,,,,,,,0,65,0
25920,note_on,,0,0,4,,,,,,,0,55,88
25968,note_on,,48,0,1,,,,,,,0,70,0
25968,note_on,,0,0,1,,,,,,,0,69,72
25968,note_on,,48,0,2,,,,,,,0,79,0
25968,note_on,,0,0,2,,,,,,,0,77,72
26016,note_on,,0,0,2,,,,,,,0,76,72
26016,note_on,,0,0,1,,,,,,,0,67,72
26016,note_on,,48,0,1,,,,,,,0,69,0
26016,note_on,,48,0,2,,,,,,,0,77,0
26016,note_on,,96,0,4,,,,,,,0,55,0
26016,note_on,,0,0,4,,,,,,,0,60,88
26016,note_on,,288,0,3,,,,,,,0,62,0
26016,note_on,,0,0,3,,,,,,,0,64,72
26064,note_on,,48,0,4,,,,,,,0,60,0
26064,note_on,,0,0,4,,,,,,,0,58,88
26112,note_on,,96,0,1,,,,,,,0,67,0
26112,note_on,,48,0,4,,,,,,,0,58,0
26112,note_on,,0,0,4,,,,,,,0,57,88
26112,note_on,,0,0,2,,,,,,,0,81,88
26112,note_on,,96,0,2,,,,,,,0,76,0
26112,note_on,,0,0,1,,,,,,,0,72,72
26112,note_on,,96,0,3,,,,,,,0,64,0
26112,note_on,,0,0,3,,,,,,,0,64,72
26160,note_on,,0,0,1,,,,,,,0,70,72
26160,note_on,,48,0,1,,,,,,,0,72,0
26160,note_on,,0,0,3,,,,,,,0,62,72
26160,note_on,,48,0,3,,,,,,,0,64,0
26208,note_on,,0,0,1,,,,,,,0,72,72
26208,note_on,,0,0,3,,,,,,,0,64,72
26208,note_on,,48,0,1,,,,,,,0,70,0
26208,note_on,,48,0,3,,,,,,,0,62,0
26256,note_on,,48,0,3,,,,,,,0,64,0
26256,note_on,,0,0,3,,,,,,,0,66,72
26304,note_on,,0,0,2,,,,,,,0,74,88
26304,note_on,,192,0,2,,,,,,,0,81,0
26304,note_on,,192,0,4,,,,,,,0,57,0
26304,note_on,,0,0,3,,,,,,,0,67,72
26304,note_on,,48,0,3,,,,,,,0,66,0
26304,note_on,,0,0,4,,,,,,,0,55,88
26352,note_on,,0,0,1,,,,,,,0,69,72
26352,note_on,,144,0,1,,,,,,,0,72,0
26400,note_on,,0,0,1,,,,,,,0,70,72
26400,note_on,,48,0,1,,,,,,,0,69,0
26448,note_on,,144,0,2,,,,,,,0,74,0
26448,note_on,,0,0,2,,,,,,,0,76,88
26496,note_on,,192,0,4,,,,,,,0,55,0
26496,note_on,,0,0,3,,,,,,,0,69,88
26496,note_on,,192,0,3,,,,,,,0,67,0
26496,note_on,,0,0,2,,,,,,,0,77,88
26496,note_on,,48,0,2,,,,,,,0,76,0
26496,note_on,,0,0,4,,,,,,,0,50,88
26496,note_on,,96,0,1,,,,,,,0,70,0
26496,note_on,,0,0,1,,,,,,,0,69,72
26544,note_on,,0,0,1,,,,,,,0,73,72
26544,note_on,,48,0,1,,,,,,,0,69,0
26592,note_on,,0,0,1,,,,,,,0,74,72
26592,note_on,,48,0,1,,,,,,,0,73,0
26640,note_on,,0,0,1,,,,,,,0,76,72
26640,note_on,,48,0,1,,,,,,,0,74,0
26640,note_on,,144,0,2,,,,,,,0,77,0
26640,note_on,,0,0,2,,,,,,,0,79,88
26688,note_on,,0,0,3,,,,,,,0,62,88
26688,note_on,,0,0,1,,,,,,,0,77,72
26688,note_on,,48,0,1,,,,,,,0,76,0
26688,note_on,,0,0,2,,,,,,,0,81,88
26688,note_on,,192,0,3,,,,,,,0,69,0
26688,note_on,,48,0,2,,,,,,,0,79,0
26688,note_on,,192,0,4,,,,,,,0,50,0
26736,note_on,,48,0,4,,,,,,,0,67,88
26784,note_on,,0,0,4,,,,,,,0,65,88
26784,note_on,,48,0,4,,,,,,,0,67,0
26832,note_on,,144,0,3,,,,,,,0,62,0
26832,note_on,,0,0,4,,,,,,,0,64,88
26832,note_on,,48,0,4,,,,,,,0,65,0
26832,note_on,,0,0,3,,,,,,,0,64,88
26880,note_on,,0,0,3,,,,,,,0,65,88
26880,note_on,,48,0,3,,,,,,,0,64,0
26880,note_on,,0,0,2,,,,,,,0,82,88
26880,note_on,,0,0,4,,,,,,,0,62,88
26880,note_on,,192,0,2,,,,,,,0,81,0
26880,note_on,,48,0,4,,,,,,,0,64,0
26880,note_on,,192,0,1,,,,,,,0,77,0
26928,note_on,,48,0,1,,,,,,,0,81,72
26976,note_on,,48,0,1,,,,,,,0,81,0
26976,note_on,,0,0,1,,,,,,,0,79,72
27024,note_on,,0,0,1,,,,,,,0,77,72
27024,note_on,,48,0,1,,,,,,,0,79,0
27024,note_on,,144,0,3,,,,,,,0,65,0
27024,note_on,,0,0,3,,,,,,,0,67,88
27072,note_on,,192,0,2,,,,,,,0,82,0
27072,note_on,,48,0,1,,,,,,,0,77,0
27072,note_on,,0,0,2,,,,,,,0,81,88
27072,note_on,,48,0,3,,,,,,,0,67,0
27072,note_on,,0,0,1,,,,,,,0,76,72
27072,note_on,,0,0,3,,,,,,,0,69,88
27120,note_on,,0,0,1,,,,,,,0,74,72
27120,note_on,,48,0,1,,,,,,,0,76,0
27168,note_on,,288,0,4,,,,,,,0,62,0
27168,note_on,,0,0,4,,,,,,,0,61,88
27168,note_on,,0,0,1,,,,,,,0,76,72
27168,note_on,,48,0,1,,,,,,,0,74,0
27216,note_on,,0,0,2,,,,,,,0,79,88
27216,note_on,,144,0,2,,,,,,,0,81,0
27264,note_on,,0,0,2,,,,,,,0,77,88
27264,note_on,,48,0,2,,,,,,,0,79,0
27264,note_on,,192,0,3,,,,,,,0,69,0
27264,note_on,,0,0,4,,,,,,,0,62,88
27264,note_on,,0,0,3,,,,,,,0,70,88
27264,note_on,,0,0,1,,,,,,,0,74,72
27264,note_on,,96,0,4,,,,,,,0,61,0
27264,note_on,,96,0,1,,,,,,,0,76,0
27312,note_on,,0,0,4,,,,,,,0,55,88
27312,note_on,,48,0,4,,,,,,,0,62,0
27360,note_on,,48,0,4,,,,,,,0,55,0
27360,note_on,,0,0,4,,,,,,,0,57,88
27408,note_on,,48,0,4,,,,,,,0,57,0
27408,note_on,,0,0,4,,,,,,,0,58,88
27456,note_on,,48,0,4,,,,,,,0,58,0
27456,note_on,,0,0,4,,,,,,,0,60,88
27456,note_on,,192,0,2,,,,,,,0,77,0
27456,note_on,,0,0,2,,,,,,,0,77,88
27456,note_on,,0,0,3,,,,,,,0,69,88
27456,note_on,,192,0,1,,,,,,,0,74,0
27456,note_on,,192,0,3,,,,,,,0,70,0
27504,note_on,,0,0,4,,,,,,,0,48,88
27504,note_on,,48,0,4,,,,,,,0,60,0
27504,note_on,,0,0,2,,,,,,,0,76,88
27504,note_on,,48,0,2,,,,,,,0,77,0
27552,note_on,,48,0,2,,,,,,,0,76,0
27552,note_on,,0,0,2,,,,,,,0,77,88
27552,note_on,,0,0,4,,,,,,,0,50,88
27552,note_on,,48,0,4,,,,,,,0,48,0
27600,note_on,,0,0,4,,,,,,,0,52,88
27600,note_on,,144,0,3,,,,,,,0,69,0
27600,note_on,,48,0,2,,,,,,,0,77,0
27600,note_on,,0,0,3,,,,,,,0,67,88
27600,note_on,,0,0,2,,,,,,,0,79,88
27600,note_on,,48,0,4,,,,,,,0,50,0
27648,note_on,,0,0,3,,,,,,,0,65,88
27648,note_on,,48,0,3,,,,,,,0,67,0
27648,note_on,,0,0,4,,,,,,,0,53,88
27648,note_on,,48,0,4,,,,,,,0,52,0
27648,note_on,,48,0,2,,,,,,,0,79,0
27648,note_on,,0,0,2,,,,,,,0,81,88
27696,note_on,,0,0,4,,,,,,,0,55,88
27696,note_on,,0,0,2,,,,,,,0,79,88
27696,note_on,,48,0,2,,,,,,,0,81,0
27696,note_on,,48,0,4,,,,,,,0,53,0
27744,note_on,,48,0,4,,,,,,,0,55,0
27744,note_on,,48,0,2,,,,,,,0,79,0
27744,note_on,,0,0,2,,,,,,,0,77,88
27744,note_on,,0,0,4,,,,,,,0,57,88
27792,note_on,,48,0,2,,,,,,,0,77,0
27792,note_on,,0,0,2,,,,,,,0,81,88
27792,note_on,,48,0,4,,,,,,,0,57,0
27792,note_on,,0,0,4,,,,,,,0,53,88
27840,note_on,,48,0,4,,,,,,,0,53,0
27840,note_on,,0,0,4,,,,,,,0,58,88
27840,note_on,,192,0,3,,,,,,,0,65,0
27840,note_on,,0,0,3,,,,,,,0,65,88
27840,note_on,,0,0,2,,,,,,,0,74,88
27840,note_on,,48,0,2,,,,,,,0,81,0
27888,note_on,,48,0,3,,,,,,,0,65,0
27888,note_on,,0,0,3,,,,,,,0,64,88
27936,note_on,,0,0,4,,,,,,,0,57,88
27936,note_on,,0,0,3,,,,,,,0,66,88
27936,note_on,,48,0,3,,,,,,,0,64,0
27936,note_on,,96,0,4,,,,,,,0,58,0
27984,note_on,,0,0,3,,,,,,,0,67,88
27984,note_on,,0,0,4,,,,,,,0,55,88
27984,note_on,,48,0,4,,,,,,,0,57,0
27984,note_on,,48,0,3,,,,,,,0,66,0
28032,note_on,,0,0,4,,,,,,,0,54,88
28032,note_on,,48,0,4,,,,,,,0,55,0
28032,note_on,,0,0,2,,,,,,,0,74,88
28032,note_on,,48,0,3,,,,,,,0,67,0
28032,note_on,,0,0,3,,,,,,,0,69,88
28032,note_on,,192,0,2,,,,,,,0,74,0
28080,note_on,,0,0,2,,,,,,,0,70,88
28080,note_on,,48,0,2,,,,,,,0,74,0
28080,note_on,,0,0,3,,,,,,,0,67,72
28080,note_on,,48,0,3,,,,,,,0,69,0
28128,note_on,,0,0,4,,,,,,,0,57,88
28128,note_on,,0,0,3,,,,,,,0,66,72
28128,note_on,,0,0,2,,,,,,,0,72,88
28128,note_on,,48,0,2,,,,,,,0,70,0
28128,note_on,,96,0,4,,,,,,,0,54,0
28128,note_on,,48,0,3,,,,,,,0,67,0
28176,note_on,,48,0,3,,,,,,,0,66,0
28176,note_on,,0,0,3,,,,,,,0,69,72
28224,note_on,,0,0,4,,,,,,,0,58,88
28224,note_on,,96,0,4,,,,,,,0,57,0
28224,note_on,,0,0,3,,,,,,,0,62,72
28224,note_on,,48,0,3,,,,,,,0,69,0
28272,note_on,,48,0,4,,,,,,,0,58,0
28272,note_on,,0,0,4,,,,,,,0,45,88
28320,note_on,,48,0,4,,,,,,,0,45,0
28320,note_on,,0,0,4,,,,,,,0,46,88
28320,note_on,,96,0,3,,,,,,,0,62,0
28320,note_on,,0,0,3,,,,,,,0,67,72
28320,note_on,,192,0,2,,,,,,,0,72,0
28320,note_on,,0,0,2,,,,,,,0,70,88
28368,note_on,,48,0,4,,,,,,,0,46,0
28368,note_on,,0,0,4,,,,,,,0,48,88
28416,note_on,,96,0,3,,,,,,,0,67,0
28416,note_on,,96,0,2,,,,,,,0,70,0
28416,note_on,,48,0,4,,,,,,,0,48,0
28416,note_on,,0,0,3,,,,,,,0,67,72
28416,note_on,,0,0,2,,,,,,,0,69,88
28416,note_on,,0,0,4,,,,,,,0,50,88
28464,note_on,,0,0,3,,,,,,,0,61,72
28464,note_on,,48,0,3,,,,,,,0,67,0
28464,note_on,,48,0,4,,,,,,,0,50,0
28464,note_on,,0,0,4,,,,,,,0,52,88
28512,note_on,,0,0,3,,,,,,,0,62,72
28512,note_on,,48,0,3,,,,,,,0,61,0
28512,note_on,,48,0,4,,,,,,,0,52,0
28512,note_on,,0,0,4,,,,,,,0,53,88
28560,note_on,,0,0,4,,,,,,,0,50,88
28560,note_on,,48,0,4,,,,,,,0,53,0
28560,note_on,,0,0,3,,,,,,,0,65,72
28560,note_on,,48,0,3,,,,,,,0,62,0
28608,note_on,,0,0,2,,,,,,,0,69,88
28608,note_on,,0,0,3,,,,,,,0,58,72
28608,note_on,,192,0,2,,,,,,,0,69,0
28608,note_on,,48,0,3,,,,,,,0,65,0
28608,note_on,,48,0,4,,,,,,,0,50,0
28608,note_on,,0,0,4,,,,,,,0,55,88
28656,note_on,,0,0,2,,,,,,,0,62,88
28656,note_on,,0,0,4,,,,,,,0,53,88
28656,note_on,,48,0,4,,,,,,,0,55,0
28656,note_on,,48,0,2,,,,,,,0,69,0
28704,note_on,,48,0,2,,,,,,,0,62,0
28704,note_on,,0,0,4,,,,,,,0,52,88
28704,note_on,,48,0,4,,,,,,,0,53,0
28704,note_on,,0,0,2,,,,,,,0,67,88
28752,note_on,,0,0,4,,,,,,,0,55,88
28752,note_on,,48,0,4,,,,,,,0,52,0
28752,note_on,,48,0,2,,,,,,,0,67,0
28752,note_on,,0,0,2,,,,,,,0,70,88
28800,note_on,,48,0,2,,,,,,,0,70,0
28800,note_on,,192,0,3,,,,,,,0,58,0
28800,note_on,,0,0,2,,,,,,,0,64,88
28800,note_on,,48,0,4,,,,,,,0,55,0
28800,note_on,,0,0,4,,,,,,,0,49,88
28800,note_on,,0,0,3,,,,,,,0,58,72
28848,note_on,,0,0,3,,,,,,,0,57,72
28848,note_on,,48,0,3,,,,,,,0,58,0
28848,note_on,,48,0,4,,,,,,,0,49,0
28848,note_on,,0,0,4,,,,,,,0,50,88
28896,note_on,,48,0,4,,,,,,,0,50,0
28896,note_on,,0,0,3,,,,,,,0,55,72
28896,note_on,,0,0,4,,,,,,,0,52,88
28896,note_on,,48,0,3,,,,,,,0,57,0
28944,note_on,,48,0,4,,,,,,,0,52,0
28944,note_on,,0,0,4,,,,,,,0,49,88
28944,note_on,,0,0,3,,,,,,,0,57,72
28944,note_on,,48,0,3,,,,,,,0,55,0
28992,note_on,,0,0,4,,,,,,,0,50,88
28992,note_on,,0,0,3,,,,,,,0,53,72
28992,note_on,,48,0,3,,,,,,,0,57,0
28992,note_on,,48,0,4,,,,,,,0,49,0
29040,note_on,,0,0,4,,,,,,,0,48,88
29040,note_on,,48,0,4,,,,,,,0,50,0
29088,note_on,,0,0,2,,,,,,,0,62,88
29088,note_on,,48,0,4,,,,,,,0,48,0
29088,note_on,,0,0,4,,,,,,,0,46,88
29088,note_on,,288,0,2,,,,,,,0,64,0
29136,note_on,,0,0,4,,,,,,,0,50,88
29136,note_on,,48,0,4,,,,,,,0,46,0
29184,note_on,,48,0,4,,,,,,,0,50,0
29184,note_on,,0,0,4,,,,,,,0,44,88
29184,note_on,,0,0,2,,,,,,,0,62,88
29184,note_on,,96,0,2,,,,,,,0,62,0
29184,note_on,,0,0,3,,,,,,,0,52,88
29184,note_on,,192,0,3,,,,,,,0,53,0
29232,note_on,,48,0,4,,,,,,,0,44,0
29232,note_on,,0,0,4,,,,,,,0,45,88
29232,note_on,,0,0,2,,,,,,,0,61,88
29232,note_on,,48,0,2,,,,,,,0,62,0
29280,note_on,,0,0,4,,,,,,,0,47,88
29280,note_on,,48,0,4,,,,,,,0,45,0
29280,note_on,,0,0,2,,,,,,,0,62,88
29280,note_on,,48,0,2,,,,,,,0,61,0
29328,note_on,,0,0,4,,,,,,,0,44,88
29328,note_on,,0,0,2,,,,,,,0,59,88
29328,note_on,,48,0,2,,,,,,,0,62,0
29328,note_on,,48,0,4,,,,,,,0,47,0
29376,note_on,,0,0,4,,,,,,,0,45,88
29376,note_on,,48,0,2,,,,,,,0,59,0
29376,note_on,,0,0,2,,,,,,,0,61,88
29376,note_on,,48,0,4,,,,,,,0,44,0
29376,note_on,,192,0,3,,,,,,,0,52,0
29376,note_on,,0,0,3,,,,,,,0,57,88
29424,note_on,,48,0,4,,,,,,,0,45,0
29424,note_on,,48,0,2,,,,,,,0,61,0
29424,note_on,,0,0,2,,,,,,,0,64,88
29424,note_on,,0,0,4,,,,,,,0,55,88
29472,note_on,,48,0,4,,,,,,,0,55,0
29472,note_on,,48,0,2,,,,,,,0,64,0
29472,note_on,,0,0,2,,,,,,,0,69,88
29472,note_on,,0,0,4,,,,,,,0,53,88
29520,note_on,,48,0,4,,,,,,,0,53,0
29520,note_on,,0,0,3,,,,,,,0,55,88
29520,note_on,,0,0,4,,,,,,,0,52,88
29520,note_on,,144,0,3,,,,,,,0,57,0
29568,note_on,,48,0,3,,,,,,,0,55,0
29568,note_on,,0,0,3,,,,,,,0,53,88
29568,note_on,,48,0,4,,,,,,,0,52,0
29568,note_on,,0,0,4,,,,,,,0,50,88
29568,note_on,,2112,0,1,,,,,,,0,62,88
29568,note_on,,96,0,2,,,,,,,0,69,0
29568,note_on,,0,0,2,,,,,,,0,69,88
29616,note_on,,0,0,2,,,,,,,0,70,88
29616,note_on,,48,0,2,,,,,,,0,69,0
29664,note_on,,48,0,2,,,,,,,0,70,0
29664,note_on,,0,0,2,,,,,,,0,69,88
29712,note_on,,0,0,2,,,,,,,0,67,88
29712,note_on,,0,0,3,,,,,,,0,52,88
29712,note_on,,144,0,3,,,,,,,0,53,0
29712,note_on,,48,0,2,,,,,,,0,69,0
29760,note_on,,192,0,4,,,,,,,0,50,0
29760,note_on,,0,0,4,,,,,,,0,50,88
29760,note_on,,0,0,1,,,,,,,0,69,88
29760,note_on,,48,0,2,,,,,,,0,67,0
29760,note_on,,0,0,2,,,,,,,0,65,88
29760,note_on,,0,0,3,,,,,,,0,50,88
29760,note_on,,48,0,3,,,,,,,0,52,0
29760,note_on,,192,0,1,,,,,,,0,62,0
29808,note_on,,48,0,2,,,,,,,0,65,0
29808,note_on,,0,0,2,,,,,,,0,64,88
29808,note_on,,0,0,4,,,,,,,0,48,88
29808,note_on,,48,0,4,,,,,,,0,50,0
29856,note_on,,48,0,4,,,,,,,0,48,0
29856,note_on,,0,0,4,,,,,,,0,46,88
29856,note_on,,0,0,2,,,,,,,0,62,88
29856,note_on,,48,0,2,,,,,,,0,64,0
29904,note_on,,48,0,2,,,,,,,0,62,0
29904,note_on,,0,0,2,,,,,,,0,64,88
29904,note_on,,144,0,1,,,,,,,0,69,0
29904,note_on,,0,0,1,,,,,,,0,67,88
29952,note_on,,96,0,4,,,,,,,0,46,0
29952,note_on,,0,0,3,,,,,,,0,49,88
29952,note_on,,192,0,3,,,,,,,0,50,0
29952,note_on,,0,0,2,,,,,,,0,65,88
29952,note_on,,48,0,2,,,,,,,0,64,0
29952,note_on,,0,0,4,,,,,,,0,45,88
29952,note_on,,48,0,1,,,,,,,0,67,0
29952,note_on,,0,0,1,,,,,,,0,65,88
30000,note_on,,48,0,2,,,,,,,0,65,0
30000,note_on,,0,0,2,,,,,,,0,67,88
30000,note_on,,48,0,4,,,,,,,0,45,0
30000,note_on,,0,0,4,,,,,,,0,46,88
30048,note_on,,0,0,2,,,,,,,0,69,88
30048,note_on,,48,0,2,,,,,,,0,67,0
30048,note_on,,0,0,4,,,,,,,0,45,88
30048,note_on,,48,0,4,,,,,,,0,46,0
30096,note_on,,48,0,4,,,,,,,0,45,0
30096,note_on,,0,0,1,,,,,,,0,64,88
30096,note_on,,144,0,1,,,,,,,0,65,0
30096,note_on,,0,0,4,,,,,,,0,43,88
30144,note_on,,0,0,4,,,,,,,0,41,88
30144,note_on,,48,0,4,,,,,,,0,43,0
30144,note_on,,0,0,3,,,,,,,0,50,88
30144,note_on,,192,0,3,,,,,,,0,49,0
30144,note_on,,0,0,1,,,,,,,0,62,88
30144,note_on,,48,0,1,,,,,,,0,64,0
30192,note_on,,0,0,2,,,,,,,0,67,88
30192,note_on,,144,0,2,,,,,,,0,69,0
30240,note_on,,0,0,4,,,,,,,0,46,88
30240,note_on,,96,0,4,,,,,,,0,41,0
30240,note_on,,48,0,2,,,,,,,0,67,0
30240,note_on,,0,0,2,,,,,,,0,65,88
30288,note_on,,48,0,2,,,,,,,0,65,0
30288,note_on,,0,0,3,,,,,,,0,52,88
30288,note_on,,144,0,3,,,,,,,0,50,0
30288,note_on,,0,0,2,,,,,,,0,67,88
30336,note_on,,96,0,4,,,,,,,0,46,0
30336,note_on,,0,0,4,,,,,,,0,45,88
30336,note_on,,48,0,2,,,,,,,0,67,0
30336,note_on,,0,0,2,,,,,,,0,69,88
30336,note_on,,192,0,1,,,,,,,0,62,0
30336,note_on,,0,0,1,,,,,,,0,61,88
30336,note_on,,0,0,3,,,,,,,0,53,88
30336,note_on,,48,0,3,,,,,,,0,52,0
30384,note_on,,0,0,2,,,,,,,0,67,88
30384,note_on,,48,0,2,,,,,,,0,69,0
30432,note_on,,0,0,2,,,,,,,0,65,88
30432,note_on,,48,0,2,,,,,,,0,67,0
30480,note_on,,0,0,2,,,,,,,0,64,88
30480,note_on,,48,0,2,,,,,,,0,65,0
30528,note_on,,48,0,2,,,,,,,0,64,0
30528,note_on,,0,0,2,,,,,,,0,62,88
30528,note_on,,0,0,3,,,,,,,0,53,88
30528,note_on,,192,0,3,,,,,,,0,53,0
30528,note_on,,192,0,1,,,,,,,0,61,0
30528,note_on,,0,0,1,,,,,,,0,62,88
30576,note_on,,48,0,2,,,,,,,0,62,0
30576,note_on,,0,0,2,,,,,,,0,70,88
30576,note_on,,0,0,3,,,,,,,0,55,88
30576,note_on,,48,0,3,,,,,,,0,53,0
30624,note_on,,0,0,4,,,,,,,0,47,88
30624,note_on,,288,0,4,,,,,,,0,45,0
30624,note_on,,0,0,2,,,,,,,0,69,88
30624,note_on,,48,0,2,,,,,,,0,70,0
30624,note_on,,48,0,3,,,,,,,0,55,0
30624,note_on,,0,0,3,,,,,,,0,53,88
30672,note_on,,0,0,2,,,,,,,0,67,88
30672,note_on,,144,0,1,,,,,,,0,62,0
30672,note_on,,0,0,3,,,,,,,0,52,88
30672,note_on,,0,0,4,,,,,,,0,49,88
30672,note_on,,48,0,4,,,,,,,0,47,0
30672,note_on,,48,0,2,,,,,,,0,69,0
30672,note_on,,0,0,1,,,,,,,0,64,88
30672,note_on,,48,0,3,,,,,,,0,53,0
30720,note_on,,0,0,4,,,,,,,0,50,88
30720,note_on,,48,0,3,,,,,,,0,52,0
30720,note_on,,0,0,3,,,,,,,0,50,88
30720,note_on,,48,0,4,,,,,,,0,49,0
30720,note_on,,48,0,2,,,,,,,0,67,0
30720,note_on,,0,0,1,,,,,,,0,65,88
30720,note_on,,48,0,1,,,,,,,0,64,0
30720,note_on,,0,0,2,,,,,,,0,65,88
30768,note_on,,48,0,3,,,,,,,0,50,0
30768,note_on,,0,0,3,,,,,,,0,53,72
30768,note_on,,0,0,2,,,,,,,0,69,88
30768,note_on,,48,0,2,,,,,,,0,65,0
30816,note_on,,0,0,2,,,,,,,0,71,88
30816,note_on,,48,0,2,,,,,,,0,69,0
30816,note_on,,48,0,3,,,,,,,0,53,0
30816,note_on,,0,0,3,,,,,,,0,55,72
30864,note_on,,0,0,3,,,,,,,0,57,72
30864,note_on,,48,0,2,,,,,,,0,71,0
30864,note_on,,0,0,2,,,,,,,0,73,88
30864,note_on,,48,0,3,,,,,,,0,55,0
30912,note_on,,48,0,2,,,,,,,0,73,0
30912,note_on,,0,0,4,,,,,,,0,50,88
30912,note_on,,192,0,1,,,,,,,0,65,0
30912,note_on,,192,0,4,,,,,,,0,50,0
30912,note_on,,48,0,3,,,,,,,0,57,0
30912,note_on,,0,0,3,,,,,,,0,58,72
30912,note_on,,0,0,1,,,,,,,0,65,88
30912,note_on,,0,0,2,,,,,,,0,74,88
30960,note_on,,0,0,1,,,,,,,0,67,88
30960,note_on,,48,0,1,,,,,,,0,65,0
30960,note_on,,48,0,4,,,,,,,0,50,0
30960,note_on,,0,0,4,,,,,,,0,49,88
31008,note_on,,0,0,1,,,,,,,0,65,88
31008,note_on,,48,0,1,,,,,,,0,67,0
31008,note_on,,0,0,4,,,,,,,0,50,88
31008,note_on,,48,0,4,,,,,,,0,49,0
31056,note_on,,0,0,4,,,,,,,0,52,88
31056,note_on,,48,0,4,,,,,,,0,50,0
31056,note_on,,0,0,1,,,,,,,0,64,88
31056,note_on,,48,0,1,,,,,,,0,65,0
31104,note_on,,0,0,1,,,,,,,0,62,88
31104,note_on,,48,0,1,,,,,,,0,64,0
31104,note_on,,0,0,3,,,,,,,0,58,72
31104,note_on,,192,0,2,,,,,,,0,74,0
31104,note_on,,0,0,2,,,,,,,0,74,88
31104,note_on,,192,0,3,,,,,,,0,58,0
31104,note_on,,48,0,4,,,,,,,0,52,0
31104,note_on,,0,0,4,,,,,,,0,53,88
31152,note_on,,0,0,2,,,,,,,0,75,88
31152,note_on,,48,0,2,,,,,,,0,74,0
31152,note_on,,48,0,3,,,,,,,0,58,0
31152,note_on,,0,0,3,,,,,,,0,60,72
31200,note_on,,96,0,4,,,,,,,0,53,0
31200,note_on,,0,0,2,,,,,,,0,74,88
31200,note_on,,48,0,2,,,,,,,0,75,0
31200,note_on,,48,0,3,,,,,,,0,60,0
31200,note_on,,0,0,3,,,,,,,0,58,72
31200,note_on,,0,0,4,,,,,,,0,54,88
31248,note_on,,48,0,2,,,,,,,0,74,0
31248,note_on,,0,0,3,,,,,,,0,57,72
31248,note_on,,48,0,3,,,,,,,0,58,0
31248,note_on,,0,0,2,,,,,,,0,72,88
31296,note_on,,48,0,3,,,,,,,0,57,0
31296,note_on,,0,0,3,,,,,,,0,55,72
31296,note_on,,0,0,2,,,,,,,0,70,88
31296,note_on,,0,0,4,,,,,,,0,55,88
31296,note_on,,96,0,4,,,,,,,0,54,0
31296,note_on,,48,0,2,,,,,,,0,72,0
31344,note_on,,48,0,2,,,,,,,0,70,0
31344,note_on,,0,0,2,,,,,,,0,74,88
31344,note_on,,0,0,3,,,,,,,0,58,72
31344,note_on,,48,0,3,,,,,,,0,55,0
31392,note_on,,288,0,1,,,,,,,0,62,0
31392,note_on,,48,0,2,,,,,,,0,74,0
31392,note_on,,0,0,3,,,,,,,0,60,72
31392,note_on,,0,0,2,,,,,,,0,76,88
31392,note_on,,48,0,3,,,,,,,0,58,0
31440,note_on,,0,0,2,,,,,,,0,78,88
31440,note_on,,48,0,2,,,,,,,0,76,0
31440,note_on,,0,0,3,,,,,,,0,62,72
31440,note_on,,48,0,3,,,,,,,0,60,0
31488,note_on,,48,0,2,,,,,,,0,78,0
31488,note_on,,192,0,4,,,,,,,0,55,0
31488,note_on,,0,0,3,,,,,,,0,63,72
31488,note_on,,48,0,3,,,,,,,0,62,0
31488,note_on,,0,0,4,,,,,,,0,55,88
31488,note_on,,0,0,2,,,,,,,0,79,88
31536,note_on,,144,0,1,,,,,,,0,69,72
31536,note_on,,0,0,4,,,,,,,0,54,88
31536,note_on,,48,0,4,,,,,,,0,55,0
31584,note_on,,48,0,4,,,,,,,0,54,0
31584,note_on,,0,0,1,,,,,,,0,70,72
31584,note_on,,48,0,1,,,,,,,0,69,0
31584,note_on,,0,0,4,,,,,,,0,55,88
31632,note_on,,0,0,1,,,,,,,0,72,72
31632,note_on,,48,0,1,,,,,,,0,70,0
31632,note_on,,0,0,4,,,,,,,0,57,88
31632,note_on,,48,0,4,,,,,,,0,55,0
31680,note_on,,0,0,1,,,,,,,0,74,72
31680,note_on,,48,0,4,,,,,,,0,57,0
31680,note_on,,0,0,4,,,,,,,0,58,88
31680,note_on,,48,0,1,,,,,,,0,72,0
31680,note_on,,192,0,3,,,,,,,0,63,0
31680,note_on,,0,0,3,,,,,,,0,62,72
31680,note_on,,192,0,2,,,,,,,0,79,0
31680,note_on,,0,0,2,,,,,,,0,79,88
31728,note_on,,48,0,2,,,,,,,0,79,0
31728,note_on,,0,0,2,,,,,,,0,81,88
31776,note_on,,96,0,3,,,,,,,0,62,0
31776,note_on,,48,0,2,,,,,,,0,81,0
31776,note_on,,0,0,2,,,,,,,0,79,88
31776,note_on,,0,0,3,,,,,,,0,67,72
31824,note_on,,48,0,2,,,,,,,0,79,0
31824,note_on,,0,0,2,,,,,,,0,77,88
31824,note_on,,144,0,4,,,,,,,0,58,0
31824,note_on,,0,0,4,,,,,,,0,59,88
31872,note_on,,48,0,4,,,,,,,0,59,0
31872,note_on,,0,0,4,,,,,,,0,61,88
31872,note_on,,0,0,2,,,,,,,0,76,88
31872,note_on,,96,0,3,,,,,,,0,67,0
31872,note_on,,48,0,2,,,,,,,0,77,0
31872,note_on,,0,0,3,,,,,,,0,67,72
31872,note_on,,192,0,1,,,,,,,0,74,0
31872,note_on,,0,0,1,,,,,,,0,69,72
31920,note_on,,0,0,2,,,,,,,0,73,88
31920,note_on,,48,0,4,,,,,,,0,61,0
31920,note_on,,0,0,4,,,,,,,0,57,88
31920,note_on,,48,0,2,,,,,,,0,76,0
31968,note_on,,96,0,3,,,,,,,0,67,0
31968,note_on,,0,0,2,,,,,,,0,74,88
31968,note_on,,48,0,2,,,,,,,0,73,0
31968,note_on,,0,0,4,,,,,,,0,62,88
31968,note_on,,48,0,4,,,,,,,0,57,0
31968,note_on,,0,0,3,,,,,,,0,65,72
32016,note_on,,0,0,3,,,,,,,0,64,72
32016,note_on,,48,0,3,,,,,,,0,65,0
32016,note_on,,48,0,4,,,,,,,0,62,0
32016,note_on,,0,0,4,,,,,,,0,60,88
32064,note_on,,0,0,3,,,,,,,0,62,72
32064,note_on,,48,0,3,,,,,,,0,64,0
32064,note_on,,0,0,1,,,,,,,0,69,72
32064,note_on,,192,0,1,,,,,,,0,69,0
32064,note_on,,48,0,4,,,,,,,0,60,0
32064,note_on,,0,0,4,,,,,,,0,59,88
32112,note_on,,48,0,1,,,,,,,0,69,0
32112,note_on,,0,0,3,,,,,,,0,65,72
32112,note_on,,48,0,3,,,,,,,0,62,0
32112,note_on,,0,0,1,,,,,,,0,69,72
32112,note_on,,0,0,4,,,,,,,0,57,88
32112,note_on,,48,0,4,,,,,,,0,59,0
32160,note_on,,48,0,4,,,,,,,0,57,0
32160,note_on,,0,0,3,,,,,,,0,64,72
32160,note_on,,48,0,3,,,,,,,0,65,0
32160,note_on,,0,0,1,,,,,,,0,67,72
32160,note_on,,192,0,2,,,,,,,0,74,0
32160,note_on,,0,0,2,,,,,,,0,74,88
32160,note_on,,48,0,1,,,,,,,0,69,0
32160,note_on,,0,0,4,,,,,,,0,58,88
32208,note_on,,0,0,3,,,,,,,0,62,72
32208,note_on,,48,0,3,,,,,,,0,64,0
32208,note_on,,0,0,2,,,,,,,0,79,88
32208,note_on,,48,0,2,,,,,,,0,74,0
32256,note_on,,48,0,3,,,,,,,0,62,0
32256,note_on,,0,0,4,,,,,,,0,58,88
32256,note_on,,0,0,2,,,,,,,0,73,88
32256,note_on,,48,0,2,,,,,,,0,79,0
32256,note_on,,96,0,1,,,,,,,0,67,0
32256,note_on,,0,0,1,,,,,,,0,67,72
32256,note_on,,0,0,3,,,,,,,0,64,72
32256,note_on,,96,0,4,,,,,,,0,58,0
32304,note_on,,0,0,1,,,,,,,0,69,72
32304,note_on,,48,0,1,,,,,,,0,67,0
32304,note_on,,48,0,4,,,,,,,0,58,0
32304,note_on,,0,0,4,,,,,,,0,57,88
32352,note_on,,96,0,3,,,,,,,0,64,0
32352,note_on,,48,0,1,,,,,,,0,69,0
32352,note_on,,0,0,3,,,,,,,0,65,72
32352,note_on,,0,0,1,,,,,,,0,70,72
32352,note_on,,96,0,2,,,,,,,0,73,0
32352,note_on,,0,0,2,,,,,,,0,74,88
32400,note_on,,96,0,4,,,,,,,0,57,0
32400,note_on,,0,0,4,,,,,,,0,56,88
32448,note_on,,48,0,4,,,,,,,0,56,0
32448,note_on,,0,0,1,,,,,,,0,69,72
32448,note_on,,96,0,1,,,,,,,0,70,0
32448,note_on,,96,0,2,,,,,,,0,74,0
32448,note_on,,0,0,2,,,,,,,0,74,88
32448,note_on,,0,0,3,,,,,,,0,64,72
32448,note_on,,96,0,3,,,,,,,0,65,0
32448,set_tempo,,7872,1,0,,,,,799605,,,,
32448,note_on,,0,0,4,,,,,,,0,57,88
32496,note_on,,48,0,3,,,,,,,0,64,0
32496,note_on,,0,0,3,,,,,,,0,62,72
32544,note_on,,48,0,3,,,,,,,0,62,0
32544,note_on,,0,0,3,,,,,,,0,64,72
32544,note_on,,0,0,2,,,,,,,0,73,88
32544,note_on,,96,0,2,,,,,,,0,74,0
32544,note_on,,0,0,4,,,,,,,0,45,88
32544,note_on,,96,0,4,,,,,,,0,57,0
32592,note_on,,0,0,1,,,,,,,0,67,72
32592,note_on,,144,0,1,,,,,,,0,69,0
32640,note_on,,0,0,2,,,,,,,0,74,88
32640,note_on,,96,0,3,,,,,,,0,64,0
32640,note_on,,0,0,3,,,,,,,0,62,72
32640,note_on,,48,0,1,,,,,,,0,67,0
32640,note_on,,96,0,2,,,,,,,0,73,0
32640,note_on,,0,0,1,,,,,,,0,67,72
32640,note_on,,96,0,4,,,,,,,0,45,0
32640,note_on,,0,0,4,,,,,,,0,50,88
32688,note_on,,48,0,1,,,,,,,0,67,0
32688,note_on,,0,0,2,,,,,,,0,74,88
32688,note_on,,48,0,2,,,,,,,0,74,0
32688,note_on,,0,0,4,,,,,,,0,50,88
32688,note_on,,48,0,4,,,,,,,0,50,0
32688,note_on,,0,0,3,,,,,,,0,62,88
32688,note_on,,48,0,3,,,,,,,0,62,0
32688,set_tempo,,240,1,0,,,,,999506,,,,
32688,note_on,,0,0,1,,,,,,,0,64,72
32736,note_on,,0,0,3,,,,,,,0,62,88
32736,note_on,,48,0,2,,,,,,,0,74,0
32736,set_tempo,,48,1,0,,,,,666337,,,,
32736,note_on,,48,0,4,,,,,,,0,50,0
32736,note_on,,0,0,4,,,,,,,0,50,88
32736,note_on,,0,0,1,,,,,,,0,66,72
32736,note_on,,48,0,1,,,,,,,0,64,0
32736,note_on,,48,0,3,,,,,,,0,62,0
32736,note_on,,0,0,2,,,,,,,0,74,88
32832,note_on,,96,0,3,,,,,,,0,62,0
32832,note_on,,0,0,4,,,,,,,0,50,88
32832,note_on,,96,0,2,,,,,,,0,74,0
32832,note_on,,96,0,4,,,,,,,0,50,0
32832,note_on,,96,0,1,,,,,,,0,66,0
32832,note_on,,0,0,1,,,,,,,0,69,88
32880,note_on,,48,0,2,,,,,,,0,74,88
32880,note_on,,48,0,3,,,,,,,0,52,88
32928,note_on,,0,0,3,,,,,,,0,54,88
32928,note_on,,48,0,3,,,,,,,0,52,0
32928,note_on,,48,0,2,,,,,,,0,74,0
32928,note_on,,0,0,2,,,,,,,0,72,88
32976,note_on,,0,0,3,,,,,,,0,55,88
32976,note_on,,0,0,1,,,,,,,0,67,88
32976,note_on,,144,0,1,,,,,,,0,69,0
32976,note_on,,144,0,4,,,,,,,0,50,0
32976,note_on,,48,0,3,,,,,,,0,54,0
32976,note_on,,0,0,2,,,,,,,0,70,88
32976,note_on,,0,0,4,,,,,,,0,52,88
32976,note_on,,48,0,2,,,,,,,0,72,0
33024,note_on,,0,0,2,,,,,,,0,69,88
33024,note_on,,0,0,4,,,,,,,0,50,88
33024,note_on,,48,0,4,,,,,,,0,52,0
33024,note_on,,0,0,3,,,,,,,0,57,88
33024,note_on,,48,0,3,,,,,,,0,55,0
33024,note_on,,48,0,2,,,,,,,0,70,0
33024,note_on,,0,0,1,,,,,,,0,66,88
33024,note_on,,48,0,1,,,,,,,0,67,0
33072,note_on,,48,0,3,,,,,,,0,57,0
33072,note_on,,0,0,3,,,,,,,0,55,88
33072,note_on,,0,0,2,,,,,,,0,70,88
33072,note_on,,48,0,2,,,,,,,0,69,0
33120,note_on,,0,0,2,,,,,,,0,69,88
33120,note_on,,48,0,2,,,,,,,0,70,0
33120,note_on,,48,0,3,,,,,,,0,55,0
33120,note_on,,0,0,3,,,,,,,0,57,88
33168,note_on,,48,0,2,,,,,,,0,69,0
33168,note_on,,144,0,1,,,,,,,0,66,0
33168,note_on,,0,0,3,,,,,,,0,58,88
33168,note_on,,0,0,2,,,,,,,0,67,88
33168,note_on,,48,0,3,,,,,,,0,57,0
33168,note_on,,0,0,1,,,,,,,0,64,88
33216,note_on,,192,0,4,,,,,,,0,50,0
33216,note_on,,0,0,4,,,,,,,0,57,88
33216,note_on,,48,0,2,,,,,,,0,67,0
33216,note_on,,48,0,1,,,,,,,0,64,0
33216,note_on,,0,0,1,,,,,,,0,62,88
33216,note_on,,0,0,3,,,,,,,0,60,88
33216,note_on,,48,0,3,,,,,,,0,58,0
33216,note_on,,0,0,2,,,,,,,0,66,88
33264,note_on,,48,0,3,,,,,,,0,60,0
33264,note_on,,0,0,3,,,,,,,0,58,88
33264,note_on,,48,0,2,,,,,,,0,66,0
33264,note_on,,0,0,2,,,,,,,0,67,88
33312,note_on,,48,0,3,,,,,,,0,58,0
33312,note_on,,0,0,3,,,,,,,0,60,88
33312,note_on,,48,0,2,,,,,,,0,67,0
33312,note_on,,0,0,2,,,,,,,0,66,88
33360,note_on,,48,0,3,,,,,,,0,60,0
33360,note_on,,0,0,3,,,,,,,0,54,88
33360,note_on,,48,0,2,,,,,,,0,66,0
33360,note_on,,0,0,2,,,,,,,0,69,88
33408,note_on,,48,0,2,,,,,,,0,69,0
33408,note_on,,0,0,2,,,,,,,0,64,88
33408,note_on,,0,0,1,,,,,,,0,61,88
33408,note_on,,192,0,1,,,,,,,0,62,0
33408,note_on,,0,0,4,,,,,,,0,50,88
33408,note_on,,192,0,4,,,,,,,0,57,0
33408,note_on,,0,0,3,,,,,,,0,55,88
33408,note_on,,48,0,3,,,,,,,0,54,0
33456,note_on,,0,0,3,,,,,,,0,57,88
33456,note_on,,48,0,2,,,,,,,0,64,0
33456,note_on,,0,0,2,,,,,,,0,62,88
33456,note_on,,48,0,3,,,,,,,0,55,0
33504,note_on,,48,0,2,,,,,,,0,62,0
33504,note_on,,0,0,3,,,,,,,0,55,88
33504,note_on,,48,0,3,,,,,,,0,57,0
33504,note_on,,0,0,2,,,,,,,0,64,88
33552,note_on,,48,0,2,,,,,,,0,64,0
33552,note_on,,0,0,2,,,,,,,0,67,88
33552,note_on,,48,0,3,,,,,,,0,55,0
33552,note_on,,0,0,3,,,,,,,0,52,88
33600,note_on,,48,0,3,,,,,,,0,52,0
33600,note_on,,0,0,3,,,,,,,0,57,88
33600,note_on,,0,0,1,,,,,,,0,62,88
33600,note_on,,192,0,1,,,,,,,0,61,0
33600,note_on,,192,0,4,,,,,,,0,50,0
33600,note_on,,0,0,4,,,,,,,0,57,88
33600,note_on,,48,0,2,,,,,,,0,67,0
33600,note_on,,0,0,2,,,,,,,0,66,88
33648,note_on,,0,0,2,,,,,,,0,69,88
33648,note_on,,48,0,2,,,,,,,0,66,0
33648,note_on,,0,0,3,,,,,,,0,55,88
33648,note_on,,48,0,3,,,,,,,0,57,0
33696,note_on,,0,0,3,,,,,,,0,54,88
33696,note_on,,48,0,3,,,,,,,0,55,0
33696,note_on,,0,0,2,,,,,,,0,72,88
33696,note_on,,48,0,2,,,,,,,0,69,0
33744,note_on,,144,0,4,,,,,,,0,57,0
33744,note_on,,0,0,3,,,,,,,0,52,88
33744,note_on,,48,0,3,,,,,,,0,54,0
33744,set_tempo,,1008,1,0,,,,,799605,,,,
33744,note_on,,0,0,1,,,,,,,0,64,88
33744,note_on,,0,0,4,,,,,,,0,55,88
33744,note_on,,144,0,1,,,,,,,0,62,0
33744,note_on,,48,0,2,,,,,,,0,72,0
33744,note_on,,0,0,2,,,,,,,0,72,88
33792,note_on,,0,0,4,,,,,,,0,54,88
33792,note_on,,0,0,1,,,,,,,0,66,88
33792,note_on,,48,0,1,,,,,,,0,64,0
33792,note_on,,48,0,2,,,,,,,0,72,0
33792,note_on,,0,0,2,,,,,,,0,72,88
33792,note_on,,48,0,3,,,,,,,0,52,0
33792,note_on,,0,0,3,,,,,,,0,50,88
33792,note_on,,48,0,4,,,,,,,0,55,0
33840,note_on,,48,0,4,,,,,,,0,54,0
33840,note_on,,0,0,4,,,,,,,0,48,88
33888,note_on,,0,0,4,,,,,,,0,46,88
33888,note_on,,48,0,4,,,,,,,0,48,0
33936,note_on,,0,0,4,,,,,,,0,45,88
33936,note_on,,48,0,4,,,,,,,0,46,0
33984,set_tempo,,240,1,0,,,,,1199407,,,,
33984,note_on,,0,0,3,,,,,,,0,50,88
33984,note_on,,192,0,1,,,,,,,0,66,0
33984,note_on,,192,0,3,,,,,,,0,50,0
33984,note_on,,0,0,1,,,,,,,0,66,88
33984,note_on,,0,0,2,,,,,,,0,72,88
33984,note_on,,192,0,2,,,,,,,0,72,0
33984,note_on,,48,0,4,,,,,,,0,45,0
33984,note_on,,0,0,4,,,,,,,0,43,88
34032,note_on,,0,0,1,,,,,,,0,67,88
34032,note_on,,48,0,1,,,,,,,0,66,0
34032,note_on,,48,0,2,,,,,,,0,72,0
34032,note_on,,0,0,2,,,,,,,0,70,88
34032,note_on,,48,0,3,,,,,,,0,50,0
34032,note_on,,0,0,3,,,,,,,0,49,88
34080,note_on,,48,0,1,,,,,,,0,67,0
34080,note_on,,0,0,1,,,,,,,0,66,88
34080,note_on,,0,0,3,,,,,,,0,50,88
34080,note_on,,48,0,3,,,,,,,0,49,0
34080,note_on,,0,0,2,,,,,,,0,74,88
34080,note_on,,48,0,2,,,,,,,0,70,0
34128,note_on,,0,0,4,,,,,,,0,43,88
34128,note_on,,0,0,2,,,,,,,0,73,88
34128,note_on,,48,0,2,,,,,,,0,74,0
34128,note_on,,0,0,3,,,,,,,0,52,88
34128,note_on,,48,0,1,,,,,,,0,66,0
34128,set_tempo,,144,1,0,,,,,1499259,,,,
34128,note_on,,144,0,4,,,,,,,0,43,0
34128,note_on,,0,0,1,,,,,,,0,64,88
34128,note_on,,48,0,3,,,,,,,0,50,0
34176,note_on,,48,0,2,,,,,,,0,73,0
34176,note_on,,48,0,3,,,,,,,0,52,0
34176,note_on,,0,0,3,,,,,,,0,54,88
34176,note_on,,0,0,2,,,,,,,0,74,88
34176,note_on,,0,0,4,,,,,,,0,38,88
34176,note_on,,0,0,1,,,,,,,0,62,88
34176,note_on,,48,0,1,,,,,,,0,64,0
34176,note_on,,48,0,4,,,,,,,0,43,0
34560,note_on,,384,0,3,,,,,,,0,54,0
34560,note_on,,384,0,1,,,,,,,0,62,0
34560,end_of_track,,0,1,1,,,,,,,,,
34560,note_on,,384,0,4,,,,,,,0,38,0
34560,end_of_track,,0,1,3,,,,,,,,,
34560,note_on,,384,0,2,,,,,,,0,74,0
34560,end_of_track,,0,1,2,,,,,,,,,
34560,end_of_track,,432,1,0,,,,,,,,,
34560,end_of_track,,0,1,4,,,,,,,,,
