tick,type,numerator,denominator,clocks_per_click,notated_32nd_notes_per_beat,time,meta,track,tempo,note,velocity,channel
0,time_signature,12,8,12,8,0,1,0,,,,
0,note_on,,,,,0,0,2,,57,64,1
0,note_on,,,,,0,0,1,,69,64,0
0,text,,,,,0,1,2,,,,
0,end_of_track,,,,,0,1,0,,,,
0,text,,,,,0,1,1,,,,
0,set_tempo,,,,,0,1,0,545455,,,
30,note_off,,,,,30,0,1,,69,64,0
30,note_on,,,,,0,0,1,,68,56,0
60,note_off,,,,,30,0,1,,68,64,0
60,note_on,,,,,0,0,1,,69,64,0
60,note_on,,,,,0,0,2,,59,64,1
60,note_off,,,,,60,0,2,,57,64,1
120,note_on,,,,,0,0,2,,61,64,1
120,note_off,,,,,60,0,2,,59,64,1
180,note_on,,,,,0,0,2,,59,64,1
180,note_off,,,,,60,0,2,,61,64,1
230,note_off,,,,,170,0,1,,69,64,0
240,note_off,,,,,60,0,2,,59,64,1
240,note_on,,,,,0,0,2,,57,64,1
240,note_on,,,,,10,0,1,,69,64,0
300,note_off,,,,,60,0,2,,57,64,1
300,note_on,,,,,0,0,2,,56,64,1
360,note_off,,,,,60,0,2,,56,64,1
360,note_on,,,,,0,0,2,,54,64,1
360,note_on,,,,,0,0,1,,69,64,0
360,note_off,,,,,120,0,1,,69,64,0
390,note_off,,,,,30,0,1,,69,64,0
390,note_on,,,,,0,0,1,,68,56,0
420,note_on,,,,,0,0,1,,69,64,0
420,note_off,,,,,30,0,1,,68,64,0
420,note_on,,,,,0,0,2,,56,64,1
420,note_off,,,,,60,0,2,,54,64,1
480,note_on,,,,,0,0,2,,57,64,1
480,note_off,,,,,60,0,2,,56,64,1
540,note_off,,,,,60,0,2,,57,64,1
540,note_on,,,,,0,0,2,,56,64,1
590,note_off,,,,,170,0,1,,69,64,0
600,note_off,,,,,60,0,2,,56,64,1
600,note_on,,,,,10,0,1,,69,64,0
600,note_on,,,,,0,0,2,,54,64,1
660,note_off,,,,,60,0,2,,54,64,1
660,note_on,,,,,0,0,2,,52,64,1
720,note_off,,,,,60,0,2,,52,64,1
720,note_on,,,,,0,0,2,,50,64,1
720,note_on,,,,,0,0,1,,71,64,0
720,note_off,,,,,120,0,1,,69,64,0
760,note_on,,,,,0,0,1,,69,48,0
760,note_off,,,,,40,0,1,,71,64,0
780,note_off,,,,,60,0,2,,50,64,1
780,note_on,,,,,0,0,2,,54,64,1
800,note_on,,,,,40,0,1,,71,49,0
808,note_off,,,,,8,0,1,,69,64,0
840,note_on,,,,,32,0,1,,73,50,0
840,note_off,,,,,60,0,2,,54,64,1
840,note_on,,,,,0,0,2,,57,64,1
848,note_off,,,,,8,0,1,,71,64,0
880,note_on,,,,,32,0,1,,71,51,0
888,note_off,,,,,8,0,1,,73,64,0
900,note_on,,,,,0,0,2,,54,64,1
900,note_off,,,,,60,0,2,,57,64,1
920,note_on,,,,,32,0,1,,73,52,0
928,note_off,,,,,8,0,1,,71,64,0
960,note_off,,,,,60,0,2,,54,64,1
960,note_on,,,,,32,0,1,,71,53,0
960,note_on,,,,,0,0,2,,50,64,1
968,note_off,,,,,8,0,1,,73,64,0
1000,note_on,,,,,32,0,1,,73,53,0
1008,note_off,,,,,8,0,1,,71,64,0
1020,note_on,,,,,0,0,2,,54,64,1
1020,note_off,,,,,60,0,2,,50,64,1
1040,note_on,,,,,32,0,1,,71,54,0
1048,note_off,,,,,8,0,1,,73,64,0
1080,note_on,,,,,32,0,1,,73,55,0
1080,note_on,,,,,0,0,2,,47,64,1
1080,note_off,,,,,60,0,2,,54,64,1
1088,note_off,,,,,8,0,1,,71,64,0
1120,note_on,,,,,32,0,1,,71,56,0
1128,note_off,,,,,8,0,1,,73,64,0
1140,note_on,,,,,0,0,2,,50,64,1
1140,note_off,,,,,60,0,2,,47,64,1
1160,note_on,,,,,32,0,1,,73,57,0
1168,note_off,,,,,8,0,1,,71,64,0
1200,note_off,,,,,60,0,2,,50,64,1
1200,note_on,,,,,0,0,2,,54,64,1
1200,note_on,,,,,32,0,1,,71,58,0
1208,note_off,,,,,8,0,1,,73,64,0
1240,note_on,,,,,32,0,1,,73,59,0
1248,note_off,,,,,8,0,1,,71,64,0
1260,note_off,,,,,60,0,2,,54,64,1
1260,note_on,,,,,0,0,2,,50,64,1
1280,note_on,,,,,32,0,1,,71,60,0
1288,note_off,,,,,8,0,1,,73,64,0
1320,note_on,,,,,32,0,1,,73,61,0
1320,note_on,,,,,0,0,2,,47,64,1
1320,note_off,,,,,60,0,2,,50,64,1
1328,note_off,,,,,8,0,1,,71,64,0
1360,note_on,,,,,32,0,1,,71,62,0
1368,note_off,,,,,8,0,1,,73,64,0
1380,note_off,,,,,60,0,2,,47,64,1
1380,note_on,,,,,0,0,2,,50,64,1
1400,note_on,,,,,32,0,1,,73,63,0
1408,note_off,,,,,8,0,1,,71,64,0
1440,note_off,,,,,60,0,2,,50,64,1
1440,note_on,,,,,0,0,2,,44,64,1
1440,note_on,,,,,32,0,1,,71,64,0
1448,note_off,,,,,8,0,1,,73,64,0
1500,note_on,,,,,0,0,1,,69,64,0
1500,note_off,,,,,52,0,1,,71,64,0
1560,note_on,,,,,0,0,1,,68,64,0
1560,note_off,,,,,120,0,2,,44,64,1
1560,note_on,,,,,0,0,2,,47,64,1
1560,note_off,,,,,60,0,1,,69,64,0
1620,note_off,,,,,60,0,1,,68,64,0
1620,note_on,,,,,0,0,1,,69,64,0
1680,note_on,,,,,0,0,1,,71,64,0
1680,note_off,,,,,60,0,1,,69,64,0
1680,note_on,,,,,0,0,2,,44,64,1
1680,note_off,,,,,120,0,2,,47,64,1
1740,note_off,,,,,60,0,1,,71,64,0
1740,note_on,,,,,0,0,1,,73,64,0
1800,note_off,,,,,60,0,1,,73,64,0
1800,note_on,,,,,0,0,1,,74,64,0
1800,note_on,,,,,0,0,2,,40,64,1
1800,note_off,,,,,120,0,2,,44,64,1
1860,note_off,,,,,60,0,1,,74,64,0
1860,note_on,,,,,0,0,1,,73,64,0
1920,note_on,,,,,0,0,1,,74,64,0
1920,note_off,,,,,60,0,1,,73,64,0
1920,note_off,,,,,120,0,2,,40,64,1
1920,note_on,,,,,0,0,2,,42,64,1
1980,note_off,,,,,60,0,1,,74,64,0
1980,note_on,,,,,0,0,1,,78,64,0
2040,note_off,,,,,60,0,1,,78,64,0
2040,note_on,,,,,0,0,2,,44,64,1
2040,note_off,,,,,120,0,2,,42,64,1
2040,note_on,,,,,0,0,1,,76,64,0
2100,note_off,,,,,60,0,1,,76,64,0
2100,note_on,,,,,0,0,1,,74,64,0
2160,note_off,,,,,120,0,2,,44,64,1
2160,note_off,,,,,60,0,1,,74,64,0
2160,note_on,,,,,0,0,1,,73,64,0
2160,note_on,,,,,0,0,2,,45,64,1
2220,note_off,,,,,60,0,1,,73,64,0
2220,note_on,,,,,0,0,1,,69,64,0
2280,note_off,,,,,60,0,1,,69,64,0
2280,note_on,,,,,0,0,1,,73,64,0
2340,note_off,,,,,60,0,1,,73,64,0
2340,note_on,,,,,0,0,1,,76,64,0
2400,note_off,,,,,60,0,1,,76,64,0
2400,note_on,,,,,0,0,1,,81,64,0
2400,note_off,,,,,240,0,2,,45,64,1
2460,note_on,,,,,0,0,1,,78,64,0
2460,note_off,,,,,60,0,1,,81,64,0
2520,note_off,,,,,60,0,1,,78,64,0
2520,note_on,,,,,0,0,1,,75,64,0
2580,note_on,,,,,0,0,1,,71,64,0
2580,note_off,,,,,60,0,1,,75,64,0
2640,note_off,,,,,60,0,1,,71,64,0
2640,note_on,,,,,0,0,1,,75,64,0
2700,note_on,,,,,0,0,1,,78,64,0
2700,note_off,,,,,60,0,1,,75,64,0
2760,note_off,,,,,60,0,1,,78,64,0
2760,note_on,,,,,0,0,1,,81,64,0
2820,note_off,,,,,60,0,1,,81,64,0
2820,note_on,,,,,0,0,1,,78,64,0
2880,note_off,,,,,60,0,1,,78,64,0
2880,note_on,,,,,0,0,1,,80,64,0
2880,note_on,,,,,480,0,2,,52,64,1
2910,note_off,,,,,30,0,2,,52,64,1
2910,note_on,,,,,0,0,2,,51,56,1
2940,note_off,,,,,60,0,1,,80,64,0
2940,note_on,,,,,0,0,1,,81,64,0
2940,note_on,,,,,0,0,2,,52,64,1
2940,note_off,,,,,30,0,2,,51,64,1
3000,note_off,,,,,60,0,1,,81,64,0
3000,note_on,,,,,0,0,1,,80,64,0
3060,note_on,,,,,0,0,1,,78,64,0
3060,note_off,,,,,60,0,1,,80,64,0
3110,note_off,,,,,170,0,2,,52,64,1
3120,note_on,,,,,10,0,2,,52,64,1
3120,note_on,,,,,0,0,1,,76,64,0
3120,note_off,,,,,60,0,1,,78,64,0
3180,note_on,,,,,0,0,1,,75,64,0
3180,note_off,,,,,60,0,1,,76,64,0
3240,note_off,,,,,60,0,1,,75,64,0
3240,note_off,,,,,120,0,2,,52,64,1
3240,note_on,,,,,0,0,2,,52,64,1
3240,note_on,,,,,0,0,1,,73,64,0
3270,note_off,,,,,30,0,2,,52,64,1
3270,note_on,,,,,0,0,2,,51,56,1
3300,note_off,,,,,30,0,2,,51,64,1
3300,note_on,,,,,0,0,2,,52,64,1
3300,note_off,,,,,60,0,1,,73,64,0
3300,note_on,,,,,0,0,1,,75,64,0
3360,note_on,,,,,0,0,1,,76,64,0
3360,note_off,,,,,60,0,1,,75,64,0
3420,note_off,,,,,60,0,1,,76,64,0
3420,note_on,,,,,0,0,1,,75,64,0
3470,note_off,,,,,170,0,2,,52,64,1
3480,note_on,,,,,10,0,2,,52,64,1
3480,note_off,,,,,60,0,1,,75,64,0
3480,note_on,,,,,0,0,1,,73,64,0
3540,note_on,,,,,0,0,1,,71,64,0
3540,note_off,,,,,60,0,1,,73,64,0
3600,note_on,,,,,0,0,2,,54,64,1
3600,note_off,,,,,60,0,1,,71,64,0
3600,note_on,,,,,0,0,1,,69,64,0
3600,note_off,,,,,120,0,2,,52,64,1
3640,note_on,,,,,0,0,2,,52,48,1
3640,note_off,,,,,40,0,2,,54,64,1
3660,note_off,,,,,60,0,1,,69,64,0
3660,note_on,,,,,0,0,1,,73,64,0
3680,note_on,,,,,40,0,2,,54,49,1
3688,note_off,,,,,8,0,2,,52,64,1
3720,note_on,,,,,32,0,2,,56,50,1
3720,note_on,,,,,0,0,1,,76,64,0
3720,note_off,,,,,60,0,1,,73,64,0
3728,note_off,,,,,8,0,2,,54,64,1
3760,note_on,,,,,32,0,2,,54,51,1
3768,note_off,,,,,8,0,2,,56,64,1
3780,note_off,,,,,60,0,1,,76,64,0
3780,note_on,,,,,0,0,1,,73,64,0
3800,note_on,,,,,32,0,2,,56,52,1
3808,note_off,,,,,8,0,2,,54,64,1
3840,note_on,,,,,32,0,2,,54,52,1
3840,note_on,,,,,0,0,1,,69,64,0
3840,note_off,,,,,60,0,1,,73,64,0
3848,note_off,,,,,8,0,2,,56,64,1
3880,note_on,,,,,32,0,2,,56,53,1
3888,note_off,,,,,8,0,2,,54,64,1
3900,note_off,,,,,60,0,1,,69,64,0
3900,note_on,,,,,0,0,1,,73,64,0
3920,note_on,,,,,32,0,2,,54,54,1
3928,note_off,,,,,8,0,2,,56,64,1
3960,note_off,,,,,60,0,1,,73,64,0
3960,note_on,,,,,0,0,1,,66,64,0
3960,note_on,,,,,32,0,2,,56,55,1
3968,note_off,,,,,8,0,2,,54,64,1
4000,note_on,,,,,32,0,2,,54,56,1
4008,note_off,,,,,8,0,2,,56,64,1
4020,note_on,,,,,0,0,1,,69,64,0
4020,note_off,,,,,60,0,1,,66,64,0
4040,note_on,,,,,32,0,2,,56,57,1
4048,note_off,,,,,8,0,2,,54,64,1
4080,note_on,,,,,0,0,1,,73,64,0
4080,note_off,,,,,60,0,1,,69,64,0
4080,note_on,,,,,32,0,2,,54,58,1
4088,note_off,,,,,8,0,2,,56,64,1
4120,note_on,,,,,32,0,2,,56,59,1
4128,note_off,,,,,8,0,2,,54,64,1
4140,note_off,,,,,60,0,1,,73,64,0
4140,note_on,,,,,0,0,1,,69,64,0
4160,note_on,,,,,32,0,2,,54,60,1
4168,note_off,,,,,8,0,2,,56,64,1
4200,note_on,,,,,32,0,2,,56,61,1
4200,note_off,,,,,60,0,1,,69,64,0
4200,note_on,,,,,0,0,1,,66,64,0
4208,note_off,,,,,8,0,2,,54,64,1
4240,note_on,,,,,32,0,2,,54,62,1
4248,note_off,,,,,8,0,2,,56,64,1
4260,note_off,,,,,60,0,1,,66,64,0
4260,note_on,,,,,0,0,1,,69,64,0
4280,note_on,,,,,32,0,2,,56,63,1
4288,note_off,,,,,8,0,2,,54,64,1
4320,note_on,,,,,0,0,1,,63,64,0
4320,note_off,,,,,60,0,1,,69,64,0
4320,note_on,,,,,32,0,2,,54,64,1
4328,note_off,,,,,8,0,2,,56,64,1
4380,note_on,,,,,0,0,2,,52,64,1
4380,note_off,,,,,52,0,2,,54,64,1
4440,note_off,,,,,60,0,2,,52,64,1
4440,note_on,,,,,0,0,2,,51,64,1
4440,note_on,,,,,0,0,1,,66,64,0
4440,note_off,,,,,120,0,1,,63,64,0
4500,note_on,,,,,0,0,2,,52,64,1
4500,note_off,,,,,60,0,2,,51,64,1
4560,note_on,,,,,0,0,2,,54,64,1
4560,note_off,,,,,60,0,2,,52,64,1
4560,note_on,,,,,0,0,1,,63,64,0
4560,note_off,,,,,120,0,1,,66,64,0
4620,note_on,,,,,0,0,2,,56,64,1
4620,note_off,,,,,60,0,2,,54,64,1
4680,note_on,,,,,0,0,2,,57,64,1
4680,note_off,,,,,60,0,2,,56,64,1
4680,note_off,,,,,120,0,1,,63,64,0
4680,note_on,,,,,0,0,1,,59,64,0
4740,note_off,,,,,60,0,1,,59,64,0
4740,note_on,,,,,0,0,2,,56,64,1
4740,note_off,,,,,60,0,2,,57,64,1
4740,note_on,,,,,0,0,1,,63,64,0
4800,note_on,,,,,0,0,1,,66,64,0
4800,note_off,,,,,60,0,1,,63,64,0
4800,note_off,,,,,60,0,2,,56,64,1
4800,note_on,,,,,0,0,2,,57,64,1
4860,note_off,,,,,60,0,2,,57,64,1
4860,note_on,,,,,0,0,1,,69,64,0
4860,note_off,,,,,60,0,1,,66,64,0
4860,note_on,,,,,0,0,2,,61,64,1
4920,note_on,,,,,0,0,2,,59,64,1
4920,note_off,,,,,60,0,2,,61,64,1
4920,note_off,,,,,60,0,1,,69,64,0
4920,note_on,,,,,0,0,1,,68,64,0
4980,note_off,,,,,60,0,1,,68,64,0
4980,note_on,,,,,0,0,1,,66,64,0
4980,note_on,,,,,0,0,2,,57,64,1
4980,note_off,,,,,60,0,2,,59,64,1
5040,note_off,,,,,60,0,1,,66,64,0
5040,note_on,,,,,0,0,1,,64,64,0
5040,note_off,,,,,60,0,2,,57,64,1
5040,note_on,,,,,0,0,2,,56,64,1
5100,note_off,,,,,60,0,1,,64,64,0
5100,note_on,,,,,0,0,1,,68,64,0
5100,note_off,,,,,60,0,2,,56,64,1
5100,note_on,,,,,0,0,2,,52,64,1
5160,note_on,,,,,0,0,1,,71,64,0
5160,note_off,,,,,60,0,1,,68,64,0
5160,note_on,,,,,0,0,2,,56,64,1
5160,note_off,,,,,60,0,2,,52,64,1
5220,note_on,,,,,0,0,2,,59,64,1
5220,note_off,,,,,60,0,2,,56,64,1
5220,note_on,,,,,0,0,1,,76,64,0
5220,note_off,,,,,60,0,1,,71,64,0
5280,note_on,,,,,0,0,1,,71,64,0
5280,note_on,,,,,0,0,2,,64,64,1
5280,note_off,,,,,60,0,2,,59,64,1
5280,note_off,,,,,60,0,1,,76,64,0
5340,note_off,,,,,60,0,1,,71,64,0
5340,note_on,,,,,0,0,1,,68,64,0
5340,note_on,,,,,0,0,2,,59,64,1
5340,note_off,,,,,60,0,2,,64,64,1
5400,note_off,,,,,60,0,1,,68,64,0
5400,note_on,,,,,0,0,2,,56,64,1
5400,note_on,,,,,0,0,1,,64,64,0
5400,note_off,,,,,60,0,2,,59,64,1
5460,note_off,,,,,60,0,2,,56,64,1
5460,note_on,,,,,0,0,2,,52,64,1
5520,note_off,,,,,60,0,2,,52,64,1
5520,note_on,,,,,0,0,2,,56,64,1
5580,note_off,,,,,60,0,2,,56,64,1
5580,note_on,,,,,0,0,2,,59,64,1
5640,note_off,,,,,60,0,2,,59,64,1
5640,note_off,,,,,240,0,1,,64,64,0
5640,note_on,,,,,0,0,2,,62,64,1
5700,note_on,,,,,0,0,2,,59,64,1
5700,note_off,,,,,60,0,2,,62,64,1
5760,note_off,,,,,60,0,2,,59,64,1
5760,note_on,,,,,0,0,2,,61,64,1
5760,note_on,,,,,120,0,1,,76,64,0
5790,note_on,,,,,0,0,1,,75,56,0
5790,note_off,,,,,30,0,1,,76,64,0
5820,note_off,,,,,60,0,2,,61,64,1
5820,note_on,,,,,0,0,2,,62,64,1
5820,note_on,,,,,0,0,1,,76,64,0
5820,note_off,,,,,30,0,1,,75,64,0
5880,note_off,,,,,60,0,2,,62,64,1
5880,note_on,,,,,0,0,2,,64,64,1
5940,note_off,,,,,60,0,2,,64,64,1
5940,note_on,,,,,0,0,2,,62,64,1
5990,note_off,,,,,170,0,1,,76,64,0
6000,note_off,,,,,60,0,2,,62,64,1
6000,note_on,,,,,10,0,1,,76,64,0
6000,note_on,,,,,0,0,2,,61,64,1
6060,note_off,,,,,60,0,2,,61,64,1
6060,note_on,,,,,0,0,2,,59,64,1
6120,note_on,,,,,0,0,2,,57,64,1
6120,note_on,,,,,0,0,1,,76,64,0
6120,note_off,,,,,120,0,1,,76,64,0
6120,note_off,,,,,60,0,2,,59,64,1
6150,note_on,,,,,0,0,1,,75,56,0
6150,note_off,,,,,30,0,1,,76,64,0
6180,note_off,,,,,60,0,2,,57,64,1
6180,note_on,,,,,0,0,1,,76,64,0
6180,note_on,,,,,0,0,2,,59,64,1
6180,note_off,,,,,30,0,1,,75,64,0
6240,note_off,,,,,60,0,2,,59,64,1
6240,note_on,,,,,0,0,2,,61,64,1
6300,note_on,,,,,0,0,2,,59,64,1
6300,note_off,,,,,60,0,2,,61,64,1
6350,note_off,,,,,170,0,1,,76,64,0
6360,note_off,,,,,60,0,2,,59,64,1
6360,note_on,,,,,0,0,2,,57,64,1
6360,note_on,,,,,10,0,1,,76,64,0
6420,note_on,,,,,0,0,2,,56,64,1
6420,note_off,,,,,60,0,2,,57,64,1
6480,note_on,,,,,0,0,1,,76,64,0
6480,note_off,,,,,120,0,1,,76,64,0
6480,note_on,,,,,0,0,2,,54,64,1
6480,note_off,,,,,60,0,2,,56,64,1
6540,note_off,,,,,60,0,1,,76,64,0
6540,note_on,,,,,0,0,1,,81,64,0
6600,note_on,,,,,0,0,1,,76,64,0
6600,note_off,,,,,60,0,1,,81,64,0
6600,note_off,,,,,120,0,2,,54,64,1
6600,note_on,,,,,0,0,2,,66,64,1
6660,note_on,,,,,0,0,1,,73,64,0
6660,note_off,,,,,60,0,1,,76,64,0
6720,note_off,,,,,120,0,2,,66,64,1
6720,note_on,,,,,0,0,2,,61,64,1
6720,note_on,,,,,0,0,1,,69,64,0
6720,note_off,,,,,60,0,1,,73,64,0
6780,note_on,,,,,0,0,1,,73,64,0
6780,note_off,,,,,60,0,1,,69,64,0
6840,note_on,,,,,0,0,1,,76,64,0
6840,note_off,,,,,120,0,2,,61,64,1
6840,note_on,,,,,0,0,2,,57,64,1
6840,note_off,,,,,60,0,1,,73,64,0
6900,note_off,,,,,60,0,1,,76,64,0
6900,note_on,,,,,0,0,1,,81,64,0
6960,note_off,,,,,60,0,1,,81,64,0
6960,note_on,,,,,0,0,1,,76,64,0
6960,note_off,,,,,120,0,2,,57,64,1
6960,note_on,,,,,0,0,2,,54,64,1
7020,note_off,,,,,60,0,1,,76,64,0
7020,note_on,,,,,0,0,1,,73,64,0
7080,note_on,,,,,0,0,2,,57,64,1
7080,note_off,,,,,60,0,1,,73,64,0
7080,note_off,,,,,120,0,2,,54,64,1
7080,note_on,,,,,0,0,1,,69,64,0
7140,note_off,,,,,60,0,1,,69,64,0
7140,note_on,,,,,0,0,1,,73,64,0
7200,note_off,,,,,60,0,1,,73,64,0
7200,note_on,,,,,0,0,1,,74,64,0
7200,note_on,,,,,0,0,2,,59,64,1
7200,note_off,,,,,120,0,2,,57,64,1
7230,note_off,,,,,30,0,1,,74,64,0
7230,note_on,,,,,0,0,1,,73,56,0
7260,note_on,,,,,0,0,2,,61,64,1
7260,note_off,,,,,60,0,2,,59,64,1
7260,note_on,,,,,0,0,1,,74,64,0
7260,note_off,,,,,30,0,1,,73,64,0
7320,note_on,,,,,0,0,2,,62,64,1
7320,note_off,,,,,60,0,2,,61,64,1
7380,note_off,,,,,60,0,2,,62,64,1
7380,note_on,,,,,0,0,2,,61,64,1
7430,note_off,,,,,170,0,1,,74,64,0
7440,note_off,,,,,60,0,2,,61,64,1
7440,note_on,,,,,0,0,2,,59,64,1
7440,note_on,,,,,10,0,1,,74,64,0
7500,note_off,,,,,60,0,2,,59,64,1
7500,note_on,,,,,0,0,2,,57,64,1
7560,note_off,,,,,60,0,2,,57,64,1
7560,note_on,,,,,0,0,2,,56,64,1
7560,note_off,,,,,120,0,1,,74,64,0
7560,note_on,,,,,0,0,1,,74,64,0
7590,note_off,,,,,30,0,1,,74,64,0
7590,note_on,,,,,0,0,1,,73,56,0
7620,note_off,,,,,30,0,1,,73,64,0
7620,note_on,,,,,0,0,2,,57,64,1
7620,note_off,,,,,60,0,2,,56,64,1
7620,note_on,,,,,0,0,1,,74,64,0
7680,note_off,,,,,60,0,2,,57,64,1
7680,note_on,,,,,0,0,2,,59,64,1
7740,note_on,,,,,0,0,2,,57,64,1
7740,note_off,,,,,60,0,2,,59,64,1
7790,note_off,,,,,170,0,1,,74,64,0
7800,note_on,,,,,0,0,2,,56,64,1
7800,note_off,,,,,60,0,2,,57,64,1
7800,note_on,,,,,10,0,1,,74,64,0
7860,note_on,,,,,0,0,2,,54,64,1
7860,note_off,,,,,60,0,2,,56,64,1
7920,note_on,,,,,0,0,1,,74,64,0
7920,note_off,,,,,120,0,1,,74,64,0
7920,note_on,,,,,0,0,2,,52,64,1
7920,note_off,,,,,60,0,2,,54,64,1
7980,note_off,,,,,60,0,1,,74,64,0
7980,note_on,,,,,0,0,1,,83,64,0
8040,note_off,,,,,60,0,1,,83,64,0
8040,note_off,,,,,120,0,2,,52,64,1
8040,note_on,,,,,0,0,2,,47,64,1
8040,note_on,,,,,0,0,1,,80,64,0
8100,note_on,,,,,0,0,1,,74,64,0
8100,note_off,,,,,60,0,1,,80,64,0
8160,note_off,,,,,60,0,1,,74,64,0
8160,note_on,,,,,0,0,1,,71,64,0
8160,note_on,,,,,0,0,2,,44,64,1
8160,note_off,,,,,120,0,2,,47,64,1
8220,note_off,,,,,60,0,1,,71,64,0
8220,note_on,,,,,0,0,1,,74,64,0
8280,note_off,,,,,120,0,2,,44,64,1
8280,note_off,,,,,60,0,1,,74,64,0
8280,note_on,,,,,0,0,1,,80,64,0
8280,note_on,,,,,0,0,2,,40,64,1
8340,note_off,,,,,60,0,1,,80,64,0
8340,note_on,,,,,0,0,1,,83,64,0
8400,note_on,,,,,0,0,1,,80,64,0
8400,note_off,,,,,60,0,1,,83,64,0
8460,note_off,,,,,60,0,1,,80,64,0
8460,note_on,,,,,0,0,1,,74,64,0
8520,note_off,,,,,240,0,2,,40,64,1
8520,note_on,,,,,0,0,1,,71,64,0
8520,note_off,,,,,60,0,1,,74,64,0
8580,note_off,,,,,60,0,1,,71,64,0
8580,note_on,,,,,0,0,1,,74,64,0
8640,note_on,,,,,0,0,1,,73,64,0
8640,note_off,,,,,60,0,1,,74,64,0
8700,note_on,,,,,180,0,2,,57,64,1
8760,note_on,,,,,0,0,2,,61,64,1
8760,note_off,,,,,60,0,2,,57,64,1
8760,note_off,,,,,120,0,1,,73,64,0
8820,note_on,,,,,0,0,2,,64,64,1
8820,note_off,,,,,60,0,2,,61,64,1
8880,note_on,,,,,0,0,2,,69,64,1
8880,note_off,,,,,60,0,2,,64,64,1
8940,note_on,,,,,0,0,2,,68,64,1
8940,note_off,,,,,60,0,2,,69,64,1
9000,note_off,,,,,60,0,2,,68,64,1
9000,note_on,,,,,0,0,2,,66,64,1
9060,note_on,,,,,300,0,1,,62,64,0
9120,note_on,,,,,0,0,1,,66,64,0
9120,note_off,,,,,120,0,2,,66,64,1
9120,note_off,,,,,60,0,1,,62,64,0
9180,note_off,,,,,60,0,1,,66,64,0
9180,note_on,,,,,0,0,1,,69,64,0
9240,note_on,,,,,0,0,1,,74,64,0
9240,note_off,,,,,60,0,1,,69,64,0
9300,note_off,,,,,60,0,1,,74,64,0
9300,note_on,,,,,0,0,1,,73,64,0
9360,note_off,,,,,60,0,1,,73,64,0
9360,note_on,,,,,0,0,1,,71,64,0
9420,note_on,,,,,300,0,2,,56,64,1
9480,note_off,,,,,120,0,1,,71,64,0
9480,note_on,,,,,0,0,2,,59,64,1
9480,note_off,,,,,60,0,2,,56,64,1
9540,note_on,,,,,0,0,2,,63,64,1
9540,note_off,,,,,60,0,2,,59,64,1
9600,note_on,,,,,0,0,2,,68,64,1
9600,note_off,,,,,60,0,2,,63,64,1
9660,note_off,,,,,60,0,2,,68,64,1
9660,note_on,,,,,0,0,2,,66,64,1
9720,note_off,,,,,60,0,2,,66,64,1
9720,note_on,,,,,0,0,2,,65,64,1
9780,note_on,,,,,300,0,1,,61,64,0
9840,note_off,,,,,120,0,2,,65,64,1
9840,note_off,,,,,60,0,1,,61,64,0
9840,note_on,,,,,0,0,1,,65,64,0
9900,note_on,,,,,0,0,1,,68,64,0
9900,note_off,,,,,60,0,1,,65,64,0
9960,note_off,,,,,60,0,1,,68,64,0
9960,note_on,,,,,0,0,1,,73,64,0
10020,note_off,,,,,60,0,1,,73,64,0
10020,note_on,,,,,0,0,1,,71,64,0
10080,note_off,,,,,60,0,1,,71,64,0
10080,note_on,,,,,0,0,1,,69,64,0
10140,note_on,,,,,300,0,2,,54,64,1
10200,note_off,,,,,60,0,2,,54,64,1
10200,note_off,,,,,120,0,1,,69,64,0
10200,note_on,,,,,0,0,2,,57,64,1
10260,note_off,,,,,60,0,2,,57,64,1
10260,note_on,,,,,0,0,2,,61,64,1
10320,note_on,,,,,0,0,2,,66,64,1
10320,note_off,,,,,60,0,2,,61,64,1
10380,note_off,,,,,60,0,2,,66,64,1
10380,note_on,,,,,0,0,2,,64,64,1
10440,note_on,,,,,0,0,2,,62,64,1
10440,note_off,,,,,60,0,2,,64,64,1
10500,note_on,,,,,300,0,1,,59,64,0
10560,note_on,,,,,0,0,1,,62,64,0
10560,note_off,,,,,120,0,2,,62,64,1
10560,note_off,,,,,60,0,1,,59,64,0
10620,note_off,,,,,60,0,1,,62,64,0
10620,note_on,,,,,0,0,1,,66,64,0
10680,note_off,,,,,60,0,1,,66,64,0
10680,note_on,,,,,0,0,1,,71,64,0
10740,note_off,,,,,60,0,1,,71,64,0
10740,note_on,,,,,0,0,1,,69,64,0
10800,note_off,,,,,60,0,1,,69,64,0
10800,note_on,,,,,0,0,1,,68,64,0
10860,note_on,,,,,300,0,2,,47,64,1
10860,note_off,,,,,60,0,1,,68,64,0
10860,note_on,,,,,0,0,1,,66,64,0
10920,note_on,,,,,0,0,2,,50,64,1
10920,note_off,,,,,60,0,2,,47,64,1
10920,note_off,,,,,60,0,1,,66,64,0
10920,note_on,,,,,0,0,1,,71,64,0
10980,note_on,,,,,0,0,2,,54,64,1
10980,note_off,,,,,60,0,2,,50,64,1
10980,note_on,,,,,0,0,1,,69,64,0
10980,note_off,,,,,60,0,1,,71,64,0
11040,note_on,,,,,0,0,2,,59,64,1
11040,note_on,,,,,0,0,1,,68,64,0
11040,note_off,,,,,60,0,2,,54,64,1
11040,note_off,,,,,60,0,1,,69,64,0
11100,note_on,,,,,0,0,2,,57,64,1
11100,note_off,,,,,60,0,2,,59,64,1
11100,note_on,,,,,0,0,1,,66,64,0
11100,note_off,,,,,60,0,1,,68,64,0
11160,note_off,,,,,60,0,1,,66,64,0
11160,note_on,,,,,0,0,2,,56,64,1
11160,note_off,,,,,60,0,2,,57,64,1
11160,note_on,,,,,0,0,1,,65,64,0
11220,note_on,,,,,0,0,1,,68,64,0
11220,note_on,,,,,0,0,2,,49,64,1
11220,note_off,,,,,60,0,2,,56,64,1
11220,note_off,,,,,60,0,1,,65,64,0
11280,note_on,,,,,0,0,1,,73,64,0
11280,note_off,,,,,60,0,1,,68,64,0
11280,note_on,,,,,0,0,2,,53,64,1
11280,note_off,,,,,60,0,2,,49,64,1
11340,note_off,,,,,60,0,1,,73,64,0
11340,note_on,,,,,0,0,1,,71,64,0
11340,note_off,,,,,60,0,2,,53,64,1
11340,note_on,,,,,0,0,2,,56,64,1
11400,note_off,,,,,60,0,1,,71,64,0
11400,note_off,,,,,60,0,2,,56,64,1
11400,note_on,,,,,0,0,2,,61,64,1
11400,note_on,,,,,0,0,1,,69,64,0
11460,note_on,,,,,0,0,2,,59,64,1
11460,note_on,,,,,0,0,1,,68,64,0
11460,note_off,,,,,60,0,1,,69,64,0
11460,note_off,,,,,60,0,2,,61,64,1
11520,note_on,,,,,0,0,1,,66,64,0
11520,note_off,,,,,60,0,1,,68,64,0
11520,note_off,,,,,60,0,2,,59,64,1
11520,note_on,,,,,0,0,2,,57,64,1
11580,note_on,,,,,0,0,2,,59,64,1
11580,note_off,,,,,60,0,2,,57,64,1
11640,note_on,,,,,0,0,1,,78,64,0
11640,note_off,,,,,120,0,1,,66,64,0
11640,note_off,,,,,60,0,2,,59,64,1
11640,note_on,,,,,0,0,2,,57,64,1
11700,note_off,,,,,60,0,2,,57,64,1
11700,note_on,,,,,0,0,2,,56,64,1
11760,note_on,,,,,0,0,1,,66,64,0
11760,note_off,,,,,60,0,2,,56,64,1
11760,note_on,,,,,0,0,2,,54,64,1
11760,note_off,,,,,120,0,1,,78,64,0
11820,note_on,,,,,0,0,2,,52,64,1
11820,note_off,,,,,60,0,2,,54,64,1
11880,note_off,,,,,60,0,2,,52,64,1
11880,note_on,,,,,0,0,1,,66,64,0
11880,note_on,,,,,0,0,2,,50,64,1
11880,note_off,,,,,120,0,1,,66,64,0
11940,note_off,,,,,60,0,2,,50,64,1
11940,note_on,,,,,0,0,2,,52,64,1
12000,note_off,,,,,60,0,2,,52,64,1
12000,note_on,,,,,0,0,2,,54,64,1
12000,note_on,,,,,0,0,1,,61,64,0
12000,note_off,,,,,120,0,1,,66,64,0
12060,note_off,,,,,60,0,2,,54,64,1
12060,note_on,,,,,0,0,2,,52,64,1
12120,note_off,,,,,60,0,2,,52,64,1
12120,note_on,,,,,0,0,2,,50,64,1
12120,note_on,,,,,0,0,1,,66,64,0
12120,note_off,,,,,120,0,1,,61,64,0
12180,note_off,,,,,60,0,2,,50,64,1
12180,note_on,,,,,0,0,2,,49,64,1
12240,note_on,,,,,0,0,1,,68,64,0
12240,note_off,,,,,60,0,2,,49,64,1
12240,note_on,,,,,0,0,2,,47,64,1
12240,note_off,,,,,120,0,1,,66,64,0
12280,note_off,,,,,40,0,1,,68,64,0
12280,note_on,,,,,0,0,1,,66,64,0
12300,note_off,,,,,60,0,2,,47,64,1
12300,note_on,,,,,0,0,2,,50,64,1
12320,note_on,,,,,0,0,1,,68,56,0
12320,note_off,,,,,40,0,1,,66,64,0
12360,note_off,,,,,60,0,2,,50,64,1
12360,note_on,,,,,0,0,2,,54,64,1
12360,note_on,,,,,40,0,1,,69,56,0
12364,note_off,,,,,4,0,1,,68,64,0
12400,note_on,,,,,36,0,1,,68,57,0
12404,note_off,,,,,4,0,1,,69,64,0
12420,note_off,,,,,60,0,2,,54,64,1
12420,note_on,,,,,0,0,2,,50,64,1
12440,note_on,,,,,36,0,1,,69,57,0
12444,note_off,,,,,4,0,1,,68,64,0
12480,note_on,,,,,36,0,1,,68,58,0
12480,note_on,,,,,0,0,2,,47,64,1
12480,note_off,,,,,60,0,2,,50,64,1
12484,note_off,,,,,4,0,1,,69,64,0
12520,note_on,,,,,36,0,1,,69,58,0
12524,note_off,,,,,4,0,1,,68,64,0
12540,note_off,,,,,60,0,2,,47,64,1
12540,note_on,,,,,0,0,2,,50,64,1
12560,note_on,,,,,36,0,1,,68,59,0
12564,note_off,,,,,4,0,1,,69,64,0
12600,note_on,,,,,36,0,1,,69,59,0
12600,note_on,,,,,0,0,2,,44,64,1
12600,note_off,,,,,60,0,2,,50,64,1
12604,note_off,,,,,4,0,1,,68,64,0
12640,note_on,,,,,36,0,1,,68,60,0
12644,note_off,,,,,4,0,1,,69,64,0
12660,note_on,,,,,0,0,2,,47,64,1
12660,note_off,,,,,60,0,2,,44,64,1
12680,note_on,,,,,36,0,1,,69,60,0
12684,note_off,,,,,4,0,1,,68,64,0
12720,note_on,,,,,36,0,1,,68,61,0
12720,note_on,,,,,0,0,2,,50,64,1
12720,note_off,,,,,60,0,2,,47,64,1
12724,note_off,,,,,4,0,1,,69,64,0
12760,note_on,,,,,36,0,1,,69,61,0
12764,note_off,,,,,4,0,1,,68,64,0
12780,note_off,,,,,60,0,2,,50,64,1
12780,note_on,,,,,0,0,2,,47,64,1
12800,note_on,,,,,36,0,1,,68,62,0
12804,note_off,,,,,4,0,1,,69,64,0
12840,note_on,,,,,0,0,2,,44,64,1
12840,note_on,,,,,36,0,1,,69,62,0
12840,note_off,,,,,60,0,2,,47,64,1
12844,note_off,,,,,4,0,1,,68,64,0
12880,note_on,,,,,36,0,1,,68,63,0
12884,note_off,,,,,4,0,1,,69,64,0
12900,note_off,,,,,60,0,2,,44,64,1
12900,note_on,,,,,0,0,2,,47,64,1
12920,note_on,,,,,36,0,1,,69,63,0
12924,note_off,,,,,4,0,1,,68,64,0
12960,note_off,,,,,60,0,2,,47,64,1
12960,note_on,,,,,36,0,1,,68,64,0
12960,note_on,,,,,0,0,2,,41,64,1
12964,note_off,,,,,4,0,1,,69,64,0
13020,note_on,,,,,0,0,1,,66,64,0
13020,note_off,,,,,56,0,1,,68,64,0
13080,note_off,,,,,120,0,2,,41,64,1
13080,note_on,,,,,0,0,2,,44,64,1
13080,note_on,,,,,0,0,1,,65,64,0
13080,note_off,,,,,60,0,1,,66,64,0
13140,note_on,,,,,0,0,1,,66,64,0
13140,note_off,,,,,60,0,1,,65,64,0
13200,note_off,,,,,60,0,1,,66,64,0
13200,note_on,,,,,0,0,1,,68,64,0
13200,note_on,,,,,0,0,2,,41,64,1
13200,note_off,,,,,120,0,2,,44,64,1
13260,note_on,,,,,0,0,1,,69,64,0
13260,note_off,,,,,60,0,1,,68,64,0
13320,note_on,,,,,0,0,2,,37,64,1
13320,note_off,,,,,120,0,2,,41,64,1
13320,note_on,,,,,0,0,1,,71,64,0
13320,note_off,,,,,60,0,1,,69,64,0
13380,note_off,,,,,60,0,1,,71,64,0
13380,note_on,,,,,0,0,1,,69,64,0
13440,note_on,,,,,0,0,2,,39,64,1
13440,note_off,,,,,120,0,2,,37,64,1
13440,note_on,,,,,0,0,1,,71,64,0
13440,note_off,,,,,60,0,1,,69,64,0
13500,note_on,,,,,0,0,1,,74,64,0
13500,note_off,,,,,60,0,1,,71,64,0
13560,note_off,,,,,120,0,2,,39,64,1
13560,note_on,,,,,0,0,2,,41,64,1
13560,note_on,,,,,0,0,1,,73,64,0
13560,note_off,,,,,60,0,1,,74,64,0
13620,note_off,,,,,60,0,1,,73,64,0
13620,note_on,,,,,0,0,1,,71,64,0
13680,note_off,,,,,120,0,2,,41,64,1
13680,note_on,,,,,0,0,2,,42,64,1
13680,note_off,,,,,60,0,1,,71,64,0
13680,note_on,,,,,0,0,1,,69,64,0
13740,note_off,,,,,60,0,1,,69,64,0
13740,note_on,,,,,0,0,1,,66,64,0
13800,note_off,,,,,60,0,1,,66,64,0
13800,note_on,,,,,0,0,2,,54,64,1
13800,note_off,,,,,120,0,2,,42,64,1
13800,note_on,,,,,0,0,1,,69,64,0
13860,note_on,,,,,0,0,1,,73,64,0
13860,note_off,,,,,60,0,1,,69,64,0
13920,note_on,,,,,0,0,1,,78,64,0
13920,note_off,,,,,120,0,2,,54,64,1
13920,note_on,,,,,0,0,2,,51,64,1
13920,note_off,,,,,60,0,1,,73,64,0
13980,note_off,,,,,60,0,1,,78,64,0
13980,note_on,,,,,0,0,1,,75,64,0
14040,note_off,,,,,120,0,2,,51,64,1
14040,note_off,,,,,60,0,1,,75,64,0
14040,note_on,,,,,0,0,1,,72,64,0
14040,note_on,,,,,0,0,2,,56,64,1
14100,note_off,,,,,60,0,1,,72,64,0
14100,note_on,,,,,0,0,1,,68,64,0
14160,note_off,,,,,120,0,2,,56,64,1
14160,note_off,,,,,60,0,1,,68,64,0
14160,note_on,,,,,0,0,1,,72,64,0
14160,note_on,,,,,0,0,2,,54,64,1
14220,note_off,,,,,60,0,1,,72,64,0
14220,note_on,,,,,0,0,1,,75,64,0
14280,note_on,,,,,0,0,2,,56,64,1
14280,note_off,,,,,60,0,1,,75,64,0
14280,note_on,,,,,0,0,1,,78,64,0
14280,note_off,,,,,120,0,2,,54,64,1
14340,note_off,,,,,60,0,1,,78,64,0
14340,note_on,,,,,0,0,1,,75,64,0
14400,note_on,,,,,0,0,2,,49,64,1
14400,note_off,,,,,120,0,2,,56,64,1
14400,note_off,,,,,60,0,1,,75,64,0
14400,note_on,,,,,0,0,1,,76,64,0
14430,note_on,,,,,0,0,2,,48,56,1
14430,note_off,,,,,30,0,2,,49,64,1
14460,note_on,,,,,0,0,1,,78,64,0
14460,note_on,,,,,0,0,2,,49,64,1
14460,note_off,,,,,60,0,1,,76,64,0
14460,note_off,,,,,30,0,2,,48,64,1
14520,note_on,,,,,0,0,1,,76,64,0
14520,note_off,,,,,60,0,1,,78,64,0
14580,note_on,,,,,0,0,1,,75,64,0
14580,note_off,,,,,60,0,1,,76,64,0
14630,note_off,,,,,170,0,2,,49,64,1
14640,note_on,,,,,0,0,1,,73,64,0
14640,note_off,,,,,60,0,1,,75,64,0
14640,note_on,,,,,10,0,2,,49,64,1
14700,note_on,,,,,0,0,1,,71,64,0
14700,note_off,,,,,60,0,1,,73,64,0
14760,note_off,,,,,120,0,2,,49,64,1
14760,note_on,,,,,0,0,2,,49,64,1
14760,note_on,,,,,0,0,1,,69,64,0
14760,note_off,,,,,60,0,1,,71,64,0
14790,note_off,,,,,30,0,2,,49,64,1
14790,note_on,,,,,0,0,2,,48,56,1
14820,note_on,,,,,0,0,1,,71,64,0
14820,note_off,,,,,60,0,1,,69,64,0
14820,note_on,,,,,0,0,2,,49,64,1
14820,note_off,,,,,30,0,2,,48,64,1
14880,note_off,,,,,60,0,1,,71,64,0
14880,note_on,,,,,0,0,1,,73,64,0
14940,note_off,,,,,60,0,1,,73,64,0
14940,note_on,,,,,0,0,1,,71,64,0
14990,note_off,,,,,170,0,2,,49,64,1
15000,note_on,,,,,0,0,1,,69,64,0
15000,note_off,,,,,60,0,1,,71,64,0
15000,note_on,,,,,10,0,2,,49,64,1
15060,note_off,,,,,60,0,1,,69,64,0
15060,note_on,,,,,0,0,1,,68,64,0
15120,note_on,,,,,0,0,2,,51,64,1
15120,note_off,,,,,60,0,1,,68,64,0
15120,note_on,,,,,0,0,1,,66,64,0
15120,note_off,,,,,120,0,2,,49,64,1
15160,note_off,,,,,40,0,2,,51,64,1
15160,note_on,,,,,0,0,2,,49,56,1
15180,note_off,,,,,60,0,1,,66,64,0
15180,note_on,,,,,0,0,1,,69,64,0
15200,note_off,,,,,40,0,2,,49,64,1
15200,note_on,,,,,0,0,2,,51,56,1
15240,note_on,,,,,40,0,2,,52,57,1
15240,note_off,,,,,60,0,1,,69,64,0
15240,note_on,,,,,0,0,1,,73,64,0
15244,note_off,,,,,4,0,2,,51,64,1
15280,note_on,,,,,36,0,2,,51,57,1
15284,note_off,,,,,4,0,2,,52,64,1
15300,note_on,,,,,0,0,1,,69,64,0
15300,note_off,,,,,60,0,1,,73,64,0
15320,note_on,,,,,36,0,2,,52,58,1
15324,note_off,,,,,4,0,2,,51,64,1
15360,note_on,,,,,0,0,1,,66,64,0
15360,note_off,,,,,60,0,1,,69,64,0
15360,note_on,,,,,36,0,2,,51,58,1
15364,note_off,,,,,4,0,2,,52,64,1
15400,note_on,,,,,36,0,2,,52,58,1
15404,note_off,,,,,4,0,2,,51,64,1
15420,note_on,,,,,0,0,1,,69,64,0
15420,note_off,,,,,60,0,1,,66,64,0
15440,note_on,,,,,36,0,2,,51,59,1
15444,note_off,,,,,4,0,2,,52,64,1
15480,note_on,,,,,36,0,2,,52,59,1
15480,note_off,,,,,60,0,1,,69,64,0
15480,note_on,,,,,0,0,1,,63,64,0
15484,note_off,,,,,4,0,2,,51,64,1
15520,note_on,,,,,36,0,2,,51,60,1
15524,note_off,,,,,4,0,2,,52,64,1
15540,note_off,,,,,60,0,1,,63,64,0
15540,note_on,,,,,0,0,1,,66,64,0
15560,note_on,,,,,36,0,2,,52,60,1
15564,note_off,,,,,4,0,2,,51,64,1
15600,note_on,,,,,0,0,1,,69,64,0
15600,note_off,,,,,60,0,1,,66,64,0
15600,note_on,,,,,36,0,2,,51,61,1
15604,note_off,,,,,4,0,2,,52,64,1
15640,note_on,,,,,36,0,2,,52,61,1
15644,note_off,,,,,4,0,2,,51,64,1
15660,note_on,,,,,0,0,1,,66,64,0
15660,note_off,,,,,60,0,1,,69,64,0
15680,note_on,,,,,36,0,2,,51,62,1
15684,note_off,,,,,4,0,2,,52,64,1
15720,note_on,,,,,0,0,1,,63,64,0
15720,note_on,,,,,36,0,2,,52,62,1
15720,note_off,,,,,60,0,1,,66,64,0
15724,note_off,,,,,4,0,2,,51,64,1
15760,note_on,,,,,36,0,2,,51,63,1
15764,note_off,,,,,4,0,2,,52,64,1
15780,note_off,,,,,60,0,1,,63,64,0
15780,note_on,,,,,0,0,1,,66,64,0
15800,note_on,,,,,36,0,2,,52,63,1
15804,note_off,,,,,4,0,2,,51,64,1
15840,note_off,,,,,60,0,1,,66,64,0
15840,note_on,,,,,0,0,1,,60,64,0
15840,note_on,,,,,36,0,2,,51,64,1
15844,note_off,,,,,4,0,2,,52,64,1
15900,note_on,,,,,0,0,2,,49,64,1
15900,note_off,,,,,56,0,2,,51,64,1
15960,note_off,,,,,120,0,1,,60,64,0
15960,note_on,,,,,0,0,1,,63,64,0
15960,note_on,,,,,0,0,2,,48,64,1
15960,note_off,,,,,60,0,2,,49,64,1
16020,note_off,,,,,60,0,2,,48,64,1
16020,note_on,,,,,0,0,2,,49,64,1
16080,note_on,,,,,0,0,1,,66,64,0
16080,note_off,,,,,60,0,2,,49,64,1
16080,note_on,,,,,0,0,2,,51,64,1
16080,note_off,,,,,120,0,1,,63,64,0
16140,note_off,,,,,60,0,2,,51,64,1
16140,note_on,,,,,0,0,2,,52,64,1
16200,note_off,,,,,60,0,2,,52,64,1
16200,note_on,,,,,0,0,1,,69,64,0
16200,note_off,,,,,120,0,1,,66,64,0
16200,note_on,,,,,0,0,2,,54,64,1
16260,note_off,,,,,60,0,2,,54,64,1
16260,note_on,,,,,0,0,2,,52,64,1
16320,note_on,,,,,0,0,1,,68,64,0
16320,note_off,,,,,120,0,1,,69,64,0
16320,note_on,,,,,0,0,2,,54,64,1
16320,note_off,,,,,60,0,2,,52,64,1
16380,note_off,,,,,60,0,2,,54,64,1
16380,note_on,,,,,0,0,2,,57,64,1
16440,note_on,,,,,0,0,2,,56,64,1
16440,note_off,,,,,60,0,2,,57,64,1
16440,note_on,,,,,0,0,1,,72,64,0
16440,note_off,,,,,120,0,1,,68,64,0
16500,note_on,,,,,0,0,2,,54,64,1
16500,note_off,,,,,60,0,2,,56,64,1
16560,note_on,,,,,0,0,2,,52,64,1
16560,note_off,,,,,120,0,1,,72,64,0
16560,note_on,,,,,0,0,1,,73,64,0
16560,note_off,,,,,60,0,2,,54,64,1
16620,note_off,,,,,60,0,2,,52,64,1
16620,note_on,,,,,0,0,2,,49,64,1
16620,note_off,,,,,60,0,1,,73,64,0
16620,note_on,,,,,0,0,1,,76,64,0
16680,note_off,,,,,60,0,2,,49,64,1
16680,note_on,,,,,0,0,2,,52,64,1
16680,note_off,,,,,60,0,1,,76,64,0
16680,note_on,,,,,0,0,1,,80,64,0
16740,note_on,,,,,0,0,1,,76,64,0
16740,note_on,,,,,0,0,2,,56,64,1
16740,note_off,,,,,60,0,2,,52,64,1
16740,note_off,,,,,60,0,1,,80,64,0
16800,note_on,,,,,0,0,1,,73,64,0
16800,note_on,,,,,0,0,2,,61,64,1
16800,note_off,,,,,60,0,2,,56,64,1
16800,note_off,,,,,60,0,1,,76,64,0
16860,note_on,,,,,0,0,2,,56,64,1
16860,note_off,,,,,60,0,2,,61,64,1
16860,note_on,,,,,0,0,1,,76,64,0
16860,note_off,,,,,60,0,1,,73,64,0
16920,note_on,,,,,0,0,2,,52,64,1
16920,note_off,,,,,60,0,2,,56,64,1
16920,note_off,,,,,60,0,1,,76,64,0
16920,note_on,,,,,0,0,1,,80,64,0
16980,note_off,,,,,60,0,2,,52,64,1
16980,note_on,,,,,0,0,2,,49,64,1
16980,note_on,,,,,0,0,1,,76,64,0
16980,note_off,,,,,60,0,1,,80,64,0
17040,note_off,,,,,60,0,1,,76,64,0
17040,note_on,,,,,0,0,1,,73,64,0
17040,note_off,,,,,60,0,2,,49,64,1
17040,note_on,,,,,0,0,2,,52,64,1
17100,note_on,,,,,0,0,1,,76,64,0
17100,note_off,,,,,60,0,1,,73,64,0
17100,note_on,,,,,0,0,2,,56,64,1
17100,note_off,,,,,60,0,2,,52,64,1
17160,note_on,,,,,0,0,1,,80,64,0
17160,note_off,,,,,60,0,1,,76,64,0
17160,note_off,,,,,60,0,2,,56,64,1
17160,note_on,,,,,0,0,2,,61,64,1
17220,note_off,,,,,60,0,2,,61,64,1
17220,note_on,,,,,0,0,2,,59,64,1
17220,note_off,,,,,60,0,1,,80,64,0
17220,note_on,,,,,0,0,1,,76,64,0
17280,note_off,,,,,60,0,1,,76,64,0
17280,note_on,,,,,0,0,2,,58,64,1
17280,note_off,,,,,60,0,2,,59,64,1
17280,note_on,,,,,0,0,1,,73,64,0
17340,note_on,,,,,0,0,1,,76,64,0
17340,note_off,,,,,60,0,1,,73,64,0
17340,note_on,,,,,0,0,2,,54,64,1
17340,note_off,,,,,60,0,2,,58,64,1
17400,note_on,,,,,0,0,1,,78,64,0
17400,note_off,,,,,60,0,1,,76,64,0
17400,note_on,,,,,0,0,2,,58,64,1
17400,note_off,,,,,60,0,2,,54,64,1
17460,note_on,,,,,0,0,2,,61,64,1
17460,note_off,,,,,60,0,2,,58,64,1
17460,note_on,,,,,0,0,1,,76,64,0
17460,note_off,,,,,60,0,1,,78,64,0
17520,note_on,,,,,0,0,2,,66,64,1
17520,note_on,,,,,0,0,1,,73,64,0
17520,note_off,,,,,60,0,1,,76,64,0
17520,note_off,,,,,60,0,2,,61,64,1
17580,note_off,,,,,60,0,2,,66,64,1
17580,note_on,,,,,0,0,1,,76,64,0
17580,note_off,,,,,60,0,1,,73,64,0
17580,note_on,,,,,0,0,2,,61,64,1
17640,note_on,,,,,0,0,1,,78,64,0
17640,note_on,,,,,0,0,2,,58,64,1
17640,note_off,,,,,60,0,1,,76,64,0
17640,note_off,,,,,60,0,2,,61,64,1
17700,note_off,,,,,60,0,2,,58,64,1
17700,note_on,,,,,0,0,2,,54,64,1
17700,note_off,,,,,60,0,1,,78,64,0
17700,note_on,,,,,0,0,1,,76,64,0
17760,note_on,,,,,0,0,2,,58,64,1
17760,note_off,,,,,60,0,2,,54,64,1
17760,note_on,,,,,0,0,1,,73,64,0
17760,note_off,,,,,60,0,1,,76,64,0
17820,note_on,,,,,0,0,1,,76,64,0
17820,note_off,,,,,60,0,1,,73,64,0
17820,note_on,,,,,0,0,2,,61,64,1
17820,note_off,,,,,60,0,2,,58,64,1
17880,note_on,,,,,0,0,1,,78,64,0
17880,note_off,,,,,60,0,1,,76,64,0
17880,note_on,,,,,0,0,2,,66,64,1
17880,note_off,,,,,60,0,2,,61,64,1
17940,note_off,,,,,60,0,1,,78,64,0
17940,note_on,,,,,0,0,2,,64,64,1
17940,note_off,,,,,60,0,2,,66,64,1
17940,note_on,,,,,0,0,1,,70,64,0
18000,note_on,,,,,0,0,1,,71,64,0
18000,note_off,,,,,60,0,1,,70,64,0
18000,note_on,,,,,0,0,2,,63,64,1
18000,note_off,,,,,60,0,2,,64,64,1
18060,note_off,,,,,60,0,1,,71,64,0
18060,note_on,,,,,0,0,1,,74,64,0
18060,note_off,,,,,60,0,2,,63,64,1
18060,note_on,,,,,0,0,2,,47,64,1
18120,note_on,,,,,0,0,2,,50,64,1
18120,note_off,,,,,60,0,2,,47,64,1
18120,note_off,,,,,60,0,1,,74,64,0
18120,note_on,,,,,0,0,1,,78,64,0
18180,note_off,,,,,60,0,2,,50,64,1
18180,note_on,,,,,0,0,2,,54,64,1
18180,note_off,,,,,60,0,1,,78,64,0
18180,note_on,,,,,0,0,1,,74,64,0
18240,note_off,,,,,60,0,2,,54,64,1
18240,note_on,,,,,0,0,2,,59,64,1
18240,note_on,,,,,0,0,1,,71,64,0
18240,note_off,,,,,60,0,1,,74,64,0
18300,note_off,,,,,60,0,1,,71,64,0
18300,note_on,,,,,0,0,1,,74,64,0
18300,note_off,,,,,60,0,2,,59,64,1
18300,note_on,,,,,0,0,2,,54,64,1
18360,note_off,,,,,60,0,1,,74,64,0
18360,note_on,,,,,0,0,1,,78,64,0
18360,note_off,,,,,60,0,2,,54,64,1
18360,note_on,,,,,0,0,2,,50,64,1
18420,note_off,,,,,60,0,1,,78,64,0
18420,note_on,,,,,0,0,1,,74,64,0
18420,note_on,,,,,0,0,2,,47,64,1
18420,note_off,,,,,60,0,2,,50,64,1
18480,note_off,,,,,60,0,2,,47,64,1
18480,note_on,,,,,0,0,2,,50,64,1
18480,note_on,,,,,0,0,1,,71,64,0
18480,note_off,,,,,60,0,1,,74,64,0
18540,note_on,,,,,0,0,2,,54,64,1
18540,note_off,,,,,60,0,1,,71,64,0
18540,note_on,,,,,0,0,1,,74,64,0
18540,note_off,,,,,60,0,2,,50,64,1
18600,note_off,,,,,60,0,2,,54,64,1
18600,note_on,,,,,0,0,2,,59,64,1
18600,note_off,,,,,60,0,1,,74,64,0
18600,note_on,,,,,0,0,1,,78,64,0
18660,note_off,,,,,60,0,2,,59,64,1
18660,note_on,,,,,0,0,2,,57,64,1
18660,note_off,,,,,60,0,1,,78,64,0
18660,note_on,,,,,0,0,1,,74,64,0
18720,note_on,,,,,0,0,1,,71,64,0
18720,note_off,,,,,60,0,1,,74,64,0
18720,note_on,,,,,0,0,2,,56,64,1
18720,note_off,,,,,60,0,2,,57,64,1
18780,note_on,,,,,0,0,1,,74,64,0
18780,note_on,,,,,0,0,2,,52,64,1
18780,note_off,,,,,60,0,2,,56,64,1
18780,note_off,,,,,60,0,1,,71,64,0
18840,note_on,,,,,0,0,1,,76,64,0
18840,note_off,,,,,60,0,1,,74,64,0
18840,note_on,,,,,0,0,2,,56,64,1
18840,note_off,,,,,60,0,2,,52,64,1
18900,note_on,,,,,0,0,1,,74,64,0
18900,note_off,,,,,60,0,2,,56,64,1
18900,note_on,,,,,0,0,2,,59,64,1
18900,note_off,,,,,60,0,1,,76,64,0
18960,note_off,,,,,60,0,1,,74,64,0
18960,note_off,,,,,60,0,2,,59,64,1
18960,note_on,,,,,0,0,1,,71,64,0
18960,note_on,,,,,0,0,2,,64,64,1
19020,note_on,,,,,0,0,1,,74,64,0
19020,note_on,,,,,0,0,2,,59,64,1
19020,note_off,,,,,60,0,1,,71,64,0
19020,note_off,,,,,60,0,2,,64,64,1
19080,note_off,,,,,60,0,2,,59,64,1
19080,note_on,,,,,0,0,2,,56,64,1
19080,note_off,,,,,60,0,1,,74,64,0
19080,note_on,,,,,0,0,1,,76,64,0
19140,note_off,,,,,60,0,1,,76,64,0
19140,note_off,,,,,60,0,2,,56,64,1
19140,note_on,,,,,0,0,1,,74,64,0
19140,note_on,,,,,0,0,2,,52,64,1
19200,note_on,,,,,0,0,1,,71,64,0
19200,note_off,,,,,60,0,1,,74,64,0
19200,note_off,,,,,60,0,2,,52,64,1
19200,note_on,,,,,0,0,2,,56,64,1
19260,note_on,,,,,0,0,1,,74,64,0
19260,note_off,,,,,60,0,1,,71,64,0
19260,note_off,,,,,60,0,2,,56,64,1
19260,note_on,,,,,0,0,2,,59,64,1
19320,note_on,,,,,0,0,1,,76,64,0
19320,note_on,,,,,0,0,2,,64,64,1
19320,note_off,,,,,60,0,1,,74,64,0
19320,note_off,,,,,60,0,2,,59,64,1
19380,note_off,,,,,60,0,1,,76,64,0
19380,note_off,,,,,60,0,2,,64,64,1
19380,note_on,,,,,0,0,2,,62,64,1
19380,note_on,,,,,0,0,1,,68,64,0
19440,note_off,,,,,60,0,2,,62,64,1
19440,note_off,,,,,60,0,1,,68,64,0
19440,note_on,,,,,0,0,1,,69,64,0
19440,note_on,,,,,0,0,2,,61,64,1
19470,note_on,,,,,0,0,1,,68,56,0
19470,note_off,,,,,30,0,1,,69,64,0
19500,note_on,,,,,0,0,2,,62,64,1
19500,note_on,,,,,0,0,1,,69,64,0
19500,note_off,,,,,30,0,1,,68,64,0
19500,note_off,,,,,60,0,2,,61,64,1
19560,note_off,,,,,60,0,2,,62,64,1
19560,note_on,,,,,0,0,2,,64,64,1
19620,note_off,,,,,60,0,2,,64,64,1
19620,note_on,,,,,0,0,2,,62,64,1
19670,note_off,,,,,170,0,1,,69,64,0
19680,note_off,,,,,60,0,2,,62,64,1
19680,note_on,,,,,0,0,2,,61,64,1
19680,note_on,,,,,10,0,1,,69,64,0
19740,note_off,,,,,60,0,2,,61,64,1
19740,note_on,,,,,0,0,2,,59,64,1
19800,note_off,,,,,120,0,1,,69,64,0
19800,note_on,,,,,0,0,1,,69,64,0
19800,note_off,,,,,60,0,2,,59,64,1
19800,note_on,,,,,0,0,2,,57,64,1
19830,note_on,,,,,0,0,1,,68,56,0
19830,note_off,,,,,30,0,1,,69,64,0
19860,note_off,,,,,60,0,2,,57,64,1
19860,note_on,,,,,0,0,2,,59,64,1
19860,note_off,,,,,30,0,1,,68,64,0
19860,note_on,,,,,0,0,1,,69,64,0
19920,note_off,,,,,60,0,2,,59,64,1
19920,note_on,,,,,0,0,2,,61,64,1
19980,note_on,,,,,0,0,2,,59,64,1
19980,note_off,,,,,60,0,2,,61,64,1
20030,note_off,,,,,170,0,1,,69,64,0
20040,note_on,,,,,10,0,1,,69,64,0
20040,note_off,,,,,60,0,2,,59,64,1
20040,note_on,,,,,0,0,2,,57,64,1
20100,note_on,,,,,0,0,2,,56,64,1
20100,note_off,,,,,60,0,2,,57,64,1
20160,note_on,,,,,0,0,2,,54,64,1
20160,note_off,,,,,120,0,1,,69,64,0
20160,note_on,,,,,0,0,1,,69,64,0
20160,note_off,,,,,60,0,2,,56,64,1
20220,note_on,,,,,0,0,1,,75,64,0
20220,note_off,,,,,60,0,1,,69,64,0
20280,note_off,,,,,120,0,2,,54,64,1
20280,note_on,,,,,0,0,2,,57,64,1
20280,note_on,,,,,0,0,1,,71,64,0
20280,note_off,,,,,60,0,1,,75,64,0
20340,note_on,,,,,0,0,1,,69,64,0
20340,note_off,,,,,60,0,1,,71,64,0
20400,note_off,,,,,120,0,2,,57,64,1
20400,note_on,,,,,0,0,1,,66,64,0
20400,note_off,,,,,60,0,1,,69,64,0
20400,note_on,,,,,0,0,2,,63,64,1
20460,note_on,,,,,0,0,1,,69,64,0
20460,note_off,,,,,60,0,1,,66,64,0
20520,note_on,,,,,0,0,1,,71,64,0
20520,note_off,,,,,60,0,1,,69,64,0
20580,note_on,,,,,0,0,1,,75,64,0
20580,note_off,,,,,60,0,1,,71,64,0
20640,note_off,,,,,240,0,2,,63,64,1
20640,note_on,,,,,0,0,1,,71,64,0
20640,note_off,,,,,60,0,1,,75,64,0
20640,note_on,,,,,0,0,2,,61,64,1
20700,note_on,,,,,0,0,1,,69,64,0
20700,note_off,,,,,60,0,1,,71,64,0
20760,note_off,,,,,60,0,1,,69,64,0
20760,note_on,,,,,0,0,2,,59,64,1
20760,note_off,,,,,120,0,2,,61,64,1
20760,note_on,,,,,0,0,1,,66,64,0
20820,note_on,,,,,0,0,1,,69,64,0
20820,note_off,,,,,60,0,1,,66,64,0
20880,note_off,,,,,60,0,1,,69,64,0
20880,note_on,,,,,0,0,1,,67,64,0
20880,note_on,,,,,0,0,2,,64,64,1
20880,note_off,,,,,120,0,2,,59,64,1
20910,note_off,,,,,30,0,1,,67,64,0
20910,note_on,,,,,0,0,1,,66,56,0
20940,note_off,,,,,60,0,2,,64,64,1
20940,note_on,,,,,0,0,2,,66,64,1
20940,note_on,,,,,0,0,1,,67,64,0
20940,note_off,,,,,30,0,1,,66,64,0
21000,note_on,,,,,0,0,2,,67,64,1
21000,note_off,,,,,60,0,2,,66,64,1
21060,note_off,,,,,60,0,2,,67,64,1
21060,note_on,,,,,0,0,2,,66,64,1
21110,note_off,,,,,170,0,1,,67,64,0
21120,note_on,,,,,10,0,1,,67,64,0
21120,note_off,,,,,60,0,2,,66,64,1
21120,note_on,,,,,0,0,2,,64,64,1
21180,note_on,,,,,0,0,2,,62,64,1
21180,note_off,,,,,60,0,2,,64,64,1
21240,note_off,,,,,60,0,2,,62,64,1
21240,note_on,,,,,0,0,2,,61,64,1
21240,note_off,,,,,120,0,1,,67,64,0
21240,note_on,,,,,0,0,1,,67,64,0
21270,note_on,,,,,0,0,1,,66,56,0
21270,note_off,,,,,30,0,1,,67,64,0
21300,note_on,,,,,0,0,1,,67,64,0
21300,note_on,,,,,0,0,2,,62,64,1
21300,note_off,,,,,60,0,2,,61,64,1
21300,note_off,,,,,30,0,1,,66,64,0
21360,note_off,,,,,60,0,2,,62,64,1
21360,note_on,,,,,0,0,2,,64,64,1
21420,note_off,,,,,60,0,2,,64,64,1
21420,note_on,,,,,0,0,2,,62,64,1
21470,note_off,,,,,170,0,1,,67,64,0
21480,note_off,,,,,60,0,2,,62,64,1
21480,note_on,,,,,0,0,2,,61,64,1
21480,note_on,,,,,10,0,1,,67,64,0
21540,note_off,,,,,60,0,2,,61,64,1
21540,note_on,,,,,0,0,2,,59,64,1
21600,note_off,,,,,120,0,1,,67,64,0
21600,note_off,,,,,60,0,2,,59,64,1
21600,note_on,,,,,0,0,2,,57,64,1
21600,note_on,,,,,0,0,1,,67,64,0
21660,note_on,,,,,0,0,1,,76,64,0
21660,note_off,,,,,60,0,1,,67,64,0
21720,note_on,,,,,0,0,1,,73,64,0
21720,note_off,,,,,60,0,1,,76,64,0
21720,note_on,,,,,0,0,2,,52,64,1
21720,note_off,,,,,120,0,2,,57,64,1
21780,note_on,,,,,0,0,1,,67,64,0
21780,note_off,,,,,60,0,1,,73,64,0
21840,note_on,,,,,0,0,1,,64,64,0
21840,note_off,,,,,120,0,2,,52,64,1
21840,note_off,,,,,60,0,1,,67,64,0
21840,note_on,,,,,0,0,2,,49,64,1
21900,note_off,,,,,60,0,1,,64,64,0
21900,note_on,,,,,0,0,1,,67,64,0
21960,note_off,,,,,60,0,1,,67,64,0
21960,note_on,,,,,0,0,2,,45,64,1
21960,note_off,,,,,120,0,2,,49,64,1
21960,note_on,,,,,0,0,1,,73,64,0
22020,note_off,,,,,60,0,1,,73,64,0
22020,note_on,,,,,0,0,1,,76,64,0
22080,note_off,,,,,60,0,1,,76,64,0
22080,note_on,,,,,0,0,1,,73,64,0
22140,note_on,,,,,0,0,1,,67,64,0
22140,note_off,,,,,60,0,1,,73,64,0
22200,note_off,,,,,60,0,1,,67,64,0
22200,note_on,,,,,0,0,1,,64,64,0
22200,note_off,,,,,240,0,2,,45,64,1
22260,note_on,,,,,0,0,1,,67,64,0
22260,note_off,,,,,60,0,1,,64,64,0
22320,note_on,,,,,0,0,1,,66,64,0
22320,note_off,,,,,60,0,1,,67,64,0
22380,note_on,,,,,180,0,2,,50,64,1
22440,note_off,,,,,120,0,1,,66,64,0
22440,note_on,,,,,0,0,2,,54,64,1
22440,note_off,,,,,60,0,2,,50,64,1
22500,note_on,,,,,0,0,2,,57,64,1
22500,note_off,,,,,60,0,2,,54,64,1
22560,note_off,,,,,60,0,2,,57,64,1
22560,note_on,,,,,0,0,2,,62,64,1
22620,note_on,,,,,0,0,2,,61,64,1
22620,note_off,,,,,60,0,2,,62,64,1
22680,note_on,,,,,0,0,2,,59,64,1
22680,note_off,,,,,60,0,2,,61,64,1
22740,note_on,,,,,300,0,1,,56,64,0
22800,note_off,,,,,60,0,1,,56,64,0
22800,note_on,,,,,0,0,1,,59,64,0
22800,note_off,,,,,120,0,2,,59,64,1
22860,note_on,,,,,0,0,1,,62,64,0
22860,note_off,,,,,60,0,1,,59,64,0
22920,note_on,,,,,0,0,1,,68,64,0
22920,note_off,,,,,60,0,1,,62,64,0
22980,note_on,,,,,0,0,1,,66,64,0
22980,note_off,,,,,60,0,1,,68,64,0
23040,note_on,,,,,0,0,1,,64,64,0
23040,note_off,,,,,60,0,1,,66,64,0
23100,note_on,,,,,300,0,2,,49,64,1
23160,note_on,,,,,0,0,2,,52,64,1
23160,note_off,,,,,60,0,2,,49,64,1
23160,note_off,,,,,120,0,1,,64,64,0
23220,note_on,,,,,0,0,2,,56,64,1
23220,note_off,,,,,60,0,2,,52,64,1
23280,note_off,,,,,60,0,2,,56,64,1
23280,note_on,,,,,0,0,2,,61,64,1
23340,note_off,,,,,60,0,2,,61,64,1
23340,note_on,,,,,0,0,2,,59,64,1
23400,note_off,,,,,60,0,2,,59,64,1
23400,note_on,,,,,0,0,2,,57,64,1
23460,note_on,,,,,300,0,1,,54,64,0
23520,note_off,,,,,120,0,2,,57,64,1
23520,note_on,,,,,0,0,1,,57,64,0
23520,note_off,,,,,60,0,1,,54,64,0
23580,note_on,,,,,0,0,1,,61,64,0
23580,note_off,,,,,60,0,1,,57,64,0
23640,note_on,,,,,0,0,1,,66,64,0
23640,note_off,,,,,60,0,1,,61,64,0
23700,note_on,,,,,0,0,1,,64,64,0
23700,note_off,,,,,60,0,1,,66,64,0
23760,note_on,,,,,0,0,1,,62,64,0
23760,note_off,,,,,60,0,1,,64,64,0
23820,note_on,,,,,300,0,2,,47,64,1
23880,note_off,,,,,120,0,1,,62,64,0
23880,note_off,,,,,60,0,2,,47,64,1
23880,note_on,,,,,0,0,2,,50,64,1
23940,note_off,,,,,60,0,2,,50,64,1
23940,note_on,,,,,0,0,2,,54,64,1
24000,note_off,,,,,60,0,2,,54,64,1
24000,note_on,,,,,0,0,2,,59,64,1
24060,note_off,,,,,60,0,2,,59,64,1
24060,note_on,,,,,0,0,2,,57,64,1
24120,note_off,,,,,60,0,2,,57,64,1
24120,note_on,,,,,0,0,2,,56,64,1
24180,note_on,,,,,300,0,1,,52,64,0
24240,note_on,,,,,0,0,1,,56,64,0
24240,note_off,,,,,60,0,1,,52,64,0
24240,note_off,,,,,120,0,2,,56,64,1
24300,note_on,,,,,0,0,1,,59,64,0
24300,note_off,,,,,60,0,1,,56,64,0
24360,note_on,,,,,0,0,1,,64,64,0
24360,note_off,,,,,60,0,1,,59,64,0
24420,note_off,,,,,60,0,1,,64,64,0
24420,note_on,,,,,0,0,1,,62,64,0
24480,note_on,,,,,240,0,2,,45,64,1
24480,note_off,,,,,60,0,1,,62,64,0
24480,note_on,,,,,0,0,1,,61,64,0
24510,note_on,,,,,0,0,2,,44,56,1
24510,note_off,,,,,30,0,2,,45,64,1
24540,note_off,,,,,60,0,1,,61,64,0
24540,note_on,,,,,0,0,2,,45,64,1
24540,note_off,,,,,30,0,2,,44,64,1
24540,note_on,,,,,0,0,1,,57,64,0
24600,note_off,,,,,60,0,1,,57,64,0
24600,note_on,,,,,0,0,1,,61,64,0
24660,note_off,,,,,60,0,1,,61,64,0
24660,note_on,,,,,0,0,1,,64,64,0
24710,note_off,,,,,170,0,2,,45,64,1
24720,note_on,,,,,0,0,1,,69,64,0
24720,note_off,,,,,60,0,1,,64,64,0
24720,note_on,,,,,10,0,2,,45,64,1
24780,note_off,,,,,60,0,1,,69,64,0
24780,note_on,,,,,0,0,1,,64,64,0
24840,note_on,,,,,0,0,2,,45,64,1
24840,note_off,,,,,60,0,1,,64,64,0
24840,note_on,,,,,0,0,1,,73,64,0
24840,note_off,,,,,120,0,2,,45,64,1
24870,note_off,,,,,30,0,2,,45,64,1
24870,note_on,,,,,0,0,2,,44,56,1
24900,note_off,,,,,60,0,1,,73,64,0
24900,note_on,,,,,0,0,1,,69,64,0
24900,note_on,,,,,0,0,2,,45,64,1
24900,note_off,,,,,30,0,2,,44,64,1
24960,note_on,,,,,0,0,1,,73,64,0
24960,note_off,,,,,60,0,1,,69,64,0
25020,note_on,,,,,0,0,1,,76,64,0
25020,note_off,,,,,60,0,1,,73,64,0
25070,note_off,,,,,170,0,2,,45,64,1
25080,note_on,,,,,10,0,2,,45,64,1
25080,note_on,,,,,0,0,1,,81,64,0
25080,note_off,,,,,60,0,1,,76,64,0
25140,note_off,,,,,60,0,1,,81,64,0
25140,note_on,,,,,0,0,1,,73,64,0
25200,note_off,,,,,120,0,2,,45,64,1
25200,note_off,,,,,60,0,1,,73,64,0
25200,note_on,,,,,0,0,1,,74,64,0
25200,note_on,,,,,0,0,2,,47,64,1
25240,note_off,,,,,40,0,2,,47,64,1
25240,note_on,,,,,0,0,2,,45,56,1
25260,note_on,,,,,0,0,1,,78,64,0
25260,note_off,,,,,60,0,1,,74,64,0
25280,note_off,,,,,40,0,2,,45,64,1
25280,note_on,,,,,0,0,2,,47,56,1
25320,note_on,,,,,0,0,1,,81,64,0
25320,note_off,,,,,60,0,1,,78,64,0
25320,note_off,,,,,40,0,2,,47,64,1
25320,note_on,,,,,0,0,2,,49,57,1
25360,note_on,,,,,0,0,2,,47,57,1
25360,note_off,,,,,40,0,2,,49,64,1
25380,note_on,,,,,0,0,1,,78,64,0
25380,note_off,,,,,60,0,1,,81,64,0
25400,note_on,,,,,0,0,2,,49,58,1
25400,note_off,,,,,40,0,2,,47,64,1
25440,note_on,,,,,0,0,1,,74,64,0
25440,note_off,,,,,60,0,1,,78,64,0
25440,note_on,,,,,0,0,2,,47,58,1
25440,note_off,,,,,40,0,2,,49,64,1
25480,note_on,,,,,0,0,2,,49,59,1
25480,note_off,,,,,40,0,2,,47,64,1
25500,note_on,,,,,0,0,1,,78,64,0
25500,note_off,,,,,60,0,1,,74,64,0
25520,note_on,,,,,0,0,2,,47,59,1
25520,note_off,,,,,40,0,2,,49,64,1
25560,note_off,,,,,60,0,1,,78,64,0
25560,note_on,,,,,0,0,2,,49,60,1
25560,note_off,,,,,40,0,2,,47,64,1
25560,note_on,,,,,0,0,1,,71,64,0
25600,note_on,,,,,0,0,2,,47,60,1
25600,note_off,,,,,40,0,2,,49,64,1
25620,note_on,,,,,0,0,1,,74,64,0
25620,note_off,,,,,60,0,1,,71,64,0
25640,note_on,,,,,0,0,2,,49,60,1
25640,note_off,,,,,40,0,2,,47,64,1
25680,note_off,,,,,40,0,2,,49,64,1
25680,note_on,,,,,0,0,2,,47,61,1
25680,note_on,,,,,0,0,1,,78,64,0
25680,note_off,,,,,60,0,1,,74,64,0
25720,note_off,,,,,40,0,2,,47,64,1
25720,note_on,,,,,0,0,2,,49,61,1
25740,note_off,,,,,60,0,1,,78,64,0
25740,note_on,,,,,0,0,1,,74,64,0
25760,note_off,,,,,40,0,2,,49,64,1
25760,note_on,,,,,0,0,2,,47,62,1
25800,note_off,,,,,60,0,1,,74,64,0
25800,note_on,,,,,0,0,1,,71,64,0
25800,note_off,,,,,40,0,2,,47,64,1
25800,note_on,,,,,0,0,2,,49,62,1
25840,note_off,,,,,40,0,2,,49,64,1
25840,note_on,,,,,0,0,2,,47,63,1
25860,note_off,,,,,60,0,1,,71,64,0
25860,note_on,,,,,0,0,1,,74,64,0
25880,note_off,,,,,40,0,2,,47,64,1
25880,note_on,,,,,0,0,2,,49,63,1
25920,note_on,,,,,0,0,2,,47,64,1
25920,note_off,,,,,60,0,1,,74,64,0
25920,note_on,,,,,0,0,1,,68,64,0
25920,note_off,,,,,40,0,2,,49,64,1
25980,note_off,,,,,60,0,2,,47,64,1
25980,note_on,,,,,0,0,2,,45,64,1
26040,note_off,,,,,60,0,2,,45,64,1
26040,note_on,,,,,0,0,1,,71,64,0
26040,note_off,,,,,120,0,1,,68,64,0
26040,note_on,,,,,0,0,2,,44,64,1
26100,note_off,,,,,60,0,2,,44,64,1
26100,note_on,,,,,0,0,2,,45,64,1
26160,note_off,,,,,60,0,2,,45,64,1
26160,note_on,,,,,0,0,2,,47,64,1
26160,note_on,,,,,0,0,1,,74,64,0
26160,note_off,,,,,120,0,1,,71,64,0
26220,note_off,,,,,60,0,2,,47,64,1
26220,note_on,,,,,0,0,2,,49,64,1
26280,note_off,,,,,60,0,2,,49,64,1
26280,note_on,,,,,0,0,2,,50,64,1
26280,note_on,,,,,0,0,1,,78,64,0
26280,note_off,,,,,120,0,1,,74,64,0
26340,note_on,,,,,0,0,2,,49,64,1
26340,note_off,,,,,60,0,2,,50,64,1
26400,note_on,,,,,0,0,2,,50,64,1
26400,note_off,,,,,120,0,1,,78,64,0
26400,note_on,,,,,0,0,1,,76,64,0
26400,note_off,,,,,60,0,2,,49,64,1
26460,note_off,,,,,60,0,2,,50,64,1
26460,note_on,,,,,0,0,2,,54,64,1
26520,note_off,,,,,60,0,2,,54,64,1
26520,note_on,,,,,0,0,2,,52,64,1
26520,note_off,,,,,120,0,1,,76,64,0
26520,note_on,,,,,0,0,1,,71,64,0
26580,note_off,,,,,60,0,2,,52,64,1
26580,note_on,,,,,0,0,2,,50,64,1
26640,note_on,,,,,0,0,1,,78,64,0
26640,note_on,,,,,0,0,2,,49,64,1
26640,note_off,,,,,60,0,2,,50,64,1
26640,note_off,,,,,120,0,1,,71,64,0
26700,note_on,,,,,0,0,2,,47,64,1
26700,note_off,,,,,60,0,2,,49,64,1
26760,note_on,,,,,0,0,1,,76,64,0
26760,note_off,,,,,120,0,1,,78,64,0
26760,note_off,,,,,60,0,2,,47,64,1
26760,note_on,,,,,0,0,2,,49,64,1
26820,note_off,,,,,60,0,2,,49,64,1
26820,note_on,,,,,0,0,2,,52,64,1
26880,note_off,,,,,60,0,2,,52,64,1
26880,note_on,,,,,0,0,2,,50,64,1
26880,note_off,,,,,120,0,1,,76,64,0
26880,note_on,,,,,0,0,1,,69,64,0
26940,note_on,,,,,0,0,2,,49,64,1
26940,note_off,,,,,60,0,2,,50,64,1
27000,note_off,,,,,60,0,2,,49,64,1
27000,note_on,,,,,0,0,2,,47,64,1
27000,note_on,,,,,0,0,1,,76,64,0
27000,note_off,,,,,120,0,1,,69,64,0
27060,note_off,,,,,60,0,2,,47,64,1
27060,note_on,,,,,0,0,2,,45,64,1
27120,note_off,,,,,120,0,1,,76,64,0
27120,note_on,,,,,0,0,2,,47,64,1
27120,note_on,,,,,0,0,1,,74,64,0
27120,note_off,,,,,60,0,2,,45,64,1
27180,note_on,,,,,0,0,2,,50,64,1
27180,note_off,,,,,60,0,2,,47,64,1
27240,note_off,,,,,120,0,1,,74,64,0
27240,note_on,,,,,0,0,1,,68,64,0
27240,note_on,,,,,0,0,2,,49,64,1
27240,note_off,,,,,60,0,2,,50,64,1
27300,note_on,,,,,0,0,2,,47,64,1
27300,note_off,,,,,60,0,2,,49,64,1
27360,note_on,,,,,0,0,2,,45,64,1
27360,note_off,,,,,60,0,2,,47,64,1
27360,note_off,,,,,120,0,1,,68,64,0
27360,note_on,,,,,0,0,1,,74,64,0
27420,note_on,,,,,0,0,2,,44,64,1
27420,note_off,,,,,60,0,2,,45,64,1
27480,note_on,,,,,0,0,2,,45,64,1
27480,note_off,,,,,60,0,2,,44,64,1
27480,note_off,,,,,120,0,1,,74,64,0
27480,note_on,,,,,0,0,1,,73,64,0
27540,note_off,,,,,60,0,2,,45,64,1
27540,note_on,,,,,0,0,2,,47,64,1
27600,note_on,,,,,0,0,1,,64,64,0
27600,note_off,,,,,120,0,1,,73,64,0
27600,note_off,,,,,60,0,2,,47,64,1
27600,note_on,,,,,0,0,2,,49,64,1
27660,note_off,,,,,60,0,2,,49,64,1
27660,note_on,,,,,0,0,2,,45,64,1
27720,note_on,,,,,0,0,1,,66,64,0
27720,note_on,,,,,0,0,2,,50,64,1
27720,note_off,,,,,120,0,1,,64,64,0
27720,note_off,,,,,60,0,2,,45,64,1
27750,note_on,,,,,0,0,2,,49,56,1
27750,note_off,,,,,30,0,2,,50,64,1
27780,note_on,,,,,0,0,2,,50,64,1
27780,note_off,,,,,30,0,2,,49,64,1
27780,note_on,,,,,0,0,1,,68,64,0
27780,note_off,,,,,60,0,1,,66,64,0
27840,note_on,,,,,0,0,1,,69,64,0
27840,note_off,,,,,60,0,1,,68,64,0
27900,note_on,,,,,0,0,1,,71,64,0
27900,note_off,,,,,60,0,1,,69,64,0
27950,note_off,,,,,170,0,2,,50,64,1
27960,note_on,,,,,0,0,1,,73,64,0
27960,note_off,,,,,60,0,1,,71,64,0
27960,note_on,,,,,10,0,2,,50,64,1
28020,note_off,,,,,60,0,1,,73,64,0
28020,note_on,,,,,0,0,1,,74,64,0
28080,note_on,,,,,0,0,2,,49,56,1
28080,note_off,,,,,120,0,2,,50,64,1
28080,note_on,,,,,0,0,1,,68,64,0
28080,note_off,,,,,60,0,1,,74,64,0
28120,note_off,,,,,40,0,2,,49,64,1
28120,note_on,,,,,0,0,2,,50,64,1
28140,note_off,,,,,60,0,1,,68,64,0
28140,note_on,,,,,0,0,1,,64,64,0
28160,note_off,,,,,40,0,2,,50,64,1
28160,note_on,,,,,0,0,2,,52,64,1
28200,note_on,,,,,0,0,1,,68,64,0
28200,note_off,,,,,60,0,1,,64,64,0
28200,note_on,,,,,0,0,2,,50,56,1
28200,note_off,,,,,40,0,2,,52,64,1
28240,note_off,,,,,40,0,2,,50,64,1
28240,note_on,,,,,0,0,2,,52,56,1
28260,note_off,,,,,60,0,1,,68,64,0
28260,note_on,,,,,0,0,1,,71,64,0
28280,note_on,,,,,0,0,2,,50,57,1
28280,note_off,,,,,40,0,2,,52,64,1
28320,note_on,,,,,0,0,2,,52,57,1
28320,note_off,,,,,40,0,2,,50,64,1
28320,note_off,,,,,60,0,1,,71,64,0
28320,note_on,,,,,0,0,1,,76,64,0
28360,note_on,,,,,0,0,2,,50,58,1
28360,note_off,,,,,40,0,2,,52,64,1
28380,note_off,,,,,60,0,1,,76,64,0
28380,note_on,,,,,0,0,1,,71,64,0
28400,note_off,,,,,40,0,2,,50,64,1
28400,note_on,,,,,0,0,2,,52,58,1
28440,note_off,,,,,60,0,1,,71,64,0
28440,note_on,,,,,0,0,1,,80,64,0
28440,note_off,,,,,40,0,2,,52,64,1
28440,note_on,,,,,0,0,2,,50,59,1
28480,note_off,,,,,40,0,2,,50,64,1
28480,note_on,,,,,0,0,2,,52,60,1
28500,note_on,,,,,0,0,1,,76,64,0
28500,note_off,,,,,60,0,1,,80,64,0
28520,note_off,,,,,40,0,2,,52,64,1
28520,note_on,,,,,0,0,2,,50,60,1
28560,note_on,,,,,0,0,1,,83,64,0
28560,note_off,,,,,60,0,1,,76,64,0
28560,note_on,,,,,0,0,2,,52,61,1
28560,note_off,,,,,40,0,2,,50,64,1
28600,note_on,,,,,0,0,2,,50,61,1
28600,note_off,,,,,40,0,2,,52,64,1
28620,note_on,,,,,0,0,1,,80,64,0
28620,note_off,,,,,60,0,1,,83,64,0
28640,note_off,,,,,40,0,2,,50,64,1
28640,note_on,,,,,0,0,2,,52,62,1
28680,note_off,,,,,40,0,2,,52,64,1
28680,note_on,,,,,0,0,2,,50,62,1
28680,note_on,,,,,0,0,1,,76,64,0
28680,note_off,,,,,60,0,1,,80,64,0
28720,note_on,,,,,0,0,2,,52,63,1
28720,note_off,,,,,40,0,2,,50,64,1
28740,note_on,,,,,0,0,1,,80,64,0
28740,note_off,,,,,60,0,1,,76,64,0
28760,note_off,,,,,40,0,2,,52,64,1
28760,note_on,,,,,0,0,2,,50,63,1
28800,note_on,,,,,0,0,2,,49,64,1
28800,note_off,,,,,60,0,1,,80,64,0
28800,note_on,,,,,0,0,1,,81,64,0
28800,note_off,,,,,40,0,2,,50,64,1
28860,note_off,,,,,60,0,2,,49,64,1
28860,note_on,,,,,0,0,2,,50,64,1
28920,note_off,,,,,60,0,2,,50,64,1
28920,note_on,,,,,0,0,2,,49,64,1
28920,note_off,,,,,120,0,1,,81,64,0
28920,note_on,,,,,0,0,1,,76,64,0
28980,note_off,,,,,60,0,2,,49,64,1
28980,note_on,,,,,0,0,2,,47,64,1
29040,note_off,,,,,120,0,1,,76,64,0
29040,note_on,,,,,0,0,1,,73,64,0
29040,note_on,,,,,0,0,2,,45,64,1
29040,note_off,,,,,60,0,2,,47,64,1
29100,note_on,,,,,0,0,2,,44,64,1
29100,note_off,,,,,60,0,2,,45,64,1
29160,note_on,,,,,0,0,1,,69,64,0
29160,note_off,,,,,120,0,1,,73,64,0
29160,note_on,,,,,0,0,2,,42,64,1
29160,note_off,,,,,60,0,2,,44,64,1
29220,note_on,,,,,0,0,1,,74,64,0
29220,note_on,,,,,0,0,2,,54,64,1
29220,note_off,,,,,60,0,1,,69,64,0
29220,note_off,,,,,60,0,2,,42,64,1
29280,note_on,,,,,0,0,2,,52,64,1
29280,note_off,,,,,60,0,1,,74,64,0
29280,note_on,,,,,0,0,1,,73,64,0
29280,note_off,,,,,60,0,2,,54,64,1
29340,note_on,,,,,0,0,2,,50,64,1
29340,note_off,,,,,60,0,1,,73,64,0
29340,note_on,,,,,0,0,1,,71,64,0
29340,note_off,,,,,60,0,2,,52,64,1
29400,note_off,,,,,60,0,1,,71,64,0
29400,note_on,,,,,0,0,1,,76,64,0
29400,note_on,,,,,0,0,2,,49,64,1
29400,note_off,,,,,60,0,2,,50,64,1
29460,note_on,,,,,0,0,2,,47,64,1
29460,note_off,,,,,60,0,2,,49,64,1
29520,note_on,,,,,0,0,2,,49,64,1
29520,note_off,,,,,60,0,2,,47,64,1
29580,note_off,,,,,60,0,2,,49,64,1
29580,note_off,,,,,180,0,1,,76,64,0
29580,note_on,,,,,0,0,2,,50,64,1
29580,note_on,,,,,0,0,1,,78,64,0
29640,note_on,,,,,0,0,2,,52,64,1
29640,note_off,,,,,60,0,2,,50,64,1
29640,note_on,,,,,0,0,1,,73,64,0
29640,note_off,,,,,60,0,1,,78,64,0
29760,note_on,,,,,0,0,2,,40,64,1
29760,note_off,,,,,120,0,1,,73,64,0
29760,note_off,,,,,120,0,2,,52,64,1
29760,note_on,,,,,0,0,1,,71,64,0
29820,note_on,,,,,0,0,1,,69,64,0
29820,note_off,,,,,60,0,1,,71,64,0
29880,note_off,,,,,120,0,2,,40,64,1
29880,note_on,,,,,0,0,2,,45,64,1
29880,note_off,,,,,60,0,1,,69,64,0
29880,note_on,,,,,0,0,1,,69,64,0
30240,note_off,,,,,360,0,1,,69,64,0
30240,note_off,,,,,360,0,2,,45,64,1
30240,end_of_track,,,,,0,1,1,,,,
30240,end_of_track,,,,,0,1,2,,,,
