tick,type,time,meta,track,frame_rate,hours,minutes,seconds,frames,sub_frames,numerator,denominator,clocks_per_click,notated_32nd_notes_per_beat,tempo,note,velocity,channel
0,text,0,1,0,,,,,,,,,,,,,,
0,note_on,0,0,2,,,,,,,,,,,,60,64,1
0,text,0,1,2,,,,,,,,,,,,,,
0,text,0,1,1,,,,,,,,,,,,,,
0,text,0,1,3,,,,,,,,,,,,,,
0,set_tempo,0,1,0,,,,,,,,,,,833333,,,
0,end_of_track,0,1,0,,,,,,,,,,,,,,
0,smpte_offset,0,1,0,24,32,0,0,0,0,,,,,,,,
0,time_signature,0,1,0,,,,,,,4,4,24,8,,,,
360,note_on,360,0,3,,,,,,,,,,,,60,64,2
420,note_on,0,0,3,,,,,,,,,,,,62,64,2
420,note_off,60,0,3,,,,,,,,,,,,60,64,2
480,note_off,60,0,3,,,,,,,,,,,,62,64,2
480,note_on,0,0,3,,,,,,,,,,,,63,64,2
600,note_off,600,0,2,,,,,,,,,,,,60,64,1
600,note_on,0,0,2,,,,,,,,,,,,59,64,1
720,note_off,120,0,2,,,,,,,,,,,,59,64,1
720,note_on,0,0,2,,,,,,,,,,,,60,64,1
840,note_off,120,0,2,,,,,,,,,,,,60,64,1
840,note_on,0,0,2,,,,,,,,,,,,62,64,1
840,note_on,0,0,3,,,,,,,,,,,,65,64,2
840,note_off,360,0,3,,,,,,,,,,,,63,64,2
960,note_on,0,0,3,,,,,,,,,,,,67,64,2
960,note_off,120,0,2,,,,,,,,,,,,62,64,1
960,note_on,0,0,2,,,,,,,,,,,,63,64,1
960,note_off,120,0,3,,,,,,,,,,,,65,64,2
1200,note_on,1200,0,1,,,,,,,,,,,,67,64,0
1320,note_off,120,0,1,,,,,,,,,,,,67,64,0
1320,note_on,0,0,1,,,,,,,,,,,,65,64,0
1440,note_off,120,0,1,,,,,,,,,,,,65,64,0
1440,note_on,0,0,1,,,,,,,,,,,,63,64,0
1680,note_on,0,0,2,,,,,,,,,,,,65,64,1
1680,note_off,720,0,2,,,,,,,,,,,,63,64,1
1680,note_off,720,0,3,,,,,,,,,,,,67,64,2
1740,note_on,60,0,3,,,,,,,,,,,,65,64,2
1800,note_off,60,0,3,,,,,,,,,,,,65,64,2
1800,note_on,0,0,3,,,,,,,,,,,,63,64,2
1860,note_off,60,0,3,,,,,,,,,,,,63,64,2
1860,note_on,0,0,3,,,,,,,,,,,,62,64,2
1920,note_on,0,0,2,,,,,,,,,,,,67,64,1
1920,note_on,0,0,3,,,,,,,,,,,,60,64,2
1920,note_off,240,0,2,,,,,,,,,,,,65,64,1
1920,note_off,60,0,3,,,,,,,,,,,,62,64,2
2160,note_on,0,0,1,,,,,,,,,,,,62,64,0
2160,note_off,720,0,1,,,,,,,,,,,,63,64,0
2280,note_on,0,0,3,,,,,,,,,,,,58,64,2
2280,note_off,360,0,3,,,,,,,,,,,,60,64,2
2400,note_off,120,0,3,,,,,,,,,,,,58,64,2
2400,note_on,0,0,3,,,,,,,,,,,,56,64,2
2400,note_off,240,0,1,,,,,,,,,,,,62,64,0
2400,note_on,0,0,1,,,,,,,,,,,,60,64,0
2520,note_on,0,0,2,,,,,,,,,,,,63,64,1
2520,note_off,600,0,2,,,,,,,,,,,,67,64,1
2640,note_off,120,0,2,,,,,,,,,,,,63,64,1
2640,note_on,0,0,2,,,,,,,,,,,,65,64,1
2760,note_on,0,0,3,,,,,,,,,,,,55,64,2
2760,note_off,120,0,2,,,,,,,,,,,,65,64,1
2760,note_on,0,0,2,,,,,,,,,,,,67,64,1
2760,note_off,360,0,3,,,,,,,,,,,,56,64,2
2880,note_on,0,0,3,,,,,,,,,,,,53,64,2
2880,note_off,120,0,3,,,,,,,,,,,,55,64,2
2880,note_off,120,0,2,,,,,,,,,,,,67,64,1
2880,note_on,0,0,2,,,,,,,,,,,,68,64,1
3180,note_off,300,0,3,,,,,,,,,,,,53,64,2
3180,note_on,0,0,3,,,,,,,,,,,,48,64,2
3240,note_off,60,0,3,,,,,,,,,,,,48,64,2
3240,note_on,0,0,3,,,,,,,,,,,,50,64,2
3300,note_off,60,0,3,,,,,,,,,,,,50,64,2
3300,note_on,0,0,3,,,,,,,,,,,,52,64,2
3360,note_off,60,0,3,,,,,,,,,,,,52,64,2
3360,note_on,0,0,3,,,,,,,,,,,,53,64,2
3600,note_off,720,0,2,,,,,,,,,,,,68,64,1
3720,note_on,0,0,3,,,,,,,,,,,,56,64,2
3720,note_on,120,0,2,,,,,,,,,,,,60,64,1
3720,note_off,360,0,3,,,,,,,,,,,,53,64,2
3840,note_on,0,0,2,,,,,,,,,,,,59,64,1
3840,note_off,120,0,2,,,,,,,,,,,,60,64,1
3840,note_on,0,0,3,,,,,,,,,,,,55,64,2
3840,note_off,120,0,3,,,,,,,,,,,,56,64,2
3840,note_off,1440,0,1,,,,,,,,,,,,60,64,0
3960,note_on,120,0,1,,,,,,,,,,,,62,64,0
4080,note_on,0,0,1,,,,,,,,,,,,63,64,0
4080,note_off,120,0,1,,,,,,,,,,,,62,64,0
4200,note_on,0,0,1,,,,,,,,,,,,65,64,0
4200,note_off,120,0,1,,,,,,,,,,,,63,64,0
4320,note_off,120,0,1,,,,,,,,,,,,65,64,0
4320,note_on,0,0,1,,,,,,,,,,,,67,64,0
4320,note_off,480,0,3,,,,,,,,,,,,55,64,2
4440,note_on,0,0,2,,,,,,,,,,,,55,64,1
4440,note_off,600,0,2,,,,,,,,,,,,59,64,1
4560,note_on,0,0,2,,,,,,,,,,,,59,64,1
4560,note_off,120,0,2,,,,,,,,,,,,55,64,1
4680,note_on,0,0,2,,,,,,,,,,,,62,64,1
4680,note_off,120,0,2,,,,,,,,,,,,59,64,1
4800,note_off,120,0,2,,,,,,,,,,,,62,64,1
4800,note_on,0,0,2,,,,,,,,,,,,67,64,1
5040,note_on,0,0,1,,,,,,,,,,,,69,64,0
5040,note_off,720,0,1,,,,,,,,,,,,67,64,0
5160,note_on,840,0,3,,,,,,,,,,,,63,64,2
5280,note_on,0,0,1,,,,,,,,,,,,71,64,0
5280,note_off,120,0,3,,,,,,,,,,,,63,64,2
5280,note_off,240,0,1,,,,,,,,,,,,69,64,0
5280,note_on,0,0,3,,,,,,,,,,,,62,64,2
5520,note_off,720,0,2,,,,,,,,,,,,67,64,1
5640,note_on,120,0,2,,,,,,,,,,,,69,64,1
5640,note_on,0,0,3,,,,,,,,,,,,60,64,2
5640,note_off,360,0,3,,,,,,,,,,,,62,64,2
5760,note_on,0,0,2,,,,,,,,,,,,67,64,1
5760,note_on,0,0,3,,,,,,,,,,,,62,64,2
5760,note_off,120,0,3,,,,,,,,,,,,60,64,2
5760,note_off,120,0,2,,,,,,,,,,,,69,64,1
5800,note_off,40,0,2,,,,,,,,,,,,67,64,1
5800,note_on,0,0,2,,,,,,,,,,,,66,64,1
5840,note_off,40,0,2,,,,,,,,,,,,66,64,1
5840,note_on,0,0,2,,,,,,,,,,,,67,64,1
5880,note_off,40,0,2,,,,,,,,,,,,67,64,1
5880,note_on,0,0,2,,,,,,,,,,,,66,64,1
6000,note_on,0,0,1,,,,,,,,,,,,72,64,0
6000,note_off,720,0,1,,,,,,,,,,,,71,64,0
6120,note_off,360,0,3,,,,,,,,,,,,62,64,2
6120,note_on,0,0,3,,,,,,,,,,,,57,64,2
6240,note_on,0,0,1,,,,,,,,,,,,74,64,0
6240,note_off,240,0,1,,,,,,,,,,,,72,64,0
6240,note_off,120,0,3,,,,,,,,,,,,57,64,2
6240,note_on,0,0,3,,,,,,,,,,,,59,64,2
6480,note_off,600,0,2,,,,,,,,,,,,66,64,1
6600,note_off,360,0,3,,,,,,,,,,,,59,64,2
6600,note_on,120,0,2,,,,,,,,,,,,64,64,1
6600,note_on,0,0,3,,,,,,,,,,,,60,64,2
6720,note_off,120,0,2,,,,,,,,,,,,64,64,1
6720,note_on,0,0,3,,,,,,,,,,,,59,64,2
6720,note_off,120,0,3,,,,,,,,,,,,60,64,2
6720,note_on,0,0,2,,,,,,,,,,,,65,64,1
6840,note_off,600,0,1,,,,,,,,,,,,74,64,0
6840,note_on,0,0,1,,,,,,,,,,,,79,64,0
6960,note_off,120,0,1,,,,,,,,,,,,79,64,0
6960,note_on,0,0,1,,,,,,,,,,,,77,64,0
7080,note_on,0,0,3,,,,,,,,,,,,55,64,2
7080,note_off,360,0,3,,,,,,,,,,,,59,64,2
7080,note_on,0,0,1,,,,,,,,,,,,75,64,0
7080,note_off,120,0,1,,,,,,,,,,,,77,64,0
7200,note_off,120,0,3,,,,,,,,,,,,55,64,2
7200,note_on,0,0,3,,,,,,,,,,,,57,64,2
7200,note_on,0,0,1,,,,,,,,,,,,74,64,0
7200,note_off,120,0,1,,,,,,,,,,,,75,64,0
7440,note_off,720,0,2,,,,,,,,,,,,65,64,1
7560,note_on,120,0,2,,,,,,,,,,,,67,64,1
7560,note_on,0,0,3,,,,,,,,,,,,59,64,2
7560,note_off,360,0,3,,,,,,,,,,,,57,64,2
7680,note_on,0,0,3,,,,,,,,,,,,60,64,2
7680,note_off,120,0,3,,,,,,,,,,,,59,64,2
7680,note_on,0,0,2,,,,,,,,,,,,64,64,1
7680,note_off,120,0,2,,,,,,,,,,,,67,64,1
7920,note_off,720,0,1,,,,,,,,,,,,74,64,0
7920,note_on,0,0,1,,,,,,,,,,,,71,64,0
8040,note_off,360,0,3,,,,,,,,,,,,60,64,2
8040,note_on,0,0,3,,,,,,,,,,,,55,64,2
8160,note_on,0,0,1,,,,,,,,,,,,72,64,0
8160,note_on,0,0,3,,,,,,,,,,,,60,64,2
8160,note_off,120,0,3,,,,,,,,,,,,55,64,2
8160,note_off,240,0,1,,,,,,,,,,,,71,64,0
8400,note_off,720,0,2,,,,,,,,,,,,64,64,1
8520,note_on,120,0,2,,,,,,,,,,,,62,64,1
8520,note_on,0,0,3,,,,,,,,,,,,58,64,2
8520,note_off,360,0,3,,,,,,,,,,,,60,64,2
8640,note_on,0,0,2,,,,,,,,,,,,63,64,1
8640,note_off,120,0,2,,,,,,,,,,,,62,64,1
8640,note_off,120,0,3,,,,,,,,,,,,58,64,2
8640,note_on,0,0,3,,,,,,,,,,,,56,64,2
9000,note_on,0,0,3,,,,,,,,,,,,51,64,2
9000,note_off,360,0,3,,,,,,,,,,,,56,64,2
9120,note_off,960,0,1,,,,,,,,,,,,72,64,0
9120,note_off,120,0,3,,,,,,,,,,,,51,64,2
9120,note_on,0,0,3,,,,,,,,,,,,56,64,2
9480,note_on,0,0,3,,,,,,,,,,,,55,64,2
9480,note_off,360,0,3,,,,,,,,,,,,56,64,2
9600,note_off,120,0,3,,,,,,,,,,,,55,64,2
9600,note_on,0,0,3,,,,,,,,,,,,53,64,2
9840,note_off,1200,0,2,,,,,,,,,,,,63,64,1
9840,note_on,0,0,2,,,,,,,,,,,,62,64,1
10080,note_off,240,0,2,,,,,,,,,,,,62,64,1
10080,note_on,0,0,2,,,,,,,,,,,,62,64,1
10320,note_off,720,0,3,,,,,,,,,,,,53,64,2
10380,note_on,60,0,3,,,,,,,,,,,,55,64,2
10440,note_on,0,0,2,,,,,,,,,,,,61,64,1
10440,note_off,60,0,3,,,,,,,,,,,,55,64,2
10440,note_off,360,0,2,,,,,,,,,,,,62,64,1
10440,note_on,0,0,3,,,,,,,,,,,,53,64,2
10500,note_off,60,0,3,,,,,,,,,,,,53,64,2
10500,note_on,0,0,3,,,,,,,,,,,,52,64,2
10560,note_off,120,0,2,,,,,,,,,,,,61,64,1
10560,note_on,0,0,2,,,,,,,,,,,,63,64,1
10560,note_off,60,0,3,,,,,,,,,,,,52,64,2
10560,note_on,0,0,3,,,,,,,,,,,,53,64,2
10600,note_on,0,0,2,,,,,,,,,,,,61,64,1
10600,note_off,40,0,2,,,,,,,,,,,,63,64,1
10640,note_on,0,0,2,,,,,,,,,,,,63,64,1
10640,note_off,40,0,2,,,,,,,,,,,,61,64,1
10680,note_on,0,0,2,,,,,,,,,,,,61,64,1
10680,note_off,40,0,2,,,,,,,,,,,,63,64,1
10800,note_on,1680,0,1,,,,,,,,,,,,64,64,0
10920,note_on,0,0,3,,,,,,,,,,,,55,64,2
10920,note_on,0,0,2,,,,,,,,,,,,60,64,1
10920,note_off,240,0,2,,,,,,,,,,,,61,64,1
10920,note_off,360,0,3,,,,,,,,,,,,53,64,2
10980,note_on,0,0,3,,,,,,,,,,,,56,64,2
10980,note_off,60,0,3,,,,,,,,,,,,55,64,2
11040,note_off,240,0,1,,,,,,,,,,,,64,64,0
11040,note_off,60,0,3,,,,,,,,,,,,56,64,2
11040,note_off,120,0,2,,,,,,,,,,,,60,64,1
11040,note_on,0,0,2,,,,,,,,,,,,61,64,1
11040,note_on,0,0,1,,,,,,,,,,,,65,64,0
11040,note_on,0,0,3,,,,,,,,,,,,50,64,2
11080,note_off,40,0,2,,,,,,,,,,,,61,64,1
11080,note_on,0,0,2,,,,,,,,,,,,60,64,1
11120,note_off,40,0,2,,,,,,,,,,,,60,64,1
11120,note_on,0,0,2,,,,,,,,,,,,61,64,1
11160,note_on,0,0,2,,,,,,,,,,,,60,64,1
11160,note_off,40,0,2,,,,,,,,,,,,61,64,1
11400,note_on,0,0,3,,,,,,,,,,,,51,64,2
11400,note_off,360,0,3,,,,,,,,,,,,50,64,2
11400,note_on,0,0,2,,,,,,,,,,,,59,64,1
11400,note_off,240,0,2,,,,,,,,,,,,60,64,1
11460,note_on,0,0,3,,,,,,,,,,,,53,64,2
11460,note_off,60,0,3,,,,,,,,,,,,51,64,2
11520,note_on,0,0,2,,,,,,,,,,,,60,64,1
11520,note_on,0,0,3,,,,,,,,,,,,55,64,2
11520,note_off,60,0,3,,,,,,,,,,,,53,64,2
11520,note_off,120,0,2,,,,,,,,,,,,59,64,1
11560,note_off,40,0,2,,,,,,,,,,,,60,64,1
11560,note_on,0,0,2,,,,,,,,,,,,59,64,1
11600,note_on,0,0,2,,,,,,,,,,,,60,64,1
11600,note_off,40,0,2,,,,,,,,,,,,59,64,1
11640,note_off,40,0,2,,,,,,,,,,,,60,64,1
11640,note_on,0,0,2,,,,,,,,,,,,59,64,1
11760,note_off,720,0,1,,,,,,,,,,,,65,64,0
11760,note_on,0,0,1,,,,,,,,,,,,67,64,0
12000,note_off,240,0,1,,,,,,,,,,,,67,64,0
12000,note_on,0,0,1,,,,,,,,,,,,65,64,0
12240,note_off,600,0,2,,,,,,,,,,,,59,64,1
12240,note_on,0,0,2,,,,,,,,,,,,57,64,1
12270,note_off,750,0,3,,,,,,,,,,,,55,64,2
12270,note_on,0,0,3,,,,,,,,,,,,57,64,2
12300,note_off,30,0,3,,,,,,,,,,,,57,64,2
12300,note_on,0,0,3,,,,,,,,,,,,59,64,2
12330,note_off,30,0,3,,,,,,,,,,,,59,64,2
12330,note_on,0,0,3,,,,,,,,,,,,60,64,2
12360,note_on,0,0,3,,,,,,,,,,,,62,64,2
12360,note_on,0,0,2,,,,,,,,,,,,55,64,1
12360,note_off,120,0,2,,,,,,,,,,,,57,64,1
12360,note_off,30,0,3,,,,,,,,,,,,60,64,2
12390,note_on,0,0,3,,,,,,,,,,,,63,64,2
12390,note_off,30,0,3,,,,,,,,,,,,62,64,2
12420,note_on,0,0,3,,,,,,,,,,,,65,64,2
12420,note_off,30,0,3,,,,,,,,,,,,63,64,2
12450,note_on,0,0,3,,,,,,,,,,,,67,64,2
12450,note_off,30,0,3,,,,,,,,,,,,65,64,2
12480,note_on,0,0,2,,,,,,,,,,,,60,64,1
12480,note_off,30,0,3,,,,,,,,,,,,67,64,2
12480,note_on,0,0,3,,,,,,,,,,,,68,64,2
12480,note_off,120,0,2,,,,,,,,,,,,55,64,1
12720,note_on,0,0,1,,,,,,,,,,,,70,64,0
12720,note_off,720,0,1,,,,,,,,,,,,65,64,0
12780,note_on,0,0,3,,,,,,,,,,,,67,64,2
12780,note_off,300,0,3,,,,,,,,,,,,68,64,2
12840,note_off,60,0,3,,,,,,,,,,,,67,64,2
12840,note_on,0,0,3,,,,,,,,,,,,65,64,2
12900,note_off,60,0,3,,,,,,,,,,,,65,64,2
12900,note_on,0,0,3,,,,,,,,,,,,64,64,2
12960,note_on,0,0,1,,,,,,,,,,,,68,64,0
12960,note_off,240,0,1,,,,,,,,,,,,70,64,0
12960,note_off,60,0,3,,,,,,,,,,,,64,64,2
12960,note_on,0,0,3,,,,,,,,,,,,65,64,2
13200,note_off,720,0,2,,,,,,,,,,,,60,64,1
13320,note_off,360,0,3,,,,,,,,,,,,65,64,2
13320,note_on,0,0,3,,,,,,,,,,,,59,64,2
13320,note_on,120,0,2,,,,,,,,,,,,65,64,1
13440,note_on,0,0,2,,,,,,,,,,,,63,64,1
13440,note_off,120,0,2,,,,,,,,,,,,65,64,1
13440,note_off,120,0,3,,,,,,,,,,,,59,64,2
13440,note_on,0,0,3,,,,,,,,,,,,60,64,2
13680,note_off,720,0,1,,,,,,,,,,,,68,64,0
13680,note_on,0,0,1,,,,,,,,,,,,67,64,0
13740,note_on,0,0,3,,,,,,,,,,,,48,64,2
13740,note_off,300,0,3,,,,,,,,,,,,60,64,2
13800,note_off,60,0,3,,,,,,,,,,,,48,64,2
13800,note_on,0,0,3,,,,,,,,,,,,50,64,2
13860,note_off,60,0,3,,,,,,,,,,,,50,64,2
13860,note_on,0,0,3,,,,,,,,,,,,51,64,2
13920,note_off,60,0,3,,,,,,,,,,,,51,64,2
13920,note_on,0,0,1,,,,,,,,,,,,68,64,0
13920,note_off,240,0,1,,,,,,,,,,,,67,64,0
13920,note_on,0,0,3,,,,,,,,,,,,53,64,2
14040,note_on,0,0,2,,,,,,,,,,,,62,64,1
14040,note_off,600,0,2,,,,,,,,,,,,63,64,1
14160,note_off,120,0,2,,,,,,,,,,,,62,64,1
14160,note_on,0,0,2,,,,,,,,,,,,60,64,1
14280,note_off,120,0,2,,,,,,,,,,,,60,64,1
14280,note_on,0,0,2,,,,,,,,,,,,62,64,1
14400,note_on,0,0,2,,,,,,,,,,,,63,64,1
14400,note_off,120,0,2,,,,,,,,,,,,62,64,1
14440,note_on,0,0,2,,,,,,,,,,,,62,64,1
14440,note_off,40,0,2,,,,,,,,,,,,63,64,1
14480,note_on,0,0,2,,,,,,,,,,,,63,64,1
14480,note_off,40,0,2,,,,,,,,,,,,62,64,1
14520,note_off,600,0,3,,,,,,,,,,,,53,64,2
14520,note_off,40,0,2,,,,,,,,,,,,63,64,1
14520,note_on,0,0,2,,,,,,,,,,,,62,64,1
14520,note_on,0,0,3,,,,,,,,,,,,50,64,2
14560,note_off,40,0,2,,,,,,,,,,,,62,64,1
14560,note_on,0,0,2,,,,,,,,,,,,63,64,1
14600,note_off,40,0,2,,,,,,,,,,,,63,64,1
14600,note_on,0,0,2,,,,,,,,,,,,62,64,1
14640,note_off,720,0,1,,,,,,,,,,,,68,64,0
14640,note_on,0,0,1,,,,,,,,,,,,72,64,0
14640,note_on,0,0,3,,,,,,,,,,,,51,64,2
14640,note_on,0,0,2,,,,,,,,,,,,63,64,1
14640,note_off,40,0,2,,,,,,,,,,,,62,64,1
14640,note_off,120,0,3,,,,,,,,,,,,50,64,2
14680,note_off,40,0,2,,,,,,,,,,,,63,64,1
14680,note_on,0,0,2,,,,,,,,,,,,62,64,1
14720,note_off,40,0,2,,,,,,,,,,,,62,64,1
14720,note_on,0,0,2,,,,,,,,,,,,63,64,1
14760,note_on,0,0,3,,,,,,,,,,,,53,64,2
14760,note_off,120,0,3,,,,,,,,,,,,51,64,2
14760,note_on,0,0,2,,,,,,,,,,,,62,64,1
14760,note_off,40,0,2,,,,,,,,,,,,63,64,1
14880,note_off,120,0,3,,,,,,,,,,,,53,64,2
14880,note_on,0,0,3,,,,,,,,,,,,55,64,2
14880,note_off,240,0,1,,,,,,,,,,,,72,64,0
14880,note_on,0,0,1,,,,,,,,,,,,70,64,0
15000,note_off,120,0,3,,,,,,,,,,,,55,64,2
15000,note_on,0,0,3,,,,,,,,,,,,56,64,2
15120,note_on,0,0,3,,,,,,,,,,,,55,64,2
15120,note_on,0,0,2,,,,,,,,,,,,60,64,1
15120,note_off,360,0,2,,,,,,,,,,,,62,64,1
15120,note_off,120,0,3,,,,,,,,,,,,56,64,2
15240,note_on,0,0,3,,,,,,,,,,,,53,64,2
15240,note_off,120,0,3,,,,,,,,,,,,55,64,2
15360,note_on,0,0,3,,,,,,,,,,,,51,64,2
15360,note_off,240,0,2,,,,,,,,,,,,60,64,1
15360,note_on,0,0,2,,,,,,,,,,,,60,64,1
15360,note_off,120,0,3,,,,,,,,,,,,53,64,2
15600,note_off,720,0,1,,,,,,,,,,,,70,64,0
15600,note_on,0,0,1,,,,,,,,,,,,68,64,0
15720,note_off,360,0,3,,,,,,,,,,,,51,64,2
15720,note_on,0,0,3,,,,,,,,,,,,60,64,2
15780,note_off,60,0,3,,,,,,,,,,,,60,64,2
15780,note_on,0,0,3,,,,,,,,,,,,62,64,2
15840,note_on,0,0,3,,,,,,,,,,,,63,64,2
15840,note_off,240,0,1,,,,,,,,,,,,68,64,0
15840,note_on,0,0,1,,,,,,,,,,,,67,64,0
15840,note_off,60,0,3,,,,,,,,,,,,62,64,2
15960,note_on,0,0,2,,,,,,,,,,,,59,64,1
15960,note_off,600,0,2,,,,,,,,,,,,60,64,1
16080,note_on,0,0,2,,,,,,,,,,,,60,64,1
16080,note_off,120,0,2,,,,,,,,,,,,59,64,1
16200,note_on,0,0,2,,,,,,,,,,,,62,64,1
16200,note_off,120,0,2,,,,,,,,,,,,60,64,1
16200,note_off,360,0,3,,,,,,,,,,,,63,64,2
16200,note_on,0,0,3,,,,,,,,,,,,65,64,2
16320,note_off,120,0,2,,,,,,,,,,,,62,64,1
16320,note_on,0,0,3,,,,,,,,,,,,67,64,2
16320,note_off,120,0,3,,,,,,,,,,,,65,64,2
16320,note_on,0,0,2,,,,,,,,,,,,63,64,1
16560,note_off,720,0,1,,,,,,,,,,,,67,64,0
16560,note_on,0,0,1,,,,,,,,,,,,72,64,0
16800,note_off,240,0,1,,,,,,,,,,,,72,64,0
16800,note_on,0,0,1,,,,,,,,,,,,67,64,0
17040,note_off,720,0,2,,,,,,,,,,,,63,64,1
17040,note_off,720,0,3,,,,,,,,,,,,67,64,2
17040,note_on,0,0,2,,,,,,,,,,,,65,64,1
17100,note_on,60,0,3,,,,,,,,,,,,65,64,2
17160,note_off,60,0,3,,,,,,,,,,,,65,64,2
17160,note_on,0,0,3,,,,,,,,,,,,63,64,2
17220,note_off,60,0,3,,,,,,,,,,,,63,64,2
17220,note_on,0,0,3,,,,,,,,,,,,62,64,2
17280,note_on,0,0,2,,,,,,,,,,,,67,64,1
17280,note_off,240,0,2,,,,,,,,,,,,65,64,1
17280,note_off,60,0,3,,,,,,,,,,,,62,64,2
17280,note_on,0,0,3,,,,,,,,,,,,60,64,2
17520,note_off,720,0,1,,,,,,,,,,,,67,64,0
17520,note_on,0,0,1,,,,,,,,,,,,69,64,0
17640,note_off,360,0,3,,,,,,,,,,,,60,64,2
17640,note_on,0,0,3,,,,,,,,,,,,58,64,2
17760,note_on,0,0,3,,,,,,,,,,,,56,64,2
17760,note_off,120,0,3,,,,,,,,,,,,58,64,2
17760,note_on,0,0,1,,,,,,,,,,,,71,64,0
17760,note_off,240,0,1,,,,,,,,,,,,69,64,0
17880,note_on,0,0,2,,,,,,,,,,,,63,64,1
17880,note_off,600,0,2,,,,,,,,,,,,67,64,1
18000,note_on,0,0,2,,,,,,,,,,,,65,64,1
18000,note_off,120,0,2,,,,,,,,,,,,63,64,1
18120,note_on,0,0,2,,,,,,,,,,,,67,64,1
18120,note_off,360,0,3,,,,,,,,,,,,56,64,2
18120,note_on,0,0,3,,,,,,,,,,,,55,64,2
18120,note_off,120,0,2,,,,,,,,,,,,65,64,1
18240,note_off,120,0,3,,,,,,,,,,,,55,64,2
18240,note_on,0,0,3,,,,,,,,,,,,53,64,2
18240,note_on,0,0,2,,,,,,,,,,,,68,64,1
18240,note_off,120,0,2,,,,,,,,,,,,67,64,1
18480,note_on,0,0,1,,,,,,,,,,,,75,64,0
18480,note_off,720,0,1,,,,,,,,,,,,71,64,0
18540,note_on,0,0,3,,,,,,,,,,,,48,64,2
18540,note_off,300,0,3,,,,,,,,,,,,53,64,2
18600,note_on,0,0,3,,,,,,,,,,,,50,64,2
18600,note_off,60,0,3,,,,,,,,,,,,48,64,2
18660,note_off,60,0,3,,,,,,,,,,,,50,64,2
18660,note_on,0,0,3,,,,,,,,,,,,52,64,2
18720,note_off,240,0,1,,,,,,,,,,,,75,64,0
18720,note_off,60,0,3,,,,,,,,,,,,52,64,2
18720,note_on,0,0,1,,,,,,,,,,,,71,64,0
18720,note_on,0,0,3,,,,,,,,,,,,53,64,2
18960,note_off,720,0,2,,,,,,,,,,,,68,64,1
19080,note_off,360,0,3,,,,,,,,,,,,53,64,2
19080,note_on,120,0,2,,,,,,,,,,,,60,64,1
19080,note_on,0,0,3,,,,,,,,,,,,56,64,2
19200,note_off,120,0,3,,,,,,,,,,,,56,64,2
19200,note_on,0,0,3,,,,,,,,,,,,55,64,2
19200,note_off,120,0,2,,,,,,,,,,,,60,64,1
19200,note_on,0,0,2,,,,,,,,,,,,59,64,1
19440,note_off,720,0,1,,,,,,,,,,,,71,64,0
19440,note_on,0,0,1,,,,,,,,,,,,72,64,0
19680,note_on,0,0,1,,,,,,,,,,,,74,64,0
19680,note_off,240,0,1,,,,,,,,,,,,72,64,0
19680,note_off,480,0,3,,,,,,,,,,,,55,64,2
19800,note_off,600,0,2,,,,,,,,,,,,59,64,1
19800,note_on,0,0,2,,,,,,,,,,,,55,64,1
19920,note_on,0,0,2,,,,,,,,,,,,59,64,1
19920,note_off,120,0,2,,,,,,,,,,,,55,64,1
20040,note_off,120,0,2,,,,,,,,,,,,59,64,1
20040,note_on,0,0,2,,,,,,,,,,,,62,64,1
20160,note_off,120,0,2,,,,,,,,,,,,62,64,1
20160,note_on,0,0,2,,,,,,,,,,,,67,64,1
20520,note_on,840,0,3,,,,,,,,,,,,63,64,2
20640,note_off,120,0,3,,,,,,,,,,,,63,64,2
20640,note_on,0,0,3,,,,,,,,,,,,62,64,2
20880,note_off,720,0,2,,,,,,,,,,,,67,64,1
21000,note_on,120,0,2,,,,,,,,,,,,69,64,1
21000,note_on,0,0,3,,,,,,,,,,,,60,64,2
21000,note_off,360,0,3,,,,,,,,,,,,62,64,2
21120,note_off,120,0,3,,,,,,,,,,,,60,64,2
21120,note_on,0,0,2,,,,,,,,,,,,67,64,1
21120,note_off,1440,0,1,,,,,,,,,,,,74,64,0
21120,note_on,0,0,3,,,,,,,,,,,,62,64,2
21120,note_off,120,0,2,,,,,,,,,,,,69,64,1
21160,note_on,0,0,2,,,,,,,,,,,,66,64,1
21160,note_off,40,0,2,,,,,,,,,,,,67,64,1
21200,note_off,40,0,2,,,,,,,,,,,,66,64,1
21200,note_on,0,0,2,,,,,,,,,,,,67,64,1
21240,note_off,40,0,2,,,,,,,,,,,,67,64,1
21240,note_on,0,0,2,,,,,,,,,,,,66,64,1
21240,note_on,120,0,1,,,,,,,,,,,,72,64,0
21360,note_on,0,0,1,,,,,,,,,,,,74,64,0
21360,note_off,120,0,1,,,,,,,,,,,,72,64,0
21480,note_off,120,0,1,,,,,,,,,,,,74,64,0
21480,note_on,0,0,1,,,,,,,,,,,,75,64,0
21480,note_off,360,0,3,,,,,,,,,,,,62,64,2
21480,note_on,0,0,3,,,,,,,,,,,,57,64,2
21600,note_on,0,0,1,,,,,,,,,,,,74,64,0
21600,note_off,120,0,1,,,,,,,,,,,,75,64,0
21600,note_off,120,0,3,,,,,,,,,,,,57,64,2
21600,note_on,0,0,3,,,,,,,,,,,,59,64,2
21840,note_off,600,0,2,,,,,,,,,,,,66,64,1
21960,note_on,120,0,2,,,,,,,,,,,,64,64,1
21960,note_off,360,0,3,,,,,,,,,,,,59,64,2
21960,note_on,0,0,3,,,,,,,,,,,,60,64,2
22080,note_off,120,0,3,,,,,,,,,,,,60,64,2
22080,note_on,0,0,3,,,,,,,,,,,,59,64,2
22080,note_off,120,0,2,,,,,,,,,,,,64,64,1
22080,note_on,0,0,2,,,,,,,,,,,,65,64,1
22320,note_on,0,0,1,,,,,,,,,,,,72,64,0
22320,note_off,720,0,1,,,,,,,,,,,,74,64,0
22440,note_off,120,0,1,,,,,,,,,,,,72,64,0
22440,note_on,0,0,3,,,,,,,,,,,,55,64,2
22440,note_on,0,0,1,,,,,,,,,,,,71,64,0
22440,note_off,360,0,3,,,,,,,,,,,,59,64,2
22560,note_off,120,0,3,,,,,,,,,,,,55,64,2
22560,note_off,120,0,1,,,,,,,,,,,,71,64,0
22560,note_on,0,0,1,,,,,,,,,,,,77,64,0
22560,note_on,0,0,3,,,,,,,,,,,,57,64,2
22800,note_off,720,0,2,,,,,,,,,,,,65,64,1
22920,note_off,360,0,3,,,,,,,,,,,,57,64,2
22920,note_on,120,0,2,,,,,,,,,,,,67,64,1
22920,note_on,0,0,3,,,,,,,,,,,,59,64,2
23040,note_on,0,0,2,,,,,,,,,,,,64,64,1
23040,note_on,0,0,3,,,,,,,,,,,,60,64,2
23040,note_off,120,0,3,,,,,,,,,,,,59,64,2
23040,note_off,120,0,2,,,,,,,,,,,,67,64,1
23280,note_off,720,0,1,,,,,,,,,,,,77,64,0
23280,note_on,0,0,1,,,,,,,,,,,,76,64,0
23400,note_on,0,0,3,,,,,,,,,,,,55,64,2
23400,note_off,360,0,3,,,,,,,,,,,,60,64,2
23400,note_off,120,0,1,,,,,,,,,,,,76,64,0
23400,note_on,0,0,1,,,,,,,,,,,,74,64,0
23520,note_on,0,0,1,,,,,,,,,,,,72,64,0
23520,note_on,0,0,3,,,,,,,,,,,,60,64,2
23520,note_off,120,0,3,,,,,,,,,,,,55,64,2
23520,note_off,120,0,1,,,,,,,,,,,,74,64,0
23760,note_off,720,0,2,,,,,,,,,,,,64,64,1
23880,note_on,120,0,2,,,,,,,,,,,,62,64,1
23880,note_off,360,0,3,,,,,,,,,,,,60,64,2
23880,note_on,0,0,3,,,,,,,,,,,,58,64,2
24000,note_on,0,0,3,,,,,,,,,,,,56,64,2
24000,note_off,120,0,3,,,,,,,,,,,,58,64,2
24000,note_off,120,0,2,,,,,,,,,,,,62,64,1
24000,note_on,0,0,2,,,,,,,,,,,,63,64,1
24360,note_on,0,0,3,,,,,,,,,,,,51,64,2
24360,note_off,360,0,3,,,,,,,,,,,,56,64,2
24480,note_off,120,0,3,,,,,,,,,,,,51,64,2
24480,note_on,0,0,3,,,,,,,,,,,,56,64,2
24840,note_off,360,0,3,,,,,,,,,,,,56,64,2
24840,note_on,0,0,3,,,,,,,,,,,,55,64,2
24960,note_on,0,0,3,,,,,,,,,,,,53,64,2
24960,note_off,120,0,3,,,,,,,,,,,,55,64,2
25020,note_on,0,0,1,,,,,,,,,,,,70,64,0
25020,note_off,1500,0,1,,,,,,,,,,,,72,64,0
25080,note_off,60,0,1,,,,,,,,,,,,70,64,0
25080,note_on,0,0,1,,,,,,,,,,,,68,64,0
25140,note_off,60,0,1,,,,,,,,,,,,68,64,0
25140,note_on,0,0,1,,,,,,,,,,,,67,64,0
25200,note_off,60,0,1,,,,,,,,,,,,67,64,0
25200,note_on,0,0,1,,,,,,,,,,,,65,64,0
25200,note_off,1200,0,2,,,,,,,,,,,,63,64,1
25200,note_on,0,0,2,,,,,,,,,,,,62,64,1
25260,note_off,60,0,1,,,,,,,,,,,,65,64,0
25260,note_on,0,0,1,,,,,,,,,,,,63,64,0
25320,note_off,60,0,1,,,,,,,,,,,,63,64,0
25320,note_on,0,0,1,,,,,,,,,,,,62,64,0
25380,note_on,0,0,1,,,,,,,,,,,,60,64,0
25380,note_off,60,0,1,,,,,,,,,,,,62,64,0
25440,note_on,0,0,2,,,,,,,,,,,,62,64,1
25440,note_on,0,0,1,,,,,,,,,,,,59,64,0
25440,note_off,60,0,1,,,,,,,,,,,,60,64,0
25440,note_off,240,0,2,,,,,,,,,,,,62,64,1
25680,note_off,720,0,3,,,,,,,,,,,,53,64,2
25740,note_on,60,0,3,,,,,,,,,,,,55,64,2
25800,note_on,0,0,3,,,,,,,,,,,,53,64,2
25800,note_off,360,0,2,,,,,,,,,,,,62,64,1
25800,note_on,0,0,2,,,,,,,,,,,,61,64,1
25800,note_off,60,0,3,,,,,,,,,,,,55,64,2
25860,note_on,0,0,3,,,,,,,,,,,,52,64,2
25860,note_off,60,0,3,,,,,,,,,,,,53,64,2
25920,note_off,60,0,3,,,,,,,,,,,,52,64,2
25920,note_on,0,0,3,,,,,,,,,,,,53,64,2
25920,note_on,0,0,2,,,,,,,,,,,,63,64,1
25920,note_off,120,0,2,,,,,,,,,,,,61,64,1
25960,note_off,40,0,2,,,,,,,,,,,,63,64,1
25960,note_on,0,0,2,,,,,,,,,,,,61,64,1
26000,note_off,40,0,2,,,,,,,,,,,,61,64,1
26000,note_on,0,0,2,,,,,,,,,,,,63,64,1
26040,note_on,0,0,1,,,,,,,,,,,,60,64,0
26040,note_on,0,0,2,,,,,,,,,,,,61,64,1
26040,note_off,40,0,2,,,,,,,,,,,,63,64,1
26040,note_off,600,0,1,,,,,,,,,,,,59,64,0
26160,note_off,120,0,1,,,,,,,,,,,,60,64,0
26160,note_on,0,0,1,,,,,,,,,,,,62,64,0
26280,note_on,0,0,3,,,,,,,,,,,,55,64,2
26280,note_on,0,0,1,,,,,,,,,,,,63,64,0
26280,note_off,240,0,2,,,,,,,,,,,,61,64,1
26280,note_on,0,0,2,,,,,,,,,,,,60,64,1
26280,note_off,360,0,3,,,,,,,,,,,,53,64,2
26280,note_off,120,0,1,,,,,,,,,,,,62,64,0
26340,note_off,60,0,3,,,,,,,,,,,,55,64,2
26340,note_on,0,0,3,,,,,,,,,,,,56,64,2
26400,note_on,0,0,2,,,,,,,,,,,,61,64,1
26400,note_on,0,0,3,,,,,,,,,,,,50,64,2
26400,note_off,60,0,3,,,,,,,,,,,,56,64,2
26400,note_off,120,0,1,,,,,,,,,,,,63,64,0
26400,note_on,0,0,1,,,,,,,,,,,,62,64,0
26400,note_off,120,0,2,,,,,,,,,,,,60,64,1
26440,note_on,0,0,2,,,,,,,,,,,,60,64,1
26440,note_off,40,0,2,,,,,,,,,,,,61,64,1
26480,note_off,40,0,2,,,,,,,,,,,,60,64,1
26480,note_on,0,0,2,,,,,,,,,,,,61,64,1
26520,note_on,0,0,2,,,,,,,,,,,,60,64,1
26520,note_off,40,0,2,,,,,,,,,,,,61,64,1
26760,note_on,0,0,2,,,,,,,,,,,,59,64,1
26760,note_off,240,0,2,,,,,,,,,,,,60,64,1
26760,note_off,360,0,3,,,,,,,,,,,,50,64,2
26760,note_on,0,0,3,,,,,,,,,,,,51,64,2
26820,note_off,60,0,3,,,,,,,,,,,,51,64,2
26820,note_on,0,0,3,,,,,,,,,,,,53,64,2
26880,note_on,0,0,2,,,,,,,,,,,,60,64,1
26880,note_off,120,0,2,,,,,,,,,,,,59,64,1
26880,note_on,0,0,3,,,,,,,,,,,,55,64,2
26880,note_off,60,0,3,,,,,,,,,,,,53,64,2
26920,note_off,40,0,2,,,,,,,,,,,,60,64,1
26920,note_on,0,0,2,,,,,,,,,,,,59,64,1
26960,note_off,40,0,2,,,,,,,,,,,,59,64,1
26960,note_on,0,0,2,,,,,,,,,,,,60,64,1
27000,note_on,0,0,2,,,,,,,,,,,,59,64,1
27000,note_off,40,0,2,,,,,,,,,,,,60,64,1
27120,note_off,720,0,1,,,,,,,,,,,,62,64,0
27120,note_on,0,0,1,,,,,,,,,,,,68,64,0
27360,note_off,240,0,1,,,,,,,,,,,,68,64,0
27360,note_on,0,0,1,,,,,,,,,,,,67,64,0
27600,note_on,0,0,2,,,,,,,,,,,,57,64,1
27600,note_off,600,0,2,,,,,,,,,,,,59,64,1
27630,note_on,0,0,3,,,,,,,,,,,,57,64,2
27630,note_off,750,0,3,,,,,,,,,,,,55,64,2
27660,note_off,30,0,3,,,,,,,,,,,,57,64,2
27660,note_on,0,0,3,,,,,,,,,,,,59,64,2
27690,note_on,0,0,3,,,,,,,,,,,,60,64,2
27690,note_off,30,0,3,,,,,,,,,,,,59,64,2
27720,note_off,30,0,3,,,,,,,,,,,,60,64,2
27720,note_on,0,0,3,,,,,,,,,,,,62,64,2
27720,note_off,120,0,2,,,,,,,,,,,,57,64,1
27720,note_on,0,0,2,,,,,,,,,,,,55,64,1
27750,note_off,30,0,3,,,,,,,,,,,,62,64,2
27750,note_on,0,0,3,,,,,,,,,,,,63,64,2
27780,note_off,30,0,3,,,,,,,,,,,,63,64,2
27780,note_on,0,0,3,,,,,,,,,,,,65,64,2
27810,note_on,0,0,3,,,,,,,,,,,,67,64,2
27810,note_off,30,0,3,,,,,,,,,,,,65,64,2
27840,note_off,120,0,2,,,,,,,,,,,,55,64,1
27840,note_on,0,0,2,,,,,,,,,,,,60,64,1
27840,note_off,30,0,3,,,,,,,,,,,,67,64,2
27840,note_on,0,0,3,,,,,,,,,,,,68,64,2
27960,note_on,0,0,1,,,,,,,,,,,,79,64,0
27960,note_off,600,0,1,,,,,,,,,,,,67,64,0
28080,note_on,0,0,1,,,,,,,,,,,,77,64,0
28080,note_off,120,0,1,,,,,,,,,,,,79,64,0
28140,note_on,0,0,3,,,,,,,,,,,,67,64,2
28140,note_off,300,0,3,,,,,,,,,,,,68,64,2
28200,note_on,0,0,3,,,,,,,,,,,,65,64,2
28200,note_off,60,0,3,,,,,,,,,,,,67,64,2
28200,note_on,0,0,1,,,,,,,,,,,,75,64,0
28200,note_off,120,0,1,,,,,,,,,,,,77,64,0
28260,note_off,60,0,3,,,,,,,,,,,,65,64,2
28260,note_on,0,0,3,,,,,,,,,,,,64,64,2
28320,note_off,60,0,3,,,,,,,,,,,,64,64,2
28320,note_on,0,0,3,,,,,,,,,,,,65,64,2
28320,note_off,120,0,1,,,,,,,,,,,,75,64,0
28320,note_on,0,0,1,,,,,,,,,,,,74,64,0
28560,note_off,720,0,2,,,,,,,,,,,,60,64,1
28680,note_off,360,0,3,,,,,,,,,,,,65,64,2
28680,note_on,0,0,3,,,,,,,,,,,,59,64,2
28680,note_on,120,0,2,,,,,,,,,,,,65,64,1
28800,note_on,0,0,3,,,,,,,,,,,,60,64,2
28800,note_on,0,0,2,,,,,,,,,,,,63,64,1
28800,note_off,120,0,2,,,,,,,,,,,,65,64,1
28800,note_off,120,0,3,,,,,,,,,,,,59,64,2
29100,note_on,0,0,3,,,,,,,,,,,,48,64,2
29100,note_off,300,0,3,,,,,,,,,,,,60,64,2
29160,note_off,60,0,3,,,,,,,,,,,,48,64,2
29160,note_on,0,0,3,,,,,,,,,,,,50,64,2
29220,note_off,60,0,3,,,,,,,,,,,,50,64,2
29220,note_on,0,0,3,,,,,,,,,,,,51,64,2
29280,note_off,60,0,3,,,,,,,,,,,,51,64,2
29280,note_on,0,0,3,,,,,,,,,,,,53,64,2
29400,note_off,600,0,2,,,,,,,,,,,,63,64,1
29400,note_on,0,0,2,,,,,,,,,,,,62,64,1
29520,note_on,0,0,2,,,,,,,,,,,,60,64,1
29520,note_off,1200,0,1,,,,,,,,,,,,74,64,0
29520,note_off,120,0,2,,,,,,,,,,,,62,64,1
29520,note_on,0,0,1,,,,,,,,,,,,77,64,0
29640,note_on,0,0,2,,,,,,,,,,,,62,64,1
29640,note_off,120,0,2,,,,,,,,,,,,60,64,1
29760,note_off,120,0,2,,,,,,,,,,,,62,64,1
29760,note_on,0,0,2,,,,,,,,,,,,63,64,1
29760,note_on,0,0,1,,,,,,,,,,,,75,64,0
29760,note_off,240,0,1,,,,,,,,,,,,77,64,0
29800,note_off,40,0,2,,,,,,,,,,,,63,64,1
29800,note_on,0,0,2,,,,,,,,,,,,62,64,1
29840,note_off,40,0,2,,,,,,,,,,,,62,64,1
29840,note_on,0,0,2,,,,,,,,,,,,63,64,1
29880,note_off,40,0,2,,,,,,,,,,,,63,64,1
29880,note_on,0,0,2,,,,,,,,,,,,62,64,1
29880,note_off,600,0,3,,,,,,,,,,,,53,64,2
29880,note_on,0,0,3,,,,,,,,,,,,50,64,2
29920,note_on,0,0,2,,,,,,,,,,,,63,64,1
29920,note_off,40,0,2,,,,,,,,,,,,62,64,1
29960,note_on,0,0,2,,,,,,,,,,,,62,64,1
29960,note_off,40,0,2,,,,,,,,,,,,63,64,1
30000,note_off,40,0,2,,,,,,,,,,,,62,64,1
30000,note_on,0,0,2,,,,,,,,,,,,63,64,1
30000,note_on,0,0,1,,,,,,,,,,,,74,64,0
30000,note_off,240,0,1,,,,,,,,,,,,75,64,0
30000,note_off,120,0,3,,,,,,,,,,,,50,64,2
30000,note_on,0,0,3,,,,,,,,,,,,51,64,2
30040,note_on,0,0,2,,,,,,,,,,,,62,64,1
30040,note_off,40,0,2,,,,,,,,,,,,63,64,1
30080,note_on,0,0,2,,,,,,,,,,,,63,64,1
30080,note_off,40,0,2,,,,,,,,,,,,62,64,1
30120,note_off,40,0,2,,,,,,,,,,,,63,64,1
30120,note_on,0,0,2,,,,,,,,,,,,62,64,1
30120,note_off,120,0,3,,,,,,,,,,,,51,64,2
30120,note_on,0,0,3,,,,,,,,,,,,53,64,2
30240,note_off,240,0,1,,,,,,,,,,,,74,64,0
30240,note_on,0,0,3,,,,,,,,,,,,55,64,2
30240,note_on,0,0,1,,,,,,,,,,,,72,64,0
30240,note_off,120,0,3,,,,,,,,,,,,53,64,2
30360,note_on,0,0,3,,,,,,,,,,,,56,64,2
30360,note_off,120,0,3,,,,,,,,,,,,55,64,2
30480,note_off,360,0,2,,,,,,,,,,,,62,64,1
30480,note_off,120,0,3,,,,,,,,,,,,56,64,2
30480,note_on,0,0,3,,,,,,,,,,,,55,64,2
30480,note_off,240,0,1,,,,,,,,,,,,72,64,0
30480,note_on,0,0,2,,,,,,,,,,,,60,64,1
30480,note_on,0,0,1,,,,,,,,,,,,71,64,0
30600,note_off,120,0,3,,,,,,,,,,,,55,64,2
30600,note_on,0,0,3,,,,,,,,,,,,53,64,2
30720,note_off,240,0,1,,,,,,,,,,,,71,64,0
30720,note_on,0,0,1,,,,,,,,,,,,72,64,0
30720,note_off,240,0,2,,,,,,,,,,,,60,64,1
30720,note_on,0,0,3,,,,,,,,,,,,51,64,2
30720,note_on,0,0,2,,,,,,,,,,,,60,64,1
30720,note_off,120,0,3,,,,,,,,,,,,53,64,2
30960,note_off,240,0,1,,,,,,,,,,,,72,64,0
30960,note_on,0,0,1,,,,,,,,,,,,74,64,0
31080,note_off,360,0,3,,,,,,,,,,,,51,64,2
31080,note_on,0,0,3,,,,,,,,,,,,60,64,2
31140,note_off,60,0,3,,,,,,,,,,,,60,64,2
31140,note_on,0,0,3,,,,,,,,,,,,62,64,2
31200,note_off,60,0,3,,,,,,,,,,,,62,64,2
31200,note_on,0,0,3,,,,,,,,,,,,63,64,2
31200,note_on,0,0,1,,,,,,,,,,,,75,64,0
31200,note_off,240,0,1,,,,,,,,,,,,74,64,0
31320,note_off,600,0,2,,,,,,,,,,,,60,64,1
31320,note_on,0,0,2,,,,,,,,,,,,59,64,1
31440,note_on,0,0,2,,,,,,,,,,,,60,64,1
31440,note_off,120,0,2,,,,,,,,,,,,59,64,1
31560,note_off,120,0,2,,,,,,,,,,,,60,64,1
31560,note_on,0,0,3,,,,,,,,,,,,65,64,2
31560,note_off,360,0,3,,,,,,,,,,,,63,64,2
31560,note_on,0,0,2,,,,,,,,,,,,62,64,1
31680,note_on,0,0,2,,,,,,,,,,,,63,64,1
31680,note_off,120,0,2,,,,,,,,,,,,62,64,1
31680,note_on,0,0,3,,,,,,,,,,,,67,64,2
31680,note_off,120,0,3,,,,,,,,,,,,65,64,2
31920,note_on,0,0,1,,,,,,,,,,,,67,64,0
31920,note_off,720,0,1,,,,,,,,,,,,75,64,0
32040,note_off,120,0,1,,,,,,,,,,,,67,64,0
32040,note_on,0,0,1,,,,,,,,,,,,65,64,0
32160,note_off,120,0,1,,,,,,,,,,,,65,64,0
32160,note_on,0,0,1,,,,,,,,,,,,63,64,0
32400,note_off,720,0,3,,,,,,,,,,,,67,64,2
32400,note_off,720,0,2,,,,,,,,,,,,63,64,1
32400,note_on,0,0,2,,,,,,,,,,,,65,64,1
32460,note_on,60,0,3,,,,,,,,,,,,65,64,2
32520,note_off,60,0,3,,,,,,,,,,,,65,64,2
32520,note_on,0,0,3,,,,,,,,,,,,63,64,2
32580,note_off,60,0,3,,,,,,,,,,,,63,64,2
32580,note_on,0,0,3,,,,,,,,,,,,62,64,2
32640,note_on,0,0,2,,,,,,,,,,,,67,64,1
32640,note_off,240,0,2,,,,,,,,,,,,65,64,1
32640,note_off,60,0,3,,,,,,,,,,,,62,64,2
32640,note_on,0,0,3,,,,,,,,,,,,60,64,2
32880,note_off,720,0,1,,,,,,,,,,,,63,64,0
32880,note_on,0,0,1,,,,,,,,,,,,62,64,0
33000,note_on,0,0,3,,,,,,,,,,,,58,64,2
33000,note_off,360,0,3,,,,,,,,,,,,60,64,2
33120,note_on,0,0,3,,,,,,,,,,,,56,64,2
33120,note_off,120,0,3,,,,,,,,,,,,58,64,2
33120,note_off,240,0,1,,,,,,,,,,,,62,64,0
33120,note_on,0,0,1,,,,,,,,,,,,60,64,0
33240,note_off,600,0,2,,,,,,,,,,,,67,64,1
33240,note_on,0,0,2,,,,,,,,,,,,63,64,1
33360,note_on,0,0,2,,,,,,,,,,,,65,64,1
33360,note_off,120,0,2,,,,,,,,,,,,63,64,1
33480,note_on,0,0,3,,,,,,,,,,,,55,64,2
33480,note_off,360,0,3,,,,,,,,,,,,56,64,2
33480,note_on,0,0,2,,,,,,,,,,,,67,64,1
33480,note_off,120,0,2,,,,,,,,,,,,65,64,1
33600,note_on,0,0,3,,,,,,,,,,,,53,64,2
33600,note_on,0,0,2,,,,,,,,,,,,68,64,1
33600,note_off,120,0,2,,,,,,,,,,,,67,64,1
33600,note_off,120,0,3,,,,,,,,,,,,55,64,2
33900,note_on,0,0,3,,,,,,,,,,,,48,64,2
33900,note_off,300,0,3,,,,,,,,,,,,53,64,2
33960,note_off,60,0,3,,,,,,,,,,,,48,64,2
33960,note_on,0,0,3,,,,,,,,,,,,50,64,2
34020,note_off,60,0,3,,,,,,,,,,,,50,64,2
34020,note_on,0,0,3,,,,,,,,,,,,52,64,2
34080,note_on,0,0,3,,,,,,,,,,,,53,64,2
34080,note_off,60,0,3,,,,,,,,,,,,52,64,2
34320,note_off,720,0,2,,,,,,,,,,,,68,64,1
34440,note_off,360,0,3,,,,,,,,,,,,53,64,2
34440,note_on,0,0,3,,,,,,,,,,,,56,64,2
34440,note_on,120,0,2,,,,,,,,,,,,60,64,1
34560,note_off,1440,0,1,,,,,,,,,,,,60,64,0
34560,note_off,120,0,2,,,,,,,,,,,,60,64,1
34560,note_on,0,0,3,,,,,,,,,,,,55,64,2
34560,note_off,120,0,3,,,,,,,,,,,,56,64,2
34560,note_on,0,0,2,,,,,,,,,,,,59,64,1
34680,note_on,120,0,1,,,,,,,,,,,,62,64,0
34800,note_on,0,0,1,,,,,,,,,,,,63,64,0
34800,note_off,120,0,1,,,,,,,,,,,,62,64,0
34920,note_off,120,0,1,,,,,,,,,,,,63,64,0
34920,note_on,0,0,1,,,,,,,,,,,,65,64,0
35040,note_off,120,0,1,,,,,,,,,,,,65,64,0
35040,note_off,480,0,3,,,,,,,,,,,,55,64,2
35040,note_on,0,0,1,,,,,,,,,,,,67,64,0
35160,note_off,600,0,2,,,,,,,,,,,,59,64,1
35160,note_on,0,0,2,,,,,,,,,,,,55,64,1
35280,note_off,120,0,2,,,,,,,,,,,,55,64,1
35280,note_on,0,0,2,,,,,,,,,,,,59,64,1
35400,note_off,120,0,2,,,,,,,,,,,,59,64,1
35400,note_on,0,0,2,,,,,,,,,,,,62,64,1
35520,note_off,120,0,2,,,,,,,,,,,,62,64,1
35520,note_on,0,0,2,,,,,,,,,,,,67,64,1
35760,note_on,0,0,1,,,,,,,,,,,,69,64,0
35760,note_off,720,0,1,,,,,,,,,,,,67,64,0
35880,note_on,840,0,3,,,,,,,,,,,,63,64,2
36000,note_off,240,0,1,,,,,,,,,,,,69,64,0
36000,note_on,0,0,1,,,,,,,,,,,,71,64,0
36000,note_off,120,0,3,,,,,,,,,,,,63,64,2
36000,note_on,0,0,3,,,,,,,,,,,,62,64,2
36240,note_off,720,0,2,,,,,,,,,,,,67,64,1
36360,note_off,360,0,3,,,,,,,,,,,,62,64,2
36360,note_on,120,0,2,,,,,,,,,,,,69,64,1
36360,note_on,0,0,3,,,,,,,,,,,,60,64,2
36480,note_off,120,0,2,,,,,,,,,,,,69,64,1
36480,note_on,0,0,2,,,,,,,,,,,,67,64,1
36480,note_off,120,0,3,,,,,,,,,,,,60,64,2
36480,note_on,0,0,3,,,,,,,,,,,,62,64,2
36520,note_off,40,0,2,,,,,,,,,,,,67,64,1
36520,note_on,0,0,2,,,,,,,,,,,,66,64,1
36560,note_on,0,0,2,,,,,,,,,,,,67,64,1
36560,note_off,40,0,2,,,,,,,,,,,,66,64,1
36600,note_off,40,0,2,,,,,,,,,,,,67,64,1
36600,note_on,0,0,2,,,,,,,,,,,,66,64,1
36720,note_off,720,0,1,,,,,,,,,,,,71,64,0
36720,note_on,0,0,1,,,,,,,,,,,,72,64,0
36840,note_off,360,0,3,,,,,,,,,,,,62,64,2
36840,note_on,0,0,3,,,,,,,,,,,,57,64,2
36960,note_on,0,0,3,,,,,,,,,,,,59,64,2
36960,note_on,0,0,1,,,,,,,,,,,,74,64,0
36960,note_off,240,0,1,,,,,,,,,,,,72,64,0
36960,note_off,120,0,3,,,,,,,,,,,,57,64,2
37200,note_off,600,0,2,,,,,,,,,,,,66,64,1
37320,note_on,0,0,3,,,,,,,,,,,,60,64,2
37320,note_on,120,0,2,,,,,,,,,,,,64,64,1
37320,note_off,360,0,3,,,,,,,,,,,,59,64,2
37440,note_off,120,0,3,,,,,,,,,,,,60,64,2
37440,note_on,0,0,3,,,,,,,,,,,,59,64,2
37440,note_off,120,0,2,,,,,,,,,,,,64,64,1
37440,note_on,0,0,2,,,,,,,,,,,,65,64,1
37560,note_on,0,0,1,,,,,,,,,,,,79,64,0
37560,note_off,600,0,1,,,,,,,,,,,,74,64,0
37680,note_off,120,0,1,,,,,,,,,,,,79,64,0
37680,note_on,0,0,1,,,,,,,,,,,,77,64,0
37800,note_off,120,0,1,,,,,,,,,,,,77,64,0
37800,note_on,0,0,1,,,,,,,,,,,,75,64,0
37800,note_off,360,0,3,,,,,,,,,,,,59,64,2
37800,note_on,0,0,3,,,,,,,,,,,,55,64,2
37920,note_on,0,0,3,,,,,,,,,,,,57,64,2
37920,note_off,120,0,3,,,,,,,,,,,,55,64,2
37920,note_on,0,0,1,,,,,,,,,,,,74,64,0
37920,note_off,120,0,1,,,,,,,,,,,,75,64,0
38160,note_off,720,0,2,,,,,,,,,,,,65,64,1
38280,note_on,120,0,2,,,,,,,,,,,,67,64,1
38280,note_on,0,0,3,,,,,,,,,,,,59,64,2
38280,note_off,360,0,3,,,,,,,,,,,,57,64,2
38400,note_off,120,0,3,,,,,,,,,,,,59,64,2
38400,note_on,0,0,3,,,,,,,,,,,,60,64,2
38400,note_on,0,0,2,,,,,,,,,,,,64,64,1
38400,note_off,120,0,2,,,,,,,,,,,,67,64,1
38640,note_off,720,0,1,,,,,,,,,,,,74,64,0
38640,note_on,0,0,1,,,,,,,,,,,,71,64,0
38760,note_off,360,0,3,,,,,,,,,,,,60,64,2
38760,note_on,0,0,3,,,,,,,,,,,,55,64,2
38880,note_off,240,0,1,,,,,,,,,,,,71,64,0
38880,note_on,0,0,1,,,,,,,,,,,,72,64,0
38880,note_off,120,0,3,,,,,,,,,,,,55,64,2
38880,note_on,0,0,3,,,,,,,,,,,,60,64,2
39120,note_off,720,0,2,,,,,,,,,,,,64,64,1
39240,note_on,120,0,2,,,,,,,,,,,,62,64,1
39240,note_on,0,0,3,,,,,,,,,,,,58,64,2
39240,note_off,360,0,3,,,,,,,,,,,,60,64,2
39360,note_off,120,0,2,,,,,,,,,,,,62,64,1
39360,note_on,0,0,3,,,,,,,,,,,,56,64,2
39360,note_on,0,0,2,,,,,,,,,,,,63,64,1
39360,note_off,120,0,3,,,,,,,,,,,,58,64,2
39720,note_off,360,0,3,,,,,,,,,,,,56,64,2
39720,note_on,0,0,3,,,,,,,,,,,,51,64,2
39840,note_off,120,0,3,,,,,,,,,,,,51,64,2
39840,note_on,0,0,3,,,,,,,,,,,,56,64,2
39840,note_off,960,0,1,,,,,,,,,,,,72,64,0
40200,note_off,360,0,3,,,,,,,,,,,,56,64,2
40200,note_on,0,0,3,,,,,,,,,,,,55,64,2
40320,note_on,0,0,3,,,,,,,,,,,,53,64,2
40320,note_off,120,0,3,,,,,,,,,,,,55,64,2
40560,note_off,1200,0,2,,,,,,,,,,,,63,64,1
40560,note_on,0,0,2,,,,,,,,,,,,62,64,1
40800,note_off,240,0,2,,,,,,,,,,,,62,64,1
40800,note_on,0,0,2,,,,,,,,,,,,62,64,1
41040,note_off,720,0,3,,,,,,,,,,,,53,64,2
41100,note_on,60,0,3,,,,,,,,,,,,55,64,2
41160,note_off,60,0,3,,,,,,,,,,,,55,64,2
41160,note_on,0,0,3,,,,,,,,,,,,53,64,2
41160,note_off,360,0,2,,,,,,,,,,,,62,64,1
41160,note_on,0,0,2,,,,,,,,,,,,61,64,1
41220,note_off,60,0,3,,,,,,,,,,,,53,64,2
41220,note_on,0,0,3,,,,,,,,,,,,52,64,2
41280,note_off,120,0,2,,,,,,,,,,,,61,64,1
41280,note_on,0,0,2,,,,,,,,,,,,63,64,1
41280,note_on,0,0,3,,,,,,,,,,,,53,64,2
41280,note_off,60,0,3,,,,,,,,,,,,52,64,2
41320,note_off,40,0,2,,,,,,,,,,,,63,64,1
41320,note_on,0,0,2,,,,,,,,,,,,61,64,1
41360,note_on,0,0,2,,,,,,,,,,,,63,64,1
41360,note_off,40,0,2,,,,,,,,,,,,61,64,1
41400,note_off,40,0,2,,,,,,,,,,,,63,64,1
41400,note_on,0,0,2,,,,,,,,,,,,61,64,1
41520,note_on,1680,0,1,,,,,,,,,,,,64,64,0
41640,note_on,0,0,2,,,,,,,,,,,,60,64,1
41640,note_off,240,0,2,,,,,,,,,,,,61,64,1
41640,note_on,0,0,3,,,,,,,,,,,,55,64,2
41640,note_off,360,0,3,,,,,,,,,,,,53,64,2
41700,note_off,60,0,3,,,,,,,,,,,,55,64,2
41700,note_on,0,0,3,,,,,,,,,,,,56,64,2
41760,note_on,0,0,3,,,,,,,,,,,,50,64,2
41760,note_off,60,0,3,,,,,,,,,,,,56,64,2
41760,note_off,120,0,2,,,,,,,,,,,,60,64,1
41760,note_on,0,0,2,,,,,,,,,,,,61,64,1
41760,note_on,0,0,1,,,,,,,,,,,,65,64,0
41760,note_off,240,0,1,,,,,,,,,,,,64,64,0
41800,note_on,0,0,2,,,,,,,,,,,,60,64,1
41800,note_off,40,0,2,,,,,,,,,,,,61,64,1
41840,note_off,40,0,2,,,,,,,,,,,,60,64,1
41840,note_on,0,0,2,,,,,,,,,,,,61,64,1
41880,note_off,40,0,2,,,,,,,,,,,,61,64,1
41880,note_on,0,0,2,,,,,,,,,,,,60,64,1
42120,note_off,360,0,3,,,,,,,,,,,,50,64,2
42120,note_off,240,0,2,,,,,,,,,,,,60,64,1
42120,note_on,0,0,3,,,,,,,,,,,,51,64,2
42120,note_on,0,0,2,,,,,,,,,,,,59,64,1
42180,note_on,0,0,3,,,,,,,,,,,,53,64,2
42180,note_off,60,0,3,,,,,,,,,,,,51,64,2
42240,note_on,0,0,3,,,,,,,,,,,,55,64,2
42240,note_on,0,0,2,,,,,,,,,,,,60,64,1
42240,note_off,60,0,3,,,,,,,,,,,,53,64,2
42240,note_off,120,0,2,,,,,,,,,,,,59,64,1
42280,note_off,40,0,2,,,,,,,,,,,,60,64,1
42280,note_on,0,0,2,,,,,,,,,,,,59,64,1
42320,note_off,40,0,2,,,,,,,,,,,,59,64,1
42320,note_on,0,0,2,,,,,,,,,,,,60,64,1
42360,note_on,0,0,2,,,,,,,,,,,,59,64,1
42360,note_off,40,0,2,,,,,,,,,,,,60,64,1
42480,note_off,720,0,1,,,,,,,,,,,,65,64,0
42480,note_on,0,0,1,,,,,,,,,,,,67,64,0
42720,note_off,240,0,1,,,,,,,,,,,,67,64,0
42720,note_on,0,0,1,,,,,,,,,,,,65,64,0
42960,note_off,600,0,2,,,,,,,,,,,,59,64,1
42960,note_on,0,0,2,,,,,,,,,,,,57,64,1
42990,note_on,0,0,3,,,,,,,,,,,,57,64,2
42990,note_off,750,0,3,,,,,,,,,,,,55,64,2
43020,note_off,30,0,3,,,,,,,,,,,,57,64,2
43020,note_on,0,0,3,,,,,,,,,,,,59,64,2
43050,note_off,30,0,3,,,,,,,,,,,,59,64,2
43050,note_on,0,0,3,,,,,,,,,,,,60,64,2
43080,note_off,30,0,3,,,,,,,,,,,,60,64,2
43080,note_on,0,0,3,,,,,,,,,,,,62,64,2
43080,note_off,120,0,2,,,,,,,,,,,,57,64,1
43080,note_on,0,0,2,,,,,,,,,,,,55,64,1
43110,note_off,30,0,3,,,,,,,,,,,,62,64,2
43110,note_on,0,0,3,,,,,,,,,,,,63,64,2
43140,note_off,30,0,3,,,,,,,,,,,,63,64,2
43140,note_on,0,0,3,,,,,,,,,,,,65,64,2
43170,note_off,30,0,3,,,,,,,,,,,,65,64,2
43170,note_on,0,0,3,,,,,,,,,,,,67,64,2
43200,note_off,30,0,3,,,,,,,,,,,,67,64,2
43200,note_on,0,0,3,,,,,,,,,,,,68,64,2
43200,note_off,120,0,2,,,,,,,,,,,,55,64,1
43200,note_on,0,0,2,,,,,,,,,,,,60,64,1
43440,note_on,0,0,1,,,,,,,,,,,,70,64,0
43440,note_off,720,0,1,,,,,,,,,,,,65,64,0
43500,note_on,0,0,3,,,,,,,,,,,,67,64,2
43500,note_off,300,0,3,,,,,,,,,,,,68,64,2
43560,note_on,0,0,3,,,,,,,,,,,,65,64,2
43560,note_off,60,0,3,,,,,,,,,,,,67,64,2
43620,note_on,0,0,3,,,,,,,,,,,,64,64,2
43620,note_off,60,0,3,,,,,,,,,,,,65,64,2
43680,note_on,0,0,3,,,,,,,,,,,,65,64,2
43680,note_on,0,0,1,,,,,,,,,,,,68,64,0
43680,note_off,240,0,1,,,,,,,,,,,,70,64,0
43680,note_off,60,0,3,,,,,,,,,,,,64,64,2
43920,note_off,720,0,2,,,,,,,,,,,,60,64,1
44040,note_off,360,0,3,,,,,,,,,,,,65,64,2
44040,note_on,0,0,3,,,,,,,,,,,,59,64,2
44040,note_on,120,0,2,,,,,,,,,,,,65,64,1
44160,note_off,120,0,3,,,,,,,,,,,,59,64,2
44160,note_off,120,0,2,,,,,,,,,,,,65,64,1
44160,note_on,0,0,2,,,,,,,,,,,,63,64,1
44160,note_on,0,0,3,,,,,,,,,,,,60,64,2
44400,note_on,0,0,1,,,,,,,,,,,,67,64,0
44400,note_off,720,0,1,,,,,,,,,,,,68,64,0
44460,note_on,0,0,3,,,,,,,,,,,,48,64,2
44460,note_off,300,0,3,,,,,,,,,,,,60,64,2
44520,note_on,0,0,3,,,,,,,,,,,,50,64,2
44520,note_off,60,0,3,,,,,,,,,,,,48,64,2
44580,note_on,0,0,3,,,,,,,,,,,,51,64,2
44580,note_off,60,0,3,,,,,,,,,,,,50,64,2
44640,note_on,0,0,1,,,,,,,,,,,,68,64,0
44640,note_off,240,0,1,,,,,,,,,,,,67,64,0
44640,note_on,0,0,3,,,,,,,,,,,,53,64,2
44640,note_off,60,0,3,,,,,,,,,,,,51,64,2
44760,note_off,600,0,2,,,,,,,,,,,,63,64,1
44760,note_on,0,0,2,,,,,,,,,,,,62,64,1
44880,note_off,120,0,2,,,,,,,,,,,,62,64,1
44880,note_on,0,0,2,,,,,,,,,,,,60,64,1
45000,note_off,120,0,2,,,,,,,,,,,,60,64,1
45000,note_on,0,0,2,,,,,,,,,,,,62,64,1
45120,note_off,120,0,2,,,,,,,,,,,,62,64,1
45120,note_on,0,0,2,,,,,,,,,,,,63,64,1
45160,note_off,40,0,2,,,,,,,,,,,,63,64,1
45160,note_on,0,0,2,,,,,,,,,,,,62,64,1
45200,note_on,0,0,2,,,,,,,,,,,,63,64,1
45200,note_off,40,0,2,,,,,,,,,,,,62,64,1
45240,note_off,40,0,2,,,,,,,,,,,,63,64,1
45240,note_off,600,0,3,,,,,,,,,,,,53,64,2
45240,note_on,0,0,3,,,,,,,,,,,,50,64,2
45240,note_on,0,0,2,,,,,,,,,,,,62,64,1
45280,note_off,40,0,2,,,,,,,,,,,,62,64,1
45280,note_on,0,0,2,,,,,,,,,,,,63,64,1
45320,note_on,0,0,2,,,,,,,,,,,,62,64,1
45320,note_off,40,0,2,,,,,,,,,,,,63,64,1
45360,note_on,0,0,1,,,,,,,,,,,,72,64,0
45360,note_off,720,0,1,,,,,,,,,,,,68,64,0
45360,note_on,0,0,2,,,,,,,,,,,,63,64,1
45360,note_off,40,0,2,,,,,,,,,,,,62,64,1
45360,note_on,0,0,3,,,,,,,,,,,,51,64,2
45360,note_off,120,0,3,,,,,,,,,,,,50,64,2
45400,note_off,40,0,2,,,,,,,,,,,,63,64,1
45400,note_on,0,0,2,,,,,,,,,,,,62,64,1
45440,note_off,40,0,2,,,,,,,,,,,,62,64,1
45440,note_on,0,0,2,,,,,,,,,,,,63,64,1
45480,note_on,0,0,2,,,,,,,,,,,,62,64,1
45480,note_off,40,0,2,,,,,,,,,,,,63,64,1
45480,note_off,120,0,3,,,,,,,,,,,,51,64,2
45480,note_on,0,0,3,,,,,,,,,,,,53,64,2
45600,note_off,120,0,3,,,,,,,,,,,,53,64,2
45600,note_on,0,0,3,,,,,,,,,,,,55,64,2
45600,note_off,240,0,1,,,,,,,,,,,,72,64,0
45600,note_on,0,0,1,,,,,,,,,,,,70,64,0
45720,note_on,0,0,3,,,,,,,,,,,,56,64,2
45720,note_off,120,0,3,,,,,,,,,,,,55,64,2
45840,note_on,0,0,3,,,,,,,,,,,,55,64,2
45840,note_off,120,0,3,,,,,,,,,,,,56,64,2
45840,note_on,0,0,2,,,,,,,,,,,,60,64,1
45840,note_off,360,0,2,,,,,,,,,,,,62,64,1
45960,note_on,0,0,3,,,,,,,,,,,,53,64,2
45960,note_off,120,0,3,,,,,,,,,,,,55,64,2
46080,note_on,0,0,3,,,,,,,,,,,,51,64,2
46080,note_off,120,0,3,,,,,,,,,,,,53,64,2
46080,note_on,0,0,2,,,,,,,,,,,,60,64,1
46080,note_off,240,0,2,,,,,,,,,,,,60,64,1
46320,note_off,720,0,1,,,,,,,,,,,,70,64,0
46320,note_on,0,0,1,,,,,,,,,,,,68,64,0
46440,note_on,0,0,3,,,,,,,,,,,,60,64,2
46440,note_off,360,0,3,,,,,,,,,,,,51,64,2
46500,note_off,60,0,3,,,,,,,,,,,,60,64,2
46500,note_on,0,0,3,,,,,,,,,,,,62,64,2
46560,note_off,240,0,1,,,,,,,,,,,,68,64,0
46560,note_on,0,0,1,,,,,,,,,,,,67,64,0
46560,note_off,60,0,3,,,,,,,,,,,,62,64,2
46560,note_on,0,0,3,,,,,,,,,,,,63,64,2
46680,note_off,600,0,2,,,,,,,,,,,,60,64,1
46680,note_on,0,0,2,,,,,,,,,,,,59,64,1
46800,note_off,120,0,2,,,,,,,,,,,,59,64,1
46800,note_on,0,0,2,,,,,,,,,,,,60,64,1
46920,note_on,0,0,3,,,,,,,,,,,,65,64,2
46920,note_off,120,0,2,,,,,,,,,,,,60,64,1
46920,note_on,0,0,2,,,,,,,,,,,,62,64,1
46920,note_off,360,0,3,,,,,,,,,,,,63,64,2
47040,note_off,120,0,3,,,,,,,,,,,,65,64,2
47040,note_on,0,0,3,,,,,,,,,,,,67,64,2
47040,note_off,120,0,2,,,,,,,,,,,,62,64,1
47040,note_on,0,0,2,,,,,,,,,,,,63,64,1
47280,note_off,720,0,1,,,,,,,,,,,,67,64,0
47280,note_on,0,0,1,,,,,,,,,,,,72,64,0
47520,note_off,240,0,1,,,,,,,,,,,,72,64,0
47520,note_on,0,0,1,,,,,,,,,,,,67,64,0
47760,note_off,720,0,3,,,,,,,,,,,,67,64,2
47760,note_off,720,0,2,,,,,,,,,,,,63,64,1
47760,note_on,0,0,2,,,,,,,,,,,,65,64,1
47820,note_on,60,0,3,,,,,,,,,,,,65,64,2
47880,note_on,0,0,3,,,,,,,,,,,,63,64,2
47880,note_off,60,0,3,,,,,,,,,,,,65,64,2
47940,note_on,0,0,3,,,,,,,,,,,,62,64,2
47940,note_off,60,0,3,,,,,,,,,,,,63,64,2
48000,note_off,60,0,3,,,,,,,,,,,,62,64,2
48000,note_off,240,0,2,,,,,,,,,,,,65,64,1
48000,note_on,0,0,2,,,,,,,,,,,,67,64,1
48000,note_on,0,0,3,,,,,,,,,,,,60,64,2
48240,note_off,720,0,1,,,,,,,,,,,,67,64,0
48240,note_on,0,0,1,,,,,,,,,,,,69,64,0
48360,note_on,0,0,3,,,,,,,,,,,,58,64,2
48360,note_off,360,0,3,,,,,,,,,,,,60,64,2
48480,note_on,0,0,3,,,,,,,,,,,,56,64,2
48480,note_off,120,0,3,,,,,,,,,,,,58,64,2
48480,note_on,0,0,1,,,,,,,,,,,,71,64,0
48480,note_off,240,0,1,,,,,,,,,,,,69,64,0
48600,note_on,0,0,2,,,,,,,,,,,,63,64,1
48600,note_off,600,0,2,,,,,,,,,,,,67,64,1
48720,note_off,120,0,2,,,,,,,,,,,,63,64,1
48720,note_on,0,0,2,,,,,,,,,,,,65,64,1
48840,note_off,360,0,3,,,,,,,,,,,,56,64,2
48840,note_off,120,0,2,,,,,,,,,,,,65,64,1
48840,note_on,0,0,2,,,,,,,,,,,,67,64,1
48840,note_on,0,0,3,,,,,,,,,,,,55,64,2
48960,note_on,0,0,2,,,,,,,,,,,,68,64,1
48960,note_off,120,0,2,,,,,,,,,,,,67,64,1
48960,note_on,0,0,3,,,,,,,,,,,,53,64,2
48960,note_off,120,0,3,,,,,,,,,,,,55,64,2
49200,note_off,720,0,1,,,,,,,,,,,,71,64,0
49200,note_on,0,0,1,,,,,,,,,,,,75,64,0
49260,note_on,0,0,3,,,,,,,,,,,,48,64,2
49260,note_off,300,0,3,,,,,,,,,,,,53,64,2
49320,note_on,0,0,3,,,,,,,,,,,,50,64,2
49320,note_off,60,0,3,,,,,,,,,,,,48,64,2
49380,note_off,60,0,3,,,,,,,,,,,,50,64,2
49380,note_on,0,0,3,,,,,,,,,,,,52,64,2
49440,note_on,0,0,1,,,,,,,,,,,,71,64,0
49440,note_off,240,0,1,,,,,,,,,,,,75,64,0
49440,note_on,0,0,3,,,,,,,,,,,,53,64,2
49440,note_off,60,0,3,,,,,,,,,,,,52,64,2
49680,note_off,720,0,2,,,,,,,,,,,,68,64,1
49800,note_off,360,0,3,,,,,,,,,,,,53,64,2
49800,note_on,0,0,3,,,,,,,,,,,,56,64,2
49800,note_on,120,0,2,,,,,,,,,,,,60,64,1
49920,note_on,0,0,3,,,,,,,,,,,,55,64,2
49920,note_off,120,0,2,,,,,,,,,,,,60,64,1
49920,note_on,0,0,2,,,,,,,,,,,,59,64,1
49920,note_off,120,0,3,,,,,,,,,,,,56,64,2
50160,note_off,720,0,1,,,,,,,,,,,,71,64,0
50160,note_on,0,0,1,,,,,,,,,,,,72,64,0
50400,note_off,480,0,3,,,,,,,,,,,,55,64,2
50400,note_off,240,0,1,,,,,,,,,,,,72,64,0
50400,note_on,0,0,1,,,,,,,,,,,,74,64,0
50520,note_off,600,0,2,,,,,,,,,,,,59,64,1
50520,note_on,0,0,2,,,,,,,,,,,,55,64,1
50640,note_off,120,0,2,,,,,,,,,,,,55,64,1
50640,note_on,0,0,2,,,,,,,,,,,,59,64,1
50760,note_off,120,0,2,,,,,,,,,,,,59,64,1
50760,note_on,0,0,2,,,,,,,,,,,,62,64,1
50880,note_off,120,0,2,,,,,,,,,,,,62,64,1
50880,note_on,0,0,2,,,,,,,,,,,,67,64,1
51240,note_on,840,0,3,,,,,,,,,,,,63,64,2
51360,note_off,120,0,3,,,,,,,,,,,,63,64,2
51360,note_on,0,0,3,,,,,,,,,,,,62,64,2
51600,note_off,720,0,2,,,,,,,,,,,,67,64,1
51720,note_on,120,0,2,,,,,,,,,,,,69,64,1
51720,note_on,0,0,3,,,,,,,,,,,,60,64,2
51720,note_off,360,0,3,,,,,,,,,,,,62,64,2
51840,note_on,0,0,3,,,,,,,,,,,,62,64,2
51840,note_off,120,0,3,,,,,,,,,,,,60,64,2
51840,note_off,1440,0,1,,,,,,,,,,,,74,64,0
51840,note_on,0,0,2,,,,,,,,,,,,67,64,1
51840,note_off,120,0,2,,,,,,,,,,,,69,64,1
51880,note_off,40,0,2,,,,,,,,,,,,67,64,1
51880,note_on,0,0,2,,,,,,,,,,,,66,64,1
51920,note_off,40,0,2,,,,,,,,,,,,66,64,1
51920,note_on,0,0,2,,,,,,,,,,,,67,64,1
51960,note_on,120,0,1,,,,,,,,,,,,72,64,0
51960,note_on,0,0,2,,,,,,,,,,,,66,64,1
51960,note_off,40,0,2,,,,,,,,,,,,67,64,1
52080,note_on,0,0,1,,,,,,,,,,,,74,64,0
52080,note_off,120,0,1,,,,,,,,,,,,72,64,0
52200,note_on,0,0,1,,,,,,,,,,,,75,64,0
52200,note_off,120,0,1,,,,,,,,,,,,74,64,0
52200,note_on,0,0,3,,,,,,,,,,,,57,64,2
52200,note_off,360,0,3,,,,,,,,,,,,62,64,2
52320,note_on,0,0,1,,,,,,,,,,,,74,64,0
52320,note_off,120,0,1,,,,,,,,,,,,75,64,0
52320,note_on,0,0,3,,,,,,,,,,,,59,64,2
52320,note_off,120,0,3,,,,,,,,,,,,57,64,2
52560,note_off,600,0,2,,,,,,,,,,,,66,64,1
52680,note_off,360,0,3,,,,,,,,,,,,59,64,2
52680,note_on,0,0,3,,,,,,,,,,,,60,64,2
52680,note_on,120,0,2,,,,,,,,,,,,64,64,1
52800,note_on,0,0,3,,,,,,,,,,,,59,64,2
52800,note_on,0,0,2,,,,,,,,,,,,65,64,1
52800,note_off,120,0,2,,,,,,,,,,,,64,64,1
52800,note_off,120,0,3,,,,,,,,,,,,60,64,2
53040,note_off,720,0,1,,,,,,,,,,,,74,64,0
53040,note_on,0,0,1,,,,,,,,,,,,72,64,0
53160,note_on,0,0,1,,,,,,,,,,,,71,64,0
53160,note_off,360,0,3,,,,,,,,,,,,59,64,2
53160,note_on,0,0,3,,,,,,,,,,,,55,64,2
53160,note_off,120,0,1,,,,,,,,,,,,72,64,0
53280,note_off,120,0,1,,,,,,,,,,,,71,64,0
53280,note_on,0,0,1,,,,,,,,,,,,77,64,0
53280,note_off,120,0,3,,,,,,,,,,,,55,64,2
53280,note_on,0,0,3,,,,,,,,,,,,57,64,2
53520,note_off,720,0,2,,,,,,,,,,,,65,64,1
53640,note_on,120,0,2,,,,,,,,,,,,67,64,1
53640,note_on,0,0,3,,,,,,,,,,,,59,64,2
53640,note_off,360,0,3,,,,,,,,,,,,57,64,2
53760,note_on,0,0,2,,,,,,,,,,,,64,64,1
53760,note_off,120,0,2,,,,,,,,,,,,67,64,1
53760,note_off,120,0,3,,,,,,,,,,,,59,64,2
53760,note_on,0,0,3,,,,,,,,,,,,60,64,2
54000,note_on,0,0,1,,,,,,,,,,,,76,64,0
54000,note_off,720,0,1,,,,,,,,,,,,77,64,0
54120,note_off,120,0,1,,,,,,,,,,,,76,64,0
54120,note_on,0,0,1,,,,,,,,,,,,74,64,0
54120,note_on,0,0,3,,,,,,,,,,,,55,64,2
54120,note_off,360,0,3,,,,,,,,,,,,60,64,2
54240,note_off,120,0,1,,,,,,,,,,,,74,64,0
54240,note_on,0,0,1,,,,,,,,,,,,72,64,0
54240,note_off,120,0,3,,,,,,,,,,,,55,64,2
54240,note_on,0,0,3,,,,,,,,,,,,60,64,2
54480,note_off,720,0,2,,,,,,,,,,,,64,64,1
54600,note_on,120,0,2,,,,,,,,,,,,62,64,1
54600,note_on,0,0,3,,,,,,,,,,,,58,64,2
54600,note_off,360,0,3,,,,,,,,,,,,60,64,2
54720,note_on,0,0,3,,,,,,,,,,,,56,64,2
54720,note_off,120,0,3,,,,,,,,,,,,58,64,2
54720,note_on,0,0,2,,,,,,,,,,,,63,64,1
54720,note_off,120,0,2,,,,,,,,,,,,62,64,1
55080,note_on,0,0,3,,,,,,,,,,,,51,64,2
55080,note_off,360,0,3,,,,,,,,,,,,56,64,2
55200,note_on,0,0,3,,,,,,,,,,,,56,64,2
55200,note_off,120,0,3,,,,,,,,,,,,51,64,2
55560,note_on,0,0,3,,,,,,,,,,,,55,64,2
55560,note_off,360,0,3,,,,,,,,,,,,56,64,2
55680,note_off,120,0,3,,,,,,,,,,,,55,64,2
55680,note_on,0,0,3,,,,,,,,,,,,53,64,2
55740,note_on,0,0,1,,,,,,,,,,,,70,64,0
55740,note_off,1500,0,1,,,,,,,,,,,,72,64,0
55800,note_on,0,0,1,,,,,,,,,,,,68,64,0
55800,note_off,60,0,1,,,,,,,,,,,,70,64,0
55860,note_on,0,0,1,,,,,,,,,,,,67,64,0
55860,note_off,60,0,1,,,,,,,,,,,,68,64,0
55920,note_on,0,0,2,,,,,,,,,,,,62,64,1
55920,note_off,60,0,1,,,,,,,,,,,,67,64,0
55920,note_off,1200,0,2,,,,,,,,,,,,63,64,1
55920,note_on,0,0,1,,,,,,,,,,,,65,64,0
55980,note_off,60,0,1,,,,,,,,,,,,65,64,0
55980,note_on,0,0,1,,,,,,,,,,,,63,64,0
56040,note_on,0,0,1,,,,,,,,,,,,62,64,0
56040,note_off,60,0,1,,,,,,,,,,,,63,64,0
56100,note_on,0,0,1,,,,,,,,,,,,60,64,0
56100,note_off,60,0,1,,,,,,,,,,,,62,64,0
56160,note_off,240,0,2,,,,,,,,,,,,62,64,1
56160,note_on,0,0,2,,,,,,,,,,,,62,64,1
56160,note_off,60,0,1,,,,,,,,,,,,60,64,0
56160,note_on,0,0,1,,,,,,,,,,,,59,64,0
56400,note_off,720,0,3,,,,,,,,,,,,53,64,2
56460,note_on,60,0,3,,,,,,,,,,,,55,64,2
56520,note_off,360,0,2,,,,,,,,,,,,62,64,1
56520,note_on,0,0,2,,,,,,,,,,,,61,64,1
56520,note_off,60,0,3,,,,,,,,,,,,55,64,2
56520,note_on,0,0,3,,,,,,,,,,,,53,64,2
56580,note_off,60,0,3,,,,,,,,,,,,53,64,2
56580,note_on,0,0,3,,,,,,,,,,,,52,64,2
56640,note_on,0,0,3,,,,,,,,,,,,53,64,2
56640,note_off,60,0,3,,,,,,,,,,,,52,64,2
56640,note_on,0,0,2,,,,,,,,,,,,63,64,1
56640,note_off,120,0,2,,,,,,,,,,,,61,64,1
56680,note_on,0,0,2,,,,,,,,,,,,61,64,1
56680,note_off,40,0,2,,,,,,,,,,,,63,64,1
56720,note_on,0,0,2,,,,,,,,,,,,63,64,1
56720,note_off,40,0,2,,,,,,,,,,,,61,64,1
56760,note_on,0,0,1,,,,,,,,,,,,60,64,0
56760,note_off,600,0,1,,,,,,,,,,,,59,64,0
56760,note_off,40,0,2,,,,,,,,,,,,63,64,1
56760,note_on,0,0,2,,,,,,,,,,,,61,64,1
56880,note_off,120,0,1,,,,,,,,,,,,60,64,0
56880,note_on,0,0,1,,,,,,,,,,,,62,64,0
57000,note_off,360,0,3,,,,,,,,,,,,53,64,2
57000,note_on,0,0,3,,,,,,,,,,,,55,64,2
57000,note_on,0,0,1,,,,,,,,,,,,63,64,0
57000,note_off,240,0,2,,,,,,,,,,,,61,64,1
57000,note_on,0,0,2,,,,,,,,,,,,60,64,1
57000,note_off,120,0,1,,,,,,,,,,,,62,64,0
57060,note_on,0,0,3,,,,,,,,,,,,56,64,2
57060,note_off,60,0,3,,,,,,,,,,,,55,64,2
57120,note_on,0,0,1,,,,,,,,,,,,62,64,0
57120,note_on,0,0,3,,,,,,,,,,,,50,64,2
57120,note_off,60,0,3,,,,,,,,,,,,56,64,2
57120,note_off,120,0,1,,,,,,,,,,,,63,64,0
57120,note_on,0,0,2,,,,,,,,,,,,61,64,1
57120,note_off,120,0,2,,,,,,,,,,,,60,64,1
57160,note_off,40,0,2,,,,,,,,,,,,61,64,1
57160,note_on,0,0,2,,,,,,,,,,,,60,64,1
57200,note_on,0,0,2,,,,,,,,,,,,61,64,1
57200,note_off,40,0,2,,,,,,,,,,,,60,64,1
57240,note_off,40,0,2,,,,,,,,,,,,61,64,1
57240,note_on,0,0,2,,,,,,,,,,,,60,64,1
57480,note_off,360,0,3,,,,,,,,,,,,50,64,2
57480,note_on,0,0,2,,,,,,,,,,,,59,64,1
57480,note_on,0,0,3,,,,,,,,,,,,51,64,2
57480,note_off,240,0,2,,,,,,,,,,,,60,64,1
57540,note_off,60,0,3,,,,,,,,,,,,51,64,2
57540,note_on,0,0,3,,,,,,,,,,,,53,64,2
57600,note_on,0,0,2,,,,,,,,,,,,60,64,1
57600,note_on,0,0,3,,,,,,,,,,,,55,64,2
57600,note_off,60,0,3,,,,,,,,,,,,53,64,2
57600,note_off,120,0,2,,,,,,,,,,,,59,64,1
57640,note_on,0,0,2,,,,,,,,,,,,59,64,1
57640,note_off,40,0,2,,,,,,,,,,,,60,64,1
57680,note_off,40,0,2,,,,,,,,,,,,59,64,1
57680,note_on,0,0,2,,,,,,,,,,,,60,64,1
57720,note_on,0,0,2,,,,,,,,,,,,59,64,1
57720,note_off,40,0,2,,,,,,,,,,,,60,64,1
57840,note_off,720,0,1,,,,,,,,,,,,62,64,0
57840,note_on,0,0,1,,,,,,,,,,,,68,64,0
58080,note_off,240,0,1,,,,,,,,,,,,68,64,0
58080,note_on,0,0,1,,,,,,,,,,,,67,64,0
58320,note_off,600,0,2,,,,,,,,,,,,59,64,1
58320,note_on,0,0,2,,,,,,,,,,,,57,64,1
58350,note_on,0,0,3,,,,,,,,,,,,57,64,2
58350,note_off,750,0,3,,,,,,,,,,,,55,64,2
58380,note_on,0,0,3,,,,,,,,,,,,59,64,2
58380,note_off,30,0,3,,,,,,,,,,,,57,64,2
58410,note_on,0,0,3,,,,,,,,,,,,60,64,2
58410,note_off,30,0,3,,,,,,,,,,,,59,64,2
58440,note_on,0,0,2,,,,,,,,,,,,55,64,1
58440,note_off,120,0,2,,,,,,,,,,,,57,64,1
58440,note_off,30,0,3,,,,,,,,,,,,60,64,2
58440,note_on,0,0,3,,,,,,,,,,,,62,64,2
58470,note_off,30,0,3,,,,,,,,,,,,62,64,2
58470,note_on,0,0,3,,,,,,,,,,,,63,64,2
58500,note_off,30,0,3,,,,,,,,,,,,63,64,2
58500,note_on,0,0,3,,,,,,,,,,,,65,64,2
58530,note_off,30,0,3,,,,,,,,,,,,65,64,2
58530,note_on,0,0,3,,,,,,,,,,,,67,64,2
58560,note_on,0,0,3,,,,,,,,,,,,68,64,2
58560,note_on,0,0,2,,,,,,,,,,,,60,64,1
58560,note_off,120,0,2,,,,,,,,,,,,55,64,1
58560,note_off,30,0,3,,,,,,,,,,,,67,64,2
58680,note_off,600,0,1,,,,,,,,,,,,67,64,0
58680,note_on,0,0,1,,,,,,,,,,,,79,64,0
58800,note_on,0,0,1,,,,,,,,,,,,77,64,0
58800,note_off,120,0,1,,,,,,,,,,,,79,64,0
58860,note_off,300,0,3,,,,,,,,,,,,68,64,2
58860,note_on,0,0,3,,,,,,,,,,,,67,64,2
58920,note_off,120,0,1,,,,,,,,,,,,77,64,0
58920,note_on,0,0,1,,,,,,,,,,,,75,64,0
58920,note_on,0,0,3,,,,,,,,,,,,65,64,2
58920,note_off,60,0,3,,,,,,,,,,,,67,64,2
58980,note_off,60,0,3,,,,,,,,,,,,65,64,2
58980,note_on,0,0,3,,,,,,,,,,,,64,64,2
59040,note_off,60,0,3,,,,,,,,,,,,64,64,2
59040,note_on,0,0,3,,,,,,,,,,,,65,64,2
59040,note_off,120,0,1,,,,,,,,,,,,75,64,0
59040,note_on,0,0,1,,,,,,,,,,,,74,64,0
59280,note_off,720,0,2,,,,,,,,,,,,60,64,1
59400,note_on,0,0,3,,,,,,,,,,,,59,64,2
59400,note_off,360,0,3,,,,,,,,,,,,65,64,2
59400,note_on,120,0,2,,,,,,,,,,,,65,64,1
59520,note_on,0,0,3,,,,,,,,,,,,60,64,2
59520,note_off,120,0,2,,,,,,,,,,,,65,64,1
59520,note_on,0,0,2,,,,,,,,,,,,63,64,1
59520,note_off,120,0,3,,,,,,,,,,,,59,64,2
59820,note_off,300,0,3,,,,,,,,,,,,60,64,2
59820,note_on,0,0,3,,,,,,,,,,,,48,64,2
59880,note_on,0,0,3,,,,,,,,,,,,50,64,2
59880,note_off,60,0,3,,,,,,,,,,,,48,64,2
59940,note_on,0,0,3,,,,,,,,,,,,51,64,2
59940,note_off,60,0,3,,,,,,,,,,,,50,64,2
60000,note_off,60,0,3,,,,,,,,,,,,51,64,2
60000,note_on,0,0,3,,,,,,,,,,,,53,64,2
60120,note_off,600,0,2,,,,,,,,,,,,63,64,1
60120,note_on,0,0,2,,,,,,,,,,,,62,64,1
60240,note_off,1200,0,1,,,,,,,,,,,,74,64,0
60240,note_on,0,0,1,,,,,,,,,,,,77,64,0
60240,note_off,120,0,2,,,,,,,,,,,,62,64,1
60240,note_on,0,0,2,,,,,,,,,,,,60,64,1
60360,note_off,120,0,2,,,,,,,,,,,,60,64,1
60360,note_on,0,0,2,,,,,,,,,,,,62,64,1
60480,note_off,240,0,1,,,,,,,,,,,,77,64,0
60480,note_off,120,0,2,,,,,,,,,,,,62,64,1
60480,note_on,0,0,2,,,,,,,,,,,,63,64,1
60480,note_on,0,0,1,,,,,,,,,,,,75,64,0
60520,note_off,40,0,2,,,,,,,,,,,,63,64,1
60520,note_on,0,0,2,,,,,,,,,,,,62,64,1
60560,note_off,40,0,2,,,,,,,,,,,,62,64,1
60560,note_on,0,0,2,,,,,,,,,,,,63,64,1
60600,note_on,0,0,3,,,,,,,,,,,,50,64,2
60600,note_off,600,0,3,,,,,,,,,,,,53,64,2
60600,note_off,40,0,2,,,,,,,,,,,,63,64,1
60600,note_on,0,0,2,,,,,,,,,,,,62,64,1
60640,note_off,40,0,2,,,,,,,,,,,,62,64,1
60640,note_on,0,0,2,,,,,,,,,,,,63,64,1
60680,note_on,0,0,2,,,,,,,,,,,,62,64,1
60680,note_off,40,0,2,,,,,,,,,,,,63,64,1
60720,note_on,0,0,2,,,,,,,,,,,,63,64,1
60720,note_off,240,0,1,,,,,,,,,,,,75,64,0
60720,note_on,0,0,1,,,,,,,,,,,,74,64,0
60720,note_on,0,0,3,,,,,,,,,,,,51,64,2
60720,note_off,120,0,3,,,,,,,,,,,,50,64,2
60720,note_off,40,0,2,,,,,,,,,,,,62,64,1
60760,note_off,40,0,2,,,,,,,,,,,,63,64,1
60760,note_on,0,0,2,,,,,,,,,,,,62,64,1
60800,note_off,40,0,2,,,,,,,,,,,,62,64,1
60800,note_on,0,0,2,,,,,,,,,,,,63,64,1
60840,note_on,0,0,3,,,,,,,,,,,,53,64,2
60840,note_off,120,0,3,,,,,,,,,,,,51,64,2
60840,note_off,40,0,2,,,,,,,,,,,,63,64,1
60840,note_on,0,0,2,,,,,,,,,,,,62,64,1
60960,note_off,120,0,3,,,,,,,,,,,,53,64,2
60960,note_on,0,0,3,,,,,,,,,,,,55,64,2
60960,note_off,240,0,1,,,,,,,,,,,,74,64,0
60960,note_on,0,0,1,,,,,,,,,,,,72,64,0
61080,note_off,120,0,3,,,,,,,,,,,,55,64,2
61080,note_on,0,0,3,,,,,,,,,,,,56,64,2
61200,note_on,0,0,2,,,,,,,,,,,,60,64,1
61200,note_off,360,0,2,,,,,,,,,,,,62,64,1
61200,note_off,120,0,3,,,,,,,,,,,,56,64,2
61200,note_on,0,0,3,,,,,,,,,,,,55,64,2
61200,note_on,0,0,1,,,,,,,,,,,,71,64,0
61200,note_off,240,0,1,,,,,,,,,,,,72,64,0
61320,note_on,0,0,3,,,,,,,,,,,,53,64,2
61320,note_off,120,0,3,,,,,,,,,,,,55,64,2
61440,note_off,240,0,2,,,,,,,,,,,,60,64,1
61440,note_on,0,0,1,,,,,,,,,,,,72,64,0
61440,note_off,120,0,3,,,,,,,,,,,,53,64,2
61440,note_on,0,0,2,,,,,,,,,,,,60,64,1
61440,note_on,0,0,3,,,,,,,,,,,,51,64,2
61440,note_off,240,0,1,,,,,,,,,,,,71,64,0
61680,note_on,0,0,1,,,,,,,,,,,,74,64,0
61680,note_off,240,0,1,,,,,,,,,,,,72,64,0
61800,note_on,0,0,3,,,,,,,,,,,,60,64,2
61800,note_off,360,0,3,,,,,,,,,,,,51,64,2
61860,note_off,60,0,3,,,,,,,,,,,,60,64,2
61860,note_on,0,0,3,,,,,,,,,,,,62,64,2
61920,note_on,0,0,1,,,,,,,,,,,,75,64,0
61920,note_off,60,0,3,,,,,,,,,,,,62,64,2
61920,note_on,0,0,3,,,,,,,,,,,,63,64,2
61920,note_off,240,0,1,,,,,,,,,,,,74,64,0
62040,note_off,600,0,2,,,,,,,,,,,,60,64,1
62040,note_on,0,0,2,,,,,,,,,,,,59,64,1
62160,note_off,120,0,2,,,,,,,,,,,,59,64,1
62160,note_on,0,0,2,,,,,,,,,,,,60,64,1
62280,note_on,0,0,2,,,,,,,,,,,,62,64,1
62280,note_off,360,0,3,,,,,,,,,,,,63,64,2
62280,note_on,0,0,3,,,,,,,,,,,,65,64,2
62280,note_off,120,0,2,,,,,,,,,,,,60,64,1
62400,note_off,120,0,3,,,,,,,,,,,,65,64,2
62400,note_on,0,0,3,,,,,,,,,,,,67,64,2
62400,note_off,120,0,2,,,,,,,,,,,,62,64,1
62400,note_on,0,0,2,,,,,,,,,,,,63,64,1
62640,note_off,720,0,1,,,,,,,,,,,,75,64,0
62640,note_on,0,0,1,,,,,,,,,,,,67,64,0
62760,note_off,120,0,1,,,,,,,,,,,,67,64,0
62760,note_on,0,0,1,,,,,,,,,,,,65,64,0
62880,note_on,0,0,1,,,,,,,,,,,,63,64,0
62880,note_off,120,0,1,,,,,,,,,,,,65,64,0
63120,note_off,720,0,2,,,,,,,,,,,,63,64,1
63120,note_off,720,0,3,,,,,,,,,,,,67,64,2
63120,note_on,0,0,2,,,,,,,,,,,,65,64,1
63180,note_on,60,0,3,,,,,,,,,,,,65,64,2
63240,note_on,0,0,3,,,,,,,,,,,,63,64,2
63240,note_off,60,0,3,,,,,,,,,,,,65,64,2
63300,note_off,60,0,3,,,,,,,,,,,,63,64,2
63300,note_on,0,0,3,,,,,,,,,,,,62,64,2
63360,note_off,60,0,3,,,,,,,,,,,,62,64,2
63360,note_on,0,0,2,,,,,,,,,,,,67,64,1
63360,note_on,0,0,3,,,,,,,,,,,,60,64,2
63360,note_off,240,0,2,,,,,,,,,,,,65,64,1
63600,note_off,720,0,1,,,,,,,,,,,,63,64,0
63600,note_on,0,0,1,,,,,,,,,,,,62,64,0
63720,note_on,0,0,3,,,,,,,,,,,,58,64,2
63720,note_off,360,0,3,,,,,,,,,,,,60,64,2
63840,note_off,120,0,3,,,,,,,,,,,,58,64,2
63840,note_on,0,0,1,,,,,,,,,,,,60,64,0
63840,note_off,240,0,1,,,,,,,,,,,,62,64,0
63840,note_on,0,0,3,,,,,,,,,,,,56,64,2
63960,note_on,0,0,2,,,,,,,,,,,,63,64,1
63960,note_off,600,0,2,,,,,,,,,,,,67,64,1
64080,note_on,0,0,2,,,,,,,,,,,,65,64,1
64080,note_off,120,0,2,,,,,,,,,,,,63,64,1
64200,note_off,120,0,2,,,,,,,,,,,,65,64,1
64200,note_on,0,0,2,,,,,,,,,,,,67,64,1
64200,note_on,0,0,3,,,,,,,,,,,,55,64,2
64200,note_off,360,0,3,,,,,,,,,,,,56,64,2
64320,note_off,120,0,3,,,,,,,,,,,,55,64,2
64320,note_on,0,0,3,,,,,,,,,,,,53,64,2
64320,note_off,120,0,2,,,,,,,,,,,,67,64,1
64320,note_on,0,0,2,,,,,,,,,,,,68,64,1
64620,note_on,0,0,3,,,,,,,,,,,,48,64,2
64620,note_off,300,0,3,,,,,,,,,,,,53,64,2
64680,note_on,0,0,3,,,,,,,,,,,,50,64,2
64680,note_off,60,0,3,,,,,,,,,,,,48,64,2
64740,note_on,0,0,3,,,,,,,,,,,,52,64,2
64740,note_off,60,0,3,,,,,,,,,,,,50,64,2
64800,note_off,60,0,3,,,,,,,,,,,,52,64,2
64800,note_on,0,0,3,,,,,,,,,,,,53,64,2
65040,note_off,720,0,2,,,,,,,,,,,,68,64,1
65160,note_off,360,0,3,,,,,,,,,,,,53,64,2
65160,note_on,0,0,3,,,,,,,,,,,,56,64,2
65160,note_on,120,0,2,,,,,,,,,,,,60,64,1
65280,note_off,120,0,2,,,,,,,,,,,,60,64,1
65280,note_on,0,0,2,,,,,,,,,,,,59,64,1
65280,note_off,1440,0,1,,,,,,,,,,,,60,64,0
65280,note_off,120,0,3,,,,,,,,,,,,56,64,2
65280,note_on,0,0,3,,,,,,,,,,,,55,64,2
65400,note_on,120,0,1,,,,,,,,,,,,62,64,0
65520,note_off,120,0,1,,,,,,,,,,,,62,64,0
65520,note_on,0,0,1,,,,,,,,,,,,63,64,0
65640,note_on,0,0,1,,,,,,,,,,,,65,64,0
65640,note_off,120,0,1,,,,,,,,,,,,63,64,0
65760,note_off,480,0,3,,,,,,,,,,,,55,64,2
65760,note_on,0,0,1,,,,,,,,,,,,67,64,0
65760,note_off,120,0,1,,,,,,,,,,,,65,64,0
65880,note_on,0,0,2,,,,,,,,,,,,55,64,1
65880,note_off,600,0,2,,,,,,,,,,,,59,64,1
66000,note_on,0,0,2,,,,,,,,,,,,59,64,1
66000,note_off,120,0,2,,,,,,,,,,,,55,64,1
66120,note_on,0,0,2,,,,,,,,,,,,62,64,1
66120,note_off,120,0,2,,,,,,,,,,,,59,64,1
66240,note_on,0,0,2,,,,,,,,,,,,67,64,1
66240,note_off,120,0,2,,,,,,,,,,,,62,64,1
66480,note_off,720,0,1,,,,,,,,,,,,67,64,0
66480,note_on,0,0,1,,,,,,,,,,,,69,64,0
66600,note_on,840,0,3,,,,,,,,,,,,63,64,2
66720,note_on,0,0,3,,,,,,,,,,,,62,64,2
66720,note_off,120,0,3,,,,,,,,,,,,63,64,2
66720,note_off,240,0,1,,,,,,,,,,,,69,64,0
66720,note_on,0,0,1,,,,,,,,,,,,71,64,0
66960,note_off,720,0,2,,,,,,,,,,,,67,64,1
67080,note_on,120,0,2,,,,,,,,,,,,69,64,1
67080,note_on,0,0,3,,,,,,,,,,,,60,64,2
67080,note_off,360,0,3,,,,,,,,,,,,62,64,2
67200,note_on,0,0,2,,,,,,,,,,,,67,64,1
67200,note_on,0,0,3,,,,,,,,,,,,62,64,2
67200,note_off,120,0,3,,,,,,,,,,,,60,64,2
67200,note_off,120,0,2,,,,,,,,,,,,69,64,1
67240,note_on,0,0,2,,,,,,,,,,,,66,64,1
67240,note_off,40,0,2,,,,,,,,,,,,67,64,1
67280,note_off,40,0,2,,,,,,,,,,,,66,64,1
67280,note_on,0,0,2,,,,,,,,,,,,67,64,1
67320,note_on,0,0,2,,,,,,,,,,,,66,64,1
67320,note_off,40,0,2,,,,,,,,,,,,67,64,1
67440,note_off,720,0,1,,,,,,,,,,,,71,64,0
67440,note_on,0,0,1,,,,,,,,,,,,72,64,0
67560,note_on,0,0,3,,,,,,,,,,,,57,64,2
67560,note_off,360,0,3,,,,,,,,,,,,62,64,2
67680,note_off,240,0,1,,,,,,,,,,,,72,64,0
67680,note_on,0,0,1,,,,,,,,,,,,74,64,0
67680,note_off,120,0,3,,,,,,,,,,,,57,64,2
67680,note_on,0,0,3,,,,,,,,,,,,59,64,2
67920,note_off,600,0,2,,,,,,,,,,,,66,64,1
68040,note_off,360,0,3,,,,,,,,,,,,59,64,2
68040,note_on,0,0,3,,,,,,,,,,,,60,64,2
68040,note_on,120,0,2,,,,,,,,,,,,64,64,1
68160,note_off,120,0,3,,,,,,,,,,,,60,64,2
68160,note_on,0,0,2,,,,,,,,,,,,65,64,1
68160,note_on,0,0,3,,,,,,,,,,,,59,64,2
68160,note_off,120,0,2,,,,,,,,,,,,64,64,1
68280,note_on,0,0,1,,,,,,,,,,,,79,64,0
68280,note_off,600,0,1,,,,,,,,,,,,74,64,0
68400,note_on,0,0,1,,,,,,,,,,,,77,64,0
68400,note_off,120,0,1,,,,,,,,,,,,79,64,0
68520,note_off,360,0,3,,,,,,,,,,,,59,64,2
68520,note_on,0,0,3,,,,,,,,,,,,55,64,2
68520,note_on,0,0,1,,,,,,,,,,,,75,64,0
68520,note_off,120,0,1,,,,,,,,,,,,77,64,0
68640,note_on,0,0,3,,,,,,,,,,,,57,64,2
68640,note_off,120,0,1,,,,,,,,,,,,75,64,0
68640,note_on,0,0,1,,,,,,,,,,,,74,64,0
68640,note_off,120,0,3,,,,,,,,,,,,55,64,2
68880,note_off,720,0,2,,,,,,,,,,,,65,64,1
69000,note_on,0,0,3,,,,,,,,,,,,59,64,2
69000,note_off,360,0,3,,,,,,,,,,,,57,64,2
69000,note_on,120,0,2,,,,,,,,,,,,67,64,1
69120,note_off,120,0,3,,,,,,,,,,,,59,64,2
69120,note_on,0,0,3,,,,,,,,,,,,60,64,2
69120,note_on,0,0,2,,,,,,,,,,,,64,64,1
69120,note_off,120,0,2,,,,,,,,,,,,67,64,1
69360,note_off,720,0,1,,,,,,,,,,,,74,64,0
69360,note_on,0,0,1,,,,,,,,,,,,71,64,0
69600,note_off,240,0,1,,,,,,,,,,,,71,64,0
69600,note_on,0,0,1,,,,,,,,,,,,72,64,0
70560,note_off,1440,0,2,,,,,,,,,,,,64,64,1
70560,note_off,960,0,1,,,,,,,,,,,,72,64,0
70560,end_of_track,0,1,1,,,,,,,,,,,,,,
70560,note_off,1440,0,3,,,,,,,,,,,,60,64,2
70560,end_of_track,0,1,2,,,,,,,,,,,,,,
70560,end_of_track,0,1,3,,,,,,,,,,,,,,
