tick,type,time,meta,track,frame_rate,hours,minutes,seconds,frames,sub_frames,numerator,denominator,clocks_per_click,notated_32nd_notes_per_beat,tempo,note,velocity,channel
0,text,0,1,0,,,,,,,,,,,,,,
0,text,0,1,4,,,,,,,,,,,,,,
0,text,0,1,3,,,,,,,,,,,,,,
0,text,0,1,1,,,,,,,,,,,,,,
0,text,0,1,2,,,,,,,,,,,,,,
0,set_tempo,0,1,0,,,,,,,,,,,441176,,,
0,end_of_track,0,1,0,,,,,,,,,,,,,,
0,time_signature,0,1,0,,,,,,,4,4,24,8,,,,
0,smpte_offset,0,1,0,24,32,0,0,0,0,,,,,,,,
480,note_on,480,0,1,,,,,,,,,,,,67,64,0
720,note_on,0,0,1,,,,,,,,,,,,69,64,0
720,note_off,240,0,1,,,,,,,,,,,,67,64,0
960,note_off,240,0,1,,,,,,,,,,,,69,64,0
960,note_on,0,0,1,,,,,,,,,,,,70,64,0
1200,note_on,0,0,1,,,,,,,,,,,,72,64,0
1200,note_off,240,0,1,,,,,,,,,,,,70,64,0
1440,note_off,240,0,1,,,,,,,,,,,,72,64,0
1440,note_on,0,0,1,,,,,,,,,,,,74,64,0
1680,note_on,0,0,1,,,,,,,,,,,,75,64,0
1680,note_off,240,0,1,,,,,,,,,,,,74,64,0
1920,note_off,240,0,1,,,,,,,,,,,,75,64,0
1920,note_on,0,0,1,,,,,,,,,,,,66,64,0
2400,note_off,480,0,1,,,,,,,,,,,,66,64,0
3360,note_on,960,0,1,,,,,,,,,,,,74,64,0
4080,note_off,720,0,1,,,,,,,,,,,,74,64,0
4080,note_on,0,0,1,,,,,,,,,,,,73,64,0
4320,note_off,240,0,1,,,,,,,,,,,,73,64,0
4320,note_on,0,0,1,,,,,,,,,,,,69,64,0
4560,note_on,0,0,1,,,,,,,,,,,,71,64,0
4560,note_off,240,0,1,,,,,,,,,,,,69,64,0
4800,note_off,240,0,1,,,,,,,,,,,,71,64,0
4800,note_on,0,0,1,,,,,,,,,,,,72,64,0
6000,note_off,1200,0,1,,,,,,,,,,,,72,64,0
6000,note_on,0,0,1,,,,,,,,,,,,71,64,0
6240,note_off,240,0,1,,,,,,,,,,,,71,64,0
6240,note_on,0,0,1,,,,,,,,,,,,67,64,0
6480,note_on,0,0,1,,,,,,,,,,,,69,64,0
6480,note_off,240,0,1,,,,,,,,,,,,67,64,0
6720,note_off,240,0,1,,,,,,,,,,,,69,64,0
6720,note_on,0,0,1,,,,,,,,,,,,70,64,0
7920,note_off,1200,0,1,,,,,,,,,,,,70,64,0
7920,note_on,0,0,1,,,,,,,,,,,,69,64,0
8160,note_off,240,0,1,,,,,,,,,,,,69,64,0
8160,note_on,0,0,1,,,,,,,,,,,,68,64,0
8400,note_off,240,0,1,,,,,,,,,,,,68,64,0
8400,note_on,0,0,1,,,,,,,,,,,,69,64,0
8640,note_off,240,0,1,,,,,,,,,,,,69,64,0
8640,note_on,0,0,1,,,,,,,,,,,,68,64,0
8880,note_off,240,0,1,,,,,,,,,,,,68,64,0
8880,note_on,0,0,1,,,,,,,,,,,,67,64,0
9120,note_on,0,0,1,,,,,,,,,,,,66,64,0
9120,note_off,240,0,1,,,,,,,,,,,,67,64,0
9360,note_on,0,0,1,,,,,,,,,,,,67,64,0
9360,note_off,240,0,1,,,,,,,,,,,,66,64,0
9600,note_off,240,0,1,,,,,,,,,,,,67,64,0
9600,note_on,0,0,1,,,,,,,,,,,,66,64,0
9840,note_on,0,0,1,,,,,,,,,,,,64,64,0
9840,note_off,240,0,1,,,,,,,,,,,,66,64,0
10080,note_off,240,0,1,,,,,,,,,,,,64,64,0
10080,note_on,0,0,1,,,,,,,,,,,,62,64,0
10320,note_off,240,0,1,,,,,,,,,,,,62,64,0
10320,note_on,0,0,1,,,,,,,,,,,,63,64,0
10560,note_off,240,0,1,,,,,,,,,,,,63,64,0
10560,note_on,0,0,1,,,,,,,,,,,,62,64,0
10800,note_off,240,0,1,,,,,,,,,,,,62,64,0
10800,note_on,0,0,1,,,,,,,,,,,,66,64,0
11040,note_on,0,0,1,,,,,,,,,,,,69,64,0
11040,note_off,240,0,1,,,,,,,,,,,,66,64,0
11280,note_off,240,0,1,,,,,,,,,,,,69,64,0
11280,note_on,0,0,1,,,,,,,,,,,,72,64,0
11520,note_off,240,0,1,,,,,,,,,,,,72,64,0
11520,note_on,0,0,1,,,,,,,,,,,,70,64,0
11760,note_off,240,0,1,,,,,,,,,,,,70,64,0
11760,note_on,0,0,1,,,,,,,,,,,,74,64,0
12000,note_on,0,0,1,,,,,,,,,,,,78,64,0
12000,note_off,240,0,1,,,,,,,,,,,,74,64,0
12240,note_off,240,0,1,,,,,,,,,,,,78,64,0
12240,note_on,0,0,1,,,,,,,,,,,,79,64,0
12480,note_off,240,0,1,,,,,,,,,,,,79,64,0
12480,note_on,0,0,1,,,,,,,,,,,,69,64,0
12720,note_off,240,0,1,,,,,,,,,,,,69,64,0
12720,note_on,0,0,1,,,,,,,,,,,,75,64,0
12960,note_off,240,0,1,,,,,,,,,,,,75,64,0
12960,note_on,0,0,1,,,,,,,,,,,,74,64,0
13200,note_off,240,0,1,,,,,,,,,,,,74,64,0
13200,note_on,0,0,1,,,,,,,,,,,,72,64,0
13440,note_off,240,0,1,,,,,,,,,,,,72,64,0
13440,note_on,0,0,1,,,,,,,,,,,,70,64,0
13560,note_off,120,0,1,,,,,,,,,,,,70,64,0
13560,note_on,0,0,1,,,,,,,,,,,,69,64,0
13680,note_off,120,0,1,,,,,,,,,,,,69,64,0
13680,note_on,0,0,1,,,,,,,,,,,,67,64,0
13800,note_off,120,0,1,,,,,,,,,,,,67,64,0
13800,note_on,0,0,1,,,,,,,,,,,,66,64,0
13920,note_off,120,0,1,,,,,,,,,,,,66,64,0
13920,note_on,13920,0,3,,,,,,,,,,,,43,64,0
13920,note_on,0,0,1,,,,,,,,,,,,67,64,0
14040,note_off,120,0,1,,,,,,,,,,,,67,64,0
14040,note_on,0,0,1,,,,,,,,,,,,79,64,0
14160,note_off,120,0,1,,,,,,,,,,,,79,64,0
14160,note_on,0,0,1,,,,,,,,,,,,77,64,0
14160,note_on,0,0,3,,,,,,,,,,,,45,64,0
14160,note_off,240,0,3,,,,,,,,,,,,43,64,0
14280,note_on,0,0,1,,,,,,,,,,,,75,64,0
14280,note_off,120,0,1,,,,,,,,,,,,77,64,0
14400,note_off,120,0,1,,,,,,,,,,,,75,64,0
14400,note_on,0,0,1,,,,,,,,,,,,74,64,0
14400,note_on,0,0,3,,,,,,,,,,,,46,64,0
14400,note_off,240,0,3,,,,,,,,,,,,45,64,0
14520,note_off,120,0,1,,,,,,,,,,,,74,64,0
14520,note_on,0,0,1,,,,,,,,,,,,72,64,0
14640,note_on,0,0,3,,,,,,,,,,,,48,64,0
14640,note_off,240,0,3,,,,,,,,,,,,46,64,0
14640,note_on,0,0,1,,,,,,,,,,,,70,64,0
14640,note_off,120,0,1,,,,,,,,,,,,72,64,0
14760,note_on,0,0,1,,,,,,,,,,,,69,64,0
14760,note_off,120,0,1,,,,,,,,,,,,70,64,0
14880,note_on,0,0,3,,,,,,,,,,,,50,64,0
14880,note_off,240,0,3,,,,,,,,,,,,48,64,0
14880,note_off,120,0,1,,,,,,,,,,,,69,64,0
14880,note_on,0,0,1,,,,,,,,,,,,67,64,0
15120,note_on,0,0,3,,,,,,,,,,,,51,64,0
15120,note_off,240,0,3,,,,,,,,,,,,50,64,0
15360,note_on,0,0,3,,,,,,,,,,,,42,64,0
15360,note_off,240,0,3,,,,,,,,,,,,51,64,0
15360,note_off,480,0,1,,,,,,,,,,,,67,64,0
15600,note_on,240,0,1,,,,,,,,,,,,69,64,0
15840,note_off,480,0,3,,,,,,,,,,,,42,64,0
15840,note_on,0,0,1,,,,,,,,,,,,70,64,0
15840,note_off,240,0,1,,,,,,,,,,,,69,64,0
16080,note_on,0,0,1,,,,,,,,,,,,72,64,0
16080,note_off,240,0,1,,,,,,,,,,,,70,64,0
16320,note_off,240,0,1,,,,,,,,,,,,72,64,0
16320,note_on,0,0,1,,,,,,,,,,,,74,64,0
16560,note_off,240,0,1,,,,,,,,,,,,74,64,0
16560,note_on,0,0,1,,,,,,,,,,,,77,64,0
16800,note_on,960,0,3,,,,,,,,,,,,50,64,0
16800,note_off,240,0,1,,,,,,,,,,,,77,64,0
16800,note_on,0,0,1,,,,,,,,,,,,76,64,0
17040,note_on,0,0,1,,,,,,,,,,,,79,64,0
17040,note_off,240,0,1,,,,,,,,,,,,76,64,0
17280,note_on,0,0,1,,,,,,,,,,,,77,64,0
17280,note_off,240,0,1,,,,,,,,,,,,79,64,0
17520,note_off,240,0,1,,,,,,,,,,,,77,64,0
17520,note_off,720,0,3,,,,,,,,,,,,50,64,0
17520,note_on,0,0,1,,,,,,,,,,,,76,64,0
17520,note_on,0,0,3,,,,,,,,,,,,49,64,0
17640,note_off,120,0,1,,,,,,,,,,,,76,64,0
17640,note_on,0,0,1,,,,,,,,,,,,74,64,0
17760,note_on,0,0,3,,,,,,,,,,,,45,64,0
17760,note_on,0,0,1,,,,,,,,,,,,73,64,0
17760,note_off,240,0,3,,,,,,,,,,,,49,64,0
17760,note_off,120,0,1,,,,,,,,,,,,74,64,0
18000,note_on,0,0,3,,,,,,,,,,,,47,64,0
18000,note_off,240,0,3,,,,,,,,,,,,45,64,0
18240,note_off,240,0,3,,,,,,,,,,,,47,64,0
18240,note_off,480,0,1,,,,,,,,,,,,73,64,0
18240,note_on,0,0,3,,,,,,,,,,,,48,64,0
18480,note_on,240,0,1,,,,,,,,,,,,75,64,0
18720,note_on,0,0,1,,,,,,,,,,,,74,64,0
18720,note_off,240,0,1,,,,,,,,,,,,75,64,0
18960,note_off,240,0,1,,,,,,,,,,,,74,64,0
18960,note_on,0,0,1,,,,,,,,,,,,77,64,0
19200,note_on,0,0,1,,,,,,,,,,,,75,64,0
19200,note_off,240,0,1,,,,,,,,,,,,77,64,0
19440,note_off,1200,0,3,,,,,,,,,,,,48,64,0
19440,note_on,0,0,3,,,,,,,,,,,,47,64,0
19440,note_off,240,0,1,,,,,,,,,,,,75,64,0
19440,note_on,0,0,1,,,,,,,,,,,,74,64,0
19560,note_on,0,0,1,,,,,,,,,,,,72,64,0
19560,note_off,120,0,1,,,,,,,,,,,,74,64,0
19680,note_on,0,0,1,,,,,,,,,,,,71,64,0
19680,note_off,120,0,1,,,,,,,,,,,,72,64,0
19680,note_off,240,0,3,,,,,,,,,,,,47,64,0
19680,note_on,0,0,3,,,,,,,,,,,,43,64,0
19920,note_off,240,0,3,,,,,,,,,,,,43,64,0
19920,note_on,0,0,3,,,,,,,,,,,,45,64,0
20160,note_off,480,0,1,,,,,,,,,,,,71,64,0
20160,note_off,240,0,3,,,,,,,,,,,,45,64,0
20160,note_on,0,0,3,,,,,,,,,,,,46,64,0
20400,note_on,240,0,1,,,,,,,,,,,,74,64,0
20640,note_on,0,0,1,,,,,,,,,,,,73,64,0
20640,note_off,240,0,1,,,,,,,,,,,,74,64,0
20880,note_on,0,0,1,,,,,,,,,,,,76,64,0
20880,note_off,240,0,1,,,,,,,,,,,,73,64,0
21120,note_on,0,0,1,,,,,,,,,,,,74,64,0
21120,note_off,240,0,1,,,,,,,,,,,,76,64,0
21360,note_off,240,0,1,,,,,,,,,,,,74,64,0
21360,note_off,1200,0,3,,,,,,,,,,,,46,64,0
21360,note_on,0,0,3,,,,,,,,,,,,45,64,0
21360,note_on,0,0,1,,,,,,,,,,,,72,64,0
21600,note_on,0,0,1,,,,,,,,,,,,71,64,0
21600,note_off,240,0,1,,,,,,,,,,,,72,64,0
21600,note_off,240,0,3,,,,,,,,,,,,45,64,0
21600,note_on,0,0,3,,,,,,,,,,,,44,64,0
21840,note_on,0,0,1,,,,,,,,,,,,74,64,0
21840,note_off,240,0,1,,,,,,,,,,,,71,64,0
21840,note_on,0,0,3,,,,,,,,,,,,45,64,0
21840,note_off,240,0,3,,,,,,,,,,,,44,64,0
22080,note_on,0,0,3,,,,,,,,,,,,44,64,0
22080,note_off,240,0,3,,,,,,,,,,,,45,64,0
22080,note_on,0,0,1,,,,,,,,,,,,72,64,0
22080,note_off,240,0,1,,,,,,,,,,,,74,64,0
22320,note_on,0,0,3,,,,,,,,,,,,43,64,0
22320,note_off,240,0,3,,,,,,,,,,,,44,64,0
22320,note_on,0,0,1,,,,,,,,,,,,71,64,0
22320,note_off,240,0,1,,,,,,,,,,,,72,64,0
22560,note_off,240,0,3,,,,,,,,,,,,43,64,0
22560,note_on,0,0,1,,,,,,,,,,,,72,64,0
22560,note_off,240,0,1,,,,,,,,,,,,71,64,0
22560,note_on,0,0,3,,,,,,,,,,,,42,64,0
22800,note_off,240,0,3,,,,,,,,,,,,42,64,0
22800,note_on,0,0,3,,,,,,,,,,,,43,64,0
23040,note_on,0,0,3,,,,,,,,,,,,42,64,0
23040,note_off,240,0,3,,,,,,,,,,,,43,64,0
23280,note_off,720,0,1,,,,,,,,,,,,72,64,0
23280,note_on,0,0,1,,,,,,,,,,,,67,64,0
23280,note_off,240,0,3,,,,,,,,,,,,42,64,0
23280,note_on,0,0,3,,,,,,,,,,,,40,64,0
23520,note_on,0,0,3,,,,,,,,,,,,38,64,0
23520,note_off,240,0,3,,,,,,,,,,,,40,64,0
23520,note_off,240,0,1,,,,,,,,,,,,67,64,0
23520,note_on,0,0,1,,,,,,,,,,,,66,64,0
23760,note_on,0,0,1,,,,,,,,,,,,67,64,0
23760,note_off,240,0,3,,,,,,,,,,,,38,64,0
23760,note_off,240,0,1,,,,,,,,,,,,66,64,0
23760,note_on,0,0,3,,,,,,,,,,,,39,64,0
24000,note_on,0,0,3,,,,,,,,,,,,38,64,0
24000,note_off,240,0,3,,,,,,,,,,,,39,64,0
24000,note_on,0,0,1,,,,,,,,,,,,69,64,0
24000,note_off,240,0,1,,,,,,,,,,,,67,64,0
24240,note_on,0,0,3,,,,,,,,,,,,42,64,0
24240,note_off,240,0,3,,,,,,,,,,,,38,64,0
24240,note_on,0,0,1,,,,,,,,,,,,62,64,0
24240,note_off,240,0,1,,,,,,,,,,,,69,64,0
24480,note_off,240,0,3,,,,,,,,,,,,42,64,0
24480,note_off,240,0,1,,,,,,,,,,,,62,64,0
24480,note_on,0,0,1,,,,,,,,,,,,74,64,0
24480,note_on,0,0,3,,,,,,,,,,,,45,64,0
24720,note_off,240,0,3,,,,,,,,,,,,45,64,0
24720,note_on,0,0,3,,,,,,,,,,,,48,64,0
24960,note_on,0,0,3,,,,,,,,,,,,46,64,0
24960,note_off,240,0,3,,,,,,,,,,,,48,64,0
25200,note_on,0,0,3,,,,,,,,,,,,50,64,0
25200,note_off,240,0,3,,,,,,,,,,,,46,64,0
25440,note_off,960,0,1,,,,,,,,,,,,74,64,0
25440,note_on,0,0,1,,,,,,,,,,,,72,64,0
25440,note_off,240,0,3,,,,,,,,,,,,50,64,0
25440,note_on,0,0,3,,,,,,,,,,,,54,64,0
25680,note_on,0,0,1,,,,,,,,,,,,70,64,0
25680,note_off,240,0,1,,,,,,,,,,,,72,64,0
25680,note_off,240,0,3,,,,,,,,,,,,54,64,0
25680,note_on,0,0,3,,,,,,,,,,,,55,64,0
25920,note_off,240,0,3,,,,,,,,,,,,55,64,0
25920,note_on,0,0,3,,,,,,,,,,,,45,64,0
25920,note_on,0,0,1,,,,,,,,,,,,72,64,0
25920,note_off,240,0,1,,,,,,,,,,,,70,64,0
26160,note_off,240,0,3,,,,,,,,,,,,45,64,0
26160,note_on,0,0,3,,,,,,,,,,,,51,64,0
26400,note_on,0,0,3,,,,,,,,,,,,50,64,0
26400,note_off,240,0,3,,,,,,,,,,,,51,64,0
26400,note_on,0,0,1,,,,,,,,,,,,70,64,0
26400,note_off,480,0,1,,,,,,,,,,,,72,64,0
26640,note_off,240,0,3,,,,,,,,,,,,50,64,0
26640,note_off,240,0,1,,,,,,,,,,,,70,64,0
26640,note_on,0,0,1,,,,,,,,,,,,69,64,0
26640,note_on,0,0,3,,,,,,,,,,,,48,64,0
26880,note_off,240,0,3,,,,,,,,,,,,48,64,0
26880,note_on,0,0,1,,,,,,,,,,,,70,64,0
26880,note_off,240,0,1,,,,,,,,,,,,69,64,0
26880,note_on,0,0,3,,,,,,,,,,,,46,64,0
27000,note_off,120,0,3,,,,,,,,,,,,46,64,0
27000,note_on,0,0,3,,,,,,,,,,,,45,64,0
27000,note_on,0,0,1,,,,,,,,,,,,72,64,0
27000,note_off,120,0,1,,,,,,,,,,,,70,64,0
27120,note_on,0,0,1,,,,,,,,,,,,70,64,0
27120,note_on,0,0,3,,,,,,,,,,,,43,64,0
27120,note_off,120,0,1,,,,,,,,,,,,72,64,0
27120,note_off,120,0,3,,,,,,,,,,,,45,64,0
27240,note_on,0,0,3,,,,,,,,,,,,42,64,0
27240,note_off,120,0,3,,,,,,,,,,,,43,64,0
27240,note_on,0,0,1,,,,,,,,,,,,69,64,0
27240,note_off,120,0,1,,,,,,,,,,,,70,64,0
27360,note_on,0,0,3,,,,,,,,,,,,43,64,0
27360,note_on,27360,0,2,,,,,,,,,,,,67,57,0
27360,note_on,0,0,1,,,,,,,,,,,,67,64,0
27360,note_off,120,0,3,,,,,,,,,,,,42,64,0
27360,note_off,120,0,1,,,,,,,,,,,,69,64,0
27480,note_off,120,0,3,,,,,,,,,,,,43,64,0
27480,note_on,0,0,3,,,,,,,,,,,,55,64,0
27600,note_on,0,0,2,,,,,,,,,,,,69,64,0
27600,note_off,240,0,2,,,,,,,,,,,,67,64,0
27600,note_on,0,0,3,,,,,,,,,,,,53,64,0
27600,note_off,120,0,3,,,,,,,,,,,,55,64,0
27720,note_off,120,0,3,,,,,,,,,,,,53,64,0
27720,note_on,0,0,3,,,,,,,,,,,,51,64,0
27840,note_off,120,0,3,,,,,,,,,,,,51,64,0
27840,note_on,0,0,3,,,,,,,,,,,,50,64,0
27840,note_off,240,0,2,,,,,,,,,,,,69,64,0
27840,note_on,0,0,2,,,,,,,,,,,,70,64,0
27960,note_off,120,0,3,,,,,,,,,,,,50,64,0
27960,note_on,0,0,3,,,,,,,,,,,,48,64,0
28080,note_off,120,0,3,,,,,,,,,,,,48,64,0
28080,note_on,0,0,2,,,,,,,,,,,,72,64,0
28080,note_off,720,0,1,,,,,,,,,,,,67,64,0
28080,note_on,0,0,3,,,,,,,,,,,,46,64,0
28080,note_off,240,0,2,,,,,,,,,,,,70,64,0
28080,note_on,0,0,1,,,,,,,,,,,,69,64,0
28200,note_off,120,0,3,,,,,,,,,,,,46,64,0
28200,note_on,0,0,3,,,,,,,,,,,,45,64,0
28320,note_off,120,0,3,,,,,,,,,,,,45,64,0
28320,note_on,0,0,2,,,,,,,,,,,,74,64,0
28320,note_on,0,0,3,,,,,,,,,,,,43,64,0
28320,note_on,0,0,1,,,,,,,,,,,,70,64,0
28320,note_off,240,0,1,,,,,,,,,,,,69,64,0
28320,note_off,240,0,2,,,,,,,,,,,,72,64,0
28560,note_on,0,0,1,,,,,,,,,,,,72,64,0
28560,note_off,240,0,1,,,,,,,,,,,,70,64,0
28560,note_on,0,0,2,,,,,,,,,,,,75,64,0
28560,note_off,240,0,2,,,,,,,,,,,,74,64,0
28800,note_off,240,0,2,,,,,,,,,,,,75,64,0
28800,note_on,0,0,2,,,,,,,,,,,,66,64,0
28800,note_on,0,0,1,,,,,,,,,,,,74,64,0
28800,note_off,240,0,1,,,,,,,,,,,,72,64,0
28800,note_off,480,0,3,,,,,,,,,,,,43,64,0
29040,note_on,240,0,3,,,,,,,,,,,,45,64,0
29040,note_off,240,0,1,,,,,,,,,,,,74,64,0
29040,note_on,0,0,1,,,,,,,,,,,,75,64,0
29280,note_on,0,0,1,,,,,,,,,,,,74,64,0
29280,note_off,240,0,1,,,,,,,,,,,,75,64,0
29280,note_on,0,0,3,,,,,,,,,,,,46,64,0
29280,note_off,240,0,3,,,,,,,,,,,,45,64,0
29280,note_off,480,0,2,,,,,,,,,,,,66,64,0
29520,note_on,0,0,1,,,,,,,,,,,,72,64,0
29520,note_off,240,0,1,,,,,,,,,,,,74,64,0
29520,note_off,240,0,3,,,,,,,,,,,,46,64,0
29520,note_on,0,0,3,,,,,,,,,,,,48,64,0
29760,note_off,240,0,3,,,,,,,,,,,,48,64,0
29760,note_on,0,0,1,,,,,,,,,,,,70,64,0
29760,note_off,240,0,1,,,,,,,,,,,,72,64,0
29760,note_on,0,0,3,,,,,,,,,,,,50,64,0
30000,note_on,0,0,1,,,,,,,,,,,,69,64,0
30000,note_on,0,0,3,,,,,,,,,,,,53,64,0
30000,note_off,240,0,1,,,,,,,,,,,,70,64,0
30000,note_off,240,0,3,,,,,,,,,,,,50,64,0
30240,note_off,240,0,1,,,,,,,,,,,,69,64,0
30240,note_on,0,0,3,,,,,,,,,,,,52,64,0
30240,note_on,960,0,2,,,,,,,,,,,,74,64,0
30240,note_on,0,0,1,,,,,,,,,,,,67,64,0
30240,note_off,240,0,3,,,,,,,,,,,,53,64,0
30480,note_off,240,0,1,,,,,,,,,,,,67,64,0
30480,note_on,0,0,1,,,,,,,,,,,,70,64,0
30480,note_on,0,0,3,,,,,,,,,,,,55,64,0
30480,note_off,240,0,3,,,,,,,,,,,,52,64,0
30720,note_on,0,0,3,,,,,,,,,,,,53,64,0
30720,note_on,0,0,1,,,,,,,,,,,,69,64,0
30720,note_off,240,0,1,,,,,,,,,,,,70,64,0
30720,note_off,240,0,3,,,,,,,,,,,,55,64,0
30960,note_off,240,0,3,,,,,,,,,,,,53,64,0
30960,note_on,0,0,3,,,,,,,,,,,,52,64,0
30960,note_on,0,0,2,,,,,,,,,,,,73,64,0
30960,note_off,720,0,2,,,,,,,,,,,,74,64,0
31080,note_on,0,0,3,,,,,,,,,,,,50,64,0
31080,note_off,120,0,3,,,,,,,,,,,,52,64,0
31200,note_on,0,0,3,,,,,,,,,,,,49,64,0
31200,note_off,120,0,3,,,,,,,,,,,,50,64,0
31200,note_off,240,0,2,,,,,,,,,,,,73,64,0
31200,note_on,0,0,2,,,,,,,,,,,,69,64,0
31440,note_off,240,0,2,,,,,,,,,,,,69,64,0
31440,note_on,0,0,2,,,,,,,,,,,,71,64,0
31680,note_off,480,0,3,,,,,,,,,,,,49,64,0
31680,note_on,0,0,2,,,,,,,,,,,,72,64,0
31680,note_off,240,0,2,,,,,,,,,,,,71,64,0
31920,note_on,240,0,3,,,,,,,,,,,,51,64,0
31920,note_on,0,0,1,,,,,,,,,,,,67,64,0
31920,note_off,1200,0,1,,,,,,,,,,,,69,64,0
32160,note_on,0,0,1,,,,,,,,,,,,66,64,0
32160,note_off,240,0,1,,,,,,,,,,,,67,64,0
32160,note_off,240,0,3,,,,,,,,,,,,51,64,0
32160,note_on,0,0,3,,,,,,,,,,,,50,64,0
32400,note_off,240,0,3,,,,,,,,,,,,50,64,0
32400,note_on,0,0,1,,,,,,,,,,,,69,64,0
32400,note_off,240,0,1,,,,,,,,,,,,66,64,0
32400,note_on,0,0,3,,,,,,,,,,,,53,64,0
32640,note_on,0,0,1,,,,,,,,,,,,67,64,0
32640,note_off,240,0,1,,,,,,,,,,,,69,64,0
32640,note_on,0,0,3,,,,,,,,,,,,51,64,0
32640,note_off,240,0,3,,,,,,,,,,,,53,64,0
32880,note_off,240,0,3,,,,,,,,,,,,51,64,0
32880,note_on,0,0,3,,,,,,,,,,,,50,64,0
32880,note_on,0,0,2,,,,,,,,,,,,71,64,0
32880,note_off,1200,0,2,,,,,,,,,,,,72,64,0
33000,note_off,120,0,3,,,,,,,,,,,,50,64,0
33000,note_on,0,0,3,,,,,,,,,,,,48,64,0
33120,note_off,120,0,3,,,,,,,,,,,,48,64,0
33120,note_on,0,0,3,,,,,,,,,,,,47,64,0
33120,note_on,0,0,2,,,,,,,,,,,,67,64,0
33120,note_off,240,0,2,,,,,,,,,,,,71,64,0
33360,note_off,240,0,2,,,,,,,,,,,,67,64,0
33360,note_on,0,0,2,,,,,,,,,,,,69,64,0
33600,note_on,0,0,2,,,,,,,,,,,,70,64,0
33600,note_off,240,0,2,,,,,,,,,,,,69,64,0
33600,note_off,480,0,3,,,,,,,,,,,,47,64,0
33840,note_off,1200,0,1,,,,,,,,,,,,67,64,0
33840,note_on,0,0,1,,,,,,,,,,,,65,64,0
33840,note_on,240,0,3,,,,,,,,,,,,50,64,0
34080,note_off,240,0,3,,,,,,,,,,,,50,64,0
34080,note_off,240,0,1,,,,,,,,,,,,65,64,0
34080,note_on,0,0,1,,,,,,,,,,,,64,64,0
34080,note_on,0,0,3,,,,,,,,,,,,49,64,0
34320,note_off,240,0,1,,,,,,,,,,,,64,64,0
34320,note_on,0,0,1,,,,,,,,,,,,67,64,0
34320,note_off,240,0,3,,,,,,,,,,,,49,64,0
34320,note_on,0,0,3,,,,,,,,,,,,52,64,0
34560,note_off,240,0,1,,,,,,,,,,,,67,64,0
34560,note_on,0,0,3,,,,,,,,,,,,50,64,0
34560,note_on,0,0,1,,,,,,,,,,,,65,64,0
34560,note_off,240,0,3,,,,,,,,,,,,52,64,0
34800,note_off,240,0,3,,,,,,,,,,,,50,64,0
34800,note_on,0,0,2,,,,,,,,,,,,69,64,0
34800,note_off,1200,0,2,,,,,,,,,,,,70,64,0
34800,note_on,0,0,3,,,,,,,,,,,,48,64,0
35040,note_off,240,0,2,,,,,,,,,,,,69,64,0
35040,note_off,480,0,1,,,,,,,,,,,,65,64,0
35040,note_on,0,0,2,,,,,,,,,,,,68,64,0
35040,note_on,0,0,3,,,,,,,,,,,,47,64,0
35040,note_off,240,0,3,,,,,,,,,,,,48,64,0
35280,note_off,240,0,3,,,,,,,,,,,,47,64,0
35280,note_on,240,0,1,,,,,,,,,,,,65,64,0
35280,note_on,0,0,3,,,,,,,,,,,,50,64,0
35280,note_on,0,0,2,,,,,,,,,,,,69,64,0
35280,note_off,240,0,2,,,,,,,,,,,,68,64,0
35520,note_off,240,0,2,,,,,,,,,,,,69,64,0
35520,note_off,240,0,3,,,,,,,,,,,,50,64,0
35520,note_on,0,0,1,,,,,,,,,,,,72,64,0
35520,note_off,240,0,1,,,,,,,,,,,,65,64,0
35520,note_on,0,0,3,,,,,,,,,,,,48,64,0
35520,note_on,0,0,2,,,,,,,,,,,,68,64,0
35760,note_on,0,0,2,,,,,,,,,,,,67,64,0
35760,note_off,240,0,2,,,,,,,,,,,,68,64,0
35760,note_on,0,0,3,,,,,,,,,,,,47,64,0
35760,note_off,240,0,3,,,,,,,,,,,,48,64,0
36000,note_on,0,0,3,,,,,,,,,,,,48,64,0
36000,note_off,240,0,3,,,,,,,,,,,,47,64,0
36000,note_off,480,0,1,,,,,,,,,,,,72,64,0
36000,note_off,240,0,2,,,,,,,,,,,,67,64,0
36000,note_on,0,0,2,,,,,,,,,,,,66,64,0
36240,note_on,240,0,1,,,,,,,,,,,,75,64,0
36240,note_off,240,0,2,,,,,,,,,,,,66,64,0
36240,note_on,0,0,2,,,,,,,,,,,,67,64,0
36480,note_on,0,0,2,,,,,,,,,,,,66,64,0
36480,note_on,0,0,1,,,,,,,,,,,,74,64,0
36480,note_off,240,0,1,,,,,,,,,,,,75,64,0
36480,note_off,240,0,2,,,,,,,,,,,,67,64,0
36720,note_on,0,0,3,,,,,,,,,,,,43,64,0
36720,note_off,720,0,3,,,,,,,,,,,,48,64,0
36720,note_off,240,0,2,,,,,,,,,,,,66,64,0
36720,note_on,0,0,2,,,,,,,,,,,,64,64,0
36960,note_off,240,0,3,,,,,,,,,,,,43,64,0
36960,note_on,0,0,3,,,,,,,,,,,,42,64,0
36960,note_off,480,0,1,,,,,,,,,,,,74,64,0
36960,note_on,0,0,2,,,,,,,,,,,,62,64,0
36960,note_off,240,0,2,,,,,,,,,,,,64,64,0
37200,note_off,240,0,3,,,,,,,,,,,,42,64,0
37200,note_on,0,0,3,,,,,,,,,,,,43,64,0
37200,note_on,0,0,2,,,,,,,,,,,,63,64,0
37200,note_off,240,0,2,,,,,,,,,,,,62,64,0
37200,note_on,240,0,1,,,,,,,,,,,,67,64,0
37440,note_off,240,0,2,,,,,,,,,,,,63,64,0
37440,note_on,0,0,1,,,,,,,,,,,,66,64,0
37440,note_off,240,0,1,,,,,,,,,,,,67,64,0
37440,note_on,0,0,3,,,,,,,,,,,,45,64,0
37440,note_off,240,0,3,,,,,,,,,,,,43,64,0
37440,note_on,0,0,2,,,,,,,,,,,,62,64,0
37680,note_on,0,0,3,,,,,,,,,,,,38,64,0
37680,note_off,240,0,3,,,,,,,,,,,,45,64,0
37680,note_on,0,0,2,,,,,,,,,,,,66,64,0
37680,note_off,240,0,2,,,,,,,,,,,,62,64,0
37920,note_off,240,0,2,,,,,,,,,,,,66,64,0
37920,note_on,0,0,3,,,,,,,,,,,,50,64,0
37920,note_off,240,0,3,,,,,,,,,,,,38,64,0
37920,note_on,0,0,2,,,,,,,,,,,,69,64,0
37920,note_off,480,0,1,,,,,,,,,,,,66,64,0
38160,note_off,240,0,2,,,,,,,,,,,,69,64,0
38160,note_on,0,0,2,,,,,,,,,,,,72,64,0
38160,note_on,240,0,1,,,,,,,,,,,,62,64,0
38400,note_off,240,0,2,,,,,,,,,,,,72,64,0
38400,note_on,0,0,2,,,,,,,,,,,,70,64,0
38400,note_on,0,0,1,,,,,,,,,,,,67,64,0
38400,note_off,240,0,1,,,,,,,,,,,,62,64,0
38640,note_off,240,0,2,,,,,,,,,,,,70,64,0
38640,note_on,0,0,2,,,,,,,,,,,,74,64,0
38880,note_off,240,0,2,,,,,,,,,,,,74,64,0
38880,note_on,0,0,2,,,,,,,,,,,,78,64,0
38880,note_on,0,0,3,,,,,,,,,,,,48,64,0
38880,note_off,480,0,1,,,,,,,,,,,,67,64,0
38880,note_on,0,0,1,,,,,,,,,,,,63,64,0
38880,note_off,960,0,3,,,,,,,,,,,,50,64,0
39120,note_off,240,0,3,,,,,,,,,,,,48,64,0
39120,note_on,0,0,3,,,,,,,,,,,,46,64,0
39120,note_off,240,0,2,,,,,,,,,,,,78,64,0
39120,note_on,0,0,2,,,,,,,,,,,,79,64,0
39360,note_off,480,0,1,,,,,,,,,,,,63,64,0
39360,note_on,0,0,1,,,,,,,,,,,,60,64,0
39360,note_off,240,0,2,,,,,,,,,,,,79,64,0
39360,note_on,0,0,2,,,,,,,,,,,,69,64,0
39360,note_off,240,0,3,,,,,,,,,,,,46,64,0
39360,note_on,0,0,3,,,,,,,,,,,,48,64,0
39600,note_off,240,0,2,,,,,,,,,,,,69,64,0
39600,note_on,0,0,2,,,,,,,,,,,,75,64,0
39840,note_on,0,0,1,,,,,,,,,,,,62,64,0
39840,note_off,240,0,2,,,,,,,,,,,,75,64,0
39840,note_on,0,0,2,,,,,,,,,,,,74,64,0
39840,note_off,480,0,3,,,,,,,,,,,,48,64,0
39840,note_on,0,0,3,,,,,,,,,,,,46,64,0
39840,note_off,480,0,1,,,,,,,,,,,,60,64,0
40080,note_off,240,0,3,,,,,,,,,,,,46,64,0
40080,note_on,0,0,3,,,,,,,,,,,,45,64,0
40080,note_off,240,0,2,,,,,,,,,,,,74,64,0
40080,note_on,0,0,2,,,,,,,,,,,,72,64,0
40320,note_off,240,0,3,,,,,,,,,,,,45,64,0
40320,note_off,480,0,1,,,,,,,,,,,,62,64,0
40320,note_off,240,0,2,,,,,,,,,,,,72,64,0
40320,note_on,0,0,2,,,,,,,,,,,,70,64,0
40320,note_on,0,0,1,,,,,,,,,,,,67,64,0
40320,note_on,0,0,3,,,,,,,,,,,,46,64,0
40440,note_off,120,0,2,,,,,,,,,,,,70,64,0
40440,note_on,0,0,2,,,,,,,,,,,,69,64,0
40440,note_off,120,0,3,,,,,,,,,,,,46,64,0
40440,note_on,0,0,3,,,,,,,,,,,,48,64,0
40560,note_on,0,0,3,,,,,,,,,,,,46,64,0
40560,note_on,0,0,2,,,,,,,,,,,,67,64,0
40560,note_on,0,0,1,,,,,,,,,,,,79,64,0
40560,note_off,240,0,1,,,,,,,,,,,,67,64,0
40560,note_off,120,0,2,,,,,,,,,,,,69,64,0
40560,note_off,120,0,3,,,,,,,,,,,,48,64,0
40680,note_on,0,0,2,,,,,,,,,,,,66,64,0
40680,note_off,120,0,2,,,,,,,,,,,,67,64,0
40680,note_off,120,0,3,,,,,,,,,,,,46,64,0
40680,note_on,0,0,3,,,,,,,,,,,,45,64,0
40680,note_off,120,0,1,,,,,,,,,,,,79,64,0
40680,note_on,0,0,1,,,,,,,,,,,,81,64,0
40800,note_on,0,0,3,,,,,,,,,,,,43,64,0
40800,note_on,40800,0,4,,,,,,,,,,,,43,64,0
40800,note_off,120,0,1,,,,,,,,,,,,81,64,0
40800,note_off,120,0,2,,,,,,,,,,,,66,64,0
40800,note_on,0,0,2,,,,,,,,,,,,67,64,0
40800,note_off,120,0,3,,,,,,,,,,,,45,64,0
40800,note_on,0,0,1,,,,,,,,,,,,82,64,0
40920,note_off,120,0,2,,,,,,,,,,,,67,64,0
40920,note_on,0,0,2,,,,,,,,,,,,79,64,0
41040,note_on,0,0,2,,,,,,,,,,,,77,64,0
41040,note_on,0,0,1,,,,,,,,,,,,84,64,0
41040,note_off,240,0,1,,,,,,,,,,,,82,64,0
41040,note_off,120,0,2,,,,,,,,,,,,79,64,0
41040,note_off,240,0,4,,,,,,,,,,,,43,64,0
41040,note_on,0,0,4,,,,,,,,,,,,45,64,0
41160,note_on,0,0,2,,,,,,,,,,,,75,64,0
41160,note_off,120,0,2,,,,,,,,,,,,77,64,0
41280,note_on,0,0,2,,,,,,,,,,,,74,64,0
41280,note_off,120,0,2,,,,,,,,,,,,75,64,0
41280,note_off,240,0,1,,,,,,,,,,,,84,64,0
41280,note_on,0,0,4,,,,,,,,,,,,46,64,0
41280,note_on,0,0,1,,,,,,,,,,,,86,64,0
41280,note_off,240,0,4,,,,,,,,,,,,45,64,0
41400,note_on,0,0,2,,,,,,,,,,,,72,64,0
41400,note_off,120,0,2,,,,,,,,,,,,74,64,0
41520,note_on,0,0,2,,,,,,,,,,,,70,64,0
41520,note_off,720,0,3,,,,,,,,,,,,43,64,0
41520,note_off,240,0,4,,,,,,,,,,,,46,64,0
41520,note_on,0,0,3,,,,,,,,,,,,45,64,0
41520,note_on,0,0,4,,,,,,,,,,,,48,64,0
41520,note_off,120,0,2,,,,,,,,,,,,72,64,0
41640,note_off,120,0,2,,,,,,,,,,,,70,64,0
41640,note_on,0,0,2,,,,,,,,,,,,69,64,0
41760,note_off,120,0,2,,,,,,,,,,,,69,64,0
41760,note_on,0,0,2,,,,,,,,,,,,67,64,0
41760,note_on,0,0,4,,,,,,,,,,,,50,64,0
41760,note_off,240,0,4,,,,,,,,,,,,48,64,0
41760,note_off,240,0,3,,,,,,,,,,,,45,64,0
41760,note_on,0,0,3,,,,,,,,,,,,46,64,0
42000,note_on,0,0,3,,,,,,,,,,,,48,64,0
42000,note_off,240,0,3,,,,,,,,,,,,46,64,0
42000,note_on,0,0,4,,,,,,,,,,,,51,64,0
42000,note_on,0,0,1,,,,,,,,,,,,84,64,0
42000,note_off,240,0,4,,,,,,,,,,,,50,64,0
42000,note_off,720,0,1,,,,,,,,,,,,86,64,0
42120,note_on,0,0,1,,,,,,,,,,,,82,64,0
42120,note_off,120,0,1,,,,,,,,,,,,84,64,0
42240,note_off,120,0,1,,,,,,,,,,,,82,64,0
42240,note_on,0,0,1,,,,,,,,,,,,81,64,0
42240,note_off,240,0,4,,,,,,,,,,,,51,64,0
42240,note_on,0,0,3,,,,,,,,,,,,50,64,0
42240,note_off,240,0,3,,,,,,,,,,,,48,64,0
42240,note_off,480,0,2,,,,,,,,,,,,67,64,0
42240,note_on,0,0,4,,,,,,,,,,,,42,64,0
42480,note_on,0,0,3,,,,,,,,,,,,51,64,0
42480,note_on,0,0,1,,,,,,,,,,,,78,64,0
42480,note_off,240,0,1,,,,,,,,,,,,81,64,0
42480,note_off,240,0,3,,,,,,,,,,,,50,64,0
42480,note_on,240,0,2,,,,,,,,,,,,69,64,0
42720,note_off,240,0,2,,,,,,,,,,,,69,64,0
42720,note_on,0,0,3,,,,,,,,,,,,50,64,0
42720,note_off,240,0,1,,,,,,,,,,,,78,64,0
42720,note_on,0,0,1,,,,,,,,,,,,79,64,0
42720,note_off,240,0,3,,,,,,,,,,,,51,64,0
42720,note_off,480,0,4,,,,,,,,,,,,42,64,0
42720,note_on,0,0,2,,,,,,,,,,,,70,64,0
42960,note_on,0,0,3,,,,,,,,,,,,48,64,0
42960,note_off,240,0,3,,,,,,,,,,,,50,64,0
42960,note_on,0,0,2,,,,,,,,,,,,72,64,0
42960,note_off,240,0,2,,,,,,,,,,,,70,64,0
42960,note_off,240,0,1,,,,,,,,,,,,79,64,0
42960,note_on,0,0,1,,,,,,,,,,,,81,64,0
43200,note_on,0,0,3,,,,,,,,,,,,46,64,0
43200,note_off,240,0,3,,,,,,,,,,,,48,64,0
43200,note_on,0,0,1,,,,,,,,,,,,74,64,0
43200,note_off,240,0,1,,,,,,,,,,,,81,64,0
43200,note_off,240,0,2,,,,,,,,,,,,72,64,0
43200,note_on,0,0,2,,,,,,,,,,,,74,64,0
43440,note_off,240,0,2,,,,,,,,,,,,74,64,0
43440,note_on,0,0,2,,,,,,,,,,,,77,64,0
43440,note_off,240,0,3,,,,,,,,,,,,46,64,0
43440,note_on,0,0,3,,,,,,,,,,,,45,64,0
43680,note_on,0,0,2,,,,,,,,,,,,76,64,0
43680,note_off,480,0,1,,,,,,,,,,,,74,64,0
43680,note_on,960,0,4,,,,,,,,,,,,50,64,0
43680,note_off,240,0,2,,,,,,,,,,,,77,64,0
43680,note_off,240,0,3,,,,,,,,,,,,45,64,0
43680,note_on,0,0,3,,,,,,,,,,,,43,64,0
43920,note_on,0,0,2,,,,,,,,,,,,79,64,0
43920,note_off,240,0,2,,,,,,,,,,,,76,64,0
43920,note_off,240,0,3,,,,,,,,,,,,43,64,0
43920,note_on,0,0,3,,,,,,,,,,,,46,64,0
44160,note_off,240,0,2,,,,,,,,,,,,79,64,0
44160,note_on,0,0,2,,,,,,,,,,,,77,64,0
44160,note_on,0,0,3,,,,,,,,,,,,45,64,0
44160,note_off,240,0,3,,,,,,,,,,,,46,64,0
44400,note_off,720,0,4,,,,,,,,,,,,50,64,0
44400,note_off,240,0,2,,,,,,,,,,,,77,64,0
44400,note_on,720,0,1,,,,,,,,,,,,76,64,0
44400,note_on,0,0,2,,,,,,,,,,,,76,64,0
44400,note_on,0,0,4,,,,,,,,,,,,49,64,0
44520,note_on,0,0,2,,,,,,,,,,,,74,64,0
44520,note_off,120,0,2,,,,,,,,,,,,76,64,0
44640,note_on,0,0,4,,,,,,,,,,,,45,64,0
44640,note_on,0,0,1,,,,,,,,,,,,77,64,0
44640,note_off,120,0,2,,,,,,,,,,,,74,64,0
44640,note_on,0,0,2,,,,,,,,,,,,73,64,0
44640,note_off,240,0,4,,,,,,,,,,,,49,64,0
44640,note_off,240,0,1,,,,,,,,,,,,76,64,0
44880,note_on,0,0,1,,,,,,,,,,,,79,64,0
44880,note_off,240,0,1,,,,,,,,,,,,77,64,0
44880,note_on,0,0,4,,,,,,,,,,,,47,64,0
44880,note_off,240,0,4,,,,,,,,,,,,45,64,0
45120,note_off,480,0,2,,,,,,,,,,,,73,64,0
45120,note_off,240,0,1,,,,,,,,,,,,79,64,0
45120,note_on,0,0,1,,,,,,,,,,,,81,64,0
45120,note_on,0,0,4,,,,,,,,,,,,48,64,0
45120,note_off,240,0,4,,,,,,,,,,,,47,64,0
45360,note_on,240,0,2,,,,,,,,,,,,75,64,0
45360,note_off,1200,0,3,,,,,,,,,,,,45,64,0
45360,note_on,0,0,3,,,,,,,,,,,,43,64,0
45600,note_on,0,0,3,,,,,,,,,,,,42,64,0
45600,note_off,240,0,3,,,,,,,,,,,,43,64,0
45600,note_on,0,0,2,,,,,,,,,,,,74,64,0
45600,note_off,240,0,2,,,,,,,,,,,,75,64,0
45840,note_off,240,0,3,,,,,,,,,,,,42,64,0
45840,note_on,0,0,3,,,,,,,,,,,,45,64,0
45840,note_off,240,0,2,,,,,,,,,,,,74,64,0
45840,note_on,0,0,2,,,,,,,,,,,,77,64,0
46080,note_on,0,0,3,,,,,,,,,,,,43,64,0
46080,note_off,240,0,3,,,,,,,,,,,,45,64,0
46080,note_off,240,0,2,,,,,,,,,,,,77,64,0
46080,note_on,0,0,2,,,,,,,,,,,,75,64,0
46080,note_off,960,0,1,,,,,,,,,,,,81,64,0
46320,note_on,0,0,4,,,,,,,,,,,,47,64,0
46320,note_on,240,0,1,,,,,,,,,,,,74,64,0
46320,note_on,0,0,2,,,,,,,,,,,,74,64,0
46320,note_off,1200,0,4,,,,,,,,,,,,48,64,0
46320,note_off,240,0,2,,,,,,,,,,,,75,64,0
46440,note_off,120,0,2,,,,,,,,,,,,74,64,0
46440,note_on,0,0,2,,,,,,,,,,,,72,64,0
46560,note_off,120,0,2,,,,,,,,,,,,72,64,0
46560,note_on,0,0,4,,,,,,,,,,,,43,64,0
46560,note_off,240,0,4,,,,,,,,,,,,47,64,0
46560,note_on,0,0,2,,,,,,,,,,,,71,64,0
46560,note_on,0,0,1,,,,,,,,,,,,76,64,0
46560,note_off,240,0,1,,,,,,,,,,,,74,64,0
46800,note_on,0,0,4,,,,,,,,,,,,45,64,0
46800,note_off,240,0,1,,,,,,,,,,,,76,64,0
46800,note_on,0,0,1,,,,,,,,,,,,78,64,0
46800,note_off,240,0,4,,,,,,,,,,,,43,64,0
47040,note_on,0,0,4,,,,,,,,,,,,46,64,0
47040,note_on,0,0,1,,,,,,,,,,,,79,64,0
47040,note_off,240,0,1,,,,,,,,,,,,78,64,0
47040,note_off,480,0,2,,,,,,,,,,,,71,64,0
47040,note_off,240,0,4,,,,,,,,,,,,45,64,0
47280,note_on,240,0,2,,,,,,,,,,,,74,64,0
47280,note_off,1200,0,3,,,,,,,,,,,,43,64,0
47280,note_on,0,0,3,,,,,,,,,,,,41,64,0
47520,note_on,0,0,2,,,,,,,,,,,,73,64,0
47520,note_off,240,0,3,,,,,,,,,,,,41,64,0
47520,note_on,0,0,3,,,,,,,,,,,,40,64,0
47520,note_off,240,0,2,,,,,,,,,,,,74,64,0
47760,note_on,0,0,2,,,,,,,,,,,,76,64,0
47760,note_off,240,0,3,,,,,,,,,,,,40,64,0
47760,note_on,0,0,3,,,,,,,,,,,,43,64,0
47760,note_off,240,0,2,,,,,,,,,,,,73,64,0
48000,note_off,240,0,3,,,,,,,,,,,,43,64,0
48000,note_on,0,0,3,,,,,,,,,,,,41,64,0
48000,note_on,0,0,2,,,,,,,,,,,,74,64,0
48000,note_off,240,0,2,,,,,,,,,,,,76,64,0
48000,note_off,960,0,1,,,,,,,,,,,,79,64,0
48240,note_off,240,0,2,,,,,,,,,,,,74,64,0
48240,note_off,1200,0,4,,,,,,,,,,,,46,64,0
48240,note_on,0,0,4,,,,,,,,,,,,45,64,0
48240,note_on,0,0,2,,,,,,,,,,,,72,64,0
48480,note_off,240,0,4,,,,,,,,,,,,45,64,0
48480,note_on,0,0,4,,,,,,,,,,,,44,64,0
48480,note_off,240,0,2,,,,,,,,,,,,72,64,0
48480,note_on,0,0,2,,,,,,,,,,,,71,64,0
48480,note_off,480,0,3,,,,,,,,,,,,41,64,0
48480,note_on,480,0,1,,,,,,,,,,,,74,64,0
48720,note_off,240,0,2,,,,,,,,,,,,71,64,0
48720,note_on,0,0,2,,,,,,,,,,,,74,64,0
48720,note_on,0,0,4,,,,,,,,,,,,45,64,0
48720,note_off,240,0,4,,,,,,,,,,,,44,64,0
48720,note_on,240,0,3,,,,,,,,,,,,41,64,0
48960,note_off,480,0,1,,,,,,,,,,,,74,64,0
48960,note_on,0,0,1,,,,,,,,,,,,75,64,0
48960,note_on,0,0,3,,,,,,,,,,,,48,64,0
48960,note_on,0,0,2,,,,,,,,,,,,72,64,0
48960,note_off,240,0,3,,,,,,,,,,,,41,64,0
48960,note_on,0,0,4,,,,,,,,,,,,44,64,0
48960,note_off,240,0,2,,,,,,,,,,,,74,64,0
48960,note_off,240,0,4,,,,,,,,,,,,45,64,0
49200,note_off,240,0,2,,,,,,,,,,,,72,64,0
49200,note_on,0,0,2,,,,,,,,,,,,71,64,0
49200,note_on,0,0,4,,,,,,,,,,,,43,64,0
49200,note_off,240,0,4,,,,,,,,,,,,44,64,0
49440,note_on,0,0,2,,,,,,,,,,,,72,64,0
49440,note_on,0,0,1,,,,,,,,,,,,69,64,0
49440,note_off,240,0,2,,,,,,,,,,,,71,64,0
49440,note_off,480,0,3,,,,,,,,,,,,48,64,0
49440,note_on,0,0,4,,,,,,,,,,,,42,64,0
49440,note_off,240,0,4,,,,,,,,,,,,43,64,0
49440,note_off,480,0,1,,,,,,,,,,,,75,64,0
49680,note_on,240,0,3,,,,,,,,,,,,51,64,0
49680,note_on,0,0,4,,,,,,,,,,,,43,64,0
49680,note_off,240,0,4,,,,,,,,,,,,42,64,0
49920,note_off,240,0,3,,,,,,,,,,,,51,64,0
49920,note_on,0,0,3,,,,,,,,,,,,50,64,0
49920,note_on,0,0,4,,,,,,,,,,,,42,64,0
49920,note_off,240,0,4,,,,,,,,,,,,43,64,0
49920,note_off,480,0,1,,,,,,,,,,,,69,64,0
49920,note_on,0,0,1,,,,,,,,,,,,81,64,0
50040,note_on,0,0,1,,,,,,,,,,,,82,64,0
50040,note_off,120,0,1,,,,,,,,,,,,81,64,0
50160,note_off,240,0,4,,,,,,,,,,,,42,64,0
50160,note_on,0,0,2,,,,,,,,,,,,67,64,0
50160,note_on,0,0,1,,,,,,,,,,,,84,64,0
50160,note_off,120,0,1,,,,,,,,,,,,82,64,0
50160,note_on,0,0,4,,,,,,,,,,,,40,64,0
50160,note_off,720,0,2,,,,,,,,,,,,72,64,0
50400,note_on,0,0,2,,,,,,,,,,,,66,64,0
50400,note_off,240,0,2,,,,,,,,,,,,67,64,0
50400,note_off,240,0,4,,,,,,,,,,,,40,64,0
50400,note_on,0,0,4,,,,,,,,,,,,38,64,0
50400,note_off,480,0,3,,,,,,,,,,,,50,64,0
50640,note_on,240,0,3,,,,,,,,,,,,43,64,0
50640,note_off,240,0,2,,,,,,,,,,,,66,64,0
50640,note_on,0,0,2,,,,,,,,,,,,67,64,0
50640,note_on,0,0,4,,,,,,,,,,,,39,64,0
50640,note_on,0,0,1,,,,,,,,,,,,82,64,0
50640,note_off,480,0,1,,,,,,,,,,,,84,64,0
50640,note_off,240,0,4,,,,,,,,,,,,38,64,0
50880,note_on,0,0,3,,,,,,,,,,,,42,64,0
50880,note_off,240,0,2,,,,,,,,,,,,67,64,0
50880,note_on,0,0,2,,,,,,,,,,,,69,64,0
50880,note_on,0,0,1,,,,,,,,,,,,84,64,0
50880,note_off,240,0,1,,,,,,,,,,,,82,64,0
50880,note_off,240,0,4,,,,,,,,,,,,39,64,0
50880,note_on,0,0,4,,,,,,,,,,,,38,64,0
50880,note_off,240,0,3,,,,,,,,,,,,43,64,0
51120,note_on,0,0,2,,,,,,,,,,,,62,64,0
51120,note_on,0,0,1,,,,,,,,,,,,81,64,0
51120,note_off,240,0,1,,,,,,,,,,,,84,64,0
51120,note_off,240,0,4,,,,,,,,,,,,38,64,0
51120,note_off,240,0,2,,,,,,,,,,,,69,64,0
51120,note_on,0,0,4,,,,,,,,,,,,42,64,0
51360,note_on,0,0,4,,,,,,,,,,,,45,64,0
51360,note_off,240,0,4,,,,,,,,,,,,42,64,0
51360,note_off,480,0,3,,,,,,,,,,,,42,64,0
51360,note_on,0,0,1,,,,,,,,,,,,78,64,0
51360,note_off,240,0,2,,,,,,,,,,,,62,64,0
51360,note_off,240,0,1,,,,,,,,,,,,81,64,0
51360,note_on,0,0,2,,,,,,,,,,,,74,64,0
51600,note_off,240,0,4,,,,,,,,,,,,45,64,0
51600,note_on,0,0,4,,,,,,,,,,,,48,64,0
51600,note_on,240,0,3,,,,,,,,,,,,38,64,0
51840,note_off,480,0,1,,,,,,,,,,,,78,64,0
51840,note_on,0,0,3,,,,,,,,,,,,43,64,0
51840,note_on,0,0,1,,,,,,,,,,,,79,64,0
51840,note_off,240,0,4,,,,,,,,,,,,48,64,0
51840,note_on,0,0,4,,,,,,,,,,,,46,64,0
51840,note_off,240,0,3,,,,,,,,,,,,38,64,0
52080,note_off,240,0,4,,,,,,,,,,,,46,64,0
52080,note_on,0,0,4,,,,,,,,,,,,50,64,0
52320,note_on,0,0,2,,,,,,,,,,,,72,64,0
52320,note_off,960,0,2,,,,,,,,,,,,74,64,0
52320,note_on,0,0,4,,,,,,,,,,,,54,64,0
52320,note_on,0,0,3,,,,,,,,,,,,39,64,0
52320,note_off,240,0,4,,,,,,,,,,,,50,64,0
52320,note_off,480,0,1,,,,,,,,,,,,79,64,0
52320,note_off,480,0,3,,,,,,,,,,,,43,64,0
52560,note_off,240,0,4,,,,,,,,,,,,54,64,0
52560,note_on,240,0,1,,,,,,,,,,,,70,64,0
52560,note_on,0,0,4,,,,,,,,,,,,55,64,0
52560,note_on,0,0,2,,,,,,,,,,,,70,64,0
52560,note_off,240,0,2,,,,,,,,,,,,72,64,0
52800,note_on,0,0,1,,,,,,,,,,,,75,64,0
52800,note_on,0,0,4,,,,,,,,,,,,45,64,0
52800,note_off,240,0,4,,,,,,,,,,,,55,64,0
52800,note_on,0,0,2,,,,,,,,,,,,72,64,0
52800,note_off,240,0,2,,,,,,,,,,,,70,64,0
52800,note_off,480,0,3,,,,,,,,,,,,39,64,0
52800,note_on,0,0,3,,,,,,,,,,,,36,64,0
52800,note_off,240,0,1,,,,,,,,,,,,70,64,0
53040,note_off,240,0,4,,,,,,,,,,,,45,64,0
53040,note_on,0,0,4,,,,,,,,,,,,51,64,0
53280,note_off,480,0,1,,,,,,,,,,,,75,64,0
53280,note_off,480,0,3,,,,,,,,,,,,36,64,0
53280,note_on,0,0,4,,,,,,,,,,,,50,64,0
53280,note_off,480,0,2,,,,,,,,,,,,72,64,0
53280,note_off,240,0,4,,,,,,,,,,,,51,64,0
53280,note_on,0,0,3,,,,,,,,,,,,38,64,0
53280,note_on,0,0,2,,,,,,,,,,,,70,64,0
53520,note_off,240,0,2,,,,,,,,,,,,70,64,0
53520,note_off,240,0,4,,,,,,,,,,,,50,64,0
53520,note_on,0,0,2,,,,,,,,,,,,69,64,0
53520,note_on,0,0,4,,,,,,,,,,,,48,64,0
53520,note_on,240,0,1,,,,,,,,,,,,66,64,0
53760,note_on,0,0,2,,,,,,,,,,,,70,64,0
53760,note_on,0,0,1,,,,,,,,,,,,67,64,0
53760,note_off,240,0,1,,,,,,,,,,,,66,64,0
53760,note_on,0,0,4,,,,,,,,,,,,46,64,0
53760,note_off,480,0,3,,,,,,,,,,,,38,64,0
53760,note_on,0,0,3,,,,,,,,,,,,43,64,0
53760,note_off,240,0,4,,,,,,,,,,,,48,64,0
53760,note_off,240,0,2,,,,,,,,,,,,69,64,0
53880,note_off,120,0,2,,,,,,,,,,,,70,64,0
53880,note_on,0,0,4,,,,,,,,,,,,45,64,0
53880,note_off,120,0,4,,,,,,,,,,,,46,64,0
53880,note_on,0,0,2,,,,,,,,,,,,72,64,0
54000,note_off,240,0,3,,,,,,,,,,,,43,64,0
54000,note_on,0,0,3,,,,,,,,,,,,55,64,0
54000,note_off,120,0,2,,,,,,,,,,,,72,64,0
54000,note_on,0,0,2,,,,,,,,,,,,70,64,0
54000,note_off,120,0,4,,,,,,,,,,,,45,64,0
54000,note_on,0,0,4,,,,,,,,,,,,43,64,0
54120,note_off,120,0,3,,,,,,,,,,,,55,64,0
54120,note_off,120,0,4,,,,,,,,,,,,43,64,0
54120,note_on,0,0,4,,,,,,,,,,,,42,64,0
54120,note_off,120,0,2,,,,,,,,,,,,70,64,0
54120,note_on,0,0,2,,,,,,,,,,,,69,64,0
54120,note_on,0,0,3,,,,,,,,,,,,57,64,0
54240,note_off,120,0,3,,,,,,,,,,,,57,64,0
54240,note_on,0,0,4,,,,,,,,,,,,43,64,0
54240,note_off,120,0,4,,,,,,,,,,,,42,64,0
54240,note_on,0,0,2,,,,,,,,,,,,67,64,0
54240,note_off,480,0,1,,,,,,,,,,,,67,64,0
54240,note_on,0,0,1,,,,,,,,,,,,67,64,0
54240,note_on,0,0,3,,,,,,,,,,,,58,64,0
54240,note_off,120,0,2,,,,,,,,,,,,69,64,0
54360,note_off,120,0,4,,,,,,,,,,,,43,64,0
54360,note_on,0,0,4,,,,,,,,,,,,55,64,0
54480,note_off,240,0,1,,,,,,,,,,,,67,64,0
54480,note_on,0,0,1,,,,,,,,,,,,69,64,0
54480,note_off,120,0,4,,,,,,,,,,,,55,64,0
54480,note_on,0,0,4,,,,,,,,,,,,53,64,0
54480,note_on,0,0,3,,,,,,,,,,,,60,64,0
54480,note_off,240,0,3,,,,,,,,,,,,58,64,0
54600,note_on,0,0,4,,,,,,,,,,,,51,64,0
54600,note_off,120,0,4,,,,,,,,,,,,53,64,0
54720,note_off,120,0,4,,,,,,,,,,,,51,64,0
54720,note_on,0,0,4,,,,,,,,,,,,50,64,0
54720,note_off,240,0,1,,,,,,,,,,,,69,64,0
54720,note_on,0,0,1,,,,,,,,,,,,70,64,0
54720,note_on,0,0,3,,,,,,,,,,,,62,64,0
54720,note_off,240,0,3,,,,,,,,,,,,60,64,0
54840,note_on,0,0,4,,,,,,,,,,,,48,64,0
54840,note_off,120,0,4,,,,,,,,,,,,50,64,0
54960,note_off,240,0,1,,,,,,,,,,,,70,64,0
54960,note_on,0,0,2,,,,,,,,,,,,69,64,0
54960,note_off,720,0,2,,,,,,,,,,,,67,64,0
54960,note_on,0,0,4,,,,,,,,,,,,46,64,0
54960,note_off,120,0,4,,,,,,,,,,,,48,64,0
54960,note_on,0,0,1,,,,,,,,,,,,72,64,0
55080,note_on,0,0,4,,,,,,,,,,,,45,64,0
55080,note_off,120,0,4,,,,,,,,,,,,46,64,0
55200,note_on,0,0,1,,,,,,,,,,,,74,64,0
55200,note_off,240,0,2,,,,,,,,,,,,69,64,0
55200,note_off,120,0,4,,,,,,,,,,,,45,64,0
55200,note_off,240,0,1,,,,,,,,,,,,72,64,0
55200,note_on,0,0,2,,,,,,,,,,,,70,64,0
55200,note_on,0,0,4,,,,,,,,,,,,43,64,0
55440,note_off,720,0,3,,,,,,,,,,,,62,64,0
55440,note_on,0,0,2,,,,,,,,,,,,72,64,0
55440,note_off,240,0,2,,,,,,,,,,,,70,64,0
55440,note_off,240,0,1,,,,,,,,,,,,74,64,0
55440,note_on,0,0,1,,,,,,,,,,,,75,64,0
55440,note_on,0,0,3,,,,,,,,,,,,60,64,0
55560,note_off,120,0,3,,,,,,,,,,,,60,64,0
55560,note_on,0,0,3,,,,,,,,,,,,58,64,0
55680,note_on,0,0,1,,,,,,,,,,,,66,64,0
55680,note_off,480,0,4,,,,,,,,,,,,43,64,0
55680,note_on,0,0,3,,,,,,,,,,,,57,64,0
55680,note_off,240,0,2,,,,,,,,,,,,72,64,0
55680,note_on,0,0,2,,,,,,,,,,,,74,64,0
55680,note_off,240,0,1,,,,,,,,,,,,75,64,0
55680,note_off,120,0,3,,,,,,,,,,,,58,64,0
55920,note_off,240,0,2,,,,,,,,,,,,74,64,0
55920,note_on,0,0,2,,,,,,,,,,,,75,64,0
55920,note_on,240,0,4,,,,,,,,,,,,45,64,0
55920,note_on,0,0,3,,,,,,,,,,,,54,64,0
55920,note_off,240,0,3,,,,,,,,,,,,57,64,0
56160,note_off,480,0,1,,,,,,,,,,,,66,64,0
56160,note_on,0,0,3,,,,,,,,,,,,55,64,0
56160,note_off,240,0,3,,,,,,,,,,,,54,64,0
56160,note_off,240,0,4,,,,,,,,,,,,45,64,0
56160,note_on,0,0,2,,,,,,,,,,,,74,64,0
56160,note_off,240,0,2,,,,,,,,,,,,75,64,0
56160,note_on,0,0,4,,,,,,,,,,,,46,64,0
56400,note_on,0,0,2,,,,,,,,,,,,72,64,0
56400,note_off,240,0,2,,,,,,,,,,,,74,64,0
56400,note_on,0,0,3,,,,,,,,,,,,57,64,0
56400,note_off,240,0,3,,,,,,,,,,,,55,64,0
56400,note_on,0,0,4,,,,,,,,,,,,48,64,0
56400,note_off,240,0,4,,,,,,,,,,,,46,64,0
56640,note_off,240,0,2,,,,,,,,,,,,72,64,0
56640,note_on,0,0,4,,,,,,,,,,,,50,64,0
56640,note_on,0,0,2,,,,,,,,,,,,70,64,0
56640,note_off,240,0,3,,,,,,,,,,,,57,64,0
56640,note_on,0,0,3,,,,,,,,,,,,50,64,0
56640,note_off,240,0,4,,,,,,,,,,,,48,64,0
56880,note_off,240,0,4,,,,,,,,,,,,50,64,0
56880,note_on,0,0,4,,,,,,,,,,,,53,64,0
56880,note_on,0,0,2,,,,,,,,,,,,69,64,0
56880,note_off,240,0,2,,,,,,,,,,,,70,64,0
57120,note_off,240,0,2,,,,,,,,,,,,69,64,0
57120,note_on,0,0,2,,,,,,,,,,,,67,64,0
57120,note_on,960,0,1,,,,,,,,,,,,74,64,0
57120,note_off,480,0,3,,,,,,,,,,,,50,64,0
57120,note_off,240,0,4,,,,,,,,,,,,53,64,0
57120,note_on,0,0,4,,,,,,,,,,,,52,64,0
57360,note_off,240,0,2,,,,,,,,,,,,67,64,0
57360,note_on,0,0,2,,,,,,,,,,,,70,64,0
57360,note_off,240,0,4,,,,,,,,,,,,52,64,0
57360,note_on,0,0,4,,,,,,,,,,,,55,64,0
57600,note_off,240,0,2,,,,,,,,,,,,70,64,0
57600,note_on,0,0,2,,,,,,,,,,,,69,64,0
57600,note_off,240,0,4,,,,,,,,,,,,55,64,0
57600,note_on,0,0,4,,,,,,,,,,,,53,64,0
57840,note_on,720,0,3,,,,,,,,,,,,52,64,0
57840,note_off,720,0,1,,,,,,,,,,,,74,64,0
57840,note_on,0,0,1,,,,,,,,,,,,73,64,0
57840,note_on,0,0,4,,,,,,,,,,,,52,64,0
57840,note_off,240,0,4,,,,,,,,,,,,53,64,0
57960,note_off,120,0,4,,,,,,,,,,,,52,64,0
57960,note_on,0,0,4,,,,,,,,,,,,50,64,0
58080,note_off,240,0,1,,,,,,,,,,,,73,64,0
58080,note_off,240,0,3,,,,,,,,,,,,52,64,0
58080,note_on,0,0,3,,,,,,,,,,,,53,64,0
58080,note_on,0,0,1,,,,,,,,,,,,69,64,0
58080,note_off,120,0,4,,,,,,,,,,,,50,64,0
58080,note_on,0,0,4,,,,,,,,,,,,49,64,0
58320,note_on,0,0,1,,,,,,,,,,,,71,64,0
58320,note_off,240,0,3,,,,,,,,,,,,53,64,0
58320,note_on,0,0,3,,,,,,,,,,,,55,64,0
58320,note_off,240,0,1,,,,,,,,,,,,69,64,0
58560,note_off,240,0,3,,,,,,,,,,,,55,64,0
58560,note_on,0,0,3,,,,,,,,,,,,57,64,0
58560,note_on,0,0,1,,,,,,,,,,,,72,64,0
58560,note_off,240,0,1,,,,,,,,,,,,71,64,0
58560,note_off,480,0,4,,,,,,,,,,,,49,64,0
58800,note_on,240,0,4,,,,,,,,,,,,51,64,0
58800,note_off,1200,0,2,,,,,,,,,,,,69,64,0
58800,note_on,0,0,2,,,,,,,,,,,,67,64,0
59040,note_off,240,0,2,,,,,,,,,,,,67,64,0
59040,note_off,240,0,4,,,,,,,,,,,,51,64,0
59040,note_on,0,0,2,,,,,,,,,,,,66,64,0
59040,note_on,0,0,4,,,,,,,,,,,,50,64,0
59280,note_on,0,0,4,,,,,,,,,,,,53,64,0
59280,note_off,240,0,4,,,,,,,,,,,,50,64,0
59280,note_off,240,0,2,,,,,,,,,,,,66,64,0
59280,note_on,0,0,2,,,,,,,,,,,,69,64,0
59520,note_off,240,0,4,,,,,,,,,,,,53,64,0
59520,note_off,240,0,2,,,,,,,,,,,,69,64,0
59520,note_on,0,0,2,,,,,,,,,,,,67,64,0
59520,note_on,0,0,4,,,,,,,,,,,,51,64,0
59520,note_off,960,0,3,,,,,,,,,,,,57,64,0
59760,note_on,0,0,4,,,,,,,,,,,,50,64,0
59760,note_off,240,0,4,,,,,,,,,,,,51,64,0
59760,note_on,240,0,3,,,,,,,,,,,,50,64,0
59760,note_on,0,0,1,,,,,,,,,,,,71,64,0
59760,note_off,1200,0,1,,,,,,,,,,,,72,64,0
59880,note_on,0,0,4,,,,,,,,,,,,48,64,0
59880,note_off,120,0,4,,,,,,,,,,,,50,64,0
60000,note_on,0,0,1,,,,,,,,,,,,67,64,0
60000,note_on,0,0,4,,,,,,,,,,,,47,64,0
60000,note_off,120,0,4,,,,,,,,,,,,48,64,0
60000,note_on,0,0,3,,,,,,,,,,,,52,64,0
60000,note_off,240,0,3,,,,,,,,,,,,50,64,0
60000,note_off,240,0,1,,,,,,,,,,,,71,64,0
60240,note_off,240,0,1,,,,,,,,,,,,67,64,0
60240,note_on,0,0,3,,,,,,,,,,,,54,64,0
60240,note_on,0,0,1,,,,,,,,,,,,69,64,0
60240,note_off,240,0,3,,,,,,,,,,,,52,64,0
60480,note_on,0,0,3,,,,,,,,,,,,55,64,0
60480,note_off,240,0,3,,,,,,,,,,,,54,64,0
60480,note_off,480,0,4,,,,,,,,,,,,47,64,0
60480,note_on,0,0,1,,,,,,,,,,,,70,64,0
60480,note_off,240,0,1,,,,,,,,,,,,69,64,0
60720,note_on,240,0,4,,,,,,,,,,,,50,64,0
60720,note_on,0,0,2,,,,,,,,,,,,65,64,0
60720,note_off,1200,0,2,,,,,,,,,,,,67,64,0
60960,note_on,0,0,4,,,,,,,,,,,,49,64,0
60960,note_on,0,0,2,,,,,,,,,,,,64,64,0
60960,note_off,240,0,2,,,,,,,,,,,,65,64,0
60960,note_off,240,0,4,,,,,,,,,,,,50,64,0
61200,note_on,0,0,2,,,,,,,,,,,,67,64,0
61200,note_off,240,0,2,,,,,,,,,,,,64,64,0
61200,note_on,0,0,4,,,,,,,,,,,,52,64,0
61200,note_off,240,0,4,,,,,,,,,,,,49,64,0
61440,note_on,0,0,4,,,,,,,,,,,,50,64,0
61440,note_off,960,0,3,,,,,,,,,,,,55,64,0
61440,note_off,240,0,4,,,,,,,,,,,,52,64,0
61440,note_off,240,0,2,,,,,,,,,,,,67,64,0
61440,note_on,0,0,2,,,,,,,,,,,,65,64,0
61680,note_off,240,0,4,,,,,,,,,,,,50,64,0
61680,note_on,0,0,4,,,,,,,,,,,,48,64,0
61680,note_off,1200,0,1,,,,,,,,,,,,70,64,0
61680,note_on,0,0,1,,,,,,,,,,,,69,64,0
61920,note_on,0,0,1,,,,,,,,,,,,68,64,0
61920,note_off,240,0,1,,,,,,,,,,,,69,64,0
61920,note_off,480,0,2,,,,,,,,,,,,65,64,0
61920,note_off,240,0,4,,,,,,,,,,,,48,64,0
61920,note_on,0,0,4,,,,,,,,,,,,47,64,0
61920,note_on,480,0,3,,,,,,,,,,,,50,64,0
62160,note_off,240,0,1,,,,,,,,,,,,68,64,0
62160,note_on,0,0,1,,,,,,,,,,,,69,64,0
62160,note_on,240,0,2,,,,,,,,,,,,65,64,0
62160,note_off,240,0,4,,,,,,,,,,,,47,64,0
62160,note_on,0,0,4,,,,,,,,,,,,50,64,0
62400,note_off,480,0,3,,,,,,,,,,,,50,64,0
62400,note_on,0,0,2,,,,,,,,,,,,72,64,0
62400,note_off,240,0,2,,,,,,,,,,,,65,64,0
62400,note_on,0,0,3,,,,,,,,,,,,51,64,0
62400,note_on,0,0,1,,,,,,,,,,,,68,64,0
62400,note_off,240,0,1,,,,,,,,,,,,69,64,0
62400,note_on,0,0,4,,,,,,,,,,,,48,64,0
62400,note_off,240,0,4,,,,,,,,,,,,50,64,0
62640,note_off,240,0,4,,,,,,,,,,,,48,64,0
62640,note_on,0,0,4,,,,,,,,,,,,47,64,0
62640,note_off,240,0,1,,,,,,,,,,,,68,64,0
62640,note_on,0,0,1,,,,,,,,,,,,67,64,0
62880,note_on,0,0,1,,,,,,,,,,,,66,64,0
62880,note_off,240,0,1,,,,,,,,,,,,67,64,0
62880,note_off,240,0,4,,,,,,,,,,,,47,64,0
62880,note_off,480,0,3,,,,,,,,,,,,51,64,0
62880,note_on,0,0,3,,,,,,,,,,,,45,64,0
62880,note_on,0,0,4,,,,,,,,,,,,48,64,0
62880,note_off,480,0,2,,,,,,,,,,,,72,64,0
63120,note_on,0,0,1,,,,,,,,,,,,67,64,0
63120,note_on,240,0,2,,,,,,,,,,,,75,64,0
63120,note_off,240,0,1,,,,,,,,,,,,66,64,0
63360,note_on,0,0,2,,,,,,,,,,,,74,64,0
63360,note_off,240,0,2,,,,,,,,,,,,75,64,0
63360,note_off,240,0,1,,,,,,,,,,,,67,64,0
63360,note_on,0,0,1,,,,,,,,,,,,66,64,0
63360,note_on,0,0,3,,,,,,,,,,,,57,64,0
63360,note_off,480,0,3,,,,,,,,,,,,45,64,0
63480,note_on,0,0,3,,,,,,,,,,,,58,64,0
63480,note_off,120,0,3,,,,,,,,,,,,57,64,0
63600,note_on,0,0,1,,,,,,,,,,,,64,64,0
63600,note_on,0,0,3,,,,,,,,,,,,60,64,0
63600,note_on,0,0,4,,,,,,,,,,,,43,64,0
63600,note_off,720,0,4,,,,,,,,,,,,48,64,0
63600,note_off,240,0,1,,,,,,,,,,,,66,64,0
63600,note_off,120,0,3,,,,,,,,,,,,58,64,0
63840,note_on,0,0,4,,,,,,,,,,,,42,64,0
63840,note_off,240,0,4,,,,,,,,,,,,43,64,0
63840,note_off,480,0,2,,,,,,,,,,,,74,64,0
63840,note_off,240,0,1,,,,,,,,,,,,64,64,0
63840,note_on,0,0,1,,,,,,,,,,,,62,64,0
64080,note_off,480,0,3,,,,,,,,,,,,60,64,0
64080,note_on,0,0,4,,,,,,,,,,,,43,64,0
64080,note_off,240,0,4,,,,,,,,,,,,42,64,0
64080,note_off,240,0,1,,,,,,,,,,,,62,64,0
64080,note_on,0,0,3,,,,,,,,,,,,58,64,0
64080,note_on,240,0,2,,,,,,,,,,,,67,64,0
64080,note_on,0,0,1,,,,,,,,,,,,63,64,0
64320,note_off,240,0,1,,,,,,,,,,,,63,64,0
64320,note_on,0,0,1,,,,,,,,,,,,62,64,0
64320,note_on,0,0,2,,,,,,,,,,,,66,64,0
64320,note_on,0,0,3,,,,,,,,,,,,60,64,0
64320,note_off,240,0,3,,,,,,,,,,,,58,64,0
64320,note_on,0,0,4,,,,,,,,,,,,45,64,0
64320,note_off,240,0,4,,,,,,,,,,,,43,64,0
64320,note_off,240,0,2,,,,,,,,,,,,67,64,0
64560,note_off,240,0,1,,,,,,,,,,,,62,64,0
64560,note_on,0,0,3,,,,,,,,,,,,57,64,0
64560,note_on,0,0,1,,,,,,,,,,,,66,64,0
64560,note_off,240,0,3,,,,,,,,,,,,60,64,0
64560,note_on,0,0,4,,,,,,,,,,,,38,64,0
64560,note_off,240,0,4,,,,,,,,,,,,45,64,0
64800,note_on,0,0,1,,,,,,,,,,,,69,64,0
64800,note_off,480,0,2,,,,,,,,,,,,66,64,0
64800,note_on,0,0,3,,,,,,,,,,,,54,64,0
64800,note_off,240,0,3,,,,,,,,,,,,57,64,0
64800,note_off,240,0,1,,,,,,,,,,,,66,64,0
64800,note_off,240,0,4,,,,,,,,,,,,38,64,0
64800,note_on,0,0,4,,,,,,,,,,,,50,64,0
65040,note_on,0,0,1,,,,,,,,,,,,72,64,0
65040,note_off,240,0,1,,,,,,,,,,,,69,64,0
65040,note_on,240,0,2,,,,,,,,,,,,62,64,0
65280,note_on,0,0,3,,,,,,,,,,,,55,64,0
65280,note_on,0,0,2,,,,,,,,,,,,67,64,0
65280,note_off,480,0,3,,,,,,,,,,,,54,64,0
65280,note_off,240,0,1,,,,,,,,,,,,72,64,0
65280,note_on,0,0,1,,,,,,,,,,,,70,64,0
65280,note_off,240,0,2,,,,,,,,,,,,62,64,0
65520,note_off,240,0,1,,,,,,,,,,,,70,64,0
65520,note_on,0,0,1,,,,,,,,,,,,74,64,0
65760,note_off,960,0,4,,,,,,,,,,,,50,64,0
65760,note_on,0,0,1,,,,,,,,,,,,78,64,0
65760,note_on,0,0,2,,,,,,,,,,,,63,64,0
65760,note_off,240,0,1,,,,,,,,,,,,74,64,0
65760,note_off,480,0,2,,,,,,,,,,,,67,64,0
65760,note_on,0,0,4,,,,,,,,,,,,48,64,0
65760,note_off,480,0,3,,,,,,,,,,,,55,64,0
66000,note_on,240,0,3,,,,,,,,,,,,46,64,0
66000,note_off,240,0,4,,,,,,,,,,,,48,64,0
66000,note_on,0,0,4,,,,,,,,,,,,46,64,0
66000,note_off,240,0,1,,,,,,,,,,,,78,64,0
66000,note_on,0,0,1,,,,,,,,,,,,79,64,0
66240,note_off,240,0,1,,,,,,,,,,,,79,64,0
66240,note_on,0,0,2,,,,,,,,,,,,60,64,0
66240,note_on,0,0,1,,,,,,,,,,,,69,64,0
66240,note_on,0,0,4,,,,,,,,,,,,48,64,0
66240,note_off,480,0,2,,,,,,,,,,,,63,64,0
66240,note_off,240,0,4,,,,,,,,,,,,46,64,0
66240,note_on,0,0,3,,,,,,,,,,,,51,64,0
66240,note_off,240,0,3,,,,,,,,,,,,46,64,0
66480,note_off,240,0,1,,,,,,,,,,,,69,64,0
66480,note_on,0,0,1,,,,,,,,,,,,75,64,0
66720,note_on,0,0,1,,,,,,,,,,,,74,64,0
66720,note_off,240,0,1,,,,,,,,,,,,75,64,0
66720,note_off,480,0,2,,,,,,,,,,,,60,64,0
66720,note_off,480,0,4,,,,,,,,,,,,48,64,0
66720,note_off,480,0,3,,,,,,,,,,,,51,64,0
66720,note_on,0,0,4,,,,,,,,,,,,46,64,0
66720,note_on,0,0,2,,,,,,,,,,,,62,64,0
66960,note_off,240,0,4,,,,,,,,,,,,46,64,0
66960,note_on,240,0,3,,,,,,,,,,,,42,64,0
66960,note_on,0,0,4,,,,,,,,,,,,45,64,0
66960,note_off,240,0,1,,,,,,,,,,,,74,64,0
66960,note_on,0,0,1,,,,,,,,,,,,72,64,0
67200,note_on,0,0,4,,,,,,,,,,,,46,64,0
67200,note_off,240,0,4,,,,,,,,,,,,45,64,0
67200,note_off,480,0,2,,,,,,,,,,,,62,64,0
67200,note_on,0,0,3,,,,,,,,,,,,43,64,0
67200,note_off,240,0,3,,,,,,,,,,,,42,64,0
67200,note_on,0,0,2,,,,,,,,,,,,67,64,0
67200,note_on,0,0,1,,,,,,,,,,,,70,64,0
67200,note_off,240,0,1,,,,,,,,,,,,72,64,0
67320,note_on,0,0,1,,,,,,,,,,,,69,64,0
67320,note_off,120,0,1,,,,,,,,,,,,70,64,0
67320,note_on,0,0,4,,,,,,,,,,,,48,64,0
67320,note_off,120,0,4,,,,,,,,,,,,46,64,0
67440,note_on,0,0,4,,,,,,,,,,,,46,64,0
67440,note_off,120,0,4,,,,,,,,,,,,48,64,0
67440,note_off,120,0,1,,,,,,,,,,,,69,64,0
67440,note_on,0,0,1,,,,,,,,,,,,67,64,0
67440,note_on,0,0,2,,,,,,,,,,,,79,64,0
67440,note_off,240,0,2,,,,,,,,,,,,67,64,0
67560,note_on,0,0,1,,,,,,,,,,,,66,64,0
67560,note_on,0,0,4,,,,,,,,,,,,45,64,0
67560,note_off,120,0,2,,,,,,,,,,,,79,64,0
67560,note_on,0,0,2,,,,,,,,,,,,81,64,0
67560,note_off,120,0,4,,,,,,,,,,,,46,64,0
67560,note_off,120,0,1,,,,,,,,,,,,67,64,0
67680,note_on,0,0,2,,,,,,,,,,,,82,64,0
67680,note_off,120,0,4,,,,,,,,,,,,45,64,0
67680,note_on,0,0,4,,,,,,,,,,,,43,64,0
67680,note_on,0,0,1,,,,,,,,,,,,67,64,0
67680,note_off,120,0,1,,,,,,,,,,,,66,64,0
67680,note_off,120,0,2,,,,,,,,,,,,81,64,0
67680,note_off,480,0,3,,,,,,,,,,,,43,64,0
67680,note_on,0,0,3,,,,,,,,,,,,43,64,0
67800,note_off,120,0,1,,,,,,,,,,,,67,64,0
67800,note_on,0,0,1,,,,,,,,,,,,79,64,0
67920,note_off,240,0,3,,,,,,,,,,,,43,64,0
67920,note_off,120,0,1,,,,,,,,,,,,79,64,0
67920,note_on,0,0,1,,,,,,,,,,,,77,64,0
67920,note_on,0,0,2,,,,,,,,,,,,84,64,0
67920,note_on,0,0,3,,,,,,,,,,,,45,64,0
67920,note_off,240,0,2,,,,,,,,,,,,82,64,0
68040,note_on,0,0,1,,,,,,,,,,,,75,64,0
68040,note_off,120,0,1,,,,,,,,,,,,77,64,0
68160,note_on,0,0,1,,,,,,,,,,,,74,64,0
68160,note_off,120,0,1,,,,,,,,,,,,75,64,0
68160,note_off,240,0,3,,,,,,,,,,,,45,64,0
68160,note_off,240,0,2,,,,,,,,,,,,84,64,0
68160,note_on,0,0,2,,,,,,,,,,,,86,64,0
68160,note_on,0,0,3,,,,,,,,,,,,46,64,0
68280,note_off,120,0,1,,,,,,,,,,,,74,64,0
68280,note_on,0,0,1,,,,,,,,,,,,72,64,0
68400,note_on,0,0,3,,,,,,,,,,,,48,64,0
68400,note_off,240,0,3,,,,,,,,,,,,46,64,0
68400,note_on,0,0,4,,,,,,,,,,,,45,64,0
68400,note_off,720,0,4,,,,,,,,,,,,43,64,0
68400,note_on,0,0,1,,,,,,,,,,,,70,64,0
68400,note_off,120,0,1,,,,,,,,,,,,72,64,0
68520,note_off,120,0,1,,,,,,,,,,,,70,64,0
68520,note_on,0,0,1,,,,,,,,,,,,69,64,0
68640,note_off,240,0,3,,,,,,,,,,,,48,64,0
68640,note_on,0,0,3,,,,,,,,,,,,50,64,0
68640,note_off,240,0,4,,,,,,,,,,,,45,64,0
68640,note_on,0,0,4,,,,,,,,,,,,46,64,0
68640,note_off,120,0,1,,,,,,,,,,,,69,64,0
68640,note_on,0,0,1,,,,,,,,,,,,67,64,0
68880,note_on,0,0,4,,,,,,,,,,,,48,64,0
68880,note_off,240,0,3,,,,,,,,,,,,50,64,0
68880,note_on,0,0,3,,,,,,,,,,,,51,64,0
68880,note_on,0,0,2,,,,,,,,,,,,84,64,0
68880,note_off,720,0,2,,,,,,,,,,,,86,64,0
68880,note_off,240,0,4,,,,,,,,,,,,46,64,0
69000,note_on,0,0,2,,,,,,,,,,,,82,64,0
69000,note_off,120,0,2,,,,,,,,,,,,84,64,0
69120,note_on,0,0,2,,,,,,,,,,,,81,64,0
69120,note_off,480,0,1,,,,,,,,,,,,67,64,0
69120,note_off,120,0,2,,,,,,,,,,,,82,64,0
69120,note_off,240,0,3,,,,,,,,,,,,51,64,0
69120,note_on,0,0,4,,,,,,,,,,,,50,64,0
69120,note_on,0,0,3,,,,,,,,,,,,42,64,0
69120,note_off,240,0,4,,,,,,,,,,,,48,64,0
69360,note_off,240,0,2,,,,,,,,,,,,81,64,0
69360,note_on,0,0,4,,,,,,,,,,,,51,64,0
69360,note_off,240,0,4,,,,,,,,,,,,50,64,0
69360,note_on,0,0,2,,,,,,,,,,,,78,64,0
69360,note_on,240,0,1,,,,,,,,,,,,69,64,0
69600,note_off,240,0,4,,,,,,,,,,,,51,64,0
69600,note_on,0,0,2,,,,,,,,,,,,79,64,0
69600,note_off,240,0,2,,,,,,,,,,,,78,64,0
69600,note_on,0,0,4,,,,,,,,,,,,50,64,0
69600,note_off,240,0,1,,,,,,,,,,,,69,64,0
69600,note_on,0,0,1,,,,,,,,,,,,70,64,0
69600,note_off,480,0,3,,,,,,,,,,,,42,64,0
69840,note_off,240,0,1,,,,,,,,,,,,70,64,0
69840,note_on,0,0,1,,,,,,,,,,,,72,64,0
69840,note_off,240,0,2,,,,,,,,,,,,79,64,0
69840,note_on,0,0,2,,,,,,,,,,,,81,64,0
69840,note_off,240,0,4,,,,,,,,,,,,50,64,0
69840,note_on,0,0,4,,,,,,,,,,,,48,64,0
70080,note_on,0,0,1,,,,,,,,,,,,74,64,0
70080,note_off,240,0,1,,,,,,,,,,,,72,64,0
70080,note_on,0,0,4,,,,,,,,,,,,46,64,0
70080,note_off,240,0,4,,,,,,,,,,,,48,64,0
70080,note_off,240,0,2,,,,,,,,,,,,81,64,0
70080,note_on,0,0,2,,,,,,,,,,,,74,64,0
70320,note_off,240,0,1,,,,,,,,,,,,74,64,0
70320,note_on,0,0,1,,,,,,,,,,,,77,64,0
70320,note_on,0,0,4,,,,,,,,,,,,45,64,0
70320,note_off,240,0,4,,,,,,,,,,,,46,64,0
70560,note_on,960,0,3,,,,,,,,,,,,50,64,0
70560,note_off,240,0,1,,,,,,,,,,,,77,64,0
70560,note_on,0,0,1,,,,,,,,,,,,76,64,0
70560,note_on,0,0,4,,,,,,,,,,,,43,64,0
70560,note_off,240,0,4,,,,,,,,,,,,45,64,0
70560,note_off,480,0,2,,,,,,,,,,,,74,64,0
70800,note_on,0,0,1,,,,,,,,,,,,79,64,0
70800,note_off,240,0,1,,,,,,,,,,,,76,64,0
70800,note_off,240,0,4,,,,,,,,,,,,43,64,0
70800,note_on,0,0,4,,,,,,,,,,,,46,64,0
71040,note_on,0,0,1,,,,,,,,,,,,77,64,0
71040,note_off,240,0,1,,,,,,,,,,,,79,64,0
71040,note_off,240,0,4,,,,,,,,,,,,46,64,0
71040,note_on,0,0,4,,,,,,,,,,,,45,64,0
71280,note_off,240,0,1,,,,,,,,,,,,77,64,0
71280,note_on,0,0,1,,,,,,,,,,,,76,64,0
71280,note_off,720,0,3,,,,,,,,,,,,50,64,0
71280,note_on,720,0,2,,,,,,,,,,,,76,64,0
71280,note_on,0,0,3,,,,,,,,,,,,49,64,0
71400,note_off,120,0,1,,,,,,,,,,,,76,64,0
71400,note_on,0,0,1,,,,,,,,,,,,74,64,0
71520,note_off,240,0,3,,,,,,,,,,,,49,64,0
71520,note_on,0,0,3,,,,,,,,,,,,45,64,0
71520,note_off,240,0,2,,,,,,,,,,,,76,64,0
71520,note_off,120,0,1,,,,,,,,,,,,74,64,0
71520,note_on,0,0,1,,,,,,,,,,,,73,64,0
71520,note_on,0,0,2,,,,,,,,,,,,77,64,0
71760,note_off,240,0,3,,,,,,,,,,,,45,64,0
71760,note_on,0,0,3,,,,,,,,,,,,47,64,0
71760,note_on,0,0,2,,,,,,,,,,,,79,64,0
71760,note_off,240,0,2,,,,,,,,,,,,77,64,0
72000,note_on,0,0,3,,,,,,,,,,,,48,64,0
72000,note_off,240,0,2,,,,,,,,,,,,79,64,0
72000,note_off,480,0,1,,,,,,,,,,,,73,64,0
72000,note_off,240,0,3,,,,,,,,,,,,47,64,0
72000,note_on,0,0,2,,,,,,,,,,,,81,64,0
72240,note_on,240,0,1,,,,,,,,,,,,75,64,0
72240,note_off,1200,0,4,,,,,,,,,,,,45,64,0
72240,note_on,0,0,4,,,,,,,,,,,,43,64,0
72480,note_on,0,0,4,,,,,,,,,,,,42,64,0
72480,note_on,0,0,1,,,,,,,,,,,,74,64,0
72480,note_off,240,0,1,,,,,,,,,,,,75,64,0
72480,note_off,240,0,4,,,,,,,,,,,,43,64,0
72720,note_on,0,0,1,,,,,,,,,,,,77,64,0
72720,note_off,240,0,4,,,,,,,,,,,,42,64,0
72720,note_on,0,0,4,,,,,,,,,,,,45,64,0
72720,note_off,240,0,1,,,,,,,,,,,,74,64,0
72960,note_on,0,0,4,,,,,,,,,,,,43,64,0
72960,note_on,0,0,1,,,,,,,,,,,,75,64,0
72960,note_off,240,0,1,,,,,,,,,,,,77,64,0
72960,note_off,960,0,2,,,,,,,,,,,,81,64,0
72960,note_off,240,0,4,,,,,,,,,,,,45,64,0
73200,note_on,240,0,2,,,,,,,,,,,,74,64,0
73200,note_on,0,0,3,,,,,,,,,,,,47,64,0
73200,note_off,1200,0,3,,,,,,,,,,,,48,64,0
73200,note_off,240,0,1,,,,,,,,,,,,75,64,0
73200,note_on,0,0,1,,,,,,,,,,,,74,64,0
73320,note_on,0,0,1,,,,,,,,,,,,72,64,0
73320,note_off,120,0,1,,,,,,,,,,,,74,64,0
73440,note_on,0,0,1,,,,,,,,,,,,71,64,0
73440,note_on,0,0,3,,,,,,,,,,,,43,64,0
73440,note_off,240,0,3,,,,,,,,,,,,47,64,0
73440,note_off,240,0,2,,,,,,,,,,,,74,64,0
73440,note_on,0,0,2,,,,,,,,,,,,76,64,0
73440,note_off,120,0,1,,,,,,,,,,,,72,64,0
73680,note_off,240,0,3,,,,,,,,,,,,43,64,0
73680,note_on,0,0,3,,,,,,,,,,,,45,64,0
73680,note_off,240,0,2,,,,,,,,,,,,76,64,0
73680,note_on,0,0,2,,,,,,,,,,,,78,64,0
73920,note_on,0,0,2,,,,,,,,,,,,79,64,0
73920,note_off,240,0,3,,,,,,,,,,,,45,64,0
73920,note_on,0,0,3,,,,,,,,,,,,46,64,0
73920,note_off,480,0,1,,,,,,,,,,,,71,64,0
73920,note_off,240,0,2,,,,,,,,,,,,78,64,0
74160,note_off,1200,0,4,,,,,,,,,,,,43,64,0
74160,note_on,240,0,1,,,,,,,,,,,,74,64,0
74160,note_on,0,0,4,,,,,,,,,,,,41,64,0
74400,note_off,240,0,1,,,,,,,,,,,,74,64,0
74400,note_off,240,0,4,,,,,,,,,,,,41,64,0
74400,note_on,0,0,4,,,,,,,,,,,,40,64,0
74400,note_on,0,0,1,,,,,,,,,,,,73,64,0
74640,note_on,0,0,1,,,,,,,,,,,,76,64,0
74640,note_off,240,0,4,,,,,,,,,,,,40,64,0
74640,note_on,0,0,4,,,,,,,,,,,,43,64,0
74640,note_off,240,0,1,,,,,,,,,,,,73,64,0
74880,note_off,960,0,2,,,,,,,,,,,,79,64,0
74880,note_on,0,0,1,,,,,,,,,,,,74,64,0
74880,note_off,240,0,1,,,,,,,,,,,,76,64,0
74880,note_on,0,0,4,,,,,,,,,,,,41,64,0
74880,note_off,240,0,4,,,,,,,,,,,,43,64,0
75120,note_on,0,0,1,,,,,,,,,,,,72,64,0
75120,note_off,240,0,1,,,,,,,,,,,,74,64,0
75120,note_off,1200,0,3,,,,,,,,,,,,46,64,0
75120,note_on,0,0,3,,,,,,,,,,,,45,64,0
75360,note_off,480,0,4,,,,,,,,,,,,41,64,0
75360,note_off,240,0,1,,,,,,,,,,,,72,64,0
75360,note_off,240,0,3,,,,,,,,,,,,45,64,0
75360,note_on,0,0,3,,,,,,,,,,,,44,64,0
75360,note_on,0,0,1,,,,,,,,,,,,71,64,0
75360,note_on,480,0,2,,,,,,,,,,,,74,64,0
75600,note_on,0,0,1,,,,,,,,,,,,74,64,0
75600,note_on,240,0,4,,,,,,,,,,,,41,64,0
75600,note_off,240,0,1,,,,,,,,,,,,71,64,0
75600,note_off,240,0,3,,,,,,,,,,,,44,64,0
75600,note_on,0,0,3,,,,,,,,,,,,45,64,0
75840,note_on,0,0,4,,,,,,,,,,,,48,64,0
75840,note_off,480,0,2,,,,,,,,,,,,74,64,0
75840,note_on,0,0,2,,,,,,,,,,,,75,64,0
75840,note_on,0,0,1,,,,,,,,,,,,72,64,0
75840,note_off,240,0,1,,,,,,,,,,,,74,64,0
75840,note_off,240,0,4,,,,,,,,,,,,41,64,0
75840,note_on,0,0,3,,,,,,,,,,,,44,64,0
75840,note_off,240,0,3,,,,,,,,,,,,45,64,0
76080,note_off,240,0,1,,,,,,,,,,,,72,64,0
76080,note_on,0,0,1,,,,,,,,,,,,71,64,0
76080,note_off,240,0,3,,,,,,,,,,,,44,64,0
76080,note_on,0,0,3,,,,,,,,,,,,43,64,0
76320,note_off,480,0,4,,,,,,,,,,,,48,64,0
76320,note_on,0,0,2,,,,,,,,,,,,69,64,0
76320,note_on,0,0,3,,,,,,,,,,,,42,64,0
76320,note_off,480,0,2,,,,,,,,,,,,75,64,0
76320,note_off,240,0,1,,,,,,,,,,,,71,64,0
76320,note_on,0,0,1,,,,,,,,,,,,72,64,0
76320,note_off,240,0,3,,,,,,,,,,,,43,64,0
76560,note_off,240,0,3,,,,,,,,,,,,42,64,0
76560,note_on,0,0,3,,,,,,,,,,,,43,64,0
76560,note_on,240,0,4,,,,,,,,,,,,51,64,0
76800,note_off,480,0,2,,,,,,,,,,,,69,64,0
76800,note_on,0,0,3,,,,,,,,,,,,42,64,0
76800,note_on,0,0,2,,,,,,,,,,,,81,64,0
76800,note_off,240,0,4,,,,,,,,,,,,51,64,0
76800,note_off,240,0,3,,,,,,,,,,,,43,64,0
76800,note_on,0,0,4,,,,,,,,,,,,50,64,0
76920,note_off,120,0,2,,,,,,,,,,,,81,64,0
76920,note_on,0,0,2,,,,,,,,,,,,82,64,0
77040,note_on,0,0,1,,,,,,,,,,,,67,64,0
77040,note_off,720,0,1,,,,,,,,,,,,72,64,0
77040,note_on,0,0,2,,,,,,,,,,,,84,64,0
77040,note_off,120,0,2,,,,,,,,,,,,82,64,0
77040,note_off,240,0,3,,,,,,,,,,,,42,64,0
77040,note_on,0,0,3,,,,,,,,,,,,40,64,0
77280,note_on,0,0,1,,,,,,,,,,,,66,64,0
77280,note_off,240,0,1,,,,,,,,,,,,67,64,0
77280,note_off,240,0,3,,,,,,,,,,,,40,64,0
77280,note_on,0,0,3,,,,,,,,,,,,38,64,0
77280,note_off,480,0,4,,,,,,,,,,,,50,64,0
77520,note_on,0,0,1,,,,,,,,,,,,67,64,0
77520,note_on,240,0,4,,,,,,,,,,,,43,64,0
77520,note_off,480,0,2,,,,,,,,,,,,84,64,0
77520,note_on,0,0,2,,,,,,,,,,,,82,64,0
77520,note_off,240,0,1,,,,,,,,,,,,66,64,0
77520,note_off,240,0,3,,,,,,,,,,,,38,64,0
77520,note_on,0,0,3,,,,,,,,,,,,39,64,0
77760,note_off,240,0,3,,,,,,,,,,,,39,64,0
77760,note_on,0,0,3,,,,,,,,,,,,38,64,0
77760,note_off,240,0,4,,,,,,,,,,,,43,64,0
77760,note_on,0,0,4,,,,,,,,,,,,42,64,0
77760,note_on,0,0,1,,,,,,,,,,,,69,64,0
77760,note_off,240,0,1,,,,,,,,,,,,67,64,0
77760,note_off,240,0,2,,,,,,,,,,,,82,64,0
77760,note_on,0,0,2,,,,,,,,,,,,84,64,0
78000,note_off,240,0,3,,,,,,,,,,,,38,64,0
78000,note_off,240,0,1,,,,,,,,,,,,69,64,0
78000,note_on,0,0,2,,,,,,,,,,,,81,64,0
78000,note_off,240,0,2,,,,,,,,,,,,84,64,0
78000,note_on,0,0,1,,,,,,,,,,,,62,64,0
78000,note_on,0,0,3,,,,,,,,,,,,42,64,0
78240,note_on,0,0,3,,,,,,,,,,,,45,64,0
78240,note_on,0,0,2,,,,,,,,,,,,78,64,0
78240,note_off,480,0,4,,,,,,,,,,,,42,64,0
78240,note_off,240,0,2,,,,,,,,,,,,81,64,0
78240,note_off,240,0,3,,,,,,,,,,,,42,64,0
78240,note_on,0,0,1,,,,,,,,,,,,74,64,0
78240,note_off,240,0,1,,,,,,,,,,,,62,64,0
78480,note_on,240,0,4,,,,,,,,,,,,38,64,0
78480,note_on,0,0,3,,,,,,,,,,,,48,64,0
78480,note_off,240,0,3,,,,,,,,,,,,45,64,0
78720,note_off,480,0,2,,,,,,,,,,,,78,64,0
78720,note_on,0,0,2,,,,,,,,,,,,79,64,0
78720,note_off,240,0,4,,,,,,,,,,,,38,64,0
78720,note_on,0,0,3,,,,,,,,,,,,46,64,0
78720,note_on,0,0,4,,,,,,,,,,,,43,64,0
78720,note_off,240,0,3,,,,,,,,,,,,48,64,0
78960,note_off,240,0,3,,,,,,,,,,,,46,64,0
78960,note_on,0,0,3,,,,,,,,,,,,50,64,0
79200,note_off,240,0,3,,,,,,,,,,,,50,64,0
79200,note_off,960,0,1,,,,,,,,,,,,74,64,0
79200,note_on,0,0,1,,,,,,,,,,,,72,64,0
79200,note_on,0,0,4,,,,,,,,,,,,39,64,0
79200,note_off,480,0,4,,,,,,,,,,,,43,64,0
79200,note_off,480,0,2,,,,,,,,,,,,79,64,0
79200,note_on,0,0,3,,,,,,,,,,,,54,64,0
79440,note_off,240,0,1,,,,,,,,,,,,72,64,0
79440,note_on,0,0,1,,,,,,,,,,,,70,64,0
79440,note_off,240,0,3,,,,,,,,,,,,54,64,0
79440,note_on,0,0,3,,,,,,,,,,,,55,64,0
79440,note_on,240,0,2,,,,,,,,,,,,70,64,0
79680,note_on,0,0,2,,,,,,,,,,,,75,64,0
79680,note_off,240,0,3,,,,,,,,,,,,55,64,0
79680,note_on,0,0,3,,,,,,,,,,,,45,64,0
79680,note_off,480,0,4,,,,,,,,,,,,39,64,0
79680,note_on,0,0,4,,,,,,,,,,,,36,64,0
79680,note_off,240,0,2,,,,,,,,,,,,70,64,0
79680,note_off,240,0,1,,,,,,,,,,,,70,64,0
79680,note_on,0,0,1,,,,,,,,,,,,72,64,0
79920,note_off,240,0,3,,,,,,,,,,,,45,64,0
79920,note_on,0,0,3,,,,,,,,,,,,51,64,0
80160,note_off,480,0,4,,,,,,,,,,,,36,64,0
80160,note_on,0,0,4,,,,,,,,,,,,38,64,0
80160,note_off,480,0,2,,,,,,,,,,,,75,64,0
80160,note_off,240,0,3,,,,,,,,,,,,51,64,0
80160,note_off,480,0,1,,,,,,,,,,,,72,64,0
80160,note_on,0,0,3,,,,,,,,,,,,50,64,0
80160,note_on,0,0,1,,,,,,,,,,,,70,64,0
80400,note_on,0,0,1,,,,,,,,,,,,69,64,0
80400,note_off,240,0,1,,,,,,,,,,,,70,64,0
80400,note_on,0,0,3,,,,,,,,,,,,48,64,0
80400,note_on,240,0,2,,,,,,,,,,,,66,64,0
80400,note_off,240,0,3,,,,,,,,,,,,50,64,0
80640,note_on,0,0,1,,,,,,,,,,,,70,64,0
80640,note_on,0,0,4,,,,,,,,,,,,43,64,0
80640,note_off,480,0,4,,,,,,,,,,,,38,64,0
80640,note_off,240,0,3,,,,,,,,,,,,48,64,0
80640,note_on,0,0,3,,,,,,,,,,,,46,64,0
80640,note_on,0,0,2,,,,,,,,,,,,67,64,0
80640,note_off,240,0,2,,,,,,,,,,,,66,64,0
80640,note_off,240,0,1,,,,,,,,,,,,69,64,0
80760,note_on,0,0,3,,,,,,,,,,,,45,64,0
80760,note_on,0,0,1,,,,,,,,,,,,72,64,0
80760,note_off,120,0,1,,,,,,,,,,,,70,64,0
80760,note_off,120,0,3,,,,,,,,,,,,46,64,0
80880,note_on,0,0,4,,,,,,,,,,,,55,64,0
80880,note_off,120,0,1,,,,,,,,,,,,72,64,0
80880,note_on,0,0,1,,,,,,,,,,,,70,64,0
80880,note_off,120,0,3,,,,,,,,,,,,45,64,0
80880,note_on,0,0,3,,,,,,,,,,,,43,64,0
80880,note_off,240,0,4,,,,,,,,,,,,43,64,0
81000,note_off,120,0,1,,,,,,,,,,,,70,64,0
81000,note_on,0,0,1,,,,,,,,,,,,69,64,0
81000,note_off,120,0,3,,,,,,,,,,,,43,64,0
81000,note_on,0,0,3,,,,,,,,,,,,42,64,0
81000,note_off,120,0,4,,,,,,,,,,,,55,64,0
81000,note_on,0,0,4,,,,,,,,,,,,57,64,0
81120,note_off,120,0,3,,,,,,,,,,,,42,64,0
81120,note_off,120,0,4,,,,,,,,,,,,57,64,0
81120,note_on,0,0,4,,,,,,,,,,,,58,64,0
81120,note_off,480,0,2,,,,,,,,,,,,67,64,0
81120,note_on,0,0,2,,,,,,,,,,,,67,64,0
81120,note_on,0,0,1,,,,,,,,,,,,67,64,0
81120,note_off,120,0,1,,,,,,,,,,,,69,64,0
81120,note_on,0,0,3,,,,,,,,,,,,43,64,0
81240,note_off,120,0,3,,,,,,,,,,,,43,64,0
81240,note_on,0,0,3,,,,,,,,,,,,55,64,0
81360,note_off,120,0,3,,,,,,,,,,,,55,64,0
81360,note_off,240,0,2,,,,,,,,,,,,67,64,0
81360,note_on,0,0,3,,,,,,,,,,,,53,64,0
81360,note_off,240,0,4,,,,,,,,,,,,58,64,0
81360,note_on,0,0,4,,,,,,,,,,,,60,64,0
81360,note_on,0,0,2,,,,,,,,,,,,69,64,0
81480,note_off,120,0,3,,,,,,,,,,,,53,64,0
81480,note_on,0,0,3,,,,,,,,,,,,51,64,0
81600,note_off,240,0,4,,,,,,,,,,,,60,64,0
81600,note_on,0,0,4,,,,,,,,,,,,62,64,0
81600,note_on,0,0,3,,,,,,,,,,,,50,64,0
81600,note_off,120,0,3,,,,,,,,,,,,51,64,0
81600,note_on,0,0,2,,,,,,,,,,,,70,64,0
81600,note_off,240,0,2,,,,,,,,,,,,69,64,0
81720,note_on,0,0,3,,,,,,,,,,,,48,64,0
81720,note_off,120,0,3,,,,,,,,,,,,50,64,0
81840,note_on,0,0,2,,,,,,,,,,,,72,64,0
81840,note_off,720,0,1,,,,,,,,,,,,67,64,0
81840,note_on,0,0,1,,,,,,,,,,,,69,64,0
81840,note_on,0,0,3,,,,,,,,,,,,46,64,0
81840,note_off,120,0,3,,,,,,,,,,,,48,64,0
81840,note_off,240,0,2,,,,,,,,,,,,70,64,0
81960,note_on,0,0,3,,,,,,,,,,,,45,64,0
81960,note_off,120,0,3,,,,,,,,,,,,46,64,0
82080,note_off,240,0,1,,,,,,,,,,,,69,64,0
82080,note_on,0,0,1,,,,,,,,,,,,70,64,0
82080,note_on,0,0,3,,,,,,,,,,,,43,64,0
82080,note_off,120,0,3,,,,,,,,,,,,45,64,0
82080,note_on,0,0,2,,,,,,,,,,,,74,64,0
82080,note_off,240,0,2,,,,,,,,,,,,72,64,0
82320,note_on,0,0,4,,,,,,,,,,,,60,64,0
82320,note_off,720,0,4,,,,,,,,,,,,62,64,0
82320,note_off,240,0,2,,,,,,,,,,,,74,64,0
82320,note_on,0,0,2,,,,,,,,,,,,75,64,0
82320,note_on,0,0,1,,,,,,,,,,,,72,64,0
82320,note_off,240,0,1,,,,,,,,,,,,70,64,0
82440,note_off,120,0,4,,,,,,,,,,,,60,64,0
82440,note_on,0,0,4,,,,,,,,,,,,58,64,0
82560,note_off,480,0,3,,,,,,,,,,,,43,64,0
82560,note_on,0,0,1,,,,,,,,,,,,74,64,0
82560,note_off,240,0,2,,,,,,,,,,,,75,64,0
82560,note_on,0,0,2,,,,,,,,,,,,66,64,0
82560,note_off,240,0,1,,,,,,,,,,,,72,64,0
82560,note_off,120,0,4,,,,,,,,,,,,58,64,0
82560,note_on,0,0,4,,,,,,,,,,,,57,64,0
82800,note_on,0,0,1,,,,,,,,,,,,75,64,0
82800,note_off,240,0,1,,,,,,,,,,,,74,64,0
82800,note_on,0,0,4,,,,,,,,,,,,54,64,0
82800,note_off,240,0,4,,,,,,,,,,,,57,64,0
82800,note_on,240,0,3,,,,,,,,,,,,45,64,0
83040,note_on,0,0,1,,,,,,,,,,,,74,64,0
83040,note_off,240,0,4,,,,,,,,,,,,54,64,0
83040,note_off,240,0,1,,,,,,,,,,,,75,64,0
83040,note_on,0,0,4,,,,,,,,,,,,55,64,0
83040,note_off,480,0,2,,,,,,,,,,,,66,64,0
83040,note_on,0,0,3,,,,,,,,,,,,46,64,0
83040,note_off,240,0,3,,,,,,,,,,,,45,64,0
83280,note_off,240,0,3,,,,,,,,,,,,46,64,0
83280,note_on,0,0,4,,,,,,,,,,,,57,64,0
83280,note_off,240,0,4,,,,,,,,,,,,55,64,0
83280,note_off,240,0,1,,,,,,,,,,,,74,64,0
83280,note_on,0,0,1,,,,,,,,,,,,72,64,0
83280,note_on,0,0,3,,,,,,,,,,,,48,64,0
83520,note_on,0,0,4,,,,,,,,,,,,50,64,0
83520,note_on,0,0,3,,,,,,,,,,,,50,64,0
83520,note_off,240,0,3,,,,,,,,,,,,48,64,0
83520,note_on,0,0,1,,,,,,,,,,,,70,64,0
83520,note_off,240,0,1,,,,,,,,,,,,72,64,0
83520,note_off,240,0,4,,,,,,,,,,,,57,64,0
83760,note_on,0,0,1,,,,,,,,,,,,69,64,0
83760,note_on,0,0,3,,,,,,,,,,,,53,64,0
83760,note_off,240,0,1,,,,,,,,,,,,70,64,0
83760,note_off,240,0,3,,,,,,,,,,,,50,64,0
84000,note_on,0,0,1,,,,,,,,,,,,67,64,0
84000,note_off,240,0,1,,,,,,,,,,,,69,64,0
84000,note_on,960,0,2,,,,,,,,,,,,74,64,0
84000,note_off,480,0,4,,,,,,,,,,,,50,64,0
84000,note_off,240,0,3,,,,,,,,,,,,53,64,0
84000,note_on,0,0,3,,,,,,,,,,,,52,64,0
84240,note_on,0,0,3,,,,,,,,,,,,55,64,0
84240,note_off,240,0,1,,,,,,,,,,,,67,64,0
84240,note_on,0,0,1,,,,,,,,,,,,70,64,0
84240,note_off,240,0,3,,,,,,,,,,,,52,64,0
84480,note_on,0,0,3,,,,,,,,,,,,53,64,0
84480,note_off,240,0,3,,,,,,,,,,,,55,64,0
84480,note_on,0,0,1,,,,,,,,,,,,69,64,0
84480,note_off,240,0,1,,,,,,,,,,,,70,64,0
84720,note_on,0,0,3,,,,,,,,,,,,52,64,0
84720,note_off,720,0,2,,,,,,,,,,,,74,64,0
84720,note_on,0,0,2,,,,,,,,,,,,73,64,0
84720,note_off,240,0,3,,,,,,,,,,,,53,64,0
84720,note_on,720,0,4,,,,,,,,,,,,52,64,0
84840,note_off,120,0,3,,,,,,,,,,,,52,64,0
84840,note_on,0,0,3,,,,,,,,,,,,50,64,0
84960,note_off,120,0,3,,,,,,,,,,,,50,64,0
84960,note_off,240,0,2,,,,,,,,,,,,73,64,0
84960,note_on,0,0,3,,,,,,,,,,,,49,64,0
84960,note_on,0,0,4,,,,,,,,,,,,53,64,0
84960,note_off,240,0,4,,,,,,,,,,,,52,64,0
84960,note_on,0,0,2,,,,,,,,,,,,69,64,0
85200,note_on,0,0,2,,,,,,,,,,,,71,64,0
85200,note_off,240,0,4,,,,,,,,,,,,53,64,0
85200,note_on,0,0,4,,,,,,,,,,,,55,64,0
85200,note_off,240,0,2,,,,,,,,,,,,69,64,0
85440,note_off,480,0,3,,,,,,,,,,,,49,64,0
85440,note_off,240,0,2,,,,,,,,,,,,71,64,0
85440,note_on,0,0,2,,,,,,,,,,,,72,64,0
85440,note_on,0,0,4,,,,,,,,,,,,57,64,0
85440,note_off,240,0,4,,,,,,,,,,,,55,64,0
85680,note_off,1200,0,1,,,,,,,,,,,,69,64,0
85680,note_on,0,0,1,,,,,,,,,,,,67,64,0
85680,note_on,240,0,3,,,,,,,,,,,,51,64,0
85920,note_on,0,0,1,,,,,,,,,,,,66,64,0
85920,note_off,240,0,1,,,,,,,,,,,,67,64,0
85920,note_off,240,0,3,,,,,,,,,,,,51,64,0
85920,note_on,0,0,3,,,,,,,,,,,,50,64,0
86160,note_off,240,0,1,,,,,,,,,,,,66,64,0
86160,note_on,0,0,1,,,,,,,,,,,,69,64,0
86160,note_off,240,0,3,,,,,,,,,,,,50,64,0
86160,note_on,0,0,3,,,,,,,,,,,,53,64,0
86400,note_off,960,0,4,,,,,,,,,,,,57,64,0
86400,note_off,240,0,3,,,,,,,,,,,,53,64,0
86400,note_on,0,0,3,,,,,,,,,,,,51,64,0
86400,note_on,0,0,1,,,,,,,,,,,,67,64,0
86400,note_off,240,0,1,,,,,,,,,,,,69,64,0
86640,note_on,0,0,2,,,,,,,,,,,,71,64,0
86640,note_on,0,0,3,,,,,,,,,,,,50,64,0
86640,note_on,240,0,4,,,,,,,,,,,,50,64,0
86640,note_off,1200,0,2,,,,,,,,,,,,72,64,0
86640,note_off,240,0,3,,,,,,,,,,,,51,64,0
86760,note_off,120,0,3,,,,,,,,,,,,50,64,0
86760,note_on,0,0,3,,,,,,,,,,,,48,64,0
86880,note_off,120,0,3,,,,,,,,,,,,48,64,0
86880,note_on,0,0,3,,,,,,,,,,,,47,64,0
86880,note_off,240,0,4,,,,,,,,,,,,50,64,0
86880,note_on,0,0,2,,,,,,,,,,,,67,64,0
86880,note_on,0,0,4,,,,,,,,,,,,52,64,0
86880,note_off,240,0,2,,,,,,,,,,,,71,64,0
87120,note_off,240,0,2,,,,,,,,,,,,67,64,0
87120,note_on,0,0,2,,,,,,,,,,,,69,64,0
87120,note_on,0,0,4,,,,,,,,,,,,54,64,0
87120,note_off,240,0,4,,,,,,,,,,,,52,64,0
87360,note_off,480,0,3,,,,,,,,,,,,47,64,0
87360,note_off,240,0,4,,,,,,,,,,,,54,64,0
87360,note_on,0,0,4,,,,,,,,,,,,55,64,0
87360,note_off,240,0,2,,,,,,,,,,,,69,64,0
87360,note_on,0,0,2,,,,,,,,,,,,70,64,0
87600,note_on,240,0,3,,,,,,,,,,,,50,64,0
87600,note_off,1200,0,1,,,,,,,,,,,,67,64,0
87600,note_on,0,0,1,,,,,,,,,,,,65,64,0
87840,note_on,0,0,3,,,,,,,,,,,,49,64,0
87840,note_off,240,0,3,,,,,,,,,,,,50,64,0
87840,note_off,240,0,1,,,,,,,,,,,,65,64,0
87840,note_on,0,0,1,,,,,,,,,,,,64,64,0
88080,note_on,0,0,3,,,,,,,,,,,,52,64,0
88080,note_off,240,0,3,,,,,,,,,,,,49,64,0
88080,note_off,240,0,1,,,,,,,,,,,,64,64,0
88080,note_on,0,0,1,,,,,,,,,,,,67,64,0
88320,note_on,0,0,3,,,,,,,,,,,,50,64,0
88320,note_off,960,0,4,,,,,,,,,,,,55,64,0
88320,note_off,240,0,3,,,,,,,,,,,,52,64,0
88320,note_on,0,0,1,,,,,,,,,,,,65,64,0
88320,note_off,240,0,1,,,,,,,,,,,,67,64,0
88560,note_on,0,0,3,,,,,,,,,,,,48,64,0
88560,note_on,0,0,2,,,,,,,,,,,,69,64,0
88560,note_off,1200,0,2,,,,,,,,,,,,70,64,0
88560,note_off,240,0,3,,,,,,,,,,,,50,64,0
88800,note_off,240,0,3,,,,,,,,,,,,48,64,0
88800,note_on,0,0,3,,,,,,,,,,,,47,64,0
88800,note_off,240,0,2,,,,,,,,,,,,69,64,0
88800,note_on,480,0,4,,,,,,,,,,,,50,64,0
88800,note_off,480,0,1,,,,,,,,,,,,65,64,0
88800,note_on,0,0,2,,,,,,,,,,,,68,64,0
89040,note_on,240,0,1,,,,,,,,,,,,65,64,0
89040,note_off,240,0,3,,,,,,,,,,,,47,64,0
89040,note_on,0,0,3,,,,,,,,,,,,50,64,0
89040,note_off,240,0,2,,,,,,,,,,,,68,64,0
89040,note_on,0,0,2,,,,,,,,,,,,69,64,0
89280,note_on,0,0,4,,,,,,,,,,,,51,64,0
89280,note_off,240,0,2,,,,,,,,,,,,69,64,0
89280,note_off,480,0,4,,,,,,,,,,,,50,64,0
89280,note_on,0,0,1,,,,,,,,,,,,72,64,0
89280,note_on,0,0,2,,,,,,,,,,,,68,64,0
89280,note_off,240,0,3,,,,,,,,,,,,50,64,0
89280,note_off,240,0,1,,,,,,,,,,,,65,64,0
89280,note_on,0,0,3,,,,,,,,,,,,48,64,0
89520,note_on,0,0,3,,,,,,,,,,,,47,64,0
89520,note_off,240,0,3,,,,,,,,,,,,48,64,0
89520,note_off,240,0,2,,,,,,,,,,,,68,64,0
89520,note_on,0,0,2,,,,,,,,,,,,67,64,0
89760,note_off,480,0,4,,,,,,,,,,,,51,64,0
89760,note_off,240,0,2,,,,,,,,,,,,67,64,0
89760,note_on,0,0,2,,,,,,,,,,,,66,64,0
89760,note_off,480,0,1,,,,,,,,,,,,72,64,0
89760,note_off,240,0,3,,,,,,,,,,,,47,64,0
89760,note_on,0,0,3,,,,,,,,,,,,48,64,0
89760,note_on,0,0,4,,,,,,,,,,,,45,64,0
90000,note_off,240,0,2,,,,,,,,,,,,66,64,0
90000,note_on,0,0,2,,,,,,,,,,,,67,64,0
90000,note_on,240,0,1,,,,,,,,,,,,75,64,0
90240,note_off,240,0,1,,,,,,,,,,,,75,64,0
90240,note_off,240,0,2,,,,,,,,,,,,67,64,0
90240,note_on,0,0,2,,,,,,,,,,,,66,64,0
90240,note_on,0,0,4,,,,,,,,,,,,57,64,0
90240,note_off,480,0,4,,,,,,,,,,,,45,64,0
90240,note_on,0,0,1,,,,,,,,,,,,74,64,0
90360,note_off,120,0,4,,,,,,,,,,,,57,64,0
90360,note_on,0,0,4,,,,,,,,,,,,58,64,0
90480,note_on,0,0,2,,,,,,,,,,,,64,64,0
90480,note_on,0,0,4,,,,,,,,,,,,60,64,0
90480,note_off,120,0,4,,,,,,,,,,,,58,64,0
90480,note_off,240,0,2,,,,,,,,,,,,66,64,0
90480,note_on,0,0,3,,,,,,,,,,,,43,64,0
90480,note_off,720,0,3,,,,,,,,,,,,48,64,0
90720,note_on,0,0,3,,,,,,,,,,,,42,64,0
90720,note_off,240,0,3,,,,,,,,,,,,43,64,0
90720,note_off,480,0,1,,,,,,,,,,,,74,64,0
90720,note_off,240,0,2,,,,,,,,,,,,64,64,0
90720,note_on,0,0,2,,,,,,,,,,,,62,64,0
90960,note_on,0,0,4,,,,,,,,,,,,58,64,0
90960,note_on,240,0,1,,,,,,,,,,,,67,64,0
90960,note_off,480,0,4,,,,,,,,,,,,60,64,0
90960,note_off,240,0,3,,,,,,,,,,,,42,64,0
90960,note_on,0,0,3,,,,,,,,,,,,43,64,0
90960,note_off,240,0,2,,,,,,,,,,,,62,64,0
90960,note_on,0,0,2,,,,,,,,,,,,63,64,0
91200,note_on,0,0,2,,,,,,,,,,,,62,64,0
91200,note_on,0,0,1,,,,,,,,,,,,66,64,0
91200,note_on,0,0,3,,,,,,,,,,,,45,64,0
91200,note_off,240,0,3,,,,,,,,,,,,43,64,0
91200,note_off,240,0,4,,,,,,,,,,,,58,64,0
91200,note_on,0,0,4,,,,,,,,,,,,60,64,0
91200,note_off,240,0,1,,,,,,,,,,,,67,64,0
91200,note_off,240,0,2,,,,,,,,,,,,63,64,0
91440,note_off,240,0,4,,,,,,,,,,,,60,64,0
91440,note_on,0,0,4,,,,,,,,,,,,57,64,0
91440,note_off,240,0,2,,,,,,,,,,,,62,64,0
91440,note_on,0,0,2,,,,,,,,,,,,66,64,0
91440,note_on,0,0,3,,,,,,,,,,,,38,64,0
91440,note_off,240,0,3,,,,,,,,,,,,45,64,0
91680,note_on,0,0,2,,,,,,,,,,,,69,64,0
91680,note_off,240,0,2,,,,,,,,,,,,66,64,0
91680,note_off,480,0,1,,,,,,,,,,,,66,64,0
91680,note_off,240,0,3,,,,,,,,,,,,38,64,0
91680,note_on,0,0,3,,,,,,,,,,,,50,64,0
91680,note_off,240,0,4,,,,,,,,,,,,57,64,0
91680,note_on,0,0,4,,,,,,,,,,,,54,64,0
91920,note_on,0,0,2,,,,,,,,,,,,72,64,0
91920,note_off,240,0,2,,,,,,,,,,,,69,64,0
91920,note_on,240,0,1,,,,,,,,,,,,62,64,0
92160,note_on,0,0,2,,,,,,,,,,,,70,64,0
92160,note_on,0,0,1,,,,,,,,,,,,67,64,0
92160,note_off,240,0,1,,,,,,,,,,,,62,64,0
92160,note_off,480,0,4,,,,,,,,,,,,54,64,0
92160,note_on,0,0,4,,,,,,,,,,,,55,64,0
92160,note_off,240,0,2,,,,,,,,,,,,72,64,0
92400,note_on,0,0,2,,,,,,,,,,,,74,64,0
92400,note_off,240,0,2,,,,,,,,,,,,70,64,0
92640,note_off,480,0,4,,,,,,,,,,,,55,64,0
92640,note_on,0,0,3,,,,,,,,,,,,48,64,0
92640,note_off,960,0,3,,,,,,,,,,,,50,64,0
92640,note_on,0,0,2,,,,,,,,,,,,78,64,0
92640,note_off,480,0,1,,,,,,,,,,,,67,64,0
92640,note_off,240,0,2,,,,,,,,,,,,74,64,0
92640,note_on,0,0,1,,,,,,,,,,,,63,64,0
92880,note_on,240,0,4,,,,,,,,,,,,46,64,0
92880,note_on,0,0,3,,,,,,,,,,,,46,64,0
92880,note_off,240,0,3,,,,,,,,,,,,48,64,0
92880,note_off,240,0,2,,,,,,,,,,,,78,64,0
92880,note_on,0,0,2,,,,,,,,,,,,79,64,0
93120,note_on,0,0,2,,,,,,,,,,,,69,64,0
93120,note_off,240,0,2,,,,,,,,,,,,79,64,0
93120,note_on,0,0,1,,,,,,,,,,,,60,64,0
93120,note_off,240,0,3,,,,,,,,,,,,46,64,0
93120,note_on,0,0,3,,,,,,,,,,,,48,64,0
93120,note_on,0,0,4,,,,,,,,,,,,51,64,0
93120,note_off,480,0,1,,,,,,,,,,,,63,64,0
93120,note_off,240,0,4,,,,,,,,,,,,46,64,0
93360,note_off,240,0,2,,,,,,,,,,,,69,64,0
93360,note_on,0,0,2,,,,,,,,,,,,75,64,0
93600,note_on,0,0,1,,,,,,,,,,,,62,64,0
93600,note_off,480,0,1,,,,,,,,,,,,60,64,0
93600,note_off,480,0,3,,,,,,,,,,,,48,64,0
93600,note_on,0,0,3,,,,,,,,,,,,46,64,0
93600,note_off,480,0,4,,,,,,,,,,,,51,64,0
93600,note_off,240,0,2,,,,,,,,,,,,75,64,0
93600,note_on,0,0,2,,,,,,,,,,,,74,64,0
93840,note_off,240,0,3,,,,,,,,,,,,46,64,0
93840,note_on,0,0,3,,,,,,,,,,,,45,64,0
93840,note_on,240,0,4,,,,,,,,,,,,42,64,0
93840,note_on,0,0,2,,,,,,,,,,,,72,64,0
93840,note_off,240,0,2,,,,,,,,,,,,74,64,0
94080,note_off,240,0,2,,,,,,,,,,,,72,64,0
94080,note_off,480,0,1,,,,,,,,,,,,62,64,0
94080,note_on,0,0,1,,,,,,,,,,,,67,64,0
94080,note_on,0,0,2,,,,,,,,,,,,70,64,0
94080,note_off,240,0,4,,,,,,,,,,,,42,64,0
94080,note_on,0,0,4,,,,,,,,,,,,43,64,0
94080,note_off,240,0,3,,,,,,,,,,,,45,64,0
94080,note_on,0,0,3,,,,,,,,,,,,46,64,0
94200,note_on,0,0,2,,,,,,,,,,,,69,64,0
94200,note_off,120,0,2,,,,,,,,,,,,70,64,0
94200,note_on,0,0,3,,,,,,,,,,,,48,64,0
94200,note_off,120,0,3,,,,,,,,,,,,46,64,0
94320,note_off,120,0,3,,,,,,,,,,,,48,64,0
94320,note_on,0,0,3,,,,,,,,,,,,46,64,0
94320,note_off,240,0,1,,,,,,,,,,,,67,64,0
94320,note_off,120,0,2,,,,,,,,,,,,69,64,0
94320,note_on,0,0,2,,,,,,,,,,,,67,64,0
94320,note_on,0,0,1,,,,,,,,,,,,79,64,0
94440,note_on,0,0,1,,,,,,,,,,,,81,64,0
94440,note_off,120,0,2,,,,,,,,,,,,67,64,0
94440,note_on,0,0,2,,,,,,,,,,,,66,64,0
94440,note_off,120,0,1,,,,,,,,,,,,79,64,0
94440,note_off,120,0,3,,,,,,,,,,,,46,64,0
94440,note_on,0,0,3,,,,,,,,,,,,45,64,0
94560,note_on,0,0,4,,,,,,,,,,,,43,64,0
94560,note_off,120,0,3,,,,,,,,,,,,45,64,0
94560,note_on,0,0,3,,,,,,,,,,,,43,64,0
94560,note_off,120,0,2,,,,,,,,,,,,66,64,0
94560,note_on,0,0,1,,,,,,,,,,,,82,64,0
94560,note_off,120,0,1,,,,,,,,,,,,81,64,0
94560,note_on,0,0,2,,,,,,,,,,,,67,64,0
94560,note_off,480,0,4,,,,,,,,,,,,43,64,0
94680,note_on,0,0,2,,,,,,,,,,,,79,64,0
94680,note_off,120,0,2,,,,,,,,,,,,67,64,0
94800,note_off,120,0,2,,,,,,,,,,,,79,64,0
94800,note_on,0,0,4,,,,,,,,,,,,45,64,0
94800,note_on,0,0,1,,,,,,,,,,,,84,64,0
94800,note_on,0,0,2,,,,,,,,,,,,77,64,0
94800,note_off,240,0,4,,,,,,,,,,,,43,64,0
94800,note_off,240,0,1,,,,,,,,,,,,82,64,0
94920,note_off,120,0,2,,,,,,,,,,,,77,64,0
94920,note_on,0,0,2,,,,,,,,,,,,75,64,0
95040,note_on,0,0,4,,,,,,,,,,,,46,64,0
95040,note_on,0,0,1,,,,,,,,,,,,86,64,0
95040,note_off,120,0,2,,,,,,,,,,,,75,64,0
95040,note_on,0,0,2,,,,,,,,,,,,74,64,0
95040,note_off,240,0,1,,,,,,,,,,,,84,64,0
95040,note_off,240,0,4,,,,,,,,,,,,45,64,0
95160,note_off,120,0,2,,,,,,,,,,,,74,64,0
95160,note_on,0,0,2,,,,,,,,,,,,72,64,0
95280,note_off,720,0,3,,,,,,,,,,,,43,64,0
95280,note_off,240,0,4,,,,,,,,,,,,46,64,0
95280,note_on,0,0,4,,,,,,,,,,,,48,64,0
95280,note_on,0,0,3,,,,,,,,,,,,45,64,0
95280,note_off,120,0,2,,,,,,,,,,,,72,64,0
95280,note_on,0,0,2,,,,,,,,,,,,70,64,0
95400,note_off,120,0,2,,,,,,,,,,,,70,64,0
95400,note_on,0,0,2,,,,,,,,,,,,69,64,0
95520,note_on,0,0,4,,,,,,,,,,,,50,64,0
95520,note_off,240,0,4,,,,,,,,,,,,48,64,0
95520,note_off,240,0,3,,,,,,,,,,,,45,64,0
95520,note_on,0,0,3,,,,,,,,,,,,46,64,0
95520,note_on,0,0,2,,,,,,,,,,,,67,64,0
95520,note_off,120,0,2,,,,,,,,,,,,69,64,0
95760,note_on,0,0,1,,,,,,,,,,,,84,64,0
95760,note_off,240,0,4,,,,,,,,,,,,50,64,0
95760,note_on,0,0,3,,,,,,,,,,,,48,64,0
95760,note_off,240,0,3,,,,,,,,,,,,46,64,0
95760,note_on,0,0,4,,,,,,,,,,,,51,64,0
95760,note_off,720,0,1,,,,,,,,,,,,86,64,0
95880,note_off,120,0,1,,,,,,,,,,,,84,64,0
95880,note_on,0,0,1,,,,,,,,,,,,82,64,0
96000,note_off,120,0,1,,,,,,,,,,,,82,64,0
96000,note_on,0,0,1,,,,,,,,,,,,81,64,0
96000,note_on,0,0,3,,,,,,,,,,,,50,64,0
96000,note_off,480,0,2,,,,,,,,,,,,67,64,0
96000,note_on,0,0,4,,,,,,,,,,,,42,64,0
96000,note_off,240,0,3,,,,,,,,,,,,48,64,0
96000,note_off,240,0,4,,,,,,,,,,,,51,64,0
96240,note_on,240,0,2,,,,,,,,,,,,69,64,0
96240,note_on,0,0,3,,,,,,,,,,,,51,64,0
96240,note_off,240,0,3,,,,,,,,,,,,50,64,0
96240,note_on,0,0,1,,,,,,,,,,,,78,64,0
96240,note_off,240,0,1,,,,,,,,,,,,81,64,0
96480,note_off,240,0,3,,,,,,,,,,,,51,64,0
96480,note_on,0,0,1,,,,,,,,,,,,79,64,0
96480,note_off,240,0,1,,,,,,,,,,,,78,64,0
96480,note_off,240,0,2,,,,,,,,,,,,69,64,0
96480,note_off,480,0,4,,,,,,,,,,,,42,64,0
96480,note_on,0,0,3,,,,,,,,,,,,50,64,0
96480,note_on,0,0,2,,,,,,,,,,,,70,64,0
96720,note_off,240,0,2,,,,,,,,,,,,70,64,0
96720,note_on,0,0,2,,,,,,,,,,,,72,64,0
96720,note_off,240,0,1,,,,,,,,,,,,79,64,0
96720,note_on,0,0,1,,,,,,,,,,,,81,64,0
96720,note_off,240,0,3,,,,,,,,,,,,50,64,0
96720,note_on,0,0,3,,,,,,,,,,,,48,64,0
96960,note_off,240,0,3,,,,,,,,,,,,48,64,0
96960,note_off,240,0,2,,,,,,,,,,,,72,64,0
96960,note_off,240,0,1,,,,,,,,,,,,81,64,0
96960,note_on,0,0,1,,,,,,,,,,,,74,64,0
96960,note_on,0,0,2,,,,,,,,,,,,74,64,0
96960,note_on,0,0,3,,,,,,,,,,,,46,64,0
97200,note_on,0,0,2,,,,,,,,,,,,77,64,0
97200,note_off,240,0,2,,,,,,,,,,,,74,64,0
97200,note_on,0,0,3,,,,,,,,,,,,45,64,0
97200,note_off,240,0,3,,,,,,,,,,,,46,64,0
97440,note_on,960,0,4,,,,,,,,,,,,50,64,0
97440,note_on,0,0,3,,,,,,,,,,,,43,64,0
97440,note_on,0,0,2,,,,,,,,,,,,76,64,0
97440,note_off,240,0,3,,,,,,,,,,,,45,64,0
97440,note_off,480,0,1,,,,,,,,,,,,74,64,0
97440,note_off,240,0,2,,,,,,,,,,,,77,64,0
97680,note_off,240,0,3,,,,,,,,,,,,43,64,0
97680,note_on,0,0,3,,,,,,,,,,,,46,64,0
97680,note_on,0,0,2,,,,,,,,,,,,79,64,0
97680,note_off,240,0,2,,,,,,,,,,,,76,64,0
97920,note_off,240,0,2,,,,,,,,,,,,79,64,0
97920,note_on,0,0,2,,,,,,,,,,,,77,64,0
97920,note_off,240,0,3,,,,,,,,,,,,46,64,0
97920,note_on,0,0,3,,,,,,,,,,,,45,64,0
98160,note_off,240,0,2,,,,,,,,,,,,77,64,0
98160,note_on,0,0,2,,,,,,,,,,,,76,64,0
98160,note_on,0,0,4,,,,,,,,,,,,49,64,0
98160,note_off,720,0,4,,,,,,,,,,,,50,64,0
98160,note_on,720,0,1,,,,,,,,,,,,76,64,0
98280,note_off,120,0,2,,,,,,,,,,,,76,64,0
98280,note_on,0,0,2,,,,,,,,,,,,74,64,0
98400,note_on,0,0,2,,,,,,,,,,,,73,64,0
98400,note_off,240,0,1,,,,,,,,,,,,76,64,0
98400,note_on,0,0,1,,,,,,,,,,,,77,64,0
98400,note_off,120,0,2,,,,,,,,,,,,74,64,0
98400,note_on,0,0,4,,,,,,,,,,,,45,64,0
98400,note_off,240,0,4,,,,,,,,,,,,49,64,0
98640,note_off,240,0,4,,,,,,,,,,,,45,64,0
98640,note_off,240,0,1,,,,,,,,,,,,77,64,0
98640,note_on,0,0,4,,,,,,,,,,,,47,64,0
98640,note_on,0,0,1,,,,,,,,,,,,79,64,0
98880,note_on,0,0,4,,,,,,,,,,,,48,64,0
98880,note_off,240,0,4,,,,,,,,,,,,47,64,0
98880,note_off,240,0,1,,,,,,,,,,,,79,64,0
98880,note_off,480,0,2,,,,,,,,,,,,73,64,0
98880,note_on,0,0,1,,,,,,,,,,,,81,64,0
99120,note_on,240,0,2,,,,,,,,,,,,75,64,0
99120,note_off,1200,0,3,,,,,,,,,,,,45,64,0
99120,note_on,0,0,3,,,,,,,,,,,,43,64,0
99360,note_off,240,0,2,,,,,,,,,,,,75,64,0
99360,note_on,0,0,2,,,,,,,,,,,,74,64,0
99360,note_on,0,0,3,,,,,,,,,,,,42,64,0
99360,note_off,240,0,3,,,,,,,,,,,,43,64,0
99600,note_on,0,0,2,,,,,,,,,,,,77,64,0
99600,note_off,240,0,2,,,,,,,,,,,,74,64,0
99600,note_on,0,0,3,,,,,,,,,,,,45,64,0
99600,note_off,240,0,3,,,,,,,,,,,,42,64,0
99840,note_off,960,0,1,,,,,,,,,,,,81,64,0
99840,note_off,240,0,2,,,,,,,,,,,,77,64,0
99840,note_on,0,0,3,,,,,,,,,,,,43,64,0
99840,note_on,0,0,2,,,,,,,,,,,,75,64,0
99840,note_off,240,0,3,,,,,,,,,,,,45,64,0
100080,note_on,0,0,4,,,,,,,,,,,,47,64,0
100080,note_off,1200,0,4,,,,,,,,,,,,48,64,0
100080,note_on,240,0,1,,,,,,,,,,,,74,64,0
100080,note_on,0,0,2,,,,,,,,,,,,74,64,0
100080,note_off,240,0,2,,,,,,,,,,,,75,64,0
100200,note_off,120,0,2,,,,,,,,,,,,74,64,0
100200,note_on,0,0,2,,,,,,,,,,,,72,64,0
100320,note_off,240,0,1,,,,,,,,,,,,74,64,0
100320,note_on,0,0,1,,,,,,,,,,,,76,64,0
100320,note_off,120,0,2,,,,,,,,,,,,72,64,0
100320,note_on,0,0,2,,,,,,,,,,,,71,64,0
100320,note_off,240,0,4,,,,,,,,,,,,47,64,0
100320,note_on,0,0,4,,,,,,,,,,,,43,64,0
100560,note_off,240,0,1,,,,,,,,,,,,76,64,0
100560,note_on,0,0,1,,,,,,,,,,,,78,64,0
100560,note_on,0,0,4,,,,,,,,,,,,45,64,0
100560,note_off,240,0,4,,,,,,,,,,,,43,64,0
100800,note_on,0,0,1,,,,,,,,,,,,79,64,0
100800,note_off,240,0,4,,,,,,,,,,,,45,64,0
100800,note_on,0,0,4,,,,,,,,,,,,46,64,0
100800,note_off,480,0,2,,,,,,,,,,,,71,64,0
100800,note_off,240,0,1,,,,,,,,,,,,78,64,0
101040,note_on,0,0,3,,,,,,,,,,,,41,64,0
101040,note_off,1200,0,3,,,,,,,,,,,,43,64,0
101040,note_on,240,0,2,,,,,,,,,,,,74,64,0
101280,note_on,0,0,3,,,,,,,,,,,,40,64,0
101280,note_on,0,0,2,,,,,,,,,,,,73,64,0
101280,note_off,240,0,2,,,,,,,,,,,,74,64,0
101280,note_off,240,0,3,,,,,,,,,,,,41,64,0
101520,note_on,0,0,3,,,,,,,,,,,,43,64,0
101520,note_off,240,0,3,,,,,,,,,,,,40,64,0
101520,note_on,0,0,2,,,,,,,,,,,,76,64,0
101520,note_off,240,0,2,,,,,,,,,,,,73,64,0
101760,note_on,0,0,2,,,,,,,,,,,,74,64,0
101760,note_off,240,0,2,,,,,,,,,,,,76,64,0
101760,note_off,240,0,3,,,,,,,,,,,,43,64,0
101760,note_on,0,0,3,,,,,,,,,,,,41,64,0
101760,note_off,960,0,1,,,,,,,,,,,,79,64,0
102000,note_off,240,0,2,,,,,,,,,,,,74,64,0
102000,note_off,1200,0,4,,,,,,,,,,,,46,64,0
102000,note_on,0,0,4,,,,,,,,,,,,45,64,0
102000,note_on,0,0,2,,,,,,,,,,,,72,64,0
102240,note_on,0,0,4,,,,,,,,,,,,44,64,0
102240,note_on,0,0,2,,,,,,,,,,,,71,64,0
102240,note_off,240,0,2,,,,,,,,,,,,72,64,0
102240,note_off,240,0,4,,,,,,,,,,,,45,64,0
102240,note_on,480,0,1,,,,,,,,,,,,74,64,0
102240,note_off,480,0,3,,,,,,,,,,,,41,64,0
102480,note_off,240,0,2,,,,,,,,,,,,71,64,0
102480,note_off,240,0,4,,,,,,,,,,,,44,64,0
102480,note_on,240,0,3,,,,,,,,,,,,41,64,0
102480,note_on,0,0,2,,,,,,,,,,,,74,64,0
102480,note_on,0,0,4,,,,,,,,,,,,45,64,0
102720,note_off,240,0,4,,,,,,,,,,,,45,64,0
102720,note_on,0,0,4,,,,,,,,,,,,44,64,0
102720,note_off,240,0,3,,,,,,,,,,,,41,64,0
102720,note_on,0,0,1,,,,,,,,,,,,75,64,0
102720,note_off,480,0,1,,,,,,,,,,,,74,64,0
102720,note_on,0,0,2,,,,,,,,,,,,72,64,0
102720,note_on,0,0,3,,,,,,,,,,,,48,64,0
102720,note_off,240,0,2,,,,,,,,,,,,74,64,0
102960,note_on,0,0,2,,,,,,,,,,,,71,64,0
102960,note_off,240,0,2,,,,,,,,,,,,72,64,0
102960,note_off,240,0,4,,,,,,,,,,,,44,64,0
102960,note_on,0,0,4,,,,,,,,,,,,43,64,0
103200,note_off,240,0,4,,,,,,,,,,,,43,64,0
103200,note_off,240,0,2,,,,,,,,,,,,71,64,0
103200,note_off,480,0,1,,,,,,,,,,,,75,64,0
103200,note_on,0,0,1,,,,,,,,,,,,69,64,0
103200,note_off,480,0,3,,,,,,,,,,,,48,64,0
103200,note_on,0,0,2,,,,,,,,,,,,72,64,0
103200,note_on,0,0,4,,,,,,,,,,,,42,64,0
103440,note_off,240,0,4,,,,,,,,,,,,42,64,0
103440,note_on,0,0,4,,,,,,,,,,,,43,64,0
103440,note_on,240,0,3,,,,,,,,,,,,51,64,0
103680,note_on,0,0,4,,,,,,,,,,,,42,64,0
103680,note_off,240,0,3,,,,,,,,,,,,51,64,0
103680,note_on,0,0,3,,,,,,,,,,,,50,64,0
103680,note_off,480,0,1,,,,,,,,,,,,69,64,0
103680,note_on,0,0,1,,,,,,,,,,,,81,64,0
103680,note_off,240,0,4,,,,,,,,,,,,43,64,0
103800,note_off,120,0,1,,,,,,,,,,,,81,64,0
103800,note_on,0,0,1,,,,,,,,,,,,82,64,0
103920,note_off,120,0,1,,,,,,,,,,,,82,64,0
103920,note_on,0,0,2,,,,,,,,,,,,67,64,0
103920,note_on,0,0,4,,,,,,,,,,,,40,64,0
103920,note_off,240,0,4,,,,,,,,,,,,42,64,0
103920,note_on,0,0,1,,,,,,,,,,,,84,64,0
103920,note_off,720,0,2,,,,,,,,,,,,72,64,0
104160,note_off,240,0,2,,,,,,,,,,,,67,64,0
104160,note_on,0,0,4,,,,,,,,,,,,38,64,0
104160,note_off,240,0,4,,,,,,,,,,,,40,64,0
104160,note_on,0,0,2,,,,,,,,,,,,66,64,0
104160,note_off,480,0,3,,,,,,,,,,,,50,64,0
104400,note_on,0,0,1,,,,,,,,,,,,82,64,0
104400,note_off,240,0,4,,,,,,,,,,,,38,64,0
104400,note_on,0,0,4,,,,,,,,,,,,39,64,0
104400,note_off,240,0,2,,,,,,,,,,,,66,64,0
104400,note_on,0,0,2,,,,,,,,,,,,67,64,0
104400,note_off,480,0,1,,,,,,,,,,,,84,64,0
104400,note_on,240,0,3,,,,,,,,,,,,43,64,0
104640,note_on,0,0,2,,,,,,,,,,,,69,64,0
104640,note_off,240,0,2,,,,,,,,,,,,67,64,0
104640,note_off,240,0,4,,,,,,,,,,,,39,64,0
104640,note_on,0,0,4,,,,,,,,,,,,38,64,0
104640,note_off,240,0,3,,,,,,,,,,,,43,64,0
104640,note_on,0,0,3,,,,,,,,,,,,42,64,0
104640,note_off,240,0,1,,,,,,,,,,,,82,64,0
104640,note_on,0,0,1,,,,,,,,,,,,84,64,0
104880,note_on,0,0,2,,,,,,,,,,,,62,64,0
104880,note_off,240,0,2,,,,,,,,,,,,69,64,0
104880,note_off,240,0,4,,,,,,,,,,,,38,64,0
104880,note_on,0,0,4,,,,,,,,,,,,42,64,0
104880,note_off,240,0,1,,,,,,,,,,,,84,64,0
104880,note_on,0,0,1,,,,,,,,,,,,81,64,0
105120,note_off,240,0,2,,,,,,,,,,,,62,64,0
105120,note_on,0,0,4,,,,,,,,,,,,45,64,0
105120,note_off,240,0,1,,,,,,,,,,,,81,64,0
105120,note_off,480,0,3,,,,,,,,,,,,42,64,0
105120,note_on,0,0,2,,,,,,,,,,,,74,64,0
105120,note_on,0,0,1,,,,,,,,,,,,78,64,0
105120,note_off,240,0,4,,,,,,,,,,,,42,64,0
105360,note_on,240,0,3,,,,,,,,,,,,38,64,0
105360,note_off,240,0,4,,,,,,,,,,,,45,64,0
105360,note_on,0,0,4,,,,,,,,,,,,48,64,0
105600,note_on,0,0,1,,,,,,,,,,,,79,64,0
105600,note_off,240,0,3,,,,,,,,,,,,38,64,0
105600,note_off,480,0,1,,,,,,,,,,,,78,64,0
105600,note_off,240,0,4,,,,,,,,,,,,48,64,0
105600,note_on,0,0,4,,,,,,,,,,,,46,64,0
105600,note_on,0,0,3,,,,,,,,,,,,43,64,0
105840,note_on,0,0,4,,,,,,,,,,,,50,64,0
105840,note_off,240,0,4,,,,,,,,,,,,46,64,0
106080,note_off,480,0,3,,,,,,,,,,,,43,64,0
106080,note_on,0,0,4,,,,,,,,,,,,54,64,0
106080,note_off,240,0,4,,,,,,,,,,,,50,64,0
106080,note_on,0,0,3,,,,,,,,,,,,39,64,0
106080,note_off,960,0,2,,,,,,,,,,,,74,64,0
106080,note_on,0,0,2,,,,,,,,,,,,72,64,0
106080,note_off,480,0,1,,,,,,,,,,,,79,64,0
106320,note_on,0,0,2,,,,,,,,,,,,70,64,0
106320,note_off,240,0,4,,,,,,,,,,,,54,64,0
106320,note_on,0,0,4,,,,,,,,,,,,55,64,0
106320,note_off,240,0,2,,,,,,,,,,,,72,64,0
106320,note_on,240,0,1,,,,,,,,,,,,70,64,0
106560,note_on,0,0,1,,,,,,,,,,,,75,64,0
106560,note_off,240,0,1,,,,,,,,,,,,70,64,0
106560,note_on,0,0,2,,,,,,,,,,,,72,64,0
106560,note_on,0,0,4,,,,,,,,,,,,45,64,0
106560,note_off,240,0,4,,,,,,,,,,,,55,64,0
106560,note_off,240,0,2,,,,,,,,,,,,70,64,0
106560,note_off,480,0,3,,,,,,,,,,,,39,64,0
106560,note_on,0,0,3,,,,,,,,,,,,36,64,0
106800,note_on,0,0,4,,,,,,,,,,,,51,64,0
106800,note_off,240,0,4,,,,,,,,,,,,45,64,0
107040,note_off,480,0,1,,,,,,,,,,,,75,64,0
107040,note_on,0,0,2,,,,,,,,,,,,70,64,0
107040,note_off,480,0,3,,,,,,,,,,,,36,64,0
107040,note_off,480,0,2,,,,,,,,,,,,72,64,0
107040,note_on,0,0,4,,,,,,,,,,,,50,64,0
107040,note_off,240,0,4,,,,,,,,,,,,51,64,0
107040,note_on,0,0,3,,,,,,,,,,,,38,64,0
107280,note_on,0,0,4,,,,,,,,,,,,48,64,0
107280,note_off,240,0,4,,,,,,,,,,,,50,64,0
107280,note_off,240,0,2,,,,,,,,,,,,70,64,0
107280,note_on,0,0,2,,,,,,,,,,,,69,64,0
107280,note_on,240,0,1,,,,,,,,,,,,66,64,0
107520,note_on,0,0,1,,,,,,,,,,,,67,64,0
107520,note_off,240,0,1,,,,,,,,,,,,66,64,0
107520,note_off,240,0,2,,,,,,,,,,,,69,64,0
107520,note_on,0,0,2,,,,,,,,,,,,70,64,0
107520,note_on,0,0,4,,,,,,,,,,,,46,64,0
107520,note_off,240,0,4,,,,,,,,,,,,48,64,0
107520,note_on,0,0,3,,,,,,,,,,,,43,64,0
107520,note_off,480,0,3,,,,,,,,,,,,38,64,0
107640,note_off,120,0,2,,,,,,,,,,,,70,64,0
107640,note_off,120,0,4,,,,,,,,,,,,46,64,0
107640,note_on,0,0,2,,,,,,,,,,,,72,64,0
107640,note_on,0,0,4,,,,,,,,,,,,45,64,0
107760,note_on,0,0,4,,,,,,,,,,,,43,64,0
107760,note_on,0,0,2,,,,,,,,,,,,70,64,0
107760,note_off,120,0,2,,,,,,,,,,,,72,64,0
107760,note_off,240,0,3,,,,,,,,,,,,43,64,0
107760,note_on,0,0,3,,,,,,,,,,,,55,64,0
107760,note_off,120,0,4,,,,,,,,,,,,45,64,0
107880,note_off,120,0,2,,,,,,,,,,,,70,64,0
107880,note_off,120,0,3,,,,,,,,,,,,55,64,0
107880,note_on,0,0,3,,,,,,,,,,,,57,64,0
107880,note_on,0,0,2,,,,,,,,,,,,69,64,0
107880,note_off,120,0,4,,,,,,,,,,,,43,64,0
107880,note_on,0,0,4,,,,,,,,,,,,42,64,0
108000,note_on,0,0,1,,,,,,,,,,,,67,64,0
108000,note_off,120,0,4,,,,,,,,,,,,42,64,0
108000,note_on,0,0,4,,,,,,,,,,,,43,64,0
108000,note_on,0,0,2,,,,,,,,,,,,67,64,0
108000,note_on,0,0,3,,,,,,,,,,,,58,64,0
108000,note_off,120,0,2,,,,,,,,,,,,69,64,0
108000,note_off,480,0,1,,,,,,,,,,,,67,64,0
108000,note_off,120,0,3,,,,,,,,,,,,57,64,0
108120,note_off,120,0,4,,,,,,,,,,,,43,64,0
108120,note_on,0,0,4,,,,,,,,,,,,55,64,0
108240,note_off,240,0,3,,,,,,,,,,,,58,64,0
108240,note_on,0,0,3,,,,,,,,,,,,60,64,0
108240,note_off,240,0,1,,,,,,,,,,,,67,64,0
108240,note_on,0,0,1,,,,,,,,,,,,69,64,0
108240,note_off,120,0,4,,,,,,,,,,,,55,64,0
108240,note_on,0,0,4,,,,,,,,,,,,53,64,0
108360,note_off,120,0,4,,,,,,,,,,,,53,64,0
108360,note_on,0,0,4,,,,,,,,,,,,51,64,0
108480,note_on,0,0,4,,,,,,,,,,,,50,64,0
108480,note_off,120,0,4,,,,,,,,,,,,51,64,0
108480,note_off,240,0,1,,,,,,,,,,,,69,64,0
108480,note_on,0,0,3,,,,,,,,,,,,62,64,0
108480,note_on,0,0,1,,,,,,,,,,,,70,64,0
108480,note_off,240,0,3,,,,,,,,,,,,60,64,0
108600,note_off,120,0,4,,,,,,,,,,,,50,64,0
108600,note_on,0,0,4,,,,,,,,,,,,48,64,0
108720,note_on,0,0,4,,,,,,,,,,,,46,64,0
108720,note_off,120,0,4,,,,,,,,,,,,48,64,0
108720,note_on,0,0,1,,,,,,,,,,,,72,64,0
108720,note_on,0,0,2,,,,,,,,,,,,69,64,0
108720,note_off,720,0,2,,,,,,,,,,,,67,64,0
108720,note_off,240,0,1,,,,,,,,,,,,70,64,0
108840,note_on,0,0,4,,,,,,,,,,,,45,64,0
108840,note_off,120,0,4,,,,,,,,,,,,46,64,0
108960,note_on,0,0,2,,,,,,,,,,,,70,64,0
108960,note_off,240,0,2,,,,,,,,,,,,69,64,0
108960,note_on,0,0,4,,,,,,,,,,,,43,64,0
108960,note_off,120,0,4,,,,,,,,,,,,45,64,0
108960,note_on,0,0,1,,,,,,,,,,,,74,64,0
108960,note_off,240,0,1,,,,,,,,,,,,72,64,0
109200,note_off,240,0,2,,,,,,,,,,,,70,64,0
109200,note_on,0,0,3,,,,,,,,,,,,60,64,0
109200,note_off,720,0,3,,,,,,,,,,,,62,64,0
109200,note_on,0,0,1,,,,,,,,,,,,75,64,0
109200,note_off,240,0,1,,,,,,,,,,,,74,64,0
109200,note_on,0,0,2,,,,,,,,,,,,72,64,0
109320,note_on,0,0,3,,,,,,,,,,,,58,64,0
109320,note_off,120,0,3,,,,,,,,,,,,60,64,0
109440,note_off,240,0,1,,,,,,,,,,,,75,64,0
109440,note_on,0,0,2,,,,,,,,,,,,74,64,0
109440,note_off,480,0,4,,,,,,,,,,,,43,64,0
109440,note_on,0,0,3,,,,,,,,,,,,57,64,0
109440,note_off,120,0,3,,,,,,,,,,,,58,64,0
109440,note_off,240,0,2,,,,,,,,,,,,72,64,0
109440,note_on,0,0,1,,,,,,,,,,,,66,64,0
109680,note_on,0,0,2,,,,,,,,,,,,75,64,0
109680,note_off,240,0,3,,,,,,,,,,,,57,64,0
109680,note_on,0,0,3,,,,,,,,,,,,54,64,0
109680,note_off,240,0,2,,,,,,,,,,,,74,64,0
109680,note_on,240,0,4,,,,,,,,,,,,45,64,0
109920,note_on,0,0,2,,,,,,,,,,,,74,64,0
109920,note_off,240,0,2,,,,,,,,,,,,75,64,0
109920,note_off,240,0,3,,,,,,,,,,,,54,64,0
109920,note_on,0,0,3,,,,,,,,,,,,55,64,0
109920,note_off,240,0,4,,,,,,,,,,,,45,64,0
109920,note_on,0,0,4,,,,,,,,,,,,46,64,0
109920,note_off,480,0,1,,,,,,,,,,,,66,64,0
110160,note_off,240,0,4,,,,,,,,,,,,46,64,0
110160,note_on,0,0,4,,,,,,,,,,,,48,64,0
110160,note_off,240,0,2,,,,,,,,,,,,74,64,0
110160,note_on,0,0,2,,,,,,,,,,,,72,64,0
110160,note_on,0,0,3,,,,,,,,,,,,57,64,0
110160,note_off,240,0,3,,,,,,,,,,,,55,64,0
110400,note_off,240,0,4,,,,,,,,,,,,48,64,0
110400,note_off,240,0,2,,,,,,,,,,,,72,64,0
110400,note_on,0,0,2,,,,,,,,,,,,70,64,0
110400,note_on,0,0,3,,,,,,,,,,,,50,64,0
110400,note_off,240,0,3,,,,,,,,,,,,57,64,0
110400,note_on,0,0,4,,,,,,,,,,,,50,64,0
110640,note_on,0,0,4,,,,,,,,,,,,53,64,0
110640,note_off,240,0,4,,,,,,,,,,,,50,64,0
110640,note_on,0,0,2,,,,,,,,,,,,69,64,0
110640,note_off,240,0,2,,,,,,,,,,,,70,64,0
110880,note_on,960,0,1,,,,,,,,,,,,74,64,0
110880,note_off,240,0,2,,,,,,,,,,,,69,64,0
110880,note_on,0,0,2,,,,,,,,,,,,67,64,0
110880,note_off,480,0,3,,,,,,,,,,,,50,64,0
110880,note_on,0,0,4,,,,,,,,,,,,52,64,0
110880,note_off,240,0,4,,,,,,,,,,,,53,64,0
111120,note_off,240,0,4,,,,,,,,,,,,52,64,0
111120,note_on,0,0,4,,,,,,,,,,,,55,64,0
111120,note_on,0,0,2,,,,,,,,,,,,70,64,0
111120,note_off,240,0,2,,,,,,,,,,,,67,64,0
111360,note_off,240,0,2,,,,,,,,,,,,70,64,0
111360,note_off,240,0,4,,,,,,,,,,,,55,64,0
111360,note_on,0,0,4,,,,,,,,,,,,53,64,0
111360,note_on,0,0,2,,,,,,,,,,,,69,64,0
111600,note_off,720,0,1,,,,,,,,,,,,74,64,0
111600,note_off,240,0,4,,,,,,,,,,,,53,64,0
111600,note_on,0,0,4,,,,,,,,,,,,52,64,0
111600,note_on,720,0,3,,,,,,,,,,,,52,64,0
111600,note_on,0,0,1,,,,,,,,,,,,73,64,0
111720,note_off,120,0,4,,,,,,,,,,,,52,64,0
111720,note_on,0,0,4,,,,,,,,,,,,50,64,0
111840,note_off,120,0,4,,,,,,,,,,,,50,64,0
111840,note_on,0,0,4,,,,,,,,,,,,49,64,0
111840,note_on,0,0,3,,,,,,,,,,,,53,64,0
111840,note_off,240,0,1,,,,,,,,,,,,73,64,0
111840,note_on,0,0,1,,,,,,,,,,,,69,64,0
111840,note_off,240,0,3,,,,,,,,,,,,52,64,0
112080,note_off,240,0,1,,,,,,,,,,,,69,64,0
112080,note_on,0,0,1,,,,,,,,,,,,71,64,0
112080,note_off,240,0,3,,,,,,,,,,,,53,64,0
112080,note_on,0,0,3,,,,,,,,,,,,55,64,0
112320,note_on,0,0,1,,,,,,,,,,,,72,64,0
112320,note_on,0,0,3,,,,,,,,,,,,57,64,0
112320,note_off,240,0,3,,,,,,,,,,,,55,64,0
112320,note_off,480,0,4,,,,,,,,,,,,49,64,0
112320,note_off,240,0,1,,,,,,,,,,,,71,64,0
112560,note_on,240,0,4,,,,,,,,,,,,51,64,0
112560,note_off,1200,0,2,,,,,,,,,,,,69,64,0
112560,note_on,0,0,2,,,,,,,,,,,,67,64,0
112800,note_off,240,0,2,,,,,,,,,,,,67,64,0
112800,note_on,0,0,2,,,,,,,,,,,,66,64,0
112800,note_off,240,0,4,,,,,,,,,,,,51,64,0
112800,note_on,0,0,4,,,,,,,,,,,,50,64,0
113040,note_on,0,0,2,,,,,,,,,,,,69,64,0
113040,note_on,0,0,4,,,,,,,,,,,,53,64,0
113040,note_off,240,0,4,,,,,,,,,,,,50,64,0
113040,note_off,240,0,2,,,,,,,,,,,,66,64,0
113280,note_off,240,0,2,,,,,,,,,,,,69,64,0
113280,note_off,960,0,3,,,,,,,,,,,,57,64,0
113280,note_on,0,0,4,,,,,,,,,,,,51,64,0
113280,note_off,240,0,4,,,,,,,,,,,,53,64,0
113280,note_on,0,0,2,,,,,,,,,,,,67,64,0
113520,note_on,240,0,3,,,,,,,,,,,,50,64,0
113520,note_off,240,0,4,,,,,,,,,,,,51,64,0
113520,note_on,0,0,4,,,,,,,,,,,,50,64,0
113520,note_off,1200,0,1,,,,,,,,,,,,72,64,0
113520,note_on,0,0,1,,,,,,,,,,,,71,64,0
113640,note_off,120,0,4,,,,,,,,,,,,50,64,0
113640,note_on,0,0,4,,,,,,,,,,,,48,64,0
113760,note_on,0,0,4,,,,,,,,,,,,47,64,0
113760,note_off,240,0,1,,,,,,,,,,,,71,64,0
113760,note_on,0,0,3,,,,,,,,,,,,52,64,0
113760,note_off,120,0,4,,,,,,,,,,,,48,64,0
113760,note_off,240,0,3,,,,,,,,,,,,50,64,0
113760,note_on,0,0,1,,,,,,,,,,,,67,64,0
114000,note_off,240,0,1,,,,,,,,,,,,67,64,0
114000,note_on,0,0,1,,,,,,,,,,,,69,64,0
114000,note_on,0,0,3,,,,,,,,,,,,54,64,0
114000,note_off,240,0,3,,,,,,,,,,,,52,64,0
114240,note_off,240,0,1,,,,,,,,,,,,69,64,0
114240,note_on,0,0,1,,,,,,,,,,,,70,64,0
114240,note_on,0,0,3,,,,,,,,,,,,55,64,0
114240,note_off,240,0,3,,,,,,,,,,,,54,64,0
114240,note_off,480,0,4,,,,,,,,,,,,47,64,0
114480,note_on,0,0,2,,,,,,,,,,,,65,64,0
114480,note_off,1200,0,2,,,,,,,,,,,,67,64,0
114480,note_on,240,0,4,,,,,,,,,,,,50,64,0
114720,note_on,0,0,2,,,,,,,,,,,,64,64,0
114720,note_off,240,0,2,,,,,,,,,,,,65,64,0
114720,note_off,240,0,4,,,,,,,,,,,,50,64,0
114720,note_on,0,0,4,,,,,,,,,,,,49,64,0
114960,note_off,240,0,2,,,,,,,,,,,,64,64,0
114960,note_on,0,0,2,,,,,,,,,,,,67,64,0
114960,note_on,0,0,4,,,,,,,,,,,,52,64,0
114960,note_off,240,0,4,,,,,,,,,,,,49,64,0
115200,note_off,960,0,3,,,,,,,,,,,,55,64,0
115200,note_on,0,0,4,,,,,,,,,,,,50,64,0
115200,note_off,240,0,4,,,,,,,,,,,,52,64,0
115200,note_on,0,0,2,,,,,,,,,,,,65,64,0
115200,note_off,240,0,2,,,,,,,,,,,,67,64,0
115440,note_on,0,0,1,,,,,,,,,,,,69,64,0
115440,note_off,240,0,4,,,,,,,,,,,,50,64,0
115440,note_on,0,0,4,,,,,,,,,,,,48,64,0
115440,note_off,1200,0,1,,,,,,,,,,,,70,64,0
115680,note_off,480,0,2,,,,,,,,,,,,65,64,0
115680,note_off,240,0,1,,,,,,,,,,,,69,64,0
115680,note_on,0,0,1,,,,,,,,,,,,68,64,0
115680,note_off,240,0,4,,,,,,,,,,,,48,64,0
115680,note_on,0,0,4,,,,,,,,,,,,47,64,0
115680,note_on,480,0,3,,,,,,,,,,,,50,64,0
115920,note_off,240,0,1,,,,,,,,,,,,68,64,0
115920,note_on,0,0,1,,,,,,,,,,,,69,64,0
115920,note_on,0,0,4,,,,,,,,,,,,50,64,0
115920,note_off,240,0,4,,,,,,,,,,,,47,64,0
115920,note_on,240,0,2,,,,,,,,,,,,65,64,0
116160,note_on,0,0,3,,,,,,,,,,,,51,64,0
116160,note_off,240,0,4,,,,,,,,,,,,50,64,0
116160,note_off,480,0,3,,,,,,,,,,,,50,64,0
116160,note_off,240,0,2,,,,,,,,,,,,65,64,0
116160,note_on,0,0,2,,,,,,,,,,,,72,64,0
116160,note_on,0,0,4,,,,,,,,,,,,48,64,0
116160,note_off,240,0,1,,,,,,,,,,,,69,64,0
116160,note_on,0,0,1,,,,,,,,,,,,68,64,0
116400,note_off,240,0,1,,,,,,,,,,,,68,64,0
116400,note_on,0,0,1,,,,,,,,,,,,67,64,0
116400,note_on,0,0,4,,,,,,,,,,,,47,64,0
116400,note_off,240,0,4,,,,,,,,,,,,48,64,0
116640,note_off,480,0,3,,,,,,,,,,,,51,64,0
116640,note_on,0,0,1,,,,,,,,,,,,66,64,0
116640,note_off,240,0,1,,,,,,,,,,,,67,64,0
116640,note_on,0,0,3,,,,,,,,,,,,45,64,0
116640,note_on,0,0,4,,,,,,,,,,,,48,64,0
116640,note_off,240,0,4,,,,,,,,,,,,47,64,0
116640,note_off,480,0,2,,,,,,,,,,,,72,64,0
116880,note_on,0,0,1,,,,,,,,,,,,67,64,0
116880,note_off,240,0,1,,,,,,,,,,,,66,64,0
116880,note_on,240,0,2,,,,,,,,,,,,75,64,0
117120,note_on,0,0,1,,,,,,,,,,,,66,64,0
117120,note_on,0,0,2,,,,,,,,,,,,74,64,0
117120,note_on,0,0,3,,,,,,,,,,,,57,64,0
117120,note_off,240,0,1,,,,,,,,,,,,67,64,0
117120,note_off,240,0,2,,,,,,,,,,,,75,64,0
117120,note_off,480,0,3,,,,,,,,,,,,45,64,0
117240,note_off,120,0,3,,,,,,,,,,,,57,64,0
117240,note_on,0,0,3,,,,,,,,,,,,58,64,0
117360,note_off,240,0,1,,,,,,,,,,,,66,64,0
117360,note_off,120,0,3,,,,,,,,,,,,58,64,0
117360,note_on,0,0,1,,,,,,,,,,,,64,64,0
117360,note_off,720,0,4,,,,,,,,,,,,48,64,0
117360,note_on,0,0,4,,,,,,,,,,,,43,64,0
117360,note_on,0,0,3,,,,,,,,,,,,60,64,0
117600,note_on,0,0,4,,,,,,,,,,,,42,64,0
117600,note_off,240,0,1,,,,,,,,,,,,64,64,0
117600,note_on,0,0,1,,,,,,,,,,,,62,64,0
117600,note_off,240,0,4,,,,,,,,,,,,43,64,0
117600,note_off,480,0,2,,,,,,,,,,,,74,64,0
117840,note_off,240,0,4,,,,,,,,,,,,42,64,0
117840,note_on,0,0,4,,,,,,,,,,,,43,64,0
117840,note_on,0,0,3,,,,,,,,,,,,58,64,0
117840,note_off,480,0,3,,,,,,,,,,,,60,64,0
117840,note_off,240,0,1,,,,,,,,,,,,62,64,0
117840,note_on,0,0,1,,,,,,,,,,,,63,64,0
117840,note_on,240,0,2,,,,,,,,,,,,67,64,0
118080,note_off,240,0,1,,,,,,,,,,,,63,64,0
118080,note_on,0,0,1,,,,,,,,,,,,62,64,0
118080,note_off,240,0,2,,,,,,,,,,,,67,64,0
118080,note_on,0,0,2,,,,,,,,,,,,66,64,0
118080,note_off,240,0,3,,,,,,,,,,,,58,64,0
118080,note_off,240,0,4,,,,,,,,,,,,43,64,0
118080,note_on,0,0,4,,,,,,,,,,,,45,64,0
118080,note_on,0,0,3,,,,,,,,,,,,60,64,0
118320,note_on,0,0,1,,,,,,,,,,,,66,64,0
118320,note_off,240,0,1,,,,,,,,,,,,62,64,0
118320,note_off,240,0,3,,,,,,,,,,,,60,64,0
118320,note_on,0,0,3,,,,,,,,,,,,57,64,0
118320,note_on,0,0,4,,,,,,,,,,,,38,64,0
118320,note_off,240,0,4,,,,,,,,,,,,45,64,0
118560,note_on,0,0,4,,,,,,,,,,,,50,64,0
118560,note_on,0,0,1,,,,,,,,,,,,69,64,0
118560,note_off,240,0,1,,,,,,,,,,,,66,64,0
118560,note_off,240,0,4,,,,,,,,,,,,38,64,0
118560,note_off,480,0,2,,,,,,,,,,,,66,64,0
118560,note_off,240,0,3,,,,,,,,,,,,57,64,0
118560,note_on,0,0,3,,,,,,,,,,,,54,64,0
118800,note_on,0,0,1,,,,,,,,,,,,72,64,0
118800,note_off,240,0,1,,,,,,,,,,,,69,64,0
118800,note_on,240,0,2,,,,,,,,,,,,62,64,0
119040,note_on,0,0,3,,,,,,,,,,,,55,64,0
119040,note_off,480,0,3,,,,,,,,,,,,54,64,0
119040,note_on,0,0,1,,,,,,,,,,,,70,64,0
119040,note_off,240,0,1,,,,,,,,,,,,72,64,0
119040,note_off,240,0,2,,,,,,,,,,,,62,64,0
119040,note_on,0,0,2,,,,,,,,,,,,67,64,0
119280,note_off,240,0,1,,,,,,,,,,,,70,64,0
119280,note_on,0,0,1,,,,,,,,,,,,74,64,0
119520,note_off,240,0,1,,,,,,,,,,,,74,64,0
119520,note_on,0,0,2,,,,,,,,,,,,63,64,0
119520,note_off,480,0,2,,,,,,,,,,,,67,64,0
119520,note_off,480,0,3,,,,,,,,,,,,55,64,0
119520,note_off,960,0,4,,,,,,,,,,,,50,64,0
119520,note_on,0,0,1,,,,,,,,,,,,78,64,0
119520,note_on,0,0,4,,,,,,,,,,,,48,64,0
119760,note_on,240,0,3,,,,,,,,,,,,46,64,0
119760,note_on,0,0,4,,,,,,,,,,,,46,64,0
119760,note_off,240,0,4,,,,,,,,,,,,48,64,0
119760,note_off,240,0,1,,,,,,,,,,,,78,64,0
119760,note_on,0,0,1,,,,,,,,,,,,79,64,0
120000,note_off,240,0,3,,,,,,,,,,,,46,64,0
120000,note_off,480,0,2,,,,,,,,,,,,63,64,0
120000,note_on,0,0,2,,,,,,,,,,,,60,64,0
120000,note_off,240,0,4,,,,,,,,,,,,46,64,0
120000,note_on,0,0,4,,,,,,,,,,,,48,64,0
120000,note_on,0,0,1,,,,,,,,,,,,69,64,0
120000,note_off,240,0,1,,,,,,,,,,,,79,64,0
120000,note_on,0,0,3,,,,,,,,,,,,51,64,0
120240,note_off,240,0,1,,,,,,,,,,,,69,64,0
120240,note_on,0,0,1,,,,,,,,,,,,75,64,0
120480,note_on,0,0,4,,,,,,,,,,,,46,64,0
120480,note_off,480,0,4,,,,,,,,,,,,48,64,0
120480,note_on,0,0,2,,,,,,,,,,,,62,64,0
120480,note_off,480,0,2,,,,,,,,,,,,60,64,0
120480,note_on,0,0,1,,,,,,,,,,,,74,64,0
120480,note_off,240,0,1,,,,,,,,,,,,75,64,0
120480,note_off,480,0,3,,,,,,,,,,,,51,64,0
120720,note_off,240,0,4,,,,,,,,,,,,46,64,0
120720,note_on,0,0,1,,,,,,,,,,,,72,64,0
120720,note_off,240,0,1,,,,,,,,,,,,74,64,0
120720,note_on,240,0,3,,,,,,,,,,,,42,64,0
120720,note_on,0,0,4,,,,,,,,,,,,45,64,0
120960,note_off,240,0,3,,,,,,,,,,,,42,64,0
120960,note_on,0,0,3,,,,,,,,,,,,43,64,0
120960,note_on,0,0,4,,,,,,,,,,,,46,64,0
120960,note_off,240,0,4,,,,,,,,,,,,45,64,0
120960,note_on,0,0,2,,,,,,,,,,,,67,64,0
120960,note_off,480,0,2,,,,,,,,,,,,62,64,0
120960,note_off,240,0,1,,,,,,,,,,,,72,64,0
120960,note_on,0,0,1,,,,,,,,,,,,70,64,0
121080,note_on,0,0,4,,,,,,,,,,,,48,64,0
121080,note_off,120,0,4,,,,,,,,,,,,46,64,0
121080,note_off,120,0,1,,,,,,,,,,,,70,64,0
121080,note_on,0,0,1,,,,,,,,,,,,69,64,0
121200,note_off,120,0,1,,,,,,,,,,,,69,64,0
121200,note_on,0,0,1,,,,,,,,,,,,67,64,0
121200,note_off,240,0,2,,,,,,,,,,,,67,64,0
121200,note_on,0,0,2,,,,,,,,,,,,79,64,0
121200,note_off,120,0,4,,,,,,,,,,,,48,64,0
121200,note_on,0,0,4,,,,,,,,,,,,46,64,0
121320,note_on,0,0,1,,,,,,,,,,,,66,64,0
121320,note_on,0,0,4,,,,,,,,,,,,45,64,0
121320,note_off,120,0,2,,,,,,,,,,,,79,64,0
121320,note_on,0,0,2,,,,,,,,,,,,81,64,0
121320,note_off,120,0,1,,,,,,,,,,,,67,64,0
121320,note_off,120,0,4,,,,,,,,,,,,46,64,0
121440,note_off,480,0,3,,,,,,,,,,,,43,64,0
121440,note_off,120,0,4,,,,,,,,,,,,45,64,0
121440,note_on,0,0,4,,,,,,,,,,,,43,64,0
121440,note_off,120,0,2,,,,,,,,,,,,81,64,0
121440,note_on,0,0,2,,,,,,,,,,,,82,64,0
121440,note_on,0,0,3,,,,,,,,,,,,43,64,0
121440,note_on,0,0,1,,,,,,,,,,,,67,64,0
121440,note_off,120,0,1,,,,,,,,,,,,66,64,0
121560,note_on,0,0,1,,,,,,,,,,,,79,64,0
121560,note_off,120,0,1,,,,,,,,,,,,67,64,0
121680,note_off,240,0,3,,,,,,,,,,,,43,64,0
121680,note_on,0,0,3,,,,,,,,,,,,45,64,0
121680,note_off,240,0,2,,,,,,,,,,,,82,64,0
121680,note_on,0,0,2,,,,,,,,,,,,84,64,0
121680,note_on,0,0,1,,,,,,,,,,,,77,64,0
121680,note_off,120,0,1,,,,,,,,,,,,79,64,0
121800,note_on,0,0,1,,,,,,,,,,,,75,64,0
121800,note_off,120,0,1,,,,,,,,,,,,77,64,0
121920,note_off,240,0,3,,,,,,,,,,,,45,64,0
121920,note_on,0,0,3,,,,,,,,,,,,46,64,0
121920,note_off,120,0,1,,,,,,,,,,,,75,64,0
121920,note_on,0,0,1,,,,,,,,,,,,74,64,0
121920,note_on,0,0,2,,,,,,,,,,,,86,64,0
121920,note_off,240,0,2,,,,,,,,,,,,84,64,0
122040,note_on,0,0,1,,,,,,,,,,,,72,64,0
122040,note_off,120,0,1,,,,,,,,,,,,74,64,0
122160,note_on,0,0,1,,,,,,,,,,,,70,64,0
122160,note_off,720,0,4,,,,,,,,,,,,43,64,0
122160,note_on,0,0,4,,,,,,,,,,,,45,64,0
122160,note_off,240,0,3,,,,,,,,,,,,46,64,0
122160,note_off,120,0,1,,,,,,,,,,,,72,64,0
122160,note_on,0,0,3,,,,,,,,,,,,48,64,0
122280,note_off,120,0,1,,,,,,,,,,,,70,64,0
122280,note_on,0,0,1,,,,,,,,,,,,69,64,0
122400,note_off,240,0,4,,,,,,,,,,,,45,64,0
122400,note_off,240,0,3,,,,,,,,,,,,48,64,0
122400,note_off,120,0,1,,,,,,,,,,,,69,64,0
122400,note_on,0,0,1,,,,,,,,,,,,67,64,0
122400,note_on,0,0,4,,,,,,,,,,,,46,64,0
122400,note_on,0,0,3,,,,,,,,,,,,50,64,0
122640,note_off,720,0,2,,,,,,,,,,,,86,64,0
122640,note_off,240,0,3,,,,,,,,,,,,50,64,0
122640,note_on,0,0,3,,,,,,,,,,,,51,64,0
122640,note_off,240,0,4,,,,,,,,,,,,46,64,0
122640,note_on,0,0,4,,,,,,,,,,,,48,64,0
122640,note_on,0,0,2,,,,,,,,,,,,84,64,0
122760,note_off,120,0,2,,,,,,,,,,,,84,64,0
122760,note_on,0,0,2,,,,,,,,,,,,82,64,0
122880,note_off,120,0,2,,,,,,,,,,,,82,64,0
122880,note_on,0,0,2,,,,,,,,,,,,81,64,0
122880,note_on,0,0,3,,,,,,,,,,,,42,64,0
122880,note_off,480,0,1,,,,,,,,,,,,67,64,0
122880,note_off,240,0,3,,,,,,,,,,,,51,64,0
122880,note_on,0,0,4,,,,,,,,,,,,50,64,0
122880,note_off,240,0,4,,,,,,,,,,,,48,64,0
123120,note_on,240,0,1,,,,,,,,,,,,69,64,0
123120,note_on,0,0,2,,,,,,,,,,,,78,64,0
123120,note_on,0,0,4,,,,,,,,,,,,51,64,0
123120,note_off,240,0,4,,,,,,,,,,,,50,64,0
123120,note_off,240,0,2,,,,,,,,,,,,81,64,0
123360,note_off,240,0,1,,,,,,,,,,,,69,64,0
123360,note_on,0,0,4,,,,,,,,,,,,50,64,0
123360,note_off,240,0,4,,,,,,,,,,,,51,64,0
123360,note_on,0,0,1,,,,,,,,,,,,70,64,0
123360,note_off,240,0,2,,,,,,,,,,,,78,64,0
123360,note_on,0,0,2,,,,,,,,,,,,79,64,0
123360,note_off,480,0,3,,,,,,,,,,,,42,64,0
123600,note_off,240,0,1,,,,,,,,,,,,70,64,0
123600,note_on,0,0,1,,,,,,,,,,,,72,64,0
123600,note_on,0,0,4,,,,,,,,,,,,48,64,0
123600,note_off,240,0,4,,,,,,,,,,,,50,64,0
123600,note_on,0,0,2,,,,,,,,,,,,81,64,0
123600,note_off,240,0,2,,,,,,,,,,,,79,64,0
123840,note_on,0,0,2,,,,,,,,,,,,74,64,0
123840,note_off,240,0,4,,,,,,,,,,,,48,64,0
123840,note_off,240,0,2,,,,,,,,,,,,81,64,0
123840,note_on,0,0,4,,,,,,,,,,,,46,64,0
123840,note_on,0,0,1,,,,,,,,,,,,74,64,0
123840,note_off,240,0,1,,,,,,,,,,,,72,64,0
124080,note_on,0,0,1,,,,,,,,,,,,77,64,0
124080,note_off,240,0,4,,,,,,,,,,,,46,64,0
124080,note_off,240,0,1,,,,,,,,,,,,74,64,0
124080,note_on,0,0,4,,,,,,,,,,,,45,64,0
124320,note_on,0,0,1,,,,,,,,,,,,76,64,0
124320,note_on,0,0,4,,,,,,,,,,,,43,64,0
124320,note_off,240,0,4,,,,,,,,,,,,45,64,0
124320,note_on,960,0,3,,,,,,,,,,,,50,64,0
124320,note_off,240,0,1,,,,,,,,,,,,77,64,0
124320,note_off,480,0,2,,,,,,,,,,,,74,64,0
124560,note_off,240,0,1,,,,,,,,,,,,76,64,0
124560,note_on,0,0,1,,,,,,,,,,,,79,64,0
124560,note_on,0,0,4,,,,,,,,,,,,46,64,0
124560,note_off,240,0,4,,,,,,,,,,,,43,64,0
124800,note_off,240,0,4,,,,,,,,,,,,46,64,0
124800,note_on,0,0,4,,,,,,,,,,,,45,64,0
124800,note_off,240,0,1,,,,,,,,,,,,79,64,0
124800,note_on,0,0,1,,,,,,,,,,,,77,64,0
125040,note_on,0,0,1,,,,,,,,,,,,76,64,0
125040,note_on,0,0,3,,,,,,,,,,,,49,64,0
125040,note_off,240,0,1,,,,,,,,,,,,77,64,0
125040,note_off,720,0,3,,,,,,,,,,,,50,64,0
125040,note_on,720,0,2,,,,,,,,,,,,76,64,0
125160,note_off,120,0,1,,,,,,,,,,,,76,64,0
125160,note_on,0,0,1,,,,,,,,,,,,74,64,0
125280,note_off,240,0,2,,,,,,,,,,,,76,64,0
125280,note_off,120,0,1,,,,,,,,,,,,74,64,0
125280,note_on,0,0,1,,,,,,,,,,,,73,64,0
125280,note_on,0,0,3,,,,,,,,,,,,45,64,0
125280,note_off,240,0,3,,,,,,,,,,,,49,64,0
125280,note_on,0,0,2,,,,,,,,,,,,77,64,0
125520,note_off,240,0,2,,,,,,,,,,,,77,64,0
125520,note_on,0,0,2,,,,,,,,,,,,79,64,0
125520,note_off,240,0,3,,,,,,,,,,,,45,64,0
125520,note_on,0,0,3,,,,,,,,,,,,47,64,0
125760,note_off,240,0,3,,,,,,,,,,,,47,64,0
125760,note_off,480,0,1,,,,,,,,,,,,73,64,0
125760,note_on,0,0,3,,,,,,,,,,,,48,64,0
125760,note_on,0,0,2,,,,,,,,,,,,81,64,0
125760,note_off,240,0,2,,,,,,,,,,,,79,64,0
126000,note_on,240,0,1,,,,,,,,,,,,75,64,0
126000,note_off,1200,0,4,,,,,,,,,,,,45,64,0
126000,note_on,0,0,4,,,,,,,,,,,,43,64,0
126240,note_off,240,0,1,,,,,,,,,,,,75,64,0
126240,note_on,0,0,1,,,,,,,,,,,,74,64,0
126240,note_on,0,0,4,,,,,,,,,,,,42,64,0
126240,note_off,240,0,4,,,,,,,,,,,,43,64,0
126480,note_off,240,0,4,,,,,,,,,,,,42,64,0
126480,note_on,0,0,4,,,,,,,,,,,,45,64,0
126480,note_on,0,0,1,,,,,,,,,,,,77,64,0
126480,note_off,240,0,1,,,,,,,,,,,,74,64,0
126720,note_off,240,0,4,,,,,,,,,,,,45,64,0
126720,note_on,0,0,4,,,,,,,,,,,,43,64,0
126720,note_on,0,0,1,,,,,,,,,,,,75,64,0
126720,note_off,240,0,1,,,,,,,,,,,,77,64,0
126720,note_off,960,0,2,,,,,,,,,,,,81,64,0
126960,note_on,0,0,1,,,,,,,,,,,,74,64,0
126960,note_off,240,0,1,,,,,,,,,,,,75,64,0
126960,note_on,240,0,2,,,,,,,,,,,,74,64,0
126960,note_on,0,0,3,,,,,,,,,,,,47,64,0
126960,note_off,1200,0,3,,,,,,,,,,,,48,64,0
127080,note_off,120,0,1,,,,,,,,,,,,74,64,0
127080,note_on,0,0,1,,,,,,,,,,,,72,64,0
127200,note_on,0,0,3,,,,,,,,,,,,43,64,0
127200,note_off,240,0,3,,,,,,,,,,,,47,64,0
127200,note_off,240,0,2,,,,,,,,,,,,74,64,0
127200,note_on,0,0,1,,,,,,,,,,,,71,64,0
127200,note_off,120,0,1,,,,,,,,,,,,72,64,0
127200,note_on,0,0,2,,,,,,,,,,,,76,64,0
127440,note_off,240,0,3,,,,,,,,,,,,43,64,0
127440,note_off,240,0,2,,,,,,,,,,,,76,64,0
127440,note_on,0,0,3,,,,,,,,,,,,45,64,0
127440,note_on,0,0,2,,,,,,,,,,,,78,64,0
127680,note_on,0,0,3,,,,,,,,,,,,46,64,0
127680,note_off,240,0,3,,,,,,,,,,,,45,64,0
127680,note_off,240,0,2,,,,,,,,,,,,78,64,0
127680,note_off,480,0,1,,,,,,,,,,,,71,64,0
127680,note_on,0,0,2,,,,,,,,,,,,79,64,0
127920,note_on,0,0,4,,,,,,,,,,,,41,64,0
127920,note_on,240,0,1,,,,,,,,,,,,74,64,0
127920,note_off,1200,0,4,,,,,,,,,,,,43,64,0
128160,note_on,0,0,4,,,,,,,,,,,,40,64,0
128160,note_off,240,0,1,,,,,,,,,,,,74,64,0
128160,note_on,0,0,1,,,,,,,,,,,,73,64,0
128160,note_off,240,0,4,,,,,,,,,,,,41,64,0
128400,note_off,240,0,4,,,,,,,,,,,,40,64,0
128400,note_on,0,0,4,,,,,,,,,,,,43,64,0
128400,note_on,0,0,1,,,,,,,,,,,,76,64,0
128400,note_off,240,0,1,,,,,,,,,,,,73,64,0
128640,note_off,960,0,2,,,,,,,,,,,,79,64,0
128640,note_on,0,0,1,,,,,,,,,,,,74,64,0
128640,note_off,240,0,4,,,,,,,,,,,,43,64,0
128640,note_on,0,0,4,,,,,,,,,,,,41,64,0
128640,note_off,240,0,1,,,,,,,,,,,,76,64,0
128880,note_on,0,0,3,,,,,,,,,,,,45,64,0
128880,note_off,1200,0,3,,,,,,,,,,,,46,64,0
128880,note_off,240,0,1,,,,,,,,,,,,74,64,0
128880,note_on,0,0,1,,,,,,,,,,,,72,64,0
129120,note_on,480,0,2,,,,,,,,,,,,74,64,0
129120,note_on,0,0,1,,,,,,,,,,,,71,64,0
129120,note_off,480,0,4,,,,,,,,,,,,41,64,0
129120,note_off,240,0,3,,,,,,,,,,,,45,64,0
129120,note_on,0,0,3,,,,,,,,,,,,44,64,0
129120,note_off,240,0,1,,,,,,,,,,,,72,64,0
129360,note_off,240,0,1,,,,,,,,,,,,71,64,0
129360,note_on,0,0,1,,,,,,,,,,,,74,64,0
129360,note_on,0,0,3,,,,,,,,,,,,45,64,0
129360,note_off,240,0,3,,,,,,,,,,,,44,64,0
129360,note_on,240,0,4,,,,,,,,,,,,41,64,0
129600,note_on,0,0,4,,,,,,,,,,,,48,64,0
129600,note_on,0,0,3,,,,,,,,,,,,44,64,0
129600,note_off,240,0,3,,,,,,,,,,,,45,64,0
129600,note_off,240,0,1,,,,,,,,,,,,74,64,0
129600,note_on,0,0,1,,,,,,,,,,,,72,64,0
129600,note_off,240,0,4,,,,,,,,,,,,41,64,0
129600,note_on,0,0,2,,,,,,,,,,,,75,64,0
129600,note_off,480,0,2,,,,,,,,,,,,74,64,0
129840,note_on,0,0,3,,,,,,,,,,,,43,64,0
129840,note_off,240,0,3,,,,,,,,,,,,44,64,0
129840,note_off,240,0,1,,,,,,,,,,,,72,64,0
129840,note_on,0,0,1,,,,,,,,,,,,71,64,0
130080,note_off,240,0,1,,,,,,,,,,,,71,64,0
130080,note_on,0,0,1,,,,,,,,,,,,72,64,0
130080,note_off,480,0,4,,,,,,,,,,,,48,64,0
130080,note_off,480,0,2,,,,,,,,,,,,75,64,0
130080,note_on,0,0,2,,,,,,,,,,,,69,64,0
130080,note_off,240,0,3,,,,,,,,,,,,43,64,0
130080,note_on,0,0,3,,,,,,,,,,,,42,64,0
130320,note_off,240,0,3,,,,,,,,,,,,42,64,0
130320,note_on,0,0,3,,,,,,,,,,,,43,64,0
130320,note_on,240,0,4,,,,,,,,,,,,51,64,0
130560,note_off,240,0,3,,,,,,,,,,,,43,64,0
130560,note_off,240,0,4,,,,,,,,,,,,51,64,0
130560,note_on,0,0,4,,,,,,,,,,,,50,64,0
130560,note_on,0,0,2,,,,,,,,,,,,81,64,0
130560,note_off,480,0,2,,,,,,,,,,,,69,64,0
130560,note_on,0,0,3,,,,,,,,,,,,42,64,0
130680,note_on,0,0,2,,,,,,,,,,,,82,64,0
130680,note_off,120,0,2,,,,,,,,,,,,81,64,0
130800,note_on,0,0,2,,,,,,,,,,,,84,64,0
130800,note_on,0,0,3,,,,,,,,,,,,40,64,0
130800,note_on,0,0,1,,,,,,,,,,,,67,64,0
130800,note_off,720,0,1,,,,,,,,,,,,72,64,0
130800,note_off,120,0,2,,,,,,,,,,,,82,64,0
130800,note_off,240,0,3,,,,,,,,,,,,42,64,0
131040,note_off,240,0,3,,,,,,,,,,,,40,64,0
131040,note_off,240,0,1,,,,,,,,,,,,67,64,0
131040,note_on,0,0,1,,,,,,,,,,,,66,64,0
131040,note_off,480,0,4,,,,,,,,,,,,50,64,0
131040,note_on,0,0,3,,,,,,,,,,,,38,64,0
131280,note_on,0,0,2,,,,,,,,,,,,82,64,0
131280,note_off,480,0,2,,,,,,,,,,,,84,64,0
131280,note_off,240,0,3,,,,,,,,,,,,38,64,0
131280,note_on,0,0,3,,,,,,,,,,,,39,64,0
131280,note_off,240,0,1,,,,,,,,,,,,66,64,0
131280,note_on,0,0,1,,,,,,,,,,,,67,64,0
131280,note_on,240,0,4,,,,,,,,,,,,43,64,0
131520,note_off,240,0,4,,,,,,,,,,,,43,64,0
131520,note_off,240,0,2,,,,,,,,,,,,82,64,0
131520,note_on,0,0,2,,,,,,,,,,,,84,64,0
131520,note_on,0,0,3,,,,,,,,,,,,38,64,0
131520,note_on,0,0,4,,,,,,,,,,,,42,64,0
131520,note_off,240,0,3,,,,,,,,,,,,39,64,0
131520,note_on,0,0,1,,,,,,,,,,,,69,64,0
131520,note_off,240,0,1,,,,,,,,,,,,67,64,0
131760,note_off,240,0,2,,,,,,,,,,,,84,64,0
131760,note_on,0,0,2,,,,,,,,,,,,81,64,0
131760,note_on,0,0,3,,,,,,,,,,,,42,64,0
131760,note_off,240,0,1,,,,,,,,,,,,69,64,0
131760,note_on,0,0,1,,,,,,,,,,,,62,64,0
131760,note_off,240,0,3,,,,,,,,,,,,38,64,0
132000,note_off,240,0,3,,,,,,,,,,,,42,64,0
132000,note_on,0,0,3,,,,,,,,,,,,45,64,0
132000,note_off,240,0,1,,,,,,,,,,,,62,64,0
132000,note_on,0,0,2,,,,,,,,,,,,78,64,0
132000,note_off,240,0,2,,,,,,,,,,,,81,64,0
132000,note_off,480,0,4,,,,,,,,,,,,42,64,0
132000,note_on,0,0,1,,,,,,,,,,,,74,64,0
132240,note_on,0,0,3,,,,,,,,,,,,48,64,0
132240,note_on,240,0,4,,,,,,,,,,,,38,64,0
132240,note_off,240,0,3,,,,,,,,,,,,45,64,0
132480,note_on,0,0,4,,,,,,,,,,,,43,64,0
132480,note_off,240,0,4,,,,,,,,,,,,38,64,0
132480,note_on,0,0,3,,,,,,,,,,,,46,64,0
132480,note_off,480,0,2,,,,,,,,,,,,78,64,0
132480,note_on,0,0,2,,,,,,,,,,,,79,64,0
132480,note_off,240,0,3,,,,,,,,,,,,48,64,0
132720,note_off,240,0,3,,,,,,,,,,,,46,64,0
132720,note_on,0,0,3,,,,,,,,,,,,50,64,0
132960,note_off,480,0,2,,,,,,,,,,,,79,64,0
132960,note_off,960,0,1,,,,,,,,,,,,74,64,0
132960,note_on,0,0,1,,,,,,,,,,,,72,64,0
132960,note_off,240,0,3,,,,,,,,,,,,50,64,0
132960,note_on,0,0,4,,,,,,,,,,,,39,64,0
132960,note_off,480,0,4,,,,,,,,,,,,43,64,0
132960,note_on,0,0,3,,,,,,,,,,,,54,64,0
133200,note_on,0,0,1,,,,,,,,,,,,70,64,0
133200,note_off,240,0,3,,,,,,,,,,,,54,64,0
133200,note_on,0,0,3,,,,,,,,,,,,55,64,0
133200,note_off,240,0,1,,,,,,,,,,,,72,64,0
133200,note_on,240,0,2,,,,,,,,,,,,70,64,0
133440,note_off,240,0,2,,,,,,,,,,,,70,64,0
133440,note_on,0,0,2,,,,,,,,,,,,75,64,0
133440,note_on,0,0,4,,,,,,,,,,,,36,64,0
133440,note_off,480,0,4,,,,,,,,,,,,39,64,0
133440,note_off,240,0,3,,,,,,,,,,,,55,64,0
133440,note_on,0,0,3,,,,,,,,,,,,45,64,0
133440,note_off,240,0,1,,,,,,,,,,,,70,64,0
133440,note_on,0,0,1,,,,,,,,,,,,72,64,0
133680,note_off,240,0,3,,,,,,,,,,,,45,64,0
133680,note_on,0,0,3,,,,,,,,,,,,51,64,0
133920,note_off,480,0,1,,,,,,,,,,,,72,64,0
133920,note_off,480,0,2,,,,,,,,,,,,75,64,0
133920,note_on,0,0,4,,,,,,,,,,,,38,64,0
133920,note_off,480,0,4,,,,,,,,,,,,36,64,0
133920,note_on,0,0,3,,,,,,,,,,,,50,64,0
133920,note_off,240,0,3,,,,,,,,,,,,51,64,0
133920,note_on,0,0,1,,,,,,,,,,,,70,64,0
134160,note_off,240,0,3,,,,,,,,,,,,50,64,0
134160,note_off,240,0,1,,,,,,,,,,,,70,64,0
134160,note_on,240,0,2,,,,,,,,,,,,66,64,0
134160,note_on,0,0,3,,,,,,,,,,,,48,64,0
134160,note_on,0,0,1,,,,,,,,,,,,69,64,0
134400,note_on,0,0,1,,,,,,,,,,,,70,64,0
134400,note_off,240,0,1,,,,,,,,,,,,69,64,0
134400,note_off,480,0,4,,,,,,,,,,,,38,64,0
134400,note_on,0,0,4,,,,,,,,,,,,43,64,0
134400,note_off,240,0,2,,,,,,,,,,,,66,64,0
134400,note_off,240,0,3,,,,,,,,,,,,48,64,0
134400,note_on,0,0,3,,,,,,,,,,,,46,64,0
134400,note_on,0,0,2,,,,,,,,,,,,67,64,0
134520,note_off,120,0,1,,,,,,,,,,,,70,64,0
134520,note_off,120,0,3,,,,,,,,,,,,46,64,0
134520,note_on,0,0,3,,,,,,,,,,,,45,64,0
134520,note_on,0,0,1,,,,,,,,,,,,72,64,0
134640,note_off,240,0,4,,,,,,,,,,,,43,64,0
134640,note_off,120,0,1,,,,,,,,,,,,72,64,0
134640,note_on,0,0,4,,,,,,,,,,,,55,64,0
134640,note_off,120,0,3,,,,,,,,,,,,45,64,0
134640,note_on,0,0,1,,,,,,,,,,,,70,64,0
134640,note_on,0,0,3,,,,,,,,,,,,43,64,0
134760,note_off,120,0,4,,,,,,,,,,,,55,64,0
134760,note_on,0,0,3,,,,,,,,,,,,42,64,0
134760,note_off,120,0,1,,,,,,,,,,,,70,64,0
134760,note_on,0,0,1,,,,,,,,,,,,69,64,0
134760,note_on,0,0,4,,,,,,,,,,,,57,64,0
134760,note_off,120,0,3,,,,,,,,,,,,43,64,0
134880,note_off,120,0,4,,,,,,,,,,,,57,64,0
134880,note_on,0,0,4,,,,,,,,,,,,58,64,0
134880,note_off,480,0,2,,,,,,,,,,,,67,64,0
134880,note_on,0,0,2,,,,,,,,,,,,67,64,0
134880,note_off,120,0,1,,,,,,,,,,,,69,64,0
134880,note_on,0,0,3,,,,,,,,,,,,43,64,0
134880,note_on,0,0,1,,,,,,,,,,,,67,64,0
134880,note_off,120,0,3,,,,,,,,,,,,42,64,0
135000,note_off,120,0,3,,,,,,,,,,,,43,64,0
135000,note_on,0,0,3,,,,,,,,,,,,55,64,0
135120,note_off,240,0,2,,,,,,,,,,,,67,64,0
135120,note_on,0,0,3,,,,,,,,,,,,53,64,0
135120,note_off,120,0,3,,,,,,,,,,,,55,64,0
135120,note_on,0,0,2,,,,,,,,,,,,69,64,0
135120,note_off,240,0,4,,,,,,,,,,,,58,64,0
135120,note_on,0,0,4,,,,,,,,,,,,60,64,0
135240,note_off,120,0,3,,,,,,,,,,,,53,64,0
135240,note_on,0,0,3,,,,,,,,,,,,51,64,0
135360,note_on,0,0,4,,,,,,,,,,,,62,64,0
135360,note_off,240,0,2,,,,,,,,,,,,69,64,0
135360,note_on,0,0,2,,,,,,,,,,,,70,64,0
135360,note_on,0,0,3,,,,,,,,,,,,50,64,0
135360,note_off,240,0,4,,,,,,,,,,,,60,64,0
135360,note_off,120,0,3,,,,,,,,,,,,51,64,0
135480,note_off,120,0,3,,,,,,,,,,,,50,64,0
135480,note_on,0,0,3,,,,,,,,,,,,48,64,0
135600,note_off,720,0,1,,,,,,,,,,,,67,64,0
135600,note_on,0,0,1,,,,,,,,,,,,69,64,0
135600,note_on,0,0,2,,,,,,,,,,,,72,64,0
135600,note_on,0,0,3,,,,,,,,,,,,46,64,0
135600,note_off,120,0,3,,,,,,,,,,,,48,64,0
135600,note_off,240,0,2,,,,,,,,,,,,70,64,0
135720,note_on,0,0,3,,,,,,,,,,,,45,64,0
135720,note_off,120,0,3,,,,,,,,,,,,46,64,0
135840,note_off,240,0,2,,,,,,,,,,,,72,64,0
135840,note_on,0,0,1,,,,,,,,,,,,70,64,0
135840,note_off,240,0,1,,,,,,,,,,,,69,64,0
135840,note_off,120,0,3,,,,,,,,,,,,45,64,0
135840,note_on,0,0,3,,,,,,,,,,,,43,64,0
135840,note_on,0,0,2,,,,,,,,,,,,74,64,0
136080,note_off,240,0,1,,,,,,,,,,,,70,64,0
136080,note_on,0,0,4,,,,,,,,,,,,60,64,0
136080,note_off,720,0,4,,,,,,,,,,,,62,64,0
136080,note_on,0,0,1,,,,,,,,,,,,72,64,0
136080,note_off,240,0,2,,,,,,,,,,,,74,64,0
136080,note_on,0,0,2,,,,,,,,,,,,75,64,0
136200,note_on,0,0,4,,,,,,,,,,,,58,64,0
136200,note_off,120,0,4,,,,,,,,,,,,60,64,0
136320,note_off,480,0,3,,,,,,,,,,,,43,64,0
136320,note_off,120,0,4,,,,,,,,,,,,58,64,0
136320,note_off,240,0,2,,,,,,,,,,,,75,64,0
136320,note_on,0,0,2,,,,,,,,,,,,66,64,0
136320,note_off,240,0,1,,,,,,,,,,,,72,64,0
136320,note_on,0,0,1,,,,,,,,,,,,74,64,0
136320,note_on,0,0,4,,,,,,,,,,,,57,64,0
136560,note_on,0,0,4,,,,,,,,,,,,54,64,0
136560,note_off,240,0,1,,,,,,,,,,,,74,64,0
136560,note_off,240,0,4,,,,,,,,,,,,57,64,0
136560,note_on,240,0,3,,,,,,,,,,,,45,64,0
136560,note_on,0,0,1,,,,,,,,,,,,75,64,0
136800,note_on,0,0,4,,,,,,,,,,,,55,64,0
136800,note_off,240,0,4,,,,,,,,,,,,54,64,0
136800,note_off,240,0,3,,,,,,,,,,,,45,64,0
136800,note_on,0,0,3,,,,,,,,,,,,46,64,0
136800,note_on,0,0,1,,,,,,,,,,,,74,64,0
136800,note_off,480,0,2,,,,,,,,,,,,66,64,0
136800,note_off,240,0,1,,,,,,,,,,,,75,64,0
137040,note_off,240,0,1,,,,,,,,,,,,74,64,0
137040,note_on,0,0,1,,,,,,,,,,,,72,64,0
137040,note_off,240,0,4,,,,,,,,,,,,55,64,0
137040,note_off,240,0,3,,,,,,,,,,,,46,64,0
137040,note_on,0,0,3,,,,,,,,,,,,48,64,0
137040,note_on,0,0,4,,,,,,,,,,,,57,64,0
137280,note_off,240,0,1,,,,,,,,,,,,72,64,0
137280,note_on,0,0,1,,,,,,,,,,,,70,64,0
137280,note_on,0,0,4,,,,,,,,,,,,50,64,0
137280,note_off,240,0,3,,,,,,,,,,,,48,64,0
137280,note_off,240,0,4,,,,,,,,,,,,57,64,0
137280,note_on,0,0,3,,,,,,,,,,,,50,64,0
137520,note_off,240,0,1,,,,,,,,,,,,70,64,0
137520,note_on,0,0,1,,,,,,,,,,,,69,64,0
137520,note_on,0,0,3,,,,,,,,,,,,53,64,0
137520,note_off,240,0,3,,,,,,,,,,,,50,64,0
137760,note_on,0,0,3,,,,,,,,,,,,52,64,0
137760,note_off,240,0,3,,,,,,,,,,,,53,64,0
137760,note_on,0,0,1,,,,,,,,,,,,67,64,0
137760,note_off,240,0,1,,,,,,,,,,,,69,64,0
137760,note_on,960,0,2,,,,,,,,,,,,74,64,0
137760,note_off,480,0,4,,,,,,,,,,,,50,64,0
138000,note_off,240,0,1,,,,,,,,,,,,67,64,0
138000,note_on,0,0,1,,,,,,,,,,,,70,64,0
138000,note_on,0,0,3,,,,,,,,,,,,55,64,0
138000,note_off,240,0,3,,,,,,,,,,,,52,64,0
138240,note_off,240,0,1,,,,,,,,,,,,70,64,0
138240,note_off,240,0,3,,,,,,,,,,,,55,64,0
138240,note_on,0,0,3,,,,,,,,,,,,53,64,0
138240,note_on,0,0,1,,,,,,,,,,,,69,64,0
138480,note_off,240,0,3,,,,,,,,,,,,53,64,0
138480,note_on,0,0,3,,,,,,,,,,,,52,64,0
138480,note_on,0,0,2,,,,,,,,,,,,73,64,0
138480,note_off,720,0,2,,,,,,,,,,,,74,64,0
138480,note_on,720,0,4,,,,,,,,,,,,52,64,0
138600,note_off,120,0,3,,,,,,,,,,,,52,64,0
138600,note_on,0,0,3,,,,,,,,,,,,50,64,0
138720,note_on,0,0,4,,,,,,,,,,,,53,64,0
138720,note_on,0,0,2,,,,,,,,,,,,69,64,0
138720,note_on,0,0,3,,,,,,,,,,,,49,64,0
138720,note_off,240,0,2,,,,,,,,,,,,73,64,0
138720,note_off,120,0,3,,,,,,,,,,,,50,64,0
138720,note_off,240,0,4,,,,,,,,,,,,52,64,0
138960,note_on,0,0,2,,,,,,,,,,,,71,64,0
138960,note_off,240,0,4,,,,,,,,,,,,53,64,0
138960,note_on,0,0,4,,,,,,,,,,,,55,64,0
138960,note_off,240,0,2,,,,,,,,,,,,69,64,0
139200,note_off,240,0,4,,,,,,,,,,,,55,64,0
139200,note_on,0,0,4,,,,,,,,,,,,57,64,0
139200,note_off,240,0,2,,,,,,,,,,,,71,64,0
139200,note_on,0,0,2,,,,,,,,,,,,72,64,0
139200,note_off,480,0,3,,,,,,,,,,,,49,64,0
139440,note_off,1200,0,1,,,,,,,,,,,,69,64,0
139440,note_on,0,0,1,,,,,,,,,,,,67,64,0
139440,note_on,240,0,3,,,,,,,,,,,,51,64,0
139680,note_off,240,0,1,,,,,,,,,,,,67,64,0
139680,note_on,0,0,3,,,,,,,,,,,,50,64,0
139680,note_off,240,0,3,,,,,,,,,,,,51,64,0
139680,note_on,0,0,1,,,,,,,,,,,,66,64,0
139920,note_off,240,0,3,,,,,,,,,,,,50,64,0
139920,note_on,0,0,1,,,,,,,,,,,,69,64,0
139920,note_on,0,0,3,,,,,,,,,,,,53,64,0
139920,note_off,240,0,1,,,,,,,,,,,,66,64,0
140160,note_off,960,0,4,,,,,,,,,,,,57,64,0
140160,note_off,240,0,1,,,,,,,,,,,,69,64,0
140160,note_on,0,0,1,,,,,,,,,,,,67,64,0
140160,note_off,240,0,3,,,,,,,,,,,,53,64,0
140160,note_on,0,0,3,,,,,,,,,,,,51,64,0
140400,note_off,1200,0,2,,,,,,,,,,,,72,64,0
140400,note_on,0,0,2,,,,,,,,,,,,71,64,0
140400,note_off,240,0,3,,,,,,,,,,,,51,64,0
140400,note_on,240,0,4,,,,,,,,,,,,50,64,0
140400,note_on,0,0,3,,,,,,,,,,,,50,64,0
140520,note_on,0,0,3,,,,,,,,,,,,48,64,0
140520,note_off,120,0,3,,,,,,,,,,,,50,64,0
140640,note_off,240,0,4,,,,,,,,,,,,50,64,0
140640,note_on,0,0,3,,,,,,,,,,,,47,64,0
140640,note_off,240,0,2,,,,,,,,,,,,71,64,0
140640,note_on,0,0,4,,,,,,,,,,,,52,64,0
140640,note_off,120,0,3,,,,,,,,,,,,48,64,0
140640,note_on,0,0,2,,,,,,,,,,,,67,64,0
140880,note_off,240,0,4,,,,,,,,,,,,52,64,0
140880,note_on,0,0,4,,,,,,,,,,,,54,64,0
140880,note_off,240,0,2,,,,,,,,,,,,67,64,0
140880,note_on,0,0,2,,,,,,,,,,,,69,64,0
141120,note_off,240,0,4,,,,,,,,,,,,54,64,0
141120,note_on,0,0,4,,,,,,,,,,,,55,64,0
141120,note_off,480,0,3,,,,,,,,,,,,47,64,0
141120,note_off,240,0,2,,,,,,,,,,,,69,64,0
141120,note_on,0,0,2,,,,,,,,,,,,70,64,0
141360,note_on,0,0,1,,,,,,,,,,,,65,64,0
141360,note_on,240,0,3,,,,,,,,,,,,50,64,0
141360,note_off,1200,0,1,,,,,,,,,,,,67,64,0
141600,note_off,240,0,1,,,,,,,,,,,,65,64,0
141600,note_off,240,0,3,,,,,,,,,,,,50,64,0
141600,note_on,0,0,1,,,,,,,,,,,,64,64,0
141600,note_on,0,0,3,,,,,,,,,,,,49,64,0
141840,note_on,0,0,1,,,,,,,,,,,,67,64,0
141840,note_off,240,0,3,,,,,,,,,,,,49,64,0
141840,note_on,0,0,3,,,,,,,,,,,,52,64,0
141840,note_off,240,0,1,,,,,,,,,,,,64,64,0
142080,note_off,240,0,1,,,,,,,,,,,,67,64,0
142080,note_off,960,0,4,,,,,,,,,,,,55,64,0
142080,note_off,240,0,3,,,,,,,,,,,,52,64,0
142080,note_on,0,0,3,,,,,,,,,,,,50,64,0
142080,note_on,0,0,1,,,,,,,,,,,,65,64,0
142320,note_off,240,0,3,,,,,,,,,,,,50,64,0
142320,note_on,0,0,3,,,,,,,,,,,,48,64,0
142320,note_off,1200,0,2,,,,,,,,,,,,70,64,0
142320,note_on,0,0,2,,,,,,,,,,,,69,64,0
142560,note_off,240,0,3,,,,,,,,,,,,48,64,0
142560,note_on,0,0,3,,,,,,,,,,,,47,64,0
142560,note_on,480,0,4,,,,,,,,,,,,50,64,0
142560,note_off,480,0,1,,,,,,,,,,,,65,64,0
142560,note_off,240,0,2,,,,,,,,,,,,69,64,0
142560,note_on,0,0,2,,,,,,,,,,,,68,64,0
142800,note_off,240,0,2,,,,,,,,,,,,68,64,0
142800,note_on,0,0,3,,,,,,,,,,,,50,64,0
142800,note_off,240,0,3,,,,,,,,,,,,47,64,0
142800,note_on,240,0,1,,,,,,,,,,,,65,64,0
142800,note_on,0,0,2,,,,,,,,,,,,69,64,0
143040,note_off,240,0,3,,,,,,,,,,,,50,64,0
143040,note_off,240,0,1,,,,,,,,,,,,65,64,0
143040,note_on,0,0,1,,,,,,,,,,,,72,64,0
143040,note_on,0,0,4,,,,,,,,,,,,51,64,0
143040,note_off,240,0,2,,,,,,,,,,,,69,64,0
143040,note_on,0,0,2,,,,,,,,,,,,68,64,0
143040,note_off,480,0,4,,,,,,,,,,,,50,64,0
143040,note_on,0,0,3,,,,,,,,,,,,48,64,0
143280,note_on,0,0,2,,,,,,,,,,,,67,64,0
143280,note_off,240,0,2,,,,,,,,,,,,68,64,0
143280,note_on,0,0,3,,,,,,,,,,,,47,64,0
143280,note_off,240,0,3,,,,,,,,,,,,48,64,0
143520,note_on,0,0,3,,,,,,,,,,,,48,64,0
143520,note_off,240,0,3,,,,,,,,,,,,47,64,0
143520,note_off,240,0,2,,,,,,,,,,,,67,64,0
143520,note_on,0,0,2,,,,,,,,,,,,66,64,0
143520,note_on,0,0,4,,,,,,,,,,,,45,64,0
143520,note_off,480,0,4,,,,,,,,,,,,51,64,0
143520,note_off,480,0,1,,,,,,,,,,,,72,64,0
143760,note_on,0,0,2,,,,,,,,,,,,67,64,0
143760,note_on,240,0,1,,,,,,,,,,,,75,64,0
143760,note_off,240,0,2,,,,,,,,,,,,66,64,0
144000,note_off,240,0,2,,,,,,,,,,,,67,64,0
144000,note_on,0,0,2,,,,,,,,,,,,66,64,0
144000,note_on,0,0,1,,,,,,,,,,,,74,64,0
144000,note_off,240,0,1,,,,,,,,,,,,75,64,0
144000,note_off,480,0,4,,,,,,,,,,,,45,64,0
144000,note_on,0,0,4,,,,,,,,,,,,57,64,0
144120,note_off,120,0,4,,,,,,,,,,,,57,64,0
144120,note_on,0,0,4,,,,,,,,,,,,58,64,0
144240,note_off,120,0,4,,,,,,,,,,,,58,64,0
144240,note_on,0,0,4,,,,,,,,,,,,60,64,0
144240,note_on,0,0,3,,,,,,,,,,,,43,64,0
144240,note_off,720,0,3,,,,,,,,,,,,48,64,0
144240,note_off,240,0,2,,,,,,,,,,,,66,64,0
144240,note_on,0,0,2,,,,,,,,,,,,64,64,0
144480,note_on,0,0,3,,,,,,,,,,,,42,64,0
144480,note_off,240,0,3,,,,,,,,,,,,43,64,0
144480,note_off,480,0,1,,,,,,,,,,,,74,64,0
144480,note_off,240,0,2,,,,,,,,,,,,64,64,0
144480,note_on,0,0,2,,,,,,,,,,,,62,64,0
144720,note_off,480,0,4,,,,,,,,,,,,60,64,0
144720,note_on,0,0,2,,,,,,,,,,,,63,64,0
144720,note_on,0,0,3,,,,,,,,,,,,43,64,0
144720,note_on,240,0,1,,,,,,,,,,,,67,64,0
144720,note_off,240,0,3,,,,,,,,,,,,42,64,0
144720,note_on,0,0,4,,,,,,,,,,,,58,64,0
144720,note_off,240,0,2,,,,,,,,,,,,62,64,0
144960,note_on,0,0,3,,,,,,,,,,,,45,64,0
144960,note_off,240,0,3,,,,,,,,,,,,43,64,0
144960,note_on,0,0,4,,,,,,,,,,,,60,64,0
144960,note_on,0,0,2,,,,,,,,,,,,62,64,0
144960,note_off,240,0,1,,,,,,,,,,,,67,64,0
144960,note_off,240,0,2,,,,,,,,,,,,63,64,0
144960,note_off,240,0,4,,,,,,,,,,,,58,64,0
144960,note_on,0,0,1,,,,,,,,,,,,66,64,0
145200,note_on,0,0,4,,,,,,,,,,,,57,64,0
145200,note_off,240,0,4,,,,,,,,,,,,60,64,0
145200,note_off,240,0,3,,,,,,,,,,,,45,64,0
145200,note_on,0,0,2,,,,,,,,,,,,66,64,0
145200,note_off,240,0,2,,,,,,,,,,,,62,64,0
145200,note_on,0,0,3,,,,,,,,,,,,38,64,0
145440,note_off,240,0,3,,,,,,,,,,,,38,64,0
145440,note_on,0,0,3,,,,,,,,,,,,50,64,0
145440,note_on,0,0,2,,,,,,,,,,,,69,64,0
145440,note_off,240,0,4,,,,,,,,,,,,57,64,0
145440,note_on,0,0,4,,,,,,,,,,,,54,64,0
145440,note_off,240,0,2,,,,,,,,,,,,66,64,0
145440,note_off,480,0,1,,,,,,,,,,,,66,64,0
145680,note_on,240,0,1,,,,,,,,,,,,62,64,0
145680,note_off,240,0,2,,,,,,,,,,,,69,64,0
145680,note_on,0,0,2,,,,,,,,,,,,72,64,0
145920,note_off,240,0,1,,,,,,,,,,,,62,64,0
145920,note_on,0,0,1,,,,,,,,,,,,67,64,0
145920,note_off,240,0,2,,,,,,,,,,,,72,64,0
145920,note_on,0,0,4,,,,,,,,,,,,55,64,0
145920,note_off,480,0,4,,,,,,,,,,,,54,64,0
145920,note_on,0,0,2,,,,,,,,,,,,70,64,0
146160,note_off,240,0,2,,,,,,,,,,,,70,64,0
146160,note_on,0,0,2,,,,,,,,,,,,74,64,0
146400,note_off,240,0,2,,,,,,,,,,,,74,64,0
146400,note_on,0,0,2,,,,,,,,,,,,78,64,0
146400,note_off,480,0,4,,,,,,,,,,,,55,64,0
146400,note_on,0,0,1,,,,,,,,,,,,63,64,0
146400,note_off,480,0,1,,,,,,,,,,,,67,64,0
146400,note_off,960,0,3,,,,,,,,,,,,50,64,0
146400,note_on,0,0,3,,,,,,,,,,,,48,64,0
146640,note_off,240,0,3,,,,,,,,,,,,48,64,0
146640,note_on,0,0,3,,,,,,,,,,,,46,64,0
146640,note_off,240,0,2,,,,,,,,,,,,78,64,0
146640,note_on,240,0,4,,,,,,,,,,,,46,64,0
146640,note_on,0,0,2,,,,,,,,,,,,79,64,0
146880,note_off,480,0,1,,,,,,,,,,,,63,64,0
146880,note_on,0,0,3,,,,,,,,,,,,48,64,0
146880,note_off,240,0,3,,,,,,,,,,,,46,64,0
146880,note_on,0,0,1,,,,,,,,,,,,60,64,0
146880,note_on,0,0,2,,,,,,,,,,,,69,64,0
146880,note_off,240,0,2,,,,,,,,,,,,79,64,0
146880,note_off,240,0,4,,,,,,,,,,,,46,64,0
146880,note_on,0,0,4,,,,,,,,,,,,51,64,0
147120,note_on,0,0,2,,,,,,,,,,,,75,64,0
147120,note_off,240,0,2,,,,,,,,,,,,69,64,0
147360,note_on,0,0,3,,,,,,,,,,,,46,64,0
147360,note_on,0,0,1,,,,,,,,,,,,62,64,0
147360,note_off,240,0,2,,,,,,,,,,,,75,64,0
147360,note_on,0,0,2,,,,,,,,,,,,74,64,0
147360,note_off,480,0,1,,,,,,,,,,,,60,64,0
147360,note_off,480,0,3,,,,,,,,,,,,48,64,0
147360,note_off,480,0,4,,,,,,,,,,,,51,64,0
147600,note_off,240,0,2,,,,,,,,,,,,74,64,0
147600,note_on,0,0,2,,,,,,,,,,,,72,64,0
147600,note_off,240,0,3,,,,,,,,,,,,46,64,0
147600,note_on,0,0,3,,,,,,,,,,,,45,64,0
147600,note_on,240,0,4,,,,,,,,,,,,42,64,0
147840,note_on,0,0,1,,,,,,,,,,,,67,64,0
147840,note_off,480,0,1,,,,,,,,,,,,62,64,0
147840,note_on,0,0,3,,,,,,,,,,,,46,64,0
147840,note_off,240,0,3,,,,,,,,,,,,45,64,0
147840,note_off,240,0,2,,,,,,,,,,,,72,64,0
147840,note_on,0,0,2,,,,,,,,,,,,70,64,0
147840,note_on,0,0,4,,,,,,,,,,,,43,64,0
147840,note_off,240,0,4,,,,,,,,,,,,42,64,0
147960,note_off,120,0,2,,,,,,,,,,,,70,64,0
147960,note_off,120,0,3,,,,,,,,,,,,46,64,0
147960,note_on,0,0,3,,,,,,,,,,,,48,64,0
147960,note_on,0,0,2,,,,,,,,,,,,69,64,0
148080,note_off,240,0,1,,,,,,,,,,,,67,64,0
148080,note_on,0,0,3,,,,,,,,,,,,46,64,0
148080,note_off,120,0,2,,,,,,,,,,,,69,64,0
148080,note_off,120,0,3,,,,,,,,,,,,48,64,0
148080,note_on,0,0,1,,,,,,,,,,,,79,64,0
148080,note_on,0,0,2,,,,,,,,,,,,67,64,0
148200,note_off,120,0,1,,,,,,,,,,,,79,64,0
148200,note_on,0,0,1,,,,,,,,,,,,81,64,0
148200,note_on,0,0,2,,,,,,,,,,,,66,64,0
148200,note_off,120,0,3,,,,,,,,,,,,46,64,0
148200,note_on,0,0,3,,,,,,,,,,,,45,64,0
148200,note_off,120,0,2,,,,,,,,,,,,67,64,0
148320,note_off,120,0,1,,,,,,,,,,,,81,64,0
148320,note_on,0,0,1,,,,,,,,,,,,82,64,0
148320,note_on,0,0,2,,,,,,,,,,,,67,64,0
148320,note_off,480,0,4,,,,,,,,,,,,43,64,0
148320,note_off,120,0,2,,,,,,,,,,,,66,64,0
148320,note_on,0,0,4,,,,,,,,,,,,43,64,0
148320,note_off,120,0,3,,,,,,,,,,,,45,64,0
148320,note_on,0,0,3,,,,,,,,,,,,43,64,0
148440,note_on,0,0,2,,,,,,,,,,,,79,64,0
148440,note_off,120,0,2,,,,,,,,,,,,67,64,0
148560,note_on,0,0,2,,,,,,,,,,,,77,64,0
148560,note_off,240,0,4,,,,,,,,,,,,43,64,0
148560,note_off,120,0,2,,,,,,,,,,,,79,64,0
148560,note_on,0,0,1,,,,,,,,,,,,84,64,0
148560,note_off,240,0,1,,,,,,,,,,,,82,64,0
148560,note_on,0,0,4,,,,,,,,,,,,45,64,0
148680,note_off,120,0,2,,,,,,,,,,,,77,64,0
148680,note_on,0,0,2,,,,,,,,,,,,75,64,0
148800,note_off,120,0,2,,,,,,,,,,,,75,64,0
148800,note_on,0,0,4,,,,,,,,,,,,46,64,0
148800,note_on,0,0,1,,,,,,,,,,,,86,64,0
148800,note_off,240,0,1,,,,,,,,,,,,84,64,0
148800,note_on,0,0,2,,,,,,,,,,,,74,64,0
148800,note_off,240,0,4,,,,,,,,,,,,45,64,0
148920,note_off,120,0,2,,,,,,,,,,,,74,64,0
148920,note_on,0,0,2,,,,,,,,,,,,72,64,0
149040,note_off,120,0,2,,,,,,,,,,,,72,64,0
149040,note_off,720,0,3,,,,,,,,,,,,43,64,0
149040,note_on,0,0,3,,,,,,,,,,,,45,64,0
149040,note_off,240,0,4,,,,,,,,,,,,46,64,0
149040,note_on,0,0,4,,,,,,,,,,,,48,64,0
149040,note_on,0,0,2,,,,,,,,,,,,70,64,0
149160,note_on,0,0,2,,,,,,,,,,,,69,64,0
149160,note_off,120,0,2,,,,,,,,,,,,70,64,0
149280,note_off,240,0,4,,,,,,,,,,,,48,64,0
149280,note_off,120,0,2,,,,,,,,,,,,69,64,0
149280,note_on,0,0,2,,,,,,,,,,,,67,64,0
149280,note_off,240,0,3,,,,,,,,,,,,45,64,0
149280,note_on,0,0,4,,,,,,,,,,,,50,64,0
149280,note_on,0,0,3,,,,,,,,,,,,46,64,0
149520,note_on,0,0,1,,,,,,,,,,,,84,64,0
149520,note_on,0,0,3,,,,,,,,,,,,48,64,0
149520,note_off,720,0,1,,,,,,,,,,,,86,64,0
149520,note_on,0,0,4,,,,,,,,,,,,51,64,0
149520,note_off,240,0,4,,,,,,,,,,,,50,64,0
149520,note_off,240,0,3,,,,,,,,,,,,46,64,0
149640,note_on,0,0,1,,,,,,,,,,,,82,64,0
149640,note_off,120,0,1,,,,,,,,,,,,84,64,0
149760,note_off,240,0,3,,,,,,,,,,,,48,64,0
149760,note_on,0,0,3,,,,,,,,,,,,50,64,0
149760,note_off,480,0,2,,,,,,,,,,,,67,64,0
149760,note_on,0,0,1,,,,,,,,,,,,81,64,0
149760,note_off,120,0,1,,,,,,,,,,,,82,64,0
149760,note_off,240,0,4,,,,,,,,,,,,51,64,0
149760,note_on,0,0,4,,,,,,,,,,,,42,64,0
150000,note_on,240,0,2,,,,,,,,,,,,69,64,0
150000,note_on,0,0,1,,,,,,,,,,,,78,64,0
150000,note_off,240,0,1,,,,,,,,,,,,81,64,0
150000,note_on,0,0,3,,,,,,,,,,,,51,64,0
150000,note_off,240,0,3,,,,,,,,,,,,50,64,0
150240,note_on,0,0,3,,,,,,,,,,,,50,64,0
150240,note_on,0,0,1,,,,,,,,,,,,79,64,0
150240,note_off,240,0,2,,,,,,,,,,,,69,64,0
150240,note_on,0,0,2,,,,,,,,,,,,70,64,0
150240,note_off,240,0,3,,,,,,,,,,,,51,64,0
150240,note_off,240,0,1,,,,,,,,,,,,78,64,0
150240,note_off,480,0,4,,,,,,,,,,,,42,64,0
150480,note_on,0,0,1,,,,,,,,,,,,81,64,0
150480,note_on,0,0,2,,,,,,,,,,,,72,64,0
150480,note_off,240,0,1,,,,,,,,,,,,79,64,0
150480,note_off,240,0,3,,,,,,,,,,,,50,64,0
150480,note_on,0,0,3,,,,,,,,,,,,48,64,0
150480,note_off,240,0,2,,,,,,,,,,,,70,64,0
150720,note_on,0,0,3,,,,,,,,,,,,46,64,0
150720,note_off,240,0,3,,,,,,,,,,,,48,64,0
150720,note_on,0,0,2,,,,,,,,,,,,74,64,0
150720,note_on,0,0,1,,,,,,,,,,,,74,64,0
150720,note_off,240,0,1,,,,,,,,,,,,81,64,0
150720,note_off,240,0,2,,,,,,,,,,,,72,64,0
150960,note_off,240,0,3,,,,,,,,,,,,46,64,0
150960,note_off,240,0,2,,,,,,,,,,,,74,64,0
150960,note_on,0,0,2,,,,,,,,,,,,77,64,0
150960,note_on,0,0,3,,,,,,,,,,,,45,64,0
151200,note_off,240,0,3,,,,,,,,,,,,45,64,0
151200,note_on,0,0,3,,,,,,,,,,,,43,64,0
151200,note_on,0,0,2,,,,,,,,,,,,76,64,0
151200,note_off,240,0,2,,,,,,,,,,,,77,64,0
151200,note_off,480,0,1,,,,,,,,,,,,74,64,0
151200,note_on,960,0,4,,,,,,,,,,,,50,64,0
151440,note_off,240,0,2,,,,,,,,,,,,76,64,0
151440,note_off,240,0,3,,,,,,,,,,,,43,64,0
151440,note_on,0,0,2,,,,,,,,,,,,79,64,0
151440,note_on,0,0,3,,,,,,,,,,,,46,64,0
151680,note_on,0,0,2,,,,,,,,,,,,77,64,0
151680,note_off,240,0,2,,,,,,,,,,,,79,64,0
151680,note_on,0,0,3,,,,,,,,,,,,45,64,0
151680,note_off,240,0,3,,,,,,,,,,,,46,64,0
151920,note_on,720,0,1,,,,,,,,,,,,76,64,0
151920,note_on,0,0,4,,,,,,,,,,,,49,64,0
151920,note_off,240,0,2,,,,,,,,,,,,77,64,0
151920,note_on,0,0,2,,,,,,,,,,,,76,64,0
151920,note_off,720,0,4,,,,,,,,,,,,50,64,0
152040,note_off,120,0,2,,,,,,,,,,,,76,64,0
152040,note_on,0,0,2,,,,,,,,,,,,74,64,0
152160,note_on,0,0,2,,,,,,,,,,,,73,64,0
152160,note_off,240,0,4,,,,,,,,,,,,49,64,0
152160,note_on,0,0,4,,,,,,,,,,,,45,64,0
152160,note_off,240,0,1,,,,,,,,,,,,76,64,0
152160,note_on,0,0,1,,,,,,,,,,,,77,64,0
152160,note_off,120,0,2,,,,,,,,,,,,74,64,0
152400,note_off,240,0,1,,,,,,,,,,,,77,64,0
152400,note_on,0,0,1,,,,,,,,,,,,79,64,0
152400,note_off,240,0,4,,,,,,,,,,,,45,64,0
152400,note_on,0,0,4,,,,,,,,,,,,47,64,0
152640,note_off,480,0,2,,,,,,,,,,,,73,64,0
152640,note_on,0,0,1,,,,,,,,,,,,81,64,0
152640,note_off,240,0,1,,,,,,,,,,,,79,64,0
152640,note_off,240,0,4,,,,,,,,,,,,47,64,0
152640,note_on,0,0,4,,,,,,,,,,,,48,64,0
152880,note_off,1200,0,3,,,,,,,,,,,,45,64,0
152880,note_on,240,0,2,,,,,,,,,,,,75,64,0
152880,note_on,0,0,3,,,,,,,,,,,,43,64,0
153120,note_off,240,0,2,,,,,,,,,,,,75,64,0
153120,note_off,240,0,3,,,,,,,,,,,,43,64,0
153120,note_on,0,0,2,,,,,,,,,,,,74,64,0
153120,note_on,0,0,3,,,,,,,,,,,,42,64,0
153360,note_off,240,0,3,,,,,,,,,,,,42,64,0
153360,note_off,240,0,2,,,,,,,,,,,,74,64,0
153360,note_on,0,0,3,,,,,,,,,,,,45,64,0
153360,note_on,0,0,2,,,,,,,,,,,,77,64,0
153600,note_off,240,0,2,,,,,,,,,,,,77,64,0
153600,note_on,0,0,2,,,,,,,,,,,,75,64,0
153600,note_off,960,0,1,,,,,,,,,,,,81,64,0
153600,note_off,240,0,3,,,,,,,,,,,,45,64,0
153600,note_on,0,0,3,,,,,,,,,,,,43,64,0
153840,note_off,240,0,2,,,,,,,,,,,,75,64,0
153840,note_off,1200,0,4,,,,,,,,,,,,48,64,0
153840,note_on,240,0,1,,,,,,,,,,,,74,64,0
153840,note_on,0,0,2,,,,,,,,,,,,74,64,0
153840,note_on,0,0,4,,,,,,,,,,,,47,64,0
153960,note_on,0,0,2,,,,,,,,,,,,72,64,0
153960,note_off,120,0,2,,,,,,,,,,,,74,64,0
154080,note_on,0,0,1,,,,,,,,,,,,76,64,0
154080,note_on,0,0,4,,,,,,,,,,,,43,64,0
154080,note_off,240,0,4,,,,,,,,,,,,47,64,0
154080,note_off,240,0,1,,,,,,,,,,,,74,64,0
154080,note_off,120,0,2,,,,,,,,,,,,72,64,0
154080,note_on,0,0,2,,,,,,,,,,,,71,64,0
154320,note_on,0,0,4,,,,,,,,,,,,45,64,0
154320,note_on,0,0,1,,,,,,,,,,,,78,64,0
154320,note_off,240,0,1,,,,,,,,,,,,76,64,0
154320,note_off,240,0,4,,,,,,,,,,,,43,64,0
154560,note_on,0,0,4,,,,,,,,,,,,46,64,0
154560,note_on,0,0,1,,,,,,,,,,,,79,64,0
154560,note_off,240,0,4,,,,,,,,,,,,45,64,0
154560,note_off,240,0,1,,,,,,,,,,,,78,64,0
154560,note_off,480,0,2,,,,,,,,,,,,71,64,0
154800,note_on,0,0,3,,,,,,,,,,,,41,64,0
154800,note_off,1200,0,3,,,,,,,,,,,,43,64,0
154800,note_on,240,0,2,,,,,,,,,,,,74,64,0
155040,note_off,240,0,3,,,,,,,,,,,,41,64,0
155040,note_on,0,0,3,,,,,,,,,,,,40,64,0
155040,note_off,240,0,2,,,,,,,,,,,,74,64,0
155040,note_on,0,0,2,,,,,,,,,,,,73,64,0
155280,note_on,0,0,3,,,,,,,,,,,,43,64,0
155280,note_off,240,0,3,,,,,,,,,,,,40,64,0
155280,note_on,0,0,2,,,,,,,,,,,,76,64,0
155280,note_off,240,0,2,,,,,,,,,,,,73,64,0
155520,note_off,240,0,2,,,,,,,,,,,,76,64,0
155520,note_off,240,0,3,,,,,,,,,,,,43,64,0
155520,note_on,0,0,3,,,,,,,,,,,,41,64,0
155520,note_on,0,0,2,,,,,,,,,,,,74,64,0
155520,note_off,960,0,1,,,,,,,,,,,,79,64,0
155760,note_on,0,0,4,,,,,,,,,,,,45,64,0
155760,note_on,0,0,2,,,,,,,,,,,,72,64,0
155760,note_off,240,0,2,,,,,,,,,,,,74,64,0
155760,note_off,1200,0,4,,,,,,,,,,,,46,64,0
156000,note_on,0,0,2,,,,,,,,,,,,71,64,0
156000,note_off,240,0,2,,,,,,,,,,,,72,64,0
156000,note_off,480,0,3,,,,,,,,,,,,41,64,0
156000,note_on,480,0,1,,,,,,,,,,,,74,64,0
156000,note_off,240,0,4,,,,,,,,,,,,45,64,0
156000,note_on,0,0,4,,,,,,,,,,,,44,64,0
156240,note_on,240,0,3,,,,,,,,,,,,41,64,0
156240,note_on,0,0,4,,,,,,,,,,,,45,64,0
156240,note_off,240,0,2,,,,,,,,,,,,71,64,0
156240,note_on,0,0,2,,,,,,,,,,,,74,64,0
156240,note_off,240,0,4,,,,,,,,,,,,44,64,0
156480,note_on,0,0,1,,,,,,,,,,,,75,64,0
156480,note_off,480,0,1,,,,,,,,,,,,74,64,0
156480,note_on,0,0,3,,,,,,,,,,,,48,64,0
156480,note_off,240,0,3,,,,,,,,,,,,41,64,0
156480,note_on,0,0,4,,,,,,,,,,,,44,64,0
156480,note_off,240,0,2,,,,,,,,,,,,74,64,0
156480,note_on,0,0,2,,,,,,,,,,,,72,64,0
156480,note_off,240,0,4,,,,,,,,,,,,45,64,0
156720,note_off,240,0,4,,,,,,,,,,,,44,64,0
156720,note_on,0,0,4,,,,,,,,,,,,43,64,0
156720,note_off,240,0,2,,,,,,,,,,,,72,64,0
156720,note_on,0,0,2,,,,,,,,,,,,71,64,0
156960,note_off,240,0,4,,,,,,,,,,,,43,64,0
156960,note_off,480,0,3,,,,,,,,,,,,48,64,0
156960,note_on,0,0,4,,,,,,,,,,,,42,64,0
156960,note_off,240,0,2,,,,,,,,,,,,71,64,0
156960,note_on,0,0,2,,,,,,,,,,,,72,64,0
156960,note_off,480,0,1,,,,,,,,,,,,75,64,0
156960,note_on,0,0,1,,,,,,,,,,,,69,64,0
157200,note_on,0,0,4,,,,,,,,,,,,43,64,0
157200,note_off,240,0,4,,,,,,,,,,,,42,64,0
157200,note_on,240,0,3,,,,,,,,,,,,51,64,0
157440,note_off,240,0,4,,,,,,,,,,,,43,64,0
157440,note_on,0,0,4,,,,,,,,,,,,42,64,0
157440,note_off,240,0,3,,,,,,,,,,,,51,64,0
157440,note_on,0,0,3,,,,,,,,,,,,50,64,0
157440,note_off,480,0,1,,,,,,,,,,,,69,64,0
157440,note_on,0,0,1,,,,,,,,,,,,81,64,0
157560,note_off,120,0,1,,,,,,,,,,,,81,64,0
157560,note_on,0,0,1,,,,,,,,,,,,82,64,0
157680,note_on,0,0,1,,,,,,,,,,,,84,64,0
157680,note_on,0,0,4,,,,,,,,,,,,40,64,0
157680,note_off,720,0,2,,,,,,,,,,,,72,64,0
157680,note_on,0,0,2,,,,,,,,,,,,67,64,0
157680,note_off,240,0,4,,,,,,,,,,,,42,64,0
157680,note_off,120,0,1,,,,,,,,,,,,82,64,0
157920,note_off,480,0,3,,,,,,,,,,,,50,64,0
157920,note_off,240,0,2,,,,,,,,,,,,67,64,0
157920,note_on,0,0,2,,,,,,,,,,,,66,64,0
157920,note_off,240,0,4,,,,,,,,,,,,40,64,0
157920,note_on,0,0,4,,,,,,,,,,,,38,64,0
158160,note_on,0,0,2,,,,,,,,,,,,67,64,0
158160,note_off,240,0,2,,,,,,,,,,,,66,64,0
158160,note_on,0,0,1,,,,,,,,,,,,82,64,0
158160,note_on,0,0,4,,,,,,,,,,,,39,64,0
158160,note_on,240,0,3,,,,,,,,,,,,43,64,0
158160,note_off,240,0,4,,,,,,,,,,,,38,64,0
158160,note_off,480,0,1,,,,,,,,,,,,84,64,0
158400,note_on,0,0,4,,,,,,,,,,,,38,64,0
158400,note_on,0,0,3,,,,,,,,,,,,42,64,0
158400,note_off,240,0,2,,,,,,,,,,,,67,64,0
158400,note_on,0,0,1,,,,,,,,,,,,84,64,0
158400,note_off,240,0,1,,,,,,,,,,,,82,64,0
158400,note_off,240,0,4,,,,,,,,,,,,39,64,0
158400,note_off,240,0,3,,,,,,,,,,,,43,64,0
158400,note_on,0,0,2,,,,,,,,,,,,69,64,0
158640,note_off,240,0,2,,,,,,,,,,,,69,64,0
158640,note_off,240,0,1,,,,,,,,,,,,84,64,0
158640,note_on,0,0,1,,,,,,,,,,,,81,64,0
158640,note_on,0,0,4,,,,,,,,,,,,42,64,0
158640,note_off,240,0,4,,,,,,,,,,,,38,64,0
158640,note_on,0,0,2,,,,,,,,,,,,62,64,0
158880,note_on,0,0,4,,,,,,,,,,,,45,64,0
158880,note_off,240,0,4,,,,,,,,,,,,42,64,0
158880,note_off,480,0,3,,,,,,,,,,,,42,64,0
158880,note_on,0,0,2,,,,,,,,,,,,74,64,0
158880,note_on,0,0,1,,,,,,,,,,,,78,64,0
158880,note_off,240,0,1,,,,,,,,,,,,81,64,0
158880,note_off,240,0,2,,,,,,,,,,,,62,64,0
159120,note_off,240,0,4,,,,,,,,,,,,45,64,0
159120,note_on,0,0,4,,,,,,,,,,,,48,64,0
159120,note_on,240,0,3,,,,,,,,,,,,38,64,0
159360,note_off,240,0,4,,,,,,,,,,,,48,64,0
159360,note_on,0,0,4,,,,,,,,,,,,46,64,0
159360,note_off,480,0,1,,,,,,,,,,,,78,64,0
159360,note_on,0,0,1,,,,,,,,,,,,79,64,0
159360,note_on,0,0,3,,,,,,,,,,,,43,64,0
159360,note_off,240,0,3,,,,,,,,,,,,38,64,0
159600,note_off,240,0,4,,,,,,,,,,,,46,64,0
159600,note_on,0,0,4,,,,,,,,,,,,50,64,0
159840,note_off,960,0,2,,,,,,,,,,,,74,64,0
159840,note_off,240,0,4,,,,,,,,,,,,50,64,0
159840,note_on,0,0,4,,,,,,,,,,,,54,64,0
159840,note_off,480,0,1,,,,,,,,,,,,79,64,0
159840,note_on,0,0,2,,,,,,,,,,,,72,64,0
159840,note_on,0,0,3,,,,,,,,,,,,39,64,0
159840,note_off,480,0,3,,,,,,,,,,,,43,64,0
160080,note_on,240,0,1,,,,,,,,,,,,70,64,0
160080,note_off,240,0,2,,,,,,,,,,,,72,64,0
160080,note_on,0,0,4,,,,,,,,,,,,55,64,0
160080,note_off,240,0,4,,,,,,,,,,,,54,64,0
160080,note_on,0,0,2,,,,,,,,,,,,70,64,0
160320,note_on,0,0,1,,,,,,,,,,,,75,64,0
160320,note_off,480,0,3,,,,,,,,,,,,39,64,0
160320,note_on,0,0,3,,,,,,,,,,,,36,64,0
160320,note_off,240,0,4,,,,,,,,,,,,55,64,0
160320,note_on,0,0,4,,,,,,,,,,,,45,64,0
160320,note_on,0,0,2,,,,,,,,,,,,72,64,0
160320,note_off,240,0,2,,,,,,,,,,,,70,64,0
160320,note_off,240,0,1,,,,,,,,,,,,70,64,0
160560,note_on,0,0,4,,,,,,,,,,,,51,64,0
160560,note_off,240,0,4,,,,,,,,,,,,45,64,0
160800,note_off,480,0,2,,,,,,,,,,,,72,64,0
160800,note_on,0,0,2,,,,,,,,,,,,70,64,0
160800,note_on,0,0,3,,,,,,,,,,,,38,64,0
160800,note_off,480,0,3,,,,,,,,,,,,36,64,0
160800,note_off,480,0,1,,,,,,,,,,,,75,64,0
160800,note_on,0,0,4,,,,,,,,,,,,50,64,0
160800,note_off,240,0,4,,,,,,,,,,,,51,64,0
161040,note_on,0,0,4,,,,,,,,,,,,48,64,0
161040,note_off,240,0,4,,,,,,,,,,,,50,64,0
161040,note_off,240,0,2,,,,,,,,,,,,70,64,0
161040,note_on,0,0,2,,,,,,,,,,,,69,64,0
161040,note_on,240,0,1,,,,,,,,,,,,66,64,0
161280,note_off,240,0,1,,,,,,,,,,,,66,64,0
161280,note_on,0,0,4,,,,,,,,,,,,46,64,0
161280,note_on,0,0,3,,,,,,,,,,,,43,64,0
161280,note_off,240,0,4,,,,,,,,,,,,48,64,0
161280,note_on,0,0,2,,,,,,,,,,,,70,64,0
161280,note_off,240,0,2,,,,,,,,,,,,69,64,0
161280,note_on,0,0,1,,,,,,,,,,,,67,64,0
161280,note_off,480,0,3,,,,,,,,,,,,38,64,0
162240,note_off,960,0,3,,,,,,,,,,,,43,64,0
162240,end_of_track,0,1,1,,,,,,,,,,,,,,
162240,note_off,960,0,4,,,,,,,,,,,,46,64,0
162240,end_of_track,0,1,3,,,,,,,,,,,,,,
162240,note_off,960,0,2,,,,,,,,,,,,70,64,0
162240,end_of_track,0,1,2,,,,,,,,,,,,,,
162240,note_off,960,0,1,,,,,,,,,,,,67,64,0
162240,end_of_track,0,1,4,,,,,,,,,,,,,,
