tick,type,time,meta,track,numerator,denominator,clocks_per_click,notated_32nd_notes_per_beat,key,tempo,program,channel,control,value,note,velocity
0,track_name,0,1,0,,,,,,,,,,,,
0,program_change,0,0,2,,,,,,,0,1,,,,
0,control_change,0,0,2,,,,,,,,1,7,100,,
0,control_change,0,0,2,,,,,,,,1,10,59,,
0,note_on,0,0,2,,,,,,,,1,,,55,100
0,track_name,0,1,3,,,,,,,,,,,,
0,end_of_track,0,1,3,,,,,,,,,,,,
0,track_name,0,1,4,,,,,,,,,,,,
0,end_of_track,0,1,4,,,,,,,,,,,,
0,track_name,0,1,5,,,,,,,,,,,,
0,end_of_track,0,1,5,,,,,,,,,,,,
0,track_name,0,1,6,,,,,,,,,,,,
0,end_of_track,0,1,6,,,,,,,,,,,,
0,track_name,0,1,7,,,,,,,,,,,,
0,end_of_track,0,1,7,,,,,,,,,,,,
0,track_name,0,1,8,,,,,,,,,,,,
0,end_of_track,0,1,8,,,,,,,,,,,,
0,track_name,0,1,9,,,,,,,,,,,,
0,track_name,0,1,16,,,,,,,,,,,,
0,end_of_track,0,1,15,,,,,,,,,,,,
0,track_name,0,1,15,,,,,,,,,,,,
0,end_of_track,0,1,14,,,,,,,,,,,,
0,track_name,0,1,14,,,,,,,,,,,,
0,end_of_track,0,1,13,,,,,,,,,,,,
0,track_name,0,1,2,,,,,,,,,,,,
0,track_name,0,1,13,,,,,,,,,,,,
0,track_name,0,1,12,,,,,,,,,,,,
0,end_of_track,0,1,11,,,,,,,,,,,,
0,track_name,0,1,11,,,,,,,,,,,,
0,end_of_track,0,1,10,,,,,,,,,,,,
0,track_name,0,1,10,,,,,,,,,,,,
0,end_of_track,0,1,9,,,,,,,,,,,,
0,end_of_track,0,1,12,,,,,,,,,,,,
0,end_of_track,0,1,16,,,,,,,,,,,,
0,end_of_track,0,1,17,,,,,,,,,,,,
0,control_change,0,0,1,,,,,,,,0,10,69,,
0,marker,0,1,0,,,,,,,,,,,,
0,track_name,0,1,1,,,,,,,,,,,,
0,program_change,0,0,1,,,,,,,0,0,,,,
0,control_change,0,0,1,,,,,,,,0,7,100,,
0,note_on,0,0,1,,,,,,,,0,,,62,100
0,set_tempo,0,1,0,,,,,,600000,,,,,,
0,key_signature,0,1,0,,,,,G,,,,,,,
0,time_signature,0,1,0,3,4,24,8,,,,,,,,
120,note_on,0,0,1,,,,,,,,0,,,67,100
120,note_on,120,0,1,,,,,,,,0,,,62,0
240,note_on,120,0,1,,,,,,,,0,,,67,0
240,note_on,0,0,2,,,,,,,,1,,,50,100
240,note_on,240,0,2,,,,,,,,1,,,55,0
240,note_on,0,0,1,,,,,,,,0,,,71,100
360,note_on,120,0,1,,,,,,,,0,,,71,0
360,note_on,0,0,1,,,,,,,,0,,,69,100
480,note_on,120,0,1,,,,,,,,0,,,69,0
480,note_on,0,0,2,,,,,,,,1,,,47,100
480,note_on,240,0,2,,,,,,,,1,,,50,0
480,note_on,0,0,1,,,,,,,,0,,,67,100
600,note_on,0,0,1,,,,,,,,0,,,71,100
600,note_on,120,0,1,,,,,,,,0,,,67,0
720,note_on,240,0,2,,,,,,,,1,,,47,0
720,note_on,120,0,1,,,,,,,,0,,,71,0
720,note_on,0,0,1,,,,,,,,0,,,74,100
720,note_on,0,0,2,,,,,,,,1,,,43,100
840,note_on,120,0,1,,,,,,,,0,,,74,0
840,note_on,0,0,1,,,,,,,,0,,,72,100
960,note_on,120,0,1,,,,,,,,0,,,72,0
960,note_on,0,0,1,,,,,,,,0,,,71,100
960,note_on,240,0,2,,,,,,,,1,,,43,0
1080,note_on,120,0,1,,,,,,,,0,,,71,0
1080,note_on,120,0,2,,,,,,,,1,,,55,100
1080,note_on,0,0,1,,,,,,,,0,,,74,100
1200,note_on,0,0,1,,,,,,,,0,,,79,100
1200,note_on,0,0,2,,,,,,,,1,,,54,100
1200,note_on,120,0,2,,,,,,,,1,,,55,0
1200,note_on,120,0,1,,,,,,,,0,,,74,0
1320,note_on,120,0,2,,,,,,,,1,,,54,0
1320,note_on,0,0,2,,,,,,,,1,,,52,100
1320,note_on,120,0,1,,,,,,,,0,,,79,0
1440,note_on,120,0,2,,,,,,,,1,,,52,0
1440,note_on,0,0,2,,,,,,,,1,,,54,100
1440,note_on,120,0,1,,,,,,,,0,,,62,100
1560,note_on,0,0,1,,,,,,,,0,,,66,100
1560,note_on,120,0,1,,,,,,,,0,,,62,0
1680,note_on,240,0,2,,,,,,,,1,,,54,0
1680,note_on,0,0,2,,,,,,,,1,,,50,100
1680,note_on,120,0,1,,,,,,,,0,,,66,0
1680,note_on,0,0,1,,,,,,,,0,,,69,100
1800,note_on,0,0,1,,,,,,,,0,,,67,100
1800,note_on,120,0,1,,,,,,,,0,,,69,0
1920,note_on,120,0,1,,,,,,,,0,,,67,0
1920,note_on,240,0,2,,,,,,,,1,,,50,0
1920,note_on,0,0,2,,,,,,,,1,,,45,100
1920,note_on,0,0,1,,,,,,,,0,,,66,100
2040,note_on,0,0,1,,,,,,,,0,,,69,100
2040,note_on,120,0,1,,,,,,,,0,,,66,0
2160,note_on,0,0,1,,,,,,,,0,,,72,100
2160,note_on,120,0,1,,,,,,,,0,,,69,0
2160,note_on,0,0,2,,,,,,,,1,,,42,100
2160,note_on,240,0,2,,,,,,,,1,,,45,0
2280,note_on,120,0,1,,,,,,,,0,,,72,0
2280,note_on,0,0,1,,,,,,,,0,,,71,100
2400,note_on,240,0,2,,,,,,,,1,,,42,0
2400,note_on,120,0,1,,,,,,,,0,,,71,0
2400,note_on,0,0,1,,,,,,,,0,,,69,100
2520,note_on,120,0,2,,,,,,,,1,,,54,100
2520,note_on,120,0,1,,,,,,,,0,,,69,0
2520,note_on,0,0,1,,,,,,,,0,,,74,100
2640,note_on,0,0,2,,,,,,,,1,,,52,100
2640,note_on,120,0,2,,,,,,,,1,,,54,0
2640,note_on,120,0,1,,,,,,,,0,,,74,0
2640,note_on,0,0,1,,,,,,,,0,,,78,100
2760,note_on,0,0,2,,,,,,,,1,,,50,100
2760,note_on,120,0,2,,,,,,,,1,,,52,0
2760,note_on,120,0,1,,,,,,,,0,,,78,0
2880,note_on,0,0,2,,,,,,,,1,,,52,100
2880,note_on,120,0,2,,,,,,,,1,,,50,0
2880,note_on,120,0,1,,,,,,,,0,,,59,100
3000,note_on,120,0,1,,,,,,,,0,,,59,0
3000,note_on,0,0,1,,,,,,,,0,,,64,100
3120,note_on,120,0,1,,,,,,,,0,,,64,0
3120,note_on,240,0,2,,,,,,,,1,,,52,0
3120,note_on,0,0,1,,,,,,,,0,,,67,100
3120,note_on,0,0,2,,,,,,,,1,,,47,100
3240,note_on,120,0,1,,,,,,,,0,,,67,0
3240,note_on,0,0,1,,,,,,,,0,,,66,100
3360,note_on,0,0,1,,,,,,,,0,,,64,100
3360,note_on,120,0,1,,,,,,,,0,,,66,0
3360,note_on,0,0,2,,,,,,,,1,,,43,100
3360,note_on,240,0,2,,,,,,,,1,,,47,0
3480,note_on,120,0,1,,,,,,,,0,,,64,0
3480,note_on,0,0,1,,,,,,,,0,,,67,100
3600,note_on,240,0,2,,,,,,,,1,,,43,0
3600,note_on,120,0,1,,,,,,,,0,,,67,0
3600,note_on,0,0,1,,,,,,,,0,,,71,100
3600,note_on,0,0,2,,,,,,,,1,,,40,100
3720,note_on,120,0,1,,,,,,,,0,,,71,0
3720,note_on,0,0,1,,,,,,,,0,,,69,100
3840,note_on,120,0,1,,,,,,,,0,,,69,0
3840,note_on,240,0,2,,,,,,,,1,,,40,0
3840,note_on,0,0,1,,,,,,,,0,,,67,100
3960,note_on,120,0,2,,,,,,,,1,,,52,100
3960,note_on,0,0,1,,,,,,,,0,,,73,100
3960,note_on,120,0,1,,,,,,,,0,,,67,0
4080,note_on,0,0,2,,,,,,,,1,,,50,100
4080,note_on,120,0,2,,,,,,,,1,,,52,0
4080,note_on,120,0,1,,,,,,,,0,,,73,0
4080,note_on,0,0,1,,,,,,,,0,,,76,100
4200,note_on,0,0,2,,,,,,,,1,,,49,100
4200,note_on,120,0,2,,,,,,,,1,,,50,0
4200,note_on,120,0,1,,,,,,,,0,,,76,0
4320,note_on,0,0,2,,,,,,,,1,,,50,100
4320,note_on,120,0,2,,,,,,,,1,,,49,0
4320,note_on,120,0,1,,,,,,,,0,,,57,100
4440,note_on,0,0,1,,,,,,,,0,,,62,100
4440,note_on,120,0,1,,,,,,,,0,,,57,0
4560,note_on,0,0,2,,,,,,,,1,,,45,100
4560,note_on,240,0,2,,,,,,,,1,,,50,0
4560,note_on,0,0,1,,,,,,,,0,,,66,100
4560,note_on,120,0,1,,,,,,,,0,,,62,0
4680,note_on,120,0,1,,,,,,,,0,,,66,0
4680,note_on,0,0,1,,,,,,,,0,,,64,100
4800,note_on,240,0,2,,,,,,,,1,,,45,0
4800,note_on,0,0,2,,,,,,,,1,,,42,100
4800,note_on,120,0,1,,,,,,,,0,,,64,0
4800,note_on,0,0,1,,,,,,,,0,,,62,100
4920,note_on,120,0,1,,,,,,,,0,,,62,0
4920,note_on,0,0,1,,,,,,,,0,,,66,100
5040,note_on,0,0,1,,,,,,,,0,,,69,100
5040,note_on,0,0,2,,,,,,,,1,,,38,100
5040,note_on,120,0,1,,,,,,,,0,,,66,0
5040,note_on,240,0,2,,,,,,,,1,,,42,0
5160,note_on,0,0,1,,,,,,,,0,,,67,100
5160,note_on,120,0,1,,,,,,,,0,,,69,0
5280,note_on,0,0,1,,,,,,,,0,,,66,100
5280,note_on,120,0,1,,,,,,,,0,,,67,0
5280,note_on,240,0,2,,,,,,,,1,,,38,0
5400,note_on,120,0,2,,,,,,,,1,,,48,100
5400,note_on,0,0,1,,,,,,,,0,,,69,100
5400,note_on,120,0,1,,,,,,,,0,,,66,0
5520,note_on,0,0,2,,,,,,,,1,,,47,100
5520,note_on,120,0,2,,,,,,,,1,,,48,0
5520,note_on,0,0,1,,,,,,,,0,,,74,100
5520,note_on,120,0,1,,,,,,,,0,,,69,0
5640,note_on,0,0,2,,,,,,,,1,,,45,100
5640,note_on,120,0,2,,,,,,,,1,,,47,0
5760,note_on,120,0,2,,,,,,,,1,,,45,0
5760,note_on,0,0,2,,,,,,,,1,,,47,100
5880,note_on,0,0,1,,,,,,,,0,,,71,100
5880,note_on,360,0,1,,,,,,,,0,,,74,0
6000,note_on,120,0,1,,,,,,,,0,,,71,0
6000,note_on,0,0,2,,,,,,,,1,,,50,100
6000,note_on,240,0,2,,,,,,,,1,,,47,0
6000,note_on,0,0,1,,,,,,,,0,,,67,100
6120,note_on,120,0,1,,,,,,,,0,,,67,0
6120,note_on,0,0,1,,,,,,,,0,,,69,100
6240,note_on,0,0,2,,,,,,,,1,,,55,100
6240,note_on,120,0,1,,,,,,,,0,,,69,0
6240,note_on,0,0,1,,,,,,,,0,,,71,100
6240,note_on,240,0,2,,,,,,,,1,,,50,0
6360,note_on,120,0,1,,,,,,,,0,,,71,0
6360,note_on,0,0,1,,,,,,,,0,,,67,100
6480,note_on,240,0,2,,,,,,,,1,,,55,0
6480,note_on,0,0,2,,,,,,,,1,,,59,100
6480,note_on,120,0,1,,,,,,,,0,,,67,0
6480,note_on,0,0,1,,,,,,,,0,,,62,100
6600,note_on,0,0,1,,,,,,,,0,,,64,100
6600,note_on,120,0,1,,,,,,,,0,,,62,0
6720,note_on,120,0,1,,,,,,,,0,,,64,0
6720,note_on,0,0,1,,,,,,,,0,,,65,100
6720,note_on,240,0,2,,,,,,,,1,,,59,0
6840,note_on,120,0,1,,,,,,,,0,,,65,0
6840,note_on,0,0,1,,,,,,,,0,,,62,100
6840,note_on,120,0,2,,,,,,,,1,,,55,100
6960,note_on,120,0,2,,,,,,,,1,,,55,0
6960,note_on,0,0,2,,,,,,,,1,,,53,100
6960,note_on,120,0,1,,,,,,,,0,,,62,0
6960,note_on,0,0,1,,,,,,,,0,,,59,100
7080,note_on,120,0,1,,,,,,,,0,,,59,0
7080,note_on,120,0,2,,,,,,,,1,,,53,0
7080,note_on,0,0,2,,,,,,,,1,,,55,100
7200,note_on,120,0,1,,,,,,,,0,,,76,100
7200,note_on,120,0,2,,,,,,,,1,,,55,0
7200,note_on,0,0,2,,,,,,,,1,,,48,100
7320,note_on,120,0,1,,,,,,,,0,,,76,0
7320,note_on,0,0,1,,,,,,,,0,,,72,100
7440,note_on,120,0,1,,,,,,,,0,,,72,0
7440,note_on,0,0,1,,,,,,,,0,,,69,100
7440,note_on,0,0,2,,,,,,,,1,,,52,100
7440,note_on,240,0,2,,,,,,,,1,,,48,0
7560,note_on,120,0,1,,,,,,,,0,,,69,0
7560,note_on,0,0,1,,,,,,,,0,,,71,100
7680,note_on,240,0,2,,,,,,,,1,,,52,0
7680,note_on,120,0,1,,,,,,,,0,,,71,0
7680,note_on,0,0,1,,,,,,,,0,,,72,100
7680,note_on,0,0,2,,,,,,,,1,,,57,100
7800,note_on,120,0,1,,,,,,,,0,,,72,0
7800,note_on,0,0,1,,,,,,,,0,,,69,100
7920,note_on,0,0,2,,,,,,,,1,,,60,100
7920,note_on,240,0,2,,,,,,,,1,,,57,0
7920,note_on,0,0,1,,,,,,,,0,,,64,100
7920,note_on,120,0,1,,,,,,,,0,,,69,0
8040,note_on,120,0,1,,,,,,,,0,,,64,0
8040,note_on,0,0,1,,,,,,,,0,,,66,100
8160,note_on,120,0,1,,,,,,,,0,,,66,0
8160,note_on,0,0,1,,,,,,,,0,,,67,100
8160,note_on,240,0,2,,,,,,,,1,,,60,0
8280,note_on,120,0,2,,,,,,,,1,,,57,100
8280,note_on,120,0,1,,,,,,,,0,,,67,0
8280,note_on,0,0,1,,,,,,,,0,,,64,100
8400,note_on,0,0,2,,,,,,,,1,,,55,100
8400,note_on,120,0,2,,,,,,,,1,,,57,0
8400,note_on,0,0,1,,,,,,,,0,,,60,100
8400,note_on,120,0,1,,,,,,,,0,,,64,0
8520,note_on,120,0,1,,,,,,,,0,,,60,0
8520,note_on,0,0,2,,,,,,,,1,,,57,100
8520,note_on,120,0,2,,,,,,,,1,,,55,0
8640,note_on,120,0,2,,,,,,,,1,,,57,0
8640,note_on,0,0,2,,,,,,,,1,,,50,100
8640,note_on,120,0,1,,,,,,,,0,,,81,100
8760,note_on,0,0,1,,,,,,,,0,,,78,100
8760,note_on,120,0,1,,,,,,,,0,,,81,0
8880,note_on,240,0,2,,,,,,,,1,,,50,0
8880,note_on,0,0,2,,,,,,,,1,,,54,100
8880,note_on,0,0,1,,,,,,,,0,,,74,100
8880,note_on,120,0,1,,,,,,,,0,,,78,0
9000,note_on,0,0,1,,,,,,,,0,,,76,100
9000,note_on,120,0,1,,,,,,,,0,,,74,0
9120,note_on,240,0,2,,,,,,,,1,,,54,0
9120,note_on,0,0,2,,,,,,,,1,,,57,100
9120,note_on,120,0,1,,,,,,,,0,,,76,0
9120,note_on,0,0,1,,,,,,,,0,,,78,100
9240,note_on,0,0,1,,,,,,,,0,,,74,100
9240,note_on,120,0,1,,,,,,,,0,,,78,0
9360,note_on,0,0,2,,,,,,,,1,,,62,100
9360,note_on,120,0,1,,,,,,,,0,,,74,0
9360,note_on,240,0,2,,,,,,,,1,,,57,0
9360,note_on,0,0,1,,,,,,,,0,,,69,100
9480,note_on,120,0,1,,,,,,,,0,,,69,0
9480,note_on,0,0,1,,,,,,,,0,,,71,100
9600,note_on,240,0,2,,,,,,,,1,,,62,0
9600,note_on,120,0,1,,,,,,,,0,,,71,0
9600,note_on,0,0,1,,,,,,,,0,,,72,100
9720,note_on,120,0,2,,,,,,,,1,,,50,100
9720,note_on,0,0,1,,,,,,,,0,,,69,100
9720,note_on,120,0,1,,,,,,,,0,,,72,0
9840,note_on,0,0,1,,,,,,,,0,,,66,100
9840,note_on,120,0,1,,,,,,,,0,,,69,0
9840,note_on,120,0,2,,,,,,,,1,,,50,0
9840,note_on,0,0,2,,,,,,,,1,,,48,100
9960,note_on,0,0,1,,,,,,,,0,,,72,100
9960,note_on,120,0,1,,,,,,,,0,,,66,0
9960,note_on,0,0,2,,,,,,,,1,,,50,100
9960,note_on,120,0,2,,,,,,,,1,,,48,0
10080,note_on,120,0,1,,,,,,,,0,,,72,0
10080,note_on,0,0,2,,,,,,,,1,,,43,100
10080,note_on,0,0,1,,,,,,,,0,,,71,100
10080,note_on,120,0,2,,,,,,,,1,,,50,0
10200,note_on,0,0,1,,,,,,,,0,,,67,100
10200,note_on,120,0,1,,,,,,,,0,,,71,0
10320,note_on,0,0,2,,,,,,,,1,,,55,100
10320,note_on,0,0,1,,,,,,,,0,,,62,100
10320,note_on,120,0,1,,,,,,,,0,,,67,0
10320,note_on,240,0,2,,,,,,,,1,,,43,0
10440,note_on,0,0,1,,,,,,,,0,,,66,100
10440,note_on,120,0,1,,,,,,,,0,,,62,0
10560,note_on,0,0,2,,,,,,,,1,,,47,100
10560,note_on,240,0,2,,,,,,,,1,,,55,0
10560,note_on,0,0,1,,,,,,,,0,,,67,100
10560,note_on,120,0,1,,,,,,,,0,,,66,0
10680,note_on,0,0,1,,,,,,,,0,,,62,100
10680,note_on,120,0,1,,,,,,,,0,,,67,0
10800,note_on,120,0,1,,,,,,,,0,,,62,0
10800,note_on,0,0,2,,,,,,,,1,,,50,100
10800,note_on,240,0,2,,,,,,,,1,,,47,0
10800,note_on,0,0,1,,,,,,,,0,,,59,100
10920,note_on,0,0,1,,,,,,,,0,,,60,100
10920,note_on,120,0,1,,,,,,,,0,,,59,0
11040,note_on,120,0,1,,,,,,,,0,,,60,0
11040,note_on,0,0,1,,,,,,,,0,,,62,100
11040,note_on,0,0,2,,,,,,,,1,,,43,100
11040,note_on,240,0,2,,,,,,,,1,,,50,0
11160,note_on,120,0,1,,,,,,,,0,,,62,0
11160,note_on,0,0,1,,,,,,,,0,,,59,100
11280,note_on,120,0,1,,,,,,,,0,,,59,0
11280,note_on,0,0,1,,,,,,,,0,,,55,100
11280,note_on,240,0,2,,,,,,,,1,,,43,0
11400,note_on,0,0,1,,,,,,,,0,,,57,100
11400,note_on,120,0,1,,,,,,,,0,,,55,0
11520,note_on,120,0,1,,,,,,,,0,,,57,0
11520,note_on,0,0,1,,,,,,,,0,,,59,100
11520,note_on,240,0,2,,,,,,,,1,,,55,100
11640,note_on,120,0,2,,,,,,,,1,,,55,0
11640,note_on,0,0,2,,,,,,,,1,,,59,100
11760,note_on,120,0,2,,,,,,,,1,,,59,0
11760,note_on,0,0,2,,,,,,,,1,,,62,100
11760,note_on,0,0,1,,,,,,,,0,,,83,100
11760,note_on,240,0,1,,,,,,,,0,,,59,0
11880,note_on,120,0,2,,,,,,,,1,,,62,0
11880,note_on,0,0,2,,,,,,,,1,,,60,100
11880,note_on,0,0,1,,,,,,,,0,,,81,100
11880,note_on,120,0,1,,,,,,,,0,,,83,0
12000,note_on,120,0,1,,,,,,,,0,,,81,0
12000,note_on,120,0,2,,,,,,,,1,,,60,0
12000,note_on,0,0,2,,,,,,,,1,,,59,100
12000,note_on,0,0,1,,,,,,,,0,,,79,100
12120,note_on,120,0,2,,,,,,,,1,,,59,0
12120,note_on,0,0,2,,,,,,,,1,,,62,100
12120,note_on,0,0,1,,,,,,,,0,,,78,100
12120,note_on,120,0,1,,,,,,,,0,,,79,0
12240,note_on,0,0,1,,,,,,,,0,,,76,100
12240,note_on,0,0,2,,,,,,,,1,,,67,100
12240,note_on,120,0,2,,,,,,,,1,,,62,0
12240,note_on,120,0,1,,,,,,,,0,,,78,0
12360,note_on,0,0,1,,,,,,,,0,,,74,100
12360,note_on,120,0,1,,,,,,,,0,,,76,0
12360,note_on,120,0,2,,,,,,,,1,,,67,0
12360,note_on,0,0,2,,,,,,,,1,,,66,100
12480,note_on,120,0,2,,,,,,,,1,,,66,0
12480,note_on,0,0,1,,,,,,,,0,,,73,100
12480,note_on,120,0,1,,,,,,,,0,,,74,0
12480,note_on,0,0,2,,,,,,,,1,,,64,100
12600,note_on,120,0,2,,,,,,,,1,,,64,0
12600,note_on,0,0,2,,,,,,,,1,,,67,100
12600,note_on,0,0,1,,,,,,,,0,,,76,100
12600,note_on,120,0,1,,,,,,,,0,,,73,0
12720,note_on,120,0,2,,,,,,,,1,,,67,0
12720,note_on,0,0,2,,,,,,,,1,,,71,100
12720,note_on,0,0,1,,,,,,,,0,,,74,100
12720,note_on,120,0,1,,,,,,,,0,,,76,0
12840,note_on,120,0,2,,,,,,,,1,,,71,0
12840,note_on,120,0,1,,,,,,,,0,,,74,0
12840,note_on,0,0,1,,,,,,,,0,,,76,100
12960,note_on,120,0,1,,,,,,,,0,,,76,0
12960,note_on,120,0,2,,,,,,,,1,,,54,100
12960,note_on,0,0,1,,,,,,,,0,,,69,100
13080,note_on,0,0,2,,,,,,,,1,,,57,100
13080,note_on,120,0,2,,,,,,,,1,,,54,0
13200,note_on,0,0,2,,,,,,,,1,,,61,100
13200,note_on,0,0,1,,,,,,,,0,,,81,100
13200,note_on,120,0,2,,,,,,,,1,,,57,0
13200,note_on,240,0,1,,,,,,,,0,,,69,0
13320,note_on,120,0,1,,,,,,,,0,,,81,0
13320,note_on,0,0,1,,,,,,,,0,,,79,100
13320,note_on,120,0,2,,,,,,,,1,,,61,0
13320,note_on,0,0,2,,,,,,,,1,,,59,100
13440,note_on,120,0,2,,,,,,,,1,,,59,0
13440,note_on,0,0,2,,,,,,,,1,,,57,100
13440,note_on,0,0,1,,,,,,,,0,,,78,100
13440,note_on,120,0,1,,,,,,,,0,,,79,0
13560,note_on,120,0,1,,,,,,,,0,,,78,0
13560,note_on,120,0,2,,,,,,,,1,,,57,0
13560,note_on,0,0,2,,,,,,,,1,,,61,100
13560,note_on,0,0,1,,,,,,,,0,,,76,100
13680,note_on,120,0,2,,,,,,,,1,,,61,0
13680,note_on,0,0,2,,,,,,,,1,,,66,100
13680,note_on,120,0,1,,,,,,,,0,,,76,0
13680,note_on,0,0,1,,,,,,,,0,,,74,100
13800,note_on,120,0,1,,,,,,,,0,,,74,0
13800,note_on,0,0,1,,,,,,,,0,,,73,100
13800,note_on,120,0,2,,,,,,,,1,,,66,0
13800,note_on,0,0,2,,,,,,,,1,,,64,100
13920,note_on,0,0,2,,,,,,,,1,,,62,100
13920,note_on,0,0,1,,,,,,,,0,,,71,100
13920,note_on,120,0,1,,,,,,,,0,,,73,0
13920,note_on,120,0,2,,,,,,,,1,,,64,0
14040,note_on,0,0,1,,,,,,,,0,,,74,100
14040,note_on,120,0,1,,,,,,,,0,,,71,0
14040,note_on,120,0,2,,,,,,,,1,,,62,0
14040,note_on,0,0,2,,,,,,,,1,,,66,100
14160,note_on,0,0,2,,,,,,,,1,,,69,100
14160,note_on,0,0,1,,,,,,,,0,,,73,100
14160,note_on,120,0,1,,,,,,,,0,,,74,0
14160,note_on,120,0,2,,,,,,,,1,,,66,0
14280,note_on,120,0,1,,,,,,,,0,,,73,0
14280,note_on,120,0,2,,,,,,,,1,,,69,0
14280,note_on,0,0,1,,,,,,,,0,,,74,100
14400,note_on,120,0,2,,,,,,,,1,,,52,100
14400,note_on,0,0,1,,,,,,,,0,,,67,100
14400,note_on,120,0,1,,,,,,,,0,,,74,0
14520,note_on,120,0,2,,,,,,,,1,,,52,0
14520,note_on,0,0,2,,,,,,,,1,,,55,100
14640,note_on,0,0,1,,,,,,,,0,,,79,100
14640,note_on,240,0,1,,,,,,,,0,,,67,0
14640,note_on,120,0,2,,,,,,,,1,,,55,0
14640,note_on,0,0,2,,,,,,,,1,,,59,100
14760,note_on,0,0,1,,,,,,,,0,,,78,100
14760,note_on,120,0,1,,,,,,,,0,,,79,0
14760,note_on,0,0,2,,,,,,,,1,,,57,100
14760,note_on,120,0,2,,,,,,,,1,,,59,0
14880,note_on,0,0,1,,,,,,,,0,,,76,100
14880,note_on,120,0,1,,,,,,,,0,,,78,0
14880,note_on,120,0,2,,,,,,,,1,,,57,0
14880,note_on,0,0,2,,,,,,,,1,,,55,100
15000,note_on,120,0,1,,,,,,,,0,,,76,0
15000,note_on,0,0,1,,,,,,,,0,,,74,100
15000,note_on,0,0,2,,,,,,,,1,,,59,100
15000,note_on,120,0,2,,,,,,,,1,,,55,0
15120,note_on,0,0,2,,,,,,,,1,,,64,100
15120,note_on,120,0,2,,,,,,,,1,,,59,0
15120,note_on,120,0,1,,,,,,,,0,,,74,0
15120,note_on,0,0,1,,,,,,,,0,,,73,100
15240,note_on,0,0,2,,,,,,,,1,,,62,100
15240,note_on,120,0,1,,,,,,,,0,,,73,0
15240,note_on,0,0,1,,,,,,,,0,,,71,100
15240,note_on,120,0,2,,,,,,,,1,,,64,0
15360,note_on,120,0,1,,,,,,,,0,,,71,0
15360,note_on,120,0,2,,,,,,,,1,,,62,0
15360,note_on,0,0,2,,,,,,,,1,,,61,100
15360,note_on,0,0,1,,,,,,,,0,,,69,100
15480,note_on,0,0,1,,,,,,,,0,,,73,100
15480,note_on,120,0,1,,,,,,,,0,,,69,0
15480,note_on,120,0,2,,,,,,,,1,,,61,0
15480,note_on,0,0,2,,,,,,,,1,,,64,100
15600,note_on,120,0,1,,,,,,,,0,,,73,0
15600,note_on,0,0,1,,,,,,,,0,,,71,100
15600,note_on,120,0,2,,,,,,,,1,,,64,0
15600,note_on,0,0,2,,,,,,,,1,,,67,100
15720,note_on,0,0,1,,,,,,,,0,,,74,100
15720,note_on,120,0,2,,,,,,,,1,,,67,0
15720,note_on,0,0,2,,,,,,,,1,,,66,100
15720,note_on,120,0,1,,,,,,,,0,,,71,0
15840,note_on,120,0,2,,,,,,,,1,,,66,0
15840,note_on,0,0,2,,,,,,,,1,,,64,100
15840,note_on,120,0,1,,,,,,,,0,,,74,0
15840,note_on,0,0,1,,,,,,,,0,,,73,100
15960,note_on,120,0,2,,,,,,,,1,,,64,0
15960,note_on,120,0,1,,,,,,,,0,,,73,0
15960,note_on,0,0,1,,,,,,,,0,,,76,100
15960,note_on,0,0,2,,,,,,,,1,,,67,100
16080,note_on,120,0,2,,,,,,,,1,,,67,0
16080,note_on,0,0,1,,,,,,,,0,,,69,100
16080,note_on,120,0,1,,,,,,,,0,,,76,0
16080,note_on,0,0,2,,,,,,,,1,,,73,100
16200,note_on,0,0,1,,,,,,,,0,,,71,100
16200,note_on,120,0,1,,,,,,,,0,,,69,0
16200,note_on,120,0,2,,,,,,,,1,,,73,0
16200,note_on,0,0,2,,,,,,,,1,,,71,100
16320,note_on,0,0,1,,,,,,,,0,,,73,100
16320,note_on,120,0,1,,,,,,,,0,,,71,0
16320,note_on,120,0,2,,,,,,,,1,,,71,0
16320,note_on,0,0,2,,,,,,,,1,,,69,100
16440,note_on,0,0,1,,,,,,,,0,,,69,100
16440,note_on,0,0,2,,,,,,,,1,,,73,100
16440,note_on,120,0,2,,,,,,,,1,,,69,0
16440,note_on,120,0,1,,,,,,,,0,,,73,0
16560,note_on,0,0,1,,,,,,,,0,,,64,100
16560,note_on,120,0,1,,,,,,,,0,,,69,0
16560,note_on,0,0,2,,,,,,,,1,,,76,100
16560,note_on,120,0,2,,,,,,,,1,,,73,0
16680,note_on,120,0,2,,,,,,,,1,,,76,0
16680,note_on,0,0,1,,,,,,,,0,,,66,100
16680,note_on,120,0,1,,,,,,,,0,,,64,0
16680,note_on,0,0,2,,,,,,,,1,,,74,100
16800,note_on,120,0,2,,,,,,,,1,,,74,0
16800,note_on,0,0,2,,,,,,,,1,,,73,100
16800,note_on,120,0,1,,,,,,,,0,,,66,0
16800,note_on,0,0,1,,,,,,,,0,,,67,100
16920,note_on,120,0,2,,,,,,,,1,,,73,0
16920,note_on,0,0,2,,,,,,,,1,,,76,100
16920,note_on,120,0,1,,,,,,,,0,,,67,0
16920,note_on,0,0,1,,,,,,,,0,,,64,100
17040,note_on,120,0,1,,,,,,,,0,,,64,0
17040,note_on,0,0,1,,,,,,,,0,,,61,100
17040,note_on,0,0,2,,,,,,,,1,,,81,100
17040,note_on,120,0,2,,,,,,,,1,,,76,0
17160,note_on,0,0,1,,,,,,,,0,,,64,100
17160,note_on,120,0,2,,,,,,,,1,,,81,0
17160,note_on,0,0,2,,,,,,,,1,,,79,100
17160,note_on,120,0,1,,,,,,,,0,,,61,0
17280,note_on,120,0,1,,,,,,,,0,,,64,0
17280,note_on,120,0,2,,,,,,,,1,,,79,0
17280,note_on,0,0,2,,,,,,,,1,,,78,100
17280,note_on,0,0,1,,,,,,,,0,,,62,100
17400,note_on,120,0,2,,,,,,,,1,,,78,0
17400,note_on,0,0,2,,,,,,,,1,,,81,100
17520,note_on,0,0,1,,,,,,,,0,,,66,100
17520,note_on,240,0,1,,,,,,,,0,,,62,0
17520,note_on,120,0,2,,,,,,,,1,,,81,0
17520,note_on,0,0,2,,,,,,,,1,,,74,100
17640,note_on,120,0,2,,,,,,,,1,,,74,0
17640,note_on,0,0,2,,,,,,,,1,,,76,100
17760,note_on,120,0,2,,,,,,,,1,,,76,0
17760,note_on,0,0,2,,,,,,,,1,,,78,100
17760,note_on,240,0,1,,,,,,,,0,,,66,0
17760,note_on,0,0,1,,,,,,,,0,,,69,100
17880,note_on,120,0,2,,,,,,,,1,,,78,0
17880,note_on,0,0,2,,,,,,,,1,,,74,100
18000,note_on,0,0,1,,,,,,,,0,,,74,100
18000,note_on,240,0,1,,,,,,,,0,,,69,0
18000,note_on,0,0,2,,,,,,,,1,,,69,100
18000,note_on,120,0,2,,,,,,,,1,,,74,0
18120,note_on,120,0,2,,,,,,,,1,,,69,0
18120,note_on,0,0,2,,,,,,,,1,,,71,100
18240,note_on,240,0,1,,,,,,,,0,,,74,0
18240,note_on,120,0,2,,,,,,,,1,,,71,0
18240,note_on,0,0,2,,,,,,,,1,,,72,100
18360,note_on,0,0,2,,,,,,,,1,,,69,100
18360,note_on,120,0,2,,,,,,,,1,,,72,0
18360,note_on,120,0,1,,,,,,,,0,,,72,100
18480,note_on,0,0,2,,,,,,,,1,,,66,100
18480,note_on,120,0,2,,,,,,,,1,,,69,0
18480,note_on,0,0,1,,,,,,,,0,,,69,100
18480,note_on,120,0,1,,,,,,,,0,,,72,0
18600,note_on,120,0,2,,,,,,,,1,,,66,0
18600,note_on,120,0,1,,,,,,,,0,,,69,0
18600,note_on,0,0,2,,,,,,,,1,,,69,100
18600,note_on,0,0,1,,,,,,,,0,,,66,100
18720,note_on,120,0,1,,,,,,,,0,,,66,0
18720,note_on,0,0,1,,,,,,,,0,,,67,100
18720,note_on,120,0,2,,,,,,,,1,,,69,0
18720,note_on,0,0,2,,,,,,,,1,,,71,100
18840,note_on,0,0,2,,,,,,,,1,,,74,100
18840,note_on,120,0,2,,,,,,,,1,,,71,0
18960,note_on,0,0,1,,,,,,,,0,,,71,100
18960,note_on,120,0,2,,,,,,,,1,,,74,0
18960,note_on,0,0,2,,,,,,,,1,,,67,100
18960,note_on,240,0,1,,,,,,,,0,,,67,0
19080,note_on,120,0,2,,,,,,,,1,,,67,0
19080,note_on,0,0,2,,,,,,,,1,,,69,100
19200,note_on,0,0,1,,,,,,,,0,,,74,100
19200,note_on,120,0,2,,,,,,,,1,,,69,0
19200,note_on,0,0,2,,,,,,,,1,,,71,100
19200,note_on,240,0,1,,,,,,,,0,,,71,0
19320,note_on,120,0,2,,,,,,,,1,,,71,0
19320,note_on,0,0,2,,,,,,,,1,,,67,100
19440,note_on,120,0,2,,,,,,,,1,,,67,0
19440,note_on,240,0,1,,,,,,,,0,,,74,0
19440,note_on,0,0,1,,,,,,,,0,,,79,100
19440,note_on,0,0,2,,,,,,,,1,,,64,100
19560,note_on,0,0,2,,,,,,,,1,,,66,100
19560,note_on,120,0,2,,,,,,,,1,,,64,0
19680,note_on,120,0,2,,,,,,,,1,,,66,0
19680,note_on,0,0,2,,,,,,,,1,,,67,100
19680,note_on,240,0,1,,,,,,,,0,,,79,0
19800,note_on,120,0,2,,,,,,,,1,,,67,0
19800,note_on,0,0,2,,,,,,,,1,,,64,100
19800,note_on,120,0,1,,,,,,,,0,,,79,100
19920,note_on,0,0,1,,,,,,,,0,,,78,100
19920,note_on,120,0,1,,,,,,,,0,,,79,0
19920,note_on,0,0,2,,,,,,,,1,,,59,100
19920,note_on,120,0,2,,,,,,,,1,,,64,0
20040,note_on,0,0,2,,,,,,,,1,,,62,100
20040,note_on,120,0,2,,,,,,,,1,,,59,0
20040,note_on,120,0,1,,,,,,,,0,,,78,0
20040,note_on,0,0,1,,,,,,,,0,,,79,100
20160,note_on,0,0,1,,,,,,,,0,,,69,100
20160,note_on,120,0,2,,,,,,,,1,,,62,0
20160,note_on,0,0,2,,,,,,,,1,,,61,100
20160,note_on,120,0,1,,,,,,,,0,,,79,0
20280,note_on,120,0,2,,,,,,,,1,,,61,0
20280,note_on,0,0,2,,,,,,,,1,,,64,100
20400,note_on,240,0,1,,,,,,,,0,,,69,0
20400,note_on,0,0,1,,,,,,,,0,,,73,100
20400,note_on,120,0,2,,,,,,,,1,,,64,0
20400,note_on,0,0,2,,,,,,,,1,,,57,100
20520,note_on,120,0,2,,,,,,,,1,,,57,0
20520,note_on,0,0,2,,,,,,,,1,,,59,100
20640,note_on,0,0,2,,,,,,,,1,,,61,100
20640,note_on,0,0,1,,,,,,,,0,,,76,100
20640,note_on,240,0,1,,,,,,,,0,,,73,0
20640,note_on,120,0,2,,,,,,,,1,,,59,0
20760,note_on,120,0,2,,,,,,,,1,,,61,0
20760,note_on,0,0,2,,,,,,,,1,,,57,100
20880,note_on,120,0,2,,,,,,,,1,,,57,0
20880,note_on,0,0,2,,,,,,,,1,,,52,100
20880,note_on,0,0,1,,,,,,,,0,,,79,100
20880,note_on,240,0,1,,,,,,,,0,,,76,0
21000,note_on,0,0,2,,,,,,,,1,,,54,100
21000,note_on,120,0,2,,,,,,,,1,,,52,0
21120,note_on,240,0,1,,,,,,,,0,,,79,0
21120,note_on,120,0,2,,,,,,,,1,,,54,0
21120,note_on,0,0,2,,,,,,,,1,,,55,100
21240,note_on,120,0,1,,,,,,,,0,,,79,100
21240,note_on,120,0,2,,,,,,,,1,,,55,0
21240,note_on,0,0,2,,,,,,,,1,,,52,100
21360,note_on,120,0,1,,,,,,,,0,,,79,0
21360,note_on,120,0,2,,,,,,,,1,,,52,0
21360,note_on,0,0,2,,,,,,,,1,,,49,100
21360,note_on,0,0,1,,,,,,,,0,,,81,100
21480,note_on,0,0,1,,,,,,,,0,,,73,100
21480,note_on,120,0,1,,,,,,,,0,,,81,0
21480,note_on,120,0,2,,,,,,,,1,,,49,0
21480,note_on,0,0,2,,,,,,,,1,,,52,100
21600,note_on,0,0,1,,,,,,,,0,,,74,100
21600,note_on,120,0,1,,,,,,,,0,,,73,0
21600,note_on,120,0,2,,,,,,,,1,,,52,0
21600,note_on,0,0,2,,,,,,,,1,,,54,100
21720,note_on,0,0,1,,,,,,,,0,,,78,100
21720,note_on,120,0,1,,,,,,,,0,,,74,0
21720,note_on,0,0,2,,,,,,,,1,,,57,100
21720,note_on,120,0,2,,,,,,,,1,,,54,0
21840,note_on,120,0,1,,,,,,,,0,,,78,0
21840,note_on,0,0,1,,,,,,,,0,,,81,100
21840,note_on,0,0,2,,,,,,,,1,,,50,100
21840,note_on,120,0,2,,,,,,,,1,,,57,0
21960,note_on,120,0,2,,,,,,,,1,,,50,0
21960,note_on,0,0,2,,,,,,,,1,,,52,100
21960,note_on,120,0,1,,,,,,,,0,,,81,0
21960,note_on,0,0,1,,,,,,,,0,,,85,100
22080,note_on,120,0,2,,,,,,,,1,,,52,0
22080,note_on,0,0,2,,,,,,,,1,,,54,100
22080,note_on,120,0,1,,,,,,,,0,,,85,0
22080,note_on,0,0,1,,,,,,,,0,,,86,100
22200,note_on,0,0,2,,,,,,,,1,,,50,100
22200,note_on,120,0,2,,,,,,,,1,,,54,0
22200,note_on,0,0,1,,,,,,,,0,,,85,100
22200,note_on,120,0,1,,,,,,,,0,,,86,0
22260,note_on,60,0,1,,,,,,,,0,,,85,0
22260,note_on,0,0,1,,,,,,,,0,,,83,100
22320,note_on,60,0,1,,,,,,,,0,,,83,0
22320,note_on,0,0,1,,,,,,,,0,,,81,100
22320,note_on,120,0,2,,,,,,,,1,,,50,0
22320,note_on,0,0,2,,,,,,,,1,,,54,100
22380,note_on,60,0,1,,,,,,,,0,,,81,0
22380,note_on,0,0,1,,,,,,,,0,,,79,100
22440,note_on,0,0,1,,,,,,,,0,,,78,100
22440,note_on,60,0,1,,,,,,,,0,,,79,0
22440,note_on,120,0,2,,,,,,,,1,,,54,0
22440,note_on,0,0,2,,,,,,,,1,,,57,100
22500,note_on,0,0,1,,,,,,,,0,,,76,100
22500,note_on,60,0,1,,,,,,,,0,,,78,0
22560,note_on,0,0,2,,,,,,,,1,,,62,100
22560,note_on,0,0,1,,,,,,,,0,,,74,100
22560,note_on,60,0,1,,,,,,,,0,,,76,0
22560,note_on,120,0,2,,,,,,,,1,,,57,0
23040,note_on,0,0,1,,,,,,,,0,,,62,100
23040,note_on,480,0,1,,,,,,,,0,,,74,0
23040,note_on,480,0,2,,,,,,,,1,,,62,0
23040,marker,23040,1,0,,,,,,,,,,,,
23040,note_on,0,0,2,,,,,,,,1,,,55,100
23160,note_on,120,0,1,,,,,,,,0,,,62,0
23160,note_on,0,0,1,,,,,,,,0,,,67,100
23280,note_on,240,0,2,,,,,,,,1,,,55,0
23280,note_on,0,0,2,,,,,,,,1,,,50,100
23280,note_on,0,0,1,,,,,,,,0,,,71,100
23280,note_on,120,0,1,,,,,,,,0,,,67,0
23400,note_on,0,0,1,,,,,,,,0,,,69,100
23400,note_on,120,0,1,,,,,,,,0,,,71,0
23520,note_on,120,0,1,,,,,,,,0,,,69,0
23520,note_on,240,0,2,,,,,,,,1,,,50,0
23520,note_on,0,0,2,,,,,,,,1,,,47,100
23520,note_on,0,0,1,,,,,,,,0,,,67,100
23640,note_on,0,0,1,,,,,,,,0,,,71,100
23640,note_on,120,0,1,,,,,,,,0,,,67,0
23760,note_on,240,0,2,,,,,,,,1,,,47,0
23760,note_on,120,0,1,,,,,,,,0,,,71,0
23760,note_on,0,0,2,,,,,,,,1,,,43,100
23760,note_on,0,0,1,,,,,,,,0,,,74,100
23880,note_on,120,0,1,,,,,,,,0,,,74,0
23880,note_on,0,0,1,,,,,,,,0,,,72,100
24000,note_on,120,0,1,,,,,,,,0,,,72,0
24000,note_on,0,0,1,,,,,,,,0,,,71,100
24000,note_on,240,0,2,,,,,,,,1,,,43,0
24120,note_on,120,0,1,,,,,,,,0,,,71,0
24120,note_on,0,0,1,,,,,,,,0,,,74,100
24120,note_on,120,0,2,,,,,,,,1,,,55,100
24240,note_on,0,0,2,,,,,,,,1,,,54,100
24240,note_on,120,0,1,,,,,,,,0,,,74,0
24240,note_on,0,0,1,,,,,,,,0,,,79,100
24240,note_on,120,0,2,,,,,,,,1,,,55,0
24360,note_on,0,0,2,,,,,,,,1,,,52,100
24360,note_on,120,0,2,,,,,,,,1,,,54,0
24360,note_on,120,0,1,,,,,,,,0,,,79,0
24480,note_on,120,0,2,,,,,,,,1,,,52,0
24480,note_on,0,0,2,,,,,,,,1,,,54,100
24480,note_on,120,0,1,,,,,,,,0,,,62,100
24600,note_on,120,0,1,,,,,,,,0,,,62,0
24600,note_on,0,0,1,,,,,,,,0,,,66,100
24720,note_on,240,0,2,,,,,,,,1,,,54,0
24720,note_on,0,0,1,,,,,,,,0,,,69,100
24720,note_on,0,0,2,,,,,,,,1,,,50,100
24720,note_on,120,0,1,,,,,,,,0,,,66,0
24840,note_on,0,0,1,,,,,,,,0,,,67,100
24840,note_on,120,0,1,,,,,,,,0,,,69,0
24960,note_on,120,0,1,,,,,,,,0,,,67,0
24960,note_on,0,0,2,,,,,,,,1,,,45,100
24960,note_on,0,0,1,,,,,,,,0,,,66,100
24960,note_on,240,0,2,,,,,,,,1,,,50,0
25080,note_on,120,0,1,,,,,,,,0,,,66,0
25080,note_on,0,0,1,,,,,,,,0,,,69,100
25200,note_on,240,0,2,,,,,,,,1,,,45,0
25200,note_on,0,0,1,,,,,,,,0,,,72,100
25200,note_on,120,0,1,,,,,,,,0,,,69,0
25200,note_on,0,0,2,,,,,,,,1,,,42,100
25320,note_on,120,0,1,,,,,,,,0,,,72,0
25320,note_on,0,0,1,,,,,,,,0,,,71,100
25440,note_on,240,0,2,,,,,,,,1,,,42,0
25440,note_on,0,0,1,,,,,,,,0,,,69,100
25440,note_on,120,0,1,,,,,,,,0,,,71,0
25560,note_on,120,0,2,,,,,,,,1,,,54,100
25560,note_on,0,0,1,,,,,,,,0,,,74,100
25560,note_on,120,0,1,,,,,,,,0,,,69,0
25680,note_on,0,0,2,,,,,,,,1,,,52,100
25680,note_on,120,0,2,,,,,,,,1,,,54,0
25680,note_on,0,0,1,,,,,,,,0,,,78,100
25680,note_on,120,0,1,,,,,,,,0,,,74,0
25800,note_on,0,0,2,,,,,,,,1,,,50,100
25800,note_on,120,0,2,,,,,,,,1,,,52,0
25800,note_on,120,0,1,,,,,,,,0,,,78,0
25920,note_on,0,0,2,,,,,,,,1,,,52,100
25920,note_on,120,0,1,,,,,,,,0,,,59,100
25920,note_on,120,0,2,,,,,,,,1,,,50,0
26040,note_on,120,0,1,,,,,,,,0,,,59,0
26040,note_on,0,0,1,,,,,,,,0,,,64,100
26160,note_on,240,0,2,,,,,,,,1,,,52,0
26160,note_on,120,0,1,,,,,,,,0,,,64,0
26160,note_on,0,0,1,,,,,,,,0,,,67,100
26160,note_on,0,0,2,,,,,,,,1,,,47,100
26280,note_on,120,0,1,,,,,,,,0,,,67,0
26280,note_on,0,0,1,,,,,,,,0,,,66,100
26400,note_on,120,0,1,,,,,,,,0,,,66,0
26400,note_on,0,0,1,,,,,,,,0,,,64,100
26400,note_on,240,0,2,,,,,,,,1,,,47,0
26400,note_on,0,0,2,,,,,,,,1,,,43,100
26520,note_on,120,0,1,,,,,,,,0,,,64,0
26520,note_on,0,0,1,,,,,,,,0,,,67,100
26640,note_on,0,0,1,,,,,,,,0,,,71,100
26640,note_on,0,0,2,,,,,,,,1,,,40,100
26640,note_on,240,0,2,,,,,,,,1,,,43,0
26640,note_on,120,0,1,,,,,,,,0,,,67,0
26760,note_on,120,0,1,,,,,,,,0,,,71,0
26760,note_on,0,0,1,,,,,,,,0,,,69,100
26880,note_on,120,0,1,,,,,,,,0,,,69,0
26880,note_on,240,0,2,,,,,,,,1,,,40,0
26880,note_on,0,0,1,,,,,,,,0,,,67,100
27000,note_on,120,0,2,,,,,,,,1,,,52,100
27000,note_on,120,0,1,,,,,,,,0,,,67,0
27000,note_on,0,0,1,,,,,,,,0,,,73,100
27120,note_on,0,0,2,,,,,,,,1,,,50,100
27120,note_on,120,0,1,,,,,,,,0,,,73,0
27120,note_on,0,0,1,,,,,,,,0,,,76,100
27120,note_on,120,0,2,,,,,,,,1,,,52,0
27240,note_on,120,0,2,,,,,,,,1,,,50,0
27240,note_on,0,0,2,,,,,,,,1,,,49,100
27240,note_on,120,0,1,,,,,,,,0,,,76,0
27360,note_on,120,0,2,,,,,,,,1,,,49,0
27360,note_on,120,0,1,,,,,,,,0,,,57,100
27360,note_on,0,0,2,,,,,,,,1,,,50,100
27480,note_on,120,0,1,,,,,,,,0,,,57,0
27480,note_on,0,0,1,,,,,,,,0,,,62,100
27600,note_on,0,0,1,,,,,,,,0,,,66,100
27600,note_on,120,0,1,,,,,,,,0,,,62,0
27600,note_on,240,0,2,,,,,,,,1,,,50,0
27600,note_on,0,0,2,,,,,,,,1,,,45,100
27720,note_on,0,0,1,,,,,,,,0,,,64,100
27720,note_on,120,0,1,,,,,,,,0,,,66,0
27840,note_on,0,0,1,,,,,,,,0,,,62,100
27840,note_on,120,0,1,,,,,,,,0,,,64,0
27840,note_on,240,0,2,,,,,,,,1,,,45,0
27840,note_on,0,0,2,,,,,,,,1,,,42,100
27960,note_on,120,0,1,,,,,,,,0,,,62,0
27960,note_on,0,0,1,,,,,,,,0,,,66,100
28080,note_on,0,0,2,,,,,,,,1,,,38,100
28080,note_on,0,0,1,,,,,,,,0,,,69,100
28080,note_on,120,0,1,,,,,,,,0,,,66,0
28080,note_on,240,0,2,,,,,,,,1,,,42,0
28200,note_on,0,0,1,,,,,,,,0,,,67,100
28200,note_on,120,0,1,,,,,,,,0,,,69,0
28320,note_on,120,0,1,,,,,,,,0,,,67,0
28320,note_on,0,0,1,,,,,,,,0,,,66,100
28320,note_on,240,0,2,,,,,,,,1,,,38,0
28440,note_on,0,0,1,,,,,,,,0,,,69,100
28440,note_on,120,0,1,,,,,,,,0,,,66,0
28440,note_on,120,0,2,,,,,,,,1,,,48,100
28560,note_on,120,0,2,,,,,,,,1,,,48,0
28560,note_on,0,0,1,,,,,,,,0,,,74,100
28560,note_on,120,0,1,,,,,,,,0,,,69,0
28560,note_on,0,0,2,,,,,,,,1,,,47,100
28680,note_on,0,0,2,,,,,,,,1,,,45,100
28680,note_on,120,0,2,,,,,,,,1,,,47,0
28800,note_on,120,0,2,,,,,,,,1,,,45,0
28800,note_on,0,0,2,,,,,,,,1,,,47,100
28920,note_on,360,0,1,,,,,,,,0,,,74,0
28920,note_on,0,0,1,,,,,,,,0,,,71,100
29040,note_on,240,0,2,,,,,,,,1,,,47,0
29040,note_on,0,0,2,,,,,,,,1,,,50,100
29040,note_on,120,0,1,,,,,,,,0,,,71,0
29040,note_on,0,0,1,,,,,,,,0,,,67,100
29160,note_on,0,0,1,,,,,,,,0,,,69,100
29160,note_on,120,0,1,,,,,,,,0,,,67,0
29280,note_on,120,0,1,,,,,,,,0,,,69,0
29280,note_on,0,0,2,,,,,,,,1,,,55,100
29280,note_on,240,0,2,,,,,,,,1,,,50,0
29280,note_on,0,0,1,,,,,,,,0,,,71,100
29400,note_on,0,0,1,,,,,,,,0,,,67,100
29400,note_on,120,0,1,,,,,,,,0,,,71,0
29520,note_on,120,0,1,,,,,,,,0,,,67,0
29520,note_on,0,0,2,,,,,,,,1,,,59,100
29520,note_on,240,0,2,,,,,,,,1,,,55,0
29520,note_on,0,0,1,,,,,,,,0,,,62,100
29640,note_on,120,0,1,,,,,,,,0,,,62,0
29640,note_on,0,0,1,,,,,,,,0,,,64,100
29760,note_on,0,0,1,,,,,,,,0,,,65,100
29760,note_on,240,0,2,,,,,,,,1,,,59,0
29760,note_on,120,0,1,,,,,,,,0,,,64,0
29880,note_on,120,0,1,,,,,,,,0,,,65,0
29880,note_on,120,0,2,,,,,,,,1,,,55,100
29880,note_on,0,0,1,,,,,,,,0,,,62,100
30000,note_on,0,0,1,,,,,,,,0,,,59,100
30000,note_on,0,0,2,,,,,,,,1,,,53,100
30000,note_on,120,0,2,,,,,,,,1,,,55,0
30000,note_on,120,0,1,,,,,,,,0,,,62,0
30120,note_on,0,0,2,,,,,,,,1,,,55,100
30120,note_on,120,0,2,,,,,,,,1,,,53,0
30120,note_on,120,0,1,,,,,,,,0,,,59,0
30240,note_on,120,0,2,,,,,,,,1,,,55,0
30240,note_on,0,0,2,,,,,,,,1,,,48,100
30240,note_on,120,0,1,,,,,,,,0,,,76,100
30360,note_on,120,0,1,,,,,,,,0,,,76,0
30360,note_on,0,0,1,,,,,,,,0,,,72,100
30480,note_on,0,0,2,,,,,,,,1,,,52,100
30480,note_on,240,0,2,,,,,,,,1,,,48,0
30480,note_on,120,0,1,,,,,,,,0,,,72,0
30480,note_on,0,0,1,,,,,,,,0,,,69,100
30600,note_on,120,0,1,,,,,,,,0,,,69,0
30600,note_on,0,0,1,,,,,,,,0,,,71,100
30720,note_on,0,0,1,,,,,,,,0,,,72,100
30720,note_on,240,0,2,,,,,,,,1,,,52,0
30720,note_on,0,0,2,,,,,,,,1,,,57,100
30720,note_on,120,0,1,,,,,,,,0,,,71,0
30840,note_on,120,0,1,,,,,,,,0,,,72,0
30840,note_on,0,0,1,,,,,,,,0,,,69,100
30960,note_on,120,0,1,,,,,,,,0,,,69,0
30960,note_on,0,0,1,,,,,,,,0,,,64,100
30960,note_on,0,0,2,,,,,,,,1,,,60,100
30960,note_on,240,0,2,,,,,,,,1,,,57,0
31080,note_on,120,0,1,,,,,,,,0,,,64,0
31080,note_on,0,0,1,,,,,,,,0,,,66,100
31200,note_on,120,0,1,,,,,,,,0,,,66,0
31200,note_on,0,0,1,,,,,,,,0,,,67,100
31200,note_on,240,0,2,,,,,,,,1,,,60,0
31320,note_on,120,0,2,,,,,,,,1,,,57,100
31320,note_on,0,0,1,,,,,,,,0,,,64,100
31320,note_on,120,0,1,,,,,,,,0,,,67,0
31440,note_on,0,0,1,,,,,,,,0,,,60,100
31440,note_on,120,0,1,,,,,,,,0,,,64,0
31440,note_on,120,0,2,,,,,,,,1,,,57,0
31440,note_on,0,0,2,,,,,,,,1,,,55,100
31560,note_on,120,0,1,,,,,,,,0,,,60,0
31560,note_on,120,0,2,,,,,,,,1,,,55,0
31560,note_on,0,0,2,,,,,,,,1,,,57,100
31680,note_on,120,0,2,,,,,,,,1,,,57,0
31680,note_on,120,0,1,,,,,,,,0,,,81,100
31680,note_on,0,0,2,,,,,,,,1,,,50,100
31800,note_on,120,0,1,,,,,,,,0,,,81,0
31800,note_on,0,0,1,,,,,,,,0,,,78,100
31920,note_on,120,0,1,,,,,,,,0,,,78,0
31920,note_on,0,0,2,,,,,,,,1,,,54,100
31920,note_on,240,0,2,,,,,,,,1,,,50,0
31920,note_on,0,0,1,,,,,,,,0,,,74,100
32040,note_on,120,0,1,,,,,,,,0,,,74,0
32040,note_on,0,0,1,,,,,,,,0,,,76,100
32160,note_on,0,0,2,,,,,,,,1,,,57,100
32160,note_on,240,0,2,,,,,,,,1,,,54,0
32160,note_on,120,0,1,,,,,,,,0,,,76,0
32160,note_on,0,0,1,,,,,,,,0,,,78,100
32280,note_on,0,0,1,,,,,,,,0,,,74,100
32280,note_on,120,0,1,,,,,,,,0,,,78,0
32400,note_on,120,0,1,,,,,,,,0,,,74,0
32400,note_on,0,0,2,,,,,,,,1,,,62,100
32400,note_on,0,0,1,,,,,,,,0,,,69,100
32400,note_on,240,0,2,,,,,,,,1,,,57,0
32520,note_on,0,0,1,,,,,,,,0,,,71,100
32520,note_on,120,0,1,,,,,,,,0,,,69,0
32640,note_on,0,0,1,,,,,,,,0,,,72,100
32640,note_on,120,0,1,,,,,,,,0,,,71,0
32640,note_on,240,0,2,,,,,,,,1,,,62,0
32760,note_on,0,0,1,,,,,,,,0,,,69,100
32760,note_on,120,0,1,,,,,,,,0,,,72,0
32760,note_on,120,0,2,,,,,,,,1,,,50,100
32880,note_on,0,0,1,,,,,,,,0,,,66,100
32880,note_on,120,0,1,,,,,,,,0,,,69,0
32880,note_on,120,0,2,,,,,,,,1,,,50,0
32880,note_on,0,0,2,,,,,,,,1,,,48,100
33000,note_on,120,0,2,,,,,,,,1,,,48,0
33000,note_on,0,0,2,,,,,,,,1,,,50,100
33000,note_on,120,0,1,,,,,,,,0,,,66,0
33000,note_on,0,0,1,,,,,,,,0,,,72,100
33120,note_on,0,0,2,,,,,,,,1,,,43,100
33120,note_on,120,0,2,,,,,,,,1,,,50,0
33120,note_on,0,0,1,,,,,,,,0,,,71,100
33120,note_on,120,0,1,,,,,,,,0,,,72,0
33240,note_on,120,0,1,,,,,,,,0,,,71,0
33240,note_on,0,0,1,,,,,,,,0,,,67,100
33360,note_on,0,0,1,,,,,,,,0,,,62,100
33360,note_on,240,0,2,,,,,,,,1,,,43,0
33360,note_on,0,0,2,,,,,,,,1,,,55,100
33360,note_on,120,0,1,,,,,,,,0,,,67,0
33480,note_on,120,0,1,,,,,,,,0,,,62,0
33480,note_on,0,0,1,,,,,,,,0,,,66,100
33600,note_on,240,0,2,,,,,,,,1,,,55,0
33600,note_on,0,0,2,,,,,,,,1,,,47,100
33600,note_on,0,0,1,,,,,,,,0,,,67,100
33600,note_on,120,0,1,,,,,,,,0,,,66,0
33720,note_on,0,0,1,,,,,,,,0,,,62,100
33720,note_on,120,0,1,,,,,,,,0,,,67,0
33840,note_on,120,0,1,,,,,,,,0,,,62,0
33840,note_on,240,0,2,,,,,,,,1,,,47,0
33840,note_on,0,0,1,,,,,,,,0,,,59,100
33840,note_on,0,0,2,,,,,,,,1,,,50,100
33960,note_on,0,0,1,,,,,,,,0,,,60,100
33960,note_on,120,0,1,,,,,,,,0,,,59,0
34080,note_on,120,0,1,,,,,,,,0,,,60,0
34080,note_on,240,0,2,,,,,,,,1,,,50,0
34080,note_on,0,0,1,,,,,,,,0,,,62,100
34080,note_on,0,0,2,,,,,,,,1,,,43,100
34200,note_on,0,0,1,,,,,,,,0,,,59,100
34200,note_on,120,0,1,,,,,,,,0,,,62,0
34320,note_on,120,0,1,,,,,,,,0,,,59,0
34320,note_on,240,0,2,,,,,,,,1,,,43,0
34320,note_on,0,0,1,,,,,,,,0,,,55,100
34440,note_on,0,0,1,,,,,,,,0,,,57,100
34440,note_on,120,0,1,,,,,,,,0,,,55,0
34560,note_on,0,0,1,,,,,,,,0,,,59,100
34560,note_on,120,0,1,,,,,,,,0,,,57,0
34560,note_on,240,0,2,,,,,,,,1,,,55,100
34680,note_on,120,0,2,,,,,,,,1,,,55,0
34680,note_on,0,0,2,,,,,,,,1,,,59,100
34800,note_on,120,0,2,,,,,,,,1,,,59,0
34800,note_on,0,0,2,,,,,,,,1,,,62,100
34800,note_on,240,0,1,,,,,,,,0,,,59,0
34800,note_on,0,0,1,,,,,,,,0,,,83,100
34920,note_on,0,0,2,,,,,,,,1,,,60,100
34920,note_on,120,0,2,,,,,,,,1,,,62,0
34920,note_on,0,0,1,,,,,,,,0,,,81,100
34920,note_on,120,0,1,,,,,,,,0,,,83,0
35040,note_on,0,0,1,,,,,,,,0,,,79,100
35040,note_on,0,0,2,,,,,,,,1,,,59,100
35040,note_on,120,0,2,,,,,,,,1,,,60,0
35040,note_on,120,0,1,,,,,,,,0,,,81,0
35160,note_on,120,0,1,,,,,,,,0,,,79,0
35160,note_on,0,0,1,,,,,,,,0,,,78,100
35160,note_on,0,0,2,,,,,,,,1,,,62,100
35160,note_on,120,0,2,,,,,,,,1,,,59,0
35280,note_on,0,0,2,,,,,,,,1,,,67,100
35280,note_on,120,0,2,,,,,,,,1,,,62,0
35280,note_on,0,0,1,,,,,,,,0,,,76,100
35280,note_on,120,0,1,,,,,,,,0,,,78,0
35400,note_on,0,0,1,,,,,,,,0,,,74,100
35400,note_on,0,0,2,,,,,,,,1,,,66,100
35400,note_on,120,0,2,,,,,,,,1,,,67,0
35400,note_on,120,0,1,,,,,,,,0,,,76,0
35520,note_on,0,0,2,,,,,,,,1,,,64,100
35520,note_on,120,0,2,,,,,,,,1,,,66,0
35520,note_on,120,0,1,,,,,,,,0,,,74,0
35520,note_on,0,0,1,,,,,,,,0,,,73,100
35640,note_on,120,0,1,,,,,,,,0,,,73,0
35640,note_on,120,0,2,,,,,,,,1,,,64,0
35640,note_on,0,0,1,,,,,,,,0,,,76,100
35640,note_on,0,0,2,,,,,,,,1,,,67,100
35760,note_on,0,0,1,,,,,,,,0,,,74,100
35760,note_on,120,0,2,,,,,,,,1,,,67,0
35760,note_on,0,0,2,,,,,,,,1,,,71,100
35760,note_on,120,0,1,,,,,,,,0,,,76,0
35880,note_on,120,0,1,,,,,,,,0,,,74,0
35880,note_on,0,0,1,,,,,,,,0,,,76,100
35880,note_on,120,0,2,,,,,,,,1,,,71,0
36000,note_on,120,0,1,,,,,,,,0,,,76,0
36000,note_on,0,0,1,,,,,,,,0,,,69,100
36000,note_on,120,0,2,,,,,,,,1,,,54,100
36120,note_on,120,0,2,,,,,,,,1,,,54,0
36120,note_on,0,0,2,,,,,,,,1,,,57,100
36240,note_on,0,0,2,,,,,,,,1,,,61,100
36240,note_on,240,0,1,,,,,,,,0,,,69,0
36240,note_on,0,0,1,,,,,,,,0,,,81,100
36240,note_on,120,0,2,,,,,,,,1,,,57,0
36360,note_on,120,0,1,,,,,,,,0,,,81,0
36360,note_on,0,0,1,,,,,,,,0,,,79,100
36360,note_on,120,0,2,,,,,,,,1,,,61,0
36360,note_on,0,0,2,,,,,,,,1,,,59,100
36480,note_on,0,0,1,,,,,,,,0,,,78,100
36480,note_on,120,0,1,,,,,,,,0,,,79,0
36480,note_on,120,0,2,,,,,,,,1,,,59,0
36480,note_on,0,0,2,,,,,,,,1,,,57,100
36600,note_on,0,0,1,,,,,,,,0,,,76,100
36600,note_on,0,0,2,,,,,,,,1,,,61,100
36600,note_on,120,0,2,,,,,,,,1,,,57,0
36600,note_on,120,0,1,,,,,,,,0,,,78,0
36720,note_on,0,0,2,,,,,,,,1,,,66,100
36720,note_on,120,0,2,,,,,,,,1,,,61,0
36720,note_on,0,0,1,,,,,,,,0,,,74,100
36720,note_on,120,0,1,,,,,,,,0,,,76,0
36840,note_on,0,0,2,,,,,,,,1,,,64,100
36840,note_on,120,0,1,,,,,,,,0,,,74,0
36840,note_on,0,0,1,,,,,,,,0,,,73,100
36840,note_on,120,0,2,,,,,,,,1,,,66,0
36960,note_on,0,0,1,,,,,,,,0,,,71,100
36960,note_on,120,0,2,,,,,,,,1,,,64,0
36960,note_on,0,0,2,,,,,,,,1,,,62,100
36960,note_on,120,0,1,,,,,,,,0,,,73,0
37080,note_on,0,0,1,,,,,,,,0,,,74,100
37080,note_on,120,0,2,,,,,,,,1,,,62,0
37080,note_on,0,0,2,,,,,,,,1,,,66,100
37080,note_on,120,0,1,,,,,,,,0,,,71,0
37200,note_on,0,0,2,,,,,,,,1,,,69,100
37200,note_on,0,0,1,,,,,,,,0,,,73,100
37200,note_on,120,0,1,,,,,,,,0,,,74,0
37200,note_on,120,0,2,,,,,,,,1,,,66,0
37320,note_on,120,0,1,,,,,,,,0,,,73,0
37320,note_on,120,0,2,,,,,,,,1,,,69,0
37320,note_on,0,0,1,,,,,,,,0,,,74,100
37440,note_on,120,0,2,,,,,,,,1,,,52,100
37440,note_on,0,0,1,,,,,,,,0,,,67,100
37440,note_on,120,0,1,,,,,,,,0,,,74,0
37560,note_on,0,0,2,,,,,,,,1,,,55,100
37560,note_on,120,0,2,,,,,,,,1,,,52,0
37680,note_on,0,0,2,,,,,,,,1,,,59,100
37680,note_on,120,0,2,,,,,,,,1,,,55,0
37680,note_on,0,0,1,,,,,,,,0,,,79,100
37680,note_on,240,0,1,,,,,,,,0,,,67,0
37800,note_on,120,0,1,,,,,,,,0,,,79,0
37800,note_on,0,0,2,,,,,,,,1,,,57,100
37800,note_on,120,0,2,,,,,,,,1,,,59,0
37800,note_on,0,0,1,,,,,,,,0,,,78,100
37920,note_on,120,0,1,,,,,,,,0,,,78,0
37920,note_on,0,0,1,,,,,,,,0,,,76,100
37920,note_on,0,0,2,,,,,,,,1,,,55,100
37920,note_on,120,0,2,,,,,,,,1,,,57,0
38040,note_on,120,0,1,,,,,,,,0,,,76,0
38040,note_on,0,0,1,,,,,,,,0,,,74,100
38040,note_on,0,0,2,,,,,,,,1,,,59,100
38040,note_on,120,0,2,,,,,,,,1,,,55,0
38160,note_on,0,0,1,,,,,,,,0,,,73,100
38160,note_on,120,0,1,,,,,,,,0,,,74,0
38160,note_on,120,0,2,,,,,,,,1,,,59,0
38160,note_on,0,0,2,,,,,,,,1,,,64,100
38280,note_on,0,0,1,,,,,,,,0,,,71,100
38280,note_on,120,0,1,,,,,,,,0,,,73,0
38280,note_on,120,0,2,,,,,,,,1,,,64,0
38280,note_on,0,0,2,,,,,,,,1,,,62,100
38400,note_on,0,0,2,,,,,,,,1,,,61,100
38400,note_on,120,0,2,,,,,,,,1,,,62,0
38400,note_on,120,0,1,,,,,,,,0,,,71,0
38400,note_on,0,0,1,,,,,,,,0,,,69,100
38520,note_on,120,0,2,,,,,,,,1,,,61,0
38520,note_on,120,0,1,,,,,,,,0,,,69,0
38520,note_on,0,0,1,,,,,,,,0,,,73,100
38520,note_on,0,0,2,,,,,,,,1,,,64,100
38640,note_on,120,0,1,,,,,,,,0,,,73,0
38640,note_on,120,0,2,,,,,,,,1,,,64,0
38640,note_on,0,0,2,,,,,,,,1,,,67,100
38640,note_on,0,0,1,,,,,,,,0,,,71,100
38760,note_on,0,0,2,,,,,,,,1,,,66,100
38760,note_on,120,0,2,,,,,,,,1,,,67,0
38760,note_on,0,0,1,,,,,,,,0,,,74,100
38760,note_on,120,0,1,,,,,,,,0,,,71,0
38880,note_on,120,0,1,,,,,,,,0,,,74,0
38880,note_on,0,0,1,,,,,,,,0,,,73,100
38880,note_on,0,0,2,,,,,,,,1,,,64,100
38880,note_on,120,0,2,,,,,,,,1,,,66,0
39000,note_on,120,0,1,,,,,,,,0,,,73,0
39000,note_on,0,0,1,,,,,,,,0,,,76,100
39000,note_on,0,0,2,,,,,,,,1,,,67,100
39000,note_on,120,0,2,,,,,,,,1,,,64,0
39120,note_on,120,0,1,,,,,,,,0,,,76,0
39120,note_on,120,0,2,,,,,,,,1,,,67,0
39120,note_on,0,0,1,,,,,,,,0,,,69,100
39120,note_on,0,0,2,,,,,,,,1,,,73,100
39240,note_on,0,0,2,,,,,,,,1,,,71,100
39240,note_on,120,0,2,,,,,,,,1,,,73,0
39240,note_on,0,0,1,,,,,,,,0,,,71,100
39240,note_on,120,0,1,,,,,,,,0,,,69,0
39360,note_on,120,0,2,,,,,,,,1,,,71,0
39360,note_on,0,0,1,,,,,,,,0,,,73,100
39360,note_on,120,0,1,,,,,,,,0,,,71,0
39360,note_on,0,0,2,,,,,,,,1,,,69,100
39480,note_on,120,0,2,,,,,,,,1,,,69,0
39480,note_on,0,0,1,,,,,,,,0,,,69,100
39480,note_on,0,0,2,,,,,,,,1,,,73,100
39480,note_on,120,0,1,,,,,,,,0,,,73,0
39600,note_on,0,0,2,,,,,,,,1,,,76,100
39600,note_on,0,0,1,,,,,,,,0,,,64,100
39600,note_on,120,0,1,,,,,,,,0,,,69,0
39600,note_on,120,0,2,,,,,,,,1,,,73,0
39720,note_on,120,0,2,,,,,,,,1,,,76,0
39720,note_on,0,0,1,,,,,,,,0,,,66,100
39720,note_on,120,0,1,,,,,,,,0,,,64,0
39720,note_on,0,0,2,,,,,,,,1,,,74,100
39840,note_on,120,0,1,,,,,,,,0,,,66,0
39840,note_on,0,0,2,,,,,,,,1,,,73,100
39840,note_on,120,0,2,,,,,,,,1,,,74,0
39840,note_on,0,0,1,,,,,,,,0,,,67,100
39960,note_on,0,0,1,,,,,,,,0,,,64,100
39960,note_on,120,0,1,,,,,,,,0,,,67,0
39960,note_on,0,0,2,,,,,,,,1,,,76,100
39960,note_on,120,0,2,,,,,,,,1,,,73,0
40080,note_on,0,0,1,,,,,,,,0,,,61,100
40080,note_on,120,0,1,,,,,,,,0,,,64,0
40080,note_on,120,0,2,,,,,,,,1,,,76,0
40080,note_on,0,0,2,,,,,,,,1,,,81,100
40200,note_on,120,0,2,,,,,,,,1,,,81,0
40200,note_on,0,0,2,,,,,,,,1,,,79,100
40200,note_on,120,0,1,,,,,,,,0,,,61,0
40200,note_on,0,0,1,,,,,,,,0,,,64,100
40320,note_on,120,0,2,,,,,,,,1,,,79,0
40320,note_on,120,0,1,,,,,,,,0,,,64,0
40320,note_on,0,0,1,,,,,,,,0,,,62,100
40320,note_on,0,0,2,,,,,,,,1,,,78,100
40440,note_on,0,0,2,,,,,,,,1,,,81,100
40440,note_on,120,0,2,,,,,,,,1,,,78,0
40560,note_on,120,0,2,,,,,,,,1,,,81,0
40560,note_on,0,0,1,,,,,,,,0,,,66,100
40560,note_on,240,0,1,,,,,,,,0,,,62,0
40560,note_on,0,0,2,,,,,,,,1,,,74,100
40680,note_on,0,0,2,,,,,,,,1,,,76,100
40680,note_on,120,0,2,,,,,,,,1,,,74,0
40800,note_on,120,0,2,,,,,,,,1,,,76,0
40800,note_on,0,0,2,,,,,,,,1,,,78,100
40800,note_on,240,0,1,,,,,,,,0,,,66,0
40800,note_on,0,0,1,,,,,,,,0,,,69,100
40920,note_on,120,0,2,,,,,,,,1,,,78,0
40920,note_on,0,0,2,,,,,,,,1,,,74,100
41040,note_on,0,0,2,,,,,,,,1,,,69,100
41040,note_on,0,0,1,,,,,,,,0,,,74,100
41040,note_on,120,0,2,,,,,,,,1,,,74,0
41040,note_on,240,0,1,,,,,,,,0,,,69,0
41160,note_on,120,0,2,,,,,,,,1,,,69,0
41160,note_on,0,0,2,,,,,,,,1,,,71,100
41280,note_on,120,0,2,,,,,,,,1,,,71,0
41280,note_on,240,0,1,,,,,,,,0,,,74,0
41280,note_on,0,0,2,,,,,,,,1,,,72,100
41400,note_on,120,0,1,,,,,,,,0,,,72,100
41400,note_on,0,0,2,,,,,,,,1,,,69,100
41400,note_on,120,0,2,,,,,,,,1,,,72,0
41520,note_on,120,0,1,,,,,,,,0,,,72,0
41520,note_on,120,0,2,,,,,,,,1,,,69,0
41520,note_on,0,0,1,,,,,,,,0,,,69,100
41520,note_on,0,0,2,,,,,,,,1,,,66,100
41640,note_on,0,0,2,,,,,,,,1,,,69,100
41640,note_on,120,0,2,,,,,,,,1,,,66,0
41640,note_on,0,0,1,,,,,,,,0,,,66,100
41640,note_on,120,0,1,,,,,,,,0,,,69,0
41760,note_on,120,0,1,,,,,,,,0,,,66,0
41760,note_on,0,0,2,,,,,,,,1,,,71,100
41760,note_on,120,0,2,,,,,,,,1,,,69,0
41760,note_on,0,0,1,,,,,,,,0,,,67,100
41880,note_on,120,0,2,,,,,,,,1,,,71,0
41880,note_on,0,0,2,,,,,,,,1,,,74,100
42000,note_on,240,0,1,,,,,,,,0,,,67,0
42000,note_on,0,0,1,,,,,,,,0,,,71,100
42000,note_on,0,0,2,,,,,,,,1,,,67,100
42000,note_on,120,0,2,,,,,,,,1,,,74,0
42120,note_on,0,0,2,,,,,,,,1,,,69,100
42120,note_on,120,0,2,,,,,,,,1,,,67,0
42240,note_on,0,0,1,,,,,,,,0,,,74,100
42240,note_on,120,0,2,,,,,,,,1,,,69,0
42240,note_on,0,0,2,,,,,,,,1,,,71,100
42240,note_on,240,0,1,,,,,,,,0,,,71,0
42360,note_on,120,0,2,,,,,,,,1,,,71,0
42360,note_on,0,0,2,,,,,,,,1,,,67,100
42480,note_on,120,0,2,,,,,,,,1,,,67,0
42480,note_on,0,0,2,,,,,,,,1,,,64,100
42480,note_on,240,0,1,,,,,,,,0,,,74,0
42480,note_on,0,0,1,,,,,,,,0,,,79,100
42600,note_on,0,0,2,,,,,,,,1,,,66,100
42600,note_on,120,0,2,,,,,,,,1,,,64,0
42720,note_on,240,0,1,,,,,,,,0,,,79,0
42720,note_on,120,0,2,,,,,,,,1,,,66,0
42720,note_on,0,0,2,,,,,,,,1,,,67,100
42840,note_on,120,0,1,,,,,,,,0,,,79,100
42840,note_on,120,0,2,,,,,,,,1,,,67,0
42840,note_on,0,0,2,,,,,,,,1,,,64,100
42960,note_on,0,0,1,,,,,,,,0,,,78,100
42960,note_on,120,0,1,,,,,,,,0,,,79,0
42960,note_on,120,0,2,,,,,,,,1,,,64,0
42960,note_on,0,0,2,,,,,,,,1,,,59,100
43080,note_on,0,0,2,,,,,,,,1,,,62,100
43080,note_on,120,0,2,,,,,,,,1,,,59,0
43080,note_on,120,0,1,,,,,,,,0,,,78,0
43080,note_on,0,0,1,,,,,,,,0,,,79,100
43200,note_on,0,0,2,,,,,,,,1,,,61,100
43200,note_on,120,0,1,,,,,,,,0,,,79,0
43200,note_on,120,0,2,,,,,,,,1,,,62,0
43200,note_on,0,0,1,,,,,,,,0,,,69,100
43320,note_on,0,0,2,,,,,,,,1,,,64,100
43320,note_on,120,0,2,,,,,,,,1,,,61,0
43440,note_on,240,0,1,,,,,,,,0,,,69,0
43440,note_on,0,0,2,,,,,,,,1,,,57,100
43440,note_on,120,0,2,,,,,,,,1,,,64,0
43440,note_on,0,0,1,,,,,,,,0,,,73,100
43560,note_on,120,0,2,,,,,,,,1,,,57,0
43560,note_on,0,0,2,,,,,,,,1,,,59,100
43680,note_on,0,0,1,,,,,,,,0,,,76,100
43680,note_on,240,0,1,,,,,,,,0,,,73,0
43680,note_on,120,0,2,,,,,,,,1,,,59,0
43680,note_on,0,0,2,,,,,,,,1,,,61,100
43800,note_on,120,0,2,,,,,,,,1,,,61,0
43800,note_on,0,0,2,,,,,,,,1,,,57,100
43920,note_on,0,0,1,,,,,,,,0,,,79,100
43920,note_on,240,0,1,,,,,,,,0,,,76,0
43920,note_on,120,0,2,,,,,,,,1,,,57,0
43920,note_on,0,0,2,,,,,,,,1,,,52,100
44040,note_on,0,0,2,,,,,,,,1,,,54,100
44040,note_on,120,0,2,,,,,,,,1,,,52,0
44160,note_on,0,0,2,,,,,,,,1,,,55,100
44160,note_on,240,0,1,,,,,,,,0,,,79,0
44160,note_on,120,0,2,,,,,,,,1,,,54,0
44280,note_on,120,0,1,,,,,,,,0,,,79,100
44280,note_on,120,0,2,,,,,,,,1,,,55,0
44280,note_on,0,0,2,,,,,,,,1,,,52,100
44400,note_on,0,0,1,,,,,,,,0,,,81,100
44400,note_on,120,0,1,,,,,,,,0,,,79,0
44400,note_on,120,0,2,,,,,,,,1,,,52,0
44400,note_on,0,0,2,,,,,,,,1,,,49,100
44520,note_on,0,0,2,,,,,,,,1,,,52,100
44520,note_on,0,0,1,,,,,,,,0,,,73,100
44520,note_on,120,0,1,,,,,,,,0,,,81,0
44520,note_on,120,0,2,,,,,,,,1,,,49,0
44640,note_on,120,0,2,,,,,,,,1,,,52,0
44640,note_on,0,0,1,,,,,,,,0,,,74,100
44640,note_on,120,0,1,,,,,,,,0,,,73,0
44640,note_on,0,0,2,,,,,,,,1,,,54,100
44760,note_on,0,0,2,,,,,,,,1,,,57,100
44760,note_on,120,0,2,,,,,,,,1,,,54,0
44760,note_on,120,0,1,,,,,,,,0,,,74,0
44760,note_on,0,0,1,,,,,,,,0,,,78,100
44880,note_on,0,0,2,,,,,,,,1,,,50,100
44880,note_on,120,0,2,,,,,,,,1,,,57,0
44880,note_on,120,0,1,,,,,,,,0,,,78,0
44880,note_on,0,0,1,,,,,,,,0,,,81,100
45000,note_on,120,0,1,,,,,,,,0,,,81,0
45000,note_on,0,0,1,,,,,,,,0,,,85,100
45000,note_on,120,0,2,,,,,,,,1,,,50,0
45000,note_on,0,0,2,,,,,,,,1,,,52,100
45120,note_on,120,0,1,,,,,,,,0,,,85,0
45120,note_on,0,0,1,,,,,,,,0,,,86,100
45120,note_on,0,0,2,,,,,,,,1,,,54,100
45120,note_on,120,0,2,,,,,,,,1,,,52,0
45240,note_on,120,0,2,,,,,,,,1,,,54,0
45240,note_on,0,0,2,,,,,,,,1,,,50,100
45240,note_on,0,0,1,,,,,,,,0,,,85,100
45240,note_on,120,0,1,,,,,,,,0,,,86,0
45300,note_on,0,0,1,,,,,,,,0,,,83,100
45300,note_on,60,0,1,,,,,,,,0,,,85,0
45360,note_on,0,0,1,,,,,,,,0,,,81,100
45360,note_on,60,0,1,,,,,,,,0,,,83,0
45360,note_on,120,0,2,,,,,,,,1,,,50,0
45360,note_on,0,0,2,,,,,,,,1,,,54,100
45420,note_on,0,0,1,,,,,,,,0,,,79,100
45420,note_on,60,0,1,,,,,,,,0,,,81,0
45480,note_on,60,0,1,,,,,,,,0,,,79,0
45480,note_on,0,0,1,,,,,,,,0,,,78,100
45480,note_on,0,0,2,,,,,,,,1,,,57,100
45480,note_on,120,0,2,,,,,,,,1,,,54,0
45540,note_on,60,0,1,,,,,,,,0,,,78,0
45540,note_on,0,0,1,,,,,,,,0,,,76,100
45600,note_on,60,0,1,,,,,,,,0,,,76,0
45600,note_on,120,0,2,,,,,,,,1,,,57,0
45600,note_on,0,0,2,,,,,,,,1,,,62,100
45600,note_on,0,0,1,,,,,,,,0,,,74,100
46080,note_on,480,0,1,,,,,,,,0,,,74,0
46080,note_on,0,0,1,,,,,,,,0,,,69,100
46080,marker,23040,1,0,,,,,,,,,,,,
46080,note_on,480,0,2,,,,,,,,1,,,62,0
46080,note_on,0,0,2,,,,,,,,1,,,62,100
46200,note_on,120,0,1,,,,,,,,0,,,69,0
46200,note_on,0,0,1,,,,,,,,0,,,74,100
46320,note_on,240,0,2,,,,,,,,1,,,62,0
46320,note_on,120,0,1,,,,,,,,0,,,74,0
46320,note_on,0,0,1,,,,,,,,0,,,78,100
46320,note_on,0,0,2,,,,,,,,1,,,57,100
46440,note_on,120,0,1,,,,,,,,0,,,78,0
46440,note_on,0,0,1,,,,,,,,0,,,76,100
46560,note_on,0,0,2,,,,,,,,1,,,54,100
46560,note_on,0,0,1,,,,,,,,0,,,74,100
46560,note_on,120,0,1,,,,,,,,0,,,76,0
46560,note_on,240,0,2,,,,,,,,1,,,57,0
46680,note_on,0,0,1,,,,,,,,0,,,78,100
46680,note_on,120,0,1,,,,,,,,0,,,74,0
46800,note_on,0,0,1,,,,,,,,0,,,81,100
46800,note_on,0,0,2,,,,,,,,1,,,50,100
46800,note_on,240,0,2,,,,,,,,1,,,54,0
46800,note_on,120,0,1,,,,,,,,0,,,78,0
46920,note_on,0,0,1,,,,,,,,0,,,79,100
46920,note_on,120,0,1,,,,,,,,0,,,81,0
47040,note_on,240,0,2,,,,,,,,1,,,50,0
47040,note_on,120,0,1,,,,,,,,0,,,79,0
47040,note_on,0,0,1,,,,,,,,0,,,78,100
47160,note_on,120,0,2,,,,,,,,1,,,60,100
47160,note_on,120,0,1,,,,,,,,0,,,78,0
47160,note_on,0,0,1,,,,,,,,0,,,81,100
47280,note_on,0,0,2,,,,,,,,1,,,59,100
47280,note_on,120,0,1,,,,,,,,0,,,81,0
47280,note_on,0,0,1,,,,,,,,0,,,84,100
47280,note_on,120,0,2,,,,,,,,1,,,60,0
47400,note_on,120,0,1,,,,,,,,0,,,84,0
47400,note_on,0,0,2,,,,,,,,1,,,57,100
47400,note_on,120,0,2,,,,,,,,1,,,59,0
47520,note_on,120,0,1,,,,,,,,0,,,62,100
47520,note_on,120,0,2,,,,,,,,1,,,57,0
47520,note_on,0,0,2,,,,,,,,1,,,55,100
47640,note_on,0,0,1,,,,,,,,0,,,67,100
47640,note_on,120,0,1,,,,,,,,0,,,62,0
47760,note_on,0,0,1,,,,,,,,0,,,71,100
47760,note_on,120,0,1,,,,,,,,0,,,67,0
47760,note_on,240,0,2,,,,,,,,1,,,55,0
47760,note_on,0,0,2,,,,,,,,1,,,50,100
47880,note_on,120,0,1,,,,,,,,0,,,71,0
47880,note_on,0,0,1,,,,,,,,0,,,69,100
48000,note_on,0,0,2,,,,,,,,1,,,47,100
48000,note_on,240,0,2,,,,,,,,1,,,50,0
48000,note_on,0,0,1,,,,,,,,0,,,67,100
48000,note_on,120,0,1,,,,,,,,0,,,69,0
48120,note_on,0,0,1,,,,,,,,0,,,71,100
48120,note_on,120,0,1,,,,,,,,0,,,67,0
48240,note_on,0,0,2,,,,,,,,1,,,43,100
48240,note_on,240,0,2,,,,,,,,1,,,47,0
48240,note_on,0,0,1,,,,,,,,0,,,74,100
48240,note_on,120,0,1,,,,,,,,0,,,71,0
48360,note_on,0,0,1,,,,,,,,0,,,72,100
48360,note_on,120,0,1,,,,,,,,0,,,74,0
48480,note_on,240,0,2,,,,,,,,1,,,43,0
48480,note_on,120,0,1,,,,,,,,0,,,72,0
48480,note_on,0,0,1,,,,,,,,0,,,71,100
48600,note_on,0,0,1,,,,,,,,0,,,74,100
48600,note_on,120,0,1,,,,,,,,0,,,71,0
48600,note_on,120,0,2,,,,,,,,1,,,53,100
48720,note_on,120,0,2,,,,,,,,1,,,53,0
48720,note_on,0,0,1,,,,,,,,0,,,77,100
48720,note_on,120,0,1,,,,,,,,0,,,74,0
48720,note_on,0,0,2,,,,,,,,1,,,52,100
48840,note_on,120,0,1,,,,,,,,0,,,77,0
48840,note_on,0,0,2,,,,,,,,1,,,50,100
48840,note_on,120,0,2,,,,,,,,1,,,52,0
48960,note_on,120,0,1,,,,,,,,0,,,76,100
48960,note_on,120,0,2,,,,,,,,1,,,50,0
48960,note_on,0,0,2,,,,,,,,1,,,48,100
49080,note_on,0,0,1,,,,,,,,0,,,72,100
49080,note_on,120,0,1,,,,,,,,0,,,76,0
49080,note_on,120,0,2,,,,,,,,1,,,48,0
49080,note_on,0,0,2,,,,,,,,1,,,52,100
49200,note_on,0,0,1,,,,,,,,0,,,69,100
49200,note_on,120,0,1,,,,,,,,0,,,72,0
49200,note_on,120,0,2,,,,,,,,1,,,52,0
49200,note_on,0,0,2,,,,,,,,1,,,57,100
49320,note_on,0,0,1,,,,,,,,0,,,71,100
49320,note_on,120,0,1,,,,,,,,0,,,69,0
49320,note_on,120,0,2,,,,,,,,1,,,57,0
49320,note_on,0,0,2,,,,,,,,1,,,55,100
49440,note_on,0,0,1,,,,,,,,0,,,72,100
49440,note_on,120,0,1,,,,,,,,0,,,71,0
49440,note_on,120,0,2,,,,,,,,1,,,55,0
49440,note_on,0,0,2,,,,,,,,1,,,54,100
49560,note_on,120,0,1,,,,,,,,0,,,72,0
49560,note_on,0,0,1,,,,,,,,0,,,69,100
49560,note_on,120,0,2,,,,,,,,1,,,54,0
49560,note_on,0,0,2,,,,,,,,1,,,57,100
49680,note_on,0,0,1,,,,,,,,0,,,66,100
49680,note_on,120,0,1,,,,,,,,0,,,69,0
49680,note_on,120,0,2,,,,,,,,1,,,57,0
49680,note_on,0,0,2,,,,,,,,1,,,60,100
49800,note_on,0,0,2,,,,,,,,1,,,59,100
49800,note_on,120,0,2,,,,,,,,1,,,60,0
49800,note_on,0,0,1,,,,,,,,0,,,67,100
49800,note_on,120,0,1,,,,,,,,0,,,66,0
49920,note_on,0,0,2,,,,,,,,1,,,57,100
49920,note_on,120,0,2,,,,,,,,1,,,59,0
49920,note_on,0,0,1,,,,,,,,0,,,69,100
49920,note_on,120,0,1,,,,,,,,0,,,67,0
50040,note_on,0,0,2,,,,,,,,1,,,60,100
50040,note_on,120,0,2,,,,,,,,1,,,57,0
50040,note_on,0,0,1,,,,,,,,0,,,66,100
50040,note_on,120,0,1,,,,,,,,0,,,69,0
50160,note_on,0,0,2,,,,,,,,1,,,63,100
50160,note_on,120,0,2,,,,,,,,1,,,60,0
50160,note_on,0,0,1,,,,,,,,0,,,63,100
50160,note_on,120,0,1,,,,,,,,0,,,66,0
50280,note_on,0,0,1,,,,,,,,0,,,64,100
50280,note_on,120,0,2,,,,,,,,1,,,63,0
50280,note_on,0,0,2,,,,,,,,1,,,61,100
50280,note_on,120,0,1,,,,,,,,0,,,63,0
50400,note_on,0,0,1,,,,,,,,0,,,66,100
50400,note_on,120,0,1,,,,,,,,0,,,64,0
50400,note_on,120,0,2,,,,,,,,1,,,61,0
50400,note_on,0,0,2,,,,,,,,1,,,59,100
50520,note_on,120,0,1,,,,,,,,0,,,66,0
50520,note_on,0,0,1,,,,,,,,0,,,63,100
50520,note_on,120,0,2,,,,,,,,1,,,59,0
50520,note_on,0,0,2,,,,,,,,1,,,63,100
50640,note_on,0,0,2,,,,,,,,1,,,66,100
50640,note_on,120,0,2,,,,,,,,1,,,63,0
50640,note_on,120,0,1,,,,,,,,0,,,63,0
50640,note_on,0,0,1,,,,,,,,0,,,59,100
50760,note_on,120,0,1,,,,,,,,0,,,59,0
50760,note_on,0,0,1,,,,,,,,0,,,61,100
50760,note_on,0,0,2,,,,,,,,1,,,64,100
50760,note_on,120,0,2,,,,,,,,1,,,66,0
50880,note_on,0,0,2,,,,,,,,1,,,63,100
50880,note_on,120,0,2,,,,,,,,1,,,64,0
50880,note_on,120,0,1,,,,,,,,0,,,61,0
50880,note_on,0,0,1,,,,,,,,0,,,63,100
51000,note_on,0,0,2,,,,,,,,1,,,66,100
51000,note_on,120,0,2,,,,,,,,1,,,63,0
51000,note_on,120,0,1,,,,,,,,0,,,63,0
51000,note_on,0,0,1,,,,,,,,0,,,59,100
51120,note_on,0,0,2,,,,,,,,1,,,69,100
51120,note_on,120,0,2,,,,,,,,1,,,66,0
51120,note_on,0,0,1,,,,,,,,0,,,54,100
51120,note_on,120,0,1,,,,,,,,0,,,59,0
51240,note_on,120,0,1,,,,,,,,0,,,54,0
51240,note_on,0,0,1,,,,,,,,0,,,55,100
51240,note_on,120,0,2,,,,,,,,1,,,69,0
51240,note_on,0,0,2,,,,,,,,1,,,67,100
51360,note_on,0,0,1,,,,,,,,0,,,57,100
51360,note_on,120,0,1,,,,,,,,0,,,55,0
51360,note_on,0,0,2,,,,,,,,1,,,66,100
51360,note_on,120,0,2,,,,,,,,1,,,67,0
51480,note_on,0,0,2,,,,,,,,1,,,69,100
51480,note_on,120,0,1,,,,,,,,0,,,57,0
51480,note_on,0,0,1,,,,,,,,0,,,54,100
51480,note_on,120,0,2,,,,,,,,1,,,66,0
51600,note_on,120,0,1,,,,,,,,0,,,54,0
51600,note_on,120,0,2,,,,,,,,1,,,69,0
51600,note_on,0,0,1,,,,,,,,0,,,51,100
51600,note_on,0,0,2,,,,,,,,1,,,72,100
51720,note_on,120,0,2,,,,,,,,1,,,72,0
51720,note_on,0,0,2,,,,,,,,1,,,69,100
51720,note_on,120,0,1,,,,,,,,0,,,51,0
51720,note_on,0,0,1,,,,,,,,0,,,54,100
51840,note_on,120,0,2,,,,,,,,1,,,69,0
51840,note_on,0,0,1,,,,,,,,0,,,55,100
51840,note_on,120,0,1,,,,,,,,0,,,54,0
51840,note_on,0,0,2,,,,,,,,1,,,71,100
51960,note_on,120,0,2,,,,,,,,1,,,71,0
51960,note_on,0,0,2,,,,,,,,1,,,67,100
51960,note_on,0,0,1,,,,,,,,0,,,59,100
51960,note_on,120,0,1,,,,,,,,0,,,55,0
52080,note_on,120,0,2,,,,,,,,1,,,67,0
52080,note_on,0,0,1,,,,,,,,0,,,64,100
52080,note_on,120,0,1,,,,,,,,0,,,59,0
52080,note_on,0,0,2,,,,,,,,1,,,64,100
52200,note_on,0,0,2,,,,,,,,1,,,66,100
52200,note_on,0,0,1,,,,,,,,0,,,63,100
52200,note_on,120,0,1,,,,,,,,0,,,64,0
52200,note_on,120,0,2,,,,,,,,1,,,64,0
52320,note_on,120,0,2,,,,,,,,1,,,66,0
52320,note_on,0,0,1,,,,,,,,0,,,64,100
52320,note_on,0,0,2,,,,,,,,1,,,67,100
52320,note_on,120,0,1,,,,,,,,0,,,63,0
52440,note_on,120,0,2,,,,,,,,1,,,67,0
52440,note_on,0,0,2,,,,,,,,1,,,64,100
52440,note_on,0,0,1,,,,,,,,0,,,67,100
52440,note_on,120,0,1,,,,,,,,0,,,64,0
52560,note_on,120,0,2,,,,,,,,1,,,64,0
52560,note_on,120,0,1,,,,,,,,0,,,67,0
52560,note_on,0,0,1,,,,,,,,0,,,71,100
52560,note_on,0,0,2,,,,,,,,1,,,59,100
52680,note_on,120,0,1,,,,,,,,0,,,71,0
52680,note_on,0,0,1,,,,,,,,0,,,69,100
52680,note_on,120,0,2,,,,,,,,1,,,59,0
52680,note_on,0,0,2,,,,,,,,1,,,63,100
52800,note_on,0,0,1,,,,,,,,0,,,67,100
52800,note_on,120,0,2,,,,,,,,1,,,63,0
52800,note_on,0,0,2,,,,,,,,1,,,64,100
52800,note_on,120,0,1,,,,,,,,0,,,69,0
52920,note_on,120,0,2,,,,,,,,1,,,64,0
52920,note_on,0,0,2,,,,,,,,1,,,59,100
52920,note_on,0,0,1,,,,,,,,0,,,71,100
52920,note_on,120,0,1,,,,,,,,0,,,67,0
53040,note_on,0,0,1,,,,,,,,0,,,76,100
53040,note_on,120,0,1,,,,,,,,0,,,71,0
53040,note_on,0,0,2,,,,,,,,1,,,55,100
53040,note_on,120,0,2,,,,,,,,1,,,59,0
53160,note_on,120,0,1,,,,,,,,0,,,76,0
53160,note_on,120,0,2,,,,,,,,1,,,55,0
53160,note_on,0,0,2,,,,,,,,1,,,59,100
53280,note_on,0,0,2,,,,,,,,1,,,60,100
53280,note_on,120,0,2,,,,,,,,1,,,59,0
53280,note_on,120,0,1,,,,,,,,0,,,64,100
53400,note_on,0,0,2,,,,,,,,1,,,57,100
53400,note_on,120,0,2,,,,,,,,1,,,60,0
53400,note_on,0,0,1,,,,,,,,0,,,69,100
53400,note_on,120,0,1,,,,,,,,0,,,64,0
53520,note_on,0,0,1,,,,,,,,0,,,72,100
53520,note_on,0,0,2,,,,,,,,1,,,52,100
53520,note_on,120,0,2,,,,,,,,1,,,57,0
53520,note_on,120,0,1,,,,,,,,0,,,69,0
53640,note_on,120,0,1,,,,,,,,0,,,72,0
53640,note_on,0,0,1,,,,,,,,0,,,71,100
53640,note_on,0,0,2,,,,,,,,1,,,56,100
53640,note_on,120,0,2,,,,,,,,1,,,52,0
53760,note_on,120,0,1,,,,,,,,0,,,71,0
53760,note_on,0,0,2,,,,,,,,1,,,57,100
53760,note_on,120,0,2,,,,,,,,1,,,56,0
53760,note_on,0,0,1,,,,,,,,0,,,69,100
53880,note_on,0,0,1,,,,,,,,0,,,72,100
53880,note_on,120,0,1,,,,,,,,0,,,69,0
53880,note_on,0,0,2,,,,,,,,1,,,52,100
53880,note_on,120,0,2,,,,,,,,1,,,57,0
54000,note_on,0,0,1,,,,,,,,0,,,76,100
54000,note_on,120,0,1,,,,,,,,0,,,72,0
54000,note_on,0,0,2,,,,,,,,1,,,48,100
54000,note_on,120,0,2,,,,,,,,1,,,52,0
54120,note_on,0,0,1,,,,,,,,0,,,74,100
54120,note_on,120,0,1,,,,,,,,0,,,76,0
54120,note_on,0,0,2,,,,,,,,1,,,50,100
54120,note_on,120,0,2,,,,,,,,1,,,48,0
54240,note_on,0,0,1,,,,,,,,0,,,72,100
54240,note_on,120,0,1,,,,,,,,0,,,74,0
54240,note_on,120,0,2,,,,,,,,1,,,50,0
54240,note_on,0,0,2,,,,,,,,1,,,52,100
54360,note_on,120,0,2,,,,,,,,1,,,52,0
54360,note_on,0,0,2,,,,,,,,1,,,48,100
54360,note_on,120,0,1,,,,,,,,0,,,72,0
54360,note_on,0,0,1,,,,,,,,0,,,76,100
54480,note_on,120,0,2,,,,,,,,1,,,48,0
54480,note_on,120,0,1,,,,,,,,0,,,76,0
54480,note_on,0,0,2,,,,,,,,1,,,45,100
54480,note_on,0,0,1,,,,,,,,0,,,81,100
54600,note_on,0,0,2,,,,,,,,1,,,48,100
54600,note_on,120,0,1,,,,,,,,0,,,81,0
54600,note_on,120,0,2,,,,,,,,1,,,45,0
54720,note_on,0,0,2,,,,,,,,1,,,39,100
54720,note_on,120,0,2,,,,,,,,1,,,48,0
54840,note_on,240,0,1,,,,,,,,0,,,72,100
54960,note_on,0,0,2,,,,,,,,1,,,51,100
54960,note_on,240,0,2,,,,,,,,1,,,39,0
54960,note_on,120,0,1,,,,,,,,0,,,72,0
54960,note_on,0,0,1,,,,,,,,0,,,71,100
55080,note_on,0,0,1,,,,,,,,0,,,78,100
55080,note_on,120,0,1,,,,,,,,0,,,71,0
55200,note_on,0,0,1,,,,,,,,0,,,79,100
55200,note_on,120,0,1,,,,,,,,0,,,78,0
55200,note_on,240,0,2,,,,,,,,1,,,51,0
55200,note_on,0,0,2,,,,,,,,1,,,52,100
55320,note_on,0,0,1,,,,,,,,0,,,75,100
55320,note_on,120,0,1,,,,,,,,0,,,79,0
55440,note_on,120,0,1,,,,,,,,0,,,75,0
55440,note_on,240,0,2,,,,,,,,1,,,52,0
55440,note_on,0,0,2,,,,,,,,1,,,48,100
55440,note_on,0,0,1,,,,,,,,0,,,76,100
55560,note_on,120,0,1,,,,,,,,0,,,76,0
55560,note_on,0,0,1,,,,,,,,0,,,67,100
55680,note_on,120,0,1,,,,,,,,0,,,67,0
55680,note_on,0,0,1,,,,,,,,0,,,66,100
55680,note_on,240,0,2,,,,,,,,1,,,48,0
55680,note_on,0,0,2,,,,,,,,1,,,45,100
55800,note_on,120,0,1,,,,,,,,0,,,66,0
55800,note_on,0,0,1,,,,,,,,0,,,76,100
55920,note_on,240,0,2,,,,,,,,1,,,45,0
55920,note_on,120,0,1,,,,,,,,0,,,76,0
55920,note_on,0,0,1,,,,,,,,0,,,75,100
55920,note_on,0,0,2,,,,,,,,1,,,47,100
56040,note_on,0,0,1,,,,,,,,0,,,81,100
56040,note_on,120,0,1,,,,,,,,0,,,75,0
56160,note_on,0,0,1,,,,,,,,0,,,81,100
56160,note_on,120,0,1,,,,,,,,0,,,81,0
56160,note_on,0,0,2,,,,,,,,1,,,40,100
56160,note_on,240,0,2,,,,,,,,1,,,47,0
56190,note_on,0,0,1,,,,,,,,0,,,79,100
56190,note_on,30,0,1,,,,,,,,0,,,81,0
56220,note_on,0,0,1,,,,,,,,0,,,81,100
56220,note_on,30,0,1,,,,,,,,0,,,79,0
56250,note_on,0,0,1,,,,,,,,0,,,79,100
56250,note_on,30,0,1,,,,,,,,0,,,81,0
56280,note_on,30,0,1,,,,,,,,0,,,79,0
56280,note_on,0,0,1,,,,,,,,0,,,78,100
56400,note_on,0,0,2,,,,,,,,1,,,43,100
56400,note_on,120,0,1,,,,,,,,0,,,78,0
56400,note_on,0,0,1,,,,,,,,0,,,76,100
56400,note_on,240,0,2,,,,,,,,1,,,40,0
56640,note_on,0,0,2,,,,,,,,1,,,47,100
56640,note_on,240,0,2,,,,,,,,1,,,43,0
56640,note_on,240,0,1,,,,,,,,0,,,76,0
56760,note_on,120,0,1,,,,,,,,0,,,69,100
56880,note_on,0,0,1,,,,,,,,0,,,67,100
56880,note_on,240,0,2,,,,,,,,1,,,47,0
56880,note_on,120,0,1,,,,,,,,0,,,69,0
56880,note_on,0,0,2,,,,,,,,1,,,52,100
57000,note_on,0,0,1,,,,,,,,0,,,66,100
57000,note_on,120,0,1,,,,,,,,0,,,67,0
57120,note_on,120,0,1,,,,,,,,0,,,66,0
57120,note_on,0,0,1,,,,,,,,0,,,66,100
57120,note_on,240,0,2,,,,,,,,1,,,52,0
57240,note_on,120,0,2,,,,,,,,1,,,50,100
57360,note_on,120,0,2,,,,,,,,1,,,50,0
57360,note_on,0,0,2,,,,,,,,1,,,48,100
57360,note_on,240,0,1,,,,,,,,0,,,66,0
57360,note_on,0,0,1,,,,,,,,0,,,64,100
57480,note_on,0,0,2,,,,,,,,1,,,47,100
57480,note_on,120,0,2,,,,,,,,1,,,48,0
57600,note_on,120,0,2,,,,,,,,1,,,47,0
57600,note_on,0,0,2,,,,,,,,1,,,48,100
57720,note_on,0,0,2,,,,,,,,1,,,52,100
57720,note_on,120,0,2,,,,,,,,1,,,48,0
57840,note_on,0,0,2,,,,,,,,1,,,55,100
57840,note_on,120,0,2,,,,,,,,1,,,52,0
57840,note_on,480,0,1,,,,,,,,0,,,64,0
57840,note_on,0,0,1,,,,,,,,0,,,76,100
57960,note_on,0,0,2,,,,,,,,1,,,53,100
57960,note_on,120,0,2,,,,,,,,1,,,55,0
57960,note_on,120,0,1,,,,,,,,0,,,76,0
57960,note_on,0,0,1,,,,,,,,0,,,74,100
58080,note_on,120,0,2,,,,,,,,1,,,53,0
58080,note_on,0,0,2,,,,,,,,1,,,52,100
58080,note_on,120,0,1,,,,,,,,0,,,74,0
58080,note_on,0,0,1,,,,,,,,0,,,72,100
58200,note_on,0,0,1,,,,,,,,0,,,71,100
58200,note_on,120,0,1,,,,,,,,0,,,72,0
58200,note_on,120,0,2,,,,,,,,1,,,52,0
58200,note_on,0,0,2,,,,,,,,1,,,55,100
58320,note_on,0,0,1,,,,,,,,0,,,69,100
58320,note_on,120,0,1,,,,,,,,0,,,71,0
58320,note_on,0,0,2,,,,,,,,1,,,60,100
58320,note_on,120,0,2,,,,,,,,1,,,55,0
58440,note_on,0,0,1,,,,,,,,0,,,67,100
58440,note_on,120,0,1,,,,,,,,0,,,69,0
58440,note_on,0,0,2,,,,,,,,1,,,59,100
58440,note_on,120,0,2,,,,,,,,1,,,60,0
58560,note_on,120,0,1,,,,,,,,0,,,67,0
58560,note_on,120,0,2,,,,,,,,1,,,59,0
58560,note_on,0,0,2,,,,,,,,1,,,58,100
58560,note_on,0,0,1,,,,,,,,0,,,66,100
58680,note_on,120,0,1,,,,,,,,0,,,66,0
58680,note_on,120,0,2,,,,,,,,1,,,58,0
58680,note_on,0,0,1,,,,,,,,0,,,70,100
58680,note_on,0,0,2,,,,,,,,1,,,61,100
58800,note_on,120,0,2,,,,,,,,1,,,61,0
58800,note_on,120,0,1,,,,,,,,0,,,70,0
58800,note_on,0,0,1,,,,,,,,0,,,73,100
58800,note_on,0,0,2,,,,,,,,1,,,66,100
58920,note_on,0,0,1,,,,,,,,0,,,76,100
58920,note_on,120,0,2,,,,,,,,1,,,66,0
58920,note_on,120,0,1,,,,,,,,0,,,73,0
59040,note_on,120,0,1,,,,,,,,0,,,76,0
59040,note_on,0,0,1,,,,,,,,0,,,74,100
59040,note_on,120,0,2,,,,,,,,1,,,47,100
59160,note_on,120,0,1,,,,,,,,0,,,74,0
59160,note_on,0,0,2,,,,,,,,1,,,50,100
59160,note_on,0,0,1,,,,,,,,0,,,66,100
59160,note_on,120,0,2,,,,,,,,1,,,47,0
59280,note_on,0,0,2,,,,,,,,1,,,54,100
59280,note_on,120,0,1,,,,,,,,0,,,66,0
59280,note_on,0,0,1,,,,,,,,0,,,74,100
59280,note_on,120,0,2,,,,,,,,1,,,50,0
59400,note_on,0,0,2,,,,,,,,1,,,52,100
59400,note_on,120,0,2,,,,,,,,1,,,54,0
59400,note_on,0,0,1,,,,,,,,0,,,72,100
59400,note_on,120,0,1,,,,,,,,0,,,74,0
59520,note_on,120,0,1,,,,,,,,0,,,72,0
59520,note_on,120,0,2,,,,,,,,1,,,52,0
59520,note_on,0,0,1,,,,,,,,0,,,71,100
59520,note_on,0,0,2,,,,,,,,1,,,50,100
59640,note_on,120,0,2,,,,,,,,1,,,50,0
59640,note_on,120,0,1,,,,,,,,0,,,71,0
59640,note_on,0,0,2,,,,,,,,1,,,54,100
59640,note_on,0,0,1,,,,,,,,0,,,69,100
59760,note_on,120,0,2,,,,,,,,1,,,54,0
59760,note_on,0,0,1,,,,,,,,0,,,68,100
59760,note_on,120,0,1,,,,,,,,0,,,69,0
59760,note_on,0,0,2,,,,,,,,1,,,59,100
59880,note_on,0,0,1,,,,,,,,0,,,66,100
59880,note_on,120,0,2,,,,,,,,1,,,59,0
59880,note_on,120,0,1,,,,,,,,0,,,68,0
59880,note_on,0,0,2,,,,,,,,1,,,57,100
60000,note_on,0,0,2,,,,,,,,1,,,56,100
60000,note_on,0,0,1,,,,,,,,0,,,64,100
60000,note_on,120,0,1,,,,,,,,0,,,66,0
60000,note_on,120,0,2,,,,,,,,1,,,57,0
60120,note_on,0,0,2,,,,,,,,1,,,59,100
60120,note_on,120,0,2,,,,,,,,1,,,56,0
60120,note_on,0,0,1,,,,,,,,0,,,68,100
60120,note_on,120,0,1,,,,,,,,0,,,64,0
60240,note_on,0,0,2,,,,,,,,1,,,64,100
60240,note_on,120,0,1,,,,,,,,0,,,68,0
60240,note_on,0,0,1,,,,,,,,0,,,71,100
60240,note_on,120,0,2,,,,,,,,1,,,59,0
60360,note_on,120,0,2,,,,,,,,1,,,64,0
60360,note_on,120,0,1,,,,,,,,0,,,71,0
60360,note_on,0,0,1,,,,,,,,0,,,74,100
60480,note_on,120,0,2,,,,,,,,1,,,45,100
60480,note_on,120,0,1,,,,,,,,0,,,74,0
60480,note_on,0,0,1,,,,,,,,0,,,72,100
60600,note_on,120,0,2,,,,,,,,1,,,45,0
60600,note_on,0,0,2,,,,,,,,1,,,48,100
60600,note_on,120,0,1,,,,,,,,0,,,72,0
60600,note_on,0,0,1,,,,,,,,0,,,64,100
60720,note_on,120,0,1,,,,,,,,0,,,64,0
60720,note_on,0,0,1,,,,,,,,0,,,72,100
60720,note_on,0,0,2,,,,,,,,1,,,52,100
60720,note_on,120,0,2,,,,,,,,1,,,48,0
60840,note_on,120,0,2,,,,,,,,1,,,52,0
60840,note_on,120,0,1,,,,,,,,0,,,72,0
60840,note_on,0,0,1,,,,,,,,0,,,71,100
60840,note_on,0,0,2,,,,,,,,1,,,50,100
60960,note_on,120,0,1,,,,,,,,0,,,71,0
60960,note_on,0,0,1,,,,,,,,0,,,69,100
60960,note_on,120,0,2,,,,,,,,1,,,50,0
60960,note_on,0,0,2,,,,,,,,1,,,48,100
61080,note_on,120,0,2,,,,,,,,1,,,48,0
61080,note_on,0,0,2,,,,,,,,1,,,45,100
61080,note_on,120,0,1,,,,,,,,0,,,69,0
61080,note_on,0,0,1,,,,,,,,0,,,72,100
61200,note_on,120,0,2,,,,,,,,1,,,45,0
61200,note_on,0,0,1,,,,,,,,0,,,76,100
61200,note_on,120,0,1,,,,,,,,0,,,72,0
61200,note_on,0,0,2,,,,,,,,1,,,48,100
61320,note_on,120,0,1,,,,,,,,0,,,76,0
61320,note_on,0,0,1,,,,,,,,0,,,74,100
61320,note_on,0,0,2,,,,,,,,1,,,52,100
61320,note_on,120,0,2,,,,,,,,1,,,48,0
61440,note_on,120,0,2,,,,,,,,1,,,52,0
61440,note_on,0,0,1,,,,,,,,0,,,72,100
61440,note_on,120,0,1,,,,,,,,0,,,74,0
61440,note_on,0,0,2,,,,,,,,1,,,57,100
61560,note_on,120,0,2,,,,,,,,1,,,57,0
61560,note_on,0,0,2,,,,,,,,1,,,60,100
61560,note_on,120,0,1,,,,,,,,0,,,72,0
61560,note_on,0,0,1,,,,,,,,0,,,76,100
61680,note_on,120,0,2,,,,,,,,1,,,60,0
61680,note_on,0,0,2,,,,,,,,1,,,54,100
61680,note_on,120,0,1,,,,,,,,0,,,76,0
61680,note_on,0,0,1,,,,,,,,0,,,81,100
61800,note_on,0,0,1,,,,,,,,0,,,79,100
61800,note_on,120,0,1,,,,,,,,0,,,81,0
61800,note_on,120,0,2,,,,,,,,1,,,54,0
61800,note_on,0,0,2,,,,,,,,1,,,55,100
61920,note_on,0,0,1,,,,,,,,0,,,78,100
61920,note_on,120,0,1,,,,,,,,0,,,79,0
61920,note_on,120,0,2,,,,,,,,1,,,55,0
61920,note_on,0,0,2,,,,,,,,1,,,57,100
62040,note_on,0,0,1,,,,,,,,0,,,81,100
62040,note_on,120,0,1,,,,,,,,0,,,78,0
62040,note_on,120,0,2,,,,,,,,1,,,57,0
62040,note_on,0,0,2,,,,,,,,1,,,54,100
62160,note_on,120,0,1,,,,,,,,0,,,81,0
62160,note_on,0,0,2,,,,,,,,1,,,50,100
62160,note_on,120,0,2,,,,,,,,1,,,54,0
62160,note_on,0,0,1,,,,,,,,0,,,84,100
62280,note_on,0,0,2,,,,,,,,1,,,52,100
62280,note_on,120,0,2,,,,,,,,1,,,50,0
62280,note_on,120,0,1,,,,,,,,0,,,84,0
62280,note_on,0,0,1,,,,,,,,0,,,83,100
62400,note_on,0,0,2,,,,,,,,1,,,54,100
62400,note_on,120,0,2,,,,,,,,1,,,52,0
62400,note_on,120,0,1,,,,,,,,0,,,83,0
62400,note_on,0,0,1,,,,,,,,0,,,81,100
62520,note_on,120,0,2,,,,,,,,1,,,54,0
62520,note_on,0,0,1,,,,,,,,0,,,79,100
62520,note_on,0,0,2,,,,,,,,1,,,50,100
62520,note_on,120,0,1,,,,,,,,0,,,81,0
62640,note_on,120,0,1,,,,,,,,0,,,79,0
62640,note_on,0,0,1,,,,,,,,0,,,78,100
62640,note_on,120,0,2,,,,,,,,1,,,50,0
62640,note_on,0,0,2,,,,,,,,1,,,45,100
62760,note_on,0,0,1,,,,,,,,0,,,76,100
62760,note_on,0,0,2,,,,,,,,1,,,47,100
62760,note_on,120,0,1,,,,,,,,0,,,78,0
62760,note_on,120,0,2,,,,,,,,1,,,45,0
62880,note_on,0,0,2,,,,,,,,1,,,48,100
62880,note_on,120,0,2,,,,,,,,1,,,47,0
62880,note_on,0,0,1,,,,,,,,0,,,74,100
62880,note_on,120,0,1,,,,,,,,0,,,76,0
63000,note_on,120,0,2,,,,,,,,1,,,48,0
63000,note_on,0,0,1,,,,,,,,0,,,78,100
63000,note_on,120,0,1,,,,,,,,0,,,74,0
63000,note_on,0,0,2,,,,,,,,1,,,45,100
63120,note_on,120,0,2,,,,,,,,1,,,45,0
63120,note_on,0,0,1,,,,,,,,0,,,81,100
63120,note_on,0,0,2,,,,,,,,1,,,42,100
63120,note_on,120,0,1,,,,,,,,0,,,78,0
63240,note_on,0,0,1,,,,,,,,0,,,84,100
63240,note_on,120,0,2,,,,,,,,1,,,42,0
63240,note_on,120,0,1,,,,,,,,0,,,81,0
63240,note_on,0,0,2,,,,,,,,1,,,38,100
63360,note_on,0,0,1,,,,,,,,0,,,83,100
63360,note_on,120,0,1,,,,,,,,0,,,84,0
63360,note_on,120,0,2,,,,,,,,1,,,38,0
63360,note_on,0,0,2,,,,,,,,1,,,43,100
63480,note_on,0,0,1,,,,,,,,0,,,86,100
63480,note_on,120,0,1,,,,,,,,0,,,83,0
63600,note_on,0,0,1,,,,,,,,0,,,79,100
63600,note_on,120,0,1,,,,,,,,0,,,86,0
63600,note_on,0,0,2,,,,,,,,1,,,47,100
63600,note_on,240,0,2,,,,,,,,1,,,43,0
63720,note_on,0,0,1,,,,,,,,0,,,81,100
63720,note_on,120,0,1,,,,,,,,0,,,79,0
63840,note_on,240,0,2,,,,,,,,1,,,47,0
63840,note_on,0,0,1,,,,,,,,0,,,83,100
63840,note_on,120,0,1,,,,,,,,0,,,81,0
63840,note_on,0,0,2,,,,,,,,1,,,50,100
63960,note_on,0,0,1,,,,,,,,0,,,79,100
63960,note_on,120,0,1,,,,,,,,0,,,83,0
64080,note_on,0,0,2,,,,,,,,1,,,53,100
64080,note_on,240,0,2,,,,,,,,1,,,50,0
64080,note_on,120,0,1,,,,,,,,0,,,79,0
64080,note_on,0,0,1,,,,,,,,0,,,74,100
64200,note_on,0,0,1,,,,,,,,0,,,76,100
64200,note_on,120,0,1,,,,,,,,0,,,74,0
64320,note_on,120,0,1,,,,,,,,0,,,76,0
64320,note_on,0,0,1,,,,,,,,0,,,77,100
64320,note_on,240,0,2,,,,,,,,1,,,53,0
64440,note_on,120,0,1,,,,,,,,0,,,77,0
64440,note_on,0,0,1,,,,,,,,0,,,74,100
64440,note_on,120,0,2,,,,,,,,1,,,53,100
64560,note_on,0,0,2,,,,,,,,1,,,52,100
64560,note_on,120,0,2,,,,,,,,1,,,53,0
64560,note_on,120,0,1,,,,,,,,0,,,74,0
64560,note_on,0,0,1,,,,,,,,0,,,71,100
64680,note_on,120,0,2,,,,,,,,1,,,52,0
64680,note_on,120,0,1,,,,,,,,0,,,71,0
64680,note_on,0,0,1,,,,,,,,0,,,74,100
64680,note_on,0,0,2,,,,,,,,1,,,50,100
64800,note_on,120,0,1,,,,,,,,0,,,74,0
64800,note_on,0,0,1,,,,,,,,0,,,76,100
64800,note_on,120,0,2,,,,,,,,1,,,50,0
64800,note_on,0,0,2,,,,,,,,1,,,48,100
64920,note_on,120,0,1,,,,,,,,0,,,76,0
64920,note_on,0,0,1,,,,,,,,0,,,79,100
65040,note_on,240,0,2,,,,,,,,1,,,48,0
65040,note_on,0,0,2,,,,,,,,1,,,52,100
65040,note_on,120,0,1,,,,,,,,0,,,79,0
65040,note_on,0,0,1,,,,,,,,0,,,72,100
65160,note_on,120,0,1,,,,,,,,0,,,72,0
65160,note_on,0,0,1,,,,,,,,0,,,74,100
65280,note_on,120,0,1,,,,,,,,0,,,74,0
65280,note_on,0,0,1,,,,,,,,0,,,76,100
65280,note_on,240,0,2,,,,,,,,1,,,52,0
65280,note_on,0,0,2,,,,,,,,1,,,55,100
65400,note_on,120,0,1,,,,,,,,0,,,76,0
65400,note_on,0,0,1,,,,,,,,0,,,72,100
65520,note_on,120,0,1,,,,,,,,0,,,72,0
65520,note_on,240,0,2,,,,,,,,1,,,55,0
65520,note_on,0,0,2,,,,,,,,1,,,60,100
65520,note_on,0,0,1,,,,,,,,0,,,69,100
65640,note_on,0,0,1,,,,,,,,0,,,71,100
65640,note_on,120,0,1,,,,,,,,0,,,69,0
65760,note_on,240,0,2,,,,,,,,1,,,60,0
65760,note_on,0,0,1,,,,,,,,0,,,72,100
65760,note_on,120,0,1,,,,,,,,0,,,71,0
65880,note_on,120,0,2,,,,,,,,1,,,60,100
65880,note_on,0,0,1,,,,,,,,0,,,69,100
65880,note_on,120,0,1,,,,,,,,0,,,72,0
66000,note_on,120,0,1,,,,,,,,0,,,69,0
66000,note_on,0,0,1,,,,,,,,0,,,64,100
66000,note_on,120,0,2,,,,,,,,1,,,60,0
66000,note_on,0,0,2,,,,,,,,1,,,59,100
66120,note_on,120,0,2,,,,,,,,1,,,59,0
66120,note_on,0,0,2,,,,,,,,1,,,60,100
66120,note_on,0,0,1,,,,,,,,0,,,67,100
66120,note_on,120,0,1,,,,,,,,0,,,64,0
66240,note_on,0,0,2,,,,,,,,1,,,50,100
66240,note_on,0,0,1,,,,,,,,0,,,66,100
66240,note_on,120,0,2,,,,,,,,1,,,60,0
66240,note_on,120,0,1,,,,,,,,0,,,67,0
66360,note_on,120,0,1,,,,,,,,0,,,66,0
66360,note_on,0,0,1,,,,,,,,0,,,69,100
66480,note_on,120,0,1,,,,,,,,0,,,69,0
66480,note_on,0,0,1,,,,,,,,0,,,62,100
66480,note_on,240,0,2,,,,,,,,1,,,50,0
66480,note_on,0,0,2,,,,,,,,1,,,54,100
66600,note_on,120,0,1,,,,,,,,0,,,62,0
66600,note_on,0,0,1,,,,,,,,0,,,64,100
66720,note_on,120,0,1,,,,,,,,0,,,64,0
66720,note_on,0,0,1,,,,,,,,0,,,66,100
66720,note_on,0,0,2,,,,,,,,1,,,57,100
66720,note_on,240,0,2,,,,,,,,1,,,54,0
66840,note_on,120,0,1,,,,,,,,0,,,66,0
66840,note_on,0,0,1,,,,,,,,0,,,62,100
66960,note_on,120,0,1,,,,,,,,0,,,62,0
66960,note_on,240,0,2,,,,,,,,1,,,57,0
66960,note_on,0,0,1,,,,,,,,0,,,57,100
66960,note_on,0,0,2,,,,,,,,1,,,60,100
67080,note_on,0,0,1,,,,,,,,0,,,59,100
67080,note_on,120,0,1,,,,,,,,0,,,57,0
67200,note_on,120,0,1,,,,,,,,0,,,59,0
67200,note_on,240,0,2,,,,,,,,1,,,60,0
67200,note_on,0,0,1,,,,,,,,0,,,60,100
67320,note_on,120,0,2,,,,,,,,1,,,60,100
67320,note_on,0,0,1,,,,,,,,0,,,57,100
67320,note_on,120,0,1,,,,,,,,0,,,60,0
67440,note_on,0,0,2,,,,,,,,1,,,62,100
67440,note_on,120,0,2,,,,,,,,1,,,60,0
67440,note_on,0,0,1,,,,,,,,0,,,54,100
67440,note_on,120,0,1,,,,,,,,0,,,57,0
67560,note_on,0,0,2,,,,,,,,1,,,54,100
67560,note_on,120,0,2,,,,,,,,1,,,62,0
67560,note_on,120,0,1,,,,,,,,0,,,54,0
67560,note_on,0,0,1,,,,,,,,0,,,57,100
67680,note_on,0,0,2,,,,,,,,1,,,55,100
67680,note_on,0,0,1,,,,,,,,0,,,59,100
67680,note_on,120,0,1,,,,,,,,0,,,57,0
67680,note_on,120,0,2,,,,,,,,1,,,54,0
67800,note_on,120,0,2,,,,,,,,1,,,55,0
67800,note_on,0,0,2,,,,,,,,1,,,59,100
67800,note_on,0,0,1,,,,,,,,0,,,62,100
67800,note_on,120,0,1,,,,,,,,0,,,59,0
67920,note_on,120,0,1,,,,,,,,0,,,62,0
67920,note_on,0,0,1,,,,,,,,0,,,55,100
67920,note_on,120,0,2,,,,,,,,1,,,59,0
67920,note_on,0,0,2,,,,,,,,1,,,62,100
68040,note_on,0,0,2,,,,,,,,1,,,66,100
68040,note_on,0,0,1,,,,,,,,0,,,57,100
68040,note_on,120,0,1,,,,,,,,0,,,55,0
68040,note_on,120,0,2,,,,,,,,1,,,62,0
68160,note_on,120,0,2,,,,,,,,1,,,66,0
68160,note_on,0,0,2,,,,,,,,1,,,67,100
68160,note_on,0,0,1,,,,,,,,0,,,59,100
68160,note_on,120,0,1,,,,,,,,0,,,57,0
68280,note_on,120,0,1,,,,,,,,0,,,59,0
68280,note_on,120,0,2,,,,,,,,1,,,67,0
68280,note_on,0,0,2,,,,,,,,1,,,66,100
68280,note_on,0,0,1,,,,,,,,0,,,55,100
68340,note_on,60,0,2,,,,,,,,1,,,66,0
68340,note_on,0,0,2,,,,,,,,1,,,64,100
68400,note_on,60,0,2,,,,,,,,1,,,64,0
68400,note_on,0,0,2,,,,,,,,1,,,62,100
68400,note_on,120,0,1,,,,,,,,0,,,55,0
68400,note_on,0,0,1,,,,,,,,0,,,59,100
68460,note_on,0,0,2,,,,,,,,1,,,60,100
68460,note_on,60,0,2,,,,,,,,1,,,62,0
68520,note_on,0,0,2,,,,,,,,1,,,59,100
68520,note_on,60,0,2,,,,,,,,1,,,60,0
68520,note_on,0,0,1,,,,,,,,0,,,62,100
68520,note_on,120,0,1,,,,,,,,0,,,59,0
68580,note_on,60,0,2,,,,,,,,1,,,59,0
68580,note_on,0,0,2,,,,,,,,1,,,57,100
68640,note_on,0,0,1,,,,,,,,0,,,67,100
68640,note_on,120,0,1,,,,,,,,0,,,62,0
68640,note_on,0,0,2,,,,,,,,1,,,55,100
68640,note_on,60,0,2,,,,,,,,1,,,57,0
69120,note_on,480,0,1,,,,,,,,0,,,67,0
69120,note_on,480,0,2,,,,,,,,1,,,55,0
69120,note_on,0,0,2,,,,,,,,1,,,62,100
69120,marker,23040,1,0,,,,,,,,,,,,
69120,note_on,0,0,1,,,,,,,,0,,,69,100
69240,note_on,120,0,1,,,,,,,,0,,,69,0
69240,note_on,0,0,1,,,,,,,,0,,,74,100
69360,note_on,0,0,2,,,,,,,,1,,,57,100
69360,note_on,240,0,2,,,,,,,,1,,,62,0
69360,note_on,0,0,1,,,,,,,,0,,,78,100
69360,note_on,120,0,1,,,,,,,,0,,,74,0
69480,note_on,0,0,1,,,,,,,,0,,,76,100
69480,note_on,120,0,1,,,,,,,,0,,,78,0
69600,note_on,120,0,1,,,,,,,,0,,,76,0
69600,note_on,0,0,1,,,,,,,,0,,,74,100
69600,note_on,0,0,2,,,,,,,,1,,,54,100
69600,note_on,240,0,2,,,,,,,,1,,,57,0
69720,note_on,0,0,1,,,,,,,,0,,,78,100
69720,note_on,120,0,1,,,,,,,,0,,,74,0
69840,note_on,120,0,1,,,,,,,,0,,,78,0
69840,note_on,0,0,1,,,,,,,,0,,,81,100
69840,note_on,0,0,2,,,,,,,,1,,,50,100
69840,note_on,240,0,2,,,,,,,,1,,,54,0
69960,note_on,120,0,1,,,,,,,,0,,,81,0
69960,note_on,0,0,1,,,,,,,,0,,,79,100
70080,note_on,240,0,2,,,,,,,,1,,,50,0
70080,note_on,120,0,1,,,,,,,,0,,,79,0
70080,note_on,0,0,1,,,,,,,,0,,,78,100
70200,note_on,120,0,1,,,,,,,,0,,,78,0
70200,note_on,0,0,1,,,,,,,,0,,,81,100
70200,note_on,120,0,2,,,,,,,,1,,,60,100
70320,note_on,0,0,2,,,,,,,,1,,,59,100
70320,note_on,120,0,2,,,,,,,,1,,,60,0
70320,note_on,0,0,1,,,,,,,,0,,,84,100
70320,note_on,120,0,1,,,,,,,,0,,,81,0
70440,note_on,0,0,2,,,,,,,,1,,,57,100
70440,note_on,120,0,2,,,,,,,,1,,,59,0
70440,note_on,120,0,1,,,,,,,,0,,,84,0
70560,note_on,0,0,2,,,,,,,,1,,,55,100
70560,note_on,120,0,2,,,,,,,,1,,,57,0
70560,note_on,120,0,1,,,,,,,,0,,,62,100
70680,note_on,0,0,1,,,,,,,,0,,,67,100
70680,note_on,120,0,1,,,,,,,,0,,,62,0
70800,note_on,0,0,1,,,,,,,,0,,,71,100
70800,note_on,0,0,2,,,,,,,,1,,,50,100
70800,note_on,120,0,1,,,,,,,,0,,,67,0
70800,note_on,240,0,2,,,,,,,,1,,,55,0
70920,note_on,120,0,1,,,,,,,,0,,,71,0
70920,note_on,0,0,1,,,,,,,,0,,,69,100
71040,note_on,240,0,2,,,,,,,,1,,,50,0
71040,note_on,0,0,1,,,,,,,,0,,,67,100
71040,note_on,120,0,1,,,,,,,,0,,,69,0
71040,note_on,0,0,2,,,,,,,,1,,,47,100
71160,note_on,0,0,1,,,,,,,,0,,,71,100
71160,note_on,120,0,1,,,,,,,,0,,,67,0
71280,note_on,240,0,2,,,,,,,,1,,,47,0
71280,note_on,0,0,2,,,,,,,,1,,,43,100
71280,note_on,120,0,1,,,,,,,,0,,,71,0
71280,note_on,0,0,1,,,,,,,,0,,,74,100
71400,note_on,0,0,1,,,,,,,,0,,,72,100
71400,note_on,120,0,1,,,,,,,,0,,,74,0
71520,note_on,240,0,2,,,,,,,,1,,,43,0
71520,note_on,120,0,1,,,,,,,,0,,,72,0
71520,note_on,0,0,1,,,,,,,,0,,,71,100
71640,note_on,120,0,1,,,,,,,,0,,,71,0
71640,note_on,0,0,1,,,,,,,,0,,,74,100
71640,note_on,120,0,2,,,,,,,,1,,,53,100
71760,note_on,120,0,1,,,,,,,,0,,,74,0
71760,note_on,0,0,1,,,,,,,,0,,,77,100
71760,note_on,0,0,2,,,,,,,,1,,,52,100
71760,note_on,120,0,2,,,,,,,,1,,,53,0
71880,note_on,120,0,1,,,,,,,,0,,,77,0
71880,note_on,0,0,2,,,,,,,,1,,,50,100
71880,note_on,120,0,2,,,,,,,,1,,,52,0
72000,note_on,120,0,1,,,,,,,,0,,,76,100
72000,note_on,0,0,2,,,,,,,,1,,,48,100
72000,note_on,120,0,2,,,,,,,,1,,,50,0
72120,note_on,120,0,2,,,,,,,,1,,,48,0
72120,note_on,0,0,2,,,,,,,,1,,,52,100
72120,note_on,0,0,1,,,,,,,,0,,,72,100
72120,note_on,120,0,1,,,,,,,,0,,,76,0
72240,note_on,120,0,2,,,,,,,,1,,,52,0
72240,note_on,120,0,1,,,,,,,,0,,,72,0
72240,note_on,0,0,2,,,,,,,,1,,,57,100
72240,note_on,0,0,1,,,,,,,,0,,,69,100
72360,note_on,120,0,1,,,,,,,,0,,,69,0
72360,note_on,0,0,2,,,,,,,,1,,,55,100
72360,note_on,120,0,2,,,,,,,,1,,,57,0
72360,note_on,0,0,1,,,,,,,,0,,,71,100
72480,note_on,120,0,1,,,,,,,,0,,,71,0
72480,note_on,120,0,2,,,,,,,,1,,,55,0
72480,note_on,0,0,2,,,,,,,,1,,,54,100
72480,note_on,0,0,1,,,,,,,,0,,,72,100
72600,note_on,0,0,2,,,,,,,,1,,,57,100
72600,note_on,0,0,1,,,,,,,,0,,,69,100
72600,note_on,120,0,1,,,,,,,,0,,,72,0
72600,note_on,120,0,2,,,,,,,,1,,,54,0
72720,note_on,120,0,2,,,,,,,,1,,,57,0
72720,note_on,0,0,2,,,,,,,,1,,,60,100
72720,note_on,120,0,1,,,,,,,,0,,,69,0
72720,note_on,0,0,1,,,,,,,,0,,,66,100
72840,note_on,120,0,1,,,,,,,,0,,,66,0
72840,note_on,0,0,2,,,,,,,,1,,,59,100
72840,note_on,0,0,1,,,,,,,,0,,,67,100
72840,note_on,120,0,2,,,,,,,,1,,,60,0
72960,note_on,120,0,2,,,,,,,,1,,,59,0
72960,note_on,0,0,2,,,,,,,,1,,,57,100
72960,note_on,0,0,1,,,,,,,,0,,,69,100
72960,note_on,120,0,1,,,,,,,,0,,,67,0
73080,note_on,120,0,2,,,,,,,,1,,,57,0
73080,note_on,0,0,2,,,,,,,,1,,,60,100
73080,note_on,120,0,1,,,,,,,,0,,,69,0
73080,note_on,0,0,1,,,,,,,,0,,,66,100
73200,note_on,120,0,2,,,,,,,,1,,,60,0
73200,note_on,0,0,1,,,,,,,,0,,,63,100
73200,note_on,120,0,1,,,,,,,,0,,,66,0
73200,note_on,0,0,2,,,,,,,,1,,,63,100
73320,note_on,120,0,2,,,,,,,,1,,,63,0
73320,note_on,0,0,1,,,,,,,,0,,,64,100
73320,note_on,0,0,2,,,,,,,,1,,,61,100
73320,note_on,120,0,1,,,,,,,,0,,,63,0
73440,note_on,0,0,1,,,,,,,,0,,,66,100
73440,note_on,120,0,1,,,,,,,,0,,,64,0
73440,note_on,120,0,2,,,,,,,,1,,,61,0
73440,note_on,0,0,2,,,,,,,,1,,,59,100
73560,note_on,120,0,1,,,,,,,,0,,,66,0
73560,note_on,0,0,1,,,,,,,,0,,,63,100
73560,note_on,120,0,2,,,,,,,,1,,,59,0
73560,note_on,0,0,2,,,,,,,,1,,,63,100
73680,note_on,0,0,1,,,,,,,,0,,,59,100
73680,note_on,120,0,1,,,,,,,,0,,,63,0
73680,note_on,0,0,2,,,,,,,,1,,,66,100
73680,note_on,120,0,2,,,,,,,,1,,,63,0
73800,note_on,0,0,1,,,,,,,,0,,,61,100
73800,note_on,120,0,1,,,,,,,,0,,,59,0
73800,note_on,120,0,2,,,,,,,,1,,,66,0
73800,note_on,0,0,2,,,,,,,,1,,,64,100
73920,note_on,120,0,1,,,,,,,,0,,,61,0
73920,note_on,0,0,2,,,,,,,,1,,,63,100
73920,note_on,120,0,2,,,,,,,,1,,,64,0
73920,note_on,0,0,1,,,,,,,,0,,,63,100
74040,note_on,0,0,2,,,,,,,,1,,,66,100
74040,note_on,120,0,2,,,,,,,,1,,,63,0
74040,note_on,0,0,1,,,,,,,,0,,,59,100
74040,note_on,120,0,1,,,,,,,,0,,,63,0
74160,note_on,120,0,1,,,,,,,,0,,,59,0
74160,note_on,120,0,2,,,,,,,,1,,,66,0
74160,note_on,0,0,2,,,,,,,,1,,,69,100
74160,note_on,0,0,1,,,,,,,,0,,,54,100
74280,note_on,120,0,1,,,,,,,,0,,,54,0
74280,note_on,0,0,2,,,,,,,,1,,,67,100
74280,note_on,0,0,1,,,,,,,,0,,,55,100
74280,note_on,120,0,2,,,,,,,,1,,,69,0
74400,note_on,0,0,2,,,,,,,,1,,,66,100
74400,note_on,120,0,1,,,,,,,,0,,,55,0
74400,note_on,0,0,1,,,,,,,,0,,,57,100
74400,note_on,120,0,2,,,,,,,,1,,,67,0
74520,note_on,120,0,1,,,,,,,,0,,,57,0
74520,note_on,0,0,1,,,,,,,,0,,,54,100
74520,note_on,120,0,2,,,,,,,,1,,,66,0
74520,note_on,0,0,2,,,,,,,,1,,,69,100
74640,note_on,120,0,1,,,,,,,,0,,,54,0
74640,note_on,0,0,2,,,,,,,,1,,,72,100
74640,note_on,120,0,2,,,,,,,,1,,,69,0
74640,note_on,0,0,1,,,,,,,,0,,,51,100
74760,note_on,0,0,2,,,,,,,,1,,,69,100
74760,note_on,120,0,2,,,,,,,,1,,,72,0
74760,note_on,0,0,1,,,,,,,,0,,,54,100
74760,note_on,120,0,1,,,,,,,,0,,,51,0
74880,note_on,120,0,1,,,,,,,,0,,,54,0
74880,note_on,0,0,2,,,,,,,,1,,,71,100
74880,note_on,120,0,2,,,,,,,,1,,,69,0
74880,note_on,0,0,1,,,,,,,,0,,,55,100
75000,note_on,120,0,2,,,,,,,,1,,,71,0
75000,note_on,0,0,2,,,,,,,,1,,,67,100
75000,note_on,120,0,1,,,,,,,,0,,,55,0
75000,note_on,0,0,1,,,,,,,,0,,,59,100
75120,note_on,0,0,2,,,,,,,,1,,,64,100
75120,note_on,120,0,2,,,,,,,,1,,,67,0
75120,note_on,0,0,1,,,,,,,,0,,,64,100
75120,note_on,120,0,1,,,,,,,,0,,,59,0
75240,note_on,120,0,1,,,,,,,,0,,,64,0
75240,note_on,0,0,1,,,,,,,,0,,,63,100
75240,note_on,0,0,2,,,,,,,,1,,,66,100
75240,note_on,120,0,2,,,,,,,,1,,,64,0
75360,note_on,120,0,2,,,,,,,,1,,,66,0
75360,note_on,120,0,1,,,,,,,,0,,,63,0
75360,note_on,0,0,1,,,,,,,,0,,,64,100
75360,note_on,0,0,2,,,,,,,,1,,,67,100
75480,note_on,0,0,2,,,,,,,,1,,,64,100
75480,note_on,120,0,2,,,,,,,,1,,,67,0
75480,note_on,120,0,1,,,,,,,,0,,,64,0
75480,note_on,0,0,1,,,,,,,,0,,,67,100
75600,note_on,120,0,2,,,,,,,,1,,,64,0
75600,note_on,0,0,2,,,,,,,,1,,,59,100
75600,note_on,120,0,1,,,,,,,,0,,,67,0
75600,note_on,0,0,1,,,,,,,,0,,,71,100
75720,note_on,0,0,2,,,,,,,,1,,,63,100
75720,note_on,120,0,2,,,,,,,,1,,,59,0
75720,note_on,0,0,1,,,,,,,,0,,,69,100
75720,note_on,120,0,1,,,,,,,,0,,,71,0
75840,note_on,120,0,2,,,,,,,,1,,,63,0
75840,note_on,120,0,1,,,,,,,,0,,,69,0
75840,note_on,0,0,2,,,,,,,,1,,,64,100
75840,note_on,0,0,1,,,,,,,,0,,,67,100
75960,note_on,120,0,1,,,,,,,,0,,,67,0
75960,note_on,0,0,1,,,,,,,,0,,,71,100
75960,note_on,120,0,2,,,,,,,,1,,,64,0
75960,note_on,0,0,2,,,,,,,,1,,,59,100
76080,note_on,120,0,1,,,,,,,,0,,,71,0
76080,note_on,0,0,1,,,,,,,,0,,,76,100
76080,note_on,120,0,2,,,,,,,,1,,,59,0
76080,note_on,0,0,2,,,,,,,,1,,,55,100
76200,note_on,120,0,1,,,,,,,,0,,,76,0
76200,note_on,120,0,2,,,,,,,,1,,,55,0
76200,note_on,0,0,2,,,,,,,,1,,,59,100
76320,note_on,120,0,2,,,,,,,,1,,,59,0
76320,note_on,120,0,1,,,,,,,,0,,,64,100
76320,note_on,0,0,2,,,,,,,,1,,,60,100
76440,note_on,0,0,1,,,,,,,,0,,,69,100
76440,note_on,120,0,1,,,,,,,,0,,,64,0
76440,note_on,120,0,2,,,,,,,,1,,,60,0
76440,note_on,0,0,2,,,,,,,,1,,,57,100
76560,note_on,120,0,2,,,,,,,,1,,,57,0
76560,note_on,0,0,2,,,,,,,,1,,,52,100
76560,note_on,120,0,1,,,,,,,,0,,,69,0
76560,note_on,0,0,1,,,,,,,,0,,,72,100
76680,note_on,0,0,2,,,,,,,,1,,,56,100
76680,note_on,120,0,2,,,,,,,,1,,,52,0
76680,note_on,120,0,1,,,,,,,,0,,,72,0
76680,note_on,0,0,1,,,,,,,,0,,,71,100
76800,note_on,0,0,2,,,,,,,,1,,,57,100
76800,note_on,120,0,2,,,,,,,,1,,,56,0
76800,note_on,120,0,1,,,,,,,,0,,,71,0
76800,note_on,0,0,1,,,,,,,,0,,,69,100
76920,note_on,0,0,2,,,,,,,,1,,,52,100
76920,note_on,120,0,2,,,,,,,,1,,,57,0
76920,note_on,120,0,1,,,,,,,,0,,,69,0
76920,note_on,0,0,1,,,,,,,,0,,,72,100
77040,note_on,0,0,1,,,,,,,,0,,,76,100
77040,note_on,120,0,1,,,,,,,,0,,,72,0
77040,note_on,120,0,2,,,,,,,,1,,,52,0
77040,note_on,0,0,2,,,,,,,,1,,,48,100
77160,note_on,0,0,2,,,,,,,,1,,,50,100
77160,note_on,120,0,2,,,,,,,,1,,,48,0
77160,note_on,120,0,1,,,,,,,,0,,,76,0
77160,note_on,0,0,1,,,,,,,,0,,,74,100
77280,note_on,0,0,2,,,,,,,,1,,,52,100
77280,note_on,120,0,2,,,,,,,,1,,,50,0
77280,note_on,120,0,1,,,,,,,,0,,,74,0
77280,note_on,0,0,1,,,,,,,,0,,,72,100
77400,note_on,0,0,1,,,,,,,,0,,,76,100
77400,note_on,120,0,1,,,,,,,,0,,,72,0
77400,note_on,120,0,2,,,,,,,,1,,,52,0
77400,note_on,0,0,2,,,,,,,,1,,,48,100
77520,note_on,0,0,1,,,,,,,,0,,,81,100
77520,note_on,120,0,2,,,,,,,,1,,,48,0
77520,note_on,0,0,2,,,,,,,,1,,,45,100
77520,note_on,120,0,1,,,,,,,,0,,,76,0
77640,note_on,120,0,1,,,,,,,,0,,,81,0
77640,note_on,120,0,2,,,,,,,,1,,,45,0
77640,note_on,0,0,2,,,,,,,,1,,,48,100
77760,note_on,120,0,2,,,,,,,,1,,,48,0
77760,note_on,0,0,2,,,,,,,,1,,,39,100
77880,note_on,240,0,1,,,,,,,,0,,,72,100
78000,note_on,240,0,2,,,,,,,,1,,,39,0
78000,note_on,120,0,1,,,,,,,,0,,,72,0
78000,note_on,0,0,2,,,,,,,,1,,,51,100
78000,note_on,0,0,1,,,,,,,,0,,,71,100
78120,note_on,120,0,1,,,,,,,,0,,,71,0
78120,note_on,0,0,1,,,,,,,,0,,,78,100
78240,note_on,120,0,1,,,,,,,,0,,,78,0
78240,note_on,0,0,2,,,,,,,,1,,,52,100
78240,note_on,240,0,2,,,,,,,,1,,,51,0
78240,note_on,0,0,1,,,,,,,,0,,,79,100
78360,note_on,0,0,1,,,,,,,,0,,,75,100
78360,note_on,120,0,1,,,,,,,,0,,,79,0
78480,note_on,120,0,1,,,,,,,,0,,,75,0
78480,note_on,0,0,2,,,,,,,,1,,,48,100
78480,note_on,240,0,2,,,,,,,,1,,,52,0
78480,note_on,0,0,1,,,,,,,,0,,,76,100
78600,note_on,0,0,1,,,,,,,,0,,,67,100
78600,note_on,120,0,1,,,,,,,,0,,,76,0
78720,note_on,120,0,1,,,,,,,,0,,,67,0
78720,note_on,0,0,2,,,,,,,,1,,,45,100
78720,note_on,0,0,1,,,,,,,,0,,,66,100
78720,note_on,240,0,2,,,,,,,,1,,,48,0
78840,note_on,120,0,1,,,,,,,,0,,,66,0
78840,note_on,0,0,1,,,,,,,,0,,,76,100
78960,note_on,120,0,1,,,,,,,,0,,,76,0
78960,note_on,0,0,1,,,,,,,,0,,,75,100
78960,note_on,0,0,2,,,,,,,,1,,,47,100
78960,note_on,240,0,2,,,,,,,,1,,,45,0
79080,note_on,0,0,1,,,,,,,,0,,,81,100
79080,note_on,120,0,1,,,,,,,,0,,,75,0
79200,note_on,0,0,1,,,,,,,,0,,,81,100
79200,note_on,0,0,2,,,,,,,,1,,,40,100
79200,note_on,240,0,2,,,,,,,,1,,,47,0
79200,note_on,120,0,1,,,,,,,,0,,,81,0
79230,note_on,30,0,1,,,,,,,,0,,,81,0
79230,note_on,0,0,1,,,,,,,,0,,,79,100
79260,note_on,30,0,1,,,,,,,,0,,,79,0
79260,note_on,0,0,1,,,,,,,,0,,,81,100
79290,note_on,30,0,1,,,,,,,,0,,,81,0
79290,note_on,0,0,1,,,,,,,,0,,,79,100
79320,note_on,30,0,1,,,,,,,,0,,,79,0
79320,note_on,0,0,1,,,,,,,,0,,,78,100
79440,note_on,0,0,1,,,,,,,,0,,,76,100
79440,note_on,120,0,1,,,,,,,,0,,,78,0
79440,note_on,240,0,2,,,,,,,,1,,,40,0
79440,note_on,0,0,2,,,,,,,,1,,,43,100
79680,note_on,240,0,2,,,,,,,,1,,,43,0
79680,note_on,0,0,2,,,,,,,,1,,,47,100
79680,note_on,240,0,1,,,,,,,,0,,,76,0
79800,note_on,120,0,1,,,,,,,,0,,,69,100
79920,note_on,0,0,2,,,,,,,,1,,,52,100
79920,note_on,120,0,1,,,,,,,,0,,,69,0
79920,note_on,240,0,2,,,,,,,,1,,,47,0
79920,note_on,0,0,1,,,,,,,,0,,,67,100
80040,note_on,0,0,1,,,,,,,,0,,,66,100
80040,note_on,120,0,1,,,,,,,,0,,,67,0
80160,note_on,240,0,2,,,,,,,,1,,,52,0
80160,note_on,0,0,1,,,,,,,,0,,,66,100
80160,note_on,120,0,1,,,,,,,,0,,,66,0
80280,note_on,120,0,2,,,,,,,,1,,,50,100
80400,note_on,0,0,2,,,,,,,,1,,,48,100
80400,note_on,120,0,2,,,,,,,,1,,,50,0
80400,note_on,240,0,1,,,,,,,,0,,,66,0
80400,note_on,0,0,1,,,,,,,,0,,,64,100
80520,note_on,120,0,2,,,,,,,,1,,,48,0
80520,note_on,0,0,2,,,,,,,,1,,,47,100
80640,note_on,120,0,2,,,,,,,,1,,,47,0
80640,note_on,0,0,2,,,,,,,,1,,,48,100
80760,note_on,0,0,2,,,,,,,,1,,,52,100
80760,note_on,120,0,2,,,,,,,,1,,,48,0
80880,note_on,480,0,1,,,,,,,,0,,,64,0
80880,note_on,0,0,2,,,,,,,,1,,,55,100
80880,note_on,120,0,2,,,,,,,,1,,,52,0
80880,note_on,0,0,1,,,,,,,,0,,,76,100
81000,note_on,0,0,2,,,,,,,,1,,,53,100
81000,note_on,120,0,1,,,,,,,,0,,,76,0
81000,note_on,120,0,2,,,,,,,,1,,,55,0
81000,note_on,0,0,1,,,,,,,,0,,,74,100
81120,note_on,120,0,1,,,,,,,,0,,,74,0
81120,note_on,0,0,1,,,,,,,,0,,,72,100
81120,note_on,0,0,2,,,,,,,,1,,,52,100
81120,note_on,120,0,2,,,,,,,,1,,,53,0
81240,note_on,0,0,2,,,,,,,,1,,,55,100
81240,note_on,120,0,2,,,,,,,,1,,,52,0
81240,note_on,0,0,1,,,,,,,,0,,,71,100
81240,note_on,120,0,1,,,,,,,,0,,,72,0
81360,note_on,0,0,1,,,,,,,,0,,,69,100
81360,note_on,120,0,1,,,,,,,,0,,,71,0
81360,note_on,0,0,2,,,,,,,,1,,,60,100
81360,note_on,120,0,2,,,,,,,,1,,,55,0
81480,note_on,0,0,2,,,,,,,,1,,,59,100
81480,note_on,120,0,2,,,,,,,,1,,,60,0
81480,note_on,120,0,1,,,,,,,,0,,,69,0
81480,note_on,0,0,1,,,,,,,,0,,,67,100
81600,note_on,120,0,2,,,,,,,,1,,,59,0
81600,note_on,120,0,1,,,,,,,,0,,,67,0
81600,note_on,0,0,2,,,,,,,,1,,,58,100
81600,note_on,0,0,1,,,,,,,,0,,,66,100
81720,note_on,0,0,2,,,,,,,,1,,,61,100
81720,note_on,0,0,1,,,,,,,,0,,,70,100
81720,note_on,120,0,1,,,,,,,,0,,,66,0
81720,note_on,120,0,2,,,,,,,,1,,,58,0
81840,note_on,120,0,2,,,,,,,,1,,,61,0
81840,note_on,0,0,2,,,,,,,,1,,,66,100
81840,note_on,0,0,1,,,,,,,,0,,,73,100
81840,note_on,120,0,1,,,,,,,,0,,,70,0
81960,note_on,120,0,2,,,,,,,,1,,,66,0
81960,note_on,0,0,1,,,,,,,,0,,,76,100
81960,note_on,120,0,1,,,,,,,,0,,,73,0
82080,note_on,120,0,1,,,,,,,,0,,,76,0
82080,note_on,0,0,1,,,,,,,,0,,,74,100
82080,note_on,120,0,2,,,,,,,,1,,,47,100
82200,note_on,120,0,2,,,,,,,,1,,,47,0
82200,note_on,0,0,2,,,,,,,,1,,,50,100
82200,note_on,0,0,1,,,,,,,,0,,,66,100
82200,note_on,120,0,1,,,,,,,,0,,,74,0
82320,note_on,120,0,2,,,,,,,,1,,,50,0
82320,note_on,0,0,2,,,,,,,,1,,,54,100
82320,note_on,0,0,1,,,,,,,,0,,,74,100
82320,note_on,120,0,1,,,,,,,,0,,,66,0
82440,note_on,0,0,2,,,,,,,,1,,,52,100
82440,note_on,120,0,2,,,,,,,,1,,,54,0
82440,note_on,0,0,1,,,,,,,,0,,,72,100
82440,note_on,120,0,1,,,,,,,,0,,,74,0
82560,note_on,120,0,2,,,,,,,,1,,,52,0
82560,note_on,120,0,1,,,,,,,,0,,,72,0
82560,note_on,0,0,1,,,,,,,,0,,,71,100
82560,note_on,0,0,2,,,,,,,,1,,,50,100
82680,note_on,120,0,2,,,,,,,,1,,,50,0
82680,note_on,0,0,2,,,,,,,,1,,,54,100
82680,note_on,120,0,1,,,,,,,,0,,,71,0
82680,note_on,0,0,1,,,,,,,,0,,,69,100
82800,note_on,120,0,1,,,,,,,,0,,,69,0
82800,note_on,0,0,1,,,,,,,,0,,,68,100
82800,note_on,0,0,2,,,,,,,,1,,,59,100
82800,note_on,120,0,2,,,,,,,,1,,,54,0
82920,note_on,0,0,1,,,,,,,,0,,,66,100
82920,note_on,120,0,1,,,,,,,,0,,,68,0
82920,note_on,0,0,2,,,,,,,,1,,,57,100
82920,note_on,120,0,2,,,,,,,,1,,,59,0
83040,note_on,0,0,2,,,,,,,,1,,,56,100
83040,note_on,0,0,1,,,,,,,,0,,,64,100
83040,note_on,120,0,1,,,,,,,,0,,,66,0
83040,note_on,120,0,2,,,,,,,,1,,,57,0
83160,note_on,120,0,2,,,,,,,,1,,,56,0
83160,note_on,0,0,1,,,,,,,,0,,,68,100
83160,note_on,120,0,1,,,,,,,,0,,,64,0
83160,note_on,0,0,2,,,,,,,,1,,,59,100
83280,note_on,0,0,1,,,,,,,,0,,,71,100
83280,note_on,120,0,2,,,,,,,,1,,,59,0
83280,note_on,120,0,1,,,,,,,,0,,,68,0
83280,note_on,0,0,2,,,,,,,,1,,,64,100
83400,note_on,120,0,1,,,,,,,,0,,,71,0
83400,note_on,120,0,2,,,,,,,,1,,,64,0
83400,note_on,0,0,1,,,,,,,,0,,,74,100
83520,note_on,0,0,1,,,,,,,,0,,,72,100
83520,note_on,120,0,1,,,,,,,,0,,,74,0
83520,note_on,120,0,2,,,,,,,,1,,,45,100
83640,note_on,120,0,1,,,,,,,,0,,,72,0
83640,note_on,0,0,1,,,,,,,,0,,,64,100
83640,note_on,0,0,2,,,,,,,,1,,,48,100
83640,note_on,120,0,2,,,,,,,,1,,,45,0
83760,note_on,0,0,2,,,,,,,,1,,,52,100
83760,note_on,120,0,1,,,,,,,,0,,,64,0
83760,note_on,0,0,1,,,,,,,,0,,,72,100
83760,note_on,120,0,2,,,,,,,,1,,,48,0
83880,note_on,120,0,2,,,,,,,,1,,,52,0
83880,note_on,0,0,2,,,,,,,,1,,,50,100
83880,note_on,0,0,1,,,,,,,,0,,,71,100
83880,note_on,120,0,1,,,,,,,,0,,,72,0
84000,note_on,120,0,2,,,,,,,,1,,,50,0
84000,note_on,0,0,2,,,,,,,,1,,,48,100
84000,note_on,120,0,1,,,,,,,,0,,,71,0
84000,note_on,0,0,1,,,,,,,,0,,,69,100
84120,note_on,120,0,2,,,,,,,,1,,,48,0
84120,note_on,0,0,2,,,,,,,,1,,,45,100
84120,note_on,0,0,1,,,,,,,,0,,,72,100
84120,note_on,120,0,1,,,,,,,,0,,,69,0
84240,note_on,120,0,2,,,,,,,,1,,,45,0
84240,note_on,0,0,2,,,,,,,,1,,,48,100
84240,note_on,120,0,1,,,,,,,,0,,,72,0
84240,note_on,0,0,1,,,,,,,,0,,,76,100
84360,note_on,120,0,2,,,,,,,,1,,,48,0
84360,note_on,0,0,2,,,,,,,,1,,,52,100
84360,note_on,0,0,1,,,,,,,,0,,,74,100
84360,note_on,120,0,1,,,,,,,,0,,,76,0
84480,note_on,0,0,1,,,,,,,,0,,,72,100
84480,note_on,120,0,1,,,,,,,,0,,,74,0
84480,note_on,120,0,2,,,,,,,,1,,,52,0
84480,note_on,0,0,2,,,,,,,,1,,,57,100
84600,note_on,0,0,1,,,,,,,,0,,,76,100
84600,note_on,120,0,1,,,,,,,,0,,,72,0
84600,note_on,120,0,2,,,,,,,,1,,,57,0
84600,note_on,0,0,2,,,,,,,,1,,,60,100
84720,note_on,0,0,1,,,,,,,,0,,,81,100
84720,note_on,120,0,1,,,,,,,,0,,,76,0
84720,note_on,120,0,2,,,,,,,,1,,,60,0
84720,note_on,0,0,2,,,,,,,,1,,,54,100
84840,note_on,0,0,1,,,,,,,,0,,,79,100
84840,note_on,0,0,2,,,,,,,,1,,,55,100
84840,note_on,120,0,1,,,,,,,,0,,,81,0
84840,note_on,120,0,2,,,,,,,,1,,,54,0
84960,note_on,0,0,2,,,,,,,,1,,,57,100
84960,note_on,120,0,2,,,,,,,,1,,,55,0
84960,note_on,120,0,1,,,,,,,,0,,,79,0
84960,note_on,0,0,1,,,,,,,,0,,,78,100
85080,note_on,0,0,1,,,,,,,,0,,,81,100
85080,note_on,120,0,1,,,,,,,,0,,,78,0
85080,note_on,120,0,2,,,,,,,,1,,,57,0
85080,note_on,0,0,2,,,,,,,,1,,,54,100
85200,note_on,0,0,1,,,,,,,,0,,,84,100
85200,note_on,120,0,1,,,,,,,,0,,,81,0
85200,note_on,120,0,2,,,,,,,,1,,,54,0
85200,note_on,0,0,2,,,,,,,,1,,,50,100
85320,note_on,120,0,1,,,,,,,,0,,,84,0
85320,note_on,120,0,2,,,,,,,,1,,,50,0
85320,note_on,0,0,2,,,,,,,,1,,,52,100
85320,note_on,0,0,1,,,,,,,,0,,,83,100
85440,note_on,120,0,2,,,,,,,,1,,,52,0
85440,note_on,120,0,1,,,,,,,,0,,,83,0
85440,note_on,0,0,1,,,,,,,,0,,,81,100
85440,note_on,0,0,2,,,,,,,,1,,,54,100
85560,note_on,120,0,1,,,,,,,,0,,,81,0
85560,note_on,0,0,2,,,,,,,,1,,,50,100
85560,note_on,0,0,1,,,,,,,,0,,,79,100
85560,note_on,120,0,2,,,,,,,,1,,,54,0
85680,note_on,120,0,2,,,,,,,,1,,,50,0
85680,note_on,0,0,2,,,,,,,,1,,,45,100
85680,note_on,120,0,1,,,,,,,,0,,,79,0
85680,note_on,0,0,1,,,,,,,,0,,,78,100
85800,note_on,120,0,1,,,,,,,,0,,,78,0
85800,note_on,0,0,1,,,,,,,,0,,,76,100
85800,note_on,0,0,2,,,,,,,,1,,,47,100
85800,note_on,120,0,2,,,,,,,,1,,,45,0
85920,note_on,120,0,2,,,,,,,,1,,,47,0
85920,note_on,0,0,1,,,,,,,,0,,,74,100
85920,note_on,0,0,2,,,,,,,,1,,,48,100
85920,note_on,120,0,1,,,,,,,,0,,,76,0
86040,note_on,0,0,1,,,,,,,,0,,,78,100
86040,note_on,0,0,2,,,,,,,,1,,,45,100
86040,note_on,120,0,2,,,,,,,,1,,,48,0
86040,note_on,120,0,1,,,,,,,,0,,,74,0
86160,note_on,120,0,1,,,,,,,,0,,,78,0
86160,note_on,0,0,1,,,,,,,,0,,,81,100
86160,note_on,0,0,2,,,,,,,,1,,,42,100
86160,note_on,120,0,2,,,,,,,,1,,,45,0
86280,note_on,120,0,1,,,,,,,,0,,,81,0
86280,note_on,0,0,2,,,,,,,,1,,,38,100
86280,note_on,120,0,2,,,,,,,,1,,,42,0
86280,note_on,0,0,1,,,,,,,,0,,,84,100
86400,note_on,120,0,1,,,,,,,,0,,,84,0
86400,note_on,0,0,1,,,,,,,,0,,,83,100
86400,note_on,0,0,2,,,,,,,,1,,,43,100
86400,note_on,120,0,2,,,,,,,,1,,,38,0
86520,note_on,0,0,1,,,,,,,,0,,,86,100
86520,note_on,120,0,1,,,,,,,,0,,,83,0
86640,note_on,120,0,1,,,,,,,,0,,,86,0
86640,note_on,0,0,1,,,,,,,,0,,,79,100
86640,note_on,240,0,2,,,,,,,,1,,,43,0
86640,note_on,0,0,2,,,,,,,,1,,,47,100
86760,note_on,120,0,1,,,,,,,,0,,,79,0
86760,note_on,0,0,1,,,,,,,,0,,,81,100
86880,note_on,0,0,2,,,,,,,,1,,,50,100
86880,note_on,120,0,1,,,,,,,,0,,,81,0
86880,note_on,0,0,1,,,,,,,,0,,,83,100
86880,note_on,240,0,2,,,,,,,,1,,,47,0
87000,note_on,120,0,1,,,,,,,,0,,,83,0
87000,note_on,0,0,1,,,,,,,,0,,,79,100
87120,note_on,120,0,1,,,,,,,,0,,,79,0
87120,note_on,240,0,2,,,,,,,,1,,,50,0
87120,note_on,0,0,1,,,,,,,,0,,,74,100
87120,note_on,0,0,2,,,,,,,,1,,,53,100
87240,note_on,0,0,1,,,,,,,,0,,,76,100
87240,note_on,120,0,1,,,,,,,,0,,,74,0
87360,note_on,0,0,1,,,,,,,,0,,,77,100
87360,note_on,120,0,1,,,,,,,,0,,,76,0
87360,note_on,240,0,2,,,,,,,,1,,,53,0
87480,note_on,120,0,2,,,,,,,,1,,,53,100
87480,note_on,120,0,1,,,,,,,,0,,,77,0
87480,note_on,0,0,1,,,,,,,,0,,,74,100
87600,note_on,120,0,2,,,,,,,,1,,,53,0
87600,note_on,0,0,2,,,,,,,,1,,,52,100
87600,note_on,120,0,1,,,,,,,,0,,,74,0
87600,note_on,0,0,1,,,,,,,,0,,,71,100
87720,note_on,0,0,2,,,,,,,,1,,,50,100
87720,note_on,120,0,2,,,,,,,,1,,,52,0
87720,note_on,0,0,1,,,,,,,,0,,,74,100
87720,note_on,120,0,1,,,,,,,,0,,,71,0
87840,note_on,120,0,1,,,,,,,,0,,,74,0
87840,note_on,0,0,2,,,,,,,,1,,,48,100
87840,note_on,120,0,2,,,,,,,,1,,,50,0
87840,note_on,0,0,1,,,,,,,,0,,,76,100
87960,note_on,120,0,1,,,,,,,,0,,,76,0
87960,note_on,0,0,1,,,,,,,,0,,,79,100
88080,note_on,0,0,2,,,,,,,,1,,,52,100
88080,note_on,120,0,1,,,,,,,,0,,,79,0
88080,note_on,0,0,1,,,,,,,,0,,,72,100
88080,note_on,240,0,2,,,,,,,,1,,,48,0
88200,note_on,120,0,1,,,,,,,,0,,,72,0
88200,note_on,0,0,1,,,,,,,,0,,,74,100
88320,note_on,0,0,2,,,,,,,,1,,,55,100
88320,note_on,120,0,1,,,,,,,,0,,,74,0
88320,note_on,0,0,1,,,,,,,,0,,,76,100
88320,note_on,240,0,2,,,,,,,,1,,,52,0
88440,note_on,0,0,1,,,,,,,,0,,,72,100
88440,note_on,120,0,1,,,,,,,,0,,,76,0
88560,note_on,0,0,1,,,,,,,,0,,,69,100
88560,note_on,120,0,1,,,,,,,,0,,,72,0
88560,note_on,240,0,2,,,,,,,,1,,,55,0
88560,note_on,0,0,2,,,,,,,,1,,,60,100
88680,note_on,0,0,1,,,,,,,,0,,,71,100
88680,note_on,120,0,1,,,,,,,,0,,,69,0
88800,note_on,0,0,1,,,,,,,,0,,,72,100
88800,note_on,120,0,1,,,,,,,,0,,,71,0
88800,note_on,240,0,2,,,,,,,,1,,,60,0
88920,note_on,0,0,1,,,,,,,,0,,,69,100
88920,note_on,120,0,1,,,,,,,,0,,,72,0
88920,note_on,120,0,2,,,,,,,,1,,,60,100
89040,note_on,120,0,1,,,,,,,,0,,,69,0
89040,note_on,0,0,1,,,,,,,,0,,,64,100
89040,note_on,120,0,2,,,,,,,,1,,,60,0
89040,note_on,0,0,2,,,,,,,,1,,,59,100
89160,note_on,0,0,2,,,,,,,,1,,,60,100
89160,note_on,120,0,2,,,,,,,,1,,,59,0
89160,note_on,120,0,1,,,,,,,,0,,,64,0
89160,note_on,0,0,1,,,,,,,,0,,,67,100
89280,note_on,120,0,2,,,,,,,,1,,,60,0
89280,note_on,120,0,1,,,,,,,,0,,,67,0
89280,note_on,0,0,1,,,,,,,,0,,,66,100
89280,note_on,0,0,2,,,,,,,,1,,,50,100
89400,note_on,120,0,1,,,,,,,,0,,,66,0
89400,note_on,0,0,1,,,,,,,,0,,,69,100
89520,note_on,120,0,1,,,,,,,,0,,,69,0
89520,note_on,0,0,1,,,,,,,,0,,,62,100
89520,note_on,240,0,2,,,,,,,,1,,,50,0
89520,note_on,0,0,2,,,,,,,,1,,,54,100
89640,note_on,120,0,1,,,,,,,,0,,,62,0
89640,note_on,0,0,1,,,,,,,,0,,,64,100
89760,note_on,240,0,2,,,,,,,,1,,,54,0
89760,note_on,0,0,2,,,,,,,,1,,,57,100
89760,note_on,0,0,1,,,,,,,,0,,,66,100
89760,note_on,120,0,1,,,,,,,,0,,,64,0
89880,note_on,120,0,1,,,,,,,,0,,,66,0
89880,note_on,0,0,1,,,,,,,,0,,,62,100
90000,note_on,0,0,1,,,,,,,,0,,,57,100
90000,note_on,120,0,1,,,,,,,,0,,,62,0
90000,note_on,240,0,2,,,,,,,,1,,,57,0
90000,note_on,0,0,2,,,,,,,,1,,,60,100
90120,note_on,0,0,1,,,,,,,,0,,,59,100
90120,note_on,120,0,1,,,,,,,,0,,,57,0
90240,note_on,240,0,2,,,,,,,,1,,,60,0
90240,note_on,120,0,1,,,,,,,,0,,,59,0
90240,note_on,0,0,1,,,,,,,,0,,,60,100
90360,note_on,120,0,2,,,,,,,,1,,,60,100
90360,note_on,0,0,1,,,,,,,,0,,,57,100
90360,note_on,120,0,1,,,,,,,,0,,,60,0
90480,note_on,120,0,2,,,,,,,,1,,,60,0
90480,note_on,0,0,2,,,,,,,,1,,,62,100
90480,note_on,0,0,1,,,,,,,,0,,,54,100
90480,note_on,120,0,1,,,,,,,,0,,,57,0
90600,note_on,120,0,2,,,,,,,,1,,,62,0
90600,note_on,0,0,2,,,,,,,,1,,,54,100
90600,note_on,0,0,1,,,,,,,,0,,,57,100
90600,note_on,120,0,1,,,,,,,,0,,,54,0
90720,note_on,0,0,1,,,,,,,,0,,,59,100
90720,note_on,120,0,1,,,,,,,,0,,,57,0
90720,note_on,120,0,2,,,,,,,,1,,,54,0
90720,note_on,0,0,2,,,,,,,,1,,,55,100
90840,note_on,120,0,2,,,,,,,,1,,,55,0
90840,note_on,0,0,2,,,,,,,,1,,,59,100
90840,note_on,120,0,1,,,,,,,,0,,,59,0
90840,note_on,0,0,1,,,,,,,,0,,,62,100
90960,note_on,0,0,1,,,,,,,,0,,,55,100
90960,note_on,120,0,1,,,,,,,,0,,,62,0
90960,note_on,120,0,2,,,,,,,,1,,,59,0
90960,note_on,0,0,2,,,,,,,,1,,,62,100
91080,note_on,0,0,1,,,,,,,,0,,,57,100
91080,note_on,120,0,1,,,,,,,,0,,,55,0
91080,note_on,0,0,2,,,,,,,,1,,,66,100
91080,note_on,120,0,2,,,,,,,,1,,,62,0
91200,note_on,0,0,1,,,,,,,,0,,,59,100
91200,note_on,0,0,2,,,,,,,,1,,,67,100
91200,note_on,120,0,2,,,,,,,,1,,,66,0
91200,note_on,120,0,1,,,,,,,,0,,,57,0
91320,note_on,120,0,1,,,,,,,,0,,,59,0
91320,note_on,0,0,1,,,,,,,,0,,,55,100
91320,note_on,120,0,2,,,,,,,,1,,,67,0
91320,note_on,0,0,2,,,,,,,,1,,,66,100
91380,note_on,0,0,2,,,,,,,,1,,,64,100
91380,note_on,60,0,2,,,,,,,,1,,,66,0
91440,note_on,0,0,1,,,,,,,,0,,,59,100
91440,note_on,120,0,1,,,,,,,,0,,,55,0
91440,note_on,60,0,2,,,,,,,,1,,,64,0
91440,note_on,0,0,2,,,,,,,,1,,,62,100
91500,note_on,0,0,2,,,,,,,,1,,,60,100
91500,note_on,60,0,2,,,,,,,,1,,,62,0
91560,note_on,60,0,2,,,,,,,,1,,,60,0
91560,note_on,120,0,1,,,,,,,,0,,,59,0
91560,note_on,0,0,2,,,,,,,,1,,,59,100
91560,note_on,0,0,1,,,,,,,,0,,,62,100
91620,note_on,60,0,2,,,,,,,,1,,,59,0
91620,note_on,0,0,2,,,,,,,,1,,,57,100
91680,note_on,120,0,1,,,,,,,,0,,,62,0
91680,note_on,0,0,1,,,,,,,,0,,,67,100
91680,end_of_track,0,1,0,,,,,,,,,,,,
91680,set_tempo,22560,1,0,,,,,,1250000,,,,,,
91680,note_on,60,0,2,,,,,,,,1,,,57,0
91680,note_on,0,0,2,,,,,,,,1,,,55,100
92160,note_on,480,0,2,,,,,,,,1,,,55,0
92160,end_of_track,0,1,1,,,,,,,,,,,,
92160,end_of_track,0,1,2,,,,,,,,,,,,
92160,note_on,480,0,1,,,,,,,,0,,,67,0
