tick,type,numerator,denominator,clocks_per_click,notated_32nd_notes_per_beat,time,meta,track,key,tempo,port,program,channel,note,velocity
0,time_signature,4,4,24,8,0,1,0,,,,,,,
0,program_change,,,,,0,0,2,,,,6,1,,
0,midi_port,,,,,0,1,3,,,0,,,,
0,track_name,,,,,0,1,3,,,,,,,
0,program_change,,,,,0,0,3,,,,6,2,,
0,track_name,,,,,0,1,2,,,,,,,
0,program_change,,,,,0,0,1,,,,6,0,,
0,track_name,,,,,0,1,1,,,,,,,
0,midi_port,,,,,0,1,1,,,0,,,,
0,midi_port,,,,,0,1,2,,,0,,,,
0,track_name,,,,,0,1,4,,,,,,,
0,key_signature,,,,,0,1,0,C,,,,,,
0,midi_port,,,,,0,1,4,,,0,,,,
0,set_tempo,,,,,0,1,0,,659340,,,,,
0,program_change,,,,,0,0,4,,,,6,3,,
240,note_on,,,,,240,0,3,,,,,2,60,69
480,note_on,,,,,0,0,3,,,,,2,61,69
480,note_on,,,,,240,0,3,,,,,2,60,0
720,note_on,,,,,240,0,3,,,,,2,61,0
720,note_on,,,,,0,0,3,,,,,2,60,69
960,note_on,,,,,240,0,3,,,,,2,60,0
960,note_on,,,,,0,0,3,,,,,2,59,69
1200,note_on,,,,,240,0,3,,,,,2,59,0
1200,note_on,,,,,0,0,3,,,,,2,64,69
1440,note_on,,,,,0,0,3,,,,,2,65,69
1440,note_on,,,,,240,0,3,,,,,2,64,0
1680,note_on,,,,,0,0,3,,,,,2,58,69
1680,note_on,,,,,240,0,3,,,,,2,65,0
1920,note_on,,,,,240,0,3,,,,,2,58,0
1920,note_on,,,,,0,0,3,,,,,2,57,69
2160,note_on,,,,,240,0,3,,,,,2,57,0
2160,note_on,,,,,0,0,3,,,,,2,56,69
2400,note_on,,,,,240,0,3,,,,,2,56,0
2400,note_on,,,,,0,0,3,,,,,2,55,69
2880,note_on,,,,,0,0,3,,,,,2,53,69
2880,note_on,,,,,480,0,3,,,,,2,55,0
3000,note_on,,,,,120,0,3,,,,,2,53,0
3000,note_on,,,,,0,0,3,,,,,2,53,64
3060,note_on,,,,,60,0,3,,,,,2,53,0
3060,note_on,,,,,0,0,3,,,,,2,55,64
3120,note_on,,,,,3120,0,2,,,,,1,65,69
3120,note_on,,,,,0,0,3,,,,,2,56,64
3120,note_on,,,,,60,0,3,,,,,2,55,0
3240,note_on,,,,,0,0,3,,,,,2,56,64
3240,note_on,,,,,120,0,3,,,,,2,56,0
3300,note_on,,,,,60,0,3,,,,,2,56,0
3300,note_on,,,,,0,0,3,,,,,2,58,64
3360,note_on,,,,,60,0,3,,,,,2,58,0
3360,note_on,,,,,0,0,2,,,,,1,68,69
3360,note_on,,,,,240,0,2,,,,,1,65,0
3360,note_on,,,,,0,0,3,,,,,2,60,64
3420,note_on,,,,,0,0,3,,,,,2,47,64
3420,note_on,,,,,60,0,3,,,,,2,60,0
3480,note_on,,,,,0,0,3,,,,,2,48,64
3480,note_on,,,,,60,0,3,,,,,2,47,0
3540,note_on,,,,,0,0,3,,,,,2,50,64
3540,note_on,,,,,60,0,3,,,,,2,48,0
3600,note_on,,,,,0,0,2,,,,,1,67,69
3600,note_on,,,,,0,0,3,,,,,2,51,64
3600,note_on,,,,,60,0,3,,,,,2,50,0
3600,note_on,,,,,240,0,2,,,,,1,68,0
3840,note_on,,,,,240,0,2,,,,,1,67,0
3840,note_on,,,,,240,0,3,,,,,2,51,0
3840,note_on,,,,,0,0,2,,,,,1,66,69
3900,note_on,,,,,60,0,3,,,,,2,48,64
3960,note_on,,,,,0,0,3,,,,,2,50,64
3960,note_on,,,,,60,0,3,,,,,2,48,0
4020,note_on,,,,,0,0,3,,,,,2,51,64
4020,note_on,,,,,60,0,3,,,,,2,50,0
4080,note_on,,,,,60,0,3,,,,,2,51,0
4080,note_on,,,,,0,0,3,,,,,2,53,64
4080,note_on,,,,,240,0,2,,,,,1,66,0
4080,note_on,,,,,0,0,2,,,,,1,71,69
4320,note_on,,,,,240,0,3,,,,,2,53,0
4320,note_on,,,,,240,0,2,,,,,1,71,0
4320,note_on,,,,,0,0,2,,,,,1,72,69
4380,note_on,,,,,60,0,3,,,,,2,51,64
4440,note_on,,,,,60,0,3,,,,,2,51,0
4440,note_on,,,,,0,0,3,,,,,2,53,64
4500,note_on,,,,,0,0,3,,,,,2,55,64
4500,note_on,,,,,60,0,3,,,,,2,53,0
4560,note_on,,,,,0,0,2,,,,,1,65,69
4560,note_on,,,,,240,0,2,,,,,1,72,0
4560,note_on,,,,,0,0,3,,,,,2,56,64
4560,note_on,,,,,60,0,3,,,,,2,55,0
4800,note_on,,,,,240,0,3,,,,,2,56,0
4800,note_on,,,,,0,0,2,,,,,1,64,69
4800,note_on,,,,,240,0,2,,,,,1,65,0
4860,note_on,,,,,60,0,3,,,,,2,55,64
4920,note_on,,,,,60,0,3,,,,,2,55,0
4920,note_on,,,,,0,0,3,,,,,2,57,64
4980,note_on,,,,,0,0,3,,,,,2,59,64
4980,note_on,,,,,60,0,3,,,,,2,57,0
5040,note_on,,,,,0,0,3,,,,,2,60,64
5040,note_on,,,,,60,0,3,,,,,2,59,0
5040,note_on,,,,,240,0,2,,,,,1,64,0
5040,note_on,,,,,0,0,2,,,,,1,63,69
5280,note_on,,,,,240,0,2,,,,,1,63,0
5280,note_on,,,,,0,0,2,,,,,1,62,69
5400,note_on,,,,,0,0,3,,,,,2,59,64
5400,note_on,,,,,360,0,3,,,,,2,60,0
5460,note_on,,,,,0,0,3,,,,,2,57,64
5460,note_on,,,,,60,0,3,,,,,2,59,0
5520,note_on,,,,,60,0,3,,,,,2,57,0
5520,note_on,,,,,0,0,3,,,,,2,60,74
5542,note_on,,,,,0,0,3,,,,,2,59,49
5542,note_on,,,,,22,0,3,,,,,2,60,0
5564,note_on,,,,,22,0,3,,,,,2,60,52
5568,note_on,,,,,4,0,3,,,,,2,59,0
5586,note_on,,,,,18,0,3,,,,,2,59,56
5590,note_on,,,,,4,0,3,,,,,2,60,0
5608,note_on,,,,,18,0,3,,,,,2,60,73
5612,note_on,,,,,4,0,3,,,,,2,59,0
5630,note_on,,,,,0,0,3,,,,,2,59,73
5630,note_on,,,,,18,0,3,,,,,2,60,0
5760,note_on,,,,,480,0,2,,,,,1,62,0
5760,note_on,,,,,0,0,3,,,,,2,60,64
5760,note_on,,,,,130,0,3,,,,,2,59,0
5880,note_on,,,,,120,0,3,,,,,2,60,0
5880,note_on,,,,,0,0,3,,,,,2,55,64
5880,note_on,,,,,120,0,2,,,,,1,60,64
5940,note_on,,,,,0,0,2,,,,,1,62,64
5940,note_on,,,,,60,0,2,,,,,1,60,0
6000,note_on,,,,,0,0,3,,,,,2,60,64
6000,note_on,,,,,6000,0,4,,,,,3,48,64
6000,note_on,,,,,120,0,3,,,,,2,55,0
6000,note_on,,,,,0,0,2,,,,,1,64,64
6000,note_on,,,,,60,0,2,,,,,1,62,0
6120,note_on,,,,,0,0,3,,,,,2,58,64
6120,note_on,,,,,0,0,2,,,,,1,62,64
6120,note_on,,,,,120,0,2,,,,,1,64,0
6120,note_on,,,,,120,0,3,,,,,2,60,0
6180,note_on,,,,,60,0,2,,,,,1,62,0
6180,note_on,,,,,0,0,2,,,,,1,64,64
6240,note_on,,,,,240,0,4,,,,,3,48,0
6240,note_on,,,,,0,0,4,,,,,3,49,64
6240,note_on,,,,,0,0,2,,,,,1,65,64
6240,note_on,,,,,60,0,2,,,,,1,64,0
6240,note_on,,,,,120,0,3,,,,,2,58,0
6240,note_on,,,,,0,0,3,,,,,2,56,64
6300,note_on,,,,,0,0,2,,,,,1,52,64
6300,note_on,,,,,60,0,2,,,,,1,65,0
6360,note_on,,,,,0,0,2,,,,,1,53,64
6360,note_on,,,,,60,0,2,,,,,1,52,0
6360,note_on,,,,,0,0,3,,,,,2,65,64
6360,note_on,,,,,120,0,3,,,,,2,56,0
6420,note_on,,,,,60,0,2,,,,,1,53,0
6420,note_on,,,,,0,0,2,,,,,1,55,64
6480,note_on,,,,,240,0,4,,,,,3,49,0
6480,note_on,,,,,60,0,2,,,,,1,55,0
6480,note_on,,,,,0,0,2,,,,,1,56,64
6480,note_on,,,,,0,0,4,,,,,3,48,64
6600,note_on,,,,,0,0,3,,,,,2,63,64
6600,note_on,,,,,240,0,3,,,,,2,65,0
6720,note_on,,,,,240,0,4,,,,,3,48,0
6720,note_on,,,,,240,0,2,,,,,1,56,0
6720,note_on,,,,,0,0,2,,,,,1,62,64
6720,note_on,,,,,0,0,4,,,,,3,47,64
6720,note_on,,,,,120,0,3,,,,,2,63,0
6780,note_on,,,,,60,0,3,,,,,2,53,64
6840,note_on,,,,,60,0,3,,,,,2,53,0
6840,note_on,,,,,0,0,3,,,,,2,55,64
6840,note_on,,,,,120,0,2,,,,,1,62,0
6840,note_on,,,,,0,0,2,,,,,1,63,64
6900,note_on,,,,,60,0,2,,,,,1,63,0
6900,note_on,,,,,0,0,2,,,,,1,65,64
6900,note_on,,,,,0,0,3,,,,,2,56,64
6900,note_on,,,,,60,0,3,,,,,2,55,0
6960,note_on,,,,,240,0,4,,,,,3,47,0
6960,note_on,,,,,0,0,4,,,,,3,52,64
6960,note_on,,,,,0,0,3,,,,,2,58,64
6960,note_on,,,,,60,0,2,,,,,1,65,0
6960,note_on,,,,,0,0,2,,,,,1,67,64
6960,note_on,,,,,60,0,3,,,,,2,56,0
7020,note_on,,,,,60,0,2,,,,,1,67,0
7020,note_on,,,,,0,0,2,,,,,1,65,64
7080,note_on,,,,,60,0,2,,,,,1,65,0
7080,note_on,,,,,0,0,2,,,,,1,64,64
7140,note_on,,,,,0,0,2,,,,,1,62,64
7140,note_on,,,,,60,0,2,,,,,1,64,0
7200,note_on,,,,,0,0,2,,,,,1,60,64
7200,note_on,,,,,240,0,3,,,,,2,58,0
7200,note_on,,,,,0,0,4,,,,,3,53,64
7200,note_on,,,,,240,0,4,,,,,3,52,0
7200,note_on,,,,,60,0,2,,,,,1,62,0
7260,note_on,,,,,60,0,3,,,,,2,56,64
7320,note_on,,,,,0,0,3,,,,,2,58,64
7320,note_on,,,,,60,0,3,,,,,2,56,0
7380,note_on,,,,,60,0,3,,,,,2,58,0
7380,note_on,,,,,0,0,3,,,,,2,60,64
7440,note_on,,,,,240,0,4,,,,,3,53,0
7440,note_on,,,,,0,0,4,,,,,3,46,64
7440,note_on,,,,,240,0,2,,,,,1,60,0
7440,note_on,,,,,0,0,3,,,,,2,61,64
7440,note_on,,,,,60,0,3,,,,,2,60,0
7500,note_on,,,,,60,0,2,,,,,1,58,64
7560,note_on,,,,,60,0,2,,,,,1,58,0
7560,note_on,,,,,0,0,2,,,,,1,56,64
7620,note_on,,,,,60,0,2,,,,,1,56,0
7620,note_on,,,,,0,0,2,,,,,1,55,64
7680,note_on,,,,,240,0,3,,,,,2,61,0
7680,note_on,,,,,60,0,2,,,,,1,55,0
7680,note_on,,,,,240,0,4,,,,,3,46,0
7680,note_on,,,,,0,0,4,,,,,3,45,64
7680,note_on,,,,,0,0,3,,,,,2,53,64
7740,note_on,,,,,60,0,2,,,,,1,60,64
7800,note_on,,,,,0,0,2,,,,,1,62,64
7800,note_on,,,,,60,0,2,,,,,1,60,0
7860,note_on,,,,,0,0,2,,,,,1,64,64
7860,note_on,,,,,60,0,2,,,,,1,62,0
7920,note_on,,,,,240,0,4,,,,,3,45,0
7920,note_on,,,,,0,0,4,,,,,3,44,64
7920,note_on,,,,,60,0,2,,,,,1,64,0
7920,note_on,,,,,0,0,2,,,,,1,65,64
7920,note_on,,,,,240,0,3,,,,,2,53,0
7980,note_on,,,,,60,0,3,,,,,2,53,64
8040,note_on,,,,,0,0,3,,,,,2,55,64
8040,note_on,,,,,60,0,3,,,,,2,53,0
8100,note_on,,,,,60,0,3,,,,,2,55,0
8100,note_on,,,,,0,0,3,,,,,2,56,64
8160,note_on,,,,,0,0,4,,,,,3,43,64
8160,note_on,,,,,60,0,3,,,,,2,56,0
8160,note_on,,,,,0,0,3,,,,,2,58,64
8160,note_on,,,,,240,0,4,,,,,3,44,0
8280,note_on,,,,,0,0,2,,,,,1,64,64
8280,note_on,,,,,360,0,2,,,,,1,65,0
8340,note_on,,,,,0,0,2,,,,,1,62,64
8340,note_on,,,,,60,0,2,,,,,1,64,0
8400,note_on,,,,,0,0,2,,,,,1,64,64
8400,note_on,,,,,60,0,2,,,,,1,62,0
8520,note_on,,,,,360,0,3,,,,,2,58,0
8520,note_on,,,,,0,0,3,,,,,2,56,64
8580,note_on,,,,,0,0,3,,,,,2,55,64
8580,note_on,,,,,60,0,3,,,,,2,56,0
8640,note_on,,,,,240,0,2,,,,,1,64,0
8640,note_on,,,,,480,0,4,,,,,3,43,0
8640,note_on,,,,,0,0,3,,,,,2,56,64
8640,note_on,,,,,0,0,4,,,,,3,41,64
8640,note_on,,,,,60,0,3,,,,,2,55,0
8640,note_on,,,,,0,0,2,,,,,1,65,64
8760,note_on,,,,,0,0,2,,,,,1,65,64
8760,note_on,,,,,120,0,2,,,,,1,65,0
8820,note_on,,,,,0,0,2,,,,,1,67,64
8820,note_on,,,,,60,0,2,,,,,1,65,0
8880,note_on,,,,,60,0,2,,,,,1,67,0
8880,note_on,,,,,0,0,2,,,,,1,68,64
8880,note_on,,,,,240,0,4,,,,,3,41,0
8880,note_on,,,,,240,0,3,,,,,2,56,0
9000,note_on,,,,,0,0,2,,,,,1,68,64
9000,note_on,,,,,120,0,4,,,,,3,53,64
9000,note_on,,,,,120,0,2,,,,,1,68,0
9060,note_on,,,,,60,0,2,,,,,1,68,0
9060,note_on,,,,,0,0,2,,,,,1,70,64
9060,note_on,,,,,0,0,4,,,,,3,55,64
9060,note_on,,,,,60,0,4,,,,,3,53,0
9120,note_on,,,,,60,0,4,,,,,3,55,0
9120,note_on,,,,,60,0,2,,,,,1,70,0
9120,note_on,,,,,0,0,4,,,,,3,56,64
9120,note_on,,,,,0,0,2,,,,,1,72,64
9240,note_on,,,,,0,0,4,,,,,3,56,64
9240,note_on,,,,,120,0,4,,,,,3,56,0
9240,note_on,,,,,360,0,3,,,,,2,60,64
9300,note_on,,,,,60,0,4,,,,,3,56,0
9300,note_on,,,,,0,0,3,,,,,2,61,64
9300,note_on,,,,,60,0,3,,,,,2,60,0
9300,note_on,,,,,0,0,4,,,,,3,58,64
9360,note_on,,,,,60,0,4,,,,,3,58,0
9360,note_on,,,,,0,0,3,,,,,2,63,64
9360,note_on,,,,,0,0,4,,,,,3,60,64
9360,note_on,,,,,60,0,3,,,,,2,61,0
9420,note_on,,,,,300,0,2,,,,,1,72,0
9420,note_on,,,,,0,0,2,,,,,1,70,64
9480,note_on,,,,,60,0,2,,,,,1,70,0
9480,note_on,,,,,0,0,4,,,,,3,48,64
9480,note_on,,,,,120,0,4,,,,,3,60,0
9480,note_on,,,,,0,0,2,,,,,1,68,64
9540,note_on,,,,,60,0,2,,,,,1,68,0
9540,note_on,,,,,0,0,2,,,,,1,67,64
9600,note_on,,,,,60,0,2,,,,,1,67,0
9600,note_on,,,,,0,0,2,,,,,1,65,64
9600,note_on,,,,,120,0,4,,,,,3,48,0
9600,note_on,,,,,0,0,4,,,,,3,49,64
9720,note_on,,,,,360,0,3,,,,,2,63,0
9720,note_on,,,,,0,0,3,,,,,2,61,64
9780,note_on,,,,,0,0,3,,,,,2,63,64
9780,note_on,,,,,60,0,3,,,,,2,61,0
9840,note_on,,,,,240,0,2,,,,,1,65,0
9840,note_on,,,,,0,0,3,,,,,2,65,64
9840,note_on,,,,,240,0,4,,,,,3,49,0
9840,note_on,,,,,60,0,3,,,,,2,63,0
9960,note_on,,,,,0,0,3,,,,,2,65,64
9960,note_on,,,,,120,0,4,,,,,3,49,64
9960,note_on,,,,,120,0,3,,,,,2,65,0
10020,note_on,,,,,60,0,4,,,,,3,49,0
10020,note_on,,,,,60,0,3,,,,,2,65,0
10020,note_on,,,,,0,0,3,,,,,2,67,64
10020,note_on,,,,,0,0,4,,,,,3,51,64
10080,note_on,,,,,0,0,3,,,,,2,68,64
10080,note_on,,,,,0,0,4,,,,,3,53,64
10080,note_on,,,,,60,0,4,,,,,3,51,0
10080,note_on,,,,,60,0,3,,,,,2,67,0
10200,note_on,,,,,0,0,4,,,,,3,53,64
10200,note_on,,,,,120,0,4,,,,,3,53,0
10200,note_on,,,,,360,0,2,,,,,1,56,64
10260,note_on,,,,,60,0,2,,,,,1,56,0
10260,note_on,,,,,0,0,2,,,,,1,58,64
10260,note_on,,,,,0,0,4,,,,,3,55,64
10260,note_on,,,,,60,0,4,,,,,3,53,0
10320,note_on,,,,,60,0,4,,,,,3,55,0
10320,note_on,,,,,0,0,2,,,,,1,60,64
10320,note_on,,,,,60,0,2,,,,,1,58,0
10320,note_on,,,,,0,0,4,,,,,3,56,64
10380,note_on,,,,,0,0,3,,,,,2,66,64
10380,note_on,,,,,300,0,3,,,,,2,68,0
10440,note_on,,,,,0,0,4,,,,,3,44,64
10440,note_on,,,,,0,0,3,,,,,2,65,64
10440,note_on,,,,,60,0,3,,,,,2,66,0
10440,note_on,,,,,120,0,4,,,,,3,56,0
10500,note_on,,,,,0,0,3,,,,,2,63,64
10500,note_on,,,,,60,0,3,,,,,2,65,0
10560,note_on,,,,,0,0,3,,,,,2,61,64
10560,note_on,,,,,120,0,4,,,,,3,44,0
10560,note_on,,,,,0,0,4,,,,,3,46,64
10560,note_on,,,,,60,0,3,,,,,2,63,0
10680,note_on,,,,,360,0,2,,,,,1,60,0
10680,note_on,,,,,0,0,2,,,,,1,58,64
10740,note_on,,,,,60,0,2,,,,,1,58,0
10740,note_on,,,,,0,0,2,,,,,1,60,64
10800,note_on,,,,,0,0,2,,,,,1,61,64
10800,note_on,,,,,60,0,2,,,,,1,60,0
10800,note_on,,,,,240,0,3,,,,,2,61,0
10800,note_on,,,,,240,0,4,,,,,3,46,0
10920,note_on,,,,,120,0,4,,,,,3,46,64
10920,note_on,,,,,0,0,2,,,,,1,61,64
10920,note_on,,,,,120,0,2,,,,,1,61,0
10980,note_on,,,,,0,0,2,,,,,1,63,64
10980,note_on,,,,,60,0,2,,,,,1,61,0
10980,note_on,,,,,60,0,4,,,,,3,46,0
10980,note_on,,,,,0,0,4,,,,,3,48,64
11040,note_on,,,,,0,0,2,,,,,1,65,64
11040,note_on,,,,,60,0,2,,,,,1,63,0
11040,note_on,,,,,60,0,4,,,,,3,48,0
11040,note_on,,,,,0,0,4,,,,,3,49,64
11160,note_on,,,,,120,0,4,,,,,3,49,0
11160,note_on,,,,,0,0,4,,,,,3,49,64
11160,note_on,,,,,360,0,3,,,,,2,53,64
11220,note_on,,,,,60,0,3,,,,,2,53,0
11220,note_on,,,,,0,0,4,,,,,3,51,64
11220,note_on,,,,,0,0,3,,,,,2,55,64
11220,note_on,,,,,60,0,4,,,,,3,49,0
11280,note_on,,,,,60,0,4,,,,,3,51,0
11280,note_on,,,,,0,0,3,,,,,2,56,64
11280,note_on,,,,,60,0,3,,,,,2,55,0
11280,note_on,,,,,0,0,4,,,,,3,53,64
11400,note_on,,,,,120,0,4,,,,,3,53,0
11400,note_on,,,,,0,0,3,,,,,2,56,64
11400,note_on,,,,,120,0,3,,,,,2,56,0
11400,note_on,,,,,0,0,4,,,,,3,41,64
11460,note_on,,,,,60,0,3,,,,,2,56,0
11460,note_on,,,,,0,0,3,,,,,2,58,64
11520,note_on,,,,,120,0,4,,,,,3,41,0
11520,note_on,,,,,0,0,4,,,,,3,48,64
11520,note_on,,,,,60,0,3,,,,,2,58,0
11520,note_on,,,,,0,0,3,,,,,2,60,64
11520,note_on,,,,,480,0,2,,,,,1,65,0
11640,note_on,,,,,120,0,2,,,,,1,64,64
11640,note_on,,,,,120,0,3,,,,,2,60,0
11640,note_on,,,,,0,0,3,,,,,2,55,64
11640,note_on,,,,,120,0,4,,,,,3,48,0
11640,note_on,,,,,0,0,4,,,,,3,48,64
11700,note_on,,,,,60,0,4,,,,,3,48,0
11700,note_on,,,,,0,0,4,,,,,3,50,64
11700,note_on,,,,,0,0,2,,,,,1,65,64
11700,note_on,,,,,60,0,2,,,,,1,64,0
11760,note_on,,,,,0,0,2,,,,,1,67,64
11760,note_on,,,,,60,0,2,,,,,1,65,0
11760,note_on,,,,,11760,0,1,,,,,0,72,69
11760,note_on,,,,,120,0,3,,,,,2,55,0
11760,note_on,,,,,0,0,4,,,,,3,52,64
11760,note_on,,,,,60,0,4,,,,,3,50,0
11760,note_on,,,,,0,0,3,,,,,2,60,64
11880,note_on,,,,,0,0,3,,,,,2,58,64
11880,note_on,,,,,120,0,3,,,,,2,60,0
11880,note_on,,,,,0,0,4,,,,,3,50,64
11880,note_on,,,,,120,0,4,,,,,3,52,0
11940,note_on,,,,,60,0,4,,,,,3,50,0
11940,note_on,,,,,0,0,4,,,,,3,52,64
12000,note_on,,,,,0,0,4,,,,,3,53,64
12000,note_on,,,,,120,0,3,,,,,2,58,0
12000,note_on,,,,,60,0,4,,,,,3,52,0
12000,note_on,,,,,240,0,1,,,,,0,72,0
12000,note_on,,,,,0,0,3,,,,,2,56,64
12000,note_on,,,,,0,0,1,,,,,0,73,69
12060,note_on,,,,,60,0,4,,,,,3,53,0
12060,note_on,,,,,0,0,4,,,,,3,40,64
12060,note_on,,,,,60,0,3,,,,,2,56,0
12120,note_on,,,,,60,0,4,,,,,3,40,0
12120,note_on,,,,,0,0,4,,,,,3,41,64
12120,note_on,,,,,360,0,2,,,,,1,67,0
12120,note_on,,,,,0,0,2,,,,,1,65,64
12180,note_on,,,,,60,0,4,,,,,3,41,0
12180,note_on,,,,,0,0,4,,,,,3,43,64
12240,note_on,,,,,60,0,4,,,,,3,43,0
12240,note_on,,,,,0,0,4,,,,,3,44,64
12240,note_on,,,,,240,0,1,,,,,0,73,0
12240,note_on,,,,,0,0,1,,,,,0,72,69
12300,note_on,,,,,240,0,3,,,,,2,48,64
12360,note_on,,,,,0,0,3,,,,,2,50,64
12360,note_on,,,,,60,0,3,,,,,2,48,0
12360,note_on,,,,,0,0,2,,,,,1,63,64
12360,note_on,,,,,240,0,2,,,,,1,65,0
12420,note_on,,,,,60,0,3,,,,,2,50,0
12420,note_on,,,,,0,0,3,,,,,2,51,64
12480,note_on,,,,,60,0,3,,,,,2,51,0
12480,note_on,,,,,120,0,2,,,,,1,63,0
12480,note_on,,,,,0,0,3,,,,,2,53,64
12480,note_on,,,,,0,0,2,,,,,1,62,64
12480,note_on,,,,,240,0,1,,,,,0,72,0
12480,note_on,,,,,0,0,1,,,,,0,71,69
12480,note_on,,,,,240,0,4,,,,,3,44,0
12540,note_on,,,,,60,0,4,,,,,3,41,64
12600,note_on,,,,,0,0,4,,,,,3,43,64
12600,note_on,,,,,60,0,4,,,,,3,41,0
12600,note_on,,,,,0,0,2,,,,,1,63,64
12600,note_on,,,,,120,0,2,,,,,1,62,0
12660,note_on,,,,,0,0,2,,,,,1,65,64
12660,note_on,,,,,60,0,2,,,,,1,63,0
12660,note_on,,,,,0,0,4,,,,,3,44,64
12660,note_on,,,,,60,0,4,,,,,3,43,0
12720,note_on,,,,,240,0,3,,,,,2,53,0
12720,note_on,,,,,60,0,2,,,,,1,65,0
12720,note_on,,,,,0,0,4,,,,,3,46,64
12720,note_on,,,,,0,0,1,,,,,0,76,69
12720,note_on,,,,,240,0,1,,,,,0,71,0
12720,note_on,,,,,0,0,2,,,,,1,67,64
12720,note_on,,,,,60,0,4,,,,,3,44,0
12780,note_on,,,,,0,0,2,,,,,1,65,64
12780,note_on,,,,,60,0,2,,,,,1,67,0
12840,note_on,,,,,0,0,2,,,,,1,64,64
12840,note_on,,,,,60,0,2,,,,,1,65,0
12840,note_on,,,,,120,0,3,,,,,2,55,64
12900,note_on,,,,,0,0,2,,,,,1,62,64
12900,note_on,,,,,60,0,2,,,,,1,64,0
12960,note_on,,,,,0,0,1,,,,,0,77,69
12960,note_on,,,,,240,0,1,,,,,0,76,0
12960,note_on,,,,,0,0,2,,,,,1,60,64
12960,note_on,,,,,240,0,4,,,,,3,46,0
12960,note_on,,,,,60,0,2,,,,,1,62,0
12960,note_on,,,,,120,0,3,,,,,2,55,0
12960,note_on,,,,,0,0,3,,,,,2,56,64
13020,note_on,,,,,60,0,4,,,,,3,44,64
13080,note_on,,,,,120,0,2,,,,,1,60,0
13080,note_on,,,,,0,0,4,,,,,3,46,64
13080,note_on,,,,,60,0,4,,,,,3,44,0
13080,note_on,,,,,120,0,3,,,,,2,56,0
13140,note_on,,,,,0,0,4,,,,,3,48,64
13140,note_on,,,,,60,0,4,,,,,3,46,0
13200,note_on,,,,,60,0,4,,,,,3,48,0
13200,note_on,,,,,240,0,1,,,,,0,77,0
13200,note_on,,,,,0,0,4,,,,,3,49,64
13200,note_on,,,,,0,0,1,,,,,0,70,69
13260,note_on,,,,,180,0,3,,,,,2,58,64
13320,note_on,,,,,240,0,2,,,,,1,58,64
13320,note_on,,,,,60,0,3,,,,,2,58,0
13320,note_on,,,,,0,0,3,,,,,2,56,64
13380,note_on,,,,,0,0,3,,,,,2,55,64
13380,note_on,,,,,60,0,3,,,,,2,56,0
13440,note_on,,,,,240,0,1,,,,,0,70,0
13440,note_on,,,,,0,0,1,,,,,0,69,69
13440,note_on,,,,,240,0,4,,,,,3,49,0
13440,note_on,,,,,0,0,2,,,,,1,60,64
13440,note_on,,,,,120,0,2,,,,,1,58,0
13440,note_on,,,,,60,0,3,,,,,2,55,0
13440,note_on,,,,,0,0,3,,,,,2,53,64
13500,note_on,,,,,60,0,4,,,,,3,48,64
13560,note_on,,,,,60,0,4,,,,,3,48,0
13560,note_on,,,,,0,0,4,,,,,3,50,64
13620,note_on,,,,,60,0,4,,,,,3,50,0
13620,note_on,,,,,0,0,4,,,,,3,52,64
13680,note_on,,,,,0,0,1,,,,,0,68,69
13680,note_on,,,,,240,0,1,,,,,0,69,0
13680,note_on,,,,,240,0,3,,,,,2,53,0
13680,note_on,,,,,60,0,4,,,,,3,52,0
13680,note_on,,,,,240,0,2,,,,,1,60,0
13680,note_on,,,,,0,0,4,,,,,3,53,64
13740,note_on,,,,,60,0,3,,,,,2,53,64
13800,note_on,,,,,120,0,2,,,,,1,60,64
13800,note_on,,,,,60,0,3,,,,,2,53,0
13800,note_on,,,,,0,0,3,,,,,2,55,64
13860,note_on,,,,,60,0,3,,,,,2,55,0
13860,note_on,,,,,0,0,3,,,,,2,56,64
13920,note_on,,,,,0,0,3,,,,,2,58,64
13920,note_on,,,,,240,0,1,,,,,0,68,0
13920,note_on,,,,,0,0,1,,,,,0,67,69
13920,note_on,,,,,120,0,2,,,,,1,60,0
13920,note_on,,,,,0,0,2,,,,,1,61,64
13920,note_on,,,,,60,0,3,,,,,2,56,0
14040,note_on,,,,,0,0,4,,,,,3,52,64
14040,note_on,,,,,360,0,4,,,,,3,53,0
14040,note_on,,,,,0,0,2,,,,,1,60,64
14040,note_on,,,,,120,0,2,,,,,1,61,0
14100,note_on,,,,,60,0,2,,,,,1,60,0
14100,note_on,,,,,0,0,4,,,,,3,50,64
14100,note_on,,,,,0,0,2,,,,,1,58,64
14100,note_on,,,,,60,0,4,,,,,3,52,0
14160,note_on,,,,,60,0,2,,,,,1,58,0
14160,note_on,,,,,60,0,4,,,,,3,50,0
14160,note_on,,,,,0,0,4,,,,,3,52,64
14160,note_on,,,,,0,0,2,,,,,1,60,64
14280,note_on,,,,,360,0,3,,,,,2,58,0
14280,note_on,,,,,0,0,3,,,,,2,56,64
14340,note_on,,,,,60,0,3,,,,,2,56,0
14340,note_on,,,,,0,0,3,,,,,2,55,64
14400,note_on,,,,,60,0,3,,,,,2,55,0
14400,note_on,,,,,0,0,4,,,,,3,53,64
14400,note_on,,,,,240,0,4,,,,,3,52,0
14400,note_on,,,,,0,0,3,,,,,2,56,64
14520,note_on,,,,,600,0,1,,,,,0,67,0
14520,note_on,,,,,0,0,1,,,,,0,65,64
14580,note_on,,,,,0,0,1,,,,,0,67,64
14580,note_on,,,,,60,0,1,,,,,0,65,0
14640,note_on,,,,,240,0,3,,,,,2,56,0
14640,note_on,,,,,240,0,4,,,,,3,53,0
14640,note_on,,,,,480,0,2,,,,,1,60,0
14640,note_on,,,,,0,0,1,,,,,0,68,64
14640,note_on,,,,,60,0,1,,,,,0,67,0
14760,note_on,,,,,120,0,4,,,,,3,53,64
14820,note_on,,,,,0,0,4,,,,,3,51,64
14820,note_on,,,,,60,0,4,,,,,3,53,0
14880,note_on,,,,,0,0,4,,,,,3,50,64
14880,note_on,,,,,60,0,4,,,,,3,51,0
15000,note_on,,,,,0,0,4,,,,,3,50,64
15000,note_on,,,,,120,0,4,,,,,3,50,0
15000,note_on,,,,,360,0,3,,,,,2,65,64
15060,note_on,,,,,0,0,4,,,,,3,48,64
15060,note_on,,,,,60,0,4,,,,,3,50,0
15060,note_on,,,,,60,0,3,,,,,2,65,0
15060,note_on,,,,,0,0,3,,,,,2,63,64
15120,note_on,,,,,0,0,4,,,,,3,46,64
15120,note_on,,,,,0,0,3,,,,,2,62,64
15120,note_on,,,,,60,0,4,,,,,3,48,0
15120,note_on,,,,,60,0,3,,,,,2,63,0
15240,note_on,,,,,0,0,3,,,,,2,62,64
15240,note_on,,,,,0,0,4,,,,,3,48,64
15240,note_on,,,,,120,0,4,,,,,3,46,0
15240,note_on,,,,,120,0,3,,,,,2,62,0
15300,note_on,,,,,0,0,4,,,,,3,50,64
15300,note_on,,,,,60,0,4,,,,,3,48,0
15300,note_on,,,,,60,0,3,,,,,2,62,0
15300,note_on,,,,,0,0,3,,,,,2,60,64
15360,note_on,,,,,0,0,4,,,,,3,51,64
15360,note_on,,,,,60,0,4,,,,,3,50,0
15360,note_on,,,,,60,0,3,,,,,2,60,0
15360,note_on,,,,,0,0,3,,,,,2,58,64
15480,note_on,,,,,840,0,1,,,,,0,68,0
15480,note_on,,,,,120,0,3,,,,,2,58,0
15480,note_on,,,,,0,0,1,,,,,0,67,64
15480,note_on,,,,,0,0,3,,,,,2,58,64
15540,note_on,,,,,60,0,3,,,,,2,58,0
15540,note_on,,,,,0,0,3,,,,,2,56,64
15540,note_on,,,,,0,0,1,,,,,0,68,64
15540,note_on,,,,,60,0,1,,,,,0,67,0
15600,note_on,,,,,60,0,1,,,,,0,68,0
15600,note_on,,,,,240,0,4,,,,,3,51,0
15600,note_on,,,,,60,0,3,,,,,2,56,0
15600,note_on,,,,,0,0,1,,,,,0,70,64
15600,note_on,,,,,0,0,3,,,,,2,55,64
15720,note_on,,,,,120,0,4,,,,,3,55,64
15780,note_on,,,,,60,0,4,,,,,3,55,0
15780,note_on,,,,,0,0,4,,,,,3,53,64
15840,note_on,,,,,60,0,4,,,,,3,53,0
15840,note_on,,,,,240,0,3,,,,,2,55,0
15840,note_on,,,,,0,0,4,,,,,3,52,64
15960,note_on,,,,,120,0,3,,,,,2,67,64
15960,note_on,,,,,120,0,4,,,,,3,52,0
15960,note_on,,,,,0,0,4,,,,,3,52,64
16020,note_on,,,,,60,0,3,,,,,2,67,0
16020,note_on,,,,,0,0,3,,,,,2,65,64
16020,note_on,,,,,60,0,4,,,,,3,52,0
16020,note_on,,,,,0,0,4,,,,,3,50,64
16080,note_on,,,,,0,0,4,,,,,3,48,64
16080,note_on,,,,,60,0,3,,,,,2,65,0
16080,note_on,,,,,60,0,4,,,,,3,50,0
16080,note_on,,,,,0,0,3,,,,,2,64,64
16200,note_on,,,,,0,0,3,,,,,2,64,64
16200,note_on,,,,,120,0,3,,,,,2,64,0
16200,note_on,,,,,120,0,4,,,,,3,48,0
16200,note_on,,,,,0,0,4,,,,,3,50,64
16260,note_on,,,,,60,0,3,,,,,2,64,0
16260,note_on,,,,,0,0,3,,,,,2,62,64
16260,note_on,,,,,0,0,4,,,,,3,52,64
16260,note_on,,,,,60,0,4,,,,,3,50,0
16320,note_on,,,,,60,0,3,,,,,2,62,0
16320,note_on,,,,,0,0,4,,,,,3,53,64
16320,note_on,,,,,60,0,4,,,,,3,52,0
16320,note_on,,,,,0,0,3,,,,,2,60,64
16380,note_on,,,,,0,0,1,,,,,0,67,64
16380,note_on,,,,,780,0,1,,,,,0,70,0
16440,note_on,,,,,60,0,1,,,,,0,67,0
16440,note_on,,,,,0,0,1,,,,,0,68,64
16440,note_on,,,,,120,0,3,,,,,2,60,0
16440,note_on,,,,,0,0,3,,,,,2,60,64
16500,note_on,,,,,60,0,1,,,,,0,68,0
16500,note_on,,,,,0,0,1,,,,,0,72,64
16500,note_on,,,,,60,0,3,,,,,2,60,0
16500,note_on,,,,,0,0,3,,,,,2,58,64
16560,note_on,,,,,60,0,3,,,,,2,58,0
16560,note_on,,,,,240,0,4,,,,,3,53,0
16560,note_on,,,,,60,0,1,,,,,0,72,0
16560,note_on,,,,,0,0,3,,,,,2,56,64
16560,note_on,,,,,0,0,1,,,,,0,77,64
16680,note_on,,,,,120,0,4,,,,,3,50,64
16740,note_on,,,,,60,0,4,,,,,3,50,0
16740,note_on,,,,,0,0,4,,,,,3,48,64
16800,note_on,,,,,0,0,4,,,,,3,47,64
16800,note_on,,,,,60,0,4,,,,,3,48,0
16800,note_on,,,,,240,0,3,,,,,2,56,0
16920,note_on,,,,,0,0,4,,,,,3,47,64
16920,note_on,,,,,2280,0,2,,,,,1,74,64
16920,note_on,,,,,120,0,4,,,,,3,47,0
16980,note_on,,,,,60,0,4,,,,,3,47,0
16980,note_on,,,,,0,0,4,,,,,3,45,64
16980,note_on,,,,,0,0,2,,,,,1,72,64
16980,note_on,,,,,60,0,2,,,,,1,74,0
17040,note_on,,,,,0,0,2,,,,,1,71,64
17040,note_on,,,,,60,0,4,,,,,3,45,0
17040,note_on,,,,,0,0,4,,,,,3,43,64
17040,note_on,,,,,60,0,2,,,,,1,72,0
17160,note_on,,,,,120,0,2,,,,,1,71,0
17160,note_on,,,,,0,0,4,,,,,3,45,64
17160,note_on,,,,,120,0,4,,,,,3,43,0
17160,note_on,,,,,0,0,2,,,,,1,71,64
17220,note_on,,,,,60,0,4,,,,,3,45,0
17220,note_on,,,,,0,0,2,,,,,1,69,64
17220,note_on,,,,,0,0,4,,,,,3,47,64
17220,note_on,,,,,60,0,2,,,,,1,71,0
17280,note_on,,,,,60,0,4,,,,,3,47,0
17280,note_on,,,,,0,0,4,,,,,3,48,64
17280,note_on,,,,,60,0,2,,,,,1,69,0
17280,note_on,,,,,0,0,2,,,,,1,67,64
17400,note_on,,,,,0,0,1,,,,,0,75,64
17400,note_on,,,,,120,0,2,,,,,1,67,0
17400,note_on,,,,,840,0,1,,,,,0,77,0
17400,note_on,,,,,0,0,2,,,,,1,67,64
17460,note_on,,,,,0,0,2,,,,,1,69,64
17460,note_on,,,,,60,0,2,,,,,1,67,0
17520,note_on,,,,,60,0,2,,,,,1,69,0
17520,note_on,,,,,0,0,2,,,,,1,71,64
17520,note_on,,,,,0,0,1,,,,,0,74,64
17520,note_on,,,,,120,0,1,,,,,0,75,0
17520,note_on,,,,,240,0,4,,,,,3,48,0
17520,note_on,,,,,720,0,3,,,,,2,55,69
17640,note_on,,,,,120,0,1,,,,,0,74,0
17640,note_on,,,,,0,0,1,,,,,0,79,64
17640,note_on,,,,,120,0,2,,,,,1,71,0
17640,note_on,,,,,0,0,2,,,,,1,69,64
17700,note_on,,,,,0,0,2,,,,,1,71,64
17700,note_on,,,,,60,0,2,,,,,1,69,0
17760,note_on,,,,,0,0,3,,,,,2,56,69
17760,note_on,,,,,240,0,3,,,,,2,55,0
17760,note_on,,,,,60,0,2,,,,,1,71,0
17760,note_on,,,,,0,0,2,,,,,1,72,64
17820,note_on,,,,,0,0,1,,,,,0,71,64
17820,note_on,,,,,180,0,1,,,,,0,79,0
17880,note_on,,,,,60,0,1,,,,,0,71,0
17880,note_on,,,,,0,0,1,,,,,0,72,64
17940,note_on,,,,,60,0,1,,,,,0,72,0
17940,note_on,,,,,0,0,1,,,,,0,74,64
18000,note_on,,,,,60,0,1,,,,,0,74,0
18000,note_on,,,,,0,0,1,,,,,0,75,64
18000,note_on,,,,,0,0,3,,,,,2,55,69
18000,note_on,,,,,240,0,3,,,,,2,56,0
18120,note_on,,,,,0,0,2,,,,,1,70,64
18120,note_on,,,,,360,0,2,,,,,1,72,0
18240,note_on,,,,,0,0,2,,,,,1,69,64
18240,note_on,,,,,120,0,2,,,,,1,70,0
18240,note_on,,,,,240,0,3,,,,,2,55,0
18240,note_on,,,,,0,0,3,,,,,2,54,69
18240,note_on,,,,,240,0,1,,,,,0,75,0
18300,note_on,,,,,60,0,1,,,,,0,72,64
18360,note_on,,,,,0,0,2,,,,,1,71,64
18360,note_on,,,,,0,0,1,,,,,0,74,64
18360,note_on,,,,,120,0,2,,,,,1,69,0
18360,note_on,,,,,60,0,1,,,,,0,72,0
18420,note_on,,,,,0,0,1,,,,,0,75,64
18420,note_on,,,,,0,0,2,,,,,1,72,64
18420,note_on,,,,,60,0,2,,,,,1,71,0
18420,note_on,,,,,60,0,1,,,,,0,74,0
18480,note_on,,,,,0,0,1,,,,,0,77,64
18480,note_on,,,,,60,0,1,,,,,0,75,0
18480,note_on,,,,,0,0,2,,,,,1,74,64
18480,note_on,,,,,0,0,3,,,,,2,59,69
18480,note_on,,,,,240,0,3,,,,,2,54,0
18480,note_on,,,,,60,0,2,,,,,1,72,0
18540,note_on,,,,,60,0,2,,,,,1,74,0
18540,note_on,,,,,0,0,2,,,,,1,72,64
18600,note_on,,,,,60,0,2,,,,,1,72,0
18600,note_on,,,,,0,0,2,,,,,1,71,64
18660,note_on,,,,,0,0,2,,,,,1,69,64
18660,note_on,,,,,60,0,2,,,,,1,71,0
18720,note_on,,,,,240,0,3,,,,,2,59,0
18720,note_on,,,,,60,0,2,,,,,1,69,0
18720,note_on,,,,,240,0,1,,,,,0,77,0
18720,note_on,,,,,0,0,3,,,,,2,60,69
18720,note_on,,,,,0,0,2,,,,,1,67,64
18780,note_on,,,,,60,0,1,,,,,0,75,64
18840,note_on,,,,,0,0,1,,,,,0,77,64
18840,note_on,,,,,60,0,1,,,,,0,75,0
18900,note_on,,,,,0,0,1,,,,,0,79,64
18900,note_on,,,,,60,0,1,,,,,0,77,0
18960,note_on,,,,,0,0,3,,,,,2,53,69
18960,note_on,,,,,0,0,1,,,,,0,80,64
18960,note_on,,,,,60,0,1,,,,,0,79,0
18960,note_on,,,,,240,0,3,,,,,2,60,0
18960,note_on,,,,,240,0,2,,,,,1,67,0
19020,note_on,,,,,60,0,2,,,,,1,65,64
19080,note_on,,,,,0,0,2,,,,,1,63,64
19080,note_on,,,,,60,0,2,,,,,1,65,0
19140,note_on,,,,,60,0,2,,,,,1,63,0
19140,note_on,,,,,0,0,2,,,,,1,62,64
19200,note_on,,,,,0,0,2,,,,,1,60,64
19200,note_on,,,,,60,0,2,,,,,1,62,0
19200,note_on,,,,,240,0,1,,,,,0,80,0
19200,note_on,,,,,240,0,3,,,,,2,53,0
19200,note_on,,,,,0,0,3,,,,,2,52,69
19260,note_on,,,,,60,0,1,,,,,0,79,64
19320,note_on,,,,,0,0,1,,,,,0,81,64
19320,note_on,,,,,60,0,1,,,,,0,79,0
19380,note_on,,,,,60,0,1,,,,,0,81,0
19380,note_on,,,,,0,0,1,,,,,0,83,64
19440,note_on,,,,,0,0,3,,,,,2,51,69
19440,note_on,,,,,240,0,3,,,,,2,52,0
19440,note_on,,,,,60,0,1,,,,,0,83,0
19440,note_on,,,,,0,0,1,,,,,0,84,64
19440,note_on,,,,,240,0,2,,,,,1,60,0
19500,note_on,,,,,60,0,2,,,,,1,72,64
19560,note_on,,,,,60,0,2,,,,,1,72,0
19560,note_on,,,,,0,0,2,,,,,1,74,64
19620,note_on,,,,,60,0,2,,,,,1,74,0
19620,note_on,,,,,0,0,2,,,,,1,76,64
19680,note_on,,,,,60,0,2,,,,,1,76,0
19680,note_on,,,,,0,0,3,,,,,2,50,69
19680,note_on,,,,,240,0,3,,,,,2,51,0
19680,note_on,,,,,0,0,2,,,,,1,77,64
19800,note_on,,,,,0,0,1,,,,,0,83,64
19800,note_on,,,,,360,0,1,,,,,0,84,0
19860,note_on,,,,,0,0,1,,,,,0,81,64
19860,note_on,,,,,60,0,1,,,,,0,83,0
19920,note_on,,,,,60,0,1,,,,,0,81,0
19920,note_on,,,,,0,0,1,,,,,0,83,64
20040,note_on,,,,,0,0,2,,,,,1,75,64
20040,note_on,,,,,360,0,2,,,,,1,77,0
20100,note_on,,,,,60,0,2,,,,,1,75,0
20100,note_on,,,,,0,0,2,,,,,1,74,64
20160,note_on,,,,,0,0,3,,,,,2,48,69
20160,note_on,,,,,480,0,3,,,,,2,50,0
20160,note_on,,,,,60,0,2,,,,,1,74,0
20160,note_on,,,,,0,0,2,,,,,1,75,64
20160,note_on,,,,,240,0,1,,,,,0,83,0
20160,note_on,,,,,0,0,1,,,,,0,84,64
20280,note_on,,,,,120,0,1,,,,,0,84,0
20280,note_on,,,,,0,0,1,,,,,0,79,64
20280,note_on,,,,,0,0,2,,,,,1,72,64
20280,note_on,,,,,120,0,2,,,,,1,75,0
20340,note_on,,,,,60,0,2,,,,,1,72,0
20340,note_on,,,,,0,0,2,,,,,1,74,64
20400,note_on,,,,,60,0,2,,,,,1,74,0
20400,note_on,,,,,0,0,2,,,,,1,75,64
20400,note_on,,,,,120,0,1,,,,,0,79,0
20400,note_on,,,,,0,0,1,,,,,0,84,64
20400,note_on,,,,,240,0,3,,,,,2,48,0
20520,note_on,,,,,120,0,3,,,,,2,72,64
20580,note_on,,,,,60,0,3,,,,,2,72,0
20580,note_on,,,,,0,0,3,,,,,2,70,64
20640,note_on,,,,,0,0,3,,,,,2,69,64
20640,note_on,,,,,60,0,3,,,,,2,70,0
20760,note_on,,,,,120,0,3,,,,,2,69,0
20760,note_on,,,,,0,0,3,,,,,2,69,64
20760,note_on,,,,,0,0,1,,,,,0,84,64
20760,note_on,,,,,360,0,1,,,,,0,84,0
20820,note_on,,,,,0,0,3,,,,,2,67,64
20820,note_on,,,,,60,0,3,,,,,2,69,0
20820,note_on,,,,,60,0,1,,,,,0,84,0
20820,note_on,,,,,0,0,1,,,,,0,82,64
20880,note_on,,,,,60,0,3,,,,,2,67,0
20880,note_on,,,,,0,0,3,,,,,2,65,64
20880,note_on,,,,,60,0,1,,,,,0,82,0
20880,note_on,,,,,0,0,1,,,,,0,81,64
21000,note_on,,,,,0,0,3,,,,,2,67,64
21000,note_on,,,,,0,0,1,,,,,0,81,64
21000,note_on,,,,,120,0,3,,,,,2,65,0
21000,note_on,,,,,120,0,1,,,,,0,81,0
21060,note_on,,,,,60,0,1,,,,,0,81,0
21060,note_on,,,,,0,0,1,,,,,0,79,64
21060,note_on,,,,,60,0,3,,,,,2,67,0
21060,note_on,,,,,0,0,3,,,,,2,69,64
21120,note_on,,,,,60,0,3,,,,,2,69,0
21120,note_on,,,,,0,0,3,,,,,2,70,64
21120,note_on,,,,,0,0,1,,,,,0,77,64
21120,note_on,,,,,60,0,1,,,,,0,79,0
21240,note_on,,,,,0,0,3,,,,,2,58,64
21240,note_on,,,,,120,0,3,,,,,2,70,0
21240,note_on,,,,,0,0,1,,,,,0,79,64
21240,note_on,,,,,120,0,1,,,,,0,77,0
21240,note_on,,,,,840,0,2,,,,,1,75,0
21240,note_on,,,,,0,0,2,,,,,1,70,64
21300,note_on,,,,,60,0,1,,,,,0,79,0
21300,note_on,,,,,0,0,1,,,,,0,81,64
21300,note_on,,,,,0,0,2,,,,,1,72,64
21300,note_on,,,,,60,0,2,,,,,1,70,0
21360,note_on,,,,,120,0,3,,,,,2,58,0
21360,note_on,,,,,0,0,2,,,,,1,73,64
21360,note_on,,,,,60,0,1,,,,,0,81,0
21360,note_on,,,,,60,0,2,,,,,1,72,0
21360,note_on,,,,,0,0,1,,,,,0,82,64
21480,note_on,,,,,120,0,3,,,,,2,70,64
21540,note_on,,,,,60,0,3,,,,,2,70,0
21540,note_on,,,,,0,0,3,,,,,2,68,64
21600,note_on,,,,,240,0,1,,,,,0,82,0
21600,note_on,,,,,0,0,3,,,,,2,67,64
21600,note_on,,,,,60,0,3,,,,,2,68,0
21720,note_on,,,,,120,0,3,,,,,2,67,0
21720,note_on,,,,,0,0,3,,,,,2,67,64
21720,note_on,,,,,120,0,1,,,,,0,82,64
21780,note_on,,,,,0,0,3,,,,,2,65,64
21780,note_on,,,,,60,0,1,,,,,0,82,0
21780,note_on,,,,,0,0,1,,,,,0,80,64
21780,note_on,,,,,60,0,3,,,,,2,67,0
21840,note_on,,,,,60,0,3,,,,,2,65,0
21840,note_on,,,,,0,0,3,,,,,2,63,64
21840,note_on,,,,,60,0,1,,,,,0,80,0
21840,note_on,,,,,0,0,1,,,,,0,79,64
21960,note_on,,,,,120,0,3,,,,,2,63,0
21960,note_on,,,,,0,0,1,,,,,0,79,64
21960,note_on,,,,,0,0,3,,,,,2,65,64
21960,note_on,,,,,120,0,1,,,,,0,79,0
22020,note_on,,,,,60,0,1,,,,,0,79,0
22020,note_on,,,,,60,0,3,,,,,2,65,0
22020,note_on,,,,,0,0,1,,,,,0,77,64
22020,note_on,,,,,0,0,3,,,,,2,67,64
22080,note_on,,,,,0,0,3,,,,,2,68,64
22080,note_on,,,,,0,0,1,,,,,0,75,64
22080,note_on,,,,,60,0,3,,,,,2,67,0
22080,note_on,,,,,60,0,1,,,,,0,77,0
22200,note_on,,,,,0,0,2,,,,,1,68,64
22200,note_on,,,,,840,0,2,,,,,1,73,0
22200,note_on,,,,,120,0,3,,,,,2,68,0
22200,note_on,,,,,0,0,3,,,,,2,56,64
22200,note_on,,,,,120,0,1,,,,,0,75,0
22200,note_on,,,,,0,0,1,,,,,0,77,64
22260,note_on,,,,,60,0,2,,,,,1,68,0
22260,note_on,,,,,0,0,2,,,,,1,70,64
22260,note_on,,,,,60,0,1,,,,,0,77,0
22260,note_on,,,,,0,0,1,,,,,0,79,64
22320,note_on,,,,,60,0,1,,,,,0,79,0
22320,note_on,,,,,0,0,2,,,,,1,72,64
22320,note_on,,,,,0,0,1,,,,,0,80,64
22320,note_on,,,,,60,0,2,,,,,1,70,0
22320,note_on,,,,,120,0,3,,,,,2,56,0
22440,note_on,,,,,120,0,3,,,,,2,68,64
22500,note_on,,,,,0,0,3,,,,,2,67,64
22500,note_on,,,,,60,0,3,,,,,2,68,0
22560,note_on,,,,,240,0,1,,,,,0,80,0
22560,note_on,,,,,60,0,3,,,,,2,67,0
22560,note_on,,,,,0,0,3,,,,,2,65,64
22680,note_on,,,,,120,0,1,,,,,0,80,64
22680,note_on,,,,,0,0,3,,,,,2,65,64
22680,note_on,,,,,120,0,3,,,,,2,65,0
22740,note_on,,,,,60,0,1,,,,,0,80,0
22740,note_on,,,,,0,0,3,,,,,2,63,64
22740,note_on,,,,,0,0,1,,,,,0,79,64
22740,note_on,,,,,60,0,3,,,,,2,65,0
22800,note_on,,,,,60,0,1,,,,,0,79,0
22800,note_on,,,,,0,0,3,,,,,2,61,64
22800,note_on,,,,,60,0,3,,,,,2,63,0
22800,note_on,,,,,0,0,1,,,,,0,77,64
22920,note_on,,,,,120,0,1,,,,,0,77,0
22920,note_on,,,,,0,0,1,,,,,0,77,64
22920,note_on,,,,,0,0,3,,,,,2,61,64
22920,note_on,,,,,120,0,3,,,,,2,61,0
22980,note_on,,,,,0,0,1,,,,,0,75,64
22980,note_on,,,,,0,0,3,,,,,2,60,64
22980,note_on,,,,,60,0,3,,,,,2,61,0
22980,note_on,,,,,60,0,1,,,,,0,77,0
23040,note_on,,,,,60,0,1,,,,,0,75,0
23040,note_on,,,,,0,0,1,,,,,0,73,64
23040,note_on,,,,,0,0,3,,,,,2,58,64
23040,note_on,,,,,60,0,3,,,,,2,60,0
23160,note_on,,,,,840,0,2,,,,,1,72,0
23160,note_on,,,,,0,0,2,,,,,1,70,64
23160,note_on,,,,,120,0,3,,,,,2,58,0
23160,note_on,,,,,0,0,3,,,,,2,60,64
23220,note_on,,,,,0,0,2,,,,,1,68,64
23220,note_on,,,,,60,0,2,,,,,1,70,0
23220,note_on,,,,,60,0,3,,,,,2,60,0
23220,note_on,,,,,0,0,3,,,,,2,61,64
23280,note_on,,,,,0,0,2,,,,,1,67,64
23280,note_on,,,,,60,0,2,,,,,1,68,0
23280,note_on,,,,,0,0,3,,,,,2,63,64
23280,note_on,,,,,60,0,3,,,,,2,61,0
23400,note_on,,,,,0,0,3,,,,,2,51,64
23400,note_on,,,,,0,0,1,,,,,0,75,64
23400,note_on,,,,,360,0,1,,,,,0,73,0
23400,note_on,,,,,120,0,3,,,,,2,63,0
23460,note_on,,,,,0,0,1,,,,,0,73,64
23460,note_on,,,,,60,0,1,,,,,0,75,0
23520,note_on,,,,,120,0,3,,,,,2,51,0
23520,note_on,,,,,0,0,3,,,,,2,56,64
23520,note_on,,,,,0,0,1,,,,,0,72,64
23520,note_on,,,,,60,0,1,,,,,0,73,0
23640,note_on,,,,,120,0,3,,,,,2,56,0
23640,note_on,,,,,0,0,3,,,,,2,58,64
23640,note_on,,,,,120,0,1,,,,,0,72,0
23640,note_on,,,,,0,0,1,,,,,0,72,64
23700,note_on,,,,,60,0,1,,,,,0,72,0
23700,note_on,,,,,0,0,1,,,,,0,70,64
23700,note_on,,,,,0,0,3,,,,,2,60,64
23700,note_on,,,,,60,0,3,,,,,2,58,0
23760,note_on,,,,,60,0,1,,,,,0,70,0
23760,note_on,,,,,0,0,3,,,,,2,61,64
23760,note_on,,,,,60,0,3,,,,,2,60,0
23760,note_on,,,,,0,0,1,,,,,0,68,64
23880,note_on,,,,,0,0,2,,,,,1,65,64
23880,note_on,,,,,600,0,2,,,,,1,67,0
23940,note_on,,,,,60,0,2,,,,,1,65,0
23940,note_on,,,,,0,0,2,,,,,1,64,64
24000,note_on,,,,,0,0,2,,,,,1,65,64
24000,note_on,,,,,60,0,2,,,,,1,64,0
24120,note_on,,,,,360,0,1,,,,,0,68,0
24120,note_on,,,,,360,0,3,,,,,2,61,0
24120,note_on,,,,,0,0,3,,,,,2,61,64
24120,note_on,,,,,0,0,1,,,,,0,70,64
24180,note_on,,,,,60,0,3,,,,,2,61,0
24180,note_on,,,,,0,0,3,,,,,2,60,64
24180,note_on,,,,,0,0,1,,,,,0,72,64
24180,note_on,,,,,60,0,1,,,,,0,70,0
24240,note_on,,,,,60,0,1,,,,,0,72,0
24240,note_on,,,,,0,0,3,,,,,2,58,64
24240,note_on,,,,,60,0,3,,,,,2,60,0
24240,note_on,,,,,0,0,1,,,,,0,73,64
24360,note_on,,,,,0,0,3,,,,,2,58,64
24360,note_on,,,,,0,0,2,,,,,1,67,64
24360,note_on,,,,,360,0,2,,,,,1,65,0
24360,note_on,,,,,120,0,3,,,,,2,58,0
24420,note_on,,,,,60,0,2,,,,,1,67,0
24420,note_on,,,,,0,0,3,,,,,2,56,64
24420,note_on,,,,,60,0,3,,,,,2,58,0
24420,note_on,,,,,0,0,2,,,,,1,68,64
24480,note_on,,,,,0,0,2,,,,,1,70,64
24480,note_on,,,,,60,0,2,,,,,1,68,0
24480,note_on,,,,,60,0,3,,,,,2,56,0
24480,note_on,,,,,0,0,3,,,,,2,55,64
24540,note_on,,,,,300,0,1,,,,,0,73,0
24540,note_on,,,,,0,0,1,,,,,0,72,64
24600,note_on,,,,,60,0,1,,,,,0,72,0
24600,note_on,,,,,0,0,1,,,,,0,73,64
24600,note_on,,,,,0,0,3,,,,,2,55,64
24600,note_on,,,,,120,0,3,,,,,2,55,0
24660,note_on,,,,,60,0,1,,,,,0,73,0
24660,note_on,,,,,0,0,3,,,,,2,53,64
24660,note_on,,,,,60,0,3,,,,,2,55,0
24660,note_on,,,,,0,0,1,,,,,0,70,64
24720,note_on,,,,,60,0,3,,,,,2,53,0
24720,note_on,,,,,0,0,1,,,,,0,79,64
24720,note_on,,,,,60,0,1,,,,,0,70,0
24720,note_on,,,,,0,0,3,,,,,2,52,64
24780,note_on,,,,,0,0,2,,,,,1,68,64
24780,note_on,,,,,300,0,2,,,,,1,70,0
24840,note_on,,,,,0,0,2,,,,,1,70,64
24840,note_on,,,,,120,0,3,,,,,2,52,0
24840,note_on,,,,,60,0,2,,,,,1,68,0
24840,note_on,,,,,0,0,3,,,,,2,48,64
24900,note_on,,,,,0,0,2,,,,,1,67,64
24900,note_on,,,,,60,0,2,,,,,1,70,0
24960,note_on,,,,,0,0,2,,,,,1,68,64
24960,note_on,,,,,60,0,2,,,,,1,67,0
24960,note_on,,,,,0,0,3,,,,,2,53,64
24960,note_on,,,,,120,0,3,,,,,2,48,0
25020,note_on,,,,,0,0,1,,,,,0,72,64
25020,note_on,,,,,300,0,1,,,,,0,79,0
25080,note_on,,,,,60,0,1,,,,,0,72,0
25080,note_on,,,,,0,0,1,,,,,0,73,64
25080,note_on,,,,,0,0,3,,,,,2,65,64
25080,note_on,,,,,120,0,3,,,,,2,53,0
25140,note_on,,,,,0,0,3,,,,,2,63,64
25140,note_on,,,,,60,0,3,,,,,2,65,0
25140,note_on,,,,,60,0,1,,,,,0,73,0
25140,note_on,,,,,0,0,1,,,,,0,72,64
25190,note_on,,,,,50,0,3,,,,,2,63,0
25200,note_on,,,,,0,0,1,,,,,0,77,64
25200,note_on,,,,,10,0,3,,,,,2,63,74
25200,note_on,,,,,60,0,1,,,,,0,72,0
25222,note_on,,,,,0,0,3,,,,,2,61,48
25222,note_on,,,,,22,0,3,,,,,2,63,0
25244,note_on,,,,,0,0,3,,,,,2,63,49
25244,note_on,,,,,22,0,3,,,,,2,61,0
25260,note_on,,,,,0,0,2,,,,,1,67,64
25260,note_on,,,,,300,0,2,,,,,1,68,0
25266,note_on,,,,,0,0,3,,,,,2,61,51
25266,note_on,,,,,22,0,3,,,,,2,63,0
25288,note_on,,,,,22,0,3,,,,,2,61,0
25288,note_on,,,,,0,0,3,,,,,2,63,52
25310,note_on,,,,,0,0,3,,,,,2,61,54
25310,note_on,,,,,22,0,3,,,,,2,63,0
25320,note_on,,,,,0,0,2,,,,,1,68,64
25320,note_on,,,,,60,0,2,,,,,1,67,0
25332,note_on,,,,,0,0,3,,,,,2,63,55
25332,note_on,,,,,22,0,3,,,,,2,61,0
25354,note_on,,,,,0,0,3,,,,,2,61,57
25354,note_on,,,,,22,0,3,,,,,2,63,0
25376,note_on,,,,,0,0,3,,,,,2,63,58
25376,note_on,,,,,22,0,3,,,,,2,61,0
25380,note_on,,,,,60,0,2,,,,,1,68,0
25380,note_on,,,,,0,0,2,,,,,1,65,64
25398,note_on,,,,,22,0,3,,,,,2,63,0
25398,note_on,,,,,0,0,3,,,,,2,61,59
25440,note_on,,,,,0,0,2,,,,,1,72,64
25440,note_on,,,,,60,0,2,,,,,1,65,0
25440,note_on,,,,,0,0,3,,,,,2,60,64
25440,note_on,,,,,42,0,3,,,,,2,61,0
25560,note_on,,,,,0,0,2,,,,,1,67,64
25560,note_on,,,,,120,0,2,,,,,1,72,0
25560,note_on,,,,,0,0,3,,,,,2,48,64
25560,note_on,,,,,120,0,3,,,,,2,60,0
25560,note_on,,,,,0,0,1,,,,,0,76,64
25560,note_on,,,,,360,0,1,,,,,0,77,0
25620,note_on,,,,,60,0,1,,,,,0,76,0
25620,note_on,,,,,0,0,3,,,,,2,50,64
25620,note_on,,,,,60,0,3,,,,,2,48,0
25620,note_on,,,,,0,0,1,,,,,0,77,64
25680,note_on,,,,,0,0,3,,,,,2,52,64
25680,note_on,,,,,60,0,3,,,,,2,50,0
25680,note_on,,,,,60,0,1,,,,,0,77,0
25680,note_on,,,,,0,0,1,,,,,0,79,64
25680,note_on,,,,,8160,0,4,,,,,3,48,69
25680,note_on,,,,,120,0,2,,,,,1,67,0
25680,note_on,,,,,0,0,2,,,,,1,72,64
25800,note_on,,,,,0,0,2,,,,,1,70,64
25800,note_on,,,,,120,0,3,,,,,2,52,0
25800,note_on,,,,,0,0,3,,,,,2,50,64
25800,note_on,,,,,120,0,2,,,,,1,72,0
25860,note_on,,,,,0,0,3,,,,,2,52,64
25860,note_on,,,,,60,0,3,,,,,2,50,0
25920,note_on,,,,,120,0,2,,,,,1,70,0
25920,note_on,,,,,0,0,4,,,,,3,49,69
25920,note_on,,,,,240,0,4,,,,,3,48,0
25920,note_on,,,,,0,0,2,,,,,1,68,64
25920,note_on,,,,,60,0,3,,,,,2,52,0
25920,note_on,,,,,0,0,3,,,,,2,53,64
25980,note_on,,,,,60,0,3,,,,,2,53,0
25980,note_on,,,,,0,0,3,,,,,2,52,64
26040,note_on,,,,,60,0,3,,,,,2,52,0
26040,note_on,,,,,0,0,3,,,,,2,53,64
26040,note_on,,,,,0,0,2,,,,,1,70,64
26040,note_on,,,,,120,0,2,,,,,1,68,0
26040,note_on,,,,,360,0,1,,,,,0,79,0
26040,note_on,,,,,0,0,1,,,,,0,77,64
26100,note_on,,,,,60,0,3,,,,,2,53,0
26100,note_on,,,,,0,0,3,,,,,2,55,64
26160,note_on,,,,,120,0,2,,,,,1,70,0
26160,note_on,,,,,0,0,2,,,,,1,72,64
26160,note_on,,,,,0,0,4,,,,,3,48,69
26160,note_on,,,,,240,0,4,,,,,3,49,0
26160,note_on,,,,,0,0,3,,,,,2,56,64
26160,note_on,,,,,60,0,3,,,,,2,55,0
26220,note_on,,,,,0,0,2,,,,,1,60,64
26220,note_on,,,,,60,0,2,,,,,1,72,0
26280,note_on,,,,,0,0,2,,,,,1,62,64
26280,note_on,,,,,60,0,2,,,,,1,60,0
26280,note_on,,,,,0,0,1,,,,,0,75,64
26280,note_on,,,,,240,0,1,,,,,0,77,0
26340,note_on,,,,,0,0,2,,,,,1,63,64
26340,note_on,,,,,60,0,2,,,,,1,62,0
26400,note_on,,,,,0,0,1,,,,,0,74,64
26400,note_on,,,,,240,0,3,,,,,2,56,0
26400,note_on,,,,,0,0,2,,,,,1,65,64
26400,note_on,,,,,0,0,4,,,,,3,47,69
26400,note_on,,,,,240,0,4,,,,,3,48,0
26400,note_on,,,,,60,0,2,,,,,1,63,0
26400,note_on,,,,,120,0,1,,,,,0,75,0
26460,note_on,,,,,60,0,3,,,,,2,53,64
26520,note_on,,,,,0,0,3,,,,,2,55,64
26520,note_on,,,,,0,0,1,,,,,0,75,64
26520,note_on,,,,,120,0,1,,,,,0,74,0
26520,note_on,,,,,60,0,3,,,,,2,53,0
26580,note_on,,,,,60,0,1,,,,,0,75,0
26580,note_on,,,,,60,0,3,,,,,2,55,0
26580,note_on,,,,,0,0,3,,,,,2,56,64
26580,note_on,,,,,0,0,1,,,,,0,77,64
26640,note_on,,,,,60,0,1,,,,,0,77,0
26640,note_on,,,,,0,0,1,,,,,0,79,64
26640,note_on,,,,,60,0,3,,,,,2,56,0
26640,note_on,,,,,0,0,3,,,,,2,58,64
26640,note_on,,,,,0,0,4,,,,,3,52,69
26640,note_on,,,,,240,0,2,,,,,1,65,0
26640,note_on,,,,,240,0,4,,,,,3,47,0
26700,note_on,,,,,0,0,1,,,,,0,77,64
26700,note_on,,,,,60,0,1,,,,,0,79,0
26760,note_on,,,,,0,0,1,,,,,0,76,64
26760,note_on,,,,,60,0,1,,,,,0,77,0
26760,note_on,,,,,120,0,2,,,,,1,67,64
26820,note_on,,,,,60,0,1,,,,,0,76,0
26820,note_on,,,,,0,0,1,,,,,0,74,64
26880,note_on,,,,,0,0,2,,,,,1,68,64
26880,note_on,,,,,120,0,2,,,,,1,67,0
26880,note_on,,,,,60,0,1,,,,,0,74,0
26880,note_on,,,,,0,0,1,,,,,0,72,64
26880,note_on,,,,,0,0,4,,,,,3,53,69
26880,note_on,,,,,240,0,3,,,,,2,58,0
26880,note_on,,,,,240,0,4,,,,,3,52,0
26940,note_on,,,,,60,0,3,,,,,2,56,64
27000,note_on,,,,,0,0,3,,,,,2,58,64
27000,note_on,,,,,60,0,3,,,,,2,56,0
27060,note_on,,,,,0,0,3,,,,,2,60,64
27060,note_on,,,,,60,0,3,,,,,2,58,0
27120,note_on,,,,,0,0,3,,,,,2,61,64
27120,note_on,,,,,60,0,3,,,,,2,60,0
27120,note_on,,,,,0,0,4,,,,,3,46,69
27120,note_on,,,,,240,0,4,,,,,3,53,0
27120,note_on,,,,,240,0,1,,,,,0,72,0
27120,note_on,,,,,240,0,2,,,,,1,68,0
27180,note_on,,,,,60,0,2,,,,,1,70,64
27240,note_on,,,,,120,0,1,,,,,0,68,64
27300,note_on,,,,,0,0,1,,,,,0,67,64
27300,note_on,,,,,60,0,1,,,,,0,68,0
27360,note_on,,,,,240,0,3,,,,,2,61,0
27360,note_on,,,,,0,0,2,,,,,1,72,64
27360,note_on,,,,,0,0,4,,,,,3,45,69
27360,note_on,,,,,180,0,2,,,,,1,70,0
27360,note_on,,,,,0,0,1,,,,,0,65,64
27360,note_on,,,,,60,0,1,,,,,0,67,0
27360,note_on,,,,,240,0,4,,,,,3,46,0
27420,note_on,,,,,60,0,3,,,,,2,60,64
27480,note_on,,,,,60,0,3,,,,,2,60,0
27480,note_on,,,,,0,0,3,,,,,2,62,64
27540,note_on,,,,,60,0,3,,,,,2,62,0
27540,note_on,,,,,0,0,3,,,,,2,64,64
27600,note_on,,,,,60,0,3,,,,,2,64,0
27600,note_on,,,,,0,0,3,,,,,2,65,64
27600,note_on,,,,,240,0,1,,,,,0,65,0
27600,note_on,,,,,240,0,4,,,,,3,45,0
27600,note_on,,,,,240,0,2,,,,,1,72,0
27600,note_on,,,,,0,0,4,,,,,3,44,69
27660,note_on,,,,,60,0,1,,,,,0,65,64
27720,note_on,,,,,60,0,1,,,,,0,65,0
27720,note_on,,,,,0,0,1,,,,,0,67,64
27720,note_on,,,,,120,0,2,,,,,1,72,64
27780,note_on,,,,,0,0,1,,,,,0,68,64
27780,note_on,,,,,60,0,1,,,,,0,67,0
27840,note_on,,,,,60,0,1,,,,,0,68,0
27840,note_on,,,,,0,0,2,,,,,1,73,64
27840,note_on,,,,,120,0,2,,,,,1,72,0
27840,note_on,,,,,240,0,4,,,,,3,44,0
27840,note_on,,,,,0,0,4,,,,,3,44,77
27840,note_on,,,,,0,0,1,,,,,0,70,64
27862,note_on,,,,,22,0,4,,,,,3,44,0
27862,note_on,,,,,0,0,4,,,,,3,43,60
27884,note_on,,,,,0,0,4,,,,,3,44,64
27884,note_on,,,,,22,0,4,,,,,3,43,0
27906,note_on,,,,,22,0,4,,,,,3,44,0
27906,note_on,,,,,0,0,4,,,,,3,43,69
27960,note_on,,,,,0,0,3,,,,,2,64,64
27960,note_on,,,,,120,0,2,,,,,1,73,0
27960,note_on,,,,,0,0,2,,,,,1,72,64
27960,note_on,,,,,360,0,3,,,,,2,65,0
28020,note_on,,,,,60,0,3,,,,,2,64,0
28020,note_on,,,,,0,0,3,,,,,2,62,64
28020,note_on,,,,,60,0,2,,,,,1,72,0
28020,note_on,,,,,0,0,2,,,,,1,70,64
28080,note_on,,,,,60,0,3,,,,,2,62,0
28080,note_on,,,,,0,0,3,,,,,2,64,64
28080,note_on,,,,,60,0,2,,,,,1,70,0
28080,note_on,,,,,0,0,2,,,,,1,72,64
28200,note_on,,,,,360,0,1,,,,,0,70,0
28200,note_on,,,,,0,0,1,,,,,0,68,64
28260,note_on,,,,,0,0,1,,,,,0,67,64
28260,note_on,,,,,60,0,1,,,,,0,68,0
28319,note_on,,,,,413,0,4,,,,,3,43,0
28320,note_on,,,,,0,0,1,,,,,0,68,64
28320,note_on,,,,,60,0,1,,,,,0,67,0
28320,note_on,,,,,0,0,3,,,,,2,65,64
28320,note_on,,,,,1,0,4,,,,,3,41,69
28320,note_on,,,,,240,0,3,,,,,2,64,0
28440,note_on,,,,,120,0,4,,,,,3,41,0
28440,note_on,,,,,0,0,4,,,,,3,53,64
28500,note_on,,,,,0,0,4,,,,,3,55,64
28500,note_on,,,,,60,0,4,,,,,3,53,0
28560,note_on,,,,,0,0,4,,,,,3,56,64
28560,note_on,,,,,60,0,4,,,,,3,55,0
28560,note_on,,,,,240,0,3,,,,,2,65,0
28560,note_on,,,,,480,0,2,,,,,1,72,0
28560,note_on,,,,,240,0,1,,,,,0,68,0
28680,note_on,,,,,120,0,3,,,,,2,60,64
28680,note_on,,,,,120,0,4,,,,,3,56,0
28680,note_on,,,,,0,0,4,,,,,3,56,64
28740,note_on,,,,,0,0,3,,,,,2,61,64
28740,note_on,,,,,60,0,4,,,,,3,56,0
28740,note_on,,,,,0,0,4,,,,,3,58,64
28740,note_on,,,,,60,0,3,,,,,2,60,0
28800,note_on,,,,,0,0,3,,,,,2,63,64
28800,note_on,,,,,60,0,3,,,,,2,61,0
28800,note_on,,,,,0,0,4,,,,,3,60,64
28800,note_on,,,,,60,0,4,,,,,3,58,0
28920,note_on,,,,,360,0,1,,,,,0,78,64
28920,note_on,,,,,0,0,3,,,,,2,63,64
28920,note_on,,,,,120,0,3,,,,,2,63,0
28980,note_on,,,,,0,0,1,,,,,0,77,64
28980,note_on,,,,,0,0,3,,,,,2,65,64
28980,note_on,,,,,60,0,3,,,,,2,63,0
28980,note_on,,,,,60,0,1,,,,,0,78,0
29040,note_on,,,,,0,0,3,,,,,2,66,64
29040,note_on,,,,,60,0,3,,,,,2,65,0
29040,note_on,,,,,60,0,1,,,,,0,77,0
29040,note_on,,,,,0,0,1,,,,,0,75,64
29100,note_on,,,,,0,0,4,,,,,3,58,64
29100,note_on,,,,,300,0,4,,,,,3,60,0
29100,note_on,,,,,60,0,1,,,,,0,75,0
29100,note_on,,,,,0,0,1,,,,,0,73,64
29160,note_on,,,,,60,0,1,,,,,0,73,0
29160,note_on,,,,,60,0,4,,,,,3,58,0
29160,note_on,,,,,0,0,4,,,,,3,56,64
29160,note_on,,,,,0,0,1,,,,,0,72,64
29220,note_on,,,,,60,0,1,,,,,0,72,0
29220,note_on,,,,,60,0,4,,,,,3,56,0
29220,note_on,,,,,0,0,4,,,,,3,54,64
29220,note_on,,,,,0,0,1,,,,,0,70,64
29280,note_on,,,,,60,0,4,,,,,3,54,0
29280,note_on,,,,,0,0,4,,,,,3,53,64
29280,note_on,,,,,60,0,1,,,,,0,70,0
29280,note_on,,,,,0,0,1,,,,,0,68,64
29400,note_on,,,,,0,0,1,,,,,0,70,64
29400,note_on,,,,,120,0,1,,,,,0,68,0
29400,note_on,,,,,0,0,4,,,,,3,49,64
29400,note_on,,,,,120,0,4,,,,,3,53,0
29400,note_on,,,,,360,0,3,,,,,2,66,0
29400,note_on,,,,,0,0,3,,,,,2,65,64
29460,note_on,,,,,0,0,4,,,,,3,51,64
29460,note_on,,,,,0,0,3,,,,,2,63,64
29460,note_on,,,,,60,0,3,,,,,2,65,0
29460,note_on,,,,,60,0,4,,,,,3,49,0
29460,note_on,,,,,0,0,1,,,,,0,72,64
29460,note_on,,,,,60,0,1,,,,,0,70,0
29520,note_on,,,,,60,0,4,,,,,3,51,0
29520,note_on,,,,,0,0,1,,,,,0,73,64
29520,note_on,,,,,60,0,1,,,,,0,72,0
29520,note_on,,,,,0,0,4,,,,,3,53,64
29520,note_on,,,,,60,0,3,,,,,2,63,0
29520,note_on,,,,,0,0,3,,,,,2,61,64
29640,note_on,,,,,120,0,4,,,,,3,53,0
29640,note_on,,,,,120,0,1,,,,,0,73,0
29640,note_on,,,,,120,0,3,,,,,2,61,0
29640,note_on,,,,,0,0,4,,,,,3,53,64
29640,note_on,,,,,0,0,3,,,,,2,56,64
29700,note_on,,,,,60,0,3,,,,,2,56,0
29700,note_on,,,,,60,0,4,,,,,3,53,0
29700,note_on,,,,,0,0,4,,,,,3,55,64
29700,note_on,,,,,0,0,3,,,,,2,58,64
29760,note_on,,,,,60,0,4,,,,,3,55,0
29760,note_on,,,,,0,0,4,,,,,3,56,64
29760,note_on,,,,,60,0,3,,,,,2,58,0
29760,note_on,,,,,0,0,3,,,,,2,60,64
29880,note_on,,,,,120,0,3,,,,,2,60,0
29880,note_on,,,,,0,0,3,,,,,2,60,64
29880,note_on,,,,,240,0,1,,,,,0,75,64
29940,note_on,,,,,60,0,3,,,,,2,60,0
29940,note_on,,,,,60,0,1,,,,,0,75,0
29940,note_on,,,,,0,0,1,,,,,0,73,64
29940,note_on,,,,,0,0,3,,,,,2,61,64
30000,note_on,,,,,60,0,3,,,,,2,61,0
30000,note_on,,,,,0,0,1,,,,,0,72,64
30000,note_on,,,,,60,0,1,,,,,0,73,0
30000,note_on,,,,,0,0,3,,,,,2,63,64
30060,note_on,,,,,0,0,1,,,,,0,70,64
30060,note_on,,,,,60,0,1,,,,,0,72,0
30060,note_on,,,,,0,0,4,,,,,3,54,64
30060,note_on,,,,,300,0,4,,,,,3,56,0
30120,note_on,,,,,0,0,4,,,,,3,53,64
30120,note_on,,,,,60,0,4,,,,,3,54,0
30120,note_on,,,,,60,0,1,,,,,0,70,0
30120,note_on,,,,,0,0,1,,,,,0,68,64
30180,note_on,,,,,0,0,4,,,,,3,51,64
30180,note_on,,,,,60,0,4,,,,,3,53,0
30180,note_on,,,,,0,0,1,,,,,0,66,64
30180,note_on,,,,,60,0,1,,,,,0,68,0
30240,note_on,,,,,0,0,1,,,,,0,65,64
30240,note_on,,,,,60,0,4,,,,,3,51,0
30240,note_on,,,,,0,0,4,,,,,3,49,64
30240,note_on,,,,,60,0,1,,,,,0,66,0
30360,note_on,,,,,0,0,4,,,,,3,46,64
30360,note_on,,,,,120,0,1,,,,,0,65,0
30360,note_on,,,,,0,0,1,,,,,0,67,64
30360,note_on,,,,,0,0,3,,,,,2,61,64
30360,note_on,,,,,120,0,4,,,,,3,49,0
30360,note_on,,,,,360,0,3,,,,,2,63,0
30420,note_on,,,,,60,0,3,,,,,2,61,0
30420,note_on,,,,,60,0,4,,,,,3,46,0
30420,note_on,,,,,0,0,4,,,,,3,48,64
30420,note_on,,,,,0,0,1,,,,,0,69,64
30420,note_on,,,,,60,0,1,,,,,0,67,0
30420,note_on,,,,,0,0,3,,,,,2,60,64
30480,note_on,,,,,60,0,4,,,,,3,48,0
30480,note_on,,,,,0,0,4,,,,,3,49,64
30480,note_on,,,,,0,0,3,,,,,2,58,64
30480,note_on,,,,,60,0,3,,,,,2,60,0
30480,note_on,,,,,0,0,1,,,,,0,70,64
30480,note_on,,,,,60,0,1,,,,,0,69,0
30590,note_on,,,,,110,0,4,,,,,3,49,0
30600,note_on,,,,,10,0,4,,,,,3,49,64
30600,note_on,,,,,0,0,3,,,,,2,53,64
30600,note_on,,,,,120,0,3,,,,,2,58,0
30600,note_on,,,,,120,0,1,,,,,0,70,0
30660,note_on,,,,,60,0,4,,,,,3,49,0
30660,note_on,,,,,0,0,4,,,,,3,51,64
30660,note_on,,,,,60,0,3,,,,,2,53,0
30660,note_on,,,,,0,0,3,,,,,2,55,64
30720,note_on,,,,,0,0,3,,,,,2,56,64
30720,note_on,,,,,60,0,4,,,,,3,51,0
30720,note_on,,,,,0,0,4,,,,,3,53,64
30720,note_on,,,,,60,0,3,,,,,2,55,0
30840,note_on,,,,,0,0,3,,,,,2,56,64
30840,note_on,,,,,120,0,3,,,,,2,56,0
30840,note_on,,,,,240,0,1,,,,,0,72,64
30900,note_on,,,,,60,0,1,,,,,0,72,0
30900,note_on,,,,,60,0,3,,,,,2,56,0
30900,note_on,,,,,0,0,3,,,,,2,58,64
30900,note_on,,,,,0,0,1,,,,,0,70,64
30960,note_on,,,,,60,0,3,,,,,2,58,0
30960,note_on,,,,,0,0,3,,,,,2,60,64
30960,note_on,,,,,0,0,1,,,,,0,68,64
30960,note_on,,,,,60,0,1,,,,,0,70,0
31020,note_on,,,,,0,0,1,,,,,0,67,64
31020,note_on,,,,,60,0,1,,,,,0,68,0
31020,note_on,,,,,300,0,4,,,,,3,53,0
31020,note_on,,,,,0,0,4,,,,,3,51,64
31080,note_on,,,,,0,0,1,,,,,0,65,64
31080,note_on,,,,,0,0,4,,,,,3,49,64
31080,note_on,,,,,60,0,1,,,,,0,67,0
31080,note_on,,,,,60,0,4,,,,,3,51,0
31140,note_on,,,,,0,0,4,,,,,3,48,64
31140,note_on,,,,,60,0,1,,,,,0,65,0
31140,note_on,,,,,0,0,1,,,,,0,63,64
31140,note_on,,,,,60,0,4,,,,,3,49,0
31200,note_on,,,,,0,0,4,,,,,3,46,64
31200,note_on,,,,,60,0,1,,,,,0,63,0
31200,note_on,,,,,0,0,1,,,,,0,61,64
31200,note_on,,,,,60,0,4,,,,,3,48,0
31260,note_on,,,,,60,0,4,,,,,3,46,0
31260,note_on,,,,,0,0,4,,,,,3,48,64
31320,note_on,,,,,0,0,3,,,,,2,58,64
31320,note_on,,,,,360,0,3,,,,,2,60,0
31320,note_on,,,,,0,0,4,,,,,3,49,64
31320,note_on,,,,,60,0,4,,,,,3,48,0
31380,note_on,,,,,60,0,4,,,,,3,49,0
31380,note_on,,,,,0,0,4,,,,,3,48,64
31380,note_on,,,,,0,0,3,,,,,2,60,64
31380,note_on,,,,,60,0,3,,,,,2,58,0
31440,note_on,,,,,60,0,3,,,,,2,60,0
31440,note_on,,,,,0,0,4,,,,,3,46,64
31440,note_on,,,,,60,0,4,,,,,3,48,0
31440,note_on,,,,,0,0,3,,,,,2,61,64
31500,note_on,,,,,0,0,4,,,,,3,44,64
31500,note_on,,,,,300,0,1,,,,,0,61,0
31500,note_on,,,,,0,0,1,,,,,0,65,64
31500,note_on,,,,,60,0,4,,,,,3,46,0
31560,note_on,,,,,0,0,4,,,,,3,43,64
31560,note_on,,,,,60,0,1,,,,,0,65,0
31560,note_on,,,,,0,0,1,,,,,0,70,64
31560,note_on,,,,,60,0,4,,,,,3,44,0
31620,note_on,,,,,60,0,4,,,,,3,43,0
31620,note_on,,,,,0,0,4,,,,,3,41,64
31620,note_on,,,,,0,0,1,,,,,0,68,64
31620,note_on,,,,,60,0,1,,,,,0,70,0
31680,note_on,,,,,60,0,1,,,,,0,68,0
31680,note_on,,,,,0,0,4,,,,,3,39,64
31680,note_on,,,,,60,0,4,,,,,3,41,0
31680,note_on,,,,,0,0,1,,,,,0,67,64
31800,note_on,,,,,0,0,3,,,,,2,63,64
31800,note_on,,,,,0,0,4,,,,,3,46,64
31800,note_on,,,,,120,0,4,,,,,3,39,0
31800,note_on,,,,,360,0,3,,,,,2,61,0
31860,note_on,,,,,0,0,3,,,,,2,61,64
31860,note_on,,,,,60,0,3,,,,,2,63,0
31920,note_on,,,,,0,0,4,,,,,3,48,64
31920,note_on,,,,,120,0,4,,,,,3,46,0
31920,note_on,,,,,60,0,3,,,,,2,61,0
31920,note_on,,,,,240,0,1,,,,,0,67,0
31920,note_on,,,,,0,0,1,,,,,0,68,64
31920,note_on,,,,,0,0,3,,,,,2,60,64
31920,note_on,,,,,3360,0,2,,,,,1,63,69
32040,note_on,,,,,0,0,3,,,,,2,61,64
32040,note_on,,,,,120,0,4,,,,,3,48,0
32040,note_on,,,,,0,0,4,,,,,3,44,64
32040,note_on,,,,,120,0,3,,,,,2,60,0
32100,note_on,,,,,0,0,3,,,,,2,60,64
32100,note_on,,,,,60,0,3,,,,,2,61,0
32160,note_on,,,,,0,0,3,,,,,2,58,64
32160,note_on,,,,,120,0,4,,,,,3,44,0
32160,note_on,,,,,0,0,4,,,,,3,49,64
32160,note_on,,,,,60,0,3,,,,,2,60,0
32160,note_on,,,,,0,0,2,,,,,1,65,69
32160,note_on,,,,,240,0,2,,,,,1,63,0
32220,note_on,,,,,0,0,1,,,,,0,67,64
32220,note_on,,,,,300,0,1,,,,,0,68,0
32280,note_on,,,,,0,0,4,,,,,3,46,64
32280,note_on,,,,,120,0,4,,,,,3,49,0
32280,note_on,,,,,0,0,1,,,,,0,68,64
32280,note_on,,,,,60,0,1,,,,,0,67,0
32340,note_on,,,,,60,0,1,,,,,0,68,0
32340,note_on,,,,,0,0,1,,,,,0,70,64
32400,note_on,,,,,0,0,2,,,,,1,63,69
32400,note_on,,,,,240,0,2,,,,,1,65,0
32400,note_on,,,,,0,0,1,,,,,0,72,64
32400,note_on,,,,,120,0,4,,,,,3,46,0
32400,note_on,,,,,0,0,4,,,,,3,51,64
32400,note_on,,,,,60,0,1,,,,,0,70,0
32520,note_on,,,,,0,0,3,,,,,2,56,64
32520,note_on,,,,,360,0,3,,,,,2,58,0
32520,note_on,,,,,0,0,4,,,,,3,48,64
32520,note_on,,,,,120,0,4,,,,,3,51,0
32580,note_on,,,,,60,0,3,,,,,2,56,0
32580,note_on,,,,,0,0,3,,,,,2,55,64
32640,note_on,,,,,120,0,4,,,,,3,48,0
32640,note_on,,,,,0,0,4,,,,,3,53,64
32640,note_on,,,,,240,0,1,,,,,0,72,0
32640,note_on,,,,,0,0,2,,,,,1,62,69
32640,note_on,,,,,60,0,3,,,,,2,55,0
32640,note_on,,,,,240,0,2,,,,,1,63,0
32640,note_on,,,,,0,0,3,,,,,2,56,64
32700,note_on,,,,,60,0,1,,,,,0,68,64
32760,note_on,,,,,0,0,1,,,,,0,70,64
32760,note_on,,,,,60,0,1,,,,,0,68,0
32760,note_on,,,,,0,0,4,,,,,3,46,64
32760,note_on,,,,,0,0,3,,,,,2,55,64
32760,note_on,,,,,120,0,3,,,,,2,56,0
32760,note_on,,,,,120,0,4,,,,,3,53,0
32820,note_on,,,,,0,0,3,,,,,2,56,64
32820,note_on,,,,,60,0,3,,,,,2,55,0
32820,note_on,,,,,60,0,1,,,,,0,70,0
32820,note_on,,,,,0,0,1,,,,,0,72,64
32880,note_on,,,,,0,0,3,,,,,2,58,64
32880,note_on,,,,,0,0,2,,,,,1,67,69
32880,note_on,,,,,240,0,2,,,,,1,62,0
32880,note_on,,,,,60,0,1,,,,,0,72,0
32880,note_on,,,,,0,0,1,,,,,0,73,64
32880,note_on,,,,,60,0,3,,,,,2,56,0
32940,note_on,,,,,60,0,3,,,,,2,58,0
32940,note_on,,,,,0,0,3,,,,,2,56,64
33000,note_on,,,,,0,0,3,,,,,2,55,64
33000,note_on,,,,,60,0,3,,,,,2,56,0
33000,note_on,,,,,0,0,4,,,,,3,51,64
33000,note_on,,,,,240,0,4,,,,,3,46,0
33060,note_on,,,,,60,0,3,,,,,2,55,0
33060,note_on,,,,,0,0,3,,,,,2,53,64
33060,note_on,,,,,60,0,4,,,,,3,51,0
33060,note_on,,,,,0,0,4,,,,,3,49,64
33120,note_on,,,,,0,0,3,,,,,2,51,64
33120,note_on,,,,,60,0,3,,,,,2,53,0
33120,note_on,,,,,0,0,4,,,,,3,48,64
33120,note_on,,,,,240,0,1,,,,,0,73,0
33120,note_on,,,,,0,0,2,,,,,1,68,69
33120,note_on,,,,,240,0,2,,,,,1,67,0
33120,note_on,,,,,60,0,4,,,,,3,49,0
33180,note_on,,,,,60,0,1,,,,,0,72,64
33240,note_on,,,,,120,0,3,,,,,2,51,0
33240,note_on,,,,,120,0,4,,,,,3,48,0
33240,note_on,,,,,60,0,1,,,,,0,72,0
33240,note_on,,,,,0,0,1,,,,,0,73,64
33240,note_on,,,,,0,0,3,,,,,2,56,64
33240,note_on,,,,,0,0,4,,,,,3,53,64
33300,note_on,,,,,60,0,1,,,,,0,73,0
33300,note_on,,,,,0,0,1,,,,,0,75,64
33360,note_on,,,,,0,0,2,,,,,1,61,69
33360,note_on,,,,,60,0,1,,,,,0,75,0
33360,note_on,,,,,0,0,1,,,,,0,77,64
33360,note_on,,,,,240,0,2,,,,,1,68,0
33420,note_on,,,,,0,0,4,,,,,3,51,64
33420,note_on,,,,,180,0,4,,,,,3,53,0
33420,note_on,,,,,0,0,3,,,,,2,55,64
33420,note_on,,,,,180,0,3,,,,,2,56,0
33480,note_on,,,,,0,0,3,,,,,2,56,64
33480,note_on,,,,,60,0,3,,,,,2,55,0
33480,note_on,,,,,60,0,4,,,,,3,51,0
33480,note_on,,,,,0,0,4,,,,,3,53,64
33540,note_on,,,,,60,0,4,,,,,3,53,0
33540,note_on,,,,,0,0,4,,,,,3,55,64
33540,note_on,,,,,0,0,3,,,,,2,58,64
33540,note_on,,,,,60,0,3,,,,,2,56,0
33600,note_on,,,,,0,0,2,,,,,1,60,69
33600,note_on,,,,,240,0,2,,,,,1,61,0
33600,note_on,,,,,0,0,3,,,,,2,60,64
33600,note_on,,,,,240,0,1,,,,,0,77,0
33600,note_on,,,,,60,0,4,,,,,3,55,0
33600,note_on,,,,,0,0,4,,,,,3,56,64
33600,note_on,,,,,60,0,3,,,,,2,58,0
33660,note_on,,,,,0,0,4,,,,,3,55,64
33660,note_on,,,,,60,0,4,,,,,3,56,0
33660,note_on,,,,,60,0,1,,,,,0,75,64
33720,note_on,,,,,60,0,4,,,,,3,55,0
33720,note_on,,,,,0,0,1,,,,,0,77,64
33720,note_on,,,,,0,0,4,,,,,3,53,64
33720,note_on,,,,,60,0,1,,,,,0,75,0
33780,note_on,,,,,0,0,1,,,,,0,79,64
33780,note_on,,,,,60,0,1,,,,,0,77,0
33780,note_on,,,,,0,0,4,,,,,3,51,64
33780,note_on,,,,,60,0,4,,,,,3,53,0
33840,note_on,,,,,0,0,4,,,,,3,50,64
33840,note_on,,,,,0,0,1,,,,,0,80,64
33840,note_on,,,,,60,0,1,,,,,0,79,0
33840,note_on,,,,,60,0,4,,,,,3,51,0
33840,note_on,,,,,240,0,3,,,,,2,60,0
33840,note_on,,,,,0,0,2,,,,,1,59,69
33840,note_on,,,,,240,0,2,,,,,1,60,0
33900,note_on,,,,,60,0,3,,,,,2,53,64
33960,note_on,,,,,0,0,3,,,,,2,55,64
33960,note_on,,,,,60,0,3,,,,,2,53,0
34020,note_on,,,,,60,0,3,,,,,2,55,0
34020,note_on,,,,,0,0,3,,,,,2,56,64
34080,note_on,,,,,240,0,2,,,,,1,59,0
34080,note_on,,,,,0,0,2,,,,,1,58,69
34080,note_on,,,,,240,0,4,,,,,3,50,0
34080,note_on,,,,,60,0,3,,,,,2,56,0
34080,note_on,,,,,0,0,3,,,,,2,51,64
34200,note_on,,,,,0,0,1,,,,,0,79,64
34200,note_on,,,,,360,0,1,,,,,0,80,0
34200,note_on,,,,,120,0,4,,,,,3,50,64
34260,note_on,,,,,0,0,1,,,,,0,77,64
34260,note_on,,,,,60,0,1,,,,,0,79,0
34320,note_on,,,,,60,0,1,,,,,0,77,0
34320,note_on,,,,,240,0,3,,,,,2,51,0
34320,note_on,,,,,0,0,4,,,,,3,52,64
34320,note_on,,,,,120,0,4,,,,,3,50,0
34320,note_on,,,,,0,0,1,,,,,0,79,64
34380,note_on,,,,,60,0,3,,,,,2,55,64
34440,note_on,,,,,60,0,3,,,,,2,55,0
34440,note_on,,,,,0,0,3,,,,,2,53,64
34440,note_on,,,,,120,0,4,,,,,3,52,0
34440,note_on,,,,,0,0,4,,,,,3,48,64
34500,note_on,,,,,60,0,3,,,,,2,53,0
34500,note_on,,,,,0,0,3,,,,,2,52,64
34560,note_on,,,,,60,0,3,,,,,2,52,0
34560,note_on,,,,,0,0,2,,,,,1,56,69
34560,note_on,,,,,480,0,2,,,,,1,58,0
34560,note_on,,,,,120,0,4,,,,,3,48,0
34560,note_on,,,,,0,0,3,,,,,2,53,64
34620,note_on,,,,,0,0,1,,,,,0,72,64
34620,note_on,,,,,300,0,1,,,,,0,79,0
34680,note_on,,,,,120,0,4,,,,,3,53,64
34680,note_on,,,,,60,0,1,,,,,0,72,0
34680,note_on,,,,,0,0,1,,,,,0,74,64
34740,note_on,,,,,60,0,1,,,,,0,74,0
34740,note_on,,,,,0,0,1,,,,,0,75,64
34740,note_on,,,,,0,0,4,,,,,3,51,64
34740,note_on,,,,,60,0,4,,,,,3,53,0
34800,note_on,,,,,0,0,4,,,,,3,50,64
34800,note_on,,,,,60,0,4,,,,,3,51,0
34800,note_on,,,,,240,0,3,,,,,2,53,0
34800,note_on,,,,,240,0,2,,,,,1,56,0
34800,note_on,,,,,0,0,1,,,,,0,77,64
34800,note_on,,,,,60,0,1,,,,,0,75,0
34860,note_on,,,,,60,0,2,,,,,1,71,64
34920,note_on,,,,,0,0,4,,,,,3,50,64
34920,note_on,,,,,60,0,2,,,,,1,71,0
34920,note_on,,,,,0,0,2,,,,,1,72,64
34920,note_on,,,,,120,0,4,,,,,3,50,0
34980,note_on,,,,,0,0,4,,,,,3,48,64
34980,note_on,,,,,60,0,4,,,,,3,50,0
34980,note_on,,,,,60,0,2,,,,,1,72,0
34980,note_on,,,,,0,0,2,,,,,1,74,64
35040,note_on,,,,,60,0,2,,,,,1,74,0
35040,note_on,,,,,0,0,4,,,,,3,47,64
35040,note_on,,,,,60,0,4,,,,,3,48,0
35040,note_on,,,,,0,0,2,,,,,1,67,64
35100,note_on,,,,,60,0,4,,,,,3,47,0
35100,note_on,,,,,0,0,4,,,,,3,43,64
35160,note_on,,,,,0,0,1,,,,,0,75,64
35160,note_on,,,,,0,0,4,,,,,3,45,64
35160,note_on,,,,,60,0,4,,,,,3,43,0
35160,note_on,,,,,360,0,1,,,,,0,77,0
35220,note_on,,,,,60,0,4,,,,,3,45,0
35220,note_on,,,,,60,0,1,,,,,0,75,0
35220,note_on,,,,,0,0,4,,,,,3,47,64
35220,note_on,,,,,0,0,1,,,,,0,74,64
35280,note_on,,,,,0,0,1,,,,,0,75,64
35280,note_on,,,,,0,0,4,,,,,3,48,64
35280,note_on,,,,,60,0,4,,,,,3,47,0
35280,note_on,,,,,60,0,1,,,,,0,74,0
35340,note_on,,,,,60,0,4,,,,,3,48,0
35340,note_on,,,,,0,0,4,,,,,3,44,64
35400,note_on,,,,,360,0,2,,,,,1,67,0
35400,note_on,,,,,0,0,2,,,,,1,66,64
35400,note_on,,,,,60,0,4,,,,,3,44,0
35400,note_on,,,,,0,0,4,,,,,3,46,64
35460,note_on,,,,,60,0,4,,,,,3,46,0
35460,note_on,,,,,0,0,4,,,,,3,48,64
35520,note_on,,,,,0,0,2,,,,,1,65,64
35520,note_on,,,,,0,0,4,,,,,3,49,64
35520,note_on,,,,,60,0,4,,,,,3,48,0
35520,note_on,,,,,120,0,2,,,,,1,66,0
35580,note_on,,,,,300,0,1,,,,,0,75,0
35580,note_on,,,,,0,0,1,,,,,0,68,64
35640,note_on,,,,,0,0,4,,,,,3,49,64
35640,note_on,,,,,60,0,1,,,,,0,68,0
35640,note_on,,,,,0,0,1,,,,,0,70,64
35640,note_on,,,,,120,0,4,,,,,3,49,0
35700,note_on,,,,,0,0,4,,,,,3,48,64
35700,note_on,,,,,60,0,4,,,,,3,49,0
35700,note_on,,,,,0,0,1,,,,,0,72,64
35700,note_on,,,,,60,0,1,,,,,0,70,0
35760,note_on,,,,,0,0,4,,,,,3,46,64
35760,note_on,,,,,60,0,4,,,,,3,48,0
35760,note_on,,,,,0,0,1,,,,,0,73,64
35760,note_on,,,,,60,0,1,,,,,0,72,0
35820,note_on,,,,,300,0,2,,,,,1,65,0
35820,note_on,,,,,0,0,2,,,,,1,67,64
35880,note_on,,,,,0,0,2,,,,,1,68,64
35880,note_on,,,,,60,0,2,,,,,1,67,0
35880,note_on,,,,,0,0,4,,,,,3,46,64
35880,note_on,,,,,120,0,4,,,,,3,46,0
35940,note_on,,,,,0,0,2,,,,,1,70,64
35940,note_on,,,,,60,0,2,,,,,1,68,0
35940,note_on,,,,,60,0,4,,,,,3,46,0
35940,note_on,,,,,0,0,4,,,,,3,44,64
36000,note_on,,,,,0,0,2,,,,,1,63,64
36000,note_on,,,,,60,0,2,,,,,1,70,0
36000,note_on,,,,,0,0,4,,,,,3,43,64
36000,note_on,,,,,60,0,4,,,,,3,44,0
36060,note_on,,,,,0,0,4,,,,,3,39,64
36060,note_on,,,,,60,0,4,,,,,3,43,0
36120,note_on,,,,,0,0,4,,,,,3,41,64
36120,note_on,,,,,0,0,1,,,,,0,72,64
36120,note_on,,,,,360,0,1,,,,,0,73,0
36120,note_on,,,,,60,0,4,,,,,3,39,0
36180,note_on,,,,,60,0,4,,,,,3,41,0
36180,note_on,,,,,0,0,1,,,,,0,70,64
36180,note_on,,,,,60,0,1,,,,,0,72,0
36180,note_on,,,,,0,0,4,,,,,3,43,64
36240,note_on,,,,,60,0,4,,,,,3,43,0
36240,note_on,,,,,0,0,4,,,,,3,44,64
36240,note_on,,,,,0,0,1,,,,,0,72,64
36240,note_on,,,,,60,0,1,,,,,0,70,0
36300,note_on,,,,,60,0,4,,,,,3,44,0
36300,note_on,,,,,0,0,4,,,,,3,41,64
36300,note_on,,,,,300,0,2,,,,,1,63,0
36300,note_on,,,,,0,0,2,,,,,1,66,64
36360,note_on,,,,,0,0,4,,,,,3,43,64
36360,note_on,,,,,60,0,4,,,,,3,41,0
36360,note_on,,,,,60,0,2,,,,,1,66,0
36360,note_on,,,,,0,0,2,,,,,1,65,64
36420,note_on,,,,,60,0,4,,,,,3,43,0
36420,note_on,,,,,60,0,2,,,,,1,65,0
36420,note_on,,,,,0,0,2,,,,,1,63,64
36420,note_on,,,,,0,0,4,,,,,3,45,64
36480,note_on,,,,,0,0,4,,,,,3,46,64
36480,note_on,,,,,60,0,4,,,,,3,45,0
36480,note_on,,,,,60,0,2,,,,,1,63,0
36480,note_on,,,,,0,0,2,,,,,1,61,64
36540,note_on,,,,,60,0,4,,,,,3,46,0
36540,note_on,,,,,0,0,4,,,,,3,45,64
36600,note_on,,,,,0,0,4,,,,,3,46,64
36600,note_on,,,,,360,0,1,,,,,0,72,0
36600,note_on,,,,,0,0,1,,,,,0,65,64
36600,note_on,,,,,60,0,4,,,,,3,45,0
36660,note_on,,,,,60,0,4,,,,,3,46,0
36660,note_on,,,,,0,0,4,,,,,3,48,64
36720,note_on,,,,,120,0,1,,,,,0,65,0
36720,note_on,,,,,0,0,1,,,,,0,70,64
36720,note_on,,,,,60,0,4,,,,,3,48,0
36720,note_on,,,,,0,0,4,,,,,3,49,64
36780,note_on,,,,,60,0,4,,,,,3,49,0
36780,note_on,,,,,0,0,4,,,,,3,46,64
36840,note_on,,,,,120,0,1,,,,,0,70,0
36840,note_on,,,,,0,0,1,,,,,0,68,64
36840,note_on,,,,,0,0,4,,,,,3,48,64
36840,note_on,,,,,60,0,4,,,,,3,46,0
36900,note_on,,,,,0,0,4,,,,,3,49,64
36900,note_on,,,,,60,0,4,,,,,3,48,0
36960,note_on,,,,,120,0,1,,,,,0,68,0
36960,note_on,,,,,0,0,1,,,,,0,67,64
36960,note_on,,,,,0,0,4,,,,,3,51,64
36960,note_on,,,,,60,0,4,,,,,3,49,0
37020,note_on,,,,,0,0,2,,,,,1,58,64
37020,note_on,,,,,540,0,2,,,,,1,61,0
37080,note_on,,,,,0,0,2,,,,,1,60,64
37080,note_on,,,,,0,0,4,,,,,3,51,64
37080,note_on,,,,,120,0,4,,,,,3,51,0
37080,note_on,,,,,60,0,2,,,,,1,58,0
37140,note_on,,,,,0,0,4,,,,,3,49,64
37140,note_on,,,,,60,0,4,,,,,3,51,0
37140,note_on,,,,,60,0,2,,,,,1,60,0
37140,note_on,,,,,0,0,2,,,,,1,61,64
37200,note_on,,,,,0,0,4,,,,,3,48,64
37200,note_on,,,,,60,0,4,,,,,3,49,0
37200,note_on,,,,,60,0,2,,,,,1,61,0
37200,note_on,,,,,0,0,2,,,,,1,63,64
37250,note_on,,,,,290,0,1,,,,,0,67,0
37260,note_on,,,,,10,0,1,,,,,0,67,64
37320,note_on,,,,,0,0,1,,,,,0,68,64
37320,note_on,,,,,60,0,1,,,,,0,67,0
37320,note_on,,,,,0,0,4,,,,,3,48,64
37320,note_on,,,,,120,0,4,,,,,3,48,0
37380,note_on,,,,,0,0,1,,,,,0,70,64
37380,note_on,,,,,60,0,1,,,,,0,68,0
37380,note_on,,,,,0,0,4,,,,,3,46,64
37380,note_on,,,,,60,0,4,,,,,3,48,0
37440,note_on,,,,,60,0,1,,,,,0,70,0
37440,note_on,,,,,60,0,4,,,,,3,46,0
37440,note_on,,,,,0,0,4,,,,,3,44,64
37440,note_on,,,,,0,0,1,,,,,0,72,64
37490,note_on,,,,,290,0,2,,,,,1,63,0
37500,note_on,,,,,10,0,2,,,,,1,63,64
37560,note_on,,,,,60,0,2,,,,,1,63,0
37560,note_on,,,,,0,0,2,,,,,1,65,64
37560,note_on,,,,,0,0,4,,,,,3,56,64
37560,note_on,,,,,120,0,4,,,,,3,44,0
37620,note_on,,,,,0,0,4,,,,,3,55,64
37620,note_on,,,,,60,0,2,,,,,1,65,0
37620,note_on,,,,,0,0,2,,,,,1,67,64
37620,note_on,,,,,60,0,4,,,,,3,56,0
37680,note_on,,,,,0,0,4,,,,,3,53,64
37680,note_on,,,,,60,0,4,,,,,3,55,0
37680,note_on,,,,,0,0,2,,,,,1,68,64
37680,note_on,,,,,60,0,2,,,,,1,67,0
37680,note_on,,,,,240,0,1,,,,,0,72,0
37740,note_on,,,,,60,0,1,,,,,0,72,64
37800,note_on,,,,,0,0,1,,,,,0,74,64
37800,note_on,,,,,0,0,4,,,,,3,53,64
37800,note_on,,,,,120,0,4,,,,,3,53,0
37800,note_on,,,,,60,0,1,,,,,0,72,0
37860,note_on,,,,,0,0,4,,,,,3,51,64
37860,note_on,,,,,60,0,4,,,,,3,53,0
37860,note_on,,,,,60,0,1,,,,,0,74,0
37860,note_on,,,,,0,0,1,,,,,0,75,64
37920,note_on,,,,,60,0,1,,,,,0,75,0
37920,note_on,,,,,60,0,4,,,,,3,51,0
37920,note_on,,,,,0,0,1,,,,,0,77,64
37920,note_on,,,,,0,0,4,,,,,3,50,64
37980,note_on,,,,,300,0,2,,,,,1,68,0
37980,note_on,,,,,0,0,2,,,,,1,72,64
38040,note_on,,,,,60,0,2,,,,,1,72,0
38040,note_on,,,,,0,0,2,,,,,1,70,64
38100,note_on,,,,,0,0,2,,,,,1,68,64
38100,note_on,,,,,60,0,2,,,,,1,70,0
38160,note_on,,,,,0,0,2,,,,,1,67,64
38160,note_on,,,,,3360,0,3,,,,,2,58,69
38160,note_on,,,,,0,0,4,,,,,3,51,64
38160,note_on,,,,,240,0,4,,,,,3,50,0
38160,note_on,,,,,60,0,2,,,,,1,68,0
38220,note_on,,,,,300,0,1,,,,,0,77,0
38220,note_on,,,,,0,0,1,,,,,0,70,64
38280,note_on,,,,,0,0,1,,,,,0,75,64
38280,note_on,,,,,60,0,1,,,,,0,70,0
38280,note_on,,,,,120,0,4,,,,,3,51,0
38280,note_on,,,,,0,0,4,,,,,3,55,64
38340,note_on,,,,,180,0,2,,,,,1,67,0
38340,note_on,,,,,0,0,2,,,,,1,67,64
38400,note_on,,,,,60,0,2,,,,,1,67,0
38400,note_on,,,,,0,0,2,,,,,1,65,64
38400,note_on,,,,,120,0,4,,,,,3,55,0
38400,note_on,,,,,0,0,4,,,,,3,56,64
38400,note_on,,,,,240,0,3,,,,,2,58,0
38400,note_on,,,,,0,0,3,,,,,2,60,69
38460,note_on,,,,,0,0,1,,,,,0,75,64
38460,note_on,,,,,180,0,1,,,,,0,75,0
38520,note_on,,,,,0,0,1,,,,,0,74,64
38520,note_on,,,,,60,0,1,,,,,0,75,0
38520,note_on,,,,,0,0,4,,,,,3,53,64
38520,note_on,,,,,120,0,4,,,,,3,56,0
38580,note_on,,,,,0,0,1,,,,,0,72,64
38580,note_on,,,,,60,0,1,,,,,0,74,0
38640,note_on,,,,,0,0,1,,,,,0,74,64
38640,note_on,,,,,60,0,1,,,,,0,72,0
38640,note_on,,,,,0,0,3,,,,,2,58,69
38640,note_on,,,,,120,0,4,,,,,3,53,0
38640,note_on,,,,,240,0,3,,,,,2,60,0
38700,note_on,,,,,0,0,1,,,,,0,75,64
38700,note_on,,,,,60,0,1,,,,,0,74,0
38760,note_on,,,,,0,0,1,,,,,0,72,64
38760,note_on,,,,,60,0,1,,,,,0,75,0
38760,note_on,,,,,120,0,4,,,,,3,46,64
38820,note_on,,,,,0,0,1,,,,,0,74,64
38820,note_on,,,,,60,0,1,,,,,0,72,0
38880,note_on,,,,,120,0,4,,,,,3,46,0
38880,note_on,,,,,240,0,3,,,,,2,58,0
38880,note_on,,,,,0,0,3,,,,,2,57,69
38880,note_on,,,,,480,0,2,,,,,1,65,0
38880,note_on,,,,,0,0,2,,,,,1,60,64
38880,note_on,,,,,0,0,4,,,,,3,48,64
38880,note_on,,,,,60,0,1,,,,,0,74,0
38880,note_on,,,,,0,0,1,,,,,0,75,64
38940,note_on,,,,,0,0,1,,,,,0,72,64
38940,note_on,,,,,60,0,1,,,,,0,75,0
39000,note_on,,,,,120,0,4,,,,,3,48,0
39000,note_on,,,,,60,0,1,,,,,0,72,0
39000,note_on,,,,,0,0,1,,,,,0,74,64
39000,note_on,,,,,120,0,2,,,,,1,60,0
39000,note_on,,,,,0,0,4,,,,,3,60,64
39060,note_on,,,,,60,0,4,,,,,3,60,0
39060,note_on,,,,,0,0,4,,,,,3,58,64
39060,note_on,,,,,60,0,1,,,,,0,74,0
39060,note_on,,,,,0,0,1,,,,,0,75,64
39120,note_on,,,,,60,0,1,,,,,0,75,0
39120,note_on,,,,,0,0,1,,,,,0,77,64
39120,note_on,,,,,240,0,3,,,,,2,57,0
39120,note_on,,,,,0,0,3,,,,,2,62,69
39120,note_on,,,,,0,0,4,,,,,3,56,64
39120,note_on,,,,,60,0,4,,,,,3,58,0
39180,note_on,,,,,60,0,1,,,,,0,77,0
39180,note_on,,,,,0,0,1,,,,,0,75,64
39240,note_on,,,,,0,0,4,,,,,3,58,64
39240,note_on,,,,,120,0,4,,,,,3,56,0
39240,note_on,,,,,0,0,1,,,,,0,74,64
39240,note_on,,,,,60,0,1,,,,,0,75,0
39300,note_on,,,,,0,0,4,,,,,3,56,64
39300,note_on,,,,,60,0,4,,,,,3,58,0
39300,note_on,,,,,60,0,1,,,,,0,74,0
39300,note_on,,,,,0,0,1,,,,,0,72,64
39360,note_on,,,,,0,0,3,,,,,2,63,69
39360,note_on,,,,,240,0,3,,,,,2,62,0
39360,note_on,,,,,60,0,1,,,,,0,72,0
39360,note_on,,,,,0,0,1,,,,,0,70,64
39360,note_on,,,,,60,0,4,,,,,3,56,0
39360,note_on,,,,,0,0,4,,,,,3,55,64
39420,note_on,,,,,420,0,2,,,,,1,60,64
39480,note_on,,,,,0,0,2,,,,,1,62,64
39480,note_on,,,,,120,0,4,,,,,3,55,0
39480,note_on,,,,,0,0,4,,,,,3,46,64
39480,note_on,,,,,60,0,2,,,,,1,60,0
39540,note_on,,,,,0,0,2,,,,,1,63,64
39540,note_on,,,,,60,0,2,,,,,1,62,0
39540,note_on,,,,,60,0,4,,,,,3,46,0
39540,note_on,,,,,0,0,4,,,,,3,48,64
39600,note_on,,,,,0,0,2,,,,,1,65,64
39600,note_on,,,,,0,0,4,,,,,3,50,64
39600,note_on,,,,,60,0,2,,,,,1,63,0
39600,note_on,,,,,60,0,4,,,,,3,48,0
39600,note_on,,,,,0,0,3,,,,,2,56,69
39600,note_on,,,,,240,0,3,,,,,2,63,0
39660,note_on,,,,,0,0,2,,,,,1,63,64
39660,note_on,,,,,60,0,2,,,,,1,65,0
39720,note_on,,,,,120,0,4,,,,,3,50,0
39720,note_on,,,,,60,0,2,,,,,1,63,0
39720,note_on,,,,,0,0,2,,,,,1,62,64
39720,note_on,,,,,0,0,4,,,,,3,48,64
39780,note_on,,,,,0,0,4,,,,,3,50,64
39780,note_on,,,,,60,0,4,,,,,3,48,0
39780,note_on,,,,,60,0,2,,,,,1,62,0
39780,note_on,,,,,0,0,2,,,,,1,60,64
39840,note_on,,,,,0,0,4,,,,,3,51,64
39840,note_on,,,,,240,0,3,,,,,2,56,0
39840,note_on,,,,,0,0,3,,,,,2,55,69
39840,note_on,,,,,60,0,4,,,,,3,50,0
39840,note_on,,,,,60,0,2,,,,,1,60,0
39840,note_on,,,,,0,0,2,,,,,1,58,64
39900,note_on,,,,,0,0,1,,,,,0,68,64
39900,note_on,,,,,540,0,1,,,,,0,70,0
39960,note_on,,,,,0,0,1,,,,,0,67,64
39960,note_on,,,,,120,0,4,,,,,3,51,0
39960,note_on,,,,,0,0,4,,,,,3,51,64
39960,note_on,,,,,60,0,1,,,,,0,68,0
40020,note_on,,,,,60,0,4,,,,,3,51,0
40020,note_on,,,,,60,0,1,,,,,0,67,0
40020,note_on,,,,,0,0,1,,,,,0,65,64
40020,note_on,,,,,0,0,4,,,,,3,50,64
40080,note_on,,,,,60,0,1,,,,,0,65,0
40080,note_on,,,,,0,0,1,,,,,0,63,64
40080,note_on,,,,,0,0,4,,,,,3,48,64
40080,note_on,,,,,60,0,4,,,,,3,50,0
40080,note_on,,,,,240,0,3,,,,,2,55,0
40080,note_on,,,,,0,0,3,,,,,2,54,69
40200,note_on,,,,,360,0,2,,,,,1,58,0
40200,note_on,,,,,0,0,4,,,,,3,48,64
40200,note_on,,,,,120,0,4,,,,,3,48,0
40200,note_on,,,,,0,0,2,,,,,1,57,64
40260,note_on,,,,,0,0,4,,,,,3,46,64
40260,note_on,,,,,60,0,2,,,,,1,57,0
40260,note_on,,,,,0,0,2,,,,,1,58,64
40260,note_on,,,,,60,0,4,,,,,3,48,0
40320,note_on,,,,,240,0,3,,,,,2,54,0
40320,note_on,,,,,60,0,2,,,,,1,58,0
40320,note_on,,,,,0,0,3,,,,,2,53,69
40320,note_on,,,,,0,0,2,,,,,1,60,64
40320,note_on,,,,,0,0,4,,,,,3,45,64
40320,note_on,,,,,60,0,4,,,,,3,46,0
40370,note_on,,,,,290,0,1,,,,,0,63,0
40380,note_on,,,,,10,0,1,,,,,0,63,64
40440,note_on,,,,,0,0,1,,,,,0,65,64
40440,note_on,,,,,60,0,1,,,,,0,63,0
40500,note_on,,,,,0,0,1,,,,,0,63,64
40500,note_on,,,,,60,0,1,,,,,0,65,0
40560,note_on,,,,,240,0,2,,,,,1,60,0
40560,note_on,,,,,0,0,1,,,,,0,62,64
40560,note_on,,,,,0,0,2,,,,,1,58,64
40560,note_on,,,,,60,0,1,,,,,0,63,0
40560,note_on,,,,,240,0,4,,,,,3,45,0
40560,note_on,,,,,0,0,4,,,,,3,46,64
40620,note_on,,,,,0,0,1,,,,,0,72,64
40620,note_on,,,,,60,0,1,,,,,0,62,0
40680,note_on,,,,,60,0,1,,,,,0,72,0
40680,note_on,,,,,0,0,1,,,,,0,70,64
40740,note_on,,,,,60,0,1,,,,,0,70,0
40740,note_on,,,,,0,0,1,,,,,0,68,64
40800,note_on,,,,,0,0,4,,,,,3,51,64
40800,note_on,,,,,240,0,4,,,,,3,46,0
40800,note_on,,,,,60,0,1,,,,,0,68,0
40800,note_on,,,,,0,0,1,,,,,0,67,64
40800,note_on,,,,,480,0,3,,,,,2,53,0
40920,note_on,,,,,360,0,2,,,,,1,58,0
40920,note_on,,,,,120,0,1,,,,,0,67,0
40920,note_on,,,,,0,0,1,,,,,0,70,64
40920,note_on,,,,,0,0,2,,,,,1,63,64
40980,note_on,,,,,0,0,2,,,,,1,65,64
40980,note_on,,,,,60,0,2,,,,,1,63,0
41040,note_on,,,,,120,0,1,,,,,0,70,0
41040,note_on,,,,,0,0,1,,,,,0,75,64
41040,note_on,,,,,240,0,4,,,,,3,51,0
41040,note_on,,,,,0,0,2,,,,,1,67,64
41040,note_on,,,,,60,0,2,,,,,1,65,0
41160,note_on,,,,,120,0,4,,,,,3,51,64
41160,note_on,,,,,0,0,2,,,,,1,67,64
41160,note_on,,,,,120,0,2,,,,,1,67,0
41220,note_on,,,,,60,0,4,,,,,3,51,0
41220,note_on,,,,,0,0,2,,,,,1,68,64
41220,note_on,,,,,60,0,2,,,,,1,67,0
41220,note_on,,,,,0,0,4,,,,,3,53,64
41280,note_on,,,,,60,0,4,,,,,3,53,0
41280,note_on,,,,,0,0,4,,,,,3,55,64
41280,note_on,,,,,0,0,2,,,,,1,70,64
41280,note_on,,,,,60,0,2,,,,,1,68,0
41340,note_on,,,,,300,0,1,,,,,0,75,0
41340,note_on,,,,,0,0,1,,,,,0,79,64
41400,note_on,,,,,120,0,4,,,,,3,55,0
41400,note_on,,,,,0,0,4,,,,,3,55,64
41400,note_on,,,,,600,0,3,,,,,2,58,64
41400,note_on,,,,,60,0,1,,,,,0,79,0
41400,note_on,,,,,0,0,1,,,,,0,77,64
41460,note_on,,,,,60,0,4,,,,,3,55,0
41460,note_on,,,,,0,0,4,,,,,3,56,64
41460,note_on,,,,,60,0,1,,,,,0,77,0
41460,note_on,,,,,0,0,1,,,,,0,75,64
41460,note_on,,,,,60,0,3,,,,,2,58,0
41460,note_on,,,,,0,0,3,,,,,2,60,64
41520,note_on,,,,,60,0,3,,,,,2,60,0
41520,note_on,,,,,0,0,4,,,,,3,58,64
41520,note_on,,,,,60,0,4,,,,,3,56,0
41520,note_on,,,,,60,0,1,,,,,0,75,0
41520,note_on,,,,,0,0,3,,,,,2,62,64
41520,note_on,,,,,0,0,1,,,,,0,74,64
41580,note_on,,,,,0,0,2,,,,,1,68,64
41580,note_on,,,,,300,0,2,,,,,1,70,0
41580,note_on,,,,,60,0,3,,,,,2,62,0
41580,note_on,,,,,0,0,3,,,,,2,60,64
41640,note_on,,,,,120,0,4,,,,,3,58,0
41640,note_on,,,,,0,0,2,,,,,1,67,64
41640,note_on,,,,,0,0,3,,,,,2,58,64
41640,note_on,,,,,60,0,3,,,,,2,60,0
41640,note_on,,,,,0,0,4,,,,,3,46,64
41640,note_on,,,,,60,0,2,,,,,1,68,0
41700,note_on,,,,,0,0,3,,,,,2,56,64
41700,note_on,,,,,0,0,2,,,,,1,65,64
41700,note_on,,,,,60,0,2,,,,,1,67,0
41700,note_on,,,,,60,0,3,,,,,2,58,0
41760,note_on,,,,,120,0,4,,,,,3,46,0
41760,note_on,,,,,0,0,4,,,,,3,48,64
41760,note_on,,,,,0,0,3,,,,,2,55,64
41760,note_on,,,,,60,0,3,,,,,2,56,0
41760,note_on,,,,,60,0,2,,,,,1,65,0
41760,note_on,,,,,0,0,2,,,,,1,63,64
41820,note_on,,,,,60,0,2,,,,,1,63,0
41820,note_on,,,,,0,0,2,,,,,1,62,64
41880,note_on,,,,,60,0,2,,,,,1,62,0
41880,note_on,,,,,0,0,2,,,,,1,60,64
41880,note_on,,,,,360,0,1,,,,,0,74,0
41880,note_on,,,,,0,0,1,,,,,0,67,64
41940,note_on,,,,,60,0,2,,,,,1,60,0
41940,note_on,,,,,0,0,2,,,,,1,62,64
42000,note_on,,,,,240,0,4,,,,,3,48,0
42000,note_on,,,,,0,0,2,,,,,1,63,64
42000,note_on,,,,,0,0,1,,,,,0,72,64
42000,note_on,,,,,120,0,1,,,,,0,67,0
42000,note_on,,,,,240,0,3,,,,,2,55,0
42000,note_on,,,,,60,0,2,,,,,1,62,0
42120,note_on,,,,,120,0,2,,,,,1,63,0
42120,note_on,,,,,120,0,4,,,,,3,48,64
42120,note_on,,,,,0,0,2,,,,,1,63,64
42180,note_on,,,,,60,0,2,,,,,1,63,0
42180,note_on,,,,,0,0,2,,,,,1,65,64
42180,note_on,,,,,60,0,4,,,,,3,48,0
42180,note_on,,,,,0,0,4,,,,,3,50,64
42240,note_on,,,,,0,0,2,,,,,1,67,64
42240,note_on,,,,,60,0,2,,,,,1,65,0
42240,note_on,,,,,60,0,4,,,,,3,50,0
42240,note_on,,,,,0,0,4,,,,,3,51,64
42300,note_on,,,,,300,0,1,,,,,0,72,0
42300,note_on,,,,,0,0,1,,,,,0,75,64
42360,note_on,,,,,360,0,3,,,,,2,55,64
42360,note_on,,,,,0,0,4,,,,,3,51,64
42360,note_on,,,,,60,0,1,,,,,0,75,0
42360,note_on,,,,,0,0,1,,,,,0,74,64
42360,note_on,,,,,120,0,4,,,,,3,51,0
42420,note_on,,,,,60,0,3,,,,,2,55,0
42420,note_on,,,,,60,0,4,,,,,3,51,0
42420,note_on,,,,,60,0,1,,,,,0,74,0
42420,note_on,,,,,0,0,1,,,,,0,72,64
42420,note_on,,,,,0,0,4,,,,,3,53,64
42420,note_on,,,,,0,0,3,,,,,2,56,64
42480,note_on,,,,,60,0,1,,,,,0,72,0
42480,note_on,,,,,0,0,1,,,,,0,70,64
42480,note_on,,,,,60,0,3,,,,,2,56,0
42480,note_on,,,,,0,0,3,,,,,2,58,64
42480,note_on,,,,,60,0,4,,,,,3,53,0
42480,note_on,,,,,0,0,4,,,,,3,55,64
42540,note_on,,,,,300,0,2,,,,,1,67,0
42540,note_on,,,,,0,0,2,,,,,1,65,64
42540,note_on,,,,,60,0,3,,,,,2,58,0
42540,note_on,,,,,0,0,3,,,,,2,56,64
42600,note_on,,,,,120,0,4,,,,,3,55,0
42600,note_on,,,,,0,0,4,,,,,3,43,64
42600,note_on,,,,,0,0,3,,,,,2,55,64
42600,note_on,,,,,0,0,2,,,,,1,63,64
42600,note_on,,,,,60,0,3,,,,,2,56,0
42600,note_on,,,,,60,0,2,,,,,1,65,0
42660,note_on,,,,,60,0,2,,,,,1,63,0
42660,note_on,,,,,0,0,2,,,,,1,61,64
42660,note_on,,,,,60,0,3,,,,,2,55,0
42660,note_on,,,,,0,0,3,,,,,2,53,64
42720,note_on,,,,,60,0,2,,,,,1,61,0
42720,note_on,,,,,60,0,3,,,,,2,53,0
42720,note_on,,,,,120,0,4,,,,,3,43,0
42720,note_on,,,,,0,0,4,,,,,3,44,64
42720,note_on,,,,,0,0,3,,,,,2,51,64
42720,note_on,,,,,0,0,2,,,,,1,60,64
42780,note_on,,,,,60,0,2,,,,,1,60,0
42780,note_on,,,,,0,0,2,,,,,1,58,64
42840,note_on,,,,,360,0,1,,,,,0,70,0
42840,note_on,,,,,0,0,1,,,,,0,63,64
42840,note_on,,,,,0,0,2,,,,,1,56,64
42840,note_on,,,,,60,0,2,,,,,1,58,0
42900,note_on,,,,,60,0,2,,,,,1,56,0
42900,note_on,,,,,0,0,2,,,,,1,58,64
42960,note_on,,,,,0,0,1,,,,,0,68,64
42960,note_on,,,,,120,0,1,,,,,0,63,0
42960,note_on,,,,,240,0,3,,,,,2,51,0
42960,note_on,,,,,240,0,4,,,,,3,44,0
42960,note_on,,,,,60,0,2,,,,,1,58,0
42960,note_on,,,,,0,0,2,,,,,1,60,64
43080,note_on,,,,,120,0,2,,,,,1,60,0
43080,note_on,,,,,0,0,2,,,,,1,60,64
43080,note_on,,,,,120,0,4,,,,,3,44,64
43140,note_on,,,,,60,0,4,,,,,3,44,0
43140,note_on,,,,,0,0,4,,,,,3,46,64
43140,note_on,,,,,0,0,2,,,,,1,62,64
43140,note_on,,,,,60,0,2,,,,,1,60,0
43200,note_on,,,,,0,0,2,,,,,1,63,64
43200,note_on,,,,,60,0,2,,,,,1,62,0
43200,note_on,,,,,60,0,4,,,,,3,46,0
43200,note_on,,,,,0,0,4,,,,,3,48,64
43260,note_on,,,,,300,0,1,,,,,0,68,0
43260,note_on,,,,,0,0,1,,,,,0,72,64
43320,note_on,,,,,360,0,3,,,,,2,51,64
43320,note_on,,,,,60,0,1,,,,,0,72,0
43320,note_on,,,,,0,0,1,,,,,0,70,64
43320,note_on,,,,,0,0,4,,,,,3,48,64
43320,note_on,,,,,120,0,4,,,,,3,48,0
43380,note_on,,,,,60,0,1,,,,,0,70,0
43380,note_on,,,,,0,0,1,,,,,0,68,64
43380,note_on,,,,,0,0,4,,,,,3,50,64
43380,note_on,,,,,60,0,4,,,,,3,48,0
43380,note_on,,,,,60,0,3,,,,,2,51,0
43380,note_on,,,,,0,0,3,,,,,2,53,64
43440,note_on,,,,,60,0,1,,,,,0,68,0
43440,note_on,,,,,0,0,1,,,,,0,67,64
43440,note_on,,,,,0,0,4,,,,,3,51,64
43440,note_on,,,,,60,0,4,,,,,3,50,0
43440,note_on,,,,,0,0,3,,,,,2,55,64
43440,note_on,,,,,60,0,3,,,,,2,53,0
43500,note_on,,,,,60,0,3,,,,,2,55,0
43500,note_on,,,,,0,0,2,,,,,1,62,64
43500,note_on,,,,,0,0,3,,,,,2,53,64
43500,note_on,,,,,300,0,2,,,,,1,63,0
43560,note_on,,,,,60,0,3,,,,,2,53,0
43560,note_on,,,,,0,0,3,,,,,2,51,64
43560,note_on,,,,,0,0,2,,,,,1,60,64
43560,note_on,,,,,120,0,4,,,,,3,51,0
43560,note_on,,,,,0,0,4,,,,,3,39,64
43560,note_on,,,,,60,0,2,,,,,1,62,0
43620,note_on,,,,,60,0,3,,,,,2,51,0
43620,note_on,,,,,60,0,2,,,,,1,60,0
43620,note_on,,,,,0,0,2,,,,,1,58,64
43620,note_on,,,,,0,0,3,,,,,2,50,64
43680,note_on,,,,,0,0,3,,,,,2,48,64
43680,note_on,,,,,60,0,3,,,,,2,50,0
43680,note_on,,,,,0,0,4,,,,,3,41,64
43680,note_on,,,,,120,0,4,,,,,3,39,0
43680,note_on,,,,,60,0,2,,,,,1,58,0
43680,note_on,,,,,0,0,2,,,,,1,56,64
43740,note_on,,,,,0,0,1,,,,,0,65,64
43740,note_on,,,,,300,0,1,,,,,0,67,0
43800,note_on,,,,,120,0,2,,,,,1,56,0
43800,note_on,,,,,0,0,2,,,,,1,50,64
43800,note_on,,,,,120,0,4,,,,,3,41,0
43800,note_on,,,,,60,0,1,,,,,0,65,0
43800,note_on,,,,,0,0,1,,,,,0,68,64
43800,note_on,,,,,0,0,4,,,,,3,43,64
43800,note_on,,,,,0,0,3,,,,,2,47,64
43800,note_on,,,,,120,0,3,,,,,2,48,0
43860,note_on,,,,,0,0,2,,,,,1,51,64
43860,note_on,,,,,0,0,1,,,,,0,67,64
43860,note_on,,,,,60,0,1,,,,,0,68,0
43860,note_on,,,,,60,0,2,,,,,1,50,0
43920,note_on,,,,,0,0,3,,,,,2,48,64
43920,note_on,,,,,0,0,1,,,,,0,65,64
43920,note_on,,,,,60,0,1,,,,,0,67,0
43920,note_on,,,,,120,0,3,,,,,2,47,0
43920,note_on,,,,,120,0,4,,,,,3,43,0
43920,note_on,,,,,60,0,2,,,,,1,51,0
43920,note_on,,,,,0,0,2,,,,,1,53,64
43920,note_on,,,,,0,0,4,,,,,3,44,64
43980,note_on,,,,,0,0,1,,,,,0,63,64
43980,note_on,,,,,60,0,1,,,,,0,65,0
44040,note_on,,,,,120,0,2,,,,,1,53,0
44040,note_on,,,,,0,0,2,,,,,1,54,64
44040,note_on,,,,,120,0,4,,,,,3,44,0
44040,note_on,,,,,0,0,1,,,,,0,62,64
44040,note_on,,,,,0,0,4,,,,,3,45,64
44040,note_on,,,,,60,0,1,,,,,0,63,0
44100,note_on,,,,,60,0,1,,,,,0,62,0
44100,note_on,,,,,0,0,1,,,,,0,60,64
44160,note_on,,,,,0,0,3,,,,,2,50,64
44160,note_on,,,,,120,0,2,,,,,1,54,0
44160,note_on,,,,,240,0,3,,,,,2,48,0
44160,note_on,,,,,60,0,1,,,,,0,60,0
44160,note_on,,,,,0,0,1,,,,,0,59,64
44160,note_on,,,,,120,0,4,,,,,3,45,0
44160,note_on,,,,,0,0,4,,,,,3,43,64
44160,note_on,,,,,0,0,2,,,,,1,55,64
44280,note_on,,,,,120,0,3,,,,,2,50,0
44280,note_on,,,,,0,0,3,,,,,2,55,64
44280,note_on,,,,,120,0,4,,,,,3,43,0
44280,note_on,,,,,120,0,2,,,,,1,55,0
44340,note_on,,,,,60,0,3,,,,,2,55,0
44340,note_on,,,,,0,0,3,,,,,2,57,64
44400,note_on,,,,,0,0,1,,,,,0,79,69
44400,note_on,,,,,240,0,1,,,,,0,59,0
44400,note_on,,,,,60,0,3,,,,,2,57,0
44400,note_on,,,,,0,0,3,,,,,2,59,64
44520,note_on,,,,,0,0,3,,,,,2,57,64
44520,note_on,,,,,120,0,3,,,,,2,59,0
44580,note_on,,,,,0,0,3,,,,,2,59,64
44580,note_on,,,,,60,0,3,,,,,2,57,0
44640,note_on,,,,,0,0,1,,,,,0,80,69
44640,note_on,,,,,60,0,3,,,,,2,59,0
44640,note_on,,,,,240,0,1,,,,,0,79,0
44640,note_on,,,,,0,0,3,,,,,2,60,64
44700,note_on,,,,,60,0,3,,,,,2,60,0
44700,note_on,,,,,0,0,3,,,,,2,59,64
44760,note_on,,,,,60,0,3,,,,,2,59,0
44760,note_on,,,,,480,0,2,,,,,1,72,64
44760,note_on,,,,,0,0,3,,,,,2,60,64
44820,note_on,,,,,60,0,3,,,,,2,60,0
44820,note_on,,,,,0,0,3,,,,,2,62,64
44880,note_on,,,,,240,0,1,,,,,0,80,0
44880,note_on,,,,,0,0,1,,,,,0,79,69
44880,note_on,,,,,0,0,3,,,,,2,63,64
44880,note_on,,,,,60,0,3,,,,,2,62,0
45000,note_on,,,,,240,0,2,,,,,1,72,0
45000,note_on,,,,,0,0,2,,,,,1,70,64
45120,note_on,,,,,240,0,3,,,,,2,63,0
45120,note_on,,,,,120,0,2,,,,,1,70,0
45120,note_on,,,,,0,0,2,,,,,1,69,64
45120,note_on,,,,,240,0,1,,,,,0,79,0
45120,note_on,,,,,0,0,1,,,,,0,78,69
45180,note_on,,,,,60,0,3,,,,,2,60,64
45240,note_on,,,,,60,0,3,,,,,2,60,0
45240,note_on,,,,,0,0,2,,,,,1,70,64
45240,note_on,,,,,0,0,3,,,,,2,62,64
45240,note_on,,,,,120,0,2,,,,,1,69,0
45300,note_on,,,,,60,0,2,,,,,1,70,0
45300,note_on,,,,,0,0,3,,,,,2,63,64
45300,note_on,,,,,60,0,3,,,,,2,62,0
45300,note_on,,,,,0,0,2,,,,,1,72,64
45360,note_on,,,,,60,0,2,,,,,1,72,0
45360,note_on,,,,,0,0,2,,,,,1,74,64
45360,note_on,,,,,60,0,3,,,,,2,63,0
45360,note_on,,,,,240,0,1,,,,,0,78,0
45360,note_on,,,,,0,0,1,,,,,0,83,69
45360,note_on,,,,,0,0,3,,,,,2,65,64
45420,note_on,,,,,0,0,2,,,,,1,72,64
45420,note_on,,,,,60,0,2,,,,,1,74,0
45480,note_on,,,,,0,0,2,,,,,1,71,64
45480,note_on,,,,,60,0,2,,,,,1,72,0
45540,note_on,,,,,60,0,2,,,,,1,71,0
45540,note_on,,,,,0,0,2,,,,,1,69,64
45600,note_on,,,,,0,0,1,,,,,0,84,69
45600,note_on,,,,,60,0,2,,,,,1,69,0
45600,note_on,,,,,240,0,1,,,,,0,83,0
45600,note_on,,,,,0,0,2,,,,,1,67,64
45660,note_on,,,,,0,0,3,,,,,2,63,64
45660,note_on,,,,,300,0,3,,,,,2,65,0
45720,note_on,,,,,0,0,3,,,,,2,65,64
45720,note_on,,,,,60,0,3,,,,,2,63,0
45780,note_on,,,,,60,0,3,,,,,2,65,0
45780,note_on,,,,,0,0,3,,,,,2,67,64
45840,note_on,,,,,240,0,1,,,,,0,84,0
45840,note_on,,,,,240,0,2,,,,,1,67,0
45840,note_on,,,,,60,0,3,,,,,2,67,0
45840,note_on,,,,,0,0,1,,,,,0,77,69
45840,note_on,,,,,0,0,2,,,,,1,68,64
45900,note_on,,,,,60,0,3,,,,,2,55,64
45960,note_on,,,,,60,0,3,,,,,2,55,0
45960,note_on,,,,,0,0,3,,,,,2,56,64
46020,note_on,,,,,0,0,3,,,,,2,58,64
46020,note_on,,,,,60,0,3,,,,,2,56,0
46080,note_on,,,,,240,0,2,,,,,1,68,0
46080,note_on,,,,,0,0,3,,,,,2,60,64
46080,note_on,,,,,240,0,1,,,,,0,77,0
46080,note_on,,,,,0,0,1,,,,,0,76,69
46080,note_on,,,,,60,0,3,,,,,2,58,0
46140,note_on,,,,,60,0,2,,,,,1,67,64
46200,note_on,,,,,0,0,2,,,,,1,69,64
46200,note_on,,,,,60,0,2,,,,,1,67,0
46260,note_on,,,,,60,0,2,,,,,1,69,0
46260,note_on,,,,,0,0,2,,,,,1,71,64
46320,note_on,,,,,240,0,1,,,,,0,76,0
46320,note_on,,,,,0,0,1,,,,,0,75,69
46320,note_on,,,,,240,0,3,,,,,2,60,0
46320,note_on,,,,,0,0,2,,,,,1,72,64
46320,note_on,,,,,60,0,2,,,,,1,71,0
46380,note_on,,,,,60,0,3,,,,,2,60,64
46440,note_on,,,,,60,0,3,,,,,2,60,0
46440,note_on,,,,,0,0,3,,,,,2,62,64
46500,note_on,,,,,0,0,3,,,,,2,64,64
46500,note_on,,,,,60,0,3,,,,,2,62,0
46560,note_on,,,,,240,0,1,,,,,0,75,0
46560,note_on,,,,,0,0,1,,,,,0,74,69
46560,note_on,,,,,0,0,3,,,,,2,65,64
46560,note_on,,,,,60,0,3,,,,,2,64,0
46620,note_on,,,,,60,0,3,,,,,2,65,0
46620,note_on,,,,,0,0,3,,,,,2,62,64
46680,note_on,,,,,0,0,2,,,,,1,71,64
46680,note_on,,,,,360,0,2,,,,,1,72,0
46680,note_on,,,,,60,0,3,,,,,2,62,0
46680,note_on,,,,,0,0,3,,,,,2,64,64
46740,note_on,,,,,0,0,2,,,,,1,69,64
46740,note_on,,,,,60,0,3,,,,,2,64,0
46740,note_on,,,,,0,0,3,,,,,2,65,64
46740,note_on,,,,,60,0,2,,,,,1,71,0
46800,note_on,,,,,60,0,3,,,,,2,65,0
46800,note_on,,,,,0,0,3,,,,,2,67,64
46800,note_on,,,,,60,0,2,,,,,1,69,0
46800,note_on,,,,,0,0,2,,,,,1,71,64
46860,note_on,,,,,0,0,2,,,,,1,72,64
46860,note_on,,,,,60,0,3,,,,,2,67,0
46860,note_on,,,,,0,0,3,,,,,2,68,64
46860,note_on,,,,,60,0,2,,,,,1,71,0
46920,note_on,,,,,0,0,3,,,,,2,67,64
46920,note_on,,,,,60,0,2,,,,,1,72,0
46920,note_on,,,,,0,0,2,,,,,1,71,64
46920,note_on,,,,,60,0,3,,,,,2,68,0
46980,note_on,,,,,0,0,3,,,,,2,65,64
46980,note_on,,,,,60,0,3,,,,,2,67,0
46980,note_on,,,,,0,0,2,,,,,1,74,64
46980,note_on,,,,,60,0,2,,,,,1,71,0
47040,note_on,,,,,0,0,3,,,,,2,63,64
47040,note_on,,,,,60,0,3,,,,,2,65,0
47040,note_on,,,,,0,0,2,,,,,1,67,64
47040,note_on,,,,,60,0,2,,,,,1,74,0
47100,note_on,,,,,60,0,3,,,,,2,63,0
47100,note_on,,,,,0,0,3,,,,,2,65,64
47160,note_on,,,,,60,0,3,,,,,2,65,0
47160,note_on,,,,,0,0,1,,,,,0,72,64
47160,note_on,,,,,0,0,3,,,,,2,63,64
47160,note_on,,,,,600,0,1,,,,,0,74,0
47220,note_on,,,,,60,0,1,,,,,0,72,0
47220,note_on,,,,,0,0,3,,,,,2,62,64
47220,note_on,,,,,60,0,3,,,,,2,63,0
47220,note_on,,,,,0,0,1,,,,,0,74,64
47280,note_on,,,,,0,0,3,,,,,2,60,64
47280,note_on,,,,,60,0,3,,,,,2,62,0
47280,note_on,,,,,0,0,1,,,,,0,75,64
47280,note_on,,,,,240,0,2,,,,,1,67,0
47280,note_on,,,,,60,0,1,,,,,0,74,0
47400,note_on,,,,,120,0,3,,,,,2,60,0
47400,note_on,,,,,120,0,2,,,,,1,67,64
47400,note_on,,,,,0,0,3,,,,,2,60,64
47460,note_on,,,,,60,0,3,,,,,2,60,0
47460,note_on,,,,,0,0,3,,,,,2,58,64
47520,note_on,,,,,0,0,3,,,,,2,57,64
47520,note_on,,,,,120,0,2,,,,,1,67,0
47520,note_on,,,,,0,0,2,,,,,1,60,64
47520,note_on,,,,,60,0,3,,,,,2,58,0
47640,note_on,,,,,120,0,2,,,,,1,60,0
47640,note_on,,,,,0,0,2,,,,,1,72,64
47640,note_on,,,,,0,0,3,,,,,2,57,64
47640,note_on,,,,,120,0,3,,,,,2,57,0
47700,note_on,,,,,0,0,3,,,,,2,55,64
47700,note_on,,,,,60,0,3,,,,,2,57,0
47700,note_on,,,,,0,0,2,,,,,1,70,64
47700,note_on,,,,,60,0,2,,,,,1,72,0
47760,note_on,,,,,0,0,3,,,,,2,53,64
47760,note_on,,,,,0,0,2,,,,,1,69,64
47760,note_on,,,,,60,0,2,,,,,1,70,0
47760,note_on,,,,,60,0,3,,,,,2,55,0
47880,note_on,,,,,120,0,3,,,,,2,53,0
47880,note_on,,,,,0,0,2,,,,,1,70,64
47880,note_on,,,,,120,0,2,,,,,1,69,0
47880,note_on,,,,,0,0,3,,,,,2,55,64
47940,note_on,,,,,0,0,2,,,,,1,72,64
47940,note_on,,,,,60,0,2,,,,,1,70,0
47940,note_on,,,,,0,0,3,,,,,2,57,64
47940,note_on,,,,,60,0,3,,,,,2,55,0
48000,note_on,,,,,0,0,3,,,,,2,58,64
48000,note_on,,,,,60,0,3,,,,,2,57,0
48000,note_on,,,,,60,0,2,,,,,1,72,0
48000,note_on,,,,,0,0,2,,,,,1,65,64
48120,note_on,,,,,0,0,1,,,,,0,74,64
48120,note_on,,,,,0,0,2,,,,,1,70,64
48120,note_on,,,,,120,0,3,,,,,2,58,0
48120,note_on,,,,,0,0,3,,,,,2,65,64
48120,note_on,,,,,840,0,1,,,,,0,75,0
48120,note_on,,,,,120,0,2,,,,,1,65,0
48180,note_on,,,,,60,0,1,,,,,0,74,0
48180,note_on,,,,,0,0,3,,,,,2,63,64
48180,note_on,,,,,60,0,3,,,,,2,65,0
48180,note_on,,,,,0,0,1,,,,,0,75,64
48240,note_on,,,,,0,0,1,,,,,0,77,64
48240,note_on,,,,,0,0,3,,,,,2,62,64
48240,note_on,,,,,60,0,3,,,,,2,63,0
48240,note_on,,,,,120,0,2,,,,,1,70,0
48240,note_on,,,,,60,0,1,,,,,0,75,0
48360,note_on,,,,,120,0,2,,,,,1,68,64
48360,note_on,,,,,120,0,3,,,,,2,62,0
48360,note_on,,,,,0,0,3,,,,,2,62,64
48420,note_on,,,,,60,0,3,,,,,2,62,0
48420,note_on,,,,,0,0,3,,,,,2,60,64
48480,note_on,,,,,0,0,3,,,,,2,59,64
48480,note_on,,,,,0,0,2,,,,,1,67,64
48480,note_on,,,,,120,0,2,,,,,1,68,0
48480,note_on,,,,,60,0,3,,,,,2,60,0
48600,note_on,,,,,0,0,2,,,,,1,74,64
48600,note_on,,,,,0,0,3,,,,,2,59,64
48600,note_on,,,,,120,0,3,,,,,2,59,0
48600,note_on,,,,,120,0,2,,,,,1,67,0
48660,note_on,,,,,60,0,3,,,,,2,59,0
48660,note_on,,,,,0,0,2,,,,,1,72,64
48660,note_on,,,,,0,0,3,,,,,2,57,64
48660,note_on,,,,,60,0,2,,,,,1,74,0
48720,note_on,,,,,0,0,2,,,,,1,71,64
48720,note_on,,,,,60,0,2,,,,,1,72,0
48720,note_on,,,,,60,0,3,,,,,2,57,0
48720,note_on,,,,,0,0,3,,,,,2,55,64
48840,note_on,,,,,0,0,3,,,,,2,57,64
48840,note_on,,,,,0,0,2,,,,,1,72,64
48840,note_on,,,,,120,0,3,,,,,2,55,0
48840,note_on,,,,,120,0,2,,,,,1,71,0
48900,note_on,,,,,60,0,3,,,,,2,57,0
48900,note_on,,,,,0,0,2,,,,,1,74,64
48900,note_on,,,,,60,0,2,,,,,1,72,0
48900,note_on,,,,,0,0,3,,,,,2,59,64
48960,note_on,,,,,60,0,2,,,,,1,74,0
48960,note_on,,,,,60,0,3,,,,,2,59,0
48960,note_on,,,,,0,0,3,,,,,2,60,64
48960,note_on,,,,,0,0,2,,,,,1,67,64
49020,note_on,,,,,0,0,1,,,,,0,74,64
49020,note_on,,,,,780,0,1,,,,,0,77,0
49080,note_on,,,,,0,0,3,,,,,2,58,64
49080,note_on,,,,,60,0,1,,,,,0,74,0
49080,note_on,,,,,0,0,1,,,,,0,76,64
49080,note_on,,,,,120,0,3,,,,,2,60,0
49140,note_on,,,,,60,0,3,,,,,2,58,0
49140,note_on,,,,,0,0,3,,,,,2,56,64
49140,note_on,,,,,60,0,1,,,,,0,76,0
49140,note_on,,,,,0,0,1,,,,,0,79,64
49200,note_on,,,,,60,0,3,,,,,2,56,0
49200,note_on,,,,,0,0,3,,,,,2,55,64
49200,note_on,,,,,60,0,1,,,,,0,79,0
49200,note_on,,,,,0,0,1,,,,,0,70,64
49200,note_on,,,,,240,0,2,,,,,1,67,0
49320,note_on,,,,,120,0,2,,,,,1,61,64
49320,note_on,,,,,120,0,3,,,,,2,55,0
49320,note_on,,,,,0,0,3,,,,,2,55,64
49380,note_on,,,,,60,0,3,,,,,2,55,0
49380,note_on,,,,,0,0,3,,,,,2,53,64
49440,note_on,,,,,60,0,3,,,,,2,53,0
49440,note_on,,,,,0,0,3,,,,,2,52,64
49440,note_on,,,,,120,0,2,,,,,1,61,0
49440,note_on,,,,,0,0,2,,,,,1,60,64
49560,note_on,,,,,120,0,3,,,,,2,52,0
49560,note_on,,,,,0,0,3,,,,,2,52,64
49560,note_on,,,,,120,0,2,,,,,1,60,0
49560,note_on,,,,,0,0,2,,,,,1,67,64
49620,note_on,,,,,60,0,2,,,,,1,67,0
49620,note_on,,,,,60,0,3,,,,,2,52,0
49620,note_on,,,,,0,0,3,,,,,2,50,64
49620,note_on,,,,,0,0,2,,,,,1,65,64
49680,note_on,,,,,60,0,2,,,,,1,65,0
49680,note_on,,,,,0,0,2,,,,,1,64,64
49680,note_on,,,,,0,0,3,,,,,2,48,64
49680,note_on,,,,,60,0,3,,,,,2,50,0
49800,note_on,,,,,120,0,3,,,,,2,48,0
49800,note_on,,,,,0,0,3,,,,,2,50,64
49800,note_on,,,,,0,0,2,,,,,1,65,64
49800,note_on,,,,,120,0,2,,,,,1,64,0
49860,note_on,,,,,0,0,2,,,,,1,67,64
49860,note_on,,,,,60,0,2,,,,,1,65,0
49860,note_on,,,,,60,0,3,,,,,2,50,0
49860,note_on,,,,,0,0,3,,,,,2,52,64
49920,note_on,,,,,0,0,2,,,,,1,60,64
49920,note_on,,,,,60,0,2,,,,,1,67,0
49920,note_on,,,,,60,0,3,,,,,2,52,0
49920,note_on,,,,,0,0,3,,,,,2,53,64
49980,note_on,,,,,60,0,3,,,,,2,53,0
49980,note_on,,,,,0,0,3,,,,,2,55,64
50040,note_on,,,,,0,0,2,,,,,1,65,64
50040,note_on,,,,,60,0,3,,,,,2,55,0
50040,note_on,,,,,0,0,3,,,,,2,56,64
50040,note_on,,,,,120,0,2,,,,,1,60,0
50040,note_on,,,,,840,0,1,,,,,0,70,0
50040,note_on,,,,,0,0,1,,,,,0,68,64
50100,note_on,,,,,0,0,3,,,,,2,58,64
50100,note_on,,,,,60,0,3,,,,,2,56,0
50160,note_on,,,,,120,0,1,,,,,0,68,0
50160,note_on,,,,,5880,0,4,,,,,3,48,69
50160,note_on,,,,,0,0,1,,,,,0,67,64
50160,note_on,,,,,0,0,3,,,,,2,60,64
50160,note_on,,,,,60,0,3,,,,,2,58,0
50280,note_on,,,,,240,0,2,,,,,1,65,0
50280,note_on,,,,,0,0,2,,,,,1,64,64
50400,note_on,,,,,0,0,4,,,,,3,49,69
50400,note_on,,,,,240,0,4,,,,,3,48,0
50400,note_on,,,,,120,0,2,,,,,1,64,0
50400,note_on,,,,,240,0,1,,,,,0,67,0
50400,note_on,,,,,0,0,2,,,,,1,65,64
50460,note_on,,,,,60,0,1,,,,,0,64,64
50520,note_on,,,,,360,0,3,,,,,2,60,0
50520,note_on,,,,,60,0,1,,,,,0,64,0
50520,note_on,,,,,0,0,1,,,,,0,65,64
50520,note_on,,,,,0,0,3,,,,,2,58,64
50580,note_on,,,,,60,0,1,,,,,0,65,0
50580,note_on,,,,,0,0,1,,,,,0,67,64
50640,note_on,,,,,120,0,3,,,,,2,58,0
50640,note_on,,,,,240,0,4,,,,,3,49,0
50640,note_on,,,,,0,0,1,,,,,0,68,64
50640,note_on,,,,,0,0,4,,,,,3,48,69
50640,note_on,,,,,240,0,2,,,,,1,65,0
50640,note_on,,,,,60,0,1,,,,,0,67,0
50700,note_on,,,,,60,0,2,,,,,1,67,64
50760,note_on,,,,,60,0,2,,,,,1,67,0
50760,note_on,,,,,0,0,2,,,,,1,65,64
50760,note_on,,,,,120,0,3,,,,,2,56,64
50820,note_on,,,,,60,0,2,,,,,1,65,0
50820,note_on,,,,,0,0,2,,,,,1,63,64
50880,note_on,,,,,0,0,4,,,,,3,47,69
50880,note_on,,,,,240,0,4,,,,,3,48,0
50880,note_on,,,,,60,0,2,,,,,1,63,0
50880,note_on,,,,,0,0,2,,,,,1,62,64
50880,note_on,,,,,240,0,1,,,,,0,68,0
50940,note_on,,,,,60,0,1,,,,,0,65,64
51000,note_on,,,,,240,0,3,,,,,2,56,0
51000,note_on,,,,,0,0,1,,,,,0,67,64
51000,note_on,,,,,60,0,1,,,,,0,65,0
51000,note_on,,,,,0,0,3,,,,,2,55,64
51060,note_on,,,,,60,0,3,,,,,2,55,0
51060,note_on,,,,,0,0,3,,,,,2,53,64
51060,note_on,,,,,60,0,1,,,,,0,67,0
51060,note_on,,,,,0,0,1,,,,,0,68,64
51120,note_on,,,,,60,0,1,,,,,0,68,0
51120,note_on,,,,,0,0,1,,,,,0,70,64
51120,note_on,,,,,240,0,2,,,,,1,62,0
51120,note_on,,,,,0,0,4,,,,,3,52,69
51120,note_on,,,,,240,0,4,,,,,3,47,0
51120,note_on,,,,,60,0,3,,,,,2,53,0
51120,note_on,,,,,0,0,3,,,,,2,55,64
51180,note_on,,,,,60,0,3,,,,,2,55,0
51180,note_on,,,,,0,0,3,,,,,2,58,64
51240,note_on,,,,,120,0,2,,,,,1,61,64
51240,note_on,,,,,60,0,3,,,,,2,58,0
51240,note_on,,,,,0,0,3,,,,,2,56,64
51300,note_on,,,,,0,0,3,,,,,2,55,64
51300,note_on,,,,,60,0,3,,,,,2,56,0
51360,note_on,,,,,240,0,4,,,,,3,52,0
51360,note_on,,,,,240,0,1,,,,,0,70,0
51360,note_on,,,,,60,0,3,,,,,2,55,0
51360,note_on,,,,,0,0,4,,,,,3,53,69
51420,note_on,,,,,60,0,1,,,,,0,68,64
51480,note_on,,,,,0,0,1,,,,,0,70,64
51480,note_on,,,,,0,0,2,,,,,1,60,64
51480,note_on,,,,,60,0,1,,,,,0,68,0
51480,note_on,,,,,120,0,3,,,,,2,55,64
51480,note_on,,,,,240,0,2,,,,,1,61,0
51540,note_on,,,,,0,0,3,,,,,2,56,64
51540,note_on,,,,,60,0,3,,,,,2,55,0
51540,note_on,,,,,60,0,1,,,,,0,70,0
51540,note_on,,,,,0,0,1,,,,,0,72,64
51600,note_on,,,,,240,0,4,,,,,3,53,0
51600,note_on,,,,,0,0,4,,,,,3,46,69
51600,note_on,,,,,120,0,2,,,,,1,60,0
51600,note_on,,,,,0,0,1,,,,,0,73,64
51600,note_on,,,,,0,0,3,,,,,2,58,64
51600,note_on,,,,,60,0,3,,,,,2,56,0
51600,note_on,,,,,60,0,1,,,,,0,72,0
51660,note_on,,,,,0,0,3,,,,,2,53,64
51660,note_on,,,,,60,0,3,,,,,2,58,0
51720,note_on,,,,,120,0,2,,,,,1,66,64
51720,note_on,,,,,0,0,3,,,,,2,51,64
51720,note_on,,,,,60,0,3,,,,,2,53,0
51780,note_on,,,,,0,0,3,,,,,2,49,64
51780,note_on,,,,,60,0,3,,,,,2,51,0
51840,note_on,,,,,0,0,4,,,,,3,45,69
51840,note_on,,,,,0,0,3,,,,,2,48,64
51840,note_on,,,,,60,0,3,,,,,2,49,0
51840,note_on,,,,,240,0,4,,,,,3,46,0
51840,note_on,,,,,240,0,1,,,,,0,73,0
51900,note_on,,,,,60,0,1,,,,,0,72,64
51960,note_on,,,,,60,0,1,,,,,0,72,0
51960,note_on,,,,,240,0,2,,,,,1,66,0
51960,note_on,,,,,0,0,2,,,,,1,65,64
51960,note_on,,,,,0,0,1,,,,,0,74,64
52020,note_on,,,,,0,0,1,,,,,0,76,64
52020,note_on,,,,,60,0,1,,,,,0,74,0
52080,note_on,,,,,0,0,1,,,,,0,77,64
52080,note_on,,,,,240,0,4,,,,,3,45,0
52080,note_on,,,,,120,0,2,,,,,1,65,0
52080,note_on,,,,,60,0,1,,,,,0,76,0
52080,note_on,,,,,0,0,4,,,,,3,44,69
52140,note_on,,,,,300,0,3,,,,,2,48,0
52140,note_on,,,,,0,0,3,,,,,2,50,64
52140,note_on,,,,,60,0,2,,,,,1,65,64
52200,note_on,,,,,60,0,2,,,,,1,65,0
52200,note_on,,,,,60,0,3,,,,,2,50,0
52200,note_on,,,,,0,0,3,,,,,2,52,64
52200,note_on,,,,,0,0,2,,,,,1,67,64
52260,note_on,,,,,0,0,3,,,,,2,53,64
52260,note_on,,,,,60,0,2,,,,,1,67,0
52260,note_on,,,,,0,0,2,,,,,1,68,64
52260,note_on,,,,,60,0,3,,,,,2,52,0
52320,note_on,,,,,0,0,3,,,,,2,55,64
52320,note_on,,,,,60,0,2,,,,,1,68,0
52320,note_on,,,,,0,0,2,,,,,1,70,64
52320,note_on,,,,,0,0,4,,,,,3,43,69
52320,note_on,,,,,60,0,3,,,,,2,53,0
52320,note_on,,,,,240,0,4,,,,,3,44,0
52440,note_on,,,,,360,0,1,,,,,0,77,0
52440,note_on,,,,,0,0,1,,,,,0,76,64
52500,note_on,,,,,60,0,1,,,,,0,76,0
52500,note_on,,,,,0,0,1,,,,,0,74,64
52560,note_on,,,,,0,0,1,,,,,0,76,64
52560,note_on,,,,,60,0,1,,,,,0,74,0
52620,note_on,,,,,300,0,3,,,,,2,55,0
52620,note_on,,,,,0,0,3,,,,,2,45,64
52680,note_on,,,,,0,0,3,,,,,2,46,64
52680,note_on,,,,,60,0,3,,,,,2,45,0
52740,note_on,,,,,0,0,3,,,,,2,48,64
52740,note_on,,,,,60,0,3,,,,,2,46,0
52800,note_on,,,,,0,0,1,,,,,0,77,64
52800,note_on,,,,,240,0,1,,,,,0,76,0
52800,note_on,,,,,0,0,3,,,,,2,49,64
52800,note_on,,,,,480,0,4,,,,,3,43,0
52800,note_on,,,,,0,0,4,,,,,3,41,69
52800,note_on,,,,,60,0,3,,,,,2,48,0
52860,note_on,,,,,540,0,2,,,,,1,70,0
52860,note_on,,,,,0,0,2,,,,,1,73,64
52860,note_on,,,,,0,0,3,,,,,2,48,64
52860,note_on,,,,,60,0,3,,,,,2,49,0
52920,note_on,,,,,60,0,2,,,,,1,73,0
52920,note_on,,,,,0,0,2,,,,,1,72,64
52920,note_on,,,,,60,0,3,,,,,2,48,0
52920,note_on,,,,,0,0,3,,,,,2,49,64
52980,note_on,,,,,60,0,3,,,,,2,49,0
52980,note_on,,,,,0,0,2,,,,,1,70,64
52980,note_on,,,,,0,0,3,,,,,2,51,64
52980,note_on,,,,,60,0,2,,,,,1,72,0
53040,note_on,,,,,60,0,3,,,,,2,51,0
53040,note_on,,,,,60,0,2,,,,,1,70,0
53040,note_on,,,,,0,0,2,,,,,1,69,64
53040,note_on,,,,,0,0,3,,,,,2,53,64
53090,note_on,,,,,290,0,4,,,,,3,41,0
53100,note_on,,,,,10,0,4,,,,,3,41,64
53100,note_on,,,,,300,0,1,,,,,0,77,0
53100,note_on,,,,,0,0,1,,,,,0,75,64
53160,note_on,,,,,60,0,1,,,,,0,75,0
53160,note_on,,,,,0,0,1,,,,,0,73,64
53160,note_on,,,,,60,0,4,,,,,3,41,0
53160,note_on,,,,,0,0,4,,,,,3,43,64
53220,note_on,,,,,0,0,4,,,,,3,45,64
53220,note_on,,,,,0,0,1,,,,,0,72,64
53220,note_on,,,,,60,0,4,,,,,3,43,0
53220,note_on,,,,,60,0,1,,,,,0,73,0
53280,note_on,,,,,60,0,4,,,,,3,45,0
53280,note_on,,,,,0,0,4,,,,,3,46,64
53280,note_on,,,,,60,0,1,,,,,0,72,0
53280,note_on,,,,,0,0,1,,,,,0,73,64
53330,note_on,,,,,290,0,3,,,,,2,53,0
53340,note_on,,,,,10,0,3,,,,,2,53,64
53340,note_on,,,,,0,0,2,,,,,1,72,64
53340,note_on,,,,,300,0,2,,,,,1,69,0
53400,note_on,,,,,60,0,3,,,,,2,53,0
53400,note_on,,,,,60,0,2,,,,,1,72,0
53400,note_on,,,,,0,0,2,,,,,1,70,64
53400,note_on,,,,,0,0,3,,,,,2,55,64
53460,note_on,,,,,60,0,3,,,,,2,55,0
53460,note_on,,,,,60,0,2,,,,,1,70,0
53460,note_on,,,,,0,0,2,,,,,1,68,64
53460,note_on,,,,,0,0,3,,,,,2,56,64
53520,note_on,,,,,60,0,3,,,,,2,56,0
53520,note_on,,,,,60,0,2,,,,,1,68,0
53520,note_on,,,,,0,0,3,,,,,2,58,64
53520,note_on,,,,,0,0,2,,,,,1,67,64
53580,note_on,,,,,0,0,2,,,,,1,65,64
53580,note_on,,,,,0,0,1,,,,,0,70,64
53580,note_on,,,,,300,0,1,,,,,0,73,0
53580,note_on,,,,,300,0,4,,,,,3,46,0
53580,note_on,,,,,0,0,4,,,,,3,49,64
53580,note_on,,,,,60,0,2,,,,,1,67,0
53640,note_on,,,,,60,0,2,,,,,1,65,0
53640,note_on,,,,,0,0,2,,,,,1,63,64
53640,note_on,,,,,0,0,4,,,,,3,48,64
53640,note_on,,,,,60,0,4,,,,,3,49,0
53640,note_on,,,,,60,0,1,,,,,0,70,0
53640,note_on,,,,,0,0,1,,,,,0,72,64
53700,note_on,,,,,60,0,4,,,,,3,48,0
53700,note_on,,,,,60,0,1,,,,,0,72,0
53700,note_on,,,,,0,0,1,,,,,0,73,64
53700,note_on,,,,,0,0,2,,,,,1,61,64
53700,note_on,,,,,60,0,2,,,,,1,63,0
53700,note_on,,,,,0,0,4,,,,,3,46,64
53760,set_tempo,,,,,53760,1,0,,681818,,,,,
53760,note_on,,,,,60,0,1,,,,,0,73,0
53760,note_on,,,,,0,0,1,,,,,0,64,64
53760,note_on,,,,,0,0,2,,,,,1,60,64
53760,note_on,,,,,60,0,2,,,,,1,61,0
53760,note_on,,,,,0,0,4,,,,,3,48,64
53760,note_on,,,,,60,0,4,,,,,3,46,0
53810,note_on,,,,,290,0,3,,,,,2,58,0
53820,note_on,,,,,10,0,3,,,,,2,58,64
53880,note_on,,,,,0,0,3,,,,,2,56,64
53880,note_on,,,,,120,0,1,,,,,0,64,0
53880,note_on,,,,,60,0,3,,,,,2,58,0
53880,note_on,,,,,0,0,1,,,,,0,72,64
53940,note_on,,,,,0,0,3,,,,,2,55,64
53940,note_on,,,,,60,0,3,,,,,2,56,0
54000,note_on,,,,,60,0,3,,,,,2,55,0
54000,note_on,,,,,0,0,3,,,,,2,56,64
54000,set_tempo,,,,,240,1,0,,697674,,,,,
54060,note_on,,,,,0,0,1,,,,,0,67,64
54060,note_on,,,,,180,0,1,,,,,0,72,0
54120,note_on,,,,,60,0,1,,,,,0,67,0
54120,note_on,,,,,0,0,1,,,,,0,68,64
54180,note_on,,,,,60,0,1,,,,,0,68,0
54180,note_on,,,,,0,0,1,,,,,0,65,64
54240,set_tempo,,,,,240,1,0,,750000,,,,,
54240,note_on,,,,,240,0,3,,,,,2,56,0
54240,note_on,,,,,0,0,3,,,,,2,53,68
54262,note_on,,,,,22,0,3,,,,,2,55,68
54266,note_on,,,,,4,0,3,,,,,2,53,0
54284,note_on,,,,,18,0,3,,,,,2,56,40
54288,note_on,,,,,4,0,3,,,,,2,55,0
54300,note_on,,,,,0,0,1,,,,,0,65,64
54300,note_on,,,,,120,0,1,,,,,0,65,0
54306,note_on,,,,,18,0,3,,,,,2,55,42
54310,note_on,,,,,4,0,3,,,,,2,56,0
54328,note_on,,,,,18,0,3,,,,,2,56,44
54332,note_on,,,,,4,0,3,,,,,2,55,0
54350,note_on,,,,,18,0,3,,,,,2,55,45
54354,note_on,,,,,4,0,3,,,,,2,56,0
54360,note_on,,,,,0,0,1,,,,,0,63,64
54360,set_tempo,,,,,120,1,0,,800000,,,,,
54360,note_on,,,,,60,0,1,,,,,0,65,0
54372,note_on,,,,,18,0,3,,,,,2,56,47
54376,note_on,,,,,4,0,3,,,,,2,55,0
54394,note_on,,,,,18,0,3,,,,,2,55,48
54398,note_on,,,,,4,0,3,,,,,2,56,0
54416,note_on,,,,,18,0,3,,,,,2,56,50
54420,note_on,,,,,0,0,1,,,,,0,62,64
54420,note_on,,,,,4,0,3,,,,,2,55,0
54420,note_on,,,,,60,0,1,,,,,0,63,0
54438,note_on,,,,,18,0,3,,,,,2,55,52
54442,note_on,,,,,4,0,3,,,,,2,56,0
54460,note_on,,,,,18,0,3,,,,,2,56,53
54464,note_on,,,,,4,0,3,,,,,2,55,0
54480,note_on,,,,,16,0,3,,,,,2,55,55
54480,set_tempo,,,,,120,1,0,,833333,,,,,
54480,note_on,,,,,60,0,1,,,,,0,62,0
54480,note_on,,,,,0,0,1,,,,,0,65,70
54486,note_on,,,,,6,0,3,,,,,2,56,0
54502,note_on,,,,,22,0,1,,,,,0,64,48
54502,note_on,,,,,16,0,3,,,,,2,56,56
54506,note_on,,,,,4,0,1,,,,,0,65,0
54506,note_on,,,,,4,0,3,,,,,2,55,0
54524,note_on,,,,,18,0,3,,,,,2,55,58
54524,note_on,,,,,18,0,1,,,,,0,65,51
54528,note_on,,,,,4,0,3,,,,,2,56,0
54528,note_on,,,,,4,0,1,,,,,0,64,0
54546,note_on,,,,,18,0,3,,,,,2,56,60
54546,note_on,,,,,18,0,1,,,,,0,64,56
54550,note_on,,,,,4,0,3,,,,,2,55,0
54550,note_on,,,,,4,0,1,,,,,0,65,0
54568,note_on,,,,,18,0,1,,,,,0,65,60
54568,note_on,,,,,18,0,3,,,,,2,55,61
54572,note_on,,,,,4,0,3,,,,,2,56,0
54572,note_on,,,,,4,0,1,,,,,0,64,0
54590,note_on,,,,,18,0,3,,,,,2,56,63
54590,note_on,,,,,18,0,1,,,,,0,64,64
54594,note_on,,,,,4,0,1,,,,,0,65,0
54594,note_on,,,,,4,0,3,,,,,2,55,0
54600,set_tempo,,,,,120,1,0,,937500,,,,,
54612,note_on,,,,,18,0,3,,,,,2,55,64
54616,note_on,,,,,4,0,3,,,,,2,56,0
54628,set_tempo,,,,,28,1,0,,1000000,,,,,
54660,set_tempo,,,,,32,1,0,,1052631,,,,,
54664,set_tempo,,,,,4,1,0,,1153846,,,,,
54680,set_tempo,,,,,16,1,0,,1333333,,,,,
54696,set_tempo,,,,,16,1,0,,1363636,,,,,
54710,note_on,,,,,94,0,3,,,,,2,55,0
54710,note_on,,,,,950,0,2,,,,,1,60,0
54710,note_on,,,,,116,0,1,,,,,0,64,0
54712,set_tempo,,,,,16,1,0,,1764705,,,,,
54720,set_tempo,,,,,8,1,0,,1052631,,,,,
54720,end_of_track,,,,,0,1,0,,,,,,,
54720,note_on,,,,,10,0,3,,,,,2,57,64
54720,note_on,,,,,960,0,4,,,,,3,48,0
54720,note_on,,,,,0,0,4,,,,,3,41,64
54720,note_on,,,,,10,0,2,,,,,1,60,64
54720,note_on,,,,,10,0,1,,,,,0,65,64
55680,note_on,,,,,960,0,1,,,,,0,65,0
55680,note_on,,,,,960,0,3,,,,,2,57,0
55680,end_of_track,,,,,0,1,1,,,,,,,
55680,note_on,,,,,960,0,4,,,,,3,41,0
55680,end_of_track,,,,,0,1,2,,,,,,,
55680,note_on,,,,,960,0,2,,,,,1,60,0
55680,end_of_track,,,,,0,1,3,,,,,,,
55680,end_of_track,,,,,0,1,4,,,,,,,
