tick,type,numerator,denominator,clocks_per_click,notated_32nd_notes_per_beat,time,meta,track,key,tempo,port,program,channel,note,velocity
0,time_signature,4,4,24,8,0,1,0,,,,,,,
0,midi_port,,,,,0,1,4,,,0,,,,
0,end_of_track,,,,,0,1,3,,,,,,,
0,track_name,,,,,0,1,3,,,,,,,
0,midi_port,,,,,0,1,3,,,0,,,,
0,note_on,,,,,0,0,2,,,,,1,60,30
0,program_change,,,,,0,0,2,,,,6,1,,
0,track_name,,,,,0,1,2,,,,,,,
0,midi_port,,,,,0,1,2,,,0,,,,
0,track_name,,,,,0,1,4,,,,,,,
0,note_on,,,,,0,0,1,,,,,0,48,120
0,program_change,,,,,0,0,1,,,,6,0,,
0,track_name,,,,,0,1,1,,,,,,,
0,midi_port,,,,,0,1,1,,,0,,,,
0,end_of_track,,,,,0,1,4,,,,,,,
0,key_signature,,,,,0,1,0,Eb,,,,,,
0,set_tempo,,,,,0,1,0,,638298,,,,,
0,marker,,,,,0,1,0,,,,,,,
60,note_on,,,,,60,0,2,,,,,1,79,30
60,note_on,,,,,60,0,1,,,,,0,67,120
79,note_on,,,,,19,0,1,,,,,0,48,0
79,note_on,,,,,19,0,2,,,,,1,60,0
120,note_on,,,,,0,0,1,,,,,0,65,120
120,note_on,,,,,0,0,1,,,,,0,60,120
120,note_on,,,,,41,0,1,,,,,0,67,0
120,note_on,,,,,0,0,2,,,,,1,72,30
120,note_on,,,,,0,0,2,,,,,1,77,30
120,note_on,,,,,41,0,2,,,,,1,79,0
180,note_on,,,,,0,0,2,,,,,1,79,30
180,note_on,,,,,0,0,1,,,,,0,67,120
180,note_on,,,,,60,0,1,,,,,0,65,0
180,note_on,,,,,60,0,2,,,,,1,77,0
207,note_on,,,,,27,0,2,,,,,1,72,0
207,note_on,,,,,27,0,1,,,,,0,60,0
240,note_on,,,,,0,0,2,,,,,1,65,30
240,note_on,,,,,0,0,1,,,,,0,53,120
240,note_on,,,,,33,0,2,,,,,1,79,0
240,note_on,,,,,0,0,2,,,,,1,80,30
240,note_on,,,,,0,0,1,,,,,0,68,120
240,note_on,,,,,33,0,1,,,,,0,67,0
300,note_on,,,,,60,0,1,,,,,0,68,0
300,note_on,,,,,60,0,2,,,,,1,80,0
300,note_on,,,,,0,0,1,,,,,0,65,120
300,note_on,,,,,0,0,2,,,,,1,77,30
319,note_on,,,,,19,0,2,,,,,1,65,0
319,note_on,,,,,19,0,1,,,,,0,53,0
360,note_on,,,,,41,0,2,,,,,1,77,0
360,note_on,,,,,0,0,2,,,,,1,75,30
360,note_on,,,,,0,0,2,,,,,1,72,30
360,note_on,,,,,0,0,1,,,,,0,60,120
360,note_on,,,,,0,0,1,,,,,0,63,120
360,note_on,,,,,41,0,1,,,,,0,65,0
420,note_on,,,,,60,0,2,,,,,1,75,0
420,note_on,,,,,0,0,1,,,,,0,65,120
420,note_on,,,,,60,0,1,,,,,0,63,0
420,note_on,,,,,0,0,2,,,,,1,77,30
447,note_on,,,,,27,0,2,,,,,1,72,0
447,note_on,,,,,27,0,1,,,,,0,60,0
480,note_on,,,,,0,0,1,,,,,0,51,120
480,note_on,,,,,0,0,1,,,,,0,67,120
480,note_on,,,,,33,0,2,,,,,1,77,0
480,note_on,,,,,0,0,2,,,,,1,79,30
480,note_on,,,,,0,0,2,,,,,1,63,30
480,note_on,,,,,33,0,1,,,,,0,65,0
540,note_on,,,,,60,0,1,,,,,0,67,0
540,note_on,,,,,0,0,1,,,,,0,63,120
540,note_on,,,,,60,0,2,,,,,1,79,0
540,note_on,,,,,0,0,2,,,,,1,75,30
567,note_on,,,,,27,0,1,,,,,0,51,0
567,note_on,,,,,27,0,2,,,,,1,63,0
600,note_on,,,,,33,0,2,,,,,1,75,0
600,note_on,,,,,0,0,2,,,,,1,72,30
600,note_on,,,,,0,0,1,,,,,0,60,120
600,note_on,,,,,0,0,1,,,,,0,62,120
600,note_on,,,,,33,0,1,,,,,0,63,0
600,note_on,,,,,0,0,2,,,,,1,74,30
660,note_on,,,,,60,0,2,,,,,1,74,0
660,note_on,,,,,0,0,2,,,,,1,75,30
660,note_on,,,,,60,0,1,,,,,0,62,0
660,note_on,,,,,0,0,1,,,,,0,63,120
687,note_on,,,,,27,0,1,,,,,0,60,0
687,note_on,,,,,27,0,2,,,,,1,72,0
720,note_on,,,,,33,0,1,,,,,0,63,0
720,note_on,,,,,0,0,1,,,,,0,50,120
720,note_on,,,,,0,0,2,,,,,1,62,30
720,note_on,,,,,0,0,1,,,,,0,65,120
720,note_on,,,,,33,0,2,,,,,1,75,0
720,note_on,,,,,0,0,2,,,,,1,77,30
780,note_on,,,,,60,0,2,,,,,1,77,0
780,note_on,,,,,0,0,2,,,,,1,74,30
780,note_on,,,,,0,0,1,,,,,0,62,120
780,note_on,,,,,60,0,1,,,,,0,65,0
807,note_on,,,,,27,0,2,,,,,1,62,0
807,note_on,,,,,27,0,1,,,,,0,50,0
840,note_on,,,,,33,0,2,,,,,1,74,0
840,note_on,,,,,0,0,2,,,,,1,71,30
840,note_on,,,,,0,0,1,,,,,0,59,120
840,note_on,,,,,0,0,1,,,,,0,60,120
840,note_on,,,,,33,0,1,,,,,0,62,0
840,note_on,,,,,0,0,2,,,,,1,72,30
900,note_on,,,,,60,0,1,,,,,0,60,0
900,note_on,,,,,0,0,1,,,,,0,62,120
900,note_on,,,,,60,0,2,,,,,1,72,0
900,note_on,,,,,0,0,2,,,,,1,74,30
911,note_on,,,,,11,0,2,,,,,1,71,0
911,note_on,,,,,11,0,1,,,,,0,59,0
960,note_on,,,,,0,0,2,,,,,1,75,30
960,note_on,,,,,49,0,1,,,,,0,62,0
960,note_on,,,,,0,0,1,,,,,0,63,120
960,note_on,,,,,0,0,1,,,,,0,48,120
960,note_on,,,,,0,0,2,,,,,1,60,30
960,note_on,,,,,49,0,2,,,,,1,74,0
1020,note_on,,,,,60,0,1,,,,,0,48,0
1020,note_on,,,,,0,0,1,,,,,0,55,120
1020,note_on,,,,,60,0,2,,,,,1,60,0
1020,note_on,,,,,0,0,2,,,,,1,67,30
1039,note_on,,,,,19,0,1,,,,,0,63,0
1039,note_on,,,,,19,0,2,,,,,1,75,0
1080,note_on,,,,,0,0,2,,,,,1,84,30
1080,note_on,,,,,0,0,1,,,,,0,53,120
1080,note_on,,,,,0,0,1,,,,,0,72,120
1080,note_on,,,,,41,0,1,,,,,0,55,0
1080,note_on,,,,,0,0,2,,,,,1,65,30
1080,note_on,,,,,41,0,2,,,,,1,67,0
1140,note_on,,,,,60,0,1,,,,,0,53,0
1140,note_on,,,,,0,0,1,,,,,0,55,120
1140,note_on,,,,,60,0,2,,,,,1,65,0
1140,note_on,,,,,0,0,2,,,,,1,67,30
1151,note_on,,,,,11,0,1,,,,,0,72,0
1151,note_on,,,,,11,0,2,,,,,1,84,0
1200,note_on,,,,,49,0,2,,,,,1,67,0
1200,note_on,,,,,0,0,1,,,,,0,56,120
1200,note_on,,,,,0,0,1,,,,,0,65,120
1200,note_on,,,,,0,0,2,,,,,1,77,30
1200,note_on,,,,,49,0,1,,,,,0,55,0
1200,note_on,,,,,0,0,2,,,,,1,68,30
1260,note_on,,,,,0,0,1,,,,,0,53,120
1260,note_on,,,,,60,0,1,,,,,0,56,0
1260,note_on,,,,,60,0,2,,,,,1,68,0
1260,note_on,,,,,0,0,2,,,,,1,65,30
1271,note_on,,,,,11,0,1,,,,,0,65,0
1271,note_on,,,,,11,0,2,,,,,1,77,0
1320,note_on,,,,,0,0,1,,,,,0,72,120
1320,note_on,,,,,0,0,2,,,,,1,63,30
1320,note_on,,,,,0,0,1,,,,,0,51,120
1320,note_on,,,,,49,0,1,,,,,0,53,0
1320,note_on,,,,,0,0,2,,,,,1,84,30
1320,note_on,,,,,49,0,2,,,,,1,65,0
1380,note_on,,,,,60,0,2,,,,,1,63,0
1380,note_on,,,,,0,0,1,,,,,0,53,120
1380,note_on,,,,,60,0,1,,,,,0,51,0
1380,note_on,,,,,0,0,2,,,,,1,65,30
1391,note_on,,,,,11,0,2,,,,,1,84,0
1391,note_on,,,,,11,0,1,,,,,0,72,0
1440,note_on,,,,,49,0,2,,,,,1,65,0
1440,note_on,,,,,49,0,1,,,,,0,53,0
1440,note_on,,,,,0,0,2,,,,,1,67,30
1440,note_on,,,,,0,0,2,,,,,1,75,30
1440,note_on,,,,,0,0,1,,,,,0,63,120
1440,note_on,,,,,0,0,1,,,,,0,55,120
1500,note_on,,,,,60,0,1,,,,,0,55,0
1500,note_on,,,,,0,0,1,,,,,0,51,120
1500,note_on,,,,,0,0,2,,,,,1,63,30
1500,note_on,,,,,60,0,2,,,,,1,67,0
1511,note_on,,,,,11,0,1,,,,,0,63,0
1511,note_on,,,,,11,0,2,,,,,1,75,0
1560,note_on,,,,,49,0,1,,,,,0,51,0
1560,note_on,,,,,0,0,1,,,,,0,72,120
1560,note_on,,,,,0,0,2,,,,,1,62,30
1560,note_on,,,,,0,0,2,,,,,1,84,30
1560,note_on,,,,,49,0,2,,,,,1,63,0
1560,note_on,,,,,0,0,1,,,,,0,50,120
1620,note_on,,,,,60,0,2,,,,,1,62,0
1620,note_on,,,,,0,0,1,,,,,0,51,120
1620,note_on,,,,,60,0,1,,,,,0,50,0
1620,note_on,,,,,0,0,2,,,,,1,63,30
1639,note_on,,,,,19,0,1,,,,,0,72,0
1639,note_on,,,,,19,0,2,,,,,1,84,0
1680,note_on,,,,,0,0,1,,,,,0,53,120
1680,note_on,,,,,0,0,1,,,,,0,62,120
1680,note_on,,,,,41,0,1,,,,,0,51,0
1680,note_on,,,,,0,0,2,,,,,1,65,30
1680,note_on,,,,,0,0,2,,,,,1,74,30
1680,note_on,,,,,41,0,2,,,,,1,63,0
1740,note_on,,,,,0,0,1,,,,,0,50,120
1740,note_on,,,,,60,0,1,,,,,0,53,0
1740,note_on,,,,,0,0,2,,,,,1,62,30
1740,note_on,,,,,60,0,2,,,,,1,65,0
1743,note_on,,,,,3,0,2,,,,,1,74,0
1743,note_on,,,,,3,0,1,,,,,0,62,0
1800,note_on,,,,,57,0,1,,,,,0,50,0
1800,note_on,,,,,0,0,2,,,,,1,83,30
1800,note_on,,,,,0,0,2,,,,,1,60,30
1800,note_on,,,,,0,0,1,,,,,0,48,120
1800,note_on,,,,,0,0,1,,,,,0,71,120
1800,note_on,,,,,57,0,2,,,,,1,62,0
1860,note_on,,,,,0,0,1,,,,,0,50,120
1860,note_on,,,,,0,0,2,,,,,1,62,30
1860,note_on,,,,,60,0,1,,,,,0,48,0
1860,note_on,,,,,60,0,2,,,,,1,60,0
1863,note_on,,,,,3,0,1,,,,,0,71,0
1863,note_on,,,,,3,0,2,,,,,1,83,0
1920,note_on,,,,,0,0,1,,,,,0,60,120
1920,note_on,,,,,57,0,1,,,,,0,50,0
1920,note_on,,,,,0,0,2,,,,,1,63,30
1920,note_on,,,,,0,0,2,,,,,1,72,30
1920,note_on,,,,,57,0,2,,,,,1,62,0
1920,note_on,,,,,0,0,1,,,,,0,51,120
1980,note_on,,,,,60,0,2,,,,,1,72,0
1980,note_on,,,,,0,0,2,,,,,1,75,30
1980,note_on,,,,,60,0,1,,,,,0,60,0
1980,note_on,,,,,0,0,1,,,,,0,63,120
1999,note_on,,,,,19,0,2,,,,,1,63,0
1999,note_on,,,,,19,0,1,,,,,0,51,0
2040,note_on,,,,,41,0,2,,,,,1,75,0
2040,note_on,,,,,41,0,1,,,,,0,63,0
2040,note_on,,,,,0,0,2,,,,,1,60,30
2040,note_on,,,,,0,0,1,,,,,0,67,120
2040,note_on,,,,,0,0,2,,,,,1,79,30
2040,note_on,,,,,0,0,1,,,,,0,48,120
2100,note_on,,,,,60,0,2,,,,,1,79,0
2100,note_on,,,,,0,0,2,,,,,1,84,30
2100,note_on,,,,,60,0,1,,,,,0,67,0
2100,note_on,,,,,0,0,1,,,,,0,72,120
2127,note_on,,,,,27,0,2,,,,,1,60,0
2127,note_on,,,,,27,0,1,,,,,0,48,0
2160,note_on,,,,,0,0,2,,,,,1,65,30
2160,note_on,,,,,33,0,1,,,,,0,72,0
2160,note_on,,,,,0,0,1,,,,,0,62,120
2160,note_on,,,,,0,0,1,,,,,0,53,120
2160,note_on,,,,,0,0,2,,,,,1,74,30
2160,note_on,,,,,33,0,2,,,,,1,84,0
2220,note_on,,,,,60,0,1,,,,,0,62,0
2220,note_on,,,,,0,0,1,,,,,0,72,120
2220,note_on,,,,,60,0,2,,,,,1,74,0
2220,note_on,,,,,0,0,2,,,,,1,84,30
2239,note_on,,,,,19,0,1,,,,,0,53,0
2239,note_on,,,,,19,0,2,,,,,1,65,0
2280,note_on,,,,,41,0,1,,,,,0,72,0
2280,note_on,,,,,0,0,2,,,,,1,83,30
2280,note_on,,,,,0,0,2,,,,,1,62,30
2280,note_on,,,,,0,0,1,,,,,0,50,120
2280,note_on,,,,,0,0,1,,,,,0,71,120
2280,note_on,,,,,41,0,2,,,,,1,84,0
2340,note_on,,,,,60,0,2,,,,,1,83,0
2340,note_on,,,,,0,0,2,,,,,1,81,30
2340,note_on,,,,,0,0,1,,,,,0,69,120
2340,note_on,,,,,60,0,1,,,,,0,71,0
2359,note_on,,,,,19,0,1,,,,,0,50,0
2359,note_on,,,,,19,0,2,,,,,1,62,0
2400,note_on,,,,,0,0,2,,,,,1,67,30
2400,note_on,,,,,0,0,2,,,,,1,74,30
2400,note_on,,,,,0,0,1,,,,,0,55,120
2400,note_on,,,,,41,0,1,,,,,0,69,0
2400,note_on,,,,,41,0,2,,,,,1,81,0
2400,note_on,,,,,0,0,1,,,,,0,62,120
2460,note_on,,,,,60,0,2,,,,,1,74,0
2460,note_on,,,,,0,0,2,,,,,1,79,30
2460,note_on,,,,,0,0,1,,,,,0,67,120
2460,note_on,,,,,60,0,1,,,,,0,62,0
2520,note_on,,,,,0,0,1,,,,,0,55,0
2520,note_on,,,,,0,0,1,,,,,0,53,120
2520,note_on,,,,,0,0,1,,,,,0,71,120
2520,note_on,,,,,0,0,2,,,,,1,83,30
2520,note_on,,,,,60,0,2,,,,,1,79,0
2520,note_on,,,,,60,0,1,,,,,0,67,0
2520,note_on,,,,,0,0,2,,,,,1,67,0
2520,note_on,,,,,0,0,2,,,,,1,65,30
2580,note_on,,,,,0,0,2,,,,,1,86,30
2580,note_on,,,,,60,0,2,,,,,1,83,0
2580,note_on,,,,,0,0,1,,,,,0,74,120
2580,note_on,,,,,60,0,1,,,,,0,71,0
2640,note_on,,,,,60,0,2,,,,,1,86,0
2640,note_on,,,,,0,0,2,,,,,1,65,0
2640,note_on,,,,,0,0,2,,,,,1,75,30
2640,note_on,,,,,0,0,2,,,,,1,67,30
2640,note_on,,,,,0,0,1,,,,,0,55,120
2640,note_on,,,,,60,0,1,,,,,0,74,0
2640,note_on,,,,,0,0,1,,,,,0,53,0
2640,note_on,,,,,0,0,1,,,,,0,63,120
2700,note_on,,,,,0,0,2,,,,,1,86,30
2700,note_on,,,,,60,0,2,,,,,1,75,0
2700,note_on,,,,,0,0,1,,,,,0,74,120
2700,note_on,,,,,60,0,1,,,,,0,63,0
2719,note_on,,,,,19,0,1,,,,,0,55,0
2719,note_on,,,,,19,0,2,,,,,1,67,0
2760,note_on,,,,,41,0,2,,,,,1,86,0
2760,note_on,,,,,0,0,2,,,,,1,84,30
2760,note_on,,,,,0,0,1,,,,,0,72,120
2760,note_on,,,,,0,0,2,,,,,1,63,30
2760,note_on,,,,,41,0,1,,,,,0,74,0
2760,note_on,,,,,0,0,1,,,,,0,51,120
2820,note_on,,,,,0,0,1,,,,,0,71,120
2820,note_on,,,,,60,0,2,,,,,1,84,0
2820,note_on,,,,,0,0,2,,,,,1,83,30
2820,note_on,,,,,60,0,1,,,,,0,72,0
2839,note_on,,,,,19,0,1,,,,,0,51,0
2839,note_on,,,,,19,0,2,,,,,1,63,0
2880,note_on,,,,,0,0,2,,,,,1,75,30
2880,note_on,,,,,0,0,1,,,,,0,56,120
2880,note_on,,,,,0,0,1,,,,,0,63,120
2880,note_on,,,,,41,0,1,,,,,0,71,0
2880,note_on,,,,,41,0,2,,,,,1,83,0
2880,note_on,,,,,0,0,2,,,,,1,68,30
2940,note_on,,,,,0,0,1,,,,,0,68,120
2940,note_on,,,,,60,0,1,,,,,0,63,0
2940,note_on,,,,,60,0,2,,,,,1,75,0
2940,note_on,,,,,0,0,2,,,,,1,80,30
3000,note_on,,,,,0,0,2,,,,,1,67,30
3000,note_on,,,,,0,0,2,,,,,1,84,30
3000,note_on,,,,,0,0,2,,,,,1,68,0
3000,note_on,,,,,60,0,2,,,,,1,80,0
3000,note_on,,,,,60,0,1,,,,,0,68,0
3000,note_on,,,,,0,0,1,,,,,0,56,0
3000,note_on,,,,,0,0,1,,,,,0,72,120
3000,note_on,,,,,0,0,1,,,,,0,55,120
3060,note_on,,,,,0,0,2,,,,,1,87,30
3060,note_on,,,,,60,0,2,,,,,1,84,0
3060,note_on,,,,,60,0,1,,,,,0,72,0
3060,note_on,,,,,0,0,1,,,,,0,75,120
3120,note_on,,,,,0,0,2,,,,,1,69,30
3120,note_on,,,,,0,0,1,,,,,0,57,120
3120,note_on,,,,,0,0,2,,,,,1,77,30
3120,note_on,,,,,60,0,2,,,,,1,87,0
3120,note_on,,,,,0,0,2,,,,,1,67,0
3120,note_on,,,,,0,0,1,,,,,0,65,120
3120,note_on,,,,,60,0,1,,,,,0,75,0
3120,note_on,,,,,0,0,1,,,,,0,55,0
3180,note_on,,,,,60,0,1,,,,,0,65,0
3180,note_on,,,,,60,0,2,,,,,1,77,0
3180,note_on,,,,,0,0,2,,,,,1,87,30
3180,note_on,,,,,0,0,1,,,,,0,75,120
3199,note_on,,,,,19,0,1,,,,,0,57,0
3199,note_on,,,,,19,0,2,,,,,1,69,0
3240,note_on,,,,,0,0,2,,,,,1,65,30
3240,note_on,,,,,41,0,1,,,,,0,75,0
3240,note_on,,,,,0,0,1,,,,,0,74,120
3240,note_on,,,,,0,0,2,,,,,1,86,30
3240,note_on,,,,,41,0,2,,,,,1,87,0
3240,note_on,,,,,0,0,1,,,,,0,53,120
3300,note_on,,,,,0,0,2,,,,,1,84,30
3300,note_on,,,,,60,0,2,,,,,1,86,0
3300,note_on,,,,,0,0,1,,,,,0,72,120
3300,note_on,,,,,60,0,1,,,,,0,74,0
3319,note_on,,,,,19,0,2,,,,,1,65,0
3319,note_on,,,,,19,0,1,,,,,0,53,0
3360,note_on,,,,,41,0,2,,,,,1,84,0
3360,note_on,,,,,0,0,2,,,,,1,77,30
3360,note_on,,,,,0,0,2,,,,,1,70,30
3360,note_on,,,,,0,0,1,,,,,0,58,120
3360,note_on,,,,,0,0,1,,,,,0,65,120
3360,note_on,,,,,41,0,1,,,,,0,72,0
3420,note_on,,,,,60,0,1,,,,,0,65,0
3420,note_on,,,,,0,0,1,,,,,0,70,120
3420,note_on,,,,,60,0,2,,,,,1,77,0
3420,note_on,,,,,0,0,2,,,,,1,82,30
3480,note_on,,,,,60,0,2,,,,,1,82,0
3480,note_on,,,,,0,0,2,,,,,1,86,30
3480,note_on,,,,,0,0,2,,,,,1,69,30
3480,note_on,,,,,0,0,1,,,,,0,57,120
3480,note_on,,,,,0,0,1,,,,,0,74,120
3480,note_on,,,,,0,0,2,,,,,1,70,0
3480,note_on,,,,,0,0,1,,,,,0,58,0
3480,note_on,,,,,60,0,1,,,,,0,70,0
3540,note_on,,,,,60,0,2,,,,,1,86,0
3540,note_on,,,,,0,0,1,,,,,0,77,120
3540,note_on,,,,,0,0,2,,,,,1,89,30
3540,note_on,,,,,60,0,1,,,,,0,74,0
3600,note_on,,,,,0,0,2,,,,,1,79,30
3600,note_on,,,,,0,0,2,,,,,1,69,0
3600,note_on,,,,,60,0,2,,,,,1,89,0
3600,note_on,,,,,0,0,1,,,,,0,67,120
3600,note_on,,,,,60,0,1,,,,,0,77,0
3600,note_on,,,,,0,0,2,,,,,1,71,30
3600,note_on,,,,,0,0,1,,,,,0,57,0
3600,note_on,,,,,0,0,1,,,,,0,59,120
3660,note_on,,,,,60,0,1,,,,,0,67,0
3660,note_on,,,,,0,0,2,,,,,1,89,30
3660,note_on,,,,,60,0,2,,,,,1,79,0
3660,note_on,,,,,0,0,1,,,,,0,77,120
3687,note_on,,,,,27,0,1,,,,,0,59,0
3687,note_on,,,,,27,0,2,,,,,1,71,0
3720,note_on,,,,,33,0,1,,,,,0,77,0
3720,note_on,,,,,33,0,2,,,,,1,89,0
3720,note_on,,,,,0,0,1,,,,,0,75,120
3720,note_on,,,,,0,0,1,,,,,0,55,120
3720,note_on,,,,,0,0,2,,,,,1,87,30
3720,note_on,,,,,0,0,2,,,,,1,67,30
3780,note_on,,,,,0,0,2,,,,,1,86,30
3780,note_on,,,,,60,0,1,,,,,0,75,0
3780,note_on,,,,,0,0,1,,,,,0,74,120
3780,note_on,,,,,60,0,2,,,,,1,87,0
3791,note_on,,,,,11,0,2,,,,,1,67,0
3791,note_on,,,,,11,0,1,,,,,0,55,0
3840,note_on,,,,,49,0,2,,,,,1,86,0
3840,note_on,,,,,0,0,2,,,,,1,87,30
3840,note_on,,,,,0,0,2,,,,,1,72,30
3840,note_on,,,,,0,0,1,,,,,0,60,120
3840,note_on,,,,,49,0,1,,,,,0,74,0
3840,note_on,,,,,0,0,1,,,,,0,75,120
3900,note_on,,,,,60,0,1,,,,,0,60,0
3900,note_on,,,,,0,0,1,,,,,0,75,0
3900,note_on,,,,,0,0,1,,,,,0,68,120
3900,note_on,,,,,0,0,2,,,,,1,80,30
3900,note_on,,,,,0,0,2,,,,,1,84,30
3900,note_on,,,,,0,0,2,,,,,1,87,0
3900,note_on,,,,,60,0,2,,,,,1,72,0
3900,note_on,,,,,0,0,1,,,,,0,72,120
3960,note_on,,,,,60,0,1,,,,,0,68,0
3960,note_on,,,,,0,0,1,,,,,0,72,0
3960,note_on,,,,,0,0,2,,,,,1,79,30
3960,note_on,,,,,0,0,2,,,,,1,82,30
3960,note_on,,,,,0,0,2,,,,,1,84,0
3960,note_on,,,,,60,0,2,,,,,1,80,0
3960,note_on,,,,,0,0,1,,,,,0,70,120
3960,note_on,,,,,0,0,1,,,,,0,67,120
4020,note_on,,,,,0,0,1,,,,,0,68,120
4020,note_on,,,,,60,0,1,,,,,0,67,0
4020,note_on,,,,,0,0,1,,,,,0,70,0
4020,note_on,,,,,0,0,1,,,,,0,72,120
4020,note_on,,,,,0,0,2,,,,,1,80,30
4020,note_on,,,,,0,0,2,,,,,1,84,30
4020,note_on,,,,,0,0,2,,,,,1,82,0
4020,note_on,,,,,60,0,2,,,,,1,79,0
4080,note_on,,,,,0,0,1,,,,,0,58,120
4080,note_on,,,,,0,0,1,,,,,0,74,120
4080,note_on,,,,,0,0,1,,,,,0,72,0
4080,note_on,,,,,0,0,2,,,,,1,86,30
4080,note_on,,,,,0,0,2,,,,,1,84,0
4080,note_on,,,,,60,0,2,,,,,1,80,0
4080,note_on,,,,,60,0,1,,,,,0,68,0
4080,note_on,,,,,0,0,2,,,,,1,70,30
4140,note_on,,,,,0,0,1,,,,,0,74,0
4140,note_on,,,,,60,0,1,,,,,0,58,0
4140,note_on,,,,,0,0,1,,,,,0,67,120
4140,note_on,,,,,0,0,1,,,,,0,70,120
4140,note_on,,,,,0,0,2,,,,,1,79,30
4140,note_on,,,,,0,0,2,,,,,1,82,30
4140,note_on,,,,,0,0,2,,,,,1,86,0
4140,note_on,,,,,60,0,2,,,,,1,70,0
4200,note_on,,,,,60,0,1,,,,,0,67,0
4200,note_on,,,,,0,0,1,,,,,0,68,120
4200,note_on,,,,,0,0,2,,,,,1,80,30
4200,note_on,,,,,0,0,2,,,,,1,82,0
4200,note_on,,,,,60,0,2,,,,,1,79,0
4200,note_on,,,,,0,0,1,,,,,0,70,0
4200,note_on,,,,,0,0,2,,,,,1,77,30
4200,note_on,,,,,0,0,1,,,,,0,65,120
4260,note_on,,,,,0,0,1,,,,,0,70,120
4260,note_on,,,,,60,0,1,,,,,0,65,0
4260,note_on,,,,,0,0,1,,,,,0,68,0
4260,note_on,,,,,0,0,1,,,,,0,67,120
4260,note_on,,,,,0,0,2,,,,,1,79,30
4260,note_on,,,,,0,0,2,,,,,1,82,30
4260,note_on,,,,,0,0,2,,,,,1,80,0
4260,note_on,,,,,60,0,2,,,,,1,77,0
4320,note_on,,,,,0,0,1,,,,,0,70,0
4320,note_on,,,,,0,0,2,,,,,1,68,30
4320,note_on,,,,,0,0,2,,,,,1,84,30
4320,note_on,,,,,0,0,2,,,,,1,82,0
4320,note_on,,,,,60,0,2,,,,,1,79,0
4320,note_on,,,,,60,0,1,,,,,0,67,0
4320,note_on,,,,,0,0,1,,,,,0,72,120
4320,note_on,,,,,0,0,1,,,,,0,56,120
4380,note_on,,,,,60,0,1,,,,,0,72,0
4380,note_on,,,,,0,0,2,,,,,1,82,30
4380,note_on,,,,,0,0,1,,,,,0,70,120
4380,note_on,,,,,60,0,2,,,,,1,84,0
4440,note_on,,,,,0,0,2,,,,,1,68,0
4440,note_on,,,,,0,0,2,,,,,1,80,30
4440,note_on,,,,,60,0,2,,,,,1,82,0
4440,note_on,,,,,60,0,1,,,,,0,70,0
4440,note_on,,,,,0,0,1,,,,,0,68,120
4440,note_on,,,,,0,0,1,,,,,0,56,0
4500,note_on,,,,,0,0,1,,,,,0,67,120
4500,note_on,,,,,60,0,1,,,,,0,68,0
4500,note_on,,,,,0,0,2,,,,,1,79,30
4500,note_on,,,,,60,0,2,,,,,1,80,0
4560,note_on,,,,,60,0,1,,,,,0,67,0
4560,note_on,,,,,0,0,1,,,,,0,65,120
4560,note_on,,,,,0,0,2,,,,,1,77,30
4560,note_on,,,,,60,0,2,,,,,1,79,0
4620,note_on,,,,,0,0,2,,,,,1,75,30
4620,note_on,,,,,60,0,2,,,,,1,77,0
4620,note_on,,,,,60,0,1,,,,,0,65,0
4620,note_on,,,,,0,0,1,,,,,0,63,120
4680,note_on,,,,,60,0,2,,,,,1,75,0
4680,note_on,,,,,0,0,2,,,,,1,74,30
4680,note_on,,,,,0,0,1,,,,,0,62,120
4680,note_on,,,,,60,0,1,,,,,0,63,0
4740,note_on,,,,,0,0,1,,,,,0,60,120
4740,note_on,,,,,60,0,2,,,,,1,74,0
4740,note_on,,,,,0,0,2,,,,,1,72,30
4740,note_on,,,,,60,0,1,,,,,0,62,0
4800,note_on,,,,,60,0,1,,,,,0,60,0
4800,note_on,,,,,0,0,2,,,,,1,70,30
4800,note_on,,,,,60,0,2,,,,,1,72,0
4800,note_on,,,,,0,0,1,,,,,0,74,120
4800,note_on,,,,,0,0,1,,,,,0,58,120
4800,note_on,,,,,0,0,2,,,,,1,86,30
4860,note_on,,,,,0,0,2,,,,,1,79,30
4860,note_on,,,,,60,0,1,,,,,0,58,0
4860,note_on,,,,,0,0,1,,,,,0,74,0
4860,note_on,,,,,0,0,1,,,,,0,70,120
4860,note_on,,,,,0,0,1,,,,,0,67,120
4860,note_on,,,,,0,0,2,,,,,1,82,30
4860,note_on,,,,,0,0,2,,,,,1,86,0
4860,note_on,,,,,60,0,2,,,,,1,70,0
4920,note_on,,,,,0,0,1,,,,,0,70,0
4920,note_on,,,,,0,0,2,,,,,1,82,0
4920,note_on,,,,,0,0,2,,,,,1,80,30
4920,note_on,,,,,60,0,1,,,,,0,67,0
4920,note_on,,,,,0,0,2,,,,,1,77,30
4920,note_on,,,,,60,0,2,,,,,1,79,0
4920,note_on,,,,,0,0,1,,,,,0,68,120
4920,note_on,,,,,0,0,1,,,,,0,65,120
4980,note_on,,,,,0,0,2,,,,,1,80,0
4980,note_on,,,,,0,0,1,,,,,0,67,120
4980,note_on,,,,,0,0,1,,,,,0,70,120
4980,note_on,,,,,0,0,2,,,,,1,82,30
4980,note_on,,,,,0,0,2,,,,,1,79,30
4980,note_on,,,,,0,0,1,,,,,0,68,0
4980,note_on,,,,,60,0,1,,,,,0,65,0
4980,note_on,,,,,60,0,2,,,,,1,77,0
5040,note_on,,,,,0,0,1,,,,,0,70,0
5040,note_on,,,,,0,0,2,,,,,1,68,30
5040,note_on,,,,,0,0,2,,,,,1,84,30
5040,note_on,,,,,0,0,2,,,,,1,82,0
5040,note_on,,,,,60,0,2,,,,,1,79,0
5040,note_on,,,,,0,0,1,,,,,0,56,120
5040,note_on,,,,,0,0,1,,,,,0,72,120
5040,note_on,,,,,60,0,1,,,,,0,67,0
5100,note_on,,,,,0,0,1,,,,,0,65,120
5100,note_on,,,,,0,0,1,,,,,0,68,120
5100,note_on,,,,,0,0,1,,,,,0,72,0
5100,note_on,,,,,60,0,1,,,,,0,56,0
5100,note_on,,,,,0,0,2,,,,,1,77,30
5100,note_on,,,,,0,0,2,,,,,1,80,30
5100,note_on,,,,,0,0,2,,,,,1,84,0
5100,note_on,,,,,60,0,2,,,,,1,68,0
5160,note_on,,,,,0,0,1,,,,,0,63,120
5160,note_on,,,,,0,0,1,,,,,0,67,120
5160,note_on,,,,,0,0,1,,,,,0,68,0
5160,note_on,,,,,60,0,2,,,,,1,77,0
5160,note_on,,,,,60,0,1,,,,,0,65,0
5160,note_on,,,,,0,0,2,,,,,1,75,30
5160,note_on,,,,,0,0,2,,,,,1,79,30
5160,note_on,,,,,0,0,2,,,,,1,80,0
5220,note_on,,,,,0,0,2,,,,,1,77,30
5220,note_on,,,,,0,0,2,,,,,1,79,0
5220,note_on,,,,,60,0,1,,,,,0,63,0
5220,note_on,,,,,0,0,1,,,,,0,67,0
5220,note_on,,,,,0,0,1,,,,,0,68,120
5220,note_on,,,,,0,0,1,,,,,0,65,120
5220,note_on,,,,,60,0,2,,,,,1,75,0
5220,note_on,,,,,0,0,2,,,,,1,80,30
5280,note_on,,,,,0,0,1,,,,,0,70,120
5280,note_on,,,,,60,0,2,,,,,1,77,0
5280,note_on,,,,,0,0,2,,,,,1,80,0
5280,note_on,,,,,0,0,2,,,,,1,82,30
5280,note_on,,,,,60,0,1,,,,,0,65,0
5280,note_on,,,,,0,0,1,,,,,0,68,0
5280,note_on,,,,,0,0,1,,,,,0,55,120
5280,note_on,,,,,0,0,2,,,,,1,67,30
5340,note_on,,,,,60,0,1,,,,,0,70,0
5340,note_on,,,,,0,0,2,,,,,1,80,30
5340,note_on,,,,,60,0,2,,,,,1,82,0
5340,note_on,,,,,0,0,1,,,,,0,68,120
5400,note_on,,,,,0,0,2,,,,,1,79,30
5400,note_on,,,,,0,0,1,,,,,0,67,120
5400,note_on,,,,,60,0,2,,,,,1,80,0
5400,note_on,,,,,0,0,1,,,,,0,55,0
5400,note_on,,,,,0,0,2,,,,,1,67,0
5400,note_on,,,,,60,0,1,,,,,0,68,0
5460,note_on,,,,,0,0,1,,,,,0,65,120
5460,note_on,,,,,0,0,2,,,,,1,77,30
5460,note_on,,,,,60,0,2,,,,,1,79,0
5460,note_on,,,,,60,0,1,,,,,0,67,0
5520,note_on,,,,,0,0,2,,,,,1,75,30
5520,note_on,,,,,60,0,2,,,,,1,77,0
5520,note_on,,,,,0,0,1,,,,,0,63,120
5520,note_on,,,,,60,0,1,,,,,0,65,0
5580,note_on,,,,,0,0,2,,,,,1,73,30
5580,note_on,,,,,0,0,1,,,,,0,61,120
5580,note_on,,,,,60,0,1,,,,,0,63,0
5580,note_on,,,,,60,0,2,,,,,1,75,0
5640,note_on,,,,,0,0,1,,,,,0,60,120
5640,note_on,,,,,0,0,2,,,,,1,72,30
5640,note_on,,,,,60,0,2,,,,,1,73,0
5640,note_on,,,,,60,0,1,,,,,0,61,0
5700,note_on,,,,,60,0,2,,,,,1,72,0
5700,note_on,,,,,0,0,2,,,,,1,70,30
5700,note_on,,,,,0,0,1,,,,,0,58,120
5700,note_on,,,,,60,0,1,,,,,0,60,0
5760,note_on,,,,,60,0,2,,,,,1,70,0
5760,note_on,,,,,0,0,2,,,,,1,84,30
5760,note_on,,,,,0,0,2,,,,,1,68,30
5760,note_on,,,,,0,0,1,,,,,0,72,120
5760,note_on,,,,,0,0,1,,,,,0,56,120
5760,note_on,,,,,60,0,1,,,,,0,58,0
5820,note_on,,,,,60,0,1,,,,,0,56,0
5820,note_on,,,,,60,0,2,,,,,1,68,0
5820,note_on,,,,,0,0,2,,,,,1,84,0
5820,note_on,,,,,0,0,2,,,,,1,80,30
5820,note_on,,,,,0,0,2,,,,,1,77,30
5820,note_on,,,,,0,0,1,,,,,0,65,120
5820,note_on,,,,,0,0,1,,,,,0,68,120
5820,note_on,,,,,0,0,1,,,,,0,72,0
5880,note_on,,,,,60,0,2,,,,,1,77,0
5880,note_on,,,,,0,0,1,,,,,0,68,0
5880,note_on,,,,,0,0,1,,,,,0,63,120
5880,note_on,,,,,60,0,1,,,,,0,65,0
5880,note_on,,,,,0,0,1,,,,,0,67,120
5880,note_on,,,,,0,0,2,,,,,1,80,0
5880,note_on,,,,,0,0,2,,,,,1,79,30
5880,note_on,,,,,0,0,2,,,,,1,75,30
5940,note_on,,,,,60,0,2,,,,,1,75,0
5940,note_on,,,,,0,0,2,,,,,1,79,0
5940,note_on,,,,,0,0,2,,,,,1,80,30
5940,note_on,,,,,0,0,2,,,,,1,77,30
5940,note_on,,,,,60,0,1,,,,,0,63,0
5940,note_on,,,,,0,0,1,,,,,0,68,120
5940,note_on,,,,,0,0,1,,,,,0,65,120
5940,note_on,,,,,0,0,1,,,,,0,67,0
6000,note_on,,,,,0,0,1,,,,,0,70,120
6000,note_on,,,,,0,0,2,,,,,1,82,30
6000,note_on,,,,,0,0,2,,,,,1,80,0
6000,note_on,,,,,60,0,2,,,,,1,77,0
6000,note_on,,,,,60,0,1,,,,,0,65,0
6000,note_on,,,,,0,0,1,,,,,0,68,0
6000,note_on,,,,,0,0,1,,,,,0,55,120
6000,note_on,,,,,0,0,2,,,,,1,67,30
6060,note_on,,,,,60,0,1,,,,,0,55,0
6060,note_on,,,,,0,0,1,,,,,0,70,0
6060,note_on,,,,,0,0,1,,,,,0,63,120
6060,note_on,,,,,0,0,1,,,,,0,67,120
6060,note_on,,,,,60,0,2,,,,,1,67,0
6060,note_on,,,,,0,0,2,,,,,1,82,0
6060,note_on,,,,,0,0,2,,,,,1,79,30
6060,note_on,,,,,0,0,2,,,,,1,75,30
6120,note_on,,,,,0,0,2,,,,,1,79,0
6120,note_on,,,,,0,0,1,,,,,0,65,120
6120,note_on,,,,,0,0,1,,,,,0,67,0
6120,note_on,,,,,60,0,2,,,,,1,75,0
6120,note_on,,,,,60,0,1,,,,,0,63,0
6120,note_on,,,,,0,0,2,,,,,1,74,30
6120,note_on,,,,,0,0,2,,,,,1,77,30
6120,note_on,,,,,0,0,1,,,,,0,62,120
6180,note_on,,,,,0,0,2,,,,,1,79,30
6180,note_on,,,,,0,0,2,,,,,1,77,0
6180,note_on,,,,,60,0,2,,,,,1,74,0
6180,note_on,,,,,0,0,1,,,,,0,63,120
6180,note_on,,,,,0,0,1,,,,,0,67,120
6180,note_on,,,,,0,0,1,,,,,0,65,0
6180,note_on,,,,,60,0,1,,,,,0,62,0
6180,note_on,,,,,0,0,2,,,,,1,75,30
6240,note_on,,,,,0,0,1,,,,,0,53,120
6240,note_on,,,,,60,0,1,,,,,0,63,0
6240,note_on,,,,,0,0,1,,,,,0,67,0
6240,note_on,,,,,0,0,2,,,,,1,80,30
6240,note_on,,,,,0,0,2,,,,,1,79,0
6240,note_on,,,,,60,0,2,,,,,1,75,0
6240,note_on,,,,,0,0,1,,,,,0,68,120
6240,note_on,,,,,0,0,2,,,,,1,65,30
6300,note_on,,,,,0,0,1,,,,,0,62,120
6300,note_on,,,,,60,0,1,,,,,0,53,0
6300,note_on,,,,,0,0,1,,,,,0,68,0
6300,note_on,,,,,0,0,1,,,,,0,65,120
6300,note_on,,,,,0,0,2,,,,,1,74,30
6300,note_on,,,,,0,0,2,,,,,1,77,30
6300,note_on,,,,,0,0,2,,,,,1,80,0
6300,note_on,,,,,60,0,2,,,,,1,65,0
6360,note_on,,,,,0,0,1,,,,,0,65,0
6360,note_on,,,,,0,0,1,,,,,0,63,120
6360,note_on,,,,,0,0,1,,,,,0,60,120
6360,note_on,,,,,0,0,2,,,,,1,75,30
6360,note_on,,,,,0,0,2,,,,,1,77,0
6360,note_on,,,,,60,0,2,,,,,1,74,0
6360,note_on,,,,,60,0,1,,,,,0,62,0
6360,note_on,,,,,0,0,2,,,,,1,72,30
6420,note_on,,,,,0,0,2,,,,,1,74,30
6420,note_on,,,,,0,0,1,,,,,0,63,0
6420,note_on,,,,,60,0,1,,,,,0,60,0
6420,note_on,,,,,0,0,1,,,,,0,65,120
6420,note_on,,,,,0,0,1,,,,,0,62,120
6420,note_on,,,,,0,0,2,,,,,1,77,30
6420,note_on,,,,,0,0,2,,,,,1,75,0
6420,note_on,,,,,60,0,2,,,,,1,72,0
6480,note_on,,,,,60,0,2,,,,,1,74,0
6480,note_on,,,,,0,0,2,,,,,1,77,0
6480,note_on,,,,,0,0,2,,,,,1,80,30
6480,note_on,,,,,0,0,2,,,,,1,63,30
6480,note_on,,,,,0,0,1,,,,,0,51,120
6480,note_on,,,,,0,0,1,,,,,0,68,120
6480,note_on,,,,,0,0,1,,,,,0,65,0
6480,note_on,,,,,60,0,1,,,,,0,62,0
6504,note_on,,,,,24,0,1,,,,,0,67,120
6504,note_on,,,,,24,0,2,,,,,1,79,30
6510,note_on,,,,,6,0,1,,,,,0,68,0
6510,note_on,,,,,6,0,2,,,,,1,80,0
6528,note_on,,,,,18,0,1,,,,,0,68,120
6528,note_on,,,,,18,0,2,,,,,1,80,30
6534,note_on,,,,,6,0,1,,,,,0,67,0
6534,note_on,,,,,6,0,2,,,,,1,79,0
6540,note_on,,,,,6,0,1,,,,,0,51,0
6540,note_on,,,,,0,0,1,,,,,0,60,120
6540,note_on,,,,,6,0,2,,,,,1,63,0
6540,note_on,,,,,0,0,2,,,,,1,72,30
6578,note_on,,,,,38,0,2,,,,,1,80,0
6578,note_on,,,,,38,0,1,,,,,0,68,0
6600,note_on,,,,,22,0,1,,,,,0,60,0
6600,note_on,,,,,0,0,1,,,,,0,68,120
6600,note_on,,,,,0,0,1,,,,,0,58,120
6600,note_on,,,,,22,0,2,,,,,1,72,0
6600,note_on,,,,,0,0,2,,,,,1,80,30
6600,note_on,,,,,0,0,2,,,,,1,70,30
6660,note_on,,,,,60,0,1,,,,,0,58,0
6660,note_on,,,,,0,0,1,,,,,0,60,120
6660,note_on,,,,,60,0,2,,,,,1,70,0
6660,note_on,,,,,0,0,2,,,,,1,72,30
6720,note_on,,,,,0,0,1,,,,,0,68,0
6720,note_on,,,,,60,0,2,,,,,1,72,0
6720,note_on,,,,,0,0,2,,,,,1,80,0
6720,note_on,,,,,0,0,2,,,,,1,80,30
6720,note_on,,,,,0,0,2,,,,,1,62,30
6720,note_on,,,,,0,0,1,,,,,0,50,120
6720,note_on,,,,,0,0,1,,,,,0,68,120
6720,note_on,,,,,60,0,1,,,,,0,60,0
6780,note_on,,,,,60,0,2,,,,,1,62,0
6780,note_on,,,,,0,0,2,,,,,1,80,0
6780,note_on,,,,,0,0,2,,,,,1,79,30
6780,note_on,,,,,0,0,2,,,,,1,70,30
6780,note_on,,,,,0,0,1,,,,,0,58,120
6780,note_on,,,,,0,0,1,,,,,0,67,120
6780,note_on,,,,,0,0,1,,,,,0,68,0
6780,note_on,,,,,60,0,1,,,,,0,50,0
6840,note_on,,,,,60,0,2,,,,,1,70,0
6840,note_on,,,,,0,0,2,,,,,1,77,30
6840,note_on,,,,,0,0,2,,,,,1,79,0
6840,note_on,,,,,0,0,2,,,,,1,68,30
6840,note_on,,,,,60,0,1,,,,,0,58,0
6840,note_on,,,,,0,0,1,,,,,0,67,0
6840,note_on,,,,,0,0,1,,,,,0,65,120
6840,note_on,,,,,0,0,1,,,,,0,56,120
6900,note_on,,,,,0,0,1,,,,,0,65,0
6900,note_on,,,,,60,0,2,,,,,1,68,0
6900,note_on,,,,,0,0,2,,,,,1,70,30
6900,note_on,,,,,0,0,2,,,,,1,79,30
6900,note_on,,,,,0,0,2,,,,,1,77,0
6900,note_on,,,,,0,0,1,,,,,0,58,120
6900,note_on,,,,,0,0,1,,,,,0,67,120
6900,note_on,,,,,60,0,1,,,,,0,56,0
6960,note_on,,,,,0,0,2,,,,,1,80,30
6960,note_on,,,,,0,0,1,,,,,0,68,120
6960,note_on,,,,,60,0,2,,,,,1,70,0
6960,note_on,,,,,0,0,1,,,,,0,48,120
6960,note_on,,,,,0,0,2,,,,,1,60,30
6960,note_on,,,,,0,0,1,,,,,0,67,0
6960,note_on,,,,,0,0,2,,,,,1,79,0
6960,note_on,,,,,60,0,1,,,,,0,58,0
6984,note_on,,,,,24,0,2,,,,,1,79,30
6984,note_on,,,,,24,0,1,,,,,0,67,120
6990,note_on,,,,,6,0,1,,,,,0,68,0
6990,note_on,,,,,6,0,2,,,,,1,80,0
7008,note_on,,,,,18,0,2,,,,,1,80,30
7008,note_on,,,,,18,0,1,,,,,0,68,120
7014,note_on,,,,,6,0,1,,,,,0,67,0
7014,note_on,,,,,6,0,2,,,,,1,79,0
7020,note_on,,,,,0,0,2,,,,,1,68,30
7020,note_on,,,,,6,0,2,,,,,1,60,0
7020,note_on,,,,,6,0,1,,,,,0,48,0
7020,note_on,,,,,0,0,1,,,,,0,56,120
7058,note_on,,,,,38,0,1,,,,,0,68,0
7058,note_on,,,,,38,0,2,,,,,1,80,0
7080,note_on,,,,,0,0,1,,,,,0,68,120
7080,note_on,,,,,22,0,2,,,,,1,68,0
7080,note_on,,,,,22,0,1,,,,,0,56,0
7080,note_on,,,,,0,0,2,,,,,1,67,30
7080,note_on,,,,,0,0,1,,,,,0,55,120
7080,note_on,,,,,0,0,2,,,,,1,80,30
7140,note_on,,,,,0,0,2,,,,,1,68,30
7140,note_on,,,,,60,0,1,,,,,0,55,0
7140,note_on,,,,,60,0,2,,,,,1,67,0
7140,note_on,,,,,0,0,1,,,,,0,56,120
7200,note_on,,,,,60,0,1,,,,,0,56,0
7200,note_on,,,,,0,0,1,,,,,0,68,120
7200,note_on,,,,,0,0,1,,,,,0,46,120
7200,note_on,,,,,60,0,2,,,,,1,68,0
7200,note_on,,,,,0,0,1,,,,,0,68,0
7200,note_on,,,,,0,0,2,,,,,1,58,30
7200,note_on,,,,,0,0,2,,,,,1,80,30
7200,note_on,,,,,0,0,2,,,,,1,80,0
7260,note_on,,,,,0,0,2,,,,,1,86,30
7260,note_on,,,,,60,0,1,,,,,0,68,0
7260,note_on,,,,,0,0,1,,,,,0,74,120
7260,note_on,,,,,60,0,2,,,,,1,80,0
7271,note_on,,,,,11,0,1,,,,,0,46,0
7271,note_on,,,,,11,0,2,,,,,1,58,0
7320,note_on,,,,,0,0,1,,,,,0,77,120
7320,note_on,,,,,49,0,1,,,,,0,74,0
7320,note_on,,,,,49,0,2,,,,,1,86,0
7320,note_on,,,,,0,0,1,,,,,0,58,120
7320,note_on,,,,,0,0,2,,,,,1,70,30
7320,note_on,,,,,0,0,2,,,,,1,89,30
7380,note_on,,,,,0,0,2,,,,,1,87,30
7380,note_on,,,,,0,0,1,,,,,0,75,120
7380,note_on,,,,,60,0,2,,,,,1,89,0
7380,note_on,,,,,60,0,1,,,,,0,77,0
7391,note_on,,,,,11,0,2,,,,,1,70,0
7391,note_on,,,,,11,0,1,,,,,0,58,0
7440,note_on,,,,,49,0,2,,,,,1,87,0
7440,note_on,,,,,0,0,2,,,,,1,86,30
7440,note_on,,,,,49,0,1,,,,,0,75,0
7440,note_on,,,,,0,0,1,,,,,0,74,120
7500,note_on,,,,,0,0,1,,,,,0,72,120
7500,note_on,,,,,60,0,1,,,,,0,74,0
7500,note_on,,,,,60,0,2,,,,,1,86,0
7500,note_on,,,,,0,0,2,,,,,1,84,30
7560,note_on,,,,,0,0,1,,,,,0,50,120
7560,note_on,,,,,0,0,1,,,,,0,70,120
7560,note_on,,,,,60,0,2,,,,,1,84,0
7560,note_on,,,,,0,0,2,,,,,1,82,30
7560,note_on,,,,,0,0,2,,,,,1,62,30
7560,note_on,,,,,60,0,1,,,,,0,72,0
7620,note_on,,,,,60,0,1,,,,,0,70,0
7620,note_on,,,,,0,0,1,,,,,0,68,120
7620,note_on,,,,,60,0,2,,,,,1,82,0
7620,note_on,,,,,0,0,2,,,,,1,80,30
7680,note_on,,,,,0,0,1,,,,,0,50,0
7680,note_on,,,,,60,0,2,,,,,1,80,0
7680,note_on,,,,,0,0,2,,,,,1,62,0
7680,note_on,,,,,0,0,2,,,,,1,79,30
7680,note_on,,,,,0,0,2,,,,,1,63,30
7680,note_on,,,,,0,0,1,,,,,0,51,120
7680,note_on,,,,,60,0,1,,,,,0,68,0
7680,note_on,,,,,0,0,1,,,,,0,67,120
7740,note_on,,,,,60,0,2,,,,,1,79,0
7740,note_on,,,,,0,0,2,,,,,1,82,30
7740,note_on,,,,,0,0,1,,,,,0,70,120
7740,note_on,,,,,60,0,1,,,,,0,67,0
7775,note_on,,,,,35,0,2,,,,,1,63,0
7775,note_on,,,,,35,0,1,,,,,0,51,0
7800,note_on,,,,,0,0,2,,,,,1,60,30
7800,note_on,,,,,0,0,2,,,,,1,87,30
7800,note_on,,,,,25,0,1,,,,,0,70,0
7800,note_on,,,,,0,0,1,,,,,0,75,120
7800,note_on,,,,,0,0,1,,,,,0,48,120
7800,note_on,,,,,25,0,2,,,,,1,82,0
7860,note_on,,,,,60,0,1,,,,,0,75,0
7860,note_on,,,,,0,0,1,,,,,0,67,120
7860,note_on,,,,,0,0,2,,,,,1,79,30
7860,note_on,,,,,60,0,2,,,,,1,87,0
7895,note_on,,,,,35,0,2,,,,,1,60,0
7895,note_on,,,,,35,0,1,,,,,0,48,0
7920,note_on,,,,,0,0,2,,,,,1,56,30
7920,note_on,,,,,25,0,1,,,,,0,67,0
7920,note_on,,,,,0,0,1,,,,,0,65,120
7920,note_on,,,,,0,0,1,,,,,0,44,120
7920,note_on,,,,,25,0,2,,,,,1,79,0
7920,note_on,,,,,0,0,2,,,,,1,77,30
7980,note_on,,,,,60,0,2,,,,,1,77,0
7980,note_on,,,,,0,0,1,,,,,0,75,120
7980,note_on,,,,,0,0,2,,,,,1,87,30
7980,note_on,,,,,60,0,1,,,,,0,65,0
8007,note_on,,,,,27,0,1,,,,,0,44,0
8007,note_on,,,,,27,0,2,,,,,1,56,0
8040,note_on,,,,,0,0,2,,,,,1,58,30
8040,note_on,,,,,33,0,2,,,,,1,87,0
8040,note_on,,,,,0,0,2,,,,,1,77,30
8040,note_on,,,,,0,0,1,,,,,0,65,120
8040,note_on,,,,,33,0,1,,,,,0,75,0
8040,note_on,,,,,0,0,1,,,,,0,46,120
8100,note_on,,,,,60,0,2,,,,,1,77,0
8100,note_on,,,,,0,0,2,,,,,1,86,30
8100,note_on,,,,,60,0,1,,,,,0,65,0
8100,note_on,,,,,0,0,1,,,,,0,74,120
8119,note_on,,,,,19,0,1,,,,,0,46,0
8119,note_on,,,,,19,0,2,,,,,1,58,0
8160,note_on,,,,,0,0,1,,,,,0,39,120
8160,note_on,,,,,0,0,1,,,,,0,75,120
8160,note_on,,,,,41,0,1,,,,,0,74,0
8160,note_on,,,,,41,0,2,,,,,1,86,0
8160,note_on,,,,,0,0,2,,,,,1,87,30
8160,note_on,,,,,0,0,2,,,,,1,51,30
8220,note_on,,,,,0,0,2,,,,,1,82,30
8220,note_on,,,,,0,0,1,,,,,0,70,120
8220,note_on,,,,,60,0,2,,,,,1,87,0
8220,note_on,,,,,60,0,1,,,,,0,75,0
8255,note_on,,,,,35,0,1,,,,,0,39,0
8255,note_on,,,,,35,0,2,,,,,1,51,0
8280,note_on,,,,,0,0,2,,,,,1,80,30
8280,note_on,,,,,0,0,2,,,,,1,63,30
8280,note_on,,,,,0,0,1,,,,,0,51,120
8280,note_on,,,,,25,0,1,,,,,0,70,0
8280,note_on,,,,,0,0,1,,,,,0,68,120
8280,note_on,,,,,25,0,2,,,,,1,82,0
8340,note_on,,,,,0,0,2,,,,,1,82,30
8340,note_on,,,,,0,0,1,,,,,0,70,120
8340,note_on,,,,,60,0,2,,,,,1,80,0
8340,note_on,,,,,60,0,1,,,,,0,68,0
8367,note_on,,,,,27,0,1,,,,,0,51,0
8367,note_on,,,,,27,0,2,,,,,1,63,0
8400,note_on,,,,,0,0,2,,,,,1,56,30
8400,note_on,,,,,0,0,2,,,,,1,84,30
8400,note_on,,,,,33,0,2,,,,,1,82,0
8400,note_on,,,,,33,0,1,,,,,0,70,0
8400,note_on,,,,,0,0,1,,,,,0,72,120
8400,note_on,,,,,0,0,1,,,,,0,44,120
8460,note_on,,,,,0,0,2,,,,,1,80,30
8460,note_on,,,,,60,0,2,,,,,1,84,0
8460,note_on,,,,,0,0,1,,,,,0,68,120
8460,note_on,,,,,60,0,1,,,,,0,72,0
8487,note_on,,,,,27,0,2,,,,,1,56,0
8487,note_on,,,,,27,0,1,,,,,0,44,0
8520,note_on,,,,,0,0,2,,,,,1,79,30
8520,note_on,,,,,0,0,2,,,,,1,63,30
8520,note_on,,,,,33,0,1,,,,,0,68,0
8520,note_on,,,,,33,0,2,,,,,1,80,0
8520,note_on,,,,,0,0,1,,,,,0,51,120
8520,note_on,,,,,0,0,1,,,,,0,67,120
8580,note_on,,,,,0,0,2,,,,,1,80,30
8580,note_on,,,,,60,0,2,,,,,1,79,0
8580,note_on,,,,,60,0,1,,,,,0,67,0
8580,note_on,,,,,0,0,1,,,,,0,68,120
8599,note_on,,,,,19,0,1,,,,,0,51,0
8599,note_on,,,,,19,0,2,,,,,1,63,0
8640,note_on,,,,,0,0,2,,,,,1,55,30
8640,note_on,,,,,0,0,2,,,,,1,82,30
8640,note_on,,,,,41,0,2,,,,,1,80,0
8640,note_on,,,,,41,0,1,,,,,0,68,0
8640,note_on,,,,,0,0,1,,,,,0,70,120
8640,note_on,,,,,0,0,1,,,,,0,43,120
8700,note_on,,,,,60,0,1,,,,,0,70,0
8700,note_on,,,,,0,0,1,,,,,0,67,120
8700,note_on,,,,,60,0,2,,,,,1,82,0
8700,note_on,,,,,0,0,2,,,,,1,79,30
8719,note_on,,,,,19,0,2,,,,,1,55,0
8719,note_on,,,,,19,0,1,,,,,0,43,0
8760,note_on,,,,,41,0,2,,,,,1,79,0
8760,note_on,,,,,0,0,2,,,,,1,77,30
8760,note_on,,,,,0,0,2,,,,,1,63,30
8760,note_on,,,,,41,0,1,,,,,0,67,0
8760,note_on,,,,,0,0,1,,,,,0,65,120
8760,note_on,,,,,0,0,1,,,,,0,51,120
8820,note_on,,,,,60,0,2,,,,,1,77,0
8820,note_on,,,,,0,0,2,,,,,1,79,30
8820,note_on,,,,,0,0,1,,,,,0,67,120
8820,note_on,,,,,60,0,1,,,,,0,65,0
8839,note_on,,,,,19,0,1,,,,,0,51,0
8839,note_on,,,,,19,0,2,,,,,1,63,0
8880,note_on,,,,,41,0,1,,,,,0,67,0
8880,note_on,,,,,0,0,1,,,,,0,68,120
8880,note_on,,,,,0,0,1,,,,,0,41,120
8880,note_on,,,,,0,0,2,,,,,1,53,30
8880,note_on,,,,,0,0,2,,,,,1,80,30
8880,note_on,,,,,41,0,2,,,,,1,79,0
8940,note_on,,,,,60,0,1,,,,,0,68,0
8940,note_on,,,,,0,0,1,,,,,0,65,120
8940,note_on,,,,,0,0,2,,,,,1,77,30
8940,note_on,,,,,60,0,2,,,,,1,80,0
8951,note_on,,,,,11,0,1,,,,,0,41,0
8951,note_on,,,,,11,0,2,,,,,1,53,0
9000,note_on,,,,,0,0,1,,,,,0,50,120
9000,note_on,,,,,0,0,1,,,,,0,63,120
9000,note_on,,,,,49,0,1,,,,,0,65,0
9000,note_on,,,,,0,0,2,,,,,1,62,30
9000,note_on,,,,,0,0,2,,,,,1,75,30
9000,note_on,,,,,49,0,2,,,,,1,77,0
9060,note_on,,,,,0,0,1,,,,,0,65,120
9060,note_on,,,,,60,0,1,,,,,0,63,0
9060,note_on,,,,,60,0,2,,,,,1,75,0
9060,note_on,,,,,0,0,2,,,,,1,77,30
9071,note_on,,,,,11,0,2,,,,,1,62,0
9071,note_on,,,,,11,0,1,,,,,0,50,0
9120,note_on,,,,,0,0,1,,,,,0,51,120
9120,note_on,,,,,49,0,1,,,,,0,65,0
9120,note_on,,,,,0,0,2,,,,,1,63,30
9120,note_on,,,,,49,0,2,,,,,1,77,0
9120,note_on,,,,,0,0,1,,,,,0,67,120
9120,note_on,,,,,0,0,2,,,,,1,79,30
9180,note_on,,,,,0,0,2,,,,,1,67,30
9180,note_on,,,,,0,0,1,,,,,0,63,120
9180,note_on,,,,,0,0,1,,,,,0,55,120
9180,note_on,,,,,0,0,2,,,,,1,75,30
9180,note_on,,,,,0,0,2,,,,,1,79,0
9180,note_on,,,,,60,0,2,,,,,1,63,0
9180,note_on,,,,,0,0,1,,,,,0,67,0
9180,note_on,,,,,60,0,1,,,,,0,51,0
9240,note_on,,,,,60,0,1,,,,,0,55,0
9240,note_on,,,,,0,0,2,,,,,1,74,30
9240,note_on,,,,,0,0,1,,,,,0,63,0
9240,note_on,,,,,0,0,2,,,,,1,75,0
9240,note_on,,,,,60,0,2,,,,,1,67,0
9240,note_on,,,,,0,0,2,,,,,1,65,30
9240,note_on,,,,,0,0,1,,,,,0,62,120
9240,note_on,,,,,0,0,1,,,,,0,53,120
9300,note_on,,,,,60,0,1,,,,,0,53,0
9300,note_on,,,,,0,0,2,,,,,1,67,30
9300,note_on,,,,,0,0,2,,,,,1,75,30
9300,note_on,,,,,0,0,2,,,,,1,74,0
9300,note_on,,,,,60,0,2,,,,,1,65,0
9300,note_on,,,,,0,0,1,,,,,0,63,120
9300,note_on,,,,,0,0,1,,,,,0,55,120
9300,note_on,,,,,0,0,1,,,,,0,62,0
9360,note_on,,,,,60,0,2,,,,,1,67,0
9360,note_on,,,,,60,0,1,,,,,0,55,0
9360,note_on,,,,,0,0,2,,,,,1,75,0
9360,note_on,,,,,0,0,2,,,,,1,72,30
9360,note_on,,,,,0,0,2,,,,,1,68,30
9360,note_on,,,,,0,0,1,,,,,0,63,0
9360,note_on,,,,,0,0,1,,,,,0,60,120
9360,note_on,,,,,0,0,1,,,,,0,56,120
9420,note_on,,,,,60,0,1,,,,,0,56,0
9420,note_on,,,,,0,0,1,,,,,0,53,120
9420,note_on,,,,,60,0,2,,,,,1,68,0
9420,note_on,,,,,0,0,2,,,,,1,65,30
9447,note_on,,,,,27,0,1,,,,,0,60,0
9447,note_on,,,,,27,0,2,,,,,1,72,0
9480,note_on,,,,,0,0,1,,,,,0,51,120
9480,note_on,,,,,33,0,2,,,,,1,65,0
9480,note_on,,,,,33,0,1,,,,,0,53,0
9480,note_on,,,,,0,0,2,,,,,1,80,30
9480,note_on,,,,,0,0,2,,,,,1,63,30
9480,note_on,,,,,0,0,1,,,,,0,68,120
9540,note_on,,,,,60,0,2,,,,,1,63,0
9540,note_on,,,,,0,0,2,,,,,1,65,30
9540,note_on,,,,,0,0,1,,,,,0,53,120
9540,note_on,,,,,60,0,1,,,,,0,51,0
9567,note_on,,,,,27,0,1,,,,,0,68,0
9567,note_on,,,,,27,0,2,,,,,1,80,0
9600,note_on,,,,,33,0,2,,,,,1,65,0
9600,note_on,,,,,0,0,2,,,,,1,70,30
9600,note_on,,,,,0,0,1,,,,,0,55,120
9600,note_on,,,,,0,0,1,,,,,0,58,120
9600,note_on,,,,,33,0,1,,,,,0,53,0
9600,note_on,,,,,0,0,2,,,,,1,67,30
9660,note_on,,,,,60,0,2,,,,,1,67,0
9660,note_on,,,,,0,0,1,,,,,0,51,120
9660,note_on,,,,,60,0,1,,,,,0,55,0
9660,note_on,,,,,0,0,2,,,,,1,63,30
9671,note_on,,,,,11,0,2,,,,,1,70,0
9671,note_on,,,,,11,0,1,,,,,0,58,0
9720,note_on,,,,,0,0,2,,,,,1,62,30
9720,note_on,,,,,49,0,2,,,,,1,63,0
9720,note_on,,,,,49,0,1,,,,,0,51,0
9720,note_on,,,,,0,0,1,,,,,0,67,120
9720,note_on,,,,,0,0,1,,,,,0,50,120
9720,note_on,,,,,0,0,2,,,,,1,79,30
9780,note_on,,,,,60,0,1,,,,,0,50,0
9780,note_on,,,,,0,0,1,,,,,0,51,120
9780,note_on,,,,,60,0,2,,,,,1,62,0
9780,note_on,,,,,0,0,2,,,,,1,63,30
9799,note_on,,,,,19,0,1,,,,,0,67,0
9799,note_on,,,,,19,0,2,,,,,1,79,0
9840,note_on,,,,,0,0,1,,,,,0,56,120
9840,note_on,,,,,0,0,2,,,,,1,68,30
9840,note_on,,,,,0,0,2,,,,,1,65,30
9840,note_on,,,,,41,0,1,,,,,0,51,0
9840,note_on,,,,,0,0,1,,,,,0,53,120
9840,note_on,,,,,41,0,2,,,,,1,63,0
9900,note_on,,,,,60,0,1,,,,,0,53,0
9900,note_on,,,,,0,0,1,,,,,0,50,120
9900,note_on,,,,,60,0,2,,,,,1,65,0
9900,note_on,,,,,0,0,2,,,,,1,62,30
9919,note_on,,,,,19,0,1,,,,,0,56,0
9919,note_on,,,,,19,0,2,,,,,1,68,0
9960,note_on,,,,,0,0,2,,,,,1,60,30
9960,note_on,,,,,0,0,2,,,,,1,77,30
9960,note_on,,,,,0,0,1,,,,,0,65,120
9960,note_on,,,,,0,0,1,,,,,0,48,120
9960,note_on,,,,,41,0,2,,,,,1,62,0
9960,note_on,,,,,41,0,1,,,,,0,50,0
10020,note_on,,,,,0,0,2,,,,,1,62,30
10020,note_on,,,,,0,0,1,,,,,0,50,120
10020,note_on,,,,,60,0,1,,,,,0,48,0
10020,note_on,,,,,60,0,2,,,,,1,60,0
10039,note_on,,,,,19,0,2,,,,,1,77,0
10039,note_on,,,,,19,0,1,,,,,0,65,0
10080,note_on,,,,,41,0,2,,,,,1,62,0
10080,note_on,,,,,0,0,1,,,,,0,51,120
10080,note_on,,,,,0,0,1,,,,,0,55,120
10080,note_on,,,,,41,0,1,,,,,0,50,0
10080,note_on,,,,,0,0,2,,,,,1,67,30
10080,note_on,,,,,0,0,2,,,,,1,63,30
10140,note_on,,,,,0,0,1,,,,,0,58,120
10140,note_on,,,,,60,0,1,,,,,0,55,0
10140,note_on,,,,,60,0,2,,,,,1,67,0
10140,note_on,,,,,0,0,2,,,,,1,70,30
10167,note_on,,,,,27,0,1,,,,,0,51,0
10167,note_on,,,,,27,0,2,,,,,1,63,0
10200,note_on,,,,,33,0,2,,,,,1,70,0
10200,note_on,,,,,0,0,1,,,,,0,55,120
10200,note_on,,,,,0,0,1,,,,,0,63,120
10200,note_on,,,,,33,0,1,,,,,0,58,0
10200,note_on,,,,,0,0,2,,,,,1,67,30
10200,note_on,,,,,0,0,2,,,,,1,75,30
10260,note_on,,,,,0,0,1,,,,,0,67,120
10260,note_on,,,,,60,0,1,,,,,0,63,0
10260,note_on,,,,,0,0,2,,,,,1,79,30
10260,note_on,,,,,60,0,2,,,,,1,75,0
10279,note_on,,,,,19,0,1,,,,,0,55,0
10279,note_on,,,,,19,0,2,,,,,1,67,0
10320,note_on,,,,,41,0,1,,,,,0,56,120
10320,note_on,,,,,41,0,2,,,,,1,68,30
10380,note_on,,,,,60,0,2,,,,,1,79,0
10380,note_on,,,,,0,0,2,,,,,1,77,30
10380,note_on,,,,,60,0,1,,,,,0,67,0
10380,note_on,,,,,0,0,1,,,,,0,65,120
10407,note_on,,,,,27,0,2,,,,,1,68,0
10407,note_on,,,,,27,0,1,,,,,0,56,0
10440,note_on,,,,,0,0,2,,,,,1,75,30
10440,note_on,,,,,0,0,1,,,,,0,63,120
10440,note_on,,,,,0,0,2,,,,,1,70,30
10440,note_on,,,,,33,0,1,,,,,0,65,0
10440,note_on,,,,,33,0,2,,,,,1,77,0
10440,note_on,,,,,0,0,1,,,,,0,58,120
10500,note_on,,,,,60,0,2,,,,,1,75,0
10500,note_on,,,,,0,0,1,,,,,0,62,120
10500,note_on,,,,,0,0,2,,,,,1,74,30
10500,note_on,,,,,60,0,1,,,,,0,63,0
10527,note_on,,,,,27,0,1,,,,,0,58,0
10527,note_on,,,,,27,0,2,,,,,1,70,0
10560,note_on,,,,,0,0,1,,,,,0,63,120
10560,note_on,,,,,33,0,1,,,,,0,62,0
10560,note_on,,,,,0,0,2,,,,,1,72,30
10560,note_on,,,,,33,0,2,,,,,1,74,0
10560,note_on,,,,,0,0,2,,,,,1,75,30
10560,note_on,,,,,0,0,1,,,,,0,60,120
10620,note_on,,,,,60,0,1,,,,,0,67,120
10620,note_on,,,,,60,0,2,,,,,1,79,30
10655,note_on,,,,,35,0,1,,,,,0,60,0
10655,note_on,,,,,35,0,2,,,,,1,72,0
10680,note_on,,,,,0,0,2,,,,,1,68,30
10680,note_on,,,,,0,0,2,,,,,1,84,30
10680,note_on,,,,,25,0,1,,,,,0,67,0
10680,note_on,,,,,0,0,1,,,,,0,72,120
10680,note_on,,,,,0,0,1,,,,,0,56,120
10680,note_on,,,,,25,0,2,,,,,1,79,0
10740,note_on,,,,,60,0,2,,,,,1,77,30
10740,note_on,,,,,60,0,1,,,,,0,65,120
10759,note_on,,,,,19,0,1,,,,,0,56,0
10759,note_on,,,,,19,0,2,,,,,1,68,0
10800,note_on,,,,,0,0,1,,,,,0,72,0
10800,note_on,,,,,0,0,1,,,,,0,67,120
10800,note_on,,,,,0,0,2,,,,,1,79,30
10800,note_on,,,,,0,0,2,,,,,1,84,0
10800,note_on,,,,,41,0,2,,,,,1,77,0
10800,note_on,,,,,0,0,2,,,,,1,70,30
10800,note_on,,,,,0,0,2,,,,,1,82,30
10800,note_on,,,,,0,0,1,,,,,0,58,120
10800,note_on,,,,,0,0,1,,,,,0,70,120
10800,note_on,,,,,41,0,1,,,,,0,65,0
10860,note_on,,,,,60,0,2,,,,,1,75,0
10860,note_on,,,,,60,0,1,,,,,0,63,0
10860,note_on,,,,,0,0,1,,,,,0,63,120
10860,note_on,,,,,0,0,2,,,,,1,75,30
10887,note_on,,,,,27,0,2,,,,,1,70,0
10887,note_on,,,,,27,0,1,,,,,0,58,0
10907,set_tempo,,,,,10907,1,0,,631579,,,,,
10920,note_on,,,,,33,0,1,,,,,0,67,0
10920,note_on,,,,,0,0,2,,,,,1,80,30
10920,note_on,,,,,0,0,1,,,,,0,65,120
10920,note_on,,,,,0,0,1,,,,,0,68,120
10920,note_on,,,,,0,0,2,,,,,1,58,30
10920,note_on,,,,,33,0,2,,,,,1,79,0
10920,note_on,,,,,0,0,2,,,,,1,82,0
10920,note_on,,,,,0,0,2,,,,,1,77,30
10920,note_on,,,,,0,0,1,,,,,0,70,0
10920,note_on,,,,,0,0,1,,,,,0,46,120
10935,set_tempo,,,,,28,1,0,,638298,,,,,
10960,set_tempo,,,,,25,1,0,,645161,,,,,
10980,note_on,,,,,0,0,2,,,,,1,74,30
10980,note_on,,,,,60,0,2,,,,,1,75,0
10980,note_on,,,,,0,0,1,,,,,0,62,120
10980,note_on,,,,,60,0,1,,,,,0,63,0
10985,set_tempo,,,,,25,1,0,,652174,,,,,
10999,note_on,,,,,19,0,2,,,,,1,58,0
10999,note_on,,,,,19,0,1,,,,,0,46,0
11010,set_tempo,,,,,25,1,0,,659341,,,,,
11037,set_tempo,,,,,27,1,0,,666667,,,,,
11040,note_on,,,,,0,0,2,,,,,1,74,0
11040,note_on,,,,,0,0,2,,,,,1,70,30
11040,note_on,,,,,41,0,1,,,,,0,65,0
11040,note_on,,,,,0,0,1,,,,,0,68,0
11040,note_on,,,,,0,0,1,,,,,0,62,0
11040,note_on,,,,,0,0,1,,,,,0,58,120
11040,note_on,,,,,0,0,2,,,,,1,80,0
11040,note_on,,,,,41,0,2,,,,,1,77,0
11056,note_on,,,,,16,0,1,,,,,0,63,120
11056,note_on,,,,,16,0,2,,,,,1,75,30
11062,set_tempo,,,,,25,1,0,,674157,,,,,
11072,note_on,,,,,16,0,2,,,,,1,79,30
11072,note_on,,,,,16,0,1,,,,,0,67,120
11087,set_tempo,,,,,25,1,0,,681818,,,,,
11100,note_on,,,,,28,0,2,,,,,1,63,30
11100,note_on,,,,,28,0,1,,,,,0,51,120
11112,set_tempo,,,,,25,1,0,,689655,,,,,
11137,set_tempo,,,,,25,1,0,,697674,,,,,
11160,note_on,,,,,0,0,1,,,,,0,46,120
11160,note_on,,,,,60,0,2,,,,,1,63,0
11160,note_on,,,,,0,0,2,,,,,1,58,30
11160,note_on,,,,,60,0,1,,,,,0,51,0
11165,set_tempo,,,,,28,1,0,,705882,,,,,
11190,set_tempo,,,,,25,1,0,,714286,,,,,
11215,set_tempo,,,,,25,1,0,,722892,,,,,
11220,note_on,,,,,0,0,1,,,,,0,43,120
11220,note_on,,,,,60,0,1,,,,,0,46,0
11220,note_on,,,,,0,0,2,,,,,1,55,30
11220,note_on,,,,,60,0,2,,,,,1,58,0
11240,set_tempo,,,,,25,1,0,,731707,,,,,
11267,set_tempo,,,,,27,1,0,,740741,,,,,
11280,note_on,,,,,0,0,1,,,,,0,39,120
11280,note_on,,,,,60,0,1,,,,,0,43,0
11280,note_on,,,,,0,0,2,,,,,1,51,30
11280,note_on,,,,,60,0,2,,,,,1,55,0
11292,set_tempo,,,,,25,1,0,,750000,,,,,
11317,set_tempo,,,,,25,1,0,,759494,,,,,
11342,set_tempo,,,,,25,1,0,,769231,,,,,
11367,set_tempo,,,,,25,1,0,,779221,,,,,
11380,set_tempo,,,,,13,1,0,,659341,,,,,
11396,set_tempo,,,,,16,1,0,,638298,,,,,
11519,note_on,,,,,239,0,2,,,,,1,75,0
11519,note_on,,,,,239,0,1,,,,,0,63,0
11520,set_tempo,,,,,124,1,0,,769231,,,,,
11520,note_on,,,,,1,0,2,,,,,1,70,0
11520,note_on,,,,,0,0,2,,,,,1,51,0
11520,note_on,,,,,1,0,1,,,,,0,58,0
11520,note_on,,,,,0,0,1,,,,,0,39,0
11520,note_on,,,,,0,0,1,,,,,0,48,100
11527,note_on,,,,,7,0,2,,,,,1,79,0
11527,note_on,,,,,7,0,1,,,,,0,67,0
11555,set_tempo,,,,,35,1,0,,638298,,,,,
11580,note_on,,,,,53,0,1,,,,,0,67,100
11599,note_on,,,,,19,0,1,,,,,0,48,0
11640,note_on,,,,,41,0,1,,,,,0,67,0
11640,note_on,,,,,0,0,1,,,,,0,65,100
11640,note_on,,,,,0,0,1,,,,,0,60,100
11700,note_on,,,,,60,0,1,,,,,0,65,0
11700,note_on,,,,,0,0,1,,,,,0,67,100
11727,note_on,,,,,27,0,1,,,,,0,60,0
11760,note_on,,,,,33,0,1,,,,,0,67,0
11760,note_on,,,,,0,0,1,,,,,0,68,100
11760,note_on,,,,,0,0,1,,,,,0,53,100
11820,note_on,,,,,60,0,1,,,,,0,68,0
11820,note_on,,,,,0,0,1,,,,,0,65,100
11839,note_on,,,,,19,0,1,,,,,0,53,0
11880,note_on,,,,,0,0,1,,,,,0,60,100
11880,note_on,,,,,41,0,1,,,,,0,65,0
11880,note_on,,,,,0,0,1,,,,,0,63,100
11940,note_on,,,,,60,0,1,,,,,0,63,0
11940,note_on,,,,,0,0,1,,,,,0,65,100
11967,note_on,,,,,27,0,1,,,,,0,60,0
12000,note_on,,,,,33,0,1,,,,,0,65,0
12000,note_on,,,,,0,0,1,,,,,0,67,100
12000,note_on,,,,,0,0,1,,,,,0,51,100
12060,note_on,,,,,60,0,1,,,,,0,67,0
12060,note_on,,,,,0,0,1,,,,,0,63,100
12087,note_on,,,,,27,0,1,,,,,0,51,0
12120,note_on,,,,,0,0,1,,,,,0,62,100
12120,note_on,,,,,33,0,1,,,,,0,63,0
12120,note_on,,,,,0,0,1,,,,,0,60,100
12180,note_on,,,,,0,0,1,,,,,0,63,100
12180,note_on,,,,,60,0,1,,,,,0,62,0
12207,note_on,,,,,27,0,1,,,,,0,60,0
12240,note_on,,,,,33,0,1,,,,,0,63,0
12240,note_on,,,,,0,0,1,,,,,0,65,100
12240,note_on,,,,,0,0,1,,,,,0,50,100
12300,note_on,,,,,60,0,1,,,,,0,65,0
12300,note_on,,,,,0,0,1,,,,,0,62,100
12327,note_on,,,,,27,0,1,,,,,0,50,0
12360,note_on,,,,,33,0,1,,,,,0,62,0
12360,note_on,,,,,0,0,1,,,,,0,59,100
12360,note_on,,,,,0,0,1,,,,,0,60,100
12395,note_on,,,,,35,0,1,,,,,0,59,0
12420,note_on,,,,,25,0,1,,,,,0,60,0
12420,note_on,,,,,0,0,1,,,,,0,62,100
12480,note_on,,,,,0,0,1,,,,,0,48,100
12480,note_on,,,,,60,0,1,,,,,0,62,0
12480,note_on,,,,,0,0,1,,,,,0,63,100
12540,note_on,,,,,60,0,1,,,,,0,48,0
12540,note_on,,,,,0,0,1,,,,,0,55,100
12559,note_on,,,,,19,0,1,,,,,0,63,0
12600,note_on,,,,,41,0,1,,,,,0,55,0
12600,note_on,,,,,0,0,1,,,,,0,72,100
12600,note_on,,,,,0,0,1,,,,,0,53,100
12660,note_on,,,,,60,0,1,,,,,0,53,0
12660,note_on,,,,,0,0,1,,,,,0,55,100
12671,note_on,,,,,11,0,1,,,,,0,72,0
12720,note_on,,,,,49,0,1,,,,,0,55,0
12720,note_on,,,,,0,0,1,,,,,0,65,100
12720,note_on,,,,,0,0,1,,,,,0,56,100
12780,note_on,,,,,0,0,1,,,,,0,53,100
12780,note_on,,,,,60,0,1,,,,,0,56,0
12791,note_on,,,,,11,0,1,,,,,0,65,0
12840,note_on,,,,,49,0,1,,,,,0,53,0
12840,note_on,,,,,0,0,1,,,,,0,72,100
12840,note_on,,,,,0,0,1,,,,,0,51,100
12900,note_on,,,,,60,0,1,,,,,0,51,0
12900,note_on,,,,,0,0,1,,,,,0,53,100
12911,note_on,,,,,11,0,1,,,,,0,72,0
12960,note_on,,,,,49,0,1,,,,,0,53,0
12960,note_on,,,,,0,0,1,,,,,0,63,100
12960,note_on,,,,,0,0,1,,,,,0,55,100
13020,note_on,,,,,60,0,1,,,,,0,55,0
13020,note_on,,,,,0,0,1,,,,,0,51,100
13031,note_on,,,,,11,0,1,,,,,0,63,0
13080,note_on,,,,,49,0,1,,,,,0,51,0
13080,note_on,,,,,0,0,1,,,,,0,72,100
13080,note_on,,,,,0,0,1,,,,,0,50,100
13140,note_on,,,,,60,0,1,,,,,0,50,0
13140,note_on,,,,,0,0,1,,,,,0,51,100
13159,note_on,,,,,19,0,1,,,,,0,72,0
13200,note_on,,,,,41,0,1,,,,,0,51,0
13200,note_on,,,,,0,0,1,,,,,0,62,100
13200,note_on,,,,,0,0,1,,,,,0,53,100
13260,note_on,,,,,60,0,1,,,,,0,53,0
13260,note_on,,,,,0,0,1,,,,,0,50,100
13263,note_on,,,,,3,0,1,,,,,0,62,0
13320,note_on,,,,,0,0,1,,,,,0,72,100
13320,note_on,,,,,0,0,1,,,,,0,48,100
13320,note_on,,,,,57,0,1,,,,,0,50,0
13344,note_on,,,,,24,0,1,,,,,0,71,100
13359,note_on,,,,,15,0,1,,,,,0,72,0
13367,note_on,,,,,8,0,1,,,,,0,71,0
13368,note_on,,,,,1,0,1,,,,,0,72,100
13380,note_on,,,,,0,0,1,,,,,0,50,100
13380,note_on,,,,,12,0,1,,,,,0,48,0
13384,note_on,,,,,4,0,1,,,,,0,71,100
13391,note_on,,,,,7,0,1,,,,,0,72,0
13439,note_on,,,,,48,0,1,,,,,0,71,0
13440,note_on,,,,,0,0,1,,,,,0,60,100
13440,note_on,,,,,0,0,1,,,,,0,51,100
13440,note_on,,,,,1,0,1,,,,,0,50,0
13500,note_on,,,,,60,0,1,,,,,0,60,0
13500,note_on,,,,,0,0,1,,,,,0,63,100
13519,note_on,,,,,19,0,1,,,,,0,51,0
13560,note_on,,,,,41,0,1,,,,,0,63,0
13560,note_on,,,,,0,0,1,,,,,0,67,100
13560,note_on,,,,,0,0,1,,,,,0,48,100
13620,note_on,,,,,60,0,1,,,,,0,67,0
13620,note_on,,,,,0,0,1,,,,,0,72,100
13647,note_on,,,,,27,0,1,,,,,0,48,0
13680,note_on,,,,,0,0,1,,,,,0,53,100
13680,note_on,,,,,0,0,1,,,,,0,62,100
13680,note_on,,,,,33,0,1,,,,,0,72,0
13740,note_on,,,,,60,0,1,,,,,0,62,0
13740,note_on,,,,,0,0,1,,,,,0,72,100
13759,note_on,,,,,19,0,1,,,,,0,53,0
13800,note_on,,,,,41,0,1,,,,,0,72,0
13800,note_on,,,,,0,0,1,,,,,0,71,100
13800,note_on,,,,,0,0,1,,,,,0,50,100
13816,note_on,,,,,16,0,1,,,,,0,72,100
13831,note_on,,,,,15,0,1,,,,,0,71,0
13840,note_on,,,,,9,0,1,,,,,0,71,100
13847,note_on,,,,,7,0,1,,,,,0,72,0
13860,note_on,,,,,13,0,1,,,,,0,69,100
13871,note_on,,,,,11,0,1,,,,,0,71,0
13879,note_on,,,,,8,0,1,,,,,0,50,0
13920,note_on,,,,,0,0,1,,,,,0,62,100
13920,note_on,,,,,0,0,1,,,,,0,55,100
13920,note_on,,,,,41,0,1,,,,,0,69,0
13980,note_on,,,,,60,0,1,,,,,0,62,0
13980,note_on,,,,,0,0,1,,,,,0,67,100
14040,note_on,,,,,60,0,1,,,,,0,67,0
14040,note_on,,,,,0,0,1,,,,,0,55,0
14040,note_on,,,,,0,0,1,,,,,0,71,100
14040,note_on,,,,,0,0,1,,,,,0,53,100
14100,note_on,,,,,60,0,1,,,,,0,71,0
14100,note_on,,,,,0,0,1,,,,,0,74,100
14160,note_on,,,,,0,0,1,,,,,0,55,100
14160,note_on,,,,,0,0,1,,,,,0,63,100
14160,note_on,,,,,60,0,1,,,,,0,74,0
14160,note_on,,,,,0,0,1,,,,,0,53,0
14220,note_on,,,,,60,0,1,,,,,0,63,0
14224,note_on,,,,,4,0,1,,,,,0,74,100
14239,note_on,,,,,15,0,1,,,,,0,74,0
14239,note_on,,,,,0,0,1,,,,,0,55,0
14244,note_on,,,,,5,0,1,,,,,0,72,100
14264,note_on,,,,,20,0,1,,,,,0,74,100
14275,note_on,,,,,11,0,1,,,,,0,72,0
14280,note_on,,,,,5,0,1,,,,,0,51,100
14288,note_on,,,,,8,0,1,,,,,0,72,100
14295,note_on,,,,,7,0,1,,,,,0,74,0
14348,note_on,,,,,53,0,1,,,,,0,71,100
14351,note_on,,,,,3,0,1,,,,,0,72,0
14359,note_on,,,,,8,0,1,,,,,0,51,0
14400,note_on,,,,,0,0,1,,,,,0,56,100
14400,note_on,,,,,41,0,1,,,,,0,63,100
14403,note_on,,,,,3,0,1,,,,,0,71,0
14460,note_on,,,,,57,0,1,,,,,0,63,0
14460,note_on,,,,,0,0,1,,,,,0,68,100
14520,note_on,,,,,60,0,1,,,,,0,68,0
14520,note_on,,,,,0,0,1,,,,,0,56,0
14520,note_on,,,,,0,0,1,,,,,0,72,100
14520,note_on,,,,,0,0,1,,,,,0,55,100
14580,note_on,,,,,60,0,1,,,,,0,72,0
14580,note_on,,,,,0,0,1,,,,,0,75,100
14640,note_on,,,,,0,0,1,,,,,0,65,100
14640,note_on,,,,,0,0,1,,,,,0,57,100
14640,note_on,,,,,60,0,1,,,,,0,75,0
14640,note_on,,,,,0,0,1,,,,,0,55,0
14700,note_on,,,,,0,0,1,,,,,0,75,100
14700,note_on,,,,,60,0,1,,,,,0,65,0
14719,note_on,,,,,19,0,1,,,,,0,57,0
14760,note_on,,,,,41,0,1,,,,,0,75,0
14760,note_on,,,,,0,0,1,,,,,0,74,100
14760,note_on,,,,,0,0,1,,,,,0,53,100
14776,note_on,,,,,16,0,1,,,,,0,75,100
14795,note_on,,,,,19,0,1,,,,,0,74,0
14800,note_on,,,,,5,0,1,,,,,0,74,100
14811,note_on,,,,,11,0,1,,,,,0,75,0
14823,note_on,,,,,12,0,1,,,,,0,74,0
14824,note_on,,,,,1,0,1,,,,,0,72,100
14836,note_on,,,,,12,0,1,,,,,0,74,100
14839,note_on,,,,,3,0,1,,,,,0,53,0
14847,note_on,,,,,8,0,1,,,,,0,72,0
14856,note_on,,,,,9,0,1,,,,,0,72,100
14859,note_on,,,,,3,0,1,,,,,0,74,0
14879,note_on,,,,,20,0,1,,,,,0,72,0
14880,note_on,,,,,1,0,1,,,,,0,65,100
14880,note_on,,,,,0,0,1,,,,,0,58,100
14940,note_on,,,,,60,0,1,,,,,0,65,0
14940,note_on,,,,,0,0,1,,,,,0,70,100
15000,note_on,,,,,60,0,1,,,,,0,70,0
15000,note_on,,,,,0,0,1,,,,,0,58,0
15000,note_on,,,,,0,0,1,,,,,0,74,100
15000,note_on,,,,,0,0,1,,,,,0,57,100
15060,note_on,,,,,0,0,1,,,,,0,77,100
15060,note_on,,,,,60,0,1,,,,,0,74,0
15120,note_on,,,,,0,0,1,,,,,0,57,0
15120,note_on,,,,,0,0,1,,,,,0,67,100
15120,note_on,,,,,0,0,1,,,,,0,59,100
15120,note_on,,,,,60,0,1,,,,,0,77,0
15180,note_on,,,,,60,0,1,,,,,0,67,0
15184,note_on,,,,,4,0,1,,,,,0,77,100
15207,note_on,,,,,23,0,1,,,,,0,59,0
15219,note_on,,,,,12,0,1,,,,,0,77,0
15232,note_on,,,,,13,0,1,,,,,0,77,100
15240,note_on,,,,,8,0,1,,,,,0,55,100
15255,note_on,,,,,15,0,1,,,,,0,77,0
15256,note_on,,,,,1,0,1,,,,,0,75,100
15272,note_on,,,,,16,0,1,,,,,0,77,100
15279,note_on,,,,,7,0,1,,,,,0,75,0
15288,note_on,,,,,9,0,1,,,,,0,75,100
15299,note_on,,,,,11,0,1,,,,,0,77,0
15308,note_on,,,,,9,0,1,,,,,0,74,100
15311,note_on,,,,,3,0,1,,,,,0,75,0
15311,note_on,,,,,0,0,1,,,,,0,55,0
15360,note_on,,,,,49,0,1,,,,,0,75,100
15360,note_on,,,,,0,0,1,,,,,0,60,100
15363,note_on,,,,,3,0,1,,,,,0,74,0
15420,note_on,,,,,57,0,1,,,,,0,60,0
15420,note_on,,,,,0,0,1,,,,,0,75,0
15420,note_on,,,,,0,0,1,,,,,0,72,100
15420,note_on,,,,,0,0,1,,,,,0,68,100
15480,note_on,,,,,0,0,1,,,,,0,70,100
15480,note_on,,,,,0,0,1,,,,,0,67,100
15480,note_on,,,,,60,0,1,,,,,0,68,0
15480,note_on,,,,,0,0,1,,,,,0,72,0
15540,note_on,,,,,0,0,1,,,,,0,70,0
15540,note_on,,,,,0,0,1,,,,,0,72,100
15540,note_on,,,,,0,0,1,,,,,0,68,100
15540,note_on,,,,,60,0,1,,,,,0,67,0
15600,note_on,,,,,60,0,1,,,,,0,68,0
15600,note_on,,,,,0,0,1,,,,,0,72,0
15600,note_on,,,,,0,0,1,,,,,0,74,100
15600,note_on,,,,,0,0,1,,,,,0,58,100
15660,note_on,,,,,60,0,1,,,,,0,58,0
15660,note_on,,,,,0,0,1,,,,,0,74,0
15660,note_on,,,,,0,0,1,,,,,0,70,100
15660,note_on,,,,,0,0,1,,,,,0,67,100
15720,note_on,,,,,0,0,1,,,,,0,65,100
15720,note_on,,,,,0,0,1,,,,,0,68,100
15720,note_on,,,,,60,0,1,,,,,0,67,0
15720,note_on,,,,,0,0,1,,,,,0,70,0
15780,note_on,,,,,60,0,1,,,,,0,65,0
15780,note_on,,,,,0,0,1,,,,,0,68,0
15780,note_on,,,,,0,0,1,,,,,0,70,100
15780,note_on,,,,,0,0,1,,,,,0,67,100
15840,note_on,,,,,60,0,1,,,,,0,67,0
15840,note_on,,,,,0,0,1,,,,,0,70,0
15840,note_on,,,,,0,0,1,,,,,0,72,100
15840,note_on,,,,,0,0,1,,,,,0,56,100
15900,note_on,,,,,60,0,1,,,,,0,72,0
15900,note_on,,,,,0,0,1,,,,,0,70,100
15960,note_on,,,,,60,0,1,,,,,0,70,0
15960,note_on,,,,,0,0,1,,,,,0,56,0
15960,note_on,,,,,0,0,1,,,,,0,68,100
16020,note_on,,,,,60,0,1,,,,,0,68,0
16020,note_on,,,,,0,0,1,,,,,0,67,100
16080,note_on,,,,,60,0,1,,,,,0,67,0
16080,note_on,,,,,0,0,1,,,,,0,65,100
16140,note_on,,,,,60,0,1,,,,,0,65,0
16140,note_on,,,,,0,0,1,,,,,0,63,100
16200,note_on,,,,,60,0,1,,,,,0,63,0
16200,note_on,,,,,0,0,1,,,,,0,62,100
16260,note_on,,,,,60,0,1,,,,,0,62,0
16260,note_on,,,,,0,0,1,,,,,0,60,100
16320,note_on,,,,,60,0,1,,,,,0,60,0
16320,note_on,,,,,0,0,1,,,,,0,74,100
16320,note_on,,,,,0,0,1,,,,,0,58,100
16380,note_on,,,,,0,0,1,,,,,0,70,100
16380,note_on,,,,,0,0,1,,,,,0,67,100
16380,note_on,,,,,0,0,1,,,,,0,74,0
16380,note_on,,,,,60,0,1,,,,,0,58,0
16440,note_on,,,,,60,0,1,,,,,0,67,0
16440,note_on,,,,,0,0,1,,,,,0,70,0
16440,note_on,,,,,0,0,1,,,,,0,68,100
16440,note_on,,,,,0,0,1,,,,,0,65,100
16500,note_on,,,,,60,0,1,,,,,0,65,0
16500,note_on,,,,,0,0,1,,,,,0,68,0
16500,note_on,,,,,0,0,1,,,,,0,70,100
16500,note_on,,,,,0,0,1,,,,,0,67,100
16560,note_on,,,,,60,0,1,,,,,0,67,0
16560,note_on,,,,,0,0,1,,,,,0,70,0
16560,note_on,,,,,0,0,1,,,,,0,72,100
16560,note_on,,,,,0,0,1,,,,,0,56,100
16620,note_on,,,,,0,0,1,,,,,0,65,100
16620,note_on,,,,,60,0,1,,,,,0,56,0
16620,note_on,,,,,0,0,1,,,,,0,72,0
16620,note_on,,,,,0,0,1,,,,,0,68,100
16680,note_on,,,,,60,0,1,,,,,0,65,0
16680,note_on,,,,,0,0,1,,,,,0,68,0
16680,note_on,,,,,0,0,1,,,,,0,67,100
16680,note_on,,,,,0,0,1,,,,,0,63,100
16740,note_on,,,,,60,0,1,,,,,0,63,0
16740,note_on,,,,,0,0,1,,,,,0,67,0
16740,note_on,,,,,0,0,1,,,,,0,68,100
16740,note_on,,,,,0,0,1,,,,,0,65,100
16785,set_tempo,,,,,5230,1,0,,674157,,,,,
16797,set_tempo,,,,,12,1,0,,714286,,,,,
16800,note_on,,,,,60,0,1,,,,,0,65,0
16800,note_on,,,,,0,0,1,,,,,0,70,100
16800,note_on,,,,,0,0,1,,,,,0,68,0
16800,note_on,,,,,0,0,1,,,,,0,55,100
16820,note_on,,,,,20,0,1,,,,,0,68,100
16823,note_on,,,,,3,0,1,,,,,0,70,0
16836,note_on,,,,,13,0,1,,,,,0,70,100
16843,note_on,,,,,7,0,1,,,,,0,68,0
16852,set_tempo,,,,,55,1,0,,645161,,,,,
16859,note_on,,,,,16,0,1,,,,,0,70,0
16860,note_on,,,,,1,0,1,,,,,0,68,100
16920,note_on,,,,,60,0,1,,,,,0,68,0
16920,note_on,,,,,0,0,1,,,,,0,55,0
16920,note_on,,,,,0,0,1,,,,,0,67,100
16980,note_on,,,,,60,0,1,,,,,0,67,0
16980,note_on,,,,,0,0,1,,,,,0,65,100
17040,note_on,,,,,60,0,1,,,,,0,65,0
17040,note_on,,,,,0,0,1,,,,,0,63,100
17100,note_on,,,,,0,0,1,,,,,0,61,100
17100,note_on,,,,,60,0,1,,,,,0,63,0
17160,note_on,,,,,0,0,1,,,,,0,60,100
17160,note_on,,,,,60,0,1,,,,,0,61,0
17220,note_on,,,,,60,0,1,,,,,0,60,0
17220,note_on,,,,,0,0,1,,,,,0,58,100
17280,set_tempo,,,,,428,1,0,,740741,,,,,
17280,note_on,,,,,0,0,1,,,,,0,56,100
17280,note_on,,,,,0,0,1,,,,,0,72,100
17280,note_on,,,,,60,0,1,,,,,0,58,0
17296,note_on,,,,,16,0,1,,,,,0,70,100
17315,note_on,,,,,19,0,1,,,,,0,72,0
17316,note_on,,,,,1,0,1,,,,,0,72,100
17331,note_on,,,,,15,0,1,,,,,0,70,0
17337,set_tempo,,,,,57,1,0,,645161,,,,,
17340,note_on,,,,,0,0,1,,,,,0,65,100
17340,note_on,,,,,0,0,1,,,,,0,68,100
17340,note_on,,,,,9,0,1,,,,,0,56,0
17351,note_on,,,,,11,0,1,,,,,0,72,0
17400,note_on,,,,,0,0,1,,,,,0,63,100
17400,note_on,,,,,0,0,1,,,,,0,67,100
17400,note_on,,,,,49,0,1,,,,,0,65,0
17400,note_on,,,,,0,0,1,,,,,0,68,0
17460,note_on,,,,,0,0,1,,,,,0,65,100
17460,note_on,,,,,0,0,1,,,,,0,67,0
17460,note_on,,,,,60,0,1,,,,,0,63,0
17460,note_on,,,,,0,0,1,,,,,0,68,100
17520,note_on,,,,,0,0,1,,,,,0,68,0
17520,note_on,,,,,60,0,1,,,,,0,65,0
17520,note_on,,,,,0,0,1,,,,,0,70,100
17520,note_on,,,,,0,0,1,,,,,0,55,100
17580,note_on,,,,,60,0,1,,,,,0,55,0
17580,note_on,,,,,0,0,1,,,,,0,70,0
17580,note_on,,,,,0,0,1,,,,,0,63,100
17580,note_on,,,,,0,0,1,,,,,0,67,100
17640,note_on,,,,,0,0,1,,,,,0,67,0
17640,note_on,,,,,0,0,1,,,,,0,65,100
17640,note_on,,,,,0,0,1,,,,,0,62,100
17640,note_on,,,,,60,0,1,,,,,0,63,0
17700,note_on,,,,,0,0,1,,,,,0,63,100
17700,note_on,,,,,0,0,1,,,,,0,67,100
17700,note_on,,,,,0,0,1,,,,,0,65,0
17700,note_on,,,,,60,0,1,,,,,0,62,0
17760,note_on,,,,,0,0,1,,,,,0,67,0
17760,note_on,,,,,60,0,1,,,,,0,63,0
17760,note_on,,,,,0,0,1,,,,,0,68,100
17760,note_on,,,,,0,0,1,,,,,0,53,100
17820,note_on,,,,,60,0,1,,,,,0,53,0
17820,note_on,,,,,0,0,1,,,,,0,68,0
17820,note_on,,,,,0,0,1,,,,,0,65,100
17820,note_on,,,,,0,0,1,,,,,0,62,100
17880,note_on,,,,,0,0,1,,,,,0,60,100
17880,note_on,,,,,60,0,1,,,,,0,62,0
17880,note_on,,,,,0,0,1,,,,,0,65,0
17880,note_on,,,,,0,0,1,,,,,0,63,100
17940,note_on,,,,,60,0,1,,,,,0,60,0
17940,note_on,,,,,0,0,1,,,,,0,63,0
17940,note_on,,,,,0,0,1,,,,,0,65,100
17940,note_on,,,,,0,0,1,,,,,0,62,100
18000,note_on,,,,,0,0,1,,,,,0,51,100
18000,note_on,,,,,0,0,1,,,,,0,68,100
18000,note_on,,,,,0,0,1,,,,,0,65,0
18000,note_on,,,,,60,0,1,,,,,0,62,0
18020,note_on,,,,,20,0,1,,,,,0,67,100
18030,note_on,,,,,10,0,1,,,,,0,68,0
18048,note_on,,,,,18,0,1,,,,,0,68,100
18050,note_on,,,,,2,0,1,,,,,0,67,0
18060,note_on,,,,,10,0,1,,,,,0,51,0
18060,note_on,,,,,0,0,1,,,,,0,60,100
18098,note_on,,,,,38,0,1,,,,,0,68,0
18120,note_on,,,,,22,0,1,,,,,0,60,0
18120,note_on,,,,,0,0,1,,,,,0,68,100
18120,note_on,,,,,0,0,1,,,,,0,58,100
18180,note_on,,,,,60,0,1,,,,,0,58,0
18180,note_on,,,,,0,0,1,,,,,0,60,100
18240,note_on,,,,,0,0,1,,,,,0,50,100
18240,note_on,,,,,0,0,1,,,,,0,68,0
18240,note_on,,,,,0,0,1,,,,,0,68,100
18240,note_on,,,,,60,0,1,,,,,0,60,0
18300,note_on,,,,,0,0,1,,,,,0,58,100
18300,note_on,,,,,60,0,1,,,,,0,50,0
18300,note_on,,,,,0,0,1,,,,,0,68,0
18300,note_on,,,,,0,0,1,,,,,0,67,100
18360,note_on,,,,,0,0,1,,,,,0,56,100
18360,note_on,,,,,0,0,1,,,,,0,65,100
18360,note_on,,,,,0,0,1,,,,,0,67,0
18360,note_on,,,,,60,0,1,,,,,0,58,0
18420,note_on,,,,,0,0,1,,,,,0,67,100
18420,note_on,,,,,0,0,1,,,,,0,58,100
18420,note_on,,,,,60,0,1,,,,,0,56,0
18420,note_on,,,,,0,0,1,,,,,0,65,0
18480,note_on,,,,,60,0,1,,,,,0,58,0
18480,note_on,,,,,0,0,1,,,,,0,68,100
18480,note_on,,,,,0,0,1,,,,,0,48,100
18480,note_on,,,,,0,0,1,,,,,0,67,0
18496,note_on,,,,,16,0,1,,,,,0,67,100
18515,note_on,,,,,19,0,1,,,,,0,68,0
18520,note_on,,,,,5,0,1,,,,,0,68,100
18531,note_on,,,,,11,0,1,,,,,0,67,0
18540,note_on,,,,,0,0,1,,,,,0,56,100
18540,note_on,,,,,9,0,1,,,,,0,48,0
18575,note_on,,,,,35,0,1,,,,,0,68,0
18592,set_tempo,,,,,1255,1,0,,705882,,,,,
18600,note_on,,,,,0,0,1,,,,,0,70,100
18600,note_on,,,,,25,0,1,,,,,0,56,0
18600,note_on,,,,,0,0,1,,,,,0,55,100
18620,note_on,,,,,20,0,1,,,,,0,68,100
18631,note_on,,,,,11,0,1,,,,,0,70,0
18636,note_on,,,,,5,0,1,,,,,0,70,100
18639,note_on,,,,,3,0,1,,,,,0,68,0
18656,note_on,,,,,17,0,1,,,,,0,68,100
18660,note_on,,,,,0,0,1,,,,,0,56,100
18660,note_on,,,,,4,0,1,,,,,0,55,0
18667,note_on,,,,,7,0,1,,,,,0,70,0
18711,note_on,,,,,44,0,1,,,,,0,68,0
18720,note_on,,,,,9,0,1,,,,,0,56,0
18720,note_on,,,,,0,0,1,,,,,0,46,100
18724,note_on,,,,,4,0,1,,,,,0,68,100
18727,set_tempo,,,,,135,1,0,,638298,,,,,
18780,note_on,,,,,56,0,1,,,,,0,74,100
18784,note_on,,,,,4,0,1,,,,,0,68,0
18791,note_on,,,,,7,0,1,,,,,0,46,0
18840,note_on,,,,,49,0,1,,,,,0,74,0
18840,note_on,,,,,0,0,1,,,,,0,77,100
18840,note_on,,,,,0,0,1,,,,,0,58,100
18900,note_on,,,,,60,0,1,,,,,0,77,0
18900,note_on,,,,,0,0,1,,,,,0,75,100
18911,note_on,,,,,11,0,1,,,,,0,58,0
18960,note_on,,,,,0,0,1,,,,,0,74,100
18960,note_on,,,,,49,0,1,,,,,0,75,0
19020,note_on,,,,,60,0,1,,,,,0,74,0
19020,note_on,,,,,0,0,1,,,,,0,72,100
19080,note_on,,,,,60,0,1,,,,,0,72,0
19080,note_on,,,,,0,0,1,,,,,0,70,100
19080,note_on,,,,,0,0,1,,,,,0,50,100
19140,note_on,,,,,60,0,1,,,,,0,70,0
19140,note_on,,,,,0,0,1,,,,,0,68,100
19200,note_on,,,,,0,0,1,,,,,0,50,0
19200,note_on,,,,,0,0,1,,,,,0,67,100
19200,note_on,,,,,0,0,1,,,,,0,51,100
19200,note_on,,,,,60,0,1,,,,,0,68,0
19260,note_on,,,,,0,0,1,,,,,0,70,100
19260,note_on,,,,,60,0,1,,,,,0,67,0
19295,note_on,,,,,35,0,1,,,,,0,51,0
19320,note_on,,,,,0,0,1,,,,,0,48,100
19320,note_on,,,,,25,0,1,,,,,0,70,0
19320,note_on,,,,,0,0,1,,,,,0,75,100
19380,note_on,,,,,0,0,1,,,,,0,67,100
19380,note_on,,,,,60,0,1,,,,,0,75,0
19415,note_on,,,,,35,0,1,,,,,0,48,0
19440,note_on,,,,,25,0,1,,,,,0,67,0
19440,note_on,,,,,0,0,1,,,,,0,65,100
19440,note_on,,,,,0,0,1,,,,,0,44,100
19500,note_on,,,,,60,0,1,,,,,0,65,0
19500,note_on,,,,,0,0,1,,,,,0,75,100
19527,note_on,,,,,27,0,1,,,,,0,44,0
19560,note_on,,,,,0,0,1,,,,,0,65,100
19560,note_on,,,,,0,0,1,,,,,0,46,100
19560,note_on,,,,,33,0,1,,,,,0,75,0
19620,note_on,,,,,60,0,1,,,,,0,65,0
19620,note_on,,,,,0,0,1,,,,,0,74,100
19639,note_on,,,,,19,0,1,,,,,0,46,0
19680,note_on,,,,,41,0,1,,,,,0,74,0
19680,note_on,,,,,0,0,1,,,,,0,75,100
19680,note_on,,,,,0,0,1,,,,,0,39,100
19731,note_on,,,,,51,0,1,,,,,0,75,0
19740,note_on,,,,,9,0,1,,,,,0,70,100
19775,note_on,,,,,35,0,1,,,,,0,39,0
19800,note_on,,,,,0,0,1,,,,,0,68,100
19800,note_on,,,,,25,0,1,,,,,0,70,0
19800,note_on,,,,,0,0,1,,,,,0,51,100
19860,note_on,,,,,0,0,1,,,,,0,70,100
19860,note_on,,,,,60,0,1,,,,,0,68,0
19887,note_on,,,,,27,0,1,,,,,0,51,0
19920,note_on,,,,,33,0,1,,,,,0,70,0
19920,note_on,,,,,0,0,1,,,,,0,44,100
19920,note_on,,,,,0,0,1,,,,,0,72,100
19980,note_on,,,,,60,0,1,,,,,0,72,0
19980,note_on,,,,,0,0,1,,,,,0,68,100
20007,note_on,,,,,27,0,1,,,,,0,44,0
20040,note_on,,,,,33,0,1,,,,,0,68,0
20040,note_on,,,,,0,0,1,,,,,0,51,100
20040,note_on,,,,,0,0,1,,,,,0,67,100
20100,note_on,,,,,60,0,1,,,,,0,67,0
20100,note_on,,,,,0,0,1,,,,,0,68,100
20119,note_on,,,,,19,0,1,,,,,0,51,0
20160,note_on,,,,,0,0,1,,,,,0,43,100
20160,note_on,,,,,41,0,1,,,,,0,68,0
20160,note_on,,,,,0,0,1,,,,,0,70,100
20220,note_on,,,,,60,0,1,,,,,0,70,0
20220,note_on,,,,,0,0,1,,,,,0,67,100
20239,note_on,,,,,19,0,1,,,,,0,43,0
20280,note_on,,,,,41,0,1,,,,,0,67,0
20280,note_on,,,,,0,0,1,,,,,0,65,100
20280,note_on,,,,,0,0,1,,,,,0,51,100
20340,note_on,,,,,0,0,1,,,,,0,67,100
20340,note_on,,,,,60,0,1,,,,,0,65,0
20359,note_on,,,,,19,0,1,,,,,0,51,0
20400,note_on,,,,,41,0,1,,,,,0,67,0
20400,note_on,,,,,0,0,1,,,,,0,41,100
20400,note_on,,,,,0,0,1,,,,,0,68,100
20460,note_on,,,,,0,0,1,,,,,0,65,100
20460,note_on,,,,,60,0,1,,,,,0,68,0
20471,note_on,,,,,11,0,1,,,,,0,41,0
20520,note_on,,,,,0,0,1,,,,,0,50,100
20520,note_on,,,,,49,0,1,,,,,0,65,0
20520,note_on,,,,,0,0,1,,,,,0,63,100
20580,note_on,,,,,60,0,1,,,,,0,63,0
20580,note_on,,,,,0,0,1,,,,,0,65,100
20591,note_on,,,,,11,0,1,,,,,0,50,0
20640,note_on,,,,,49,0,1,,,,,0,65,0
20640,note_on,,,,,0,0,1,,,,,0,51,100
20640,note_on,,,,,0,0,1,,,,,0,67,100
20700,note_on,,,,,0,0,1,,,,,0,55,100
20700,note_on,,,,,60,0,1,,,,,0,51,0
20700,note_on,,,,,0,0,1,,,,,0,67,0
20700,note_on,,,,,0,0,1,,,,,0,63,100
20760,note_on,,,,,60,0,1,,,,,0,55,0
20760,note_on,,,,,0,0,1,,,,,0,63,0
20760,note_on,,,,,0,0,1,,,,,0,62,100
20760,note_on,,,,,0,0,1,,,,,0,53,100
20820,note_on,,,,,0,0,1,,,,,0,62,0
20820,note_on,,,,,0,0,1,,,,,0,63,100
20820,note_on,,,,,0,0,1,,,,,0,55,100
20820,note_on,,,,,60,0,1,,,,,0,53,0
20880,note_on,,,,,0,0,1,,,,,0,56,100
20880,note_on,,,,,60,0,1,,,,,0,55,0
20880,note_on,,,,,0,0,1,,,,,0,63,0
20880,note_on,,,,,0,0,1,,,,,0,60,100
20940,note_on,,,,,60,0,1,,,,,0,56,0
20940,note_on,,,,,0,0,1,,,,,0,53,100
20967,note_on,,,,,27,0,1,,,,,0,60,0
21000,note_on,,,,,33,0,1,,,,,0,53,0
21000,note_on,,,,,0,0,1,,,,,0,68,100
21000,note_on,,,,,0,0,1,,,,,0,51,100
21016,note_on,,,,,16,0,1,,,,,0,67,100
21031,note_on,,,,,15,0,1,,,,,0,68,0
21036,note_on,,,,,5,0,1,,,,,0,68,100
21047,note_on,,,,,11,0,1,,,,,0,67,0
21060,note_on,,,,,13,0,1,,,,,0,51,0
21060,note_on,,,,,0,0,1,,,,,0,53,100
21067,note_on,,,,,7,0,1,,,,,0,68,0
21120,note_on,,,,,53,0,1,,,,,0,53,0
21120,note_on,,,,,0,0,1,,,,,0,55,100
21120,note_on,,,,,0,0,1,,,,,0,58,100
21180,note_on,,,,,0,0,1,,,,,0,51,100
21180,note_on,,,,,60,0,1,,,,,0,55,0
21191,note_on,,,,,11,0,1,,,,,0,58,0
21240,note_on,,,,,0,0,1,,,,,0,50,100
21240,note_on,,,,,0,0,1,,,,,0,67,100
21240,note_on,,,,,49,0,1,,,,,0,51,0
21256,note_on,,,,,16,0,1,,,,,0,65,100
21271,note_on,,,,,15,0,1,,,,,0,67,0
21275,note_on,,,,,4,0,1,,,,,0,65,0
21276,note_on,,,,,1,0,1,,,,,0,67,100
21295,note_on,,,,,19,0,1,,,,,0,67,0
21300,note_on,,,,,0,0,1,,,,,0,51,100
21300,note_on,,,,,5,0,1,,,,,0,50,0
21360,note_on,,,,,60,0,1,,,,,0,51,0
21360,note_on,,,,,0,0,1,,,,,0,56,100
21360,note_on,,,,,0,0,1,,,,,0,53,100
21420,note_on,,,,,60,0,1,,,,,0,53,0
21420,note_on,,,,,0,0,1,,,,,0,50,100
21439,note_on,,,,,19,0,1,,,,,0,56,0
21480,note_on,,,,,0,0,1,,,,,0,48,100
21480,note_on,,,,,0,0,1,,,,,0,67,100
21480,note_on,,,,,41,0,1,,,,,0,50,0
21496,note_on,,,,,16,0,1,,,,,0,65,100
21507,note_on,,,,,11,0,1,,,,,0,67,0
21516,note_on,,,,,9,0,1,,,,,0,67,100
21519,note_on,,,,,3,0,1,,,,,0,65,0
21531,note_on,,,,,12,0,1,,,,,0,67,0
21532,note_on,,,,,1,0,1,,,,,0,65,100
21540,note_on,,,,,0,0,1,,,,,0,50,100
21540,note_on,,,,,8,0,1,,,,,0,48,0
21567,note_on,,,,,27,0,1,,,,,0,65,0
21600,note_on,,,,,0,0,1,,,,,0,55,100
21600,note_on,,,,,33,0,1,,,,,0,50,0
21600,note_on,,,,,0,0,1,,,,,0,51,100
21660,note_on,,,,,60,0,1,,,,,0,55,0
21660,note_on,,,,,0,0,1,,,,,0,58,100
21687,note_on,,,,,27,0,1,,,,,0,51,0
21720,note_on,,,,,33,0,1,,,,,0,58,0
21720,note_on,,,,,0,0,1,,,,,0,63,100
21720,note_on,,,,,0,0,1,,,,,0,55,100
21780,note_on,,,,,60,0,1,,,,,0,63,0
21780,note_on,,,,,0,0,1,,,,,0,67,100
21799,note_on,,,,,19,0,1,,,,,0,55,0
21840,note_on,,,,,41,0,1,,,,,0,56,100
21899,note_on,,,,,59,0,1,,,,,0,67,0
21900,note_on,,,,,1,0,1,,,,,0,65,100
21916,note_on,,,,,16,0,1,,,,,0,67,100
21927,note_on,,,,,11,0,1,,,,,0,65,0
21927,note_on,,,,,0,0,1,,,,,0,56,0
21936,note_on,,,,,9,0,1,,,,,0,65,100
21943,note_on,,,,,7,0,1,,,,,0,67,0
21960,note_on,,,,,17,0,1,,,,,0,58,100
21960,note_on,,,,,0,0,1,,,,,0,63,100
21963,note_on,,,,,3,0,1,,,,,0,65,0
22020,note_on,,,,,57,0,1,,,,,0,63,0
22020,note_on,,,,,0,0,1,,,,,0,62,100
22047,note_on,,,,,27,0,1,,,,,0,58,0
22080,note_on,,,,,0,0,1,,,,,0,63,100
22080,note_on,,,,,33,0,1,,,,,0,62,0
22080,note_on,,,,,0,0,1,,,,,0,60,100
22140,note_on,,,,,60,0,1,,,,,0,67,100
22175,note_on,,,,,35,0,1,,,,,0,60,0
22200,note_on,,,,,25,0,1,,,,,0,67,0
22200,note_on,,,,,0,0,1,,,,,0,72,100
22200,note_on,,,,,0,0,1,,,,,0,56,100
22260,note_on,,,,,60,0,1,,,,,0,65,100
22279,note_on,,,,,19,0,1,,,,,0,56,0
22320,note_on,,,,,0,0,1,,,,,0,72,0
22320,note_on,,,,,0,0,1,,,,,0,67,100
22320,note_on,,,,,0,0,1,,,,,0,70,100
22320,note_on,,,,,0,0,1,,,,,0,58,100
22320,note_on,,,,,41,0,1,,,,,0,65,0
22380,note_on,,,,,60,0,1,,,,,0,63,0
22380,note_on,,,,,0,0,1,,,,,0,63,100
22407,note_on,,,,,27,0,1,,,,,0,58,0
22440,note_on,,,,,0,0,1,,,,,0,70,0
22440,note_on,,,,,33,0,1,,,,,0,67,0
22440,note_on,,,,,0,0,1,,,,,0,70,100
22440,note_on,,,,,0,0,1,,,,,0,65,100
22440,note_on,,,,,0,0,1,,,,,0,46,100
22464,note_on,,,,,24,0,1,,,,,0,68,100
22467,note_on,,,,,3,0,1,,,,,0,70,0
22467,set_tempo,,,,,3740,1,0,,666667,,,,,
22480,note_on,,,,,13,0,1,,,,,0,70,100
22491,note_on,,,,,11,0,1,,,,,0,68,0
22500,note_on,,,,,9,0,1,,,,,0,63,0
22504,note_on,,,,,4,0,1,,,,,0,68,100
22507,note_on,,,,,3,0,1,,,,,0,70,0
22512,note_on,,,,,5,0,1,,,,,0,62,100
22519,note_on,,,,,7,0,1,,,,,0,46,0
22520,set_tempo,,,,,53,1,0,,681818,,,,,
22560,note_on,,,,,0,0,1,,,,,0,58,100
22560,set_tempo,,,,,40,1,0,,697674,,,,,
22560,note_on,,,,,41,0,1,,,,,0,65,0
22563,note_on,,,,,3,0,1,,,,,0,62,0
22567,note_on,,,,,4,0,1,,,,,0,68,0
22576,note_on,,,,,9,0,1,,,,,0,63,100
22592,note_on,,,,,16,0,1,,,,,0,67,100
22610,set_tempo,,,,,50,1,0,,714286,,,,,
22620,note_on,,,,,28,0,1,,,,,0,51,100
22660,set_tempo,,,,,50,1,0,,731707,,,,,
22680,note_on,,,,,60,0,1,,,,,0,51,0
22680,note_on,,,,,0,0,1,,,,,0,46,100
22712,set_tempo,,,,,52,1,0,,750000,,,,,
22740,note_on,,,,,0,0,1,,,,,0,43,100
22740,note_on,,,,,60,0,1,,,,,0,46,0
22757,set_tempo,,,,,45,1,0,,769231,,,,,
22800,note_on,,,,,0,0,1,,,,,0,39,100
22800,note_on,,,,,60,0,1,,,,,0,43,0
22805,set_tempo,,,,,48,1,0,,810811,,,,,
22882,set_tempo,,,,,77,1,0,,645161,,,,,
23039,note_on,,,,,239,0,1,,,,,0,63,0
23040,note_on,,,,,0,0,1,,,,,0,51,120
23040,note_on,,,,,0,0,1,,,,,0,39,0
23040,note_on,,,,,1,0,1,,,,,0,58,0
23040,note_on,,,,,11513,0,2,,,,,1,63,30
23047,note_on,,,,,7,0,1,,,,,0,67,0
23100,note_on,,,,,53,0,1,,,,,0,70,120
23100,note_on,,,,,60,0,2,,,,,1,82,30
23127,note_on,,,,,27,0,2,,,,,1,63,0
23127,note_on,,,,,27,0,1,,,,,0,51,0
23160,note_on,,,,,0,0,1,,,,,0,69,120
23160,note_on,,,,,0,0,1,,,,,0,53,120
23160,note_on,,,,,33,0,1,,,,,0,70,0
23160,note_on,,,,,33,0,2,,,,,1,82,0
23160,note_on,,,,,0,0,2,,,,,1,81,30
23160,note_on,,,,,0,0,2,,,,,1,65,30
23220,note_on,,,,,0,0,1,,,,,0,70,120
23220,note_on,,,,,60,0,1,,,,,0,69,0
23220,note_on,,,,,60,0,2,,,,,1,81,0
23220,note_on,,,,,0,0,2,,,,,1,82,30
23255,note_on,,,,,35,0,2,,,,,1,65,0
23255,note_on,,,,,35,0,1,,,,,0,53,0
23280,note_on,,,,,25,0,2,,,,,1,82,0
23280,note_on,,,,,0,0,1,,,,,0,75,120
23280,note_on,,,,,0,0,1,,,,,0,55,120
23280,note_on,,,,,0,0,2,,,,,1,87,30
23280,note_on,,,,,0,0,2,,,,,1,67,30
23280,note_on,,,,,25,0,1,,,,,0,70,0
23340,note_on,,,,,0,0,2,,,,,1,82,30
23340,note_on,,,,,60,0,1,,,,,0,75,0
23340,note_on,,,,,0,0,1,,,,,0,70,120
23340,note_on,,,,,60,0,2,,,,,1,87,0
23375,note_on,,,,,35,0,1,,,,,0,55,0
23375,note_on,,,,,35,0,2,,,,,1,67,0
23400,note_on,,,,,25,0,1,,,,,0,70,0
23400,note_on,,,,,0,0,2,,,,,1,81,30
23400,note_on,,,,,25,0,2,,,,,1,82,0
23400,note_on,,,,,0,0,1,,,,,0,69,120
23400,note_on,,,,,0,0,1,,,,,0,51,120
23400,note_on,,,,,0,0,2,,,,,1,63,30
23460,note_on,,,,,60,0,2,,,,,1,81,0
23460,note_on,,,,,60,0,1,,,,,0,69,0
23460,note_on,,,,,0,0,2,,,,,1,82,30
23460,note_on,,,,,0,0,1,,,,,0,70,120
23487,note_on,,,,,27,0,2,,,,,1,63,0
23487,note_on,,,,,27,0,1,,,,,0,51,0
23520,note_on,,,,,0,0,2,,,,,1,62,30
23520,note_on,,,,,0,0,1,,,,,0,77,120
23520,note_on,,,,,0,0,1,,,,,0,50,120
23520,note_on,,,,,33,0,2,,,,,1,82,0
23520,note_on,,,,,0,0,2,,,,,1,89,30
23520,note_on,,,,,33,0,1,,,,,0,70,0
23580,note_on,,,,,60,0,2,,,,,1,89,0
23580,note_on,,,,,60,0,1,,,,,0,77,0
23580,note_on,,,,,0,0,2,,,,,1,82,30
23580,note_on,,,,,0,0,1,,,,,0,70,120
23640,note_on,,,,,0,0,2,,,,,1,81,30
23640,note_on,,,,,0,0,2,,,,,1,60,30
23640,note_on,,,,,0,0,2,,,,,1,62,0
23640,note_on,,,,,0,0,1,,,,,0,69,120
23640,note_on,,,,,60,0,2,,,,,1,82,0
23640,note_on,,,,,60,0,1,,,,,0,70,0
23640,note_on,,,,,0,0,1,,,,,0,48,120
23640,note_on,,,,,0,0,1,,,,,0,50,0
23700,note_on,,,,,60,0,2,,,,,1,81,0
23700,note_on,,,,,0,0,2,,,,,1,82,30
23700,note_on,,,,,60,0,1,,,,,0,69,0
23700,note_on,,,,,0,0,1,,,,,0,70,120
23760,note_on,,,,,60,0,1,,,,,0,70,0
23760,note_on,,,,,0,0,1,,,,,0,50,120
23760,note_on,,,,,0,0,1,,,,,0,80,120
23760,note_on,,,,,0,0,1,,,,,0,48,0
23760,note_on,,,,,0,0,2,,,,,1,60,0
23760,note_on,,,,,0,0,2,,,,,1,62,30
23760,note_on,,,,,60,0,2,,,,,1,82,0
23760,note_on,,,,,0,0,2,,,,,1,92,30
23820,note_on,,,,,0,0,2,,,,,1,82,30
23820,note_on,,,,,60,0,2,,,,,1,92,0
23820,note_on,,,,,60,0,1,,,,,0,80,0
23820,note_on,,,,,0,0,1,,,,,0,70,120
23831,note_on,,,,,11,0,2,,,,,1,62,0
23831,note_on,,,,,11,0,1,,,,,0,50,0
23880,note_on,,,,,49,0,2,,,,,1,82,0
23880,note_on,,,,,0,0,2,,,,,1,81,30
23880,note_on,,,,,0,0,1,,,,,0,69,120
23880,note_on,,,,,0,0,1,,,,,0,46,120
23880,note_on,,,,,0,0,2,,,,,1,58,30
23880,note_on,,,,,49,0,1,,,,,0,70,0
23935,note_on,,,,,55,0,1,,,,,0,46,0
23935,note_on,,,,,55,0,2,,,,,1,58,0
23940,note_on,,,,,0,0,2,,,,,1,82,30
23940,note_on,,,,,5,0,2,,,,,1,81,0
23940,note_on,,,,,0,0,1,,,,,0,70,120
23940,note_on,,,,,5,0,1,,,,,0,69,0
24000,note_on,,,,,60,0,1,,,,,0,70,0
24000,note_on,,,,,0,0,2,,,,,1,63,30
24000,note_on,,,,,60,0,2,,,,,1,82,0
24000,note_on,,,,,0,0,1,,,,,0,79,120
24000,note_on,,,,,0,0,1,,,,,0,51,120
24000,note_on,,,,,0,0,2,,,,,1,91,30
24060,note_on,,,,,60,0,2,,,,,1,63,0
24060,note_on,,,,,0,0,2,,,,,1,67,30
24060,note_on,,,,,60,0,1,,,,,0,51,0
24060,note_on,,,,,0,0,1,,,,,0,55,120
24071,note_on,,,,,11,0,1,,,,,0,79,0
24071,note_on,,,,,11,0,2,,,,,1,91,0
24120,note_on,,,,,49,0,2,,,,,1,67,0
24120,note_on,,,,,0,0,2,,,,,1,68,30
24120,note_on,,,,,0,0,2,,,,,1,87,30
24120,note_on,,,,,49,0,1,,,,,0,55,0
24120,note_on,,,,,0,0,1,,,,,0,75,120
24120,note_on,,,,,0,0,1,,,,,0,56,120
24180,note_on,,,,,0,0,2,,,,,1,67,30
24180,note_on,,,,,60,0,1,,,,,0,56,0
24180,note_on,,,,,0,0,1,,,,,0,55,120
24180,note_on,,,,,60,0,2,,,,,1,68,0
24183,note_on,,,,,3,0,1,,,,,0,75,0
24183,note_on,,,,,3,0,2,,,,,1,87,0
24240,note_on,,,,,0,0,1,,,,,0,44,120
24240,note_on,,,,,0,0,2,,,,,1,86,30
24240,note_on,,,,,57,0,2,,,,,1,67,0
24240,note_on,,,,,0,0,2,,,,,1,56,30
24240,note_on,,,,,0,0,1,,,,,0,74,120
24240,note_on,,,,,57,0,1,,,,,0,55,0
24260,note_on,,,,,0,0,2,,,,,1,84,30
24260,note_on,,,,,20,0,2,,,,,1,86,0
24260,note_on,,,,,20,0,1,,,,,0,74,0
24260,note_on,,,,,0,0,1,,,,,0,72,120
24280,note_on,,,,,0,0,1,,,,,0,74,120
24280,note_on,,,,,0,0,2,,,,,1,86,30
24280,note_on,,,,,20,0,1,,,,,0,72,0
24280,note_on,,,,,20,0,2,,,,,1,84,0
24296,note_on,,,,,16,0,1,,,,,0,72,120
24296,note_on,,,,,16,0,2,,,,,1,84,30
24300,note_on,,,,,0,0,2,,,,,1,67,30
24300,note_on,,,,,0,0,1,,,,,0,55,120
24300,note_on,,,,,0,0,1,,,,,0,44,0
24300,note_on,,,,,4,0,1,,,,,0,74,0
24300,note_on,,,,,4,0,2,,,,,1,86,0
24300,note_on,,,,,0,0,2,,,,,1,56,0
24312,note_on,,,,,12,0,2,,,,,1,83,30
24312,note_on,,,,,12,0,1,,,,,0,71,120
24319,note_on,,,,,7,0,2,,,,,1,84,0
24319,note_on,,,,,7,0,1,,,,,0,72,0
24359,note_on,,,,,40,0,2,,,,,1,83,0
24359,note_on,,,,,40,0,1,,,,,0,71,0
24360,note_on,,,,,0,0,1,,,,,0,72,120
24360,note_on,,,,,0,0,1,,,,,0,56,120
24360,note_on,,,,,1,0,2,,,,,1,67,0
24360,note_on,,,,,0,0,2,,,,,1,84,30
24360,note_on,,,,,0,0,2,,,,,1,68,30
24360,note_on,,,,,1,0,1,,,,,0,55,0
24420,note_on,,,,,60,0,2,,,,,1,68,0
24420,note_on,,,,,0,0,2,,,,,1,67,30
24420,note_on,,,,,60,0,1,,,,,0,56,0
24420,note_on,,,,,0,0,1,,,,,0,55,120
24463,note_on,,,,,43,0,1,,,,,0,72,0
24463,note_on,,,,,43,0,2,,,,,1,84,0
24480,note_on,,,,,17,0,1,,,,,0,55,0
24480,note_on,,,,,0,0,1,,,,,0,50,120
24480,note_on,,,,,17,0,2,,,,,1,67,0
24480,note_on,,,,,0,0,2,,,,,1,89,30
24480,note_on,,,,,0,0,2,,,,,1,62,30
24480,note_on,,,,,0,0,1,,,,,0,77,120
24540,note_on,,,,,60,0,1,,,,,0,50,0
24540,note_on,,,,,0,0,1,,,,,0,53,120
24540,note_on,,,,,60,0,2,,,,,1,62,0
24540,note_on,,,,,0,0,2,,,,,1,65,30
24543,note_on,,,,,3,0,1,,,,,0,77,0
24543,note_on,,,,,3,0,2,,,,,1,89,0
24600,note_on,,,,,57,0,2,,,,,1,65,0
24600,note_on,,,,,0,0,1,,,,,0,55,120
24600,note_on,,,,,0,0,2,,,,,1,67,30
24600,note_on,,,,,0,0,2,,,,,1,86,30
24600,note_on,,,,,0,0,1,,,,,0,74,120
24600,note_on,,,,,57,0,1,,,,,0,53,0
24655,note_on,,,,,55,0,1,,,,,0,74,0
24655,note_on,,,,,55,0,2,,,,,1,86,0
24660,note_on,,,,,0,0,1,,,,,0,53,120
24660,note_on,,,,,5,0,1,,,,,0,55,0
24660,note_on,,,,,0,0,2,,,,,1,65,30
24660,note_on,,,,,5,0,2,,,,,1,67,0
24720,note_on,,,,,0,0,1,,,,,0,72,120
24720,note_on,,,,,60,0,1,,,,,0,53,0
24720,note_on,,,,,0,0,1,,,,,0,43,120
24720,note_on,,,,,60,0,2,,,,,1,65,0
24720,note_on,,,,,0,0,2,,,,,1,84,30
24720,note_on,,,,,0,0,2,,,,,1,55,30
24740,note_on,,,,,20,0,1,,,,,0,72,0
24740,note_on,,,,,20,0,2,,,,,1,84,0
24740,note_on,,,,,0,0,2,,,,,1,83,30
24740,note_on,,,,,0,0,1,,,,,0,71,120
24752,note_on,,,,,12,0,1,,,,,0,72,120
24752,note_on,,,,,12,0,2,,,,,1,84,30
24760,note_on,,,,,8,0,1,,,,,0,71,0
24760,note_on,,,,,8,0,2,,,,,1,83,0
24772,note_on,,,,,12,0,2,,,,,1,84,0
24772,note_on,,,,,12,0,1,,,,,0,72,0
24776,note_on,,,,,4,0,1,,,,,0,71,120
24776,note_on,,,,,4,0,2,,,,,1,83,30
24780,note_on,,,,,4,0,2,,,,,1,55,0
24780,note_on,,,,,0,0,1,,,,,0,53,120
24780,note_on,,,,,0,0,2,,,,,1,65,30
24780,note_on,,,,,4,0,1,,,,,0,43,0
24792,note_on,,,,,12,0,2,,,,,1,81,30
24792,note_on,,,,,12,0,1,,,,,0,69,120
24796,note_on,,,,,4,0,2,,,,,1,83,0
24796,note_on,,,,,4,0,1,,,,,0,71,0
24840,note_on,,,,,0,0,2,,,,,1,67,30
24840,note_on,,,,,0,0,2,,,,,1,83,30
24840,note_on,,,,,44,0,2,,,,,1,65,0
24840,note_on,,,,,0,0,1,,,,,0,55,120
24840,note_on,,,,,44,0,1,,,,,0,53,0
24840,note_on,,,,,0,0,1,,,,,0,71,120
24852,note_on,,,,,12,0,1,,,,,0,69,0
24852,note_on,,,,,12,0,2,,,,,1,81,0
24900,note_on,,,,,48,0,2,,,,,1,67,0
24900,note_on,,,,,48,0,1,,,,,0,55,0
24900,note_on,,,,,0,0,2,,,,,1,65,30
24900,note_on,,,,,0,0,1,,,,,0,53,120
24960,note_on,,,,,60,0,1,,,,,0,53,0
24960,note_on,,,,,0,0,2,,,,,1,83,0
24960,note_on,,,,,0,0,2,,,,,1,87,30
24960,note_on,,,,,0,0,2,,,,,1,60,30
24960,note_on,,,,,0,0,1,,,,,0,48,120
24960,note_on,,,,,0,0,1,,,,,0,75,120
24960,note_on,,,,,0,0,1,,,,,0,71,0
24960,note_on,,,,,60,0,2,,,,,1,65,0
25020,note_on,,,,,60,0,2,,,,,1,87,0
25020,note_on,,,,,0,0,2,,,,,1,75,30
25020,note_on,,,,,0,0,1,,,,,0,63,120
25020,note_on,,,,,60,0,1,,,,,0,75,0
25023,note_on,,,,,3,0,1,,,,,0,48,0
25023,note_on,,,,,3,0,2,,,,,1,60,0
25080,note_on,,,,,57,0,2,,,,,1,75,0
25080,note_on,,,,,0,0,2,,,,,1,72,30
25080,note_on,,,,,0,0,2,,,,,1,74,30
25080,note_on,,,,,57,0,1,,,,,0,63,0
25080,note_on,,,,,0,0,1,,,,,0,62,120
25080,note_on,,,,,0,0,1,,,,,0,60,120
25140,note_on,,,,,60,0,2,,,,,1,74,0
25140,note_on,,,,,60,0,1,,,,,0,62,0
25140,note_on,,,,,0,0,1,,,,,0,63,120
25140,note_on,,,,,0,0,2,,,,,1,75,30
25175,note_on,,,,,35,0,2,,,,,1,72,0
25175,note_on,,,,,35,0,1,,,,,0,60,0
25200,note_on,,,,,25,0,2,,,,,1,75,0
25200,note_on,,,,,0,0,2,,,,,1,79,30
25200,note_on,,,,,0,0,2,,,,,1,70,30
25200,note_on,,,,,0,0,1,,,,,0,67,120
25200,note_on,,,,,25,0,1,,,,,0,63,0
25200,note_on,,,,,0,0,1,,,,,0,58,120
25260,note_on,,,,,0,0,1,,,,,0,63,120
25260,note_on,,,,,0,0,2,,,,,1,75,30
25260,note_on,,,,,60,0,2,,,,,1,79,0
25260,note_on,,,,,60,0,1,,,,,0,67,0
25303,note_on,,,,,43,0,1,,,,,0,58,0
25303,note_on,,,,,43,0,2,,,,,1,70,0
25320,note_on,,,,,17,0,2,,,,,1,75,0
25320,note_on,,,,,0,0,2,,,,,1,68,30
25320,note_on,,,,,0,0,2,,,,,1,74,30
25320,note_on,,,,,0,0,1,,,,,0,62,120
25320,note_on,,,,,17,0,1,,,,,0,63,0
25320,note_on,,,,,0,0,1,,,,,0,56,120
25380,note_on,,,,,0,0,2,,,,,1,75,30
25380,note_on,,,,,60,0,2,,,,,1,74,0
25380,note_on,,,,,0,0,1,,,,,0,63,120
25380,note_on,,,,,60,0,1,,,,,0,62,0
25423,note_on,,,,,43,0,1,,,,,0,56,0
25423,note_on,,,,,43,0,2,,,,,1,68,0
25440,note_on,,,,,0,0,2,,,,,1,67,30
25440,note_on,,,,,17,0,2,,,,,1,75,0
25440,note_on,,,,,0,0,2,,,,,1,82,30
25440,note_on,,,,,0,0,1,,,,,0,55,120
25440,note_on,,,,,0,0,1,,,,,0,70,120
25440,note_on,,,,,17,0,1,,,,,0,63,0
25500,note_on,,,,,0,0,1,,,,,0,63,120
25500,note_on,,,,,0,0,2,,,,,1,75,30
25500,note_on,,,,,60,0,2,,,,,1,82,0
25500,note_on,,,,,60,0,1,,,,,0,70,0
25560,note_on,,,,,0,0,1,,,,,0,62,120
25560,note_on,,,,,0,0,1,,,,,0,55,0
25560,note_on,,,,,60,0,1,,,,,0,63,0
25560,note_on,,,,,0,0,2,,,,,1,65,30
25560,note_on,,,,,0,0,2,,,,,1,74,30
25560,note_on,,,,,0,0,2,,,,,1,67,0
25560,note_on,,,,,60,0,2,,,,,1,75,0
25560,note_on,,,,,0,0,1,,,,,0,53,120
25620,note_on,,,,,60,0,2,,,,,1,74,0
25620,note_on,,,,,60,0,1,,,,,0,62,0
25620,note_on,,,,,0,0,2,,,,,1,75,30
25620,note_on,,,,,0,0,1,,,,,0,63,120
25680,note_on,,,,,60,0,2,,,,,1,75,0
25680,note_on,,,,,0,0,2,,,,,1,65,0
25680,note_on,,,,,0,0,2,,,,,1,85,30
25680,note_on,,,,,0,0,2,,,,,1,67,30
25680,note_on,,,,,0,0,1,,,,,0,55,120
25680,note_on,,,,,0,0,1,,,,,0,73,120
25680,note_on,,,,,0,0,1,,,,,0,53,0
25680,note_on,,,,,60,0,1,,,,,0,63,0
25740,note_on,,,,,0,0,2,,,,,1,75,30
25740,note_on,,,,,60,0,2,,,,,1,85,0
25740,note_on,,,,,60,0,1,,,,,0,73,0
25740,note_on,,,,,0,0,1,,,,,0,63,120
25767,note_on,,,,,27,0,1,,,,,0,55,0
25767,note_on,,,,,27,0,2,,,,,1,67,0
25800,note_on,,,,,0,0,2,,,,,1,63,30
25800,note_on,,,,,0,0,2,,,,,1,74,30
25800,note_on,,,,,33,0,1,,,,,0,63,0
25800,note_on,,,,,0,0,1,,,,,0,51,120
25800,note_on,,,,,0,0,1,,,,,0,62,120
25800,note_on,,,,,33,0,2,,,,,1,75,0
25860,note_on,,,,,0,0,2,,,,,1,75,30
25860,note_on,,,,,60,0,2,,,,,1,74,0
25860,note_on,,,,,0,0,1,,,,,0,63,120
25860,note_on,,,,,60,0,1,,,,,0,62,0
25871,note_on,,,,,11,0,1,,,,,0,51,0
25871,note_on,,,,,11,0,2,,,,,1,63,0
25920,note_on,,,,,49,0,1,,,,,0,63,0
25920,note_on,,,,,0,0,1,,,,,0,72,120
25920,note_on,,,,,0,0,1,,,,,0,56,120
25920,note_on,,,,,49,0,2,,,,,1,75,0
25920,note_on,,,,,0,0,2,,,,,1,84,30
25920,note_on,,,,,0,0,2,,,,,1,68,30
25980,note_on,,,,,0,0,2,,,,,1,72,30
25980,note_on,,,,,60,0,2,,,,,1,68,0
25980,note_on,,,,,60,0,1,,,,,0,56,0
25980,note_on,,,,,0,0,1,,,,,0,60,120
25991,note_on,,,,,11,0,1,,,,,0,72,0
25991,note_on,,,,,11,0,2,,,,,1,84,0
26040,note_on,,,,,0,0,2,,,,,1,80,30
26040,note_on,,,,,0,0,2,,,,,1,73,30
26040,note_on,,,,,0,0,1,,,,,0,68,120
26040,note_on,,,,,49,0,2,,,,,1,72,0
26040,note_on,,,,,0,0,1,,,,,0,61,120
26040,note_on,,,,,49,0,1,,,,,0,60,0
26100,note_on,,,,,60,0,1,,,,,0,61,0
26100,note_on,,,,,0,0,1,,,,,0,60,120
26100,note_on,,,,,60,0,2,,,,,1,73,0
26100,note_on,,,,,0,0,2,,,,,1,72,30
26103,note_on,,,,,3,0,1,,,,,0,68,0
26103,note_on,,,,,3,0,2,,,,,1,80,0
26160,note_on,,,,,57,0,2,,,,,1,72,0
26160,note_on,,,,,0,0,2,,,,,1,79,30
26160,note_on,,,,,0,0,2,,,,,1,61,30
26160,note_on,,,,,0,0,1,,,,,0,49,120
26160,note_on,,,,,57,0,1,,,,,0,60,0
26160,note_on,,,,,0,0,1,,,,,0,67,120
26180,note_on,,,,,0,0,1,,,,,0,65,120
26180,note_on,,,,,20,0,1,,,,,0,67,0
26180,note_on,,,,,20,0,2,,,,,1,79,0
26180,note_on,,,,,0,0,2,,,,,1,77,30
26192,note_on,,,,,12,0,1,,,,,0,67,120
26192,note_on,,,,,12,0,2,,,,,1,79,30
26200,note_on,,,,,8,0,1,,,,,0,65,0
26200,note_on,,,,,8,0,2,,,,,1,77,0
26208,note_on,,,,,8,0,1,,,,,0,65,120
26208,note_on,,,,,8,0,2,,,,,1,77,30
26212,note_on,,,,,4,0,1,,,,,0,67,0
26212,note_on,,,,,4,0,2,,,,,1,79,0
26220,note_on,,,,,0,0,1,,,,,0,60,120
26220,note_on,,,,,8,0,2,,,,,1,61,0
26220,note_on,,,,,8,0,1,,,,,0,49,0
26220,note_on,,,,,0,0,2,,,,,1,72,30
26228,note_on,,,,,8,0,2,,,,,1,77,0
26228,note_on,,,,,8,0,1,,,,,0,65,0
26232,note_on,,,,,4,0,2,,,,,1,76,30
26232,note_on,,,,,4,0,1,,,,,0,64,120
26280,note_on,,,,,48,0,1,,,,,0,60,0
26280,note_on,,,,,0,0,1,,,,,0,61,120
26280,note_on,,,,,0,0,1,,,,,0,65,120
26280,note_on,,,,,48,0,2,,,,,1,72,0
26280,note_on,,,,,0,0,2,,,,,1,77,30
26280,note_on,,,,,0,0,2,,,,,1,73,30
26292,note_on,,,,,12,0,1,,,,,0,64,0
26292,note_on,,,,,12,0,2,,,,,1,76,0
26340,note_on,,,,,0,0,1,,,,,0,60,120
26340,note_on,,,,,48,0,1,,,,,0,61,0
26340,note_on,,,,,48,0,2,,,,,1,73,0
26340,note_on,,,,,0,0,2,,,,,1,72,30
26367,note_on,,,,,27,0,1,,,,,0,65,0
26367,note_on,,,,,27,0,2,,,,,1,77,0
26400,note_on,,,,,33,0,2,,,,,1,72,0
26400,note_on,,,,,0,0,2,,,,,1,82,30
26400,note_on,,,,,0,0,2,,,,,1,67,30
26400,note_on,,,,,0,0,1,,,,,0,55,120
26400,note_on,,,,,0,0,1,,,,,0,70,120
26400,note_on,,,,,33,0,1,,,,,0,60,0
26460,note_on,,,,,60,0,2,,,,,1,67,0
26460,note_on,,,,,0,0,2,,,,,1,70,30
26460,note_on,,,,,60,0,1,,,,,0,55,0
26460,note_on,,,,,0,0,1,,,,,0,58,120
26471,note_on,,,,,11,0,2,,,,,1,82,0
26471,note_on,,,,,11,0,1,,,,,0,70,0
26520,note_on,,,,,0,0,1,,,,,0,67,120
26520,note_on,,,,,0,0,2,,,,,1,72,30
26520,note_on,,,,,0,0,2,,,,,1,79,30
26520,note_on,,,,,49,0,2,,,,,1,70,0
26520,note_on,,,,,49,0,1,,,,,0,58,0
26520,note_on,,,,,0,0,1,,,,,0,60,120
26580,note_on,,,,,0,0,2,,,,,1,70,30
26580,note_on,,,,,60,0,2,,,,,1,72,0
26580,note_on,,,,,60,0,1,,,,,0,60,0
26580,note_on,,,,,0,0,1,,,,,0,58,120
26583,note_on,,,,,3,0,2,,,,,1,79,0
26583,note_on,,,,,3,0,1,,,,,0,67,0
26640,note_on,,,,,0,0,2,,,,,1,77,30
26640,note_on,,,,,57,0,2,,,,,1,70,0
26640,note_on,,,,,0,0,2,,,,,1,60,30
26640,note_on,,,,,0,0,1,,,,,0,48,120
26640,note_on,,,,,0,0,1,,,,,0,65,120
26640,note_on,,,,,57,0,1,,,,,0,58,0
26660,note_on,,,,,20,0,2,,,,,1,77,0
26660,note_on,,,,,0,0,1,,,,,0,64,120
26660,note_on,,,,,0,0,2,,,,,1,76,30
26660,note_on,,,,,20,0,1,,,,,0,65,0
26672,note_on,,,,,12,0,2,,,,,1,77,30
26672,note_on,,,,,12,0,1,,,,,0,65,120
26680,note_on,,,,,8,0,1,,,,,0,64,0
26680,note_on,,,,,8,0,2,,,,,1,76,0
26692,note_on,,,,,12,0,1,,,,,0,65,0
26692,note_on,,,,,12,0,2,,,,,1,77,0
26696,note_on,,,,,4,0,1,,,,,0,64,120
26696,note_on,,,,,4,0,2,,,,,1,76,30
26700,note_on,,,,,4,0,1,,,,,0,48,0
26700,note_on,,,,,0,0,1,,,,,0,58,120
26700,note_on,,,,,0,0,2,,,,,1,70,30
26700,note_on,,,,,4,0,2,,,,,1,60,0
26712,note_on,,,,,12,0,2,,,,,1,74,30
26712,note_on,,,,,12,0,1,,,,,0,62,120
26716,note_on,,,,,4,0,2,,,,,1,76,0
26716,note_on,,,,,4,0,1,,,,,0,64,0
26760,note_on,,,,,0,0,2,,,,,1,72,30
26760,note_on,,,,,44,0,2,,,,,1,70,0
26760,note_on,,,,,0,0,2,,,,,1,76,30
26760,note_on,,,,,44,0,1,,,,,0,58,0
26760,note_on,,,,,0,0,1,,,,,0,64,120
26760,note_on,,,,,0,0,1,,,,,0,60,120
26772,note_on,,,,,12,0,2,,,,,1,74,0
26772,note_on,,,,,12,0,1,,,,,0,62,0
26820,note_on,,,,,0,0,1,,,,,0,58,120
26820,note_on,,,,,48,0,2,,,,,1,72,0
26820,note_on,,,,,48,0,1,,,,,0,60,0
26820,note_on,,,,,0,0,2,,,,,1,70,30
26855,note_on,,,,,35,0,2,,,,,1,76,0
26855,note_on,,,,,35,0,1,,,,,0,64,0
26880,note_on,,,,,25,0,2,,,,,1,70,0
26880,note_on,,,,,0,0,2,,,,,1,80,30
26880,note_on,,,,,0,0,2,,,,,1,65,30
26880,note_on,,,,,25,0,1,,,,,0,58,0
26880,note_on,,,,,0,0,1,,,,,0,68,120
26880,note_on,,,,,0,0,1,,,,,0,53,120
26940,note_on,,,,,60,0,2,,,,,1,80,0
26940,note_on,,,,,0,0,2,,,,,1,84,30
26940,note_on,,,,,60,0,1,,,,,0,68,0
26940,note_on,,,,,0,0,1,,,,,0,72,120
26967,note_on,,,,,27,0,1,,,,,0,53,0
26967,note_on,,,,,27,0,2,,,,,1,65,0
27000,note_on,,,,,33,0,1,,,,,0,72,0
27000,note_on,,,,,0,0,1,,,,,0,71,120
27000,note_on,,,,,0,0,1,,,,,0,56,120
27000,note_on,,,,,0,0,2,,,,,1,68,30
27000,note_on,,,,,0,0,2,,,,,1,83,30
27000,note_on,,,,,33,0,2,,,,,1,84,0
27060,note_on,,,,,60,0,2,,,,,1,83,0
27060,note_on,,,,,60,0,1,,,,,0,71,0
27060,note_on,,,,,0,0,1,,,,,0,72,120
27060,note_on,,,,,0,0,2,,,,,1,84,30
27071,note_on,,,,,11,0,2,,,,,1,68,0
27071,note_on,,,,,11,0,1,,,,,0,56,0
27120,note_on,,,,,0,0,1,,,,,0,73,120
27120,note_on,,,,,49,0,1,,,,,0,72,0
27120,note_on,,,,,0,0,1,,,,,0,53,120
27120,note_on,,,,,0,0,2,,,,,1,65,30
27120,note_on,,,,,49,0,2,,,,,1,84,0
27120,note_on,,,,,0,0,2,,,,,1,85,30
27180,note_on,,,,,0,0,1,,,,,0,72,120
27180,note_on,,,,,0,0,2,,,,,1,84,30
27180,note_on,,,,,60,0,2,,,,,1,85,0
27180,note_on,,,,,60,0,1,,,,,0,73,0
27191,note_on,,,,,11,0,1,,,,,0,53,0
27191,note_on,,,,,11,0,2,,,,,1,65,0
27240,note_on,,,,,0,0,1,,,,,0,71,120
27240,note_on,,,,,49,0,1,,,,,0,72,0
27240,note_on,,,,,0,0,2,,,,,1,83,30
27240,note_on,,,,,0,0,2,,,,,1,73,30
27240,note_on,,,,,0,0,1,,,,,0,61,120
27240,note_on,,,,,49,0,2,,,,,1,84,0
27300,note_on,,,,,60,0,1,,,,,0,71,0
27300,note_on,,,,,0,0,1,,,,,0,72,120
27300,note_on,,,,,60,0,2,,,,,1,83,0
27300,note_on,,,,,0,0,2,,,,,1,84,30
27311,note_on,,,,,11,0,1,,,,,0,61,0
27311,note_on,,,,,11,0,2,,,,,1,73,0
27360,note_on,,,,,0,0,2,,,,,1,79,30
27360,note_on,,,,,0,0,1,,,,,0,67,120
27360,note_on,,,,,0,0,1,,,,,0,52,120
27360,note_on,,,,,49,0,2,,,,,1,84,0
27360,note_on,,,,,0,0,2,,,,,1,64,30
27360,note_on,,,,,49,0,1,,,,,0,72,0
27420,note_on,,,,,60,0,1,,,,,0,67,0
27420,note_on,,,,,0,0,1,,,,,0,72,120
27420,note_on,,,,,0,0,2,,,,,1,84,30
27420,note_on,,,,,60,0,2,,,,,1,79,0
27455,note_on,,,,,35,0,2,,,,,1,64,0
27455,note_on,,,,,35,0,1,,,,,0,52,0
27480,note_on,,,,,25,0,1,,,,,0,72,0
27480,note_on,,,,,0,0,2,,,,,1,67,30
27480,note_on,,,,,0,0,2,,,,,1,83,30
27480,note_on,,,,,25,0,2,,,,,1,84,0
27480,note_on,,,,,0,0,1,,,,,0,55,120
27480,note_on,,,,,0,0,1,,,,,0,71,120
27540,note_on,,,,,0,0,2,,,,,1,84,30
27540,note_on,,,,,60,0,2,,,,,1,83,0
27540,note_on,,,,,0,0,1,,,,,0,72,120
27540,note_on,,,,,60,0,1,,,,,0,71,0
27567,note_on,,,,,27,0,2,,,,,1,67,0
27567,note_on,,,,,27,0,1,,,,,0,55,0
27600,note_on,,,,,0,0,1,,,,,0,73,120
27600,note_on,,,,,0,0,2,,,,,1,63,30
27600,note_on,,,,,0,0,2,,,,,1,85,30
27600,note_on,,,,,33,0,2,,,,,1,84,0
27600,note_on,,,,,0,0,1,,,,,0,51,120
27600,note_on,,,,,33,0,1,,,,,0,72,0
27660,note_on,,,,,0,0,1,,,,,0,72,120
27660,note_on,,,,,60,0,1,,,,,0,73,0
27660,note_on,,,,,0,0,2,,,,,1,84,30
27660,note_on,,,,,60,0,2,,,,,1,85,0
27687,note_on,,,,,27,0,1,,,,,0,51,0
27687,note_on,,,,,27,0,2,,,,,1,63,0
27720,note_on,,,,,0,0,1,,,,,0,71,120
27720,note_on,,,,,33,0,2,,,,,1,84,0
27720,note_on,,,,,33,0,1,,,,,0,72,0
27720,note_on,,,,,0,0,1,,,,,0,60,120
27720,note_on,,,,,0,0,2,,,,,1,72,30
27720,note_on,,,,,0,0,2,,,,,1,83,30
27780,note_on,,,,,0,0,2,,,,,1,84,30
27780,note_on,,,,,0,0,1,,,,,0,72,120
27780,note_on,,,,,60,0,2,,,,,1,83,0
27780,note_on,,,,,60,0,1,,,,,0,71,0
27791,note_on,,,,,11,0,2,,,,,1,72,0
27791,note_on,,,,,11,0,1,,,,,0,60,0
27840,note_on,,,,,49,0,1,,,,,0,72,0
27840,note_on,,,,,0,0,2,,,,,1,62,30
27840,note_on,,,,,0,0,2,,,,,1,77,30
27840,note_on,,,,,49,0,2,,,,,1,84,0
27840,note_on,,,,,0,0,1,,,,,0,65,120
27840,note_on,,,,,0,0,1,,,,,0,50,120
27900,note_on,,,,,0,0,2,,,,,1,84,30
27900,note_on,,,,,60,0,2,,,,,1,77,0
27900,note_on,,,,,0,0,1,,,,,0,72,120
27900,note_on,,,,,60,0,1,,,,,0,65,0
27960,note_on,,,,,0,0,2,,,,,1,86,30
27960,note_on,,,,,0,0,2,,,,,1,65,30
27960,note_on,,,,,0,0,2,,,,,1,62,0
27960,note_on,,,,,60,0,2,,,,,1,84,0
27960,note_on,,,,,0,0,1,,,,,0,50,0
27960,note_on,,,,,0,0,1,,,,,0,74,120
27960,note_on,,,,,0,0,1,,,,,0,53,120
27960,note_on,,,,,60,0,1,,,,,0,72,0
28020,note_on,,,,,60,0,1,,,,,0,74,0
28020,note_on,,,,,0,0,1,,,,,0,76,120
28020,note_on,,,,,0,0,2,,,,,1,88,30
28020,note_on,,,,,60,0,2,,,,,1,86,0
28047,note_on,,,,,27,0,1,,,,,0,53,0
28047,note_on,,,,,27,0,2,,,,,1,65,0
28080,note_on,,,,,0,0,2,,,,,1,61,30
28080,note_on,,,,,0,0,2,,,,,1,89,30
28080,note_on,,,,,33,0,2,,,,,1,88,0
28080,note_on,,,,,33,0,1,,,,,0,76,0
28080,note_on,,,,,0,0,1,,,,,0,77,120
28080,note_on,,,,,0,0,1,,,,,0,49,120
28140,note_on,,,,,0,0,2,,,,,1,82,30
28140,note_on,,,,,60,0,1,,,,,0,77,0
28140,note_on,,,,,0,0,1,,,,,0,70,120
28140,note_on,,,,,60,0,2,,,,,1,89,0
28167,note_on,,,,,27,0,2,,,,,1,61,0
28167,note_on,,,,,27,0,1,,,,,0,49,0
28200,note_on,,,,,0,0,1,,,,,0,58,120
28200,note_on,,,,,33,0,1,,,,,0,70,0
28200,note_on,,,,,33,0,2,,,,,1,82,0
28200,note_on,,,,,0,0,2,,,,,1,81,30
28200,note_on,,,,,0,0,2,,,,,1,70,30
28200,note_on,,,,,0,0,1,,,,,0,69,120
28260,note_on,,,,,60,0,2,,,,,1,81,0
28260,note_on,,,,,0,0,2,,,,,1,82,30
28260,note_on,,,,,0,0,1,,,,,0,70,120
28260,note_on,,,,,60,0,1,,,,,0,69,0
28287,note_on,,,,,27,0,2,,,,,1,70,0
28287,note_on,,,,,27,0,1,,,,,0,58,0
28320,note_on,,,,,0,0,1,,,,,0,79,120
28320,note_on,,,,,33,0,1,,,,,0,70,0
28320,note_on,,,,,0,0,1,,,,,0,48,120
28320,note_on,,,,,0,0,2,,,,,1,91,30
28320,note_on,,,,,0,0,2,,,,,1,60,30
28320,note_on,,,,,33,0,2,,,,,1,82,0
28380,note_on,,,,,0,0,1,,,,,0,77,120
28380,note_on,,,,,60,0,1,,,,,0,79,0
28380,note_on,,,,,0,0,2,,,,,1,89,30
28380,note_on,,,,,60,0,2,,,,,1,91,0
28440,note_on,,,,,60,0,1,,,,,0,77,0
28440,note_on,,,,,0,0,1,,,,,0,48,0
28440,note_on,,,,,0,0,1,,,,,0,76,120
28440,note_on,,,,,0,0,1,,,,,0,50,120
28440,note_on,,,,,0,0,2,,,,,1,88,30
28440,note_on,,,,,0,0,2,,,,,1,60,0
28440,note_on,,,,,60,0,2,,,,,1,89,0
28440,note_on,,,,,0,0,2,,,,,1,62,30
28500,note_on,,,,,60,0,1,,,,,0,76,0
28500,note_on,,,,,60,0,2,,,,,1,88,0
28500,note_on,,,,,0,0,1,,,,,0,74,120
28500,note_on,,,,,0,0,2,,,,,1,86,30
28560,note_on,,,,,0,0,2,,,,,1,64,30
28560,note_on,,,,,0,0,1,,,,,0,52,120
28560,note_on,,,,,0,0,1,,,,,0,50,0
28560,note_on,,,,,0,0,1,,,,,0,72,120
28560,note_on,,,,,0,0,2,,,,,1,84,30
28560,note_on,,,,,0,0,2,,,,,1,62,0
28560,note_on,,,,,60,0,2,,,,,1,86,0
28560,note_on,,,,,60,0,1,,,,,0,74,0
28620,note_on,,,,,0,0,2,,,,,1,82,30
28620,note_on,,,,,0,0,1,,,,,0,70,120
28620,note_on,,,,,60,0,2,,,,,1,84,0
28620,note_on,,,,,60,0,1,,,,,0,72,0
28647,note_on,,,,,27,0,2,,,,,1,64,0
28647,note_on,,,,,27,0,1,,,,,0,52,0
28680,note_on,,,,,0,0,1,,,,,0,68,120
28680,note_on,,,,,33,0,1,,,,,0,70,0
28680,note_on,,,,,0,0,2,,,,,1,80,30
28680,note_on,,,,,33,0,2,,,,,1,82,0
28680,note_on,,,,,0,0,2,,,,,1,60,30
28680,note_on,,,,,0,0,1,,,,,0,48,120
28740,note_on,,,,,0,0,2,,,,,1,79,30
28740,note_on,,,,,60,0,2,,,,,1,80,0
28740,note_on,,,,,60,0,1,,,,,0,68,0
28740,note_on,,,,,0,0,1,,,,,0,67,120
28767,note_on,,,,,27,0,2,,,,,1,60,0
28767,note_on,,,,,27,0,1,,,,,0,48,0
28800,note_on,,,,,0,0,2,,,,,1,65,30
28800,note_on,,,,,0,0,2,,,,,1,80,30
28800,note_on,,,,,33,0,2,,,,,1,79,0
28800,note_on,,,,,33,0,1,,,,,0,67,0
28800,note_on,,,,,0,0,1,,,,,0,68,120
28800,note_on,,,,,0,0,1,,,,,0,53,120
28860,note_on,,,,,0,0,2,,,,,1,68,30
28860,note_on,,,,,0,0,2,,,,,1,80,0
28860,note_on,,,,,60,0,2,,,,,1,65,0
28860,note_on,,,,,60,0,1,,,,,0,53,0
28860,note_on,,,,,0,0,2,,,,,1,77,30
28860,note_on,,,,,0,0,1,,,,,0,65,120
28860,note_on,,,,,0,0,1,,,,,0,56,120
28860,note_on,,,,,0,0,1,,,,,0,68,0
28920,note_on,,,,,60,0,1,,,,,0,56,0
28920,note_on,,,,,0,0,1,,,,,0,55,120
28920,note_on,,,,,0,0,1,,,,,0,65,0
28920,note_on,,,,,60,0,2,,,,,1,68,0
28920,note_on,,,,,0,0,2,,,,,1,77,0
28920,note_on,,,,,0,0,2,,,,,1,76,30
28920,note_on,,,,,0,0,2,,,,,1,67,30
28920,note_on,,,,,0,0,1,,,,,0,64,120
28980,note_on,,,,,60,0,2,,,,,1,67,0
28980,note_on,,,,,0,0,2,,,,,1,68,30
28980,note_on,,,,,0,0,2,,,,,1,77,30
28980,note_on,,,,,0,0,1,,,,,0,64,0
28980,note_on,,,,,60,0,1,,,,,0,55,0
28980,note_on,,,,,0,0,2,,,,,1,76,0
28980,note_on,,,,,0,0,1,,,,,0,56,120
28980,note_on,,,,,0,0,1,,,,,0,65,120
29040,note_on,,,,,60,0,1,,,,,0,56,0
29040,note_on,,,,,0,0,2,,,,,1,63,30
29040,note_on,,,,,0,0,2,,,,,1,84,30
29040,note_on,,,,,0,0,2,,,,,1,77,0
29040,note_on,,,,,60,0,2,,,,,1,68,0
29040,note_on,,,,,0,0,1,,,,,0,51,120
29040,note_on,,,,,0,0,1,,,,,0,65,0
29040,note_on,,,,,0,0,1,,,,,0,72,120
29100,note_on,,,,,0,0,2,,,,,1,80,30
29100,note_on,,,,,0,0,2,,,,,1,72,30
29100,note_on,,,,,0,0,1,,,,,0,68,120
29100,note_on,,,,,60,0,1,,,,,0,51,0
29100,note_on,,,,,0,0,1,,,,,0,72,0
29100,note_on,,,,,0,0,2,,,,,1,84,0
29100,note_on,,,,,0,0,1,,,,,0,60,120
29100,note_on,,,,,60,0,2,,,,,1,63,0
29160,note_on,,,,,60,0,1,,,,,0,60,0
29160,note_on,,,,,0,0,1,,,,,0,68,0
29160,note_on,,,,,60,0,2,,,,,1,72,0
29160,note_on,,,,,0,0,2,,,,,1,80,0
29160,note_on,,,,,0,0,2,,,,,1,79,30
29160,note_on,,,,,0,0,2,,,,,1,70,30
29160,note_on,,,,,0,0,1,,,,,0,58,120
29160,note_on,,,,,0,0,1,,,,,0,67,120
29220,note_on,,,,,0,0,1,,,,,0,67,0
29220,note_on,,,,,60,0,1,,,,,0,58,0
29220,note_on,,,,,0,0,2,,,,,1,72,30
29220,note_on,,,,,0,0,1,,,,,0,68,120
29220,note_on,,,,,0,0,2,,,,,1,80,30
29220,note_on,,,,,0,0,2,,,,,1,79,0
29220,note_on,,,,,60,0,2,,,,,1,70,0
29220,note_on,,,,,0,0,1,,,,,0,60,120
29280,note_on,,,,,0,0,2,,,,,1,80,0
29280,note_on,,,,,0,0,2,,,,,1,89,30
29280,note_on,,,,,0,0,2,,,,,1,61,30
29280,note_on,,,,,60,0,1,,,,,0,60,0
29280,note_on,,,,,60,0,2,,,,,1,72,0
29280,note_on,,,,,0,0,1,,,,,0,68,0
29280,note_on,,,,,0,0,1,,,,,0,77,120
29280,note_on,,,,,0,0,1,,,,,0,49,120
29340,note_on,,,,,0,0,2,,,,,1,87,30
29340,note_on,,,,,60,0,1,,,,,0,77,0
29340,note_on,,,,,0,0,1,,,,,0,75,120
29340,note_on,,,,,60,0,2,,,,,1,89,0
29367,note_on,,,,,27,0,1,,,,,0,49,0
29367,note_on,,,,,27,0,2,,,,,1,61,0
29400,note_on,,,,,33,0,1,,,,,0,75,0
29400,note_on,,,,,0,0,1,,,,,0,73,120
29400,note_on,,,,,0,0,1,,,,,0,53,120
29400,note_on,,,,,33,0,2,,,,,1,87,0
29400,note_on,,,,,0,0,2,,,,,1,85,30
29400,note_on,,,,,0,0,2,,,,,1,65,30
29460,note_on,,,,,0,0,1,,,,,0,72,120
29460,note_on,,,,,0,0,2,,,,,1,84,30
29460,note_on,,,,,60,0,1,,,,,0,73,0
29460,note_on,,,,,60,0,2,,,,,1,85,0
29479,note_on,,,,,19,0,2,,,,,1,65,0
29479,note_on,,,,,19,0,1,,,,,0,53,0
29520,note_on,,,,,0,0,2,,,,,1,70,30
29520,note_on,,,,,0,0,2,,,,,1,82,30
29520,note_on,,,,,41,0,2,,,,,1,84,0
29520,note_on,,,,,0,0,1,,,,,0,58,120
29520,note_on,,,,,0,0,1,,,,,0,70,120
29520,note_on,,,,,41,0,1,,,,,0,72,0
29580,note_on,,,,,0,0,1,,,,,0,68,120
29580,note_on,,,,,0,0,2,,,,,1,80,30
29580,note_on,,,,,60,0,1,,,,,0,70,0
29580,note_on,,,,,60,0,2,,,,,1,82,0
29599,note_on,,,,,19,0,2,,,,,1,70,0
29599,note_on,,,,,19,0,1,,,,,0,58,0
29640,note_on,,,,,0,0,2,,,,,1,79,30
29640,note_on,,,,,41,0,2,,,,,1,80,0
29640,note_on,,,,,41,0,1,,,,,0,68,0
29640,note_on,,,,,0,0,1,,,,,0,61,120
29640,note_on,,,,,0,0,1,,,,,0,67,120
29640,note_on,,,,,0,0,2,,,,,1,73,30
29700,note_on,,,,,0,0,1,,,,,0,65,120
29700,note_on,,,,,0,0,2,,,,,1,77,30
29700,note_on,,,,,60,0,2,,,,,1,79,0
29700,note_on,,,,,60,0,1,,,,,0,67,0
29711,note_on,,,,,11,0,2,,,,,1,73,0
29711,note_on,,,,,11,0,1,,,,,0,61,0
29760,note_on,,,,,49,0,2,,,,,1,77,0
29760,note_on,,,,,0,0,2,,,,,1,63,30
29760,note_on,,,,,0,0,2,,,,,1,79,30
29760,note_on,,,,,0,0,1,,,,,0,51,120
29760,note_on,,,,,49,0,1,,,,,0,65,0
29760,note_on,,,,,0,0,1,,,,,0,67,120
29820,note_on,,,,,0,0,2,,,,,1,75,30
29820,note_on,,,,,0,0,2,,,,,1,79,0
29820,note_on,,,,,60,0,1,,,,,0,51,0
29820,note_on,,,,,0,0,1,,,,,0,67,0
29820,note_on,,,,,60,0,2,,,,,1,63,0
29820,note_on,,,,,0,0,1,,,,,0,63,120
29820,note_on,,,,,0,0,1,,,,,0,55,120
29820,note_on,,,,,0,0,2,,,,,1,67,30
29880,note_on,,,,,60,0,2,,,,,1,67,0
29880,note_on,,,,,0,0,2,,,,,1,75,0
29880,note_on,,,,,0,0,2,,,,,1,74,30
29880,note_on,,,,,0,0,2,,,,,1,65,30
29880,note_on,,,,,0,0,1,,,,,0,63,0
29880,note_on,,,,,0,0,1,,,,,0,53,120
29880,note_on,,,,,0,0,1,,,,,0,62,120
29880,note_on,,,,,60,0,1,,,,,0,55,0
29940,note_on,,,,,0,0,1,,,,,0,63,120
29940,note_on,,,,,0,0,1,,,,,0,62,0
29940,note_on,,,,,0,0,1,,,,,0,55,120
29940,note_on,,,,,0,0,2,,,,,1,67,30
29940,note_on,,,,,0,0,2,,,,,1,75,30
29940,note_on,,,,,60,0,2,,,,,1,65,0
29940,note_on,,,,,60,0,1,,,,,0,53,0
29940,note_on,,,,,0,0,2,,,,,1,74,0
30000,note_on,,,,,0,0,1,,,,,0,49,120
30000,note_on,,,,,0,0,2,,,,,1,82,30
30000,note_on,,,,,0,0,2,,,,,1,75,0
30000,note_on,,,,,0,0,1,,,,,0,70,120
30000,note_on,,,,,0,0,1,,,,,0,63,0
30000,note_on,,,,,60,0,1,,,,,0,55,0
30000,note_on,,,,,60,0,2,,,,,1,67,0
30000,note_on,,,,,0,0,2,,,,,1,61,30
30060,note_on,,,,,60,0,1,,,,,0,49,0
30060,note_on,,,,,0,0,2,,,,,1,82,0
30060,note_on,,,,,0,0,1,,,,,0,58,120
30060,note_on,,,,,0,0,1,,,,,0,70,0
30060,note_on,,,,,0,0,1,,,,,0,67,120
30060,note_on,,,,,60,0,2,,,,,1,61,0
30060,note_on,,,,,0,0,2,,,,,1,79,30
30060,note_on,,,,,0,0,2,,,,,1,70,30
30120,note_on,,,,,0,0,1,,,,,0,56,120
30120,note_on,,,,,0,0,1,,,,,0,65,120
30120,note_on,,,,,0,0,1,,,,,0,67,0
30120,note_on,,,,,60,0,2,,,,,1,70,0
30120,note_on,,,,,0,0,2,,,,,1,79,0
30120,note_on,,,,,60,0,1,,,,,0,58,0
30120,note_on,,,,,0,0,2,,,,,1,77,30
30120,note_on,,,,,0,0,2,,,,,1,68,30
30180,note_on,,,,,0,0,1,,,,,0,58,120
30180,note_on,,,,,0,0,1,,,,,0,67,120
30180,note_on,,,,,0,0,1,,,,,0,65,0
30180,note_on,,,,,60,0,2,,,,,1,68,0
30180,note_on,,,,,0,0,2,,,,,1,77,0
30180,note_on,,,,,0,0,2,,,,,1,79,30
30180,note_on,,,,,0,0,2,,,,,1,70,30
30180,note_on,,,,,60,0,1,,,,,0,56,0
30240,note_on,,,,,0,0,1,,,,,0,67,0
30240,note_on,,,,,0,0,1,,,,,0,48,120
30240,note_on,,,,,0,0,1,,,,,0,75,120
30240,note_on,,,,,60,0,1,,,,,0,58,0
30240,note_on,,,,,0,0,2,,,,,1,87,30
30240,note_on,,,,,0,0,2,,,,,1,60,30
30240,note_on,,,,,60,0,2,,,,,1,70,0
30240,note_on,,,,,0,0,2,,,,,1,79,0
30300,note_on,,,,,0,0,1,,,,,0,73,120
30300,note_on,,,,,0,0,2,,,,,1,85,30
30300,note_on,,,,,60,0,2,,,,,1,87,0
30300,note_on,,,,,60,0,1,,,,,0,75,0
30319,note_on,,,,,19,0,1,,,,,0,48,0
30319,note_on,,,,,19,0,2,,,,,1,60,0
30360,note_on,,,,,0,0,1,,,,,0,51,120
30360,note_on,,,,,0,0,1,,,,,0,72,120
30360,note_on,,,,,41,0,1,,,,,0,73,0
30360,note_on,,,,,0,0,2,,,,,1,63,30
30360,note_on,,,,,41,0,2,,,,,1,85,0
30360,note_on,,,,,0,0,2,,,,,1,84,30
30420,note_on,,,,,0,0,2,,,,,1,82,30
30420,note_on,,,,,0,0,1,,,,,0,70,120
30420,note_on,,,,,60,0,1,,,,,0,72,0
30420,note_on,,,,,60,0,2,,,,,1,84,0
30447,note_on,,,,,27,0,1,,,,,0,51,0
30447,note_on,,,,,27,0,2,,,,,1,63,0
30480,note_on,,,,,0,0,1,,,,,0,68,120
30480,note_on,,,,,0,0,2,,,,,1,68,30
30480,note_on,,,,,0,0,2,,,,,1,80,30
30480,note_on,,,,,33,0,2,,,,,1,82,0
30480,note_on,,,,,0,0,1,,,,,0,56,120
30480,note_on,,,,,33,0,1,,,,,0,70,0
30540,note_on,,,,,60,0,1,,,,,0,68,0
30540,note_on,,,,,0,0,2,,,,,1,79,30
30540,note_on,,,,,60,0,2,,,,,1,80,0
30540,note_on,,,,,0,0,1,,,,,0,67,120
30567,note_on,,,,,27,0,1,,,,,0,56,0
30567,note_on,,,,,27,0,2,,,,,1,68,0
30600,note_on,,,,,0,0,2,,,,,1,77,30
30600,note_on,,,,,33,0,2,,,,,1,79,0
30600,note_on,,,,,33,0,1,,,,,0,67,0
30600,note_on,,,,,0,0,1,,,,,0,60,120
30600,note_on,,,,,0,0,1,,,,,0,65,120
30600,note_on,,,,,0,0,2,,,,,1,72,30
30660,note_on,,,,,0,0,1,,,,,0,64,120
30660,note_on,,,,,0,0,2,,,,,1,76,30
30660,note_on,,,,,60,0,2,,,,,1,77,0
30660,note_on,,,,,60,0,1,,,,,0,65,0
30687,note_on,,,,,27,0,1,,,,,0,60,0
30687,note_on,,,,,27,0,2,,,,,1,72,0
30720,note_on,,,,,0,0,2,,,,,1,61,30
30720,note_on,,,,,0,0,2,,,,,1,77,30
30720,note_on,,,,,33,0,2,,,,,1,76,0
30720,note_on,,,,,0,0,1,,,,,0,49,120
30720,note_on,,,,,0,0,1,,,,,0,65,120
30720,note_on,,,,,33,0,1,,,,,0,64,0
30780,note_on,,,,,60,0,2,,,,,1,61,0
30780,note_on,,,,,0,0,2,,,,,1,65,30
30780,note_on,,,,,0,0,1,,,,,0,53,120
30780,note_on,,,,,60,0,1,,,,,0,49,0
30807,note_on,,,,,27,0,2,,,,,1,77,0
30807,note_on,,,,,27,0,1,,,,,0,65,0
30840,note_on,,,,,0,0,2,,,,,1,63,30
30840,note_on,,,,,0,0,2,,,,,1,81,30
30840,note_on,,,,,33,0,2,,,,,1,65,0
30840,note_on,,,,,33,0,1,,,,,0,53,0
30840,note_on,,,,,0,0,1,,,,,0,69,120
30840,note_on,,,,,0,0,1,,,,,0,51,120
30900,note_on,,,,,0,0,2,,,,,1,65,30
30900,note_on,,,,,60,0,2,,,,,1,63,0
30900,note_on,,,,,60,0,1,,,,,0,51,0
30900,note_on,,,,,0,0,1,,,,,0,53,120
30960,note_on,,,,,60,0,1,,,,,0,53,0
30960,note_on,,,,,0,0,2,,,,,1,81,0
30960,note_on,,,,,0,0,1,,,,,0,70,120
30960,note_on,,,,,0,0,1,,,,,0,69,0
30960,note_on,,,,,0,0,2,,,,,1,66,30
30960,note_on,,,,,0,0,1,,,,,0,54,120
30960,note_on,,,,,60,0,2,,,,,1,65,0
30960,note_on,,,,,0,0,2,,,,,1,82,30
31020,note_on,,,,,0,0,1,,,,,0,53,120
31020,note_on,,,,,0,0,2,,,,,1,65,30
31020,note_on,,,,,60,0,2,,,,,1,66,0
31020,note_on,,,,,60,0,1,,,,,0,54,0
31080,note_on,,,,,60,0,1,,,,,0,53,0
31080,note_on,,,,,0,0,2,,,,,1,63,30
31080,note_on,,,,,0,0,2,,,,,1,84,30
31080,note_on,,,,,0,0,2,,,,,1,82,0
31080,note_on,,,,,60,0,2,,,,,1,65,0
31080,note_on,,,,,0,0,1,,,,,0,51,120
31080,note_on,,,,,0,0,1,,,,,0,72,120
31080,note_on,,,,,0,0,1,,,,,0,70,0
31140,note_on,,,,,60,0,2,,,,,1,63,0
31140,note_on,,,,,0,0,1,,,,,0,53,120
31140,note_on,,,,,60,0,1,,,,,0,51,0
31140,note_on,,,,,0,0,2,,,,,1,65,30
31200,note_on,,,,,0,0,2,,,,,1,84,0
31200,note_on,,,,,0,0,2,,,,,1,85,30
31200,note_on,,,,,0,0,2,,,,,1,58,30
31200,note_on,,,,,60,0,2,,,,,1,65,0
31200,note_on,,,,,60,0,1,,,,,0,53,0
31200,note_on,,,,,0,0,1,,,,,0,72,0
31200,note_on,,,,,0,0,1,,,,,0,73,120
31200,note_on,,,,,0,0,1,,,,,0,46,120
31260,note_on,,,,,0,0,2,,,,,1,65,30
31260,note_on,,,,,60,0,1,,,,,0,46,0
31260,note_on,,,,,0,0,1,,,,,0,53,120
31260,note_on,,,,,60,0,2,,,,,1,58,0
31320,note_on,,,,,60,0,1,,,,,0,53,0
31320,note_on,,,,,0,0,2,,,,,1,85,0
31320,note_on,,,,,0,0,1,,,,,0,76,120
31320,note_on,,,,,0,0,1,,,,,0,73,0
31320,note_on,,,,,0,0,2,,,,,1,67,30
31320,note_on,,,,,0,0,1,,,,,0,55,120
31320,note_on,,,,,60,0,2,,,,,1,65,0
31320,note_on,,,,,0,0,2,,,,,1,88,30
31380,note_on,,,,,0,0,1,,,,,0,56,120
31380,note_on,,,,,0,0,2,,,,,1,68,30
31380,note_on,,,,,60,0,2,,,,,1,67,0
31380,note_on,,,,,60,0,1,,,,,0,55,0
31440,note_on,,,,,60,0,1,,,,,0,56,0
31440,note_on,,,,,0,0,1,,,,,0,55,120
31440,note_on,,,,,0,0,1,,,,,0,77,120
31440,note_on,,,,,0,0,1,,,,,0,76,0
31440,note_on,,,,,60,0,2,,,,,1,68,0
31440,note_on,,,,,0,0,2,,,,,1,89,30
31440,note_on,,,,,0,0,2,,,,,1,67,30
31440,note_on,,,,,0,0,2,,,,,1,88,0
31500,note_on,,,,,0,0,2,,,,,1,65,30
31500,note_on,,,,,60,0,1,,,,,0,55,0
31500,note_on,,,,,0,0,1,,,,,0,53,120
31500,note_on,,,,,60,0,2,,,,,1,67,0
31560,note_on,,,,,0,0,1,,,,,0,79,120
31560,note_on,,,,,60,0,2,,,,,1,65,0
31560,note_on,,,,,0,0,2,,,,,1,89,0
31560,note_on,,,,,0,0,2,,,,,1,91,30
31560,note_on,,,,,0,0,2,,,,,1,64,30
31560,note_on,,,,,60,0,1,,,,,0,53,0
31560,note_on,,,,,0,0,1,,,,,0,52,120
31560,note_on,,,,,0,0,1,,,,,0,77,0
31620,note_on,,,,,60,0,1,,,,,0,52,0
31620,note_on,,,,,0,0,1,,,,,0,53,120
31620,note_on,,,,,60,0,2,,,,,1,64,0
31620,note_on,,,,,0,0,2,,,,,1,65,30
31680,note_on,,,,,0,0,1,,,,,0,72,120
31680,note_on,,,,,0,0,1,,,,,0,79,0
31680,note_on,,,,,0,0,2,,,,,1,91,0
31680,note_on,,,,,60,0,1,,,,,0,53,0
31680,note_on,,,,,0,0,2,,,,,1,56,30
31680,note_on,,,,,60,0,2,,,,,1,65,0
31680,note_on,,,,,0,0,2,,,,,1,84,30
31680,note_on,,,,,0,0,1,,,,,0,44,120
31740,note_on,,,,,60,0,2,,,,,1,84,0
31740,note_on,,,,,0,0,1,,,,,0,76,120
31740,note_on,,,,,60,0,1,,,,,0,72,0
31740,note_on,,,,,0,0,2,,,,,1,88,30
31759,note_on,,,,,19,0,1,,,,,0,44,0
31759,note_on,,,,,19,0,2,,,,,1,56,0
31800,note_on,,,,,0,0,1,,,,,0,77,120
31800,note_on,,,,,0,0,1,,,,,0,41,120
31800,note_on,,,,,41,0,1,,,,,0,76,0
31800,note_on,,,,,41,0,2,,,,,1,88,0
31800,note_on,,,,,0,0,2,,,,,1,89,30
31800,note_on,,,,,0,0,2,,,,,1,53,30
31860,note_on,,,,,60,0,2,,,,,1,89,0
31860,note_on,,,,,0,0,2,,,,,1,92,30
31860,note_on,,,,,0,0,1,,,,,0,80,120
31860,note_on,,,,,60,0,1,,,,,0,77,0
31871,note_on,,,,,11,0,2,,,,,1,53,0
31871,note_on,,,,,11,0,1,,,,,0,41,0
31920,note_on,,,,,0,0,2,,,,,1,82,30
31920,note_on,,,,,0,0,2,,,,,1,60,30
31920,note_on,,,,,49,0,1,,,,,0,80,0
31920,note_on,,,,,0,0,1,,,,,0,70,120
31920,note_on,,,,,0,0,1,,,,,0,48,120
31920,note_on,,,,,49,0,2,,,,,1,92,0
31980,note_on,,,,,60,0,2,,,,,1,82,0
31980,note_on,,,,,0,0,2,,,,,1,91,30
31980,note_on,,,,,60,0,1,,,,,0,70,0
31980,note_on,,,,,0,0,1,,,,,0,79,120
31991,note_on,,,,,11,0,1,,,,,0,48,0
31991,note_on,,,,,11,0,2,,,,,1,60,0
32040,note_on,,,,,0,0,1,,,,,0,77,120
32040,note_on,,,,,49,0,1,,,,,0,79,0
32040,note_on,,,,,0,0,2,,,,,1,48,30
32040,note_on,,,,,0,0,1,,,,,0,36,120
32040,note_on,,,,,49,0,2,,,,,1,91,0
32040,note_on,,,,,0,0,2,,,,,1,89,30
32100,note_on,,,,,0,0,1,,,,,0,76,120
32100,note_on,,,,,0,0,2,,,,,1,88,30
32100,note_on,,,,,60,0,2,,,,,1,89,0
32100,note_on,,,,,60,0,1,,,,,0,77,0
32111,note_on,,,,,11,0,2,,,,,1,48,0
32111,note_on,,,,,11,0,1,,,,,0,36,0
32160,note_on,,,,,0,0,2,,,,,1,53,30
32160,note_on,,,,,49,0,1,,,,,0,76,0
32160,note_on,,,,,0,0,1,,,,,0,68,120
32160,note_on,,,,,0,0,1,,,,,0,41,120
32160,note_on,,,,,0,0,2,,,,,1,80,30
32160,note_on,,,,,49,0,2,,,,,1,88,0
32220,note_on,,,,,60,0,1,,,,,0,68,0
32220,note_on,,,,,60,0,2,,,,,1,80,0
32220,note_on,,,,,0,0,2,,,,,1,84,30
32220,note_on,,,,,0,0,1,,,,,0,72,120
32239,note_on,,,,,19,0,2,,,,,1,53,0
32239,note_on,,,,,19,0,1,,,,,0,41,0
32280,note_on,,,,,41,0,1,,,,,0,72,0
32280,note_on,,,,,0,0,1,,,,,0,76,120
32280,note_on,,,,,0,0,1,,,,,0,44,120
32280,note_on,,,,,0,0,2,,,,,1,56,30
32280,note_on,,,,,0,0,2,,,,,1,88,30
32280,note_on,,,,,41,0,2,,,,,1,84,0
32340,note_on,,,,,0,0,1,,,,,0,77,120
32340,note_on,,,,,60,0,2,,,,,1,88,0
32340,note_on,,,,,60,0,1,,,,,0,76,0
32340,note_on,,,,,0,0,2,,,,,1,89,30
32400,note_on,,,,,60,0,1,,,,,0,77,0
32400,note_on,,,,,0,0,1,,,,,0,46,120
32400,note_on,,,,,0,0,1,,,,,0,44,0
32400,note_on,,,,,0,0,1,,,,,0,67,120
32400,note_on,,,,,0,0,2,,,,,1,56,0
32400,note_on,,,,,60,0,2,,,,,1,89,0
32400,note_on,,,,,0,0,2,,,,,1,79,30
32400,note_on,,,,,0,0,2,,,,,1,58,30
32460,note_on,,,,,60,0,1,,,,,0,67,0
32460,note_on,,,,,0,0,1,,,,,0,73,120
32460,note_on,,,,,0,0,2,,,,,1,85,30
32460,note_on,,,,,60,0,2,,,,,1,79,0
32520,note_on,,,,,60,0,2,,,,,1,85,0
32520,note_on,,,,,0,0,2,,,,,1,58,0
32520,note_on,,,,,0,0,2,,,,,1,60,30
32520,note_on,,,,,0,0,2,,,,,1,84,30
32520,note_on,,,,,0,0,1,,,,,0,72,120
32520,note_on,,,,,0,0,1,,,,,0,48,120
32520,note_on,,,,,0,0,1,,,,,0,46,0
32520,note_on,,,,,60,0,1,,,,,0,73,0
32580,note_on,,,,,0,0,2,,,,,1,82,30
32580,note_on,,,,,0,0,1,,,,,0,70,120
32580,note_on,,,,,60,0,1,,,,,0,72,0
32580,note_on,,,,,60,0,2,,,,,1,84,0
32607,note_on,,,,,27,0,1,,,,,0,48,0
32607,note_on,,,,,27,0,2,,,,,1,60,0
32640,note_on,,,,,0,0,2,,,,,1,65,30
32640,note_on,,,,,33,0,1,,,,,0,70,0
32640,note_on,,,,,0,0,2,,,,,1,80,30
32640,note_on,,,,,0,0,1,,,,,0,68,120
32640,note_on,,,,,33,0,2,,,,,1,82,0
32640,note_on,,,,,0,0,1,,,,,0,53,120
32700,note_on,,,,,0,0,1,,,,,0,67,120
32700,note_on,,,,,60,0,1,,,,,0,68,0
32700,note_on,,,,,60,0,2,,,,,1,80,0
32700,note_on,,,,,0,0,2,,,,,1,79,30
32760,note_on,,,,,0,0,1,,,,,0,53,0
32760,note_on,,,,,60,0,1,,,,,0,67,0
32760,note_on,,,,,0,0,2,,,,,1,65,0
32760,note_on,,,,,0,0,1,,,,,0,55,120
32760,note_on,,,,,0,0,1,,,,,0,65,120
32760,note_on,,,,,0,0,2,,,,,1,67,30
32760,note_on,,,,,0,0,2,,,,,1,77,30
32760,note_on,,,,,60,0,2,,,,,1,79,0
32820,note_on,,,,,0,0,1,,,,,0,64,120
32820,note_on,,,,,0,0,2,,,,,1,76,30
32820,note_on,,,,,60,0,2,,,,,1,77,0
32820,note_on,,,,,60,0,1,,,,,0,65,0
32880,note_on,,,,,0,0,1,,,,,0,56,120
32880,note_on,,,,,0,0,1,,,,,0,65,120
32880,note_on,,,,,0,0,1,,,,,0,55,0
32880,note_on,,,,,60,0,1,,,,,0,64,0
32880,note_on,,,,,0,0,2,,,,,1,67,0
32880,note_on,,,,,0,0,2,,,,,1,77,30
32880,note_on,,,,,0,0,2,,,,,1,68,30
32880,note_on,,,,,60,0,2,,,,,1,76,0
32940,note_on,,,,,0,0,2,,,,,1,80,30
32940,note_on,,,,,60,0,1,,,,,0,65,0
32940,note_on,,,,,0,0,1,,,,,0,68,120
32940,note_on,,,,,60,0,2,,,,,1,77,0
32967,note_on,,,,,27,0,2,,,,,1,68,0
32967,note_on,,,,,27,0,1,,,,,0,56,0
33000,note_on,,,,,33,0,2,,,,,1,80,0
33000,note_on,,,,,33,0,1,,,,,0,68,0
33000,note_on,,,,,0,0,1,,,,,0,53,120
33000,note_on,,,,,0,0,1,,,,,0,60,120
33000,note_on,,,,,0,0,2,,,,,1,65,30
33000,note_on,,,,,0,0,2,,,,,1,72,30
33060,note_on,,,,,60,0,1,,,,,0,60,0
33060,note_on,,,,,0,0,2,,,,,1,75,30
33060,note_on,,,,,60,0,2,,,,,1,72,0
33060,note_on,,,,,0,0,1,,,,,0,63,120
33071,note_on,,,,,11,0,1,,,,,0,53,0
33071,note_on,,,,,11,0,2,,,,,1,65,0
33120,note_on,,,,,0,0,1,,,,,0,58,120
33120,note_on,,,,,49,0,1,,,,,0,63,0
33120,note_on,,,,,49,0,2,,,,,1,75,0
33120,note_on,,,,,0,0,2,,,,,1,74,30
33120,note_on,,,,,0,0,2,,,,,1,70,30
33120,note_on,,,,,0,0,1,,,,,0,62,120
33180,note_on,,,,,0,0,1,,,,,0,68,120
33180,note_on,,,,,60,0,2,,,,,1,74,0
33180,note_on,,,,,60,0,1,,,,,0,62,0
33180,note_on,,,,,0,0,2,,,,,1,80,30
33199,note_on,,,,,19,0,2,,,,,1,70,0
33199,note_on,,,,,19,0,1,,,,,0,58,0
33240,note_on,,,,,41,0,1,,,,,0,68,0
33240,note_on,,,,,0,0,2,,,,,1,77,30
33240,note_on,,,,,41,0,2,,,,,1,80,0
33240,note_on,,,,,0,0,1,,,,,0,65,120
33240,note_on,,,,,0,0,2,,,,,1,58,30
33240,note_on,,,,,0,0,1,,,,,0,46,120
33300,note_on,,,,,60,0,2,,,,,1,77,0
33300,note_on,,,,,0,0,1,,,,,0,62,120
33300,note_on,,,,,60,0,1,,,,,0,65,0
33300,note_on,,,,,0,0,2,,,,,1,74,30
33327,note_on,,,,,27,0,1,,,,,0,46,0
33327,note_on,,,,,27,0,2,,,,,1,58,0
33360,note_on,,,,,0,0,1,,,,,0,58,120
33360,note_on,,,,,0,0,2,,,,,1,70,30
33360,note_on,,,,,33,0,2,,,,,1,74,0
33360,note_on,,,,,33,0,1,,,,,0,62,0
33420,note_on,,,,,60,0,1,,,,,0,58,0
33420,note_on,,,,,0,0,1,,,,,0,56,120
33420,note_on,,,,,0,0,2,,,,,1,68,30
33420,note_on,,,,,60,0,2,,,,,1,70,0
33480,note_on,,,,,60,0,1,,,,,0,56,0
33480,note_on,,,,,0,0,1,,,,,0,55,120
33480,note_on,,,,,60,0,2,,,,,1,68,0
33480,note_on,,,,,0,0,2,,,,,1,67,30
33540,note_on,,,,,0,0,1,,,,,0,53,120
33540,note_on,,,,,60,0,1,,,,,0,55,0
33540,note_on,,,,,60,0,2,,,,,1,67,0
33540,note_on,,,,,0,0,2,,,,,1,65,30
33600,note_on,,,,,60,0,1,,,,,0,53,0
33600,note_on,,,,,60,0,2,,,,,1,65,0
33600,note_on,,,,,0,0,1,,,,,0,51,120
33600,note_on,,,,,0,0,1,,,,,0,67,120
33600,note_on,,,,,0,0,2,,,,,1,79,30
33600,note_on,,,,,0,0,2,,,,,1,63,30
33660,note_on,,,,,0,0,1,,,,,0,65,120
33660,note_on,,,,,60,0,1,,,,,0,67,0
33660,note_on,,,,,60,0,2,,,,,1,79,0
33660,note_on,,,,,0,0,2,,,,,1,77,30
33720,note_on,,,,,0,0,1,,,,,0,53,120
33720,note_on,,,,,0,0,1,,,,,0,63,120
33720,note_on,,,,,0,0,1,,,,,0,51,0
33720,note_on,,,,,60,0,1,,,,,0,65,0
33720,note_on,,,,,60,0,2,,,,,1,77,0
33720,note_on,,,,,0,0,2,,,,,1,63,0
33720,note_on,,,,,0,0,2,,,,,1,75,30
33720,note_on,,,,,0,0,2,,,,,1,65,30
33780,note_on,,,,,0,0,1,,,,,0,62,120
33780,note_on,,,,,60,0,1,,,,,0,63,0
33780,note_on,,,,,60,0,2,,,,,1,75,0
33780,note_on,,,,,0,0,2,,,,,1,74,30
33840,note_on,,,,,0,0,2,,,,,1,67,30
33840,note_on,,,,,0,0,2,,,,,1,75,30
33840,note_on,,,,,0,0,2,,,,,1,65,0
33840,note_on,,,,,60,0,2,,,,,1,74,0
33840,note_on,,,,,0,0,1,,,,,0,55,120
33840,note_on,,,,,0,0,1,,,,,0,63,120
33840,note_on,,,,,0,0,1,,,,,0,53,0
33840,note_on,,,,,60,0,1,,,,,0,62,0
33900,note_on,,,,,0,0,2,,,,,1,79,30
33900,note_on,,,,,60,0,2,,,,,1,75,0
33900,note_on,,,,,0,0,1,,,,,0,67,120
33900,note_on,,,,,60,0,1,,,,,0,63,0
33919,note_on,,,,,19,0,1,,,,,0,55,0
33919,note_on,,,,,19,0,2,,,,,1,67,0
33960,note_on,,,,,0,0,2,,,,,1,63,30
33960,note_on,,,,,41,0,1,,,,,0,67,0
33960,note_on,,,,,0,0,1,,,,,0,51,120
33960,note_on,,,,,0,0,2,,,,,1,71,30
33960,note_on,,,,,41,0,2,,,,,1,79,0
33960,note_on,,,,,0,0,1,,,,,0,59,120
34020,note_on,,,,,60,0,2,,,,,1,71,0
34020,note_on,,,,,60,0,1,,,,,0,59,0
34020,note_on,,,,,0,0,1,,,,,0,62,120
34020,note_on,,,,,0,0,2,,,,,1,74,30
34039,note_on,,,,,19,0,1,,,,,0,51,0
34039,note_on,,,,,19,0,2,,,,,1,63,0
34080,note_on,,,,,41,0,1,,,,,0,62,0
34080,note_on,,,,,0,0,1,,,,,0,60,120
34080,note_on,,,,,0,0,1,,,,,0,56,120
34080,note_on,,,,,0,0,2,,,,,1,68,30
34080,note_on,,,,,0,0,2,,,,,1,72,30
34080,note_on,,,,,41,0,2,,,,,1,74,0
34140,note_on,,,,,60,0,2,,,,,1,72,0
34140,note_on,,,,,0,0,2,,,,,1,79,30
34140,note_on,,,,,60,0,1,,,,,0,60,0
34140,note_on,,,,,0,0,1,,,,,0,67,120
34151,note_on,,,,,11,0,2,,,,,1,68,0
34151,note_on,,,,,11,0,1,,,,,0,56,0
34200,note_on,,,,,0,0,1,,,,,0,63,120
34200,note_on,,,,,49,0,1,,,,,0,67,0
34200,note_on,,,,,49,0,2,,,,,1,79,0
34200,note_on,,,,,0,0,2,,,,,1,75,30
34200,note_on,,,,,0,0,2,,,,,1,56,30
34200,note_on,,,,,0,0,1,,,,,0,44,120
34260,note_on,,,,,60,0,1,,,,,0,63,0
34260,note_on,,,,,60,0,2,,,,,1,75,0
34260,note_on,,,,,0,0,1,,,,,0,60,120
34260,note_on,,,,,0,0,2,,,,,1,72,30
34271,note_on,,,,,11,0,1,,,,,0,44,0
34271,note_on,,,,,11,0,2,,,,,1,56,0
34320,note_on,,,,,49,0,1,,,,,0,60,0
34320,note_on,,,,,0,0,1,,,,,0,56,120
34320,note_on,,,,,49,0,2,,,,,1,72,0
34320,note_on,,,,,0,0,2,,,,,1,68,30
34380,note_on,,,,,0,0,2,,,,,1,67,30
34380,note_on,,,,,60,0,2,,,,,1,68,0
34380,note_on,,,,,60,0,1,,,,,0,56,0
34380,note_on,,,,,0,0,1,,,,,0,55,120
34440,note_on,,,,,0,0,1,,,,,0,53,120
34440,note_on,,,,,60,0,1,,,,,0,55,0
34440,note_on,,,,,60,0,2,,,,,1,67,0
34440,note_on,,,,,0,0,2,,,,,1,65,30
34500,note_on,,,,,0,0,2,,,,,1,63,30
34500,note_on,,,,,0,0,1,,,,,0,51,120
34500,note_on,,,,,60,0,1,,,,,0,53,0
34500,note_on,,,,,60,0,2,,,,,1,65,0
34560,note_on,,,,,0,0,1,,,,,0,50,120
34560,note_on,,,,,60,0,2,,,,,1,63,0
34560,note_on,,,,,0,0,2,,,,,1,77,30
34560,note_on,,,,,0,0,2,,,,,1,62,30
34560,note_on,,,,,60,0,1,,,,,0,51,0
34560,note_on,,,,,0,0,1,,,,,0,65,120
34620,note_on,,,,,0,0,1,,,,,0,63,120
34620,note_on,,,,,0,0,2,,,,,1,75,30
34620,note_on,,,,,60,0,2,,,,,1,77,0
34620,note_on,,,,,60,0,1,,,,,0,65,0
34680,note_on,,,,,0,0,2,,,,,1,63,30
34680,note_on,,,,,0,0,2,,,,,1,74,30
34680,note_on,,,,,0,0,2,,,,,1,62,0
34680,note_on,,,,,0,0,1,,,,,0,51,120
34680,note_on,,,,,0,0,1,,,,,0,62,120
34680,note_on,,,,,0,0,1,,,,,0,50,0
34680,note_on,,,,,60,0,1,,,,,0,63,0
34680,note_on,,,,,60,0,2,,,,,1,75,0
34740,note_on,,,,,60,0,2,,,,,1,74,0
34740,note_on,,,,,0,0,1,,,,,0,60,120
34740,note_on,,,,,60,0,1,,,,,0,62,0
34740,note_on,,,,,0,0,2,,,,,1,72,30
34800,note_on,,,,,60,0,2,,,,,1,72,0
34800,note_on,,,,,0,0,2,,,,,1,63,0
34800,note_on,,,,,0,0,2,,,,,1,74,30
34800,note_on,,,,,60,0,1,,,,,0,60,0
34800,note_on,,,,,0,0,1,,,,,0,51,0
34800,note_on,,,,,0,0,1,,,,,0,62,120
34800,note_on,,,,,0,0,1,,,,,0,53,120
34800,note_on,,,,,0,0,2,,,,,1,65,30
34860,note_on,,,,,60,0,1,,,,,0,62,0
34860,note_on,,,,,0,0,1,,,,,0,65,120
34860,note_on,,,,,60,0,2,,,,,1,74,0
34860,note_on,,,,,0,0,2,,,,,1,77,30
34887,note_on,,,,,27,0,1,,,,,0,53,0
34887,note_on,,,,,27,0,2,,,,,1,65,0
34920,note_on,,,,,0,0,1,,,,,0,68,120
34920,note_on,,,,,0,0,2,,,,,1,80,30
34920,note_on,,,,,0,0,2,,,,,1,62,30
34920,note_on,,,,,33,0,1,,,,,0,65,0
34920,note_on,,,,,33,0,2,,,,,1,77,0
34920,note_on,,,,,0,0,1,,,,,0,50,120
34980,note_on,,,,,60,0,2,,,,,1,80,0
34980,note_on,,,,,0,0,2,,,,,1,72,30
34980,note_on,,,,,60,0,1,,,,,0,68,0
34980,note_on,,,,,0,0,1,,,,,0,60,120
34999,note_on,,,,,19,0,1,,,,,0,50,0
34999,note_on,,,,,19,0,2,,,,,1,62,0
35040,note_on,,,,,0,0,2,,,,,1,71,30
35040,note_on,,,,,0,0,2,,,,,1,67,30
35040,note_on,,,,,41,0,1,,,,,0,60,0
35040,note_on,,,,,0,0,1,,,,,0,59,120
35040,note_on,,,,,0,0,1,,,,,0,55,120
35040,note_on,,,,,41,0,2,,,,,1,72,0
35100,note_on,,,,,0,0,2,,,,,1,77,30
35100,note_on,,,,,60,0,1,,,,,0,59,0
35100,note_on,,,,,0,0,1,,,,,0,65,120
35100,note_on,,,,,60,0,2,,,,,1,71,0
35111,note_on,,,,,11,0,2,,,,,1,67,0
35111,note_on,,,,,11,0,1,,,,,0,55,0
35160,note_on,,,,,0,0,1,,,,,0,43,120
35160,note_on,,,,,49,0,1,,,,,0,65,0
35160,note_on,,,,,49,0,2,,,,,1,77,0
35160,note_on,,,,,0,0,2,,,,,1,74,30
35160,note_on,,,,,0,0,2,,,,,1,55,30
35160,note_on,,,,,0,0,1,,,,,0,62,120
35220,note_on,,,,,60,0,2,,,,,1,74,0
35220,note_on,,,,,0,0,2,,,,,1,71,30
35220,note_on,,,,,0,0,1,,,,,0,59,120
35220,note_on,,,,,60,0,1,,,,,0,62,0
35231,note_on,,,,,11,0,2,,,,,1,55,0
35231,note_on,,,,,11,0,1,,,,,0,43,0
35280,note_on,,,,,0,0,1,,,,,0,55,120
35280,note_on,,,,,49,0,1,,,,,0,59,0
35280,note_on,,,,,49,0,2,,,,,1,71,0
35280,note_on,,,,,0,0,2,,,,,1,67,30
35340,note_on,,,,,60,0,2,,,,,1,67,0
35340,note_on,,,,,0,0,1,,,,,0,53,120
35340,note_on,,,,,0,0,2,,,,,1,71,30
35340,note_on,,,,,0,0,1,,,,,0,59,120
35340,note_on,,,,,0,0,2,,,,,1,65,30
35340,note_on,,,,,60,0,1,,,,,0,55,0
35400,note_on,,,,,0,0,1,,,,,0,60,120
35400,note_on,,,,,0,0,1,,,,,0,51,120
35400,note_on,,,,,60,0,2,,,,,1,65,0
35400,note_on,,,,,0,0,1,,,,,0,59,0
35400,note_on,,,,,0,0,2,,,,,1,71,0
35400,note_on,,,,,60,0,1,,,,,0,53,0
35400,note_on,,,,,0,0,2,,,,,1,72,30
35400,note_on,,,,,0,0,2,,,,,1,63,30
35460,note_on,,,,,0,0,2,,,,,1,74,30
35460,note_on,,,,,0,0,2,,,,,1,62,30
35460,note_on,,,,,0,0,2,,,,,1,72,0
35460,note_on,,,,,60,0,2,,,,,1,63,0
35460,note_on,,,,,60,0,1,,,,,0,51,0
35460,note_on,,,,,0,0,1,,,,,0,60,0
35460,note_on,,,,,0,0,1,,,,,0,50,120
35460,note_on,,,,,0,0,1,,,,,0,62,120
35520,note_on,,,,,0,0,2,,,,,1,75,30
35520,note_on,,,,,0,0,2,,,,,1,60,30
35520,note_on,,,,,0,0,1,,,,,0,63,120
35520,note_on,,,,,0,0,1,,,,,0,48,120
35520,note_on,,,,,60,0,2,,,,,1,74,0
35520,note_on,,,,,0,0,2,,,,,1,62,0
35520,note_on,,,,,60,0,1,,,,,0,62,0
35520,note_on,,,,,0,0,1,,,,,0,50,0
35580,note_on,,,,,0,0,1,,,,,0,50,120
35580,note_on,,,,,60,0,2,,,,,1,60,0
35580,note_on,,,,,60,0,1,,,,,0,48,0
35580,note_on,,,,,0,0,2,,,,,1,62,30
35640,note_on,,,,,0,0,2,,,,,1,63,30
35640,note_on,,,,,0,0,1,,,,,0,51,120
35640,note_on,,,,,0,0,1,,,,,0,67,120
35640,note_on,,,,,0,0,2,,,,,1,79,30
35640,note_on,,,,,60,0,2,,,,,1,62,0
35640,note_on,,,,,60,0,1,,,,,0,50,0
35700,note_on,,,,,0,0,2,,,,,1,60,30
35700,note_on,,,,,60,0,2,,,,,1,63,0
35700,note_on,,,,,0,0,1,,,,,0,48,120
35700,note_on,,,,,60,0,1,,,,,0,51,0
35760,note_on,,,,,0,0,2,,,,,1,56,30
35760,note_on,,,,,60,0,2,,,,,1,60,0
35760,note_on,,,,,0,0,2,,,,,1,84,30
35760,note_on,,,,,0,0,2,,,,,1,79,0
35760,note_on,,,,,0,0,1,,,,,0,44,120
35760,note_on,,,,,0,0,1,,,,,0,72,120
35760,note_on,,,,,0,0,1,,,,,0,67,0
35760,note_on,,,,,60,0,1,,,,,0,48,0
35820,note_on,,,,,0,0,1,,,,,0,63,0
35820,note_on,,,,,0,0,1,,,,,0,70,120
35820,note_on,,,,,0,0,2,,,,,1,67,30
35820,note_on,,,,,0,0,2,,,,,1,82,30
35820,note_on,,,,,0,0,2,,,,,1,75,0
35820,note_on,,,,,60,0,2,,,,,1,56,0
35820,note_on,,,,,60,0,1,,,,,0,44,0
35820,note_on,,,,,0,0,1,,,,,0,55,120
35880,note_on,,,,,60,0,2,,,,,1,67,0
35880,note_on,,,,,0,0,2,,,,,1,82,0
35880,note_on,,,,,0,0,2,,,,,1,80,30
35880,note_on,,,,,0,0,2,,,,,1,65,30
35880,note_on,,,,,60,0,1,,,,,0,55,0
35880,note_on,,,,,0,0,1,,,,,0,70,0
35880,note_on,,,,,0,0,1,,,,,0,68,120
35880,note_on,,,,,0,0,1,,,,,0,53,120
35940,note_on,,,,,60,0,1,,,,,0,53,0
35940,note_on,,,,,0,0,1,,,,,0,68,0
35940,note_on,,,,,0,0,1,,,,,0,67,120
35940,note_on,,,,,0,0,1,,,,,0,51,120
35940,note_on,,,,,0,0,2,,,,,1,63,30
35940,note_on,,,,,0,0,2,,,,,1,79,30
35940,note_on,,,,,60,0,2,,,,,1,65,0
35940,note_on,,,,,0,0,2,,,,,1,80,0
36000,note_on,,,,,0,0,1,,,,,0,50,120
36000,note_on,,,,,60,0,2,,,,,1,63,0
36000,note_on,,,,,60,0,1,,,,,0,51,0
36000,note_on,,,,,0,0,2,,,,,1,62,30
36000,note_on,,,,,0,0,1,,,,,0,67,0
36000,note_on,,,,,0,0,2,,,,,1,79,0
36000,note_on,,,,,0,0,1,,,,,0,65,120
36000,note_on,,,,,0,0,2,,,,,1,77,30
36060,note_on,,,,,0,0,1,,,,,0,65,0
36060,note_on,,,,,60,0,2,,,,,1,62,0
36060,note_on,,,,,0,0,2,,,,,1,77,0
36060,note_on,,,,,0,0,2,,,,,1,79,30
36060,note_on,,,,,0,0,2,,,,,1,63,30
36060,note_on,,,,,0,0,1,,,,,0,67,120
36060,note_on,,,,,0,0,1,,,,,0,51,120
36060,note_on,,,,,60,0,1,,,,,0,50,0
36120,note_on,,,,,60,0,2,,,,,1,63,0
36120,note_on,,,,,0,0,2,,,,,1,79,0
36120,note_on,,,,,0,0,2,,,,,1,80,30
36120,note_on,,,,,0,0,2,,,,,1,65,30
36120,note_on,,,,,60,0,1,,,,,0,51,0
36120,note_on,,,,,0,0,1,,,,,0,67,0
36120,note_on,,,,,0,0,1,,,,,0,68,120
36120,note_on,,,,,0,0,1,,,,,0,53,120
36180,note_on,,,,,60,0,1,,,,,0,53,0
36180,note_on,,,,,0,0,1,,,,,0,50,120
36180,note_on,,,,,0,0,1,,,,,0,65,120
36180,note_on,,,,,0,0,2,,,,,1,62,30
36180,note_on,,,,,0,0,2,,,,,1,77,30
36180,note_on,,,,,0,0,2,,,,,1,80,0
36180,note_on,,,,,60,0,2,,,,,1,65,0
36180,note_on,,,,,0,0,1,,,,,0,68,0
36240,note_on,,,,,60,0,2,,,,,1,62,0
36240,note_on,,,,,0,0,2,,,,,1,77,0
36240,note_on,,,,,0,0,2,,,,,1,58,30
36240,note_on,,,,,60,0,1,,,,,0,50,0
36240,note_on,,,,,0,0,1,,,,,0,65,0
36240,note_on,,,,,0,0,1,,,,,0,62,120
36240,note_on,,,,,0,0,1,,,,,0,46,120
36240,note_on,,,,,0,0,2,,,,,1,74,30
36300,note_on,,,,,0,0,2,,,,,1,84,0
36300,note_on,,,,,0,0,2,,,,,1,84,30
36300,note_on,,,,,0,0,2,,,,,1,68,30
36300,note_on,,,,,60,0,1,,,,,0,46,0
36300,note_on,,,,,0,0,1,,,,,0,72,0
36300,note_on,,,,,0,0,1,,,,,0,72,120
36300,note_on,,,,,60,0,2,,,,,1,58,0
36300,note_on,,,,,0,0,1,,,,,0,56,120
36360,note_on,,,,,0,0,1,,,,,0,72,0
36360,note_on,,,,,0,0,1,,,,,0,70,120
36360,note_on,,,,,0,0,1,,,,,0,55,120
36360,note_on,,,,,0,0,2,,,,,1,67,30
36360,note_on,,,,,0,0,2,,,,,1,82,30
36360,note_on,,,,,0,0,2,,,,,1,84,0
36360,note_on,,,,,60,0,2,,,,,1,68,0
36360,note_on,,,,,60,0,1,,,,,0,56,0
36420,note_on,,,,,60,0,2,,,,,1,67,0
36420,note_on,,,,,0,0,2,,,,,1,82,0
36420,note_on,,,,,0,0,2,,,,,1,65,30
36420,note_on,,,,,60,0,1,,,,,0,55,0
36420,note_on,,,,,0,0,1,,,,,0,70,0
36420,note_on,,,,,0,0,2,,,,,1,80,30
36420,note_on,,,,,0,0,1,,,,,0,53,120
36420,note_on,,,,,0,0,1,,,,,0,68,120
36480,note_on,,,,,0,0,2,,,,,1,80,0
36480,note_on,,,,,0,0,1,,,,,0,51,120
36480,note_on,,,,,0,0,1,,,,,0,67,120
36480,note_on,,,,,0,0,1,,,,,0,62,0
36480,note_on,,,,,0,0,2,,,,,1,63,30
36480,note_on,,,,,0,0,2,,,,,1,79,30
36480,note_on,,,,,0,0,2,,,,,1,74,0
36480,note_on,,,,,60,0,2,,,,,1,65,0
36480,note_on,,,,,0,0,1,,,,,0,68,0
36480,note_on,,,,,60,0,1,,,,,0,53,0
36540,note_on,,,,,60,0,1,,,,,0,67,0
36540,note_on,,,,,0,0,2,,,,,1,80,30
36540,note_on,,,,,60,0,2,,,,,1,79,0
36540,note_on,,,,,0,0,1,,,,,0,68,120
36600,note_on,,,,,0,0,2,,,,,1,62,30
36600,note_on,,,,,0,0,2,,,,,1,63,0
36600,note_on,,,,,60,0,1,,,,,0,68,0
36600,note_on,,,,,0,0,1,,,,,0,50,120
36600,note_on,,,,,0,0,1,,,,,0,70,120
36600,note_on,,,,,0,0,1,,,,,0,51,0
36600,note_on,,,,,0,0,2,,,,,1,82,30
36600,note_on,,,,,60,0,2,,,,,1,80,0
36660,note_on,,,,,0,0,1,,,,,0,67,120
36660,note_on,,,,,60,0,1,,,,,0,70,0
36660,note_on,,,,,0,0,2,,,,,1,79,30
36660,note_on,,,,,60,0,2,,,,,1,82,0
36720,note_on,,,,,60,0,2,,,,,1,79,0
36720,note_on,,,,,0,0,2,,,,,1,62,0
36720,note_on,,,,,0,0,2,,,,,1,72,30
36720,note_on,,,,,0,0,2,,,,,1,63,30
36720,note_on,,,,,60,0,1,,,,,0,67,0
36720,note_on,,,,,0,0,1,,,,,0,50,0
36720,note_on,,,,,0,0,1,,,,,0,60,120
36720,note_on,,,,,0,0,1,,,,,0,51,120
36780,note_on,,,,,0,0,1,,,,,0,73,120
36780,note_on,,,,,0,0,2,,,,,1,85,30
36780,note_on,,,,,60,0,2,,,,,1,72,0
36780,note_on,,,,,60,0,1,,,,,0,60,0
36840,note_on,,,,,60,0,1,,,,,0,73,0
36840,note_on,,,,,0,0,2,,,,,1,64,30
36840,note_on,,,,,0,0,2,,,,,1,63,0
36840,note_on,,,,,60,0,2,,,,,1,85,0
36840,note_on,,,,,0,0,1,,,,,0,51,0
36840,note_on,,,,,0,0,1,,,,,0,72,120
36840,note_on,,,,,0,0,1,,,,,0,52,120
36840,note_on,,,,,0,0,2,,,,,1,84,30
36900,note_on,,,,,0,0,1,,,,,0,70,120
36900,note_on,,,,,60,0,1,,,,,0,72,0
36900,note_on,,,,,0,0,2,,,,,1,82,30
36900,note_on,,,,,60,0,2,,,,,1,84,0
36960,note_on,,,,,0,0,2,,,,,1,80,30
36960,note_on,,,,,0,0,1,,,,,0,53,120
36960,note_on,,,,,0,0,1,,,,,0,68,120
36960,note_on,,,,,0,0,1,,,,,0,52,0
36960,note_on,,,,,60,0,1,,,,,0,70,0
36960,note_on,,,,,0,0,2,,,,,1,65,30
36960,note_on,,,,,0,0,2,,,,,1,64,0
36960,note_on,,,,,60,0,2,,,,,1,82,0
37020,note_on,,,,,0,0,2,,,,,1,82,30
37020,note_on,,,,,60,0,2,,,,,1,80,0
37020,note_on,,,,,0,0,1,,,,,0,70,120
37020,note_on,,,,,60,0,1,,,,,0,68,0
37080,note_on,,,,,0,0,1,,,,,0,52,120
37080,note_on,,,,,0,0,1,,,,,0,72,120
37080,note_on,,,,,0,0,1,,,,,0,53,0
37080,note_on,,,,,60,0,1,,,,,0,70,0
37080,note_on,,,,,60,0,2,,,,,1,82,0
37080,note_on,,,,,0,0,2,,,,,1,65,0
37080,note_on,,,,,0,0,2,,,,,1,84,30
37080,note_on,,,,,0,0,2,,,,,1,64,30
37140,note_on,,,,,60,0,2,,,,,1,84,0
37140,note_on,,,,,60,0,1,,,,,0,72,0
37140,note_on,,,,,0,0,1,,,,,0,68,120
37140,note_on,,,,,0,0,2,,,,,1,80,30
37200,note_on,,,,,0,0,1,,,,,0,52,0
37200,note_on,,,,,0,0,2,,,,,1,65,30
37200,note_on,,,,,0,0,2,,,,,1,74,30
37200,note_on,,,,,0,0,2,,,,,1,64,0
37200,note_on,,,,,0,0,1,,,,,0,62,120
37200,note_on,,,,,0,0,1,,,,,0,53,120
37200,note_on,,,,,60,0,2,,,,,1,80,0
37200,note_on,,,,,60,0,1,,,,,0,68,0
37260,note_on,,,,,0,0,1,,,,,0,75,120
37260,note_on,,,,,60,0,1,,,,,0,62,0
37260,note_on,,,,,60,0,2,,,,,1,74,0
37260,note_on,,,,,0,0,2,,,,,1,87,30
37320,note_on,,,,,60,0,2,,,,,1,87,0
37320,note_on,,,,,0,0,2,,,,,1,65,0
37320,note_on,,,,,0,0,2,,,,,1,66,30
37320,note_on,,,,,0,0,2,,,,,1,86,30
37320,note_on,,,,,60,0,1,,,,,0,75,0
37320,note_on,,,,,0,0,1,,,,,0,54,120
37320,note_on,,,,,0,0,1,,,,,0,74,120
37320,note_on,,,,,0,0,1,,,,,0,53,0
37380,note_on,,,,,0,0,2,,,,,1,84,30
37380,note_on,,,,,60,0,2,,,,,1,86,0
37380,note_on,,,,,60,0,1,,,,,0,74,0
37380,note_on,,,,,0,0,1,,,,,0,72,120
37440,note_on,,,,,60,0,1,,,,,0,72,0
37440,note_on,,,,,0,0,1,,,,,0,54,0
37440,note_on,,,,,0,0,1,,,,,0,71,120
37440,note_on,,,,,60,0,2,,,,,1,84,0
37440,note_on,,,,,0,0,2,,,,,1,67,30
37440,note_on,,,,,0,0,2,,,,,1,83,30
37440,note_on,,,,,0,0,2,,,,,1,66,0
37440,note_on,,,,,0,0,1,,,,,0,55,120
37500,note_on,,,,,0,0,2,,,,,1,79,30
37500,note_on,,,,,0,0,2,,,,,1,83,0
37500,note_on,,,,,60,0,2,,,,,1,67,0
37500,note_on,,,,,0,0,2,,,,,1,65,30
37500,note_on,,,,,60,0,1,,,,,0,55,0
37500,note_on,,,,,0,0,1,,,,,0,71,0
37500,note_on,,,,,0,0,1,,,,,0,67,120
37500,note_on,,,,,0,0,1,,,,,0,53,120
37560,note_on,,,,,60,0,2,,,,,1,65,0
37560,note_on,,,,,0,0,2,,,,,1,63,30
37560,note_on,,,,,0,0,2,,,,,1,84,30
37560,note_on,,,,,0,0,2,,,,,1,79,0
37560,note_on,,,,,0,0,1,,,,,0,67,0
37560,note_on,,,,,60,0,1,,,,,0,53,0
37560,note_on,,,,,0,0,1,,,,,0,51,120
37560,note_on,,,,,0,0,1,,,,,0,72,120
37620,note_on,,,,,0,0,2,,,,,1,65,30
37620,note_on,,,,,0,0,1,,,,,0,53,120
37620,note_on,,,,,0,0,1,,,,,0,74,120
37620,note_on,,,,,0,0,2,,,,,1,86,30
37620,note_on,,,,,60,0,2,,,,,1,63,0
37620,note_on,,,,,60,0,1,,,,,0,51,0
37680,note_on,,,,,0,0,2,,,,,1,86,0
37680,note_on,,,,,60,0,2,,,,,1,65,0
37680,note_on,,,,,0,0,2,,,,,1,84,30
37680,note_on,,,,,0,0,2,,,,,1,87,30
37680,note_on,,,,,0,0,1,,,,,0,75,120
37680,note_on,,,,,0,0,1,,,,,0,72,120
37680,note_on,,,,,0,0,1,,,,,0,72,0
37680,note_on,,,,,0,0,1,,,,,0,74,0
37680,note_on,,,,,60,0,1,,,,,0,53,0
37680,note_on,,,,,0,0,2,,,,,1,67,30
37680,note_on,,,,,0,0,2,,,,,1,84,0
37680,note_on,,,,,0,0,1,,,,,0,55,120
37725,set_tempo,,,,,14843,1,0,,645161,,,,,
37740,note_on,,,,,60,0,1,,,,,0,67,120
37740,note_on,,,,,60,0,2,,,,,1,79,30
37751,note_on,,,,,11,0,2,,,,,1,67,0
37751,note_on,,,,,11,0,1,,,,,0,55,0
37760,set_tempo,,,,,35,1,0,,652174,,,,,
37792,set_tempo,,,,,32,1,0,,659341,,,,,
37800,note_on,,,,,0,0,2,,,,,1,87,0
37800,note_on,,,,,49,0,2,,,,,1,84,0
37800,note_on,,,,,49,0,1,,,,,0,72,0
37800,note_on,,,,,0,0,2,,,,,1,86,30
37800,note_on,,,,,0,0,1,,,,,0,71,120
37800,note_on,,,,,0,0,2,,,,,1,55,30
37800,note_on,,,,,0,0,1,,,,,0,74,120
37800,note_on,,,,,0,0,1,,,,,0,43,120
37800,note_on,,,,,0,0,2,,,,,1,83,30
37800,note_on,,,,,0,0,1,,,,,0,75,0
37825,set_tempo,,,,,33,1,0,,666667,,,,,
37860,note_on,,,,,60,0,1,,,,,0,67,0
37860,set_tempo,,,,,35,1,0,,674157,,,,,
37860,note_on,,,,,60,0,2,,,,,1,79,0
37860,note_on,,,,,0,0,2,,,,,1,77,30
37860,note_on,,,,,0,0,1,,,,,0,65,120
37879,note_on,,,,,19,0,2,,,,,1,55,0
37879,note_on,,,,,19,0,1,,,,,0,43,0
37892,set_tempo,,,,,32,1,0,,681818,,,,,
37920,note_on,,,,,0,0,1,,,,,0,74,0
37920,note_on,,,,,0,0,2,,,,,1,77,0
37920,note_on,,,,,0,0,2,,,,,1,84,30
37920,note_on,,,,,0,0,2,,,,,1,48,30
37920,note_on,,,,,41,0,1,,,,,0,71,0
37920,note_on,,,,,0,0,2,,,,,1,86,0
37920,note_on,,,,,41,0,2,,,,,1,83,0
37920,note_on,,,,,0,0,1,,,,,0,65,0
37920,note_on,,,,,0,0,1,,,,,0,72,120
37920,note_on,,,,,0,0,1,,,,,0,36,120
37925,set_tempo,,,,,33,1,0,,689655,,,,,
37936,note_on,,,,,16,0,1,,,,,0,67,120
37936,note_on,,,,,16,0,2,,,,,1,79,30
37952,note_on,,,,,16,0,2,,,,,1,75,30
37952,note_on,,,,,16,0,1,,,,,0,63,120
37960,set_tempo,,,,,35,1,0,,697674,,,,,
37980,note_on,,,,,0,0,1,,,,,0,48,120
37980,note_on,,,,,28,0,1,,,,,0,36,0
37980,note_on,,,,,28,0,2,,,,,1,48,0
37980,note_on,,,,,0,0,2,,,,,1,60,30
37992,set_tempo,,,,,32,1,0,,705882,,,,,
38025,set_tempo,,,,,33,1,0,,714286,,,,,
38040,note_on,,,,,0,0,1,,,,,0,51,120
38040,note_on,,,,,60,0,1,,,,,0,48,0
38040,note_on,,,,,60,0,2,,,,,1,60,0
38040,note_on,,,,,0,0,2,,,,,1,63,30
38060,set_tempo,,,,,35,1,0,,722892,,,,,
38092,set_tempo,,,,,32,1,0,,731707,,,,,
38100,note_on,,,,,60,0,1,,,,,0,51,0
38100,note_on,,,,,60,0,2,,,,,1,63,0
38100,note_on,,,,,0,0,2,,,,,1,67,30
38100,note_on,,,,,0,0,1,,,,,0,55,120
38125,set_tempo,,,,,33,1,0,,740741,,,,,
38160,note_on,,,,,0,0,2,,,,,1,72,30
38160,set_tempo,,,,,35,1,0,,750000,,,,,
38160,note_on,,,,,60,0,2,,,,,1,67,0
38160,note_on,,,,,0,0,1,,,,,0,60,120
38160,note_on,,,,,60,0,1,,,,,0,55,0
38192,set_tempo,,,,,32,1,0,,759494,,,,,
38225,set_tempo,,,,,33,1,0,,769231,,,,,
38257,set_tempo,,,,,32,1,0,,645161,,,,,
38399,note_on,,,,,239,0,1,,,,,0,67,0
38399,note_on,,,,,239,0,2,,,,,1,79,0
38400,note_on,,,,,0,0,1,,,,,0,51,100
38400,note_on,,,,,0,0,2,,,,,1,72,0
38400,note_on,,,,,0,0,1,,,,,0,60,0
38400,note_on,,,,,1,0,1,,,,,0,72,0
38400,note_on,,,,,1,0,2,,,,,1,84,0
38407,end_of_track,,,,,0,1,2,,,,,,,
38407,note_on,,,,,7,0,1,,,,,0,63,0
38407,note_on,,,,,7,0,2,,,,,1,75,0
38460,note_on,,,,,53,0,1,,,,,0,70,100
38487,note_on,,,,,27,0,1,,,,,0,51,0
38520,note_on,,,,,33,0,1,,,,,0,70,0
38520,note_on,,,,,0,0,1,,,,,0,69,100
38520,note_on,,,,,0,0,1,,,,,0,53,100
38580,note_on,,,,,60,0,1,,,,,0,69,0
38580,note_on,,,,,0,0,1,,,,,0,70,100
38615,note_on,,,,,35,0,1,,,,,0,53,0
38640,note_on,,,,,0,0,1,,,,,0,55,100
38640,note_on,,,,,0,0,1,,,,,0,75,100
38640,note_on,,,,,25,0,1,,,,,0,70,0
38700,note_on,,,,,0,0,1,,,,,0,70,100
38700,note_on,,,,,60,0,1,,,,,0,75,0
38735,note_on,,,,,35,0,1,,,,,0,55,0
38760,note_on,,,,,25,0,1,,,,,0,70,0
38760,note_on,,,,,0,0,1,,,,,0,69,100
38760,note_on,,,,,0,0,1,,,,,0,51,100
38820,note_on,,,,,60,0,1,,,,,0,69,0
38820,note_on,,,,,0,0,1,,,,,0,70,100
38847,note_on,,,,,27,0,1,,,,,0,51,0
38880,note_on,,,,,33,0,1,,,,,0,70,0
38880,note_on,,,,,0,0,1,,,,,0,50,100
38880,note_on,,,,,0,0,1,,,,,0,77,100
38940,note_on,,,,,0,0,1,,,,,0,70,100
38940,note_on,,,,,60,0,1,,,,,0,77,0
39000,note_on,,,,,0,0,1,,,,,0,48,100
39000,note_on,,,,,0,0,1,,,,,0,69,100
39000,note_on,,,,,0,0,1,,,,,0,50,0
39000,note_on,,,,,60,0,1,,,,,0,70,0
39060,note_on,,,,,0,0,1,,,,,0,70,100
39060,note_on,,,,,60,0,1,,,,,0,69,0
39120,note_on,,,,,60,0,1,,,,,0,70,0
39120,note_on,,,,,0,0,1,,,,,0,80,100
39120,note_on,,,,,0,0,1,,,,,0,50,100
39120,note_on,,,,,0,0,1,,,,,0,48,0
39180,note_on,,,,,0,0,1,,,,,0,70,100
39180,note_on,,,,,60,0,1,,,,,0,80,0
39191,note_on,,,,,11,0,1,,,,,0,50,0
39240,note_on,,,,,49,0,1,,,,,0,70,0
39240,note_on,,,,,0,0,1,,,,,0,46,100
39240,note_on,,,,,0,0,1,,,,,0,69,100
39295,note_on,,,,,55,0,1,,,,,0,46,0
39300,note_on,,,,,5,0,1,,,,,0,69,0
39300,note_on,,,,,0,0,1,,,,,0,70,100
39360,note_on,,,,,60,0,1,,,,,0,70,0
39360,note_on,,,,,0,0,1,,,,,0,79,100
39360,note_on,,,,,0,0,1,,,,,0,51,100
39420,note_on,,,,,60,0,1,,,,,0,51,0
39420,note_on,,,,,0,0,1,,,,,0,55,100
39431,note_on,,,,,11,0,1,,,,,0,79,0
39480,note_on,,,,,49,0,1,,,,,0,55,0
39480,note_on,,,,,0,0,1,,,,,0,56,100
39480,note_on,,,,,0,0,1,,,,,0,75,100
39540,note_on,,,,,0,0,1,,,,,0,55,100
39540,note_on,,,,,60,0,1,,,,,0,56,0
39543,note_on,,,,,3,0,1,,,,,0,75,0
39600,note_on,,,,,57,0,1,,,,,0,55,0
39600,note_on,,,,,0,0,1,,,,,0,74,100
39600,note_on,,,,,0,0,1,,,,,0,44,100
39620,note_on,,,,,20,0,1,,,,,0,74,0
39620,note_on,,,,,0,0,1,,,,,0,72,100
39640,note_on,,,,,20,0,1,,,,,0,72,0
39640,note_on,,,,,0,0,1,,,,,0,74,100
39656,note_on,,,,,16,0,1,,,,,0,72,100
39660,note_on,,,,,0,0,1,,,,,0,55,100
39660,note_on,,,,,0,0,1,,,,,0,44,0
39660,note_on,,,,,4,0,1,,,,,0,74,0
39672,note_on,,,,,12,0,1,,,,,0,71,100
39679,note_on,,,,,7,0,1,,,,,0,72,0
39719,note_on,,,,,40,0,1,,,,,0,71,0
39720,note_on,,,,,0,0,1,,,,,0,72,100
39720,note_on,,,,,0,0,1,,,,,0,56,100
39720,note_on,,,,,1,0,1,,,,,0,55,0
39780,note_on,,,,,0,0,1,,,,,0,55,100
39780,note_on,,,,,60,0,1,,,,,0,56,0
39823,note_on,,,,,43,0,1,,,,,0,72,0
39840,note_on,,,,,0,0,1,,,,,0,50,100
39840,note_on,,,,,0,0,1,,,,,0,77,100
39840,note_on,,,,,17,0,1,,,,,0,55,0
39900,note_on,,,,,60,0,1,,,,,0,50,0
39900,note_on,,,,,0,0,1,,,,,0,53,100
39903,note_on,,,,,3,0,1,,,,,0,77,0
39960,note_on,,,,,0,0,1,,,,,0,74,100
39960,note_on,,,,,57,0,1,,,,,0,53,0
39960,note_on,,,,,0,0,1,,,,,0,55,100
40015,note_on,,,,,55,0,1,,,,,0,74,0
40020,note_on,,,,,5,0,1,,,,,0,55,0
40020,note_on,,,,,0,0,1,,,,,0,53,100
40080,note_on,,,,,0,0,1,,,,,0,72,100
40080,note_on,,,,,0,0,1,,,,,0,43,100
40080,note_on,,,,,60,0,1,,,,,0,53,0
40100,note_on,,,,,0,0,1,,,,,0,71,100
40100,note_on,,,,,20,0,1,,,,,0,72,0
40112,note_on,,,,,12,0,1,,,,,0,72,100
40120,note_on,,,,,8,0,1,,,,,0,71,0
40132,note_on,,,,,12,0,1,,,,,0,72,0
40136,note_on,,,,,4,0,1,,,,,0,71,100
40140,note_on,,,,,0,0,1,,,,,0,53,100
40140,note_on,,,,,4,0,1,,,,,0,43,0
40152,note_on,,,,,12,0,1,,,,,0,69,100
40156,note_on,,,,,4,0,1,,,,,0,71,0
40200,note_on,,,,,44,0,1,,,,,0,53,0
40200,note_on,,,,,0,0,1,,,,,0,71,100
40200,note_on,,,,,0,0,1,,,,,0,55,100
40212,note_on,,,,,12,0,1,,,,,0,69,0
40260,note_on,,,,,0,0,1,,,,,0,53,100
40260,note_on,,,,,48,0,1,,,,,0,55,0
40320,note_on,,,,,0,0,1,,,,,0,71,0
40320,note_on,,,,,0,0,1,,,,,0,75,100
40320,note_on,,,,,0,0,1,,,,,0,48,100
40320,note_on,,,,,60,0,1,,,,,0,53,0
40380,note_on,,,,,60,0,1,,,,,0,75,0
40380,note_on,,,,,0,0,1,,,,,0,63,100
40383,note_on,,,,,3,0,1,,,,,0,48,0
40440,note_on,,,,,57,0,1,,,,,0,63,0
40440,note_on,,,,,0,0,1,,,,,0,62,100
40440,note_on,,,,,0,0,1,,,,,0,60,100
40500,note_on,,,,,60,0,1,,,,,0,62,0
40500,note_on,,,,,0,0,1,,,,,0,63,100
40535,note_on,,,,,35,0,1,,,,,0,60,0
40560,note_on,,,,,25,0,1,,,,,0,63,0
40560,note_on,,,,,0,0,1,,,,,0,67,100
40560,note_on,,,,,0,0,1,,,,,0,58,100
40620,note_on,,,,,60,0,1,,,,,0,67,0
40620,note_on,,,,,0,0,1,,,,,0,63,100
40663,note_on,,,,,43,0,1,,,,,0,58,0
40680,note_on,,,,,17,0,1,,,,,0,63,0
40680,note_on,,,,,0,0,1,,,,,0,62,100
40680,note_on,,,,,0,0,1,,,,,0,56,100
40740,note_on,,,,,60,0,1,,,,,0,62,0
40740,note_on,,,,,0,0,1,,,,,0,63,100
40783,note_on,,,,,43,0,1,,,,,0,56,0
40800,note_on,,,,,17,0,1,,,,,0,63,0
40800,note_on,,,,,0,0,1,,,,,0,55,100
40800,note_on,,,,,0,0,1,,,,,0,70,100
40860,note_on,,,,,0,0,1,,,,,0,63,100
40860,note_on,,,,,60,0,1,,,,,0,70,0
40920,note_on,,,,,0,0,1,,,,,0,53,100
40920,note_on,,,,,60,0,1,,,,,0,63,0
40920,note_on,,,,,0,0,1,,,,,0,55,0
40920,note_on,,,,,0,0,1,,,,,0,62,100
40980,note_on,,,,,0,0,1,,,,,0,63,100
40980,note_on,,,,,60,0,1,,,,,0,62,0
41040,note_on,,,,,60,0,1,,,,,0,63,0
41040,note_on,,,,,0,0,1,,,,,0,73,100
41040,note_on,,,,,0,0,1,,,,,0,55,100
41040,note_on,,,,,0,0,1,,,,,0,53,0
41100,note_on,,,,,60,0,1,,,,,0,73,0
41100,note_on,,,,,0,0,1,,,,,0,65,100
41112,note_on,,,,,12,0,1,,,,,0,63,100
41115,note_on,,,,,3,0,1,,,,,0,65,0
41127,note_on,,,,,12,0,1,,,,,0,55,0
41132,note_on,,,,,5,0,1,,,,,0,65,100
41139,note_on,,,,,7,0,1,,,,,0,63,0
41144,note_on,,,,,5,0,1,,,,,0,63,100
41159,note_on,,,,,15,0,1,,,,,0,65,0
41160,note_on,,,,,1,0,1,,,,,0,51,100
41160,note_on,,,,,0,0,1,,,,,0,62,100
41171,note_on,,,,,11,0,1,,,,,0,63,0
41220,note_on,,,,,49,0,1,,,,,0,62,0
41220,note_on,,,,,0,0,1,,,,,0,63,100
41231,note_on,,,,,11,0,1,,,,,0,51,0
41280,note_on,,,,,0,0,1,,,,,0,56,100
41280,note_on,,,,,0,0,1,,,,,0,72,100
41280,note_on,,,,,49,0,1,,,,,0,63,0
41340,note_on,,,,,0,0,1,,,,,0,60,100
41340,note_on,,,,,60,0,1,,,,,0,56,0
41351,note_on,,,,,11,0,1,,,,,0,72,0
41400,note_on,,,,,0,0,1,,,,,0,68,100
41400,note_on,,,,,0,0,1,,,,,0,61,100
41400,note_on,,,,,49,0,1,,,,,0,60,0
41460,note_on,,,,,0,0,1,,,,,0,60,100
41460,note_on,,,,,60,0,1,,,,,0,61,0
41463,note_on,,,,,3,0,1,,,,,0,68,0
41520,note_on,,,,,0,0,1,,,,,0,67,100
41520,note_on,,,,,0,0,1,,,,,0,49,100
41520,note_on,,,,,57,0,1,,,,,0,60,0
41540,note_on,,,,,0,0,1,,,,,0,65,100
41540,note_on,,,,,20,0,1,,,,,0,67,0
41552,note_on,,,,,12,0,1,,,,,0,67,100
41560,note_on,,,,,8,0,1,,,,,0,65,0
41568,note_on,,,,,8,0,1,,,,,0,65,100
41572,note_on,,,,,4,0,1,,,,,0,67,0
41580,note_on,,,,,0,0,1,,,,,0,60,100
41580,note_on,,,,,8,0,1,,,,,0,49,0
41588,note_on,,,,,8,0,1,,,,,0,65,0
41592,note_on,,,,,4,0,1,,,,,0,64,100
41640,note_on,,,,,0,0,1,,,,,0,65,100
41640,note_on,,,,,0,0,1,,,,,0,61,100
41640,note_on,,,,,48,0,1,,,,,0,60,0
41652,note_on,,,,,12,0,1,,,,,0,64,0
41700,note_on,,,,,48,0,1,,,,,0,61,0
41700,note_on,,,,,0,0,1,,,,,0,60,100
41727,note_on,,,,,27,0,1,,,,,0,65,0
41760,note_on,,,,,0,0,1,,,,,0,70,100
41760,note_on,,,,,0,0,1,,,,,0,55,100
41760,note_on,,,,,33,0,1,,,,,0,60,0
41820,note_on,,,,,60,0,1,,,,,0,55,0
41820,note_on,,,,,0,0,1,,,,,0,58,100
41831,note_on,,,,,11,0,1,,,,,0,70,0
41880,note_on,,,,,0,0,1,,,,,0,60,100
41880,note_on,,,,,0,0,1,,,,,0,67,100
41880,note_on,,,,,49,0,1,,,,,0,58,0
41940,note_on,,,,,0,0,1,,,,,0,58,100
41940,note_on,,,,,60,0,1,,,,,0,60,0
41943,note_on,,,,,3,0,1,,,,,0,67,0
42000,note_on,,,,,0,0,1,,,,,0,48,100
42000,note_on,,,,,0,0,1,,,,,0,65,100
42000,note_on,,,,,57,0,1,,,,,0,58,0
42020,note_on,,,,,0,0,1,,,,,0,64,100
42020,note_on,,,,,20,0,1,,,,,0,65,0
42032,note_on,,,,,12,0,1,,,,,0,65,100
42040,note_on,,,,,8,0,1,,,,,0,64,0
42052,note_on,,,,,12,0,1,,,,,0,65,0
42056,note_on,,,,,4,0,1,,,,,0,64,100
42060,note_on,,,,,0,0,1,,,,,0,58,100
42060,note_on,,,,,4,0,1,,,,,0,48,0
42072,note_on,,,,,12,0,1,,,,,0,62,100
42076,note_on,,,,,4,0,1,,,,,0,64,0
42120,note_on,,,,,44,0,1,,,,,0,58,0
42120,note_on,,,,,0,0,1,,,,,0,64,100
42120,note_on,,,,,0,0,1,,,,,0,60,100
42132,note_on,,,,,12,0,1,,,,,0,62,0
42180,note_on,,,,,48,0,1,,,,,0,60,0
42180,note_on,,,,,0,0,1,,,,,0,58,100
42215,note_on,,,,,35,0,1,,,,,0,64,0
42240,note_on,,,,,0,0,1,,,,,0,68,100
42240,note_on,,,,,0,0,1,,,,,0,53,100
42240,note_on,,,,,25,0,1,,,,,0,58,0
42300,note_on,,,,,60,0,1,,,,,0,68,0
42300,note_on,,,,,0,0,1,,,,,0,72,100
42327,note_on,,,,,27,0,1,,,,,0,53,0
42360,note_on,,,,,0,0,1,,,,,0,56,100
42360,note_on,,,,,33,0,1,,,,,0,72,0
42360,note_on,,,,,0,0,1,,,,,0,71,100
42420,note_on,,,,,60,0,1,,,,,0,71,0
42420,note_on,,,,,0,0,1,,,,,0,72,100
42431,note_on,,,,,11,0,1,,,,,0,56,0
42477,set_tempo,,,,,4220,1,0,,789474,,,,,
42480,note_on,,,,,0,0,1,,,,,0,53,100
42480,note_on,,,,,0,0,1,,,,,0,75,100
42480,note_on,,,,,49,0,1,,,,,0,72,0
42496,note_on,,,,,16,0,1,,,,,0,73,100
42511,note_on,,,,,15,0,1,,,,,0,75,0
42512,note_on,,,,,1,0,1,,,,,0,75,100
42524,note_on,,,,,12,0,1,,,,,0,73,100
42527,note_on,,,,,3,0,1,,,,,0,73,0
42540,note_on,,,,,13,0,1,,,,,0,72,100
42543,note_on,,,,,3,0,1,,,,,0,75,0
42545,set_tempo,,,,,68,1,0,,789474,,,,,
42551,note_on,,,,,8,0,1,,,,,0,53,0
42552,set_tempo,,,,,7,1,0,,638298,,,,,
42555,note_on,,,,,4,0,1,,,,,0,73,0
42600,note_on,,,,,0,0,1,,,,,0,61,100
42600,note_on,,,,,45,0,1,,,,,0,72,0
42600,note_on,,,,,0,0,1,,,,,0,71,100
42660,note_on,,,,,60,0,1,,,,,0,71,0
42660,note_on,,,,,0,0,1,,,,,0,72,100
42671,note_on,,,,,11,0,1,,,,,0,61,0
42720,note_on,,,,,49,0,1,,,,,0,72,0
42720,note_on,,,,,0,0,1,,,,,0,67,100
42720,note_on,,,,,0,0,1,,,,,0,52,100
42780,note_on,,,,,0,0,1,,,,,0,72,100
42780,note_on,,,,,60,0,1,,,,,0,67,0
42815,note_on,,,,,35,0,1,,,,,0,52,0
42840,note_on,,,,,25,0,1,,,,,0,72,0
42840,note_on,,,,,0,0,1,,,,,0,71,100
42840,note_on,,,,,0,0,1,,,,,0,55,100
42900,note_on,,,,,60,0,1,,,,,0,71,0
42900,note_on,,,,,0,0,1,,,,,0,72,100
42927,note_on,,,,,27,0,1,,,,,0,55,0
42960,note_on,,,,,0,0,1,,,,,0,51,100
42960,note_on,,,,,0,0,1,,,,,0,73,100
42960,note_on,,,,,33,0,1,,,,,0,72,0
42975,set_tempo,,,,,423,1,0,,779221,,,,,
43020,note_on,,,,,0,0,1,,,,,0,73,100
43020,note_on,,,,,60,0,1,,,,,0,73,0
43032,note_on,,,,,12,0,1,,,,,0,72,100
43047,note_on,,,,,15,0,1,,,,,0,51,0
43051,note_on,,,,,4,0,1,,,,,0,73,0
43052,note_on,,,,,1,0,1,,,,,0,73,100
43060,note_on,,,,,8,0,1,,,,,0,72,100
43063,note_on,,,,,3,0,1,,,,,0,72,0
43080,note_on,,,,,0,0,1,,,,,0,71,100
43080,note_on,,,,,17,0,1,,,,,0,60,100
43082,set_tempo,,,,,107,1,0,,638298,,,,,
43083,note_on,,,,,3,0,1,,,,,0,73,0
43091,note_on,,,,,8,0,1,,,,,0,72,0
43140,note_on,,,,,49,0,1,,,,,0,71,0
43140,note_on,,,,,0,0,1,,,,,0,72,100
43151,note_on,,,,,11,0,1,,,,,0,60,0
43200,note_on,,,,,0,0,1,,,,,0,65,100
43200,note_on,,,,,49,0,1,,,,,0,72,0
43200,note_on,,,,,0,0,1,,,,,0,50,100
43260,note_on,,,,,60,0,1,,,,,0,65,0
43260,note_on,,,,,0,0,1,,,,,0,72,100
43320,note_on,,,,,60,0,1,,,,,0,72,0
43320,note_on,,,,,0,0,1,,,,,0,50,0
43320,note_on,,,,,0,0,1,,,,,0,74,100
43320,note_on,,,,,0,0,1,,,,,0,53,100
43380,note_on,,,,,60,0,1,,,,,0,74,0
43380,note_on,,,,,0,0,1,,,,,0,76,100
43407,note_on,,,,,27,0,1,,,,,0,53,0
43440,note_on,,,,,33,0,1,,,,,0,76,0
43440,note_on,,,,,0,0,1,,,,,0,49,100
43440,note_on,,,,,0,0,1,,,,,0,77,100
43500,note_on,,,,,60,0,1,,,,,0,77,0
43500,note_on,,,,,0,0,1,,,,,0,70,100
43516,note_on,,,,,16,0,1,,,,,0,72,100
43527,note_on,,,,,11,0,1,,,,,0,49,0
43539,note_on,,,,,12,0,1,,,,,0,70,0
43540,note_on,,,,,1,0,1,,,,,0,70,100
43559,note_on,,,,,19,0,1,,,,,0,72,0
43560,note_on,,,,,1,0,1,,,,,0,58,100
43564,note_on,,,,,4,0,1,,,,,0,72,100
43583,note_on,,,,,19,0,1,,,,,0,70,0
43588,note_on,,,,,5,0,1,,,,,0,70,100
43603,note_on,,,,,15,0,1,,,,,0,72,0
43612,note_on,,,,,9,0,1,,,,,0,69,100
43623,note_on,,,,,11,0,1,,,,,0,70,0
43636,note_on,,,,,13,0,1,,,,,0,70,100
43647,note_on,,,,,11,0,1,,,,,0,58,0
43651,note_on,,,,,4,0,1,,,,,0,69,0
43675,note_on,,,,,24,0,1,,,,,0,70,0
43680,note_on,,,,,0,0,1,,,,,0,48,100
43680,note_on,,,,,5,0,1,,,,,0,79,100
43682,set_tempo,,,,,600,1,0,,705882,,,,,
43740,note_on,,,,,60,0,1,,,,,0,79,0
43740,note_on,,,,,0,0,1,,,,,0,77,100
43752,set_tempo,,,,,70,1,0,,638298,,,,,
43800,note_on,,,,,60,0,1,,,,,0,77,0
43800,note_on,,,,,0,0,1,,,,,0,48,0
43800,note_on,,,,,0,0,1,,,,,0,76,100
43800,note_on,,,,,0,0,1,,,,,0,50,100
43860,note_on,,,,,60,0,1,,,,,0,76,0
43860,note_on,,,,,0,0,1,,,,,0,74,100
43920,note_on,,,,,60,0,1,,,,,0,74,0
43920,note_on,,,,,0,0,1,,,,,0,50,0
43920,note_on,,,,,0,0,1,,,,,0,72,100
43920,note_on,,,,,0,0,1,,,,,0,52,100
43980,note_on,,,,,0,0,1,,,,,0,70,100
43980,note_on,,,,,60,0,1,,,,,0,72,0
44007,note_on,,,,,27,0,1,,,,,0,52,0
44040,note_on,,,,,0,0,1,,,,,0,48,100
44040,note_on,,,,,0,0,1,,,,,0,68,100
44040,note_on,,,,,33,0,1,,,,,0,70,0
44100,note_on,,,,,0,0,1,,,,,0,67,100
44100,note_on,,,,,60,0,1,,,,,0,68,0
44127,note_on,,,,,27,0,1,,,,,0,48,0
44160,note_on,,,,,0,0,1,,,,,0,53,100
44160,note_on,,,,,0,0,1,,,,,0,68,100
44160,note_on,,,,,33,0,1,,,,,0,67,0
44160,set_tempo,,,,,408,1,0,,697674,,,,,
44220,note_on,,,,,0,0,1,,,,,0,68,0
44220,note_on,,,,,60,0,1,,,,,0,53,0
44220,note_on,,,,,0,0,1,,,,,0,56,100
44220,note_on,,,,,0,0,1,,,,,0,65,100
44222,set_tempo,,,,,62,1,0,,638298,,,,,
44280,note_on,,,,,0,0,1,,,,,0,55,100
44280,note_on,,,,,0,0,1,,,,,0,64,100
44280,note_on,,,,,0,0,1,,,,,0,65,0
44280,note_on,,,,,60,0,1,,,,,0,56,0
44340,note_on,,,,,0,0,1,,,,,0,56,100
44340,note_on,,,,,0,0,1,,,,,0,65,100
44340,note_on,,,,,0,0,1,,,,,0,64,0
44340,note_on,,,,,60,0,1,,,,,0,55,0
44400,note_on,,,,,60,0,1,,,,,0,56,0
44400,note_on,,,,,0,0,1,,,,,0,72,100
44400,set_tempo,,,,,178,1,0,,750000,,,,,
44400,note_on,,,,,0,0,1,,,,,0,65,0
44400,note_on,,,,,0,0,1,,,,,0,51,100
44460,note_on,,,,,0,0,1,,,,,0,60,100
44460,note_on,,,,,0,0,1,,,,,0,68,100
44460,note_on,,,,,0,0,1,,,,,0,72,0
44460,note_on,,,,,60,0,1,,,,,0,51,0
44462,set_tempo,,,,,62,1,0,,638298,,,,,
44520,note_on,,,,,0,0,1,,,,,0,67,100
44520,note_on,,,,,0,0,1,,,,,0,68,0
44520,note_on,,,,,60,0,1,,,,,0,60,0
44520,note_on,,,,,0,0,1,,,,,0,58,100
44580,note_on,,,,,0,0,1,,,,,0,60,100
44580,note_on,,,,,0,0,1,,,,,0,68,100
44580,note_on,,,,,0,0,1,,,,,0,67,0
44580,note_on,,,,,60,0,1,,,,,0,58,0
44640,set_tempo,,,,,178,1,0,,909091,,,,,
44640,note_on,,,,,0,0,1,,,,,0,49,100
44640,note_on,,,,,60,0,1,,,,,0,60,0
44640,note_on,,,,,0,0,1,,,,,0,68,0
44640,note_on,,,,,0,0,1,,,,,0,79,100
44656,note_on,,,,,16,0,1,,,,,0,77,100
44671,note_on,,,,,15,0,1,,,,,0,77,0
44675,note_on,,,,,4,0,1,,,,,0,79,0
44676,note_on,,,,,1,0,1,,,,,0,79,100
44688,note_on,,,,,12,0,1,,,,,0,77,100
44697,set_tempo,,,,,57,1,0,,740741,,,,,
44700,note_on,,,,,12,0,1,,,,,0,75,100
44711,note_on,,,,,11,0,1,,,,,0,79,0
44723,note_on,,,,,12,0,1,,,,,0,77,0
44727,note_on,,,,,4,0,1,,,,,0,49,0
44732,set_tempo,,,,,35,1,0,,638298,,,,,
44760,note_on,,,,,33,0,1,,,,,0,75,0
44760,note_on,,,,,0,0,1,,,,,0,73,100
44760,note_on,,,,,0,0,1,,,,,0,53,100
44820,note_on,,,,,60,0,1,,,,,0,73,0
44820,note_on,,,,,0,0,1,,,,,0,72,100
44839,note_on,,,,,19,0,1,,,,,0,53,0
44880,note_on,,,,,41,0,1,,,,,0,72,0
44880,note_on,,,,,0,0,1,,,,,0,70,100
44880,note_on,,,,,0,0,1,,,,,0,58,100
44940,note_on,,,,,0,0,1,,,,,0,68,100
44940,note_on,,,,,60,0,1,,,,,0,70,0
44959,note_on,,,,,19,0,1,,,,,0,58,0
45000,note_on,,,,,0,0,1,,,,,0,67,100
45000,note_on,,,,,0,0,1,,,,,0,61,100
45000,note_on,,,,,41,0,1,,,,,0,68,0
45060,note_on,,,,,60,0,1,,,,,0,67,0
45060,note_on,,,,,0,0,1,,,,,0,65,100
45071,note_on,,,,,11,0,1,,,,,0,61,0
45120,set_tempo,,,,,388,1,0,,689655,,,,,
45120,note_on,,,,,49,0,1,,,,,0,65,0
45120,note_on,,,,,0,0,1,,,,,0,67,100
45120,note_on,,,,,0,0,1,,,,,0,51,100
45180,set_tempo,,,,,60,1,0,,638298,,,,,
45180,note_on,,,,,0,0,1,,,,,0,55,100
45180,note_on,,,,,60,0,1,,,,,0,51,0
45180,note_on,,,,,0,0,1,,,,,0,67,0
45180,note_on,,,,,0,0,1,,,,,0,63,100
45240,note_on,,,,,0,0,1,,,,,0,53,100
45240,note_on,,,,,0,0,1,,,,,0,63,0
45240,note_on,,,,,0,0,1,,,,,0,62,100
45240,note_on,,,,,60,0,1,,,,,0,55,0
45300,note_on,,,,,0,0,1,,,,,0,55,100
45300,note_on,,,,,0,0,1,,,,,0,62,0
45300,note_on,,,,,0,0,1,,,,,0,63,100
45300,note_on,,,,,60,0,1,,,,,0,53,0
45360,set_tempo,,,,,180,1,0,,740741,,,,,
45360,note_on,,,,,0,0,1,,,,,0,49,100
45360,note_on,,,,,60,0,1,,,,,0,55,0
45360,note_on,,,,,0,0,1,,,,,0,70,100
45360,note_on,,,,,0,0,1,,,,,0,63,0
45415,set_tempo,,,,,55,1,0,,638298,,,,,
45420,note_on,,,,,60,0,1,,,,,0,49,0
45420,note_on,,,,,0,0,1,,,,,0,70,0
45420,note_on,,,,,0,0,1,,,,,0,67,100
45420,note_on,,,,,0,0,1,,,,,0,58,100
45480,note_on,,,,,0,0,1,,,,,0,56,100
45480,note_on,,,,,60,0,1,,,,,0,58,0
45480,note_on,,,,,0,0,1,,,,,0,67,0
45480,note_on,,,,,0,0,1,,,,,0,65,100
45540,note_on,,,,,60,0,1,,,,,0,56,0
45540,note_on,,,,,0,0,1,,,,,0,65,0
45540,note_on,,,,,0,0,1,,,,,0,67,100
45540,note_on,,,,,0,0,1,,,,,0,58,100
45597,set_tempo,,,,,182,1,0,,779221,,,,,
45600,note_on,,,,,0,0,1,,,,,0,67,0
45600,note_on,,,,,0,0,1,,,,,0,75,100
45600,note_on,,,,,60,0,1,,,,,0,58,0
45600,note_on,,,,,0,0,1,,,,,0,48,100
45620,note_on,,,,,20,0,1,,,,,0,73,100
45635,note_on,,,,,15,0,1,,,,,0,75,0
45636,note_on,,,,,1,0,1,,,,,0,75,100
45655,note_on,,,,,19,0,1,,,,,0,73,0
45660,note_on,,,,,5,0,1,,,,,0,73,100
45662,set_tempo,,,,,65,1,0,,638298,,,,,
45671,note_on,,,,,11,0,1,,,,,0,75,0
45679,note_on,,,,,8,0,1,,,,,0,48,0
45720,note_on,,,,,41,0,1,,,,,0,73,0
45720,note_on,,,,,0,0,1,,,,,0,72,100
45720,note_on,,,,,0,0,1,,,,,0,51,100
45780,note_on,,,,,60,0,1,,,,,0,72,0
45780,note_on,,,,,0,0,1,,,,,0,70,100
45807,note_on,,,,,27,0,1,,,,,0,51,0
45840,note_on,,,,,33,0,1,,,,,0,70,0
45840,note_on,,,,,0,0,1,,,,,0,68,100
45840,note_on,,,,,0,0,1,,,,,0,56,100
45900,note_on,,,,,60,0,1,,,,,0,68,0
45900,note_on,,,,,0,0,1,,,,,0,67,100
45927,note_on,,,,,27,0,1,,,,,0,56,0
45960,note_on,,,,,0,0,1,,,,,0,65,100
45960,note_on,,,,,33,0,1,,,,,0,67,0
45960,note_on,,,,,0,0,1,,,,,0,60,100
46020,note_on,,,,,60,0,1,,,,,0,65,0
46020,note_on,,,,,0,0,1,,,,,0,64,100
46047,note_on,,,,,27,0,1,,,,,0,60,0
46080,note_on,,,,,33,0,1,,,,,0,64,0
46080,note_on,,,,,0,0,1,,,,,0,65,100
46080,note_on,,,,,0,0,1,,,,,0,49,100
46140,note_on,,,,,60,0,1,,,,,0,49,0
46140,note_on,,,,,0,0,1,,,,,0,53,100
46167,note_on,,,,,27,0,1,,,,,0,65,0
46200,note_on,,,,,0,0,1,,,,,0,51,100
46200,note_on,,,,,33,0,1,,,,,0,53,0
46200,note_on,,,,,0,0,1,,,,,0,69,100
46260,note_on,,,,,60,0,1,,,,,0,51,0
46260,note_on,,,,,0,0,1,,,,,0,53,100
46320,note_on,,,,,60,0,1,,,,,0,53,0
46320,note_on,,,,,0,0,1,,,,,0,69,0
46320,note_on,,,,,0,0,1,,,,,0,70,100
46320,note_on,,,,,0,0,1,,,,,0,54,100
46336,note_on,,,,,16,0,1,,,,,0,69,100
46343,note_on,,,,,7,0,1,,,,,0,70,0
46356,note_on,,,,,13,0,1,,,,,0,70,100
46359,note_on,,,,,3,0,1,,,,,0,69,0
46380,note_on,,,,,21,0,1,,,,,0,54,0
46380,note_on,,,,,0,0,1,,,,,0,53,100
46440,note_on,,,,,60,0,1,,,,,0,53,0
46440,note_on,,,,,0,0,1,,,,,0,72,100
46440,note_on,,,,,0,0,1,,,,,0,51,100
46443,note_on,,,,,3,0,1,,,,,0,70,0
46500,note_on,,,,,57,0,1,,,,,0,51,0
46500,note_on,,,,,0,0,1,,,,,0,53,100
46560,note_on,,,,,0,0,1,,,,,0,46,100
46560,note_on,,,,,60,0,1,,,,,0,53,0
46560,note_on,,,,,0,0,1,,,,,0,72,0
46560,note_on,,,,,0,0,1,,,,,0,73,100
46620,note_on,,,,,60,0,1,,,,,0,46,0
46620,note_on,,,,,0,0,1,,,,,0,53,100
46680,note_on,,,,,60,0,1,,,,,0,53,0
46680,note_on,,,,,0,0,1,,,,,0,73,0
46680,note_on,,,,,0,0,1,,,,,0,76,100
46680,note_on,,,,,0,0,1,,,,,0,55,100
46740,note_on,,,,,60,0,1,,,,,0,55,0
46740,note_on,,,,,0,0,1,,,,,0,56,100
46800,note_on,,,,,0,0,1,,,,,0,55,100
46800,note_on,,,,,0,0,1,,,,,0,76,0
46800,note_on,,,,,60,0,1,,,,,0,56,0
46800,note_on,,,,,0,0,1,,,,,0,77,100
46860,note_on,,,,,60,0,1,,,,,0,55,0
46860,note_on,,,,,0,0,1,,,,,0,53,100
46907,set_tempo,,,,,1245,1,0,,666667,,,,,
46920,note_on,,,,,60,0,1,,,,,0,53,0
46920,note_on,,,,,0,0,1,,,,,0,77,0
46920,note_on,,,,,0,0,1,,,,,0,79,100
46920,note_on,,,,,0,0,1,,,,,0,52,100
46936,note_on,,,,,16,0,1,,,,,0,77,100
46939,note_on,,,,,3,0,1,,,,,0,79,0
46955,note_on,,,,,16,0,1,,,,,0,77,0
46956,note_on,,,,,1,0,1,,,,,0,79,100
46970,set_tempo,,,,,63,1,0,,705882,,,,,
46972,note_on,,,,,16,0,1,,,,,0,77,100
46975,note_on,,,,,3,0,1,,,,,0,79,0
46980,note_on,,,,,5,0,1,,,,,0,52,0
46980,note_on,,,,,0,0,1,,,,,0,53,100
46991,note_on,,,,,11,0,1,,,,,0,77,0
46992,note_on,,,,,1,0,1,,,,,0,79,100
47040,note_on,,,,,48,0,1,,,,,0,53,0
47040,note_on,,,,,0,0,1,,,,,0,72,100
47040,note_on,,,,,0,0,1,,,,,0,44,100
47047,note_on,,,,,7,0,1,,,,,0,79,0
47065,set_tempo,,,,,95,1,0,,638298,,,,,
47100,note_on,,,,,53,0,1,,,,,0,72,0
47100,note_on,,,,,0,0,1,,,,,0,76,100
47119,note_on,,,,,19,0,1,,,,,0,44,0
47160,note_on,,,,,0,0,1,,,,,0,41,100
47160,note_on,,,,,0,0,1,,,,,0,77,100
47160,note_on,,,,,41,0,1,,,,,0,76,0
47184,note_on,,,,,24,0,1,,,,,0,79,100
47203,note_on,,,,,19,0,1,,,,,0,77,0
47220,note_on,,,,,17,0,1,,,,,0,80,100
47227,note_on,,,,,7,0,1,,,,,0,79,0
47231,note_on,,,,,4,0,1,,,,,0,41,0
47280,note_on,,,,,49,0,1,,,,,0,80,0
47280,note_on,,,,,0,0,1,,,,,0,70,100
47280,note_on,,,,,0,0,1,,,,,0,48,100
47340,note_on,,,,,60,0,1,,,,,0,70,0
47340,note_on,,,,,0,0,1,,,,,0,79,100
47351,note_on,,,,,11,0,1,,,,,0,48,0
47372,set_tempo,,,,,307,1,0,,666667,,,,,
47400,note_on,,,,,0,0,1,,,,,0,36,100
47400,note_on,,,,,0,0,1,,,,,0,79,100
47400,note_on,,,,,49,0,1,,,,,0,79,0
47415,note_on,,,,,15,0,1,,,,,0,79,0
47416,note_on,,,,,1,0,1,,,,,0,77,100
47431,note_on,,,,,15,0,1,,,,,0,77,0
47432,note_on,,,,,1,0,1,,,,,0,79,100
47437,set_tempo,,,,,65,1,0,,705882,,,,,
47444,note_on,,,,,12,0,1,,,,,0,77,100
47447,note_on,,,,,3,0,1,,,,,0,79,0
47459,note_on,,,,,12,0,1,,,,,0,77,0
47460,note_on,,,,,1,0,1,,,,,0,76,100
47471,note_on,,,,,11,0,1,,,,,0,36,0
47487,set_tempo,,,,,50,1,0,,740741,,,,,
47520,note_on,,,,,0,0,1,,,,,0,41,100
47520,note_on,,,,,49,0,1,,,,,0,76,0
47520,note_on,,,,,0,0,1,,,,,0,68,100
47535,set_tempo,,,,,48,1,0,,638298,,,,,
47552,note_on,,,,,32,0,1,,,,,0,70,100
47580,note_on,,,,,28,0,1,,,,,0,68,0
47580,note_on,,,,,0,0,1,,,,,0,72,100
47595,note_on,,,,,15,0,1,,,,,0,70,0
47599,note_on,,,,,4,0,1,,,,,0,41,0
47612,note_on,,,,,13,0,1,,,,,0,74,100
47623,note_on,,,,,11,0,1,,,,,0,72,0
47640,note_on,,,,,0,0,1,,,,,0,44,100
47640,note_on,,,,,17,0,1,,,,,0,76,100
47655,note_on,,,,,15,0,1,,,,,0,74,0
47700,note_on,,,,,45,0,1,,,,,0,76,0
47700,note_on,,,,,0,0,1,,,,,0,77,100
47760,note_on,,,,,60,0,1,,,,,0,77,0
47760,note_on,,,,,0,0,1,,,,,0,44,0
47760,note_on,,,,,0,0,1,,,,,0,67,100
47760,note_on,,,,,0,0,1,,,,,0,46,100
47820,note_on,,,,,60,0,1,,,,,0,67,0
47820,note_on,,,,,0,0,1,,,,,0,73,100
47857,set_tempo,,,,,322,1,0,,674157,,,,,
47880,note_on,,,,,60,0,1,,,,,0,73,0
47880,note_on,,,,,0,0,1,,,,,0,48,100
47880,note_on,,,,,0,0,1,,,,,0,46,0
47880,note_on,,,,,0,0,1,,,,,0,72,100
47890,set_tempo,,,,,33,1,0,,714286,,,,,
47892,set_tempo,,,,,2,1,0,,722892,,,,,
47896,note_on,,,,,16,0,1,,,,,0,73,100
47911,note_on,,,,,15,0,1,,,,,0,72,0
47916,note_on,,,,,5,0,1,,,,,0,72,100
47927,note_on,,,,,11,0,1,,,,,0,73,0
47927,set_tempo,,,,,35,1,0,,759494,,,,,
47940,note_on,,,,,13,0,1,,,,,0,70,100
47947,note_on,,,,,7,0,1,,,,,0,72,0
47956,note_on,,,,,9,0,1,,,,,0,72,100
47960,set_tempo,,,,,33,1,0,,800000,,,,,
47963,note_on,,,,,7,0,1,,,,,0,70,0
47967,note_on,,,,,4,0,1,,,,,0,48,0
47972,note_on,,,,,5,0,1,,,,,0,70,100
47979,note_on,,,,,7,0,1,,,,,0,72,0
47995,note_on,,,,,16,0,1,,,,,0,70,0
48000,note_on,,,,,5,0,1,,,,,0,68,100
48000,note_on,,,,,0,0,1,,,,,0,53,100
48022,set_tempo,,,,,62,1,0,,638298,,,,,
48060,note_on,,,,,60,0,1,,,,,0,68,0
48060,note_on,,,,,0,0,1,,,,,0,68,100
48071,note_on,,,,,11,0,1,,,,,0,68,0
48076,note_on,,,,,5,0,1,,,,,0,67,100
48087,note_on,,,,,11,0,1,,,,,0,67,0
48092,note_on,,,,,5,0,1,,,,,0,68,100
48103,note_on,,,,,11,0,1,,,,,0,68,0
48104,note_on,,,,,1,0,1,,,,,0,67,100
48115,note_on,,,,,11,0,1,,,,,0,67,0
48120,note_on,,,,,5,0,1,,,,,0,53,0
48120,note_on,,,,,0,0,1,,,,,0,55,100
48120,note_on,,,,,0,0,1,,,,,0,65,100
48180,note_on,,,,,0,0,1,,,,,0,64,100
48180,note_on,,,,,60,0,1,,,,,0,65,0
48240,note_on,,,,,0,0,1,,,,,0,56,100
48240,note_on,,,,,0,0,1,,,,,0,65,100
48240,note_on,,,,,0,0,1,,,,,0,55,0
48240,note_on,,,,,60,0,1,,,,,0,64,0
48300,note_on,,,,,0,0,1,,,,,0,68,100
48300,note_on,,,,,60,0,1,,,,,0,65,0
48327,note_on,,,,,27,0,1,,,,,0,56,0
48360,note_on,,,,,33,0,1,,,,,0,68,0
48360,note_on,,,,,0,0,1,,,,,0,53,100
48360,note_on,,,,,0,0,1,,,,,0,60,100
48420,note_on,,,,,60,0,1,,,,,0,60,0
48420,note_on,,,,,0,0,1,,,,,0,63,100
48431,note_on,,,,,11,0,1,,,,,0,53,0
48480,note_on,,,,,0,0,1,,,,,0,58,100
48480,note_on,,,,,0,0,1,,,,,0,62,100
48480,note_on,,,,,49,0,1,,,,,0,63,0
48540,note_on,,,,,0,0,1,,,,,0,68,100
48540,note_on,,,,,60,0,1,,,,,0,62,0
48559,note_on,,,,,19,0,1,,,,,0,58,0
48600,note_on,,,,,0,0,1,,,,,0,65,100
48600,note_on,,,,,41,0,1,,,,,0,68,0
48600,note_on,,,,,0,0,1,,,,,0,46,100
48660,note_on,,,,,60,0,1,,,,,0,65,0
48660,note_on,,,,,0,0,1,,,,,0,62,100
48687,note_on,,,,,27,0,1,,,,,0,46,0
48720,note_on,,,,,33,0,1,,,,,0,62,0
48720,note_on,,,,,0,0,1,,,,,0,58,100
48780,note_on,,,,,0,0,1,,,,,0,56,100
48780,note_on,,,,,60,0,1,,,,,0,58,0
48840,note_on,,,,,0,0,1,,,,,0,55,100
48840,note_on,,,,,60,0,1,,,,,0,56,0
48900,note_on,,,,,0,0,1,,,,,0,53,100
48900,note_on,,,,,60,0,1,,,,,0,55,0
48960,note_on,,,,,0,0,1,,,,,0,51,100
48960,note_on,,,,,0,0,1,,,,,0,67,100
48960,note_on,,,,,60,0,1,,,,,0,53,0
48975,note_on,,,,,15,0,1,,,,,0,67,0
48976,note_on,,,,,1,0,1,,,,,0,65,100
48991,note_on,,,,,15,0,1,,,,,0,65,0
48992,note_on,,,,,1,0,1,,,,,0,67,100
49007,note_on,,,,,15,0,1,,,,,0,67,0
49020,note_on,,,,,13,0,1,,,,,0,65,100
49080,note_on,,,,,60,0,1,,,,,0,65,0
49080,note_on,,,,,0,0,1,,,,,0,51,0
49080,note_on,,,,,0,0,1,,,,,0,63,100
49080,note_on,,,,,0,0,1,,,,,0,53,100
49140,note_on,,,,,60,0,1,,,,,0,63,0
49140,note_on,,,,,0,0,1,,,,,0,62,100
49200,note_on,,,,,0,0,1,,,,,0,55,100
49200,note_on,,,,,60,0,1,,,,,0,62,0
49200,note_on,,,,,0,0,1,,,,,0,63,100
49200,note_on,,,,,0,0,1,,,,,0,53,0
49260,note_on,,,,,60,0,1,,,,,0,63,0
49260,note_on,,,,,0,0,1,,,,,0,67,100
49279,note_on,,,,,19,0,1,,,,,0,55,0
49320,note_on,,,,,41,0,1,,,,,0,67,0
49320,note_on,,,,,0,0,1,,,,,0,59,100
49320,note_on,,,,,0,0,1,,,,,0,51,100
49380,note_on,,,,,0,0,1,,,,,0,62,100
49380,note_on,,,,,60,0,1,,,,,0,59,0
49399,note_on,,,,,19,0,1,,,,,0,51,0
49440,note_on,,,,,0,0,1,,,,,0,56,100
49440,note_on,,,,,41,0,1,,,,,0,62,0
49440,note_on,,,,,0,0,1,,,,,0,60,100
49500,note_on,,,,,60,0,1,,,,,0,60,0
49500,note_on,,,,,0,0,1,,,,,0,67,100
49511,note_on,,,,,11,0,1,,,,,0,56,0
49560,note_on,,,,,49,0,1,,,,,0,67,0
49560,note_on,,,,,0,0,1,,,,,0,63,100
49560,note_on,,,,,0,0,1,,,,,0,44,100
49620,note_on,,,,,60,0,1,,,,,0,63,0
49620,note_on,,,,,0,0,1,,,,,0,60,100
49631,note_on,,,,,11,0,1,,,,,0,44,0
49680,note_on,,,,,49,0,1,,,,,0,60,0
49680,note_on,,,,,0,0,1,,,,,0,56,100
49740,note_on,,,,,60,0,1,,,,,0,56,0
49740,note_on,,,,,0,0,1,,,,,0,55,100
49800,note_on,,,,,0,0,1,,,,,0,53,100
49800,note_on,,,,,60,0,1,,,,,0,55,0
49860,note_on,,,,,0,0,1,,,,,0,51,100
49860,note_on,,,,,60,0,1,,,,,0,53,0
49920,note_on,,,,,0,0,1,,,,,0,50,100
49920,note_on,,,,,0,0,1,,,,,0,65,100
49920,note_on,,,,,60,0,1,,,,,0,51,0
49980,note_on,,,,,0,0,1,,,,,0,63,100
49980,note_on,,,,,60,0,1,,,,,0,65,0
50040,note_on,,,,,0,0,1,,,,,0,51,100
50040,note_on,,,,,60,0,1,,,,,0,63,0
50040,note_on,,,,,0,0,1,,,,,0,50,0
50040,note_on,,,,,0,0,1,,,,,0,62,100
50100,note_on,,,,,60,0,1,,,,,0,62,0
50100,note_on,,,,,0,0,1,,,,,0,60,100
50160,note_on,,,,,0,0,1,,,,,0,53,100
50160,note_on,,,,,0,0,1,,,,,0,62,100
50160,note_on,,,,,0,0,1,,,,,0,51,0
50160,note_on,,,,,60,0,1,,,,,0,60,0
50192,note_on,,,,,32,0,1,,,,,0,63,100
50203,note_on,,,,,11,0,1,,,,,0,62,0
50220,note_on,,,,,17,0,1,,,,,0,65,100
50231,note_on,,,,,11,0,1,,,,,0,63,0
50247,note_on,,,,,16,0,1,,,,,0,53,0
50252,note_on,,,,,5,0,1,,,,,0,67,100
50259,note_on,,,,,7,0,1,,,,,0,65,0
50280,note_on,,,,,21,0,1,,,,,0,68,100
50280,note_on,,,,,0,0,1,,,,,0,50,100
50291,note_on,,,,,11,0,1,,,,,0,67,0
50296,note_on,,,,,5,0,1,,,,,0,67,100
50315,note_on,,,,,19,0,1,,,,,0,68,0
50316,note_on,,,,,1,0,1,,,,,0,68,100
50335,note_on,,,,,19,0,1,,,,,0,67,0
50340,note_on,,,,,5,0,1,,,,,0,60,100
50355,note_on,,,,,15,0,1,,,,,0,68,0
50359,note_on,,,,,4,0,1,,,,,0,50,0
50400,note_on,,,,,0,0,1,,,,,0,55,100
50400,note_on,,,,,0,0,1,,,,,0,59,100
50400,note_on,,,,,41,0,1,,,,,0,60,0
50460,note_on,,,,,60,0,1,,,,,0,59,0
50460,note_on,,,,,0,0,1,,,,,0,65,100
50471,note_on,,,,,11,0,1,,,,,0,55,0
50520,note_on,,,,,0,0,1,,,,,0,62,100
50520,note_on,,,,,0,0,1,,,,,0,43,100
50520,note_on,,,,,49,0,1,,,,,0,65,0
50580,note_on,,,,,60,0,1,,,,,0,62,0
50580,note_on,,,,,0,0,1,,,,,0,59,100
50591,note_on,,,,,11,0,1,,,,,0,43,0
50640,note_on,,,,,49,0,1,,,,,0,59,0
50640,note_on,,,,,0,0,1,,,,,0,55,100
50700,note_on,,,,,60,0,1,,,,,0,55,0
50700,note_on,,,,,0,0,1,,,,,0,59,100
50700,note_on,,,,,0,0,1,,,,,0,53,100
50760,note_on,,,,,0,0,1,,,,,0,51,100
50760,note_on,,,,,60,0,1,,,,,0,53,0
50760,note_on,,,,,0,0,1,,,,,0,59,0
50760,note_on,,,,,0,0,1,,,,,0,60,100
50820,note_on,,,,,0,0,1,,,,,0,60,0
50820,note_on,,,,,0,0,1,,,,,0,50,100
50820,note_on,,,,,0,0,1,,,,,0,62,100
50820,note_on,,,,,60,0,1,,,,,0,51,0
50880,note_on,,,,,60,0,1,,,,,0,62,0
50880,note_on,,,,,0,0,1,,,,,0,50,0
50880,note_on,,,,,0,0,1,,,,,0,63,100
50880,note_on,,,,,0,0,1,,,,,0,48,100
50940,note_on,,,,,60,0,1,,,,,0,48,0
50940,note_on,,,,,0,0,1,,,,,0,50,100
51000,note_on,,,,,0,0,1,,,,,0,51,100
51000,note_on,,,,,0,0,1,,,,,0,67,100
51000,note_on,,,,,60,0,1,,,,,0,50,0
51060,note_on,,,,,0,0,1,,,,,0,48,100
51060,note_on,,,,,60,0,1,,,,,0,51,0
51063,note_on,,,,,3,0,1,,,,,0,67,0
51105,set_tempo,,,,,3083,1,0,,674157,,,,,
51117,set_tempo,,,,,12,1,0,,769231,,,,,
51120,note_on,,,,,0,0,1,,,,,0,44,100
51120,note_on,,,,,0,0,1,,,,,0,72,100
51120,note_on,,,,,57,0,1,,,,,0,48,0
51140,note_on,,,,,20,0,1,,,,,0,71,100
51160,set_tempo,,,,,43,1,0,,638298,,,,,
51163,note_on,,,,,23,0,1,,,,,0,72,0
51164,note_on,,,,,1,0,1,,,,,0,72,100
51180,note_on,,,,,16,0,1,,,,,0,63,0
51180,note_on,,,,,0,0,1,,,,,0,44,0
51180,note_on,,,,,0,0,1,,,,,0,70,100
51180,note_on,,,,,0,0,1,,,,,0,55,100
51183,note_on,,,,,3,0,1,,,,,0,71,0
51240,note_on,,,,,57,0,1,,,,,0,55,0
51240,note_on,,,,,0,0,1,,,,,0,70,0
51240,note_on,,,,,0,0,1,,,,,0,68,100
51240,note_on,,,,,0,0,1,,,,,0,53,100
51300,note_on,,,,,60,0,1,,,,,0,53,0
51300,note_on,,,,,0,0,1,,,,,0,51,100
51300,note_on,,,,,0,0,1,,,,,0,67,100
51300,note_on,,,,,0,0,1,,,,,0,68,0
51360,note_on,,,,,0,0,1,,,,,0,65,100
51360,note_on,,,,,60,0,1,,,,,0,51,0
51360,note_on,,,,,0,0,1,,,,,0,67,0
51360,note_on,,,,,0,0,1,,,,,0,50,100
51420,note_on,,,,,0,0,1,,,,,0,51,100
51420,note_on,,,,,0,0,1,,,,,0,67,100
51420,note_on,,,,,0,0,1,,,,,0,65,0
51420,note_on,,,,,60,0,1,,,,,0,50,0
51480,note_on,,,,,0,0,1,,,,,0,53,100
51480,note_on,,,,,0,0,1,,,,,0,68,100
51480,note_on,,,,,0,0,1,,,,,0,67,0
51480,note_on,,,,,60,0,1,,,,,0,51,0
51540,note_on,,,,,0,0,1,,,,,0,65,100
51540,note_on,,,,,60,0,1,,,,,0,53,0
51540,note_on,,,,,0,0,1,,,,,0,68,0
51540,note_on,,,,,0,0,1,,,,,0,50,100
51600,note_on,,,,,60,0,1,,,,,0,50,0
51600,note_on,,,,,0,0,1,,,,,0,65,0
51600,note_on,,,,,0,0,1,,,,,0,62,100
51600,note_on,,,,,0,0,1,,,,,0,46,100
51655,note_on,,,,,55,0,1,,,,,0,72,0
51660,note_on,,,,,5,0,1,,,,,0,46,0
51660,note_on,,,,,0,0,1,,,,,0,72,100
51660,note_on,,,,,0,0,1,,,,,0,56,100
51720,note_on,,,,,60,0,1,,,,,0,56,0
51720,note_on,,,,,0,0,1,,,,,0,72,0
51720,note_on,,,,,0,0,1,,,,,0,72,100
51720,note_on,,,,,0,0,1,,,,,0,55,100
51732,set_tempo,,,,,572,1,0,,674157,,,,,
51736,note_on,,,,,16,0,1,,,,,0,70,100
51743,note_on,,,,,7,0,1,,,,,0,72,0
51752,note_on,,,,,9,0,1,,,,,0,72,100
51759,note_on,,,,,7,0,1,,,,,0,70,0
51764,note_on,,,,,5,0,1,,,,,0,70,100
51775,note_on,,,,,11,0,1,,,,,0,72,0
51780,note_on,,,,,5,0,1,,,,,0,55,0
51780,note_on,,,,,0,0,1,,,,,0,68,100
51780,note_on,,,,,0,0,1,,,,,0,53,100
51787,note_on,,,,,7,0,1,,,,,0,70,0
51787,set_tempo,,,,,55,1,0,,705882,,,,,
51840,note_on,,,,,0,0,1,,,,,0,68,0
51840,note_on,,,,,0,0,1,,,,,0,53,0
51840,note_on,,,,,0,0,1,,,,,0,67,100
51840,note_on,,,,,0,0,1,,,,,0,51,100
51840,note_on,,,,,53,0,1,,,,,0,62,0
51855,set_tempo,,,,,68,1,0,,638298,,,,,
51900,note_on,,,,,60,0,1,,,,,0,67,0
51900,note_on,,,,,0,0,1,,,,,0,68,100
51960,note_on,,,,,60,0,1,,,,,0,68,0
51960,note_on,,,,,0,0,1,,,,,0,51,0
51960,note_on,,,,,0,0,1,,,,,0,70,100
51960,note_on,,,,,0,0,1,,,,,0,50,100
52020,note_on,,,,,60,0,1,,,,,0,70,0
52020,note_on,,,,,0,0,1,,,,,0,67,100
52080,note_on,,,,,0,0,1,,,,,0,51,100
52080,note_on,,,,,0,0,1,,,,,0,60,100
52080,note_on,,,,,0,0,1,,,,,0,50,0
52080,note_on,,,,,60,0,1,,,,,0,67,0
52140,note_on,,,,,60,0,1,,,,,0,60,0
52140,note_on,,,,,0,0,1,,,,,0,73,100
52180,set_tempo,,,,,325,1,0,,674157,,,,,
52200,note_on,,,,,0,0,1,,,,,0,52,100
52200,note_on,,,,,60,0,1,,,,,0,73,0
52200,note_on,,,,,0,0,1,,,,,0,51,0
52200,note_on,,,,,0,0,1,,,,,0,72,100
52216,note_on,,,,,16,0,1,,,,,0,73,100
52227,set_tempo,,,,,47,1,0,,714286,,,,,
52235,note_on,,,,,19,0,1,,,,,0,72,0
52236,note_on,,,,,1,0,1,,,,,0,72,100
52251,note_on,,,,,15,0,1,,,,,0,73,0
52260,note_on,,,,,9,0,1,,,,,0,70,100
52271,note_on,,,,,11,0,1,,,,,0,72,0
52272,note_on,,,,,1,0,1,,,,,0,72,100
52275,set_tempo,,,,,48,1,0,,750000,,,,,
52295,note_on,,,,,23,0,1,,,,,0,70,0
52296,note_on,,,,,1,0,1,,,,,0,70,100
52307,note_on,,,,,11,0,1,,,,,0,72,0
52320,note_on,,,,,0,0,1,,,,,0,68,100
52320,note_on,,,,,0,0,1,,,,,0,53,100
52320,note_on,,,,,13,0,1,,,,,0,52,0
52331,note_on,,,,,11,0,1,,,,,0,70,0
52332,set_tempo,,,,,57,1,0,,638298,,,,,
52380,note_on,,,,,49,0,1,,,,,0,68,0
52380,note_on,,,,,0,0,1,,,,,0,70,100
52440,note_on,,,,,60,0,1,,,,,0,70,0
52440,note_on,,,,,0,0,1,,,,,0,53,0
52440,note_on,,,,,0,0,1,,,,,0,72,100
52440,note_on,,,,,0,0,1,,,,,0,52,100
52500,note_on,,,,,60,0,1,,,,,0,72,0
52500,note_on,,,,,0,0,1,,,,,0,68,100
52560,note_on,,,,,60,0,1,,,,,0,68,0
52560,note_on,,,,,0,0,1,,,,,0,62,100
52560,note_on,,,,,0,0,1,,,,,0,53,100
52560,note_on,,,,,0,0,1,,,,,0,52,0
52562,set_tempo,,,,,230,1,0,,821918,,,,,
52602,set_tempo,,,,,40,1,0,,638298,,,,,
52620,note_on,,,,,60,0,1,,,,,0,62,0
52620,note_on,,,,,0,0,1,,,,,0,75,100
52675,set_tempo,,,,,73,1,0,,731707,,,,,
52680,note_on,,,,,0,0,1,,,,,0,75,100
52680,note_on,,,,,60,0,1,,,,,0,75,0
52680,note_on,,,,,0,0,1,,,,,0,54,100
52680,note_on,,,,,0,0,1,,,,,0,53,0
52696,note_on,,,,,16,0,1,,,,,0,74,100
52715,note_on,,,,,19,0,1,,,,,0,75,0
52716,note_on,,,,,1,0,1,,,,,0,75,100
52728,note_on,,,,,12,0,1,,,,,0,74,100
52731,note_on,,,,,3,0,1,,,,,0,74,0
52740,note_on,,,,,9,0,1,,,,,0,72,100
52750,set_tempo,,,,,75,1,0,,631579,,,,,
52751,note_on,,,,,11,0,1,,,,,0,75,0
52763,note_on,,,,,12,0,1,,,,,0,74,0
52783,set_tempo,,,,,33,1,0,,645161,,,,,
52800,note_on,,,,,37,0,1,,,,,0,54,0
52800,note_on,,,,,0,0,1,,,,,0,72,0
52800,note_on,,,,,0,0,1,,,,,0,71,100
52800,note_on,,,,,0,0,1,,,,,0,55,100
52806,set_tempo,,,,,23,1,0,,652174,,,,,
52826,set_tempo,,,,,20,1,0,,659341,,,,,
52846,set_tempo,,,,,20,1,0,,666667,,,,,
52860,note_on,,,,,60,0,1,,,,,0,55,0
52860,note_on,,,,,0,0,1,,,,,0,71,0
52860,note_on,,,,,0,0,1,,,,,0,67,100
52860,note_on,,,,,0,0,1,,,,,0,53,100
52866,set_tempo,,,,,20,1,0,,674157,,,,,
52886,set_tempo,,,,,20,1,0,,681818,,,,,
52910,set_tempo,,,,,24,1,0,,689655,,,,,
52920,note_on,,,,,0,0,1,,,,,0,51,100
52920,note_on,,,,,0,0,1,,,,,0,72,100
52920,note_on,,,,,60,0,1,,,,,0,53,0
52920,note_on,,,,,0,0,1,,,,,0,67,0
52930,set_tempo,,,,,20,1,0,,697674,,,,,
52950,set_tempo,,,,,20,1,0,,705882,,,,,
52970,set_tempo,,,,,20,1,0,,714286,,,,,
52980,note_on,,,,,0,0,1,,,,,0,74,100
52980,note_on,,,,,0,0,1,,,,,0,53,100
52980,note_on,,,,,60,0,1,,,,,0,51,0
52990,set_tempo,,,,,20,1,0,,722892,,,,,
53013,set_tempo,,,,,23,1,0,,731707,,,,,
53033,set_tempo,,,,,20,1,0,,740741,,,,,
53040,note_on,,,,,0,0,1,,,,,0,55,100
53040,note_on,,,,,0,0,1,,,,,0,75,100
53040,note_on,,,,,0,0,1,,,,,0,72,0
53040,note_on,,,,,0,0,1,,,,,0,74,0
53040,note_on,,,,,60,0,1,,,,,0,53,0
53052,note_on,,,,,12,0,1,,,,,0,72,100
53053,set_tempo,,,,,20,1,0,,750000,,,,,
53073,set_tempo,,,,,20,1,0,,759494,,,,,
53093,set_tempo,,,,,20,1,0,,769231,,,,,
53100,note_on,,,,,48,0,1,,,,,0,67,100
53111,note_on,,,,,11,0,1,,,,,0,55,0
53116,set_tempo,,,,,23,1,0,,779221,,,,,
53136,set_tempo,,,,,20,1,0,,789474,,,,,
53156,set_tempo,,,,,20,1,0,,800000,,,,,
53160,note_on,,,,,0,0,1,,,,,0,43,100
53160,note_on,,,,,0,0,1,,,,,0,74,100
53160,note_on,,,,,49,0,1,,,,,0,75,0
53163,note_on,,,,,3,0,1,,,,,0,72,0
53176,set_tempo,,,,,20,1,0,,810811,,,,,
53176,note_on,,,,,13,0,1,,,,,0,71,100
53196,set_tempo,,,,,20,1,0,,821918,,,,,
53216,set_tempo,,,,,20,1,0,,833333,,,,,
53220,note_on,,,,,44,0,1,,,,,0,67,0
53220,note_on,,,,,0,0,1,,,,,0,65,100
53223,set_tempo,,,,,7,1,0,,821918,,,,,
53230,set_tempo,,,,,7,1,0,,833333,,,,,
53236,set_tempo,,,,,6,1,0,,845070,,,,,
53239,note_on,,,,,19,0,1,,,,,0,43,0
53243,set_tempo,,,,,7,1,0,,857143,,,,,
53246,set_tempo,,,,,3,1,0,,869565,,,,,
53253,set_tempo,,,,,7,1,0,,882353,,,,,
53256,set_tempo,,,,,3,1,0,,882353,,,,,
53266,set_tempo,,,,,10,1,0,,895522,,,,,
53273,set_tempo,,,,,7,1,0,,909091,,,,,
53280,note_on,,,,,0,0,1,,,,,0,72,100
53280,note_on,,,,,0,0,1,,,,,0,74,0
53280,note_on,,,,,41,0,1,,,,,0,65,0
53280,note_on,,,,,0,0,1,,,,,0,36,100
53283,note_on,,,,,3,0,1,,,,,0,71,0
53283,set_tempo,,,,,10,1,0,,923077,,,,,
53290,set_tempo,,,,,7,1,0,,937500,,,,,
53296,note_on,,,,,13,0,1,,,,,0,67,100
53300,set_tempo,,,,,10,1,0,,952381,,,,,
53306,set_tempo,,,,,6,1,0,,967742,,,,,
53312,note_on,,,,,16,0,1,,,,,0,63,100
53316,set_tempo,,,,,10,1,0,,983607,,,,,
53323,set_tempo,,,,,7,1,0,,1000000,,,,,
53333,set_tempo,,,,,10,1,0,,1016949,,,,,
53340,note_on,,,,,28,0,1,,,,,0,36,0
53340,note_on,,,,,0,0,1,,,,,0,48,100
53340,set_tempo,,,,,7,1,0,,1034483,,,,,
53350,set_tempo,,,,,10,1,0,,1052632,,,,,
53356,set_tempo,,,,,6,1,0,,1071429,,,,,
53366,set_tempo,,,,,10,1,0,,1090909,,,,,
53373,set_tempo,,,,,7,1,0,,1111111,,,,,
53383,set_tempo,,,,,10,1,0,,1132075,,,,,
53390,set_tempo,,,,,7,1,0,,1153846,,,,,
53400,note_on,,,,,0,0,1,,,,,0,51,100
53400,note_on,,,,,60,0,1,,,,,0,48,0
53400,set_tempo,,,,,10,1,0,,1176471,,,,,
53406,set_tempo,,,,,6,1,0,,1200000,,,,,
53416,set_tempo,,,,,10,1,0,,1224490,,,,,
53423,set_tempo,,,,,7,1,0,,1250000,,,,,
53433,set_tempo,,,,,10,1,0,,1276596,,,,,
53440,set_tempo,,,,,7,1,0,,1304348,,,,,
53450,set_tempo,,,,,10,1,0,,1333333,,,,,
53456,set_tempo,,,,,6,1,0,,1363636,,,,,
53460,note_on,,,,,60,0,1,,,,,0,51,0
53460,note_on,,,,,0,0,1,,,,,0,55,100
53466,set_tempo,,,,,10,1,0,,1395349,,,,,
53473,set_tempo,,,,,7,1,0,,1428571,,,,,
53483,end_of_track,,,,,0,1,0,,,,,,,
53483,set_tempo,,,,,10,1,0,,1463415,,,,,
53520,note_on,,,,,60,0,1,,,,,0,55,0
53520,note_on,,,,,0,0,1,,,,,0,60,100
53759,note_on,,,,,239,0,1,,,,,0,67,0
53760,note_on,,,,,1,0,1,,,,,0,72,0
53760,note_on,,,,,0,0,1,,,,,0,60,0
53767,end_of_track,,,,,0,1,1,,,,,,,
53767,note_on,,,,,7,0,1,,,,,0,63,0
