tick,type,time,meta,track,numerator,denominator,clocks_per_click,notated_32nd_notes_per_beat,key,tempo,program,channel,note,velocity
0,track_name,0,1,0,,,,,,,,,,
0,note_on,0,0,1,,,,,,,,0,52,64
0,program_change,0,0,1,,,,,,,0,0,,
0,track_name,0,1,1,,,,,,,,,,
0,end_of_track,0,1,2,,,,,,,,,,
0,marker,0,1,0,,,,,,,,,,
0,set_tempo,0,1,0,,,,,,750000,,,,
0,key_signature,0,1,0,,,,,E,,,,,
0,time_signature,0,1,0,3,4,24,8,,,,,,
120,note_on,120,0,1,,,,,,,,0,71,64
240,note_on,120,0,1,,,,,,,,0,71,0
240,note_on,0,0,1,,,,,,,,0,73,64
360,note_on,120,0,1,,,,,,,,0,68,64
480,note_on,0,0,1,,,,,,,,0,69,64
480,note_on,120,0,1,,,,,,,,0,68,0
540,note_on,60,0,1,,,,,,,,0,73,0
540,note_on,0,0,1,,,,,,,,0,73,64
600,note_on,0,0,1,,,,,,,,0,71,64
600,note_on,60,0,1,,,,,,,,0,73,0
660,note_on,0,0,1,,,,,,,,0,69,64
660,note_on,60,0,1,,,,,,,,0,71,0
720,note_on,60,0,1,,,,,,,,0,69,0
720,note_on,0,0,1,,,,,,,,0,71,64
780,note_on,60,0,1,,,,,,,,0,69,0
780,note_on,0,0,1,,,,,,,,0,69,64
840,note_on,0,0,1,,,,,,,,0,68,64
840,note_on,60,0,1,,,,,,,,0,69,0
900,note_on,0,0,1,,,,,,,,0,66,64
900,note_on,60,0,1,,,,,,,,0,68,0
960,note_on,0,0,1,,,,,,,,0,68,64
960,note_on,60,0,1,,,,,,,,0,66,0
1020,note_on,0,0,1,,,,,,,,0,71,64
1020,note_on,60,0,1,,,,,,,,0,71,0
1080,note_on,0,0,1,,,,,,,,0,76,64
1080,note_on,60,0,1,,,,,,,,0,71,0
1080,note_on,0,0,1,,,,,,,,0,68,0
1140,note_on,0,0,1,,,,,,,,0,75,64
1140,note_on,60,0,1,,,,,,,,0,76,0
1200,note_on,60,0,1,,,,,,,,0,75,0
1200,note_on,0,0,1,,,,,,,,0,73,64
1260,note_on,60,0,1,,,,,,,,0,73,0
1260,note_on,0,0,1,,,,,,,,0,71,64
1320,note_on,60,0,1,,,,,,,,0,71,0
1320,note_on,0,0,1,,,,,,,,0,69,64
1380,note_on,0,0,1,,,,,,,,0,68,64
1380,note_on,60,0,1,,,,,,,,0,69,0
1440,note_on,60,0,1,,,,,,,,0,68,0
1440,note_on,0,0,1,,,,,,,,0,69,64
1500,note_on,60,0,1,,,,,,,,0,68,64
1560,note_on,0,0,1,,,,,,,,0,66,64
1560,note_on,60,0,1,,,,,,,,0,68,0
1620,note_on,0,0,1,,,,,,,,0,64,64
1620,note_on,60,0,1,,,,,,,,0,66,0
1680,note_on,0,0,1,,,,,,,,0,66,64
1680,note_on,60,0,1,,,,,,,,0,64,0
1740,note_on,0,0,1,,,,,,,,0,52,64
1740,note_on,60,0,1,,,,,,,,0,52,0
1800,note_on,0,0,1,,,,,,,,0,51,64
1800,note_on,60,0,1,,,,,,,,0,52,0
1860,note_on,60,0,1,,,,,,,,0,51,0
1860,note_on,0,0,1,,,,,,,,0,49,64
1920,note_on,0,0,1,,,,,,,,0,51,64
1920,note_on,60,0,1,,,,,,,,0,49,0
1980,note_on,60,0,1,,,,,,,,0,51,0
1980,note_on,0,0,1,,,,,,,,0,54,64
2040,note_on,60,0,1,,,,,,,,0,54,0
2040,note_on,0,0,1,,,,,,,,0,47,64
2100,note_on,60,0,1,,,,,,,,0,47,0
2100,note_on,0,0,1,,,,,,,,0,51,64
2160,note_on,0,0,1,,,,,,,,0,52,64
2160,note_on,60,0,1,,,,,,,,0,51,0
2220,note_on,60,0,1,,,,,,,,0,69,0
2220,note_on,0,0,1,,,,,,,,0,69,64
2280,note_on,0,0,1,,,,,,,,0,40,64
2280,note_on,0,0,1,,,,,,,,0,68,64
2280,note_on,0,0,1,,,,,,,,0,52,0
2280,note_on,60,0,1,,,,,,,,0,69,0
2340,note_on,0,0,1,,,,,,,,0,66,64
2340,note_on,60,0,1,,,,,,,,0,68,0
2400,note_on,60,0,1,,,,,,,,0,40,0
2400,note_on,0,0,1,,,,,,,,0,68,64
2400,note_on,0,0,1,,,,,,,,0,52,64
2400,note_on,0,0,1,,,,,,,,0,66,0
2460,note_on,60,0,1,,,,,,,,0,66,0
2460,note_on,0,0,1,,,,,,,,0,66,64
2520,note_on,0,0,1,,,,,,,,0,54,64
2520,note_on,0,0,1,,,,,,,,0,64,64
2520,note_on,0,0,1,,,,,,,,0,52,0
2520,note_on,60,0,1,,,,,,,,0,66,0
2580,note_on,0,0,1,,,,,,,,0,63,64
2580,note_on,60,0,1,,,,,,,,0,64,0
2640,note_on,60,0,1,,,,,,,,0,63,0
2640,note_on,0,0,1,,,,,,,,0,56,64
2640,note_on,0,0,1,,,,,,,,0,54,0
2640,note_on,0,0,1,,,,,,,,0,64,64
2700,note_on,0,0,1,,,,,,,,0,68,64
2700,note_on,60,0,1,,,,,,,,0,68,0
2760,note_on,60,0,1,,,,,,,,0,68,0
2760,note_on,0,0,1,,,,,,,,0,64,0
2760,note_on,0,0,1,,,,,,,,0,57,64
2760,note_on,0,0,1,,,,,,,,0,66,64
2760,note_on,0,0,1,,,,,,,,0,56,0
2820,note_on,0,0,1,,,,,,,,0,64,64
2820,note_on,60,0,1,,,,,,,,0,66,0
2880,note_on,60,0,1,,,,,,,,0,64,0
2880,note_on,0,0,1,,,,,,,,0,57,0
2880,note_on,0,0,1,,,,,,,,0,59,64
2880,note_on,0,0,1,,,,,,,,0,63,64
3000,note_on,120,0,1,,,,,,,,0,63,0
3000,note_on,0,0,1,,,,,,,,0,66,64
3120,note_on,120,0,1,,,,,,,,0,66,0
3120,note_on,0,0,1,,,,,,,,0,68,64
3240,note_on,120,0,1,,,,,,,,0,75,64
3360,note_on,120,0,1,,,,,,,,0,75,0
3360,note_on,0,0,1,,,,,,,,0,76,64
3420,note_on,60,0,1,,,,,,,,0,68,0
3420,note_on,0,0,1,,,,,,,,0,68,64
3480,note_on,0,0,1,,,,,,,,0,66,64
3480,note_on,60,0,1,,,,,,,,0,68,0
3540,note_on,60,0,1,,,,,,,,0,66,0
3540,note_on,0,0,1,,,,,,,,0,64,64
3600,note_on,0,0,1,,,,,,,,0,66,64
3600,note_on,60,0,1,,,,,,,,0,64,0
3660,note_on,0,0,1,,,,,,,,0,76,64
3660,note_on,60,0,1,,,,,,,,0,76,0
3720,note_on,60,0,1,,,,,,,,0,76,0
3720,note_on,0,0,1,,,,,,,,0,75,64
3780,note_on,0,0,1,,,,,,,,0,73,64
3780,note_on,60,0,1,,,,,,,,0,75,0
3840,note_on,60,0,1,,,,,,,,0,73,0
3840,note_on,0,0,1,,,,,,,,0,75,64
3900,note_on,0,0,1,,,,,,,,0,66,64
3900,note_on,60,0,1,,,,,,,,0,66,0
3960,note_on,0,0,1,,,,,,,,0,71,64
3960,note_on,0,0,1,,,,,,,,0,75,0
3960,note_on,60,0,1,,,,,,,,0,66,0
4020,note_on,0,0,1,,,,,,,,0,69,64
4020,note_on,60,0,1,,,,,,,,0,71,0
4080,note_on,60,0,1,,,,,,,,0,69,0
4080,note_on,0,0,1,,,,,,,,0,68,64
4140,note_on,0,0,1,,,,,,,,0,66,64
4140,note_on,60,0,1,,,,,,,,0,68,0
4200,note_on,0,0,1,,,,,,,,0,64,64
4200,note_on,60,0,1,,,,,,,,0,66,0
4260,note_on,60,0,1,,,,,,,,0,64,0
4260,note_on,0,0,1,,,,,,,,0,63,64
4320,note_on,60,0,1,,,,,,,,0,63,0
4320,note_on,0,0,1,,,,,,,,0,64,64
4380,note_on,60,0,1,,,,,,,,0,75,64
4440,note_on,60,0,1,,,,,,,,0,75,0
4440,note_on,0,0,1,,,,,,,,0,73,64
4500,note_on,60,0,1,,,,,,,,0,73,0
4500,note_on,0,0,1,,,,,,,,0,71,64
4560,note_on,60,0,1,,,,,,,,0,71,0
4560,note_on,0,0,1,,,,,,,,0,73,64
4620,note_on,60,0,1,,,,,,,,0,59,0
4620,note_on,0,0,1,,,,,,,,0,59,64
4680,note_on,60,0,1,,,,,,,,0,59,0
4680,note_on,0,0,1,,,,,,,,0,58,64
4740,note_on,0,0,1,,,,,,,,0,56,64
4740,note_on,60,0,1,,,,,,,,0,58,0
4800,note_on,0,0,1,,,,,,,,0,58,64
4800,note_on,60,0,1,,,,,,,,0,56,0
4860,note_on,0,0,1,,,,,,,,0,61,64
4860,note_on,60,0,1,,,,,,,,0,58,0
4920,note_on,0,0,1,,,,,,,,0,54,64
4920,note_on,60,0,1,,,,,,,,0,61,0
4980,note_on,60,0,1,,,,,,,,0,54,0
4980,note_on,0,0,1,,,,,,,,0,58,64
5040,note_on,0,0,1,,,,,,,,0,59,64
5040,note_on,60,0,1,,,,,,,,0,58,0
5100,note_on,60,0,1,,,,,,,,0,64,0
5100,note_on,0,0,1,,,,,,,,0,64,64
5160,note_on,0,0,1,,,,,,,,0,63,64
5160,note_on,60,0,1,,,,,,,,0,64,0
5220,note_on,60,0,1,,,,,,,,0,63,0
5220,note_on,0,0,1,,,,,,,,0,61,64
5280,note_on,60,0,1,,,,,,,,0,61,0
5280,note_on,0,0,1,,,,,,,,0,63,64
5340,note_on,60,0,1,,,,,,,,0,73,0
5340,note_on,0,0,1,,,,,,,,0,73,64
5400,note_on,0,0,1,,,,,,,,0,71,64
5400,note_on,60,0,1,,,,,,,,0,73,0
5460,note_on,0,0,1,,,,,,,,0,70,64
5460,note_on,60,0,1,,,,,,,,0,71,0
5520,note_on,0,0,1,,,,,,,,0,71,64
5520,note_on,60,0,1,,,,,,,,0,70,0
5580,note_on,0,0,1,,,,,,,,0,61,64
5580,note_on,60,0,1,,,,,,,,0,59,0
5640,note_on,0,0,1,,,,,,,,0,59,64
5640,note_on,60,0,1,,,,,,,,0,61,0
5700,note_on,60,0,1,,,,,,,,0,59,0
5700,note_on,0,0,1,,,,,,,,0,57,64
5760,note_on,0,0,1,,,,,,,,0,56,64
5760,note_on,0,0,1,,,,,,,,0,63,0
5760,note_on,60,0,1,,,,,,,,0,57,0
5820,note_on,0,0,1,,,,,,,,0,69,64
5820,note_on,60,0,1,,,,,,,,0,71,0
5880,note_on,0,0,1,,,,,,,,0,68,64
5880,note_on,0,0,1,,,,,,,,0,57,64
5880,note_on,60,0,1,,,,,,,,0,69,0
5940,note_on,60,0,1,,,,,,,,0,68,0
5940,note_on,0,0,1,,,,,,,,0,66,64
6000,note_on,0,0,1,,,,,,,,0,59,64
6000,note_on,0,0,1,,,,,,,,0,65,64
6000,note_on,0,0,1,,,,,,,,0,57,0
6000,note_on,60,0,1,,,,,,,,0,66,0
6060,note_on,60,0,1,,,,,,,,0,65,0
6060,note_on,0,0,1,,,,,,,,0,68,64
6120,note_on,0,0,1,,,,,,,,0,62,64
6120,note_on,0,0,1,,,,,,,,0,71,64
6120,note_on,60,0,1,,,,,,,,0,68,0
6120,note_on,0,0,1,,,,,,,,0,59,0
6180,note_on,0,0,1,,,,,,,,0,71,0
6180,note_on,60,0,1,,,,,,,,0,62,0
6180,note_on,0,0,1,,,,,,,,0,65,64
6180,note_on,0,0,1,,,,,,,,0,74,64
6240,note_on,0,0,1,,,,,,,,0,66,64
6240,note_on,60,0,1,,,,,,,,0,65,0
6300,note_on,60,0,1,,,,,,,,0,74,0
6300,note_on,0,0,1,,,,,,,,0,74,64
6360,note_on,60,0,1,,,,,,,,0,74,0
6360,note_on,0,0,1,,,,,,,,0,65,64
6360,note_on,0,0,1,,,,,,,,0,73,64
6360,note_on,0,0,1,,,,,,,,0,66,0
6420,note_on,60,0,1,,,,,,,,0,73,0
6420,note_on,0,0,1,,,,,,,,0,71,64
6480,note_on,60,0,1,,,,,,,,0,56,0
6480,note_on,0,0,1,,,,,,,,0,54,64
6540,note_on,60,0,1,,,,,,,,0,71,0
6540,note_on,0,0,1,,,,,,,,0,69,64
6600,note_on,0,0,1,,,,,,,,0,65,64
6600,note_on,0,0,1,,,,,,,,0,68,64
6600,note_on,60,0,1,,,,,,,,0,69,0
6600,note_on,0,0,1,,,,,,,,0,65,0
6660,note_on,60,0,1,,,,,,,,0,68,0
6660,note_on,0,0,1,,,,,,,,0,71,64
6720,note_on,0,0,1,,,,,,,,0,69,64
6720,note_on,0,0,1,,,,,,,,0,65,0
6720,note_on,60,0,1,,,,,,,,0,71,0
6720,note_on,0,0,1,,,,,,,,0,66,64
6780,note_on,60,0,1,,,,,,,,0,69,0
6780,note_on,0,0,1,,,,,,,,0,73,64
6840,note_on,60,0,1,,,,,,,,0,73,0
6840,note_on,0,0,1,,,,,,,,0,64,64
6840,note_on,0,0,1,,,,,,,,0,66,0
6840,note_on,0,0,1,,,,,,,,0,78,64
6900,note_on,0,0,1,,,,,,,,0,81,64
6900,note_on,60,0,1,,,,,,,,0,78,0
6960,note_on,0,0,1,,,,,,,,0,63,64
6960,note_on,60,0,1,,,,,,,,0,64,0
7020,note_on,0,0,1,,,,,,,,0,78,64
7020,note_on,60,0,1,,,,,,,,0,81,0
7080,note_on,0,0,1,,,,,,,,0,80,64
7080,note_on,0,0,1,,,,,,,,0,63,0
7080,note_on,0,0,1,,,,,,,,0,61,64
7080,note_on,60,0,1,,,,,,,,0,78,0
7140,note_on,0,0,1,,,,,,,,0,81,64
7140,note_on,60,0,1,,,,,,,,0,80,0
7200,note_on,0,0,1,,,,,,,,0,61,0
7200,note_on,60,0,1,,,,,,,,0,81,0
7200,note_on,0,0,1,,,,,,,,0,63,64
7200,note_on,0,0,1,,,,,,,,0,72,64
7260,note_on,60,0,1,,,,,,,,0,54,0
7260,note_on,0,0,1,,,,,,,,0,52,64
7320,note_on,60,0,1,,,,,,,,0,52,0
7320,note_on,0,0,1,,,,,,,,0,72,0
7320,note_on,0,0,1,,,,,,,,0,73,64
7320,note_on,0,0,1,,,,,,,,0,64,64
7320,note_on,0,0,1,,,,,,,,0,51,64
7320,note_on,0,0,1,,,,,,,,0,63,0
7380,note_on,60,0,1,,,,,,,,0,51,0
7380,note_on,0,0,1,,,,,,,,0,49,64
7440,note_on,60,0,1,,,,,,,,0,49,0
7440,note_on,0,0,1,,,,,,,,0,48,64
7440,note_on,0,0,1,,,,,,,,0,66,64
7440,note_on,0,0,1,,,,,,,,0,75,64
7440,note_on,0,0,1,,,,,,,,0,73,0
7440,note_on,0,0,1,,,,,,,,0,64,0
7500,note_on,0,0,1,,,,,,,,0,51,64
7500,note_on,60,0,1,,,,,,,,0,48,0
7560,note_on,0,0,1,,,,,,,,0,66,0
7560,note_on,0,0,1,,,,,,,,0,69,64
7560,note_on,0,0,1,,,,,,,,0,54,64
7560,note_on,60,0,1,,,,,,,,0,51,0
7620,note_on,0,0,1,,,,,,,,0,69,0
7620,note_on,0,0,1,,,,,,,,0,72,64
7620,note_on,0,0,1,,,,,,,,0,57,64
7620,note_on,60,0,1,,,,,,,,0,54,0
7680,note_on,0,0,1,,,,,,,,0,73,64
7680,note_on,60,0,1,,,,,,,,0,72,0
7740,note_on,60,0,1,,,,,,,,0,57,0
7740,note_on,0,0,1,,,,,,,,0,57,64
7800,note_on,0,0,1,,,,,,,,0,72,64
7800,note_on,60,0,1,,,,,,,,0,57,0
7800,note_on,0,0,1,,,,,,,,0,73,0
7800,note_on,0,0,1,,,,,,,,0,56,64
7860,note_on,0,0,1,,,,,,,,0,54,64
7860,note_on,60,0,1,,,,,,,,0,56,0
7920,note_on,0,0,1,,,,,,,,0,73,64
7920,note_on,0,0,1,,,,,,,,0,75,0
7920,note_on,60,0,1,,,,,,,,0,72,0
7980,note_on,0,0,1,,,,,,,,0,52,64
7980,note_on,60,0,1,,,,,,,,0,54,0
8040,note_on,60,0,1,,,,,,,,0,52,0
8040,note_on,0,0,1,,,,,,,,0,51,64
8040,note_on,0,0,1,,,,,,,,0,68,64
8100,note_on,60,0,1,,,,,,,,0,51,0
8100,note_on,0,0,1,,,,,,,,0,54,64
8160,note_on,0,0,1,,,,,,,,0,73,64
8160,note_on,0,0,1,,,,,,,,0,52,64
8160,note_on,0,0,1,,,,,,,,0,73,0
8160,note_on,0,0,1,,,,,,,,0,68,0
8160,note_on,60,0,1,,,,,,,,0,54,0
8220,note_on,60,0,1,,,,,,,,0,52,0
8220,note_on,0,0,1,,,,,,,,0,56,64
8280,note_on,0,0,1,,,,,,,,0,61,64
8280,note_on,0,0,1,,,,,,,,0,76,64
8280,note_on,0,0,1,,,,,,,,0,73,0
8280,note_on,60,0,1,,,,,,,,0,56,0
8340,note_on,0,0,1,,,,,,,,0,64,64
8340,note_on,60,0,1,,,,,,,,0,61,0
8400,note_on,0,0,1,,,,,,,,0,67,64
8400,note_on,0,0,1,,,,,,,,0,70,64
8400,note_on,60,0,1,,,,,,,,0,76,0
8460,note_on,60,0,1,,,,,,,,0,64,0
8460,note_on,0,0,1,,,,,,,,0,61,64
8520,note_on,0,0,1,,,,,,,,0,70,0
8520,note_on,0,0,1,,,,,,,,0,71,64
8520,note_on,0,0,1,,,,,,,,0,63,64
8520,note_on,60,0,1,,,,,,,,0,61,0
8580,note_on,60,0,1,,,,,,,,0,63,0
8580,note_on,0,0,1,,,,,,,,0,71,0
8580,note_on,0,0,1,,,,,,,,0,73,64
8580,note_on,0,0,1,,,,,,,,0,64,64
8640,note_on,60,0,1,,,,,,,,0,64,0
8640,note_on,0,0,1,,,,,,,,0,67,0
8640,note_on,0,0,1,,,,,,,,0,66,64
8640,note_on,0,0,1,,,,,,,,0,58,64
8700,note_on,0,0,1,,,,,,,,0,65,64
8700,note_on,60,0,1,,,,,,,,0,73,0
8760,note_on,60,0,1,,,,,,,,0,65,0
8760,note_on,0,0,1,,,,,,,,0,61,64
8760,note_on,0,0,1,,,,,,,,0,66,64
8760,note_on,0,0,1,,,,,,,,0,66,0
8760,note_on,0,0,1,,,,,,,,0,58,0
8820,note_on,0,0,1,,,,,,,,0,68,64
8820,note_on,60,0,1,,,,,,,,0,66,0
8880,note_on,0,0,1,,,,,,,,0,70,64
8880,note_on,60,0,1,,,,,,,,0,68,0
8880,note_on,0,0,1,,,,,,,,0,61,0
8880,note_on,0,0,1,,,,,,,,0,66,64
8940,note_on,0,0,1,,,,,,,,0,71,64
8940,note_on,60,0,1,,,,,,,,0,70,0
9000,note_on,0,0,1,,,,,,,,0,61,64
9000,note_on,0,0,1,,,,,,,,0,73,64
9000,note_on,0,0,1,,,,,,,,0,66,0
9000,note_on,60,0,1,,,,,,,,0,71,0
9060,note_on,60,0,1,,,,,,,,0,73,0
9060,note_on,0,0,1,,,,,,,,0,75,64
9120,note_on,60,0,1,,,,,,,,0,75,0
9120,note_on,0,0,1,,,,,,,,0,58,64
9120,note_on,0,0,1,,,,,,,,0,76,64
9120,note_on,0,0,1,,,,,,,,0,61,0
9180,note_on,0,0,1,,,,,,,,0,75,64
9180,note_on,60,0,1,,,,,,,,0,76,0
9240,note_on,60,0,1,,,,,,,,0,75,0
9240,note_on,0,0,1,,,,,,,,0,54,64
9240,note_on,0,0,1,,,,,,,,0,76,64
9240,note_on,0,0,1,,,,,,,,0,58,0
9300,note_on,60,0,1,,,,,,,,0,76,0
9300,note_on,0,0,1,,,,,,,,0,73,64
9360,note_on,60,0,1,,,,,,,,0,73,0
9360,note_on,0,0,1,,,,,,,,0,54,0
9360,note_on,0,0,1,,,,,,,,0,75,64
9360,note_on,0,0,1,,,,,,,,0,59,64
9420,note_on,60,0,1,,,,,,,,0,58,64
9480,note_on,0,0,1,,,,,,,,0,59,0
9480,note_on,60,0,1,,,,,,,,0,58,0
9480,note_on,0,0,1,,,,,,,,0,59,64
9540,note_on,0,0,1,,,,,,,,0,61,64
9540,note_on,60,0,1,,,,,,,,0,59,0
9600,note_on,0,0,1,,,,,,,,0,63,64
9600,note_on,60,0,1,,,,,,,,0,61,0
9660,note_on,0,0,1,,,,,,,,0,64,64
9660,note_on,60,0,1,,,,,,,,0,63,0
9720,note_on,0,0,1,,,,,,,,0,66,64
9720,note_on,60,0,1,,,,,,,,0,64,0
9780,note_on,60,0,1,,,,,,,,0,66,0
9780,note_on,0,0,1,,,,,,,,0,68,64
9840,note_on,0,0,1,,,,,,,,0,69,64
9840,note_on,60,0,1,,,,,,,,0,68,0
9900,note_on,60,0,1,,,,,,,,0,69,0
9900,note_on,0,0,1,,,,,,,,0,68,64
9960,note_on,0,0,1,,,,,,,,0,69,64
9960,note_on,60,0,1,,,,,,,,0,68,0
10020,note_on,60,0,1,,,,,,,,0,69,0
10020,note_on,0,0,1,,,,,,,,0,66,64
10080,note_on,60,0,1,,,,,,,,0,66,0
10080,note_on,0,0,1,,,,,,,,0,68,64
10140,note_on,60,0,1,,,,,,,,0,68,0
10140,note_on,0,0,1,,,,,,,,0,66,64
10140,note_on,0,0,1,,,,,,,,0,51,64
10200,note_on,0,0,1,,,,,,,,0,52,64
10200,note_on,0,0,1,,,,,,,,0,68,64
10200,note_on,0,0,1,,,,,,,,0,66,0
10200,note_on,60,0,1,,,,,,,,0,51,0
10260,note_on,0,0,1,,,,,,,,0,54,64
10260,note_on,0,0,1,,,,,,,,0,70,64
10260,note_on,0,0,1,,,,,,,,0,68,0
10260,note_on,60,0,1,,,,,,,,0,52,0
10320,note_on,0,0,1,,,,,,,,0,74,64
10320,note_on,0,0,1,,,,,,,,0,70,0
10320,note_on,0,0,1,,,,,,,,0,56,64
10320,note_on,0,0,1,,,,,,,,0,71,64
10320,note_on,0,0,1,,,,,,,,0,75,0
10320,note_on,60,0,1,,,,,,,,0,54,0
10380,note_on,0,0,1,,,,,,,,0,58,64
10380,note_on,60,0,1,,,,,,,,0,56,0
10440,note_on,0,0,1,,,,,,,,0,71,64
10440,note_on,0,0,1,,,,,,,,0,71,0
10440,note_on,0,0,1,,,,,,,,0,59,64
10440,note_on,0,0,1,,,,,,,,0,68,64
10440,note_on,0,0,1,,,,,,,,0,74,0
10440,note_on,60,0,1,,,,,,,,0,58,0
10500,note_on,0,0,1,,,,,,,,0,61,64
10500,note_on,60,0,1,,,,,,,,0,59,0
10560,note_on,0,0,1,,,,,,,,0,65,64
10560,note_on,0,0,1,,,,,,,,0,71,0
10560,note_on,0,0,1,,,,,,,,0,62,64
10560,note_on,0,0,1,,,,,,,,0,68,64
10560,note_on,60,0,1,,,,,,,,0,61,0
10560,note_on,0,0,1,,,,,,,,0,68,0
10620,note_on,0,0,1,,,,,,,,0,61,64
10620,note_on,60,0,1,,,,,,,,0,62,0
10680,note_on,60,0,1,,,,,,,,0,61,0
10680,note_on,0,0,1,,,,,,,,0,71,64
10680,note_on,0,0,1,,,,,,,,0,62,64
10680,note_on,0,0,1,,,,,,,,0,68,0
10740,note_on,0,0,1,,,,,,,,0,59,64
10740,note_on,60,0,1,,,,,,,,0,62,0
10800,note_on,0,0,1,,,,,,,,0,61,64
10800,note_on,0,0,1,,,,,,,,0,64,64
10800,note_on,0,0,1,,,,,,,,0,65,0
10800,note_on,60,0,1,,,,,,,,0,59,0
10860,note_on,0,0,1,,,,,,,,0,71,64
10860,note_on,60,0,1,,,,,,,,0,71,0
10920,note_on,60,0,1,,,,,,,,0,71,0
10920,note_on,0,0,1,,,,,,,,0,70,64
10980,note_on,60,0,1,,,,,,,,0,70,0
10980,note_on,0,0,1,,,,,,,,0,68,64
11040,note_on,60,0,1,,,,,,,,0,68,0
11040,note_on,0,0,1,,,,,,,,0,70,64
11100,note_on,60,0,1,,,,,,,,0,70,0
11100,note_on,0,0,1,,,,,,,,0,71,64
11160,note_on,60,0,1,,,,,,,,0,71,0
11160,note_on,0,0,1,,,,,,,,0,61,0
11160,note_on,0,0,1,,,,,,,,0,73,64
11160,note_on,0,0,1,,,,,,,,0,59,64
11220,note_on,60,0,1,,,,,,,,0,73,0
11220,note_on,0,0,1,,,,,,,,0,70,64
11280,note_on,0,0,1,,,,,,,,0,66,64
11280,note_on,0,0,1,,,,,,,,0,58,64
11280,note_on,60,0,1,,,,,,,,0,70,0
11280,note_on,0,0,1,,,,,,,,0,59,0
11340,note_on,60,0,1,,,,,,,,0,64,0
11340,note_on,0,0,1,,,,,,,,0,64,64
11400,note_on,0,0,1,,,,,,,,0,78,64
11400,note_on,0,0,1,,,,,,,,0,66,0
11400,note_on,60,0,1,,,,,,,,0,64,0
11400,note_on,0,0,1,,,,,,,,0,63,64
11460,note_on,60,0,1,,,,,,,,0,63,0
11460,note_on,0,0,1,,,,,,,,0,61,64
11520,note_on,60,0,1,,,,,,,,0,61,0
11520,note_on,0,0,1,,,,,,,,0,63,64
11520,note_on,0,0,1,,,,,,,,0,59,64
11520,note_on,0,0,1,,,,,,,,0,58,0
11580,note_on,0,0,1,,,,,,,,0,76,64
11580,note_on,60,0,1,,,,,,,,0,78,0
11640,note_on,0,0,1,,,,,,,,0,59,0
11640,note_on,0,0,1,,,,,,,,0,63,0
11640,note_on,60,0,1,,,,,,,,0,76,0
11640,note_on,0,0,1,,,,,,,,0,58,64
11640,note_on,0,0,1,,,,,,,,0,54,64
11640,note_on,0,0,1,,,,,,,,0,80,64
11700,note_on,60,0,1,,,,,,,,0,80,0
11700,note_on,0,0,1,,,,,,,,0,78,64
11760,note_on,0,0,1,,,,,,,,0,76,64
11760,note_on,0,0,1,,,,,,,,0,58,0
11760,note_on,0,0,1,,,,,,,,0,54,0
11760,note_on,60,0,1,,,,,,,,0,78,0
11760,note_on,0,0,1,,,,,,,,0,56,64
11760,note_on,0,0,1,,,,,,,,0,59,64
11820,note_on,60,0,1,,,,,,,,0,76,0
11820,note_on,0,0,1,,,,,,,,0,75,64
11880,note_on,0,0,1,,,,,,,,0,56,0
11880,note_on,0,0,1,,,,,,,,0,73,64
11880,note_on,0,0,1,,,,,,,,0,52,64
11880,note_on,60,0,1,,,,,,,,0,75,0
11940,note_on,60,0,1,,,,,,,,0,73,0
11940,note_on,0,0,1,,,,,,,,0,71,64
12000,note_on,0,0,1,,,,,,,,0,52,0
12000,note_on,0,0,1,,,,,,,,0,75,64
12000,note_on,60,0,1,,,,,,,,0,71,0
12000,note_on,0,0,1,,,,,,,,0,54,64
12060,note_on,0,0,1,,,,,,,,0,66,64
12060,note_on,60,0,1,,,,,,,,0,75,0
12120,note_on,0,0,1,,,,,,,,0,58,64
12120,note_on,0,0,1,,,,,,,,0,59,0
12120,note_on,60,0,1,,,,,,,,0,66,0
12120,note_on,0,0,1,,,,,,,,0,73,64
12180,note_on,60,0,1,,,,,,,,0,73,0
12180,note_on,0,0,1,,,,,,,,0,64,64
12240,note_on,60,0,1,,,,,,,,0,64,0
12240,note_on,0,0,1,,,,,,,,0,54,0
12240,note_on,0,0,1,,,,,,,,0,63,64
12240,note_on,0,0,1,,,,,,,,0,59,64
12240,note_on,0,0,1,,,,,,,,0,58,0
12300,note_on,0,0,1,,,,,,,,0,66,64
12300,note_on,60,0,1,,,,,,,,0,63,0
12360,note_on,60,0,1,,,,,,,,0,66,0
12360,note_on,0,0,1,,,,,,,,0,71,64
12360,note_on,0,0,1,,,,,,,,0,47,64
12420,note_on,0,0,1,,,,,,,,0,70,64
12420,note_on,60,0,1,,,,,,,,0,71,0
12480,note_on,0,0,1,,,,,,,,0,47,64
12480,note_on,0,0,1,,,,,,,,0,71,64
12480,note_on,60,0,1,,,,,,,,0,70,0
12480,note_on,0,0,1,,,,,,,,0,47,0
12480,note_on,0,0,1,,,,,,,,0,59,0
12540,note_on,60,0,1,,,,,,,,0,66,64
12600,note_on,0,0,1,,,,,,,,0,59,64
12600,note_on,0,0,1,,,,,,,,0,64,64
12600,note_on,0,0,1,,,,,,,,0,47,0
12600,note_on,60,0,1,,,,,,,,0,66,0
12660,note_on,60,0,1,,,,,,,,0,64,0
12660,note_on,0,0,1,,,,,,,,0,66,64
12720,note_on,0,0,1,,,,,,,,0,59,64
12720,note_on,0,0,1,,,,,,,,0,68,64
12720,note_on,60,0,1,,,,,,,,0,59,0
12720,note_on,0,0,1,,,,,,,,0,71,0
12780,note_on,0,0,1,,,,,,,,0,64,64
12780,note_on,60,0,1,,,,,,,,0,66,0
12840,note_on,0,0,1,,,,,,,,0,63,64
12840,note_on,0,0,1,,,,,,,,0,59,0
12840,note_on,0,0,1,,,,,,,,0,47,64
12840,note_on,60,0,1,,,,,,,,0,64,0
12900,note_on,0,0,1,,,,,,,,0,64,64
12900,note_on,60,0,1,,,,,,,,0,63,0
12960,note_on,0,0,1,,,,,,,,0,68,0
12960,note_on,60,0,1,,,,,,,,0,47,0
12960,note_on,0,0,1,,,,,,,,0,59,64
12960,note_on,0,0,1,,,,,,,,0,66,64
13020,note_on,60,0,1,,,,,,,,0,66,0
13020,note_on,0,0,1,,,,,,,,0,68,64
13080,note_on,60,0,1,,,,,,,,0,68,0
13080,note_on,0,0,1,,,,,,,,0,59,0
13080,note_on,0,0,1,,,,,,,,0,69,64
13080,note_on,0,0,1,,,,,,,,0,47,64
13140,note_on,0,0,1,,,,,,,,0,68,64
13140,note_on,60,0,1,,,,,,,,0,69,0
13200,note_on,0,0,1,,,,,,,,0,47,0
13200,note_on,0,0,1,,,,,,,,0,47,64
13200,note_on,0,0,1,,,,,,,,0,69,64
13200,note_on,0,0,1,,,,,,,,0,64,0
13200,note_on,60,0,1,,,,,,,,0,68,0
13260,note_on,60,0,1,,,,,,,,0,64,64
13320,note_on,0,0,1,,,,,,,,0,47,0
13320,note_on,60,0,1,,,,,,,,0,64,0
13320,note_on,0,0,1,,,,,,,,0,59,64
13320,note_on,0,0,1,,,,,,,,0,63,64
13380,note_on,60,0,1,,,,,,,,0,63,0
13380,note_on,0,0,1,,,,,,,,0,64,64
13440,note_on,60,0,1,,,,,,,,0,59,0
13440,note_on,0,0,1,,,,,,,,0,69,0
13440,note_on,0,0,1,,,,,,,,0,66,64
13440,note_on,0,0,1,,,,,,,,0,59,64
13500,note_on,0,0,1,,,,,,,,0,63,64
13500,note_on,60,0,1,,,,,,,,0,64,0
13560,note_on,0,0,1,,,,,,,,0,47,64
13560,note_on,60,0,1,,,,,,,,0,63,0
13560,note_on,0,0,1,,,,,,,,0,59,0
13560,note_on,0,0,1,,,,,,,,0,61,64
13620,note_on,0,0,1,,,,,,,,0,63,64
13620,note_on,60,0,1,,,,,,,,0,61,0
13680,note_on,0,0,1,,,,,,,,0,59,64
13680,note_on,0,0,1,,,,,,,,0,64,64
13680,note_on,0,0,1,,,,,,,,0,66,0
13680,note_on,60,0,1,,,,,,,,0,47,0
13740,note_on,60,0,1,,,,,,,,0,64,0
13740,note_on,0,0,1,,,,,,,,0,66,64
13800,note_on,0,0,1,,,,,,,,0,59,0
13800,note_on,0,0,1,,,,,,,,0,47,64
13800,note_on,0,0,1,,,,,,,,0,67,64
13800,note_on,60,0,1,,,,,,,,0,66,0
13860,note_on,0,0,1,,,,,,,,0,66,64
13860,note_on,60,0,1,,,,,,,,0,67,0
13920,note_on,0,0,1,,,,,,,,0,47,0
13920,note_on,60,0,1,,,,,,,,0,66,0
13920,note_on,0,0,1,,,,,,,,0,67,64
13920,note_on,0,0,1,,,,,,,,0,47,64
13920,note_on,0,0,1,,,,,,,,0,63,0
13980,note_on,60,0,1,,,,,,,,0,63,64
14040,note_on,0,0,1,,,,,,,,0,47,0
14040,note_on,0,0,1,,,,,,,,0,61,64
14040,note_on,0,0,1,,,,,,,,0,59,64
14040,note_on,60,0,1,,,,,,,,0,63,0
14100,note_on,0,0,1,,,,,,,,0,63,64
14100,note_on,60,0,1,,,,,,,,0,61,0
14160,note_on,0,0,1,,,,,,,,0,67,0
14160,note_on,0,0,1,,,,,,,,0,59,64
14160,note_on,60,0,1,,,,,,,,0,59,0
14160,note_on,0,0,1,,,,,,,,0,64,64
14220,note_on,0,0,1,,,,,,,,0,61,64
14220,note_on,60,0,1,,,,,,,,0,63,0
14280,note_on,0,0,1,,,,,,,,0,47,64
14280,note_on,0,0,1,,,,,,,,0,59,0
14280,note_on,60,0,1,,,,,,,,0,61,0
14280,note_on,0,0,1,,,,,,,,0,59,64
14340,note_on,60,0,1,,,,,,,,0,59,0
14340,note_on,0,0,1,,,,,,,,0,61,64
14400,note_on,60,0,1,,,,,,,,0,47,0
14400,note_on,0,0,1,,,,,,,,0,59,64
14520,note_on,120,0,1,,,,,,,,0,59,0
14520,note_on,0,0,1,,,,,,,,0,64,0
14520,note_on,0,0,1,,,,,,,,0,59,64
14520,note_on,0,0,1,,,,,,,,0,73,64
14544,note_on,24,0,1,,,,,,,,0,58,64
14550,note_on,6,0,1,,,,,,,,0,59,0
14568,note_on,18,0,1,,,,,,,,0,59,64
14574,note_on,6,0,1,,,,,,,,0,58,0
14592,note_on,18,0,1,,,,,,,,0,58,64
14598,note_on,6,0,1,,,,,,,,0,59,0
14640,note_on,42,0,1,,,,,,,,0,61,0
14640,note_on,0,0,1,,,,,,,,0,73,0
14640,note_on,0,0,1,,,,,,,,0,73,64
14700,note_on,60,0,1,,,,,,,,0,54,64
14703,note_on,3,0,1,,,,,,,,0,58,0
14760,note_on,0,0,1,,,,,,,,0,56,64
14760,note_on,0,0,1,,,,,,,,0,61,64
14760,note_on,0,0,1,,,,,,,,0,64,64
14760,note_on,0,0,1,,,,,,,,0,73,0
14760,note_on,57,0,1,,,,,,,,0,54,0
14820,note_on,60,0,1,,,,,,,,0,56,0
14820,note_on,0,0,1,,,,,,,,0,58,64
14880,note_on,0,0,1,,,,,,,,0,59,64
14880,note_on,0,0,1,,,,,,,,0,63,64
14880,note_on,0,0,1,,,,,,,,0,59,64
14880,note_on,0,0,1,,,,,,,,0,64,0
14880,note_on,60,0,1,,,,,,,,0,58,0
14880,note_on,0,0,1,,,,,,,,0,61,0
14940,note_on,0,0,1,,,,,,,,0,56,64
14940,note_on,60,0,1,,,,,,,,0,59,0
15000,note_on,60,0,1,,,,,,,,0,56,0
15000,note_on,0,0,1,,,,,,,,0,54,64
15000,note_on,0,0,1,,,,,,,,0,63,0
15000,note_on,0,0,1,,,,,,,,0,78,64
15060,note_on,0,0,1,,,,,,,,0,52,64
15060,note_on,60,0,1,,,,,,,,0,54,0
15120,note_on,60,0,1,,,,,,,,0,52,0
15120,note_on,0,0,1,,,,,,,,0,78,0
15120,note_on,0,0,1,,,,,,,,0,78,64
15120,note_on,0,0,1,,,,,,,,0,51,64
15120,note_on,0,0,1,,,,,,,,0,59,0
15180,note_on,0,0,1,,,,,,,,0,49,64
15180,note_on,60,0,1,,,,,,,,0,51,0
15240,note_on,0,0,1,,,,,,,,0,71,64
15240,note_on,0,0,1,,,,,,,,0,78,0
15240,note_on,60,0,1,,,,,,,,0,49,0
15240,note_on,0,0,1,,,,,,,,0,51,64
15240,note_on,0,0,1,,,,,,,,0,63,64
15300,note_on,0,0,1,,,,,,,,0,52,64
15300,note_on,60,0,1,,,,,,,,0,51,0
15360,note_on,60,0,1,,,,,,,,0,52,0
15360,note_on,0,0,1,,,,,,,,0,63,0
15360,note_on,0,0,1,,,,,,,,0,70,64
15360,note_on,0,0,1,,,,,,,,0,61,64
15360,note_on,0,0,1,,,,,,,,0,54,64
15360,note_on,0,0,1,,,,,,,,0,71,0
15420,note_on,60,0,1,,,,,,,,0,54,0
15420,note_on,0,0,1,,,,,,,,0,51,64
15480,note_on,60,0,1,,,,,,,,0,51,0
15480,note_on,0,0,1,,,,,,,,0,49,64
15480,note_on,0,0,1,,,,,,,,0,76,64
15480,note_on,0,0,1,,,,,,,,0,70,0
15540,note_on,0,0,1,,,,,,,,0,47,64
15540,note_on,60,0,1,,,,,,,,0,49,0
15600,note_on,0,0,1,,,,,,,,0,61,0
15600,note_on,0,0,1,,,,,,,,0,76,0
15600,note_on,60,0,1,,,,,,,,0,47,0
15600,note_on,0,0,1,,,,,,,,0,76,64
15600,note_on,0,0,1,,,,,,,,0,46,64
15660,note_on,0,0,1,,,,,,,,0,44,64
15660,note_on,60,0,1,,,,,,,,0,46,0
15720,note_on,0,0,1,,,,,,,,0,76,0
15720,note_on,0,0,1,,,,,,,,0,64,64
15720,note_on,0,0,1,,,,,,,,0,61,64
15720,note_on,0,0,1,,,,,,,,0,66,64
15720,note_on,0,0,1,,,,,,,,0,46,64
15720,note_on,60,0,1,,,,,,,,0,44,0
15780,note_on,60,0,1,,,,,,,,0,46,0
15780,note_on,0,0,1,,,,,,,,0,47,64
15840,note_on,0,0,1,,,,,,,,0,49,64
15840,note_on,60,0,1,,,,,,,,0,47,0
15840,note_on,0,0,1,,,,,,,,0,66,0
15840,note_on,0,0,1,,,,,,,,0,61,0
15840,note_on,0,0,1,,,,,,,,0,64,0
15840,note_on,0,0,1,,,,,,,,0,66,64
15840,note_on,0,0,1,,,,,,,,0,58,64
15840,note_on,0,0,1,,,,,,,,0,64,64
15900,note_on,60,0,1,,,,,,,,0,49,0
15900,note_on,0,0,1,,,,,,,,0,46,64
15960,note_on,60,0,1,,,,,,,,0,46,0
15960,note_on,0,0,1,,,,,,,,0,44,64
16020,note_on,60,0,1,,,,,,,,0,44,0
16020,note_on,0,0,1,,,,,,,,0,42,64
16080,note_on,0,0,1,,,,,,,,0,59,64
16080,note_on,0,0,1,,,,,,,,0,47,64
16080,note_on,60,0,1,,,,,,,,0,42,0
16080,note_on,0,0,1,,,,,,,,0,58,0
16140,note_on,60,0,1,,,,,,,,0,64,0
16140,note_on,0,0,1,,,,,,,,0,63,64
16200,note_on,60,0,1,,,,,,,,0,66,0
16200,note_on,0,0,1,,,,,,,,0,68,64
16200,note_on,0,0,1,,,,,,,,0,44,64
16200,note_on,0,0,1,,,,,,,,0,47,0
16260,note_on,60,0,1,,,,,,,,0,68,0
16260,note_on,0,0,1,,,,,,,,0,71,64
16320,note_on,60,0,1,,,,,,,,0,63,0
16320,note_on,0,0,1,,,,,,,,0,40,64
16320,note_on,0,0,1,,,,,,,,0,61,64
16320,note_on,0,0,1,,,,,,,,0,59,0
16320,note_on,0,0,1,,,,,,,,0,44,0
16380,note_on,0,0,1,,,,,,,,0,71,64
16380,note_on,60,0,1,,,,,,,,0,71,0
16440,note_on,60,0,1,,,,,,,,0,40,0
16440,note_on,0,0,1,,,,,,,,0,54,64
16440,note_on,0,0,1,,,,,,,,0,64,64
16440,note_on,0,0,1,,,,,,,,0,61,0
16440,note_on,0,0,1,,,,,,,,0,42,64
16500,note_on,60,0,1,,,,,,,,0,71,0
16500,note_on,0,0,1,,,,,,,,0,70,64
16560,note_on,0,0,1,,,,,,,,0,42,0
16560,note_on,0,0,1,,,,,,,,0,47,64
16560,note_on,0,0,1,,,,,,,,0,71,64
16560,note_on,60,0,1,,,,,,,,0,70,0
16620,note_on,0,0,1,,,,,,,,0,63,64
16620,note_on,60,0,1,,,,,,,,0,64,0
16680,note_on,0,0,1,,,,,,,,0,64,64
16680,note_on,0,0,1,,,,,,,,0,55,64
16680,note_on,0,0,1,,,,,,,,0,71,0
16680,note_on,60,0,1,,,,,,,,0,54,0
16740,note_on,0,0,1,,,,,,,,0,61,64
16740,note_on,60,0,1,,,,,,,,0,63,0
16800,note_on,60,0,1,,,,,,,,0,64,0
16800,note_on,0,0,1,,,,,,,,0,54,64
16800,note_on,0,0,1,,,,,,,,0,63,64
16800,note_on,0,0,1,,,,,,,,0,55,0
16860,note_on,0,0,1,,,,,,,,0,59,64
16860,note_on,60,0,1,,,,,,,,0,61,0
16920,note_on,0,0,1,,,,,,,,0,61,64
16920,note_on,0,0,1,,,,,,,,0,52,64
16920,note_on,0,0,1,,,,,,,,0,54,0
16920,note_on,60,0,1,,,,,,,,0,63,0
16980,note_on,0,0,1,,,,,,,,0,58,64
16980,note_on,60,0,1,,,,,,,,0,59,0
17040,note_on,0,0,1,,,,,,,,0,63,64
17040,note_on,60,0,1,,,,,,,,0,58,0
17040,note_on,0,0,1,,,,,,,,0,59,64
17040,note_on,0,0,1,,,,,,,,0,54,64
17040,note_on,0,0,1,,,,,,,,0,52,0
17040,note_on,0,0,1,,,,,,,,0,61,0
17280,note_on,240,0,1,,,,,,,,0,63,0
17280,note_on,0,0,1,,,,,,,,0,54,0
17280,note_on,0,0,1,,,,,,,,0,59,0
17280,note_on,0,0,1,,,,,,,,0,52,64
17280,note_on,0,0,1,,,,,,,,0,47,0
17400,note_on,120,0,1,,,,,,,,0,71,64
17520,note_on,0,0,1,,,,,,,,0,73,64
17520,note_on,120,0,1,,,,,,,,0,71,0
17640,note_on,120,0,1,,,,,,,,0,68,64
17760,note_on,120,0,1,,,,,,,,0,68,0
17760,note_on,0,0,1,,,,,,,,0,69,64
17820,note_on,0,0,1,,,,,,,,0,73,64
17820,note_on,60,0,1,,,,,,,,0,73,0
17880,note_on,0,0,1,,,,,,,,0,71,64
17880,note_on,60,0,1,,,,,,,,0,73,0
17940,note_on,0,0,1,,,,,,,,0,69,64
17940,note_on,60,0,1,,,,,,,,0,71,0
18000,note_on,0,0,1,,,,,,,,0,71,64
18000,note_on,60,0,1,,,,,,,,0,69,0
18060,note_on,0,0,1,,,,,,,,0,69,64
18060,note_on,60,0,1,,,,,,,,0,69,0
18120,note_on,60,0,1,,,,,,,,0,69,0
18120,note_on,0,0,1,,,,,,,,0,68,64
18180,note_on,60,0,1,,,,,,,,0,68,0
18180,note_on,0,0,1,,,,,,,,0,66,64
18240,note_on,60,0,1,,,,,,,,0,66,0
18240,note_on,0,0,1,,,,,,,,0,68,64
18300,note_on,0,0,1,,,,,,,,0,71,64
18300,note_on,60,0,1,,,,,,,,0,71,0
18360,note_on,0,0,1,,,,,,,,0,76,64
18360,note_on,60,0,1,,,,,,,,0,71,0
18360,note_on,0,0,1,,,,,,,,0,68,0
18420,note_on,0,0,1,,,,,,,,0,75,64
18420,note_on,60,0,1,,,,,,,,0,76,0
18480,note_on,0,0,1,,,,,,,,0,73,64
18480,note_on,60,0,1,,,,,,,,0,75,0
18540,note_on,0,0,1,,,,,,,,0,71,64
18540,note_on,60,0,1,,,,,,,,0,73,0
18600,note_on,0,0,1,,,,,,,,0,69,64
18600,note_on,60,0,1,,,,,,,,0,71,0
18660,note_on,60,0,1,,,,,,,,0,69,0
18660,note_on,0,0,1,,,,,,,,0,68,64
18720,note_on,60,0,1,,,,,,,,0,68,0
18720,note_on,0,0,1,,,,,,,,0,69,64
18780,note_on,60,0,1,,,,,,,,0,68,64
18840,note_on,0,0,1,,,,,,,,0,66,64
18840,note_on,60,0,1,,,,,,,,0,68,0
18900,note_on,0,0,1,,,,,,,,0,64,64
18900,note_on,60,0,1,,,,,,,,0,66,0
18960,note_on,0,0,1,,,,,,,,0,66,64
18960,note_on,60,0,1,,,,,,,,0,64,0
19020,note_on,60,0,1,,,,,,,,0,52,0
19020,note_on,0,0,1,,,,,,,,0,52,64
19080,note_on,60,0,1,,,,,,,,0,52,0
19080,note_on,0,0,1,,,,,,,,0,51,64
19140,note_on,60,0,1,,,,,,,,0,51,0
19140,note_on,0,0,1,,,,,,,,0,49,64
19200,note_on,60,0,1,,,,,,,,0,49,0
19200,note_on,0,0,1,,,,,,,,0,51,64
19260,note_on,60,0,1,,,,,,,,0,51,0
19260,note_on,0,0,1,,,,,,,,0,54,64
19320,note_on,60,0,1,,,,,,,,0,54,0
19320,note_on,0,0,1,,,,,,,,0,47,64
19380,note_on,0,0,1,,,,,,,,0,51,64
19380,note_on,60,0,1,,,,,,,,0,47,0
19440,note_on,0,0,1,,,,,,,,0,52,64
19440,note_on,60,0,1,,,,,,,,0,51,0
19500,note_on,0,0,1,,,,,,,,0,69,64
19500,note_on,60,0,1,,,,,,,,0,69,0
19560,note_on,0,0,1,,,,,,,,0,52,0
19560,note_on,0,0,1,,,,,,,,0,68,64
19560,note_on,0,0,1,,,,,,,,0,40,64
19560,note_on,60,0,1,,,,,,,,0,69,0
19620,note_on,60,0,1,,,,,,,,0,68,0
19620,note_on,0,0,1,,,,,,,,0,66,64
19680,note_on,60,0,1,,,,,,,,0,40,0
19680,note_on,0,0,1,,,,,,,,0,66,0
19680,note_on,0,0,1,,,,,,,,0,68,64
19680,note_on,0,0,1,,,,,,,,0,52,64
19740,note_on,60,0,1,,,,,,,,0,66,0
19740,note_on,0,0,1,,,,,,,,0,66,64
19800,note_on,0,0,1,,,,,,,,0,54,64
19800,note_on,60,0,1,,,,,,,,0,66,0
19800,note_on,0,0,1,,,,,,,,0,52,0
19800,note_on,0,0,1,,,,,,,,0,64,64
19860,note_on,60,0,1,,,,,,,,0,64,0
19860,note_on,0,0,1,,,,,,,,0,63,64
19920,note_on,0,0,1,,,,,,,,0,56,64
19920,note_on,0,0,1,,,,,,,,0,64,64
19920,note_on,0,0,1,,,,,,,,0,54,0
19920,note_on,60,0,1,,,,,,,,0,63,0
19980,note_on,0,0,1,,,,,,,,0,68,64
19980,note_on,60,0,1,,,,,,,,0,68,0
20040,note_on,0,0,1,,,,,,,,0,56,0
20040,note_on,60,0,1,,,,,,,,0,68,0
20040,note_on,0,0,1,,,,,,,,0,57,64
20040,note_on,0,0,1,,,,,,,,0,66,64
20040,note_on,0,0,1,,,,,,,,0,64,0
20100,note_on,60,0,1,,,,,,,,0,66,0
20100,note_on,0,0,1,,,,,,,,0,64,64
20160,note_on,0,0,1,,,,,,,,0,63,64
20160,note_on,0,0,1,,,,,,,,0,59,64
20160,note_on,0,0,1,,,,,,,,0,57,0
20160,note_on,60,0,1,,,,,,,,0,64,0
20280,note_on,0,0,1,,,,,,,,0,66,64
20280,note_on,120,0,1,,,,,,,,0,63,0
20400,note_on,120,0,1,,,,,,,,0,66,0
20400,note_on,0,0,1,,,,,,,,0,68,64
20520,note_on,120,0,1,,,,,,,,0,75,64
20640,note_on,0,0,1,,,,,,,,0,76,64
20640,note_on,120,0,1,,,,,,,,0,75,0
20700,note_on,60,0,1,,,,,,,,0,68,0
20700,note_on,0,0,1,,,,,,,,0,68,64
20760,note_on,60,0,1,,,,,,,,0,68,0
20760,note_on,0,0,1,,,,,,,,0,66,64
20820,note_on,0,0,1,,,,,,,,0,64,64
20820,note_on,60,0,1,,,,,,,,0,66,0
20880,note_on,0,0,1,,,,,,,,0,66,64
20880,note_on,60,0,1,,,,,,,,0,64,0
20940,note_on,0,0,1,,,,,,,,0,76,64
20940,note_on,60,0,1,,,,,,,,0,76,0
21000,note_on,60,0,1,,,,,,,,0,76,0
21000,note_on,0,0,1,,,,,,,,0,75,64
21060,note_on,0,0,1,,,,,,,,0,73,64
21060,note_on,60,0,1,,,,,,,,0,75,0
21120,note_on,0,0,1,,,,,,,,0,75,64
21120,note_on,60,0,1,,,,,,,,0,73,0
21180,note_on,60,0,1,,,,,,,,0,66,0
21180,note_on,0,0,1,,,,,,,,0,66,64
21240,note_on,0,0,1,,,,,,,,0,75,0
21240,note_on,60,0,1,,,,,,,,0,66,0
21240,note_on,0,0,1,,,,,,,,0,71,64
21300,note_on,0,0,1,,,,,,,,0,69,64
21300,note_on,60,0,1,,,,,,,,0,71,0
21360,note_on,0,0,1,,,,,,,,0,68,64
21360,note_on,60,0,1,,,,,,,,0,69,0
21420,note_on,0,0,1,,,,,,,,0,66,64
21420,note_on,60,0,1,,,,,,,,0,68,0
21480,note_on,60,0,1,,,,,,,,0,66,0
21480,note_on,0,0,1,,,,,,,,0,64,64
21540,note_on,60,0,1,,,,,,,,0,64,0
21540,note_on,0,0,1,,,,,,,,0,63,64
21600,note_on,60,0,1,,,,,,,,0,63,0
21600,note_on,0,0,1,,,,,,,,0,64,64
21660,note_on,60,0,1,,,,,,,,0,75,64
21720,note_on,0,0,1,,,,,,,,0,73,64
21720,note_on,60,0,1,,,,,,,,0,75,0
21780,note_on,60,0,1,,,,,,,,0,73,0
21780,note_on,0,0,1,,,,,,,,0,71,64
21840,note_on,60,0,1,,,,,,,,0,71,0
21840,note_on,0,0,1,,,,,,,,0,73,64
21900,note_on,60,0,1,,,,,,,,0,59,0
21900,note_on,0,0,1,,,,,,,,0,59,64
21960,note_on,60,0,1,,,,,,,,0,59,0
21960,note_on,0,0,1,,,,,,,,0,58,64
22020,note_on,0,0,1,,,,,,,,0,56,64
22020,note_on,60,0,1,,,,,,,,0,58,0
22080,note_on,60,0,1,,,,,,,,0,56,0
22080,note_on,0,0,1,,,,,,,,0,58,64
22140,note_on,0,0,1,,,,,,,,0,61,64
22140,note_on,60,0,1,,,,,,,,0,58,0
22200,note_on,0,0,1,,,,,,,,0,54,64
22200,note_on,60,0,1,,,,,,,,0,61,0
22260,note_on,60,0,1,,,,,,,,0,54,0
22260,note_on,0,0,1,,,,,,,,0,58,64
22320,note_on,60,0,1,,,,,,,,0,58,0
22320,note_on,0,0,1,,,,,,,,0,59,64
22380,note_on,0,0,1,,,,,,,,0,64,64
22380,note_on,60,0,1,,,,,,,,0,64,0
22440,note_on,0,0,1,,,,,,,,0,63,64
22440,note_on,60,0,1,,,,,,,,0,64,0
22500,note_on,0,0,1,,,,,,,,0,61,64
22500,note_on,60,0,1,,,,,,,,0,63,0
22560,note_on,0,0,1,,,,,,,,0,63,64
22560,note_on,60,0,1,,,,,,,,0,61,0
22620,note_on,60,0,1,,,,,,,,0,73,0
22620,note_on,0,0,1,,,,,,,,0,73,64
22680,note_on,0,0,1,,,,,,,,0,71,64
22680,note_on,60,0,1,,,,,,,,0,73,0
22740,note_on,0,0,1,,,,,,,,0,70,64
22740,note_on,60,0,1,,,,,,,,0,71,0
22800,note_on,60,0,1,,,,,,,,0,70,0
22800,note_on,0,0,1,,,,,,,,0,71,64
22860,note_on,60,0,1,,,,,,,,0,59,0
22860,note_on,0,0,1,,,,,,,,0,61,64
22920,note_on,0,0,1,,,,,,,,0,59,64
22920,note_on,60,0,1,,,,,,,,0,61,0
22980,note_on,60,0,1,,,,,,,,0,59,0
22980,note_on,0,0,1,,,,,,,,0,57,64
23040,note_on,60,0,1,,,,,,,,0,57,0
23040,note_on,0,0,1,,,,,,,,0,56,64
23040,note_on,0,0,1,,,,,,,,0,63,0
23100,note_on,60,0,1,,,,,,,,0,71,0
23100,note_on,0,0,1,,,,,,,,0,69,64
23160,note_on,60,0,1,,,,,,,,0,69,0
23160,note_on,0,0,1,,,,,,,,0,68,64
23160,note_on,0,0,1,,,,,,,,0,57,64
23220,note_on,60,0,1,,,,,,,,0,68,0
23220,note_on,0,0,1,,,,,,,,0,66,64
23280,note_on,0,0,1,,,,,,,,0,59,64
23280,note_on,0,0,1,,,,,,,,0,65,64
23280,note_on,60,0,1,,,,,,,,0,66,0
23280,note_on,0,0,1,,,,,,,,0,57,0
23340,note_on,60,0,1,,,,,,,,0,65,0
23340,note_on,0,0,1,,,,,,,,0,68,64
23400,note_on,0,0,1,,,,,,,,0,71,64
23400,note_on,0,0,1,,,,,,,,0,59,0
23400,note_on,60,0,1,,,,,,,,0,68,0
23400,note_on,0,0,1,,,,,,,,0,62,64
23460,note_on,0,0,1,,,,,,,,0,65,64
23460,note_on,60,0,1,,,,,,,,0,62,0
23460,note_on,0,0,1,,,,,,,,0,71,0
23460,note_on,0,0,1,,,,,,,,0,74,64
23520,note_on,0,0,1,,,,,,,,0,66,64
23520,note_on,60,0,1,,,,,,,,0,65,0
23580,note_on,0,0,1,,,,,,,,0,74,64
23580,note_on,60,0,1,,,,,,,,0,74,0
23640,note_on,0,0,1,,,,,,,,0,73,64
23640,note_on,0,0,1,,,,,,,,0,65,64
23640,note_on,0,0,1,,,,,,,,0,66,0
23640,note_on,60,0,1,,,,,,,,0,74,0
23700,note_on,0,0,1,,,,,,,,0,71,64
23700,note_on,60,0,1,,,,,,,,0,73,0
23760,note_on,60,0,1,,,,,,,,0,56,0
23760,note_on,0,0,1,,,,,,,,0,54,64
23820,note_on,0,0,1,,,,,,,,0,69,64
23820,note_on,60,0,1,,,,,,,,0,71,0
23880,note_on,0,0,1,,,,,,,,0,68,64
23880,note_on,0,0,1,,,,,,,,0,65,0
23880,note_on,60,0,1,,,,,,,,0,69,0
23880,note_on,0,0,1,,,,,,,,0,65,64
23940,note_on,0,0,1,,,,,,,,0,71,64
23940,note_on,60,0,1,,,,,,,,0,68,0
24000,note_on,0,0,1,,,,,,,,0,66,64
24000,note_on,0,0,1,,,,,,,,0,69,64
24000,note_on,0,0,1,,,,,,,,0,65,0
24000,note_on,60,0,1,,,,,,,,0,71,0
24060,note_on,0,0,1,,,,,,,,0,73,64
24060,note_on,60,0,1,,,,,,,,0,69,0
24120,note_on,0,0,1,,,,,,,,0,66,0
24120,note_on,0,0,1,,,,,,,,0,78,64
24120,note_on,0,0,1,,,,,,,,0,64,64
24120,note_on,60,0,1,,,,,,,,0,73,0
24180,note_on,60,0,1,,,,,,,,0,78,0
24180,note_on,0,0,1,,,,,,,,0,81,64
24240,note_on,60,0,1,,,,,,,,0,64,0
24240,note_on,0,0,1,,,,,,,,0,63,64
24300,note_on,60,0,1,,,,,,,,0,81,0
24300,note_on,0,0,1,,,,,,,,0,78,64
24360,note_on,0,0,1,,,,,,,,0,63,0
24360,note_on,0,0,1,,,,,,,,0,80,64
24360,note_on,0,0,1,,,,,,,,0,61,64
24360,note_on,60,0,1,,,,,,,,0,78,0
24420,note_on,0,0,1,,,,,,,,0,81,64
24420,note_on,60,0,1,,,,,,,,0,80,0
24480,note_on,0,0,1,,,,,,,,0,61,0
24480,note_on,60,0,1,,,,,,,,0,81,0
24480,note_on,0,0,1,,,,,,,,0,63,64
24480,note_on,0,0,1,,,,,,,,0,72,64
24540,note_on,60,0,1,,,,,,,,0,54,0
24540,note_on,0,0,1,,,,,,,,0,52,64
24600,note_on,0,0,1,,,,,,,,0,63,0
24600,note_on,0,0,1,,,,,,,,0,72,0
24600,note_on,0,0,1,,,,,,,,0,73,64
24600,note_on,0,0,1,,,,,,,,0,51,64
24600,note_on,0,0,1,,,,,,,,0,64,64
24600,note_on,60,0,1,,,,,,,,0,52,0
24660,note_on,60,0,1,,,,,,,,0,51,0
24660,note_on,0,0,1,,,,,,,,0,49,64
24720,note_on,0,0,1,,,,,,,,0,64,0
24720,note_on,60,0,1,,,,,,,,0,49,0
24720,note_on,0,0,1,,,,,,,,0,48,64
24720,note_on,0,0,1,,,,,,,,0,73,0
24720,note_on,0,0,1,,,,,,,,0,75,64
24720,note_on,0,0,1,,,,,,,,0,66,64
24780,note_on,0,0,1,,,,,,,,0,51,64
24780,note_on,60,0,1,,,,,,,,0,48,0
24840,note_on,0,0,1,,,,,,,,0,54,64
24840,note_on,0,0,1,,,,,,,,0,69,64
24840,note_on,0,0,1,,,,,,,,0,66,0
24840,note_on,60,0,1,,,,,,,,0,51,0
24900,note_on,0,0,1,,,,,,,,0,72,64
24900,note_on,0,0,1,,,,,,,,0,57,64
24900,note_on,0,0,1,,,,,,,,0,69,0
24900,note_on,60,0,1,,,,,,,,0,54,0
24960,note_on,0,0,1,,,,,,,,0,73,64
24960,note_on,60,0,1,,,,,,,,0,72,0
25020,note_on,60,0,1,,,,,,,,0,57,0
25020,note_on,0,0,1,,,,,,,,0,57,64
25080,note_on,0,0,1,,,,,,,,0,72,64
25080,note_on,0,0,1,,,,,,,,0,56,64
25080,note_on,0,0,1,,,,,,,,0,73,0
25080,note_on,60,0,1,,,,,,,,0,57,0
25140,note_on,60,0,1,,,,,,,,0,56,0
25140,note_on,0,0,1,,,,,,,,0,54,64
25200,note_on,0,0,1,,,,,,,,0,75,0
25200,note_on,0,0,1,,,,,,,,0,73,64
25200,note_on,60,0,1,,,,,,,,0,72,0
25260,note_on,0,0,1,,,,,,,,0,52,64
25260,note_on,60,0,1,,,,,,,,0,54,0
25320,note_on,0,0,1,,,,,,,,0,51,64
25320,note_on,0,0,1,,,,,,,,0,68,64
25320,note_on,60,0,1,,,,,,,,0,52,0
25380,note_on,0,0,1,,,,,,,,0,54,64
25380,note_on,60,0,1,,,,,,,,0,51,0
25440,note_on,60,0,1,,,,,,,,0,54,0
25440,note_on,0,0,1,,,,,,,,0,73,0
25440,note_on,0,0,1,,,,,,,,0,73,64
25440,note_on,0,0,1,,,,,,,,0,52,64
25440,note_on,0,0,1,,,,,,,,0,68,0
25500,note_on,60,0,1,,,,,,,,0,52,0
25500,note_on,0,0,1,,,,,,,,0,56,64
25560,note_on,60,0,1,,,,,,,,0,56,0
25560,note_on,0,0,1,,,,,,,,0,73,0
25560,note_on,0,0,1,,,,,,,,0,76,64
25560,note_on,0,0,1,,,,,,,,0,61,64
25620,note_on,60,0,1,,,,,,,,0,61,0
25620,note_on,0,0,1,,,,,,,,0,64,64
25680,note_on,0,0,1,,,,,,,,0,70,64
25680,note_on,60,0,1,,,,,,,,0,76,0
25680,note_on,0,0,1,,,,,,,,0,67,64
25740,note_on,60,0,1,,,,,,,,0,64,0
25740,note_on,0,0,1,,,,,,,,0,61,64
25800,note_on,0,0,1,,,,,,,,0,63,64
25800,note_on,0,0,1,,,,,,,,0,71,64
25800,note_on,0,0,1,,,,,,,,0,70,0
25800,note_on,60,0,1,,,,,,,,0,61,0
25860,note_on,0,0,1,,,,,,,,0,73,64
25860,note_on,0,0,1,,,,,,,,0,64,64
25860,note_on,0,0,1,,,,,,,,0,71,0
25860,note_on,60,0,1,,,,,,,,0,63,0
25920,note_on,0,0,1,,,,,,,,0,58,64
25920,note_on,0,0,1,,,,,,,,0,67,0
25920,note_on,0,0,1,,,,,,,,0,66,64
25920,note_on,60,0,1,,,,,,,,0,64,0
25980,note_on,0,0,1,,,,,,,,0,65,64
25980,note_on,60,0,1,,,,,,,,0,73,0
26040,note_on,0,0,1,,,,,,,,0,58,0
26040,note_on,60,0,1,,,,,,,,0,65,0
26040,note_on,0,0,1,,,,,,,,0,66,0
26040,note_on,0,0,1,,,,,,,,0,61,64
26040,note_on,0,0,1,,,,,,,,0,66,64
26100,note_on,0,0,1,,,,,,,,0,68,64
26100,note_on,60,0,1,,,,,,,,0,66,0
26160,note_on,0,0,1,,,,,,,,0,70,64
26160,note_on,0,0,1,,,,,,,,0,66,64
26160,note_on,0,0,1,,,,,,,,0,61,0
26160,note_on,60,0,1,,,,,,,,0,68,0
26220,note_on,60,0,1,,,,,,,,0,70,0
26220,note_on,0,0,1,,,,,,,,0,71,64
26280,note_on,0,0,1,,,,,,,,0,61,64
26280,note_on,0,0,1,,,,,,,,0,73,64
26280,note_on,60,0,1,,,,,,,,0,71,0
26280,note_on,0,0,1,,,,,,,,0,66,0
26340,note_on,0,0,1,,,,,,,,0,75,64
26340,note_on,60,0,1,,,,,,,,0,73,0
26400,note_on,0,0,1,,,,,,,,0,61,0
26400,note_on,0,0,1,,,,,,,,0,76,64
26400,note_on,0,0,1,,,,,,,,0,58,64
26400,note_on,60,0,1,,,,,,,,0,75,0
26460,note_on,0,0,1,,,,,,,,0,75,64
26460,note_on,60,0,1,,,,,,,,0,76,0
26520,note_on,60,0,1,,,,,,,,0,75,0
26520,note_on,0,0,1,,,,,,,,0,58,0
26520,note_on,0,0,1,,,,,,,,0,54,64
26520,note_on,0,0,1,,,,,,,,0,76,64
26580,note_on,60,0,1,,,,,,,,0,76,0
26580,note_on,0,0,1,,,,,,,,0,73,64
26640,note_on,60,0,1,,,,,,,,0,73,0
26640,note_on,0,0,1,,,,,,,,0,54,0
26640,note_on,0,0,1,,,,,,,,0,75,64
26640,note_on,0,0,1,,,,,,,,0,59,64
26700,note_on,60,0,1,,,,,,,,0,58,64
26760,note_on,0,0,1,,,,,,,,0,59,64
26760,note_on,0,0,1,,,,,,,,0,59,0
26760,note_on,60,0,1,,,,,,,,0,58,0
26820,note_on,0,0,1,,,,,,,,0,61,64
26820,note_on,60,0,1,,,,,,,,0,59,0
26880,note_on,0,0,1,,,,,,,,0,63,64
26880,note_on,60,0,1,,,,,,,,0,61,0
26940,note_on,60,0,1,,,,,,,,0,63,0
26940,note_on,0,0,1,,,,,,,,0,64,64
27000,note_on,60,0,1,,,,,,,,0,64,0
27000,note_on,0,0,1,,,,,,,,0,66,64
27060,note_on,0,0,1,,,,,,,,0,68,64
27060,note_on,60,0,1,,,,,,,,0,66,0
27120,note_on,0,0,1,,,,,,,,0,69,64
27120,note_on,60,0,1,,,,,,,,0,68,0
27180,note_on,0,0,1,,,,,,,,0,68,64
27180,note_on,60,0,1,,,,,,,,0,69,0
27240,note_on,0,0,1,,,,,,,,0,69,64
27240,note_on,60,0,1,,,,,,,,0,68,0
27300,note_on,0,0,1,,,,,,,,0,66,64
27300,note_on,60,0,1,,,,,,,,0,69,0
27360,note_on,0,0,1,,,,,,,,0,68,64
27360,note_on,60,0,1,,,,,,,,0,66,0
27420,note_on,60,0,1,,,,,,,,0,68,0
27420,note_on,0,0,1,,,,,,,,0,66,64
27420,note_on,0,0,1,,,,,,,,0,51,64
27480,note_on,0,0,1,,,,,,,,0,52,64
27480,note_on,0,0,1,,,,,,,,0,68,64
27480,note_on,0,0,1,,,,,,,,0,66,0
27480,note_on,60,0,1,,,,,,,,0,51,0
27540,note_on,0,0,1,,,,,,,,0,68,0
27540,note_on,0,0,1,,,,,,,,0,70,64
27540,note_on,0,0,1,,,,,,,,0,54,64
27540,note_on,60,0,1,,,,,,,,0,52,0
27600,note_on,0,0,1,,,,,,,,0,70,0
27600,note_on,0,0,1,,,,,,,,0,75,0
27600,note_on,0,0,1,,,,,,,,0,74,64
27600,note_on,0,0,1,,,,,,,,0,56,64
27600,note_on,0,0,1,,,,,,,,0,71,64
27600,note_on,60,0,1,,,,,,,,0,54,0
27660,note_on,0,0,1,,,,,,,,0,58,64
27660,note_on,60,0,1,,,,,,,,0,56,0
27720,note_on,0,0,1,,,,,,,,0,59,64
27720,note_on,0,0,1,,,,,,,,0,68,64
27720,note_on,0,0,1,,,,,,,,0,71,64
27720,note_on,0,0,1,,,,,,,,0,74,0
27720,note_on,0,0,1,,,,,,,,0,71,0
27720,note_on,60,0,1,,,,,,,,0,58,0
27780,note_on,0,0,1,,,,,,,,0,61,64
27780,note_on,60,0,1,,,,,,,,0,59,0
27840,note_on,60,0,1,,,,,,,,0,61,0
27840,note_on,0,0,1,,,,,,,,0,68,0
27840,note_on,0,0,1,,,,,,,,0,71,0
27840,note_on,0,0,1,,,,,,,,0,68,64
27840,note_on,0,0,1,,,,,,,,0,62,64
27840,note_on,0,0,1,,,,,,,,0,65,64
27900,note_on,60,0,1,,,,,,,,0,62,0
27900,note_on,0,0,1,,,,,,,,0,61,64
27960,note_on,60,0,1,,,,,,,,0,61,0
27960,note_on,0,0,1,,,,,,,,0,68,0
27960,note_on,0,0,1,,,,,,,,0,71,64
27960,note_on,0,0,1,,,,,,,,0,62,64
28020,note_on,60,0,1,,,,,,,,0,62,0
28020,note_on,0,0,1,,,,,,,,0,59,64
28080,note_on,0,0,1,,,,,,,,0,61,64
28080,note_on,60,0,1,,,,,,,,0,59,0
28080,note_on,0,0,1,,,,,,,,0,65,0
28080,note_on,0,0,1,,,,,,,,0,64,64
28140,note_on,0,0,1,,,,,,,,0,71,64
28140,note_on,60,0,1,,,,,,,,0,71,0
28200,note_on,0,0,1,,,,,,,,0,70,64
28200,note_on,60,0,1,,,,,,,,0,71,0
28260,note_on,60,0,1,,,,,,,,0,70,0
28260,note_on,0,0,1,,,,,,,,0,68,64
28320,note_on,60,0,1,,,,,,,,0,68,0
28320,note_on,0,0,1,,,,,,,,0,70,64
28380,note_on,60,0,1,,,,,,,,0,70,0
28380,note_on,0,0,1,,,,,,,,0,71,64
28440,note_on,0,0,1,,,,,,,,0,59,64
28440,note_on,0,0,1,,,,,,,,0,73,64
28440,note_on,0,0,1,,,,,,,,0,61,0
28440,note_on,60,0,1,,,,,,,,0,71,0
28500,note_on,60,0,1,,,,,,,,0,73,0
28500,note_on,0,0,1,,,,,,,,0,70,64
28560,note_on,0,0,1,,,,,,,,0,66,64
28560,note_on,0,0,1,,,,,,,,0,58,64
28560,note_on,60,0,1,,,,,,,,0,70,0
28560,note_on,0,0,1,,,,,,,,0,59,0
28620,note_on,0,0,1,,,,,,,,0,64,64
28620,note_on,60,0,1,,,,,,,,0,64,0
28680,note_on,0,0,1,,,,,,,,0,63,64
28680,note_on,0,0,1,,,,,,,,0,78,64
28680,note_on,60,0,1,,,,,,,,0,64,0
28680,note_on,0,0,1,,,,,,,,0,66,0
28740,note_on,60,0,1,,,,,,,,0,63,0
28740,note_on,0,0,1,,,,,,,,0,61,64
28800,note_on,60,0,1,,,,,,,,0,61,0
28800,note_on,0,0,1,,,,,,,,0,59,64
28800,note_on,0,0,1,,,,,,,,0,63,64
28800,note_on,0,0,1,,,,,,,,0,58,0
28860,note_on,0,0,1,,,,,,,,0,76,64
28860,note_on,60,0,1,,,,,,,,0,78,0
28920,note_on,0,0,1,,,,,,,,0,54,64
28920,note_on,0,0,1,,,,,,,,0,58,64
28920,note_on,0,0,1,,,,,,,,0,80,64
28920,note_on,0,0,1,,,,,,,,0,59,0
28920,note_on,0,0,1,,,,,,,,0,63,0
28920,note_on,60,0,1,,,,,,,,0,76,0
28980,note_on,0,0,1,,,,,,,,0,78,64
28980,note_on,60,0,1,,,,,,,,0,80,0
29040,note_on,60,0,1,,,,,,,,0,78,0
29040,note_on,0,0,1,,,,,,,,0,58,0
29040,note_on,0,0,1,,,,,,,,0,76,64
29040,note_on,0,0,1,,,,,,,,0,59,64
29040,note_on,0,0,1,,,,,,,,0,56,64
29040,note_on,0,0,1,,,,,,,,0,54,0
29100,note_on,0,0,1,,,,,,,,0,75,64
29100,note_on,60,0,1,,,,,,,,0,76,0
29160,note_on,0,0,1,,,,,,,,0,73,64
29160,note_on,60,0,1,,,,,,,,0,75,0
29160,note_on,0,0,1,,,,,,,,0,56,0
29160,note_on,0,0,1,,,,,,,,0,52,64
29220,note_on,0,0,1,,,,,,,,0,71,64
29220,note_on,60,0,1,,,,,,,,0,73,0
29280,note_on,0,0,1,,,,,,,,0,75,64
29280,note_on,0,0,1,,,,,,,,0,54,64
29280,note_on,0,0,1,,,,,,,,0,52,0
29280,note_on,60,0,1,,,,,,,,0,71,0
29340,note_on,60,0,1,,,,,,,,0,75,0
29340,note_on,0,0,1,,,,,,,,0,66,64
29400,note_on,0,0,1,,,,,,,,0,59,0
29400,note_on,0,0,1,,,,,,,,0,73,64
29400,note_on,0,0,1,,,,,,,,0,58,64
29400,note_on,60,0,1,,,,,,,,0,66,0
29460,note_on,0,0,1,,,,,,,,0,64,64
29460,note_on,60,0,1,,,,,,,,0,73,0
29520,note_on,0,0,1,,,,,,,,0,58,0
29520,note_on,60,0,1,,,,,,,,0,64,0
29520,note_on,0,0,1,,,,,,,,0,63,64
29520,note_on,0,0,1,,,,,,,,0,59,64
29520,note_on,0,0,1,,,,,,,,0,54,0
29580,note_on,60,0,1,,,,,,,,0,63,0
29580,note_on,0,0,1,,,,,,,,0,66,64
29640,note_on,60,0,1,,,,,,,,0,66,0
29640,note_on,0,0,1,,,,,,,,0,71,64
29640,note_on,0,0,1,,,,,,,,0,47,64
29700,note_on,0,0,1,,,,,,,,0,70,64
29700,note_on,60,0,1,,,,,,,,0,71,0
29760,note_on,0,0,1,,,,,,,,0,71,64
29760,note_on,60,0,1,,,,,,,,0,70,0
29760,note_on,0,0,1,,,,,,,,0,47,0
29760,note_on,0,0,1,,,,,,,,0,59,0
29760,note_on,0,0,1,,,,,,,,0,47,64
29820,note_on,60,0,1,,,,,,,,0,66,64
29880,note_on,0,0,1,,,,,,,,0,59,64
29880,note_on,0,0,1,,,,,,,,0,64,64
29880,note_on,0,0,1,,,,,,,,0,47,0
29880,note_on,60,0,1,,,,,,,,0,66,0
29940,note_on,0,0,1,,,,,,,,0,66,64
29940,note_on,60,0,1,,,,,,,,0,64,0
30000,note_on,0,0,1,,,,,,,,0,71,0
30000,note_on,0,0,1,,,,,,,,0,59,64
30000,note_on,60,0,1,,,,,,,,0,59,0
30000,note_on,0,0,1,,,,,,,,0,68,64
30060,note_on,60,0,1,,,,,,,,0,66,0
30060,note_on,0,0,1,,,,,,,,0,64,64
30120,note_on,0,0,1,,,,,,,,0,59,0
30120,note_on,0,0,1,,,,,,,,0,47,64
30120,note_on,0,0,1,,,,,,,,0,63,64
30120,note_on,60,0,1,,,,,,,,0,64,0
30180,note_on,60,0,1,,,,,,,,0,63,0
30180,note_on,0,0,1,,,,,,,,0,64,64
30240,note_on,60,0,1,,,,,,,,0,47,0
30240,note_on,0,0,1,,,,,,,,0,59,64
30240,note_on,0,0,1,,,,,,,,0,68,0
30240,note_on,0,0,1,,,,,,,,0,66,64
30300,note_on,0,0,1,,,,,,,,0,68,64
30300,note_on,60,0,1,,,,,,,,0,66,0
30360,note_on,0,0,1,,,,,,,,0,69,64
30360,note_on,0,0,1,,,,,,,,0,59,0
30360,note_on,60,0,1,,,,,,,,0,68,0
30360,note_on,0,0,1,,,,,,,,0,47,64
30420,note_on,60,0,1,,,,,,,,0,69,0
30420,note_on,0,0,1,,,,,,,,0,68,64
30480,note_on,0,0,1,,,,,,,,0,47,64
30480,note_on,0,0,1,,,,,,,,0,69,64
30480,note_on,0,0,1,,,,,,,,0,64,0
30480,note_on,0,0,1,,,,,,,,0,47,0
30480,note_on,60,0,1,,,,,,,,0,68,0
30540,note_on,60,0,1,,,,,,,,0,64,64
30600,note_on,0,0,1,,,,,,,,0,47,0
30600,note_on,0,0,1,,,,,,,,0,63,64
30600,note_on,60,0,1,,,,,,,,0,64,0
30600,note_on,0,0,1,,,,,,,,0,59,64
30660,note_on,0,0,1,,,,,,,,0,64,64
30660,note_on,60,0,1,,,,,,,,0,63,0
30720,note_on,0,0,1,,,,,,,,0,66,64
30720,note_on,0,0,1,,,,,,,,0,69,0
30720,note_on,60,0,1,,,,,,,,0,59,0
30720,note_on,0,0,1,,,,,,,,0,59,64
30780,note_on,0,0,1,,,,,,,,0,63,64
30780,note_on,60,0,1,,,,,,,,0,64,0
30840,note_on,0,0,1,,,,,,,,0,61,64
30840,note_on,0,0,1,,,,,,,,0,47,64
30840,note_on,0,0,1,,,,,,,,0,59,0
30840,note_on,60,0,1,,,,,,,,0,63,0
30900,note_on,0,0,1,,,,,,,,0,63,64
30900,note_on,60,0,1,,,,,,,,0,61,0
30960,note_on,0,0,1,,,,,,,,0,59,64
30960,note_on,0,0,1,,,,,,,,0,66,0
30960,note_on,0,0,1,,,,,,,,0,64,64
30960,note_on,60,0,1,,,,,,,,0,47,0
31020,note_on,0,0,1,,,,,,,,0,66,64
31020,note_on,60,0,1,,,,,,,,0,64,0
31080,note_on,0,0,1,,,,,,,,0,59,0
31080,note_on,60,0,1,,,,,,,,0,66,0
31080,note_on,0,0,1,,,,,,,,0,47,64
31080,note_on,0,0,1,,,,,,,,0,67,64
31140,note_on,60,0,1,,,,,,,,0,67,0
31140,note_on,0,0,1,,,,,,,,0,66,64
31200,note_on,0,0,1,,,,,,,,0,47,0
31200,note_on,0,0,1,,,,,,,,0,63,0
31200,note_on,0,0,1,,,,,,,,0,67,64
31200,note_on,0,0,1,,,,,,,,0,47,64
31200,note_on,60,0,1,,,,,,,,0,66,0
31260,note_on,60,0,1,,,,,,,,0,63,64
31320,note_on,0,0,1,,,,,,,,0,47,0
31320,note_on,0,0,1,,,,,,,,0,59,64
31320,note_on,0,0,1,,,,,,,,0,61,64
31320,note_on,60,0,1,,,,,,,,0,63,0
31380,note_on,0,0,1,,,,,,,,0,63,64
31380,note_on,60,0,1,,,,,,,,0,61,0
31440,note_on,0,0,1,,,,,,,,0,67,0
31440,note_on,60,0,1,,,,,,,,0,59,0
31440,note_on,0,0,1,,,,,,,,0,59,64
31440,note_on,0,0,1,,,,,,,,0,64,64
31500,note_on,60,0,1,,,,,,,,0,63,0
31500,note_on,0,0,1,,,,,,,,0,61,64
31560,note_on,60,0,1,,,,,,,,0,61,0
31560,note_on,0,0,1,,,,,,,,0,59,0
31560,note_on,0,0,1,,,,,,,,0,47,64
31560,note_on,0,0,1,,,,,,,,0,59,64
31620,note_on,0,0,1,,,,,,,,0,61,64
31620,note_on,60,0,1,,,,,,,,0,59,0
31680,note_on,60,0,1,,,,,,,,0,47,0
31680,note_on,0,0,1,,,,,,,,0,59,64
31800,note_on,120,0,1,,,,,,,,0,59,0
31800,note_on,0,0,1,,,,,,,,0,73,64
31800,note_on,0,0,1,,,,,,,,0,59,64
31800,note_on,0,0,1,,,,,,,,0,64,0
31824,note_on,24,0,1,,,,,,,,0,58,64
31830,note_on,6,0,1,,,,,,,,0,59,0
31844,note_on,14,0,1,,,,,,,,0,59,64
31854,note_on,10,0,1,,,,,,,,0,58,0
31868,note_on,14,0,1,,,,,,,,0,58,64
31874,note_on,6,0,1,,,,,,,,0,59,0
31920,note_on,0,0,1,,,,,,,,0,73,0
31920,note_on,0,0,1,,,,,,,,0,73,64
31920,note_on,46,0,1,,,,,,,,0,61,0
31980,note_on,60,0,1,,,,,,,,0,54,64
31983,note_on,3,0,1,,,,,,,,0,58,0
32040,note_on,0,0,1,,,,,,,,0,64,64
32040,note_on,0,0,1,,,,,,,,0,73,0
32040,note_on,57,0,1,,,,,,,,0,54,0
32040,note_on,0,0,1,,,,,,,,0,56,64
32040,note_on,0,0,1,,,,,,,,0,61,64
32100,note_on,60,0,1,,,,,,,,0,56,0
32100,note_on,0,0,1,,,,,,,,0,58,64
32160,note_on,60,0,1,,,,,,,,0,58,0
32160,note_on,0,0,1,,,,,,,,0,61,0
32160,note_on,0,0,1,,,,,,,,0,64,0
32160,note_on,0,0,1,,,,,,,,0,63,64
32160,note_on,0,0,1,,,,,,,,0,59,64
32160,note_on,0,0,1,,,,,,,,0,59,64
32220,note_on,60,0,1,,,,,,,,0,59,0
32220,note_on,0,0,1,,,,,,,,0,56,64
32280,note_on,60,0,1,,,,,,,,0,56,0
32280,note_on,0,0,1,,,,,,,,0,54,64
32280,note_on,0,0,1,,,,,,,,0,78,64
32280,note_on,0,0,1,,,,,,,,0,63,0
32340,note_on,0,0,1,,,,,,,,0,52,64
32340,note_on,60,0,1,,,,,,,,0,54,0
32400,note_on,0,0,1,,,,,,,,0,78,0
32400,note_on,60,0,1,,,,,,,,0,52,0
32400,note_on,0,0,1,,,,,,,,0,51,64
32400,note_on,0,0,1,,,,,,,,0,59,0
32400,note_on,0,0,1,,,,,,,,0,78,64
32460,note_on,60,0,1,,,,,,,,0,51,0
32460,note_on,0,0,1,,,,,,,,0,49,64
32520,note_on,60,0,1,,,,,,,,0,49,0
32520,note_on,0,0,1,,,,,,,,0,78,0
32520,note_on,0,0,1,,,,,,,,0,63,64
32520,note_on,0,0,1,,,,,,,,0,51,64
32520,note_on,0,0,1,,,,,,,,0,71,64
32580,note_on,60,0,1,,,,,,,,0,51,0
32580,note_on,0,0,1,,,,,,,,0,52,64
32640,note_on,60,0,1,,,,,,,,0,52,0
32640,note_on,0,0,1,,,,,,,,0,54,64
32640,note_on,0,0,1,,,,,,,,0,61,64
32640,note_on,0,0,1,,,,,,,,0,70,64
32640,note_on,0,0,1,,,,,,,,0,71,0
32640,note_on,0,0,1,,,,,,,,0,63,0
32700,note_on,0,0,1,,,,,,,,0,51,64
32700,note_on,60,0,1,,,,,,,,0,54,0
32760,note_on,60,0,1,,,,,,,,0,51,0
32760,note_on,0,0,1,,,,,,,,0,76,64
32760,note_on,0,0,1,,,,,,,,0,49,64
32760,note_on,0,0,1,,,,,,,,0,70,0
32820,note_on,0,0,1,,,,,,,,0,47,64
32820,note_on,60,0,1,,,,,,,,0,49,0
32880,note_on,0,0,1,,,,,,,,0,76,64
32880,note_on,0,0,1,,,,,,,,0,61,0
32880,note_on,0,0,1,,,,,,,,0,76,0
32880,note_on,60,0,1,,,,,,,,0,47,0
32880,note_on,0,0,1,,,,,,,,0,46,64
32940,note_on,0,0,1,,,,,,,,0,44,64
32940,note_on,60,0,1,,,,,,,,0,46,0
33000,note_on,0,0,1,,,,,,,,0,46,64
33000,note_on,0,0,1,,,,,,,,0,66,64
33000,note_on,0,0,1,,,,,,,,0,61,64
33000,note_on,0,0,1,,,,,,,,0,64,64
33000,note_on,0,0,1,,,,,,,,0,76,0
33000,note_on,60,0,1,,,,,,,,0,44,0
33060,note_on,0,0,1,,,,,,,,0,47,64
33060,note_on,60,0,1,,,,,,,,0,46,0
33120,note_on,0,0,1,,,,,,,,0,66,0
33120,note_on,0,0,1,,,,,,,,0,61,0
33120,note_on,0,0,1,,,,,,,,0,64,0
33120,note_on,0,0,1,,,,,,,,0,58,64
33120,note_on,0,0,1,,,,,,,,0,64,64
33120,note_on,0,0,1,,,,,,,,0,49,64
33120,note_on,60,0,1,,,,,,,,0,47,0
33120,note_on,0,0,1,,,,,,,,0,66,64
33180,note_on,0,0,1,,,,,,,,0,46,64
33180,note_on,60,0,1,,,,,,,,0,49,0
33240,note_on,0,0,1,,,,,,,,0,44,64
33240,note_on,60,0,1,,,,,,,,0,46,0
33300,note_on,0,0,1,,,,,,,,0,42,64
33300,note_on,60,0,1,,,,,,,,0,44,0
33360,note_on,0,0,1,,,,,,,,0,58,0
33360,note_on,60,0,1,,,,,,,,0,42,0
33360,note_on,0,0,1,,,,,,,,0,47,64
33360,note_on,0,0,1,,,,,,,,0,59,64
33420,note_on,60,0,1,,,,,,,,0,64,0
33420,note_on,0,0,1,,,,,,,,0,63,64
33480,note_on,60,0,1,,,,,,,,0,66,0
33480,note_on,0,0,1,,,,,,,,0,47,0
33480,note_on,0,0,1,,,,,,,,0,68,64
33480,note_on,0,0,1,,,,,,,,0,44,64
33540,note_on,0,0,1,,,,,,,,0,71,64
33540,note_on,60,0,1,,,,,,,,0,68,0
33600,note_on,0,0,1,,,,,,,,0,59,0
33600,note_on,60,0,1,,,,,,,,0,63,0
33600,note_on,0,0,1,,,,,,,,0,44,0
33600,note_on,0,0,1,,,,,,,,0,40,64
33600,note_on,0,0,1,,,,,,,,0,61,64
33660,note_on,0,0,1,,,,,,,,0,71,64
33660,note_on,60,0,1,,,,,,,,0,71,0
33720,note_on,0,0,1,,,,,,,,0,42,64
33720,note_on,0,0,1,,,,,,,,0,54,64
33720,note_on,0,0,1,,,,,,,,0,61,0
33720,note_on,60,0,1,,,,,,,,0,40,0
33720,note_on,0,0,1,,,,,,,,0,64,64
33780,note_on,0,0,1,,,,,,,,0,70,64
33780,note_on,60,0,1,,,,,,,,0,71,0
33840,note_on,0,0,1,,,,,,,,0,71,64
33840,note_on,0,0,1,,,,,,,,0,47,64
33840,note_on,0,0,1,,,,,,,,0,42,0
33840,note_on,60,0,1,,,,,,,,0,70,0
33900,note_on,0,0,1,,,,,,,,0,63,64
33900,note_on,60,0,1,,,,,,,,0,64,0
33960,note_on,0,0,1,,,,,,,,0,64,64
33960,note_on,0,0,1,,,,,,,,0,55,64
33960,note_on,60,0,1,,,,,,,,0,54,0
33960,note_on,0,0,1,,,,,,,,0,71,0
34020,note_on,60,0,1,,,,,,,,0,63,0
34020,note_on,0,0,1,,,,,,,,0,61,64
34080,note_on,60,0,1,,,,,,,,0,64,0
34080,note_on,0,0,1,,,,,,,,0,54,64
34080,note_on,0,0,1,,,,,,,,0,63,64
34080,note_on,0,0,1,,,,,,,,0,55,0
34140,note_on,0,0,1,,,,,,,,0,59,64
34140,note_on,60,0,1,,,,,,,,0,61,0
34200,note_on,0,0,1,,,,,,,,0,61,64
34200,note_on,0,0,1,,,,,,,,0,52,64
34200,note_on,0,0,1,,,,,,,,0,54,0
34200,note_on,60,0,1,,,,,,,,0,63,0
34260,note_on,0,0,1,,,,,,,,0,58,64
34260,note_on,60,0,1,,,,,,,,0,59,0
34320,note_on,60,0,1,,,,,,,,0,58,0
34320,note_on,0,0,1,,,,,,,,0,59,64
34320,note_on,0,0,1,,,,,,,,0,54,64
34320,note_on,0,0,1,,,,,,,,0,63,64
34320,note_on,0,0,1,,,,,,,,0,61,0
34320,note_on,0,0,1,,,,,,,,0,52,0
34560,note_on,240,0,1,,,,,,,,0,63,0
34560,note_on,0,0,1,,,,,,,,0,47,0
34560,note_on,0,0,1,,,,,,,,0,54,0
34560,note_on,0,0,1,,,,,,,,0,59,64
34560,note_on,0,0,1,,,,,,,,0,59,0
34680,note_on,120,0,1,,,,,,,,0,78,64
34800,note_on,120,0,1,,,,,,,,0,78,0
34800,note_on,0,0,1,,,,,,,,0,80,64
34920,note_on,120,0,1,,,,,,,,0,75,64
35040,note_on,0,0,1,,,,,,,,0,76,64
35040,note_on,120,0,1,,,,,,,,0,75,0
35100,note_on,0,0,1,,,,,,,,0,80,64
35100,note_on,60,0,1,,,,,,,,0,80,0
35160,note_on,0,0,1,,,,,,,,0,78,64
35160,note_on,60,0,1,,,,,,,,0,80,0
35220,note_on,0,0,1,,,,,,,,0,76,64
35220,note_on,60,0,1,,,,,,,,0,78,0
35280,note_on,60,0,1,,,,,,,,0,76,0
35280,note_on,0,0,1,,,,,,,,0,78,64
35340,note_on,60,0,1,,,,,,,,0,76,0
35340,note_on,0,0,1,,,,,,,,0,76,64
35400,note_on,0,0,1,,,,,,,,0,75,64
35400,note_on,60,0,1,,,,,,,,0,76,0
35460,note_on,0,0,1,,,,,,,,0,73,64
35460,note_on,60,0,1,,,,,,,,0,75,0
35520,note_on,60,0,1,,,,,,,,0,73,0
35520,note_on,0,0,1,,,,,,,,0,59,0
35520,note_on,0,0,1,,,,,,,,0,75,64
35520,note_on,0,0,1,,,,,,,,0,61,72
35550,note_on,0,0,1,,,,,,,,0,60,61
35550,note_on,30,0,1,,,,,,,,0,61,0
35580,note_on,0,0,1,,,,,,,,0,78,64
35580,note_on,0,0,1,,,,,,,,0,61,62
35580,note_on,30,0,1,,,,,,,,0,78,0
35583,note_on,3,0,1,,,,,,,,0,60,0
35610,note_on,27,0,1,,,,,,,,0,60,62
35613,note_on,3,0,1,,,,,,,,0,61,0
35640,note_on,0,0,1,,,,,,,,0,80,64
35640,note_on,0,0,1,,,,,,,,0,61,53
35640,note_on,27,0,1,,,,,,,,0,78,0
35643,note_on,3,0,1,,,,,,,,0,60,0
35670,note_on,27,0,1,,,,,,,,0,60,51
35673,note_on,3,0,1,,,,,,,,0,61,0
35700,note_on,0,0,1,,,,,,,,0,61,45
35700,note_on,0,0,1,,,,,,,,0,81,64
35700,note_on,27,0,1,,,,,,,,0,80,0
35703,note_on,3,0,1,,,,,,,,0,60,0
35730,note_on,27,0,1,,,,,,,,0,60,53
35733,note_on,3,0,1,,,,,,,,0,61,0
35760,note_on,27,0,1,,,,,,,,0,81,0
35760,note_on,0,0,1,,,,,,,,0,75,0
35760,note_on,0,0,1,,,,,,,,0,80,64
35760,note_on,0,0,1,,,,,,,,0,61,66
35763,note_on,3,0,1,,,,,,,,0,60,0
35790,note_on,27,0,1,,,,,,,,0,60,69
35793,note_on,3,0,1,,,,,,,,0,61,0
35820,note_on,0,0,1,,,,,,,,0,78,64
35820,note_on,0,0,1,,,,,,,,0,61,69
35820,note_on,27,0,1,,,,,,,,0,80,0
35823,note_on,3,0,1,,,,,,,,0,60,0
35850,note_on,27,0,1,,,,,,,,0,60,63
35853,note_on,3,0,1,,,,,,,,0,61,0
35880,note_on,0,0,1,,,,,,,,0,61,57
35880,note_on,0,0,1,,,,,,,,0,76,64
35880,note_on,27,0,1,,,,,,,,0,78,0
35883,note_on,3,0,1,,,,,,,,0,60,0
35910,note_on,27,0,1,,,,,,,,0,60,53
35913,note_on,3,0,1,,,,,,,,0,61,0
35940,note_on,0,0,1,,,,,,,,0,61,61
35940,note_on,0,0,1,,,,,,,,0,75,64
35940,note_on,27,0,1,,,,,,,,0,76,0
35943,note_on,3,0,1,,,,,,,,0,60,0
35970,note_on,27,0,1,,,,,,,,0,60,59
35973,note_on,3,0,1,,,,,,,,0,61,0
36000,note_on,0,0,1,,,,,,,,0,61,64
36000,note_on,0,0,1,,,,,,,,0,76,64
36000,note_on,27,0,1,,,,,,,,0,75,0
36003,note_on,3,0,1,,,,,,,,0,60,0
36060,note_on,57,0,1,,,,,,,,0,75,64
36120,note_on,60,0,1,,,,,,,,0,75,0
36120,note_on,0,0,1,,,,,,,,0,73,64
36180,note_on,60,0,1,,,,,,,,0,73,0
36180,note_on,0,0,1,,,,,,,,0,72,64
36240,note_on,0,0,1,,,,,,,,0,73,64
36240,note_on,60,0,1,,,,,,,,0,72,0
36300,note_on,0,0,1,,,,,,,,0,59,64
36300,note_on,60,0,1,,,,,,,,0,61,0
36360,note_on,60,0,1,,,,,,,,0,59,0
36360,note_on,0,0,1,,,,,,,,0,76,0
36360,note_on,0,0,1,,,,,,,,0,57,64
36360,note_on,0,0,1,,,,,,,,0,76,64
36420,note_on,60,0,1,,,,,,,,0,57,0
36420,note_on,0,0,1,,,,,,,,0,56,64
36480,note_on,60,0,1,,,,,,,,0,56,0
36480,note_on,0,0,1,,,,,,,,0,73,0
36480,note_on,0,0,1,,,,,,,,0,66,64
36480,note_on,0,0,1,,,,,,,,0,75,64
36480,note_on,0,0,1,,,,,,,,0,57,64
36480,note_on,0,0,1,,,,,,,,0,76,0
36540,note_on,60,0,1,,,,,,,,0,57,0
36540,note_on,0,0,1,,,,,,,,0,61,64
36600,note_on,60,0,1,,,,,,,,0,61,0
36600,note_on,0,0,1,,,,,,,,0,54,64
36600,note_on,0,0,1,,,,,,,,0,73,64
36600,note_on,0,0,1,,,,,,,,0,75,0
36660,note_on,0,0,1,,,,,,,,0,57,64
36660,note_on,60,0,1,,,,,,,,0,54,0
36720,note_on,0,0,1,,,,,,,,0,73,0
36720,note_on,60,0,1,,,,,,,,0,57,0
36720,note_on,0,0,1,,,,,,,,0,56,64
36720,note_on,0,0,1,,,,,,,,0,72,64
36780,note_on,60,0,1,,,,,,,,0,66,0
36780,note_on,0,0,1,,,,,,,,0,66,64
36840,note_on,0,0,1,,,,,,,,0,56,0
36840,note_on,0,0,1,,,,,,,,0,68,64
36840,note_on,0,0,1,,,,,,,,0,44,64
36840,note_on,60,0,1,,,,,,,,0,66,0
36900,note_on,0,0,1,,,,,,,,0,69,64
36900,note_on,60,0,1,,,,,,,,0,68,0
36960,note_on,60,0,1,,,,,,,,0,69,0
36960,note_on,0,0,1,,,,,,,,0,44,0
36960,note_on,0,0,1,,,,,,,,0,68,64
36960,note_on,0,0,1,,,,,,,,0,56,64
37020,note_on,60,0,1,,,,,,,,0,68,0
37020,note_on,0,0,1,,,,,,,,0,66,64
37080,note_on,0,0,1,,,,,,,,0,57,64
37080,note_on,0,0,1,,,,,,,,0,64,64
37080,note_on,0,0,1,,,,,,,,0,56,0
37080,note_on,60,0,1,,,,,,,,0,66,0
37140,note_on,0,0,1,,,,,,,,0,63,64
37140,note_on,60,0,1,,,,,,,,0,64,0
37200,note_on,0,0,1,,,,,,,,0,57,0
37200,note_on,60,0,1,,,,,,,,0,63,0
37200,note_on,0,0,1,,,,,,,,0,61,64
37200,note_on,0,0,1,,,,,,,,0,56,64
37200,note_on,0,0,1,,,,,,,,0,72,0
37260,note_on,60,0,1,,,,,,,,0,61,0
37260,note_on,0,0,1,,,,,,,,0,60,64
37320,note_on,0,0,1,,,,,,,,0,54,64
37320,note_on,0,0,1,,,,,,,,0,61,64
37320,note_on,0,0,1,,,,,,,,0,56,0
37320,note_on,60,0,1,,,,,,,,0,60,0
37380,note_on,60,0,1,,,,,,,,0,61,0
37380,note_on,0,0,1,,,,,,,,0,63,64
37440,note_on,0,0,1,,,,,,,,0,52,64
37440,note_on,0,0,1,,,,,,,,0,56,64
37440,note_on,60,0,1,,,,,,,,0,63,0
37440,note_on,0,0,1,,,,,,,,0,54,0
37500,note_on,60,0,1,,,,,,,,0,73,64
37560,note_on,60,0,1,,,,,,,,0,73,0
37560,note_on,0,0,1,,,,,,,,0,61,64
37560,note_on,0,0,1,,,,,,,,0,68,64
37560,note_on,0,0,1,,,,,,,,0,52,0
37560,note_on,0,0,1,,,,,,,,0,56,0
37620,note_on,60,0,1,,,,,,,,0,68,0
37620,note_on,0,0,1,,,,,,,,0,67,64
37680,note_on,60,0,1,,,,,,,,0,67,0
37680,note_on,0,0,1,,,,,,,,0,61,0
37680,note_on,0,0,1,,,,,,,,0,61,64
37680,note_on,0,0,1,,,,,,,,0,68,64
37740,note_on,0,0,1,,,,,,,,0,72,64
37740,note_on,60,0,1,,,,,,,,0,68,0
37800,note_on,0,0,1,,,,,,,,0,56,64
37800,note_on,0,0,1,,,,,,,,0,73,64
37800,note_on,0,0,1,,,,,,,,0,61,0
37800,note_on,60,0,1,,,,,,,,0,72,0
37860,note_on,0,0,1,,,,,,,,0,75,64
37860,note_on,60,0,1,,,,,,,,0,73,0
37920,note_on,60,0,1,,,,,,,,0,75,0
37920,note_on,0,0,1,,,,,,,,0,76,64
37920,note_on,0,0,1,,,,,,,,0,56,64
37920,note_on,0,0,1,,,,,,,,0,56,0
37920,note_on,0,0,1,,,,,,,,0,49,64
37980,note_on,60,0,1,,,,,,,,0,76,0
37980,note_on,0,0,1,,,,,,,,0,75,64
38040,note_on,60,0,1,,,,,,,,0,75,0
38040,note_on,0,0,1,,,,,,,,0,56,64
38040,note_on,0,0,1,,,,,,,,0,76,64
38040,note_on,0,0,1,,,,,,,,0,56,0
38100,note_on,60,0,1,,,,,,,,0,76,0
38100,note_on,0,0,1,,,,,,,,0,73,64
38160,note_on,60,0,1,,,,,,,,0,73,0
38160,note_on,0,0,1,,,,,,,,0,48,64
38160,note_on,0,0,1,,,,,,,,0,56,64
38160,note_on,0,0,1,,,,,,,,0,75,64
38160,note_on,0,0,1,,,,,,,,0,49,0
38160,note_on,0,0,1,,,,,,,,0,56,0
38220,note_on,0,0,1,,,,,,,,0,72,64
38220,note_on,60,0,1,,,,,,,,0,75,0
38280,note_on,0,0,1,,,,,,,,0,68,64
38280,note_on,0,0,1,,,,,,,,0,56,0
38280,note_on,0,0,1,,,,,,,,0,63,64
38280,note_on,60,0,1,,,,,,,,0,72,0
38280,note_on,0,0,1,,,,,,,,0,48,0
38340,note_on,0,0,1,,,,,,,,0,67,64
38340,note_on,60,0,1,,,,,,,,0,68,0
38400,note_on,0,0,1,,,,,,,,0,63,0
38400,note_on,60,0,1,,,,,,,,0,67,0
38400,note_on,0,0,1,,,,,,,,0,63,64
38400,note_on,0,0,1,,,,,,,,0,68,64
38460,note_on,60,0,1,,,,,,,,0,68,0
38460,note_on,0,0,1,,,,,,,,0,72,64
38520,note_on,0,0,1,,,,,,,,0,63,0
38520,note_on,0,0,1,,,,,,,,0,75,64
38520,note_on,0,0,1,,,,,,,,0,56,64
38520,note_on,60,0,1,,,,,,,,0,72,0
38580,note_on,60,0,1,,,,,,,,0,75,0
38580,note_on,0,0,1,,,,,,,,0,76,64
38640,note_on,0,0,1,,,,,,,,0,56,0
38640,note_on,0,0,1,,,,,,,,0,56,64
38640,note_on,0,0,1,,,,,,,,0,78,64
38640,note_on,60,0,1,,,,,,,,0,76,0
38640,note_on,0,0,1,,,,,,,,0,44,64
38700,note_on,0,0,1,,,,,,,,0,76,64
38700,note_on,60,0,1,,,,,,,,0,78,0
38760,note_on,0,0,1,,,,,,,,0,56,0
38760,note_on,60,0,1,,,,,,,,0,76,0
38760,note_on,0,0,1,,,,,,,,0,78,64
38760,note_on,0,0,1,,,,,,,,0,56,64
38820,note_on,60,0,1,,,,,,,,0,78,0
38820,note_on,0,0,1,,,,,,,,0,75,64
38880,note_on,60,0,1,,,,,,,,0,75,0
38880,note_on,0,0,1,,,,,,,,0,44,0
38880,note_on,0,0,1,,,,,,,,0,76,64
38880,note_on,0,0,1,,,,,,,,0,56,64
38880,note_on,0,0,1,,,,,,,,0,49,64
38880,note_on,0,0,1,,,,,,,,0,56,0
38940,note_on,60,0,1,,,,,,,,0,56,0
38940,note_on,0,0,1,,,,,,,,0,73,64
39000,note_on,0,0,1,,,,,,,,0,68,64
39000,note_on,60,0,1,,,,,,,,0,73,0
39000,note_on,0,0,1,,,,,,,,0,49,0
39000,note_on,0,0,1,,,,,,,,0,52,64
39060,note_on,60,0,1,,,,,,,,0,68,0
39060,note_on,0,0,1,,,,,,,,0,71,64
39120,note_on,0,0,1,,,,,,,,0,54,64
39120,note_on,0,0,1,,,,,,,,0,69,64
39120,note_on,0,0,1,,,,,,,,0,52,0
39120,note_on,60,0,1,,,,,,,,0,71,0
39180,note_on,0,0,1,,,,,,,,0,73,64
39180,note_on,60,0,1,,,,,,,,0,69,0
39240,note_on,60,0,1,,,,,,,,0,73,0
39240,note_on,0,0,1,,,,,,,,0,66,64
39240,note_on,0,0,1,,,,,,,,0,57,64
39240,note_on,0,0,1,,,,,,,,0,54,0
39300,note_on,60,0,1,,,,,,,,0,76,0
39300,note_on,0,0,1,,,,,,,,0,75,64
39360,note_on,0,0,1,,,,,,,,0,55,64
39360,note_on,0,0,1,,,,,,,,0,64,64
39360,note_on,0,0,1,,,,,,,,0,66,0
39360,note_on,60,0,1,,,,,,,,0,57,0
39420,note_on,0,0,1,,,,,,,,0,73,64
39420,note_on,60,0,1,,,,,,,,0,75,0
39480,note_on,60,0,1,,,,,,,,0,55,0
39480,note_on,0,0,1,,,,,,,,0,63,64
39480,note_on,0,0,1,,,,,,,,0,64,0
39480,note_on,0,0,1,,,,,,,,0,56,64
39540,note_on,0,0,1,,,,,,,,0,72,64
39540,note_on,60,0,1,,,,,,,,0,73,0
39600,note_on,60,0,1,,,,,,,,0,72,0
39600,note_on,0,0,1,,,,,,,,0,63,0
39600,note_on,0,0,1,,,,,,,,0,73,64
39600,note_on,0,0,1,,,,,,,,0,49,64
39600,note_on,0,0,1,,,,,,,,0,64,64
39600,note_on,0,0,1,,,,,,,,0,56,0
39660,note_on,0,0,1,,,,,,,,0,69,64
39660,note_on,60,0,1,,,,,,,,0,64,0
39720,note_on,0,0,1,,,,,,,,0,49,0
39720,note_on,60,0,1,,,,,,,,0,69,0
39720,note_on,0,0,1,,,,,,,,0,52,64
39720,note_on,0,0,1,,,,,,,,0,68,64
39780,note_on,60,0,1,,,,,,,,0,68,0
39780,note_on,0,0,1,,,,,,,,0,66,64
39840,note_on,0,0,1,,,,,,,,0,56,64
39840,note_on,0,0,1,,,,,,,,0,64,64
39840,note_on,0,0,1,,,,,,,,0,73,0
39840,note_on,0,0,1,,,,,,,,0,52,0
39840,note_on,60,0,1,,,,,,,,0,66,0
39900,note_on,0,0,1,,,,,,,,0,63,64
39900,note_on,60,0,1,,,,,,,,0,64,0
39960,note_on,60,0,1,,,,,,,,0,63,0
39960,note_on,0,0,1,,,,,,,,0,61,64
39960,note_on,0,0,1,,,,,,,,0,56,0
39960,note_on,0,0,1,,,,,,,,0,64,64
40020,note_on,0,0,1,,,,,,,,0,66,64
40020,note_on,60,0,1,,,,,,,,0,64,0
40080,note_on,60,0,1,,,,,,,,0,66,0
40080,note_on,0,0,1,,,,,,,,0,68,64
40080,note_on,0,0,1,,,,,,,,0,59,64
40080,note_on,0,0,1,,,,,,,,0,61,0
40140,note_on,60,0,1,,,,,,,,0,68,0
40140,note_on,0,0,1,,,,,,,,0,69,64
40200,note_on,0,0,1,,,,,,,,0,71,64
40200,note_on,0,0,1,,,,,,,,0,57,64
40200,note_on,0,0,1,,,,,,,,0,59,0
40200,note_on,60,0,1,,,,,,,,0,69,0
40230,note_on,0,0,1,,,,,,,,0,69,64
40230,note_on,30,0,1,,,,,,,,0,71,0
40260,note_on,30,0,1,,,,,,,,0,69,0
40260,note_on,0,0,1,,,,,,,,0,68,64
40290,note_on,30,0,1,,,,,,,,0,68,0
40290,note_on,0,0,1,,,,,,,,0,69,64
40320,note_on,30,0,1,,,,,,,,0,69,0
40320,note_on,0,0,1,,,,,,,,0,71,64
40320,note_on,0,0,1,,,,,,,,0,56,64
40320,note_on,0,0,1,,,,,,,,0,57,0
40380,note_on,60,0,1,,,,,,,,0,76,64
40440,note_on,60,0,1,,,,,,,,0,76,0
40440,note_on,0,0,1,,,,,,,,0,59,64
40440,note_on,0,0,1,,,,,,,,0,75,64
40440,note_on,0,0,1,,,,,,,,0,71,0
40440,note_on,0,0,1,,,,,,,,0,56,0
40500,note_on,0,0,1,,,,,,,,0,73,64
40500,note_on,60,0,1,,,,,,,,0,75,0
40560,note_on,0,0,1,,,,,,,,0,64,64
40560,note_on,0,0,1,,,,,,,,0,71,64
40560,note_on,60,0,1,,,,,,,,0,73,0
40560,note_on,0,0,1,,,,,,,,0,59,0
40620,note_on,60,0,1,,,,,,,,0,71,0
40620,note_on,0,0,1,,,,,,,,0,70,64
40680,note_on,60,0,1,,,,,,,,0,70,0
40680,note_on,0,0,1,,,,,,,,0,71,64
40680,note_on,0,0,1,,,,,,,,0,68,64
40680,note_on,0,0,1,,,,,,,,0,64,0
40740,note_on,60,0,1,,,,,,,,0,71,0
40740,note_on,0,0,1,,,,,,,,0,73,64
40800,note_on,60,0,1,,,,,,,,0,73,0
40800,note_on,0,0,1,,,,,,,,0,66,64
40800,note_on,0,0,1,,,,,,,,0,75,64
40800,note_on,0,0,1,,,,,,,,0,68,0
40860,note_on,0,0,1,,,,,,,,0,76,64
40860,note_on,60,0,1,,,,,,,,0,75,0
40920,note_on,0,0,1,,,,,,,,0,66,0
40920,note_on,60,0,1,,,,,,,,0,76,0
40920,note_on,0,0,1,,,,,,,,0,64,64
40920,note_on,0,0,1,,,,,,,,0,78,64
40950,note_on,30,0,1,,,,,,,,0,78,0
40950,note_on,0,0,1,,,,,,,,0,76,64
40980,note_on,0,0,1,,,,,,,,0,75,64
40980,note_on,30,0,1,,,,,,,,0,76,0
41010,note_on,0,0,1,,,,,,,,0,76,64
41010,note_on,30,0,1,,,,,,,,0,75,0
41040,note_on,30,0,1,,,,,,,,0,76,0
41040,note_on,0,0,1,,,,,,,,0,78,64
41040,note_on,0,0,1,,,,,,,,0,63,64
41040,note_on,0,0,1,,,,,,,,0,64,0
41100,note_on,60,0,1,,,,,,,,0,78,0
41100,note_on,0,0,1,,,,,,,,0,80,64
41160,note_on,60,0,1,,,,,,,,0,80,0
41160,note_on,0,0,1,,,,,,,,0,63,0
41160,note_on,0,0,1,,,,,,,,0,78,64
41160,note_on,0,0,1,,,,,,,,0,71,64
41160,note_on,0,0,1,,,,,,,,0,68,64
41220,note_on,0,0,1,,,,,,,,0,76,64
41220,note_on,60,0,1,,,,,,,,0,78,0
41280,note_on,0,0,1,,,,,,,,0,69,64
41280,note_on,0,0,1,,,,,,,,0,66,64
41280,note_on,0,0,1,,,,,,,,0,75,64
41280,note_on,0,0,1,,,,,,,,0,68,0
41280,note_on,0,0,1,,,,,,,,0,71,0
41280,note_on,60,0,1,,,,,,,,0,76,0
41340,note_on,0,0,1,,,,,,,,0,73,64
41340,note_on,60,0,1,,,,,,,,0,75,0
41400,note_on,60,0,1,,,,,,,,0,73,0
41400,note_on,0,0,1,,,,,,,,0,69,0
41400,note_on,0,0,1,,,,,,,,0,66,0
41400,note_on,0,0,1,,,,,,,,0,64,64
41400,note_on,0,0,1,,,,,,,,0,68,64
41400,note_on,0,0,1,,,,,,,,0,75,64
41460,note_on,60,0,1,,,,,,,,0,75,0
41460,note_on,0,0,1,,,,,,,,0,76,64
41520,note_on,0,0,1,,,,,,,,0,63,64
41520,note_on,60,0,1,,,,,,,,0,76,0
41520,note_on,0,0,1,,,,,,,,0,68,0
41520,note_on,0,0,1,,,,,,,,0,64,0
41520,note_on,0,0,1,,,,,,,,0,78,64
41520,note_on,0,0,1,,,,,,,,0,66,64
41580,note_on,0,0,1,,,,,,,,0,80,64
41580,note_on,60,0,1,,,,,,,,0,78,0
41640,note_on,0,0,1,,,,,,,,0,81,64
41640,note_on,0,0,1,,,,,,,,0,61,64
41640,note_on,0,0,1,,,,,,,,0,64,64
41640,note_on,0,0,1,,,,,,,,0,63,0
41640,note_on,0,0,1,,,,,,,,0,66,0
41640,note_on,60,0,1,,,,,,,,0,80,0
41670,note_on,0,0,1,,,,,,,,0,80,64
41670,note_on,30,0,1,,,,,,,,0,81,0
41700,note_on,30,0,1,,,,,,,,0,80,0
41700,note_on,0,0,1,,,,,,,,0,78,64
41730,note_on,0,0,1,,,,,,,,0,80,64
41730,note_on,30,0,1,,,,,,,,0,78,0
41760,note_on,0,0,1,,,,,,,,0,64,0
41760,note_on,0,0,1,,,,,,,,0,61,0
41760,note_on,30,0,1,,,,,,,,0,80,0
41760,note_on,0,0,1,,,,,,,,0,59,64
41760,note_on,0,0,1,,,,,,,,0,63,64
41760,note_on,0,0,1,,,,,,,,0,81,64
41820,note_on,60,0,1,,,,,,,,0,81,0
41820,note_on,0,0,1,,,,,,,,0,73,64
41880,note_on,0,0,1,,,,,,,,0,71,64
41880,note_on,0,0,1,,,,,,,,0,59,0
41880,note_on,0,0,1,,,,,,,,0,63,0
41880,note_on,60,0,1,,,,,,,,0,73,0
41880,note_on,0,0,1,,,,,,,,0,61,64
41880,note_on,0,0,1,,,,,,,,0,64,64
41940,note_on,0,0,1,,,,,,,,0,70,64
41940,note_on,60,0,1,,,,,,,,0,71,0
42000,note_on,60,0,1,,,,,,,,0,70,0
42000,note_on,0,0,1,,,,,,,,0,61,0
42000,note_on,0,0,1,,,,,,,,0,71,64
42000,note_on,0,0,1,,,,,,,,0,59,64
42000,note_on,0,0,1,,,,,,,,0,63,64
42000,note_on,0,0,1,,,,,,,,0,64,0
42060,note_on,60,0,1,,,,,,,,0,71,0
42060,note_on,0,0,1,,,,,,,,0,81,64
42120,note_on,60,0,1,,,,,,,,0,81,0
42120,note_on,0,0,1,,,,,,,,0,63,0
42120,note_on,0,0,1,,,,,,,,0,59,0
42120,note_on,0,0,1,,,,,,,,0,80,64
42120,note_on,0,0,1,,,,,,,,0,57,64
42120,note_on,0,0,1,,,,,,,,0,61,64
42180,note_on,0,0,1,,,,,,,,0,78,64
42180,note_on,60,0,1,,,,,,,,0,80,0
42240,note_on,0,0,1,,,,,,,,0,56,64
42240,note_on,0,0,1,,,,,,,,0,83,64
42240,note_on,0,0,1,,,,,,,,0,59,64
42240,note_on,0,0,1,,,,,,,,0,57,0
42240,note_on,60,0,1,,,,,,,,0,78,0
42240,note_on,0,0,1,,,,,,,,0,61,0
42300,note_on,60,0,1,,,,,,,,0,83,0
42300,note_on,0,0,1,,,,,,,,0,76,64
42360,note_on,0,0,1,,,,,,,,0,56,0
42360,note_on,60,0,1,,,,,,,,0,76,0
42360,note_on,0,0,1,,,,,,,,0,75,64
42360,note_on,0,0,1,,,,,,,,0,54,64
42420,note_on,0,0,1,,,,,,,,0,81,64
42420,note_on,60,0,1,,,,,,,,0,75,0
42480,note_on,0,0,1,,,,,,,,0,52,64
42480,note_on,0,0,1,,,,,,,,0,80,64
42480,note_on,0,0,1,,,,,,,,0,54,0
42480,note_on,60,0,1,,,,,,,,0,81,0
42540,note_on,0,0,1,,,,,,,,0,59,0
42540,note_on,0,0,1,,,,,,,,0,66,64
42540,note_on,60,0,1,,,,,,,,0,80,0
42600,note_on,0,0,1,,,,,,,,0,54,64
42600,note_on,0,0,1,,,,,,,,0,64,64
42600,note_on,60,0,1,,,,,,,,0,66,0
42600,note_on,0,0,1,,,,,,,,0,52,0
42660,note_on,0,0,1,,,,,,,,0,63,64
42660,note_on,60,0,1,,,,,,,,0,64,0
42720,note_on,0,0,1,,,,,,,,0,64,64
42720,note_on,0,0,1,,,,,,,,0,56,64
42720,note_on,60,0,1,,,,,,,,0,63,0
42720,note_on,0,0,1,,,,,,,,0,54,0
42780,note_on,60,0,1,,,,,,,,0,64,0
42780,note_on,0,0,1,,,,,,,,0,74,64
42840,note_on,60,0,1,,,,,,,,0,74,0
42840,note_on,0,0,1,,,,,,,,0,73,64
42840,note_on,0,0,1,,,,,,,,0,52,64
42840,note_on,0,0,1,,,,,,,,0,56,0
42900,note_on,0,0,1,,,,,,,,0,71,64
42900,note_on,60,0,1,,,,,,,,0,73,0
42960,note_on,0,0,1,,,,,,,,0,49,64
42960,note_on,0,0,1,,,,,,,,0,76,64
42960,note_on,0,0,1,,,,,,,,0,52,0
42960,note_on,60,0,1,,,,,,,,0,71,0
43020,note_on,0,0,1,,,,,,,,0,69,64
43020,note_on,60,0,1,,,,,,,,0,76,0
43080,note_on,0,0,1,,,,,,,,0,49,0
43080,note_on,0,0,1,,,,,,,,0,52,64
43080,note_on,0,0,1,,,,,,,,0,68,64
43080,note_on,60,0,1,,,,,,,,0,69,0
43140,note_on,0,0,1,,,,,,,,0,74,64
43140,note_on,60,0,1,,,,,,,,0,68,0
43200,note_on,60,0,1,,,,,,,,0,74,0
43200,note_on,0,0,1,,,,,,,,0,52,0
43200,note_on,0,0,1,,,,,,,,0,45,64
43200,note_on,0,0,1,,,,,,,,0,73,64
43260,note_on,60,0,1,,,,,,,,0,80,64
43320,note_on,0,0,1,,,,,,,,0,78,64
43320,note_on,60,0,1,,,,,,,,0,80,0
43320,note_on,0,0,1,,,,,,,,0,45,0
43320,note_on,0,0,1,,,,,,,,0,57,64
43380,note_on,0,0,1,,,,,,,,0,76,64
43380,note_on,60,0,1,,,,,,,,0,78,0
43440,note_on,0,0,1,,,,,,,,0,78,64
43440,note_on,60,0,1,,,,,,,,0,76,0
43500,note_on,0,0,1,,,,,,,,0,56,64
43500,note_on,60,0,1,,,,,,,,0,57,0
43560,note_on,60,0,1,,,,,,,,0,56,0
43560,note_on,0,0,1,,,,,,,,0,81,64
43560,note_on,0,0,1,,,,,,,,0,78,0
43560,note_on,0,0,1,,,,,,,,0,54,64
43620,note_on,0,0,1,,,,,,,,0,52,64
43620,note_on,60,0,1,,,,,,,,0,54,0
43680,note_on,0,0,1,,,,,,,,0,71,64
43680,note_on,0,0,1,,,,,,,,0,51,64
43680,note_on,0,0,1,,,,,,,,0,73,0
43680,note_on,60,0,1,,,,,,,,0,52,0
43740,note_on,60,0,1,,,,,,,,0,51,0
43740,note_on,0,0,1,,,,,,,,0,49,64
43800,note_on,0,0,1,,,,,,,,0,47,64
43800,note_on,0,0,1,,,,,,,,0,75,64
43800,note_on,0,0,1,,,,,,,,0,81,0
43800,note_on,60,0,1,,,,,,,,0,49,0
43860,note_on,60,0,1,,,,,,,,0,47,0
43860,note_on,0,0,1,,,,,,,,0,45,64
43920,note_on,0,0,1,,,,,,,,0,44,64
43920,note_on,60,0,1,,,,,,,,0,45,0
43980,note_on,60,0,1,,,,,,,,0,75,0
43980,note_on,0,0,1,,,,,,,,0,78,64
44040,note_on,0,0,1,,,,,,,,0,56,64
44040,note_on,0,0,1,,,,,,,,0,76,64
44040,note_on,0,0,1,,,,,,,,0,44,0
44040,note_on,60,0,1,,,,,,,,0,78,0
44100,note_on,60,0,1,,,,,,,,0,76,0
44100,note_on,0,0,1,,,,,,,,0,75,64
44160,note_on,60,0,1,,,,,,,,0,75,0
44160,note_on,0,0,1,,,,,,,,0,76,64
44220,note_on,0,0,1,,,,,,,,0,54,64
44220,note_on,60,0,1,,,,,,,,0,56,0
44280,note_on,60,0,1,,,,,,,,0,54,0
44280,note_on,0,0,1,,,,,,,,0,76,0
44280,note_on,0,0,1,,,,,,,,0,80,64
44280,note_on,0,0,1,,,,,,,,0,52,64
44340,note_on,0,0,1,,,,,,,,0,51,64
44340,note_on,60,0,1,,,,,,,,0,52,0
44400,note_on,60,0,1,,,,,,,,0,51,0
44400,note_on,0,0,1,,,,,,,,0,71,0
44400,note_on,0,0,1,,,,,,,,0,69,64
44400,note_on,0,0,1,,,,,,,,0,49,64
44460,note_on,60,0,1,,,,,,,,0,49,0
44460,note_on,0,0,1,,,,,,,,0,47,64
44520,note_on,0,0,1,,,,,,,,0,45,64
44520,note_on,0,0,1,,,,,,,,0,73,64
44520,note_on,60,0,1,,,,,,,,0,47,0
44520,note_on,0,0,1,,,,,,,,0,80,0
44580,note_on,0,0,1,,,,,,,,0,44,64
44580,note_on,60,0,1,,,,,,,,0,45,0
44640,note_on,0,0,1,,,,,,,,0,42,64
44640,note_on,60,0,1,,,,,,,,0,44,0
44700,note_on,0,0,1,,,,,,,,0,76,64
44700,note_on,60,0,1,,,,,,,,0,73,0
44760,note_on,0,0,1,,,,,,,,0,42,0
44760,note_on,0,0,1,,,,,,,,0,54,64
44760,note_on,60,0,1,,,,,,,,0,76,0
44760,note_on,0,0,1,,,,,,,,0,75,64
44820,note_on,0,0,1,,,,,,,,0,73,64
44820,note_on,60,0,1,,,,,,,,0,75,0
44880,note_on,0,0,1,,,,,,,,0,75,64
44880,note_on,60,0,1,,,,,,,,0,73,0
44940,note_on,60,0,1,,,,,,,,0,54,0
44940,note_on,0,0,1,,,,,,,,0,52,64
45000,note_on,0,0,1,,,,,,,,0,75,0
45000,note_on,0,0,1,,,,,,,,0,51,64
45000,note_on,0,0,1,,,,,,,,0,78,64
45000,note_on,60,0,1,,,,,,,,0,52,0
45060,note_on,0,0,1,,,,,,,,0,49,64
45060,note_on,60,0,1,,,,,,,,0,51,0
45120,note_on,0,0,1,,,,,,,,0,78,0
45120,note_on,60,0,1,,,,,,,,0,49,0
45120,note_on,0,0,1,,,,,,,,0,47,64
45120,note_on,0,0,1,,,,,,,,0,78,64
45180,note_on,60,0,1,,,,,,,,0,47,0
45180,note_on,0,0,1,,,,,,,,0,45,64
45240,note_on,60,0,1,,,,,,,,0,45,0
45240,note_on,0,0,1,,,,,,,,0,69,0
45240,note_on,0,0,1,,,,,,,,0,69,64
45240,note_on,0,0,1,,,,,,,,0,63,64
45240,note_on,0,0,1,,,,,,,,0,44,64
45240,note_on,0,0,1,,,,,,,,0,78,0
45300,note_on,0,0,1,,,,,,,,0,42,64
45300,note_on,60,0,1,,,,,,,,0,44,0
45360,note_on,0,0,1,,,,,,,,0,40,64
45360,note_on,60,0,1,,,,,,,,0,42,0
45420,note_on,0,0,1,,,,,,,,0,59,64
45420,note_on,60,0,1,,,,,,,,0,63,0
45480,note_on,0,0,1,,,,,,,,0,68,64
45480,note_on,0,0,1,,,,,,,,0,69,0
45480,note_on,60,0,1,,,,,,,,0,40,0
45480,note_on,0,0,1,,,,,,,,0,52,64
45540,note_on,60,0,1,,,,,,,,0,68,0
45540,note_on,0,0,1,,,,,,,,0,66,64
45600,note_on,0,0,1,,,,,,,,0,64,64
45600,note_on,0,0,1,,,,,,,,0,68,64
45600,note_on,60,0,1,,,,,,,,0,66,0
45660,note_on,60,0,1,,,,,,,,0,52,0
45660,note_on,0,0,1,,,,,,,,0,51,64
45720,note_on,0,0,1,,,,,,,,0,52,64
45720,note_on,60,0,1,,,,,,,,0,51,0
45780,note_on,60,0,1,,,,,,,,0,52,0
45780,note_on,0,0,1,,,,,,,,0,54,64
45840,note_on,0,0,1,,,,,,,,0,59,0
45840,note_on,60,0,1,,,,,,,,0,54,0
45840,note_on,0,0,1,,,,,,,,0,56,64
45900,note_on,0,0,1,,,,,,,,0,59,64
45900,note_on,60,0,1,,,,,,,,0,56,0
45960,note_on,0,0,1,,,,,,,,0,52,64
45960,note_on,60,0,1,,,,,,,,0,59,0
46020,note_on,0,0,1,,,,,,,,0,56,64
46020,note_on,60,0,1,,,,,,,,0,52,0
46080,note_on,60,0,1,,,,,,,,0,56,0
46080,note_on,0,0,1,,,,,,,,0,64,0
46080,note_on,0,0,1,,,,,,,,0,57,64
46080,note_on,0,0,1,,,,,,,,0,61,64
46140,note_on,0,0,1,,,,,,,,0,68,64
46140,note_on,60,0,1,,,,,,,,0,68,0
46200,note_on,0,0,1,,,,,,,,0,45,64
46200,note_on,0,0,1,,,,,,,,0,66,64
46200,note_on,0,0,1,,,,,,,,0,57,0
46200,note_on,60,0,1,,,,,,,,0,68,0
46260,note_on,0,0,1,,,,,,,,0,64,64
46260,note_on,60,0,1,,,,,,,,0,66,0
46320,note_on,60,0,1,,,,,,,,0,64,0
46320,note_on,0,0,1,,,,,,,,0,57,64
46320,note_on,0,0,1,,,,,,,,0,63,64
46320,note_on,0,0,1,,,,,,,,0,45,0
46320,note_on,0,0,1,,,,,,,,0,61,0
46380,note_on,0,0,1,,,,,,,,0,61,64
46380,note_on,60,0,1,,,,,,,,0,63,0
46440,note_on,0,0,1,,,,,,,,0,63,64
46440,note_on,0,0,1,,,,,,,,0,59,64
46440,note_on,60,0,1,,,,,,,,0,61,0
46440,note_on,0,0,1,,,,,,,,0,57,0
46500,note_on,60,0,1,,,,,,,,0,63,0
46500,note_on,0,0,1,,,,,,,,0,64,64
46560,note_on,0,0,1,,,,,,,,0,59,0
46560,note_on,0,0,1,,,,,,,,0,66,64
46560,note_on,0,0,1,,,,,,,,0,57,64
46560,note_on,60,0,1,,,,,,,,0,64,0
46620,note_on,60,0,1,,,,,,,,0,66,0
46620,note_on,0,0,1,,,,,,,,0,68,64
46680,note_on,60,0,1,,,,,,,,0,68,0
46680,note_on,0,0,1,,,,,,,,0,57,0
46680,note_on,0,0,1,,,,,,,,0,56,64
46680,note_on,0,0,1,,,,,,,,0,69,64
46710,note_on,30,0,1,,,,,,,,0,69,0
46710,note_on,0,0,1,,,,,,,,0,68,64
46740,note_on,0,0,1,,,,,,,,0,66,64
46740,note_on,30,0,1,,,,,,,,0,68,0
46770,note_on,30,0,1,,,,,,,,0,66,0
46770,note_on,0,0,1,,,,,,,,0,68,64
46800,note_on,0,0,1,,,,,,,,0,54,64
46800,note_on,0,0,1,,,,,,,,0,56,0
46800,note_on,30,0,1,,,,,,,,0,68,0
46800,note_on,0,0,1,,,,,,,,0,69,64
46860,note_on,60,0,1,,,,,,,,0,64,64
46920,note_on,0,0,1,,,,,,,,0,63,64
46920,note_on,60,0,1,,,,,,,,0,64,0
46980,note_on,0,0,1,,,,,,,,0,61,64
46980,note_on,60,0,1,,,,,,,,0,63,0
47040,note_on,0,0,1,,,,,,,,0,59,64
47040,note_on,0,0,1,,,,,,,,0,54,0
47040,note_on,60,0,1,,,,,,,,0,61,0
47100,note_on,0,0,1,,,,,,,,0,58,64
47100,note_on,60,0,1,,,,,,,,0,59,0
47160,note_on,0,0,1,,,,,,,,0,59,64
47160,note_on,0,0,1,,,,,,,,0,56,64
47160,note_on,60,0,1,,,,,,,,0,58,0
47220,note_on,60,0,1,,,,,,,,0,59,0
47220,note_on,0,0,1,,,,,,,,0,61,64
47280,note_on,0,0,1,,,,,,,,0,54,64
47280,note_on,0,0,1,,,,,,,,0,63,64
47280,note_on,0,0,1,,,,,,,,0,56,0
47280,note_on,60,0,1,,,,,,,,0,61,0
47340,note_on,0,0,1,,,,,,,,0,64,64
47340,note_on,60,0,1,,,,,,,,0,63,0
47400,note_on,60,0,1,,,,,,,,0,64,0
47400,note_on,0,0,1,,,,,,,,0,54,0
47400,note_on,0,0,1,,,,,,,,0,66,64
47400,note_on,0,0,1,,,,,,,,0,52,64
47430,note_on,30,0,1,,,,,,,,0,66,0
47430,note_on,0,0,1,,,,,,,,0,64,64
47460,note_on,0,0,1,,,,,,,,0,63,64
47460,note_on,30,0,1,,,,,,,,0,64,0
47490,note_on,30,0,1,,,,,,,,0,63,0
47490,note_on,0,0,1,,,,,,,,0,64,64
47510,note_on,20,0,1,,,,,,,,0,52,0
47520,note_on,0,0,1,,,,,,,,0,66,64
47520,note_on,0,0,1,,,,,,,,0,52,72
47520,note_on,10,0,1,,,,,,,,0,64,0
47550,note_on,0,0,1,,,,,,,,0,51,64
47550,note_on,30,0,1,,,,,,,,0,52,0
47640,note_on,0,0,1,,,,,,,,0,78,64
47640,note_on,90,0,1,,,,,,,,0,69,0
47760,note_on,0,0,1,,,,,,,,0,78,64
47760,note_on,120,0,1,,,,,,,,0,78,0
47760,note_on,0,0,1,,,,,,,,0,66,0
47820,note_on,60,0,1,,,,,,,,0,51,0
47820,note_on,0,0,1,,,,,,,,0,59,64
47880,note_on,60,0,1,,,,,,,,0,59,0
47880,note_on,0,0,1,,,,,,,,0,69,64
47880,note_on,0,0,1,,,,,,,,0,66,64
47880,note_on,0,0,1,,,,,,,,0,61,64
47880,note_on,0,0,1,,,,,,,,0,78,0
47940,note_on,60,0,1,,,,,,,,0,61,0
47940,note_on,0,0,1,,,,,,,,0,63,64
48000,note_on,60,0,1,,,,,,,,0,63,0
48000,note_on,0,0,1,,,,,,,,0,64,64
48000,note_on,0,0,1,,,,,,,,0,68,64
48000,note_on,0,0,1,,,,,,,,0,69,0
48000,note_on,0,0,1,,,,,,,,0,66,0
48060,note_on,60,0,1,,,,,,,,0,61,64
48120,note_on,0,0,1,,,,,,,,0,64,0
48120,note_on,60,0,1,,,,,,,,0,61,0
48120,note_on,0,0,1,,,,,,,,0,83,64
48120,note_on,0,0,1,,,,,,,,0,59,64
48120,note_on,0,0,1,,,,,,,,0,68,0
48180,note_on,0,0,1,,,,,,,,0,57,64
48180,note_on,60,0,1,,,,,,,,0,59,0
48240,note_on,0,0,1,,,,,,,,0,56,64
48240,note_on,0,0,1,,,,,,,,0,83,64
48240,note_on,0,0,1,,,,,,,,0,83,0
48240,note_on,60,0,1,,,,,,,,0,57,0
48300,note_on,0,0,1,,,,,,,,0,54,64
48300,note_on,60,0,1,,,,,,,,0,56,0
48360,note_on,60,0,1,,,,,,,,0,54,0
48360,note_on,0,0,1,,,,,,,,0,56,64
48360,note_on,0,0,1,,,,,,,,0,68,64
48360,note_on,0,0,1,,,,,,,,0,83,0
48360,note_on,0,0,1,,,,,,,,0,76,64
48420,note_on,0,0,1,,,,,,,,0,57,64
48420,note_on,60,0,1,,,,,,,,0,56,0
48480,note_on,0,0,1,,,,,,,,0,75,64
48480,note_on,0,0,1,,,,,,,,0,76,0
48480,note_on,0,0,1,,,,,,,,0,59,64
48480,note_on,0,0,1,,,,,,,,0,66,64
48480,note_on,60,0,1,,,,,,,,0,57,0
48480,note_on,0,0,1,,,,,,,,0,68,0
48540,note_on,0,0,1,,,,,,,,0,56,64
48540,note_on,60,0,1,,,,,,,,0,59,0
48600,note_on,60,0,1,,,,,,,,0,56,0
48600,note_on,0,0,1,,,,,,,,0,81,64
48600,note_on,0,0,1,,,,,,,,0,54,64
48600,note_on,0,0,1,,,,,,,,0,75,0
48660,note_on,0,0,1,,,,,,,,0,52,64
48660,note_on,60,0,1,,,,,,,,0,54,0
48720,note_on,0,0,1,,,,,,,,0,51,64
48720,note_on,0,0,1,,,,,,,,0,66,0
48720,note_on,0,0,1,,,,,,,,0,81,0
48720,note_on,60,0,1,,,,,,,,0,52,0
48720,note_on,0,0,1,,,,,,,,0,81,64
48780,note_on,0,0,1,,,,,,,,0,49,64
48780,note_on,60,0,1,,,,,,,,0,51,0
48840,note_on,0,0,1,,,,,,,,0,51,64
48840,note_on,0,0,1,,,,,,,,0,71,64
48840,note_on,0,0,1,,,,,,,,0,66,64
48840,note_on,0,0,1,,,,,,,,0,69,64
48840,note_on,0,0,1,,,,,,,,0,81,0
48840,note_on,60,0,1,,,,,,,,0,49,0
48900,note_on,0,0,1,,,,,,,,0,52,64
48900,note_on,60,0,1,,,,,,,,0,51,0
48960,note_on,0,0,1,,,,,,,,0,54,64
48960,note_on,60,0,1,,,,,,,,0,52,0
48960,note_on,0,0,1,,,,,,,,0,63,64
48960,note_on,0,0,1,,,,,,,,0,71,64
48960,note_on,0,0,1,,,,,,,,0,69,0
48960,note_on,0,0,1,,,,,,,,0,66,0
48960,note_on,0,0,1,,,,,,,,0,71,0
48960,note_on,0,0,1,,,,,,,,0,69,64
49020,note_on,60,0,1,,,,,,,,0,54,0
49020,note_on,0,0,1,,,,,,,,0,51,64
49080,note_on,60,0,1,,,,,,,,0,51,0
49080,note_on,0,0,1,,,,,,,,0,49,64
49140,note_on,60,0,1,,,,,,,,0,49,0
49140,note_on,0,0,1,,,,,,,,0,47,64
49200,note_on,0,0,1,,,,,,,,0,64,64
49200,note_on,0,0,1,,,,,,,,0,52,64
49200,note_on,60,0,1,,,,,,,,0,47,0
49200,note_on,0,0,1,,,,,,,,0,63,0
49260,note_on,0,0,1,,,,,,,,0,68,64
49260,note_on,60,0,1,,,,,,,,0,69,0
49320,note_on,0,0,1,,,,,,,,0,49,64
49320,note_on,0,0,1,,,,,,,,0,73,64
49320,note_on,0,0,1,,,,,,,,0,52,0
49320,note_on,60,0,1,,,,,,,,0,71,0
49380,note_on,60,0,1,,,,,,,,0,73,0
49380,note_on,0,0,1,,,,,,,,0,76,64
49440,note_on,60,0,1,,,,,,,,0,68,0
49440,note_on,0,0,1,,,,,,,,0,49,0
49440,note_on,0,0,1,,,,,,,,0,64,0
49440,note_on,0,0,1,,,,,,,,0,66,64
49440,note_on,0,0,1,,,,,,,,0,45,64
49500,note_on,0,0,1,,,,,,,,0,76,64
49500,note_on,60,0,1,,,,,,,,0,76,0
49560,note_on,60,0,1,,,,,,,,0,45,0
49560,note_on,0,0,1,,,,,,,,0,66,0
49560,note_on,0,0,1,,,,,,,,0,47,64
49560,note_on,0,0,1,,,,,,,,0,69,64
49620,note_on,60,0,1,,,,,,,,0,76,0
49620,note_on,0,0,1,,,,,,,,0,75,64
49680,note_on,0,0,1,,,,,,,,0,69,0
49680,note_on,0,0,1,,,,,,,,0,47,0
49680,note_on,0,0,1,,,,,,,,0,68,64
49680,note_on,0,0,1,,,,,,,,0,52,64
49680,note_on,60,0,1,,,,,,,,0,75,0
49740,note_on,60,0,1,,,,,,,,0,71,64
49800,note_on,60,0,1,,,,,,,,0,71,0
49800,note_on,0,0,1,,,,,,,,0,52,0
49800,note_on,0,0,1,,,,,,,,0,76,64
49800,note_on,0,0,1,,,,,,,,0,40,64
49860,note_on,0,0,1,,,,,,,,0,75,64
49860,note_on,60,0,1,,,,,,,,0,76,0
49920,note_on,0,0,1,,,,,,,,0,40,64
49920,note_on,0,0,1,,,,,,,,0,76,64
49920,note_on,0,0,1,,,,,,,,0,68,0
49920,note_on,0,0,1,,,,,,,,0,40,0
49920,note_on,60,0,1,,,,,,,,0,75,0
49980,note_on,60,0,1,,,,,,,,0,71,64
50040,note_on,60,0,1,,,,,,,,0,71,0
50040,note_on,0,0,1,,,,,,,,0,52,64
50040,note_on,0,0,1,,,,,,,,0,40,0
50040,note_on,0,0,1,,,,,,,,0,69,64
50100,note_on,60,0,1,,,,,,,,0,69,0
50100,note_on,0,0,1,,,,,,,,0,71,64
50160,note_on,60,0,1,,,,,,,,0,71,0
50160,note_on,0,0,1,,,,,,,,0,76,0
50160,note_on,0,0,1,,,,,,,,0,73,64
50160,note_on,0,0,1,,,,,,,,0,52,64
50160,note_on,0,0,1,,,,,,,,0,52,0
50220,note_on,60,0,1,,,,,,,,0,69,64
50280,note_on,0,0,1,,,,,,,,0,52,0
50280,note_on,0,0,1,,,,,,,,0,68,64
50280,note_on,60,0,1,,,,,,,,0,69,0
50280,note_on,0,0,1,,,,,,,,0,40,64
50340,note_on,0,0,1,,,,,,,,0,69,64
50340,note_on,60,0,1,,,,,,,,0,68,0
50400,note_on,0,0,1,,,,,,,,0,71,64
50400,note_on,0,0,1,,,,,,,,0,73,0
50400,note_on,60,0,1,,,,,,,,0,40,0
50400,note_on,0,0,1,,,,,,,,0,52,64
50460,note_on,60,0,1,,,,,,,,0,71,0
50460,note_on,0,0,1,,,,,,,,0,73,64
50520,note_on,0,0,1,,,,,,,,0,40,64
50520,note_on,0,0,1,,,,,,,,0,74,64
50520,note_on,0,0,1,,,,,,,,0,52,0
50520,note_on,60,0,1,,,,,,,,0,73,0
50580,note_on,0,0,1,,,,,,,,0,73,64
50580,note_on,60,0,1,,,,,,,,0,74,0
50640,note_on,0,0,1,,,,,,,,0,40,64
50640,note_on,0,0,1,,,,,,,,0,40,0
50640,note_on,0,0,1,,,,,,,,0,74,64
50640,note_on,60,0,1,,,,,,,,0,73,0
50700,note_on,0,0,1,,,,,,,,0,69,64
50700,note_on,60,0,1,,,,,,,,0,69,0
50760,note_on,0,0,1,,,,,,,,0,40,0
50760,note_on,60,0,1,,,,,,,,0,69,0
50760,note_on,0,0,1,,,,,,,,0,52,64
50760,note_on,0,0,1,,,,,,,,0,68,64
50820,note_on,60,0,1,,,,,,,,0,68,0
50820,note_on,0,0,1,,,,,,,,0,69,64
50880,note_on,60,0,1,,,,,,,,0,52,0
50880,note_on,0,0,1,,,,,,,,0,71,64
50880,note_on,0,0,1,,,,,,,,0,52,64
50880,note_on,0,0,1,,,,,,,,0,74,0
50940,note_on,60,0,1,,,,,,,,0,69,0
50940,note_on,0,0,1,,,,,,,,0,68,64
51000,note_on,60,0,1,,,,,,,,0,68,0
51000,note_on,0,0,1,,,,,,,,0,52,0
51000,note_on,0,0,1,,,,,,,,0,40,64
51000,note_on,0,0,1,,,,,,,,0,66,64
51060,note_on,60,0,1,,,,,,,,0,66,0
51060,note_on,0,0,1,,,,,,,,0,68,64
51120,note_on,0,0,1,,,,,,,,0,52,64
51120,note_on,0,0,1,,,,,,,,0,69,64
51120,note_on,60,0,1,,,,,,,,0,40,0
51120,note_on,0,0,1,,,,,,,,0,71,0
51180,note_on,60,0,1,,,,,,,,0,69,0
51180,note_on,0,0,1,,,,,,,,0,71,64
51240,note_on,0,0,1,,,,,,,,0,40,64
51240,note_on,0,0,1,,,,,,,,0,52,0
51240,note_on,60,0,1,,,,,,,,0,71,0
51240,note_on,0,0,1,,,,,,,,0,72,64
51300,note_on,60,0,1,,,,,,,,0,72,0
51300,note_on,0,0,1,,,,,,,,0,71,64
51360,note_on,60,0,1,,,,,,,,0,71,0
51360,note_on,0,0,1,,,,,,,,0,40,64
51360,note_on,0,0,1,,,,,,,,0,72,64
51360,note_on,0,0,1,,,,,,,,0,40,0
51360,note_on,0,0,1,,,,,,,,0,68,0
51420,note_on,60,0,1,,,,,,,,0,68,64
51480,note_on,0,0,1,,,,,,,,0,52,64
51480,note_on,0,0,1,,,,,,,,0,66,64
51480,note_on,0,0,1,,,,,,,,0,40,0
51480,note_on,60,0,1,,,,,,,,0,68,0
51540,note_on,60,0,1,,,,,,,,0,66,0
51540,note_on,0,0,1,,,,,,,,0,68,64
51600,note_on,0,0,1,,,,,,,,0,52,64
51600,note_on,0,0,1,,,,,,,,0,69,64
51600,note_on,0,0,1,,,,,,,,0,72,0
51600,note_on,0,0,1,,,,,,,,0,52,0
51600,note_on,60,0,1,,,,,,,,0,68,0
51660,note_on,60,0,1,,,,,,,,0,66,64
51720,note_on,0,0,1,,,,,,,,0,64,64
51720,note_on,0,0,1,,,,,,,,0,40,64
51720,note_on,0,0,1,,,,,,,,0,52,0
51720,note_on,60,0,1,,,,,,,,0,66,0
51780,note_on,60,0,1,,,,,,,,0,64,0
51780,note_on,0,0,1,,,,,,,,0,66,64
51840,note_on,60,0,1,,,,,,,,0,40,0
51840,note_on,0,0,1,,,,,,,,0,39,64
51840,note_on,0,0,1,,,,,,,,0,59,64
51900,note_on,0,0,1,,,,,,,,0,42,64
51900,note_on,60,0,1,,,,,,,,0,39,0
51960,note_on,0,0,1,,,,,,,,0,47,64
51960,note_on,60,0,1,,,,,,,,0,42,0
52020,note_on,0,0,1,,,,,,,,0,49,64
52020,note_on,60,0,1,,,,,,,,0,47,0
52080,note_on,0,0,1,,,,,,,,0,66,0
52080,note_on,0,0,1,,,,,,,,0,59,0
52080,note_on,60,0,1,,,,,,,,0,49,0
52080,note_on,0,0,1,,,,,,,,0,51,64
52080,note_on,0,0,1,,,,,,,,0,69,0
52140,note_on,60,0,1,,,,,,,,0,51,0
52140,note_on,0,0,1,,,,,,,,0,52,64
52200,note_on,60,0,1,,,,,,,,0,52,0
52200,note_on,0,0,1,,,,,,,,0,54,64
52260,note_on,60,0,1,,,,,,,,0,54,0
52260,note_on,0,0,1,,,,,,,,0,56,64
52320,note_on,0,0,1,,,,,,,,0,57,64
52320,note_on,60,0,1,,,,,,,,0,56,0
52380,note_on,60,0,1,,,,,,,,0,57,0
52380,note_on,0,0,1,,,,,,,,0,59,64
52440,note_on,0,0,1,,,,,,,,0,61,64
52440,note_on,60,0,1,,,,,,,,0,59,0
52500,note_on,0,0,1,,,,,,,,0,63,64
52500,note_on,60,0,1,,,,,,,,0,61,0
52560,note_on,0,0,1,,,,,,,,0,64,64
52560,note_on,0,0,1,,,,,,,,0,68,64
52560,note_on,60,0,1,,,,,,,,0,63,0
52620,note_on,60,0,1,,,,,,,,0,61,64
52680,note_on,0,0,1,,,,,,,,0,59,64
52680,note_on,60,0,1,,,,,,,,0,61,0
52740,note_on,60,0,1,,,,,,,,0,59,0
52740,note_on,0,0,1,,,,,,,,0,57,64
52800,note_on,60,0,1,,,,,,,,0,57,0
52800,note_on,0,0,1,,,,,,,,0,59,64
52800,note_on,0,0,1,,,,,,,,0,68,0
52800,note_on,0,0,1,,,,,,,,0,64,0
52860,note_on,60,0,1,,,,,,,,0,68,64
52920,note_on,0,0,1,,,,,,,,0,66,64
52920,note_on,60,0,1,,,,,,,,0,68,0
52980,note_on,0,0,1,,,,,,,,0,64,64
52980,note_on,60,0,1,,,,,,,,0,66,0
53040,note_on,60,0,1,,,,,,,,0,64,0
53040,note_on,0,0,1,,,,,,,,0,47,64
53040,note_on,0,0,1,,,,,,,,0,59,0
53040,note_on,0,0,1,,,,,,,,0,66,64
53100,note_on,60,0,1,,,,,,,,0,61,64
53160,note_on,60,0,1,,,,,,,,0,61,0
53160,note_on,0,0,1,,,,,,,,0,63,64
53220,note_on,60,0,1,,,,,,,,0,57,64
53280,note_on,60,0,1,,,,,,,,0,57,0
53280,note_on,0,0,1,,,,,,,,0,56,64
53280,note_on,0,0,1,,,,,,,,0,52,64
53280,note_on,0,0,1,,,,,,,,0,63,0
53280,note_on,0,0,1,,,,,,,,0,66,0
53280,note_on,0,0,1,,,,,,,,0,47,0
53340,note_on,60,0,1,,,,,,,,0,59,64
53400,note_on,0,0,1,,,,,,,,0,56,0
53400,note_on,0,0,1,,,,,,,,0,64,64
53400,note_on,0,0,1,,,,,,,,0,54,64
53400,note_on,60,0,1,,,,,,,,0,59,0
53460,note_on,0,0,1,,,,,,,,0,63,64
53460,note_on,60,0,1,,,,,,,,0,64,0
53520,note_on,60,0,1,,,,,,,,0,63,0
53520,note_on,0,0,1,,,,,,,,0,54,0
53520,note_on,0,0,1,,,,,,,,0,56,64
53520,note_on,0,0,1,,,,,,,,0,64,64
53580,note_on,60,0,1,,,,,,,,0,64,0
53580,note_on,0,0,1,,,,,,,,0,59,64
53640,note_on,60,0,1,,,,,,,,0,59,0
53640,note_on,0,0,1,,,,,,,,0,56,0
53640,note_on,0,0,1,,,,,,,,0,68,64
53640,note_on,0,0,1,,,,,,,,0,59,64
53700,note_on,60,0,1,,,,,,,,0,68,0
53700,note_on,0,0,1,,,,,,,,0,64,64
53760,note_on,0,0,1,,,,,,,,0,59,0
53760,note_on,0,0,1,,,,,,,,0,57,64
53760,note_on,0,0,1,,,,,,,,0,71,64
53760,note_on,60,0,1,,,,,,,,0,64,0
53820,note_on,60,0,1,,,,,,,,0,66,64
53880,note_on,0,0,1,,,,,,,,0,64,64
53880,note_on,0,0,1,,,,,,,,0,56,64
53880,note_on,60,0,1,,,,,,,,0,66,0
53880,note_on,0,0,1,,,,,,,,0,57,0
53940,note_on,0,0,1,,,,,,,,0,62,64
53940,note_on,60,0,1,,,,,,,,0,64,0
54000,note_on,0,0,1,,,,,,,,0,57,64
54000,note_on,0,0,1,,,,,,,,0,61,64
54000,note_on,0,0,1,,,,,,,,0,56,0
54000,note_on,60,0,1,,,,,,,,0,62,0
54060,note_on,0,0,1,,,,,,,,0,64,64
54060,note_on,60,0,1,,,,,,,,0,71,0
54120,note_on,0,0,1,,,,,,,,0,69,64
54120,note_on,0,0,1,,,,,,,,0,61,0
54120,note_on,0,0,1,,,,,,,,0,59,64
54120,note_on,60,0,1,,,,,,,,0,64,0
54120,note_on,0,0,1,,,,,,,,0,57,0
54180,note_on,0,0,1,,,,,,,,0,68,64
54180,note_on,60,0,1,,,,,,,,0,69,0
54240,note_on,0,0,1,,,,,,,,0,59,0
54240,note_on,60,0,1,,,,,,,,0,68,0
54240,note_on,0,0,1,,,,,,,,0,61,64
54240,note_on,0,0,1,,,,,,,,0,69,64
54300,note_on,60,0,1,,,,,,,,0,69,0
54300,note_on,0,0,1,,,,,,,,0,64,64
54360,note_on,0,0,1,,,,,,,,0,61,0
54360,note_on,0,0,1,,,,,,,,0,73,64
54360,note_on,0,0,1,,,,,,,,0,64,64
54360,note_on,60,0,1,,,,,,,,0,64,0
54420,note_on,0,0,1,,,,,,,,0,69,64
54420,note_on,60,0,1,,,,,,,,0,73,0
54480,note_on,0,0,1,,,,,,,,0,64,0
54480,note_on,0,0,1,,,,,,,,0,76,64
54480,note_on,60,0,1,,,,,,,,0,69,0
54480,note_on,0,0,1,,,,,,,,0,57,64
54540,note_on,60,0,1,,,,,,,,0,71,64
54600,note_on,0,0,1,,,,,,,,0,69,64
54600,note_on,0,0,1,,,,,,,,0,59,64
54600,note_on,60,0,1,,,,,,,,0,71,0
54660,note_on,60,0,1,,,,,,,,0,69,0
54660,note_on,0,0,1,,,,,,,,0,68,64
54720,note_on,0,0,1,,,,,,,,0,66,64
54720,note_on,0,0,1,,,,,,,,0,60,64
54720,note_on,0,0,1,,,,,,,,0,59,0
54720,note_on,60,0,1,,,,,,,,0,68,0
54780,note_on,60,0,1,,,,,,,,0,76,0
54780,note_on,0,0,1,,,,,,,,0,69,64
54840,note_on,0,0,1,,,,,,,,0,66,0
54840,note_on,0,0,1,,,,,,,,0,75,64
54840,note_on,60,0,1,,,,,,,,0,69,0
54900,note_on,60,0,1,,,,,,,,0,75,0
54900,note_on,0,0,1,,,,,,,,0,73,64
54960,note_on,60,0,1,,,,,,,,0,73,0
54960,note_on,0,0,1,,,,,,,,0,75,64
54960,note_on,0,0,1,,,,,,,,0,57,0
54960,note_on,0,0,1,,,,,,,,0,60,0
55020,note_on,0,0,1,,,,,,,,0,69,64
55020,note_on,60,0,1,,,,,,,,0,75,0
55080,note_on,0,0,1,,,,,,,,0,57,64
55080,note_on,0,0,1,,,,,,,,0,78,64
55080,note_on,60,0,1,,,,,,,,0,69,0
55080,note_on,0,0,1,,,,,,,,0,60,64
55140,note_on,0,0,1,,,,,,,,0,75,64
55140,note_on,60,0,1,,,,,,,,0,78,0
55200,note_on,0,0,1,,,,,,,,0,60,64
55200,note_on,0,0,1,,,,,,,,0,57,64
55200,note_on,0,0,1,,,,,,,,0,81,64
55200,note_on,0,0,1,,,,,,,,0,57,0
55200,note_on,0,0,1,,,,,,,,0,60,0
55200,note_on,60,0,1,,,,,,,,0,75,0
55260,note_on,60,0,1,,,,,,,,0,81,0
55260,note_on,0,0,1,,,,,,,,0,78,64
55320,note_on,0,0,1,,,,,,,,0,76,64
55320,note_on,0,0,1,,,,,,,,0,57,64
55320,note_on,0,0,1,,,,,,,,0,60,64
55320,note_on,0,0,1,,,,,,,,0,57,0
55320,note_on,60,0,1,,,,,,,,0,78,0
55320,note_on,0,0,1,,,,,,,,0,60,0
55380,note_on,0,0,1,,,,,,,,0,75,64
55380,note_on,60,0,1,,,,,,,,0,76,0
55440,note_on,60,0,1,,,,,,,,0,75,0
55440,note_on,0,0,1,,,,,,,,0,60,0
55440,note_on,0,0,1,,,,,,,,0,56,64
55440,note_on,0,0,1,,,,,,,,0,59,64
55440,note_on,0,0,1,,,,,,,,0,71,64
55440,note_on,0,0,1,,,,,,,,0,68,64
55440,note_on,0,0,1,,,,,,,,0,76,64
55440,note_on,0,0,1,,,,,,,,0,57,0
56160,note_on,720,0,1,,,,,,,,0,68,0
56160,note_on,0,0,1,,,,,,,,0,56,0
56160,note_on,0,0,1,,,,,,,,0,59,0
56160,note_on,0,0,1,,,,,,,,0,52,0
56160,note_on,0,0,1,,,,,,,,0,71,0
56160,note_on,0,0,1,,,,,,,,0,76,0
56160,note_on,0,0,1,,,,,,,,0,59,64
56280,note_on,120,0,1,,,,,,,,0,78,64
56400,note_on,0,0,1,,,,,,,,0,80,64
56400,note_on,120,0,1,,,,,,,,0,78,0
56520,note_on,120,0,1,,,,,,,,0,75,64
56640,note_on,0,0,1,,,,,,,,0,76,64
56640,note_on,120,0,1,,,,,,,,0,75,0
56700,note_on,60,0,1,,,,,,,,0,80,0
56700,note_on,0,0,1,,,,,,,,0,80,64
56760,note_on,60,0,1,,,,,,,,0,80,0
56760,note_on,0,0,1,,,,,,,,0,78,64
56820,note_on,0,0,1,,,,,,,,0,76,64
56820,note_on,60,0,1,,,,,,,,0,78,0
56880,note_on,0,0,1,,,,,,,,0,78,64
56880,note_on,60,0,1,,,,,,,,0,76,0
56940,note_on,0,0,1,,,,,,,,0,76,64
56940,note_on,60,0,1,,,,,,,,0,76,0
57000,note_on,0,0,1,,,,,,,,0,75,64
57000,note_on,60,0,1,,,,,,,,0,76,0
57060,note_on,0,0,1,,,,,,,,0,73,64
57060,note_on,60,0,1,,,,,,,,0,75,0
57120,note_on,0,0,1,,,,,,,,0,75,64
57120,note_on,60,0,1,,,,,,,,0,73,0
57120,note_on,0,0,1,,,,,,,,0,61,72
57120,note_on,0,0,1,,,,,,,,0,59,0
57150,note_on,0,0,1,,,,,,,,0,60,61
57150,note_on,30,0,1,,,,,,,,0,61,0
57180,note_on,0,0,1,,,,,,,,0,78,64
57180,note_on,0,0,1,,,,,,,,0,61,62
57180,note_on,30,0,1,,,,,,,,0,78,0
57183,note_on,3,0,1,,,,,,,,0,60,0
57210,note_on,27,0,1,,,,,,,,0,60,62
57213,note_on,3,0,1,,,,,,,,0,61,0
57240,note_on,0,0,1,,,,,,,,0,61,53
57240,note_on,0,0,1,,,,,,,,0,80,64
57240,note_on,27,0,1,,,,,,,,0,78,0
57243,note_on,3,0,1,,,,,,,,0,60,0
57270,note_on,27,0,1,,,,,,,,0,60,51
57273,note_on,3,0,1,,,,,,,,0,61,0
57300,note_on,0,0,1,,,,,,,,0,61,45
57300,note_on,0,0,1,,,,,,,,0,81,64
57300,note_on,27,0,1,,,,,,,,0,80,0
57303,note_on,3,0,1,,,,,,,,0,60,0
57330,note_on,27,0,1,,,,,,,,0,60,53
57333,note_on,3,0,1,,,,,,,,0,61,0
57360,note_on,0,0,1,,,,,,,,0,75,0
57360,note_on,27,0,1,,,,,,,,0,81,0
57360,note_on,0,0,1,,,,,,,,0,80,64
57360,note_on,0,0,1,,,,,,,,0,61,66
57363,note_on,3,0,1,,,,,,,,0,60,0
57390,note_on,27,0,1,,,,,,,,0,60,69
57393,note_on,3,0,1,,,,,,,,0,61,0
57420,note_on,27,0,1,,,,,,,,0,80,0
57420,note_on,0,0,1,,,,,,,,0,61,69
57420,note_on,0,0,1,,,,,,,,0,78,64
57423,note_on,3,0,1,,,,,,,,0,60,0
57450,note_on,27,0,1,,,,,,,,0,60,63
57453,note_on,3,0,1,,,,,,,,0,61,0
57480,note_on,0,0,1,,,,,,,,0,76,64
57480,note_on,27,0,1,,,,,,,,0,78,0
57480,note_on,0,0,1,,,,,,,,0,61,57
57483,note_on,3,0,1,,,,,,,,0,60,0
57510,note_on,27,0,1,,,,,,,,0,60,53
57513,note_on,3,0,1,,,,,,,,0,61,0
57540,note_on,0,0,1,,,,,,,,0,75,64
57540,note_on,0,0,1,,,,,,,,0,61,61
57540,note_on,27,0,1,,,,,,,,0,76,0
57543,note_on,3,0,1,,,,,,,,0,60,0
57570,note_on,27,0,1,,,,,,,,0,60,59
57573,note_on,3,0,1,,,,,,,,0,61,0
57600,note_on,0,0,1,,,,,,,,0,76,64
57600,note_on,0,0,1,,,,,,,,0,61,64
57600,note_on,27,0,1,,,,,,,,0,75,0
57603,note_on,3,0,1,,,,,,,,0,60,0
57660,note_on,57,0,1,,,,,,,,0,75,64
57720,note_on,0,0,1,,,,,,,,0,73,64
57720,note_on,60,0,1,,,,,,,,0,75,0
57780,note_on,0,0,1,,,,,,,,0,72,64
57780,note_on,60,0,1,,,,,,,,0,73,0
57840,note_on,0,0,1,,,,,,,,0,73,64
57840,note_on,60,0,1,,,,,,,,0,72,0
57900,note_on,60,0,1,,,,,,,,0,61,0
57900,note_on,0,0,1,,,,,,,,0,59,64
57960,note_on,0,0,1,,,,,,,,0,57,64
57960,note_on,0,0,1,,,,,,,,0,76,64
57960,note_on,0,0,1,,,,,,,,0,76,0
57960,note_on,60,0,1,,,,,,,,0,59,0
58020,note_on,60,0,1,,,,,,,,0,57,0
58020,note_on,0,0,1,,,,,,,,0,56,64
58080,note_on,0,0,1,,,,,,,,0,76,0
58080,note_on,0,0,1,,,,,,,,0,57,64
58080,note_on,0,0,1,,,,,,,,0,75,64
58080,note_on,0,0,1,,,,,,,,0,66,64
58080,note_on,0,0,1,,,,,,,,0,73,0
58080,note_on,60,0,1,,,,,,,,0,56,0
58140,note_on,0,0,1,,,,,,,,0,61,64
58140,note_on,60,0,1,,,,,,,,0,57,0
58200,note_on,0,0,1,,,,,,,,0,54,64
58200,note_on,0,0,1,,,,,,,,0,75,0
58200,note_on,0,0,1,,,,,,,,0,73,64
58200,note_on,60,0,1,,,,,,,,0,61,0
58260,note_on,0,0,1,,,,,,,,0,57,64
58260,note_on,60,0,1,,,,,,,,0,54,0
58320,note_on,0,0,1,,,,,,,,0,73,0
58320,note_on,60,0,1,,,,,,,,0,57,0
58320,note_on,0,0,1,,,,,,,,0,56,64
58320,note_on,0,0,1,,,,,,,,0,72,64
58380,note_on,60,0,1,,,,,,,,0,66,0
58380,note_on,0,0,1,,,,,,,,0,66,64
58440,note_on,0,0,1,,,,,,,,0,44,64
58440,note_on,0,0,1,,,,,,,,0,68,64
58440,note_on,0,0,1,,,,,,,,0,56,0
58440,note_on,60,0,1,,,,,,,,0,66,0
58500,note_on,60,0,1,,,,,,,,0,68,0
58500,note_on,0,0,1,,,,,,,,0,69,64
58560,note_on,0,0,1,,,,,,,,0,56,64
58560,note_on,0,0,1,,,,,,,,0,68,64
58560,note_on,60,0,1,,,,,,,,0,69,0
58560,note_on,0,0,1,,,,,,,,0,44,0
58620,note_on,0,0,1,,,,,,,,0,66,64
58620,note_on,60,0,1,,,,,,,,0,68,0
58680,note_on,0,0,1,,,,,,,,0,64,64
58680,note_on,0,0,1,,,,,,,,0,56,0
58680,note_on,60,0,1,,,,,,,,0,66,0
58680,note_on,0,0,1,,,,,,,,0,57,64
58740,note_on,60,0,1,,,,,,,,0,64,0
58740,note_on,0,0,1,,,,,,,,0,63,64
58800,note_on,0,0,1,,,,,,,,0,56,64
58800,note_on,60,0,1,,,,,,,,0,63,0
58800,note_on,0,0,1,,,,,,,,0,57,0
58800,note_on,0,0,1,,,,,,,,0,72,0
58800,note_on,0,0,1,,,,,,,,0,61,64
58860,note_on,0,0,1,,,,,,,,0,60,64
58860,note_on,60,0,1,,,,,,,,0,61,0
58920,note_on,0,0,1,,,,,,,,0,56,0
58920,note_on,0,0,1,,,,,,,,0,54,64
58920,note_on,0,0,1,,,,,,,,0,61,64
58920,note_on,60,0,1,,,,,,,,0,60,0
58980,note_on,60,0,1,,,,,,,,0,61,0
58980,note_on,0,0,1,,,,,,,,0,63,64
59040,note_on,0,0,1,,,,,,,,0,52,64
59040,note_on,0,0,1,,,,,,,,0,56,64
59040,note_on,60,0,1,,,,,,,,0,63,0
59040,note_on,0,0,1,,,,,,,,0,54,0
59100,note_on,60,0,1,,,,,,,,0,73,64
59160,note_on,0,0,1,,,,,,,,0,61,64
59160,note_on,0,0,1,,,,,,,,0,56,0
59160,note_on,0,0,1,,,,,,,,0,52,0
59160,note_on,60,0,1,,,,,,,,0,73,0
59160,note_on,0,0,1,,,,,,,,0,68,64
59220,note_on,60,0,1,,,,,,,,0,68,0
59220,note_on,0,0,1,,,,,,,,0,67,64
59280,note_on,60,0,1,,,,,,,,0,67,0
59280,note_on,0,0,1,,,,,,,,0,61,0
59280,note_on,0,0,1,,,,,,,,0,68,64
59280,note_on,0,0,1,,,,,,,,0,61,64
59340,note_on,0,0,1,,,,,,,,0,72,64
59340,note_on,60,0,1,,,,,,,,0,68,0
59400,note_on,0,0,1,,,,,,,,0,61,0
59400,note_on,0,0,1,,,,,,,,0,56,64
59400,note_on,0,0,1,,,,,,,,0,73,64
59400,note_on,60,0,1,,,,,,,,0,72,0
59460,note_on,60,0,1,,,,,,,,0,73,0
59460,note_on,0,0,1,,,,,,,,0,75,64
59520,note_on,0,0,1,,,,,,,,0,49,64
59520,note_on,60,0,1,,,,,,,,0,75,0
59520,note_on,0,0,1,,,,,,,,0,56,0
59520,note_on,0,0,1,,,,,,,,0,56,64
59520,note_on,0,0,1,,,,,,,,0,76,64
59580,note_on,0,0,1,,,,,,,,0,75,64
59580,note_on,60,0,1,,,,,,,,0,76,0
59640,note_on,0,0,1,,,,,,,,0,56,64
59640,note_on,0,0,1,,,,,,,,0,76,64
59640,note_on,0,0,1,,,,,,,,0,56,0
59640,note_on,60,0,1,,,,,,,,0,75,0
59700,note_on,60,0,1,,,,,,,,0,76,0
59700,note_on,0,0,1,,,,,,,,0,73,64
59760,note_on,0,0,1,,,,,,,,0,48,64
59760,note_on,0,0,1,,,,,,,,0,56,64
59760,note_on,0,0,1,,,,,,,,0,75,64
59760,note_on,0,0,1,,,,,,,,0,49,0
59760,note_on,0,0,1,,,,,,,,0,56,0
59760,note_on,60,0,1,,,,,,,,0,73,0
59820,note_on,60,0,1,,,,,,,,0,75,0
59820,note_on,0,0,1,,,,,,,,0,72,64
59880,note_on,60,0,1,,,,,,,,0,72,0
59880,note_on,0,0,1,,,,,,,,0,56,0
59880,note_on,0,0,1,,,,,,,,0,68,64
59880,note_on,0,0,1,,,,,,,,0,63,64
59880,note_on,0,0,1,,,,,,,,0,48,0
59940,note_on,0,0,1,,,,,,,,0,67,64
59940,note_on,60,0,1,,,,,,,,0,68,0
60000,note_on,60,0,1,,,,,,,,0,67,0
60000,note_on,0,0,1,,,,,,,,0,63,0
60000,note_on,0,0,1,,,,,,,,0,68,64
60000,note_on,0,0,1,,,,,,,,0,63,64
60060,note_on,60,0,1,,,,,,,,0,68,0
60060,note_on,0,0,1,,,,,,,,0,72,64
60120,note_on,0,0,1,,,,,,,,0,56,64
60120,note_on,60,0,1,,,,,,,,0,72,0
60120,note_on,0,0,1,,,,,,,,0,63,0
60120,note_on,0,0,1,,,,,,,,0,75,64
60180,note_on,0,0,1,,,,,,,,0,76,64
60180,note_on,60,0,1,,,,,,,,0,75,0
60240,note_on,0,0,1,,,,,,,,0,56,64
60240,note_on,0,0,1,,,,,,,,0,44,64
60240,note_on,0,0,1,,,,,,,,0,56,0
60240,note_on,60,0,1,,,,,,,,0,76,0
60240,note_on,0,0,1,,,,,,,,0,78,64
60300,note_on,60,0,1,,,,,,,,0,78,0
60300,note_on,0,0,1,,,,,,,,0,76,64
60360,note_on,60,0,1,,,,,,,,0,76,0
60360,note_on,0,0,1,,,,,,,,0,78,64
60360,note_on,0,0,1,,,,,,,,0,56,64
60360,note_on,0,0,1,,,,,,,,0,56,0
60420,note_on,0,0,1,,,,,,,,0,75,64
60420,note_on,60,0,1,,,,,,,,0,78,0
60480,note_on,0,0,1,,,,,,,,0,44,0
60480,note_on,0,0,1,,,,,,,,0,56,0
60480,note_on,60,0,1,,,,,,,,0,75,0
60480,note_on,0,0,1,,,,,,,,0,56,64
60480,note_on,0,0,1,,,,,,,,0,49,64
60480,note_on,0,0,1,,,,,,,,0,76,64
60540,note_on,60,0,1,,,,,,,,0,56,0
60540,note_on,0,0,1,,,,,,,,0,73,64
60600,note_on,0,0,1,,,,,,,,0,52,64
60600,note_on,0,0,1,,,,,,,,0,68,64
60600,note_on,0,0,1,,,,,,,,0,49,0
60600,note_on,60,0,1,,,,,,,,0,73,0
60660,note_on,60,0,1,,,,,,,,0,68,0
60660,note_on,0,0,1,,,,,,,,0,71,64
60720,note_on,0,0,1,,,,,,,,0,54,64
60720,note_on,0,0,1,,,,,,,,0,69,64
60720,note_on,60,0,1,,,,,,,,0,71,0
60720,note_on,0,0,1,,,,,,,,0,52,0
60780,note_on,0,0,1,,,,,,,,0,73,64
60780,note_on,60,0,1,,,,,,,,0,69,0
60840,note_on,0,0,1,,,,,,,,0,54,0
60840,note_on,0,0,1,,,,,,,,0,66,64
60840,note_on,0,0,1,,,,,,,,0,57,64
60840,note_on,60,0,1,,,,,,,,0,73,0
60900,note_on,0,0,1,,,,,,,,0,75,64
60900,note_on,60,0,1,,,,,,,,0,76,0
60960,note_on,60,0,1,,,,,,,,0,57,0
60960,note_on,0,0,1,,,,,,,,0,66,0
60960,note_on,0,0,1,,,,,,,,0,55,64
60960,note_on,0,0,1,,,,,,,,0,64,64
61020,note_on,60,0,1,,,,,,,,0,75,0
61020,note_on,0,0,1,,,,,,,,0,73,64
61080,note_on,60,0,1,,,,,,,,0,55,0
61080,note_on,0,0,1,,,,,,,,0,64,0
61080,note_on,0,0,1,,,,,,,,0,56,64
61080,note_on,0,0,1,,,,,,,,0,63,64
61140,note_on,60,0,1,,,,,,,,0,73,0
61140,note_on,0,0,1,,,,,,,,0,72,64
61200,note_on,0,0,1,,,,,,,,0,56,0
61200,note_on,0,0,1,,,,,,,,0,49,64
61200,note_on,0,0,1,,,,,,,,0,64,64
61200,note_on,0,0,1,,,,,,,,0,73,64
61200,note_on,0,0,1,,,,,,,,0,63,0
61200,note_on,60,0,1,,,,,,,,0,72,0
61260,note_on,0,0,1,,,,,,,,0,69,64
61260,note_on,60,0,1,,,,,,,,0,64,0
61320,note_on,0,0,1,,,,,,,,0,68,64
61320,note_on,60,0,1,,,,,,,,0,69,0
61320,note_on,0,0,1,,,,,,,,0,49,0
61320,note_on,0,0,1,,,,,,,,0,52,64
61380,note_on,0,0,1,,,,,,,,0,66,64
61380,note_on,60,0,1,,,,,,,,0,68,0
61440,note_on,0,0,1,,,,,,,,0,56,64
61440,note_on,0,0,1,,,,,,,,0,64,64
61440,note_on,0,0,1,,,,,,,,0,73,0
61440,note_on,0,0,1,,,,,,,,0,52,0
61440,note_on,60,0,1,,,,,,,,0,66,0
61500,note_on,60,0,1,,,,,,,,0,64,0
61500,note_on,0,0,1,,,,,,,,0,63,64
61560,note_on,0,0,1,,,,,,,,0,61,64
61560,note_on,0,0,1,,,,,,,,0,64,64
61560,note_on,60,0,1,,,,,,,,0,63,0
61560,note_on,0,0,1,,,,,,,,0,56,0
61620,note_on,0,0,1,,,,,,,,0,66,64
61620,note_on,60,0,1,,,,,,,,0,64,0
61680,note_on,0,0,1,,,,,,,,0,59,64
61680,note_on,0,0,1,,,,,,,,0,68,64
61680,note_on,60,0,1,,,,,,,,0,66,0
61680,note_on,0,0,1,,,,,,,,0,61,0
61740,note_on,60,0,1,,,,,,,,0,68,0
61740,note_on,0,0,1,,,,,,,,0,69,64
61800,note_on,60,0,1,,,,,,,,0,69,0
61800,note_on,0,0,1,,,,,,,,0,57,64
61800,note_on,0,0,1,,,,,,,,0,71,64
61800,note_on,0,0,1,,,,,,,,0,59,0
61830,note_on,30,0,1,,,,,,,,0,71,0
61830,note_on,0,0,1,,,,,,,,0,69,64
61860,note_on,30,0,1,,,,,,,,0,69,0
61860,note_on,0,0,1,,,,,,,,0,68,64
61890,note_on,30,0,1,,,,,,,,0,68,0
61890,note_on,0,0,1,,,,,,,,0,69,64
61920,note_on,0,0,1,,,,,,,,0,56,64
61920,note_on,0,0,1,,,,,,,,0,71,64
61920,note_on,30,0,1,,,,,,,,0,69,0
61920,note_on,0,0,1,,,,,,,,0,57,0
61980,note_on,60,0,1,,,,,,,,0,76,64
62040,note_on,0,0,1,,,,,,,,0,59,64
62040,note_on,0,0,1,,,,,,,,0,75,64
62040,note_on,0,0,1,,,,,,,,0,71,0
62040,note_on,0,0,1,,,,,,,,0,56,0
62040,note_on,60,0,1,,,,,,,,0,76,0
62100,note_on,60,0,1,,,,,,,,0,75,0
62100,note_on,0,0,1,,,,,,,,0,73,64
62160,note_on,0,0,1,,,,,,,,0,59,0
62160,note_on,60,0,1,,,,,,,,0,73,0
62160,note_on,0,0,1,,,,,,,,0,64,64
62160,note_on,0,0,1,,,,,,,,0,71,64
62220,note_on,0,0,1,,,,,,,,0,70,64
62220,note_on,60,0,1,,,,,,,,0,71,0
62280,note_on,0,0,1,,,,,,,,0,68,64
62280,note_on,0,0,1,,,,,,,,0,71,64
62280,note_on,0,0,1,,,,,,,,0,64,0
62280,note_on,60,0,1,,,,,,,,0,70,0
62340,note_on,0,0,1,,,,,,,,0,73,64
62340,note_on,60,0,1,,,,,,,,0,71,0
62400,note_on,60,0,1,,,,,,,,0,73,0
62400,note_on,0,0,1,,,,,,,,0,66,64
62400,note_on,0,0,1,,,,,,,,0,68,0
62400,note_on,0,0,1,,,,,,,,0,75,64
62460,note_on,0,0,1,,,,,,,,0,76,64
62460,note_on,60,0,1,,,,,,,,0,75,0
62520,note_on,60,0,1,,,,,,,,0,76,0
62520,note_on,0,0,1,,,,,,,,0,66,0
62520,note_on,0,0,1,,,,,,,,0,78,64
62520,note_on,0,0,1,,,,,,,,0,64,64
62550,note_on,0,0,1,,,,,,,,0,76,64
62550,note_on,30,0,1,,,,,,,,0,78,0
62580,note_on,0,0,1,,,,,,,,0,75,64
62580,note_on,30,0,1,,,,,,,,0,76,0
62610,note_on,0,0,1,,,,,,,,0,76,64
62610,note_on,30,0,1,,,,,,,,0,75,0
62640,note_on,0,0,1,,,,,,,,0,64,0
62640,note_on,0,0,1,,,,,,,,0,78,64
62640,note_on,30,0,1,,,,,,,,0,76,0
62640,note_on,0,0,1,,,,,,,,0,63,64
62700,note_on,0,0,1,,,,,,,,0,80,64
62700,note_on,60,0,1,,,,,,,,0,78,0
62760,note_on,0,0,1,,,,,,,,0,78,64
62760,note_on,0,0,1,,,,,,,,0,63,0
62760,note_on,60,0,1,,,,,,,,0,80,0
62760,note_on,0,0,1,,,,,,,,0,71,64
62760,note_on,0,0,1,,,,,,,,0,68,64
62820,note_on,60,0,1,,,,,,,,0,78,0
62820,note_on,0,0,1,,,,,,,,0,76,64
62880,note_on,0,0,1,,,,,,,,0,71,0
62880,note_on,0,0,1,,,,,,,,0,68,0
62880,note_on,0,0,1,,,,,,,,0,75,64
62880,note_on,0,0,1,,,,,,,,0,69,64
62880,note_on,0,0,1,,,,,,,,0,66,64
62880,note_on,60,0,1,,,,,,,,0,76,0
62940,note_on,60,0,1,,,,,,,,0,75,0
62940,note_on,0,0,1,,,,,,,,0,73,64
63000,note_on,60,0,1,,,,,,,,0,73,0
63000,note_on,0,0,1,,,,,,,,0,69,0
63000,note_on,0,0,1,,,,,,,,0,66,0
63000,note_on,0,0,1,,,,,,,,0,75,64
63000,note_on,0,0,1,,,,,,,,0,64,64
63000,note_on,0,0,1,,,,,,,,0,68,64
63060,note_on,0,0,1,,,,,,,,0,76,64
63060,note_on,60,0,1,,,,,,,,0,75,0
63120,note_on,0,0,1,,,,,,,,0,66,64
63120,note_on,0,0,1,,,,,,,,0,78,64
63120,note_on,0,0,1,,,,,,,,0,64,0
63120,note_on,0,0,1,,,,,,,,0,68,0
63120,note_on,60,0,1,,,,,,,,0,76,0
63120,note_on,0,0,1,,,,,,,,0,63,64
63180,note_on,0,0,1,,,,,,,,0,80,64
63180,note_on,60,0,1,,,,,,,,0,78,0
63240,note_on,0,0,1,,,,,,,,0,81,64
63240,note_on,0,0,1,,,,,,,,0,61,64
63240,note_on,0,0,1,,,,,,,,0,64,64
63240,note_on,0,0,1,,,,,,,,0,63,0
63240,note_on,0,0,1,,,,,,,,0,66,0
63240,note_on,60,0,1,,,,,,,,0,80,0
63270,note_on,30,0,1,,,,,,,,0,81,0
63270,note_on,0,0,1,,,,,,,,0,80,64
63300,note_on,0,0,1,,,,,,,,0,78,64
63300,note_on,30,0,1,,,,,,,,0,80,0
63330,note_on,0,0,1,,,,,,,,0,80,64
63330,note_on,30,0,1,,,,,,,,0,78,0
63360,note_on,0,0,1,,,,,,,,0,81,64
63360,note_on,0,0,1,,,,,,,,0,64,0
63360,note_on,0,0,1,,,,,,,,0,61,0
63360,note_on,30,0,1,,,,,,,,0,80,0
63360,note_on,0,0,1,,,,,,,,0,63,64
63360,note_on,0,0,1,,,,,,,,0,59,64
63420,note_on,60,0,1,,,,,,,,0,81,0
63420,note_on,0,0,1,,,,,,,,0,73,64
63480,note_on,60,0,1,,,,,,,,0,73,0
63480,note_on,0,0,1,,,,,,,,0,63,0
63480,note_on,0,0,1,,,,,,,,0,59,0
63480,note_on,0,0,1,,,,,,,,0,61,64
63480,note_on,0,0,1,,,,,,,,0,64,64
63480,note_on,0,0,1,,,,,,,,0,71,64
63540,note_on,60,0,1,,,,,,,,0,71,0
63540,note_on,0,0,1,,,,,,,,0,70,64
63600,note_on,60,0,1,,,,,,,,0,70,0
63600,note_on,0,0,1,,,,,,,,0,64,0
63600,note_on,0,0,1,,,,,,,,0,61,0
63600,note_on,0,0,1,,,,,,,,0,71,64
63600,note_on,0,0,1,,,,,,,,0,59,64
63600,note_on,0,0,1,,,,,,,,0,63,64
63660,note_on,0,0,1,,,,,,,,0,81,64
63660,note_on,60,0,1,,,,,,,,0,71,0
63720,note_on,0,0,1,,,,,,,,0,61,64
63720,note_on,0,0,1,,,,,,,,0,57,64
63720,note_on,0,0,1,,,,,,,,0,80,64
63720,note_on,0,0,1,,,,,,,,0,59,0
63720,note_on,0,0,1,,,,,,,,0,63,0
63720,note_on,60,0,1,,,,,,,,0,81,0
63780,note_on,60,0,1,,,,,,,,0,80,0
63780,note_on,0,0,1,,,,,,,,0,78,64
63840,note_on,60,0,1,,,,,,,,0,78,0
63840,note_on,0,0,1,,,,,,,,0,56,64
63840,note_on,0,0,1,,,,,,,,0,83,64
63840,note_on,0,0,1,,,,,,,,0,59,64
63840,note_on,0,0,1,,,,,,,,0,57,0
63840,note_on,0,0,1,,,,,,,,0,61,0
63900,note_on,0,0,1,,,,,,,,0,76,64
63900,note_on,60,0,1,,,,,,,,0,83,0
63960,note_on,60,0,1,,,,,,,,0,76,0
63960,note_on,0,0,1,,,,,,,,0,54,64
63960,note_on,0,0,1,,,,,,,,0,75,64
63960,note_on,0,0,1,,,,,,,,0,56,0
64020,note_on,60,0,1,,,,,,,,0,75,0
64020,note_on,0,0,1,,,,,,,,0,81,64
64080,note_on,0,0,1,,,,,,,,0,52,64
64080,note_on,0,0,1,,,,,,,,0,80,64
64080,note_on,0,0,1,,,,,,,,0,54,0
64080,note_on,60,0,1,,,,,,,,0,81,0
64140,note_on,60,0,1,,,,,,,,0,80,0
64140,note_on,0,0,1,,,,,,,,0,66,64
64140,note_on,0,0,1,,,,,,,,0,59,0
64200,note_on,0,0,1,,,,,,,,0,54,64
64200,note_on,0,0,1,,,,,,,,0,64,64
64200,note_on,0,0,1,,,,,,,,0,52,0
64200,note_on,60,0,1,,,,,,,,0,66,0
64260,note_on,0,0,1,,,,,,,,0,63,64
64260,note_on,60,0,1,,,,,,,,0,64,0
64320,note_on,0,0,1,,,,,,,,0,54,0
64320,note_on,0,0,1,,,,,,,,0,64,64
64320,note_on,0,0,1,,,,,,,,0,56,64
64320,note_on,60,0,1,,,,,,,,0,63,0
64380,note_on,0,0,1,,,,,,,,0,74,64
64380,note_on,60,0,1,,,,,,,,0,64,0
64440,note_on,60,0,1,,,,,,,,0,74,0
64440,note_on,0,0,1,,,,,,,,0,56,0
64440,note_on,0,0,1,,,,,,,,0,52,64
64440,note_on,0,0,1,,,,,,,,0,73,64
64500,note_on,0,0,1,,,,,,,,0,71,64
64500,note_on,60,0,1,,,,,,,,0,73,0
64560,note_on,0,0,1,,,,,,,,0,49,64
64560,note_on,0,0,1,,,,,,,,0,76,64
64560,note_on,0,0,1,,,,,,,,0,52,0
64560,note_on,60,0,1,,,,,,,,0,71,0
64620,note_on,0,0,1,,,,,,,,0,69,64
64620,note_on,60,0,1,,,,,,,,0,76,0
64680,note_on,0,0,1,,,,,,,,0,52,64
64680,note_on,0,0,1,,,,,,,,0,68,64
64680,note_on,60,0,1,,,,,,,,0,69,0
64680,note_on,0,0,1,,,,,,,,0,49,0
64740,note_on,60,0,1,,,,,,,,0,68,0
64740,note_on,0,0,1,,,,,,,,0,74,64
64800,note_on,0,0,1,,,,,,,,0,52,0
64800,note_on,0,0,1,,,,,,,,0,73,64
64800,note_on,0,0,1,,,,,,,,0,45,64
64800,note_on,60,0,1,,,,,,,,0,74,0
64860,note_on,60,0,1,,,,,,,,0,80,64
64920,note_on,60,0,1,,,,,,,,0,80,0
64920,note_on,0,0,1,,,,,,,,0,57,64
64920,note_on,0,0,1,,,,,,,,0,78,64
64920,note_on,0,0,1,,,,,,,,0,45,0
64980,note_on,0,0,1,,,,,,,,0,76,64
64980,note_on,60,0,1,,,,,,,,0,78,0
65040,note_on,60,0,1,,,,,,,,0,76,0
65040,note_on,0,0,1,,,,,,,,0,78,64
65100,note_on,60,0,1,,,,,,,,0,57,0
65100,note_on,0,0,1,,,,,,,,0,56,64
65160,note_on,0,0,1,,,,,,,,0,54,64
65160,note_on,0,0,1,,,,,,,,0,81,64
65160,note_on,0,0,1,,,,,,,,0,78,0
65160,note_on,60,0,1,,,,,,,,0,56,0
65220,note_on,60,0,1,,,,,,,,0,54,0
65220,note_on,0,0,1,,,,,,,,0,52,64
65280,note_on,0,0,1,,,,,,,,0,73,0
65280,note_on,0,0,1,,,,,,,,0,71,64
65280,note_on,0,0,1,,,,,,,,0,51,64
65280,note_on,60,0,1,,,,,,,,0,52,0
65340,note_on,0,0,1,,,,,,,,0,49,64
65340,note_on,60,0,1,,,,,,,,0,51,0
65400,note_on,60,0,1,,,,,,,,0,49,0
65400,note_on,0,0,1,,,,,,,,0,81,0
65400,note_on,0,0,1,,,,,,,,0,75,64
65400,note_on,0,0,1,,,,,,,,0,47,64
65460,note_on,60,0,1,,,,,,,,0,47,0
65460,note_on,0,0,1,,,,,,,,0,45,64
65520,note_on,60,0,1,,,,,,,,0,45,0
65520,note_on,0,0,1,,,,,,,,0,44,64
65580,note_on,0,0,1,,,,,,,,0,78,64
65580,note_on,60,0,1,,,,,,,,0,75,0
65640,note_on,0,0,1,,,,,,,,0,56,64
65640,note_on,0,0,1,,,,,,,,0,76,64
65640,note_on,0,0,1,,,,,,,,0,44,0
65640,note_on,60,0,1,,,,,,,,0,78,0
65700,note_on,0,0,1,,,,,,,,0,75,64
65700,note_on,60,0,1,,,,,,,,0,76,0
65760,note_on,0,0,1,,,,,,,,0,76,64
65760,note_on,60,0,1,,,,,,,,0,75,0
65820,note_on,60,0,1,,,,,,,,0,56,0
65820,note_on,0,0,1,,,,,,,,0,54,64
65880,note_on,60,0,1,,,,,,,,0,54,0
65880,note_on,0,0,1,,,,,,,,0,80,64
65880,note_on,0,0,1,,,,,,,,0,52,64
65880,note_on,0,0,1,,,,,,,,0,76,0
65940,note_on,60,0,1,,,,,,,,0,52,0
65940,note_on,0,0,1,,,,,,,,0,51,64
66000,note_on,60,0,1,,,,,,,,0,51,0
66000,note_on,0,0,1,,,,,,,,0,49,64
66000,note_on,0,0,1,,,,,,,,0,71,0
66000,note_on,0,0,1,,,,,,,,0,69,64
66060,note_on,0,0,1,,,,,,,,0,47,64
66060,note_on,60,0,1,,,,,,,,0,49,0
66120,note_on,0,0,1,,,,,,,,0,73,64
66120,note_on,0,0,1,,,,,,,,0,80,0
66120,note_on,60,0,1,,,,,,,,0,47,0
66120,note_on,0,0,1,,,,,,,,0,45,64
66180,note_on,60,0,1,,,,,,,,0,45,0
66180,note_on,0,0,1,,,,,,,,0,44,64
66240,note_on,0,0,1,,,,,,,,0,42,64
66240,note_on,60,0,1,,,,,,,,0,44,0
66300,note_on,0,0,1,,,,,,,,0,76,64
66300,note_on,60,0,1,,,,,,,,0,73,0
66360,note_on,60,0,1,,,,,,,,0,76,0
66360,note_on,0,0,1,,,,,,,,0,42,0
66360,note_on,0,0,1,,,,,,,,0,54,64
66360,note_on,0,0,1,,,,,,,,0,75,64
66420,note_on,60,0,1,,,,,,,,0,75,0
66420,note_on,0,0,1,,,,,,,,0,73,64
66480,note_on,0,0,1,,,,,,,,0,75,64
66480,note_on,60,0,1,,,,,,,,0,73,0
66540,note_on,0,0,1,,,,,,,,0,52,64
66540,note_on,60,0,1,,,,,,,,0,54,0
66600,note_on,60,0,1,,,,,,,,0,52,0
66600,note_on,0,0,1,,,,,,,,0,78,64
66600,note_on,0,0,1,,,,,,,,0,51,64
66600,note_on,0,0,1,,,,,,,,0,75,0
66660,note_on,60,0,1,,,,,,,,0,51,0
66660,note_on,0,0,1,,,,,,,,0,49,64
66720,note_on,0,0,1,,,,,,,,0,47,64
66720,note_on,0,0,1,,,,,,,,0,78,64
66720,note_on,0,0,1,,,,,,,,0,78,0
66720,note_on,60,0,1,,,,,,,,0,49,0
66780,note_on,60,0,1,,,,,,,,0,47,0
66780,note_on,0,0,1,,,,,,,,0,45,64
66840,note_on,0,0,1,,,,,,,,0,44,64
66840,note_on,0,0,1,,,,,,,,0,69,64
66840,note_on,0,0,1,,,,,,,,0,63,64
66840,note_on,0,0,1,,,,,,,,0,69,0
66840,note_on,60,0,1,,,,,,,,0,45,0
66840,note_on,0,0,1,,,,,,,,0,78,0
66900,note_on,0,0,1,,,,,,,,0,42,64
66900,note_on,60,0,1,,,,,,,,0,44,0
66960,note_on,60,0,1,,,,,,,,0,42,0
66960,note_on,0,0,1,,,,,,,,0,40,64
67020,note_on,60,0,1,,,,,,,,0,63,0
67020,note_on,0,0,1,,,,,,,,0,59,64
67080,note_on,60,0,1,,,,,,,,0,40,0
67080,note_on,0,0,1,,,,,,,,0,68,64
67080,note_on,0,0,1,,,,,,,,0,52,64
67080,note_on,0,0,1,,,,,,,,0,69,0
67140,note_on,60,0,1,,,,,,,,0,68,0
67140,note_on,0,0,1,,,,,,,,0,66,64
67200,note_on,60,0,1,,,,,,,,0,66,0
67200,note_on,0,0,1,,,,,,,,0,64,64
67200,note_on,0,0,1,,,,,,,,0,68,64
67260,note_on,0,0,1,,,,,,,,0,51,64
67260,note_on,60,0,1,,,,,,,,0,52,0
67320,note_on,0,0,1,,,,,,,,0,52,64
67320,note_on,60,0,1,,,,,,,,0,51,0
67380,note_on,60,0,1,,,,,,,,0,52,0
67380,note_on,0,0,1,,,,,,,,0,54,64
67440,note_on,0,0,1,,,,,,,,0,59,0
67440,note_on,60,0,1,,,,,,,,0,54,0
67440,note_on,0,0,1,,,,,,,,0,56,64
67500,note_on,60,0,1,,,,,,,,0,56,0
67500,note_on,0,0,1,,,,,,,,0,59,64
67560,note_on,60,0,1,,,,,,,,0,59,0
67560,note_on,0,0,1,,,,,,,,0,52,64
67620,note_on,0,0,1,,,,,,,,0,56,64
67620,note_on,60,0,1,,,,,,,,0,52,0
67680,note_on,0,0,1,,,,,,,,0,57,64
67680,note_on,0,0,1,,,,,,,,0,61,64
67680,note_on,0,0,1,,,,,,,,0,64,0
67680,note_on,60,0,1,,,,,,,,0,56,0
67740,note_on,0,0,1,,,,,,,,0,68,64
67740,note_on,60,0,1,,,,,,,,0,68,0
67800,note_on,60,0,1,,,,,,,,0,68,0
67800,note_on,0,0,1,,,,,,,,0,45,64
67800,note_on,0,0,1,,,,,,,,0,57,0
67800,note_on,0,0,1,,,,,,,,0,66,64
67860,note_on,0,0,1,,,,,,,,0,64,64
67860,note_on,60,0,1,,,,,,,,0,66,0
67920,note_on,60,0,1,,,,,,,,0,64,0
67920,note_on,0,0,1,,,,,,,,0,57,64
67920,note_on,0,0,1,,,,,,,,0,63,64
67920,note_on,0,0,1,,,,,,,,0,45,0
67920,note_on,0,0,1,,,,,,,,0,61,0
67980,note_on,60,0,1,,,,,,,,0,63,0
67980,note_on,0,0,1,,,,,,,,0,61,64
68040,note_on,60,0,1,,,,,,,,0,61,0
68040,note_on,0,0,1,,,,,,,,0,63,64
68040,note_on,0,0,1,,,,,,,,0,59,64
68040,note_on,0,0,1,,,,,,,,0,57,0
68100,note_on,60,0,1,,,,,,,,0,63,0
68100,note_on,0,0,1,,,,,,,,0,64,64
68160,note_on,60,0,1,,,,,,,,0,64,0
68160,note_on,0,0,1,,,,,,,,0,59,0
68160,note_on,0,0,1,,,,,,,,0,66,64
68160,note_on,0,0,1,,,,,,,,0,57,64
68220,note_on,60,0,1,,,,,,,,0,66,0
68220,note_on,0,0,1,,,,,,,,0,68,64
68280,note_on,0,0,1,,,,,,,,0,56,64
68280,note_on,0,0,1,,,,,,,,0,69,64
68280,note_on,0,0,1,,,,,,,,0,57,0
68280,note_on,60,0,1,,,,,,,,0,68,0
68310,note_on,0,0,1,,,,,,,,0,68,64
68310,note_on,30,0,1,,,,,,,,0,69,0
68340,note_on,0,0,1,,,,,,,,0,66,64
68340,note_on,30,0,1,,,,,,,,0,68,0
68370,note_on,30,0,1,,,,,,,,0,66,0
68370,note_on,0,0,1,,,,,,,,0,68,64
68400,note_on,30,0,1,,,,,,,,0,68,0
68400,note_on,0,0,1,,,,,,,,0,54,64
68400,note_on,0,0,1,,,,,,,,0,69,64
68400,note_on,0,0,1,,,,,,,,0,56,0
68460,note_on,60,0,1,,,,,,,,0,64,64
68520,note_on,0,0,1,,,,,,,,0,63,64
68520,note_on,60,0,1,,,,,,,,0,64,0
68580,note_on,0,0,1,,,,,,,,0,61,64
68580,note_on,60,0,1,,,,,,,,0,63,0
68640,note_on,60,0,1,,,,,,,,0,61,0
68640,note_on,0,0,1,,,,,,,,0,54,0
68640,note_on,0,0,1,,,,,,,,0,59,64
68700,note_on,0,0,1,,,,,,,,0,58,64
68700,note_on,60,0,1,,,,,,,,0,59,0
68760,note_on,0,0,1,,,,,,,,0,56,64
68760,note_on,0,0,1,,,,,,,,0,59,64
68760,note_on,60,0,1,,,,,,,,0,58,0
68820,note_on,60,0,1,,,,,,,,0,59,0
68820,note_on,0,0,1,,,,,,,,0,61,64
68880,note_on,60,0,1,,,,,,,,0,61,0
68880,note_on,0,0,1,,,,,,,,0,54,64
68880,note_on,0,0,1,,,,,,,,0,63,64
68880,note_on,0,0,1,,,,,,,,0,56,0
68940,note_on,0,0,1,,,,,,,,0,64,64
68940,note_on,60,0,1,,,,,,,,0,63,0
69000,note_on,60,0,1,,,,,,,,0,64,0
69000,note_on,0,0,1,,,,,,,,0,52,64
69000,note_on,0,0,1,,,,,,,,0,66,64
69000,note_on,0,0,1,,,,,,,,0,54,0
69030,note_on,30,0,1,,,,,,,,0,66,0
69030,note_on,0,0,1,,,,,,,,0,64,64
69060,note_on,30,0,1,,,,,,,,0,64,0
69060,note_on,0,0,1,,,,,,,,0,63,64
69090,note_on,30,0,1,,,,,,,,0,63,0
69090,note_on,0,0,1,,,,,,,,0,64,64
69110,note_on,20,0,1,,,,,,,,0,52,0
69120,note_on,10,0,1,,,,,,,,0,64,0
69120,note_on,0,0,1,,,,,,,,0,52,72
69120,note_on,0,0,1,,,,,,,,0,66,64
69150,note_on,30,0,1,,,,,,,,0,52,0
69150,note_on,0,0,1,,,,,,,,0,51,64
69240,note_on,90,0,1,,,,,,,,0,69,0
69240,note_on,0,0,1,,,,,,,,0,78,64
69360,note_on,0,0,1,,,,,,,,0,78,64
69360,note_on,120,0,1,,,,,,,,0,78,0
69360,note_on,0,0,1,,,,,,,,0,66,0
69420,note_on,60,0,1,,,,,,,,0,51,0
69420,note_on,0,0,1,,,,,,,,0,59,64
69480,note_on,0,0,1,,,,,,,,0,61,64
69480,note_on,0,0,1,,,,,,,,0,66,64
69480,note_on,0,0,1,,,,,,,,0,78,0
69480,note_on,60,0,1,,,,,,,,0,59,0
69480,note_on,0,0,1,,,,,,,,0,69,64
69540,note_on,60,0,1,,,,,,,,0,61,0
69540,note_on,0,0,1,,,,,,,,0,63,64
69600,note_on,60,0,1,,,,,,,,0,63,0
69600,note_on,0,0,1,,,,,,,,0,64,64
69600,note_on,0,0,1,,,,,,,,0,68,64
69600,note_on,0,0,1,,,,,,,,0,69,0
69600,note_on,0,0,1,,,,,,,,0,66,0
69660,note_on,60,0,1,,,,,,,,0,61,64
69720,note_on,0,0,1,,,,,,,,0,64,0
69720,note_on,60,0,1,,,,,,,,0,61,0
69720,note_on,0,0,1,,,,,,,,0,68,0
69720,note_on,0,0,1,,,,,,,,0,59,64
69720,note_on,0,0,1,,,,,,,,0,83,64
69780,note_on,0,0,1,,,,,,,,0,57,64
69780,note_on,60,0,1,,,,,,,,0,59,0
69840,note_on,0,0,1,,,,,,,,0,83,64
69840,note_on,0,0,1,,,,,,,,0,83,0
69840,note_on,0,0,1,,,,,,,,0,56,64
69840,note_on,60,0,1,,,,,,,,0,57,0
69900,note_on,60,0,1,,,,,,,,0,56,0
69900,note_on,0,0,1,,,,,,,,0,54,64
69960,note_on,0,0,1,,,,,,,,0,83,0
69960,note_on,0,0,1,,,,,,,,0,76,64
69960,note_on,0,0,1,,,,,,,,0,68,64
69960,note_on,0,0,1,,,,,,,,0,56,64
69960,note_on,60,0,1,,,,,,,,0,54,0
70020,note_on,0,0,1,,,,,,,,0,57,64
70020,note_on,60,0,1,,,,,,,,0,56,0
70080,note_on,0,0,1,,,,,,,,0,68,0
70080,note_on,0,0,1,,,,,,,,0,59,64
70080,note_on,0,0,1,,,,,,,,0,66,64
70080,note_on,0,0,1,,,,,,,,0,75,64
70080,note_on,60,0,1,,,,,,,,0,57,0
70080,note_on,0,0,1,,,,,,,,0,76,0
70140,note_on,0,0,1,,,,,,,,0,56,64
70140,note_on,60,0,1,,,,,,,,0,59,0
70200,note_on,60,0,1,,,,,,,,0,56,0
70200,note_on,0,0,1,,,,,,,,0,54,64
70200,note_on,0,0,1,,,,,,,,0,75,0
70200,note_on,0,0,1,,,,,,,,0,81,64
70260,note_on,60,0,1,,,,,,,,0,54,0
70260,note_on,0,0,1,,,,,,,,0,52,64
70320,note_on,60,0,1,,,,,,,,0,52,0
70320,note_on,0,0,1,,,,,,,,0,81,0
70320,note_on,0,0,1,,,,,,,,0,81,64
70320,note_on,0,0,1,,,,,,,,0,51,64
70320,note_on,0,0,1,,,,,,,,0,66,0
70380,note_on,60,0,1,,,,,,,,0,51,0
70380,note_on,0,0,1,,,,,,,,0,49,64
70440,note_on,60,0,1,,,,,,,,0,49,0
70440,note_on,0,0,1,,,,,,,,0,51,64
70440,note_on,0,0,1,,,,,,,,0,71,64
70440,note_on,0,0,1,,,,,,,,0,66,64
70440,note_on,0,0,1,,,,,,,,0,69,64
70440,note_on,0,0,1,,,,,,,,0,81,0
70500,note_on,0,0,1,,,,,,,,0,52,64
70500,note_on,60,0,1,,,,,,,,0,51,0
70560,note_on,0,0,1,,,,,,,,0,69,0
70560,note_on,0,0,1,,,,,,,,0,54,64
70560,note_on,0,0,1,,,,,,,,0,66,0
70560,note_on,0,0,1,,,,,,,,0,69,64
70560,note_on,0,0,1,,,,,,,,0,63,64
70560,note_on,0,0,1,,,,,,,,0,71,64
70560,note_on,60,0,1,,,,,,,,0,52,0
70560,note_on,0,0,1,,,,,,,,0,71,0
70620,note_on,60,0,1,,,,,,,,0,54,0
70620,note_on,0,0,1,,,,,,,,0,51,64
70680,note_on,0,0,1,,,,,,,,0,49,64
70680,note_on,60,0,1,,,,,,,,0,51,0
70740,note_on,0,0,1,,,,,,,,0,47,64
70740,note_on,60,0,1,,,,,,,,0,49,0
70800,note_on,0,0,1,,,,,,,,0,52,64
70800,note_on,0,0,1,,,,,,,,0,64,64
70800,note_on,0,0,1,,,,,,,,0,63,0
70800,note_on,60,0,1,,,,,,,,0,47,0
70860,note_on,0,0,1,,,,,,,,0,68,64
70860,note_on,60,0,1,,,,,,,,0,69,0
70920,note_on,60,0,1,,,,,,,,0,71,0
70920,note_on,0,0,1,,,,,,,,0,49,64
70920,note_on,0,0,1,,,,,,,,0,52,0
70920,note_on,0,0,1,,,,,,,,0,73,64
70980,note_on,0,0,1,,,,,,,,0,76,64
70980,note_on,60,0,1,,,,,,,,0,73,0
71040,note_on,60,0,1,,,,,,,,0,68,0
71040,note_on,0,0,1,,,,,,,,0,64,0
71040,note_on,0,0,1,,,,,,,,0,66,64
71040,note_on,0,0,1,,,,,,,,0,45,64
71040,note_on,0,0,1,,,,,,,,0,49,0
71100,note_on,0,0,1,,,,,,,,0,76,64
71100,note_on,60,0,1,,,,,,,,0,76,0
71160,note_on,60,0,1,,,,,,,,0,45,0
71160,note_on,0,0,1,,,,,,,,0,66,0
71160,note_on,0,0,1,,,,,,,,0,69,64
71160,note_on,0,0,1,,,,,,,,0,47,64
71220,note_on,0,0,1,,,,,,,,0,75,64
71220,note_on,60,0,1,,,,,,,,0,76,0
71280,note_on,0,0,1,,,,,,,,0,52,64
71280,note_on,0,0,1,,,,,,,,0,68,64
71280,note_on,0,0,1,,,,,,,,0,47,0
71280,note_on,0,0,1,,,,,,,,0,69,0
71280,note_on,60,0,1,,,,,,,,0,75,0
71340,note_on,60,0,1,,,,,,,,0,71,64
71400,note_on,60,0,1,,,,,,,,0,71,0
71400,note_on,0,0,1,,,,,,,,0,52,0
71400,note_on,0,0,1,,,,,,,,0,40,64
71400,note_on,0,0,1,,,,,,,,0,76,64
71460,note_on,60,0,1,,,,,,,,0,76,0
71460,note_on,0,0,1,,,,,,,,0,75,64
71520,note_on,0,0,1,,,,,,,,0,40,0
71520,note_on,0,0,1,,,,,,,,0,68,0
71520,note_on,0,0,1,,,,,,,,0,76,64
71520,note_on,0,0,1,,,,,,,,0,40,64
71520,note_on,60,0,1,,,,,,,,0,75,0
71580,note_on,60,0,1,,,,,,,,0,71,64
71640,note_on,60,0,1,,,,,,,,0,71,0
71640,note_on,0,0,1,,,,,,,,0,40,0
71640,note_on,0,0,1,,,,,,,,0,69,64
71640,note_on,0,0,1,,,,,,,,0,52,64
71700,note_on,60,0,1,,,,,,,,0,69,0
71700,note_on,0,0,1,,,,,,,,0,71,64
71760,note_on,0,0,1,,,,,,,,0,76,0
71760,note_on,0,0,1,,,,,,,,0,73,64
71760,note_on,0,0,1,,,,,,,,0,52,0
71760,note_on,0,0,1,,,,,,,,0,52,64
71760,note_on,60,0,1,,,,,,,,0,71,0
71820,note_on,60,0,1,,,,,,,,0,69,64
71880,note_on,60,0,1,,,,,,,,0,69,0
71880,note_on,0,0,1,,,,,,,,0,52,0
71880,note_on,0,0,1,,,,,,,,0,68,64
71880,note_on,0,0,1,,,,,,,,0,40,64
71940,note_on,60,0,1,,,,,,,,0,68,0
71940,note_on,0,0,1,,,,,,,,0,69,64
72000,note_on,60,0,1,,,,,,,,0,40,0
72000,note_on,0,0,1,,,,,,,,0,71,64
72000,note_on,0,0,1,,,,,,,,0,52,64
72000,note_on,0,0,1,,,,,,,,0,73,0
72060,note_on,60,0,1,,,,,,,,0,71,0
72060,note_on,0,0,1,,,,,,,,0,73,64
72120,note_on,0,0,1,,,,,,,,0,52,0
72120,note_on,0,0,1,,,,,,,,0,40,64
72120,note_on,0,0,1,,,,,,,,0,74,64
72120,note_on,60,0,1,,,,,,,,0,73,0
72180,note_on,0,0,1,,,,,,,,0,73,64
72180,note_on,60,0,1,,,,,,,,0,74,0
72240,note_on,0,0,1,,,,,,,,0,40,0
72240,note_on,60,0,1,,,,,,,,0,73,0
72240,note_on,0,0,1,,,,,,,,0,40,64
72240,note_on,0,0,1,,,,,,,,0,74,64
72300,note_on,60,0,1,,,,,,,,0,69,0
72300,note_on,0,0,1,,,,,,,,0,69,64
72360,note_on,0,0,1,,,,,,,,0,40,0
72360,note_on,0,0,1,,,,,,,,0,68,64
72360,note_on,0,0,1,,,,,,,,0,52,64
72360,note_on,60,0,1,,,,,,,,0,69,0
72420,note_on,60,0,1,,,,,,,,0,68,0
72420,note_on,0,0,1,,,,,,,,0,69,64
72480,note_on,0,0,1,,,,,,,,0,52,64
72480,note_on,60,0,1,,,,,,,,0,52,0
72480,note_on,0,0,1,,,,,,,,0,74,0
72480,note_on,0,0,1,,,,,,,,0,71,64
72540,note_on,60,0,1,,,,,,,,0,69,0
72540,note_on,0,0,1,,,,,,,,0,68,64
72600,note_on,0,0,1,,,,,,,,0,66,64
72600,note_on,0,0,1,,,,,,,,0,40,64
72600,note_on,0,0,1,,,,,,,,0,52,0
72600,note_on,60,0,1,,,,,,,,0,68,0
72660,note_on,0,0,1,,,,,,,,0,68,64
72660,note_on,60,0,1,,,,,,,,0,66,0
72720,note_on,60,0,1,,,,,,,,0,40,0
72720,note_on,0,0,1,,,,,,,,0,69,64
72720,note_on,0,0,1,,,,,,,,0,52,64
72720,note_on,0,0,1,,,,,,,,0,71,0
72780,note_on,60,0,1,,,,,,,,0,69,0
72780,note_on,0,0,1,,,,,,,,0,71,64
72840,note_on,0,0,1,,,,,,,,0,40,64
72840,note_on,0,0,1,,,,,,,,0,72,64
72840,note_on,0,0,1,,,,,,,,0,52,0
72840,note_on,60,0,1,,,,,,,,0,71,0
72900,note_on,0,0,1,,,,,,,,0,71,64
72900,note_on,60,0,1,,,,,,,,0,72,0
72960,note_on,60,0,1,,,,,,,,0,71,0
72960,note_on,0,0,1,,,,,,,,0,40,64
72960,note_on,0,0,1,,,,,,,,0,72,64
72960,note_on,0,0,1,,,,,,,,0,40,0
72960,note_on,0,0,1,,,,,,,,0,68,0
73020,note_on,60,0,1,,,,,,,,0,68,64
73080,note_on,60,0,1,,,,,,,,0,68,0
73080,note_on,0,0,1,,,,,,,,0,66,64
73080,note_on,0,0,1,,,,,,,,0,40,0
73080,note_on,0,0,1,,,,,,,,0,52,64
73140,note_on,60,0,1,,,,,,,,0,66,0
73140,note_on,0,0,1,,,,,,,,0,68,64
73200,note_on,0,0,1,,,,,,,,0,52,0
73200,note_on,0,0,1,,,,,,,,0,72,0
73200,note_on,0,0,1,,,,,,,,0,69,64
73200,note_on,0,0,1,,,,,,,,0,52,64
73200,note_on,60,0,1,,,,,,,,0,68,0
73260,note_on,60,0,1,,,,,,,,0,66,64
73320,note_on,60,0,1,,,,,,,,0,66,0
73320,note_on,0,0,1,,,,,,,,0,52,0
73320,note_on,0,0,1,,,,,,,,0,40,64
73320,note_on,0,0,1,,,,,,,,0,64,64
73380,note_on,0,0,1,,,,,,,,0,66,64
73380,note_on,60,0,1,,,,,,,,0,64,0
73440,note_on,0,0,1,,,,,,,,0,39,64
73440,note_on,0,0,1,,,,,,,,0,59,64
73440,note_on,60,0,1,,,,,,,,0,40,0
73500,note_on,0,0,1,,,,,,,,0,42,64
73500,note_on,60,0,1,,,,,,,,0,39,0
73560,note_on,60,0,1,,,,,,,,0,42,0
73560,note_on,0,0,1,,,,,,,,0,47,64
73620,note_on,60,0,1,,,,,,,,0,47,0
73620,note_on,0,0,1,,,,,,,,0,49,64
73680,note_on,60,0,1,,,,,,,,0,49,0
73680,note_on,0,0,1,,,,,,,,0,51,64
73680,note_on,0,0,1,,,,,,,,0,69,0
73680,note_on,0,0,1,,,,,,,,0,66,0
73680,note_on,0,0,1,,,,,,,,0,59,0
73740,note_on,0,0,1,,,,,,,,0,52,64
73740,note_on,60,0,1,,,,,,,,0,51,0
73800,note_on,60,0,1,,,,,,,,0,52,0
73800,note_on,0,0,1,,,,,,,,0,54,64
73860,note_on,60,0,1,,,,,,,,0,54,0
73860,note_on,0,0,1,,,,,,,,0,56,64
73920,note_on,60,0,1,,,,,,,,0,56,0
73920,note_on,0,0,1,,,,,,,,0,57,64
73980,note_on,0,0,1,,,,,,,,0,59,64
73980,note_on,60,0,1,,,,,,,,0,57,0
74040,note_on,0,0,1,,,,,,,,0,61,64
74040,note_on,60,0,1,,,,,,,,0,59,0
74100,note_on,0,0,1,,,,,,,,0,63,64
74100,note_on,60,0,1,,,,,,,,0,61,0
74160,note_on,60,0,1,,,,,,,,0,63,0
74160,note_on,0,0,1,,,,,,,,0,68,64
74160,note_on,0,0,1,,,,,,,,0,64,64
74220,note_on,60,0,1,,,,,,,,0,61,64
74280,note_on,60,0,1,,,,,,,,0,61,0
74280,note_on,0,0,1,,,,,,,,0,59,64
74340,note_on,60,0,1,,,,,,,,0,59,0
74340,note_on,0,0,1,,,,,,,,0,57,64
74400,note_on,60,0,1,,,,,,,,0,57,0
74400,note_on,0,0,1,,,,,,,,0,64,0
74400,note_on,0,0,1,,,,,,,,0,68,0
74400,note_on,0,0,1,,,,,,,,0,59,64
74460,note_on,60,0,1,,,,,,,,0,68,64
74520,note_on,60,0,1,,,,,,,,0,68,0
74520,note_on,0,0,1,,,,,,,,0,66,64
74580,note_on,60,0,1,,,,,,,,0,66,0
74580,note_on,0,0,1,,,,,,,,0,64,64
74640,note_on,0,0,1,,,,,,,,0,47,64
74640,note_on,0,0,1,,,,,,,,0,66,64
74640,note_on,0,0,1,,,,,,,,0,59,0
74640,note_on,60,0,1,,,,,,,,0,64,0
74700,note_on,60,0,1,,,,,,,,0,61,64
74760,note_on,0,0,1,,,,,,,,0,63,64
74760,note_on,60,0,1,,,,,,,,0,61,0
74820,note_on,60,0,1,,,,,,,,0,57,64
74880,note_on,0,0,1,,,,,,,,0,52,64
74880,note_on,60,0,1,,,,,,,,0,57,0
74880,note_on,0,0,1,,,,,,,,0,66,0
74880,note_on,0,0,1,,,,,,,,0,47,0
74880,note_on,0,0,1,,,,,,,,0,63,0
74880,note_on,0,0,1,,,,,,,,0,56,64
74940,note_on,60,0,1,,,,,,,,0,59,64
75000,note_on,0,0,1,,,,,,,,0,54,64
75000,note_on,0,0,1,,,,,,,,0,64,64
75000,note_on,0,0,1,,,,,,,,0,56,0
75000,note_on,60,0,1,,,,,,,,0,59,0
75060,note_on,0,0,1,,,,,,,,0,63,64
75060,note_on,60,0,1,,,,,,,,0,64,0
75120,note_on,60,0,1,,,,,,,,0,63,0
75120,note_on,0,0,1,,,,,,,,0,64,64
75120,note_on,0,0,1,,,,,,,,0,56,64
75120,note_on,0,0,1,,,,,,,,0,54,0
75180,note_on,60,0,1,,,,,,,,0,64,0
75180,note_on,0,0,1,,,,,,,,0,59,64
75240,note_on,0,0,1,,,,,,,,0,68,64
75240,note_on,0,0,1,,,,,,,,0,59,64
75240,note_on,0,0,1,,,,,,,,0,56,0
75240,note_on,60,0,1,,,,,,,,0,59,0
75300,note_on,60,0,1,,,,,,,,0,68,0
75300,note_on,0,0,1,,,,,,,,0,64,64
75360,note_on,0,0,1,,,,,,,,0,57,64
75360,note_on,0,0,1,,,,,,,,0,71,64
75360,note_on,60,0,1,,,,,,,,0,64,0
75360,note_on,0,0,1,,,,,,,,0,59,0
75420,note_on,60,0,1,,,,,,,,0,66,64
75480,note_on,60,0,1,,,,,,,,0,66,0
75480,note_on,0,0,1,,,,,,,,0,56,64
75480,note_on,0,0,1,,,,,,,,0,64,64
75480,note_on,0,0,1,,,,,,,,0,57,0
75540,note_on,0,0,1,,,,,,,,0,62,64
75540,note_on,60,0,1,,,,,,,,0,64,0
75600,note_on,0,0,1,,,,,,,,0,57,64
75600,note_on,0,0,1,,,,,,,,0,61,64
75600,note_on,0,0,1,,,,,,,,0,56,0
75600,note_on,60,0,1,,,,,,,,0,62,0
75660,note_on,60,0,1,,,,,,,,0,71,0
75660,note_on,0,0,1,,,,,,,,0,64,64
75720,note_on,0,0,1,,,,,,,,0,59,64
75720,note_on,0,0,1,,,,,,,,0,69,64
75720,note_on,0,0,1,,,,,,,,0,61,0
75720,note_on,60,0,1,,,,,,,,0,64,0
75720,note_on,0,0,1,,,,,,,,0,57,0
75780,note_on,60,0,1,,,,,,,,0,69,0
75780,note_on,0,0,1,,,,,,,,0,68,64
75840,note_on,0,0,1,,,,,,,,0,59,0
75840,note_on,0,0,1,,,,,,,,0,61,64
75840,note_on,0,0,1,,,,,,,,0,69,64
75840,note_on,60,0,1,,,,,,,,0,68,0
75900,note_on,0,0,1,,,,,,,,0,64,64
75900,note_on,60,0,1,,,,,,,,0,69,0
75960,note_on,0,0,1,,,,,,,,0,61,0
75960,note_on,60,0,1,,,,,,,,0,64,0
75960,note_on,0,0,1,,,,,,,,0,64,64
75960,note_on,0,0,1,,,,,,,,0,73,64
76020,note_on,60,0,1,,,,,,,,0,73,0
76020,note_on,0,0,1,,,,,,,,0,69,64
76080,note_on,0,0,1,,,,,,,,0,76,64
76080,note_on,0,0,1,,,,,,,,0,57,64
76080,note_on,0,0,1,,,,,,,,0,64,0
76080,note_on,60,0,1,,,,,,,,0,69,0
76140,note_on,60,0,1,,,,,,,,0,71,64
76144,set_tempo,76144,1,0,,,,,,750000,,,,
76200,note_on,60,0,1,,,,,,,,0,71,0
76200,note_on,0,0,1,,,,,,,,0,59,64
76200,note_on,0,0,1,,,,,,,,0,69,64
76260,note_on,0,0,1,,,,,,,,0,68,64
76260,note_on,60,0,1,,,,,,,,0,69,0
76320,set_tempo,176,1,0,,,,,,750000,,,,
76320,note_on,0,0,1,,,,,,,,0,66,64
76320,note_on,0,0,1,,,,,,,,0,59,0
76320,note_on,60,0,1,,,,,,,,0,68,0
76320,note_on,0,0,1,,,,,,,,0,60,64
76380,note_on,60,0,1,,,,,,,,0,76,0
76380,note_on,0,0,1,,,,,,,,0,69,64
76440,note_on,0,0,1,,,,,,,,0,75,64
76440,note_on,60,0,1,,,,,,,,0,69,0
76440,note_on,0,0,1,,,,,,,,0,66,0
76472,set_tempo,152,1,0,,,,,,769231,,,,
76500,note_on,60,0,1,,,,,,,,0,75,0
76500,note_on,0,0,1,,,,,,,,0,73,64
76560,note_on,0,0,1,,,,,,,,0,75,64
76560,note_on,60,0,1,,,,,,,,0,73,0
76560,note_on,0,0,1,,,,,,,,0,60,0
76560,note_on,0,0,1,,,,,,,,0,57,0
76620,note_on,0,0,1,,,,,,,,0,69,64
76620,note_on,60,0,1,,,,,,,,0,75,0
76672,set_tempo,200,1,0,,,,,,779221,,,,
76680,note_on,0,0,1,,,,,,,,0,60,64
76680,note_on,60,0,1,,,,,,,,0,69,0
76680,note_on,0,0,1,,,,,,,,0,57,64
76680,note_on,0,0,1,,,,,,,,0,78,64
76740,note_on,0,0,1,,,,,,,,0,75,64
76740,note_on,60,0,1,,,,,,,,0,78,0
76800,note_on,0,0,1,,,,,,,,0,60,64
76800,set_tempo,128,1,0,,,,,,789474,,,,
76800,note_on,60,0,1,,,,,,,,0,75,0
76800,note_on,0,0,1,,,,,,,,0,60,0
76800,note_on,0,0,1,,,,,,,,0,57,0
76800,note_on,0,0,1,,,,,,,,0,81,64
76800,note_on,0,0,1,,,,,,,,0,57,64
76860,note_on,60,0,1,,,,,,,,0,81,0
76860,note_on,0,0,1,,,,,,,,0,78,64
76920,note_on,60,0,1,,,,,,,,0,78,0
76920,note_on,0,0,1,,,,,,,,0,60,0
76920,note_on,0,0,1,,,,,,,,0,57,0
76920,note_on,0,0,1,,,,,,,,0,60,64
76920,note_on,0,0,1,,,,,,,,0,57,64
76920,note_on,0,0,1,,,,,,,,0,76,64
76976,set_tempo,176,1,0,,,,,,821918,,,,
76980,note_on,0,0,1,,,,,,,,0,75,64
76980,note_on,60,0,1,,,,,,,,0,76,0
77040,note_on,0,0,1,,,,,,,,0,68,64
77040,note_on,0,0,1,,,,,,,,0,71,64
77040,note_on,0,0,1,,,,,,,,0,76,64
77040,note_on,0,0,1,,,,,,,,0,59,64
77040,set_tempo,64,1,0,,,,,,821918,,,,
77040,note_on,0,0,1,,,,,,,,0,60,0
77040,note_on,0,0,1,,,,,,,,0,57,0
77040,note_on,60,0,1,,,,,,,,0,75,0
77040,end_of_track,0,1,0,,,,,,,,,,
77040,note_on,0,0,1,,,,,,,,0,56,64
77760,note_on,720,0,1,,,,,,,,0,68,0
77760,note_on,0,0,1,,,,,,,,0,56,0
77760,note_on,0,0,1,,,,,,,,0,59,0
77760,note_on,0,0,1,,,,,,,,0,52,0
77760,note_on,0,0,1,,,,,,,,0,71,0
77760,note_on,0,0,1,,,,,,,,0,76,0
77760,end_of_track,0,1,1,,,,,,,,,,
