tick,type,numerator,denominator,clocks_per_click,notated_32nd_notes_per_beat,time,meta,track,key,tempo,port,program,channel,note,velocity
0,time_signature,3,8,12,8,0,1,0,,,,,,,
0,program_change,,,,,0,0,1,,,,6,0,,
0,program_change,,,,,0,0,3,,,,6,2,,
0,track_name,,,,,0,1,1,,,,,,,
0,program_change,,,,,0,0,2,,,,6,1,,
0,track_name,,,,,0,1,2,,,,,,,
0,midi_port,,,,,0,1,1,,,0,,,,
0,midi_port,,,,,0,1,3,,,0,,,,
0,key_signature,,,,,0,1,0,D,,,,,,
0,marker,,,,,0,1,0,,,,,,,
0,set_tempo,,,,,0,1,0,,681818,,,,,
0,midi_port,,,,,0,1,2,,,0,,,,
0,track_name,,,,,0,1,3,,,,,,,
120,note_on,,,,,120,0,2,,,,,1,66,64
154,note_on,,,,,34,0,2,,,,,1,66,0
180,note_on,,,,,26,0,2,,,,,1,62,64
214,note_on,,,,,34,0,2,,,,,1,62,0
240,note_on,,,,,26,0,2,,,,,1,59,64
274,note_on,,,,,34,0,2,,,,,1,59,0
300,note_on,,,,,26,0,2,,,,,1,58,64
334,note_on,,,,,34,0,2,,,,,1,58,0
360,note_on,,,,,26,0,2,,,,,1,59,64
419,note_on,,,,,59,0,2,,,,,1,59,0
420,note_on,,,,,1,0,2,,,,,1,61,64
450,note_on,,,,,30,0,2,,,,,1,62,64
454,note_on,,,,,4,0,2,,,,,1,61,0
480,note_on,,,,,26,0,2,,,,,1,64,64
484,note_on,,,,,4,0,2,,,,,1,62,0
510,note_on,,,,,26,0,2,,,,,1,66,64
514,note_on,,,,,4,0,2,,,,,1,64,0
540,note_on,,,,,26,0,2,,,,,1,67,64
544,note_on,,,,,4,0,2,,,,,1,66,0
574,note_on,,,,,30,0,2,,,,,1,67,0
600,note_on,,,,,26,0,2,,,,,1,55,64
634,note_on,,,,,34,0,2,,,,,1,55,0
660,note_on,,,,,26,0,2,,,,,1,67,64
694,note_on,,,,,34,0,2,,,,,1,67,0
720,note_on,,,,,26,0,2,,,,,1,66,64
754,note_on,,,,,34,0,2,,,,,1,66,0
780,note_on,,,,,26,0,2,,,,,1,54,64
814,note_on,,,,,34,0,2,,,,,1,54,0
840,note_on,,,,,26,0,2,,,,,1,66,64
874,note_on,,,,,34,0,2,,,,,1,66,0
900,note_on,,,,,26,0,2,,,,,1,64,64
959,note_on,,,,,59,0,2,,,,,1,64,0
960,note_on,,,,,1,0,2,,,,,1,66,64
986,note_on,,,,,26,0,2,,,,,1,66,0
990,note_on,,,,,4,0,2,,,,,1,64,64
1016,note_on,,,,,26,0,2,,,,,1,64,0
1020,note_on,,,,,4,0,2,,,,,1,62,64
1049,note_on,,,,,29,0,2,,,,,1,62,0
1050,note_on,,,,,1,0,2,,,,,1,61,64
1076,note_on,,,,,26,0,2,,,,,1,61,0
1080,note_on,,,,,4,0,2,,,,,1,62,64
1106,note_on,,,,,26,0,2,,,,,1,62,0
1110,note_on,,,,,4,0,2,,,,,1,66,64
1136,note_on,,,,,26,0,2,,,,,1,66,0
1140,note_on,,,,,4,0,2,,,,,1,64,64
1166,note_on,,,,,26,0,2,,,,,1,64,0
1170,note_on,,,,,4,0,2,,,,,1,62,64
1196,note_on,,,,,26,0,2,,,,,1,62,0
1200,note_on,,,,,1200,0,1,,,,,0,71,64
1200,note_on,,,,,4,0,2,,,,,1,61,64
1226,note_on,,,,,26,0,2,,,,,1,61,0
1230,note_on,,,,,4,0,2,,,,,1,59,64
1234,note_on,,,,,34,0,1,,,,,0,71,0
1256,note_on,,,,,26,0,2,,,,,1,59,0
1260,note_on,,,,,26,0,1,,,,,0,69,64
1260,note_on,,,,,4,0,2,,,,,1,61,64
1286,note_on,,,,,26,0,2,,,,,1,61,0
1290,note_on,,,,,4,0,2,,,,,1,59,64
1294,note_on,,,,,34,0,1,,,,,0,69,0
1320,note_on,,,,,26,0,1,,,,,0,66,64
1320,note_on,,,,,30,0,2,,,,,1,61,64
1324,note_on,,,,,4,0,2,,,,,1,59,0
1350,note_on,,,,,26,0,2,,,,,1,62,64
1354,note_on,,,,,34,0,1,,,,,0,66,0
1354,note_on,,,,,4,0,2,,,,,1,61,0
1380,note_on,,,,,26,0,2,,,,,1,61,64
1380,note_on,,,,,26,0,1,,,,,0,65,64
1384,note_on,,,,,4,0,2,,,,,1,62,0
1409,note_on,,,,,25,0,2,,,,,1,61,0
1410,note_on,,,,,1,0,2,,,,,1,59,64
1419,note_on,,,,,39,0,1,,,,,0,65,0
1436,note_on,,,,,26,0,2,,,,,1,59,0
1440,note_on,,,,,4,0,2,,,,,1,57,64
1440,note_on,,,,,21,0,1,,,,,0,66,64
1474,note_on,,,,,34,0,2,,,,,1,57,0
1500,note_on,,,,,60,0,1,,,,,0,68,64
1500,note_on,,,,,26,0,2,,,,,1,54,64
1504,note_on,,,,,4,0,1,,,,,0,66,0
1530,note_on,,,,,26,0,1,,,,,0,69,64
1534,note_on,,,,,34,0,2,,,,,1,54,0
1534,note_on,,,,,4,0,1,,,,,0,68,0
1560,note_on,,,,,26,0,1,,,,,0,71,64
1560,note_on,,,,,26,0,2,,,,,1,53,64
1564,note_on,,,,,4,0,1,,,,,0,69,0
1590,note_on,,,,,26,0,1,,,,,0,73,64
1594,note_on,,,,,4,0,1,,,,,0,71,0
1599,note_on,,,,,39,0,2,,,,,1,53,0
1616,note_on,,,,,22,0,1,,,,,0,73,0
1620,note_on,,,,,4,0,1,,,,,0,74,64
1620,note_on,,,,,21,0,2,,,,,1,54,64
1649,note_on,,,,,29,0,2,,,,,1,54,0
1650,note_on,,,,,1,0,2,,,,,1,56,64
1654,note_on,,,,,34,0,1,,,,,0,74,0
1676,note_on,,,,,26,0,2,,,,,1,56,0
1680,note_on,,,,,4,0,2,,,,,1,57,64
1680,note_on,,,,,26,0,1,,,,,0,62,64
1700,note_on,,,,,20,0,2,,,,,1,56,64
1709,note_on,,,,,9,0,2,,,,,1,57,0
1710,note_on,,,,,1,0,2,,,,,1,57,64
1714,note_on,,,,,34,0,1,,,,,0,62,0
1719,note_on,,,,,9,0,2,,,,,1,56,0
1720,note_on,,,,,1,0,2,,,,,1,56,64
1729,note_on,,,,,9,0,2,,,,,1,57,0
1730,note_on,,,,,1,0,2,,,,,1,57,64
1739,note_on,,,,,9,0,2,,,,,1,56,0
1740,note_on,,,,,26,0,1,,,,,0,74,64
1740,note_on,,,,,1,0,2,,,,,1,56,64
1749,note_on,,,,,9,0,2,,,,,1,57,0
1750,note_on,,,,,1,0,2,,,,,1,57,64
1759,note_on,,,,,9,0,2,,,,,1,56,0
1760,note_on,,,,,1,0,2,,,,,1,56,64
1769,note_on,,,,,9,0,2,,,,,1,57,0
1770,note_on,,,,,1,0,2,,,,,1,54,64
1774,note_on,,,,,34,0,1,,,,,0,74,0
1779,note_on,,,,,9,0,2,,,,,1,56,0
1783,note_on,,,,,4,0,2,,,,,1,54,0
1785,note_on,,,,,2,0,2,,,,,1,56,64
1798,note_on,,,,,13,0,2,,,,,1,56,0
1800,note_on,,,,,2,0,2,,,,,1,57,64
1800,note_on,,,,,26,0,1,,,,,0,73,64
1826,note_on,,,,,26,0,2,,,,,1,57,0
1830,note_on,,,,,4,0,2,,,,,1,59,64
1834,note_on,,,,,34,0,1,,,,,0,73,0
1856,note_on,,,,,26,0,2,,,,,1,59,0
1860,note_on,,,,,4,0,2,,,,,1,57,64
1860,note_on,,,,,26,0,1,,,,,0,61,64
1886,note_on,,,,,26,0,2,,,,,1,57,0
1890,note_on,,,,,4,0,2,,,,,1,56,64
1894,note_on,,,,,34,0,1,,,,,0,61,0
1916,note_on,,,,,26,0,2,,,,,1,56,0
1920,note_on,,,,,26,0,1,,,,,0,73,64
1920,note_on,,,,,4,0,2,,,,,1,54,64
1946,note_on,,,,,26,0,2,,,,,1,54,0
1950,note_on,,,,,4,0,2,,,,,1,52,64
1954,note_on,,,,,34,0,1,,,,,0,73,0
1976,note_on,,,,,26,0,2,,,,,1,52,0
1980,note_on,,,,,26,0,1,,,,,0,71,64
1980,note_on,,,,,4,0,2,,,,,1,51,64
2006,note_on,,,,,26,0,2,,,,,1,51,0
2010,note_on,,,,,4,0,2,,,,,1,53,64
2036,note_on,,,,,26,0,2,,,,,1,53,0
2039,note_on,,,,,59,0,1,,,,,0,71,0
2040,note_on,,,,,4,0,2,,,,,1,54,64
2040,note_on,,,,,1,0,1,,,,,0,73,64
2055,note_on,,,,,15,0,2,,,,,1,53,64
2064,note_on,,,,,9,0,2,,,,,1,54,0
2065,note_on,,,,,1,0,2,,,,,1,54,64
2070,note_on,,,,,30,0,1,,,,,0,71,64
2074,note_on,,,,,9,0,2,,,,,1,53,0
2074,note_on,,,,,4,0,1,,,,,0,73,0
2075,note_on,,,,,1,0,2,,,,,1,53,64
2084,note_on,,,,,9,0,2,,,,,1,54,0
2085,note_on,,,,,1,0,2,,,,,1,54,64
2094,note_on,,,,,9,0,2,,,,,1,53,0
2095,note_on,,,,,1,0,2,,,,,1,53,64
2100,note_on,,,,,26,0,1,,,,,0,69,64
2104,note_on,,,,,9,0,2,,,,,1,54,0
2104,note_on,,,,,4,0,1,,,,,0,71,0
2105,note_on,,,,,1,0,2,,,,,1,54,64
2114,note_on,,,,,9,0,2,,,,,1,53,0
2115,note_on,,,,,1,0,2,,,,,1,53,64
2124,note_on,,,,,9,0,2,,,,,1,54,0
2126,note_on,,,,,22,0,1,,,,,0,69,0
2130,note_on,,,,,4,0,1,,,,,0,68,64
2130,note_on,,,,,6,0,2,,,,,1,51,64
2134,note_on,,,,,4,0,2,,,,,1,53,0
2143,note_on,,,,,9,0,2,,,,,1,51,0
2145,note_on,,,,,2,0,2,,,,,1,53,64
2156,note_on,,,,,26,0,1,,,,,0,68,0
2158,note_on,,,,,13,0,2,,,,,1,53,0
2160,note_on,,,,,4,0,1,,,,,0,69,64
2160,note_on,,,,,2,0,2,,,,,1,54,64
2186,note_on,,,,,26,0,1,,,,,0,69,0
2190,note_on,,,,,4,0,1,,,,,0,73,64
2212,note_on,,,,,52,0,2,,,,,1,54,0
2220,note_on,,,,,8,0,2,,,,,1,56,64
2220,note_on,,,,,30,0,1,,,,,0,71,64
2224,note_on,,,,,4,0,1,,,,,0,73,0
2250,note_on,,,,,26,0,1,,,,,0,69,64
2254,note_on,,,,,4,0,1,,,,,0,71,0
2272,note_on,,,,,52,0,2,,,,,1,56,0
2276,note_on,,,,,22,0,1,,,,,0,69,0
2280,note_on,,,,,4,0,1,,,,,0,68,64
2280,note_on,,,,,8,0,2,,,,,1,57,64
2306,note_on,,,,,26,0,1,,,,,0,68,0
2310,note_on,,,,,4,0,1,,,,,0,66,64
2332,note_on,,,,,52,0,2,,,,,1,57,0
2336,note_on,,,,,26,0,1,,,,,0,66,0
2340,note_on,,,,,4,0,1,,,,,0,67,64
2340,note_on,,,,,8,0,2,,,,,1,59,64
2366,note_on,,,,,26,0,2,,,,,1,59,0
2370,note_on,,,,,4,0,2,,,,,1,61,64
2392,note_on,,,,,52,0,1,,,,,0,67,0
2396,note_on,,,,,26,0,2,,,,,1,61,0
2400,note_on,,,,,4,0,2,,,,,1,62,64
2400,note_on,,,,,8,0,1,,,,,0,69,64
2415,note_on,,,,,15,0,2,,,,,1,61,64
2424,note_on,,,,,9,0,2,,,,,1,62,0
2425,note_on,,,,,1,0,2,,,,,1,62,64
2430,note_on,,,,,30,0,1,,,,,0,67,64
2434,note_on,,,,,9,0,2,,,,,1,61,0
2434,note_on,,,,,4,0,1,,,,,0,69,0
2435,note_on,,,,,1,0,2,,,,,1,61,64
2444,note_on,,,,,9,0,2,,,,,1,62,0
2445,note_on,,,,,1,0,2,,,,,1,62,64
2454,note_on,,,,,9,0,2,,,,,1,61,0
2455,note_on,,,,,1,0,2,,,,,1,61,64
2460,note_on,,,,,26,0,1,,,,,0,66,64
2464,note_on,,,,,9,0,2,,,,,1,62,0
2464,note_on,,,,,4,0,1,,,,,0,67,0
2465,note_on,,,,,1,0,2,,,,,1,62,64
2474,note_on,,,,,9,0,2,,,,,1,61,0
2475,note_on,,,,,1,0,2,,,,,1,61,64
2484,note_on,,,,,9,0,2,,,,,1,62,0
2486,note_on,,,,,22,0,1,,,,,0,66,0
2490,note_on,,,,,4,0,1,,,,,0,64,64
2490,note_on,,,,,6,0,2,,,,,1,59,64
2494,note_on,,,,,4,0,2,,,,,1,61,0
2503,note_on,,,,,9,0,2,,,,,1,59,0
2505,note_on,,,,,2,0,2,,,,,1,61,64
2516,note_on,,,,,26,0,1,,,,,0,64,0
2518,note_on,,,,,13,0,2,,,,,1,61,0
2520,note_on,,,,,2,0,2,,,,,1,62,64
2520,note_on,,,,,4,0,1,,,,,0,66,64
2546,note_on,,,,,26,0,1,,,,,0,66,0
2550,note_on,,,,,4,0,1,,,,,0,69,64
2554,note_on,,,,,34,0,2,,,,,1,62,0
2580,note_on,,,,,26,0,2,,,,,1,58,64
2580,note_on,,,,,30,0,1,,,,,0,67,64
2584,note_on,,,,,4,0,1,,,,,0,69,0
2609,note_on,,,,,25,0,1,,,,,0,67,0
2610,note_on,,,,,1,0,1,,,,,0,66,64
2614,note_on,,,,,34,0,2,,,,,1,58,0
2636,note_on,,,,,26,0,1,,,,,0,66,0
2640,note_on,,,,,26,0,2,,,,,1,59,64
2640,note_on,,,,,4,0,1,,,,,0,64,64
2666,note_on,,,,,26,0,1,,,,,0,64,0
2670,note_on,,,,,4,0,1,,,,,0,62,64
2696,note_on,,,,,26,0,1,,,,,0,62,0
2700,note_on,,,,,4,0,1,,,,,0,64,64
2752,note_on,,,,,52,0,1,,,,,0,64,0
2759,note_on,,,,,119,0,2,,,,,1,59,0
2760,note_on,,,,,1,0,2,,,,,1,58,64
2760,note_on,,,,,8,0,1,,,,,0,66,64
2786,note_on,,,,,26,0,1,,,,,0,66,0
2789,note_on,,,,,29,0,2,,,,,1,58,0
2790,note_on,,,,,4,0,1,,,,,0,64,64
2790,note_on,,,,,1,0,2,,,,,1,56,64
2816,note_on,,,,,26,0,1,,,,,0,64,0
2819,note_on,,,,,29,0,2,,,,,1,56,0
2820,note_on,,,,,2820,0,3,,,,,2,54,64
2820,note_on,,,,,1,0,2,,,,,1,58,64
2820,note_on,,,,,4,0,1,,,,,0,62,64
2846,note_on,,,,,26,0,1,,,,,0,62,0
2850,note_on,,,,,4,0,1,,,,,0,61,64
2854,note_on,,,,,34,0,3,,,,,2,54,0
2876,note_on,,,,,26,0,1,,,,,0,61,0
2880,note_on,,,,,4,0,1,,,,,0,62,64
2880,note_on,,,,,60,0,2,,,,,1,59,64
2880,note_on,,,,,26,0,3,,,,,2,50,64
2884,note_on,,,,,4,0,2,,,,,1,58,0
2906,note_on,,,,,26,0,1,,,,,0,62,0
2910,note_on,,,,,4,0,1,,,,,0,64,64
2914,note_on,,,,,34,0,3,,,,,2,50,0
2932,note_on,,,,,48,0,2,,,,,1,59,0
2936,note_on,,,,,26,0,1,,,,,0,64,0
2940,note_on,,,,,26,0,3,,,,,2,47,64
2940,note_on,,,,,4,0,1,,,,,0,66,64
2966,note_on,,,,,26,0,1,,,,,0,66,0
2970,note_on,,,,,4,0,1,,,,,0,67,64
2974,note_on,,,,,34,0,3,,,,,2,47,0
2996,note_on,,,,,26,0,1,,,,,0,67,0
3000,note_on,,,,,26,0,3,,,,,2,46,64
3000,note_on,,,,,4,0,1,,,,,0,66,64
3030,note_on,,,,,98,0,2,,,,,1,64,64
3034,note_on,,,,,34,0,3,,,,,2,46,0
3056,note_on,,,,,26,0,2,,,,,1,64,0
3060,note_on,,,,,4,0,2,,,,,1,62,64
3060,note_on,,,,,26,0,3,,,,,2,47,64
3094,note_on,,,,,34,0,2,,,,,1,62,0
3112,note_on,,,,,52,0,3,,,,,2,47,0
3120,note_on,,,,,8,0,3,,,,,2,49,64
3120,note_on,,,,,26,0,2,,,,,1,59,64
3146,note_on,,,,,26,0,3,,,,,2,49,0
3150,note_on,,,,,4,0,3,,,,,2,50,64
3154,note_on,,,,,34,0,2,,,,,1,59,0
3176,note_on,,,,,26,0,3,,,,,2,50,0
3180,note_on,,,,,26,0,2,,,,,1,58,64
3180,note_on,,,,,4,0,3,,,,,2,52,64
3206,note_on,,,,,26,0,3,,,,,2,52,0
3210,note_on,,,,,4,0,3,,,,,2,54,64
3214,note_on,,,,,34,0,2,,,,,1,58,0
3236,note_on,,,,,26,0,3,,,,,2,54,0
3240,note_on,,,,,4,0,3,,,,,2,55,64
3240,note_on,,,,,26,0,2,,,,,1,59,64
3269,note_on,,,,,29,0,2,,,,,1,59,0
3270,note_on,,,,,1,0,2,,,,,1,61,64
3274,note_on,,,,,34,0,3,,,,,2,55,0
3292,note_on,,,,,292,0,1,,,,,0,66,0
3296,note_on,,,,,26,0,2,,,,,1,61,0
3300,note_on,,,,,26,0,3,,,,,2,43,64
3300,note_on,,,,,4,0,2,,,,,1,62,64
3300,note_on,,,,,8,0,1,,,,,0,64,64
3315,note_on,,,,,15,0,2,,,,,1,61,64
3324,note_on,,,,,9,0,2,,,,,1,62,0
3325,note_on,,,,,1,0,2,,,,,1,62,64
3329,note_on,,,,,29,0,3,,,,,2,43,0
3334,note_on,,,,,34,0,1,,,,,0,64,0
3334,note_on,,,,,9,0,2,,,,,1,61,0
3335,note_on,,,,,1,0,2,,,,,1,61,64
3344,note_on,,,,,9,0,2,,,,,1,62,0
3345,note_on,,,,,1,0,2,,,,,1,62,64
3354,note_on,,,,,9,0,2,,,,,1,61,0
3355,note_on,,,,,1,0,2,,,,,1,61,64
3360,note_on,,,,,26,0,1,,,,,0,69,64
3360,note_on,,,,,31,0,3,,,,,2,55,64
3364,note_on,,,,,9,0,2,,,,,1,62,0
3365,note_on,,,,,1,0,2,,,,,1,62,64
3374,note_on,,,,,9,0,2,,,,,1,61,0
3375,note_on,,,,,1,0,2,,,,,1,61,64
3384,note_on,,,,,9,0,2,,,,,1,62,0
3390,note_on,,,,,6,0,2,,,,,1,59,64
3394,note_on,,,,,34,0,3,,,,,2,55,0
3394,note_on,,,,,4,0,2,,,,,1,61,0
3403,note_on,,,,,9,0,2,,,,,1,59,0
3405,note_on,,,,,2,0,2,,,,,1,61,64
3418,note_on,,,,,13,0,2,,,,,1,61,0
3420,note_on,,,,,26,0,3,,,,,2,54,64
3420,note_on,,,,,2,0,2,,,,,1,62,64
3446,note_on,,,,,26,0,2,,,,,1,62,0
3450,note_on,,,,,4,0,2,,,,,1,64,64
3454,note_on,,,,,34,0,3,,,,,2,54,0
3472,note_on,,,,,112,0,1,,,,,0,69,0
3480,note_on,,,,,26,0,3,,,,,2,42,64
3480,note_on,,,,,8,0,1,,,,,0,66,64
3480,note_on,,,,,30,0,2,,,,,1,62,64
3484,note_on,,,,,4,0,2,,,,,1,64,0
3510,note_on,,,,,26,0,2,,,,,1,61,64
3514,note_on,,,,,34,0,1,,,,,0,66,0
3514,note_on,,,,,4,0,2,,,,,1,62,0
3514,note_on,,,,,34,0,3,,,,,2,42,0
3539,note_on,,,,,25,0,2,,,,,1,61,0
3540,note_on,,,,,26,0,1,,,,,0,62,64
3540,note_on,,,,,1,0,2,,,,,1,59,64
3540,note_on,,,,,26,0,3,,,,,2,54,64
3566,note_on,,,,,26,0,2,,,,,1,59,0
3570,note_on,,,,,4,0,2,,,,,1,57,64
3574,note_on,,,,,34,0,3,,,,,2,54,0
3596,note_on,,,,,26,0,2,,,,,1,57,0
3600,note_on,,,,,26,0,3,,,,,2,52,64
3600,note_on,,,,,4,0,2,,,,,1,56,64
3626,note_on,,,,,26,0,2,,,,,1,56,0
3630,note_on,,,,,4,0,2,,,,,1,58,64
3652,note_on,,,,,112,0,1,,,,,0,62,0
3652,note_on,,,,,52,0,3,,,,,2,52,0
3656,note_on,,,,,26,0,2,,,,,1,58,0
3660,note_on,,,,,8,0,3,,,,,2,54,64
3660,note_on,,,,,4,0,2,,,,,1,59,64
3660,note_on,,,,,8,0,1,,,,,0,61,64
3675,note_on,,,,,15,0,2,,,,,1,58,64
3684,note_on,,,,,9,0,2,,,,,1,59,0
3685,note_on,,,,,1,0,2,,,,,1,59,64
3686,note_on,,,,,26,0,3,,,,,2,54,0
3690,note_on,,,,,4,0,3,,,,,2,52,64
3694,note_on,,,,,9,0,2,,,,,1,58,0
3694,note_on,,,,,34,0,1,,,,,0,61,0
3695,note_on,,,,,1,0,2,,,,,1,58,64
3704,note_on,,,,,9,0,2,,,,,1,59,0
3705,note_on,,,,,1,0,2,,,,,1,59,64
3714,note_on,,,,,9,0,2,,,,,1,58,0
3715,note_on,,,,,1,0,2,,,,,1,58,64
3716,note_on,,,,,26,0,3,,,,,2,52,0
3720,note_on,,,,,26,0,1,,,,,0,66,64
3720,note_on,,,,,4,0,3,,,,,2,50,64
3724,note_on,,,,,9,0,2,,,,,1,59,0
3725,note_on,,,,,1,0,2,,,,,1,59,64
3734,note_on,,,,,9,0,2,,,,,1,58,0
3735,note_on,,,,,1,0,2,,,,,1,58,64
3744,note_on,,,,,9,0,2,,,,,1,59,0
3746,note_on,,,,,26,0,3,,,,,2,50,0
3750,note_on,,,,,6,0,2,,,,,1,56,64
3750,note_on,,,,,4,0,3,,,,,2,49,64
3754,note_on,,,,,4,0,2,,,,,1,58,0
3763,note_on,,,,,9,0,2,,,,,1,56,0
3765,note_on,,,,,2,0,2,,,,,1,58,64
3776,note_on,,,,,26,0,3,,,,,2,49,0
3778,note_on,,,,,13,0,2,,,,,1,58,0
3780,note_on,,,,,2,0,2,,,,,1,59,64
3780,note_on,,,,,4,0,3,,,,,2,50,64
3806,note_on,,,,,26,0,3,,,,,2,50,0
3810,note_on,,,,,4,0,3,,,,,2,54,64
3832,note_on,,,,,112,0,1,,,,,0,66,0
3836,note_on,,,,,26,0,3,,,,,2,54,0
3840,note_on,,,,,4,0,3,,,,,2,52,64
3866,note_on,,,,,26,0,3,,,,,2,52,0
3870,note_on,,,,,4,0,3,,,,,2,50,64
3885,note_on,,,,,105,0,2,,,,,1,59,0
3896,note_on,,,,,26,0,3,,,,,2,50,0
3900,note_on,,,,,4,0,3,,,,,2,49,64
3900,note_on,,,,,68,0,1,,,,,0,68,64
3926,note_on,,,,,26,0,3,,,,,2,49,0
3930,note_on,,,,,4,0,3,,,,,2,47,64
3952,note_on,,,,,52,0,1,,,,,0,68,0
3956,note_on,,,,,26,0,3,,,,,2,47,0
3960,note_on,,,,,4,0,3,,,,,2,49,64
3960,note_on,,,,,8,0,1,,,,,0,69,64
3986,note_on,,,,,26,0,3,,,,,2,49,0
3986,note_on,,,,,26,0,1,,,,,0,69,0
3990,note_on,,,,,4,0,3,,,,,2,51,64
3990,note_on,,,,,4,0,1,,,,,0,73,64
4016,note_on,,,,,26,0,3,,,,,2,51,0
4016,note_on,,,,,26,0,1,,,,,0,73,0
4020,note_on,,,,,4,0,1,,,,,0,71,64
4020,note_on,,,,,4,0,3,,,,,2,52,64
4035,note_on,,,,,15,0,3,,,,,2,51,64
4044,note_on,,,,,9,0,3,,,,,2,52,0
4045,note_on,,,,,1,0,3,,,,,2,52,64
4046,note_on,,,,,26,0,1,,,,,0,71,0
4050,note_on,,,,,4,0,1,,,,,0,69,64
4054,note_on,,,,,9,0,3,,,,,2,51,0
4055,note_on,,,,,1,0,3,,,,,2,51,64
4064,note_on,,,,,9,0,3,,,,,2,52,0
4065,note_on,,,,,1,0,3,,,,,2,52,64
4076,note_on,,,,,26,0,1,,,,,0,69,0
4079,note_on,,,,,14,0,3,,,,,2,51,0
4080,note_on,,,,,1,0,3,,,,,2,51,64
4080,note_on,,,,,4,0,1,,,,,0,68,64
4089,note_on,,,,,9,0,3,,,,,2,52,0
4090,note_on,,,,,1,0,3,,,,,2,52,64
4100,note_on,,,,,10,0,3,,,,,2,51,64
4104,note_on,,,,,4,0,3,,,,,2,51,0
4106,note_on,,,,,26,0,1,,,,,0,68,0
4110,note_on,,,,,4,0,1,,,,,0,66,64
4110,note_on,,,,,6,0,3,,,,,2,49,64
4114,note_on,,,,,4,0,3,,,,,2,52,0
4123,note_on,,,,,9,0,3,,,,,2,49,0
4124,note_on,,,,,1,0,3,,,,,2,51,0
4125,note_on,,,,,1,0,3,,,,,2,51,64
4136,note_on,,,,,26,0,1,,,,,0,66,0
4138,note_on,,,,,13,0,3,,,,,2,51,0
4140,note_on,,,,,2,0,3,,,,,2,52,64
4140,note_on,,,,,4,0,1,,,,,0,68,64
4166,note_on,,,,,26,0,3,,,,,2,52,0
4166,note_on,,,,,26,0,1,,,,,0,68,0
4170,note_on,,,,,4,0,1,,,,,0,70,64
4170,note_on,,,,,4,0,3,,,,,2,55,64
4196,note_on,,,,,26,0,1,,,,,0,70,0
4196,note_on,,,,,26,0,3,,,,,2,55,0
4200,note_on,,,,,4,0,1,,,,,0,71,64
4200,note_on,,,,,4,0,3,,,,,2,54,64
4215,note_on,,,,,15,0,1,,,,,0,70,64
4224,note_on,,,,,9,0,1,,,,,0,71,0
4225,note_on,,,,,1,0,1,,,,,0,71,64
4226,note_on,,,,,26,0,3,,,,,2,54,0
4230,note_on,,,,,4,0,3,,,,,2,52,64
4234,note_on,,,,,9,0,1,,,,,0,70,0
4235,note_on,,,,,1,0,1,,,,,0,70,64
4244,note_on,,,,,9,0,1,,,,,0,71,0
4245,note_on,,,,,1,0,1,,,,,0,71,64
4254,note_on,,,,,9,0,1,,,,,0,70,0
4255,note_on,,,,,1,0,1,,,,,0,70,64
4256,note_on,,,,,26,0,3,,,,,2,52,0
4260,note_on,,,,,4,0,3,,,,,2,50,64
4264,note_on,,,,,9,0,1,,,,,0,71,0
4265,note_on,,,,,1,0,1,,,,,0,71,64
4274,note_on,,,,,9,0,1,,,,,0,70,0
4275,note_on,,,,,1,0,1,,,,,0,70,64
4284,note_on,,,,,9,0,1,,,,,0,71,0
4286,note_on,,,,,26,0,3,,,,,2,50,0
4290,note_on,,,,,4,0,3,,,,,2,49,64
4290,note_on,,,,,6,0,1,,,,,0,68,64
4294,note_on,,,,,4,0,1,,,,,0,70,0
4303,note_on,,,,,9,0,1,,,,,0,68,0
4305,note_on,,,,,2,0,1,,,,,0,70,64
4316,note_on,,,,,26,0,3,,,,,2,49,0
4318,note_on,,,,,13,0,1,,,,,0,70,0
4320,note_on,,,,,2,0,1,,,,,0,71,64
4320,note_on,,,,,4,0,3,,,,,2,51,64
4346,note_on,,,,,26,0,1,,,,,0,71,0
4346,note_on,,,,,26,0,3,,,,,2,51,0
4350,note_on,,,,,4,0,1,,,,,0,74,64
4350,note_on,,,,,4,0,3,,,,,2,53,64
4376,note_on,,,,,26,0,3,,,,,2,53,0
4376,note_on,,,,,26,0,1,,,,,0,74,0
4380,note_on,,,,,4,0,3,,,,,2,54,64
4380,note_on,,,,,4,0,1,,,,,0,73,64
4395,note_on,,,,,15,0,3,,,,,2,53,64
4404,note_on,,,,,9,0,3,,,,,2,54,0
4405,note_on,,,,,1,0,3,,,,,2,54,64
4406,note_on,,,,,26,0,1,,,,,0,73,0
4410,note_on,,,,,4,0,1,,,,,0,71,64
4414,note_on,,,,,9,0,3,,,,,2,53,0
4415,note_on,,,,,1,0,3,,,,,2,53,64
4424,note_on,,,,,9,0,3,,,,,2,54,0
4425,note_on,,,,,1,0,3,,,,,2,54,64
4434,note_on,,,,,9,0,3,,,,,2,53,0
4435,note_on,,,,,1,0,3,,,,,2,53,64
4436,note_on,,,,,26,0,1,,,,,0,71,0
4440,note_on,,,,,4,0,1,,,,,0,69,64
4444,note_on,,,,,9,0,3,,,,,2,54,0
4445,note_on,,,,,1,0,3,,,,,2,54,64
4454,note_on,,,,,9,0,3,,,,,2,53,0
4455,note_on,,,,,1,0,3,,,,,2,53,64
4464,note_on,,,,,9,0,3,,,,,2,54,0
4466,note_on,,,,,26,0,1,,,,,0,69,0
4470,note_on,,,,,4,0,1,,,,,0,68,64
4470,note_on,,,,,6,0,3,,,,,2,51,64
4474,note_on,,,,,4,0,3,,,,,2,53,0
4483,note_on,,,,,9,0,3,,,,,2,51,0
4485,note_on,,,,,2,0,3,,,,,2,53,64
4496,note_on,,,,,26,0,1,,,,,0,68,0
4498,note_on,,,,,13,0,3,,,,,2,53,0
4500,note_on,,,,,4,0,1,,,,,0,69,64
4500,note_on,,,,,2,0,3,,,,,2,54,64
4526,note_on,,,,,26,0,3,,,,,2,54,0
4526,note_on,,,,,26,0,1,,,,,0,69,0
4530,note_on,,,,,4,0,1,,,,,0,71,64
4530,note_on,,,,,4,0,3,,,,,2,57,64
4556,note_on,,,,,26,0,3,,,,,2,57,0
4556,note_on,,,,,26,0,1,,,,,0,71,0
4560,note_on,,,,,4,0,1,,,,,0,73,64
4560,note_on,,,,,4,0,3,,,,,2,56,64
4575,note_on,,,,,15,0,1,,,,,0,71,64
4584,note_on,,,,,9,0,1,,,,,0,73,0
4585,note_on,,,,,1,0,1,,,,,0,73,64
4586,note_on,,,,,26,0,3,,,,,2,56,0
4590,note_on,,,,,4,0,3,,,,,2,54,64
4594,note_on,,,,,9,0,1,,,,,0,71,0
4595,note_on,,,,,1,0,1,,,,,0,71,64
4604,note_on,,,,,9,0,1,,,,,0,73,0
4605,note_on,,,,,1,0,1,,,,,0,73,64
4614,note_on,,,,,9,0,1,,,,,0,71,0
4615,note_on,,,,,1,0,1,,,,,0,71,64
4616,note_on,,,,,26,0,3,,,,,2,54,0
4620,note_on,,,,,4,0,3,,,,,2,53,64
4624,note_on,,,,,9,0,1,,,,,0,73,0
4625,note_on,,,,,1,0,1,,,,,0,73,64
4634,note_on,,,,,9,0,1,,,,,0,71,0
4635,note_on,,,,,1,0,1,,,,,0,71,64
4644,note_on,,,,,9,0,1,,,,,0,73,0
4646,note_on,,,,,26,0,3,,,,,2,53,0
4650,note_on,,,,,4,0,3,,,,,2,51,64
4650,note_on,,,,,6,0,1,,,,,0,69,64
4654,note_on,,,,,4,0,1,,,,,0,71,0
4663,note_on,,,,,9,0,1,,,,,0,69,0
4665,note_on,,,,,2,0,1,,,,,0,71,64
4676,note_on,,,,,26,0,3,,,,,2,51,0
4678,note_on,,,,,13,0,1,,,,,0,71,0
4680,note_on,,,,,2,0,1,,,,,0,73,64
4680,note_on,,,,,4,0,3,,,,,2,53,64
4706,note_on,,,,,26,0,3,,,,,2,53,0
4710,note_on,,,,,4,0,3,,,,,2,56,64
4736,note_on,,,,,26,0,3,,,,,2,56,0
4740,note_on,,,,,4,0,3,,,,,2,54,64
4766,note_on,,,,,26,0,3,,,,,2,54,0
4770,note_on,,,,,4,0,3,,,,,2,53,64
4796,note_on,,,,,26,0,3,,,,,2,53,0
4800,note_on,,,,,915,0,2,,,,,1,61,64
4800,note_on,,,,,4,0,3,,,,,2,51,64
4826,note_on,,,,,26,0,3,,,,,2,51,0
4830,note_on,,,,,4,0,3,,,,,2,49,64
4834,note_on,,,,,34,0,2,,,,,1,61,0
4856,note_on,,,,,26,0,3,,,,,2,49,0
4860,note_on,,,,,4,0,3,,,,,2,54,64
4860,note_on,,,,,26,0,2,,,,,1,57,64
4886,note_on,,,,,206,0,1,,,,,0,73,0
4890,note_on,,,,,4,0,1,,,,,0,74,64
4894,note_on,,,,,34,0,2,,,,,1,57,0
4912,note_on,,,,,52,0,3,,,,,2,54,0
4916,note_on,,,,,26,0,1,,,,,0,74,0
4920,note_on,,,,,26,0,2,,,,,1,54,64
4920,note_on,,,,,8,0,3,,,,,2,45,64
4920,note_on,,,,,4,0,1,,,,,0,73,64
4946,note_on,,,,,26,0,1,,,,,0,73,0
4949,note_on,,,,,29,0,3,,,,,2,45,0
4950,note_on,,,,,4,0,1,,,,,0,71,64
4954,note_on,,,,,34,0,2,,,,,1,54,0
4976,note_on,,,,,26,0,1,,,,,0,71,0
4980,note_on,,,,,4,0,1,,,,,0,69,64
4980,note_on,,,,,31,0,3,,,,,2,49,64
4980,note_on,,,,,26,0,2,,,,,1,53,64
5006,note_on,,,,,26,0,1,,,,,0,69,0
5009,note_on,,,,,29,0,3,,,,,2,49,0
5010,note_on,,,,,4,0,1,,,,,0,68,64
5014,note_on,,,,,34,0,2,,,,,1,53,0
5036,note_on,,,,,26,0,1,,,,,0,68,0
5040,note_on,,,,,26,0,2,,,,,1,54,64
5040,note_on,,,,,4,0,1,,,,,0,69,64
5040,note_on,,,,,31,0,3,,,,,2,42,64
5074,note_on,,,,,34,0,3,,,,,2,42,0
5074,note_on,,,,,34,0,1,,,,,0,69,0
5100,note_on,,,,,26,0,1,,,,,0,66,64
5100,note_on,,,,,60,0,2,,,,,1,56,64
5104,note_on,,,,,4,0,2,,,,,1,54,0
5130,note_on,,,,,26,0,2,,,,,1,57,64
5134,note_on,,,,,34,0,1,,,,,0,66,0
5134,note_on,,,,,4,0,2,,,,,1,56,0
5159,note_on,,,,,25,0,2,,,,,1,57,0
5160,note_on,,,,,26,0,1,,,,,0,65,64
5160,note_on,,,,,1,0,2,,,,,1,59,64
5189,note_on,,,,,29,0,2,,,,,1,59,0
5190,note_on,,,,,1,0,2,,,,,1,61,64
5194,note_on,,,,,34,0,1,,,,,0,65,0
5216,note_on,,,,,26,0,2,,,,,1,61,0
5220,note_on,,,,,4,0,2,,,,,1,62,64
5220,note_on,,,,,26,0,1,,,,,0,66,64
5249,note_on,,,,,29,0,2,,,,,1,62,0
5250,note_on,,,,,176,0,3,,,,,2,57,64
5276,note_on,,,,,26,0,3,,,,,2,57,0
5280,note_on,,,,,4,0,3,,,,,2,47,64
5280,note_on,,,,,31,0,2,,,,,1,50,64
5306,note_on,,,,,26,0,3,,,,,2,47,0
5310,note_on,,,,,4,0,3,,,,,2,57,64
5314,note_on,,,,,34,0,2,,,,,1,50,0
5314,note_on,,,,,94,0,1,,,,,0,66,0
5336,note_on,,,,,26,0,3,,,,,2,57,0
5340,note_on,,,,,26,0,1,,,,,0,71,64
5340,note_on,,,,,4,0,3,,,,,2,47,64
5340,note_on,,,,,26,0,2,,,,,1,62,64
5366,note_on,,,,,26,0,3,,,,,2,47,0
5370,note_on,,,,,4,0,3,,,,,2,56,64
5374,note_on,,,,,34,0,2,,,,,1,62,0
5396,note_on,,,,,26,0,3,,,,,2,56,0
5400,note_on,,,,,4,0,3,,,,,2,45,64
5400,note_on,,,,,26,0,2,,,,,1,61,64
5426,note_on,,,,,26,0,3,,,,,2,45,0
5430,note_on,,,,,4,0,3,,,,,2,56,64
5434,note_on,,,,,34,0,2,,,,,1,61,0
5456,note_on,,,,,26,0,3,,,,,2,56,0
5459,note_on,,,,,119,0,1,,,,,0,71,0
5460,note_on,,,,,26,0,2,,,,,1,49,64
5460,note_on,,,,,1,0,1,,,,,0,65,64
5460,note_on,,,,,4,0,3,,,,,2,45,64
5486,note_on,,,,,26,0,3,,,,,2,45,0
5490,note_on,,,,,4,0,3,,,,,2,56,64
5494,note_on,,,,,34,0,2,,,,,1,49,0
5494,note_on,,,,,34,0,1,,,,,0,65,0
5516,note_on,,,,,26,0,3,,,,,2,56,0
5520,note_on,,,,,26,0,1,,,,,0,66,64
5520,note_on,,,,,26,0,2,,,,,1,61,64
5520,note_on,,,,,4,0,3,,,,,2,45,64
5546,note_on,,,,,26,0,3,,,,,2,45,0
5550,note_on,,,,,4,0,3,,,,,2,54,64
5554,note_on,,,,,34,0,2,,,,,1,61,0
5554,note_on,,,,,34,0,1,,,,,0,66,0
5576,note_on,,,,,26,0,3,,,,,2,54,0
5580,note_on,,,,,26,0,2,,,,,1,59,64
5580,note_on,,,,,4,0,3,,,,,2,44,64
5580,note_on,,,,,26,0,1,,,,,0,62,64
5606,note_on,,,,,26,0,3,,,,,2,44,0
5610,note_on,,,,,4,0,3,,,,,2,54,64
5614,note_on,,,,,34,0,1,,,,,0,62,0
5636,note_on,,,,,26,0,3,,,,,2,54,0
5639,note_on,,,,,59,0,2,,,,,1,59,0
5640,note_on,,,,,26,0,1,,,,,0,61,64
5640,note_on,,,,,4,0,3,,,,,2,53,64
5640,note_on,,,,,1,0,2,,,,,1,61,64
5666,note_on,,,,,26,0,3,,,,,2,53,0
5669,note_on,,,,,29,0,2,,,,,1,61,0
5670,note_on,,,,,4,0,3,,,,,2,56,64
5670,note_on,,,,,1,0,2,,,,,1,59,64
5696,note_on,,,,,26,0,3,,,,,2,56,0
5699,note_on,,,,,29,0,2,,,,,1,59,0
5700,note_on,,,,,1,0,2,,,,,1,57,64
5700,note_on,,,,,4,0,3,,,,,2,49,64
5726,note_on,,,,,26,0,3,,,,,2,49,0
5726,note_on,,,,,26,0,2,,,,,1,57,0
5730,note_on,,,,,4,0,2,,,,,1,56,64
5730,note_on,,,,,4,0,3,,,,,2,53,64
5756,note_on,,,,,26,0,2,,,,,1,56,0
5756,note_on,,,,,26,0,3,,,,,2,53,0
5760,note_on,,,,,4,0,2,,,,,1,57,64
5760,note_on,,,,,4,0,3,,,,,2,42,64
5786,note_on,,,,,26,0,3,,,,,2,42,0
5790,note_on,,,,,4,0,3,,,,,2,54,64
5816,note_on,,,,,26,0,3,,,,,2,54,0
5819,note_on,,,,,59,0,2,,,,,1,57,0
5820,note_on,,,,,4,0,3,,,,,2,44,64
5820,note_on,,,,,1,0,2,,,,,1,59,64
5846,note_on,,,,,26,0,3,,,,,2,44,0
5850,note_on,,,,,4,0,3,,,,,2,54,64
5865,note_on,,,,,225,0,1,,,,,0,61,0
5876,note_on,,,,,26,0,3,,,,,2,54,0
5879,note_on,,,,,59,0,2,,,,,1,59,0
5880,note_on,,,,,15,0,1,,,,,0,66,64
5880,note_on,,,,,1,0,2,,,,,1,61,64
5880,note_on,,,,,4,0,3,,,,,2,45,64
5906,note_on,,,,,26,0,3,,,,,2,45,0
5910,note_on,,,,,4,0,3,,,,,2,54,64
5914,note_on,,,,,34,0,1,,,,,0,66,0
5936,note_on,,,,,26,0,3,,,,,2,54,0
5940,note_on,,,,,4,0,3,,,,,2,47,64
5940,note_on,,,,,26,0,1,,,,,0,62,64
5966,note_on,,,,,26,0,3,,,,,2,47,0
5970,note_on,,,,,4,0,3,,,,,2,54,64
5974,note_on,,,,,34,0,1,,,,,0,62,0
5996,note_on,,,,,26,0,3,,,,,2,54,0
6000,note_on,,,,,120,0,2,,,,,1,59,64
6000,note_on,,,,,4,0,3,,,,,2,49,64
6000,note_on,,,,,26,0,1,,,,,0,64,64
6004,note_on,,,,,4,0,2,,,,,1,61,0
6026,note_on,,,,,26,0,3,,,,,2,49,0
6030,note_on,,,,,4,0,3,,,,,2,54,64
6034,note_on,,,,,34,0,1,,,,,0,64,0
6056,note_on,,,,,26,0,3,,,,,2,54,0
6059,note_on,,,,,55,0,2,,,,,1,59,0
6060,note_on,,,,,4,0,3,,,,,2,50,64
6060,note_on,,,,,1,0,2,,,,,1,57,64
6060,note_on,,,,,26,0,1,,,,,0,66,64
6086,note_on,,,,,26,0,3,,,,,2,50,0
6090,note_on,,,,,4,0,3,,,,,2,54,64
6116,note_on,,,,,26,0,3,,,,,2,54,0
6119,note_on,,,,,59,0,2,,,,,1,57,0
6120,note_on,,,,,1,0,2,,,,,1,55,64
6120,note_on,,,,,4,0,3,,,,,2,40,64
6146,note_on,,,,,26,0,3,,,,,2,40,0
6150,note_on,,,,,4,0,3,,,,,2,52,64
6176,note_on,,,,,26,0,3,,,,,2,52,0
6179,note_on,,,,,59,0,2,,,,,1,55,0
6179,note_on,,,,,119,0,1,,,,,0,66,0
6180,note_on,,,,,1,0,2,,,,,1,57,64
6180,note_on,,,,,4,0,3,,,,,2,42,64
6180,note_on,,,,,1,0,1,,,,,0,64,64
6206,note_on,,,,,26,0,3,,,,,2,42,0
6210,note_on,,,,,4,0,3,,,,,2,52,64
6236,note_on,,,,,26,0,3,,,,,2,52,0
6240,note_on,,,,,60,0,1,,,,,0,62,64
6240,note_on,,,,,60,0,2,,,,,1,59,64
6240,note_on,,,,,4,0,3,,,,,2,43,64
6244,note_on,,,,,4,0,1,,,,,0,64,0
6244,note_on,,,,,4,0,2,,,,,1,57,0
6266,note_on,,,,,26,0,3,,,,,2,43,0
6270,note_on,,,,,4,0,3,,,,,2,52,64
6296,note_on,,,,,26,0,3,,,,,2,52,0
6300,note_on,,,,,4,0,3,,,,,2,45,64
6300,note_on,,,,,56,0,1,,,,,0,61,64
6304,note_on,,,,,4,0,1,,,,,0,62,0
6326,note_on,,,,,26,0,3,,,,,2,45,0
6330,note_on,,,,,4,0,3,,,,,2,52,64
6352,note_on,,,,,48,0,1,,,,,0,61,0
6356,note_on,,,,,26,0,3,,,,,2,52,0
6360,note_on,,,,,116,0,2,,,,,1,57,64
6360,note_on,,,,,4,0,3,,,,,2,47,64
6369,note_on,,,,,9,0,2,,,,,1,59,0
6386,note_on,,,,,26,0,3,,,,,2,47,0
6390,note_on,,,,,4,0,3,,,,,2,52,64
6412,note_on,,,,,43,0,2,,,,,1,57,0
6416,note_on,,,,,26,0,3,,,,,2,52,0
6420,note_on,,,,,68,0,1,,,,,0,81,64
6420,note_on,,,,,4,0,3,,,,,2,49,64
6446,note_on,,,,,26,0,3,,,,,2,49,0
6450,note_on,,,,,4,0,3,,,,,2,52,64
6454,note_on,,,,,34,0,1,,,,,0,81,0
6476,note_on,,,,,26,0,3,,,,,2,52,0
6480,note_on,,,,,4,0,3,,,,,2,50,64
6480,note_on,,,,,26,0,1,,,,,0,78,64
6506,note_on,,,,,26,0,3,,,,,2,50,0
6510,note_on,,,,,4,0,3,,,,,2,52,64
6514,note_on,,,,,34,0,1,,,,,0,78,0
6536,note_on,,,,,26,0,3,,,,,2,52,0
6540,note_on,,,,,4,0,3,,,,,2,54,64
6540,note_on,,,,,26,0,1,,,,,0,74,64
6566,note_on,,,,,26,0,3,,,,,2,54,0
6570,note_on,,,,,4,0,3,,,,,2,55,64
6574,note_on,,,,,34,0,1,,,,,0,74,0
6596,note_on,,,,,26,0,3,,,,,2,55,0
6600,note_on,,,,,26,0,1,,,,,0,73,64
6600,note_on,,,,,4,0,3,,,,,2,57,64
6626,note_on,,,,,26,0,3,,,,,2,57,0
6630,note_on,,,,,4,0,3,,,,,2,55,64
6634,note_on,,,,,34,0,1,,,,,0,73,0
6656,note_on,,,,,26,0,3,,,,,2,55,0
6660,note_on,,,,,26,0,1,,,,,0,74,64
6660,note_on,,,,,4,0,3,,,,,2,54,64
6686,note_on,,,,,26,0,3,,,,,2,54,0
6690,note_on,,,,,4,0,3,,,,,2,57,64
6716,note_on,,,,,26,0,3,,,,,2,57,0
6719,note_on,,,,,59,0,1,,,,,0,74,0
6720,note_on,,,,,1,0,1,,,,,0,76,64
6720,note_on,,,,,4,0,3,,,,,2,55,64
6746,note_on,,,,,26,0,3,,,,,2,55,0
6750,note_on,,,,,4,0,3,,,,,2,54,64
6750,note_on,,,,,30,0,1,,,,,0,78,64
6754,note_on,,,,,4,0,1,,,,,0,76,0
6776,note_on,,,,,26,0,3,,,,,2,54,0
6780,note_on,,,,,4,0,3,,,,,2,52,64
6780,note_on,,,,,26,0,1,,,,,0,79,64
6784,note_on,,,,,4,0,1,,,,,0,78,0
6806,note_on,,,,,26,0,3,,,,,2,52,0
6810,note_on,,,,,4,0,3,,,,,2,50,64
6810,note_on,,,,,26,0,1,,,,,0,81,64
6814,note_on,,,,,4,0,1,,,,,0,79,0
6836,note_on,,,,,26,0,3,,,,,2,50,0
6836,note_on,,,,,22,0,1,,,,,0,81,0
6840,note_on,,,,,4,0,3,,,,,2,55,64
6840,note_on,,,,,4,0,1,,,,,0,83,64
6869,note_on,,,,,29,0,1,,,,,0,83,0
6870,note_on,,,,,458,0,2,,,,,1,66,64
6892,note_on,,,,,52,0,3,,,,,2,55,0
6896,note_on,,,,,26,0,2,,,,,1,66,0
6900,note_on,,,,,31,0,1,,,,,0,71,64
6900,note_on,,,,,4,0,2,,,,,1,55,64
6926,note_on,,,,,26,0,2,,,,,1,55,0
6930,note_on,,,,,4,0,2,,,,,1,66,64
6934,note_on,,,,,34,0,1,,,,,0,71,0
6956,note_on,,,,,26,0,2,,,,,1,66,0
6960,note_on,,,,,68,0,3,,,,,2,52,64
6960,note_on,,,,,4,0,2,,,,,1,55,64
6960,note_on,,,,,26,0,1,,,,,0,83,64
6986,note_on,,,,,26,0,2,,,,,1,55,0
6989,note_on,,,,,29,0,1,,,,,0,83,0
6990,note_on,,,,,4,0,2,,,,,1,64,64
6994,note_on,,,,,34,0,3,,,,,2,52,0
7016,note_on,,,,,26,0,2,,,,,1,64,0
7020,note_on,,,,,4,0,2,,,,,1,54,64
7020,note_on,,,,,26,0,3,,,,,2,54,64
7020,note_on,,,,,31,0,1,,,,,0,81,64
7046,note_on,,,,,26,0,2,,,,,1,54,0
7050,note_on,,,,,4,0,2,,,,,1,64,64
7054,note_on,,,,,34,0,1,,,,,0,81,0
7072,note_on,,,,,52,0,3,,,,,2,54,0
7076,note_on,,,,,26,0,2,,,,,1,64,0
7080,note_on,,,,,4,0,2,,,,,1,54,64
7080,note_on,,,,,26,0,1,,,,,0,69,64
7106,note_on,,,,,26,0,2,,,,,1,54,0
7110,note_on,,,,,4,0,2,,,,,1,64,64
7114,note_on,,,,,34,0,1,,,,,0,69,0
7136,note_on,,,,,26,0,2,,,,,1,64,0
7140,note_on,,,,,26,0,1,,,,,0,81,64
7140,note_on,,,,,68,0,3,,,,,2,50,64
7140,note_on,,,,,4,0,2,,,,,1,54,64
7166,note_on,,,,,26,0,2,,,,,1,54,0
7169,note_on,,,,,29,0,3,,,,,2,50,0
7170,note_on,,,,,4,0,2,,,,,1,62,64
7174,note_on,,,,,34,0,1,,,,,0,81,0
7196,note_on,,,,,26,0,2,,,,,1,62,0
7200,note_on,,,,,26,0,1,,,,,0,79,64
7200,note_on,,,,,31,0,3,,,,,2,52,64
7200,note_on,,,,,4,0,2,,,,,1,52,64
7226,note_on,,,,,26,0,2,,,,,1,52,0
7230,note_on,,,,,4,0,2,,,,,1,62,64
7234,note_on,,,,,34,0,3,,,,,2,52,0
7256,note_on,,,,,26,0,2,,,,,1,62,0
7259,note_on,,,,,59,0,1,,,,,0,79,0
7260,note_on,,,,,4,0,2,,,,,1,61,64
7260,note_on,,,,,26,0,3,,,,,2,57,64
7260,note_on,,,,,1,0,1,,,,,0,81,64
7286,note_on,,,,,26,0,2,,,,,1,61,0
7290,note_on,,,,,4,0,2,,,,,1,64,64
7290,note_on,,,,,30,0,1,,,,,0,79,64
7294,note_on,,,,,4,0,1,,,,,0,81,0
7316,note_on,,,,,26,0,2,,,,,1,64,0
7319,note_on,,,,,25,0,1,,,,,0,79,0
7320,note_on,,,,,4,0,2,,,,,1,57,64
7320,note_on,,,,,1,0,1,,,,,0,78,64
7346,note_on,,,,,26,0,2,,,,,1,57,0
7350,note_on,,,,,30,0,1,,,,,0,76,64
7350,note_on,,,,,4,0,2,,,,,1,61,64
7354,note_on,,,,,4,0,1,,,,,0,78,0
7365,note_on,,,,,105,0,3,,,,,2,57,0
7376,note_on,,,,,26,0,2,,,,,1,61,0
7379,note_on,,,,,25,0,1,,,,,0,76,0
7380,note_on,,,,,15,0,3,,,,,2,50,64
7380,note_on,,,,,4,0,2,,,,,1,62,64
7380,note_on,,,,,1,0,1,,,,,0,78,64
7406,note_on,,,,,26,0,2,,,,,1,62,0
7406,note_on,,,,,26,0,1,,,,,0,78,0
7410,note_on,,,,,4,0,2,,,,,1,61,64
7410,note_on,,,,,4,0,1,,,,,0,81,64
7432,note_on,,,,,52,0,3,,,,,2,50,0
7436,note_on,,,,,26,0,2,,,,,1,61,0
7439,note_on,,,,,29,0,1,,,,,0,81,0
7440,note_on,,,,,1,0,1,,,,,0,79,64
7440,note_on,,,,,4,0,2,,,,,1,62,64
7466,note_on,,,,,26,0,1,,,,,0,79,0
7466,note_on,,,,,26,0,2,,,,,1,62,0
7470,note_on,,,,,4,0,1,,,,,0,78,64
7470,note_on,,,,,4,0,2,,,,,1,64,64
7496,note_on,,,,,26,0,2,,,,,1,64,0
7496,note_on,,,,,26,0,1,,,,,0,78,0
7500,note_on,,,,,68,0,3,,,,,2,59,64
7500,note_on,,,,,4,0,2,,,,,1,66,64
7500,note_on,,,,,4,0,1,,,,,0,76,64
7526,note_on,,,,,26,0,1,,,,,0,76,0
7526,note_on,,,,,26,0,2,,,,,1,66,0
7530,note_on,,,,,4,0,2,,,,,1,68,64
7530,note_on,,,,,4,0,1,,,,,0,74,64
7552,note_on,,,,,52,0,3,,,,,2,59,0
7556,note_on,,,,,26,0,2,,,,,1,68,0
7556,note_on,,,,,26,0,1,,,,,0,74,0
7560,note_on,,,,,4,0,2,,,,,1,69,64
7560,note_on,,,,,4,0,1,,,,,0,73,64
7560,note_on,,,,,8,0,3,,,,,2,66,64
7586,note_on,,,,,26,0,2,,,,,1,69,0
7590,note_on,,,,,4,0,2,,,,,1,68,64
7612,note_on,,,,,52,0,3,,,,,2,66,0
7616,note_on,,,,,26,0,2,,,,,1,68,0
7619,note_on,,,,,59,0,1,,,,,0,73,0
7620,note_on,,,,,4,0,2,,,,,1,69,64
7620,note_on,,,,,1,0,1,,,,,0,74,64
7646,note_on,,,,,26,0,2,,,,,1,69,0
7650,note_on,,,,,4,0,2,,,,,1,71,64
7676,note_on,,,,,26,0,2,,,,,1,71,0
7680,note_on,,,,,4,0,2,,,,,1,69,64
7680,note_on,,,,,60,0,1,,,,,0,76,64
7680,note_on,,,,,68,0,3,,,,,2,61,64
7684,note_on,,,,,4,0,1,,,,,0,74,0
7706,note_on,,,,,26,0,2,,,,,1,69,0
7710,note_on,,,,,4,0,2,,,,,1,68,64
7732,note_on,,,,,52,0,3,,,,,2,61,0
7736,note_on,,,,,26,0,2,,,,,1,68,0
7740,note_on,,,,,8,0,3,,,,,2,62,64
7740,note_on,,,,,4,0,2,,,,,1,66,64
7766,note_on,,,,,26,0,2,,,,,1,66,0
7770,note_on,,,,,4,0,2,,,,,1,64,64
7792,note_on,,,,,52,0,3,,,,,2,62,0
7796,note_on,,,,,26,0,2,,,,,1,64,0
7800,note_on,,,,,4,0,2,,,,,1,66,64
7800,note_on,,,,,116,0,1,,,,,0,74,64
7804,note_on,,,,,4,0,1,,,,,0,76,0
7826,note_on,,,,,26,0,2,,,,,1,66,0
7830,note_on,,,,,4,0,2,,,,,1,68,64
7856,note_on,,,,,26,0,2,,,,,1,68,0
7859,note_on,,,,,55,0,1,,,,,0,74,0
7860,note_on,,,,,68,0,3,,,,,2,63,64
7860,note_on,,,,,4,0,2,,,,,1,69,64
7860,note_on,,,,,1,0,1,,,,,0,73,64
7886,note_on,,,,,26,0,2,,,,,1,69,0
7890,note_on,,,,,4,0,2,,,,,1,66,64
7912,note_on,,,,,52,0,3,,,,,2,63,0
7916,note_on,,,,,26,0,2,,,,,1,66,0
7920,note_on,,,,,4,0,2,,,,,1,68,64
7920,note_on,,,,,8,0,3,,,,,2,64,64
7920,note_on,,,,,60,0,1,,,,,0,71,64
7924,note_on,,,,,4,0,1,,,,,0,73,0
7946,note_on,,,,,26,0,2,,,,,1,68,0
7950,note_on,,,,,4,0,2,,,,,1,64,64
7972,note_on,,,,,52,0,3,,,,,2,64,0
7976,note_on,,,,,26,0,2,,,,,1,64,0
7979,note_on,,,,,55,0,1,,,,,0,71,0
7980,note_on,,,,,4,0,2,,,,,1,66,64
7980,note_on,,,,,1,0,1,,,,,0,69,64
8006,note_on,,,,,26,0,2,,,,,1,66,0
8010,note_on,,,,,4,0,2,,,,,1,64,64
8036,note_on,,,,,26,0,2,,,,,1,64,0
8040,note_on,,,,,68,0,3,,,,,2,52,64
8040,note_on,,,,,4,0,2,,,,,1,68,64
8040,note_on,,,,,60,0,1,,,,,0,71,64
8044,note_on,,,,,4,0,1,,,,,0,69,0
8066,note_on,,,,,26,0,2,,,,,1,68,0
8070,note_on,,,,,4,0,2,,,,,1,64,64
8074,note_on,,,,,34,0,3,,,,,2,52,0
8096,note_on,,,,,26,0,2,,,,,1,64,0
8100,note_on,,,,,4,0,2,,,,,1,69,64
8100,note_on,,,,,26,0,3,,,,,2,49,64
8100,note_on,,,,,56,0,1,,,,,0,73,64
8104,note_on,,,,,4,0,1,,,,,0,71,0
8126,note_on,,,,,26,0,2,,,,,1,69,0
8129,note_on,,,,,29,0,3,,,,,2,49,0
8130,note_on,,,,,4,0,2,,,,,1,64,64
8156,note_on,,,,,26,0,2,,,,,1,64,0
8160,note_on,,,,,4,0,2,,,,,1,73,64
8160,note_on,,,,,31,0,3,,,,,2,45,64
8160,note_on,,,,,56,0,1,,,,,0,76,64
8164,note_on,,,,,4,0,1,,,,,0,73,0
8186,note_on,,,,,26,0,2,,,,,1,73,0
8190,note_on,,,,,4,0,2,,,,,1,64,64
8194,note_on,,,,,34,0,3,,,,,2,45,0
8216,note_on,,,,,26,0,2,,,,,1,64,0
8219,note_on,,,,,55,0,1,,,,,0,76,0
8220,note_on,,,,,1,0,1,,,,,0,74,64
8220,note_on,,,,,26,0,3,,,,,2,44,64
8220,note_on,,,,,4,0,2,,,,,1,71,64
8246,note_on,,,,,26,0,2,,,,,1,71,0
8250,note_on,,,,,4,0,2,,,,,1,64,64
8254,note_on,,,,,34,0,3,,,,,2,44,0
8272,note_on,,,,,52,0,1,,,,,0,74,0
8276,note_on,,,,,26,0,2,,,,,1,64,0
8280,note_on,,,,,26,0,3,,,,,2,45,64
8280,note_on,,,,,8,0,1,,,,,0,73,64
8280,note_on,,,,,4,0,2,,,,,1,69,64
8332,note_on,,,,,52,0,3,,,,,2,45,0
8340,note_on,,,,,8,0,3,,,,,2,47,64
8366,note_on,,,,,26,0,3,,,,,2,47,0
8370,note_on,,,,,90,0,2,,,,,1,68,64
8370,note_on,,,,,4,0,3,,,,,2,49,64
8374,note_on,,,,,4,0,2,,,,,1,69,0
8396,note_on,,,,,26,0,3,,,,,2,49,0
8400,note_on,,,,,26,0,2,,,,,1,66,64
8400,note_on,,,,,4,0,3,,,,,2,50,64
8404,note_on,,,,,4,0,2,,,,,1,68,0
8426,note_on,,,,,26,0,3,,,,,2,50,0
8429,note_on,,,,,25,0,2,,,,,1,66,0
8430,note_on,,,,,4,0,3,,,,,2,52,64
8430,note_on,,,,,1,0,2,,,,,1,64,64
8456,note_on,,,,,26,0,3,,,,,2,52,0
8456,note_on,,,,,26,0,2,,,,,1,64,0
8460,note_on,,,,,4,0,2,,,,,1,62,64
8460,note_on,,,,,4,0,3,,,,,2,54,64
8486,note_on,,,,,206,0,1,,,,,0,73,0
8489,note_on,,,,,29,0,2,,,,,1,62,0
8490,note_on,,,,,4,0,1,,,,,0,73,64
8494,note_on,,,,,34,0,3,,,,,2,54,0
8516,note_on,,,,,26,0,1,,,,,0,73,0
8520,note_on,,,,,31,0,2,,,,,1,69,64
8520,note_on,,,,,26,0,3,,,,,2,42,64
8520,note_on,,,,,4,0,1,,,,,0,62,64
8546,note_on,,,,,26,0,1,,,,,0,62,0
8550,note_on,,,,,4,0,1,,,,,0,73,64
8554,note_on,,,,,34,0,3,,,,,2,42,0
8554,note_on,,,,,34,0,2,,,,,1,69,0
8576,note_on,,,,,26,0,1,,,,,0,73,0
8580,note_on,,,,,26,0,2,,,,,1,68,64
8580,note_on,,,,,26,0,3,,,,,2,54,64
8580,note_on,,,,,4,0,1,,,,,0,62,64
8606,note_on,,,,,26,0,1,,,,,0,62,0
8610,note_on,,,,,4,0,1,,,,,0,71,64
8614,note_on,,,,,34,0,2,,,,,1,68,0
8614,note_on,,,,,34,0,3,,,,,2,54,0
8636,note_on,,,,,26,0,1,,,,,0,71,0
8640,note_on,,,,,4,0,1,,,,,0,61,64
8640,note_on,,,,,26,0,3,,,,,2,52,64
8666,note_on,,,,,26,0,1,,,,,0,61,0
8670,note_on,,,,,4,0,1,,,,,0,71,64
8674,note_on,,,,,34,0,3,,,,,2,52,0
8696,note_on,,,,,26,0,1,,,,,0,71,0
8700,note_on,,,,,26,0,3,,,,,2,40,64
8700,note_on,,,,,4,0,1,,,,,0,61,64
8700,note_on,,,,,86,0,2,,,,,1,68,64
8726,note_on,,,,,26,0,1,,,,,0,61,0
8730,note_on,,,,,4,0,1,,,,,0,71,64
8734,note_on,,,,,34,0,3,,,,,2,40,0
8734,note_on,,,,,34,0,2,,,,,1,68,0
8756,note_on,,,,,26,0,1,,,,,0,71,0
8760,note_on,,,,,4,0,1,,,,,0,61,64
8760,note_on,,,,,26,0,3,,,,,2,52,64
8760,note_on,,,,,26,0,2,,,,,1,66,64
8786,note_on,,,,,26,0,1,,,,,0,61,0
8790,note_on,,,,,4,0,1,,,,,0,69,64
8794,note_on,,,,,34,0,3,,,,,2,52,0
8794,note_on,,,,,34,0,2,,,,,1,66,0
8816,note_on,,,,,26,0,1,,,,,0,69,0
8820,note_on,,,,,26,0,3,,,,,2,50,64
8820,note_on,,,,,4,0,1,,,,,0,59,64
8846,note_on,,,,,26,0,1,,,,,0,59,0
8850,note_on,,,,,4,0,1,,,,,0,69,64
8872,note_on,,,,,52,0,3,,,,,2,50,0
8876,note_on,,,,,26,0,1,,,,,0,69,0
8880,note_on,,,,,4,0,1,,,,,0,68,64
8880,note_on,,,,,86,0,2,,,,,1,64,64
8880,note_on,,,,,8,0,3,,,,,2,52,64
8906,note_on,,,,,26,0,1,,,,,0,68,0
8906,note_on,,,,,26,0,3,,,,,2,52,0
8910,note_on,,,,,4,0,1,,,,,0,71,64
8910,note_on,,,,,4,0,3,,,,,2,50,64
8936,note_on,,,,,26,0,3,,,,,2,50,0
8936,note_on,,,,,26,0,1,,,,,0,71,0
8940,note_on,,,,,60,0,2,,,,,1,62,64
8940,note_on,,,,,4,0,3,,,,,2,49,64
8940,note_on,,,,,4,0,1,,,,,0,64,64
8944,note_on,,,,,4,0,2,,,,,1,64,0
8966,note_on,,,,,26,0,1,,,,,0,64,0
8966,note_on,,,,,26,0,3,,,,,2,49,0
8970,note_on,,,,,4,0,3,,,,,2,47,64
8970,note_on,,,,,4,0,1,,,,,0,68,64
8996,note_on,,,,,26,0,1,,,,,0,68,0
8996,note_on,,,,,26,0,3,,,,,2,47,0
9000,note_on,,,,,4,0,1,,,,,0,69,64
9000,note_on,,,,,4,0,3,,,,,2,49,64
9026,note_on,,,,,26,0,3,,,,,2,49,0
9030,note_on,,,,,4,0,3,,,,,2,52,64
9039,note_on,,,,,39,0,1,,,,,0,69,0
9056,note_on,,,,,26,0,3,,,,,2,52,0
9059,note_on,,,,,115,0,2,,,,,1,62,0
9060,note_on,,,,,1,0,2,,,,,1,61,64
9060,note_on,,,,,4,0,3,,,,,2,57,64
9060,note_on,,,,,21,0,1,,,,,0,64,64
9086,note_on,,,,,26,0,3,,,,,2,57,0
9090,note_on,,,,,4,0,3,,,,,2,52,64
9116,note_on,,,,,26,0,3,,,,,2,52,0
9119,note_on,,,,,59,0,1,,,,,0,64,0
9120,note_on,,,,,60,0,2,,,,,1,60,64
9120,note_on,,,,,1,0,1,,,,,0,66,64
9120,note_on,,,,,4,0,3,,,,,2,51,64
9124,note_on,,,,,4,0,2,,,,,1,61,0
9146,note_on,,,,,26,0,3,,,,,2,51,0
9150,note_on,,,,,4,0,3,,,,,2,57,64
9176,note_on,,,,,26,0,3,,,,,2,57,0
9179,note_on,,,,,59,0,1,,,,,0,66,0
9180,note_on,,,,,1,0,1,,,,,0,67,64
9180,note_on,,,,,4,0,3,,,,,2,52,64
9206,note_on,,,,,26,0,3,,,,,2,52,0
9210,note_on,,,,,4,0,3,,,,,2,55,64
9236,note_on,,,,,26,0,3,,,,,2,55,0
9239,note_on,,,,,115,0,2,,,,,1,60,0
9240,note_on,,,,,1,0,2,,,,,1,59,64
9240,note_on,,,,,4,0,3,,,,,2,54,64
9240,note_on,,,,,60,0,1,,,,,0,68,64
9244,note_on,,,,,4,0,1,,,,,0,67,0
9266,note_on,,,,,26,0,3,,,,,2,54,0
9270,note_on,,,,,4,0,3,,,,,2,52,64
9274,note_on,,,,,34,0,2,,,,,1,59,0
9296,note_on,,,,,26,0,3,,,,,2,52,0
9300,note_on,,,,,4,0,3,,,,,2,50,64
9300,note_on,,,,,56,0,1,,,,,0,70,64
9300,note_on,,,,,26,0,2,,,,,1,64,64
9304,note_on,,,,,4,0,1,,,,,0,68,0
9326,note_on,,,,,26,0,3,,,,,2,50,0
9330,note_on,,,,,4,0,3,,,,,2,49,64
9356,note_on,,,,,26,0,3,,,,,2,49,0
9359,note_on,,,,,55,0,1,,,,,0,70,0
9360,note_on,,,,,4,0,3,,,,,2,51,64
9360,note_on,,,,,1,0,1,,,,,0,71,64
9386,note_on,,,,,26,0,3,,,,,2,51,0
9390,note_on,,,,,4,0,3,,,,,2,54,64
9399,note_on,,,,,39,0,1,,,,,0,71,0
9416,note_on,,,,,26,0,3,,,,,2,54,0
9420,note_on,,,,,21,0,1,,,,,0,66,64
9420,note_on,,,,,4,0,3,,,,,2,59,64
9420,note_on,,,,,120,0,2,,,,,1,63,64
9424,note_on,,,,,4,0,2,,,,,1,64,0
9446,note_on,,,,,26,0,3,,,,,2,59,0
9450,note_on,,,,,4,0,3,,,,,2,54,64
9476,note_on,,,,,26,0,3,,,,,2,54,0
9479,note_on,,,,,59,0,1,,,,,0,66,0
9479,note_on,,,,,55,0,2,,,,,1,63,0
9480,note_on,,,,,4,0,3,,,,,2,53,64
9480,note_on,,,,,1,0,1,,,,,0,68,64
9480,note_on,,,,,1,0,2,,,,,1,62,64
9506,note_on,,,,,26,0,3,,,,,2,53,0
9510,note_on,,,,,4,0,3,,,,,2,59,64
9536,note_on,,,,,26,0,3,,,,,2,59,0
9539,note_on,,,,,59,0,1,,,,,0,68,0
9540,note_on,,,,,4,0,3,,,,,2,54,64
9540,note_on,,,,,1,0,1,,,,,0,69,64
9566,note_on,,,,,26,0,3,,,,,2,54,0
9570,note_on,,,,,4,0,3,,,,,2,57,64
9596,note_on,,,,,26,0,3,,,,,2,57,0
9599,note_on,,,,,59,0,1,,,,,0,69,0
9600,note_on,,,,,120,0,2,,,,,1,61,64
9600,note_on,,,,,1,0,1,,,,,0,70,64
9600,note_on,,,,,4,0,3,,,,,2,56,64
9604,note_on,,,,,4,0,2,,,,,1,62,0
9626,note_on,,,,,26,0,3,,,,,2,56,0
9630,note_on,,,,,4,0,3,,,,,2,54,64
9634,note_on,,,,,30,0,2,,,,,1,61,0
9656,note_on,,,,,26,0,3,,,,,2,54,0
9660,note_on,,,,,26,0,2,,,,,1,66,64
9660,note_on,,,,,4,0,3,,,,,2,53,64
9660,note_on,,,,,60,0,1,,,,,0,72,64
9664,note_on,,,,,4,0,1,,,,,0,70,0
9686,note_on,,,,,26,0,3,,,,,2,53,0
9690,note_on,,,,,4,0,3,,,,,2,51,64
9716,note_on,,,,,26,0,3,,,,,2,51,0
9720,note_on,,,,,56,0,1,,,,,0,73,64
9720,note_on,,,,,4,0,3,,,,,2,49,64
9724,note_on,,,,,4,0,1,,,,,0,72,0
9746,note_on,,,,,26,0,3,,,,,2,49,0
9750,note_on,,,,,4,0,3,,,,,2,50,64
9776,note_on,,,,,26,0,3,,,,,2,50,0
9780,note_on,,,,,4,0,3,,,,,2,49,64
9780,note_on,,,,,120,0,2,,,,,1,65,64
9784,note_on,,,,,4,0,2,,,,,1,66,0
9806,note_on,,,,,26,0,3,,,,,2,49,0
9810,note_on,,,,,4,0,3,,,,,2,47,64
9819,note_on,,,,,35,0,2,,,,,1,65,0
9836,note_on,,,,,26,0,3,,,,,2,47,0
9840,note_on,,,,,21,0,2,,,,,1,73,64
9840,note_on,,,,,4,0,3,,,,,2,45,64
9866,note_on,,,,,26,0,3,,,,,2,45,0
9870,note_on,,,,,4,0,3,,,,,2,44,64
9874,note_on,,,,,34,0,2,,,,,1,73,0
9896,note_on,,,,,26,0,3,,,,,2,44,0
9900,note_on,,,,,26,0,2,,,,,1,69,64
9900,note_on,,,,,4,0,3,,,,,2,42,64
9926,note_on,,,,,26,0,3,,,,,2,42,0
9930,note_on,,,,,4,0,3,,,,,2,54,64
9934,note_on,,,,,34,0,2,,,,,1,69,0
9952,note_on,,,,,228,0,1,,,,,0,73,0
9956,note_on,,,,,26,0,3,,,,,2,54,0
9960,note_on,,,,,26,0,2,,,,,1,66,64
9960,note_on,,,,,8,0,1,,,,,0,69,64
9960,note_on,,,,,4,0,3,,,,,2,56,64
9986,note_on,,,,,26,0,3,,,,,2,56,0
9990,note_on,,,,,4,0,3,,,,,2,57,64
9994,note_on,,,,,34,0,1,,,,,0,69,0
9994,note_on,,,,,34,0,2,,,,,1,66,0
10020,note_on,,,,,26,0,1,,,,,0,68,64
10020,note_on,,,,,30,0,3,,,,,2,59,64
10020,note_on,,,,,26,0,2,,,,,1,65,64
10024,note_on,,,,,4,0,3,,,,,2,57,0
10050,note_on,,,,,26,0,3,,,,,2,61,64
10054,note_on,,,,,34,0,1,,,,,0,68,0
10054,note_on,,,,,34,0,2,,,,,1,65,0
10054,note_on,,,,,4,0,3,,,,,2,59,0
10080,note_on,,,,,26,0,2,,,,,1,66,64
10080,note_on,,,,,26,0,1,,,,,0,66,64
10080,note_on,,,,,26,0,3,,,,,2,62,64
10089,note_on,,,,,9,0,3,,,,,2,61,0
10110,note_on,,,,,21,0,3,,,,,2,64,64
10119,note_on,,,,,9,0,3,,,,,2,62,0
10132,note_on,,,,,52,0,1,,,,,0,66,0
10140,note_on,,,,,60,0,2,,,,,1,68,64
10140,note_on,,,,,21,0,3,,,,,2,62,64
10144,note_on,,,,,4,0,2,,,,,1,66,0
10149,note_on,,,,,9,0,3,,,,,2,64,0
10170,note_on,,,,,21,0,3,,,,,2,61,64
10170,note_on,,,,,26,0,2,,,,,1,70,64
10174,note_on,,,,,4,0,2,,,,,1,68,0
10174,note_on,,,,,4,0,3,,,,,2,62,0
10199,note_on,,,,,25,0,3,,,,,2,61,0
10200,note_on,,,,,26,0,2,,,,,1,71,64
10200,note_on,,,,,1,0,3,,,,,2,59,64
10204,note_on,,,,,4,0,2,,,,,1,70,0
10226,note_on,,,,,26,0,3,,,,,2,59,0
10230,note_on,,,,,26,0,2,,,,,1,73,64
10230,note_on,,,,,4,0,3,,,,,2,58,64
10234,note_on,,,,,4,0,2,,,,,1,71,0
10256,note_on,,,,,26,0,3,,,,,2,58,0
10260,note_on,,,,,4,0,3,,,,,2,59,64
10260,note_on,,,,,26,0,2,,,,,1,74,64
10269,note_on,,,,,9,0,2,,,,,1,73,0
10289,note_on,,,,,20,0,2,,,,,1,74,0
10290,note_on,,,,,158,0,1,,,,,0,81,64
10312,note_on,,,,,52,0,3,,,,,2,59,0
10316,note_on,,,,,26,0,1,,,,,0,81,0
10320,note_on,,,,,4,0,1,,,,,0,71,64
10320,note_on,,,,,31,0,2,,,,,1,62,64
10346,note_on,,,,,26,0,1,,,,,0,71,0
10350,note_on,,,,,4,0,1,,,,,0,81,64
10354,note_on,,,,,34,0,2,,,,,1,62,0
10376,note_on,,,,,26,0,1,,,,,0,81,0
10380,note_on,,,,,68,0,3,,,,,2,52,64
10380,note_on,,,,,4,0,1,,,,,0,71,64
10380,note_on,,,,,26,0,2,,,,,1,74,64
10406,note_on,,,,,26,0,1,,,,,0,71,0
10409,note_on,,,,,29,0,2,,,,,1,74,0
10410,note_on,,,,,4,0,1,,,,,0,80,64
10432,note_on,,,,,52,0,3,,,,,2,52,0
10436,note_on,,,,,26,0,1,,,,,0,80,0
10440,note_on,,,,,31,0,2,,,,,1,73,64
10440,note_on,,,,,8,0,3,,,,,2,57,64
10440,note_on,,,,,4,0,1,,,,,0,69,64
10466,note_on,,,,,26,0,1,,,,,0,69,0
10470,note_on,,,,,4,0,1,,,,,0,80,64
10474,note_on,,,,,34,0,2,,,,,1,73,0
10492,note_on,,,,,52,0,3,,,,,2,57,0
10496,note_on,,,,,26,0,1,,,,,0,80,0
10500,note_on,,,,,4,0,1,,,,,0,69,64
10500,note_on,,,,,26,0,2,,,,,1,61,64
10526,note_on,,,,,26,0,1,,,,,0,69,0
10529,note_on,,,,,29,0,2,,,,,1,61,0
10530,note_on,,,,,4,0,1,,,,,0,80,64
10556,note_on,,,,,26,0,1,,,,,0,80,0
10560,note_on,,,,,31,0,2,,,,,1,73,64
10560,note_on,,,,,4,0,1,,,,,0,69,64
10560,note_on,,,,,68,0,3,,,,,2,62,64
10586,note_on,,,,,26,0,1,,,,,0,69,0
10590,note_on,,,,,4,0,1,,,,,0,78,64
10594,note_on,,,,,34,0,2,,,,,1,73,0
10616,note_on,,,,,26,0,1,,,,,0,78,0
10620,note_on,,,,,26,0,2,,,,,1,71,64
10620,note_on,,,,,4,0,1,,,,,0,68,64
10646,note_on,,,,,26,0,1,,,,,0,68,0
10650,note_on,,,,,4,0,1,,,,,0,78,64
10672,note_on,,,,,112,0,3,,,,,2,62,0
10676,note_on,,,,,26,0,1,,,,,0,78,0
10680,note_on,,,,,60,0,2,,,,,1,73,64
10680,note_on,,,,,8,0,3,,,,,2,61,64
10680,note_on,,,,,4,0,1,,,,,0,77,64
10684,note_on,,,,,4,0,2,,,,,1,71,0
10706,note_on,,,,,26,0,1,,,,,0,77,0
10710,note_on,,,,,4,0,1,,,,,0,80,64
10710,note_on,,,,,26,0,2,,,,,1,71,64
10714,note_on,,,,,4,0,2,,,,,1,73,0
10736,note_on,,,,,26,0,1,,,,,0,80,0
10740,note_on,,,,,4,0,1,,,,,0,73,64
10740,note_on,,,,,26,0,2,,,,,1,69,64
10744,note_on,,,,,4,0,2,,,,,1,71,0
10766,note_on,,,,,26,0,1,,,,,0,73,0
10770,note_on,,,,,26,0,2,,,,,1,68,64
10770,note_on,,,,,4,0,1,,,,,0,77,64
10774,note_on,,,,,4,0,2,,,,,1,69,0
10796,note_on,,,,,22,0,2,,,,,1,68,0
10796,note_on,,,,,26,0,1,,,,,0,77,0
10800,note_on,,,,,4,0,2,,,,,1,69,64
10800,note_on,,,,,4,0,1,,,,,0,78,64
10826,note_on,,,,,146,0,3,,,,,2,61,0
10829,note_on,,,,,29,0,1,,,,,0,78,0
10830,note_on,,,,,4,0,3,,,,,2,59,64
10856,note_on,,,,,26,0,3,,,,,2,59,0
10860,note_on,,,,,4,0,3,,,,,2,57,64
10860,note_on,,,,,31,0,1,,,,,0,73,64
10886,note_on,,,,,26,0,3,,,,,2,57,0
10889,note_on,,,,,29,0,1,,,,,0,73,0
10890,note_on,,,,,4,0,3,,,,,2,56,64
10916,note_on,,,,,26,0,3,,,,,2,56,0
10920,note_on,,,,,31,0,1,,,,,0,78,64
10920,note_on,,,,,4,0,3,,,,,2,54,64
10946,note_on,,,,,26,0,3,,,,,2,54,0
10950,note_on,,,,,4,0,3,,,,,2,52,64
10976,note_on,,,,,26,0,3,,,,,2,52,0
10980,note_on,,,,,4,0,3,,,,,2,51,64
11009,note_on,,,,,29,0,3,,,,,2,51,0
11009,note_on,,,,,89,0,1,,,,,0,78,0
11010,note_on,,,,,1,0,1,,,,,0,76,64
11040,note_on,,,,,31,0,3,,,,,2,59,64
11040,note_on,,,,,30,0,1,,,,,0,75,64
11044,note_on,,,,,4,0,1,,,,,0,76,0
11069,note_on,,,,,25,0,1,,,,,0,75,0
11070,note_on,,,,,1,0,1,,,,,0,73,64
11096,note_on,,,,,26,0,1,,,,,0,73,0
11100,note_on,,,,,4,0,1,,,,,0,71,64
11126,note_on,,,,,326,0,2,,,,,1,69,0
11130,note_on,,,,,4,0,2,,,,,1,69,64
11160,note_on,,,,,30,0,2,,,,,1,67,64
11164,note_on,,,,,4,0,2,,,,,1,69,0
11186,note_on,,,,,146,0,3,,,,,2,59,0
11190,note_on,,,,,4,0,3,,,,,2,57,64
11190,note_on,,,,,26,0,2,,,,,1,66,64
11194,note_on,,,,,4,0,2,,,,,1,67,0
11212,note_on,,,,,112,0,1,,,,,0,71,0
11216,note_on,,,,,26,0,3,,,,,2,57,0
11220,note_on,,,,,4,0,3,,,,,2,55,64
11220,note_on,,,,,8,0,1,,,,,0,71,64
11220,note_on,,,,,26,0,2,,,,,1,64,64
11229,note_on,,,,,9,0,2,,,,,1,66,0
11246,note_on,,,,,26,0,3,,,,,2,55,0
11249,note_on,,,,,29,0,1,,,,,0,71,0
11250,note_on,,,,,4,0,3,,,,,2,54,64
11254,note_on,,,,,25,0,2,,,,,1,64,0
11276,note_on,,,,,26,0,3,,,,,2,54,0
11280,note_on,,,,,31,0,1,,,,,0,76,64
11280,note_on,,,,,26,0,2,,,,,1,67,64
11280,note_on,,,,,4,0,3,,,,,2,52,64
11306,note_on,,,,,26,0,3,,,,,2,52,0
11310,note_on,,,,,4,0,3,,,,,2,50,64
11336,note_on,,,,,26,0,3,,,,,2,50,0
11340,note_on,,,,,4,0,3,,,,,2,49,64
11366,note_on,,,,,86,0,1,,,,,0,76,0
11369,note_on,,,,,29,0,3,,,,,2,49,0
11370,note_on,,,,,4,0,1,,,,,0,74,64
11396,note_on,,,,,26,0,1,,,,,0,74,0
11400,note_on,,,,,4,0,1,,,,,0,73,64
11400,note_on,,,,,31,0,3,,,,,2,57,64
11426,note_on,,,,,26,0,1,,,,,0,73,0
11430,note_on,,,,,4,0,1,,,,,0,71,64
11456,note_on,,,,,26,0,1,,,,,0,71,0
11460,note_on,,,,,4,0,1,,,,,0,69,64
11486,note_on,,,,,206,0,2,,,,,1,67,0
11490,note_on,,,,,4,0,2,,,,,1,67,64
11520,note_on,,,,,30,0,2,,,,,1,66,64
11529,note_on,,,,,9,0,2,,,,,1,67,0
11546,note_on,,,,,146,0,3,,,,,2,57,0
11550,note_on,,,,,4,0,3,,,,,2,55,64
11550,note_on,,,,,21,0,2,,,,,1,64,64
11554,note_on,,,,,4,0,2,,,,,1,66,0
11572,note_on,,,,,112,0,1,,,,,0,69,0
11576,note_on,,,,,26,0,3,,,,,2,55,0
11580,note_on,,,,,8,0,1,,,,,0,69,64
11580,note_on,,,,,4,0,3,,,,,2,54,64
11580,note_on,,,,,26,0,2,,,,,1,62,64
11584,note_on,,,,,4,0,2,,,,,1,64,0
11606,note_on,,,,,26,0,3,,,,,2,54,0
11609,note_on,,,,,25,0,2,,,,,1,62,0
11610,note_on,,,,,4,0,3,,,,,2,52,64
11619,note_on,,,,,39,0,1,,,,,0,69,0
11636,note_on,,,,,26,0,3,,,,,2,52,0
11640,note_on,,,,,31,0,2,,,,,1,66,64
11640,note_on,,,,,21,0,1,,,,,0,74,64
11640,note_on,,,,,4,0,3,,,,,2,50,64
11666,note_on,,,,,26,0,3,,,,,2,50,0
11670,note_on,,,,,4,0,3,,,,,2,49,64
11696,note_on,,,,,26,0,3,,,,,2,49,0
11700,note_on,,,,,4,0,3,,,,,2,47,64
11726,note_on,,,,,86,0,2,,,,,1,66,0
11730,note_on,,,,,4,0,2,,,,,1,66,64
11734,note_on,,,,,34,0,3,,,,,2,47,0
11760,note_on,,,,,26,0,3,,,,,2,55,64
11760,note_on,,,,,30,0,2,,,,,1,64,64
11769,note_on,,,,,9,0,2,,,,,1,66,0
11778,note_on,,,,,138,0,1,,,,,0,74,0
11790,note_on,,,,,12,0,1,,,,,0,74,64
11816,note_on,,,,,26,0,1,,,,,0,74,0
11820,note_on,,,,,4,0,1,,,,,0,73,64
11846,note_on,,,,,26,0,1,,,,,0,73,0
11850,note_on,,,,,4,0,1,,,,,0,71,64
11876,note_on,,,,,26,0,1,,,,,0,71,0
11880,note_on,,,,,4,0,1,,,,,0,70,64
11906,note_on,,,,,137,0,2,,,,,1,64,0
11910,note_on,,,,,4,0,2,,,,,1,64,64
11932,note_on,,,,,52,0,1,,,,,0,70,0
11932,note_on,,,,,172,0,3,,,,,2,55,0
11940,note_on,,,,,30,0,2,,,,,1,62,64
11940,note_on,,,,,8,0,1,,,,,0,71,64
11940,note_on,,,,,8,0,3,,,,,2,54,64
11944,note_on,,,,,4,0,2,,,,,1,64,0
11970,note_on,,,,,26,0,2,,,,,1,61,64
11974,note_on,,,,,4,0,2,,,,,1,62,0
11992,note_on,,,,,52,0,1,,,,,0,71,0
12000,note_on,,,,,8,0,1,,,,,0,73,64
12000,note_on,,,,,26,0,2,,,,,1,59,64
12004,note_on,,,,,4,0,2,,,,,1,61,0
12030,note_on,,,,,26,0,2,,,,,1,58,64
12034,note_on,,,,,4,0,2,,,,,1,59,0
12052,note_on,,,,,52,0,1,,,,,0,73,0
12056,note_on,,,,,22,0,2,,,,,1,58,0
12060,note_on,,,,,8,0,1,,,,,0,74,64
12060,note_on,,,,,4,0,2,,,,,1,59,64
12086,note_on,,,,,146,0,3,,,,,2,54,0
12090,note_on,,,,,4,0,3,,,,,2,52,64
12094,note_on,,,,,34,0,2,,,,,1,59,0
12116,note_on,,,,,26,0,3,,,,,2,52,0
12120,note_on,,,,,26,0,2,,,,,1,66,64
12120,note_on,,,,,4,0,3,,,,,2,50,64
12146,note_on,,,,,26,0,3,,,,,2,50,0
12150,note_on,,,,,4,0,3,,,,,2,49,64
12154,note_on,,,,,34,0,2,,,,,1,66,0
12176,note_on,,,,,26,0,3,,,,,2,49,0
12180,note_on,,,,,4,0,3,,,,,2,47,64
12180,note_on,,,,,26,0,2,,,,,1,71,64
12206,note_on,,,,,26,0,3,,,,,2,47,0
12210,note_on,,,,,4,0,3,,,,,2,45,64
12236,note_on,,,,,26,0,3,,,,,2,45,0
12240,note_on,,,,,4,0,3,,,,,2,43,64
12266,note_on,,,,,206,0,1,,,,,0,74,0
12270,note_on,,,,,4,0,1,,,,,0,73,64
12274,note_on,,,,,34,0,3,,,,,2,43,0
12299,note_on,,,,,119,0,2,,,,,1,71,0
12300,note_on,,,,,1,0,2,,,,,1,59,64
12300,note_on,,,,,30,0,1,,,,,0,74,64
12300,note_on,,,,,26,0,3,,,,,2,55,64
12304,note_on,,,,,4,0,1,,,,,0,73,0
12330,note_on,,,,,26,0,1,,,,,0,76,64
12334,note_on,,,,,4,0,1,,,,,0,74,0
12334,note_on,,,,,34,0,2,,,,,1,59,0
12360,note_on,,,,,26,0,1,,,,,0,78,64
12360,note_on,,,,,26,0,2,,,,,1,64,64
12364,note_on,,,,,4,0,1,,,,,0,76,0
12390,note_on,,,,,26,0,1,,,,,0,79,64
12399,note_on,,,,,9,0,1,,,,,0,78,0
12416,note_on,,,,,17,0,1,,,,,0,79,0
12420,note_on,,,,,4,0,1,,,,,0,70,64
12420,note_on,,,,,120,0,3,,,,,2,54,64
12424,note_on,,,,,4,0,3,,,,,2,55,0
12450,note_on,,,,,90,0,2,,,,,1,67,64
12454,note_on,,,,,4,0,2,,,,,1,64,0
12480,note_on,,,,,26,0,2,,,,,1,66,64
12484,note_on,,,,,4,0,2,,,,,1,67,0
12510,note_on,,,,,26,0,2,,,,,1,64,64
12514,note_on,,,,,4,0,2,,,,,1,66,0
12525,note_on,,,,,101,0,3,,,,,2,54,0
12525,note_on,,,,,105,0,1,,,,,0,70,0
12540,note_on,,,,,26,0,2,,,,,1,62,64
12544,note_on,,,,,4,0,2,,,,,1,64,0
12570,note_on,,,,,26,0,2,,,,,1,61,64
12574,note_on,,,,,4,0,2,,,,,1,62,0
12596,note_on,,,,,22,0,2,,,,,1,61,0
12600,note_on,,,,,4,0,2,,,,,1,62,64
12629,note_on,,,,,29,0,2,,,,,1,62,0
12630,note_on,,,,,105,0,3,,,,,2,47,64
12656,note_on,,,,,26,0,3,,,,,2,47,0
12660,note_on,,,,,31,0,2,,,,,1,59,64
12660,note_on,,,,,4,0,3,,,,,2,49,64
12686,note_on,,,,,26,0,3,,,,,2,49,0
12689,note_on,,,,,29,0,2,,,,,1,59,0
12690,note_on,,,,,4,0,3,,,,,2,50,64
12716,note_on,,,,,26,0,3,,,,,2,50,0
12720,note_on,,,,,31,0,2,,,,,1,58,64
12720,note_on,,,,,4,0,3,,,,,2,52,64
12746,note_on,,,,,26,0,3,,,,,2,52,0
12750,note_on,,,,,4,0,3,,,,,2,54,64
12754,note_on,,,,,34,0,2,,,,,1,58,0
12776,note_on,,,,,26,0,3,,,,,2,54,0
12780,note_on,,,,,26,0,2,,,,,1,59,64
12780,note_on,,,,,4,0,3,,,,,2,55,64
12809,note_on,,,,,29,0,3,,,,,2,55,0
12840,note_on,,,,,31,0,3,,,,,2,52,64
12840,note_on,,,,,60,0,2,,,,,1,61,64
12844,note_on,,,,,4,0,2,,,,,1,59,0
12870,note_on,,,,,26,0,2,,,,,1,63,64
12874,note_on,,,,,4,0,2,,,,,1,61,0
12874,note_on,,,,,34,0,3,,,,,2,52,0
12900,note_on,,,,,26,0,3,,,,,2,51,64
12900,note_on,,,,,26,0,2,,,,,1,64,64
12904,note_on,,,,,4,0,2,,,,,1,63,0
12930,note_on,,,,,26,0,2,,,,,1,66,64
12934,note_on,,,,,34,0,3,,,,,2,51,0
12934,note_on,,,,,4,0,2,,,,,1,64,0
12960,note_on,,,,,26,0,2,,,,,1,67,64
12960,note_on,,,,,26,0,3,,,,,2,52,64
12964,note_on,,,,,4,0,2,,,,,1,66,0
12994,note_on,,,,,30,0,2,,,,,1,67,0
13019,note_on,,,,,59,0,3,,,,,2,52,0
13020,note_on,,,,,26,0,2,,,,,1,64,64
13020,note_on,,,,,1,0,3,,,,,2,54,64
13050,note_on,,,,,30,0,3,,,,,2,55,64
13054,note_on,,,,,34,0,2,,,,,1,64,0
13054,note_on,,,,,4,0,3,,,,,2,54,0
13080,note_on,,,,,26,0,3,,,,,2,57,64
13080,note_on,,,,,26,0,2,,,,,1,63,64
13084,note_on,,,,,4,0,3,,,,,2,55,0
13110,note_on,,,,,26,0,3,,,,,2,59,64
13114,note_on,,,,,4,0,3,,,,,2,57,0
13114,note_on,,,,,34,0,2,,,,,1,63,0
13136,note_on,,,,,22,0,3,,,,,2,59,0
13140,note_on,,,,,4,0,3,,,,,2,60,64
13140,note_on,,,,,26,0,2,,,,,1,64,64
13170,note_on,,,,,645,0,1,,,,,0,79,64
13174,note_on,,,,,34,0,2,,,,,1,64,0
13174,note_on,,,,,34,0,3,,,,,2,60,0
13196,note_on,,,,,26,0,1,,,,,0,79,0
13200,note_on,,,,,4,0,1,,,,,0,69,64
13200,note_on,,,,,26,0,3,,,,,2,48,64
13226,note_on,,,,,26,0,1,,,,,0,69,0
13230,note_on,,,,,4,0,1,,,,,0,79,64
13234,note_on,,,,,34,0,3,,,,,2,48,0
13256,note_on,,,,,26,0,1,,,,,0,79,0
13260,note_on,,,,,86,0,2,,,,,1,64,64
13260,note_on,,,,,26,0,3,,,,,2,60,64
13260,note_on,,,,,4,0,1,,,,,0,69,64
13286,note_on,,,,,26,0,1,,,,,0,69,0
13289,note_on,,,,,29,0,3,,,,,2,60,0
13290,note_on,,,,,4,0,1,,,,,0,78,64
13294,note_on,,,,,34,0,2,,,,,1,64,0
13316,note_on,,,,,26,0,1,,,,,0,78,0
13320,note_on,,,,,4,0,1,,,,,0,67,64
13320,note_on,,,,,26,0,2,,,,,1,63,64
13320,note_on,,,,,31,0,3,,,,,2,59,64
13346,note_on,,,,,26,0,1,,,,,0,67,0
13349,note_on,,,,,29,0,2,,,,,1,63,0
13350,note_on,,,,,4,0,1,,,,,0,78,64
13354,note_on,,,,,34,0,3,,,,,2,59,0
13376,note_on,,,,,26,0,1,,,,,0,78,0
13380,note_on,,,,,4,0,1,,,,,0,67,64
13380,note_on,,,,,26,0,3,,,,,2,47,64
13406,note_on,,,,,26,0,1,,,,,0,67,0
13410,note_on,,,,,4,0,1,,,,,0,78,64
13414,note_on,,,,,34,0,3,,,,,2,47,0
13436,note_on,,,,,26,0,1,,,,,0,78,0
13440,note_on,,,,,4,0,1,,,,,0,67,64
13440,note_on,,,,,91,0,2,,,,,1,64,64
13440,note_on,,,,,26,0,3,,,,,2,59,64
13466,note_on,,,,,26,0,1,,,,,0,67,0
13470,note_on,,,,,4,0,1,,,,,0,76,64
13474,note_on,,,,,34,0,2,,,,,1,64,0
13479,note_on,,,,,39,0,3,,,,,2,59,0
13496,note_on,,,,,26,0,1,,,,,0,76,0
13500,note_on,,,,,4,0,1,,,,,0,66,64
13500,note_on,,,,,21,0,3,,,,,2,57,64
13500,note_on,,,,,26,0,2,,,,,1,66,64
13526,note_on,,,,,26,0,1,,,,,0,66,0
13530,note_on,,,,,4,0,1,,,,,0,76,64
13556,note_on,,,,,26,0,1,,,,,0,76,0
13560,note_on,,,,,4,0,1,,,,,0,75,64
13560,note_on,,,,,60,0,3,,,,,2,59,64
13564,note_on,,,,,4,0,3,,,,,2,57,0
13586,note_on,,,,,26,0,1,,,,,0,75,0
13589,note_on,,,,,25,0,3,,,,,2,59,0
13590,note_on,,,,,4,0,1,,,,,0,78,64
13590,note_on,,,,,1,0,3,,,,,2,57,64
13616,note_on,,,,,26,0,1,,,,,0,78,0
13619,note_on,,,,,29,0,3,,,,,2,57,0
13620,note_on,,,,,1,0,3,,,,,2,55,64
13620,note_on,,,,,4,0,1,,,,,0,71,64
13646,note_on,,,,,26,0,3,,,,,2,55,0
13646,note_on,,,,,26,0,1,,,,,0,71,0
13650,note_on,,,,,4,0,3,,,,,2,54,64
13650,note_on,,,,,4,0,1,,,,,0,75,64
13665,note_on,,,,,165,0,2,,,,,1,66,0
13676,note_on,,,,,26,0,1,,,,,0,75,0
13679,note_on,,,,,29,0,3,,,,,2,54,0
13680,note_on,,,,,4,0,1,,,,,0,76,64
13680,note_on,,,,,15,0,2,,,,,1,59,64
13680,note_on,,,,,1,0,3,,,,,2,55,64
13706,note_on,,,,,26,0,1,,,,,0,76,0
13709,note_on,,,,,29,0,2,,,,,1,59,0
13710,note_on,,,,,4,0,1,,,,,0,75,64
13714,note_on,,,,,34,0,3,,,,,2,55,0
13736,note_on,,,,,26,0,1,,,,,0,75,0
13740,note_on,,,,,4,0,1,,,,,0,76,64
13740,note_on,,,,,26,0,3,,,,,2,43,64
13766,note_on,,,,,26,0,1,,,,,0,76,0
13769,note_on,,,,,29,0,3,,,,,2,43,0
13770,note_on,,,,,4,0,1,,,,,0,79,64
13796,note_on,,,,,26,0,1,,,,,0,79,0
13800,note_on,,,,,4,0,1,,,,,0,83,64
13800,note_on,,,,,31,0,3,,,,,2,55,64
13800,note_on,,,,,91,0,2,,,,,1,64,64
13826,note_on,,,,,26,0,1,,,,,0,83,0
13830,note_on,,,,,4,0,1,,,,,0,74,64
13834,note_on,,,,,34,0,2,,,,,1,64,0
13856,note_on,,,,,26,0,1,,,,,0,74,0
13860,note_on,,,,,26,0,2,,,,,1,69,64
13860,note_on,,,,,4,0,1,,,,,0,73,64
13886,note_on,,,,,26,0,1,,,,,0,73,0
13890,note_on,,,,,4,0,1,,,,,0,71,64
13894,note_on,,,,,34,0,2,,,,,1,69,0
13916,note_on,,,,,26,0,1,,,,,0,71,0
13920,note_on,,,,,4,0,1,,,,,0,73,64
13920,note_on,,,,,120,0,3,,,,,2,57,64
13924,note_on,,,,,4,0,3,,,,,2,55,0
13946,note_on,,,,,26,0,1,,,,,0,73,0
13950,note_on,,,,,4,0,1,,,,,0,76,64
13950,note_on,,,,,26,0,3,,,,,2,55,64
13954,note_on,,,,,4,0,3,,,,,2,57,0
13976,note_on,,,,,26,0,1,,,,,0,76,0
13980,note_on,,,,,4,0,1,,,,,0,69,64
13980,note_on,,,,,26,0,3,,,,,2,54,64
13984,note_on,,,,,4,0,3,,,,,2,55,0
14006,note_on,,,,,26,0,1,,,,,0,69,0
14010,note_on,,,,,4,0,1,,,,,0,73,64
14010,note_on,,,,,26,0,3,,,,,2,52,64
14014,note_on,,,,,4,0,3,,,,,2,54,0
14036,note_on,,,,,22,0,3,,,,,2,52,0
14036,note_on,,,,,26,0,1,,,,,0,73,0
14040,note_on,,,,,146,0,2,,,,,1,57,64
14040,note_on,,,,,4,0,3,,,,,2,54,64
14040,note_on,,,,,4,0,1,,,,,0,74,64
14066,note_on,,,,,26,0,1,,,,,0,74,0
14070,note_on,,,,,4,0,1,,,,,0,73,64
14074,note_on,,,,,34,0,2,,,,,1,57,0
14074,note_on,,,,,34,0,3,,,,,2,54,0
14096,note_on,,,,,26,0,1,,,,,0,73,0
14100,note_on,,,,,4,0,1,,,,,0,74,64
14100,note_on,,,,,26,0,3,,,,,2,42,64
14126,note_on,,,,,26,0,1,,,,,0,74,0
14130,note_on,,,,,4,0,1,,,,,0,78,64
14134,note_on,,,,,34,0,3,,,,,2,42,0
14156,note_on,,,,,26,0,1,,,,,0,78,0
14160,note_on,,,,,86,0,2,,,,,1,62,64
14160,note_on,,,,,4,0,1,,,,,0,81,64
14160,note_on,,,,,26,0,3,,,,,2,54,64
14186,note_on,,,,,26,0,1,,,,,0,81,0
14189,note_on,,,,,29,0,2,,,,,1,62,0
14190,note_on,,,,,4,0,1,,,,,0,73,64
14216,note_on,,,,,26,0,1,,,,,0,73,0
14220,note_on,,,,,31,0,2,,,,,1,67,64
14220,note_on,,,,,4,0,1,,,,,0,71,64
14246,note_on,,,,,26,0,1,,,,,0,71,0
14250,note_on,,,,,4,0,1,,,,,0,70,64
14276,note_on,,,,,26,0,1,,,,,0,70,0
14279,note_on,,,,,119,0,3,,,,,2,54,0
14280,note_on,,,,,4,0,1,,,,,0,71,64
14280,note_on,,,,,1,0,3,,,,,2,52,64
14306,note_on,,,,,26,0,1,,,,,0,71,0
14310,note_on,,,,,4,0,1,,,,,0,74,64
14336,note_on,,,,,26,0,1,,,,,0,74,0
14340,note_on,,,,,60,0,3,,,,,2,50,64
14340,note_on,,,,,4,0,1,,,,,0,73,64
14344,note_on,,,,,4,0,3,,,,,2,52,0
14366,note_on,,,,,26,0,1,,,,,0,73,0
14370,note_on,,,,,4,0,1,,,,,0,71,64
14396,note_on,,,,,26,0,1,,,,,0,71,0
14400,note_on,,,,,56,0,3,,,,,2,49,64
14400,note_on,,,,,4,0,1,,,,,0,70,64
14404,note_on,,,,,4,0,3,,,,,2,50,0
14426,note_on,,,,,22,0,3,,,,,2,49,0
14426,note_on,,,,,26,0,1,,,,,0,70,0
14430,note_on,,,,,4,0,3,,,,,2,50,64
14430,note_on,,,,,4,0,1,,,,,0,71,64
14452,note_on,,,,,232,0,2,,,,,1,67,0
14456,note_on,,,,,26,0,3,,,,,2,50,0
14456,note_on,,,,,26,0,1,,,,,0,71,0
14460,note_on,,,,,4,0,3,,,,,2,52,64
14460,note_on,,,,,4,0,1,,,,,0,73,64
14486,note_on,,,,,26,0,3,,,,,2,52,0
14486,note_on,,,,,26,0,1,,,,,0,73,0
14490,note_on,,,,,4,0,1,,,,,0,74,64
14490,note_on,,,,,4,0,3,,,,,2,54,64
14516,note_on,,,,,26,0,3,,,,,2,54,0
14516,note_on,,,,,26,0,1,,,,,0,74,0
14520,note_on,,,,,4,0,3,,,,,2,55,64
14520,note_on,,,,,4,0,1,,,,,0,76,64
14546,note_on,,,,,26,0,3,,,,,2,55,0
14550,note_on,,,,,4,0,3,,,,,2,47,64
14550,note_on,,,,,98,0,2,,,,,1,67,64
14576,note_on,,,,,26,0,3,,,,,2,47,0
14580,note_on,,,,,4,0,3,,,,,2,46,64
14580,note_on,,,,,30,0,2,,,,,1,66,64
14584,note_on,,,,,4,0,2,,,,,1,67,0
14606,note_on,,,,,26,0,3,,,,,2,46,0
14610,note_on,,,,,4,0,3,,,,,2,55,64
14614,note_on,,,,,30,0,2,,,,,1,66,0
14632,note_on,,,,,112,0,1,,,,,0,76,0
14636,note_on,,,,,26,0,3,,,,,2,55,0
14640,note_on,,,,,26,0,2,,,,,1,70,64
14640,note_on,,,,,8,0,1,,,,,0,73,64
14640,note_on,,,,,4,0,3,,,,,2,54,64
14666,note_on,,,,,26,0,3,,,,,2,54,0
14670,note_on,,,,,4,0,3,,,,,2,52,64
14674,note_on,,,,,34,0,1,,,,,0,73,0
14696,note_on,,,,,26,0,3,,,,,2,52,0
14700,note_on,,,,,26,0,1,,,,,0,78,64
14700,note_on,,,,,4,0,3,,,,,2,50,64
14726,note_on,,,,,26,0,3,,,,,2,50,0
14729,note_on,,,,,29,0,1,,,,,0,78,0
14730,note_on,,,,,4,0,3,,,,,2,49,64
14745,note_on,,,,,105,0,2,,,,,1,70,0
14756,note_on,,,,,26,0,3,,,,,2,49,0
14760,note_on,,,,,31,0,1,,,,,0,74,64
14760,note_on,,,,,15,0,2,,,,,1,71,64
14760,note_on,,,,,4,0,3,,,,,2,47,64
14786,note_on,,,,,26,0,3,,,,,2,47,0
14790,note_on,,,,,4,0,3,,,,,2,49,64
14794,note_on,,,,,34,0,1,,,,,0,74,0
14812,note_on,,,,,52,0,2,,,,,1,71,0
14816,note_on,,,,,26,0,3,,,,,2,49,0
14820,note_on,,,,,4,0,3,,,,,2,50,64
14820,note_on,,,,,26,0,1,,,,,0,71,64
14846,note_on,,,,,26,0,3,,,,,2,50,0
14849,note_on,,,,,29,0,1,,,,,0,71,0
14850,note_on,,,,,4,0,3,,,,,2,52,64
14876,note_on,,,,,26,0,3,,,,,2,52,0
14880,note_on,,,,,4,0,3,,,,,2,54,64
14880,note_on,,,,,31,0,1,,,,,0,70,64
14906,note_on,,,,,26,0,3,,,,,2,54,0
14909,note_on,,,,,29,0,1,,,,,0,70,0
14910,note_on,,,,,4,0,3,,,,,2,52,64
14936,note_on,,,,,26,0,3,,,,,2,52,0
14940,note_on,,,,,4,0,3,,,,,2,50,64
14940,note_on,,,,,31,0,1,,,,,0,71,64
14966,note_on,,,,,26,0,3,,,,,2,50,0
14970,note_on,,,,,4,0,3,,,,,2,54,64
14992,note_on,,,,,52,0,1,,,,,0,71,0
14996,note_on,,,,,26,0,3,,,,,2,54,0
15000,note_on,,,,,4,0,3,,,,,2,52,64
15000,note_on,,,,,8,0,1,,,,,0,73,64
15026,note_on,,,,,26,0,3,,,,,2,52,0
15026,note_on,,,,,26,0,1,,,,,0,73,0
15030,note_on,,,,,4,0,3,,,,,2,50,64
15030,note_on,,,,,4,0,1,,,,,0,74,64
15056,note_on,,,,,26,0,3,,,,,2,50,0
15056,note_on,,,,,26,0,1,,,,,0,74,0
15060,note_on,,,,,4,0,3,,,,,2,49,64
15060,note_on,,,,,4,0,1,,,,,0,76,64
15086,note_on,,,,,26,0,3,,,,,2,49,0
15086,note_on,,,,,26,0,1,,,,,0,76,0
15090,note_on,,,,,4,0,1,,,,,0,78,64
15090,note_on,,,,,4,0,3,,,,,2,47,64
15116,note_on,,,,,26,0,1,,,,,0,78,0
15116,note_on,,,,,26,0,3,,,,,2,47,0
15120,note_on,,,,,4,0,1,,,,,0,79,64
15120,note_on,,,,,4,0,3,,,,,2,52,64
15150,note_on,,,,,338,0,2,,,,,1,74,64
15154,note_on,,,,,34,0,1,,,,,0,79,0
15172,note_on,,,,,52,0,3,,,,,2,52,0
15176,note_on,,,,,26,0,2,,,,,1,74,0
15180,note_on,,,,,26,0,1,,,,,0,67,64
15180,note_on,,,,,4,0,2,,,,,1,64,64
15206,note_on,,,,,26,0,2,,,,,1,64,0
15210,note_on,,,,,4,0,2,,,,,1,74,64
15214,note_on,,,,,34,0,1,,,,,0,67,0
15236,note_on,,,,,26,0,2,,,,,1,74,0
15240,note_on,,,,,4,0,2,,,,,1,64,64
15240,note_on,,,,,26,0,1,,,,,0,79,64
15240,note_on,,,,,68,0,3,,,,,2,57,64
15266,note_on,,,,,26,0,2,,,,,1,64,0
15270,note_on,,,,,4,0,2,,,,,1,73,64
15274,note_on,,,,,34,0,1,,,,,0,79,0
15292,note_on,,,,,52,0,3,,,,,2,57,0
15296,note_on,,,,,26,0,2,,,,,1,73,0
15300,note_on,,,,,4,0,2,,,,,1,62,64
15300,note_on,,,,,26,0,1,,,,,0,78,64
15300,note_on,,,,,8,0,3,,,,,2,50,64
15326,note_on,,,,,26,0,2,,,,,1,62,0
15330,note_on,,,,,4,0,2,,,,,1,73,64
15334,note_on,,,,,34,0,1,,,,,0,78,0
15352,note_on,,,,,52,0,3,,,,,2,50,0
15356,note_on,,,,,26,0,2,,,,,1,73,0
15360,note_on,,,,,26,0,1,,,,,0,66,64
15360,note_on,,,,,4,0,2,,,,,1,62,64
15386,note_on,,,,,26,0,2,,,,,1,62,0
15390,note_on,,,,,4,0,2,,,,,1,73,64
15394,note_on,,,,,34,0,1,,,,,0,66,0
15416,note_on,,,,,26,0,2,,,,,1,73,0
15420,note_on,,,,,4,0,2,,,,,1,62,64
15420,note_on,,,,,26,0,1,,,,,0,78,64
15420,note_on,,,,,68,0,3,,,,,2,55,64
15446,note_on,,,,,26,0,2,,,,,1,62,0
15450,note_on,,,,,4,0,2,,,,,1,71,64
15454,note_on,,,,,34,0,1,,,,,0,78,0
15472,note_on,,,,,52,0,3,,,,,2,55,0
15476,note_on,,,,,26,0,2,,,,,1,71,0
15480,note_on,,,,,4,0,2,,,,,1,61,64
15480,note_on,,,,,8,0,3,,,,,2,49,64
15480,note_on,,,,,26,0,1,,,,,0,76,64
15506,note_on,,,,,26,0,3,,,,,2,49,0
15510,note_on,,,,,4,0,3,,,,,2,59,64
15532,note_on,,,,,52,0,1,,,,,0,76,0
15532,note_on,,,,,52,0,2,,,,,1,61,0
15536,note_on,,,,,26,0,3,,,,,2,59,0
15540,note_on,,,,,8,0,2,,,,,1,73,64
15540,note_on,,,,,4,0,3,,,,,2,58,64
15540,note_on,,,,,8,0,1,,,,,0,78,64
15566,note_on,,,,,26,0,3,,,,,2,58,0
15566,note_on,,,,,26,0,1,,,,,0,78,0
15570,note_on,,,,,4,0,3,,,,,2,61,64
15570,note_on,,,,,4,0,1,,,,,0,76,64
15596,note_on,,,,,26,0,1,,,,,0,76,0
15596,note_on,,,,,26,0,3,,,,,2,61,0
15600,note_on,,,,,4,0,1,,,,,0,74,64
15600,note_on,,,,,4,0,3,,,,,2,54,64
15626,note_on,,,,,26,0,3,,,,,2,54,0
15626,note_on,,,,,26,0,1,,,,,0,74,0
15630,note_on,,,,,4,0,1,,,,,0,73,64
15630,note_on,,,,,4,0,3,,,,,2,58,64
15656,note_on,,,,,26,0,1,,,,,0,73,0
15656,note_on,,,,,26,0,3,,,,,2,58,0
15660,note_on,,,,,4,0,1,,,,,0,74,64
15660,note_on,,,,,4,0,3,,,,,2,47,64
15686,note_on,,,,,26,0,3,,,,,2,47,0
15690,note_on,,,,,4,0,3,,,,,2,59,64
15712,note_on,,,,,52,0,1,,,,,0,74,0
15716,note_on,,,,,26,0,3,,,,,2,59,0
15720,note_on,,,,,8,0,1,,,,,0,76,64
15720,note_on,,,,,4,0,3,,,,,2,49,64
15720,note_on,,,,,180,0,2,,,,,1,71,64
15724,note_on,,,,,4,0,2,,,,,1,73,0
15746,note_on,,,,,26,0,3,,,,,2,49,0
15750,note_on,,,,,4,0,3,,,,,2,59,64
15776,note_on,,,,,26,0,3,,,,,2,59,0
15779,note_on,,,,,59,0,1,,,,,0,76,0
15780,note_on,,,,,1,0,1,,,,,0,78,64
15780,note_on,,,,,56,0,2,,,,,1,69,64
15780,note_on,,,,,4,0,3,,,,,2,50,64
15784,note_on,,,,,4,0,2,,,,,1,71,0
15806,note_on,,,,,26,0,3,,,,,2,50,0
15810,note_on,,,,,4,0,3,,,,,2,59,64
15836,note_on,,,,,26,0,3,,,,,2,59,0
15840,note_on,,,,,56,0,2,,,,,1,67,64
15840,note_on,,,,,4,0,3,,,,,2,52,64
15844,note_on,,,,,4,0,2,,,,,1,69,0
15866,note_on,,,,,26,0,3,,,,,2,52,0
15870,note_on,,,,,4,0,3,,,,,2,59,64
15896,note_on,,,,,26,0,3,,,,,2,59,0
15899,note_on,,,,,119,0,1,,,,,0,78,0
15900,note_on,,,,,4,0,3,,,,,2,54,64
15900,note_on,,,,,56,0,2,,,,,1,69,64
15900,note_on,,,,,1,0,1,,,,,0,76,64
15904,note_on,,,,,4,0,2,,,,,1,67,0
15926,note_on,,,,,26,0,3,,,,,2,54,0
15930,note_on,,,,,4,0,3,,,,,2,59,64
15956,note_on,,,,,26,0,3,,,,,2,59,0
15959,note_on,,,,,59,0,1,,,,,0,76,0
15960,note_on,,,,,56,0,2,,,,,1,71,64
15960,note_on,,,,,4,0,3,,,,,2,55,64
15960,note_on,,,,,1,0,1,,,,,0,74,64
15964,note_on,,,,,4,0,2,,,,,1,69,0
15986,note_on,,,,,26,0,3,,,,,2,55,0
15990,note_on,,,,,4,0,3,,,,,2,59,64
16016,note_on,,,,,26,0,3,,,,,2,59,0
16020,note_on,,,,,60,0,1,,,,,0,73,64
16020,note_on,,,,,4,0,3,,,,,2,45,64
16024,note_on,,,,,4,0,1,,,,,0,74,0
16046,note_on,,,,,26,0,3,,,,,2,45,0
16050,note_on,,,,,4,0,3,,,,,2,57,64
16076,note_on,,,,,26,0,3,,,,,2,57,0
16080,note_on,,,,,56,0,1,,,,,0,74,64
16080,note_on,,,,,116,0,2,,,,,1,69,64
16080,note_on,,,,,4,0,3,,,,,2,47,64
16084,note_on,,,,,4,0,2,,,,,1,71,0
16084,note_on,,,,,4,0,1,,,,,0,73,0
16106,note_on,,,,,26,0,3,,,,,2,47,0
16110,note_on,,,,,4,0,3,,,,,2,57,64
16136,note_on,,,,,26,0,3,,,,,2,57,0
16140,note_on,,,,,4,0,3,,,,,2,49,64
16140,note_on,,,,,56,0,2,,,,,1,67,64
16140,note_on,,,,,56,0,1,,,,,0,76,64
16144,note_on,,,,,4,0,2,,,,,1,69,0
16144,note_on,,,,,4,0,1,,,,,0,74,0
16166,note_on,,,,,26,0,3,,,,,2,49,0
16170,note_on,,,,,4,0,3,,,,,2,57,64
16196,note_on,,,,,26,0,3,,,,,2,57,0
16200,note_on,,,,,4,0,3,,,,,2,50,64
16200,note_on,,,,,56,0,2,,,,,1,66,64
16204,note_on,,,,,4,0,2,,,,,1,67,0
16226,note_on,,,,,26,0,3,,,,,2,50,0
16230,note_on,,,,,4,0,3,,,,,2,57,64
16256,note_on,,,,,26,0,3,,,,,2,57,0
16259,note_on,,,,,115,0,1,,,,,0,76,0
16260,note_on,,,,,1,0,1,,,,,0,74,64
16260,note_on,,,,,56,0,2,,,,,1,67,64
16260,note_on,,,,,4,0,3,,,,,2,52,64
16264,note_on,,,,,4,0,2,,,,,1,66,0
16286,note_on,,,,,26,0,3,,,,,2,52,0
16290,note_on,,,,,4,0,3,,,,,2,57,64
16316,note_on,,,,,26,0,3,,,,,2,57,0
16319,note_on,,,,,59,0,1,,,,,0,74,0
16320,note_on,,,,,1,0,1,,,,,0,73,64
16320,note_on,,,,,4,0,3,,,,,2,54,64
16320,note_on,,,,,56,0,2,,,,,1,69,64
16324,note_on,,,,,4,0,2,,,,,1,67,0
16346,note_on,,,,,26,0,3,,,,,2,54,0
16350,note_on,,,,,4,0,3,,,,,2,57,64
16376,note_on,,,,,26,0,3,,,,,2,57,0
16379,note_on,,,,,59,0,1,,,,,0,73,0
16380,note_on,,,,,1,0,1,,,,,0,71,64
16380,note_on,,,,,4,0,3,,,,,2,55,64
16406,note_on,,,,,26,0,3,,,,,2,55,0
16410,note_on,,,,,4,0,3,,,,,2,59,64
16432,note_on,,,,,108,0,2,,,,,1,69,0
16436,note_on,,,,,26,0,3,,,,,2,59,0
16440,note_on,,,,,8,0,2,,,,,1,62,64
16440,note_on,,,,,4,0,3,,,,,2,57,64
16466,note_on,,,,,26,0,3,,,,,2,57,0
16470,note_on,,,,,4,0,3,,,,,2,55,64
16474,note_on,,,,,34,0,2,,,,,1,62,0
16496,note_on,,,,,26,0,3,,,,,2,55,0
16499,note_on,,,,,119,0,1,,,,,0,71,0
16500,note_on,,,,,4,0,3,,,,,2,54,64
16500,note_on,,,,,26,0,2,,,,,1,67,64
16500,note_on,,,,,1,0,1,,,,,0,73,64
16526,note_on,,,,,26,0,3,,,,,2,54,0
16530,note_on,,,,,4,0,3,,,,,2,52,64
16556,note_on,,,,,26,0,3,,,,,2,52,0
16559,note_on,,,,,59,0,1,,,,,0,73,0
16560,note_on,,,,,4,0,3,,,,,2,54,64
16560,note_on,,,,,1,0,1,,,,,0,74,64
16586,note_on,,,,,26,0,3,,,,,2,54,0
16590,note_on,,,,,4,0,3,,,,,2,57,64
16594,note_on,,,,,34,0,1,,,,,0,74,0
16616,note_on,,,,,26,0,3,,,,,2,57,0
16620,note_on,,,,,120,0,2,,,,,1,66,64
16620,note_on,,,,,4,0,3,,,,,2,62,64
16620,note_on,,,,,26,0,1,,,,,0,69,64
16624,note_on,,,,,4,0,2,,,,,1,67,0
16646,note_on,,,,,26,0,3,,,,,2,62,0
16650,note_on,,,,,4,0,3,,,,,2,57,64
16676,note_on,,,,,26,0,3,,,,,2,57,0
16679,note_on,,,,,59,0,1,,,,,0,69,0
16680,note_on,,,,,4,0,3,,,,,2,56,64
16680,note_on,,,,,1,0,1,,,,,0,71,64
16680,note_on,,,,,56,0,2,,,,,1,65,64
16684,note_on,,,,,4,0,2,,,,,1,66,0
16706,note_on,,,,,26,0,3,,,,,2,56,0
16710,note_on,,,,,4,0,3,,,,,2,62,64
16736,note_on,,,,,26,0,3,,,,,2,62,0
16739,note_on,,,,,59,0,1,,,,,0,71,0
16740,note_on,,,,,1,0,1,,,,,0,72,64
16740,note_on,,,,,4,0,3,,,,,2,57,64
16766,note_on,,,,,26,0,3,,,,,2,57,0
16770,note_on,,,,,4,0,3,,,,,2,60,64
16796,note_on,,,,,26,0,3,,,,,2,60,0
16799,note_on,,,,,59,0,1,,,,,0,72,0
16800,note_on,,,,,1,0,1,,,,,0,73,64
16800,note_on,,,,,4,0,3,,,,,2,59,64
16800,note_on,,,,,116,0,2,,,,,1,64,64
16804,note_on,,,,,4,0,2,,,,,1,65,0
16826,note_on,,,,,26,0,3,,,,,2,59,0
16830,note_on,,,,,4,0,3,,,,,2,57,64
16834,note_on,,,,,30,0,2,,,,,1,64,0
16856,note_on,,,,,26,0,3,,,,,2,57,0
16859,note_on,,,,,59,0,1,,,,,0,73,0
16860,note_on,,,,,1,0,1,,,,,0,75,64
16860,note_on,,,,,4,0,3,,,,,2,55,64
16860,note_on,,,,,26,0,2,,,,,1,69,64
16886,note_on,,,,,26,0,3,,,,,2,55,0
16890,note_on,,,,,4,0,3,,,,,2,54,64
16916,note_on,,,,,26,0,3,,,,,2,54,0
16920,note_on,,,,,60,0,1,,,,,0,76,64
16920,note_on,,,,,4,0,3,,,,,2,56,64
16924,note_on,,,,,4,0,1,,,,,0,75,0
16946,note_on,,,,,26,0,3,,,,,2,56,0
16950,note_on,,,,,4,0,3,,,,,2,59,64
16959,note_on,,,,,35,0,1,,,,,0,76,0
16976,note_on,,,,,26,0,3,,,,,2,59,0
16980,note_on,,,,,4,0,3,,,,,2,64,64
16980,note_on,,,,,120,0,2,,,,,1,68,64
16980,note_on,,,,,21,0,1,,,,,0,71,64
16984,note_on,,,,,4,0,2,,,,,1,69,0
17006,note_on,,,,,26,0,3,,,,,2,64,0
17010,note_on,,,,,4,0,3,,,,,2,59,64
17036,note_on,,,,,26,0,3,,,,,2,59,0
17039,note_on,,,,,59,0,1,,,,,0,71,0
17040,note_on,,,,,1,0,1,,,,,0,73,64
17040,note_on,,,,,4,0,3,,,,,2,58,64
17040,note_on,,,,,56,0,2,,,,,1,67,64
17044,note_on,,,,,4,0,2,,,,,1,68,0
17066,note_on,,,,,26,0,3,,,,,2,58,0
17070,note_on,,,,,4,0,3,,,,,2,64,64
17096,note_on,,,,,26,0,3,,,,,2,64,0
17099,note_on,,,,,59,0,1,,,,,0,73,0
17100,note_on,,,,,4,0,3,,,,,2,59,64
17100,note_on,,,,,1,0,1,,,,,0,74,64
17126,note_on,,,,,26,0,3,,,,,2,59,0
17130,note_on,,,,,4,0,3,,,,,2,62,64
17156,note_on,,,,,26,0,3,,,,,2,62,0
17159,note_on,,,,,59,0,1,,,,,0,74,0
17160,note_on,,,,,1,0,1,,,,,0,75,64
17160,note_on,,,,,116,0,2,,,,,1,66,64
17160,note_on,,,,,4,0,3,,,,,2,61,64
17164,note_on,,,,,4,0,2,,,,,1,67,0
17186,note_on,,,,,26,0,3,,,,,2,61,0
17190,note_on,,,,,4,0,3,,,,,2,59,64
17194,note_on,,,,,30,0,2,,,,,1,66,0
17216,note_on,,,,,26,0,3,,,,,2,59,0
17219,note_on,,,,,59,0,1,,,,,0,75,0
17220,note_on,,,,,1,0,1,,,,,0,77,64
17220,note_on,,,,,4,0,3,,,,,2,58,64
17220,note_on,,,,,26,0,2,,,,,1,71,64
17246,note_on,,,,,26,0,3,,,,,2,58,0
17250,note_on,,,,,4,0,3,,,,,2,56,64
17276,note_on,,,,,26,0,3,,,,,2,56,0
17279,note_on,,,,,59,0,1,,,,,0,77,0
17280,note_on,,,,,1,0,1,,,,,0,78,64
17280,note_on,,,,,4,0,3,,,,,2,54,64
17306,note_on,,,,,26,0,3,,,,,2,54,0
17310,note_on,,,,,4,0,3,,,,,2,55,64
17336,note_on,,,,,26,0,3,,,,,2,55,0
17339,note_on,,,,,119,0,2,,,,,1,71,0
17340,note_on,,,,,1,0,2,,,,,1,70,64
17340,note_on,,,,,4,0,3,,,,,2,54,64
17366,note_on,,,,,26,0,3,,,,,2,54,0
17370,note_on,,,,,4,0,3,,,,,2,52,64
17379,note_on,,,,,39,0,2,,,,,1,70,0
17385,note_on,,,,,105,0,1,,,,,0,78,0
17396,note_on,,,,,26,0,3,,,,,2,52,0
17400,note_on,,,,,4,0,3,,,,,2,50,64
17400,note_on,,,,,21,0,2,,,,,1,66,64
17426,note_on,,,,,26,0,3,,,,,2,50,0
17430,note_on,,,,,4,0,3,,,,,2,49,64
17434,note_on,,,,,34,0,2,,,,,1,66,0
17456,note_on,,,,,26,0,3,,,,,2,49,0
17460,note_on,,,,,26,0,2,,,,,1,62,64
17460,note_on,,,,,4,0,3,,,,,2,47,64
17486,note_on,,,,,26,0,3,,,,,2,47,0
17490,note_on,,,,,4,0,3,,,,,2,49,64
17494,note_on,,,,,34,0,2,,,,,1,62,0
17516,note_on,,,,,26,0,3,,,,,2,49,0
17520,note_on,,,,,4,0,3,,,,,2,50,64
17520,note_on,,,,,26,0,2,,,,,1,59,64
17546,note_on,,,,,26,0,3,,,,,2,50,0
17550,note_on,,,,,4,0,3,,,,,2,52,64
17554,note_on,,,,,34,0,2,,,,,1,59,0
17576,note_on,,,,,26,0,3,,,,,2,52,0
17580,note_on,,,,,4,0,3,,,,,2,54,64
17580,note_on,,,,,26,0,2,,,,,1,58,64
17606,note_on,,,,,26,0,3,,,,,2,54,0
17610,note_on,,,,,4,0,3,,,,,2,52,64
17614,note_on,,,,,34,0,2,,,,,1,58,0
17636,note_on,,,,,26,0,3,,,,,2,52,0
17640,note_on,,,,,26,0,2,,,,,1,59,64
17640,note_on,,,,,4,0,3,,,,,2,50,64
17666,note_on,,,,,26,0,2,,,,,1,59,0
17670,note_on,,,,,4,0,2,,,,,1,71,64
17674,note_on,,,,,34,0,3,,,,,2,50,0
17700,note_on,,,,,30,0,2,,,,,1,70,64
17700,note_on,,,,,26,0,3,,,,,2,47,64
17709,note_on,,,,,9,0,2,,,,,1,71,0
17729,note_on,,,,,29,0,3,,,,,2,47,0
17730,note_on,,,,,21,0,2,,,,,1,71,64
17739,note_on,,,,,9,0,2,,,,,1,70,0
17760,note_on,,,,,31,0,3,,,,,2,46,64
17760,note_on,,,,,21,0,2,,,,,1,73,64
17769,note_on,,,,,9,0,2,,,,,1,71,0
17790,note_on,,,,,405,0,1,,,,,0,78,64
17794,note_on,,,,,34,0,3,,,,,2,46,0
17812,note_on,,,,,43,0,2,,,,,1,73,0
17816,note_on,,,,,26,0,1,,,,,0,78,0
17820,note_on,,,,,4,0,1,,,,,0,76,64
17820,note_on,,,,,26,0,3,,,,,2,47,64
17829,set_tempo,,,,,17829,1,0,,685714,,,,,
17834,set_tempo,,,,,5,1,0,,689655,,,,,
17839,set_tempo,,,,,5,1,0,,693642,,,,,
17844,set_tempo,,,,,5,1,0,,697674,,,,,
17846,note_on,,,,,26,0,1,,,,,0,76,0
17849,note_on,,,,,29,0,3,,,,,2,47,0
17849,set_tempo,,,,,5,1,0,,701754,,,,,
17850,note_on,,,,,4,0,1,,,,,0,74,64
17854,set_tempo,,,,,5,1,0,,705882,,,,,
17859,set_tempo,,,,,5,1,0,,710059,,,,,
17864,set_tempo,,,,,5,1,0,,714286,,,,,
17869,set_tempo,,,,,5,1,0,,718563,,,,,
17874,set_tempo,,,,,5,1,0,,722892,,,,,
17876,note_on,,,,,26,0,1,,,,,0,74,0
17879,set_tempo,,,,,5,1,0,,727273,,,,,
17880,note_on,,,,,31,0,3,,,,,2,38,64
17880,note_on,,,,,68,0,2,,,,,1,66,64
17880,note_on,,,,,4,0,1,,,,,0,73,64
17884,set_tempo,,,,,5,1,0,,731707,,,,,
17889,set_tempo,,,,,5,1,0,,736196,,,,,
17894,set_tempo,,,,,5,1,0,,740741,,,,,
17899,set_tempo,,,,,5,1,0,,745342,,,,,
17904,set_tempo,,,,,5,1,0,,750000,,,,,
17906,note_on,,,,,26,0,1,,,,,0,73,0
17909,note_on,,,,,29,0,2,,,,,1,66,0
17909,set_tempo,,,,,5,1,0,,754717,,,,,
17910,note_on,,,,,4,0,1,,,,,0,71,64
17914,note_on,,,,,34,0,3,,,,,2,38,0
17914,set_tempo,,,,,5,1,0,,759494,,,,,
17919,set_tempo,,,,,5,1,0,,764331,,,,,
17924,set_tempo,,,,,5,1,0,,769231,,,,,
17929,set_tempo,,,,,5,1,0,,774194,,,,,
17934,set_tempo,,,,,5,1,0,,779221,,,,,
17936,note_on,,,,,26,0,1,,,,,0,71,0
17939,set_tempo,,,,,5,1,0,,784314,,,,,
17940,note_on,,,,,4,0,1,,,,,0,73,64
17940,note_on,,,,,31,0,2,,,,,1,64,64
17940,note_on,,,,,26,0,3,,,,,2,42,64
17944,set_tempo,,,,,5,1,0,,789474,,,,,
17949,set_tempo,,,,,5,1,0,,794702,,,,,
17954,set_tempo,,,,,5,1,0,,800000,,,,,
17959,set_tempo,,,,,5,1,0,,805369,,,,,
17964,set_tempo,,,,,5,1,0,,810811,,,,,
17966,note_on,,,,,26,0,1,,,,,0,73,0
17969,set_tempo,,,,,5,1,0,,816327,,,,,
17969,note_on,,,,,29,0,3,,,,,2,42,0
17969,note_on,,,,,29,0,2,,,,,1,64,0
17970,note_on,,,,,4,0,1,,,,,0,70,64
17974,set_tempo,,,,,5,1,0,,821918,,,,,
17979,set_tempo,,,,,5,1,0,,827586,,,,,
17984,set_tempo,,,,,5,1,0,,833333,,,,,
17989,set_tempo,,,,,5,1,0,,839161,,,,,
17994,set_tempo,,,,,5,1,0,,845070,,,,,
17996,note_on,,,,,26,0,1,,,,,0,70,0
17999,set_tempo,,,,,5,1,0,,851064,,,,,
18000,note_on,,,,,4,0,1,,,,,0,70,64
18000,note_on,,,,,31,0,3,,,,,2,35,64
18000,note_on,,,,,31,0,2,,,,,1,64,64
18001,set_tempo,,,,,2,1,0,,857143,,,,,
18006,set_tempo,,,,,5,1,0,,863309,,,,,
18011,set_tempo,,,,,5,1,0,,869565,,,,,
18016,set_tempo,,,,,5,1,0,,875912,,,,,
18021,set_tempo,,,,,5,1,0,,882353,,,,,
18026,set_tempo,,,,,5,1,0,,888889,,,,,
18031,set_tempo,,,,,5,1,0,,895522,,,,,
18036,set_tempo,,,,,5,1,0,,902256,,,,,
18041,set_tempo,,,,,5,1,0,,909091,,,,,
18046,set_tempo,,,,,5,1,0,,916031,,,,,
18051,set_tempo,,,,,5,1,0,,923077,,,,,
18056,set_tempo,,,,,5,1,0,,930233,,,,,
18060,note_on,,,,,60,0,1,,,,,0,71,64
18060,note_on,,,,,60,0,2,,,,,1,63,64
18061,set_tempo,,,,,5,1,0,,937500,,,,,
18064,note_on,,,,,4,0,1,,,,,0,70,0
18064,note_on,,,,,4,0,2,,,,,1,64,0
18066,set_tempo,,,,,5,1,0,,944882,,,,,
18071,set_tempo,,,,,5,1,0,,952381,,,,,
18076,set_tempo,,,,,5,1,0,,960000,,,,,
18081,set_tempo,,,,,5,1,0,,967742,,,,,
18086,set_tempo,,,,,5,1,0,,975610,,,,,
18091,set_tempo,,,,,5,1,0,,983607,,,,,
18096,set_tempo,,,,,5,1,0,,991736,,,,,
18101,set_tempo,,,,,5,1,0,,1000000,,,,,
18106,set_tempo,,,,,5,1,0,,1008403,,,,,
18111,set_tempo,,,,,5,1,0,,1016949,,,,,
18116,set_tempo,,,,,5,1,0,,1025641,,,,,
18121,set_tempo,,,,,5,1,0,,1034483,,,,,
18126,set_tempo,,,,,5,1,0,,1043478,,,,,
18131,set_tempo,,,,,5,1,0,,1052632,,,,,
18136,set_tempo,,,,,5,1,0,,1061947,,,,,
18141,set_tempo,,,,,5,1,0,,1071429,,,,,
18146,set_tempo,,,,,5,1,0,,1081081,,,,,
18151,set_tempo,,,,,5,1,0,,1090909,,,,,
18156,set_tempo,,,,,5,1,0,,1100917,,,,,
18161,set_tempo,,,,,5,1,0,,1111111,,,,,
18166,set_tempo,,,,,5,1,0,,1121495,,,,,
18169,set_tempo,,,,,3,1,0,,1132075,,,,,
18169,end_of_track,,,,,0,1,0,,,,,,,
18239,note_on,,,,,175,0,1,,,,,0,71,0
18239,end_of_track,,,,,0,1,2,,,,,,,
18239,note_on,,,,,175,0,2,,,,,1,63,0
18239,note_on,,,,,239,0,3,,,,,2,35,0
18239,end_of_track,,,,,0,1,1,,,,,,,
18239,end_of_track,,,,,0,1,3,,,,,,,
