tick,type,time,meta,track,numerator,denominator,clocks_per_click,notated_32nd_notes_per_beat,key,tempo,program,channel,note,velocity
0,track_name,0,1,0,,,,,,,,,,
0,note_on,0,0,2,,,,,,,,0,52,64
0,program_change,0,0,2,,,,,,,0,0,,
0,track_name,0,1,2,,,,,,,,,,
0,program_change,0,0,1,,,,,,,0,0,,
0,track_name,0,1,1,,,,,,,,,,
0,end_of_track,0,1,3,,,,,,,,,,
0,set_tempo,0,1,0,,,,,,652174,,,,
0,key_signature,0,1,0,,,,,G,,,,,
0,time_signature,0,1,0,3,8,12,8,,,,,,
0,marker,0,1,0,,,,,,,,,,
60,note_on,60,0,1,,,,,,,,0,67,64
120,note_on,0,0,2,,,,,,,,0,40,64
120,note_on,60,0,1,,,,,,,,0,67,0
120,note_on,0,0,1,,,,,,,,0,69,64
120,note_on,120,0,2,,,,,,,,0,52,0
180,note_on,60,0,1,,,,,,,,0,69,0
180,note_on,0,0,1,,,,,,,,0,71,64
240,note_on,120,0,2,,,,,,,,0,40,0
240,note_on,60,0,1,,,,,,,,0,71,0
240,note_on,0,0,1,,,,,,,,0,72,64
300,note_on,60,0,1,,,,,,,,0,72,0
300,note_on,0,0,1,,,,,,,,0,69,64
360,note_on,60,0,1,,,,,,,,0,69,0
360,note_on,0,0,1,,,,,,,,0,71,64
420,note_on,60,0,1,,,,,,,,0,71,0
420,note_on,0,0,1,,,,,,,,0,67,64
480,note_on,60,0,1,,,,,,,,0,67,0
480,note_on,0,0,1,,,,,,,,0,66,64
540,note_on,60,0,1,,,,,,,,0,66,0
540,note_on,0,0,1,,,,,,,,0,64,64
600,note_on,60,0,1,,,,,,,,0,64,0
600,note_on,0,0,1,,,,,,,,0,63,64
660,note_on,60,0,1,,,,,,,,0,63,0
660,note_on,0,0,1,,,,,,,,0,69,64
720,note_on,0,0,1,,,,,,,,0,67,64
720,note_on,60,0,1,,,,,,,,0,69,0
750,note_on,0,0,1,,,,,,,,0,66,64
750,note_on,30,0,1,,,,,,,,0,67,0
780,note_on,30,0,1,,,,,,,,0,66,0
780,note_on,0,0,1,,,,,,,,0,64,64
780,note_on,540,0,2,,,,,,,,0,55,64
840,note_on,60,0,1,,,,,,,,0,64,0
840,note_on,0,0,1,,,,,,,,0,76,64
840,note_on,60,0,2,,,,,,,,0,55,0
840,note_on,0,0,2,,,,,,,,0,57,64
900,note_on,60,0,2,,,,,,,,0,57,0
900,note_on,0,0,2,,,,,,,,0,59,64
960,note_on,60,0,2,,,,,,,,0,59,0
960,note_on,0,0,2,,,,,,,,0,60,64
960,note_on,120,0,1,,,,,,,,0,76,0
1020,note_on,60,0,2,,,,,,,,0,60,0
1020,note_on,0,0,2,,,,,,,,0,57,64
1080,note_on,60,0,2,,,,,,,,0,57,0
1080,note_on,120,0,1,,,,,,,,0,75,64
1080,note_on,0,0,2,,,,,,,,0,59,64
1110,note_on,0,0,1,,,,,,,,0,73,64
1110,note_on,30,0,1,,,,,,,,0,75,0
1140,note_on,60,0,2,,,,,,,,0,59,0
1140,note_on,0,0,1,,,,,,,,0,71,64
1140,note_on,30,0,1,,,,,,,,0,73,0
1140,note_on,0,0,2,,,,,,,,0,55,64
1200,note_on,0,0,1,,,,,,,,0,81,64
1200,note_on,60,0,1,,,,,,,,0,71,0
1200,note_on,60,0,2,,,,,,,,0,55,0
1200,note_on,0,0,2,,,,,,,,0,54,64
1260,note_on,0,0,2,,,,,,,,0,52,64
1260,note_on,60,0,2,,,,,,,,0,54,0
1320,note_on,60,0,2,,,,,,,,0,52,0
1320,note_on,0,0,2,,,,,,,,0,51,64
1320,note_on,120,0,1,,,,,,,,0,81,0
1380,note_on,60,0,2,,,,,,,,0,51,0
1380,note_on,0,0,2,,,,,,,,0,57,64
1440,note_on,60,0,2,,,,,,,,0,57,0
1440,note_on,0,0,2,,,,,,,,0,55,64
1500,note_on,60,0,2,,,,,,,,0,55,0
1500,note_on,0,0,2,,,,,,,,0,52,64
1500,note_on,180,0,1,,,,,,,,0,67,64
1560,note_on,0,0,1,,,,,,,,0,69,64
1560,note_on,60,0,1,,,,,,,,0,67,0
1560,note_on,0,0,2,,,,,,,,0,54,64
1560,note_on,60,0,2,,,,,,,,0,52,0
1620,note_on,0,0,1,,,,,,,,0,71,64
1620,note_on,60,0,1,,,,,,,,0,69,0
1620,note_on,0,0,2,,,,,,,,0,55,64
1620,note_on,60,0,2,,,,,,,,0,54,0
1680,note_on,60,0,2,,,,,,,,0,55,0
1680,note_on,0,0,1,,,,,,,,0,72,64
1680,note_on,60,0,1,,,,,,,,0,71,0
1680,note_on,0,0,2,,,,,,,,0,57,64
1740,note_on,0,0,2,,,,,,,,0,54,64
1740,note_on,60,0,1,,,,,,,,0,72,0
1740,note_on,60,0,2,,,,,,,,0,57,0
1740,note_on,0,0,1,,,,,,,,0,69,64
1800,note_on,0,0,2,,,,,,,,0,55,64
1800,note_on,60,0,2,,,,,,,,0,54,0
1800,note_on,60,0,1,,,,,,,,0,69,0
1800,note_on,0,0,1,,,,,,,,0,71,64
1860,note_on,60,0,1,,,,,,,,0,71,0
1860,note_on,0,0,1,,,,,,,,0,67,64
1889,note_on,89,0,2,,,,,,,,0,55,0
1920,note_on,31,0,2,,,,,,,,0,57,64
1920,note_on,60,0,1,,,,,,,,0,67,0
1920,note_on,0,0,1,,,,,,,,0,66,64
1980,note_on,0,0,1,,,,,,,,0,64,64
1980,note_on,60,0,1,,,,,,,,0,66,0
2009,note_on,89,0,2,,,,,,,,0,57,0
2040,note_on,60,0,1,,,,,,,,0,64,0
2040,note_on,0,0,1,,,,,,,,0,63,64
2040,note_on,31,0,2,,,,,,,,0,59,64
2100,note_on,60,0,1,,,,,,,,0,63,0
2100,note_on,0,0,1,,,,,,,,0,69,64
2129,note_on,89,0,2,,,,,,,,0,59,0
2160,note_on,31,0,2,,,,,,,,0,52,64
2160,note_on,0,0,1,,,,,,,,0,67,64
2160,note_on,60,0,1,,,,,,,,0,69,0
2220,note_on,0,0,1,,,,,,,,0,71,64
2220,note_on,60,0,1,,,,,,,,0,67,0
2249,note_on,89,0,2,,,,,,,,0,52,0
2280,note_on,31,0,2,,,,,,,,0,50,64
2280,note_on,60,0,1,,,,,,,,0,71,0
2280,note_on,0,0,1,,,,,,,,0,72,64
2340,note_on,60,0,1,,,,,,,,0,72,0
2340,note_on,0,0,1,,,,,,,,0,74,64
2369,note_on,89,0,2,,,,,,,,0,50,0
2400,note_on,0,0,1,,,,,,,,0,76,64
2400,note_on,31,0,2,,,,,,,,0,48,64
2400,note_on,60,0,1,,,,,,,,0,74,0
2460,note_on,0,0,1,,,,,,,,0,72,64
2460,note_on,60,0,1,,,,,,,,0,76,0
2489,note_on,89,0,2,,,,,,,,0,48,0
2520,note_on,0,0,1,,,,,,,,0,74,64
2520,note_on,60,0,1,,,,,,,,0,72,0
2520,note_on,31,0,2,,,,,,,,0,47,64
2580,note_on,0,0,1,,,,,,,,0,71,64
2580,note_on,60,0,1,,,,,,,,0,74,0
2609,note_on,89,0,2,,,,,,,,0,47,0
2640,note_on,0,0,1,,,,,,,,0,69,64
2640,note_on,31,0,2,,,,,,,,0,48,64
2640,note_on,60,0,1,,,,,,,,0,71,0
2700,note_on,60,0,1,,,,,,,,0,69,0
2700,note_on,0,0,1,,,,,,,,0,67,64
2729,note_on,89,0,2,,,,,,,,0,48,0
2760,note_on,31,0,2,,,,,,,,0,50,64
2760,note_on,0,0,1,,,,,,,,0,66,64
2760,note_on,60,0,1,,,,,,,,0,67,0
2820,note_on,60,0,1,,,,,,,,0,66,0
2820,note_on,0,0,1,,,,,,,,0,72,64
2849,note_on,89,0,2,,,,,,,,0,50,0
2880,note_on,31,0,2,,,,,,,,0,43,64
2880,note_on,60,0,1,,,,,,,,0,72,0
2880,note_on,0,0,1,,,,,,,,0,71,64
2940,note_on,60,0,1,,,,,,,,0,71,0
2940,note_on,0,0,1,,,,,,,,0,74,64
2969,note_on,89,0,2,,,,,,,,0,43,0
3000,note_on,0,0,1,,,,,,,,0,76,64
3000,note_on,31,0,2,,,,,,,,0,42,64
3000,note_on,60,0,1,,,,,,,,0,74,0
3060,note_on,0,0,1,,,,,,,,0,78,64
3060,note_on,60,0,1,,,,,,,,0,76,0
3089,note_on,89,0,2,,,,,,,,0,42,0
3120,note_on,31,0,2,,,,,,,,0,40,64
3120,note_on,0,0,1,,,,,,,,0,79,64
3120,note_on,60,0,1,,,,,,,,0,78,0
3180,note_on,0,0,1,,,,,,,,0,76,64
3180,note_on,60,0,1,,,,,,,,0,79,0
3209,note_on,89,0,2,,,,,,,,0,40,0
3240,note_on,0,0,1,,,,,,,,0,78,64
3240,note_on,60,0,1,,,,,,,,0,76,0
3240,note_on,31,0,2,,,,,,,,0,38,64
3300,note_on,0,0,1,,,,,,,,0,74,64
3300,note_on,60,0,1,,,,,,,,0,78,0
3329,note_on,89,0,2,,,,,,,,0,38,0
3360,note_on,0,0,1,,,,,,,,0,73,64
3360,note_on,31,0,2,,,,,,,,0,40,64
3360,note_on,60,0,1,,,,,,,,0,74,0
3420,note_on,0,0,1,,,,,,,,0,71,64
3420,note_on,60,0,1,,,,,,,,0,73,0
3449,note_on,89,0,2,,,,,,,,0,40,0
3480,note_on,0,0,1,,,,,,,,0,70,64
3480,note_on,60,0,1,,,,,,,,0,71,0
3480,note_on,31,0,2,,,,,,,,0,42,64
3540,note_on,0,0,1,,,,,,,,0,76,64
3540,note_on,60,0,1,,,,,,,,0,70,0
3569,note_on,89,0,2,,,,,,,,0,42,0
3600,note_on,31,0,2,,,,,,,,0,47,64
3600,note_on,60,0,1,,,,,,,,0,76,0
3600,note_on,0,0,1,,,,,,,,0,74,64
3660,note_on,0,0,1,,,,,,,,0,78,64
3660,note_on,60,0,1,,,,,,,,0,74,0
3660,note_on,60,0,2,,,,,,,,0,47,0
3660,note_on,0,0,2,,,,,,,,0,50,64
3720,note_on,0,0,1,,,,,,,,0,76,64
3720,note_on,60,0,1,,,,,,,,0,78,0
3720,note_on,60,0,2,,,,,,,,0,50,0
3720,note_on,0,0,2,,,,,,,,0,52,64
3780,note_on,60,0,1,,,,,,,,0,76,0
3780,note_on,0,0,2,,,,,,,,0,54,64
3780,note_on,60,0,2,,,,,,,,0,52,0
3780,note_on,0,0,1,,,,,,,,0,74,64
3840,note_on,60,0,1,,,,,,,,0,74,0
3840,note_on,0,0,2,,,,,,,,0,55,64
3840,note_on,0,0,1,,,,,,,,0,73,64
3840,note_on,60,0,2,,,,,,,,0,54,0
3900,note_on,60,0,2,,,,,,,,0,55,0
3900,note_on,0,0,2,,,,,,,,0,52,64
3900,note_on,0,0,1,,,,,,,,0,71,64
3900,note_on,60,0,1,,,,,,,,0,73,0
3960,note_on,0,0,1,,,,,,,,0,70,64
3960,note_on,60,0,2,,,,,,,,0,52,0
3960,note_on,0,0,2,,,,,,,,0,54,64
3960,note_on,60,0,1,,,,,,,,0,71,0
3990,note_on,0,0,1,,,,,,,,0,68,64
3990,note_on,30,0,1,,,,,,,,0,70,0
4020,note_on,0,0,2,,,,,,,,0,50,64
4020,note_on,60,0,2,,,,,,,,0,54,0
4020,note_on,30,0,1,,,,,,,,0,68,0
4020,note_on,0,0,1,,,,,,,,0,66,64
4080,note_on,60,0,1,,,,,,,,0,66,0
4080,note_on,0,0,1,,,,,,,,0,76,64
4080,note_on,0,0,2,,,,,,,,0,49,64
4080,note_on,60,0,2,,,,,,,,0,50,0
4140,note_on,60,0,2,,,,,,,,0,49,0
4140,note_on,0,0,2,,,,,,,,0,47,64
4200,note_on,120,0,1,,,,,,,,0,76,0
4200,note_on,60,0,2,,,,,,,,0,47,0
4200,note_on,0,0,2,,,,,,,,0,46,64
4260,note_on,60,0,2,,,,,,,,0,46,0
4260,note_on,0,0,2,,,,,,,,0,52,64
4320,note_on,0,0,2,,,,,,,,0,50,64
4320,note_on,60,0,2,,,,,,,,0,52,0
4380,note_on,0,0,2,,,,,,,,0,47,64
4380,note_on,60,0,2,,,,,,,,0,50,0
4380,note_on,180,0,1,,,,,,,,0,74,64
4440,note_on,0,0,2,,,,,,,,0,49,64
4440,note_on,60,0,2,,,,,,,,0,47,0
4440,note_on,60,0,1,,,,,,,,0,74,0
4440,note_on,0,0,1,,,,,,,,0,76,64
4500,note_on,0,0,2,,,,,,,,0,50,64
4500,note_on,60,0,2,,,,,,,,0,49,0
4500,note_on,60,0,1,,,,,,,,0,76,0
4500,note_on,0,0,1,,,,,,,,0,78,64
4560,note_on,0,0,1,,,,,,,,0,79,64
4560,note_on,60,0,1,,,,,,,,0,78,0
4560,note_on,60,0,2,,,,,,,,0,50,0
4560,note_on,0,0,2,,,,,,,,0,52,64
4620,note_on,0,0,1,,,,,,,,0,76,64
4620,note_on,60,0,1,,,,,,,,0,79,0
4620,note_on,60,0,2,,,,,,,,0,52,0
4620,note_on,0,0,2,,,,,,,,0,49,64
4680,note_on,0,0,1,,,,,,,,0,78,64
4680,note_on,60,0,1,,,,,,,,0,76,0
4680,note_on,60,0,2,,,,,,,,0,49,0
4680,note_on,0,0,2,,,,,,,,0,50,64
4740,note_on,0,0,1,,,,,,,,0,74,64
4740,note_on,60,0,1,,,,,,,,0,78,0
4769,note_on,89,0,2,,,,,,,,0,50,0
4800,note_on,31,0,2,,,,,,,,0,52,64
4800,note_on,60,0,1,,,,,,,,0,74,0
4800,note_on,0,0,1,,,,,,,,0,73,64
4860,note_on,60,0,1,,,,,,,,0,73,0
4860,note_on,0,0,1,,,,,,,,0,71,64
4889,note_on,89,0,2,,,,,,,,0,52,0
4920,note_on,0,0,1,,,,,,,,0,70,64
4920,note_on,60,0,1,,,,,,,,0,71,0
4920,note_on,31,0,2,,,,,,,,0,54,64
4980,note_on,60,0,1,,,,,,,,0,70,0
4980,note_on,0,0,1,,,,,,,,0,76,64
5009,note_on,89,0,2,,,,,,,,0,54,0
5040,note_on,0,0,1,,,,,,,,0,74,64
5040,note_on,31,0,2,,,,,,,,0,47,64
5040,note_on,60,0,1,,,,,,,,0,76,0
5100,note_on,60,0,1,,,,,,,,0,74,0
5100,note_on,0,0,1,,,,,,,,0,71,64
5129,note_on,89,0,2,,,,,,,,0,47,0
5160,note_on,31,0,2,,,,,,,,0,59,64
5160,note_on,60,0,1,,,,,,,,0,71,0
5160,note_on,0,0,1,,,,,,,,0,73,64
5220,note_on,0,0,1,,,,,,,,0,74,64
5220,note_on,60,0,1,,,,,,,,0,73,0
5249,note_on,89,0,2,,,,,,,,0,59,0
5280,note_on,60,0,1,,,,,,,,0,74,0
5280,note_on,31,0,2,,,,,,,,0,58,64
5280,note_on,0,0,1,,,,,,,,0,76,64
5340,note_on,0,0,1,,,,,,,,0,73,64
5340,note_on,60,0,1,,,,,,,,0,76,0
5369,note_on,89,0,2,,,,,,,,0,58,0
5400,note_on,31,0,2,,,,,,,,0,59,64
5400,note_on,0,0,1,,,,,,,,0,74,64
5400,note_on,60,0,1,,,,,,,,0,73,0
5460,note_on,60,0,1,,,,,,,,0,74,0
5460,note_on,0,0,1,,,,,,,,0,71,64
5489,note_on,89,0,2,,,,,,,,0,59,0
5520,note_on,60,0,1,,,,,,,,0,71,0
5520,note_on,31,0,2,,,,,,,,0,54,64
5520,note_on,0,0,1,,,,,,,,0,69,64
5580,note_on,0,0,1,,,,,,,,0,67,64
5580,note_on,60,0,1,,,,,,,,0,69,0
5609,note_on,89,0,2,,,,,,,,0,54,0
5640,note_on,31,0,2,,,,,,,,0,50,64
5640,note_on,0,0,1,,,,,,,,0,66,64
5640,note_on,60,0,1,,,,,,,,0,67,0
5700,note_on,0,0,1,,,,,,,,0,72,64
5700,note_on,60,0,1,,,,,,,,0,66,0
5729,note_on,89,0,2,,,,,,,,0,50,0
5760,note_on,60,0,1,,,,,,,,0,72,0
5760,note_on,0,0,1,,,,,,,,0,71,64
5760,note_on,31,0,2,,,,,,,,0,55,64
5820,note_on,0,0,2,,,,,,,,0,59,64
5820,note_on,60,0,2,,,,,,,,0,55,0
5820,note_on,60,0,1,,,,,,,,0,71,0
5820,note_on,0,0,1,,,,,,,,0,67,64
5880,note_on,60,0,1,,,,,,,,0,67,0
5880,note_on,0,0,1,,,,,,,,0,76,64
5880,note_on,60,0,2,,,,,,,,0,59,0
5880,note_on,0,0,2,,,,,,,,0,60,64
5940,note_on,60,0,2,,,,,,,,0,60,0
5940,note_on,60,0,1,,,,,,,,0,76,0
5940,note_on,0,0,1,,,,,,,,0,71,64
5940,note_on,0,0,2,,,,,,,,0,62,64
6000,note_on,60,0,2,,,,,,,,0,62,0
6000,note_on,0,0,2,,,,,,,,0,64,64
6000,note_on,60,0,1,,,,,,,,0,71,0
6000,note_on,0,0,1,,,,,,,,0,72,64
6060,note_on,60,0,2,,,,,,,,0,64,0
6060,note_on,60,0,1,,,,,,,,0,72,0
6060,note_on,0,0,2,,,,,,,,0,60,64
6060,note_on,0,0,1,,,,,,,,0,81,64
6120,note_on,60,0,1,,,,,,,,0,81,0
6120,note_on,0,0,1,,,,,,,,0,71,64
6120,note_on,60,0,2,,,,,,,,0,60,0
6180,note_on,60,0,1,,,,,,,,0,71,0
6180,note_on,60,0,2,,,,,,,,0,59,64
6180,note_on,0,0,1,,,,,,,,0,74,64
6240,note_on,0,0,1,,,,,,,,0,79,64
6240,note_on,60,0,1,,,,,,,,0,74,0
6240,note_on,60,0,2,,,,,,,,0,59,0
6240,note_on,0,0,2,,,,,,,,0,57,64
6300,note_on,60,0,2,,,,,,,,0,57,0
6300,note_on,0,0,2,,,,,,,,0,55,64
6360,note_on,0,0,2,,,,,,,,0,54,64
6360,note_on,0,0,1,,,,,,,,0,71,64
6360,note_on,120,0,1,,,,,,,,0,79,0
6360,note_on,60,0,2,,,,,,,,0,55,0
6375,note_on,15,0,1,,,,,,,,0,69,64
6379,note_on,4,0,1,,,,,,,,0,71,0
6390,note_on,0,0,1,,,,,,,,0,71,64
6390,note_on,11,0,1,,,,,,,,0,69,0
6405,note_on,0,0,1,,,,,,,,0,69,64
6405,note_on,15,0,1,,,,,,,,0,71,0
6420,note_on,0,0,2,,,,,,,,0,60,64
6420,note_on,60,0,2,,,,,,,,0,54,0
6420,note_on,0,0,1,,,,,,,,0,71,64
6420,note_on,15,0,1,,,,,,,,0,69,0
6435,note_on,15,0,1,,,,,,,,0,71,0
6435,note_on,0,0,1,,,,,,,,0,69,64
6480,note_on,60,0,2,,,,,,,,0,60,0
6480,note_on,0,0,2,,,,,,,,0,59,64
6480,note_on,0,0,1,,,,,,,,0,67,64
6480,note_on,45,0,1,,,,,,,,0,69,0
6540,note_on,60,0,1,,,,,,,,0,67,0
6540,note_on,60,0,2,,,,,,,,0,59,0
6540,note_on,0,0,2,,,,,,,,0,55,64
6540,note_on,0,0,1,,,,,,,,0,64,64
6600,note_on,60,0,1,,,,,,,,0,64,0
6600,note_on,0,0,1,,,,,,,,0,72,64
6600,note_on,0,0,2,,,,,,,,0,57,64
6600,note_on,60,0,2,,,,,,,,0,55,0
6660,note_on,0,0,2,,,,,,,,0,59,64
6660,note_on,60,0,2,,,,,,,,0,57,0
6660,note_on,60,0,1,,,,,,,,0,72,0
6660,note_on,0,0,1,,,,,,,,0,67,64
6720,note_on,0,0,1,,,,,,,,0,69,64
6720,note_on,60,0,1,,,,,,,,0,67,0
6720,note_on,0,0,2,,,,,,,,0,60,64
6720,note_on,60,0,2,,,,,,,,0,59,0
6780,note_on,0,0,1,,,,,,,,0,78,64
6780,note_on,60,0,1,,,,,,,,0,69,0
6780,note_on,0,0,2,,,,,,,,0,57,64
6780,note_on,60,0,2,,,,,,,,0,60,0
6840,note_on,60,0,1,,,,,,,,0,78,0
6840,note_on,0,0,2,,,,,,,,0,59,64
6840,note_on,60,0,2,,,,,,,,0,57,0
6840,note_on,0,0,1,,,,,,,,0,67,64
6900,note_on,0,0,2,,,,,,,,0,55,64
6900,note_on,60,0,1,,,,,,,,0,67,0
6900,note_on,0,0,1,,,,,,,,0,71,64
6900,note_on,60,0,2,,,,,,,,0,59,0
6960,note_on,60,0,2,,,,,,,,0,55,0
6960,note_on,0,0,2,,,,,,,,0,54,64
6960,note_on,60,0,1,,,,,,,,0,71,0
6960,note_on,0,0,1,,,,,,,,0,76,64
7020,note_on,0,0,2,,,,,,,,0,52,64
7020,note_on,60,0,2,,,,,,,,0,54,0
7080,note_on,0,0,2,,,,,,,,0,51,64
7080,note_on,60,0,2,,,,,,,,0,52,0
7080,note_on,120,0,1,,,,,,,,0,76,0
7080,note_on,0,0,1,,,,,,,,0,67,70
7095,note_on,0,0,1,,,,,,,,0,66,64
7095,note_on,15,0,1,,,,,,,,0,67,0
7110,note_on,15,0,1,,,,,,,,0,66,0
7110,note_on,0,0,1,,,,,,,,0,67,64
7125,note_on,15,0,1,,,,,,,,0,67,0
7125,note_on,0,0,1,,,,,,,,0,66,64
7140,note_on,15,0,1,,,,,,,,0,66,0
7140,note_on,0,0,1,,,,,,,,0,67,64
7140,note_on,60,0,2,,,,,,,,0,51,0
7140,note_on,0,0,2,,,,,,,,0,57,64
7155,note_on,15,0,1,,,,,,,,0,67,0
7155,note_on,0,0,1,,,,,,,,0,66,64
7200,note_on,0,0,2,,,,,,,,0,55,64
7200,note_on,60,0,2,,,,,,,,0,57,0
7200,note_on,45,0,1,,,,,,,,0,66,0
7200,note_on,0,0,1,,,,,,,,0,64,64
7260,note_on,0,0,2,,,,,,,,0,52,64
7260,note_on,60,0,1,,,,,,,,0,64,0
7260,note_on,0,0,1,,,,,,,,0,67,64
7260,note_on,60,0,2,,,,,,,,0,55,0
7320,note_on,60,0,1,,,,,,,,0,67,0
7320,note_on,0,0,1,,,,,,,,0,69,64
7320,note_on,0,0,2,,,,,,,,0,54,64
7320,note_on,60,0,2,,,,,,,,0,52,0
7380,note_on,0,0,2,,,,,,,,0,55,64
7380,note_on,60,0,2,,,,,,,,0,54,0
7380,note_on,60,0,1,,,,,,,,0,69,0
7380,note_on,0,0,1,,,,,,,,0,71,64
7440,note_on,0,0,2,,,,,,,,0,57,64
7440,note_on,60,0,1,,,,,,,,0,71,0
7440,note_on,0,0,1,,,,,,,,0,72,64
7440,note_on,60,0,2,,,,,,,,0,55,0
7500,note_on,0,0,1,,,,,,,,0,69,64
7500,note_on,0,0,2,,,,,,,,0,54,64
7500,note_on,60,0,2,,,,,,,,0,57,0
7500,note_on,60,0,1,,,,,,,,0,72,0
7560,note_on,60,0,1,,,,,,,,0,69,0
7560,note_on,0,0,1,,,,,,,,0,71,64
7560,note_on,0,0,2,,,,,,,,0,55,64
7560,note_on,60,0,2,,,,,,,,0,54,0
7590,note_on,30,0,1,,,,,,,,0,71,0
7590,note_on,0,0,1,,,,,,,,0,69,64
7620,note_on,30,0,1,,,,,,,,0,69,0
7620,note_on,0,0,2,,,,,,,,0,52,64
7620,note_on,60,0,2,,,,,,,,0,55,0
7620,note_on,0,0,1,,,,,,,,0,67,64
7680,note_on,0,0,2,,,,,,,,0,50,64
7680,note_on,60,0,2,,,,,,,,0,52,0
7680,note_on,60,0,1,,,,,,,,0,67,0
7680,note_on,0,0,1,,,,,,,,0,77,64
7740,note_on,0,0,2,,,,,,,,0,48,64
7740,note_on,60,0,2,,,,,,,,0,50,0
7800,note_on,120,0,1,,,,,,,,0,77,0
7800,note_on,0,0,2,,,,,,,,0,47,64
7800,note_on,60,0,2,,,,,,,,0,48,0
7860,note_on,0,0,2,,,,,,,,0,53,64
7860,note_on,60,0,2,,,,,,,,0,47,0
7920,note_on,0,0,2,,,,,,,,0,52,64
7920,note_on,60,0,2,,,,,,,,0,53,0
7980,note_on,60,0,2,,,,,,,,0,52,0
7980,note_on,0,0,2,,,,,,,,0,43,64
7980,note_on,180,0,1,,,,,,,,0,64,64
8040,note_on,0,0,2,,,,,,,,0,45,64
8040,note_on,0,0,1,,,,,,,,0,66,64
8040,note_on,60,0,1,,,,,,,,0,64,0
8040,note_on,60,0,2,,,,,,,,0,43,0
8100,note_on,60,0,2,,,,,,,,0,45,0
8100,note_on,0,0,2,,,,,,,,0,47,64
8100,note_on,60,0,1,,,,,,,,0,66,0
8100,note_on,0,0,1,,,,,,,,0,67,64
8160,note_on,0,0,1,,,,,,,,0,69,64
8160,note_on,60,0,2,,,,,,,,0,47,0
8160,note_on,0,0,2,,,,,,,,0,48,64
8160,note_on,60,0,1,,,,,,,,0,67,0
8220,note_on,60,0,1,,,,,,,,0,69,0
8220,note_on,0,0,1,,,,,,,,0,66,64
8280,note_on,60,0,1,,,,,,,,0,66,0
8280,note_on,0,0,1,,,,,,,,0,67,64
8340,note_on,180,0,2,,,,,,,,0,48,0
8340,note_on,0,0,2,,,,,,,,0,47,64
8340,note_on,60,0,1,,,,,,,,0,67,0
8340,note_on,0,0,1,,,,,,,,0,62,64
8400,note_on,60,0,2,,,,,,,,0,47,0
8400,note_on,0,0,2,,,,,,,,0,49,64
8400,note_on,0,0,1,,,,,,,,0,64,64
8400,note_on,60,0,1,,,,,,,,0,62,0
8460,note_on,60,0,1,,,,,,,,0,64,0
8460,note_on,0,0,1,,,,,,,,0,66,64
8460,note_on,60,0,2,,,,,,,,0,49,0
8460,note_on,0,0,2,,,,,,,,0,50,64
8520,note_on,60,0,2,,,,,,,,0,50,0
8520,note_on,0,0,2,,,,,,,,0,52,64
8520,note_on,60,0,1,,,,,,,,0,66,0
8520,note_on,0,0,1,,,,,,,,0,67,64
8580,note_on,60,0,2,,,,,,,,0,52,0
8580,note_on,0,0,2,,,,,,,,0,49,64
8640,note_on,60,0,2,,,,,,,,0,49,0
8640,note_on,0,0,2,,,,,,,,0,50,64
8700,note_on,60,0,2,,,,,,,,0,50,0
8700,note_on,0,0,2,,,,,,,,0,45,64
8700,note_on,180,0,1,,,,,,,,0,67,0
8700,note_on,0,0,1,,,,,,,,0,66,64
8760,note_on,60,0,1,,,,,,,,0,66,0
8760,note_on,0,0,1,,,,,,,,0,68,64
8760,note_on,60,0,2,,,,,,,,0,45,0
8760,note_on,0,0,2,,,,,,,,0,47,64
8820,note_on,60,0,2,,,,,,,,0,47,0
8820,note_on,0,0,2,,,,,,,,0,48,64
8820,note_on,60,0,1,,,,,,,,0,68,0
8820,note_on,0,0,1,,,,,,,,0,69,64
8880,note_on,60,0,1,,,,,,,,0,69,0
8880,note_on,60,0,2,,,,,,,,0,48,0
8880,note_on,0,0,2,,,,,,,,0,50,64
8880,note_on,0,0,1,,,,,,,,0,71,64
8940,note_on,60,0,1,,,,,,,,0,71,0
8940,note_on,0,0,1,,,,,,,,0,68,64
9000,note_on,0,0,1,,,,,,,,0,69,64
9000,note_on,60,0,1,,,,,,,,0,68,0
9060,note_on,0,0,1,,,,,,,,0,64,64
9060,note_on,60,0,1,,,,,,,,0,69,0
9060,note_on,0,0,2,,,,,,,,0,49,64
9060,note_on,180,0,2,,,,,,,,0,50,0
9120,note_on,0,0,2,,,,,,,,0,51,64
9120,note_on,60,0,2,,,,,,,,0,49,0
9120,note_on,60,0,1,,,,,,,,0,64,0
9120,note_on,0,0,1,,,,,,,,0,66,64
9180,note_on,0,0,1,,,,,,,,0,67,64
9180,note_on,60,0,2,,,,,,,,0,51,0
9180,note_on,0,0,2,,,,,,,,0,52,64
9180,note_on,60,0,1,,,,,,,,0,66,0
9240,note_on,60,0,1,,,,,,,,0,67,0
9240,note_on,0,0,1,,,,,,,,0,69,64
9240,note_on,60,0,2,,,,,,,,0,52,0
9240,note_on,0,0,2,,,,,,,,0,54,64
9300,note_on,60,0,2,,,,,,,,0,54,0
9300,note_on,0,0,2,,,,,,,,0,51,64
9360,note_on,0,0,2,,,,,,,,0,52,64
9360,note_on,60,0,2,,,,,,,,0,51,0
9420,note_on,60,0,2,,,,,,,,0,52,0
9420,note_on,0,0,2,,,,,,,,0,47,64
9420,note_on,0,0,1,,,,,,,,0,68,64
9420,note_on,180,0,1,,,,,,,,0,69,0
9480,note_on,60,0,2,,,,,,,,0,47,0
9480,note_on,0,0,2,,,,,,,,0,49,64
9480,note_on,60,0,1,,,,,,,,0,68,0
9480,note_on,0,0,1,,,,,,,,0,70,64
9540,note_on,0,0,1,,,,,,,,0,71,64
9540,note_on,60,0,1,,,,,,,,0,70,0
9540,note_on,60,0,2,,,,,,,,0,49,0
9540,note_on,0,0,2,,,,,,,,0,50,64
9600,note_on,0,0,1,,,,,,,,0,73,64
9600,note_on,60,0,1,,,,,,,,0,71,0
9600,note_on,0,0,2,,,,,,,,0,52,64
9600,note_on,60,0,2,,,,,,,,0,50,0
9660,note_on,0,0,1,,,,,,,,0,70,64
9660,note_on,60,0,1,,,,,,,,0,73,0
9720,note_on,0,0,1,,,,,,,,0,71,64
9720,note_on,60,0,1,,,,,,,,0,70,0
9780,note_on,0,0,1,,,,,,,,0,66,64
9780,note_on,60,0,1,,,,,,,,0,71,0
9780,note_on,180,0,2,,,,,,,,0,52,0
9780,note_on,0,0,2,,,,,,,,0,50,64
9840,note_on,0,0,2,,,,,,,,0,52,64
9840,note_on,60,0,2,,,,,,,,0,50,0
9840,note_on,60,0,1,,,,,,,,0,66,0
9840,note_on,0,0,1,,,,,,,,0,68,64
9900,note_on,0,0,2,,,,,,,,0,54,64
9900,note_on,60,0,2,,,,,,,,0,52,0
9900,note_on,60,0,1,,,,,,,,0,68,0
9900,note_on,0,0,1,,,,,,,,0,70,64
9960,note_on,0,0,1,,,,,,,,0,71,64
9960,note_on,60,0,1,,,,,,,,0,70,0
9960,note_on,60,0,2,,,,,,,,0,54,0
9960,note_on,0,0,2,,,,,,,,0,55,64
10020,note_on,0,0,2,,,,,,,,0,52,64
10020,note_on,60,0,2,,,,,,,,0,55,0
10080,note_on,0,0,2,,,,,,,,0,55,76
10080,note_on,60,0,2,,,,,,,,0,52,0
10100,note_on,0,0,2,,,,,,,,0,54,48
10100,note_on,20,0,2,,,,,,,,0,55,0
10120,note_on,20,0,2,,,,,,,,0,55,48
10122,note_on,2,0,2,,,,,,,,0,54,0
10140,note_on,0,0,1,,,,,,,,0,70,64
10140,note_on,180,0,1,,,,,,,,0,71,0
10140,note_on,18,0,2,,,,,,,,0,54,48
10142,note_on,2,0,2,,,,,,,,0,55,0
10160,note_on,18,0,2,,,,,,,,0,55,48
10162,note_on,2,0,2,,,,,,,,0,54,0
10180,note_on,18,0,2,,,,,,,,0,54,49
10182,note_on,2,0,2,,,,,,,,0,55,0
10200,note_on,60,0,1,,,,,,,,0,70,0
10200,note_on,18,0,2,,,,,,,,0,55,49
10200,note_on,0,0,1,,,,,,,,0,71,64
10202,note_on,2,0,2,,,,,,,,0,54,0
10220,note_on,18,0,2,,,,,,,,0,54,49
10222,note_on,2,0,2,,,,,,,,0,55,0
10240,note_on,18,0,2,,,,,,,,0,55,49
10242,note_on,2,0,2,,,,,,,,0,54,0
10260,note_on,18,0,2,,,,,,,,0,54,49
10260,note_on,60,0,1,,,,,,,,0,71,0
10260,note_on,0,0,1,,,,,,,,0,73,64
10262,note_on,2,0,2,,,,,,,,0,55,0
10280,note_on,18,0,2,,,,,,,,0,55,50
10282,note_on,2,0,2,,,,,,,,0,54,0
10300,note_on,18,0,2,,,,,,,,0,54,50
10302,note_on,2,0,2,,,,,,,,0,55,0
10320,note_on,18,0,2,,,,,,,,0,55,50
10320,note_on,60,0,1,,,,,,,,0,73,0
10320,note_on,0,0,1,,,,,,,,0,74,64
10322,note_on,2,0,2,,,,,,,,0,54,0
10340,note_on,18,0,2,,,,,,,,0,54,50
10342,note_on,2,0,2,,,,,,,,0,55,0
10360,note_on,18,0,2,,,,,,,,0,55,51
10362,note_on,2,0,2,,,,,,,,0,54,0
10380,note_on,18,0,2,,,,,,,,0,54,51
10380,note_on,60,0,1,,,,,,,,0,74,0
10380,note_on,0,0,1,,,,,,,,0,71,64
10382,note_on,2,0,2,,,,,,,,0,55,0
10400,note_on,18,0,2,,,,,,,,0,55,51
10402,note_on,2,0,2,,,,,,,,0,54,0
10420,note_on,18,0,2,,,,,,,,0,54,51
10422,note_on,2,0,2,,,,,,,,0,55,0
10440,note_on,0,0,1,,,,,,,,0,73,64
10440,note_on,18,0,2,,,,,,,,0,55,52
10440,note_on,60,0,1,,,,,,,,0,71,0
10442,note_on,2,0,2,,,,,,,,0,54,0
10460,note_on,18,0,2,,,,,,,,0,54,52
10462,note_on,2,0,2,,,,,,,,0,55,0
10480,note_on,18,0,2,,,,,,,,0,55,52
10482,note_on,2,0,2,,,,,,,,0,54,0
10500,note_on,18,0,2,,,,,,,,0,54,52
10500,note_on,0,0,1,,,,,,,,0,71,64
10500,note_on,60,0,1,,,,,,,,0,73,0
10502,note_on,2,0,2,,,,,,,,0,55,0
10520,note_on,18,0,2,,,,,,,,0,55,52
10522,note_on,2,0,2,,,,,,,,0,54,0
10540,note_on,18,0,2,,,,,,,,0,54,53
10542,note_on,2,0,2,,,,,,,,0,55,0
10560,note_on,18,0,2,,,,,,,,0,55,53
10560,note_on,0,0,1,,,,,,,,0,70,64
10560,note_on,60,0,1,,,,,,,,0,71,0
10562,note_on,2,0,2,,,,,,,,0,54,0
10580,note_on,18,0,2,,,,,,,,0,54,53
10582,note_on,2,0,2,,,,,,,,0,55,0
10600,note_on,18,0,2,,,,,,,,0,55,53
10602,note_on,2,0,2,,,,,,,,0,54,0
10620,note_on,60,0,1,,,,,,,,0,70,0
10620,note_on,0,0,1,,,,,,,,0,68,64
10620,note_on,18,0,2,,,,,,,,0,54,54
10622,note_on,2,0,2,,,,,,,,0,55,0
10640,note_on,18,0,2,,,,,,,,0,55,54
10642,note_on,2,0,2,,,,,,,,0,54,0
10660,note_on,18,0,2,,,,,,,,0,54,54
10662,note_on,2,0,2,,,,,,,,0,55,0
10680,note_on,60,0,1,,,,,,,,0,68,0
10680,note_on,0,0,1,,,,,,,,0,66,64
10680,note_on,18,0,2,,,,,,,,0,55,54
10682,note_on,2,0,2,,,,,,,,0,54,0
10700,note_on,18,0,2,,,,,,,,0,54,55
10702,note_on,2,0,2,,,,,,,,0,55,0
10720,note_on,18,0,2,,,,,,,,0,55,55
10722,note_on,2,0,2,,,,,,,,0,54,0
10740,note_on,0,0,1,,,,,,,,0,64,64
10740,note_on,18,0,2,,,,,,,,0,54,55
10740,note_on,60,0,1,,,,,,,,0,66,0
10742,note_on,2,0,2,,,,,,,,0,55,0
10760,note_on,18,0,2,,,,,,,,0,55,55
10762,note_on,2,0,2,,,,,,,,0,54,0
10780,note_on,18,0,2,,,,,,,,0,54,55
10782,note_on,2,0,2,,,,,,,,0,55,0
10800,note_on,0,0,1,,,,,,,,0,62,64
10800,note_on,60,0,1,,,,,,,,0,64,0
10800,note_on,18,0,2,,,,,,,,0,55,56
10802,note_on,2,0,2,,,,,,,,0,54,0
10820,note_on,18,0,2,,,,,,,,0,54,56
10822,note_on,2,0,2,,,,,,,,0,55,0
10840,note_on,18,0,2,,,,,,,,0,55,56
10842,note_on,2,0,2,,,,,,,,0,54,0
10860,note_on,18,0,2,,,,,,,,0,54,56
10860,note_on,0,0,1,,,,,,,,0,66,64
10860,note_on,60,0,1,,,,,,,,0,62,0
10862,note_on,2,0,2,,,,,,,,0,55,0
10880,note_on,18,0,2,,,,,,,,0,55,57
10882,note_on,2,0,2,,,,,,,,0,54,0
10900,note_on,18,0,2,,,,,,,,0,54,57
10902,note_on,2,0,2,,,,,,,,0,55,0
10920,note_on,18,0,2,,,,,,,,0,55,57
10920,note_on,0,0,1,,,,,,,,0,68,64
10920,note_on,60,0,1,,,,,,,,0,66,0
10922,note_on,2,0,2,,,,,,,,0,54,0
10940,note_on,18,0,2,,,,,,,,0,54,57
10942,note_on,2,0,2,,,,,,,,0,55,0
10960,note_on,18,0,2,,,,,,,,0,55,58
10962,note_on,2,0,2,,,,,,,,0,54,0
10980,note_on,18,0,2,,,,,,,,0,54,58
10980,note_on,60,0,1,,,,,,,,0,68,0
10980,note_on,0,0,1,,,,,,,,0,70,64
10982,note_on,2,0,2,,,,,,,,0,55,0
11000,note_on,18,0,2,,,,,,,,0,55,58
11002,note_on,2,0,2,,,,,,,,0,54,0
11020,note_on,18,0,2,,,,,,,,0,54,58
11022,note_on,2,0,2,,,,,,,,0,55,0
11040,note_on,18,0,2,,,,,,,,0,55,58
11040,note_on,60,0,1,,,,,,,,0,70,0
11040,note_on,0,0,1,,,,,,,,0,71,64
11042,note_on,2,0,2,,,,,,,,0,54,0
11060,note_on,18,0,2,,,,,,,,0,54,59
11062,note_on,2,0,2,,,,,,,,0,55,0
11080,note_on,18,0,2,,,,,,,,0,55,59
11082,note_on,2,0,2,,,,,,,,0,54,0
11100,note_on,0,0,1,,,,,,,,0,68,64
11100,note_on,18,0,2,,,,,,,,0,54,59
11100,note_on,60,0,1,,,,,,,,0,71,0
11102,note_on,2,0,2,,,,,,,,0,55,0
11120,note_on,18,0,2,,,,,,,,0,55,59
11122,note_on,2,0,2,,,,,,,,0,54,0
11140,note_on,18,0,2,,,,,,,,0,54,60
11142,note_on,2,0,2,,,,,,,,0,55,0
11160,note_on,18,0,2,,,,,,,,0,55,60
11160,note_on,60,0,1,,,,,,,,0,68,0
11160,note_on,0,0,1,,,,,,,,0,70,64
11162,note_on,2,0,2,,,,,,,,0,54,0
11180,note_on,18,0,2,,,,,,,,0,54,60
11182,note_on,2,0,2,,,,,,,,0,55,0
11200,note_on,18,0,2,,,,,,,,0,55,60
11202,note_on,2,0,2,,,,,,,,0,54,0
11220,note_on,60,0,1,,,,,,,,0,70,0
11220,note_on,18,0,2,,,,,,,,0,54,61
11220,note_on,0,0,1,,,,,,,,0,68,64
11222,note_on,2,0,2,,,,,,,,0,55,0
11240,note_on,18,0,2,,,,,,,,0,55,61
11242,note_on,2,0,2,,,,,,,,0,54,0
11260,note_on,18,0,2,,,,,,,,0,54,61
11262,note_on,2,0,2,,,,,,,,0,55,0
11280,note_on,0,0,1,,,,,,,,0,66,64
11280,note_on,18,0,2,,,,,,,,0,55,61
11280,note_on,60,0,1,,,,,,,,0,68,0
11282,note_on,2,0,2,,,,,,,,0,54,0
11300,note_on,18,0,2,,,,,,,,0,54,62
11302,note_on,2,0,2,,,,,,,,0,55,0
11320,note_on,18,0,2,,,,,,,,0,55,62
11322,note_on,2,0,2,,,,,,,,0,54,0
11340,note_on,60,0,1,,,,,,,,0,66,0
11340,note_on,0,0,1,,,,,,,,0,64,64
11340,note_on,18,0,2,,,,,,,,0,54,62
11342,note_on,2,0,2,,,,,,,,0,55,0
11360,note_on,18,0,2,,,,,,,,0,55,62
11362,note_on,2,0,2,,,,,,,,0,54,0
11380,note_on,18,0,2,,,,,,,,0,54,62
11382,note_on,2,0,2,,,,,,,,0,55,0
11400,note_on,60,0,1,,,,,,,,0,64,0
11400,note_on,0,0,1,,,,,,,,0,62,64
11400,note_on,18,0,2,,,,,,,,0,55,63
11402,note_on,2,0,2,,,,,,,,0,54,0
11420,note_on,18,0,2,,,,,,,,0,54,63
11422,note_on,2,0,2,,,,,,,,0,55,0
11440,note_on,18,0,2,,,,,,,,0,55,63
11442,note_on,2,0,2,,,,,,,,0,54,0
11460,note_on,60,0,1,,,,,,,,0,62,0
11460,note_on,0,0,1,,,,,,,,0,61,64
11460,note_on,18,0,2,,,,,,,,0,54,63
11462,note_on,2,0,2,,,,,,,,0,55,0
11510,note_on,50,0,1,,,,,,,,0,61,0
11520,note_on,10,0,1,,,,,,,,0,61,76
11526,note_on,64,0,2,,,,,,,,0,54,0
11540,note_on,0,0,1,,,,,,,,0,59,48
11540,note_on,20,0,1,,,,,,,,0,61,0
11560,note_on,20,0,1,,,,,,,,0,61,48
11562,note_on,2,0,1,,,,,,,,0,59,0
11580,note_on,54,0,2,,,,,,,,0,51,64
11580,note_on,18,0,1,,,,,,,,0,59,48
11582,note_on,2,0,1,,,,,,,,0,61,0
11600,note_on,18,0,1,,,,,,,,0,61,48
11602,note_on,2,0,1,,,,,,,,0,59,0
11620,note_on,18,0,1,,,,,,,,0,59,48
11622,note_on,2,0,1,,,,,,,,0,61,0
11640,note_on,60,0,2,,,,,,,,0,51,0
11640,note_on,0,0,2,,,,,,,,0,52,64
11640,note_on,18,0,1,,,,,,,,0,61,49
11642,note_on,2,0,1,,,,,,,,0,59,0
11660,note_on,18,0,1,,,,,,,,0,59,49
11662,note_on,2,0,1,,,,,,,,0,61,0
11680,note_on,18,0,1,,,,,,,,0,61,49
11682,note_on,2,0,1,,,,,,,,0,59,0
11700,note_on,18,0,1,,,,,,,,0,59,49
11700,note_on,0,0,2,,,,,,,,0,54,64
11700,note_on,60,0,2,,,,,,,,0,52,0
11702,note_on,2,0,1,,,,,,,,0,61,0
11720,note_on,18,0,1,,,,,,,,0,61,50
11722,note_on,2,0,1,,,,,,,,0,59,0
11740,note_on,18,0,1,,,,,,,,0,59,50
11742,note_on,2,0,1,,,,,,,,0,61,0
11760,note_on,0,0,2,,,,,,,,0,55,64
11760,note_on,60,0,2,,,,,,,,0,54,0
11760,note_on,18,0,1,,,,,,,,0,61,50
11762,note_on,2,0,1,,,,,,,,0,59,0
11780,note_on,18,0,1,,,,,,,,0,59,50
11782,note_on,2,0,1,,,,,,,,0,61,0
11800,note_on,18,0,1,,,,,,,,0,61,50
11802,note_on,2,0,1,,,,,,,,0,59,0
11820,note_on,18,0,1,,,,,,,,0,59,51
11820,note_on,0,0,2,,,,,,,,0,52,64
11820,note_on,60,0,2,,,,,,,,0,55,0
11822,note_on,2,0,1,,,,,,,,0,61,0
11840,note_on,18,0,1,,,,,,,,0,61,51
11842,note_on,2,0,1,,,,,,,,0,59,0
11860,note_on,18,0,1,,,,,,,,0,59,51
11862,note_on,2,0,1,,,,,,,,0,61,0
11880,note_on,60,0,2,,,,,,,,0,52,0
11880,note_on,0,0,2,,,,,,,,0,54,64
11880,note_on,18,0,1,,,,,,,,0,61,51
11882,note_on,2,0,1,,,,,,,,0,59,0
11900,note_on,18,0,1,,,,,,,,0,59,52
11902,note_on,2,0,1,,,,,,,,0,61,0
11920,note_on,18,0,1,,,,,,,,0,61,52
11922,note_on,2,0,1,,,,,,,,0,59,0
11940,note_on,0,0,2,,,,,,,,0,52,64
11940,note_on,60,0,2,,,,,,,,0,54,0
11940,note_on,18,0,1,,,,,,,,0,59,52
11942,note_on,2,0,1,,,,,,,,0,61,0
11960,note_on,18,0,1,,,,,,,,0,61,52
11962,note_on,2,0,1,,,,,,,,0,59,0
11980,note_on,18,0,1,,,,,,,,0,59,52
11982,note_on,2,0,1,,,,,,,,0,61,0
12000,note_on,18,0,1,,,,,,,,0,61,53
12000,note_on,0,0,2,,,,,,,,0,51,64
12000,note_on,60,0,2,,,,,,,,0,52,0
12002,note_on,2,0,1,,,,,,,,0,59,0
12020,note_on,18,0,1,,,,,,,,0,59,53
12022,note_on,2,0,1,,,,,,,,0,61,0
12040,note_on,18,0,1,,,,,,,,0,61,53
12042,note_on,2,0,1,,,,,,,,0,59,0
12060,note_on,60,0,2,,,,,,,,0,51,0
12060,note_on,18,0,1,,,,,,,,0,59,53
12060,note_on,0,0,2,,,,,,,,0,49,64
12062,note_on,2,0,1,,,,,,,,0,61,0
12080,note_on,18,0,1,,,,,,,,0,61,53
12082,note_on,2,0,1,,,,,,,,0,59,0
12100,note_on,18,0,1,,,,,,,,0,59,54
12102,note_on,2,0,1,,,,,,,,0,61,0
12120,note_on,18,0,1,,,,,,,,0,61,54
12120,note_on,0,0,2,,,,,,,,0,47,64
12120,note_on,60,0,2,,,,,,,,0,49,0
12122,note_on,2,0,1,,,,,,,,0,59,0
12140,note_on,18,0,1,,,,,,,,0,59,54
12142,note_on,2,0,1,,,,,,,,0,61,0
12160,note_on,18,0,1,,,,,,,,0,61,54
12162,note_on,2,0,1,,,,,,,,0,59,0
12180,note_on,18,0,1,,,,,,,,0,59,55
12180,note_on,0,0,2,,,,,,,,0,45,64
12180,note_on,60,0,2,,,,,,,,0,47,0
12182,note_on,2,0,1,,,,,,,,0,61,0
12200,note_on,18,0,1,,,,,,,,0,61,55
12202,note_on,2,0,1,,,,,,,,0,59,0
12220,note_on,18,0,1,,,,,,,,0,59,55
12222,note_on,2,0,1,,,,,,,,0,61,0
12240,note_on,18,0,1,,,,,,,,0,61,55
12240,note_on,0,0,2,,,,,,,,0,43,64
12240,note_on,60,0,2,,,,,,,,0,45,0
12242,note_on,2,0,1,,,,,,,,0,59,0
12260,note_on,18,0,1,,,,,,,,0,59,55
12262,note_on,2,0,1,,,,,,,,0,61,0
12280,note_on,18,0,1,,,,,,,,0,61,56
12282,note_on,2,0,1,,,,,,,,0,59,0
12300,note_on,18,0,1,,,,,,,,0,59,56
12300,note_on,0,0,2,,,,,,,,0,47,64
12300,note_on,60,0,2,,,,,,,,0,43,0
12302,note_on,2,0,1,,,,,,,,0,61,0
12320,note_on,18,0,1,,,,,,,,0,61,56
12322,note_on,2,0,1,,,,,,,,0,59,0
12340,note_on,18,0,1,,,,,,,,0,59,56
12342,note_on,2,0,1,,,,,,,,0,61,0
12360,note_on,18,0,1,,,,,,,,0,61,57
12360,note_on,0,0,2,,,,,,,,0,49,64
12360,note_on,60,0,2,,,,,,,,0,47,0
12362,note_on,2,0,1,,,,,,,,0,59,0
12380,note_on,18,0,1,,,,,,,,0,59,57
12382,note_on,2,0,1,,,,,,,,0,61,0
12400,note_on,18,0,1,,,,,,,,0,61,57
12402,note_on,2,0,1,,,,,,,,0,59,0
12420,note_on,18,0,1,,,,,,,,0,59,57
12420,note_on,60,0,2,,,,,,,,0,49,0
12420,note_on,0,0,2,,,,,,,,0,51,64
12422,note_on,2,0,1,,,,,,,,0,61,0
12440,note_on,18,0,1,,,,,,,,0,61,57
12442,note_on,2,0,1,,,,,,,,0,59,0
12460,note_on,18,0,1,,,,,,,,0,59,58
12462,note_on,2,0,1,,,,,,,,0,61,0
12480,note_on,0,0,2,,,,,,,,0,52,64
12480,note_on,60,0,2,,,,,,,,0,51,0
12480,note_on,18,0,1,,,,,,,,0,61,58
12482,note_on,2,0,1,,,,,,,,0,59,0
12500,note_on,18,0,1,,,,,,,,0,59,58
12502,note_on,2,0,1,,,,,,,,0,61,0
12520,note_on,18,0,1,,,,,,,,0,61,58
12522,note_on,2,0,1,,,,,,,,0,59,0
12540,note_on,0,0,2,,,,,,,,0,49,64
12540,note_on,18,0,1,,,,,,,,0,59,59
12540,note_on,60,0,2,,,,,,,,0,52,0
12542,note_on,2,0,1,,,,,,,,0,61,0
12560,note_on,18,0,1,,,,,,,,0,61,59
12562,note_on,2,0,1,,,,,,,,0,59,0
12580,note_on,18,0,1,,,,,,,,0,59,59
12582,note_on,2,0,1,,,,,,,,0,61,0
12600,note_on,18,0,1,,,,,,,,0,61,59
12600,note_on,60,0,2,,,,,,,,0,49,0
12600,note_on,0,0,2,,,,,,,,0,51,64
12602,note_on,2,0,1,,,,,,,,0,59,0
12620,note_on,18,0,1,,,,,,,,0,59,59
12622,note_on,2,0,1,,,,,,,,0,61,0
12640,note_on,18,0,1,,,,,,,,0,61,60
12642,note_on,2,0,1,,,,,,,,0,59,0
12660,note_on,60,0,2,,,,,,,,0,51,0
12660,note_on,18,0,1,,,,,,,,0,59,60
12660,note_on,0,0,2,,,,,,,,0,49,64
12662,note_on,2,0,1,,,,,,,,0,61,0
12680,note_on,18,0,1,,,,,,,,0,61,60
12682,note_on,2,0,1,,,,,,,,0,59,0
12700,note_on,18,0,1,,,,,,,,0,59,60
12702,note_on,2,0,1,,,,,,,,0,61,0
12720,note_on,18,0,1,,,,,,,,0,61,60
12720,note_on,0,0,2,,,,,,,,0,47,64
12720,note_on,60,0,2,,,,,,,,0,49,0
12722,note_on,2,0,1,,,,,,,,0,59,0
12740,note_on,18,0,1,,,,,,,,0,59,61
12742,note_on,2,0,1,,,,,,,,0,61,0
12760,note_on,18,0,1,,,,,,,,0,61,61
12762,note_on,2,0,1,,,,,,,,0,59,0
12780,note_on,18,0,1,,,,,,,,0,59,61
12780,note_on,60,0,2,,,,,,,,0,47,0
12780,note_on,0,0,2,,,,,,,,0,45,64
12782,note_on,2,0,1,,,,,,,,0,61,0
12800,note_on,18,0,1,,,,,,,,0,61,61
12802,note_on,2,0,1,,,,,,,,0,59,0
12820,note_on,18,0,1,,,,,,,,0,59,62
12822,note_on,2,0,1,,,,,,,,0,61,0
12840,note_on,60,0,2,,,,,,,,0,45,0
12840,note_on,18,0,1,,,,,,,,0,61,62
12840,note_on,0,0,2,,,,,,,,0,43,64
12842,note_on,2,0,1,,,,,,,,0,59,0
12860,note_on,18,0,1,,,,,,,,0,59,62
12862,note_on,2,0,1,,,,,,,,0,61,0
12880,note_on,18,0,1,,,,,,,,0,61,62
12882,note_on,2,0,1,,,,,,,,0,59,0
12900,note_on,0,0,2,,,,,,,,0,42,64
12900,note_on,18,0,1,,,,,,,,0,59,62
12900,note_on,60,0,2,,,,,,,,0,43,0
12902,note_on,2,0,1,,,,,,,,0,61,0
12920,note_on,18,0,1,,,,,,,,0,61,63
12922,note_on,2,0,1,,,,,,,,0,59,0
12940,note_on,18,0,1,,,,,,,,0,59,63
12942,note_on,2,0,1,,,,,,,,0,61,0
12960,note_on,60,0,2,,,,,,,,0,42,0
12960,note_on,18,0,1,,,,,,,,0,61,63
12960,note_on,0,0,2,,,,,,,,0,40,64
12962,note_on,2,0,1,,,,,,,,0,59,0
12980,note_on,18,0,1,,,,,,,,0,59,63
12982,note_on,2,0,1,,,,,,,,0,61,0
13020,note_on,60,0,2,,,,,,,,0,40,0
13020,note_on,0,0,2,,,,,,,,0,50,64
13068,note_on,86,0,1,,,,,,,,0,59,0
13080,note_on,12,0,1,,,,,,,,0,64,64
13080,note_on,0,0,2,,,,,,,,0,49,64
13080,note_on,60,0,2,,,,,,,,0,50,0
13095,note_on,0,0,1,,,,,,,,0,62,64
13095,note_on,15,0,1,,,,,,,,0,64,0
13110,note_on,15,0,1,,,,,,,,0,62,0
13110,note_on,0,0,1,,,,,,,,0,64,64
13140,note_on,0,0,2,,,,,,,,0,47,64
13140,note_on,60,0,2,,,,,,,,0,49,0
13200,note_on,0,0,2,,,,,,,,0,46,64
13200,note_on,60,0,2,,,,,,,,0,47,0
13260,note_on,0,0,2,,,,,,,,0,49,64
13260,note_on,60,0,2,,,,,,,,0,46,0
13320,note_on,0,0,2,,,,,,,,0,42,64
13320,note_on,60,0,2,,,,,,,,0,49,0
13380,note_on,0,0,1,,,,,,,,0,66,64
13380,note_on,270,0,1,,,,,,,,0,64,0
13440,note_on,0,0,2,,,,,,,,0,55,72
13440,note_on,0,0,1,,,,,,,,0,64,64
13440,note_on,120,0,2,,,,,,,,0,42,0
13440,note_on,60,0,1,,,,,,,,0,66,0
13460,note_on,0,0,2,,,,,,,,0,54,64
13460,note_on,20,0,2,,,,,,,,0,55,0
13480,note_on,20,0,2,,,,,,,,0,54,0
13480,note_on,0,0,2,,,,,,,,0,55,64
13500,note_on,60,0,1,,,,,,,,0,64,0
13500,note_on,0,0,1,,,,,,,,0,62,64
13560,note_on,60,0,1,,,,,,,,0,62,0
13560,note_on,0,0,1,,,,,,,,0,61,64
13620,note_on,0,0,1,,,,,,,,0,64,64
13620,note_on,60,0,1,,,,,,,,0,61,0
13680,note_on,0,0,1,,,,,,,,0,58,64
13680,note_on,60,0,1,,,,,,,,0,64,0
13740,note_on,260,0,2,,,,,,,,0,55,0
13740,note_on,0,0,2,,,,,,,,0,54,64
13800,note_on,0,0,1,,,,,,,,0,73,64
13800,note_on,120,0,1,,,,,,,,0,58,0
13800,note_on,0,0,2,,,,,,,,0,52,64
13800,note_on,60,0,2,,,,,,,,0,54,0
13820,note_on,0,0,1,,,,,,,,0,71,64
13820,note_on,20,0,1,,,,,,,,0,73,0
13840,note_on,0,0,1,,,,,,,,0,73,64
13840,note_on,20,0,1,,,,,,,,0,71,0
13860,note_on,0,0,2,,,,,,,,0,50,64
13860,note_on,60,0,2,,,,,,,,0,52,0
13920,note_on,0,0,2,,,,,,,,0,49,64
13920,note_on,60,0,2,,,,,,,,0,50,0
13980,note_on,60,0,2,,,,,,,,0,49,0
13980,note_on,0,0,2,,,,,,,,0,52,64
14040,note_on,60,0,2,,,,,,,,0,52,0
14040,note_on,200,0,1,,,,,,,,0,46,64
14040,note_on,0,0,2,,,,,,,,0,46,64
14100,note_on,60,0,1,,,,,,,,0,73,0
14100,note_on,60,0,2,,,,,,,,0,74,64
14100,note_on,0,0,1,,,,,,,,0,74,64
14160,note_on,0,0,2,,,,,,,,0,73,64
14160,note_on,60,0,1,,,,,,,,0,74,0
14160,note_on,0,0,1,,,,,,,,0,64,64
14160,note_on,0,0,1,,,,,,,,0,73,64
14160,note_on,0,0,2,,,,,,,,0,64,64
14160,note_on,0,0,2,,,,,,,,0,46,0
14160,note_on,60,0,2,,,,,,,,0,74,0
14160,note_on,0,0,1,,,,,,,,0,46,0
14220,note_on,60,0,1,,,,,,,,0,73,0
14220,note_on,0,0,1,,,,,,,,0,71,64
14220,note_on,0,0,2,,,,,,,,0,71,64
14220,note_on,60,0,2,,,,,,,,0,73,0
14280,note_on,0,0,2,,,,,,,,0,70,64
14280,note_on,0,0,1,,,,,,,,0,70,64
14280,note_on,60,0,1,,,,,,,,0,71,0
14280,note_on,60,0,2,,,,,,,,0,71,0
14340,note_on,0,0,1,,,,,,,,0,73,64
14340,note_on,60,0,2,,,,,,,,0,70,0
14340,note_on,60,0,1,,,,,,,,0,70,0
14340,note_on,0,0,2,,,,,,,,0,73,64
14400,note_on,0,0,1,,,,,,,,0,66,64
14400,note_on,0,0,2,,,,,,,,0,66,64
14400,note_on,60,0,2,,,,,,,,0,73,0
14400,note_on,60,0,1,,,,,,,,0,73,0
14460,note_on,60,0,2,,,,,,,,0,64,0
14460,note_on,60,0,1,,,,,,,,0,64,0
14460,note_on,0,0,1,,,,,,,,0,62,64
14460,note_on,0,0,2,,,,,,,,0,62,64
14520,note_on,0,0,1,,,,,,,,0,66,0
14520,note_on,0,0,1,,,,,,,,0,79,64
14520,note_on,0,0,1,,,,,,,,0,61,64
14520,note_on,60,0,2,,,,,,,,0,62,0
14520,note_on,0,0,2,,,,,,,,0,66,0
14520,note_on,0,0,2,,,,,,,,0,79,64
14520,note_on,0,0,2,,,,,,,,0,61,64
14520,note_on,60,0,1,,,,,,,,0,62,0
14540,note_on,20,0,1,,,,,,,,0,79,0
14540,note_on,0,0,1,,,,,,,,0,78,64
14540,note_on,0,0,2,,,,,,,,0,78,64
14540,note_on,20,0,2,,,,,,,,0,79,0
14560,note_on,0,0,2,,,,,,,,0,79,64
14560,note_on,20,0,1,,,,,,,,0,78,0
14560,note_on,0,0,1,,,,,,,,0,79,64
14560,note_on,20,0,2,,,,,,,,0,78,0
14580,note_on,20,0,2,,,,,,,,0,61,0
14580,note_on,0,0,2,,,,,,,,0,59,64
14580,note_on,20,0,1,,,,,,,,0,61,0
14580,note_on,0,0,1,,,,,,,,0,59,64
14640,note_on,60,0,1,,,,,,,,0,59,0
14640,note_on,60,0,2,,,,,,,,0,59,0
14640,note_on,0,0,2,,,,,,,,0,58,64
14640,note_on,0,0,1,,,,,,,,0,58,64
14700,note_on,60,0,2,,,,,,,,0,58,0
14700,note_on,60,0,1,,,,,,,,0,58,0
14700,note_on,0,0,2,,,,,,,,0,61,64
14700,note_on,0,0,1,,,,,,,,0,61,64
14760,note_on,60,0,1,,,,,,,,0,61,0
14760,note_on,0,0,2,,,,,,,,0,54,64
14760,note_on,0,0,1,,,,,,,,0,54,64
14760,note_on,60,0,2,,,,,,,,0,61,0
14820,note_on,0,0,1,,,,,,,,0,78,64
14820,note_on,0,0,2,,,,,,,,0,78,64
14820,note_on,60,0,1,,,,,,,,0,79,0
14820,note_on,60,0,2,,,,,,,,0,79,0
14880,note_on,0,0,1,,,,,,,,0,54,0
14880,note_on,0,0,1,,,,,,,,0,56,64
14880,note_on,0,0,2,,,,,,,,0,54,0
14880,note_on,60,0,2,,,,,,,,0,78,0
14880,note_on,0,0,1,,,,,,,,0,76,64
14880,note_on,0,0,2,,,,,,,,0,76,64
14880,note_on,0,0,2,,,,,,,,0,56,64
14880,note_on,60,0,1,,,,,,,,0,78,0
14940,note_on,60,0,2,,,,,,,,0,76,0
14940,note_on,60,0,1,,,,,,,,0,76,0
14940,note_on,0,0,2,,,,,,,,0,74,64
14940,note_on,0,0,1,,,,,,,,0,74,64
15000,note_on,60,0,1,,,,,,,,0,74,0
15000,note_on,0,0,1,,,,,,,,0,56,0
15000,note_on,0,0,1,,,,,,,,0,58,64
15000,note_on,0,0,1,,,,,,,,0,73,64
15000,note_on,60,0,2,,,,,,,,0,74,0
15000,note_on,0,0,2,,,,,,,,0,73,64
15000,note_on,0,0,2,,,,,,,,0,58,64
15000,note_on,0,0,2,,,,,,,,0,56,0
15060,note_on,60,0,1,,,,,,,,0,73,0
15060,note_on,0,0,1,,,,,,,,0,76,64
15060,note_on,0,0,2,,,,,,,,0,76,64
15060,note_on,60,0,2,,,,,,,,0,73,0
15120,note_on,0,0,1,,,,,,,,0,59,64
15120,note_on,0,0,2,,,,,,,,0,59,64
15120,note_on,60,0,2,,,,,,,,0,76,0
15120,note_on,0,0,1,,,,,,,,0,76,64
15120,note_on,0,0,1,,,,,,,,0,58,0
15120,note_on,60,0,1,,,,,,,,0,76,0
15120,note_on,0,0,2,,,,,,,,0,76,64
15120,note_on,0,0,2,,,,,,,,0,58,0
15140,note_on,0,0,1,,,,,,,,0,74,64
15140,note_on,20,0,1,,,,,,,,0,76,0
15140,note_on,20,0,2,,,,,,,,0,76,0
15140,note_on,0,0,2,,,,,,,,0,74,64
15160,note_on,0,0,2,,,,,,,,0,73,64
15160,note_on,0,0,1,,,,,,,,0,73,64
15160,note_on,20,0,1,,,,,,,,0,74,0
15160,note_on,20,0,2,,,,,,,,0,74,0
15180,note_on,0,0,1,,,,,,,,0,58,64
15180,note_on,20,0,2,,,,,,,,0,73,0
15180,note_on,0,0,2,,,,,,,,0,59,0
15180,note_on,0,0,2,,,,,,,,0,74,64
15180,note_on,0,0,1,,,,,,,,0,74,64
15180,note_on,0,0,1,,,,,,,,0,59,0
15180,note_on,20,0,1,,,,,,,,0,73,0
15180,note_on,0,0,2,,,,,,,,0,58,64
15200,note_on,0,0,2,,,,,,,,0,76,64
15200,note_on,20,0,2,,,,,,,,0,74,0
15200,note_on,0,0,1,,,,,,,,0,76,64
15200,note_on,20,0,1,,,,,,,,0,74,0
15220,note_on,0,0,2,,,,,,,,0,74,64
15220,note_on,20,0,2,,,,,,,,0,76,0
15220,note_on,0,0,1,,,,,,,,0,74,64
15220,note_on,20,0,1,,,,,,,,0,76,0
15240,note_on,0,0,2,,,,,,,,0,59,64
15240,note_on,0,0,1,,,,,,,,0,58,0
15240,note_on,0,0,2,,,,,,,,0,58,0
15240,note_on,20,0,2,,,,,,,,0,74,0
15240,note_on,0,0,1,,,,,,,,0,59,64
15240,note_on,0,0,1,,,,,,,,0,76,64
15240,note_on,0,0,2,,,,,,,,0,76,64
15240,note_on,20,0,1,,,,,,,,0,74,0
15260,note_on,20,0,2,,,,,,,,0,76,0
15260,note_on,0,0,2,,,,,,,,0,74,64
15260,note_on,0,0,1,,,,,,,,0,74,64
15260,note_on,20,0,1,,,,,,,,0,76,0
15300,note_on,40,0,2,,,,,,,,0,59,0
15300,note_on,0,0,2,,,,,,,,0,61,64
15300,note_on,0,0,1,,,,,,,,0,61,64
15300,note_on,40,0,1,,,,,,,,0,59,0
15360,note_on,60,0,1,,,,,,,,0,61,0
15360,note_on,60,0,2,,,,,,,,0,61,0
15360,note_on,0,0,1,,,,,,,,0,62,64
15360,note_on,0,0,2,,,,,,,,0,62,64
15420,note_on,60,0,1,,,,,,,,0,62,0
15420,note_on,60,0,2,,,,,,,,0,62,0
15420,note_on,0,0,1,,,,,,,,0,59,64
15420,note_on,0,0,2,,,,,,,,0,59,64
15480,note_on,0,0,2,,,,,,,,0,53,64
15480,note_on,0,0,1,,,,,,,,0,53,64
15480,note_on,60,0,2,,,,,,,,0,59,0
15480,note_on,60,0,1,,,,,,,,0,59,0
15540,note_on,0,0,1,,,,,,,,0,54,64
15540,note_on,0,0,1,,,,,,,,0,74,0
15540,note_on,0,0,1,,,,,,,,0,73,64
15540,note_on,60,0,2,,,,,,,,0,53,0
15540,note_on,0,0,2,,,,,,,,0,73,64
15540,note_on,0,0,2,,,,,,,,0,54,64
15540,note_on,60,0,1,,,,,,,,0,53,0
15540,note_on,0,0,2,,,,,,,,0,74,0
15600,note_on,60,0,1,,,,,,,,0,54,0
15600,note_on,0,0,1,,,,,,,,0,73,0
15600,note_on,0,0,1,,,,,,,,0,71,64
15600,note_on,0,0,1,,,,,,,,0,56,64
15600,note_on,0,0,2,,,,,,,,0,71,64
15600,note_on,60,0,2,,,,,,,,0,54,0
15600,note_on,0,0,2,,,,,,,,0,56,64
15600,note_on,0,0,2,,,,,,,,0,73,0
15660,note_on,60,0,2,,,,,,,,0,56,0
15660,note_on,0,0,2,,,,,,,,0,69,64
15660,note_on,0,0,2,,,,,,,,0,57,64
15660,note_on,60,0,1,,,,,,,,0,56,0
15660,note_on,0,0,1,,,,,,,,0,69,64
15660,note_on,0,0,1,,,,,,,,0,71,0
15660,note_on,0,0,1,,,,,,,,0,57,64
15660,note_on,0,0,2,,,,,,,,0,71,0
15720,note_on,60,0,1,,,,,,,,0,57,0
15720,note_on,0,0,1,,,,,,,,0,69,0
15720,note_on,0,0,1,,,,,,,,0,68,64
15720,note_on,0,0,1,,,,,,,,0,59,64
15720,note_on,0,0,2,,,,,,,,0,59,64
15720,note_on,60,0,2,,,,,,,,0,57,0
15720,note_on,0,0,2,,,,,,,,0,69,0
15720,note_on,0,0,2,,,,,,,,0,68,64
15780,note_on,0,0,2,,,,,,,,0,68,0
15780,note_on,0,0,2,,,,,,,,0,71,64
15780,note_on,0,0,2,,,,,,,,0,56,64
15780,note_on,0,0,1,,,,,,,,0,56,64
15780,note_on,0,0,1,,,,,,,,0,71,64
15780,note_on,0,0,1,,,,,,,,0,68,0
15780,note_on,60,0,1,,,,,,,,0,59,0
15780,note_on,60,0,2,,,,,,,,0,59,0
15840,note_on,0,0,2,,,,,,,,0,71,0
15840,note_on,0,0,2,,,,,,,,0,49,64
15840,note_on,0,0,2,,,,,,,,0,65,64
15840,note_on,60,0,2,,,,,,,,0,56,0
15840,note_on,0,0,1,,,,,,,,0,49,64
15840,note_on,0,0,1,,,,,,,,0,65,64
15840,note_on,0,0,1,,,,,,,,0,71,0
15840,note_on,60,0,1,,,,,,,,0,56,0
15900,note_on,0,0,1,,,,,,,,0,74,64
15900,note_on,60,0,1,,,,,,,,0,65,0
15900,note_on,60,0,2,,,,,,,,0,65,0
15900,note_on,0,0,2,,,,,,,,0,74,64
15960,note_on,0,0,2,,,,,,,,0,53,64
15960,note_on,0,0,2,,,,,,,,0,49,0
15960,note_on,0,0,2,,,,,,,,0,73,64
15960,note_on,60,0,1,,,,,,,,0,74,0
15960,note_on,0,0,1,,,,,,,,0,49,0
15960,note_on,0,0,1,,,,,,,,0,73,64
15960,note_on,0,0,1,,,,,,,,0,53,64
15960,note_on,60,0,2,,,,,,,,0,74,0
16020,note_on,60,0,1,,,,,,,,0,73,0
16020,note_on,0,0,1,,,,,,,,0,71,64
16020,note_on,0,0,2,,,,,,,,0,71,64
16020,note_on,60,0,2,,,,,,,,0,73,0
16080,note_on,0,0,1,,,,,,,,0,70,64
16080,note_on,0,0,2,,,,,,,,0,70,64
16080,note_on,0,0,2,,,,,,,,0,54,64
16080,note_on,0,0,2,,,,,,,,0,53,0
16080,note_on,60,0,2,,,,,,,,0,71,0
16080,note_on,60,0,1,,,,,,,,0,71,0
16080,note_on,0,0,1,,,,,,,,0,53,0
16080,note_on,0,0,1,,,,,,,,0,54,64
16140,note_on,0,0,2,,,,,,,,0,73,64
16140,note_on,60,0,2,,,,,,,,0,70,0
16140,note_on,0,0,1,,,,,,,,0,73,64
16140,note_on,60,0,1,,,,,,,,0,70,0
16200,note_on,0,0,1,,,,,,,,0,55,64
16200,note_on,0,0,2,,,,,,,,0,54,0
16200,note_on,60,0,1,,,,,,,,0,73,0
16200,note_on,0,0,1,,,,,,,,0,54,0
16200,note_on,0,0,2,,,,,,,,0,55,64
16200,note_on,60,0,2,,,,,,,,0,73,0
16200,note_on,0,0,2,,,,,,,,0,76,64
16200,note_on,0,0,1,,,,,,,,0,76,64
16260,note_on,60,0,2,,,,,,,,0,76,0
16260,note_on,0,0,2,,,,,,,,0,79,64
16260,note_on,60,0,1,,,,,,,,0,76,0
16260,note_on,0,0,1,,,,,,,,0,79,64
16320,note_on,0,0,2,,,,,,,,0,46,64
16320,note_on,0,0,2,,,,,,,,0,55,0
16320,note_on,0,0,2,,,,,,,,0,78,64
16320,note_on,0,0,1,,,,,,,,0,46,64
16320,note_on,0,0,1,,,,,,,,0,78,64
16320,note_on,0,0,1,,,,,,,,0,55,0
16320,note_on,60,0,1,,,,,,,,0,79,0
16320,note_on,60,0,2,,,,,,,,0,79,0
16380,note_on,0,0,1,,,,,,,,0,76,64
16380,note_on,60,0,1,,,,,,,,0,78,0
16380,note_on,60,0,2,,,,,,,,0,78,0
16380,note_on,0,0,2,,,,,,,,0,76,64
16440,note_on,0,0,2,,,,,,,,0,46,0
16440,note_on,0,0,1,,,,,,,,0,74,64
16440,note_on,0,0,1,,,,,,,,0,47,64
16440,note_on,60,0,2,,,,,,,,0,76,0
16440,note_on,60,0,1,,,,,,,,0,76,0
16440,note_on,0,0,1,,,,,,,,0,46,0
16440,note_on,0,0,2,,,,,,,,0,47,64
16440,note_on,0,0,2,,,,,,,,0,74,64
16500,note_on,60,0,1,,,,,,,,0,74,0
16500,note_on,0,0,1,,,,,,,,0,78,64
16500,note_on,0,0,2,,,,,,,,0,78,64
16500,note_on,60,0,2,,,,,,,,0,74,0
16560,note_on,0,0,1,,,,,,,,0,43,64
16560,note_on,0,0,1,,,,,,,,0,71,64
16560,note_on,0,0,1,,,,,,,,0,47,0
16560,note_on,60,0,1,,,,,,,,0,78,0
16560,note_on,60,0,2,,,,,,,,0,78,0
16560,note_on,0,0,2,,,,,,,,0,47,0
16560,note_on,0,0,2,,,,,,,,0,43,64
16560,note_on,0,0,2,,,,,,,,0,71,64
16680,note_on,0,0,2,,,,,,,,0,40,64
16680,note_on,0,0,2,,,,,,,,0,73,64
16680,note_on,0,0,2,,,,,,,,0,71,0
16680,note_on,120,0,2,,,,,,,,0,43,0
16680,note_on,120,0,1,,,,,,,,0,43,0
16680,note_on,0,0,1,,,,,,,,0,71,0
16680,note_on,0,0,1,,,,,,,,0,73,64
16680,note_on,0,0,1,,,,,,,,0,40,64
16800,note_on,0,0,2,,,,,,,,0,42,64
16800,note_on,120,0,1,,,,,,,,0,40,0
16800,note_on,0,0,1,,,,,,,,0,73,0
16800,note_on,0,0,2,,,,,,,,0,71,64
16800,note_on,0,0,1,,,,,,,,0,42,64
16800,note_on,0,0,1,,,,,,,,0,71,64
16800,note_on,0,0,2,,,,,,,,0,73,0
16800,note_on,120,0,2,,,,,,,,0,40,0
16820,note_on,20,0,2,,,,,,,,0,71,0
16820,note_on,0,0,1,,,,,,,,0,70,64
16820,note_on,20,0,1,,,,,,,,0,71,0
16820,note_on,0,0,2,,,,,,,,0,70,64
16840,note_on,0,0,1,,,,,,,,0,68,64
16840,note_on,20,0,1,,,,,,,,0,70,0
16840,note_on,0,0,2,,,,,,,,0,68,64
16840,note_on,20,0,2,,,,,,,,0,70,0
16860,note_on,0,0,1,,,,,,,,0,70,64
16860,note_on,20,0,2,,,,,,,,0,68,0
16860,note_on,0,0,2,,,,,,,,0,70,64
16860,note_on,20,0,1,,,,,,,,0,68,0
16920,note_on,0,0,2,,,,,,,,0,47,64
16920,note_on,0,0,2,,,,,,,,0,71,64
16920,note_on,60,0,2,,,,,,,,0,70,0
16920,note_on,0,0,2,,,,,,,,0,42,0
16920,note_on,0,0,1,,,,,,,,0,42,0
16920,note_on,0,0,1,,,,,,,,0,71,64
16920,note_on,0,0,1,,,,,,,,0,47,64
16920,note_on,60,0,1,,,,,,,,0,70,0
16980,note_on,60,0,1,,,,,,,,0,47,0
16980,note_on,0,0,1,,,,,,,,0,49,64
16980,note_on,60,0,2,,,,,,,,0,47,0
16980,note_on,0,0,2,,,,,,,,0,49,64
17040,note_on,60,0,2,,,,,,,,0,49,0
17040,note_on,0,0,2,,,,,,,,0,51,64
17040,note_on,0,0,1,,,,,,,,0,51,64
17040,note_on,60,0,1,,,,,,,,0,49,0
17100,note_on,0,0,1,,,,,,,,0,52,64
17100,note_on,60,0,1,,,,,,,,0,51,0
17100,note_on,60,0,2,,,,,,,,0,51,0
17100,note_on,0,0,2,,,,,,,,0,52,64
17160,note_on,0,0,2,,,,,,,,0,54,64
17160,note_on,60,0,1,,,,,,,,0,52,0
17160,note_on,60,0,2,,,,,,,,0,52,0
17160,note_on,0,0,1,,,,,,,,0,54,64
17220,note_on,60,0,2,,,,,,,,0,54,0
17220,note_on,0,0,1,,,,,,,,0,51,64
17220,note_on,60,0,1,,,,,,,,0,54,0
17220,note_on,0,0,2,,,,,,,,0,51,64
17280,note_on,60,0,2,,,,,,,,0,51,0
17280,note_on,0,0,2,,,,,,,,0,71,0
17280,note_on,0,0,2,,,,,,,,0,52,64
17280,note_on,60,0,1,,,,,,,,0,51,0
17280,note_on,0,0,1,,,,,,,,0,71,0
17280,note_on,0,0,1,,,,,,,,0,52,64
17340,note_on,60,0,2,,,,,,,,0,67,64
17340,note_on,60,0,1,,,,,,,,0,67,64
17400,note_on,60,0,2,,,,,,,,0,67,0
17400,note_on,0,0,2,,,,,,,,0,52,0
17400,note_on,0,0,1,,,,,,,,0,40,64
17400,note_on,0,0,2,,,,,,,,0,40,64
17400,note_on,0,0,2,,,,,,,,0,69,64
17400,note_on,0,0,1,,,,,,,,0,69,64
17400,note_on,60,0,1,,,,,,,,0,67,0
17400,note_on,0,0,1,,,,,,,,0,52,0
17460,note_on,60,0,1,,,,,,,,0,69,0
17460,note_on,0,0,2,,,,,,,,0,71,64
17460,note_on,0,0,1,,,,,,,,0,71,64
17460,note_on,60,0,2,,,,,,,,0,69,0
17520,note_on,0,0,2,,,,,,,,0,72,64
17520,note_on,0,0,1,,,,,,,,0,72,64
17520,note_on,0,0,1,,,,,,,,0,40,0
17520,note_on,60,0,2,,,,,,,,0,71,0
17520,note_on,60,0,1,,,,,,,,0,71,0
17520,note_on,0,0,2,,,,,,,,0,40,0
17580,note_on,0,0,1,,,,,,,,0,69,64
17580,note_on,60,0,1,,,,,,,,0,72,0
17580,note_on,0,0,2,,,,,,,,0,69,64
17580,note_on,60,0,2,,,,,,,,0,72,0
17640,note_on,0,0,1,,,,,,,,0,71,64
17640,note_on,60,0,2,,,,,,,,0,69,0
17640,note_on,0,0,2,,,,,,,,0,71,64
17640,note_on,60,0,1,,,,,,,,0,69,0
17700,note_on,60,0,1,,,,,,,,0,71,0
17700,note_on,0,0,2,,,,,,,,0,67,64
17700,note_on,60,0,2,,,,,,,,0,71,0
17700,note_on,0,0,1,,,,,,,,0,67,64
17760,note_on,0,0,1,,,,,,,,0,66,64
17760,note_on,0,0,2,,,,,,,,0,66,64
17760,note_on,60,0,1,,,,,,,,0,67,0
17760,note_on,60,0,2,,,,,,,,0,67,0
17820,note_on,0,0,1,,,,,,,,0,64,64
17820,note_on,0,0,2,,,,,,,,0,64,64
17820,note_on,60,0,1,,,,,,,,0,66,0
17820,note_on,60,0,2,,,,,,,,0,66,0
17880,note_on,0,0,2,,,,,,,,0,63,64
17880,note_on,60,0,2,,,,,,,,0,64,0
17880,note_on,60,0,1,,,,,,,,0,64,0
17880,note_on,0,0,1,,,,,,,,0,63,64
17940,note_on,60,0,2,,,,,,,,0,63,0
17940,note_on,0,0,2,,,,,,,,0,69,64
17940,note_on,60,0,1,,,,,,,,0,63,0
17940,note_on,0,0,1,,,,,,,,0,69,64
18000,note_on,0,0,2,,,,,,,,0,67,64
18000,note_on,60,0,2,,,,,,,,0,69,0
18000,note_on,0,0,1,,,,,,,,0,67,64
18000,note_on,60,0,1,,,,,,,,0,69,0
18030,note_on,0,0,2,,,,,,,,0,66,64
18030,note_on,30,0,2,,,,,,,,0,67,0
18030,note_on,30,0,1,,,,,,,,0,67,0
18030,note_on,0,0,1,,,,,,,,0,66,64
18060,note_on,0,0,2,,,,,,,,0,55,64
18060,note_on,30,0,1,,,,,,,,0,66,0
18060,note_on,0,0,1,,,,,,,,0,64,64
18060,note_on,0,0,1,,,,,,,,0,55,64
18060,note_on,0,0,2,,,,,,,,0,64,64
18060,note_on,30,0,2,,,,,,,,0,66,0
18120,note_on,60,0,2,,,,,,,,0,55,0
18120,note_on,0,0,1,,,,,,,,0,57,64
18120,note_on,0,0,1,,,,,,,,0,76,64
18120,note_on,0,0,1,,,,,,,,0,64,0
18120,note_on,60,0,1,,,,,,,,0,55,0
18120,note_on,0,0,2,,,,,,,,0,64,0
18120,note_on,0,0,2,,,,,,,,0,57,64
18120,note_on,0,0,2,,,,,,,,0,76,64
18180,note_on,0,0,1,,,,,,,,0,59,64
18180,note_on,60,0,1,,,,,,,,0,57,0
18180,note_on,0,0,2,,,,,,,,0,59,64
18180,note_on,60,0,2,,,,,,,,0,57,0
18240,note_on,0,0,1,,,,,,,,0,76,0
18240,note_on,60,0,2,,,,,,,,0,59,0
18240,note_on,0,0,2,,,,,,,,0,76,0
18240,note_on,0,0,2,,,,,,,,0,60,64
18240,note_on,0,0,1,,,,,,,,0,60,64
18240,note_on,60,0,1,,,,,,,,0,59,0
18300,note_on,60,0,1,,,,,,,,0,60,0
18300,note_on,0,0,2,,,,,,,,0,57,64
18300,note_on,60,0,2,,,,,,,,0,60,0
18300,note_on,0,0,1,,,,,,,,0,57,64
18360,note_on,0,0,2,,,,,,,,0,59,64
18360,note_on,0,0,2,,,,,,,,0,75,64
18360,note_on,0,0,1,,,,,,,,0,59,64
18360,note_on,60,0,1,,,,,,,,0,57,0
18360,note_on,0,0,1,,,,,,,,0,75,64
18360,note_on,60,0,2,,,,,,,,0,57,0
18390,note_on,30,0,2,,,,,,,,0,75,0
18390,note_on,0,0,2,,,,,,,,0,73,64
18390,note_on,0,0,1,,,,,,,,0,73,64
18390,note_on,30,0,1,,,,,,,,0,75,0
18420,note_on,0,0,2,,,,,,,,0,59,0
18420,note_on,0,0,2,,,,,,,,0,71,64
18420,note_on,0,0,2,,,,,,,,0,55,64
18420,note_on,0,0,1,,,,,,,,0,71,64
18420,note_on,0,0,1,,,,,,,,0,59,0
18420,note_on,30,0,1,,,,,,,,0,73,0
18420,note_on,30,0,2,,,,,,,,0,73,0
18420,note_on,0,0,1,,,,,,,,0,55,64
18480,note_on,0,0,1,,,,,,,,0,54,64
18480,note_on,0,0,1,,,,,,,,0,81,64
18480,note_on,0,0,1,,,,,,,,0,71,0
18480,note_on,60,0,1,,,,,,,,0,55,0
18480,note_on,0,0,2,,,,,,,,0,54,64
18480,note_on,60,0,2,,,,,,,,0,55,0
18480,note_on,0,0,2,,,,,,,,0,71,0
18480,note_on,0,0,2,,,,,,,,0,81,64
18540,note_on,60,0,2,,,,,,,,0,54,0
18540,note_on,0,0,1,,,,,,,,0,52,64
18540,note_on,0,0,2,,,,,,,,0,52,64
18540,note_on,60,0,1,,,,,,,,0,54,0
18600,note_on,0,0,1,,,,,,,,0,51,64
18600,note_on,0,0,1,,,,,,,,0,81,0
18600,note_on,60,0,1,,,,,,,,0,52,0
18600,note_on,60,0,2,,,,,,,,0,52,0
18600,note_on,0,0,2,,,,,,,,0,51,64
18600,note_on,0,0,2,,,,,,,,0,81,0
18660,note_on,0,0,1,,,,,,,,0,57,64
18660,note_on,60,0,1,,,,,,,,0,51,0
18660,note_on,60,0,2,,,,,,,,0,51,0
18660,note_on,0,0,2,,,,,,,,0,57,64
18720,note_on,0,0,1,,,,,,,,0,55,64
18720,note_on,60,0,1,,,,,,,,0,57,0
18720,note_on,0,0,2,,,,,,,,0,55,64
18720,note_on,60,0,2,,,,,,,,0,57,0
18780,note_on,0,0,1,,,,,,,,0,52,64
18780,note_on,0,0,1,,,,,,,,0,67,64
18780,note_on,60,0,1,,,,,,,,0,55,0
18780,note_on,60,0,2,,,,,,,,0,55,0
18780,note_on,0,0,2,,,,,,,,0,52,64
18780,note_on,0,0,2,,,,,,,,0,67,64
18840,note_on,0,0,2,,,,,,,,0,54,64
18840,note_on,0,0,2,,,,,,,,0,69,64
18840,note_on,0,0,2,,,,,,,,0,67,0
18840,note_on,60,0,2,,,,,,,,0,52,0
18840,note_on,60,0,1,,,,,,,,0,52,0
18840,note_on,0,0,1,,,,,,,,0,69,64
18840,note_on,0,0,1,,,,,,,,0,54,64
18840,note_on,0,0,1,,,,,,,,0,67,0
18900,note_on,0,0,1,,,,,,,,0,69,0
18900,note_on,0,0,1,,,,,,,,0,71,64
18900,note_on,0,0,1,,,,,,,,0,55,64
18900,note_on,60,0,2,,,,,,,,0,54,0
18900,note_on,0,0,2,,,,,,,,0,69,0
18900,note_on,0,0,2,,,,,,,,0,71,64
18900,note_on,0,0,2,,,,,,,,0,55,64
18900,note_on,60,0,1,,,,,,,,0,54,0
18960,note_on,60,0,2,,,,,,,,0,55,0
18960,note_on,0,0,2,,,,,,,,0,72,64
18960,note_on,60,0,1,,,,,,,,0,55,0
18960,note_on,0,0,1,,,,,,,,0,71,0
18960,note_on,0,0,1,,,,,,,,0,72,64
18960,note_on,0,0,1,,,,,,,,0,57,64
18960,note_on,0,0,2,,,,,,,,0,71,0
18960,note_on,0,0,2,,,,,,,,0,57,64
19020,note_on,60,0,1,,,,,,,,0,57,0
19020,note_on,0,0,2,,,,,,,,0,54,64
19020,note_on,0,0,2,,,,,,,,0,69,64
19020,note_on,0,0,2,,,,,,,,0,72,0
19020,note_on,0,0,1,,,,,,,,0,72,0
19020,note_on,0,0,1,,,,,,,,0,54,64
19020,note_on,60,0,2,,,,,,,,0,57,0
19020,note_on,0,0,1,,,,,,,,0,69,64
19080,note_on,0,0,1,,,,,,,,0,55,64
19080,note_on,0,0,2,,,,,,,,0,71,64
19080,note_on,0,0,2,,,,,,,,0,55,64
19080,note_on,60,0,1,,,,,,,,0,54,0
19080,note_on,0,0,1,,,,,,,,0,69,0
19080,note_on,0,0,1,,,,,,,,0,71,64
19080,note_on,60,0,2,,,,,,,,0,54,0
19080,note_on,0,0,2,,,,,,,,0,69,0
19140,note_on,0,0,1,,,,,,,,0,67,64
19140,note_on,0,0,2,,,,,,,,0,67,64
19140,note_on,60,0,1,,,,,,,,0,71,0
19140,note_on,60,0,2,,,,,,,,0,71,0
19200,note_on,60,0,2,,,,,,,,0,67,0
19200,note_on,0,0,1,,,,,,,,0,66,64
19200,note_on,0,0,2,,,,,,,,0,57,64
19200,note_on,0,0,1,,,,,,,,0,55,0
19200,note_on,0,0,2,,,,,,,,0,55,0
19200,note_on,0,0,2,,,,,,,,0,66,64
19200,note_on,0,0,1,,,,,,,,0,57,64
19200,note_on,60,0,1,,,,,,,,0,67,0
19260,note_on,0,0,2,,,,,,,,0,64,64
19260,note_on,60,0,1,,,,,,,,0,66,0
19260,note_on,60,0,2,,,,,,,,0,66,0
19260,note_on,0,0,1,,,,,,,,0,64,64
19320,note_on,0,0,1,,,,,,,,0,59,64
19320,note_on,60,0,2,,,,,,,,0,64,0
19320,note_on,0,0,1,,,,,,,,0,63,64
19320,note_on,0,0,2,,,,,,,,0,59,64
19320,note_on,0,0,2,,,,,,,,0,63,64
19320,note_on,60,0,1,,,,,,,,0,64,0
19320,note_on,0,0,1,,,,,,,,0,57,0
19320,note_on,0,0,2,,,,,,,,0,57,0
19380,note_on,60,0,2,,,,,,,,0,63,0
19380,note_on,0,0,1,,,,,,,,0,69,64
19380,note_on,60,0,1,,,,,,,,0,63,0
19380,note_on,0,0,2,,,,,,,,0,69,64
19440,note_on,0,0,1,,,,,,,,0,67,64
19440,note_on,0,0,1,,,,,,,,0,59,0
19440,note_on,0,0,2,,,,,,,,0,67,64
19440,note_on,60,0,1,,,,,,,,0,69,0
19440,note_on,60,0,2,,,,,,,,0,69,0
19440,note_on,0,0,1,,,,,,,,0,52,64
19440,note_on,0,0,2,,,,,,,,0,59,0
19440,note_on,0,0,2,,,,,,,,0,52,64
19500,note_on,60,0,2,,,,,,,,0,67,0
19500,note_on,0,0,2,,,,,,,,0,71,64
19500,note_on,0,0,1,,,,,,,,0,71,64
19500,note_on,60,0,1,,,,,,,,0,67,0
19560,note_on,60,0,2,,,,,,,,0,71,0
19560,note_on,0,0,2,,,,,,,,0,50,64
19560,note_on,0,0,2,,,,,,,,0,72,64
19560,note_on,0,0,2,,,,,,,,0,52,0
19560,note_on,60,0,1,,,,,,,,0,71,0
19560,note_on,0,0,1,,,,,,,,0,52,0
19560,note_on,0,0,1,,,,,,,,0,72,64
19560,note_on,0,0,1,,,,,,,,0,50,64
19620,note_on,60,0,1,,,,,,,,0,72,0
19620,note_on,0,0,1,,,,,,,,0,74,64
19620,note_on,60,0,2,,,,,,,,0,72,0
19620,note_on,0,0,2,,,,,,,,0,74,64
19680,note_on,0,0,1,,,,,,,,0,48,64
19680,note_on,0,0,2,,,,,,,,0,76,64
19680,note_on,60,0,2,,,,,,,,0,74,0
19680,note_on,0,0,1,,,,,,,,0,76,64
19680,note_on,60,0,1,,,,,,,,0,74,0
19680,note_on,0,0,2,,,,,,,,0,50,0
19680,note_on,0,0,1,,,,,,,,0,50,0
19680,note_on,0,0,2,,,,,,,,0,48,64
19740,note_on,60,0,2,,,,,,,,0,76,0
19740,note_on,0,0,2,,,,,,,,0,72,64
19740,note_on,60,0,1,,,,,,,,0,76,0
19740,note_on,0,0,1,,,,,,,,0,72,64
19800,note_on,60,0,2,,,,,,,,0,72,0
19800,note_on,0,0,2,,,,,,,,0,48,0
19800,note_on,0,0,1,,,,,,,,0,74,64
19800,note_on,0,0,1,,,,,,,,0,48,0
19800,note_on,0,0,2,,,,,,,,0,47,64
19800,note_on,60,0,1,,,,,,,,0,72,0
19800,note_on,0,0,2,,,,,,,,0,74,64
19800,note_on,0,0,1,,,,,,,,0,47,64
19860,note_on,0,0,2,,,,,,,,0,71,64
19860,note_on,60,0,2,,,,,,,,0,74,0
19860,note_on,60,0,1,,,,,,,,0,74,0
19860,note_on,0,0,1,,,,,,,,0,71,64
19920,note_on,0,0,2,,,,,,,,0,47,0
19920,note_on,0,0,2,,,,,,,,0,69,64
19920,note_on,60,0,2,,,,,,,,0,71,0
19920,note_on,0,0,2,,,,,,,,0,48,64
19920,note_on,60,0,1,,,,,,,,0,71,0
19920,note_on,0,0,1,,,,,,,,0,48,64
19920,note_on,0,0,1,,,,,,,,0,69,64
19920,note_on,0,0,1,,,,,,,,0,47,0
19980,note_on,60,0,2,,,,,,,,0,69,0
19980,note_on,0,0,2,,,,,,,,0,67,64
19980,note_on,60,0,1,,,,,,,,0,69,0
19980,note_on,0,0,1,,,,,,,,0,67,64
20040,note_on,0,0,1,,,,,,,,0,66,64
20040,note_on,0,0,1,,,,,,,,0,50,64
20040,note_on,0,0,1,,,,,,,,0,48,0
20040,note_on,60,0,1,,,,,,,,0,67,0
20040,note_on,0,0,2,,,,,,,,0,48,0
20040,note_on,0,0,2,,,,,,,,0,50,64
20040,note_on,0,0,2,,,,,,,,0,66,64
20040,note_on,60,0,2,,,,,,,,0,67,0
20100,note_on,0,0,2,,,,,,,,0,72,64
20100,note_on,60,0,1,,,,,,,,0,66,0
20100,note_on,0,0,1,,,,,,,,0,72,64
20100,note_on,60,0,2,,,,,,,,0,66,0
20160,note_on,0,0,2,,,,,,,,0,71,64
20160,note_on,60,0,2,,,,,,,,0,72,0
20160,note_on,60,0,1,,,,,,,,0,72,0
20160,note_on,0,0,2,,,,,,,,0,50,0
20160,note_on,0,0,1,,,,,,,,0,50,0
20160,note_on,0,0,1,,,,,,,,0,43,64
20160,note_on,0,0,2,,,,,,,,0,43,64
20160,note_on,0,0,1,,,,,,,,0,71,64
20220,note_on,0,0,1,,,,,,,,0,74,64
20220,note_on,0,0,2,,,,,,,,0,74,64
20220,note_on,60,0,2,,,,,,,,0,71,0
20220,note_on,60,0,1,,,,,,,,0,71,0
20280,note_on,0,0,2,,,,,,,,0,42,64
20280,note_on,0,0,1,,,,,,,,0,42,64
20280,note_on,60,0,1,,,,,,,,0,74,0
20280,note_on,0,0,1,,,,,,,,0,43,0
20280,note_on,0,0,1,,,,,,,,0,76,64
20280,note_on,0,0,2,,,,,,,,0,76,64
20280,note_on,0,0,2,,,,,,,,0,43,0
20280,note_on,60,0,2,,,,,,,,0,74,0
20340,note_on,0,0,2,,,,,,,,0,78,64
20340,note_on,60,0,2,,,,,,,,0,76,0
20340,note_on,60,0,1,,,,,,,,0,76,0
20340,note_on,0,0,1,,,,,,,,0,78,64
20400,note_on,60,0,1,,,,,,,,0,78,0
20400,note_on,0,0,2,,,,,,,,0,79,64
20400,note_on,0,0,2,,,,,,,,0,40,64
20400,note_on,0,0,2,,,,,,,,0,42,0
20400,note_on,60,0,2,,,,,,,,0,78,0
20400,note_on,0,0,1,,,,,,,,0,42,0
20400,note_on,0,0,1,,,,,,,,0,40,64
20400,note_on,0,0,1,,,,,,,,0,79,64
20460,note_on,0,0,1,,,,,,,,0,76,64
20460,note_on,0,0,2,,,,,,,,0,76,64
20460,note_on,60,0,2,,,,,,,,0,79,0
20460,note_on,60,0,1,,,,,,,,0,79,0
20520,note_on,0,0,2,,,,,,,,0,78,64
20520,note_on,60,0,1,,,,,,,,0,76,0
20520,note_on,0,0,1,,,,,,,,0,40,0
20520,note_on,0,0,1,,,,,,,,0,78,64
20520,note_on,0,0,1,,,,,,,,0,38,64
20520,note_on,0,0,2,,,,,,,,0,38,64
20520,note_on,0,0,2,,,,,,,,0,40,0
20520,note_on,60,0,2,,,,,,,,0,76,0
20580,note_on,0,0,1,,,,,,,,0,74,64
20580,note_on,0,0,2,,,,,,,,0,74,64
20580,note_on,60,0,2,,,,,,,,0,78,0
20580,note_on,60,0,1,,,,,,,,0,78,0
20640,note_on,0,0,2,,,,,,,,0,40,64
20640,note_on,0,0,2,,,,,,,,0,73,64
20640,note_on,0,0,2,,,,,,,,0,38,0
20640,note_on,60,0,2,,,,,,,,0,74,0
20640,note_on,60,0,1,,,,,,,,0,74,0
20640,note_on,0,0,1,,,,,,,,0,38,0
20640,note_on,0,0,1,,,,,,,,0,73,64
20640,note_on,0,0,1,,,,,,,,0,40,64
20700,note_on,0,0,2,,,,,,,,0,71,64
20700,note_on,0,0,1,,,,,,,,0,71,64
20700,note_on,60,0,2,,,,,,,,0,73,0
20700,note_on,60,0,1,,,,,,,,0,73,0
20760,note_on,0,0,1,,,,,,,,0,42,64
20760,note_on,0,0,2,,,,,,,,0,70,64
20760,note_on,0,0,1,,,,,,,,0,40,0
20760,note_on,0,0,1,,,,,,,,0,70,64
20760,note_on,60,0,1,,,,,,,,0,71,0
20760,note_on,0,0,2,,,,,,,,0,42,64
20760,note_on,60,0,2,,,,,,,,0,71,0
20760,note_on,0,0,2,,,,,,,,0,40,0
20820,note_on,0,0,2,,,,,,,,0,76,64
20820,note_on,60,0,1,,,,,,,,0,70,0
20820,note_on,0,0,1,,,,,,,,0,76,64
20820,note_on,60,0,2,,,,,,,,0,70,0
20880,note_on,0,0,2,,,,,,,,0,47,64
20880,note_on,0,0,1,,,,,,,,0,47,64
20880,note_on,60,0,1,,,,,,,,0,76,0
20880,note_on,0,0,2,,,,,,,,0,74,64
20880,note_on,0,0,1,,,,,,,,0,42,0
20880,note_on,0,0,2,,,,,,,,0,42,0
20880,note_on,0,0,1,,,,,,,,0,74,64
20880,note_on,60,0,2,,,,,,,,0,76,0
20940,note_on,0,0,1,,,,,,,,0,50,64
20940,note_on,0,0,2,,,,,,,,0,74,0
20940,note_on,0,0,1,,,,,,,,0,78,64
20940,note_on,60,0,2,,,,,,,,0,47,0
20940,note_on,0,0,2,,,,,,,,0,78,64
20940,note_on,0,0,1,,,,,,,,0,74,0
20940,note_on,60,0,1,,,,,,,,0,47,0
20940,note_on,0,0,2,,,,,,,,0,50,64
21000,note_on,0,0,2,,,,,,,,0,78,0
21000,note_on,0,0,2,,,,,,,,0,76,64
21000,note_on,0,0,2,,,,,,,,0,52,64
21000,note_on,60,0,2,,,,,,,,0,50,0
21000,note_on,0,0,1,,,,,,,,0,76,64
21000,note_on,0,0,1,,,,,,,,0,78,0
21000,note_on,0,0,1,,,,,,,,0,52,64
21000,note_on,60,0,1,,,,,,,,0,50,0
21060,note_on,60,0,2,,,,,,,,0,52,0
21060,note_on,0,0,2,,,,,,,,0,74,64
21060,note_on,0,0,1,,,,,,,,0,54,64
21060,note_on,60,0,1,,,,,,,,0,52,0
21060,note_on,0,0,1,,,,,,,,0,76,0
21060,note_on,0,0,1,,,,,,,,0,74,64
21060,note_on,0,0,2,,,,,,,,0,54,64
21060,note_on,0,0,2,,,,,,,,0,76,0
21120,note_on,60,0,1,,,,,,,,0,54,0
21120,note_on,0,0,1,,,,,,,,0,74,0
21120,note_on,0,0,1,,,,,,,,0,73,64
21120,note_on,0,0,2,,,,,,,,0,55,64
21120,note_on,0,0,2,,,,,,,,0,73,64
21120,note_on,0,0,2,,,,,,,,0,74,0
21120,note_on,60,0,2,,,,,,,,0,54,0
21120,note_on,0,0,1,,,,,,,,0,55,64
21180,note_on,0,0,2,,,,,,,,0,52,64
21180,note_on,0,0,2,,,,,,,,0,73,0
21180,note_on,0,0,2,,,,,,,,0,71,64
21180,note_on,0,0,1,,,,,,,,0,71,64
21180,note_on,60,0,1,,,,,,,,0,55,0
21180,note_on,0,0,1,,,,,,,,0,73,0
21180,note_on,60,0,2,,,,,,,,0,55,0
21180,note_on,0,0,1,,,,,,,,0,52,64
21240,note_on,0,0,1,,,,,,,,0,70,64
21240,note_on,0,0,1,,,,,,,,0,52,0
21240,note_on,60,0,1,,,,,,,,0,71,0
21240,note_on,0,0,2,,,,,,,,0,54,64
21240,note_on,0,0,2,,,,,,,,0,70,64
21240,note_on,60,0,2,,,,,,,,0,71,0
21240,note_on,0,0,2,,,,,,,,0,52,0
21240,note_on,0,0,1,,,,,,,,0,54,64
21270,note_on,30,0,2,,,,,,,,0,70,0
21270,note_on,0,0,2,,,,,,,,0,68,64
21270,note_on,30,0,1,,,,,,,,0,70,0
21270,note_on,0,0,1,,,,,,,,0,68,64
21300,note_on,0,0,2,,,,,,,,0,66,64
21300,note_on,0,0,2,,,,,,,,0,50,64
21300,note_on,0,0,1,,,,,,,,0,54,0
21300,note_on,0,0,2,,,,,,,,0,54,0
21300,note_on,30,0,1,,,,,,,,0,68,0
21300,note_on,0,0,1,,,,,,,,0,66,64
21300,note_on,30,0,2,,,,,,,,0,68,0
21300,note_on,0,0,1,,,,,,,,0,50,64
21360,note_on,0,0,1,,,,,,,,0,49,64
21360,note_on,0,0,1,,,,,,,,0,76,64
21360,note_on,0,0,2,,,,,,,,0,49,64
21360,note_on,0,0,1,,,,,,,,0,66,0
21360,note_on,0,0,2,,,,,,,,0,66,0
21360,note_on,60,0,2,,,,,,,,0,50,0
21360,note_on,60,0,1,,,,,,,,0,50,0
21360,note_on,0,0,2,,,,,,,,0,76,64
21420,note_on,60,0,2,,,,,,,,0,49,0
21420,note_on,0,0,2,,,,,,,,0,47,64
21420,note_on,0,0,1,,,,,,,,0,47,64
21420,note_on,60,0,1,,,,,,,,0,49,0
21480,note_on,60,0,2,,,,,,,,0,47,0
21480,note_on,0,0,2,,,,,,,,0,46,64
21480,note_on,0,0,1,,,,,,,,0,46,64
21480,note_on,0,0,1,,,,,,,,0,76,0
21480,note_on,60,0,1,,,,,,,,0,47,0
21480,note_on,0,0,2,,,,,,,,0,76,0
21540,note_on,60,0,2,,,,,,,,0,46,0
21540,note_on,0,0,2,,,,,,,,0,52,64
21540,note_on,60,0,1,,,,,,,,0,46,0
21540,note_on,0,0,1,,,,,,,,0,52,64
21600,note_on,60,0,1,,,,,,,,0,52,0
21600,note_on,0,0,1,,,,,,,,0,50,64
21600,note_on,60,0,2,,,,,,,,0,52,0
21600,note_on,0,0,2,,,,,,,,0,50,64
21660,note_on,60,0,2,,,,,,,,0,50,0
21660,note_on,0,0,1,,,,,,,,0,74,64
21660,note_on,60,0,1,,,,,,,,0,50,0
21660,note_on,0,0,1,,,,,,,,0,47,64
21660,note_on,0,0,2,,,,,,,,0,47,64
21660,note_on,0,0,2,,,,,,,,0,74,64
21720,note_on,60,0,1,,,,,,,,0,47,0
21720,note_on,60,0,2,,,,,,,,0,47,0
21720,note_on,0,0,2,,,,,,,,0,74,0
21720,note_on,0,0,2,,,,,,,,0,76,64
21720,note_on,0,0,2,,,,,,,,0,49,64
21720,note_on,0,0,1,,,,,,,,0,49,64
21720,note_on,0,0,1,,,,,,,,0,76,64
21720,note_on,0,0,1,,,,,,,,0,74,0
21780,note_on,0,0,2,,,,,,,,0,78,64
21780,note_on,0,0,1,,,,,,,,0,76,0
21780,note_on,0,0,2,,,,,,,,0,50,64
21780,note_on,0,0,1,,,,,,,,0,78,64
21780,note_on,60,0,2,,,,,,,,0,49,0
21780,note_on,0,0,1,,,,,,,,0,50,64
21780,note_on,60,0,1,,,,,,,,0,49,0
21780,note_on,0,0,2,,,,,,,,0,76,0
21840,note_on,0,0,2,,,,,,,,0,78,0
21840,note_on,0,0,2,,,,,,,,0,79,64
21840,note_on,0,0,2,,,,,,,,0,52,64
21840,note_on,0,0,1,,,,,,,,0,52,64
21840,note_on,0,0,1,,,,,,,,0,78,0
21840,note_on,60,0,1,,,,,,,,0,50,0
21840,note_on,60,0,2,,,,,,,,0,50,0
21840,note_on,0,0,1,,,,,,,,0,79,64
21900,note_on,60,0,2,,,,,,,,0,52,0
21900,note_on,0,0,2,,,,,,,,0,79,0
21900,note_on,0,0,2,,,,,,,,0,76,64
21900,note_on,0,0,2,,,,,,,,0,49,64
21900,note_on,60,0,1,,,,,,,,0,52,0
21900,note_on,0,0,1,,,,,,,,0,79,0
21900,note_on,0,0,1,,,,,,,,0,76,64
21900,note_on,0,0,1,,,,,,,,0,49,64
21960,note_on,0,0,2,,,,,,,,0,50,64
21960,note_on,0,0,2,,,,,,,,0,78,64
21960,note_on,0,0,1,,,,,,,,0,50,64
21960,note_on,0,0,2,,,,,,,,0,76,0
21960,note_on,0,0,1,,,,,,,,0,76,0
21960,note_on,0,0,1,,,,,,,,0,78,64
21960,note_on,60,0,2,,,,,,,,0,49,0
21960,note_on,60,0,1,,,,,,,,0,49,0
22020,note_on,0,0,1,,,,,,,,0,74,64
22020,note_on,60,0,2,,,,,,,,0,78,0
22020,note_on,0,0,2,,,,,,,,0,74,64
22020,note_on,60,0,1,,,,,,,,0,78,0
22080,note_on,0,0,1,,,,,,,,0,50,0
22080,note_on,0,0,1,,,,,,,,0,73,64
22080,note_on,0,0,1,,,,,,,,0,52,64
22080,note_on,0,0,2,,,,,,,,0,52,64
22080,note_on,60,0,2,,,,,,,,0,74,0
22080,note_on,0,0,2,,,,,,,,0,50,0
22080,note_on,0,0,2,,,,,,,,0,73,64
22080,note_on,60,0,1,,,,,,,,0,74,0
22140,note_on,60,0,2,,,,,,,,0,73,0
22140,note_on,0,0,1,,,,,,,,0,71,64
22140,note_on,60,0,1,,,,,,,,0,73,0
22140,note_on,0,0,2,,,,,,,,0,71,64
22200,note_on,60,0,2,,,,,,,,0,71,0
22200,note_on,0,0,2,,,,,,,,0,52,0
22200,note_on,0,0,2,,,,,,,,0,54,64
22200,note_on,0,0,1,,,,,,,,0,70,64
22200,note_on,0,0,1,,,,,,,,0,54,64
22200,note_on,0,0,1,,,,,,,,0,52,0
22200,note_on,60,0,1,,,,,,,,0,71,0
22200,note_on,0,0,2,,,,,,,,0,70,64
22260,note_on,0,0,2,,,,,,,,0,76,64
22260,note_on,60,0,1,,,,,,,,0,70,0
22260,note_on,0,0,1,,,,,,,,0,76,64
22260,note_on,60,0,2,,,,,,,,0,70,0
22320,note_on,0,0,2,,,,,,,,0,54,0
22320,note_on,60,0,1,,,,,,,,0,76,0
22320,note_on,0,0,1,,,,,,,,0,54,0
22320,note_on,0,0,1,,,,,,,,0,74,64
22320,note_on,0,0,2,,,,,,,,0,74,64
22320,note_on,0,0,1,,,,,,,,0,47,64
22320,note_on,0,0,2,,,,,,,,0,47,64
22320,note_on,60,0,2,,,,,,,,0,76,0
22380,note_on,60,0,1,,,,,,,,0,74,0
22380,note_on,0,0,2,,,,,,,,0,71,64
22380,note_on,60,0,2,,,,,,,,0,74,0
22380,note_on,0,0,1,,,,,,,,0,71,64
22440,note_on,0,0,2,,,,,,,,0,73,64
22440,note_on,0,0,2,,,,,,,,0,47,0
22440,note_on,60,0,2,,,,,,,,0,71,0
22440,note_on,0,0,2,,,,,,,,0,59,64
22440,note_on,0,0,1,,,,,,,,0,59,64
22440,note_on,0,0,1,,,,,,,,0,73,64
22440,note_on,0,0,1,,,,,,,,0,47,0
22440,note_on,60,0,1,,,,,,,,0,71,0
22500,note_on,0,0,1,,,,,,,,0,74,64
22500,note_on,60,0,1,,,,,,,,0,73,0
22500,note_on,60,0,2,,,,,,,,0,73,0
22500,note_on,0,0,2,,,,,,,,0,74,64
22560,note_on,0,0,1,,,,,,,,0,59,0
22560,note_on,0,0,1,,,,,,,,0,58,64
22560,note_on,0,0,1,,,,,,,,0,76,64
22560,note_on,60,0,1,,,,,,,,0,74,0
22560,note_on,0,0,2,,,,,,,,0,76,64
22560,note_on,0,0,2,,,,,,,,0,59,0
22560,note_on,60,0,2,,,,,,,,0,74,0
22560,note_on,0,0,2,,,,,,,,0,58,64
22620,note_on,60,0,2,,,,,,,,0,76,0
22620,note_on,0,0,2,,,,,,,,0,73,64
22620,note_on,0,0,1,,,,,,,,0,73,64
22620,note_on,60,0,1,,,,,,,,0,76,0
22680,note_on,60,0,2,,,,,,,,0,73,0
22680,note_on,0,0,2,,,,,,,,0,58,0
22680,note_on,0,0,2,,,,,,,,0,74,64
22680,note_on,0,0,2,,,,,,,,0,59,64
22680,note_on,0,0,1,,,,,,,,0,59,64
22680,note_on,0,0,1,,,,,,,,0,74,64
22680,note_on,60,0,1,,,,,,,,0,73,0
22680,note_on,0,0,1,,,,,,,,0,58,0
22740,note_on,0,0,2,,,,,,,,0,71,64
22740,note_on,60,0,1,,,,,,,,0,74,0
22740,note_on,60,0,2,,,,,,,,0,74,0
22740,note_on,0,0,1,,,,,,,,0,71,64
22800,note_on,0,0,1,,,,,,,,0,54,64
22800,note_on,0,0,2,,,,,,,,0,54,64
22800,note_on,0,0,1,,,,,,,,0,59,0
22800,note_on,0,0,1,,,,,,,,0,69,64
22800,note_on,0,0,2,,,,,,,,0,59,0
22800,note_on,60,0,2,,,,,,,,0,71,0
22800,note_on,60,0,1,,,,,,,,0,71,0
22800,note_on,0,0,2,,,,,,,,0,69,64
22860,note_on,0,0,1,,,,,,,,0,67,64
22860,note_on,60,0,2,,,,,,,,0,69,0
22860,note_on,0,0,2,,,,,,,,0,67,64
22860,note_on,60,0,1,,,,,,,,0,69,0
22920,note_on,0,0,1,,,,,,,,0,54,0
22920,note_on,60,0,2,,,,,,,,0,67,0
22920,note_on,0,0,2,,,,,,,,0,54,0
22920,note_on,0,0,2,,,,,,,,0,50,64
22920,note_on,0,0,1,,,,,,,,0,50,64
22920,note_on,0,0,2,,,,,,,,0,66,64
22920,note_on,0,0,1,,,,,,,,0,66,64
22920,note_on,60,0,1,,,,,,,,0,67,0
22980,note_on,0,0,1,,,,,,,,0,72,64
22980,note_on,60,0,1,,,,,,,,0,66,0
22980,note_on,60,0,2,,,,,,,,0,66,0
22980,note_on,0,0,2,,,,,,,,0,72,64
23040,note_on,60,0,1,,,,,,,,0,72,0
23040,note_on,0,0,1,,,,,,,,0,50,0
23040,note_on,0,0,1,,,,,,,,0,55,64
23040,note_on,0,0,1,,,,,,,,0,71,64
23040,note_on,0,0,2,,,,,,,,0,55,64
23040,note_on,0,0,2,,,,,,,,0,71,64
23040,note_on,0,0,2,,,,,,,,0,50,0
23040,note_on,60,0,2,,,,,,,,0,72,0
23100,note_on,0,0,1,,,,,,,,0,71,0
23100,note_on,0,0,1,,,,,,,,0,59,64
23100,note_on,60,0,1,,,,,,,,0,55,0
23100,note_on,0,0,1,,,,,,,,0,67,64
23100,note_on,0,0,2,,,,,,,,0,59,64
23100,note_on,0,0,2,,,,,,,,0,71,0
23100,note_on,60,0,2,,,,,,,,0,55,0
23100,note_on,0,0,2,,,,,,,,0,67,64
23160,note_on,60,0,1,,,,,,,,0,59,0
23160,note_on,0,0,1,,,,,,,,0,67,0
23160,note_on,0,0,1,,,,,,,,0,76,64
23160,note_on,0,0,2,,,,,,,,0,76,64
23160,note_on,0,0,2,,,,,,,,0,60,64
23160,note_on,0,0,1,,,,,,,,0,60,64
23160,note_on,0,0,2,,,,,,,,0,67,0
23160,note_on,60,0,2,,,,,,,,0,59,0
23220,note_on,0,0,2,,,,,,,,0,62,64
23220,note_on,0,0,2,,,,,,,,0,71,64
23220,note_on,0,0,2,,,,,,,,0,76,0
23220,note_on,60,0,2,,,,,,,,0,60,0
23220,note_on,60,0,1,,,,,,,,0,60,0
23220,note_on,0,0,1,,,,,,,,0,76,0
23220,note_on,0,0,1,,,,,,,,0,62,64
23220,note_on,0,0,1,,,,,,,,0,71,64
23280,note_on,0,0,1,,,,,,,,0,72,64
23280,note_on,0,0,1,,,,,,,,0,71,0
23280,note_on,60,0,1,,,,,,,,0,62,0
23280,note_on,0,0,1,,,,,,,,0,64,64
23280,note_on,60,0,2,,,,,,,,0,62,0
23280,note_on,0,0,2,,,,,,,,0,72,64
23280,note_on,0,0,2,,,,,,,,0,64,64
23280,note_on,0,0,2,,,,,,,,0,71,0
23340,note_on,0,0,1,,,,,,,,0,72,0
23340,note_on,60,0,2,,,,,,,,0,64,0
23340,note_on,0,0,2,,,,,,,,0,72,0
23340,note_on,0,0,2,,,,,,,,0,60,64
23340,note_on,0,0,2,,,,,,,,0,81,64
23340,note_on,60,0,1,,,,,,,,0,64,0
23340,note_on,0,0,1,,,,,,,,0,60,64
23340,note_on,0,0,1,,,,,,,,0,81,64
23400,note_on,60,0,2,,,,,,,,0,81,0
23400,note_on,0,0,2,,,,,,,,0,62,64
23400,note_on,0,0,2,,,,,,,,0,71,64
23400,note_on,0,0,2,,,,,,,,0,60,0
23400,note_on,60,0,1,,,,,,,,0,81,0
23400,note_on,0,0,1,,,,,,,,0,60,0
23400,note_on,0,0,1,,,,,,,,0,71,64
23400,note_on,0,0,1,,,,,,,,0,62,64
23460,note_on,0,0,2,,,,,,,,0,59,64
23460,note_on,0,0,2,,,,,,,,0,74,64
23460,note_on,0,0,2,,,,,,,,0,71,0
23460,note_on,60,0,2,,,,,,,,0,62,0
23460,note_on,0,0,1,,,,,,,,0,71,0
23460,note_on,60,0,1,,,,,,,,0,62,0
23460,note_on,0,0,1,,,,,,,,0,59,64
23460,note_on,0,0,1,,,,,,,,0,74,64
23520,note_on,60,0,2,,,,,,,,0,59,0
23520,note_on,0,0,2,,,,,,,,0,57,64
23520,note_on,0,0,1,,,,,,,,0,57,64
23520,note_on,0,0,2,,,,,,,,0,79,64
23520,note_on,0,0,1,,,,,,,,0,74,0
23520,note_on,60,0,1,,,,,,,,0,59,0
23520,note_on,0,0,2,,,,,,,,0,74,0
23520,note_on,0,0,1,,,,,,,,0,79,64
23580,note_on,60,0,1,,,,,,,,0,57,0
23580,note_on,60,0,2,,,,,,,,0,57,0
23580,note_on,0,0,2,,,,,,,,0,55,64
23580,note_on,0,0,1,,,,,,,,0,55,64
23640,note_on,60,0,2,,,,,,,,0,55,0
23640,note_on,0,0,2,,,,,,,,0,79,0
23640,note_on,0,0,2,,,,,,,,0,71,64
23640,note_on,0,0,2,,,,,,,,0,54,64
23640,note_on,0,0,1,,,,,,,,0,71,64
23640,note_on,60,0,1,,,,,,,,0,55,0
23640,note_on,0,0,1,,,,,,,,0,79,0
23640,note_on,0,0,1,,,,,,,,0,54,64
23655,note_on,0,0,1,,,,,,,,0,69,64
23655,note_on,15,0,1,,,,,,,,0,71,0
23655,note_on,15,0,2,,,,,,,,0,71,0
23655,note_on,0,0,2,,,,,,,,0,69,64
23670,note_on,0,0,1,,,,,,,,0,71,64
23670,note_on,15,0,1,,,,,,,,0,69,0
23670,note_on,0,0,2,,,,,,,,0,71,64
23670,note_on,15,0,2,,,,,,,,0,69,0
23685,note_on,15,0,2,,,,,,,,0,71,0
23685,note_on,15,0,1,,,,,,,,0,71,0
23685,note_on,0,0,2,,,,,,,,0,69,64
23685,note_on,0,0,1,,,,,,,,0,69,64
23700,note_on,15,0,2,,,,,,,,0,69,0
23700,note_on,0,0,1,,,,,,,,0,60,64
23700,note_on,0,0,1,,,,,,,,0,71,64
23700,note_on,0,0,1,,,,,,,,0,54,0
23700,note_on,15,0,1,,,,,,,,0,69,0
23700,note_on,0,0,2,,,,,,,,0,71,64
23700,note_on,0,0,2,,,,,,,,0,54,0
23700,note_on,0,0,2,,,,,,,,0,60,64
23715,note_on,15,0,1,,,,,,,,0,71,0
23715,note_on,15,0,2,,,,,,,,0,71,0
23715,note_on,0,0,2,,,,,,,,0,69,64
23715,note_on,0,0,1,,,,,,,,0,69,64
23760,note_on,0,0,2,,,,,,,,0,67,64
23760,note_on,0,0,1,,,,,,,,0,60,0
23760,note_on,0,0,1,,,,,,,,0,67,64
23760,note_on,0,0,1,,,,,,,,0,59,64
23760,note_on,0,0,2,,,,,,,,0,59,64
23760,note_on,45,0,2,,,,,,,,0,69,0
23760,note_on,45,0,1,,,,,,,,0,69,0
23760,note_on,0,0,2,,,,,,,,0,60,0
23820,note_on,0,0,1,,,,,,,,0,55,64
23820,note_on,60,0,2,,,,,,,,0,59,0
23820,note_on,0,0,2,,,,,,,,0,67,0
23820,note_on,0,0,2,,,,,,,,0,55,64
23820,note_on,0,0,1,,,,,,,,0,64,64
23820,note_on,0,0,1,,,,,,,,0,67,0
23820,note_on,60,0,1,,,,,,,,0,59,0
23820,note_on,0,0,2,,,,,,,,0,64,64
23880,note_on,0,0,1,,,,,,,,0,64,0
23880,note_on,60,0,1,,,,,,,,0,55,0
23880,note_on,0,0,1,,,,,,,,0,72,64
23880,note_on,0,0,2,,,,,,,,0,64,0
23880,note_on,60,0,2,,,,,,,,0,55,0
23880,note_on,0,0,2,,,,,,,,0,57,64
23880,note_on,0,0,2,,,,,,,,0,72,64
23880,note_on,0,0,1,,,,,,,,0,57,64
23940,note_on,60,0,1,,,,,,,,0,57,0
23940,note_on,0,0,1,,,,,,,,0,72,0
23940,note_on,0,0,1,,,,,,,,0,67,64
23940,note_on,0,0,2,,,,,,,,0,59,64
23940,note_on,0,0,2,,,,,,,,0,67,64
23940,note_on,0,0,2,,,,,,,,0,72,0
23940,note_on,60,0,2,,,,,,,,0,57,0
23940,note_on,0,0,1,,,,,,,,0,59,64
24000,note_on,0,0,1,,,,,,,,0,67,0
24000,note_on,0,0,1,,,,,,,,0,69,64
24000,note_on,0,0,1,,,,,,,,0,60,64
24000,note_on,0,0,2,,,,,,,,0,60,64
24000,note_on,0,0,2,,,,,,,,0,69,64
24000,note_on,0,0,2,,,,,,,,0,67,0
24000,note_on,60,0,2,,,,,,,,0,59,0
24000,note_on,60,0,1,,,,,,,,0,59,0
24060,note_on,0,0,1,,,,,,,,0,57,64
24060,note_on,0,0,1,,,,,,,,0,78,64
24060,note_on,60,0,1,,,,,,,,0,60,0
24060,note_on,0,0,1,,,,,,,,0,69,0
24060,note_on,60,0,2,,,,,,,,0,60,0
24060,note_on,0,0,2,,,,,,,,0,69,0
24060,note_on,0,0,2,,,,,,,,0,57,64
24060,note_on,0,0,2,,,,,,,,0,78,64
24120,note_on,60,0,2,,,,,,,,0,78,0
24120,note_on,0,0,2,,,,,,,,0,57,0
24120,note_on,0,0,2,,,,,,,,0,67,64
24120,note_on,0,0,2,,,,,,,,0,59,64
24120,note_on,0,0,1,,,,,,,,0,59,64
24120,note_on,0,0,1,,,,,,,,0,67,64
24120,note_on,0,0,1,,,,,,,,0,57,0
24120,note_on,60,0,1,,,,,,,,0,78,0
24180,note_on,0,0,1,,,,,,,,0,55,64
24180,note_on,0,0,1,,,,,,,,0,67,0
24180,note_on,60,0,1,,,,,,,,0,59,0
24180,note_on,60,0,2,,,,,,,,0,59,0
24180,note_on,0,0,2,,,,,,,,0,71,64
24180,note_on,0,0,2,,,,,,,,0,67,0
24180,note_on,0,0,1,,,,,,,,0,71,64
24180,note_on,0,0,2,,,,,,,,0,55,64
24240,note_on,0,0,1,,,,,,,,0,76,64
24240,note_on,0,0,1,,,,,,,,0,71,0
24240,note_on,0,0,2,,,,,,,,0,54,64
24240,note_on,0,0,1,,,,,,,,0,54,64
24240,note_on,0,0,2,,,,,,,,0,76,64
24240,note_on,60,0,1,,,,,,,,0,55,0
24240,note_on,0,0,2,,,,,,,,0,71,0
24240,note_on,60,0,2,,,,,,,,0,55,0
24300,note_on,0,0,2,,,,,,,,0,52,64
24300,note_on,0,0,1,,,,,,,,0,52,64
24300,note_on,60,0,1,,,,,,,,0,54,0
24300,note_on,60,0,2,,,,,,,,0,54,0
24360,note_on,60,0,1,,,,,,,,0,52,0
24360,note_on,0,0,1,,,,,,,,0,76,0
24360,note_on,0,0,1,,,,,,,,0,67,70
24360,note_on,0,0,1,,,,,,,,0,51,64
24360,note_on,0,0,2,,,,,,,,0,76,0
24360,note_on,0,0,2,,,,,,,,0,67,70
24360,note_on,60,0,2,,,,,,,,0,52,0
24360,note_on,0,0,2,,,,,,,,0,51,64
24375,note_on,15,0,1,,,,,,,,0,67,0
24375,note_on,0,0,1,,,,,,,,0,66,64
24375,note_on,0,0,2,,,,,,,,0,66,64
24375,note_on,15,0,2,,,,,,,,0,67,0
24390,note_on,15,0,1,,,,,,,,0,66,0
24390,note_on,0,0,2,,,,,,,,0,67,64
24390,note_on,0,0,1,,,,,,,,0,67,64
24390,note_on,15,0,2,,,,,,,,0,66,0
24405,note_on,0,0,1,,,,,,,,0,66,64
24405,note_on,15,0,1,,,,,,,,0,67,0
24405,note_on,0,0,2,,,,,,,,0,66,64
24405,note_on,15,0,2,,,,,,,,0,67,0
24420,note_on,0,0,1,,,,,,,,0,57,64
24420,note_on,0,0,2,,,,,,,,0,57,64
24420,note_on,0,0,2,,,,,,,,0,51,0
24420,note_on,0,0,1,,,,,,,,0,51,0
24420,note_on,0,0,2,,,,,,,,0,67,64
24420,note_on,15,0,1,,,,,,,,0,66,0
24420,note_on,0,0,1,,,,,,,,0,67,64
24420,note_on,15,0,2,,,,,,,,0,66,0
24435,note_on,0,0,2,,,,,,,,0,66,64
24435,note_on,15,0,1,,,,,,,,0,67,0
24435,note_on,0,0,1,,,,,,,,0,66,64
24435,note_on,15,0,2,,,,,,,,0,67,0
24480,note_on,45,0,1,,,,,,,,0,66,0
24480,note_on,0,0,1,,,,,,,,0,57,0
24480,note_on,0,0,1,,,,,,,,0,64,64
24480,note_on,0,0,2,,,,,,,,0,55,64
24480,note_on,0,0,2,,,,,,,,0,64,64
24480,note_on,0,0,2,,,,,,,,0,57,0
24480,note_on,45,0,2,,,,,,,,0,66,0
24480,note_on,0,0,1,,,,,,,,0,55,64
24540,note_on,60,0,1,,,,,,,,0,55,0
24540,note_on,0,0,1,,,,,,,,0,64,0
24540,note_on,0,0,1,,,,,,,,0,67,64
24540,note_on,0,0,1,,,,,,,,0,52,64
24540,note_on,0,0,2,,,,,,,,0,64,0
24540,note_on,0,0,2,,,,,,,,0,67,64
24540,note_on,0,0,2,,,,,,,,0,52,64
24540,note_on,60,0,2,,,,,,,,0,55,0
24600,note_on,60,0,1,,,,,,,,0,52,0
24600,note_on,0,0,1,,,,,,,,0,54,64
24600,note_on,0,0,1,,,,,,,,0,69,64
24600,note_on,0,0,1,,,,,,,,0,67,0
24600,note_on,60,0,2,,,,,,,,0,52,0
24600,note_on,0,0,2,,,,,,,,0,67,0
24600,note_on,0,0,2,,,,,,,,0,69,64
24600,note_on,0,0,2,,,,,,,,0,54,64
24660,note_on,0,0,1,,,,,,,,0,71,64
24660,note_on,0,0,1,,,,,,,,0,55,64
24660,note_on,0,0,1,,,,,,,,0,69,0
24660,note_on,60,0,2,,,,,,,,0,54,0
24660,note_on,0,0,2,,,,,,,,0,69,0
24660,note_on,0,0,2,,,,,,,,0,71,64
24660,note_on,0,0,2,,,,,,,,0,55,64
24660,note_on,60,0,1,,,,,,,,0,54,0
24720,note_on,60,0,1,,,,,,,,0,55,0
24720,note_on,0,0,2,,,,,,,,0,57,64
24720,note_on,0,0,2,,,,,,,,0,72,64
24720,note_on,0,0,2,,,,,,,,0,71,0
24720,note_on,60,0,2,,,,,,,,0,55,0
24720,note_on,0,0,1,,,,,,,,0,57,64
24720,note_on,0,0,1,,,,,,,,0,72,64
24720,note_on,0,0,1,,,,,,,,0,71,0
24780,note_on,0,0,1,,,,,,,,0,72,0
24780,note_on,60,0,1,,,,,,,,0,57,0
24780,note_on,0,0,2,,,,,,,,0,72,0
24780,note_on,0,0,1,,,,,,,,0,69,64
24780,note_on,60,0,2,,,,,,,,0,57,0
24780,note_on,0,0,2,,,,,,,,0,54,64
24780,note_on,0,0,2,,,,,,,,0,69,64
24780,note_on,0,0,1,,,,,,,,0,54,64
24840,note_on,60,0,1,,,,,,,,0,69,0
24840,note_on,0,0,1,,,,,,,,0,54,0
24840,note_on,0,0,2,,,,,,,,0,55,64
24840,note_on,0,0,2,,,,,,,,0,71,64
24840,note_on,0,0,2,,,,,,,,0,54,0
24840,note_on,60,0,2,,,,,,,,0,69,0
24840,note_on,0,0,1,,,,,,,,0,71,64
24840,note_on,0,0,1,,,,,,,,0,55,64
24870,note_on,30,0,2,,,,,,,,0,71,0
24870,note_on,0,0,2,,,,,,,,0,69,64
24870,note_on,30,0,1,,,,,,,,0,71,0
24870,note_on,0,0,1,,,,,,,,0,69,64
24900,note_on,0,0,2,,,,,,,,0,55,0
24900,note_on,0,0,1,,,,,,,,0,52,64
24900,note_on,0,0,1,,,,,,,,0,55,0
24900,note_on,0,0,1,,,,,,,,0,67,64
24900,note_on,30,0,2,,,,,,,,0,69,0
24900,note_on,0,0,2,,,,,,,,0,52,64
24900,note_on,0,0,2,,,,,,,,0,67,64
24900,note_on,30,0,1,,,,,,,,0,69,0
24960,note_on,60,0,2,,,,,,,,0,52,0
24960,note_on,0,0,2,,,,,,,,0,67,0
24960,note_on,0,0,1,,,,,,,,0,77,64
24960,note_on,0,0,1,,,,,,,,0,67,0
24960,note_on,0,0,1,,,,,,,,0,50,64
24960,note_on,0,0,2,,,,,,,,0,50,64
24960,note_on,60,0,1,,,,,,,,0,52,0
24960,note_on,0,0,2,,,,,,,,0,77,64
25020,note_on,60,0,1,,,,,,,,0,50,0
25020,note_on,0,0,1,,,,,,,,0,48,64
25020,note_on,0,0,2,,,,,,,,0,48,64
25020,note_on,60,0,2,,,,,,,,0,50,0
25080,note_on,0,0,1,,,,,,,,0,77,0
25080,note_on,0,0,1,,,,,,,,0,47,64
25080,note_on,0,0,2,,,,,,,,0,47,64
25080,note_on,60,0,2,,,,,,,,0,48,0
25080,note_on,60,0,1,,,,,,,,0,48,0
25080,note_on,0,0,2,,,,,,,,0,77,0
25140,note_on,60,0,1,,,,,,,,0,47,0
25140,note_on,0,0,2,,,,,,,,0,53,64
25140,note_on,0,0,1,,,,,,,,0,53,64
25140,note_on,60,0,2,,,,,,,,0,47,0
25200,note_on,0,0,2,,,,,,,,0,52,64
25200,note_on,60,0,2,,,,,,,,0,53,0
25200,note_on,60,0,1,,,,,,,,0,53,0
25200,note_on,0,0,1,,,,,,,,0,52,64
25260,note_on,60,0,2,,,,,,,,0,52,0
25260,note_on,0,0,2,,,,,,,,0,43,64
25260,note_on,0,0,2,,,,,,,,0,64,64
25260,note_on,60,0,1,,,,,,,,0,52,0
25260,note_on,0,0,1,,,,,,,,0,64,64
25260,note_on,0,0,1,,,,,,,,0,43,64
25320,note_on,0,0,2,,,,,,,,0,45,64
25320,note_on,0,0,2,,,,,,,,0,66,64
25320,note_on,0,0,2,,,,,,,,0,64,0
25320,note_on,60,0,2,,,,,,,,0,43,0
25320,note_on,60,0,1,,,,,,,,0,43,0
25320,note_on,0,0,1,,,,,,,,0,64,0
25320,note_on,0,0,1,,,,,,,,0,45,64
25320,note_on,0,0,1,,,,,,,,0,66,64
25380,note_on,0,0,2,,,,,,,,0,67,64
25380,note_on,0,0,2,,,,,,,,0,47,64
25380,note_on,60,0,1,,,,,,,,0,45,0
25380,note_on,0,0,1,,,,,,,,0,66,0
25380,note_on,0,0,1,,,,,,,,0,67,64
25380,note_on,0,0,1,,,,,,,,0,47,64
25380,note_on,60,0,2,,,,,,,,0,45,0
25380,note_on,0,0,2,,,,,,,,0,66,0
25440,note_on,0,0,1,,,,,,,,0,48,64
25440,note_on,0,0,1,,,,,,,,0,67,0
25440,note_on,60,0,1,,,,,,,,0,47,0
25440,note_on,60,0,2,,,,,,,,0,47,0
25440,note_on,0,0,2,,,,,,,,0,67,0
25440,note_on,0,0,2,,,,,,,,0,48,64
25440,note_on,0,0,2,,,,,,,,0,69,64
25440,note_on,0,0,1,,,,,,,,0,69,64
25500,note_on,60,0,1,,,,,,,,0,69,0
25500,note_on,0,0,1,,,,,,,,0,66,64
25500,note_on,60,0,2,,,,,,,,0,69,0
25500,note_on,0,0,2,,,,,,,,0,66,64
25560,note_on,0,0,1,,,,,,,,0,67,64
25560,note_on,60,0,1,,,,,,,,0,66,0
25560,note_on,0,0,2,,,,,,,,0,67,64
25560,note_on,60,0,2,,,,,,,,0,66,0
25620,note_on,0,0,2,,,,,,,,0,48,0
25620,note_on,0,0,2,,,,,,,,0,62,64
25620,note_on,0,0,2,,,,,,,,0,47,64
25620,note_on,0,0,1,,,,,,,,0,48,0
25620,note_on,0,0,1,,,,,,,,0,62,64
25620,note_on,60,0,1,,,,,,,,0,67,0
25620,note_on,0,0,1,,,,,,,,0,47,64
25620,note_on,60,0,2,,,,,,,,0,67,0
25680,note_on,0,0,2,,,,,,,,0,62,0
25680,note_on,0,0,2,,,,,,,,0,64,64
25680,note_on,60,0,1,,,,,,,,0,47,0
25680,note_on,60,0,2,,,,,,,,0,47,0
25680,note_on,0,0,1,,,,,,,,0,64,64
25680,note_on,0,0,1,,,,,,,,0,49,64
25680,note_on,0,0,1,,,,,,,,0,62,0
25680,note_on,0,0,2,,,,,,,,0,49,64
25740,note_on,0,0,1,,,,,,,,0,66,64
25740,note_on,0,0,2,,,,,,,,0,50,64
25740,note_on,0,0,1,,,,,,,,0,50,64
25740,note_on,60,0,2,,,,,,,,0,49,0
25740,note_on,0,0,2,,,,,,,,0,64,0
25740,note_on,0,0,2,,,,,,,,0,66,64
25740,note_on,0,0,1,,,,,,,,0,64,0
25740,note_on,60,0,1,,,,,,,,0,49,0
25800,note_on,0,0,2,,,,,,,,0,66,0
25800,note_on,0,0,2,,,,,,,,0,67,64
25800,note_on,0,0,2,,,,,,,,0,52,64
25800,note_on,60,0,2,,,,,,,,0,50,0
25800,note_on,60,0,1,,,,,,,,0,50,0
25800,note_on,0,0,1,,,,,,,,0,66,0
25800,note_on,0,0,1,,,,,,,,0,67,64
25800,note_on,0,0,1,,,,,,,,0,52,64
25860,note_on,60,0,1,,,,,,,,0,52,0
25860,note_on,0,0,1,,,,,,,,0,49,64
25860,note_on,60,0,2,,,,,,,,0,52,0
25860,note_on,0,0,2,,,,,,,,0,49,64
25920,note_on,60,0,1,,,,,,,,0,49,0
25920,note_on,0,0,1,,,,,,,,0,50,64
25920,note_on,0,0,2,,,,,,,,0,50,64
25920,note_on,60,0,2,,,,,,,,0,49,0
25980,note_on,0,0,1,,,,,,,,0,66,64
25980,note_on,0,0,2,,,,,,,,0,66,64
25980,note_on,0,0,2,,,,,,,,0,45,64
25980,note_on,0,0,2,,,,,,,,0,67,0
25980,note_on,0,0,1,,,,,,,,0,45,64
25980,note_on,60,0,2,,,,,,,,0,50,0
25980,note_on,0,0,1,,,,,,,,0,67,0
25980,note_on,60,0,1,,,,,,,,0,50,0
26040,note_on,0,0,2,,,,,,,,0,68,64
26040,note_on,0,0,2,,,,,,,,0,47,64
26040,note_on,0,0,1,,,,,,,,0,66,0
26040,note_on,60,0,2,,,,,,,,0,45,0
26040,note_on,0,0,1,,,,,,,,0,68,64
26040,note_on,0,0,2,,,,,,,,0,66,0
26040,note_on,60,0,1,,,,,,,,0,45,0
26040,note_on,0,0,1,,,,,,,,0,47,64
26100,note_on,0,0,2,,,,,,,,0,69,64
26100,note_on,0,0,1,,,,,,,,0,68,0
26100,note_on,0,0,2,,,,,,,,0,68,0
26100,note_on,0,0,2,,,,,,,,0,48,64
26100,note_on,0,0,1,,,,,,,,0,48,64
26100,note_on,0,0,1,,,,,,,,0,69,64
26100,note_on,60,0,1,,,,,,,,0,47,0
26100,note_on,60,0,2,,,,,,,,0,47,0
26160,note_on,0,0,2,,,,,,,,0,50,64
26160,note_on,60,0,2,,,,,,,,0,48,0
26160,note_on,0,0,2,,,,,,,,0,69,0
26160,note_on,0,0,2,,,,,,,,0,71,64
26160,note_on,0,0,1,,,,,,,,0,71,64
26160,note_on,0,0,1,,,,,,,,0,50,64
26160,note_on,0,0,1,,,,,,,,0,69,0
26160,note_on,60,0,1,,,,,,,,0,48,0
26220,note_on,0,0,2,,,,,,,,0,68,64
26220,note_on,60,0,2,,,,,,,,0,71,0
26220,note_on,0,0,1,,,,,,,,0,68,64
26220,note_on,60,0,1,,,,,,,,0,71,0
26280,note_on,60,0,1,,,,,,,,0,68,0
26280,note_on,0,0,2,,,,,,,,0,69,64
26280,note_on,0,0,1,,,,,,,,0,69,64
26280,note_on,60,0,2,,,,,,,,0,68,0
26340,note_on,60,0,2,,,,,,,,0,69,0
26340,note_on,0,0,2,,,,,,,,0,50,0
26340,note_on,0,0,2,,,,,,,,0,64,64
26340,note_on,0,0,2,,,,,,,,0,49,64
26340,note_on,0,0,1,,,,,,,,0,49,64
26340,note_on,0,0,1,,,,,,,,0,64,64
26340,note_on,0,0,1,,,,,,,,0,50,0
26340,note_on,60,0,1,,,,,,,,0,69,0
26400,note_on,0,0,1,,,,,,,,0,66,64
26400,note_on,0,0,1,,,,,,,,0,51,64
26400,note_on,60,0,1,,,,,,,,0,49,0
26400,note_on,0,0,2,,,,,,,,0,64,0
26400,note_on,60,0,2,,,,,,,,0,49,0
26400,note_on,0,0,2,,,,,,,,0,66,64
26400,note_on,0,0,2,,,,,,,,0,51,64
26400,note_on,0,0,1,,,,,,,,0,64,0
26460,note_on,60,0,2,,,,,,,,0,51,0
26460,note_on,0,0,2,,,,,,,,0,66,0
26460,note_on,0,0,2,,,,,,,,0,67,64
26460,note_on,0,0,2,,,,,,,,0,52,64
26460,note_on,60,0,1,,,,,,,,0,51,0
26460,note_on,0,0,1,,,,,,,,0,66,0
26460,note_on,0,0,1,,,,,,,,0,67,64
26460,note_on,0,0,1,,,,,,,,0,52,64
26520,note_on,0,0,2,,,,,,,,0,69,64
26520,note_on,0,0,2,,,,,,,,0,54,64
26520,note_on,60,0,1,,,,,,,,0,52,0
26520,note_on,0,0,2,,,,,,,,0,67,0
26520,note_on,0,0,1,,,,,,,,0,69,64
26520,note_on,0,0,1,,,,,,,,0,54,64
26520,note_on,60,0,2,,,,,,,,0,52,0
26520,note_on,0,0,1,,,,,,,,0,67,0
26580,note_on,0,0,1,,,,,,,,0,51,64
26580,note_on,60,0,2,,,,,,,,0,54,0
26580,note_on,0,0,2,,,,,,,,0,51,64
26580,note_on,60,0,1,,,,,,,,0,54,0
26640,note_on,60,0,1,,,,,,,,0,51,0
26640,note_on,0,0,1,,,,,,,,0,52,64
26640,note_on,60,0,2,,,,,,,,0,51,0
26640,note_on,0,0,2,,,,,,,,0,52,64
26700,note_on,0,0,2,,,,,,,,0,69,0
26700,note_on,0,0,2,,,,,,,,0,68,64
26700,note_on,0,0,2,,,,,,,,0,47,64
26700,note_on,0,0,1,,,,,,,,0,68,64
26700,note_on,0,0,1,,,,,,,,0,69,0
26700,note_on,60,0,1,,,,,,,,0,52,0
26700,note_on,60,0,2,,,,,,,,0,52,0
26700,note_on,0,0,1,,,,,,,,0,47,64
26760,note_on,60,0,1,,,,,,,,0,47,0
26760,note_on,60,0,2,,,,,,,,0,47,0
26760,note_on,0,0,2,,,,,,,,0,68,0
26760,note_on,0,0,2,,,,,,,,0,49,64
26760,note_on,0,0,1,,,,,,,,0,49,64
26760,note_on,0,0,1,,,,,,,,0,70,64
26760,note_on,0,0,2,,,,,,,,0,70,64
26760,note_on,0,0,1,,,,,,,,0,68,0
26820,note_on,0,0,1,,,,,,,,0,70,0
26820,note_on,0,0,2,,,,,,,,0,50,64
26820,note_on,0,0,2,,,,,,,,0,71,64
26820,note_on,0,0,2,,,,,,,,0,70,0
26820,note_on,60,0,2,,,,,,,,0,49,0
26820,note_on,0,0,1,,,,,,,,0,50,64
26820,note_on,0,0,1,,,,,,,,0,71,64
26820,note_on,60,0,1,,,,,,,,0,49,0
26880,note_on,0,0,1,,,,,,,,0,73,64
26880,note_on,0,0,1,,,,,,,,0,52,64
26880,note_on,0,0,1,,,,,,,,0,71,0
26880,note_on,60,0,1,,,,,,,,0,50,0
26880,note_on,0,0,2,,,,,,,,0,52,64
26880,note_on,60,0,2,,,,,,,,0,50,0
26880,note_on,0,0,2,,,,,,,,0,71,0
26880,note_on,0,0,2,,,,,,,,0,73,64
26940,note_on,0,0,2,,,,,,,,0,70,64
26940,note_on,60,0,2,,,,,,,,0,73,0
26940,note_on,60,0,1,,,,,,,,0,73,0
26940,note_on,0,0,1,,,,,,,,0,70,64
27000,note_on,0,0,2,,,,,,,,0,71,64
27000,note_on,60,0,1,,,,,,,,0,70,0
27000,note_on,0,0,1,,,,,,,,0,71,64
27000,note_on,60,0,2,,,,,,,,0,70,0
27060,note_on,0,0,1,,,,,,,,0,52,0
27060,note_on,60,0,1,,,,,,,,0,71,0
27060,note_on,0,0,1,,,,,,,,0,66,64
27060,note_on,60,0,2,,,,,,,,0,71,0
27060,note_on,0,0,2,,,,,,,,0,66,64
27060,note_on,0,0,2,,,,,,,,0,50,64
27060,note_on,0,0,2,,,,,,,,0,52,0
27060,note_on,0,0,1,,,,,,,,0,50,64
27120,note_on,60,0,1,,,,,,,,0,50,0
27120,note_on,0,0,1,,,,,,,,0,66,0
27120,note_on,0,0,1,,,,,,,,0,68,64
27120,note_on,0,0,1,,,,,,,,0,52,64
27120,note_on,60,0,2,,,,,,,,0,50,0
27120,note_on,0,0,2,,,,,,,,0,66,0
27120,note_on,0,0,2,,,,,,,,0,68,64
27120,note_on,0,0,2,,,,,,,,0,52,64
27180,note_on,60,0,2,,,,,,,,0,52,0
27180,note_on,0,0,2,,,,,,,,0,68,0
27180,note_on,0,0,1,,,,,,,,0,70,64
27180,note_on,0,0,1,,,,,,,,0,68,0
27180,note_on,60,0,1,,,,,,,,0,52,0
27180,note_on,0,0,2,,,,,,,,0,70,64
27180,note_on,0,0,1,,,,,,,,0,54,64
27180,note_on,0,0,2,,,,,,,,0,54,64
27240,note_on,60,0,2,,,,,,,,0,54,0
27240,note_on,0,0,1,,,,,,,,0,55,64
27240,note_on,0,0,1,,,,,,,,0,71,64
27240,note_on,0,0,1,,,,,,,,0,70,0
27240,note_on,60,0,1,,,,,,,,0,54,0
27240,note_on,0,0,2,,,,,,,,0,70,0
27240,note_on,0,0,2,,,,,,,,0,71,64
27240,note_on,0,0,2,,,,,,,,0,55,64
27300,note_on,0,0,1,,,,,,,,0,52,64
27300,note_on,60,0,2,,,,,,,,0,55,0
27300,note_on,0,0,2,,,,,,,,0,52,64
27300,note_on,60,0,1,,,,,,,,0,55,0
27360,note_on,0,0,2,,,,,,,,0,55,76
27360,note_on,60,0,2,,,,,,,,0,52,0
27360,note_on,0,0,1,,,,,,,,0,55,76
27360,note_on,60,0,1,,,,,,,,0,52,0
27380,note_on,0,0,2,,,,,,,,0,54,48
27380,note_on,20,0,2,,,,,,,,0,55,0
27380,note_on,0,0,1,,,,,,,,0,54,48
27380,note_on,20,0,1,,,,,,,,0,55,0
27400,note_on,20,0,1,,,,,,,,0,55,48
27400,note_on,20,0,2,,,,,,,,0,55,48
27402,note_on,2,0,2,,,,,,,,0,54,0
27402,note_on,2,0,1,,,,,,,,0,54,0
27420,note_on,18,0,1,,,,,,,,0,71,0
27420,note_on,0,0,1,,,,,,,,0,70,64
27420,note_on,0,0,1,,,,,,,,0,54,48
27420,note_on,18,0,2,,,,,,,,0,71,0
27420,note_on,0,0,2,,,,,,,,0,70,64
27420,note_on,0,0,2,,,,,,,,0,54,48
27422,note_on,2,0,2,,,,,,,,0,55,0
27422,note_on,2,0,1,,,,,,,,0,55,0
27440,note_on,18,0,1,,,,,,,,0,55,48
27440,note_on,18,0,2,,,,,,,,0,55,48
27442,note_on,2,0,2,,,,,,,,0,54,0
27442,note_on,2,0,1,,,,,,,,0,54,0
27460,note_on,18,0,2,,,,,,,,0,54,49
27460,note_on,18,0,1,,,,,,,,0,54,49
27462,note_on,2,0,2,,,,,,,,0,55,0
27462,note_on,2,0,1,,,,,,,,0,55,0
27480,note_on,0,0,1,,,,,,,,0,71,64
27480,note_on,0,0,1,,,,,,,,0,55,49
27480,note_on,0,0,2,,,,,,,,0,55,49
27480,note_on,18,0,1,,,,,,,,0,70,0
27480,note_on,0,0,2,,,,,,,,0,71,64
27480,note_on,18,0,2,,,,,,,,0,70,0
27482,note_on,2,0,2,,,,,,,,0,54,0
27482,note_on,2,0,1,,,,,,,,0,54,0
27500,note_on,18,0,2,,,,,,,,0,54,49
27500,note_on,18,0,1,,,,,,,,0,54,49
27502,note_on,2,0,2,,,,,,,,0,55,0
27502,note_on,2,0,1,,,,,,,,0,55,0
27520,note_on,18,0,1,,,,,,,,0,55,49
27520,note_on,18,0,2,,,,,,,,0,55,49
27522,note_on,2,0,2,,,,,,,,0,54,0
27522,note_on,2,0,1,,,,,,,,0,54,0
27540,note_on,0,0,2,,,,,,,,0,73,64
27540,note_on,0,0,2,,,,,,,,0,54,49
27540,note_on,0,0,1,,,,,,,,0,73,64
27540,note_on,18,0,2,,,,,,,,0,71,0
27540,note_on,18,0,1,,,,,,,,0,71,0
27540,note_on,0,0,1,,,,,,,,0,54,49
27542,note_on,2,0,1,,,,,,,,0,55,0
27542,note_on,2,0,2,,,,,,,,0,55,0
27560,note_on,18,0,1,,,,,,,,0,55,50
27560,note_on,18,0,2,,,,,,,,0,55,50
27562,note_on,2,0,2,,,,,,,,0,54,0
27562,note_on,2,0,1,,,,,,,,0,54,0
27580,note_on,18,0,1,,,,,,,,0,54,50
27580,note_on,18,0,2,,,,,,,,0,54,50
27582,note_on,2,0,2,,,,,,,,0,55,0
27582,note_on,2,0,1,,,,,,,,0,55,0
27600,note_on,0,0,2,,,,,,,,0,74,64
27600,note_on,0,0,2,,,,,,,,0,55,50
27600,note_on,0,0,1,,,,,,,,0,55,50
27600,note_on,18,0,2,,,,,,,,0,73,0
27600,note_on,0,0,1,,,,,,,,0,74,64
27600,note_on,18,0,1,,,,,,,,0,73,0
27602,note_on,2,0,2,,,,,,,,0,54,0
27602,note_on,2,0,1,,,,,,,,0,54,0
27620,note_on,18,0,2,,,,,,,,0,54,50
27620,note_on,18,0,1,,,,,,,,0,54,50
27622,note_on,2,0,2,,,,,,,,0,55,0
27622,note_on,2,0,1,,,,,,,,0,55,0
27640,note_on,18,0,2,,,,,,,,0,55,51
27640,note_on,18,0,1,,,,,,,,0,55,51
27642,note_on,2,0,2,,,,,,,,0,54,0
27642,note_on,2,0,1,,,,,,,,0,54,0
27660,note_on,0,0,2,,,,,,,,0,54,51
27660,note_on,0,0,1,,,,,,,,0,71,64
27660,note_on,0,0,1,,,,,,,,0,54,51
27660,note_on,18,0,1,,,,,,,,0,74,0
27660,note_on,0,0,2,,,,,,,,0,71,64
27660,note_on,18,0,2,,,,,,,,0,74,0
27662,note_on,2,0,1,,,,,,,,0,55,0
27662,note_on,2,0,2,,,,,,,,0,55,0
27680,note_on,18,0,2,,,,,,,,0,55,51
27680,note_on,18,0,1,,,,,,,,0,55,51
27682,note_on,2,0,2,,,,,,,,0,54,0
27682,note_on,2,0,1,,,,,,,,0,54,0
27700,note_on,18,0,2,,,,,,,,0,54,51
27700,note_on,18,0,1,,,,,,,,0,54,51
27702,note_on,2,0,2,,,,,,,,0,55,0
27702,note_on,2,0,1,,,,,,,,0,55,0
27720,note_on,18,0,2,,,,,,,,0,71,0
27720,note_on,0,0,2,,,,,,,,0,55,52
27720,note_on,0,0,1,,,,,,,,0,73,64
27720,note_on,0,0,1,,,,,,,,0,55,52
27720,note_on,0,0,2,,,,,,,,0,73,64
27720,note_on,18,0,1,,,,,,,,0,71,0
27722,note_on,2,0,2,,,,,,,,0,54,0
27722,note_on,2,0,1,,,,,,,,0,54,0
27740,note_on,18,0,1,,,,,,,,0,54,52
27740,note_on,18,0,2,,,,,,,,0,54,52
27742,note_on,2,0,2,,,,,,,,0,55,0
27742,note_on,2,0,1,,,,,,,,0,55,0
27760,note_on,18,0,1,,,,,,,,0,55,52
27760,note_on,18,0,2,,,,,,,,0,55,52
27762,note_on,2,0,1,,,,,,,,0,54,0
27762,note_on,2,0,2,,,,,,,,0,54,0
27780,note_on,0,0,1,,,,,,,,0,54,52
27780,note_on,0,0,1,,,,,,,,0,71,64
27780,note_on,0,0,2,,,,,,,,0,71,64
27780,note_on,0,0,2,,,,,,,,0,54,52
27780,note_on,18,0,2,,,,,,,,0,73,0
27780,note_on,18,0,1,,,,,,,,0,73,0
27782,note_on,2,0,2,,,,,,,,0,55,0
27782,note_on,2,0,1,,,,,,,,0,55,0
27800,note_on,18,0,2,,,,,,,,0,55,52
27800,note_on,18,0,1,,,,,,,,0,55,52
27802,note_on,2,0,1,,,,,,,,0,54,0
27802,note_on,2,0,2,,,,,,,,0,54,0
27820,note_on,18,0,2,,,,,,,,0,54,53
27820,note_on,18,0,1,,,,,,,,0,54,53
27822,note_on,2,0,1,,,,,,,,0,55,0
27822,note_on,2,0,2,,,,,,,,0,55,0
27840,note_on,18,0,1,,,,,,,,0,71,0
27840,note_on,0,0,1,,,,,,,,0,55,53
27840,note_on,0,0,2,,,,,,,,0,70,64
27840,note_on,0,0,2,,,,,,,,0,55,53
27840,note_on,18,0,2,,,,,,,,0,71,0
27840,note_on,0,0,1,,,,,,,,0,70,64
27842,note_on,2,0,1,,,,,,,,0,54,0
27842,note_on,2,0,2,,,,,,,,0,54,0
27860,note_on,18,0,2,,,,,,,,0,54,53
27860,note_on,18,0,1,,,,,,,,0,54,53
27862,note_on,2,0,1,,,,,,,,0,55,0
27862,note_on,2,0,2,,,,,,,,0,55,0
27880,note_on,18,0,1,,,,,,,,0,55,53
27880,note_on,18,0,2,,,,,,,,0,55,53
27882,note_on,2,0,1,,,,,,,,0,54,0
27882,note_on,2,0,2,,,,,,,,0,54,0
27900,note_on,18,0,2,,,,,,,,0,70,0
27900,note_on,0,0,2,,,,,,,,0,54,54
27900,note_on,0,0,2,,,,,,,,0,68,64
27900,note_on,0,0,1,,,,,,,,0,68,64
27900,note_on,18,0,1,,,,,,,,0,70,0
27900,note_on,0,0,1,,,,,,,,0,54,54
27902,note_on,2,0,1,,,,,,,,0,55,0
27902,note_on,2,0,2,,,,,,,,0,55,0
27920,note_on,18,0,1,,,,,,,,0,55,54
27920,note_on,18,0,2,,,,,,,,0,55,54
27922,note_on,2,0,1,,,,,,,,0,54,0
27922,note_on,2,0,2,,,,,,,,0,54,0
27940,note_on,18,0,1,,,,,,,,0,54,54
27940,note_on,18,0,2,,,,,,,,0,54,54
27942,note_on,2,0,2,,,,,,,,0,55,0
27942,note_on,2,0,1,,,,,,,,0,55,0
27960,note_on,0,0,1,,,,,,,,0,66,64
27960,note_on,0,0,1,,,,,,,,0,55,54
27960,note_on,18,0,2,,,,,,,,0,68,0
27960,note_on,0,0,2,,,,,,,,0,55,54
27960,note_on,0,0,2,,,,,,,,0,66,64
27960,note_on,18,0,1,,,,,,,,0,68,0
27962,note_on,2,0,1,,,,,,,,0,54,0
27962,note_on,2,0,2,,,,,,,,0,54,0
27980,note_on,18,0,2,,,,,,,,0,54,55
27980,note_on,18,0,1,,,,,,,,0,54,55
27982,note_on,2,0,2,,,,,,,,0,55,0
27982,note_on,2,0,1,,,,,,,,0,55,0
28000,note_on,18,0,1,,,,,,,,0,55,55
28000,note_on,18,0,2,,,,,,,,0,55,55
28002,note_on,2,0,2,,,,,,,,0,54,0
28002,note_on,2,0,1,,,,,,,,0,54,0
28020,note_on,18,0,1,,,,,,,,0,66,0
28020,note_on,18,0,2,,,,,,,,0,66,0
28020,note_on,0,0,2,,,,,,,,0,54,55
28020,note_on,0,0,2,,,,,,,,0,64,64
28020,note_on,0,0,1,,,,,,,,0,54,55
28020,note_on,0,0,1,,,,,,,,0,64,64
28022,note_on,2,0,1,,,,,,,,0,55,0
28022,note_on,2,0,2,,,,,,,,0,55,0
28040,note_on,18,0,1,,,,,,,,0,55,55
28040,note_on,18,0,2,,,,,,,,0,55,55
28042,note_on,2,0,1,,,,,,,,0,54,0
28042,note_on,2,0,2,,,,,,,,0,54,0
28060,note_on,18,0,2,,,,,,,,0,54,55
28060,note_on,18,0,1,,,,,,,,0,54,55
28062,note_on,2,0,2,,,,,,,,0,55,0
28062,note_on,2,0,1,,,,,,,,0,55,0
28080,note_on,0,0,1,,,,,,,,0,55,56
28080,note_on,18,0,1,,,,,,,,0,64,0
28080,note_on,0,0,1,,,,,,,,0,62,64
28080,note_on,0,0,2,,,,,,,,0,55,56
28080,note_on,18,0,2,,,,,,,,0,64,0
28080,note_on,0,0,2,,,,,,,,0,62,64
28082,note_on,2,0,1,,,,,,,,0,54,0
28082,note_on,2,0,2,,,,,,,,0,54,0
28100,note_on,18,0,1,,,,,,,,0,54,56
28100,note_on,18,0,2,,,,,,,,0,54,56
28102,note_on,2,0,1,,,,,,,,0,55,0
28102,note_on,2,0,2,,,,,,,,0,55,0
28120,note_on,18,0,2,,,,,,,,0,55,56
28120,note_on,18,0,1,,,,,,,,0,55,56
28122,note_on,2,0,1,,,,,,,,0,54,0
28122,note_on,2,0,2,,,,,,,,0,54,0
28140,note_on,0,0,2,,,,,,,,0,66,64
28140,note_on,0,0,2,,,,,,,,0,54,56
28140,note_on,18,0,2,,,,,,,,0,62,0
28140,note_on,0,0,1,,,,,,,,0,66,64
28140,note_on,18,0,1,,,,,,,,0,62,0
28140,note_on,0,0,1,,,,,,,,0,54,56
28142,note_on,2,0,2,,,,,,,,0,55,0
28142,note_on,2,0,1,,,,,,,,0,55,0
28160,note_on,18,0,1,,,,,,,,0,55,57
28160,note_on,18,0,2,,,,,,,,0,55,57
28162,note_on,2,0,1,,,,,,,,0,54,0
28162,note_on,2,0,2,,,,,,,,0,54,0
28180,note_on,18,0,2,,,,,,,,0,54,57
28180,note_on,18,0,1,,,,,,,,0,54,57
28182,note_on,2,0,1,,,,,,,,0,55,0
28182,note_on,2,0,2,,,,,,,,0,55,0
28200,note_on,18,0,1,,,,,,,,0,66,0
28200,note_on,18,0,2,,,,,,,,0,66,0
28200,note_on,0,0,1,,,,,,,,0,55,57
28200,note_on,0,0,1,,,,,,,,0,68,64
28200,note_on,0,0,2,,,,,,,,0,68,64
28200,note_on,0,0,2,,,,,,,,0,55,57
28202,note_on,2,0,2,,,,,,,,0,54,0
28202,note_on,2,0,1,,,,,,,,0,54,0
28220,note_on,18,0,2,,,,,,,,0,54,57
28220,note_on,18,0,1,,,,,,,,0,54,57
28222,note_on,2,0,2,,,,,,,,0,55,0
28222,note_on,2,0,1,,,,,,,,0,55,0
28240,note_on,18,0,1,,,,,,,,0,55,58
28240,note_on,18,0,2,,,,,,,,0,55,58
28242,note_on,2,0,1,,,,,,,,0,54,0
28242,note_on,2,0,2,,,,,,,,0,54,0
28260,note_on,18,0,2,,,,,,,,0,68,0
28260,note_on,0,0,2,,,,,,,,0,54,58
28260,note_on,0,0,2,,,,,,,,0,70,64
28260,note_on,18,0,1,,,,,,,,0,68,0
28260,note_on,0,0,1,,,,,,,,0,70,64
28260,note_on,0,0,1,,,,,,,,0,54,58
28262,note_on,2,0,2,,,,,,,,0,55,0
28262,note_on,2,0,1,,,,,,,,0,55,0
28280,note_on,18,0,2,,,,,,,,0,55,58
28280,note_on,18,0,1,,,,,,,,0,55,58
28282,note_on,2,0,1,,,,,,,,0,54,0
28282,note_on,2,0,2,,,,,,,,0,54,0
28300,note_on,18,0,1,,,,,,,,0,54,58
28300,note_on,18,0,2,,,,,,,,0,54,58
28302,note_on,2,0,1,,,,,,,,0,55,0
28302,note_on,2,0,2,,,,,,,,0,55,0
28320,note_on,0,0,1,,,,,,,,0,71,64
28320,note_on,0,0,2,,,,,,,,0,71,64
28320,note_on,18,0,1,,,,,,,,0,70,0
28320,note_on,0,0,2,,,,,,,,0,55,58
28320,note_on,18,0,2,,,,,,,,0,70,0
28320,note_on,0,0,1,,,,,,,,0,55,58
28322,note_on,2,0,1,,,,,,,,0,54,0
28322,note_on,2,0,2,,,,,,,,0,54,0
28340,note_on,18,0,1,,,,,,,,0,54,59
28340,note_on,18,0,2,,,,,,,,0,54,59
28342,note_on,2,0,1,,,,,,,,0,55,0
28342,note_on,2,0,2,,,,,,,,0,55,0
28360,note_on,18,0,2,,,,,,,,0,55,59
28360,note_on,18,0,1,,,,,,,,0,55,59
28362,note_on,2,0,1,,,,,,,,0,54,0
28362,note_on,2,0,2,,,,,,,,0,54,0
28380,note_on,0,0,1,,,,,,,,0,68,64
28380,note_on,0,0,2,,,,,,,,0,54,59
28380,note_on,0,0,2,,,,,,,,0,68,64
28380,note_on,18,0,1,,,,,,,,0,71,0
28380,note_on,0,0,1,,,,,,,,0,54,59
28380,note_on,18,0,2,,,,,,,,0,71,0
28382,note_on,2,0,1,,,,,,,,0,55,0
28382,note_on,2,0,2,,,,,,,,0,55,0
28400,note_on,18,0,2,,,,,,,,0,55,59
28400,note_on,18,0,1,,,,,,,,0,55,59
28402,note_on,2,0,2,,,,,,,,0,54,0
28402,note_on,2,0,1,,,,,,,,0,54,0
28420,note_on,18,0,1,,,,,,,,0,54,60
28420,note_on,18,0,2,,,,,,,,0,54,60
28422,note_on,2,0,2,,,,,,,,0,55,0
28422,note_on,2,0,1,,,,,,,,0,55,0
28440,note_on,18,0,2,,,,,,,,0,68,0
28440,note_on,0,0,2,,,,,,,,0,70,64
28440,note_on,18,0,1,,,,,,,,0,68,0
28440,note_on,0,0,1,,,,,,,,0,55,60
28440,note_on,0,0,1,,,,,,,,0,70,64
28440,note_on,0,0,2,,,,,,,,0,55,60
28442,note_on,2,0,2,,,,,,,,0,54,0
28442,note_on,2,0,1,,,,,,,,0,54,0
28460,note_on,18,0,1,,,,,,,,0,54,60
28460,note_on,18,0,2,,,,,,,,0,54,60
28462,note_on,2,0,1,,,,,,,,0,55,0
28462,note_on,2,0,2,,,,,,,,0,55,0
28480,note_on,18,0,1,,,,,,,,0,55,60
28480,note_on,18,0,2,,,,,,,,0,55,60
28482,note_on,2,0,1,,,,,,,,0,54,0
28482,note_on,2,0,2,,,,,,,,0,54,0
28500,note_on,0,0,1,,,,,,,,0,54,61
28500,note_on,0,0,2,,,,,,,,0,54,61
28500,note_on,0,0,2,,,,,,,,0,68,64
28500,note_on,0,0,1,,,,,,,,0,68,64
28500,note_on,18,0,1,,,,,,,,0,70,0
28500,note_on,18,0,2,,,,,,,,0,70,0
28502,note_on,2,0,2,,,,,,,,0,55,0
28502,note_on,2,0,1,,,,,,,,0,55,0
28520,note_on,18,0,2,,,,,,,,0,55,61
28520,note_on,18,0,1,,,,,,,,0,55,61
28522,note_on,2,0,1,,,,,,,,0,54,0
28522,note_on,2,0,2,,,,,,,,0,54,0
28540,note_on,18,0,1,,,,,,,,0,54,61
28540,note_on,18,0,2,,,,,,,,0,54,61
28542,note_on,2,0,2,,,,,,,,0,55,0
28542,note_on,2,0,1,,,,,,,,0,55,0
28560,note_on,0,0,1,,,,,,,,0,55,61
28560,note_on,0,0,1,,,,,,,,0,66,64
28560,note_on,18,0,1,,,,,,,,0,68,0
28560,note_on,0,0,2,,,,,,,,0,66,64
28560,note_on,0,0,2,,,,,,,,0,55,61
28560,note_on,18,0,2,,,,,,,,0,68,0
28562,note_on,2,0,2,,,,,,,,0,54,0
28562,note_on,2,0,1,,,,,,,,0,54,0
28580,note_on,18,0,1,,,,,,,,0,54,62
28580,note_on,18,0,2,,,,,,,,0,54,62
28582,note_on,2,0,1,,,,,,,,0,55,0
28582,note_on,2,0,2,,,,,,,,0,55,0
28600,note_on,18,0,2,,,,,,,,0,55,62
28600,note_on,18,0,1,,,,,,,,0,55,62
28602,note_on,2,0,1,,,,,,,,0,54,0
28602,note_on,2,0,2,,,,,,,,0,54,0
28620,note_on,0,0,2,,,,,,,,0,54,62
28620,note_on,0,0,2,,,,,,,,0,64,64
28620,note_on,18,0,2,,,,,,,,0,66,0
28620,note_on,0,0,1,,,,,,,,0,54,62
28620,note_on,18,0,1,,,,,,,,0,66,0
28620,note_on,0,0,1,,,,,,,,0,64,64
28622,note_on,2,0,2,,,,,,,,0,55,0
28622,note_on,2,0,1,,,,,,,,0,55,0
28640,note_on,18,0,2,,,,,,,,0,55,62
28640,note_on,18,0,1,,,,,,,,0,55,62
28642,note_on,2,0,2,,,,,,,,0,54,0
28642,note_on,2,0,1,,,,,,,,0,54,0
28660,note_on,18,0,2,,,,,,,,0,54,62
28660,note_on,18,0,1,,,,,,,,0,54,62
28662,note_on,2,0,2,,,,,,,,0,55,0
28662,note_on,2,0,1,,,,,,,,0,55,0
28680,note_on,18,0,1,,,,,,,,0,64,0
28680,note_on,0,0,2,,,,,,,,0,55,63
28680,note_on,0,0,1,,,,,,,,0,62,64
28680,note_on,0,0,2,,,,,,,,0,62,64
28680,note_on,18,0,2,,,,,,,,0,64,0
28680,note_on,0,0,1,,,,,,,,0,55,63
28682,note_on,2,0,2,,,,,,,,0,54,0
28682,note_on,2,0,1,,,,,,,,0,54,0
28700,note_on,18,0,1,,,,,,,,0,54,63
28700,note_on,18,0,2,,,,,,,,0,54,63
28702,note_on,2,0,1,,,,,,,,0,55,0
28702,note_on,2,0,2,,,,,,,,0,55,0
28720,note_on,18,0,2,,,,,,,,0,55,63
28720,note_on,18,0,1,,,,,,,,0,55,63
28722,note_on,2,0,2,,,,,,,,0,54,0
28722,note_on,2,0,1,,,,,,,,0,54,0
28740,note_on,18,0,2,,,,,,,,0,62,0
28740,note_on,0,0,2,,,,,,,,0,61,64
28740,note_on,0,0,2,,,,,,,,0,54,63
28740,note_on,0,0,1,,,,,,,,0,54,63
28740,note_on,0,0,1,,,,,,,,0,61,64
28740,note_on,18,0,1,,,,,,,,0,62,0
28742,note_on,2,0,1,,,,,,,,0,55,0
28742,note_on,2,0,2,,,,,,,,0,55,0
28790,note_on,48,0,2,,,,,,,,0,61,0
28790,note_on,48,0,1,,,,,,,,0,61,0
28800,note_on,10,0,2,,,,,,,,0,61,76
28800,note_on,10,0,1,,,,,,,,0,61,76
28806,note_on,6,0,1,,,,,,,,0,54,0
28806,note_on,6,0,2,,,,,,,,0,54,0
28820,note_on,0,0,1,,,,,,,,0,59,48
28820,note_on,0,0,2,,,,,,,,0,59,48
28820,note_on,14,0,2,,,,,,,,0,61,0
28820,note_on,14,0,1,,,,,,,,0,61,0
28840,note_on,20,0,1,,,,,,,,0,61,48
28840,note_on,20,0,2,,,,,,,,0,61,48
28842,note_on,2,0,1,,,,,,,,0,59,0
28842,note_on,2,0,2,,,,,,,,0,59,0
28860,note_on,0,0,1,,,,,,,,0,51,64
28860,note_on,18,0,1,,,,,,,,0,59,48
28860,note_on,18,0,2,,,,,,,,0,59,48
28860,note_on,0,0,2,,,,,,,,0,51,64
28862,note_on,2,0,1,,,,,,,,0,61,0
28862,note_on,2,0,2,,,,,,,,0,61,0
28880,note_on,18,0,1,,,,,,,,0,61,48
28880,note_on,18,0,2,,,,,,,,0,61,48
28882,note_on,2,0,1,,,,,,,,0,59,0
28882,note_on,2,0,2,,,,,,,,0,59,0
28900,note_on,18,0,1,,,,,,,,0,59,48
28900,note_on,18,0,2,,,,,,,,0,59,48
28902,note_on,2,0,1,,,,,,,,0,61,0
28902,note_on,2,0,2,,,,,,,,0,61,0
28920,note_on,18,0,2,,,,,,,,0,51,0
28920,note_on,0,0,2,,,,,,,,0,61,49
28920,note_on,0,0,2,,,,,,,,0,52,64
28920,note_on,0,0,1,,,,,,,,0,61,49
28920,note_on,0,0,1,,,,,,,,0,52,64
28920,note_on,18,0,1,,,,,,,,0,51,0
28922,note_on,2,0,1,,,,,,,,0,59,0
28922,note_on,2,0,2,,,,,,,,0,59,0
28940,note_on,18,0,1,,,,,,,,0,59,49
28940,note_on,18,0,2,,,,,,,,0,59,49
28942,note_on,2,0,1,,,,,,,,0,61,0
28942,note_on,2,0,2,,,,,,,,0,61,0
28960,note_on,18,0,1,,,,,,,,0,61,49
28960,note_on,18,0,2,,,,,,,,0,61,49
28962,note_on,2,0,2,,,,,,,,0,59,0
28962,note_on,2,0,1,,,,,,,,0,59,0
28980,note_on,0,0,2,,,,,,,,0,59,49
28980,note_on,0,0,2,,,,,,,,0,54,64
28980,note_on,0,0,1,,,,,,,,0,59,49
28980,note_on,18,0,1,,,,,,,,0,52,0
28980,note_on,18,0,2,,,,,,,,0,52,0
28980,note_on,0,0,1,,,,,,,,0,54,64
28982,note_on,2,0,2,,,,,,,,0,61,0
28982,note_on,2,0,1,,,,,,,,0,61,0
29000,note_on,18,0,2,,,,,,,,0,61,50
29000,note_on,18,0,1,,,,,,,,0,61,50
29002,note_on,2,0,1,,,,,,,,0,59,0
29002,note_on,2,0,2,,,,,,,,0,59,0
29020,note_on,18,0,2,,,,,,,,0,59,50
29020,note_on,18,0,1,,,,,,,,0,59,50
29022,note_on,2,0,1,,,,,,,,0,61,0
29022,note_on,2,0,2,,,,,,,,0,61,0
29040,note_on,18,0,2,,,,,,,,0,54,0
29040,note_on,0,0,1,,,,,,,,0,61,50
29040,note_on,0,0,1,,,,,,,,0,55,64
29040,note_on,0,0,2,,,,,,,,0,61,50
29040,note_on,0,0,2,,,,,,,,0,55,64
29040,note_on,18,0,1,,,,,,,,0,54,0
29042,note_on,2,0,1,,,,,,,,0,59,0
29042,note_on,2,0,2,,,,,,,,0,59,0
29060,note_on,18,0,2,,,,,,,,0,59,50
29060,note_on,18,0,1,,,,,,,,0,59,50
29062,note_on,2,0,1,,,,,,,,0,61,0
29062,note_on,2,0,2,,,,,,,,0,61,0
29080,note_on,18,0,2,,,,,,,,0,61,50
29080,note_on,18,0,1,,,,,,,,0,61,50
29082,note_on,2,0,2,,,,,,,,0,59,0
29082,note_on,2,0,1,,,,,,,,0,59,0
29100,note_on,0,0,2,,,,,,,,0,59,51
29100,note_on,18,0,2,,,,,,,,0,55,0
29100,note_on,0,0,1,,,,,,,,0,59,51
29100,note_on,18,0,1,,,,,,,,0,55,0
29100,note_on,0,0,1,,,,,,,,0,52,64
29100,note_on,0,0,2,,,,,,,,0,52,64
29102,note_on,2,0,2,,,,,,,,0,61,0
29102,note_on,2,0,1,,,,,,,,0,61,0
29120,note_on,18,0,2,,,,,,,,0,61,51
29120,note_on,18,0,1,,,,,,,,0,61,51
29122,note_on,2,0,2,,,,,,,,0,59,0
29122,note_on,2,0,1,,,,,,,,0,59,0
29140,note_on,18,0,2,,,,,,,,0,59,51
29140,note_on,18,0,1,,,,,,,,0,59,51
29142,note_on,2,0,1,,,,,,,,0,61,0
29142,note_on,2,0,2,,,,,,,,0,61,0
29160,note_on,18,0,2,,,,,,,,0,52,0
29160,note_on,0,0,2,,,,,,,,0,54,64
29160,note_on,0,0,1,,,,,,,,0,61,51
29160,note_on,18,0,1,,,,,,,,0,52,0
29160,note_on,0,0,2,,,,,,,,0,61,51
29160,note_on,0,0,1,,,,,,,,0,54,64
29162,note_on,2,0,1,,,,,,,,0,59,0
29162,note_on,2,0,2,,,,,,,,0,59,0
29180,note_on,18,0,2,,,,,,,,0,59,52
29180,note_on,18,0,1,,,,,,,,0,59,52
29182,note_on,2,0,2,,,,,,,,0,61,0
29182,note_on,2,0,1,,,,,,,,0,61,0
29200,note_on,18,0,2,,,,,,,,0,61,52
29200,note_on,18,0,1,,,,,,,,0,61,52
29202,note_on,2,0,2,,,,,,,,0,59,0
29202,note_on,2,0,1,,,,,,,,0,59,0
29220,note_on,0,0,1,,,,,,,,0,52,64
29220,note_on,0,0,1,,,,,,,,0,59,52
29220,note_on,18,0,1,,,,,,,,0,54,0
29220,note_on,0,0,2,,,,,,,,0,52,64
29220,note_on,0,0,2,,,,,,,,0,59,52
29220,note_on,18,0,2,,,,,,,,0,54,0
29222,note_on,2,0,1,,,,,,,,0,61,0
29222,note_on,2,0,2,,,,,,,,0,61,0
29240,note_on,18,0,1,,,,,,,,0,61,52
29240,note_on,18,0,2,,,,,,,,0,61,52
29242,note_on,2,0,1,,,,,,,,0,59,0
29242,note_on,2,0,2,,,,,,,,0,59,0
29260,note_on,18,0,1,,,,,,,,0,59,52
29260,note_on,18,0,2,,,,,,,,0,59,52
29262,note_on,2,0,2,,,,,,,,0,61,0
29262,note_on,2,0,1,,,,,,,,0,61,0
29280,note_on,0,0,1,,,,,,,,0,51,64
29280,note_on,0,0,1,,,,,,,,0,61,53
29280,note_on,18,0,1,,,,,,,,0,52,0
29280,note_on,0,0,2,,,,,,,,0,51,64
29280,note_on,18,0,2,,,,,,,,0,52,0
29280,note_on,0,0,2,,,,,,,,0,61,53
29282,note_on,2,0,1,,,,,,,,0,59,0
29282,note_on,2,0,2,,,,,,,,0,59,0
29300,note_on,18,0,1,,,,,,,,0,59,53
29300,note_on,18,0,2,,,,,,,,0,59,53
29302,note_on,2,0,1,,,,,,,,0,61,0
29302,note_on,2,0,2,,,,,,,,0,61,0
29320,note_on,18,0,2,,,,,,,,0,61,53
29320,note_on,18,0,1,,,,,,,,0,61,53
29322,note_on,2,0,1,,,,,,,,0,59,0
29322,note_on,2,0,2,,,,,,,,0,59,0
29340,note_on,18,0,1,,,,,,,,0,51,0
29340,note_on,0,0,1,,,,,,,,0,59,53
29340,note_on,0,0,1,,,,,,,,0,49,64
29340,note_on,0,0,2,,,,,,,,0,49,64
29340,note_on,18,0,2,,,,,,,,0,51,0
29340,note_on,0,0,2,,,,,,,,0,59,53
29342,note_on,2,0,2,,,,,,,,0,61,0
29342,note_on,2,0,1,,,,,,,,0,61,0
29360,note_on,18,0,1,,,,,,,,0,61,53
29360,note_on,18,0,2,,,,,,,,0,61,53
29362,note_on,2,0,1,,,,,,,,0,59,0
29362,note_on,2,0,2,,,,,,,,0,59,0
29380,note_on,18,0,2,,,,,,,,0,59,54
29380,note_on,18,0,1,,,,,,,,0,59,54
29382,note_on,2,0,2,,,,,,,,0,61,0
29382,note_on,2,0,1,,,,,,,,0,61,0
29400,note_on,18,0,1,,,,,,,,0,49,0
29400,note_on,0,0,1,,,,,,,,0,61,54
29400,note_on,0,0,1,,,,,,,,0,47,64
29400,note_on,0,0,2,,,,,,,,0,47,64
29400,note_on,0,0,2,,,,,,,,0,61,54
29400,note_on,18,0,2,,,,,,,,0,49,0
29402,note_on,2,0,1,,,,,,,,0,59,0
29402,note_on,2,0,2,,,,,,,,0,59,0
29420,note_on,18,0,2,,,,,,,,0,59,54
29420,note_on,18,0,1,,,,,,,,0,59,54
29422,note_on,2,0,2,,,,,,,,0,61,0
29422,note_on,2,0,1,,,,,,,,0,61,0
29440,note_on,18,0,2,,,,,,,,0,61,54
29440,note_on,18,0,1,,,,,,,,0,61,54
29442,note_on,2,0,2,,,,,,,,0,59,0
29442,note_on,2,0,1,,,,,,,,0,59,0
29460,note_on,18,0,2,,,,,,,,0,47,0
29460,note_on,0,0,1,,,,,,,,0,45,64
29460,note_on,0,0,2,,,,,,,,0,59,55
29460,note_on,0,0,1,,,,,,,,0,59,55
29460,note_on,18,0,1,,,,,,,,0,47,0
29460,note_on,0,0,2,,,,,,,,0,45,64
29462,note_on,2,0,1,,,,,,,,0,61,0
29462,note_on,2,0,2,,,,,,,,0,61,0
29480,note_on,18,0,2,,,,,,,,0,61,55
29480,note_on,18,0,1,,,,,,,,0,61,55
29482,note_on,2,0,1,,,,,,,,0,59,0
29482,note_on,2,0,2,,,,,,,,0,59,0
29500,note_on,18,0,1,,,,,,,,0,59,55
29500,note_on,18,0,2,,,,,,,,0,59,55
29502,note_on,2,0,2,,,,,,,,0,61,0
29502,note_on,2,0,1,,,,,,,,0,61,0
29520,note_on,0,0,1,,,,,,,,0,61,55
29520,note_on,0,0,2,,,,,,,,0,43,64
29520,note_on,0,0,2,,,,,,,,0,61,55
29520,note_on,18,0,2,,,,,,,,0,45,0
29520,note_on,18,0,1,,,,,,,,0,45,0
29520,note_on,0,0,1,,,,,,,,0,43,64
29522,note_on,2,0,2,,,,,,,,0,59,0
29522,note_on,2,0,1,,,,,,,,0,59,0
29540,note_on,18,0,2,,,,,,,,0,59,55
29540,note_on,18,0,1,,,,,,,,0,59,55
29542,note_on,2,0,1,,,,,,,,0,61,0
29542,note_on,2,0,2,,,,,,,,0,61,0
29560,note_on,18,0,2,,,,,,,,0,61,56
29560,note_on,18,0,1,,,,,,,,0,61,56
29562,note_on,2,0,1,,,,,,,,0,59,0
29562,note_on,2,0,2,,,,,,,,0,59,0
29580,note_on,0,0,2,,,,,,,,0,47,64
29580,note_on,0,0,1,,,,,,,,0,47,64
29580,note_on,0,0,1,,,,,,,,0,59,56
29580,note_on,18,0,1,,,,,,,,0,43,0
29580,note_on,0,0,2,,,,,,,,0,59,56
29580,note_on,18,0,2,,,,,,,,0,43,0
29582,note_on,2,0,1,,,,,,,,0,61,0
29582,note_on,2,0,2,,,,,,,,0,61,0
29600,note_on,18,0,1,,,,,,,,0,61,56
29600,note_on,18,0,2,,,,,,,,0,61,56
29602,note_on,2,0,1,,,,,,,,0,59,0
29602,note_on,2,0,2,,,,,,,,0,59,0
29620,note_on,18,0,1,,,,,,,,0,59,56
29620,note_on,18,0,2,,,,,,,,0,59,56
29622,note_on,2,0,2,,,,,,,,0,61,0
29622,note_on,2,0,1,,,,,,,,0,61,0
29640,note_on,0,0,1,,,,,,,,0,49,64
29640,note_on,0,0,1,,,,,,,,0,61,57
29640,note_on,0,0,2,,,,,,,,0,61,57
29640,note_on,18,0,2,,,,,,,,0,47,0
29640,note_on,18,0,1,,,,,,,,0,47,0
29640,note_on,0,0,2,,,,,,,,0,49,64
29642,note_on,2,0,2,,,,,,,,0,59,0
29642,note_on,2,0,1,,,,,,,,0,59,0
29660,note_on,18,0,1,,,,,,,,0,59,57
29660,note_on,18,0,2,,,,,,,,0,59,57
29662,note_on,2,0,1,,,,,,,,0,61,0
29662,note_on,2,0,2,,,,,,,,0,61,0
29680,note_on,18,0,1,,,,,,,,0,61,57
29680,note_on,18,0,2,,,,,,,,0,61,57
29682,note_on,2,0,2,,,,,,,,0,59,0
29682,note_on,2,0,1,,,,,,,,0,59,0
29700,note_on,0,0,2,,,,,,,,0,59,57
29700,note_on,0,0,1,,,,,,,,0,51,64
29700,note_on,0,0,2,,,,,,,,0,51,64
29700,note_on,18,0,2,,,,,,,,0,49,0
29700,note_on,18,0,1,,,,,,,,0,49,0
29700,note_on,0,0,1,,,,,,,,0,59,57
29702,note_on,2,0,2,,,,,,,,0,61,0
29702,note_on,2,0,1,,,,,,,,0,61,0
29720,note_on,18,0,2,,,,,,,,0,61,57
29720,note_on,18,0,1,,,,,,,,0,61,57
29722,note_on,2,0,2,,,,,,,,0,59,0
29722,note_on,2,0,1,,,,,,,,0,59,0
29740,note_on,18,0,1,,,,,,,,0,59,58
29740,note_on,18,0,2,,,,,,,,0,59,58
29742,note_on,2,0,1,,,,,,,,0,61,0
29742,note_on,2,0,2,,,,,,,,0,61,0
29760,note_on,0,0,1,,,,,,,,0,52,64
29760,note_on,0,0,2,,,,,,,,0,61,58
29760,note_on,0,0,2,,,,,,,,0,52,64
29760,note_on,0,0,1,,,,,,,,0,61,58
29760,note_on,18,0,1,,,,,,,,0,51,0
29760,note_on,18,0,2,,,,,,,,0,51,0
29762,note_on,2,0,1,,,,,,,,0,59,0
29762,note_on,2,0,2,,,,,,,,0,59,0
29780,note_on,18,0,2,,,,,,,,0,59,58
29780,note_on,18,0,1,,,,,,,,0,59,58
29782,note_on,2,0,2,,,,,,,,0,61,0
29782,note_on,2,0,1,,,,,,,,0,61,0
29800,note_on,18,0,1,,,,,,,,0,61,58
29800,note_on,18,0,2,,,,,,,,0,61,58
29802,note_on,2,0,1,,,,,,,,0,59,0
29802,note_on,2,0,2,,,,,,,,0,59,0
29820,note_on,18,0,1,,,,,,,,0,52,0
29820,note_on,0,0,1,,,,,,,,0,49,64
29820,note_on,0,0,1,,,,,,,,0,59,59
29820,note_on,18,0,2,,,,,,,,0,52,0
29820,note_on,0,0,2,,,,,,,,0,59,59
29820,note_on,0,0,2,,,,,,,,0,49,64
29822,note_on,2,0,2,,,,,,,,0,61,0
29822,note_on,2,0,1,,,,,,,,0,61,0
29840,note_on,18,0,2,,,,,,,,0,61,59
29840,note_on,18,0,1,,,,,,,,0,61,59
29842,note_on,2,0,1,,,,,,,,0,59,0
29842,note_on,2,0,2,,,,,,,,0,59,0
29860,note_on,18,0,1,,,,,,,,0,59,59
29860,note_on,18,0,2,,,,,,,,0,59,59
29862,note_on,2,0,1,,,,,,,,0,61,0
29862,note_on,2,0,2,,,,,,,,0,61,0
29880,note_on,18,0,2,,,,,,,,0,49,0
29880,note_on,0,0,2,,,,,,,,0,61,59
29880,note_on,0,0,2,,,,,,,,0,51,64
29880,note_on,18,0,1,,,,,,,,0,49,0
29880,note_on,0,0,1,,,,,,,,0,61,59
29880,note_on,0,0,1,,,,,,,,0,51,64
29882,note_on,2,0,1,,,,,,,,0,59,0
29882,note_on,2,0,2,,,,,,,,0,59,0
29900,note_on,18,0,1,,,,,,,,0,59,59
29900,note_on,18,0,2,,,,,,,,0,59,59
29902,note_on,2,0,1,,,,,,,,0,61,0
29902,note_on,2,0,2,,,,,,,,0,61,0
29920,note_on,18,0,2,,,,,,,,0,61,60
29920,note_on,18,0,1,,,,,,,,0,61,60
29922,note_on,2,0,1,,,,,,,,0,59,0
29922,note_on,2,0,2,,,,,,,,0,59,0
29940,note_on,0,0,1,,,,,,,,0,59,60
29940,note_on,0,0,1,,,,,,,,0,49,64
29940,note_on,0,0,2,,,,,,,,0,59,60
29940,note_on,18,0,2,,,,,,,,0,51,0
29940,note_on,18,0,1,,,,,,,,0,51,0
29940,note_on,0,0,2,,,,,,,,0,49,64
29942,note_on,2,0,1,,,,,,,,0,61,0
29942,note_on,2,0,2,,,,,,,,0,61,0
29960,note_on,18,0,2,,,,,,,,0,61,60
29960,note_on,18,0,1,,,,,,,,0,61,60
29962,note_on,2,0,2,,,,,,,,0,59,0
29962,note_on,2,0,1,,,,,,,,0,59,0
29980,note_on,18,0,1,,,,,,,,0,59,60
29980,note_on,18,0,2,,,,,,,,0,59,60
29982,note_on,2,0,1,,,,,,,,0,61,0
29982,note_on,2,0,2,,,,,,,,0,61,0
30000,note_on,18,0,2,,,,,,,,0,49,0
30000,note_on,0,0,1,,,,,,,,0,47,64
30000,note_on,0,0,2,,,,,,,,0,61,60
30000,note_on,0,0,2,,,,,,,,0,47,64
30000,note_on,18,0,1,,,,,,,,0,49,0
30000,note_on,0,0,1,,,,,,,,0,61,60
30002,note_on,2,0,1,,,,,,,,0,59,0
30002,note_on,2,0,2,,,,,,,,0,59,0
30020,note_on,18,0,1,,,,,,,,0,59,61
30020,note_on,18,0,2,,,,,,,,0,59,61
30022,note_on,2,0,1,,,,,,,,0,61,0
30022,note_on,2,0,2,,,,,,,,0,61,0
30040,note_on,18,0,2,,,,,,,,0,61,61
30040,note_on,18,0,1,,,,,,,,0,61,61
30042,note_on,2,0,2,,,,,,,,0,59,0
30042,note_on,2,0,1,,,,,,,,0,59,0
30060,note_on,0,0,2,,,,,,,,0,45,64
30060,note_on,0,0,2,,,,,,,,0,59,61
30060,note_on,18,0,2,,,,,,,,0,47,0
30060,note_on,18,0,1,,,,,,,,0,47,0
30060,note_on,0,0,1,,,,,,,,0,59,61
30060,note_on,0,0,1,,,,,,,,0,45,64
30062,note_on,2,0,1,,,,,,,,0,61,0
30062,note_on,2,0,2,,,,,,,,0,61,0
30080,note_on,18,0,2,,,,,,,,0,61,61
30080,note_on,18,0,1,,,,,,,,0,61,61
30082,note_on,2,0,1,,,,,,,,0,59,0
30082,note_on,2,0,2,,,,,,,,0,59,0
30100,note_on,18,0,2,,,,,,,,0,59,62
30100,note_on,18,0,1,,,,,,,,0,59,62
30102,note_on,2,0,2,,,,,,,,0,61,0
30102,note_on,2,0,1,,,,,,,,0,61,0
30120,note_on,0,0,1,,,,,,,,0,61,62
30120,note_on,0,0,2,,,,,,,,0,61,62
30120,note_on,0,0,2,,,,,,,,0,43,64
30120,note_on,18,0,1,,,,,,,,0,45,0
30120,note_on,18,0,2,,,,,,,,0,45,0
30120,note_on,0,0,1,,,,,,,,0,43,64
30122,note_on,2,0,1,,,,,,,,0,59,0
30122,note_on,2,0,2,,,,,,,,0,59,0
30140,note_on,18,0,2,,,,,,,,0,59,62
30140,note_on,18,0,1,,,,,,,,0,59,62
30142,note_on,2,0,1,,,,,,,,0,61,0
30142,note_on,2,0,2,,,,,,,,0,61,0
30160,note_on,18,0,2,,,,,,,,0,61,62
30160,note_on,18,0,1,,,,,,,,0,61,62
30162,note_on,2,0,2,,,,,,,,0,59,0
30162,note_on,2,0,1,,,,,,,,0,59,0
30180,note_on,0,0,1,,,,,,,,0,42,64
30180,note_on,0,0,1,,,,,,,,0,59,62
30180,note_on,18,0,1,,,,,,,,0,43,0
30180,note_on,18,0,2,,,,,,,,0,43,0
30180,note_on,0,0,2,,,,,,,,0,42,64
30180,note_on,0,0,2,,,,,,,,0,59,62
30182,note_on,2,0,1,,,,,,,,0,61,0
30182,note_on,2,0,2,,,,,,,,0,61,0
30200,note_on,18,0,2,,,,,,,,0,61,63
30200,note_on,18,0,1,,,,,,,,0,61,63
30202,note_on,2,0,1,,,,,,,,0,59,0
30202,note_on,2,0,2,,,,,,,,0,59,0
30220,note_on,18,0,1,,,,,,,,0,59,63
30220,note_on,18,0,2,,,,,,,,0,59,63
30222,note_on,2,0,2,,,,,,,,0,61,0
30222,note_on,2,0,1,,,,,,,,0,61,0
30240,note_on,18,0,1,,,,,,,,0,42,0
30240,note_on,0,0,1,,,,,,,,0,61,63
30240,note_on,0,0,1,,,,,,,,0,40,64
30240,note_on,0,0,2,,,,,,,,0,40,64
30240,note_on,0,0,2,,,,,,,,0,61,63
30240,note_on,18,0,2,,,,,,,,0,42,0
30242,note_on,2,0,2,,,,,,,,0,59,0
30242,note_on,2,0,1,,,,,,,,0,59,0
30260,note_on,18,0,2,,,,,,,,0,59,63
30260,note_on,18,0,1,,,,,,,,0,59,63
30262,note_on,2,0,2,,,,,,,,0,61,0
30262,note_on,2,0,1,,,,,,,,0,61,0
30300,note_on,38,0,1,,,,,,,,0,40,0
30300,note_on,0,0,1,,,,,,,,0,50,64
30300,note_on,38,0,2,,,,,,,,0,40,0
30300,note_on,0,0,2,,,,,,,,0,50,64
30348,note_on,48,0,1,,,,,,,,0,59,0
30348,note_on,48,0,2,,,,,,,,0,59,0
30360,note_on,12,0,1,,,,,,,,0,50,0
30360,note_on,0,0,2,,,,,,,,0,64,64
30360,note_on,12,0,2,,,,,,,,0,50,0
30360,note_on,0,0,2,,,,,,,,0,49,64
30360,note_on,0,0,1,,,,,,,,0,64,64
30360,note_on,0,0,1,,,,,,,,0,49,64
30375,note_on,15,0,2,,,,,,,,0,64,0
30375,note_on,0,0,2,,,,,,,,0,62,64
30375,note_on,15,0,1,,,,,,,,0,64,0
30375,note_on,0,0,1,,,,,,,,0,62,64
30390,note_on,0,0,2,,,,,,,,0,64,64
30390,note_on,15,0,2,,,,,,,,0,62,0
30390,note_on,15,0,1,,,,,,,,0,62,0
30390,note_on,0,0,1,,,,,,,,0,64,64
30420,note_on,0,0,2,,,,,,,,0,47,64
30420,note_on,30,0,2,,,,,,,,0,49,0
30420,note_on,0,0,1,,,,,,,,0,47,64
30420,note_on,30,0,1,,,,,,,,0,49,0
30480,note_on,60,0,2,,,,,,,,0,47,0
30480,note_on,0,0,1,,,,,,,,0,46,64
30480,note_on,60,0,1,,,,,,,,0,47,0
30480,note_on,0,0,2,,,,,,,,0,46,64
30540,note_on,0,0,1,,,,,,,,0,49,64
30540,note_on,60,0,1,,,,,,,,0,46,0
30540,note_on,0,0,2,,,,,,,,0,49,64
30540,note_on,60,0,2,,,,,,,,0,46,0
30600,note_on,0,0,1,,,,,,,,0,42,64
30600,note_on,60,0,1,,,,,,,,0,49,0
30600,note_on,0,0,2,,,,,,,,0,42,64
30600,note_on,60,0,2,,,,,,,,0,49,0
30660,note_on,0,0,2,,,,,,,,0,66,64
30660,note_on,60,0,2,,,,,,,,0,64,0
30660,note_on,0,0,1,,,,,,,,0,66,64
30660,note_on,60,0,1,,,,,,,,0,64,0
30720,note_on,0,0,2,,,,,,,,0,64,64
30720,note_on,0,0,1,,,,,,,,0,64,64
30720,note_on,0,0,1,,,,,,,,0,55,72
30720,note_on,60,0,2,,,,,,,,0,66,0
30720,note_on,60,0,1,,,,,,,,0,66,0
30720,note_on,0,0,1,,,,,,,,0,42,0
30720,note_on,0,0,2,,,,,,,,0,42,0
30720,note_on,0,0,2,,,,,,,,0,55,72
30740,note_on,20,0,2,,,,,,,,0,55,0
30740,note_on,0,0,2,,,,,,,,0,54,64
30740,note_on,20,0,1,,,,,,,,0,55,0
30740,note_on,0,0,1,,,,,,,,0,54,64
30760,note_on,20,0,1,,,,,,,,0,54,0
30760,note_on,0,0,1,,,,,,,,0,55,64
30760,note_on,20,0,2,,,,,,,,0,54,0
30760,note_on,0,0,2,,,,,,,,0,55,64
30780,note_on,0,0,2,,,,,,,,0,62,64
30780,note_on,20,0,2,,,,,,,,0,64,0
30780,note_on,0,0,1,,,,,,,,0,62,64
30780,note_on,20,0,1,,,,,,,,0,64,0
30840,note_on,0,0,2,,,,,,,,0,61,64
30840,note_on,60,0,2,,,,,,,,0,62,0
30840,note_on,0,0,1,,,,,,,,0,61,64
30840,note_on,60,0,1,,,,,,,,0,62,0
30900,note_on,60,0,1,,,,,,,,0,61,0
30900,note_on,0,0,1,,,,,,,,0,64,64
30900,note_on,60,0,2,,,,,,,,0,61,0
30900,note_on,0,0,2,,,,,,,,0,64,64
30960,note_on,0,0,2,,,,,,,,0,58,64
30960,note_on,0,0,1,,,,,,,,0,58,64
30960,note_on,60,0,1,,,,,,,,0,64,0
30960,note_on,60,0,2,,,,,,,,0,64,0
31020,note_on,60,0,2,,,,,,,,0,55,0
31020,note_on,0,0,2,,,,,,,,0,54,64
31020,note_on,0,0,1,,,,,,,,0,54,64
31020,note_on,60,0,1,,,,,,,,0,55,0
31080,note_on,0,0,2,,,,,,,,0,58,0
31080,note_on,0,0,2,,,,,,,,0,73,64
31080,note_on,0,0,2,,,,,,,,0,52,64
31080,note_on,60,0,1,,,,,,,,0,54,0
31080,note_on,0,0,1,,,,,,,,0,58,0
31080,note_on,0,0,1,,,,,,,,0,73,64
31080,note_on,0,0,1,,,,,,,,0,52,64
31080,note_on,60,0,2,,,,,,,,0,54,0
31100,note_on,0,0,1,,,,,,,,0,71,64
31100,note_on,20,0,1,,,,,,,,0,73,0
31100,note_on,0,0,2,,,,,,,,0,71,64
31100,note_on,20,0,2,,,,,,,,0,73,0
31120,note_on,0,0,1,,,,,,,,0,73,64
31120,note_on,20,0,1,,,,,,,,0,71,0
31120,note_on,0,0,2,,,,,,,,0,73,64
31120,note_on,20,0,2,,,,,,,,0,71,0
31140,note_on,0,0,1,,,,,,,,0,50,64
31140,note_on,20,0,1,,,,,,,,0,52,0
31140,note_on,20,0,2,,,,,,,,0,52,0
31140,note_on,0,0,2,,,,,,,,0,50,64
31200,note_on,60,0,1,,,,,,,,0,50,0
31200,note_on,0,0,2,,,,,,,,0,49,64
31200,note_on,60,0,2,,,,,,,,0,50,0
31200,note_on,0,0,1,,,,,,,,0,49,64
31260,note_on,60,0,2,,,,,,,,0,49,0
31260,note_on,0,0,2,,,,,,,,0,52,64
31260,note_on,0,0,1,,,,,,,,0,52,64
31260,note_on,60,0,1,,,,,,,,0,49,0
31320,note_on,60,0,1,,,,,,,,0,52,0
31320,note_on,0,0,1,,,,,,,,0,46,64
31320,note_on,60,0,2,,,,,,,,0,52,0
31320,note_on,0,0,2,,,,,,,,0,46,64
31380,note_on,60,0,1,,,,,,,,0,73,0
31380,note_on,0,0,1,,,,,,,,0,74,64
31380,note_on,60,0,2,,,,,,,,0,73,0
31380,note_on,0,0,2,,,,,,,,0,74,64
31440,note_on,0,0,2,,,,,,,,0,73,64
31440,note_on,0,0,2,,,,,,,,0,64,64
31440,note_on,0,0,2,,,,,,,,0,46,0
31440,note_on,60,0,2,,,,,,,,0,74,0
31440,note_on,60,0,1,,,,,,,,0,74,0
31440,note_on,0,0,1,,,,,,,,0,73,64
31440,note_on,0,0,1,,,,,,,,0,64,64
31440,note_on,0,0,1,,,,,,,,0,46,0
31500,note_on,0,0,1,,,,,,,,0,71,64
31500,note_on,60,0,2,,,,,,,,0,73,0
31500,note_on,0,0,2,,,,,,,,0,71,64
31500,note_on,60,0,1,,,,,,,,0,73,0
31560,note_on,60,0,1,,,,,,,,0,71,0
31560,note_on,0,0,1,,,,,,,,0,70,64
31560,note_on,60,0,2,,,,,,,,0,71,0
31560,note_on,0,0,2,,,,,,,,0,70,64
31620,note_on,60,0,1,,,,,,,,0,70,0
31620,note_on,0,0,1,,,,,,,,0,73,64
31620,note_on,60,0,2,,,,,,,,0,70,0
31620,note_on,0,0,2,,,,,,,,0,73,64
31680,note_on,60,0,1,,,,,,,,0,73,0
31680,note_on,0,0,1,,,,,,,,0,66,64
31680,note_on,0,0,2,,,,,,,,0,66,64
31680,note_on,60,0,2,,,,,,,,0,73,0
31740,note_on,0,0,2,,,,,,,,0,62,64
31740,note_on,0,0,1,,,,,,,,0,62,64
31740,note_on,60,0,1,,,,,,,,0,64,0
31740,note_on,60,0,2,,,,,,,,0,64,0
31800,note_on,0,0,1,,,,,,,,0,61,64
31800,note_on,0,0,1,,,,,,,,0,79,64
31800,note_on,60,0,1,,,,,,,,0,62,0
31800,note_on,0,0,1,,,,,,,,0,66,0
31800,note_on,60,0,2,,,,,,,,0,62,0
31800,note_on,0,0,2,,,,,,,,0,61,64
31800,note_on,0,0,2,,,,,,,,0,79,64
31800,note_on,0,0,2,,,,,,,,0,66,0
31820,note_on,20,0,1,,,,,,,,0,79,0
31820,note_on,0,0,2,,,,,,,,0,78,64
31820,note_on,20,0,2,,,,,,,,0,79,0
31820,note_on,0,0,1,,,,,,,,0,78,64
31840,note_on,0,0,2,,,,,,,,0,79,64
31840,note_on,20,0,2,,,,,,,,0,78,0
31840,note_on,20,0,1,,,,,,,,0,78,0
31840,note_on,0,0,1,,,,,,,,0,79,64
31860,note_on,0,0,2,,,,,,,,0,59,64
31860,note_on,20,0,2,,,,,,,,0,61,0
31860,note_on,0,0,1,,,,,,,,0,59,64
31860,note_on,20,0,1,,,,,,,,0,61,0
31920,note_on,60,0,2,,,,,,,,0,59,0
31920,note_on,0,0,2,,,,,,,,0,58,64
31920,note_on,60,0,1,,,,,,,,0,59,0
31920,note_on,0,0,1,,,,,,,,0,58,64
31980,note_on,60,0,2,,,,,,,,0,58,0
31980,note_on,0,0,2,,,,,,,,0,61,64
31980,note_on,60,0,1,,,,,,,,0,58,0
31980,note_on,0,0,1,,,,,,,,0,61,64
32040,note_on,60,0,2,,,,,,,,0,61,0
32040,note_on,0,0,2,,,,,,,,0,54,64
32040,note_on,0,0,1,,,,,,,,0,54,64
32040,note_on,60,0,1,,,,,,,,0,61,0
32100,note_on,0,0,1,,,,,,,,0,78,64
32100,note_on,60,0,1,,,,,,,,0,79,0
32100,note_on,60,0,2,,,,,,,,0,79,0
32100,note_on,0,0,2,,,,,,,,0,78,64
32160,note_on,0,0,1,,,,,,,,0,56,64
32160,note_on,0,0,2,,,,,,,,0,76,64
32160,note_on,0,0,2,,,,,,,,0,54,0
32160,note_on,60,0,2,,,,,,,,0,78,0
32160,note_on,0,0,2,,,,,,,,0,56,64
32160,note_on,0,0,1,,,,,,,,0,54,0
32160,note_on,0,0,1,,,,,,,,0,76,64
32160,note_on,60,0,1,,,,,,,,0,78,0
32220,note_on,0,0,1,,,,,,,,0,74,64
32220,note_on,60,0,2,,,,,,,,0,76,0
32220,note_on,0,0,2,,,,,,,,0,74,64
32220,note_on,60,0,1,,,,,,,,0,76,0
32280,note_on,0,0,1,,,,,,,,0,73,64
32280,note_on,60,0,1,,,,,,,,0,74,0
32280,note_on,0,0,1,,,,,,,,0,58,64
32280,note_on,0,0,2,,,,,,,,0,73,64
32280,note_on,0,0,2,,,,,,,,0,58,64
32280,note_on,0,0,2,,,,,,,,0,56,0
32280,note_on,60,0,2,,,,,,,,0,74,0
32280,note_on,0,0,1,,,,,,,,0,56,0
32340,note_on,60,0,1,,,,,,,,0,73,0
32340,note_on,0,0,1,,,,,,,,0,76,64
32340,note_on,0,0,2,,,,,,,,0,76,64
32340,note_on,60,0,2,,,,,,,,0,73,0
32400,note_on,0,0,1,,,,,,,,0,59,64
32400,note_on,60,0,2,,,,,,,,0,76,0
32400,note_on,0,0,2,,,,,,,,0,58,0
32400,note_on,0,0,2,,,,,,,,0,76,64
32400,note_on,0,0,2,,,,,,,,0,59,64
32400,note_on,60,0,1,,,,,,,,0,76,0
32400,note_on,0,0,1,,,,,,,,0,58,0
32400,note_on,0,0,1,,,,,,,,0,76,64
32420,note_on,20,0,2,,,,,,,,0,76,0
32420,note_on,0,0,1,,,,,,,,0,74,64
32420,note_on,20,0,1,,,,,,,,0,76,0
32420,note_on,0,0,2,,,,,,,,0,74,64
32440,note_on,0,0,2,,,,,,,,0,73,64
32440,note_on,0,0,1,,,,,,,,0,73,64
32440,note_on,20,0,1,,,,,,,,0,74,0
32440,note_on,20,0,2,,,,,,,,0,74,0
32460,note_on,0,0,2,,,,,,,,0,58,64
32460,note_on,0,0,2,,,,,,,,0,74,64
32460,note_on,0,0,2,,,,,,,,0,59,0
32460,note_on,0,0,1,,,,,,,,0,58,64
32460,note_on,0,0,1,,,,,,,,0,74,64
32460,note_on,0,0,1,,,,,,,,0,59,0
32460,note_on,20,0,1,,,,,,,,0,73,0
32460,note_on,20,0,2,,,,,,,,0,73,0
32480,note_on,20,0,1,,,,,,,,0,74,0
32480,note_on,20,0,2,,,,,,,,0,74,0
32480,note_on,0,0,1,,,,,,,,0,76,64
32480,note_on,0,0,2,,,,,,,,0,76,64
32500,note_on,0,0,1,,,,,,,,0,74,64
32500,note_on,0,0,2,,,,,,,,0,74,64
32500,note_on,20,0,2,,,,,,,,0,76,0
32500,note_on,20,0,1,,,,,,,,0,76,0
32520,note_on,0,0,2,,,,,,,,0,59,64
32520,note_on,0,0,2,,,,,,,,0,76,64
32520,note_on,0,0,2,,,,,,,,0,58,0
32520,note_on,20,0,2,,,,,,,,0,74,0
32520,note_on,0,0,1,,,,,,,,0,58,0
32520,note_on,0,0,1,,,,,,,,0,76,64
32520,note_on,0,0,1,,,,,,,,0,59,64
32520,note_on,20,0,1,,,,,,,,0,74,0
32540,note_on,20,0,1,,,,,,,,0,76,0
32540,note_on,0,0,1,,,,,,,,0,74,64
32540,note_on,20,0,2,,,,,,,,0,76,0
32540,note_on,0,0,2,,,,,,,,0,74,64
32580,note_on,40,0,1,,,,,,,,0,59,0
32580,note_on,40,0,2,,,,,,,,0,59,0
32580,note_on,0,0,1,,,,,,,,0,61,64
32580,note_on,0,0,2,,,,,,,,0,61,64
32640,note_on,60,0,2,,,,,,,,0,61,0
32640,note_on,0,0,2,,,,,,,,0,62,64
32640,note_on,60,0,1,,,,,,,,0,61,0
32640,note_on,0,0,1,,,,,,,,0,62,64
32700,note_on,60,0,2,,,,,,,,0,62,0
32700,note_on,0,0,2,,,,,,,,0,59,64
32700,note_on,60,0,1,,,,,,,,0,62,0
32700,note_on,0,0,1,,,,,,,,0,59,64
32760,note_on,0,0,1,,,,,,,,0,53,64
32760,note_on,60,0,1,,,,,,,,0,59,0
32760,note_on,60,0,2,,,,,,,,0,59,0
32760,note_on,0,0,2,,,,,,,,0,53,64
32820,note_on,0,0,1,,,,,,,,0,74,0
32820,note_on,0,0,2,,,,,,,,0,54,64
32820,note_on,60,0,1,,,,,,,,0,53,0
32820,note_on,0,0,1,,,,,,,,0,73,64
32820,note_on,0,0,2,,,,,,,,0,74,0
32820,note_on,0,0,1,,,,,,,,0,54,64
32820,note_on,0,0,2,,,,,,,,0,73,64
32820,note_on,60,0,2,,,,,,,,0,53,0
32880,note_on,0,0,2,,,,,,,,0,73,0
32880,note_on,0,0,1,,,,,,,,0,73,0
32880,note_on,60,0,2,,,,,,,,0,54,0
32880,note_on,60,0,1,,,,,,,,0,54,0
32880,note_on,0,0,1,,,,,,,,0,71,64
32880,note_on,0,0,1,,,,,,,,0,56,64
32880,note_on,0,0,2,,,,,,,,0,56,64
32880,note_on,0,0,2,,,,,,,,0,71,64
32940,note_on,0,0,2,,,,,,,,0,71,0
32940,note_on,0,0,2,,,,,,,,0,69,64
32940,note_on,60,0,1,,,,,,,,0,56,0
32940,note_on,60,0,2,,,,,,,,0,56,0
32940,note_on,0,0,2,,,,,,,,0,57,64
32940,note_on,0,0,1,,,,,,,,0,71,0
32940,note_on,0,0,1,,,,,,,,0,69,64
32940,note_on,0,0,1,,,,,,,,0,57,64
33000,note_on,0,0,2,,,,,,,,0,59,64
33000,note_on,60,0,2,,,,,,,,0,57,0
33000,note_on,0,0,2,,,,,,,,0,68,64
33000,note_on,0,0,2,,,,,,,,0,69,0
33000,note_on,0,0,1,,,,,,,,0,69,0
33000,note_on,0,0,1,,,,,,,,0,59,64
33000,note_on,60,0,1,,,,,,,,0,57,0
33000,note_on,0,0,1,,,,,,,,0,68,64
33060,note_on,0,0,2,,,,,,,,0,68,0
33060,note_on,0,0,1,,,,,,,,0,71,64
33060,note_on,60,0,2,,,,,,,,0,59,0
33060,note_on,0,0,1,,,,,,,,0,68,0
33060,note_on,0,0,2,,,,,,,,0,56,64
33060,note_on,0,0,1,,,,,,,,0,56,64
33060,note_on,0,0,2,,,,,,,,0,71,64
33060,note_on,60,0,1,,,,,,,,0,59,0
33120,note_on,0,0,2,,,,,,,,0,65,64
33120,note_on,0,0,2,,,,,,,,0,49,64
33120,note_on,0,0,2,,,,,,,,0,71,0
33120,note_on,60,0,2,,,,,,,,0,56,0
33120,note_on,0,0,1,,,,,,,,0,49,64
33120,note_on,60,0,1,,,,,,,,0,56,0
33120,note_on,0,0,1,,,,,,,,0,65,64
33120,note_on,0,0,1,,,,,,,,0,71,0
33180,note_on,0,0,2,,,,,,,,0,74,64
33180,note_on,0,0,1,,,,,,,,0,74,64
33180,note_on,60,0,1,,,,,,,,0,65,0
33180,note_on,60,0,2,,,,,,,,0,65,0
33240,note_on,0,0,2,,,,,,,,0,49,0
33240,note_on,60,0,2,,,,,,,,0,74,0
33240,note_on,0,0,1,,,,,,,,0,53,64
33240,note_on,0,0,1,,,,,,,,0,73,64
33240,note_on,0,0,1,,,,,,,,0,49,0
33240,note_on,0,0,2,,,,,,,,0,73,64
33240,note_on,60,0,1,,,,,,,,0,74,0
33240,note_on,0,0,2,,,,,,,,0,53,64
33300,note_on,0,0,1,,,,,,,,0,71,64
33300,note_on,60,0,1,,,,,,,,0,73,0
33300,note_on,0,0,2,,,,,,,,0,71,64
33300,note_on,60,0,2,,,,,,,,0,73,0
33360,note_on,60,0,2,,,,,,,,0,71,0
33360,note_on,0,0,2,,,,,,,,0,54,64
33360,note_on,0,0,2,,,,,,,,0,70,64
33360,note_on,0,0,1,,,,,,,,0,70,64
33360,note_on,0,0,1,,,,,,,,0,54,64
33360,note_on,0,0,1,,,,,,,,0,53,0
33360,note_on,60,0,1,,,,,,,,0,71,0
33360,note_on,0,0,2,,,,,,,,0,53,0
33420,note_on,60,0,1,,,,,,,,0,70,0
33420,note_on,0,0,1,,,,,,,,0,73,64
33420,note_on,60,0,2,,,,,,,,0,70,0
33420,note_on,0,0,2,,,,,,,,0,73,64
33480,note_on,0,0,1,,,,,,,,0,76,64
33480,note_on,60,0,2,,,,,,,,0,73,0
33480,note_on,60,0,1,,,,,,,,0,73,0
33480,note_on,0,0,1,,,,,,,,0,55,64
33480,note_on,0,0,2,,,,,,,,0,54,0
33480,note_on,0,0,2,,,,,,,,0,76,64
33480,note_on,0,0,2,,,,,,,,0,55,64
33480,note_on,0,0,1,,,,,,,,0,54,0
33540,note_on,60,0,1,,,,,,,,0,76,0
33540,note_on,0,0,1,,,,,,,,0,79,64
33540,note_on,60,0,2,,,,,,,,0,76,0
33540,note_on,0,0,2,,,,,,,,0,79,64
33600,note_on,0,0,2,,,,,,,,0,46,64
33600,note_on,60,0,1,,,,,,,,0,79,0
33600,note_on,0,0,1,,,,,,,,0,55,0
33600,note_on,0,0,1,,,,,,,,0,78,64
33600,note_on,0,0,1,,,,,,,,0,46,64
33600,note_on,0,0,2,,,,,,,,0,78,64
33600,note_on,0,0,2,,,,,,,,0,55,0
33600,note_on,60,0,2,,,,,,,,0,79,0
33660,note_on,0,0,2,,,,,,,,0,76,64
33660,note_on,60,0,2,,,,,,,,0,78,0
33660,note_on,60,0,1,,,,,,,,0,78,0
33660,note_on,0,0,1,,,,,,,,0,76,64
33720,note_on,0,0,1,,,,,,,,0,47,64
33720,note_on,0,0,2,,,,,,,,0,74,64
33720,note_on,60,0,2,,,,,,,,0,76,0
33720,note_on,0,0,2,,,,,,,,0,46,0
33720,note_on,60,0,1,,,,,,,,0,76,0
33720,note_on,0,0,1,,,,,,,,0,46,0
33720,note_on,0,0,1,,,,,,,,0,74,64
33720,note_on,0,0,2,,,,,,,,0,47,64
33780,note_on,60,0,2,,,,,,,,0,74,0
33780,note_on,0,0,1,,,,,,,,0,78,64
33780,note_on,60,0,1,,,,,,,,0,74,0
33780,note_on,0,0,2,,,,,,,,0,78,64
33840,note_on,60,0,2,,,,,,,,0,78,0
33840,note_on,0,0,2,,,,,,,,0,47,0
33840,note_on,0,0,1,,,,,,,,0,43,64
33840,note_on,0,0,1,,,,,,,,0,47,0
33840,note_on,0,0,2,,,,,,,,0,71,64
33840,note_on,0,0,2,,,,,,,,0,43,64
33840,note_on,60,0,1,,,,,,,,0,78,0
33840,note_on,0,0,1,,,,,,,,0,71,64
33960,note_on,0,0,1,,,,,,,,0,71,0
33960,note_on,0,0,1,,,,,,,,0,73,64
33960,note_on,120,0,1,,,,,,,,0,43,0
33960,note_on,0,0,2,,,,,,,,0,71,0
33960,note_on,0,0,1,,,,,,,,0,40,64
33960,note_on,120,0,2,,,,,,,,0,43,0
33960,note_on,0,0,2,,,,,,,,0,73,64
33960,note_on,0,0,2,,,,,,,,0,40,64
34080,note_on,0,0,1,,,,,,,,0,73,0
34080,note_on,120,0,2,,,,,,,,0,40,0
34080,note_on,0,0,2,,,,,,,,0,73,0
34080,note_on,0,0,2,,,,,,,,0,71,64
34080,note_on,0,0,2,,,,,,,,0,42,64
34080,note_on,0,0,1,,,,,,,,0,42,64
34080,note_on,0,0,1,,,,,,,,0,71,64
34080,note_on,120,0,1,,,,,,,,0,40,0
34100,note_on,0,0,2,,,,,,,,0,70,64
34100,note_on,20,0,2,,,,,,,,0,71,0
34100,note_on,0,0,1,,,,,,,,0,70,64
34100,note_on,20,0,1,,,,,,,,0,71,0
34120,note_on,0,0,2,,,,,,,,0,68,64
34120,note_on,20,0,2,,,,,,,,0,70,0
34120,note_on,20,0,1,,,,,,,,0,70,0
34120,note_on,0,0,1,,,,,,,,0,68,64
34140,note_on,20,0,1,,,,,,,,0,68,0
34140,note_on,0,0,2,,,,,,,,0,70,64
34140,note_on,20,0,2,,,,,,,,0,68,0
34140,note_on,0,0,1,,,,,,,,0,70,64
34200,note_on,60,0,2,,,,,,,,0,70,0
34200,note_on,0,0,2,,,,,,,,0,47,64
34200,note_on,60,0,1,,,,,,,,0,70,0
34200,note_on,0,0,1,,,,,,,,0,42,0
34200,note_on,0,0,1,,,,,,,,0,47,64
34200,note_on,0,0,1,,,,,,,,0,71,64
34200,note_on,0,0,2,,,,,,,,0,42,0
34200,note_on,0,0,2,,,,,,,,0,71,64
34560,note_on,0,0,1,,,,,,,,0,78,64
34560,note_on,0,0,1,,,,,,,,0,47,0
34560,note_on,360,0,1,,,,,,,,0,71,0
34560,note_on,360,0,2,,,,,,,,0,71,0
34560,note_on,0,0,2,,,,,,,,0,78,64
34560,note_on,0,0,2,,,,,,,,0,47,0
34620,note_on,60,0,2,,,,,,,,0,59,64
34620,note_on,60,0,1,,,,,,,,0,59,64
34680,note_on,60,0,2,,,,,,,,0,59,0
34680,note_on,0,0,1,,,,,,,,0,57,64
34680,note_on,0,0,2,,,,,,,,0,57,64
34680,note_on,60,0,1,,,,,,,,0,59,0
34740,note_on,0,0,2,,,,,,,,0,55,64
34740,note_on,60,0,2,,,,,,,,0,57,0
34740,note_on,60,0,1,,,,,,,,0,57,0
34740,note_on,0,0,1,,,,,,,,0,55,64
34800,note_on,0,0,1,,,,,,,,0,54,64
34800,note_on,60,0,2,,,,,,,,0,55,0
34800,note_on,60,0,1,,,,,,,,0,55,0
34800,note_on,0,0,2,,,,,,,,0,54,64
34860,note_on,60,0,1,,,,,,,,0,54,0
34860,note_on,0,0,2,,,,,,,,0,57,64
34860,note_on,60,0,2,,,,,,,,0,54,0
34860,note_on,0,0,1,,,,,,,,0,57,64
34920,note_on,0,0,2,,,,,,,,0,55,64
34920,note_on,60,0,1,,,,,,,,0,57,0
34920,note_on,0,0,1,,,,,,,,0,55,64
34920,note_on,60,0,2,,,,,,,,0,57,0
34980,note_on,60,0,1,,,,,,,,0,55,0
34980,note_on,0,0,2,,,,,,,,0,59,64
34980,note_on,60,0,2,,,,,,,,0,55,0
34980,note_on,0,0,1,,,,,,,,0,59,64
35040,note_on,0,0,1,,,,,,,,0,61,64
35040,note_on,0,0,1,,,,,,,,0,76,64
35040,note_on,60,0,1,,,,,,,,0,59,0
35040,note_on,0,0,2,,,,,,,,0,61,64
35040,note_on,0,0,2,,,,,,,,0,78,0
35040,note_on,60,0,2,,,,,,,,0,59,0
35040,note_on,0,0,1,,,,,,,,0,78,0
35040,note_on,0,0,2,,,,,,,,0,76,64
35100,note_on,0,0,1,,,,,,,,0,78,64
35100,note_on,0,0,2,,,,,,,,0,62,64
35100,note_on,60,0,1,,,,,,,,0,61,0
35100,note_on,0,0,1,,,,,,,,0,76,0
35100,note_on,60,0,2,,,,,,,,0,61,0
35100,note_on,0,0,2,,,,,,,,0,76,0
35100,note_on,0,0,1,,,,,,,,0,62,64
35100,note_on,0,0,2,,,,,,,,0,78,64
35160,note_on,0,0,2,,,,,,,,0,79,64
35160,note_on,0,0,1,,,,,,,,0,78,0
35160,note_on,60,0,2,,,,,,,,0,62,0
35160,note_on,0,0,2,,,,,,,,0,78,0
35160,note_on,0,0,1,,,,,,,,0,64,64
35160,note_on,0,0,2,,,,,,,,0,64,64
35160,note_on,60,0,1,,,,,,,,0,62,0
35160,note_on,0,0,1,,,,,,,,0,79,64
35220,note_on,60,0,2,,,,,,,,0,64,0
35220,note_on,0,0,1,,,,,,,,0,57,64
35220,note_on,0,0,2,,,,,,,,0,57,64
35220,note_on,60,0,1,,,,,,,,0,64,0
35280,note_on,0,0,1,,,,,,,,0,62,64
35280,note_on,0,0,1,,,,,,,,0,78,64
35280,note_on,60,0,1,,,,,,,,0,57,0
35280,note_on,0,0,2,,,,,,,,0,62,64
35280,note_on,0,0,2,,,,,,,,0,78,64
35280,note_on,0,0,1,,,,,,,,0,79,0
35280,note_on,0,0,2,,,,,,,,0,79,0
35280,note_on,60,0,2,,,,,,,,0,57,0
35340,note_on,60,0,1,,,,,,,,0,62,0
35340,note_on,0,0,1,,,,,,,,0,55,64
35340,note_on,60,0,2,,,,,,,,0,62,0
35340,note_on,0,0,2,,,,,,,,0,55,64
35390,note_on,50,0,1,,,,,,,,0,78,0
35390,note_on,50,0,2,,,,,,,,0,78,0
35400,note_on,10,0,1,,,,,,,,0,55,0
35400,note_on,0,0,1,,,,,,,,0,78,64
35400,note_on,0,0,1,,,,,,,,0,57,64
35400,note_on,0,0,2,,,,,,,,0,78,64
35400,note_on,0,0,2,,,,,,,,0,57,64
35400,note_on,10,0,2,,,,,,,,0,55,0
35415,note_on,15,0,1,,,,,,,,0,78,0
35415,note_on,0,0,1,,,,,,,,0,76,64
35415,note_on,0,0,2,,,,,,,,0,76,64
35415,note_on,15,0,2,,,,,,,,0,78,0
35430,note_on,15,0,1,,,,,,,,0,76,0
35430,note_on,0,0,1,,,,,,,,0,78,64
35430,note_on,0,0,2,,,,,,,,0,78,64
35430,note_on,15,0,2,,,,,,,,0,76,0
35445,note_on,15,0,1,,,,,,,,0,78,0
35445,note_on,0,0,2,,,,,,,,0,76,64
35445,note_on,0,0,1,,,,,,,,0,76,64
35445,note_on,15,0,2,,,,,,,,0,78,0
35460,note_on,0,0,2,,,,,,,,0,78,64
35460,note_on,15,0,1,,,,,,,,0,76,0
35460,note_on,0,0,1,,,,,,,,0,59,64
35460,note_on,0,0,2,,,,,,,,0,57,0
35460,note_on,0,0,1,,,,,,,,0,57,0
35460,note_on,0,0,2,,,,,,,,0,59,64
35460,note_on,15,0,2,,,,,,,,0,76,0
35460,note_on,0,0,1,,,,,,,,0,78,64
35475,note_on,15,0,2,,,,,,,,0,78,0
35475,note_on,15,0,1,,,,,,,,0,78,0
35475,note_on,0,0,1,,,,,,,,0,76,64
35475,note_on,0,0,1,,,,,,,,0,76,64
35475,note_on,0,0,2,,,,,,,,0,76,64
35475,note_on,0,0,2,,,,,,,,0,76,64
35490,note_on,15,0,2,,,,,,,,0,76,0
35490,note_on,15,0,1,,,,,,,,0,76,0
35520,note_on,0,0,1,,,,,,,,0,59,0
35520,note_on,30,0,2,,,,,,,,0,76,0
35520,note_on,0,0,2,,,,,,,,0,59,0
35520,note_on,0,0,2,,,,,,,,0,69,64
35520,note_on,0,0,2,,,,,,,,0,60,64
35520,note_on,0,0,1,,,,,,,,0,60,64
35520,note_on,0,0,1,,,,,,,,0,69,64
35520,note_on,30,0,1,,,,,,,,0,76,0
35580,note_on,0,0,2,,,,,,,,0,54,64
35580,note_on,60,0,1,,,,,,,,0,60,0
35580,note_on,60,0,2,,,,,,,,0,60,0
35580,note_on,0,0,1,,,,,,,,0,54,64
35640,note_on,0,0,2,,,,,,,,0,59,64
35640,note_on,60,0,2,,,,,,,,0,54,0
35640,note_on,0,0,2,,,,,,,,0,69,0
35640,note_on,0,0,2,,,,,,,,0,74,64
35640,note_on,60,0,1,,,,,,,,0,54,0
35640,note_on,0,0,1,,,,,,,,0,69,0
35640,note_on,0,0,1,,,,,,,,0,74,64
35640,note_on,0,0,1,,,,,,,,0,59,64
35700,note_on,0,0,1,,,,,,,,0,52,64
35700,note_on,0,0,2,,,,,,,,0,52,64
35700,note_on,60,0,2,,,,,,,,0,59,0
35700,note_on,60,0,1,,,,,,,,0,59,0
35760,note_on,60,0,1,,,,,,,,0,52,0
35760,note_on,0,0,1,,,,,,,,0,74,0
35760,note_on,0,0,1,,,,,,,,0,72,64
35760,note_on,0,0,1,,,,,,,,0,54,64
35760,note_on,0,0,2,,,,,,,,0,74,0
35760,note_on,0,0,2,,,,,,,,0,54,64
35760,note_on,60,0,2,,,,,,,,0,52,0
35760,note_on,0,0,2,,,,,,,,0,72,64
35820,note_on,60,0,1,,,,,,,,0,54,0
35820,note_on,0,0,1,,,,,,,,0,72,0
35820,note_on,0,0,1,,,,,,,,0,71,64
35820,note_on,0,0,1,,,,,,,,0,55,64
35820,note_on,0,0,2,,,,,,,,0,72,0
35820,note_on,0,0,2,,,,,,,,0,71,64
35820,note_on,0,0,2,,,,,,,,0,55,64
35820,note_on,60,0,2,,,,,,,,0,54,0
35880,note_on,60,0,1,,,,,,,,0,55,0
35880,note_on,0,0,2,,,,,,,,0,71,0
35880,note_on,0,0,2,,,,,,,,0,57,64
35880,note_on,0,0,1,,,,,,,,0,71,0
35880,note_on,0,0,1,,,,,,,,0,72,64
35880,note_on,0,0,2,,,,,,,,0,72,64
35880,note_on,0,0,1,,,,,,,,0,57,64
35880,note_on,60,0,2,,,,,,,,0,55,0
35940,note_on,0,0,2,,,,,,,,0,51,64
35940,note_on,60,0,1,,,,,,,,0,57,0
35940,note_on,0,0,1,,,,,,,,0,51,64
35940,note_on,60,0,2,,,,,,,,0,57,0
36000,note_on,0,0,1,,,,,,,,0,55,64
36000,note_on,60,0,2,,,,,,,,0,51,0
36000,note_on,0,0,2,,,,,,,,0,55,64
36000,note_on,60,0,1,,,,,,,,0,51,0
36060,note_on,60,0,1,,,,,,,,0,72,0
36060,note_on,0,0,1,,,,,,,,0,71,64
36060,note_on,0,0,2,,,,,,,,0,71,64
36060,note_on,60,0,2,,,,,,,,0,72,0
36120,note_on,60,0,1,,,,,,,,0,71,0
36120,note_on,0,0,1,,,,,,,,0,55,0
36120,note_on,0,0,1,,,,,,,,0,69,64
36120,note_on,60,0,2,,,,,,,,0,71,0
36120,note_on,0,0,2,,,,,,,,0,55,0
36120,note_on,0,0,2,,,,,,,,0,69,64
36120,note_on,0,0,2,,,,,,,,0,57,64
36120,note_on,0,0,1,,,,,,,,0,57,64
36180,note_on,0,0,1,,,,,,,,0,67,64
36180,note_on,60,0,2,,,,,,,,0,69,0
36180,note_on,0,0,2,,,,,,,,0,67,64
36180,note_on,60,0,1,,,,,,,,0,69,0
36240,note_on,0,0,1,,,,,,,,0,66,64
36240,note_on,60,0,1,,,,,,,,0,67,0
36240,note_on,0,0,1,,,,,,,,0,57,0
36240,note_on,60,0,2,,,,,,,,0,67,0
36240,note_on,0,0,2,,,,,,,,0,57,0
36240,note_on,0,0,2,,,,,,,,0,59,64
36240,note_on,0,0,2,,,,,,,,0,66,64
36240,note_on,0,0,1,,,,,,,,0,59,64
36300,note_on,60,0,2,,,,,,,,0,66,0
36300,note_on,0,0,2,,,,,,,,0,69,64
36300,note_on,0,0,1,,,,,,,,0,69,64
36300,note_on,60,0,1,,,,,,,,0,66,0
36360,note_on,60,0,1,,,,,,,,0,69,0
36360,note_on,0,0,1,,,,,,,,0,52,64
36360,note_on,0,0,1,,,,,,,,0,67,64
36360,note_on,0,0,1,,,,,,,,0,59,0
36360,note_on,60,0,2,,,,,,,,0,69,0
36360,note_on,0,0,2,,,,,,,,0,59,0
36360,note_on,0,0,2,,,,,,,,0,67,64
36360,note_on,0,0,2,,,,,,,,0,52,64
36420,note_on,0,0,1,,,,,,,,0,71,64
36420,note_on,60,0,1,,,,,,,,0,67,0
36420,note_on,60,0,2,,,,,,,,0,67,0
36420,note_on,0,0,2,,,,,,,,0,71,64
36480,note_on,0,0,1,,,,,,,,0,50,64
36480,note_on,0,0,1,,,,,,,,0,72,64
36480,note_on,0,0,1,,,,,,,,0,52,0
36480,note_on,60,0,1,,,,,,,,0,71,0
36480,note_on,60,0,2,,,,,,,,0,71,0
36480,note_on,0,0,2,,,,,,,,0,52,0
36480,note_on,0,0,2,,,,,,,,0,72,64
36480,note_on,0,0,2,,,,,,,,0,50,64
36540,note_on,0,0,1,,,,,,,,0,74,64
36540,note_on,60,0,1,,,,,,,,0,72,0
36540,note_on,60,0,2,,,,,,,,0,72,0
36540,note_on,0,0,2,,,,,,,,0,74,64
36600,note_on,0,0,1,,,,,,,,0,76,64
36600,note_on,0,0,1,,,,,,,,0,48,64
36600,note_on,0,0,1,,,,,,,,0,50,0
36600,note_on,60,0,1,,,,,,,,0,74,0
36600,note_on,60,0,2,,,,,,,,0,74,0
36600,note_on,0,0,2,,,,,,,,0,50,0
36600,note_on,0,0,2,,,,,,,,0,48,64
36600,note_on,0,0,2,,,,,,,,0,76,64
36660,note_on,0,0,1,,,,,,,,0,69,64
36660,note_on,60,0,1,,,,,,,,0,76,0
36660,note_on,60,0,2,,,,,,,,0,76,0
36660,note_on,0,0,2,,,,,,,,0,69,64
36720,note_on,0,0,1,,,,,,,,0,74,64
36720,note_on,60,0,2,,,,,,,,0,69,0
36720,note_on,0,0,2,,,,,,,,0,48,0
36720,note_on,0,0,1,,,,,,,,0,48,0
36720,note_on,0,0,2,,,,,,,,0,74,64
36720,note_on,0,0,2,,,,,,,,0,47,64
36720,note_on,60,0,1,,,,,,,,0,69,0
36720,note_on,0,0,1,,,,,,,,0,47,64
36780,note_on,60,0,1,,,,,,,,0,74,0
36780,note_on,0,0,2,,,,,,,,0,68,64
36780,note_on,60,0,2,,,,,,,,0,74,0
36780,note_on,0,0,1,,,,,,,,0,68,64
36840,note_on,0,0,2,,,,,,,,0,47,0
36840,note_on,60,0,2,,,,,,,,0,68,0
36840,note_on,0,0,1,,,,,,,,0,69,64
36840,note_on,0,0,1,,,,,,,,0,40,64
36840,note_on,0,0,1,,,,,,,,0,47,0
36840,note_on,0,0,2,,,,,,,,0,40,64
36840,note_on,60,0,1,,,,,,,,0,68,0
36840,note_on,0,0,2,,,,,,,,0,69,64
36900,note_on,0,0,2,,,,,,,,0,71,64
36900,note_on,60,0,1,,,,,,,,0,69,0
36900,note_on,0,0,1,,,,,,,,0,71,64
36900,note_on,60,0,2,,,,,,,,0,69,0
36960,note_on,0,0,1,,,,,,,,0,72,64
36960,note_on,0,0,1,,,,,,,,0,45,64
36960,note_on,0,0,2,,,,,,,,0,72,64
36960,note_on,0,0,2,,,,,,,,0,45,64
36960,note_on,0,0,2,,,,,,,,0,40,0
36960,note_on,60,0,2,,,,,,,,0,71,0
36960,note_on,60,0,1,,,,,,,,0,71,0
36960,note_on,0,0,1,,,,,,,,0,40,0
37020,note_on,0,0,1,,,,,,,,0,66,64
37020,note_on,0,0,2,,,,,,,,0,66,64
37020,note_on,60,0,1,,,,,,,,0,72,0
37020,note_on,60,0,2,,,,,,,,0,72,0
37080,note_on,60,0,2,,,,,,,,0,66,0
37080,note_on,0,0,2,,,,,,,,0,45,0
37080,note_on,0,0,2,,,,,,,,0,71,64
37080,note_on,0,0,2,,,,,,,,0,38,64
37080,note_on,60,0,1,,,,,,,,0,66,0
37080,note_on,0,0,1,,,,,,,,0,71,64
37080,note_on,0,0,1,,,,,,,,0,45,0
37080,note_on,0,0,1,,,,,,,,0,38,64
37140,note_on,60,0,1,,,,,,,,0,38,0
37140,note_on,0,0,1,,,,,,,,0,71,0
37140,note_on,0,0,2,,,,,,,,0,64,64
37140,note_on,0,0,2,,,,,,,,0,36,64
37140,note_on,0,0,1,,,,,,,,0,36,64
37140,note_on,0,0,1,,,,,,,,0,64,64
37140,note_on,60,0,2,,,,,,,,0,38,0
37140,note_on,0,0,2,,,,,,,,0,71,0
37200,note_on,0,0,2,,,,,,,,0,66,64
37200,note_on,60,0,1,,,,,,,,0,36,0
37200,note_on,0,0,1,,,,,,,,0,64,0
37200,note_on,0,0,1,,,,,,,,0,66,64
37200,note_on,0,0,1,,,,,,,,0,38,64
37200,note_on,0,0,2,,,,,,,,0,38,64
37200,note_on,0,0,2,,,,,,,,0,64,0
37200,note_on,60,0,2,,,,,,,,0,36,0
37260,note_on,60,0,1,,,,,,,,0,38,0
37260,note_on,0,0,1,,,,,,,,0,40,64
37260,note_on,0,0,1,,,,,,,,0,68,64
37260,note_on,0,0,1,,,,,,,,0,66,0
37260,note_on,60,0,2,,,,,,,,0,38,0
37260,note_on,0,0,2,,,,,,,,0,68,64
37260,note_on,0,0,2,,,,,,,,0,40,64
37260,note_on,0,0,2,,,,,,,,0,66,0
37320,note_on,0,0,2,,,,,,,,0,41,64
37320,note_on,0,0,2,,,,,,,,0,69,64
37320,note_on,0,0,2,,,,,,,,0,68,0
37320,note_on,60,0,2,,,,,,,,0,40,0
37320,note_on,60,0,1,,,,,,,,0,40,0
37320,note_on,0,0,1,,,,,,,,0,41,64
37320,note_on,0,0,1,,,,,,,,0,69,64
37320,note_on,0,0,1,,,,,,,,0,68,0
37380,note_on,60,0,2,,,,,,,,0,69,0
37380,note_on,0,0,1,,,,,,,,0,63,64
37380,note_on,0,0,2,,,,,,,,0,63,64
37380,note_on,60,0,1,,,,,,,,0,69,0
37440,note_on,60,0,1,,,,,,,,0,63,0
37440,note_on,60,0,2,,,,,,,,0,63,0
37440,note_on,0,0,2,,,,,,,,0,40,64
37440,note_on,0,0,1,,,,,,,,0,40,64
37440,note_on,0,0,2,,,,,,,,0,68,64
37440,note_on,0,0,1,,,,,,,,0,68,64
37440,note_on,0,0,2,,,,,,,,0,41,0
37440,note_on,0,0,1,,,,,,,,0,41,0
37500,note_on,0,0,1,,,,,,,,0,52,64
37500,note_on,60,0,1,,,,,,,,0,40,0
37500,note_on,0,0,2,,,,,,,,0,52,64
37500,note_on,60,0,2,,,,,,,,0,40,0
37560,note_on,0,0,1,,,,,,,,0,50,64
37560,note_on,0,0,1,,,,,,,,0,71,64
37560,note_on,60,0,2,,,,,,,,0,52,0
37560,note_on,0,0,1,,,,,,,,0,68,0
37560,note_on,60,0,1,,,,,,,,0,52,0
37560,note_on,0,0,2,,,,,,,,0,50,64
37560,note_on,0,0,2,,,,,,,,0,68,0
37560,note_on,0,0,2,,,,,,,,0,71,64
37580,note_on,20,0,2,,,,,,,,0,71,0
37580,note_on,0,0,1,,,,,,,,0,69,64
37580,note_on,20,0,1,,,,,,,,0,71,0
37580,note_on,0,0,2,,,,,,,,0,69,64
37600,note_on,0,0,1,,,,,,,,0,68,64
37600,note_on,0,0,2,,,,,,,,0,68,64
37600,note_on,20,0,2,,,,,,,,0,69,0
37600,note_on,20,0,1,,,,,,,,0,69,0
37620,note_on,20,0,1,,,,,,,,0,68,0
37620,note_on,0,0,2,,,,,,,,0,50,0
37620,note_on,0,0,1,,,,,,,,0,48,64
37620,note_on,0,0,1,,,,,,,,0,69,64
37620,note_on,20,0,2,,,,,,,,0,68,0
37620,note_on,0,0,1,,,,,,,,0,50,0
37620,note_on,0,0,2,,,,,,,,0,48,64
37620,note_on,0,0,2,,,,,,,,0,69,64
37680,note_on,0,0,2,,,,,,,,0,69,0
37680,note_on,0,0,2,,,,,,,,0,71,64
37680,note_on,0,0,2,,,,,,,,0,47,64
37680,note_on,0,0,1,,,,,,,,0,71,64
37680,note_on,0,0,1,,,,,,,,0,47,64
37680,note_on,0,0,1,,,,,,,,0,69,0
37680,note_on,60,0,1,,,,,,,,0,48,0
37680,note_on,60,0,2,,,,,,,,0,48,0
37740,note_on,60,0,2,,,,,,,,0,47,0
37740,note_on,0,0,1,,,,,,,,0,50,64
37740,note_on,60,0,1,,,,,,,,0,47,0
37740,note_on,0,0,2,,,,,,,,0,50,64
37800,note_on,0,0,2,,,,,,,,0,71,0
37800,note_on,0,0,1,,,,,,,,0,48,64
37800,note_on,0,0,1,,,,,,,,0,71,0
37800,note_on,0,0,1,,,,,,,,0,64,64
37800,note_on,60,0,1,,,,,,,,0,50,0
37800,note_on,60,0,2,,,,,,,,0,50,0
37800,note_on,0,0,2,,,,,,,,0,48,64
37800,note_on,0,0,2,,,,,,,,0,64,64
37860,note_on,0,0,2,,,,,,,,0,76,64
37860,note_on,60,0,1,,,,,,,,0,64,0
37860,note_on,0,0,1,,,,,,,,0,76,64
37860,note_on,60,0,2,,,,,,,,0,64,0
37920,note_on,0,0,1,,,,,,,,0,74,64
37920,note_on,60,0,2,,,,,,,,0,76,0
37920,note_on,0,0,1,,,,,,,,0,48,0
37920,note_on,60,0,1,,,,,,,,0,76,0
37920,note_on,0,0,1,,,,,,,,0,52,64
37920,note_on,0,0,2,,,,,,,,0,48,0
37920,note_on,0,0,2,,,,,,,,0,52,64
37920,note_on,0,0,2,,,,,,,,0,74,64
37940,note_on,0,0,1,,,,,,,,0,50,64
37940,note_on,20,0,1,,,,,,,,0,52,0
37940,note_on,20,0,2,,,,,,,,0,52,0
37940,note_on,0,0,2,,,,,,,,0,50,64
37960,note_on,0,0,1,,,,,,,,0,48,64
37960,note_on,20,0,1,,,,,,,,0,50,0
37960,note_on,20,0,2,,,,,,,,0,50,0
37960,note_on,0,0,2,,,,,,,,0,48,64
37980,note_on,0,0,1,,,,,,,,0,72,64
37980,note_on,0,0,2,,,,,,,,0,72,64
37980,note_on,0,0,2,,,,,,,,0,74,0
37980,note_on,0,0,1,,,,,,,,0,50,64
37980,note_on,0,0,1,,,,,,,,0,74,0
37980,note_on,20,0,1,,,,,,,,0,48,0
37980,note_on,20,0,2,,,,,,,,0,48,0
37980,note_on,0,0,2,,,,,,,,0,50,64
38040,note_on,60,0,2,,,,,,,,0,72,0
38040,note_on,0,0,2,,,,,,,,0,52,64
38040,note_on,0,0,2,,,,,,,,0,71,64
38040,note_on,0,0,1,,,,,,,,0,71,64
38040,note_on,0,0,2,,,,,,,,0,50,0
38040,note_on,0,0,1,,,,,,,,0,50,0
38040,note_on,60,0,1,,,,,,,,0,72,0
38040,note_on,0,0,1,,,,,,,,0,52,64
38100,note_on,60,0,2,,,,,,,,0,71,0
38100,note_on,0,0,2,,,,,,,,0,74,64
38100,note_on,60,0,1,,,,,,,,0,71,0
38100,note_on,0,0,1,,,,,,,,0,74,64
38160,note_on,0,0,2,,,,,,,,0,52,0
38160,note_on,0,0,1,,,,,,,,0,72,64
38160,note_on,0,0,1,,,,,,,,0,45,64
38160,note_on,0,0,2,,,,,,,,0,72,64
38160,note_on,0,0,2,,,,,,,,0,45,64
38160,note_on,0,0,1,,,,,,,,0,52,0
38160,note_on,60,0,1,,,,,,,,0,74,0
38160,note_on,60,0,2,,,,,,,,0,74,0
38220,note_on,0,0,2,,,,,,,,0,57,64
38220,note_on,60,0,2,,,,,,,,0,45,0
38220,note_on,0,0,1,,,,,,,,0,57,64
38220,note_on,60,0,1,,,,,,,,0,45,0
38280,note_on,60,0,2,,,,,,,,0,57,0
38280,note_on,0,0,2,,,,,,,,0,76,64
38280,note_on,0,0,2,,,,,,,,0,72,0
38280,note_on,0,0,1,,,,,,,,0,55,64
38280,note_on,0,0,1,,,,,,,,0,72,0
38280,note_on,60,0,1,,,,,,,,0,57,0
38280,note_on,0,0,1,,,,,,,,0,76,64
38280,note_on,0,0,2,,,,,,,,0,55,64
38300,note_on,0,0,1,,,,,,,,0,74,64
38300,note_on,20,0,2,,,,,,,,0,76,0
38300,note_on,20,0,1,,,,,,,,0,76,0
38300,note_on,0,0,2,,,,,,,,0,74,64
38320,note_on,0,0,1,,,,,,,,0,72,64
38320,note_on,20,0,1,,,,,,,,0,74,0
38320,note_on,20,0,2,,,,,,,,0,74,0
38320,note_on,0,0,2,,,,,,,,0,72,64
38340,note_on,0,0,1,,,,,,,,0,74,64
38340,note_on,0,0,1,,,,,,,,0,53,64
38340,note_on,0,0,1,,,,,,,,0,55,0
38340,note_on,20,0,1,,,,,,,,0,72,0
38340,note_on,20,0,2,,,,,,,,0,72,0
38340,note_on,0,0,2,,,,,,,,0,55,0
38340,note_on,0,0,2,,,,,,,,0,74,64
38340,note_on,0,0,2,,,,,,,,0,53,64
38400,note_on,0,0,1,,,,,,,,0,52,64
38400,note_on,0,0,1,,,,,,,,0,74,0
38400,note_on,60,0,1,,,,,,,,0,53,0
38400,note_on,60,0,2,,,,,,,,0,53,0
38400,note_on,0,0,2,,,,,,,,0,74,0
38400,note_on,0,0,2,,,,,,,,0,76,64
38400,note_on,0,0,2,,,,,,,,0,52,64
38400,note_on,0,0,1,,,,,,,,0,76,64
38460,note_on,0,0,1,,,,,,,,0,55,64
38460,note_on,60,0,1,,,,,,,,0,52,0
38460,note_on,60,0,2,,,,,,,,0,52,0
38460,note_on,0,0,2,,,,,,,,0,55,64
38520,note_on,0,0,2,,,,,,,,0,76,0
38520,note_on,0,0,2,,,,,,,,0,69,64
38520,note_on,0,0,2,,,,,,,,0,53,64
38520,note_on,0,0,1,,,,,,,,0,69,64
38520,note_on,0,0,1,,,,,,,,0,76,0
38520,note_on,60,0,1,,,,,,,,0,55,0
38520,note_on,0,0,1,,,,,,,,0,53,64
38520,note_on,60,0,2,,,,,,,,0,55,0
38580,note_on,60,0,2,,,,,,,,0,69,0
38580,note_on,60,0,1,,,,,,,,0,69,0
38580,note_on,0,0,1,,,,,,,,0,81,64
38580,note_on,0,0,2,,,,,,,,0,81,64
38640,note_on,0,0,1,,,,,,,,0,53,0
38640,note_on,0,0,1,,,,,,,,0,55,64
38640,note_on,0,0,2,,,,,,,,0,53,0
38640,note_on,60,0,1,,,,,,,,0,81,0
38640,note_on,0,0,1,,,,,,,,0,79,64
38640,note_on,0,0,2,,,,,,,,0,79,64
38640,note_on,0,0,2,,,,,,,,0,55,64
38640,note_on,60,0,2,,,,,,,,0,81,0
38700,note_on,0,0,1,,,,,,,,0,77,64
38700,note_on,60,0,1,,,,,,,,0,79,0
38700,note_on,60,0,2,,,,,,,,0,79,0
38700,note_on,0,0,2,,,,,,,,0,77,64
38760,note_on,0,0,1,,,,,,,,0,57,64
38760,note_on,0,0,1,,,,,,,,0,76,64
38760,note_on,60,0,1,,,,,,,,0,77,0
38760,note_on,0,0,1,,,,,,,,0,55,0
38760,note_on,60,0,2,,,,,,,,0,77,0
38760,note_on,0,0,2,,,,,,,,0,55,0
38760,note_on,0,0,2,,,,,,,,0,57,64
38760,note_on,0,0,2,,,,,,,,0,76,64
38820,note_on,0,0,2,,,,,,,,0,79,64
38820,note_on,0,0,1,,,,,,,,0,79,64
38820,note_on,60,0,1,,,,,,,,0,76,0
38820,note_on,60,0,2,,,,,,,,0,76,0
38880,note_on,60,0,2,,,,,,,,0,79,0
38880,note_on,0,0,2,,,,,,,,0,57,0
38880,note_on,60,0,1,,,,,,,,0,79,0
38880,note_on,0,0,1,,,,,,,,0,50,64
38880,note_on,0,0,2,,,,,,,,0,77,64
38880,note_on,0,0,2,,,,,,,,0,50,64
38880,note_on,0,0,1,,,,,,,,0,77,64
38880,note_on,0,0,1,,,,,,,,0,57,0
38940,note_on,0,0,1,,,,,,,,0,62,64
38940,note_on,60,0,1,,,,,,,,0,50,0
38940,note_on,60,0,2,,,,,,,,0,50,0
38940,note_on,0,0,2,,,,,,,,0,62,64
39000,note_on,0,0,1,,,,,,,,0,60,64
39000,note_on,0,0,2,,,,,,,,0,77,0
39000,note_on,60,0,1,,,,,,,,0,62,0
39000,note_on,0,0,2,,,,,,,,0,79,64
39000,note_on,0,0,1,,,,,,,,0,79,64
39000,note_on,0,0,2,,,,,,,,0,60,64
39000,note_on,60,0,2,,,,,,,,0,62,0
39000,note_on,0,0,1,,,,,,,,0,77,0
39060,note_on,60,0,1,,,,,,,,0,60,0
39060,note_on,0,0,1,,,,,,,,0,59,64
39060,note_on,0,0,2,,,,,,,,0,59,64
39060,note_on,60,0,2,,,,,,,,0,60,0
39120,note_on,60,0,1,,,,,,,,0,59,0
39120,note_on,0,0,1,,,,,,,,0,79,0
39120,note_on,0,0,1,,,,,,,,0,81,64
39120,note_on,0,0,1,,,,,,,,0,57,64
39120,note_on,0,0,2,,,,,,,,0,81,64
39120,note_on,0,0,2,,,,,,,,0,57,64
39120,note_on,60,0,2,,,,,,,,0,59,0
39120,note_on,0,0,2,,,,,,,,0,79,0
39180,note_on,60,0,1,,,,,,,,0,57,0
39180,note_on,0,0,1,,,,,,,,0,60,64
39180,note_on,0,0,2,,,,,,,,0,60,64
39180,note_on,60,0,2,,,,,,,,0,57,0
39240,note_on,0,0,1,,,,,,,,0,59,64
39240,note_on,60,0,1,,,,,,,,0,60,0
39240,note_on,0,0,2,,,,,,,,0,59,64
39240,note_on,60,0,2,,,,,,,,0,60,0
39300,note_on,0,0,1,,,,,,,,0,74,64
39300,note_on,60,0,1,,,,,,,,0,81,0
39300,note_on,0,0,2,,,,,,,,0,74,64
39300,note_on,60,0,2,,,,,,,,0,81,0
39360,note_on,0,0,1,,,,,,,,0,72,64
39360,note_on,0,0,1,,,,,,,,0,59,0
39360,note_on,60,0,1,,,,,,,,0,74,0
39360,note_on,0,0,2,,,,,,,,0,60,64
39360,note_on,0,0,2,,,,,,,,0,72,64
39360,note_on,0,0,2,,,,,,,,0,59,0
39360,note_on,60,0,2,,,,,,,,0,74,0
39360,note_on,0,0,1,,,,,,,,0,60,64
39420,note_on,0,0,2,,,,,,,,0,71,64
39420,note_on,60,0,2,,,,,,,,0,72,0
39420,note_on,0,0,1,,,,,,,,0,71,64
39420,note_on,60,0,1,,,,,,,,0,72,0
39480,note_on,0,0,2,,,,,,,,0,69,64
39480,note_on,0,0,2,,,,,,,,0,62,64
39480,note_on,0,0,2,,,,,,,,0,60,0
39480,note_on,60,0,2,,,,,,,,0,71,0
39480,note_on,0,0,1,,,,,,,,0,69,64
39480,note_on,0,0,1,,,,,,,,0,62,64
39480,note_on,0,0,1,,,,,,,,0,60,0
39480,note_on,60,0,1,,,,,,,,0,71,0
39540,note_on,0,0,1,,,,,,,,0,72,64
39540,note_on,60,0,1,,,,,,,,0,69,0
39540,note_on,60,0,2,,,,,,,,0,69,0
39540,note_on,0,0,2,,,,,,,,0,72,64
39600,note_on,60,0,2,,,,,,,,0,72,0
39600,note_on,0,0,1,,,,,,,,0,62,0
39600,note_on,0,0,2,,,,,,,,0,71,64
39600,note_on,0,0,2,,,,,,,,0,62,0
39600,note_on,0,0,1,,,,,,,,0,71,64
39600,note_on,60,0,1,,,,,,,,0,72,0
39660,note_on,60,0,2,,,,,,,,0,55,64
39660,note_on,60,0,1,,,,,,,,0,55,64
39720,note_on,0,0,2,,,,,,,,0,72,64
39720,note_on,0,0,2,,,,,,,,0,53,64
39720,note_on,0,0,2,,,,,,,,0,71,0
39720,note_on,0,0,1,,,,,,,,0,71,0
39720,note_on,0,0,1,,,,,,,,0,53,64
39720,note_on,60,0,1,,,,,,,,0,55,0
39720,note_on,0,0,1,,,,,,,,0,72,64
39720,note_on,60,0,2,,,,,,,,0,55,0
39780,note_on,60,0,2,,,,,,,,0,53,0
39780,note_on,0,0,2,,,,,,,,0,52,64
39780,note_on,0,0,1,,,,,,,,0,52,64
39780,note_on,60,0,1,,,,,,,,0,53,0
39840,note_on,0,0,2,,,,,,,,0,72,0
39840,note_on,60,0,1,,,,,,,,0,52,0
39840,note_on,0,0,1,,,,,,,,0,72,0
39840,note_on,0,0,1,,,,,,,,0,74,64
39840,note_on,0,0,2,,,,,,,,0,50,64
39840,note_on,60,0,2,,,,,,,,0,52,0
39840,note_on,0,0,2,,,,,,,,0,74,64
39840,note_on,0,0,1,,,,,,,,0,50,64
39900,note_on,0,0,1,,,,,,,,0,53,64
39900,note_on,60,0,1,,,,,,,,0,50,0
39900,note_on,0,0,2,,,,,,,,0,53,64
39900,note_on,60,0,2,,,,,,,,0,50,0
39960,note_on,60,0,2,,,,,,,,0,53,0
39960,note_on,0,0,1,,,,,,,,0,43,64
39960,note_on,60,0,1,,,,,,,,0,53,0
39960,note_on,0,0,2,,,,,,,,0,43,64
40020,note_on,0,0,1,,,,,,,,0,53,64
40020,note_on,0,0,1,,,,,,,,0,67,64
40020,note_on,0,0,1,,,,,,,,0,74,0
40020,note_on,0,0,2,,,,,,,,0,53,64
40020,note_on,60,0,2,,,,,,,,0,43,0
40020,note_on,0,0,2,,,,,,,,0,67,64
40020,note_on,60,0,1,,,,,,,,0,43,0
40020,note_on,0,0,2,,,,,,,,0,74,0
40080,note_on,60,0,1,,,,,,,,0,53,0
40080,note_on,0,0,1,,,,,,,,0,72,64
40080,note_on,0,0,1,,,,,,,,0,52,64
40080,note_on,0,0,2,,,,,,,,0,52,64
40080,note_on,0,0,2,,,,,,,,0,72,64
40080,note_on,0,0,1,,,,,,,,0,67,0
40080,note_on,60,0,2,,,,,,,,0,53,0
40080,note_on,0,0,2,,,,,,,,0,67,0
40140,note_on,60,0,2,,,,,,,,0,52,0
40140,note_on,0,0,2,,,,,,,,0,72,0
40140,note_on,0,0,2,,,,,,,,0,74,64
40140,note_on,0,0,2,,,,,,,,0,50,64
40140,note_on,60,0,1,,,,,,,,0,52,0
40140,note_on,0,0,1,,,,,,,,0,72,0
40140,note_on,0,0,1,,,,,,,,0,74,64
40140,note_on,0,0,1,,,,,,,,0,50,64
40200,note_on,60,0,1,,,,,,,,0,50,0
40200,note_on,0,0,2,,,,,,,,0,48,64
40200,note_on,0,0,1,,,,,,,,0,76,64
40200,note_on,0,0,2,,,,,,,,0,76,64
40200,note_on,0,0,1,,,,,,,,0,48,64
40200,note_on,60,0,2,,,,,,,,0,50,0
40200,note_on,0,0,1,,,,,,,,0,74,0
40200,note_on,0,0,2,,,,,,,,0,74,0
40260,note_on,0,0,1,,,,,,,,0,52,64
40260,note_on,60,0,2,,,,,,,,0,48,0
40260,note_on,0,0,2,,,,,,,,0,52,64
40260,note_on,60,0,1,,,,,,,,0,48,0
40320,note_on,60,0,1,,,,,,,,0,52,0
40320,note_on,60,0,2,,,,,,,,0,52,0
40320,note_on,0,0,1,,,,,,,,0,43,64
40320,note_on,0,0,2,,,,,,,,0,43,64
40380,note_on,0,0,1,,,,,,,,0,52,64
40380,note_on,0,0,1,,,,,,,,0,72,64
40380,note_on,0,0,1,,,,,,,,0,76,0
40380,note_on,60,0,1,,,,,,,,0,43,0
40380,note_on,0,0,2,,,,,,,,0,52,64
40380,note_on,0,0,2,,,,,,,,0,72,64
40380,note_on,0,0,2,,,,,,,,0,76,0
40380,note_on,60,0,2,,,,,,,,0,43,0
40440,note_on,0,0,1,,,,,,,,0,50,64
40440,note_on,0,0,2,,,,,,,,0,74,64
40440,note_on,60,0,1,,,,,,,,0,52,0
40440,note_on,0,0,1,,,,,,,,0,72,0
40440,note_on,0,0,1,,,,,,,,0,74,64
40440,note_on,0,0,2,,,,,,,,0,50,64
40440,note_on,60,0,2,,,,,,,,0,52,0
40440,note_on,0,0,2,,,,,,,,0,72,0
40500,note_on,0,0,2,,,,,,,,0,48,64
40500,note_on,0,0,1,,,,,,,,0,48,64
40500,note_on,60,0,1,,,,,,,,0,50,0
40500,note_on,0,0,2,,,,,,,,0,76,64
40500,note_on,0,0,2,,,,,,,,0,74,0
40500,note_on,60,0,2,,,,,,,,0,50,0
40500,note_on,0,0,1,,,,,,,,0,76,64
40500,note_on,0,0,1,,,,,,,,0,74,0
40560,note_on,60,0,1,,,,,,,,0,48,0
40560,note_on,0,0,1,,,,,,,,0,76,0
40560,note_on,0,0,1,,,,,,,,0,77,64
40560,note_on,0,0,1,,,,,,,,0,47,64
40560,note_on,0,0,2,,,,,,,,0,47,64
40560,note_on,0,0,2,,,,,,,,0,77,64
40560,note_on,0,0,2,,,,,,,,0,76,0
40560,note_on,60,0,2,,,,,,,,0,48,0
40620,note_on,0,0,1,,,,,,,,0,50,64
40620,note_on,60,0,1,,,,,,,,0,47,0
40620,note_on,0,0,2,,,,,,,,0,50,64
40620,note_on,60,0,2,,,,,,,,0,47,0
40680,note_on,60,0,2,,,,,,,,0,50,0
40680,note_on,0,0,2,,,,,,,,0,43,64
40680,note_on,0,0,1,,,,,,,,0,43,64
40680,note_on,60,0,1,,,,,,,,0,50,0
40740,note_on,0,0,2,,,,,,,,0,79,64
40740,note_on,60,0,2,,,,,,,,0,77,0
40740,note_on,0,0,1,,,,,,,,0,79,64
40740,note_on,60,0,1,,,,,,,,0,77,0
40800,note_on,0,0,2,,,,,,,,0,45,64
40800,note_on,0,0,2,,,,,,,,0,77,64
40800,note_on,0,0,2,,,,,,,,0,43,0
40800,note_on,60,0,2,,,,,,,,0,79,0
40800,note_on,0,0,1,,,,,,,,0,43,0
40800,note_on,0,0,1,,,,,,,,0,77,64
40800,note_on,0,0,1,,,,,,,,0,45,64
40800,note_on,60,0,1,,,,,,,,0,79,0
40860,note_on,0,0,1,,,,,,,,0,76,64
40860,note_on,60,0,1,,,,,,,,0,77,0
40860,note_on,0,0,2,,,,,,,,0,76,64
40860,note_on,60,0,2,,,,,,,,0,77,0
40920,note_on,0,0,1,,,,,,,,0,45,0
40920,note_on,0,0,1,,,,,,,,0,74,64
40920,note_on,60,0,1,,,,,,,,0,76,0
40920,note_on,0,0,1,,,,,,,,0,47,64
40920,note_on,60,0,2,,,,,,,,0,76,0
40920,note_on,0,0,2,,,,,,,,0,45,0
40920,note_on,0,0,2,,,,,,,,0,47,64
40920,note_on,0,0,2,,,,,,,,0,74,64
40980,note_on,0,0,1,,,,,,,,0,77,64
40980,note_on,60,0,1,,,,,,,,0,74,0
40980,note_on,0,0,2,,,,,,,,0,77,64
40980,note_on,60,0,2,,,,,,,,0,74,0
41040,note_on,0,0,1,,,,,,,,0,48,64
41040,note_on,60,0,1,,,,,,,,0,77,0
41040,note_on,0,0,1,,,,,,,,0,76,64
41040,note_on,0,0,1,,,,,,,,0,47,0
41040,note_on,0,0,2,,,,,,,,0,47,0
41040,note_on,0,0,2,,,,,,,,0,76,64
41040,note_on,60,0,2,,,,,,,,0,77,0
41040,note_on,0,0,2,,,,,,,,0,48,64
41100,note_on,0,0,1,,,,,,,,0,62,64
41100,note_on,0,0,2,,,,,,,,0,62,64
41100,note_on,0,0,2,,,,,,,,0,64,64
41100,note_on,0,0,1,,,,,,,,0,64,64
41100,note_on,60,0,2,,,,,,,,0,48,0
41100,note_on,0,0,1,,,,,,,,0,76,0
41100,note_on,60,0,1,,,,,,,,0,48,0
41100,note_on,0,0,2,,,,,,,,0,76,0
41160,note_on,0,0,1,,,,,,,,0,66,64
41160,note_on,60,0,1,,,,,,,,0,62,0
41160,note_on,0,0,2,,,,,,,,0,66,64
41160,note_on,0,0,1,,,,,,,,0,64,0
41160,note_on,0,0,1,,,,,,,,0,60,64
41160,note_on,0,0,2,,,,,,,,0,60,64
41160,note_on,0,0,2,,,,,,,,0,64,0
41160,note_on,60,0,2,,,,,,,,0,62,0
41220,note_on,0,0,1,,,,,,,,0,66,0
41220,note_on,0,0,1,,,,,,,,0,68,64
41220,note_on,0,0,2,,,,,,,,0,68,64
41220,note_on,60,0,2,,,,,,,,0,60,0
41220,note_on,0,0,2,,,,,,,,0,59,64
41220,note_on,0,0,2,,,,,,,,0,66,0
41220,note_on,60,0,1,,,,,,,,0,60,0
41220,note_on,0,0,1,,,,,,,,0,59,64
41280,note_on,0,0,2,,,,,,,,0,69,64
41280,note_on,0,0,1,,,,,,,,0,68,0
41280,note_on,0,0,1,,,,,,,,0,69,64
41280,note_on,0,0,1,,,,,,,,0,57,64
41280,note_on,0,0,2,,,,,,,,0,68,0
41280,note_on,60,0,2,,,,,,,,0,59,0
41280,note_on,60,0,1,,,,,,,,0,59,0
41280,note_on,0,0,2,,,,,,,,0,57,64
41340,note_on,0,0,2,,,,,,,,0,60,64
41340,note_on,60,0,2,,,,,,,,0,57,0
41340,note_on,0,0,2,,,,,,,,0,66,64
41340,note_on,0,0,2,,,,,,,,0,69,0
41340,note_on,60,0,1,,,,,,,,0,57,0
41340,note_on,0,0,1,,,,,,,,0,69,0
41340,note_on,0,0,1,,,,,,,,0,60,64
41340,note_on,0,0,1,,,,,,,,0,66,64
41400,note_on,0,0,2,,,,,,,,0,47,64
41400,note_on,0,0,2,,,,,,,,0,74,64
41400,note_on,0,0,1,,,,,,,,0,47,64
41400,note_on,0,0,1,,,,,,,,0,74,64
41400,note_on,0,0,1,,,,,,,,0,60,0
41400,note_on,0,0,2,,,,,,,,0,60,0
41400,note_on,60,0,2,,,,,,,,0,66,0
41400,note_on,60,0,1,,,,,,,,0,66,0
41460,note_on,60,0,2,,,,,,,,0,47,0
41460,note_on,0,0,2,,,,,,,,0,74,0
41460,note_on,0,0,2,,,,,,,,0,66,64
41460,note_on,0,0,2,,,,,,,,0,60,64
41460,note_on,60,0,1,,,,,,,,0,47,0
41460,note_on,0,0,1,,,,,,,,0,60,64
41460,note_on,0,0,1,,,,,,,,0,66,64
41460,note_on,0,0,1,,,,,,,,0,74,0
41520,note_on,0,0,2,,,,,,,,0,66,0
41520,note_on,60,0,2,,,,,,,,0,60,0
41520,note_on,0,0,2,,,,,,,,0,59,64
41520,note_on,0,0,2,,,,,,,,0,68,64
41520,note_on,60,0,1,,,,,,,,0,60,0
41520,note_on,0,0,1,,,,,,,,0,59,64
41520,note_on,0,0,1,,,,,,,,0,68,64
41520,note_on,0,0,1,,,,,,,,0,66,0
41580,note_on,60,0,2,,,,,,,,0,59,0
41580,note_on,0,0,2,,,,,,,,0,68,0
41580,note_on,0,0,2,,,,,,,,0,69,64
41580,note_on,0,0,2,,,,,,,,0,57,64
41580,note_on,0,0,1,,,,,,,,0,57,64
41580,note_on,0,0,1,,,,,,,,0,69,64
41580,note_on,0,0,1,,,,,,,,0,68,0
41580,note_on,60,0,1,,,,,,,,0,59,0
41640,note_on,60,0,2,,,,,,,,0,57,0
41640,note_on,0,0,2,,,,,,,,0,69,0
41640,note_on,0,0,2,,,,,,,,0,71,64
41640,note_on,0,0,2,,,,,,,,0,56,64
41640,note_on,0,0,1,,,,,,,,0,71,64
41640,note_on,0,0,1,,,,,,,,0,69,0
41640,note_on,60,0,1,,,,,,,,0,57,0
41640,note_on,0,0,1,,,,,,,,0,56,64
41700,note_on,60,0,2,,,,,,,,0,56,0
41700,note_on,0,0,2,,,,,,,,0,59,64
41700,note_on,0,0,2,,,,,,,,0,68,64
41700,note_on,0,0,1,,,,,,,,0,68,64
41700,note_on,0,0,1,,,,,,,,0,59,64
41700,note_on,0,0,1,,,,,,,,0,71,0
41700,note_on,60,0,1,,,,,,,,0,56,0
41700,note_on,0,0,2,,,,,,,,0,71,0
41760,note_on,60,0,1,,,,,,,,0,68,0
41760,note_on,0,0,2,,,,,,,,0,59,0
41760,note_on,0,0,1,,,,,,,,0,72,64
41760,note_on,0,0,1,,,,,,,,0,45,64
41760,note_on,60,0,2,,,,,,,,0,68,0
41760,note_on,0,0,1,,,,,,,,0,59,0
41760,note_on,0,0,2,,,,,,,,0,45,64
41760,note_on,0,0,2,,,,,,,,0,72,64
41820,note_on,0,0,2,,,,,,,,0,68,64
41820,note_on,0,0,2,,,,,,,,0,59,64
41820,note_on,60,0,2,,,,,,,,0,45,0
41820,note_on,0,0,1,,,,,,,,0,59,64
41820,note_on,0,0,1,,,,,,,,0,68,64
41820,note_on,0,0,1,,,,,,,,0,72,0
41820,note_on,60,0,1,,,,,,,,0,45,0
41820,note_on,0,0,2,,,,,,,,0,72,0
41880,note_on,0,0,1,,,,,,,,0,69,64
41880,note_on,0,0,1,,,,,,,,0,68,0
41880,note_on,0,0,1,,,,,,,,0,57,64
41880,note_on,60,0,1,,,,,,,,0,59,0
41880,note_on,60,0,2,,,,,,,,0,59,0
41880,note_on,0,0,2,,,,,,,,0,69,64
41880,note_on,0,0,2,,,,,,,,0,57,64
41880,note_on,0,0,2,,,,,,,,0,68,0
41940,note_on,0,0,2,,,,,,,,0,69,0
41940,note_on,60,0,2,,,,,,,,0,57,0
41940,note_on,0,0,2,,,,,,,,0,56,64
41940,note_on,0,0,2,,,,,,,,0,71,64
41940,note_on,0,0,1,,,,,,,,0,71,64
41940,note_on,60,0,1,,,,,,,,0,57,0
41940,note_on,0,0,1,,,,,,,,0,69,0
41940,note_on,0,0,1,,,,,,,,0,56,64
42000,note_on,0,0,2,,,,,,,,0,72,64
42000,note_on,0,0,2,,,,,,,,0,71,0
42000,note_on,60,0,1,,,,,,,,0,56,0
42000,note_on,60,0,2,,,,,,,,0,56,0
42000,note_on,0,0,1,,,,,,,,0,71,0
42000,note_on,0,0,1,,,,,,,,0,72,64
42000,note_on,0,0,1,,,,,,,,0,54,64
42000,note_on,0,0,2,,,,,,,,0,54,64
42060,note_on,0,0,1,,,,,,,,0,69,64
42060,note_on,60,0,2,,,,,,,,0,54,0
42060,note_on,0,0,1,,,,,,,,0,57,64
42060,note_on,0,0,1,,,,,,,,0,72,0
42060,note_on,60,0,1,,,,,,,,0,54,0
42060,note_on,0,0,2,,,,,,,,0,69,64
42060,note_on,0,0,2,,,,,,,,0,57,64
42060,note_on,0,0,2,,,,,,,,0,72,0
42120,note_on,0,0,1,,,,,,,,0,51,64
42120,note_on,0,0,1,,,,,,,,0,57,0
42120,note_on,0,0,2,,,,,,,,0,51,64
42120,note_on,0,0,2,,,,,,,,0,72,64
42120,note_on,0,0,2,,,,,,,,0,57,0
42120,note_on,60,0,2,,,,,,,,0,69,0
42120,note_on,60,0,1,,,,,,,,0,69,0
42120,note_on,0,0,1,,,,,,,,0,72,64
42180,note_on,0,0,1,,,,,,,,0,71,64
42180,note_on,0,0,2,,,,,,,,0,71,64
42180,note_on,60,0,1,,,,,,,,0,72,0
42180,note_on,60,0,2,,,,,,,,0,72,0
42240,note_on,0,0,2,,,,,,,,0,51,0
42240,note_on,0,0,2,,,,,,,,0,69,64
42240,note_on,0,0,1,,,,,,,,0,51,0
42240,note_on,60,0,1,,,,,,,,0,71,0
42240,note_on,0,0,2,,,,,,,,0,52,64
42240,note_on,60,0,2,,,,,,,,0,71,0
42240,note_on,0,0,1,,,,,,,,0,52,64
42240,note_on,0,0,1,,,,,,,,0,69,64
42300,note_on,0,0,2,,,,,,,,0,68,64
42300,note_on,60,0,1,,,,,,,,0,69,0
42300,note_on,0,0,1,,,,,,,,0,68,64
42300,note_on,60,0,2,,,,,,,,0,69,0
42360,note_on,0,0,1,,,,,,,,0,69,64
42360,note_on,0,0,1,,,,,,,,0,52,0
42360,note_on,60,0,1,,,,,,,,0,68,0
42360,note_on,0,0,1,,,,,,,,0,53,64
42360,note_on,0,0,2,,,,,,,,0,69,64
42360,note_on,0,0,2,,,,,,,,0,53,64
42360,note_on,60,0,2,,,,,,,,0,68,0
42360,note_on,0,0,2,,,,,,,,0,52,0
42480,note_on,120,0,2,,,,,,,,0,53,0
42480,note_on,120,0,1,,,,,,,,0,53,0
42480,note_on,0,0,1,,,,,,,,0,52,64
42480,note_on,0,0,2,,,,,,,,0,52,64
42540,note_on,60,0,1,,,,,,,,0,52,0
42540,note_on,0,0,2,,,,,,,,0,50,64
42540,note_on,0,0,1,,,,,,,,0,50,64
42540,note_on,0,0,2,,,,,,,,0,71,64
42540,note_on,0,0,1,,,,,,,,0,71,64
42540,note_on,0,0,1,,,,,,,,0,69,0
42540,note_on,60,0,2,,,,,,,,0,52,0
42540,note_on,0,0,2,,,,,,,,0,69,0
42600,note_on,0,0,2,,,,,,,,0,52,64
42600,note_on,0,0,1,,,,,,,,0,71,0
42600,note_on,60,0,1,,,,,,,,0,50,0
42600,note_on,0,0,2,,,,,,,,0,71,64
42600,note_on,0,0,1,,,,,,,,0,71,64
42600,note_on,0,0,1,,,,,,,,0,52,64
42600,note_on,0,0,2,,,,,,,,0,71,0
42600,note_on,60,0,2,,,,,,,,0,50,0
42720,note_on,0,0,1,,,,,,,,0,40,64
42720,note_on,120,0,2,,,,,,,,0,52,0
42720,note_on,0,0,2,,,,,,,,0,40,64
42720,note_on,120,0,1,,,,,,,,0,52,0
42780,note_on,0,0,2,,,,,,,,0,69,64
42780,note_on,0,0,1,,,,,,,,0,69,64
42780,note_on,60,0,1,,,,,,,,0,71,0
42780,note_on,60,0,2,,,,,,,,0,71,0
42840,note_on,0,0,1,,,,,,,,0,40,0
42840,note_on,60,0,1,,,,,,,,0,69,0
42840,note_on,0,0,2,,,,,,,,0,45,64
42840,note_on,0,0,2,,,,,,,,0,69,64
42840,note_on,0,0,2,,,,,,,,0,40,0
42840,note_on,60,0,2,,,,,,,,0,69,0
42840,note_on,0,0,1,,,,,,,,0,45,64
42840,note_on,0,0,1,,,,,,,,0,69,64
42900,note_on,60,0,1,,,,,,,,0,45,0
42900,note_on,60,0,2,,,,,,,,0,45,0
42900,note_on,0,0,2,,,,,,,,0,57,64
42900,note_on,0,0,1,,,,,,,,0,57,64
42960,note_on,60,0,2,,,,,,,,0,57,0
42960,note_on,0,0,2,,,,,,,,0,55,64
42960,note_on,60,0,1,,,,,,,,0,57,0
42960,note_on,0,0,1,,,,,,,,0,55,64
43020,note_on,60,0,2,,,,,,,,0,55,0
43020,note_on,0,0,2,,,,,,,,0,54,64
43020,note_on,0,0,1,,,,,,,,0,54,64
43020,note_on,60,0,1,,,,,,,,0,55,0
43080,note_on,60,0,2,,,,,,,,0,54,0
43080,note_on,0,0,2,,,,,,,,0,52,64
43080,note_on,0,0,1,,,,,,,,0,52,64
43080,note_on,60,0,1,,,,,,,,0,54,0
43140,note_on,60,0,1,,,,,,,,0,52,0
43140,note_on,60,0,2,,,,,,,,0,52,0
43140,note_on,0,0,1,,,,,,,,0,55,64
43140,note_on,0,0,2,,,,,,,,0,55,64
43200,note_on,0,0,1,,,,,,,,0,54,64
43200,note_on,0,0,2,,,,,,,,0,54,64
43200,note_on,0,0,2,,,,,,,,0,69,0
43200,note_on,60,0,2,,,,,,,,0,55,0
43200,note_on,60,0,1,,,,,,,,0,55,0
43200,note_on,0,0,1,,,,,,,,0,69,0
43260,note_on,60,0,2,,,,,,,,0,74,64
43260,note_on,60,0,1,,,,,,,,0,74,64
43320,note_on,0,0,2,,,,,,,,0,50,64
43320,note_on,0,0,2,,,,,,,,0,54,0
43320,note_on,60,0,2,,,,,,,,0,74,0
43320,note_on,0,0,2,,,,,,,,0,72,64
43320,note_on,0,0,1,,,,,,,,0,54,0
43320,note_on,0,0,1,,,,,,,,0,72,64
43320,note_on,0,0,1,,,,,,,,0,50,64
43320,note_on,60,0,1,,,,,,,,0,74,0
43380,note_on,0,0,2,,,,,,,,0,71,64
43380,note_on,60,0,2,,,,,,,,0,72,0
43380,note_on,60,0,1,,,,,,,,0,72,0
43380,note_on,0,0,1,,,,,,,,0,71,64
43440,note_on,60,0,1,,,,,,,,0,71,0
43440,note_on,0,0,1,,,,,,,,0,50,0
43440,note_on,0,0,1,,,,,,,,0,69,64
43440,note_on,60,0,2,,,,,,,,0,71,0
43440,note_on,0,0,2,,,,,,,,0,50,0
43440,note_on,0,0,2,,,,,,,,0,54,64
43440,note_on,0,0,2,,,,,,,,0,69,64
43440,note_on,0,0,1,,,,,,,,0,54,64
43500,note_on,60,0,2,,,,,,,,0,69,0
43500,note_on,0,0,2,,,,,,,,0,72,64
43500,note_on,0,0,1,,,,,,,,0,72,64
43500,note_on,60,0,1,,,,,,,,0,69,0
43560,note_on,0,0,1,,,,,,,,0,54,0
43560,note_on,60,0,2,,,,,,,,0,72,0
43560,note_on,0,0,2,,,,,,,,0,55,64
43560,note_on,0,0,2,,,,,,,,0,54,0
43560,note_on,60,0,1,,,,,,,,0,72,0
43560,note_on,0,0,1,,,,,,,,0,71,64
43560,note_on,0,0,1,,,,,,,,0,55,64
43560,note_on,0,0,2,,,,,,,,0,71,64
43620,note_on,0,0,2,,,,,,,,0,74,64
43620,note_on,60,0,2,,,,,,,,0,71,0
43620,note_on,60,0,1,,,,,,,,0,71,0
43620,note_on,0,0,1,,,,,,,,0,74,64
43680,note_on,0,0,1,,,,,,,,0,54,64
43680,note_on,60,0,2,,,,,,,,0,74,0
43680,note_on,0,0,2,,,,,,,,0,54,64
43680,note_on,60,0,1,,,,,,,,0,74,0
43680,note_on,0,0,1,,,,,,,,0,55,0
43680,note_on,0,0,1,,,,,,,,0,76,64
43680,note_on,0,0,2,,,,,,,,0,55,0
43680,note_on,0,0,2,,,,,,,,0,76,64
43740,note_on,0,0,2,,,,,,,,0,78,64
43740,note_on,0,0,1,,,,,,,,0,78,64
43740,note_on,60,0,1,,,,,,,,0,76,0
43740,note_on,60,0,2,,,,,,,,0,76,0
43800,note_on,0,0,1,,,,,,,,0,79,64
43800,note_on,0,0,1,,,,,,,,0,52,64
43800,note_on,0,0,1,,,,,,,,0,54,0
43800,note_on,60,0,1,,,,,,,,0,78,0
43800,note_on,0,0,2,,,,,,,,0,54,0
43800,note_on,60,0,2,,,,,,,,0,78,0
43800,note_on,0,0,2,,,,,,,,0,52,64
43800,note_on,0,0,2,,,,,,,,0,79,64
43860,note_on,60,0,1,,,,,,,,0,79,0
43860,note_on,60,0,2,,,,,,,,0,79,0
43860,note_on,0,0,2,,,,,,,,0,73,64
43860,note_on,0,0,1,,,,,,,,0,73,64
43920,note_on,0,0,2,,,,,,,,0,50,64
43920,note_on,60,0,2,,,,,,,,0,73,0
43920,note_on,0,0,1,,,,,,,,0,50,64
43920,note_on,0,0,1,,,,,,,,0,78,64
43920,note_on,0,0,1,,,,,,,,0,52,0
43920,note_on,60,0,1,,,,,,,,0,73,0
43920,note_on,0,0,2,,,,,,,,0,78,64
43920,note_on,0,0,2,,,,,,,,0,52,0
43980,note_on,0,0,1,,,,,,,,0,71,64
43980,note_on,60,0,2,,,,,,,,0,50,0
43980,note_on,0,0,2,,,,,,,,0,78,0
43980,note_on,0,0,2,,,,,,,,0,71,64
43980,note_on,0,0,2,,,,,,,,0,55,64
43980,note_on,0,0,1,,,,,,,,0,55,64
43980,note_on,60,0,1,,,,,,,,0,50,0
43980,note_on,0,0,1,,,,,,,,0,78,0
44040,note_on,60,0,2,,,,,,,,0,55,0
44040,note_on,0,0,2,,,,,,,,0,72,64
44040,note_on,0,0,2,,,,,,,,0,57,64
44040,note_on,0,0,2,,,,,,,,0,71,0
44040,note_on,0,0,1,,,,,,,,0,72,64
44040,note_on,0,0,1,,,,,,,,0,57,64
44040,note_on,60,0,1,,,,,,,,0,55,0
44040,note_on,0,0,1,,,,,,,,0,71,0
44100,note_on,0,0,1,,,,,,,,0,59,64
44100,note_on,0,0,1,,,,,,,,0,74,64
44100,note_on,0,0,1,,,,,,,,0,72,0
44100,note_on,60,0,1,,,,,,,,0,57,0
44100,note_on,60,0,2,,,,,,,,0,57,0
44100,note_on,0,0,2,,,,,,,,0,72,0
44100,note_on,0,0,2,,,,,,,,0,74,64
44100,note_on,0,0,2,,,,,,,,0,59,64
44160,note_on,60,0,1,,,,,,,,0,59,0
44160,note_on,0,0,1,,,,,,,,0,74,0
44160,note_on,0,0,1,,,,,,,,0,76,64
44160,note_on,60,0,2,,,,,,,,0,59,0
44160,note_on,0,0,1,,,,,,,,0,60,64
44160,note_on,0,0,2,,,,,,,,0,74,0
44160,note_on,0,0,2,,,,,,,,0,60,64
44160,note_on,0,0,2,,,,,,,,0,76,64
44220,note_on,0,0,1,,,,,,,,0,69,64
44220,note_on,60,0,2,,,,,,,,0,76,0
44220,note_on,60,0,1,,,,,,,,0,76,0
44220,note_on,0,0,2,,,,,,,,0,69,64
44280,note_on,60,0,2,,,,,,,,0,69,0
44280,note_on,0,0,2,,,,,,,,0,74,64
44280,note_on,0,0,1,,,,,,,,0,74,64
44280,note_on,60,0,1,,,,,,,,0,69,0
44340,note_on,60,0,1,,,,,,,,0,74,0
44340,note_on,60,0,2,,,,,,,,0,74,0
44340,note_on,0,0,2,,,,,,,,0,60,0
44340,note_on,0,0,1,,,,,,,,0,59,64
44340,note_on,0,0,1,,,,,,,,0,67,64
44340,note_on,0,0,2,,,,,,,,0,67,64
44340,note_on,0,0,2,,,,,,,,0,59,64
44340,note_on,0,0,1,,,,,,,,0,60,0
44400,note_on,60,0,2,,,,,,,,0,59,0
44400,note_on,0,0,2,,,,,,,,0,67,0
44400,note_on,0,0,1,,,,,,,,0,67,0
44400,note_on,0,0,2,,,,,,,,0,57,64
44400,note_on,60,0,1,,,,,,,,0,59,0
44400,note_on,0,0,1,,,,,,,,0,57,64
44400,note_on,0,0,2,,,,,,,,0,69,64
44400,note_on,0,0,1,,,,,,,,0,69,64
44460,note_on,60,0,2,,,,,,,,0,57,0
44460,note_on,0,0,2,,,,,,,,0,69,0
44460,note_on,0,0,2,,,,,,,,0,55,64
44460,note_on,0,0,1,,,,,,,,0,55,64
44460,note_on,0,0,1,,,,,,,,0,71,64
44460,note_on,0,0,1,,,,,,,,0,69,0
44460,note_on,60,0,1,,,,,,,,0,57,0
44460,note_on,0,0,2,,,,,,,,0,71,64
44520,note_on,60,0,1,,,,,,,,0,55,0
44520,note_on,0,0,1,,,,,,,,0,71,0
44520,note_on,0,0,1,,,,,,,,0,57,64
44520,note_on,0,0,1,,,,,,,,0,72,64
44520,note_on,60,0,2,,,,,,,,0,55,0
44520,note_on,0,0,2,,,,,,,,0,71,0
44520,note_on,0,0,2,,,,,,,,0,57,64
44520,note_on,0,0,2,,,,,,,,0,72,64
44580,note_on,0,0,2,,,,,,,,0,66,64
44580,note_on,60,0,1,,,,,,,,0,72,0
44580,note_on,0,0,1,,,,,,,,0,66,64
44580,note_on,60,0,2,,,,,,,,0,72,0
44640,note_on,0,0,1,,,,,,,,0,71,64
44640,note_on,60,0,1,,,,,,,,0,66,0
44640,note_on,60,0,2,,,,,,,,0,66,0
44640,note_on,0,0,2,,,,,,,,0,71,64
44700,note_on,60,0,2,,,,,,,,0,57,0
44700,note_on,0,0,2,,,,,,,,0,59,64
44700,note_on,60,0,1,,,,,,,,0,57,0
44700,note_on,0,0,1,,,,,,,,0,59,64
44760,note_on,60,0,2,,,,,,,,0,59,0
44760,note_on,0,0,2,,,,,,,,0,71,0
44760,note_on,0,0,2,,,,,,,,0,73,64
44760,note_on,0,0,2,,,,,,,,0,57,64
44760,note_on,60,0,1,,,,,,,,0,59,0
44760,note_on,0,0,1,,,,,,,,0,71,0
44760,note_on,0,0,1,,,,,,,,0,73,64
44760,note_on,0,0,1,,,,,,,,0,57,64
44780,note_on,20,0,1,,,,,,,,0,73,0
44780,note_on,20,0,2,,,,,,,,0,73,0
44780,note_on,0,0,1,,,,,,,,0,75,64
44780,note_on,0,0,2,,,,,,,,0,75,64
44800,note_on,20,0,2,,,,,,,,0,75,0
44800,note_on,0,0,2,,,,,,,,0,76,64
44800,note_on,20,0,1,,,,,,,,0,75,0
44800,note_on,0,0,1,,,,,,,,0,76,64
44820,note_on,0,0,2,,,,,,,,0,55,64
44820,note_on,0,0,2,,,,,,,,0,75,64
44820,note_on,20,0,1,,,,,,,,0,76,0
44820,note_on,0,0,1,,,,,,,,0,75,64
44820,note_on,0,0,1,,,,,,,,0,55,64
44820,note_on,0,0,1,,,,,,,,0,57,0
44820,note_on,0,0,2,,,,,,,,0,57,0
44820,note_on,20,0,2,,,,,,,,0,76,0
44840,note_on,0,0,2,,,,,,,,0,76,64
44840,note_on,20,0,2,,,,,,,,0,75,0
44840,note_on,0,0,1,,,,,,,,0,76,64
44840,note_on,20,0,1,,,,,,,,0,75,0
44860,note_on,0,0,1,,,,,,,,0,75,64
44860,note_on,20,0,1,,,,,,,,0,76,0
44860,note_on,20,0,2,,,,,,,,0,76,0
44860,note_on,0,0,2,,,,,,,,0,75,64
44880,note_on,0,0,1,,,,,,,,0,76,64
44880,note_on,0,0,1,,,,,,,,0,54,64
44880,note_on,20,0,1,,,,,,,,0,75,0
44880,note_on,20,0,2,,,,,,,,0,75,0
44880,note_on,0,0,2,,,,,,,,0,54,64
44880,note_on,0,0,2,,,,,,,,0,76,64
44880,note_on,0,0,2,,,,,,,,0,55,0
44880,note_on,0,0,1,,,,,,,,0,55,0
44900,note_on,0,0,2,,,,,,,,0,75,64
44900,note_on,20,0,1,,,,,,,,0,76,0
44900,note_on,0,0,1,,,,,,,,0,75,64
44900,note_on,20,0,2,,,,,,,,0,76,0
44940,note_on,0,0,1,,,,,,,,0,54,0
44940,note_on,40,0,2,,,,,,,,0,75,0
44940,note_on,0,0,2,,,,,,,,0,54,0
44940,note_on,0,0,2,,,,,,,,0,73,64
44940,note_on,0,0,2,,,,,,,,0,57,64
44940,note_on,40,0,1,,,,,,,,0,75,0
44940,note_on,0,0,1,,,,,,,,0,57,64
44940,note_on,0,0,1,,,,,,,,0,73,64
44970,note_on,0,0,1,,,,,,,,0,75,64
44970,note_on,30,0,1,,,,,,,,0,73,0
44970,note_on,0,0,2,,,,,,,,0,75,64
44970,note_on,30,0,2,,,,,,,,0,73,0
45000,note_on,0,0,2,,,,,,,,0,55,64
45000,note_on,0,0,2,,,,,,,,0,76,64
45000,note_on,0,0,2,,,,,,,,0,57,0
45000,note_on,30,0,2,,,,,,,,0,75,0
45000,note_on,0,0,1,,,,,,,,0,55,64
45000,note_on,30,0,1,,,,,,,,0,75,0
45000,note_on,0,0,1,,,,,,,,0,57,0
45000,note_on,0,0,1,,,,,,,,0,76,64
45060,note_on,0,0,1,,,,,,,,0,59,64
45060,note_on,60,0,2,,,,,,,,0,55,0
45060,note_on,0,0,2,,,,,,,,0,59,64
45060,note_on,60,0,1,,,,,,,,0,55,0
45120,note_on,60,0,2,,,,,,,,0,59,0
45120,note_on,60,0,1,,,,,,,,0,59,0
45120,note_on,0,0,2,,,,,,,,0,79,64
45120,note_on,0,0,1,,,,,,,,0,61,64
45120,note_on,0,0,1,,,,,,,,0,79,64
45120,note_on,0,0,1,,,,,,,,0,76,0
45120,note_on,0,0,2,,,,,,,,0,76,0
45120,note_on,0,0,2,,,,,,,,0,61,64
45136,note_on,16,0,1,,,,,,,,0,78,64
45136,note_on,16,0,2,,,,,,,,0,78,64
45140,note_on,4,0,2,,,,,,,,0,79,0
45140,note_on,4,0,1,,,,,,,,0,79,0
45156,note_on,16,0,2,,,,,,,,0,78,0
45156,note_on,16,0,1,,,,,,,,0,78,0
45160,note_on,4,0,2,,,,,,,,0,76,64
45160,note_on,4,0,1,,,,,,,,0,76,64
45180,note_on,0,0,2,,,,,,,,0,63,64
45180,note_on,20,0,2,,,,,,,,0,76,0
45180,note_on,0,0,2,,,,,,,,0,78,64
45180,note_on,0,0,1,,,,,,,,0,63,64
45180,note_on,0,0,2,,,,,,,,0,61,0
45180,note_on,20,0,1,,,,,,,,0,76,0
45180,note_on,0,0,1,,,,,,,,0,61,0
45180,note_on,0,0,1,,,,,,,,0,78,64
45240,note_on,0,0,1,,,,,,,,0,64,64
45240,note_on,0,0,1,,,,,,,,0,79,64
45240,note_on,60,0,2,,,,,,,,0,63,0
45240,note_on,60,0,1,,,,,,,,0,63,0
45240,note_on,0,0,1,,,,,,,,0,78,0
45240,note_on,0,0,2,,,,,,,,0,78,0
45240,note_on,0,0,2,,,,,,,,0,64,64
45240,note_on,0,0,2,,,,,,,,0,79,64
45300,note_on,0,0,2,,,,,,,,0,57,64
45300,note_on,60,0,2,,,,,,,,0,64,0
45300,note_on,60,0,1,,,,,,,,0,64,0
45300,note_on,0,0,1,,,,,,,,0,57,64
45360,note_on,0,0,2,,,,,,,,0,62,64
45360,note_on,60,0,2,,,,,,,,0,57,0
45360,note_on,60,0,1,,,,,,,,0,57,0
45360,note_on,0,0,1,,,,,,,,0,62,64
45420,note_on,0,0,2,,,,,,,,0,79,0
45420,note_on,60,0,2,,,,,,,,0,62,0
45420,note_on,0,0,2,,,,,,,,0,55,64
45420,note_on,0,0,2,,,,,,,,0,78,64
45420,note_on,60,0,1,,,,,,,,0,62,0
45420,note_on,0,0,1,,,,,,,,0,78,64
45420,note_on,0,0,1,,,,,,,,0,55,64
45420,note_on,0,0,1,,,,,,,,0,79,0
45480,note_on,60,0,1,,,,,,,,0,55,0
45480,note_on,0,0,1,,,,,,,,0,78,0
45480,note_on,0,0,1,,,,,,,,0,76,64
45480,note_on,0,0,1,,,,,,,,0,57,64
45480,note_on,0,0,2,,,,,,,,0,57,64
45480,note_on,0,0,2,,,,,,,,0,76,64
45480,note_on,0,0,2,,,,,,,,0,78,0
45480,note_on,60,0,2,,,,,,,,0,55,0
45540,note_on,0,0,2,,,,,,,,0,76,0
45540,note_on,60,0,2,,,,,,,,0,57,0
45540,note_on,0,0,1,,,,,,,,0,59,64
45540,note_on,0,0,2,,,,,,,,0,75,64
45540,note_on,0,0,1,,,,,,,,0,75,64
45540,note_on,0,0,1,,,,,,,,0,76,0
45540,note_on,60,0,1,,,,,,,,0,57,0
45540,note_on,0,0,2,,,,,,,,0,59,64
45600,note_on,0,0,1,,,,,,,,0,60,64
45600,note_on,0,0,1,,,,,,,,0,76,64
45600,note_on,60,0,1,,,,,,,,0,59,0
45600,note_on,0,0,2,,,,,,,,0,60,64
45600,note_on,0,0,1,,,,,,,,0,75,0
45600,note_on,0,0,2,,,,,,,,0,75,0
45600,note_on,60,0,2,,,,,,,,0,59,0
45600,note_on,0,0,2,,,,,,,,0,76,64
45660,note_on,60,0,2,,,,,,,,0,60,0
45660,note_on,60,0,1,,,,,,,,0,60,0
45660,note_on,0,0,1,,,,,,,,0,54,64
45660,note_on,0,0,2,,,,,,,,0,54,64
45720,note_on,60,0,2,,,,,,,,0,54,0
45720,note_on,0,0,2,,,,,,,,0,59,64
45720,note_on,60,0,1,,,,,,,,0,54,0
45720,note_on,0,0,1,,,,,,,,0,59,64
45780,note_on,0,0,2,,,,,,,,0,52,64
45780,note_on,60,0,1,,,,,,,,0,59,0
45780,note_on,0,0,2,,,,,,,,0,74,64
45780,note_on,60,0,2,,,,,,,,0,59,0
45780,note_on,0,0,2,,,,,,,,0,76,0
45780,note_on,0,0,1,,,,,,,,0,76,0
45780,note_on,0,0,1,,,,,,,,0,52,64
45780,note_on,0,0,1,,,,,,,,0,74,64
45840,note_on,0,0,2,,,,,,,,0,54,64
45840,note_on,0,0,2,,,,,,,,0,72,64
45840,note_on,0,0,2,,,,,,,,0,74,0
45840,note_on,60,0,2,,,,,,,,0,52,0
45840,note_on,60,0,1,,,,,,,,0,52,0
45840,note_on,0,0,1,,,,,,,,0,74,0
45840,note_on,0,0,1,,,,,,,,0,72,64
45840,note_on,0,0,1,,,,,,,,0,54,64
45900,note_on,0,0,2,,,,,,,,0,71,64
45900,note_on,0,0,2,,,,,,,,0,55,64
45900,note_on,60,0,2,,,,,,,,0,54,0
45900,note_on,60,0,1,,,,,,,,0,54,0
45900,note_on,0,0,1,,,,,,,,0,72,0
45900,note_on,0,0,1,,,,,,,,0,71,64
45900,note_on,0,0,1,,,,,,,,0,55,64
45900,note_on,0,0,2,,,,,,,,0,72,0
45960,note_on,0,0,2,,,,,,,,0,72,64
45960,note_on,0,0,1,,,,,,,,0,57,64
45960,note_on,0,0,1,,,,,,,,0,72,64
45960,note_on,0,0,1,,,,,,,,0,71,0
45960,note_on,60,0,2,,,,,,,,0,55,0
45960,note_on,0,0,2,,,,,,,,0,71,0
45960,note_on,0,0,2,,,,,,,,0,57,64
45960,note_on,60,0,1,,,,,,,,0,55,0
46020,note_on,0,0,1,,,,,,,,0,81,64
46020,note_on,0,0,2,,,,,,,,0,50,64
46020,note_on,0,0,2,,,,,,,,0,81,64
46020,note_on,0,0,2,,,,,,,,0,72,0
46020,note_on,60,0,1,,,,,,,,0,57,0
46020,note_on,0,0,1,,,,,,,,0,72,0
46020,note_on,60,0,2,,,,,,,,0,57,0
46020,note_on,0,0,1,,,,,,,,0,50,64
46080,note_on,60,0,1,,,,,,,,0,50,0
46080,note_on,0,0,1,,,,,,,,0,81,0
46080,note_on,0,0,1,,,,,,,,0,71,64
46080,note_on,0,0,1,,,,,,,,0,55,64
46080,note_on,60,0,2,,,,,,,,0,50,0
46080,note_on,0,0,2,,,,,,,,0,81,0
46080,note_on,0,0,2,,,,,,,,0,71,64
46080,note_on,0,0,2,,,,,,,,0,55,64
46140,note_on,0,0,1,,,,,,,,0,54,64
46140,note_on,0,0,1,,,,,,,,0,71,0
46140,note_on,0,0,2,,,,,,,,0,62,64
46140,note_on,60,0,1,,,,,,,,0,55,0
46140,note_on,60,0,2,,,,,,,,0,55,0
46140,note_on,0,0,2,,,,,,,,0,71,0
46140,note_on,0,0,2,,,,,,,,0,54,64
46140,note_on,0,0,1,,,,,,,,0,62,64
46200,note_on,60,0,2,,,,,,,,0,54,0
46200,note_on,0,0,2,,,,,,,,0,62,0
46200,note_on,0,0,1,,,,,,,,0,55,64
46200,note_on,0,0,1,,,,,,,,0,64,64
46200,note_on,0,0,1,,,,,,,,0,62,0
46200,note_on,60,0,1,,,,,,,,0,54,0
46200,note_on,0,0,2,,,,,,,,0,55,64
46200,note_on,0,0,2,,,,,,,,0,64,64
46260,note_on,0,0,1,,,,,,,,0,57,64
46260,note_on,0,0,1,,,,,,,,0,66,64
46260,note_on,0,0,1,,,,,,,,0,64,0
46260,note_on,60,0,1,,,,,,,,0,55,0
46260,note_on,0,0,2,,,,,,,,0,66,64
46260,note_on,60,0,2,,,,,,,,0,55,0
46260,note_on,0,0,2,,,,,,,,0,64,0
46260,note_on,0,0,2,,,,,,,,0,57,64
46320,note_on,0,0,2,,,,,,,,0,59,64
46320,note_on,0,0,2,,,,,,,,0,67,64
46320,note_on,0,0,2,,,,,,,,0,66,0
46320,note_on,60,0,1,,,,,,,,0,57,0
46320,note_on,0,0,1,,,,,,,,0,66,0
46320,note_on,0,0,1,,,,,,,,0,67,64
46320,note_on,60,0,2,,,,,,,,0,57,0
46320,note_on,0,0,1,,,,,,,,0,59,64
46380,note_on,0,0,2,,,,,,,,0,61,64
46380,note_on,60,0,2,,,,,,,,0,59,0
46380,note_on,0,0,1,,,,,,,,0,61,64
46380,note_on,60,0,1,,,,,,,,0,59,0
46440,note_on,0,0,2,,,,,,,,0,62,64
46440,note_on,0,0,1,,,,,,,,0,62,64
46440,note_on,60,0,2,,,,,,,,0,61,0
46440,note_on,60,0,1,,,,,,,,0,61,0
46500,note_on,60,0,1,,,,,,,,0,62,0
46500,note_on,0,0,1,,,,,,,,0,67,0
46500,note_on,0,0,1,,,,,,,,0,66,64
46500,note_on,0,0,1,,,,,,,,0,57,64
46500,note_on,0,0,2,,,,,,,,0,57,64
46500,note_on,0,0,2,,,,,,,,0,66,64
46500,note_on,0,0,2,,,,,,,,0,67,0
46500,note_on,60,0,2,,,,,,,,0,62,0
46560,note_on,0,0,2,,,,,,,,0,59,64
46560,note_on,60,0,2,,,,,,,,0,57,0
46560,note_on,0,0,1,,,,,,,,0,59,64
46560,note_on,0,0,1,,,,,,,,0,68,64
46560,note_on,0,0,1,,,,,,,,0,66,0
46560,note_on,60,0,1,,,,,,,,0,57,0
46560,note_on,0,0,2,,,,,,,,0,68,64
46560,note_on,0,0,2,,,,,,,,0,66,0
46620,note_on,0,0,1,,,,,,,,0,69,64
46620,note_on,60,0,1,,,,,,,,0,59,0
46620,note_on,0,0,1,,,,,,,,0,68,0
46620,note_on,0,0,1,,,,,,,,0,60,64
46620,note_on,60,0,2,,,,,,,,0,59,0
46620,note_on,0,0,2,,,,,,,,0,68,0
46620,note_on,0,0,2,,,,,,,,0,69,64
46620,note_on,0,0,2,,,,,,,,0,60,64
46680,note_on,60,0,1,,,,,,,,0,60,0
46680,note_on,0,0,1,,,,,,,,0,71,64
46680,note_on,0,0,1,,,,,,,,0,62,64
46680,note_on,0,0,1,,,,,,,,0,69,0
46680,note_on,0,0,2,,,,,,,,0,69,0
46680,note_on,0,0,2,,,,,,,,0,62,64
46680,note_on,0,0,2,,,,,,,,0,71,64
46680,note_on,60,0,2,,,,,,,,0,60,0
46740,note_on,60,0,1,,,,,,,,0,71,0
46740,note_on,0,0,1,,,,,,,,0,68,64
46740,note_on,60,0,2,,,,,,,,0,71,0
46740,note_on,0,0,2,,,,,,,,0,68,64
46800,note_on,60,0,1,,,,,,,,0,68,0
46800,note_on,0,0,1,,,,,,,,0,69,64
46800,note_on,0,0,2,,,,,,,,0,69,64
46800,note_on,60,0,2,,,,,,,,0,68,0
46860,note_on,0,0,1,,,,,,,,0,64,64
46860,note_on,0,0,2,,,,,,,,0,62,0
46860,note_on,0,0,2,,,,,,,,0,64,64
46860,note_on,0,0,2,,,,,,,,0,61,64
46860,note_on,60,0,1,,,,,,,,0,69,0
46860,note_on,0,0,1,,,,,,,,0,61,64
46860,note_on,60,0,2,,,,,,,,0,69,0
46860,note_on,0,0,1,,,,,,,,0,62,0
46920,note_on,0,0,2,,,,,,,,0,63,64
46920,note_on,0,0,2,,,,,,,,0,66,64
46920,note_on,60,0,1,,,,,,,,0,61,0
46920,note_on,0,0,1,,,,,,,,0,64,0
46920,note_on,60,0,2,,,,,,,,0,61,0
46920,note_on,0,0,2,,,,,,,,0,64,0
46920,note_on,0,0,1,,,,,,,,0,63,64
46920,note_on,0,0,1,,,,,,,,0,66,64
46980,note_on,60,0,1,,,,,,,,0,63,0
46980,note_on,0,0,1,,,,,,,,0,67,64
46980,note_on,0,0,1,,,,,,,,0,64,64
46980,note_on,0,0,2,,,,,,,,0,64,64
46980,note_on,0,0,2,,,,,,,,0,67,64
46980,note_on,0,0,2,,,,,,,,0,66,0
46980,note_on,60,0,2,,,,,,,,0,63,0
46980,note_on,0,0,1,,,,,,,,0,66,0
47040,note_on,0,0,1,,,,,,,,0,67,0
47040,note_on,60,0,1,,,,,,,,0,64,0
47040,note_on,0,0,1,,,,,,,,0,66,64
47040,note_on,0,0,2,,,,,,,,0,69,64
47040,note_on,0,0,2,,,,,,,,0,67,0
47040,note_on,60,0,2,,,,,,,,0,64,0
47040,note_on,0,0,1,,,,,,,,0,69,64
47040,note_on,0,0,2,,,,,,,,0,66,64
47100,note_on,0,0,1,,,,,,,,0,63,64
47100,note_on,0,0,2,,,,,,,,0,63,64
47100,note_on,60,0,2,,,,,,,,0,66,0
47100,note_on,60,0,1,,,,,,,,0,66,0
47160,note_on,60,0,1,,,,,,,,0,63,0
47160,note_on,0,0,1,,,,,,,,0,64,64
47160,note_on,0,0,2,,,,,,,,0,64,64
47160,note_on,60,0,2,,,,,,,,0,63,0
47220,note_on,0,0,1,,,,,,,,0,69,0
47220,note_on,0,0,1,,,,,,,,0,52,64
47220,note_on,0,0,1,,,,,,,,0,67,64
47220,note_on,0,0,2,,,,,,,,0,69,0
47220,note_on,0,0,2,,,,,,,,0,52,64
47220,note_on,0,0,2,,,,,,,,0,67,64
47220,note_on,60,0,1,,,,,,,,0,64,0
47220,note_on,60,0,2,,,,,,,,0,64,0
47280,note_on,0,0,1,,,,,,,,0,69,64
47280,note_on,0,0,1,,,,,,,,0,67,0
47280,note_on,60,0,1,,,,,,,,0,52,0
47280,note_on,0,0,2,,,,,,,,0,54,64
47280,note_on,0,0,2,,,,,,,,0,69,64
47280,note_on,0,0,2,,,,,,,,0,67,0
47280,note_on,60,0,2,,,,,,,,0,52,0
47280,note_on,0,0,1,,,,,,,,0,54,64
47340,note_on,0,0,1,,,,,,,,0,69,0
47340,note_on,0,0,1,,,,,,,,0,71,64
47340,note_on,60,0,1,,,,,,,,0,54,0
47340,note_on,60,0,2,,,,,,,,0,54,0
47340,note_on,0,0,2,,,,,,,,0,69,0
47340,note_on,0,0,2,,,,,,,,0,71,64
47340,note_on,0,0,2,,,,,,,,0,55,64
47340,note_on,0,0,1,,,,,,,,0,55,64
47400,note_on,60,0,1,,,,,,,,0,55,0
47400,note_on,0,0,1,,,,,,,,0,71,0
47400,note_on,60,0,2,,,,,,,,0,55,0
47400,note_on,0,0,2,,,,,,,,0,57,64
47400,note_on,0,0,1,,,,,,,,0,72,64
47400,note_on,0,0,2,,,,,,,,0,72,64
47400,note_on,0,0,2,,,,,,,,0,71,0
47400,note_on,0,0,1,,,,,,,,0,57,64
47460,note_on,0,0,1,,,,,,,,0,72,0
47460,note_on,0,0,2,,,,,,,,0,69,64
47460,note_on,0,0,1,,,,,,,,0,69,64
47460,note_on,60,0,1,,,,,,,,0,57,0
47460,note_on,0,0,2,,,,,,,,0,54,64
47460,note_on,0,0,1,,,,,,,,0,54,64
47460,note_on,60,0,2,,,,,,,,0,57,0
47460,note_on,0,0,2,,,,,,,,0,72,0
47520,note_on,0,0,2,,,,,,,,0,71,64
47520,note_on,0,0,2,,,,,,,,0,55,64
47520,note_on,0,0,2,,,,,,,,0,69,0
47520,note_on,60,0,1,,,,,,,,0,54,0
47520,note_on,0,0,1,,,,,,,,0,69,0
47520,note_on,0,0,1,,,,,,,,0,71,64
47520,note_on,0,0,1,,,,,,,,0,55,64
47520,note_on,60,0,2,,,,,,,,0,54,0
47580,note_on,60,0,2,,,,,,,,0,71,0
47580,note_on,0,0,2,,,,,,,,0,75,64
47580,note_on,0,0,1,,,,,,,,0,75,64
47580,note_on,60,0,1,,,,,,,,0,71,0
47640,note_on,0,0,1,,,,,,,,0,55,0
47640,note_on,60,0,2,,,,,,,,0,75,0
47640,note_on,0,0,2,,,,,,,,0,55,0
47640,note_on,0,0,2,,,,,,,,0,76,64
47640,note_on,0,0,2,,,,,,,,0,54,64
47640,note_on,60,0,1,,,,,,,,0,75,0
47640,note_on,0,0,1,,,,,,,,0,76,64
47640,note_on,0,0,1,,,,,,,,0,54,64
47700,note_on,0,0,1,,,,,,,,0,78,64
47700,note_on,60,0,2,,,,,,,,0,76,0
47700,note_on,60,0,1,,,,,,,,0,76,0
47700,note_on,0,0,2,,,,,,,,0,78,64
47760,note_on,60,0,1,,,,,,,,0,78,0
47760,note_on,0,0,1,,,,,,,,0,54,0
47760,note_on,0,0,2,,,,,,,,0,79,64
47760,note_on,0,0,1,,,,,,,,0,52,64
47760,note_on,0,0,2,,,,,,,,0,52,64
47760,note_on,0,0,2,,,,,,,,0,54,0
47760,note_on,60,0,2,,,,,,,,0,78,0
47760,note_on,0,0,1,,,,,,,,0,79,64
47820,note_on,60,0,2,,,,,,,,0,79,0
47820,note_on,60,0,1,,,,,,,,0,79,0
47820,note_on,0,0,1,,,,,,,,0,76,64
47820,note_on,0,0,2,,,,,,,,0,76,64
47880,note_on,60,0,1,,,,,,,,0,76,0
47880,note_on,0,0,1,,,,,,,,0,52,0
47880,note_on,0,0,1,,,,,,,,0,61,72
47880,note_on,0,0,1,,,,,,,,0,78,64
47880,note_on,0,0,2,,,,,,,,0,78,64
47880,note_on,0,0,2,,,,,,,,0,61,72
47880,note_on,0,0,2,,,,,,,,0,52,0
47880,note_on,60,0,2,,,,,,,,0,76,0
47900,note_on,0,0,2,,,,,,,,0,59,48
47900,note_on,20,0,1,,,,,,,,0,61,0
47900,note_on,0,0,1,,,,,,,,0,59,48
47900,note_on,20,0,2,,,,,,,,0,61,0
47920,note_on,20,0,2,,,,,,,,0,61,48
47920,note_on,20,0,1,,,,,,,,0,61,48
47922,note_on,2,0,2,,,,,,,,0,59,0
47922,note_on,2,0,1,,,,,,,,0,59,0
47940,note_on,18,0,2,,,,,,,,0,78,0
47940,note_on,18,0,1,,,,,,,,0,78,0
47940,note_on,0,0,1,,,,,,,,0,59,48
47940,note_on,0,0,2,,,,,,,,0,76,64
47940,note_on,0,0,2,,,,,,,,0,59,48
47940,note_on,0,0,1,,,,,,,,0,76,64
47942,note_on,2,0,1,,,,,,,,0,61,0
47942,note_on,2,0,2,,,,,,,,0,61,0
47960,note_on,18,0,1,,,,,,,,0,61,49
47960,note_on,18,0,2,,,,,,,,0,61,49
47962,note_on,2,0,1,,,,,,,,0,59,0
47962,note_on,2,0,2,,,,,,,,0,59,0
47980,note_on,18,0,1,,,,,,,,0,59,49
47980,note_on,18,0,2,,,,,,,,0,59,49
47982,note_on,2,0,2,,,,,,,,0,61,0
47982,note_on,2,0,1,,,,,,,,0,61,0
48000,note_on,0,0,2,,,,,,,,0,61,49
48000,note_on,18,0,2,,,,,,,,0,76,0
48000,note_on,0,0,1,,,,,,,,0,61,49
48000,note_on,0,0,1,,,,,,,,0,75,64
48000,note_on,0,0,2,,,,,,,,0,75,64
48000,note_on,18,0,1,,,,,,,,0,76,0
48002,note_on,2,0,1,,,,,,,,0,59,0
48002,note_on,2,0,2,,,,,,,,0,59,0
48020,note_on,18,0,1,,,,,,,,0,59,50
48020,note_on,18,0,2,,,,,,,,0,59,50
48022,note_on,2,0,1,,,,,,,,0,61,0
48022,note_on,2,0,2,,,,,,,,0,61,0
48040,note_on,18,0,1,,,,,,,,0,61,50
48040,note_on,18,0,2,,,,,,,,0,61,50
48042,note_on,2,0,1,,,,,,,,0,59,0
48042,note_on,2,0,2,,,,,,,,0,59,0
48060,note_on,0,0,1,,,,,,,,0,73,64
48060,note_on,0,0,1,,,,,,,,0,59,50
48060,note_on,18,0,1,,,,,,,,0,75,0
48060,note_on,18,0,2,,,,,,,,0,75,0
48060,note_on,0,0,2,,,,,,,,0,59,50
48060,note_on,0,0,2,,,,,,,,0,73,64
48062,note_on,2,0,2,,,,,,,,0,61,0
48062,note_on,2,0,1,,,,,,,,0,61,0
48080,note_on,18,0,2,,,,,,,,0,61,51
48080,note_on,18,0,1,,,,,,,,0,61,51
48082,note_on,2,0,2,,,,,,,,0,59,0
48082,note_on,2,0,1,,,,,,,,0,59,0
48100,note_on,18,0,2,,,,,,,,0,59,51
48100,note_on,18,0,1,,,,,,,,0,59,51
48102,note_on,2,0,2,,,,,,,,0,61,0
48102,note_on,2,0,1,,,,,,,,0,61,0
48120,note_on,18,0,2,,,,,,,,0,73,0
48120,note_on,0,0,2,,,,,,,,0,61,51
48120,note_on,0,0,2,,,,,,,,0,71,64
48120,note_on,0,0,1,,,,,,,,0,61,51
48120,note_on,18,0,1,,,,,,,,0,73,0
48120,note_on,0,0,1,,,,,,,,0,71,64
48122,note_on,2,0,2,,,,,,,,0,59,0
48122,note_on,2,0,1,,,,,,,,0,59,0
48140,note_on,18,0,2,,,,,,,,0,59,51
48140,note_on,18,0,1,,,,,,,,0,59,51
48142,note_on,2,0,2,,,,,,,,0,61,0
48142,note_on,2,0,1,,,,,,,,0,61,0
48160,note_on,18,0,1,,,,,,,,0,61,52
48160,note_on,18,0,2,,,,,,,,0,61,52
48162,note_on,2,0,1,,,,,,,,0,59,0
48162,note_on,2,0,2,,,,,,,,0,59,0
48180,note_on,0,0,1,,,,,,,,0,69,64
48180,note_on,0,0,1,,,,,,,,0,59,52
48180,note_on,18,0,1,,,,,,,,0,71,0
48180,note_on,0,0,2,,,,,,,,0,59,52
48180,note_on,18,0,2,,,,,,,,0,71,0
48180,note_on,0,0,2,,,,,,,,0,69,64
48182,note_on,2,0,1,,,,,,,,0,61,0
48182,note_on,2,0,2,,,,,,,,0,61,0
48200,note_on,18,0,1,,,,,,,,0,61,52
48200,note_on,18,0,2,,,,,,,,0,61,52
48202,note_on,2,0,2,,,,,,,,0,59,0
48202,note_on,2,0,1,,,,,,,,0,59,0
48220,note_on,18,0,2,,,,,,,,0,59,53
48220,note_on,18,0,1,,,,,,,,0,59,53
48222,note_on,2,0,2,,,,,,,,0,61,0
48222,note_on,2,0,1,,,,,,,,0,61,0
48240,note_on,0,0,2,,,,,,,,0,67,64
48240,note_on,0,0,2,,,,,,,,0,61,53
48240,note_on,0,0,1,,,,,,,,0,61,53
48240,note_on,18,0,1,,,,,,,,0,69,0
48240,note_on,0,0,1,,,,,,,,0,67,64
48240,note_on,18,0,2,,,,,,,,0,69,0
48242,note_on,2,0,2,,,,,,,,0,59,0
48242,note_on,2,0,1,,,,,,,,0,59,0
48260,note_on,18,0,2,,,,,,,,0,59,53
48260,note_on,18,0,1,,,,,,,,0,59,53
48262,note_on,2,0,1,,,,,,,,0,61,0
48262,note_on,2,0,2,,,,,,,,0,61,0
48280,note_on,18,0,2,,,,,,,,0,61,54
48280,note_on,18,0,1,,,,,,,,0,61,54
48282,note_on,2,0,2,,,,,,,,0,59,0
48282,note_on,2,0,1,,,,,,,,0,59,0
48300,note_on,18,0,2,,,,,,,,0,67,0
48300,note_on,0,0,2,,,,,,,,0,71,64
48300,note_on,18,0,1,,,,,,,,0,67,0
48300,note_on,0,0,2,,,,,,,,0,59,54
48300,note_on,0,0,1,,,,,,,,0,59,54
48300,note_on,0,0,1,,,,,,,,0,71,64
48302,note_on,2,0,1,,,,,,,,0,61,0
48302,note_on,2,0,2,,,,,,,,0,61,0
48320,note_on,18,0,1,,,,,,,,0,61,54
48320,note_on,18,0,2,,,,,,,,0,61,54
48322,note_on,2,0,2,,,,,,,,0,59,0
48322,note_on,2,0,1,,,,,,,,0,59,0
48340,note_on,18,0,2,,,,,,,,0,59,55
48340,note_on,18,0,1,,,,,,,,0,59,55
48342,note_on,2,0,2,,,,,,,,0,61,0
48342,note_on,2,0,1,,,,,,,,0,61,0
48360,note_on,0,0,1,,,,,,,,0,61,55
48360,note_on,18,0,1,,,,,,,,0,71,0
48360,note_on,0,0,1,,,,,,,,0,73,64
48360,note_on,0,0,2,,,,,,,,0,73,64
48360,note_on,0,0,2,,,,,,,,0,61,55
48360,note_on,18,0,2,,,,,,,,0,71,0
48362,note_on,2,0,2,,,,,,,,0,59,0
48362,note_on,2,0,1,,,,,,,,0,59,0
48380,note_on,18,0,2,,,,,,,,0,59,55
48380,note_on,18,0,1,,,,,,,,0,59,55
48382,note_on,2,0,1,,,,,,,,0,61,0
48382,note_on,2,0,2,,,,,,,,0,61,0
48400,note_on,18,0,2,,,,,,,,0,61,56
48400,note_on,18,0,1,,,,,,,,0,61,56
48402,note_on,2,0,2,,,,,,,,0,59,0
48402,note_on,2,0,1,,,,,,,,0,59,0
48420,note_on,0,0,2,,,,,,,,0,75,64
48420,note_on,0,0,2,,,,,,,,0,59,56
48420,note_on,18,0,2,,,,,,,,0,73,0
48420,note_on,0,0,1,,,,,,,,0,59,56
48420,note_on,0,0,1,,,,,,,,0,75,64
48420,note_on,18,0,1,,,,,,,,0,73,0
48422,note_on,2,0,1,,,,,,,,0,61,0
48422,note_on,2,0,2,,,,,,,,0,61,0
48440,note_on,18,0,2,,,,,,,,0,61,56
48440,note_on,18,0,1,,,,,,,,0,61,56
48442,note_on,2,0,1,,,,,,,,0,59,0
48442,note_on,2,0,2,,,,,,,,0,59,0
48460,note_on,18,0,1,,,,,,,,0,59,56
48460,note_on,18,0,2,,,,,,,,0,59,56
48462,note_on,2,0,1,,,,,,,,0,61,0
48462,note_on,2,0,2,,,,,,,,0,61,0
48480,note_on,0,0,1,,,,,,,,0,76,64
48480,note_on,0,0,2,,,,,,,,0,61,57
48480,note_on,0,0,2,,,,,,,,0,76,64
48480,note_on,0,0,1,,,,,,,,0,61,57
48480,note_on,18,0,1,,,,,,,,0,75,0
48480,note_on,18,0,2,,,,,,,,0,75,0
48482,note_on,2,0,2,,,,,,,,0,59,0
48482,note_on,2,0,1,,,,,,,,0,59,0
48500,note_on,18,0,2,,,,,,,,0,59,57
48500,note_on,18,0,1,,,,,,,,0,59,57
48502,note_on,2,0,2,,,,,,,,0,61,0
48502,note_on,2,0,1,,,,,,,,0,61,0
48520,note_on,18,0,1,,,,,,,,0,61,57
48520,note_on,18,0,2,,,,,,,,0,61,57
48522,note_on,2,0,2,,,,,,,,0,59,0
48522,note_on,2,0,1,,,,,,,,0,59,0
48540,note_on,0,0,1,,,,,,,,0,73,64
48540,note_on,18,0,2,,,,,,,,0,76,0
48540,note_on,0,0,2,,,,,,,,0,59,58
48540,note_on,0,0,1,,,,,,,,0,59,58
48540,note_on,18,0,1,,,,,,,,0,76,0
48540,note_on,0,0,2,,,,,,,,0,73,64
48542,note_on,2,0,1,,,,,,,,0,61,0
48542,note_on,2,0,2,,,,,,,,0,61,0
48560,note_on,18,0,1,,,,,,,,0,61,58
48560,note_on,18,0,2,,,,,,,,0,61,58
48562,note_on,2,0,1,,,,,,,,0,59,0
48562,note_on,2,0,2,,,,,,,,0,59,0
48580,note_on,18,0,2,,,,,,,,0,59,58
48580,note_on,18,0,1,,,,,,,,0,59,58
48582,note_on,2,0,1,,,,,,,,0,61,0
48582,note_on,2,0,2,,,,,,,,0,61,0
48600,note_on,0,0,1,,,,,,,,0,61,59
48600,note_on,18,0,1,,,,,,,,0,73,0
48600,note_on,18,0,2,,,,,,,,0,73,0
48600,note_on,0,0,1,,,,,,,,0,75,64
48600,note_on,0,0,2,,,,,,,,0,75,64
48600,note_on,0,0,2,,,,,,,,0,61,59
48602,note_on,2,0,1,,,,,,,,0,59,0
48602,note_on,2,0,2,,,,,,,,0,59,0
48620,note_on,18,0,1,,,,,,,,0,59,59
48620,note_on,18,0,2,,,,,,,,0,59,59
48622,note_on,2,0,2,,,,,,,,0,61,0
48622,note_on,2,0,1,,,,,,,,0,61,0
48640,note_on,18,0,2,,,,,,,,0,61,59
48640,note_on,18,0,1,,,,,,,,0,61,59
48642,note_on,2,0,1,,,,,,,,0,59,0
48642,note_on,2,0,2,,,,,,,,0,59,0
48660,note_on,0,0,2,,,,,,,,0,73,64
48660,note_on,0,0,1,,,,,,,,0,59,60
48660,note_on,0,0,1,,,,,,,,0,73,64
48660,note_on,18,0,2,,,,,,,,0,75,0
48660,note_on,0,0,2,,,,,,,,0,59,60
48660,note_on,18,0,1,,,,,,,,0,75,0
48662,note_on,2,0,2,,,,,,,,0,61,0
48662,note_on,2,0,1,,,,,,,,0,61,0
48680,note_on,18,0,2,,,,,,,,0,61,60
48680,note_on,18,0,1,,,,,,,,0,61,60
48682,note_on,2,0,1,,,,,,,,0,59,0
48682,note_on,2,0,2,,,,,,,,0,59,0
48700,note_on,18,0,1,,,,,,,,0,59,60
48700,note_on,18,0,2,,,,,,,,0,59,60
48702,note_on,2,0,1,,,,,,,,0,61,0
48702,note_on,2,0,2,,,,,,,,0,61,0
48720,note_on,0,0,1,,,,,,,,0,71,64
48720,note_on,18,0,2,,,,,,,,0,73,0
48720,note_on,18,0,1,,,,,,,,0,73,0
48720,note_on,0,0,1,,,,,,,,0,61,61
48720,note_on,0,0,2,,,,,,,,0,71,64
48720,note_on,0,0,2,,,,,,,,0,61,61
48722,note_on,2,0,1,,,,,,,,0,59,0
48722,note_on,2,0,2,,,,,,,,0,59,0
48740,note_on,18,0,2,,,,,,,,0,59,61
48740,note_on,18,0,1,,,,,,,,0,59,61
48742,note_on,2,0,2,,,,,,,,0,61,0
48742,note_on,2,0,1,,,,,,,,0,61,0
48760,note_on,18,0,1,,,,,,,,0,61,61
48760,note_on,18,0,2,,,,,,,,0,61,61
48762,note_on,2,0,1,,,,,,,,0,59,0
48762,note_on,2,0,2,,,,,,,,0,59,0
48780,note_on,18,0,1,,,,,,,,0,71,0
48780,note_on,0,0,1,,,,,,,,0,69,64
48780,note_on,0,0,2,,,,,,,,0,59,61
48780,note_on,18,0,2,,,,,,,,0,71,0
48780,note_on,0,0,1,,,,,,,,0,59,61
48780,note_on,0,0,2,,,,,,,,0,69,64
48782,note_on,2,0,1,,,,,,,,0,61,0
48782,note_on,2,0,2,,,,,,,,0,61,0
48800,note_on,18,0,1,,,,,,,,0,61,62
48800,note_on,18,0,2,,,,,,,,0,61,62
48802,note_on,2,0,2,,,,,,,,0,59,0
48802,note_on,2,0,1,,,,,,,,0,59,0
48820,note_on,18,0,2,,,,,,,,0,59,62
48820,note_on,18,0,1,,,,,,,,0,59,62
48822,note_on,2,0,1,,,,,,,,0,61,0
48822,note_on,2,0,2,,,,,,,,0,61,0
48840,note_on,0,0,2,,,,,,,,0,67,64
48840,note_on,0,0,1,,,,,,,,0,67,64
48840,note_on,0,0,1,,,,,,,,0,61,62
48840,note_on,18,0,2,,,,,,,,0,69,0
48840,note_on,0,0,2,,,,,,,,0,61,62
48840,note_on,18,0,1,,,,,,,,0,69,0
48842,note_on,2,0,2,,,,,,,,0,59,0
48842,note_on,2,0,1,,,,,,,,0,59,0
48860,note_on,18,0,1,,,,,,,,0,59,63
48860,note_on,18,0,2,,,,,,,,0,59,63
48862,note_on,2,0,1,,,,,,,,0,61,0
48862,note_on,2,0,2,,,,,,,,0,61,0
48880,note_on,18,0,2,,,,,,,,0,61,63
48880,note_on,18,0,1,,,,,,,,0,61,63
48882,note_on,2,0,1,,,,,,,,0,59,0
48882,note_on,2,0,2,,,,,,,,0,59,0
48900,note_on,18,0,1,,,,,,,,0,67,0
48900,note_on,18,0,2,,,,,,,,0,67,0
48900,note_on,0,0,2,,,,,,,,0,59,63
48900,note_on,0,0,2,,,,,,,,0,66,64
48900,note_on,0,0,1,,,,,,,,0,66,64
48900,note_on,0,0,1,,,,,,,,0,59,63
48902,note_on,2,0,1,,,,,,,,0,61,0
48902,note_on,2,0,2,,,,,,,,0,61,0
48950,note_on,48,0,1,,,,,,,,0,66,0
48950,note_on,48,0,2,,,,,,,,0,66,0
48960,note_on,10,0,2,,,,,,,,0,66,72
48960,note_on,10,0,1,,,,,,,,0,66,72
48966,note_on,6,0,1,,,,,,,,0,59,0
48966,note_on,6,0,2,,,,,,,,0,59,0
48980,note_on,14,0,1,,,,,,,,0,66,0
48980,note_on,14,0,2,,,,,,,,0,66,0
48980,note_on,0,0,2,,,,,,,,0,64,48
48980,note_on,0,0,1,,,,,,,,0,64,48
49000,note_on,20,0,2,,,,,,,,0,66,48
49000,note_on,20,0,1,,,,,,,,0,66,48
49002,note_on,2,0,2,,,,,,,,0,64,0
49002,note_on,2,0,1,,,,,,,,0,64,0
49020,note_on,18,0,2,,,,,,,,0,64,48
49020,note_on,0,0,1,,,,,,,,0,56,64
49020,note_on,0,0,2,,,,,,,,0,56,64
49020,note_on,18,0,1,,,,,,,,0,64,48
49022,note_on,2,0,2,,,,,,,,0,66,0
49022,note_on,2,0,1,,,,,,,,0,66,0
49040,note_on,18,0,1,,,,,,,,0,66,48
49040,note_on,18,0,2,,,,,,,,0,66,48
49042,note_on,2,0,1,,,,,,,,0,64,0
49042,note_on,2,0,2,,,,,,,,0,64,0
49060,note_on,18,0,2,,,,,,,,0,64,49
49060,note_on,18,0,1,,,,,,,,0,64,49
49062,note_on,2,0,1,,,,,,,,0,66,0
49062,note_on,2,0,2,,,,,,,,0,66,0
49080,note_on,18,0,2,,,,,,,,0,56,0
49080,note_on,0,0,2,,,,,,,,0,66,49
49080,note_on,0,0,2,,,,,,,,0,57,64
49080,note_on,18,0,1,,,,,,,,0,56,0
49080,note_on,0,0,1,,,,,,,,0,66,49
49080,note_on,0,0,1,,,,,,,,0,57,64
49082,note_on,2,0,2,,,,,,,,0,64,0
49082,note_on,2,0,1,,,,,,,,0,64,0
49100,note_on,18,0,2,,,,,,,,0,64,49
49100,note_on,18,0,1,,,,,,,,0,64,49
49102,note_on,2,0,1,,,,,,,,0,66,0
49102,note_on,2,0,2,,,,,,,,0,66,0
49120,note_on,18,0,2,,,,,,,,0,66,50
49120,note_on,18,0,1,,,,,,,,0,66,50
49122,note_on,2,0,1,,,,,,,,0,64,0
49122,note_on,2,0,2,,,,,,,,0,64,0
49140,note_on,0,0,2,,,,,,,,0,64,50
49140,note_on,0,0,2,,,,,,,,0,59,64
49140,note_on,0,0,1,,,,,,,,0,64,50
49140,note_on,18,0,1,,,,,,,,0,57,0
49140,note_on,18,0,2,,,,,,,,0,57,0
49140,note_on,0,0,1,,,,,,,,0,59,64
49142,note_on,2,0,2,,,,,,,,0,66,0
49142,note_on,2,0,1,,,,,,,,0,66,0
49160,note_on,18,0,1,,,,,,,,0,66,50
49160,note_on,18,0,2,,,,,,,,0,66,50
49162,note_on,2,0,2,,,,,,,,0,64,0
49162,note_on,2,0,1,,,,,,,,0,64,0
49180,note_on,18,0,2,,,,,,,,0,64,51
49180,note_on,18,0,1,,,,,,,,0,64,51
49182,note_on,2,0,2,,,,,,,,0,66,0
49182,note_on,2,0,1,,,,,,,,0,66,0
49200,note_on,18,0,2,,,,,,,,0,59,0
49200,note_on,0,0,1,,,,,,,,0,60,64
49200,note_on,18,0,1,,,,,,,,0,59,0
49200,note_on,0,0,2,,,,,,,,0,60,64
49200,note_on,0,0,1,,,,,,,,0,66,51
49200,note_on,0,0,2,,,,,,,,0,66,51
49202,note_on,2,0,1,,,,,,,,0,64,0
49202,note_on,2,0,2,,,,,,,,0,64,0
49220,note_on,18,0,2,,,,,,,,0,64,51
49220,note_on,18,0,1,,,,,,,,0,64,51
49222,note_on,2,0,2,,,,,,,,0,66,0
49222,note_on,2,0,1,,,,,,,,0,66,0
49240,note_on,18,0,2,,,,,,,,0,66,51
49240,note_on,18,0,1,,,,,,,,0,66,51
49242,note_on,2,0,2,,,,,,,,0,64,0
49242,note_on,2,0,1,,,,,,,,0,64,0
49260,note_on,0,0,2,,,,,,,,0,57,64
49260,note_on,18,0,1,,,,,,,,0,60,0
49260,note_on,0,0,2,,,,,,,,0,64,52
49260,note_on,18,0,2,,,,,,,,0,60,0
49260,note_on,0,0,1,,,,,,,,0,57,64
49260,note_on,0,0,1,,,,,,,,0,64,52
49262,note_on,2,0,2,,,,,,,,0,66,0
49262,note_on,2,0,1,,,,,,,,0,66,0
49280,note_on,18,0,1,,,,,,,,0,66,52
49280,note_on,18,0,2,,,,,,,,0,66,52
49282,note_on,2,0,1,,,,,,,,0,64,0
49282,note_on,2,0,2,,,,,,,,0,64,0
49300,note_on,18,0,1,,,,,,,,0,64,52
49300,note_on,18,0,2,,,,,,,,0,64,52
49302,note_on,2,0,1,,,,,,,,0,66,0
49302,note_on,2,0,2,,,,,,,,0,66,0
49320,note_on,0,0,2,,,,,,,,0,66,53
49320,note_on,18,0,2,,,,,,,,0,57,0
49320,note_on,0,0,1,,,,,,,,0,66,53
49320,note_on,0,0,2,,,,,,,,0,59,64
49320,note_on,0,0,1,,,,,,,,0,59,64
49320,note_on,18,0,1,,,,,,,,0,57,0
49322,note_on,2,0,2,,,,,,,,0,64,0
49322,note_on,2,0,1,,,,,,,,0,64,0
49340,note_on,18,0,1,,,,,,,,0,64,53
49340,note_on,18,0,2,,,,,,,,0,64,53
49342,note_on,2,0,1,,,,,,,,0,66,0
49342,note_on,2,0,2,,,,,,,,0,66,0
49360,note_on,18,0,2,,,,,,,,0,66,53
49360,note_on,18,0,1,,,,,,,,0,66,53
49362,note_on,2,0,2,,,,,,,,0,64,0
49362,note_on,2,0,1,,,,,,,,0,64,0
49380,note_on,0,0,1,,,,,,,,0,57,64
49380,note_on,18,0,2,,,,,,,,0,59,0
49380,note_on,0,0,2,,,,,,,,0,64,53
49380,note_on,18,0,1,,,,,,,,0,59,0
49380,note_on,0,0,1,,,,,,,,0,64,53
49380,note_on,0,0,2,,,,,,,,0,57,64
49382,note_on,2,0,2,,,,,,,,0,66,0
49382,note_on,2,0,1,,,,,,,,0,66,0
49400,note_on,18,0,2,,,,,,,,0,66,54
49400,note_on,18,0,1,,,,,,,,0,66,54
49402,note_on,2,0,1,,,,,,,,0,64,0
49402,note_on,2,0,2,,,,,,,,0,64,0
49420,note_on,18,0,2,,,,,,,,0,64,54
49420,note_on,18,0,1,,,,,,,,0,64,54
49422,note_on,2,0,1,,,,,,,,0,66,0
49422,note_on,2,0,2,,,,,,,,0,66,0
49440,note_on,18,0,2,,,,,,,,0,57,0
49440,note_on,0,0,2,,,,,,,,0,56,64
49440,note_on,0,0,2,,,,,,,,0,66,54
49440,note_on,0,0,1,,,,,,,,0,56,64
49440,note_on,18,0,1,,,,,,,,0,57,0
49440,note_on,0,0,1,,,,,,,,0,66,54
49442,note_on,2,0,1,,,,,,,,0,64,0
49442,note_on,2,0,2,,,,,,,,0,64,0
49460,note_on,18,0,1,,,,,,,,0,64,55
49460,note_on,18,0,2,,,,,,,,0,64,55
49462,note_on,2,0,1,,,,,,,,0,66,0
49462,note_on,2,0,2,,,,,,,,0,66,0
49480,note_on,18,0,1,,,,,,,,0,66,55
49480,note_on,18,0,2,,,,,,,,0,66,55
49482,note_on,2,0,1,,,,,,,,0,64,0
49482,note_on,2,0,2,,,,,,,,0,64,0
49500,note_on,18,0,1,,,,,,,,0,56,0
49500,note_on,18,0,2,,,,,,,,0,56,0
49500,note_on,0,0,2,,,,,,,,0,54,64
49500,note_on,0,0,2,,,,,,,,0,64,55
49500,note_on,0,0,1,,,,,,,,0,64,55
49500,note_on,0,0,1,,,,,,,,0,54,64
49502,note_on,2,0,2,,,,,,,,0,66,0
49502,note_on,2,0,1,,,,,,,,0,66,0
49520,note_on,18,0,1,,,,,,,,0,66,55
49520,note_on,18,0,2,,,,,,,,0,66,55
49522,note_on,2,0,2,,,,,,,,0,64,0
49522,note_on,2,0,1,,,,,,,,0,64,0
49540,note_on,18,0,2,,,,,,,,0,64,56
49540,note_on,18,0,1,,,,,,,,0,64,56
49542,note_on,2,0,1,,,,,,,,0,66,0
49542,note_on,2,0,2,,,,,,,,0,66,0
49560,note_on,18,0,2,,,,,,,,0,54,0
49560,note_on,18,0,1,,,,,,,,0,54,0
49560,note_on,0,0,1,,,,,,,,0,66,56
49560,note_on,0,0,1,,,,,,,,0,52,64
49560,note_on,0,0,2,,,,,,,,0,66,56
49560,note_on,0,0,2,,,,,,,,0,52,64
49562,note_on,2,0,1,,,,,,,,0,64,0
49562,note_on,2,0,2,,,,,,,,0,64,0
49580,note_on,18,0,2,,,,,,,,0,64,56
49580,note_on,18,0,1,,,,,,,,0,64,56
49582,note_on,2,0,2,,,,,,,,0,66,0
49582,note_on,2,0,1,,,,,,,,0,66,0
49600,note_on,18,0,1,,,,,,,,0,66,57
49600,note_on,18,0,2,,,,,,,,0,66,57
49602,note_on,2,0,2,,,,,,,,0,64,0
49602,note_on,2,0,1,,,,,,,,0,64,0
49620,note_on,18,0,2,,,,,,,,0,52,0
49620,note_on,0,0,2,,,,,,,,0,64,57
49620,note_on,0,0,2,,,,,,,,0,50,64
49620,note_on,0,0,1,,,,,,,,0,64,57
49620,note_on,18,0,1,,,,,,,,0,52,0
49620,note_on,0,0,1,,,,,,,,0,50,64
49622,note_on,2,0,1,,,,,,,,0,66,0
49622,note_on,2,0,2,,,,,,,,0,66,0
49640,note_on,18,0,1,,,,,,,,0,66,57
49640,note_on,18,0,2,,,,,,,,0,66,57
49642,note_on,2,0,1,,,,,,,,0,64,0
49642,note_on,2,0,2,,,,,,,,0,64,0
49660,note_on,18,0,2,,,,,,,,0,64,57
49660,note_on,18,0,1,,,,,,,,0,64,57
49662,note_on,2,0,1,,,,,,,,0,66,0
49662,note_on,2,0,2,,,,,,,,0,66,0
49680,note_on,0,0,1,,,,,,,,0,66,58
49680,note_on,0,0,1,,,,,,,,0,48,64
49680,note_on,0,0,2,,,,,,,,0,66,58
49680,note_on,0,0,2,,,,,,,,0,48,64
49680,note_on,18,0,1,,,,,,,,0,50,0
49680,note_on,18,0,2,,,,,,,,0,50,0
49682,note_on,2,0,2,,,,,,,,0,64,0
49682,note_on,2,0,1,,,,,,,,0,64,0
49700,note_on,18,0,2,,,,,,,,0,64,58
49700,note_on,18,0,1,,,,,,,,0,64,58
49702,note_on,2,0,2,,,,,,,,0,66,0
49702,note_on,2,0,1,,,,,,,,0,66,0
49720,note_on,18,0,1,,,,,,,,0,66,58
49720,note_on,18,0,2,,,,,,,,0,66,58
49722,note_on,2,0,2,,,,,,,,0,64,0
49722,note_on,2,0,1,,,,,,,,0,64,0
49740,note_on,18,0,2,,,,,,,,0,48,0
49740,note_on,0,0,2,,,,,,,,0,52,64
49740,note_on,0,0,2,,,,,,,,0,64,59
49740,note_on,18,0,1,,,,,,,,0,48,0
49740,note_on,0,0,1,,,,,,,,0,52,64
49740,note_on,0,0,1,,,,,,,,0,64,59
49742,note_on,2,0,2,,,,,,,,0,66,0
49742,note_on,2,0,1,,,,,,,,0,66,0
49760,note_on,18,0,1,,,,,,,,0,66,59
49760,note_on,18,0,2,,,,,,,,0,66,59
49762,note_on,2,0,2,,,,,,,,0,64,0
49762,note_on,2,0,1,,,,,,,,0,64,0
49780,note_on,18,0,2,,,,,,,,0,64,59
49780,note_on,18,0,1,,,,,,,,0,64,59
49782,note_on,2,0,2,,,,,,,,0,66,0
49782,note_on,2,0,1,,,,,,,,0,66,0
49800,note_on,18,0,2,,,,,,,,0,52,0
49800,note_on,0,0,2,,,,,,,,0,66,60
49800,note_on,0,0,2,,,,,,,,0,54,64
49800,note_on,0,0,1,,,,,,,,0,66,60
49800,note_on,0,0,1,,,,,,,,0,54,64
49800,note_on,18,0,1,,,,,,,,0,52,0
49802,note_on,2,0,1,,,,,,,,0,64,0
49802,note_on,2,0,2,,,,,,,,0,64,0
49820,note_on,18,0,1,,,,,,,,0,64,60
49820,note_on,18,0,2,,,,,,,,0,64,60
49822,note_on,2,0,2,,,,,,,,0,66,0
49822,note_on,2,0,1,,,,,,,,0,66,0
49840,note_on,18,0,2,,,,,,,,0,66,60
49840,note_on,18,0,1,,,,,,,,0,66,60
49842,note_on,2,0,2,,,,,,,,0,64,0
49842,note_on,2,0,1,,,,,,,,0,64,0
49860,note_on,0,0,1,,,,,,,,0,56,64
49860,note_on,0,0,1,,,,,,,,0,64,60
49860,note_on,0,0,2,,,,,,,,0,56,64
49860,note_on,0,0,2,,,,,,,,0,64,60
49860,note_on,18,0,1,,,,,,,,0,54,0
49860,note_on,18,0,2,,,,,,,,0,54,0
49862,note_on,2,0,1,,,,,,,,0,66,0
49862,note_on,2,0,2,,,,,,,,0,66,0
49880,note_on,18,0,2,,,,,,,,0,66,61
49880,note_on,18,0,1,,,,,,,,0,66,61
49882,note_on,2,0,1,,,,,,,,0,64,0
49882,note_on,2,0,2,,,,,,,,0,64,0
49900,note_on,18,0,2,,,,,,,,0,64,61
49900,note_on,18,0,1,,,,,,,,0,64,61
49902,note_on,2,0,1,,,,,,,,0,66,0
49902,note_on,2,0,2,,,,,,,,0,66,0
49920,note_on,18,0,2,,,,,,,,0,56,0
49920,note_on,0,0,2,,,,,,,,0,66,61
49920,note_on,0,0,1,,,,,,,,0,66,61
49920,note_on,0,0,2,,,,,,,,0,57,64
49920,note_on,18,0,1,,,,,,,,0,56,0
49920,note_on,0,0,1,,,,,,,,0,57,64
49922,note_on,2,0,2,,,,,,,,0,64,0
49922,note_on,2,0,1,,,,,,,,0,64,0
49940,note_on,18,0,1,,,,,,,,0,64,62
49940,note_on,18,0,2,,,,,,,,0,64,62
49942,note_on,2,0,1,,,,,,,,0,66,0
49942,note_on,2,0,2,,,,,,,,0,66,0
49960,note_on,18,0,2,,,,,,,,0,66,62
49960,note_on,18,0,1,,,,,,,,0,66,62
49962,note_on,2,0,2,,,,,,,,0,64,0
49962,note_on,2,0,1,,,,,,,,0,64,0
49980,note_on,0,0,1,,,,,,,,0,64,62
49980,note_on,0,0,1,,,,,,,,0,54,64
49980,note_on,0,0,2,,,,,,,,0,54,64
49980,note_on,0,0,2,,,,,,,,0,64,62
49980,note_on,18,0,2,,,,,,,,0,57,0
49980,note_on,18,0,1,,,,,,,,0,57,0
49982,note_on,2,0,1,,,,,,,,0,66,0
49982,note_on,2,0,2,,,,,,,,0,66,0
50000,note_on,18,0,2,,,,,,,,0,66,62
50000,note_on,18,0,1,,,,,,,,0,66,62
50002,note_on,2,0,2,,,,,,,,0,64,0
50002,note_on,2,0,1,,,,,,,,0,64,0
50020,note_on,18,0,2,,,,,,,,0,64,63
50020,note_on,18,0,1,,,,,,,,0,64,63
50022,note_on,2,0,2,,,,,,,,0,66,0
50022,note_on,2,0,1,,,,,,,,0,66,0
50040,note_on,18,0,1,,,,,,,,0,54,0
50040,note_on,0,0,1,,,,,,,,0,66,63
50040,note_on,0,0,1,,,,,,,,0,56,64
50040,note_on,0,0,2,,,,,,,,0,66,63
50040,note_on,18,0,2,,,,,,,,0,54,0
50040,note_on,0,0,2,,,,,,,,0,56,64
50042,note_on,2,0,1,,,,,,,,0,64,0
50042,note_on,2,0,2,,,,,,,,0,64,0
50060,note_on,18,0,1,,,,,,,,0,64,63
50060,note_on,18,0,2,,,,,,,,0,64,63
50062,note_on,2,0,2,,,,,,,,0,66,0
50062,note_on,2,0,1,,,,,,,,0,66,0
50100,note_on,0,0,2,,,,,,,,0,54,64
50100,note_on,38,0,1,,,,,,,,0,56,0
50100,note_on,38,0,2,,,,,,,,0,56,0
50100,note_on,0,0,1,,,,,,,,0,54,64
50160,note_on,0,0,2,,,,,,,,0,74,64
50160,note_on,0,0,1,,,,,,,,0,74,64
50160,note_on,0,0,1,,,,,,,,0,52,64
50160,note_on,0,0,2,,,,,,,,0,52,64
50160,note_on,60,0,1,,,,,,,,0,54,0
50160,note_on,60,0,2,,,,,,,,0,54,0
50170,note_on,10,0,2,,,,,,,,0,64,0
50170,note_on,10,0,1,,,,,,,,0,64,0
50180,note_on,0,0,2,,,,,,,,0,72,64
50180,note_on,10,0,1,,,,,,,,0,74,0
50180,note_on,0,0,1,,,,,,,,0,72,64
50180,note_on,10,0,2,,,,,,,,0,74,0
50200,note_on,20,0,1,,,,,,,,0,72,0
50200,note_on,0,0,1,,,,,,,,0,74,64
50200,note_on,20,0,2,,,,,,,,0,72,0
50200,note_on,0,0,2,,,,,,,,0,74,64
50220,note_on,20,0,1,,,,,,,,0,52,0
50220,note_on,0,0,1,,,,,,,,0,50,64
50220,note_on,20,0,2,,,,,,,,0,52,0
50220,note_on,0,0,2,,,,,,,,0,50,64
50280,note_on,60,0,2,,,,,,,,0,50,0
50280,note_on,0,0,2,,,,,,,,0,48,64
50280,note_on,0,0,1,,,,,,,,0,48,64
50280,note_on,60,0,1,,,,,,,,0,50,0
50340,note_on,0,0,2,,,,,,,,0,47,64
50340,note_on,0,0,1,,,,,,,,0,47,64
50340,note_on,60,0,1,,,,,,,,0,48,0
50340,note_on,60,0,2,,,,,,,,0,48,0
50400,note_on,60,0,1,,,,,,,,0,47,0
50400,note_on,0,0,1,,,,,,,,0,45,64
50400,note_on,60,0,2,,,,,,,,0,47,0
50400,note_on,0,0,2,,,,,,,,0,45,64
50460,note_on,0,0,2,,,,,,,,0,76,64
50460,note_on,60,0,2,,,,,,,,0,74,0
50460,note_on,60,0,1,,,,,,,,0,74,0
50460,note_on,0,0,1,,,,,,,,0,76,64
50520,note_on,60,0,1,,,,,,,,0,76,0
50520,note_on,60,0,2,,,,,,,,0,76,0
50520,note_on,0,0,1,,,,,,,,0,74,64
50520,note_on,0,0,1,,,,,,,,0,52,64
50520,note_on,0,0,1,,,,,,,,0,45,0
50520,note_on,0,0,2,,,,,,,,0,52,64
50520,note_on,0,0,2,,,,,,,,0,45,0
50520,note_on,0,0,2,,,,,,,,0,74,64
50580,note_on,0,0,2,,,,,,,,0,72,64
50580,note_on,60,0,2,,,,,,,,0,74,0
50580,note_on,0,0,1,,,,,,,,0,72,64
50580,note_on,60,0,1,,,,,,,,0,74,0
50640,note_on,0,0,1,,,,,,,,0,52,0
50640,note_on,60,0,2,,,,,,,,0,72,0
50640,note_on,0,0,2,,,,,,,,0,52,0
50640,note_on,0,0,2,,,,,,,,0,56,64
50640,note_on,0,0,2,,,,,,,,0,71,64
50640,note_on,0,0,1,,,,,,,,0,71,64
50640,note_on,0,0,1,,,,,,,,0,56,64
50640,note_on,60,0,1,,,,,,,,0,72,0
50700,note_on,60,0,2,,,,,,,,0,71,0
50700,note_on,0,0,2,,,,,,,,0,74,64
50700,note_on,60,0,1,,,,,,,,0,71,0
50700,note_on,0,0,1,,,,,,,,0,74,64
50760,note_on,0,0,2,,,,,,,,0,57,64
50760,note_on,0,0,2,,,,,,,,0,72,64
50760,note_on,0,0,2,,,,,,,,0,56,0
50760,note_on,60,0,2,,,,,,,,0,74,0
50760,note_on,0,0,1,,,,,,,,0,56,0
50760,note_on,60,0,1,,,,,,,,0,74,0
50760,note_on,0,0,1,,,,,,,,0,57,64
50760,note_on,0,0,1,,,,,,,,0,72,64
50820,note_on,60,0,2,,,,,,,,0,57,0
50820,note_on,0,0,1,,,,,,,,0,59,64
50820,note_on,60,0,1,,,,,,,,0,57,0
50820,note_on,0,0,2,,,,,,,,0,59,64
50880,note_on,0,0,2,,,,,,,,0,57,64
50880,note_on,60,0,1,,,,,,,,0,59,0
50880,note_on,60,0,2,,,,,,,,0,59,0
50880,note_on,0,0,1,,,,,,,,0,72,0
50880,note_on,0,0,2,,,,,,,,0,76,64
50880,note_on,0,0,1,,,,,,,,0,57,64
50880,note_on,0,0,1,,,,,,,,0,76,64
50880,note_on,0,0,2,,,,,,,,0,72,0
50940,note_on,60,0,2,,,,,,,,0,57,0
50940,note_on,0,0,2,,,,,,,,0,55,64
50940,note_on,60,0,1,,,,,,,,0,57,0
50940,note_on,0,0,1,,,,,,,,0,55,64
51000,note_on,60,0,2,,,,,,,,0,55,0
51000,note_on,0,0,2,,,,,,,,0,76,0
51000,note_on,0,0,2,,,,,,,,0,81,64
51000,note_on,0,0,2,,,,,,,,0,54,64
51000,note_on,60,0,1,,,,,,,,0,55,0
51000,note_on,0,0,1,,,,,,,,0,76,0
51000,note_on,0,0,1,,,,,,,,0,81,64
51000,note_on,0,0,1,,,,,,,,0,54,64
51060,note_on,0,0,2,,,,,,,,0,57,64
51060,note_on,60,0,1,,,,,,,,0,54,0
51060,note_on,0,0,1,,,,,,,,0,57,64
51060,note_on,60,0,2,,,,,,,,0,54,0
51120,note_on,60,0,1,,,,,,,,0,57,0
51120,note_on,60,0,2,,,,,,,,0,57,0
51120,note_on,0,0,1,,,,,,,,0,51,64
51120,note_on,0,0,2,,,,,,,,0,51,64
51180,note_on,60,0,2,,,,,,,,0,81,0
51180,note_on,60,0,1,,,,,,,,0,81,0
51180,note_on,0,0,1,,,,,,,,0,83,64
51180,note_on,0,0,2,,,,,,,,0,83,64
51240,note_on,60,0,1,,,,,,,,0,83,0
51240,note_on,0,0,2,,,,,,,,0,81,64
51240,note_on,0,0,1,,,,,,,,0,51,0
51240,note_on,0,0,1,,,,,,,,0,81,64
51240,note_on,0,0,1,,,,,,,,0,60,64
51240,note_on,60,0,2,,,,,,,,0,83,0
51240,note_on,0,0,2,,,,,,,,0,51,0
51240,note_on,0,0,2,,,,,,,,0,60,64
51260,note_on,20,0,2,,,,,,,,0,60,0
51260,note_on,20,0,1,,,,,,,,0,60,0
51260,note_on,0,0,1,,,,,,,,0,59,64
51260,note_on,0,0,2,,,,,,,,0,59,64
51280,note_on,20,0,2,,,,,,,,0,59,0
51280,note_on,0,0,1,,,,,,,,0,60,64
51280,note_on,0,0,2,,,,,,,,0,60,64
51280,note_on,20,0,1,,,,,,,,0,59,0
51300,note_on,20,0,1,,,,,,,,0,81,0
51300,note_on,20,0,2,,,,,,,,0,81,0
51300,note_on,0,0,2,,,,,,,,0,79,64
51300,note_on,0,0,1,,,,,,,,0,79,64
51360,note_on,0,0,1,,,,,,,,0,78,64
51360,note_on,0,0,2,,,,,,,,0,78,64
51360,note_on,60,0,1,,,,,,,,0,79,0
51360,note_on,60,0,2,,,,,,,,0,79,0
51420,note_on,60,0,2,,,,,,,,0,78,0
51420,note_on,0,0,2,,,,,,,,0,81,64
51420,note_on,60,0,1,,,,,,,,0,78,0
51420,note_on,0,0,1,,,,,,,,0,81,64
51480,note_on,0,0,2,,,,,,,,0,75,64
51480,note_on,0,0,1,,,,,,,,0,75,64
51480,note_on,60,0,1,,,,,,,,0,81,0
51480,note_on,60,0,2,,,,,,,,0,81,0
51540,note_on,0,0,1,,,,,,,,0,57,64
51540,note_on,60,0,1,,,,,,,,0,60,0
51540,note_on,60,0,2,,,,,,,,0,60,0
51540,note_on,0,0,2,,,,,,,,0,57,64
51600,note_on,0,0,2,,,,,,,,0,84,64
51600,note_on,0,0,1,,,,,,,,0,75,0
51600,note_on,60,0,1,,,,,,,,0,57,0
51600,note_on,0,0,1,,,,,,,,0,84,64
51600,note_on,60,0,2,,,,,,,,0,57,0
51600,note_on,0,0,1,,,,,,,,0,54,64
51600,note_on,0,0,2,,,,,,,,0,75,0
51600,note_on,0,0,2,,,,,,,,0,54,64
51620,note_on,0,0,1,,,,,,,,0,83,64
51620,note_on,20,0,1,,,,,,,,0,84,0
51620,note_on,20,0,2,,,,,,,,0,84,0
51620,note_on,0,0,2,,,,,,,,0,83,64
51640,note_on,0,0,2,,,,,,,,0,84,64
51640,note_on,20,0,1,,,,,,,,0,83,0
51640,note_on,0,0,1,,,,,,,,0,84,64
51640,note_on,20,0,2,,,,,,,,0,83,0
51660,note_on,20,0,2,,,,,,,,0,54,0
51660,note_on,0,0,2,,,,,,,,0,57,64
51660,note_on,20,0,1,,,,,,,,0,54,0
51660,note_on,0,0,1,,,,,,,,0,57,64
51720,note_on,60,0,1,,,,,,,,0,57,0
51720,note_on,0,0,2,,,,,,,,0,51,64
51720,note_on,60,0,2,,,,,,,,0,57,0
51720,note_on,0,0,1,,,,,,,,0,51,64
51780,note_on,0,0,2,,,,,,,,0,54,64
51780,note_on,60,0,2,,,,,,,,0,51,0
51780,note_on,0,0,1,,,,,,,,0,54,64
51780,note_on,60,0,1,,,,,,,,0,51,0
51840,note_on,60,0,2,,,,,,,,0,54,0
51840,note_on,0,0,1,,,,,,,,0,47,64
51840,note_on,60,0,1,,,,,,,,0,54,0
51840,note_on,0,0,2,,,,,,,,0,47,64
51900,note_on,60,0,1,,,,,,,,0,84,0
51900,note_on,0,0,1,,,,,,,,0,83,64
51900,note_on,60,0,2,,,,,,,,0,84,0
51900,note_on,0,0,2,,,,,,,,0,83,64
51960,note_on,0,0,1,,,,,,,,0,47,0
51960,note_on,60,0,2,,,,,,,,0,83,0
51960,note_on,0,0,2,,,,,,,,0,47,0
51960,note_on,60,0,1,,,,,,,,0,83,0
51960,note_on,0,0,2,,,,,,,,0,64,64
51960,note_on,0,0,2,,,,,,,,0,81,64
51960,note_on,0,0,1,,,,,,,,0,81,64
51960,note_on,0,0,1,,,,,,,,0,64,64
51980,note_on,0,0,2,,,,,,,,0,63,64
51980,note_on,0,0,1,,,,,,,,0,63,64
51980,note_on,20,0,2,,,,,,,,0,64,0
51980,note_on,20,0,1,,,,,,,,0,64,0
52000,note_on,20,0,2,,,,,,,,0,63,0
52000,note_on,0,0,2,,,,,,,,0,64,64
52000,note_on,0,0,1,,,,,,,,0,64,64
52000,note_on,20,0,1,,,,,,,,0,63,0
52020,note_on,0,0,1,,,,,,,,0,79,64
52020,note_on,0,0,1,,,,,,,,0,63,64
52020,note_on,0,0,2,,,,,,,,0,81,0
52020,note_on,0,0,1,,,,,,,,0,81,0
52020,note_on,0,0,2,,,,,,,,0,63,64
52020,note_on,0,0,2,,,,,,,,0,79,64
52020,note_on,20,0,1,,,,,,,,0,64,0
52020,note_on,20,0,2,,,,,,,,0,64,0
52040,note_on,20,0,1,,,,,,,,0,63,0
52040,note_on,20,0,2,,,,,,,,0,63,0
52040,note_on,0,0,2,,,,,,,,0,64,64
52040,note_on,0,0,1,,,,,,,,0,64,64
52060,note_on,20,0,2,,,,,,,,0,64,0
52060,note_on,0,0,2,,,,,,,,0,63,64
52060,note_on,0,0,1,,,,,,,,0,63,64
52060,note_on,20,0,1,,,,,,,,0,64,0
52080,note_on,20,0,2,,,,,,,,0,79,0
52080,note_on,0,0,2,,,,,,,,0,78,64
52080,note_on,0,0,1,,,,,,,,0,78,64
52080,note_on,20,0,1,,,,,,,,0,79,0
52140,note_on,0,0,1,,,,,,,,0,63,0
52140,note_on,0,0,2,,,,,,,,0,63,0
52140,note_on,0,0,2,,,,,,,,0,81,64
52140,note_on,0,0,2,,,,,,,,0,61,64
52140,note_on,60,0,1,,,,,,,,0,78,0
52140,note_on,0,0,1,,,,,,,,0,81,64
52140,note_on,0,0,1,,,,,,,,0,61,64
52140,note_on,60,0,2,,,,,,,,0,78,0
52170,note_on,30,0,2,,,,,,,,0,61,0
52170,note_on,0,0,1,,,,,,,,0,63,64
52170,note_on,30,0,1,,,,,,,,0,61,0
52170,note_on,0,0,2,,,,,,,,0,63,64
52200,note_on,0,0,1,,,,,,,,0,81,0
52200,note_on,0,0,2,,,,,,,,0,81,0
52200,note_on,0,0,2,,,,,,,,0,79,64
52200,note_on,0,0,2,,,,,,,,0,64,64
52200,note_on,30,0,1,,,,,,,,0,63,0
52200,note_on,0,0,1,,,,,,,,0,64,64
52200,note_on,30,0,2,,,,,,,,0,63,0
52200,note_on,0,0,1,,,,,,,,0,79,64
52260,note_on,60,0,2,,,,,,,,0,64,0
52260,note_on,0,0,2,,,,,,,,0,63,64
52260,note_on,0,0,1,,,,,,,,0,63,64
52260,note_on,60,0,1,,,,,,,,0,64,0
52320,note_on,60,0,2,,,,,,,,0,63,0
52320,note_on,0,0,1,,,,,,,,0,64,64
52320,note_on,60,0,1,,,,,,,,0,63,0
52320,note_on,0,0,2,,,,,,,,0,64,64
52380,note_on,0,0,2,,,,,,,,0,66,64
52380,note_on,60,0,2,,,,,,,,0,64,0
52380,note_on,60,0,1,,,,,,,,0,64,0
52380,note_on,0,0,1,,,,,,,,0,66,64
52440,note_on,60,0,1,,,,,,,,0,66,0
52440,note_on,0,0,2,,,,,,,,0,67,64
52440,note_on,60,0,2,,,,,,,,0,66,0
52440,note_on,0,0,1,,,,,,,,0,67,64
52500,note_on,0,0,2,,,,,,,,0,64,64
52500,note_on,60,0,2,,,,,,,,0,67,0
52500,note_on,60,0,1,,,,,,,,0,67,0
52500,note_on,0,0,1,,,,,,,,0,64,64
52560,note_on,60,0,1,,,,,,,,0,64,0
52560,note_on,0,0,2,,,,,,,,0,58,64
52560,note_on,0,0,1,,,,,,,,0,58,64
52560,note_on,60,0,2,,,,,,,,0,64,0
52620,note_on,0,0,1,,,,,,,,0,78,64
52620,note_on,0,0,1,,,,,,,,0,79,0
52620,note_on,60,0,1,,,,,,,,0,58,0
52620,note_on,0,0,2,,,,,,,,0,79,0
52620,note_on,60,0,2,,,,,,,,0,58,0
52620,note_on,0,0,2,,,,,,,,0,59,64
52620,note_on,0,0,2,,,,,,,,0,78,64
52620,note_on,0,0,1,,,,,,,,0,59,64
52680,note_on,0,0,2,,,,,,,,0,61,64
52680,note_on,60,0,2,,,,,,,,0,59,0
52680,note_on,0,0,2,,,,,,,,0,78,0
52680,note_on,0,0,1,,,,,,,,0,61,64
52680,note_on,0,0,1,,,,,,,,0,76,64
52680,note_on,0,0,1,,,,,,,,0,78,0
52680,note_on,60,0,1,,,,,,,,0,59,0
52680,note_on,0,0,2,,,,,,,,0,76,64
52740,note_on,0,0,2,,,,,,,,0,62,64
52740,note_on,0,0,2,,,,,,,,0,76,0
52740,note_on,60,0,2,,,,,,,,0,61,0
52740,note_on,0,0,2,,,,,,,,0,74,64
52740,note_on,60,0,1,,,,,,,,0,61,0
52740,note_on,0,0,1,,,,,,,,0,62,64
52740,note_on,0,0,1,,,,,,,,0,74,64
52740,note_on,0,0,1,,,,,,,,0,76,0
52800,note_on,60,0,2,,,,,,,,0,62,0
52800,note_on,0,0,2,,,,,,,,0,73,64
52800,note_on,0,0,1,,,,,,,,0,73,64
52800,note_on,0,0,1,,,,,,,,0,74,0
52800,note_on,0,0,1,,,,,,,,0,64,64
52800,note_on,0,0,2,,,,,,,,0,64,64
52800,note_on,60,0,1,,,,,,,,0,62,0
52800,note_on,0,0,2,,,,,,,,0,74,0
52860,note_on,0,0,2,,,,,,,,0,61,64
52860,note_on,0,0,2,,,,,,,,0,73,0
52860,note_on,0,0,1,,,,,,,,0,76,64
52860,note_on,0,0,2,,,,,,,,0,76,64
52860,note_on,0,0,1,,,,,,,,0,73,0
52860,note_on,60,0,2,,,,,,,,0,64,0
52860,note_on,60,0,1,,,,,,,,0,64,0
52860,note_on,0,0,1,,,,,,,,0,61,64
52920,note_on,0,0,1,,,,,,,,0,76,0
52920,note_on,0,0,1,,,,,,,,0,54,64
52920,note_on,0,0,2,,,,,,,,0,54,64
52920,note_on,0,0,2,,,,,,,,0,76,0
52920,note_on,60,0,2,,,,,,,,0,61,0
52920,note_on,0,0,2,,,,,,,,0,70,64
52920,note_on,60,0,1,,,,,,,,0,61,0
52920,note_on,0,0,1,,,,,,,,0,70,64
52980,note_on,60,0,2,,,,,,,,0,70,0
52980,note_on,0,0,2,,,,,,,,0,79,64
52980,note_on,0,0,1,,,,,,,,0,79,64
52980,note_on,60,0,1,,,,,,,,0,70,0
53040,note_on,60,0,2,,,,,,,,0,79,0
53040,note_on,0,0,2,,,,,,,,0,58,64
53040,note_on,0,0,2,,,,,,,,0,78,64
53040,note_on,0,0,2,,,,,,,,0,54,0
53040,note_on,60,0,1,,,,,,,,0,79,0
53040,note_on,0,0,1,,,,,,,,0,54,0
53040,note_on,0,0,1,,,,,,,,0,78,64
53040,note_on,0,0,1,,,,,,,,0,58,64
53100,note_on,60,0,2,,,,,,,,0,78,0
53100,note_on,0,0,1,,,,,,,,0,76,64
53100,note_on,60,0,1,,,,,,,,0,78,0
53100,note_on,0,0,2,,,,,,,,0,76,64
53160,note_on,0,0,1,,,,,,,,0,58,0
53160,note_on,60,0,1,,,,,,,,0,76,0
53160,note_on,0,0,1,,,,,,,,0,75,64
53160,note_on,0,0,2,,,,,,,,0,75,64
53160,note_on,0,0,2,,,,,,,,0,59,64
53160,note_on,0,0,2,,,,,,,,0,58,0
53160,note_on,60,0,2,,,,,,,,0,76,0
53160,note_on,0,0,1,,,,,,,,0,59,64
53220,note_on,60,0,1,,,,,,,,0,75,0
53220,note_on,0,0,2,,,,,,,,0,78,64
53220,note_on,60,0,2,,,,,,,,0,75,0
53220,note_on,0,0,1,,,,,,,,0,78,64
53280,note_on,0,0,1,,,,,,,,0,69,64
53280,note_on,0,0,2,,,,,,,,0,59,0
53280,note_on,60,0,2,,,,,,,,0,78,0
53280,note_on,0,0,2,,,,,,,,0,69,64
53280,note_on,60,0,1,,,,,,,,0,78,0
53280,note_on,0,0,1,,,,,,,,0,60,64
53280,note_on,0,0,2,,,,,,,,0,60,64
53280,note_on,0,0,1,,,,,,,,0,59,0
53340,note_on,0,0,2,,,,,,,,0,72,64
53340,note_on,60,0,1,,,,,,,,0,69,0
53340,note_on,0,0,1,,,,,,,,0,72,64
53340,note_on,60,0,2,,,,,,,,0,69,0
53400,note_on,60,0,1,,,,,,,,0,72,0
53400,note_on,0,0,2,,,,,,,,0,51,64
53400,note_on,60,0,2,,,,,,,,0,72,0
53400,note_on,0,0,1,,,,,,,,0,51,64
53400,note_on,0,0,2,,,,,,,,0,60,0
53400,note_on,0,0,2,,,,,,,,0,71,64
53400,note_on,0,0,1,,,,,,,,0,60,0
53400,note_on,0,0,1,,,,,,,,0,71,64
53460,note_on,0,0,1,,,,,,,,0,69,64
53460,note_on,60,0,1,,,,,,,,0,71,0
53460,note_on,60,0,2,,,,,,,,0,71,0
53460,note_on,0,0,2,,,,,,,,0,69,64
53520,note_on,0,0,2,,,,,,,,0,52,64
53520,note_on,0,0,2,,,,,,,,0,67,64
53520,note_on,0,0,1,,,,,,,,0,67,64
53520,note_on,60,0,2,,,,,,,,0,69,0
53520,note_on,0,0,1,,,,,,,,0,52,64
53520,note_on,0,0,1,,,,,,,,0,51,0
53520,note_on,60,0,1,,,,,,,,0,69,0
53520,note_on,0,0,2,,,,,,,,0,51,0
53580,note_on,0,0,1,,,,,,,,0,71,64
53580,note_on,60,0,1,,,,,,,,0,67,0
53580,note_on,60,0,2,,,,,,,,0,67,0
53580,note_on,0,0,2,,,,,,,,0,71,64
53640,note_on,0,0,2,,,,,,,,0,48,64
53640,note_on,0,0,2,,,,,,,,0,52,0
53640,note_on,0,0,2,,,,,,,,0,64,64
53640,note_on,0,0,1,,,,,,,,0,48,64
53640,note_on,0,0,1,,,,,,,,0,64,64
53640,note_on,60,0,1,,,,,,,,0,71,0
53640,note_on,60,0,2,,,,,,,,0,71,0
53640,note_on,0,0,1,,,,,,,,0,52,0
53760,note_on,120,0,2,,,,,,,,0,48,0
53760,note_on,0,0,1,,,,,,,,0,66,64
53760,note_on,0,0,2,,,,,,,,0,45,64
53760,note_on,120,0,1,,,,,,,,0,48,0
53760,note_on,0,0,2,,,,,,,,0,66,64
53760,note_on,0,0,1,,,,,,,,0,45,64
53760,note_on,0,0,1,,,,,,,,0,64,0
53760,note_on,0,0,2,,,,,,,,0,64,0
53780,note_on,0,0,1,,,,,,,,0,64,64
53780,note_on,0,0,2,,,,,,,,0,64,64
53780,note_on,20,0,2,,,,,,,,0,66,0
53780,note_on,20,0,1,,,,,,,,0,66,0
53800,note_on,20,0,2,,,,,,,,0,64,0
53800,note_on,0,0,2,,,,,,,,0,66,64
53800,note_on,20,0,1,,,,,,,,0,64,0
53800,note_on,0,0,1,,,,,,,,0,66,64
53880,note_on,0,0,2,,,,,,,,0,47,64
53880,note_on,0,0,2,,,,,,,,0,64,64
53880,note_on,0,0,2,,,,,,,,0,45,0
53880,note_on,80,0,1,,,,,,,,0,66,0
53880,note_on,0,0,1,,,,,,,,0,45,0
53880,note_on,0,0,1,,,,,,,,0,64,64
53880,note_on,0,0,1,,,,,,,,0,47,64
53880,note_on,80,0,2,,,,,,,,0,66,0
53900,note_on,20,0,2,,,,,,,,0,64,0
53900,note_on,20,0,1,,,,,,,,0,64,0
53900,note_on,0,0,2,,,,,,,,0,63,64
53900,note_on,0,0,1,,,,,,,,0,63,64
53920,note_on,0,0,1,,,,,,,,0,61,64
53920,note_on,0,0,2,,,,,,,,0,61,64
53920,note_on,20,0,1,,,,,,,,0,63,0
53920,note_on,20,0,2,,,,,,,,0,63,0
53940,note_on,0,0,1,,,,,,,,0,63,64
53940,note_on,20,0,1,,,,,,,,0,61,0
53940,note_on,0,0,2,,,,,,,,0,63,64
53940,note_on,20,0,2,,,,,,,,0,61,0
54000,note_on,0,0,1,,,,,,,,0,64,64
54000,note_on,0,0,2,,,,,,,,0,64,64
54000,note_on,0,0,2,,,,,,,,0,47,0
54000,note_on,60,0,2,,,,,,,,0,63,0
54000,note_on,60,0,1,,,,,,,,0,63,0
54000,note_on,0,0,1,,,,,,,,0,36,64
54000,note_on,0,0,2,,,,,,,,0,36,64
54000,note_on,0,0,1,,,,,,,,0,47,0
54060,note_on,0,0,2,,,,,,,,0,40,64
54060,note_on,0,0,2,,,,,,,,0,68,64
54060,note_on,0,0,2,,,,,,,,0,64,0
54060,note_on,60,0,2,,,,,,,,0,36,0
54060,note_on,60,0,1,,,,,,,,0,36,0
54060,note_on,0,0,1,,,,,,,,0,68,64
54060,note_on,0,0,1,,,,,,,,0,64,0
54060,note_on,0,0,1,,,,,,,,0,40,64
54120,note_on,0,0,2,,,,,,,,0,42,64
54120,note_on,0,0,1,,,,,,,,0,68,0
54120,note_on,0,0,1,,,,,,,,0,42,64
54120,note_on,60,0,2,,,,,,,,0,40,0
54120,note_on,0,0,2,,,,,,,,0,68,0
54120,note_on,0,0,1,,,,,,,,0,69,64
54120,note_on,60,0,1,,,,,,,,0,40,0
54120,note_on,0,0,2,,,,,,,,0,69,64
54180,note_on,0,0,2,,,,,,,,0,69,0
54180,note_on,60,0,2,,,,,,,,0,42,0
54180,note_on,0,0,1,,,,,,,,0,44,64
54180,note_on,0,0,2,,,,,,,,0,44,64
54180,note_on,0,0,1,,,,,,,,0,69,0
54180,note_on,0,0,1,,,,,,,,0,71,64
54180,note_on,60,0,1,,,,,,,,0,42,0
54180,note_on,0,0,2,,,,,,,,0,71,64
54240,note_on,0,0,2,,,,,,,,0,45,64
54240,note_on,0,0,1,,,,,,,,0,45,64
54240,note_on,0,0,2,,,,,,,,0,71,0
54240,note_on,0,0,1,,,,,,,,0,72,64
54240,note_on,0,0,1,,,,,,,,0,71,0
54240,note_on,60,0,2,,,,,,,,0,44,0
54240,note_on,60,0,1,,,,,,,,0,44,0
54240,note_on,0,0,2,,,,,,,,0,72,64
54300,note_on,60,0,1,,,,,,,,0,45,0
54300,note_on,0,0,1,,,,,,,,0,69,64
54300,note_on,0,0,2,,,,,,,,0,69,64
54300,note_on,0,0,1,,,,,,,,0,42,64
54300,note_on,0,0,2,,,,,,,,0,72,0
54300,note_on,0,0,1,,,,,,,,0,72,0
54300,note_on,60,0,2,,,,,,,,0,45,0
54300,note_on,0,0,2,,,,,,,,0,42,64
54360,note_on,0,0,1,,,,,,,,0,71,64
54360,note_on,0,0,1,,,,,,,,0,42,0
54360,note_on,0,0,1,,,,,,,,0,44,64
54360,note_on,60,0,1,,,,,,,,0,69,0
54360,note_on,0,0,2,,,,,,,,0,42,0
54360,note_on,0,0,2,,,,,,,,0,71,64
54360,note_on,0,0,2,,,,,,,,0,44,64
54360,note_on,60,0,2,,,,,,,,0,69,0
54420,note_on,60,0,1,,,,,,,,0,44,0
54420,note_on,0,0,1,,,,,,,,0,71,0
54420,note_on,0,0,1,,,,,,,,0,47,64
54420,note_on,0,0,1,,,,,,,,0,69,64
54420,note_on,60,0,2,,,,,,,,0,44,0
54420,note_on,0,0,2,,,,,,,,0,69,64
54420,note_on,0,0,2,,,,,,,,0,47,64
54420,note_on,0,0,2,,,,,,,,0,71,0
54480,note_on,0,0,1,,,,,,,,0,68,64
54480,note_on,0,0,1,,,,,,,,0,47,0
54480,note_on,0,0,2,,,,,,,,0,48,64
54480,note_on,60,0,2,,,,,,,,0,69,0
54480,note_on,0,0,2,,,,,,,,0,47,0
54480,note_on,60,0,1,,,,,,,,0,69,0
54480,note_on,0,0,2,,,,,,,,0,68,64
54480,note_on,0,0,1,,,,,,,,0,48,64
54540,note_on,0,0,1,,,,,,,,0,48,0
54540,note_on,0,0,1,,,,,,,,0,66,64
54540,note_on,60,0,1,,,,,,,,0,68,0
54540,note_on,0,0,2,,,,,,,,0,48,0
54540,note_on,0,0,2,,,,,,,,0,66,64
54540,note_on,0,0,1,,,,,,,,0,50,64
54540,note_on,0,0,2,,,,,,,,0,50,64
54540,note_on,60,0,2,,,,,,,,0,68,0
54600,note_on,0,0,2,,,,,,,,0,50,0
54600,note_on,0,0,1,,,,,,,,0,52,64
54600,note_on,0,0,2,,,,,,,,0,64,64
54600,note_on,0,0,2,,,,,,,,0,52,64
54600,note_on,60,0,2,,,,,,,,0,66,0
54600,note_on,60,0,1,,,,,,,,0,66,0
54600,note_on,0,0,1,,,,,,,,0,50,0
54600,note_on,0,0,1,,,,,,,,0,64,64
54660,note_on,0,0,1,,,,,,,,0,52,0
54660,note_on,0,0,2,,,,,,,,0,52,0
54660,note_on,0,0,2,,,,,,,,0,74,64
54660,note_on,0,0,2,,,,,,,,0,54,64
54660,note_on,60,0,1,,,,,,,,0,64,0
54660,note_on,60,0,2,,,,,,,,0,64,0
54660,note_on,0,0,1,,,,,,,,0,54,64
54660,note_on,0,0,1,,,,,,,,0,74,64
54720,note_on,0,0,1,,,,,,,,0,54,0
54720,note_on,0,0,2,,,,,,,,0,55,64
54720,note_on,0,0,2,,,,,,,,0,73,64
54720,note_on,0,0,2,,,,,,,,0,54,0
54720,note_on,60,0,2,,,,,,,,0,74,0
54720,note_on,0,0,1,,,,,,,,0,73,64
54720,note_on,0,0,1,,,,,,,,0,55,64
54720,note_on,60,0,1,,,,,,,,0,74,0
54780,note_on,0,0,2,,,,,,,,0,75,64
54780,note_on,60,0,2,,,,,,,,0,73,0
54780,note_on,60,0,1,,,,,,,,0,73,0
54780,note_on,0,0,1,,,,,,,,0,75,64
54840,note_on,0,0,2,,,,,,,,0,76,64
54840,note_on,60,0,1,,,,,,,,0,75,0
54840,note_on,0,0,1,,,,,,,,0,54,64
54840,note_on,60,0,2,,,,,,,,0,75,0
54840,note_on,0,0,1,,,,,,,,0,55,0
54840,note_on,0,0,2,,,,,,,,0,55,0
54840,note_on,0,0,2,,,,,,,,0,54,64
54840,note_on,0,0,1,,,,,,,,0,76,64
54900,note_on,60,0,1,,,,,,,,0,76,0
54900,note_on,0,0,1,,,,,,,,0,78,64
54900,note_on,60,0,2,,,,,,,,0,76,0
54900,note_on,0,0,2,,,,,,,,0,78,64
54960,note_on,0,0,2,,,,,,,,0,52,64
54960,note_on,0,0,2,,,,,,,,0,54,0
54960,note_on,60,0,2,,,,,,,,0,78,0
54960,note_on,0,0,2,,,,,,,,0,79,64
54960,note_on,0,0,1,,,,,,,,0,79,64
54960,note_on,0,0,1,,,,,,,,0,52,64
54960,note_on,0,0,1,,,,,,,,0,54,0
54960,note_on,60,0,1,,,,,,,,0,78,0
55020,note_on,0,0,2,,,,,,,,0,76,64
55020,note_on,0,0,1,,,,,,,,0,76,64
55020,note_on,60,0,1,,,,,,,,0,79,0
55020,note_on,60,0,2,,,,,,,,0,79,0
55080,note_on,0,0,1,,,,,,,,0,52,0
55080,note_on,0,0,2,,,,,,,,0,78,64
55080,note_on,60,0,1,,,,,,,,0,76,0
55080,note_on,0,0,1,,,,,,,,0,51,64
55080,note_on,0,0,1,,,,,,,,0,78,64
55080,note_on,60,0,2,,,,,,,,0,76,0
55080,note_on,0,0,2,,,,,,,,0,52,0
55080,note_on,0,0,2,,,,,,,,0,51,64
55140,note_on,60,0,1,,,,,,,,0,78,0
55140,note_on,60,0,2,,,,,,,,0,78,0
55140,note_on,0,0,1,,,,,,,,0,76,64
55140,note_on,0,0,2,,,,,,,,0,76,64
55200,note_on,0,0,2,,,,,,,,0,51,0
55200,note_on,0,0,1,,,,,,,,0,75,64
55200,note_on,0,0,1,,,,,,,,0,51,0
55200,note_on,60,0,1,,,,,,,,0,76,0
55200,note_on,60,0,2,,,,,,,,0,76,0
55200,note_on,0,0,2,,,,,,,,0,75,64
55200,note_on,0,0,2,,,,,,,,0,47,64
55200,note_on,0,0,1,,,,,,,,0,47,64
55260,note_on,0,0,1,,,,,,,,0,73,64
55260,note_on,60,0,2,,,,,,,,0,75,0
55260,note_on,0,0,2,,,,,,,,0,73,64
55260,note_on,60,0,1,,,,,,,,0,75,0
55320,note_on,0,0,2,,,,,,,,0,51,64
55320,note_on,60,0,2,,,,,,,,0,73,0
55320,note_on,0,0,1,,,,,,,,0,71,64
55320,note_on,60,0,1,,,,,,,,0,73,0
55320,note_on,0,0,1,,,,,,,,0,47,0
55320,note_on,0,0,1,,,,,,,,0,51,64
55320,note_on,0,0,2,,,,,,,,0,71,64
55320,note_on,0,0,2,,,,,,,,0,47,0
55380,note_on,60,0,1,,,,,,,,0,71,0
55380,note_on,0,0,2,,,,,,,,0,69,64
55380,note_on,60,0,2,,,,,,,,0,71,0
55380,note_on,0,0,1,,,,,,,,0,69,64
55440,note_on,0,0,1,,,,,,,,0,67,64
55440,note_on,60,0,2,,,,,,,,0,69,0
55440,note_on,0,0,1,,,,,,,,0,51,0
55440,note_on,0,0,2,,,,,,,,0,51,0
55440,note_on,0,0,2,,,,,,,,0,52,64
55440,note_on,0,0,2,,,,,,,,0,67,64
55440,note_on,0,0,1,,,,,,,,0,52,64
55440,note_on,60,0,1,,,,,,,,0,69,0
55560,note_on,0,0,2,,,,,,,,0,45,64
55560,note_on,120,0,1,,,,,,,,0,52,0
55560,note_on,0,0,1,,,,,,,,0,67,0
55560,note_on,0,0,1,,,,,,,,0,69,64
55560,note_on,0,0,1,,,,,,,,0,45,64
55560,note_on,120,0,2,,,,,,,,0,52,0
55560,note_on,0,0,2,,,,,,,,0,69,64
55560,note_on,0,0,2,,,,,,,,0,67,0
55580,note_on,0,0,2,,,,,,,,0,67,64
55580,note_on,20,0,2,,,,,,,,0,69,0
55580,note_on,20,0,1,,,,,,,,0,69,0
55580,note_on,0,0,1,,,,,,,,0,67,64
55600,note_on,0,0,2,,,,,,,,0,69,64
55600,note_on,20,0,2,,,,,,,,0,67,0
55600,note_on,20,0,1,,,,,,,,0,67,0
55600,note_on,0,0,1,,,,,,,,0,69,64
55680,note_on,0,0,1,,,,,,,,0,67,64
55680,note_on,0,0,1,,,,,,,,0,47,64
55680,note_on,0,0,2,,,,,,,,0,67,64
55680,note_on,80,0,2,,,,,,,,0,69,0
55680,note_on,0,0,2,,,,,,,,0,45,0
55680,note_on,80,0,1,,,,,,,,0,69,0
55680,note_on,0,0,2,,,,,,,,0,47,64
55680,note_on,0,0,1,,,,,,,,0,45,0
55700,note_on,20,0,1,,,,,,,,0,67,0
55700,note_on,0,0,1,,,,,,,,0,66,64
55700,note_on,20,0,2,,,,,,,,0,67,0
55700,note_on,0,0,2,,,,,,,,0,66,64
55720,note_on,0,0,2,,,,,,,,0,64,64
55720,note_on,20,0,2,,,,,,,,0,66,0
55720,note_on,20,0,1,,,,,,,,0,66,0
55720,note_on,0,0,1,,,,,,,,0,64,64
55740,note_on,20,0,2,,,,,,,,0,64,0
55740,note_on,0,0,2,,,,,,,,0,66,64
55740,note_on,20,0,1,,,,,,,,0,64,0
55740,note_on,0,0,1,,,,,,,,0,66,64
55800,note_on,60,0,2,,,,,,,,0,66,0
55800,note_on,0,0,2,,,,,,,,0,47,0
55800,note_on,0,0,2,,,,,,,,0,40,64
55800,note_on,60,0,1,,,,,,,,0,66,0
55800,note_on,0,0,2,,,,,,,,0,64,64
55800,note_on,0,0,1,,,,,,,,0,47,0
55800,note_on,0,0,1,,,,,,,,0,40,64
55800,note_on,0,0,1,,,,,,,,0,64,64
56160,note_on,0,0,1,,,,,,,,0,78,64
56160,note_on,360,0,2,,,,,,,,0,64,0
56160,note_on,0,0,1,,,,,,,,0,40,0
56160,note_on,360,0,1,,,,,,,,0,64,0
56160,note_on,0,0,2,,,,,,,,0,40,0
56160,note_on,0,0,2,,,,,,,,0,78,64
56220,note_on,60,0,1,,,,,,,,0,59,64
56220,note_on,60,0,2,,,,,,,,0,59,64
56280,note_on,60,0,1,,,,,,,,0,59,0
56280,note_on,0,0,1,,,,,,,,0,57,64
56280,note_on,0,0,2,,,,,,,,0,57,64
56280,note_on,60,0,2,,,,,,,,0,59,0
56340,note_on,60,0,1,,,,,,,,0,57,0
56340,note_on,0,0,1,,,,,,,,0,55,64
56340,note_on,0,0,2,,,,,,,,0,55,64
56340,note_on,60,0,2,,,,,,,,0,57,0
56400,note_on,60,0,1,,,,,,,,0,55,0
56400,note_on,0,0,2,,,,,,,,0,54,64
56400,note_on,60,0,2,,,,,,,,0,55,0
56400,note_on,0,0,1,,,,,,,,0,54,64
56460,note_on,60,0,1,,,,,,,,0,54,0
56460,note_on,0,0,1,,,,,,,,0,57,64
56460,note_on,0,0,2,,,,,,,,0,57,64
56460,note_on,60,0,2,,,,,,,,0,54,0
56520,note_on,0,0,2,,,,,,,,0,55,64
56520,note_on,60,0,1,,,,,,,,0,57,0
56520,note_on,60,0,2,,,,,,,,0,57,0
56520,note_on,0,0,1,,,,,,,,0,55,64
56580,note_on,0,0,2,,,,,,,,0,59,64
56580,note_on,60,0,1,,,,,,,,0,55,0
56580,note_on,60,0,2,,,,,,,,0,55,0
56580,note_on,0,0,1,,,,,,,,0,59,64
56640,note_on,60,0,2,,,,,,,,0,59,0
56640,note_on,0,0,2,,,,,,,,0,78,0
56640,note_on,60,0,1,,,,,,,,0,59,0
56640,note_on,0,0,1,,,,,,,,0,78,0
56640,note_on,0,0,1,,,,,,,,0,76,64
56640,note_on,0,0,1,,,,,,,,0,61,64
56640,note_on,0,0,2,,,,,,,,0,61,64
56640,note_on,0,0,2,,,,,,,,0,76,64
56700,note_on,60,0,2,,,,,,,,0,61,0
56700,note_on,0,0,1,,,,,,,,0,76,0
56700,note_on,60,0,1,,,,,,,,0,61,0
56700,note_on,0,0,2,,,,,,,,0,62,64
56700,note_on,0,0,2,,,,,,,,0,78,64
56700,note_on,0,0,2,,,,,,,,0,76,0
56700,note_on,0,0,1,,,,,,,,0,62,64
56700,note_on,0,0,1,,,,,,,,0,78,64
56760,note_on,0,0,2,,,,,,,,0,79,64
56760,note_on,0,0,2,,,,,,,,0,78,0
56760,note_on,60,0,2,,,,,,,,0,62,0
56760,note_on,0,0,1,,,,,,,,0,78,0
56760,note_on,60,0,1,,,,,,,,0,62,0
56760,note_on,0,0,1,,,,,,,,0,79,64
56760,note_on,0,0,1,,,,,,,,0,64,64
56760,note_on,0,0,2,,,,,,,,0,64,64
56820,note_on,60,0,2,,,,,,,,0,64,0
56820,note_on,0,0,2,,,,,,,,0,57,64
56820,note_on,60,0,1,,,,,,,,0,64,0
56820,note_on,0,0,1,,,,,,,,0,57,64
56880,note_on,0,0,2,,,,,,,,0,62,64
56880,note_on,0,0,1,,,,,,,,0,79,0
56880,note_on,60,0,2,,,,,,,,0,57,0
56880,note_on,0,0,2,,,,,,,,0,78,64
56880,note_on,0,0,1,,,,,,,,0,78,64
56880,note_on,0,0,1,,,,,,,,0,62,64
56880,note_on,60,0,1,,,,,,,,0,57,0
56880,note_on,0,0,2,,,,,,,,0,79,0
56940,note_on,60,0,1,,,,,,,,0,62,0
56940,note_on,0,0,2,,,,,,,,0,55,64
56940,note_on,60,0,2,,,,,,,,0,62,0
56940,note_on,0,0,1,,,,,,,,0,55,64
56990,note_on,50,0,2,,,,,,,,0,78,0
56990,note_on,50,0,1,,,,,,,,0,78,0
57000,note_on,10,0,2,,,,,,,,0,55,0
57000,note_on,0,0,1,,,,,,,,0,78,64
57000,note_on,0,0,2,,,,,,,,0,57,64
57000,note_on,0,0,2,,,,,,,,0,78,64
57000,note_on,0,0,1,,,,,,,,0,57,64
57000,note_on,10,0,1,,,,,,,,0,55,0
57015,note_on,0,0,1,,,,,,,,0,76,64
57015,note_on,15,0,1,,,,,,,,0,78,0
57015,note_on,0,0,2,,,,,,,,0,76,64
57015,note_on,15,0,2,,,,,,,,0,78,0
57030,note_on,0,0,2,,,,,,,,0,78,64
57030,note_on,15,0,1,,,,,,,,0,76,0
57030,note_on,15,0,2,,,,,,,,0,76,0
57030,note_on,0,0,1,,,,,,,,0,78,64
57045,note_on,0,0,1,,,,,,,,0,76,64
57045,note_on,15,0,2,,,,,,,,0,78,0
57045,note_on,0,0,2,,,,,,,,0,76,64
57045,note_on,15,0,1,,,,,,,,0,78,0
57060,note_on,15,0,1,,,,,,,,0,76,0
57060,note_on,0,0,2,,,,,,,,0,78,64
57060,note_on,0,0,2,,,,,,,,0,59,64
57060,note_on,0,0,1,,,,,,,,0,57,0
57060,note_on,0,0,1,,,,,,,,0,59,64
57060,note_on,0,0,1,,,,,,,,0,78,64
57060,note_on,0,0,2,,,,,,,,0,57,0
57060,note_on,15,0,2,,,,,,,,0,76,0
57075,note_on,0,0,1,,,,,,,,0,76,64
57075,note_on,0,0,2,,,,,,,,0,76,64
57075,note_on,15,0,2,,,,,,,,0,78,0
57075,note_on,0,0,2,,,,,,,,0,76,64
57075,note_on,15,0,1,,,,,,,,0,78,0
57075,note_on,0,0,1,,,,,,,,0,76,64
57090,note_on,15,0,1,,,,,,,,0,76,0
57090,note_on,15,0,2,,,,,,,,0,76,0
57120,note_on,0,0,1,,,,,,,,0,69,64
57120,note_on,0,0,1,,,,,,,,0,59,0
57120,note_on,30,0,1,,,,,,,,0,76,0
57120,note_on,30,0,2,,,,,,,,0,76,0
57120,note_on,0,0,2,,,,,,,,0,59,0
57120,note_on,0,0,2,,,,,,,,0,69,64
57120,note_on,0,0,2,,,,,,,,0,60,64
57120,note_on,0,0,1,,,,,,,,0,60,64
57180,note_on,60,0,2,,,,,,,,0,60,0
57180,note_on,0,0,1,,,,,,,,0,54,64
57180,note_on,0,0,2,,,,,,,,0,54,64
57180,note_on,60,0,1,,,,,,,,0,60,0
57240,note_on,0,0,2,,,,,,,,0,74,64
57240,note_on,0,0,2,,,,,,,,0,69,0
57240,note_on,0,0,2,,,,,,,,0,59,64
57240,note_on,0,0,1,,,,,,,,0,74,64
57240,note_on,0,0,1,,,,,,,,0,69,0
57240,note_on,60,0,1,,,,,,,,0,54,0
57240,note_on,60,0,2,,,,,,,,0,54,0
57240,note_on,0,0,1,,,,,,,,0,59,64
57300,note_on,0,0,1,,,,,,,,0,52,64
57300,note_on,0,0,2,,,,,,,,0,52,64
57300,note_on,60,0,1,,,,,,,,0,59,0
57300,note_on,60,0,2,,,,,,,,0,59,0
57360,note_on,0,0,2,,,,,,,,0,54,64
57360,note_on,0,0,2,,,,,,,,0,72,64
57360,note_on,0,0,2,,,,,,,,0,74,0
57360,note_on,60,0,2,,,,,,,,0,52,0
57360,note_on,60,0,1,,,,,,,,0,52,0
57360,note_on,0,0,1,,,,,,,,0,72,64
57360,note_on,0,0,1,,,,,,,,0,74,0
57360,note_on,0,0,1,,,,,,,,0,54,64
57420,note_on,0,0,2,,,,,,,,0,71,64
57420,note_on,0,0,2,,,,,,,,0,55,64
57420,note_on,0,0,1,,,,,,,,0,55,64
57420,note_on,60,0,1,,,,,,,,0,54,0
57420,note_on,0,0,1,,,,,,,,0,72,0
57420,note_on,0,0,2,,,,,,,,0,72,0
57420,note_on,0,0,1,,,,,,,,0,71,64
57420,note_on,60,0,2,,,,,,,,0,54,0
57480,note_on,60,0,1,,,,,,,,0,55,0
57480,note_on,0,0,1,,,,,,,,0,71,0
57480,note_on,0,0,1,,,,,,,,0,72,64
57480,note_on,60,0,2,,,,,,,,0,55,0
57480,note_on,0,0,2,,,,,,,,0,71,0
57480,note_on,0,0,2,,,,,,,,0,72,64
57480,note_on,0,0,2,,,,,,,,0,57,64
57480,note_on,0,0,1,,,,,,,,0,57,64
57540,note_on,60,0,2,,,,,,,,0,57,0
57540,note_on,0,0,2,,,,,,,,0,51,64
57540,note_on,0,0,1,,,,,,,,0,51,64
57540,note_on,60,0,1,,,,,,,,0,57,0
57600,note_on,60,0,2,,,,,,,,0,51,0
57600,note_on,0,0,2,,,,,,,,0,55,64
57600,note_on,0,0,1,,,,,,,,0,55,64
57600,note_on,60,0,1,,,,,,,,0,51,0
57660,note_on,0,0,2,,,,,,,,0,71,64
57660,note_on,60,0,1,,,,,,,,0,72,0
57660,note_on,60,0,2,,,,,,,,0,72,0
57660,note_on,0,0,1,,,,,,,,0,71,64
57720,note_on,60,0,1,,,,,,,,0,71,0
57720,note_on,0,0,2,,,,,,,,0,69,64
57720,note_on,0,0,2,,,,,,,,0,55,0
57720,note_on,60,0,2,,,,,,,,0,71,0
57720,note_on,0,0,2,,,,,,,,0,57,64
57720,note_on,0,0,1,,,,,,,,0,55,0
57720,note_on,0,0,1,,,,,,,,0,69,64
57720,note_on,0,0,1,,,,,,,,0,57,64
57780,note_on,60,0,1,,,,,,,,0,69,0
57780,note_on,60,0,2,,,,,,,,0,69,0
57780,note_on,0,0,1,,,,,,,,0,67,64
57780,note_on,0,0,2,,,,,,,,0,67,64
57840,note_on,0,0,2,,,,,,,,0,66,64
57840,note_on,60,0,2,,,,,,,,0,67,0
57840,note_on,0,0,1,,,,,,,,0,66,64
57840,note_on,0,0,1,,,,,,,,0,59,64
57840,note_on,0,0,2,,,,,,,,0,57,0
57840,note_on,60,0,1,,,,,,,,0,67,0
57840,note_on,0,0,2,,,,,,,,0,59,64
57840,note_on,0,0,1,,,,,,,,0,57,0
57900,note_on,0,0,1,,,,,,,,0,69,64
57900,note_on,60,0,1,,,,,,,,0,66,0
57900,note_on,0,0,2,,,,,,,,0,69,64
57900,note_on,60,0,2,,,,,,,,0,66,0
57960,note_on,0,0,1,,,,,,,,0,59,0
57960,note_on,60,0,1,,,,,,,,0,69,0
57960,note_on,0,0,2,,,,,,,,0,52,64
57960,note_on,0,0,2,,,,,,,,0,59,0
57960,note_on,0,0,1,,,,,,,,0,52,64
57960,note_on,0,0,1,,,,,,,,0,67,64
57960,note_on,60,0,2,,,,,,,,0,69,0
57960,note_on,0,0,2,,,,,,,,0,67,64
58020,note_on,0,0,1,,,,,,,,0,71,64
58020,note_on,60,0,2,,,,,,,,0,67,0
58020,note_on,0,0,2,,,,,,,,0,71,64
58020,note_on,60,0,1,,,,,,,,0,67,0
58080,note_on,0,0,1,,,,,,,,0,52,0
58080,note_on,60,0,2,,,,,,,,0,71,0
58080,note_on,60,0,1,,,,,,,,0,71,0
58080,note_on,0,0,2,,,,,,,,0,52,0
58080,note_on,0,0,2,,,,,,,,0,72,64
58080,note_on,0,0,2,,,,,,,,0,50,64
58080,note_on,0,0,1,,,,,,,,0,50,64
58080,note_on,0,0,1,,,,,,,,0,72,64
58140,note_on,60,0,2,,,,,,,,0,72,0
58140,note_on,60,0,1,,,,,,,,0,72,0
58140,note_on,0,0,1,,,,,,,,0,74,64
58140,note_on,0,0,2,,,,,,,,0,74,64
58200,note_on,60,0,1,,,,,,,,0,74,0
58200,note_on,0,0,1,,,,,,,,0,50,0
58200,note_on,0,0,1,,,,,,,,0,48,64
58200,note_on,0,0,2,,,,,,,,0,76,64
58200,note_on,0,0,2,,,,,,,,0,48,64
58200,note_on,0,0,2,,,,,,,,0,50,0
58200,note_on,60,0,2,,,,,,,,0,74,0
58200,note_on,0,0,1,,,,,,,,0,76,64
58260,note_on,0,0,1,,,,,,,,0,69,64
58260,note_on,60,0,1,,,,,,,,0,76,0
58260,note_on,0,0,2,,,,,,,,0,69,64
58260,note_on,60,0,2,,,,,,,,0,76,0
58320,note_on,0,0,2,,,,,,,,0,48,0
58320,note_on,0,0,2,,,,,,,,0,74,64
58320,note_on,60,0,2,,,,,,,,0,69,0
58320,note_on,0,0,1,,,,,,,,0,47,64
58320,note_on,0,0,1,,,,,,,,0,74,64
58320,note_on,60,0,1,,,,,,,,0,69,0
58320,note_on,0,0,1,,,,,,,,0,48,0
58320,note_on,0,0,2,,,,,,,,0,47,64
58380,note_on,60,0,1,,,,,,,,0,74,0
58380,note_on,0,0,2,,,,,,,,0,68,64
58380,note_on,0,0,1,,,,,,,,0,68,64
58380,note_on,60,0,2,,,,,,,,0,74,0
58440,note_on,0,0,1,,,,,,,,0,69,64
58440,note_on,0,0,1,,,,,,,,0,47,0
58440,note_on,0,0,1,,,,,,,,0,40,64
58440,note_on,60,0,1,,,,,,,,0,68,0
58440,note_on,60,0,2,,,,,,,,0,68,0
58440,note_on,0,0,2,,,,,,,,0,47,0
58440,note_on,0,0,2,,,,,,,,0,40,64
58440,note_on,0,0,2,,,,,,,,0,69,64
58500,note_on,0,0,1,,,,,,,,0,71,64
58500,note_on,60,0,2,,,,,,,,0,69,0
58500,note_on,60,0,1,,,,,,,,0,69,0
58500,note_on,0,0,2,,,,,,,,0,71,64
58560,note_on,0,0,1,,,,,,,,0,72,64
58560,note_on,0,0,1,,,,,,,,0,40,0
58560,note_on,0,0,1,,,,,,,,0,45,64
58560,note_on,0,0,2,,,,,,,,0,72,64
58560,note_on,0,0,2,,,,,,,,0,40,0
58560,note_on,60,0,2,,,,,,,,0,71,0
58560,note_on,60,0,1,,,,,,,,0,71,0
58560,note_on,0,0,2,,,,,,,,0,45,64
58620,note_on,60,0,1,,,,,,,,0,72,0
58620,note_on,0,0,1,,,,,,,,0,66,64
58620,note_on,0,0,2,,,,,,,,0,66,64
58620,note_on,60,0,2,,,,,,,,0,72,0
58680,note_on,0,0,2,,,,,,,,0,45,0
58680,note_on,0,0,2,,,,,,,,0,71,64
58680,note_on,0,0,2,,,,,,,,0,38,64
58680,note_on,0,0,1,,,,,,,,0,71,64
58680,note_on,0,0,1,,,,,,,,0,45,0
58680,note_on,60,0,1,,,,,,,,0,66,0
58680,note_on,60,0,2,,,,,,,,0,66,0
58680,note_on,0,0,1,,,,,,,,0,38,64
58740,note_on,60,0,1,,,,,,,,0,38,0
58740,note_on,0,0,1,,,,,,,,0,64,64
58740,note_on,0,0,1,,,,,,,,0,71,0
58740,note_on,0,0,2,,,,,,,,0,36,64
58740,note_on,0,0,2,,,,,,,,0,64,64
58740,note_on,60,0,2,,,,,,,,0,38,0
58740,note_on,0,0,2,,,,,,,,0,71,0
58740,note_on,0,0,1,,,,,,,,0,36,64
58800,note_on,60,0,2,,,,,,,,0,36,0
58800,note_on,0,0,2,,,,,,,,0,38,64
58800,note_on,0,0,2,,,,,,,,0,66,64
58800,note_on,0,0,2,,,,,,,,0,64,0
58800,note_on,0,0,1,,,,,,,,0,38,64
58800,note_on,60,0,1,,,,,,,,0,36,0
58800,note_on,0,0,1,,,,,,,,0,64,0
58800,note_on,0,0,1,,,,,,,,0,66,64
58860,note_on,0,0,2,,,,,,,,0,66,0
58860,note_on,60,0,2,,,,,,,,0,38,0
58860,note_on,0,0,2,,,,,,,,0,40,64
58860,note_on,60,0,1,,,,,,,,0,38,0
58860,note_on,0,0,1,,,,,,,,0,66,0
58860,note_on,0,0,1,,,,,,,,0,68,64
58860,note_on,0,0,1,,,,,,,,0,40,64
58860,note_on,0,0,2,,,,,,,,0,68,64
58920,note_on,60,0,2,,,,,,,,0,40,0
58920,note_on,0,0,2,,,,,,,,0,68,0
58920,note_on,0,0,1,,,,,,,,0,69,64
58920,note_on,0,0,1,,,,,,,,0,41,64
58920,note_on,0,0,1,,,,,,,,0,68,0
58920,note_on,60,0,1,,,,,,,,0,40,0
58920,note_on,0,0,2,,,,,,,,0,69,64
58920,note_on,0,0,2,,,,,,,,0,41,64
58980,note_on,0,0,1,,,,,,,,0,63,64
58980,note_on,60,0,1,,,,,,,,0,69,0
58980,note_on,0,0,2,,,,,,,,0,63,64
58980,note_on,60,0,2,,,,,,,,0,69,0
59040,note_on,0,0,1,,,,,,,,0,40,64
59040,note_on,0,0,2,,,,,,,,0,68,64
59040,note_on,0,0,2,,,,,,,,0,40,64
59040,note_on,60,0,2,,,,,,,,0,63,0
59040,note_on,0,0,2,,,,,,,,0,41,0
59040,note_on,60,0,1,,,,,,,,0,63,0
59040,note_on,0,0,1,,,,,,,,0,41,0
59040,note_on,0,0,1,,,,,,,,0,68,64
59100,note_on,60,0,1,,,,,,,,0,40,0
59100,note_on,0,0,2,,,,,,,,0,52,64
59100,note_on,60,0,2,,,,,,,,0,40,0
59100,note_on,0,0,1,,,,,,,,0,52,64
59160,note_on,0,0,1,,,,,,,,0,68,0
59160,note_on,0,0,2,,,,,,,,0,68,0
59160,note_on,60,0,1,,,,,,,,0,52,0
59160,note_on,0,0,2,,,,,,,,0,50,64
59160,note_on,0,0,1,,,,,,,,0,50,64
59160,note_on,0,0,1,,,,,,,,0,71,64
59160,note_on,60,0,2,,,,,,,,0,52,0
59160,note_on,0,0,2,,,,,,,,0,71,64
59180,note_on,0,0,2,,,,,,,,0,69,64
59180,note_on,0,0,1,,,,,,,,0,69,64
59180,note_on,20,0,1,,,,,,,,0,71,0
59180,note_on,20,0,2,,,,,,,,0,71,0
59200,note_on,20,0,2,,,,,,,,0,69,0
59200,note_on,0,0,2,,,,,,,,0,68,64
59200,note_on,20,0,1,,,,,,,,0,69,0
59200,note_on,0,0,1,,,,,,,,0,68,64
59220,note_on,0,0,1,,,,,,,,0,48,64
59220,note_on,0,0,1,,,,,,,,0,69,64
59220,note_on,0,0,1,,,,,,,,0,50,0
59220,note_on,20,0,1,,,,,,,,0,68,0
59220,note_on,0,0,2,,,,,,,,0,48,64
59220,note_on,20,0,2,,,,,,,,0,68,0
59220,note_on,0,0,2,,,,,,,,0,50,0
59220,note_on,0,0,2,,,,,,,,0,69,64
59280,note_on,60,0,2,,,,,,,,0,48,0
59280,note_on,0,0,2,,,,,,,,0,71,64
59280,note_on,0,0,2,,,,,,,,0,69,0
59280,note_on,0,0,1,,,,,,,,0,47,64
59280,note_on,0,0,1,,,,,,,,0,71,64
59280,note_on,60,0,1,,,,,,,,0,48,0
59280,note_on,0,0,1,,,,,,,,0,69,0
59280,note_on,0,0,2,,,,,,,,0,47,64
59340,note_on,60,0,1,,,,,,,,0,47,0
59340,note_on,0,0,1,,,,,,,,0,50,64
59340,note_on,60,0,2,,,,,,,,0,47,0
59340,note_on,0,0,2,,,,,,,,0,50,64
59400,note_on,0,0,1,,,,,,,,0,48,64
59400,note_on,0,0,1,,,,,,,,0,64,64
59400,note_on,0,0,1,,,,,,,,0,71,0
59400,note_on,60,0,1,,,,,,,,0,50,0
59400,note_on,0,0,2,,,,,,,,0,71,0
59400,note_on,60,0,2,,,,,,,,0,50,0
59400,note_on,0,0,2,,,,,,,,0,64,64
59400,note_on,0,0,2,,,,,,,,0,48,64
59460,note_on,60,0,1,,,,,,,,0,64,0
59460,note_on,0,0,2,,,,,,,,0,76,64
59460,note_on,60,0,2,,,,,,,,0,64,0
59460,note_on,0,0,1,,,,,,,,0,76,64
59520,note_on,0,0,2,,,,,,,,0,74,64
59520,note_on,0,0,2,,,,,,,,0,52,64
59520,note_on,0,0,2,,,,,,,,0,48,0
59520,note_on,60,0,2,,,,,,,,0,76,0
59520,note_on,60,0,1,,,,,,,,0,76,0
59520,note_on,0,0,1,,,,,,,,0,52,64
59520,note_on,0,0,1,,,,,,,,0,48,0
59520,note_on,0,0,1,,,,,,,,0,74,64
59540,note_on,0,0,2,,,,,,,,0,50,64
59540,note_on,20,0,1,,,,,,,,0,52,0
59540,note_on,0,0,1,,,,,,,,0,50,64
59540,note_on,20,0,2,,,,,,,,0,52,0
59560,note_on,0,0,2,,,,,,,,0,48,64
59560,note_on,20,0,1,,,,,,,,0,50,0
59560,note_on,0,0,1,,,,,,,,0,48,64
59560,note_on,20,0,2,,,,,,,,0,50,0
59580,note_on,20,0,1,,,,,,,,0,48,0
59580,note_on,0,0,1,,,,,,,,0,74,0
59580,note_on,0,0,1,,,,,,,,0,50,64
59580,note_on,0,0,1,,,,,,,,0,72,64
59580,note_on,20,0,2,,,,,,,,0,48,0
59580,note_on,0,0,2,,,,,,,,0,50,64
59580,note_on,0,0,2,,,,,,,,0,72,64
59580,note_on,0,0,2,,,,,,,,0,74,0
59640,note_on,0,0,2,,,,,,,,0,71,64
59640,note_on,0,0,2,,,,,,,,0,52,64
59640,note_on,0,0,2,,,,,,,,0,50,0
59640,note_on,60,0,2,,,,,,,,0,72,0
59640,note_on,60,0,1,,,,,,,,0,72,0
59640,note_on,0,0,1,,,,,,,,0,52,64
59640,note_on,0,0,1,,,,,,,,0,71,64
59640,note_on,0,0,1,,,,,,,,0,50,0
59700,note_on,0,0,1,,,,,,,,0,74,64
59700,note_on,0,0,2,,,,,,,,0,74,64
59700,note_on,60,0,2,,,,,,,,0,71,0
59700,note_on,60,0,1,,,,,,,,0,71,0
59760,note_on,0,0,1,,,,,,,,0,45,64
59760,note_on,0,0,1,,,,,,,,0,72,64
59760,note_on,0,0,1,,,,,,,,0,52,0
59760,note_on,60,0,1,,,,,,,,0,74,0
59760,note_on,0,0,2,,,,,,,,0,45,64
59760,note_on,0,0,2,,,,,,,,0,72,64
59760,note_on,0,0,2,,,,,,,,0,52,0
59760,note_on,60,0,2,,,,,,,,0,74,0
59820,note_on,0,0,2,,,,,,,,0,57,64
59820,note_on,0,0,1,,,,,,,,0,57,64
59820,note_on,60,0,1,,,,,,,,0,45,0
59820,note_on,60,0,2,,,,,,,,0,45,0
59880,note_on,0,0,1,,,,,,,,0,72,0
59880,note_on,60,0,2,,,,,,,,0,57,0
59880,note_on,0,0,2,,,,,,,,0,55,64
59880,note_on,0,0,2,,,,,,,,0,76,64
59880,note_on,0,0,1,,,,,,,,0,76,64
59880,note_on,0,0,2,,,,,,,,0,72,0
59880,note_on,60,0,1,,,,,,,,0,57,0
59880,note_on,0,0,1,,,,,,,,0,55,64
59900,note_on,0,0,2,,,,,,,,0,74,64
59900,note_on,0,0,1,,,,,,,,0,74,64
59900,note_on,20,0,1,,,,,,,,0,76,0
59900,note_on,20,0,2,,,,,,,,0,76,0
59920,note_on,0,0,1,,,,,,,,0,72,64
59920,note_on,20,0,1,,,,,,,,0,74,0
59920,note_on,0,0,2,,,,,,,,0,72,64
59920,note_on,20,0,2,,,,,,,,0,74,0
59940,note_on,0,0,1,,,,,,,,0,55,0
59940,note_on,0,0,1,,,,,,,,0,74,64
59940,note_on,20,0,1,,,,,,,,0,72,0
59940,note_on,0,0,2,,,,,,,,0,55,0
59940,note_on,0,0,1,,,,,,,,0,53,64
59940,note_on,20,0,2,,,,,,,,0,72,0
59940,note_on,0,0,2,,,,,,,,0,74,64
59940,note_on,0,0,2,,,,,,,,0,53,64
60000,note_on,0,0,2,,,,,,,,0,52,64
60000,note_on,0,0,2,,,,,,,,0,76,64
60000,note_on,0,0,2,,,,,,,,0,74,0
60000,note_on,60,0,1,,,,,,,,0,53,0
60000,note_on,0,0,1,,,,,,,,0,74,0
60000,note_on,0,0,1,,,,,,,,0,76,64
60000,note_on,0,0,1,,,,,,,,0,52,64
60000,note_on,60,0,2,,,,,,,,0,53,0
60060,note_on,0,0,2,,,,,,,,0,55,64
60060,note_on,60,0,2,,,,,,,,0,52,0
60060,note_on,0,0,1,,,,,,,,0,55,64
60060,note_on,60,0,1,,,,,,,,0,52,0
60120,note_on,0,0,1,,,,,,,,0,53,64
60120,note_on,0,0,1,,,,,,,,0,69,64
60120,note_on,0,0,1,,,,,,,,0,76,0
60120,note_on,60,0,1,,,,,,,,0,55,0
60120,note_on,0,0,2,,,,,,,,0,53,64
60120,note_on,0,0,2,,,,,,,,0,69,64
60120,note_on,0,0,2,,,,,,,,0,76,0
60120,note_on,60,0,2,,,,,,,,0,55,0
60180,note_on,0,0,1,,,,,,,,0,81,64
60180,note_on,0,0,2,,,,,,,,0,81,64
60180,note_on,60,0,2,,,,,,,,0,69,0
60180,note_on,60,0,1,,,,,,,,0,69,0
60240,note_on,0,0,2,,,,,,,,0,55,64
60240,note_on,0,0,2,,,,,,,,0,79,64
60240,note_on,0,0,2,,,,,,,,0,53,0
60240,note_on,60,0,2,,,,,,,,0,81,0
60240,note_on,0,0,1,,,,,,,,0,53,0
60240,note_on,60,0,1,,,,,,,,0,81,0
60240,note_on,0,0,1,,,,,,,,0,55,64
60240,note_on,0,0,1,,,,,,,,0,79,64
60300,note_on,0,0,1,,,,,,,,0,77,64
60300,note_on,60,0,1,,,,,,,,0,79,0
60300,note_on,60,0,2,,,,,,,,0,79,0
60300,note_on,0,0,2,,,,,,,,0,77,64
60360,note_on,0,0,2,,,,,,,,0,76,64
60360,note_on,0,0,2,,,,,,,,0,57,64
60360,note_on,0,0,2,,,,,,,,0,55,0
60360,note_on,60,0,2,,,,,,,,0,77,0
60360,note_on,0,0,1,,,,,,,,0,76,64
60360,note_on,0,0,1,,,,,,,,0,55,0
60360,note_on,0,0,1,,,,,,,,0,57,64
60360,note_on,60,0,1,,,,,,,,0,77,0
60420,note_on,0,0,2,,,,,,,,0,79,64
60420,note_on,60,0,2,,,,,,,,0,76,0
60420,note_on,0,0,1,,,,,,,,0,79,64
60420,note_on,60,0,1,,,,,,,,0,76,0
60480,note_on,60,0,1,,,,,,,,0,79,0
60480,note_on,0,0,1,,,,,,,,0,57,0
60480,note_on,0,0,1,,,,,,,,0,77,64
60480,note_on,0,0,1,,,,,,,,0,50,64
60480,note_on,0,0,2,,,,,,,,0,50,64
60480,note_on,60,0,2,,,,,,,,0,79,0
60480,note_on,0,0,2,,,,,,,,0,77,64
60480,note_on,0,0,2,,,,,,,,0,57,0
60540,note_on,60,0,1,,,,,,,,0,50,0
60540,note_on,0,0,1,,,,,,,,0,62,64
60540,note_on,0,0,2,,,,,,,,0,62,64
60540,note_on,60,0,2,,,,,,,,0,50,0
60600,note_on,0,0,1,,,,,,,,0,60,64
60600,note_on,60,0,2,,,,,,,,0,62,0
60600,note_on,0,0,2,,,,,,,,0,79,64
60600,note_on,0,0,2,,,,,,,,0,77,0
60600,note_on,0,0,1,,,,,,,,0,79,64
60600,note_on,0,0,1,,,,,,,,0,77,0
60600,note_on,60,0,1,,,,,,,,0,62,0
60600,note_on,0,0,2,,,,,,,,0,60,64
60660,note_on,0,0,2,,,,,,,,0,59,64
60660,note_on,0,0,1,,,,,,,,0,59,64
60660,note_on,60,0,1,,,,,,,,0,60,0
60660,note_on,60,0,2,,,,,,,,0,60,0
60720,note_on,0,0,2,,,,,,,,0,57,64
60720,note_on,60,0,2,,,,,,,,0,59,0
60720,note_on,60,0,1,,,,,,,,0,59,0
60720,note_on,0,0,1,,,,,,,,0,79,0
60720,note_on,0,0,2,,,,,,,,0,79,0
60720,note_on,0,0,1,,,,,,,,0,81,64
60720,note_on,0,0,1,,,,,,,,0,57,64
60720,note_on,0,0,2,,,,,,,,0,81,64
60780,note_on,60,0,2,,,,,,,,0,57,0
60780,note_on,0,0,2,,,,,,,,0,60,64
60780,note_on,0,0,1,,,,,,,,0,60,64
60780,note_on,60,0,1,,,,,,,,0,57,0
60840,note_on,60,0,2,,,,,,,,0,60,0
60840,note_on,0,0,2,,,,,,,,0,59,64
60840,note_on,0,0,1,,,,,,,,0,59,64
60840,note_on,60,0,1,,,,,,,,0,60,0
60900,note_on,0,0,1,,,,,,,,0,74,64
60900,note_on,60,0,1,,,,,,,,0,81,0
60900,note_on,0,0,2,,,,,,,,0,74,64
60900,note_on,60,0,2,,,,,,,,0,81,0
60960,note_on,0,0,2,,,,,,,,0,59,0
60960,note_on,0,0,2,,,,,,,,0,60,64
60960,note_on,0,0,2,,,,,,,,0,72,64
60960,note_on,60,0,1,,,,,,,,0,74,0
60960,note_on,0,0,1,,,,,,,,0,59,0
60960,note_on,0,0,1,,,,,,,,0,72,64
60960,note_on,0,0,1,,,,,,,,0,60,64
60960,note_on,60,0,2,,,,,,,,0,74,0
61020,note_on,0,0,2,,,,,,,,0,71,64
61020,note_on,60,0,1,,,,,,,,0,72,0
61020,note_on,0,0,1,,,,,,,,0,71,64
61020,note_on,60,0,2,,,,,,,,0,72,0
61080,note_on,0,0,2,,,,,,,,0,60,0
61080,note_on,0,0,2,,,,,,,,0,62,64
61080,note_on,0,0,2,,,,,,,,0,69,64
61080,note_on,0,0,1,,,,,,,,0,69,64
61080,note_on,60,0,2,,,,,,,,0,71,0
61080,note_on,0,0,1,,,,,,,,0,62,64
61080,note_on,0,0,1,,,,,,,,0,60,0
61080,note_on,60,0,1,,,,,,,,0,71,0
61140,note_on,60,0,1,,,,,,,,0,69,0
61140,note_on,0,0,2,,,,,,,,0,72,64
61140,note_on,60,0,2,,,,,,,,0,69,0
61140,note_on,0,0,1,,,,,,,,0,72,64
61200,note_on,60,0,1,,,,,,,,0,72,0
61200,note_on,60,0,2,,,,,,,,0,72,0
61200,note_on,0,0,1,,,,,,,,0,71,64
61200,note_on,0,0,2,,,,,,,,0,62,0
61200,note_on,0,0,2,,,,,,,,0,71,64
61200,note_on,0,0,1,,,,,,,,0,62,0
61260,note_on,60,0,2,,,,,,,,0,55,64
61260,note_on,60,0,1,,,,,,,,0,55,64
61320,note_on,0,0,2,,,,,,,,0,71,0
61320,note_on,0,0,1,,,,,,,,0,71,0
61320,note_on,0,0,1,,,,,,,,0,72,64
61320,note_on,0,0,1,,,,,,,,0,53,64
61320,note_on,0,0,2,,,,,,,,0,72,64
61320,note_on,0,0,2,,,,,,,,0,53,64
61320,note_on,60,0,1,,,,,,,,0,55,0
61320,note_on,60,0,2,,,,,,,,0,55,0
61380,note_on,60,0,1,,,,,,,,0,53,0
61380,note_on,0,0,1,,,,,,,,0,52,64
61380,note_on,60,0,2,,,,,,,,0,53,0
61380,note_on,0,0,2,,,,,,,,0,52,64
61440,note_on,60,0,2,,,,,,,,0,52,0
61440,note_on,0,0,2,,,,,,,,0,72,0
61440,note_on,0,0,2,,,,,,,,0,74,64
61440,note_on,0,0,2,,,,,,,,0,50,64
61440,note_on,0,0,1,,,,,,,,0,72,0
61440,note_on,0,0,1,,,,,,,,0,74,64
61440,note_on,0,0,1,,,,,,,,0,50,64
61440,note_on,60,0,1,,,,,,,,0,52,0
61500,note_on,0,0,1,,,,,,,,0,53,64
61500,note_on,60,0,1,,,,,,,,0,50,0
61500,note_on,60,0,2,,,,,,,,0,50,0
61500,note_on,0,0,2,,,,,,,,0,53,64
61560,note_on,0,0,1,,,,,,,,0,43,64
61560,note_on,60,0,1,,,,,,,,0,53,0
61560,note_on,60,0,2,,,,,,,,0,53,0
61560,note_on,0,0,2,,,,,,,,0,43,64
61620,note_on,0,0,2,,,,,,,,0,53,64
61620,note_on,0,0,1,,,,,,,,0,67,64
61620,note_on,0,0,1,,,,,,,,0,53,64
61620,note_on,0,0,1,,,,,,,,0,74,0
61620,note_on,0,0,2,,,,,,,,0,67,64
61620,note_on,60,0,1,,,,,,,,0,43,0
61620,note_on,60,0,2,,,,,,,,0,43,0
61620,note_on,0,0,2,,,,,,,,0,74,0
61680,note_on,60,0,1,,,,,,,,0,53,0
61680,note_on,0,0,1,,,,,,,,0,52,64
61680,note_on,0,0,1,,,,,,,,0,72,64
61680,note_on,0,0,2,,,,,,,,0,52,64
61680,note_on,0,0,1,,,,,,,,0,67,0
61680,note_on,0,0,2,,,,,,,,0,72,64
61680,note_on,0,0,2,,,,,,,,0,67,0
61680,note_on,60,0,2,,,,,,,,0,53,0
61740,note_on,0,0,2,,,,,,,,0,72,0
61740,note_on,0,0,2,,,,,,,,0,74,64
61740,note_on,60,0,1,,,,,,,,0,52,0
61740,note_on,0,0,1,,,,,,,,0,72,0
61740,note_on,0,0,1,,,,,,,,0,74,64
61740,note_on,0,0,1,,,,,,,,0,50,64
61740,note_on,60,0,2,,,,,,,,0,52,0
61740,note_on,0,0,2,,,,,,,,0,50,64
61800,note_on,0,0,1,,,,,,,,0,48,64
61800,note_on,0,0,2,,,,,,,,0,76,64
61800,note_on,0,0,2,,,,,,,,0,74,0
61800,note_on,60,0,2,,,,,,,,0,50,0
61800,note_on,60,0,1,,,,,,,,0,50,0
61800,note_on,0,0,1,,,,,,,,0,76,64
61800,note_on,0,0,2,,,,,,,,0,48,64
61800,note_on,0,0,1,,,,,,,,0,74,0
61860,note_on,0,0,2,,,,,,,,0,52,64
61860,note_on,60,0,2,,,,,,,,0,48,0
61860,note_on,0,0,1,,,,,,,,0,52,64
61860,note_on,60,0,1,,,,,,,,0,48,0
61920,note_on,60,0,2,,,,,,,,0,52,0
61920,note_on,0,0,1,,,,,,,,0,43,64
61920,note_on,60,0,1,,,,,,,,0,52,0
61920,note_on,0,0,2,,,,,,,,0,43,64
61980,note_on,60,0,2,,,,,,,,0,43,0
61980,note_on,0,0,1,,,,,,,,0,52,64
61980,note_on,0,0,1,,,,,,,,0,72,64
61980,note_on,0,0,1,,,,,,,,0,76,0
61980,note_on,60,0,1,,,,,,,,0,43,0
61980,note_on,0,0,2,,,,,,,,0,76,0
61980,note_on,0,0,2,,,,,,,,0,52,64
61980,note_on,0,0,2,,,,,,,,0,72,64
62040,note_on,60,0,2,,,,,,,,0,52,0
62040,note_on,0,0,1,,,,,,,,0,50,64
62040,note_on,0,0,1,,,,,,,,0,74,64
62040,note_on,0,0,1,,,,,,,,0,72,0
62040,note_on,60,0,1,,,,,,,,0,52,0
62040,note_on,0,0,2,,,,,,,,0,72,0
62040,note_on,0,0,2,,,,,,,,0,50,64
62040,note_on,0,0,2,,,,,,,,0,74,64
62100,note_on,0,0,1,,,,,,,,0,48,64
62100,note_on,0,0,1,,,,,,,,0,76,64
62100,note_on,0,0,1,,,,,,,,0,74,0
62100,note_on,60,0,1,,,,,,,,0,50,0
62100,note_on,60,0,2,,,,,,,,0,50,0
62100,note_on,0,0,2,,,,,,,,0,74,0
62100,note_on,0,0,2,,,,,,,,0,76,64
62100,note_on,0,0,2,,,,,,,,0,48,64
62160,note_on,0,0,1,,,,,,,,0,47,64
62160,note_on,0,0,1,,,,,,,,0,77,64
62160,note_on,0,0,1,,,,,,,,0,76,0
62160,note_on,60,0,1,,,,,,,,0,48,0
62160,note_on,60,0,2,,,,,,,,0,48,0
62160,note_on,0,0,2,,,,,,,,0,76,0
62160,note_on,0,0,2,,,,,,,,0,47,64
62160,note_on,0,0,2,,,,,,,,0,77,64
62220,note_on,0,0,2,,,,,,,,0,50,64
62220,note_on,60,0,2,,,,,,,,0,47,0
62220,note_on,60,0,1,,,,,,,,0,47,0
62220,note_on,0,0,1,,,,,,,,0,50,64
62280,note_on,0,0,2,,,,,,,,0,43,64
62280,note_on,0,0,1,,,,,,,,0,43,64
62280,note_on,60,0,1,,,,,,,,0,50,0
62280,note_on,60,0,2,,,,,,,,0,50,0
62340,note_on,60,0,2,,,,,,,,0,77,0
62340,note_on,0,0,2,,,,,,,,0,79,64
62340,note_on,0,0,1,,,,,,,,0,79,64
62340,note_on,60,0,1,,,,,,,,0,77,0
62400,note_on,60,0,2,,,,,,,,0,79,0
62400,note_on,0,0,2,,,,,,,,0,43,0
62400,note_on,0,0,2,,,,,,,,0,77,64
62400,note_on,0,0,2,,,,,,,,0,45,64
62400,note_on,0,0,1,,,,,,,,0,45,64
62400,note_on,0,0,1,,,,,,,,0,77,64
62400,note_on,60,0,1,,,,,,,,0,79,0
62400,note_on,0,0,1,,,,,,,,0,43,0
62460,note_on,0,0,2,,,,,,,,0,76,64
62460,note_on,60,0,2,,,,,,,,0,77,0
62460,note_on,0,0,1,,,,,,,,0,76,64
62460,note_on,60,0,1,,,,,,,,0,77,0
62520,note_on,0,0,1,,,,,,,,0,74,64
62520,note_on,0,0,1,,,,,,,,0,45,0
62520,note_on,60,0,1,,,,,,,,0,76,0
62520,note_on,60,0,2,,,,,,,,0,76,0
62520,note_on,0,0,1,,,,,,,,0,47,64
62520,note_on,0,0,2,,,,,,,,0,45,0
62520,note_on,0,0,2,,,,,,,,0,74,64
62520,note_on,0,0,2,,,,,,,,0,47,64
62580,note_on,0,0,1,,,,,,,,0,77,64
62580,note_on,60,0,1,,,,,,,,0,74,0
62580,note_on,60,0,2,,,,,,,,0,74,0
62580,note_on,0,0,2,,,,,,,,0,77,64
62640,note_on,60,0,2,,,,,,,,0,77,0
62640,note_on,0,0,1,,,,,,,,0,47,0
62640,note_on,60,0,1,,,,,,,,0,77,0
62640,note_on,0,0,1,,,,,,,,0,76,64
62640,note_on,0,0,2,,,,,,,,0,47,0
62640,note_on,0,0,2,,,,,,,,0,76,64
62640,note_on,0,0,1,,,,,,,,0,48,64
62640,note_on,0,0,2,,,,,,,,0,48,64
62700,note_on,0,0,1,,,,,,,,0,64,64
62700,note_on,0,0,2,,,,,,,,0,64,64
62700,note_on,0,0,2,,,,,,,,0,76,0
62700,note_on,0,0,1,,,,,,,,0,76,0
62700,note_on,60,0,1,,,,,,,,0,48,0
62700,note_on,0,0,1,,,,,,,,0,62,64
62700,note_on,0,0,2,,,,,,,,0,62,64
62700,note_on,60,0,2,,,,,,,,0,48,0
62760,note_on,60,0,1,,,,,,,,0,62,0
62760,note_on,60,0,2,,,,,,,,0,62,0
62760,note_on,0,0,2,,,,,,,,0,60,64
62760,note_on,0,0,2,,,,,,,,0,64,0
62760,note_on,0,0,1,,,,,,,,0,60,64
62760,note_on,0,0,2,,,,,,,,0,66,64
62760,note_on,0,0,1,,,,,,,,0,64,0
62760,note_on,0,0,1,,,,,,,,0,66,64
62820,note_on,60,0,1,,,,,,,,0,60,0
62820,note_on,0,0,2,,,,,,,,0,68,64
62820,note_on,60,0,2,,,,,,,,0,60,0
62820,note_on,0,0,2,,,,,,,,0,66,0
62820,note_on,0,0,1,,,,,,,,0,68,64
62820,note_on,0,0,2,,,,,,,,0,59,64
62820,note_on,0,0,1,,,,,,,,0,66,0
62820,note_on,0,0,1,,,,,,,,0,59,64
62880,note_on,0,0,2,,,,,,,,0,57,64
62880,note_on,0,0,2,,,,,,,,0,69,64
62880,note_on,60,0,2,,,,,,,,0,59,0
62880,note_on,60,0,1,,,,,,,,0,59,0
62880,note_on,0,0,1,,,,,,,,0,68,0
62880,note_on,0,0,1,,,,,,,,0,69,64
62880,note_on,0,0,1,,,,,,,,0,57,64
62880,note_on,0,0,2,,,,,,,,0,68,0
62940,note_on,0,0,2,,,,,,,,0,69,0
62940,note_on,0,0,2,,,,,,,,0,66,64
62940,note_on,60,0,1,,,,,,,,0,57,0
62940,note_on,0,0,1,,,,,,,,0,69,0
62940,note_on,0,0,2,,,,,,,,0,60,64
62940,note_on,0,0,1,,,,,,,,0,66,64
62940,note_on,0,0,1,,,,,,,,0,60,64
62940,note_on,60,0,2,,,,,,,,0,57,0
63000,note_on,60,0,1,,,,,,,,0,66,0
63000,note_on,0,0,1,,,,,,,,0,74,64
63000,note_on,0,0,1,,,,,,,,0,47,64
63000,note_on,0,0,2,,,,,,,,0,47,64
63000,note_on,0,0,2,,,,,,,,0,74,64
63000,note_on,0,0,2,,,,,,,,0,60,0
63000,note_on,60,0,2,,,,,,,,0,66,0
63000,note_on,0,0,1,,,,,,,,0,60,0
63060,note_on,0,0,2,,,,,,,,0,74,0
63060,note_on,0,0,2,,,,,,,,0,66,64
63060,note_on,60,0,2,,,,,,,,0,47,0
63060,note_on,0,0,2,,,,,,,,0,60,64
63060,note_on,0,0,1,,,,,,,,0,60,64
63060,note_on,0,0,1,,,,,,,,0,66,64
63060,note_on,0,0,1,,,,,,,,0,74,0
63060,note_on,60,0,1,,,,,,,,0,47,0
63120,note_on,60,0,1,,,,,,,,0,60,0
63120,note_on,0,0,2,,,,,,,,0,59,64
63120,note_on,0,0,2,,,,,,,,0,68,64
63120,note_on,0,0,2,,,,,,,,0,66,0
63120,note_on,60,0,2,,,,,,,,0,60,0
63120,note_on,0,0,1,,,,,,,,0,68,64
63120,note_on,0,0,1,,,,,,,,0,59,64
63120,note_on,0,0,1,,,,,,,,0,66,0
63180,note_on,60,0,1,,,,,,,,0,59,0
63180,note_on,0,0,1,,,,,,,,0,57,64
63180,note_on,0,0,1,,,,,,,,0,68,0
63180,note_on,0,0,1,,,,,,,,0,69,64
63180,note_on,60,0,2,,,,,,,,0,59,0
63180,note_on,0,0,2,,,,,,,,0,68,0
63180,note_on,0,0,2,,,,,,,,0,69,64
63180,note_on,0,0,2,,,,,,,,0,57,64
63240,note_on,0,0,1,,,,,,,,0,69,0
63240,note_on,60,0,2,,,,,,,,0,57,0
63240,note_on,0,0,2,,,,,,,,0,69,0
63240,note_on,0,0,2,,,,,,,,0,56,64
63240,note_on,60,0,1,,,,,,,,0,57,0
63240,note_on,0,0,2,,,,,,,,0,71,64
63240,note_on,0,0,1,,,,,,,,0,71,64
63240,note_on,0,0,1,,,,,,,,0,56,64
63300,note_on,0,0,2,,,,,,,,0,68,64
63300,note_on,0,0,2,,,,,,,,0,59,64
63300,note_on,0,0,2,,,,,,,,0,71,0
63300,note_on,60,0,1,,,,,,,,0,56,0
63300,note_on,0,0,1,,,,,,,,0,71,0
63300,note_on,0,0,1,,,,,,,,0,59,64
63300,note_on,0,0,1,,,,,,,,0,68,64
63300,note_on,60,0,2,,,,,,,,0,56,0
63360,note_on,0,0,2,,,,,,,,0,59,0
63360,note_on,0,0,2,,,,,,,,0,45,64
63360,note_on,0,0,2,,,,,,,,0,72,64
63360,note_on,60,0,2,,,,,,,,0,68,0
63360,note_on,60,0,1,,,,,,,,0,68,0
63360,note_on,0,0,1,,,,,,,,0,59,0
63360,note_on,0,0,1,,,,,,,,0,72,64
63360,note_on,0,0,1,,,,,,,,0,45,64
63420,note_on,0,0,2,,,,,,,,0,68,64
63420,note_on,0,0,2,,,,,,,,0,59,64
63420,note_on,60,0,1,,,,,,,,0,45,0
63420,note_on,0,0,1,,,,,,,,0,72,0
63420,note_on,60,0,2,,,,,,,,0,45,0
63420,note_on,0,0,1,,,,,,,,0,59,64
63420,note_on,0,0,1,,,,,,,,0,68,64
63420,note_on,0,0,2,,,,,,,,0,72,0
63480,note_on,0,0,1,,,,,,,,0,57,64
63480,note_on,0,0,1,,,,,,,,0,69,64
63480,note_on,0,0,1,,,,,,,,0,68,0
63480,note_on,60,0,1,,,,,,,,0,59,0
63480,note_on,60,0,2,,,,,,,,0,59,0
63480,note_on,0,0,2,,,,,,,,0,68,0
63480,note_on,0,0,2,,,,,,,,0,69,64
63480,note_on,0,0,2,,,,,,,,0,57,64
63540,note_on,60,0,2,,,,,,,,0,57,0
63540,note_on,0,0,2,,,,,,,,0,69,0
63540,note_on,0,0,2,,,,,,,,0,71,64
63540,note_on,0,0,1,,,,,,,,0,69,0
63540,note_on,60,0,1,,,,,,,,0,57,0
63540,note_on,0,0,1,,,,,,,,0,56,64
63540,note_on,0,0,1,,,,,,,,0,71,64
63540,note_on,0,0,2,,,,,,,,0,56,64
63600,note_on,0,0,2,,,,,,,,0,72,64
63600,note_on,0,0,2,,,,,,,,0,71,0
63600,note_on,0,0,1,,,,,,,,0,54,64
63600,note_on,0,0,1,,,,,,,,0,72,64
63600,note_on,0,0,1,,,,,,,,0,71,0
63600,note_on,60,0,1,,,,,,,,0,56,0
63600,note_on,0,0,2,,,,,,,,0,54,64
63600,note_on,60,0,2,,,,,,,,0,56,0
63660,note_on,60,0,2,,,,,,,,0,54,0
63660,note_on,0,0,2,,,,,,,,0,72,0
63660,note_on,0,0,2,,,,,,,,0,57,64
63660,note_on,0,0,2,,,,,,,,0,69,64
63660,note_on,0,0,1,,,,,,,,0,69,64
63660,note_on,0,0,1,,,,,,,,0,57,64
63660,note_on,0,0,1,,,,,,,,0,72,0
63660,note_on,60,0,1,,,,,,,,0,54,0
63720,note_on,60,0,1,,,,,,,,0,69,0
63720,note_on,0,0,2,,,,,,,,0,51,64
63720,note_on,0,0,2,,,,,,,,0,72,64
63720,note_on,0,0,2,,,,,,,,0,57,0
63720,note_on,60,0,2,,,,,,,,0,69,0
63720,note_on,0,0,1,,,,,,,,0,57,0
63720,note_on,0,0,1,,,,,,,,0,51,64
63720,note_on,0,0,1,,,,,,,,0,72,64
63780,note_on,60,0,2,,,,,,,,0,72,0
63780,note_on,0,0,1,,,,,,,,0,71,64
63780,note_on,60,0,1,,,,,,,,0,72,0
63780,note_on,0,0,2,,,,,,,,0,71,64
63840,note_on,0,0,2,,,,,,,,0,52,64
63840,note_on,0,0,2,,,,,,,,0,69,64
63840,note_on,0,0,2,,,,,,,,0,51,0
63840,note_on,60,0,2,,,,,,,,0,71,0
63840,note_on,60,0,1,,,,,,,,0,71,0
63840,note_on,0,0,1,,,,,,,,0,51,0
63840,note_on,0,0,1,,,,,,,,0,69,64
63840,note_on,0,0,1,,,,,,,,0,52,64
63900,note_on,0,0,1,,,,,,,,0,68,64
63900,note_on,60,0,2,,,,,,,,0,69,0
63900,note_on,0,0,2,,,,,,,,0,68,64
63900,note_on,60,0,1,,,,,,,,0,69,0
63960,note_on,60,0,1,,,,,,,,0,68,0
63960,note_on,0,0,1,,,,,,,,0,52,0
63960,note_on,0,0,1,,,,,,,,0,53,64
63960,note_on,0,0,1,,,,,,,,0,69,64
63960,note_on,60,0,2,,,,,,,,0,68,0
63960,note_on,0,0,2,,,,,,,,0,52,0
63960,note_on,0,0,2,,,,,,,,0,53,64
63960,note_on,0,0,2,,,,,,,,0,69,64
64080,note_on,120,0,2,,,,,,,,0,53,0
64080,note_on,0,0,1,,,,,,,,0,52,64
64080,note_on,0,0,2,,,,,,,,0,52,64
64080,note_on,120,0,1,,,,,,,,0,53,0
64140,note_on,60,0,1,,,,,,,,0,52,0
64140,note_on,0,0,1,,,,,,,,0,71,64
64140,note_on,0,0,1,,,,,,,,0,69,0
64140,note_on,0,0,2,,,,,,,,0,50,64
64140,note_on,0,0,2,,,,,,,,0,71,64
64140,note_on,60,0,2,,,,,,,,0,52,0
64140,note_on,0,0,2,,,,,,,,0,69,0
64140,note_on,0,0,1,,,,,,,,0,50,64
64200,note_on,60,0,2,,,,,,,,0,50,0
64200,note_on,0,0,2,,,,,,,,0,52,64
64200,note_on,0,0,2,,,,,,,,0,71,64
64200,note_on,0,0,2,,,,,,,,0,71,0
64200,note_on,0,0,1,,,,,,,,0,52,64
64200,note_on,60,0,1,,,,,,,,0,50,0
64200,note_on,0,0,1,,,,,,,,0,71,0
64200,note_on,0,0,1,,,,,,,,0,71,64
64320,note_on,120,0,2,,,,,,,,0,52,0
64320,note_on,120,0,1,,,,,,,,0,52,0
64320,note_on,0,0,1,,,,,,,,0,40,64
64320,note_on,0,0,2,,,,,,,,0,40,64
64380,note_on,60,0,2,,,,,,,,0,71,0
64380,note_on,0,0,1,,,,,,,,0,69,64
64380,note_on,60,0,1,,,,,,,,0,71,0
64380,note_on,0,0,2,,,,,,,,0,69,64
64440,note_on,0,0,2,,,,,,,,0,40,0
64440,note_on,0,0,2,,,,,,,,0,69,64
64440,note_on,0,0,2,,,,,,,,0,45,64
64440,note_on,0,0,1,,,,,,,,0,45,64
64440,note_on,0,0,1,,,,,,,,0,69,64
64440,note_on,0,0,1,,,,,,,,0,40,0
64440,note_on,60,0,1,,,,,,,,0,69,0
64440,note_on,60,0,2,,,,,,,,0,69,0
64500,note_on,60,0,2,,,,,,,,0,45,0
64500,note_on,0,0,2,,,,,,,,0,57,64
64500,note_on,0,0,1,,,,,,,,0,57,64
64500,note_on,60,0,1,,,,,,,,0,45,0
64560,note_on,60,0,1,,,,,,,,0,57,0
64560,note_on,0,0,2,,,,,,,,0,55,64
64560,note_on,0,0,1,,,,,,,,0,55,64
64560,note_on,60,0,2,,,,,,,,0,57,0
64620,note_on,60,0,2,,,,,,,,0,55,0
64620,note_on,0,0,2,,,,,,,,0,54,64
64620,note_on,0,0,1,,,,,,,,0,54,64
64620,note_on,60,0,1,,,,,,,,0,55,0
64680,note_on,0,0,2,,,,,,,,0,52,64
64680,note_on,60,0,2,,,,,,,,0,54,0
64680,note_on,60,0,1,,,,,,,,0,54,0
64680,note_on,0,0,1,,,,,,,,0,52,64
64740,note_on,0,0,2,,,,,,,,0,55,64
64740,note_on,60,0,2,,,,,,,,0,52,0
64740,note_on,60,0,1,,,,,,,,0,52,0
64740,note_on,0,0,1,,,,,,,,0,55,64
64800,note_on,60,0,1,,,,,,,,0,55,0
64800,note_on,0,0,1,,,,,,,,0,54,64
64800,note_on,60,0,2,,,,,,,,0,55,0
64800,note_on,0,0,2,,,,,,,,0,54,64
64800,note_on,0,0,2,,,,,,,,0,69,0
64800,note_on,0,0,1,,,,,,,,0,69,0
64860,note_on,60,0,1,,,,,,,,0,74,64
64860,note_on,60,0,2,,,,,,,,0,74,64
64920,note_on,0,0,2,,,,,,,,0,72,64
64920,note_on,0,0,2,,,,,,,,0,54,0
64920,note_on,0,0,2,,,,,,,,0,50,64
64920,note_on,0,0,1,,,,,,,,0,50,64
64920,note_on,0,0,1,,,,,,,,0,72,64
64920,note_on,0,0,1,,,,,,,,0,54,0
64920,note_on,60,0,1,,,,,,,,0,74,0
64920,note_on,60,0,2,,,,,,,,0,74,0
64980,note_on,60,0,2,,,,,,,,0,72,0
64980,note_on,0,0,1,,,,,,,,0,71,64
64980,note_on,0,0,2,,,,,,,,0,71,64
64980,note_on,60,0,1,,,,,,,,0,72,0
65040,note_on,60,0,2,,,,,,,,0,71,0
65040,note_on,0,0,2,,,,,,,,0,54,64
65040,note_on,0,0,2,,,,,,,,0,50,0
65040,note_on,0,0,1,,,,,,,,0,69,64
65040,note_on,0,0,1,,,,,,,,0,54,64
65040,note_on,60,0,1,,,,,,,,0,71,0
65040,note_on,0,0,1,,,,,,,,0,50,0
65040,note_on,0,0,2,,,,,,,,0,69,64
65100,note_on,60,0,1,,,,,,,,0,69,0
65100,note_on,0,0,1,,,,,,,,0,72,64
65100,note_on,60,0,2,,,,,,,,0,69,0
65100,note_on,0,0,2,,,,,,,,0,72,64
65160,note_on,0,0,1,,,,,,,,0,55,64
65160,note_on,0,0,1,,,,,,,,0,71,64
65160,note_on,0,0,1,,,,,,,,0,54,0
65160,note_on,60,0,1,,,,,,,,0,72,0
65160,note_on,0,0,2,,,,,,,,0,54,0
65160,note_on,60,0,2,,,,,,,,0,72,0
65160,note_on,0,0,2,,,,,,,,0,71,64
65160,note_on,0,0,2,,,,,,,,0,55,64
65220,note_on,60,0,1,,,,,,,,0,71,0
65220,note_on,0,0,2,,,,,,,,0,74,64
65220,note_on,60,0,2,,,,,,,,0,71,0
65220,note_on,0,0,1,,,,,,,,0,74,64
65280,note_on,0,0,2,,,,,,,,0,54,64
65280,note_on,0,0,2,,,,,,,,0,76,64
65280,note_on,0,0,2,,,,,,,,0,55,0
65280,note_on,60,0,2,,,,,,,,0,74,0
65280,note_on,0,0,1,,,,,,,,0,55,0
65280,note_on,60,0,1,,,,,,,,0,74,0
65280,note_on,0,0,1,,,,,,,,0,54,64
65280,note_on,0,0,1,,,,,,,,0,76,64
65340,note_on,0,0,2,,,,,,,,0,78,64
65340,note_on,60,0,1,,,,,,,,0,76,0
65340,note_on,0,0,1,,,,,,,,0,78,64
65340,note_on,60,0,2,,,,,,,,0,76,0
65400,note_on,0,0,2,,,,,,,,0,54,0
65400,note_on,60,0,1,,,,,,,,0,78,0
65400,note_on,0,0,1,,,,,,,,0,54,0
65400,note_on,0,0,1,,,,,,,,0,52,64
65400,note_on,0,0,1,,,,,,,,0,79,64
65400,note_on,60,0,2,,,,,,,,0,78,0
65400,note_on,0,0,2,,,,,,,,0,52,64
65400,note_on,0,0,2,,,,,,,,0,79,64
65460,note_on,60,0,1,,,,,,,,0,79,0
65460,note_on,0,0,2,,,,,,,,0,73,64
65460,note_on,60,0,2,,,,,,,,0,79,0
65460,note_on,0,0,1,,,,,,,,0,73,64
65520,note_on,0,0,2,,,,,,,,0,50,64
65520,note_on,0,0,2,,,,,,,,0,78,64
65520,note_on,0,0,2,,,,,,,,0,52,0
65520,note_on,60,0,2,,,,,,,,0,73,0
65520,note_on,0,0,1,,,,,,,,0,52,0
65520,note_on,0,0,1,,,,,,,,0,78,64
65520,note_on,0,0,1,,,,,,,,0,50,64
65520,note_on,60,0,1,,,,,,,,0,73,0
65580,note_on,0,0,2,,,,,,,,0,55,64
65580,note_on,0,0,2,,,,,,,,0,71,64
65580,note_on,0,0,1,,,,,,,,0,55,64
65580,note_on,0,0,1,,,,,,,,0,71,64
65580,note_on,0,0,1,,,,,,,,0,78,0
65580,note_on,60,0,1,,,,,,,,0,50,0
65580,note_on,0,0,2,,,,,,,,0,78,0
65580,note_on,60,0,2,,,,,,,,0,50,0
65640,note_on,0,0,1,,,,,,,,0,72,64
65640,note_on,0,0,2,,,,,,,,0,72,64
65640,note_on,0,0,2,,,,,,,,0,57,64
65640,note_on,0,0,1,,,,,,,,0,57,64
65640,note_on,0,0,2,,,,,,,,0,71,0
65640,note_on,60,0,1,,,,,,,,0,55,0
65640,note_on,0,0,1,,,,,,,,0,71,0
65640,note_on,60,0,2,,,,,,,,0,55,0
65700,note_on,0,0,2,,,,,,,,0,74,64
65700,note_on,0,0,2,,,,,,,,0,72,0
65700,note_on,60,0,2,,,,,,,,0,57,0
65700,note_on,0,0,1,,,,,,,,0,59,64
65700,note_on,0,0,1,,,,,,,,0,74,64
65700,note_on,0,0,1,,,,,,,,0,72,0
65700,note_on,60,0,1,,,,,,,,0,57,0
65700,note_on,0,0,2,,,,,,,,0,59,64
65760,note_on,60,0,2,,,,,,,,0,59,0
65760,note_on,0,0,1,,,,,,,,0,76,64
65760,note_on,0,0,1,,,,,,,,0,60,64
65760,note_on,0,0,1,,,,,,,,0,74,0
65760,note_on,60,0,1,,,,,,,,0,59,0
65760,note_on,0,0,2,,,,,,,,0,76,64
65760,note_on,0,0,2,,,,,,,,0,74,0
65760,note_on,0,0,2,,,,,,,,0,60,64
65820,note_on,60,0,1,,,,,,,,0,76,0
65820,note_on,0,0,1,,,,,,,,0,69,64
65820,note_on,60,0,2,,,,,,,,0,76,0
65820,note_on,0,0,2,,,,,,,,0,69,64
65880,note_on,0,0,2,,,,,,,,0,74,64
65880,note_on,60,0,2,,,,,,,,0,69,0
65880,note_on,0,0,1,,,,,,,,0,74,64
65880,note_on,60,0,1,,,,,,,,0,69,0
65940,note_on,60,0,2,,,,,,,,0,74,0
65940,note_on,0,0,2,,,,,,,,0,59,64
65940,note_on,0,0,2,,,,,,,,0,67,64
65940,note_on,0,0,2,,,,,,,,0,60,0
65940,note_on,60,0,1,,,,,,,,0,74,0
65940,note_on,0,0,1,,,,,,,,0,67,64
65940,note_on,0,0,1,,,,,,,,0,59,64
65940,note_on,0,0,1,,,,,,,,0,60,0
66000,note_on,0,0,1,,,,,,,,0,69,64
66000,note_on,0,0,1,,,,,,,,0,67,0
66000,note_on,60,0,1,,,,,,,,0,59,0
66000,note_on,0,0,2,,,,,,,,0,69,64
66000,note_on,0,0,2,,,,,,,,0,67,0
66000,note_on,0,0,2,,,,,,,,0,57,64
66000,note_on,60,0,2,,,,,,,,0,59,0
66000,note_on,0,0,1,,,,,,,,0,57,64
66060,note_on,0,0,1,,,,,,,,0,55,64
66060,note_on,0,0,2,,,,,,,,0,69,0
66060,note_on,0,0,2,,,,,,,,0,55,64
66060,note_on,0,0,1,,,,,,,,0,71,64
66060,note_on,0,0,1,,,,,,,,0,69,0
66060,note_on,60,0,1,,,,,,,,0,57,0
66060,note_on,0,0,2,,,,,,,,0,71,64
66060,note_on,60,0,2,,,,,,,,0,57,0
66120,note_on,60,0,2,,,,,,,,0,55,0
66120,note_on,0,0,2,,,,,,,,0,71,0
66120,note_on,0,0,2,,,,,,,,0,57,64
66120,note_on,0,0,2,,,,,,,,0,72,64
66120,note_on,0,0,1,,,,,,,,0,57,64
66120,note_on,60,0,1,,,,,,,,0,55,0
66120,note_on,0,0,1,,,,,,,,0,71,0
66120,note_on,0,0,1,,,,,,,,0,72,64
66180,note_on,0,0,1,,,,,,,,0,66,64
66180,note_on,60,0,1,,,,,,,,0,72,0
66180,note_on,60,0,2,,,,,,,,0,72,0
66180,note_on,0,0,2,,,,,,,,0,66,64
66240,note_on,60,0,1,,,,,,,,0,66,0
66240,note_on,60,0,2,,,,,,,,0,66,0
66240,note_on,0,0,2,,,,,,,,0,71,64
66240,note_on,0,0,1,,,,,,,,0,71,64
66300,note_on,60,0,1,,,,,,,,0,57,0
66300,note_on,0,0,1,,,,,,,,0,59,64
66300,note_on,60,0,2,,,,,,,,0,57,0
66300,note_on,0,0,2,,,,,,,,0,59,64
66360,note_on,0,0,2,,,,,,,,0,57,64
66360,note_on,0,0,2,,,,,,,,0,73,64
66360,note_on,0,0,2,,,,,,,,0,71,0
66360,note_on,60,0,2,,,,,,,,0,59,0
66360,note_on,0,0,1,,,,,,,,0,57,64
66360,note_on,0,0,1,,,,,,,,0,73,64
66360,note_on,0,0,1,,,,,,,,0,71,0
66360,note_on,60,0,1,,,,,,,,0,59,0
66380,note_on,20,0,1,,,,,,,,0,73,0
66380,note_on,20,0,2,,,,,,,,0,73,0
66380,note_on,0,0,2,,,,,,,,0,75,64
66380,note_on,0,0,1,,,,,,,,0,75,64
66400,note_on,20,0,1,,,,,,,,0,75,0
66400,note_on,0,0,2,,,,,,,,0,76,64
66400,note_on,20,0,2,,,,,,,,0,75,0
66400,note_on,0,0,1,,,,,,,,0,76,64
66420,note_on,0,0,2,,,,,,,,0,57,0
66420,note_on,20,0,2,,,,,,,,0,76,0
66420,note_on,0,0,2,,,,,,,,0,55,64
66420,note_on,0,0,2,,,,,,,,0,75,64
66420,note_on,0,0,1,,,,,,,,0,55,64
66420,note_on,0,0,1,,,,,,,,0,75,64
66420,note_on,0,0,1,,,,,,,,0,57,0
66420,note_on,20,0,1,,,,,,,,0,76,0
66440,note_on,20,0,2,,,,,,,,0,75,0
66440,note_on,20,0,1,,,,,,,,0,75,0
66440,note_on,0,0,1,,,,,,,,0,76,64
66440,note_on,0,0,2,,,,,,,,0,76,64
66460,note_on,20,0,1,,,,,,,,0,76,0
66460,note_on,0,0,2,,,,,,,,0,75,64
66460,note_on,20,0,2,,,,,,,,0,76,0
66460,note_on,0,0,1,,,,,,,,0,75,64
66480,note_on,0,0,2,,,,,,,,0,76,64
66480,note_on,0,0,2,,,,,,,,0,54,64
66480,note_on,0,0,1,,,,,,,,0,55,0
66480,note_on,20,0,1,,,,,,,,0,75,0
66480,note_on,20,0,2,,,,,,,,0,75,0
66480,note_on,0,0,1,,,,,,,,0,54,64
66480,note_on,0,0,2,,,,,,,,0,55,0
66480,note_on,0,0,1,,,,,,,,0,76,64
66500,note_on,20,0,1,,,,,,,,0,76,0
66500,note_on,20,0,2,,,,,,,,0,76,0
66500,note_on,0,0,1,,,,,,,,0,75,64
66500,note_on,0,0,2,,,,,,,,0,75,64
66540,note_on,0,0,2,,,,,,,,0,57,64
66540,note_on,0,0,2,,,,,,,,0,54,0
66540,note_on,0,0,2,,,,,,,,0,73,64
66540,note_on,40,0,2,,,,,,,,0,75,0
66540,note_on,40,0,1,,,,,,,,0,75,0
66540,note_on,0,0,1,,,,,,,,0,54,0
66540,note_on,0,0,1,,,,,,,,0,57,64
66540,note_on,0,0,1,,,,,,,,0,73,64
66570,note_on,30,0,1,,,,,,,,0,73,0
66570,note_on,0,0,1,,,,,,,,0,75,64
66570,note_on,30,0,2,,,,,,,,0,73,0
66570,note_on,0,0,2,,,,,,,,0,75,64
66600,note_on,30,0,2,,,,,,,,0,75,0
66600,note_on,0,0,2,,,,,,,,0,57,0
66600,note_on,0,0,1,,,,,,,,0,55,64
66600,note_on,0,0,1,,,,,,,,0,76,64
66600,note_on,0,0,1,,,,,,,,0,57,0
66600,note_on,30,0,1,,,,,,,,0,75,0
66600,note_on,0,0,2,,,,,,,,0,55,64
66600,note_on,0,0,2,,,,,,,,0,76,64
66660,note_on,60,0,1,,,,,,,,0,55,0
66660,note_on,0,0,1,,,,,,,,0,59,64
66660,note_on,0,0,2,,,,,,,,0,59,64
66660,note_on,60,0,2,,,,,,,,0,55,0
66720,note_on,0,0,1,,,,,,,,0,76,0
66720,note_on,0,0,1,,,,,,,,0,61,64
66720,note_on,0,0,1,,,,,,,,0,79,64
66720,note_on,0,0,2,,,,,,,,0,76,0
66720,note_on,0,0,2,,,,,,,,0,79,64
66720,note_on,0,0,2,,,,,,,,0,61,64
66720,note_on,60,0,2,,,,,,,,0,59,0
66720,note_on,60,0,1,,,,,,,,0,59,0
66736,note_on,16,0,2,,,,,,,,0,78,64
66736,note_on,16,0,1,,,,,,,,0,78,64
66740,note_on,4,0,1,,,,,,,,0,79,0
66740,note_on,4,0,2,,,,,,,,0,79,0
66756,note_on,16,0,1,,,,,,,,0,78,0
66756,note_on,16,0,2,,,,,,,,0,78,0
66760,note_on,4,0,1,,,,,,,,0,76,64
66760,note_on,4,0,2,,,,,,,,0,76,64
66780,note_on,20,0,1,,,,,,,,0,76,0
66780,note_on,0,0,1,,,,,,,,0,61,0
66780,note_on,0,0,1,,,,,,,,0,78,64
66780,note_on,0,0,1,,,,,,,,0,63,64
66780,note_on,0,0,2,,,,,,,,0,63,64
66780,note_on,20,0,2,,,,,,,,0,76,0
66780,note_on,0,0,2,,,,,,,,0,61,0
66780,note_on,0,0,2,,,,,,,,0,78,64
66840,note_on,0,0,2,,,,,,,,0,79,64
66840,note_on,0,0,2,,,,,,,,0,64,64
66840,note_on,0,0,2,,,,,,,,0,78,0
66840,note_on,0,0,1,,,,,,,,0,64,64
66840,note_on,0,0,1,,,,,,,,0,79,64
66840,note_on,60,0,1,,,,,,,,0,63,0
66840,note_on,0,0,1,,,,,,,,0,78,0
66840,note_on,60,0,2,,,,,,,,0,63,0
66900,note_on,60,0,2,,,,,,,,0,64,0
66900,note_on,0,0,2,,,,,,,,0,57,64
66900,note_on,60,0,1,,,,,,,,0,64,0
66900,note_on,0,0,1,,,,,,,,0,57,64
66960,note_on,60,0,2,,,,,,,,0,57,0
66960,note_on,0,0,2,,,,,,,,0,62,64
66960,note_on,0,0,1,,,,,,,,0,62,64
66960,note_on,60,0,1,,,,,,,,0,57,0
67020,note_on,0,0,1,,,,,,,,0,79,0
67020,note_on,60,0,1,,,,,,,,0,62,0
67020,note_on,0,0,2,,,,,,,,0,55,64
67020,note_on,0,0,2,,,,,,,,0,78,64
67020,note_on,0,0,2,,,,,,,,0,79,0
67020,note_on,60,0,2,,,,,,,,0,62,0
67020,note_on,0,0,1,,,,,,,,0,55,64
67020,note_on,0,0,1,,,,,,,,0,78,64
67080,note_on,0,0,2,,,,,,,,0,57,64
67080,note_on,0,0,1,,,,,,,,0,78,0
67080,note_on,0,0,1,,,,,,,,0,57,64
67080,note_on,0,0,2,,,,,,,,0,76,64
67080,note_on,0,0,2,,,,,,,,0,78,0
67080,note_on,60,0,2,,,,,,,,0,55,0
67080,note_on,60,0,1,,,,,,,,0,55,0
67080,note_on,0,0,1,,,,,,,,0,76,64
67140,note_on,0,0,2,,,,,,,,0,75,64
67140,note_on,60,0,2,,,,,,,,0,57,0
67140,note_on,0,0,2,,,,,,,,0,59,64
67140,note_on,0,0,1,,,,,,,,0,59,64
67140,note_on,0,0,1,,,,,,,,0,75,64
67140,note_on,0,0,1,,,,,,,,0,76,0
67140,note_on,60,0,1,,,,,,,,0,57,0
67140,note_on,0,0,2,,,,,,,,0,76,0
67200,note_on,60,0,2,,,,,,,,0,59,0
67200,note_on,0,0,1,,,,,,,,0,60,64
67200,note_on,0,0,1,,,,,,,,0,76,64
67200,note_on,60,0,1,,,,,,,,0,59,0
67200,note_on,0,0,1,,,,,,,,0,75,0
67200,note_on,0,0,2,,,,,,,,0,75,0
67200,note_on,0,0,2,,,,,,,,0,76,64
67200,note_on,0,0,2,,,,,,,,0,60,64
67260,note_on,0,0,1,,,,,,,,0,54,64
67260,note_on,0,0,2,,,,,,,,0,54,64
67260,note_on,60,0,2,,,,,,,,0,60,0
67260,note_on,60,0,1,,,,,,,,0,60,0
67320,note_on,60,0,2,,,,,,,,0,54,0
67320,note_on,0,0,2,,,,,,,,0,59,64
67320,note_on,0,0,1,,,,,,,,0,59,64
67320,note_on,60,0,1,,,,,,,,0,54,0
67380,note_on,0,0,1,,,,,,,,0,52,64
67380,note_on,0,0,1,,,,,,,,0,74,64
67380,note_on,0,0,1,,,,,,,,0,76,0
67380,note_on,60,0,1,,,,,,,,0,59,0
67380,note_on,60,0,2,,,,,,,,0,59,0
67380,note_on,0,0,2,,,,,,,,0,52,64
67380,note_on,0,0,2,,,,,,,,0,74,64
67380,note_on,0,0,2,,,,,,,,0,76,0
67440,note_on,0,0,1,,,,,,,,0,74,0
67440,note_on,0,0,2,,,,,,,,0,54,64
67440,note_on,0,0,2,,,,,,,,0,72,64
67440,note_on,0,0,2,,,,,,,,0,74,0
67440,note_on,60,0,2,,,,,,,,0,52,0
67440,note_on,60,0,1,,,,,,,,0,52,0
67440,note_on,0,0,1,,,,,,,,0,54,64
67440,note_on,0,0,1,,,,,,,,0,72,64
67500,note_on,0,0,1,,,,,,,,0,72,0
67500,note_on,60,0,1,,,,,,,,0,54,0
67500,note_on,0,0,1,,,,,,,,0,55,64
67500,note_on,0,0,2,,,,,,,,0,55,64
67500,note_on,60,0,2,,,,,,,,0,54,0
67500,note_on,0,0,2,,,,,,,,0,72,0
67500,note_on,0,0,2,,,,,,,,0,71,64
67500,note_on,0,0,1,,,,,,,,0,71,64
67560,note_on,60,0,1,,,,,,,,0,55,0
67560,note_on,0,0,2,,,,,,,,0,71,0
67560,note_on,0,0,1,,,,,,,,0,71,0
67560,note_on,0,0,1,,,,,,,,0,72,64
67560,note_on,0,0,1,,,,,,,,0,57,64
67560,note_on,0,0,2,,,,,,,,0,57,64
67560,note_on,60,0,2,,,,,,,,0,55,0
67560,note_on,0,0,2,,,,,,,,0,72,64
67620,note_on,0,0,1,,,,,,,,0,72,0
67620,note_on,0,0,2,,,,,,,,0,81,64
67620,note_on,0,0,1,,,,,,,,0,50,64
67620,note_on,0,0,1,,,,,,,,0,81,64
67620,note_on,60,0,1,,,,,,,,0,57,0
67620,note_on,0,0,2,,,,,,,,0,50,64
67620,note_on,60,0,2,,,,,,,,0,57,0
67620,note_on,0,0,2,,,,,,,,0,72,0
67680,note_on,0,0,1,,,,,,,,0,81,0
67680,note_on,0,0,1,,,,,,,,0,55,64
67680,note_on,60,0,2,,,,,,,,0,50,0
67680,note_on,0,0,2,,,,,,,,0,81,0
67680,note_on,0,0,2,,,,,,,,0,71,64
67680,note_on,60,0,1,,,,,,,,0,50,0
67680,note_on,0,0,2,,,,,,,,0,55,64
67680,note_on,0,0,1,,,,,,,,0,71,64
67740,note_on,0,0,2,,,,,,,,0,71,0
67740,note_on,60,0,2,,,,,,,,0,55,0
67740,note_on,0,0,2,,,,,,,,0,54,64
67740,note_on,0,0,1,,,,,,,,0,54,64
67740,note_on,0,0,1,,,,,,,,0,62,64
67740,note_on,0,0,1,,,,,,,,0,71,0
67740,note_on,60,0,1,,,,,,,,0,55,0
67740,note_on,0,0,2,,,,,,,,0,62,64
67800,note_on,60,0,1,,,,,,,,0,54,0
67800,note_on,0,0,1,,,,,,,,0,62,0
67800,note_on,0,0,1,,,,,,,,0,64,64
67800,note_on,0,0,1,,,,,,,,0,55,64
67800,note_on,0,0,2,,,,,,,,0,55,64
67800,note_on,0,0,2,,,,,,,,0,64,64
67800,note_on,60,0,2,,,,,,,,0,54,0
67800,note_on,0,0,2,,,,,,,,0,62,0
67860,note_on,0,0,2,,,,,,,,0,57,64
67860,note_on,0,0,2,,,,,,,,0,66,64
67860,note_on,0,0,2,,,,,,,,0,64,0
67860,note_on,60,0,2,,,,,,,,0,55,0
67860,note_on,60,0,1,,,,,,,,0,55,0
67860,note_on,0,0,1,,,,,,,,0,64,0
67860,note_on,0,0,1,,,,,,,,0,66,64
67860,note_on,0,0,1,,,,,,,,0,57,64
67920,note_on,0,0,1,,,,,,,,0,67,64
67920,note_on,0,0,1,,,,,,,,0,66,0
67920,note_on,0,0,1,,,,,,,,0,59,64
67920,note_on,0,0,2,,,,,,,,0,59,64
67920,note_on,60,0,2,,,,,,,,0,57,0
67920,note_on,0,0,2,,,,,,,,0,66,0
67920,note_on,0,0,2,,,,,,,,0,67,64
67920,note_on,60,0,1,,,,,,,,0,57,0
67980,note_on,60,0,1,,,,,,,,0,59,0
67980,note_on,60,0,2,,,,,,,,0,59,0
67980,note_on,0,0,2,,,,,,,,0,61,64
67980,note_on,0,0,1,,,,,,,,0,61,64
68040,note_on,0,0,2,,,,,,,,0,62,64
68040,note_on,60,0,1,,,,,,,,0,61,0
68040,note_on,0,0,1,,,,,,,,0,62,64
68040,note_on,60,0,2,,,,,,,,0,61,0
68100,note_on,0,0,2,,,,,,,,0,66,64
68100,note_on,0,0,1,,,,,,,,0,57,64
68100,note_on,0,0,1,,,,,,,,0,66,64
68100,note_on,0,0,1,,,,,,,,0,67,0
68100,note_on,60,0,1,,,,,,,,0,62,0
68100,note_on,0,0,2,,,,,,,,0,57,64
68100,note_on,0,0,2,,,,,,,,0,67,0
68100,note_on,60,0,2,,,,,,,,0,62,0
68160,note_on,0,0,2,,,,,,,,0,59,64
68160,note_on,0,0,2,,,,,,,,0,68,64
68160,note_on,0,0,2,,,,,,,,0,66,0
68160,note_on,60,0,2,,,,,,,,0,57,0
68160,note_on,0,0,1,,,,,,,,0,59,64
68160,note_on,0,0,1,,,,,,,,0,68,64
68160,note_on,60,0,1,,,,,,,,0,57,0
68160,note_on,0,0,1,,,,,,,,0,66,0
68220,note_on,0,0,1,,,,,,,,0,69,64
68220,note_on,0,0,1,,,,,,,,0,68,0
68220,note_on,60,0,1,,,,,,,,0,59,0
68220,note_on,60,0,2,,,,,,,,0,59,0
68220,note_on,0,0,2,,,,,,,,0,68,0
68220,note_on,0,0,2,,,,,,,,0,69,64
68220,note_on,0,0,2,,,,,,,,0,60,64
68220,note_on,0,0,1,,,,,,,,0,60,64
68280,note_on,0,0,2,,,,,,,,0,71,64
68280,note_on,60,0,2,,,,,,,,0,60,0
68280,note_on,0,0,2,,,,,,,,0,69,0
68280,note_on,0,0,2,,,,,,,,0,62,64
68280,note_on,0,0,1,,,,,,,,0,71,64
68280,note_on,0,0,1,,,,,,,,0,62,64
68280,note_on,0,0,1,,,,,,,,0,69,0
68280,note_on,60,0,1,,,,,,,,0,60,0
68340,note_on,0,0,2,,,,,,,,0,68,64
68340,note_on,60,0,1,,,,,,,,0,71,0
68340,note_on,0,0,1,,,,,,,,0,68,64
68340,note_on,60,0,2,,,,,,,,0,71,0
68400,note_on,0,0,1,,,,,,,,0,69,64
68400,note_on,60,0,2,,,,,,,,0,68,0
68400,note_on,60,0,1,,,,,,,,0,68,0
68400,note_on,0,0,2,,,,,,,,0,69,64
68460,note_on,0,0,1,,,,,,,,0,61,64
68460,note_on,60,0,1,,,,,,,,0,69,0
68460,note_on,0,0,1,,,,,,,,0,62,0
68460,note_on,0,0,2,,,,,,,,0,64,64
68460,note_on,0,0,2,,,,,,,,0,61,64
68460,note_on,0,0,1,,,,,,,,0,64,64
68460,note_on,0,0,2,,,,,,,,0,62,0
68460,note_on,60,0,2,,,,,,,,0,69,0
68520,note_on,0,0,2,,,,,,,,0,64,0
68520,note_on,60,0,2,,,,,,,,0,61,0
68520,note_on,0,0,2,,,,,,,,0,66,64
68520,note_on,0,0,2,,,,,,,,0,63,64
68520,note_on,60,0,1,,,,,,,,0,61,0
68520,note_on,0,0,1,,,,,,,,0,64,0
68520,note_on,0,0,1,,,,,,,,0,66,64
68520,note_on,0,0,1,,,,,,,,0,63,64
68580,note_on,0,0,2,,,,,,,,0,64,64
68580,note_on,0,0,2,,,,,,,,0,67,64
68580,note_on,0,0,2,,,,,,,,0,66,0
68580,note_on,60,0,2,,,,,,,,0,63,0
68580,note_on,60,0,1,,,,,,,,0,63,0
68580,note_on,0,0,1,,,,,,,,0,66,0
68580,note_on,0,0,1,,,,,,,,0,64,64
68580,note_on,0,0,1,,,,,,,,0,67,64
68640,note_on,60,0,1,,,,,,,,0,64,0
68640,note_on,0,0,1,,,,,,,,0,67,0
68640,note_on,0,0,1,,,,,,,,0,69,64
68640,note_on,60,0,2,,,,,,,,0,64,0
68640,note_on,0,0,2,,,,,,,,0,67,0
68640,note_on,0,0,2,,,,,,,,0,69,64
68640,note_on,0,0,2,,,,,,,,0,66,64
68640,note_on,0,0,1,,,,,,,,0,66,64
68700,note_on,60,0,2,,,,,,,,0,66,0
68700,note_on,0,0,2,,,,,,,,0,63,64
68700,note_on,0,0,1,,,,,,,,0,63,64
68700,note_on,60,0,1,,,,,,,,0,66,0
68760,note_on,0,0,2,,,,,,,,0,64,64
68760,note_on,0,0,1,,,,,,,,0,64,64
68760,note_on,60,0,1,,,,,,,,0,63,0
68760,note_on,60,0,2,,,,,,,,0,63,0
68820,note_on,0,0,2,,,,,,,,0,52,64
68820,note_on,0,0,2,,,,,,,,0,67,64
68820,note_on,0,0,2,,,,,,,,0,69,0
68820,note_on,60,0,2,,,,,,,,0,64,0
68820,note_on,0,0,1,,,,,,,,0,52,64
68820,note_on,0,0,1,,,,,,,,0,67,64
68820,note_on,0,0,1,,,,,,,,0,69,0
68820,note_on,60,0,1,,,,,,,,0,64,0
68880,note_on,60,0,2,,,,,,,,0,52,0
68880,note_on,0,0,2,,,,,,,,0,54,64
68880,note_on,0,0,2,,,,,,,,0,69,64
68880,note_on,0,0,2,,,,,,,,0,67,0
68880,note_on,0,0,1,,,,,,,,0,54,64
68880,note_on,0,0,1,,,,,,,,0,69,64
68880,note_on,0,0,1,,,,,,,,0,67,0
68880,note_on,60,0,1,,,,,,,,0,52,0
68940,note_on,0,0,2,,,,,,,,0,55,64
68940,note_on,0,0,2,,,,,,,,0,71,64
68940,note_on,0,0,2,,,,,,,,0,69,0
68940,note_on,60,0,2,,,,,,,,0,54,0
68940,note_on,60,0,1,,,,,,,,0,54,0
68940,note_on,0,0,1,,,,,,,,0,69,0
68940,note_on,0,0,1,,,,,,,,0,55,64
68940,note_on,0,0,1,,,,,,,,0,71,64
69000,note_on,0,0,1,,,,,,,,0,57,64
69000,note_on,0,0,2,,,,,,,,0,57,64
69000,note_on,0,0,2,,,,,,,,0,72,64
69000,note_on,0,0,2,,,,,,,,0,71,0
69000,note_on,0,0,1,,,,,,,,0,71,0
69000,note_on,60,0,2,,,,,,,,0,55,0
69000,note_on,60,0,1,,,,,,,,0,55,0
69000,note_on,0,0,1,,,,,,,,0,72,64
69060,note_on,0,0,1,,,,,,,,0,54,64
69060,note_on,0,0,1,,,,,,,,0,69,64
69060,note_on,0,0,1,,,,,,,,0,72,0
69060,note_on,60,0,1,,,,,,,,0,57,0
69060,note_on,60,0,2,,,,,,,,0,57,0
69060,note_on,0,0,2,,,,,,,,0,72,0
69060,note_on,0,0,2,,,,,,,,0,69,64
69060,note_on,0,0,2,,,,,,,,0,54,64
69120,note_on,0,0,2,,,,,,,,0,71,64
69120,note_on,60,0,1,,,,,,,,0,54,0
69120,note_on,0,0,1,,,,,,,,0,69,0
69120,note_on,0,0,1,,,,,,,,0,71,64
69120,note_on,60,0,2,,,,,,,,0,54,0
69120,note_on,0,0,2,,,,,,,,0,69,0
69120,note_on,0,0,2,,,,,,,,0,55,64
69120,note_on,0,0,1,,,,,,,,0,55,64
69180,note_on,60,0,1,,,,,,,,0,71,0
69180,note_on,0,0,2,,,,,,,,0,75,64
69180,note_on,0,0,1,,,,,,,,0,75,64
69180,note_on,60,0,2,,,,,,,,0,71,0
69240,note_on,0,0,2,,,,,,,,0,54,64
69240,note_on,0,0,2,,,,,,,,0,76,64
69240,note_on,0,0,2,,,,,,,,0,55,0
69240,note_on,60,0,2,,,,,,,,0,75,0
69240,note_on,60,0,1,,,,,,,,0,75,0
69240,note_on,0,0,1,,,,,,,,0,76,64
69240,note_on,0,0,1,,,,,,,,0,55,0
69240,note_on,0,0,1,,,,,,,,0,54,64
69300,note_on,0,0,2,,,,,,,,0,78,64
69300,note_on,60,0,2,,,,,,,,0,76,0
69300,note_on,60,0,1,,,,,,,,0,76,0
69300,note_on,0,0,1,,,,,,,,0,78,64
69360,note_on,0,0,2,,,,,,,,0,52,64
69360,note_on,0,0,2,,,,,,,,0,79,64
69360,note_on,0,0,1,,,,,,,,0,54,0
69360,note_on,0,0,2,,,,,,,,0,54,0
69360,note_on,60,0,1,,,,,,,,0,78,0
69360,note_on,0,0,1,,,,,,,,0,52,64
69360,note_on,60,0,2,,,,,,,,0,78,0
69360,note_on,0,0,1,,,,,,,,0,79,64
69420,note_on,60,0,1,,,,,,,,0,79,0
69420,note_on,60,0,2,,,,,,,,0,79,0
69420,note_on,0,0,2,,,,,,,,0,76,64
69420,note_on,0,0,1,,,,,,,,0,76,64
69480,note_on,0,0,2,,,,,,,,0,78,64
69480,note_on,0,0,2,,,,,,,,0,61,72
69480,note_on,0,0,2,,,,,,,,0,52,0
69480,note_on,60,0,1,,,,,,,,0,76,0
69480,note_on,0,0,1,,,,,,,,0,52,0
69480,note_on,0,0,1,,,,,,,,0,78,64
69480,note_on,60,0,2,,,,,,,,0,76,0
69480,note_on,0,0,1,,,,,,,,0,61,72
69500,note_on,20,0,1,,,,,,,,0,61,0
69500,note_on,0,0,1,,,,,,,,0,59,48
69500,note_on,20,0,2,,,,,,,,0,61,0
69500,note_on,0,0,2,,,,,,,,0,59,48
69520,note_on,20,0,2,,,,,,,,0,61,48
69520,note_on,20,0,1,,,,,,,,0,61,48
69522,note_on,2,0,1,,,,,,,,0,59,0
69522,note_on,2,0,2,,,,,,,,0,59,0
69540,note_on,0,0,1,,,,,,,,0,59,48
69540,note_on,0,0,2,,,,,,,,0,59,48
69540,note_on,0,0,2,,,,,,,,0,76,64
69540,note_on,18,0,1,,,,,,,,0,78,0
69540,note_on,0,0,1,,,,,,,,0,76,64
69540,note_on,18,0,2,,,,,,,,0,78,0
69542,note_on,2,0,2,,,,,,,,0,61,0
69542,note_on,2,0,1,,,,,,,,0,61,0
69560,note_on,18,0,1,,,,,,,,0,61,49
69560,note_on,18,0,2,,,,,,,,0,61,49
69562,note_on,2,0,2,,,,,,,,0,59,0
69562,note_on,2,0,1,,,,,,,,0,59,0
69580,note_on,18,0,2,,,,,,,,0,59,49
69580,note_on,18,0,1,,,,,,,,0,59,49
69582,note_on,2,0,2,,,,,,,,0,61,0
69582,note_on,2,0,1,,,,,,,,0,61,0
69600,note_on,0,0,2,,,,,,,,0,61,49
69600,note_on,0,0,1,,,,,,,,0,75,64
69600,note_on,18,0,1,,,,,,,,0,76,0
69600,note_on,0,0,2,,,,,,,,0,75,64
69600,note_on,18,0,2,,,,,,,,0,76,0
69600,note_on,0,0,1,,,,,,,,0,61,49
69602,note_on,2,0,1,,,,,,,,0,59,0
69602,note_on,2,0,2,,,,,,,,0,59,0
69620,note_on,18,0,1,,,,,,,,0,59,50
69620,note_on,18,0,2,,,,,,,,0,59,50
69622,note_on,2,0,1,,,,,,,,0,61,0
69622,note_on,2,0,2,,,,,,,,0,61,0
69640,note_on,18,0,2,,,,,,,,0,61,50
69640,note_on,18,0,1,,,,,,,,0,61,50
69642,note_on,2,0,1,,,,,,,,0,59,0
69642,note_on,2,0,2,,,,,,,,0,59,0
69660,note_on,0,0,1,,,,,,,,0,73,64
69660,note_on,0,0,1,,,,,,,,0,59,50
69660,note_on,18,0,1,,,,,,,,0,75,0
69660,note_on,18,0,2,,,,,,,,0,75,0
69660,note_on,0,0,2,,,,,,,,0,73,64
69660,note_on,0,0,2,,,,,,,,0,59,50
69662,note_on,2,0,1,,,,,,,,0,61,0
69662,note_on,2,0,2,,,,,,,,0,61,0
69680,note_on,18,0,1,,,,,,,,0,61,51
69680,note_on,18,0,2,,,,,,,,0,61,51
69682,note_on,2,0,1,,,,,,,,0,59,0
69682,note_on,2,0,2,,,,,,,,0,59,0
69700,note_on,18,0,1,,,,,,,,0,59,51
69700,note_on,18,0,2,,,,,,,,0,59,51
69702,note_on,2,0,1,,,,,,,,0,61,0
69702,note_on,2,0,2,,,,,,,,0,61,0
69720,note_on,18,0,1,,,,,,,,0,73,0
69720,note_on,0,0,2,,,,,,,,0,71,64
69720,note_on,0,0,2,,,,,,,,0,61,51
69720,note_on,0,0,1,,,,,,,,0,61,51
69720,note_on,0,0,1,,,,,,,,0,71,64
69720,note_on,18,0,2,,,,,,,,0,73,0
69722,note_on,2,0,1,,,,,,,,0,59,0
69722,note_on,2,0,2,,,,,,,,0,59,0
69740,note_on,18,0,1,,,,,,,,0,59,51
69740,note_on,18,0,2,,,,,,,,0,59,51
69742,note_on,2,0,1,,,,,,,,0,61,0
69742,note_on,2,0,2,,,,,,,,0,61,0
69760,note_on,18,0,1,,,,,,,,0,61,52
69760,note_on,18,0,2,,,,,,,,0,61,52
69762,note_on,2,0,1,,,,,,,,0,59,0
69762,note_on,2,0,2,,,,,,,,0,59,0
69780,note_on,18,0,1,,,,,,,,0,71,0
69780,note_on,0,0,2,,,,,,,,0,69,64
69780,note_on,0,0,1,,,,,,,,0,59,52
69780,note_on,0,0,1,,,,,,,,0,69,64
69780,note_on,18,0,2,,,,,,,,0,71,0
69780,note_on,0,0,2,,,,,,,,0,59,52
69782,note_on,2,0,1,,,,,,,,0,61,0
69782,note_on,2,0,2,,,,,,,,0,61,0
69800,note_on,18,0,1,,,,,,,,0,61,52
69800,note_on,18,0,2,,,,,,,,0,61,52
69802,note_on,2,0,2,,,,,,,,0,59,0
69802,note_on,2,0,1,,,,,,,,0,59,0
69820,note_on,18,0,2,,,,,,,,0,59,53
69820,note_on,18,0,1,,,,,,,,0,59,53
69822,note_on,2,0,1,,,,,,,,0,61,0
69822,note_on,2,0,2,,,,,,,,0,61,0
69840,note_on,0,0,2,,,,,,,,0,61,53
69840,note_on,0,0,2,,,,,,,,0,67,64
69840,note_on,18,0,1,,,,,,,,0,69,0
69840,note_on,18,0,2,,,,,,,,0,69,0
69840,note_on,0,0,1,,,,,,,,0,61,53
69840,note_on,0,0,1,,,,,,,,0,67,64
69842,note_on,2,0,2,,,,,,,,0,59,0
69842,note_on,2,0,1,,,,,,,,0,59,0
69860,note_on,18,0,2,,,,,,,,0,59,53
69860,note_on,18,0,1,,,,,,,,0,59,53
69862,note_on,2,0,1,,,,,,,,0,61,0
69862,note_on,2,0,2,,,,,,,,0,61,0
69880,note_on,18,0,1,,,,,,,,0,61,54
69880,note_on,18,0,2,,,,,,,,0,61,54
69882,note_on,2,0,1,,,,,,,,0,59,0
69882,note_on,2,0,2,,,,,,,,0,59,0
69900,note_on,18,0,2,,,,,,,,0,67,0
69900,note_on,0,0,2,,,,,,,,0,71,64
69900,note_on,0,0,2,,,,,,,,0,59,54
69900,note_on,18,0,1,,,,,,,,0,67,0
69900,note_on,0,0,1,,,,,,,,0,59,54
69900,note_on,0,0,1,,,,,,,,0,71,64
69902,note_on,2,0,2,,,,,,,,0,61,0
69902,note_on,2,0,1,,,,,,,,0,61,0
69920,note_on,18,0,1,,,,,,,,0,61,54
69920,note_on,18,0,2,,,,,,,,0,61,54
69922,note_on,2,0,2,,,,,,,,0,59,0
69922,note_on,2,0,1,,,,,,,,0,59,0
69940,note_on,18,0,2,,,,,,,,0,59,55
69940,note_on,18,0,1,,,,,,,,0,59,55
69942,note_on,2,0,1,,,,,,,,0,61,0
69942,note_on,2,0,2,,,,,,,,0,61,0
69960,note_on,0,0,1,,,,,,,,0,73,64
69960,note_on,0,0,2,,,,,,,,0,73,64
69960,note_on,0,0,1,,,,,,,,0,61,55
69960,note_on,18,0,2,,,,,,,,0,71,0
69960,note_on,18,0,1,,,,,,,,0,71,0
69960,note_on,0,0,2,,,,,,,,0,61,55
69962,note_on,2,0,1,,,,,,,,0,59,0
69962,note_on,2,0,2,,,,,,,,0,59,0
69980,note_on,18,0,2,,,,,,,,0,59,55
69980,note_on,18,0,1,,,,,,,,0,59,55
69982,note_on,2,0,2,,,,,,,,0,61,0
69982,note_on,2,0,1,,,,,,,,0,61,0
70000,note_on,18,0,1,,,,,,,,0,61,56
70000,note_on,18,0,2,,,,,,,,0,61,56
70002,note_on,2,0,1,,,,,,,,0,59,0
70002,note_on,2,0,2,,,,,,,,0,59,0
70020,note_on,0,0,2,,,,,,,,0,75,64
70020,note_on,0,0,2,,,,,,,,0,59,56
70020,note_on,18,0,2,,,,,,,,0,73,0
70020,note_on,18,0,1,,,,,,,,0,73,0
70020,note_on,0,0,1,,,,,,,,0,59,56
70020,note_on,0,0,1,,,,,,,,0,75,64
70022,note_on,2,0,2,,,,,,,,0,61,0
70022,note_on,2,0,1,,,,,,,,0,61,0
70040,note_on,18,0,2,,,,,,,,0,61,56
70040,note_on,18,0,1,,,,,,,,0,61,56
70042,note_on,2,0,1,,,,,,,,0,59,0
70042,note_on,2,0,2,,,,,,,,0,59,0
70060,note_on,18,0,2,,,,,,,,0,59,56
70060,note_on,18,0,1,,,,,,,,0,59,56
70062,note_on,2,0,2,,,,,,,,0,61,0
70062,note_on,2,0,1,,,,,,,,0,61,0
70080,note_on,18,0,1,,,,,,,,0,75,0
70080,note_on,0,0,1,,,,,,,,0,61,57
70080,note_on,0,0,1,,,,,,,,0,76,64
70080,note_on,18,0,2,,,,,,,,0,75,0
70080,note_on,0,0,2,,,,,,,,0,61,57
70080,note_on,0,0,2,,,,,,,,0,76,64
70082,note_on,2,0,1,,,,,,,,0,59,0
70082,note_on,2,0,2,,,,,,,,0,59,0
70100,note_on,18,0,1,,,,,,,,0,59,57
70100,note_on,18,0,2,,,,,,,,0,59,57
70102,note_on,2,0,2,,,,,,,,0,61,0
70102,note_on,2,0,1,,,,,,,,0,61,0
70120,note_on,18,0,2,,,,,,,,0,61,57
70120,note_on,18,0,1,,,,,,,,0,61,57
70122,note_on,2,0,1,,,,,,,,0,59,0
70122,note_on,2,0,2,,,,,,,,0,59,0
70140,note_on,0,0,1,,,,,,,,0,73,64
70140,note_on,0,0,2,,,,,,,,0,73,64
70140,note_on,0,0,2,,,,,,,,0,59,58
70140,note_on,18,0,2,,,,,,,,0,76,0
70140,note_on,18,0,1,,,,,,,,0,76,0
70140,note_on,0,0,1,,,,,,,,0,59,58
70142,note_on,2,0,1,,,,,,,,0,61,0
70142,note_on,2,0,2,,,,,,,,0,61,0
70160,note_on,18,0,1,,,,,,,,0,61,58
70160,note_on,18,0,2,,,,,,,,0,61,58
70162,note_on,2,0,1,,,,,,,,0,59,0
70162,note_on,2,0,2,,,,,,,,0,59,0
70180,note_on,18,0,2,,,,,,,,0,59,58
70180,note_on,18,0,1,,,,,,,,0,59,58
70182,note_on,2,0,2,,,,,,,,0,61,0
70182,note_on,2,0,1,,,,,,,,0,61,0
70200,note_on,0,0,1,,,,,,,,0,75,64
70200,note_on,18,0,1,,,,,,,,0,73,0
70200,note_on,0,0,2,,,,,,,,0,61,59
70200,note_on,0,0,1,,,,,,,,0,61,59
70200,note_on,18,0,2,,,,,,,,0,73,0
70200,note_on,0,0,2,,,,,,,,0,75,64
70202,note_on,2,0,1,,,,,,,,0,59,0
70202,note_on,2,0,2,,,,,,,,0,59,0
70220,note_on,18,0,2,,,,,,,,0,59,59
70220,note_on,18,0,1,,,,,,,,0,59,59
70222,note_on,2,0,1,,,,,,,,0,61,0
70222,note_on,2,0,2,,,,,,,,0,61,0
70240,note_on,18,0,1,,,,,,,,0,61,59
70240,note_on,18,0,2,,,,,,,,0,61,59
70242,note_on,2,0,1,,,,,,,,0,59,0
70242,note_on,2,0,2,,,,,,,,0,59,0
70260,note_on,0,0,1,,,,,,,,0,73,64
70260,note_on,0,0,1,,,,,,,,0,59,60
70260,note_on,18,0,1,,,,,,,,0,75,0
70260,note_on,18,0,2,,,,,,,,0,75,0
70260,note_on,0,0,2,,,,,,,,0,73,64
70260,note_on,0,0,2,,,,,,,,0,59,60
70262,note_on,2,0,1,,,,,,,,0,61,0
70262,note_on,2,0,2,,,,,,,,0,61,0
70280,note_on,18,0,2,,,,,,,,0,61,60
70280,note_on,18,0,1,,,,,,,,0,61,60
70282,note_on,2,0,2,,,,,,,,0,59,0
70282,note_on,2,0,1,,,,,,,,0,59,0
70300,note_on,18,0,2,,,,,,,,0,59,60
70300,note_on,18,0,1,,,,,,,,0,59,60
70302,note_on,2,0,2,,,,,,,,0,61,0
70302,note_on,2,0,1,,,,,,,,0,61,0
70320,note_on,0,0,1,,,,,,,,0,71,64
70320,note_on,0,0,1,,,,,,,,0,61,61
70320,note_on,0,0,2,,,,,,,,0,61,61
70320,note_on,18,0,2,,,,,,,,0,73,0
70320,note_on,0,0,2,,,,,,,,0,71,64
70320,note_on,18,0,1,,,,,,,,0,73,0
70322,note_on,2,0,1,,,,,,,,0,59,0
70322,note_on,2,0,2,,,,,,,,0,59,0
70340,note_on,18,0,1,,,,,,,,0,59,61
70340,note_on,18,0,2,,,,,,,,0,59,61
70342,note_on,2,0,2,,,,,,,,0,61,0
70342,note_on,2,0,1,,,,,,,,0,61,0
70360,note_on,18,0,1,,,,,,,,0,61,61
70360,note_on,18,0,2,,,,,,,,0,61,61
70362,note_on,2,0,1,,,,,,,,0,59,0
70362,note_on,2,0,2,,,,,,,,0,59,0
70380,note_on,0,0,2,,,,,,,,0,69,64
70380,note_on,18,0,2,,,,,,,,0,71,0
70380,note_on,18,0,1,,,,,,,,0,71,0
70380,note_on,0,0,1,,,,,,,,0,59,61
70380,note_on,0,0,1,,,,,,,,0,69,64
70380,note_on,0,0,2,,,,,,,,0,59,61
70382,note_on,2,0,2,,,,,,,,0,61,0
70382,note_on,2,0,1,,,,,,,,0,61,0
70400,note_on,18,0,1,,,,,,,,0,61,62
70400,note_on,18,0,2,,,,,,,,0,61,62
70402,note_on,2,0,1,,,,,,,,0,59,0
70402,note_on,2,0,2,,,,,,,,0,59,0
70420,note_on,18,0,1,,,,,,,,0,59,62
70420,note_on,18,0,2,,,,,,,,0,59,62
70422,note_on,2,0,2,,,,,,,,0,61,0
70422,note_on,2,0,1,,,,,,,,0,61,0
70440,note_on,0,0,2,,,,,,,,0,61,62
70440,note_on,18,0,2,,,,,,,,0,69,0
70440,note_on,0,0,2,,,,,,,,0,67,64
70440,note_on,0,0,1,,,,,,,,0,61,62
70440,note_on,18,0,1,,,,,,,,0,69,0
70440,note_on,0,0,1,,,,,,,,0,67,64
70442,note_on,2,0,1,,,,,,,,0,59,0
70442,note_on,2,0,2,,,,,,,,0,59,0
70460,note_on,18,0,1,,,,,,,,0,59,63
70460,note_on,18,0,2,,,,,,,,0,59,63
70462,note_on,2,0,1,,,,,,,,0,61,0
70462,note_on,2,0,2,,,,,,,,0,61,0
70480,note_on,18,0,2,,,,,,,,0,61,63
70480,note_on,18,0,1,,,,,,,,0,61,63
70482,note_on,2,0,2,,,,,,,,0,59,0
70482,note_on,2,0,1,,,,,,,,0,59,0
70500,note_on,0,0,1,,,,,,,,0,66,64
70500,note_on,0,0,1,,,,,,,,0,59,63
70500,note_on,18,0,1,,,,,,,,0,67,0
70500,note_on,0,0,2,,,,,,,,0,66,64
70500,note_on,18,0,2,,,,,,,,0,67,0
70500,note_on,0,0,2,,,,,,,,0,59,63
70502,note_on,2,0,2,,,,,,,,0,61,0
70502,note_on,2,0,1,,,,,,,,0,61,0
70550,note_on,48,0,2,,,,,,,,0,66,0
70550,note_on,48,0,1,,,,,,,,0,66,0
70560,note_on,10,0,1,,,,,,,,0,66,72
70560,note_on,10,0,2,,,,,,,,0,66,72
70566,note_on,6,0,1,,,,,,,,0,59,0
70566,note_on,6,0,2,,,,,,,,0,59,0
70580,note_on,14,0,1,,,,,,,,0,66,0
70580,note_on,14,0,2,,,,,,,,0,66,0
70580,note_on,0,0,2,,,,,,,,0,64,48
70580,note_on,0,0,1,,,,,,,,0,64,48
70600,note_on,20,0,2,,,,,,,,0,66,48
70600,note_on,20,0,1,,,,,,,,0,66,48
70602,note_on,2,0,2,,,,,,,,0,64,0
70602,note_on,2,0,1,,,,,,,,0,64,0
70620,note_on,18,0,2,,,,,,,,0,64,48
70620,note_on,0,0,2,,,,,,,,0,56,64
70620,note_on,0,0,1,,,,,,,,0,56,64
70620,note_on,18,0,1,,,,,,,,0,64,48
70622,note_on,2,0,2,,,,,,,,0,66,0
70622,note_on,2,0,1,,,,,,,,0,66,0
70640,note_on,18,0,1,,,,,,,,0,66,48
70640,note_on,18,0,2,,,,,,,,0,66,48
70642,note_on,2,0,2,,,,,,,,0,64,0
70642,note_on,2,0,1,,,,,,,,0,64,0
70660,note_on,18,0,1,,,,,,,,0,64,49
70660,note_on,18,0,2,,,,,,,,0,64,49
70662,note_on,2,0,1,,,,,,,,0,66,0
70662,note_on,2,0,2,,,,,,,,0,66,0
70680,note_on,18,0,2,,,,,,,,0,56,0
70680,note_on,0,0,2,,,,,,,,0,66,49
70680,note_on,0,0,2,,,,,,,,0,57,64
70680,note_on,0,0,1,,,,,,,,0,66,49
70680,note_on,0,0,1,,,,,,,,0,57,64
70680,note_on,18,0,1,,,,,,,,0,56,0
70682,note_on,2,0,1,,,,,,,,0,64,0
70682,note_on,2,0,2,,,,,,,,0,64,0
70700,note_on,18,0,1,,,,,,,,0,64,49
70700,note_on,18,0,2,,,,,,,,0,64,49
70702,note_on,2,0,2,,,,,,,,0,66,0
70702,note_on,2,0,1,,,,,,,,0,66,0
70720,note_on,18,0,2,,,,,,,,0,66,50
70720,note_on,18,0,1,,,,,,,,0,66,50
70722,note_on,2,0,1,,,,,,,,0,64,0
70722,note_on,2,0,2,,,,,,,,0,64,0
70740,note_on,0,0,1,,,,,,,,0,59,64
70740,note_on,0,0,2,,,,,,,,0,64,50
70740,note_on,0,0,2,,,,,,,,0,59,64
70740,note_on,18,0,1,,,,,,,,0,57,0
70740,note_on,0,0,1,,,,,,,,0,64,50
70740,note_on,18,0,2,,,,,,,,0,57,0
70742,note_on,2,0,1,,,,,,,,0,66,0
70742,note_on,2,0,2,,,,,,,,0,66,0
70760,note_on,18,0,2,,,,,,,,0,66,50
70760,note_on,18,0,1,,,,,,,,0,66,50
70762,note_on,2,0,2,,,,,,,,0,64,0
70762,note_on,2,0,1,,,,,,,,0,64,0
70780,note_on,18,0,2,,,,,,,,0,64,51
70780,note_on,18,0,1,,,,,,,,0,64,51
70782,note_on,2,0,1,,,,,,,,0,66,0
70782,note_on,2,0,2,,,,,,,,0,66,0
70800,note_on,18,0,2,,,,,,,,0,59,0
70800,note_on,0,0,2,,,,,,,,0,60,64
70800,note_on,0,0,1,,,,,,,,0,66,51
70800,note_on,18,0,1,,,,,,,,0,59,0
70800,note_on,0,0,2,,,,,,,,0,66,51
70800,note_on,0,0,1,,,,,,,,0,60,64
70802,note_on,2,0,1,,,,,,,,0,64,0
70802,note_on,2,0,2,,,,,,,,0,64,0
70820,note_on,18,0,2,,,,,,,,0,64,51
70820,note_on,18,0,1,,,,,,,,0,64,51
70822,note_on,2,0,1,,,,,,,,0,66,0
70822,note_on,2,0,2,,,,,,,,0,66,0
70840,note_on,18,0,1,,,,,,,,0,66,51
70840,note_on,18,0,2,,,,,,,,0,66,51
70842,note_on,2,0,1,,,,,,,,0,64,0
70842,note_on,2,0,2,,,,,,,,0,64,0
70860,note_on,0,0,1,,,,,,,,0,57,64
70860,note_on,0,0,1,,,,,,,,0,64,52
70860,note_on,18,0,1,,,,,,,,0,60,0
70860,note_on,0,0,2,,,,,,,,0,57,64
70860,note_on,18,0,2,,,,,,,,0,60,0
70860,note_on,0,0,2,,,,,,,,0,64,52
70862,note_on,2,0,1,,,,,,,,0,66,0
70862,note_on,2,0,2,,,,,,,,0,66,0
70880,note_on,18,0,1,,,,,,,,0,66,52
70880,note_on,18,0,2,,,,,,,,0,66,52
70882,note_on,2,0,2,,,,,,,,0,64,0
70882,note_on,2,0,1,,,,,,,,0,64,0
70900,note_on,18,0,2,,,,,,,,0,64,52
70900,note_on,18,0,1,,,,,,,,0,64,52
70902,note_on,2,0,1,,,,,,,,0,66,0
70902,note_on,2,0,2,,,,,,,,0,66,0
70920,note_on,0,0,1,,,,,,,,0,66,53
70920,note_on,18,0,1,,,,,,,,0,57,0
70920,note_on,0,0,2,,,,,,,,0,59,64
70920,note_on,18,0,2,,,,,,,,0,57,0
70920,note_on,0,0,2,,,,,,,,0,66,53
70920,note_on,0,0,1,,,,,,,,0,59,64
70922,note_on,2,0,1,,,,,,,,0,64,0
70922,note_on,2,0,2,,,,,,,,0,64,0
70940,note_on,18,0,2,,,,,,,,0,64,53
70940,note_on,18,0,1,,,,,,,,0,64,53
70942,note_on,2,0,1,,,,,,,,0,66,0
70942,note_on,2,0,2,,,,,,,,0,66,0
70960,note_on,18,0,1,,,,,,,,0,66,53
70960,note_on,18,0,2,,,,,,,,0,66,53
70962,note_on,2,0,2,,,,,,,,0,64,0
70962,note_on,2,0,1,,,,,,,,0,64,0
70980,note_on,0,0,2,,,,,,,,0,57,64
70980,note_on,0,0,2,,,,,,,,0,64,53
70980,note_on,18,0,2,,,,,,,,0,59,0
70980,note_on,18,0,1,,,,,,,,0,59,0
70980,note_on,0,0,1,,,,,,,,0,57,64
70980,note_on,0,0,1,,,,,,,,0,64,53
70982,note_on,2,0,1,,,,,,,,0,66,0
70982,note_on,2,0,2,,,,,,,,0,66,0
71000,note_on,18,0,1,,,,,,,,0,66,54
71000,note_on,18,0,2,,,,,,,,0,66,54
71002,note_on,2,0,1,,,,,,,,0,64,0
71002,note_on,2,0,2,,,,,,,,0,64,0
71020,note_on,18,0,2,,,,,,,,0,64,54
71020,note_on,18,0,1,,,,,,,,0,64,54
71022,note_on,2,0,2,,,,,,,,0,66,0
71022,note_on,2,0,1,,,,,,,,0,66,0
71040,note_on,0,0,1,,,,,,,,0,56,64
71040,note_on,0,0,2,,,,,,,,0,56,64
71040,note_on,0,0,2,,,,,,,,0,66,54
71040,note_on,18,0,2,,,,,,,,0,57,0
71040,note_on,18,0,1,,,,,,,,0,57,0
71040,note_on,0,0,1,,,,,,,,0,66,54
71042,note_on,2,0,1,,,,,,,,0,64,0
71042,note_on,2,0,2,,,,,,,,0,64,0
71060,note_on,18,0,2,,,,,,,,0,64,55
71060,note_on,18,0,1,,,,,,,,0,64,55
71062,note_on,2,0,1,,,,,,,,0,66,0
71062,note_on,2,0,2,,,,,,,,0,66,0
71080,note_on,18,0,2,,,,,,,,0,66,55
71080,note_on,18,0,1,,,,,,,,0,66,55
71082,note_on,2,0,2,,,,,,,,0,64,0
71082,note_on,2,0,1,,,,,,,,0,64,0
71100,note_on,0,0,1,,,,,,,,0,64,55
71100,note_on,18,0,2,,,,,,,,0,56,0
71100,note_on,0,0,1,,,,,,,,0,54,64
71100,note_on,18,0,1,,,,,,,,0,56,0
71100,note_on,0,0,2,,,,,,,,0,64,55
71100,note_on,0,0,2,,,,,,,,0,54,64
71102,note_on,2,0,2,,,,,,,,0,66,0
71102,note_on,2,0,1,,,,,,,,0,66,0
71120,note_on,18,0,1,,,,,,,,0,66,55
71120,note_on,18,0,2,,,,,,,,0,66,55
71122,note_on,2,0,1,,,,,,,,0,64,0
71122,note_on,2,0,2,,,,,,,,0,64,0
71140,note_on,18,0,2,,,,,,,,0,64,56
71140,note_on,18,0,1,,,,,,,,0,64,56
71142,note_on,2,0,1,,,,,,,,0,66,0
71142,note_on,2,0,2,,,,,,,,0,66,0
71160,note_on,0,0,2,,,,,,,,0,52,64
71160,note_on,0,0,2,,,,,,,,0,66,56
71160,note_on,18,0,2,,,,,,,,0,54,0
71160,note_on,18,0,1,,,,,,,,0,54,0
71160,note_on,0,0,1,,,,,,,,0,66,56
71160,note_on,0,0,1,,,,,,,,0,52,64
71162,note_on,2,0,1,,,,,,,,0,64,0
71162,note_on,2,0,2,,,,,,,,0,64,0
71180,note_on,18,0,1,,,,,,,,0,64,56
71180,note_on,18,0,2,,,,,,,,0,64,56
71182,note_on,2,0,2,,,,,,,,0,66,0
71182,note_on,2,0,1,,,,,,,,0,66,0
71200,note_on,18,0,1,,,,,,,,0,66,57
71200,note_on,18,0,2,,,,,,,,0,66,57
71202,note_on,2,0,2,,,,,,,,0,64,0
71202,note_on,2,0,1,,,,,,,,0,64,0
71220,note_on,18,0,1,,,,,,,,0,52,0
71220,note_on,18,0,2,,,,,,,,0,52,0
71220,note_on,0,0,2,,,,,,,,0,64,57
71220,note_on,0,0,1,,,,,,,,0,64,57
71220,note_on,0,0,1,,,,,,,,0,50,64
71220,note_on,0,0,2,,,,,,,,0,50,64
71222,note_on,2,0,1,,,,,,,,0,66,0
71222,note_on,2,0,2,,,,,,,,0,66,0
71240,note_on,18,0,1,,,,,,,,0,66,57
71240,note_on,18,0,2,,,,,,,,0,66,57
71242,note_on,2,0,2,,,,,,,,0,64,0
71242,note_on,2,0,1,,,,,,,,0,64,0
71260,note_on,18,0,2,,,,,,,,0,64,57
71260,note_on,18,0,1,,,,,,,,0,64,57
71262,note_on,2,0,1,,,,,,,,0,66,0
71262,note_on,2,0,2,,,,,,,,0,66,0
71280,note_on,18,0,1,,,,,,,,0,50,0
71280,note_on,0,0,2,,,,,,,,0,48,64
71280,note_on,0,0,2,,,,,,,,0,66,58
71280,note_on,18,0,2,,,,,,,,0,50,0
71280,note_on,0,0,1,,,,,,,,0,48,64
71280,note_on,0,0,1,,,,,,,,0,66,58
71282,note_on,2,0,1,,,,,,,,0,64,0
71282,note_on,2,0,2,,,,,,,,0,64,0
71300,note_on,18,0,1,,,,,,,,0,64,58
71300,note_on,18,0,2,,,,,,,,0,64,58
71302,note_on,2,0,2,,,,,,,,0,66,0
71302,note_on,2,0,1,,,,,,,,0,66,0
71320,note_on,18,0,2,,,,,,,,0,66,58
71320,note_on,18,0,1,,,,,,,,0,66,58
71322,note_on,2,0,1,,,,,,,,0,64,0
71322,note_on,2,0,2,,,,,,,,0,64,0
71340,note_on,0,0,1,,,,,,,,0,52,64
71340,note_on,18,0,1,,,,,,,,0,48,0
71340,note_on,18,0,2,,,,,,,,0,48,0
71340,note_on,0,0,2,,,,,,,,0,52,64
71340,note_on,0,0,2,,,,,,,,0,64,59
71340,note_on,0,0,1,,,,,,,,0,64,59
71342,note_on,2,0,1,,,,,,,,0,66,0
71342,note_on,2,0,2,,,,,,,,0,66,0
71360,note_on,18,0,2,,,,,,,,0,66,59
71360,note_on,18,0,1,,,,,,,,0,66,59
71362,note_on,2,0,2,,,,,,,,0,64,0
71362,note_on,2,0,1,,,,,,,,0,64,0
71380,note_on,18,0,2,,,,,,,,0,64,59
71380,note_on,18,0,1,,,,,,,,0,64,59
71382,note_on,2,0,2,,,,,,,,0,66,0
71382,note_on,2,0,1,,,,,,,,0,66,0
71400,note_on,0,0,1,,,,,,,,0,54,64
71400,note_on,18,0,1,,,,,,,,0,52,0
71400,note_on,0,0,1,,,,,,,,0,66,60
71400,note_on,0,0,2,,,,,,,,0,54,64
71400,note_on,0,0,2,,,,,,,,0,66,60
71400,note_on,18,0,2,,,,,,,,0,52,0
71402,note_on,2,0,1,,,,,,,,0,64,0
71402,note_on,2,0,2,,,,,,,,0,64,0
71420,note_on,18,0,2,,,,,,,,0,64,60
71420,note_on,18,0,1,,,,,,,,0,64,60
71422,note_on,2,0,2,,,,,,,,0,66,0
71422,note_on,2,0,1,,,,,,,,0,66,0
71440,note_on,18,0,1,,,,,,,,0,66,60
71440,note_on,18,0,2,,,,,,,,0,66,60
71442,note_on,2,0,1,,,,,,,,0,64,0
71442,note_on,2,0,2,,,,,,,,0,64,0
71460,note_on,18,0,2,,,,,,,,0,54,0
71460,note_on,0,0,1,,,,,,,,0,56,64
71460,note_on,0,0,2,,,,,,,,0,56,64
71460,note_on,18,0,1,,,,,,,,0,54,0
71460,note_on,0,0,1,,,,,,,,0,64,60
71460,note_on,0,0,2,,,,,,,,0,64,60
71462,note_on,2,0,1,,,,,,,,0,66,0
71462,note_on,2,0,2,,,,,,,,0,66,0
71480,note_on,18,0,1,,,,,,,,0,66,61
71480,note_on,18,0,2,,,,,,,,0,66,61
71482,note_on,2,0,2,,,,,,,,0,64,0
71482,note_on,2,0,1,,,,,,,,0,64,0
71500,note_on,18,0,2,,,,,,,,0,64,61
71500,note_on,18,0,1,,,,,,,,0,64,61
71502,note_on,2,0,2,,,,,,,,0,66,0
71502,note_on,2,0,1,,,,,,,,0,66,0
71520,note_on,18,0,2,,,,,,,,0,56,0
71520,note_on,0,0,2,,,,,,,,0,66,61
71520,note_on,0,0,2,,,,,,,,0,57,64
71520,note_on,0,0,1,,,,,,,,0,57,64
71520,note_on,0,0,1,,,,,,,,0,66,61
71520,note_on,18,0,1,,,,,,,,0,56,0
71522,note_on,2,0,2,,,,,,,,0,64,0
71522,note_on,2,0,1,,,,,,,,0,64,0
71540,note_on,18,0,2,,,,,,,,0,64,62
71540,note_on,18,0,1,,,,,,,,0,64,62
71542,note_on,2,0,2,,,,,,,,0,66,0
71542,note_on,2,0,1,,,,,,,,0,66,0
71560,note_on,18,0,1,,,,,,,,0,66,62
71560,note_on,18,0,2,,,,,,,,0,66,62
71562,note_on,2,0,1,,,,,,,,0,64,0
71562,note_on,2,0,2,,,,,,,,0,64,0
71580,note_on,0,0,2,,,,,,,,0,54,64
71580,note_on,18,0,2,,,,,,,,0,57,0
71580,note_on,0,0,2,,,,,,,,0,64,62
71580,note_on,0,0,1,,,,,,,,0,54,64
71580,note_on,0,0,1,,,,,,,,0,64,62
71580,note_on,18,0,1,,,,,,,,0,57,0
71582,note_on,2,0,1,,,,,,,,0,66,0
71582,note_on,2,0,2,,,,,,,,0,66,0
71600,note_on,18,0,2,,,,,,,,0,66,62
71600,note_on,18,0,1,,,,,,,,0,66,62
71602,note_on,2,0,1,,,,,,,,0,64,0
71602,note_on,2,0,2,,,,,,,,0,64,0
71620,note_on,18,0,1,,,,,,,,0,64,63
71620,note_on,18,0,2,,,,,,,,0,64,63
71622,note_on,2,0,2,,,,,,,,0,66,0
71622,note_on,2,0,1,,,,,,,,0,66,0
71640,note_on,18,0,1,,,,,,,,0,54,0
71640,note_on,0,0,1,,,,,,,,0,56,64
71640,note_on,0,0,1,,,,,,,,0,66,63
71640,note_on,0,0,2,,,,,,,,0,56,64
71640,note_on,18,0,2,,,,,,,,0,54,0
71640,note_on,0,0,2,,,,,,,,0,66,63
71642,note_on,2,0,2,,,,,,,,0,64,0
71642,note_on,2,0,1,,,,,,,,0,64,0
71660,note_on,18,0,2,,,,,,,,0,64,63
71660,note_on,18,0,1,,,,,,,,0,64,63
71662,note_on,2,0,2,,,,,,,,0,66,0
71662,note_on,2,0,1,,,,,,,,0,66,0
71700,note_on,0,0,2,,,,,,,,0,54,64
71700,note_on,38,0,2,,,,,,,,0,56,0
71700,note_on,38,0,1,,,,,,,,0,56,0
71700,note_on,0,0,1,,,,,,,,0,54,64
71760,note_on,60,0,2,,,,,,,,0,54,0
71760,note_on,60,0,1,,,,,,,,0,54,0
71760,note_on,0,0,2,,,,,,,,0,52,64
71760,note_on,0,0,2,,,,,,,,0,74,64
71760,note_on,0,0,1,,,,,,,,0,74,64
71760,note_on,0,0,1,,,,,,,,0,52,64
71770,note_on,10,0,2,,,,,,,,0,64,0
71770,note_on,10,0,1,,,,,,,,0,64,0
71780,note_on,0,0,2,,,,,,,,0,72,64
71780,note_on,10,0,2,,,,,,,,0,74,0
71780,note_on,10,0,1,,,,,,,,0,74,0
71780,note_on,0,0,1,,,,,,,,0,72,64
71800,note_on,20,0,2,,,,,,,,0,72,0
71800,note_on,0,0,2,,,,,,,,0,74,64
71800,note_on,0,0,1,,,,,,,,0,74,64
71800,note_on,20,0,1,,,,,,,,0,72,0
71820,note_on,20,0,2,,,,,,,,0,52,0
71820,note_on,0,0,2,,,,,,,,0,50,64
71820,note_on,0,0,1,,,,,,,,0,50,64
71820,note_on,20,0,1,,,,,,,,0,52,0
71880,note_on,0,0,1,,,,,,,,0,48,64
71880,note_on,60,0,1,,,,,,,,0,50,0
71880,note_on,60,0,2,,,,,,,,0,50,0
71880,note_on,0,0,2,,,,,,,,0,48,64
71940,note_on,0,0,1,,,,,,,,0,47,64
71940,note_on,60,0,1,,,,,,,,0,48,0
71940,note_on,60,0,2,,,,,,,,0,48,0
71940,note_on,0,0,2,,,,,,,,0,47,64
72000,note_on,60,0,1,,,,,,,,0,47,0
72000,note_on,60,0,2,,,,,,,,0,47,0
72000,note_on,0,0,2,,,,,,,,0,45,64
72000,note_on,0,0,1,,,,,,,,0,45,64
72060,note_on,60,0,2,,,,,,,,0,74,0
72060,note_on,60,0,1,,,,,,,,0,74,0
72060,note_on,0,0,1,,,,,,,,0,76,64
72060,note_on,0,0,2,,,,,,,,0,76,64
72120,note_on,0,0,2,,,,,,,,0,52,64
72120,note_on,0,0,2,,,,,,,,0,45,0
72120,note_on,60,0,1,,,,,,,,0,76,0
72120,note_on,0,0,1,,,,,,,,0,45,0
72120,note_on,0,0,1,,,,,,,,0,74,64
72120,note_on,60,0,2,,,,,,,,0,76,0
72120,note_on,0,0,1,,,,,,,,0,52,64
72120,note_on,0,0,2,,,,,,,,0,74,64
72180,note_on,60,0,1,,,,,,,,0,74,0
72180,note_on,0,0,2,,,,,,,,0,72,64
72180,note_on,60,0,2,,,,,,,,0,74,0
72180,note_on,0,0,1,,,,,,,,0,72,64
72240,note_on,0,0,1,,,,,,,,0,52,0
72240,note_on,60,0,1,,,,,,,,0,72,0
72240,note_on,0,0,1,,,,,,,,0,71,64
72240,note_on,0,0,2,,,,,,,,0,71,64
72240,note_on,60,0,2,,,,,,,,0,72,0
72240,note_on,0,0,2,,,,,,,,0,52,0
72240,note_on,0,0,2,,,,,,,,0,56,64
72240,note_on,0,0,1,,,,,,,,0,56,64
72300,note_on,60,0,2,,,,,,,,0,71,0
72300,note_on,0,0,1,,,,,,,,0,74,64
72300,note_on,0,0,2,,,,,,,,0,74,64
72300,note_on,60,0,1,,,,,,,,0,71,0
72360,note_on,0,0,1,,,,,,,,0,57,64
72360,note_on,0,0,1,,,,,,,,0,72,64
72360,note_on,0,0,1,,,,,,,,0,56,0
72360,note_on,60,0,1,,,,,,,,0,74,0
72360,note_on,60,0,2,,,,,,,,0,74,0
72360,note_on,0,0,2,,,,,,,,0,72,64
72360,note_on,0,0,2,,,,,,,,0,56,0
72360,note_on,0,0,2,,,,,,,,0,57,64
72420,note_on,0,0,1,,,,,,,,0,59,64
72420,note_on,60,0,1,,,,,,,,0,57,0
72420,note_on,60,0,2,,,,,,,,0,57,0
72420,note_on,0,0,2,,,,,,,,0,59,64
72480,note_on,0,0,1,,,,,,,,0,57,64
72480,note_on,0,0,1,,,,,,,,0,76,64
72480,note_on,0,0,1,,,,,,,,0,72,0
72480,note_on,60,0,1,,,,,,,,0,59,0
72480,note_on,0,0,2,,,,,,,,0,72,0
72480,note_on,60,0,2,,,,,,,,0,59,0
72480,note_on,0,0,2,,,,,,,,0,76,64
72480,note_on,0,0,2,,,,,,,,0,57,64
72540,note_on,60,0,1,,,,,,,,0,57,0
72540,note_on,0,0,2,,,,,,,,0,55,64
72540,note_on,0,0,1,,,,,,,,0,55,64
72540,note_on,60,0,2,,,,,,,,0,57,0
72600,note_on,60,0,2,,,,,,,,0,55,0
72600,note_on,0,0,2,,,,,,,,0,76,0
72600,note_on,0,0,2,,,,,,,,0,81,64
72600,note_on,0,0,2,,,,,,,,0,54,64
72600,note_on,60,0,1,,,,,,,,0,55,0
72600,note_on,0,0,1,,,,,,,,0,81,64
72600,note_on,0,0,1,,,,,,,,0,54,64
72600,note_on,0,0,1,,,,,,,,0,76,0
72660,note_on,0,0,1,,,,,,,,0,57,64
72660,note_on,0,0,2,,,,,,,,0,57,64
72660,note_on,60,0,2,,,,,,,,0,54,0
72660,note_on,60,0,1,,,,,,,,0,54,0
72720,note_on,60,0,1,,,,,,,,0,57,0
72720,note_on,0,0,1,,,,,,,,0,51,64
72720,note_on,0,0,2,,,,,,,,0,51,64
72720,note_on,60,0,2,,,,,,,,0,57,0
72780,note_on,60,0,2,,,,,,,,0,81,0
72780,note_on,60,0,1,,,,,,,,0,81,0
72780,note_on,0,0,1,,,,,,,,0,83,64
72780,note_on,0,0,2,,,,,,,,0,83,64
72840,note_on,60,0,1,,,,,,,,0,83,0
72840,note_on,0,0,1,,,,,,,,0,51,0
72840,note_on,0,0,1,,,,,,,,0,60,64
72840,note_on,0,0,1,,,,,,,,0,81,64
72840,note_on,60,0,2,,,,,,,,0,83,0
72840,note_on,0,0,2,,,,,,,,0,60,64
72840,note_on,0,0,2,,,,,,,,0,81,64
72840,note_on,0,0,2,,,,,,,,0,51,0
72860,note_on,20,0,2,,,,,,,,0,60,0
72860,note_on,0,0,2,,,,,,,,0,59,64
72860,note_on,20,0,1,,,,,,,,0,60,0
72860,note_on,0,0,1,,,,,,,,0,59,64
72880,note_on,0,0,2,,,,,,,,0,60,64
72880,note_on,20,0,2,,,,,,,,0,59,0
72880,note_on,20,0,1,,,,,,,,0,59,0
72880,note_on,0,0,1,,,,,,,,0,60,64
72900,note_on,0,0,2,,,,,,,,0,79,64
72900,note_on,20,0,2,,,,,,,,0,81,0
72900,note_on,0,0,1,,,,,,,,0,79,64
72900,note_on,20,0,1,,,,,,,,0,81,0
72960,note_on,0,0,2,,,,,,,,0,78,64
72960,note_on,60,0,2,,,,,,,,0,79,0
72960,note_on,0,0,1,,,,,,,,0,78,64
72960,note_on,60,0,1,,,,,,,,0,79,0
73020,note_on,60,0,2,,,,,,,,0,78,0
73020,note_on,60,0,1,,,,,,,,0,78,0
73020,note_on,0,0,2,,,,,,,,0,81,64
73020,note_on,0,0,1,,,,,,,,0,81,64
73080,note_on,60,0,1,,,,,,,,0,81,0
73080,note_on,0,0,2,,,,,,,,0,75,64
73080,note_on,60,0,2,,,,,,,,0,81,0
73080,note_on,0,0,1,,,,,,,,0,75,64
73140,note_on,0,0,1,,,,,,,,0,57,64
73140,note_on,60,0,1,,,,,,,,0,60,0
73140,note_on,0,0,2,,,,,,,,0,57,64
73140,note_on,60,0,2,,,,,,,,0,60,0
73200,note_on,0,0,2,,,,,,,,0,84,64
73200,note_on,0,0,2,,,,,,,,0,54,64
73200,note_on,0,0,2,,,,,,,,0,75,0
73200,note_on,60,0,1,,,,,,,,0,57,0
73200,note_on,0,0,1,,,,,,,,0,75,0
73200,note_on,0,0,1,,,,,,,,0,84,64
73200,note_on,0,0,1,,,,,,,,0,54,64
73200,note_on,60,0,2,,,,,,,,0,57,0
73220,note_on,20,0,2,,,,,,,,0,84,0
73220,note_on,0,0,2,,,,,,,,0,83,64
73220,note_on,20,0,1,,,,,,,,0,84,0
73220,note_on,0,0,1,,,,,,,,0,83,64
73240,note_on,0,0,2,,,,,,,,0,84,64
73240,note_on,20,0,2,,,,,,,,0,83,0
73240,note_on,20,0,1,,,,,,,,0,83,0
73240,note_on,0,0,1,,,,,,,,0,84,64
73260,note_on,0,0,2,,,,,,,,0,57,64
73260,note_on,20,0,2,,,,,,,,0,54,0
73260,note_on,20,0,1,,,,,,,,0,54,0
73260,note_on,0,0,1,,,,,,,,0,57,64
73320,note_on,60,0,1,,,,,,,,0,57,0
73320,note_on,0,0,1,,,,,,,,0,51,64
73320,note_on,60,0,2,,,,,,,,0,57,0
73320,note_on,0,0,2,,,,,,,,0,51,64
73380,note_on,0,0,2,,,,,,,,0,54,64
73380,note_on,60,0,2,,,,,,,,0,51,0
73380,note_on,60,0,1,,,,,,,,0,51,0
73380,note_on,0,0,1,,,,,,,,0,54,64
73440,note_on,0,0,2,,,,,,,,0,47,64
73440,note_on,60,0,1,,,,,,,,0,54,0
73440,note_on,0,0,1,,,,,,,,0,47,64
73440,note_on,60,0,2,,,,,,,,0,54,0
73500,note_on,60,0,2,,,,,,,,0,84,0
73500,note_on,0,0,1,,,,,,,,0,83,64
73500,note_on,0,0,2,,,,,,,,0,83,64
73500,note_on,60,0,1,,,,,,,,0,84,0
73560,note_on,0,0,2,,,,,,,,0,81,64
73560,note_on,0,0,2,,,,,,,,0,64,64
73560,note_on,0,0,2,,,,,,,,0,47,0
73560,note_on,60,0,2,,,,,,,,0,83,0
73560,note_on,0,0,1,,,,,,,,0,81,64
73560,note_on,0,0,1,,,,,,,,0,64,64
73560,note_on,0,0,1,,,,,,,,0,47,0
73560,note_on,60,0,1,,,,,,,,0,83,0
73580,note_on,0,0,2,,,,,,,,0,63,64
73580,note_on,20,0,2,,,,,,,,0,64,0
73580,note_on,0,0,1,,,,,,,,0,63,64
73580,note_on,20,0,1,,,,,,,,0,64,0
73600,note_on,20,0,1,,,,,,,,0,63,0
73600,note_on,0,0,1,,,,,,,,0,64,64
73600,note_on,0,0,2,,,,,,,,0,64,64
73600,note_on,20,0,2,,,,,,,,0,63,0
73620,note_on,0,0,2,,,,,,,,0,63,64
73620,note_on,0,0,2,,,,,,,,0,81,0
73620,note_on,0,0,2,,,,,,,,0,79,64
73620,note_on,0,0,1,,,,,,,,0,81,0
73620,note_on,0,0,1,,,,,,,,0,79,64
73620,note_on,0,0,1,,,,,,,,0,63,64
73620,note_on,20,0,2,,,,,,,,0,64,0
73620,note_on,20,0,1,,,,,,,,0,64,0
73640,note_on,20,0,2,,,,,,,,0,63,0
73640,note_on,0,0,2,,,,,,,,0,64,64
73640,note_on,0,0,1,,,,,,,,0,64,64
73640,note_on,20,0,1,,,,,,,,0,63,0
73660,note_on,0,0,2,,,,,,,,0,63,64
73660,note_on,0,0,1,,,,,,,,0,63,64
73660,note_on,20,0,2,,,,,,,,0,64,0
73660,note_on,20,0,1,,,,,,,,0,64,0
73680,note_on,20,0,2,,,,,,,,0,79,0
73680,note_on,0,0,2,,,,,,,,0,78,64
73680,note_on,0,0,1,,,,,,,,0,78,64
73680,note_on,20,0,1,,,,,,,,0,79,0
73740,note_on,60,0,2,,,,,,,,0,78,0
73740,note_on,0,0,1,,,,,,,,0,61,64
73740,note_on,0,0,1,,,,,,,,0,81,64
73740,note_on,0,0,1,,,,,,,,0,63,0
73740,note_on,60,0,1,,,,,,,,0,78,0
73740,note_on,0,0,2,,,,,,,,0,63,0
73740,note_on,0,0,2,,,,,,,,0,81,64
73740,note_on,0,0,2,,,,,,,,0,61,64
73770,note_on,30,0,1,,,,,,,,0,61,0
73770,note_on,0,0,1,,,,,,,,0,63,64
73770,note_on,30,0,2,,,,,,,,0,61,0
73770,note_on,0,0,2,,,,,,,,0,63,64
73800,note_on,0,0,1,,,,,,,,0,64,64
73800,note_on,0,0,1,,,,,,,,0,79,64
73800,note_on,0,0,1,,,,,,,,0,81,0
73800,note_on,30,0,1,,,,,,,,0,63,0
73800,note_on,0,0,2,,,,,,,,0,81,0
73800,note_on,30,0,2,,,,,,,,0,63,0
73800,note_on,0,0,2,,,,,,,,0,79,64
73800,note_on,0,0,2,,,,,,,,0,64,64
73860,note_on,0,0,1,,,,,,,,0,63,64
73860,note_on,60,0,1,,,,,,,,0,64,0
73860,note_on,60,0,2,,,,,,,,0,64,0
73860,note_on,0,0,2,,,,,,,,0,63,64
73920,note_on,60,0,1,,,,,,,,0,63,0
73920,note_on,60,0,2,,,,,,,,0,63,0
73920,note_on,0,0,2,,,,,,,,0,64,64
73920,note_on,0,0,1,,,,,,,,0,64,64
73980,note_on,60,0,2,,,,,,,,0,64,0
73980,note_on,0,0,2,,,,,,,,0,66,64
73980,note_on,0,0,1,,,,,,,,0,66,64
73980,note_on,60,0,1,,,,,,,,0,64,0
74040,note_on,0,0,1,,,,,,,,0,67,64
74040,note_on,0,0,2,,,,,,,,0,67,64
74040,note_on,60,0,2,,,,,,,,0,66,0
74040,note_on,60,0,1,,,,,,,,0,66,0
74100,note_on,0,0,2,,,,,,,,0,64,64
74100,note_on,60,0,2,,,,,,,,0,67,0
74100,note_on,60,0,1,,,,,,,,0,67,0
74100,note_on,0,0,1,,,,,,,,0,64,64
74160,note_on,0,0,2,,,,,,,,0,58,64
74160,note_on,60,0,2,,,,,,,,0,64,0
74160,note_on,0,0,1,,,,,,,,0,58,64
74160,note_on,60,0,1,,,,,,,,0,64,0
74220,note_on,0,0,1,,,,,,,,0,79,0
74220,note_on,0,0,1,,,,,,,,0,78,64
74220,note_on,0,0,1,,,,,,,,0,59,64
74220,note_on,60,0,1,,,,,,,,0,58,0
74220,note_on,60,0,2,,,,,,,,0,58,0
74220,note_on,0,0,2,,,,,,,,0,79,0
74220,note_on,0,0,2,,,,,,,,0,59,64
74220,note_on,0,0,2,,,,,,,,0,78,64
74280,note_on,60,0,1,,,,,,,,0,59,0
74280,note_on,0,0,2,,,,,,,,0,61,64
74280,note_on,0,0,2,,,,,,,,0,76,64
74280,note_on,0,0,2,,,,,,,,0,78,0
74280,note_on,60,0,2,,,,,,,,0,59,0
74280,note_on,0,0,1,,,,,,,,0,78,0
74280,note_on,0,0,1,,,,,,,,0,76,64
74280,note_on,0,0,1,,,,,,,,0,61,64
74340,note_on,0,0,1,,,,,,,,0,62,64
74340,note_on,0,0,1,,,,,,,,0,74,64
74340,note_on,0,0,1,,,,,,,,0,76,0
74340,note_on,0,0,2,,,,,,,,0,62,64
74340,note_on,60,0,2,,,,,,,,0,61,0
74340,note_on,0,0,2,,,,,,,,0,76,0
74340,note_on,0,0,2,,,,,,,,0,74,64
74340,note_on,60,0,1,,,,,,,,0,61,0
74400,note_on,0,0,1,,,,,,,,0,73,64
74400,note_on,0,0,1,,,,,,,,0,74,0
74400,note_on,0,0,1,,,,,,,,0,64,64
74400,note_on,60,0,1,,,,,,,,0,62,0
74400,note_on,0,0,2,,,,,,,,0,74,0
74400,note_on,0,0,2,,,,,,,,0,64,64
74400,note_on,0,0,2,,,,,,,,0,73,64
74400,note_on,60,0,2,,,,,,,,0,62,0
74460,note_on,0,0,2,,,,,,,,0,73,0
74460,note_on,0,0,1,,,,,,,,0,61,64
74460,note_on,0,0,1,,,,,,,,0,76,64
74460,note_on,60,0,2,,,,,,,,0,64,0
74460,note_on,0,0,2,,,,,,,,0,61,64
74460,note_on,0,0,2,,,,,,,,0,76,64
74460,note_on,0,0,1,,,,,,,,0,73,0
74460,note_on,60,0,1,,,,,,,,0,64,0
74520,note_on,0,0,2,,,,,,,,0,76,0
74520,note_on,0,0,1,,,,,,,,0,76,0
74520,note_on,0,0,2,,,,,,,,0,70,64
74520,note_on,0,0,2,,,,,,,,0,54,64
74520,note_on,0,0,1,,,,,,,,0,54,64
74520,note_on,0,0,1,,,,,,,,0,70,64
74520,note_on,60,0,2,,,,,,,,0,61,0
74520,note_on,60,0,1,,,,,,,,0,61,0
74580,note_on,0,0,1,,,,,,,,0,79,64
74580,note_on,60,0,2,,,,,,,,0,70,0
74580,note_on,0,0,2,,,,,,,,0,79,64
74580,note_on,60,0,1,,,,,,,,0,70,0
74640,note_on,0,0,2,,,,,,,,0,78,64
74640,note_on,0,0,2,,,,,,,,0,58,64
74640,note_on,60,0,2,,,,,,,,0,79,0
74640,note_on,60,0,1,,,,,,,,0,79,0
74640,note_on,0,0,1,,,,,,,,0,54,0
74640,note_on,0,0,1,,,,,,,,0,78,64
74640,note_on,0,0,1,,,,,,,,0,58,64
74640,note_on,0,0,2,,,,,,,,0,54,0
74700,note_on,0,0,2,,,,,,,,0,76,64
74700,note_on,60,0,2,,,,,,,,0,78,0
74700,note_on,0,0,1,,,,,,,,0,76,64
74700,note_on,60,0,1,,,,,,,,0,78,0
74760,note_on,0,0,1,,,,,,,,0,58,0
74760,note_on,0,0,1,,,,,,,,0,75,64
74760,note_on,0,0,2,,,,,,,,0,75,64
74760,note_on,0,0,2,,,,,,,,0,59,64
74760,note_on,0,0,2,,,,,,,,0,58,0
74760,note_on,60,0,2,,,,,,,,0,76,0
74760,note_on,60,0,1,,,,,,,,0,76,0
74760,note_on,0,0,1,,,,,,,,0,59,64
74820,note_on,0,0,1,,,,,,,,0,78,64
74820,note_on,0,0,2,,,,,,,,0,78,64
74820,note_on,60,0,2,,,,,,,,0,75,0
74820,note_on,60,0,1,,,,,,,,0,75,0
74880,note_on,0,0,1,,,,,,,,0,59,0
74880,note_on,0,0,2,,,,,,,,0,60,64
74880,note_on,0,0,2,,,,,,,,0,59,0
74880,note_on,0,0,2,,,,,,,,0,69,64
74880,note_on,0,0,1,,,,,,,,0,69,64
74880,note_on,60,0,1,,,,,,,,0,78,0
74880,note_on,0,0,1,,,,,,,,0,60,64
74880,note_on,60,0,2,,,,,,,,0,78,0
74940,note_on,60,0,1,,,,,,,,0,69,0
74940,note_on,0,0,1,,,,,,,,0,72,64
74940,note_on,0,0,2,,,,,,,,0,72,64
74940,note_on,60,0,2,,,,,,,,0,69,0
75000,note_on,0,0,1,,,,,,,,0,51,64
75000,note_on,60,0,1,,,,,,,,0,72,0
75000,note_on,0,0,2,,,,,,,,0,51,64
75000,note_on,60,0,2,,,,,,,,0,72,0
75000,note_on,0,0,2,,,,,,,,0,60,0
75000,note_on,0,0,2,,,,,,,,0,71,64
75000,note_on,0,0,1,,,,,,,,0,71,64
75000,note_on,0,0,1,,,,,,,,0,60,0
75060,note_on,60,0,2,,,,,,,,0,71,0
75060,note_on,60,0,1,,,,,,,,0,71,0
75060,note_on,0,0,1,,,,,,,,0,69,64
75060,note_on,0,0,2,,,,,,,,0,69,64
75120,note_on,60,0,2,,,,,,,,0,69,0
75120,note_on,0,0,1,,,,,,,,0,51,0
75120,note_on,0,0,1,,,,,,,,0,52,64
75120,note_on,0,0,1,,,,,,,,0,67,64
75120,note_on,60,0,1,,,,,,,,0,69,0
75120,note_on,0,0,2,,,,,,,,0,67,64
75120,note_on,0,0,2,,,,,,,,0,52,64
75120,note_on,0,0,2,,,,,,,,0,51,0
75180,note_on,60,0,1,,,,,,,,0,67,0
75180,note_on,0,0,1,,,,,,,,0,71,64
75180,note_on,0,0,2,,,,,,,,0,71,64
75180,note_on,60,0,2,,,,,,,,0,67,0
75240,note_on,0,0,2,,,,,,,,0,52,0
75240,note_on,0,0,1,,,,,,,,0,48,64
75240,note_on,0,0,1,,,,,,,,0,64,64
75240,note_on,60,0,2,,,,,,,,0,71,0
75240,note_on,0,0,1,,,,,,,,0,52,0
75240,note_on,60,0,1,,,,,,,,0,71,0
75240,note_on,0,0,2,,,,,,,,0,64,64
75240,note_on,0,0,2,,,,,,,,0,48,64
75360,note_on,120,0,1,,,,,,,,0,48,0
75360,note_on,0,0,1,,,,,,,,0,66,64
75360,note_on,0,0,1,,,,,,,,0,64,0
75360,note_on,120,0,2,,,,,,,,0,48,0
75360,note_on,0,0,2,,,,,,,,0,64,0
75360,note_on,0,0,2,,,,,,,,0,66,64
75360,note_on,0,0,2,,,,,,,,0,45,64
75360,note_on,0,0,1,,,,,,,,0,45,64
75380,note_on,20,0,1,,,,,,,,0,66,0
75380,note_on,0,0,2,,,,,,,,0,64,64
75380,note_on,20,0,2,,,,,,,,0,66,0
75380,note_on,0,0,1,,,,,,,,0,64,64
75400,note_on,0,0,2,,,,,,,,0,66,64
75400,note_on,0,0,1,,,,,,,,0,66,64
75400,note_on,20,0,1,,,,,,,,0,64,0
75400,note_on,20,0,2,,,,,,,,0,64,0
75480,note_on,0,0,2,,,,,,,,0,45,0
75480,note_on,0,0,1,,,,,,,,0,47,64
75480,note_on,0,0,2,,,,,,,,0,47,64
75480,note_on,80,0,1,,,,,,,,0,66,0
75480,note_on,0,0,1,,,,,,,,0,45,0
75480,note_on,80,0,2,,,,,,,,0,66,0
75480,note_on,0,0,1,,,,,,,,0,64,64
75480,note_on,0,0,2,,,,,,,,0,64,64
75500,note_on,20,0,1,,,,,,,,0,64,0
75500,note_on,20,0,2,,,,,,,,0,64,0
75500,note_on,0,0,2,,,,,,,,0,63,64
75500,note_on,0,0,1,,,,,,,,0,63,64
75520,note_on,20,0,1,,,,,,,,0,63,0
75520,note_on,0,0,1,,,,,,,,0,61,64
75520,note_on,20,0,2,,,,,,,,0,63,0
75520,note_on,0,0,2,,,,,,,,0,61,64
75540,note_on,20,0,1,,,,,,,,0,61,0
75540,note_on,20,0,2,,,,,,,,0,61,0
75540,note_on,0,0,2,,,,,,,,0,63,64
75540,note_on,0,0,1,,,,,,,,0,63,64
75600,note_on,0,0,1,,,,,,,,0,64,64
75600,note_on,0,0,1,,,,,,,,0,47,0
75600,note_on,0,0,1,,,,,,,,0,36,64
75600,note_on,0,0,2,,,,,,,,0,36,64
75600,note_on,0,0,2,,,,,,,,0,64,64
75600,note_on,0,0,2,,,,,,,,0,47,0
75600,note_on,60,0,2,,,,,,,,0,63,0
75600,note_on,60,0,1,,,,,,,,0,63,0
75660,note_on,60,0,1,,,,,,,,0,36,0
75660,note_on,0,0,1,,,,,,,,0,64,0
75660,note_on,0,0,1,,,,,,,,0,40,64
75660,note_on,0,0,2,,,,,,,,0,40,64
75660,note_on,0,0,2,,,,,,,,0,68,64
75660,note_on,0,0,2,,,,,,,,0,64,0
75660,note_on,60,0,2,,,,,,,,0,36,0
75660,note_on,0,0,1,,,,,,,,0,68,64
75720,note_on,60,0,1,,,,,,,,0,40,0
75720,note_on,60,0,2,,,,,,,,0,40,0
75720,note_on,0,0,2,,,,,,,,0,68,0
75720,note_on,0,0,2,,,,,,,,0,69,64
75720,note_on,0,0,2,,,,,,,,0,42,64
75720,note_on,0,0,1,,,,,,,,0,68,0
75720,note_on,0,0,1,,,,,,,,0,69,64
75720,note_on,0,0,1,,,,,,,,0,42,64
75780,note_on,60,0,2,,,,,,,,0,42,0
75780,note_on,0,0,2,,,,,,,,0,69,0
75780,note_on,0,0,2,,,,,,,,0,71,64
75780,note_on,0,0,2,,,,,,,,0,44,64
75780,note_on,0,0,1,,,,,,,,0,44,64
75780,note_on,0,0,1,,,,,,,,0,71,64
75780,note_on,0,0,1,,,,,,,,0,69,0
75780,note_on,60,0,1,,,,,,,,0,42,0
75840,note_on,0,0,1,,,,,,,,0,71,0
75840,note_on,60,0,1,,,,,,,,0,44,0
75840,note_on,0,0,1,,,,,,,,0,45,64
75840,note_on,0,0,1,,,,,,,,0,72,64
75840,note_on,0,0,2,,,,,,,,0,71,0
75840,note_on,0,0,2,,,,,,,,0,72,64
75840,note_on,60,0,2,,,,,,,,0,44,0
75840,note_on,0,0,2,,,,,,,,0,45,64
75900,note_on,0,0,1,,,,,,,,0,69,64
75900,note_on,60,0,2,,,,,,,,0,45,0
75900,note_on,0,0,1,,,,,,,,0,72,0
75900,note_on,60,0,1,,,,,,,,0,45,0
75900,note_on,0,0,2,,,,,,,,0,69,64
75900,note_on,0,0,2,,,,,,,,0,42,64
75900,note_on,0,0,2,,,,,,,,0,72,0
75900,note_on,0,0,1,,,,,,,,0,42,64
75960,note_on,60,0,1,,,,,,,,0,69,0
75960,note_on,0,0,1,,,,,,,,0,42,0
75960,note_on,0,0,1,,,,,,,,0,44,64
75960,note_on,0,0,2,,,,,,,,0,44,64
75960,note_on,0,0,1,,,,,,,,0,71,64
75960,note_on,0,0,2,,,,,,,,0,71,64
75960,note_on,0,0,2,,,,,,,,0,42,0
75960,note_on,60,0,2,,,,,,,,0,69,0
76020,note_on,60,0,1,,,,,,,,0,71,0
76020,note_on,0,0,2,,,,,,,,0,47,64
76020,note_on,0,0,2,,,,,,,,0,69,64
76020,note_on,0,0,2,,,,,,,,0,44,0
76020,note_on,0,0,1,,,,,,,,0,47,64
76020,note_on,0,0,1,,,,,,,,0,44,0
76020,note_on,0,0,1,,,,,,,,0,69,64
76020,note_on,60,0,2,,,,,,,,0,71,0
76080,note_on,60,0,1,,,,,,,,0,69,0
76080,note_on,0,0,1,,,,,,,,0,47,0
76080,note_on,0,0,2,,,,,,,,0,68,64
76080,note_on,0,0,2,,,,,,,,0,48,64
76080,note_on,0,0,2,,,,,,,,0,47,0
76080,note_on,60,0,2,,,,,,,,0,69,0
76080,note_on,0,0,1,,,,,,,,0,48,64
76080,note_on,0,0,1,,,,,,,,0,68,64
76140,note_on,0,0,2,,,,,,,,0,50,64
76140,note_on,0,0,2,,,,,,,,0,66,64
76140,note_on,0,0,1,,,,,,,,0,66,64
76140,note_on,0,0,1,,,,,,,,0,48,0
76140,note_on,0,0,1,,,,,,,,0,50,64
76140,note_on,0,0,2,,,,,,,,0,48,0
76140,note_on,60,0,2,,,,,,,,0,68,0
76140,note_on,60,0,1,,,,,,,,0,68,0
76200,note_on,0,0,2,,,,,,,,0,64,64
76200,note_on,60,0,1,,,,,,,,0,66,0
76200,note_on,0,0,1,,,,,,,,0,50,0
76200,note_on,0,0,1,,,,,,,,0,52,64
76200,note_on,0,0,1,,,,,,,,0,64,64
76200,note_on,0,0,2,,,,,,,,0,50,0
76200,note_on,60,0,2,,,,,,,,0,66,0
76200,note_on,0,0,2,,,,,,,,0,52,64
76260,note_on,60,0,1,,,,,,,,0,64,0
76260,note_on,0,0,2,,,,,,,,0,52,0
76260,note_on,60,0,2,,,,,,,,0,64,0
76260,note_on,0,0,1,,,,,,,,0,74,64
76260,note_on,0,0,1,,,,,,,,0,54,64
76260,note_on,0,0,1,,,,,,,,0,52,0
76260,note_on,0,0,2,,,,,,,,0,74,64
76260,note_on,0,0,2,,,,,,,,0,54,64
76320,note_on,0,0,1,,,,,,,,0,55,64
76320,note_on,0,0,1,,,,,,,,0,73,64
76320,note_on,0,0,1,,,,,,,,0,54,0
76320,note_on,60,0,1,,,,,,,,0,74,0
76320,note_on,0,0,2,,,,,,,,0,54,0
76320,note_on,60,0,2,,,,,,,,0,74,0
76320,note_on,0,0,2,,,,,,,,0,73,64
76320,note_on,0,0,2,,,,,,,,0,55,64
76380,note_on,60,0,1,,,,,,,,0,73,0
76380,note_on,0,0,1,,,,,,,,0,75,64
76380,note_on,60,0,2,,,,,,,,0,73,0
76380,note_on,0,0,2,,,,,,,,0,75,64
76440,note_on,0,0,1,,,,,,,,0,55,0
76440,note_on,60,0,1,,,,,,,,0,75,0
76440,note_on,60,0,2,,,,,,,,0,75,0
76440,note_on,0,0,2,,,,,,,,0,55,0
76440,note_on,0,0,2,,,,,,,,0,76,64
76440,note_on,0,0,2,,,,,,,,0,54,64
76440,note_on,0,0,1,,,,,,,,0,54,64
76440,note_on,0,0,1,,,,,,,,0,76,64
76500,note_on,0,0,2,,,,,,,,0,78,64
76500,note_on,0,0,1,,,,,,,,0,78,64
76500,note_on,60,0,1,,,,,,,,0,76,0
76500,note_on,60,0,2,,,,,,,,0,76,0
76560,note_on,0,0,1,,,,,,,,0,52,64
76560,note_on,0,0,1,,,,,,,,0,79,64
76560,note_on,0,0,1,,,,,,,,0,54,0
76560,note_on,0,0,2,,,,,,,,0,54,0
76560,note_on,0,0,2,,,,,,,,0,52,64
76560,note_on,60,0,2,,,,,,,,0,78,0
76560,note_on,0,0,2,,,,,,,,0,79,64
76560,note_on,60,0,1,,,,,,,,0,78,0
76620,note_on,60,0,2,,,,,,,,0,79,0
76620,note_on,0,0,2,,,,,,,,0,76,64
76620,note_on,0,0,1,,,,,,,,0,76,64
76620,note_on,60,0,1,,,,,,,,0,79,0
76680,note_on,60,0,2,,,,,,,,0,76,0
76680,note_on,0,0,2,,,,,,,,0,52,0
76680,note_on,0,0,1,,,,,,,,0,51,64
76680,note_on,0,0,1,,,,,,,,0,78,64
76680,note_on,0,0,1,,,,,,,,0,52,0
76680,note_on,60,0,1,,,,,,,,0,76,0
76680,note_on,0,0,2,,,,,,,,0,78,64
76680,note_on,0,0,2,,,,,,,,0,51,64
76740,note_on,60,0,2,,,,,,,,0,78,0
76740,note_on,0,0,1,,,,,,,,0,76,64
76740,note_on,0,0,2,,,,,,,,0,76,64
76740,note_on,60,0,1,,,,,,,,0,78,0
76800,note_on,0,0,1,,,,,,,,0,47,64
76800,note_on,0,0,1,,,,,,,,0,51,0
76800,note_on,0,0,1,,,,,,,,0,75,64
76800,note_on,0,0,2,,,,,,,,0,47,64
76800,note_on,0,0,2,,,,,,,,0,75,64
76800,note_on,0,0,2,,,,,,,,0,51,0
76800,note_on,60,0,2,,,,,,,,0,76,0
76800,note_on,60,0,1,,,,,,,,0,76,0
76860,note_on,0,0,1,,,,,,,,0,73,64
76860,note_on,0,0,2,,,,,,,,0,73,64
76860,note_on,60,0,2,,,,,,,,0,75,0
76860,note_on,60,0,1,,,,,,,,0,75,0
76920,note_on,60,0,2,,,,,,,,0,73,0
76920,note_on,0,0,2,,,,,,,,0,47,0
76920,note_on,0,0,2,,,,,,,,0,51,64
76920,note_on,0,0,2,,,,,,,,0,71,64
76920,note_on,0,0,1,,,,,,,,0,47,0
76920,note_on,0,0,1,,,,,,,,0,51,64
76920,note_on,60,0,1,,,,,,,,0,73,0
76920,note_on,0,0,1,,,,,,,,0,71,64
76980,note_on,0,0,2,,,,,,,,0,69,64
76980,note_on,60,0,2,,,,,,,,0,71,0
76980,note_on,60,0,1,,,,,,,,0,71,0
76980,note_on,0,0,1,,,,,,,,0,69,64
77040,note_on,0,0,2,,,,,,,,0,67,64
77040,note_on,0,0,2,,,,,,,,0,51,0
77040,note_on,60,0,2,,,,,,,,0,69,0
77040,note_on,0,0,1,,,,,,,,0,52,64
77040,note_on,0,0,1,,,,,,,,0,67,64
77040,note_on,0,0,2,,,,,,,,0,52,64
77040,note_on,60,0,1,,,,,,,,0,69,0
77040,note_on,0,0,1,,,,,,,,0,51,0
77160,note_on,120,0,1,,,,,,,,0,52,0
77160,note_on,0,0,1,,,,,,,,0,67,0
77160,note_on,0,0,2,,,,,,,,0,69,64
77160,note_on,0,0,2,,,,,,,,0,67,0
77160,note_on,0,0,2,,,,,,,,0,45,64
77160,note_on,0,0,1,,,,,,,,0,69,64
77160,note_on,120,0,2,,,,,,,,0,52,0
77160,note_on,0,0,1,,,,,,,,0,45,64
77180,note_on,20,0,1,,,,,,,,0,69,0
77180,note_on,20,0,2,,,,,,,,0,69,0
77180,note_on,0,0,2,,,,,,,,0,67,64
77180,note_on,0,0,1,,,,,,,,0,67,64
77200,note_on,0,0,2,,,,,,,,0,69,64
77200,note_on,20,0,1,,,,,,,,0,67,0
77200,note_on,20,0,2,,,,,,,,0,67,0
77200,note_on,0,0,1,,,,,,,,0,69,64
77236,set_tempo,77236,1,0,,,,,,718563,,,,
77280,note_on,0,0,2,,,,,,,,0,47,64
77280,note_on,0,0,2,,,,,,,,0,67,64
77280,note_on,0,0,2,,,,,,,,0,45,0
77280,note_on,80,0,2,,,,,,,,0,69,0
77280,note_on,80,0,1,,,,,,,,0,69,0
77280,note_on,0,0,1,,,,,,,,0,47,64
77280,note_on,0,0,1,,,,,,,,0,67,64
77280,note_on,0,0,1,,,,,,,,0,45,0
77280,set_tempo,44,1,0,,,,,,789474,,,,
77300,note_on,20,0,1,,,,,,,,0,67,0
77300,note_on,20,0,2,,,,,,,,0,67,0
77300,note_on,0,0,2,,,,,,,,0,66,64
77300,note_on,0,0,1,,,,,,,,0,66,64
77314,set_tempo,34,1,0,,,,,,902256,,,,
77320,note_on,20,0,1,,,,,,,,0,66,0
77320,note_on,0,0,1,,,,,,,,0,64,64
77320,note_on,0,0,2,,,,,,,,0,64,64
77320,note_on,20,0,2,,,,,,,,0,66,0
77340,note_on,20,0,1,,,,,,,,0,64,0
77340,note_on,0,0,1,,,,,,,,0,66,64
77340,note_on,0,0,2,,,,,,,,0,66,64
77340,note_on,20,0,2,,,,,,,,0,64,0
77352,end_of_track,0,1,0,,,,,,,,,,
77352,set_tempo,38,1,0,,,,,,1100917,,,,
77400,note_on,0,0,2,,,,,,,,0,47,0
77400,note_on,60,0,2,,,,,,,,0,66,0
77400,note_on,0,0,1,,,,,,,,0,40,64
77400,note_on,0,0,1,,,,,,,,0,64,64
77400,note_on,0,0,1,,,,,,,,0,47,0
77400,note_on,60,0,1,,,,,,,,0,66,0
77400,note_on,0,0,2,,,,,,,,0,40,64
77400,note_on,0,0,2,,,,,,,,0,64,64
77760,note_on,360,0,2,,,,,,,,0,64,0
77760,note_on,0,0,2,,,,,,,,0,40,0
77760,note_on,0,0,1,,,,,,,,0,40,0
77760,note_on,360,0,1,,,,,,,,0,64,0
77760,end_of_track,0,1,1,,,,,,,,,,
77760,end_of_track,0,1,2,,,,,,,,,,
