tick,type,numerator,denominator,clocks_per_click,notated_32nd_notes_per_beat,time,meta,track,key,tempo,port,program,channel,note,velocity
0,time_signature,3,4,24,8,0,1,0,,,,,,,
0,program_change,,,,,0,0,1,,,,6,0,,
0,midi_port,,,,,0,1,1,,,0,,,,
0,track_name,,,,,0,1,1,,,,,,,
0,set_tempo,,,,,0,1,0,,810811,,,,,
0,key_signature,,,,,0,1,0,Ab,,,,,,
0,marker,,,,,0,1,0,,,,,,,
4,note_on,,,,,4,0,1,,,,,0,72,64
4,note_on,,,,,0,0,1,,,,,0,68,64
4,note_on,,,,,0,0,1,,,,,0,56,64
34,note_on,,,,,30,0,1,,,,,0,63,64
56,note_on,,,,,0,0,1,,,,,0,72,0
56,note_on,,,,,22,0,1,,,,,0,68,0
64,note_on,,,,,0,0,1,,,,,0,72,64
64,note_on,,,,,8,0,1,,,,,0,68,64
82,note_on,,,,,18,0,1,,,,,0,56,0
94,note_on,,,,,12,0,1,,,,,0,58,64
107,note_on,,,,,13,0,1,,,,,0,58,0
109,note_on,,,,,2,0,1,,,,,0,60,64
122,note_on,,,,,13,0,1,,,,,0,60,0
124,note_on,,,,,2,0,1,,,,,0,51,64
150,note_on,,,,,26,0,1,,,,,0,68,0
154,note_on,,,,,4,0,1,,,,,0,67,64
176,note_on,,,,,22,0,1,,,,,0,72,0
176,note_on,,,,,0,0,1,,,,,0,63,0
180,note_on,,,,,4,0,1,,,,,0,67,0
184,note_on,,,,,4,0,1,,,,,0,68,64
184,note_on,,,,,0,0,1,,,,,0,72,64
184,note_on,,,,,0,0,1,,,,,0,63,64
202,note_on,,,,,18,0,1,,,,,0,51,0
214,note_on,,,,,12,0,1,,,,,0,55,64
227,note_on,,,,,13,0,1,,,,,0,55,0
229,note_on,,,,,2,0,1,,,,,0,56,64
242,note_on,,,,,13,0,1,,,,,0,56,0
244,note_on,,,,,2,0,1,,,,,0,48,64
270,note_on,,,,,26,0,1,,,,,0,68,0
274,note_on,,,,,4,0,1,,,,,0,67,64
296,note_on,,,,,0,0,1,,,,,0,72,0
296,note_on,,,,,22,0,1,,,,,0,63,0
300,note_on,,,,,4,0,1,,,,,0,67,0
304,note_on,,,,,0,0,1,,,,,0,63,64
304,note_on,,,,,0,0,1,,,,,0,72,64
304,note_on,,,,,4,0,1,,,,,0,68,64
322,note_on,,,,,18,0,1,,,,,0,48,0
334,note_on,,,,,12,0,1,,,,,0,49,64
347,note_on,,,,,13,0,1,,,,,0,49,0
349,note_on,,,,,2,0,1,,,,,0,51,64
356,note_on,,,,,7,0,1,,,,,0,63,0
356,note_on,,,,,0,0,1,,,,,0,72,0
356,note_on,,,,,0,0,1,,,,,0,68,0
362,note_on,,,,,6,0,1,,,,,0,51,0
364,note_on,,,,,2,0,1,,,,,0,44,64
394,note_on,,,,,30,0,1,,,,,0,68,64
416,note_on,,,,,22,0,1,,,,,0,44,0
420,note_on,,,,,4,0,1,,,,,0,68,0
424,note_on,,,,,4,0,1,,,,,0,66,64
450,note_on,,,,,26,0,1,,,,,0,66,0
454,note_on,,,,,4,0,1,,,,,0,65,64
480,note_on,,,,,26,0,1,,,,,0,65,0
484,note_on,,,,,4,0,1,,,,,0,66,64
510,note_on,,,,,26,0,1,,,,,0,66,0
514,note_on,,,,,4,0,1,,,,,0,72,64
540,note_on,,,,,26,0,1,,,,,0,72,0
544,note_on,,,,,4,0,1,,,,,0,75,64
570,note_on,,,,,26,0,1,,,,,0,75,0
574,note_on,,,,,4,0,1,,,,,0,73,64
600,note_on,,,,,26,0,1,,,,,0,73,0
604,note_on,,,,,4,0,1,,,,,0,72,64
630,note_on,,,,,26,0,1,,,,,0,72,0
634,note_on,,,,,4,0,1,,,,,0,70,64
660,note_on,,,,,26,0,1,,,,,0,70,0
664,note_on,,,,,4,0,1,,,,,0,68,64
690,note_on,,,,,26,0,1,,,,,0,68,0
694,note_on,,,,,4,0,1,,,,,0,66,64
720,note_on,,,,,26,0,1,,,,,0,66,0
724,note_on,,,,,0,0,1,,,,,0,56,64
724,note_on,,,,,0,0,1,,,,,0,65,64
724,note_on,,,,,4,0,1,,,,,0,73,64
754,note_on,,,,,30,0,1,,,,,0,68,64
776,note_on,,,,,0,0,1,,,,,0,73,0
776,note_on,,,,,22,0,1,,,,,0,65,0
784,note_on,,,,,0,0,1,,,,,0,65,64
784,note_on,,,,,8,0,1,,,,,0,73,64
802,note_on,,,,,18,0,1,,,,,0,56,0
814,note_on,,,,,12,0,1,,,,,0,60,64
827,note_on,,,,,13,0,1,,,,,0,60,0
829,note_on,,,,,2,0,1,,,,,0,61,64
842,note_on,,,,,13,0,1,,,,,0,61,0
844,note_on,,,,,2,0,1,,,,,0,53,64
870,note_on,,,,,26,0,1,,,,,0,73,0
874,note_on,,,,,4,0,1,,,,,0,72,64
896,note_on,,,,,0,0,1,,,,,0,68,0
896,note_on,,,,,22,0,1,,,,,0,65,0
900,note_on,,,,,4,0,1,,,,,0,72,0
904,note_on,,,,,0,0,1,,,,,0,73,64
904,note_on,,,,,4,0,1,,,,,0,68,64
904,note_on,,,,,0,0,1,,,,,0,65,64
922,note_on,,,,,18,0,1,,,,,0,53,0
934,note_on,,,,,12,0,1,,,,,0,54,64
947,note_on,,,,,13,0,1,,,,,0,54,0
949,note_on,,,,,2,0,1,,,,,0,56,64
962,note_on,,,,,13,0,1,,,,,0,56,0
964,note_on,,,,,2,0,1,,,,,0,49,64
990,note_on,,,,,26,0,1,,,,,0,73,0
994,note_on,,,,,4,0,1,,,,,0,72,64
1016,note_on,,,,,22,0,1,,,,,0,65,0
1016,note_on,,,,,0,0,1,,,,,0,68,0
1020,note_on,,,,,4,0,1,,,,,0,72,0
1024,note_on,,,,,0,0,1,,,,,0,73,64
1024,note_on,,,,,0,0,1,,,,,0,65,64
1024,note_on,,,,,4,0,1,,,,,0,68,64
1042,note_on,,,,,18,0,1,,,,,0,49,0
1054,note_on,,,,,12,0,1,,,,,0,51,64
1067,note_on,,,,,13,0,1,,,,,0,51,0
1069,note_on,,,,,2,0,1,,,,,0,53,64
1076,note_on,,,,,7,0,1,,,,,0,65,0
1076,note_on,,,,,0,0,1,,,,,0,68,0
1076,note_on,,,,,0,0,1,,,,,0,73,0
1082,note_on,,,,,6,0,1,,,,,0,53,0
1084,note_on,,,,,2,0,1,,,,,0,44,64
1114,note_on,,,,,30,0,1,,,,,0,75,64
1136,note_on,,,,,22,0,1,,,,,0,44,0
1140,note_on,,,,,4,0,1,,,,,0,75,0
1144,note_on,,,,,4,0,1,,,,,0,73,64
1170,note_on,,,,,26,0,1,,,,,0,73,0
1174,note_on,,,,,4,0,1,,,,,0,72,64
1200,note_on,,,,,26,0,1,,,,,0,72,0
1204,note_on,,,,,4,0,1,,,,,0,73,64
1230,note_on,,,,,26,0,1,,,,,0,73,0
1234,note_on,,,,,4,0,1,,,,,0,68,64
1260,note_on,,,,,26,0,1,,,,,0,68,0
1264,note_on,,,,,4,0,1,,,,,0,77,64
1290,note_on,,,,,26,0,1,,,,,0,77,0
1294,note_on,,,,,4,0,1,,,,,0,75,64
1320,note_on,,,,,26,0,1,,,,,0,75,0
1324,note_on,,,,,4,0,1,,,,,0,73,64
1350,note_on,,,,,26,0,1,,,,,0,73,0
1354,note_on,,,,,4,0,1,,,,,0,72,64
1380,note_on,,,,,26,0,1,,,,,0,72,0
1384,note_on,,,,,4,0,1,,,,,0,70,64
1410,note_on,,,,,26,0,1,,,,,0,70,0
1414,note_on,,,,,4,0,1,,,,,0,68,64
1440,note_on,,,,,26,0,1,,,,,0,68,0
1444,note_on,,,,,4,0,1,,,,,0,67,64
1470,note_on,,,,,26,0,1,,,,,0,67,0
1474,note_on,,,,,4,0,1,,,,,0,65,64
1474,note_on,,,,,0,0,1,,,,,0,56,64
1500,note_on,,,,,26,0,1,,,,,0,56,0
1500,note_on,,,,,0,0,1,,,,,0,65,0
1504,note_on,,,,,0,0,1,,,,,0,55,64
1504,note_on,,,,,4,0,1,,,,,0,63,64
1530,note_on,,,,,0,0,1,,,,,0,63,0
1530,note_on,,,,,26,0,1,,,,,0,55,0
1534,note_on,,,,,4,0,1,,,,,0,62,64
1534,note_on,,,,,0,0,1,,,,,0,53,64
1560,note_on,,,,,26,0,1,,,,,0,53,0
1560,note_on,,,,,0,0,1,,,,,0,62,0
1564,note_on,,,,,0,0,1,,,,,0,55,64
1564,note_on,,,,,4,0,1,,,,,0,63,64
1590,note_on,,,,,26,0,1,,,,,0,55,0
1594,note_on,,,,,4,0,1,,,,,0,58,64
1620,note_on,,,,,26,0,1,,,,,0,58,0
1624,note_on,,,,,4,0,1,,,,,0,51,64
1642,note_on,,,,,18,0,1,,,,,0,63,0
1650,note_on,,,,,8,0,1,,,,,0,51,0
1654,note_on,,,,,4,0,1,,,,,0,67,64
1654,note_on,,,,,0,0,1,,,,,0,53,64
1667,note_on,,,,,13,0,1,,,,,0,67,0
1669,note_on,,,,,2,0,1,,,,,0,70,64
1680,note_on,,,,,11,0,1,,,,,0,53,0
1682,note_on,,,,,2,0,1,,,,,0,70,0
1684,note_on,,,,,0,0,1,,,,,0,55,64
1684,note_on,,,,,2,0,1,,,,,0,73,64
1710,note_on,,,,,26,0,1,,,,,0,55,0
1714,note_on,,,,,4,0,1,,,,,0,56,64
1740,note_on,,,,,26,0,1,,,,,0,56,0
1744,note_on,,,,,4,0,1,,,,,0,58,64
1762,note_on,,,,,18,0,1,,,,,0,73,0
1770,note_on,,,,,8,0,1,,,,,0,58,0
1774,note_on,,,,,0,0,1,,,,,0,60,64
1774,note_on,,,,,4,0,1,,,,,0,68,64
1800,note_on,,,,,0,0,1,,,,,0,68,0
1800,note_on,,,,,26,0,1,,,,,0,60,0
1804,note_on,,,,,0,0,1,,,,,0,61,64
1804,note_on,,,,,4,0,1,,,,,0,67,64
1830,note_on,,,,,26,0,1,,,,,0,61,0
1830,note_on,,,,,0,0,1,,,,,0,67,0
1834,note_on,,,,,0,0,1,,,,,0,63,64
1834,note_on,,,,,4,0,1,,,,,0,72,64
1860,note_on,,,,,0,0,1,,,,,0,72,0
1860,note_on,,,,,26,0,1,,,,,0,63,0
1864,note_on,,,,,0,0,1,,,,,0,61,64
1864,note_on,,,,,4,0,1,,,,,0,70,64
1890,note_on,,,,,26,0,1,,,,,0,61,0
1890,note_on,,,,,0,0,1,,,,,0,70,0
1894,note_on,,,,,4,0,1,,,,,0,68,64
1894,note_on,,,,,0,0,1,,,,,0,60,64
1920,note_on,,,,,26,0,1,,,,,0,60,0
1920,note_on,,,,,0,0,1,,,,,0,68,0
1924,note_on,,,,,0,0,1,,,,,0,61,64
1924,note_on,,,,,4,0,1,,,,,0,70,64
1950,note_on,,,,,26,0,1,,,,,0,61,0
1954,note_on,,,,,4,0,1,,,,,0,65,64
1980,note_on,,,,,26,0,1,,,,,0,65,0
1984,note_on,,,,,4,0,1,,,,,0,58,64
2002,note_on,,,,,18,0,1,,,,,0,70,0
2010,note_on,,,,,8,0,1,,,,,0,58,0
2014,note_on,,,,,4,0,1,,,,,0,73,64
2014,note_on,,,,,0,0,1,,,,,0,60,64
2027,note_on,,,,,13,0,1,,,,,0,73,0
2029,note_on,,,,,2,0,1,,,,,0,77,64
2040,note_on,,,,,11,0,1,,,,,0,60,0
2042,note_on,,,,,2,0,1,,,,,0,77,0
2044,note_on,,,,,0,0,1,,,,,0,61,64
2044,note_on,,,,,2,0,1,,,,,0,82,64
2070,note_on,,,,,26,0,1,,,,,0,61,0
2074,note_on,,,,,4,0,1,,,,,0,63,64
2100,note_on,,,,,26,0,1,,,,,0,63,0
2104,note_on,,,,,4,0,1,,,,,0,65,64
2122,note_on,,,,,18,0,1,,,,,0,82,0
2130,note_on,,,,,8,0,1,,,,,0,65,0
2134,note_on,,,,,4,0,1,,,,,0,73,64
2134,note_on,,,,,0,0,1,,,,,0,67,64
2160,note_on,,,,,26,0,1,,,,,0,67,0
2160,note_on,,,,,0,0,1,,,,,0,73,0
2164,note_on,,,,,0,0,1,,,,,0,68,64
2164,note_on,,,,,4,0,1,,,,,0,72,64
2190,note_on,,,,,26,0,1,,,,,0,72,0
2194,note_on,,,,,4,0,1,,,,,0,77,64
2220,note_on,,,,,26,0,1,,,,,0,77,0
2224,note_on,,,,,4,0,1,,,,,0,75,64
2237,note_on,,,,,13,0,1,,,,,0,68,0
2239,note_on,,,,,2,0,1,,,,,0,67,64
2250,note_on,,,,,11,0,1,,,,,0,75,0
2252,note_on,,,,,2,0,1,,,,,0,67,0
2254,note_on,,,,,2,0,1,,,,,0,73,64
2254,note_on,,,,,0,0,1,,,,,0,68,64
2267,note_on,,,,,13,0,1,,,,,0,68,0
2269,note_on,,,,,2,0,1,,,,,0,70,64
2280,note_on,,,,,11,0,1,,,,,0,73,0
2282,note_on,,,,,2,0,1,,,,,0,70,0
2284,note_on,,,,,2,0,1,,,,,0,75,64
2284,note_on,,,,,0,0,1,,,,,0,72,64
2310,note_on,,,,,26,0,1,,,,,0,75,0
2314,note_on,,,,,4,0,1,,,,,0,80,64
2340,note_on,,,,,26,0,1,,,,,0,80,0
2344,note_on,,,,,4,0,1,,,,,0,75,64
2362,note_on,,,,,18,0,1,,,,,0,72,0
2370,note_on,,,,,8,0,1,,,,,0,75,0
2374,note_on,,,,,0,0,1,,,,,0,70,64
2374,note_on,,,,,4,0,1,,,,,0,73,64
2400,note_on,,,,,0,0,1,,,,,0,73,0
2400,note_on,,,,,26,0,1,,,,,0,70,0
2404,note_on,,,,,0,0,1,,,,,0,68,64
2404,note_on,,,,,4,0,1,,,,,0,72,64
2430,note_on,,,,,26,0,1,,,,,0,72,0
2434,note_on,,,,,4,0,1,,,,,0,75,64
2460,note_on,,,,,26,0,1,,,,,0,75,0
2464,note_on,,,,,4,0,1,,,,,0,72,64
2482,note_on,,,,,18,0,1,,,,,0,68,0
2490,note_on,,,,,8,0,1,,,,,0,72,0
2494,note_on,,,,,4,0,1,,,,,0,70,64
2494,note_on,,,,,0,0,1,,,,,0,67,64
2520,note_on,,,,,0,0,1,,,,,0,70,0
2520,note_on,,,,,26,0,1,,,,,0,67,0
2524,note_on,,,,,4,0,1,,,,,0,68,64
2524,note_on,,,,,0,0,1,,,,,0,65,64
2550,note_on,,,,,26,0,1,,,,,0,68,0
2554,note_on,,,,,4,0,1,,,,,0,73,64
2580,note_on,,,,,26,0,1,,,,,0,73,0
2584,note_on,,,,,4,0,1,,,,,0,72,64
2597,note_on,,,,,13,0,1,,,,,0,65,0
2599,note_on,,,,,2,0,1,,,,,0,64,64
2610,note_on,,,,,11,0,1,,,,,0,72,0
2612,note_on,,,,,2,0,1,,,,,0,64,0
2614,note_on,,,,,0,0,1,,,,,0,65,64
2614,note_on,,,,,2,0,1,,,,,0,70,64
2627,note_on,,,,,13,0,1,,,,,0,65,0
2629,note_on,,,,,2,0,1,,,,,0,67,64
2640,note_on,,,,,11,0,1,,,,,0,70,0
2642,note_on,,,,,2,0,1,,,,,0,67,0
2644,note_on,,,,,0,0,1,,,,,0,68,64
2644,note_on,,,,,2,0,1,,,,,0,72,64
2670,note_on,,,,,26,0,1,,,,,0,72,0
2674,note_on,,,,,4,0,1,,,,,0,77,64
2700,note_on,,,,,26,0,1,,,,,0,77,0
2704,note_on,,,,,4,0,1,,,,,0,72,64
2722,note_on,,,,,18,0,1,,,,,0,68,0
2730,note_on,,,,,8,0,1,,,,,0,72,0
2734,note_on,,,,,4,0,1,,,,,0,70,64
2734,note_on,,,,,0,0,1,,,,,0,67,64
2760,note_on,,,,,26,0,1,,,,,0,67,0
2760,note_on,,,,,0,0,1,,,,,0,70,0
2764,note_on,,,,,0,0,1,,,,,0,65,64
2764,note_on,,,,,4,0,1,,,,,0,68,64
2790,note_on,,,,,26,0,1,,,,,0,68,0
2794,note_on,,,,,4,0,1,,,,,0,72,64
2820,note_on,,,,,26,0,1,,,,,0,72,0
2824,note_on,,,,,4,0,1,,,,,0,68,64
2842,note_on,,,,,18,0,1,,,,,0,65,0
2850,note_on,,,,,8,0,1,,,,,0,68,0
2854,note_on,,,,,4,0,1,,,,,0,67,64
2854,note_on,,,,,0,0,1,,,,,0,63,64
2880,note_on,,,,,0,0,1,,,,,0,67,0
2880,note_on,,,,,26,0,1,,,,,0,63,0
2884,note_on,,,,,4,0,1,,,,,0,65,64
2884,note_on,,,,,0,0,1,,,,,0,62,64
2910,note_on,,,,,26,0,1,,,,,0,65,0
2914,note_on,,,,,4,0,1,,,,,0,70,64
2940,note_on,,,,,26,0,1,,,,,0,70,0
2944,note_on,,,,,4,0,1,,,,,0,68,64
2957,note_on,,,,,13,0,1,,,,,0,62,0
2959,note_on,,,,,2,0,1,,,,,0,60,64
2970,note_on,,,,,11,0,1,,,,,0,68,0
2972,note_on,,,,,2,0,1,,,,,0,60,0
2974,note_on,,,,,0,0,1,,,,,0,62,64
2974,note_on,,,,,2,0,1,,,,,0,67,64
2987,note_on,,,,,13,0,1,,,,,0,62,0
2989,note_on,,,,,2,0,1,,,,,0,63,64
3000,note_on,,,,,11,0,1,,,,,0,67,0
3002,note_on,,,,,2,0,1,,,,,0,63,0
3004,note_on,,,,,0,0,1,,,,,0,65,64
3004,note_on,,,,,2,0,1,,,,,0,68,64
3030,note_on,,,,,26,0,1,,,,,0,68,0
3034,note_on,,,,,4,0,1,,,,,0,72,64
3060,note_on,,,,,26,0,1,,,,,0,72,0
3064,note_on,,,,,4,0,1,,,,,0,68,64
3082,note_on,,,,,18,0,1,,,,,0,65,0
3090,note_on,,,,,8,0,1,,,,,0,68,0
3094,note_on,,,,,4,0,1,,,,,0,67,64
3094,note_on,,,,,0,0,1,,,,,0,63,64
3120,note_on,,,,,26,0,1,,,,,0,63,0
3120,note_on,,,,,0,0,1,,,,,0,67,0
3124,note_on,,,,,0,0,1,,,,,0,62,64
3124,note_on,,,,,4,0,1,,,,,0,65,64
3150,note_on,,,,,26,0,1,,,,,0,65,0
3154,note_on,,,,,4,0,1,,,,,0,68,64
3180,note_on,,,,,26,0,1,,,,,0,68,0
3184,note_on,,,,,4,0,1,,,,,0,65,64
3202,note_on,,,,,18,0,1,,,,,0,62,0
3210,note_on,,,,,8,0,1,,,,,0,65,0
3214,note_on,,,,,4,0,1,,,,,0,63,64
3214,note_on,,,,,0,0,1,,,,,0,60,64
3240,note_on,,,,,0,0,1,,,,,0,63,0
3240,note_on,,,,,26,0,1,,,,,0,60,0
3244,note_on,,,,,0,0,1,,,,,0,58,64
3244,note_on,,,,,0,0,1,,,,,0,62,64
3244,note_on,,,,,4,0,1,,,,,0,62,64
3270,note_on,,,,,26,0,1,,,,,0,62,0
3274,note_on,,,,,0,0,1,,,,,0,65,64
3274,note_on,,,,,4,0,1,,,,,0,65,64
3300,note_on,,,,,26,0,1,,,,,0,65,0
3304,note_on,,,,,4,0,1,,,,,0,68,64
3317,note_on,,,,,13,0,1,,,,,0,58,0
3319,note_on,,,,,2,0,1,,,,,0,55,64
3332,note_on,,,,,13,0,1,,,,,0,55,0
3334,note_on,,,,,2,0,1,,,,,0,53,64
3347,note_on,,,,,13,0,1,,,,,0,53,0
3349,note_on,,,,,2,0,1,,,,,0,51,64
3362,note_on,,,,,13,0,1,,,,,0,51,0
3364,note_on,,,,,2,0,1,,,,,0,50,64
3390,note_on,,,,,26,0,1,,,,,0,68,0
3394,note_on,,,,,4,0,1,,,,,0,67,64
3416,note_on,,,,,0,0,1,,,,,0,65,0
3416,note_on,,,,,22,0,1,,,,,0,62,0
3420,note_on,,,,,4,0,1,,,,,0,67,0
3424,note_on,,,,,0,0,1,,,,,0,68,64
3424,note_on,,,,,0,0,1,,,,,0,65,64
3424,note_on,,,,,4,0,1,,,,,0,62,64
3442,note_on,,,,,18,0,1,,,,,0,50,0
3454,note_on,,,,,12,0,1,,,,,0,51,64
3467,note_on,,,,,13,0,1,,,,,0,51,0
3469,note_on,,,,,2,0,1,,,,,0,53,64
3482,note_on,,,,,13,0,1,,,,,0,53,0
3484,note_on,,,,,2,0,1,,,,,0,46,64
3510,note_on,,,,,0,0,1,,,,,0,65,0
3510,note_on,,,,,0,0,1,,,,,0,68,0
3510,note_on,,,,,26,0,1,,,,,0,62,0
3514,note_on,,,,,4,0,1,,,,,0,77,64
3540,note_on,,,,,26,0,1,,,,,0,77,0
3544,note_on,,,,,4,0,1,,,,,0,70,64
3562,note_on,,,,,18,0,1,,,,,0,46,0
3570,note_on,,,,,8,0,1,,,,,0,70,0
3574,note_on,,,,,4,0,1,,,,,0,68,64
3574,note_on,,,,,0,0,1,,,,,0,48,64
3587,note_on,,,,,13,0,1,,,,,0,48,0
3589,note_on,,,,,2,0,1,,,,,0,50,64
3600,note_on,,,,,11,0,1,,,,,0,68,0
3602,note_on,,,,,2,0,1,,,,,0,50,0
3604,note_on,,,,,2,0,1,,,,,0,67,64
3604,note_on,,,,,0,0,1,,,,,0,51,64
3617,note_on,,,,,13,0,1,,,,,0,67,0
3619,note_on,,,,,2,0,1,,,,,0,68,64
3632,note_on,,,,,13,0,1,,,,,0,68,0
3634,note_on,,,,,2,0,1,,,,,0,70,64
3660,note_on,,,,,26,0,1,,,,,0,70,0
3664,note_on,,,,,4,0,1,,,,,0,63,64
3677,note_on,,,,,13,0,1,,,,,0,51,0
3679,note_on,,,,,2,0,1,,,,,0,50,64
3692,note_on,,,,,13,0,1,,,,,0,50,0
3694,note_on,,,,,2,0,1,,,,,0,48,64
3707,note_on,,,,,13,0,1,,,,,0,48,0
3709,note_on,,,,,2,0,1,,,,,0,46,64
3724,note_on,,,,,0,0,1,,,,,0,44,64
3724,note_on,,,,,15,0,1,,,,,0,46,0
3750,note_on,,,,,26,0,1,,,,,0,63,0
3754,note_on,,,,,4,0,1,,,,,0,60,64
3780,note_on,,,,,26,0,1,,,,,0,60,0
3784,note_on,,,,,4,0,1,,,,,0,65,64
3802,note_on,,,,,18,0,1,,,,,0,44,0
3810,note_on,,,,,8,0,1,,,,,0,65,0
3814,note_on,,,,,0,0,1,,,,,0,41,64
3814,note_on,,,,,4,0,1,,,,,0,68,64
3840,note_on,,,,,0,0,1,,,,,0,68,0
3840,note_on,,,,,26,0,1,,,,,0,41,0
3844,note_on,,,,,0,0,1,,,,,0,46,64
3844,note_on,,,,,4,0,1,,,,,0,67,64
3870,note_on,,,,,26,0,1,,,,,0,67,0
3874,note_on,,,,,4,0,1,,,,,0,65,64
3900,note_on,,,,,26,0,1,,,,,0,65,0
3904,note_on,,,,,4,0,1,,,,,0,63,64
3922,note_on,,,,,18,0,1,,,,,0,46,0
3930,note_on,,,,,8,0,1,,,,,0,63,0
3934,note_on,,,,,0,0,1,,,,,0,47,64
3934,note_on,,,,,4,0,1,,,,,0,62,64
3960,note_on,,,,,26,0,1,,,,,0,47,0
3960,note_on,,,,,0,0,1,,,,,0,62,0
3964,note_on,,,,,4,0,1,,,,,0,63,64
3964,note_on,,,,,0,0,1,,,,,0,48,64
3977,note_on,,,,,13,0,1,,,,,0,63,0
3979,note_on,,,,,2,0,1,,,,,0,62,64
3992,note_on,,,,,13,0,1,,,,,0,62,0
3994,note_on,,,,,2,0,1,,,,,0,60,64
4020,note_on,,,,,26,0,1,,,,,0,60,0
4024,note_on,,,,,4,0,1,,,,,0,68,64
4037,note_on,,,,,13,0,1,,,,,0,48,0
4039,note_on,,,,,2,0,1,,,,,0,51,64
4052,note_on,,,,,13,0,1,,,,,0,51,0
4054,note_on,,,,,2,0,1,,,,,0,53,64
4067,note_on,,,,,13,0,1,,,,,0,53,0
4069,note_on,,,,,2,0,1,,,,,0,55,64
4082,note_on,,,,,13,0,1,,,,,0,55,0
4084,note_on,,,,,2,0,1,,,,,0,56,64
4110,note_on,,,,,26,0,1,,,,,0,68,0
4114,note_on,,,,,4,0,1,,,,,0,63,64
4140,note_on,,,,,26,0,1,,,,,0,63,0
4144,note_on,,,,,4,0,1,,,,,0,68,64
4162,note_on,,,,,18,0,1,,,,,0,56,0
4170,note_on,,,,,8,0,1,,,,,0,68,0
4174,note_on,,,,,4,0,1,,,,,0,72,64
4174,note_on,,,,,0,0,1,,,,,0,53,64
4200,note_on,,,,,26,0,1,,,,,0,53,0
4200,note_on,,,,,0,0,1,,,,,0,72,0
4204,note_on,,,,,0,0,1,,,,,0,50,64
4204,note_on,,,,,4,0,1,,,,,0,70,64
4230,note_on,,,,,26,0,1,,,,,0,70,0
4234,note_on,,,,,4,0,1,,,,,0,68,64
4260,note_on,,,,,26,0,1,,,,,0,68,0
4264,note_on,,,,,4,0,1,,,,,0,67,64
4282,note_on,,,,,18,0,1,,,,,0,50,0
4290,note_on,,,,,8,0,1,,,,,0,67,0
4294,note_on,,,,,0,0,1,,,,,0,58,64
4294,note_on,,,,,4,0,1,,,,,0,65,64
4320,note_on,,,,,0,0,1,,,,,0,65,0
4320,note_on,,,,,26,0,1,,,,,0,58,0
4324,note_on,,,,,4,0,1,,,,,0,67,64
4324,note_on,,,,,0,0,1,,,,,0,51,64
4337,note_on,,,,,13,0,1,,,,,0,67,0
4339,note_on,,,,,2,0,1,,,,,0,65,64
4352,note_on,,,,,13,0,1,,,,,0,65,0
4354,note_on,,,,,2,0,1,,,,,0,63,64
4380,note_on,,,,,26,0,1,,,,,0,63,0
4384,note_on,,,,,4,0,1,,,,,0,72,64
4397,note_on,,,,,13,0,1,,,,,0,51,0
4399,note_on,,,,,2,0,1,,,,,0,55,64
4412,note_on,,,,,13,0,1,,,,,0,55,0
4414,note_on,,,,,2,0,1,,,,,0,56,64
4427,note_on,,,,,13,0,1,,,,,0,56,0
4429,note_on,,,,,2,0,1,,,,,0,58,64
4442,note_on,,,,,13,0,1,,,,,0,58,0
4444,note_on,,,,,2,0,1,,,,,0,60,64
4470,note_on,,,,,26,0,1,,,,,0,72,0
4474,note_on,,,,,4,0,1,,,,,0,67,64
4500,note_on,,,,,26,0,1,,,,,0,67,0
4504,note_on,,,,,4,0,1,,,,,0,72,64
4522,note_on,,,,,18,0,1,,,,,0,60,0
4530,note_on,,,,,8,0,1,,,,,0,72,0
4534,note_on,,,,,4,0,1,,,,,0,75,64
4534,note_on,,,,,0,0,1,,,,,0,56,64
4560,note_on,,,,,26,0,1,,,,,0,56,0
4560,note_on,,,,,0,0,1,,,,,0,75,0
4564,note_on,,,,,4,0,1,,,,,0,74,64
4564,note_on,,,,,0,0,1,,,,,0,53,64
4590,note_on,,,,,26,0,1,,,,,0,74,0
4594,note_on,,,,,4,0,1,,,,,0,72,64
4620,note_on,,,,,26,0,1,,,,,0,72,0
4624,note_on,,,,,4,0,1,,,,,0,70,64
4642,note_on,,,,,18,0,1,,,,,0,53,0
4650,note_on,,,,,8,0,1,,,,,0,70,0
4654,note_on,,,,,0,0,1,,,,,0,62,64
4654,note_on,,,,,4,0,1,,,,,0,68,64
4680,note_on,,,,,0,0,1,,,,,0,68,0
4680,note_on,,,,,26,0,1,,,,,0,62,0
4684,note_on,,,,,0,0,1,,,,,0,55,64
4684,note_on,,,,,4,0,1,,,,,0,70,64
4697,note_on,,,,,13,0,1,,,,,0,70,0
4699,note_on,,,,,2,0,1,,,,,0,68,64
4712,note_on,,,,,13,0,1,,,,,0,68,0
4714,note_on,,,,,2,0,1,,,,,0,67,64
4740,note_on,,,,,26,0,1,,,,,0,67,0
4744,note_on,,,,,4,0,1,,,,,0,75,64
4757,note_on,,,,,13,0,1,,,,,0,55,0
4759,note_on,,,,,2,0,1,,,,,0,58,64
4772,note_on,,,,,13,0,1,,,,,0,58,0
4774,note_on,,,,,2,0,1,,,,,0,60,64
4787,note_on,,,,,13,0,1,,,,,0,60,0
4789,note_on,,,,,2,0,1,,,,,0,62,64
4802,note_on,,,,,13,0,1,,,,,0,62,0
4804,note_on,,,,,2,0,1,,,,,0,63,64
4830,note_on,,,,,26,0,1,,,,,0,75,0
4834,note_on,,,,,4,0,1,,,,,0,70,64
4860,note_on,,,,,26,0,1,,,,,0,70,0
4864,note_on,,,,,4,0,1,,,,,0,75,64
4882,note_on,,,,,18,0,1,,,,,0,63,0
4890,note_on,,,,,8,0,1,,,,,0,75,0
4894,note_on,,,,,4,0,1,,,,,0,79,64
4894,note_on,,,,,0,0,1,,,,,0,60,64
4920,note_on,,,,,26,0,1,,,,,0,60,0
4920,note_on,,,,,0,0,1,,,,,0,79,0
4924,note_on,,,,,0,0,1,,,,,0,56,64
4924,note_on,,,,,4,0,1,,,,,0,77,64
4950,note_on,,,,,26,0,1,,,,,0,77,0
4954,note_on,,,,,4,0,1,,,,,0,75,64
4980,note_on,,,,,26,0,1,,,,,0,75,0
4984,note_on,,,,,4,0,1,,,,,0,74,64
5002,note_on,,,,,18,0,1,,,,,0,56,0
5010,note_on,,,,,8,0,1,,,,,0,74,0
5014,note_on,,,,,0,0,1,,,,,0,65,64
5014,note_on,,,,,4,0,1,,,,,0,72,64
5040,note_on,,,,,0,0,1,,,,,0,72,0
5040,note_on,,,,,26,0,1,,,,,0,65,0
5044,note_on,,,,,0,0,1,,,,,0,58,64
5044,note_on,,,,,0,0,1,,,,,0,65,64
5044,note_on,,,,,0,0,1,,,,,0,56,64
5044,note_on,,,,,4,0,1,,,,,0,74,64
5057,note_on,,,,,13,0,1,,,,,0,74,0
5059,note_on,,,,,2,0,1,,,,,0,75,64
5072,note_on,,,,,13,0,1,,,,,0,75,0
5074,note_on,,,,,2,0,1,,,,,0,77,64
5100,note_on,,,,,26,0,1,,,,,0,77,0
5104,note_on,,,,,4,0,1,,,,,0,70,64
5130,note_on,,,,,26,0,1,,,,,0,70,0
5134,note_on,,,,,4,0,1,,,,,0,72,64
5149,note_on,,,,,15,0,1,,,,,0,65,0
5149,note_on,,,,,0,0,1,,,,,0,56,0
5149,note_on,,,,,0,0,1,,,,,0,58,0
5160,note_on,,,,,11,0,1,,,,,0,72,0
5164,note_on,,,,,4,0,1,,,,,0,74,64
5190,note_on,,,,,26,0,1,,,,,0,74,0
5194,note_on,,,,,4,0,1,,,,,0,75,64
5220,note_on,,,,,26,0,1,,,,,0,75,0
5224,note_on,,,,,4,0,1,,,,,0,77,64
5239,note_on,,,,,15,0,1,,,,,0,63,64
5250,note_on,,,,,11,0,1,,,,,0,77,0
5252,note_on,,,,,2,0,1,,,,,0,63,0
5254,note_on,,,,,2,0,1,,,,,0,79,64
5254,note_on,,,,,0,0,1,,,,,0,62,64
5267,note_on,,,,,13,0,1,,,,,0,62,0
5269,note_on,,,,,2,0,1,,,,,0,60,64
5280,note_on,,,,,11,0,1,,,,,0,79,0
5282,note_on,,,,,2,0,1,,,,,0,60,0
5284,note_on,,,,,2,0,1,,,,,0,80,64
5284,note_on,,,,,0,0,1,,,,,0,58,64
5310,note_on,,,,,26,0,1,,,,,0,80,0
5314,note_on,,,,,4,0,1,,,,,0,77,64
5340,note_on,,,,,26,0,1,,,,,0,77,0
5344,note_on,,,,,4,0,1,,,,,0,75,64
5357,note_on,,,,,13,0,1,,,,,0,58,0
5359,note_on,,,,,2,0,1,,,,,0,60,64
5370,note_on,,,,,11,0,1,,,,,0,75,0
5372,note_on,,,,,2,0,1,,,,,0,60,0
5374,note_on,,,,,0,0,1,,,,,0,58,64
5374,note_on,,,,,2,0,1,,,,,0,74,64
5387,note_on,,,,,13,0,1,,,,,0,58,0
5389,note_on,,,,,2,0,1,,,,,0,56,64
5400,note_on,,,,,11,0,1,,,,,0,74,0
5402,note_on,,,,,2,0,1,,,,,0,56,0
5404,note_on,,,,,2,0,1,,,,,0,82,64
5404,note_on,,,,,0,0,1,,,,,0,55,64
5430,note_on,,,,,26,0,1,,,,,0,82,0
5434,note_on,,,,,4,0,1,,,,,0,79,64
5447,note_on,,,,,13,0,1,,,,,0,79,0
5449,note_on,,,,,2,0,1,,,,,0,77,64
5462,note_on,,,,,13,0,1,,,,,0,77,0
5464,note_on,,,,,2,0,1,,,,,0,75,64
5477,note_on,,,,,13,0,1,,,,,0,75,0
5479,note_on,,,,,2,0,1,,,,,0,77,64
5482,note_on,,,,,3,0,1,,,,,0,55,0
5492,note_on,,,,,10,0,1,,,,,0,77,0
5494,note_on,,,,,0,0,1,,,,,0,51,64
5494,note_on,,,,,2,0,1,,,,,0,79,64
5520,note_on,,,,,26,0,1,,,,,0,51,0
5520,note_on,,,,,0,0,1,,,,,0,79,0
5524,note_on,,,,,4,0,1,,,,,0,68,64
5524,note_on,,,,,0,0,1,,,,,0,60,64
5550,note_on,,,,,26,0,1,,,,,0,68,0
5554,note_on,,,,,4,0,1,,,,,0,77,64
5580,note_on,,,,,26,0,1,,,,,0,77,0
5584,note_on,,,,,4,0,1,,,,,0,74,64
5602,note_on,,,,,18,0,1,,,,,0,60,0
5610,note_on,,,,,8,0,1,,,,,0,74,0
5614,note_on,,,,,4,0,1,,,,,0,75,64
5614,note_on,,,,,0,0,1,,,,,0,56,64
5640,note_on,,,,,26,0,1,,,,,0,56,0
5640,note_on,,,,,0,0,1,,,,,0,75,0
5644,note_on,,,,,4,0,1,,,,,0,67,64
5644,note_on,,,,,0,0,1,,,,,0,58,64
5670,note_on,,,,,26,0,1,,,,,0,67,0
5674,note_on,,,,,4,0,1,,,,,0,75,64
5700,note_on,,,,,26,0,1,,,,,0,75,0
5704,note_on,,,,,4,0,1,,,,,0,65,64
5722,note_on,,,,,18,0,1,,,,,0,58,0
5730,note_on,,,,,8,0,1,,,,,0,65,0
5734,note_on,,,,,4,0,1,,,,,0,74,64
5734,note_on,,,,,0,0,1,,,,,0,46,64
5760,note_on,,,,,26,0,1,,,,,0,46,0
5760,note_on,,,,,0,0,1,,,,,0,74,0
5764,note_on,,,,,0,0,1,,,,,0,51,64
5764,note_on,,,,,0,0,1,,,,,0,67,64
5764,note_on,,,,,4,0,1,,,,,0,75,64
5794,note_on,,,,,30,0,1,,,,,0,70,64
5816,note_on,,,,,0,0,1,,,,,0,75,0
5816,note_on,,,,,22,0,1,,,,,0,67,0
5824,note_on,,,,,0,0,1,,,,,0,67,64
5824,note_on,,,,,8,0,1,,,,,0,75,64
5842,note_on,,,,,18,0,1,,,,,0,51,0
5854,note_on,,,,,12,0,1,,,,,0,53,64
5867,note_on,,,,,13,0,1,,,,,0,53,0
5869,note_on,,,,,2,0,1,,,,,0,55,64
5882,note_on,,,,,13,0,1,,,,,0,55,0
5884,note_on,,,,,2,0,1,,,,,0,46,64
5910,note_on,,,,,26,0,1,,,,,0,75,0
5914,note_on,,,,,4,0,1,,,,,0,74,64
5936,note_on,,,,,0,0,1,,,,,0,70,0
5936,note_on,,,,,22,0,1,,,,,0,67,0
5940,note_on,,,,,4,0,1,,,,,0,74,0
5944,note_on,,,,,0,0,1,,,,,0,67,64
5944,note_on,,,,,0,0,1,,,,,0,75,64
5944,note_on,,,,,4,0,1,,,,,0,70,64
5962,note_on,,,,,18,0,1,,,,,0,46,0
5974,note_on,,,,,12,0,1,,,,,0,50,64
5987,note_on,,,,,13,0,1,,,,,0,50,0
5989,note_on,,,,,2,0,1,,,,,0,51,64
6002,note_on,,,,,13,0,1,,,,,0,51,0
6004,note_on,,,,,2,0,1,,,,,0,43,64
6030,note_on,,,,,26,0,1,,,,,0,75,0
6034,note_on,,,,,4,0,1,,,,,0,74,64
6056,note_on,,,,,0,0,1,,,,,0,70,0
6056,note_on,,,,,22,0,1,,,,,0,67,0
6060,note_on,,,,,4,0,1,,,,,0,74,0
6064,note_on,,,,,0,0,1,,,,,0,67,64
6064,note_on,,,,,4,0,1,,,,,0,70,64
6064,note_on,,,,,0,0,1,,,,,0,75,64
6082,note_on,,,,,18,0,1,,,,,0,43,0
6094,note_on,,,,,12,0,1,,,,,0,44,64
6107,note_on,,,,,13,0,1,,,,,0,44,0
6109,note_on,,,,,2,0,1,,,,,0,46,64
6116,note_on,,,,,0,0,1,,,,,0,75,0
6116,note_on,,,,,0,0,1,,,,,0,70,0
6116,note_on,,,,,7,0,1,,,,,0,67,0
6122,note_on,,,,,6,0,1,,,,,0,46,0
6124,note_on,,,,,2,0,1,,,,,0,39,64
6154,note_on,,,,,30,0,1,,,,,0,75,64
6176,note_on,,,,,22,0,1,,,,,0,39,0
6180,note_on,,,,,4,0,1,,,,,0,75,0
6184,note_on,,,,,4,0,1,,,,,0,73,64
6210,note_on,,,,,26,0,1,,,,,0,73,0
6214,note_on,,,,,4,0,1,,,,,0,72,64
6240,note_on,,,,,26,0,1,,,,,0,72,0
6244,note_on,,,,,4,0,1,,,,,0,73,64
6270,note_on,,,,,26,0,1,,,,,0,73,0
6274,note_on,,,,,4,0,1,,,,,0,79,64
6300,note_on,,,,,26,0,1,,,,,0,79,0
6304,note_on,,,,,4,0,1,,,,,0,82,64
6330,note_on,,,,,26,0,1,,,,,0,82,0
6334,note_on,,,,,4,0,1,,,,,0,80,64
6360,note_on,,,,,26,0,1,,,,,0,80,0
6364,note_on,,,,,4,0,1,,,,,0,79,64
6390,note_on,,,,,26,0,1,,,,,0,79,0
6394,note_on,,,,,4,0,1,,,,,0,77,64
6420,note_on,,,,,26,0,1,,,,,0,77,0
6424,note_on,,,,,4,0,1,,,,,0,75,64
6450,note_on,,,,,26,0,1,,,,,0,75,0
6454,note_on,,,,,4,0,1,,,,,0,73,64
6480,note_on,,,,,26,0,1,,,,,0,73,0
6484,note_on,,,,,0,0,1,,,,,0,51,64
6484,note_on,,,,,4,0,1,,,,,0,72,64
6484,note_on,,,,,0,0,1,,,,,0,68,64
6514,note_on,,,,,30,0,1,,,,,0,63,64
6536,note_on,,,,,0,0,1,,,,,0,72,0
6536,note_on,,,,,22,0,1,,,,,0,68,0
6544,note_on,,,,,0,0,1,,,,,0,72,64
6544,note_on,,,,,8,0,1,,,,,0,68,64
6562,note_on,,,,,18,0,1,,,,,0,51,0
6574,note_on,,,,,12,0,1,,,,,0,55,64
6587,note_on,,,,,13,0,1,,,,,0,55,0
6589,note_on,,,,,2,0,1,,,,,0,56,64
6602,note_on,,,,,13,0,1,,,,,0,56,0
6604,note_on,,,,,2,0,1,,,,,0,48,64
6630,note_on,,,,,26,0,1,,,,,0,68,0
6634,note_on,,,,,4,0,1,,,,,0,67,64
6656,note_on,,,,,0,0,1,,,,,0,63,0
6656,note_on,,,,,22,0,1,,,,,0,72,0
6660,note_on,,,,,4,0,1,,,,,0,67,0
6664,note_on,,,,,0,0,1,,,,,0,63,64
6664,note_on,,,,,0,0,1,,,,,0,72,64
6664,note_on,,,,,4,0,1,,,,,0,68,64
6682,note_on,,,,,18,0,1,,,,,0,48,0
6694,note_on,,,,,12,0,1,,,,,0,49,64
6707,note_on,,,,,13,0,1,,,,,0,49,0
6709,note_on,,,,,2,0,1,,,,,0,51,64
6722,note_on,,,,,13,0,1,,,,,0,51,0
6724,note_on,,,,,2,0,1,,,,,0,44,64
6750,note_on,,,,,26,0,1,,,,,0,68,0
6754,note_on,,,,,4,0,1,,,,,0,67,64
6776,note_on,,,,,0,0,1,,,,,0,72,0
6776,note_on,,,,,22,0,1,,,,,0,63,0
6780,note_on,,,,,4,0,1,,,,,0,67,0
6784,note_on,,,,,0,0,1,,,,,0,72,64
6784,note_on,,,,,0,0,1,,,,,0,63,64
6784,note_on,,,,,4,0,1,,,,,0,68,64
6802,note_on,,,,,18,0,1,,,,,0,44,0
6814,note_on,,,,,12,0,1,,,,,0,46,64
6827,note_on,,,,,13,0,1,,,,,0,46,0
6829,note_on,,,,,2,0,1,,,,,0,48,64
6836,note_on,,,,,0,0,1,,,,,0,72,0
6836,note_on,,,,,0,0,1,,,,,0,68,0
6836,note_on,,,,,7,0,1,,,,,0,63,0
6842,note_on,,,,,6,0,1,,,,,0,48,0
6844,note_on,,,,,2,0,1,,,,,0,39,64
6874,note_on,,,,,30,0,1,,,,,0,70,64
6896,note_on,,,,,22,0,1,,,,,0,39,0
6900,note_on,,,,,4,0,1,,,,,0,70,0
6904,note_on,,,,,4,0,1,,,,,0,68,64
6930,note_on,,,,,26,0,1,,,,,0,68,0
6934,note_on,,,,,4,0,1,,,,,0,67,64
6960,note_on,,,,,26,0,1,,,,,0,67,0
6964,note_on,,,,,4,0,1,,,,,0,68,64
6990,note_on,,,,,26,0,1,,,,,0,68,0
6994,note_on,,,,,4,0,1,,,,,0,63,64
7020,note_on,,,,,26,0,1,,,,,0,63,0
7024,note_on,,,,,4,0,1,,,,,0,72,64
7050,note_on,,,,,26,0,1,,,,,0,72,0
7054,note_on,,,,,4,0,1,,,,,0,70,64
7080,note_on,,,,,26,0,1,,,,,0,70,0
7084,note_on,,,,,4,0,1,,,,,0,68,64
7110,note_on,,,,,26,0,1,,,,,0,68,0
7114,note_on,,,,,4,0,1,,,,,0,67,64
7140,note_on,,,,,26,0,1,,,,,0,67,0
7144,note_on,,,,,4,0,1,,,,,0,65,64
7170,note_on,,,,,26,0,1,,,,,0,65,0
7174,note_on,,,,,4,0,1,,,,,0,63,64
7200,note_on,,,,,26,0,1,,,,,0,63,0
7204,note_on,,,,,4,0,1,,,,,0,62,64
7230,note_on,,,,,26,0,1,,,,,0,62,0
7234,note_on,,,,,0,0,1,,,,,0,55,64
7234,note_on,,,,,4,0,1,,,,,0,63,64
7260,note_on,,,,,26,0,1,,,,,0,55,0
7260,note_on,,,,,0,0,1,,,,,0,63,0
7264,note_on,,,,,4,0,1,,,,,0,62,64
7264,note_on,,,,,0,0,1,,,,,0,53,64
7290,note_on,,,,,0,0,1,,,,,0,62,0
7290,note_on,,,,,26,0,1,,,,,0,53,0
7294,note_on,,,,,0,0,1,,,,,0,51,64
7294,note_on,,,,,4,0,1,,,,,0,60,64
7320,note_on,,,,,26,0,1,,,,,0,51,0
7320,note_on,,,,,0,0,1,,,,,0,60,0
7324,note_on,,,,,4,0,1,,,,,0,62,64
7324,note_on,,,,,0,0,1,,,,,0,53,64
7350,note_on,,,,,26,0,1,,,,,0,62,0
7354,note_on,,,,,4,0,1,,,,,0,65,64
7380,note_on,,,,,26,0,1,,,,,0,65,0
7384,note_on,,,,,4,0,1,,,,,0,58,64
7402,note_on,,,,,18,0,1,,,,,0,53,0
7410,note_on,,,,,8,0,1,,,,,0,58,0
7414,note_on,,,,,0,0,1,,,,,0,56,64
7414,note_on,,,,,4,0,1,,,,,0,60,64
7427,note_on,,,,,13,0,1,,,,,0,56,0
7429,note_on,,,,,2,0,1,,,,,0,55,64
7440,note_on,,,,,11,0,1,,,,,0,60,0
7442,note_on,,,,,2,0,1,,,,,0,55,0
7444,note_on,,,,,0,0,1,,,,,0,56,64
7444,note_on,,,,,2,0,1,,,,,0,62,64
7470,note_on,,,,,26,0,1,,,,,0,62,0
7474,note_on,,,,,4,0,1,,,,,0,63,64
7500,note_on,,,,,26,0,1,,,,,0,63,0
7504,note_on,,,,,4,0,1,,,,,0,65,64
7522,note_on,,,,,18,0,1,,,,,0,56,0
7530,note_on,,,,,8,0,1,,,,,0,65,0
7534,note_on,,,,,4,0,1,,,,,0,67,64
7534,note_on,,,,,0,0,1,,,,,0,51,64
7560,note_on,,,,,0,0,1,,,,,0,67,0
7560,note_on,,,,,26,0,1,,,,,0,51,0
7564,note_on,,,,,0,0,1,,,,,0,50,64
7564,note_on,,,,,4,0,1,,,,,0,68,64
7590,note_on,,,,,26,0,1,,,,,0,68,0
7594,note_on,,,,,4,0,1,,,,,0,70,64
7620,note_on,,,,,26,0,1,,,,,0,70,0
7624,note_on,,,,,4,0,1,,,,,0,68,64
7637,note_on,,,,,13,0,1,,,,,0,50,0
7639,note_on,,,,,2,0,1,,,,,0,48,64
7650,note_on,,,,,11,0,1,,,,,0,68,0
7652,note_on,,,,,2,0,1,,,,,0,48,0
7654,note_on,,,,,0,0,1,,,,,0,50,64
7654,note_on,,,,,2,0,1,,,,,0,67,64
7667,note_on,,,,,13,0,1,,,,,0,50,0
7669,note_on,,,,,2,0,1,,,,,0,51,64
7680,note_on,,,,,11,0,1,,,,,0,67,0
7682,note_on,,,,,2,0,1,,,,,0,51,0
7684,note_on,,,,,2,0,1,,,,,0,68,64
7684,note_on,,,,,0,0,1,,,,,0,53,64
7710,note_on,,,,,26,0,1,,,,,0,53,0
7710,note_on,,,,,0,0,1,,,,,0,68,0
7714,note_on,,,,,0,0,1,,,,,0,51,64
7714,note_on,,,,,4,0,1,,,,,0,72,64
7740,note_on,,,,,0,0,1,,,,,0,72,0
7740,note_on,,,,,26,0,1,,,,,0,51,0
7744,note_on,,,,,0,0,1,,,,,0,50,64
7744,note_on,,,,,4,0,1,,,,,0,65,64
7770,note_on,,,,,0,0,1,,,,,0,65,0
7770,note_on,,,,,26,0,1,,,,,0,50,0
7774,note_on,,,,,4,0,1,,,,,0,67,64
7774,note_on,,,,,0,0,1,,,,,0,48,64
7800,note_on,,,,,26,0,1,,,,,0,48,0
7800,note_on,,,,,0,0,1,,,,,0,67,0
7804,note_on,,,,,0,0,1,,,,,0,46,64
7804,note_on,,,,,4,0,1,,,,,0,68,64
7830,note_on,,,,,26,0,1,,,,,0,46,0
7830,note_on,,,,,0,0,1,,,,,0,68,0
7834,note_on,,,,,4,0,1,,,,,0,70,64
7834,note_on,,,,,0,0,1,,,,,0,44,64
7860,note_on,,,,,0,0,1,,,,,0,70,0
7860,note_on,,,,,26,0,1,,,,,0,44,0
7864,note_on,,,,,4,0,1,,,,,0,72,64
7864,note_on,,,,,0,0,1,,,,,0,43,64
7890,note_on,,,,,0,0,1,,,,,0,72,0
7890,note_on,,,,,26,0,1,,,,,0,43,0
7894,note_on,,,,,4,0,1,,,,,0,74,64
7894,note_on,,,,,0,0,1,,,,,0,41,64
7920,note_on,,,,,26,0,1,,,,,0,41,0
7920,note_on,,,,,0,0,1,,,,,0,74,0
7924,note_on,,,,,4,0,1,,,,,0,75,64
7924,note_on,,,,,0,0,1,,,,,0,39,64
7950,note_on,,,,,26,0,1,,,,,0,75,0
7954,note_on,,,,,4,0,1,,,,,0,68,64
7980,note_on,,,,,26,0,1,,,,,0,68,0
7984,note_on,,,,,4,0,1,,,,,0,67,64
7997,note_on,,,,,13,0,1,,,,,0,39,0
7999,note_on,,,,,2,0,1,,,,,0,46,64
8010,note_on,,,,,11,0,1,,,,,0,67,0
8012,note_on,,,,,2,0,1,,,,,0,46,0
8014,note_on,,,,,2,0,1,,,,,0,65,64
8014,note_on,,,,,0,0,1,,,,,0,48,64
8027,note_on,,,,,13,0,1,,,,,0,48,0
8029,note_on,,,,,2,0,1,,,,,0,50,64
8040,note_on,,,,,11,0,1,,,,,0,65,0
8042,note_on,,,,,2,0,1,,,,,0,50,0
8044,note_on,,,,,2,0,1,,,,,0,67,64
8044,note_on,,,,,0,0,1,,,,,0,51,64
8070,note_on,,,,,26,0,1,,,,,0,67,0
8074,note_on,,,,,4,0,1,,,,,0,70,64
8100,note_on,,,,,26,0,1,,,,,0,70,0
8104,note_on,,,,,4,0,1,,,,,0,67,64
8117,note_on,,,,,13,0,1,,,,,0,51,0
8119,note_on,,,,,2,0,1,,,,,0,50,64
8130,note_on,,,,,11,0,1,,,,,0,67,0
8132,note_on,,,,,2,0,1,,,,,0,50,0
8134,note_on,,,,,2,0,1,,,,,0,65,64
8134,note_on,,,,,0,0,1,,,,,0,51,64
8147,note_on,,,,,13,0,1,,,,,0,51,0
8149,note_on,,,,,2,0,1,,,,,0,53,64
8160,note_on,,,,,11,0,1,,,,,0,65,0
8162,note_on,,,,,2,0,1,,,,,0,53,0
8164,note_on,,,,,0,0,1,,,,,0,55,64
8164,note_on,,,,,2,0,1,,,,,0,63,64
8190,note_on,,,,,26,0,1,,,,,0,63,0
8194,note_on,,,,,4,0,1,,,,,0,73,64
8220,note_on,,,,,26,0,1,,,,,0,73,0
8224,note_on,,,,,4,0,1,,,,,0,72,64
8237,note_on,,,,,13,0,1,,,,,0,55,0
8239,note_on,,,,,2,0,1,,,,,0,51,64
8250,note_on,,,,,11,0,1,,,,,0,72,0
8252,note_on,,,,,2,0,1,,,,,0,51,0
8254,note_on,,,,,0,0,1,,,,,0,53,64
8254,note_on,,,,,2,0,1,,,,,0,70,64
8267,note_on,,,,,13,0,1,,,,,0,53,0
8269,note_on,,,,,2,0,1,,,,,0,55,64
8280,note_on,,,,,11,0,1,,,,,0,70,0
8282,note_on,,,,,2,0,1,,,,,0,55,0
8284,note_on,,,,,2,0,1,,,,,0,72,64
8284,note_on,,,,,0,0,1,,,,,0,44,64
8310,note_on,,,,,26,0,1,,,,,0,44,0
8314,note_on,,,,,4,0,1,,,,,0,61,64
8340,note_on,,,,,26,0,1,,,,,0,61,0
8344,note_on,,,,,4,0,1,,,,,0,60,64
8362,note_on,,,,,18,0,1,,,,,0,72,0
8370,note_on,,,,,8,0,1,,,,,0,60,0
8374,note_on,,,,,4,0,1,,,,,0,75,64
8374,note_on,,,,,0,0,1,,,,,0,58,64
8374,note_on,,,,,0,0,1,,,,,0,72,64
8400,note_on,,,,,26,0,1,,,,,0,58,0
8400,note_on,,,,,0,0,1,,,,,0,72,0
8400,note_on,,,,,0,0,1,,,,,0,75,0
8404,note_on,,,,,0,0,1,,,,,0,56,64
8404,note_on,,,,,0,0,1,,,,,0,72,64
8404,note_on,,,,,4,0,1,,,,,0,75,64
8430,note_on,,,,,26,0,1,,,,,0,56,0
8434,note_on,,,,,4,0,1,,,,,0,60,64
8460,note_on,,,,,26,0,1,,,,,0,60,0
8464,note_on,,,,,4,0,1,,,,,0,56,64
8482,note_on,,,,,18,0,1,,,,,0,72,0
8482,note_on,,,,,0,0,1,,,,,0,75,0
8490,note_on,,,,,8,0,1,,,,,0,56,0
8494,note_on,,,,,0,0,1,,,,,0,55,64
8494,note_on,,,,,0,0,1,,,,,0,75,64
8494,note_on,,,,,0,0,1,,,,,0,72,64
8494,note_on,,,,,4,0,1,,,,,0,80,64
8520,note_on,,,,,0,0,1,,,,,0,80,0
8520,note_on,,,,,26,0,1,,,,,0,55,0
8520,note_on,,,,,0,0,1,,,,,0,75,0
8520,note_on,,,,,0,0,1,,,,,0,72,0
8524,note_on,,,,,4,0,1,,,,,0,80,64
8524,note_on,,,,,0,0,1,,,,,0,72,64
8524,note_on,,,,,0,0,1,,,,,0,75,64
8524,note_on,,,,,0,0,1,,,,,0,53,64
8550,note_on,,,,,26,0,1,,,,,0,53,0
8554,note_on,,,,,4,0,1,,,,,0,56,64
8580,note_on,,,,,26,0,1,,,,,0,56,0
8584,note_on,,,,,4,0,1,,,,,0,53,64
8610,note_on,,,,,26,0,1,,,,,0,53,0
8614,note_on,,,,,4,0,1,,,,,0,51,64
8640,note_on,,,,,26,0,1,,,,,0,51,0
8644,note_on,,,,,4,0,1,,,,,0,49,64
8670,note_on,,,,,26,0,1,,,,,0,75,0
8670,note_on,,,,,0,0,1,,,,,0,72,0
8670,note_on,,,,,0,0,1,,,,,0,80,0
8674,note_on,,,,,4,0,1,,,,,0,67,64
8700,note_on,,,,,26,0,1,,,,,0,67,0
8704,note_on,,,,,4,0,1,,,,,0,65,64
8717,note_on,,,,,13,0,1,,,,,0,49,0
8719,note_on,,,,,2,0,1,,,,,0,44,64
8730,note_on,,,,,11,0,1,,,,,0,65,0
8732,note_on,,,,,2,0,1,,,,,0,44,0
8734,note_on,,,,,2,0,1,,,,,0,64,64
8734,note_on,,,,,0,0,1,,,,,0,46,64
8747,note_on,,,,,13,0,1,,,,,0,46,0
8749,note_on,,,,,2,0,1,,,,,0,48,64
8760,note_on,,,,,11,0,1,,,,,0,64,0
8762,note_on,,,,,2,0,1,,,,,0,48,0
8764,note_on,,,,,2,0,1,,,,,0,65,64
8764,note_on,,,,,0,0,1,,,,,0,49,64
8790,note_on,,,,,26,0,1,,,,,0,65,0
8794,note_on,,,,,4,0,1,,,,,0,68,64
8820,note_on,,,,,26,0,1,,,,,0,68,0
8824,note_on,,,,,4,0,1,,,,,0,65,64
8837,note_on,,,,,13,0,1,,,,,0,49,0
8839,note_on,,,,,2,0,1,,,,,0,48,64
8850,note_on,,,,,11,0,1,,,,,0,65,0
8852,note_on,,,,,2,0,1,,,,,0,48,0
8854,note_on,,,,,2,0,1,,,,,0,63,64
8854,note_on,,,,,0,0,1,,,,,0,49,64
8867,note_on,,,,,13,0,1,,,,,0,49,0
8869,note_on,,,,,2,0,1,,,,,0,51,64
8880,note_on,,,,,11,0,1,,,,,0,63,0
8882,note_on,,,,,2,0,1,,,,,0,51,0
8884,note_on,,,,,2,0,1,,,,,0,61,64
8884,note_on,,,,,0,0,1,,,,,0,53,64
8910,note_on,,,,,26,0,1,,,,,0,61,0
8914,note_on,,,,,4,0,1,,,,,0,72,64
8940,note_on,,,,,26,0,1,,,,,0,72,0
8944,note_on,,,,,4,0,1,,,,,0,70,64
8957,note_on,,,,,13,0,1,,,,,0,53,0
8959,note_on,,,,,2,0,1,,,,,0,49,64
8970,note_on,,,,,11,0,1,,,,,0,70,0
8972,note_on,,,,,2,0,1,,,,,0,49,0
8974,note_on,,,,,0,0,1,,,,,0,51,64
8974,note_on,,,,,2,0,1,,,,,0,68,64
8987,note_on,,,,,13,0,1,,,,,0,51,0
8989,note_on,,,,,2,0,1,,,,,0,53,64
9000,note_on,,,,,11,0,1,,,,,0,68,0
9002,note_on,,,,,2,0,1,,,,,0,53,0
9004,note_on,,,,,0,0,1,,,,,0,43,64
9004,note_on,,,,,2,0,1,,,,,0,70,64
9030,note_on,,,,,26,0,1,,,,,0,43,0
9034,note_on,,,,,4,0,1,,,,,0,60,64
9060,note_on,,,,,26,0,1,,,,,0,60,0
9064,note_on,,,,,4,0,1,,,,,0,58,64
9082,note_on,,,,,18,0,1,,,,,0,70,0
9090,note_on,,,,,8,0,1,,,,,0,58,0
9094,note_on,,,,,0,0,1,,,,,0,56,64
9094,note_on,,,,,0,0,1,,,,,0,70,64
9094,note_on,,,,,4,0,1,,,,,0,73,64
9120,note_on,,,,,26,0,1,,,,,0,56,0
9120,note_on,,,,,0,0,1,,,,,0,73,0
9120,note_on,,,,,0,0,1,,,,,0,70,0
9124,note_on,,,,,4,0,1,,,,,0,73,64
9124,note_on,,,,,0,0,1,,,,,0,70,64
9124,note_on,,,,,0,0,1,,,,,0,55,64
9150,note_on,,,,,26,0,1,,,,,0,55,0
9154,note_on,,,,,4,0,1,,,,,0,58,64
9180,note_on,,,,,26,0,1,,,,,0,58,0
9184,note_on,,,,,4,0,1,,,,,0,55,64
9202,note_on,,,,,0,0,1,,,,,0,73,0
9202,note_on,,,,,18,0,1,,,,,0,70,0
9210,note_on,,,,,8,0,1,,,,,0,55,0
9214,note_on,,,,,0,0,1,,,,,0,70,64
9214,note_on,,,,,0,0,1,,,,,0,73,64
9214,note_on,,,,,0,0,1,,,,,0,53,64
9214,note_on,,,,,4,0,1,,,,,0,79,64
9240,note_on,,,,,0,0,1,,,,,0,79,0
9240,note_on,,,,,0,0,1,,,,,0,70,0
9240,note_on,,,,,0,0,1,,,,,0,73,0
9240,note_on,,,,,26,0,1,,,,,0,53,0
9244,note_on,,,,,4,0,1,,,,,0,79,64
9244,note_on,,,,,0,0,1,,,,,0,70,64
9244,note_on,,,,,0,0,1,,,,,0,52,64
9244,note_on,,,,,0,0,1,,,,,0,73,64
9270,note_on,,,,,26,0,1,,,,,0,52,0
9274,note_on,,,,,4,0,1,,,,,0,55,64
9300,note_on,,,,,26,0,1,,,,,0,55,0
9304,note_on,,,,,4,0,1,,,,,0,52,64
9330,note_on,,,,,26,0,1,,,,,0,52,0
9334,note_on,,,,,4,0,1,,,,,0,50,64
9360,note_on,,,,,26,0,1,,,,,0,50,0
9364,note_on,,,,,4,0,1,,,,,0,48,64
9390,note_on,,,,,0,0,1,,,,,0,70,0
9390,note_on,,,,,0,0,1,,,,,0,79,0
9390,note_on,,,,,26,0,1,,,,,0,73,0
9394,note_on,,,,,4,0,1,,,,,0,65,64
9420,note_on,,,,,26,0,1,,,,,0,65,0
9424,note_on,,,,,4,0,1,,,,,0,64,64
9437,note_on,,,,,13,0,1,,,,,0,48,0
9439,note_on,,,,,2,0,1,,,,,0,43,64
9450,note_on,,,,,11,0,1,,,,,0,64,0
9452,note_on,,,,,2,0,1,,,,,0,43,0
9454,note_on,,,,,2,0,1,,,,,0,62,64
9454,note_on,,,,,0,0,1,,,,,0,44,64
9467,note_on,,,,,13,0,1,,,,,0,44,0
9469,note_on,,,,,2,0,1,,,,,0,46,64
9480,note_on,,,,,11,0,1,,,,,0,62,0
9482,note_on,,,,,2,0,1,,,,,0,46,0
9484,note_on,,,,,0,0,1,,,,,0,48,64
9484,note_on,,,,,2,0,1,,,,,0,64,64
9510,note_on,,,,,26,0,1,,,,,0,64,0
9514,note_on,,,,,4,0,1,,,,,0,67,64
9540,note_on,,,,,26,0,1,,,,,0,67,0
9544,note_on,,,,,4,0,1,,,,,0,64,64
9557,note_on,,,,,13,0,1,,,,,0,48,0
9559,note_on,,,,,2,0,1,,,,,0,47,64
9570,note_on,,,,,11,0,1,,,,,0,64,0
9572,note_on,,,,,2,0,1,,,,,0,47,0
9574,note_on,,,,,2,0,1,,,,,0,62,64
9574,note_on,,,,,0,0,1,,,,,0,48,64
9587,note_on,,,,,13,0,1,,,,,0,48,0
9589,note_on,,,,,2,0,1,,,,,0,50,64
9600,note_on,,,,,11,0,1,,,,,0,62,0
9602,note_on,,,,,2,0,1,,,,,0,50,0
9604,note_on,,,,,0,0,1,,,,,0,52,64
9604,note_on,,,,,2,0,1,,,,,0,60,64
9630,note_on,,,,,26,0,1,,,,,0,60,0
9634,note_on,,,,,4,0,1,,,,,0,70,64
9660,note_on,,,,,26,0,1,,,,,0,70,0
9664,note_on,,,,,4,0,1,,,,,0,68,64
9677,note_on,,,,,13,0,1,,,,,0,52,0
9679,note_on,,,,,2,0,1,,,,,0,48,64
9690,note_on,,,,,11,0,1,,,,,0,68,0
9692,note_on,,,,,2,0,1,,,,,0,48,0
9694,note_on,,,,,2,0,1,,,,,0,67,64
9694,note_on,,,,,0,0,1,,,,,0,50,64
9707,note_on,,,,,13,0,1,,,,,0,50,0
9709,note_on,,,,,2,0,1,,,,,0,52,64
9720,note_on,,,,,11,0,1,,,,,0,67,0
9722,note_on,,,,,2,0,1,,,,,0,52,0
9724,note_on,,,,,0,0,1,,,,,0,41,64
9724,note_on,,,,,2,0,1,,,,,0,68,64
9750,note_on,,,,,26,0,1,,,,,0,41,0
9754,note_on,,,,,4,0,1,,,,,0,58,64
9780,note_on,,,,,26,0,1,,,,,0,58,0
9784,note_on,,,,,4,0,1,,,,,0,56,64
9802,note_on,,,,,18,0,1,,,,,0,68,0
9810,note_on,,,,,8,0,1,,,,,0,56,0
9814,note_on,,,,,0,0,1,,,,,0,55,64
9814,note_on,,,,,0,0,1,,,,,0,68,64
9814,note_on,,,,,4,0,1,,,,,0,72,64
9840,note_on,,,,,0,0,1,,,,,0,68,0
9840,note_on,,,,,26,0,1,,,,,0,55,0
9840,note_on,,,,,0,0,1,,,,,0,72,0
9844,note_on,,,,,4,0,1,,,,,0,72,64
9844,note_on,,,,,0,0,1,,,,,0,68,64
9844,note_on,,,,,0,0,1,,,,,0,53,64
9870,note_on,,,,,26,0,1,,,,,0,53,0
9874,note_on,,,,,4,0,1,,,,,0,56,64
9900,note_on,,,,,26,0,1,,,,,0,56,0
9904,note_on,,,,,4,0,1,,,,,0,53,64
9922,note_on,,,,,0,0,1,,,,,0,72,0
9922,note_on,,,,,18,0,1,,,,,0,68,0
9930,note_on,,,,,8,0,1,,,,,0,53,0
9934,note_on,,,,,0,0,1,,,,,0,51,64
9934,note_on,,,,,0,0,1,,,,,0,68,64
9934,note_on,,,,,0,0,1,,,,,0,72,64
9934,note_on,,,,,4,0,1,,,,,0,77,64
9960,note_on,,,,,0,0,1,,,,,0,72,0
9960,note_on,,,,,0,0,1,,,,,0,68,0
9960,note_on,,,,,0,0,1,,,,,0,77,0
9960,note_on,,,,,26,0,1,,,,,0,51,0
9964,note_on,,,,,0,0,1,,,,,0,68,64
9964,note_on,,,,,4,0,1,,,,,0,77,64
9964,note_on,,,,,0,0,1,,,,,0,49,64
9964,note_on,,,,,0,0,1,,,,,0,72,64
9990,note_on,,,,,26,0,1,,,,,0,49,0
9994,note_on,,,,,4,0,1,,,,,0,53,64
10020,note_on,,,,,26,0,1,,,,,0,53,0
10024,note_on,,,,,4,0,1,,,,,0,49,64
10050,note_on,,,,,26,0,1,,,,,0,49,0
10054,note_on,,,,,4,0,1,,,,,0,48,64
10080,note_on,,,,,26,0,1,,,,,0,48,0
10084,note_on,,,,,4,0,1,,,,,0,46,64
10110,note_on,,,,,26,0,1,,,,,0,72,0
10110,note_on,,,,,0,0,1,,,,,0,68,0
10110,note_on,,,,,0,0,1,,,,,0,77,0
10114,note_on,,,,,4,0,1,,,,,0,78,64
10140,note_on,,,,,26,0,1,,,,,0,78,0
10144,note_on,,,,,4,0,1,,,,,0,77,64
10157,note_on,,,,,13,0,1,,,,,0,46,0
10159,note_on,,,,,2,0,1,,,,,0,57,64
10170,note_on,,,,,11,0,1,,,,,0,77,0
10172,note_on,,,,,2,0,1,,,,,0,57,0
10174,note_on,,,,,2,0,1,,,,,0,76,64
10174,note_on,,,,,0,0,1,,,,,0,58,64
10187,note_on,,,,,13,0,1,,,,,0,58,0
10189,note_on,,,,,2,0,1,,,,,0,60,64
10200,note_on,,,,,11,0,1,,,,,0,76,0
10202,note_on,,,,,2,0,1,,,,,0,60,0
10204,note_on,,,,,0,0,1,,,,,0,61,64
10204,note_on,,,,,2,0,1,,,,,0,77,64
10230,note_on,,,,,26,0,1,,,,,0,77,0
10234,note_on,,,,,4,0,1,,,,,0,82,64
10260,note_on,,,,,26,0,1,,,,,0,82,0
10264,note_on,,,,,4,0,1,,,,,0,77,64
10277,note_on,,,,,13,0,1,,,,,0,61,0
10279,note_on,,,,,2,0,1,,,,,0,60,64
10290,note_on,,,,,11,0,1,,,,,0,77,0
10292,note_on,,,,,2,0,1,,,,,0,60,0
10294,note_on,,,,,2,0,1,,,,,0,75,64
10294,note_on,,,,,0,0,1,,,,,0,61,64
10307,note_on,,,,,13,0,1,,,,,0,61,0
10309,note_on,,,,,2,0,1,,,,,0,63,64
10320,note_on,,,,,11,0,1,,,,,0,75,0
10322,note_on,,,,,2,0,1,,,,,0,63,0
10324,note_on,,,,,2,0,1,,,,,0,73,64
10324,note_on,,,,,0,0,1,,,,,0,65,64
10350,note_on,,,,,26,0,1,,,,,0,73,0
10354,note_on,,,,,4,0,1,,,,,0,77,64
10376,note_on,,,,,22,0,1,,,,,0,65,0
10380,note_on,,,,,4,0,1,,,,,0,77,0
10384,note_on,,,,,4,0,1,,,,,0,73,64
10410,note_on,,,,,26,0,1,,,,,0,73,0
10414,note_on,,,,,4,0,1,,,,,0,72,64
10440,note_on,,,,,26,0,1,,,,,0,72,0
10444,note_on,,,,,4,0,1,,,,,0,70,64
10470,note_on,,,,,26,0,1,,,,,0,70,0
10474,note_on,,,,,4,0,1,,,,,0,75,64
10500,note_on,,,,,26,0,1,,,,,0,75,0
10504,note_on,,,,,4,0,1,,,,,0,73,64
10519,note_on,,,,,15,0,1,,,,,0,53,64
10530,note_on,,,,,11,0,1,,,,,0,73,0
10532,note_on,,,,,2,0,1,,,,,0,53,0
10534,note_on,,,,,2,0,1,,,,,0,72,64
10534,note_on,,,,,0,0,1,,,,,0,55,64
10547,note_on,,,,,13,0,1,,,,,0,55,0
10549,note_on,,,,,2,0,1,,,,,0,57,64
10560,note_on,,,,,11,0,1,,,,,0,72,0
10562,note_on,,,,,2,0,1,,,,,0,57,0
10564,note_on,,,,,2,0,1,,,,,0,73,64
10564,note_on,,,,,0,0,1,,,,,0,58,64
10590,note_on,,,,,26,0,1,,,,,0,73,0
10594,note_on,,,,,4,0,1,,,,,0,77,64
10620,note_on,,,,,26,0,1,,,,,0,77,0
10624,note_on,,,,,4,0,1,,,,,0,73,64
10637,note_on,,,,,13,0,1,,,,,0,58,0
10639,note_on,,,,,2,0,1,,,,,0,57,64
10650,note_on,,,,,11,0,1,,,,,0,73,0
10652,note_on,,,,,2,0,1,,,,,0,57,0
10654,note_on,,,,,2,0,1,,,,,0,72,64
10654,note_on,,,,,0,0,1,,,,,0,58,64
10667,note_on,,,,,13,0,1,,,,,0,58,0
10669,note_on,,,,,2,0,1,,,,,0,60,64
10680,note_on,,,,,11,0,1,,,,,0,72,0
10682,note_on,,,,,2,0,1,,,,,0,60,0
10684,note_on,,,,,0,0,1,,,,,0,61,64
10684,note_on,,,,,2,0,1,,,,,0,70,64
10710,note_on,,,,,26,0,1,,,,,0,70,0
10714,note_on,,,,,4,0,1,,,,,0,73,64
10736,note_on,,,,,22,0,1,,,,,0,61,0
10740,note_on,,,,,4,0,1,,,,,0,73,0
10744,note_on,,,,,4,0,1,,,,,0,70,64
10770,note_on,,,,,26,0,1,,,,,0,70,0
10774,note_on,,,,,4,0,1,,,,,0,68,64
10800,note_on,,,,,26,0,1,,,,,0,68,0
10804,note_on,,,,,4,0,1,,,,,0,66,64
10830,note_on,,,,,26,0,1,,,,,0,66,0
10834,note_on,,,,,4,0,1,,,,,0,71,64
10860,note_on,,,,,26,0,1,,,,,0,71,0
10864,note_on,,,,,4,0,1,,,,,0,70,64
10879,note_on,,,,,15,0,1,,,,,0,49,64
10890,note_on,,,,,11,0,1,,,,,0,70,0
10892,note_on,,,,,2,0,1,,,,,0,49,0
10894,note_on,,,,,0,0,1,,,,,0,51,64
10894,note_on,,,,,2,0,1,,,,,0,69,64
10907,note_on,,,,,13,0,1,,,,,0,51,0
10909,note_on,,,,,2,0,1,,,,,0,53,64
10920,note_on,,,,,11,0,1,,,,,0,69,0
10922,note_on,,,,,2,0,1,,,,,0,53,0
10924,note_on,,,,,0,0,1,,,,,0,54,64
10924,note_on,,,,,2,0,1,,,,,0,70,64
10950,note_on,,,,,26,0,1,,,,,0,70,0
10954,note_on,,,,,4,0,1,,,,,0,73,64
10980,note_on,,,,,26,0,1,,,,,0,73,0
10984,note_on,,,,,4,0,1,,,,,0,70,64
10997,note_on,,,,,13,0,1,,,,,0,54,0
10999,note_on,,,,,2,0,1,,,,,0,53,64
11010,note_on,,,,,11,0,1,,,,,0,70,0
11012,note_on,,,,,2,0,1,,,,,0,53,0
11014,note_on,,,,,0,0,1,,,,,0,54,64
11014,note_on,,,,,2,0,1,,,,,0,68,64
11027,note_on,,,,,13,0,1,,,,,0,54,0
11029,note_on,,,,,2,0,1,,,,,0,56,64
11040,note_on,,,,,11,0,1,,,,,0,68,0
11042,note_on,,,,,2,0,1,,,,,0,56,0
11044,note_on,,,,,2,0,1,,,,,0,66,64
11044,note_on,,,,,0,0,1,,,,,0,58,64
11070,note_on,,,,,26,0,1,,,,,0,66,0
11074,note_on,,,,,4,0,1,,,,,0,70,64
11096,note_on,,,,,22,0,1,,,,,0,58,0
11100,note_on,,,,,4,0,1,,,,,0,70,0
11104,note_on,,,,,4,0,1,,,,,0,66,64
11130,note_on,,,,,26,0,1,,,,,0,66,0
11134,note_on,,,,,4,0,1,,,,,0,65,64
11160,note_on,,,,,26,0,1,,,,,0,65,0
11164,note_on,,,,,4,0,1,,,,,0,64,64
11194,note_on,,,,,30,0,1,,,,,0,56,64
11220,note_on,,,,,26,0,1,,,,,0,56,0
11224,note_on,,,,,4,0,1,,,,,0,55,64
11237,note_on,,,,,13,0,1,,,,,0,64,0
11239,note_on,,,,,2,0,1,,,,,0,62,64
11250,note_on,,,,,11,0,1,,,,,0,55,0
11252,note_on,,,,,2,0,1,,,,,0,62,0
11254,note_on,,,,,2,0,1,,,,,0,64,64
11254,note_on,,,,,0,0,1,,,,,0,53,64
11267,note_on,,,,,13,0,1,,,,,0,64,0
11269,note_on,,,,,2,0,1,,,,,0,65,64
11280,note_on,,,,,11,0,1,,,,,0,53,0
11282,note_on,,,,,2,0,1,,,,,0,65,0
11284,note_on,,,,,0,0,1,,,,,0,52,64
11284,note_on,,,,,2,0,1,,,,,0,67,64
11310,note_on,,,,,26,0,1,,,,,0,52,0
11314,note_on,,,,,4,0,1,,,,,0,58,64
11340,note_on,,,,,26,0,1,,,,,0,58,0
11344,note_on,,,,,4,0,1,,,,,0,52,64
11357,note_on,,,,,13,0,1,,,,,0,67,0
11359,note_on,,,,,2,0,1,,,,,0,65,64
11370,note_on,,,,,11,0,1,,,,,0,52,0
11372,note_on,,,,,2,0,1,,,,,0,65,0
11374,note_on,,,,,0,0,1,,,,,0,50,64
11374,note_on,,,,,2,0,1,,,,,0,67,64
11387,note_on,,,,,13,0,1,,,,,0,67,0
11389,note_on,,,,,2,0,1,,,,,0,68,64
11400,note_on,,,,,11,0,1,,,,,0,50,0
11402,note_on,,,,,2,0,1,,,,,0,68,0
11404,note_on,,,,,0,0,1,,,,,0,48,64
11404,note_on,,,,,2,0,1,,,,,0,70,64
11430,note_on,,,,,26,0,1,,,,,0,48,0
11434,note_on,,,,,4,0,1,,,,,0,55,64
11456,note_on,,,,,22,0,1,,,,,0,70,0
11460,note_on,,,,,4,0,1,,,,,0,55,0
11464,note_on,,,,,4,0,1,,,,,0,48,64
11490,note_on,,,,,26,0,1,,,,,0,48,0
11494,note_on,,,,,4,0,1,,,,,0,46,64
11520,note_on,,,,,26,0,1,,,,,0,46,0
11524,note_on,,,,,4,0,1,,,,,0,44,64
11539,note_on,,,,,15,0,1,,,,,0,72,64
11552,note_on,,,,,13,0,1,,,,,0,72,0
11554,note_on,,,,,2,0,1,,,,,0,74,64
11567,note_on,,,,,13,0,1,,,,,0,74,0
11569,note_on,,,,,2,0,1,,,,,0,76,64
11582,note_on,,,,,13,0,1,,,,,0,76,0
11584,note_on,,,,,2,0,1,,,,,0,77,64
11597,note_on,,,,,13,0,1,,,,,0,44,0
11599,note_on,,,,,2,0,1,,,,,0,56,64
11612,note_on,,,,,13,0,1,,,,,0,56,0
11614,note_on,,,,,2,0,1,,,,,0,58,64
11627,note_on,,,,,13,0,1,,,,,0,58,0
11629,note_on,,,,,2,0,1,,,,,0,60,64
11642,note_on,,,,,13,0,1,,,,,0,60,0
11644,note_on,,,,,2,0,1,,,,,0,61,64
11657,note_on,,,,,13,0,1,,,,,0,77,0
11659,note_on,,,,,2,0,1,,,,,0,72,64
11672,note_on,,,,,13,0,1,,,,,0,72,0
11674,note_on,,,,,2,0,1,,,,,0,70,64
11687,note_on,,,,,13,0,1,,,,,0,70,0
11689,note_on,,,,,2,0,1,,,,,0,68,64
11702,note_on,,,,,13,0,1,,,,,0,68,0
11704,note_on,,,,,2,0,1,,,,,0,70,64
11722,note_on,,,,,18,0,1,,,,,0,61,0
11730,note_on,,,,,8,0,1,,,,,0,70,0
11734,note_on,,,,,0,0,1,,,,,0,58,64
11734,note_on,,,,,4,0,1,,,,,0,73,64
11760,note_on,,,,,26,0,1,,,,,0,58,0
11760,note_on,,,,,0,0,1,,,,,0,73,0
11764,note_on,,,,,0,0,1,,,,,0,60,64
11764,note_on,,,,,4,0,1,,,,,0,67,64
11790,note_on,,,,,26,0,1,,,,,0,67,0
11794,note_on,,,,,4,0,1,,,,,0,70,64
11824,note_on,,,,,30,0,1,,,,,0,65,64
11842,note_on,,,,,18,0,1,,,,,0,60,0
11850,note_on,,,,,8,0,1,,,,,0,65,0
11854,note_on,,,,,0,0,1,,,,,0,48,64
11854,note_on,,,,,4,0,1,,,,,0,64,64
11880,note_on,,,,,0,0,1,,,,,0,64,0
11880,note_on,,,,,26,0,1,,,,,0,48,0
11884,note_on,,,,,0,0,1,,,,,0,53,64
11884,note_on,,,,,4,0,1,,,,,0,65,64
11914,note_on,,,,,30,0,1,,,,,0,60,64
11936,note_on,,,,,22,0,1,,,,,0,65,0
11936,note_on,,,,,0,0,1,,,,,0,70,0
11944,note_on,,,,,8,0,1,,,,,0,65,64
11944,note_on,,,,,0,0,1,,,,,0,68,64
11962,note_on,,,,,18,0,1,,,,,0,53,0
11974,note_on,,,,,12,0,1,,,,,0,55,64
11987,note_on,,,,,13,0,1,,,,,0,55,0
11989,note_on,,,,,2,0,1,,,,,0,56,64
12002,note_on,,,,,13,0,1,,,,,0,56,0
12004,note_on,,,,,2,0,1,,,,,0,48,64
12030,note_on,,,,,26,0,1,,,,,0,65,0
12034,note_on,,,,,4,0,1,,,,,0,64,64
12056,note_on,,,,,22,0,1,,,,,0,68,0
12056,note_on,,,,,0,0,1,,,,,0,60,0
12060,note_on,,,,,4,0,1,,,,,0,64,0
12064,note_on,,,,,4,0,1,,,,,0,65,64
12064,note_on,,,,,0,0,1,,,,,0,60,64
12064,note_on,,,,,0,0,1,,,,,0,68,64
12082,note_on,,,,,18,0,1,,,,,0,48,0
12094,note_on,,,,,12,0,1,,,,,0,52,64
12107,note_on,,,,,13,0,1,,,,,0,52,0
12109,note_on,,,,,2,0,1,,,,,0,53,64
12122,note_on,,,,,13,0,1,,,,,0,53,0
12124,note_on,,,,,2,0,1,,,,,0,44,64
12150,note_on,,,,,26,0,1,,,,,0,65,0
12154,note_on,,,,,4,0,1,,,,,0,64,64
12176,note_on,,,,,22,0,1,,,,,0,60,0
12176,note_on,,,,,0,0,1,,,,,0,68,0
12180,note_on,,,,,4,0,1,,,,,0,64,0
12184,note_on,,,,,0,0,1,,,,,0,60,64
12184,note_on,,,,,0,0,1,,,,,0,68,64
12184,note_on,,,,,4,0,1,,,,,0,65,64
12202,note_on,,,,,18,0,1,,,,,0,44,0
12214,note_on,,,,,12,0,1,,,,,0,46,64
12227,note_on,,,,,13,0,1,,,,,0,46,0
12229,note_on,,,,,2,0,1,,,,,0,48,64
12236,note_on,,,,,0,0,1,,,,,0,68,0
12236,note_on,,,,,7,0,1,,,,,0,60,0
12236,note_on,,,,,0,0,1,,,,,0,65,0
12242,note_on,,,,,6,0,1,,,,,0,48,0
12244,note_on,,,,,2,0,1,,,,,0,41,64
12274,note_on,,,,,30,0,1,,,,,0,67,64
12296,note_on,,,,,22,0,1,,,,,0,41,0
12300,note_on,,,,,4,0,1,,,,,0,67,0
12304,note_on,,,,,4,0,1,,,,,0,65,64
12330,note_on,,,,,26,0,1,,,,,0,65,0
12334,note_on,,,,,4,0,1,,,,,0,64,64
12360,note_on,,,,,26,0,1,,,,,0,64,0
12364,note_on,,,,,4,0,1,,,,,0,65,64
12390,note_on,,,,,26,0,1,,,,,0,65,0
12394,note_on,,,,,4,0,1,,,,,0,68,64
12420,note_on,,,,,26,0,1,,,,,0,68,0
12424,note_on,,,,,4,0,1,,,,,0,72,64
12450,note_on,,,,,26,0,1,,,,,0,72,0
12454,note_on,,,,,4,0,1,,,,,0,70,64
12480,note_on,,,,,26,0,1,,,,,0,70,0
12484,note_on,,,,,4,0,1,,,,,0,68,64
12510,note_on,,,,,26,0,1,,,,,0,68,0
12514,note_on,,,,,4,0,1,,,,,0,67,64
12540,note_on,,,,,26,0,1,,,,,0,67,0
12544,note_on,,,,,4,0,1,,,,,0,65,64
12570,note_on,,,,,26,0,1,,,,,0,65,0
12574,note_on,,,,,4,0,1,,,,,0,63,64
12600,note_on,,,,,26,0,1,,,,,0,63,0
12604,note_on,,,,,0,0,1,,,,,0,53,64
12604,note_on,,,,,0,0,1,,,,,0,61,64
12604,note_on,,,,,4,0,1,,,,,0,70,64
12634,note_on,,,,,30,0,1,,,,,0,65,64
12656,note_on,,,,,22,0,1,,,,,0,61,0
12656,note_on,,,,,0,0,1,,,,,0,70,0
12664,note_on,,,,,8,0,1,,,,,0,70,64
12664,note_on,,,,,0,0,1,,,,,0,61,64
12682,note_on,,,,,18,0,1,,,,,0,53,0
12694,note_on,,,,,12,0,1,,,,,0,57,64
12707,note_on,,,,,13,0,1,,,,,0,57,0
12709,note_on,,,,,2,0,1,,,,,0,58,64
12722,note_on,,,,,13,0,1,,,,,0,58,0
12724,note_on,,,,,2,0,1,,,,,0,49,64
12750,note_on,,,,,26,0,1,,,,,0,70,0
12754,note_on,,,,,4,0,1,,,,,0,69,64
12776,note_on,,,,,0,0,1,,,,,0,65,0
12776,note_on,,,,,22,0,1,,,,,0,61,0
12780,note_on,,,,,4,0,1,,,,,0,69,0
12784,note_on,,,,,4,0,1,,,,,0,65,64
12784,note_on,,,,,0,0,1,,,,,0,61,64
12784,note_on,,,,,0,0,1,,,,,0,70,64
12802,note_on,,,,,18,0,1,,,,,0,49,0
12814,note_on,,,,,12,0,1,,,,,0,51,64
12827,note_on,,,,,13,0,1,,,,,0,51,0
12829,note_on,,,,,2,0,1,,,,,0,53,64
12842,note_on,,,,,13,0,1,,,,,0,53,0
12844,note_on,,,,,2,0,1,,,,,0,46,64
12870,note_on,,,,,26,0,1,,,,,0,70,0
12874,note_on,,,,,4,0,1,,,,,0,69,64
12896,note_on,,,,,0,0,1,,,,,0,65,0
12896,note_on,,,,,22,0,1,,,,,0,61,0
12900,note_on,,,,,4,0,1,,,,,0,69,0
12904,note_on,,,,,0,0,1,,,,,0,61,64
12904,note_on,,,,,4,0,1,,,,,0,65,64
12904,note_on,,,,,0,0,1,,,,,0,70,64
12922,note_on,,,,,18,0,1,,,,,0,46,0
12934,note_on,,,,,12,0,1,,,,,0,48,64
12947,note_on,,,,,13,0,1,,,,,0,48,0
12949,note_on,,,,,2,0,1,,,,,0,49,64
12956,note_on,,,,,0,0,1,,,,,0,65,0
12956,note_on,,,,,7,0,1,,,,,0,61,0
12956,note_on,,,,,0,0,1,,,,,0,70,0
12962,note_on,,,,,6,0,1,,,,,0,49,0
12964,note_on,,,,,2,0,1,,,,,0,41,64
12994,note_on,,,,,30,0,1,,,,,0,53,64
13016,note_on,,,,,22,0,1,,,,,0,41,0
13020,note_on,,,,,4,0,1,,,,,0,53,0
13024,note_on,,,,,4,0,1,,,,,0,55,64
13050,note_on,,,,,26,0,1,,,,,0,55,0
13054,note_on,,,,,4,0,1,,,,,0,57,64
13080,note_on,,,,,26,0,1,,,,,0,57,0
13084,note_on,,,,,4,0,1,,,,,0,58,64
13110,note_on,,,,,26,0,1,,,,,0,58,0
13114,note_on,,,,,4,0,1,,,,,0,60,64
13140,note_on,,,,,26,0,1,,,,,0,60,0
13144,note_on,,,,,4,0,1,,,,,0,61,64
13170,note_on,,,,,26,0,1,,,,,0,61,0
13174,note_on,,,,,4,0,1,,,,,0,60,64
13200,note_on,,,,,26,0,1,,,,,0,60,0
13204,note_on,,,,,4,0,1,,,,,0,63,64
13230,note_on,,,,,26,0,1,,,,,0,63,0
13234,note_on,,,,,4,0,1,,,,,0,61,64
13260,note_on,,,,,26,0,1,,,,,0,61,0
13264,note_on,,,,,4,0,1,,,,,0,60,64
13290,note_on,,,,,26,0,1,,,,,0,60,0
13294,note_on,,,,,4,0,1,,,,,0,58,64
13320,note_on,,,,,26,0,1,,,,,0,58,0
13324,note_on,,,,,4,0,1,,,,,0,64,64
13350,note_on,,,,,26,0,1,,,,,0,64,0
13354,note_on,,,,,0,0,1,,,,,0,53,64
13354,note_on,,,,,4,0,1,,,,,0,61,64
13380,note_on,,,,,0,0,1,,,,,0,61,0
13380,note_on,,,,,26,0,1,,,,,0,53,0
13384,note_on,,,,,0,0,1,,,,,0,52,64
13384,note_on,,,,,4,0,1,,,,,0,60,64
13410,note_on,,,,,0,0,1,,,,,0,60,0
13410,note_on,,,,,26,0,1,,,,,0,52,0
13414,note_on,,,,,4,0,1,,,,,0,58,64
13414,note_on,,,,,0,0,1,,,,,0,50,64
13440,note_on,,,,,26,0,1,,,,,0,50,0
13440,note_on,,,,,0,0,1,,,,,0,58,0
13444,note_on,,,,,4,0,1,,,,,0,67,64
13444,note_on,,,,,0,0,1,,,,,0,52,64
13470,note_on,,,,,0,0,1,,,,,0,67,0
13470,note_on,,,,,26,0,1,,,,,0,52,0
13474,note_on,,,,,0,0,1,,,,,0,55,64
13474,note_on,,,,,4,0,1,,,,,0,61,64
13500,note_on,,,,,26,0,1,,,,,0,55,0
13500,note_on,,,,,0,0,1,,,,,0,61,0
13504,note_on,,,,,4,0,1,,,,,0,60,64
13504,note_on,,,,,0,0,1,,,,,0,48,64
13530,note_on,,,,,26,0,1,,,,,0,48,0
13530,note_on,,,,,0,0,1,,,,,0,60,0
13534,note_on,,,,,0,0,1,,,,,0,50,64
13534,note_on,,,,,4,0,1,,,,,0,58,64
13560,note_on,,,,,0,0,1,,,,,0,58,0
13560,note_on,,,,,26,0,1,,,,,0,50,0
13564,note_on,,,,,4,0,1,,,,,0,70,64
13564,note_on,,,,,0,0,1,,,,,0,52,64
13590,note_on,,,,,26,0,1,,,,,0,52,0
13590,note_on,,,,,0,0,1,,,,,0,70,0
13594,note_on,,,,,4,0,1,,,,,0,68,64
13594,note_on,,,,,0,0,1,,,,,0,53,64
13620,note_on,,,,,0,0,1,,,,,0,68,0
13620,note_on,,,,,26,0,1,,,,,0,53,0
13624,note_on,,,,,0,0,1,,,,,0,55,64
13624,note_on,,,,,4,0,1,,,,,0,67,64
13650,note_on,,,,,26,0,1,,,,,0,55,0
13650,note_on,,,,,0,0,1,,,,,0,67,0
13654,note_on,,,,,4,0,1,,,,,0,65,64
13654,note_on,,,,,0,0,1,,,,,0,56,64
13680,note_on,,,,,26,0,1,,,,,0,56,0
13680,note_on,,,,,0,0,1,,,,,0,65,0
13684,note_on,,,,,0,0,1,,,,,0,58,64
13684,note_on,,,,,4,0,1,,,,,0,73,64
13710,note_on,,,,,0,0,1,,,,,0,73,0
13710,note_on,,,,,26,0,1,,,,,0,58,0
13714,note_on,,,,,4,0,1,,,,,0,68,64
13714,note_on,,,,,0,0,1,,,,,0,60,64
13740,note_on,,,,,26,0,1,,,,,0,60,0
13740,note_on,,,,,0,0,1,,,,,0,68,0
13744,note_on,,,,,4,0,1,,,,,0,67,64
13744,note_on,,,,,0,0,1,,,,,0,58,64
13770,note_on,,,,,0,0,1,,,,,0,67,0
13770,note_on,,,,,26,0,1,,,,,0,58,0
13774,note_on,,,,,0,0,1,,,,,0,56,64
13774,note_on,,,,,4,0,1,,,,,0,65,64
13800,note_on,,,,,0,0,1,,,,,0,65,0
13800,note_on,,,,,26,0,1,,,,,0,56,0
13804,note_on,,,,,0,0,1,,,,,0,58,64
13804,note_on,,,,,4,0,1,,,,,0,64,64
13830,note_on,,,,,26,0,1,,,,,0,58,0
13834,note_on,,,,,4,0,1,,,,,0,61,64
13860,note_on,,,,,26,0,1,,,,,0,61,0
13864,note_on,,,,,4,0,1,,,,,0,55,64
13877,note_on,,,,,13,0,1,,,,,0,64,0
13879,note_on,,,,,2,0,1,,,,,0,67,64
13890,note_on,,,,,11,0,1,,,,,0,55,0
13892,note_on,,,,,2,0,1,,,,,0,67,0
13894,note_on,,,,,2,0,1,,,,,0,70,64
13894,note_on,,,,,0,0,1,,,,,0,56,64
13907,note_on,,,,,13,0,1,,,,,0,70,0
13909,note_on,,,,,2,0,1,,,,,0,76,64
13920,note_on,,,,,11,0,1,,,,,0,56,0
13922,note_on,,,,,2,0,1,,,,,0,76,0
13924,note_on,,,,,2,0,1,,,,,0,79,64
13924,note_on,,,,,0,0,1,,,,,0,58,64
13950,note_on,,,,,26,0,1,,,,,0,58,0
13954,note_on,,,,,4,0,1,,,,,0,60,64
13980,note_on,,,,,26,0,1,,,,,0,60,0
13984,note_on,,,,,4,0,1,,,,,0,62,64
14002,note_on,,,,,18,0,1,,,,,0,79,0
14010,note_on,,,,,8,0,1,,,,,0,62,0
14014,note_on,,,,,0,0,1,,,,,0,64,64
14014,note_on,,,,,4,0,1,,,,,0,70,64
14040,note_on,,,,,0,0,1,,,,,0,70,0
14040,note_on,,,,,26,0,1,,,,,0,64,0
14044,note_on,,,,,4,0,1,,,,,0,68,64
14044,note_on,,,,,0,0,1,,,,,0,65,64
14070,note_on,,,,,26,0,1,,,,,0,68,0
14074,note_on,,,,,4,0,1,,,,,0,73,64
14100,note_on,,,,,26,0,1,,,,,0,73,0
14104,note_on,,,,,4,0,1,,,,,0,72,64
14117,note_on,,,,,13,0,1,,,,,0,65,0
14119,note_on,,,,,2,0,1,,,,,0,64,64
14130,note_on,,,,,11,0,1,,,,,0,72,0
14132,note_on,,,,,2,0,1,,,,,0,64,0
14134,note_on,,,,,2,0,1,,,,,0,70,64
14134,note_on,,,,,0,0,1,,,,,0,65,64
14147,note_on,,,,,13,0,1,,,,,0,65,0
14149,note_on,,,,,2,0,1,,,,,0,67,64
14160,note_on,,,,,11,0,1,,,,,0,70,0
14162,note_on,,,,,2,0,1,,,,,0,67,0
14164,note_on,,,,,0,0,1,,,,,0,68,64
14164,note_on,,,,,2,0,1,,,,,0,72,64
14190,note_on,,,,,26,0,1,,,,,0,72,0
14194,note_on,,,,,4,0,1,,,,,0,77,64
14220,note_on,,,,,26,0,1,,,,,0,77,0
14224,note_on,,,,,4,0,1,,,,,0,72,64
14242,note_on,,,,,18,0,1,,,,,0,68,0
14250,note_on,,,,,8,0,1,,,,,0,72,0
14254,note_on,,,,,0,0,1,,,,,0,67,64
14254,note_on,,,,,4,0,1,,,,,0,70,64
14280,note_on,,,,,0,0,1,,,,,0,70,0
14280,note_on,,,,,26,0,1,,,,,0,67,0
14284,note_on,,,,,0,0,1,,,,,0,65,64
14284,note_on,,,,,4,0,1,,,,,0,68,64
14310,note_on,,,,,26,0,1,,,,,0,68,0
14314,note_on,,,,,4,0,1,,,,,0,72,64
14340,note_on,,,,,26,0,1,,,,,0,72,0
14344,note_on,,,,,4,0,1,,,,,0,68,64
14362,note_on,,,,,18,0,1,,,,,0,65,0
14370,note_on,,,,,8,0,1,,,,,0,68,0
14374,note_on,,,,,4,0,1,,,,,0,67,64
14374,note_on,,,,,0,0,1,,,,,0,63,64
14400,note_on,,,,,0,0,1,,,,,0,67,0
14400,note_on,,,,,26,0,1,,,,,0,63,0
14404,note_on,,,,,4,0,1,,,,,0,65,64
14404,note_on,,,,,0,0,1,,,,,0,61,64
14430,note_on,,,,,26,0,1,,,,,0,65,0
14434,note_on,,,,,4,0,1,,,,,0,70,64
14460,note_on,,,,,26,0,1,,,,,0,70,0
14464,note_on,,,,,4,0,1,,,,,0,69,64
14477,note_on,,,,,13,0,1,,,,,0,61,0
14479,note_on,,,,,2,0,1,,,,,0,60,64
14490,note_on,,,,,11,0,1,,,,,0,69,0
14492,note_on,,,,,2,0,1,,,,,0,60,0
14494,note_on,,,,,0,0,1,,,,,0,61,64
14494,note_on,,,,,2,0,1,,,,,0,67,64
14507,note_on,,,,,13,0,1,,,,,0,61,0
14509,note_on,,,,,2,0,1,,,,,0,63,64
14520,note_on,,,,,11,0,1,,,,,0,67,0
14522,note_on,,,,,2,0,1,,,,,0,63,0
14524,note_on,,,,,2,0,1,,,,,0,69,64
14524,note_on,,,,,0,0,1,,,,,0,65,64
14550,note_on,,,,,26,0,1,,,,,0,69,0
14554,note_on,,,,,4,0,1,,,,,0,72,64
14580,note_on,,,,,26,0,1,,,,,0,72,0
14584,note_on,,,,,4,0,1,,,,,0,69,64
14602,note_on,,,,,18,0,1,,,,,0,65,0
14610,note_on,,,,,8,0,1,,,,,0,69,0
14614,note_on,,,,,0,0,1,,,,,0,63,64
14614,note_on,,,,,4,0,1,,,,,0,67,64
14640,note_on,,,,,26,0,1,,,,,0,63,0
14640,note_on,,,,,0,0,1,,,,,0,67,0
14644,note_on,,,,,0,0,1,,,,,0,61,64
14644,note_on,,,,,4,0,1,,,,,0,65,64
14670,note_on,,,,,26,0,1,,,,,0,65,0
14674,note_on,,,,,4,0,1,,,,,0,72,64
14700,note_on,,,,,26,0,1,,,,,0,72,0
14704,note_on,,,,,4,0,1,,,,,0,65,64
14722,note_on,,,,,18,0,1,,,,,0,61,0
14730,note_on,,,,,8,0,1,,,,,0,65,0
14734,note_on,,,,,0,0,1,,,,,0,60,64
14734,note_on,,,,,4,0,1,,,,,0,63,64
14760,note_on,,,,,0,0,1,,,,,0,63,0
14760,note_on,,,,,26,0,1,,,,,0,60,0
14764,note_on,,,,,0,0,1,,,,,0,58,64
14764,note_on,,,,,4,0,1,,,,,0,61,64
14790,note_on,,,,,26,0,1,,,,,0,61,0
14794,note_on,,,,,4,0,1,,,,,0,72,64
14820,note_on,,,,,26,0,1,,,,,0,72,0
14824,note_on,,,,,4,0,1,,,,,0,70,64
14837,note_on,,,,,13,0,1,,,,,0,58,0
14839,note_on,,,,,2,0,1,,,,,0,57,64
14850,note_on,,,,,11,0,1,,,,,0,70,0
14852,note_on,,,,,2,0,1,,,,,0,57,0
14854,note_on,,,,,2,0,1,,,,,0,69,64
14854,note_on,,,,,0,0,1,,,,,0,58,64
14867,note_on,,,,,13,0,1,,,,,0,58,0
14869,note_on,,,,,2,0,1,,,,,0,60,64
14880,note_on,,,,,11,0,1,,,,,0,69,0
14882,note_on,,,,,2,0,1,,,,,0,60,0
14884,note_on,,,,,2,0,1,,,,,0,70,64
14884,note_on,,,,,0,0,1,,,,,0,61,64
14910,note_on,,,,,26,0,1,,,,,0,70,0
14914,note_on,,,,,4,0,1,,,,,0,73,64
14940,note_on,,,,,26,0,1,,,,,0,73,0
14944,note_on,,,,,4,0,1,,,,,0,70,64
14962,note_on,,,,,18,0,1,,,,,0,61,0
14970,note_on,,,,,8,0,1,,,,,0,70,0
14974,note_on,,,,,0,0,1,,,,,0,60,64
14974,note_on,,,,,4,0,1,,,,,0,68,64
15000,note_on,,,,,26,0,1,,,,,0,60,0
15000,note_on,,,,,0,0,1,,,,,0,68,0
15004,note_on,,,,,0,0,1,,,,,0,58,64
15004,note_on,,,,,4,0,1,,,,,0,66,64
15030,note_on,,,,,26,0,1,,,,,0,66,0
15034,note_on,,,,,4,0,1,,,,,0,70,64
15060,note_on,,,,,26,0,1,,,,,0,70,0
15064,note_on,,,,,4,0,1,,,,,0,66,64
15082,note_on,,,,,18,0,1,,,,,0,58,0
15090,note_on,,,,,8,0,1,,,,,0,66,0
15094,note_on,,,,,0,0,1,,,,,0,56,64
15094,note_on,,,,,4,0,1,,,,,0,65,64
15120,note_on,,,,,0,0,1,,,,,0,65,0
15120,note_on,,,,,26,0,1,,,,,0,56,0
15124,note_on,,,,,4,0,1,,,,,0,63,64
15124,note_on,,,,,0,0,1,,,,,0,54,64
15150,note_on,,,,,26,0,1,,,,,0,63,0
15154,note_on,,,,,4,0,1,,,,,0,68,64
15180,note_on,,,,,26,0,1,,,,,0,68,0
15184,note_on,,,,,4,0,1,,,,,0,66,64
15197,note_on,,,,,13,0,1,,,,,0,54,0
15199,note_on,,,,,2,0,1,,,,,0,53,64
15210,note_on,,,,,11,0,1,,,,,0,66,0
15212,note_on,,,,,2,0,1,,,,,0,53,0
15214,note_on,,,,,2,0,1,,,,,0,65,64
15214,note_on,,,,,0,0,1,,,,,0,54,64
15227,note_on,,,,,13,0,1,,,,,0,54,0
15229,note_on,,,,,2,0,1,,,,,0,56,64
15240,note_on,,,,,11,0,1,,,,,0,65,0
15242,note_on,,,,,2,0,1,,,,,0,56,0
15244,note_on,,,,,0,0,1,,,,,0,58,64
15244,note_on,,,,,2,0,1,,,,,0,66,64
15270,note_on,,,,,26,0,1,,,,,0,66,0
15274,note_on,,,,,4,0,1,,,,,0,70,64
15300,note_on,,,,,26,0,1,,,,,0,70,0
15304,note_on,,,,,4,0,1,,,,,0,66,64
15322,note_on,,,,,18,0,1,,,,,0,58,0
15330,note_on,,,,,8,0,1,,,,,0,66,0
15334,note_on,,,,,0,0,1,,,,,0,56,64
15334,note_on,,,,,4,0,1,,,,,0,65,64
15360,note_on,,,,,0,0,1,,,,,0,65,0
15360,note_on,,,,,26,0,1,,,,,0,56,0
15364,note_on,,,,,0,0,1,,,,,0,54,64
15364,note_on,,,,,4,0,1,,,,,0,63,64
15390,note_on,,,,,26,0,1,,,,,0,63,0
15394,note_on,,,,,4,0,1,,,,,0,70,64
15420,note_on,,,,,26,0,1,,,,,0,70,0
15424,note_on,,,,,4,0,1,,,,,0,63,64
15442,note_on,,,,,18,0,1,,,,,0,54,0
15450,note_on,,,,,8,0,1,,,,,0,63,0
15454,note_on,,,,,4,0,1,,,,,0,61,64
15454,note_on,,,,,0,0,1,,,,,0,53,64
15480,note_on,,,,,26,0,1,,,,,0,53,0
15480,note_on,,,,,0,0,1,,,,,0,61,0
15484,note_on,,,,,4,0,1,,,,,0,60,64
15484,note_on,,,,,0,0,1,,,,,0,51,64
15497,note_on,,,,,13,0,1,,,,,0,60,0
15499,note_on,,,,,2,0,1,,,,,0,61,64
15512,note_on,,,,,13,0,1,,,,,0,61,0
15514,note_on,,,,,2,0,1,,,,,0,63,64
15540,note_on,,,,,26,0,1,,,,,0,63,0
15544,note_on,,,,,4,0,1,,,,,0,57,64
15557,note_on,,,,,13,0,1,,,,,0,51,0
15559,note_on,,,,,2,0,1,,,,,0,53,64
15572,note_on,,,,,13,0,1,,,,,0,53,0
15574,note_on,,,,,2,0,1,,,,,0,51,64
15587,note_on,,,,,13,0,1,,,,,0,51,0
15589,note_on,,,,,2,0,1,,,,,0,49,64
15602,note_on,,,,,13,0,1,,,,,0,49,0
15604,note_on,,,,,2,0,1,,,,,0,48,64
15630,note_on,,,,,26,0,1,,,,,0,57,0
15634,note_on,,,,,4,0,1,,,,,0,60,64
15660,note_on,,,,,26,0,1,,,,,0,60,0
15664,note_on,,,,,4,0,1,,,,,0,63,64
15677,note_on,,,,,13,0,1,,,,,0,48,0
15679,note_on,,,,,2,0,1,,,,,0,49,64
15690,note_on,,,,,11,0,1,,,,,0,63,0
15692,note_on,,,,,2,0,1,,,,,0,49,0
15694,note_on,,,,,0,0,1,,,,,0,48,64
15694,note_on,,,,,2,0,1,,,,,0,66,64
15707,note_on,,,,,13,0,1,,,,,0,48,0
15709,note_on,,,,,2,0,1,,,,,0,46,64
15720,note_on,,,,,11,0,1,,,,,0,66,0
15722,note_on,,,,,2,0,1,,,,,0,46,0
15724,note_on,,,,,0,0,1,,,,,0,45,64
15724,note_on,,,,,2,0,1,,,,,0,65,64
15750,note_on,,,,,26,0,1,,,,,0,65,0
15754,note_on,,,,,4,0,1,,,,,0,63,64
15780,note_on,,,,,26,0,1,,,,,0,63,0
15784,note_on,,,,,4,0,1,,,,,0,61,64
15802,note_on,,,,,18,0,1,,,,,0,45,0
15810,note_on,,,,,8,0,1,,,,,0,61,0
15814,note_on,,,,,0,0,1,,,,,0,53,64
15814,note_on,,,,,4,0,1,,,,,0,60,64
15840,note_on,,,,,0,0,1,,,,,0,60,0
15840,note_on,,,,,26,0,1,,,,,0,53,0
15844,note_on,,,,,0,0,1,,,,,0,46,64
15844,note_on,,,,,4,0,1,,,,,0,61,64
15857,note_on,,,,,13,0,1,,,,,0,61,0
15859,note_on,,,,,2,0,1,,,,,0,63,64
15872,note_on,,,,,13,0,1,,,,,0,63,0
15874,note_on,,,,,2,0,1,,,,,0,65,64
15900,note_on,,,,,26,0,1,,,,,0,65,0
15904,note_on,,,,,4,0,1,,,,,0,58,64
15917,note_on,,,,,13,0,1,,,,,0,46,0
15919,note_on,,,,,2,0,1,,,,,0,49,64
15932,note_on,,,,,13,0,1,,,,,0,49,0
15934,note_on,,,,,2,0,1,,,,,0,51,64
15947,note_on,,,,,13,0,1,,,,,0,51,0
15949,note_on,,,,,2,0,1,,,,,0,53,64
15962,note_on,,,,,13,0,1,,,,,0,53,0
15964,note_on,,,,,2,0,1,,,,,0,54,64
15990,note_on,,,,,26,0,1,,,,,0,58,0
15994,note_on,,,,,4,0,1,,,,,0,61,64
16020,note_on,,,,,26,0,1,,,,,0,61,0
16024,note_on,,,,,4,0,1,,,,,0,66,64
16037,note_on,,,,,13,0,1,,,,,0,54,0
16039,note_on,,,,,2,0,1,,,,,0,53,64
16050,note_on,,,,,11,0,1,,,,,0,66,0
16052,note_on,,,,,2,0,1,,,,,0,53,0
16054,note_on,,,,,2,0,1,,,,,0,70,64
16054,note_on,,,,,0,0,1,,,,,0,51,64
16067,note_on,,,,,13,0,1,,,,,0,51,0
16069,note_on,,,,,2,0,1,,,,,0,49,64
16080,note_on,,,,,11,0,1,,,,,0,70,0
16082,note_on,,,,,2,0,1,,,,,0,49,0
16084,note_on,,,,,0,0,1,,,,,0,48,64
16084,note_on,,,,,2,0,1,,,,,0,68,64
16110,note_on,,,,,26,0,1,,,,,0,68,0
16114,note_on,,,,,4,0,1,,,,,0,66,64
16140,note_on,,,,,26,0,1,,,,,0,66,0
16144,note_on,,,,,4,0,1,,,,,0,65,64
16162,note_on,,,,,18,0,1,,,,,0,48,0
16170,note_on,,,,,8,0,1,,,,,0,65,0
16174,note_on,,,,,4,0,1,,,,,0,63,64
16174,note_on,,,,,0,0,1,,,,,0,56,64
16200,note_on,,,,,26,0,1,,,,,0,56,0
16200,note_on,,,,,0,0,1,,,,,0,63,0
16204,note_on,,,,,4,0,1,,,,,0,65,64
16204,note_on,,,,,0,0,1,,,,,0,49,64
16217,note_on,,,,,13,0,1,,,,,0,65,0
16219,note_on,,,,,2,0,1,,,,,0,66,64
16232,note_on,,,,,13,0,1,,,,,0,66,0
16234,note_on,,,,,2,0,1,,,,,0,68,64
16260,note_on,,,,,26,0,1,,,,,0,68,0
16264,note_on,,,,,4,0,1,,,,,0,61,64
16277,note_on,,,,,13,0,1,,,,,0,49,0
16279,note_on,,,,,2,0,1,,,,,0,53,64
16292,note_on,,,,,13,0,1,,,,,0,53,0
16294,note_on,,,,,2,0,1,,,,,0,54,64
16307,note_on,,,,,13,0,1,,,,,0,54,0
16309,note_on,,,,,2,0,1,,,,,0,56,64
16322,note_on,,,,,13,0,1,,,,,0,56,0
16324,note_on,,,,,2,0,1,,,,,0,58,64
16350,note_on,,,,,26,0,1,,,,,0,61,0
16354,note_on,,,,,4,0,1,,,,,0,65,64
16380,note_on,,,,,26,0,1,,,,,0,65,0
16384,note_on,,,,,4,0,1,,,,,0,70,64
16397,note_on,,,,,13,0,1,,,,,0,58,0
16399,note_on,,,,,2,0,1,,,,,0,56,64
16410,note_on,,,,,11,0,1,,,,,0,70,0
16412,note_on,,,,,2,0,1,,,,,0,56,0
16414,note_on,,,,,0,0,1,,,,,0,54,64
16414,note_on,,,,,2,0,1,,,,,0,73,64
16427,note_on,,,,,13,0,1,,,,,0,54,0
16429,note_on,,,,,2,0,1,,,,,0,53,64
16440,note_on,,,,,11,0,1,,,,,0,73,0
16442,note_on,,,,,2,0,1,,,,,0,53,0
16444,note_on,,,,,0,0,1,,,,,0,51,64
16444,note_on,,,,,2,0,1,,,,,0,72,64
16470,note_on,,,,,26,0,1,,,,,0,72,0
16474,note_on,,,,,4,0,1,,,,,0,70,64
16500,note_on,,,,,26,0,1,,,,,0,70,0
16504,note_on,,,,,4,0,1,,,,,0,68,64
16522,note_on,,,,,18,0,1,,,,,0,51,0
16530,note_on,,,,,8,0,1,,,,,0,68,0
16534,note_on,,,,,4,0,1,,,,,0,66,64
16534,note_on,,,,,0,0,1,,,,,0,60,64
16560,note_on,,,,,26,0,1,,,,,0,60,0
16560,note_on,,,,,0,0,1,,,,,0,66,0
16564,note_on,,,,,0,0,1,,,,,0,53,64
16564,note_on,,,,,4,0,1,,,,,0,68,64
16577,note_on,,,,,13,0,1,,,,,0,68,0
16579,note_on,,,,,2,0,1,,,,,0,66,64
16592,note_on,,,,,13,0,1,,,,,0,66,0
16594,note_on,,,,,2,0,1,,,,,0,65,64
16620,note_on,,,,,26,0,1,,,,,0,65,0
16624,note_on,,,,,4,0,1,,,,,0,73,64
16637,note_on,,,,,13,0,1,,,,,0,53,0
16639,note_on,,,,,2,0,1,,,,,0,56,64
16652,note_on,,,,,13,0,1,,,,,0,56,0
16654,note_on,,,,,2,0,1,,,,,0,58,64
16667,note_on,,,,,13,0,1,,,,,0,58,0
16669,note_on,,,,,2,0,1,,,,,0,60,64
16682,note_on,,,,,13,0,1,,,,,0,60,0
16684,note_on,,,,,2,0,1,,,,,0,61,64
16710,note_on,,,,,26,0,1,,,,,0,73,0
16714,note_on,,,,,4,0,1,,,,,0,68,64
16740,note_on,,,,,26,0,1,,,,,0,68,0
16744,note_on,,,,,4,0,1,,,,,0,73,64
16757,note_on,,,,,13,0,1,,,,,0,61,0
16759,note_on,,,,,2,0,1,,,,,0,60,64
16770,note_on,,,,,11,0,1,,,,,0,73,0
16772,note_on,,,,,2,0,1,,,,,0,60,0
16774,note_on,,,,,2,0,1,,,,,0,77,64
16774,note_on,,,,,0,0,1,,,,,0,58,64
16787,note_on,,,,,13,0,1,,,,,0,58,0
16789,note_on,,,,,2,0,1,,,,,0,56,64
16800,note_on,,,,,11,0,1,,,,,0,77,0
16802,note_on,,,,,2,0,1,,,,,0,56,0
16804,note_on,,,,,2,0,1,,,,,0,75,64
16804,note_on,,,,,0,0,1,,,,,0,54,64
16830,note_on,,,,,26,0,1,,,,,0,75,0
16834,note_on,,,,,4,0,1,,,,,0,73,64
16860,note_on,,,,,26,0,1,,,,,0,73,0
16864,note_on,,,,,4,0,1,,,,,0,72,64
16882,note_on,,,,,18,0,1,,,,,0,54,0
16890,note_on,,,,,8,0,1,,,,,0,72,0
16894,note_on,,,,,0,0,1,,,,,0,63,64
16894,note_on,,,,,4,0,1,,,,,0,70,64
16920,note_on,,,,,0,0,1,,,,,0,70,0
16920,note_on,,,,,26,0,1,,,,,0,63,0
16924,note_on,,,,,0,0,1,,,,,0,54,64
16924,note_on,,,,,0,0,1,,,,,0,56,64
16924,note_on,,,,,4,0,1,,,,,0,72,64
16924,note_on,,,,,0,0,1,,,,,0,63,64
16937,note_on,,,,,13,0,1,,,,,0,72,0
16939,note_on,,,,,2,0,1,,,,,0,73,64
16952,note_on,,,,,13,0,1,,,,,0,73,0
16954,note_on,,,,,2,0,1,,,,,0,75,64
16980,note_on,,,,,26,0,1,,,,,0,75,0
16984,note_on,,,,,4,0,1,,,,,0,68,64
17010,note_on,,,,,26,0,1,,,,,0,68,0
17014,note_on,,,,,4,0,1,,,,,0,70,64
17029,note_on,,,,,0,0,1,,,,,0,56,0
17029,note_on,,,,,15,0,1,,,,,0,63,0
17029,note_on,,,,,0,0,1,,,,,0,54,0
17040,note_on,,,,,11,0,1,,,,,0,70,0
17044,note_on,,,,,4,0,1,,,,,0,72,64
17070,note_on,,,,,26,0,1,,,,,0,72,0
17074,note_on,,,,,4,0,1,,,,,0,73,64
17100,note_on,,,,,26,0,1,,,,,0,73,0
17104,note_on,,,,,4,0,1,,,,,0,75,64
17119,note_on,,,,,15,0,1,,,,,0,61,64
17130,note_on,,,,,11,0,1,,,,,0,75,0
17132,note_on,,,,,2,0,1,,,,,0,61,0
17134,note_on,,,,,2,0,1,,,,,0,77,64
17134,note_on,,,,,0,0,1,,,,,0,60,64
17147,note_on,,,,,13,0,1,,,,,0,60,0
17149,note_on,,,,,2,0,1,,,,,0,58,64
17160,note_on,,,,,11,0,1,,,,,0,77,0
17162,note_on,,,,,2,0,1,,,,,0,58,0
17164,note_on,,,,,0,0,1,,,,,0,56,64
17164,note_on,,,,,2,0,1,,,,,0,78,64
17190,note_on,,,,,26,0,1,,,,,0,78,0
17194,note_on,,,,,4,0,1,,,,,0,75,64
17220,note_on,,,,,26,0,1,,,,,0,75,0
17224,note_on,,,,,4,0,1,,,,,0,73,64
17237,note_on,,,,,13,0,1,,,,,0,56,0
17239,note_on,,,,,2,0,1,,,,,0,58,64
17250,note_on,,,,,11,0,1,,,,,0,73,0
17252,note_on,,,,,2,0,1,,,,,0,58,0
17254,note_on,,,,,2,0,1,,,,,0,72,64
17254,note_on,,,,,0,0,1,,,,,0,56,64
17267,note_on,,,,,13,0,1,,,,,0,56,0
17269,note_on,,,,,2,0,1,,,,,0,54,64
17280,note_on,,,,,11,0,1,,,,,0,72,0
17282,note_on,,,,,2,0,1,,,,,0,54,0
17284,note_on,,,,,0,0,1,,,,,0,53,64
17284,note_on,,,,,2,0,1,,,,,0,80,64
17310,note_on,,,,,26,0,1,,,,,0,80,0
17314,note_on,,,,,4,0,1,,,,,0,77,64
17327,note_on,,,,,13,0,1,,,,,0,77,0
17329,note_on,,,,,2,0,1,,,,,0,75,64
17342,note_on,,,,,13,0,1,,,,,0,75,0
17344,note_on,,,,,2,0,1,,,,,0,73,64
17357,note_on,,,,,13,0,1,,,,,0,73,0
17359,note_on,,,,,2,0,1,,,,,0,75,64
17362,note_on,,,,,3,0,1,,,,,0,53,0
17372,note_on,,,,,10,0,1,,,,,0,75,0
17374,note_on,,,,,2,0,1,,,,,0,77,64
17374,note_on,,,,,0,0,1,,,,,0,49,64
17400,note_on,,,,,26,0,1,,,,,0,49,0
17400,note_on,,,,,0,0,1,,,,,0,77,0
17404,note_on,,,,,4,0,1,,,,,0,66,64
17404,note_on,,,,,0,0,1,,,,,0,58,64
17430,note_on,,,,,26,0,1,,,,,0,66,0
17434,note_on,,,,,4,0,1,,,,,0,75,64
17460,note_on,,,,,26,0,1,,,,,0,75,0
17464,note_on,,,,,4,0,1,,,,,0,72,64
17482,note_on,,,,,18,0,1,,,,,0,58,0
17490,note_on,,,,,8,0,1,,,,,0,72,0
17494,note_on,,,,,0,0,1,,,,,0,54,64
17494,note_on,,,,,4,0,1,,,,,0,73,64
17520,note_on,,,,,26,0,1,,,,,0,54,0
17520,note_on,,,,,0,0,1,,,,,0,73,0
17524,note_on,,,,,0,0,1,,,,,0,56,64
17524,note_on,,,,,4,0,1,,,,,0,65,64
17550,note_on,,,,,26,0,1,,,,,0,65,0
17554,note_on,,,,,4,0,1,,,,,0,73,64
17580,note_on,,,,,26,0,1,,,,,0,73,0
17584,note_on,,,,,4,0,1,,,,,0,63,64
17602,note_on,,,,,18,0,1,,,,,0,56,0
17610,note_on,,,,,8,0,1,,,,,0,63,0
17614,note_on,,,,,0,0,1,,,,,0,44,64
17614,note_on,,,,,4,0,1,,,,,0,72,64
17640,note_on,,,,,26,0,1,,,,,0,44,0
17640,note_on,,,,,0,0,1,,,,,0,72,0
17644,note_on,,,,,0,0,1,,,,,0,49,64
17644,note_on,,,,,0,0,1,,,,,0,65,64
17644,note_on,,,,,4,0,1,,,,,0,73,64
17674,note_on,,,,,30,0,1,,,,,0,68,64
17696,note_on,,,,,22,0,1,,,,,0,65,0
17696,note_on,,,,,0,0,1,,,,,0,73,0
17704,note_on,,,,,8,0,1,,,,,0,73,64
17704,note_on,,,,,0,0,1,,,,,0,65,64
17722,note_on,,,,,18,0,1,,,,,0,49,0
17734,note_on,,,,,12,0,1,,,,,0,51,64
17747,note_on,,,,,13,0,1,,,,,0,51,0
17749,note_on,,,,,2,0,1,,,,,0,53,64
17762,note_on,,,,,13,0,1,,,,,0,53,0
17764,note_on,,,,,2,0,1,,,,,0,44,64
17790,note_on,,,,,26,0,1,,,,,0,73,0
17794,note_on,,,,,4,0,1,,,,,0,72,64
17816,note_on,,,,,0,0,1,,,,,0,68,0
17816,note_on,,,,,22,0,1,,,,,0,65,0
17820,note_on,,,,,4,0,1,,,,,0,72,0
17824,note_on,,,,,4,0,1,,,,,0,68,64
17824,note_on,,,,,0,0,1,,,,,0,73,64
17824,note_on,,,,,0,0,1,,,,,0,65,64
17842,note_on,,,,,18,0,1,,,,,0,44,0
17854,note_on,,,,,12,0,1,,,,,0,48,64
17867,note_on,,,,,13,0,1,,,,,0,48,0
17869,note_on,,,,,2,0,1,,,,,0,49,64
17882,note_on,,,,,13,0,1,,,,,0,49,0
17884,note_on,,,,,2,0,1,,,,,0,41,64
17910,note_on,,,,,26,0,1,,,,,0,73,0
17914,note_on,,,,,4,0,1,,,,,0,72,64
17936,note_on,,,,,0,0,1,,,,,0,68,0
17936,note_on,,,,,22,0,1,,,,,0,65,0
17940,note_on,,,,,4,0,1,,,,,0,72,0
17944,note_on,,,,,0,0,1,,,,,0,65,64
17944,note_on,,,,,0,0,1,,,,,0,73,64
17944,note_on,,,,,4,0,1,,,,,0,68,64
17962,note_on,,,,,18,0,1,,,,,0,41,0
17974,note_on,,,,,12,0,1,,,,,0,42,64
17987,note_on,,,,,13,0,1,,,,,0,42,0
17989,note_on,,,,,2,0,1,,,,,0,44,64
17996,note_on,,,,,0,0,1,,,,,0,73,0
17996,note_on,,,,,7,0,1,,,,,0,65,0
17996,note_on,,,,,0,0,1,,,,,0,68,0
18002,note_on,,,,,6,0,1,,,,,0,44,0
18004,note_on,,,,,2,0,1,,,,,0,37,64
18034,note_on,,,,,30,0,1,,,,,0,73,64
18056,note_on,,,,,22,0,1,,,,,0,37,0
18060,note_on,,,,,4,0,1,,,,,0,73,0
18064,note_on,,,,,4,0,1,,,,,0,71,64
18090,note_on,,,,,26,0,1,,,,,0,71,0
18094,note_on,,,,,4,0,1,,,,,0,70,64
18120,note_on,,,,,26,0,1,,,,,0,70,0
18124,note_on,,,,,4,0,1,,,,,0,71,64
18150,note_on,,,,,26,0,1,,,,,0,71,0
18154,note_on,,,,,4,0,1,,,,,0,77,64
18180,note_on,,,,,26,0,1,,,,,0,77,0
18184,note_on,,,,,4,0,1,,,,,0,80,64
18210,note_on,,,,,26,0,1,,,,,0,80,0
18214,note_on,,,,,4,0,1,,,,,0,78,64
18240,note_on,,,,,26,0,1,,,,,0,78,0
18244,note_on,,,,,4,0,1,,,,,0,77,64
18270,note_on,,,,,26,0,1,,,,,0,77,0
18274,note_on,,,,,4,0,1,,,,,0,75,64
18300,note_on,,,,,26,0,1,,,,,0,75,0
18304,note_on,,,,,4,0,1,,,,,0,73,64
18330,note_on,,,,,26,0,1,,,,,0,73,0
18334,note_on,,,,,4,0,1,,,,,0,71,64
18360,note_on,,,,,26,0,1,,,,,0,71,0
18364,note_on,,,,,0,0,1,,,,,0,50,64
18364,note_on,,,,,0,0,1,,,,,0,70,64
18364,note_on,,,,,4,0,1,,,,,0,70,64
18390,note_on,,,,,26,0,1,,,,,0,70,0
18394,note_on,,,,,0,0,1,,,,,0,77,64
18394,note_on,,,,,4,0,1,,,,,0,77,64
18407,note_on,,,,,13,0,1,,,,,0,77,0
18409,note_on,,,,,2,0,1,,,,,0,78,64
18422,note_on,,,,,13,0,1,,,,,0,78,0
18424,note_on,,,,,2,0,1,,,,,0,80,64
18437,note_on,,,,,13,0,1,,,,,0,50,0
18439,note_on,,,,,2,0,1,,,,,0,53,64
18452,note_on,,,,,13,0,1,,,,,0,53,0
18454,note_on,,,,,2,0,1,,,,,0,54,64
18467,note_on,,,,,13,0,1,,,,,0,54,0
18469,note_on,,,,,2,0,1,,,,,0,56,64
18482,note_on,,,,,13,0,1,,,,,0,56,0
18484,note_on,,,,,2,0,1,,,,,0,58,64
18510,note_on,,,,,26,0,1,,,,,0,80,0
18514,note_on,,,,,4,0,1,,,,,0,78,64
18536,note_on,,,,,22,0,1,,,,,0,70,0
18536,note_on,,,,,0,0,1,,,,,0,77,0
18540,note_on,,,,,4,0,1,,,,,0,78,0
18544,note_on,,,,,0,0,1,,,,,0,74,64
18544,note_on,,,,,0,0,1,,,,,0,80,64
18544,note_on,,,,,4,0,1,,,,,0,77,64
18562,note_on,,,,,18,0,1,,,,,0,58,0
18574,note_on,,,,,12,0,1,,,,,0,56,64
18600,note_on,,,,,26,0,1,,,,,0,56,0
18604,note_on,,,,,4,0,1,,,,,0,54,64
18630,note_on,,,,,26,0,1,,,,,0,80,0
18634,note_on,,,,,4,0,1,,,,,0,78,64
18656,note_on,,,,,0,0,1,,,,,0,77,0
18656,note_on,,,,,22,0,1,,,,,0,74,0
18660,note_on,,,,,4,0,1,,,,,0,78,0
18664,note_on,,,,,0,0,1,,,,,0,74,64
18664,note_on,,,,,0,0,1,,,,,0,80,64
18664,note_on,,,,,4,0,1,,,,,0,77,64
18682,note_on,,,,,18,0,1,,,,,0,54,0
18694,note_on,,,,,12,0,1,,,,,0,53,64
18716,note_on,,,,,0,0,1,,,,,0,80,0
18716,note_on,,,,,22,0,1,,,,,0,77,0
18716,note_on,,,,,0,0,1,,,,,0,74,0
18720,note_on,,,,,4,0,1,,,,,0,53,0
18724,note_on,,,,,4,0,1,,,,,0,51,64
18754,note_on,,,,,30,0,1,,,,,0,80,64
18780,note_on,,,,,26,0,1,,,,,0,80,0
18784,note_on,,,,,4,0,1,,,,,0,78,64
18797,note_on,,,,,13,0,1,,,,,0,51,0
18799,note_on,,,,,2,0,1,,,,,0,58,64
18810,note_on,,,,,11,0,1,,,,,0,78,0
18812,note_on,,,,,2,0,1,,,,,0,58,0
18814,note_on,,,,,2,0,1,,,,,0,77,64
18814,note_on,,,,,0,0,1,,,,,0,60,64
18827,note_on,,,,,13,0,1,,,,,0,60,0
18829,note_on,,,,,2,0,1,,,,,0,62,64
18840,note_on,,,,,11,0,1,,,,,0,77,0
18842,note_on,,,,,2,0,1,,,,,0,62,0
18844,note_on,,,,,2,0,1,,,,,0,78,64
18844,note_on,,,,,0,0,1,,,,,0,63,64
18870,note_on,,,,,26,0,1,,,,,0,78,0
18874,note_on,,,,,4,0,1,,,,,0,82,64
18896,note_on,,,,,22,0,1,,,,,0,63,0
18900,note_on,,,,,4,0,1,,,,,0,82,0
18904,note_on,,,,,0,0,1,,,,,0,63,64
18904,note_on,,,,,4,0,1,,,,,0,75,64
18930,note_on,,,,,26,0,1,,,,,0,63,0
18930,note_on,,,,,0,0,1,,,,,0,75,0
18934,note_on,,,,,4,0,1,,,,,0,77,64
18934,note_on,,,,,0,0,1,,,,,0,61,64
18960,note_on,,,,,26,0,1,,,,,0,61,0
18960,note_on,,,,,0,0,1,,,,,0,77,0
18964,note_on,,,,,0,0,1,,,,,0,60,64
18964,note_on,,,,,4,0,1,,,,,0,78,64
18990,note_on,,,,,26,0,1,,,,,0,78,0
18994,note_on,,,,,4,0,1,,,,,0,75,64
19020,note_on,,,,,26,0,1,,,,,0,75,0
19024,note_on,,,,,4,0,1,,,,,0,81,64
19042,note_on,,,,,18,0,1,,,,,0,60,0
19050,note_on,,,,,8,0,1,,,,,0,81,0
19054,note_on,,,,,4,0,1,,,,,0,82,64
19054,note_on,,,,,0,0,1,,,,,0,58,64
19080,note_on,,,,,26,0,1,,,,,0,58,0
19080,note_on,,,,,0,0,1,,,,,0,82,0
19084,note_on,,,,,4,0,1,,,,,0,84,64
19084,note_on,,,,,0,0,1,,,,,0,57,64
19097,note_on,,,,,13,0,1,,,,,0,84,0
19099,note_on,,,,,2,0,1,,,,,0,77,64
19112,note_on,,,,,13,0,1,,,,,0,77,0
19114,note_on,,,,,2,0,1,,,,,0,75,64
19127,note_on,,,,,13,0,1,,,,,0,75,0
19129,note_on,,,,,2,0,1,,,,,0,73,64
19142,note_on,,,,,13,0,1,,,,,0,73,0
19144,note_on,,,,,0,0,1,,,,,0,75,64
19144,note_on,,,,,2,0,1,,,,,0,72,64
19157,note_on,,,,,13,0,1,,,,,0,57,0
19159,note_on,,,,,2,0,1,,,,,0,48,64
19172,note_on,,,,,13,0,1,,,,,0,48,0
19174,note_on,,,,,2,0,1,,,,,0,49,64
19187,note_on,,,,,13,0,1,,,,,0,49,0
19189,note_on,,,,,2,0,1,,,,,0,51,64
19202,note_on,,,,,13,0,1,,,,,0,51,0
19204,note_on,,,,,2,0,1,,,,,0,53,64
19230,note_on,,,,,26,0,1,,,,,0,75,0
19234,note_on,,,,,4,0,1,,,,,0,73,64
19256,note_on,,,,,22,0,1,,,,,0,72,0
19260,note_on,,,,,4,0,1,,,,,0,73,0
19264,note_on,,,,,0,0,1,,,,,0,72,64
19264,note_on,,,,,0,0,1,,,,,0,75,64
19264,note_on,,,,,4,0,1,,,,,0,69,64
19282,note_on,,,,,18,0,1,,,,,0,53,0
19294,note_on,,,,,12,0,1,,,,,0,51,64
19320,note_on,,,,,26,0,1,,,,,0,51,0
19324,note_on,,,,,4,0,1,,,,,0,49,64
19350,note_on,,,,,0,0,1,,,,,0,75,0
19350,note_on,,,,,26,0,1,,,,,0,69,0
19354,note_on,,,,,4,0,1,,,,,0,73,64
19376,note_on,,,,,22,0,1,,,,,0,72,0
19380,note_on,,,,,4,0,1,,,,,0,73,0
19384,note_on,,,,,0,0,1,,,,,0,72,64
19384,note_on,,,,,0,0,1,,,,,0,75,64
19384,note_on,,,,,4,0,1,,,,,0,69,64
19402,note_on,,,,,18,0,1,,,,,0,49,0
19414,note_on,,,,,12,0,1,,,,,0,48,64
19436,note_on,,,,,0,0,1,,,,,0,72,0
19436,note_on,,,,,22,0,1,,,,,0,69,0
19436,note_on,,,,,0,0,1,,,,,0,75,0
19440,note_on,,,,,4,0,1,,,,,0,48,0
19444,note_on,,,,,4,0,1,,,,,0,46,64
19474,note_on,,,,,30,0,1,,,,,0,75,64
19500,note_on,,,,,26,0,1,,,,,0,75,0
19504,note_on,,,,,4,0,1,,,,,0,73,64
19517,note_on,,,,,13,0,1,,,,,0,46,0
19519,note_on,,,,,2,0,1,,,,,0,53,64
19530,note_on,,,,,11,0,1,,,,,0,73,0
19532,note_on,,,,,2,0,1,,,,,0,53,0
19534,note_on,,,,,0,0,1,,,,,0,55,64
19534,note_on,,,,,2,0,1,,,,,0,72,64
19547,note_on,,,,,13,0,1,,,,,0,55,0
19549,note_on,,,,,2,0,1,,,,,0,57,64
19560,note_on,,,,,11,0,1,,,,,0,72,0
19562,note_on,,,,,2,0,1,,,,,0,57,0
19564,note_on,,,,,2,0,1,,,,,0,73,64
19564,note_on,,,,,0,0,1,,,,,0,58,64
19590,note_on,,,,,26,0,1,,,,,0,73,0
19594,note_on,,,,,4,0,1,,,,,0,77,64
19620,note_on,,,,,26,0,1,,,,,0,77,0
19624,note_on,,,,,4,0,1,,,,,0,70,64
19642,note_on,,,,,18,0,1,,,,,0,58,0
19650,note_on,,,,,8,0,1,,,,,0,70,0
19654,note_on,,,,,4,0,1,,,,,0,72,64
19654,note_on,,,,,0,0,1,,,,,0,56,64
19680,note_on,,,,,0,0,1,,,,,0,72,0
19680,note_on,,,,,26,0,1,,,,,0,56,0
19684,note_on,,,,,4,0,1,,,,,0,73,64
19684,note_on,,,,,0,0,1,,,,,0,55,64
19710,note_on,,,,,26,0,1,,,,,0,73,0
19714,note_on,,,,,4,0,1,,,,,0,70,64
19740,note_on,,,,,26,0,1,,,,,0,70,0
19744,note_on,,,,,4,0,1,,,,,0,76,64
19762,note_on,,,,,18,0,1,,,,,0,55,0
19770,note_on,,,,,8,0,1,,,,,0,76,0
19774,note_on,,,,,0,0,1,,,,,0,53,64
19774,note_on,,,,,4,0,1,,,,,0,77,64
19800,note_on,,,,,0,0,1,,,,,0,77,0
19800,note_on,,,,,26,0,1,,,,,0,53,0
19804,note_on,,,,,0,0,1,,,,,0,52,64
19804,note_on,,,,,4,0,1,,,,,0,79,64
19817,note_on,,,,,13,0,1,,,,,0,79,0
19819,note_on,,,,,2,0,1,,,,,0,72,64
19832,note_on,,,,,13,0,1,,,,,0,72,0
19834,note_on,,,,,2,0,1,,,,,0,70,64
19847,note_on,,,,,13,0,1,,,,,0,70,0
19849,note_on,,,,,2,0,1,,,,,0,68,64
19862,note_on,,,,,13,0,1,,,,,0,68,0
19864,note_on,,,,,2,0,1,,,,,0,70,64
19864,note_on,,,,,0,0,1,,,,,0,67,64
19877,note_on,,,,,13,0,1,,,,,0,52,0
19879,note_on,,,,,2,0,1,,,,,0,43,64
19892,note_on,,,,,13,0,1,,,,,0,43,0
19894,note_on,,,,,2,0,1,,,,,0,44,64
19907,note_on,,,,,13,0,1,,,,,0,44,0
19909,note_on,,,,,2,0,1,,,,,0,46,64
19922,note_on,,,,,13,0,1,,,,,0,46,0
19924,note_on,,,,,2,0,1,,,,,0,48,64
19950,note_on,,,,,26,0,1,,,,,0,70,0
19954,note_on,,,,,4,0,1,,,,,0,68,64
19976,note_on,,,,,22,0,1,,,,,0,67,0
19980,note_on,,,,,4,0,1,,,,,0,68,0
19984,note_on,,,,,0,0,1,,,,,0,70,64
19984,note_on,,,,,0,0,1,,,,,0,67,64
19984,note_on,,,,,4,0,1,,,,,0,64,64
20002,note_on,,,,,18,0,1,,,,,0,48,0
20014,note_on,,,,,12,0,1,,,,,0,46,64
20040,note_on,,,,,26,0,1,,,,,0,46,0
20044,note_on,,,,,4,0,1,,,,,0,44,64
20070,note_on,,,,,26,0,1,,,,,0,70,0
20074,note_on,,,,,4,0,1,,,,,0,68,64
20096,note_on,,,,,0,0,1,,,,,0,67,0
20096,note_on,,,,,22,0,1,,,,,0,64,0
20100,note_on,,,,,4,0,1,,,,,0,68,0
20104,note_on,,,,,0,0,1,,,,,0,70,64
20104,note_on,,,,,0,0,1,,,,,0,67,64
20104,note_on,,,,,4,0,1,,,,,0,64,64
20122,note_on,,,,,18,0,1,,,,,0,44,0
20134,note_on,,,,,12,0,1,,,,,0,43,64
20156,note_on,,,,,0,0,1,,,,,0,67,0
20156,note_on,,,,,0,0,1,,,,,0,70,0
20156,note_on,,,,,22,0,1,,,,,0,64,0
20160,note_on,,,,,4,0,1,,,,,0,43,0
20164,note_on,,,,,4,0,1,,,,,0,41,64
20179,note_on,,,,,15,0,1,,,,,0,70,64
20192,note_on,,,,,13,0,1,,,,,0,70,0
20194,note_on,,,,,2,0,1,,,,,0,68,64
20207,note_on,,,,,13,0,1,,,,,0,68,0
20209,note_on,,,,,2,0,1,,,,,0,67,64
20222,note_on,,,,,13,0,1,,,,,0,67,0
20224,note_on,,,,,2,0,1,,,,,0,68,64
20237,note_on,,,,,13,0,1,,,,,0,41,0
20239,note_on,,,,,2,0,1,,,,,0,44,64
20252,note_on,,,,,13,0,1,,,,,0,44,0
20254,note_on,,,,,2,0,1,,,,,0,46,64
20267,note_on,,,,,13,0,1,,,,,0,46,0
20269,note_on,,,,,2,0,1,,,,,0,48,64
20282,note_on,,,,,13,0,1,,,,,0,48,0
20284,note_on,,,,,2,0,1,,,,,0,49,64
20297,note_on,,,,,13,0,1,,,,,0,68,0
20299,note_on,,,,,2,0,1,,,,,0,67,64
20312,note_on,,,,,13,0,1,,,,,0,67,0
20314,note_on,,,,,2,0,1,,,,,0,65,64
20327,note_on,,,,,13,0,1,,,,,0,65,0
20329,note_on,,,,,2,0,1,,,,,0,64,64
20342,note_on,,,,,13,0,1,,,,,0,64,0
20344,note_on,,,,,2,0,1,,,,,0,65,64
20362,note_on,,,,,18,0,1,,,,,0,49,0
20370,note_on,,,,,8,0,1,,,,,0,65,0
20374,note_on,,,,,0,0,1,,,,,0,48,64
20374,note_on,,,,,4,0,1,,,,,0,68,64
20400,note_on,,,,,26,0,1,,,,,0,48,0
20400,note_on,,,,,0,0,1,,,,,0,68,0
20404,note_on,,,,,4,0,1,,,,,0,73,64
20404,note_on,,,,,0,0,1,,,,,0,46,64
20430,note_on,,,,,26,0,1,,,,,0,73,0
20434,note_on,,,,,4,0,1,,,,,0,68,64
20460,note_on,,,,,26,0,1,,,,,0,68,0
20464,note_on,,,,,4,0,1,,,,,0,67,64
20482,note_on,,,,,18,0,1,,,,,0,46,0
20490,note_on,,,,,8,0,1,,,,,0,67,0
20494,note_on,,,,,4,0,1,,,,,0,65,64
20494,note_on,,,,,0,0,1,,,,,0,44,64
20520,note_on,,,,,26,0,1,,,,,0,44,0
20520,note_on,,,,,0,0,1,,,,,0,65,0
20524,note_on,,,,,0,0,1,,,,,0,43,64
20524,note_on,,,,,0,0,1,,,,,0,63,64
20524,note_on,,,,,4,0,1,,,,,0,63,64
20550,note_on,,,,,26,0,1,,,,,0,63,0
20554,note_on,,,,,4,0,1,,,,,0,70,64
20569,note_on,,,,,15,0,1,,,,,0,72,64
20582,note_on,,,,,13,0,1,,,,,0,72,0
20584,note_on,,,,,2,0,1,,,,,0,73,64
20597,note_on,,,,,13,0,1,,,,,0,43,0
20599,note_on,,,,,2,0,1,,,,,0,46,64
20612,note_on,,,,,13,0,1,,,,,0,46,0
20614,note_on,,,,,2,0,1,,,,,0,48,64
20627,note_on,,,,,13,0,1,,,,,0,48,0
20629,note_on,,,,,2,0,1,,,,,0,49,64
20642,note_on,,,,,13,0,1,,,,,0,49,0
20644,note_on,,,,,2,0,1,,,,,0,51,64
20670,note_on,,,,,26,0,1,,,,,0,73,0
20674,note_on,,,,,4,0,1,,,,,0,72,64
20696,note_on,,,,,22,0,1,,,,,0,63,0
20700,note_on,,,,,4,0,1,,,,,0,72,0
20704,note_on,,,,,0,0,1,,,,,0,73,64
20704,note_on,,,,,0,0,1,,,,,0,70,64
20704,note_on,,,,,0,0,1,,,,,0,67,64
20704,note_on,,,,,4,0,1,,,,,0,70,0
20722,note_on,,,,,18,0,1,,,,,0,51,0
20734,note_on,,,,,12,0,1,,,,,0,49,64
20760,note_on,,,,,26,0,1,,,,,0,49,0
20764,note_on,,,,,4,0,1,,,,,0,48,64
20790,note_on,,,,,26,0,1,,,,,0,73,0
20794,note_on,,,,,4,0,1,,,,,0,72,64
20816,note_on,,,,,0,0,1,,,,,0,70,0
20816,note_on,,,,,22,0,1,,,,,0,67,0
20820,note_on,,,,,4,0,1,,,,,0,72,0
20824,note_on,,,,,0,0,1,,,,,0,70,64
20824,note_on,,,,,0,0,1,,,,,0,73,64
20824,note_on,,,,,4,0,1,,,,,0,67,64
20842,note_on,,,,,18,0,1,,,,,0,48,0
20854,note_on,,,,,12,0,1,,,,,0,46,64
20880,note_on,,,,,26,0,1,,,,,0,46,0
20884,note_on,,,,,4,0,1,,,,,0,44,64
20897,note_on,,,,,13,0,1,,,,,0,73,0
20899,note_on,,,,,2,0,1,,,,,0,72,64
20912,note_on,,,,,13,0,1,,,,,0,72,0
20914,note_on,,,,,2,0,1,,,,,0,67,0
20914,note_on,,,,,0,0,1,,,,,0,70,64
20914,note_on,,,,,0,0,1,,,,,0,70,0
20927,note_on,,,,,13,0,1,,,,,0,70,0
20929,note_on,,,,,2,0,1,,,,,0,68,64
20944,note_on,,,,,15,0,1,,,,,0,78,64
20944,note_on,,,,,0,0,1,,,,,0,75,64
20957,note_on,,,,,13,0,1,,,,,0,44,0
20959,note_on,,,,,2,0,1,,,,,0,51,64
20972,note_on,,,,,13,0,1,,,,,0,51,0
20974,note_on,,,,,2,0,1,,,,,0,53,64
20987,note_on,,,,,13,0,1,,,,,0,53,0
20989,note_on,,,,,2,0,1,,,,,0,54,64
21002,note_on,,,,,13,0,1,,,,,0,54,0
21004,note_on,,,,,2,0,1,,,,,0,56,64
21030,note_on,,,,,26,0,1,,,,,0,68,0
21034,note_on,,,,,4,0,1,,,,,0,70,64
21056,note_on,,,,,0,0,1,,,,,0,78,0
21056,note_on,,,,,22,0,1,,,,,0,75,0
21060,note_on,,,,,4,0,1,,,,,0,70,0
21064,note_on,,,,,0,0,1,,,,,0,78,64
21064,note_on,,,,,0,0,1,,,,,0,75,64
21064,note_on,,,,,4,0,1,,,,,0,72,64
21082,note_on,,,,,18,0,1,,,,,0,56,0
21094,note_on,,,,,12,0,1,,,,,0,54,64
21120,note_on,,,,,26,0,1,,,,,0,54,0
21124,note_on,,,,,4,0,1,,,,,0,53,64
21150,note_on,,,,,26,0,1,,,,,0,72,0
21154,note_on,,,,,4,0,1,,,,,0,70,64
21176,note_on,,,,,22,0,1,,,,,0,78,0
21180,note_on,,,,,4,0,1,,,,,0,70,0
21184,note_on,,,,,0,0,1,,,,,0,72,64
21184,note_on,,,,,4,0,1,,,,,0,75,0
21184,note_on,,,,,0,0,1,,,,,0,75,64
21184,note_on,,,,,0,0,1,,,,,0,78,64
21202,note_on,,,,,18,0,1,,,,,0,53,0
21214,note_on,,,,,12,0,1,,,,,0,51,64
21236,note_on,,,,,0,0,1,,,,,0,75,0
21236,note_on,,,,,22,0,1,,,,,0,72,0
21236,note_on,,,,,0,0,1,,,,,0,78,0
21240,note_on,,,,,4,0,1,,,,,0,51,0
21244,note_on,,,,,4,0,1,,,,,0,49,64
21274,note_on,,,,,30,0,1,,,,,0,78,64
21300,note_on,,,,,26,0,1,,,,,0,78,0
21304,note_on,,,,,4,0,1,,,,,0,77,64
21317,note_on,,,,,13,0,1,,,,,0,49,0
21319,note_on,,,,,2,0,1,,,,,0,56,64
21330,note_on,,,,,11,0,1,,,,,0,77,0
21332,note_on,,,,,2,0,1,,,,,0,56,0
21334,note_on,,,,,2,0,1,,,,,0,75,64
21334,note_on,,,,,0,0,1,,,,,0,58,64
21347,note_on,,,,,13,0,1,,,,,0,58,0
21349,note_on,,,,,2,0,1,,,,,0,60,64
21360,note_on,,,,,11,0,1,,,,,0,75,0
21362,note_on,,,,,2,0,1,,,,,0,60,0
21364,note_on,,,,,0,0,1,,,,,0,61,64
21364,note_on,,,,,2,0,1,,,,,0,77,64
21390,note_on,,,,,26,0,1,,,,,0,77,0
21394,note_on,,,,,4,0,1,,,,,0,80,64
21420,note_on,,,,,26,0,1,,,,,0,80,0
21424,note_on,,,,,4,0,1,,,,,0,73,64
21437,note_on,,,,,13,0,1,,,,,0,61,0
21439,note_on,,,,,2,0,1,,,,,0,63,64
21450,note_on,,,,,11,0,1,,,,,0,73,0
21452,note_on,,,,,2,0,1,,,,,0,63,0
21454,note_on,,,,,2,0,1,,,,,0,75,64
21454,note_on,,,,,0,0,1,,,,,0,61,64
21467,note_on,,,,,13,0,1,,,,,0,61,0
21469,note_on,,,,,2,0,1,,,,,0,60,64
21480,note_on,,,,,11,0,1,,,,,0,75,0
21482,note_on,,,,,2,0,1,,,,,0,60,0
21484,note_on,,,,,0,0,1,,,,,0,58,64
21484,note_on,,,,,2,0,1,,,,,0,77,64
21510,note_on,,,,,26,0,1,,,,,0,77,0
21514,note_on,,,,,4,0,1,,,,,0,73,64
21540,note_on,,,,,26,0,1,,,,,0,73,0
21544,note_on,,,,,4,0,1,,,,,0,70,64
21557,note_on,,,,,13,0,1,,,,,0,58,0
21559,note_on,,,,,2,0,1,,,,,0,60,64
21570,note_on,,,,,11,0,1,,,,,0,70,0
21572,note_on,,,,,2,0,1,,,,,0,60,0
21574,note_on,,,,,2,0,1,,,,,0,72,64
21574,note_on,,,,,0,0,1,,,,,0,58,64
21587,note_on,,,,,13,0,1,,,,,0,58,0
21589,note_on,,,,,2,0,1,,,,,0,56,64
21600,note_on,,,,,11,0,1,,,,,0,72,0
21602,note_on,,,,,2,0,1,,,,,0,56,0
21604,note_on,,,,,2,0,1,,,,,0,73,64
21604,note_on,,,,,0,0,1,,,,,0,55,64
21630,note_on,,,,,26,0,1,,,,,0,73,0
21634,note_on,,,,,4,0,1,,,,,0,70,64
21660,note_on,,,,,26,0,1,,,,,0,70,0
21664,note_on,,,,,4,0,1,,,,,0,63,64
21677,note_on,,,,,13,0,1,,,,,0,55,0
21679,note_on,,,,,2,0,1,,,,,0,56,64
21690,note_on,,,,,11,0,1,,,,,0,63,0
21692,note_on,,,,,2,0,1,,,,,0,56,0
21694,note_on,,,,,0,0,1,,,,,0,55,64
21694,note_on,,,,,2,0,1,,,,,0,65,64
21707,note_on,,,,,13,0,1,,,,,0,55,0
21709,note_on,,,,,2,0,1,,,,,0,53,64
21720,note_on,,,,,11,0,1,,,,,0,65,0
21722,note_on,,,,,2,0,1,,,,,0,53,0
21724,note_on,,,,,0,0,1,,,,,0,51,64
21724,note_on,,,,,2,0,1,,,,,0,67,64
21750,note_on,,,,,26,0,1,,,,,0,67,0
21754,note_on,,,,,4,0,1,,,,,0,68,64
21776,note_on,,,,,22,0,1,,,,,0,51,0
21780,note_on,,,,,4,0,1,,,,,0,68,0
21784,note_on,,,,,4,0,1,,,,,0,70,64
21810,note_on,,,,,26,0,1,,,,,0,70,0
21814,note_on,,,,,4,0,1,,,,,0,72,64
21840,note_on,,,,,26,0,1,,,,,0,72,0
21844,note_on,,,,,4,0,1,,,,,0,73,64
21870,note_on,,,,,26,0,1,,,,,0,73,0
21874,note_on,,,,,4,0,1,,,,,0,72,64
21900,note_on,,,,,26,0,1,,,,,0,72,0
21904,note_on,,,,,4,0,1,,,,,0,70,64
21919,note_on,,,,,15,0,1,,,,,0,51,64
21930,note_on,,,,,11,0,1,,,,,0,70,0
21932,note_on,,,,,2,0,1,,,,,0,51,0
21934,note_on,,,,,0,0,1,,,,,0,53,64
21934,note_on,,,,,2,0,1,,,,,0,73,64
21947,note_on,,,,,13,0,1,,,,,0,53,0
21949,note_on,,,,,2,0,1,,,,,0,55,64
21960,note_on,,,,,11,0,1,,,,,0,73,0
21962,note_on,,,,,2,0,1,,,,,0,55,0
21964,note_on,,,,,0,0,1,,,,,0,56,64
21964,note_on,,,,,2,0,1,,,,,0,72,64
21977,note_on,,,,,13,0,1,,,,,0,72,0
21979,note_on,,,,,2,0,1,,,,,0,75,64
21992,note_on,,,,,13,0,1,,,,,0,75,0
21994,note_on,,,,,2,0,1,,,,,0,77,64
22007,note_on,,,,,13,0,1,,,,,0,77,0
22009,note_on,,,,,2,0,1,,,,,0,79,64
22022,note_on,,,,,13,0,1,,,,,0,79,0
22024,note_on,,,,,2,0,1,,,,,0,80,64
22037,note_on,,,,,13,0,1,,,,,0,56,0
22039,note_on,,,,,2,0,1,,,,,0,53,64
22050,note_on,,,,,11,0,1,,,,,0,80,0
22052,note_on,,,,,2,0,1,,,,,0,53,0
22054,note_on,,,,,0,0,1,,,,,0,55,64
22054,note_on,,,,,2,0,1,,,,,0,72,64
22067,note_on,,,,,13,0,1,,,,,0,55,0
22069,note_on,,,,,2,0,1,,,,,0,56,64
22080,note_on,,,,,11,0,1,,,,,0,72,0
22082,note_on,,,,,2,0,1,,,,,0,56,0
22084,note_on,,,,,2,0,1,,,,,0,75,64
22084,note_on,,,,,0,0,1,,,,,0,58,64
22110,note_on,,,,,26,0,1,,,,,0,75,0
22114,note_on,,,,,4,0,1,,,,,0,74,64
22140,note_on,,,,,26,0,1,,,,,0,74,0
22144,note_on,,,,,4,0,1,,,,,0,79,64
22162,note_on,,,,,18,0,1,,,,,0,58,0
22170,note_on,,,,,8,0,1,,,,,0,79,0
22174,note_on,,,,,0,0,1,,,,,0,56,64
22174,note_on,,,,,4,0,1,,,,,0,77,64
22200,note_on,,,,,0,0,1,,,,,0,77,0
22200,note_on,,,,,26,0,1,,,,,0,56,0
22204,note_on,,,,,0,0,1,,,,,0,58,64
22204,note_on,,,,,4,0,1,,,,,0,75,64
22230,note_on,,,,,26,0,1,,,,,0,75,0
22234,note_on,,,,,4,0,1,,,,,0,74,64
22260,note_on,,,,,26,0,1,,,,,0,74,0
22264,note_on,,,,,4,0,1,,,,,0,72,64
22282,note_on,,,,,18,0,1,,,,,0,58,0
22290,note_on,,,,,8,0,1,,,,,0,72,0
22294,note_on,,,,,0,0,1,,,,,0,46,64
22294,note_on,,,,,4,0,1,,,,,0,70,64
22320,note_on,,,,,26,0,1,,,,,0,46,0
22320,note_on,,,,,0,0,1,,,,,0,70,0
22324,note_on,,,,,4,0,1,,,,,0,68,64
22324,note_on,,,,,0,0,1,,,,,0,51,64
22337,note_on,,,,,13,0,1,,,,,0,68,0
22339,note_on,,,,,2,0,1,,,,,0,67,64
22352,note_on,,,,,13,0,1,,,,,0,67,0
22354,note_on,,,,,2,0,1,,,,,0,65,64
22380,note_on,,,,,26,0,1,,,,,0,65,0
22384,note_on,,,,,4,0,1,,,,,0,67,64
22402,note_on,,,,,18,0,1,,,,,0,51,0
22410,note_on,,,,,8,0,1,,,,,0,67,0
22414,note_on,,,,,4,0,1,,,,,0,70,64
22414,note_on,,,,,0,0,1,,,,,0,53,64
22440,note_on,,,,,26,0,1,,,,,0,53,0
22440,note_on,,,,,0,0,1,,,,,0,70,0
22444,note_on,,,,,4,0,1,,,,,0,63,64
22444,note_on,,,,,0,0,1,,,,,0,55,64
22457,note_on,,,,,13,0,1,,,,,0,55,0
22459,note_on,,,,,2,0,1,,,,,0,56,64
22472,note_on,,,,,13,0,1,,,,,0,56,0
22474,note_on,,,,,2,0,1,,,,,0,55,64
22487,note_on,,,,,13,0,1,,,,,0,55,0
22489,note_on,,,,,2,0,1,,,,,0,53,64
22496,note_on,,,,,7,0,1,,,,,0,63,0
22502,note_on,,,,,6,0,1,,,,,0,53,0
22504,note_on,,,,,2,0,1,,,,,0,55,64
22530,note_on,,,,,26,0,1,,,,,0,55,0
22534,note_on,,,,,4,0,1,,,,,0,58,64
22560,note_on,,,,,26,0,1,,,,,0,58,0
22564,note_on,,,,,4,0,1,,,,,0,51,64
22590,note_on,,,,,26,0,1,,,,,0,51,0
22594,note_on,,,,,4,0,1,,,,,0,49,64
22620,note_on,,,,,26,0,1,,,,,0,49,0
22624,note_on,,,,,4,0,1,,,,,0,48,64
22650,note_on,,,,,26,0,1,,,,,0,48,0
22654,note_on,,,,,4,0,1,,,,,0,46,64
22680,note_on,,,,,26,0,1,,,,,0,46,0
22684,note_on,,,,,4,0,1,,,,,0,44,64
22714,note_on,,,,,30,0,1,,,,,0,61,64
22740,note_on,,,,,26,0,1,,,,,0,61,0
22744,note_on,,,,,4,0,1,,,,,0,60,64
22757,note_on,,,,,13,0,1,,,,,0,44,0
22759,note_on,,,,,2,0,1,,,,,0,51,64
22770,note_on,,,,,11,0,1,,,,,0,60,0
22772,note_on,,,,,2,0,1,,,,,0,51,0
22774,note_on,,,,,0,0,1,,,,,0,53,64
22774,note_on,,,,,2,0,1,,,,,0,58,64
22787,note_on,,,,,13,0,1,,,,,0,53,0
22789,note_on,,,,,2,0,1,,,,,0,55,64
22800,note_on,,,,,11,0,1,,,,,0,58,0
22802,note_on,,,,,2,0,1,,,,,0,55,0
22804,note_on,,,,,0,0,1,,,,,0,56,64
22804,note_on,,,,,2,0,1,,,,,0,60,64
22830,note_on,,,,,26,0,1,,,,,0,60,0
22834,note_on,,,,,4,0,1,,,,,0,63,64
22860,note_on,,,,,26,0,1,,,,,0,63,0
22864,note_on,,,,,4,0,1,,,,,0,60,64
22882,note_on,,,,,18,0,1,,,,,0,56,0
22890,note_on,,,,,8,0,1,,,,,0,60,0
22894,note_on,,,,,0,0,1,,,,,0,51,64
22894,note_on,,,,,4,0,1,,,,,0,58,64
22920,note_on,,,,,26,0,1,,,,,0,51,0
22920,note_on,,,,,0,0,1,,,,,0,58,0
22924,note_on,,,,,0,0,1,,,,,0,48,64
22924,note_on,,,,,4,0,1,,,,,0,56,64
22950,note_on,,,,,26,0,1,,,,,0,56,0
22954,note_on,,,,,4,0,1,,,,,0,66,64
22980,note_on,,,,,26,0,1,,,,,0,66,0
22984,note_on,,,,,4,0,1,,,,,0,65,64
23002,note_on,,,,,18,0,1,,,,,0,48,0
23010,note_on,,,,,8,0,1,,,,,0,65,0
23014,note_on,,,,,0,0,1,,,,,0,56,64
23014,note_on,,,,,4,0,1,,,,,0,63,64
23040,note_on,,,,,0,0,1,,,,,0,63,0
23040,note_on,,,,,26,0,1,,,,,0,56,0
23044,note_on,,,,,0,0,1,,,,,0,49,64
23044,note_on,,,,,4,0,1,,,,,0,65,64
23070,note_on,,,,,26,0,1,,,,,0,49,0
23074,note_on,,,,,4,0,1,,,,,0,58,64
23100,note_on,,,,,26,0,1,,,,,0,58,0
23104,note_on,,,,,4,0,1,,,,,0,56,64
23117,note_on,,,,,13,0,1,,,,,0,65,0
23119,note_on,,,,,2,0,1,,,,,0,68,64
23130,note_on,,,,,11,0,1,,,,,0,56,0
23132,note_on,,,,,2,0,1,,,,,0,68,0
23134,note_on,,,,,2,0,1,,,,,0,70,64
23134,note_on,,,,,0,0,1,,,,,0,54,64
23147,note_on,,,,,13,0,1,,,,,0,70,0
23149,note_on,,,,,2,0,1,,,,,0,72,64
23160,note_on,,,,,11,0,1,,,,,0,54,0
23162,note_on,,,,,2,0,1,,,,,0,72,0
23164,note_on,,,,,0,0,1,,,,,0,53,64
23164,note_on,,,,,2,0,1,,,,,0,73,64
23190,note_on,,,,,26,0,1,,,,,0,53,0
23194,note_on,,,,,4,0,1,,,,,0,56,64
23220,note_on,,,,,26,0,1,,,,,0,56,0
23224,note_on,,,,,4,0,1,,,,,0,53,64
23237,note_on,,,,,13,0,1,,,,,0,73,0
23239,note_on,,,,,2,0,1,,,,,0,68,64
23250,note_on,,,,,11,0,1,,,,,0,53,0
23252,note_on,,,,,2,0,1,,,,,0,68,0
23254,note_on,,,,,2,0,1,,,,,0,73,64
23254,note_on,,,,,0,0,1,,,,,0,51,64
23267,note_on,,,,,13,0,1,,,,,0,73,0
23269,note_on,,,,,2,0,1,,,,,0,75,64
23280,note_on,,,,,11,0,1,,,,,0,51,0
23282,note_on,,,,,2,0,1,,,,,0,75,0
23284,note_on,,,,,2,0,1,,,,,0,77,64
23284,note_on,,,,,0,0,1,,,,,0,49,64
23310,note_on,,,,,26,0,1,,,,,0,49,0
23314,note_on,,,,,4,0,1,,,,,0,53,64
23340,note_on,,,,,26,0,1,,,,,0,53,0
23344,note_on,,,,,4,0,1,,,,,0,49,64
23370,note_on,,,,,26,0,1,,,,,0,49,0
23374,note_on,,,,,4,0,1,,,,,0,48,64
23400,note_on,,,,,26,0,1,,,,,0,48,0
23404,note_on,,,,,4,0,1,,,,,0,46,64
23430,note_on,,,,,26,0,1,,,,,0,77,0
23434,note_on,,,,,4,0,1,,,,,0,63,64
23460,note_on,,,,,26,0,1,,,,,0,63,0
23464,note_on,,,,,4,0,1,,,,,0,62,64
23477,note_on,,,,,13,0,1,,,,,0,46,0
23479,note_on,,,,,2,0,1,,,,,0,53,64
23490,note_on,,,,,11,0,1,,,,,0,62,0
23492,note_on,,,,,2,0,1,,,,,0,53,0
23494,note_on,,,,,0,0,1,,,,,0,55,64
23494,note_on,,,,,2,0,1,,,,,0,60,64
23507,note_on,,,,,13,0,1,,,,,0,55,0
23509,note_on,,,,,2,0,1,,,,,0,56,64
23520,note_on,,,,,11,0,1,,,,,0,60,0
23522,note_on,,,,,2,0,1,,,,,0,56,0
23524,note_on,,,,,2,0,1,,,,,0,62,64
23524,note_on,,,,,0,0,1,,,,,0,58,64
23550,note_on,,,,,26,0,1,,,,,0,62,0
23554,note_on,,,,,4,0,1,,,,,0,65,64
23580,note_on,,,,,26,0,1,,,,,0,65,0
23584,note_on,,,,,4,0,1,,,,,0,62,64
23602,note_on,,,,,18,0,1,,,,,0,58,0
23610,note_on,,,,,8,0,1,,,,,0,62,0
23614,note_on,,,,,4,0,1,,,,,0,60,64
23614,note_on,,,,,0,0,1,,,,,0,53,64
23640,note_on,,,,,26,0,1,,,,,0,53,0
23640,note_on,,,,,0,0,1,,,,,0,60,0
23644,note_on,,,,,4,0,1,,,,,0,58,64
23644,note_on,,,,,0,0,1,,,,,0,50,64
23670,note_on,,,,,26,0,1,,,,,0,58,0
23674,note_on,,,,,4,0,1,,,,,0,68,64
23700,note_on,,,,,26,0,1,,,,,0,68,0
23704,note_on,,,,,4,0,1,,,,,0,67,64
23722,note_on,,,,,18,0,1,,,,,0,50,0
23730,note_on,,,,,8,0,1,,,,,0,67,0
23734,note_on,,,,,4,0,1,,,,,0,65,64
23734,note_on,,,,,0,0,1,,,,,0,58,64
23760,note_on,,,,,26,0,1,,,,,0,58,0
23760,note_on,,,,,0,0,1,,,,,0,65,0
23764,note_on,,,,,0,0,1,,,,,0,51,64
23764,note_on,,,,,4,0,1,,,,,0,67,64
23790,note_on,,,,,26,0,1,,,,,0,51,0
23794,note_on,,,,,4,0,1,,,,,0,63,64
23820,note_on,,,,,26,0,1,,,,,0,63,0
23824,note_on,,,,,4,0,1,,,,,0,61,64
23837,note_on,,,,,13,0,1,,,,,0,67,0
23839,note_on,,,,,2,0,1,,,,,0,70,64
23850,note_on,,,,,11,0,1,,,,,0,61,0
23852,note_on,,,,,2,0,1,,,,,0,70,0
23854,note_on,,,,,0,0,1,,,,,0,60,64
23854,note_on,,,,,2,0,1,,,,,0,75,64
23867,note_on,,,,,13,0,1,,,,,0,75,0
23869,note_on,,,,,2,0,1,,,,,0,77,64
23880,note_on,,,,,11,0,1,,,,,0,60,0
23882,note_on,,,,,2,0,1,,,,,0,77,0
23884,note_on,,,,,0,0,1,,,,,0,58,64
23884,note_on,,,,,2,0,1,,,,,0,79,64
23910,note_on,,,,,26,0,1,,,,,0,58,0
23914,note_on,,,,,4,0,1,,,,,0,61,64
23940,note_on,,,,,26,0,1,,,,,0,61,0
23944,note_on,,,,,4,0,1,,,,,0,58,64
23957,note_on,,,,,13,0,1,,,,,0,79,0
23959,note_on,,,,,2,0,1,,,,,0,75,64
23970,note_on,,,,,11,0,1,,,,,0,58,0
23972,note_on,,,,,2,0,1,,,,,0,75,0
23974,note_on,,,,,2,0,1,,,,,0,79,64
23974,note_on,,,,,0,0,1,,,,,0,56,64
23987,note_on,,,,,13,0,1,,,,,0,79,0
23989,note_on,,,,,2,0,1,,,,,0,80,64
24000,note_on,,,,,11,0,1,,,,,0,56,0
24002,note_on,,,,,2,0,1,,,,,0,80,0
24004,note_on,,,,,0,0,1,,,,,0,55,64
24004,note_on,,,,,2,0,1,,,,,0,82,64
24030,note_on,,,,,26,0,1,,,,,0,55,0
24034,note_on,,,,,4,0,1,,,,,0,58,64
24060,note_on,,,,,26,0,1,,,,,0,58,0
24064,note_on,,,,,4,0,1,,,,,0,55,64
24077,note_on,,,,,13,0,1,,,,,0,82,0
24079,note_on,,,,,2,0,1,,,,,0,75,64
24090,note_on,,,,,11,0,1,,,,,0,55,0
24092,note_on,,,,,2,0,1,,,,,0,75,0
24094,note_on,,,,,2,0,1,,,,,0,82,64
24094,note_on,,,,,0,0,1,,,,,0,53,64
24107,note_on,,,,,13,0,1,,,,,0,82,0
24109,note_on,,,,,2,0,1,,,,,0,84,64
24120,note_on,,,,,11,0,1,,,,,0,53,0
24122,note_on,,,,,2,0,1,,,,,0,84,0
24124,note_on,,,,,2,0,1,,,,,0,85,64
24124,note_on,,,,,0,0,1,,,,,0,51,64
24150,note_on,,,,,26,0,1,,,,,0,85,0
24154,note_on,,,,,4,0,1,,,,,0,84,64
24180,note_on,,,,,26,0,1,,,,,0,84,0
24184,note_on,,,,,4,0,1,,,,,0,82,64
24197,note_on,,,,,13,0,1,,,,,0,51,0
24199,note_on,,,,,2,0,1,,,,,0,58,64
24210,note_on,,,,,11,0,1,,,,,0,82,0
24212,note_on,,,,,2,0,1,,,,,0,58,0
24214,note_on,,,,,2,0,1,,,,,0,80,64
24214,note_on,,,,,0,0,1,,,,,0,60,64
24227,note_on,,,,,13,0,1,,,,,0,60,0
24229,note_on,,,,,2,0,1,,,,,0,61,64
24240,note_on,,,,,11,0,1,,,,,0,80,0
24242,note_on,,,,,2,0,1,,,,,0,61,0
24244,note_on,,,,,0,0,1,,,,,0,63,64
24244,note_on,,,,,2,0,1,,,,,0,79,64
24270,note_on,,,,,26,0,1,,,,,0,79,0
24274,note_on,,,,,4,0,1,,,,,0,82,64
24300,note_on,,,,,26,0,1,,,,,0,82,0
24304,note_on,,,,,4,0,1,,,,,0,79,64
24317,note_on,,,,,13,0,1,,,,,0,63,0
24319,note_on,,,,,2,0,1,,,,,0,62,64
24330,note_on,,,,,11,0,1,,,,,0,79,0
24332,note_on,,,,,2,0,1,,,,,0,62,0
24334,note_on,,,,,0,0,1,,,,,0,63,64
24334,note_on,,,,,2,0,1,,,,,0,77,64
24347,note_on,,,,,13,0,1,,,,,0,63,0
24349,note_on,,,,,2,0,1,,,,,0,65,64
24360,note_on,,,,,11,0,1,,,,,0,77,0
24362,note_on,,,,,2,0,1,,,,,0,65,0
24364,note_on,,,,,0,0,1,,,,,0,67,64
24364,note_on,,,,,2,0,1,,,,,0,75,64
24390,note_on,,,,,26,0,1,,,,,0,75,0
24394,note_on,,,,,4,0,1,,,,,0,82,64
24420,note_on,,,,,26,0,1,,,,,0,82,0
24424,note_on,,,,,4,0,1,,,,,0,75,64
24437,note_on,,,,,13,0,1,,,,,0,67,0
24439,note_on,,,,,2,0,1,,,,,0,63,64
24450,note_on,,,,,11,0,1,,,,,0,75,0
24452,note_on,,,,,2,0,1,,,,,0,63,0
24454,note_on,,,,,0,0,1,,,,,0,65,64
24454,note_on,,,,,2,0,1,,,,,0,73,64
24467,note_on,,,,,13,0,1,,,,,0,65,0
24469,note_on,,,,,2,0,1,,,,,0,67,64
24480,note_on,,,,,11,0,1,,,,,0,73,0
24482,note_on,,,,,2,0,1,,,,,0,67,0
24484,note_on,,,,,0,0,1,,,,,0,68,64
24484,note_on,,,,,2,0,1,,,,,0,72,64
24510,note_on,,,,,26,0,1,,,,,0,68,0
24514,note_on,,,,,4,0,1,,,,,0,65,64
24540,note_on,,,,,26,0,1,,,,,0,65,0
24544,note_on,,,,,4,0,1,,,,,0,63,64
24557,note_on,,,,,13,0,1,,,,,0,72,0
24559,note_on,,,,,2,0,1,,,,,0,73,64
24570,note_on,,,,,11,0,1,,,,,0,63,0
24572,note_on,,,,,2,0,1,,,,,0,73,0
24574,note_on,,,,,2,0,1,,,,,0,75,64
24574,note_on,,,,,0,0,1,,,,,0,61,64
24587,note_on,,,,,13,0,1,,,,,0,75,0
24589,note_on,,,,,2,0,1,,,,,0,77,64
24600,note_on,,,,,11,0,1,,,,,0,61,0
24602,note_on,,,,,2,0,1,,,,,0,77,0
24604,note_on,,,,,0,0,1,,,,,0,60,64
24604,note_on,,,,,2,0,1,,,,,0,78,64
24630,note_on,,,,,26,0,1,,,,,0,60,0
24634,note_on,,,,,4,0,1,,,,,0,63,64
24660,note_on,,,,,26,0,1,,,,,0,63,0
24664,note_on,,,,,4,0,1,,,,,0,60,64
24682,note_on,,,,,18,0,1,,,,,0,78,0
24690,note_on,,,,,8,0,1,,,,,0,60,0
24694,note_on,,,,,0,0,1,,,,,0,58,64
24694,note_on,,,,,4,0,1,,,,,0,68,64
24720,note_on,,,,,26,0,1,,,,,0,58,0
24724,note_on,,,,,0,0,1,,,,,0,56,64
24724,note_on,,,,,4,0,1,,,,,0,72,64
24724,note_on,,,,,0,0,1,,,,,0,75,64
24724,note_on,,,,,0,0,1,,,,,0,78,64
24750,note_on,,,,,26,0,1,,,,,0,56,0
24754,note_on,,,,,4,0,1,,,,,0,60,64
24767,note_on,,,,,13,0,1,,,,,0,60,0
24769,note_on,,,,,2,0,1,,,,,0,58,64
24782,note_on,,,,,13,0,1,,,,,0,58,0
24784,note_on,,,,,2,0,1,,,,,0,56,64
24797,note_on,,,,,13,0,1,,,,,0,56,0
24799,note_on,,,,,2,0,1,,,,,0,54,64
24812,note_on,,,,,13,0,1,,,,,0,54,0
24814,note_on,,,,,2,0,1,,,,,0,53,64
24827,note_on,,,,,13,0,1,,,,,0,53,0
24829,note_on,,,,,2,0,1,,,,,0,51,64
24842,note_on,,,,,13,0,1,,,,,0,51,0
24844,note_on,,,,,2,0,1,,,,,0,49,64
24870,note_on,,,,,26,0,1,,,,,0,75,0
24870,note_on,,,,,0,0,1,,,,,0,68,0
24870,note_on,,,,,0,0,1,,,,,0,72,0
24870,note_on,,,,,0,0,1,,,,,0,78,0
24874,note_on,,,,,4,0,1,,,,,0,78,64
24900,note_on,,,,,26,0,1,,,,,0,78,0
24904,note_on,,,,,4,0,1,,,,,0,77,64
24917,note_on,,,,,13,0,1,,,,,0,49,0
24919,note_on,,,,,2,0,1,,,,,0,53,64
24930,note_on,,,,,11,0,1,,,,,0,77,0
24932,note_on,,,,,2,0,1,,,,,0,53,0
24934,note_on,,,,,0,0,1,,,,,0,55,64
24934,note_on,,,,,2,0,1,,,,,0,75,64
24947,note_on,,,,,13,0,1,,,,,0,55,0
24949,note_on,,,,,2,0,1,,,,,0,56,64
24960,note_on,,,,,11,0,1,,,,,0,75,0
24962,note_on,,,,,2,0,1,,,,,0,56,0
24964,note_on,,,,,0,0,1,,,,,0,58,64
24964,note_on,,,,,2,0,1,,,,,0,73,64
24990,note_on,,,,,26,0,1,,,,,0,73,0
24994,note_on,,,,,4,0,1,,,,,0,77,64
25020,note_on,,,,,26,0,1,,,,,0,77,0
25024,note_on,,,,,4,0,1,,,,,0,73,64
25037,note_on,,,,,13,0,1,,,,,0,58,0
25039,note_on,,,,,2,0,1,,,,,0,56,64
25050,note_on,,,,,11,0,1,,,,,0,73,0
25052,note_on,,,,,2,0,1,,,,,0,56,0
25054,note_on,,,,,0,0,1,,,,,0,58,64
25054,note_on,,,,,2,0,1,,,,,0,72,64
25067,note_on,,,,,13,0,1,,,,,0,58,0
25069,note_on,,,,,2,0,1,,,,,0,60,64
25080,note_on,,,,,11,0,1,,,,,0,72,0
25082,note_on,,,,,2,0,1,,,,,0,60,0
25084,note_on,,,,,2,0,1,,,,,0,70,64
25084,note_on,,,,,0,0,1,,,,,0,61,64
25110,note_on,,,,,26,0,1,,,,,0,70,0
25114,note_on,,,,,4,0,1,,,,,0,77,64
25140,note_on,,,,,26,0,1,,,,,0,77,0
25144,note_on,,,,,4,0,1,,,,,0,70,64
25162,note_on,,,,,18,0,1,,,,,0,61,0
25170,note_on,,,,,8,0,1,,,,,0,70,0
25174,note_on,,,,,4,0,1,,,,,0,68,64
25174,note_on,,,,,0,0,1,,,,,0,60,64
25200,note_on,,,,,26,0,1,,,,,0,60,0
25200,note_on,,,,,0,0,1,,,,,0,68,0
25204,note_on,,,,,0,0,1,,,,,0,58,64
25204,note_on,,,,,4,0,1,,,,,0,67,64
25230,note_on,,,,,26,0,1,,,,,0,67,0
25234,note_on,,,,,4,0,1,,,,,0,77,64
25260,note_on,,,,,26,0,1,,,,,0,77,0
25264,note_on,,,,,4,0,1,,,,,0,75,64
25277,note_on,,,,,13,0,1,,,,,0,58,0
25279,note_on,,,,,2,0,1,,,,,0,51,64
25290,note_on,,,,,11,0,1,,,,,0,75,0
25292,note_on,,,,,2,0,1,,,,,0,51,0
25294,note_on,,,,,0,0,1,,,,,0,53,64
25294,note_on,,,,,2,0,1,,,,,0,73,64
25307,note_on,,,,,13,0,1,,,,,0,53,0
25309,note_on,,,,,2,0,1,,,,,0,55,64
25320,note_on,,,,,11,0,1,,,,,0,73,0
25322,note_on,,,,,2,0,1,,,,,0,55,0
25324,note_on,,,,,0,0,1,,,,,0,56,64
25324,note_on,,,,,2,0,1,,,,,0,72,64
25350,note_on,,,,,26,0,1,,,,,0,72,0
25354,note_on,,,,,4,0,1,,,,,0,75,64
25380,note_on,,,,,26,0,1,,,,,0,75,0
25384,note_on,,,,,4,0,1,,,,,0,72,64
25397,note_on,,,,,13,0,1,,,,,0,56,0
25399,note_on,,,,,2,0,1,,,,,0,55,64
25410,note_on,,,,,11,0,1,,,,,0,72,0
25412,note_on,,,,,2,0,1,,,,,0,55,0
25414,note_on,,,,,2,0,1,,,,,0,70,64
25414,note_on,,,,,0,0,1,,,,,0,56,64
25427,note_on,,,,,13,0,1,,,,,0,56,0
25429,note_on,,,,,2,0,1,,,,,0,58,64
25440,note_on,,,,,11,0,1,,,,,0,70,0
25442,note_on,,,,,2,0,1,,,,,0,58,0
25444,note_on,,,,,0,0,1,,,,,0,60,64
25444,note_on,,,,,2,0,1,,,,,0,68,64
25470,note_on,,,,,26,0,1,,,,,0,68,0
25474,note_on,,,,,4,0,1,,,,,0,75,64
25500,note_on,,,,,26,0,1,,,,,0,75,0
25504,note_on,,,,,4,0,1,,,,,0,68,64
25522,note_on,,,,,18,0,1,,,,,0,60,0
25530,note_on,,,,,8,0,1,,,,,0,68,0
25534,note_on,,,,,4,0,1,,,,,0,67,64
25534,note_on,,,,,0,0,1,,,,,0,58,64
25560,note_on,,,,,26,0,1,,,,,0,58,0
25560,note_on,,,,,0,0,1,,,,,0,67,0
25564,note_on,,,,,0,0,1,,,,,0,56,64
25564,note_on,,,,,4,0,1,,,,,0,65,64
25590,note_on,,,,,26,0,1,,,,,0,65,0
25594,note_on,,,,,4,0,1,,,,,0,75,64
25620,note_on,,,,,26,0,1,,,,,0,75,0
25624,note_on,,,,,4,0,1,,,,,0,73,64
25637,note_on,,,,,13,0,1,,,,,0,56,0
25639,note_on,,,,,2,0,1,,,,,0,44,64
25650,note_on,,,,,11,0,1,,,,,0,73,0
25652,note_on,,,,,2,0,1,,,,,0,44,0
25654,note_on,,,,,0,0,1,,,,,0,46,64
25654,note_on,,,,,2,0,1,,,,,0,72,64
25667,note_on,,,,,13,0,1,,,,,0,46,0
25669,note_on,,,,,2,0,1,,,,,0,48,64
25680,note_on,,,,,11,0,1,,,,,0,72,0
25682,note_on,,,,,2,0,1,,,,,0,48,0
25684,note_on,,,,,2,0,1,,,,,0,70,64
25684,note_on,,,,,0,0,1,,,,,0,49,64
25710,note_on,,,,,26,0,1,,,,,0,70,0
25714,note_on,,,,,4,0,1,,,,,0,73,64
25740,note_on,,,,,26,0,1,,,,,0,73,0
25744,note_on,,,,,4,0,1,,,,,0,70,64
25757,note_on,,,,,13,0,1,,,,,0,49,0
25759,note_on,,,,,2,0,1,,,,,0,48,64
25770,note_on,,,,,11,0,1,,,,,0,70,0
25772,note_on,,,,,2,0,1,,,,,0,48,0
25774,note_on,,,,,0,0,1,,,,,0,49,64
25774,note_on,,,,,2,0,1,,,,,0,68,64
25787,note_on,,,,,13,0,1,,,,,0,49,0
25789,note_on,,,,,2,0,1,,,,,0,51,64
25800,note_on,,,,,11,0,1,,,,,0,68,0
25802,note_on,,,,,2,0,1,,,,,0,51,0
25804,note_on,,,,,0,0,1,,,,,0,52,64
25804,note_on,,,,,2,0,1,,,,,0,67,64
25830,note_on,,,,,26,0,1,,,,,0,67,0
25834,note_on,,,,,4,0,1,,,,,0,73,64
25860,note_on,,,,,26,0,1,,,,,0,73,0
25864,note_on,,,,,4,0,1,,,,,0,67,64
25882,note_on,,,,,18,0,1,,,,,0,52,0
25890,note_on,,,,,8,0,1,,,,,0,67,0
25894,note_on,,,,,4,0,1,,,,,0,65,64
25894,note_on,,,,,0,0,1,,,,,0,44,64
25920,note_on,,,,,26,0,1,,,,,0,44,0
25920,note_on,,,,,0,0,1,,,,,0,65,0
25924,note_on,,,,,0,0,1,,,,,0,43,64
25924,note_on,,,,,4,0,1,,,,,0,63,64
25950,note_on,,,,,26,0,1,,,,,0,63,0
25954,note_on,,,,,4,0,1,,,,,0,73,64
25980,note_on,,,,,26,0,1,,,,,0,73,0
25984,note_on,,,,,4,0,1,,,,,0,71,64
25997,note_on,,,,,13,0,1,,,,,0,43,0
25999,note_on,,,,,2,0,1,,,,,0,39,64
26010,note_on,,,,,11,0,1,,,,,0,71,0
26012,note_on,,,,,2,0,1,,,,,0,39,0
26014,note_on,,,,,0,0,1,,,,,0,44,64
26014,note_on,,,,,2,0,1,,,,,0,70,64
26027,note_on,,,,,13,0,1,,,,,0,44,0
26029,note_on,,,,,2,0,1,,,,,0,46,64
26040,note_on,,,,,11,0,1,,,,,0,70,0
26042,note_on,,,,,2,0,1,,,,,0,46,0
26044,note_on,,,,,0,0,1,,,,,0,47,64
26044,note_on,,,,,2,0,1,,,,,0,68,64
26070,note_on,,,,,26,0,1,,,,,0,68,0
26074,note_on,,,,,4,0,1,,,,,0,71,64
26100,note_on,,,,,26,0,1,,,,,0,71,0
26104,note_on,,,,,4,0,1,,,,,0,68,64
26117,note_on,,,,,13,0,1,,,,,0,47,0
26119,note_on,,,,,2,0,1,,,,,0,46,64
26130,note_on,,,,,11,0,1,,,,,0,68,0
26132,note_on,,,,,2,0,1,,,,,0,46,0
26134,note_on,,,,,0,0,1,,,,,0,44,64
26134,note_on,,,,,2,0,1,,,,,0,66,64
26147,note_on,,,,,13,0,1,,,,,0,44,0
26149,note_on,,,,,2,0,1,,,,,0,42,64
26160,note_on,,,,,11,0,1,,,,,0,66,0
26162,note_on,,,,,2,0,1,,,,,0,42,0
26164,note_on,,,,,2,0,1,,,,,0,64,64
26164,note_on,,,,,0,0,1,,,,,0,44,64
26190,note_on,,,,,26,0,1,,,,,0,64,0
26194,note_on,,,,,4,0,1,,,,,0,71,64
26220,note_on,,,,,26,0,1,,,,,0,71,0
26224,note_on,,,,,4,0,1,,,,,0,64,64
26237,note_on,,,,,13,0,1,,,,,0,44,0
26239,note_on,,,,,2,0,1,,,,,0,42,64
26250,note_on,,,,,11,0,1,,,,,0,64,0
26252,note_on,,,,,2,0,1,,,,,0,42,0
26254,note_on,,,,,0,0,1,,,,,0,40,64
26254,note_on,,,,,2,0,1,,,,,0,63,64
26267,note_on,,,,,13,0,1,,,,,0,40,0
26269,note_on,,,,,2,0,1,,,,,0,39,64
26280,note_on,,,,,11,0,1,,,,,0,63,0
26282,note_on,,,,,2,0,1,,,,,0,39,0
26284,note_on,,,,,2,0,1,,,,,0,61,64
26284,note_on,,,,,0,0,1,,,,,0,40,64
26310,note_on,,,,,26,0,1,,,,,0,61,0
26314,note_on,,,,,4,0,1,,,,,0,71,64
26340,note_on,,,,,26,0,1,,,,,0,71,0
26344,note_on,,,,,4,0,1,,,,,0,69,64
26357,note_on,,,,,13,0,1,,,,,0,40,0
26359,note_on,,,,,2,0,1,,,,,0,44,64
26370,note_on,,,,,11,0,1,,,,,0,69,0
26372,note_on,,,,,2,0,1,,,,,0,44,0
26374,note_on,,,,,0,0,1,,,,,0,45,64
26374,note_on,,,,,2,0,1,,,,,0,68,64
26387,note_on,,,,,13,0,1,,,,,0,45,0
26389,note_on,,,,,2,0,1,,,,,0,47,64
26400,note_on,,,,,11,0,1,,,,,0,68,0
26402,note_on,,,,,2,0,1,,,,,0,47,0
26404,note_on,,,,,0,0,1,,,,,0,49,64
26404,note_on,,,,,2,0,1,,,,,0,69,64
26417,note_on,,,,,13,0,1,,,,,0,69,0
26419,note_on,,,,,2,0,1,,,,,0,64,64
26432,note_on,,,,,13,0,1,,,,,0,64,0
26434,note_on,,,,,2,0,1,,,,,0,66,64
26447,note_on,,,,,13,0,1,,,,,0,66,0
26449,note_on,,,,,2,0,1,,,,,0,68,64
26462,note_on,,,,,13,0,1,,,,,0,68,0
26464,note_on,,,,,2,0,1,,,,,0,69,64
26477,note_on,,,,,13,0,1,,,,,0,69,0
26479,note_on,,,,,2,0,1,,,,,0,71,64
26482,note_on,,,,,3,0,1,,,,,0,49,0
26492,note_on,,,,,10,0,1,,,,,0,71,0
26494,note_on,,,,,0,0,1,,,,,0,37,64
26494,note_on,,,,,2,0,1,,,,,0,73,64
26507,note_on,,,,,13,0,1,,,,,0,73,0
26509,note_on,,,,,2,0,1,,,,,0,74,64
26520,note_on,,,,,11,0,1,,,,,0,37,0
26522,note_on,,,,,2,0,1,,,,,0,74,0
26524,note_on,,,,,0,0,1,,,,,0,49,64
26524,note_on,,,,,2,0,1,,,,,0,76,64
26550,note_on,,,,,26,0,1,,,,,0,76,0
26554,note_on,,,,,4,0,1,,,,,0,73,64
26580,note_on,,,,,26,0,1,,,,,0,73,0
26584,note_on,,,,,4,0,1,,,,,0,69,64
26602,note_on,,,,,18,0,1,,,,,0,49,0
26610,note_on,,,,,8,0,1,,,,,0,69,0
26614,note_on,,,,,0,0,1,,,,,0,49,64
26614,note_on,,,,,4,0,1,,,,,0,68,64
26640,note_on,,,,,0,0,1,,,,,0,68,0
26640,note_on,,,,,26,0,1,,,,,0,49,0
26644,note_on,,,,,0,0,1,,,,,0,49,64
26644,note_on,,,,,0,0,1,,,,,0,63,64
26644,note_on,,,,,0,0,1,,,,,0,58,64
26644,note_on,,,,,4,0,1,,,,,0,67,64
26702,set_tempo,,,,,26702,1,0,,888889,,,,,
26749,note_on,,,,,105,0,1,,,,,0,49,0
26749,note_on,,,,,0,0,1,,,,,0,67,0
26749,note_on,,,,,0,0,1,,,,,0,58,0
26749,note_on,,,,,0,0,1,,,,,0,63,0
26764,set_tempo,,,,,62,1,0,,923077,,,,,
26854,note_on,,,,,0,0,1,,,,,0,46,64
26854,note_on,,,,,0,0,1,,,,,0,73,64
26854,note_on,,,,,0,0,1,,,,,0,67,64
26854,note_on,,,,,105,0,1,,,,,0,77,64
26880,note_on,,,,,0,0,1,,,,,0,73,0
26880,note_on,,,,,0,0,1,,,,,0,67,0
26880,note_on,,,,,0,0,1,,,,,0,77,0
26880,note_on,,,,,26,0,1,,,,,0,46,0
26880,set_tempo,,,,,116,1,0,,960000,,,,,
26884,note_on,,,,,0,0,1,,,,,0,48,64
26884,note_on,,,,,0,0,1,,,,,0,68,64
26884,note_on,,,,,4,0,1,,,,,0,75,64
26884,note_on,,,,,0,0,1,,,,,0,72,64
26989,note_on,,,,,105,0,1,,,,,0,48,0
26989,note_on,,,,,0,0,1,,,,,0,75,0
26989,note_on,,,,,0,0,1,,,,,0,68,0
26989,note_on,,,,,0,0,1,,,,,0,72,0
27000,set_tempo,,,,,120,1,0,,1000000,,,,,
27094,note_on,,,,,0,0,1,,,,,0,50,64
27094,note_on,,,,,105,0,1,,,,,0,65,64
27094,note_on,,,,,0,0,1,,,,,0,65,64
27094,note_on,,,,,0,0,1,,,,,0,59,64
27120,note_on,,,,,0,0,1,,,,,0,65,0
27120,set_tempo,,,,,120,1,0,,1061947,,,,,
27120,note_on,,,,,0,0,1,,,,,0,65,0
27120,note_on,,,,,0,0,1,,,,,0,59,0
27120,note_on,,,,,26,0,1,,,,,0,50,0
27124,note_on,,,,,4,0,1,,,,,0,63,64
27124,note_on,,,,,0,0,1,,,,,0,51,64
27124,note_on,,,,,0,0,1,,,,,0,68,64
27124,note_on,,,,,0,0,1,,,,,0,58,64
27202,note_on,,,,,78,0,1,,,,,0,58,0
27208,set_tempo,,,,,88,1,0,,1142857,,,,,
27214,note_on,,,,,12,0,1,,,,,0,61,64
27227,note_on,,,,,13,0,1,,,,,0,61,0
27229,note_on,,,,,2,0,1,,,,,0,68,0
27229,note_on,,,,,0,0,1,,,,,0,60,64
27240,set_tempo,,,,,32,1,0,,1212121,,,,,
27242,note_on,,,,,13,0,1,,,,,0,60,0
27244,note_on,,,,,0,0,1,,,,,0,61,64
27244,note_on,,,,,2,0,1,,,,,0,67,64
27322,note_on,,,,,78,0,1,,,,,0,67,0
27322,set_tempo,,,,,82,1,0,,1333333,,,,,
27322,end_of_track,,,,,0,1,0,,,,,,,
27334,note_on,,,,,12,0,1,,,,,0,68,64
27349,note_on,,,,,15,0,1,,,,,0,51,0
27349,note_on,,,,,0,0,1,,,,,0,61,0
27349,note_on,,,,,0,0,1,,,,,0,63,0
27360,note_on,,,,,11,0,1,,,,,0,68,0
27364,note_on,,,,,4,0,1,,,,,0,63,64
27364,note_on,,,,,0,0,1,,,,,0,68,64
27364,note_on,,,,,0,0,1,,,,,0,60,64
27364,note_on,,,,,0,0,1,,,,,0,44,64
27469,note_on,,,,,0,0,1,,,,,0,60,0
27469,note_on,,,,,105,0,1,,,,,0,44,0
27469,note_on,,,,,0,0,1,,,,,0,63,0
27469,note_on,,,,,0,0,1,,,,,0,68,0
27469,end_of_track,,,,,0,1,1,,,,,,,
