tick,type,numerator,denominator,clocks_per_click,notated_32nd_notes_per_beat,time,meta,track,key,tempo,port,program,channel,note,velocity
0,time_signature,2,2,48,8,0,1,0,,,,,,,
0,program_change,,,,,0,0,1,,,,6,0,,
0,midi_port,,,,,0,1,3,,,0,,,,
0,track_name,,,,,0,1,1,,,,,,,
0,program_change,,,,,0,0,4,,,,6,3,,
0,track_name,,,,,0,1,4,,,,,,,
0,midi_port,,,,,0,1,4,,,0,,,,
0,midi_port,,,,,0,1,2,,,0,,,,
0,midi_port,,,,,0,1,1,,,0,,,,
0,program_change,,,,,0,0,2,,,,6,1,,
0,program_change,,,,,0,0,3,,,,6,2,,
0,track_name,,,,,0,1,3,,,,,,,
0,marker,,,,,0,1,0,,,,,,,
0,key_signature,,,,,0,1,0,B,,,,,,
0,set_tempo,,,,,0,1,0,,500000,,,,,
0,track_name,,,,,0,1,2,,,,,,,
4,note_on,,,,,4,0,4,,,,,3,47,64
229,note_on,,,,,225,0,4,,,,,3,47,0
244,note_on,,,,,15,0,4,,,,,3,51,64
469,note_on,,,,,225,0,4,,,,,3,51,0
484,note_on,,,,,15,0,4,,,,,3,56,64
709,note_on,,,,,225,0,4,,,,,3,56,0
724,note_on,,,,,15,0,4,,,,,3,52,64
949,note_on,,,,,225,0,4,,,,,3,52,0
964,note_on,,,,,15,0,4,,,,,3,49,64
1189,note_on,,,,,225,0,4,,,,,3,49,0
1204,note_on,,,,,15,0,4,,,,,3,58,64
1429,note_on,,,,,225,0,4,,,,,3,58,0
1444,note_on,,,,,15,0,4,,,,,3,59,64
1549,note_on,,,,,105,0,4,,,,,3,59,0
1564,note_on,,,,,15,0,4,,,,,3,58,64
1616,note_on,,,,,52,0,4,,,,,3,58,0
1624,note_on,,,,,8,0,4,,,,,3,56,64
1676,note_on,,,,,52,0,4,,,,,3,56,0
1684,note_on,,,,,8,0,4,,,,,3,54,64
1789,note_on,,,,,105,0,4,,,,,3,54,0
1804,note_on,,,,,15,0,4,,,,,3,52,64
1909,note_on,,,,,105,0,4,,,,,3,52,0
1924,note_on,,,,,15,0,4,,,,,3,51,64
1924,note_on,,,,,1924,0,3,,,,,2,54,64
1976,note_on,,,,,52,0,4,,,,,3,51,0
1984,note_on,,,,,8,0,4,,,,,3,49,64
2036,note_on,,,,,52,0,4,,,,,3,49,0
2044,note_on,,,,,8,0,4,,,,,3,52,64
2149,note_on,,,,,225,0,3,,,,,2,54,0
2164,note_on,,,,,15,0,3,,,,,2,58,64
2269,note_on,,,,,225,0,4,,,,,3,52,0
2284,note_on,,,,,15,0,4,,,,,3,51,64
2336,note_on,,,,,52,0,4,,,,,3,51,0
2344,note_on,,,,,8,0,4,,,,,3,49,64
2389,note_on,,,,,225,0,3,,,,,2,58,0
2396,note_on,,,,,52,0,4,,,,,3,49,0
2404,note_on,,,,,15,0,3,,,,,2,63,64
2404,note_on,,,,,8,0,4,,,,,3,47,64
2456,note_on,,,,,52,0,4,,,,,3,47,0
2464,note_on,,,,,8,0,4,,,,,3,54,64
2516,note_on,,,,,52,0,4,,,,,3,54,0
2524,note_on,,,,,8,0,4,,,,,3,58,64
2629,note_on,,,,,225,0,3,,,,,2,63,0
2644,note_on,,,,,15,0,3,,,,,2,59,64
2749,note_on,,,,,225,0,4,,,,,3,58,0
2764,note_on,,,,,15,0,4,,,,,3,56,64
2816,note_on,,,,,52,0,4,,,,,3,56,0
2824,note_on,,,,,8,0,4,,,,,3,54,64
2869,note_on,,,,,225,0,3,,,,,2,59,0
2876,note_on,,,,,52,0,4,,,,,3,54,0
2884,note_on,,,,,8,0,4,,,,,3,53,64
2884,note_on,,,,,15,0,3,,,,,2,56,64
2936,note_on,,,,,52,0,4,,,,,3,53,0
2944,note_on,,,,,8,0,4,,,,,3,59,64
2996,note_on,,,,,52,0,4,,,,,3,59,0
3004,note_on,,,,,8,0,4,,,,,3,63,64
3109,note_on,,,,,225,0,3,,,,,2,56,0
3124,note_on,,,,,15,0,3,,,,,2,65,64
3229,note_on,,,,,225,0,4,,,,,3,63,0
3244,note_on,,,,,15,0,4,,,,,3,61,64
3296,note_on,,,,,52,0,4,,,,,3,61,0
3304,note_on,,,,,8,0,4,,,,,3,59,64
3349,note_on,,,,,225,0,3,,,,,2,65,0
3356,note_on,,,,,52,0,4,,,,,3,59,0
3364,note_on,,,,,8,0,4,,,,,3,58,64
3364,note_on,,,,,15,0,3,,,,,2,66,64
3469,note_on,,,,,105,0,3,,,,,2,66,0
3469,note_on,,,,,105,0,4,,,,,3,58,0
3484,note_on,,,,,15,0,4,,,,,3,59,64
3484,note_on,,,,,15,0,3,,,,,2,65,64
3536,note_on,,,,,52,0,3,,,,,2,65,0
3544,note_on,,,,,8,0,3,,,,,2,63,64
3589,note_on,,,,,105,0,4,,,,,3,59,0
3596,note_on,,,,,52,0,3,,,,,2,63,0
3604,note_on,,,,,15,0,4,,,,,3,58,64
3604,note_on,,,,,8,0,3,,,,,2,61,64
3709,note_on,,,,,105,0,3,,,,,2,61,0
3709,note_on,,,,,105,0,4,,,,,3,58,0
3724,note_on,,,,,15,0,3,,,,,2,59,64
3724,note_on,,,,,15,0,4,,,,,3,56,64
3829,note_on,,,,,105,0,3,,,,,2,59,0
3829,note_on,,,,,105,0,4,,,,,3,56,0
3844,note_on,,,,,15,0,3,,,,,2,58,64
3844,note_on,,,,,15,0,4,,,,,3,54,64
3896,note_on,,,,,52,0,3,,,,,2,58,0
3904,note_on,,,,,8,0,3,,,,,2,56,64
3949,note_on,,,,,105,0,4,,,,,3,54,0
3956,note_on,,,,,52,0,3,,,,,2,56,0
3964,note_on,,,,,8,0,3,,,,,2,59,64
3964,note_on,,,,,15,0,4,,,,,3,53,64
4016,note_on,,,,,52,0,4,,,,,3,53,0
4024,note_on,,,,,8,0,4,,,,,3,51,64
4076,note_on,,,,,52,0,4,,,,,3,51,0
4084,note_on,,,,,8,0,4,,,,,3,49,64
4136,note_on,,,,,52,0,4,,,,,3,49,0
4144,note_on,,,,,8,0,4,,,,,3,51,64
4189,note_on,,,,,225,0,3,,,,,2,59,0
4196,note_on,,,,,52,0,4,,,,,3,51,0
4204,note_on,,,,,15,0,3,,,,,2,58,64
4204,note_on,,,,,8,0,4,,,,,3,52,64
4256,note_on,,,,,52,0,3,,,,,2,58,0
4264,note_on,,,,,8,0,3,,,,,2,56,64
4316,note_on,,,,,52,0,3,,,,,2,56,0
4324,note_on,,,,,4324,0,2,,,,,1,59,64
4324,note_on,,,,,8,0,3,,,,,2,54,64
4376,note_on,,,,,52,0,3,,,,,2,54,0
4384,note_on,,,,,8,0,3,,,,,2,56,64
4429,note_on,,,,,225,0,4,,,,,3,52,0
4436,note_on,,,,,52,0,3,,,,,2,56,0
4444,note_on,,,,,15,0,4,,,,,3,51,64
4444,note_on,,,,,8,0,3,,,,,2,57,64
4496,note_on,,,,,52,0,4,,,,,3,51,0
4504,note_on,,,,,8,0,4,,,,,3,49,64
4549,note_on,,,,,225,0,2,,,,,1,59,0
4556,note_on,,,,,52,0,4,,,,,3,49,0
4564,note_on,,,,,8,0,4,,,,,3,47,64
4564,note_on,,,,,15,0,2,,,,,1,63,64
4669,note_on,,,,,225,0,3,,,,,2,57,0
4684,note_on,,,,,15,0,3,,,,,2,56,64
4736,note_on,,,,,52,0,3,,,,,2,56,0
4744,note_on,,,,,8,0,3,,,,,2,54,64
4789,note_on,,,,,225,0,2,,,,,1,63,0
4796,note_on,,,,,52,0,3,,,,,2,54,0
4804,note_on,,,,,8,0,3,,,,,2,52,64
4804,note_on,,,,,15,0,2,,,,,1,68,64
4856,note_on,,,,,52,0,3,,,,,2,52,0
4864,note_on,,,,,8,0,3,,,,,2,59,64
4916,note_on,,,,,52,0,3,,,,,2,59,0
4924,note_on,,,,,8,0,3,,,,,2,63,64
4969,note_on,,,,,405,0,4,,,,,3,47,0
4984,note_on,,,,,15,0,4,,,,,3,48,64
5029,note_on,,,,,225,0,2,,,,,1,68,0
5036,note_on,,,,,52,0,4,,,,,3,48,0
5044,note_on,,,,,15,0,2,,,,,1,64,64
5044,note_on,,,,,8,0,4,,,,,3,49,64
5096,note_on,,,,,52,0,4,,,,,3,49,0
5104,note_on,,,,,8,0,4,,,,,3,51,64
5149,note_on,,,,,225,0,3,,,,,2,63,0
5156,note_on,,,,,52,0,4,,,,,3,51,0
5164,note_on,,,,,8,0,4,,,,,3,52,64
5164,note_on,,,,,15,0,3,,,,,2,61,64
5216,note_on,,,,,52,0,4,,,,,3,52,0
5216,note_on,,,,,52,0,3,,,,,2,61,0
5224,note_on,,,,,8,0,3,,,,,2,59,64
5224,note_on,,,,,8,0,4,,,,,3,49,64
5269,note_on,,,,,225,0,2,,,,,1,64,0
5276,note_on,,,,,52,0,4,,,,,3,49,0
5276,note_on,,,,,52,0,3,,,,,2,59,0
5284,note_on,,,,,8,0,4,,,,,3,54,64
5284,note_on,,,,,8,0,3,,,,,2,58,64
5284,note_on,,,,,15,0,2,,,,,1,61,64
5336,note_on,,,,,52,0,3,,,,,2,58,0
5344,note_on,,,,,8,0,3,,,,,2,64,64
5396,note_on,,,,,52,0,3,,,,,2,64,0
5404,note_on,,,,,8,0,3,,,,,2,68,64
5449,note_on,,,,,165,0,4,,,,,3,54,0
5464,note_on,,,,,15,0,4,,,,,3,52,64
5509,note_on,,,,,225,0,2,,,,,1,61,0
5516,note_on,,,,,52,0,4,,,,,3,52,0
5524,note_on,,,,,15,0,2,,,,,1,70,64
5524,note_on,,,,,8,0,4,,,,,3,51,64
5576,note_on,,,,,52,0,4,,,,,3,51,0
5584,note_on,,,,,8,0,4,,,,,3,49,64
5629,note_on,,,,,225,0,3,,,,,2,68,0
5636,note_on,,,,,52,0,4,,,,,3,49,0
5644,note_on,,,,,8,0,4,,,,,3,51,64
5644,note_on,,,,,15,0,3,,,,,2,66,64
5696,note_on,,,,,52,0,3,,,,,2,66,0
5704,note_on,,,,,8,0,3,,,,,2,64,64
5749,note_on,,,,,225,0,2,,,,,1,70,0
5749,note_on,,,,,105,0,4,,,,,3,51,0
5756,note_on,,,,,52,0,3,,,,,2,64,0
5764,note_on,,,,,15,0,2,,,,,1,71,64
5764,note_on,,,,,8,0,3,,,,,2,63,64
5764,note_on,,,,,15,0,4,,,,,3,56,64
5869,note_on,,,,,105,0,3,,,,,2,63,0
5869,note_on,,,,,105,0,2,,,,,1,71,0
5869,note_on,,,,,105,0,4,,,,,3,56,0
5884,note_on,,,,,15,0,3,,,,,2,64,64
5884,note_on,,,,,15,0,2,,,,,1,70,64
5884,note_on,,,,,15,0,4,,,,,3,44,64
5936,note_on,,,,,52,0,2,,,,,1,70,0
5944,note_on,,,,,8,0,2,,,,,1,68,64
5989,note_on,,,,,105,0,3,,,,,2,64,0
5996,note_on,,,,,52,0,2,,,,,1,68,0
6004,note_on,,,,,15,0,3,,,,,2,63,64
6004,note_on,,,,,8,0,2,,,,,1,66,64
6109,note_on,,,,,225,0,4,,,,,3,44,0
6109,note_on,,,,,105,0,2,,,,,1,66,0
6109,note_on,,,,,105,0,3,,,,,2,63,0
6124,note_on,,,,,15,0,4,,,,,3,46,64
6124,note_on,,,,,15,0,3,,,,,2,61,64
6124,note_on,,,,,15,0,2,,,,,1,64,64
6229,note_on,,,,,105,0,3,,,,,2,61,0
6229,note_on,,,,,105,0,4,,,,,3,46,0
6229,note_on,,,,,105,0,2,,,,,1,64,0
6244,note_on,,,,,15,0,4,,,,,3,47,64
6244,note_on,,,,,6244,0,1,,,,,0,66,64
6244,note_on,,,,,15,0,2,,,,,1,63,64
6244,note_on,,,,,15,0,3,,,,,2,59,64
6296,note_on,,,,,52,0,2,,,,,1,63,0
6304,note_on,,,,,8,0,2,,,,,1,61,64
6349,note_on,,,,,105,0,3,,,,,2,59,0
6349,note_on,,,,,105,0,4,,,,,3,47,0
6356,note_on,,,,,52,0,2,,,,,1,61,0
6364,note_on,,,,,8,0,2,,,,,1,64,64
6364,note_on,,,,,15,0,3,,,,,2,58,64
6416,note_on,,,,,52,0,3,,,,,2,58,0
6424,note_on,,,,,8,0,3,,,,,2,56,64
6469,note_on,,,,,225,0,1,,,,,0,66,0
6476,note_on,,,,,52,0,3,,,,,2,56,0
6484,note_on,,,,,15,0,1,,,,,0,70,64
6484,note_on,,,,,8,0,3,,,,,2,54,64
6589,note_on,,,,,225,0,2,,,,,1,64,0
6604,note_on,,,,,15,0,2,,,,,1,63,64
6656,note_on,,,,,52,0,2,,,,,1,63,0
6664,note_on,,,,,8,0,2,,,,,1,61,64
6709,note_on,,,,,225,0,1,,,,,0,70,0
6716,note_on,,,,,52,0,2,,,,,1,61,0
6724,note_on,,,,,8,0,2,,,,,1,59,64
6724,note_on,,,,,15,0,1,,,,,0,75,64
6776,note_on,,,,,52,0,2,,,,,1,59,0
6784,note_on,,,,,8,0,2,,,,,1,66,64
6836,note_on,,,,,52,0,2,,,,,1,66,0
6844,note_on,,,,,8,0,2,,,,,1,70,64
6889,note_on,,,,,405,0,3,,,,,2,54,0
6904,note_on,,,,,15,0,3,,,,,2,55,64
6949,note_on,,,,,225,0,1,,,,,0,75,0
6956,note_on,,,,,52,0,3,,,,,2,55,0
6964,note_on,,,,,15,0,1,,,,,0,71,64
6964,note_on,,,,,8,0,3,,,,,2,56,64
7016,note_on,,,,,52,0,3,,,,,2,56,0
7024,note_on,,,,,8,0,3,,,,,2,58,64
7069,note_on,,,,,225,0,2,,,,,1,70,0
7076,note_on,,,,,52,0,3,,,,,2,58,0
7084,note_on,,,,,8,0,3,,,,,2,59,64
7084,note_on,,,,,15,0,2,,,,,1,68,64
7136,note_on,,,,,52,0,3,,,,,2,59,0
7136,note_on,,,,,52,0,2,,,,,1,68,0
7144,note_on,,,,,8,0,3,,,,,2,56,64
7144,note_on,,,,,8,0,2,,,,,1,66,64
7189,note_on,,,,,225,0,1,,,,,0,71,0
7196,note_on,,,,,52,0,3,,,,,2,56,0
7196,note_on,,,,,52,0,2,,,,,1,66,0
7204,note_on,,,,,8,0,2,,,,,1,65,64
7204,note_on,,,,,15,0,1,,,,,0,68,64
7204,note_on,,,,,8,0,3,,,,,2,61,64
7256,note_on,,,,,52,0,2,,,,,1,65,0
7264,note_on,,,,,8,0,2,,,,,1,71,64
7316,note_on,,,,,52,0,2,,,,,1,71,0
7324,note_on,,,,,8,0,2,,,,,1,75,64
7369,note_on,,,,,165,0,3,,,,,2,61,0
7384,note_on,,,,,15,0,3,,,,,2,59,64
7429,note_on,,,,,225,0,1,,,,,0,68,0
7436,note_on,,,,,52,0,3,,,,,2,59,0
7444,note_on,,,,,8,0,3,,,,,2,58,64
7444,note_on,,,,,15,0,1,,,,,0,77,64
7496,note_on,,,,,52,0,3,,,,,2,58,0
7504,note_on,,,,,8,0,3,,,,,2,56,64
7549,note_on,,,,,225,0,2,,,,,1,75,0
7556,note_on,,,,,52,0,3,,,,,2,56,0
7564,note_on,,,,,15,0,2,,,,,1,73,64
7564,note_on,,,,,8,0,3,,,,,2,58,64
7616,note_on,,,,,52,0,2,,,,,1,73,0
7624,note_on,,,,,8,0,2,,,,,1,71,64
7669,note_on,,,,,225,0,1,,,,,0,77,0
7669,note_on,,,,,105,0,3,,,,,2,58,0
7676,note_on,,,,,52,0,2,,,,,1,71,0
7684,note_on,,,,,8,0,2,,,,,1,70,64
7684,note_on,,,,,15,0,3,,,,,2,63,64
7684,note_on,,,,,15,0,1,,,,,0,78,64
7789,note_on,,,,,105,0,1,,,,,0,78,0
7789,note_on,,,,,105,0,3,,,,,2,63,0
7789,note_on,,,,,105,0,2,,,,,1,70,0
7804,note_on,,,,,15,0,1,,,,,0,77,64
7804,note_on,,,,,15,0,3,,,,,2,51,64
7804,note_on,,,,,15,0,2,,,,,1,71,64
7856,note_on,,,,,52,0,1,,,,,0,77,0
7864,note_on,,,,,8,0,1,,,,,0,75,64
7909,note_on,,,,,105,0,2,,,,,1,71,0
7916,note_on,,,,,52,0,1,,,,,0,75,0
7924,note_on,,,,,8,0,1,,,,,0,73,64
7924,note_on,,,,,15,0,2,,,,,1,70,64
8029,note_on,,,,,105,0,1,,,,,0,73,0
8029,note_on,,,,,225,0,3,,,,,2,51,0
8029,note_on,,,,,105,0,2,,,,,1,70,0
8044,note_on,,,,,15,0,1,,,,,0,71,64
8044,note_on,,,,,15,0,2,,,,,1,68,64
8044,note_on,,,,,15,0,3,,,,,2,53,64
8149,note_on,,,,,105,0,3,,,,,2,53,0
8149,note_on,,,,,105,0,1,,,,,0,71,0
8149,note_on,,,,,105,0,2,,,,,1,68,0
8164,note_on,,,,,15,0,1,,,,,0,70,64
8164,note_on,,,,,15,0,2,,,,,1,66,64
8164,note_on,,,,,15,0,3,,,,,2,54,64
8216,note_on,,,,,52,0,1,,,,,0,70,0
8224,note_on,,,,,8,0,1,,,,,0,68,64
8269,note_on,,,,,105,0,2,,,,,1,66,0
8269,note_on,,,,,105,0,3,,,,,2,54,0
8276,note_on,,,,,52,0,1,,,,,0,68,0
8284,note_on,,,,,8,0,1,,,,,0,71,64
8284,note_on,,,,,15,0,3,,,,,2,56,64
8284,note_on,,,,,15,0,2,,,,,1,65,64
8336,note_on,,,,,52,0,2,,,,,1,65,0
8344,note_on,,,,,8,0,2,,,,,1,63,64
8389,note_on,,,,,105,0,3,,,,,2,56,0
8396,note_on,,,,,52,0,2,,,,,1,63,0
8404,note_on,,,,,8,0,2,,,,,1,61,64
8404,note_on,,,,,15,0,3,,,,,2,58,64
8456,note_on,,,,,52,0,2,,,,,1,61,0
8464,note_on,,,,,8,0,2,,,,,1,63,64
8509,note_on,,,,,105,0,3,,,,,2,58,0
8509,note_on,,,,,225,0,1,,,,,0,71,0
8516,note_on,,,,,52,0,2,,,,,1,63,0
8524,note_on,,,,,15,0,1,,,,,0,70,64
8524,note_on,,,,,8,0,2,,,,,1,64,64
8524,note_on,,,,,15,0,3,,,,,2,54,64
8576,note_on,,,,,52,0,1,,,,,0,70,0
8584,note_on,,,,,8,0,1,,,,,0,68,64
8629,note_on,,,,,105,0,3,,,,,2,54,0
8636,note_on,,,,,52,0,1,,,,,0,68,0
8644,note_on,,,,,8,0,1,,,,,0,66,64
8644,note_on,,,,,2295,0,4,,,,,3,47,64
8644,note_on,,,,,15,0,3,,,,,2,59,64
8696,note_on,,,,,52,0,1,,,,,0,66,0
8704,note_on,,,,,8,0,1,,,,,0,68,64
8749,note_on,,,,,105,0,3,,,,,2,59,0
8749,note_on,,,,,225,0,2,,,,,1,64,0
8756,note_on,,,,,52,0,1,,,,,0,68,0
8764,note_on,,,,,8,0,1,,,,,0,69,64
8764,note_on,,,,,15,0,2,,,,,1,63,64
8764,note_on,,,,,15,0,3,,,,,2,54,64
8816,note_on,,,,,52,0,3,,,,,2,54,0
8816,note_on,,,,,52,0,2,,,,,1,63,0
8824,note_on,,,,,8,0,3,,,,,2,52,64
8824,note_on,,,,,8,0,2,,,,,1,61,64
8869,note_on,,,,,225,0,4,,,,,3,47,0
8876,note_on,,,,,52,0,3,,,,,2,52,0
8876,note_on,,,,,52,0,2,,,,,1,61,0
8884,note_on,,,,,8,0,3,,,,,2,54,64
8884,note_on,,,,,8,0,2,,,,,1,59,64
8884,note_on,,,,,15,0,4,,,,,3,51,64
8936,note_on,,,,,52,0,2,,,,,1,59,0
8944,note_on,,,,,8,0,2,,,,,1,61,64
8989,note_on,,,,,225,0,1,,,,,0,69,0
8989,note_on,,,,,105,0,3,,,,,2,54,0
8996,note_on,,,,,52,0,2,,,,,1,61,0
9004,note_on,,,,,15,0,3,,,,,2,59,64
9004,note_on,,,,,8,0,2,,,,,1,63,64
9004,note_on,,,,,15,0,1,,,,,0,68,64
9056,note_on,,,,,52,0,1,,,,,0,68,0
9064,note_on,,,,,8,0,1,,,,,0,66,64
9109,note_on,,,,,105,0,2,,,,,1,63,0
9109,note_on,,,,,225,0,4,,,,,3,51,0
9116,note_on,,,,,52,0,1,,,,,0,66,0
9124,note_on,,,,,15,0,2,,,,,1,64,64
9124,note_on,,,,,8,0,1,,,,,0,64,64
9124,note_on,,,,,15,0,4,,,,,3,56,64
9176,note_on,,,,,52,0,1,,,,,0,64,0
9184,note_on,,,,,8,0,1,,,,,0,71,64
9236,note_on,,,,,52,0,1,,,,,0,71,0
9244,note_on,,,,,8,0,1,,,,,0,75,64
9289,note_on,,,,,165,0,2,,,,,1,64,0
9289,note_on,,,,,285,0,3,,,,,2,59,0
9304,note_on,,,,,15,0,2,,,,,1,66,64
9304,note_on,,,,,15,0,3,,,,,2,58,64
9349,note_on,,,,,225,0,4,,,,,3,56,0
9356,note_on,,,,,52,0,2,,,,,1,66,0
9356,note_on,,,,,52,0,3,,,,,2,58,0
9364,note_on,,,,,8,0,2,,,,,1,68,64
9364,note_on,,,,,8,0,3,,,,,2,59,64
9364,note_on,,,,,15,0,4,,,,,3,52,64
9416,note_on,,,,,52,0,3,,,,,2,59,0
9424,note_on,,,,,8,0,3,,,,,2,56,64
9469,note_on,,,,,225,0,1,,,,,0,75,0
9476,note_on,,,,,52,0,3,,,,,2,56,0
9484,note_on,,,,,15,0,1,,,,,0,73,64
9484,note_on,,,,,8,0,3,,,,,2,58,64
9536,note_on,,,,,52,0,1,,,,,0,73,0
9536,note_on,,,,,52,0,3,,,,,2,58,0
9544,note_on,,,,,8,0,3,,,,,2,59,64
9544,note_on,,,,,8,0,1,,,,,0,71,64
9589,note_on,,,,,225,0,2,,,,,1,68,0
9589,note_on,,,,,225,0,4,,,,,3,52,0
9596,note_on,,,,,52,0,1,,,,,0,71,0
9596,note_on,,,,,52,0,3,,,,,2,59,0
9604,note_on,,,,,8,0,3,,,,,2,61,64
9604,note_on,,,,,8,0,1,,,,,0,70,64
9604,note_on,,,,,15,0,2,,,,,1,70,64
9604,note_on,,,,,15,0,4,,,,,3,49,64
9656,note_on,,,,,52,0,1,,,,,0,70,0
9664,note_on,,,,,8,0,1,,,,,0,76,64
9716,note_on,,,,,52,0,1,,,,,0,76,0
9724,note_on,,,,,8,0,1,,,,,0,80,64
9769,note_on,,,,,165,0,2,,,,,1,70,0
9784,note_on,,,,,15,0,2,,,,,1,71,64
9829,note_on,,,,,225,0,4,,,,,3,49,0
9836,note_on,,,,,52,0,2,,,,,1,71,0
9844,note_on,,,,,15,0,4,,,,,3,58,64
9844,note_on,,,,,8,0,2,,,,,1,73,64
9896,note_on,,,,,292,0,3,,,,,2,61,0
9904,note_on,,,,,8,0,3,,,,,2,61,64
9949,note_on,,,,,225,0,1,,,,,0,80,0
9956,note_on,,,,,52,0,3,,,,,2,61,0
9964,note_on,,,,,15,0,1,,,,,0,78,64
9964,note_on,,,,,8,0,3,,,,,2,66,64
10016,note_on,,,,,52,0,1,,,,,0,78,0
10024,note_on,,,,,8,0,1,,,,,0,76,64
10069,note_on,,,,,225,0,4,,,,,3,58,0
10076,note_on,,,,,52,0,1,,,,,0,76,0
10084,note_on,,,,,8,0,1,,,,,0,75,64
10084,note_on,,,,,15,0,4,,,,,3,59,64
10136,note_on,,,,,292,0,2,,,,,1,73,0
10144,note_on,,,,,8,0,2,,,,,1,73,64
10189,note_on,,,,,105,0,4,,,,,3,59,0
10189,note_on,,,,,225,0,3,,,,,2,66,0
10196,note_on,,,,,52,0,2,,,,,1,73,0
10204,note_on,,,,,15,0,4,,,,,3,63,64
10204,note_on,,,,,8,0,2,,,,,1,71,64
10204,note_on,,,,,15,0,3,,,,,2,66,64
10256,note_on,,,,,52,0,2,,,,,1,71,0
10256,note_on,,,,,52,0,3,,,,,2,66,0
10256,note_on,,,,,52,0,4,,,,,3,63,0
10264,note_on,,,,,8,0,4,,,,,3,61,64
10264,note_on,,,,,8,0,2,,,,,1,70,64
10264,note_on,,,,,8,0,3,,,,,2,64,64
10316,note_on,,,,,52,0,4,,,,,3,61,0
10316,note_on,,,,,52,0,2,,,,,1,70,0
10316,note_on,,,,,52,0,3,,,,,2,64,0
10324,note_on,,,,,8,0,4,,,,,3,59,64
10324,note_on,,,,,8,0,3,,,,,2,63,64
10324,note_on,,,,,8,0,2,,,,,1,68,64
10376,note_on,,,,,52,0,2,,,,,1,68,0
10384,note_on,,,,,8,0,2,,,,,1,67,64
10429,note_on,,,,,105,0,3,,,,,2,63,0
10429,note_on,,,,,105,0,4,,,,,3,59,0
10436,note_on,,,,,52,0,2,,,,,1,67,0
10444,note_on,,,,,15,0,3,,,,,2,61,64
10444,note_on,,,,,8,0,2,,,,,1,68,64
10444,note_on,,,,,15,0,4,,,,,3,58,64
10496,note_on,,,,,52,0,2,,,,,1,68,0
10504,note_on,,,,,8,0,2,,,,,1,67,64
10549,note_on,,,,,105,0,3,,,,,2,61,0
10549,note_on,,,,,105,0,4,,,,,3,58,0
10556,note_on,,,,,52,0,2,,,,,1,67,0
10564,note_on,,,,,15,0,3,,,,,2,59,64
10564,note_on,,,,,15,0,4,,,,,3,56,64
10564,note_on,,,,,8,0,2,,,,,1,68,64
10616,note_on,,,,,52,0,2,,,,,1,68,0
10624,note_on,,,,,8,0,2,,,,,1,71,64
10669,note_on,,,,,105,0,3,,,,,2,59,0
10669,note_on,,,,,585,0,1,,,,,0,75,0
10676,note_on,,,,,52,0,2,,,,,1,71,0
10684,note_on,,,,,8,0,2,,,,,1,70,64
10684,note_on,,,,,15,0,3,,,,,2,61,64
10684,note_on,,,,,15,0,1,,,,,0,79,64
10736,note_on,,,,,52,0,2,,,,,1,70,0
10744,note_on,,,,,8,0,2,,,,,1,73,64
10789,note_on,,,,,105,0,3,,,,,2,61,0
10789,note_on,,,,,105,0,1,,,,,0,79,0
10796,note_on,,,,,52,0,2,,,,,1,73,0
10804,note_on,,,,,15,0,1,,,,,0,80,64
10804,note_on,,,,,15,0,3,,,,,2,63,64
10804,note_on,,,,,8,0,2,,,,,1,71,64
10856,note_on,,,,,292,0,4,,,,,3,56,0
10864,note_on,,,,,8,0,4,,,,,3,55,64
10909,note_on,,,,,105,0,3,,,,,2,63,0
10909,note_on,,,,,105,0,2,,,,,1,71,0
10909,note_on,,,,,105,0,1,,,,,0,80,0
10916,note_on,,,,,52,0,4,,,,,3,55,0
10924,note_on,,,,,15,0,2,,,,,1,70,64
10924,note_on,,,,,15,0,1,,,,,0,73,64
10924,note_on,,,,,15,0,3,,,,,2,64,64
10924,note_on,,,,,8,0,4,,,,,3,56,64
10976,note_on,,,,,52,0,4,,,,,3,56,0
10984,note_on,,,,,8,0,4,,,,,3,55,64
11029,note_on,,,,,105,0,1,,,,,0,73,0
11029,note_on,,,,,105,0,3,,,,,2,64,0
11036,note_on,,,,,52,0,4,,,,,3,55,0
11044,note_on,,,,,15,0,1,,,,,0,71,64
11044,note_on,,,,,8,0,4,,,,,3,56,64
11044,note_on,,,,,15,0,3,,,,,2,63,64
11096,note_on,,,,,172,0,2,,,,,1,70,0
11104,note_on,,,,,8,0,2,,,,,1,70,64
11149,note_on,,,,,105,0,4,,,,,3,56,0
11156,note_on,,,,,52,0,2,,,,,1,70,0
11164,note_on,,,,,15,0,4,,,,,3,59,64
11164,note_on,,,,,8,0,2,,,,,1,68,64
11209,note_on,,,,,165,0,3,,,,,2,63,0
11216,note_on,,,,,52,0,4,,,,,3,59,0
11216,note_on,,,,,52,0,2,,,,,1,68,0
11224,note_on,,,,,8,0,4,,,,,3,58,64
11224,note_on,,,,,8,0,2,,,,,1,66,64
11224,note_on,,,,,15,0,3,,,,,2,61,64
11276,note_on,,,,,52,0,2,,,,,1,66,0
11276,note_on,,,,,52,0,3,,,,,2,61,0
11276,note_on,,,,,52,0,4,,,,,3,58,0
11284,note_on,,,,,8,0,2,,,,,1,65,64
11284,note_on,,,,,8,0,4,,,,,3,56,64
11284,note_on,,,,,8,0,3,,,,,2,59,64
11336,note_on,,,,,52,0,2,,,,,1,65,0
11344,note_on,,,,,8,0,2,,,,,1,66,64
11389,note_on,,,,,105,0,4,,,,,3,56,0
11389,note_on,,,,,105,0,3,,,,,2,59,0
11396,note_on,,,,,52,0,2,,,,,1,66,0
11404,note_on,,,,,15,0,3,,,,,2,62,64
11404,note_on,,,,,8,0,2,,,,,1,65,64
11404,note_on,,,,,15,0,4,,,,,3,54,64
11456,note_on,,,,,52,0,2,,,,,1,65,0
11464,note_on,,,,,8,0,2,,,,,1,66,64
11509,note_on,,,,,105,0,3,,,,,2,62,0
11509,note_on,,,,,105,0,4,,,,,3,54,0
11516,note_on,,,,,52,0,2,,,,,1,66,0
11524,note_on,,,,,8,0,2,,,,,1,68,64
11524,note_on,,,,,15,0,3,,,,,2,61,64
11524,note_on,,,,,15,0,4,,,,,3,53,64
11576,note_on,,,,,532,0,1,,,,,0,71,0
11584,note_on,,,,,8,0,1,,,,,0,70,64
11636,note_on,,,,,52,0,1,,,,,0,70,0
11644,note_on,,,,,8,0,1,,,,,0,71,64
11689,note_on,,,,,165,0,3,,,,,2,61,0
11704,note_on,,,,,15,0,3,,,,,2,56,64
11749,note_on,,,,,225,0,4,,,,,3,53,0
11749,note_on,,,,,225,0,2,,,,,1,68,0
11756,note_on,,,,,52,0,3,,,,,2,56,0
11764,note_on,,,,,15,0,4,,,,,3,54,64
11764,note_on,,,,,8,0,3,,,,,2,58,64
11764,note_on,,,,,15,0,2,,,,,1,61,64
11816,note_on,,,,,52,0,3,,,,,2,58,0
11824,note_on,,,,,8,0,3,,,,,2,59,64
11869,note_on,,,,,105,0,2,,,,,1,61,0
11876,note_on,,,,,52,0,3,,,,,2,59,0
11884,note_on,,,,,8,0,3,,,,,2,61,64
11884,note_on,,,,,15,0,2,,,,,1,66,64
11929,note_on,,,,,285,0,1,,,,,0,71,0
11944,note_on,,,,,15,0,1,,,,,0,70,64
11989,note_on,,,,,225,0,4,,,,,3,54,0
11996,note_on,,,,,52,0,1,,,,,0,70,0
12004,note_on,,,,,15,0,4,,,,,3,49,64
12004,note_on,,,,,8,0,1,,,,,0,68,64
12056,note_on,,,,,52,0,1,,,,,0,68,0
12064,note_on,,,,,8,0,1,,,,,0,71,64
12109,note_on,,,,,225,0,3,,,,,2,61,0
12116,note_on,,,,,52,0,1,,,,,0,71,0
12124,note_on,,,,,15,0,3,,,,,2,59,64
12124,note_on,,,,,8,0,1,,,,,0,75,64
12176,note_on,,,,,52,0,3,,,,,2,59,0
12184,note_on,,,,,8,0,3,,,,,2,58,64
12229,note_on,,,,,345,0,2,,,,,1,66,0
12236,note_on,,,,,52,0,3,,,,,2,58,0
12244,note_on,,,,,8,0,3,,,,,2,56,64
12244,note_on,,,,,15,0,2,,,,,1,65,64
12296,note_on,,,,,52,0,3,,,,,2,56,0
12304,note_on,,,,,8,0,3,,,,,2,54,64
12349,note_on,,,,,225,0,1,,,,,0,75,0
12356,note_on,,,,,52,0,3,,,,,2,54,0
12364,note_on,,,,,8,0,3,,,,,2,56,64
12364,note_on,,,,,15,0,1,,,,,0,73,64
12416,note_on,,,,,52,0,1,,,,,0,73,0
12424,note_on,,,,,8,0,1,,,,,0,71,64
12469,note_on,,,,,105,0,3,,,,,2,56,0
12469,note_on,,,,,225,0,2,,,,,1,65,0
12469,note_on,,,,,465,0,4,,,,,3,49,0
12476,note_on,,,,,52,0,1,,,,,0,71,0
12484,note_on,,,,,8,0,1,,,,,0,70,64
12484,note_on,,,,,15,0,3,,,,,2,54,64
12484,note_on,,,,,15,0,4,,,,,3,42,64
12484,note_on,,,,,15,0,2,,,,,1,66,64
12709,note_on,,,,,225,0,2,,,,,1,66,0
12709,note_on,,,,,225,0,1,,,,,0,70,0
12709,note_on,,,,,225,0,3,,,,,2,54,0
12709,note_on,,,,,225,0,4,,,,,3,42,0
12724,note_on,,,,,15,0,3,,,,,2,58,64
12949,note_on,,,,,225,0,3,,,,,2,58,0
12964,note_on,,,,,15,0,3,,,,,2,63,64
13084,note_on,,,,,375,0,1,,,,,0,78,64
13136,note_on,,,,,52,0,1,,,,,0,78,0
13144,note_on,,,,,8,0,1,,,,,0,76,64
13189,note_on,,,,,225,0,3,,,,,2,63,0
13196,note_on,,,,,52,0,1,,,,,0,76,0
13204,note_on,,,,,15,0,3,,,,,2,59,64
13204,note_on,,,,,8,0,1,,,,,0,75,64
13256,note_on,,,,,52,0,1,,,,,0,75,0
13264,note_on,,,,,8,0,1,,,,,0,76,64
13316,note_on,,,,,52,0,1,,,,,0,76,0
13324,note_on,,,,,8,0,1,,,,,0,78,64
13376,note_on,,,,,52,0,1,,,,,0,78,0
13384,note_on,,,,,8,0,1,,,,,0,75,64
13429,note_on,,,,,225,0,3,,,,,2,59,0
13436,note_on,,,,,52,0,1,,,,,0,75,0
13444,note_on,,,,,8,0,1,,,,,0,71,64
13444,note_on,,,,,15,0,3,,,,,2,56,64
13496,note_on,,,,,52,0,1,,,,,0,71,0
13504,note_on,,,,,8,0,1,,,,,0,73,64
13556,note_on,,,,,52,0,1,,,,,0,73,0
13564,note_on,,,,,8,0,1,,,,,0,75,64
13616,note_on,,,,,52,0,1,,,,,0,75,0
13624,note_on,,,,,8,0,1,,,,,0,71,64
13669,note_on,,,,,225,0,3,,,,,2,56,0
13676,note_on,,,,,52,0,1,,,,,0,71,0
13684,note_on,,,,,8,0,1,,,,,0,68,64
13684,note_on,,,,,15,0,3,,,,,2,65,64
13736,note_on,,,,,52,0,1,,,,,0,68,0
13744,note_on,,,,,8,0,1,,,,,0,70,64
13796,note_on,,,,,52,0,1,,,,,0,70,0
13804,note_on,,,,,8,0,1,,,,,0,71,64
13909,note_on,,,,,225,0,3,,,,,2,65,0
13924,note_on,,,,,15,0,3,,,,,2,66,64
13976,note_on,,,,,172,0,1,,,,,0,71,0
13984,note_on,,,,,8,0,1,,,,,0,68,64
14036,note_on,,,,,52,0,1,,,,,0,68,0
14044,note_on,,,,,8,0,1,,,,,0,70,64
14096,note_on,,,,,52,0,1,,,,,0,70,0
14104,note_on,,,,,8,0,1,,,,,0,71,64
14156,note_on,,,,,52,0,1,,,,,0,71,0
14164,note_on,,,,,8,0,1,,,,,0,73,64
14216,note_on,,,,,292,0,3,,,,,2,66,0
14224,note_on,,,,,8,0,3,,,,,2,64,64
14276,note_on,,,,,52,0,3,,,,,2,64,0
14284,note_on,,,,,8,0,3,,,,,2,63,64
14336,note_on,,,,,52,0,3,,,,,2,63,0
14344,note_on,,,,,8,0,3,,,,,2,61,64
14396,note_on,,,,,52,0,3,,,,,2,61,0
14404,note_on,,,,,8,0,3,,,,,2,63,64
14456,note_on,,,,,292,0,1,,,,,0,73,0
14464,note_on,,,,,8,0,1,,,,,0,66,64
14516,note_on,,,,,52,0,1,,,,,0,66,0
14524,note_on,,,,,8,0,1,,,,,0,68,64
14524,note_on,,,,,1815,0,4,,,,,3,59,64
14576,note_on,,,,,52,0,1,,,,,0,68,0
14576,note_on,,,,,52,0,4,,,,,3,59,0
14584,note_on,,,,,8,0,1,,,,,0,70,64
14584,note_on,,,,,8,0,4,,,,,3,58,64
14636,note_on,,,,,52,0,1,,,,,0,70,0
14636,note_on,,,,,52,0,4,,,,,3,58,0
14644,note_on,,,,,8,0,4,,,,,3,56,64
14644,note_on,,,,,8,0,1,,,,,0,71,64
14696,note_on,,,,,52,0,4,,,,,3,56,0
14704,note_on,,,,,8,0,4,,,,,3,58,64
14749,note_on,,,,,345,0,3,,,,,2,63,0
14756,note_on,,,,,52,0,4,,,,,3,58,0
14764,note_on,,,,,15,0,3,,,,,2,63,64
14764,note_on,,,,,8,0,4,,,,,3,59,64
14816,note_on,,,,,52,0,4,,,,,3,59,0
14824,note_on,,,,,8,0,4,,,,,3,56,64
14869,note_on,,,,,105,0,3,,,,,2,63,0
14876,note_on,,,,,52,0,4,,,,,3,56,0
14884,note_on,,,,,8,0,4,,,,,3,52,64
14884,note_on,,,,,15,0,3,,,,,2,61,64
14936,note_on,,,,,52,0,3,,,,,2,61,0
14936,note_on,,,,,52,0,4,,,,,3,52,0
14944,note_on,,,,,8,0,4,,,,,3,54,64
14944,note_on,,,,,8,0,3,,,,,2,63,64
14996,note_on,,,,,52,0,4,,,,,3,54,0
14996,note_on,,,,,52,0,3,,,,,2,63,0
15004,note_on,,,,,8,0,3,,,,,2,64,64
15004,note_on,,,,,8,0,4,,,,,3,56,64
15056,note_on,,,,,52,0,4,,,,,3,56,0
15064,note_on,,,,,8,0,4,,,,,3,52,64
15109,note_on,,,,,465,0,1,,,,,0,71,0
15116,note_on,,,,,52,0,4,,,,,3,52,0
15124,note_on,,,,,8,0,4,,,,,3,49,64
15124,note_on,,,,,15,0,1,,,,,0,70,64
15176,note_on,,,,,52,0,1,,,,,0,70,0
15176,note_on,,,,,52,0,4,,,,,3,49,0
15184,note_on,,,,,8,0,4,,,,,3,51,64
15184,note_on,,,,,8,0,1,,,,,0,71,64
15229,note_on,,,,,225,0,3,,,,,2,64,0
15236,note_on,,,,,52,0,4,,,,,3,51,0
15236,note_on,,,,,52,0,1,,,,,0,71,0
15244,note_on,,,,,8,0,4,,,,,3,52,64
15244,note_on,,,,,15,0,3,,,,,2,58,64
15244,note_on,,,,,8,0,1,,,,,0,73,64
15296,note_on,,,,,52,0,1,,,,,0,73,0
15304,note_on,,,,,8,0,1,,,,,0,70,64
15349,note_on,,,,,105,0,3,,,,,2,58,0
15356,note_on,,,,,52,0,1,,,,,0,70,0
15364,note_on,,,,,15,0,3,,,,,2,59,64
15364,note_on,,,,,8,0,1,,,,,0,66,64
15416,note_on,,,,,172,0,4,,,,,3,52,0
15424,note_on,,,,,8,0,4,,,,,3,49,64
15469,note_on,,,,,105,0,1,,,,,0,66,0
15476,note_on,,,,,52,0,4,,,,,3,49,0
15484,note_on,,,,,15,0,1,,,,,0,83,64
15484,note_on,,,,,8,0,4,,,,,3,51,64
15536,note_on,,,,,52,0,1,,,,,0,83,0
15544,note_on,,,,,8,0,1,,,,,0,82,64
15589,note_on,,,,,105,0,4,,,,,3,51,0
15596,note_on,,,,,52,0,1,,,,,0,82,0
15604,note_on,,,,,8,0,1,,,,,0,80,64
15604,note_on,,,,,15,0,4,,,,,3,52,64
15656,note_on,,,,,52,0,1,,,,,0,80,0
15664,note_on,,,,,8,0,1,,,,,0,82,64
15709,note_on,,,,,105,0,4,,,,,3,52,0
15716,note_on,,,,,52,0,1,,,,,0,82,0
15724,note_on,,,,,15,0,4,,,,,3,47,64
15724,note_on,,,,,8,0,1,,,,,0,83,64
15776,note_on,,,,,52,0,1,,,,,0,83,0
15784,note_on,,,,,8,0,1,,,,,0,80,64
15829,note_on,,,,,105,0,4,,,,,3,47,0
15836,note_on,,,,,52,0,1,,,,,0,80,0
15844,note_on,,,,,15,0,4,,,,,3,49,64
15844,note_on,,,,,8,0,1,,,,,0,76,64
15896,note_on,,,,,52,0,1,,,,,0,76,0
15896,note_on,,,,,52,0,4,,,,,3,49,0
15904,note_on,,,,,8,0,1,,,,,0,78,64
15904,note_on,,,,,8,0,4,,,,,3,51,64
15956,note_on,,,,,52,0,4,,,,,3,51,0
15956,note_on,,,,,52,0,1,,,,,0,78,0
15964,note_on,,,,,8,0,4,,,,,3,52,64
15964,note_on,,,,,8,0,1,,,,,0,80,64
16016,note_on,,,,,52,0,4,,,,,3,52,0
16016,note_on,,,,,52,0,1,,,,,0,80,0
16024,note_on,,,,,8,0,1,,,,,0,76,64
16024,note_on,,,,,8,0,4,,,,,3,49,64
16076,note_on,,,,,52,0,1,,,,,0,76,0
16076,note_on,,,,,52,0,4,,,,,3,49,0
16084,note_on,,,,,8,0,1,,,,,0,73,64
16084,note_on,,,,,8,0,4,,,,,3,54,64
16136,note_on,,,,,772,0,3,,,,,2,59,0
16136,note_on,,,,,52,0,1,,,,,0,73,0
16144,note_on,,,,,8,0,3,,,,,2,58,64
16144,note_on,,,,,8,0,1,,,,,0,75,64
16196,note_on,,,,,52,0,3,,,,,2,58,0
16196,note_on,,,,,52,0,1,,,,,0,75,0
16204,note_on,,,,,8,0,3,,,,,2,56,64
16204,note_on,,,,,8,0,1,,,,,0,76,64
16256,note_on,,,,,52,0,3,,,,,2,56,0
16264,note_on,,,,,8,0,3,,,,,2,58,64
16309,note_on,,,,,225,0,4,,,,,3,54,0
16316,note_on,,,,,52,0,3,,,,,2,58,0
16324,note_on,,,,,8,0,3,,,,,2,59,64
16324,note_on,,,,,15,0,4,,,,,3,47,64
16324,note_on,,,,,3615,0,2,,,,,1,59,64
16376,note_on,,,,,52,0,3,,,,,2,59,0
16384,note_on,,,,,8,0,3,,,,,2,54,64
16429,note_on,,,,,105,0,4,,,,,3,47,0
16429,note_on,,,,,225,0,1,,,,,0,76,0
16436,note_on,,,,,52,0,3,,,,,2,54,0
16444,note_on,,,,,15,0,1,,,,,0,75,64
16444,note_on,,,,,8,0,3,,,,,2,59,64
16496,note_on,,,,,52,0,3,,,,,2,59,0
16496,note_on,,,,,52,0,1,,,,,0,75,0
16504,note_on,,,,,8,0,1,,,,,0,73,64
16504,note_on,,,,,8,0,3,,,,,2,58,64
16549,note_on,,,,,225,0,2,,,,,1,59,0
16556,note_on,,,,,52,0,3,,,,,2,58,0
16556,note_on,,,,,52,0,1,,,,,0,73,0
16564,note_on,,,,,8,0,3,,,,,2,56,64
16564,note_on,,,,,8,0,1,,,,,0,71,64
16564,note_on,,,,,15,0,2,,,,,1,63,64
16616,note_on,,,,,52,0,3,,,,,2,56,0
16624,note_on,,,,,8,0,3,,,,,2,58,64
16676,note_on,,,,,52,0,3,,,,,2,58,0
16684,note_on,,,,,8,0,3,,,,,2,59,64
16736,note_on,,,,,52,0,3,,,,,2,59,0
16744,note_on,,,,,8,0,3,,,,,2,56,64
16789,note_on,,,,,225,0,2,,,,,1,63,0
16796,note_on,,,,,52,0,3,,,,,2,56,0
16804,note_on,,,,,15,0,2,,,,,1,68,64
16804,note_on,,,,,240,0,1,,,,,0,71,0
16804,note_on,,,,,8,0,3,,,,,2,52,64
16864,note_on,,,,,435,0,4,,,,,3,47,64
16909,note_on,,,,,105,0,3,,,,,2,52,0
16916,note_on,,,,,52,0,4,,,,,3,47,0
16924,note_on,,,,,120,0,1,,,,,0,73,64
16924,note_on,,,,,8,0,4,,,,,3,52,64
16976,note_on,,,,,52,0,4,,,,,3,52,0
16976,note_on,,,,,52,0,1,,,,,0,73,0
16984,note_on,,,,,8,0,4,,,,,3,51,64
16984,note_on,,,,,8,0,1,,,,,0,71,64
17029,note_on,,,,,225,0,2,,,,,1,68,0
17036,note_on,,,,,52,0,1,,,,,0,71,0
17036,note_on,,,,,52,0,4,,,,,3,51,0
17044,note_on,,,,,8,0,1,,,,,0,70,64
17044,note_on,,,,,15,0,2,,,,,1,64,64
17044,note_on,,,,,8,0,4,,,,,3,49,64
17096,note_on,,,,,52,0,4,,,,,3,49,0
17104,note_on,,,,,8,0,4,,,,,3,51,64
17149,note_on,,,,,105,0,1,,,,,0,70,0
17156,note_on,,,,,52,0,4,,,,,3,51,0
17164,note_on,,,,,15,0,1,,,,,0,68,64
17164,note_on,,,,,8,0,4,,,,,3,52,64
17216,note_on,,,,,52,0,4,,,,,3,52,0
17224,note_on,,,,,8,0,4,,,,,3,49,64
17269,note_on,,,,,225,0,2,,,,,1,64,0
17269,note_on,,,,,105,0,1,,,,,0,68,0
17276,note_on,,,,,52,0,4,,,,,3,49,0
17284,note_on,,,,,8,0,4,,,,,3,46,64
17284,note_on,,,,,15,0,1,,,,,0,67,64
17284,note_on,,,,,15,0,2,,,,,1,61,64
17336,note_on,,,,,52,0,4,,,,,3,46,0
17344,note_on,,,,,8,0,4,,,,,3,47,64
17389,note_on,,,,,105,0,1,,,,,0,67,0
17396,note_on,,,,,52,0,4,,,,,3,47,0
17404,note_on,,,,,495,0,3,,,,,2,64,64
17404,note_on,,,,,8,0,4,,,,,3,49,64
17456,note_on,,,,,52,0,4,,,,,3,49,0
17464,note_on,,,,,8,0,4,,,,,3,46,64
17509,note_on,,,,,105,0,3,,,,,2,64,0
17509,note_on,,,,,225,0,2,,,,,1,61,0
17516,note_on,,,,,52,0,4,,,,,3,46,0
17524,note_on,,,,,8,0,4,,,,,3,43,64
17524,note_on,,,,,15,0,2,,,,,1,70,64
17524,note_on,,,,,15,0,3,,,,,2,63,64
17576,note_on,,,,,52,0,4,,,,,3,43,0
17584,note_on,,,,,8,0,4,,,,,3,44,64
17629,note_on,,,,,105,0,3,,,,,2,63,0
17636,note_on,,,,,52,0,4,,,,,3,44,0
17644,note_on,,,,,8,0,4,,,,,3,46,64
17644,note_on,,,,,255,0,1,,,,,0,68,64
17644,note_on,,,,,15,0,3,,,,,2,61,64
17696,note_on,,,,,52,0,1,,,,,0,68,0
17704,note_on,,,,,8,0,1,,,,,0,67,64
17749,note_on,,,,,225,0,2,,,,,1,70,0
17749,note_on,,,,,105,0,3,,,,,2,61,0
17756,note_on,,,,,52,0,1,,,,,0,67,0
17764,note_on,,,,,15,0,2,,,,,1,71,64
17764,note_on,,,,,15,0,3,,,,,2,63,64
17764,note_on,,,,,8,0,1,,,,,0,68,64
17816,note_on,,,,,172,0,4,,,,,3,46,0
17824,note_on,,,,,8,0,4,,,,,3,44,64
17869,note_on,,,,,105,0,1,,,,,0,68,0
17876,note_on,,,,,52,0,4,,,,,3,44,0
17884,note_on,,,,,8,0,4,,,,,3,46,64
17936,note_on,,,,,52,0,4,,,,,3,46,0
17944,note_on,,,,,8,0,4,,,,,3,47,64
17989,note_on,,,,,225,0,3,,,,,2,63,0
17996,note_on,,,,,52,0,4,,,,,3,47,0
18004,note_on,,,,,8,0,4,,,,,3,49,64
18004,note_on,,,,,15,0,3,,,,,2,64,64
18056,note_on,,,,,292,0,2,,,,,1,71,0
18064,note_on,,,,,8,0,2,,,,,1,71,64
18116,note_on,,,,,52,0,2,,,,,1,71,0
18124,note_on,,,,,8,0,2,,,,,1,70,64
18176,note_on,,,,,52,0,2,,,,,1,70,0
18184,note_on,,,,,8,0,2,,,,,1,68,64
18229,note_on,,,,,225,0,3,,,,,2,64,0
18236,note_on,,,,,52,0,2,,,,,1,68,0
18244,note_on,,,,,8,0,2,,,,,1,66,64
18244,note_on,,,,,15,0,3,,,,,2,63,64
18296,note_on,,,,,52,0,3,,,,,2,63,0
18296,note_on,,,,,292,0,4,,,,,3,49,0
18304,note_on,,,,,8,0,3,,,,,2,61,64
18304,note_on,,,,,8,0,4,,,,,3,42,64
18356,note_on,,,,,52,0,3,,,,,2,61,0
18356,note_on,,,,,52,0,4,,,,,3,42,0
18364,note_on,,,,,8,0,3,,,,,2,59,64
18364,note_on,,,,,8,0,4,,,,,3,44,64
18416,note_on,,,,,52,0,3,,,,,2,59,0
18416,note_on,,,,,52,0,4,,,,,3,44,0
18424,note_on,,,,,8,0,3,,,,,2,61,64
18424,note_on,,,,,8,0,4,,,,,3,46,64
18476,note_on,,,,,52,0,4,,,,,3,46,0
18476,note_on,,,,,52,0,3,,,,,2,61,0
18484,note_on,,,,,8,0,3,,,,,2,62,64
18484,note_on,,,,,8,0,4,,,,,3,47,64
18536,note_on,,,,,292,0,2,,,,,1,66,0
18544,note_on,,,,,8,0,2,,,,,1,69,64
18596,note_on,,,,,52,0,2,,,,,1,69,0
18604,note_on,,,,,8,0,2,,,,,1,68,64
18656,note_on,,,,,52,0,2,,,,,1,68,0
18664,note_on,,,,,8,0,2,,,,,1,66,64
18709,note_on,,,,,225,0,3,,,,,2,62,0
18716,note_on,,,,,52,0,2,,,,,1,66,0
18724,note_on,,,,,8,0,2,,,,,1,65,64
18724,note_on,,,,,15,0,3,,,,,2,61,64
18776,note_on,,,,,52,0,2,,,,,1,65,0
18776,note_on,,,,,292,0,4,,,,,3,47,0
18784,note_on,,,,,8,0,2,,,,,1,66,64
18784,note_on,,,,,8,0,4,,,,,3,46,64
18836,note_on,,,,,52,0,2,,,,,1,66,0
18836,note_on,,,,,52,0,4,,,,,3,46,0
18844,note_on,,,,,8,0,4,,,,,3,47,64
18844,note_on,,,,,8,0,2,,,,,1,68,64
18896,note_on,,,,,52,0,2,,,,,1,68,0
18896,note_on,,,,,52,0,4,,,,,3,47,0
18904,note_on,,,,,8,0,4,,,,,3,49,64
18904,note_on,,,,,8,0,2,,,,,1,65,64
18956,note_on,,,,,52,0,2,,,,,1,65,0
18956,note_on,,,,,52,0,4,,,,,3,49,0
18964,note_on,,,,,8,0,4,,,,,3,51,64
18964,note_on,,,,,8,0,2,,,,,1,66,64
19016,note_on,,,,,292,0,3,,,,,2,61,0
19024,note_on,,,,,8,0,3,,,,,2,59,64
19069,note_on,,,,,105,0,4,,,,,3,51,0
19076,note_on,,,,,52,0,3,,,,,2,59,0
19084,note_on,,,,,15,0,4,,,,,3,49,64
19084,note_on,,,,,8,0,3,,,,,2,58,64
19136,note_on,,,,,52,0,3,,,,,2,58,0
19144,note_on,,,,,8,0,3,,,,,2,59,64
19189,note_on,,,,,105,0,4,,,,,3,49,0
19196,note_on,,,,,52,0,3,,,,,2,59,0
19204,note_on,,,,,8,0,3,,,,,2,56,64
19204,note_on,,,,,15,0,4,,,,,3,47,64
19256,note_on,,,,,52,0,4,,,,,3,47,0
19264,note_on,,,,,8,0,4,,,,,3,44,64
19316,note_on,,,,,52,0,4,,,,,3,44,0
19324,note_on,,,,,8,0,4,,,,,3,46,64
19376,note_on,,,,,52,0,4,,,,,3,46,0
19384,note_on,,,,,8,0,4,,,,,3,47,64
19429,note_on,,,,,465,0,2,,,,,1,66,0
19436,note_on,,,,,52,0,4,,,,,3,47,0
19444,note_on,,,,,8,0,4,,,,,3,49,64
19444,note_on,,,,,15,0,2,,,,,1,65,64
19496,note_on,,,,,292,0,3,,,,,2,56,0
19504,note_on,,,,,8,0,3,,,,,2,56,64
19549,note_on,,,,,105,0,4,,,,,3,49,0
19556,note_on,,,,,52,0,3,,,,,2,56,0
19564,note_on,,,,,15,0,4,,,,,3,47,64
19564,note_on,,,,,8,0,3,,,,,2,58,64
19616,note_on,,,,,52,0,3,,,,,2,58,0
19624,note_on,,,,,8,0,3,,,,,2,59,64
19669,note_on,,,,,225,0,2,,,,,1,65,0
19676,note_on,,,,,52,0,3,,,,,2,59,0
19684,note_on,,,,,8,0,3,,,,,2,61,64
19684,note_on,,,,,15,0,2,,,,,1,66,64
19684,note_on,,,,,1815,0,1,,,,,0,66,64
19736,note_on,,,,,172,0,4,,,,,3,47,0
19744,note_on,,,,,8,0,4,,,,,3,47,64
19796,note_on,,,,,52,0,4,,,,,3,47,0
19804,note_on,,,,,8,0,4,,,,,3,46,64
19856,note_on,,,,,52,0,4,,,,,3,46,0
19864,note_on,,,,,8,0,4,,,,,3,44,64
19909,note_on,,,,,225,0,2,,,,,1,66,0
19909,note_on,,,,,225,0,1,,,,,0,66,0
19916,note_on,,,,,52,0,4,,,,,3,44,0
19924,note_on,,,,,15,0,1,,,,,0,70,64
19924,note_on,,,,,8,0,4,,,,,3,42,64
19976,note_on,,,,,292,0,3,,,,,2,61,0
19984,note_on,,,,,8,0,3,,,,,2,64,64
20029,note_on,,,,,105,0,4,,,,,3,42,0
20036,note_on,,,,,52,0,3,,,,,2,64,0
20044,note_on,,,,,8,0,3,,,,,2,63,64
20096,note_on,,,,,52,0,3,,,,,2,63,0
20104,note_on,,,,,8,0,3,,,,,2,61,64
20149,note_on,,,,,225,0,1,,,,,0,70,0
20156,note_on,,,,,52,0,3,,,,,2,61,0
20164,note_on,,,,,8,0,3,,,,,2,59,64
20164,note_on,,,,,15,0,1,,,,,0,75,64
20224,note_on,,,,,195,0,4,,,,,3,51,64
20276,note_on,,,,,52,0,4,,,,,3,51,0
20284,note_on,,,,,8,0,4,,,,,3,53,64
20284,note_on,,,,,375,0,2,,,,,1,71,64
20336,note_on,,,,,52,0,4,,,,,3,53,0
20336,note_on,,,,,52,0,2,,,,,1,71,0
20344,note_on,,,,,8,0,4,,,,,3,55,64
20344,note_on,,,,,8,0,2,,,,,1,70,64
20389,note_on,,,,,225,0,3,,,,,2,59,0
20389,note_on,,,,,225,0,1,,,,,0,75,0
20396,note_on,,,,,52,0,2,,,,,1,70,0
20396,note_on,,,,,52,0,4,,,,,3,55,0
20404,note_on,,,,,15,0,1,,,,,0,71,64
20404,note_on,,,,,8,0,2,,,,,1,68,64
20404,note_on,,,,,8,0,4,,,,,3,56,64
20456,note_on,,,,,52,0,2,,,,,1,68,0
20456,note_on,,,,,52,0,4,,,,,3,56,0
20464,note_on,,,,,8,0,2,,,,,1,70,64
20464,note_on,,,,,8,0,4,,,,,3,55,64
20516,note_on,,,,,52,0,4,,,,,3,55,0
20516,note_on,,,,,52,0,2,,,,,1,70,0
20524,note_on,,,,,8,0,4,,,,,3,56,64
20524,note_on,,,,,8,0,2,,,,,1,71,64
20576,note_on,,,,,52,0,2,,,,,1,71,0
20584,note_on,,,,,8,0,2,,,,,1,68,64
20629,note_on,,,,,225,0,1,,,,,0,71,0
20636,note_on,,,,,52,0,2,,,,,1,68,0
20644,note_on,,,,,8,0,2,,,,,1,65,64
20644,note_on,,,,,15,0,1,,,,,0,68,64
20696,note_on,,,,,52,0,2,,,,,1,65,0
20704,note_on,,,,,8,0,2,,,,,1,66,64
20749,note_on,,,,,225,0,4,,,,,3,56,0
20756,note_on,,,,,52,0,2,,,,,1,66,0
20764,note_on,,,,,8,0,2,,,,,1,68,64
20764,note_on,,,,,15,0,4,,,,,3,56,64
20764,note_on,,,,,375,0,3,,,,,2,59,64
20816,note_on,,,,,52,0,2,,,,,1,68,0
20824,note_on,,,,,8,0,2,,,,,1,65,64
20869,note_on,,,,,225,0,1,,,,,0,68,0
20869,note_on,,,,,105,0,3,,,,,2,59,0
20876,note_on,,,,,52,0,2,,,,,1,65,0
20884,note_on,,,,,8,0,2,,,,,1,62,64
20884,note_on,,,,,15,0,1,,,,,0,77,64
20884,note_on,,,,,15,0,3,,,,,2,58,64
20936,note_on,,,,,52,0,2,,,,,1,62,0
20944,note_on,,,,,8,0,2,,,,,1,63,64
20989,note_on,,,,,225,0,4,,,,,3,56,0
20996,note_on,,,,,52,0,2,,,,,1,63,0
21004,note_on,,,,,15,0,4,,,,,3,50,64
21004,note_on,,,,,8,0,2,,,,,1,65,64
21049,note_on,,,,,165,0,3,,,,,2,58,0
21064,note_on,,,,,15,0,3,,,,,2,56,64
21109,note_on,,,,,225,0,1,,,,,0,77,0
21109,note_on,,,,,105,0,4,,,,,3,50,0
21116,note_on,,,,,52,0,3,,,,,2,56,0
21124,note_on,,,,,15,0,1,,,,,0,78,64
21124,note_on,,,,,8,0,3,,,,,2,54,64
21124,note_on,,,,,15,0,4,,,,,3,51,64
21176,note_on,,,,,172,0,2,,,,,1,65,0
21184,note_on,,,,,8,0,2,,,,,1,63,64
21229,note_on,,,,,105,0,4,,,,,3,51,0
21229,note_on,,,,,105,0,3,,,,,2,54,0
21236,note_on,,,,,52,0,2,,,,,1,63,0
21244,note_on,,,,,8,0,2,,,,,1,65,64
21296,note_on,,,,,52,0,2,,,,,1,65,0
21304,note_on,,,,,8,0,2,,,,,1,66,64
21356,note_on,,,,,52,0,2,,,,,1,66,0
21364,note_on,,,,,8,0,2,,,,,1,68,64
21416,note_on,,,,,292,0,1,,,,,0,78,0
21424,note_on,,,,,8,0,1,,,,,0,77,64
21476,note_on,,,,,52,0,1,,,,,0,77,0
21484,note_on,,,,,8,0,1,,,,,0,78,64
21536,note_on,,,,,52,0,1,,,,,0,78,0
21544,note_on,,,,,8,0,1,,,,,0,80,64
21596,note_on,,,,,52,0,1,,,,,0,80,0
21604,note_on,,,,,8,0,1,,,,,0,82,64
21656,note_on,,,,,292,0,2,,,,,1,68,0
21664,note_on,,,,,8,0,2,,,,,1,66,64
21716,note_on,,,,,52,0,2,,,,,1,66,0
21724,note_on,,,,,8,0,2,,,,,1,68,64
21776,note_on,,,,,52,0,2,,,,,1,68,0
21784,note_on,,,,,8,0,2,,,,,1,70,64
21836,note_on,,,,,52,0,2,,,,,1,70,0
21844,note_on,,,,,8,0,2,,,,,1,71,64
21896,note_on,,,,,292,0,1,,,,,0,82,0
21904,note_on,,,,,8,0,1,,,,,0,82,64
21956,note_on,,,,,52,0,1,,,,,0,82,0
21964,note_on,,,,,8,0,1,,,,,0,80,64
22016,note_on,,,,,52,0,1,,,,,0,80,0
22024,note_on,,,,,8,0,1,,,,,0,78,64
22076,note_on,,,,,52,0,1,,,,,0,78,0
22084,note_on,,,,,8,0,1,,,,,0,77,64
22136,note_on,,,,,292,0,2,,,,,1,71,0
22144,note_on,,,,,8,0,2,,,,,1,71,64
22189,note_on,,,,,105,0,1,,,,,0,77,0
22196,note_on,,,,,52,0,2,,,,,1,71,0
22204,note_on,,,,,8,0,2,,,,,1,70,64
22204,note_on,,,,,15,0,1,,,,,0,79,64
22256,note_on,,,,,52,0,2,,,,,1,70,0
22256,note_on,,,,,52,0,1,,,,,0,79,0
22264,note_on,,,,,8,0,2,,,,,1,68,64
22264,note_on,,,,,8,0,1,,,,,0,80,64
22316,note_on,,,,,52,0,1,,,,,0,80,0
22316,note_on,,,,,52,0,2,,,,,1,68,0
22324,note_on,,,,,8,0,2,,,,,1,70,64
22324,note_on,,,,,8,0,1,,,,,0,79,64
22376,note_on,,,,,52,0,2,,,,,1,70,0
22376,note_on,,,,,52,0,1,,,,,0,79,0
22384,note_on,,,,,8,0,1,,,,,0,80,64
22384,note_on,,,,,8,0,2,,,,,1,71,64
22436,note_on,,,,,52,0,1,,,,,0,80,0
22436,note_on,,,,,52,0,2,,,,,1,71,0
22444,note_on,,,,,8,0,2,,,,,1,73,64
22444,note_on,,,,,8,0,1,,,,,0,82,64
22496,note_on,,,,,52,0,1,,,,,0,82,0
22504,note_on,,,,,8,0,1,,,,,0,79,64
22556,note_on,,,,,52,0,1,,,,,0,79,0
22564,note_on,,,,,8,0,1,,,,,0,75,64
22564,note_on,,,,,1335,0,4,,,,,3,44,64
22616,note_on,,,,,172,0,2,,,,,1,73,0
22624,note_on,,,,,8,0,2,,,,,1,73,64
22676,note_on,,,,,52,0,2,,,,,1,73,0
22684,note_on,,,,,8,0,2,,,,,1,71,64
22736,note_on,,,,,52,0,2,,,,,1,71,0
22744,note_on,,,,,8,0,2,,,,,1,70,64
22789,note_on,,,,,225,0,1,,,,,0,75,0
22789,note_on,,,,,225,0,4,,,,,3,44,0
22796,note_on,,,,,52,0,2,,,,,1,70,0
22804,note_on,,,,,15,0,4,,,,,3,47,64
22804,note_on,,,,,8,0,2,,,,,1,68,64
22856,note_on,,,,,52,0,2,,,,,1,68,0
22864,note_on,,,,,8,0,2,,,,,1,70,64
22916,note_on,,,,,52,0,2,,,,,1,70,0
22924,note_on,,,,,8,0,2,,,,,1,71,64
22976,note_on,,,,,52,0,2,,,,,1,71,0
22984,note_on,,,,,8,0,2,,,,,1,68,64
23029,note_on,,,,,225,0,4,,,,,3,47,0
23036,note_on,,,,,52,0,2,,,,,1,68,0
23044,note_on,,,,,15,0,4,,,,,3,52,64
23044,note_on,,,,,8,0,2,,,,,1,61,64
23096,note_on,,,,,52,0,2,,,,,1,61,0
23104,note_on,,,,,8,0,2,,,,,1,60,64
23156,note_on,,,,,52,0,2,,,,,1,60,0
23164,note_on,,,,,375,0,1,,,,,0,80,64
23164,note_on,,,,,8,0,2,,,,,1,61,64
23216,note_on,,,,,52,0,1,,,,,0,80,0
23224,note_on,,,,,8,0,1,,,,,0,78,64
23269,note_on,,,,,225,0,4,,,,,3,52,0
23276,note_on,,,,,52,0,1,,,,,0,78,0
23284,note_on,,,,,8,0,1,,,,,0,76,64
23284,note_on,,,,,15,0,4,,,,,3,49,64
23336,note_on,,,,,52,0,1,,,,,0,76,0
23344,note_on,,,,,8,0,1,,,,,0,78,64
23389,note_on,,,,,225,0,2,,,,,1,61,0
23396,note_on,,,,,52,0,1,,,,,0,78,0
23404,note_on,,,,,8,0,1,,,,,0,80,64
23404,note_on,,,,,15,0,2,,,,,1,68,64
23456,note_on,,,,,52,0,1,,,,,0,80,0
23464,note_on,,,,,8,0,1,,,,,0,76,64
23509,note_on,,,,,225,0,4,,,,,3,49,0
23516,note_on,,,,,52,0,1,,,,,0,76,0
23524,note_on,,,,,8,0,1,,,,,0,73,64
23524,note_on,,,,,15,0,4,,,,,3,46,64
23576,note_on,,,,,52,0,1,,,,,0,73,0
23584,note_on,,,,,8,0,1,,,,,0,75,64
23629,note_on,,,,,225,0,2,,,,,1,68,0
23636,note_on,,,,,52,0,1,,,,,0,75,0
23644,note_on,,,,,15,0,2,,,,,1,67,64
23644,note_on,,,,,8,0,1,,,,,0,76,64
23696,note_on,,,,,52,0,1,,,,,0,76,0
23704,note_on,,,,,8,0,1,,,,,0,73,64
23749,note_on,,,,,105,0,2,,,,,1,67,0
23749,note_on,,,,,225,0,4,,,,,3,46,0
23756,note_on,,,,,52,0,1,,,,,0,73,0
23764,note_on,,,,,8,0,1,,,,,0,70,64
23764,note_on,,,,,15,0,4,,,,,3,55,64
23816,note_on,,,,,52,0,1,,,,,0,70,0
23824,note_on,,,,,8,0,1,,,,,0,71,64
23876,note_on,,,,,52,0,1,,,,,0,71,0
23884,note_on,,,,,8,0,1,,,,,0,73,64
23944,note_on,,,,,195,0,2,,,,,1,70,64
23989,note_on,,,,,225,0,4,,,,,3,55,0
23996,note_on,,,,,52,0,2,,,,,1,70,0
24004,note_on,,,,,8,0,2,,,,,1,63,64
24004,note_on,,,,,15,0,4,,,,,3,56,64
24056,note_on,,,,,172,0,1,,,,,0,73,0
24064,note_on,,,,,8,0,1,,,,,0,70,64
24116,note_on,,,,,52,0,1,,,,,0,70,0
24124,note_on,,,,,8,0,1,,,,,0,71,64
24169,note_on,,,,,165,0,2,,,,,1,63,0
24184,note_on,,,,,15,0,2,,,,,1,66,64
24236,note_on,,,,,52,0,2,,,,,1,66,0
24244,note_on,,,,,8,0,2,,,,,1,65,64
24296,note_on,,,,,52,0,2,,,,,1,65,0
24296,note_on,,,,,292,0,4,,,,,3,56,0
24304,note_on,,,,,8,0,2,,,,,1,68,64
24304,note_on,,,,,8,0,4,,,,,3,54,64
24356,note_on,,,,,52,0,2,,,,,1,68,0
24356,note_on,,,,,52,0,4,,,,,3,54,0
24364,note_on,,,,,8,0,4,,,,,3,53,64
24364,note_on,,,,,8,0,2,,,,,1,61,64
24409,note_on,,,,,285,0,1,,,,,0,71,0
24416,note_on,,,,,52,0,4,,,,,3,53,0
24424,note_on,,,,,8,0,4,,,,,3,56,64
24424,note_on,,,,,15,0,1,,,,,0,71,64
24476,note_on,,,,,52,0,4,,,,,3,56,0
24476,note_on,,,,,52,0,1,,,,,0,71,0
24484,note_on,,,,,8,0,4,,,,,3,54,64
24484,note_on,,,,,8,0,1,,,,,0,71,64
24536,note_on,,,,,52,0,1,,,,,0,71,0
24544,note_on,,,,,8,0,1,,,,,0,68,64
24596,note_on,,,,,52,0,1,,,,,0,68,0
24604,note_on,,,,,8,0,1,,,,,0,70,64
24649,note_on,,,,,285,0,2,,,,,1,61,0
24664,note_on,,,,,15,0,2,,,,,1,64,64
24716,note_on,,,,,52,0,2,,,,,1,64,0
24724,note_on,,,,,8,0,2,,,,,1,63,64
24776,note_on,,,,,292,0,4,,,,,3,54,0
24776,note_on,,,,,52,0,2,,,,,1,63,0
24784,note_on,,,,,8,0,2,,,,,1,66,64
24784,note_on,,,,,8,0,4,,,,,3,52,64
24836,note_on,,,,,52,0,2,,,,,1,66,0
24836,note_on,,,,,52,0,4,,,,,3,52,0
24844,note_on,,,,,8,0,4,,,,,3,51,64
24844,note_on,,,,,8,0,2,,,,,1,59,64
24889,note_on,,,,,285,0,1,,,,,0,70,0
24896,note_on,,,,,52,0,4,,,,,3,51,0
24904,note_on,,,,,8,0,4,,,,,3,54,64
24904,note_on,,,,,15,0,1,,,,,0,69,64
24956,note_on,,,,,52,0,1,,,,,0,69,0
24956,note_on,,,,,52,0,4,,,,,3,54,0
24964,note_on,,,,,8,0,1,,,,,0,69,64
24964,note_on,,,,,8,0,4,,,,,3,52,64
24964,note_on,,,,,3735,0,3,,,,,2,52,64
25016,note_on,,,,,52,0,1,,,,,0,69,0
25024,note_on,,,,,8,0,1,,,,,0,67,64
25076,note_on,,,,,52,0,1,,,,,0,67,0
25084,note_on,,,,,8,0,1,,,,,0,68,64
25129,note_on,,,,,285,0,2,,,,,1,59,0
25129,note_on,,,,,165,0,4,,,,,3,52,0
25144,note_on,,,,,15,0,2,,,,,1,60,64
25144,note_on,,,,,15,0,4,,,,,3,51,64
25189,note_on,,,,,225,0,3,,,,,2,52,0
25196,note_on,,,,,52,0,2,,,,,1,60,0
25196,note_on,,,,,52,0,4,,,,,3,51,0
25204,note_on,,,,,15,0,3,,,,,2,56,64
25204,note_on,,,,,8,0,2,,,,,1,64,64
25204,note_on,,,,,8,0,4,,,,,3,49,64
25256,note_on,,,,,52,0,4,,,,,3,49,0
25256,note_on,,,,,172,0,1,,,,,0,68,0
25264,note_on,,,,,8,0,4,,,,,3,51,64
25264,note_on,,,,,8,0,1,,,,,0,72,64
25316,note_on,,,,,52,0,4,,,,,3,51,0
25316,note_on,,,,,52,0,1,,,,,0,72,0
25324,note_on,,,,,8,0,4,,,,,3,52,64
25324,note_on,,,,,8,0,1,,,,,0,73,64
25369,note_on,,,,,165,0,2,,,,,1,64,0
25376,note_on,,,,,52,0,4,,,,,3,52,0
25384,note_on,,,,,15,0,2,,,,,1,65,64
25384,note_on,,,,,8,0,4,,,,,3,49,64
25429,note_on,,,,,225,0,3,,,,,2,56,0
25436,note_on,,,,,52,0,2,,,,,1,65,0
25436,note_on,,,,,52,0,4,,,,,3,49,0
25444,note_on,,,,,8,0,2,,,,,1,66,64
25444,note_on,,,,,15,0,3,,,,,2,61,64
25444,note_on,,,,,8,0,4,,,,,3,45,64
25496,note_on,,,,,52,0,4,,,,,3,45,0
25504,note_on,,,,,8,0,4,,,,,3,49,64
25549,note_on,,,,,225,0,1,,,,,0,73,0
25549,note_on,,,,,105,0,2,,,,,1,66,0
25556,note_on,,,,,52,0,4,,,,,3,49,0
25564,note_on,,,,,8,0,4,,,,,3,54,64
25564,note_on,,,,,15,0,1,,,,,0,73,64
25564,note_on,,,,,15,0,2,,,,,1,69,64
25616,note_on,,,,,52,0,2,,,,,1,69,0
25624,note_on,,,,,8,0,2,,,,,1,68,64
25669,note_on,,,,,105,0,1,,,,,0,73,0
25669,note_on,,,,,225,0,3,,,,,2,61,0
25676,note_on,,,,,52,0,2,,,,,1,68,0
25684,note_on,,,,,15,0,1,,,,,0,75,64
25684,note_on,,,,,15,0,3,,,,,2,57,64
25684,note_on,,,,,8,0,2,,,,,1,66,64
25736,note_on,,,,,52,0,2,,,,,1,66,0
25744,note_on,,,,,8,0,2,,,,,1,68,64
25789,note_on,,,,,225,0,4,,,,,3,54,0
25796,note_on,,,,,52,0,2,,,,,1,68,0
25804,note_on,,,,,15,0,4,,,,,3,48,64
25804,note_on,,,,,8,0,2,,,,,1,69,64
25856,note_on,,,,,52,0,2,,,,,1,69,0
25864,note_on,,,,,8,0,2,,,,,1,66,64
25909,note_on,,,,,225,0,3,,,,,2,57,0
25916,note_on,,,,,52,0,2,,,,,1,66,0
25924,note_on,,,,,15,0,3,,,,,2,54,64
25924,note_on,,,,,8,0,2,,,,,1,63,64
25976,note_on,,,,,52,0,2,,,,,1,63,0
25976,note_on,,,,,172,0,4,,,,,3,48,0
25984,note_on,,,,,8,0,2,,,,,1,64,64
25984,note_on,,,,,8,0,4,,,,,3,49,64
26029,note_on,,,,,345,0,1,,,,,0,75,0
26036,note_on,,,,,52,0,2,,,,,1,64,0
26036,note_on,,,,,52,0,4,,,,,3,49,0
26044,note_on,,,,,8,0,2,,,,,1,66,64
26044,note_on,,,,,15,0,1,,,,,0,69,64
26044,note_on,,,,,8,0,4,,,,,3,51,64
26096,note_on,,,,,52,0,4,,,,,3,51,0
26096,note_on,,,,,52,0,2,,,,,1,66,0
26104,note_on,,,,,8,0,4,,,,,3,48,64
26104,note_on,,,,,8,0,2,,,,,1,63,64
26149,note_on,,,,,225,0,3,,,,,2,54,0
26156,note_on,,,,,52,0,4,,,,,3,48,0
26156,note_on,,,,,52,0,2,,,,,1,63,0
26164,note_on,,,,,8,0,4,,,,,3,44,64
26164,note_on,,,,,8,0,2,,,,,1,60,64
26164,note_on,,,,,15,0,3,,,,,2,63,64
26216,note_on,,,,,52,0,4,,,,,3,44,0
26216,note_on,,,,,52,0,2,,,,,1,60,0
26224,note_on,,,,,8,0,4,,,,,3,46,64
26224,note_on,,,,,8,0,2,,,,,1,61,64
26269,note_on,,,,,225,0,1,,,,,0,69,0
26276,note_on,,,,,52,0,4,,,,,3,46,0
26276,note_on,,,,,52,0,2,,,,,1,61,0
26284,note_on,,,,,15,0,1,,,,,0,68,64
26284,note_on,,,,,8,0,2,,,,,1,63,64
26284,note_on,,,,,8,0,4,,,,,3,48,64
26336,note_on,,,,,52,0,4,,,,,3,48,0
26336,note_on,,,,,52,0,1,,,,,0,68,0
26344,note_on,,,,,8,0,1,,,,,0,66,64
26344,note_on,,,,,8,0,4,,,,,3,44,64
26389,note_on,,,,,225,0,3,,,,,2,63,0
26396,note_on,,,,,52,0,4,,,,,3,44,0
26396,note_on,,,,,52,0,1,,,,,0,66,0
26404,note_on,,,,,15,0,3,,,,,2,64,64
26404,note_on,,,,,8,0,4,,,,,3,49,64
26404,note_on,,,,,8,0,1,,,,,0,64,64
26456,note_on,,,,,52,0,4,,,,,3,49,0
26464,note_on,,,,,8,0,4,,,,,3,51,64
26509,note_on,,,,,105,0,1,,,,,0,64,0
26509,note_on,,,,,225,0,2,,,,,1,63,0
26516,note_on,,,,,52,0,4,,,,,3,51,0
26524,note_on,,,,,15,0,1,,,,,0,68,64
26524,note_on,,,,,8,0,4,,,,,3,52,64
26524,note_on,,,,,15,0,2,,,,,1,61,64
26576,note_on,,,,,52,0,4,,,,,3,52,0
26584,note_on,,,,,8,0,4,,,,,3,49,64
26629,note_on,,,,,105,0,1,,,,,0,68,0
26636,note_on,,,,,52,0,4,,,,,3,49,0
26644,note_on,,,,,15,0,1,,,,,0,73,64
26644,note_on,,,,,8,0,4,,,,,3,45,64
26696,note_on,,,,,52,0,4,,,,,3,45,0
26704,note_on,,,,,8,0,4,,,,,3,47,64
26749,note_on,,,,,225,0,2,,,,,1,61,0
26749,note_on,,,,,345,0,3,,,,,2,64,0
26756,note_on,,,,,52,0,4,,,,,3,47,0
26764,note_on,,,,,15,0,2,,,,,1,64,64
26764,note_on,,,,,8,0,4,,,,,3,49,64
26764,note_on,,,,,15,0,3,,,,,2,61,64
26816,note_on,,,,,52,0,4,,,,,3,49,0
26824,note_on,,,,,8,0,4,,,,,3,45,64
26869,note_on,,,,,105,0,3,,,,,2,61,0
26869,note_on,,,,,105,0,2,,,,,1,64,0
26876,note_on,,,,,52,0,4,,,,,3,45,0
26884,note_on,,,,,15,0,3,,,,,2,66,64
26884,note_on,,,,,15,0,2,,,,,1,69,64
26884,note_on,,,,,8,0,4,,,,,3,42,64
26936,note_on,,,,,52,0,4,,,,,3,42,0
26944,note_on,,,,,8,0,4,,,,,3,44,64
26989,note_on,,,,,345,0,1,,,,,0,73,0
26996,note_on,,,,,52,0,4,,,,,3,44,0
27004,note_on,,,,,8,0,4,,,,,3,45,64
27004,note_on,,,,,15,0,1,,,,,0,78,64
27056,note_on,,,,,52,0,1,,,,,0,78,0
27056,note_on,,,,,52,0,4,,,,,3,45,0
27064,note_on,,,,,8,0,1,,,,,0,76,64
27064,note_on,,,,,8,0,4,,,,,3,42,64
27109,note_on,,,,,225,0,3,,,,,2,66,0
27109,note_on,,,,,225,0,2,,,,,1,69,0
27116,note_on,,,,,52,0,4,,,,,3,42,0
27116,note_on,,,,,52,0,1,,,,,0,76,0
27124,note_on,,,,,8,0,4,,,,,3,39,64
27124,note_on,,,,,8,0,1,,,,,0,78,64
27176,note_on,,,,,52,0,4,,,,,3,39,0
27184,note_on,,,,,8,0,4,,,,,3,40,64
27229,note_on,,,,,105,0,1,,,,,0,78,0
27236,note_on,,,,,52,0,4,,,,,3,40,0
27244,note_on,,,,,135,0,2,,,,,1,69,64
27244,note_on,,,,,135,0,3,,,,,2,66,64
27244,note_on,,,,,8,0,4,,,,,3,42,64
27244,note_on,,,,,15,0,1,,,,,0,75,64
27296,note_on,,,,,52,0,4,,,,,3,42,0
27304,note_on,,,,,8,0,4,,,,,3,39,64
27349,note_on,,,,,105,0,3,,,,,2,66,0
27349,note_on,,,,,105,0,1,,,,,0,75,0
27356,note_on,,,,,52,0,4,,,,,3,39,0
27364,note_on,,,,,8,0,4,,,,,3,44,64
27364,note_on,,,,,15,0,1,,,,,0,71,64
27364,note_on,,,,,15,0,3,,,,,2,63,64
27416,note_on,,,,,52,0,4,,,,,3,44,0
27424,note_on,,,,,8,0,4,,,,,3,42,64
27469,note_on,,,,,105,0,3,,,,,2,63,0
27469,note_on,,,,,105,0,1,,,,,0,71,0
27469,note_on,,,,,225,0,2,,,,,1,69,0
27476,note_on,,,,,52,0,4,,,,,3,42,0
27484,note_on,,,,,15,0,1,,,,,0,73,64
27484,note_on,,,,,15,0,2,,,,,1,68,64
27484,note_on,,,,,8,0,4,,,,,3,40,64
27484,note_on,,,,,15,0,3,,,,,2,64,64
27536,note_on,,,,,52,0,4,,,,,3,40,0
27536,note_on,,,,,52,0,1,,,,,0,73,0
27536,note_on,,,,,52,0,2,,,,,1,68,0
27544,note_on,,,,,8,0,1,,,,,0,75,64
27544,note_on,,,,,8,0,2,,,,,1,69,64
27544,note_on,,,,,8,0,4,,,,,3,42,64
27589,note_on,,,,,105,0,3,,,,,2,64,0
27596,note_on,,,,,52,0,1,,,,,0,75,0
27596,note_on,,,,,52,0,4,,,,,3,42,0
27596,note_on,,,,,52,0,2,,,,,1,69,0
27604,note_on,,,,,8,0,4,,,,,3,44,64
27604,note_on,,,,,8,0,1,,,,,0,76,64
27604,note_on,,,,,8,0,2,,,,,1,71,64
27656,note_on,,,,,52,0,4,,,,,3,44,0
27664,note_on,,,,,8,0,4,,,,,3,42,64
27709,note_on,,,,,105,0,2,,,,,1,71,0
27709,note_on,,,,,105,0,1,,,,,0,76,0
27716,note_on,,,,,52,0,4,,,,,3,42,0
27724,note_on,,,,,15,0,2,,,,,1,66,64
27724,note_on,,,,,15,0,1,,,,,0,69,64
27724,note_on,,,,,8,0,4,,,,,3,44,64
27724,note_on,,,,,135,0,3,,,,,2,61,64
27776,note_on,,,,,52,0,4,,,,,3,44,0
27784,note_on,,,,,8,0,4,,,,,3,45,64
27829,note_on,,,,,105,0,1,,,,,0,69,0
27829,note_on,,,,,105,0,3,,,,,2,61,0
27836,note_on,,,,,52,0,4,,,,,3,45,0
27844,note_on,,,,,8,0,4,,,,,3,47,64
27844,note_on,,,,,15,0,3,,,,,2,59,64
27844,note_on,,,,,15,0,1,,,,,0,68,64
27896,note_on,,,,,172,0,2,,,,,1,66,0
27904,note_on,,,,,8,0,2,,,,,1,63,64
27956,note_on,,,,,52,0,2,,,,,1,63,0
27964,note_on,,,,,8,0,2,,,,,1,64,64
28009,note_on,,,,,165,0,1,,,,,0,68,0
28024,note_on,,,,,15,0,1,,,,,0,69,64
28076,note_on,,,,,52,0,1,,,,,0,69,0
28084,note_on,,,,,8,0,1,,,,,0,66,64
28136,note_on,,,,,172,0,2,,,,,1,64,0
28144,note_on,,,,,8,0,2,,,,,1,61,64
28196,note_on,,,,,52,0,2,,,,,1,61,0
28204,note_on,,,,,8,0,2,,,,,1,63,64
28249,note_on,,,,,405,0,3,,,,,2,59,0
28264,note_on,,,,,15,0,3,,,,,2,57,64
28309,note_on,,,,,225,0,1,,,,,0,66,0
28309,note_on,,,,,465,0,4,,,,,3,47,0
28309,note_on,,,,,105,0,2,,,,,1,63,0
28316,note_on,,,,,52,0,3,,,,,2,57,0
28324,note_on,,,,,15,0,1,,,,,0,64,64
28324,note_on,,,,,8,0,3,,,,,2,56,64
28324,note_on,,,,,15,0,2,,,,,1,64,64
28324,note_on,,,,,15,0,4,,,,,3,52,64
28376,note_on,,,,,52,0,2,,,,,1,64,0
28384,note_on,,,,,8,0,2,,,,,1,71,64
28436,note_on,,,,,52,0,2,,,,,1,71,0
28444,note_on,,,,,8,0,2,,,,,1,76,64
28549,note_on,,,,,225,0,3,,,,,2,56,0
28549,note_on,,,,,225,0,4,,,,,3,52,0
28549,note_on,,,,,225,0,1,,,,,0,64,0
28564,note_on,,,,,15,0,3,,,,,2,59,64
28616,note_on,,,,,172,0,2,,,,,1,76,0
28624,note_on,,,,,8,0,2,,,,,1,73,64
28676,note_on,,,,,52,0,2,,,,,1,73,0
28684,note_on,,,,,135,0,1,,,,,0,83,64
28684,note_on,,,,,8,0,2,,,,,1,75,64
28736,note_on,,,,,52,0,1,,,,,0,83,0
28744,note_on,,,,,8,0,1,,,,,0,81,64
28789,note_on,,,,,225,0,3,,,,,2,59,0
28789,note_on,,,,,105,0,2,,,,,1,75,0
28796,note_on,,,,,52,0,1,,,,,0,81,0
28804,note_on,,,,,8,0,1,,,,,0,80,64
28804,note_on,,,,,15,0,3,,,,,2,64,64
28856,note_on,,,,,52,0,1,,,,,0,80,0
28864,note_on,,,,,8,0,1,,,,,0,81,64
28916,note_on,,,,,52,0,1,,,,,0,81,0
28924,note_on,,,,,8,0,1,,,,,0,83,64
28924,note_on,,,,,135,0,2,,,,,1,68,64
28976,note_on,,,,,52,0,1,,,,,0,83,0
28984,note_on,,,,,8,0,1,,,,,0,80,64
29029,note_on,,,,,225,0,3,,,,,2,64,0
29036,note_on,,,,,52,0,1,,,,,0,80,0
29044,note_on,,,,,8,0,1,,,,,0,76,64
29044,note_on,,,,,15,0,3,,,,,2,61,64
29096,note_on,,,,,52,0,1,,,,,0,76,0
29104,note_on,,,,,8,0,1,,,,,0,78,64
29156,note_on,,,,,52,0,1,,,,,0,78,0
29164,note_on,,,,,8,0,1,,,,,0,80,64
29164,note_on,,,,,0,0,2,,,,,1,64,64
29164,note_on,,,,,240,0,2,,,,,1,68,0
29216,note_on,,,,,52,0,1,,,,,0,80,0
29224,note_on,,,,,8,0,1,,,,,0,76,64
29269,note_on,,,,,225,0,3,,,,,2,61,0
29269,note_on,,,,,105,0,2,,,,,1,64,0
29276,note_on,,,,,52,0,1,,,,,0,76,0
29284,note_on,,,,,8,0,1,,,,,0,73,64
29284,note_on,,,,,15,0,3,,,,,2,58,64
29336,note_on,,,,,52,0,1,,,,,0,73,0
29344,note_on,,,,,8,0,1,,,,,0,75,64
29396,note_on,,,,,52,0,1,,,,,0,75,0
29404,note_on,,,,,135,0,2,,,,,1,73,64
29404,note_on,,,,,8,0,1,,,,,0,76,64
29456,note_on,,,,,52,0,2,,,,,1,73,0
29464,note_on,,,,,8,0,2,,,,,1,71,64
29509,note_on,,,,,225,0,3,,,,,2,58,0
29516,note_on,,,,,52,0,2,,,,,1,71,0
29524,note_on,,,,,8,0,2,,,,,1,70,64
29524,note_on,,,,,15,0,3,,,,,2,67,64
29576,note_on,,,,,52,0,2,,,,,1,70,0
29584,note_on,,,,,8,0,2,,,,,1,71,64
29629,note_on,,,,,225,0,1,,,,,0,76,0
29636,note_on,,,,,52,0,2,,,,,1,71,0
29644,note_on,,,,,15,0,1,,,,,0,75,64
29644,note_on,,,,,8,0,2,,,,,1,73,64
29696,note_on,,,,,52,0,2,,,,,1,73,0
29704,note_on,,,,,8,0,2,,,,,1,70,64
29749,note_on,,,,,225,0,3,,,,,2,67,0
29756,note_on,,,,,52,0,2,,,,,1,70,0
29764,note_on,,,,,8,0,2,,,,,1,71,64
29764,note_on,,,,,15,0,3,,,,,2,68,64
29816,note_on,,,,,52,0,3,,,,,2,68,0
29824,note_on,,,,,8,0,3,,,,,2,66,64
29869,note_on,,,,,225,0,1,,,,,0,75,0
29876,note_on,,,,,52,0,3,,,,,2,66,0
29884,note_on,,,,,15,0,1,,,,,0,80,64
29884,note_on,,,,,8,0,3,,,,,2,65,64
29936,note_on,,,,,52,0,3,,,,,2,65,0
29944,note_on,,,,,8,0,3,,,,,2,63,64
29989,note_on,,,,,225,0,2,,,,,1,71,0
29996,note_on,,,,,52,0,3,,,,,2,63,0
30004,note_on,,,,,8,0,3,,,,,2,62,64
30004,note_on,,,,,15,0,2,,,,,1,70,64
30056,note_on,,,,,52,0,3,,,,,2,62,0
30056,note_on,,,,,172,0,1,,,,,0,80,0
30064,note_on,,,,,8,0,1,,,,,0,78,64
30064,note_on,,,,,8,0,3,,,,,2,63,64
30116,note_on,,,,,52,0,1,,,,,0,78,0
30116,note_on,,,,,52,0,3,,,,,2,63,0
30124,note_on,,,,,8,0,1,,,,,0,80,64
30124,note_on,,,,,8,0,3,,,,,2,65,64
30176,note_on,,,,,52,0,3,,,,,2,65,0
30184,note_on,,,,,8,0,3,,,,,2,62,64
30229,note_on,,,,,105,0,1,,,,,0,80,0
30236,note_on,,,,,52,0,3,,,,,2,62,0
30244,note_on,,,,,15,0,1,,,,,0,78,64
30244,note_on,,,,,8,0,3,,,,,2,63,64
30296,note_on,,,,,292,0,2,,,,,1,70,0
30304,note_on,,,,,8,0,2,,,,,1,76,64
30356,note_on,,,,,52,0,2,,,,,1,76,0
30364,note_on,,,,,8,0,2,,,,,1,75,64
30416,note_on,,,,,52,0,2,,,,,1,75,0
30424,note_on,,,,,8,0,2,,,,,1,73,64
30476,note_on,,,,,52,0,2,,,,,1,73,0
30484,note_on,,,,,8,0,2,,,,,1,72,64
30536,note_on,,,,,52,0,2,,,,,1,72,0
30536,note_on,,,,,292,0,3,,,,,2,63,0
30544,note_on,,,,,8,0,2,,,,,1,73,64
30544,note_on,,,,,8,0,3,,,,,2,64,64
30596,note_on,,,,,52,0,3,,,,,2,64,0
30596,note_on,,,,,52,0,2,,,,,1,73,0
30604,note_on,,,,,8,0,3,,,,,2,66,64
30604,note_on,,,,,8,0,2,,,,,1,75,64
30656,note_on,,,,,52,0,3,,,,,2,66,0
30656,note_on,,,,,52,0,2,,,,,1,75,0
30664,note_on,,,,,8,0,3,,,,,2,63,64
30664,note_on,,,,,8,0,2,,,,,1,72,64
30716,note_on,,,,,52,0,3,,,,,2,63,0
30716,note_on,,,,,52,0,2,,,,,1,72,0
30724,note_on,,,,,8,0,2,,,,,1,68,64
30724,note_on,,,,,8,0,3,,,,,2,64,64
30776,note_on,,,,,52,0,3,,,,,2,64,0
30784,note_on,,,,,8,0,3,,,,,2,63,64
30829,note_on,,,,,585,0,1,,,,,0,78,0
30836,note_on,,,,,52,0,3,,,,,2,63,0
30844,note_on,,,,,15,0,1,,,,,0,76,64
30844,note_on,,,,,8,0,3,,,,,2,61,64
30896,note_on,,,,,52,0,3,,,,,2,61,0
30904,note_on,,,,,8,0,3,,,,,2,59,64
30949,note_on,,,,,225,0,2,,,,,1,68,0
30956,note_on,,,,,52,0,3,,,,,2,59,0
30964,note_on,,,,,8,0,3,,,,,2,58,64
30964,note_on,,,,,15,0,2,,,,,1,67,64
31016,note_on,,,,,52,0,3,,,,,2,58,0
31016,note_on,,,,,172,0,1,,,,,0,76,0
31024,note_on,,,,,8,0,3,,,,,2,59,64
31024,note_on,,,,,8,0,1,,,,,0,75,64
31076,note_on,,,,,52,0,3,,,,,2,59,0
31076,note_on,,,,,52,0,1,,,,,0,75,0
31084,note_on,,,,,8,0,3,,,,,2,61,64
31084,note_on,,,,,8,0,1,,,,,0,76,64
31129,note_on,,,,,165,0,2,,,,,1,67,0
31136,note_on,,,,,52,0,3,,,,,2,61,0
31144,note_on,,,,,8,0,3,,,,,2,58,64
31144,note_on,,,,,15,0,2,,,,,1,73,64
31189,note_on,,,,,105,0,1,,,,,0,76,0
31196,note_on,,,,,52,0,3,,,,,2,58,0
31204,note_on,,,,,15,0,1,,,,,0,75,64
31204,note_on,,,,,8,0,3,,,,,2,59,64
31256,note_on,,,,,112,0,2,,,,,1,73,0
31264,note_on,,,,,8,0,2,,,,,1,73,64
31316,note_on,,,,,52,0,2,,,,,1,73,0
31324,note_on,,,,,8,0,2,,,,,1,71,64
31376,note_on,,,,,52,0,2,,,,,1,71,0
31384,note_on,,,,,8,0,2,,,,,1,70,64
31436,note_on,,,,,52,0,2,,,,,1,70,0
31444,note_on,,,,,8,0,2,,,,,1,68,64
31496,note_on,,,,,52,0,2,,,,,1,68,0
31496,note_on,,,,,292,0,3,,,,,2,59,0
31504,note_on,,,,,8,0,2,,,,,1,70,64
31504,note_on,,,,,8,0,3,,,,,2,61,64
31556,note_on,,,,,52,0,2,,,,,1,70,0
31556,note_on,,,,,52,0,3,,,,,2,61,0
31564,note_on,,,,,8,0,3,,,,,2,63,64
31564,note_on,,,,,8,0,2,,,,,1,71,64
31616,note_on,,,,,52,0,3,,,,,2,63,0
31616,note_on,,,,,52,0,2,,,,,1,71,0
31624,note_on,,,,,8,0,3,,,,,2,59,64
31624,note_on,,,,,8,0,2,,,,,1,68,64
31676,note_on,,,,,52,0,3,,,,,2,59,0
31676,note_on,,,,,52,0,2,,,,,1,68,0
31684,note_on,,,,,8,0,2,,,,,1,65,64
31684,note_on,,,,,8,0,3,,,,,2,61,64
31736,note_on,,,,,52,0,3,,,,,2,61,0
31744,note_on,,,,,8,0,3,,,,,2,59,64
31789,note_on,,,,,585,0,1,,,,,0,75,0
31789,note_on,,,,,105,0,2,,,,,1,65,0
31796,note_on,,,,,52,0,3,,,,,2,59,0
31804,note_on,,,,,15,0,2,,,,,1,67,64
31804,note_on,,,,,15,0,1,,,,,0,73,64
31804,note_on,,,,,8,0,3,,,,,2,58,64
31856,note_on,,,,,52,0,3,,,,,2,58,0
31856,note_on,,,,,52,0,2,,,,,1,67,0
31864,note_on,,,,,8,0,2,,,,,1,68,64
31864,note_on,,,,,8,0,3,,,,,2,56,64
31916,note_on,,,,,52,0,3,,,,,2,56,0
31916,note_on,,,,,52,0,2,,,,,1,68,0
31924,note_on,,,,,8,0,3,,,,,2,55,64
31924,note_on,,,,,8,0,2,,,,,1,70,64
31976,note_on,,,,,172,0,1,,,,,0,73,0
31976,note_on,,,,,52,0,3,,,,,2,55,0
31984,note_on,,,,,8,0,3,,,,,2,56,64
31984,note_on,,,,,8,0,1,,,,,0,71,64
32036,note_on,,,,,52,0,1,,,,,0,71,0
32036,note_on,,,,,52,0,3,,,,,2,56,0
32044,note_on,,,,,8,0,1,,,,,0,73,64
32044,note_on,,,,,8,0,3,,,,,2,58,64
32089,note_on,,,,,165,0,2,,,,,1,70,0
32096,note_on,,,,,52,0,3,,,,,2,58,0
32104,note_on,,,,,15,0,2,,,,,1,70,64
32104,note_on,,,,,8,0,3,,,,,2,55,64
32149,note_on,,,,,105,0,1,,,,,0,73,0
32156,note_on,,,,,52,0,3,,,,,2,55,0
32164,note_on,,,,,8,0,3,,,,,2,56,64
32164,note_on,,,,,15,0,1,,,,,0,71,64
32216,note_on,,,,,112,0,2,,,,,1,70,0
32224,note_on,,,,,8,0,2,,,,,1,67,64
32276,note_on,,,,,52,0,2,,,,,1,67,0
32284,note_on,,,,,8,0,2,,,,,1,68,64
32310,note_on,,,,,146,0,3,,,,,2,56,0
32314,note_on,,,,,4,0,3,,,,,2,54,64
32329,note_on,,,,,165,0,1,,,,,0,71,0
32340,note_on,,,,,26,0,3,,,,,2,54,0
32344,note_on,,,,,15,0,1,,,,,0,71,64
32344,note_on,,,,,4,0,3,,,,,2,52,64
32370,note_on,,,,,26,0,3,,,,,2,52,0
32374,note_on,,,,,4,0,3,,,,,2,51,64
32396,note_on,,,,,52,0,1,,,,,0,71,0
32400,note_on,,,,,26,0,3,,,,,2,51,0
32404,note_on,,,,,8,0,1,,,,,0,76,64
32404,note_on,,,,,4,0,3,,,,,2,49,64
32456,note_on,,,,,52,0,3,,,,,2,49,0
32456,note_on,,,,,172,0,2,,,,,1,68,0
32464,note_on,,,,,8,0,2,,,,,1,68,64
32464,note_on,,,,,8,0,3,,,,,2,59,64
32516,note_on,,,,,52,0,3,,,,,2,59,0
32516,note_on,,,,,52,0,2,,,,,1,68,0
32524,note_on,,,,,8,0,3,,,,,2,58,64
32524,note_on,,,,,8,0,2,,,,,1,73,64
32569,note_on,,,,,165,0,1,,,,,0,76,0
32576,note_on,,,,,52,0,3,,,,,2,58,0
32584,note_on,,,,,15,0,1,,,,,0,76,64
32584,note_on,,,,,8,0,3,,,,,2,54,64
32636,note_on,,,,,52,0,3,,,,,2,54,0
32636,note_on,,,,,52,0,1,,,,,0,76,0
32644,note_on,,,,,8,0,1,,,,,0,75,64
32644,note_on,,,,,8,0,3,,,,,2,59,64
32696,note_on,,,,,172,0,2,,,,,1,73,0
32704,note_on,,,,,8,0,2,,,,,1,70,64
32756,note_on,,,,,52,0,2,,,,,1,70,0
32764,note_on,,,,,8,0,2,,,,,1,71,64
32790,note_on,,,,,146,0,3,,,,,2,59,0
32794,note_on,,,,,4,0,3,,,,,2,58,64
32809,note_on,,,,,165,0,1,,,,,0,75,0
32820,note_on,,,,,26,0,3,,,,,2,58,0
32824,note_on,,,,,4,0,3,,,,,2,56,64
32824,note_on,,,,,15,0,1,,,,,0,75,64
32850,note_on,,,,,26,0,3,,,,,2,56,0
32854,note_on,,,,,4,0,3,,,,,2,54,64
32876,note_on,,,,,52,0,1,,,,,0,75,0
32880,note_on,,,,,26,0,3,,,,,2,54,0
32884,note_on,,,,,4,0,3,,,,,2,52,64
32884,note_on,,,,,8,0,1,,,,,0,80,64
32936,note_on,,,,,172,0,2,,,,,1,71,0
32936,note_on,,,,,52,0,3,,,,,2,52,0
32944,note_on,,,,,8,0,3,,,,,2,63,64
32944,note_on,,,,,8,0,2,,,,,1,71,64
32996,note_on,,,,,52,0,3,,,,,2,63,0
32996,note_on,,,,,52,0,2,,,,,1,71,0
33004,note_on,,,,,8,0,3,,,,,2,61,64
33004,note_on,,,,,8,0,2,,,,,1,76,64
33049,note_on,,,,,165,0,1,,,,,0,80,0
33056,note_on,,,,,52,0,3,,,,,2,61,0
33064,note_on,,,,,8,0,3,,,,,2,58,64
33064,note_on,,,,,15,0,1,,,,,0,80,64
33116,note_on,,,,,52,0,3,,,,,2,58,0
33116,note_on,,,,,52,0,1,,,,,0,80,0
33124,note_on,,,,,8,0,3,,,,,2,63,64
33124,note_on,,,,,8,0,1,,,,,0,78,64
33176,note_on,,,,,172,0,2,,,,,1,76,0
33184,note_on,,,,,8,0,2,,,,,1,73,64
33236,note_on,,,,,52,0,2,,,,,1,73,0
33244,note_on,,,,,8,0,2,,,,,1,75,64
33270,note_on,,,,,146,0,3,,,,,2,63,0
33274,note_on,,,,,4,0,3,,,,,2,61,64
33289,note_on,,,,,165,0,1,,,,,0,78,0
33300,note_on,,,,,26,0,3,,,,,2,61,0
33304,note_on,,,,,4,0,3,,,,,2,59,64
33304,note_on,,,,,15,0,1,,,,,0,78,64
33330,note_on,,,,,26,0,3,,,,,2,59,0
33334,note_on,,,,,4,0,3,,,,,2,58,64
33356,note_on,,,,,52,0,1,,,,,0,78,0
33360,note_on,,,,,26,0,3,,,,,2,58,0
33364,note_on,,,,,4,0,3,,,,,2,56,64
33364,note_on,,,,,8,0,1,,,,,0,83,64
33416,note_on,,,,,172,0,2,,,,,1,75,0
33416,note_on,,,,,52,0,3,,,,,2,56,0
33424,note_on,,,,,8,0,2,,,,,1,75,64
33424,note_on,,,,,8,0,3,,,,,2,66,64
33476,note_on,,,,,52,0,3,,,,,2,66,0
33476,note_on,,,,,52,0,2,,,,,1,75,0
33484,note_on,,,,,8,0,2,,,,,1,80,64
33484,note_on,,,,,8,0,3,,,,,2,65,64
33529,note_on,,,,,165,0,1,,,,,0,83,0
33536,note_on,,,,,52,0,3,,,,,2,65,0
33544,note_on,,,,,15,0,1,,,,,0,83,64
33544,note_on,,,,,8,0,3,,,,,2,61,64
33596,note_on,,,,,52,0,1,,,,,0,83,0
33596,note_on,,,,,52,0,3,,,,,2,61,0
33604,note_on,,,,,8,0,3,,,,,2,66,64
33604,note_on,,,,,8,0,1,,,,,0,82,64
33656,note_on,,,,,172,0,2,,,,,1,80,0
33656,note_on,,,,,52,0,3,,,,,2,66,0
33664,note_on,,,,,8,0,2,,,,,1,77,64
33664,note_on,,,,,8,0,3,,,,,2,68,64
33716,note_on,,,,,52,0,3,,,,,2,68,0
33716,note_on,,,,,52,0,2,,,,,1,77,0
33724,note_on,,,,,8,0,2,,,,,1,78,64
33724,note_on,,,,,8,0,3,,,,,2,70,64
33769,note_on,,,,,165,0,1,,,,,0,82,0
33776,note_on,,,,,52,0,3,,,,,2,70,0
33784,note_on,,,,,8,0,3,,,,,2,66,64
33784,note_on,,,,,15,0,1,,,,,0,73,64
33836,note_on,,,,,52,0,3,,,,,2,66,0
33836,note_on,,,,,52,0,1,,,,,0,73,0
33844,note_on,,,,,8,0,3,,,,,2,63,64
33844,note_on,,,,,8,0,1,,,,,0,81,64
33870,note_on,,,,,146,0,2,,,,,1,78,0
33874,note_on,,,,,4,0,2,,,,,1,80,64
33896,note_on,,,,,52,0,3,,,,,2,63,0
33900,note_on,,,,,26,0,2,,,,,1,80,0
33904,note_on,,,,,8,0,3,,,,,2,64,64
33904,note_on,,,,,4,0,2,,,,,1,78,64
33930,note_on,,,,,26,0,2,,,,,1,78,0
33934,note_on,,,,,4,0,2,,,,,1,76,64
33956,note_on,,,,,52,0,3,,,,,2,64,0
33960,note_on,,,,,26,0,2,,,,,1,76,0
33964,note_on,,,,,8,0,3,,,,,2,66,64
33964,note_on,,,,,4,0,2,,,,,1,75,64
34009,note_on,,,,,165,0,1,,,,,0,81,0
34016,note_on,,,,,52,0,3,,,,,2,66,0
34024,note_on,,,,,8,0,3,,,,,2,63,64
34024,note_on,,,,,15,0,1,,,,,0,78,64
34076,note_on,,,,,52,0,1,,,,,0,78,0
34076,note_on,,,,,52,0,3,,,,,2,63,0
34084,note_on,,,,,8,0,3,,,,,2,60,64
34084,note_on,,,,,8,0,1,,,,,0,80,64
34136,note_on,,,,,172,0,2,,,,,1,75,0
34136,note_on,,,,,52,0,3,,,,,2,60,0
34144,note_on,,,,,8,0,2,,,,,1,76,64
34144,note_on,,,,,8,0,3,,,,,2,61,64
34196,note_on,,,,,52,0,2,,,,,1,76,0
34196,note_on,,,,,52,0,3,,,,,2,61,0
34204,note_on,,,,,8,0,3,,,,,2,63,64
34204,note_on,,,,,8,0,2,,,,,1,78,64
34256,note_on,,,,,52,0,3,,,,,2,63,0
34256,note_on,,,,,52,0,2,,,,,1,78,0
34264,note_on,,,,,8,0,3,,,,,2,60,64
34264,note_on,,,,,8,0,2,,,,,1,75,64
34316,note_on,,,,,52,0,3,,,,,2,60,0
34316,note_on,,,,,52,0,2,,,,,1,75,0
34324,note_on,,,,,8,0,2,,,,,1,76,64
34324,note_on,,,,,8,0,3,,,,,2,61,64
34376,note_on,,,,,52,0,3,,,,,2,61,0
34376,note_on,,,,,52,0,2,,,,,1,76,0
34384,note_on,,,,,8,0,3,,,,,2,63,64
34384,note_on,,,,,8,0,2,,,,,1,72,64
34436,note_on,,,,,52,0,3,,,,,2,63,0
34436,note_on,,,,,52,0,2,,,,,1,72,0
34444,note_on,,,,,8,0,2,,,,,1,73,64
34444,note_on,,,,,8,0,3,,,,,2,64,64
34496,note_on,,,,,52,0,2,,,,,1,73,0
34504,note_on,,,,,8,0,2,,,,,1,76,64
34556,note_on,,,,,52,0,2,,,,,1,76,0
34564,note_on,,,,,8,0,2,,,,,1,70,64
34616,note_on,,,,,172,0,3,,,,,2,64,0
34616,note_on,,,,,532,0,1,,,,,0,80,0
34624,note_on,,,,,8,0,3,,,,,2,64,64
34624,note_on,,,,,8,0,1,,,,,0,80,64
34676,note_on,,,,,52,0,1,,,,,0,80,0
34676,note_on,,,,,52,0,3,,,,,2,64,0
34684,note_on,,,,,8,0,1,,,,,0,78,64
34684,note_on,,,,,8,0,3,,,,,2,63,64
34736,note_on,,,,,52,0,1,,,,,0,78,0
34736,note_on,,,,,52,0,3,,,,,2,63,0
34744,note_on,,,,,8,0,1,,,,,0,76,64
34744,note_on,,,,,8,0,3,,,,,2,61,64
34789,note_on,,,,,225,0,2,,,,,1,70,0
34796,note_on,,,,,52,0,1,,,,,0,76,0
34796,note_on,,,,,52,0,3,,,,,2,61,0
34804,note_on,,,,,15,0,2,,,,,1,71,64
34804,note_on,,,,,8,0,3,,,,,2,59,64
34804,note_on,,,,,8,0,1,,,,,0,75,64
34856,note_on,,,,,52,0,3,,,,,2,59,0
34856,note_on,,,,,52,0,1,,,,,0,75,0
34864,note_on,,,,,8,0,3,,,,,2,61,64
34864,note_on,,,,,8,0,1,,,,,0,76,64
34916,note_on,,,,,52,0,3,,,,,2,61,0
34916,note_on,,,,,52,0,1,,,,,0,76,0
34924,note_on,,,,,8,0,1,,,,,0,78,64
34924,note_on,,,,,8,0,3,,,,,2,63,64
34976,note_on,,,,,52,0,1,,,,,0,78,0
34976,note_on,,,,,52,0,3,,,,,2,63,0
34984,note_on,,,,,8,0,1,,,,,0,75,64
34984,note_on,,,,,8,0,3,,,,,2,59,64
35036,note_on,,,,,52,0,3,,,,,2,59,0
35036,note_on,,,,,52,0,1,,,,,0,75,0
35044,note_on,,,,,8,0,1,,,,,0,76,64
35044,note_on,,,,,8,0,3,,,,,2,56,64
35096,note_on,,,,,52,0,3,,,,,2,56,0
35096,note_on,,,,,292,0,2,,,,,1,71,0
35104,note_on,,,,,8,0,3,,,,,2,58,64
35104,note_on,,,,,8,0,2,,,,,1,73,64
35156,note_on,,,,,52,0,2,,,,,1,73,0
35156,note_on,,,,,52,0,3,,,,,2,58,0
35164,note_on,,,,,8,0,3,,,,,2,59,64
35164,note_on,,,,,8,0,2,,,,,1,75,64
35216,note_on,,,,,52,0,3,,,,,2,59,0
35216,note_on,,,,,52,0,2,,,,,1,75,0
35224,note_on,,,,,8,0,2,,,,,1,71,64
35224,note_on,,,,,8,0,3,,,,,2,56,64
35276,note_on,,,,,52,0,3,,,,,2,56,0
35276,note_on,,,,,52,0,2,,,,,1,71,0
35284,note_on,,,,,8,0,3,,,,,2,58,64
35284,note_on,,,,,8,0,2,,,,,1,73,64
35336,note_on,,,,,52,0,2,,,,,1,73,0
35336,note_on,,,,,52,0,3,,,,,2,58,0
35344,note_on,,,,,8,0,2,,,,,1,68,64
35344,note_on,,,,,8,0,3,,,,,2,59,64
35396,note_on,,,,,52,0,2,,,,,1,68,0
35396,note_on,,,,,52,0,3,,,,,2,59,0
35404,note_on,,,,,8,0,2,,,,,1,70,64
35404,note_on,,,,,8,0,3,,,,,2,61,64
35456,note_on,,,,,52,0,2,,,,,1,70,0
35464,note_on,,,,,8,0,2,,,,,1,73,64
35509,note_on,,,,,465,0,1,,,,,0,76,0
35516,note_on,,,,,52,0,2,,,,,1,73,0
35524,note_on,,,,,6975,0,4,,,,,3,47,64
35524,note_on,,,,,15,0,1,,,,,0,75,64
35524,note_on,,,,,8,0,2,,,,,1,66,64
35576,note_on,,,,,172,0,3,,,,,2,61,0
35584,note_on,,,,,8,0,3,,,,,2,59,64
35629,note_on,,,,,105,0,2,,,,,1,66,0
35636,note_on,,,,,52,0,3,,,,,2,59,0
35644,note_on,,,,,8,0,3,,,,,2,58,64
35644,note_on,,,,,15,0,2,,,,,1,71,64
35696,note_on,,,,,52,0,3,,,,,2,58,0
35704,note_on,,,,,8,0,3,,,,,2,56,64
35749,note_on,,,,,225,0,4,,,,,3,47,0
35749,note_on,,,,,105,0,2,,,,,1,71,0
35756,note_on,,,,,52,0,3,,,,,2,56,0
35764,note_on,,,,,8,0,3,,,,,2,55,64
35764,note_on,,,,,15,0,4,,,,,3,51,64
35764,note_on,,,,,15,0,2,,,,,1,70,64
35816,note_on,,,,,52,0,3,,,,,2,55,0
35824,note_on,,,,,8,0,3,,,,,2,56,64
35869,note_on,,,,,345,0,1,,,,,0,75,0
35876,note_on,,,,,52,0,3,,,,,2,56,0
35884,note_on,,,,,15,0,1,,,,,0,73,64
35884,note_on,,,,,8,0,3,,,,,2,58,64
35936,note_on,,,,,52,0,3,,,,,2,58,0
35944,note_on,,,,,8,0,3,,,,,2,55,64
35989,note_on,,,,,105,0,1,,,,,0,73,0
35989,note_on,,,,,225,0,4,,,,,3,51,0
35996,note_on,,,,,52,0,3,,,,,2,55,0
36004,note_on,,,,,15,0,4,,,,,3,56,64
36004,note_on,,,,,15,0,1,,,,,0,71,64
36004,note_on,,,,,8,0,3,,,,,2,56,64
36056,note_on,,,,,52,0,3,,,,,2,56,0
36064,note_on,,,,,8,0,3,,,,,2,59,64
36109,note_on,,,,,345,0,2,,,,,1,70,0
36116,note_on,,,,,52,0,3,,,,,2,59,0
36124,note_on,,,,,8,0,3,,,,,2,61,64
36124,note_on,,,,,15,0,2,,,,,1,68,64
36176,note_on,,,,,52,0,3,,,,,2,61,0
36176,note_on,,,,,52,0,2,,,,,1,68,0
36184,note_on,,,,,8,0,3,,,,,2,63,64
36184,note_on,,,,,8,0,2,,,,,1,67,64
36229,note_on,,,,,225,0,4,,,,,3,56,0
36236,note_on,,,,,52,0,2,,,,,1,67,0
36236,note_on,,,,,52,0,3,,,,,2,63,0
36244,note_on,,,,,15,0,4,,,,,3,52,64
36244,note_on,,,,,8,0,2,,,,,1,68,64
36244,note_on,,,,,8,0,3,,,,,2,64,64
36296,note_on,,,,,292,0,1,,,,,0,71,0
36304,note_on,,,,,8,0,1,,,,,0,71,64
36349,note_on,,,,,105,0,3,,,,,2,64,0
36356,note_on,,,,,52,0,1,,,,,0,71,0
36364,note_on,,,,,15,0,3,,,,,2,59,64
36364,note_on,,,,,8,0,1,,,,,0,76,64
36409,note_on,,,,,165,0,2,,,,,1,68,0
36416,note_on,,,,,52,0,1,,,,,0,76,0
36424,note_on,,,,,8,0,1,,,,,0,78,64
36424,note_on,,,,,15,0,2,,,,,1,71,64
36469,note_on,,,,,225,0,4,,,,,3,52,0
36476,note_on,,,,,52,0,1,,,,,0,78,0
36476,note_on,,,,,52,0,2,,,,,1,71,0
36484,note_on,,,,,8,0,1,,,,,0,80,64
36484,note_on,,,,,8,0,2,,,,,1,76,64
36484,note_on,,,,,15,0,4,,,,,3,49,64
36536,note_on,,,,,172,0,3,,,,,2,59,0
36544,note_on,,,,,8,0,3,,,,,2,56,64
36596,note_on,,,,,52,0,3,,,,,2,56,0
36604,note_on,,,,,8,0,3,,,,,2,58,64
36656,note_on,,,,,52,0,3,,,,,2,58,0
36664,note_on,,,,,8,0,3,,,,,2,59,64
36709,note_on,,,,,225,0,4,,,,,3,49,0
36716,note_on,,,,,52,0,3,,,,,2,59,0
36724,note_on,,,,,8,0,3,,,,,2,61,64
36724,note_on,,,,,15,0,4,,,,,3,58,64
36776,note_on,,,,,292,0,1,,,,,0,80,0
36776,note_on,,,,,292,0,2,,,,,1,76,0
36784,note_on,,,,,8,0,1,,,,,0,80,64
36784,note_on,,,,,8,0,2,,,,,1,76,64
36829,note_on,,,,,105,0,3,,,,,2,61,0
36836,note_on,,,,,52,0,1,,,,,0,80,0
36836,note_on,,,,,52,0,2,,,,,1,76,0
36844,note_on,,,,,8,0,1,,,,,0,78,64
36844,note_on,,,,,15,0,3,,,,,2,66,64
36844,note_on,,,,,8,0,2,,,,,1,75,64
36896,note_on,,,,,52,0,1,,,,,0,78,0
36896,note_on,,,,,52,0,2,,,,,1,75,0
36904,note_on,,,,,8,0,1,,,,,0,76,64
36904,note_on,,,,,8,0,2,,,,,1,73,64
36949,note_on,,,,,225,0,4,,,,,3,58,0
36956,note_on,,,,,52,0,1,,,,,0,76,0
36956,note_on,,,,,52,0,2,,,,,1,73,0
36964,note_on,,,,,15,0,4,,,,,3,59,64
36964,note_on,,,,,8,0,1,,,,,0,75,64
36964,note_on,,,,,8,0,2,,,,,1,71,64
37016,note_on,,,,,172,0,3,,,,,2,66,0
37024,note_on,,,,,8,0,3,,,,,2,68,64
37076,note_on,,,,,52,0,3,,,,,2,68,0
37084,note_on,,,,,8,0,3,,,,,2,66,64
37136,note_on,,,,,52,0,3,,,,,2,66,0
37144,note_on,,,,,8,0,3,,,,,2,64,64
37196,note_on,,,,,52,0,3,,,,,2,64,0
37204,note_on,,,,,8,0,3,,,,,2,63,64
37256,note_on,,,,,292,0,2,,,,,1,71,0
37256,note_on,,,,,292,0,4,,,,,3,59,0
37264,note_on,,,,,8,0,4,,,,,3,61,64
37264,note_on,,,,,8,0,2,,,,,1,67,64
37316,note_on,,,,,52,0,4,,,,,3,61,0
37316,note_on,,,,,52,0,2,,,,,1,67,0
37324,note_on,,,,,8,0,2,,,,,1,68,64
37324,note_on,,,,,8,0,4,,,,,3,59,64
37376,note_on,,,,,52,0,4,,,,,3,59,0
37376,note_on,,,,,52,0,2,,,,,1,68,0
37384,note_on,,,,,8,0,2,,,,,1,70,64
37384,note_on,,,,,8,0,4,,,,,3,58,64
37436,note_on,,,,,52,0,4,,,,,3,58,0
37436,note_on,,,,,52,0,2,,,,,1,70,0
37444,note_on,,,,,8,0,2,,,,,1,71,64
37444,note_on,,,,,8,0,4,,,,,3,56,64
37496,note_on,,,,,52,0,2,,,,,1,71,0
37496,note_on,,,,,292,0,3,,,,,2,63,0
37504,note_on,,,,,8,0,3,,,,,2,64,64
37504,note_on,,,,,8,0,2,,,,,1,70,64
37556,note_on,,,,,52,0,3,,,,,2,64,0
37556,note_on,,,,,52,0,2,,,,,1,70,0
37564,note_on,,,,,8,0,3,,,,,2,63,64
37564,note_on,,,,,8,0,2,,,,,1,73,64
37616,note_on,,,,,52,0,3,,,,,2,63,0
37616,note_on,,,,,52,0,2,,,,,1,73,0
37624,note_on,,,,,8,0,3,,,,,2,61,64
37624,note_on,,,,,8,0,2,,,,,1,67,64
37676,note_on,,,,,52,0,3,,,,,2,61,0
37676,note_on,,,,,52,0,2,,,,,1,67,0
37684,note_on,,,,,8,0,2,,,,,1,68,64
37684,note_on,,,,,8,0,3,,,,,2,59,64
37736,note_on,,,,,292,0,4,,,,,3,56,0
37744,note_on,,,,,8,0,4,,,,,3,58,64
37796,note_on,,,,,52,0,4,,,,,3,58,0
37804,note_on,,,,,8,0,4,,,,,3,56,64
37856,note_on,,,,,52,0,4,,,,,3,56,0
37864,note_on,,,,,8,0,4,,,,,3,54,64
37909,note_on,,,,,225,0,2,,,,,1,68,0
37916,note_on,,,,,52,0,4,,,,,3,54,0
37924,note_on,,,,,8,0,4,,,,,3,53,64
37976,note_on,,,,,1012,0,1,,,,,0,75,0
37984,note_on,,,,,8,0,1,,,,,0,75,64
38029,note_on,,,,,345,0,3,,,,,2,59,0
38036,note_on,,,,,52,0,1,,,,,0,75,0
38044,note_on,,,,,8,0,1,,,,,0,74,64
38096,note_on,,,,,52,0,1,,,,,0,74,0
38104,note_on,,,,,8,0,1,,,,,0,72,64
38156,note_on,,,,,52,0,1,,,,,0,72,0
38164,note_on,,,,,8,0,1,,,,,0,74,64
38216,note_on,,,,,52,0,1,,,,,0,74,0
38216,note_on,,,,,292,0,4,,,,,3,53,0
38224,note_on,,,,,8,0,4,,,,,3,54,64
38224,note_on,,,,,8,0,1,,,,,0,75,64
38276,note_on,,,,,52,0,1,,,,,0,75,0
38276,note_on,,,,,52,0,4,,,,,3,54,0
38284,note_on,,,,,8,0,1,,,,,0,77,64
38284,note_on,,,,,8,0,4,,,,,3,53,64
38336,note_on,,,,,52,0,1,,,,,0,77,0
38336,note_on,,,,,52,0,4,,,,,3,53,0
38344,note_on,,,,,8,0,1,,,,,0,78,64
38344,note_on,,,,,8,0,4,,,,,3,51,64
38396,note_on,,,,,52,0,1,,,,,0,78,0
38396,note_on,,,,,52,0,4,,,,,3,51,0
38404,note_on,,,,,8,0,1,,,,,0,80,64
38404,note_on,,,,,8,0,4,,,,,3,50,64
38456,note_on,,,,,52,0,4,,,,,3,50,0
38464,note_on,,,,,8,0,4,,,,,3,46,64
38516,note_on,,,,,52,0,4,,,,,3,46,0
38524,note_on,,,,,8,0,4,,,,,3,48,64
38524,note_on,,,,,615,0,2,,,,,1,77,64
38576,note_on,,,,,52,0,4,,,,,3,48,0
38584,note_on,,,,,8,0,4,,,,,3,50,64
38629,note_on,,,,,225,0,1,,,,,0,80,0
38636,note_on,,,,,52,0,4,,,,,3,50,0
38644,note_on,,,,,15,0,1,,,,,0,78,64
38644,note_on,,,,,8,0,4,,,,,3,51,64
38696,note_on,,,,,52,0,4,,,,,3,51,0
38704,note_on,,,,,8,0,4,,,,,3,53,64
38749,note_on,,,,,225,0,2,,,,,1,77,0
38756,note_on,,,,,52,0,4,,,,,3,53,0
38764,note_on,,,,,8,0,4,,,,,3,54,64
38764,note_on,,,,,15,0,2,,,,,1,75,64
38816,note_on,,,,,52,0,4,,,,,3,54,0
38816,note_on,,,,,52,0,2,,,,,1,75,0
38824,note_on,,,,,8,0,2,,,,,1,73,64
38824,note_on,,,,,8,0,4,,,,,3,51,64
38876,note_on,,,,,52,0,2,,,,,1,73,0
38876,note_on,,,,,52,0,4,,,,,3,51,0
38884,note_on,,,,,8,0,2,,,,,1,71,64
38884,note_on,,,,,8,0,4,,,,,3,56,64
38936,note_on,,,,,52,0,4,,,,,3,56,0
38944,note_on,,,,,8,0,4,,,,,3,54,64
38989,note_on,,,,,105,0,2,,,,,1,71,0
38996,note_on,,,,,52,0,4,,,,,3,54,0
39004,note_on,,,,,15,0,2,,,,,1,75,64
39004,note_on,,,,,8,0,4,,,,,3,56,64
39056,note_on,,,,,52,0,4,,,,,3,56,0
39064,note_on,,,,,8,0,4,,,,,3,58,64
39109,note_on,,,,,105,0,2,,,,,1,75,0
39116,note_on,,,,,52,0,4,,,,,3,58,0
39124,note_on,,,,,8,0,4,,,,,3,59,64
39124,note_on,,,,,15,0,2,,,,,1,68,64
39176,note_on,,,,,532,0,1,,,,,0,78,0
39176,note_on,,,,,52,0,4,,,,,3,59,0
39184,note_on,,,,,8,0,4,,,,,3,58,64
39184,note_on,,,,,8,0,1,,,,,0,78,64
39236,note_on,,,,,52,0,4,,,,,3,58,0
39236,note_on,,,,,52,0,1,,,,,0,78,0
39244,note_on,,,,,8,0,1,,,,,0,77,64
39244,note_on,,,,,8,0,4,,,,,3,59,64
39296,note_on,,,,,52,0,1,,,,,0,77,0
39296,note_on,,,,,52,0,4,,,,,3,59,0
39304,note_on,,,,,8,0,1,,,,,0,75,64
39304,note_on,,,,,8,0,4,,,,,3,56,64
39356,note_on,,,,,52,0,1,,,,,0,75,0
39356,note_on,,,,,52,0,4,,,,,3,56,0
39364,note_on,,,,,8,0,1,,,,,0,74,64
39364,note_on,,,,,8,0,4,,,,,3,58,64
39416,note_on,,,,,292,0,2,,,,,1,68,0
39424,note_on,,,,,8,0,2,,,,,1,71,64
39476,note_on,,,,,52,0,2,,,,,1,71,0
39484,note_on,,,,,8,0,2,,,,,1,70,64
39536,note_on,,,,,52,0,2,,,,,1,70,0
39544,note_on,,,,,8,0,2,,,,,1,68,64
39596,note_on,,,,,52,0,2,,,,,1,68,0
39604,note_on,,,,,8,0,2,,,,,1,66,64
39656,note_on,,,,,292,0,1,,,,,0,74,0
39664,note_on,,,,,8,0,1,,,,,0,70,64
39716,note_on,,,,,52,0,1,,,,,0,70,0
39724,note_on,,,,,8,0,1,,,,,0,75,64
39769,note_on,,,,,405,0,4,,,,,3,58,0
39784,note_on,,,,,15,0,4,,,,,3,57,64
39829,note_on,,,,,225,0,2,,,,,1,66,0
39836,note_on,,,,,52,0,4,,,,,3,57,0
39844,note_on,,,,,8,0,4,,,,,3,58,64
39844,note_on,,,,,15,0,2,,,,,1,65,64
39896,note_on,,,,,172,0,1,,,,,0,75,0
39904,note_on,,,,,8,0,1,,,,,0,72,64
39956,note_on,,,,,52,0,1,,,,,0,72,0
39964,note_on,,,,,8,0,1,,,,,0,74,64
40016,note_on,,,,,52,0,1,,,,,0,74,0
40024,note_on,,,,,8,0,1,,,,,0,77,64
40069,note_on,,,,,225,0,4,,,,,3,58,0
40076,note_on,,,,,52,0,1,,,,,0,77,0
40084,note_on,,,,,15,0,4,,,,,3,46,64
40084,note_on,,,,,8,0,1,,,,,0,68,64
40136,note_on,,,,,52,0,1,,,,,0,68,0
40144,note_on,,,,,8,0,1,,,,,0,71,64
40196,note_on,,,,,52,0,1,,,,,0,71,0
40204,note_on,,,,,8,0,1,,,,,0,70,64
40256,note_on,,,,,52,0,1,,,,,0,70,0
40264,note_on,,,,,8,0,1,,,,,0,68,64
40309,note_on,,,,,225,0,4,,,,,3,46,0
40316,note_on,,,,,52,0,1,,,,,0,68,0
40324,note_on,,,,,8,0,1,,,,,0,66,64
40324,note_on,,,,,2295,0,3,,,,,2,54,64
40324,note_on,,,,,15,0,4,,,,,3,51,64
40376,note_on,,,,,532,0,2,,,,,1,65,0
40384,note_on,,,,,8,0,2,,,,,1,65,64
40436,note_on,,,,,52,0,2,,,,,1,65,0
40444,note_on,,,,,8,0,2,,,,,1,63,64
40496,note_on,,,,,52,0,2,,,,,1,63,0
40504,note_on,,,,,8,0,2,,,,,1,62,64
40549,note_on,,,,,225,0,3,,,,,2,54,0
40556,note_on,,,,,52,0,2,,,,,1,62,0
40564,note_on,,,,,8,0,2,,,,,1,63,64
40564,note_on,,,,,15,0,3,,,,,2,58,64
40616,note_on,,,,,292,0,4,,,,,3,51,0
40624,note_on,,,,,8,0,4,,,,,3,52,64
40676,note_on,,,,,52,0,4,,,,,3,52,0
40684,note_on,,,,,8,0,4,,,,,3,51,64
40736,note_on,,,,,52,0,4,,,,,3,51,0
40744,note_on,,,,,8,0,4,,,,,3,49,64
40789,note_on,,,,,225,0,3,,,,,2,58,0
40789,note_on,,,,,225,0,2,,,,,1,63,0
40789,note_on,,,,,465,0,1,,,,,0,66,0
40796,note_on,,,,,52,0,4,,,,,3,49,0
40804,note_on,,,,,15,0,3,,,,,2,63,64
40804,note_on,,,,,8,0,4,,,,,3,47,64
40856,note_on,,,,,52,0,4,,,,,3,47,0
40864,note_on,,,,,8,0,4,,,,,3,46,64
40916,note_on,,,,,52,0,4,,,,,3,46,0
40924,note_on,,,,,135,0,2,,,,,1,66,64
40924,note_on,,,,,8,0,4,,,,,3,47,64
40976,note_on,,,,,52,0,2,,,,,1,66,0
40984,note_on,,,,,8,0,2,,,,,1,64,64
41029,note_on,,,,,225,0,3,,,,,2,63,0
41036,note_on,,,,,52,0,2,,,,,1,64,0
41044,note_on,,,,,8,0,2,,,,,1,63,64
41044,note_on,,,,,15,0,3,,,,,2,59,64
41096,note_on,,,,,52,0,2,,,,,1,63,0
41096,note_on,,,,,172,0,4,,,,,3,47,0
41104,note_on,,,,,8,0,4,,,,,3,49,64
41104,note_on,,,,,8,0,2,,,,,1,64,64
41156,note_on,,,,,52,0,2,,,,,1,64,0
41156,note_on,,,,,52,0,4,,,,,3,49,0
41164,note_on,,,,,8,0,2,,,,,1,66,64
41164,note_on,,,,,8,0,4,,,,,3,51,64
41216,note_on,,,,,52,0,2,,,,,1,66,0
41224,note_on,,,,,8,0,2,,,,,1,63,64
41269,note_on,,,,,225,0,3,,,,,2,59,0
41276,note_on,,,,,52,0,2,,,,,1,63,0
41284,note_on,,,,,8,0,2,,,,,1,59,64
41284,note_on,,,,,15,0,3,,,,,2,56,64
41336,note_on,,,,,172,0,4,,,,,3,51,0
41336,note_on,,,,,52,0,2,,,,,1,59,0
41344,note_on,,,,,8,0,2,,,,,1,61,64
41344,note_on,,,,,8,0,4,,,,,3,49,64
41396,note_on,,,,,52,0,2,,,,,1,61,0
41396,note_on,,,,,52,0,4,,,,,3,49,0
41404,note_on,,,,,8,0,2,,,,,1,63,64
41404,note_on,,,,,8,0,4,,,,,3,47,64
41456,note_on,,,,,52,0,4,,,,,3,47,0
41456,note_on,,,,,52,0,2,,,,,1,63,0
41464,note_on,,,,,8,0,4,,,,,3,51,64
41464,note_on,,,,,8,0,2,,,,,1,59,64
41509,note_on,,,,,225,0,3,,,,,2,56,0
41516,note_on,,,,,52,0,2,,,,,1,59,0
41516,note_on,,,,,52,0,4,,,,,3,51,0
41524,note_on,,,,,15,0,3,,,,,2,65,64
41524,note_on,,,,,8,0,2,,,,,1,56,64
41524,note_on,,,,,8,0,4,,,,,3,49,64
41576,note_on,,,,,52,0,4,,,,,3,49,0
41576,note_on,,,,,52,0,2,,,,,1,56,0
41584,note_on,,,,,8,0,2,,,,,1,58,64
41584,note_on,,,,,8,0,4,,,,,3,47,64
41636,note_on,,,,,52,0,4,,,,,3,47,0
41636,note_on,,,,,52,0,2,,,,,1,58,0
41644,note_on,,,,,8,0,4,,,,,3,46,64
41644,note_on,,,,,8,0,2,,,,,1,59,64
41696,note_on,,,,,52,0,4,,,,,3,46,0
41704,note_on,,,,,8,0,4,,,,,3,44,64
41749,note_on,,,,,225,0,3,,,,,2,65,0
41756,note_on,,,,,52,0,4,,,,,3,44,0
41764,note_on,,,,,15,0,3,,,,,2,66,64
41764,note_on,,,,,8,0,4,,,,,3,42,64
41816,note_on,,,,,172,0,2,,,,,1,59,0
41816,note_on,,,,,52,0,4,,,,,3,42,0
41824,note_on,,,,,8,0,2,,,,,1,59,64
41824,note_on,,,,,8,0,4,,,,,3,49,64
41876,note_on,,,,,52,0,2,,,,,1,59,0
41876,note_on,,,,,52,0,4,,,,,3,49,0
41884,note_on,,,,,8,0,2,,,,,1,58,64
41884,note_on,,,,,8,0,4,,,,,3,54,64
41936,note_on,,,,,52,0,2,,,,,1,58,0
41944,note_on,,,,,8,0,2,,,,,1,56,64
41996,note_on,,,,,52,0,2,,,,,1,56,0
42004,note_on,,,,,8,0,2,,,,,1,58,64
42056,note_on,,,,,292,0,3,,,,,2,66,0
42056,note_on,,,,,172,0,4,,,,,3,54,0
42064,note_on,,,,,8,0,4,,,,,3,52,64
42064,note_on,,,,,8,0,3,,,,,2,61,64
42109,note_on,,,,,105,0,2,,,,,1,58,0
42116,note_on,,,,,52,0,4,,,,,3,52,0
42116,note_on,,,,,52,0,3,,,,,2,61,0
42124,note_on,,,,,8,0,3,,,,,2,66,64
42124,note_on,,,,,8,0,4,,,,,3,51,64
42124,note_on,,,,,15,0,2,,,,,1,69,64
42176,note_on,,,,,52,0,4,,,,,3,51,0
42184,note_on,,,,,8,0,4,,,,,3,49,64
42236,note_on,,,,,52,0,4,,,,,3,49,0
42244,note_on,,,,,8,0,4,,,,,3,48,64
42296,note_on,,,,,52,0,4,,,,,3,48,0
42304,note_on,,,,,8,0,4,,,,,3,49,64
42349,note_on,,,,,225,0,2,,,,,1,69,0
42349,note_on,,,,,225,0,3,,,,,2,66,0
42356,note_on,,,,,52,0,4,,,,,3,49,0
42364,note_on,,,,,8,0,4,,,,,3,51,64
42364,note_on,,,,,15,0,3,,,,,2,60,64
42364,note_on,,,,,15,0,2,,,,,1,69,64
42416,note_on,,,,,52,0,4,,,,,3,51,0
42416,note_on,,,,,52,0,3,,,,,2,60,0
42424,note_on,,,,,8,0,3,,,,,2,66,64
42424,note_on,,,,,8,0,4,,,,,3,48,64
42469,note_on,,,,,105,0,2,,,,,1,69,0
42476,note_on,,,,,52,0,3,,,,,2,66,0
42476,note_on,,,,,52,0,4,,,,,3,48,0
42484,note_on,,,,,8,0,3,,,,,2,64,64
42484,note_on,,,,,15,0,2,,,,,1,68,64
42484,note_on,,,,,8,0,4,,,,,3,44,64
42536,note_on,,,,,52,0,4,,,,,3,44,0
42544,note_on,,,,,8,0,4,,,,,3,46,64
42589,note_on,,,,,105,0,2,,,,,1,68,0
42589,note_on,,,,,105,0,3,,,,,2,64,0
42596,note_on,,,,,52,0,4,,,,,3,46,0
42604,note_on,,,,,8,0,4,,,,,3,48,64
42604,note_on,,,,,15,0,3,,,,,2,63,64
42604,note_on,,,,,15,0,2,,,,,1,66,64
42656,note_on,,,,,52,0,4,,,,,3,48,0
42664,note_on,,,,,8,0,4,,,,,3,44,64
42716,note_on,,,,,52,0,4,,,,,3,44,0
42724,note_on,,,,,8,0,4,,,,,3,49,64
42776,note_on,,,,,52,0,4,,,,,3,49,0
42784,note_on,,,,,8,0,4,,,,,3,51,64
42829,note_on,,,,,225,0,3,,,,,2,63,0
42829,note_on,,,,,225,0,2,,,,,1,66,0
42836,note_on,,,,,52,0,4,,,,,3,51,0
42844,note_on,,,,,15,0,3,,,,,2,61,64
42844,note_on,,,,,8,0,4,,,,,3,52,64
42844,note_on,,,,,15,0,2,,,,,1,64,64
42896,note_on,,,,,52,0,3,,,,,2,61,0
42896,note_on,,,,,52,0,2,,,,,1,64,0
42904,note_on,,,,,8,0,3,,,,,2,60,64
42904,note_on,,,,,8,0,2,,,,,1,63,64
42956,note_on,,,,,52,0,3,,,,,2,60,0
42956,note_on,,,,,52,0,2,,,,,1,63,0
42964,note_on,,,,,8,0,2,,,,,1,64,64
42964,note_on,,,,,8,0,3,,,,,2,61,64
43016,note_on,,,,,52,0,3,,,,,2,61,0
43016,note_on,,,,,172,0,4,,,,,3,52,0
43016,note_on,,,,,52,0,2,,,,,1,64,0
43024,note_on,,,,,8,0,2,,,,,1,66,64
43024,note_on,,,,,8,0,4,,,,,3,51,64
43024,note_on,,,,,8,0,3,,,,,2,63,64
43076,note_on,,,,,52,0,4,,,,,3,51,0
43076,note_on,,,,,52,0,2,,,,,1,66,0
43076,note_on,,,,,52,0,3,,,,,2,63,0
43084,note_on,,,,,8,0,2,,,,,1,68,64
43084,note_on,,,,,8,0,3,,,,,2,64,64
43084,note_on,,,,,8,0,4,,,,,3,49,64
43136,note_on,,,,,52,0,4,,,,,3,49,0
43144,note_on,,,,,8,0,4,,,,,3,47,64
43196,note_on,,,,,52,0,4,,,,,3,47,0
43204,note_on,,,,,8,0,4,,,,,3,46,64
43256,note_on,,,,,52,0,4,,,,,3,46,0
43264,note_on,,,,,8,0,4,,,,,3,47,64
43309,note_on,,,,,225,0,3,,,,,2,64,0
43309,note_on,,,,,225,0,2,,,,,1,68,0
43316,note_on,,,,,52,0,4,,,,,3,47,0
43324,note_on,,,,,15,0,3,,,,,2,58,64
43324,note_on,,,,,15,0,2,,,,,1,68,64
43324,note_on,,,,,8,0,4,,,,,3,49,64
43376,note_on,,,,,52,0,3,,,,,2,58,0
43376,note_on,,,,,52,0,4,,,,,3,49,0
43384,note_on,,,,,8,0,3,,,,,2,64,64
43384,note_on,,,,,8,0,4,,,,,3,46,64
43429,note_on,,,,,105,0,2,,,,,1,68,0
43436,note_on,,,,,52,0,3,,,,,2,64,0
43436,note_on,,,,,52,0,4,,,,,3,46,0
43444,note_on,,,,,8,0,3,,,,,2,63,64
43444,note_on,,,,,15,0,2,,,,,1,66,64
43444,note_on,,,,,8,0,4,,,,,3,42,64
43496,note_on,,,,,52,0,4,,,,,3,42,0
43504,note_on,,,,,8,0,4,,,,,3,44,64
43549,note_on,,,,,105,0,3,,,,,2,63,0
43549,note_on,,,,,105,0,2,,,,,1,66,0
43556,note_on,,,,,52,0,4,,,,,3,44,0
43564,note_on,,,,,15,0,2,,,,,1,64,64
43564,note_on,,,,,15,0,3,,,,,2,61,64
43564,note_on,,,,,8,0,4,,,,,3,46,64
43616,note_on,,,,,52,0,4,,,,,3,46,0
43624,note_on,,,,,8,0,4,,,,,3,42,64
43676,note_on,,,,,52,0,4,,,,,3,42,0
43684,note_on,,,,,8,0,4,,,,,3,47,64
43736,note_on,,,,,52,0,4,,,,,3,47,0
43744,note_on,,,,,8,0,4,,,,,3,49,64
43789,note_on,,,,,225,0,2,,,,,1,64,0
43789,note_on,,,,,225,0,3,,,,,2,61,0
43796,note_on,,,,,52,0,4,,,,,3,49,0
43804,note_on,,,,,8,0,4,,,,,3,51,64
43804,note_on,,,,,15,0,2,,,,,1,63,64
43804,note_on,,,,,15,0,3,,,,,2,59,64
43856,note_on,,,,,52,0,3,,,,,2,59,0
43856,note_on,,,,,52,0,2,,,,,1,63,0
43864,note_on,,,,,8,0,2,,,,,1,61,64
43864,note_on,,,,,8,0,3,,,,,2,58,64
43916,note_on,,,,,52,0,2,,,,,1,61,0
43916,note_on,,,,,52,0,3,,,,,2,58,0
43924,note_on,,,,,8,0,2,,,,,1,63,64
43924,note_on,,,,,8,0,3,,,,,2,59,64
43976,note_on,,,,,52,0,2,,,,,1,63,0
43976,note_on,,,,,172,0,4,,,,,3,51,0
43976,note_on,,,,,52,0,3,,,,,2,59,0
43984,note_on,,,,,8,0,4,,,,,3,49,64
43984,note_on,,,,,8,0,3,,,,,2,61,64
43984,note_on,,,,,8,0,2,,,,,1,64,64
44036,note_on,,,,,52,0,3,,,,,2,61,0
44036,note_on,,,,,52,0,2,,,,,1,64,0
44036,note_on,,,,,52,0,4,,,,,3,49,0
44044,note_on,,,,,8,0,2,,,,,1,66,64
44044,note_on,,,,,8,0,4,,,,,3,47,64
44044,note_on,,,,,8,0,3,,,,,2,63,64
44096,note_on,,,,,52,0,4,,,,,3,47,0
44104,note_on,,,,,8,0,4,,,,,3,51,64
44156,note_on,,,,,52,0,4,,,,,3,51,0
44164,note_on,,,,,8,0,4,,,,,3,56,64
44164,note_on,,,,,3375,0,1,,,,,0,71,64
44216,note_on,,,,,172,0,3,,,,,2,63,0
44216,note_on,,,,,172,0,2,,,,,1,66,0
44224,note_on,,,,,8,0,3,,,,,2,64,64
44224,note_on,,,,,8,0,2,,,,,1,68,64
44276,note_on,,,,,52,0,3,,,,,2,64,0
44276,note_on,,,,,52,0,2,,,,,1,68,0
44284,note_on,,,,,8,0,3,,,,,2,63,64
44284,note_on,,,,,8,0,2,,,,,1,66,64
44336,note_on,,,,,52,0,2,,,,,1,66,0
44336,note_on,,,,,52,0,3,,,,,2,63,0
44344,note_on,,,,,8,0,2,,,,,1,64,64
44344,note_on,,,,,8,0,3,,,,,2,61,64
44389,note_on,,,,,225,0,1,,,,,0,71,0
44396,note_on,,,,,52,0,2,,,,,1,64,0
44396,note_on,,,,,52,0,3,,,,,2,61,0
44404,note_on,,,,,8,0,2,,,,,1,63,64
44404,note_on,,,,,15,0,1,,,,,0,75,64
44404,note_on,,,,,8,0,3,,,,,2,59,64
44456,note_on,,,,,52,0,3,,,,,2,59,0
44456,note_on,,,,,292,0,4,,,,,3,56,0
44464,note_on,,,,,8,0,4,,,,,3,57,64
44464,note_on,,,,,8,0,3,,,,,2,61,64
44509,note_on,,,,,105,0,2,,,,,1,63,0
44516,note_on,,,,,52,0,4,,,,,3,57,0
44516,note_on,,,,,52,0,3,,,,,2,61,0
44524,note_on,,,,,8,0,3,,,,,2,59,64
44524,note_on,,,,,15,0,2,,,,,1,71,64
44524,note_on,,,,,8,0,4,,,,,3,56,64
44576,note_on,,,,,52,0,4,,,,,3,56,0
44576,note_on,,,,,52,0,3,,,,,2,59,0
44584,note_on,,,,,8,0,4,,,,,3,54,64
44584,note_on,,,,,8,0,3,,,,,2,57,64
44629,note_on,,,,,225,0,1,,,,,0,75,0
44636,note_on,,,,,52,0,4,,,,,3,54,0
44636,note_on,,,,,52,0,3,,,,,2,57,0
44644,note_on,,,,,15,0,1,,,,,0,80,64
44644,note_on,,,,,8,0,4,,,,,3,52,64
44644,note_on,,,,,8,0,3,,,,,2,56,64
44696,note_on,,,,,52,0,3,,,,,2,56,0
44704,note_on,,,,,8,0,3,,,,,2,59,64
44749,note_on,,,,,225,0,2,,,,,1,71,0
44756,note_on,,,,,52,0,3,,,,,2,59,0
44764,note_on,,,,,8,0,3,,,,,2,64,64
44764,note_on,,,,,15,0,2,,,,,1,68,64
44816,note_on,,,,,52,0,3,,,,,2,64,0
44824,note_on,,,,,8,0,3,,,,,2,63,64
44869,note_on,,,,,225,0,1,,,,,0,80,0
44876,note_on,,,,,52,0,3,,,,,2,63,0
44884,note_on,,,,,8,0,3,,,,,2,61,64
44884,note_on,,,,,15,0,1,,,,,0,76,64
44936,note_on,,,,,52,0,3,,,,,2,61,0
44944,note_on,,,,,8,0,3,,,,,2,63,64
44989,note_on,,,,,225,0,2,,,,,1,68,0
44996,note_on,,,,,52,0,3,,,,,2,63,0
45004,note_on,,,,,15,0,2,,,,,1,73,64
45004,note_on,,,,,8,0,3,,,,,2,64,64
45056,note_on,,,,,52,0,3,,,,,2,64,0
45064,note_on,,,,,8,0,3,,,,,2,61,64
45109,note_on,,,,,105,0,2,,,,,1,73,0
45109,note_on,,,,,225,0,1,,,,,0,76,0
45116,note_on,,,,,52,0,3,,,,,2,61,0
45124,note_on,,,,,15,0,1,,,,,0,73,64
45124,note_on,,,,,8,0,3,,,,,2,58,64
45124,note_on,,,,,15,0,2,,,,,1,66,64
45176,note_on,,,,,52,0,3,,,,,2,58,0
45176,note_on,,,,,52,0,2,,,,,1,66,0
45184,note_on,,,,,8,0,3,,,,,2,59,64
45184,note_on,,,,,8,0,2,,,,,1,68,64
45236,note_on,,,,,52,0,3,,,,,2,59,0
45236,note_on,,,,,52,0,2,,,,,1,68,0
45244,note_on,,,,,8,0,3,,,,,2,61,64
45244,note_on,,,,,8,0,2,,,,,1,70,64
45296,note_on,,,,,52,0,3,,,,,2,61,0
45296,note_on,,,,,52,0,2,,,,,1,70,0
45304,note_on,,,,,8,0,3,,,,,2,58,64
45304,note_on,,,,,8,0,2,,,,,1,66,64
45349,note_on,,,,,225,0,1,,,,,0,73,0
45356,note_on,,,,,52,0,2,,,,,1,66,0
45356,note_on,,,,,52,0,3,,,,,2,58,0
45364,note_on,,,,,8,0,2,,,,,1,73,64
45364,note_on,,,,,8,0,3,,,,,2,54,64
45364,note_on,,,,,15,0,1,,,,,0,82,64
45416,note_on,,,,,52,0,3,,,,,2,54,0
45416,note_on,,,,,52,0,2,,,,,1,73,0
45424,note_on,,,,,8,0,2,,,,,1,76,64
45424,note_on,,,,,8,0,3,,,,,2,56,64
45469,note_on,,,,,825,0,4,,,,,3,52,0
45476,note_on,,,,,52,0,3,,,,,2,56,0
45476,note_on,,,,,52,0,2,,,,,1,76,0
45484,note_on,,,,,8,0,3,,,,,2,58,64
45484,note_on,,,,,15,0,4,,,,,3,54,64
45484,note_on,,,,,8,0,2,,,,,1,75,64
45536,note_on,,,,,52,0,4,,,,,3,54,0
45536,note_on,,,,,52,0,2,,,,,1,75,0
45544,note_on,,,,,8,0,4,,,,,3,52,64
45544,note_on,,,,,8,0,2,,,,,1,73,64
45589,note_on,,,,,225,0,1,,,,,0,82,0
45596,note_on,,,,,52,0,2,,,,,1,73,0
45596,note_on,,,,,52,0,4,,,,,3,52,0
45604,note_on,,,,,15,0,1,,,,,0,83,64
45604,note_on,,,,,8,0,2,,,,,1,78,64
45604,note_on,,,,,8,0,4,,,,,3,51,64
45656,note_on,,,,,52,0,2,,,,,1,78,0
45656,note_on,,,,,172,0,3,,,,,2,58,0
45664,note_on,,,,,8,0,3,,,,,2,54,64
45664,note_on,,,,,8,0,2,,,,,1,76,64
45716,note_on,,,,,52,0,3,,,,,2,54,0
45716,note_on,,,,,52,0,2,,,,,1,76,0
45724,note_on,,,,,8,0,3,,,,,2,59,64
45724,note_on,,,,,8,0,2,,,,,1,75,64
45776,note_on,,,,,52,0,3,,,,,2,59,0
45776,note_on,,,,,52,0,2,,,,,1,75,0
45784,note_on,,,,,8,0,3,,,,,2,58,64
45784,note_on,,,,,8,0,2,,,,,1,78,64
45829,note_on,,,,,225,0,1,,,,,0,83,0
45836,note_on,,,,,52,0,3,,,,,2,58,0
45836,note_on,,,,,52,0,2,,,,,1,78,0
45844,note_on,,,,,15,0,1,,,,,0,76,64
45844,note_on,,,,,8,0,3,,,,,2,56,64
45844,note_on,,,,,8,0,2,,,,,1,71,64
45896,note_on,,,,,292,0,4,,,,,3,51,0
45904,note_on,,,,,8,0,4,,,,,3,49,64
45956,note_on,,,,,52,0,4,,,,,3,49,0
45964,note_on,,,,,8,0,4,,,,,3,47,64
46016,note_on,,,,,52,0,4,,,,,3,47,0
46024,note_on,,,,,8,0,4,,,,,3,51,64
46076,note_on,,,,,52,0,4,,,,,3,51,0
46084,note_on,,,,,8,0,4,,,,,3,49,64
46136,note_on,,,,,292,0,3,,,,,2,56,0
46136,note_on,,,,,292,0,2,,,,,1,71,0
46144,note_on,,,,,8,0,2,,,,,1,70,64
46144,note_on,,,,,8,0,3,,,,,2,54,64
46196,note_on,,,,,52,0,2,,,,,1,70,0
46196,note_on,,,,,52,0,3,,,,,2,54,0
46204,note_on,,,,,8,0,3,,,,,2,52,64
46204,note_on,,,,,8,0,2,,,,,1,68,64
46256,note_on,,,,,52,0,2,,,,,1,68,0
46256,note_on,,,,,52,0,3,,,,,2,52,0
46264,note_on,,,,,8,0,2,,,,,1,71,64
46264,note_on,,,,,8,0,3,,,,,2,56,64
46316,note_on,,,,,52,0,2,,,,,1,71,0
46316,note_on,,,,,52,0,3,,,,,2,56,0
46324,note_on,,,,,8,0,3,,,,,2,61,64
46324,note_on,,,,,8,0,2,,,,,1,70,64
46376,note_on,,,,,52,0,2,,,,,1,70,0
46376,note_on,,,,,292,0,4,,,,,3,49,0
46384,note_on,,,,,8,0,4,,,,,3,51,64
46384,note_on,,,,,8,0,2,,,,,1,71,64
46436,note_on,,,,,52,0,2,,,,,1,71,0
46436,note_on,,,,,52,0,4,,,,,3,51,0
46444,note_on,,,,,8,0,2,,,,,1,73,64
46444,note_on,,,,,8,0,4,,,,,3,52,64
46496,note_on,,,,,52,0,4,,,,,3,52,0
46496,note_on,,,,,52,0,2,,,,,1,73,0
46504,note_on,,,,,8,0,2,,,,,1,70,64
46504,note_on,,,,,8,0,4,,,,,3,49,64
46556,note_on,,,,,52,0,4,,,,,3,49,0
46556,note_on,,,,,52,0,2,,,,,1,70,0
46564,note_on,,,,,8,0,4,,,,,3,58,64
46564,note_on,,,,,8,0,2,,,,,1,66,64
46616,note_on,,,,,292,0,3,,,,,2,61,0
46616,note_on,,,,,772,0,1,,,,,0,76,0
46624,note_on,,,,,8,0,3,,,,,2,59,64
46624,note_on,,,,,8,0,1,,,,,0,75,64
46676,note_on,,,,,52,0,1,,,,,0,75,0
46676,note_on,,,,,52,0,3,,,,,2,59,0
46684,note_on,,,,,8,0,1,,,,,0,76,64
46684,note_on,,,,,8,0,3,,,,,2,61,64
46736,note_on,,,,,52,0,1,,,,,0,76,0
46736,note_on,,,,,52,0,3,,,,,2,61,0
46744,note_on,,,,,8,0,3,,,,,2,59,64
46744,note_on,,,,,8,0,1,,,,,0,75,64
46796,note_on,,,,,52,0,3,,,,,2,59,0
46796,note_on,,,,,52,0,1,,,,,0,75,0
46804,note_on,,,,,8,0,3,,,,,2,61,64
46804,note_on,,,,,8,0,1,,,,,0,76,64
46856,note_on,,,,,292,0,4,,,,,3,58,0
46864,note_on,,,,,8,0,4,,,,,3,56,64
46909,note_on,,,,,105,0,3,,,,,2,61,0
46909,note_on,,,,,105,0,1,,,,,0,76,0
46909,note_on,,,,,345,0,2,,,,,1,66,0
46916,note_on,,,,,52,0,4,,,,,3,56,0
46924,note_on,,,,,8,0,4,,,,,3,54,64
46976,note_on,,,,,52,0,4,,,,,3,54,0
46984,note_on,,,,,8,0,4,,,,,3,56,64
47036,note_on,,,,,52,0,4,,,,,3,56,0
47044,note_on,,,,,135,0,1,,,,,0,75,64
47044,note_on,,,,,135,0,2,,,,,1,71,64
47044,note_on,,,,,8,0,4,,,,,3,57,64
47044,note_on,,,,,135,0,3,,,,,2,66,64
47096,note_on,,,,,52,0,3,,,,,2,66,0
47096,note_on,,,,,52,0,1,,,,,0,75,0
47104,note_on,,,,,8,0,3,,,,,2,64,64
47104,note_on,,,,,8,0,1,,,,,0,73,64
47156,note_on,,,,,52,0,1,,,,,0,73,0
47156,note_on,,,,,52,0,3,,,,,2,64,0
47164,note_on,,,,,8,0,3,,,,,2,66,64
47164,note_on,,,,,8,0,1,,,,,0,75,64
47216,note_on,,,,,52,0,3,,,,,2,66,0
47216,note_on,,,,,52,0,1,,,,,0,75,0
47224,note_on,,,,,8,0,1,,,,,0,73,64
47224,note_on,,,,,8,0,3,,,,,2,64,64
47276,note_on,,,,,52,0,3,,,,,2,64,0
47276,note_on,,,,,52,0,1,,,,,0,73,0
47284,note_on,,,,,8,0,3,,,,,2,66,64
47284,note_on,,,,,8,0,1,,,,,0,75,64
47336,note_on,,,,,292,0,4,,,,,3,57,0
47344,note_on,,,,,8,0,4,,,,,3,56,64
47389,note_on,,,,,105,0,3,,,,,2,66,0
47389,note_on,,,,,345,0,2,,,,,1,71,0
47389,note_on,,,,,105,0,1,,,,,0,75,0
47396,note_on,,,,,52,0,4,,,,,3,56,0
47404,note_on,,,,,8,0,4,,,,,3,54,64
47456,note_on,,,,,52,0,4,,,,,3,54,0
47464,note_on,,,,,8,0,4,,,,,3,57,64
47516,note_on,,,,,52,0,4,,,,,3,57,0
47524,note_on,,,,,8,0,4,,,,,3,56,64
47584,note_on,,,,,195,0,1,,,,,0,65,64
47636,note_on,,,,,52,0,1,,,,,0,65,0
47644,note_on,,,,,8,0,1,,,,,0,74,64
47644,note_on,,,,,255,0,3,,,,,2,59,64
47696,note_on,,,,,52,0,1,,,,,0,74,0
47704,note_on,,,,,8,0,1,,,,,0,73,64
47749,note_on,,,,,105,0,3,,,,,2,59,0
47756,note_on,,,,,52,0,1,,,,,0,73,0
47764,note_on,,,,,15,0,3,,,,,2,62,64
47764,note_on,,,,,8,0,1,,,,,0,71,64
47816,note_on,,,,,52,0,1,,,,,0,71,0
47824,note_on,,,,,8,0,1,,,,,0,73,64
47876,note_on,,,,,52,0,1,,,,,0,73,0
47884,note_on,,,,,495,0,2,,,,,1,65,64
47884,note_on,,,,,8,0,1,,,,,0,74,64
47936,note_on,,,,,52,0,1,,,,,0,74,0
47944,note_on,,,,,8,0,1,,,,,0,71,64
47989,note_on,,,,,465,0,4,,,,,3,56,0
47989,note_on,,,,,105,0,2,,,,,1,65,0
47989,note_on,,,,,225,0,3,,,,,2,62,0
47996,note_on,,,,,52,0,1,,,,,0,71,0
48004,note_on,,,,,15,0,4,,,,,3,59,64
48004,note_on,,,,,15,0,3,,,,,2,62,64
48004,note_on,,,,,15,0,2,,,,,1,65,64
48004,note_on,,,,,8,0,1,,,,,0,68,64
48056,note_on,,,,,52,0,1,,,,,0,68,0
48064,note_on,,,,,8,0,1,,,,,0,69,64
48116,note_on,,,,,52,0,1,,,,,0,69,0
48124,note_on,,,,,8,0,1,,,,,0,71,64
48176,note_on,,,,,52,0,1,,,,,0,71,0
48184,note_on,,,,,8,0,1,,,,,0,68,64
48229,note_on,,,,,225,0,4,,,,,3,59,0
48229,note_on,,,,,225,0,2,,,,,1,65,0
48229,note_on,,,,,225,0,3,,,,,2,62,0
48236,note_on,,,,,52,0,1,,,,,0,68,0
48244,note_on,,,,,8,0,1,,,,,0,65,64
48296,note_on,,,,,52,0,1,,,,,0,65,0
48304,note_on,,,,,8,0,1,,,,,0,74,64
48356,note_on,,,,,52,0,1,,,,,0,74,0
48364,note_on,,,,,8,0,1,,,,,0,73,64
48364,note_on,,,,,135,0,4,,,,,3,53,64
48364,note_on,,,,,135,0,2,,,,,1,61,64
48364,note_on,,,,,135,0,3,,,,,2,56,64
48416,note_on,,,,,52,0,1,,,,,0,73,0
48424,note_on,,,,,8,0,1,,,,,0,71,64
48469,note_on,,,,,105,0,4,,,,,3,53,0
48469,note_on,,,,,105,0,3,,,,,2,56,0
48476,note_on,,,,,52,0,1,,,,,0,71,0
48484,note_on,,,,,8,0,1,,,,,0,70,64
48484,note_on,,,,,15,0,4,,,,,3,54,64
48484,note_on,,,,,15,0,3,,,,,2,54,64
48536,note_on,,,,,52,0,4,,,,,3,54,0
48536,note_on,,,,,172,0,2,,,,,1,61,0
48544,note_on,,,,,8,0,4,,,,,3,52,64
48544,note_on,,,,,8,0,2,,,,,1,68,64
48589,note_on,,,,,105,0,3,,,,,2,54,0
48596,note_on,,,,,52,0,4,,,,,3,52,0
48596,note_on,,,,,52,0,2,,,,,1,68,0
48604,note_on,,,,,8,0,4,,,,,3,51,64
48604,note_on,,,,,8,0,2,,,,,1,66,64
48656,note_on,,,,,52,0,4,,,,,3,51,0
48656,note_on,,,,,52,0,2,,,,,1,66,0
48664,note_on,,,,,8,0,4,,,,,3,49,64
48664,note_on,,,,,8,0,2,,,,,1,64,64
48670,set_tempo,,,,,48670,1,0,,506329,,,,,
48685,set_tempo,,,,,15,1,0,,508475,,,,,
48697,set_tempo,,,,,12,1,0,,510638,,,,,
48709,note_on,,,,,225,0,1,,,,,0,70,0
48712,set_tempo,,,,,15,1,0,,512821,,,,,
48716,note_on,,,,,52,0,2,,,,,1,64,0
48716,note_on,,,,,52,0,4,,,,,3,49,0
48724,note_on,,,,,8,0,4,,,,,3,47,64
48724,note_on,,,,,8,0,2,,,,,1,63,64
48725,set_tempo,,,,,13,1,0,,515021,,,,,
48740,set_tempo,,,,,15,1,0,,517241,,,,,
48752,set_tempo,,,,,12,1,0,,519481,,,,,
48767,set_tempo,,,,,15,1,0,,521739,,,,,
48776,note_on,,,,,52,0,4,,,,,3,47,0
48780,set_tempo,,,,,13,1,0,,524017,,,,,
48784,note_on,,,,,75,0,1,,,,,0,66,64
48784,note_on,,,,,8,0,4,,,,,3,49,64
48795,set_tempo,,,,,15,1,0,,526316,,,,,
48807,set_tempo,,,,,12,1,0,,528634,,,,,
48822,set_tempo,,,,,15,1,0,,530973,,,,,
48835,set_tempo,,,,,13,1,0,,533333,,,,,
48836,note_on,,,,,52,0,1,,,,,0,66,0
48836,note_on,,,,,52,0,4,,,,,3,49,0
48844,note_on,,,,,8,0,4,,,,,3,51,64
48844,note_on,,,,,8,0,1,,,,,0,71,64
48850,set_tempo,,,,,15,1,0,,535714,,,,,
48862,set_tempo,,,,,12,1,0,,538117,,,,,
48877,set_tempo,,,,,15,1,0,,540541,,,,,
48889,note_on,,,,,165,0,2,,,,,1,63,0
48890,set_tempo,,,,,13,1,0,,542986,,,,,
48896,note_on,,,,,52,0,4,,,,,3,51,0
48904,note_on,,,,,15,0,2,,,,,1,62,64
48904,note_on,,,,,8,0,4,,,,,3,41,64
48905,set_tempo,,,,,15,1,0,,545455,,,,,
48917,set_tempo,,,,,12,1,0,,547945,,,,,
48932,set_tempo,,,,,15,1,0,,550459,,,,,
48945,set_tempo,,,,,13,1,0,,552995,,,,,
48956,note_on,,,,,52,0,2,,,,,1,62,0
48956,note_on,,,,,52,0,4,,,,,3,41,0
48960,set_tempo,,,,,15,1,0,,555556,,,,,
48964,note_on,,,,,8,0,2,,,,,1,61,64
48964,note_on,,,,,8,0,4,,,,,3,42,64
48972,set_tempo,,,,,12,1,0,,558140,,,,,
48987,set_tempo,,,,,15,1,0,,560748,,,,,
49000,set_tempo,,,,,13,1,0,,563380,,,,,
49015,set_tempo,,,,,15,1,0,,566038,,,,,
49016,note_on,,,,,52,0,2,,,,,1,61,0
49024,note_on,,,,,8,0,2,,,,,1,63,64
49027,set_tempo,,,,,12,1,0,,568720,,,,,
49042,set_tempo,,,,,15,1,0,,571429,,,,,
49055,set_tempo,,,,,13,1,0,,574163,,,,,
49069,note_on,,,,,225,0,1,,,,,0,71,0
49070,set_tempo,,,,,15,1,0,,576923,,,,,
49076,note_on,,,,,52,0,2,,,,,1,63,0
49082,set_tempo,,,,,12,1,0,,579710,,,,,
49084,note_on,,,,,8,0,2,,,,,1,64,64
49084,note_on,,,,,15,0,1,,,,,0,70,64
49097,set_tempo,,,,,15,1,0,,582524,,,,,
49110,set_tempo,,,,,13,1,0,,585366,,,,,
49125,set_tempo,,,,,15,1,0,,588235,,,,,
49136,note_on,,,,,52,0,1,,,,,0,70,0
49137,set_tempo,,,,,12,1,0,,591133,,,,,
49144,note_on,,,,,8,0,1,,,,,0,68,64
49144,note_on,,,,,555,0,3,,,,,2,49,64
49152,set_tempo,,,,,15,1,0,,594059,,,,,
49165,set_tempo,,,,,13,1,0,,597015,,,,,
49180,set_tempo,,,,,15,1,0,,600000,,,,,
49192,set_tempo,,,,,12,1,0,,603015,,,,,
49196,note_on,,,,,52,0,1,,,,,0,68,0
49196,note_on,,,,,52,0,3,,,,,2,49,0
49204,note_on,,,,,8,0,1,,,,,0,70,64
49204,note_on,,,,,8,0,3,,,,,2,54,64
49207,set_tempo,,,,,15,1,0,,606061,,,,,
49220,set_tempo,,,,,13,1,0,,609137,,,,,
49235,set_tempo,,,,,15,1,0,,612245,,,,,
49247,set_tempo,,,,,12,1,0,,615385,,,,,
49256,note_on,,,,,172,0,2,,,,,1,64,0
49262,set_tempo,,,,,15,1,0,,618557,,,,,
49264,note_on,,,,,8,0,2,,,,,1,68,64
49275,set_tempo,,,,,13,1,0,,621762,,,,,
49282,set_tempo,,,,,7,1,0,,625000,,,,,
49287,set_tempo,,,,,5,1,0,,628272,,,,,
49292,set_tempo,,,,,5,1,0,,631579,,,,,
49297,set_tempo,,,,,5,1,0,,634921,,,,,
49302,set_tempo,,,,,5,1,0,,638298,,,,,
49310,set_tempo,,,,,8,1,0,,641711,,,,,
49315,set_tempo,,,,,5,1,0,,645161,,,,,
49316,note_on,,,,,52,0,2,,,,,1,68,0
49320,set_tempo,,,,,5,1,0,,648649,,,,,
49324,note_on,,,,,8,0,2,,,,,1,66,64
49325,set_tempo,,,,,5,1,0,,652174,,,,,
49330,set_tempo,,,,,5,1,0,,655738,,,,,
49335,set_tempo,,,,,5,1,0,,659341,,,,,
49342,set_tempo,,,,,7,1,0,,662983,,,,,
49347,set_tempo,,,,,5,1,0,,666667,,,,,
49352,set_tempo,,,,,5,1,0,,670391,,,,,
49357,set_tempo,,,,,5,1,0,,674157,,,,,
49362,set_tempo,,,,,5,1,0,,677966,,,,,
49370,set_tempo,,,,,8,1,0,,681818,,,,,
49375,set_tempo,,,,,5,1,0,,685714,,,,,
49376,note_on,,,,,52,0,2,,,,,1,66,0
49380,set_tempo,,,,,5,1,0,,689655,,,,,
49384,note_on,,,,,8,0,2,,,,,1,64,64
49385,set_tempo,,,,,5,1,0,,693642,,,,,
49390,set_tempo,,,,,5,1,0,,697674,,,,,
49395,set_tempo,,,,,5,1,0,,701754,,,,,
49400,set_tempo,,,,,5,1,0,,705882,,,,,
49402,set_tempo,,,,,2,1,0,,710059,,,,,
49405,set_tempo,,,,,3,1,0,,714286,,,,,
49407,set_tempo,,,,,2,1,0,,718563,,,,,
49412,set_tempo,,,,,5,1,0,,722892,,,,,
49415,set_tempo,,,,,3,1,0,,727273,,,,,
49417,set_tempo,,,,,2,1,0,,731707,,,,,
49420,set_tempo,,,,,3,1,0,,736196,,,,,
49422,set_tempo,,,,,2,1,0,,740741,,,,,
49427,set_tempo,,,,,5,1,0,,745342,,,,,
49429,note_on,,,,,225,0,1,,,,,0,70,0
49429,note_on,,,,,465,0,4,,,,,3,42,0
49430,set_tempo,,,,,3,1,0,,750000,,,,,
49432,set_tempo,,,,,2,1,0,,754717,,,,,
49435,set_tempo,,,,,3,1,0,,759494,,,,,
49436,note_on,,,,,52,0,2,,,,,1,64,0
49440,set_tempo,,,,,5,1,0,,764331,,,,,
49442,set_tempo,,,,,2,1,0,,769231,,,,,
49444,note_on,,,,,15,0,1,,,,,0,71,64
49444,note_on,,,,,15,0,4,,,,,3,47,64
49444,note_on,,,,,8,0,2,,,,,1,63,64
49445,set_tempo,,,,,3,1,0,,774194,,,,,
49447,set_tempo,,,,,2,1,0,,779221,,,,,
49450,set_tempo,,,,,3,1,0,,784314,,,,,
49455,set_tempo,,,,,5,1,0,,789474,,,,,
49457,set_tempo,,,,,2,1,0,,794702,,,,,
49460,set_tempo,,,,,3,1,0,,800000,,,,,
49462,set_tempo,,,,,2,1,0,,805369,,,,,
49467,set_tempo,,,,,5,1,0,,810811,,,,,
49470,set_tempo,,,,,3,1,0,,816327,,,,,
49472,set_tempo,,,,,2,1,0,,821918,,,,,
49475,set_tempo,,,,,3,1,0,,827586,,,,,
49477,set_tempo,,,,,2,1,0,,833333,,,,,
49482,set_tempo,,,,,5,1,0,,839161,,,,,
49485,set_tempo,,,,,3,1,0,,845070,,,,,
49487,set_tempo,,,,,2,1,0,,851064,,,,,
49490,set_tempo,,,,,3,1,0,,857143,,,,,
49495,set_tempo,,,,,5,1,0,,863309,,,,,
49497,set_tempo,,,,,2,1,0,,869565,,,,,
49500,set_tempo,,,,,3,1,0,,875912,,,,,
49502,set_tempo,,,,,2,1,0,,882353,,,,,
49505,set_tempo,,,,,3,1,0,,888889,,,,,
49510,set_tempo,,,,,5,1,0,,895522,,,,,
49512,set_tempo,,,,,2,1,0,,902256,,,,,
49515,set_tempo,,,,,3,1,0,,909091,,,,,
49517,set_tempo,,,,,2,1,0,,916031,,,,,
49520,set_tempo,,,,,3,1,0,,923077,,,,,
49525,set_tempo,,,,,5,1,0,,930233,,,,,
49527,set_tempo,,,,,2,1,0,,937500,,,,,
49530,set_tempo,,,,,3,1,0,,944882,,,,,
49532,set_tempo,,,,,2,1,0,,952381,,,,,
49535,set_tempo,,,,,3,1,0,,960000,,,,,
49540,set_tempo,,,,,5,1,0,,967742,,,,,
49542,set_tempo,,,,,2,1,0,,975610,,,,,
49545,set_tempo,,,,,3,1,0,,983607,,,,,
49547,set_tempo,,,,,2,1,0,,991736,,,,,
49550,set_tempo,,,,,3,1,0,,1000000,,,,,
49552,set_tempo,,,,,2,1,0,,1008403,,,,,
49555,set_tempo,,,,,3,1,0,,1016949,,,,,
49557,set_tempo,,,,,2,1,0,,1025641,,,,,
49560,set_tempo,,,,,3,1,0,,1034483,,,,,
49562,set_tempo,,,,,2,1,0,,1043478,,,,,
49565,set_tempo,,,,,3,1,0,,1052632,,,,,
49567,set_tempo,,,,,2,1,0,,1061947,,,,,
49570,set_tempo,,,,,3,1,0,,1071429,,,,,
49572,set_tempo,,,,,2,1,0,,1081081,,,,,
49575,set_tempo,,,,,3,1,0,,1090909,,,,,
49577,set_tempo,,,,,2,1,0,,1100917,,,,,
49580,set_tempo,,,,,3,1,0,,1111111,,,,,
49582,set_tempo,,,,,2,1,0,,1121495,,,,,
49585,set_tempo,,,,,3,1,0,,1132075,,,,,
49587,set_tempo,,,,,2,1,0,,1142857,,,,,
49590,set_tempo,,,,,3,1,0,,1153846,,,,,
49592,set_tempo,,,,,2,1,0,,1165049,,,,,
49595,set_tempo,,,,,3,1,0,,1176471,,,,,
49597,set_tempo,,,,,2,1,0,,1188119,,,,,
49600,set_tempo,,,,,3,1,0,,1200000,,,,,
49602,set_tempo,,,,,2,1,0,,1212121,,,,,
49605,set_tempo,,,,,3,1,0,,1224490,,,,,
49607,set_tempo,,,,,2,1,0,,1237113,,,,,
49607,end_of_track,,,,,0,1,0,,,,,,,
49909,note_on,,,,,705,0,3,,,,,2,54,0
49909,note_on,,,,,465,0,1,,,,,0,71,0
49909,end_of_track,,,,,0,1,1,,,,,,,
49909,note_on,,,,,465,0,4,,,,,3,47,0
49909,note_on,,,,,465,0,2,,,,,1,63,0
49909,end_of_track,,,,,0,1,2,,,,,,,
49909,end_of_track,,,,,0,1,3,,,,,,,
49909,end_of_track,,,,,0,1,4,,,,,,,
