tick,type,numerator,denominator,clocks_per_click,notated_32nd_notes_per_beat,time,meta,track,key,tempo,port,program,channel,note,velocity
0,time_signature,2,2,48,8,0,1,0,,,,,,,
0,note_on,,,,,0,0,4,,,,,3,51,64
0,program_change,,,,,0,0,4,,,,6,3,,
0,track_name,,,,,0,1,4,,,,,,,
0,midi_port,,,,,0,1,4,,,0,,,,
0,program_change,,,,,0,0,3,,,,6,2,,
0,track_name,,,,,0,1,3,,,,,,,
0,midi_port,,,,,0,1,3,,,0,,,,
0,midi_port,,,,,0,1,2,,,0,,,,
0,track_name,,,,,0,1,2,,,,,,,
0,program_change,,,,,0,0,2,,,,6,1,,
0,program_change,,,,,0,0,1,,,,6,0,,
0,track_name,,,,,0,1,1,,,,,,,
0,midi_port,,,,,0,1,1,,,0,,,,
0,end_of_track,,,,,0,1,0,,,,,,,
0,marker,,,,,0,1,0,,,,,,,
0,set_tempo,,,,,0,1,0,,400000,,,,,
0,key_signature,,,,,0,1,0,Eb,,,,,,
480,note_on,,,,,480,0,4,,,,,3,51,0
480,note_on,,,,,0,0,4,,,,,3,58,64
720,note_on,,,,,240,0,4,,,,,3,58,0
840,note_on,,,,,120,0,4,,,,,3,56,64
960,note_on,,,,,0,0,4,,,,,3,55,64
960,note_on,,,,,120,0,4,,,,,3,56,0
1080,note_on,,,,,0,0,4,,,,,3,60,64
1080,note_on,,,,,120,0,4,,,,,3,55,0
1320,note_on,,,,,0,0,4,,,,,3,58,64
1320,note_on,,,,,240,0,4,,,,,3,60,0
1440,note_on,,,,,120,0,4,,,,,3,58,0
1440,note_on,,,,,0,0,4,,,,,3,56,64
1560,note_on,,,,,120,0,4,,,,,3,56,0
1560,note_on,,,,,0,0,4,,,,,3,56,64
1620,note_on,,,,,0,0,4,,,,,3,55,64
1620,note_on,,,,,60,0,4,,,,,3,56,0
1680,note_on,,,,,0,0,4,,,,,3,56,64
1680,note_on,,,,,60,0,4,,,,,3,55,0
1800,note_on,,,,,120,0,4,,,,,3,56,0
1800,note_on,,,,,0,0,4,,,,,3,60,64
1920,note_on,,,,,120,0,4,,,,,3,60,0
1920,note_on,,,,,0,0,4,,,,,3,53,64
2040,note_on,,,,,120,0,4,,,,,3,53,0
2040,note_on,,,,,0,0,4,,,,,3,58,64
2280,note_on,,,,,0,0,4,,,,,3,56,64
2280,note_on,,,,,240,0,4,,,,,3,58,0
2400,note_on,,,,,0,0,4,,,,,3,55,64
2400,note_on,,,,,120,0,4,,,,,3,56,0
2520,note_on,,,,,120,0,4,,,,,3,55,0
2520,note_on,,,,,0,0,4,,,,,3,55,64
2580,note_on,,,,,60,0,4,,,,,3,55,0
2580,note_on,,,,,0,0,4,,,,,3,53,64
2640,note_on,,,,,60,0,4,,,,,3,53,0
2640,note_on,,,,,0,0,4,,,,,3,55,64
2760,note_on,,,,,0,0,4,,,,,3,58,64
2760,note_on,,,,,120,0,4,,,,,3,55,0
2880,note_on,,,,,2880,0,3,,,,,2,58,64
2880,note_on,,,,,0,0,4,,,,,3,51,64
2880,note_on,,,,,120,0,4,,,,,3,58,0
3000,note_on,,,,,0,0,4,,,,,3,51,64
3000,note_on,,,,,120,0,4,,,,,3,51,0
3060,note_on,,,,,0,0,4,,,,,3,50,64
3060,note_on,,,,,60,0,4,,,,,3,51,0
3120,note_on,,,,,0,0,4,,,,,3,51,64
3120,note_on,,,,,60,0,4,,,,,3,50,0
3240,note_on,,,,,120,0,4,,,,,3,51,0
3240,note_on,,,,,0,0,4,,,,,3,55,64
3360,note_on,,,,,0,0,3,,,,,2,63,64
3360,note_on,,,,,120,0,4,,,,,3,55,0
3360,note_on,,,,,0,0,4,,,,,3,48,64
3360,note_on,,,,,480,0,3,,,,,2,58,0
3480,note_on,,,,,120,0,4,,,,,3,48,0
3480,note_on,,,,,0,0,4,,,,,3,50,64
3540,note_on,,,,,0,0,4,,,,,3,51,64
3540,note_on,,,,,60,0,4,,,,,3,50,0
3600,note_on,,,,,0,0,4,,,,,3,53,64
3600,note_on,,,,,240,0,3,,,,,2,63,0
3600,note_on,,,,,60,0,4,,,,,3,51,0
3720,note_on,,,,,120,0,3,,,,,2,63,64
3840,note_on,,,,,240,0,4,,,,,3,53,0
3840,note_on,,,,,0,0,3,,,,,2,62,64
3840,note_on,,,,,0,0,4,,,,,3,46,64
3840,note_on,,,,,120,0,3,,,,,2,63,0
3960,note_on,,,,,120,0,3,,,,,2,62,0
3960,note_on,,,,,0,0,3,,,,,2,67,64
4080,note_on,,,,,0,0,4,,,,,3,58,64
4080,note_on,,,,,240,0,4,,,,,3,46,0
4200,note_on,,,,,240,0,3,,,,,2,67,0
4200,note_on,,,,,0,0,3,,,,,2,65,64
4320,note_on,,,,,0,0,3,,,,,2,63,64
4320,note_on,,,,,120,0,3,,,,,2,65,0
4440,note_on,,,,,0,0,3,,,,,2,63,64
4440,note_on,,,,,120,0,3,,,,,2,63,0
4500,note_on,,,,,60,0,3,,,,,2,63,0
4500,note_on,,,,,0,0,3,,,,,2,62,64
4560,note_on,,,,,0,0,4,,,,,3,57,64
4560,note_on,,,,,60,0,3,,,,,2,62,0
4560,note_on,,,,,0,0,3,,,,,2,63,64
4560,note_on,,,,,480,0,4,,,,,3,58,0
4680,note_on,,,,,120,0,4,,,,,3,57,0
4680,note_on,,,,,120,0,3,,,,,2,63,0
4680,note_on,,,,,0,0,3,,,,,2,67,64
4680,note_on,,,,,0,0,4,,,,,3,55,64
4800,note_on,,,,,0,0,3,,,,,2,60,64
4800,note_on,,,,,120,0,3,,,,,2,67,0
4800,note_on,,,,,0,0,4,,,,,3,57,64
4800,note_on,,,,,120,0,4,,,,,3,55,0
4920,note_on,,,,,0,0,3,,,,,2,65,64
4920,note_on,,,,,120,0,3,,,,,2,60,0
4980,note_on,,,,,0,0,4,,,,,3,58,64
4980,note_on,,,,,180,0,4,,,,,3,57,0
5010,note_on,,,,,30,0,4,,,,,3,58,0
5010,note_on,,,,,0,0,4,,,,,3,57,64
5040,note_on,,,,,30,0,4,,,,,3,57,0
5040,note_on,,,,,0,0,4,,,,,3,55,64
5160,note_on,,,,,0,0,3,,,,,2,63,64
5160,note_on,,,,,120,0,4,,,,,3,55,0
5160,note_on,,,,,0,0,4,,,,,3,57,64
5160,note_on,,,,,240,0,3,,,,,2,65,0
5280,note_on,,,,,120,0,4,,,,,3,57,0
5280,note_on,,,,,0,0,4,,,,,3,58,64
5280,note_on,,,,,0,0,3,,,,,2,62,64
5280,note_on,,,,,120,0,3,,,,,2,63,0
5400,note_on,,,,,120,0,4,,,,,3,58,0
5400,note_on,,,,,0,0,4,,,,,3,46,64
5400,note_on,,,,,0,0,3,,,,,2,62,64
5400,note_on,,,,,120,0,3,,,,,2,62,0
5460,note_on,,,,,0,0,3,,,,,2,60,64
5460,note_on,,,,,60,0,3,,,,,2,62,0
5520,note_on,,,,,0,0,4,,,,,3,58,64
5520,note_on,,,,,60,0,3,,,,,2,60,0
5520,note_on,,,,,0,0,3,,,,,2,62,64
5520,note_on,,,,,120,0,4,,,,,3,46,0
5640,note_on,,,,,120,0,3,,,,,2,62,0
5640,note_on,,,,,0,0,3,,,,,2,65,64
5640,note_on,,,,,120,0,4,,,,,3,58,0
5640,note_on,,,,,0,0,4,,,,,3,56,64
5760,note_on,,,,,120,0,3,,,,,2,65,0
5760,note_on,,,,,0,0,3,,,,,2,58,64
5760,note_on,,,,,0,0,4,,,,,3,55,64
5760,note_on,,,,,120,0,4,,,,,3,56,0
5880,note_on,,,,,120,0,3,,,,,2,58,0
5880,note_on,,,,,0,0,3,,,,,2,58,64
5880,note_on,,,,,0,0,4,,,,,3,43,64
5880,note_on,,,,,120,0,4,,,,,3,55,0
5940,note_on,,,,,60,0,3,,,,,2,58,0
5940,note_on,,,,,0,0,3,,,,,2,56,64
6000,note_on,,,,,120,0,4,,,,,3,43,0
6000,note_on,,,,,0,0,4,,,,,3,55,64
6000,note_on,,,,,0,0,3,,,,,2,58,64
6000,note_on,,,,,60,0,3,,,,,2,56,0
6120,note_on,,,,,0,0,4,,,,,3,53,64
6120,note_on,,,,,120,0,4,,,,,3,55,0
6120,note_on,,,,,0,0,3,,,,,2,62,64
6120,note_on,,,,,120,0,3,,,,,2,58,0
6240,note_on,,,,,120,0,4,,,,,3,53,0
6240,note_on,,,,,0,0,4,,,,,3,51,64
6240,note_on,,,,,0,0,3,,,,,2,55,64
6240,note_on,,,,,120,0,3,,,,,2,62,0
6240,note_on,,,,,6240,0,2,,,,,1,63,64
6360,note_on,,,,,120,0,4,,,,,3,51,0
6360,note_on,,,,,0,0,4,,,,,3,53,64
6360,note_on,,,,,0,0,3,,,,,2,56,64
6360,note_on,,,,,120,0,3,,,,,2,55,0
6420,note_on,,,,,0,0,4,,,,,3,55,64
6420,note_on,,,,,60,0,4,,,,,3,53,0
6420,note_on,,,,,0,0,3,,,,,2,58,64
6420,note_on,,,,,60,0,3,,,,,2,56,0
6480,note_on,,,,,0,0,4,,,,,3,56,64
6480,note_on,,,,,60,0,4,,,,,3,55,0
6480,note_on,,,,,0,0,3,,,,,2,60,64
6480,note_on,,,,,60,0,3,,,,,2,58,0
6600,note_on,,,,,0,0,3,,,,,2,58,64
6600,note_on,,,,,120,0,3,,,,,2,60,0
6660,note_on,,,,,60,0,3,,,,,2,58,0
6660,note_on,,,,,0,0,3,,,,,2,60,64
6720,note_on,,,,,0,0,3,,,,,2,62,64
6720,note_on,,,,,0,0,2,,,,,1,70,64
6720,note_on,,,,,480,0,2,,,,,1,63,0
6720,note_on,,,,,60,0,3,,,,,2,60,0
6840,note_on,,,,,360,0,4,,,,,3,56,0
6840,note_on,,,,,0,0,4,,,,,3,55,64
6840,note_on,,,,,120,0,3,,,,,2,62,0
6840,note_on,,,,,0,0,3,,,,,2,65,64
6900,note_on,,,,,60,0,4,,,,,3,55,0
6900,note_on,,,,,0,0,4,,,,,3,53,64
6960,note_on,,,,,120,0,3,,,,,2,65,0
6960,note_on,,,,,240,0,2,,,,,1,70,0
6960,note_on,,,,,60,0,4,,,,,3,53,0
6960,note_on,,,,,0,0,4,,,,,3,55,64
6960,note_on,,,,,0,0,3,,,,,2,58,64
7080,note_on,,,,,0,0,4,,,,,3,58,64
7080,note_on,,,,,0,0,3,,,,,2,62,64
7080,note_on,,,,,120,0,4,,,,,3,55,0
7080,note_on,,,,,120,0,2,,,,,1,68,64
7080,note_on,,,,,120,0,3,,,,,2,58,0
7200,note_on,,,,,120,0,3,,,,,2,62,0
7200,note_on,,,,,0,0,3,,,,,2,63,64
7200,note_on,,,,,120,0,4,,,,,3,58,0
7200,note_on,,,,,0,0,4,,,,,3,51,64
7200,note_on,,,,,120,0,2,,,,,1,68,0
7200,note_on,,,,,0,0,2,,,,,1,67,64
7320,note_on,,,,,120,0,4,,,,,3,51,0
7320,note_on,,,,,0,0,4,,,,,3,56,64
7320,note_on,,,,,120,0,2,,,,,1,67,0
7320,note_on,,,,,0,0,2,,,,,1,72,64
7380,note_on,,,,,60,0,4,,,,,3,56,0
7380,note_on,,,,,0,0,4,,,,,3,55,64
7440,note_on,,,,,60,0,4,,,,,3,55,0
7440,note_on,,,,,0,0,4,,,,,3,56,64
7560,note_on,,,,,120,0,4,,,,,3,56,0
7560,note_on,,,,,240,0,2,,,,,1,72,0
7560,note_on,,,,,0,0,2,,,,,1,70,64
7560,note_on,,,,,0,0,4,,,,,3,60,64
7680,note_on,,,,,120,0,2,,,,,1,70,0
7680,note_on,,,,,0,0,4,,,,,3,53,64
7680,note_on,,,,,0,0,2,,,,,1,68,64
7680,note_on,,,,,120,0,4,,,,,3,60,0
7800,note_on,,,,,120,0,2,,,,,1,68,0
7800,note_on,,,,,0,0,2,,,,,1,68,64
7860,note_on,,,,,0,0,2,,,,,1,67,64
7860,note_on,,,,,60,0,2,,,,,1,68,0
7920,note_on,,,,,0,0,2,,,,,1,68,64
7920,note_on,,,,,60,0,2,,,,,1,67,0
7920,note_on,,,,,0,0,3,,,,,2,62,64
7920,note_on,,,,,720,0,3,,,,,2,63,0
8040,note_on,,,,,120,0,2,,,,,1,68,0
8040,note_on,,,,,0,0,3,,,,,2,60,64
8040,note_on,,,,,360,0,4,,,,,3,53,0
8040,note_on,,,,,0,0,4,,,,,3,55,64
8040,note_on,,,,,0,0,2,,,,,1,72,64
8040,note_on,,,,,120,0,3,,,,,2,62,0
8100,note_on,,,,,60,0,4,,,,,3,55,0
8100,note_on,,,,,0,0,4,,,,,3,56,64
8160,note_on,,,,,120,0,2,,,,,1,72,0
8160,note_on,,,,,0,0,2,,,,,1,65,64
8160,note_on,,,,,0,0,4,,,,,3,58,64
8160,note_on,,,,,60,0,4,,,,,3,56,0
8160,note_on,,,,,0,0,3,,,,,2,62,64
8160,note_on,,,,,120,0,3,,,,,2,60,0
8280,note_on,,,,,0,0,2,,,,,1,70,64
8280,note_on,,,,,120,0,2,,,,,1,65,0
8340,note_on,,,,,0,0,3,,,,,2,63,64
8340,note_on,,,,,180,0,3,,,,,2,62,0
8370,note_on,,,,,0,0,3,,,,,2,62,64
8370,note_on,,,,,30,0,3,,,,,2,63,0
8400,note_on,,,,,0,0,3,,,,,2,60,64
8400,note_on,,,,,30,0,3,,,,,2,62,0
8520,note_on,,,,,120,0,3,,,,,2,60,0
8520,note_on,,,,,240,0,2,,,,,1,70,0
8520,note_on,,,,,0,0,2,,,,,1,68,64
8520,note_on,,,,,0,0,3,,,,,2,62,64
8640,note_on,,,,,0,0,4,,,,,3,51,64
8640,note_on,,,,,0,0,3,,,,,2,63,64
8640,note_on,,,,,480,0,4,,,,,3,58,0
8640,note_on,,,,,0,0,2,,,,,1,67,64
8640,note_on,,,,,120,0,3,,,,,2,62,0
8640,note_on,,,,,120,0,2,,,,,1,68,0
8760,note_on,,,,,120,0,2,,,,,1,67,0
8760,note_on,,,,,120,0,3,,,,,2,63,0
8760,note_on,,,,,0,0,2,,,,,1,67,64
8760,note_on,,,,,0,0,3,,,,,2,58,64
8820,note_on,,,,,0,0,2,,,,,1,65,64
8820,note_on,,,,,60,0,3,,,,,2,58,0
8820,note_on,,,,,60,0,2,,,,,1,67,0
8820,note_on,,,,,0,0,3,,,,,2,56,64
8880,note_on,,,,,60,0,2,,,,,1,65,0
8880,note_on,,,,,0,0,3,,,,,2,58,64
8880,note_on,,,,,60,0,3,,,,,2,56,0
8880,note_on,,,,,0,0,2,,,,,1,67,64
9000,note_on,,,,,0,0,4,,,,,3,50,64
9000,note_on,,,,,0,0,2,,,,,1,70,64
9000,note_on,,,,,360,0,4,,,,,3,51,0
9000,note_on,,,,,120,0,2,,,,,1,67,0
9120,note_on,,,,,120,0,4,,,,,3,50,0
9120,note_on,,,,,0,0,4,,,,,3,48,64
9120,note_on,,,,,120,0,2,,,,,1,70,0
9120,note_on,,,,,0,0,2,,,,,1,63,64
9240,note_on,,,,,0,0,2,,,,,1,65,64
9240,note_on,,,,,120,0,2,,,,,1,63,0
9240,note_on,,,,,360,0,3,,,,,2,58,0
9240,note_on,,,,,0,0,3,,,,,2,56,64
9300,note_on,,,,,0,0,3,,,,,2,55,64
9300,note_on,,,,,60,0,3,,,,,2,56,0
9300,note_on,,,,,60,0,2,,,,,1,65,0
9300,note_on,,,,,0,0,2,,,,,1,63,64
9360,note_on,,,,,0,0,2,,,,,1,65,64
9360,note_on,,,,,60,0,2,,,,,1,63,0
9360,note_on,,,,,60,0,3,,,,,2,55,0
9360,note_on,,,,,0,0,3,,,,,2,56,64
9360,note_on,,,,,240,0,4,,,,,3,48,0
9480,note_on,,,,,120,0,4,,,,,3,53,64
9480,note_on,,,,,120,0,2,,,,,1,65,0
9480,note_on,,,,,0,0,2,,,,,1,68,64
9600,note_on,,,,,0,0,4,,,,,3,46,64
9600,note_on,,,,,120,0,4,,,,,3,53,0
9600,note_on,,,,,9600,0,1,,,,,0,70,64
9600,note_on,,,,,0,0,2,,,,,1,62,64
9600,note_on,,,,,120,0,2,,,,,1,68,0
9720,note_on,,,,,0,0,2,,,,,1,63,64
9720,note_on,,,,,120,0,2,,,,,1,62,0
9720,note_on,,,,,360,0,3,,,,,2,56,0
9720,note_on,,,,,0,0,3,,,,,2,55,64
9840,note_on,,,,,120,0,3,,,,,2,55,0
9840,note_on,,,,,0,0,3,,,,,2,53,64
9960,note_on,,,,,120,0,3,,,,,2,53,0
9960,note_on,,,,,0,0,2,,,,,1,62,64
9960,note_on,,,,,240,0,2,,,,,1,63,0
9960,note_on,,,,,0,0,3,,,,,2,58,64
10080,note_on,,,,,480,0,1,,,,,0,70,0
10080,note_on,,,,,120,0,2,,,,,1,62,0
10080,note_on,,,,,0,0,2,,,,,1,60,64
10080,note_on,,,,,0,0,3,,,,,2,55,64
10080,note_on,,,,,120,0,3,,,,,2,58,0
10080,note_on,,,,,0,0,1,,,,,0,75,64
10200,note_on,,,,,0,0,2,,,,,1,67,64
10200,note_on,,,,,120,0,2,,,,,1,60,0
10320,note_on,,,,,0,0,4,,,,,3,45,64
10320,note_on,,,,,720,0,4,,,,,3,46,0
10320,note_on,,,,,240,0,3,,,,,2,55,0
10320,note_on,,,,,0,0,2,,,,,1,72,64
10320,note_on,,,,,120,0,2,,,,,1,67,0
10320,note_on,,,,,0,0,3,,,,,2,53,64
10320,note_on,,,,,240,0,1,,,,,0,75,0
10440,note_on,,,,,120,0,1,,,,,0,75,64
10560,note_on,,,,,120,0,1,,,,,0,75,0
10560,note_on,,,,,0,0,4,,,,,3,46,64
10560,note_on,,,,,240,0,4,,,,,3,45,0
10560,note_on,,,,,0,0,1,,,,,0,74,64
10680,note_on,,,,,0,0,1,,,,,0,79,64
10680,note_on,,,,,120,0,1,,,,,0,74,0
10680,note_on,,,,,0,0,3,,,,,2,50,64
10680,note_on,,,,,360,0,3,,,,,2,53,0
10680,note_on,,,,,0,0,2,,,,,1,70,64
10680,note_on,,,,,360,0,2,,,,,1,72,0
10740,note_on,,,,,0,0,2,,,,,1,69,64
10740,note_on,,,,,60,0,2,,,,,1,70,0
10800,note_on,,,,,60,0,2,,,,,1,69,0
10800,note_on,,,,,240,0,4,,,,,3,46,0
10800,note_on,,,,,0,0,3,,,,,2,55,64
10800,note_on,,,,,120,0,3,,,,,2,50,0
10800,note_on,,,,,0,0,2,,,,,1,70,64
10920,note_on,,,,,240,0,1,,,,,0,79,0
10920,note_on,,,,,0,0,1,,,,,0,77,64
10920,note_on,,,,,120,0,4,,,,,3,43,64
11040,note_on,,,,,120,0,1,,,,,0,77,0
11040,note_on,,,,,0,0,1,,,,,0,75,64
11040,note_on,,,,,0,0,4,,,,,3,48,64
11040,note_on,,,,,120,0,4,,,,,3,43,0
11160,note_on,,,,,0,0,3,,,,,2,60,64
11160,note_on,,,,,360,0,3,,,,,2,55,0
11160,note_on,,,,,0,0,1,,,,,0,75,64
11160,note_on,,,,,120,0,1,,,,,0,75,0
11220,note_on,,,,,0,0,1,,,,,0,74,64
11220,note_on,,,,,60,0,1,,,,,0,75,0
11220,note_on,,,,,0,0,3,,,,,2,58,64
11220,note_on,,,,,60,0,3,,,,,2,60,0
11280,note_on,,,,,0,0,1,,,,,0,75,64
11280,note_on,,,,,60,0,1,,,,,0,74,0
11280,note_on,,,,,60,0,3,,,,,2,58,0
11280,note_on,,,,,0,0,3,,,,,2,60,64
11280,note_on,,,,,0,0,2,,,,,1,69,64
11280,note_on,,,,,480,0,2,,,,,1,70,0
11280,note_on,,,,,240,0,4,,,,,3,48,0
11400,note_on,,,,,120,0,4,,,,,3,51,64
11400,note_on,,,,,0,0,2,,,,,1,67,64
11400,note_on,,,,,120,0,2,,,,,1,69,0
11400,note_on,,,,,120,0,1,,,,,0,75,0
11400,note_on,,,,,0,0,1,,,,,0,79,64
11520,note_on,,,,,120,0,1,,,,,0,79,0
11520,note_on,,,,,0,0,4,,,,,3,53,64
11520,note_on,,,,,120,0,4,,,,,3,51,0
11520,note_on,,,,,0,0,2,,,,,1,69,64
11520,note_on,,,,,120,0,2,,,,,1,67,0
11520,note_on,,,,,0,0,1,,,,,0,72,64
11640,note_on,,,,,120,0,1,,,,,0,72,0
11640,note_on,,,,,0,0,1,,,,,0,77,64
11700,note_on,,,,,420,0,3,,,,,2,60,0
11700,note_on,,,,,0,0,2,,,,,1,70,64
11700,note_on,,,,,180,0,2,,,,,1,69,0
11700,note_on,,,,,0,0,3,,,,,2,62,64
11730,note_on,,,,,0,0,3,,,,,2,60,64
11730,note_on,,,,,0,0,2,,,,,1,69,64
11730,note_on,,,,,30,0,2,,,,,1,70,0
11730,note_on,,,,,30,0,3,,,,,2,62,0
11760,note_on,,,,,30,0,3,,,,,2,60,0
11760,note_on,,,,,0,0,2,,,,,1,67,64
11760,note_on,,,,,0,0,3,,,,,2,58,64
11760,note_on,,,,,30,0,2,,,,,1,69,0
11760,note_on,,,,,240,0,4,,,,,3,53,0
11880,note_on,,,,,120,0,2,,,,,1,67,0
11880,note_on,,,,,240,0,1,,,,,0,77,0
11880,note_on,,,,,0,0,1,,,,,0,75,64
11880,note_on,,,,,120,0,4,,,,,3,53,64
11880,note_on,,,,,0,0,2,,,,,1,69,64
11880,note_on,,,,,0,0,3,,,,,2,60,64
11880,note_on,,,,,120,0,3,,,,,2,58,0
12000,note_on,,,,,120,0,4,,,,,3,53,0
12000,note_on,,,,,120,0,1,,,,,0,75,0
12000,note_on,,,,,0,0,1,,,,,0,74,64
12000,note_on,,,,,0,0,2,,,,,1,70,64
12000,note_on,,,,,0,0,3,,,,,2,62,64
12000,note_on,,,,,0,0,4,,,,,3,58,64
12000,note_on,,,,,120,0,3,,,,,2,60,0
12000,note_on,,,,,120,0,2,,,,,1,69,0
12120,note_on,,,,,0,0,1,,,,,0,74,64
12120,note_on,,,,,120,0,1,,,,,0,74,0
12120,note_on,,,,,0,0,4,,,,,3,53,64
12120,note_on,,,,,120,0,4,,,,,3,58,0
12180,note_on,,,,,0,0,1,,,,,0,72,64
12180,note_on,,,,,60,0,1,,,,,0,74,0
12240,note_on,,,,,240,0,3,,,,,2,62,0
12240,note_on,,,,,0,0,1,,,,,0,74,64
12240,note_on,,,,,60,0,1,,,,,0,72,0
12240,note_on,,,,,0,0,4,,,,,3,58,64
12240,note_on,,,,,120,0,4,,,,,3,53,0
12240,note_on,,,,,240,0,2,,,,,1,70,0
12360,note_on,,,,,120,0,4,,,,,3,58,0
12360,note_on,,,,,0,0,4,,,,,3,57,64
12360,note_on,,,,,120,0,1,,,,,0,74,0
12360,note_on,,,,,0,0,1,,,,,0,77,64
12360,note_on,,,,,120,0,3,,,,,2,60,64
12360,note_on,,,,,120,0,2,,,,,1,65,64
12480,note_on,,,,,120,0,4,,,,,3,57,0
12480,note_on,,,,,0,0,3,,,,,2,62,64
12480,note_on,,,,,120,0,2,,,,,1,65,0
12480,note_on,,,,,0,0,2,,,,,1,67,64
12480,note_on,,,,,120,0,3,,,,,2,60,0
12480,note_on,,,,,0,0,4,,,,,3,55,64
12480,note_on,,,,,120,0,1,,,,,0,77,0
12480,note_on,,,,,0,0,1,,,,,0,70,64
12600,note_on,,,,,0,0,4,,,,,3,50,64
12600,note_on,,,,,120,0,4,,,,,3,55,0
12600,note_on,,,,,120,0,1,,,,,0,70,0
12600,note_on,,,,,0,0,1,,,,,0,70,64
12660,note_on,,,,,60,0,1,,,,,0,70,0
12660,note_on,,,,,0,0,1,,,,,0,69,64
12720,note_on,,,,,0,0,1,,,,,0,70,64
12720,note_on,,,,,60,0,1,,,,,0,69,0
12720,note_on,,,,,240,0,3,,,,,2,62,0
12720,note_on,,,,,0,0,4,,,,,3,55,64
12720,note_on,,,,,240,0,2,,,,,1,67,0
12720,note_on,,,,,120,0,4,,,,,3,50,0
12840,note_on,,,,,120,0,3,,,,,2,56,64
12840,note_on,,,,,0,0,1,,,,,0,74,64
12840,note_on,,,,,120,0,1,,,,,0,70,0
12840,note_on,,,,,120,0,2,,,,,1,62,64
12840,note_on,,,,,0,0,4,,,,,3,53,64
12840,note_on,,,,,120,0,4,,,,,3,55,0
12960,note_on,,,,,0,0,1,,,,,0,67,64
12960,note_on,,,,,120,0,1,,,,,0,74,0
12960,note_on,,,,,120,0,2,,,,,1,62,0
12960,note_on,,,,,0,0,2,,,,,1,63,64
12960,note_on,,,,,0,0,4,,,,,3,51,64
12960,note_on,,,,,120,0,4,,,,,3,53,0
12960,note_on,,,,,0,0,3,,,,,2,58,64
12960,note_on,,,,,120,0,3,,,,,2,56,0
13080,note_on,,,,,0,0,2,,,,,1,65,64
13080,note_on,,,,,120,0,2,,,,,1,63,0
13080,note_on,,,,,0,0,3,,,,,2,60,64
13080,note_on,,,,,120,0,3,,,,,2,58,0
13080,note_on,,,,,120,0,1,,,,,0,67,0
13080,note_on,,,,,0,0,1,,,,,0,69,64
13200,note_on,,,,,120,0,1,,,,,0,69,0
13200,note_on,,,,,0,0,1,,,,,0,70,64
13200,note_on,,,,,120,0,3,,,,,2,60,0
13200,note_on,,,,,0,0,3,,,,,2,61,64
13200,note_on,,,,,120,0,2,,,,,1,65,0
13200,note_on,,,,,0,0,2,,,,,1,67,64
13320,note_on,,,,,0,0,4,,,,,3,52,64
13320,note_on,,,,,360,0,4,,,,,3,51,0
13440,note_on,,,,,0,0,3,,,,,2,60,64
13440,note_on,,,,,240,0,3,,,,,2,61,0
13440,note_on,,,,,0,0,4,,,,,3,53,64
13440,note_on,,,,,120,0,4,,,,,3,52,0
13440,note_on,,,,,240,0,2,,,,,1,67,0
13440,note_on,,,,,0,0,2,,,,,1,65,64
13560,note_on,,,,,0,0,3,,,,,2,58,64
13560,note_on,,,,,120,0,3,,,,,2,60,0
13680,note_on,,,,,120,0,3,,,,,2,58,0
13680,note_on,,,,,0,0,3,,,,,2,60,64
13680,note_on,,,,,480,0,1,,,,,0,70,0
13680,note_on,,,,,0,0,1,,,,,0,69,64
13800,note_on,,,,,0,0,2,,,,,1,63,64
13800,note_on,,,,,360,0,2,,,,,1,65,0
13920,note_on,,,,,120,0,2,,,,,1,63,0
13920,note_on,,,,,0,0,2,,,,,1,62,64
13920,note_on,,,,,240,0,3,,,,,2,60,0
13920,note_on,,,,,240,0,1,,,,,0,69,0
13920,note_on,,,,,0,0,3,,,,,2,58,64
13920,note_on,,,,,0,0,1,,,,,0,70,64
13920,note_on,,,,,480,0,4,,,,,3,53,0
13920,note_on,,,,,0,0,4,,,,,3,46,64
14040,note_on,,,,,0,0,2,,,,,1,65,64
14040,note_on,,,,,120,0,1,,,,,0,70,0
14040,note_on,,,,,0,0,1,,,,,0,74,64
14040,note_on,,,,,120,0,2,,,,,1,62,0
14100,note_on,,,,,0,0,2,,,,,1,67,64
14100,note_on,,,,,60,0,1,,,,,0,74,0
14100,note_on,,,,,0,0,1,,,,,0,75,64
14100,note_on,,,,,60,0,2,,,,,1,65,0
14160,note_on,,,,,0,0,3,,,,,2,58,64
14160,note_on,,,,,240,0,3,,,,,2,58,0
14160,note_on,,,,,240,0,4,,,,,3,46,0
14160,note_on,,,,,60,0,1,,,,,0,75,0
14160,note_on,,,,,60,0,2,,,,,1,67,0
14160,note_on,,,,,0,0,2,,,,,1,68,64
14160,note_on,,,,,0,0,1,,,,,0,77,64
14280,note_on,,,,,0,0,1,,,,,0,74,64
14280,note_on,,,,,120,0,1,,,,,0,77,0
14400,note_on,,,,,0,0,1,,,,,0,70,64
14400,note_on,,,,,240,0,3,,,,,2,58,0
14400,note_on,,,,,0,0,3,,,,,2,63,64
14400,note_on,,,,,120,0,1,,,,,0,74,0
14520,note_on,,,,,0,0,1,,,,,0,75,64
14520,note_on,,,,,120,0,1,,,,,0,70,0
14520,note_on,,,,,360,0,2,,,,,1,68,0
14520,note_on,,,,,0,0,2,,,,,1,67,64
14580,note_on,,,,,60,0,2,,,,,1,67,0
14580,note_on,,,,,0,0,2,,,,,1,68,64
14580,note_on,,,,,0,0,1,,,,,0,77,64
14580,note_on,,,,,60,0,1,,,,,0,75,0
14640,note_on,,,,,0,0,2,,,,,1,70,64
14640,note_on,,,,,60,0,2,,,,,1,68,0
14640,note_on,,,,,240,0,3,,,,,2,63,0
14640,note_on,,,,,0,0,1,,,,,0,79,64
14640,note_on,,,,,60,0,1,,,,,0,77,0
14640,note_on,,,,,480,0,4,,,,,3,51,64
14760,note_on,,,,,0,0,1,,,,,0,75,64
14760,note_on,,,,,0,0,2,,,,,1,67,64
14760,note_on,,,,,120,0,3,,,,,2,63,64
14760,note_on,,,,,120,0,1,,,,,0,79,0
14760,note_on,,,,,120,0,2,,,,,1,70,0
14880,note_on,,,,,240,0,4,,,,,3,51,0
14880,note_on,,,,,0,0,4,,,,,3,58,64
14880,note_on,,,,,120,0,3,,,,,2,63,0
14880,note_on,,,,,0,0,3,,,,,2,62,64
14880,note_on,,,,,0,0,1,,,,,0,77,64
14880,note_on,,,,,120,0,1,,,,,0,75,0
14880,note_on,,,,,120,0,2,,,,,1,67,0
14880,note_on,,,,,0,0,2,,,,,1,65,64
15000,note_on,,,,,120,0,3,,,,,2,62,0
15000,note_on,,,,,0,0,1,,,,,0,75,64
15000,note_on,,,,,120,0,1,,,,,0,77,0
15000,note_on,,,,,0,0,2,,,,,1,70,64
15000,note_on,,,,,120,0,2,,,,,1,65,0
15000,note_on,,,,,0,0,3,,,,,2,67,64
15060,note_on,,,,,60,0,1,,,,,0,75,0
15060,note_on,,,,,0,0,1,,,,,0,74,64
15120,note_on,,,,,0,0,2,,,,,1,68,64
15120,note_on,,,,,60,0,1,,,,,0,74,0
15120,note_on,,,,,240,0,4,,,,,3,58,0
15120,note_on,,,,,120,0,2,,,,,1,70,0
15120,note_on,,,,,0,0,1,,,,,0,72,64
15240,note_on,,,,,120,0,4,,,,,3,56,64
15240,note_on,,,,,0,0,1,,,,,0,74,64
15240,note_on,,,,,0,0,3,,,,,2,65,64
15240,note_on,,,,,240,0,3,,,,,2,67,0
15240,note_on,,,,,120,0,1,,,,,0,72,0
15240,note_on,,,,,0,0,2,,,,,1,70,64
15240,note_on,,,,,120,0,2,,,,,1,68,0
15360,note_on,,,,,120,0,2,,,,,1,70,0
15360,note_on,,,,,120,0,4,,,,,3,56,0
15360,note_on,,,,,0,0,4,,,,,3,55,64
15360,note_on,,,,,0,0,3,,,,,2,63,64
15360,note_on,,,,,120,0,3,,,,,2,65,0
15360,note_on,,,,,0,0,2,,,,,1,58,64
15360,note_on,,,,,120,0,1,,,,,0,74,0
15360,note_on,,,,,0,0,1,,,,,0,75,64
15480,note_on,,,,,120,0,2,,,,,1,58,0
15480,note_on,,,,,120,0,3,,,,,2,63,0
15480,note_on,,,,,120,0,1,,,,,0,75,0
15480,note_on,,,,,0,0,3,,,,,2,63,64
15480,note_on,,,,,0,0,4,,,,,3,60,64
15480,note_on,,,,,120,0,4,,,,,3,55,0
15540,note_on,,,,,60,0,3,,,,,2,63,0
15540,note_on,,,,,0,0,3,,,,,2,62,64
15600,note_on,,,,,0,0,3,,,,,2,63,64
15600,note_on,,,,,60,0,3,,,,,2,62,0
15720,note_on,,,,,120,0,3,,,,,2,63,0
15720,note_on,,,,,0,0,3,,,,,2,67,64
15720,note_on,,,,,240,0,4,,,,,3,60,0
15720,note_on,,,,,0,0,4,,,,,3,58,64
15840,note_on,,,,,0,0,4,,,,,3,56,64
15840,note_on,,,,,120,0,4,,,,,3,58,0
15840,note_on,,,,,120,0,3,,,,,2,67,0
15840,note_on,,,,,0,0,3,,,,,2,60,64
15960,note_on,,,,,0,0,4,,,,,3,56,64
15960,note_on,,,,,120,0,4,,,,,3,56,0
15960,note_on,,,,,120,0,3,,,,,2,60,0
15960,note_on,,,,,0,0,3,,,,,2,65,64
16020,note_on,,,,,0,0,4,,,,,3,55,64
16020,note_on,,,,,60,0,4,,,,,3,56,0
16080,note_on,,,,,60,0,4,,,,,3,55,0
16080,note_on,,,,,0,0,4,,,,,3,56,64
16200,note_on,,,,,120,0,4,,,,,3,56,0
16200,note_on,,,,,0,0,3,,,,,2,63,64
16200,note_on,,,,,240,0,3,,,,,2,65,0
16200,note_on,,,,,0,0,4,,,,,3,60,64
16320,note_on,,,,,120,0,3,,,,,2,63,0
16320,note_on,,,,,0,0,3,,,,,2,62,64
16320,note_on,,,,,0,0,4,,,,,3,53,64
16320,note_on,,,,,120,0,4,,,,,3,60,0
16440,note_on,,,,,120,0,3,,,,,2,62,0
16440,note_on,,,,,0,0,3,,,,,2,62,64
16440,note_on,,,,,0,0,4,,,,,3,58,64
16440,note_on,,,,,120,0,4,,,,,3,53,0
16500,note_on,,,,,60,0,3,,,,,2,62,0
16500,note_on,,,,,0,0,3,,,,,2,60,64
16560,note_on,,,,,0,0,3,,,,,2,62,64
16560,note_on,,,,,60,0,3,,,,,2,60,0
16680,note_on,,,,,0,0,4,,,,,3,56,64
16680,note_on,,,,,120,0,3,,,,,2,62,0
16680,note_on,,,,,240,0,4,,,,,3,58,0
16680,note_on,,,,,0,0,3,,,,,2,65,64
16800,note_on,,,,,120,0,4,,,,,3,56,0
16800,note_on,,,,,0,0,3,,,,,2,58,64
16800,note_on,,,,,0,0,4,,,,,3,55,64
16800,note_on,,,,,120,0,3,,,,,2,65,0
16920,note_on,,,,,120,0,4,,,,,3,55,0
16920,note_on,,,,,0,0,4,,,,,3,55,64
16920,note_on,,,,,0,0,3,,,,,2,58,64
16920,note_on,,,,,120,0,3,,,,,2,58,0
16980,note_on,,,,,60,0,3,,,,,2,58,0
16980,note_on,,,,,0,0,4,,,,,3,53,64
16980,note_on,,,,,60,0,4,,,,,3,55,0
16980,note_on,,,,,0,0,3,,,,,2,56,64
17040,note_on,,,,,60,0,3,,,,,2,56,0
17040,note_on,,,,,0,0,3,,,,,2,58,64
17040,note_on,,,,,0,0,4,,,,,3,55,64
17040,note_on,,,,,60,0,4,,,,,3,53,0
17160,note_on,,,,,120,0,3,,,,,2,58,0
17160,note_on,,,,,0,0,3,,,,,2,62,64
17160,note_on,,,,,120,0,4,,,,,3,55,0
17160,note_on,,,,,0,0,4,,,,,3,58,64
17280,note_on,,,,,120,0,3,,,,,2,62,0
17280,note_on,,,,,0,0,3,,,,,2,55,64
17280,note_on,,,,,120,0,4,,,,,3,58,0
17280,note_on,,,,,0,0,4,,,,,3,51,64
17280,note_on,,,,,1800,0,2,,,,,1,70,64
17400,note_on,,,,,0,0,4,,,,,3,51,64
17400,note_on,,,,,120,0,4,,,,,3,51,0
17460,note_on,,,,,0,0,4,,,,,3,50,64
17460,note_on,,,,,60,0,4,,,,,3,51,0
17520,note_on,,,,,0,0,4,,,,,3,51,64
17520,note_on,,,,,60,0,4,,,,,3,50,0
17520,note_on,,,,,240,0,3,,,,,2,55,0
17520,note_on,,,,,0,0,3,,,,,2,67,64
17640,note_on,,,,,0,0,4,,,,,3,55,64
17640,note_on,,,,,120,0,4,,,,,3,51,0
17760,note_on,,,,,2280,0,1,,,,,0,75,64
17760,note_on,,,,,480,0,2,,,,,1,70,0
17760,note_on,,,,,120,0,4,,,,,3,55,0
17760,note_on,,,,,0,0,4,,,,,3,48,64
17760,note_on,,,,,0,0,2,,,,,1,75,64
17880,note_on,,,,,0,0,3,,,,,2,67,64
17880,note_on,,,,,360,0,3,,,,,2,67,0
17940,note_on,,,,,60,0,3,,,,,2,67,0
17940,note_on,,,,,0,0,3,,,,,2,65,64
18000,note_on,,,,,60,0,3,,,,,2,65,0
18000,note_on,,,,,0,0,3,,,,,2,67,64
18000,note_on,,,,,240,0,2,,,,,1,75,0
18000,note_on,,,,,240,0,4,,,,,3,48,0
18000,note_on,,,,,0,0,4,,,,,3,60,64
18120,note_on,,,,,120,0,2,,,,,1,75,64
18120,note_on,,,,,0,0,3,,,,,2,69,64
18120,note_on,,,,,120,0,3,,,,,2,67,0
18240,note_on,,,,,120,0,3,,,,,2,69,0
18240,note_on,,,,,120,0,2,,,,,1,75,0
18240,note_on,,,,,0,0,2,,,,,1,74,64
18240,note_on,,,,,480,0,1,,,,,0,75,0
18240,note_on,,,,,0,0,1,,,,,0,82,64
18240,note_on,,,,,0,0,4,,,,,3,58,64
18240,note_on,,,,,240,0,4,,,,,3,60,0
18240,note_on,,,,,0,0,3,,,,,2,70,64
18360,note_on,,,,,120,0,3,,,,,2,70,0
18360,note_on,,,,,0,0,3,,,,,2,62,64
18360,note_on,,,,,120,0,2,,,,,1,74,0
18360,note_on,,,,,0,0,2,,,,,1,79,64
18360,note_on,,,,,0,0,4,,,,,3,58,64
18360,note_on,,,,,120,0,4,,,,,3,58,0
18420,note_on,,,,,60,0,3,,,,,2,62,0
18420,note_on,,,,,0,0,4,,,,,3,56,64
18420,note_on,,,,,60,0,4,,,,,3,58,0
18420,note_on,,,,,0,0,3,,,,,2,60,64
18480,note_on,,,,,60,0,3,,,,,2,60,0
18480,note_on,,,,,0,0,4,,,,,3,58,64
18480,note_on,,,,,60,0,4,,,,,3,56,0
18480,note_on,,,,,0,0,3,,,,,2,62,64
18480,note_on,,,,,240,0,1,,,,,0,82,0
18600,note_on,,,,,0,0,2,,,,,1,77,64
18600,note_on,,,,,240,0,2,,,,,1,79,0
18600,note_on,,,,,120,0,3,,,,,2,62,0
18600,note_on,,,,,120,0,1,,,,,0,80,64
18600,note_on,,,,,0,0,4,,,,,3,62,64
18600,note_on,,,,,0,0,3,,,,,2,65,64
18600,note_on,,,,,120,0,4,,,,,3,58,0
18720,note_on,,,,,120,0,1,,,,,0,80,0
18720,note_on,,,,,120,0,4,,,,,3,62,0
18720,note_on,,,,,120,0,3,,,,,2,65,0
18720,note_on,,,,,0,0,3,,,,,2,67,64
18720,note_on,,,,,0,0,1,,,,,0,79,64
18720,note_on,,,,,0,0,4,,,,,3,63,64
18720,note_on,,,,,120,0,2,,,,,1,77,0
18720,note_on,,,,,0,0,2,,,,,1,75,64
18840,note_on,,,,,120,0,3,,,,,2,67,0
18840,note_on,,,,,0,0,3,,,,,2,67,64
18840,note_on,,,,,0,0,1,,,,,0,84,64
18840,note_on,,,,,120,0,1,,,,,0,79,0
18840,note_on,,,,,0,0,2,,,,,1,75,64
18840,note_on,,,,,120,0,2,,,,,1,75,0
18900,note_on,,,,,0,0,2,,,,,1,74,64
18900,note_on,,,,,60,0,2,,,,,1,75,0
18900,note_on,,,,,0,0,3,,,,,2,65,64
18900,note_on,,,,,60,0,3,,,,,2,67,0
18960,note_on,,,,,0,0,3,,,,,2,67,64
18960,note_on,,,,,60,0,2,,,,,1,74,0
18960,note_on,,,,,0,0,2,,,,,1,75,64
18960,note_on,,,,,60,0,3,,,,,2,65,0
18960,note_on,,,,,240,0,4,,,,,3,63,0
19080,note_on,,,,,120,0,2,,,,,1,75,0
19080,note_on,,,,,0,0,2,,,,,1,79,64
19080,note_on,,,,,0,0,1,,,,,0,82,64
19080,note_on,,,,,120,0,4,,,,,3,64,64
19080,note_on,,,,,240,0,1,,,,,0,84,0
19200,note_on,,,,,0,0,2,,,,,1,72,64
19200,note_on,,,,,120,0,4,,,,,3,64,0
19200,note_on,,,,,120,0,1,,,,,0,82,0
19200,note_on,,,,,0,0,1,,,,,0,80,64
19200,note_on,,,,,120,0,2,,,,,1,79,0
19200,note_on,,,,,0,0,4,,,,,3,65,64
19320,note_on,,,,,0,0,1,,,,,0,80,64
19320,note_on,,,,,120,0,1,,,,,0,80,0
19320,note_on,,,,,120,0,4,,,,,3,65,0
19320,note_on,,,,,0,0,4,,,,,3,53,64
19320,note_on,,,,,0,0,3,,,,,2,60,64
19320,note_on,,,,,360,0,3,,,,,2,67,0
19320,note_on,,,,,120,0,2,,,,,1,72,0
19320,note_on,,,,,0,0,2,,,,,1,77,64
19380,note_on,,,,,60,0,4,,,,,3,53,0
19380,note_on,,,,,0,0,4,,,,,3,52,64
19380,note_on,,,,,60,0,1,,,,,0,80,0
19380,note_on,,,,,0,0,1,,,,,0,79,64
19440,note_on,,,,,0,0,3,,,,,2,65,64
19440,note_on,,,,,0,0,4,,,,,3,53,64
19440,note_on,,,,,60,0,4,,,,,3,52,0
19440,note_on,,,,,60,0,1,,,,,0,79,0
19440,note_on,,,,,0,0,1,,,,,0,80,64
19440,note_on,,,,,120,0,3,,,,,2,60,0
19560,note_on,,,,,120,0,1,,,,,0,80,0
19560,note_on,,,,,0,0,1,,,,,0,84,64
19560,note_on,,,,,240,0,2,,,,,1,77,0
19560,note_on,,,,,0,0,4,,,,,3,57,64
19560,note_on,,,,,120,0,4,,,,,3,53,0
19560,note_on,,,,,0,0,2,,,,,1,75,64
19680,note_on,,,,,120,0,4,,,,,3,57,0
19680,note_on,,,,,0,0,1,,,,,0,77,64
19680,note_on,,,,,120,0,1,,,,,0,84,0
19680,note_on,,,,,0,0,4,,,,,3,58,64
19680,note_on,,,,,0,0,2,,,,,1,74,64
19680,note_on,,,,,120,0,2,,,,,1,75,0
19800,note_on,,,,,120,0,2,,,,,1,74,0
19800,note_on,,,,,0,0,2,,,,,1,74,64
19800,note_on,,,,,120,0,1,,,,,0,77,0
19800,note_on,,,,,0,0,1,,,,,0,82,64
19800,note_on,,,,,360,0,3,,,,,2,65,0
19800,note_on,,,,,0,0,3,,,,,2,65,64
19860,note_on,,,,,60,0,2,,,,,1,74,0
19860,note_on,,,,,0,0,2,,,,,1,72,64
19860,note_on,,,,,60,0,3,,,,,2,65,0
19860,note_on,,,,,0,0,3,,,,,2,63,64
19920,note_on,,,,,60,0,3,,,,,2,63,0
19920,note_on,,,,,240,0,4,,,,,3,58,0
19920,note_on,,,,,60,0,2,,,,,1,72,0
19920,note_on,,,,,0,0,3,,,,,2,65,64
19920,note_on,,,,,0,0,2,,,,,1,74,64
20040,note_on,,,,,0,0,2,,,,,1,77,64
20040,note_on,,,,,120,0,2,,,,,1,74,0
20040,note_on,,,,,240,0,1,,,,,0,82,0
20040,note_on,,,,,0,0,1,,,,,0,80,64
20040,note_on,,,,,120,0,4,,,,,3,62,64
20160,note_on,,,,,120,0,1,,,,,0,80,0
20160,note_on,,,,,0,0,2,,,,,1,70,64
20160,note_on,,,,,120,0,2,,,,,1,77,0
20160,note_on,,,,,0,0,4,,,,,3,63,64
20160,note_on,,,,,120,0,4,,,,,3,62,0
20160,note_on,,,,,0,0,1,,,,,0,79,64
20280,note_on,,,,,0,0,2,,,,,1,70,64
20280,note_on,,,,,120,0,2,,,,,1,70,0
20280,note_on,,,,,360,0,3,,,,,2,65,0
20280,note_on,,,,,0,0,3,,,,,2,58,64
20280,note_on,,,,,120,0,4,,,,,3,63,0
20280,note_on,,,,,0,0,4,,,,,3,51,64
20280,note_on,,,,,120,0,1,,,,,0,79,0
20280,note_on,,,,,0,0,1,,,,,0,79,64
20340,note_on,,,,,0,0,1,,,,,0,77,64
20340,note_on,,,,,60,0,1,,,,,0,79,0
20340,note_on,,,,,60,0,2,,,,,1,70,0
20340,note_on,,,,,0,0,2,,,,,1,68,64
20400,note_on,,,,,120,0,3,,,,,2,58,0
20400,note_on,,,,,0,0,3,,,,,2,63,64
20400,note_on,,,,,120,0,4,,,,,3,51,0
20400,note_on,,,,,0,0,4,,,,,3,63,64
20400,note_on,,,,,60,0,2,,,,,1,68,0
20400,note_on,,,,,0,0,2,,,,,1,70,64
20400,note_on,,,,,0,0,1,,,,,0,79,64
20400,note_on,,,,,60,0,1,,,,,0,77,0
20460,note_on,,,,,0,0,4,,,,,3,62,64
20460,note_on,,,,,60,0,4,,,,,3,63,0
20520,note_on,,,,,0,0,4,,,,,3,60,64
20520,note_on,,,,,60,0,4,,,,,3,62,0
20520,note_on,,,,,120,0,1,,,,,0,79,0
20520,note_on,,,,,120,0,3,,,,,2,63,0
20520,note_on,,,,,0,0,2,,,,,1,74,64
20520,note_on,,,,,120,0,2,,,,,1,70,0
20520,note_on,,,,,0,0,1,,,,,0,82,64
20580,note_on,,,,,60,0,4,,,,,3,60,0
20580,note_on,,,,,0,0,4,,,,,3,58,64
20640,note_on,,,,,0,0,4,,,,,3,60,64
20640,note_on,,,,,0,0,1,,,,,0,75,64
20640,note_on,,,,,120,0,1,,,,,0,82,0
20640,note_on,,,,,120,0,2,,,,,1,74,0
20640,note_on,,,,,60,0,4,,,,,3,58,0
20640,note_on,,,,,0,0,2,,,,,1,67,64
20760,note_on,,,,,0,0,2,,,,,1,69,64
20760,note_on,,,,,120,0,4,,,,,3,60,0
20760,note_on,,,,,0,0,4,,,,,3,48,64
20760,note_on,,,,,120,0,1,,,,,0,75,0
20760,note_on,,,,,0,0,1,,,,,0,75,64
20760,note_on,,,,,120,0,2,,,,,1,67,0
20820,note_on,,,,,60,0,2,,,,,1,69,0
20820,note_on,,,,,0,0,2,,,,,1,71,64
20820,note_on,,,,,60,0,1,,,,,0,75,0
20820,note_on,,,,,0,0,1,,,,,0,74,64
20880,note_on,,,,,60,0,1,,,,,0,74,0
20880,note_on,,,,,0,0,1,,,,,0,75,64
20880,note_on,,,,,60,0,2,,,,,1,71,0
20880,note_on,,,,,0,0,4,,,,,3,60,64
20880,note_on,,,,,0,0,2,,,,,1,72,64
20880,note_on,,,,,120,0,4,,,,,3,48,0
20940,note_on,,,,,0,0,4,,,,,3,58,64
20940,note_on,,,,,60,0,4,,,,,3,60,0
21000,note_on,,,,,60,0,4,,,,,3,58,0
21000,note_on,,,,,120,0,1,,,,,0,75,0
21000,note_on,,,,,0,0,1,,,,,0,79,64
21000,note_on,,,,,120,0,2,,,,,1,72,0
21000,note_on,,,,,0,0,2,,,,,1,71,64
21000,note_on,,,,,0,0,4,,,,,3,56,64
21060,note_on,,,,,0,0,4,,,,,3,55,64
21060,note_on,,,,,60,0,4,,,,,3,56,0
21120,note_on,,,,,0,0,4,,,,,3,56,64
21120,note_on,,,,,60,0,4,,,,,3,55,0
21120,note_on,,,,,120,0,1,,,,,0,79,0
21120,note_on,,,,,0,0,1,,,,,0,72,64
21120,note_on,,,,,120,0,2,,,,,1,71,0
21120,note_on,,,,,0,0,2,,,,,1,72,64
21240,note_on,,,,,120,0,4,,,,,3,56,0
21240,note_on,,,,,120,0,1,,,,,0,72,0
21240,note_on,,,,,0,0,1,,,,,0,74,64
21240,note_on,,,,,0,0,4,,,,,3,44,64
21300,note_on,,,,,0,0,1,,,,,0,75,64
21300,note_on,,,,,60,0,1,,,,,0,74,0
21360,note_on,,,,,0,0,1,,,,,0,77,64
21360,note_on,,,,,0,0,4,,,,,3,56,64
21360,note_on,,,,,60,0,1,,,,,0,75,0
21360,note_on,,,,,120,0,4,,,,,3,44,0
21420,note_on,,,,,300,0,2,,,,,1,72,0
21420,note_on,,,,,0,0,2,,,,,1,71,64
21480,note_on,,,,,60,0,2,,,,,1,71,0
21480,note_on,,,,,0,0,2,,,,,1,72,64
21480,note_on,,,,,120,0,4,,,,,3,56,0
21480,note_on,,,,,0,0,4,,,,,3,55,64
21540,note_on,,,,,60,0,2,,,,,1,72,0
21540,note_on,,,,,0,0,2,,,,,1,74,64
21540,note_on,,,,,60,0,4,,,,,3,55,0
21540,note_on,,,,,0,0,4,,,,,3,53,64
21600,note_on,,,,,60,0,4,,,,,3,53,0
21600,note_on,,,,,60,0,2,,,,,1,74,0
21600,note_on,,,,,0,0,2,,,,,1,71,64
21600,note_on,,,,,0,0,4,,,,,3,55,64
21720,note_on,,,,,0,0,2,,,,,1,67,64
21720,note_on,,,,,120,0,2,,,,,1,71,0
21840,note_on,,,,,120,0,2,,,,,1,67,0
21840,note_on,,,,,0,0,1,,,,,0,75,64
21840,note_on,,,,,0,0,2,,,,,1,72,64
21840,note_on,,,,,480,0,1,,,,,0,77,0
21900,note_on,,,,,0,0,1,,,,,0,74,64
21900,note_on,,,,,60,0,1,,,,,0,75,0
21960,note_on,,,,,60,0,1,,,,,0,74,0
21960,note_on,,,,,0,0,1,,,,,0,75,64
22020,note_on,,,,,60,0,1,,,,,0,75,0
22020,note_on,,,,,0,0,1,,,,,0,77,64
22080,note_on,,,,,60,0,1,,,,,0,77,0
22080,note_on,,,,,0,0,1,,,,,0,74,64
22140,note_on,,,,,0,0,4,,,,,3,53,64
22140,note_on,,,,,540,0,4,,,,,3,55,0
22200,note_on,,,,,120,0,1,,,,,0,74,0
22200,note_on,,,,,0,0,1,,,,,0,79,64
22200,note_on,,,,,60,0,4,,,,,3,53,0
22200,note_on,,,,,0,0,4,,,,,3,55,64
22260,note_on,,,,,60,0,4,,,,,3,55,0
22260,note_on,,,,,0,0,4,,,,,3,56,64
22320,note_on,,,,,60,0,4,,,,,3,56,0
22320,note_on,,,,,480,0,2,,,,,1,72,0
22320,note_on,,,,,0,0,2,,,,,1,70,64
22320,note_on,,,,,0,0,4,,,,,3,55,64
22380,note_on,,,,,60,0,4,,,,,3,55,0
22380,note_on,,,,,0,0,4,,,,,3,53,64
22440,note_on,,,,,0,0,1,,,,,0,77,64
22440,note_on,,,,,240,0,1,,,,,0,79,0
22440,note_on,,,,,60,0,4,,,,,3,53,0
22440,note_on,,,,,0,0,4,,,,,3,52,64
22500,note_on,,,,,0,0,4,,,,,3,50,64
22500,note_on,,,,,60,0,4,,,,,3,52,0
22560,note_on,,,,,60,0,4,,,,,3,50,0
22560,note_on,,,,,0,0,1,,,,,0,76,64
22560,note_on,,,,,120,0,1,,,,,0,77,0
22560,note_on,,,,,0,0,4,,,,,3,48,64
22680,note_on,,,,,0,0,1,,,,,0,72,64
22680,note_on,,,,,120,0,1,,,,,0,76,0
22800,note_on,,,,,0,0,2,,,,,1,68,64
22800,note_on,,,,,0,0,1,,,,,0,77,64
22800,note_on,,,,,120,0,1,,,,,0,72,0
22800,note_on,,,,,480,0,2,,,,,1,70,0
22860,note_on,,,,,60,0,2,,,,,1,68,0
22860,note_on,,,,,0,0,2,,,,,1,67,64
22920,note_on,,,,,60,0,2,,,,,1,67,0
22920,note_on,,,,,0,0,2,,,,,1,68,64
22980,note_on,,,,,0,0,2,,,,,1,70,64
22980,note_on,,,,,60,0,2,,,,,1,68,0
23040,note_on,,,,,60,0,2,,,,,1,70,0
23040,note_on,,,,,0,0,2,,,,,1,67,64
23100,note_on,,,,,540,0,4,,,,,3,48,0
23100,note_on,,,,,0,0,4,,,,,3,46,64
23160,note_on,,,,,0,0,4,,,,,3,48,64
23160,note_on,,,,,120,0,2,,,,,1,67,0
23160,note_on,,,,,0,0,2,,,,,1,72,64
23160,note_on,,,,,60,0,4,,,,,3,46,0
23220,note_on,,,,,0,0,4,,,,,3,50,64
23220,note_on,,,,,60,0,4,,,,,3,48,0
23280,note_on,,,,,480,0,1,,,,,0,77,0
23280,note_on,,,,,0,0,1,,,,,0,75,64
23280,note_on,,,,,0,0,4,,,,,3,48,64
23280,note_on,,,,,60,0,4,,,,,3,50,0
23340,note_on,,,,,0,0,4,,,,,3,46,64
23340,note_on,,,,,60,0,4,,,,,3,48,0
23400,note_on,,,,,0,0,2,,,,,1,70,64
23400,note_on,,,,,60,0,4,,,,,3,46,0
23400,note_on,,,,,0,0,4,,,,,3,45,64
23400,note_on,,,,,240,0,2,,,,,1,72,0
23460,note_on,,,,,60,0,4,,,,,3,45,0
23460,note_on,,,,,0,0,4,,,,,3,43,64
23520,note_on,,,,,0,0,2,,,,,1,69,64
23520,note_on,,,,,120,0,2,,,,,1,70,0
23520,note_on,,,,,0,0,4,,,,,3,41,64
23520,note_on,,,,,60,0,4,,,,,3,43,0
23640,note_on,,,,,120,0,2,,,,,1,69,0
23640,note_on,,,,,0,0,2,,,,,1,65,64
23760,note_on,,,,,0,0,2,,,,,1,70,64
23760,note_on,,,,,480,0,1,,,,,0,75,0
23760,note_on,,,,,0,0,1,,,,,0,74,64
23760,note_on,,,,,120,0,2,,,,,1,65,0
23820,note_on,,,,,60,0,1,,,,,0,74,0
23820,note_on,,,,,0,0,1,,,,,0,72,64
23880,note_on,,,,,60,0,1,,,,,0,72,0
23880,note_on,,,,,0,0,1,,,,,0,74,64
23940,note_on,,,,,0,0,1,,,,,0,75,64
23940,note_on,,,,,60,0,1,,,,,0,74,0
24000,note_on,,,,,0,0,1,,,,,0,72,64
24000,note_on,,,,,60,0,1,,,,,0,75,0
24060,note_on,,,,,540,0,4,,,,,3,41,0
24060,note_on,,,,,0,0,4,,,,,3,51,64
24120,note_on,,,,,0,0,4,,,,,3,53,64
24120,note_on,,,,,120,0,1,,,,,0,72,0
24120,note_on,,,,,60,0,4,,,,,3,51,0
24120,note_on,,,,,0,0,1,,,,,0,77,64
24180,note_on,,,,,0,0,4,,,,,3,55,64
24180,note_on,,,,,60,0,4,,,,,3,53,0
24240,note_on,,,,,480,0,2,,,,,1,70,0
24240,note_on,,,,,60,0,4,,,,,3,55,0
24240,note_on,,,,,0,0,4,,,,,3,53,64
24240,note_on,,,,,0,0,2,,,,,1,68,64
24300,note_on,,,,,60,0,4,,,,,3,53,0
24300,note_on,,,,,0,0,4,,,,,3,51,64
24360,note_on,,,,,0,0,1,,,,,0,75,64
24360,note_on,,,,,0,0,4,,,,,3,50,64
24360,note_on,,,,,60,0,4,,,,,3,51,0
24360,note_on,,,,,240,0,1,,,,,0,77,0
24420,note_on,,,,,0,0,4,,,,,3,48,64
24420,note_on,,,,,60,0,4,,,,,3,50,0
24480,note_on,,,,,120,0,1,,,,,0,75,0
24480,note_on,,,,,0,0,1,,,,,0,74,64
24480,note_on,,,,,0,0,4,,,,,3,46,64
24480,note_on,,,,,60,0,4,,,,,3,48,0
24600,note_on,,,,,0,0,1,,,,,0,70,64
24600,note_on,,,,,120,0,1,,,,,0,74,0
24720,note_on,,,,,0,0,2,,,,,1,67,64
24720,note_on,,,,,0,0,1,,,,,0,75,64
24720,note_on,,,,,480,0,2,,,,,1,68,0
24720,note_on,,,,,120,0,1,,,,,0,70,0
24780,note_on,,,,,60,0,2,,,,,1,67,0
24780,note_on,,,,,0,0,2,,,,,1,65,64
24840,note_on,,,,,60,0,2,,,,,1,65,0
24840,note_on,,,,,0,0,2,,,,,1,67,64
24900,note_on,,,,,60,0,2,,,,,1,67,0
24900,note_on,,,,,0,0,2,,,,,1,68,64
24960,note_on,,,,,60,0,2,,,,,1,68,0
24960,note_on,,,,,0,0,2,,,,,1,65,64
25020,note_on,,,,,0,0,4,,,,,3,56,64
25020,note_on,,,,,540,0,4,,,,,3,46,0
25080,note_on,,,,,120,0,2,,,,,1,65,0
25080,note_on,,,,,0,0,4,,,,,3,58,64
25080,note_on,,,,,60,0,4,,,,,3,56,0
25080,note_on,,,,,0,0,2,,,,,1,70,64
25140,note_on,,,,,60,0,4,,,,,3,58,0
25140,note_on,,,,,0,0,4,,,,,3,60,64
25200,note_on,,,,,60,0,4,,,,,3,60,0
25200,note_on,,,,,0,0,4,,,,,3,58,64
25200,note_on,,,,,4680,0,3,,,,,2,58,64
25200,note_on,,,,,0,0,1,,,,,0,73,64
25200,note_on,,,,,480,0,1,,,,,0,75,0
25260,note_on,,,,,60,0,4,,,,,3,58,0
25260,note_on,,,,,0,0,4,,,,,3,56,64
25320,note_on,,,,,0,0,2,,,,,1,68,64
25320,note_on,,,,,60,0,4,,,,,3,56,0
25320,note_on,,,,,0,0,4,,,,,3,55,64
25320,note_on,,,,,240,0,2,,,,,1,70,0
25380,note_on,,,,,0,0,4,,,,,3,53,64
25380,note_on,,,,,60,0,4,,,,,3,55,0
25440,note_on,,,,,120,0,2,,,,,1,68,0
25440,note_on,,,,,0,0,2,,,,,1,70,64
25440,note_on,,,,,0,0,4,,,,,3,55,64
25440,note_on,,,,,60,0,4,,,,,3,53,0
25440,note_on,,,,,240,0,3,,,,,2,58,0
25440,note_on,,,,,0,0,3,,,,,2,63,64
25560,note_on,,,,,120,0,2,,,,,1,70,0
25560,note_on,,,,,360,0,1,,,,,0,73,0
25560,note_on,,,,,0,0,1,,,,,0,72,64
25560,note_on,,,,,120,0,4,,,,,3,55,0
25560,note_on,,,,,0,0,2,,,,,1,68,64
25560,note_on,,,,,0,0,4,,,,,3,56,64
25680,note_on,,,,,120,0,4,,,,,3,56,0
25680,note_on,,,,,0,0,4,,,,,3,50,64
25680,note_on,,,,,0,0,1,,,,,0,70,64
25680,note_on,,,,,240,0,3,,,,,2,63,0
25680,note_on,,,,,120,0,1,,,,,0,72,0
25800,note_on,,,,,240,0,2,,,,,1,68,0
25800,note_on,,,,,0,0,2,,,,,1,67,64
25800,note_on,,,,,120,0,4,,,,,3,50,0
25800,note_on,,,,,0,0,4,,,,,3,52,64
25800,note_on,,,,,120,0,3,,,,,2,61,64
25920,note_on,,,,,120,0,3,,,,,2,61,0
25920,note_on,,,,,0,0,3,,,,,2,60,64
25920,note_on,,,,,0,0,1,,,,,0,68,64
25920,note_on,,,,,240,0,1,,,,,0,70,0
25920,note_on,,,,,120,0,4,,,,,3,52,0
25920,note_on,,,,,0,0,4,,,,,3,53,64
26040,note_on,,,,,0,0,3,,,,,2,65,64
26040,note_on,,,,,0,0,2,,,,,1,65,64
26040,note_on,,,,,240,0,2,,,,,1,67,0
26040,note_on,,,,,120,0,3,,,,,2,60,0
26100,note_on,,,,,0,0,2,,,,,1,67,64
26100,note_on,,,,,60,0,2,,,,,1,65,0
26160,note_on,,,,,0,0,2,,,,,1,68,64
26160,note_on,,,,,60,0,2,,,,,1,67,0
26160,note_on,,,,,240,0,1,,,,,0,68,0
26220,note_on,,,,,300,0,4,,,,,3,53,0
26220,note_on,,,,,0,0,4,,,,,3,51,64
26280,note_on,,,,,240,0,3,,,,,2,65,0
26280,note_on,,,,,0,0,4,,,,,3,49,64
26280,note_on,,,,,60,0,4,,,,,3,51,0
26280,note_on,,,,,0,0,3,,,,,2,63,64
26340,note_on,,,,,0,0,4,,,,,3,48,64
26340,note_on,,,,,60,0,4,,,,,3,49,0
26400,note_on,,,,,120,0,3,,,,,2,63,0
26400,note_on,,,,,0,0,3,,,,,2,61,64
26400,note_on,,,,,0,0,4,,,,,3,46,64
26400,note_on,,,,,60,0,4,,,,,3,48,0
26520,note_on,,,,,120,0,3,,,,,2,61,0
26520,note_on,,,,,0,0,3,,,,,2,61,64
26520,note_on,,,,,360,0,2,,,,,1,68,0
26520,note_on,,,,,0,0,2,,,,,1,65,64
26580,note_on,,,,,0,0,3,,,,,2,60,64
26580,note_on,,,,,60,0,3,,,,,2,61,0
26640,note_on,,,,,0,0,3,,,,,2,61,64
26640,note_on,,,,,60,0,3,,,,,2,60,0
26640,note_on,,,,,120,0,2,,,,,1,65,0
26640,note_on,,,,,0,0,2,,,,,1,70,64
26700,note_on,,,,,300,0,4,,,,,3,46,0
26700,note_on,,,,,0,0,4,,,,,3,46,64
26760,note_on,,,,,0,0,2,,,,,1,68,64
26760,note_on,,,,,120,0,2,,,,,1,70,0
26760,note_on,,,,,0,0,4,,,,,3,48,64
26760,note_on,,,,,0,0,3,,,,,2,65,64
26760,note_on,,,,,120,0,3,,,,,2,61,0
26760,note_on,,,,,60,0,4,,,,,3,46,0
26820,note_on,,,,,60,0,4,,,,,3,48,0
26820,note_on,,,,,0,0,4,,,,,3,49,64
26880,note_on,,,,,120,0,2,,,,,1,68,0
26880,note_on,,,,,0,0,2,,,,,1,67,64
26880,note_on,,,,,0,0,3,,,,,2,58,64
26880,note_on,,,,,120,0,3,,,,,2,65,0
26880,note_on,,,,,0,0,4,,,,,3,51,64
26880,note_on,,,,,60,0,4,,,,,3,49,0
27000,note_on,,,,,0,0,2,,,,,1,67,64
27000,note_on,,,,,120,0,2,,,,,1,67,0
27000,note_on,,,,,0,0,3,,,,,2,63,64
27000,note_on,,,,,120,0,3,,,,,2,58,0
27060,note_on,,,,,0,0,2,,,,,1,65,64
27060,note_on,,,,,60,0,2,,,,,1,67,0
27120,note_on,,,,,0,0,2,,,,,1,67,64
27120,note_on,,,,,60,0,2,,,,,1,65,0
27180,note_on,,,,,0,0,4,,,,,3,39,64
27180,note_on,,,,,300,0,4,,,,,3,51,0
27240,note_on,,,,,60,0,4,,,,,3,39,0
27240,note_on,,,,,0,0,4,,,,,3,41,64
27240,note_on,,,,,0,0,3,,,,,2,61,64
27240,note_on,,,,,240,0,3,,,,,2,63,0
27240,note_on,,,,,0,0,2,,,,,1,70,64
27240,note_on,,,,,120,0,2,,,,,1,67,0
27300,note_on,,,,,60,0,4,,,,,3,41,0
27300,note_on,,,,,0,0,4,,,,,3,43,64
27360,note_on,,,,,0,0,3,,,,,2,60,64
27360,note_on,,,,,0,0,2,,,,,1,63,64
27360,note_on,,,,,120,0,2,,,,,1,70,0
27360,note_on,,,,,0,0,4,,,,,3,44,64
27360,note_on,,,,,60,0,4,,,,,3,43,0
27360,note_on,,,,,120,0,3,,,,,2,61,0
27420,note_on,,,,,0,0,4,,,,,3,46,64
27420,note_on,,,,,60,0,4,,,,,3,44,0
27480,note_on,,,,,0,0,2,,,,,1,68,64
27480,note_on,,,,,120,0,3,,,,,2,60,0
27480,note_on,,,,,120,0,2,,,,,1,63,0
27480,note_on,,,,,60,0,4,,,,,3,46,0
27480,note_on,,,,,0,0,4,,,,,3,48,64
27480,note_on,,,,,0,0,3,,,,,2,60,64
27540,note_on,,,,,0,0,4,,,,,3,49,64
27540,note_on,,,,,60,0,4,,,,,3,48,0
27540,note_on,,,,,60,0,3,,,,,2,60,0
27540,note_on,,,,,0,0,3,,,,,2,58,64
27600,note_on,,,,,60,0,4,,,,,3,49,0
27600,note_on,,,,,0,0,4,,,,,3,51,64
27600,note_on,,,,,60,0,3,,,,,2,58,0
27600,note_on,,,,,0,0,3,,,,,2,60,64
27720,note_on,,,,,120,0,3,,,,,2,60,0
27720,note_on,,,,,0,0,3,,,,,2,63,64
27720,note_on,,,,,240,0,2,,,,,1,68,0
27720,note_on,,,,,0,0,2,,,,,1,67,64
27840,note_on,,,,,120,0,2,,,,,1,67,0
27840,note_on,,,,,1680,0,1,,,,,0,70,64
27840,note_on,,,,,120,0,3,,,,,2,63,0
27840,note_on,,,,,0,0,3,,,,,2,56,64
27840,note_on,,,,,0,0,2,,,,,1,65,64
27960,note_on,,,,,120,0,3,,,,,2,56,0
27960,note_on,,,,,0,0,3,,,,,2,56,64
27960,note_on,,,,,0,0,2,,,,,1,65,64
27960,note_on,,,,,120,0,2,,,,,1,65,0
28020,note_on,,,,,60,0,2,,,,,1,65,0
28020,note_on,,,,,0,0,2,,,,,1,63,64
28020,note_on,,,,,60,0,3,,,,,2,56,0
28020,note_on,,,,,0,0,3,,,,,2,55,64
28080,note_on,,,,,60,0,2,,,,,1,63,0
28080,note_on,,,,,0,0,2,,,,,1,65,64
28080,note_on,,,,,60,0,3,,,,,2,55,0
28080,note_on,,,,,0,0,3,,,,,2,56,64
28080,note_on,,,,,0,0,4,,,,,3,50,64
28080,note_on,,,,,480,0,4,,,,,3,51,0
28200,note_on,,,,,120,0,3,,,,,2,56,0
28200,note_on,,,,,0,0,2,,,,,1,67,64
28200,note_on,,,,,120,0,2,,,,,1,65,0
28200,note_on,,,,,0,0,3,,,,,2,58,64
28260,note_on,,,,,60,0,3,,,,,2,58,0
28260,note_on,,,,,0,0,3,,,,,2,56,64
28260,note_on,,,,,0,0,2,,,,,1,65,64
28260,note_on,,,,,60,0,2,,,,,1,67,0
28320,note_on,,,,,0,0,1,,,,,0,75,64
28320,note_on,,,,,480,0,1,,,,,0,70,0
28320,note_on,,,,,0,0,4,,,,,3,51,64
28320,note_on,,,,,240,0,4,,,,,3,50,0
28320,note_on,,,,,60,0,2,,,,,1,65,0
28320,note_on,,,,,60,0,3,,,,,2,56,0
28320,note_on,,,,,0,0,3,,,,,2,55,64
28320,note_on,,,,,0,0,2,,,,,1,63,64
28440,note_on,,,,,0,0,3,,,,,2,58,64
28440,note_on,,,,,120,0,3,,,,,2,55,0
28440,note_on,,,,,0,0,2,,,,,1,67,64
28440,note_on,,,,,120,0,2,,,,,1,63,0
28500,note_on,,,,,60,0,3,,,,,2,58,0
28500,note_on,,,,,60,0,2,,,,,1,67,0
28500,note_on,,,,,0,0,3,,,,,2,56,64
28500,note_on,,,,,0,0,2,,,,,1,65,64
28560,note_on,,,,,60,0,2,,,,,1,65,0
28560,note_on,,,,,0,0,3,,,,,2,58,64
28560,note_on,,,,,60,0,3,,,,,2,56,0
28560,note_on,,,,,0,0,2,,,,,1,67,64
28560,note_on,,,,,240,0,1,,,,,0,75,0
28680,note_on,,,,,120,0,3,,,,,2,58,0
28680,note_on,,,,,120,0,2,,,,,1,67,0
28680,note_on,,,,,0,0,2,,,,,1,69,64
28680,note_on,,,,,120,0,1,,,,,0,75,64
28680,note_on,,,,,0,0,3,,,,,2,60,64
28740,note_on,,,,,0,0,2,,,,,1,67,64
28740,note_on,,,,,60,0,2,,,,,1,69,0
28800,note_on,,,,,60,0,2,,,,,1,67,0
28800,note_on,,,,,480,0,4,,,,,3,51,0
28800,note_on,,,,,120,0,1,,,,,0,75,0
28800,note_on,,,,,0,0,1,,,,,0,74,64
28800,note_on,,,,,0,0,4,,,,,3,58,64
28800,note_on,,,,,120,0,3,,,,,2,60,0
28800,note_on,,,,,0,0,3,,,,,2,62,64
28800,note_on,,,,,0,0,2,,,,,1,65,64
28920,note_on,,,,,120,0,2,,,,,1,65,0
28920,note_on,,,,,0,0,2,,,,,1,70,64
28920,note_on,,,,,120,0,1,,,,,0,74,0
28920,note_on,,,,,0,0,1,,,,,0,79,64
28920,note_on,,,,,120,0,3,,,,,2,62,0
28920,note_on,,,,,0,0,3,,,,,2,62,64
28980,note_on,,,,,0,0,2,,,,,1,68,64
28980,note_on,,,,,60,0,3,,,,,2,62,0
28980,note_on,,,,,60,0,2,,,,,1,70,0
28980,note_on,,,,,0,0,3,,,,,2,60,64
29040,note_on,,,,,60,0,2,,,,,1,68,0
29040,note_on,,,,,0,0,2,,,,,1,70,64
29040,note_on,,,,,240,0,4,,,,,3,58,0
29040,note_on,,,,,0,0,3,,,,,2,62,64
29040,note_on,,,,,60,0,3,,,,,2,60,0
29160,note_on,,,,,120,0,2,,,,,1,70,0
29160,note_on,,,,,0,0,2,,,,,1,74,64
29160,note_on,,,,,0,0,1,,,,,0,77,64
29160,note_on,,,,,120,0,3,,,,,2,62,0
29160,note_on,,,,,120,0,4,,,,,3,56,64
29160,note_on,,,,,240,0,1,,,,,0,79,0
29160,note_on,,,,,0,0,3,,,,,2,65,64
29280,note_on,,,,,0,0,4,,,,,3,55,64
29280,note_on,,,,,120,0,4,,,,,3,56,0
29280,note_on,,,,,0,0,2,,,,,1,75,64
29280,note_on,,,,,0,0,1,,,,,0,75,64
29280,note_on,,,,,120,0,1,,,,,0,77,0
29280,note_on,,,,,120,0,2,,,,,1,74,0
29280,note_on,,,,,120,0,3,,,,,2,65,0
29280,note_on,,,,,0,0,3,,,,,2,70,64
29400,note_on,,,,,120,0,3,,,,,2,70,0
29400,note_on,,,,,120,0,1,,,,,0,75,0
29400,note_on,,,,,0,0,3,,,,,2,67,64
29400,note_on,,,,,120,0,2,,,,,1,75,0
29400,note_on,,,,,0,0,2,,,,,1,72,64
29400,note_on,,,,,0,0,1,,,,,0,75,64
29400,note_on,,,,,120,0,4,,,,,3,55,0
29400,note_on,,,,,0,0,4,,,,,3,60,64
29460,note_on,,,,,60,0,1,,,,,0,75,0
29460,note_on,,,,,0,0,1,,,,,0,74,64
29520,note_on,,,,,0,0,2,,,,,1,67,64
29520,note_on,,,,,0,0,3,,,,,2,63,64
29520,note_on,,,,,120,0,3,,,,,2,67,0
29520,note_on,,,,,120,0,2,,,,,1,72,0
29520,note_on,,,,,60,0,1,,,,,0,74,0
29520,note_on,,,,,0,0,1,,,,,0,75,64
29640,note_on,,,,,0,0,4,,,,,3,58,64
29640,note_on,,,,,120,0,1,,,,,0,75,0
29640,note_on,,,,,240,0,4,,,,,3,60,0
29640,note_on,,,,,0,0,1,,,,,0,79,64
29760,note_on,,,,,0,0,1,,,,,0,72,64
29760,note_on,,,,,120,0,1,,,,,0,79,0
29760,note_on,,,,,120,0,4,,,,,3,58,0
29760,note_on,,,,,0,0,2,,,,,1,68,64
29760,note_on,,,,,240,0,2,,,,,1,67,0
29760,note_on,,,,,0,0,4,,,,,3,56,64
29880,note_on,,,,,120,0,1,,,,,0,72,0
29880,note_on,,,,,0,0,3,,,,,2,60,64
29880,note_on,,,,,360,0,3,,,,,2,63,0
29880,note_on,,,,,120,0,4,,,,,3,56,0
29880,note_on,,,,,0,0,4,,,,,3,56,64
29880,note_on,,,,,0,0,1,,,,,0,77,64
29940,note_on,,,,,60,0,3,,,,,2,60,0
29940,note_on,,,,,60,0,4,,,,,3,56,0
29940,note_on,,,,,0,0,4,,,,,3,55,64
29940,note_on,,,,,0,0,3,,,,,2,58,64
30000,note_on,,,,,60,0,4,,,,,3,55,0
30000,note_on,,,,,0,0,3,,,,,2,60,64
30000,note_on,,,,,0,0,4,,,,,3,56,64
30000,note_on,,,,,60,0,3,,,,,2,58,0
30120,note_on,,,,,0,0,2,,,,,1,67,64
30120,note_on,,,,,120,0,3,,,,,2,60,0
30120,note_on,,,,,0,0,3,,,,,2,63,64
30120,note_on,,,,,360,0,2,,,,,1,68,0
30120,note_on,,,,,240,0,1,,,,,0,77,0
30120,note_on,,,,,0,0,1,,,,,0,75,64
30120,note_on,,,,,120,0,4,,,,,3,56,0
30120,note_on,,,,,0,0,4,,,,,3,60,64
30240,note_on,,,,,0,0,2,,,,,1,68,64
30240,note_on,,,,,120,0,1,,,,,0,75,0
30240,note_on,,,,,0,0,4,,,,,3,53,64
30240,note_on,,,,,120,0,2,,,,,1,67,0
30240,note_on,,,,,0,0,1,,,,,0,74,64
30240,note_on,,,,,0,0,3,,,,,2,65,64
30240,note_on,,,,,120,0,3,,,,,2,63,0
30240,note_on,,,,,120,0,4,,,,,3,60,0
30360,note_on,,,,,120,0,1,,,,,0,74,0
30360,note_on,,,,,0,0,1,,,,,0,74,64
30360,note_on,,,,,120,0,4,,,,,3,53,0
30360,note_on,,,,,0,0,4,,,,,3,58,64
30360,note_on,,,,,120,0,2,,,,,1,68,0
30360,note_on,,,,,0,0,2,,,,,1,65,64
30360,note_on,,,,,0,0,3,,,,,2,62,64
30360,note_on,,,,,120,0,3,,,,,2,65,0
30420,note_on,,,,,60,0,1,,,,,0,74,0
30420,note_on,,,,,0,0,1,,,,,0,72,64
30480,note_on,,,,,120,0,2,,,,,1,65,0
30480,note_on,,,,,0,0,2,,,,,1,70,64
30480,note_on,,,,,0,0,3,,,,,2,67,64
30480,note_on,,,,,120,0,3,,,,,2,62,0
30480,note_on,,,,,60,0,1,,,,,0,72,0
30480,note_on,,,,,0,0,1,,,,,0,74,64
30600,note_on,,,,,120,0,1,,,,,0,74,0
30600,note_on,,,,,0,0,1,,,,,0,77,64
30600,note_on,,,,,0,0,4,,,,,3,56,64
30600,note_on,,,,,120,0,3,,,,,2,67,0
30600,note_on,,,,,0,0,3,,,,,2,62,64
30600,note_on,,,,,240,0,4,,,,,3,58,0
30720,note_on,,,,,0,0,1,,,,,0,70,64
30720,note_on,,,,,0,0,3,,,,,2,63,64
30720,note_on,,,,,120,0,3,,,,,2,62,0
30720,note_on,,,,,0,0,4,,,,,3,55,64
30720,note_on,,,,,120,0,4,,,,,3,56,0
30720,note_on,,,,,120,0,1,,,,,0,77,0
30840,note_on,,,,,360,0,2,,,,,1,70,0
30840,note_on,,,,,120,0,4,,,,,3,55,0
30840,note_on,,,,,0,0,1,,,,,0,75,64
30840,note_on,,,,,120,0,3,,,,,2,63,0
30840,note_on,,,,,120,0,1,,,,,0,70,0
30840,note_on,,,,,0,0,4,,,,,3,55,64
30900,note_on,,,,,60,0,4,,,,,3,55,0
30900,note_on,,,,,0,0,4,,,,,3,53,64
30960,note_on,,,,,120,0,1,,,,,0,75,0
30960,note_on,,,,,0,0,1,,,,,0,73,64
30960,note_on,,,,,0,0,4,,,,,3,55,64
30960,note_on,,,,,60,0,4,,,,,3,53,0
31080,note_on,,,,,240,0,3,,,,,2,65,64
31080,note_on,,,,,240,0,2,,,,,1,68,64
31080,note_on,,,,,0,0,4,,,,,3,58,64
31080,note_on,,,,,120,0,4,,,,,3,55,0
31200,note_on,,,,,0,0,3,,,,,2,63,64
31200,note_on,,,,,120,0,3,,,,,2,65,0
31200,note_on,,,,,0,0,4,,,,,3,51,64
31200,note_on,,,,,120,0,4,,,,,3,58,0
31200,note_on,,,,,120,0,2,,,,,1,68,0
31200,note_on,,,,,0,0,2,,,,,1,67,64
31320,note_on,,,,,360,0,1,,,,,0,73,0
31320,note_on,,,,,0,0,1,,,,,0,72,64
31320,note_on,,,,,0,0,4,,,,,3,51,64
31320,note_on,,,,,120,0,4,,,,,3,51,0
31380,note_on,,,,,0,0,4,,,,,3,50,64
31380,note_on,,,,,60,0,4,,,,,3,51,0
31440,note_on,,,,,240,0,3,,,,,2,63,0
31440,note_on,,,,,240,0,2,,,,,1,67,0
31440,note_on,,,,,0,0,4,,,,,3,51,64
31440,note_on,,,,,0,0,1,,,,,0,70,64
31440,note_on,,,,,120,0,1,,,,,0,72,0
31440,note_on,,,,,60,0,4,,,,,3,50,0
31560,note_on,,,,,120,0,2,,,,,1,65,64
31560,note_on,,,,,120,0,4,,,,,3,51,0
31560,note_on,,,,,0,0,4,,,,,3,55,64
31560,note_on,,,,,120,0,3,,,,,2,62,64
31680,note_on,,,,,0,0,3,,,,,2,60,64
31680,note_on,,,,,120,0,3,,,,,2,62,0
31680,note_on,,,,,120,0,4,,,,,3,55,0
31680,note_on,,,,,0,0,4,,,,,3,48,64
31680,note_on,,,,,120,0,2,,,,,1,65,0
31680,note_on,,,,,0,0,2,,,,,1,63,64
31800,note_on,,,,,360,0,1,,,,,0,70,0
31800,note_on,,,,,0,0,1,,,,,0,68,64
31800,note_on,,,,,120,0,4,,,,,3,48,0
31800,note_on,,,,,0,0,4,,,,,3,50,64
31860,note_on,,,,,0,0,4,,,,,3,51,64
31860,note_on,,,,,0,0,1,,,,,0,67,64
31860,note_on,,,,,60,0,4,,,,,3,50,0
31860,note_on,,,,,60,0,1,,,,,0,68,0
31920,note_on,,,,,60,0,1,,,,,0,67,0
31920,note_on,,,,,60,0,4,,,,,3,51,0
31920,note_on,,,,,0,0,4,,,,,3,53,64
31920,note_on,,,,,0,0,1,,,,,0,68,64
32040,note_on,,,,,360,0,3,,,,,2,60,0
32040,note_on,,,,,360,0,2,,,,,1,63,0
32040,note_on,,,,,0,0,2,,,,,1,62,64
32040,note_on,,,,,0,0,3,,,,,2,56,64
32100,note_on,,,,,60,0,2,,,,,1,62,0
32100,note_on,,,,,0,0,2,,,,,1,60,64
32160,note_on,,,,,0,0,4,,,,,3,46,64
32160,note_on,,,,,120,0,3,,,,,2,56,0
32160,note_on,,,,,0,0,2,,,,,1,62,64
32160,note_on,,,,,240,0,4,,,,,3,53,0
32160,note_on,,,,,60,0,2,,,,,1,60,0
32160,note_on,,,,,0,0,3,,,,,2,53,64
32280,note_on,,,,,0,0,2,,,,,1,58,64
32280,note_on,,,,,120,0,2,,,,,1,62,0
32400,note_on,,,,,0,0,4,,,,,3,45,64
32400,note_on,,,,,240,0,3,,,,,2,53,0
32400,note_on,,,,,0,0,1,,,,,0,66,64
32400,note_on,,,,,240,0,4,,,,,3,46,0
32400,note_on,,,,,480,0,1,,,,,0,68,0
32400,note_on,,,,,120,0,2,,,,,1,58,0
32400,note_on,,,,,0,0,2,,,,,1,63,64
32520,note_on,,,,,120,0,3,,,,,2,60,64
32640,note_on,,,,,240,0,4,,,,,3,45,0
32640,note_on,,,,,240,0,1,,,,,0,66,0
32640,note_on,,,,,0,0,1,,,,,0,65,64
32640,note_on,,,,,0,0,3,,,,,2,53,64
32640,note_on,,,,,0,0,4,,,,,3,46,64
32640,note_on,,,,,120,0,3,,,,,2,60,0
32760,note_on,,,,,0,0,3,,,,,2,53,64
32760,note_on,,,,,120,0,3,,,,,2,53,0
32820,note_on,,,,,0,0,3,,,,,2,51,64
32820,note_on,,,,,60,0,3,,,,,2,53,0
32880,note_on,,,,,480,0,2,,,,,1,62,64
32880,note_on,,,,,60,0,3,,,,,2,51,0
32880,note_on,,,,,0,0,3,,,,,2,53,64
32885,note_on,,,,,5,0,2,,,,,1,63,0
33000,note_on,,,,,0,0,3,,,,,2,58,64
33000,note_on,,,,,120,0,3,,,,,2,53,0
33120,note_on,,,,,120,0,3,,,,,2,58,0
33120,note_on,,,,,0,0,3,,,,,2,55,64
33120,note_on,,,,,480,0,1,,,,,0,65,0
33120,note_on,,,,,480,0,4,,,,,3,46,0
33120,note_on,,,,,235,0,2,,,,,1,58,64
33120,note_on,,,,,0,0,1,,,,,0,63,64
33120,note_on,,,,,0,0,4,,,,,3,39,64
33129,note_on,,,,,9,0,2,,,,,1,62,0
33600,note_on,,,,,480,0,1,,,,,0,63,0
33600,note_on,,,,,480,0,3,,,,,2,55,0
33600,end_of_track,,,,,0,1,1,,,,,,,
33600,note_on,,,,,480,0,4,,,,,3,39,0
33600,end_of_track,,,,,0,1,2,,,,,,,
33600,note_on,,,,,471,0,2,,,,,1,58,0
33600,end_of_track,,,,,0,1,3,,,,,,,
33600,end_of_track,,,,,0,1,4,,,,,,,
