,note,step,duration,channel,velocity
0,56.0,0,120,1.0,51.0
1,51.0,120,120,1.0,51.0
2,56.0,120,120,1.0,51.0
3,44.0,0,480,2.0,53.0
4,60.0,0,480,0.0,75.0
5,51.0,120,120,1.0,51.0
6,55.0,0,120,1.0,51.0
7,51.0,120,120,1.0,51.0
8,55.0,120,120,1.0,51.0
9,49.0,120,480,2.0,58.0
10,58.0,0,480,0.0,76.0
11,51.0,120,120,1.0,51.0
12,56.0,0,120,1.0,51.0
13,51.0,120,120,1.0,51.0
14,56.0,120,120,1.0,51.0
15,48.0,120,480,2.0,58.0
16,51.0,120,120,1.0,51.0
17,58.0,0,120,1.0,51.0
18,51.0,120,120,1.0,51.0
19,63.0,0,720,0.0,74.0
20,58.0,0,120,1.0,51.0
21,61.0,120,240,0.0,70.0
22,43.0,120,480,2.0,55.0
23,51.0,120,120,1.0,51.0
24,56.0,0,120,1.0,51.0
25,51.0,120,120,1.0,51.0
26,44.0,0,240,2.0,53.0
27,60.0,120,240,0.0,73.0
28,58.0,0,120,1.0,51.0
29,51.0,120,120,1.0,51.0
30,43.0,120,240,2.0,54.0
31,63.0,0,240,0.0,78.0
32,60.0,0,120,1.0,51.0
33,56.0,120,120,1.0,51.0
34,68.0,0,240,0.0,85.0
35,41.0,120,240,2.0,56.0
36,62.0,120,120,1.0,51.0
37,70.0,0,240,0.0,73.0
38,53.0,0,240,2.0,58.0
39,56.0,120,120,1.0,51.0
40,55.0,0,120,1.0,51.0
41,58.0,120,120,1.0,51.0
42,55.0,120,120,1.0,51.0
43,58.0,120,120,1.0,51.0
44,51.0,0,480,2.0,58.0
45,55.0,0,120,1.0,51.0
46,63.0,120,720,0.0,65.0
47,58.0,120,120,1.0,51.0
48,55.0,0,120,1.0,51.0
49,58.0,120,120,1.0,51.0
50,64.0,120,240,0.0,72.0
51,39.0,120,480,2.0,55.0
52,55.0,0,120,1.0,51.0
53,58.0,120,120,1.0,51.0
54,55.0,120,120,1.0,51.0
55,65.0,0,384,0.0,76.0
56,58.0,120,120,1.0,51.0
57,37.0,120,480,2.0,55.0
58,55.0,0,120,1.0,51.0
59,51.0,120,120,1.0,51.0
60,58.0,0,360,0.0,76.0
61,55.0,120,120,1.0,51.0
62,60.0,120,60,0.0,78.0
63,51.0,0,120,1.0,51.0
64,61.0,60,60,0.0,78.0
65,49.0,120,480,2.0,55.0
66,56.0,60,120,1.0,51.0
67,51.0,120,120,1.0,50.0
68,56.0,120,120,1.0,50.0
69,63.0,0,480,0.0,79.0
70,48.0,0,480,2.0,55.0
71,51.0,120,120,1.0,50.0
72,51.0,0,120,1.0,50.0
73,48.0,120,120,1.0,50.0
74,51.0,120,120,1.0,50.0
75,57.0,0,480,0.0,71.0
76,41.0,120,480,2.0,55.0
77,48.0,120,120,1.0,50.0
78,53.0,0,120,1.0,50.0
79,49.0,120,120,1.0,50.0
80,53.0,120,120,1.0,50.0
81,61.0,0,384,0.0,75.0
82,34.0,120,480,2.0,55.0
83,49.0,120,120,1.0,50.0
84,49.0,0,114,1.0,50.0
85,60.0,120,114,0.0,75.0
86,49.0,120,114,1.0,50.0
87,58.0,0,114,0.0,73.0
88,49.0,120,114,1.0,50.0
89,56.0,0,114,0.0,73.0
90,55.0,120,114,0.0,73.0
91,49.0,0,114,1.0,50.0
92,39.0,0,480,2.0,55.0
93,49.0,0,120,1.0,50.0
94,32.0,0,192,2.0,55.0
95,51.0,120,120,1.0,50.0
96,49.0,0,120,1.0,50.0
97,44.0,120,144,2.0,55.0
98,51.0,120,120,1.0,50.0
99,58.0,120,480,0.0,72.0
100,48.0,0,48,1.0,59.0
101,56.0,0,96,0.0,65.0
102,51.0,80,48,1.0,60.0
103,32.0,120,144,2.0,55.0
104,56.0,80,48,1.0,61.0
105,60.0,80,48,1.0,61.0
106,63.0,80,48,1.0,62.0
107,68.0,80,48,1.0,63.0
108,60.0,80,120,1.0,55.0
109,56.0,0,120,1.0,55.0
110,51.0,0,120,1.0,55.0
111,63.0,120,120,1.0,55.0
112,56.0,0,120,1.0,55.0
113,60.0,120,120,1.0,55.0
114,51.0,0,120,1.0,55.0
115,63.0,120,120,1.0,55.0
116,44.0,0,480,2.0,58.0
117,72.0,0,480,0.0,85.0
118,55.0,120,120,1.0,55.0
119,58.0,0,120,1.0,55.0
120,63.0,120,120,1.0,55.0
121,51.0,0,120,1.0,55.0
122,55.0,0,120,1.0,55.0
123,58.0,120,120,1.0,55.0
124,63.0,120,120,1.0,55.0
125,51.0,0,120,1.0,55.0
126,70.0,0,480,0.0,85.0
127,49.0,0,480,2.0,58.0
128,56.0,0,120,1.0,55.0
129,63.0,120,120,1.0,55.0
130,51.0,120,120,1.0,55.0
131,68.0,0,120,1.0,55.0
132,56.0,0,120,1.0,55.0
133,63.0,120,120,1.0,55.0
134,51.0,0,120,1.0,55.0
135,68.0,120,120,1.0,55.0
136,48.0,0,480,2.0,58.0
137,55.0,0,120,1.0,55.0
138,63.0,0,120,1.0,55.0
139,75.0,0,720,0.0,85.0
140,51.0,120,120,1.0,55.0
141,70.0,0,120,1.0,55.0
142,63.0,0,120,1.0,55.0
143,55.0,0,120,1.0,55.0
144,73.0,120,240,0.0,85.0
145,70.0,0,120,1.0,55.0
146,43.0,120,480,2.0,58.0
147,51.0,120,120,1.0,55.0
148,63.0,0,120,1.0,55.0
149,56.0,0,120,1.0,55.0
150,44.0,120,240,2.0,58.0
151,68.0,120,120,1.0,55.0
152,72.0,0,240,0.0,88.0
153,51.0,0,120,1.0,55.0
154,55.0,0,120,1.0,55.0
155,63.0,0,120,1.0,55.0
156,43.0,120,240,2.0,58.0
157,75.0,0,240,0.0,92.0
158,51.0,120,120,1.0,55.0
159,70.0,0,120,1.0,55.0
160,53.0,0,120,1.0,55.0
161,68.0,0,120,1.0,55.0
162,80.0,0,240,0.0,96.0
163,44.0,120,120,1.0,55.0
164,41.0,0,0,2.0,58.0
165,72.0,0,120,1.0,55.0
166,68.0,0,120,1.0,55.0
167,53.0,0,120,1.0,55.0
168,82.0,120,240,0.0,86.0
169,74.0,0,120,1.0,55.0
170,44.0,120,120,1.0,55.0
171,39.0,120,120,2.0,58.0
172,67.0,0,120,1.0,55.0
173,43.0,120,120,2.0,58.0
174,70.0,0,120,1.0,54.0
175,46.0,120,120,2.0,58.0
176,67.0,0,120,1.0,54.0
177,70.0,0,120,1.0,54.0
178,51.0,120,120,2.0,58.0
179,55.0,120,120,2.0,58.0
180,67.0,0,120,1.0,54.0
181,58.0,0,120,2.0,58.0
182,70.0,120,120,1.0,54.0
183,75.0,0,720,0.0,80.0
184,55.0,0,120,2.0,58.0
185,67.0,120,120,1.0,54.0
186,70.0,0,120,1.0,54.0
187,76.0,0,240,0.0,81.0
188,58.0,120,120,2.0,58.0
189,67.0,120,120,1.0,54.0
190,37.0,0,120,2.0,58.0
191,43.0,120,120,2.0,58.0
192,70.0,0,120,1.0,54.0
193,67.0,0,120,1.0,54.0
194,46.0,120,120,2.0,58.0
195,77.0,0,384,0.0,84.0
196,70.0,120,120,1.0,54.0
197,49.0,0,120,2.0,58.0
198,67.0,120,120,1.0,54.0
199,55.0,0,120,2.0,58.0
200,58.0,120,120,2.0,58.0
201,63.0,0,120,1.0,54.0
202,70.0,0,360,0.0,77.0
203,67.0,0,120,1.0,54.0
204,55.0,120,120,2.0,58.0
205,73.0,60,60,0.0,86.0
206,72.0,0,120,0.0,85.0
207,49.0,0,120,2.0,58.0
208,63.0,120,120,1.0,54.0
209,68.0,60,120,1.0,54.0
210,63.0,120,120,1.0,54.0
211,51.0,0,120,1.0,54.0
212,48.0,0,120,1.0,54.0
213,68.0,120,120,1.0,54.0
214,48.0,0,480,2.0,58.0
215,51.0,0,120,1.0,54.0
216,63.0,120,0,1.0,54.0
217,75.0,0,480,0.0,86.0
218,48.0,0,120,1.0,54.0
219,53.0,0,120,1.0,54.0
220,60.0,120,120,1.0,54.0
221,48.0,120,120,1.0,54.0
222,63.0,0,120,1.0,54.0
223,53.0,120,120,1.0,54.0
224,60.0,0,120,1.0,54.0
225,69.0,0,480,0.0,77.0
226,41.0,0,480,2.0,58.0
227,49.0,0,120,1.0,54.0
228,65.0,120,120,1.0,54.0
229,53.0,120,120,1.0,54.0
230,61.0,0,120,1.0,54.0
231,65.0,120,120,1.0,54.0
232,49.0,0,120,1.0,54.0
233,73.0,0,384,0.0,81.0
234,46.0,0,480,2.0,58.0
235,61.0,120,120,1.0,54.0
236,53.0,0,120,1.0,54.0
237,72.0,0,96,0.0,81.0
238,61.0,0,114,1.0,54.0
239,46.0,0,120,1.0,54.0
240,70.0,0,96,0.0,78.0
241,61.0,0,114,1.0,54.0
242,51.0,120,120,1.0,54.0
243,68.0,120,96,0.0,76.0
244,61.0,0,114,1.0,54.0
245,46.0,0,120,1.0,54.0
246,67.0,0,96,0.0,74.0
247,61.0,120,114,1.0,54.0
248,39.0,120,480,2.0,55.0
249,51.0,0,120,1.0,54.0
250,61.0,0,120,1.0,54.0
251,63.0,0,120,1.0,52.0
252,51.0,120,120,1.0,52.0
253,61.0,120,120,1.0,50.0
254,55.0,0,120,1.0,50.0
255,70.0,120,480,0.0,80.0
256,63.0,0,120,1.0,48.0
257,51.0,120,120,1.0,48.0
258,56.0,0,192,1.0,46.0
259,60.0,0,192,1.0,46.0
260,68.0,120,192,0.0,75.0
261,44.0,0,720,2.0,53.0
262,60.0,420,96,0.0,81.0
263,60.0,120,96,1.0,58.0
264,60.0,120,96,1.0,58.0
265,60.0,120,96,1.0,58.0
266,60.0,120,96,1.0,58.0
267,72.0,60,600,0.0,81.0
268,60.0,0,96,1.0,58.0
269,80.0,120,120,0.0,81.0
270,60.0,0,96,1.0,58.0
271,79.0,120,120,0.0,81.0
272,60.0,120,96,1.0,58.0
273,77.0,0,120,0.0,81.0
274,55.0,0,96,1.0,58.0
275,52.0,120,96,1.0,58.0
276,60.0,0,96,1.0,58.0
277,52.0,120,96,1.0,58.0
278,60.0,0,96,1.0,58.0
279,55.0,0,96,1.0,58.0
280,52.0,0,96,1.0,58.0
281,60.0,0,96,1.0,58.0
282,55.0,120,96,1.0,58.0
283,55.0,0,96,1.0,58.0
284,60.0,0,96,1.0,58.0
285,52.0,120,96,1.0,58.0
286,56.0,0,96,1.0,58.0
287,53.0,0,96,1.0,58.0
288,60.0,120,96,1.0,58.0
289,84.0,0,600,0.0,81.0
290,56.0,0,96,1.0,58.0
291,53.0,120,96,1.0,58.0
292,60.0,0,96,1.0,58.0
293,80.0,0,120,0.0,81.0
294,60.0,0,96,1.0,58.0
295,53.0,0,96,1.0,58.0
296,56.0,120,96,1.0,58.0
297,79.0,0,120,0.0,81.0
298,60.0,120,96,1.0,58.0
299,56.0,0,96,1.0,58.0
300,53.0,0,96,1.0,58.0
301,77.0,0,120,0.0,81.0
302,55.0,0,96,1.0,58.0
303,58.0,120,96,1.0,58.0
304,64.0,0,96,1.0,58.0
305,64.0,120,96,1.0,58.0
306,55.0,0,96,1.0,58.0
307,58.0,0,96,1.0,58.0
308,64.0,0,96,1.0,58.0
309,58.0,120,96,1.0,58.0
310,55.0,0,96,1.0,58.0
311,58.0,0,96,1.0,58.0
312,64.0,0,96,1.0,58.0
313,55.0,120,96,1.0,58.0
314,65.0,0,96,1.0,58.0
315,60.0,0,96,1.0,58.0
316,56.0,120,96,1.0,58.0
317,72.0,0,600,0.0,81.0
318,65.0,0,96,1.0,58.0
319,60.0,120,96,1.0,58.0
320,56.0,0,96,1.0,58.0
321,80.0,0,120,0.0,81.0
322,60.0,120,96,1.0,58.0
323,65.0,0,96,1.0,58.0
324,56.0,0,96,1.0,58.0
325,79.0,0,120,0.0,81.0
326,65.0,0,96,1.0,58.0
327,56.0,120,96,1.0,58.0
328,60.0,0,96,1.0,58.0
329,77.0,0,120,0.0,81.0
330,68.0,0,96,1.0,58.0
331,65.0,0,96,1.0,58.0
332,58.0,120,96,1.0,58.0
333,58.0,0,96,1.0,58.0
334,65.0,0,96,1.0,58.0
335,68.0,120,96,1.0,58.0
336,75.0,0,240,0.0,84.0
337,68.0,0,96,1.0,58.0
338,58.0,120,96,1.0,58.0
339,65.0,0,96,1.0,58.0
340,65.0,120,96,1.0,58.0
341,68.0,0,96,1.0,58.0
342,58.0,0,96,1.0,58.0
343,59.0,0,96,1.0,58.0
344,65.0,0,96,1.0,58.0
345,68.0,120,96,1.0,58.0
346,74.0,0,360,0.0,81.0
347,75.0,120,30,0.0,81.0
348,74.0,30,30,0.0,81.0
349,72.0,30,30,0.0,81.0
350,68.0,0,96,1.0,58.0
351,65.0,0,96,1.0,58.0
352,59.0,0,96,1.0,58.0
353,74.0,30,30,0.0,81.0
354,62.0,0,96,1.0,58.0
355,59.0,0,96,1.0,58.0
356,68.0,0,96,1.0,58.0
357,77.0,30,180,0.0,81.0
358,59.0,120,96,1.0,58.0
359,62.0,0,96,1.0,58.0
360,68.0,0,96,1.0,58.0
361,75.0,60,60,0.0,81.0
362,60.0,0,96,1.0,58.0
363,67.0,60,96,1.0,58.0
364,63.0,0,96,1.0,58.0
365,60.0,0,96,1.0,58.0
366,67.0,0,96,1.0,58.0
367,63.0,120,96,1.0,58.0
368,63.0,0,96,1.0,58.0
369,67.0,0,96,1.0,58.0
370,60.0,120,96,1.0,58.0
371,75.0,0,384,0.0,81.0
372,67.0,0,96,1.0,58.0
373,60.0,120,96,1.0,58.0
374,63.0,0,96,1.0,58.0
375,63.0,0,96,1.0,58.0
376,56.0,120,96,1.0,58.0
377,56.0,0,96,1.0,58.0
378,63.0,120,96,1.0,58.0
379,65.0,0,240,0.0,81.0
380,67.0,0,30,0.0,81.0
381,65.0,30,30,0.0,81.0
382,64.0,30,30,0.0,81.0
383,63.0,120,96,1.0,58.0
384,56.0,0,96,1.0,58.0
385,65.0,30,30,0.0,81.0
386,68.0,30,60,0.0,81.0
387,56.0,0,96,1.0,58.0
388,63.0,0,96,1.0,58.0
389,72.0,60,60,0.0,81.0
390,71.0,60,14,0.0,81.0
391,72.0,14,14,0.0,81.0
392,74.0,14,14,0.0,81.0
393,72.0,14,8,0.0,81.0
394,70.0,14,36,0.0,81.0
395,63.0,0,96,1.0,58.0
396,58.0,4,96,1.0,58.0
397,67.0,0,96,1.0,58.0
398,63.0,120,96,1.0,58.0
399,67.0,0,96,1.0,58.0
400,58.0,0,96,1.0,58.0
401,79.0,60,240,0.0,81.0
402,77.0,116,60,0.0,78.0
403,67.0,0,96,1.0,58.0
404,63.0,4,96,1.0,58.0
405,58.0,0,96,1.0,58.0
406,75.0,56,60,0.0,77.0
407,74.0,60,60,0.0,77.0
408,72.0,60,60,0.0,76.0
409,70.0,60,60,0.0,75.0
410,50.0,4,96,1.0,58.0
411,46.0,0,96,1.0,58.0
412,56.0,0,96,1.0,58.0
413,69.0,56,60,0.0,75.0
414,72.0,60,60,0.0,74.0
415,50.0,0,96,1.0,58.0
416,56.0,0,96,1.0,58.0
417,46.0,4,96,1.0,58.0
418,70.0,56,60,0.0,74.0
419,68.0,60,60,0.0,73.0
420,56.0,0,96,1.0,58.0
421,46.0,4,96,1.0,58.0
422,50.0,0,96,1.0,58.0
423,65.0,56,64,0.0,72.0
424,63.0,64,192,0.0,68.0
425,51.0,0,192,1.0,58.0
426,55.0,0,192,1.0,58.0
427,58.0,360,120,2.0,72.0
428,55.0,120,120,2.0,77.0
429,58.0,120,120,2.0,72.0
430,55.0,120,120,2.0,72.0
431,51.0,120,96,2.0,72.0
432,51.0,0,120,2.0,68.0
433,56.0,0,192,1.0,58.0
434,53.0,120,192,1.0,58.0
435,50.0,120,96,2.0,72.0
436,50.0,0,120,2.0,76.0
437,53.0,0,192,1.0,58.0
438,56.0,120,192,1.0,58.0
439,48.0,120,96,2.0,80.0
440,48.0,0,120,2.0,85.0
441,53.0,0,192,1.0,72.0
442,56.0,120,192,1.0,72.0
443,47.0,120,96,2.0,89.0
444,47.0,120,120,2.0,93.0
445,56.0,0,192,1.0,72.0
446,53.0,0,192,1.0,72.0
447,46.0,120,96,2.0,97.0
448,34.0,0,960,1.0,58.0
449,46.0,0,228,1.0,72.0
450,55.0,120,228,1.0,72.0
451,39.0,0,228,2.0,91.0
452,51.0,0,228,1.0,72.0
453,46.0,360,120,2.0,73.0
454,43.0,120,120,2.0,72.0
455,46.0,120,120,2.0,72.0
456,43.0,120,120,2.0,72.0
457,58.0,0,180,0.0,72.0
458,63.0,60,48,0.0,72.0
459,39.0,120,120,2.0,72.0
460,63.0,60,120,0.0,72.0
461,62.0,120,96,0.0,73.0
462,62.0,120,120,0.0,75.0
463,34.0,0,384,2.0,72.0
464,56.0,0,384,1.0,72.0
465,53.0,0,384,1.0,72.0
466,60.0,120,96,0.0,78.0
467,60.0,0,120,0.0,81.0
468,59.0,120,96,0.0,83.0
469,59.0,120,120,0.0,86.0
470,56.0,0,384,1.0,72.0
471,53.0,0,384,1.0,72.0
472,46.0,120,384,2.0,81.0
473,58.0,120,96,0.0,92.0
474,53.0,0,120,0.0,62.0
475,52.0,120,114,0.0,64.0
476,52.0,120,120,0.0,67.0
477,51.0,120,114,0.0,69.0
478,51.0,120,120,0.0,72.0
479,50.0,120,114,0.0,74.0
480,50.0,120,120,0.0,77.0
481,51.0,120,114,0.0,79.0
482,51.0,120,120,0.0,76.0
483,52.0,120,114,0.0,73.0
484,52.0,120,120,0.0,70.0
485,51.0,120,114,0.0,67.0
486,51.0,120,120,0.0,54.0
487,50.0,120,114,0.0,52.0
488,50.0,120,120,0.0,50.0
489,39.0,120,1872,2.0,72.0
490,58.0,0,1872,1.0,72.0
491,55.0,0,1872,1.0,72.0
492,49.0,120,114,0.0,46.0
493,48.0,0,120,1.0,58.0
494,56.0,0,120,1.0,58.0
495,51.0,120,120,1.0,58.0
496,56.0,120,120,1.0,58.0
497,51.0,120,120,1.0,58.0
498,44.0,0,480,2.0,58.0
499,60.0,120,480,0.0,75.0
500,32.0,0,480,2.0,58.0
501,55.0,120,120,1.0,58.0
502,51.0,120,120,1.0,58.0
503,55.0,120,120,1.0,58.0
504,49.0,0,480,2.0,58.0
505,58.0,0,480,0.0,81.0
506,51.0,120,120,1.0,58.0
507,56.0,120,120,1.0,58.0
508,51.0,120,120,1.0,58.0
509,56.0,120,120,1.0,58.0
510,51.0,120,120,1.0,58.0
511,48.0,0,480,2.0,58.0
512,58.0,0,120,1.0,58.0
513,63.0,0,720,0.0,81.0
514,51.0,120,120,1.0,58.0
515,58.0,120,120,1.0,58.0
516,43.0,120,480,2.0,58.0
517,61.0,0,240,0.0,81.0
518,51.0,120,120,1.0,58.0
519,56.0,0,120,1.0,54.0
520,60.0,0,240,0.0,70.0
521,51.0,120,120,1.0,58.0
522,44.0,120,240,2.0,58.0
523,58.0,0,120,1.0,58.0
524,43.0,0,240,2.0,58.0
525,51.0,120,120,1.0,58.0
526,63.0,120,240,0.0,78.0
527,60.0,0,120,1.0,58.0
528,41.0,120,240,2.0,58.0
529,68.0,0,240,0.0,85.0
530,56.0,120,120,1.0,58.0
531,62.0,0,120,1.0,61.0
532,56.0,120,120,1.0,61.0
533,70.0,0,240,0.0,70.0
534,53.0,120,240,2.0,58.0
535,55.0,120,120,1.0,55.0
536,58.0,120,120,1.0,58.0
537,55.0,120,120,1.0,58.0
538,51.0,0,480,2.0,58.0
539,58.0,120,120,1.0,58.0
540,55.0,0,120,1.0,58.0
541,58.0,120,120,1.0,58.0
542,63.0,0,720,0.0,61.0
543,55.0,120,120,1.0,58.0
544,39.0,120,480,2.0,58.0
545,64.0,0,240,0.0,75.0
546,58.0,120,120,1.0,58.0
547,55.0,120,120,1.0,58.0
548,58.0,120,120,1.0,58.0
549,55.0,120,120,1.0,58.0
550,65.0,0,384,0.0,79.0
551,58.0,120,120,1.0,58.0
552,37.0,0,480,2.0,58.0
553,55.0,0,120,1.0,58.0
554,51.0,120,120,1.0,58.0
555,58.0,120,360,0.0,77.0
556,55.0,120,120,1.0,58.0
557,60.0,120,60,0.0,81.0
558,51.0,0,120,1.0,58.0
559,49.0,0,480,2.0,58.0
560,61.0,60,60,0.0,84.0
561,56.0,0,120,1.0,58.0
562,51.0,120,120,1.0,58.0
563,56.0,120,120,1.0,58.0
564,48.0,0,480,2.0,58.0
565,63.0,60,480,0.0,86.0
566,51.0,0,0,1.0,58.0
567,48.0,120,120,1.0,58.0
568,51.0,120,120,1.0,58.0
569,41.0,120,480,2.0,58.0
570,48.0,120,120,1.0,58.0
571,57.0,0,480,0.0,76.0
572,53.0,0,120,1.0,58.0
573,49.0,120,120,1.0,58.0
574,53.0,120,120,1.0,58.0
575,61.0,0,384,0.0,71.0
576,34.0,120,480,2.0,58.0
577,49.0,120,120,1.0,58.0
578,49.0,0,114,1.0,58.0
579,60.0,120,114,0.0,75.0
580,49.0,120,114,1.0,58.0
581,58.0,0,114,0.0,75.0
582,56.0,120,114,0.0,75.0
583,49.0,0,114,1.0,58.0
584,55.0,0,114,0.0,75.0
585,49.0,120,114,1.0,58.0
586,39.0,0,480,2.0,58.0
587,49.0,120,120,1.0,57.0
588,32.0,0,192,2.0,58.0
589,51.0,120,120,1.0,55.0
590,49.0,120,120,1.0,54.0
591,44.0,0,192,2.0,53.0
592,51.0,120,120,1.0,52.0
593,58.0,0,480,0.0,75.0
594,55.0,0,480,0.0,75.0
595,48.0,0,192,1.0,51.0
596,32.0,120,192,2.0,50.0
597,56.0,0,192,0.0,69.0
598,63.0,240,192,0.0,72.0
599,63.0,0,64,1.0,58.0
600,59.0,0,64,1.0,58.0
601,63.0,0,64,1.0,58.0
602,59.0,80,64,1.0,58.0
603,63.0,0,64,1.0,58.0
604,59.0,80,64,1.0,58.0
605,68.0,240,240,0.0,72.0
606,59.0,0,64,1.0,58.0
607,63.0,0,64,1.0,58.0
608,63.0,0,64,1.0,58.0
609,59.0,80,64,1.0,58.0
610,56.0,0,384,1.0,58.0
611,44.0,0,384,1.0,58.0
612,63.0,80,64,1.0,58.0
613,59.0,0,64,1.0,58.0
614,71.0,80,240,0.0,72.0
615,59.0,0,64,1.0,58.0
616,63.0,80,64,1.0,58.0
617,63.0,0,64,1.0,58.0
618,59.0,80,64,1.0,58.0
619,59.0,0,64,1.0,58.0
620,63.0,80,64,1.0,58.0
621,70.0,0,240,0.0,72.0
622,59.0,80,64,1.0,58.0
623,63.0,0,64,1.0,58.0
624,63.0,80,64,1.0,58.0
625,59.0,0,64,1.0,58.0
626,63.0,0,64,1.0,58.0
627,59.0,80,64,1.0,58.0
628,68.0,0,240,0.0,72.0
629,63.0,0,64,1.0,58.0
630,61.0,80,64,1.0,58.0
631,61.0,80,64,1.0,58.0
632,63.0,0,64,1.0,58.0
633,61.0,80,64,1.0,58.0
634,63.0,0,64,1.0,58.0
635,67.0,0,240,0.0,75.0
636,63.0,80,64,1.0,58.0
637,61.0,0,64,1.0,58.0
638,58.0,0,304,2.0,73.0
639,61.0,0,64,1.0,58.0
640,63.0,80,64,1.0,58.0
641,58.0,0,80,2.0,75.0
642,73.0,0,192,0.0,72.0
643,61.0,0,64,1.0,58.0
644,63.0,80,64,1.0,58.0
645,57.0,0,80,2.0,72.0
646,58.0,80,48,2.0,72.0
647,63.0,0,64,1.0,58.0
648,61.0,0,64,1.0,58.0
649,58.0,0,60,2.0,72.0
650,61.0,0,64,1.0,58.0
651,63.0,80,64,1.0,58.0
652,56.0,80,60,2.0,72.0
653,61.0,0,64,1.0,58.0
654,63.0,0,64,1.0,58.0
655,55.0,0,60,2.0,72.0
656,63.0,0,64,1.0,58.0
657,61.0,80,64,1.0,58.0
658,53.0,0,60,2.0,70.0
659,61.0,0,64,1.0,58.0
660,63.0,80,64,1.0,58.0
661,51.0,80,60,2.0,68.0
662,63.0,0,64,1.0,58.0
663,61.0,0,64,1.0,58.0
664,63.0,0,64,1.0,58.0
665,59.0,80,64,1.0,58.0
666,59.0,0,64,1.0,58.0
667,63.0,80,64,1.0,58.0
668,56.0,0,192,2.0,66.0
669,63.0,0,64,1.0,58.0
670,59.0,80,64,1.0,58.0
671,68.0,0,240,0.0,72.0
672,59.0,0,64,1.0,58.0
673,63.0,80,64,1.0,58.0
674,59.0,0,64,1.0,58.0
675,63.0,80,64,1.0,58.0
676,59.0,0,64,1.0,58.0
677,63.0,80,64,1.0,58.0
678,71.0,0,240,0.0,72.0
679,59.0,0,64,1.0,58.0
680,63.0,80,64,1.0,58.0
681,59.0,0,64,1.0,58.0
682,63.0,80,64,1.0,58.0
683,63.0,0,64,1.0,58.0
684,59.0,80,64,1.0,58.0
685,70.0,0,240,0.0,72.0
686,59.0,80,64,1.0,58.0
687,63.0,0,64,1.0,58.0
688,59.0,0,64,1.0,58.0
689,63.0,80,64,1.0,58.0
690,59.0,0,64,1.0,58.0
691,63.0,80,64,1.0,58.0
692,68.0,0,0,0.0,72.0
693,58.0,80,64,1.0,58.0
694,63.0,0,64,1.0,58.0
695,63.0,0,64,1.0,58.0
696,58.0,80,64,1.0,58.0
697,58.0,80,64,1.0,58.0
698,63.0,0,64,1.0,58.0
699,58.0,80,64,1.0,58.0
700,63.0,0,64,1.0,58.0
701,51.0,80,8,2.0,76.0
702,63.0,0,64,1.0,58.0
703,58.0,0,64,1.0,58.0
704,67.0,0,192,0.0,72.0
705,63.0,0,64,1.0,58.0
706,58.0,80,64,1.0,58.0
707,50.0,0,80,2.0,72.0
708,51.0,0,60,2.0,72.0
709,58.0,0,64,1.0,58.0
710,63.0,0,64,1.0,58.0
711,55.0,80,64,1.0,58.0
712,52.0,80,60,2.0,72.0
713,63.0,0,64,1.0,58.0
714,55.0,0,64,1.0,58.0
715,58.0,0,64,1.0,58.0
716,51.0,0,60,2.0,72.0
717,58.0,80,64,1.0,58.0
718,63.0,0,64,1.0,58.0
719,55.0,0,64,1.0,58.0
720,49.0,0,60,2.0,72.0
721,55.0,0,64,1.0,58.0
722,63.0,80,64,1.0,58.0
723,58.0,0,64,1.0,58.0
724,47.0,80,60,2.0,69.0
725,55.0,0,64,1.0,58.0
726,58.0,0,64,1.0,58.0
727,63.0,0,64,1.0,58.0
728,46.0,0,60,2.0,66.0
729,58.0,0,64,1.0,58.0
730,63.0,0,64,1.0,58.0
731,55.0,80,64,1.0,58.0
732,59.0,0,64,1.0,57.0
733,63.0,0,64,1.0,57.0
734,59.0,80,64,1.0,58.0
735,63.0,0,64,1.0,58.0
736,44.0,80,192,2.0,63.0
737,63.0,0,64,1.0,60.0
738,59.0,80,64,1.0,60.0
739,68.0,0,240,0.0,70.0
740,63.0,0,64,1.0,62.0
741,59.0,80,64,1.0,62.0
742,59.0,80,64,1.0,63.0
743,63.0,0,64,1.0,63.0
744,59.0,0,64,1.0,65.0
745,63.0,80,64,1.0,65.0
746,71.0,0,240,0.0,81.0
747,63.0,0,64,1.0,67.0
748,59.0,0,64,1.0,67.0
749,63.0,0,64,1.0,68.0
750,59.0,80,64,1.0,68.0
751,63.0,0,64,1.0,70.0
752,59.0,80,64,1.0,70.0
753,70.0,80,240,0.0,93.0
754,63.0,80,64,1.0,72.0
755,59.0,0,64,1.0,72.0
756,63.0,0,64,1.0,74.0
757,59.0,80,64,1.0,74.0
758,63.0,0,64,1.0,75.0
759,59.0,80,64,1.0,75.0
760,68.0,0,240,0.0,105.0
761,54.0,80,64,1.0,66.0
762,45.0,0,64,1.0,66.0
763,47.0,0,64,1.0,66.0
764,51.0,0,64,1.0,66.0
765,51.0,0,64,1.0,66.0
766,45.0,80,64,1.0,66.0
767,54.0,0,64,1.0,66.0
768,47.0,0,64,1.0,66.0
769,66.0,0,192,0.0,112.0
770,51.0,0,64,1.0,66.0
771,54.0,0,64,1.0,66.0
772,45.0,80,64,1.0,66.0
773,47.0,0,64,1.0,66.0
774,78.0,0,288,0.0,112.0
775,54.0,80,64,1.0,66.0
776,47.0,0,64,1.0,66.0
777,51.0,0,64,1.0,66.0
778,45.0,0,64,1.0,66.0
779,75.0,0,48,0.0,92.0
780,45.0,0,64,1.0,66.0
781,47.0,80,64,1.0,66.0
782,51.0,0,64,1.0,66.0
783,54.0,0,64,1.0,66.0
784,71.0,80,48,0.0,92.0
785,51.0,0,64,1.0,67.0
786,54.0,0,64,1.0,67.0
787,47.0,0,64,1.0,67.0
788,45.0,0,64,1.0,67.0
789,56.0,80,64,1.0,67.0
790,52.0,0,64,1.0,67.0
791,47.0,0,64,1.0,67.0
792,44.0,0,64,1.0,67.0
793,47.0,80,64,1.0,67.0
794,44.0,0,64,1.0,67.0
795,52.0,0,64,1.0,67.0
796,56.0,0,64,1.0,67.0
797,47.0,0,64,1.0,67.0
798,56.0,0,64,1.0,67.0
799,52.0,0,64,1.0,67.0
800,44.0,80,64,1.0,67.0
801,83.0,0,288,0.0,112.0
802,44.0,0,64,1.0,67.0
803,47.0,0,64,1.0,67.0
804,52.0,0,64,1.0,67.0
805,56.0,80,64,1.0,67.0
806,80.0,80,48,0.0,92.0
807,56.0,0,64,1.0,68.0
808,44.0,0,64,1.0,68.0
809,52.0,0,64,1.0,68.0
810,47.0,0,64,1.0,68.0
811,76.0,0,48,0.0,92.0
812,56.0,0,64,1.0,68.0
813,47.0,0,64,1.0,68.0
814,52.0,0,64,1.0,68.0
815,44.0,80,64,1.0,68.0
816,52.0,0,64,1.0,68.0
817,49.0,0,64,1.0,68.0
818,54.0,0,64,1.0,68.0
819,58.0,0,64,1.0,68.0
820,49.0,0,64,1.0,68.0
821,54.0,80,64,1.0,68.0
822,58.0,0,64,1.0,68.0
823,52.0,0,64,1.0,68.0
824,76.0,80,192,0.0,112.0
825,58.0,0,64,1.0,68.0
826,54.0,0,64,1.0,68.0
827,52.0,0,64,1.0,68.0
828,49.0,80,64,1.0,68.0
829,88.0,0,288,0.0,112.0
830,52.0,80,64,1.0,69.0
831,54.0,0,64,1.0,69.0
832,58.0,0,64,1.0,69.0
833,49.0,0,64,1.0,69.0
834,85.0,80,48,0.0,92.0
835,52.0,0,64,1.0,69.0
836,49.0,0,64,1.0,69.0
837,58.0,0,64,1.0,69.0
838,54.0,0,64,1.0,69.0
839,82.0,80,48,0.0,92.0
840,49.0,0,64,1.0,69.0
841,52.0,0,64,1.0,69.0
842,58.0,0,64,1.0,69.0
843,54.0,0,64,1.0,69.0
844,47.0,0,64,1.0,69.0
845,59.0,0,64,1.0,69.0
846,56.0,0,64,1.0,69.0
847,52.0,80,64,1.0,69.0
848,83.0,0,144,0.0,92.0
849,52.0,80,64,1.0,69.0
850,59.0,0,64,1.0,69.0
851,56.0,0,64,1.0,69.0
852,47.0,0,64,1.0,69.0
853,71.0,0,144,0.0,92.0
854,52.0,80,64,1.0,70.0
855,59.0,0,64,1.0,70.0
856,56.0,0,64,1.0,70.0
857,47.0,0,64,1.0,70.0
858,47.0,0,64,1.0,70.0
859,35.0,0,64,1.0,70.0
860,47.0,0,64,1.0,70.0
861,35.0,80,64,1.0,70.0
862,59.0,0,144,0.0,92.0
863,63.0,80,144,0.0,92.0
864,57.0,0,144,2.0,81.0
865,54.0,0,144,2.0,81.0
866,35.0,0,64,1.0,70.0
867,47.0,80,64,1.0,70.0
868,56.0,0,64,1.0,70.0
869,64.0,80,64,1.0,70.0
870,59.0,0,64,1.0,70.0
871,40.0,0,144,2.0,92.0
872,56.0,80,64,1.0,62.0
873,52.0,0,144,2.0,92.0
874,59.0,0,64,1.0,62.0
875,59.0,0,64,1.0,61.0
876,56.0,80,64,1.0,61.0
877,59.0,0,64,1.0,60.0
878,56.0,80,64,1.0,60.0
879,56.0,0,64,1.0,59.0
880,59.0,80,64,1.0,59.0
881,59.0,0,64,1.0,58.0
882,56.0,80,64,1.0,58.0
883,56.0,80,64,1.0,58.0
884,59.0,0,64,1.0,58.0
885,59.0,0,64,1.0,55.0
886,56.0,80,64,1.0,55.0
887,59.0,0,64,1.0,54.0
888,56.0,80,64,1.0,54.0
889,56.0,80,64,1.0,52.0
890,59.0,0,64,1.0,52.0
891,56.0,0,64,1.0,50.0
892,59.0,80,64,1.0,50.0
893,59.0,80,64,1.0,49.0
894,56.0,0,64,1.0,49.0
895,59.0,0,64,1.0,49.0
896,56.0,0,64,1.0,49.0
897,56.0,0,64,1.0,49.0
898,59.0,80,64,1.0,49.0
899,59.0,0,64,1.0,49.0
900,56.0,80,64,1.0,49.0
901,64.0,80,240,0.0,66.0
902,56.0,80,64,1.0,49.0
903,59.0,0,64,1.0,49.0
904,40.0,0,384,2.0,51.0
905,59.0,0,64,1.0,49.0
906,56.0,80,64,1.0,49.0
907,52.0,0,384,2.0,51.0
908,56.0,80,64,1.0,49.0
909,59.0,0,64,1.0,49.0
910,68.0,0,240,0.0,69.0
911,59.0,0,64,1.0,49.0
912,56.0,0,64,1.0,49.0
913,56.0,0,64,1.0,49.0
914,59.0,80,64,1.0,49.0
915,59.0,80,64,1.0,49.0
916,56.0,0,64,1.0,49.0
917,66.0,80,240,0.0,70.0
918,59.0,0,64,1.0,49.0
919,56.0,0,64,1.0,49.0
920,56.0,0,64,1.0,49.0
921,59.0,80,64,1.0,49.0
922,59.0,0,64,1.0,49.0
923,56.0,80,64,1.0,49.0
924,64.0,80,240,0.0,65.0
925,59.0,80,64,1.0,49.0
926,57.0,0,64,1.0,49.0
927,57.0,0,64,1.0,49.0
928,59.0,80,64,1.0,49.0
929,57.0,0,64,1.0,49.0
930,59.0,80,64,1.0,49.0
931,63.0,0,240,0.0,72.0
932,57.0,0,64,1.0,49.0
933,54.0,0,304,2.0,72.0
934,59.0,0,64,1.0,49.0
935,57.0,0,64,1.0,49.0
936,59.0,80,64,1.0,49.0
937,54.0,0,80,2.0,72.0
938,69.0,80,192,0.0,66.0
939,59.0,0,64,1.0,49.0
940,57.0,80,64,1.0,49.0
941,53.0,0,80,2.0,72.0
942,54.0,0,60,2.0,72.0
943,59.0,80,64,1.0,49.0
944,57.0,0,64,1.0,49.0
945,54.0,0,60,2.0,72.0
946,59.0,0,64,1.0,49.0
947,57.0,80,64,1.0,49.0
948,52.0,0,60,2.0,72.0
949,59.0,80,64,1.0,49.0
950,57.0,0,64,1.0,49.0
951,51.0,0,60,2.0,72.0
952,59.0,80,64,1.0,49.0
953,57.0,0,64,1.0,49.0
954,49.0,0,60,2.0,72.0
955,59.0,80,64,1.0,49.0
956,57.0,0,64,1.0,49.0
957,47.0,0,60,2.0,72.0
958,57.0,80,64,1.0,49.0
959,59.0,0,64,1.0,49.0
960,56.0,0,64,1.0,49.0
961,59.0,0,64,1.0,49.0
962,56.0,0,64,1.0,49.0
963,59.0,80,64,1.0,49.0
964,52.0,80,192,2.0,72.0
965,59.0,0,64,1.0,49.0
966,56.0,80,64,1.0,49.0
967,64.0,0,240,0.0,72.0
968,59.0,80,64,1.0,49.0
969,56.0,0,64,1.0,49.0
970,59.0,0,64,1.0,49.0
971,56.0,80,64,1.0,49.0
972,59.0,80,64,1.0,49.0
973,56.0,0,64,1.0,49.0
974,68.0,0,240,0.0,72.0
975,59.0,0,64,1.0,49.0
976,56.0,0,64,1.0,49.0
977,59.0,0,64,1.0,49.0
978,56.0,80,64,1.0,49.0
979,56.0,0,64,1.0,49.0
980,59.0,80,64,1.0,49.0
981,64.0,80,240,0.0,72.0
982,59.0,0,64,1.0,49.0
983,56.0,80,64,1.0,49.0
984,56.0,0,64,1.0,49.0
985,59.0,80,64,1.0,49.0
986,56.0,80,64,1.0,49.0
987,59.0,0,64,1.0,49.0
988,63.0,0,240,0.0,72.0
989,59.0,0,64,1.0,49.0
990,56.0,0,64,1.0,49.0
991,50.0,80,64,1.0,49.0
992,29.0,80,44,2.0,69.0
993,59.0,0,64,1.0,49.0
994,56.0,0,64,1.0,49.0
995,50.0,0,64,1.0,49.0
996,32.0,0,44,2.0,70.0
997,56.0,0,64,1.0,49.0
998,59.0,80,64,1.0,49.0
999,50.0,0,64,1.0,49.0
1000,35.0,0,44,2.0,71.0
1001,50.0,80,64,1.0,49.0
1002,59.0,0,64,1.0,49.0
1003,56.0,0,64,1.0,49.0
1004,38.0,0,44,2.0,73.0
1005,59.0,0,64,1.0,49.0
1006,50.0,80,64,1.0,49.0
1007,56.0,0,64,1.0,49.0
1008,41.0,0,44,2.0,74.0
1009,50.0,0,64,1.0,49.0
1010,59.0,0,64,1.0,49.0
1011,56.0,80,64,1.0,49.0
1012,50.0,0,64,1.0,49.0
1013,56.0,0,64,1.0,49.0
1014,59.0,0,64,1.0,49.0
1015,50.0,0,64,1.0,49.0
1016,56.0,80,64,1.0,49.0
1017,59.0,0,64,1.0,49.0
1018,44.0,80,192,2.0,75.0
1019,56.0,0,64,1.0,49.0
1020,50.0,0,64,1.0,49.0
1021,59.0,80,64,1.0,49.0
1022,62.0,80,0,0.0,72.0
1023,59.0,0,64,1.0,49.0
1024,56.0,0,64,1.0,49.0
1025,50.0,0,64,1.0,49.0
1026,50.0,0,64,1.0,49.0
1027,56.0,0,64,1.0,49.0
1028,59.0,80,64,1.0,49.0
1029,56.0,0,64,1.0,49.0
1030,59.0,0,64,1.0,49.0
1031,50.0,80,64,1.0,49.0
1032,59.0,0,64,1.0,49.0
1033,50.0,0,64,1.0,49.0
1034,56.0,0,64,1.0,49.0
1035,29.0,0,44,2.0,69.0
1036,59.0,0,64,1.0,49.0
1037,50.0,80,64,1.0,49.0
1038,56.0,0,64,1.0,49.0
1039,32.0,80,44,2.0,70.0
1040,59.0,0,64,1.0,49.0
1041,50.0,0,64,1.0,49.0
1042,56.0,0,64,1.0,49.0
1043,35.0,80,44,2.0,71.0
1044,50.0,0,64,1.0,49.0
1045,56.0,0,64,1.0,49.0
1046,59.0,0,64,1.0,49.0
1047,38.0,0,44,2.0,72.0
1048,50.0,80,64,1.0,49.0
1049,56.0,0,64,1.0,49.0
1050,59.0,0,64,1.0,49.0
1051,41.0,0,44,2.0,73.0
1052,59.0,0,64,1.0,49.0
1053,56.0,0,64,1.0,49.0
1054,50.0,80,64,1.0,49.0
1055,50.0,0,64,1.0,49.0
1056,59.0,0,64,1.0,49.0
1057,56.0,80,64,1.0,49.0
1058,59.0,0,64,1.0,49.0
1059,50.0,80,64,1.0,49.0
1060,56.0,0,64,1.0,49.0
1061,44.0,0,192,2.0,74.0
1062,59.0,80,64,1.0,49.0
1063,50.0,0,64,1.0,49.0
1064,56.0,0,64,1.0,49.0
1065,62.0,0,0,0.0,72.0
1066,50.0,0,64,1.0,49.0
1067,56.0,0,64,1.0,49.0
1068,59.0,80,64,1.0,49.0
1069,59.0,80,64,1.0,49.0
1070,50.0,0,64,1.0,49.0
1071,56.0,0,64,1.0,49.0
1072,56.0,0,64,1.0,49.0
1073,59.0,0,64,1.0,49.0
1074,50.0,80,64,1.0,49.0
1075,49.0,0,64,1.0,48.0
1076,56.0,0,64,1.0,48.0
1077,58.0,80,64,1.0,48.0
1078,40.0,80,44,2.0,75.0
1079,58.0,0,64,1.0,50.0
1080,56.0,0,64,1.0,50.0
1081,49.0,0,64,1.0,50.0
1082,44.0,80,44,2.0,77.0
1083,58.0,0,64,1.0,53.0
1084,56.0,0,64,1.0,53.0
1085,49.0,0,64,1.0,53.0
1086,49.0,80,64,1.0,55.0
1087,58.0,0,64,1.0,55.0
1088,56.0,0,64,1.0,55.0
1089,46.0,0,132,2.0,79.0
1090,58.0,80,64,1.0,58.0
1091,49.0,0,64,1.0,58.0
1092,56.0,0,64,1.0,58.0
1093,56.0,0,64,1.0,60.0
1094,49.0,80,64,1.0,60.0
1095,58.0,0,64,1.0,60.0
1096,49.0,0,64,1.0,63.0
1097,58.0,0,64,1.0,63.0
1098,55.0,80,64,1.0,63.0
1099,39.0,0,44,2.0,87.0
1100,49.0,80,64,1.0,65.0
1101,55.0,0,64,1.0,65.0
1102,58.0,0,64,1.0,65.0
1103,43.0,80,44,2.0,89.0
1104,55.0,0,64,1.0,68.0
1105,58.0,0,64,1.0,68.0
1106,49.0,0,64,1.0,68.0
1107,61.0,0,0,0.0,81.0
1108,55.0,0,64,1.0,74.0
1109,58.0,0,64,1.0,74.0
1110,51.0,0,64,1.0,74.0
1111,49.0,0,64,1.0,74.0
1112,46.0,80,132,2.0,92.0
1113,49.0,0,64,1.0,75.0
1114,55.0,80,64,1.0,75.0
1115,51.0,0,64,1.0,75.0
1116,58.0,0,64,1.0,75.0
1117,51.0,0,64,1.0,76.0
1118,58.0,0,64,1.0,76.0
1119,55.0,0,64,1.0,76.0
1120,49.0,80,64,1.0,76.0
1121,48.0,0,80,1.0,58.0
1122,51.0,80,52,1.0,58.0
1123,51.0,80,52,1.0,58.0
1124,56.0,80,80,1.0,58.0
1125,51.0,80,52,1.0,58.0
1126,51.0,80,52,1.0,58.0
1127,60.0,80,480,0.0,81.0
1128,44.0,0,480,2.0,51.0
1129,32.0,0,480,2.0,51.0
1130,55.0,0,80,1.0,58.0
1131,51.0,80,52,1.0,58.0
1132,51.0,80,52,1.0,58.0
1133,55.0,80,80,1.0,58.0
1134,51.0,80,52,1.0,58.0
1135,51.0,80,52,1.0,58.0
1136,49.0,0,480,2.0,58.0
1137,58.0,80,480,0.0,81.0
1138,56.0,0,80,1.0,58.0
1139,51.0,80,52,1.0,58.0
1140,51.0,80,52,1.0,58.0
1141,56.0,80,80,1.0,58.0
1142,51.0,80,52,1.0,58.0
1143,51.0,80,52,1.0,58.0
1144,48.0,0,480,2.0,58.0
1145,58.0,80,80,1.0,58.0
1146,51.0,80,52,1.0,58.0
1147,51.0,80,52,1.0,58.0
1148,63.0,80,720,0.0,81.0
1149,58.0,80,80,1.0,58.0
1150,51.0,80,52,1.0,58.0
1151,51.0,80,52,1.0,58.0
1152,61.0,0,240,0.0,81.0
1153,43.0,0,480,2.0,58.0
1154,56.0,0,80,1.0,58.0
1155,51.0,80,52,1.0,58.0
1156,51.0,80,52,1.0,58.0
1157,44.0,0,240,2.0,58.0
1158,60.0,80,240,0.0,81.0
1159,58.0,0,80,1.0,58.0
1160,51.0,80,52,1.0,58.0
1161,51.0,80,52,1.0,58.0
1162,63.0,0,240,0.0,85.0
1163,43.0,80,240,2.0,58.0
1164,60.0,80,80,1.0,58.0
1165,56.0,80,52,1.0,58.0
1166,56.0,80,52,1.0,58.0
1167,68.0,0,240,0.0,90.0
1168,41.0,0,240,2.0,58.0
1169,62.0,0,80,1.0,58.0
1170,56.0,80,52,1.0,58.0
1171,56.0,80,52,1.0,58.0
1172,53.0,0,240,2.0,58.0
1173,70.0,80,240,0.0,81.0
1174,55.0,0,80,1.0,58.0
1175,58.0,80,52,1.0,58.0
1176,58.0,80,52,1.0,58.0
1177,55.0,80,80,1.0,58.0
1178,58.0,80,52,1.0,58.0
1179,58.0,80,52,1.0,58.0
1180,51.0,0,480,2.0,58.0
1181,55.0,80,80,1.0,58.0
1182,58.0,80,52,1.0,58.0
1183,58.0,80,52,1.0,58.0
1184,63.0,80,720,0.0,69.0
1185,55.0,0,80,1.0,58.0
1186,58.0,80,52,1.0,58.0
1187,58.0,80,52,1.0,58.0
1188,39.0,0,480,2.0,58.0
1189,64.0,80,240,0.0,73.0
1190,55.0,80,80,1.0,58.0
1191,58.0,80,52,1.0,58.0
1192,58.0,80,52,1.0,58.0
1193,55.0,80,80,1.0,58.0
1194,58.0,80,52,1.0,58.0
1195,65.0,0,384,0.0,79.0
1196,58.0,80,52,1.0,58.0
1197,37.0,0,480,2.0,58.0
1198,55.0,80,80,1.0,58.0
1199,51.0,80,52,1.0,58.0
1200,51.0,80,52,1.0,58.0
1201,55.0,80,80,1.0,58.0
1202,58.0,0,360,0.0,77.0
1203,51.0,80,52,1.0,58.0
1204,60.0,40,60,0.0,84.0
1205,51.0,40,52,1.0,58.0
1206,61.0,20,60,0.0,85.0
1207,49.0,0,480,2.0,58.0
1208,56.0,0,80,1.0,58.0
1209,51.0,80,52,1.0,58.0
1210,51.0,80,52,1.0,58.0
1211,56.0,80,80,1.0,58.0
1212,51.0,80,52,1.0,58.0
1213,51.0,80,52,1.0,58.0
1214,48.0,60,480,2.0,58.0
1215,63.0,0,480,0.0,90.0
1216,51.0,0,80,1.0,58.0
1217,48.0,80,52,1.0,58.0
1218,48.0,80,52,1.0,58.0
1219,51.0,80,80,1.0,58.0
1220,48.0,80,52,1.0,58.0
1221,48.0,80,52,1.0,58.0
1222,41.0,80,480,2.0,58.0
1223,57.0,0,480,0.0,81.0
1224,53.0,0,80,1.0,58.0
1225,49.0,80,52,1.0,58.0
1226,49.0,80,52,1.0,58.0
1227,53.0,80,80,1.0,58.0
1228,49.0,80,52,1.0,58.0
1229,61.0,80,384,0.0,81.0
1230,49.0,80,52,1.0,58.0
1231,34.0,0,480,2.0,58.0
1232,61.0,0,80,0.0,81.0
1233,55.0,0,80,1.0,58.0
1234,49.0,0,52,1.0,58.0
1235,60.0,80,52,0.0,81.0
1236,49.0,0,52,1.0,58.0
1237,58.0,80,52,0.0,81.0
1238,49.0,80,80,1.0,58.0
1239,58.0,0,80,0.0,81.0
1240,56.0,0,52,0.0,81.0
1241,49.0,80,52,1.0,58.0
1242,49.0,80,52,1.0,58.0
1243,55.0,0,52,0.0,81.0
1244,39.0,80,480,2.0,58.0
1245,49.0,80,80,1.0,59.0
1246,51.0,80,52,1.0,57.0
1247,32.0,0,192,2.0,56.0
1248,51.0,80,52,1.0,55.0
1249,49.0,80,80,1.0,54.0
1250,51.0,80,52,1.0,52.0
1251,44.0,0,192,2.0,53.0
1252,51.0,80,52,1.0,50.0
1253,55.0,0,480,0.0,74.0
1254,58.0,0,480,0.0,74.0
1255,48.0,0,68,1.0,49.0
1256,51.0,80,68,1.0,54.0
1257,32.0,0,192,2.0,51.0
1258,56.0,80,192,0.0,64.0
1259,56.0,80,68,1.0,56.0
1260,60.0,80,68,1.0,58.0
1261,63.0,80,68,1.0,60.0
1262,68.0,80,68,1.0,63.0
1263,56.0,0,80,1.0,58.0
1264,60.0,0,80,1.0,58.0
1265,63.0,0,64,1.0,58.0
1266,51.0,80,64,1.0,58.0
1267,63.0,0,64,1.0,58.0
1268,51.0,80,64,1.0,58.0
1269,60.0,0,80,1.0,58.0
1270,56.0,80,80,1.0,58.0
1271,63.0,0,64,1.0,58.0
1272,51.0,80,64,1.0,58.0
1273,63.0,0,64,1.0,58.0
1274,51.0,80,64,1.0,58.0
1275,44.0,80,480,2.0,58.0
1276,72.0,0,480,0.0,85.0
1277,55.0,0,80,1.0,58.0
1278,58.0,80,80,1.0,58.0
1279,63.0,0,64,1.0,58.0
1280,51.0,80,64,1.0,58.0
1281,63.0,0,64,1.0,58.0
1282,51.0,80,64,1.0,58.0
1283,58.0,0,80,1.0,58.0
1284,55.0,80,80,1.0,58.0
1285,51.0,0,64,1.0,58.0
1286,63.0,80,64,1.0,58.0
1287,63.0,0,64,1.0,58.0
1288,51.0,80,64,1.0,58.0
1289,49.0,0,480,2.0,58.0
1290,70.0,0,480,0.0,85.0
1291,63.0,0,80,1.0,58.0
1292,56.0,0,80,1.0,58.0
1293,51.0,0,64,1.0,58.0
1294,68.0,80,64,1.0,58.0
1295,68.0,0,64,1.0,58.0
1296,51.0,80,64,1.0,58.0
1297,63.0,80,80,1.0,58.0
1298,56.0,0,80,1.0,58.0
1299,68.0,0,64,1.0,58.0
1300,51.0,80,64,1.0,58.0
1301,68.0,80,64,1.0,58.0
1302,51.0,0,64,1.0,58.0
1303,48.0,0,480,2.0,58.0
1304,63.0,80,80,1.0,58.0
1305,55.0,0,80,1.0,58.0
1306,70.0,80,64,1.0,58.0
1307,51.0,0,64,1.0,58.0
1308,51.0,0,64,1.0,58.0
1309,70.0,80,64,1.0,58.0
1310,75.0,80,720,0.0,85.0
1311,63.0,0,80,1.0,58.0
1312,55.0,0,80,1.0,58.0
1313,70.0,0,64,1.0,58.0
1314,51.0,80,64,1.0,58.0
1315,70.0,80,64,1.0,58.0
1316,51.0,0,64,1.0,58.0
1317,73.0,80,240,0.0,85.0
1318,43.0,0,480,2.0,58.0
1319,63.0,0,80,1.0,58.0
1320,56.0,80,80,1.0,58.0
1321,51.0,80,64,1.0,58.0
1322,68.0,0,64,1.0,58.0
1323,68.0,0,64,1.0,58.0
1324,51.0,80,64,1.0,58.0
1325,72.0,0,240,0.0,85.0
1326,44.0,0,240,2.0,58.0
1327,63.0,80,80,1.0,58.0
1328,55.0,0,80,1.0,58.0
1329,70.0,0,64,1.0,58.0
1330,51.0,80,64,1.0,58.0
1331,70.0,0,64,1.0,58.0
1332,51.0,80,64,1.0,58.0
1333,43.0,0,240,2.0,58.0
1334,75.0,0,240,0.0,90.0
1335,68.0,0,80,1.0,58.0
1336,53.0,0,80,1.0,58.0
1337,44.0,80,64,1.0,58.0
1338,72.0,0,64,1.0,58.0
1339,44.0,0,64,1.0,58.0
1340,72.0,80,64,1.0,58.0
1341,80.0,80,240,0.0,95.0
1342,41.0,0,240,2.0,58.0
1343,68.0,80,80,1.0,58.0
1344,53.0,0,80,1.0,58.0
1345,74.0,0,64,1.0,58.0
1346,44.0,80,64,1.0,58.0
1347,74.0,0,64,1.0,58.0
1348,44.0,80,64,1.0,58.0
1349,82.0,0,240,0.0,88.0
1350,41.0,0,240,2.0,58.0
1351,39.0,0,44,2.0,72.0
1352,67.0,0,80,1.0,58.0
1353,43.0,80,44,2.0,72.0
1354,70.0,0,64,1.0,58.0
1355,46.0,80,44,2.0,72.0
1356,70.0,0,64,1.0,58.0
1357,51.0,0,44,2.0,72.0
1358,67.0,80,80,1.0,58.0
1359,55.0,0,44,2.0,72.0
1360,70.0,80,64,1.0,58.0
1361,58.0,80,44,2.0,72.0
1362,70.0,0,64,1.0,58.0
1363,67.0,0,80,1.0,58.0
1364,70.0,80,64,1.0,58.0
1365,70.0,80,64,1.0,58.0
1366,75.0,80,720,0.0,80.0
1367,67.0,80,80,1.0,58.0
1368,63.0,80,384,2.0,72.0
1369,70.0,80,64,1.0,58.0
1370,70.0,80,64,1.0,58.0
1371,76.0,0,240,0.0,85.0
1372,37.0,0,44,2.0,72.0
1373,67.0,0,80,1.0,58.0
1374,43.0,80,44,2.0,72.0
1375,70.0,0,64,1.0,58.0
1376,46.0,0,44,2.0,72.0
1377,70.0,80,64,1.0,58.0
1378,49.0,0,44,2.0,72.0
1379,67.0,80,80,1.0,58.0
1380,55.0,0,44,2.0,72.0
1381,70.0,80,64,1.0,58.0
1382,77.0,80,384,0.0,85.0
1383,58.0,80,44,2.0,72.0
1384,70.0,0,64,1.0,58.0
1385,67.0,0,80,1.0,58.0
1386,63.0,80,64,1.0,58.0
1387,63.0,80,64,1.0,58.0
1388,67.0,80,80,1.0,58.0
1389,70.0,0,360,0.0,74.0
1390,63.0,80,64,1.0,58.0
1391,72.0,40,60,0.0,84.0
1392,63.0,40,64,1.0,58.0
1393,73.0,20,60,0.0,86.0
1394,61.0,80,480,2.0,72.0
1395,68.0,0,80,1.0,58.0
1396,63.0,80,64,1.0,58.0
1397,63.0,80,64,1.0,58.0
1398,68.0,80,80,1.0,58.0
1399,63.0,80,64,1.0,58.0
1400,63.0,80,64,1.0,58.0
1401,75.0,60,480,0.0,89.0
1402,60.0,0,480,2.0,72.0
1403,63.0,0,80,1.0,58.0
1404,60.0,80,64,1.0,58.0
1405,60.0,80,64,1.0,58.0
1406,63.0,80,80,1.0,58.0
1407,60.0,80,64,1.0,58.0
1408,60.0,80,64,1.0,58.0
1409,53.0,80,480,2.0,72.0
1410,69.0,0,480,0.0,72.0
1411,65.0,0,80,1.0,58.0
1412,61.0,80,64,1.0,58.0
1413,61.0,80,64,1.0,58.0
1414,65.0,80,80,1.0,58.0
1415,46.0,80,384,2.0,72.0
1416,73.0,0,384,0.0,81.0
1417,61.0,80,64,1.0,58.0
1418,61.0,80,64,1.0,58.0
1419,73.0,0,80,0.0,87.0
1420,46.0,0,80,1.0,58.0
1421,67.0,0,80,1.0,58.0
1422,72.0,80,52,0.0,85.0
1423,61.0,0,64,1.0,58.0
1424,51.0,0,64,1.0,58.0
1425,39.0,80,192,2.0,65.0
1426,70.0,0,52,0.0,84.0
1427,61.0,80,64,1.0,58.0
1428,51.0,0,64,1.0,58.0
1429,61.0,0,80,1.0,58.0
1430,70.0,0,80,0.0,82.0
1431,68.0,0,52,0.0,81.0
1432,51.0,0,64,1.0,58.0
1433,61.0,80,64,1.0,58.0
1434,39.0,80,192,2.0,62.0
1435,67.0,0,52,0.0,79.0
1436,51.0,0,64,1.0,58.0
1437,61.0,80,64,1.0,58.0
1438,44.0,80,52,2.0,58.0
1439,51.0,80,52,2.0,58.0
1440,68.0,0,192,0.0,72.0
1441,60.0,0,192,0.0,72.0
1442,51.0,80,52,2.0,58.0
1443,51.0,80,52,2.0,58.0
1444,51.0,80,52,2.0,58.0
1445,51.0,80,52,2.0,58.0
1446,51.0,80,52,2.0,58.0
1447,51.0,80,52,2.0,58.0
1448,51.0,80,52,2.0,58.0
1449,51.0,80,52,2.0,58.0
1450,51.0,80,52,2.0,58.0
1451,75.0,0,180,0.0,73.0
1452,51.0,80,52,2.0,58.0
1453,76.0,20,60,0.0,77.0
1454,51.0,0,64,2.0,50.0
1455,49.0,0,64,2.0,50.0
1456,39.0,0,64,2.0,50.0
1457,39.0,0,64,2.0,52.0
1458,49.0,0,64,2.0,52.0
1459,51.0,80,64,2.0,52.0
1460,51.0,0,64,2.0,55.0
1461,39.0,80,64,2.0,55.0
1462,49.0,0,64,2.0,55.0
1463,39.0,0,64,2.0,57.0
1464,49.0,0,64,2.0,57.0
1465,51.0,80,64,2.0,57.0
1466,77.0,60,320,0.0,80.0
1467,75.0,80,60,0.0,77.0
1468,39.0,0,64,2.0,60.0
1469,49.0,0,64,2.0,60.0
1470,51.0,0,64,2.0,60.0
1471,73.0,0,60,0.0,80.0
1472,51.0,0,64,2.0,62.0
1473,49.0,80,64,2.0,62.0
1474,39.0,0,64,2.0,62.0
1475,72.0,80,60,0.0,82.0
1476,51.0,0,64,2.0,65.0
1477,49.0,0,64,2.0,65.0
1478,39.0,0,64,2.0,65.0
1479,70.0,0,60,0.0,84.0
1480,49.0,0,64,2.0,63.0
1481,39.0,80,64,2.0,63.0
1482,51.0,0,64,2.0,63.0
1483,68.0,0,60,0.0,85.0
1484,51.0,80,64,2.0,61.0
1485,39.0,0,64,2.0,61.0
1486,49.0,0,64,2.0,61.0
1487,67.0,80,60,0.0,82.0
1488,39.0,0,64,2.0,58.0
1489,49.0,0,64,2.0,58.0
1490,51.0,0,64,2.0,58.0
1491,73.0,60,60,0.0,81.0
1492,51.0,0,64,2.0,55.0
1493,49.0,20,64,2.0,55.0
1494,39.0,0,64,2.0,55.0
1495,70.0,40,60,0.0,79.0
1496,51.0,40,64,2.0,53.0
1497,39.0,0,64,2.0,53.0
1498,49.0,0,64,2.0,53.0
1499,67.0,20,60,0.0,77.0
1500,51.0,0,64,2.0,50.0
1501,44.0,60,64,2.0,50.0
1502,48.0,0,64,2.0,50.0
1503,68.0,0,120,0.0,76.0
1504,70.0,40,14,0.0,69.0
1505,51.0,80,64,2.0,54.0
1506,68.0,14,14,0.0,68.0
1507,67.0,14,14,0.0,68.0
1508,68.0,2,14,0.0,67.0
1509,51.0,12,64,2.0,54.0
1510,72.0,14,60,0.0,66.0
1511,51.0,4,64,2.0,54.0
1512,51.0,80,64,2.0,54.0
1513,63.0,60,192,0.0,63.0
1514,51.0,80,64,2.0,54.0
1515,51.0,80,64,2.0,54.0
1516,51.0,80,64,2.0,54.0
1517,51.0,80,64,2.0,54.0
1518,51.0,4,64,2.0,54.0
1519,51.0,80,64,2.0,54.0
1520,75.0,76,180,0.0,66.0
1521,87.0,0,180,0.0,66.0
1522,51.0,80,64,2.0,54.0
1523,88.0,0,60,0.0,74.0
1524,76.0,16,60,0.0,74.0
1525,49.0,0,64,2.0,48.0
1526,39.0,0,64,2.0,48.0
1527,51.0,0,64,2.0,48.0
1528,51.0,0,64,2.0,48.0
1529,49.0,0,64,2.0,48.0
1530,39.0,80,64,2.0,48.0
1531,51.0,80,64,2.0,50.0
1532,39.0,0,64,2.0,50.0
1533,49.0,0,64,2.0,50.0
1534,39.0,0,64,2.0,52.0
1535,51.0,0,64,2.0,52.0
1536,49.0,80,64,2.0,52.0
1537,89.0,0,320,0.0,73.0
1538,77.0,64,320,0.0,73.0
1539,75.0,0,64,0.0,74.0
1540,87.0,0,64,0.0,74.0
1541,49.0,80,64,2.0,53.0
1542,51.0,0,64,2.0,53.0
1543,39.0,0,64,2.0,53.0
1544,85.0,0,64,0.0,76.0
1545,73.0,0,64,0.0,76.0
1546,39.0,0,64,2.0,55.0
1547,49.0,80,64,2.0,55.0
1548,51.0,0,64,2.0,55.0
1549,39.0,0,64,2.0,56.0
1550,49.0,0,64,2.0,56.0
1551,72.0,80,64,0.0,76.0
1552,84.0,0,64,0.0,76.0
1553,51.0,0,64,2.0,56.0
1554,82.0,0,64,0.0,77.0
1555,70.0,80,64,0.0,77.0
1556,51.0,0,64,2.0,54.0
1557,39.0,0,64,2.0,54.0
1558,49.0,0,64,2.0,54.0
1559,51.0,0,64,2.0,53.0
1560,39.0,0,64,2.0,53.0
1561,49.0,0,64,2.0,53.0
1562,68.0,80,64,0.0,76.0
1563,80.0,0,64,0.0,76.0
1564,39.0,80,64,2.0,51.0
1565,51.0,0,64,2.0,51.0
1566,49.0,0,64,2.0,51.0
1567,79.0,0,80,0.0,73.0
1568,67.0,0,80,0.0,73.0
1569,39.0,80,64,2.0,49.0
1570,49.0,0,64,2.0,49.0
1571,51.0,0,64,2.0,49.0
1572,73.0,0,80,0.0,68.0
1573,85.0,0,80,0.0,68.0
1574,51.0,0,64,2.0,48.0
1575,49.0,0,64,2.0,48.0
1576,39.0,0,64,2.0,48.0
1577,67.0,0,80,0.0,64.0
1578,79.0,80,80,0.0,64.0
1579,80.0,0,192,0.0,60.0
1580,68.0,0,192,0.0,60.0
1581,51.0,80,192,2.0,46.0
1582,48.0,0,192,2.0,46.0
1583,44.0,0,192,2.0,46.0
1584,75.0,450,30,0.0,76.0
1585,73.0,0,80,0.0,96.0
1586,72.0,80,80,0.0,76.0
1587,73.0,80,80,0.0,73.0
1588,77.0,80,80,0.0,70.0
1589,75.0,80,48,0.0,68.0
1590,73.0,80,48,0.0,65.0
1591,63.0,0,480,1.0,72.0
1592,67.0,30,480,1.0,72.0
1593,56.0,0,192,1.0,58.0
1594,68.0,0,192,1.0,58.0
1595,72.0,80,192,0.0,63.0
1596,72.0,450,30,0.0,66.0
1597,70.0,0,80,0.0,88.0
1598,69.0,80,80,0.0,66.0
1599,70.0,80,80,0.0,64.0
1600,73.0,80,80,0.0,62.0
1601,72.0,80,48,0.0,61.0
1602,70.0,80,48,0.0,59.0
1603,61.0,0,480,1.0,65.0
1604,51.0,30,480,1.0,65.0
1605,60.0,0,192,1.0,51.0
1606,68.0,80,192,0.0,58.0
1607,56.0,0,192,1.0,51.0
1608,60.0,450,30,0.0,58.0
1609,58.0,0,80,0.0,75.0
1610,57.0,80,80,0.0,58.0
1611,58.0,80,80,0.0,54.0
1612,61.0,80,80,0.0,52.0
1613,60.0,80,48,0.0,50.0
1614,58.0,80,48,0.0,49.0
1615,39.0,30,480,2.0,56.0
1616,49.0,0,480,2.0,56.0
1617,56.0,0,192,0.0,50.0
1618,48.0,0,192,2.0,50.0
1619,44.0,80,192,2.0,50.0
1620,48.0,0,192,2.0,50.0
1621,56.0,0,192,0.0,49.0
1622,51.0,480,192,2.0,50.0
1623,32.0,0,192,2.0,50.0
1624,56.0,0,1472,0.0,49.0
1625,48.0,480,1528,2.0,50.0
1626,44.0,0,1536,2.0,50.0
1627,32.0,0,1536,2.0,50.0
1628,44.0,2880,768,2.0,1.0
