,note,step,duration,channel,velocity
0,52.0,0,240,3.0,36.0
1,59.0,0,0,2.0,36.0
2,56.0,240,0,2.0,36.0
3,56.0,0,0,2.0,36.0
4,52.0,0,0,3.0,36.0
5,71.0,0,960,0.0,38.0
6,59.0,240,240,2.0,36.0
7,52.0,240,240,3.0,37.0
8,56.0,0,240,2.0,37.0
9,59.0,0,0,2.0,37.0
10,56.0,0,240,2.0,37.0
11,59.0,240,0,2.0,37.0
12,52.0,240,240,3.0,37.0
13,64.0,0,960,1.0,40.0
14,76.0,240,960,0.0,40.0
15,56.0,0,240,2.0,37.0
16,52.0,0,240,3.0,37.0
17,61.0,0,240,2.0,38.0
18,57.0,240,240,2.0,38.0
19,52.0,240,0,3.0,38.0
20,57.0,240,0,2.0,38.0
21,61.0,0,240,2.0,38.0
22,52.0,0,0,3.0,38.0
23,61.0,0,240,2.0,38.0
24,73.0,240,960,0.0,41.0
25,61.0,240,240,2.0,39.0
26,57.0,0,240,2.0,39.0
27,52.0,0,240,3.0,39.0
28,57.0,240,240,2.0,39.0
29,52.0,0,240,3.0,39.0
30,61.0,240,0,2.0,39.0
31,66.0,0,960,1.0,43.0
32,52.0,0,240,3.0,39.0
33,78.0,240,960,0.0,43.0
34,57.0,0,240,2.0,39.0
35,54.0,0,0,2.0,40.0
36,57.0,0,0,2.0,40.0
37,52.0,0,0,3.0,40.0
38,63.0,240,0,2.0,40.0
39,52.0,0,0,3.0,40.0
40,63.0,240,0,2.0,40.0
41,75.0,240,960,0.0,45.0
42,54.0,0,240,2.0,40.0
43,57.0,0,240,2.0,40.0
44,57.0,240,240,2.0,40.0
45,54.0,0,0,2.0,41.0
46,63.0,0,0,2.0,41.0
47,52.0,0,240,3.0,40.0
48,54.0,240,0,2.0,41.0
49,52.0,0,0,3.0,41.0
50,57.0,0,0,2.0,41.0
51,63.0,0,240,2.0,41.0
52,71.0,0,960,1.0,47.0
53,83.0,240,0,0.0,51.0
54,85.0,720,120,0.0,43.0
55,87.0,120,120,0.0,41.0
56,88.0,120,240,0.0,39.0
57,59.0,0,1440,2.0,41.0
58,56.0,0,1440,2.0,41.0
59,64.0,0,1440,2.0,41.0
60,52.0,0,1440,3.0,41.0
61,80.0,960,120,0.0,40.0
62,76.0,120,120,0.0,40.0
63,81.0,120,120,0.0,40.0
64,78.0,120,120,0.0,41.0
65,83.0,120,120,0.0,41.0
66,80.0,120,120,0.0,41.0
67,85.0,120,120,0.0,42.0
68,81.0,120,120,0.0,42.0
69,68.0,0,120,3.0,41.0
70,64.0,120,120,3.0,42.0
71,83.0,120,360,0.0,42.0
72,69.0,120,120,3.0,42.0
73,66.0,120,120,3.0,42.0
74,71.0,120,120,3.0,42.0
75,68.0,120,120,3.0,43.0
76,73.0,120,120,3.0,43.0
77,69.0,120,120,3.0,43.0
78,56.0,0,120,0.0,44.0
79,52.0,120,120,0.0,44.0
80,71.0,120,360,3.0,43.0
81,57.0,120,120,0.0,45.0
82,54.0,120,120,0.0,45.0
83,59.0,120,120,0.0,45.0
84,56.0,120,120,0.0,46.0
85,61.0,120,120,0.0,46.0
86,57.0,120,120,0.0,46.0
87,44.0,0,120,3.0,45.0
88,40.0,120,120,3.0,46.0
89,45.0,120,120,3.0,46.0
90,59.0,120,360,0.0,46.0
91,42.0,120,120,3.0,46.0
92,47.0,120,120,3.0,46.0
93,44.0,120,120,3.0,47.0
94,49.0,120,120,3.0,47.0
95,46.0,120,120,3.0,47.0
96,68.0,240,240,0.0,49.0
97,64.0,0,240,0.0,50.0
98,56.0,240,240,3.0,49.0
99,51.0,0,240,3.0,49.0
100,69.0,240,240,0.0,51.0
101,54.0,240,240,3.0,50.0
102,66.0,0,240,0.0,51.0
103,63.0,0,240,0.0,52.0
104,59.0,240,1680,0.0,49.0
105,71.0,240,240,0.0,52.0
106,57.0,240,480,3.0,50.0
107,47.0,120,1920,3.0,47.0
108,47.0,240,40,3.0,51.0
109,52.0,40,40,3.0,51.0
110,56.0,40,40,3.0,52.0
111,73.0,120,60,0.0,46.0
112,71.0,60,60,0.0,48.0
113,70.0,60,60,0.0,50.0
114,80.0,60,240,0.0,54.0
115,68.0,240,240,3.0,52.0
116,76.0,0,240,0.0,55.0
117,81.0,240,240,0.0,56.0
118,63.0,0,240,3.0,54.0
119,78.0,240,240,0.0,58.0
120,66.0,0,240,3.0,55.0
121,75.0,240,240,0.0,60.0
122,59.0,40,1800,3.0,52.0
123,69.0,0,480,3.0,56.0
124,83.0,0,0,0.0,68.0
125,71.0,60,1507,0.0,52.0
126,71.0,0,65,1.0,68.0
127,68.0,240,480,3.0,58.0
128,64.0,0,480,3.0,58.0
129,81.0,240,120,0.0,63.0
130,80.0,120,120,0.0,62.0
131,56.0,480,480,3.0,54.0
132,78.0,0,240,0.0,61.0
133,57.0,0,480,3.0,53.0
134,76.0,240,240,0.0,60.0
135,73.0,120,720,1.0,61.0
136,75.0,0,240,0.0,59.0
137,58.0,240,480,3.0,52.0
138,73.0,240,240,0.0,59.0
139,59.0,240,960,3.0,51.0
140,67.0,480,480,1.0,55.0
141,58.0,480,480,2.0,49.0
142,64.0,0,1440,1.0,57.0
143,57.0,480,480,2.0,48.0
144,63.0,0,480,1.0,50.0
145,66.0,0,960,1.0,53.0
146,71.0,480,0,0.0,55.0
147,47.0,0,960,3.0,49.0
148,52.0,0,480,3.0,51.0
149,56.0,0,480,2.0,51.0
150,69.0,240,120,0.0,52.0
151,44.0,480,480,3.0,50.0
152,59.0,0,960,1.0,55.0
153,64.0,0,960,1.0,55.0
154,68.0,120,120,0.0,52.0
155,66.0,120,240,0.0,52.0
156,64.0,240,240,0.0,51.0
157,45.0,0,480,3.0,49.0
158,61.0,0,720,1.0,52.0
159,63.0,240,240,0.0,50.0
160,46.0,0,480,3.0,47.0
161,61.0,240,240,0.0,50.0
162,56.0,0,480,1.0,48.0
163,47.0,0,960,3.0,46.0
164,55.0,480,480,1.0,46.0
165,52.0,240,1440,1.0,48.0
166,46.0,0,480,2.0,43.0
167,59.0,0,1920,0.0,48.0
168,51.0,0,480,1.0,43.0
169,35.0,480,960,3.0,43.0
170,45.0,480,480,2.0,42.0
171,54.0,0,960,1.0,45.0
172,40.0,240,240,3.0,38.0
173,44.0,240,0,2.0,39.0
174,44.0,240,0,2.0,39.0
175,40.0,0,240,3.0,39.0
176,40.0,0,240,3.0,39.0
177,59.0,480,960,0.0,41.0
178,44.0,240,0,2.0,40.0
179,40.0,0,0,3.0,40.0
180,44.0,240,0,2.0,40.0
181,64.0,240,960,0.0,41.0
182,52.0,0,960,1.0,41.0
183,40.0,0,240,3.0,40.0
184,45.0,240,240,2.0,41.0
185,40.0,0,240,3.0,41.0
186,40.0,240,0,3.0,42.0
187,45.0,240,240,2.0,42.0
188,45.0,0,240,2.0,42.0
189,61.0,240,960,0.0,43.0
190,40.0,240,0,3.0,43.0
191,46.0,0,240,2.0,43.0
192,46.0,0,240,2.0,43.0
193,66.0,0,960,0.0,45.0
194,54.0,240,960,1.0,45.0
195,46.0,0,240,2.0,42.0
196,40.0,240,240,3.0,42.0
197,40.0,0,240,3.0,46.0
198,47.0,240,240,2.0,46.0
199,40.0,240,240,3.0,48.0
200,56.0,0,720,1.0,47.0
201,47.0,0,240,2.0,48.0
202,68.0,240,720,0.0,47.0
203,47.0,0,240,2.0,50.0
204,40.0,240,240,3.0,50.0
205,40.0,240,0,3.0,56.0
206,48.0,240,240,2.0,54.0
207,69.0,0,720,0.0,57.0
208,40.0,240,0,3.0,59.0
209,57.0,240,720,1.0,57.0
210,48.0,0,0,2.0,59.0
211,49.0,0,0,2.0,65.0
212,40.0,240,0,3.0,65.0
213,70.0,240,720,0.0,67.0
214,40.0,240,0,3.0,67.0
215,49.0,0,0,2.0,67.0
216,58.0,0,720,1.0,67.0
217,41.0,0,240,3.0,73.0
218,41.0,240,240,3.0,71.0
219,41.0,240,240,3.0,69.0
220,71.0,0,960,0.0,79.0
221,59.0,0,960,1.0,79.0
222,41.0,240,240,3.0,67.0
223,50.0,240,960,2.0,73.0
224,42.0,0,240,3.0,65.0
225,70.0,240,480,0.0,70.0
226,42.0,240,0,3.0,60.0
227,42.0,240,240,3.0,58.0
228,66.0,0,480,0.0,66.0
229,49.0,0,960,2.0,65.0
230,58.0,0,960,1.0,70.0
231,42.0,240,0,3.0,52.0
232,42.0,240,0,3.0,51.0
233,65.0,0,720,1.0,53.0
234,66.0,240,120,1.0,50.0
235,47.0,0,960,2.0,53.0
236,56.0,0,960,2.0,53.0
237,42.0,0,0,3.0,49.0
238,74.0,0,960,0.0,53.0
239,68.0,120,120,1.0,49.0
240,42.0,240,0,3.0,48.0
241,42.0,240,0,3.0,47.0
242,73.0,0,480,0.0,49.0
243,42.0,240,0,3.0,46.0
244,70.0,0,480,0.0,47.0
245,61.0,0,960,1.0,49.0
246,46.0,0,960,2.0,49.0
247,54.0,120,960,2.0,49.0
248,42.0,0,240,3.0,69.0
249,42.0,240,240,3.0,68.0
250,42.0,240,240,3.0,67.0
251,56.0,0,960,2.0,71.0
252,50.0,0,960,2.0,71.0
253,42.0,240,240,3.0,66.0
254,65.0,0,960,1.0,79.0
255,59.0,240,960,1.0,79.0
256,71.0,0,960,0.0,79.0
257,42.0,0,240,3.0,65.0
258,70.0,0,480,0.0,73.0
259,42.0,0,0,3.0,63.0
260,42.0,240,0,3.0,62.0
261,66.0,240,480,0.0,70.0
262,58.0,0,960,1.0,73.0
263,42.0,240,0,3.0,51.0
264,49.0,0,960,2.0,66.0
265,54.0,240,960,2.0,66.0
266,42.0,240,0,3.0,50.0
267,65.0,0,720,1.0,53.0
268,42.0,240,0,3.0,49.0
269,66.0,0,120,1.0,49.0
270,56.0,0,960,2.0,51.0
271,47.0,0,960,2.0,51.0
272,68.0,120,120,1.0,49.0
273,74.0,0,960,0.0,53.0
274,42.0,240,0,3.0,47.0
275,73.0,0,480,0.0,48.0
276,42.0,240,240,3.0,46.0
277,61.0,0,960,1.0,48.0
278,42.0,240,240,3.0,46.0
279,54.0,0,960,2.0,48.0
280,46.0,120,960,2.0,48.0
281,70.0,0,480,0.0,46.0
282,42.0,240,0,3.0,77.0
283,42.0,240,0,3.0,79.0
284,42.0,240,0,3.0,81.0
285,71.0,240,720,1.0,78.0
286,73.0,0,120,1.0,83.0
287,77.0,0,960,0.0,78.0
288,56.0,0,960,2.0,78.0
289,47.0,0,960,2.0,78.0
290,42.0,0,0,3.0,86.0
291,50.0,0,960,2.0,78.0
292,74.0,120,120,1.0,84.0
293,68.0,0,960,1.0,78.0
294,70.0,0,288,1.0,86.0
295,78.0,120,288,0.0,86.0
296,54.0,0,288,2.0,86.0
297,49.0,0,288,2.0,86.0
298,46.0,0,288,2.0,86.0
299,73.0,0,288,1.0,86.0
300,61.0,0,288,1.0,86.0
301,58.0,0,288,1.0,86.0
302,54.0,0,288,2.0,85.0
303,66.0,0,288,0.0,86.0
304,42.0,960,288,3.0,85.0
305,42.0,0,288,2.0,84.0
306,30.0,0,288,3.0,83.0
307,46.0,960,288,1.0,87.0
308,49.0,0,288,1.0,87.0
309,54.0,0,288,0.0,87.0
310,78.0,960,240,0.0,47.0
311,76.0,240,240,0.0,46.0
312,75.0,240,240,0.0,45.0
313,73.0,240,240,0.0,43.0
314,71.0,240,960,0.0,40.0
315,72.0,960,360,0.0,40.0
316,73.0,480,360,0.0,43.0
317,74.0,480,360,0.0,45.0
318,75.0,480,360,0.0,48.0
319,76.0,480,360,0.0,50.0
320,78.0,480,360,0.0,53.0
321,79.0,480,480,0.0,55.0
322,80.0,480,960,0.0,63.0
323,60.0,480,960,3.0,47.0
324,63.0,0,960,2.0,47.0
325,78.0,480,960,0.0,55.0
326,76.0,480,442,0.0,48.0
327,68.0,0,1920,2.0,47.0
328,64.0,0,960,2.0,46.0
329,61.0,480,960,3.0,50.0
330,75.0,480,40,0.0,41.0
331,76.0,40,40,0.0,40.0
332,78.0,40,40,0.0,40.0
333,76.0,40,135,0.0,45.0
334,75.0,120,240,0.0,45.0
335,73.0,240,240,0.0,44.0
336,71.0,240,240,0.0,43.0
337,70.0,240,960,0.0,40.0
338,71.0,960,360,0.0,42.0
339,72.0,480,360,0.0,44.0
340,73.0,480,360,0.0,47.0
341,74.0,480,360,0.0,49.0
342,75.0,480,360,0.0,51.0
343,76.0,480,360,0.0,54.0
344,77.0,480,480,0.0,56.0
345,78.0,480,960,0.0,63.0
346,61.0,0,960,2.0,42.0
347,58.0,0,960,3.0,42.0
348,76.0,480,960,0.0,55.0
349,63.0,480,960,2.0,45.0
350,59.0,0,960,3.0,48.0
351,66.0,480,0,2.0,48.0
352,75.0,480,480,0.0,48.0
353,64.0,240,240,2.0,46.0
354,63.0,240,240,2.0,45.0
355,61.0,240,240,2.0,43.0
356,59.0,240,960,2.0,42.0
357,54.0,0,240,0.0,49.0
358,60.0,960,360,2.0,44.0
359,52.0,240,240,0.0,47.0
360,51.0,0,240,0.0,46.0
361,61.0,240,360,2.0,47.0
362,49.0,240,240,0.0,45.0
363,62.0,240,360,2.0,49.0
364,63.0,480,360,2.0,52.0
365,48.0,0,960,0.0,43.0
366,78.0,480,240,0.0,51.0
367,64.0,0,360,2.0,54.0
368,76.0,240,240,0.0,49.0
369,75.0,240,240,0.0,48.0
370,66.0,0,360,2.0,57.0
371,73.0,240,240,0.0,46.0
372,67.0,240,480,2.0,59.0
373,72.0,0,960,0.0,45.0
374,68.0,480,960,2.0,65.0
375,56.0,0,1920,3.0,55.0
376,66.0,480,960,2.0,56.0
377,81.0,0,1440,0.0,54.0
378,75.0,0,1440,1.0,54.0
379,72.0,480,1440,1.0,54.0
380,61.0,480,960,3.0,54.0
381,73.0,0,480,1.0,47.0
382,80.0,0,480,0.0,47.0
383,76.0,0,480,1.0,47.0
384,64.0,480,0,2.0,45.0
385,63.0,240,240,2.0,44.0
386,61.0,240,240,2.0,43.0
387,59.0,240,240,2.0,42.0
388,58.0,240,960,2.0,40.0
389,52.0,0,240,0.0,47.0
390,59.0,960,360,2.0,44.0
391,51.0,240,240,0.0,46.0
392,49.0,240,240,0.0,44.0
393,60.0,0,360,2.0,46.0
394,47.0,240,240,0.0,43.0
395,61.0,0,360,2.0,48.0
396,63.0,480,360,2.0,50.0
397,46.0,240,960,0.0,42.0
398,76.0,480,240,0.0,49.0
399,64.0,0,360,2.0,51.0
400,75.0,240,240,0.0,48.0
401,73.0,240,240,0.0,46.0
402,71.0,240,240,0.0,45.0
403,65.0,0,960,2.0,53.0
404,70.0,240,960,0.0,43.0
405,66.0,480,960,2.0,57.0
406,54.0,0,1920,3.0,51.0
407,64.0,480,960,2.0,50.0
408,70.0,0,1440,1.0,52.0
409,79.0,0,1440,0.0,52.0
410,73.0,480,1440,1.0,52.0
411,59.0,480,960,3.0,46.0
412,63.0,480,480,2.0,44.0
413,78.0,0,480,0.0,47.0
414,71.0,0,480,1.0,47.0
415,75.0,0,480,1.0,47.0
416,59.0,0,240,2.0,38.0
417,54.0,240,240,3.0,39.0
418,51.0,480,480,3.0,38.0
419,71.0,0,240,1.0,40.0
420,78.0,240,240,0.0,40.0
421,59.0,0,240,2.0,40.0
422,54.0,240,240,3.0,40.0
423,51.0,0,480,3.0,40.0
424,78.0,240,240,0.0,42.0
425,80.0,0,80,0.0,43.0
426,78.0,80,80,0.0,43.0
427,54.0,240,240,3.0,42.0
428,52.0,0,480,3.0,41.0
429,77.0,80,80,0.0,44.0
430,78.0,0,240,0.0,44.0
431,82.0,0,240,0.0,45.0
432,70.0,0,960,1.0,42.0
433,54.0,240,240,3.0,43.0
434,52.0,80,480,3.0,43.0
435,61.0,0,960,2.0,41.0
436,71.0,0,240,1.0,46.0
437,59.0,0,240,2.0,44.0
438,83.0,240,240,0.0,46.0
439,51.0,0,480,3.0,44.0
440,54.0,240,240,3.0,45.0
441,71.0,240,240,1.0,48.0
442,59.0,0,240,2.0,46.0
443,78.0,0,240,0.0,48.0
444,54.0,240,240,3.0,46.0
445,51.0,0,480,3.0,46.0
446,78.0,0,240,0.0,49.0
447,80.0,0,80,0.0,50.0
448,78.0,80,80,0.0,51.0
449,77.0,80,80,0.0,51.0
450,54.0,240,240,3.0,48.0
451,52.0,0,0,3.0,49.0
452,78.0,80,240,0.0,51.0
453,54.0,240,240,3.0,49.0
454,82.0,0,240,0.0,52.0
455,61.0,240,960,2.0,47.0
456,70.0,0,960,1.0,49.0
457,83.0,0,240,0.0,53.0
458,71.0,0,240,1.0,53.0
459,59.0,0,480,2.0,50.0
460,54.0,240,240,3.0,51.0
461,51.0,240,480,3.0,50.0
462,54.0,240,240,3.0,52.0
463,51.0,0,480,3.0,52.0
464,72.0,0,480,1.0,55.0
465,84.0,0,480,0.0,55.0
466,57.0,240,480,2.0,52.0
467,56.0,0,240,2.0,53.0
468,85.0,0,480,0.0,57.0
469,73.0,0,480,1.0,57.0
470,61.0,240,240,2.0,54.0
471,52.0,240,480,3.0,53.0
472,56.0,0,240,2.0,55.0
473,75.0,0,480,1.0,59.0
474,87.0,240,480,0.0,59.0
475,52.0,0,480,3.0,55.0
476,61.0,240,240,2.0,55.0
477,58.0,0,240,2.0,56.0
478,61.0,240,240,2.0,57.0
479,76.0,240,480,1.0,61.0
480,54.0,0,480,3.0,56.0
481,88.0,0,480,0.0,61.0
482,58.0,0,240,2.0,58.0
483,54.0,0,480,3.0,58.0
484,90.0,240,480,0.0,62.0
485,61.0,240,240,2.0,58.0
486,78.0,0,480,1.0,62.0
487,59.0,0,240,2.0,61.0
488,54.0,240,240,2.0,60.0
489,59.0,240,240,2.0,58.0
490,76.0,240,960,1.0,65.0
491,54.0,240,240,2.0,57.0
492,88.0,0,960,0.0,65.0
493,75.0,240,240,1.0,56.0
494,59.0,0,240,2.0,56.0
495,87.0,0,240,0.0,56.0
496,54.0,240,240,3.0,54.0
497,51.0,0,0,3.0,53.0
498,47.0,0,1440,3.0,61.0
499,71.0,0,240,1.0,54.0
500,78.0,240,240,0.0,54.0
501,59.0,0,240,2.0,53.0
502,54.0,240,240,3.0,50.0
503,78.0,0,240,0.0,52.0
504,80.0,0,80,0.0,53.0
505,78.0,80,80,0.0,53.0
506,54.0,240,240,3.0,51.0
507,77.0,80,80,0.0,53.0
508,52.0,0,480,3.0,50.0
509,78.0,80,240,0.0,54.0
510,82.0,240,240,0.0,54.0
511,52.0,0,480,3.0,52.0
512,70.0,240,960,1.0,52.0
513,61.0,0,960,2.0,50.0
514,54.0,0,240,3.0,53.0
515,59.0,0,240,2.0,54.0
516,71.0,0,240,1.0,55.0
517,83.0,0,240,0.0,55.0
518,54.0,240,240,3.0,55.0
519,51.0,240,0,3.0,55.0
520,78.0,0,240,0.0,57.0
521,59.0,0,240,2.0,55.0
522,71.0,0,240,1.0,57.0
523,54.0,240,240,3.0,56.0
524,78.0,0,240,0.0,58.0
525,80.0,0,80,0.0,59.0
526,78.0,80,80,0.0,59.0
527,77.0,80,80,0.0,60.0
528,52.0,0,480,3.0,57.0
529,54.0,240,240,3.0,58.0
530,78.0,80,240,0.0,60.0
531,52.0,0,480,3.0,59.0
532,54.0,240,240,3.0,60.0
533,82.0,0,240,0.0,61.0
534,70.0,0,960,1.0,58.0
535,61.0,240,960,2.0,57.0
536,83.0,240,240,0.0,61.0
537,71.0,0,240,1.0,61.0
538,51.0,240,0,3.0,62.0
539,54.0,240,240,3.0,61.0
540,59.0,0,480,2.0,61.0
541,72.0,0,480,1.0,63.0
542,57.0,0,480,2.0,62.0
543,84.0,0,480,0.0,63.0
544,54.0,240,240,3.0,63.0
545,56.0,0,240,2.0,64.0
546,61.0,240,240,2.0,65.0
547,73.0,240,480,1.0,65.0
548,52.0,0,0,3.0,66.0
549,85.0,0,480,0.0,65.0
550,56.0,0,240,2.0,66.0
551,75.0,0,480,1.0,66.0
552,87.0,240,480,0.0,66.0
553,61.0,240,240,2.0,66.0
554,61.0,0,240,2.0,67.0
555,64.0,240,240,2.0,68.0
556,54.0,240,480,3.0,67.0
557,88.0,0,480,0.0,68.0
558,76.0,0,480,1.0,68.0
559,61.0,0,240,2.0,69.0
560,64.0,240,240,2.0,70.0
561,54.0,0,480,3.0,69.0
562,82.0,240,480,0.0,69.0
563,70.0,0,480,1.0,69.0
564,71.0,0,240,1.0,71.0
565,59.0,0,240,2.0,71.0
566,47.0,240,240,3.0,71.0
567,83.0,0,240,0.0,71.0
568,63.0,0,240,1.0,58.0
569,66.0,480,240,0.0,58.0
570,59.0,0,240,1.0,58.0
571,42.0,240,80,3.0,67.0
572,44.0,80,80,3.0,69.0
573,58.0,480,480,1.0,68.0
574,46.0,80,80,3.0,70.0
575,67.0,0,1200,0.0,76.0
576,47.0,80,240,3.0,77.0
577,64.0,480,1207,1.0,76.0
578,63.0,0,240,1.0,63.0
579,66.0,480,240,0.0,63.0
580,59.0,0,1440,1.0,63.0
581,42.0,240,80,3.0,69.0
582,44.0,80,80,3.0,71.0
583,58.0,480,480,1.0,70.0
584,46.0,80,80,3.0,73.0
585,47.0,0,240,3.0,80.0
586,68.0,480,1200,0.0,84.0
587,64.0,0,1207,1.0,84.0
588,63.0,480,240,1.0,68.0
589,66.0,0,240,0.0,68.0
590,59.0,80,1440,1.0,68.0
591,42.0,240,80,3.0,79.0
592,44.0,80,80,3.0,80.0
593,58.0,480,480,1.0,75.0
594,46.0,80,80,3.0,82.0
595,67.0,480,1200,0.0,82.0
596,47.0,80,240,3.0,86.0
597,64.0,0,1207,1.0,82.0
598,66.0,0,240,0.0,72.0
599,63.0,480,240,1.0,72.0
600,59.0,0,1440,1.0,72.0
601,42.0,240,80,3.0,88.0
602,44.0,80,80,3.0,89.0
603,46.0,80,80,3.0,91.0
604,58.0,480,480,1.0,79.0
605,47.0,0,240,3.0,93.0
606,68.0,480,1440,0.0,89.0
607,64.0,0,1440,1.0,89.0
608,54.0,480,240,2.0,60.0
609,47.0,0,240,3.0,60.0
610,66.0,0,240,0.0,60.0
611,63.0,0,240,1.0,60.0
612,64.0,0,240,1.0,63.0
613,70.0,0,240,0.0,63.0
614,54.0,0,240,2.0,64.0
615,49.0,480,240,3.0,64.0
616,59.0,80,1440,1.0,60.0
617,51.0,0,240,3.0,67.0
618,66.0,480,240,1.0,66.0
619,54.0,0,240,2.0,67.0
620,71.0,0,240,0.0,66.0
621,75.0,0,720,0.0,76.0
622,73.0,720,240,0.0,65.0
623,52.0,0,960,3.0,76.0
624,61.0,0,960,2.0,76.0
625,64.0,0,960,1.0,76.0
626,68.0,0,960,1.0,76.0
627,56.0,480,960,2.0,76.0
628,54.0,0,240,3.0,66.0
629,63.0,0,240,2.0,66.0
630,71.0,240,240,0.0,63.0
631,66.0,0,240,1.0,63.0
632,66.0,0,240,1.0,59.0
633,54.0,0,240,3.0,63.0
634,70.0,480,240,0.0,59.0
635,61.0,0,240,2.0,63.0
636,66.0,480,240,0.0,61.0
637,51.0,0,240,3.0,66.0
638,66.0,0,240,1.0,66.0
639,71.0,0,240,0.0,65.0
640,59.0,480,240,2.0,63.0
641,58.0,0,240,2.0,67.0
642,73.0,0,240,0.0,69.0
643,66.0,0,240,1.0,72.0
644,49.0,480,240,3.0,72.0
645,47.0,0,240,3.0,77.0
646,66.0,480,240,1.0,77.0
647,75.0,0,240,0.0,72.0
648,59.0,0,240,2.0,72.0
649,63.0,0,720,2.0,83.0
650,78.0,0,720,0.0,85.0
651,76.0,0,240,0.0,76.0
652,68.0,0,960,1.0,85.0
653,61.0,720,240,2.0,75.0
654,52.0,480,960,3.0,85.0
655,75.0,240,240,0.0,75.0
656,59.0,0,240,2.0,73.0
657,66.0,0,240,1.0,75.0
658,54.0,0,240,3.0,79.0
659,58.0,480,240,2.0,69.0
660,54.0,0,240,3.0,75.0
661,66.0,0,240,1.0,73.0
662,73.0,0,240,0.0,73.0
663,78.0,480,240,0.0,84.0
664,66.0,0,240,1.0,84.0
665,78.0,480,240,0.0,89.0
666,51.0,0,240,3.0,80.0
667,54.0,0,240,2.0,80.0
668,66.0,0,240,1.0,89.0
669,71.0,0,240,1.0,89.0
670,59.0,0,240,2.0,80.0
671,52.0,0,240,2.0,84.0
672,73.0,0,240,1.0,93.0
673,70.0,0,240,1.0,93.0
674,66.0,480,240,1.0,93.0
675,49.0,0,240,3.0,84.0
676,78.0,0,240,0.0,93.0
677,58.0,0,240,2.0,84.0
678,78.0,0,240,0.0,98.0
679,71.0,0,240,1.0,98.0
680,51.0,0,240,2.0,89.0
681,75.0,480,240,1.0,98.0
682,66.0,0,240,1.0,98.0
683,47.0,0,240,3.0,89.0
684,59.0,0,240,2.0,89.0
685,40.0,0,480,3.0,95.0
686,52.0,0,480,2.0,93.0
687,49.0,0,480,2.0,93.0
688,44.0,0,480,2.0,93.0
689,67.0,480,480,1.0,103.0
690,79.0,0,480,0.0,103.0
691,68.0,480,240,1.0,89.0
692,80.0,0,240,0.0,89.0
693,42.0,1440,240,3.0,68.0
694,52.0,0,240,1.0,47.0
695,58.0,480,240,0.0,47.0
696,47.0,0,0,1.0,29.0
697,51.0,240,240,1.0,28.0
698,59.0,240,0,0.0,29.0
699,51.0,0,0,1.0,29.0
700,47.0,0,0,1.0,29.0
701,59.0,240,240,0.0,29.0
702,35.0,1440,960,3.0,40.0
703,56.0,240,240,1.0,31.0
704,47.0,240,0,1.0,32.0
705,59.0,0,0,0.0,32.0
706,56.0,0,240,1.0,32.0
707,59.0,0,240,0.0,32.0
708,47.0,0,240,1.0,32.0
709,56.0,240,240,1.0,32.0
710,40.0,240,960,3.0,43.0
711,54.0,0,240,1.0,34.0
712,59.0,240,240,0.0,34.0
713,47.0,240,0,1.0,35.0
714,59.0,0,240,0.0,35.0
715,54.0,0,0,1.0,35.0
716,47.0,0,0,1.0,35.0
717,39.0,240,960,3.0,46.0
718,59.0,240,240,0.0,35.0
719,59.0,0,0,0.0,39.0
720,52.0,240,0,1.0,39.0
721,47.0,0,0,1.0,39.0
722,47.0,240,0,1.0,38.0
723,52.0,0,240,1.0,38.0
724,59.0,0,240,0.0,38.0
725,44.0,240,960,3.0,57.0
726,47.0,0,240,1.0,37.0
727,59.0,240,240,0.0,37.0
728,51.0,0,240,1.0,37.0
729,59.0,240,240,0.0,36.0
730,47.0,0,240,1.0,36.0
731,51.0,0,240,1.0,36.0
732,42.0,240,960,3.0,53.0
733,51.0,240,240,1.0,35.0
734,47.0,0,240,1.0,35.0
735,59.0,0,240,0.0,35.0
736,59.0,240,240,0.0,34.0
737,49.0,0,0,1.0,33.0
738,47.0,0,0,1.0,33.0
739,58.0,0,0,1.0,33.0
740,47.0,0,0,1.0,33.0
741,59.0,0,0,0.0,33.0
742,40.0,240,960,3.0,49.0
743,58.0,240,240,1.0,33.0
744,49.0,0,240,1.0,33.0
745,47.0,240,0,1.0,31.0
746,59.0,240,240,0.0,31.0
747,59.0,0,240,0.0,31.0
748,47.0,0,0,1.0,30.0
749,39.0,240,960,3.0,45.0
750,59.0,240,240,0.0,30.0
751,47.0,0,240,1.0,29.0
752,57.0,0,240,1.0,29.0
753,51.0,0,240,1.0,29.0
754,59.0,0,0,0.0,28.0
755,51.0,0,0,1.0,28.0
756,47.0,0,0,1.0,28.0
757,57.0,240,0,1.0,28.0
758,59.0,0,240,0.0,28.0
759,35.0,240,960,3.0,41.0
760,40.0,0,240,3.0,32.0
761,56.0,0,240,2.0,33.0
762,59.0,0,240,2.0,33.0
763,52.0,0,0,3.0,34.0
764,56.0,0,240,2.0,34.0
765,59.0,240,240,2.0,34.0
766,52.0,0,0,3.0,35.0
767,59.0,0,240,2.0,35.0
768,56.0,240,240,2.0,35.0
769,71.0,240,960,0.0,32.0
770,56.0,0,240,2.0,36.0
771,59.0,0,0,2.0,37.0
772,52.0,0,0,3.0,37.0
773,56.0,240,240,2.0,37.0
774,59.0,240,0,2.0,38.0
775,52.0,0,240,3.0,38.0
776,64.0,0,960,1.0,38.0
777,76.0,240,960,0.0,38.0
778,56.0,0,240,2.0,38.0
779,60.0,240,0,2.0,40.0
780,57.0,0,240,2.0,39.0
781,52.0,0,0,3.0,40.0
782,57.0,240,0,2.0,41.0
783,60.0,0,0,2.0,41.0
784,72.0,240,960,0.0,43.0
785,52.0,0,240,3.0,41.0
786,60.0,0,0,2.0,43.0
787,52.0,0,0,3.0,43.0
788,57.0,240,0,2.0,43.0
789,52.0,0,240,3.0,44.0
790,57.0,240,240,2.0,44.0
791,65.0,0,960,1.0,49.0
792,60.0,0,240,2.0,44.0
793,57.0,240,0,2.0,47.0
794,53.0,0,240,2.0,46.0
795,59.0,0,240,2.0,46.0
796,50.0,0,0,3.0,47.0
797,50.0,240,0,3.0,48.0
798,53.0,0,0,2.0,48.0
799,57.0,0,0,2.0,48.0
800,59.0,0,0,2.0,48.0
801,77.0,240,1920,0.0,49.0
802,71.0,0,0,1.0,64.0
803,57.0,240,240,2.0,51.0
804,53.0,0,240,2.0,51.0
805,59.0,0,240,2.0,51.0
806,50.0,0,240,3.0,51.0
807,83.0,240,720,0.0,64.0
808,59.0,0,0,2.0,53.0
809,57.0,0,0,2.0,53.0
810,53.0,240,0,2.0,53.0
811,50.0,0,0,3.0,53.0
812,56.0,240,0,2.0,57.0
813,53.0,0,0,2.0,57.0
814,59.0,0,0,2.0,57.0
815,50.0,0,0,3.0,57.0
816,86.0,240,720,0.0,72.0
817,74.0,0,720,1.0,72.0
818,56.0,240,240,2.0,58.0
819,50.0,0,240,3.0,58.0
820,53.0,0,240,2.0,58.0
821,59.0,0,240,2.0,58.0
822,50.0,0,240,3.0,64.0
823,53.0,0,240,2.0,61.0
824,56.0,0,240,2.0,61.0
825,59.0,240,240,2.0,61.0
826,56.0,0,240,2.0,65.0
827,77.0,240,720,1.0,80.0
828,89.0,0,720,0.0,80.0
829,50.0,240,240,3.0,67.0
830,53.0,0,240,2.0,65.0
831,59.0,0,240,2.0,65.0
832,50.0,240,240,3.0,70.0
833,56.0,0,240,2.0,68.0
834,59.0,0,240,2.0,68.0
835,53.0,0,240,2.0,68.0
836,52.0,120,120,2.0,60.0
837,57.0,120,120,2.0,53.0
838,48.0,120,0,3.0,59.0
839,60.0,120,120,2.0,47.0
840,52.0,120,120,2.0,47.0
841,57.0,120,120,2.0,47.0
842,48.0,120,0,3.0,58.0
843,60.0,120,120,2.0,47.0
844,52.0,120,120,2.0,46.0
845,57.0,120,120,2.0,46.0
846,60.0,120,120,2.0,46.0
847,76.0,0,1440,1.0,85.0
848,88.0,240,1440,0.0,85.0
849,52.0,120,120,2.0,46.0
850,86.0,0,240,0.0,59.0
851,74.0,120,240,1.0,59.0
852,57.0,0,120,2.0,45.0
853,72.0,0,240,1.0,58.0
854,60.0,120,120,2.0,45.0
855,48.0,0,480,3.0,57.0
856,84.0,120,240,0.0,58.0
857,52.0,120,120,2.0,45.0
858,71.0,120,240,1.0,58.0
859,83.0,0,240,0.0,58.0
860,57.0,120,120,2.0,45.0
861,60.0,120,120,2.0,45.0
862,69.0,0,240,1.0,57.0
863,81.0,0,240,0.0,57.0
864,48.0,0,480,3.0,56.0
865,80.0,120,240,0.0,57.0
866,52.0,120,120,2.0,44.0
867,68.0,0,240,1.0,57.0
868,57.0,0,120,2.0,44.0
869,69.0,0,240,1.0,56.0
870,81.0,120,240,0.0,56.0
871,48.0,120,0,3.0,54.0
872,60.0,120,120,2.0,44.0
873,68.0,0,240,1.0,56.0
874,80.0,0,240,0.0,56.0
875,52.0,120,120,2.0,44.0
876,57.0,0,120,2.0,44.0
877,60.0,120,120,2.0,43.0
878,81.0,0,240,0.0,55.0
879,69.0,120,240,1.0,55.0
880,71.0,0,240,1.0,55.0
881,83.0,120,240,0.0,55.0
882,52.0,120,120,2.0,43.0
883,57.0,0,120,2.0,43.0
884,69.0,120,240,1.0,54.0
885,81.0,0,240,0.0,54.0
886,60.0,120,120,2.0,43.0
887,48.0,0,480,3.0,53.0
888,53.0,120,120,2.0,42.0
889,57.0,120,120,2.0,42.0
890,60.0,120,120,2.0,42.0
891,50.0,120,0,3.0,51.0
892,53.0,120,120,2.0,42.0
893,57.0,120,120,2.0,42.0
894,60.0,120,120,2.0,41.0
895,50.0,120,0,3.0,50.0
896,53.0,120,120,2.0,41.0
897,57.0,120,120,2.0,41.0
898,69.0,120,1440,1.0,54.0
899,81.0,0,1440,0.0,54.0
900,60.0,120,120,2.0,41.0
901,50.0,0,0,3.0,50.0
902,74.0,120,240,1.0,55.0
903,86.0,0,240,0.0,55.0
904,53.0,120,120,2.0,41.0
905,57.0,0,120,2.0,40.0
906,84.0,120,240,0.0,54.0
907,72.0,0,240,1.0,54.0
908,60.0,120,120,2.0,40.0
909,83.0,120,240,0.0,53.0
910,53.0,120,120,2.0,40.0
911,71.0,0,240,1.0,53.0
912,57.0,0,120,2.0,40.0
913,81.0,120,240,0.0,52.0
914,60.0,120,120,2.0,40.0
915,50.0,120,0,3.0,48.0
916,69.0,0,240,1.0,52.0
917,68.0,0,240,1.0,51.0
918,80.0,0,240,0.0,51.0
919,53.0,120,120,2.0,39.0
920,57.0,120,120,2.0,39.0
921,60.0,120,120,2.0,39.0
922,69.0,0,240,1.0,50.0
923,81.0,0,240,0.0,50.0
924,53.0,120,120,2.0,39.0
925,68.0,0,240,1.0,49.0
926,80.0,120,240,0.0,49.0
927,57.0,0,120,2.0,38.0
928,81.0,0,240,0.0,48.0
929,60.0,120,120,2.0,38.0
930,69.0,120,240,1.0,48.0
931,50.0,0,480,3.0,47.0
932,53.0,120,120,2.0,38.0
933,83.0,120,240,0.0,47.0
934,71.0,0,240,1.0,47.0
935,57.0,0,120,2.0,38.0
936,50.0,0,480,3.0,46.0
937,69.0,0,0,1.0,45.0
938,60.0,120,120,2.0,38.0
939,81.0,0,240,0.0,46.0
940,57.0,120,120,2.0,39.0
941,60.0,120,120,2.0,39.0
942,52.0,120,0,3.0,51.0
943,64.0,120,120,2.0,40.0
944,57.0,120,120,2.0,41.0
945,60.0,120,120,2.0,42.0
946,64.0,120,120,2.0,42.0
947,52.0,120,0,3.0,53.0
948,57.0,120,120,2.0,43.0
949,81.0,0,1200,0.0,45.0
950,60.0,120,120,2.0,44.0
951,88.0,0,240,0.0,53.0
952,64.0,120,120,2.0,44.0
953,76.0,0,240,1.0,53.0
954,57.0,120,120,2.0,45.0
955,86.0,0,240,0.0,54.0
956,74.0,120,240,1.0,54.0
957,60.0,120,120,2.0,46.0
958,72.0,0,240,1.0,56.0
959,64.0,120,120,2.0,47.0
960,84.0,0,240,0.0,56.0
961,52.0,0,0,3.0,57.0
962,71.0,0,240,1.0,56.0
963,83.0,120,240,0.0,56.0
964,57.0,120,120,2.0,49.0
965,60.0,0,120,2.0,50.0
966,69.0,120,240,1.0,59.0
967,64.0,120,120,2.0,51.0
968,81.0,0,240,0.0,59.0
969,52.0,0,0,3.0,60.0
970,68.0,120,240,1.0,61.0
971,57.0,120,120,2.0,53.0
972,80.0,0,240,0.0,61.0
973,60.0,0,120,2.0,54.0
974,81.0,0,240,0.0,64.0
975,69.0,120,240,1.0,64.0
976,64.0,120,120,2.0,55.0
977,80.0,120,240,0.0,66.0
978,57.0,120,120,2.0,57.0
979,68.0,0,240,1.0,66.0
980,60.0,0,120,2.0,58.0
981,64.0,120,120,2.0,59.0
982,81.0,120,240,0.0,68.0
983,52.0,0,480,3.0,62.0
984,69.0,0,240,1.0,68.0
985,57.0,120,120,2.0,61.0
986,83.0,120,240,0.0,71.0
987,71.0,0,240,1.0,71.0
988,60.0,0,120,2.0,62.0
989,64.0,120,120,2.0,63.0
990,81.0,0,240,0.0,73.0
991,69.0,120,240,1.0,73.0
992,52.0,0,480,3.0,66.0
993,57.0,120,120,2.0,36.0
994,60.0,120,120,2.0,37.0
995,62.0,120,120,2.0,37.0
996,53.0,120,0,3.0,54.0
997,57.0,120,120,2.0,38.0
998,60.0,120,120,2.0,39.0
999,62.0,120,120,2.0,39.0
1000,57.0,120,120,2.0,40.0
1001,60.0,120,120,2.0,41.0
1002,69.0,120,1440,1.0,67.0
1003,53.0,120,480,3.0,48.0
1004,81.0,0,1440,0.0,67.0
1005,62.0,120,120,2.0,41.0
1006,68.0,120,240,1.0,44.0
1007,57.0,120,120,2.0,42.0
1008,80.0,0,240,0.0,44.0
1009,60.0,120,120,2.0,43.0
1010,53.0,0,480,3.0,50.0
1011,81.0,0,240,0.0,45.0
1012,62.0,120,120,2.0,43.0
1013,69.0,0,240,1.0,45.0
1014,80.0,0,240,0.0,47.0
1015,68.0,0,240,1.0,47.0
1016,57.0,120,120,2.0,44.0
1017,60.0,0,120,2.0,44.0
1018,81.0,120,240,0.0,48.0
1019,54.0,120,0,3.0,54.0
1020,69.0,0,240,1.0,48.0
1021,62.0,120,120,2.0,45.0
1022,71.0,0,240,1.0,49.0
1023,57.0,120,120,2.0,46.0
1024,83.0,0,240,0.0,49.0
1025,60.0,120,120,2.0,46.0
1026,62.0,120,120,2.0,47.0
1027,69.0,0,240,1.0,50.0
1028,81.0,0,240,0.0,50.0
1029,54.0,120,0,3.0,56.0
1030,57.0,120,120,2.0,48.0
1031,68.0,0,240,1.0,52.0
1032,80.0,0,240,0.0,52.0
1033,60.0,0,120,2.0,48.0
1034,62.0,120,120,2.0,49.0
1035,69.0,0,240,1.0,53.0
1036,81.0,120,240,0.0,53.0
1037,71.0,0,240,1.0,54.0
1038,83.0,120,240,0.0,54.0
1039,57.0,120,120,2.0,50.0
1040,60.0,0,120,2.0,50.0
1041,72.0,120,0,1.0,58.0
1042,84.0,0,240,0.0,55.0
1043,62.0,120,120,2.0,51.0
1044,54.0,0,480,3.0,58.0
1045,60.0,120,120,2.0,52.0
1046,64.0,120,120,2.0,52.0
1047,67.0,120,120,2.0,53.0
1048,55.0,0,480,3.0,60.0
1049,60.0,120,120,2.0,54.0
1050,64.0,120,120,2.0,54.0
1051,55.0,120,480,3.0,61.0
1052,67.0,120,120,2.0,55.0
1053,60.0,120,120,2.0,56.0
1054,64.0,120,120,2.0,56.0
1055,55.0,120,480,3.0,63.0
1056,84.0,0,1440,0.0,58.0
1057,67.0,120,120,2.0,57.0
1058,86.0,0,240,0.0,63.0
1059,60.0,120,120,2.0,58.0
1060,74.0,0,240,1.0,63.0
1061,64.0,0,120,2.0,58.0
1062,76.0,120,240,1.0,66.0
1063,55.0,120,480,3.0,67.0
1064,88.0,0,0,0.0,69.0
1065,67.0,120,120,2.0,59.0
1066,50.0,120,120,2.0,60.0
1067,53.0,120,120,2.0,63.0
1068,43.0,0,480,3.0,77.0
1069,76.0,120,480,1.0,69.0
1070,55.0,120,120,2.0,65.0
1071,50.0,120,120,2.0,64.0
1072,53.0,120,120,2.0,62.0
1073,43.0,120,480,3.0,69.0
1074,55.0,120,120,2.0,59.0
1075,50.0,120,120,2.0,54.0
1076,53.0,120,120,2.0,52.0
1077,89.0,0,960,0.0,85.0
1078,77.0,0,960,1.0,85.0
1079,55.0,120,120,2.0,49.0
1080,43.0,120,480,3.0,62.0
1081,50.0,120,120,2.0,45.0
1082,53.0,120,120,2.0,42.0
1083,55.0,120,120,2.0,40.0
1084,71.0,120,480,1.0,60.0
1085,43.0,0,480,3.0,54.0
1086,83.0,0,480,0.0,60.0
1087,52.0,120,120,2.0,37.0
1088,55.0,120,120,2.0,37.0
1089,48.0,120,0,3.0,52.0
1090,60.0,120,120,2.0,37.0
1091,52.0,120,120,2.0,37.0
1092,55.0,120,120,2.0,36.0
1093,60.0,120,120,2.0,36.0
1094,48.0,120,0,3.0,51.0
1095,52.0,120,120,2.0,36.0
1096,55.0,120,120,2.0,36.0
1097,72.0,120,1440,1.0,53.0
1098,84.0,0,1440,0.0,53.0
1099,60.0,120,120,2.0,36.0
1100,79.0,0,240,0.0,49.0
1101,67.0,0,240,1.0,49.0
1102,52.0,120,120,2.0,35.0
1103,55.0,0,120,2.0,35.0
1104,48.0,120,480,3.0,50.0
1105,65.0,0,240,1.0,49.0
1106,60.0,120,120,2.0,35.0
1107,77.0,0,0,0.0,48.0
1108,52.0,120,120,2.0,35.0
1109,65.0,0,240,1.0,48.0
1110,55.0,0,120,2.0,35.0
1111,76.0,0,240,0.0,47.0
1112,64.0,120,240,1.0,47.0
1113,48.0,120,0,3.0,49.0
1114,60.0,120,120,2.0,35.0
1115,75.0,0,240,0.0,47.0
1116,63.0,0,240,1.0,47.0
1117,52.0,120,120,2.0,34.0
1118,55.0,0,120,2.0,34.0
1119,76.0,120,240,0.0,46.0
1120,64.0,0,240,1.0,46.0
1121,60.0,120,120,2.0,34.0
1122,48.0,0,0,3.0,48.0
1123,63.0,0,240,1.0,46.0
1124,75.0,120,240,0.0,46.0
1125,52.0,120,120,2.0,34.0
1126,55.0,0,120,2.0,33.0
1127,60.0,120,120,2.0,33.0
1128,64.0,0,240,1.0,45.0
1129,76.0,120,240,0.0,45.0
1130,52.0,120,120,2.0,33.0
1131,77.0,0,240,0.0,44.0
1132,65.0,120,240,1.0,44.0
1133,55.0,0,120,2.0,33.0
1134,76.0,120,0,0.0,44.0
1135,48.0,0,480,3.0,47.0
1136,60.0,120,120,2.0,33.0
1137,64.0,120,240,1.0,44.0
1138,52.0,120,120,2.0,32.0
1139,55.0,120,120,2.0,32.0
1140,59.0,120,120,2.0,32.0
1141,47.0,0,480,3.0,46.0
1142,52.0,120,120,2.0,32.0
1143,55.0,120,120,2.0,32.0
1144,47.0,120,0,3.0,44.0
1145,59.0,120,120,2.0,32.0
1146,52.0,120,120,2.0,31.0
1147,55.0,120,120,2.0,31.0
1148,64.0,0,1440,1.0,44.0
1149,59.0,120,120,2.0,31.0
1150,52.0,120,120,2.0,31.0
1151,79.0,0,240,0.0,43.0
1152,67.0,120,240,1.0,43.0
1153,55.0,0,120,2.0,30.0
1154,59.0,120,120,2.0,30.0
1155,47.0,0,480,3.0,44.0
1156,78.0,120,240,0.0,42.0
1157,66.0,0,0,1.0,42.0
1158,52.0,120,120,2.0,30.0
1159,78.0,0,240,0.0,42.0
1160,55.0,120,120,2.0,30.0
1161,76.0,0,240,0.0,41.0
1162,64.0,0,240,1.0,41.0
1163,47.0,120,480,3.0,43.0
1164,59.0,120,120,2.0,30.0
1165,52.0,120,120,2.0,29.0
1166,75.0,0,240,0.0,40.0
1167,63.0,120,240,1.0,40.0
1168,55.0,120,120,2.0,29.0
1169,59.0,120,120,2.0,29.0
1170,47.0,0,480,3.0,42.0
1171,76.0,0,240,0.0,39.0
1172,64.0,0,240,1.0,39.0
1173,52.0,120,120,2.0,29.0
1174,75.0,120,240,0.0,38.0
1175,63.0,0,240,1.0,38.0
1176,55.0,0,120,2.0,29.0
1177,64.0,0,240,1.0,38.0
1178,47.0,0,480,3.0,41.0
1179,59.0,120,120,2.0,29.0
1180,76.0,120,240,0.0,38.0
1181,78.0,0,240,0.0,37.0
1182,66.0,120,240,1.0,37.0
1183,52.0,120,120,2.0,28.0
1184,55.0,120,120,2.0,28.0
1185,76.0,0,240,0.0,36.0
1186,64.0,0,240,1.0,36.0
1187,59.0,120,120,2.0,28.0
1188,47.0,0,480,3.0,41.0
1189,52.0,120,120,2.0,33.0
1190,55.0,120,120,2.0,35.0
1191,61.0,120,120,2.0,37.0
1192,45.0,120,0,3.0,54.0
1193,52.0,120,120,2.0,41.0
1194,55.0,120,120,2.0,44.0
1195,61.0,120,120,2.0,46.0
1196,52.0,120,120,2.0,50.0
1197,55.0,120,120,2.0,53.0
1198,64.0,0,1440,1.0,35.0
1199,76.0,120,1440,0.0,35.0
1200,61.0,120,120,2.0,55.0
1201,45.0,0,0,3.0,69.0
1202,52.0,120,120,2.0,59.0
1203,55.0,120,120,2.0,61.0
1204,61.0,120,120,2.0,64.0
1205,52.0,120,120,2.0,69.0
1206,55.0,120,120,2.0,68.0
1207,61.0,120,120,2.0,67.0
1208,45.0,120,0,3.0,76.0
1209,52.0,120,120,2.0,65.0
1210,55.0,120,120,2.0,65.0
1211,61.0,120,120,2.0,64.0
1212,52.0,120,120,2.0,62.0
1213,88.0,0,1680,0.0,80.0
1214,76.0,120,1680,1.0,79.0
1215,55.0,0,120,2.0,61.0
1216,61.0,120,120,2.0,60.0
1217,45.0,120,0,3.0,68.0
1218,67.0,0,240,1.0,67.0
1219,79.0,120,240,0.0,68.0
1220,66.0,0,240,1.0,66.0
1221,78.0,0,240,0.0,66.0
1222,52.0,120,120,2.0,59.0
1223,55.0,120,120,2.0,58.0
1224,61.0,120,120,2.0,57.0
1225,76.0,0,240,0.0,64.0
1226,64.0,0,240,1.0,64.0
1227,75.0,120,240,0.0,56.0
1228,63.0,0,240,1.0,56.0
1229,59.0,240,0,1.0,36.0
1230,71.0,240,240,0.0,36.0
1231,63.0,0,0,1.0,36.0
1232,71.0,0,0,0.0,37.0
1233,63.0,240,0,1.0,37.0
1234,59.0,0,0,1.0,37.0
1235,67.0,0,0,1.0,38.0
1236,59.0,240,0,1.0,38.0
1237,71.0,0,240,0.0,37.0
1238,71.0,240,0,0.0,38.0
1239,67.0,0,0,1.0,38.0
1240,52.0,240,960,3.0,52.0
1241,59.0,0,240,1.0,38.0
1242,71.0,0,240,0.0,39.0
1243,59.0,0,240,1.0,39.0
1244,66.0,0,0,1.0,39.0
1245,59.0,0,240,1.0,39.0
1246,71.0,240,0,0.0,40.0
1247,51.0,240,960,3.0,54.0
1248,66.0,0,240,1.0,40.0
1249,59.0,240,240,1.0,41.0
1250,64.0,0,240,1.0,41.0
1251,71.0,0,240,0.0,41.0
1252,71.0,0,240,0.0,41.0
1253,64.0,240,240,1.0,41.0
1254,59.0,0,240,1.0,41.0
1255,59.0,0,240,1.0,41.0
1256,64.0,0,240,1.0,41.0
1257,71.0,240,240,0.0,41.0
1258,47.0,0,0,3.0,57.0
1259,55.0,240,960,3.0,56.0
1260,59.0,0,240,3.0,38.0
1261,63.0,240,0,2.0,38.0
1262,59.0,240,0,3.0,39.0
1263,63.0,0,240,2.0,39.0
1264,54.0,240,960,3.0,57.0
1265,71.0,0,960,0.0,51.0
1266,67.0,0,0,2.0,40.0
1267,64.0,240,0,2.0,40.0
1268,59.0,0,240,3.0,40.0
1269,64.0,240,0,2.0,41.0
1270,67.0,0,240,2.0,41.0
1271,59.0,0,240,3.0,40.0
1272,76.0,0,960,0.0,52.0
1273,59.0,240,240,3.0,41.0
1274,63.0,240,0,2.0,43.0
1275,66.0,240,240,2.0,42.0
1276,66.0,0,240,2.0,43.0
1277,59.0,0,0,3.0,43.0
1278,63.0,240,240,2.0,43.0
1279,66.0,0,240,2.0,43.0
1280,59.0,240,0,3.0,43.0
1281,75.0,0,960,0.0,54.0
1282,64.0,240,240,2.0,44.0
1283,61.0,240,0,2.0,45.0
1284,59.0,0,240,3.0,44.0
1285,64.0,0,240,2.0,45.0
1286,61.0,240,240,2.0,45.0
1287,64.0,0,240,2.0,45.0
1288,59.0,240,0,3.0,45.0
1289,70.0,0,960,0.0,56.0
1290,63.0,0,0,1.0,48.0
1291,59.0,240,0,1.0,48.0
1292,71.0,0,0,0.0,48.0
1293,63.0,0,0,1.0,48.0
1294,59.0,0,0,1.0,48.0
1295,71.0,240,0,0.0,48.0
1296,71.0,240,240,0.0,49.0
1297,59.0,0,240,1.0,49.0
1298,67.0,0,0,1.0,49.0
1299,59.0,0,240,1.0,49.0
1300,71.0,240,240,0.0,49.0
1301,67.0,240,240,1.0,50.0
1302,71.0,0,240,0.0,50.0
1303,52.0,240,960,3.0,60.0
1304,66.0,240,0,1.0,51.0
1305,59.0,0,240,1.0,51.0
1306,71.0,240,240,0.0,51.0
1307,71.0,0,240,0.0,51.0
1308,59.0,0,240,1.0,51.0
1309,71.0,240,240,0.0,52.0
1310,51.0,240,960,3.0,63.0
1311,66.0,0,240,1.0,52.0
1312,59.0,0,240,1.0,52.0
1313,64.0,0,240,1.0,52.0
1314,71.0,0,0,0.0,53.0
1315,59.0,0,240,1.0,53.0
1316,64.0,240,240,1.0,53.0
1317,47.0,240,3840,3.0,58.0
1318,55.0,240,960,3.0,65.0
1319,64.0,240,240,1.0,53.0
1320,59.0,0,240,1.0,53.0
1321,71.0,240,0,0.0,66.0
1322,59.0,0,240,3.0,50.0
1323,63.0,240,0,2.0,50.0
1324,63.0,240,0,2.0,51.0
1325,59.0,0,0,3.0,51.0
1326,54.0,0,960,3.0,67.0
1327,47.0,0,960,3.0,67.0
1328,67.0,240,240,2.0,52.0
1329,59.0,0,240,3.0,52.0
1330,64.0,0,0,2.0,52.0
1331,64.0,240,0,2.0,53.0
1332,67.0,240,240,2.0,52.0
1333,59.0,0,0,3.0,53.0
1334,76.0,240,960,0.0,69.0
1335,67.0,0,240,2.0,53.0
1336,63.0,240,0,2.0,54.0
1337,66.0,0,0,2.0,54.0
1338,59.0,0,0,3.0,54.0
1339,63.0,240,0,2.0,55.0
1340,59.0,0,0,3.0,55.0
1341,66.0,0,0,2.0,55.0
1342,75.0,240,960,0.0,71.0
1343,61.0,0,240,2.0,56.0
1344,59.0,0,240,3.0,56.0
1345,64.0,240,0,2.0,56.0
1346,61.0,0,240,2.0,56.0
1347,59.0,0,240,3.0,56.0
1348,61.0,240,240,2.0,57.0
1349,59.0,0,240,3.0,57.0
1350,64.0,0,240,2.0,57.0
1351,70.0,240,960,0.0,74.0
1352,63.0,0,240,2.0,57.0
1353,59.0,240,240,2.0,57.0
1354,47.0,0,0,3.0,58.0
1355,63.0,0,240,2.0,58.0
1356,59.0,240,240,2.0,58.0
1357,47.0,0,0,3.0,59.0
1358,71.0,240,960,0.0,77.0
1359,63.0,0,240,2.0,59.0
1360,59.0,240,240,2.0,59.0
1361,61.0,240,240,2.0,62.0
1362,64.0,240,0,2.0,63.0
1363,47.0,0,0,3.0,63.0
1364,47.0,240,0,3.0,64.0
1365,61.0,0,0,2.0,64.0
1366,64.0,0,240,2.0,64.0
1367,69.0,240,960,0.0,80.0
1368,59.0,240,240,2.0,67.0
1369,47.0,0,240,3.0,67.0
1370,35.0,0,0,3.0,68.0
1371,64.0,0,0,2.0,68.0
1372,59.0,240,0,2.0,69.0
1373,35.0,0,0,3.0,69.0
1374,47.0,0,0,3.0,69.0
1375,64.0,0,0,2.0,69.0
1376,68.0,240,960,0.0,82.0
1377,35.0,0,240,3.0,72.0
1378,47.0,0,240,3.0,72.0
1379,63.0,0,0,2.0,73.0
1380,57.0,0,0,2.0,73.0
1381,47.0,240,240,3.0,73.0
1382,35.0,0,0,3.0,74.0
1383,63.0,0,0,2.0,74.0
1384,57.0,0,0,2.0,74.0
1385,47.0,240,240,3.0,74.0
1386,66.0,240,960,0.0,85.0
1387,40.0,120,120,3.0,74.0
1388,42.0,120,120,3.0,74.0
1389,44.0,120,120,3.0,75.0
1390,45.0,120,120,3.0,75.0
1391,47.0,120,120,3.0,75.0
1392,49.0,120,120,3.0,76.0
1393,71.0,240,960,0.0,82.0
1394,51.0,120,120,3.0,76.0
1395,64.0,0,0,1.0,85.0
1396,59.0,0,960,1.0,82.0
1397,68.0,120,0,1.0,85.0
1398,52.0,0,120,3.0,76.0
1399,54.0,120,120,3.0,77.0
1400,56.0,120,120,3.0,77.0
1401,57.0,120,120,3.0,78.0
1402,59.0,120,120,3.0,78.0
1403,61.0,120,120,3.0,78.0
1404,63.0,120,120,3.0,79.0
1405,76.0,0,960,0.0,85.0
1406,71.0,0,960,1.0,85.0
1407,64.0,120,120,3.0,79.0
1408,40.0,120,120,3.0,80.0
1409,42.0,120,120,3.0,80.0
1410,44.0,120,120,3.0,81.0
1411,45.0,120,120,3.0,81.0
1412,47.0,120,120,3.0,81.0
1413,49.0,120,120,3.0,82.0
1414,73.0,0,960,0.0,89.0
1415,51.0,120,120,3.0,82.0
1416,69.0,0,0,1.0,92.0
1417,52.0,0,120,3.0,83.0
1418,54.0,120,120,3.0,83.0
1419,56.0,120,120,3.0,83.0
1420,57.0,120,120,3.0,84.0
1421,59.0,120,120,3.0,84.0
1422,61.0,120,120,3.0,85.0
1423,63.0,120,120,3.0,85.0
1424,78.0,120,960,0.0,92.0
1425,73.0,0,960,1.0,92.0
1426,69.0,120,0,1.0,96.0
1427,64.0,120,120,3.0,85.0
1428,52.0,120,120,3.0,86.0
1429,54.0,120,120,3.0,86.0
1430,56.0,120,120,3.0,87.0
1431,57.0,120,120,3.0,87.0
1432,59.0,120,120,3.0,88.0
1433,61.0,120,120,3.0,88.0
1434,63.0,120,120,3.0,88.0
1435,71.0,0,960,1.0,96.0
1436,75.0,0,960,0.0,96.0
1437,64.0,120,120,3.0,89.0
1438,81.0,0,240,1.0,99.0
1439,66.0,120,120,3.0,89.0
1440,83.0,0,240,0.0,99.0
1441,78.0,0,240,1.0,99.0
1442,68.0,120,120,3.0,90.0
1443,69.0,120,120,3.0,90.0
1444,71.0,0,120,3.0,90.0
1445,78.0,0,240,1.0,101.0
1446,83.0,0,240,0.0,101.0
1447,81.0,120,240,1.0,101.0
1448,73.0,120,120,3.0,91.0
1449,74.0,120,120,3.0,91.0
1450,75.0,120,120,3.0,91.0
1451,83.0,120,720,0.0,110.0
1452,85.0,720,120,0.0,80.0
1453,87.0,120,120,0.0,75.0
1454,88.0,120,360,0.0,69.0
1455,76.0,0,1440,3.0,98.0
1456,80.0,0,1440,1.0,108.0
1457,80.0,960,120,0.0,40.0
1458,76.0,120,120,0.0,40.0
1459,81.0,120,120,0.0,40.0
1460,78.0,120,120,0.0,41.0
1461,83.0,120,120,0.0,41.0
1462,80.0,120,120,0.0,41.0
1463,85.0,120,120,0.0,42.0
1464,81.0,120,120,0.0,42.0
1465,68.0,120,120,3.0,41.0
1466,64.0,120,120,3.0,42.0
1467,69.0,120,120,3.0,42.0
1468,83.0,0,360,0.0,42.0
1469,66.0,120,120,3.0,42.0
1470,71.0,120,120,3.0,42.0
1471,68.0,120,120,3.0,43.0
1472,73.0,120,120,3.0,43.0
1473,69.0,120,120,3.0,43.0
1474,56.0,0,120,0.0,44.0
1475,52.0,120,120,0.0,44.0
1476,71.0,120,360,3.0,43.0
1477,57.0,120,120,0.0,45.0
1478,54.0,120,120,0.0,45.0
1479,59.0,120,120,0.0,45.0
1480,56.0,120,120,0.0,46.0
1481,61.0,120,120,0.0,46.0
1482,57.0,120,120,0.0,46.0
1483,44.0,0,120,3.0,45.0
1484,40.0,120,120,3.0,46.0
1485,59.0,120,360,0.0,46.0
1486,45.0,120,120,3.0,46.0
1487,42.0,120,120,3.0,46.0
1488,47.0,120,120,3.0,46.0
1489,44.0,120,120,3.0,47.0
1490,49.0,120,120,3.0,47.0
1491,46.0,120,120,3.0,47.0
1492,68.0,240,240,0.0,49.0
1493,64.0,0,240,0.0,50.0
1494,56.0,240,240,3.0,49.0
1495,69.0,0,240,0.0,51.0
1496,51.0,240,240,3.0,49.0
1497,66.0,240,240,0.0,51.0
1498,54.0,0,240,3.0,50.0
1499,63.0,240,240,0.0,52.0
1500,71.0,240,240,0.0,52.0
1501,57.0,0,480,3.0,50.0
1502,47.0,120,1920,3.0,47.0
1503,59.0,240,1680,0.0,49.0
1504,47.0,240,40,3.0,51.0
1505,52.0,40,40,3.0,51.0
1506,56.0,40,40,3.0,52.0
1507,73.0,120,60,0.0,48.0
1508,71.0,60,60,0.0,48.0
1509,70.0,60,60,0.0,49.0
1510,80.0,60,240,0.0,54.0
1511,68.0,0,240,3.0,52.0
1512,76.0,240,240,0.0,55.0
1513,63.0,240,240,3.0,54.0
1514,81.0,0,240,0.0,56.0
1515,78.0,240,240,0.0,58.0
1516,66.0,0,240,3.0,55.0
1517,75.0,240,240,0.0,60.0
1518,83.0,240,240,0.0,61.0
1519,69.0,0,480,3.0,56.0
1520,59.0,40,1800,3.0,52.0
1521,71.0,60,1507,0.0,50.0
1522,71.0,0,65,1.0,68.0
1523,68.0,240,480,3.0,58.0
1524,64.0,0,480,3.0,58.0
1525,83.0,0,720,0.0,68.0
1526,81.0,240,120,0.0,63.0
1527,56.0,480,480,3.0,54.0
1528,80.0,120,120,0.0,62.0
1529,78.0,0,240,0.0,61.0
1530,76.0,240,240,0.0,60.0
1531,57.0,120,480,3.0,53.0
1532,75.0,0,240,0.0,59.0
1533,73.0,0,720,1.0,61.0
1534,73.0,240,240,0.0,59.0
1535,58.0,240,480,3.0,52.0
1536,59.0,0,960,3.0,51.0
1537,67.0,480,480,1.0,55.0
1538,64.0,0,1440,1.0,57.0
1539,58.0,0,480,2.0,49.0
1540,71.0,240,1920,0.0,57.0
1541,57.0,480,480,2.0,48.0
1542,63.0,0,480,1.0,50.0
1543,66.0,0,960,1.0,53.0
1544,47.0,480,960,3.0,49.0
1545,52.0,0,480,3.0,51.0
1546,56.0,480,480,2.0,51.0
1547,71.0,0,720,0.0,55.0
1548,69.0,240,120,0.0,52.0
1549,68.0,120,120,0.0,52.0
1550,64.0,0,960,1.0,55.0
1551,44.0,480,480,3.0,50.0
1552,59.0,0,960,1.0,55.0
1553,66.0,120,240,0.0,52.0
1554,45.0,0,480,3.0,49.0
1555,64.0,240,240,0.0,51.0
1556,61.0,0,720,1.0,52.0
1557,63.0,0,240,0.0,50.0
1558,46.0,240,480,3.0,47.0
1559,61.0,240,240,0.0,50.0
1560,56.0,0,480,1.0,48.0
1561,47.0,240,960,3.0,46.0
1562,55.0,480,480,1.0,46.0
1563,52.0,0,1440,1.0,48.0
1564,46.0,0,480,2.0,43.0
1565,45.0,480,480,2.0,42.0
1566,51.0,0,480,1.0,43.0
1567,54.0,0,960,1.0,45.0
1568,59.0,0,1920,0.0,48.0
1569,35.0,480,960,3.0,43.0
1570,36.0,120,120,3.0,37.0
1571,38.0,120,120,3.0,37.0
1572,40.0,120,120,3.0,38.0
1573,41.0,120,120,3.0,39.0
1574,43.0,120,120,3.0,39.0
1575,45.0,120,120,3.0,40.0
1576,52.0,480,960,1.0,35.0
1577,55.0,0,960,0.0,40.0
1578,47.0,120,120,3.0,41.0
1579,48.0,0,120,3.0,42.0
1580,48.0,240,120,3.0,43.0
1581,48.0,240,120,3.0,45.0
1582,48.0,240,120,3.0,46.0
1583,60.0,0,960,0.0,44.0
1584,52.0,120,960,1.0,40.0
1585,55.0,0,960,1.0,40.0
1586,36.0,120,120,3.0,48.0
1587,38.0,120,120,3.0,49.0
1588,40.0,120,120,3.0,50.0
1589,41.0,120,120,3.0,50.0
1590,43.0,120,120,3.0,51.0
1591,45.0,120,120,3.0,52.0
1592,59.0,0,960,0.0,49.0
1593,53.0,240,960,1.0,46.0
1594,47.0,120,120,3.0,53.0
1595,50.0,0,960,1.0,46.0
1596,48.0,0,120,3.0,53.0
1597,48.0,240,120,3.0,55.0
1598,48.0,240,120,3.0,58.0
1599,48.0,240,120,3.0,61.0
1600,59.0,0,960,1.0,51.0
1601,62.0,0,960,1.0,51.0
1602,55.0,120,960,1.0,51.0
1603,65.0,0,960,0.0,53.0
1604,64.0,120,120,0.0,54.0
1605,65.0,120,120,0.0,56.0
1606,67.0,120,120,0.0,58.0
1607,69.0,120,120,0.0,61.0
1608,71.0,120,120,0.0,63.0
1609,72.0,120,120,0.0,65.0
1610,74.0,120,120,0.0,68.0
1611,55.0,0,960,3.0,63.0
1612,76.0,120,120,0.0,70.0
1613,77.0,240,120,0.0,75.0
1614,79.0,120,120,0.0,77.0
1615,81.0,120,120,0.0,79.0
1616,83.0,120,120,0.0,82.0
1617,84.0,120,120,0.0,84.0
1618,86.0,120,120,0.0,86.0
1619,60.0,0,960,3.0,70.0
1620,88.0,120,240,0.0,89.0
1621,75.0,480,120,0.0,79.0
1622,76.0,120,120,0.0,78.0
1623,75.0,120,120,0.0,77.0
1624,48.0,240,2880,3.0,63.0
1625,76.0,120,120,0.0,76.0
1626,63.0,120,120,0.0,75.0
1627,64.0,120,120,0.0,74.0
1628,63.0,120,120,0.0,73.0
1629,64.0,120,120,0.0,72.0
1630,63.0,120,120,0.0,71.0
1631,64.0,120,120,0.0,70.0
1632,67.0,120,120,0.0,69.0
1633,58.0,0,1920,3.0,86.0
1634,48.0,0,960,3.0,80.0
1635,64.0,120,120,0.0,68.0
1636,47.0,120,240,3.0,67.0
1637,59.0,0,240,3.0,67.0
1638,47.0,240,240,3.0,64.0
1639,63.0,0,480,0.0,76.0
1640,47.0,240,240,3.0,61.0
1641,59.0,0,480,0.0,66.0
1642,47.0,240,240,3.0,58.0
1643,47.0,0,240,3.0,71.0
1644,47.0,240,240,3.0,66.0
1645,47.0,240,240,3.0,65.0
1646,58.0,0,960,2.0,69.0
1647,67.0,240,960,0.0,78.0
1648,47.0,0,0,3.0,63.0
1649,52.0,0,960,2.0,69.0
1650,47.0,240,0,3.0,62.0
1651,66.0,0,480,0.0,70.0
1652,47.0,0,0,3.0,61.0
1653,59.0,240,960,2.0,65.0
1654,47.0,240,240,3.0,60.0
1655,51.0,0,960,2.0,65.0
1656,63.0,240,480,0.0,67.0
1657,47.0,240,240,3.0,59.0
1658,47.0,240,0,3.0,57.0
1659,61.0,0,720,1.0,72.0
1660,63.0,0,120,1.0,66.0
1661,64.0,120,120,1.0,65.0
1662,70.0,0,960,0.0,65.0
1663,47.0,120,0,3.0,55.0
1664,55.0,0,960,2.0,61.0
1665,47.0,240,0,3.0,54.0
1666,63.0,0,480,1.0,64.0
1667,47.0,0,240,3.0,53.0
1668,47.0,240,240,3.0,52.0
1669,54.0,0,960,2.0,57.0
1670,71.0,0,960,0.0,60.0
1671,59.0,240,480,1.0,59.0
1672,59.0,240,0,3.0,68.0
1673,59.0,240,0,3.0,68.0
1674,64.0,0,960,2.0,68.0
1675,79.0,0,960,0.0,86.0
1676,70.0,240,960,2.0,68.0
1677,59.0,0,0,3.0,66.0
1678,59.0,240,0,3.0,65.0
1679,59.0,240,0,3.0,65.0
1680,78.0,240,480,0.0,73.0
1681,59.0,240,240,3.0,64.0
1682,75.0,0,480,0.0,71.0
1683,63.0,0,960,2.0,65.0
1684,71.0,0,960,2.0,65.0
1685,59.0,240,0,3.0,62.0
1686,59.0,240,0,3.0,61.0
1687,59.0,240,0,3.0,61.0
1688,73.0,0,720,1.0,67.0
1689,75.0,0,120,1.0,63.0
1690,76.0,120,120,1.0,62.0
1691,82.0,0,960,0.0,68.0
1692,67.0,0,960,2.0,62.0
1693,59.0,240,0,3.0,59.0
1694,75.0,0,480,1.0,62.0
1695,59.0,240,240,3.0,58.0
1696,66.0,120,960,2.0,60.0
1697,83.0,0,960,0.0,62.0
1698,71.0,0,480,1.0,59.0
1699,59.0,240,240,3.0,61.0
1700,59.0,240,0,3.0,82.0
1701,76.0,0,720,1.0,85.0
1702,59.0,0,0,3.0,82.0
1703,78.0,240,120,1.0,81.0
1704,79.0,120,120,1.0,80.0
1705,67.0,0,960,2.0,83.0
1706,82.0,0,960,0.0,89.0
1707,73.0,240,960,2.0,83.0
1708,64.0,0,960,2.0,83.0
1709,75.0,0,288,2.0,86.0
1710,66.0,0,288,2.0,86.0
1711,83.0,0,288,0.0,86.0
1712,63.0,120,288,2.0,86.0
1713,78.0,0,288,1.0,85.0
1714,75.0,0,288,1.0,86.0
1715,59.0,0,360,3.0,86.0
1716,71.0,0,288,0.0,86.0
1717,51.0,0,288,2.0,85.0
1718,54.0,0,288,2.0,85.0
1719,59.0,960,288,2.0,85.0
1720,63.0,0,288,1.0,86.0
1721,66.0,0,288,1.0,86.0
1722,47.0,0,360,3.0,85.0
1723,59.0,960,288,0.0,87.0
1724,47.0,0,288,2.0,84.0
1725,54.0,0,288,1.0,87.0
1726,51.0,0,288,1.0,87.0
1727,35.0,0,360,3.0,83.0
1728,83.0,960,240,0.0,47.0
1729,81.0,240,240,0.0,46.0
1730,80.0,240,240,0.0,45.0
1731,78.0,240,240,0.0,43.0
1732,76.0,240,960,0.0,40.0
1733,77.0,960,360,0.0,42.0
1734,78.0,480,360,0.0,44.0
1735,79.0,480,360,0.0,45.0
1736,80.0,480,360,0.0,48.0
1737,81.0,480,360,0.0,50.0
1738,83.0,480,360,0.0,53.0
1739,84.0,480,480,0.0,55.0
1740,85.0,480,960,0.0,61.0
1741,68.0,0,960,2.0,47.0
1742,65.0,480,960,3.0,47.0
1743,83.0,480,960,0.0,55.0
1744,81.0,480,435,0.0,49.0
1745,66.0,480,960,3.0,51.0
1746,69.0,0,960,2.0,46.0
1747,73.0,0,1920,2.0,47.0
1748,80.0,480,40,0.0,41.0
1749,81.0,40,40,0.0,40.0
1750,83.0,40,40,0.0,40.0
1751,81.0,40,135,0.0,45.0
1752,80.0,120,240,0.0,45.0
1753,78.0,240,240,0.0,44.0
1754,76.0,240,240,0.0,43.0
1755,75.0,240,960,0.0,40.0
1756,76.0,960,360,0.0,44.0
1757,77.0,480,360,0.0,46.0
1758,78.0,480,360,0.0,48.0
1759,79.0,480,360,0.0,49.0
1760,80.0,480,360,0.0,51.0
1761,81.0,480,360,0.0,53.0
1762,82.0,480,480,0.0,55.0
1763,83.0,480,960,0.0,59.0
1764,63.0,0,960,3.0,42.0
1765,66.0,0,960,2.0,42.0
1766,81.0,480,960,0.0,53.0
1767,80.0,480,480,0.0,47.0
1768,64.0,0,960,3.0,45.0
1769,68.0,480,960,2.0,45.0
1770,71.0,480,0,2.0,48.0
1771,69.0,240,240,2.0,46.0
1772,68.0,240,240,2.0,45.0
1773,66.0,240,240,2.0,43.0
1774,64.0,240,960,2.0,42.0
1775,59.0,960,240,0.0,49.0
1776,65.0,0,360,2.0,45.0
1777,57.0,240,240,0.0,47.0
1778,56.0,240,240,0.0,45.0
1779,66.0,0,360,2.0,47.0
1780,54.0,240,240,0.0,43.0
1781,67.0,240,360,2.0,50.0
1782,68.0,480,360,2.0,52.0
1783,53.0,0,960,0.0,41.0
1784,83.0,0,240,0.0,51.0
1785,69.0,480,360,2.0,54.0
1786,81.0,240,240,0.0,49.0
1787,80.0,240,240,0.0,48.0
1788,71.0,0,360,2.0,56.0
1789,78.0,240,240,0.0,46.0
1790,72.0,240,480,2.0,59.0
1791,77.0,0,960,0.0,45.0
1792,73.0,480,960,2.0,63.0
1793,61.0,0,1920,3.0,55.0
1794,77.0,480,1440,1.0,54.0
1795,86.0,0,1440,0.0,54.0
1796,71.0,480,960,2.0,56.0
1797,80.0,0,1440,1.0,54.0
1798,85.0,0,480,0.0,47.0
1799,78.0,0,480,1.0,47.0
1800,66.0,480,960,3.0,58.0
1801,81.0,0,480,1.0,47.0
1802,69.0,480,480,2.0,48.0
1803,69.0,480,240,2.0,45.0
1804,68.0,240,240,2.0,44.0
1805,66.0,240,240,2.0,43.0
1806,64.0,240,240,2.0,42.0
1807,63.0,240,960,2.0,40.0
1808,57.0,0,240,0.0,47.0
1809,64.0,960,360,2.0,42.0
1810,56.0,240,240,0.0,45.0
1811,54.0,0,240,0.0,42.0
1812,65.0,240,360,2.0,44.0
1813,52.0,240,240,0.0,40.0
1814,66.0,240,360,2.0,46.0
1815,68.0,480,360,2.0,48.0
1816,51.0,0,960,0.0,38.0
1817,81.0,480,240,0.0,49.0
1818,69.0,0,360,2.0,50.0
1819,80.0,240,240,0.0,48.0
1820,78.0,0,240,0.0,46.0
1821,76.0,240,240,0.0,45.0
1822,70.0,240,960,2.0,52.0
1823,75.0,240,960,0.0,43.0
1824,71.0,480,960,2.0,57.0
1825,59.0,0,1920,3.0,51.0
1826,69.0,480,960,2.0,50.0
1827,78.0,0,1440,1.0,52.0
1828,84.0,0,1440,0.0,52.0
1829,75.0,480,1440,1.0,52.0
1830,64.0,480,960,3.0,54.0
1831,68.0,0,480,2.0,43.0
1832,83.0,0,480,0.0,47.0
1833,80.0,0,480,1.0,47.0
1834,76.0,480,480,1.0,47.0
1835,56.0,0,0,3.0,40.0
1836,59.0,240,240,3.0,39.0
1837,71.0,0,240,0.0,40.0
1838,64.0,240,240,2.0,40.0
1839,59.0,240,240,3.0,40.0
1840,71.0,240,240,0.0,42.0
1841,73.0,0,80,0.0,43.0
1842,71.0,80,80,0.0,43.0
1843,70.0,80,80,0.0,44.0
1844,59.0,240,240,3.0,42.0
1845,57.0,0,480,3.0,41.0
1846,71.0,0,240,0.0,44.0
1847,63.0,0,960,2.0,41.0
1848,59.0,0,240,3.0,43.0
1849,57.0,80,480,3.0,43.0
1850,75.0,240,240,0.0,45.0
1851,76.0,240,240,0.0,46.0
1852,64.0,0,240,2.0,44.0
1853,56.0,0,480,3.0,44.0
1854,59.0,240,240,3.0,45.0
1855,71.0,0,240,0.0,48.0
1856,64.0,0,240,2.0,46.0
1857,56.0,240,480,3.0,46.0
1858,59.0,240,240,3.0,46.0
1859,71.0,240,240,0.0,49.0
1860,73.0,0,80,0.0,50.0
1861,71.0,80,80,0.0,51.0
1862,59.0,240,240,3.0,48.0
1863,57.0,0,480,3.0,47.0
1864,70.0,80,80,0.0,51.0
1865,71.0,80,240,0.0,51.0
1866,63.0,0,960,2.0,47.0
1867,75.0,240,240,0.0,52.0
1868,59.0,0,240,3.0,49.0
1869,57.0,0,480,3.0,49.0
1870,76.0,0,240,0.0,53.0
1871,59.0,240,240,3.0,51.0
1872,56.0,0,480,3.0,50.0
1873,64.0,240,480,2.0,50.0
1874,65.0,0,480,2.0,52.0
1875,56.0,240,480,3.0,52.0
1876,59.0,240,240,3.0,52.0
1877,77.0,0,480,0.0,55.0
1878,78.0,0,480,0.0,57.0
1879,57.0,240,480,3.0,53.0
1880,66.0,0,480,1.0,57.0
1881,61.0,240,240,2.0,54.0
1882,61.0,240,240,2.0,55.0
1883,80.0,0,480,0.0,59.0
1884,57.0,0,480,3.0,55.0
1885,68.0,240,480,1.0,59.0
1886,63.0,240,240,2.0,57.0
1887,81.0,0,480,0.0,61.0
1888,69.0,240,480,1.0,61.0
1889,59.0,0,0,3.0,58.0
1890,71.0,240,480,1.0,62.0
1891,83.0,0,480,0.0,62.0
1892,63.0,240,240,2.0,58.0
1893,59.0,240,240,2.0,62.0
1894,63.0,240,240,2.0,60.0
1895,69.0,240,960,1.0,65.0
1896,59.0,240,240,2.0,58.0
1897,81.0,0,960,0.0,65.0
1898,68.0,0,240,1.0,56.0
1899,80.0,240,240,0.0,56.0
1900,64.0,0,240,2.0,56.0
1901,52.0,0,1440,3.0,61.0
1902,59.0,240,240,2.0,54.0
1903,64.0,0,240,2.0,52.0
1904,71.0,0,240,1.0,54.0
1905,83.0,240,240,0.0,54.0
1906,56.0,0,480,3.0,53.0
1907,59.0,240,240,2.0,51.0
1908,83.0,240,240,0.0,52.0
1909,85.0,240,80,0.0,53.0
1910,83.0,80,80,0.0,53.0
1911,59.0,0,240,3.0,51.0
1912,82.0,80,80,0.0,53.0
1913,57.0,0,0,3.0,52.0
1914,83.0,80,240,0.0,54.0
1915,59.0,0,240,3.0,53.0
1916,66.0,0,960,2.0,50.0
1917,87.0,240,240,0.0,54.0
1918,75.0,0,960,1.0,52.0
1919,64.0,0,240,2.0,54.0
1920,88.0,240,240,0.0,55.0
1921,76.0,0,240,1.0,55.0
1922,56.0,0,0,3.0,55.0
1923,59.0,240,240,3.0,55.0
1924,83.0,240,240,0.0,57.0
1925,71.0,0,240,1.0,57.0
1926,64.0,0,240,2.0,55.0
1927,59.0,240,240,3.0,56.0
1928,83.0,0,240,0.0,58.0
1929,85.0,0,80,0.0,59.0
1930,83.0,80,80,0.0,59.0
1931,82.0,80,80,0.0,60.0
1932,57.0,0,480,3.0,57.0
1933,59.0,240,240,3.0,58.0
1934,83.0,80,240,0.0,60.0
1935,87.0,240,240,0.0,61.0
1936,66.0,0,960,2.0,57.0
1937,59.0,0,240,3.0,60.0
1938,75.0,240,960,1.0,58.0
1939,57.0,0,480,3.0,59.0
1940,88.0,0,240,0.0,61.0
1941,76.0,0,240,1.0,61.0
1942,59.0,240,240,3.0,61.0
1943,64.0,240,480,2.0,61.0
1944,56.0,0,480,3.0,61.0
1945,77.0,240,480,1.0,63.0
1946,65.0,0,480,2.0,62.0
1947,86.0,0,480,0.0,63.0
1948,56.0,0,480,3.0,62.0
1949,59.0,240,240,3.0,61.0
1950,57.0,0,0,3.0,66.0
1951,61.0,240,240,3.0,64.0
1952,85.0,0,480,0.0,65.0
1953,78.0,240,480,1.0,65.0
1954,68.0,0,480,1.0,66.0
1955,80.0,240,480,0.0,66.0
1956,66.0,0,960,2.0,64.0
1957,61.0,240,240,3.0,64.0
1958,54.0,0,240,2.0,67.0
1959,81.0,0,480,0.0,68.0
1960,69.0,240,480,1.0,68.0
1961,47.0,0,480,3.0,67.0
1962,59.0,240,240,2.0,67.0
1963,54.0,0,240,2.0,67.0
1964,59.0,240,240,2.0,67.0
1965,63.0,0,480,1.0,69.0
1966,75.0,240,480,0.0,69.0
1967,47.0,0,480,3.0,69.0
1968,56.0,0,240,2.0,71.0
1969,52.0,240,240,3.0,71.0
1970,76.0,0,240,0.0,71.0
1971,68.0,0,240,1.0,58.0
1972,64.0,480,240,1.0,58.0
1973,71.0,0,240,0.0,58.0
1974,47.0,240,80,3.0,67.0
1975,49.0,80,80,3.0,69.0
1976,63.0,480,480,1.0,68.0
1977,51.0,80,80,3.0,70.0
1978,72.0,0,1200,0.0,76.0
1979,52.0,80,240,3.0,77.0
1980,69.0,480,1207,1.0,76.0
1981,68.0,0,240,1.0,63.0
1982,71.0,480,240,0.0,63.0
1983,64.0,0,1440,1.0,63.0
1984,35.0,240,80,3.0,75.0
1985,37.0,80,80,3.0,77.0
1986,39.0,80,80,3.0,80.0
1987,63.0,480,480,1.0,70.0
1988,40.0,0,240,3.0,87.0
1989,73.0,0,1200,0.0,84.0
1990,69.0,480,1207,1.0,84.0
1991,71.0,0,240,0.0,68.0
1992,68.0,480,240,1.0,68.0
1993,64.0,80,1440,1.0,68.0
1994,47.0,240,80,3.0,79.0
1995,49.0,80,80,3.0,80.0
1996,51.0,80,80,3.0,82.0
1997,63.0,480,480,1.0,75.0
1998,72.0,0,1200,0.0,82.0
1999,52.0,80,240,3.0,86.0
2000,69.0,480,1207,1.0,82.0
2001,71.0,0,240,0.0,72.0
2002,68.0,480,240,1.0,72.0
2003,64.0,0,1440,1.0,72.0
2004,35.0,240,80,3.0,89.0
2005,37.0,80,80,3.0,92.0
2006,39.0,80,80,3.0,95.0
2007,63.0,480,480,1.0,79.0
2008,40.0,80,240,3.0,100.0
2009,69.0,0,1440,1.0,89.0
2010,73.0,480,1440,0.0,89.0
2011,71.0,0,240,0.0,60.0
2012,52.0,0,240,3.0,60.0
2013,59.0,0,240,2.0,60.0
2014,68.0,480,240,1.0,60.0
2015,69.0,0,240,1.0,63.0
2016,75.0,0,240,0.0,63.0
2017,59.0,0,240,2.0,64.0
2018,54.0,480,240,3.0,64.0
2019,64.0,0,1440,1.0,60.0
2020,76.0,0,240,0.0,66.0
2021,56.0,480,240,3.0,67.0
2022,59.0,0,240,2.0,67.0
2023,71.0,0,240,1.0,66.0
2024,80.0,0,720,0.0,76.0
2025,57.0,0,960,3.0,76.0
2026,61.0,0,960,2.0,76.0
2027,66.0,0,960,2.0,76.0
2028,78.0,720,240,0.0,65.0
2029,73.0,480,960,1.0,76.0
2030,69.0,0,960,1.0,76.0
2031,71.0,0,240,1.0,63.0
2032,68.0,0,240,2.0,66.0
2033,59.0,240,240,3.0,66.0
2034,76.0,0,240,0.0,63.0
2035,71.0,0,240,1.0,59.0
2036,66.0,0,240,2.0,63.0
2037,75.0,480,240,0.0,59.0
2038,59.0,0,240,3.0,63.0
2039,71.0,480,240,0.0,63.0
2040,64.0,0,240,2.0,64.0
2041,76.0,480,240,0.0,68.0
2042,56.0,0,240,3.0,65.0
2043,71.0,0,240,1.0,67.0
2044,54.0,480,240,3.0,70.0
2045,71.0,0,240,1.0,72.0
2046,63.0,0,240,2.0,69.0
2047,78.0,0,240,0.0,73.0
2048,71.0,0,240,1.0,76.0
2049,80.0,0,240,0.0,77.0
2050,52.0,480,240,3.0,75.0
2051,64.0,0,240,2.0,75.0
2052,68.0,0,720,2.0,83.0
2053,83.0,0,720,0.0,85.0
2054,66.0,720,240,2.0,76.0
2055,73.0,480,960,1.0,85.0
2056,81.0,0,240,0.0,76.0
2057,57.0,0,960,3.0,83.0
2058,71.0,240,240,1.0,75.0
2059,64.0,0,240,2.0,74.0
2060,80.0,0,240,0.0,75.0
2061,59.0,0,240,3.0,75.0
2062,78.0,480,240,0.0,73.0
2063,63.0,0,240,2.0,69.0
2064,71.0,0,240,1.0,73.0
2065,59.0,0,240,3.0,71.0
2066,83.0,0,240,0.0,84.0
2067,71.0,480,240,1.0,84.0
2068,83.0,0,240,0.0,89.0
2069,56.0,0,240,3.0,80.0
2070,59.0,0,240,2.0,80.0
2071,64.0,0,240,2.0,80.0
2072,76.0,480,240,1.0,89.0
2073,71.0,0,240,1.0,89.0
2074,63.0,0,240,2.0,84.0
2075,71.0,0,240,1.0,93.0
2076,83.0,480,240,0.0,93.0
2077,54.0,0,240,3.0,84.0
2078,78.0,0,240,1.0,93.0
2079,57.0,0,240,2.0,84.0
2080,75.0,0,240,1.0,93.0
2081,52.0,0,240,3.0,89.0
2082,64.0,0,240,2.0,89.0
2083,80.0,0,240,1.0,98.0
2084,76.0,480,240,1.0,98.0
2085,71.0,0,240,1.0,98.0
2086,83.0,0,240,0.0,98.0
2087,56.0,0,240,2.0,89.0
2088,84.0,0,480,0.0,103.0
2089,57.0,0,480,2.0,93.0
2090,54.0,0,480,2.0,93.0
2091,49.0,480,480,2.0,93.0
2092,45.0,0,480,3.0,93.0
2093,72.0,0,480,1.0,103.0
2094,85.0,480,240,0.0,89.0
2095,73.0,0,240,1.0,89.0
2096,47.0,1440,240,3.0,71.0
2097,57.0,0,240,1.0,47.0
2098,63.0,480,240,0.0,47.0
2099,56.0,240,240,1.0,28.0
2100,52.0,0,240,1.0,28.0
2101,64.0,240,0,0.0,29.0
2102,56.0,0,240,1.0,29.0
2103,52.0,240,0,1.0,29.0
2104,56.0,0,240,1.0,29.0
2105,40.0,1440,960,3.0,40.0
2106,64.0,0,240,0.0,29.0
2107,52.0,240,0,1.0,32.0
2108,61.0,0,0,1.0,32.0
2109,64.0,0,0,0.0,32.0
2110,64.0,240,0,0.0,32.0
2111,52.0,0,0,1.0,32.0
2112,61.0,0,0,1.0,32.0
2113,45.0,240,960,3.0,44.0
2114,52.0,240,0,1.0,35.0
2115,59.0,0,0,1.0,35.0
2116,64.0,0,0,0.0,35.0
2117,59.0,240,0,1.0,35.0
2118,44.0,240,960,3.0,47.0
2119,52.0,0,240,1.0,35.0
2120,64.0,0,240,0.0,35.0
2121,57.0,240,0,1.0,41.0
2122,52.0,0,0,1.0,41.0
2123,64.0,0,0,0.0,41.0
2124,64.0,0,240,0.0,41.0
2125,52.0,240,240,1.0,41.0
2126,49.0,240,960,3.0,53.0
2127,57.0,0,240,1.0,41.0
2128,56.0,0,240,1.0,40.0
2129,64.0,240,240,0.0,40.0
2130,52.0,240,0,1.0,40.0
2131,64.0,0,240,0.0,40.0
2132,56.0,0,240,1.0,40.0
2133,52.0,0,0,1.0,39.0
2134,56.0,0,240,1.0,39.0
2135,64.0,240,240,0.0,39.0
2136,47.0,240,960,3.0,50.0
2137,61.0,0,0,1.0,38.0
2138,64.0,240,0,0.0,38.0
2139,52.0,0,0,1.0,38.0
2140,52.0,240,0,1.0,38.0
2141,61.0,0,0,1.0,38.0
2142,45.0,240,960,3.0,47.0
2143,64.0,0,240,0.0,38.0
2144,64.0,240,0,0.0,37.0
2145,59.0,0,240,1.0,37.0
2146,52.0,0,0,1.0,37.0
2147,59.0,0,240,1.0,37.0
2148,59.0,240,240,1.0,36.0
2149,52.0,0,240,1.0,36.0
2150,44.0,240,960,3.0,44.0
2151,64.0,0,240,0.0,36.0
2152,64.0,0,240,0.0,40.0
2153,63.0,0,0,1.0,38.0
2154,52.0,240,0,1.0,38.0
2155,57.0,0,240,1.0,40.0
2156,64.0,0,0,0.0,35.0
2157,57.0,0,240,1.0,38.0
2158,63.0,0,240,1.0,35.0
2159,29.0,0,960,3.0,57.0
2160,52.0,240,240,1.0,35.0
2161,41.0,240,960,3.0,57.0
2162,57.0,0,240,1.0,35.0
2163,52.0,240,0,1.0,34.0
2164,56.0,0,0,1.0,34.0
2165,64.0,0,0,0.0,34.0
2166,64.0,240,0,0.0,34.0
2167,52.0,0,240,1.0,34.0
2168,56.0,0,240,1.0,34.0
2169,28.0,0,960,3.0,44.0
2170,40.0,240,960,3.0,44.0
2171,57.0,0,0,1.0,37.0
2172,52.0,0,240,1.0,39.0
2173,64.0,0,240,0.0,39.0
2174,63.0,240,0,1.0,37.0
2175,52.0,0,240,1.0,37.0
2176,64.0,0,0,0.0,35.0
2177,30.0,0,960,3.0,52.0
2178,42.0,240,960,3.0,52.0
2179,52.0,0,240,1.0,35.0
2180,63.0,0,240,1.0,35.0
2181,57.0,240,240,1.0,35.0
2182,52.0,0,240,1.0,32.0
2183,56.0,0,240,1.0,32.0
2184,64.0,240,240,0.0,32.0
2185,52.0,240,0,1.0,31.0
2186,56.0,240,240,1.0,31.0
2187,64.0,0,0,0.0,31.0
2188,56.0,0,240,1.0,31.0
2189,28.0,0,960,3.0,41.0
2190,40.0,240,960,3.0,41.0
2191,64.0,240,240,0.0,35.0
2192,63.0,0,0,1.0,32.0
2193,52.0,0,0,1.0,32.0
2194,57.0,240,0,1.0,32.0
2195,64.0,240,0,0.0,30.0
2196,63.0,0,240,1.0,30.0
2197,52.0,0,240,1.0,30.0
2198,57.0,0,240,1.0,30.0
2199,29.0,0,960,3.0,56.0
2200,41.0,240,960,3.0,56.0
2201,64.0,0,240,0.0,29.0
2202,56.0,0,240,1.0,29.0
2203,52.0,0,0,1.0,28.0
2204,64.0,0,0,0.0,28.0
2205,56.0,240,0,1.0,28.0
2206,28.0,240,960,3.0,37.0
2207,40.0,0,960,3.0,37.0
2208,52.0,0,240,1.0,28.0
2209,63.0,0,0,1.0,32.0
2210,52.0,0,0,1.0,32.0
2211,57.0,0,0,1.0,32.0
2212,64.0,240,0,0.0,32.0
2213,64.0,240,0,0.0,30.0
2214,52.0,0,0,1.0,30.0
2215,57.0,0,240,1.0,30.0
2216,63.0,0,240,1.0,30.0
2217,64.0,240,0,0.0,50.0
2218,30.0,240,960,3.0,48.0
2219,42.0,0,960,3.0,48.0
2220,59.0,240,240,3.0,29.0
2221,56.0,0,240,3.0,29.0
2222,40.0,0,0,3.0,29.0
2223,59.0,240,240,3.0,29.0
2224,56.0,0,0,3.0,29.0
2225,40.0,240,0,3.0,29.0
2226,59.0,0,240,3.0,29.0
2227,40.0,0,240,3.0,28.0
2228,59.0,240,240,3.0,28.0
2229,66.0,0,240,3.0,28.0
2230,51.0,0,0,3.0,28.0
2231,66.0,0,0,3.0,28.0
2232,40.0,0,0,3.0,28.0
2233,51.0,240,0,3.0,28.0
2234,59.0,0,0,3.0,28.0
2235,69.0,240,960,0.0,49.0
2236,52.0,0,240,3.0,27.0
2237,40.0,240,0,3.0,27.0
2238,59.0,0,240,3.0,27.0
2239,64.0,240,240,3.0,27.0
2240,59.0,0,0,3.0,27.0
2241,52.0,240,0,3.0,27.0
2242,64.0,0,0,3.0,27.0
2243,68.0,240,960,0.0,47.0
2244,40.0,0,240,3.0,27.0
2245,54.0,0,240,3.0,27.0
2246,45.0,0,240,3.0,27.0
2247,40.0,0,240,3.0,27.0
2248,63.0,0,240,3.0,27.0
2249,71.0,240,240,3.0,27.0
2250,54.0,0,240,3.0,26.0
2251,40.0,0,0,3.0,26.0
2252,71.0,240,240,3.0,26.0
2253,63.0,0,240,3.0,26.0
2254,45.0,240,0,3.0,26.0
2255,63.0,0,240,3.0,26.0
2256,71.0,0,240,3.0,26.0
2257,54.0,0,240,3.0,26.0
2258,75.0,240,960,0.0,46.0
2259,71.0,0,240,3.0,26.0
2260,40.0,0,240,3.0,26.0
2261,44.0,0,240,3.0,26.0
2262,52.0,240,240,3.0,26.0
2263,64.0,240,0,3.0,25.0
2264,64.0,240,0,3.0,25.0
2265,40.0,0,0,3.0,25.0
2266,44.0,0,0,3.0,25.0
2267,52.0,0,0,3.0,25.0
2268,71.0,0,0,3.0,25.0
2269,76.0,240,960,0.0,45.0
2270,78.0,0,240,3.0,25.0
2271,40.0,0,240,3.0,25.0
2272,51.0,0,240,3.0,25.0
2273,71.0,240,240,3.0,25.0
2274,51.0,0,240,3.0,24.0
2275,78.0,240,0,3.0,24.0
2276,71.0,0,0,3.0,24.0
2277,40.0,0,0,3.0,24.0
2278,81.0,240,960,0.0,43.0
2279,51.0,0,240,3.0,24.0
2280,71.0,0,0,3.0,23.0
2281,76.0,0,0,3.0,23.0
2282,52.0,0,0,3.0,23.0
2283,40.0,240,0,3.0,23.0
2284,40.0,240,0,3.0,23.0
2285,52.0,0,0,3.0,23.0
2286,76.0,0,0,3.0,23.0
2287,71.0,0,0,3.0,23.0
2288,80.0,240,960,0.0,42.0
2289,45.0,0,240,3.0,23.0
2290,40.0,0,240,3.0,23.0
2291,75.0,0,240,3.0,23.0
2292,83.0,240,240,3.0,23.0
2293,54.0,0,0,3.0,23.0
2294,83.0,0,0,3.0,22.0
2295,45.0,0,0,3.0,22.0
2296,40.0,0,0,3.0,22.0
2297,54.0,240,0,3.0,22.0
2298,75.0,0,0,3.0,22.0
2299,87.0,240,960,0.0,41.0
2300,40.0,0,240,3.0,22.0
2301,52.0,0,240,3.0,22.0
2302,44.0,0,240,3.0,22.0
2303,83.0,240,0,3.0,22.0
2304,76.0,240,240,3.0,22.0
2305,76.0,0,0,3.0,21.0
2306,83.0,240,0,3.0,21.0
2307,40.0,0,240,3.0,22.0
2308,52.0,0,240,3.0,22.0
2309,44.0,0,240,3.0,22.0
2310,44.0,0,240,3.0,21.0
2311,52.0,0,240,3.0,21.0
2312,40.0,0,240,3.0,21.0
2313,88.0,240,960,0.0,39.0
2314,40.0,0,240,3.0,21.0
2315,54.0,0,240,3.0,21.0
2316,45.0,0,0,3.0,21.0
2317,75.0,0,0,3.0,21.0
2318,83.0,0,0,3.0,21.0
2319,54.0,0,240,3.0,21.0
2320,40.0,240,240,3.0,21.0
2321,75.0,0,0,3.0,20.0
2322,83.0,0,0,3.0,20.0
2323,40.0,0,240,3.0,20.0
2324,45.0,240,240,3.0,20.0
2325,54.0,0,240,3.0,20.0
2326,87.0,240,960,0.0,38.0
2327,76.0,0,240,3.0,20.0
2328,83.0,0,0,3.0,20.0
2329,44.0,240,0,3.0,20.0
2330,52.0,0,0,3.0,20.0
2331,40.0,0,0,3.0,20.0
2332,83.0,0,0,3.0,19.0
2333,44.0,0,0,3.0,19.0
2334,76.0,0,0,3.0,19.0
2335,40.0,240,0,3.0,19.0
2336,52.0,0,0,3.0,19.0
2337,88.0,240,960,0.0,37.0
2338,83.0,0,240,3.0,19.0
2339,54.0,0,0,3.0,19.0
2340,45.0,240,0,3.0,19.0
2341,40.0,0,0,3.0,19.0
2342,75.0,0,0,3.0,19.0
2343,83.0,240,0,3.0,18.0
2344,40.0,0,0,3.0,18.0
2345,54.0,0,0,3.0,18.0
2346,45.0,0,0,3.0,18.0
2347,75.0,0,0,3.0,18.0
2348,87.0,240,960,0.0,35.0
2349,44.0,0,240,3.0,18.0
2350,52.0,240,240,3.0,18.0
2351,47.0,0,240,3.0,18.0
2352,40.0,0,240,3.0,18.0
2353,83.0,0,240,3.0,18.0
2354,76.0,0,240,3.0,18.0
2355,80.0,0,0,3.0,18.0
2356,76.0,0,0,3.0,18.0
2357,80.0,0,0,3.0,18.0
2358,44.0,240,0,3.0,18.0
2359,47.0,0,0,3.0,18.0
2360,52.0,0,0,3.0,18.0
2361,40.0,0,0,3.0,18.0
2362,83.0,0,0,3.0,18.0
2363,88.0,240,960,0.0,34.0
2364,40.0,240,240,3.0,17.0
2365,47.0,0,240,3.0,17.0
2366,52.0,0,240,3.0,17.0
2367,44.0,0,240,3.0,17.0
2368,80.0,0,240,3.0,17.0
2369,83.0,0,240,3.0,17.0
2370,76.0,0,240,3.0,17.0
2371,76.0,240,240,3.0,17.0
2372,44.0,0,0,3.0,17.0
2373,83.0,0,0,3.0,17.0
2374,40.0,0,0,3.0,17.0
2375,52.0,240,0,3.0,17.0
2376,80.0,0,0,3.0,17.0
2377,47.0,0,0,3.0,17.0
2378,88.0,240,0,0.0,31.0
2379,76.0,0,240,3.0,17.0
2380,44.0,0,480,3.0,16.0
2381,52.0,0,480,3.0,16.0
2382,40.0,0,480,3.0,16.0
2383,83.0,0,480,3.0,16.0
2384,80.0,0,480,3.0,16.0
2385,76.0,0,480,3.0,16.0
2386,47.0,480,480,3.0,16.0
2387,64.0,2880,720,0.0,43.0
2388,52.0,0,720,2.0,38.0
2389,51.0,720,240,2.0,41.0
2390,63.0,0,240,0.0,45.0
2391,52.0,480,0,2.0,49.0
2392,55.0,0,1440,1.0,43.0
2393,59.0,0,1440,1.0,43.0
2394,64.0,0,480,0.0,48.0
2395,64.0,0,720,0.0,52.0
2396,63.0,720,240,0.0,59.0
2397,51.0,0,240,2.0,56.0
2398,52.0,0,480,2.0,58.0
2399,64.0,240,480,0.0,61.0
2400,48.0,0,1440,3.0,49.0
2401,60.0,0,1440,1.0,52.0
2402,55.0,0,1440,1.0,52.0
2403,58.0,0,1440,1.0,79.0
2404,61.0,0,1440,1.0,79.0
2405,46.0,0,1440,3.0,79.0
2406,67.0,0,1920,0.0,79.0
2407,55.0,480,1920,2.0,79.0
2408,54.0,0,240,2.0,46.0
2409,66.0,480,240,0.0,47.0
2410,64.0,240,240,0.0,45.0
2411,52.0,0,240,2.0,43.0
2412,63.0,240,240,0.0,43.0
2413,51.0,0,240,2.0,40.0
2414,45.0,0,1440,3.0,48.0
2415,60.0,1440,1440,1.0,47.0
2416,57.0,0,1440,1.0,47.0
2417,54.0,0,240,2.0,37.0
2418,66.0,240,240,0.0,41.0
2419,64.0,0,480,0.0,38.0
2420,43.0,0,480,3.0,34.0
2421,59.0,0,0,1.0,42.0
2422,52.0,0,480,2.0,34.0
2423,66.0,480,480,0.0,42.0
2424,51.0,0,480,2.0,38.0
2425,42.0,0,480,3.0,38.0
2426,59.0,0,0,1.0,47.0
2427,40.0,0,480,3.0,43.0
2428,67.0,480,480,0.0,47.0
2429,52.0,0,480,2.0,43.0
2430,71.0,0,480,0.0,51.0
2431,39.0,0,960,3.0,47.0
2432,47.0,480,0,2.0,56.0
2433,66.0,0,960,1.0,51.0
2434,69.0,480,480,0.0,56.0
2435,64.0,0,480,1.0,60.0
2436,67.0,0,480,0.0,60.0
2437,40.0,0,480,3.0,56.0
2438,47.0,0,960,2.0,60.0
2439,66.0,0,960,0.0,65.0
2440,63.0,480,960,1.0,65.0
2441,69.0,0,240,0.0,51.0
2442,46.0,960,480,2.0,53.0
2443,64.0,0,480,1.0,50.0
2444,67.0,240,240,0.0,45.0
2445,63.0,0,360,1.0,41.0
2446,35.0,0,1800,3.0,60.0
2447,47.0,240,360,2.0,45.0
2448,66.0,0,360,0.0,39.0
2449,71.0,960,480,0.0,38.0
2450,76.0,480,720,0.0,40.0
2451,64.0,0,720,2.0,38.0
2452,63.0,0,240,2.0,42.0
2453,75.0,720,240,0.0,44.0
2454,64.0,240,480,2.0,44.0
2455,76.0,0,0,0.0,52.0
2456,71.0,0,1440,1.0,40.0
2457,67.0,480,0,1.0,52.0
2458,64.0,0,720,2.0,49.0
2459,75.0,720,240,0.0,60.0
2460,63.0,0,240,2.0,56.0
2461,64.0,240,480,2.0,58.0
2462,72.0,0,1440,1.0,52.0
2463,60.0,0,1440,3.0,49.0
2464,76.0,0,480,0.0,62.0
2465,73.0,0,1440,1.0,79.0
2466,70.0,0,1440,1.0,79.0
2467,58.0,0,1440,3.0,79.0
2468,79.0,0,1920,0.0,79.0
2469,67.0,480,1920,2.0,79.0
2470,78.0,0,240,0.0,48.0
2471,66.0,480,240,2.0,47.0
2472,64.0,0,240,2.0,43.0
2473,76.0,240,240,0.0,46.0
2474,75.0,240,240,0.0,44.0
2475,63.0,0,240,2.0,40.0
2476,57.0,0,1440,3.0,48.0
2477,78.0,240,240,0.0,42.0
2478,69.0,1440,1440,1.0,46.0
2479,66.0,0,240,2.0,37.0
2480,72.0,0,1440,1.0,46.0
2481,55.0,0,480,3.0,35.0
2482,71.0,0,480,1.0,40.0
2483,64.0,240,480,2.0,35.0
2484,76.0,0,480,0.0,40.0
2485,63.0,0,480,2.0,39.0
2486,54.0,0,480,3.0,39.0
2487,78.0,480,480,0.0,44.0
2488,71.0,0,0,1.0,47.0
2489,79.0,0,480,0.0,47.0
2490,52.0,0,480,3.0,43.0
2491,64.0,480,480,2.0,43.0
2492,83.0,480,480,0.0,51.0
2493,81.0,480,480,0.0,55.0
2494,51.0,0,960,3.0,48.0
2495,78.0,0,960,1.0,51.0
2496,59.0,0,0,2.0,56.0
2497,76.0,0,480,1.0,58.0
2498,52.0,0,480,3.0,56.0
2499,59.0,480,0,2.0,60.0
2500,79.0,0,0,0.0,62.0
2501,76.0,0,960,1.0,62.0
2502,78.0,0,480,0.0,52.0
2503,75.0,0,480,1.0,52.0
2504,57.0,960,480,2.0,49.0
2505,47.0,0,1800,3.0,60.0
2506,55.0,480,360,2.0,43.0
2507,76.0,0,360,0.0,47.0
2508,64.0,0,720,0.0,42.0
2509,63.0,720,240,0.0,44.0
2510,55.0,0,1440,1.0,42.0
2511,64.0,240,480,0.0,45.0
2512,52.0,0,1440,2.0,40.0
2513,60.0,1440,1440,1.0,42.0
2514,48.0,0,1440,3.0,40.0
2515,67.0,0,1440,0.0,54.0
2516,43.0,480,1440,3.0,52.0
2517,62.0,0,0,1.0,51.0
2518,59.0,0,1440,1.0,54.0
2519,55.0,0,1440,2.0,52.0
2520,65.0,1440,720,0.0,51.0
2521,64.0,720,240,0.0,53.0
2522,65.0,240,480,0.0,54.0
2523,53.0,0,1440,2.0,48.0
2524,57.0,0,1440,1.0,51.0
2525,50.0,0,1440,3.0,48.0
2526,67.0,480,1440,0.0,65.0
2527,55.0,0,1440,2.0,58.0
2528,62.0,0,1440,1.0,65.0
2529,47.0,0,1440,3.0,58.0
2530,64.0,1440,720,0.0,42.0
2531,63.0,720,240,0.0,46.0
2532,52.0,0,1440,2.0,40.0
2533,64.0,240,480,0.0,47.0
2534,48.0,0,1440,3.0,40.0
2535,60.0,0,1440,1.0,42.0
2536,55.0,0,1440,1.0,42.0
2537,67.0,0,960,0.0,49.0
2538,50.0,480,0,2.0,57.0
2539,59.0,0,1440,1.0,49.0
2540,62.0,0,0,1.0,59.0
2541,43.0,0,1440,3.0,49.0
2542,67.0,0,0,0.0,59.0
2543,66.0,960,480,0.0,51.0
2544,57.0,0,1440,1.0,59.0
2545,38.0,0,1440,3.0,57.0
2546,62.0,0,0,1.0,47.0
2547,31.0,0,480,3.0,39.0
2548,67.0,480,480,0.0,46.0
2549,43.0,0,480,2.0,39.0
2550,59.0,0,480,1.0,47.0
2551,67.0,960,480,0.0,38.0
2552,76.0,480,720,0.0,40.0
2553,64.0,0,720,2.0,40.0
2554,75.0,720,240,0.0,43.0
2555,63.0,0,240,2.0,43.0
2556,76.0,240,480,0.0,44.0
2557,67.0,0,1440,1.0,40.0
2558,72.0,0,1440,1.0,40.0
2559,60.0,0,1440,3.0,40.0
2560,64.0,0,480,2.0,43.0
2561,55.0,0,1440,3.0,53.0
2562,79.0,0,1440,0.0,54.0
2563,67.0,0,1440,2.0,53.0
2564,74.0,0,1440,1.0,54.0
2565,71.0,480,1440,1.0,54.0
2566,65.0,0,720,2.0,51.0
2567,77.0,0,720,0.0,52.0
2568,76.0,720,240,0.0,55.0
2569,64.0,0,240,2.0,53.0
2570,62.0,1440,1440,3.0,51.0
2571,77.0,240,480,0.0,56.0
2572,69.0,0,1440,1.0,52.0
2573,74.0,0,1440,1.0,52.0
2574,65.0,0,480,2.0,54.0
2575,74.0,0,1440,1.0,66.0
2576,59.0,0,1440,3.0,63.0
2577,79.0,480,1440,0.0,66.0
2578,67.0,0,1440,2.0,63.0
2579,76.0,0,720,0.0,43.0
2580,64.0,0,720,2.0,38.0
2581,75.0,720,240,0.0,46.0
2582,63.0,0,240,2.0,42.0
2583,60.0,0,1440,3.0,38.0
2584,76.0,0,480,0.0,48.0
2585,64.0,240,480,2.0,44.0
2586,72.0,0,1440,1.0,43.0
2587,67.0,1440,1440,1.0,43.0
2588,76.0,0,720,0.0,50.0
2589,64.0,0,720,1.0,50.0
2590,76.0,960,360,0.0,58.0
2591,64.0,0,360,1.0,58.0
2592,58.0,480,1440,2.0,47.0
2593,48.0,0,1440,3.0,47.0
2594,64.0,0,960,1.0,63.0
2595,76.0,0,960,0.0,63.0
2596,75.0,0,480,0.0,52.0
2597,63.0,960,480,1.0,52.0
2598,78.0,0,1440,0.0,42.0
2599,59.0,480,2880,2.0,56.0
2600,66.0,480,1440,1.0,47.0
2601,47.0,0,2880,3.0,56.0
2602,71.0,2400,480,0.0,42.0
2603,76.0,0,720,0.0,42.0
2604,64.0,0,720,2.0,41.0
2605,75.0,720,240,0.0,45.0
2606,63.0,0,240,2.0,44.0
2607,64.0,480,0,2.0,52.0
2608,71.0,0,1440,1.0,42.0
2609,67.0,0,0,1.0,54.0
2610,76.0,0,0,0.0,54.0
2611,75.0,0,240,0.0,62.0
2612,63.0,720,240,2.0,60.0
2613,60.0,0,1440,3.0,52.0
2614,72.0,0,1440,1.0,54.0
2615,64.0,240,480,2.0,62.0
2616,76.0,0,480,0.0,65.0
2617,73.0,0,1440,1.0,79.0
2618,70.0,0,1440,1.0,79.0
2619,58.0,480,1440,3.0,79.0
2620,67.0,0,1920,2.0,79.0
2621,79.0,0,1920,0.0,79.0
2622,66.0,480,240,2.0,48.0
2623,78.0,0,240,0.0,47.0
2624,64.0,0,240,2.0,46.0
2625,76.0,240,240,0.0,45.0
2626,75.0,240,240,0.0,43.0
2627,63.0,0,240,2.0,44.0
2628,66.0,0,240,2.0,42.0
2629,72.0,1440,1440,1.0,51.0
2630,57.0,0,1440,3.0,52.0
2631,78.0,240,240,0.0,41.0
2632,69.0,0,1440,1.0,51.0
2633,55.0,0,480,3.0,40.0
2634,76.0,240,480,0.0,38.0
2635,71.0,480,0,1.0,41.0
2636,64.0,0,480,2.0,40.0
2637,78.0,0,480,0.0,41.0
2638,63.0,0,480,2.0,43.0
2639,71.0,480,0,1.0,45.0
2640,54.0,0,480,3.0,43.0
2641,52.0,0,480,3.0,46.0
2642,79.0,0,480,0.0,45.0
2643,64.0,0,480,2.0,46.0
2644,83.0,0,480,0.0,48.0
2645,51.0,0,960,3.0,49.0
2646,81.0,480,480,0.0,52.0
2647,78.0,0,960,1.0,48.0
2648,59.0,480,960,2.0,49.0
2649,52.0,480,480,3.0,55.0
2650,59.0,0,480,2.0,55.0
2651,79.0,0,480,0.0,55.0
2652,76.0,0,480,1.0,55.0
2653,75.0,0,960,1.0,59.0
2654,59.0,0,960,2.0,58.0
2655,78.0,480,960,0.0,59.0
2656,81.0,0,240,0.0,50.0
2657,79.0,240,240,0.0,49.0
2658,58.0,0,480,2.0,48.0
2659,76.0,960,480,1.0,50.0
2660,75.0,240,360,1.0,45.0
2661,47.0,0,1800,3.0,58.0
2662,59.0,0,360,2.0,41.0
2663,78.0,0,360,0.0,44.0
2664,59.0,960,480,0.0,37.0
2665,64.0,0,720,0.0,39.0
2666,52.0,0,720,2.0,38.0
2667,51.0,0,240,2.0,41.0
2668,63.0,720,240,0.0,42.0
2669,52.0,240,480,2.0,43.0
2670,64.0,0,0,0.0,48.0
2671,55.0,480,1440,1.0,39.0
2672,59.0,0,1440,1.0,39.0
2673,52.0,0,720,2.0,46.0
2674,51.0,720,240,2.0,51.0
2675,63.0,0,240,0.0,54.0
2676,64.0,240,480,0.0,56.0
2677,55.0,0,1440,1.0,48.0
2678,60.0,0,1440,1.0,48.0
2679,48.0,480,1440,3.0,46.0
2680,52.0,0,480,2.0,52.0
2681,60.0,0,1920,2.0,62.0
2682,72.0,0,1920,0.0,68.0
2683,59.0,1920,240,2.0,46.0
2684,71.0,0,240,0.0,53.0
2685,57.0,0,240,2.0,43.0
2686,69.0,240,240,0.0,51.0
2687,56.0,240,240,2.0,41.0
2688,68.0,0,240,0.0,50.0
2689,65.0,480,2880,1.0,68.0
2690,59.0,240,240,2.0,39.0
2691,53.0,0,2880,2.0,62.0
2692,62.0,0,2880,1.0,68.0
2693,50.0,0,2880,3.0,62.0
2694,71.0,0,240,0.0,48.0
2695,57.0,240,240,2.0,36.0
2696,52.0,0,240,2.0,36.0
2697,64.0,0,240,1.0,46.0
2698,60.0,0,240,1.0,46.0
2699,48.0,0,240,3.0,36.0
2700,69.0,0,240,0.0,46.0
2701,71.0,0,240,0.0,60.0
2702,69.0,240,240,0.0,55.0
2703,68.0,240,240,0.0,52.0
2704,59.0,0,960,2.0,55.0
2705,62.0,0,960,1.0,60.0
2706,50.0,480,960,3.0,55.0
2707,65.0,0,960,1.0,60.0
2708,71.0,240,240,0.0,50.0
2709,53.0,0,960,2.0,55.0
2710,48.0,0,240,3.0,44.0
2711,57.0,0,240,2.0,44.0
2712,60.0,0,240,1.0,48.0
2713,64.0,0,240,1.0,48.0
2714,69.0,0,240,0.0,48.0
2715,52.0,240,240,2.0,44.0
2716,71.0,0,240,0.0,63.0
2717,69.0,240,240,0.0,58.0
2718,68.0,240,240,0.0,56.0
2719,59.0,480,960,2.0,57.0
2720,65.0,0,960,1.0,63.0
2721,62.0,0,960,1.0,63.0
2722,53.0,0,960,2.0,57.0
2723,50.0,0,960,3.0,57.0
2724,71.0,240,240,0.0,54.0
2725,52.0,0,240,2.0,48.0
2726,64.0,0,240,1.0,51.0
2727,69.0,0,240,0.0,51.0
2728,57.0,0,240,2.0,48.0
2729,48.0,0,240,3.0,48.0
2730,60.0,240,240,1.0,51.0
2731,69.0,480,240,0.0,54.0
2732,68.0,240,240,0.0,57.0
2733,69.0,240,240,0.0,59.0
2734,71.0,240,240,0.0,61.0
2735,72.0,240,240,0.0,63.0
2736,74.0,240,240,0.0,65.0
2737,76.0,240,240,0.0,67.0
2738,75.0,240,240,0.0,69.0
2739,57.0,0,240,3.0,57.0
2740,76.0,240,240,0.0,72.0
2741,64.0,0,240,2.0,57.0
2742,72.0,240,240,0.0,69.0
2743,59.0,0,240,3.0,52.0
2744,71.0,240,240,0.0,59.0
2745,64.0,0,240,2.0,52.0
2746,71.0,480,240,0.0,52.0
2747,70.0,240,240,0.0,50.0
2748,71.0,240,240,0.0,48.0
2749,67.0,240,240,0.0,46.0
2750,47.0,0,240,2.0,45.0
2751,63.0,0,240,1.0,45.0
2752,66.0,240,240,0.0,45.0
2753,35.0,0,240,3.0,45.0
2754,71.0,480,240,0.0,41.0
2755,70.0,240,240,0.0,39.0
2756,71.0,240,240,0.0,38.0
2757,66.0,240,240,0.0,36.0
2758,56.0,960,480,1.0,37.0
2759,47.0,0,480,2.0,37.0
2760,64.0,0,1440,0.0,34.0
2761,57.0,0,480,1.0,43.0
2762,48.0,480,0,2.0,42.0
2763,57.0,0,240,1.0,42.0
2764,59.0,240,240,1.0,41.0
2765,47.0,0,240,2.0,42.0
2766,45.0,0,240,2.0,41.0
2767,60.0,240,240,0.0,40.0
2768,40.0,240,2880,3.0,34.0
2769,63.0,0,1440,0.0,43.0
2770,48.0,0,240,2.0,41.0
2771,57.0,240,240,1.0,39.0
2772,40.0,0,480,3.0,40.0
2773,56.0,0,480,1.0,39.0
2774,64.0,0,480,0.0,39.0
2775,64.0,0,480,1.0,48.0
2776,52.0,240,1440,2.0,40.0
2777,59.0,0,480,2.0,47.0
2778,68.0,960,480,0.0,48.0
2779,60.0,480,480,2.0,53.0
2780,69.0,0,0,0.0,53.0
2781,60.0,480,240,2.0,52.0
2782,71.0,240,240,0.0,52.0
2783,59.0,0,240,2.0,51.0
2784,72.0,240,240,0.0,51.0
2785,57.0,0,240,2.0,50.0
2786,60.0,0,240,2.0,49.0
2787,69.0,240,240,0.0,49.0
2788,63.0,0,1440,1.0,55.0
2789,52.0,0,0,3.0,48.0
2790,59.0,0,240,2.0,48.0
2791,68.0,0,240,0.0,48.0
2792,64.0,240,240,1.0,48.0
2793,68.0,960,480,1.0,59.0
2794,76.0,0,480,0.0,59.0
2795,59.0,0,480,2.0,57.0
2796,69.0,0,240,1.0,71.0
2797,60.0,480,0,2.0,61.0
2798,69.0,0,240,1.0,63.0
2799,71.0,240,240,1.0,62.0
2800,59.0,0,240,2.0,60.0
2801,57.0,0,240,2.0,59.0
2802,72.0,240,240,1.0,61.0
2803,75.0,0,1440,0.0,71.0
2804,60.0,0,240,2.0,58.0
2805,69.0,240,240,1.0,59.0
2806,52.0,480,1440,3.0,66.0
2807,59.0,0,240,2.0,57.0
2808,68.0,0,240,1.0,58.0
2809,76.0,240,240,0.0,58.0
2810,52.0,0,240,3.0,57.0
2811,69.0,0,240,1.0,76.0
2812,60.0,0,240,2.0,72.0
2813,71.0,240,240,1.0,71.0
2814,59.0,0,240,2.0,65.0
2815,57.0,0,240,2.0,63.0
2816,72.0,240,240,1.0,69.0
2817,75.0,0,960,0.0,76.0
2818,52.0,480,960,3.0,72.0
2819,69.0,0,240,1.0,68.0
2820,60.0,240,240,2.0,62.0
2821,76.0,0,240,0.0,66.0
2822,52.0,0,240,3.0,61.0
2823,68.0,240,240,1.0,66.0
2824,59.0,0,480,2.0,61.0
2825,60.0,0,240,2.0,77.0
2826,69.0,480,240,1.0,81.0
2827,71.0,240,240,1.0,76.0
2828,59.0,0,240,2.0,73.0
2829,57.0,240,240,2.0,70.0
2830,72.0,0,240,1.0,74.0
2831,60.0,240,240,2.0,68.0
2832,75.0,0,960,0.0,81.0
2833,52.0,0,960,3.0,77.0
2834,69.0,0,240,1.0,71.0
2835,76.0,0,240,0.0,53.0
2836,59.0,0,240,2.0,55.0
2837,68.0,240,240,1.0,53.0
2838,52.0,0,240,3.0,55.0
2839,52.0,0,240,3.0,45.0
2840,80.0,0,240,0.0,45.0
2841,59.0,0,240,2.0,45.0
2842,76.0,1440,240,1.0,45.0
2843,52.0,0,240,2.0,36.0
2844,80.0,0,240,1.0,36.0
2845,76.0,0,240,1.0,36.0
2846,88.0,1440,240,0.0,36.0
2847,40.0,0,240,3.0,36.0
2848,47.0,0,240,2.0,36.0
2849,88.0,1440,1440,0.0,47.0
2850,64.0,1200,1680,0.0,55.0
2851,55.0,240,1440,1.0,55.0
2852,48.0,0,1440,2.0,51.0
2853,62.0,1440,480,0.0,52.0
2854,65.0,480,480,0.0,51.0
2855,47.0,0,960,2.0,49.0
2856,36.0,0,2880,3.0,51.0
2857,59.0,480,480,0.0,50.0
2858,53.0,0,1440,1.0,52.0
2859,50.0,0,480,2.0,48.0
2860,36.0,480,480,3.0,47.0
2861,60.0,0,480,0.0,49.0
2862,52.0,0,480,1.0,49.0
2863,48.0,0,480,2.0,47.0
2864,64.0,480,480,0.0,48.0
2865,67.0,480,960,0.0,47.0
2866,55.0,480,480,1.0,46.0
2867,66.0,480,480,0.0,45.0
2868,57.0,0,480,1.0,45.0
2869,59.0,480,480,1.0,44.0
2870,65.0,0,480,0.0,44.0
2871,55.0,0,1440,1.0,43.0
2872,60.0,0,1440,1.0,43.0
2873,64.0,0,1440,0.0,43.0
2874,48.0,480,1440,2.0,42.0
2875,62.0,0,480,0.0,40.0
2876,65.0,480,480,0.0,39.0
2877,47.0,0,960,2.0,40.0
2878,36.0,0,2880,3.0,42.0
2879,59.0,480,480,0.0,37.0
2880,53.0,1440,1440,1.0,40.0
2881,50.0,0,480,2.0,39.0
2882,60.0,480,360,0.0,40.0
2883,52.0,0,360,1.0,40.0
2884,48.0,0,480,2.0,38.0
2885,36.0,0,480,3.0,38.0
2886,64.0,480,360,0.0,43.0
2887,67.0,480,360,0.0,46.0
2888,72.0,480,360,0.0,49.0
2889,74.0,480,360,0.0,52.0
2890,75.0,480,360,0.0,55.0
2891,76.0,480,960,0.0,59.0
2892,60.0,0,960,3.0,55.0
2893,59.0,0,480,3.0,53.0
2894,74.0,480,480,1.0,57.0
2895,79.0,480,1440,0.0,58.0
2896,57.0,480,960,3.0,52.0
2897,78.0,480,480,0.0,55.0
2898,72.0,0,960,1.0,56.0
2899,55.0,480,480,3.0,50.0
2900,71.0,0,480,1.0,54.0
2901,79.0,0,480,0.0,54.0
2902,69.0,0,960,0.0,53.0
2903,54.0,480,960,3.0,49.0
2904,67.0,0,480,1.0,51.0
2905,52.0,480,480,3.0,47.0
2906,72.0,480,1440,0.0,52.0
2907,66.0,0,960,1.0,50.0
2908,51.0,480,960,3.0,46.0
2909,52.0,480,480,3.0,43.0
2910,67.0,0,480,1.0,48.0
2911,71.0,480,1440,0.0,49.0
2912,68.0,480,480,0.0,46.0
2913,48.0,480,1440,3.0,42.0
2914,64.0,0,1440,1.0,47.0
2915,69.0,480,960,0.0,45.0
2916,64.0,480,480,0.0,43.0
2917,66.0,480,480,0.0,42.0
2918,50.0,480,1440,3.0,39.0
2919,60.0,0,1440,1.0,44.0
2920,59.0,0,480,1.0,41.0
2921,67.0,480,480,0.0,41.0
2922,43.0,0,480,3.0,36.0
2923,57.0,480,480,1.0,40.0
2924,55.0,480,480,1.0,39.0
2925,53.0,480,480,2.0,49.0
2926,52.0,480,480,2.0,49.0
2927,50.0,480,480,2.0,48.0
2928,48.0,480,1440,2.0,51.0
2929,55.0,0,1440,1.0,55.0
2930,64.0,0,1440,0.0,55.0
2931,62.0,0,480,0.0,52.0
2932,65.0,480,480,0.0,51.0
2933,47.0,0,960,2.0,49.0
2934,50.0,0,480,2.0,48.0
2935,53.0,1440,1440,1.0,52.0
2936,59.0,480,480,0.0,50.0
2937,36.0,0,0,3.0,47.0
2938,48.0,480,480,2.0,47.0
2939,52.0,0,480,1.0,49.0
2940,60.0,0,480,0.0,49.0
2941,64.0,480,480,0.0,48.0
2942,55.0,480,480,1.0,46.0
2943,67.0,480,960,0.0,47.0
2944,66.0,0,480,0.0,45.0
2945,57.0,480,480,1.0,45.0
2946,59.0,480,480,1.0,44.0
2947,65.0,0,480,0.0,44.0
2948,64.0,0,1440,0.0,43.0
2949,60.0,480,1440,1.0,43.0
2950,55.0,0,1440,1.0,43.0
2951,48.0,0,1440,2.0,42.0
2952,62.0,1440,480,0.0,40.0
2953,65.0,480,480,0.0,39.0
2954,47.0,0,960,2.0,40.0
2955,50.0,480,480,2.0,39.0
2956,59.0,0,480,0.0,37.0
2957,36.0,0,2880,3.0,42.0
2958,53.0,0,1440,1.0,40.0
2959,60.0,480,360,0.0,40.0
2960,52.0,0,360,1.0,40.0
2961,36.0,0,480,3.0,38.0
2962,48.0,0,480,2.0,38.0
2963,64.0,480,360,0.0,43.0
2964,67.0,480,360,0.0,46.0
2965,72.0,480,360,0.0,49.0
2966,74.0,480,360,0.0,52.0
2967,75.0,480,360,0.0,55.0
2968,76.0,480,960,0.0,59.0
2969,60.0,0,960,3.0,55.0
2970,59.0,480,480,3.0,53.0
2971,74.0,0,480,1.0,57.0
2972,79.0,480,1440,0.0,58.0
2973,72.0,0,960,1.0,56.0
2974,57.0,480,960,3.0,52.0
2975,78.0,480,480,0.0,55.0
2976,71.0,480,480,1.0,54.0
2977,55.0,0,480,3.0,50.0
2978,79.0,0,480,0.0,54.0
2979,69.0,0,960,0.0,53.0
2980,54.0,480,960,3.0,49.0
2981,52.0,0,480,3.0,47.0
2982,67.0,480,480,1.0,51.0
2983,72.0,480,1440,0.0,52.0
2984,66.0,0,960,1.0,50.0
2985,51.0,480,960,3.0,46.0
2986,52.0,0,480,3.0,43.0
2987,67.0,480,480,1.0,48.0
2988,71.0,480,1440,0.0,49.0
2989,68.0,480,480,0.0,46.0
2990,64.0,0,1440,1.0,47.0
2991,48.0,480,1440,3.0,42.0
2992,69.0,480,960,0.0,45.0
2993,64.0,480,480,0.0,43.0
2994,66.0,480,480,0.0,42.0
2995,60.0,480,1440,1.0,44.0
2996,50.0,0,1440,3.0,39.0
2997,67.0,0,480,0.0,41.0
2998,59.0,480,480,1.0,41.0
2999,43.0,0,480,3.0,36.0
3000,57.0,480,480,1.0,40.0
3001,55.0,480,480,1.0,39.0
3002,53.0,480,480,2.0,49.0
3003,52.0,480,480,2.0,49.0
3004,50.0,480,480,2.0,48.0
3005,49.0,480,1440,2.0,47.0
3006,67.0,480,480,0.0,47.0
3007,50.0,480,480,2.0,46.0
3008,65.0,0,480,0.0,46.0
3009,64.0,0,480,0.0,45.0
3010,52.0,480,480,2.0,45.0
3011,62.0,480,480,0.0,44.0
3012,53.0,0,480,2.0,44.0
3013,43.0,480,0,3.0,44.0
3014,57.0,480,2400,0.0,47.0
3015,47.0,0,1440,2.0,44.0
3016,65.0,480,480,0.0,42.0
3017,48.0,480,480,2.0,42.0
3018,64.0,0,480,0.0,41.0
3019,50.0,480,480,2.0,41.0
3020,62.0,0,480,0.0,41.0
3021,55.0,480,2400,0.0,43.0
3022,60.0,480,480,0.0,40.0
3023,52.0,0,480,2.0,41.0
3024,79.0,480,480,0.0,45.0
3025,61.0,0,480,2.0,42.0
3026,77.0,480,480,0.0,46.0
3027,62.0,0,480,2.0,43.0
3028,64.0,0,480,2.0,45.0
3029,76.0,480,480,0.0,48.0
3030,55.0,480,2880,3.0,40.0
3031,74.0,0,480,0.0,49.0
3032,69.0,480,2400,0.0,43.0
3033,65.0,480,480,2.0,46.0
3034,77.0,0,480,0.0,53.0
3035,59.0,480,480,2.0,49.0
3036,76.0,480,480,0.0,55.0
3037,60.0,0,480,2.0,51.0
3038,62.0,0,480,2.0,52.0
3039,74.0,480,480,0.0,56.0
3040,55.0,480,2880,3.0,47.0
3041,72.0,480,480,0.0,58.0
3042,67.0,480,2400,0.0,52.0
3043,64.0,0,480,2.0,53.0
3044,55.0,0,480,3.0,59.0
3045,71.0,0,480,0.0,63.0
3046,65.0,480,480,2.0,59.0
3047,69.0,480,480,0.0,62.0
3048,67.0,480,480,0.0,61.0
3049,65.0,480,480,0.0,60.0
3050,64.0,480,480,0.0,59.0
3051,62.0,480,480,0.0,58.0
3052,55.0,0,1440,1.0,56.0
3053,48.0,0,1440,2.0,55.0
3054,64.0,480,1440,0.0,56.0
3055,62.0,0,480,0.0,53.0
3056,65.0,480,480,0.0,52.0
3057,47.0,0,960,2.0,53.0
3058,59.0,480,480,0.0,51.0
3059,50.0,0,480,2.0,51.0
3060,36.0,0,0,3.0,51.0
3061,53.0,1440,1440,1.0,53.0
3062,48.0,0,360,1.0,50.0
3063,60.0,0,360,0.0,50.0
3064,48.0,480,480,2.0,51.0
3065,64.0,480,360,0.0,49.0
3066,67.0,480,360,0.0,48.0
3067,72.0,480,360,0.0,47.0
3068,74.0,480,360,0.0,45.0
3069,75.0,480,360,0.0,44.0
3070,67.0,480,1440,1.0,43.0
3071,64.0,0,1440,1.0,43.0
3072,60.0,0,1440,2.0,46.0
3073,76.0,0,1440,0.0,43.0
3074,74.0,0,480,0.0,40.0
3075,59.0,1440,960,2.0,44.0
3076,77.0,480,480,0.0,39.0
3077,71.0,0,480,0.0,38.0
3078,48.0,0,2880,3.0,46.0
3079,65.0,0,1440,1.0,40.0
3080,62.0,480,480,2.0,43.0
3081,72.0,480,360,0.0,37.0
3082,60.0,0,480,2.0,42.0
3083,48.0,0,480,3.0,42.0
3084,76.0,480,360,0.0,36.0
3085,79.0,480,360,0.0,34.0
3086,84.0,480,360,0.0,33.0
3087,86.0,480,360,0.0,32.0
3088,87.0,480,360,0.0,31.0
3089,55.0,0,1440,2.0,38.0
3090,76.0,480,2880,1.0,30.0
3091,57.0,1440,1440,2.0,33.0
3092,48.0,0,2880,3.0,38.0
3093,88.0,0,2880,0.0,30.0
3094,52.0,0,0,2.0,33.0
3095,55.0,1440,1440,2.0,33.0
3096,83.0,0,2880,0.0,23.0
3097,47.0,0,2880,3.0,33.0
3098,51.0,0,1440,2.0,28.0
3099,54.0,1440,1440,2.0,28.0
3100,59.0,0,2880,2.0,33.0
3101,71.0,0,2880,1.0,23.0
3102,64.0,0,720,0.0,43.0
3103,52.0,1440,720,2.0,38.0
3104,51.0,0,240,2.0,41.0
3105,63.0,720,240,0.0,45.0
3106,52.0,240,480,2.0,44.0
3107,55.0,0,1440,1.0,43.0
3108,59.0,0,1440,1.0,43.0
3109,64.0,0,480,0.0,48.0
3110,64.0,0,720,0.0,52.0
3111,52.0,0,720,2.0,49.0
3112,51.0,0,240,2.0,56.0
3113,63.0,720,240,0.0,59.0
3114,52.0,240,480,2.0,58.0
3115,60.0,0,1440,1.0,52.0
3116,55.0,480,1440,1.0,52.0
3117,64.0,0,480,0.0,61.0
3118,48.0,0,1440,3.0,49.0
3119,61.0,0,1440,1.0,79.0
3120,58.0,0,1440,1.0,79.0
3121,46.0,0,1440,3.0,79.0
3122,55.0,480,1920,2.0,79.0
3123,67.0,0,1920,0.0,79.0
3124,66.0,480,240,0.0,47.0
3125,54.0,0,240,2.0,46.0
3126,52.0,0,240,2.0,43.0
3127,64.0,240,240,0.0,45.0
3128,51.0,240,240,2.0,40.0
3129,63.0,0,240,0.0,43.0
3130,60.0,1440,1440,1.0,47.0
3131,54.0,240,240,2.0,37.0
3132,66.0,0,240,0.0,41.0
3133,45.0,0,1440,3.0,48.0
3134,57.0,0,1440,1.0,47.0
3135,59.0,0,480,1.0,38.0
3136,64.0,0,480,0.0,38.0
3137,43.0,0,480,3.0,34.0
3138,52.0,240,480,2.0,34.0
3139,51.0,0,480,2.0,38.0
3140,42.0,0,480,3.0,38.0
3141,66.0,480,480,0.0,42.0
3142,59.0,0,0,1.0,47.0
3143,40.0,0,480,3.0,43.0
3144,67.0,0,480,0.0,47.0
3145,52.0,480,480,2.0,43.0
3146,71.0,0,480,0.0,51.0
3147,39.0,480,960,3.0,47.0
3148,47.0,0,960,2.0,47.0
3149,69.0,480,480,0.0,56.0
3150,66.0,0,960,1.0,51.0
3151,64.0,0,480,1.0,60.0
3152,47.0,0,480,2.0,56.0
3153,67.0,0,480,0.0,60.0
3154,40.0,480,480,3.0,56.0
3155,63.0,0,960,1.0,65.0
3156,47.0,480,960,2.0,60.0
3157,66.0,0,960,0.0,65.0
3158,69.0,0,240,0.0,52.0
3159,67.0,240,240,0.0,46.0
3160,64.0,960,480,1.0,50.0
3161,46.0,0,480,2.0,53.0
3162,63.0,240,360,1.0,41.0
3163,35.0,0,1800,3.0,60.0
3164,47.0,0,360,2.0,47.0
3165,66.0,0,360,0.0,41.0
3166,71.0,960,480,0.0,38.0
3167,64.0,0,720,2.0,38.0
3168,76.0,0,720,0.0,40.0
3169,75.0,720,240,0.0,44.0
3170,63.0,0,240,2.0,42.0
3171,71.0,0,1440,1.0,40.0
3172,76.0,0,0,0.0,52.0
3173,67.0,480,1440,1.0,40.0
3174,64.0,480,0,2.0,49.0
3175,75.0,720,240,0.0,60.0
3176,63.0,0,240,2.0,56.0
3177,67.0,0,1440,1.0,52.0
3178,64.0,240,480,2.0,58.0
3179,76.0,0,480,0.0,62.0
3180,60.0,0,1440,3.0,49.0
3181,72.0,0,1440,1.0,52.0
3182,58.0,480,1440,3.0,79.0
3183,73.0,0,1440,1.0,79.0
3184,70.0,0,1440,1.0,79.0
3185,67.0,0,1920,2.0,79.0
3186,79.0,0,1920,0.0,79.0
3187,78.0,480,240,0.0,48.0
3188,66.0,0,240,2.0,47.0
3189,64.0,0,240,2.0,43.0
3190,76.0,240,240,0.0,46.0
3191,63.0,0,240,2.0,40.0
3192,75.0,240,240,0.0,44.0
3193,66.0,240,240,2.0,37.0
3194,57.0,0,1440,3.0,48.0
3195,69.0,0,1440,1.0,46.0
3196,72.0,1440,1440,1.0,46.0
3197,78.0,0,240,0.0,42.0
3198,71.0,0,480,1.0,40.0
3199,64.0,240,480,2.0,35.0
3200,55.0,0,480,3.0,35.0
3201,76.0,0,480,0.0,40.0
3202,78.0,480,480,0.0,44.0
3203,71.0,0,0,1.0,47.0
3204,54.0,0,480,3.0,39.0
3205,63.0,0,480,2.0,39.0
3206,64.0,0,480,2.0,43.0
3207,52.0,0,480,3.0,43.0
3208,79.0,480,480,0.0,47.0
3209,83.0,0,480,0.0,51.0
3210,81.0,480,480,0.0,55.0
3211,59.0,0,0,2.0,56.0
3212,51.0,480,960,3.0,48.0
3213,78.0,0,960,1.0,51.0
3214,76.0,480,0,1.0,62.0
3215,59.0,0,0,2.0,60.0
3216,52.0,0,480,3.0,56.0
3217,79.0,0,0,0.0,62.0
3218,57.0,0,480,2.0,49.0
3219,78.0,960,480,0.0,52.0
3220,75.0,0,480,1.0,52.0
3221,47.0,0,1800,3.0,60.0
3222,76.0,0,360,0.0,47.0
3223,55.0,480,360,2.0,43.0
3224,64.0,0,720,0.0,42.0
3225,63.0,720,240,0.0,44.0
3226,48.0,1440,1440,3.0,40.0
3227,64.0,240,480,0.0,45.0
3228,52.0,0,1440,2.0,40.0
3229,55.0,0,1440,1.0,42.0
3230,60.0,0,1440,1.0,42.0
3231,67.0,0,1440,0.0,54.0
3232,43.0,0,1440,3.0,52.0
3233,55.0,0,1440,2.0,52.0
3234,59.0,480,1440,1.0,54.0
3235,62.0,0,1440,1.0,54.0
3236,65.0,0,720,0.0,51.0
3237,64.0,720,240,0.0,53.0
3238,62.0,0,1440,1.0,51.0
3239,53.0,0,1440,2.0,48.0
3240,65.0,240,480,0.0,54.0
3241,50.0,1440,1440,3.0,48.0
3242,57.0,0,1440,1.0,51.0
3243,55.0,0,1440,2.0,58.0
3244,47.0,0,1440,3.0,58.0
3245,67.0,0,1440,0.0,65.0
3246,62.0,480,1440,1.0,65.0
3247,64.0,0,720,0.0,42.0
3248,63.0,720,240,0.0,46.0
3249,55.0,0,1440,1.0,42.0
3250,60.0,0,1440,1.0,42.0
3251,52.0,1440,1440,2.0,40.0
3252,64.0,240,480,0.0,47.0
3253,48.0,0,1440,3.0,40.0
3254,67.0,960,0,0.0,54.0
3255,59.0,0,1440,1.0,49.0
3256,62.0,480,1440,1.0,49.0
3257,43.0,0,1440,3.0,49.0
3258,67.0,0,0,0.0,59.0
3259,50.0,0,0,2.0,57.0
3260,62.0,0,1440,1.0,59.0
3261,38.0,0,1440,3.0,57.0
3262,57.0,480,1440,1.0,59.0
3263,66.0,960,480,0.0,51.0
3264,43.0,0,480,2.0,39.0
3265,67.0,0,480,0.0,48.0
3266,31.0,0,480,3.0,39.0
3267,59.0,0,480,1.0,44.0
3268,62.0,480,480,1.0,44.0
3269,67.0,960,480,0.0,38.0
3270,64.0,0,720,2.0,40.0
3271,76.0,0,720,0.0,40.0
3272,63.0,720,240,2.0,43.0
3273,75.0,0,240,0.0,43.0
3274,60.0,480,1440,3.0,40.0
3275,72.0,0,1440,1.0,40.0
3276,67.0,0,1440,1.0,40.0
3277,64.0,0,480,2.0,43.0
3278,76.0,240,480,0.0,44.0
3279,71.0,0,1440,1.0,54.0
3280,79.0,0,1440,0.0,54.0
3281,55.0,0,1440,3.0,53.0
3282,67.0,0,1440,2.0,53.0
3283,74.0,0,0,1.0,52.0
3284,77.0,0,720,0.0,52.0
3285,65.0,0,720,2.0,51.0
3286,64.0,0,240,2.0,53.0
3287,76.0,720,240,0.0,55.0
3288,69.0,0,1440,1.0,52.0
3289,74.0,480,0,1.0,66.0
3290,77.0,0,480,0.0,56.0
3291,65.0,240,480,2.0,54.0
3292,62.0,1440,1440,3.0,51.0
3293,79.0,0,1440,0.0,66.0
3294,59.0,0,1440,3.0,63.0
3295,67.0,0,1440,2.0,63.0
3296,76.0,0,720,0.0,43.0
3297,64.0,0,720,2.0,38.0
3298,75.0,720,240,0.0,46.0
3299,63.0,0,240,2.0,42.0
3300,67.0,0,1440,1.0,43.0
3301,72.0,1440,1440,1.0,43.0
3302,60.0,0,1440,3.0,38.0
3303,64.0,0,480,2.0,44.0
3304,76.0,240,480,0.0,48.0
3305,64.0,0,720,1.0,50.0
3306,76.0,0,720,0.0,50.0
3307,64.0,960,360,1.0,58.0
3308,76.0,0,360,0.0,58.0
3309,58.0,480,1440,2.0,47.0
3310,48.0,0,1440,3.0,47.0
3311,64.0,0,960,1.0,63.0
3312,76.0,0,960,0.0,63.0
3313,75.0,960,480,0.0,52.0
3314,63.0,0,480,1.0,52.0
3315,78.0,480,1440,0.0,41.0
3316,47.0,0,2880,3.0,56.0
3317,59.0,480,2880,2.0,56.0
3318,66.0,0,1440,1.0,47.0
3319,71.0,2400,480,0.0,42.0
3320,64.0,0,720,2.0,41.0
3321,76.0,480,720,0.0,42.0
3322,75.0,720,240,0.0,45.0
3323,63.0,0,240,2.0,44.0
3324,71.0,0,1440,1.0,42.0
3325,67.0,0,0,1.0,54.0
3326,64.0,240,480,2.0,47.0
3327,76.0,0,0,0.0,54.0
3328,64.0,0,720,2.0,52.0
3329,63.0,720,240,2.0,60.0
3330,75.0,0,240,0.0,62.0
3331,60.0,480,1440,3.0,52.0
3332,64.0,240,480,2.0,62.0
3333,72.0,0,1440,1.0,54.0
3334,76.0,0,480,0.0,65.0
3335,73.0,0,1440,1.0,79.0
3336,70.0,0,1440,1.0,79.0
3337,58.0,0,1440,3.0,79.0
3338,67.0,480,1920,2.0,79.0
3339,79.0,0,1920,0.0,79.0
3340,66.0,0,240,2.0,48.0
3341,78.0,480,240,0.0,47.0
3342,64.0,240,240,2.0,46.0
3343,76.0,0,240,0.0,45.0
3344,75.0,0,240,0.0,43.0
3345,63.0,240,240,2.0,44.0
3346,72.0,0,1440,1.0,51.0
3347,69.0,1440,1440,1.0,51.0
3348,66.0,0,240,2.0,42.0
3349,78.0,240,240,0.0,41.0
3350,57.0,0,1440,3.0,52.0
3351,71.0,480,0,1.0,41.0
3352,64.0,240,480,2.0,40.0
3353,55.0,0,480,3.0,40.0
3354,76.0,0,480,0.0,38.0
3355,78.0,0,480,0.0,41.0
3356,54.0,0,480,3.0,43.0
3357,63.0,0,480,2.0,43.0
3358,71.0,0,480,1.0,45.0
3359,64.0,0,480,2.0,46.0
3360,79.0,0,480,0.0,45.0
3361,52.0,480,480,3.0,46.0
3362,83.0,0,480,0.0,48.0
3363,51.0,0,960,3.0,49.0
3364,78.0,0,960,1.0,48.0
3365,81.0,480,480,0.0,52.0
3366,59.0,0,0,2.0,55.0
3367,79.0,0,480,0.0,55.0
3368,52.0,480,480,3.0,55.0
3369,59.0,0,0,2.0,58.0
3370,76.0,0,480,1.0,55.0
3371,75.0,0,960,1.0,59.0
3372,78.0,480,960,0.0,59.0
3373,81.0,0,240,0.0,51.0
3374,76.0,0,480,1.0,50.0
3375,79.0,240,240,0.0,48.0
3376,58.0,960,480,2.0,48.0
3377,78.0,0,360,0.0,44.0
3378,59.0,240,360,2.0,41.0
3379,47.0,0,1800,3.0,58.0
3380,75.0,0,360,1.0,45.0
3381,59.0,960,480,0.0,37.0
3382,52.0,0,720,2.0,38.0
3383,64.0,0,720,0.0,39.0
3384,63.0,720,240,0.0,42.0
3385,51.0,0,240,2.0,41.0
3386,64.0,0,480,0.0,44.0
3387,52.0,240,480,2.0,43.0
3388,55.0,0,0,1.0,48.0
3389,59.0,480,1440,1.0,39.0
3390,52.0,0,720,2.0,46.0
3391,64.0,0,720,0.0,48.0
3392,51.0,0,240,2.0,51.0
3393,63.0,720,240,0.0,54.0
3394,60.0,0,1440,1.0,48.0
3395,48.0,480,1440,3.0,46.0
3396,52.0,240,480,2.0,52.0
3397,64.0,0,480,0.0,56.0
3398,60.0,0,1920,2.0,62.0
3399,72.0,0,1920,0.0,68.0
3400,71.0,1920,240,0.0,53.0
3401,59.0,0,240,2.0,46.0
3402,57.0,240,240,2.0,43.0
3403,69.0,0,240,0.0,51.0
3404,68.0,0,240,0.0,50.0
3405,56.0,240,240,2.0,41.0
3406,53.0,480,2880,2.0,62.0
3407,59.0,0,240,2.0,39.0
3408,65.0,0,2880,1.0,68.0
3409,62.0,0,2880,1.0,68.0
3410,71.0,240,240,0.0,48.0
3411,50.0,0,2880,3.0,62.0
3412,64.0,0,240,1.0,46.0
3413,60.0,0,240,1.0,46.0
3414,48.0,0,240,3.0,36.0
3415,57.0,0,240,2.0,36.0
3416,52.0,0,240,2.0,36.0
3417,69.0,240,240,0.0,46.0
3418,71.0,0,240,0.0,60.0
3419,69.0,240,240,0.0,55.0
3420,68.0,240,240,0.0,52.0
3421,59.0,0,960,2.0,55.0
3422,53.0,0,960,2.0,55.0
3423,62.0,0,960,1.0,60.0
3424,65.0,480,960,1.0,60.0
3425,71.0,240,240,0.0,50.0
3426,50.0,0,960,3.0,55.0
3427,64.0,240,240,1.0,48.0
3428,52.0,0,240,2.0,44.0
3429,69.0,0,240,0.0,48.0
3430,57.0,0,240,2.0,44.0
3431,48.0,0,240,3.0,44.0
3432,60.0,0,240,1.0,48.0
3433,71.0,0,240,0.0,63.0
3434,69.0,240,240,0.0,58.0
3435,68.0,240,240,0.0,56.0
3436,53.0,0,960,2.0,57.0
3437,59.0,0,960,2.0,57.0
3438,50.0,480,960,3.0,57.0
3439,65.0,0,960,1.0,63.0
3440,62.0,0,960,1.0,63.0
3441,71.0,240,240,0.0,54.0
3442,57.0,0,240,2.0,48.0
3443,52.0,240,240,2.0,48.0
3444,60.0,0,240,1.0,51.0
3445,69.0,0,240,0.0,51.0
3446,48.0,0,240,3.0,48.0
3447,64.0,0,240,1.0,51.0
3448,69.0,480,240,0.0,55.0
3449,68.0,240,240,0.0,57.0
3450,69.0,240,240,0.0,59.0
3451,71.0,240,240,0.0,60.0
3452,72.0,240,240,0.0,62.0
3453,74.0,240,240,0.0,64.0
3454,76.0,240,240,0.0,66.0
3455,75.0,240,240,0.0,68.0
3456,57.0,0,240,3.0,57.0
3457,64.0,240,240,2.0,57.0
3458,76.0,0,240,0.0,70.0
3459,72.0,240,240,0.0,69.0
3460,71.0,0,240,0.0,59.0
3461,64.0,0,240,2.0,52.0
3462,59.0,240,240,3.0,52.0
3463,71.0,480,240,0.0,52.0
3464,70.0,240,240,0.0,50.0
3465,71.0,240,240,0.0,48.0
3466,67.0,240,240,0.0,46.0
3467,35.0,240,240,3.0,45.0
3468,63.0,0,240,1.0,45.0
3469,47.0,0,240,2.0,45.0
3470,66.0,0,240,0.0,45.0
3471,71.0,480,240,0.0,41.0
3472,70.0,240,240,0.0,39.0
3473,71.0,240,240,0.0,38.0
3474,66.0,240,240,0.0,36.0
3475,64.0,240,1440,0.0,34.0
3476,47.0,0,480,2.0,37.0
3477,56.0,960,480,1.0,37.0
3478,48.0,0,480,2.0,43.0
3479,57.0,0,480,1.0,43.0
3480,48.0,480,240,2.0,42.0
3481,57.0,0,240,1.0,42.0
3482,59.0,0,240,1.0,41.0
3483,47.0,240,240,2.0,42.0
3484,60.0,240,240,0.0,40.0
3485,45.0,0,240,2.0,41.0
3486,48.0,0,240,2.0,41.0
3487,63.0,480,1440,0.0,43.0
3488,57.0,240,240,1.0,39.0
3489,40.0,0,2880,3.0,34.0
3490,40.0,0,480,3.0,40.0
3491,56.0,0,480,1.0,39.0
3492,64.0,0,480,0.0,39.0
3493,68.0,960,480,0.0,48.0
3494,59.0,0,480,2.0,47.0
3495,64.0,0,480,1.0,48.0
3496,52.0,240,1440,2.0,40.0
3497,60.0,0,480,2.0,53.0
3498,69.0,0,0,0.0,53.0
3499,60.0,480,240,2.0,52.0
3500,71.0,0,240,0.0,52.0
3501,59.0,240,240,2.0,51.0
3502,72.0,240,240,0.0,51.0
3503,57.0,0,240,2.0,50.0
3504,52.0,480,1440,3.0,53.0
3505,69.0,0,240,0.0,49.0
3506,63.0,0,1440,1.0,55.0
3507,60.0,240,240,2.0,49.0
3508,68.0,0,240,0.0,48.0
3509,64.0,240,240,1.0,48.0
3510,59.0,0,240,2.0,48.0
3511,59.0,0,480,2.0,57.0
3512,68.0,960,480,1.0,59.0
3513,76.0,0,480,0.0,59.0
3514,52.0,0,1440,3.0,48.0
3515,69.0,0,240,1.0,71.0
3516,60.0,480,0,2.0,61.0
3517,69.0,0,240,1.0,63.0
3518,59.0,240,240,2.0,60.0
3519,71.0,0,240,1.0,62.0
3520,72.0,0,240,1.0,61.0
3521,57.0,240,240,2.0,59.0
3522,52.0,240,0,3.0,57.0
3523,75.0,0,1440,0.0,71.0
3524,60.0,0,240,2.0,58.0
3525,69.0,240,240,1.0,59.0
3526,68.0,0,240,1.0,58.0
3527,76.0,0,240,0.0,58.0
3528,59.0,0,240,2.0,57.0
3529,69.0,0,240,1.0,76.0
3530,60.0,480,240,2.0,72.0
3531,71.0,0,240,1.0,71.0
3532,59.0,240,240,2.0,65.0
3533,57.0,0,240,2.0,63.0
3534,72.0,240,240,1.0,69.0
3535,52.0,240,0,3.0,61.0
3536,69.0,0,240,1.0,68.0
3537,75.0,0,960,0.0,76.0
3538,60.0,240,240,2.0,62.0
3539,76.0,0,240,0.0,66.0
3540,68.0,0,240,1.0,66.0
3541,59.0,0,480,2.0,61.0
3542,60.0,480,240,2.0,77.0
3543,69.0,0,240,1.0,81.0
3544,71.0,240,240,1.0,76.0
3545,59.0,0,240,2.0,73.0
3546,57.0,240,240,2.0,70.0
3547,72.0,0,240,1.0,74.0
3548,52.0,0,960,3.0,77.0
3549,75.0,0,960,0.0,81.0
3550,60.0,0,240,2.0,68.0
3551,69.0,240,240,1.0,71.0
3552,59.0,0,240,2.0,55.0
3553,76.0,240,240,0.0,53.0
3554,68.0,0,240,1.0,53.0
3555,52.0,0,240,3.0,55.0
3556,76.0,1440,240,1.0,45.0
3557,59.0,0,240,2.0,45.0
3558,80.0,0,240,0.0,45.0
3559,52.0,0,240,3.0,45.0
3560,88.0,0,240,0.0,36.0
3561,76.0,0,240,1.0,36.0
3562,47.0,0,240,2.0,36.0
3563,52.0,0,240,2.0,36.0
3564,40.0,1440,240,3.0,36.0
3565,80.0,0,240,1.0,36.0
3566,88.0,1440,1440,0.0,47.0
3567,48.0,0,1440,2.0,55.0
3568,55.0,0,1440,1.0,56.0
3569,64.0,1200,1680,0.0,55.0
3570,62.0,0,480,0.0,53.0
3571,65.0,480,480,0.0,52.0
3572,47.0,0,960,2.0,53.0
3573,50.0,480,480,2.0,51.0
3574,36.0,0,0,3.0,51.0
3575,53.0,1440,1440,1.0,53.0
3576,59.0,0,480,0.0,51.0
3577,60.0,480,360,0.0,50.0
3578,48.0,0,360,1.0,50.0
3579,48.0,0,480,2.0,51.0
3580,64.0,480,360,0.0,49.0
3581,67.0,480,360,0.0,48.0
3582,72.0,480,360,0.0,47.0
3583,74.0,480,360,0.0,45.0
3584,75.0,480,360,0.0,44.0
3585,64.0,0,1440,1.0,43.0
3586,76.0,0,1440,0.0,43.0
3587,60.0,480,1440,2.0,46.0
3588,67.0,0,1440,1.0,43.0
3589,74.0,0,480,0.0,40.0
3590,77.0,480,480,0.0,39.0
3591,59.0,1440,960,2.0,44.0
3592,71.0,0,480,0.0,38.0
3593,48.0,0,2880,3.0,46.0
3594,65.0,0,1440,1.0,40.0
3595,62.0,480,480,2.0,43.0
3596,72.0,480,360,0.0,37.0
3597,48.0,0,480,3.0,42.0
3598,60.0,0,480,2.0,42.0
3599,76.0,480,360,0.0,36.0
3600,79.0,480,360,0.0,34.0
3601,84.0,480,360,0.0,33.0
3602,86.0,480,360,0.0,32.0
3603,87.0,480,360,0.0,31.0
3604,55.0,0,1440,2.0,38.0
3605,48.0,480,2880,3.0,38.0
3606,76.0,0,2880,1.0,30.0
3607,52.0,0,0,2.0,33.0
3608,57.0,1440,1440,2.0,33.0
3609,88.0,0,2880,0.0,30.0
3610,55.0,0,1440,2.0,33.0
3611,83.0,1440,2880,0.0,23.0
3612,47.0,0,2880,3.0,33.0
3613,71.0,0,2880,1.0,23.0
3614,51.0,1440,1440,2.0,28.0
3615,54.0,0,1440,2.0,28.0
3616,59.0,0,2880,2.0,33.0
3617,76.0,1440,480,0.0,23.0
3618,64.0,0,480,0.0,23.0
3619,52.0,0,480,3.0,23.0
3620,64.0,1440,480,0.0,21.0
3621,40.0,0,480,3.0,21.0
3622,52.0,0,480,3.0,21.0
3623,40.0,0,480,3.0,19.0
3624,52.0,1440,480,3.0,19.0
3625,64.0,0,480,0.0,19.0
3626,59.0,160,160,2.0,38.0
3627,71.0,2400,480,0.0,40.0
3628,64.0,160,160,2.0,38.0
3629,56.0,0,480,3.0,40.0
3630,57.0,160,160,2.0,38.0
3631,54.0,160,480,3.0,41.0
3632,75.0,0,480,0.0,40.0
3633,59.0,160,160,2.0,39.0
3634,63.0,0,480,1.0,40.0
3635,56.0,160,160,2.0,39.0
3636,52.0,0,480,3.0,41.0
3637,59.0,160,160,2.0,40.0
3638,54.0,160,160,2.0,40.0
3639,59.0,160,160,2.0,41.0
3640,64.0,160,0,1.0,42.0
3641,51.0,160,480,3.0,42.0
3642,76.0,160,960,0.0,41.0
3643,76.0,0,240,0.0,42.0
3644,52.0,160,160,2.0,41.0
3645,57.0,160,160,2.0,42.0
3646,49.0,0,480,3.0,43.0
3647,64.0,0,240,1.0,42.0
3648,76.0,0,240,0.0,42.0
3649,51.0,160,160,2.0,42.0
3650,47.0,160,480,3.0,44.0
3651,56.0,160,160,2.0,43.0
3652,49.0,160,160,2.0,42.0
3653,45.0,0,480,3.0,44.0
3654,54.0,160,160,2.0,43.0
3655,78.0,0,720,0.0,46.0
3656,66.0,160,720,1.0,46.0
3657,47.0,160,160,2.0,44.0
3658,44.0,160,480,3.0,46.0
3659,68.0,80,240,1.0,44.0
3660,80.0,0,240,0.0,44.0
3661,52.0,80,160,2.0,45.0
3662,81.0,160,240,0.0,46.0
3663,69.0,0,240,1.0,46.0
3664,45.0,160,160,2.0,46.0
3665,42.0,0,480,3.0,48.0
3666,51.0,160,160,2.0,46.0
3667,69.0,160,240,1.0,49.0
3668,81.0,0,240,0.0,49.0
3669,44.0,160,160,2.0,48.0
3670,49.0,160,160,2.0,48.0
3671,40.0,0,480,3.0,50.0
3672,81.0,0,240,0.0,52.0
3673,69.0,0,240,1.0,52.0
3674,42.0,160,160,2.0,50.0
3675,47.0,160,160,2.0,51.0
3676,39.0,160,480,3.0,54.0
3677,81.0,0,240,0.0,58.0
3678,69.0,160,240,1.0,56.0
3679,44.0,160,160,2.0,54.0
3680,47.0,160,160,2.0,56.0
3681,40.0,0,480,3.0,59.0
3682,81.0,160,240,0.0,63.0
3683,69.0,0,240,1.0,62.0
3684,42.0,160,160,2.0,59.0
3685,47.0,160,160,2.0,60.0
3686,39.0,0,480,3.0,63.0
3687,81.0,0,240,0.0,68.0
3688,69.0,0,240,1.0,67.0
3689,40.0,160,160,2.0,63.0
3690,47.0,160,160,2.0,65.0
3691,37.0,160,480,3.0,67.0
3692,39.0,160,480,2.0,66.0
3693,35.0,0,720,3.0,75.0
3694,47.0,480,240,2.0,49.0
3695,69.0,0,960,1.0,76.0
3696,81.0,480,0,0.0,60.0
3697,80.0,120,120,0.0,59.0
3698,78.0,120,120,0.0,58.0
3699,76.0,120,120,0.0,57.0
3700,75.0,120,120,0.0,56.0
3701,73.0,120,120,0.0,55.0
3702,71.0,120,120,0.0,54.0
3703,69.0,120,120,0.0,53.0
3704,68.0,120,480,0.0,52.0
3705,52.0,0,960,3.0,47.0
3706,59.0,0,960,3.0,53.0
3707,71.0,480,960,0.0,61.0
3708,66.0,0,360,0.0,51.0
3709,57.0,480,480,3.0,48.0
3710,63.0,0,960,1.0,46.0
3711,68.0,360,120,0.0,48.0
3712,47.0,480,960,3.0,51.0
3713,64.0,0,480,0.0,47.0
3714,56.0,120,480,3.0,46.0
3715,59.0,480,240,3.0,44.0
3716,52.0,0,744,3.0,46.0
3717,69.0,480,120,0.0,45.0
3718,68.0,120,120,0.0,44.0
3719,66.0,120,120,0.0,44.0
3720,64.0,120,120,0.0,44.0
3721,63.0,120,120,0.0,43.0
3722,61.0,120,120,0.0,43.0
3723,59.0,120,120,0.0,43.0
3724,57.0,120,120,0.0,42.0
3725,56.0,120,480,0.0,42.0
3726,40.0,0,960,3.0,43.0
3727,59.0,480,960,0.0,53.0
3728,47.0,0,960,3.0,49.0
3729,45.0,0,240,3.0,44.0
3730,54.0,480,360,0.0,43.0
3731,39.0,480,960,3.0,47.0
3732,51.0,0,960,1.0,41.0
3733,56.0,360,120,0.0,40.0
3734,40.0,120,480,3.0,42.0
3735,44.0,0,480,3.0,42.0
3736,52.0,0,480,0.0,39.0
3737,52.0,480,240,3.0,40.0
3738,59.0,160,160,2.0,36.0
3739,64.0,160,160,2.0,36.0
3740,56.0,0,480,3.0,38.0
3741,71.0,480,480,0.0,40.0
3742,57.0,160,160,2.0,37.0
3743,75.0,0,480,0.0,41.0
3744,63.0,160,480,1.0,41.0
3745,59.0,160,160,2.0,37.0
3746,54.0,0,480,3.0,39.0
3747,56.0,160,160,2.0,38.0
3748,52.0,0,480,3.0,40.0
3749,59.0,160,160,2.0,38.0
3750,54.0,160,160,2.0,39.0
3751,76.0,160,960,0.0,42.0
3752,51.0,160,480,3.0,41.0
3753,64.0,160,0,1.0,44.0
3754,59.0,160,160,2.0,39.0
3755,76.0,0,240,0.0,44.0
3756,52.0,160,160,2.0,40.0
3757,49.0,0,480,3.0,43.0
3758,57.0,160,160,2.0,40.0
3759,64.0,0,240,1.0,45.0
3760,76.0,160,240,0.0,45.0
3761,51.0,160,160,2.0,41.0
3762,56.0,160,160,2.0,40.0
3763,47.0,0,480,3.0,44.0
3764,49.0,160,160,2.0,41.0
3765,54.0,160,160,2.0,42.0
3766,45.0,0,480,3.0,48.0
3767,78.0,160,720,0.0,47.0
3768,66.0,0,720,1.0,47.0
3769,47.0,160,160,2.0,43.0
3770,80.0,80,240,0.0,48.0
3771,44.0,160,480,3.0,50.0
3772,52.0,80,160,2.0,44.0
3773,68.0,0,240,1.0,48.0
3774,81.0,160,240,0.0,50.0
3775,69.0,0,240,1.0,50.0
3776,45.0,160,160,2.0,46.0
3777,42.0,0,480,3.0,53.0
3778,51.0,160,160,2.0,46.0
3779,81.0,160,240,0.0,53.0
3780,69.0,0,240,1.0,53.0
3781,44.0,160,160,2.0,48.0
3782,49.0,160,160,2.0,48.0
3783,40.0,0,480,3.0,56.0
3784,81.0,160,240,0.0,57.0
3785,69.0,0,240,1.0,57.0
3786,42.0,160,160,2.0,51.0
3787,47.0,160,160,2.0,52.0
3788,39.0,0,480,3.0,59.0
3789,69.0,0,240,1.0,62.0
3790,81.0,0,240,0.0,60.0
3791,44.0,160,160,2.0,56.0
3792,40.0,160,480,3.0,63.0
3793,47.0,160,160,2.0,58.0
3794,81.0,0,240,0.0,66.0
3795,69.0,160,240,1.0,67.0
3796,42.0,160,160,2.0,61.0
3797,47.0,160,160,2.0,63.0
3798,39.0,0,480,3.0,67.0
3799,81.0,0,240,0.0,71.0
3800,69.0,160,240,1.0,72.0
3801,40.0,160,160,2.0,67.0
3802,47.0,160,160,2.0,69.0
3803,37.0,0,480,3.0,72.0
3804,39.0,160,480,2.0,70.0
3805,47.0,480,240,2.0,59.0
3806,35.0,0,720,3.0,79.0
3807,69.0,0,960,1.0,78.0
3808,81.0,0,960,0.0,78.0
3809,81.0,480,120,0.0,61.0
3810,80.0,120,120,0.0,60.0
3811,78.0,120,120,0.0,59.0
3812,76.0,120,120,0.0,58.0
3813,75.0,120,120,0.0,57.0
3814,73.0,120,120,0.0,56.0
3815,71.0,120,120,0.0,55.0
3816,69.0,120,120,0.0,54.0
3817,68.0,120,480,0.0,53.0
3818,52.0,0,960,3.0,53.0
3819,71.0,0,960,0.0,61.0
3820,59.0,480,960,3.0,60.0
3821,66.0,480,360,0.0,53.0
3822,57.0,0,480,3.0,51.0
3823,68.0,360,120,0.0,50.0
3824,47.0,0,960,3.0,55.0
3825,63.0,480,960,1.0,51.0
3826,56.0,0,480,3.0,46.0
3827,64.0,120,480,0.0,49.0
3828,52.0,0,720,3.0,46.0
3829,59.0,480,240,3.0,46.0
3830,64.0,480,120,3.0,49.0
3831,63.0,120,120,3.0,49.0
3832,61.0,120,120,3.0,48.0
3833,59.0,120,120,3.0,47.0
3834,58.0,120,120,3.0,47.0
3835,56.0,120,120,3.0,46.0
3836,54.0,120,120,3.0,45.0
3837,52.0,120,120,3.0,45.0
3838,51.0,120,480,3.0,44.0
3839,54.0,480,480,3.0,51.0
3840,76.0,0,120,0.0,49.0
3841,75.0,120,120,0.0,48.0
3842,73.0,120,120,0.0,48.0
3843,71.0,120,120,0.0,47.0
3844,46.0,480,480,3.0,47.0
3845,70.0,120,120,0.0,47.0
3846,68.0,120,120,0.0,46.0
3847,66.0,120,120,0.0,46.0
3848,54.0,0,480,3.0,43.0
3849,64.0,120,120,0.0,45.0
3850,63.0,0,480,0.0,45.0
3851,66.0,480,480,0.0,51.0
3852,47.0,120,960,3.0,39.0
3853,52.0,480,120,3.0,43.0
3854,51.0,120,120,3.0,42.0
3855,49.0,120,120,3.0,42.0
3856,58.0,0,480,0.0,47.0
3857,47.0,120,120,3.0,41.0
3858,46.0,120,120,3.0,41.0
3859,44.0,120,120,3.0,40.0
3860,42.0,120,120,3.0,40.0
3861,40.0,120,120,3.0,39.0
3862,66.0,0,480,0.0,42.0
3863,39.0,120,480,3.0,38.0
3864,42.0,480,480,3.0,46.0
3865,59.0,0,960,0.0,38.0
3866,64.0,0,120,0.0,39.0
3867,63.0,120,120,0.0,39.0
3868,61.0,120,120,0.0,39.0
3869,59.0,120,120,0.0,39.0
3870,34.0,480,480,3.0,42.0
3871,58.0,120,120,0.0,38.0
3872,56.0,120,120,0.0,38.0
3873,54.0,120,120,0.0,38.0
3874,52.0,120,120,0.0,38.0
3875,42.0,0,480,3.0,37.0
3876,51.0,0,120,0.0,39.0
3877,52.0,120,120,0.0,41.0
3878,54.0,120,120,0.0,43.0
3879,56.0,120,120,0.0,45.0
3880,58.0,0,120,0.0,47.0
3881,59.0,120,120,0.0,49.0
3882,61.0,120,120,0.0,51.0
3883,63.0,120,120,0.0,53.0
3884,47.0,120,480,3.0,41.0
3885,35.0,120,960,3.0,36.0
3886,47.0,480,480,3.0,52.0
3887,49.0,0,960,3.0,46.0
3888,37.0,0,960,3.0,46.0
3889,64.0,120,960,0.0,55.0
3890,66.0,0,120,0.0,59.0
3891,68.0,120,120,0.0,61.0
3892,70.0,120,120,0.0,62.0
3893,71.0,120,120,0.0,63.0
3894,73.0,0,120,0.0,64.0
3895,75.0,120,120,0.0,65.0
3896,76.0,120,120,0.0,67.0
3897,47.0,120,480,3.0,62.0
3898,51.0,0,960,3.0,57.0
3899,39.0,480,960,3.0,57.0
3900,78.0,120,120,0.0,68.0
3901,47.0,480,480,3.0,72.0
3902,40.0,0,960,3.0,67.0
3903,52.0,120,960,3.0,67.0
3904,80.0,0,960,0.0,72.0
3905,82.0,0,80,0.0,78.0
3906,83.0,80,80,0.0,78.0
3907,42.0,480,240,3.0,80.0
3908,82.0,80,80,0.0,78.0
3909,54.0,0,240,3.0,80.0
3910,80.0,80,120,0.0,79.0
3911,82.0,120,120,0.0,79.0
3912,44.0,0,240,3.0,81.0
3913,56.0,120,240,3.0,81.0
3914,83.0,0,240,0.0,86.0
3915,73.0,480,80,0.0,81.0
3916,75.0,80,80,0.0,82.0
3917,73.0,80,80,0.0,82.0
3918,52.0,0,240,3.0,82.0
3919,40.0,0,240,3.0,82.0
3920,72.0,80,120,0.0,82.0
3921,73.0,120,120,0.0,83.0
3922,78.0,120,240,0.0,89.0
3923,54.0,0,240,3.0,83.0
3924,42.0,0,240,3.0,83.0
3925,71.0,480,240,0.0,85.0
3926,47.0,0,240,3.0,84.0
3927,35.0,0,240,3.0,84.0
3928,83.0,960,960,0.0,38.0
3929,71.0,960,960,0.0,40.0
3930,67.0,960,960,0.0,42.0
3931,52.0,480,240,3.0,43.0
3932,68.0,960,1920,0.0,44.0
3933,73.0,960,960,0.0,45.0
3934,64.0,0,960,1.0,45.0
3935,54.0,480,240,3.0,47.0
3936,66.0,480,960,1.0,51.0
3937,71.0,0,960,0.0,51.0
3938,63.0,0,960,1.0,51.0
3939,71.0,0,240,0.0,45.0
3940,70.0,240,240,0.0,44.0
3941,42.0,0,240,3.0,44.0
3942,68.0,240,240,0.0,42.0
3943,70.0,240,240,0.0,41.0
3944,64.0,480,960,1.0,45.0
3945,61.0,0,960,1.0,45.0
3946,35.0,0,240,3.0,38.0
3947,47.0,480,240,3.0,38.0
3948,63.0,0,960,1.0,39.0
3949,59.0,240,960,1.0,39.0
3950,71.0,0,960,0.0,39.0
3951,83.0,480,240,0.0,26.0
3952,83.0,480,480,0.0,24.0
3953,71.0,480,240,0.0,28.0
3954,71.0,480,480,0.0,32.0
3955,67.0,480,240,0.0,30.0
3956,67.0,480,480,0.0,34.0
3957,52.0,480,240,3.0,42.0
3958,64.0,960,960,1.0,35.0
3959,68.0,480,1920,0.0,32.0
3960,73.0,0,960,0.0,35.0
3961,54.0,480,240,3.0,47.0
3962,66.0,0,960,1.0,41.0
3963,71.0,480,960,0.0,41.0
3964,63.0,0,960,1.0,41.0
3965,71.0,0,240,0.0,36.0
3966,70.0,240,240,0.0,35.0
3967,42.0,0,240,3.0,43.0
3968,68.0,240,240,0.0,34.0
3969,61.0,480,960,1.0,36.0
3970,70.0,240,240,0.0,32.0
3971,64.0,0,960,1.0,36.0
3972,47.0,480,240,3.0,37.0
3973,71.0,480,0,0.0,26.0
3974,63.0,0,960,1.0,31.0
3975,59.0,240,960,1.0,31.0
3976,58.0,480,240,3.0,32.0
3977,46.0,0,240,3.0,32.0
3978,71.0,480,0,0.0,21.0
3979,61.0,0,960,1.0,26.0
3980,59.0,0,960,1.0,26.0
3981,64.0,0,960,1.0,26.0
3982,63.0,0,1920,1.0,21.0
3983,59.0,0,1920,1.0,21.0
3984,66.0,0,1920,1.0,21.0
3985,45.0,0,1440,3.0,27.0
3986,57.0,480,1440,3.0,27.0
3987,59.0,160,160,2.0,34.0
3988,56.0,0,472,3.0,36.0
3989,71.0,2400,480,0.0,38.0
3990,64.0,160,160,2.0,34.0
3991,57.0,160,160,2.0,35.0
3992,54.0,0,472,3.0,38.0
3993,59.0,160,160,2.0,36.0
3994,75.0,0,480,0.0,39.0
3995,63.0,160,480,1.0,39.0
3996,56.0,160,160,2.0,37.0
3997,52.0,160,472,3.0,39.0
3998,59.0,160,160,2.0,37.0
3999,54.0,160,160,2.0,38.0
4000,51.0,160,472,3.0,41.0
4001,59.0,160,160,2.0,39.0
4002,64.0,0,960,1.0,40.0
4003,76.0,160,0,0.0,42.0
4004,64.0,0,240,1.0,42.0
4005,52.0,160,160,2.0,40.0
4006,49.0,0,472,3.0,42.0
4007,57.0,160,160,2.0,40.0
4008,64.0,0,240,1.0,43.0
4009,76.0,0,240,0.0,43.0
4010,51.0,160,160,2.0,41.0
4011,47.0,160,472,3.0,44.0
4012,56.0,160,160,2.0,42.0
4013,49.0,160,160,2.0,43.0
4014,45.0,160,472,3.0,46.0
4015,54.0,160,160,2.0,43.0
4016,78.0,0,720,0.0,45.0
4017,66.0,0,720,1.0,45.0
4018,47.0,160,160,2.0,44.0
4019,44.0,160,472,3.0,47.0
4020,80.0,80,240,0.0,46.0
4021,52.0,80,160,2.0,45.0
4022,68.0,0,240,1.0,46.0
4023,81.0,160,240,0.0,46.0
4024,69.0,0,240,1.0,46.0
4025,45.0,160,160,2.0,46.0
4026,42.0,0,472,3.0,49.0
4027,51.0,160,160,2.0,46.0
4028,81.0,0,240,0.0,49.0
4029,69.0,0,240,1.0,49.0
4030,44.0,160,160,2.0,47.0
4031,40.0,160,472,3.0,50.0
4032,49.0,160,160,2.0,48.0
4033,69.0,0,240,1.0,52.0
4034,81.0,160,240,0.0,52.0
4035,42.0,160,160,2.0,51.0
4036,39.0,0,472,3.0,54.0
4037,47.0,160,160,2.0,53.0
4038,81.0,160,240,0.0,57.0
4039,69.0,0,240,1.0,58.0
4040,44.0,160,160,2.0,56.0
4041,40.0,0,472,3.0,58.0
4042,47.0,160,160,2.0,57.0
4043,69.0,160,240,1.0,63.0
4044,81.0,0,240,0.0,61.0
4045,42.0,160,160,2.0,60.0
4046,39.0,0,472,3.0,62.0
4047,47.0,160,160,2.0,62.0
4048,69.0,0,240,1.0,69.0
4049,81.0,160,240,0.0,65.0
4050,40.0,160,160,2.0,65.0
4051,37.0,0,472,3.0,68.0
4052,47.0,160,160,2.0,66.0
4053,39.0,0,480,2.0,68.0
4054,47.0,480,240,2.0,55.0
4055,35.0,0,720,3.0,75.0
4056,69.0,160,960,1.0,74.0
4057,81.0,0,960,0.0,74.0
4058,81.0,480,120,0.0,58.0
4059,80.0,120,120,0.0,57.0
4060,78.0,120,120,0.0,56.0
4061,76.0,120,120,0.0,54.0
4062,75.0,120,120,0.0,53.0
4063,73.0,120,120,0.0,52.0
4064,71.0,120,120,0.0,51.0
4065,69.0,120,120,0.0,50.0
4066,68.0,120,480,0.0,48.0
4067,52.0,0,960,3.0,48.0
4068,71.0,480,960,0.0,57.0
4069,59.0,0,960,3.0,55.0
4070,66.0,0,360,0.0,48.0
4071,68.0,360,120,0.0,45.0
4072,63.0,0,960,1.0,48.0
4073,57.0,480,480,3.0,47.0
4074,47.0,480,960,3.0,51.0
4075,64.0,120,480,0.0,44.0
4076,56.0,0,480,3.0,43.0
4077,59.0,480,240,3.0,43.0
4078,52.0,0,744,3.0,43.0
4079,69.0,480,120,0.0,44.0
4080,68.0,120,120,0.0,43.0
4081,66.0,120,120,0.0,43.0
4082,64.0,120,120,0.0,43.0
4083,63.0,120,120,0.0,43.0
4084,61.0,120,120,0.0,42.0
4085,59.0,120,120,0.0,42.0
4086,57.0,120,120,0.0,42.0
4087,56.0,120,480,0.0,41.0
4088,40.0,0,960,3.0,36.0
4089,59.0,480,960,0.0,50.0
4090,47.0,0,960,3.0,43.0
4091,45.0,0,240,3.0,38.0
4092,54.0,480,360,0.0,42.0
4093,39.0,0,960,3.0,40.0
4094,56.0,360,120,0.0,38.0
4095,51.0,480,960,1.0,36.0
4096,52.0,120,480,0.0,37.0
4097,44.0,0,480,3.0,35.0
4098,40.0,0,480,3.0,35.0
4099,52.0,480,240,3.0,32.0
4100,59.0,160,160,2.0,38.0
4101,55.0,0,472,3.0,40.0
4102,71.0,480,480,0.0,40.0
4103,64.0,160,160,2.0,38.0
4104,57.0,160,160,2.0,39.0
4105,54.0,0,472,3.0,42.0
4106,59.0,160,160,2.0,40.0
4107,63.0,0,480,1.0,41.0
4108,75.0,160,480,0.0,41.0
4109,55.0,160,160,2.0,41.0
4110,52.0,0,472,3.0,44.0
4111,59.0,160,160,2.0,41.0
4112,54.0,160,160,2.0,42.0
4113,50.0,160,472,3.0,46.0
4114,59.0,160,160,2.0,43.0
4115,76.0,160,0,0.0,45.0
4116,64.0,160,960,1.0,42.0
4117,64.0,0,240,1.0,45.0
4118,52.0,160,160,2.0,44.0
4119,48.0,0,472,3.0,48.0
4120,57.0,160,160,2.0,44.0
4121,76.0,0,240,0.0,46.0
4122,64.0,0,240,1.0,46.0
4123,50.0,160,160,2.0,45.0
4124,47.0,160,472,3.0,50.0
4125,55.0,160,160,2.0,46.0
4126,48.0,160,160,2.0,47.0
4127,45.0,0,472,3.0,52.0
4128,54.0,160,160,2.0,47.0
4129,78.0,0,720,0.0,49.0
4130,66.0,160,720,1.0,49.0
4131,47.0,160,160,2.0,48.0
4132,43.0,160,472,3.0,53.0
4133,52.0,80,160,2.0,49.0
4134,67.0,0,240,1.0,55.0
4135,79.0,80,240,0.0,55.0
4136,81.0,0,240,0.0,58.0
4137,69.0,160,240,1.0,58.0
4138,45.0,160,160,2.0,51.0
4139,42.0,0,472,3.0,55.0
4140,50.0,160,160,2.0,53.0
4141,83.0,160,240,0.0,62.0
4142,71.0,0,240,1.0,62.0
4143,43.0,160,160,2.0,55.0
4144,40.0,0,472,3.0,58.0
4145,50.0,160,160,2.0,57.0
4146,72.0,0,240,1.0,67.0
4147,84.0,160,240,0.0,67.0
4148,42.0,160,155,2.0,62.0
4149,38.0,0,472,3.0,62.0
4150,50.0,160,160,2.0,64.0
4151,72.0,160,240,1.0,73.0
4152,84.0,0,240,0.0,74.0
4153,47.0,160,160,2.0,69.0
4154,43.0,0,472,3.0,66.0
4155,50.0,160,160,2.0,71.0
4156,84.0,160,240,0.0,82.0
4157,72.0,0,240,1.0,81.0
4158,45.0,160,160,2.0,75.0
4159,42.0,0,472,3.0,70.0
4160,50.0,160,160,2.0,77.0
4161,84.0,160,240,0.0,89.0
4162,72.0,0,240,1.0,88.0
4163,43.0,160,160,2.0,82.0
4164,40.0,0,472,3.0,78.0
4165,50.0,160,160,2.0,84.0
4166,42.0,0,480,2.0,86.0
4167,72.0,160,960,1.0,99.0
4168,84.0,480,0,0.0,95.0
4169,83.0,120,120,0.0,95.0
4170,81.0,120,120,0.0,94.0
4171,79.0,120,120,0.0,94.0
4172,78.0,120,120,0.0,93.0
4173,76.0,120,120,0.0,93.0
4174,74.0,120,120,0.0,92.0
4175,72.0,120,120,0.0,92.0
4176,38.0,0,0,3.0,90.0
4177,50.0,480,1440,3.0,95.0
4178,71.0,120,960,1.0,100.0
4179,79.0,0,1080,0.0,100.0
4180,78.0,120,120,0.0,86.0
4181,76.0,120,120,0.0,86.0
4182,74.0,120,120,0.0,85.0
4183,73.0,480,480,1.0,87.0
4184,72.0,120,120,0.0,85.0
4185,71.0,120,120,0.0,84.0
4186,69.0,120,120,0.0,84.0
4187,50.0,480,1425,3.0,97.0
4188,67.0,120,120,0.0,83.0
4189,38.0,120,0,3.0,85.0
4190,66.0,0,960,0.0,92.0
4191,74.0,0,960,0.0,92.0
4192,72.0,480,120,0.0,79.0
4193,71.0,120,120,0.0,78.0
4194,69.0,120,120,0.0,78.0
4195,67.0,120,120,0.0,77.0
4196,66.0,120,120,0.0,77.0
4197,64.0,120,120,0.0,76.0
4198,62.0,120,120,0.0,76.0
4199,38.0,0,0,3.0,79.0
4200,60.0,120,120,0.0,75.0
4201,50.0,480,1455,3.0,90.0
4202,59.0,0,960,1.0,82.0
4203,67.0,120,1080,0.0,82.0
4204,66.0,120,120,0.0,70.0
4205,64.0,120,120,0.0,69.0
4206,61.0,480,480,1.0,70.0
4207,62.0,120,120,0.0,69.0
4208,60.0,120,120,0.0,68.0
4209,59.0,120,120,0.0,68.0
4210,57.0,120,120,0.0,66.0
4211,50.0,480,1440,3.0,84.0
4212,55.0,120,120,0.0,66.0
4213,54.0,0,120,3.0,74.0
4214,55.0,120,120,3.0,74.0
4215,57.0,120,120,3.0,73.0
4216,59.0,120,120,3.0,73.0
4217,38.0,120,480,3.0,74.0
4218,60.0,120,120,3.0,73.0
4219,59.0,120,120,3.0,72.0
4220,57.0,120,120,3.0,72.0
4221,55.0,120,120,3.0,72.0
4222,54.0,120,120,3.0,71.0
4223,55.0,120,120,3.0,71.0
4224,54.0,120,120,3.0,71.0
4225,52.0,120,120,3.0,70.0
4226,50.0,120,120,3.0,70.0
4227,48.0,120,120,3.0,70.0
4228,47.0,120,120,3.0,69.0
4229,45.0,120,120,3.0,69.0
4230,47.0,160,128,2.0,58.0
4231,50.0,160,128,2.0,58.0
4232,43.0,0,480,3.0,69.0
4233,31.0,120,480,3.0,69.0
4234,55.0,160,120,0.0,58.0
4235,50.0,160,128,2.0,58.0
4236,47.0,160,128,2.0,59.0
4237,59.0,160,120,0.0,59.0
4238,50.0,160,128,2.0,59.0
4239,55.0,160,128,2.0,59.0
4240,59.0,160,120,0.0,60.0
4241,55.0,160,128,2.0,60.0
4242,50.0,160,128,2.0,60.0
4243,62.0,160,120,0.0,60.0
4244,55.0,160,128,2.0,61.0
4245,59.0,160,128,2.0,61.0
4246,62.0,160,120,0.0,61.0
4247,59.0,160,128,2.0,61.0
4248,55.0,160,128,2.0,62.0
4249,67.0,160,120,0.0,62.0
4250,62.0,160,128,2.0,62.0
4251,59.0,160,128,2.0,62.0
4252,66.0,0,120,0.0,63.0
4253,38.0,0,240,3.0,63.0
4254,50.0,160,240,3.0,63.0
4255,60.0,160,128,2.0,63.0
4256,57.0,160,128,2.0,63.0
4257,67.0,160,120,0.0,63.0
4258,55.0,0,240,3.0,64.0
4259,43.0,0,240,3.0,64.0
4260,59.0,160,128,2.0,63.0
4261,62.0,160,128,2.0,64.0
4262,67.0,160,120,0.0,64.0
4263,62.0,160,128,2.0,64.0
4264,59.0,160,128,2.0,64.0
4265,71.0,160,120,0.0,65.0
4266,62.0,160,128,2.0,65.0
4267,67.0,160,128,2.0,65.0
4268,71.0,160,120,0.0,65.0
4269,67.0,160,128,2.0,66.0
4270,62.0,160,128,2.0,66.0
4271,74.0,160,120,0.0,66.0
4272,67.0,160,128,2.0,66.0
4273,71.0,160,128,2.0,67.0
4274,74.0,160,120,0.0,67.0
4275,71.0,160,128,2.0,67.0
4276,67.0,160,128,2.0,67.0
4277,74.0,160,120,0.0,68.0
4278,71.0,160,128,2.0,68.0
4279,68.0,160,128,2.0,68.0
4280,71.0,0,120,0.0,68.0
4281,40.0,160,240,3.0,69.0
4282,52.0,0,240,3.0,69.0
4283,68.0,160,128,2.0,68.0
4284,62.0,160,128,2.0,69.0
4285,69.0,160,120,0.0,69.0
4286,45.0,0,240,3.0,70.0
4287,57.0,0,240,3.0,70.0
4288,60.0,160,128,2.0,69.0
4289,64.0,160,128,2.0,69.0
4290,69.0,160,120,0.0,70.0
4291,64.0,160,128,2.0,70.0
4292,60.0,160,128,2.0,70.0
4293,72.0,160,120,0.0,70.0
4294,64.0,160,128,2.0,71.0
4295,69.0,160,128,2.0,71.0
4296,72.0,160,120,0.0,71.0
4297,69.0,160,128,2.0,71.0
4298,64.0,160,128,2.0,72.0
4299,76.0,160,120,0.0,72.0
4300,69.0,160,128,2.0,72.0
4301,72.0,160,128,2.0,72.0
4302,76.0,160,120,0.0,73.0
4303,72.0,160,128,2.0,73.0
4304,69.0,160,128,2.0,73.0
4305,81.0,160,120,0.0,73.0
4306,76.0,160,128,2.0,74.0
4307,72.0,160,128,2.0,74.0
4308,80.0,0,120,0.0,74.0
4309,52.0,0,240,3.0,76.0
4310,40.0,160,240,3.0,76.0
4311,74.0,160,128,2.0,74.0
4312,71.0,160,128,2.0,74.0
4313,81.0,0,120,0.0,75.0
4314,45.0,0,240,3.0,77.0
4315,57.0,160,240,3.0,77.0
4316,72.0,160,128,2.0,75.0
4317,76.0,160,128,2.0,75.0
4318,81.0,160,120,0.0,75.0
4319,76.0,160,128,2.0,76.0
4320,72.0,160,128,2.0,76.0
4321,84.0,160,120,0.0,76.0
4322,76.0,160,128,2.0,76.0
4323,81.0,160,128,2.0,77.0
4324,84.0,160,120,0.0,77.0
4325,81.0,160,128,2.0,77.0
4326,76.0,160,128,2.0,77.0
4327,88.0,160,120,0.0,78.0
4328,81.0,160,128,2.0,78.0
4329,84.0,160,128,2.0,78.0
4330,88.0,160,120,0.0,78.0
4331,84.0,160,128,2.0,79.0
4332,81.0,160,128,2.0,79.0
4333,88.0,160,120,0.0,79.0
4334,85.0,160,128,2.0,79.0
4335,82.0,160,128,2.0,79.0
4336,85.0,0,120,0.0,59.0
4337,66.0,160,240,3.0,57.0
4338,54.0,0,240,3.0,57.0
4339,82.0,160,128,2.0,59.0
4340,76.0,160,128,2.0,59.0
4341,83.0,0,120,0.0,58.0
4342,59.0,0,240,3.0,56.0
4343,71.0,160,240,3.0,56.0
4344,78.0,160,128,2.0,58.0
4345,74.0,160,128,2.0,58.0
4346,83.0,160,120,0.0,58.0
4347,67.0,0,240,3.0,55.0
4348,55.0,0,240,3.0,55.0
4349,79.0,160,128,2.0,57.0
4350,74.0,160,128,2.0,57.0
4351,83.0,160,120,0.0,57.0
4352,64.0,0,240,3.0,53.0
4353,52.0,0,240,3.0,53.0
4354,79.0,160,128,2.0,56.0
4355,73.0,160,128,2.0,56.0
4356,82.0,0,120,0.0,56.0
4357,66.0,0,240,3.0,52.0
4358,54.0,160,240,3.0,52.0
4359,78.0,160,128,2.0,55.0
4360,73.0,160,128,2.0,55.0
4361,83.0,0,120,0.0,55.0
4362,47.0,0,240,3.0,51.0
4363,59.0,160,240,3.0,51.0
4364,78.0,160,128,2.0,54.0
4365,74.0,160,128,2.0,54.0
4366,78.0,160,120,0.0,54.0
4367,74.0,160,128,2.0,54.0
4368,71.0,160,128,2.0,53.0
4369,78.0,160,120,0.0,53.0
4370,74.0,160,128,2.0,53.0
4371,71.0,160,128,2.0,52.0
4372,78.0,0,120,0.0,52.0
4373,54.0,160,240,3.0,47.0
4374,42.0,0,240,3.0,47.0
4375,73.0,160,128,2.0,52.0
4376,70.0,160,128,2.0,51.0
4377,78.0,0,120,0.0,51.0
4378,47.0,160,240,3.0,46.0
4379,59.0,0,240,3.0,46.0
4380,74.0,160,128,2.0,51.0
4381,71.0,160,128,2.0,50.0
4382,79.0,160,120,0.0,50.0
4383,43.0,0,240,3.0,45.0
4384,55.0,0,240,3.0,45.0
4385,74.0,160,128,2.0,50.0
4386,71.0,160,128,2.0,50.0
4387,79.0,160,120,0.0,49.0
4388,40.0,0,240,3.0,43.0
4389,52.0,0,240,3.0,43.0
4390,73.0,160,128,2.0,49.0
4391,71.0,160,128,2.0,49.0
4392,78.0,160,120,0.0,48.0
4393,54.0,0,240,3.0,42.0
4394,42.0,0,240,3.0,42.0
4395,73.0,160,128,2.0,48.0
4396,70.0,160,128,2.0,48.0
4397,78.0,480,120,0.0,81.0
4398,74.0,160,128,2.0,81.0
4399,71.0,160,128,2.0,81.0
4400,83.0,160,120,0.0,80.0
4401,78.0,160,128,2.0,80.0
4402,74.0,160,128,2.0,80.0
4403,71.0,160,120,0.0,80.0
4404,66.0,160,128,2.0,80.0
4405,62.0,160,128,2.0,79.0
4406,71.0,160,120,0.0,79.0
4407,66.0,160,128,2.0,79.0
4408,62.0,160,128,2.0,79.0
4409,59.0,160,120,0.0,79.0
4410,54.0,160,128,2.0,78.0
4411,50.0,160,128,2.0,78.0
4412,59.0,160,120,0.0,78.0
4413,54.0,160,128,2.0,78.0
4414,35.0,160,3315,3.0,86.0
4415,50.0,160,128,2.0,78.0
4416,47.0,0,3330,3.0,86.0
4417,35.0,160,240,3.0,84.0
4418,47.0,0,255,3.0,84.0
4419,50.0,160,128,2.0,77.0
4420,54.0,160,128,2.0,77.0
4421,78.0,480,128,0.0,76.0
4422,74.0,160,128,2.0,76.0
4423,72.0,160,128,2.0,76.0
4424,84.0,160,128,0.0,76.0
4425,78.0,160,128,2.0,76.0
4426,74.0,160,128,2.0,76.0
4427,72.0,160,128,0.0,75.0
4428,66.0,160,128,2.0,75.0
4429,62.0,160,128,2.0,75.0
4430,72.0,160,120,0.0,75.0
4431,66.0,160,128,2.0,75.0
4432,62.0,160,128,2.0,74.0
4433,60.0,160,120,0.0,74.0
4434,54.0,160,128,2.0,74.0
4435,50.0,160,128,2.0,74.0
4436,60.0,160,120,0.0,74.0
4437,54.0,160,128,2.0,73.0
4438,50.0,160,128,2.0,73.0
4439,45.0,160,3330,3.0,82.0
4440,33.0,0,3345,3.0,82.0
4441,36.0,0,240,3.0,79.0
4442,48.0,160,240,3.0,79.0
4443,50.0,160,128,2.0,73.0
4444,54.0,160,128,2.0,73.0
4445,79.0,480,120,0.0,72.0
4446,74.0,160,128,2.0,72.0
4447,71.0,160,128,2.0,72.0
4448,83.0,160,120,0.0,71.0
4449,79.0,160,128,2.0,71.0
4450,74.0,160,128,2.0,71.0
4451,71.0,160,120,0.0,71.0
4452,67.0,160,128,2.0,71.0
4453,62.0,160,128,2.0,70.0
4454,71.0,160,120,0.0,70.0
4455,67.0,160,128,2.0,70.0
4456,62.0,160,128,2.0,70.0
4457,59.0,160,120,0.0,70.0
4458,55.0,160,128,2.0,70.0
4459,50.0,160,128,2.0,69.0
4460,59.0,160,120,0.0,69.0
4461,55.0,160,128,2.0,69.0
4462,50.0,160,128,2.0,69.0
4463,31.0,0,3330,3.0,77.0
4464,43.0,160,3360,3.0,77.0
4465,47.0,0,225,3.0,75.0
4466,35.0,160,226,3.0,75.0
4467,50.0,160,128,2.0,68.0
4468,55.0,160,128,2.0,68.0
4469,75.0,480,120,0.0,67.0
4470,71.0,160,128,2.0,67.0
4471,69.0,160,128,2.0,67.0
4472,81.0,160,120,0.0,67.0
4473,75.0,160,128,2.0,67.0
4474,71.0,160,128,2.0,67.0
4475,69.0,160,120,0.0,66.0
4476,63.0,160,128,2.0,66.0
4477,59.0,160,128,2.0,66.0
4478,69.0,160,120,0.0,66.0
4479,63.0,160,128,2.0,66.0
4480,59.0,160,128,2.0,65.0
4481,57.0,160,120,0.0,65.0
4482,51.0,160,128,2.0,65.0
4483,47.0,160,128,2.0,65.0
4484,57.0,160,120,0.0,65.0
4485,51.0,160,128,2.0,64.0
4486,47.0,160,128,2.0,64.0
4487,30.0,0,3330,3.0,72.0
4488,42.0,160,3330,3.0,72.0
4489,33.0,0,240,3.0,70.0
4490,45.0,160,270,3.0,70.0
4491,47.0,160,128,2.0,64.0
4492,51.0,160,128,2.0,64.0
4493,43.0,160,128,2.0,51.0
4494,47.0,160,128,2.0,51.0
4495,40.0,160,480,3.0,51.0
4496,52.0,0,480,3.0,51.0
4497,52.0,160,120,0.0,51.0
4498,47.0,160,128,2.0,51.0
4499,43.0,160,128,2.0,51.0
4500,55.0,160,120,0.0,51.0
4501,47.0,160,128,2.0,51.0
4502,52.0,160,128,2.0,51.0
4503,55.0,160,120,0.0,50.0
4504,52.0,160,128,2.0,50.0
4505,47.0,160,128,2.0,50.0
4506,59.0,160,120,0.0,50.0
4507,52.0,160,128,2.0,50.0
4508,55.0,160,128,2.0,50.0
4509,59.0,160,120,0.0,50.0
4510,55.0,160,128,2.0,49.0
4511,52.0,160,128,2.0,49.0
4512,64.0,160,120,0.0,49.0
4513,59.0,160,128,2.0,49.0
4514,55.0,160,128,2.0,49.0
4515,63.0,160,120,0.0,49.0
4516,47.0,0,240,3.0,48.0
4517,35.0,0,240,3.0,48.0
4518,57.0,160,128,2.0,49.0
4519,54.0,160,128,2.0,49.0
4520,64.0,0,120,0.0,48.0
4521,52.0,160,240,3.0,48.0
4522,40.0,0,240,3.0,48.0
4523,55.0,160,128,2.0,48.0
4524,59.0,160,128,2.0,48.0
4525,64.0,160,120,0.0,48.0
4526,59.0,160,128,2.0,48.0
4527,55.0,160,128,2.0,48.0
4528,67.0,160,120,0.0,48.0
4529,59.0,160,128,2.0,48.0
4530,64.0,160,128,2.0,47.0
4531,67.0,160,120,0.0,47.0
4532,64.0,160,128,2.0,47.0
4533,59.0,160,128,2.0,47.0
4534,71.0,160,120,0.0,47.0
4535,64.0,160,128,2.0,47.0
4536,67.0,160,128,2.0,47.0
4537,71.0,160,120,0.0,46.0
4538,67.0,160,128,2.0,46.0
4539,64.0,160,128,2.0,46.0
4540,76.0,160,120,0.0,46.0
4541,67.0,160,128,2.0,46.0
4542,71.0,160,128,2.0,46.0
4543,75.0,0,120,0.0,46.0
4544,47.0,160,240,3.0,45.0
4545,59.0,0,240,3.0,45.0
4546,69.0,160,128,2.0,46.0
4547,66.0,160,128,2.0,45.0
4548,76.0,160,120,0.0,45.0
4549,48.0,0,240,3.0,45.0
4550,60.0,0,240,3.0,45.0
4551,67.0,160,128,2.0,45.0
4552,64.0,160,128,2.0,45.0
4553,72.0,160,120,0.0,45.0
4554,67.0,160,128,2.0,45.0
4555,64.0,160,128,2.0,45.0
4556,72.0,160,120,0.0,45.0
4557,65.0,160,128,2.0,44.0
4558,62.0,160,128,2.0,44.0
4559,71.0,160,120,0.0,44.0
4560,44.0,0,240,3.0,43.0
4561,56.0,0,240,3.0,43.0
4562,65.0,160,128,2.0,44.0
4563,62.0,160,128,2.0,44.0
4564,72.0,160,120,0.0,44.0
4565,45.0,0,240,3.0,43.0
4566,57.0,0,240,3.0,43.0
4567,64.0,160,128,2.0,44.0
4568,60.0,160,128,2.0,44.0
4569,69.0,160,120,0.0,43.0
4570,64.0,160,128,2.0,43.0
4571,60.0,160,128,2.0,43.0
4572,69.0,160,120,0.0,43.0
4573,64.0,160,128,2.0,43.0
4574,60.0,160,128,2.0,43.0
4575,66.0,0,120,0.0,43.0
4576,45.0,160,240,3.0,42.0
4577,33.0,0,240,3.0,42.0
4578,64.0,160,128,2.0,42.0
4579,60.0,160,128,2.0,42.0
4580,35.0,160,240,3.0,41.0
4581,47.0,0,240,3.0,41.0
4582,59.0,160,128,2.0,42.0
4583,64.0,160,128,2.0,42.0
4584,67.0,160,128,2.0,42.0
4585,67.0,0,240,0.0,42.0
4586,64.0,160,128,2.0,42.0
4587,59.0,160,128,2.0,42.0
4588,47.0,160,240,3.0,41.0
4589,35.0,0,240,3.0,41.0
4590,57.0,160,128,2.0,41.0
4591,63.0,160,128,2.0,41.0
4592,66.0,0,128,2.0,41.0
4593,66.0,160,240,0.0,41.0
4594,63.0,160,128,2.0,41.0
4595,57.0,160,128,2.0,41.0
4596,48.0,160,240,3.0,40.0
4597,36.0,0,240,3.0,40.0
4598,64.0,160,128,2.0,41.0
4599,67.0,160,128,2.0,40.0
4600,76.0,160,120,0.0,40.0
4601,67.0,160,128,2.0,40.0
4602,64.0,160,128,2.0,40.0
4603,72.0,160,120,0.0,40.0
4604,65.0,160,128,2.0,40.0
4605,62.0,160,128,2.0,40.0
4606,71.0,160,120,0.0,40.0
4607,44.0,0,240,3.0,38.0
4608,32.0,0,240,3.0,38.0
4609,65.0,160,128,2.0,39.0
4610,62.0,160,128,2.0,39.0
4611,33.0,160,240,3.0,38.0
4612,45.0,0,240,3.0,38.0
4613,60.0,160,128,2.0,39.0
4614,64.0,160,128,2.0,39.0
4615,72.0,160,120,0.0,39.0
4616,64.0,160,128,2.0,39.0
4617,60.0,160,128,2.0,38.0
4618,69.0,160,120,0.0,38.0
4619,64.0,160,128,2.0,38.0
4620,60.0,160,128,2.0,38.0
4621,66.0,0,120,0.0,38.0
4622,33.0,0,240,3.0,37.0
4623,45.0,160,240,3.0,37.0
4624,64.0,160,128,2.0,38.0
4625,60.0,160,128,2.0,38.0
4626,46.0,0,240,3.0,36.0
4627,34.0,160,240,3.0,36.0
4628,61.0,160,128,2.0,37.0
4629,64.0,160,128,2.0,37.0
4630,67.0,160,240,0.0,37.0
4631,64.0,160,128,2.0,37.0
4632,61.0,160,128,2.0,37.0
4633,46.0,0,240,3.0,36.0
4634,34.0,160,240,3.0,36.0
4635,55.0,160,128,2.0,37.0
4636,61.0,160,128,2.0,37.0
4637,64.0,160,240,0.0,36.0
4638,61.0,160,128,2.0,36.0
4639,55.0,160,128,2.0,36.0
4640,63.0,480,240,0.0,36.0
4641,59.0,160,160,2.0,36.0
4642,54.0,160,160,2.0,35.0
4643,66.0,160,240,0.0,35.0
4644,63.0,160,160,2.0,35.0
4645,59.0,160,160,2.0,35.0
4646,71.0,160,240,0.0,35.0
4647,66.0,160,160,2.0,35.0
4648,47.0,160,1920,3.0,39.0
4649,63.0,160,160,2.0,35.0
4650,35.0,160,0,3.0,37.0
4651,67.0,480,240,0.0,34.0
4652,64.0,160,160,2.0,34.0
4653,59.0,160,160,2.0,34.0
4654,64.0,160,240,0.0,34.0
4655,59.0,160,160,2.0,34.0
4656,55.0,160,160,2.0,33.0
4657,59.0,160,240,0.0,33.0
4658,55.0,160,160,2.0,33.0
4659,52.0,160,160,2.0,33.0
4660,35.0,0,0,3.0,32.0
4661,47.0,160,0,3.0,32.0
4662,63.0,480,240,0.0,29.0
4663,59.0,160,160,2.0,29.0
4664,54.0,160,160,2.0,29.0
4665,66.0,160,240,0.0,28.0
4666,63.0,160,160,2.0,28.0
4667,59.0,160,160,2.0,28.0
4668,71.0,160,240,0.0,28.0
4669,66.0,160,160,2.0,28.0
4670,47.0,160,0,3.0,33.0
4671,63.0,160,160,2.0,28.0
4672,67.0,480,240,0.0,27.0
4673,64.0,160,160,2.0,27.0
4674,59.0,160,160,2.0,27.0
4675,64.0,160,240,0.0,26.0
4676,59.0,160,160,2.0,26.0
4677,55.0,160,160,2.0,26.0
4678,59.0,160,240,0.0,26.0
4679,55.0,160,160,2.0,26.0
4680,52.0,160,160,2.0,26.0
4681,35.0,0,1920,3.0,33.0
4682,47.0,160,160,0.0,29.0
4683,48.0,160,160,0.0,30.0
4684,49.0,160,160,0.0,31.0
4685,50.0,160,160,0.0,32.0
4686,51.0,160,160,0.0,34.0
4687,52.0,160,160,0.0,35.0
4688,53.0,160,160,0.0,36.0
4689,54.0,160,160,0.0,37.0
4690,55.0,160,160,0.0,38.0
4691,56.0,160,160,0.0,39.0
4692,57.0,160,160,0.0,40.0
4693,58.0,160,160,0.0,42.0
4694,59.0,160,160,0.0,43.0
4695,60.0,160,160,0.0,44.0
4696,61.0,160,160,0.0,45.0
4697,62.0,160,160,0.0,46.0
4698,63.0,160,160,0.0,47.0
4699,64.0,160,160,0.0,49.0
4700,65.0,160,160,0.0,50.0
4701,66.0,160,160,0.0,51.0
4702,67.0,160,160,0.0,52.0
4703,68.0,160,160,0.0,53.0
4704,69.0,160,160,0.0,54.0
4705,70.0,160,160,0.0,55.0
4706,71.0,160,160,0.0,57.0
4707,72.0,160,160,0.0,58.0
4708,73.0,160,160,0.0,59.0
4709,74.0,160,160,0.0,60.0
4710,75.0,160,160,0.0,61.0
4711,76.0,160,160,0.0,63.0
4712,77.0,160,160,0.0,66.0
4713,78.0,160,160,0.0,68.0
4714,79.0,160,160,0.0,71.0
4715,80.0,160,160,0.0,73.0
4716,81.0,160,160,0.0,76.0
4717,82.0,160,160,0.0,79.0
4718,47.0,0,7680,3.0,45.0
4719,83.0,160,3840,0.0,70.0
4720,35.0,0,9600,3.0,42.0
4721,59.0,160,160,2.0,38.0
4722,56.0,4800,472,3.0,40.0
4723,64.0,160,160,2.0,38.0
4724,71.0,0,480,0.0,40.0
4725,57.0,160,160,2.0,38.0
4726,54.0,0,472,3.0,41.0
4727,63.0,0,480,1.0,40.0
4728,75.0,160,480,0.0,40.0
4729,59.0,160,160,2.0,39.0
4730,56.0,160,160,2.0,39.0
4731,52.0,0,472,3.0,42.0
4732,59.0,160,160,2.0,39.0
4733,54.0,160,160,2.0,39.0
4734,51.0,160,472,3.0,43.0
4735,64.0,160,0,1.0,42.0
4736,59.0,160,160,2.0,40.0
4737,76.0,160,960,0.0,41.0
4738,76.0,0,240,0.0,42.0
4739,52.0,160,160,2.0,40.0
4740,49.0,0,472,3.0,44.0
4741,57.0,160,160,2.0,40.0
4742,64.0,0,240,1.0,42.0
4743,76.0,0,240,0.0,42.0
4744,51.0,160,160,2.0,41.0
4745,47.0,160,472,3.0,45.0
4746,56.0,160,160,2.0,41.0
4747,49.0,160,160,2.0,43.0
4748,45.0,0,472,3.0,46.0
4749,54.0,160,160,2.0,44.0
4750,78.0,0,720,0.0,43.0
4751,66.0,160,720,1.0,43.0
4752,47.0,160,160,2.0,45.0
4753,44.0,160,472,3.0,48.0
4754,80.0,80,240,0.0,44.0
4755,68.0,0,240,1.0,44.0
4756,52.0,80,160,2.0,46.0
4757,81.0,0,240,0.0,46.0
4758,69.0,0,240,1.0,46.0
4759,45.0,160,160,2.0,48.0
4760,42.0,160,472,3.0,50.0
4761,51.0,160,160,2.0,48.0
4762,81.0,160,240,0.0,49.0
4763,69.0,0,240,1.0,49.0
4764,44.0,160,160,2.0,50.0
4765,40.0,0,472,3.0,52.0
4766,49.0,160,160,2.0,51.0
4767,81.0,160,240,0.0,52.0
4768,69.0,0,240,1.0,52.0
4769,42.0,160,160,2.0,52.0
4770,39.0,0,472,3.0,55.0
4771,47.0,160,160,2.0,53.0
4772,69.0,0,240,1.0,57.0
4773,81.0,0,240,0.0,56.0
4774,44.0,160,160,2.0,55.0
4775,40.0,160,472,3.0,57.0
4776,47.0,160,160,2.0,57.0
4777,69.0,160,240,1.0,62.0
4778,81.0,0,240,0.0,61.0
4779,42.0,160,160,2.0,60.0
4780,39.0,0,472,3.0,62.0
4781,47.0,160,160,2.0,62.0
4782,69.0,0,240,1.0,68.0
4783,81.0,160,240,0.0,70.0
4784,40.0,160,160,2.0,65.0
4785,37.0,0,472,3.0,67.0
4786,47.0,160,160,2.0,67.0
4787,39.0,0,480,2.0,68.0
4788,47.0,480,345,2.0,49.0
4789,35.0,0,825,3.0,74.0
4790,69.0,160,960,1.0,76.0
4791,81.0,0,960,0.0,79.0
4792,81.0,480,120,0.0,55.0
4793,80.0,120,120,0.0,55.0
4794,78.0,120,120,0.0,54.0
4795,76.0,120,120,0.0,54.0
4796,75.0,120,120,0.0,54.0
4797,73.0,120,120,0.0,53.0
4798,71.0,120,120,0.0,53.0
4799,69.0,120,120,0.0,53.0
4800,68.0,120,480,0.0,52.0
4801,52.0,0,960,3.0,47.0
4802,59.0,0,960,3.0,53.0
4803,71.0,480,960,0.0,61.0
4804,66.0,0,360,0.0,52.0
4805,63.0,0,960,1.0,46.0
4806,57.0,480,480,3.0,49.0
4807,47.0,480,960,3.0,51.0
4808,68.0,360,120,0.0,49.0
4809,56.0,120,480,3.0,48.0
4810,64.0,0,480,0.0,48.0
4811,59.0,480,240,3.0,46.0
4812,52.0,0,744,3.0,48.0
4813,69.0,480,120,0.0,45.0
4814,68.0,120,120,0.0,44.0
4815,66.0,120,120,0.0,44.0
4816,64.0,120,120,0.0,44.0
4817,63.0,120,120,0.0,43.0
4818,61.0,120,120,0.0,43.0
4819,59.0,120,120,0.0,43.0
4820,57.0,120,120,0.0,42.0
4821,56.0,0,480,0.0,42.0
4822,40.0,120,960,3.0,43.0
4823,47.0,480,960,3.0,51.0
4824,59.0,0,960,0.0,51.0
4825,45.0,480,240,3.0,45.0
4826,54.0,0,360,0.0,43.0
4827,51.0,0,960,1.0,41.0
4828,56.0,360,120,0.0,39.0
4829,39.0,480,960,3.0,48.0
4830,40.0,0,480,3.0,42.0
4831,52.0,120,480,0.0,38.0
4832,44.0,0,480,3.0,42.0
4833,52.0,480,240,3.0,40.0
4834,62.0,480,120,3.0,53.0
4835,61.0,120,120,3.0,53.0
4836,59.0,120,120,3.0,52.0
4837,57.0,120,120,3.0,52.0
4838,56.0,120,120,3.0,51.0
4839,54.0,120,120,3.0,51.0
4840,52.0,120,120,3.0,51.0
4841,50.0,120,120,3.0,50.0
4842,49.0,120,480,3.0,50.0
4843,52.0,480,480,3.0,57.0
4844,86.0,0,120,0.0,45.0
4845,85.0,120,120,0.0,44.0
4846,83.0,120,120,0.0,44.0
4847,81.0,120,120,0.0,44.0
4848,44.0,480,480,3.0,52.0
4849,80.0,0,120,0.0,43.0
4850,78.0,120,120,0.0,43.0
4851,76.0,120,120,0.0,43.0
4852,52.0,120,480,3.0,46.0
4853,74.0,120,120,0.0,42.0
4854,73.0,120,480,0.0,42.0
4855,76.0,480,480,0.0,49.0
4856,45.0,0,960,3.0,44.0
4857,50.0,0,120,3.0,41.0
4858,49.0,120,120,3.0,41.0
4859,47.0,120,120,3.0,40.0
4860,68.0,480,480,0.0,45.0
4861,45.0,120,120,3.0,40.0
4862,44.0,0,120,3.0,39.0
4863,42.0,120,120,3.0,39.0
4864,40.0,120,120,3.0,39.0
4865,76.0,120,480,0.0,40.0
4866,38.0,120,120,3.0,38.0
4867,37.0,0,480,3.0,38.0
4868,69.0,120,960,0.0,36.0
4869,40.0,480,480,3.0,47.0
4870,62.0,0,120,0.0,35.0
4871,61.0,120,120,0.0,34.0
4872,59.0,120,120,0.0,34.0
4873,57.0,120,120,0.0,34.0
4874,56.0,0,120,0.0,33.0
4875,54.0,120,120,0.0,33.0
4876,52.0,120,120,0.0,33.0
4877,50.0,120,120,0.0,32.0
4878,32.0,480,960,3.0,40.0
4879,40.0,120,480,3.0,35.0
4880,49.0,120,120,0.0,32.0
4881,50.0,120,120,0.0,33.0
4882,52.0,120,120,0.0,35.0
4883,54.0,120,120,0.0,36.0
4884,56.0,0,120,0.0,38.0
4885,57.0,120,120,0.0,39.0
4886,59.0,120,120,0.0,41.0
4887,33.0,0,960,3.0,32.0
4888,61.0,120,120,0.0,42.0
4889,45.0,120,480,3.0,38.0
4890,45.0,480,480,3.0,50.0
4891,47.0,0,960,3.0,44.0
4892,35.0,120,960,3.0,44.0
4893,62.0,0,960,0.0,44.0
4894,64.0,0,120,0.0,56.0
4895,66.0,120,120,0.0,57.0
4896,68.0,120,120,0.0,59.0
4897,69.0,120,120,0.0,60.0
4898,71.0,0,120,0.0,62.0
4899,73.0,120,120,0.0,63.0
4900,74.0,120,120,0.0,65.0
4901,45.0,120,480,3.0,61.0
4902,37.0,0,960,3.0,55.0
4903,49.0,480,960,3.0,55.0
4904,76.0,120,120,0.0,66.0
4905,39.0,0,960,3.0,67.0
4906,51.0,120,960,3.0,67.0
4907,78.0,0,960,0.0,68.0
4908,45.0,480,480,3.0,73.0
4909,80.0,0,80,0.0,74.0
4910,81.0,80,80,0.0,74.0
4911,80.0,80,80,0.0,74.0
4912,40.0,480,240,3.0,78.0
4913,52.0,0,240,3.0,78.0
4914,78.0,80,120,0.0,74.0
4915,80.0,120,120,0.0,74.0
4916,42.0,120,240,3.0,79.0
4917,81.0,0,240,0.0,78.0
4918,54.0,0,240,3.0,79.0
4919,71.0,0,80,0.0,76.0
4920,73.0,80,80,0.0,76.0
4921,71.0,80,80,0.0,76.0
4922,51.0,480,240,3.0,80.0
4923,39.0,0,240,3.0,80.0
4924,70.0,80,120,0.0,77.0
4925,71.0,120,120,0.0,77.0
4926,52.0,0,240,3.0,82.0
4927,40.0,120,240,3.0,82.0
4928,76.0,0,240,0.0,83.0
4929,33.0,0,240,3.0,83.0
4930,45.0,0,240,3.0,83.0
4931,69.0,480,240,0.0,85.0
4932,81.0,960,960,0.0,40.0
4933,69.0,960,960,0.0,42.0
4934,65.0,960,960,0.0,43.0
4935,50.0,480,240,3.0,48.0
4936,62.0,960,960,1.0,47.0
4937,71.0,0,960,0.0,47.0
4938,66.0,960,1920,0.0,45.0
4939,52.0,480,240,3.0,49.0
4940,69.0,0,960,0.0,49.0
4941,61.0,0,960,1.0,49.0
4942,64.0,480,960,1.0,49.0
4943,69.0,0,240,0.0,46.0
4944,68.0,240,240,0.0,45.0
4945,40.0,240,240,3.0,46.0
4946,66.0,0,240,0.0,44.0
4947,68.0,240,240,0.0,43.0
4948,62.0,0,960,1.0,46.0
4949,59.0,480,960,1.0,46.0
4950,45.0,0,240,3.0,44.0
4951,69.0,240,480,0.0,43.0
4952,61.0,0,480,1.0,43.0
4953,57.0,0,480,1.0,43.0
4954,57.0,480,240,3.0,42.0
4955,81.0,480,240,0.0,26.0
4956,81.0,480,480,0.0,29.0
4957,69.0,480,240,0.0,27.0
4958,69.0,480,480,0.0,31.0
4959,64.0,480,240,0.0,29.0
4960,64.0,480,480,0.0,32.0
4961,41.0,480,240,3.0,31.0
4962,53.0,0,240,3.0,31.0
4963,70.0,960,960,0.0,32.0
4964,65.0,480,1920,0.0,30.0
4965,62.0,0,960,1.0,32.0
4966,53.0,480,240,3.0,35.0
4967,41.0,0,240,3.0,35.0
4968,65.0,0,960,1.0,35.0
4969,60.0,0,960,1.0,35.0
4970,69.0,480,960,0.0,35.0
4971,69.0,0,240,0.0,33.0
4972,67.0,240,240,0.0,33.0
4973,53.0,0,240,3.0,34.0
4974,65.0,0,240,0.0,32.0
4975,41.0,240,240,3.0,34.0
4976,64.0,0,960,1.0,33.0
4977,58.0,480,960,1.0,33.0
4978,67.0,240,240,0.0,32.0
4979,53.0,0,240,3.0,32.0
4980,41.0,480,240,3.0,32.0
4981,65.0,0,960,0.0,31.0
4982,60.0,0,0,1.0,29.0
4983,57.0,0,0,1.0,29.0
4984,53.0,0,240,3.0,30.0
4985,41.0,480,240,3.0,30.0
4986,64.0,480,960,0.0,29.0
4987,60.0,480,0,1.0,27.0
4988,42.0,0,240,3.0,29.0
4989,54.0,480,240,3.0,29.0
4990,63.0,0,960,0.0,27.0
4991,57.0,0,960,1.0,27.0
4992,42.0,480,240,3.0,27.0
4993,54.0,0,240,3.0,27.0
4994,57.0,0,1920,1.0,25.0
4995,59.0,0,1920,1.0,25.0
4996,63.0,480,1920,0.0,25.0
4997,59.0,160,160,2.0,39.0
4998,56.0,3360,472,3.0,46.0
4999,64.0,80,160,2.0,39.0
5000,71.0,80,480,0.0,42.0
5001,57.0,160,160,2.0,40.0
5002,54.0,160,472,3.0,47.0
5003,63.0,0,240,1.0,45.0
5004,59.0,80,160,2.0,41.0
5005,75.0,80,480,0.0,45.0
5006,56.0,160,160,2.0,42.0
5007,52.0,160,472,3.0,48.0
5008,59.0,80,160,2.0,42.0
5009,76.0,0,480,0.0,47.0
5010,64.0,80,0,1.0,49.0
5011,54.0,160,160,2.0,43.0
5012,51.0,160,472,3.0,50.0
5013,59.0,80,160,2.0,44.0
5014,64.0,80,0,1.0,51.0
5015,76.0,0,480,0.0,49.0
5016,52.0,160,160,2.0,45.0
5017,49.0,160,472,3.0,51.0
5018,57.0,80,160,2.0,45.0
5019,76.0,80,0,0.0,54.0
5020,51.0,160,160,2.0,46.0
5021,47.0,160,472,3.0,53.0
5022,56.0,80,160,2.0,47.0
5023,64.0,0,480,1.0,54.0
5024,49.0,160,160,2.0,49.0
5025,45.0,160,472,3.0,56.0
5026,54.0,80,160,2.0,50.0
5027,78.0,80,480,0.0,56.0
5028,66.0,0,480,1.0,56.0
5029,47.0,160,160,2.0,52.0
5030,44.0,160,472,3.0,59.0
5031,52.0,80,160,2.0,53.0
5032,80.0,80,480,0.0,58.0
5033,68.0,0,480,1.0,58.0
5034,45.0,160,160,2.0,54.0
5035,42.0,160,472,3.0,62.0
5036,51.0,80,160,2.0,55.0
5037,69.0,0,480,1.0,61.0
5038,81.0,0,0,0.0,63.0
5039,44.0,160,160,2.0,56.0
5040,40.0,160,472,3.0,65.0
5041,49.0,80,160,2.0,58.0
5042,69.0,0,0,1.0,68.0
5043,42.0,160,160,2.0,62.0
5044,39.0,160,472,3.0,68.0
5045,47.0,80,160,2.0,64.0
5046,81.0,80,0,0.0,75.0
5047,44.0,160,160,2.0,65.0
5048,40.0,160,472,3.0,73.0
5049,47.0,80,160,2.0,68.0
5050,69.0,80,0,1.0,80.0
5051,42.0,160,160,2.0,73.0
5052,39.0,160,472,3.0,78.0
5053,47.0,80,160,2.0,76.0
5054,81.0,80,0,0.0,88.0
5055,40.0,160,160,2.0,82.0
5056,37.0,160,472,3.0,83.0
5057,69.0,160,0,1.0,96.0
5058,81.0,0,0,0.0,96.0
5059,47.0,80,160,2.0,84.0
5060,39.0,0,480,2.0,87.0
5061,35.0,0,720,3.0,93.0
5062,47.0,480,240,2.0,79.0
5063,81.0,480,0,0.0,87.0
5064,69.0,0,240,1.0,87.0
5065,81.0,240,240,0.0,86.0
5066,69.0,0,240,1.0,86.0
5067,47.0,0,480,3.0,89.0
5068,35.0,240,480,3.0,89.0
5069,68.0,0,240,1.0,85.0
5070,51.0,240,480,3.0,88.0
5071,80.0,240,240,0.0,85.0
5072,39.0,0,480,3.0,88.0
5073,52.0,240,480,3.0,86.0
5074,40.0,0,0,3.0,85.0
5075,66.0,240,240,1.0,84.0
5076,78.0,0,240,0.0,84.0
5077,64.0,240,240,1.0,83.0
5078,76.0,0,240,0.0,83.0
5079,52.0,240,480,3.0,85.0
5080,52.0,0,480,3.0,84.0
5081,63.0,240,240,1.0,82.0
5082,75.0,0,240,0.0,82.0
5083,40.0,240,0,3.0,82.0
5084,61.0,240,240,1.0,81.0
5085,52.0,0,480,3.0,82.0
5086,73.0,0,240,0.0,81.0
5087,60.0,0,240,1.0,80.0
5088,52.0,240,480,3.0,81.0
5089,40.0,0,480,3.0,81.0
5090,72.0,240,240,0.0,80.0
5091,52.0,240,0,3.0,78.0
5092,40.0,0,480,3.0,80.0
5093,73.0,0,240,0.0,79.0
5094,61.0,240,240,1.0,79.0
5095,40.0,0,480,3.0,78.0
5096,57.0,240,240,1.0,77.0
5097,69.0,0,240,0.0,77.0
5098,57.0,0,240,1.0,76.0
5099,53.0,240,480,3.0,77.0
5100,41.0,0,480,3.0,77.0
5101,69.0,240,240,0.0,76.0
5102,68.0,0,240,0.0,75.0
5103,56.0,240,240,1.0,75.0
5104,42.0,240,480,3.0,76.0
5105,54.0,0,480,3.0,76.0
5106,56.0,0,480,3.0,74.0
5107,66.0,240,240,0.0,74.0
5108,44.0,240,480,3.0,74.0
5109,57.0,0,480,3.0,73.0
5110,64.0,240,240,0.0,73.0
5111,45.0,240,0,3.0,71.0
5112,63.0,240,240,0.0,72.0
5113,57.0,0,480,3.0,71.0
5114,66.0,240,240,0.0,71.0
5115,45.0,0,480,3.0,70.0
5116,57.0,240,480,3.0,70.0
5117,69.0,240,240,0.0,70.0
5118,57.0,0,0,3.0,67.0
5119,45.0,240,0,3.0,67.0
5120,72.0,240,240,0.0,69.0
5121,57.0,240,0,3.0,66.0
5122,45.0,0,0,3.0,66.0
5123,57.0,0,0,3.0,80.0
5124,62.0,240,120,0.0,77.0
5125,66.0,120,120,0.0,67.0
5126,72.0,120,120,0.0,67.0
5127,74.0,120,120,0.0,67.0
5128,62.0,120,120,0.0,67.0
5129,66.0,120,120,0.0,66.0
5130,72.0,120,120,0.0,66.0
5131,45.0,0,960,3.0,80.0
5132,74.0,120,120,0.0,66.0
5133,62.0,0,120,0.0,65.0
5134,66.0,120,120,0.0,65.0
5135,36.0,0,240,3.0,67.0
5136,48.0,120,240,3.0,67.0
5137,69.0,120,120,0.0,65.0
5138,74.0,120,120,0.0,65.0
5139,62.0,0,120,0.0,64.0
5140,48.0,0,240,3.0,66.0
5141,36.0,120,240,3.0,66.0
5142,66.0,120,120,0.0,64.0
5143,69.0,120,120,0.0,64.0
5144,74.0,120,120,0.0,64.0
5145,62.0,0,120,0.0,73.0
5146,66.0,120,120,0.0,63.0
5147,69.0,120,120,0.0,63.0
5148,74.0,120,120,0.0,62.0
5149,62.0,120,120,0.0,62.0
5150,66.0,120,120,0.0,62.0
5151,69.0,120,120,0.0,62.0
5152,74.0,120,120,0.0,61.0
5153,33.0,120,960,3.0,76.0
5154,45.0,0,960,3.0,76.0
5155,60.0,120,120,0.0,61.0
5156,66.0,120,120,0.0,61.0
5157,51.0,0,240,3.0,61.0
5158,39.0,0,240,3.0,61.0
5159,69.0,120,120,0.0,61.0
5160,72.0,120,120,0.0,60.0
5161,60.0,0,120,0.0,60.0
5162,39.0,120,240,3.0,60.0
5163,66.0,120,120,0.0,60.0
5164,51.0,0,240,3.0,60.0
5165,69.0,120,120,0.0,60.0
5166,72.0,120,120,0.0,59.0
5167,60.0,0,120,0.0,70.0
5168,66.0,120,120,0.0,59.0
5169,69.0,120,120,0.0,58.0
5170,72.0,120,120,0.0,58.0
5171,60.0,120,120,0.0,58.0
5172,66.0,120,120,0.0,58.0
5173,69.0,120,120,0.0,57.0
5174,39.0,120,960,3.0,73.0
5175,72.0,120,120,0.0,57.0
5176,51.0,0,960,3.0,73.0
5177,59.0,0,120,0.0,57.0
5178,63.0,120,120,0.0,57.0
5179,42.0,120,240,3.0,56.0
5180,54.0,0,240,3.0,56.0
5181,69.0,120,120,0.0,56.0
5182,71.0,120,120,0.0,56.0
5183,59.0,0,120,0.0,56.0
5184,63.0,120,120,0.0,55.0
5185,42.0,120,240,3.0,54.0
5186,54.0,0,240,3.0,54.0
5187,69.0,120,120,0.0,55.0
5188,71.0,120,120,0.0,55.0
5189,59.0,0,120,0.0,54.0
5190,42.0,120,240,3.0,53.0
5191,54.0,0,240,3.0,53.0
5192,63.0,120,120,0.0,54.0
5193,69.0,120,120,0.0,54.0
5194,71.0,120,120,0.0,54.0
5195,59.0,120,120,0.0,54.0
5196,54.0,0,240,3.0,51.0
5197,42.0,0,240,3.0,51.0
5198,63.0,120,120,0.0,53.0
5199,69.0,120,120,0.0,53.0
5200,71.0,120,120,0.0,53.0
5201,59.0,0,120,0.0,52.0
5202,54.0,120,240,3.0,50.0
5203,42.0,0,240,3.0,50.0
5204,63.0,120,120,0.0,52.0
5205,69.0,120,120,0.0,52.0
5206,71.0,120,120,0.0,52.0
5207,59.0,120,120,0.0,51.0
5208,63.0,120,120,0.0,51.0
5209,42.0,0,240,3.0,48.0
5210,54.0,0,240,3.0,48.0
5211,69.0,120,120,0.0,51.0
5212,71.0,120,120,0.0,51.0
5213,42.0,0,1920,3.0,47.0
5214,71.0,0,1920,0.0,50.0
5215,69.0,0,1920,0.0,50.0
5216,63.0,0,1920,0.0,50.0
5217,54.0,120,1920,3.0,47.0
5218,59.0,0,1920,0.0,50.0
5219,71.0,0,240,0.0,35.0
5220,59.0,160,160,2.0,30.0
5221,56.0,2880,472,3.0,36.0
5222,64.0,80,160,2.0,30.0
5223,73.0,80,240,0.0,35.0
5224,74.0,160,240,0.0,36.0
5225,57.0,160,160,2.0,31.0
5226,54.0,0,472,3.0,37.0
5227,59.0,80,160,2.0,31.0
5228,75.0,80,240,0.0,37.0
5229,76.0,0,240,0.0,38.0
5230,56.0,160,160,2.0,32.0
5231,52.0,160,472,3.0,38.0
5232,59.0,160,160,2.0,32.0
5233,54.0,160,160,2.0,33.0
5234,51.0,160,472,3.0,39.0
5235,59.0,160,160,2.0,33.0
5236,64.0,160,240,0.0,41.0
5237,52.0,160,160,2.0,34.0
5238,49.0,0,472,3.0,40.0
5239,57.0,80,160,2.0,34.0
5240,66.0,80,240,0.0,41.0
5241,67.0,0,240,0.0,42.0
5242,51.0,160,160,2.0,35.0
5243,47.0,160,472,3.0,41.0
5244,68.0,80,240,0.0,43.0
5245,56.0,80,160,2.0,36.0
5246,69.0,160,240,0.0,44.0
5247,49.0,160,160,2.0,37.0
5248,45.0,0,472,3.0,42.0
5249,54.0,160,160,2.0,38.0
5250,47.0,160,160,2.0,39.0
5251,44.0,160,472,3.0,44.0
5252,52.0,160,160,2.0,39.0
5253,76.0,0,240,0.0,47.0
5254,45.0,160,160,2.0,40.0
5255,42.0,160,472,3.0,47.0
5256,51.0,80,160,2.0,41.0
5257,78.0,80,240,0.0,48.0
5258,79.0,0,240,0.0,48.0
5259,44.0,160,160,2.0,42.0
5260,40.0,160,472,3.0,50.0
5261,49.0,80,160,2.0,42.0
5262,80.0,80,240,0.0,49.0
5263,81.0,160,240,0.0,50.0
5264,42.0,160,160,2.0,44.0
5265,39.0,0,472,3.0,53.0
5266,47.0,160,160,2.0,45.0
5267,44.0,160,160,2.0,48.0
5268,40.0,160,472,3.0,55.0
5269,47.0,160,160,2.0,49.0
5270,81.0,160,240,0.0,58.0
5271,42.0,160,160,2.0,51.0
5272,39.0,0,472,3.0,58.0
5273,80.0,80,240,0.0,60.0
5274,47.0,80,160,2.0,52.0
5275,81.0,0,240,0.0,61.0
5276,40.0,160,160,2.0,56.0
5277,37.0,160,472,3.0,63.0
5278,80.0,80,240,0.0,63.0
5279,47.0,80,160,2.0,58.0
5280,81.0,160,240,0.0,74.0
5281,39.0,0,480,2.0,62.0
5282,39.0,0,480,3.0,68.0
5283,35.0,0,720,3.0,68.0
5284,47.0,480,240,2.0,45.0
5285,81.0,480,120,0.0,53.0
5286,80.0,120,120,0.0,52.0
5287,78.0,120,120,0.0,50.0
5288,76.0,120,120,0.0,49.0
5289,75.0,120,120,0.0,48.0
5290,73.0,120,120,0.0,47.0
5291,71.0,120,120,0.0,46.0
5292,69.0,120,120,0.0,44.0
5293,68.0,120,480,0.0,43.0
5294,71.0,480,480,0.0,46.0
5295,57.0,0,120,3.0,41.0
5296,56.0,120,120,3.0,41.0
5297,54.0,120,120,3.0,40.0
5298,52.0,120,120,3.0,40.0
5299,63.0,480,480,0.0,42.0
5300,51.0,0,120,3.0,40.0
5301,49.0,120,120,3.0,40.0
5302,47.0,120,120,3.0,39.0
5303,71.0,120,480,0.0,39.0
5304,45.0,120,120,3.0,39.0
5305,44.0,0,480,3.0,39.0
5306,64.0,120,960,0.0,35.0
5307,47.0,480,480,3.0,43.0
5308,69.0,480,120,0.0,33.0
5309,68.0,120,120,0.0,33.0
5310,66.0,120,120,0.0,32.0
5311,64.0,120,120,0.0,32.0
5312,39.0,0,480,3.0,39.0
5313,63.0,120,120,0.0,31.0
5314,61.0,120,120,0.0,31.0
5315,59.0,120,120,0.0,31.0
5316,57.0,120,120,0.0,30.0
5317,47.0,0,480,3.0,36.0
5318,56.0,120,120,0.0,32.0
5319,57.0,120,120,0.0,34.0
5320,59.0,120,120,0.0,35.0
5321,61.0,120,120,0.0,37.0
5322,63.0,0,120,0.0,39.0
5323,64.0,120,120,0.0,40.0
5324,66.0,120,120,0.0,42.0
5325,40.0,0,960,3.0,36.0
5326,52.0,120,480,3.0,42.0
5327,68.0,120,120,0.0,44.0
5328,69.0,120,960,0.0,50.0
5329,42.0,0,960,3.0,48.0
5330,54.0,0,960,3.0,48.0
5331,52.0,480,480,3.0,54.0
5332,71.0,480,120,0.0,59.0
5333,73.0,120,120,0.0,61.0
5334,75.0,120,120,0.0,62.0
5335,76.0,120,120,0.0,64.0
5336,78.0,120,120,0.0,66.0
5337,80.0,120,120,0.0,67.0
5338,81.0,120,120,0.0,69.0
5339,52.0,0,480,3.0,67.0
5340,44.0,0,960,3.0,61.0
5341,56.0,0,960,3.0,61.0
5342,83.0,120,120,0.0,71.0
5343,52.0,480,480,3.0,79.0
5344,57.0,0,960,3.0,73.0
5345,45.0,0,960,3.0,73.0
5346,85.0,120,960,0.0,78.0
5347,82.0,0,125,0.0,78.0
5348,83.0,80,125,0.0,79.0
5349,82.0,80,125,0.0,81.0
5350,83.0,80,125,0.0,83.0
5351,82.0,80,125,0.0,84.0
5352,83.0,80,125,0.0,86.0
5353,82.0,0,125,0.0,88.0
5354,83.0,80,125,0.0,89.0
5355,82.0,80,125,0.0,91.0
5356,81.0,80,165,0.0,93.0
5357,61.0,480,960,3.0,85.0
5358,49.0,0,960,3.0,85.0
5359,52.0,80,480,3.0,91.0
5360,82.0,120,120,0.0,95.0
5361,59.0,0,240,3.0,97.0
5362,47.0,120,240,3.0,97.0
5363,83.0,0,240,0.0,100.0
5364,71.0,0,240,0.0,110.0
5365,83.0,0,240,0.0,110.0
5366,59.0,0,240,3.0,108.0
5367,47.0,480,240,3.0,108.0
5368,52.0,480,240,3.0,117.0
5369,64.0,0,240,0.0,116.0
5370,76.0,0,240,0.0,116.0
5371,40.0,0,240,3.0,117.0
