,note,step,duration,channel,velocity
0,64.0,0,240,1.0,46.0
1,68.0,0,480,0.0,46.0
2,59.0,240,240,1.0,48.0
3,52.0,0,480,2.0,46.0
4,51.0,0,240,2.0,49.0
5,66.0,0,240,1.0,49.0
6,69.0,240,240,0.0,49.0
7,68.0,0,240,1.0,51.0
8,71.0,0,480,0.0,51.0
9,50.0,240,480,2.0,50.0
10,64.0,240,240,1.0,53.0
11,73.0,0,240,0.0,54.0
12,49.0,240,240,2.0,52.0
13,69.0,0,480,1.0,54.0
14,76.0,240,480,0.0,57.0
15,66.0,240,240,1.0,54.0
16,74.0,0,240,0.0,51.0
17,40.0,0,2160,3.0,46.0
18,71.0,240,240,1.0,51.0
19,47.0,0,720,2.0,55.0
20,52.0,0,360,2.0,47.0
21,40.0,0,360,3.0,47.0
22,71.0,240,363,0.0,48.0
23,68.0,0,367,1.0,48.0
24,69.0,480,480,0.0,47.0
25,66.0,240,480,2.0,53.0
26,81.0,0,480,0.0,55.0
27,64.0,240,240,2.0,51.0
28,80.0,0,240,0.0,53.0
29,69.0,240,0,1.0,50.0
30,62.0,240,480,2.0,51.0
31,78.0,0,480,0.0,51.0
32,61.0,240,240,2.0,49.0
33,57.0,0,720,3.0,51.0
34,76.0,0,240,0.0,49.0
35,49.0,0,480,3.0,51.0
36,78.0,0,480,0.0,51.0
37,50.0,0,240,3.0,48.0
38,69.0,240,720,1.0,50.0
39,76.0,240,480,0.0,49.0
40,61.0,240,960,2.0,51.0
41,57.0,240,240,2.0,44.0
42,73.0,0,240,0.0,47.0
43,64.0,0,240,1.0,47.0
44,56.0,0,175,2.0,42.0
45,64.0,0,175,1.0,46.0
46,52.0,240,660,3.0,46.0
47,71.0,240,180,0.0,46.0
48,64.0,0,240,1.0,47.0
49,59.0,240,240,1.0,48.0
50,52.0,240,480,2.0,44.0
51,68.0,0,480,0.0,47.0
52,66.0,0,240,1.0,49.0
53,51.0,0,240,2.0,48.0
54,69.0,240,240,0.0,49.0
55,68.0,240,240,1.0,50.0
56,50.0,0,480,2.0,50.0
57,71.0,0,480,0.0,50.0
58,64.0,240,240,1.0,52.0
59,40.0,0,1440,3.0,44.0
60,69.0,0,240,1.0,53.0
61,73.0,0,240,0.0,53.0
62,49.0,240,240,2.0,55.0
63,47.0,0,240,2.0,55.0
64,68.0,0,240,1.0,51.0
65,40.0,240,480,3.0,55.0
66,76.0,0,480,0.0,53.0
67,52.0,240,240,2.0,53.0
68,41.0,0,240,3.0,50.0
69,74.0,240,240,0.0,50.0
70,68.0,0,240,1.0,50.0
71,71.0,0,240,1.0,50.0
72,53.0,0,240,2.0,50.0
73,54.0,0,1920,2.0,48.0
74,73.0,0,1920,0.0,48.0
75,42.0,240,1920,3.0,48.0
76,69.0,0,1920,1.0,48.0
77,69.0,0,240,1.0,45.0
78,63.0,240,240,1.0,46.0
79,73.0,0,480,0.0,45.0
80,75.0,0,240,0.0,48.0
81,42.0,2160,720,3.0,45.0
82,69.0,240,240,1.0,48.0
83,71.0,0,0,1.0,50.0
84,54.0,0,720,2.0,45.0
85,68.0,0,240,1.0,50.0
86,64.0,240,240,1.0,51.0
87,52.0,0,480,2.0,50.0
88,76.0,0,480,0.0,50.0
89,40.0,240,480,3.0,50.0
90,66.0,0,240,1.0,53.0
91,71.0,240,0,1.0,55.0
92,78.0,0,240,0.0,53.0
93,51.0,0,240,2.0,53.0
94,39.0,0,240,3.0,53.0
95,52.0,0,480,2.0,55.0
96,40.0,0,480,3.0,55.0
97,68.0,240,240,1.0,56.0
98,80.0,0,480,0.0,55.0
99,76.0,0,240,1.0,58.0
100,81.0,0,240,0.0,58.0
101,49.0,240,240,2.0,58.0
102,37.0,0,240,3.0,58.0
103,69.0,0,240,1.0,58.0
104,76.0,240,240,1.0,60.0
105,71.0,240,240,1.0,61.0
106,44.0,240,0,2.0,63.0
107,32.0,0,480,3.0,59.0
108,83.0,0,480,0.0,60.0
109,32.0,0,240,3.0,63.0
110,75.0,0,240,1.0,63.0
111,84.0,0,0,0.0,67.0
112,78.0,0,0,1.0,67.0
113,75.0,0,720,1.0,67.0
114,32.0,240,720,3.0,65.0
115,44.0,0,720,2.0,65.0
116,87.0,240,240,0.0,64.0
117,85.0,240,240,0.0,63.0
118,73.0,0,0,1.0,62.0
119,76.0,0,0,1.0,62.0
120,45.0,0,720,2.0,63.0
121,33.0,0,720,3.0,63.0
122,34.0,0,720,3.0,61.0
123,76.0,240,720,0.0,62.0
124,46.0,0,720,2.0,61.0
125,78.0,0,960,0.0,62.0
126,80.0,240,240,0.0,59.0
127,69.0,0,720,1.0,60.0
128,81.0,240,240,0.0,58.0
129,35.0,720,720,3.0,59.0
130,75.0,0,720,1.0,60.0
131,47.0,0,720,2.0,59.0
132,76.0,0,480,0.0,57.0
133,64.0,0,720,1.0,57.0
134,69.0,240,720,1.0,57.0
135,75.0,480,240,0.0,55.0
136,37.0,0,720,3.0,57.0
137,49.0,0,720,2.0,57.0
138,73.0,240,480,0.0,55.0
139,69.0,0,480,1.0,55.0
140,66.0,0,480,1.0,55.0
141,51.0,0,480,2.0,55.0
142,39.0,0,480,3.0,55.0
143,42.0,0,240,3.0,54.0
144,71.0,0,0,0.0,52.0
145,63.0,0,0,1.0,52.0
146,69.0,0,0,1.0,52.0
147,54.0,480,240,2.0,54.0
148,54.0,240,960,3.0,53.0
149,59.0,0,960,2.0,53.0
150,75.0,720,240,0.0,49.0
151,66.0,240,240,1.0,49.0
152,69.0,0,240,1.0,49.0
153,51.0,0,240,3.0,50.0
154,78.0,0,240,0.0,49.0
155,59.0,0,0,2.0,49.0
156,52.0,240,240,3.0,49.0
157,68.0,0,240,1.0,48.0
158,76.0,0,240,0.0,48.0
159,64.0,0,240,1.0,48.0
160,71.0,0,480,0.0,47.0
161,73.0,480,60,0.0,43.0
162,71.0,60,60,0.0,43.0
163,70.0,60,60,0.0,44.0
164,71.0,60,60,0.0,45.0
165,69.0,0,720,1.0,47.0
166,59.0,0,960,2.0,49.0
167,63.0,0,960,2.0,49.0
168,83.0,60,240,0.0,47.0
169,54.0,0,0,3.0,46.0
170,59.0,0,240,2.0,46.0
171,81.0,0,240,0.0,45.0
172,71.0,0,240,1.0,45.0
173,63.0,240,240,2.0,46.0
174,59.0,0,192,2.0,45.0
175,64.0,0,192,2.0,45.0
176,80.0,240,192,0.0,44.0
177,56.0,0,192,3.0,45.0
178,71.0,0,192,1.0,44.0
179,80.0,0,240,0.0,45.0
180,78.0,240,192,0.0,47.0
181,61.0,0,480,2.0,47.0
182,64.0,0,480,2.0,47.0
183,73.0,0,480,1.0,45.0
184,57.0,240,480,3.0,47.0
185,61.0,0,192,2.0,51.0
186,58.0,0,192,3.0,51.0
187,73.0,0,192,1.0,50.0
188,66.0,240,192,2.0,51.0
189,76.0,0,192,0.0,50.0
190,76.0,0,240,0.0,52.0
191,75.0,240,192,0.0,54.0
192,71.0,0,435,1.0,52.0
193,63.0,0,480,2.0,53.0
194,66.0,0,480,2.0,53.0
195,59.0,240,480,3.0,53.0
196,76.0,240,192,0.0,56.0
197,61.0,0,192,3.0,56.0
198,64.0,0,192,2.0,56.0
199,70.0,0,192,1.0,56.0
200,66.0,0,192,1.0,56.0
201,69.0,0,480,1.0,57.0
202,63.0,240,480,3.0,59.0
203,71.0,0,480,0.0,57.0
204,68.0,0,192,1.0,56.0
205,64.0,480,192,3.0,58.0
206,71.0,0,192,0.0,56.0
207,66.0,0,360,1.0,55.0
208,63.0,0,360,1.0,55.0
209,59.0,0,360,3.0,57.0
210,71.0,240,360,0.0,55.0
211,47.0,0,192,3.0,56.0
212,63.0,0,192,1.0,54.0
213,66.0,480,192,1.0,54.0
214,69.0,0,192,0.0,54.0
215,64.0,0,720,1.0,53.0
216,68.0,0,720,0.0,53.0
217,49.0,240,720,3.0,55.0
218,64.0,720,240,3.0,53.0
219,66.0,240,192,3.0,53.0
220,68.0,240,192,3.0,52.0
221,58.0,240,720,3.0,51.0
222,78.0,0,240,0.0,47.0
223,63.0,0,240,2.0,49.0
224,76.0,240,192,0.0,47.0
225,61.0,0,192,2.0,49.0
226,75.0,0,192,0.0,46.0
227,59.0,240,192,2.0,48.0
228,57.0,720,675,3.0,49.0
229,74.0,0,720,1.0,45.0
230,65.0,240,720,2.0,47.0
231,56.0,0,720,3.0,47.0
232,83.0,0,720,0.0,45.0
233,42.0,0,240,3.0,46.0
234,44.0,240,192,3.0,45.0
235,45.0,240,192,3.0,44.0
236,81.0,720,720,1.0,43.0
237,85.0,0,720,0.0,43.0
238,47.0,240,192,3.0,44.0
239,58.0,240,240,3.0,48.0
240,59.0,240,240,3.0,50.0
241,68.0,0,960,1.0,41.0
242,76.0,0,960,1.0,41.0
243,80.0,0,960,0.0,41.0
244,67.0,240,240,0.0,47.0
245,64.0,240,480,3.0,53.0
246,68.0,240,240,0.0,48.0
247,71.0,240,240,0.0,49.0
248,64.0,0,240,0.0,39.0
249,56.0,0,240,1.0,39.0
250,59.0,0,240,1.0,39.0
251,64.0,0,480,1.0,41.0
252,47.0,0,720,2.0,37.0
253,59.0,0,0,1.0,46.0
254,35.0,480,720,3.0,37.0
255,68.0,240,480,0.0,41.0
256,63.0,0,240,1.0,46.0
257,66.0,480,240,0.0,46.0
258,45.0,0,240,2.0,45.0
259,33.0,0,240,3.0,45.0
260,44.0,0,192,2.0,47.0
261,32.0,0,192,3.0,47.0
262,58.0,240,240,3.0,50.0
263,64.0,240,720,1.0,48.0
264,59.0,240,240,3.0,53.0
265,59.0,0,720,1.0,48.0
266,71.0,0,960,0.0,48.0
267,68.0,240,480,3.0,55.0
268,70.0,240,240,0.0,57.0
269,71.0,240,240,0.0,59.0
270,80.0,240,240,0.0,60.0
271,56.0,0,240,1.0,49.0
272,59.0,0,240,1.0,49.0
273,64.0,0,240,0.0,49.0
274,68.0,0,480,0.0,51.0
275,35.0,480,720,3.0,41.0
276,47.0,0,720,2.0,41.0
277,59.0,0,0,1.0,54.0
278,64.0,240,480,1.0,51.0
279,33.0,480,240,3.0,50.0
280,66.0,0,240,0.0,54.0
281,63.0,0,240,1.0,54.0
282,45.0,0,240,2.0,50.0
283,59.0,0,0,1.0,56.0
284,32.0,240,192,3.0,53.0
285,44.0,0,192,2.0,53.0
286,58.0,240,240,3.0,56.0
287,59.0,240,240,3.0,60.0
288,64.0,0,720,1.0,56.0
289,71.0,0,720,0.0,56.0
290,71.0,240,240,3.0,63.0
291,70.0,240,240,0.0,65.0
292,71.0,240,240,0.0,67.0
293,76.0,240,240,0.0,69.0
294,80.0,240,240,0.0,70.0
295,83.0,240,120,0.0,76.0
296,88.0,120,120,0.0,79.0
297,92.0,120,240,0.0,83.0
298,95.0,240,240,0.0,79.0
299,47.0,0,720,2.0,80.0
300,35.0,0,720,3.0,80.0
301,75.0,0,192,0.0,49.0
302,47.0,0,192,3.0,53.0
303,59.0,240,192,2.0,53.0
304,66.0,0,192,1.0,49.0
305,69.0,0,192,1.0,49.0
306,64.0,240,480,1.0,49.0
307,76.0,0,480,0.0,49.0
308,68.0,0,480,1.0,49.0
309,40.0,0,720,3.0,52.0
310,52.0,0,720,2.0,52.0
311,71.0,480,192,0.0,49.0
312,68.0,0,192,1.0,49.0
313,64.0,0,192,1.0,49.0
314,59.0,720,720,2.0,57.0
315,47.0,0,720,3.0,57.0
316,64.0,0,480,1.0,48.0
317,71.0,0,480,0.0,48.0
318,56.0,240,720,2.0,54.0
319,47.0,0,720,2.0,54.0
320,44.0,0,720,3.0,54.0
321,75.0,480,192,0.0,44.0
322,69.0,0,192,1.0,44.0
323,63.0,0,192,1.0,44.0
324,42.0,0,720,3.0,50.0
325,54.0,720,720,2.0,50.0
326,47.0,0,0,2.0,47.0
327,76.0,0,480,0.0,43.0
328,68.0,0,480,1.0,43.0
329,64.0,0,480,1.0,43.0
330,40.0,240,720,3.0,47.0
331,52.0,0,720,2.0,47.0
332,71.0,0,192,1.0,49.0
333,83.0,480,192,0.0,49.0
334,47.0,720,720,3.0,53.0
335,71.0,0,480,1.0,48.0
336,83.0,0,480,0.0,48.0
337,47.0,0,720,2.0,52.0
338,44.0,240,720,3.0,52.0
339,87.0,480,192,0.0,43.0
340,75.0,0,192,1.0,43.0
341,81.0,0,192,1.0,43.0
342,42.0,0,720,3.0,50.0
343,47.0,0,0,2.0,49.0
344,88.0,240,480,0.0,42.0
345,40.0,0,0,3.0,48.0
346,76.0,0,480,1.0,42.0
347,83.0,0,480,1.0,42.0
348,47.0,0,720,2.0,48.0
349,40.0,0,0,3.0,46.0
350,81.0,0,720,1.0,41.0
351,52.0,0,0,2.0,46.0
352,78.0,0,720,1.0,41.0
353,90.0,0,720,0.0,41.0
354,88.0,0,720,0.0,40.0
355,47.0,0,0,2.0,45.0
356,40.0,0,0,3.0,45.0
357,76.0,0,720,1.0,40.0
358,80.0,0,720,1.0,40.0
359,52.0,720,0,2.0,45.0
360,81.0,0,720,1.0,39.0
361,78.0,0,720,1.0,39.0
362,90.0,0,720,0.0,39.0
363,47.0,720,0,2.0,43.0
364,52.0,0,720,2.0,43.0
365,80.0,0,720,1.0,38.0
366,88.0,0,720,0.0,38.0
367,40.0,0,720,3.0,43.0
368,47.0,0,0,2.0,42.0
369,76.0,0,720,1.0,38.0
370,90.0,0,720,1.0,37.0
371,81.0,720,720,1.0,37.0
372,40.0,0,720,3.0,42.0
373,93.0,0,720,0.0,37.0
374,51.0,0,720,2.0,42.0
375,47.0,0,0,2.0,40.0
376,40.0,0,720,3.0,40.0
377,52.0,0,720,2.0,40.0
378,80.0,0,720,1.0,36.0
379,47.0,0,0,2.0,39.0
380,88.0,720,720,1.0,36.0
381,92.0,0,720,0.0,36.0
382,78.0,0,720,1.0,35.0
383,40.0,0,720,3.0,39.0
384,90.0,0,720,0.0,35.0
385,47.0,0,0,2.0,37.0
386,52.0,0,0,2.0,37.0
387,81.0,720,720,1.0,35.0
388,87.0,0,720,1.0,35.0
389,76.0,0,720,1.0,34.0
390,40.0,720,720,3.0,37.0
391,80.0,0,720,1.0,34.0
392,88.0,0,720,0.0,34.0
393,71.0,0,0,0.0,32.0
394,52.0,720,0,3.0,34.0
395,56.0,0,720,2.0,36.0
396,68.0,0,720,1.0,33.0
397,59.0,0,0,2.0,34.0
398,71.0,720,0,0.0,32.0
399,68.0,0,720,1.0,32.0
400,56.0,0,720,2.0,34.0
401,71.0,0,0,0.0,31.0
402,68.0,720,0,1.0,31.0
403,52.0,0,480,3.0,42.0
404,54.0,240,240,3.0,44.0
405,47.0,240,720,2.0,40.0
406,56.0,240,480,3.0,45.0
407,57.0,240,240,3.0,47.0
408,52.0,240,0,2.0,43.0
409,61.0,240,480,3.0,48.0
410,59.0,240,240,3.0,44.0
411,71.0,240,2640,0.0,32.0
412,56.0,240,480,3.0,42.0
413,68.0,0,0,1.0,36.0
414,71.0,0,720,1.0,36.0
415,73.0,0,0,0.0,37.0
416,73.0,720,0,0.0,38.0
417,71.0,720,720,1.0,37.0
418,68.0,0,0,1.0,38.0
419,71.0,0,240,1.0,38.0
420,68.0,240,0,1.0,39.0
421,53.0,0,480,3.0,44.0
422,54.0,240,240,3.0,48.0
423,49.0,240,720,2.0,43.0
424,56.0,240,480,3.0,50.0
425,57.0,240,240,3.0,54.0
426,49.0,240,0,2.0,49.0
427,61.0,240,480,3.0,56.0
428,59.0,240,240,3.0,50.0
429,56.0,240,480,3.0,48.0
430,71.0,0,2640,1.0,39.0
431,73.0,0,0,0.0,43.0
432,73.0,0,0,0.0,44.0
433,71.0,0,0,1.0,44.0
434,68.0,720,0,1.0,44.0
435,69.0,0,240,1.0,57.0
436,73.0,0,240,0.0,57.0
437,73.0,0,240,1.0,58.0
438,69.0,0,240,1.0,58.0
439,30.0,240,0,3.0,51.0
440,42.0,0,720,2.0,48.0
441,78.0,240,480,0.0,58.0
442,77.0,0,240,1.0,62.0
443,80.0,0,240,0.0,62.0
444,73.0,240,0,1.0,65.0
445,42.0,0,720,2.0,51.0
446,78.0,240,480,1.0,64.0
447,81.0,0,480,0.0,64.0
448,80.0,0,240,1.0,67.0
449,83.0,0,240,0.0,67.0
450,30.0,0,720,3.0,54.0
451,86.0,0,480,0.0,69.0
452,42.0,0,0,2.0,53.0
453,81.0,0,0,1.0,64.0
454,85.0,0,240,0.0,64.0
455,73.0,240,0,1.0,61.0
456,30.0,240,720,3.0,53.0
457,81.0,240,480,0.0,62.0
458,81.0,0,240,0.0,41.0
459,66.0,240,0,3.0,36.0
460,86.0,240,480,0.0,45.0
461,69.0,0,0,2.0,36.0
462,85.0,0,240,0.0,41.0
463,73.0,240,0,1.0,37.0
464,81.0,240,0,0.0,68.0
465,73.0,240,0,1.0,71.0
466,79.0,0,720,1.0,68.0
467,28.0,0,720,3.0,62.0
468,86.0,240,480,0.0,73.0
469,40.0,0,0,2.0,57.0
470,85.0,0,240,0.0,68.0
471,81.0,240,480,0.0,66.0
472,79.0,240,720,1.0,68.0
473,28.0,0,720,3.0,57.0
474,81.0,0,240,0.0,47.0
475,73.0,240,720,1.0,63.0
476,67.0,240,0,2.0,44.0
477,79.0,0,0,1.0,48.0
478,86.0,240,480,0.0,51.0
479,69.0,0,0,2.0,44.0
480,64.0,0,0,3.0,44.0
481,85.0,0,240,0.0,48.0
482,73.0,240,0,1.0,44.0
483,81.0,0,0,0.0,74.0
484,69.0,240,0,2.0,73.0
485,78.0,240,0,1.0,78.0
486,62.0,240,0,3.0,67.0
487,88.0,240,480,0.0,81.0
488,66.0,0,720,2.0,73.0
489,86.0,0,240,0.0,76.0
490,66.0,0,720,2.0,67.0
491,81.0,240,480,0.0,74.0
492,85.0,0,240,0.0,56.0
493,78.0,240,720,1.0,74.0
494,61.0,240,720,2.0,48.0
495,58.0,0,0,3.0,53.0
496,91.0,240,480,0.0,58.0
497,66.0,0,0,2.0,53.0
498,90.0,0,240,0.0,61.0
499,78.0,240,720,1.0,58.0
500,85.0,240,480,0.0,63.0
501,61.0,240,720,2.0,53.0
502,66.0,0,0,2.0,59.0
503,86.0,240,240,0.0,67.0
504,78.0,240,0,1.0,69.0
505,59.0,0,720,3.0,59.0
506,91.0,240,480,0.0,69.0
507,62.0,0,0,2.0,72.0
508,90.0,240,240,0.0,74.0
509,66.0,0,240,2.0,72.0
510,59.0,0,240,3.0,72.0
511,78.0,240,0,1.0,70.0
512,84.0,240,480,0.0,70.0
513,61.0,0,480,2.0,68.0
514,66.0,0,480,2.0,68.0
515,58.0,0,480,3.0,68.0
516,61.0,0,240,2.0,77.0
517,66.0,0,240,2.0,77.0
518,58.0,240,240,3.0,77.0
519,85.0,0,240,0.0,80.0
520,73.0,0,240,1.0,75.0
521,72.0,240,192,1.0,78.0
522,77.0,0,480,0.0,75.0
523,66.0,0,480,2.0,71.0
524,61.0,240,480,2.0,71.0
525,57.0,0,0,3.0,84.0
526,73.0,0,192,1.0,86.0
527,78.0,240,192,0.0,86.0
528,61.0,0,240,2.0,84.0
529,66.0,0,240,2.0,84.0
530,66.0,240,240,1.0,83.0
531,65.0,240,192,1.0,86.0
532,73.0,0,480,0.0,83.0
533,63.0,0,480,2.0,80.0
534,56.0,0,0,3.0,89.0
535,72.0,240,192,0.0,95.0
536,66.0,0,192,1.0,95.0
537,63.0,0,240,2.0,89.0
538,32.0,240,156,3.0,85.0
539,44.0,0,156,2.0,85.0
540,72.0,240,480,1.0,91.0
541,84.0,0,480,0.0,91.0
542,78.0,0,480,1.0,91.0
543,36.0,0,156,3.0,83.0
544,48.0,0,156,2.0,83.0
545,69.0,240,192,1.0,85.0
546,75.0,0,192,1.0,85.0
547,81.0,0,192,0.0,85.0
548,49.0,0,156,2.0,80.0
549,37.0,240,156,3.0,80.0
550,80.0,240,480,0.0,83.0
551,76.0,0,480,1.0,83.0
552,68.0,0,480,1.0,83.0
553,51.0,0,156,2.0,78.0
554,39.0,0,156,3.0,78.0
555,69.0,240,192,1.0,78.0
556,78.0,0,192,0.0,78.0
557,75.0,0,192,1.0,78.0
558,66.0,0,192,1.0,78.0
559,52.0,0,156,2.0,74.0
560,40.0,240,156,3.0,74.0
561,64.0,240,480,1.0,76.0
562,76.0,0,480,0.0,76.0
563,68.0,0,480,1.0,76.0
564,42.0,0,156,3.0,72.0
565,54.0,0,156,2.0,72.0
566,69.0,240,192,1.0,72.0
567,75.0,0,192,0.0,72.0
568,63.0,0,192,1.0,72.0
569,55.0,0,156,2.0,68.0
570,43.0,240,156,3.0,68.0
571,61.0,240,480,1.0,70.0
572,73.0,0,480,0.0,70.0
573,64.0,0,480,1.0,70.0
574,44.0,240,156,3.0,66.0
575,56.0,0,156,2.0,66.0
576,72.0,0,192,0.0,66.0
577,60.0,0,192,1.0,66.0
578,63.0,0,192,1.0,66.0
579,63.0,0,1440,1.0,63.0
580,36.0,0,1440,3.0,64.0
581,66.0,0,1440,1.0,63.0
582,68.0,0,1440,1.0,63.0
583,75.0,240,1440,0.0,63.0
584,48.0,0,1440,2.0,64.0
585,68.0,480,0,1.0,49.0
586,60.0,0,480,3.0,44.0
587,74.0,0,480,0.0,45.0
588,66.0,0,480,2.0,44.0
589,76.0,0,240,0.0,49.0
590,68.0,0,0,1.0,51.0
591,64.0,0,240,2.0,45.0
592,61.0,0,240,3.0,45.0
593,56.0,240,480,2.0,49.0
594,49.0,480,0,3.0,44.0
595,52.0,0,0,2.0,44.0
596,57.0,0,240,2.0,44.0
597,64.0,0,720,1.0,51.0
598,76.0,0,0,0.0,46.0
599,69.0,0,240,1.0,47.0
600,61.0,0,480,3.0,44.0
601,64.0,240,480,2.0,44.0
602,66.0,480,240,2.0,48.0
603,71.0,0,240,1.0,50.0
604,69.0,0,240,1.0,50.0
605,63.0,0,240,3.0,48.0
606,78.0,0,240,0.0,50.0
607,58.0,0,480,2.0,51.0
608,78.0,0,480,0.0,55.0
609,70.0,240,480,1.0,55.0
610,51.0,0,720,3.0,51.0
611,59.0,480,240,3.0,46.0
612,66.0,0,720,1.0,55.0
613,71.0,0,0,1.0,52.0
614,63.0,0,480,3.0,53.0
615,69.0,0,480,1.0,52.0
616,66.0,240,480,2.0,53.0
617,71.0,0,0,1.0,54.0
618,78.0,0,480,0.0,52.0
619,68.0,480,240,1.0,54.0
620,64.0,0,240,3.0,49.0
621,80.0,0,0,0.0,56.0
622,77.0,240,480,1.0,56.0
623,74.0,0,480,1.0,52.0
624,72.0,240,240,1.0,55.0
625,76.0,0,240,1.0,59.0
626,81.0,0,240,0.0,59.0
627,64.0,240,0,2.0,58.0
628,74.0,240,480,1.0,60.0
629,71.0,0,480,1.0,56.0
630,83.0,0,480,0.0,60.0
631,84.0,0,240,0.0,63.0
632,69.0,240,240,1.0,59.0
633,72.0,0,240,1.0,63.0
634,52.0,0,480,3.0,63.0
635,74.0,0,480,1.0,67.0
636,80.0,0,480,1.0,67.0
637,88.0,240,480,0.0,67.0
638,74.0,0,240,1.0,65.0
639,81.0,0,240,1.0,65.0
640,86.0,480,240,0.0,65.0
641,54.0,0,240,3.0,62.0
642,56.0,0,480,3.0,61.0
643,83.0,240,720,0.0,64.0
644,57.0,480,240,3.0,60.0
645,83.0,240,480,0.0,61.0
646,59.0,0,480,3.0,59.0
647,74.0,0,1200,1.0,64.0
648,76.0,0,1200,1.0,64.0
649,68.0,240,240,2.0,58.0
650,81.0,240,240,0.0,59.0
651,60.0,0,240,3.0,58.0
652,69.0,0,240,2.0,58.0
653,65.0,0,480,2.0,57.0
654,71.0,0,480,1.0,58.0
655,80.0,0,480,0.0,58.0
656,62.0,240,480,3.0,57.0
657,81.0,0,240,0.0,56.0
658,66.0,0,240,2.0,56.0
659,72.0,480,240,1.0,56.0
660,63.0,0,240,2.0,56.0
661,64.0,0,480,2.0,61.0
662,80.0,240,480,0.0,59.0
663,63.0,0,240,2.0,64.0
664,81.0,240,240,0.0,62.0
665,78.0,0,240,1.0,62.0
666,71.0,240,480,1.0,60.0
667,62.0,0,480,2.0,66.0
668,80.0,240,480,1.0,64.0
669,83.0,0,480,0.0,64.0
670,85.0,0,240,0.0,68.0
671,61.0,240,240,2.0,69.0
672,81.0,0,240,1.0,68.0
673,76.0,240,480,1.0,66.0
674,59.0,240,240,2.0,71.0
675,52.0,0,1680,3.0,61.0
676,80.0,0,480,1.0,71.0
677,76.0,0,480,1.0,71.0
678,88.0,0,480,0.0,71.0
679,57.0,0,240,2.0,65.0
680,54.0,0,240,2.0,65.0
681,86.0,0,240,0.0,65.0
682,74.0,0,240,1.0,65.0
683,81.0,240,240,1.0,65.0
684,52.0,240,712,3.0,68.0
685,59.0,0,240,2.0,63.0
686,56.0,0,240,2.0,63.0
687,71.0,0,240,1.0,62.0
688,83.0,240,240,0.0,62.0
689,44.0,240,240,3.0,64.0
690,52.0,0,0,2.0,65.0
691,56.0,0,240,2.0,64.0
692,59.0,0,240,1.0,61.0
693,64.0,0,240,1.0,61.0
694,71.0,0,240,0.0,61.0
695,73.0,0,240,0.0,63.0
696,45.0,240,240,3.0,65.0
697,64.0,0,240,1.0,63.0
698,61.0,0,240,1.0,63.0
699,57.0,0,240,2.0,65.0
700,59.0,0,240,2.0,67.0
701,47.0,0,240,3.0,67.0
702,69.0,0,480,1.0,64.0
703,62.0,0,480,1.0,64.0
704,35.0,0,240,3.0,68.0
705,47.0,240,240,2.0,68.0
706,74.0,240,480,0.0,64.0
707,36.0,0,240,3.0,69.0
708,63.0,240,240,1.0,68.0
709,69.0,240,0,1.0,70.0
710,48.0,0,240,2.0,69.0
711,75.0,0,240,0.0,68.0
712,49.0,0,480,2.0,71.0
713,76.0,0,480,0.0,70.0
714,64.0,0,480,1.0,70.0
715,37.0,0,0,3.0,71.0
716,71.0,0,240,1.0,73.0
717,49.0,0,240,2.0,71.0
718,77.0,0,0,0.0,77.0
719,68.0,0,0,1.0,77.0
720,37.0,240,0,3.0,71.0
721,49.0,0,720,2.0,71.0
722,71.0,0,720,1.0,77.0
723,80.0,240,240,0.0,75.0
724,66.0,240,0,1.0,73.0
725,69.0,0,0,1.0,73.0
726,78.0,240,240,0.0,75.0
727,38.0,0,720,3.0,70.0
728,50.0,720,720,2.0,70.0
729,51.0,0,720,2.0,68.0
730,39.0,0,720,3.0,68.0
731,71.0,0,960,0.0,73.0
732,73.0,240,240,0.0,70.0
733,68.0,720,720,1.0,71.0
734,74.0,240,240,0.0,70.0
735,40.0,0,720,3.0,67.0
736,52.0,0,720,2.0,67.0
737,69.0,0,480,0.0,69.0
738,54.0,240,720,2.0,66.0
739,42.0,0,720,3.0,66.0
740,62.0,0,720,1.0,69.0
741,57.0,0,720,1.0,69.0
742,68.0,480,240,0.0,67.0
743,66.0,0,480,0.0,67.0
744,59.0,0,720,1.0,67.0
745,62.0,0,0,1.0,65.0
746,44.0,0,720,3.0,64.0
747,64.0,480,240,0.0,65.0
748,56.0,240,720,2.0,64.0
749,64.0,0,720,0.0,65.0
750,68.0,720,240,0.0,62.0
751,59.0,0,960,2.0,63.0
752,52.0,0,960,2.0,63.0
753,62.0,0,0,1.0,62.0
754,47.0,240,960,3.0,63.0
755,44.0,0,240,3.0,61.0
756,71.0,0,240,0.0,62.0
757,56.0,240,240,2.0,61.0
758,52.0,0,0,2.0,60.0
759,57.0,0,192,2.0,60.0
760,45.0,240,192,3.0,60.0
761,69.0,0,240,0.0,61.0
762,61.0,0,240,1.0,61.0
763,64.0,0,480,0.0,60.0
764,66.0,480,60,0.0,57.0
765,64.0,60,60,0.0,57.0
766,63.0,60,60,0.0,57.0
767,64.0,60,60,0.0,59.0
768,56.0,240,960,2.0,60.0
769,52.0,0,960,2.0,60.0
770,76.0,60,240,0.0,61.0
771,62.0,0,960,1.0,60.0
772,47.0,240,0,3.0,59.0
773,56.0,0,240,2.0,59.0
774,74.0,0,240,0.0,60.0
775,64.0,0,240,1.0,60.0
776,52.0,0,0,2.0,59.0
777,57.0,240,192,2.0,59.0
778,49.0,0,192,3.0,59.0
779,73.0,240,0,0.0,56.0
780,64.0,0,240,1.0,58.0
781,71.0,240,192,0.0,57.0
782,50.0,0,480,3.0,58.0
783,66.0,0,480,1.0,56.0
784,54.0,0,0,2.0,60.0
785,57.0,0,0,2.0,60.0
786,66.0,240,192,1.0,59.0
787,59.0,0,192,1.0,59.0
788,69.0,0,192,0.0,59.0
789,51.0,0,192,3.0,60.0
790,69.0,0,240,0.0,60.0
791,66.0,0,240,1.0,60.0
792,59.0,0,240,1.0,60.0
793,68.0,240,192,0.0,62.0
794,52.0,0,480,3.0,61.0
795,56.0,240,480,2.0,61.0
796,59.0,0,192,1.0,63.0
797,63.0,240,192,1.0,63.0
798,54.0,0,192,3.0,63.0
799,69.0,0,192,0.0,63.0
800,57.0,0,192,2.0,63.0
801,56.0,0,360,3.0,64.0
802,62.0,240,360,1.0,65.0
803,64.0,0,360,0.0,65.0
804,59.0,0,360,1.0,65.0
805,57.0,480,192,3.0,63.0
806,64.0,0,192,0.0,63.0
807,61.0,0,192,1.0,63.0
808,52.0,0,240,3.0,63.0
809,59.0,0,360,1.0,63.0
810,64.0,240,360,0.0,63.0
811,56.0,0,360,1.0,63.0
812,40.0,240,240,3.0,63.0
813,41.0,0,192,3.0,63.0
814,59.0,0,192,1.0,63.0
815,56.0,0,192,1.0,63.0
816,62.0,240,192,0.0,63.0
817,57.0,0,720,1.0,63.0
818,61.0,0,720,0.0,63.0
819,42.0,240,720,3.0,63.0
820,69.0,720,240,3.0,55.0
821,71.0,240,192,3.0,55.0
822,73.0,240,192,3.0,56.0
823,63.0,240,720,3.0,56.0
824,68.0,720,240,2.0,57.0
825,83.0,0,240,0.0,55.0
826,81.0,240,192,0.0,55.0
827,69.0,0,192,2.0,58.0
828,71.0,240,192,2.0,58.0
829,80.0,0,192,0.0,56.0
830,62.0,0,720,3.0,57.0
831,70.0,0,720,2.0,59.0
832,79.0,0,720,1.0,57.0
833,61.0,240,720,3.0,59.0
834,88.0,0,720,0.0,57.0
835,47.0,0,240,3.0,55.0
836,49.0,240,192,3.0,57.0
837,50.0,240,192,3.0,58.0
838,90.0,0,720,0.0,58.0
839,86.0,720,720,1.0,58.0
840,52.0,240,192,3.0,60.0
841,63.0,240,240,3.0,61.0
842,64.0,240,240,3.0,63.0
843,73.0,0,960,1.0,55.0
844,81.0,0,960,1.0,55.0
845,85.0,0,960,0.0,55.0
846,69.0,240,480,3.0,64.0
847,72.0,240,240,0.0,61.0
848,73.0,240,240,0.0,63.0
849,76.0,240,240,0.0,64.0
850,61.0,480,240,1.0,52.0
851,69.0,0,240,0.0,52.0
852,64.0,0,0,1.0,54.0
853,73.0,240,480,0.0,54.0
854,40.0,0,720,3.0,57.0
855,69.0,0,480,1.0,54.0
856,64.0,0,0,1.0,59.0
857,52.0,0,720,2.0,57.0
858,50.0,0,240,2.0,62.0
859,68.0,0,240,1.0,59.0
860,71.0,480,240,0.0,59.0
861,38.0,0,240,3.0,62.0
862,49.0,0,240,2.0,63.0
863,37.0,0,240,3.0,63.0
864,63.0,240,240,3.0,65.0
865,64.0,0,720,1.0,61.0
866,64.0,240,240,3.0,66.0
867,69.0,240,720,1.0,61.0
868,76.0,0,960,0.0,61.0
869,73.0,240,480,3.0,68.0
870,75.0,240,240,0.0,69.0
871,76.0,240,240,0.0,71.0
872,81.0,240,240,0.0,73.0
873,69.0,0,240,0.0,59.0
874,64.0,0,0,1.0,61.0
875,40.0,480,720,3.0,62.0
876,73.0,0,480,0.0,61.0
877,69.0,240,480,1.0,61.0
878,52.0,0,720,2.0,62.0
879,64.0,0,0,1.0,65.0
880,38.0,0,240,3.0,68.0
881,71.0,480,240,0.0,65.0
882,50.0,0,240,2.0,68.0
883,68.0,0,240,1.0,65.0
884,64.0,0,0,1.0,67.0
885,37.0,0,240,3.0,71.0
886,49.0,240,240,2.0,71.0
887,63.0,240,240,3.0,73.0
888,69.0,0,720,1.0,67.0
889,76.0,0,720,0.0,67.0
890,64.0,240,240,3.0,75.0
891,76.0,240,240,3.0,77.0
892,75.0,240,240,0.0,75.0
893,76.0,240,240,0.0,78.0
894,80.0,240,240,0.0,80.0
895,81.0,240,240,0.0,83.0
896,85.0,240,240,0.0,86.0
897,88.0,240,240,0.0,88.0
898,93.0,240,240,0.0,85.0
899,52.0,0,0,2.0,55.0
900,40.0,0,720,3.0,80.0
901,62.0,240,192,1.0,55.0
902,59.0,0,192,1.0,55.0
903,68.0,0,192,0.0,55.0
904,40.0,0,192,3.0,55.0
905,69.0,240,480,0.0,55.0
906,61.0,0,480,1.0,55.0
907,45.0,0,720,2.0,55.0
908,33.0,0,720,3.0,55.0
909,64.0,480,192,0.0,61.0
910,61.0,0,192,1.0,61.0
911,52.0,720,720,2.0,62.0
912,40.0,0,720,3.0,62.0
913,57.0,0,480,1.0,60.0
914,64.0,0,480,0.0,60.0
915,49.0,0,720,2.0,60.0
916,40.0,240,720,2.0,60.0
917,37.0,0,720,3.0,60.0
918,62.0,0,192,1.0,55.0
919,64.0,480,192,1.0,55.0
920,68.0,0,192,0.0,55.0
921,35.0,0,720,3.0,58.0
922,40.0,0,720,2.0,58.0
923,47.0,720,720,2.0,58.0
924,64.0,0,480,1.0,53.0
925,69.0,0,480,0.0,53.0
926,61.0,0,480,1.0,53.0
927,40.0,0,720,2.0,55.0
928,45.0,0,720,2.0,55.0
929,33.0,240,720,3.0,55.0
930,76.0,0,192,0.0,51.0
931,64.0,0,192,1.0,51.0
932,73.0,0,192,1.0,51.0
933,40.0,720,720,3.0,53.0
934,52.0,480,240,2.0,52.0
935,64.0,0,480,1.0,57.0
936,69.0,240,480,1.0,57.0
937,76.0,0,480,0.0,57.0
938,49.0,0,720,2.0,57.0
939,37.0,0,720,3.0,57.0
940,40.0,0,0,2.0,56.0
941,74.0,0,192,1.0,53.0
942,80.0,0,192,0.0,53.0
943,76.0,480,192,1.0,53.0
944,68.0,0,192,1.0,53.0
945,47.0,720,720,2.0,56.0
946,35.0,0,720,3.0,56.0
947,81.0,0,480,0.0,53.0
948,33.0,0,480,3.0,55.0
949,45.0,0,480,2.0,55.0
950,40.0,0,0,2.0,55.0
951,69.0,0,480,1.0,53.0
952,73.0,240,480,1.0,53.0
953,83.0,480,720,0.0,51.0
954,71.0,0,720,1.0,51.0
955,45.0,0,0,2.0,54.0
956,74.0,0,720,1.0,51.0
957,33.0,720,0,3.0,54.0
958,73.0,0,720,1.0,49.0
959,69.0,0,720,1.0,49.0
960,81.0,0,720,0.0,49.0
961,40.0,0,720,2.0,54.0
962,40.0,0,720,2.0,53.0
963,45.0,0,720,2.0,53.0
964,33.0,720,0,3.0,52.0
965,71.0,0,720,1.0,48.0
966,74.0,0,720,1.0,48.0
967,83.0,0,720,0.0,48.0
968,81.0,0,720,0.0,48.0
969,69.0,0,720,1.0,48.0
970,73.0,0,720,1.0,48.0
971,40.0,0,720,2.0,52.0
972,45.0,0,720,2.0,52.0
973,56.0,0,720,2.0,51.0
974,86.0,0,720,0.0,47.0
975,45.0,0,0,3.0,50.0
976,52.0,720,0,2.0,50.0
977,74.0,0,720,1.0,47.0
978,83.0,0,720,1.0,47.0
979,81.0,0,720,1.0,46.0
980,73.0,0,720,1.0,46.0
981,52.0,0,0,2.0,49.0
982,57.0,0,720,2.0,50.0
983,85.0,0,720,0.0,46.0
984,83.0,0,720,0.0,46.0
985,71.0,720,720,1.0,46.0
986,80.0,0,720,1.0,46.0
987,45.0,0,720,3.0,49.0
988,50.0,0,720,2.0,49.0
989,56.0,0,720,2.0,49.0
990,81.0,0,720,0.0,45.0
991,45.0,0,720,3.0,48.0
992,49.0,0,720,2.0,48.0
993,57.0,0,720,2.0,48.0
994,69.0,720,720,1.0,45.0
995,73.0,0,720,1.0,45.0
996,52.0,0,0,2.0,57.0
997,45.0,0,720,3.0,57.0
998,79.0,720,720,0.0,56.0
999,70.0,0,720,1.0,56.0
1000,67.0,0,720,1.0,56.0
1001,76.0,0,720,1.0,56.0
1002,58.0,0,720,2.0,57.0
1003,49.0,0,720,2.0,57.0
1004,55.0,0,720,2.0,57.0
1005,74.0,0,720,1.0,71.0
1006,53.0,0,720,2.0,68.0
1007,50.0,0,720,2.0,68.0
1008,77.0,0,0,0.0,85.0
1009,59.0,0,720,2.0,68.0
1010,45.0,0,0,3.0,79.0
1011,65.0,0,0,1.0,85.0
1012,71.0,0,0,1.0,85.0
1013,68.0,0,0,1.0,85.0
1014,59.0,0,0,2.0,90.0
1015,50.0,720,0,2.0,90.0
1016,74.0,0,0,1.0,100.0
1017,68.0,0,0,1.0,100.0
1018,53.0,0,0,2.0,90.0
1019,45.0,0,720,3.0,90.0
1020,77.0,0,720,0.0,100.0
1021,65.0,0,720,1.0,100.0
1022,71.0,0,720,1.0,100.0
1023,59.0,720,240,3.0,64.0
1024,61.0,240,240,3.0,63.0
1025,62.0,240,240,3.0,62.0
1026,76.0,0,720,0.0,67.0
1027,69.0,0,720,1.0,67.0
1028,64.0,240,240,3.0,61.0
1029,54.0,240,720,3.0,60.0
1030,69.0,0,960,1.0,64.0
1031,71.0,240,240,1.0,59.0
1032,53.0,720,720,3.0,57.0
1033,75.0,0,1440,0.0,64.0
1034,72.0,240,240,1.0,58.0
1035,61.0,240,240,1.0,57.0
1036,57.0,0,240,2.0,55.0
1037,62.0,0,240,1.0,56.0
1038,59.0,240,240,2.0,54.0
1039,61.0,0,0,2.0,52.0
1040,64.0,240,0,1.0,54.0
1041,73.0,0,960,1.0,57.0
1042,76.0,0,960,0.0,57.0
1043,62.0,0,240,2.0,51.0
1044,74.0,0,240,0.0,53.0
1045,66.0,240,240,1.0,53.0
1046,73.0,0,240,0.0,51.0
1047,69.0,240,0,1.0,50.0
1048,66.0,0,240,1.0,51.0
1049,63.0,240,240,2.0,50.0
1050,64.0,0,240,2.0,49.0
1051,73.0,0,240,0.0,50.0
1052,71.0,0,240,0.0,49.0
1053,62.0,240,240,2.0,48.0
1054,69.0,240,240,0.0,48.0
1055,61.0,0,240,2.0,47.0
1056,64.0,0,240,1.0,48.0
1057,52.0,0,2160,3.0,55.0
1058,62.0,0,240,1.0,47.0
1059,59.0,0,240,2.0,46.0
1060,66.0,240,240,1.0,46.0
1061,62.0,0,240,2.0,46.0
1062,64.0,0,120,1.0,45.0
1063,61.0,240,120,2.0,45.0
1064,59.0,0,120,2.0,45.0
1065,52.0,0,720,3.0,47.0
1066,62.0,120,120,1.0,44.0
1067,68.0,240,720,0.0,47.0
1068,61.0,0,240,1.0,44.0
1069,69.0,0,240,0.0,44.0
1070,71.0,240,192,0.0,45.0
1071,73.0,240,192,0.0,47.0
1072,57.0,0,720,2.0,44.0
1073,45.0,120,720,3.0,44.0
1074,81.0,0,720,0.0,49.0
1075,73.0,0,720,1.0,49.0
1076,69.0,0,720,2.0,45.0
1077,66.0,240,720,3.0,45.0
1078,83.0,0,720,0.0,54.0
1079,80.0,720,720,1.0,54.0
1080,74.0,0,720,1.0,54.0
1081,68.0,0,720,2.0,49.0
1082,65.0,0,720,3.0,49.0
1083,84.0,720,720,0.0,59.0
1084,57.0,0,720,3.0,52.0
1085,66.0,0,720,2.0,52.0
1086,63.0,0,720,2.0,52.0
1087,72.0,0,720,1.0,59.0
1088,78.0,0,720,1.0,59.0
1089,88.0,720,720,0.0,67.0
1090,83.0,0,720,1.0,67.0
1091,76.0,0,720,1.0,67.0
1092,56.0,0,720,3.0,61.0
1093,62.0,0,720,2.0,61.0
1094,64.0,0,0,2.0,60.0
1095,59.0,0,720,2.0,61.0
1096,85.0,720,240,0.0,65.0
1097,81.0,240,240,0.0,65.0
1098,57.0,0,720,3.0,60.0
1099,61.0,0,720,2.0,60.0
1100,76.0,240,240,0.0,64.0
1101,62.0,0,240,2.0,58.0
1102,78.0,0,240,0.0,64.0
1103,74.0,0,240,0.0,63.0
1104,59.0,240,240,2.0,57.0
1105,52.0,240,720,3.0,58.0
1106,73.0,240,240,0.0,62.0
1107,57.0,0,240,2.0,57.0
1108,71.0,240,480,0.0,61.0
1109,56.0,0,480,2.0,56.0
1110,64.0,240,240,1.0,61.0
1111,52.0,0,480,3.0,56.0
1112,68.0,0,1,1.0,60.0
1113,76.0,240,960,0.0,60.0
1114,52.0,0,967,3.0,55.0
1115,64.0,0,967,1.0,60.0
1116,56.0,0,975,2.0,55.0
1117,59.0,0,982,2.0,55.0
1118,64.0,0,960,1.0,56.0
1119,61.0,1440,960,2.0,52.0
1120,57.0,0,967,3.0,52.0
1121,73.0,0,967,0.0,56.0
1122,69.0,0,975,1.0,56.0
1123,52.0,0,480,3.0,49.0
1124,40.0,0,480,3.0,49.0
1125,57.0,480,240,3.0,51.0
1126,56.0,0,720,1.0,52.0
1127,59.0,0,720,1.0,52.0
1128,64.0,1440,720,0.0,52.0
1129,56.0,240,240,3.0,49.0
1130,57.0,240,240,3.0,49.0
1131,59.0,240,192,3.0,48.0
1132,61.0,240,240,3.0,48.0
1133,51.0,240,720,3.0,47.0
1134,59.0,720,240,0.0,45.0
1135,57.0,240,240,0.0,44.0
1136,56.0,240,240,0.0,44.0
1137,50.0,0,720,3.0,43.0
1138,52.0,0,0,2.0,42.0
1139,49.0,0,720,3.0,42.0
1140,64.0,240,720,0.0,43.0
1141,52.0,720,0,2.0,45.0
1142,71.0,0,240,1.0,49.0
1143,74.0,0,240,1.0,49.0
1144,76.0,240,0,0.0,52.0
1145,73.0,0,240,1.0,52.0
1146,69.0,0,240,1.0,52.0
1147,76.0,0,240,0.0,56.0
1148,68.0,0,240,1.0,56.0
1149,71.0,240,240,1.0,56.0
1150,47.0,0,720,3.0,45.0
1151,52.0,0,0,2.0,55.0
1152,81.0,240,240,0.0,60.0
1153,76.0,0,480,1.0,60.0
1154,73.0,0,480,1.0,60.0
1155,83.0,240,240,0.0,63.0
1156,88.0,240,240,0.0,67.0
1157,81.0,0,240,1.0,67.0
1158,85.0,0,240,1.0,67.0
1159,45.0,0,720,3.0,55.0
1160,88.0,240,240,0.0,71.0
1161,52.0,0,480,2.0,64.0
1162,86.0,0,0,1.0,78.0
1163,83.0,0,0,1.0,78.0
1164,40.0,0,480,3.0,64.0
1165,90.0,240,240,0.0,74.0
1166,92.0,0,240,0.0,78.0
1167,40.0,480,0,2.0,68.0
1168,33.0,240,720,3.0,75.0
1169,92.0,0,720,0.0,83.0
1170,86.0,0,720,1.0,83.0
1171,83.0,0,720,1.0,83.0
1172,93.0,0,720,0.0,72.0
1173,81.0,0,720,1.0,72.0
1174,85.0,0,720,1.0,72.0
1175,33.0,240,720,3.0,64.0
1176,45.0,0,720,2.0,64.0
1177,41.0,0,120,3.0,79.0
1178,69.0,0,120,0.0,79.0
1179,29.0,120,0,3.0,88.0
1180,60.0,0,0,1.0,88.0
1181,65.0,0,120,1.0,79.0
1182,57.0,3960,120,1.0,79.0
1183,41.0,0,240,3.0,88.0
1184,53.0,120,240,3.0,77.0
1185,53.0,360,120,3.0,66.0
1186,69.0,0,960,0.0,88.0
1187,41.0,360,720,3.0,81.0
1188,65.0,120,240,3.0,62.0
1189,57.0,0,1268,1.0,88.0
1190,65.0,0,1268,1.0,88.0
1191,69.0,0,360,0.0,54.0
1192,65.0,360,120,0.0,55.0
1193,41.0,0,240,3.0,52.0
1194,69.0,120,240,0.0,56.0
1195,41.0,360,120,3.0,54.0
1196,74.0,0,120,0.0,57.0
1197,74.0,0,480,0.0,57.0
1198,40.0,120,720,3.0,59.0
1199,72.0,0,360,0.0,59.0
1200,64.0,360,0,3.0,58.0
1201,67.0,0,960,1.0,57.0
1202,71.0,0,120,0.0,61.0
1203,72.0,0,240,0.0,61.0
1204,66.0,120,480,1.0,61.0
1205,63.0,0,480,3.0,58.0
1206,69.0,360,120,0.0,63.0
1207,72.0,120,240,0.0,63.0
1208,39.0,0,0,3.0,61.0
1209,78.0,0,120,0.0,64.0
1210,69.0,360,120,1.0,64.0
1211,72.0,0,120,1.0,64.0
1212,78.0,0,480,0.0,65.0
1213,38.0,0,720,3.0,67.0
1214,62.0,480,360,3.0,64.0
1215,77.0,0,360,0.0,67.0
1216,76.0,0,120,0.0,68.0
1217,62.0,360,120,3.0,65.0
1218,77.0,0,240,0.0,69.0
1219,70.0,0,1312,1.0,65.0
1220,65.0,120,1440,1.0,65.0
1221,70.0,360,120,1.0,70.0
1222,61.0,120,480,3.0,66.0
1223,77.0,120,240,0.0,71.0
1224,37.0,360,0,3.0,69.0
1225,82.0,0,0,0.0,72.0
1226,82.0,0,0,0.0,74.0
1227,76.0,0,480,1.0,72.0
1228,67.0,0,360,2.0,72.0
1229,65.0,360,120,2.0,73.0
1230,64.0,120,480,2.0,74.0
1231,79.0,360,120,0.0,78.0
1232,73.0,0,960,1.0,74.0
1233,65.0,0,360,2.0,75.0
1234,81.0,120,360,0.0,78.0
1235,72.0,0,480,1.0,78.0
1236,84.0,360,120,0.0,79.0
1237,69.0,0,120,2.0,77.0
1238,79.0,0,360,0.0,79.0
1239,70.0,0,360,2.0,77.0
1240,73.0,120,360,1.0,79.0
1241,76.0,0,120,0.0,77.0
1242,67.0,360,120,2.0,73.0
1243,60.0,480,1920,3.0,72.0
1244,70.0,0,120,1.0,77.0
1245,36.0,120,2407,3.0,75.0
1246,77.0,0,240,0.0,76.0
1247,69.0,0,240,2.0,72.0
1248,72.0,120,240,1.0,76.0
1249,81.0,360,120,0.0,74.0
1250,65.0,0,120,2.0,71.0
1251,69.0,0,120,1.0,74.0
1252,64.0,0,240,2.0,70.0
1253,67.0,0,240,1.0,73.0
1254,72.0,120,240,0.0,73.0
1255,67.0,0,120,1.0,70.0
1256,72.0,360,120,0.0,70.0
1257,63.0,0,120,2.0,69.0
1258,65.0,120,240,1.0,69.0
1259,62.0,0,240,2.0,69.0
1260,71.0,0,240,0.0,69.0
1261,65.0,0,120,1.0,67.0
1262,61.0,360,120,2.0,67.0
1263,70.0,0,0,0.0,66.0
1264,64.0,120,480,1.0,66.0
1265,70.0,0,0,0.0,63.0
1266,55.0,480,360,2.0,65.0
1267,53.0,360,120,2.0,64.0
1268,67.0,360,120,0.0,62.0
1269,61.0,0,960,1.0,63.0
1270,52.0,120,480,2.0,63.0
1271,69.0,0,360,0.0,61.0
1272,48.0,0,1920,3.0,72.0
1273,60.0,120,0,1.0,60.0
1274,72.0,360,120,0.0,60.0
1275,53.0,0,480,2.0,62.0
1276,67.0,0,360,0.0,60.0
1277,46.0,0,480,3.0,60.0
1278,52.0,0,480,2.0,60.0
1279,66.0,360,120,0.0,62.0
1280,60.0,120,0,1.0,63.0
1281,45.0,0,240,3.0,63.0
1282,53.0,0,240,2.0,63.0
1283,65.0,0,240,0.0,63.0
1284,72.0,0,120,0.0,65.0
1285,60.0,0,120,1.0,65.0
1286,54.0,360,120,2.0,65.0
1287,44.0,0,120,3.0,65.0
1288,64.0,120,360,0.0,65.0
1289,43.0,0,480,3.0,66.0
1290,60.0,0,0,1.0,68.0
1291,55.0,0,480,2.0,66.0
1292,63.0,360,120,0.0,67.0
1293,62.0,0,240,0.0,68.0
1294,54.0,120,240,2.0,69.0
1295,42.0,0,240,3.0,69.0
1296,42.0,360,120,3.0,71.0
1297,62.0,0,120,1.0,69.0
1298,69.0,0,120,0.0,69.0
1299,54.0,0,120,2.0,71.0
1300,60.0,0,0,1.0,71.0
1301,64.0,120,360,0.0,71.0
1302,55.0,0,480,2.0,69.0
1303,63.0,360,120,0.0,68.0
1304,43.0,0,480,3.0,69.0
1305,62.0,0,240,0.0,67.0
1306,43.0,120,240,2.0,66.0
1307,31.0,0,240,3.0,66.0
1308,59.0,0,240,1.0,67.0
1309,31.0,0,120,3.0,63.0
1310,67.0,0,120,0.0,64.0
1311,43.0,360,120,2.0,63.0
1312,59.0,0,120,1.0,64.0
1313,48.0,0,240,2.0,62.0
1314,36.0,120,240,3.0,62.0
1315,45.0,360,120,2.0,59.0
1316,60.0,0,480,0.0,63.0
1317,33.0,0,120,3.0,59.0
1318,43.0,120,240,2.0,59.0
1319,31.0,0,240,3.0,59.0
1320,57.0,0,120,1.0,79.0
1321,65.0,0,120,1.0,79.0
1322,60.0,0,120,1.0,79.0
1323,69.0,0,0,0.0,88.0
1324,29.0,0,120,3.0,79.0
1325,41.0,0,120,3.0,79.0
1326,41.0,0,240,3.0,88.0
1327,29.0,0,240,3.0,88.0
1328,53.0,120,240,3.0,77.0
1329,53.0,360,120,3.0,66.0
1330,69.0,0,0,0.0,54.0
1331,41.0,360,720,3.0,81.0
1332,65.0,120,240,3.0,62.0
1333,60.0,0,1268,1.0,88.0
1334,57.0,0,1268,1.0,88.0
1335,65.0,120,1268,1.0,88.0
1336,65.0,360,120,0.0,55.0
1337,69.0,120,240,0.0,56.0
1338,41.0,0,240,3.0,52.0
1339,74.0,120,0,0.0,57.0
1340,41.0,0,120,3.0,54.0
1341,40.0,0,720,3.0,59.0
1342,64.0,480,360,3.0,56.0
1343,72.0,0,360,0.0,59.0
1344,64.0,0,120,3.0,58.0
1345,71.0,360,120,0.0,61.0
1346,67.0,0,960,1.0,57.0
1347,72.0,0,240,0.0,61.0
1348,66.0,120,480,1.0,61.0
1349,69.0,360,120,0.0,63.0
1350,63.0,0,480,3.0,58.0
1351,72.0,120,240,0.0,63.0
1352,39.0,0,360,3.0,60.0
1353,78.0,360,120,0.0,64.0
1354,69.0,0,120,1.0,64.0
1355,72.0,0,120,1.0,64.0
1356,39.0,0,120,3.0,61.0
1357,78.0,120,480,0.0,65.0
1358,38.0,0,720,3.0,67.0
1359,62.0,480,360,3.0,64.0
1360,77.0,0,360,0.0,67.0
1361,62.0,360,120,3.0,65.0
1362,76.0,0,120,0.0,68.0
1363,77.0,0,240,0.0,69.0
1364,70.0,0,1312,1.0,65.0
1365,65.0,0,1440,1.0,65.0
1366,70.0,360,120,1.0,70.0
1367,61.0,120,480,3.0,66.0
1368,77.0,120,240,0.0,71.0
1369,37.0,360,0,3.0,69.0
1370,82.0,0,0,0.0,72.0
1371,76.0,120,480,1.0,72.0
1372,67.0,0,360,2.0,72.0
1373,65.0,360,120,2.0,73.0
1374,82.0,480,840,0.0,74.0
1375,73.0,0,960,1.0,74.0
1376,64.0,120,480,2.0,74.0
1377,79.0,360,120,0.0,78.0
1378,65.0,120,360,2.0,75.0
1379,81.0,0,360,0.0,78.0
1380,84.0,0,120,0.0,79.0
1381,72.0,0,480,1.0,78.0
1382,69.0,360,120,2.0,77.0
1383,79.0,0,360,0.0,79.0
1384,70.0,0,360,2.0,77.0
1385,73.0,120,360,1.0,79.0
1386,67.0,0,120,2.0,73.0
1387,70.0,360,120,1.0,77.0
1388,76.0,0,120,0.0,77.0
1389,60.0,0,1920,3.0,72.0
1390,36.0,0,2407,3.0,75.0
1391,72.0,0,240,1.0,76.0
1392,77.0,0,240,0.0,76.0
1393,69.0,120,240,2.0,72.0
1394,65.0,0,120,2.0,71.0
1395,69.0,360,120,1.0,74.0
1396,81.0,0,120,0.0,74.0
1397,64.0,120,240,2.0,70.0
1398,72.0,0,240,0.0,73.0
1399,67.0,0,240,1.0,73.0
1400,63.0,360,120,2.0,69.0
1401,72.0,0,120,0.0,70.0
1402,67.0,0,120,1.0,70.0
1403,62.0,120,240,2.0,69.0
1404,71.0,0,240,0.0,69.0
1405,65.0,0,240,1.0,69.0
1406,65.0,0,120,1.0,67.0
1407,70.0,360,120,0.0,67.0
1408,61.0,0,120,2.0,67.0
1409,70.0,0,480,0.0,66.0
1410,64.0,120,480,1.0,66.0
1411,55.0,0,360,2.0,65.0
1412,53.0,360,120,2.0,64.0
1413,70.0,0,840,0.0,63.0
1414,67.0,360,120,0.0,62.0
1415,61.0,480,960,1.0,63.0
1416,52.0,120,480,2.0,63.0
1417,69.0,0,360,0.0,61.0
1418,48.0,0,1920,3.0,72.0
1419,72.0,360,120,0.0,60.0
1420,53.0,120,480,2.0,62.0
1421,60.0,0,480,1.0,61.0
1422,67.0,120,360,0.0,60.0
1423,46.0,0,480,3.0,60.0
1424,66.0,360,120,0.0,62.0
1425,52.0,0,480,2.0,60.0
1426,60.0,0,0,1.0,63.0
1427,53.0,0,240,2.0,63.0
1428,65.0,0,240,0.0,63.0
1429,45.0,120,240,3.0,63.0
1430,60.0,0,120,1.0,65.0
1431,54.0,0,120,2.0,65.0
1432,44.0,0,120,3.0,65.0
1433,72.0,360,120,0.0,65.0
1434,64.0,0,360,0.0,65.0
1435,55.0,120,480,2.0,66.0
1436,63.0,360,120,0.0,67.0
1437,43.0,0,480,3.0,66.0
1438,60.0,0,480,1.0,65.0
1439,42.0,0,240,3.0,69.0
1440,62.0,0,240,0.0,68.0
1441,54.0,120,240,2.0,69.0
1442,60.0,0,240,1.0,68.0
1443,54.0,0,120,2.0,71.0
1444,69.0,0,120,0.0,69.0
1445,60.0,0,120,1.0,69.0
1446,62.0,360,120,1.0,69.0
1447,42.0,0,120,3.0,71.0
1448,64.0,0,360,0.0,71.0
1449,55.0,120,480,2.0,69.0
1450,43.0,0,480,3.0,69.0
1451,60.0,0,480,1.0,71.0
1452,63.0,360,120,0.0,68.0
1453,62.0,0,240,0.0,67.0
1454,31.0,0,240,3.0,66.0
1455,59.0,0,240,1.0,67.0
1456,43.0,120,240,2.0,66.0
1457,31.0,0,120,3.0,63.0
1458,67.0,0,120,0.0,64.0
1459,59.0,0,120,1.0,64.0
1460,43.0,360,120,2.0,63.0
1461,48.0,0,240,2.0,62.0
1462,36.0,120,240,3.0,62.0
1463,45.0,360,120,2.0,59.0
1464,33.0,0,120,3.0,59.0
1465,60.0,0,480,0.0,63.0
1466,31.0,0,240,3.0,59.0
1467,43.0,120,240,2.0,59.0
1468,67.0,120,0,2.0,58.0
1469,55.0,360,120,3.0,59.0
1470,76.0,0,120,0.0,59.0
1471,72.0,0,0,1.0,58.0
1472,76.0,0,360,0.0,58.0
1473,75.0,360,120,0.0,57.0
1474,66.0,0,120,2.0,57.0
1475,74.0,0,240,0.0,56.0
1476,65.0,0,240,2.0,56.0
1477,55.0,0,720,3.0,58.0
1478,71.0,120,240,1.0,56.0
1479,65.0,0,120,2.0,55.0
1480,55.0,0,120,3.0,55.0
1481,79.0,360,120,0.0,55.0
1482,71.0,0,120,1.0,55.0
1483,72.0,0,240,0.0,55.0
1484,69.0,360,78,0.0,53.0
1485,64.0,120,480,2.0,55.0
1486,60.0,0,480,3.0,55.0
1487,67.0,120,156,0.0,53.0
1488,48.0,360,120,3.0,51.0
1489,53.0,0,120,2.0,51.0
1490,57.0,0,120,2.0,51.0
1491,57.0,0,360,2.0,51.0
1492,53.0,0,480,2.0,51.0
1493,48.0,120,0,3.0,49.0
1494,56.0,360,120,2.0,50.0
1495,52.0,0,240,2.0,49.0
1496,55.0,0,240,2.0,49.0
1497,64.0,0,120,1.0,48.0
1498,48.0,0,120,3.0,48.0
1499,55.0,0,120,2.0,48.0
1500,60.0,0,120,2.0,48.0
1501,76.0,360,120,0.0,48.0
1502,65.0,120,156,1.0,47.0
1503,77.0,0,156,0.0,47.0
1504,74.0,360,78,0.0,46.0
1505,62.0,0,78,1.0,46.0
1506,53.0,0,480,3.0,47.0
1507,72.0,0,156,0.0,46.0
1508,60.0,120,156,1.0,46.0
1509,77.0,360,120,1.0,44.0
1510,72.0,0,120,2.0,44.0
1511,81.0,120,0,0.0,44.0
1512,72.0,0,360,2.0,44.0
1513,71.0,0,120,2.0,42.0
1514,80.0,360,120,0.0,43.0
1515,77.0,0,480,1.0,44.0
1516,60.0,0,720,3.0,44.0
1517,70.0,120,240,2.0,42.0
1518,79.0,0,240,0.0,42.0
1519,60.0,360,120,2.0,41.0
1520,48.0,0,120,3.0,41.0
1521,84.0,0,120,0.0,41.0
1522,76.0,0,480,1.0,42.0
1523,65.0,0,240,2.0,40.0
1524,53.0,120,240,3.0,40.0
1525,53.0,360,78,3.0,39.0
1526,77.0,0,480,0.0,40.0
1527,69.0,0,480,1.0,40.0
1528,41.0,120,156,3.0,38.0
1529,33.0,0,120,3.0,95.0
1530,69.0,0,120,0.0,95.0
1531,45.0,360,120,2.0,95.0
1532,81.0,0,0,0.0,79.0
1533,69.0,120,360,0.0,79.0
1534,81.0,360,120,0.0,55.0
1535,45.0,0,480,2.0,79.0
1536,33.0,0,720,3.0,79.0
1537,85.0,120,360,0.0,54.0
1538,90.0,360,120,0.0,53.0
1539,90.0,120,480,0.0,53.0
1540,64.0,360,120,3.0,55.0
1541,71.0,120,360,3.0,55.0
1542,88.0,0,480,0.0,51.0
1543,74.0,120,0,3.0,53.0
1544,57.0,360,120,0.0,49.0
1545,61.0,0,360,0.0,48.0
1546,73.0,120,480,3.0,51.0
1547,66.0,120,0,0.0,47.0
1548,52.0,360,120,3.0,49.0
1549,59.0,0,360,3.0,48.0
1550,62.0,120,0,3.0,46.0
1551,64.0,120,840,0.0,45.0
1552,80.0,360,120,0.0,42.0
1553,81.0,0,240,0.0,42.0
1554,61.0,120,480,3.0,45.0
1555,82.0,360,120,0.0,43.0
1556,82.0,120,240,0.0,43.0
1557,82.0,360,120,1.0,45.0
1558,70.0,0,120,2.0,46.0
1559,67.0,0,120,3.0,46.0
1560,88.0,0,120,0.0,45.0
1561,81.0,0,240,1.0,45.0
1562,69.0,0,240,2.0,46.0
1563,65.0,0,240,3.0,46.0
1564,89.0,120,240,0.0,45.0
1565,91.0,0,0,0.0,46.0
1566,79.0,0,0,1.0,46.0
1567,64.0,120,0,3.0,47.0
1568,67.0,0,0,2.0,47.0
1569,88.0,360,120,0.0,47.0
1570,91.0,0,240,0.0,48.0
1571,85.0,360,120,0.0,49.0
1572,57.0,0,480,2.0,49.0
1573,45.0,120,480,3.0,49.0
1574,88.0,120,240,0.0,49.0
1575,79.0,360,120,0.0,50.0
1576,82.0,120,240,0.0,51.0
1577,61.0,0,480,3.0,51.0
1578,81.0,360,120,0.0,52.0
1579,62.0,120,240,3.0,53.0
1580,57.0,360,120,3.0,54.0
1581,79.0,0,480,0.0,52.0
1582,81.0,0,80,0.0,53.0
1583,82.0,80,80,0.0,54.0
1584,81.0,80,80,0.0,54.0
1585,62.0,120,240,3.0,54.0
1586,79.0,80,120,0.0,54.0
1587,53.0,0,120,3.0,55.0
1588,81.0,120,120,0.0,55.0
1589,57.0,120,240,3.0,55.0
1590,50.0,360,120,3.0,57.0
1591,89.0,120,80,0.0,56.0
1592,91.0,80,80,0.0,57.0
1593,57.0,0,240,3.0,57.0
1594,89.0,80,80,0.0,57.0
1595,88.0,80,120,0.0,57.0
1596,48.0,120,120,3.0,58.0
1597,89.0,0,120,0.0,57.0
1598,89.0,0,240,0.0,58.0
1599,47.0,120,480,3.0,58.0
1600,55.0,0,480,2.0,58.0
1601,86.0,360,120,0.0,59.0
1602,89.0,0,240,0.0,59.0
1603,43.0,0,480,2.0,60.0
1604,31.0,120,480,3.0,60.0
1605,83.0,360,120,0.0,60.0
1606,86.0,120,240,0.0,61.0
1607,74.0,360,120,0.0,62.0
1608,80.0,0,240,0.0,62.0
1609,59.0,120,480,3.0,62.0
1610,79.0,360,120,0.0,63.0
1611,60.0,0,240,3.0,64.0
1612,76.0,120,480,0.0,63.0
1613,55.0,360,120,3.0,65.0
1614,81.0,0,80,0.0,65.0
1615,83.0,80,80,0.0,65.0
1616,81.0,80,80,0.0,65.0
1617,60.0,120,240,3.0,65.0
1618,80.0,80,120,0.0,66.0
1619,81.0,0,120,0.0,66.0
1620,53.0,120,120,3.0,66.0
1621,57.0,120,240,3.0,66.0
1622,50.0,360,120,3.0,67.0
1623,93.0,120,80,0.0,68.0
1624,95.0,80,80,0.0,68.0
1625,53.0,0,240,3.0,68.0
1626,93.0,80,80,0.0,68.0
1627,92.0,80,120,0.0,68.0
1628,41.0,0,120,3.0,69.0
1629,93.0,120,120,0.0,69.0
1630,92.0,0,240,0.0,74.0
1631,52.0,0,480,2.0,74.0
1632,76.0,360,120,0.0,57.0
1633,40.0,120,720,3.0,74.0
1634,79.0,120,360,0.0,57.0
1635,77.0,120,0,0.0,56.0
1636,57.0,360,120,3.0,54.0
1637,62.0,120,360,2.0,53.0
1638,58.0,0,360,3.0,53.0
1639,57.0,0,120,3.0,53.0
1640,65.0,360,120,2.0,53.0
1641,59.0,120,480,2.0,53.0
1642,75.0,360,120,0.0,54.0
1643,56.0,0,720,3.0,53.0
1644,77.0,120,360,0.0,53.0
1645,76.0,360,120,0.0,53.0
1646,55.0,360,120,3.0,51.0
1647,57.0,0,360,3.0,50.0
1648,61.0,120,360,2.0,50.0
1649,55.0,360,120,3.0,50.0
1650,64.0,0,120,2.0,50.0
1651,57.0,0,240,2.0,50.0
1652,53.0,120,240,3.0,50.0
1653,67.0,360,120,2.0,49.0
1654,76.0,120,1440,0.0,53.0
1655,64.0,0,120,3.0,49.0
1656,70.0,0,360,2.0,49.0
1657,67.0,0,360,3.0,49.0
1658,65.0,360,120,3.0,48.0
1659,69.0,120,0,2.0,48.0
1660,74.0,120,480,0.0,50.0
1661,74.0,360,120,0.0,49.0
1662,77.0,120,240,0.0,48.0
1663,82.0,360,120,0.0,48.0
1664,65.0,0,1320,3.0,48.0
1665,65.0,360,120,2.0,46.0
1666,62.0,0,120,3.0,46.0
1667,69.0,0,360,2.0,46.0
1668,65.0,120,360,3.0,46.0
1669,67.0,120,0,2.0,45.0
1670,64.0,0,120,3.0,45.0
1671,82.0,120,1320,0.0,48.0
1672,73.0,360,120,0.0,45.0
1673,76.0,120,240,0.0,45.0
1674,64.0,0,960,3.0,45.0
1675,81.0,360,120,0.0,44.0
1676,65.0,0,240,2.0,44.0
1677,62.0,120,240,3.0,44.0
1678,38.0,360,120,3.0,44.0
1679,81.0,0,720,0.0,44.0
1680,41.0,120,360,3.0,44.0
1681,54.0,360,120,1.0,45.0
1682,39.0,0,0,3.0,45.0
1683,57.0,120,360,1.0,45.0
1684,60.0,360,120,1.0,46.0
1685,66.0,0,120,0.0,46.0
1686,69.0,0,360,0.0,46.0
1687,66.0,120,480,1.0,46.0
1688,72.0,360,120,0.0,47.0
1689,67.0,120,480,1.0,47.0
1690,36.0,360,120,3.0,48.0
1691,70.0,0,480,0.0,47.0
1692,39.0,120,360,3.0,48.0
1693,58.0,0,120,1.0,49.0
1694,38.0,360,120,3.0,49.0
1695,62.0,0,360,1.0,49.0
1696,38.0,120,480,3.0,49.0
1697,67.0,0,120,1.0,50.0
1698,70.0,360,120,0.0,50.0
1699,74.0,120,360,0.0,50.0
1700,67.0,0,480,1.0,50.0
1701,34.0,0,480,3.0,50.0
1702,79.0,360,480,0.0,51.0
1703,79.0,360,120,0.0,52.0
1704,33.0,120,480,3.0,51.0
1705,38.0,0,240,3.0,52.0
1706,72.0,120,0,1.0,53.0
1707,32.0,240,240,3.0,53.0
1708,71.0,120,240,1.0,53.0
1709,77.0,120,825,0.0,52.0
1710,31.0,0,480,3.0,53.0
1711,77.0,120,120,0.0,54.0
1712,70.0,240,480,1.0,54.0
1713,67.0,0,480,1.0,54.0
1714,76.0,0,240,0.0,54.0
1715,65.0,0,240,1.0,55.0
1716,68.0,0,240,1.0,55.0
1717,77.0,240,240,0.0,55.0
1718,37.0,120,840,3.0,54.0
1719,35.0,600,120,3.0,56.0
1720,37.0,120,360,3.0,56.0
1721,36.0,120,0,3.0,57.0
1722,53.0,360,120,1.0,57.0
1723,56.0,0,360,1.0,57.0
1724,61.0,360,120,1.0,58.0
1725,68.0,360,120,0.0,59.0
1726,65.0,120,480,1.0,58.0
1727,61.0,120,480,1.0,59.0
1728,33.0,360,120,3.0,60.0
1729,66.0,0,480,1.0,59.0
1730,73.0,0,480,0.0,59.0
1731,36.0,120,360,3.0,60.0
1732,54.0,0,120,1.0,61.0
1733,34.0,120,0,3.0,61.0
1734,58.0,0,360,1.0,61.0
1735,61.0,360,120,1.0,62.0
1736,66.0,120,360,1.0,62.0
1737,64.0,0,120,1.0,63.0
1738,67.0,0,120,1.0,63.0
1739,73.0,360,120,0.0,63.0
1740,65.0,120,240,1.0,63.0
1741,72.0,0,240,1.0,63.0
1742,77.0,0,240,0.0,63.0
1743,55.0,0,120,1.0,63.0
1744,64.0,360,120,1.0,63.0
1745,32.0,0,480,3.0,63.0
1746,67.0,0,360,1.0,62.0
1747,58.0,0,360,1.0,62.0
1748,37.0,120,480,3.0,62.0
1749,65.0,0,120,0.0,62.0
1750,56.0,360,120,1.0,62.0
1751,62.0,0,120,1.0,61.0
1752,53.0,360,120,1.0,61.0
1753,31.0,120,480,3.0,62.0
1754,70.0,0,480,0.0,61.0
1755,65.0,0,360,1.0,60.0
1756,57.0,120,360,1.0,60.0
1757,36.0,0,480,3.0,61.0
1758,64.0,360,120,0.0,60.0
1759,55.0,0,120,1.0,60.0
1760,51.0,0,120,2.0,59.0
1761,68.0,120,480,0.0,59.0
1762,29.0,0,480,3.0,60.0
1763,60.0,360,120,1.0,59.0
1764,63.0,0,360,1.0,58.0
1765,54.0,120,360,2.0,59.0
1766,62.0,0,120,1.0,58.0
1767,46.0,0,480,3.0,59.0
1768,70.0,360,120,0.0,58.0
1769,53.0,0,120,2.0,58.0
1770,78.0,120,480,0.0,57.0
1771,51.0,360,120,2.0,57.0
1772,60.0,0,120,1.0,57.0
1773,39.0,0,480,3.0,58.0
1774,63.0,120,360,1.0,56.0
1775,54.0,0,360,2.0,57.0
1776,61.0,360,120,1.0,56.0
1777,44.0,0,480,3.0,57.0
1778,53.0,0,120,2.0,56.0
1779,68.0,0,120,0.0,56.0
1780,61.0,360,120,3.0,55.0
1781,65.0,120,360,3.0,55.0
1782,68.0,360,120,3.0,54.0
1783,80.0,120,1320,0.0,55.0
1784,68.0,120,480,3.0,54.0
1785,77.0,360,120,0.0,53.0
1786,80.0,0,360,0.0,52.0
1787,80.0,360,120,0.0,52.0
1788,70.0,120,480,3.0,53.0
1789,80.0,120,480,0.0,51.0
1790,63.0,360,120,3.0,52.0
1791,66.0,0,360,3.0,51.0
1792,70.0,360,120,3.0,51.0
1793,82.0,120,840,0.0,50.0
1794,70.0,120,480,3.0,50.0
1795,75.0,360,120,0.0,49.0
1796,78.0,0,360,0.0,48.0
1797,84.0,360,120,0.0,48.0
1798,72.0,120,480,3.0,49.0
1799,65.0,360,120,3.0,48.0
1800,84.0,120,480,0.0,47.0
1801,68.0,120,360,3.0,48.0
1802,72.0,360,120,3.0,47.0
1803,85.0,0,840,0.0,46.0
1804,77.0,360,120,0.0,45.0
1805,72.0,120,480,3.0,47.0
1806,80.0,0,360,0.0,44.0
1807,73.0,120,480,3.0,46.0
1808,86.0,360,120,0.0,44.0
1809,89.0,120,1320,0.0,43.0
1810,77.0,360,120,0.0,41.0
1811,82.0,120,360,0.0,40.0
1812,37.0,0,7575,3.0,56.0
1813,89.0,360,120,0.0,40.0
1814,49.0,960,960,2.0,43.0
1815,89.0,120,480,0.0,39.0
1816,48.0,0,900,2.0,38.0
1817,36.0,0,907,3.0,38.0
1818,88.0,480,840,0.0,38.0
1819,77.0,360,120,0.0,37.0
1820,82.0,120,360,0.0,36.0
1821,49.0,0,960,2.0,39.0
1822,37.0,480,960,3.0,39.0
1823,89.0,0,0,0.0,35.0
1824,48.0,120,900,2.0,37.0
1825,36.0,0,907,3.0,37.0
1826,88.0,480,840,0.0,34.0
1827,82.0,360,120,0.0,33.0
1828,89.0,120,360,0.0,32.0
1829,49.0,0,960,2.0,36.0
1830,94.0,360,120,0.0,34.0
1831,37.0,480,960,3.0,36.0
1832,36.0,0,160,3.0,30.0
1833,48.0,160,160,2.0,31.0
1834,36.0,160,160,3.0,32.0
1835,94.0,120,480,0.0,34.0
1836,48.0,160,160,2.0,33.0
1837,36.0,160,160,3.0,34.0
1838,48.0,160,160,2.0,35.0
1839,36.0,160,160,3.0,35.0
1840,48.0,160,160,2.0,36.0
1841,94.0,0,840,0.0,37.0
1842,91.0,40,120,0.0,42.0
1843,36.0,160,160,3.0,37.0
1844,48.0,120,160,2.0,38.0
1845,36.0,160,160,3.0,39.0
1846,93.0,0,360,0.0,43.0
1847,96.0,40,120,0.0,45.0
1848,48.0,160,160,2.0,40.0
1849,36.0,0,160,3.0,41.0
1850,48.0,160,160,2.0,41.0
1851,91.0,120,360,0.0,46.0
1852,88.0,40,120,0.0,48.0
1853,36.0,160,160,3.0,42.0
1854,48.0,0,160,2.0,43.0
1855,89.0,120,240,0.0,48.0
1856,36.0,160,160,3.0,44.0
1857,48.0,160,160,2.0,45.0
1858,93.0,40,120,0.0,51.0
1859,36.0,120,160,3.0,46.0
1860,84.0,0,240,0.0,51.0
1861,79.0,0,240,1.0,51.0
1862,76.0,0,240,1.0,51.0
1863,48.0,160,160,2.0,47.0
1864,84.0,40,120,0.0,53.0
1865,36.0,160,160,3.0,48.0
1866,76.0,0,120,1.0,53.0
1867,79.0,0,120,1.0,53.0
1868,48.0,0,160,2.0,48.0
1869,83.0,120,240,0.0,54.0
1870,77.0,0,240,1.0,54.0
1871,74.0,0,240,1.0,54.0
1872,36.0,160,160,3.0,49.0
1873,83.0,0,120,0.0,56.0
1874,48.0,160,160,2.0,50.0
1875,74.0,0,120,1.0,56.0
1876,77.0,40,120,1.0,56.0
1877,48.0,120,160,3.0,51.0
1878,60.0,160,160,2.0,52.0
1879,48.0,160,160,3.0,53.0
1880,82.0,0,480,0.0,57.0
1881,79.0,0,0,1.0,60.0
1882,76.0,0,0,1.0,60.0
1883,70.0,0,0,1.0,60.0
1884,60.0,160,160,2.0,54.0
1885,48.0,160,160,3.0,55.0
1886,60.0,160,160,2.0,55.0
1887,48.0,160,160,3.0,56.0
1888,60.0,160,160,2.0,57.0
1889,82.0,0,840,0.0,60.0
1890,48.0,160,160,3.0,58.0
1891,79.0,40,120,0.0,65.0
1892,60.0,120,160,2.0,59.0
1893,48.0,160,160,3.0,60.0
1894,81.0,0,360,0.0,66.0
1895,60.0,160,160,2.0,61.0
1896,84.0,40,120,0.0,68.0
1897,70.0,160,160,2.0,62.0
1898,79.0,0,360,0.0,68.0
1899,67.0,160,160,2.0,63.0
1900,76.0,40,120,0.0,70.0
1901,69.0,0,160,2.0,64.0
1902,60.0,160,160,2.0,65.0
1903,77.0,120,360,0.0,71.0
1904,72.0,160,160,2.0,66.0
1905,81.0,40,120,0.0,73.0
1906,64.0,120,160,2.0,67.0
1907,72.0,0,240,0.0,74.0
1908,60.0,160,160,2.0,68.0
1909,67.0,160,160,2.0,68.0
1910,72.0,40,120,0.0,76.0
1911,62.0,120,160,2.0,69.0
1912,71.0,0,240,0.0,77.0
1913,60.0,160,160,2.0,70.0
1914,70.0,0,120,0.0,79.0
1915,48.0,120,0,3.0,78.0
1916,65.0,160,160,2.0,71.0
1917,67.0,40,120,1.0,79.0
1918,60.0,120,1920,3.0,61.0
1919,58.0,0,480,1.0,80.0
1920,67.0,0,480,1.0,80.0
1921,64.0,0,480,1.0,80.0
1922,70.0,0,480,0.0,80.0
1923,36.0,0,480,3.0,78.0
1924,58.0,480,840,3.0,78.0
1925,55.0,840,120,3.0,79.0
1926,57.0,120,360,3.0,79.0
1927,60.0,360,120,3.0,79.0
1928,57.0,120,360,3.0,80.0
1929,65.0,0,840,1.0,91.0
1930,62.0,360,120,1.0,82.0
1931,53.0,0,120,3.0,80.0
1932,64.0,120,360,1.0,82.0
1933,55.0,0,360,3.0,80.0
1934,58.0,0,120,3.0,80.0
1935,67.0,360,120,1.0,82.0
1936,70.0,0,840,0.0,92.0
1937,55.0,120,360,3.0,81.0
1938,60.0,0,480,1.0,82.0
1939,52.0,0,120,3.0,81.0
1940,67.0,360,120,0.0,83.0
1941,53.0,0,360,3.0,81.0
1942,68.0,120,360,1.0,83.0
1943,57.0,360,120,3.0,81.0
1944,72.0,0,120,1.0,83.0
1945,50.0,0,360,3.0,82.0
1946,68.0,120,360,1.0,83.0
1947,77.0,0,840,0.0,93.0
1948,67.0,0,120,1.0,84.0
1949,74.0,360,120,1.0,84.0
1950,47.0,0,120,3.0,82.0
1951,75.0,0,360,1.0,84.0
1952,48.0,120,360,3.0,82.0
1953,78.0,360,120,1.0,84.0
1954,49.0,0,120,3.0,82.0
1955,48.0,120,360,3.0,83.0
1956,87.0,0,840,0.0,89.0
1957,78.0,0,480,1.0,84.0
1958,84.0,0,120,0.0,85.0
1959,45.0,360,120,3.0,83.0
1960,46.0,0,360,3.0,83.0
1961,86.0,0,360,0.0,85.0
1962,50.0,360,120,3.0,83.0
1963,89.0,0,120,0.0,85.0
1964,86.0,120,360,0.0,85.0
1965,46.0,0,360,3.0,84.0
1966,43.0,0,120,3.0,84.0
1967,83.0,360,120,0.0,86.0
1968,77.0,360,0,1.0,86.0
1969,84.0,0,360,0.0,86.0
1970,45.0,120,360,3.0,84.0
1971,46.0,0,120,3.0,84.0
1972,86.0,0,120,0.0,86.0
1973,77.0,0,0,1.0,86.0
1974,74.0,0,120,1.0,86.0
1975,48.0,120,360,3.0,85.0
1976,72.0,0,0,1.0,87.0
1977,81.0,0,360,0.0,86.0
1978,60.0,0,120,3.0,85.0
1979,79.0,0,120,0.0,87.0
1980,76.0,360,120,1.0,87.0
1981,81.0,120,240,0.0,87.0
1982,60.0,0,240,3.0,85.0
1983,77.0,0,240,1.0,87.0
1984,72.0,0,240,1.0,87.0
1985,79.0,360,78,1.0,87.0
1986,82.0,0,78,0.0,87.0
1987,48.0,0,120,3.0,85.0
1988,81.0,120,360,0.0,87.0
1989,77.0,0,360,1.0,87.0
1990,70.0,360,120,0.0,47.0
1991,67.0,0,120,1.0,47.0
1992,41.0,0,720,3.0,46.0
1993,72.0,120,360,0.0,48.0
1994,69.0,0,360,1.0,48.0
1995,74.0,360,120,0.0,50.0
1996,70.0,0,120,1.0,50.0
1997,89.0,0,840,3.0,49.0
1998,69.0,0,360,1.0,51.0
1999,72.0,120,360,0.0,51.0
2000,70.0,0,120,1.0,54.0
2001,74.0,0,120,0.0,54.0
2002,88.0,360,120,3.0,54.0
2003,72.0,120,360,1.0,54.0
2004,86.0,0,360,3.0,55.0
2005,76.0,0,360,0.0,54.0
2006,74.0,360,120,1.0,57.0
2007,84.0,0,0,3.0,58.0
2008,77.0,0,120,0.0,57.0
2009,76.0,120,360,1.0,58.0
2010,79.0,0,360,0.0,58.0
2011,81.0,0,120,0.0,60.0
2012,77.0,360,120,1.0,60.0
2013,29.0,0,360,3.0,61.0
2014,41.0,0,360,2.0,61.0
2015,43.0,0,120,2.0,63.0
2016,31.0,360,120,3.0,63.0
2017,33.0,0,360,3.0,64.0
2018,45.0,120,360,2.0,64.0
2019,34.0,0,120,3.0,66.0
2020,82.0,120,960,0.0,61.0
2021,79.0,0,960,1.0,61.0
2022,46.0,360,120,2.0,66.0
2023,48.0,120,360,2.0,67.0
2024,36.0,0,360,3.0,67.0
2025,81.0,0,480,0.0,67.0
2026,38.0,0,120,3.0,70.0
2027,77.0,0,480,1.0,67.0
2028,50.0,360,120,2.0,70.0
2029,40.0,120,360,3.0,70.0
2030,52.0,0,360,2.0,70.0
2031,53.0,360,120,2.0,73.0
2032,41.0,0,120,3.0,73.0
2033,79.0,0,480,0.0,70.0
2034,55.0,120,360,2.0,73.0
2035,43.0,0,360,3.0,73.0
2036,45.0,360,120,3.0,76.0
2037,57.0,0,120,2.0,76.0
2038,58.0,0,360,2.0,76.0
2039,46.0,120,360,3.0,76.0
2040,77.0,0,960,0.0,73.0
2041,59.0,0,120,2.0,79.0
2042,47.0,360,120,3.0,79.0
2043,48.0,120,360,3.0,79.0
2044,60.0,0,360,2.0,79.0
2045,36.0,0,120,3.0,82.0
2046,48.0,360,120,2.0,82.0
2047,76.0,0,480,0.0,80.0
2048,69.0,120,160,0.0,83.0
2049,65.0,160,160,0.0,58.0
2050,70.0,160,160,0.0,59.0
2051,41.0,0,480,2.0,83.0
2052,72.0,160,160,0.0,60.0
2053,29.0,0,720,3.0,83.0
2054,69.0,160,160,0.0,61.0
2055,74.0,160,160,0.0,62.0
2056,72.0,160,160,0.0,64.0
2057,69.0,160,160,0.0,65.0
2058,89.0,0,840,3.0,59.0
2059,74.0,160,160,0.0,66.0
2060,88.0,40,120,3.0,65.0
2061,76.0,120,160,0.0,67.0
2062,72.0,160,160,0.0,68.0
2063,86.0,0,360,3.0,66.0
2064,84.0,40,120,3.0,68.0
2065,77.0,160,160,0.0,69.0
2066,79.0,120,160,0.0,70.0
2067,76.0,160,160,0.0,71.0
2068,81.0,160,160,0.0,72.0
2069,77.0,0,160,1.0,72.0
2070,84.0,0,480,3.0,69.0
2071,29.0,0,232,3.0,73.0
2072,41.0,120,120,2.0,74.0
2073,31.0,120,232,3.0,74.0
2074,43.0,120,120,2.0,75.0
2075,33.0,120,232,3.0,76.0
2076,45.0,120,120,2.0,77.0
2077,34.0,120,232,3.0,78.0
2078,79.0,0,960,1.0,73.0
2079,46.0,120,120,2.0,79.0
2080,82.0,160,960,0.0,73.0
2081,36.0,0,232,3.0,80.0
2082,48.0,120,120,2.0,81.0
2083,38.0,120,232,3.0,81.0
2084,81.0,0,480,0.0,80.0
2085,50.0,120,120,2.0,82.0
2086,77.0,120,480,1.0,80.0
2087,40.0,0,232,3.0,83.0
2088,52.0,120,120,2.0,84.0
2089,41.0,120,232,3.0,85.0
2090,53.0,120,120,2.0,86.0
2091,70.0,0,480,1.0,83.0
2092,79.0,120,480,0.0,83.0
2093,43.0,0,232,3.0,87.0
2094,55.0,120,120,2.0,88.0
2095,45.0,120,232,3.0,88.0
2096,57.0,120,120,2.0,89.0
2097,46.0,120,232,3.0,90.0
2098,58.0,120,120,2.0,91.0
2099,47.0,120,232,3.0,92.0
2100,69.0,120,960,1.0,86.0
2101,77.0,0,960,0.0,86.0
2102,59.0,120,120,2.0,93.0
2103,48.0,120,232,3.0,94.0
2104,60.0,120,120,2.0,95.0
2105,46.0,120,232,3.0,95.0
2106,58.0,120,120,2.0,96.0
2107,76.0,0,480,0.0,92.0
2108,67.0,0,480,1.0,92.0
2109,96.0,120,960,0.0,96.0
2110,57.0,0,960,2.0,97.0
2111,45.0,0,960,3.0,97.0
2112,84.0,0,960,1.0,96.0
2113,75.0,0,960,0.0,95.0
2114,72.0,960,960,0.0,95.0
2115,63.0,0,960,2.0,95.0
2116,60.0,0,960,2.0,95.0
2117,65.0,0,0,1.0,60.0
2118,57.0,0,960,3.0,95.0
2119,74.0,960,240,0.0,60.0
2120,62.0,0,240,2.0,60.0
2121,58.0,0,240,3.0,60.0
2122,70.0,0,240,1.0,60.0
2123,70.0,360,120,1.0,59.0
2124,65.0,120,0,1.0,58.0
2125,74.0,0,120,0.0,59.0
2126,58.0,0,120,3.0,59.0
2127,60.0,0,240,3.0,58.0
2128,72.0,0,240,0.0,58.0
2129,69.0,0,240,1.0,58.0
2130,72.0,0,120,0.0,57.0
2131,65.0,0,0,1.0,57.0
2132,60.0,0,120,3.0,57.0
2133,69.0,360,120,1.0,57.0
2134,71.0,120,240,0.0,57.0
2135,62.0,0,240,3.0,57.0
2136,68.0,0,240,1.0,57.0
2137,64.0,360,120,3.0,56.0
2138,70.0,0,120,0.0,56.0
2139,67.0,0,120,1.0,56.0
2140,69.0,120,240,0.0,56.0
2141,65.0,0,240,3.0,56.0
2142,60.0,120,0,3.0,55.0
2143,81.0,0,0,0.0,55.0
2144,72.0,0,0,2.0,55.0
2145,77.0,0,0,1.0,55.0
2146,77.0,0,0,1.0,54.0
2147,60.0,120,0,3.0,53.0
2148,77.0,0,0,1.0,53.0
2149,71.0,360,120,2.0,54.0
2150,80.0,0,120,0.0,54.0
2151,79.0,0,240,0.0,53.0
2152,70.0,0,240,2.0,53.0
2153,76.0,0,120,1.0,52.0
2154,70.0,360,120,2.0,52.0
2155,60.0,0,120,3.0,52.0
2156,84.0,0,120,0.0,52.0
2157,65.0,0,156,3.0,52.0
2158,69.0,0,156,2.0,52.0
2159,62.0,360,78,3.0,51.0
2160,77.0,120,480,0.0,52.0
2161,60.0,120,156,3.0,51.0
2162,69.0,120,0,0.0,50.0
2163,65.0,0,0,1.0,50.0
2164,60.0,0,120,2.0,50.0
2165,48.0,0,0,3.0,50.0
2166,60.0,0,360,2.0,50.0
2167,59.0,0,120,2.0,49.0
2168,65.0,360,120,1.0,49.0
2169,68.0,0,120,0.0,49.0
2170,67.0,120,240,0.0,48.0
2171,48.0,0,240,3.0,48.0
2172,64.0,0,240,1.0,48.0
2173,58.0,0,240,2.0,48.0
2174,48.0,0,120,3.0,47.0
2175,72.0,360,120,1.0,48.0
2176,58.0,0,120,2.0,47.0
2177,76.0,0,120,0.0,48.0
2178,72.0,0,156,1.0,47.0
2179,77.0,0,156,0.0,47.0
2180,74.0,360,78,0.0,46.0
2181,57.0,0,480,2.0,47.0
2182,53.0,120,480,3.0,47.0
2183,72.0,120,156,0.0,46.0
2184,77.0,0,120,1.0,79.0
2185,81.0,0,120,0.0,79.0
2186,48.0,0,120,3.0,81.0
2187,69.0,0,0,1.0,79.0
2188,60.0,0,0,2.0,81.0
2189,81.0,120,360,0.0,79.0
2190,77.0,0,360,1.0,79.0
2191,48.0,0,360,3.0,81.0
2192,80.0,0,120,0.0,77.0
2193,36.0,120,0,3.0,78.0
2194,77.0,0,120,1.0,77.0
2195,48.0,0,0,2.0,78.0
2196,68.0,0,120,1.0,77.0
2197,76.0,0,156,1.0,76.0
2198,79.0,0,156,0.0,76.0
2199,67.0,0,156,1.0,76.0
2200,48.0,0,78,2.0,76.0
2201,79.0,0,78,1.0,74.0
2202,76.0,0,78,1.0,74.0
2203,88.0,0,78,0.0,74.0
2204,36.0,360,78,3.0,76.0
2205,77.0,0,240,1.0,73.0
2206,29.0,120,240,3.0,75.0
2207,41.0,0,240,2.0,75.0
2208,81.0,0,240,1.0,73.0
2209,89.0,0,240,0.0,73.0
2210,65.0,840,120,0.0,42.0
2211,65.0,120,720,0.0,42.0
2212,67.0,720,120,0.0,42.0
2213,65.0,120,120,0.0,42.0
2214,65.0,120,720,0.0,42.0
2215,67.0,720,120,0.0,43.0
2216,65.0,120,120,0.0,43.0
2217,74.0,0,720,0.0,43.0
2218,58.0,0,720,3.0,43.0
2219,75.0,720,120,0.0,43.0
2220,57.0,0,120,3.0,43.0
2221,58.0,120,0,3.0,43.0
2222,74.0,0,0,0.0,43.0
2223,57.0,720,120,3.0,43.0
2224,75.0,0,120,0.0,43.0
2225,58.0,120,120,3.0,43.0
2226,65.0,0,0,1.0,43.0
2227,74.0,0,0,0.0,43.0
2228,58.0,120,720,3.0,43.0
2229,57.0,720,240,3.0,44.0
2230,72.0,0,240,0.0,44.0
2231,58.0,240,240,3.0,44.0
2232,74.0,0,240,0.0,44.0
2233,77.0,0,240,0.0,44.0
2234,62.0,240,240,3.0,44.0
2235,72.0,240,240,0.0,44.0
2236,57.0,0,240,3.0,44.0
2237,58.0,0,240,3.0,44.0
2238,74.0,240,240,0.0,44.0
2239,60.0,0,240,3.0,44.0
2240,55.0,240,240,3.0,44.0
2241,75.0,240,720,0.0,44.0
2242,57.0,240,240,3.0,44.0
2243,74.0,0,240,0.0,45.0
2244,58.0,240,240,3.0,45.0
2245,52.0,240,240,3.0,45.0
2246,53.0,240,240,3.0,45.0
2247,55.0,240,240,3.0,45.0
2248,72.0,0,720,0.0,45.0
2249,50.0,240,240,3.0,45.0
2250,70.0,0,240,0.0,45.0
2251,72.0,0,240,0.0,45.0
2252,67.0,240,240,0.0,45.0
2253,69.0,240,240,0.0,45.0
2254,51.0,240,720,3.0,45.0
2255,50.0,240,240,3.0,45.0
2256,70.0,0,240,0.0,46.0
2257,64.0,0,240,0.0,46.0
2258,65.0,240,240,0.0,46.0
2259,67.0,240,240,0.0,46.0
2260,48.0,240,720,3.0,46.0
2261,62.0,240,240,0.0,46.0
2262,46.0,0,240,3.0,46.0
2263,67.0,240,240,0.0,46.0
2264,70.0,240,240,0.0,46.0
2265,72.0,240,240,0.0,46.0
2266,70.0,240,240,0.0,46.0
2267,55.0,240,240,3.0,46.0
2268,58.0,240,240,3.0,46.0
2269,64.0,0,720,0.0,46.0
2270,60.0,240,240,3.0,47.0
2271,58.0,240,240,3.0,47.0
2272,73.0,0,240,0.0,47.0
2273,72.0,0,240,0.0,47.0
2274,69.0,240,240,0.0,47.0
2275,52.0,240,720,3.0,47.0
2276,70.0,240,240,0.0,47.0
2277,61.0,0,240,3.0,47.0
2278,82.0,0,0,0.0,47.0
2279,60.0,240,240,3.0,47.0
2280,57.0,240,240,3.0,47.0
2281,58.0,240,240,3.0,47.0
2282,70.0,240,0,3.0,48.0
2283,76.0,240,240,0.0,48.0
2284,79.0,0,240,0.0,48.0
2285,82.0,240,240,0.0,48.0
2286,84.0,240,240,0.0,48.0
2287,85.0,240,240,0.0,48.0
2288,64.0,0,240,3.0,48.0
2289,67.0,240,240,3.0,48.0
2290,70.0,240,240,3.0,48.0
2291,84.0,0,720,0.0,48.0
2292,72.0,240,240,3.0,48.0
2293,82.0,0,240,0.0,48.0
2294,73.0,240,240,3.0,48.0
2295,82.0,240,240,0.0,49.0
2296,81.0,240,240,0.0,49.0
2297,84.0,240,240,0.0,49.0
2298,72.0,0,720,3.0,48.0
2299,88.0,0,240,0.0,49.0
2300,70.0,0,0,3.0,49.0
2301,89.0,240,240,0.0,49.0
2302,69.0,240,240,3.0,49.0
2303,77.0,240,240,0.0,49.0
2304,72.0,0,240,3.0,49.0
2305,76.0,240,240,3.0,49.0
2306,77.0,0,240,3.0,49.0
2307,70.0,240,240,0.0,49.0
2308,69.0,240,240,0.0,50.0
2309,72.0,240,240,0.0,50.0
2310,65.0,0,240,3.0,50.0
2311,76.0,240,240,0.0,50.0
2312,77.0,0,240,0.0,50.0
2313,58.0,240,240,3.0,50.0
2314,57.0,240,240,3.0,50.0
2315,60.0,0,240,3.0,50.0
2316,65.0,240,240,0.0,50.0
2317,65.0,240,240,3.0,50.0
2318,65.0,240,240,3.0,50.0
2319,60.0,240,240,3.0,50.0
2320,62.0,240,240,3.0,50.0
2321,64.0,240,240,3.0,50.0
2322,58.0,240,240,3.0,51.0
2323,60.0,240,240,3.0,51.0
2324,62.0,240,240,3.0,51.0
2325,57.0,240,240,3.0,51.0
2326,77.0,0,240,0.0,51.0
2327,72.0,240,240,0.0,51.0
2328,58.0,240,720,3.0,51.0
2329,74.0,240,240,0.0,51.0
2330,76.0,0,240,0.0,51.0
2331,57.0,240,240,3.0,51.0
2332,70.0,240,240,0.0,52.0
2333,72.0,240,240,0.0,52.0
2334,74.0,240,240,0.0,52.0
2335,55.0,0,720,3.0,51.0
2336,53.0,0,240,3.0,52.0
2337,69.0,240,240,0.0,52.0
2338,55.0,240,240,3.0,52.0
2339,53.0,240,240,3.0,52.0
2340,53.0,240,240,3.0,52.0
2341,70.0,0,720,0.0,52.0
2342,69.0,240,240,0.0,52.0
2343,61.0,0,240,3.0,52.0
2344,62.0,240,240,3.0,52.0
2345,61.0,240,240,3.0,52.0
2346,62.0,240,240,3.0,52.0
2347,67.0,0,720,0.0,52.0
2348,50.0,240,240,3.0,53.0
2349,65.0,0,240,0.0,53.0
2350,67.0,0,240,0.0,53.0
2351,65.0,240,240,0.0,53.0
2352,51.0,240,720,3.0,53.0
2353,65.0,240,240,0.0,53.0
2354,73.0,240,240,0.0,53.0
2355,50.0,0,240,3.0,53.0
2356,74.0,0,240,0.0,53.0
2357,73.0,240,240,0.0,53.0
2358,48.0,240,720,3.0,53.0
2359,74.0,240,240,0.0,53.0
2360,46.0,0,240,3.0,53.0
2361,62.0,240,240,0.0,54.0
2362,48.0,0,240,3.0,53.0
2363,46.0,240,0,3.0,54.0
2364,75.0,240,720,0.0,54.0
2365,54.0,240,240,3.0,54.0
2366,74.0,0,240,0.0,54.0
2367,55.0,240,240,3.0,54.0
2368,54.0,240,240,3.0,54.0
2369,55.0,240,240,3.0,54.0
2370,72.0,0,720,0.0,54.0
2371,43.0,0,240,3.0,54.0
2372,70.0,240,240,0.0,54.0
2373,72.0,240,240,0.0,55.0
2374,70.0,240,240,0.0,55.0
2375,70.0,240,240,0.0,55.0
2376,78.0,240,240,0.0,55.0
2377,79.0,0,240,0.0,55.0
2378,78.0,240,240,0.0,55.0
2379,64.0,240,480,3.0,55.0
2380,79.0,240,240,0.0,55.0
2381,58.0,0,360,3.0,55.0
2382,60.0,120,60,3.0,55.0
2383,58.0,60,60,3.0,55.0
2384,67.0,240,240,0.0,55.0
2385,57.0,60,480,3.0,55.0
2386,76.0,0,480,0.0,55.0
2387,70.0,0,360,0.0,56.0
2388,72.0,360,60,0.0,56.0
2389,70.0,60,60,0.0,56.0
2390,64.0,480,480,3.0,55.0
2391,65.0,0,480,3.0,50.0
2392,69.0,60,480,0.0,56.0
2393,60.0,480,360,3.0,56.0
2394,62.0,360,60,3.0,56.0
2395,76.0,0,480,0.0,56.0
2396,60.0,60,60,3.0,56.0
2397,77.0,60,480,0.0,51.0
2398,59.0,0,480,3.0,56.0
2399,72.0,0,360,0.0,56.0
2400,74.0,360,60,0.0,57.0
2401,72.0,60,60,0.0,57.0
2402,66.0,480,480,3.0,56.0
2403,67.0,0,480,3.0,51.0
2404,71.0,60,480,0.0,57.0
2405,63.0,480,240,3.0,57.0
2406,62.0,240,240,3.0,57.0
2407,78.0,0,480,0.0,57.0
2408,63.0,0,360,3.0,57.0
2409,79.0,240,480,0.0,51.0
2410,60.0,0,240,3.0,57.0
2411,75.0,480,240,0.0,57.0
2412,59.0,0,240,3.0,57.0
2413,74.0,240,240,0.0,57.0
2414,60.0,240,360,3.0,57.0
2415,75.0,0,360,0.0,58.0
2416,57.0,480,240,3.0,57.0
2417,72.0,0,240,0.0,58.0
2418,71.0,0,240,0.0,58.0
2419,56.0,240,240,3.0,58.0
2420,57.0,240,360,3.0,58.0
2421,72.0,0,360,0.0,58.0
2422,69.0,480,240,0.0,58.0
2423,68.0,240,240,0.0,58.0
2424,63.0,0,720,3.0,58.0
2425,69.0,240,360,0.0,58.0
2426,67.0,240,240,3.0,58.0
2427,60.0,0,240,3.0,58.0
2428,63.0,240,240,3.0,58.0
2429,75.0,240,720,0.0,59.0
2430,57.0,240,480,3.0,59.0
2431,79.0,240,240,0.0,59.0
2432,72.0,0,240,0.0,59.0
2433,75.0,240,240,0.0,59.0
2434,66.0,240,480,3.0,59.0
2435,69.0,0,480,0.0,59.0
2436,65.0,240,960,3.0,59.0
2437,78.0,480,480,0.0,59.0
2438,77.0,480,152,0.0,45.0
2439,79.0,80,152,0.0,45.0
2440,77.0,80,152,0.0,45.0
2441,79.0,80,152,0.0,45.0
2442,77.0,80,152,0.0,44.0
2443,79.0,80,152,0.0,44.0
2444,77.0,80,152,0.0,44.0
2445,79.0,80,152,0.0,43.0
2446,58.0,0,720,3.0,59.0
2447,62.0,0,720,3.0,59.0
2448,77.0,80,152,0.0,43.0
2449,79.0,0,152,0.0,43.0
2450,77.0,80,152,0.0,42.0
2451,60.0,80,240,3.0,57.0
2452,57.0,0,240,3.0,57.0
2453,79.0,80,152,0.0,42.0
2454,77.0,0,152,0.0,42.0
2455,79.0,80,152,0.0,42.0
2456,62.0,0,240,3.0,56.0
2457,58.0,80,240,3.0,56.0
2458,77.0,80,152,0.0,41.0
2459,79.0,0,152,0.0,41.0
2460,77.0,80,152,0.0,41.0
2461,65.0,80,240,3.0,56.0
2462,62.0,0,240,3.0,56.0
2463,79.0,80,152,0.0,40.0
2464,77.0,80,152,0.0,40.0
2465,79.0,80,152,0.0,40.0
2466,60.0,0,240,3.0,55.0
2467,57.0,0,240,3.0,55.0
2468,77.0,80,152,0.0,39.0
2469,79.0,0,152,0.0,39.0
2470,77.0,80,152,0.0,39.0
2471,58.0,80,240,3.0,55.0
2472,62.0,0,240,3.0,55.0
2473,79.0,80,152,0.0,39.0
2474,77.0,80,152,0.0,38.0
2475,79.0,80,152,0.0,38.0
2476,60.0,0,240,3.0,54.0
2477,77.0,80,152,0.0,38.0
2478,79.0,0,152,0.0,37.0
2479,77.0,80,152,0.0,37.0
2480,55.0,80,240,3.0,54.0
2481,79.0,80,152,0.0,37.0
2482,77.0,80,152,0.0,36.0
2483,79.0,80,152,0.0,36.0
2484,57.0,0,240,3.0,53.0
2485,63.0,0,720,3.0,54.0
2486,77.0,80,152,0.0,36.0
2487,79.0,0,152,0.0,36.0
2488,77.0,80,152,0.0,35.0
2489,58.0,0,240,3.0,53.0
2490,62.0,80,240,3.0,53.0
2491,79.0,80,152,0.0,35.0
2492,77.0,0,152,0.0,35.0
2493,79.0,80,152,0.0,34.0
2494,51.0,80,240,3.0,52.0
2495,77.0,80,152,0.0,34.0
2496,79.0,80,152,0.0,34.0
2497,77.0,80,152,0.0,33.0
2498,53.0,0,240,3.0,52.0
2499,79.0,80,152,0.0,33.0
2500,77.0,80,152,0.0,33.0
2501,79.0,80,152,0.0,33.0
2502,60.0,0,720,3.0,52.0
2503,55.0,0,240,3.0,51.0
2504,77.0,80,152,0.0,32.0
2505,79.0,0,152,0.0,32.0
2506,77.0,80,152,0.0,32.0
2507,50.0,80,240,3.0,51.0
2508,58.0,0,240,3.0,51.0
2509,79.0,80,152,0.0,31.0
2510,77.0,80,152,0.0,31.0
2511,79.0,80,152,0.0,31.0
2512,72.0,0,240,3.0,50.0
2513,77.0,80,152,0.0,31.0
2514,79.0,80,152,0.0,30.0
2515,77.0,80,152,0.0,30.0
2516,67.0,0,240,3.0,50.0
2517,79.0,80,152,0.0,30.0
2518,77.0,80,152,0.0,29.0
2519,79.0,80,152,0.0,29.0
2520,69.0,0,240,3.0,49.0
2521,63.0,0,720,3.0,50.0
2522,77.0,80,152,0.0,29.0
2523,79.0,80,152,0.0,28.0
2524,77.0,80,152,0.0,28.0
2525,70.0,0,240,3.0,49.0
2526,62.0,0,240,3.0,49.0
2527,79.0,80,152,0.0,28.0
2528,77.0,80,152,0.0,28.0
2529,79.0,80,152,0.0,27.0
2530,63.0,0,240,3.0,48.0
2531,77.0,80,152,0.0,27.0
2532,79.0,80,152,0.0,27.0
2533,77.0,80,152,0.0,26.0
2534,65.0,0,240,3.0,48.0
2535,79.0,80,152,0.0,26.0
2536,77.0,0,152,0.0,26.0
2537,79.0,80,152,0.0,25.0
2538,60.0,0,720,3.0,48.0
2539,67.0,80,240,3.0,47.0
2540,77.0,80,152,0.0,25.0
2541,79.0,80,152,0.0,25.0
2542,77.0,80,152,0.0,25.0
2543,62.0,0,240,3.0,47.0
2544,58.0,0,240,3.0,47.0
2545,79.0,80,152,0.0,24.0
2546,48.0,80,240,3.0,46.0
2547,51.0,240,240,3.0,46.0
2548,53.0,240,240,3.0,45.0
2549,51.0,240,240,3.0,45.0
2550,60.0,240,240,0.0,44.0
2551,63.0,240,240,0.0,44.0
2552,45.0,0,720,3.0,44.0
2553,65.0,240,240,0.0,45.0
2554,63.0,0,240,0.0,45.0
2555,54.0,240,240,3.0,44.0
2556,53.0,0,240,3.0,44.0
2557,50.0,240,240,3.0,45.0
2558,51.0,240,240,3.0,45.0
2559,57.0,240,720,0.0,45.0
2560,66.0,240,240,0.0,46.0
2561,63.0,0,240,3.0,45.0
2562,65.0,240,240,0.0,46.0
2563,62.0,240,240,0.0,47.0
2564,63.0,240,240,0.0,47.0
2565,63.0,0,720,3.0,45.0
2566,75.0,240,240,0.0,47.0
2567,57.0,0,240,3.0,46.0
2568,60.0,0,240,3.0,47.0
2569,63.0,240,240,3.0,47.0
2570,65.0,240,240,3.0,47.0
2571,75.0,240,720,0.0,47.0
2572,66.0,240,240,3.0,47.0
2573,69.0,0,240,0.0,48.0
2574,72.0,0,240,0.0,48.0
2575,75.0,240,240,0.0,49.0
2576,77.0,240,240,0.0,49.0
2577,65.0,240,720,3.0,48.0
2578,78.0,240,240,0.0,49.0
2579,63.0,0,0,3.0,49.0
2580,62.0,240,240,3.0,49.0
2581,77.0,240,720,0.0,49.0
2582,65.0,240,240,3.0,49.0
2583,75.0,240,0,0.0,50.0
2584,69.0,0,240,3.0,50.0
2585,70.0,0,240,3.0,50.0
2586,74.0,240,240,0.0,51.0
2587,58.0,240,240,3.0,50.0
2588,77.0,0,240,0.0,51.0
2589,81.0,240,240,0.0,51.0
2590,82.0,0,240,0.0,52.0
2591,51.0,240,240,3.0,51.0
2592,50.0,240,240,3.0,51.0
2593,53.0,0,240,3.0,52.0
2594,70.0,240,240,0.0,52.0
2595,57.0,240,240,3.0,52.0
2596,58.0,0,240,3.0,52.0
2597,63.0,240,240,0.0,53.0
2598,62.0,240,240,0.0,53.0
2599,65.0,0,240,0.0,53.0
2600,46.0,240,240,3.0,53.0
2601,69.0,240,240,0.0,53.0
2602,70.0,240,720,0.0,30.0
2603,72.0,720,120,0.0,31.0
2604,70.0,120,0,0.0,31.0
2605,72.0,720,120,0.0,32.0
2606,70.0,120,120,0.0,32.0
2607,76.0,0,720,0.0,33.0
2608,67.0,120,720,3.0,34.0
2609,70.0,0,720,1.0,33.0
2610,77.0,720,120,0.0,34.0
2611,69.0,0,120,3.0,35.0
2612,72.0,0,120,1.0,34.0
2613,70.0,0,120,1.0,34.0
2614,76.0,120,0,0.0,34.0
2615,67.0,0,120,3.0,35.0
2616,67.0,0,720,3.0,35.0
2617,70.0,0,720,1.0,34.0
2618,69.0,720,120,3.0,36.0
2619,77.0,0,120,0.0,35.0
2620,72.0,0,120,1.0,35.0
2621,70.0,0,120,1.0,35.0
2622,67.0,120,120,3.0,36.0
2623,76.0,0,120,0.0,35.0
2624,82.0,0,720,0.0,35.0
2625,67.0,0,720,3.0,36.0
2626,68.0,0,120,3.0,37.0
2627,84.0,720,120,0.0,37.0
2628,76.0,120,960,1.0,35.0
2629,67.0,120,120,3.0,37.0
2630,79.0,0,0,1.0,37.0
2631,82.0,0,0,0.0,37.0
2632,67.0,0,720,3.0,37.0
2633,68.0,720,120,3.0,38.0
2634,84.0,0,120,0.0,38.0
2635,60.0,0,1920,3.0,36.0
2636,82.0,120,120,0.0,38.0
2637,67.0,0,120,3.0,38.0
2638,76.0,120,960,1.0,37.0
2639,36.0,120,720,3.0,38.0
2640,37.0,720,120,3.0,39.0
2641,79.0,0,960,1.0,38.0
2642,36.0,120,120,3.0,39.0
2643,82.0,0,960,0.0,38.0
2644,76.0,0,960,1.0,38.0
2645,36.0,120,720,3.0,39.0
2646,37.0,720,120,3.0,40.0
2647,77.0,0,960,1.0,40.0
2648,80.0,0,960,0.0,40.0
2649,36.0,120,0,3.0,40.0
2650,37.0,720,120,3.0,41.0
2651,77.0,0,960,1.0,41.0
2652,36.0,120,120,3.0,41.0
2653,89.0,0,960,0.0,41.0
2654,80.0,0,0,1.0,43.0
2655,36.0,120,720,3.0,41.0
2656,37.0,720,120,3.0,42.0
2657,85.0,0,960,0.0,43.0
2658,36.0,0,0,3.0,42.0
2659,77.0,0,0,1.0,44.0
2660,80.0,0,0,1.0,44.0
2661,37.0,720,120,3.0,43.0
2662,83.0,120,960,0.0,44.0
2663,36.0,120,120,3.0,43.0
2664,36.0,0,720,3.0,43.0
2665,37.0,720,120,3.0,46.0
2666,36.0,120,120,3.0,46.0
2667,36.0,120,160,3.0,47.0
2668,48.0,160,160,2.0,47.0
2669,36.0,160,160,3.0,48.0
2670,79.0,0,1440,1.0,46.0
2671,84.0,0,1440,0.0,46.0
2672,76.0,120,1440,1.0,46.0
2673,48.0,0,160,2.0,48.0
2674,36.0,160,160,3.0,49.0
2675,48.0,160,160,2.0,49.0
2676,36.0,160,160,3.0,50.0
2677,48.0,160,160,2.0,50.0
2678,94.0,160,840,0.0,49.0
2679,36.0,160,160,3.0,51.0
2680,91.0,40,120,0.0,52.0
2681,48.0,120,160,2.0,52.0
2682,36.0,160,160,3.0,52.0
2683,93.0,0,360,0.0,53.0
2684,96.0,40,120,0.0,54.0
2685,48.0,160,160,2.0,53.0
2686,36.0,120,160,3.0,53.0
2687,48.0,160,160,2.0,54.0
2688,91.0,0,360,0.0,55.0
2689,88.0,40,120,0.0,56.0
2690,36.0,160,160,3.0,54.0
2691,48.0,120,160,2.0,55.0
2692,36.0,160,160,3.0,55.0
2693,89.0,0,360,0.0,56.0
2694,93.0,40,120,0.0,58.0
2695,48.0,160,160,2.0,56.0
2696,36.0,120,160,3.0,56.0
2697,84.0,0,240,0.0,58.0
2698,48.0,160,160,2.0,57.0
2699,36.0,160,160,3.0,58.0
2700,76.0,0,120,1.0,60.0
2701,79.0,40,120,1.0,60.0
2702,84.0,0,120,0.0,60.0
2703,48.0,0,160,2.0,58.0
2704,74.0,0,240,1.0,60.0
2705,77.0,120,240,1.0,60.0
2706,83.0,0,240,0.0,60.0
2707,36.0,160,160,3.0,59.0
2708,82.0,0,120,0.0,61.0
2709,76.0,0,0,1.0,60.0
2710,79.0,0,0,1.0,60.0
2711,48.0,160,160,2.0,59.0
2712,36.0,0,160,3.0,58.0
2713,48.0,160,160,2.0,59.0
2714,82.0,0,0,0.0,62.0
2715,79.0,0,0,1.0,62.0
2716,36.0,160,160,3.0,60.0
2717,48.0,160,160,2.0,61.0
2718,36.0,160,160,3.0,62.0
2719,77.0,40,120,1.0,64.0
2720,48.0,160,160,2.0,62.0
2721,36.0,120,160,3.0,63.0
2722,48.0,160,160,2.0,64.0
2723,36.0,160,160,3.0,65.0
2724,76.0,0,480,1.0,65.0
2725,79.0,40,120,0.0,67.0
2726,48.0,120,160,2.0,66.0
2727,36.0,160,160,3.0,67.0
2728,77.0,0,360,1.0,68.0
2729,81.0,0,360,0.0,68.0
2730,72.0,40,120,1.0,70.0
2731,84.0,0,120,0.0,70.0
2732,48.0,160,160,2.0,67.0
2733,36.0,0,160,3.0,68.0
2734,48.0,160,160,2.0,69.0
2735,79.0,0,360,0.0,71.0
2736,70.0,120,360,1.0,71.0
2737,76.0,40,120,0.0,73.0
2738,72.0,0,120,1.0,73.0
2739,36.0,160,160,3.0,70.0
2740,48.0,0,160,2.0,71.0
2741,36.0,160,160,3.0,72.0
2742,69.0,0,360,1.0,73.0
2743,77.0,120,360,0.0,73.0
2744,81.0,0,120,0.0,75.0
2745,72.0,40,120,1.0,75.0
2746,48.0,160,160,2.0,73.0
2747,36.0,0,160,3.0,73.0
2748,48.0,160,160,2.0,74.0
2749,72.0,120,360,0.0,76.0
2750,65.0,0,120,1.0,78.0
2751,36.0,160,160,3.0,75.0
2752,62.0,0,120,1.0,78.0
2753,71.0,40,120,0.0,78.0
2754,48.0,120,160,2.0,76.0
2755,67.0,0,240,1.0,79.0
2756,64.0,0,240,1.0,79.0
2757,70.0,0,240,0.0,79.0
2758,29.0,120,0,3.0,88.0
2759,57.0,0,120,1.0,79.0
2760,41.0,0,0,3.0,88.0
2761,60.0,360,120,1.0,79.0
2762,69.0,0,120,0.0,79.0
2763,65.0,0,0,1.0,88.0
2764,53.0,120,240,3.0,77.0
2765,69.0,0,960,0.0,88.0
2766,53.0,360,120,3.0,66.0
2767,41.0,360,720,3.0,81.0
2768,65.0,120,240,3.0,62.0
2769,60.0,0,1268,1.0,88.0
2770,57.0,0,1268,1.0,88.0
2771,69.0,0,360,0.0,54.0
2772,65.0,360,120,0.0,55.0
2773,41.0,120,240,3.0,52.0
2774,69.0,0,240,0.0,56.0
2775,74.0,0,0,0.0,57.0
2776,41.0,0,120,3.0,54.0
2777,40.0,0,720,3.0,59.0
2778,64.0,360,0,3.0,58.0
2779,72.0,480,360,0.0,59.0
2780,71.0,0,120,0.0,61.0
2781,67.0,120,960,1.0,57.0
2782,72.0,0,240,0.0,61.0
2783,69.0,360,120,0.0,63.0
2784,66.0,0,480,1.0,61.0
2785,63.0,120,480,3.0,58.0
2786,72.0,0,240,0.0,63.0
2787,39.0,360,0,3.0,61.0
2788,69.0,0,120,1.0,64.0
2789,72.0,0,120,1.0,64.0
2790,78.0,0,120,0.0,64.0
2791,78.0,0,480,0.0,65.0
2792,38.0,0,720,3.0,67.0
2793,62.0,360,0,3.0,65.0
2794,77.0,0,360,0.0,67.0
2795,76.0,0,120,0.0,68.0
2796,77.0,120,240,0.0,69.0
2797,70.0,120,1312,1.0,65.0
2798,70.0,360,120,1.0,70.0
2799,65.0,0,1440,1.0,65.0
2800,61.0,0,480,3.0,66.0
2801,77.0,120,240,0.0,71.0
2802,37.0,360,0,3.0,69.0
2803,82.0,0,120,0.0,72.0
2804,82.0,0,480,0.0,72.0
2805,76.0,120,480,1.0,72.0
2806,67.0,480,360,2.0,72.0
2807,65.0,360,120,2.0,73.0
2808,82.0,0,840,0.0,74.0
2809,73.0,0,960,1.0,74.0
2810,64.0,120,480,2.0,74.0
2811,79.0,360,120,0.0,78.0
2812,65.0,120,360,2.0,75.0
2813,81.0,0,360,0.0,78.0
2814,69.0,360,120,2.0,77.0
2815,84.0,0,120,0.0,79.0
2816,72.0,0,480,1.0,78.0
2817,70.0,120,360,2.0,77.0
2818,79.0,0,360,0.0,79.0
2819,73.0,0,360,1.0,79.0
2820,76.0,0,120,0.0,77.0
2821,70.0,0,120,1.0,77.0
2822,60.0,0,1920,3.0,72.0
2823,67.0,360,120,2.0,73.0
2824,36.0,0,2407,3.0,75.0
2825,69.0,0,240,2.0,72.0
2826,72.0,0,240,1.0,76.0
2827,77.0,120,240,0.0,76.0
2828,65.0,0,120,2.0,71.0
2829,69.0,360,120,1.0,74.0
2830,81.0,0,120,0.0,74.0
2831,64.0,120,240,2.0,70.0
2832,67.0,0,240,1.0,73.0
2833,72.0,0,240,0.0,73.0
2834,67.0,0,120,1.0,70.0
2835,63.0,360,120,2.0,69.0
2836,72.0,0,120,0.0,70.0
2837,71.0,120,240,0.0,69.0
2838,65.0,0,240,1.0,69.0
2839,62.0,0,240,2.0,69.0
2840,65.0,0,120,1.0,67.0
2841,70.0,360,120,0.0,67.0
2842,61.0,0,120,2.0,67.0
2843,64.0,120,480,1.0,66.0
2844,70.0,0,0,0.0,63.0
2845,55.0,0,360,2.0,65.0
2846,53.0,360,120,2.0,64.0
2847,67.0,360,120,0.0,62.0
2848,61.0,480,960,1.0,63.0
2849,52.0,120,480,2.0,63.0
2850,69.0,120,360,0.0,61.0
2851,48.0,0,1920,3.0,72.0
2852,72.0,360,120,0.0,60.0
2853,53.0,0,480,2.0,62.0
2854,60.0,0,0,1.0,60.0
2855,67.0,0,360,0.0,60.0
2856,46.0,120,480,3.0,60.0
2857,52.0,0,480,2.0,60.0
2858,60.0,120,0,1.0,63.0
2859,66.0,360,120,0.0,62.0
2860,45.0,0,240,3.0,63.0
2861,53.0,0,240,2.0,63.0
2862,65.0,0,240,0.0,63.0
2863,72.0,360,120,0.0,65.0
2864,60.0,0,0,1.0,65.0
2865,54.0,0,120,2.0,65.0
2866,44.0,0,120,3.0,65.0
2867,64.0,120,360,0.0,65.0
2868,55.0,0,480,2.0,66.0
2869,43.0,0,480,3.0,66.0
2870,63.0,360,120,0.0,67.0
2871,60.0,0,0,1.0,68.0
2872,42.0,120,240,3.0,69.0
2873,54.0,0,240,2.0,69.0
2874,62.0,0,240,0.0,68.0
2875,62.0,360,120,1.0,69.0
2876,60.0,0,0,1.0,71.0
2877,54.0,0,120,2.0,71.0
2878,69.0,0,120,0.0,69.0
2879,42.0,0,120,3.0,71.0
2880,64.0,0,360,0.0,71.0
2881,43.0,120,480,3.0,69.0
2882,55.0,0,480,2.0,69.0
2883,63.0,360,120,0.0,68.0
2884,43.0,0,240,2.0,66.0
2885,62.0,0,240,0.0,67.0
2886,31.0,120,240,3.0,66.0
2887,59.0,0,240,1.0,67.0
2888,43.0,0,120,2.0,63.0
2889,67.0,0,120,0.0,64.0
2890,59.0,0,120,1.0,64.0
2891,31.0,360,120,3.0,63.0
2892,48.0,120,240,2.0,62.0
2893,36.0,0,240,3.0,62.0
2894,60.0,0,480,0.0,63.0
2895,33.0,360,120,3.0,59.0
2896,45.0,0,120,2.0,59.0
2897,31.0,120,240,3.0,59.0
2898,43.0,0,240,2.0,59.0
2899,55.0,0,120,3.0,59.0
2900,76.0,120,0,0.0,58.0
2901,67.0,0,0,2.0,58.0
2902,72.0,0,0,1.0,58.0
2903,75.0,0,120,0.0,57.0
2904,66.0,360,120,2.0,57.0
2905,65.0,0,240,2.0,56.0
2906,71.0,0,240,1.0,56.0
2907,55.0,0,720,3.0,58.0
2908,74.0,120,240,0.0,56.0
2909,71.0,360,120,1.0,55.0
2910,55.0,0,120,3.0,55.0
2911,79.0,0,120,0.0,55.0
2912,65.0,0,120,2.0,55.0
2913,72.0,0,240,0.0,55.0
2914,69.0,360,78,0.0,53.0
2915,64.0,0,480,2.0,55.0
2916,60.0,120,480,3.0,55.0
2917,67.0,120,156,0.0,53.0
2918,57.0,0,120,2.0,51.0
2919,53.0,120,0,2.0,51.0
2920,48.0,360,120,3.0,51.0
2921,57.0,0,360,2.0,51.0
2922,56.0,360,120,2.0,50.0
2923,48.0,0,0,3.0,49.0
2924,52.0,120,240,2.0,49.0
2925,55.0,0,240,2.0,49.0
2926,48.0,0,120,3.0,48.0
2927,64.0,0,120,1.0,48.0
2928,76.0,0,120,0.0,48.0
2929,55.0,0,120,2.0,48.0
2930,60.0,360,120,2.0,48.0
2931,77.0,0,156,0.0,47.0
2932,65.0,0,156,1.0,47.0
2933,62.0,360,78,1.0,46.0
2934,74.0,0,78,0.0,46.0
2935,53.0,120,480,3.0,47.0
2936,72.0,0,156,0.0,46.0
2937,60.0,120,156,1.0,46.0
2938,72.0,360,120,2.0,44.0
2939,81.0,0,120,0.0,44.0
2940,77.0,0,0,1.0,44.0
2941,81.0,120,360,0.0,44.0
2942,72.0,0,360,2.0,44.0
2943,71.0,360,120,2.0,42.0
2944,80.0,0,120,0.0,43.0
2945,60.0,0,720,3.0,44.0
2946,70.0,0,240,2.0,42.0
2947,79.0,0,240,0.0,42.0
2948,84.0,0,120,0.0,41.0
2949,48.0,360,120,3.0,41.0
2950,76.0,120,480,1.0,42.0
2951,60.0,0,120,2.0,41.0
2952,53.0,0,240,3.0,40.0
2953,65.0,0,240,2.0,40.0
2954,53.0,360,78,3.0,39.0
2955,69.0,120,480,1.0,40.0
2956,77.0,0,480,0.0,40.0
2957,41.0,120,156,3.0,38.0
2958,45.0,120,0,2.0,79.0
2959,33.0,0,120,3.0,95.0
2960,69.0,0,120,0.0,95.0
2961,81.0,0,120,0.0,95.0
2962,81.0,0,360,0.0,79.0
2963,69.0,0,360,0.0,79.0
2964,81.0,360,120,0.0,55.0
2965,33.0,0,720,3.0,79.0
2966,85.0,120,360,0.0,54.0
2967,90.0,120,0,0.0,53.0
2968,64.0,360,120,3.0,55.0
2969,71.0,120,360,3.0,55.0
2970,88.0,0,480,0.0,51.0
2971,74.0,120,0,3.0,53.0
2972,57.0,360,120,0.0,49.0
2973,61.0,120,360,0.0,48.0
2974,73.0,0,480,3.0,51.0
2975,66.0,360,120,0.0,47.0
2976,52.0,360,120,3.0,49.0
2977,66.0,120,480,0.0,47.0
2978,59.0,0,360,3.0,48.0
2979,62.0,120,0,3.0,46.0
2980,64.0,120,840,0.0,45.0
2981,80.0,360,120,0.0,42.0
2982,81.0,120,240,0.0,42.0
2983,82.0,120,0,0.0,43.0
2984,61.0,0,480,3.0,45.0
2985,70.0,0,120,2.0,46.0
2986,67.0,360,120,3.0,46.0
2987,88.0,0,120,0.0,45.0
2988,82.0,0,120,1.0,45.0
2989,81.0,0,240,1.0,45.0
2990,65.0,120,240,3.0,46.0
2991,89.0,0,240,0.0,45.0
2992,69.0,0,240,2.0,46.0
2993,67.0,0,120,2.0,47.0
2994,79.0,0,0,1.0,46.0
2995,64.0,120,0,3.0,47.0
2996,91.0,0,0,0.0,46.0
2997,67.0,0,480,2.0,47.0
2998,88.0,360,120,0.0,47.0
2999,91.0,120,240,0.0,48.0
3000,45.0,0,480,3.0,49.0
3001,57.0,0,480,2.0,49.0
3002,85.0,360,120,0.0,49.0
3003,88.0,120,240,0.0,49.0
3004,79.0,360,120,0.0,50.0
3005,82.0,120,240,0.0,51.0
3006,81.0,360,120,0.0,52.0
3007,61.0,0,480,3.0,51.0
3008,62.0,120,240,3.0,53.0
3009,57.0,360,120,3.0,54.0
3010,79.0,0,480,0.0,52.0
3011,81.0,120,80,0.0,53.0
3012,82.0,80,80,0.0,54.0
3013,81.0,80,80,0.0,54.0
3014,62.0,0,240,3.0,54.0
3015,79.0,80,120,0.0,54.0
3016,81.0,0,120,0.0,55.0
3017,53.0,120,120,3.0,55.0
3018,57.0,120,240,3.0,55.0
3019,50.0,360,120,3.0,57.0
3020,89.0,0,80,0.0,56.0
3021,91.0,80,80,0.0,57.0
3022,57.0,120,240,3.0,57.0
3023,89.0,80,80,0.0,57.0
3024,88.0,80,120,0.0,57.0
3025,48.0,120,120,3.0,58.0
3026,89.0,120,0,0.0,58.0
3027,47.0,0,480,3.0,58.0
3028,86.0,360,120,0.0,59.0
3029,55.0,0,480,2.0,58.0
3030,89.0,0,240,0.0,59.0
3031,31.0,0,480,3.0,60.0
3032,43.0,120,480,2.0,60.0
3033,83.0,360,120,0.0,60.0
3034,86.0,120,240,0.0,61.0
3035,74.0,360,120,0.0,62.0
3036,80.0,120,240,0.0,62.0
3037,59.0,0,480,3.0,62.0
3038,79.0,360,120,0.0,63.0
3039,60.0,120,240,3.0,64.0
3040,55.0,360,120,3.0,65.0
3041,76.0,0,480,0.0,63.0
3042,81.0,120,80,0.0,65.0
3043,83.0,80,80,0.0,65.0
3044,81.0,80,80,0.0,65.0
3045,60.0,0,240,3.0,65.0
3046,80.0,80,120,0.0,66.0
3047,81.0,120,120,0.0,66.0
3048,53.0,0,120,3.0,66.0
3049,57.0,120,240,3.0,66.0
3050,50.0,360,120,3.0,67.0
3051,93.0,0,80,0.0,68.0
3052,95.0,80,80,0.0,68.0
3053,93.0,80,80,0.0,68.0
3054,53.0,120,240,3.0,68.0
3055,92.0,80,120,0.0,68.0
3056,93.0,120,120,0.0,69.0
3057,41.0,0,120,3.0,69.0
3058,92.0,0,240,0.0,74.0
3059,52.0,120,480,2.0,74.0
3060,76.0,360,120,0.0,57.0
3061,40.0,0,720,3.0,74.0
3062,79.0,120,360,0.0,57.0
3063,77.0,120,0,0.0,56.0
3064,57.0,360,120,3.0,54.0
3065,58.0,0,360,3.0,53.0
3066,62.0,120,360,2.0,53.0
3067,65.0,0,120,2.0,53.0
3068,57.0,360,120,3.0,53.0
3069,75.0,360,120,0.0,54.0
3070,59.0,120,480,2.0,53.0
3071,56.0,0,720,3.0,53.0
3072,77.0,120,360,0.0,53.0
3073,76.0,360,120,0.0,53.0
3074,55.0,360,120,3.0,51.0
3075,61.0,120,360,2.0,50.0
3076,57.0,0,360,3.0,50.0
3077,55.0,360,120,3.0,50.0
3078,64.0,0,120,2.0,50.0
3079,53.0,120,240,3.0,50.0
3080,57.0,0,240,2.0,50.0
3081,76.0,120,1440,0.0,53.0
3082,64.0,360,120,3.0,49.0
3083,67.0,0,120,2.0,49.0
3084,70.0,0,360,2.0,49.0
3085,67.0,0,360,3.0,49.0
3086,74.0,120,480,0.0,50.0
3087,69.0,120,0,2.0,48.0
3088,65.0,0,0,3.0,48.0
3089,74.0,360,120,0.0,49.0
3090,77.0,120,240,0.0,48.0
3091,82.0,120,0,0.0,48.0
3092,62.0,0,120,3.0,46.0
3093,65.0,360,120,2.0,46.0
3094,65.0,120,360,3.0,46.0
3095,69.0,0,360,2.0,46.0
3096,64.0,120,0,3.0,45.0
3097,67.0,0,120,2.0,45.0
3098,73.0,360,120,0.0,45.0
3099,76.0,120,240,0.0,45.0
3100,81.0,120,0,0.0,44.0
3101,67.0,0,960,2.0,45.0
3102,62.0,0,240,3.0,44.0
3103,65.0,0,240,2.0,44.0
3104,38.0,360,120,3.0,44.0
3105,41.0,120,360,3.0,44.0
3106,54.0,360,120,1.0,45.0
3107,39.0,0,120,3.0,45.0
3108,57.0,120,360,1.0,45.0
3109,60.0,360,120,1.0,46.0
3110,66.0,0,120,0.0,46.0
3111,69.0,120,360,0.0,46.0
3112,66.0,0,480,1.0,46.0
3113,72.0,360,120,0.0,47.0
3114,39.0,0,1320,3.0,45.0
3115,36.0,360,120,3.0,48.0
3116,70.0,120,480,0.0,47.0
3117,67.0,0,480,1.0,47.0
3118,39.0,120,360,3.0,48.0
3119,58.0,360,120,1.0,49.0
3120,38.0,120,0,3.0,49.0
3121,62.0,0,360,1.0,49.0
3122,67.0,360,120,1.0,50.0
3123,70.0,0,120,0.0,50.0
3124,74.0,0,360,0.0,50.0
3125,34.0,120,480,3.0,50.0
3126,67.0,0,480,1.0,50.0
3127,79.0,360,0,0.0,52.0
3128,33.0,120,480,3.0,51.0
3129,38.0,120,240,3.0,52.0
3130,72.0,0,840,1.0,51.0
3131,72.0,120,120,1.0,53.0
3132,32.0,240,240,3.0,53.0
3133,71.0,120,240,1.0,53.0
3134,77.0,0,825,0.0,52.0
3135,77.0,120,120,0.0,54.0
3136,31.0,0,480,3.0,53.0
3137,76.0,0,240,0.0,54.0
3138,67.0,0,480,1.0,54.0
3139,70.0,240,480,1.0,54.0
3140,65.0,0,240,1.0,55.0
3141,77.0,240,240,0.0,55.0
3142,68.0,0,240,1.0,55.0
3143,37.0,120,840,3.0,54.0
3144,35.0,600,120,3.0,56.0
3145,37.0,120,360,3.0,56.0
3146,53.0,360,120,1.0,57.0
3147,36.0,0,120,3.0,57.0
3148,56.0,120,360,1.0,57.0
3149,61.0,360,120,1.0,58.0
3150,65.0,120,480,1.0,58.0
3151,68.0,360,120,0.0,59.0
3152,36.0,0,1320,3.0,57.0
3153,66.0,120,480,1.0,59.0
3154,61.0,0,480,1.0,59.0
3155,73.0,0,480,0.0,59.0
3156,33.0,360,120,3.0,60.0
3157,36.0,120,360,3.0,60.0
3158,34.0,120,0,3.0,61.0
3159,54.0,360,120,1.0,61.0
3160,58.0,0,360,1.0,61.0
3161,61.0,360,120,1.0,62.0
3162,66.0,120,360,1.0,62.0
3163,73.0,0,120,0.0,63.0
3164,67.0,0,120,1.0,63.0
3165,64.0,360,120,1.0,63.0
3166,77.0,120,240,0.0,63.0
3167,72.0,0,240,1.0,63.0
3168,65.0,0,240,1.0,63.0
3169,32.0,0,480,3.0,63.0
3170,55.0,0,120,1.0,63.0
3171,64.0,360,120,1.0,63.0
3172,58.0,120,360,1.0,62.0
3173,67.0,0,360,1.0,62.0
3174,37.0,0,480,3.0,62.0
3175,65.0,360,120,0.0,62.0
3176,56.0,0,120,1.0,62.0
3177,62.0,360,120,1.0,61.0
3178,53.0,0,120,1.0,61.0
3179,31.0,120,480,3.0,62.0
3180,70.0,0,480,0.0,61.0
3181,65.0,0,360,1.0,60.0
3182,57.0,120,360,1.0,60.0
3183,64.0,360,120,0.0,60.0
3184,55.0,0,120,1.0,60.0
3185,36.0,0,480,3.0,61.0
3186,60.0,360,120,1.0,59.0
3187,68.0,0,480,0.0,59.0
3188,29.0,120,480,3.0,60.0
3189,51.0,0,120,2.0,59.0
3190,63.0,0,360,1.0,58.0
3191,54.0,120,360,2.0,59.0
3192,70.0,0,120,0.0,58.0
3193,62.0,0,120,1.0,58.0
3194,46.0,0,480,3.0,59.0
3195,53.0,360,120,2.0,58.0
3196,78.0,0,480,0.0,57.0
3197,39.0,120,480,3.0,58.0
3198,60.0,0,120,1.0,57.0
3199,51.0,360,120,2.0,57.0
3200,63.0,0,360,1.0,56.0
3201,54.0,0,360,2.0,57.0
3202,44.0,120,480,3.0,57.0
3203,61.0,0,120,1.0,56.0
3204,53.0,0,120,2.0,56.0
3205,68.0,360,120,0.0,56.0
3206,61.0,360,120,3.0,55.0
3207,65.0,120,360,3.0,55.0
3208,68.0,120,0,3.0,54.0
3209,80.0,0,1320,0.0,55.0
3210,77.0,360,120,0.0,53.0
3211,80.0,120,360,0.0,52.0
3212,70.0,0,480,3.0,53.0
3213,80.0,360,120,0.0,52.0
3214,80.0,120,480,0.0,51.0
3215,63.0,360,120,3.0,52.0
3216,66.0,120,360,3.0,51.0
3217,70.0,120,0,3.0,50.0
3218,82.0,0,840,0.0,50.0
3219,75.0,360,120,0.0,49.0
3220,78.0,0,360,0.0,48.0
3221,72.0,120,480,3.0,49.0
3222,84.0,120,0,0.0,47.0
3223,65.0,360,120,3.0,48.0
3224,68.0,0,360,3.0,48.0
3225,72.0,120,0,3.0,47.0
3226,85.0,120,840,0.0,46.0
3227,77.0,360,120,0.0,45.0
3228,80.0,120,360,0.0,44.0
3229,73.0,0,480,3.0,46.0
3230,86.0,360,120,0.0,44.0
3231,37.0,120,6615,3.0,56.0
3232,89.0,120,1320,0.0,43.0
3233,77.0,360,120,0.0,41.0
3234,82.0,120,360,0.0,40.0
3235,37.0,960,960,3.0,43.0
3236,89.0,0,0,0.0,39.0
3237,49.0,0,960,2.0,43.0
3238,48.0,0,900,2.0,38.0
3239,36.0,120,907,3.0,38.0
3240,88.0,480,840,0.0,38.0
3241,77.0,360,120,0.0,37.0
3242,82.0,120,360,0.0,36.0
3243,89.0,360,120,0.0,36.0
3244,37.0,0,960,3.0,39.0
3245,49.0,480,960,2.0,39.0
3246,89.0,120,480,0.0,35.0
3247,48.0,0,900,2.0,37.0
3248,36.0,0,907,3.0,37.0
3249,88.0,480,840,0.0,34.0
3250,82.0,360,120,0.0,33.0
3251,89.0,120,360,0.0,32.0
3252,37.0,0,960,3.0,36.0
3253,94.0,360,120,0.0,34.0
3254,49.0,480,960,2.0,36.0
3255,36.0,120,160,3.0,30.0
3256,48.0,160,160,2.0,31.0
3257,36.0,160,160,3.0,32.0
3258,94.0,0,480,0.0,34.0
3259,48.0,160,160,2.0,33.0
3260,36.0,160,160,3.0,34.0
3261,48.0,160,160,2.0,35.0
3262,36.0,160,160,3.0,35.0
3263,48.0,160,160,2.0,36.0
3264,94.0,0,840,0.0,37.0
3265,91.0,40,120,0.0,42.0
3266,36.0,160,160,3.0,37.0
3267,48.0,0,160,2.0,38.0
3268,36.0,160,160,3.0,39.0
3269,93.0,120,360,0.0,43.0
3270,48.0,160,160,2.0,40.0
3271,96.0,40,120,0.0,45.0
3272,36.0,0,160,3.0,41.0
3273,48.0,160,160,2.0,41.0
3274,91.0,120,360,0.0,46.0
3275,88.0,40,120,0.0,48.0
3276,36.0,160,160,3.0,42.0
3277,48.0,120,160,2.0,43.0
3278,89.0,0,240,0.0,48.0
3279,36.0,160,160,3.0,44.0
3280,93.0,40,120,0.0,51.0
3281,48.0,160,160,2.0,45.0
3282,36.0,0,160,3.0,46.0
3283,84.0,120,240,0.0,51.0
3284,79.0,0,240,1.0,51.0
3285,76.0,0,240,1.0,51.0
3286,48.0,160,160,2.0,47.0
3287,36.0,160,160,3.0,48.0
3288,79.0,40,120,1.0,53.0
3289,76.0,0,120,1.0,53.0
3290,84.0,0,120,0.0,53.0
3291,48.0,0,160,2.0,48.0
3292,74.0,0,240,1.0,54.0
3293,77.0,0,240,1.0,54.0
3294,83.0,120,240,0.0,54.0
3295,36.0,160,160,3.0,49.0
3296,83.0,0,120,0.0,56.0
3297,48.0,160,160,2.0,50.0
3298,77.0,40,120,1.0,56.0
3299,74.0,0,120,1.0,56.0
3300,48.0,0,160,3.0,51.0
3301,60.0,160,160,2.0,52.0
3302,70.0,160,0,1.0,60.0
3303,76.0,0,0,1.0,60.0
3304,48.0,160,160,3.0,53.0
3305,82.0,120,480,0.0,57.0
3306,79.0,0,0,1.0,60.0
3307,60.0,0,160,2.0,54.0
3308,48.0,160,160,3.0,55.0
3309,60.0,160,160,2.0,55.0
3310,48.0,160,160,3.0,56.0
3311,60.0,160,160,2.0,57.0
3312,82.0,0,840,0.0,60.0
3313,48.0,160,160,3.0,58.0
3314,79.0,40,120,0.0,65.0
3315,60.0,0,160,2.0,59.0
3316,48.0,160,160,3.0,60.0
3317,81.0,120,360,0.0,66.0
3318,84.0,40,120,0.0,68.0
3319,60.0,160,160,2.0,61.0
3320,60.0,0,160,3.0,61.0
3321,70.0,160,160,2.0,62.0
3322,79.0,120,360,0.0,68.0
3323,76.0,40,120,0.0,70.0
3324,67.0,160,160,2.0,63.0
3325,69.0,0,160,2.0,64.0
3326,60.0,160,160,2.0,65.0
3327,77.0,120,360,0.0,71.0
3328,72.0,160,160,2.0,66.0
3329,81.0,40,120,0.0,73.0
3330,64.0,0,160,2.0,67.0
3331,72.0,120,240,0.0,74.0
3332,60.0,160,160,2.0,68.0
3333,72.0,40,120,0.0,76.0
3334,67.0,160,160,2.0,68.0
3335,62.0,0,160,2.0,69.0
3336,71.0,120,240,0.0,77.0
3337,60.0,160,160,2.0,70.0
3338,70.0,0,120,0.0,79.0
3339,65.0,160,160,2.0,71.0
3340,67.0,40,120,1.0,79.0
3341,48.0,0,1920,3.0,61.0
3342,36.0,0,480,3.0,78.0
3343,70.0,120,480,0.0,80.0
3344,48.0,0,480,3.0,78.0
3345,58.0,0,480,1.0,80.0
3346,67.0,0,480,1.0,80.0
3347,64.0,0,480,1.0,80.0
3348,58.0,480,840,3.0,78.0
3349,55.0,840,120,3.0,79.0
3350,57.0,120,360,3.0,79.0
3351,60.0,360,120,3.0,79.0
3352,65.0,0,840,1.0,91.0
3353,57.0,120,360,3.0,80.0
3354,53.0,0,120,3.0,80.0
3355,62.0,360,120,1.0,82.0
3356,64.0,0,360,1.0,82.0
3357,55.0,120,360,3.0,80.0
3358,58.0,360,120,3.0,80.0
3359,67.0,0,120,1.0,82.0
3360,70.0,0,840,0.0,92.0
3361,55.0,120,360,3.0,81.0
3362,60.0,0,480,1.0,82.0
3363,52.0,0,120,3.0,81.0
3364,67.0,360,120,0.0,83.0
3365,53.0,120,360,3.0,81.0
3366,68.0,0,360,1.0,83.0
3367,57.0,360,120,3.0,81.0
3368,72.0,0,120,1.0,83.0
3369,68.0,0,360,1.0,83.0
3370,77.0,0,840,0.0,93.0
3371,50.0,120,360,3.0,82.0
3372,74.0,0,120,1.0,84.0
3373,47.0,0,120,3.0,82.0
3374,67.0,360,120,1.0,84.0
3375,75.0,120,360,1.0,84.0
3376,48.0,0,360,3.0,82.0
3377,78.0,360,120,1.0,84.0
3378,49.0,0,120,3.0,82.0
3379,87.0,0,840,0.0,89.0
3380,48.0,0,360,3.0,83.0
3381,45.0,360,120,3.0,83.0
3382,78.0,120,480,1.0,84.0
3383,84.0,0,120,0.0,85.0
3384,86.0,0,360,0.0,85.0
3385,46.0,120,360,3.0,83.0
3386,89.0,360,120,0.0,85.0
3387,50.0,0,120,3.0,83.0
3388,46.0,0,360,3.0,84.0
3389,86.0,120,360,0.0,85.0
3390,83.0,0,120,0.0,86.0
3391,43.0,360,120,3.0,84.0
3392,45.0,0,360,3.0,84.0
3393,84.0,120,360,0.0,86.0
3394,77.0,0,0,1.0,86.0
3395,77.0,0,0,1.0,86.0
3396,74.0,0,120,1.0,86.0
3397,86.0,0,120,0.0,86.0
3398,46.0,360,120,3.0,84.0
3399,48.0,120,360,3.0,85.0
3400,72.0,0,0,1.0,87.0
3401,81.0,0,360,0.0,86.0
3402,76.0,0,120,1.0,87.0
3403,79.0,0,120,0.0,87.0
3404,60.0,360,120,3.0,85.0
3405,60.0,0,240,3.0,85.0
3406,81.0,0,240,0.0,87.0
3407,72.0,120,240,1.0,87.0
3408,77.0,0,240,1.0,87.0
3409,82.0,0,78,0.0,87.0
3410,79.0,0,78,1.0,87.0
3411,48.0,360,120,3.0,85.0
3412,81.0,120,360,0.0,87.0
3413,77.0,0,360,1.0,87.0
3414,67.0,360,120,1.0,47.0
3415,70.0,0,120,0.0,47.0
3416,41.0,0,720,3.0,46.0
3417,72.0,0,360,0.0,48.0
3418,69.0,120,360,1.0,48.0
3419,74.0,360,120,0.0,50.0
3420,70.0,0,120,1.0,50.0
3421,72.0,0,360,0.0,51.0
3422,69.0,120,360,1.0,51.0
3423,89.0,0,840,3.0,49.0
3424,74.0,360,120,0.0,54.0
3425,70.0,0,120,1.0,54.0
3426,88.0,0,120,3.0,54.0
3427,76.0,0,360,0.0,54.0
3428,72.0,120,360,1.0,54.0
3429,86.0,0,360,3.0,55.0
3430,77.0,0,120,0.0,57.0
3431,74.0,360,120,1.0,57.0
3432,84.0,0,120,3.0,57.0
3433,76.0,0,360,1.0,58.0
3434,79.0,120,360,0.0,58.0
3435,81.0,360,120,0.0,60.0
3436,84.0,0,480,3.0,58.0
3437,77.0,0,120,1.0,60.0
3438,41.0,0,360,2.0,61.0
3439,29.0,0,360,3.0,61.0
3440,31.0,360,120,3.0,63.0
3441,43.0,0,120,2.0,63.0
3442,33.0,120,360,3.0,64.0
3443,45.0,0,360,2.0,64.0
3444,46.0,0,120,2.0,66.0
3445,79.0,0,960,1.0,61.0
3446,34.0,360,120,3.0,66.0
3447,82.0,120,960,0.0,61.0
3448,48.0,120,360,2.0,67.0
3449,36.0,0,360,3.0,67.0
3450,50.0,0,120,2.0,70.0
3451,77.0,0,480,1.0,67.0
3452,81.0,0,480,0.0,67.0
3453,38.0,360,120,3.0,70.0
3454,40.0,120,360,3.0,70.0
3455,52.0,0,360,2.0,70.0
3456,53.0,0,120,2.0,73.0
3457,79.0,0,480,0.0,70.0
3458,41.0,360,120,3.0,73.0
3459,55.0,120,360,2.0,73.0
3460,43.0,0,360,3.0,73.0
3461,57.0,360,120,2.0,76.0
3462,45.0,0,120,3.0,76.0
3463,58.0,120,360,2.0,76.0
3464,46.0,0,360,3.0,76.0
3465,77.0,0,960,0.0,73.0
3466,47.0,360,120,3.0,79.0
3467,59.0,0,120,2.0,79.0
3468,60.0,120,360,2.0,79.0
3469,48.0,0,360,3.0,79.0
3470,48.0,360,120,2.0,82.0
3471,36.0,0,120,3.0,82.0
3472,76.0,0,480,0.0,80.0
3473,69.0,0,160,0.0,83.0
3474,65.0,160,160,0.0,58.0
3475,41.0,0,480,2.0,83.0
3476,70.0,160,160,0.0,59.0
3477,72.0,0,160,0.0,60.0
3478,29.0,120,720,3.0,83.0
3479,69.0,160,160,0.0,61.0
3480,74.0,160,160,0.0,62.0
3481,72.0,160,160,0.0,64.0
3482,69.0,160,160,0.0,65.0
3483,89.0,160,840,3.0,59.0
3484,88.0,40,120,3.0,65.0
3485,74.0,160,160,0.0,66.0
3486,76.0,0,160,0.0,67.0
3487,72.0,160,160,0.0,68.0
3488,86.0,120,360,3.0,66.0
3489,84.0,120,0,3.0,69.0
3490,77.0,160,160,0.0,69.0
3491,79.0,0,160,0.0,70.0
3492,76.0,160,160,0.0,71.0
3493,81.0,0,160,0.0,72.0
3494,77.0,160,160,1.0,72.0
3495,29.0,0,232,3.0,73.0
3496,41.0,120,120,2.0,74.0
3497,31.0,120,232,3.0,74.0
3498,43.0,120,120,2.0,75.0
3499,33.0,120,232,3.0,76.0
3500,45.0,120,120,2.0,77.0
3501,34.0,120,232,3.0,78.0
3502,82.0,160,960,0.0,73.0
3503,79.0,0,960,1.0,73.0
3504,46.0,120,120,2.0,79.0
3505,36.0,0,232,3.0,80.0
3506,48.0,120,120,2.0,81.0
3507,38.0,120,232,3.0,81.0
3508,81.0,0,480,0.0,80.0
3509,77.0,120,480,1.0,80.0
3510,50.0,120,120,2.0,82.0
3511,40.0,0,232,3.0,83.0
3512,52.0,120,120,2.0,84.0
3513,41.0,120,232,3.0,85.0
3514,70.0,0,480,1.0,83.0
3515,79.0,120,480,0.0,83.0
3516,53.0,120,120,2.0,86.0
3517,43.0,120,232,3.0,87.0
3518,55.0,120,120,2.0,88.0
3519,45.0,120,232,3.0,88.0
3520,57.0,120,120,2.0,89.0
3521,46.0,120,232,3.0,90.0
3522,58.0,120,120,2.0,91.0
3523,47.0,120,232,3.0,92.0
3524,59.0,120,120,2.0,93.0
3525,77.0,0,960,0.0,86.0
3526,69.0,0,960,1.0,86.0
3527,48.0,120,232,3.0,94.0
3528,60.0,120,120,2.0,95.0
3529,46.0,120,232,3.0,95.0
3530,76.0,0,480,0.0,92.0
3531,58.0,120,120,2.0,96.0
3532,67.0,0,480,1.0,92.0
3533,57.0,0,960,2.0,97.0
3534,45.0,120,960,3.0,97.0
3535,96.0,0,960,0.0,96.0
3536,84.0,0,960,1.0,96.0
3537,72.0,0,960,0.0,95.0
3538,65.0,0,0,1.0,60.0
3539,57.0,960,960,3.0,95.0
3540,60.0,0,960,2.0,95.0
3541,63.0,0,960,2.0,95.0
3542,75.0,0,960,0.0,95.0
3543,74.0,960,240,0.0,60.0
3544,58.0,0,240,3.0,60.0
3545,70.0,0,240,1.0,60.0
3546,62.0,0,240,2.0,60.0
3547,70.0,0,120,1.0,59.0
3548,65.0,360,120,1.0,59.0
3549,74.0,0,120,0.0,59.0
3550,58.0,0,120,3.0,59.0
3551,72.0,0,240,0.0,58.0
3552,60.0,0,240,3.0,58.0
3553,69.0,0,240,1.0,58.0
3554,65.0,120,240,1.0,58.0
3555,60.0,0,120,3.0,57.0
3556,69.0,0,120,1.0,57.0
3557,72.0,360,120,0.0,57.0
3558,65.0,0,0,1.0,57.0
3559,68.0,120,240,1.0,57.0
3560,62.0,0,240,3.0,57.0
3561,71.0,0,240,0.0,57.0
3562,70.0,360,120,0.0,56.0
3563,64.0,0,120,3.0,56.0
3564,67.0,0,120,1.0,56.0
3565,69.0,120,240,0.0,56.0
3566,65.0,0,240,3.0,56.0
3567,60.0,0,120,3.0,55.0
3568,81.0,0,120,0.0,55.0
3569,72.0,360,120,2.0,55.0
3570,77.0,120,0,1.0,55.0
3571,77.0,360,0,1.0,54.0
3572,81.0,0,360,0.0,55.0
3573,72.0,0,360,2.0,55.0
3574,80.0,0,120,0.0,54.0
3575,60.0,0,480,3.0,55.0
3576,71.0,0,120,2.0,54.0
3577,77.0,0,240,1.0,53.0
3578,60.0,0,240,3.0,53.0
3579,70.0,0,240,2.0,53.0
3580,79.0,120,240,0.0,53.0
3581,84.0,0,120,0.0,52.0
3582,60.0,0,120,3.0,52.0
3583,70.0,0,120,2.0,52.0
3584,76.0,360,120,1.0,52.0
3585,69.0,0,156,2.0,52.0
3586,65.0,0,156,3.0,52.0
3587,62.0,360,78,3.0,51.0
3588,77.0,120,480,0.0,52.0
3589,60.0,120,156,3.0,51.0
3590,48.0,120,0,3.0,50.0
3591,60.0,0,0,2.0,50.0
3592,69.0,360,120,0.0,50.0
3593,65.0,0,0,1.0,50.0
3594,69.0,0,360,0.0,50.0
3595,59.0,360,120,2.0,49.0
3596,65.0,0,120,1.0,49.0
3597,68.0,0,120,0.0,49.0
3598,48.0,0,0,3.0,48.0
3599,67.0,120,240,0.0,48.0
3600,58.0,0,240,2.0,48.0
3601,64.0,0,240,1.0,48.0
3602,72.0,0,120,1.0,48.0
3603,76.0,0,120,0.0,48.0
3604,48.0,360,120,3.0,47.0
3605,58.0,0,120,2.0,47.0
3606,72.0,120,156,1.0,47.0
3607,77.0,0,156,0.0,47.0
3608,74.0,360,78,0.0,46.0
3609,53.0,0,480,3.0,47.0
3610,57.0,0,480,2.0,47.0
3611,72.0,120,156,0.0,46.0
3612,81.0,120,0,0.0,79.0
3613,60.0,0,0,2.0,81.0
3614,77.0,0,0,1.0,79.0
3615,69.0,0,0,1.0,79.0
3616,48.0,0,120,3.0,81.0
3617,48.0,0,360,3.0,81.0
3618,80.0,0,120,0.0,77.0
3619,48.0,0,0,2.0,78.0
3620,36.0,0,120,3.0,78.0
3621,77.0,0,120,1.0,77.0
3622,68.0,0,120,1.0,77.0
3623,79.0,120,156,0.0,76.0
3624,67.0,0,156,1.0,76.0
3625,76.0,0,156,1.0,76.0
3626,36.0,0,156,3.0,78.0
3627,48.0,0,78,2.0,76.0
3628,36.0,0,78,3.0,76.0
3629,79.0,0,78,1.0,74.0
3630,76.0,0,78,1.0,74.0
3631,88.0,360,78,0.0,74.0
3632,41.0,120,240,2.0,75.0
3633,81.0,0,240,1.0,73.0
3634,89.0,0,240,0.0,73.0
3635,29.0,0,240,3.0,75.0
3636,77.0,0,240,1.0,73.0
3637,59.0,0,480,1.0,46.0
3638,32.0,0,480,3.0,44.0
3639,44.0,0,480,2.0,44.0
3640,64.0,2880,960,0.0,46.0
3641,47.0,0,480,2.0,44.0
3642,62.0,0,480,1.0,45.0
3643,35.0,480,480,3.0,44.0
3644,64.0,0,240,0.0,49.0
3645,65.0,240,80,0.0,50.0
3646,64.0,80,80,0.0,51.0
3647,63.0,80,80,0.0,51.0
3648,64.0,80,240,0.0,51.0
3649,45.0,480,960,2.0,44.0
3650,33.0,0,960,3.0,43.0
3651,60.0,0,960,1.0,47.0
3652,72.0,240,240,0.0,52.0
3653,35.0,0,480,3.0,47.0
3654,47.0,0,480,2.0,47.0
3655,68.0,0,720,0.0,53.0
3656,71.0,240,120,0.0,49.0
3657,38.0,0,480,3.0,43.0
3658,64.0,240,960,1.0,53.0
3659,50.0,480,480,2.0,43.0
3660,69.0,120,0,0.0,46.0
3661,48.0,0,480,2.0,38.0
3662,36.0,0,480,3.0,38.0
3663,64.0,0,480,1.0,46.0
3664,64.0,0,480,1.0,44.0
3665,72.0,0,480,1.0,44.0
3666,33.0,0,480,3.0,40.0
3667,45.0,480,480,2.0,40.0
3668,76.0,0,0,0.0,50.0
3669,64.0,0,480,1.0,50.0
3670,53.0,0,720,2.0,43.0
3671,62.0,480,240,1.0,48.0
3672,74.0,0,240,0.0,48.0
3673,41.0,480,720,3.0,43.0
3674,69.0,0,720,1.0,50.0
3675,76.0,0,240,0.0,51.0
3676,52.0,0,240,2.0,47.0
3677,73.0,0,240,1.0,51.0
3678,64.0,240,240,1.0,51.0
3679,40.0,0,240,3.0,47.0
3680,67.0,0,240,1.0,51.0
3681,65.0,0,480,1.0,53.0
3682,74.0,0,480,1.0,53.0
3683,69.0,0,480,1.0,53.0
3684,77.0,240,480,0.0,53.0
3685,50.0,0,720,2.0,49.0
3686,65.0,480,240,1.0,51.0
3687,58.0,0,240,1.0,51.0
3688,38.0,0,720,3.0,49.0
3689,70.0,0,240,0.0,51.0
3690,69.0,0,240,0.0,50.0
3691,64.0,0,0,1.0,49.0
3692,60.0,0,240,1.0,50.0
3693,36.0,0,240,3.0,46.0
3694,48.0,0,240,2.0,46.0
3695,35.0,0,480,3.0,45.0
3696,62.0,0,480,1.0,49.0
3697,68.0,240,480,0.0,49.0
3698,47.0,0,480,2.0,45.0
3699,69.0,0,240,0.0,44.0
3700,60.0,0,480,1.0,44.0
3701,33.0,0,480,3.0,42.0
3702,45.0,480,480,2.0,42.0
3703,64.0,0,480,1.0,44.0
3704,72.0,240,240,0.0,47.0
3705,76.0,0,240,0.0,49.0
3706,64.0,0,240,1.0,49.0
3707,72.0,0,240,1.0,49.0
3708,72.0,240,240,0.0,44.0
3709,69.0,0,240,1.0,44.0
3710,28.0,0,665,3.0,40.0
3711,68.0,240,192,1.0,39.0
3712,71.0,0,192,0.0,39.0
3713,40.0,240,960,2.0,40.0
3714,67.0,240,240,0.0,42.0
3715,71.0,0,480,0.0,42.0
3716,40.0,240,480,3.0,40.0
3717,52.0,0,480,2.0,40.0
3718,67.0,0,480,1.0,42.0
3719,64.0,0,480,1.0,42.0
3720,50.0,0,480,2.0,41.0
3721,79.0,480,0,0.0,45.0
3722,71.0,0,480,1.0,44.0
3723,65.0,0,480,1.0,44.0
3724,38.0,480,480,3.0,41.0
3725,48.0,0,480,2.0,42.0
3726,36.0,0,480,3.0,42.0
3727,76.0,0,480,1.0,45.0
3728,72.0,0,0,1.0,47.0
3729,67.0,0,480,1.0,45.0
3730,84.0,0,480,0.0,47.0
3731,46.0,0,480,2.0,43.0
3732,79.0,0,480,1.0,47.0
3733,76.0,0,480,1.0,47.0
3734,34.0,480,480,3.0,43.0
3735,84.0,0,480,0.0,48.0
3736,45.0,0,480,2.0,45.0
3737,77.0,0,0,1.0,50.0
3738,72.0,0,480,1.0,48.0
3739,33.0,480,480,3.0,45.0
3740,32.0,0,480,3.0,46.0
3741,44.0,0,480,2.0,46.0
3742,84.0,480,480,1.0,50.0
3743,77.0,0,0,1.0,48.0
3744,89.0,0,480,0.0,50.0
3745,89.0,0,660,0.0,48.0
3746,83.0,0,667,1.0,48.0
3747,86.0,480,667,1.0,48.0
3748,53.0,720,240,1.0,44.0
3749,31.0,0,0,3.0,40.0
3750,59.0,0,0,0.0,44.0
3751,50.0,0,0,1.0,44.0
3752,43.0,240,0,2.0,40.0
3753,53.0,0,480,1.0,44.0
3754,52.0,480,480,1.0,45.0
3755,61.0,0,480,0.0,45.0
3756,55.0,0,480,1.0,45.0
3757,57.0,0,480,1.0,46.0
3758,53.0,480,480,1.0,46.0
3759,62.0,0,480,0.0,46.0
3760,60.0,0,240,0.0,47.0
3761,52.0,480,240,2.0,45.0
3762,52.0,0,240,1.0,47.0
3763,55.0,0,0,1.0,47.0
3764,40.0,0,240,3.0,42.0
3765,50.0,0,240,2.0,46.0
3766,38.0,0,240,3.0,44.0
3767,59.0,0,240,0.0,47.0
3768,50.0,240,240,1.0,47.0
3769,55.0,0,0,1.0,48.0
3770,67.0,240,480,0.0,48.0
3771,52.0,0,480,2.0,46.0
3772,40.0,0,480,3.0,45.0
3773,60.0,0,480,1.0,48.0
3774,38.0,0,240,3.0,48.0
3775,69.0,0,360,0.0,49.0
3776,57.0,0,360,1.0,49.0
3777,50.0,120,0,2.0,46.0
3778,43.0,240,240,3.0,49.0
3779,65.0,0,480,1.0,49.0
3780,59.0,0,0,1.0,48.0
3781,71.0,0,0,0.0,48.0
3782,65.0,0,480,1.0,48.0
3783,43.0,0,480,3.0,46.0
3784,36.0,0,240,3.0,36.0
3785,48.0,0,240,2.0,36.0
3786,72.0,480,240,0.0,37.0
3787,60.0,0,240,1.0,34.0
3788,64.0,0,240,1.0,34.0
3789,43.0,480,960,2.0,38.0
3790,43.0,960,240,2.0,42.0
3791,45.0,240,80,2.0,43.0
3792,43.0,80,80,2.0,43.0
3793,42.0,80,80,2.0,43.0
3794,43.0,80,240,2.0,43.0
3795,52.0,240,240,2.0,44.0
3796,47.0,240,480,3.0,47.0
3797,62.0,0,480,1.0,48.0
3798,50.0,480,480,3.0,45.0
3799,55.0,0,960,2.0,47.0
3800,65.0,0,480,1.0,50.0
3801,67.0,0,960,0.0,48.0
3802,67.0,0,240,0.0,51.0
3803,69.0,240,80,0.0,52.0
3804,67.0,80,80,0.0,53.0
3805,64.0,0,480,1.0,51.0
3806,66.0,80,80,0.0,53.0
3807,67.0,80,240,0.0,53.0
3808,48.0,480,960,3.0,44.0
3809,83.0,240,240,1.0,54.0
3810,55.0,0,960,2.0,44.0
3811,79.0,0,240,1.0,54.0
3812,88.0,0,240,0.0,54.0
3813,83.0,240,480,0.0,52.0
3814,71.0,0,480,1.0,52.0
3815,74.0,0,0,1.0,50.0
3816,77.0,0,480,1.0,50.0
3817,55.0,480,0,2.0,51.0
3818,86.0,480,480,0.0,50.0
3819,57.0,240,80,2.0,51.0
3820,55.0,80,80,2.0,51.0
3821,54.0,80,80,2.0,52.0
3822,72.0,0,480,1.0,48.0
3823,76.0,0,480,1.0,48.0
3824,84.0,0,480,0.0,48.0
3825,55.0,80,240,2.0,52.0
3826,64.0,240,240,2.0,52.0
3827,79.0,60,240,0.0,52.0
3828,81.0,240,80,0.0,53.0
3829,79.0,80,80,0.0,53.0
3830,78.0,80,80,0.0,53.0
3831,79.0,80,240,0.0,53.0
3832,88.0,240,0,0.0,55.0
3833,64.0,0,960,2.0,58.0
3834,55.0,0,240,2.0,52.0
3835,57.0,240,80,2.0,52.0
3836,55.0,80,80,2.0,52.0
3837,54.0,80,80,2.0,52.0
3838,55.0,80,240,2.0,52.0
3839,48.0,180,1890,3.0,65.0
3840,64.0,240,240,2.0,52.0
3841,79.0,60,240,0.0,54.0
3842,81.0,240,80,0.0,54.0
3843,79.0,80,80,0.0,54.0
3844,78.0,80,80,0.0,54.0
3845,79.0,80,240,0.0,54.0
3846,64.0,0,960,2.0,51.0
3847,88.0,240,240,0.0,53.0
3848,55.0,240,240,2.0,50.0
3849,57.0,240,80,2.0,50.0
3850,55.0,80,80,2.0,50.0
3851,54.0,80,80,2.0,50.0
3852,88.0,0,720,0.0,53.0
3853,55.0,80,240,2.0,50.0
3854,47.0,180,1920,3.0,62.0
3855,79.0,60,0,0.0,52.0
3856,64.0,0,240,2.0,50.0
3857,64.0,0,240,2.0,49.0
3858,61.0,240,240,2.0,49.0
3859,81.0,120,60,0.0,52.0
3860,79.0,40,60,0.0,52.0
3861,58.0,240,240,2.0,49.0
3862,78.0,40,60,0.0,52.0
3863,79.0,0,120,0.0,52.0
3864,46.0,180,960,3.0,60.0
3865,55.0,40,240,2.0,49.0
3866,88.0,120,120,0.0,52.0
3867,88.0,0,240,0.0,52.0
3868,54.0,120,240,2.0,49.0
3869,78.0,0,240,1.0,52.0
3870,57.0,0,240,2.0,48.0
3871,84.0,0,240,1.0,52.0
3872,87.0,240,240,0.0,52.0
3873,60.0,0,240,2.0,48.0
3874,66.0,240,240,1.0,51.0
3875,75.0,0,240,0.0,51.0
3876,69.0,0,240,1.0,51.0
3877,65.0,120,40,0.0,51.0
3878,71.0,40,40,0.0,51.0
3879,63.0,240,240,2.0,48.0
3880,45.0,0,960,3.0,58.0
3881,74.0,20,40,0.0,51.0
3882,62.0,40,240,2.0,48.0
3883,59.0,240,240,2.0,47.0
3884,77.0,0,600,0.0,51.0
3885,79.0,120,40,0.0,51.0
3886,77.0,40,40,0.0,50.0
3887,56.0,240,240,2.0,47.0
3888,76.0,40,40,0.0,50.0
3889,77.0,40,120,0.0,50.0
3890,44.0,20,960,3.0,57.0
3891,86.0,120,0,0.0,50.0
3892,53.0,0,240,2.0,47.0
3893,52.0,0,240,2.0,47.0
3894,85.0,0,240,0.0,50.0
3895,55.0,0,240,2.0,46.0
3896,79.0,0,240,1.0,50.0
3897,82.0,240,240,1.0,50.0
3898,76.0,0,240,1.0,50.0
3899,67.0,240,240,1.0,50.0
3900,73.0,0,240,0.0,50.0
3901,58.0,0,240,2.0,46.0
3902,64.0,0,240,1.0,50.0
3903,61.0,240,240,2.0,46.0
3904,43.0,0,960,3.0,56.0
3905,60.0,0,240,2.0,46.0
3906,63.0,180,480,0.0,50.0
3907,57.0,240,240,2.0,45.0
3908,75.0,60,600,0.0,50.0
3909,83.0,120,40,0.0,49.0
3910,81.0,40,40,0.0,49.0
3911,54.0,240,240,2.0,45.0
3912,80.0,40,40,0.0,49.0
3913,81.0,0,135,0.0,49.0
3914,72.0,80,107,0.0,49.0
3915,41.0,0,945,3.0,54.0
3916,84.0,80,65,0.0,49.0
3917,51.0,40,240,2.0,45.0
3918,50.0,0,240,2.0,45.0
3919,84.0,80,240,0.0,49.0
3920,77.0,0,240,1.0,49.0
3921,74.0,0,240,1.0,49.0
3922,83.0,240,240,0.0,49.0
3923,53.0,0,240,2.0,44.0
3924,62.0,240,240,1.0,48.0
3925,71.0,0,240,0.0,48.0
3926,56.0,0,240,2.0,44.0
3927,65.0,0,240,1.0,48.0
3928,59.0,240,240,2.0,44.0
3929,41.0,0,960,3.0,53.0
3930,50.0,0,240,2.0,44.0
3931,52.0,240,240,2.0,43.0
3932,80.0,240,480,1.0,48.0
3933,71.0,0,0,1.0,48.0
3934,83.0,240,0,0.0,48.0
3935,56.0,0,240,2.0,43.0
3936,59.0,240,240,2.0,43.0
3937,40.0,240,0,3.0,50.0
3938,48.0,0,240,2.0,43.0
3939,74.0,0,720,1.0,48.0
3940,81.0,0,192,0.0,47.0
3941,69.0,0,192,1.0,47.0
3942,72.0,0,192,1.0,47.0
3943,52.0,240,240,2.0,42.0
3944,72.0,0,192,1.0,47.0
3945,64.0,240,192,1.0,47.0
3946,76.0,0,192,0.0,47.0
3947,56.0,0,240,2.0,42.0
3948,76.0,240,192,0.0,47.0
3949,64.0,0,192,1.0,47.0
3950,72.0,0,192,1.0,47.0
3951,40.0,240,0,3.0,49.0
3952,57.0,0,240,2.0,42.0
3953,47.0,0,240,2.0,42.0
3954,76.0,0,480,0.0,47.0
3955,50.0,240,240,2.0,41.0
3956,72.0,0,480,1.0,47.0
3957,64.0,0,480,1.0,47.0
3958,52.0,0,240,2.0,41.0
3959,56.0,240,240,2.0,41.0
3960,45.0,0,240,2.0,41.0
3961,62.0,0,720,1.0,46.0
3962,71.0,0,720,1.0,46.0
3963,74.0,240,720,0.0,46.0
3964,48.0,0,240,2.0,40.0
3965,72.0,240,0,0.0,45.0
3966,51.0,240,240,2.0,40.0
3967,69.0,240,480,1.0,46.0
3968,60.0,0,0,1.0,45.0
3969,69.0,0,240,1.0,45.0
3970,40.0,0,0,3.0,47.0
3971,52.0,0,240,2.0,40.0
3972,42.0,0,240,2.0,43.0
3973,45.0,240,240,2.0,45.0
3974,66.0,0,480,1.0,44.0
3975,72.0,0,480,0.0,44.0
3976,60.0,0,480,1.0,44.0
3977,63.0,0,480,1.0,44.0
3978,69.0,240,480,1.0,44.0
3979,48.0,240,240,2.0,47.0
3980,51.0,240,240,2.0,49.0
3981,54.0,240,240,2.0,51.0
3982,66.0,0,240,1.0,52.0
3983,63.0,0,240,1.0,52.0
3984,69.0,0,240,1.0,52.0
3985,60.0,0,240,1.0,52.0
3986,72.0,0,240,0.0,52.0
3987,57.0,240,240,2.0,52.0
3988,66.0,0,240,1.0,57.0
3989,63.0,0,240,1.0,57.0
3990,60.0,240,240,2.0,56.0
3991,69.0,0,240,0.0,57.0
3992,40.0,0,0,3.0,56.0
3993,68.0,240,0,0.0,56.0
3994,64.0,240,240,1.0,61.0
3995,44.0,0,240,2.0,60.0
3996,47.0,0,240,2.0,60.0
3997,52.0,0,240,2.0,60.0
3998,59.0,0,240,2.0,60.0
3999,40.0,0,0,3.0,52.0
4000,56.0,0,1440,1.0,55.0
4001,59.0,0,1440,1.0,55.0
4002,64.0,0,1440,1.0,55.0
4003,44.0,0,1920,2.0,55.0
4004,47.0,0,1920,2.0,55.0
4005,52.0,0,1920,2.0,55.0
4006,64.0,1760,160,0.0,38.0
4007,63.0,160,160,0.0,39.0
4008,64.0,160,160,0.0,39.0
4009,68.0,160,160,0.0,40.0
4010,71.0,160,160,0.0,40.0
4011,68.0,160,160,0.0,41.0
4012,67.0,160,160,0.0,41.0
4013,68.0,160,160,0.0,42.0
4014,71.0,160,160,0.0,42.0
4015,76.0,160,160,0.0,43.0
4016,71.0,160,160,0.0,43.0
4017,70.0,160,160,0.0,44.0
4018,71.0,160,160,0.0,44.0
4019,76.0,160,160,0.0,45.0
4020,80.0,160,160,0.0,45.0
4021,76.0,160,160,0.0,46.0
4022,75.0,160,160,0.0,46.0
4023,76.0,160,160,0.0,47.0
4024,80.0,160,160,0.0,48.0
4025,83.0,160,240,0.0,48.0
4026,79.0,240,240,0.0,49.0
4027,80.0,240,240,0.0,50.0
4028,83.0,240,240,0.0,50.0
4029,75.0,240,240,0.0,51.0
4030,76.0,240,240,0.0,52.0
4031,80.0,240,240,0.0,53.0
4032,70.0,240,240,0.0,55.0
4033,71.0,240,240,0.0,54.0
4034,76.0,240,240,0.0,53.0
4035,67.0,240,240,0.0,52.0
4036,68.0,240,240,0.0,51.0
4037,71.0,240,240,0.0,50.0
4038,63.0,240,240,0.0,49.0
4039,64.0,240,240,0.0,48.0
4040,68.0,240,240,0.0,47.0
4041,64.0,240,240,0.0,46.0
4042,59.0,240,240,0.0,45.0
4043,56.0,240,240,0.0,44.0
4044,52.0,240,240,0.0,43.0
4045,47.0,240,240,0.0,42.0
4046,44.0,160,240,0.0,42.0
4047,40.0,160,240,0.0,41.0
4048,44.0,160,240,0.0,41.0
4049,47.0,160,180,0.0,40.0
4050,52.0,160,240,0.0,40.0
4051,56.0,160,240,0.0,39.0
4052,59.0,160,240,0.0,39.0
4053,64.0,160,240,0.0,38.0
4054,64.0,0,240,1.0,46.0
4055,52.0,160,480,2.0,46.0
4056,59.0,240,240,1.0,48.0
4057,68.0,0,480,0.0,46.0
4058,51.0,240,240,2.0,49.0
4059,66.0,0,240,1.0,49.0
4060,69.0,0,240,0.0,49.0
4061,68.0,240,240,1.0,51.0
4062,71.0,0,480,0.0,51.0
4063,50.0,0,480,2.0,50.0
4064,64.0,240,240,1.0,53.0
4065,73.0,0,240,0.0,54.0
4066,49.0,240,240,2.0,52.0
4067,69.0,0,480,1.0,54.0
4068,76.0,240,480,0.0,57.0
4069,66.0,240,240,1.0,54.0
4070,47.0,0,720,2.0,55.0
4071,74.0,240,240,0.0,51.0
4072,71.0,0,240,1.0,51.0
4073,68.0,0,240,1.0,48.0
4074,52.0,240,240,2.0,47.0
4075,71.0,0,240,0.0,48.0
4076,40.0,0,2400,3.0,46.0
4077,69.0,480,480,0.0,47.0
4078,81.0,240,480,0.0,55.0
4079,66.0,0,480,2.0,53.0
4080,64.0,0,240,2.0,51.0
4081,80.0,240,240,0.0,53.0
4082,69.0,240,0,1.0,50.0
4083,62.0,0,480,2.0,51.0
4084,78.0,240,480,0.0,51.0
4085,61.0,0,240,2.0,49.0
4086,57.0,0,720,3.0,51.0
4087,76.0,240,240,0.0,49.0
4088,69.0,240,0,1.0,50.0
4089,49.0,0,480,3.0,51.0
4090,78.0,0,480,0.0,51.0
4091,50.0,240,240,3.0,48.0
4092,61.0,240,960,2.0,51.0
4093,76.0,0,480,0.0,49.0
4094,64.0,240,240,1.0,47.0
4095,73.0,0,240,0.0,47.0
4096,57.0,0,240,2.0,44.0
4097,64.0,0,175,1.0,46.0
4098,56.0,0,175,2.0,41.0
4099,71.0,240,180,0.0,42.0
4100,52.0,240,660,3.0,46.0
4101,61.0,2160,480,3.0,49.0
4102,76.0,0,480,0.0,47.0
4103,57.0,240,240,3.0,45.0
4104,73.0,0,240,0.0,44.0
4105,64.0,0,720,1.0,45.0
4106,56.0,0,240,3.0,44.0
4107,71.0,240,240,0.0,43.0
4108,52.0,240,720,3.0,47.0
4109,78.0,720,480,0.0,47.0
4110,62.0,0,480,3.0,46.0
4111,74.0,0,240,0.0,51.0
4112,59.0,240,240,3.0,49.0
4113,66.0,240,720,1.0,49.0
4114,57.0,0,240,3.0,51.0
4115,73.0,240,240,0.0,53.0
4116,81.0,0,240,0.0,54.0
4117,66.0,0,240,3.0,53.0
4118,62.0,0,240,3.0,58.0
4119,78.0,240,240,0.0,60.0
4120,61.0,240,240,3.0,62.0
4121,76.0,0,240,0.0,65.0
4122,69.0,240,720,1.0,54.0
4123,85.0,0,240,0.0,71.0
4124,69.0,240,240,3.0,67.0
4125,81.0,0,240,0.0,76.0
4126,66.0,240,240,3.0,71.0
4127,80.0,240,240,0.0,82.0
4128,73.0,0,720,1.0,71.0
4129,64.0,0,0,3.0,85.0
4130,88.0,240,120,0.0,94.0
4131,87.0,120,120,0.0,87.0
4132,86.0,120,120,0.0,80.0
4133,76.0,0,480,1.0,94.0
4134,85.0,120,120,0.0,73.0
4135,83.0,120,120,0.0,68.0
4136,81.0,120,120,0.0,63.0
4137,80.0,120,120,0.0,59.0
4138,78.0,120,120,0.0,55.0
4139,76.0,120,480,0.0,51.0
4140,74.0,480,60,0.0,38.0
4141,76.0,60,60,0.0,38.0
4142,74.0,0,1568,2.0,85.0
4143,71.0,0,1568,2.0,85.0
4144,68.0,0,1568,2.0,85.0
4145,74.0,60,60,0.0,38.0
4146,76.0,60,60,0.0,38.0
4147,74.0,60,60,0.0,38.0
4148,76.0,60,60,0.0,38.0
4149,74.0,60,60,0.0,38.0
4150,76.0,60,60,0.0,38.0
4151,74.0,60,60,0.0,39.0
4152,76.0,60,60,0.0,39.0
4153,74.0,60,60,0.0,39.0
4154,76.0,60,60,0.0,39.0
4155,74.0,60,60,0.0,39.0
4156,76.0,60,60,0.0,39.0
4157,74.0,60,60,0.0,39.0
4158,76.0,60,60,0.0,39.0
4159,74.0,60,60,0.0,40.0
4160,76.0,60,60,0.0,40.0
4161,74.0,60,60,0.0,40.0
4162,76.0,60,60,0.0,40.0
4163,74.0,60,60,0.0,40.0
4164,76.0,60,60,0.0,40.0
4165,74.0,60,60,0.0,40.0
4166,76.0,60,60,0.0,40.0
4167,75.0,60,60,0.0,40.0
4168,76.0,60,60,0.0,41.0
4169,75.0,60,60,0.0,41.0
4170,76.0,60,60,0.0,41.0
4171,75.0,60,60,0.0,41.0
4172,76.0,60,60,0.0,41.0
4173,75.0,60,60,0.0,41.0
4174,76.0,60,60,0.0,41.0
4175,75.0,60,60,0.0,41.0
4176,76.0,60,60,0.0,41.0
4177,75.0,60,60,0.0,42.0
4178,76.0,60,60,0.0,42.0
4179,75.0,60,60,0.0,42.0
4180,76.0,60,60,0.0,42.0
4181,75.0,60,60,0.0,42.0
4182,76.0,60,60,0.0,42.0
4183,75.0,60,60,0.0,42.0
4184,76.0,60,60,0.0,42.0
4185,75.0,60,60,0.0,43.0
4186,76.0,60,60,0.0,43.0
4187,75.0,60,60,0.0,43.0
4188,76.0,60,60,0.0,43.0
4189,75.0,60,60,0.0,43.0
4190,76.0,60,60,0.0,42.0
4191,75.0,60,60,0.0,42.0
4192,76.0,60,60,0.0,42.0
4193,78.0,60,60,0.0,43.0
4194,76.0,60,60,0.0,43.0
4195,78.0,60,60,0.0,43.0
4196,76.0,60,60,0.0,44.0
4197,78.0,60,60,0.0,44.0
4198,76.0,60,60,0.0,44.0
4199,78.0,60,60,0.0,45.0
4200,76.0,60,60,0.0,45.0
4201,78.0,60,60,0.0,46.0
4202,76.0,60,60,0.0,46.0
4203,78.0,60,60,0.0,46.0
4204,76.0,60,60,0.0,47.0
4205,78.0,60,60,0.0,47.0
4206,76.0,60,60,0.0,47.0
4207,78.0,60,60,0.0,48.0
4208,76.0,60,60,0.0,48.0
4209,78.0,60,60,0.0,48.0
4210,76.0,60,60,0.0,49.0
4211,78.0,60,60,0.0,49.0
4212,76.0,60,60,0.0,49.0
4213,78.0,60,60,0.0,50.0
4214,76.0,60,60,0.0,50.0
4215,78.0,60,60,0.0,50.0
4216,76.0,60,61,0.0,51.0
4217,78.0,60,62,0.0,51.0
4218,76.0,60,64,0.0,52.0
4219,78.0,60,65,0.0,52.0
4220,76.0,60,66,0.0,53.0
4221,78.0,60,67,0.0,53.0
4222,76.0,60,69,0.0,54.0
4223,78.0,60,70,0.0,54.0
4224,76.0,60,71,0.0,55.0
4225,78.0,60,72,0.0,55.0
4226,76.0,60,74,0.0,56.0
4227,78.0,0,75,0.0,56.0
4228,76.0,60,76,0.0,57.0
4229,74.0,60,156,2.0,75.0
4230,64.0,0,156,3.0,75.0
4231,68.0,0,156,2.0,75.0
4232,71.0,0,156,2.0,75.0
4233,78.0,60,77,0.0,57.0
4234,76.0,60,79,0.0,58.0
4235,78.0,60,80,0.0,58.0
4236,76.0,60,81,0.0,58.0
4237,59.0,0,192,2.0,80.0
4238,56.0,0,192,2.0,80.0
4239,62.0,0,192,2.0,80.0
4240,78.0,60,82,0.0,59.0
4241,52.0,0,240,3.0,80.0
4242,76.0,60,84,0.0,59.0
4243,78.0,60,85,0.0,60.0
4244,76.0,60,86,0.0,60.0
4245,78.0,60,87,0.0,61.0
4246,76.0,60,89,0.0,61.0
4247,78.0,60,90,0.0,62.0
4248,76.0,60,91,0.0,62.0
4249,78.0,60,92,0.0,63.0
4250,76.0,60,94,0.0,63.0
4251,78.0,60,95,0.0,64.0
4252,76.0,60,96,0.0,64.0
4253,78.0,60,98,0.0,65.0
4254,76.0,60,99,0.0,65.0
4255,78.0,60,100,0.0,64.0
4256,76.0,60,101,0.0,65.0
4257,78.0,60,103,0.0,65.0
4258,76.0,60,104,0.0,66.0
4259,78.0,60,105,0.0,66.0
4260,76.0,60,106,0.0,67.0
4261,78.0,60,108,0.0,68.0
4262,76.0,60,109,0.0,68.0
4263,78.0,60,110,0.0,69.0
4264,76.0,60,111,0.0,69.0
4265,78.0,60,113,0.0,70.0
4266,76.0,60,114,0.0,71.0
4267,78.0,0,115,0.0,71.0
4268,52.0,60,156,3.0,86.0
4269,59.0,0,156,2.0,86.0
4270,62.0,0,156,2.0,86.0
4271,56.0,0,156,2.0,86.0
4272,76.0,60,116,0.0,72.0
4273,78.0,60,118,0.0,72.0
4274,47.0,60,192,2.0,90.0
4275,44.0,0,192,2.0,90.0
4276,50.0,0,192,2.0,90.0
4277,40.0,0,240,3.0,90.0
4278,76.0,60,780,0.0,73.0
4279,52.0,0,120,2.0,76.0
4280,88.0,720,120,0.0,81.0
4281,40.0,0,120,3.0,76.0
4282,83.0,0,120,1.0,81.0
4283,80.0,0,120,1.0,81.0
4284,76.0,0,120,1.0,81.0
4285,57.0,240,120,2.0,78.0
4286,45.0,0,120,3.0,78.0
4287,59.0,240,120,2.0,80.0
4288,71.0,0,120,2.0,80.0
4289,73.0,0,600,1.0,88.0
4290,85.0,0,600,0.0,93.0
4291,76.0,0,600,1.0,88.0
4292,81.0,0,600,1.0,88.0
4293,86.0,120,120,0.0,79.0
4294,88.0,120,120,0.0,77.0
4295,90.0,120,120,0.0,75.0
4296,69.0,0,600,2.0,92.0
4297,57.0,240,600,3.0,87.0
4298,59.0,120,120,3.0,77.0
4299,61.0,120,120,3.0,75.0
4300,71.0,120,480,1.0,73.0
4301,83.0,0,480,0.0,73.0
4302,62.0,120,120,3.0,75.0
4303,76.0,240,120,1.0,73.0
4304,88.0,0,120,0.0,74.0
4305,56.0,120,480,3.0,72.0
4306,56.0,0,120,3.0,73.0
4307,68.0,240,120,2.0,73.0
4308,69.0,0,600,1.0,80.0
4309,81.0,240,600,0.0,88.0
4310,83.0,120,120,0.0,72.0
4311,85.0,120,120,0.0,70.0
4312,86.0,120,120,0.0,68.0
4313,66.0,0,600,2.0,84.0
4314,54.0,240,600,3.0,80.0
4315,56.0,120,120,3.0,73.0
4316,57.0,120,120,3.0,71.0
4317,59.0,120,120,3.0,70.0
4318,71.0,0,480,1.0,66.0
4319,83.0,120,480,0.0,66.0
4320,52.0,120,240,3.0,69.0
4321,85.0,240,120,0.0,61.0
4322,78.0,240,120,0.0,63.0
4323,64.0,0,480,3.0,63.0
4324,76.0,0,480,2.0,63.0
4325,80.0,120,120,0.0,62.0
4326,81.0,0,120,0.0,62.0
4327,83.0,120,120,0.0,61.0
4328,81.0,120,120,0.0,61.0
4329,74.0,0,480,2.0,61.0
4330,64.0,120,480,3.0,61.0
4331,80.0,120,120,0.0,60.0
4332,78.0,0,120,0.0,60.0
4333,80.0,120,120,0.0,59.0
4334,81.0,120,120,0.0,58.0
4335,64.0,0,480,3.0,59.0
4336,71.0,120,480,2.0,59.0
4337,83.0,120,120,0.0,58.0
4338,85.0,0,120,0.0,57.0
4339,86.0,120,120,0.0,57.0
4340,85.0,120,120,0.0,56.0
4341,64.0,120,480,3.0,58.0
4342,69.0,0,480,2.0,58.0
4343,83.0,120,120,0.0,56.0
4344,81.0,0,120,0.0,55.0
4345,83.0,120,120,0.0,55.0
4346,68.0,0,240,2.0,56.0
4347,64.0,120,240,3.0,56.0
4348,85.0,0,120,0.0,54.0
4349,69.0,120,240,2.0,55.0
4350,86.0,120,120,0.0,54.0
4351,88.0,0,120,0.0,53.0
4352,90.0,120,120,0.0,53.0
4353,68.0,120,240,2.0,54.0
4354,92.0,120,120,0.0,52.0
4355,93.0,120,120,0.0,52.0
4356,66.0,0,240,2.0,53.0
4357,81.0,0,120,1.0,51.0
4358,85.0,0,120,0.0,51.0
4359,71.0,120,0,2.0,49.0
4360,87.0,120,120,0.0,49.0
4361,59.0,0,0,3.0,49.0
4362,81.0,0,960,1.0,47.0
4363,90.0,0,960,0.0,47.0
4364,80.0,0,480,1.0,40.0
4365,88.0,0,480,0.0,40.0
4366,71.0,0,480,2.0,40.0
4367,64.0,960,480,3.0,40.0
4368,64.0,720,120,2.0,79.0
4369,52.0,0,120,3.0,79.0
4370,83.0,240,240,0.0,79.0
4371,71.0,0,240,1.0,79.0
4372,49.0,0,600,3.0,90.0
4373,61.0,240,600,2.0,85.0
4374,62.0,120,120,3.0,80.0
4375,64.0,120,120,3.0,79.0
4376,66.0,120,120,3.0,78.0
4377,81.0,240,600,0.0,90.0
4378,69.0,0,600,1.0,85.0
4379,83.0,120,120,0.0,80.0
4380,85.0,120,120,0.0,77.0
4381,59.0,0,480,2.0,77.0
4382,86.0,120,120,0.0,75.0
4383,47.0,120,480,3.0,77.0
4384,80.0,120,240,0.0,72.0
4385,68.0,0,240,1.0,72.0
4386,52.0,0,120,3.0,75.0
4387,64.0,240,120,2.0,75.0
4388,68.0,240,120,1.0,75.0
4389,80.0,0,120,0.0,75.0
4390,57.0,0,600,2.0,80.0
4391,45.0,240,600,3.0,85.0
4392,59.0,120,120,3.0,74.0
4393,61.0,120,120,3.0,73.0
4394,62.0,120,120,3.0,72.0
4395,66.0,0,600,1.0,81.0
4396,78.0,240,600,0.0,86.0
4397,80.0,120,120,0.0,74.0
4398,81.0,120,120,0.0,72.0
4399,83.0,120,120,0.0,69.0
4400,44.0,120,480,3.0,70.0
4401,56.0,0,480,2.0,70.0
4402,76.0,0,240,0.0,67.0
4403,64.0,120,240,1.0,67.0
4404,52.0,0,120,2.0,58.0
4405,68.0,240,240,1.0,57.0
4406,54.0,240,120,2.0,58.0
4407,69.0,0,240,1.0,57.0
4408,56.0,120,120,2.0,58.0
4409,76.0,0,480,0.0,59.0
4410,57.0,0,120,2.0,58.0
4411,66.0,120,240,1.0,57.0
4412,62.0,0,240,1.0,57.0
4413,59.0,120,120,2.0,57.0
4414,57.0,0,120,2.0,57.0
4415,74.0,0,480,0.0,59.0
4416,71.0,120,0,0.0,58.0
4417,62.0,0,0,1.0,56.0
4418,56.0,120,120,2.0,57.0
4419,54.0,0,120,2.0,57.0
4420,64.0,0,240,1.0,56.0
4421,56.0,120,120,2.0,57.0
4422,61.0,0,120,1.0,56.0
4423,57.0,120,120,2.0,57.0
4424,62.0,120,120,1.0,56.0
4425,69.0,0,240,0.0,58.0
4426,59.0,0,120,2.0,56.0
4427,61.0,120,120,2.0,56.0
4428,64.0,0,120,1.0,56.0
4429,66.0,120,120,1.0,55.0
4430,62.0,0,120,2.0,56.0
4431,61.0,120,120,2.0,56.0
4432,64.0,0,120,1.0,55.0
4433,69.0,0,480,0.0,58.0
4434,59.0,0,120,2.0,56.0
4435,62.0,120,120,1.0,55.0
4436,61.0,120,120,1.0,55.0
4437,57.0,0,120,2.0,55.0
4438,69.0,0,240,0.0,58.0
4439,59.0,0,120,2.0,55.0
4440,62.0,120,120,1.0,55.0
4441,61.0,0,120,2.0,55.0
4442,64.0,0,240,1.0,55.0
4443,62.0,120,120,2.0,55.0
4444,69.0,120,240,0.0,57.0
4445,64.0,0,120,2.0,55.0
4446,66.0,120,120,2.0,54.0
4447,68.0,120,120,2.0,54.0
4448,81.0,0,480,0.0,57.0
4449,73.0,120,480,1.0,54.0
4450,69.0,120,120,2.0,54.0
4451,66.0,0,120,2.0,54.0
4452,63.0,120,120,2.0,54.0
4453,64.0,120,120,2.0,53.0
4454,73.0,0,480,1.0,54.0
4455,81.0,120,480,0.0,57.0
4456,66.0,120,120,2.0,53.0
4457,62.0,0,120,2.0,53.0
4458,80.0,0,240,0.0,56.0
4459,71.0,120,240,1.0,53.0
4460,52.0,0,240,3.0,53.0
4461,59.0,120,120,2.0,53.0
4462,81.0,0,156,0.0,56.0
4463,73.0,120,156,1.0,53.0
4464,57.0,0,0,3.0,52.0
4465,61.0,120,120,2.0,53.0
4466,76.0,120,120,0.0,56.0
4467,61.0,120,120,2.0,52.0
4468,52.0,0,240,3.0,52.0
4469,69.0,0,240,1.0,52.0
4470,53.0,240,240,3.0,52.0
4471,74.0,120,720,0.0,56.0
4472,59.0,0,960,2.0,52.0
4473,76.0,240,240,0.0,55.0
4474,68.0,240,480,1.0,52.0
4475,73.0,0,240,0.0,55.0
4476,57.0,0,480,2.0,50.0
4477,81.0,240,240,0.0,54.0
4478,69.0,240,720,1.0,51.0
4479,61.0,0,240,2.0,50.0
4480,52.0,0,1200,3.0,51.0
4481,76.0,240,240,0.0,54.0
4482,64.0,240,240,2.0,49.0
4483,52.0,240,0,3.0,49.0
4484,53.0,240,240,3.0,49.0
4485,62.0,0,720,2.0,49.0
4486,71.0,0,480,1.0,50.0
4487,80.0,240,0,0.0,53.0
4488,71.0,0,120,1.0,49.0
4489,64.0,0,240,2.0,48.0
4490,73.0,0,240,1.0,49.0
4491,52.0,240,720,3.0,48.0
4492,81.0,240,240,0.0,53.0
4493,61.0,0,240,2.0,47.0
4494,76.0,240,120,0.0,53.0
4495,73.0,0,120,1.0,48.0
4496,69.0,0,156,2.0,47.0
4497,69.0,0,120,1.0,48.0
4498,73.0,240,120,0.0,52.0
4499,64.0,0,156,2.0,47.0
4500,52.0,240,156,3.0,46.0
4501,59.0,0,156,2.0,46.0
4502,76.0,0,120,0.0,52.0
4503,68.0,0,0,1.0,49.0
4504,52.0,0,240,3.0,46.0
4505,53.0,0,240,3.0,48.0
4506,59.0,0,480,2.0,46.0
4507,69.0,240,240,1.0,51.0
4508,74.0,120,720,0.0,52.0
4509,76.0,240,240,0.0,55.0
4510,68.0,0,720,1.0,53.0
4511,52.0,240,720,3.0,50.0
4512,53.0,240,240,3.0,56.0
4513,59.0,0,960,2.0,50.0
4514,69.0,0,240,1.0,58.0
4515,74.0,240,720,0.0,56.0
4516,76.0,240,240,0.0,62.0
4517,74.0,240,240,0.0,64.0
4518,52.0,240,720,3.0,59.0
4519,68.0,0,0,1.0,66.0
4520,59.0,0,0,2.0,65.0
4521,76.0,240,240,0.0,66.0
4522,59.0,0,0,2.0,67.0
4523,52.0,0,240,3.0,65.0
4524,69.0,0,240,1.0,68.0
4525,74.0,240,240,0.0,68.0
4526,53.0,0,240,3.0,67.0
4527,52.0,0,240,3.0,70.0
4528,76.0,0,240,0.0,69.0
4529,74.0,0,120,0.0,71.0
4530,68.0,240,480,1.0,69.0
4531,53.0,240,240,3.0,72.0
4532,76.0,120,120,0.0,72.0
4533,59.0,0,552,2.0,70.0
4534,78.0,120,120,0.0,73.0
4535,52.0,0,120,3.0,74.0
4536,50.0,120,120,3.0,75.0
4537,80.0,0,120,0.0,74.0
4538,81.0,0,120,0.0,75.0
4539,49.0,120,156,3.0,76.0
4540,83.0,120,120,0.0,76.0
4541,40.0,0,120,3.0,82.0
4542,85.0,120,120,0.0,77.0
4543,86.0,120,120,0.0,78.0
4544,88.0,120,120,0.0,85.0
4545,76.0,0,120,1.0,85.0
4546,71.0,0,120,1.0,83.0
4547,83.0,240,120,0.0,83.0
4548,37.0,0,600,3.0,93.0
4549,38.0,120,120,3.0,77.0
4550,40.0,120,120,3.0,76.0
4551,42.0,120,120,3.0,75.0
4552,81.0,0,600,0.0,95.0
4553,69.0,240,600,1.0,86.0
4554,83.0,120,120,0.0,75.0
4555,85.0,120,120,0.0,73.0
4556,35.0,120,480,3.0,73.0
4557,86.0,120,120,0.0,71.0
4558,40.0,240,120,3.0,74.0
4559,68.0,120,480,1.0,69.0
4560,80.0,0,480,0.0,69.0
4561,68.0,240,120,1.0,71.0
4562,80.0,0,120,0.0,71.0
4563,33.0,240,600,3.0,88.0
4564,35.0,120,120,3.0,70.0
4565,37.0,120,120,3.0,68.0
4566,38.0,120,120,3.0,67.0
4567,78.0,240,600,0.0,83.0
4568,66.0,0,600,1.0,78.0
4569,80.0,120,120,0.0,69.0
4570,81.0,120,120,0.0,67.0
4571,83.0,120,120,0.0,65.0
4572,32.0,120,480,3.0,65.0
4573,40.0,240,120,3.0,58.0
4574,76.0,120,480,0.0,63.0
4575,64.0,0,480,1.0,63.0
4576,42.0,240,120,3.0,58.0
4577,44.0,120,120,3.0,59.0
4578,45.0,120,120,3.0,59.0
4579,52.0,0,120,0.0,58.0
4580,47.0,120,120,3.0,59.0
4581,54.0,120,120,0.0,59.0
4582,45.0,0,120,3.0,59.0
4583,44.0,0,120,3.0,60.0
4584,56.0,120,120,0.0,59.0
4585,42.0,120,120,3.0,60.0
4586,57.0,0,120,0.0,60.0
4587,44.0,120,120,3.0,60.0
4588,59.0,0,120,0.0,60.0
4589,45.0,120,120,3.0,61.0
4590,57.0,0,120,0.0,61.0
4591,56.0,120,120,0.0,61.0
4592,47.0,0,120,3.0,61.0
4593,57.0,120,120,0.0,61.0
4594,49.0,0,120,3.0,61.0
4595,50.0,0,120,3.0,61.0
4596,59.0,120,120,0.0,62.0
4597,49.0,0,120,3.0,62.0
4598,57.0,120,120,0.0,62.0
4599,56.0,0,120,0.0,63.0
4600,47.0,120,120,3.0,62.0
4601,54.0,120,120,0.0,63.0
4602,45.0,0,120,3.0,62.0
4603,56.0,0,120,0.0,63.0
4604,47.0,120,120,3.0,63.0
4605,57.0,120,120,0.0,64.0
4606,49.0,0,120,3.0,63.0
4607,50.0,0,120,3.0,63.0
4608,59.0,120,120,0.0,64.0
4609,52.0,120,120,3.0,63.0
4610,61.0,0,120,0.0,64.0
4611,62.0,0,120,0.0,65.0
4612,54.0,120,120,3.0,64.0
4613,56.0,120,120,3.0,64.0
4614,64.0,0,120,0.0,65.0
4615,66.0,0,120,0.0,66.0
4616,57.0,120,120,3.0,64.0
4617,54.0,0,120,3.0,65.0
4618,68.0,120,120,0.0,66.0
4619,51.0,0,120,3.0,65.0
4620,69.0,120,120,0.0,66.0
4621,68.0,120,120,0.0,66.0
4622,52.0,0,120,3.0,65.0
4623,69.0,0,120,0.0,65.0
4624,54.0,120,120,3.0,64.0
4625,66.0,120,120,0.0,63.0
4626,50.0,0,120,3.0,62.0
4627,62.0,0,120,0.0,61.0
4628,47.0,120,120,3.0,61.0
4629,64.0,120,120,0.0,59.0
4630,49.0,0,120,3.0,60.0
4631,66.0,120,120,0.0,58.0
4632,50.0,0,120,3.0,58.0
4633,59.0,120,120,0.0,56.0
4634,52.0,0,120,3.0,57.0
4635,64.0,120,120,0.0,54.0
4636,40.0,0,120,3.0,55.0
4637,49.0,0,120,2.0,46.0
4638,57.0,120,240,0.0,52.0
4639,50.0,120,120,2.0,44.0
4640,52.0,120,120,2.0,44.0
4641,54.0,120,120,2.0,44.0
4642,61.0,0,120,1.0,46.0
4643,62.0,120,120,1.0,46.0
4644,64.0,120,120,1.0,47.0
4645,52.0,120,480,2.0,45.0
4646,66.0,120,120,1.0,47.0
4647,45.0,0,0,3.0,56.0
4648,49.0,0,120,2.0,45.0
4649,50.0,120,120,2.0,46.0
4650,52.0,120,120,2.0,46.0
4651,69.0,0,960,0.0,58.0
4652,54.0,120,120,2.0,46.0
4653,64.0,120,480,1.0,47.0
4654,61.0,0,120,1.0,48.0
4655,62.0,120,120,1.0,48.0
4656,64.0,120,120,1.0,48.0
4657,52.0,120,480,2.0,46.0
4658,66.0,120,120,1.0,49.0
4659,50.0,120,120,2.0,47.0
4660,52.0,120,120,2.0,48.0
4661,54.0,120,120,2.0,48.0
4662,69.0,0,960,0.0,60.0
4663,52.0,120,120,2.0,48.0
4664,64.0,0,480,1.0,49.0
4665,62.0,0,120,1.0,50.0
4666,64.0,120,120,1.0,50.0
4667,66.0,120,120,1.0,50.0
4668,52.0,0,480,2.0,48.0
4669,64.0,120,120,1.0,50.0
4670,68.0,120,480,0.0,62.0
4671,47.0,0,0,3.0,60.0
4672,50.0,120,120,2.0,49.0
4673,52.0,120,120,2.0,50.0
4674,54.0,120,120,2.0,50.0
4675,76.0,0,480,0.0,63.0
4676,52.0,120,120,2.0,50.0
4677,64.0,0,480,1.0,50.0
4678,62.0,0,120,1.0,51.0
4679,64.0,120,120,1.0,51.0
4680,66.0,120,120,1.0,52.0
4681,68.0,120,480,0.0,64.0
4682,64.0,120,120,1.0,52.0
4683,52.0,0,480,2.0,50.0
4684,49.0,0,120,2.0,51.0
4685,50.0,120,120,2.0,52.0
4686,52.0,120,120,2.0,52.0
4687,64.0,0,480,1.0,52.0
4688,69.0,0,480,0.0,65.0
4689,54.0,120,120,2.0,52.0
4690,61.0,120,120,1.0,53.0
4691,62.0,120,120,1.0,53.0
4692,64.0,120,120,1.0,53.0
4693,45.0,120,960,3.0,62.0
4694,52.0,0,480,2.0,52.0
4695,66.0,120,120,1.0,54.0
4696,49.0,120,120,2.0,54.0
4697,50.0,120,120,2.0,54.0
4698,52.0,120,120,2.0,54.0
4699,64.0,0,480,1.0,54.0
4700,69.0,0,0,0.0,68.0
4701,54.0,120,120,2.0,55.0
4702,61.0,120,120,1.0,56.0
4703,62.0,120,120,1.0,56.0
4704,64.0,120,120,1.0,56.0
4705,45.0,0,960,3.0,64.0
4706,52.0,0,480,2.0,55.0
4707,66.0,120,120,1.0,57.0
4708,50.0,0,120,2.0,57.0
4709,52.0,120,120,2.0,57.0
4710,54.0,120,120,2.0,58.0
4711,52.0,120,120,2.0,58.0
4712,64.0,0,480,1.0,57.0
4713,62.0,120,120,1.0,59.0
4714,64.0,120,120,1.0,59.0
4715,66.0,120,120,1.0,59.0
4716,68.0,0,480,0.0,70.0
4717,47.0,120,960,3.0,67.0
4718,64.0,0,0,1.0,60.0
4719,52.0,0,480,2.0,58.0
4720,52.0,0,120,2.0,60.0
4721,57.0,120,120,2.0,60.0
4722,52.0,120,120,2.0,61.0
4723,76.0,120,480,0.0,71.0
4724,57.0,120,120,2.0,61.0
4725,64.0,120,120,1.0,62.0
4726,66.0,120,120,1.0,62.0
4727,68.0,120,120,1.0,63.0
4728,49.0,0,960,3.0,69.0
4729,69.0,0,480,0.0,72.0
4730,66.0,0,0,1.0,63.0
4731,54.0,0,120,2.0,63.0
4732,57.0,120,120,2.0,64.0
4733,54.0,120,120,2.0,64.0
4734,73.0,0,480,0.0,73.0
4735,59.0,120,120,2.0,64.0
4736,66.0,120,120,1.0,65.0
4737,68.0,120,120,1.0,65.0
4738,69.0,120,120,1.0,66.0
4739,68.0,120,120,1.0,66.0
4740,51.0,120,960,3.0,71.0
4741,71.0,0,480,0.0,74.0
4742,56.0,0,120,2.0,66.0
4743,57.0,120,120,2.0,67.0
4744,56.0,120,120,2.0,67.0
4745,80.0,0,480,0.0,75.0
4746,59.0,120,120,2.0,68.0
4747,68.0,120,120,1.0,68.0
4748,69.0,120,120,1.0,68.0
4749,71.0,120,120,1.0,69.0
4750,52.0,120,960,3.0,73.0
4751,73.0,0,480,0.0,76.0
4752,69.0,0,0,1.0,70.0
4753,57.0,0,120,2.0,69.0
4754,59.0,120,120,2.0,70.0
4755,57.0,120,120,2.0,70.0
4756,69.0,120,0,1.0,71.0
4757,76.0,0,480,0.0,77.0
4758,59.0,120,120,2.0,71.0
4759,71.0,120,120,1.0,71.0
4760,73.0,120,120,1.0,72.0
4761,75.0,0,480,0.0,78.0
4762,54.0,120,960,3.0,75.0
4763,71.0,120,120,1.0,72.0
4764,56.0,0,120,3.0,72.0
4765,57.0,120,120,3.0,73.0
4766,59.0,120,120,3.0,74.0
4767,57.0,120,120,3.0,75.0
4768,83.0,120,480,0.0,79.0
4769,56.0,120,120,3.0,76.0
4770,59.0,120,120,3.0,77.0
4771,64.0,120,120,3.0,78.0
4772,71.0,0,480,1.0,74.0
4773,80.0,0,480,1.0,74.0
4774,76.0,0,480,1.0,74.0
4775,68.0,120,120,3.0,79.0
4776,83.0,120,0,0.0,85.0
4777,69.0,0,120,3.0,84.0
4778,68.0,120,120,3.0,82.0
4779,66.0,120,120,3.0,80.0
4780,68.0,120,120,3.0,78.0
4781,78.0,0,720,1.0,81.0
4782,75.0,0,720,1.0,81.0
4783,85.0,120,120,0.0,81.0
4784,87.0,120,120,0.0,81.0
4785,69.0,120,480,3.0,77.0
4786,85.0,120,120,0.0,80.0
4787,71.0,120,0,2.0,85.0
4788,69.0,0,120,3.0,87.0
4789,68.0,120,120,3.0,85.0
4790,66.0,120,120,3.0,83.0
4791,68.0,120,120,3.0,81.0
4792,83.0,0,600,0.0,86.0
4793,85.0,120,120,0.0,82.0
4794,78.0,0,720,1.0,83.0
4795,75.0,0,720,1.0,83.0
4796,87.0,120,120,0.0,81.0
4797,85.0,120,120,0.0,80.0
4798,69.0,120,480,3.0,79.0
4799,75.0,0,120,1.0,80.0
4800,69.0,0,120,3.0,76.0
4801,83.0,120,120,0.0,80.0
4802,71.0,0,120,2.0,79.0
4803,85.0,0,120,0.0,79.0
4804,68.0,0,120,3.0,78.0
4805,76.0,0,120,1.0,79.0
4806,71.0,240,120,2.0,81.0
4807,66.0,0,120,3.0,80.0
4808,87.0,0,120,0.0,81.0
4809,71.0,240,120,2.0,82.0
4810,69.0,0,120,2.0,82.0
4811,78.0,0,120,1.0,81.0
4812,81.0,0,120,1.0,81.0
4813,83.0,0,120,1.0,83.0
4814,68.0,0,120,2.0,83.0
4815,71.0,0,120,2.0,83.0
4816,80.0,0,120,1.0,83.0
4817,64.0,0,120,3.0,83.0
4818,88.0,240,120,0.0,83.0
4819,66.0,0,120,2.0,84.0
4820,71.0,0,120,2.0,84.0
4821,90.0,0,120,0.0,84.0
4822,87.0,240,120,1.0,83.0
4823,63.0,0,120,3.0,84.0
4824,61.0,0,120,3.0,89.0
4825,92.0,240,120,0.0,90.0
4826,88.0,0,120,1.0,88.0
4827,64.0,0,120,2.0,89.0
4828,71.0,0,120,2.0,89.0
4829,63.0,0,480,2.0,94.0
4830,93.0,0,480,0.0,96.0
4831,59.0,240,480,3.0,95.0
4832,71.0,0,480,2.0,94.0
4833,90.0,0,480,1.0,94.0
4834,69.0,960,360,0.0,44.0
4835,68.0,360,120,0.0,44.0
4836,66.0,120,360,0.0,45.0
4837,68.0,360,120,0.0,46.0
4838,69.0,120,480,0.0,46.0
4839,68.0,480,480,0.0,47.0
4840,64.0,480,360,3.0,52.0
4841,73.0,0,480,0.0,48.0
4842,63.0,360,120,3.0,53.0
4843,61.0,0,360,3.0,54.0
4844,63.0,360,120,3.0,55.0
4845,76.0,120,480,0.0,49.0
4846,68.0,0,480,1.0,50.0
4847,64.0,120,480,3.0,55.0
4848,73.0,0,480,0.0,50.0
4849,54.0,480,360,3.0,49.0
4850,71.0,480,960,0.0,55.0
4851,53.0,360,120,3.0,47.0
4852,66.0,0,960,1.0,55.0
4853,63.0,0,960,1.0,55.0
4854,54.0,120,360,3.0,47.0
4855,52.0,360,120,3.0,45.0
4856,61.0,0,960,1.0,50.0
4857,64.0,0,960,1.0,50.0
4858,70.0,0,960,0.0,50.0
4859,49.0,120,480,3.0,45.0
4860,63.0,480,480,1.0,44.0
4861,47.0,0,480,3.0,42.0
4862,71.0,0,480,0.0,44.0
4863,80.0,0,360,0.0,37.0
4864,64.0,0,360,3.0,35.0
4865,68.0,0,360,2.0,35.0
4866,76.0,480,360,1.0,37.0
4867,66.0,360,120,2.0,33.0
4868,59.0,0,120,3.0,33.0
4869,78.0,0,120,0.0,34.0
4870,71.0,0,120,1.0,34.0
4871,64.0,0,360,2.0,33.0
4872,76.0,120,360,0.0,33.0
4873,56.0,0,360,3.0,33.0
4874,68.0,0,360,1.0,33.0
4875,66.0,360,120,2.0,31.0
4876,59.0,0,120,3.0,31.0
4877,71.0,0,120,1.0,31.0
4878,78.0,0,120,0.0,31.0
4879,76.0,0,480,1.0,30.0
4880,80.0,0,480,0.0,30.0
4881,64.0,120,480,3.0,31.0
4882,68.0,0,480,2.0,31.0
4883,71.0,480,120,3.0,86.0
4884,81.0,0,360,0.0,84.0
4885,59.0,240,120,3.0,81.0
4886,78.0,0,480,1.0,82.0
4887,83.0,120,120,0.0,76.0
4888,75.0,0,480,1.0,82.0
4889,80.0,0,120,0.0,73.0
4890,64.0,120,120,3.0,77.0
4891,76.0,0,120,1.0,74.0
4892,80.0,240,120,1.0,80.0
4893,52.0,0,120,3.0,83.0
4894,88.0,0,120,0.0,81.0
4895,59.0,0,120,3.0,80.0
4896,78.0,0,360,0.0,77.0
4897,69.0,240,360,1.0,76.0
4898,47.0,240,120,3.0,77.0
4899,71.0,0,120,1.0,70.0
4900,80.0,120,120,0.0,72.0
4901,68.0,0,120,1.0,68.0
4902,40.0,0,120,3.0,74.0
4903,76.0,120,120,0.0,71.0
4904,76.0,0,120,0.0,52.0
4905,56.0,0,120,2.0,40.0
4906,52.0,240,120,2.0,40.0
4907,59.0,0,120,2.0,40.0
4908,59.0,0,240,2.0,40.0
4909,52.0,240,240,2.0,40.0
4910,56.0,240,0,2.0,41.0
4911,71.0,240,600,0.0,52.0
4912,59.0,120,0,2.0,41.0
4913,56.0,0,0,2.0,41.0
4914,73.0,120,120,0.0,53.0
4915,52.0,0,0,2.0,41.0
4916,75.0,0,120,0.0,54.0
4917,40.0,0,0,3.0,47.0
4918,76.0,120,120,0.0,54.0
4919,73.0,0,480,0.0,54.0
4920,57.0,240,0,2.0,42.0
4921,61.0,0,0,2.0,42.0
4922,52.0,0,240,2.0,42.0
4923,64.0,120,600,1.0,55.0
4924,66.0,120,120,0.0,55.0
4925,52.0,0,240,2.0,42.0
4926,68.0,0,120,0.0,56.0
4927,69.0,120,120,0.0,56.0
4928,52.0,0,240,2.0,42.0
4929,57.0,0,240,2.0,42.0
4930,61.0,120,240,2.0,42.0
4931,54.0,240,240,2.0,43.0
4932,52.0,0,240,2.0,43.0
4933,59.0,0,240,2.0,43.0
4934,57.0,0,240,2.0,43.0
4935,78.0,120,600,0.0,56.0
4936,80.0,120,120,0.0,57.0
4937,54.0,0,240,2.0,43.0
4938,52.0,240,240,2.0,43.0
4939,59.0,0,240,2.0,43.0
4940,57.0,0,240,2.0,43.0
4941,81.0,120,120,0.0,58.0
4942,40.0,0,960,3.0,48.0
4943,52.0,0,240,2.0,43.0
4944,57.0,0,240,2.0,43.0
4945,59.0,0,240,2.0,43.0
4946,54.0,0,240,2.0,43.0
4947,83.0,120,120,0.0,58.0
4948,52.0,0,240,2.0,44.0
4949,59.0,240,240,2.0,44.0
4950,56.0,240,0,2.0,44.0
4951,80.0,0,480,0.0,58.0
4952,71.0,0,600,1.0,57.0
4953,52.0,0,240,2.0,44.0
4954,73.0,120,120,1.0,57.0
4955,59.0,0,0,2.0,45.0
4956,75.0,0,120,1.0,57.0
4957,76.0,120,120,1.0,57.0
4958,52.0,120,240,2.0,45.0
4959,40.0,120,960,3.0,49.0
4960,56.0,0,240,2.0,45.0
4961,71.0,0,120,1.0,58.0
4962,56.0,0,240,2.0,45.0
4963,59.0,0,240,2.0,45.0
4964,52.0,240,240,2.0,45.0
4965,71.0,0,360,0.0,61.0
4966,52.0,0,240,2.0,45.0
4967,59.0,0,240,2.0,45.0
4968,56.0,0,0,2.0,46.0
4969,73.0,120,120,0.0,61.0
4970,75.0,0,120,0.0,62.0
4971,59.0,0,240,2.0,46.0
4972,52.0,120,240,2.0,46.0
4973,40.0,0,0,3.0,51.0
4974,76.0,120,120,0.0,62.0
4975,64.0,120,120,1.0,59.0
4976,73.0,0,480,0.0,62.0
4977,61.0,0,0,2.0,47.0
4978,57.0,0,0,2.0,47.0
4979,52.0,240,0,2.0,47.0
4980,64.0,240,360,1.0,59.0
4981,66.0,120,120,1.0,59.0
4982,68.0,0,120,1.0,59.0
4983,61.0,120,240,2.0,47.0
4984,69.0,120,0,1.0,59.0
4985,52.0,0,240,2.0,47.0
4986,57.0,0,240,2.0,47.0
4987,78.0,0,120,0.0,64.0
4988,57.0,0,240,2.0,48.0
4989,52.0,0,240,2.0,48.0
4990,59.0,240,240,2.0,48.0
4991,54.0,0,240,2.0,48.0
4992,78.0,0,360,0.0,64.0
4993,59.0,0,240,2.0,48.0
4994,57.0,0,240,2.0,48.0
4995,54.0,240,240,2.0,48.0
4996,52.0,120,0,2.0,48.0
4997,80.0,120,120,0.0,65.0
4998,81.0,0,120,0.0,65.0
4999,57.0,0,240,2.0,48.0
5000,54.0,0,240,2.0,48.0
5001,83.0,0,0,0.0,66.0
5002,40.0,120,0,3.0,54.0
5003,59.0,0,240,2.0,48.0
5004,71.0,0,120,1.0,60.0
5005,80.0,0,120,1.0,60.0
5006,42.0,120,120,3.0,55.0
5007,44.0,120,120,3.0,56.0
5008,45.0,120,120,3.0,57.0
5009,44.0,120,120,3.0,58.0
5010,68.0,0,480,1.0,61.0
5011,71.0,0,480,0.0,66.0
5012,64.0,120,0,1.0,61.0
5013,45.0,120,120,3.0,59.0
5014,47.0,0,120,3.0,61.0
5015,49.0,120,120,3.0,62.0
5016,47.0,120,120,3.0,63.0
5017,49.0,120,120,3.0,64.0
5018,51.0,120,120,3.0,65.0
5019,71.0,0,0,0.0,69.0
5020,68.0,0,0,1.0,63.0
5021,52.0,120,120,3.0,66.0
5022,68.0,0,0,1.0,65.0
5023,64.0,0,0,1.0,65.0
5024,51.0,120,120,3.0,67.0
5025,52.0,120,120,3.0,68.0
5026,68.0,120,0,1.0,71.0
5027,54.0,120,120,3.0,70.0
5028,64.0,0,0,1.0,71.0
5029,71.0,0,0,0.0,71.0
5030,56.0,0,120,3.0,71.0
5031,71.0,0,0,0.0,72.0
5032,57.0,120,120,2.0,72.0
5033,66.0,0,120,1.0,72.0
5034,63.0,0,120,1.0,72.0
5035,54.0,0,120,2.0,72.0
5036,47.0,0,120,3.0,72.0
5037,73.0,120,120,0.0,72.0
5038,75.0,0,120,0.0,73.0
5039,76.0,120,120,0.0,73.0
5040,75.0,120,120,0.0,74.0
5041,47.0,0,0,2.0,75.0
5042,35.0,0,0,3.0,75.0
5043,76.0,120,120,0.0,75.0
5044,78.0,120,120,0.0,75.0
5045,80.0,120,120,0.0,76.0
5046,78.0,120,120,0.0,76.0
5047,80.0,120,120,0.0,77.0
5048,81.0,120,120,0.0,78.0
5049,57.0,0,120,2.0,77.0
5050,54.0,0,120,2.0,77.0
5051,83.0,120,120,0.0,78.0
5052,47.0,0,0,3.0,77.0
5053,81.0,0,120,0.0,79.0
5054,83.0,120,120,0.0,79.0
5055,85.0,120,120,0.0,80.0
5056,54.0,0,0,2.0,79.0
5057,57.0,0,0,2.0,79.0
5058,47.0,120,120,3.0,79.0
5059,87.0,0,120,0.0,80.0
5060,88.0,120,120,0.0,81.0
5061,52.0,0,120,3.0,79.0
5062,54.0,120,120,3.0,56.0
5063,56.0,0,120,3.0,58.0
5064,57.0,120,120,3.0,60.0
5065,56.0,120,120,3.0,62.0
5066,57.0,120,120,3.0,64.0
5067,83.0,120,480,0.0,58.0
5068,76.0,0,480,1.0,58.0
5069,80.0,120,0,1.0,66.0
5070,59.0,0,120,3.0,66.0
5071,61.0,120,120,3.0,68.0
5072,59.0,120,120,3.0,69.0
5073,61.0,120,120,3.0,71.0
5074,63.0,120,120,3.0,73.0
5075,83.0,0,0,0.0,76.0
5076,76.0,120,0,1.0,76.0
5077,80.0,0,120,1.0,76.0
5078,64.0,0,120,3.0,75.0
5079,63.0,0,120,3.0,77.0
5080,64.0,120,120,3.0,79.0
5081,83.0,0,360,0.0,78.0
5082,66.0,120,120,3.0,81.0
5083,80.0,120,360,1.0,78.0
5084,76.0,0,0,1.0,84.0
5085,80.0,0,120,1.0,84.0
5086,83.0,0,0,0.0,86.0
5087,68.0,0,120,3.0,83.0
5088,78.0,0,120,1.0,86.0
5089,75.0,0,120,1.0,86.0
5090,59.0,0,120,3.0,86.0
5091,69.0,120,120,2.0,86.0
5092,66.0,0,120,2.0,86.0
5093,85.0,120,120,0.0,86.0
5094,87.0,120,120,0.0,87.0
5095,88.0,120,120,0.0,87.0
5096,87.0,120,120,0.0,88.0
5097,59.0,0,480,2.0,87.0
5098,88.0,120,120,0.0,89.0
5099,47.0,0,0,3.0,89.0
5100,90.0,120,120,0.0,89.0
5101,92.0,120,120,0.0,90.0
5102,90.0,120,120,0.0,91.0
5103,92.0,120,120,0.0,91.0
5104,93.0,120,120,0.0,92.0
5105,59.0,0,600,2.0,89.0
5106,95.0,120,120,0.0,93.0
5107,69.0,0,120,2.0,92.0
5108,59.0,0,120,3.0,92.0
5109,66.0,0,0,2.0,93.0
5110,93.0,0,120,0.0,93.0
5111,95.0,120,120,0.0,94.0
5112,97.0,120,120,0.0,95.0
5113,69.0,0,360,2.0,93.0
5114,59.0,0,0,3.0,94.0
5115,66.0,0,120,2.0,94.0
5116,69.0,0,120,2.0,94.0
5117,99.0,120,120,0.0,95.0
5118,68.0,0,480,2.0,95.0
5119,61.0,0,480,3.0,95.0
5120,64.0,0,480,2.0,95.0
5121,88.0,0,480,1.0,96.0
5122,92.0,120,480,1.0,96.0
5123,100.0,0,480,0.0,96.0
5124,57.0,0,120,3.0,49.0
5125,78.0,0,120,0.0,47.0
5126,69.0,720,120,2.0,49.0
5127,73.0,0,120,1.0,47.0
5128,66.0,0,120,1.0,47.0
5129,78.0,0,240,0.0,50.0
5130,73.0,0,240,1.0,50.0
5131,66.0,0,240,1.0,50.0
5132,57.0,0,480,3.0,48.0
5133,69.0,240,480,2.0,48.0
5134,66.0,0,120,2.0,46.0
5135,54.0,0,120,3.0,46.0
5136,69.0,720,120,1.0,44.0
5137,81.0,0,120,0.0,44.0
5138,66.0,240,120,2.0,49.0
5139,81.0,0,120,0.0,47.0
5140,69.0,0,120,1.0,47.0
5141,54.0,0,120,3.0,49.0
5142,75.0,0,120,0.0,45.0
5143,59.0,240,120,3.0,47.0
5144,66.0,0,120,2.0,47.0
5145,63.0,0,120,1.0,45.0
5146,69.0,0,120,1.0,45.0
5147,69.0,240,120,1.0,43.0
5148,59.0,0,120,3.0,45.0
5149,75.0,0,120,0.0,43.0
5150,66.0,0,120,2.0,45.0
5151,63.0,0,120,1.0,43.0
5152,52.0,240,120,3.0,42.0
5153,64.0,0,120,2.0,42.0
5154,76.0,0,120,0.0,41.0
5155,64.0,0,120,1.0,41.0
5156,68.0,0,120,1.0,41.0
5157,59.0,0,480,2.0,40.0
5158,66.0,0,480,1.0,39.0
5159,47.0,0,480,3.0,40.0
5160,75.0,0,480,1.0,39.0
5161,78.0,240,480,0.0,39.0
5162,59.0,0,240,1.0,38.0
5163,69.0,0,240,0.0,38.0
5164,66.0,960,240,1.0,38.0
5165,51.0,0,240,3.0,39.0
5166,68.0,0,120,0.0,36.0
5167,52.0,720,120,3.0,36.0
5168,59.0,0,120,1.0,36.0
5169,64.0,0,120,1.0,36.0
5170,59.0,0,240,1.0,35.0
5171,68.0,0,240,0.0,35.0
5172,64.0,240,240,1.0,35.0
5173,52.0,0,240,3.0,35.0
5174,66.0,0,120,0.0,33.0
5175,64.0,720,120,1.0,33.0
5176,45.0,0,120,3.0,33.0
5177,61.0,0,120,1.0,33.0
5178,66.0,0,120,0.0,32.0
5179,45.0,240,120,3.0,32.0
5180,64.0,0,120,1.0,32.0
5181,61.0,0,120,1.0,32.0
5182,47.0,0,120,3.0,31.0
5183,71.0,0,120,0.0,31.0
5184,63.0,240,120,1.0,31.0
5185,63.0,240,120,1.0,31.0
5186,47.0,0,120,3.0,31.0
5187,71.0,0,120,0.0,31.0
5188,40.0,0,120,3.0,30.0
5189,64.0,240,120,0.0,30.0
5190,64.0,0,480,0.0,29.0
5191,40.0,240,480,3.0,29.0
5192,71.0,720,240,0.0,32.0
5193,52.0,0,960,2.0,29.0
5194,40.0,0,960,3.0,32.0
5195,64.0,0,960,1.0,32.0
5196,59.0,240,960,1.0,32.0
5197,68.0,0,960,0.0,32.0
5198,52.0,960,156,2.0,32.0
5199,57.0,240,156,2.0,33.0
5200,57.0,240,156,2.0,33.0
5201,52.0,240,156,2.0,34.0
5202,49.0,0,960,3.0,34.0
5203,64.0,0,0,1.0,37.0
5204,69.0,0,960,0.0,34.0
5205,59.0,0,960,1.0,37.0
5206,52.0,0,960,2.0,35.0
5207,44.0,240,960,3.0,37.0
5208,64.0,960,0,1.0,39.0
5209,71.0,0,960,0.0,36.0
5210,52.0,0,156,2.0,38.0
5211,57.0,240,156,2.0,39.0
5212,57.0,240,156,2.0,39.0
5213,45.0,240,0,3.0,41.0
5214,73.0,0,960,0.0,38.0
5215,61.0,0,960,1.0,39.0
5216,69.0,0,960,1.0,41.0
5217,74.0,240,960,0.0,40.0
5218,45.0,0,960,2.0,41.0
5219,42.0,0,960,3.0,42.0
5220,62.0,0,960,1.0,41.0
5221,45.0,0,156,2.0,44.0
5222,52.0,240,156,2.0,45.0
5223,52.0,240,156,2.0,45.0
5224,45.0,240,156,2.0,45.0
5225,69.0,0,960,1.0,43.0
5226,76.0,960,960,0.0,42.0
5227,37.0,0,960,3.0,44.0
5228,64.0,0,960,1.0,43.0
5229,66.0,240,240,1.0,45.0
5230,69.0,0,240,1.0,45.0
5231,50.0,0,240,2.0,45.0
5232,78.0,0,240,0.0,45.0
5233,38.0,0,240,3.0,45.0
5234,40.0,0,120,3.0,43.0
5235,73.0,240,120,1.0,41.0
5236,52.0,0,120,2.0,43.0
5237,76.0,0,120,0.0,41.0
5238,54.0,0,120,2.0,42.0
5239,74.0,0,120,0.0,40.0
5240,71.0,0,120,1.0,40.0
5241,42.0,240,120,3.0,42.0
5242,51.0,240,120,2.0,40.0
5243,39.0,0,120,3.0,40.0
5244,69.0,0,120,1.0,38.0
5245,73.0,0,120,0.0,38.0
5246,52.0,0,960,2.0,39.0
5247,69.0,0,960,1.0,36.0
5248,40.0,240,960,3.0,39.0
5249,73.0,0,960,0.0,36.0
5250,52.0,960,480,3.0,33.0
5251,72.0,40,285,0.0,28.0
5252,64.0,40,370,0.0,29.0
5253,60.0,40,410,3.0,32.0
5254,57.0,40,450,3.0,33.0
5255,69.0,40,330,0.0,29.0
5256,40.0,0,120,3.0,90.0
5257,64.0,0,120,1.0,92.0
5258,52.0,520,120,2.0,93.0
5259,76.0,0,120,0.0,93.0
5260,60.0,0,240,1.0,96.0
5261,48.0,0,240,2.0,98.0
5262,72.0,0,240,0.0,97.0
5263,36.0,240,240,3.0,92.0
5264,40.0,1680,120,3.0,51.0
5265,36.0,240,600,3.0,55.0
5266,38.0,600,120,3.0,47.0
5267,40.0,120,120,3.0,46.0
5268,41.0,120,120,3.0,44.0
5269,35.0,120,480,3.0,43.0
5270,38.0,720,120,3.0,50.0
5271,35.0,240,600,3.0,56.0
5272,36.0,600,120,3.0,47.0
5273,38.0,120,120,3.0,45.0
5274,40.0,120,120,3.0,43.0
5275,33.0,120,120,3.0,41.0
5276,45.0,240,120,3.0,53.0
5277,45.0,240,120,3.0,51.0
5278,43.0,240,120,3.0,50.0
5279,45.0,240,120,3.0,48.0
5280,43.0,240,120,3.0,46.0
5281,41.0,240,60,3.0,44.0
5282,43.0,60,60,3.0,44.0
5283,41.0,60,60,3.0,43.0
5284,43.0,60,60,3.0,43.0
5285,41.0,60,40,3.0,42.0
5286,43.0,40,40,3.0,42.0
5287,41.0,40,40,3.0,42.0
5288,40.0,40,60,3.0,41.0
5289,41.0,60,120,3.0,41.0
5290,43.0,300,120,3.0,51.0
5291,43.0,240,120,3.0,50.0
5292,41.0,240,120,3.0,49.0
5293,43.0,240,120,3.0,48.0
5294,41.0,240,120,3.0,47.0
5295,40.0,240,240,3.0,46.0
5296,38.0,240,120,3.0,45.0
5297,55.0,0,140,2.0,60.0
5298,36.0,120,120,3.0,44.0
5299,48.0,120,120,3.0,44.0
5300,47.0,120,120,3.0,43.0
5301,45.0,120,120,3.0,43.0
5302,43.0,120,120,3.0,42.0
5303,52.0,0,600,2.0,68.0
5304,53.0,120,120,2.0,61.0
5305,55.0,120,120,2.0,60.0
5306,57.0,120,120,2.0,59.0
5307,48.0,120,600,3.0,45.0
5308,47.0,120,120,3.0,40.0
5309,45.0,120,120,3.0,39.0
5310,43.0,120,120,3.0,38.0
5311,50.0,120,480,2.0,58.0
5312,53.0,240,120,2.0,61.0
5313,46.0,120,600,3.0,43.0
5314,45.0,120,120,3.0,39.0
5315,43.0,120,120,3.0,39.0
5316,41.0,120,120,3.0,38.0
5317,50.0,240,600,2.0,66.0
5318,52.0,120,120,2.0,56.0
5319,53.0,120,120,2.0,55.0
5320,55.0,120,120,2.0,54.0
5321,46.0,120,600,3.0,45.0
5322,48.0,120,120,2.0,52.0
5323,45.0,120,120,3.0,43.0
5324,58.0,120,120,2.0,63.0
5325,43.0,0,120,3.0,43.0
5326,41.0,120,120,3.0,43.0
5327,40.0,0,120,3.0,42.0
5328,58.0,120,120,2.0,61.0
5329,41.0,0,120,3.0,42.0
5330,57.0,240,120,2.0,59.0
5331,38.0,0,120,3.0,43.0
5332,58.0,240,120,2.0,58.0
5333,57.0,0,120,2.0,56.0
5334,40.0,240,120,3.0,44.0
5335,55.0,0,60,2.0,54.0
5336,40.0,240,120,3.0,44.0
5337,57.0,60,60,2.0,54.0
5338,55.0,60,60,2.0,53.0
5339,57.0,60,60,2.0,53.0
5340,55.0,0,40,2.0,53.0
5341,57.0,40,40,2.0,52.0
5342,55.0,40,40,2.0,52.0
5343,38.0,60,120,3.0,44.0
5344,53.0,40,60,2.0,52.0
5345,55.0,60,60,2.0,51.0
5346,40.0,60,120,3.0,45.0
5347,38.0,240,120,3.0,45.0
5348,57.0,0,120,2.0,59.0
5349,37.0,240,60,3.0,44.0
5350,38.0,60,60,3.0,43.0
5351,57.0,0,120,2.0,57.0
5352,37.0,60,60,3.0,43.0
5353,38.0,60,60,3.0,42.0
5354,37.0,0,40,3.0,42.0
5355,38.0,40,40,3.0,41.0
5356,37.0,40,40,3.0,41.0
5357,55.0,60,120,2.0,56.0
5358,35.0,40,40,3.0,40.0
5359,37.0,40,60,3.0,40.0
5360,57.0,80,120,2.0,54.0
5361,38.0,0,120,3.0,47.0
5362,55.0,240,120,2.0,53.0
5363,50.0,240,240,3.0,47.0
5364,53.0,0,240,2.0,51.0
5365,55.0,240,120,2.0,49.0
5366,52.0,0,120,3.0,47.0
5367,69.0,0,120,1.0,59.0
5368,53.0,0,120,3.0,47.0
5369,57.0,120,120,2.0,49.0
5370,58.0,120,120,2.0,48.0
5371,55.0,0,120,3.0,46.0
5372,57.0,120,120,2.0,47.0
5373,53.0,0,120,3.0,46.0
5374,55.0,120,120,2.0,46.0
5375,52.0,0,120,3.0,47.0
5376,53.0,120,120,2.0,47.0
5377,50.0,0,120,3.0,47.0
5378,65.0,0,600,1.0,68.0
5379,67.0,120,120,1.0,57.0
5380,69.0,120,120,1.0,56.0
5381,70.0,120,120,1.0,55.0
5382,58.0,0,600,2.0,53.0
5383,55.0,120,600,3.0,51.0
5384,57.0,120,120,2.0,50.0
5385,53.0,0,120,3.0,50.0
5386,55.0,120,120,2.0,49.0
5387,52.0,0,120,3.0,49.0
5388,53.0,0,120,2.0,49.0
5389,50.0,120,120,3.0,49.0
5390,64.0,120,480,1.0,53.0
5391,55.0,120,240,2.0,48.0
5392,52.0,0,240,3.0,48.0
5393,67.0,240,120,1.0,61.0
5394,53.0,0,120,3.0,52.0
5395,57.0,240,120,2.0,52.0
5396,55.0,120,120,2.0,52.0
5397,52.0,0,120,3.0,52.0
5398,53.0,0,120,2.0,53.0
5399,50.0,120,120,3.0,53.0
5400,49.0,120,120,3.0,53.0
5401,52.0,0,120,2.0,53.0
5402,64.0,0,600,1.0,69.0
5403,65.0,120,120,1.0,57.0
5404,67.0,120,120,1.0,56.0
5405,69.0,120,120,1.0,55.0
5406,57.0,0,600,2.0,59.0
5407,62.0,120,120,1.0,54.0
5408,53.0,120,600,3.0,57.0
5409,55.0,0,120,2.0,54.0
5410,52.0,120,120,3.0,55.0
5411,50.0,120,120,3.0,55.0
5412,74.0,0,120,1.0,65.0
5413,53.0,0,120,2.0,53.0
5414,52.0,120,120,2.0,52.0
5415,49.0,0,120,3.0,54.0
5416,50.0,120,120,3.0,54.0
5417,53.0,0,120,2.0,51.0
5418,74.0,0,120,1.0,63.0
5419,53.0,0,120,3.0,57.0
5420,72.0,0,120,1.0,61.0
5421,62.0,240,120,2.0,57.0
5422,74.0,240,120,1.0,60.0
5423,64.0,240,120,2.0,59.0
5424,72.0,0,120,1.0,58.0
5425,55.0,0,120,3.0,59.0
5426,71.0,0,60,1.0,56.0
5427,72.0,60,60,1.0,53.0
5428,64.0,240,120,2.0,60.0
5429,55.0,0,120,3.0,60.0
5430,71.0,60,60,1.0,52.0
5431,72.0,60,60,1.0,51.0
5432,71.0,0,40,1.0,50.0
5433,72.0,40,40,1.0,49.0
5434,71.0,40,40,1.0,49.0
5435,53.0,0,120,3.0,60.0
5436,62.0,60,120,2.0,60.0
5437,69.0,40,60,1.0,48.0
5438,71.0,60,60,1.0,47.0
5439,64.0,60,120,2.0,61.0
5440,55.0,0,120,3.0,61.0
5441,72.0,0,120,1.0,63.0
5442,62.0,240,120,2.0,62.0
5443,53.0,0,120,3.0,62.0
5444,72.0,0,120,1.0,61.0
5445,71.0,240,120,1.0,59.0
5446,60.0,240,480,2.0,63.0
5447,52.0,0,480,3.0,63.0
5448,72.0,240,120,1.0,57.0
5449,53.0,0,120,3.0,65.0
5450,62.0,0,120,2.0,65.0
5451,71.0,240,120,1.0,56.0
5452,69.0,0,60,1.0,57.0
5453,53.0,240,120,3.0,66.0
5454,62.0,0,120,2.0,66.0
5455,71.0,60,60,1.0,56.0
5456,69.0,60,60,1.0,55.0
5457,71.0,60,60,1.0,54.0
5458,69.0,60,40,1.0,52.0
5459,71.0,40,40,1.0,52.0
5460,69.0,40,40,1.0,51.0
5461,60.0,0,120,2.0,66.0
5462,52.0,0,120,3.0,66.0
5463,68.0,40,60,1.0,50.0
5464,69.0,60,60,1.0,49.0
5465,62.0,0,120,2.0,67.0
5466,50.0,60,120,3.0,67.0
5467,71.0,0,120,1.0,48.0
5468,53.0,0,120,3.0,68.0
5469,69.0,0,120,1.0,63.0
5470,60.0,240,120,2.0,68.0
5471,68.0,0,60,1.0,61.0
5472,60.0,0,120,2.0,69.0
5473,69.0,60,60,1.0,61.0
5474,68.0,60,60,1.0,60.0
5475,69.0,60,60,1.0,60.0
5476,68.0,60,40,1.0,59.0
5477,69.0,40,40,1.0,59.0
5478,68.0,40,40,1.0,59.0
5479,52.0,240,360,3.0,69.0
5480,76.0,0,120,0.0,71.0
5481,59.0,0,120,2.0,69.0
5482,66.0,40,60,1.0,58.0
5483,68.0,60,60,1.0,58.0
5484,60.0,0,120,2.0,70.0
5485,69.0,60,120,1.0,57.0
5486,68.0,120,120,1.0,56.0
5487,59.0,0,120,2.0,71.0
5488,66.0,120,120,1.0,55.0
5489,57.0,0,120,2.0,71.0
5490,45.0,0,480,3.0,70.0
5491,56.0,120,120,2.0,71.0
5492,64.0,0,120,1.0,54.0
5493,72.0,0,600,0.0,77.0
5494,74.0,120,120,0.0,73.0
5495,76.0,120,120,0.0,72.0
5496,77.0,120,120,0.0,71.0
5497,69.0,120,600,1.0,65.0
5498,60.0,0,600,2.0,77.0
5499,68.0,120,120,1.0,62.0
5500,59.0,0,120,2.0,72.0
5501,66.0,120,120,1.0,61.0
5502,57.0,0,120,2.0,71.0
5503,56.0,120,120,2.0,70.0
5504,64.0,0,120,1.0,60.0
5505,71.0,120,480,0.0,70.0
5506,74.0,240,120,0.0,73.0
5507,59.0,0,600,2.0,77.0
5508,68.0,0,0,1.0,63.0
5509,57.0,120,120,2.0,77.0
5510,66.0,0,120,1.0,62.0
5511,56.0,120,120,2.0,76.0
5512,52.0,120,0,3.0,78.0
5513,54.0,120,120,2.0,76.0
5514,64.0,0,120,1.0,61.0
5515,68.0,0,120,1.0,61.0
5516,71.0,240,600,0.0,79.0
5517,59.0,0,120,2.0,76.0
5518,72.0,120,120,0.0,78.0
5519,64.0,0,120,1.0,59.0
5520,74.0,120,120,0.0,77.0
5521,76.0,120,120,0.0,77.0
5522,56.0,0,240,2.0,76.0
5523,50.0,0,240,3.0,78.0
5524,69.0,120,120,0.0,76.0
5525,64.0,0,360,1.0,69.0
5526,57.0,0,360,2.0,79.0
5527,81.0,240,120,0.0,83.0
5528,48.0,0,360,3.0,79.0
5529,81.0,0,120,0.0,81.0
5530,49.0,0,240,3.0,79.0
5531,79.0,240,120,0.0,80.0
5532,57.0,0,240,3.0,79.0
5533,81.0,0,120,0.0,78.0
5534,69.0,240,600,1.0,70.0
5535,64.0,0,600,2.0,79.0
5536,79.0,240,120,0.0,76.0
5537,71.0,0,120,1.0,79.0
5538,62.0,0,120,2.0,79.0
5539,77.0,0,60,0.0,75.0
5540,79.0,60,60,0.0,74.0
5541,71.0,240,120,1.0,79.0
5542,62.0,0,120,2.0,79.0
5543,77.0,60,60,0.0,73.0
5544,79.0,60,60,0.0,72.0
5545,77.0,60,40,0.0,71.0
5546,79.0,40,40,0.0,70.0
5547,77.0,40,40,0.0,69.0
5548,69.0,0,120,1.0,76.0
5549,60.0,0,120,2.0,78.0
5550,76.0,40,60,0.0,69.0
5551,50.0,240,960,3.0,79.0
5552,77.0,60,60,0.0,68.0
5553,71.0,60,120,1.0,78.0
5554,62.0,0,120,2.0,78.0
5555,69.0,240,120,1.0,78.0
5556,60.0,0,120,2.0,78.0
5557,79.0,0,120,0.0,78.0
5558,79.0,240,120,0.0,78.0
5559,67.0,0,360,1.0,78.0
5560,77.0,240,120,0.0,78.0
5561,59.0,0,480,2.0,78.0
5562,55.0,0,960,3.0,78.0
5563,79.0,240,120,0.0,78.0
5564,60.0,240,120,2.0,77.0
5565,69.0,0,120,1.0,78.0
5566,77.0,0,120,0.0,78.0
5567,69.0,0,120,1.0,78.0
5568,60.0,240,120,2.0,77.0
5569,76.0,0,240,0.0,78.0
5570,48.0,0,720,3.0,77.0
5571,74.0,240,120,0.0,78.0
5572,58.0,0,120,3.0,77.0
5573,64.0,0,120,2.0,77.0
5574,67.0,0,120,1.0,78.0
5575,72.0,120,120,0.0,77.0
5576,60.0,0,120,2.0,77.0
5577,79.0,0,120,0.0,77.0
5578,69.0,120,120,1.0,77.0
5579,57.0,0,120,3.0,77.0
5580,57.0,240,240,3.0,76.0
5581,72.0,0,240,1.0,77.0
5582,77.0,0,480,0.0,77.0
5583,74.0,0,240,1.0,77.0
5584,59.0,240,240,3.0,76.0
5585,60.0,0,240,3.0,76.0
5586,67.0,0,240,1.0,77.0
5587,76.0,240,360,0.0,77.0
5588,53.0,240,240,3.0,76.0
5589,69.0,0,480,1.0,77.0
5590,68.0,240,240,1.0,77.0
5591,74.0,0,480,0.0,77.0
5592,65.0,240,480,3.0,76.0
5593,67.0,0,120,1.0,76.0
5594,64.0,0,120,3.0,75.0
5595,72.0,240,120,0.0,76.0
5596,72.0,0,120,0.0,76.0
5597,71.0,120,120,0.0,76.0
5598,43.0,120,120,3.0,85.0
5599,69.0,0,120,0.0,76.0
5600,71.0,120,120,0.0,76.0
5601,65.0,0,480,1.0,76.0
5602,62.0,240,480,2.0,76.0
5603,72.0,0,120,0.0,76.0
5604,71.0,120,120,0.0,76.0
5605,69.0,120,120,0.0,76.0
5606,71.0,120,120,0.0,76.0
5607,60.0,0,480,2.0,76.0
5608,67.0,120,600,1.0,81.0
5609,40.0,0,615,3.0,90.0
5610,41.0,120,120,3.0,82.0
5611,64.0,0,120,1.0,75.0
5612,43.0,120,120,3.0,81.0
5613,62.0,0,120,1.0,73.0
5614,60.0,120,120,1.0,72.0
5615,45.0,0,120,3.0,79.0
5616,72.0,120,600,0.0,81.0
5617,71.0,120,120,0.0,76.0
5618,69.0,120,120,0.0,75.0
5619,67.0,120,120,0.0,74.0
5620,38.0,120,480,3.0,77.0
5621,65.0,0,600,1.0,81.0
5622,62.0,120,120,1.0,74.0
5623,60.0,120,120,1.0,72.0
5624,43.0,0,120,3.0,85.0
5625,58.0,120,120,1.0,71.0
5626,70.0,120,600,0.0,81.0
5627,69.0,120,120,0.0,76.0
5628,67.0,120,120,0.0,75.0
5629,65.0,120,120,0.0,74.0
5630,65.0,120,600,1.0,77.0
5631,38.0,0,600,3.0,91.0
5632,40.0,120,120,3.0,81.0
5633,64.0,0,120,1.0,74.0
5634,62.0,120,120,1.0,74.0
5635,41.0,0,120,3.0,80.0
5636,43.0,0,120,3.0,79.0
5637,60.0,120,120,1.0,73.0
5638,70.0,120,600,0.0,81.0
5639,36.0,0,120,3.0,77.0
5640,64.0,120,120,1.0,73.0
5641,69.0,120,120,0.0,75.0
5642,46.0,0,120,3.0,83.0
5643,67.0,120,120,0.0,73.0
5644,62.0,0,120,1.0,71.0
5645,65.0,120,120,0.0,72.0
5646,46.0,0,120,3.0,81.0
5647,60.0,0,120,1.0,70.0
5648,64.0,120,120,0.0,70.0
5649,65.0,240,120,1.0,69.0
5650,72.0,0,120,0.0,77.0
5651,45.0,0,120,3.0,80.0
5652,43.0,0,60,3.0,75.0
5653,72.0,240,120,0.0,77.0
5654,45.0,60,60,3.0,75.0
5655,62.0,0,120,1.0,68.0
5656,43.0,60,60,3.0,74.0
5657,45.0,60,60,3.0,73.0
5658,43.0,60,40,3.0,72.0
5659,45.0,40,40,3.0,72.0
5660,64.0,0,120,1.0,67.0
5661,70.0,0,120,0.0,76.0
5662,43.0,40,40,3.0,71.0
5663,41.0,40,60,3.0,71.0
5664,43.0,60,60,3.0,70.0
5665,61.0,0,60,1.0,66.0
5666,70.0,60,120,0.0,75.0
5667,62.0,60,60,1.0,65.0
5668,61.0,60,60,1.0,65.0
5669,62.0,60,60,1.0,65.0
5670,61.0,60,40,1.0,64.0
5671,62.0,40,40,1.0,64.0
5672,45.0,0,360,3.0,75.0
5673,69.0,0,120,0.0,75.0
5674,61.0,40,40,1.0,64.0
5675,59.0,0,60,1.0,64.0
5676,43.0,40,120,3.0,72.0
5677,61.0,60,60,1.0,68.0
5678,62.0,0,240,1.0,73.0
5679,41.0,60,240,3.0,72.0
5680,64.0,240,120,1.0,73.0
5681,40.0,0,120,3.0,70.0
5682,65.0,120,120,1.0,73.0
5683,38.0,0,120,3.0,69.0
5684,69.0,0,600,0.0,74.0
5685,67.0,240,120,0.0,72.0
5686,67.0,240,120,0.0,72.0
5687,62.0,120,720,1.0,80.0
5688,46.0,0,720,3.0,79.0
5689,60.0,240,120,1.0,73.0
5690,65.0,0,120,0.0,71.0
5691,45.0,0,240,3.0,70.0
5692,65.0,0,120,0.0,70.0
5693,64.0,240,120,0.0,70.0
5694,58.0,0,480,1.0,73.0
5695,43.0,240,480,3.0,69.0
5696,62.0,240,0,0.0,69.0
5697,60.0,120,120,0.0,68.0
5698,41.0,0,480,3.0,69.0
5699,57.0,0,480,1.0,72.0
5700,40.0,120,120,3.0,69.0
5701,60.0,240,120,2.0,69.0
5702,69.0,0,120,1.0,72.0
5703,52.0,0,120,3.0,69.0
5704,69.0,0,120,1.0,72.0
5705,60.0,240,120,2.0,68.0
5706,67.0,0,120,1.0,72.0
5707,58.0,240,120,2.0,68.0
5708,51.0,0,480,3.0,68.0
5709,72.0,0,960,0.0,68.0
5710,67.0,240,120,1.0,72.0
5711,60.0,0,120,2.0,68.0
5712,58.0,240,120,2.0,68.0
5713,65.0,0,120,1.0,72.0
5714,50.0,0,480,3.0,68.0
5715,57.0,0,240,2.0,68.0
5716,65.0,0,240,1.0,71.0
5717,55.0,240,120,2.0,67.0
5718,64.0,0,120,1.0,71.0
5719,62.0,0,120,1.0,71.0
5720,48.0,240,480,3.0,68.0
5721,74.0,0,960,0.0,72.0
5722,54.0,120,120,2.0,67.0
5723,74.0,0,120,0.0,71.0
5724,79.0,240,120,0.0,75.0
5725,67.0,120,360,1.0,71.0
5726,46.0,0,360,3.0,67.0
5727,58.0,0,360,2.0,67.0
5728,45.0,0,120,3.0,67.0
5729,72.0,0,120,1.0,71.0
5730,79.0,240,120,0.0,74.0
5731,46.0,0,120,3.0,67.0
5732,74.0,0,120,1.0,71.0
5733,77.0,240,120,0.0,73.0
5734,77.0,240,120,0.0,72.0
5735,69.0,0,120,1.0,71.0
5736,67.0,240,120,1.0,71.0
5737,58.0,0,120,2.0,66.0
5738,76.0,0,126,0.0,71.0
5739,48.0,0,480,3.0,66.0
5740,67.0,0,120,1.0,70.0
5741,58.0,0,240,2.0,66.0
5742,76.0,240,240,0.0,70.0
5743,65.0,0,120,1.0,70.0
5744,74.0,0,120,0.0,70.0
5745,57.0,240,120,2.0,66.0
5746,72.0,0,120,0.0,69.0
5747,64.0,120,120,1.0,70.0
5748,55.0,0,120,2.0,66.0
5749,46.0,0,480,3.0,66.0
5750,57.0,0,120,2.0,66.0
5751,77.0,0,120,0.0,69.0
5752,72.0,120,120,1.0,70.0
5753,45.0,0,120,3.0,66.0
5754,40.0,240,120,3.0,65.0
5755,72.0,0,120,0.0,68.0
5756,60.0,0,120,2.0,65.0
5757,67.0,0,120,1.0,70.0
5758,70.0,120,120,0.0,67.0
5759,41.0,120,120,3.0,65.0
5760,65.0,0,120,1.0,70.0
5761,60.0,0,120,2.0,65.0
5762,69.0,0,120,0.0,67.0
5763,46.0,0,120,3.0,65.0
5764,67.0,0,120,0.0,66.0
5765,62.0,240,120,1.0,70.0
5766,57.0,0,120,2.0,65.0
5767,65.0,120,120,0.0,65.0
5768,43.0,0,120,3.0,65.0
5769,64.0,120,120,1.0,69.0
5770,70.0,0,120,0.0,65.0
5771,62.0,120,120,1.0,69.0
5772,61.0,0,120,1.0,69.0
5773,46.0,0,120,3.0,65.0
5774,70.0,120,120,0.0,64.0
5775,62.0,120,120,1.0,69.0
5776,64.0,0,120,0.0,63.0
5777,60.0,120,120,1.0,68.0
5778,45.0,0,120,3.0,64.0
5779,41.0,0,120,3.0,64.0
5780,50.0,0,120,1.0,64.0
5781,69.0,240,240,0.0,62.0
5782,68.0,120,120,0.0,61.0
5783,66.0,120,120,0.0,60.0
5784,64.0,120,120,0.0,60.0
5785,47.0,240,600,1.0,69.0
5786,48.0,120,120,1.0,63.0
5787,68.0,120,240,0.0,59.0
5788,50.0,120,120,1.0,62.0
5789,40.0,0,960,3.0,69.0
5790,52.0,120,120,1.0,61.0
5791,57.0,0,120,0.0,58.0
5792,55.0,120,120,0.0,57.0
5793,54.0,120,120,0.0,57.0
5794,52.0,120,120,0.0,56.0
5795,40.0,120,600,2.0,63.0
5796,42.0,120,120,2.0,59.0
5797,55.0,120,240,0.0,56.0
5798,43.0,120,120,2.0,58.0
5799,49.0,0,960,1.0,60.0
5800,45.0,120,0,2.0,59.0
5801,67.0,0,120,0.0,54.0
5802,66.0,120,120,0.0,54.0
5803,64.0,120,120,0.0,53.0
5804,62.0,120,120,0.0,53.0
5805,47.0,120,120,2.0,55.0
5806,66.0,120,240,0.0,52.0
5807,48.0,120,120,2.0,54.0
5808,38.0,0,960,3.0,57.0
5809,50.0,120,120,2.0,53.0
5810,55.0,120,120,0.0,49.0
5811,53.0,120,120,0.0,49.0
5812,52.0,120,120,0.0,48.0
5813,47.0,0,480,2.0,52.0
5814,50.0,120,120,0.0,47.0
5815,38.0,0,600,3.0,50.0
5816,53.0,120,120,0.0,47.0
5817,40.0,120,120,3.0,46.0
5818,59.0,120,120,2.0,46.0
5819,67.0,0,120,0.0,56.0
5820,41.0,0,120,3.0,46.0
5821,43.0,120,120,3.0,44.0
5822,60.0,0,120,2.0,44.0
5823,36.0,0,240,3.0,44.0
5824,59.0,120,120,2.0,44.0
5825,57.0,120,120,2.0,44.0
5826,55.0,120,120,2.0,44.0
5827,64.0,120,600,0.0,65.0
5828,48.0,0,120,3.0,44.0
5829,65.0,120,120,0.0,60.0
5830,47.0,0,120,3.0,44.0
5831,67.0,120,120,0.0,59.0
5832,45.0,0,120,3.0,45.0
5833,43.0,0,120,3.0,45.0
5834,69.0,120,120,0.0,58.0
5835,60.0,120,600,2.0,51.0
5836,53.0,120,240,3.0,45.0
5837,59.0,120,120,2.0,47.0
5838,57.0,120,120,2.0,46.0
5839,62.0,0,480,0.0,56.0
5840,55.0,120,120,2.0,46.0
5841,65.0,240,120,0.0,56.0
5842,59.0,120,0,2.0,48.0
5843,57.0,120,120,2.0,46.0
5844,55.0,120,120,2.0,47.0
5845,62.0,240,600,0.0,62.0
5846,55.0,0,120,3.0,47.0
5847,53.0,120,120,3.0,47.0
5848,64.0,0,120,0.0,54.0
5849,52.0,120,120,3.0,47.0
5850,65.0,0,120,0.0,53.0
5851,67.0,120,120,0.0,52.0
5852,59.0,120,480,2.0,51.0
5853,50.0,0,120,3.0,47.0
5854,60.0,0,120,2.0,48.0
5855,64.0,120,120,0.0,51.0
5856,59.0,120,120,2.0,48.0
5857,48.0,0,240,3.0,47.0
5858,57.0,120,120,2.0,47.0
5859,76.0,0,120,0.0,59.0
5860,55.0,120,120,2.0,46.0
5861,76.0,120,120,0.0,57.0
5862,60.0,0,120,2.0,46.0
5863,74.0,240,120,0.0,55.0
5864,59.0,0,120,2.0,48.0
5865,76.0,240,120,0.0,53.0
5866,60.0,0,120,2.0,49.0
5867,59.0,0,120,2.0,49.0
5868,74.0,0,120,0.0,51.0
5869,50.0,240,120,3.0,49.0
5870,72.0,240,60,0.0,48.0
5871,57.0,0,60,2.0,49.0
5872,59.0,0,60,2.0,49.0
5873,74.0,60,60,0.0,47.0
5874,50.0,0,120,3.0,49.0
5875,57.0,60,60,2.0,49.0
5876,72.0,0,60,0.0,47.0
5877,74.0,0,60,0.0,46.0
5878,59.0,60,60,2.0,49.0
5879,57.0,0,40,2.0,50.0
5880,72.0,0,40,0.0,45.0
5881,74.0,40,40,0.0,45.0
5882,59.0,0,40,2.0,50.0
5883,57.0,40,40,2.0,50.0
5884,72.0,0,40,0.0,44.0
5885,48.0,60,120,3.0,50.0
5886,55.0,40,60,2.0,50.0
5887,71.0,0,60,0.0,44.0
5888,57.0,60,60,2.0,50.0
5889,72.0,0,60,0.0,43.0
5890,50.0,60,120,3.0,50.0
5891,48.0,0,120,3.0,50.0
5892,74.0,240,120,0.0,59.0
5893,59.0,0,120,2.0,50.0
5894,74.0,0,120,0.0,58.0
5895,59.0,240,120,2.0,50.0
5896,57.0,240,120,2.0,51.0
5897,72.0,0,120,0.0,56.0
5898,47.0,0,480,3.0,50.0
5899,74.0,0,120,0.0,55.0
5900,59.0,240,120,2.0,51.0
5901,57.0,240,120,2.0,51.0
5902,72.0,0,120,0.0,54.0
5903,48.0,0,120,3.0,51.0
5904,71.0,240,60,0.0,52.0
5905,72.0,60,60,0.0,51.0
5906,48.0,0,120,3.0,52.0
5907,71.0,60,60,0.0,51.0
5908,55.0,0,240,2.0,52.0
5909,72.0,60,60,0.0,50.0
5910,71.0,0,40,0.0,49.0
5911,72.0,40,40,0.0,49.0
5912,57.0,60,120,2.0,52.0
5913,71.0,40,40,0.0,48.0
5914,47.0,0,120,3.0,52.0
5915,69.0,40,60,0.0,48.0
5916,67.0,60,60,0.0,47.0
5917,59.0,0,120,2.0,52.0
5918,52.0,0,120,2.0,52.0
5919,45.0,60,120,3.0,52.0
5920,72.0,0,120,0.0,46.0
5921,43.0,240,120,3.0,53.0
5922,52.0,0,120,2.0,53.0
5923,72.0,0,360,0.0,54.0
5924,42.0,0,240,3.0,53.0
5925,72.0,240,120,0.0,55.0
5926,40.0,0,120,3.0,51.0
5927,50.0,240,480,2.0,53.0
5928,38.0,120,120,3.0,53.0
5929,43.0,120,120,3.0,54.0
5930,72.0,0,120,0.0,56.0
5931,50.0,0,120,2.0,54.0
5932,53.0,0,120,2.0,57.0
5933,71.0,0,120,1.0,59.0
5934,55.0,0,120,3.0,57.0
5935,79.0,240,120,0.0,59.0
5936,72.0,0,120,1.0,61.0
5937,55.0,240,120,3.0,60.0
5938,52.0,0,240,2.0,60.0
5939,79.0,0,240,0.0,61.0
5940,50.0,0,120,2.0,62.0
5941,67.0,0,120,1.0,64.0
5942,77.0,0,120,0.0,64.0
5943,60.0,240,120,2.0,62.0
5944,76.0,120,120,0.0,65.0
5945,48.0,0,120,3.0,64.0
5946,81.0,120,120,0.0,66.0
5947,53.0,0,240,2.0,66.0
5948,41.0,0,240,3.0,66.0
5949,72.0,240,120,0.0,66.0
5950,69.0,0,600,1.0,66.0
5951,29.0,240,240,3.0,66.0
5952,71.0,120,120,0.0,66.0
5953,72.0,120,120,0.0,66.0
5954,74.0,120,120,0.0,66.0
5955,31.0,0,240,3.0,66.0
5956,62.0,240,120,1.0,66.0
5957,71.0,120,480,0.0,66.0
5958,59.0,240,120,1.0,66.0
5959,43.0,0,240,3.0,66.0
5960,60.0,120,120,1.0,66.0
5961,62.0,120,120,1.0,66.0
5962,64.0,120,120,1.0,66.0
5963,45.0,0,240,3.0,66.0
5964,76.0,240,120,0.0,67.0
5965,62.0,120,480,1.0,66.0
5966,72.0,0,120,0.0,67.0
5967,33.0,240,240,3.0,67.0
5968,74.0,120,120,0.0,67.0
5969,76.0,120,120,0.0,67.0
5970,77.0,120,120,0.0,67.0
5971,35.0,120,240,3.0,67.0
5972,67.0,240,120,1.0,67.0
5973,74.0,0,480,0.0,67.0
5974,62.0,240,120,1.0,67.0
5975,47.0,0,240,3.0,67.0
5976,64.0,120,120,1.0,67.0
5977,65.0,120,120,1.0,67.0
5978,67.0,120,120,1.0,67.0
5979,72.0,0,120,1.0,67.0
5980,36.0,0,120,3.0,67.0
5981,81.0,120,120,0.0,67.0
5982,50.0,240,120,3.0,67.0
5983,48.0,240,120,3.0,68.0
5984,72.0,0,120,0.0,68.0
5985,64.0,0,120,1.0,68.0
5986,50.0,120,120,3.0,68.0
5987,52.0,120,120,3.0,68.0
5988,53.0,120,120,3.0,68.0
5989,55.0,0,120,3.0,68.0
5990,71.0,0,120,0.0,68.0
5991,62.0,120,120,1.0,68.0
5992,41.0,240,120,3.0,68.0
5993,74.0,240,120,1.0,68.0
5994,83.0,0,120,0.0,68.0
5995,38.0,0,120,3.0,68.0
5996,40.0,120,120,3.0,68.0
5997,41.0,120,120,3.0,68.0
5998,43.0,120,120,3.0,68.0
5999,86.0,120,120,0.0,68.0
6000,74.0,0,120,1.0,68.0
6001,41.0,0,120,3.0,68.0
6002,52.0,240,120,3.0,68.0
6003,50.0,0,120,3.0,68.0
6004,65.0,0,120,1.0,68.0
6005,74.0,240,120,0.0,68.0
6006,52.0,120,120,3.0,68.0
6007,53.0,120,120,3.0,69.0
6008,55.0,120,120,3.0,69.0
6009,57.0,0,120,3.0,69.0
6010,64.0,120,120,1.0,69.0
6011,73.0,0,120,0.0,69.0
6012,45.0,240,120,3.0,69.0
6013,40.0,240,120,3.0,69.0
6014,42.0,120,120,3.0,69.0
6015,43.0,120,120,3.0,69.0
6016,76.0,0,480,1.0,69.0
6017,45.0,120,120,3.0,69.0
6018,42.0,0,120,3.0,69.0
6019,57.0,240,120,3.0,69.0
6020,85.0,0,960,0.0,69.0
6021,54.0,240,120,3.0,69.0
6022,56.0,120,120,3.0,69.0
6023,57.0,120,120,3.0,69.0
6024,75.0,120,960,1.0,69.0
6025,59.0,120,120,3.0,70.0
6026,44.0,120,120,3.0,70.0
6027,59.0,240,120,3.0,70.0
6028,84.0,0,960,0.0,69.0
6029,56.0,0,120,3.0,70.0
6030,57.0,120,120,3.0,70.0
6031,59.0,120,120,3.0,70.0
6032,60.0,120,120,3.0,70.0
6033,74.0,0,960,1.0,70.0
6034,45.0,120,120,3.0,70.0
6035,60.0,240,120,3.0,70.0
6036,83.0,240,960,0.0,70.0
6037,57.0,0,120,3.0,70.0
6038,59.0,120,120,3.0,70.0
6039,60.0,120,120,3.0,70.0
6040,72.0,0,960,1.0,70.0
6041,62.0,120,120,3.0,70.0
6042,47.0,120,120,3.0,73.0
6043,81.0,240,720,0.0,70.0
6044,62.0,240,120,3.0,71.0
6045,80.0,0,240,0.0,71.0
6046,74.0,0,480,1.0,73.0
6047,59.0,0,120,2.0,68.0
6048,76.0,0,120,1.0,68.0
6049,48.0,0,120,3.0,68.0
6050,81.0,240,120,0.0,68.0
6051,60.0,120,120,2.0,67.0
6052,69.0,0,120,0.0,62.0
6053,64.0,0,120,1.0,62.0
6054,52.0,0,120,2.0,66.0
6055,48.0,120,120,3.0,66.0
6056,66.0,120,120,1.0,62.0
6057,69.0,120,120,0.0,62.0
6058,47.0,0,120,3.0,62.0
6059,54.0,0,240,2.0,62.0
6060,63.0,0,240,1.0,62.0
6061,49.0,0,120,3.0,62.0
6062,67.0,120,120,0.0,62.0
6063,66.0,0,120,0.0,62.0
6064,51.0,120,120,3.0,62.0
6065,52.0,120,120,3.0,62.0
6066,64.0,0,120,0.0,62.0
6067,51.0,120,120,3.0,62.0
6068,54.0,0,120,1.0,63.0
6069,52.0,120,120,3.0,63.0
6070,55.0,0,120,1.0,63.0
6071,54.0,0,120,3.0,63.0
6072,57.0,120,120,1.0,63.0
6073,55.0,120,120,3.0,63.0
6074,69.0,0,480,0.0,72.0
6075,59.0,0,120,1.0,63.0
6076,57.0,120,120,1.0,63.0
6077,54.0,0,120,3.0,63.0
6078,55.0,120,120,3.0,63.0
6079,59.0,0,120,1.0,63.0
6080,57.0,0,120,3.0,63.0
6081,60.0,120,120,1.0,64.0
6082,59.0,0,120,1.0,64.0
6083,55.0,120,120,3.0,64.0
6084,57.0,120,120,3.0,64.0
6085,60.0,0,120,1.0,64.0
6086,59.0,120,120,3.0,64.0
6087,63.0,0,120,1.0,64.0
6088,64.0,0,120,1.0,64.0
6089,61.0,120,120,3.0,64.0
6090,66.0,120,120,1.0,64.0
6091,63.0,0,120,3.0,64.0
6092,52.0,120,120,3.0,65.0
6093,79.0,0,120,0.0,65.0
6094,54.0,120,120,3.0,64.0
6095,78.0,0,120,0.0,65.0
6096,55.0,120,120,3.0,63.0
6097,76.0,0,120,0.0,65.0
6098,75.0,0,120,0.0,65.0
6099,67.0,0,0,1.0,65.0
6100,64.0,0,480,2.0,64.0
6101,57.0,120,120,3.0,62.0
6102,76.0,120,120,0.0,65.0
6103,74.0,0,120,0.0,65.0
6104,66.0,120,120,1.0,65.0
6105,64.0,0,120,1.0,66.0
6106,72.0,120,120,0.0,66.0
6107,71.0,120,120,0.0,66.0
6108,62.0,0,120,1.0,66.0
6109,52.0,0,480,3.0,72.0
6110,64.0,0,120,1.0,66.0
6111,72.0,120,120,0.0,66.0
6112,71.0,120,120,0.0,66.0
6113,62.0,0,120,1.0,66.0
6114,69.0,120,120,0.0,66.0
6115,60.0,0,120,1.0,66.0
6116,59.0,120,120,1.0,66.0
6117,67.0,0,120,0.0,66.0
6118,60.0,0,120,1.0,66.0
6119,69.0,120,120,0.0,66.0
6120,67.0,0,120,0.0,67.0
6121,59.0,120,120,1.0,67.0
6122,57.0,120,120,1.0,67.0
6123,66.0,0,120,0.0,67.0
6124,64.0,0,120,0.0,67.0
6125,55.0,120,120,1.0,67.0
6126,72.0,0,120,0.0,67.0
6127,50.0,0,120,3.0,67.0
6128,52.0,0,120,3.0,67.0
6129,71.0,120,120,0.0,67.0
6130,69.0,0,120,0.0,67.0
6131,54.0,120,120,3.0,67.0
6132,67.0,120,120,0.0,68.0
6133,55.0,0,120,3.0,67.0
6134,57.0,120,480,1.0,67.0
6135,54.0,0,120,3.0,67.0
6136,57.0,0,120,1.0,68.0
6137,55.0,0,120,3.0,68.0
6138,59.0,120,120,1.0,68.0
6139,60.0,120,120,1.0,68.0
6140,57.0,0,120,3.0,68.0
6141,72.0,120,480,0.0,78.0
6142,62.0,120,120,1.0,68.0
6143,59.0,0,120,3.0,68.0
6144,60.0,120,120,1.0,68.0
6145,57.0,0,120,3.0,68.0
6146,62.0,120,120,1.0,69.0
6147,59.0,0,120,3.0,68.0
6148,60.0,0,120,3.0,68.0
6149,64.0,120,120,1.0,69.0
6150,66.0,120,120,1.0,69.0
6151,62.0,0,120,3.0,69.0
6152,64.0,120,120,1.0,69.0
6153,60.0,0,120,3.0,69.0
6154,62.0,0,120,3.0,69.0
6155,66.0,120,120,1.0,69.0
6156,64.0,0,120,3.0,69.0
6157,67.0,120,120,1.0,69.0
6158,69.0,0,120,1.0,70.0
6159,66.0,120,120,3.0,69.0
6160,55.0,0,120,3.0,69.0
6161,83.0,0,120,0.0,70.0
6162,57.0,0,120,3.0,70.0
6163,81.0,120,120,0.0,70.0
6164,59.0,120,120,3.0,70.0
6165,79.0,0,120,0.0,70.0
6166,67.0,0,480,2.0,69.0
6167,78.0,0,120,0.0,70.0
6168,60.0,120,120,3.0,70.0
6169,79.0,120,120,0.0,70.0
6170,71.0,120,600,1.0,74.0
6171,78.0,0,120,0.0,71.0
6172,69.0,120,120,1.0,72.0
6173,76.0,120,120,0.0,71.0
6174,67.0,0,120,1.0,72.0
6175,66.0,0,120,1.0,71.0
6176,74.0,120,120,0.0,71.0
6177,55.0,0,480,3.0,80.0
6178,76.0,0,120,0.0,71.0
6179,67.0,120,120,1.0,71.0
6180,74.0,120,120,0.0,71.0
6181,66.0,0,120,1.0,71.0
6182,64.0,0,120,1.0,70.0
6183,72.0,120,120,0.0,71.0
6184,62.0,120,120,1.0,70.0
6185,71.0,0,120,0.0,72.0
6186,59.0,120,120,3.0,71.0
6187,74.0,0,120,1.0,72.0
6188,72.0,120,120,1.0,72.0
6189,57.0,0,120,3.0,72.0
6190,55.0,0,120,3.0,72.0
6191,67.0,0,480,1.0,70.0
6192,71.0,120,120,1.0,72.0
6193,79.0,120,600,0.0,77.0
6194,64.0,0,120,1.0,72.0
6195,64.0,0,600,2.0,81.0
6196,66.0,0,120,1.0,73.0
6197,81.0,0,120,0.0,72.0
6198,66.0,120,120,2.0,71.0
6199,83.0,0,120,0.0,71.0
6200,67.0,0,120,2.0,70.0
6201,67.0,120,120,1.0,73.0
6202,69.0,0,120,2.0,69.0
6203,84.0,0,120,0.0,70.0
6204,69.0,120,120,1.0,73.0
6205,72.0,0,600,1.0,72.0
6206,57.0,120,600,3.0,82.0
6207,57.0,0,120,3.0,73.0
6208,72.0,120,120,1.0,73.0
6209,55.0,120,120,3.0,73.0
6210,71.0,0,120,1.0,73.0
6211,62.0,0,480,1.0,73.0
6212,54.0,120,120,3.0,73.0
6213,69.0,0,120,1.0,73.0
6214,78.0,0,600,0.0,77.0
6215,62.0,120,600,2.0,79.0
6216,62.0,0,120,1.0,74.0
6217,64.0,0,120,1.0,74.0
6218,64.0,0,120,2.0,70.0
6219,79.0,120,120,0.0,73.0
6220,66.0,0,120,1.0,74.0
6221,81.0,120,120,0.0,73.0
6222,66.0,0,120,2.0,69.0
6223,83.0,120,120,0.0,72.0
6224,67.0,0,120,2.0,68.0
6225,67.0,0,120,1.0,74.0
6226,71.0,120,0,1.0,74.0
6227,55.0,120,600,3.0,81.0
6228,55.0,0,120,3.0,74.0
6229,54.0,0,120,3.0,74.0
6230,69.0,120,120,1.0,75.0
6231,67.0,0,120,1.0,75.0
6232,52.0,120,120,3.0,74.0
6233,60.0,0,120,1.0,75.0
6234,76.0,120,600,0.0,79.0
6235,60.0,0,600,2.0,78.0
6236,78.0,0,120,0.0,74.0
6237,62.0,120,120,1.0,75.0
6238,63.0,0,120,2.0,72.0
6239,64.0,120,120,2.0,71.0
6240,79.0,0,120,0.0,73.0
6241,64.0,0,120,1.0,75.0
6242,66.0,0,120,1.0,75.0
6243,66.0,0,120,2.0,70.0
6244,81.0,120,0,0.0,80.0
6245,54.0,0,480,3.0,79.0
6246,69.0,120,480,1.0,75.0
6247,35.0,0,120,3.0,75.0
6248,37.0,120,120,3.0,75.0
6249,39.0,0,120,3.0,75.0
6250,40.0,120,120,3.0,76.0
6251,42.0,0,120,3.0,76.0
6252,79.0,120,480,0.0,79.0
6253,71.0,120,240,1.0,76.0
6254,43.0,120,120,3.0,76.0
6255,45.0,0,120,3.0,76.0
6256,47.0,120,120,3.0,76.0
6257,49.0,120,120,3.0,76.0
6258,78.0,120,480,0.0,77.0
6259,51.0,120,120,3.0,76.0
6260,69.0,0,480,1.0,76.0
6261,52.0,0,120,3.0,77.0
6262,54.0,120,120,3.0,77.0
6263,55.0,120,120,3.0,77.0
6264,76.0,120,480,0.0,76.0
6265,57.0,120,120,3.0,77.0
6266,59.0,0,0,2.0,77.0
6267,67.0,0,480,1.0,76.0
6268,47.0,120,120,3.0,77.0
6269,75.0,120,240,0.0,74.0
6270,66.0,0,240,1.0,76.0
6271,64.0,0,120,0.0,74.0
6272,66.0,120,120,0.0,74.0
6273,62.0,120,240,2.0,77.0
6274,59.0,0,240,3.0,77.0
6275,68.0,120,120,0.0,75.0
6276,57.0,0,240,3.0,77.0
6277,69.0,120,120,0.0,75.0
6278,76.0,0,480,0.0,74.0
6279,71.0,0,120,0.0,76.0
6280,60.0,0,480,2.0,77.0
6281,72.0,120,120,0.0,76.0
6282,52.0,120,240,3.0,77.0
6283,74.0,0,120,0.0,76.0
6284,76.0,120,120,0.0,77.0
6285,78.0,120,120,0.0,77.0
6286,50.0,0,480,3.0,77.0
6287,80.0,120,120,0.0,77.0
6288,59.0,120,480,2.0,77.0
6289,81.0,0,120,0.0,78.0
6290,83.0,120,120,0.0,78.0
6291,84.0,120,120,0.0,79.0
6292,86.0,120,120,0.0,79.0
6293,48.0,120,480,3.0,77.0
6294,57.0,0,480,2.0,77.0
6295,88.0,0,120,0.0,79.0
6296,47.0,120,240,3.0,77.0
6297,56.0,0,240,2.0,77.0
6298,76.0,120,120,0.0,76.0
6299,81.0,120,120,0.0,74.0
6300,57.0,0,120,2.0,74.0
6301,45.0,0,120,3.0,74.0
6302,52.0,240,120,3.0,84.0
6303,60.0,240,120,2.0,77.0
6304,48.0,240,600,3.0,92.0
6305,50.0,120,120,3.0,85.0
6306,69.0,120,120,1.0,78.0
6307,52.0,0,120,3.0,83.0
6308,53.0,120,120,3.0,81.0
6309,57.0,240,600,2.0,84.0
6310,59.0,120,120,2.0,79.0
6311,60.0,120,120,2.0,78.0
6312,47.0,0,480,3.0,80.0
6313,62.0,120,120,2.0,78.0
6314,68.0,120,600,1.0,86.0
6315,69.0,120,120,1.0,77.0
6316,74.0,120,120,0.0,77.0
6317,71.0,0,120,1.0,77.0
6318,52.0,0,120,3.0,79.0
6319,56.0,120,480,2.0,77.0
6320,72.0,120,120,1.0,77.0
6321,57.0,120,120,2.0,78.0
6322,84.0,0,120,0.0,81.0
6323,64.0,240,120,2.0,78.0
6324,72.0,0,600,0.0,82.0
6325,74.0,120,120,1.0,78.0
6326,76.0,120,120,1.0,78.0
6327,77.0,120,120,1.0,78.0
6328,81.0,240,600,0.0,89.0
6329,60.0,0,630,2.0,88.0
6330,83.0,0,120,0.0,81.0
6331,62.0,120,120,2.0,79.0
6332,84.0,120,120,0.0,80.0
6333,64.0,0,120,2.0,79.0
6334,86.0,0,120,0.0,79.0
6335,65.0,120,120,2.0,79.0
6336,52.0,0,1440,3.0,88.0
6337,71.0,120,480,1.0,82.0
6338,80.0,120,120,0.0,79.0
6339,59.0,0,240,2.0,79.0
6340,40.0,240,120,3.0,80.0
6341,74.0,0,120,1.0,79.0
6342,83.0,240,120,0.0,83.0
6343,62.0,0,120,2.0,79.0
6344,71.0,0,600,1.0,86.0
6345,72.0,120,120,1.0,79.0
6346,74.0,120,120,1.0,79.0
6347,76.0,120,120,1.0,78.0
6348,80.0,240,600,0.0,88.0
6349,59.0,0,600,2.0,88.0
6350,52.0,240,1110,3.0,88.0
6351,81.0,120,120,0.0,84.0
6352,60.0,0,120,2.0,81.0
6353,52.0,0,120,3.0,81.0
6354,83.0,120,120,0.0,83.0
6355,62.0,0,120,2.0,80.0
6356,84.0,120,120,0.0,82.0
6357,72.0,120,480,1.0,83.0
6358,64.0,0,120,2.0,79.0
6359,84.0,120,120,0.0,82.0
6360,48.0,0,120,3.0,81.0
6361,76.0,0,120,1.0,80.0
6362,50.0,120,120,3.0,81.0
6363,83.0,0,120,0.0,83.0
6364,52.0,0,120,3.0,81.0
6365,74.0,120,120,1.0,81.0
6366,53.0,120,120,3.0,82.0
6367,76.0,0,120,1.0,81.0
6368,52.0,0,120,3.0,82.0
6369,84.0,120,120,0.0,82.0
6370,83.0,0,120,0.0,81.0
6371,62.0,240,120,2.0,82.0
6372,74.0,0,120,1.0,81.0
6373,53.0,0,120,3.0,82.0
6374,81.0,0,60,0.0,81.0
6375,83.0,60,60,0.0,80.0
6376,62.0,0,120,2.0,82.0
6377,53.0,0,120,3.0,82.0
6378,81.0,60,60,0.0,80.0
6379,83.0,60,60,0.0,79.0
6380,81.0,0,40,0.0,79.0
6381,83.0,40,40,0.0,78.0
6382,81.0,40,40,0.0,78.0
6383,60.0,60,120,2.0,82.0
6384,52.0,0,120,3.0,82.0
6385,80.0,40,60,0.0,77.0
6386,72.0,240,480,1.0,81.0
6387,81.0,60,60,0.0,77.0
6388,53.0,60,120,3.0,83.0
6389,62.0,0,120,2.0,83.0
6390,52.0,0,120,3.0,83.0
6391,83.0,240,120,0.0,87.0
6392,74.0,0,120,1.0,82.0
6393,60.0,0,120,2.0,83.0
6394,74.0,0,120,1.0,82.0
6395,83.0,0,120,0.0,86.0
6396,72.0,240,120,1.0,83.0
6397,81.0,0,120,0.0,85.0
6398,59.0,0,480,2.0,83.0
6399,50.0,240,480,3.0,83.0
6400,74.0,240,120,1.0,83.0
6401,83.0,0,120,0.0,84.0
6402,81.0,0,120,0.0,83.0
6403,60.0,240,120,2.0,84.0
6404,72.0,0,120,1.0,83.0
6405,52.0,0,120,3.0,84.0
6406,80.0,0,60,0.0,83.0
6407,60.0,0,120,2.0,84.0
6408,81.0,60,60,0.0,83.0
6409,52.0,240,120,3.0,84.0
6410,80.0,60,60,0.0,82.0
6411,81.0,60,60,0.0,81.0
6412,80.0,60,40,0.0,81.0
6413,81.0,40,40,0.0,80.0
6414,59.0,0,120,2.0,84.0
6415,80.0,40,40,0.0,80.0
6416,50.0,0,120,3.0,84.0
6417,78.0,40,60,0.0,79.0
6418,80.0,60,60,0.0,78.0
6419,71.0,0,480,1.0,83.0
6420,50.0,60,120,3.0,85.0
6421,59.0,0,120,2.0,85.0
6422,57.0,0,120,2.0,85.0
6423,81.0,240,120,0.0,94.0
6424,48.0,0,120,3.0,85.0
6425,72.0,0,120,1.0,94.0
6426,81.0,240,120,0.0,84.0
6427,72.0,0,120,1.0,84.0
6428,59.0,0,120,3.0,95.0
6429,71.0,240,120,1.0,85.0
6430,79.0,0,120,0.0,85.0
6431,62.0,0,120,2.0,95.0
6432,62.0,240,120,2.0,86.0
6433,59.0,0,120,3.0,86.0
6434,57.0,0,120,3.0,86.0
6435,79.0,0,120,0.0,95.0
6436,60.0,0,120,2.0,86.0
6437,71.0,240,120,1.0,95.0
6438,71.0,240,120,1.0,85.0
6439,79.0,0,120,0.0,85.0
6440,60.0,0,120,2.0,96.0
6441,69.0,0,120,1.0,86.0
6442,57.0,0,120,3.0,96.0
6443,77.0,240,120,0.0,86.0
6444,60.0,0,120,2.0,86.0
6445,57.0,240,120,3.0,86.0
6446,74.0,240,120,1.0,96.0
6447,59.0,0,120,2.0,97.0
6448,77.0,0,120,0.0,96.0
6449,56.0,0,120,3.0,97.0
6450,56.0,0,120,3.0,87.0
6451,77.0,0,120,0.0,86.0
6452,59.0,0,120,2.0,87.0
6453,74.0,240,120,1.0,86.0
6454,57.0,0,120,3.0,97.0
6455,60.0,0,120,2.0,97.0
6456,72.0,0,120,1.0,96.0
6457,76.0,240,120,0.0,96.0
6458,45.0,0,120,3.0,87.0
6459,76.0,0,120,0.0,87.0
6460,48.0,240,120,2.0,87.0
6461,72.0,0,120,1.0,87.0
6462,74.0,240,120,0.0,97.0
6463,50.0,0,120,2.0,98.0
6464,71.0,0,120,1.0,97.0
6465,47.0,0,120,3.0,98.0
6466,50.0,0,120,2.0,88.0
6467,64.0,0,120,1.0,87.0
6468,47.0,240,120,3.0,88.0
6469,72.0,0,240,0.0,87.0
6470,71.0,240,120,0.0,97.0
6471,48.0,0,120,3.0,98.0
6472,52.0,0,120,2.0,98.0
6473,64.0,0,120,1.0,97.0
6474,69.0,120,120,0.0,88.0
6475,52.0,120,120,2.0,88.0
6476,48.0,0,120,3.0,88.0
6477,69.0,0,120,1.0,88.0
6478,81.0,0,120,0.0,88.0
6479,49.0,0,120,3.0,99.0
6480,70.0,0,120,1.0,98.0
6481,52.0,0,120,2.0,99.0
6482,79.0,240,120,0.0,98.0
6483,49.0,0,120,3.0,89.0
6484,52.0,0,120,2.0,89.0
6485,77.0,0,240,0.0,88.0
6486,69.0,240,240,1.0,88.0
6487,76.0,0,120,0.0,98.0
6488,53.0,0,120,2.0,99.0
6489,67.0,0,120,1.0,98.0
6490,50.0,240,120,3.0,99.0
6491,74.0,120,120,0.0,89.0
6492,65.0,0,120,1.0,89.0
6493,51.0,0,120,3.0,89.0
6494,60.0,0,120,2.0,89.0
6495,57.0,0,120,2.0,89.0
6496,72.0,0,120,1.0,89.0
6497,54.0,120,120,2.0,89.0
6498,84.0,0,120,0.0,89.0
6499,51.0,0,120,3.0,100.0
6500,72.0,0,120,1.0,99.0
6501,57.0,0,120,2.0,100.0
6502,60.0,0,120,2.0,100.0
6503,54.0,0,120,2.0,100.0
6504,81.0,240,120,0.0,99.0
6505,80.0,240,120,0.0,99.0
6506,71.0,0,120,1.0,99.0
6507,72.0,0,120,1.0,103.0
6508,81.0,240,120,0.0,103.0
6509,33.0,0,480,2.0,100.0
6510,40.0,0,480,2.0,100.0
6511,28.0,240,0,3.0,95.0
6512,80.0,0,120,0.0,93.0
6513,81.0,120,120,0.0,92.0
6514,83.0,120,120,0.0,92.0
6515,84.0,120,120,0.0,92.0
6516,68.0,120,120,1.0,91.0
6517,69.0,120,120,1.0,91.0
6518,71.0,120,120,1.0,91.0
6519,75.0,0,480,0.0,91.0
6520,72.0,120,120,1.0,90.0
6521,68.0,0,120,0.0,90.0
6522,69.0,120,120,0.0,90.0
6523,71.0,120,120,0.0,89.0
6524,72.0,120,120,0.0,89.0
6525,63.0,120,480,1.0,97.0
6526,56.0,120,120,1.0,89.0
6527,57.0,120,120,1.0,88.0
6528,59.0,120,120,1.0,88.0
6529,63.0,0,480,0.0,89.0
6530,60.0,120,120,1.0,88.0
6531,51.0,120,120,1.0,87.0
6532,72.0,0,120,0.0,87.0
6533,63.0,240,120,1.0,87.0
6534,69.0,0,120,1.0,87.0
6535,40.0,0,2400,2.0,95.0
6536,28.0,240,0,3.0,87.0
6537,30.0,0,2400,2.0,95.0
6538,72.0,0,120,0.0,86.0
6539,69.0,0,120,1.0,86.0
6540,63.0,0,120,1.0,86.0
6541,71.0,360,120,0.0,85.0
6542,28.0,120,0,3.0,85.0
6543,68.0,0,120,1.0,85.0
6544,64.0,0,120,1.0,85.0
6545,40.0,0,0,2.0,85.0
6546,32.0,0,480,2.0,87.0
6547,66.0,0,120,1.0,85.0
6548,63.0,0,120,1.0,85.0
6549,60.0,0,120,1.0,85.0
6550,71.0,0,120,0.0,85.0
6551,66.0,0,120,1.0,84.0
6552,63.0,0,120,1.0,84.0
6553,60.0,0,120,1.0,84.0
6554,69.0,240,120,0.0,84.0
6555,33.0,0,480,2.0,85.0
6556,28.0,0,0,3.0,83.0
6557,63.0,0,120,1.0,83.0
6558,69.0,240,120,0.0,83.0
6559,66.0,0,120,1.0,83.0
6560,60.0,0,120,1.0,83.0
6561,68.0,240,120,0.0,83.0
6562,64.0,0,120,1.0,83.0
6563,59.0,0,120,1.0,83.0
6564,35.0,0,480,2.0,83.0
6565,40.0,0,480,2.0,83.0
6566,28.0,240,0,3.0,74.0
6567,32.0,0,120,2.0,75.0
6568,40.0,120,120,1.0,70.0
6569,44.0,0,120,1.0,71.0
6570,35.0,120,120,2.0,75.0
6571,47.0,120,120,1.0,72.0
6572,40.0,120,120,2.0,77.0
6573,52.0,0,120,1.0,74.0
6574,44.0,120,120,2.0,77.0
6575,56.0,120,120,1.0,74.0
6576,47.0,0,120,2.0,78.0
6577,59.0,120,120,1.0,75.0
6578,40.0,120,120,2.0,79.0
6579,52.0,120,120,1.0,77.0
6580,44.0,0,120,2.0,80.0
6581,56.0,120,120,1.0,78.0
6582,47.0,0,120,2.0,81.0
6583,59.0,120,120,1.0,79.0
6584,52.0,120,120,2.0,82.0
6585,64.0,120,120,1.0,80.0
6586,56.0,0,120,2.0,83.0
6587,68.0,120,120,1.0,81.0
6588,59.0,0,120,2.0,83.0
6589,71.0,120,120,1.0,82.0
6590,52.0,120,120,2.0,85.0
6591,64.0,120,120,1.0,84.0
6592,56.0,0,120,2.0,85.0
6593,59.0,0,120,2.0,86.0
6594,68.0,120,120,1.0,84.0
6595,71.0,120,120,1.0,85.0
6596,64.0,120,120,2.0,87.0
6597,76.0,120,120,1.0,87.0
6598,68.0,0,120,2.0,88.0
6599,80.0,120,120,1.0,88.0
6600,71.0,0,120,2.0,88.0
6601,83.0,120,120,1.0,89.0
6602,64.0,120,120,2.0,90.0
6603,76.0,0,120,1.0,90.0
6604,68.0,120,120,2.0,90.0
6605,80.0,0,120,1.0,91.0
6606,71.0,120,120,2.0,91.0
6607,83.0,120,120,1.0,92.0
6608,88.0,120,120,1.0,93.0
6609,92.0,120,120,1.0,94.0
6610,28.0,120,120,3.0,94.0
6611,40.0,0,120,2.0,94.0
6612,95.0,0,120,1.0,95.0
6613,100.0,120,120,1.0,95.0
6614,45.0,0,120,2.0,95.0
6615,33.0,0,120,3.0,95.0
6616,71.0,0,120,2.0,93.0
6617,59.0,240,120,3.0,94.0
6618,76.0,0,600,1.0,97.0
6619,85.0,0,600,0.0,101.0
6620,73.0,0,600,1.0,97.0
6621,81.0,120,600,1.0,97.0
6622,86.0,120,120,0.0,93.0
6623,88.0,120,120,0.0,92.0
6624,90.0,120,120,0.0,90.0
6625,57.0,0,600,3.0,100.0
6626,69.0,240,600,2.0,98.0
6627,59.0,120,120,3.0,92.0
6628,61.0,120,120,3.0,92.0
6629,71.0,120,480,1.0,92.0
6630,83.0,0,480,0.0,89.0
6631,62.0,120,120,3.0,91.0
6632,88.0,0,120,0.0,90.0
6633,76.0,240,120,1.0,89.0
6634,56.0,120,480,3.0,95.0
6635,68.0,0,120,2.0,90.0
6636,56.0,240,120,3.0,89.0
6637,69.0,0,600,1.0,94.0
6638,81.0,240,600,0.0,95.0
6639,83.0,0,120,0.0,89.0
6640,71.0,120,120,1.0,87.0
6641,73.0,120,120,1.0,86.0
6642,85.0,0,120,0.0,87.0
6643,74.0,120,120,1.0,85.0
6644,86.0,0,120,0.0,86.0
6645,54.0,0,600,3.0,92.0
6646,66.0,240,600,2.0,94.0
6647,56.0,120,120,3.0,87.0
6648,57.0,120,120,3.0,86.0
6649,80.0,120,480,0.0,85.0
6650,68.0,0,480,1.0,84.0
6651,59.0,120,120,3.0,86.0
6652,85.0,240,120,0.0,56.0
6653,52.0,120,480,3.0,86.0
6654,78.0,240,120,0.0,56.0
6655,80.0,120,120,0.0,55.0
6656,81.0,120,120,0.0,55.0
6657,83.0,120,120,0.0,55.0
6658,81.0,120,120,0.0,55.0
6659,64.0,0,480,3.0,55.0
6660,74.0,0,480,2.0,55.0
6661,80.0,120,120,0.0,54.0
6662,78.0,0,120,0.0,54.0
6663,80.0,120,120,0.0,54.0
6664,81.0,120,120,0.0,54.0
6665,64.0,120,0,3.0,54.0
6666,71.0,0,480,2.0,54.0
6667,83.0,120,120,0.0,53.0
6668,85.0,0,120,0.0,53.0
6669,86.0,120,120,0.0,53.0
6670,85.0,120,120,0.0,53.0
6671,64.0,0,0,3.0,53.0
6672,83.0,120,120,0.0,52.0
6673,69.0,0,480,2.0,54.0
6674,81.0,120,120,0.0,52.0
6675,68.0,0,240,2.0,53.0
6676,83.0,120,120,0.0,52.0
6677,85.0,120,120,0.0,52.0
6678,86.0,120,120,0.0,51.0
6679,69.0,0,240,2.0,53.0
6680,88.0,120,120,0.0,51.0
6681,90.0,120,120,0.0,51.0
6682,68.0,0,240,2.0,52.0
6683,92.0,120,120,0.0,51.0
6684,93.0,120,120,0.0,50.0
6685,66.0,0,240,2.0,52.0
6686,85.0,120,120,0.0,50.0
6687,81.0,0,120,1.0,50.0
6688,59.0,0,240,3.0,52.0
6689,71.0,0,240,2.0,52.0
6690,87.0,120,120,0.0,50.0
6691,59.0,0,960,3.0,51.0
6692,81.0,120,960,1.0,54.0
6693,90.0,0,960,0.0,50.0
6694,71.0,0,960,2.0,51.0
6695,88.0,0,720,0.0,38.0
6696,80.0,0,720,1.0,38.0
6697,71.0,0,720,2.0,40.0
6698,64.0,960,720,3.0,40.0
6699,76.0,0,120,0.0,48.0
6700,40.0,720,120,3.0,50.0
6701,40.0,0,120,2.0,49.0
6702,40.0,240,120,2.0,49.0
6703,81.0,240,600,0.0,53.0
6704,40.0,240,120,2.0,48.0
6705,37.0,0,600,3.0,53.0
6706,38.0,0,120,3.0,49.0
6707,80.0,120,120,0.0,49.0
6708,78.0,120,120,0.0,48.0
6709,40.0,0,120,3.0,48.0
6710,76.0,0,120,0.0,47.0
6711,42.0,120,120,3.0,47.0
6712,40.0,0,120,2.0,48.0
6713,69.0,0,360,1.0,44.0
6714,68.0,120,120,1.0,43.0
6715,66.0,0,120,1.0,43.0
6716,40.0,120,120,2.0,47.0
6717,35.0,0,480,3.0,47.0
6718,64.0,120,120,1.0,43.0
6719,74.0,120,480,0.0,47.0
6720,40.0,120,120,2.0,47.0
6721,40.0,0,120,2.0,47.0
6722,73.0,240,120,0.0,42.0
6723,62.0,0,480,1.0,42.0
6724,40.0,240,120,2.0,46.0
6725,40.0,240,120,2.0,46.0
6726,78.0,0,600,0.0,49.0
6727,40.0,240,120,2.0,46.0
6728,33.0,0,600,3.0,53.0
6729,76.0,0,120,0.0,43.0
6730,35.0,120,120,3.0,47.0
6731,74.0,120,120,0.0,42.0
6732,40.0,0,120,2.0,45.0
6733,37.0,0,120,3.0,45.0
6734,38.0,0,120,3.0,44.0
6735,73.0,120,120,0.0,41.0
6736,66.0,0,360,1.0,40.0
6737,40.0,120,120,2.0,45.0
6738,64.0,120,120,1.0,39.0
6739,62.0,0,120,1.0,39.0
6740,40.0,120,120,2.0,45.0
6741,71.0,0,480,0.0,40.0
6742,61.0,120,120,1.0,39.0
6743,32.0,0,480,3.0,43.0
6744,40.0,120,120,2.0,44.0
6745,40.0,240,120,2.0,44.0
6746,42.0,240,120,3.0,44.0
6747,44.0,120,120,3.0,44.0
6748,45.0,120,120,3.0,44.0
6749,47.0,120,120,3.0,45.0
6750,45.0,120,120,3.0,45.0
6751,44.0,120,120,3.0,46.0
6752,42.0,120,120,3.0,46.0
6753,44.0,120,120,3.0,47.0
6754,45.0,120,120,3.0,47.0
6755,47.0,120,120,3.0,47.0
6756,49.0,120,120,3.0,48.0
6757,50.0,120,120,3.0,48.0
6758,49.0,120,120,3.0,49.0
6759,47.0,120,120,3.0,49.0
6760,45.0,120,120,3.0,50.0
6761,52.0,0,120,2.0,50.0
6762,47.0,120,120,3.0,50.0
6763,54.0,120,120,2.0,50.0
6764,45.0,0,120,3.0,50.0
6765,56.0,120,120,2.0,51.0
6766,47.0,0,120,3.0,51.0
6767,57.0,120,120,2.0,51.0
6768,49.0,0,120,3.0,51.0
6769,59.0,120,120,2.0,52.0
6770,50.0,0,120,3.0,52.0
6771,49.0,0,120,3.0,52.0
6772,57.0,120,120,2.0,52.0
6773,56.0,0,120,2.0,53.0
6774,47.0,120,120,3.0,53.0
6775,45.0,0,120,3.0,53.0
6776,54.0,120,120,2.0,53.0
6777,56.0,120,120,2.0,53.0
6778,47.0,0,120,3.0,53.0
6779,49.0,120,120,3.0,54.0
6780,57.0,0,120,2.0,54.0
6781,59.0,0,120,2.0,54.0
6782,56.0,120,120,3.0,54.0
6783,57.0,0,120,3.0,55.0
6784,61.0,120,120,2.0,55.0
6785,62.0,120,120,2.0,55.0
6786,59.0,0,120,3.0,55.0
6787,61.0,120,120,2.0,56.0
6788,57.0,0,120,3.0,56.0
6789,56.0,0,120,3.0,56.0
6790,59.0,120,120,2.0,56.0
6791,64.0,120,120,0.0,54.0
6792,54.0,0,120,3.0,56.0
6793,57.0,0,120,2.0,56.0
6794,59.0,0,120,2.0,57.0
6795,56.0,120,120,3.0,57.0
6796,66.0,0,120,0.0,55.0
6797,57.0,0,120,3.0,57.0
6798,61.0,120,120,1.0,55.0
6799,68.0,0,120,0.0,55.0
6800,59.0,0,120,3.0,58.0
6801,62.0,120,120,1.0,55.0
6802,64.0,120,120,1.0,56.0
6803,61.0,0,120,3.0,58.0
6804,69.0,0,120,0.0,56.0
6805,62.0,0,120,3.0,59.0
6806,66.0,120,120,1.0,56.0
6807,71.0,0,120,0.0,56.0
6808,69.0,0,120,0.0,56.0
6809,64.0,0,120,1.0,56.0
6810,61.0,120,120,3.0,59.0
6811,62.0,0,120,1.0,57.0
6812,59.0,0,120,3.0,59.0
6813,68.0,120,120,0.0,57.0
6814,66.0,0,120,0.0,57.0
6815,61.0,120,120,1.0,57.0
6816,57.0,0,120,3.0,60.0
6817,59.0,0,120,3.0,60.0
6818,68.0,0,120,0.0,58.0
6819,62.0,120,120,1.0,58.0
6820,64.0,0,120,1.0,58.0
6821,61.0,0,120,3.0,61.0
6822,69.0,120,120,0.0,58.0
6823,62.0,0,120,3.0,61.0
6824,66.0,120,120,1.0,58.0
6825,71.0,0,120,0.0,58.0
6826,64.0,120,120,3.0,62.0
6827,68.0,0,120,1.0,59.0
6828,73.0,0,120,0.0,59.0
6829,74.0,0,120,0.0,59.0
6830,66.0,120,120,3.0,62.0
6831,69.0,0,120,1.0,59.0
6832,64.0,0,120,3.0,62.0
6833,68.0,120,120,1.0,59.0
6834,73.0,0,120,0.0,59.0
6835,66.0,120,120,1.0,60.0
6836,71.0,0,120,0.0,60.0
6837,62.0,0,120,3.0,63.0
6838,61.0,0,120,3.0,63.0
6839,64.0,0,120,1.0,60.0
6840,69.0,120,120,0.0,60.0
6841,66.0,0,120,1.0,61.0
6842,71.0,0,120,0.0,61.0
6843,62.0,120,120,3.0,64.0
6844,73.0,0,120,0.0,61.0
6845,64.0,0,120,3.0,64.0
6846,67.0,120,120,1.0,61.0
6847,74.0,0,120,0.0,61.0
6848,66.0,0,120,3.0,65.0
6849,69.0,120,120,1.0,61.0
6850,71.0,0,120,1.0,62.0
6851,76.0,120,120,0.0,62.0
6852,67.0,0,120,3.0,65.0
6853,73.0,0,120,1.0,62.0
6854,78.0,120,120,0.0,62.0
6855,69.0,0,120,3.0,65.0
6856,67.0,120,120,3.0,66.0
6857,76.0,0,120,0.0,62.0
6858,71.0,0,120,1.0,62.0
6859,66.0,120,120,3.0,66.0
6860,69.0,0,120,1.0,63.0
6861,74.0,0,120,0.0,63.0
6862,64.0,0,120,3.0,67.0
6863,73.0,0,120,0.0,63.0
6864,67.0,120,120,1.0,63.0
6865,66.0,0,120,3.0,67.0
6866,69.0,0,120,1.0,64.0
6867,74.0,120,120,0.0,64.0
6868,71.0,0,120,1.0,64.0
6869,67.0,120,120,3.0,67.0
6870,76.0,0,120,0.0,64.0
6871,78.0,120,120,0.0,64.0
6872,69.0,0,120,3.0,68.0
6873,73.0,0,120,1.0,64.0
6874,79.0,120,120,0.0,65.0
6875,74.0,0,120,1.0,65.0
6876,71.0,0,120,3.0,68.0
6877,76.0,120,120,1.0,65.0
6878,73.0,0,120,3.0,69.0
6879,81.0,0,0,0.0,65.0
6880,74.0,0,120,3.0,70.0
6881,78.0,120,120,1.0,65.0
6882,79.0,0,120,1.0,63.0
6883,76.0,120,120,3.0,66.0
6884,78.0,120,120,1.0,61.0
6885,74.0,0,120,3.0,62.0
6886,76.0,0,120,1.0,59.0
6887,81.0,0,240,0.0,61.0
6888,73.0,120,120,3.0,59.0
6889,66.0,0,120,2.0,46.0
6890,81.0,120,240,0.0,50.0
6891,67.0,120,120,2.0,44.0
6892,78.0,0,240,1.0,49.0
6893,69.0,120,120,2.0,44.0
6894,71.0,120,120,2.0,44.0
6895,74.0,0,120,1.0,46.0
6896,76.0,120,120,1.0,46.0
6897,78.0,120,120,1.0,46.0
6898,62.0,0,944,3.0,48.0
6899,69.0,0,480,2.0,44.0
6900,79.0,120,120,1.0,47.0
6901,66.0,0,120,2.0,45.0
6902,67.0,120,120,2.0,46.0
6903,69.0,120,120,2.0,46.0
6904,78.0,120,480,1.0,47.0
6905,71.0,120,120,2.0,46.0
6906,81.0,120,960,0.0,51.0
6907,74.0,120,120,1.0,48.0
6908,76.0,120,120,1.0,48.0
6909,78.0,120,120,1.0,48.0
6910,62.0,0,886,3.0,49.0
6911,79.0,120,120,1.0,49.0
6912,69.0,0,480,2.0,46.0
6913,67.0,120,120,2.0,47.0
6914,69.0,120,120,2.0,48.0
6915,71.0,120,120,2.0,48.0
6916,69.0,120,120,2.0,48.0
6917,81.0,120,0,0.0,54.0
6918,73.0,0,0,1.0,50.0
6919,79.0,120,120,1.0,50.0
6920,73.0,120,120,1.0,51.0
6921,64.0,0,886,3.0,51.0
6922,79.0,120,120,1.0,51.0
6923,69.0,0,480,2.0,48.0
6924,67.0,0,120,2.0,50.0
6925,69.0,120,120,2.0,50.0
6926,71.0,120,120,2.0,50.0
6927,88.0,120,480,0.0,55.0
6928,69.0,0,0,2.0,51.0
6929,73.0,120,120,1.0,52.0
6930,79.0,120,120,1.0,52.0
6931,73.0,120,120,1.0,53.0
6932,64.0,0,886,3.0,53.0
6933,85.0,0,480,0.0,56.0
6934,79.0,120,120,1.0,53.0
6935,66.0,0,120,2.0,52.0
6936,67.0,120,120,2.0,52.0
6937,69.0,120,120,2.0,52.0
6938,86.0,0,480,0.0,57.0
6939,71.0,120,120,2.0,52.0
6940,78.0,120,480,1.0,53.0
6941,74.0,0,120,1.0,54.0
6942,76.0,120,120,1.0,55.0
6943,78.0,120,120,1.0,55.0
6944,62.0,0,886,3.0,55.0
6945,79.0,120,120,1.0,55.0
6946,69.0,0,480,2.0,53.0
6947,66.0,120,120,2.0,54.0
6948,67.0,120,120,2.0,54.0
6949,69.0,120,120,2.0,54.0
6950,71.0,120,120,2.0,55.0
6951,78.0,0,480,1.0,55.0
6952,81.0,120,960,0.0,58.0
6953,74.0,0,120,1.0,56.0
6954,76.0,120,120,1.0,57.0
6955,78.0,120,120,1.0,57.0
6956,62.0,0,886,3.0,57.0
6957,79.0,120,120,1.0,57.0
6958,69.0,120,480,2.0,55.0
6959,67.0,0,120,2.0,56.0
6960,69.0,120,120,2.0,56.0
6961,71.0,120,120,2.0,56.0
6962,73.0,0,480,1.0,57.0
6963,81.0,0,0,0.0,62.0
6964,69.0,120,120,2.0,57.0
6965,73.0,120,120,1.0,58.0
6966,79.0,120,120,1.0,59.0
6967,73.0,120,120,1.0,59.0
6968,64.0,120,886,3.0,58.0
6969,79.0,120,120,1.0,59.0
6970,67.0,120,120,2.0,58.0
6971,69.0,120,120,2.0,58.0
6972,71.0,120,120,2.0,59.0
6973,91.0,0,480,0.0,62.0
6974,69.0,120,120,2.0,59.0
6975,73.0,120,120,1.0,61.0
6976,79.0,120,120,1.0,61.0
6977,73.0,120,120,1.0,61.0
6978,64.0,0,886,3.0,60.0
6979,79.0,120,120,1.0,61.0
6980,85.0,0,480,0.0,63.0
6981,57.0,120,120,2.0,62.0
6982,62.0,120,120,2.0,62.0
6983,57.0,120,120,2.0,63.0
6984,62.0,120,120,2.0,63.0
6985,69.0,120,120,1.0,63.0
6986,71.0,120,120,1.0,63.0
6987,69.0,120,120,1.0,63.0
6988,86.0,0,928,0.0,64.0
6989,54.0,0,944,3.0,62.0
6990,74.0,0,480,1.0,63.0
6991,71.0,120,120,1.0,64.0
6992,66.0,0,480,2.0,63.0
6993,59.0,0,120,2.0,64.0
6994,62.0,120,120,2.0,64.0
6995,59.0,120,120,2.0,64.0
6996,64.0,120,120,2.0,65.0
6997,71.0,120,120,1.0,65.0
6998,73.0,120,120,1.0,65.0
6999,71.0,120,120,1.0,65.0
7000,83.0,120,928,0.0,66.0
7001,56.0,0,944,3.0,64.0
7002,68.0,0,480,2.0,65.0
7003,76.0,0,480,1.0,65.0
7004,73.0,120,120,1.0,66.0
7005,61.0,120,120,2.0,64.0
7006,62.0,120,120,2.0,65.0
7007,61.0,120,120,2.0,65.0
7008,64.0,120,120,2.0,65.0
7009,73.0,120,120,1.0,67.0
7010,74.0,120,120,1.0,67.0
7011,73.0,120,120,1.0,67.0
7012,85.0,0,928,0.0,68.0
7013,57.0,0,944,3.0,66.0
7014,76.0,0,480,1.0,67.0
7015,69.0,0,480,2.0,66.0
7016,74.0,120,120,1.0,68.0
7017,62.0,0,120,2.0,67.0
7018,64.0,120,120,2.0,67.0
7019,62.0,120,120,2.0,67.0
7020,64.0,120,120,2.0,67.0
7021,74.0,0,120,1.0,69.0
7022,76.0,120,120,1.0,69.0
7023,74.0,120,120,1.0,70.0
7024,86.0,120,928,0.0,70.0
7025,59.0,0,944,3.0,68.0
7026,71.0,120,480,2.0,68.0
7027,76.0,120,120,1.0,70.0
7028,79.0,0,480,1.0,69.0
7029,61.0,120,120,3.0,69.0
7030,64.0,120,120,3.0,69.0
7031,61.0,120,120,3.0,69.0
7032,64.0,120,120,3.0,70.0
7033,76.0,0,120,1.0,71.0
7034,78.0,120,120,1.0,71.0
7035,76.0,120,120,1.0,72.0
7036,88.0,0,928,0.0,72.0
7037,78.0,120,120,1.0,72.0
7038,81.0,0,480,1.0,71.0
7039,73.0,120,487,3.0,70.0
7040,62.0,0,120,3.0,71.0
7041,64.0,120,120,3.0,71.0
7042,68.0,120,120,3.0,71.0
7043,71.0,120,120,3.0,72.0
7044,74.0,0,120,3.0,72.0
7045,76.0,120,120,1.0,73.0
7046,78.0,120,120,1.0,74.0
7047,76.0,120,120,1.0,74.0
7048,74.0,0,120,3.0,72.0
7049,88.0,120,928,0.0,74.0
7050,78.0,120,120,1.0,74.0
7051,80.0,0,480,1.0,73.0
7052,74.0,0,120,3.0,73.0
7053,73.0,120,120,3.0,73.0
7054,71.0,120,120,3.0,74.0
7055,73.0,120,120,3.0,74.0
7056,88.0,120,600,0.0,75.0
7057,83.0,0,720,1.0,74.0
7058,80.0,0,720,1.0,74.0
7059,90.0,120,120,0.0,76.0
7060,92.0,120,120,0.0,76.0
7061,74.0,120,480,3.0,74.0
7062,90.0,120,120,0.0,76.0
7063,76.0,0,960,2.0,73.0
7064,74.0,120,120,3.0,75.0
7065,73.0,120,120,3.0,75.0
7066,71.0,120,120,3.0,76.0
7067,73.0,120,120,3.0,76.0
7068,88.0,0,600,0.0,76.0
7069,80.0,0,720,1.0,76.0
7070,90.0,120,120,0.0,78.0
7071,83.0,0,720,1.0,76.0
7072,92.0,120,120,0.0,78.0
7073,74.0,120,0,3.0,77.0
7074,76.0,0,0,2.0,77.0
7075,90.0,120,120,0.0,78.0
7076,88.0,0,120,0.0,79.0
7077,80.0,0,120,1.0,79.0
7078,76.0,0,120,2.0,81.0
7079,73.0,0,120,3.0,81.0
7080,90.0,0,120,0.0,79.0
7081,81.0,240,120,1.0,79.0
7082,71.0,0,120,3.0,82.0
7083,74.0,240,120,2.0,82.0
7084,76.0,0,120,2.0,82.0
7085,83.0,0,120,1.0,81.0
7086,86.0,0,120,1.0,81.0
7087,92.0,0,120,0.0,81.0
7088,76.0,0,120,2.0,83.0
7089,88.0,0,120,1.0,83.0
7090,73.0,0,120,2.0,83.0
7091,93.0,0,120,0.0,83.0
7092,85.0,240,120,1.0,83.0
7093,69.0,0,120,3.0,83.0
7094,92.0,240,120,1.0,84.0
7095,76.0,0,120,2.0,84.0
7096,95.0,0,120,0.0,84.0
7097,68.0,0,120,3.0,84.0
7098,71.0,0,120,2.0,84.0
7099,76.0,240,120,2.0,86.0
7100,69.0,0,120,2.0,86.0
7101,97.0,0,120,0.0,86.0
7102,66.0,0,120,3.0,86.0
7103,93.0,0,120,1.0,86.0
7104,64.0,0,480,3.0,92.0
7105,76.0,0,480,2.0,92.0
7106,68.0,0,480,2.0,92.0
7107,95.0,240,480,1.0,92.0
7108,98.0,0,480,0.0,92.0
7109,74.0,960,360,0.0,44.0
7110,73.0,360,120,0.0,44.0
7111,71.0,120,360,0.0,45.0
7112,73.0,360,120,0.0,46.0
7113,74.0,120,480,0.0,46.0
7114,73.0,480,480,0.0,47.0
7115,69.0,480,360,3.0,52.0
7116,68.0,360,120,3.0,53.0
7117,78.0,0,480,0.0,48.0
7118,66.0,120,360,3.0,54.0
7119,81.0,0,480,0.0,49.0
7120,68.0,360,120,3.0,55.0
7121,78.0,0,480,0.0,50.0
7122,69.0,0,480,3.0,55.0
7123,73.0,120,480,1.0,50.0
7124,47.0,480,360,3.0,49.0
7125,76.0,0,960,0.0,55.0
7126,71.0,0,960,1.0,55.0
7127,68.0,480,960,1.0,55.0
7128,46.0,360,120,3.0,47.0
7129,47.0,0,360,3.0,47.0
7130,45.0,360,120,3.0,45.0
7131,69.0,0,960,1.0,50.0
7132,66.0,120,960,1.0,50.0
7133,75.0,0,960,0.0,50.0
7134,42.0,120,480,3.0,45.0
7135,76.0,0,480,0.0,44.0
7136,40.0,480,480,3.0,42.0
7137,68.0,0,480,1.0,44.0
7138,73.0,0,360,2.0,35.0
7139,69.0,0,360,3.0,35.0
7140,81.0,0,360,1.0,37.0
7141,85.0,480,360,0.0,37.0
7142,71.0,0,120,2.0,33.0
7143,64.0,0,120,3.0,33.0
7144,76.0,0,120,1.0,34.0
7145,83.0,360,120,0.0,34.0
7146,73.0,0,360,1.0,33.0
7147,69.0,0,360,2.0,33.0
7148,81.0,0,360,0.0,33.0
7149,61.0,120,360,3.0,33.0
7150,71.0,0,120,2.0,31.0
7151,83.0,0,120,0.0,31.0
7152,64.0,0,120,3.0,31.0
7153,76.0,360,120,1.0,31.0
7154,85.0,120,480,0.0,30.0
7155,81.0,0,480,1.0,30.0
7156,69.0,0,480,3.0,31.0
7157,73.0,0,480,2.0,31.0
7158,76.0,0,120,3.0,79.0
7159,86.0,0,360,0.0,79.0
7160,64.0,240,120,3.0,78.0
7161,88.0,120,120,0.0,74.0
7162,80.0,480,480,1.0,79.0
7163,83.0,0,480,1.0,79.0
7164,81.0,120,120,1.0,72.0
7165,85.0,0,120,0.0,72.0
7166,69.0,0,120,3.0,77.0
7167,93.0,0,120,0.0,76.0
7168,85.0,240,120,1.0,76.0
7169,57.0,0,120,3.0,77.0
7170,64.0,0,120,3.0,76.0
7171,52.0,240,120,3.0,75.0
7172,83.0,240,360,0.0,75.0
7173,74.0,0,360,1.0,75.0
7174,85.0,0,120,0.0,71.0
7175,76.0,120,120,1.0,71.0
7176,45.0,120,120,3.0,74.0
7177,73.0,0,120,1.0,69.0
7178,81.0,0,120,0.0,69.0
7179,61.0,0,120,2.0,42.0
7180,81.0,240,120,0.0,50.0
7181,64.0,0,120,2.0,42.0
7182,57.0,0,120,2.0,42.0
7183,61.0,240,240,2.0,42.0
7184,57.0,0,240,2.0,42.0
7185,64.0,0,240,2.0,42.0
7186,76.0,240,600,0.0,53.0
7187,57.0,0,240,2.0,42.0
7188,64.0,0,0,2.0,42.0
7189,61.0,0,0,2.0,42.0
7190,78.0,120,120,0.0,51.0
7191,80.0,120,120,0.0,51.0
7192,57.0,0,240,2.0,42.0
7193,81.0,120,120,0.0,51.0
7194,45.0,0,960,3.0,52.0
7195,78.0,120,480,0.0,50.0
7196,57.0,240,240,2.0,42.0
7197,62.0,0,0,2.0,43.0
7198,66.0,240,0,2.0,43.0
7199,69.0,0,600,1.0,53.0
7200,57.0,0,240,2.0,43.0
7201,71.0,120,120,0.0,51.0
7202,73.0,0,120,0.0,51.0
7203,45.0,0,960,3.0,52.0
7204,62.0,0,240,2.0,43.0
7205,66.0,0,240,2.0,43.0
7206,74.0,120,120,0.0,51.0
7207,57.0,120,240,2.0,43.0
7208,59.0,0,240,2.0,43.0
7209,62.0,240,240,2.0,43.0
7210,57.0,0,240,2.0,43.0
7211,64.0,0,0,2.0,43.0
7212,83.0,120,600,0.0,55.0
7213,85.0,120,120,0.0,52.0
7214,59.0,0,0,2.0,43.0
7215,62.0,0,0,2.0,43.0
7216,64.0,120,0,2.0,43.0
7217,57.0,0,0,2.0,43.0
7218,86.0,0,120,0.0,52.0
7219,45.0,0,960,3.0,53.0
7220,88.0,120,120,0.0,51.0
7221,61.0,0,240,2.0,43.0
7222,64.0,240,240,2.0,43.0
7223,85.0,120,480,0.0,50.0
7224,57.0,0,0,2.0,44.0
7225,76.0,0,600,1.0,57.0
7226,78.0,120,120,1.0,56.0
7227,61.0,0,240,2.0,44.0
7228,64.0,240,240,2.0,44.0
7229,80.0,120,120,1.0,55.0
7230,61.0,0,240,2.0,44.0
7231,45.0,120,0,3.0,54.0
7232,64.0,0,240,2.0,44.0
7233,57.0,0,240,2.0,44.0
7234,81.0,120,120,1.0,55.0
7235,76.0,0,120,1.0,55.0
7236,57.0,0,0,2.0,44.0
7237,61.0,0,240,2.0,44.0
7238,64.0,240,0,2.0,44.0
7239,76.0,0,360,0.0,55.0
7240,78.0,120,120,0.0,54.0
7241,61.0,0,240,2.0,44.0
7242,57.0,0,0,2.0,44.0
7243,80.0,0,120,0.0,53.0
7244,81.0,120,120,0.0,53.0
7245,61.0,120,240,2.0,44.0
7246,64.0,0,240,2.0,44.0
7247,78.0,120,120,0.0,52.0
7248,69.0,240,0,1.0,57.0
7249,66.0,0,240,2.0,45.0
7250,57.0,0,240,2.0,45.0
7251,62.0,240,0,2.0,45.0
7252,71.0,120,120,1.0,57.0
7253,57.0,0,240,2.0,45.0
7254,66.0,0,240,2.0,45.0
7255,62.0,0,0,2.0,45.0
7256,73.0,120,120,1.0,57.0
7257,45.0,0,960,3.0,54.0
7258,74.0,0,0,1.0,58.0
7259,57.0,0,240,2.0,45.0
7260,66.0,0,240,2.0,45.0
7261,83.0,0,120,0.0,54.0
7262,62.0,0,240,2.0,45.0
7263,57.0,0,0,2.0,45.0
7264,59.0,0,0,2.0,45.0
7265,64.0,0,0,2.0,45.0
7266,83.0,240,360,0.0,59.0
7267,64.0,120,0,2.0,45.0
7268,85.0,120,120,0.0,57.0
7269,62.0,0,0,2.0,45.0
7270,59.0,0,0,2.0,45.0
7271,86.0,0,120,0.0,56.0
7272,57.0,0,240,2.0,45.0
7273,88.0,120,120,0.0,55.0
7274,45.0,120,960,3.0,55.0
7275,88.0,0,120,0.0,55.0
7276,76.0,120,120,1.0,59.0
7277,45.0,0,120,3.0,55.0
7278,47.0,120,120,3.0,48.0
7279,49.0,0,120,3.0,49.0
7280,50.0,120,120,3.0,51.0
7281,49.0,120,120,3.0,52.0
7282,73.0,0,0,1.0,59.0
7283,69.0,120,0,1.0,59.0
7284,76.0,0,0,0.0,59.0
7285,50.0,120,120,3.0,54.0
7286,52.0,0,120,3.0,55.0
7287,54.0,120,120,3.0,57.0
7288,52.0,120,120,3.0,58.0
7289,54.0,120,120,3.0,59.0
7290,56.0,120,120,3.0,61.0
7291,76.0,0,0,0.0,64.0
7292,76.0,120,0,0.0,65.0
7293,69.0,0,0,1.0,65.0
7294,57.0,0,120,3.0,62.0
7295,73.0,0,0,1.0,65.0
7296,56.0,0,120,3.0,64.0
7297,57.0,120,120,3.0,65.0
7298,59.0,120,120,3.0,67.0
7299,76.0,0,0,0.0,71.0
7300,61.0,0,120,3.0,68.0
7301,76.0,120,0,0.0,72.0
7302,69.0,120,120,1.0,71.0
7303,73.0,0,120,1.0,71.0
7304,85.0,0,120,1.0,49.0
7305,59.0,0,120,2.0,72.0
7306,52.0,0,120,3.0,72.0
7307,62.0,0,120,2.0,72.0
7308,71.0,0,120,1.0,72.0
7309,68.0,0,120,1.0,72.0
7310,66.0,120,120,0.0,72.0
7311,68.0,0,120,0.0,73.0
7312,69.0,120,120,0.0,73.0
7313,68.0,120,120,0.0,74.0
7314,69.0,120,120,0.0,75.0
7315,40.0,120,480,3.0,73.0
7316,52.0,0,480,2.0,73.0
7317,71.0,120,120,0.0,75.0
7318,73.0,120,120,0.0,76.0
7319,71.0,120,120,0.0,76.0
7320,73.0,120,120,0.0,77.0
7321,40.0,0,600,3.0,75.0
7322,52.0,0,600,2.0,75.0
7323,74.0,120,120,0.0,78.0
7324,40.0,120,120,3.0,77.0
7325,47.0,0,120,2.0,77.0
7326,50.0,120,0,2.0,77.0
7327,76.0,0,120,0.0,78.0
7328,74.0,0,120,0.0,79.0
7329,76.0,120,120,0.0,79.0
7330,78.0,120,120,0.0,80.0
7331,50.0,120,0,2.0,79.0
7332,47.0,0,0,2.0,79.0
7333,40.0,0,360,3.0,77.0
7334,40.0,0,120,3.0,79.0
7335,80.0,0,120,0.0,80.0
7336,45.0,0,120,3.0,79.0
7337,81.0,120,120,0.0,81.0
7338,47.0,120,120,3.0,56.0
7339,49.0,0,120,3.0,58.0
7340,50.0,120,120,3.0,60.0
7341,49.0,120,120,3.0,62.0
7342,73.0,0,480,1.0,58.0
7343,69.0,120,0,1.0,66.0
7344,50.0,120,120,3.0,64.0
7345,76.0,0,0,0.0,66.0
7346,52.0,0,120,3.0,66.0
7347,54.0,120,120,3.0,68.0
7348,52.0,120,120,3.0,69.0
7349,54.0,120,120,3.0,71.0
7350,56.0,120,120,3.0,73.0
7351,69.0,0,0,1.0,76.0
7352,73.0,0,0,1.0,76.0
7353,76.0,0,0,0.0,76.0
7354,57.0,120,120,3.0,75.0
7355,56.0,120,120,3.0,77.0
7356,57.0,120,120,3.0,79.0
7357,76.0,0,360,0.0,78.0
7358,59.0,120,120,3.0,81.0
7359,69.0,120,0,1.0,84.0
7360,73.0,0,360,1.0,78.0
7361,73.0,0,120,1.0,84.0
7362,76.0,120,0,0.0,86.0
7363,61.0,0,120,3.0,83.0
7364,68.0,0,120,1.0,86.0
7365,52.0,0,120,3.0,86.0
7366,59.0,0,120,2.0,86.0
7367,62.0,0,120,2.0,86.0
7368,71.0,0,120,1.0,86.0
7369,78.0,120,120,0.0,86.0
7370,80.0,0,120,0.0,87.0
7371,81.0,120,120,0.0,87.0
7372,80.0,120,120,0.0,88.0
7373,64.0,0,480,2.0,87.0
7374,52.0,0,0,3.0,89.0
7375,81.0,120,120,0.0,89.0
7376,83.0,120,120,0.0,89.0
7377,85.0,120,120,0.0,90.0
7378,83.0,120,120,0.0,91.0
7379,85.0,120,120,0.0,91.0
7380,86.0,120,120,0.0,92.0
7381,64.0,0,600,2.0,89.0
7382,74.0,0,120,2.0,92.0
7383,88.0,120,120,0.0,93.0
7384,71.0,0,120,2.0,92.0
7385,64.0,0,0,3.0,93.0
7386,86.0,0,120,0.0,93.0
7387,88.0,120,120,0.0,94.0
7388,74.0,120,360,2.0,93.0
7389,71.0,0,360,2.0,93.0
7390,90.0,120,120,0.0,95.0
7391,92.0,0,120,0.0,95.0
7392,71.0,120,120,2.0,94.0
7393,74.0,0,120,2.0,94.0
7394,64.0,0,120,3.0,94.0
7395,66.0,0,480,3.0,95.0
7396,81.0,0,480,1.0,96.0
7397,85.0,120,480,1.0,96.0
7398,73.0,0,480,2.0,95.0
7399,69.0,0,480,2.0,95.0
7400,93.0,0,480,0.0,96.0
7401,50.0,0,120,3.0,49.0
7402,62.0,0,120,3.0,49.0
7403,78.0,720,120,1.0,47.0
7404,71.0,0,120,1.0,47.0
7405,83.0,0,120,0.0,47.0
7406,71.0,0,240,1.0,50.0
7407,78.0,240,240,1.0,50.0
7408,83.0,0,240,0.0,50.0
7409,50.0,0,480,3.0,48.0
7410,62.0,0,480,3.0,48.0
7411,59.0,0,120,2.0,46.0
7412,86.0,720,120,0.0,44.0
7413,47.0,0,120,3.0,46.0
7414,74.0,0,120,1.0,44.0
7415,74.0,240,120,1.0,47.0
7416,47.0,0,120,3.0,49.0
7417,86.0,0,120,0.0,47.0
7418,59.0,0,120,2.0,49.0
7419,59.0,0,120,2.0,47.0
7420,80.0,0,120,0.0,45.0
7421,52.0,240,120,3.0,47.0
7422,74.0,0,120,1.0,45.0
7423,68.0,0,120,1.0,45.0
7424,52.0,0,120,3.0,45.0
7425,59.0,0,120,2.0,45.0
7426,74.0,240,120,1.0,43.0
7427,68.0,0,120,1.0,43.0
7428,80.0,0,120,0.0,43.0
7429,45.0,0,120,3.0,42.0
7430,73.0,0,120,1.0,41.0
7431,57.0,0,120,2.0,42.0
7432,69.0,240,120,1.0,41.0
7433,81.0,0,120,0.0,41.0
7434,83.0,240,480,0.0,39.0
7435,52.0,0,480,2.0,40.0
7436,40.0,0,480,3.0,40.0
7437,80.0,0,480,1.0,39.0
7438,71.0,0,480,1.0,39.0
7439,64.0,960,240,1.0,38.0
7440,74.0,0,240,0.0,38.0
7441,56.0,0,240,3.0,39.0
7442,71.0,0,240,1.0,38.0
7443,64.0,0,120,1.0,36.0
7444,57.0,0,120,3.0,36.0
7445,73.0,720,120,0.0,36.0
7446,69.0,0,120,1.0,36.0
7447,69.0,0,240,1.0,35.0
7448,64.0,240,240,1.0,35.0
7449,73.0,0,240,0.0,35.0
7450,57.0,0,240,3.0,35.0
7451,69.0,0,120,1.0,33.0
7452,66.0,0,120,1.0,33.0
7453,71.0,0,120,0.0,33.0
7454,50.0,720,120,3.0,33.0
7455,66.0,0,120,1.0,32.0
7456,69.0,240,120,1.0,32.0
7457,50.0,0,120,3.0,32.0
7458,71.0,0,120,0.0,32.0
7459,52.0,0,120,3.0,31.0
7460,76.0,240,120,0.0,31.0
7461,68.0,0,120,1.0,31.0
7462,76.0,0,120,0.0,31.0
7463,68.0,0,120,1.0,31.0
7464,52.0,240,120,3.0,31.0
7465,69.0,0,120,0.0,30.0
7466,45.0,240,120,3.0,30.0
7467,69.0,240,480,0.0,29.0
7468,45.0,0,480,3.0,29.0
7469,35.0,960,120,3.0,26.0
7470,40.0,240,120,3.0,27.0
7471,40.0,240,120,3.0,27.0
7472,33.0,240,120,3.0,28.0
7473,33.0,240,480,3.0,28.0
7474,35.0,960,120,3.0,30.0
7475,40.0,240,120,3.0,31.0
7476,40.0,240,120,3.0,31.0
7477,33.0,240,120,3.0,32.0
7478,62.0,0,960,1.0,32.0
7479,64.0,0,0,0.0,33.0
7480,33.0,0,480,3.0,32.0
7481,66.0,600,120,0.0,34.0
7482,68.0,120,120,0.0,34.0
7483,69.0,120,120,0.0,34.0
7484,61.0,240,960,1.0,33.0
7485,35.0,0,120,3.0,34.0
7486,40.0,240,120,3.0,35.0
7487,40.0,240,120,3.0,35.0
7488,33.0,240,120,3.0,36.0
7489,62.0,120,960,1.0,34.0
7490,64.0,0,0,1.0,36.0
7491,68.0,0,960,0.0,34.0
7492,33.0,240,480,3.0,36.0
7493,69.0,0,600,0.0,36.0
7494,61.0,0,720,1.0,36.0
7495,71.0,600,120,0.0,37.0
7496,73.0,120,120,0.0,37.0
7497,76.0,120,120,0.0,37.0
7498,35.0,120,120,3.0,38.0
7499,40.0,240,120,3.0,39.0
7500,40.0,240,120,3.0,39.0
7501,33.0,240,120,3.0,40.0
7502,64.0,0,0,0.0,39.0
7503,62.0,0,960,1.0,37.0
7504,33.0,240,480,3.0,40.0
7505,66.0,600,120,0.0,39.0
7506,68.0,120,120,0.0,40.0
7507,69.0,120,120,0.0,40.0
7508,61.0,0,960,1.0,39.0
7509,35.0,120,120,3.0,42.0
7510,40.0,240,120,3.0,43.0
7511,40.0,240,120,3.0,43.0
7512,33.0,240,120,3.0,44.0
7513,64.0,0,960,1.0,40.0
7514,68.0,0,960,0.0,40.0
7515,62.0,0,960,1.0,40.0
7516,33.0,240,480,3.0,44.0
7517,69.0,0,600,0.0,41.0
7518,64.0,0,720,1.0,41.0
7519,71.0,600,120,0.0,42.0
7520,61.0,0,720,1.0,41.0
7521,73.0,120,120,0.0,42.0
7522,76.0,120,120,0.0,43.0
7523,57.0,0,1440,2.0,46.0
7524,76.0,0,1440,1.0,43.0
7525,45.0,0,1440,3.0,46.0
7526,52.0,0,1440,2.0,46.0
7527,73.0,120,1440,1.0,43.0
7528,79.0,0,1440,0.0,43.0
7529,49.0,0,1440,2.0,46.0
7530,67.0,0,1440,1.0,43.0
7531,45.0,0,120,2.0,91.0
7532,33.0,0,120,3.0,93.0
7533,81.0,0,120,0.0,93.0
7534,69.0,1680,120,1.0,94.0
7535,78.0,0,240,0.0,96.0
7536,66.0,240,240,1.0,98.0
7537,30.0,0,240,3.0,98.0
7538,42.0,0,240,2.0,95.0
7539,69.0,0,120,0.0,45.0
7540,33.0,1680,120,3.0,44.0
7541,57.0,0,120,1.0,45.0
7542,45.0,0,120,2.0,44.0
7543,29.0,0,240,3.0,49.0
7544,65.0,240,240,0.0,47.0
7545,41.0,0,240,2.0,49.0
7546,53.0,0,240,1.0,48.0
7547,45.0,1680,120,3.0,30.0
7548,41.0,240,615,3.0,39.0
7549,43.0,600,120,3.0,34.0
7550,45.0,120,120,3.0,33.0
7551,46.0,120,120,3.0,32.0
7552,40.0,120,480,3.0,31.0
7553,58.0,720,120,0.0,34.0
7554,43.0,0,120,3.0,34.0
7555,55.0,0,600,0.0,39.0
7556,40.0,240,622,3.0,41.0
7557,57.0,0,120,0.0,36.0
7558,41.0,600,120,3.0,36.0
7559,43.0,120,120,3.0,35.0
7560,58.0,0,120,0.0,35.0
7561,45.0,120,120,3.0,35.0
7562,60.0,0,120,0.0,34.0
7563,41.0,0,480,3.0,34.0
7564,57.0,120,480,0.0,34.0
7565,72.0,720,120,0.0,38.0
7566,69.0,0,553,0.0,43.0
7567,71.0,600,120,0.0,40.0
7568,72.0,120,120,0.0,39.0
7569,57.0,0,960,2.0,39.0
7570,74.0,120,120,0.0,38.0
7571,53.0,240,960,3.0,39.0
7572,59.0,120,480,2.0,41.0
7573,68.0,0,480,0.0,38.0
7574,52.0,0,480,3.0,41.0
7575,59.0,0,120,2.0,42.0
7576,74.0,720,120,0.0,41.0
7577,56.0,0,600,2.0,43.0
7578,71.0,240,600,0.0,49.0
7579,57.0,600,120,2.0,44.0
7580,73.0,0,120,0.0,45.0
7581,59.0,120,120,2.0,44.0
7582,74.0,0,120,0.0,44.0
7583,76.0,120,120,0.0,43.0
7584,61.0,0,120,2.0,45.0
7585,52.0,0,1200,3.0,43.0
7586,69.0,0,240,1.0,44.0
7587,53.0,240,240,3.0,45.0
7588,74.0,0,720,0.0,42.0
7589,76.0,240,240,0.0,45.0
7590,59.0,120,960,2.0,45.0
7591,68.0,240,480,1.0,45.0
7592,52.0,0,480,3.0,46.0
7593,73.0,240,240,0.0,46.0
7594,81.0,240,240,0.0,46.0
7595,57.0,0,480,2.0,47.0
7596,76.0,240,120,0.0,47.0
7597,52.0,0,600,3.0,47.0
7598,61.0,0,120,2.0,48.0
7599,69.0,0,600,1.0,46.0
7600,52.0,240,120,3.0,48.0
7601,64.0,0,120,2.0,48.0
7602,52.0,240,240,3.0,49.0
7603,53.0,0,240,3.0,49.0
7604,80.0,0,0,0.0,49.0
7605,71.0,0,0,1.0,49.0
7606,59.0,0,720,2.0,49.0
7607,64.0,240,120,2.0,51.0
7608,81.0,0,240,0.0,49.0
7609,61.0,240,240,2.0,51.0
7610,69.0,0,240,1.0,49.0
7611,73.0,0,240,1.0,49.0
7612,76.0,240,240,0.0,49.0
7613,69.0,0,240,2.0,51.0
7614,69.0,0,120,1.0,48.0
7615,64.0,240,120,2.0,50.0
7616,73.0,0,120,0.0,48.0
7617,52.0,240,1080,3.0,50.0
7618,76.0,0,120,0.0,48.0
7619,68.0,0,120,1.0,48.0
7620,52.0,0,120,3.0,50.0
7621,59.0,240,120,2.0,50.0
7622,68.0,0,240,1.0,48.0
7623,52.0,0,240,3.0,49.0
7624,53.0,0,240,3.0,49.0
7625,69.0,240,240,1.0,47.0
7626,74.0,240,720,0.0,48.0
7627,68.0,240,480,1.0,47.0
7628,52.0,0,480,3.0,48.0
7629,76.0,240,240,0.0,46.0
7630,59.0,0,960,2.0,49.0
7631,57.0,240,240,2.0,47.0
7632,64.0,0,240,1.0,46.0
7633,45.0,0,240,3.0,47.0
7634,73.0,0,240,0.0,46.0
7635,69.0,240,240,0.0,45.0
7636,49.0,0,240,3.0,47.0
7637,66.0,240,240,0.0,45.0
7638,50.0,0,240,3.0,46.0
7639,68.0,0,240,0.0,44.0
7640,62.0,240,240,1.0,44.0
7641,47.0,0,240,3.0,46.0
7642,69.0,0,240,0.0,44.0
7643,64.0,0,240,1.0,44.0
7644,49.0,240,240,3.0,45.0
7645,50.0,0,240,3.0,45.0
7646,62.0,240,240,2.0,45.0
7647,66.0,0,240,1.0,44.0
7648,71.0,0,240,0.0,44.0
7649,69.0,0,240,0.0,43.0
7650,61.0,240,240,2.0,44.0
7651,52.0,0,240,3.0,44.0
7652,68.0,240,120,0.0,43.0
7653,76.0,120,120,0.0,42.0
7654,64.0,0,480,1.0,43.0
7655,59.0,0,240,2.0,44.0
7656,52.0,0,0,3.0,43.0
7657,74.0,0,60,0.0,41.0
7658,76.0,60,60,0.0,41.0
7659,74.0,60,60,0.0,41.0
7660,76.0,60,60,0.0,40.0
7661,68.0,120,240,1.0,42.0
7662,74.0,0,60,0.0,40.0
7663,76.0,60,60,0.0,40.0
7664,74.0,60,60,0.0,39.0
7665,69.0,60,240,1.0,42.0
7666,76.0,60,60,0.0,39.0
7667,53.0,0,240,3.0,43.0
7668,74.0,0,40,0.0,39.0
7669,76.0,40,40,0.0,38.0
7670,74.0,40,40,0.0,38.0
7671,73.0,40,60,0.0,37.0
7672,74.0,60,60,0.0,37.0
7673,59.0,0,960,2.0,43.0
7674,52.0,240,0,3.0,41.0
7675,76.0,60,240,0.0,36.0
7676,68.0,60,480,1.0,41.0
7677,73.0,0,240,0.0,36.0
7678,81.0,240,240,0.0,35.0
7679,57.0,0,480,2.0,41.0
7680,76.0,240,120,0.0,34.0
7681,61.0,0,120,2.0,40.0
7682,52.0,240,120,3.0,40.0
7683,64.0,0,120,2.0,40.0
7684,62.0,0,60,2.0,39.0
7685,64.0,60,60,2.0,39.0
7686,62.0,60,60,2.0,39.0
7687,64.0,60,60,2.0,39.0
7688,62.0,0,60,2.0,39.0
7689,64.0,60,60,2.0,39.0
7690,62.0,60,60,2.0,39.0
7691,77.0,60,240,1.0,38.0
7692,64.0,60,60,2.0,39.0
7693,62.0,0,40,2.0,38.0
7694,64.0,40,40,2.0,38.0
7695,52.0,240,592,3.0,39.0
7696,62.0,40,40,2.0,38.0
7697,61.0,40,60,2.0,38.0
7698,62.0,60,60,2.0,38.0
7699,71.0,0,480,1.0,38.0
7700,80.0,60,0,0.0,37.0
7701,76.0,60,480,1.0,38.0
7702,71.0,0,240,1.0,37.0
7703,64.0,0,240,2.0,38.0
7704,61.0,0,240,2.0,37.0
7705,81.0,0,240,0.0,37.0
7706,69.0,0,240,1.0,37.0
7707,69.0,240,240,2.0,37.0
7708,76.0,0,240,0.0,36.0
7709,73.0,0,240,1.0,36.0
7710,52.0,240,585,3.0,37.0
7711,69.0,0,120,1.0,36.0
7712,73.0,0,120,0.0,36.0
7713,64.0,240,120,2.0,36.0
7714,52.0,0,120,3.0,36.0
7715,59.0,0,120,2.0,36.0
7716,68.0,240,120,1.0,35.0
7717,76.0,0,120,0.0,35.0
7718,74.0,240,60,0.0,35.0
7719,76.0,60,60,0.0,35.0
7720,74.0,60,60,0.0,35.0
7721,68.0,0,240,1.0,35.0
7722,52.0,0,240,3.0,35.0
7723,76.0,60,60,0.0,34.0
7724,74.0,0,60,0.0,34.0
7725,76.0,60,60,0.0,34.0
7726,74.0,60,60,0.0,34.0
7727,53.0,60,240,3.0,35.0
7728,69.0,0,240,1.0,35.0
7729,76.0,60,60,0.0,33.0
7730,74.0,60,40,0.0,33.0
7731,76.0,40,40,0.0,33.0
7732,74.0,40,40,0.0,33.0
7733,73.0,40,60,0.0,33.0
7734,74.0,60,60,0.0,32.0
7735,52.0,0,480,3.0,34.0
7736,59.0,0,960,2.0,35.0
7737,68.0,0,480,1.0,34.0
7738,76.0,60,240,0.0,32.0
7739,73.0,0,40,0.0,31.0
7740,74.0,40,40,0.0,31.0
7741,73.0,40,40,0.0,31.0
7742,71.0,40,60,0.0,31.0
7743,73.0,60,60,0.0,30.0
7744,57.0,240,240,3.0,33.0
7745,64.0,60,0,1.0,33.0
7746,61.0,0,240,2.0,33.0
7747,49.0,0,240,3.0,33.0
7748,69.0,0,240,0.0,30.0
7749,66.0,0,240,0.0,32.0
7750,50.0,240,240,3.0,32.0
7751,57.0,0,240,1.0,32.0
7752,68.0,0,240,0.0,32.0
7753,47.0,0,240,3.0,32.0
7754,64.0,0,0,1.0,31.0
7755,62.0,0,240,1.0,32.0
7756,49.0,240,240,3.0,31.0
7757,69.0,0,240,0.0,31.0
7758,71.0,240,240,0.0,31.0
7759,66.0,0,240,1.0,31.0
7760,50.0,0,240,3.0,31.0
7761,68.0,240,120,0.0,30.0
7762,59.0,0,120,1.0,30.0
7763,52.0,0,120,3.0,30.0
7764,63.0,0,120,3.0,30.0
7765,66.0,120,120,1.0,30.0
7766,68.0,0,120,1.0,30.0
7767,64.0,120,120,3.0,30.0
7768,69.0,120,120,1.0,30.0
7769,66.0,0,120,3.0,30.0
7770,71.0,0,120,1.0,30.0
7771,68.0,120,120,3.0,30.0
7772,73.0,120,120,1.0,30.0
7773,69.0,0,120,3.0,30.0
7774,74.0,120,120,1.0,30.0
7775,71.0,0,120,3.0,30.0
7776,76.0,120,120,1.0,31.0
7777,73.0,0,120,3.0,31.0
7778,73.0,120,120,1.0,31.0
7779,69.0,0,120,3.0,31.0
7780,71.0,120,120,1.0,32.0
7781,68.0,0,120,3.0,32.0
7782,66.0,0,120,3.0,32.0
7783,69.0,120,120,1.0,32.0
7784,68.0,120,120,3.0,32.0
7785,71.0,0,120,1.0,33.0
7786,69.0,0,120,3.0,33.0
7787,73.0,120,120,1.0,33.0
7788,71.0,120,120,3.0,33.0
7789,74.0,0,120,1.0,34.0
7790,76.0,0,120,1.0,34.0
7791,88.0,0,120,0.0,52.0
7792,73.0,120,120,3.0,34.0
7793,78.0,120,120,1.0,34.0
7794,74.0,0,120,3.0,34.0
7795,81.0,120,120,0.0,50.0
7796,76.0,0,120,1.0,35.0
7797,73.0,0,120,3.0,34.0
7798,71.0,120,120,3.0,35.0
7799,74.0,0,120,1.0,35.0
7800,73.0,120,120,3.0,35.0
7801,76.0,0,120,1.0,36.0
7802,73.0,120,120,1.0,36.0
7803,69.0,0,120,3.0,35.0
7804,68.0,120,120,3.0,36.0
7805,71.0,0,120,1.0,37.0
7806,69.0,0,120,3.0,36.0
7807,73.0,120,120,1.0,37.0
7808,71.0,120,120,3.0,37.0
7809,74.0,0,120,1.0,38.0
7810,73.0,0,120,3.0,37.0
7811,76.0,120,120,1.0,38.0
7812,73.0,0,120,1.0,38.0
7813,69.0,120,120,3.0,37.0
7814,68.0,0,120,3.0,38.0
7815,71.0,120,120,1.0,39.0
7816,66.0,0,120,3.0,38.0
7817,69.0,120,120,1.0,39.0
7818,68.0,0,120,3.0,39.0
7819,71.0,120,120,1.0,40.0
7820,73.0,120,120,0.0,40.0
7821,69.0,0,120,1.0,40.0
7822,74.0,0,120,0.0,41.0
7823,71.0,120,120,1.0,41.0
7824,73.0,120,120,1.0,41.0
7825,76.0,0,120,0.0,41.0
7826,64.0,0,120,3.0,60.0
7827,78.0,0,120,0.0,41.0
7828,74.0,120,120,1.0,41.0
7829,73.0,0,120,1.0,42.0
7830,76.0,120,120,0.0,42.0
7831,57.0,0,120,3.0,57.0
7832,71.0,120,120,1.0,42.0
7833,74.0,0,120,0.0,42.0
7834,73.0,0,120,1.0,43.0
7835,76.0,120,120,0.0,43.0
7836,73.0,120,120,0.0,44.0
7837,69.0,0,120,1.0,44.0
7838,68.0,120,120,3.0,44.0
7839,71.0,0,120,0.0,44.0
7840,73.0,0,120,0.0,45.0
7841,69.0,120,120,3.0,45.0
7842,71.0,120,120,3.0,45.0
7843,74.0,0,120,0.0,46.0
7844,73.0,120,120,3.0,46.0
7845,76.0,0,120,0.0,47.0
7846,69.0,0,120,3.0,47.0
7847,73.0,120,120,0.0,47.0
7848,68.0,120,120,3.0,47.0
7849,71.0,0,120,0.0,48.0
7850,66.0,120,120,3.0,48.0
7851,69.0,0,120,0.0,49.0
7852,68.0,120,120,3.0,48.0
7853,71.0,0,120,0.0,50.0
7854,69.0,120,120,3.0,49.0
7855,73.0,0,120,0.0,53.0
7856,76.0,240,120,3.0,61.0
7857,69.0,240,120,3.0,60.0
7858,88.0,240,120,0.0,64.0
7859,81.0,240,120,0.0,60.0
7860,76.0,240,120,3.0,55.0
7861,69.0,240,120,3.0,54.0
7862,64.0,240,120,0.0,57.0
7863,57.0,240,120,0.0,56.0
7864,52.0,240,120,3.0,48.0
7865,45.0,240,120,3.0,47.0
7866,40.0,240,120,3.0,45.0
7867,32.0,240,120,2.0,42.0
7868,33.0,120,120,2.0,37.0
7869,32.0,120,120,2.0,37.0
7870,33.0,120,120,2.0,37.0
7871,32.0,120,120,2.0,37.0
7872,33.0,120,120,2.0,37.0
7873,32.0,120,120,2.0,37.0
7874,33.0,120,120,2.0,37.0
7875,32.0,120,120,2.0,36.0
7876,33.0,120,120,2.0,36.0
7877,32.0,120,120,2.0,36.0
7878,64.0,0,120,0.0,43.0
7879,33.0,120,120,2.0,36.0
7880,61.0,0,120,0.0,43.0
7881,32.0,120,120,2.0,36.0
7882,33.0,0,120,2.0,36.0
7883,62.0,120,120,0.0,43.0
7884,32.0,120,120,2.0,36.0
7885,64.0,0,120,0.0,43.0
7886,66.0,0,120,0.0,43.0
7887,33.0,120,120,2.0,36.0
7888,32.0,0,120,2.0,35.0
7889,62.0,120,120,0.0,42.0
7890,33.0,120,120,2.0,35.0
7891,32.0,120,120,2.0,35.0
7892,57.0,0,120,1.0,42.0
7893,33.0,120,120,2.0,35.0
7894,54.0,0,120,1.0,42.0
7895,32.0,120,120,2.0,35.0
7896,57.0,0,120,1.0,42.0
7897,33.0,120,120,2.0,35.0
7898,32.0,0,120,2.0,35.0
7899,62.0,120,120,1.0,41.0
7900,33.0,0,120,2.0,35.0
7901,59.0,120,120,1.0,41.0
7902,32.0,0,120,2.0,34.0
7903,56.0,0,120,1.0,41.0
7904,33.0,120,120,2.0,34.0
7905,32.0,0,120,2.0,34.0
7906,74.0,120,120,0.0,41.0
7907,33.0,120,120,2.0,34.0
7908,32.0,0,120,2.0,34.0
7909,71.0,0,120,0.0,40.0
7910,33.0,0,120,2.0,34.0
7911,73.0,120,120,0.0,40.0
7912,32.0,0,120,2.0,34.0
7913,74.0,120,120,0.0,40.0
7914,33.0,120,120,2.0,34.0
7915,76.0,0,120,0.0,40.0
7916,73.0,0,120,0.0,40.0
7917,32.0,120,120,2.0,33.0
7918,33.0,120,120,2.0,33.0
7919,32.0,120,120,2.0,33.0
7920,76.0,0,120,0.0,39.0
7921,33.0,120,120,2.0,33.0
7922,81.0,0,120,0.0,39.0
7923,32.0,120,120,2.0,33.0
7924,68.0,120,1087,1.0,40.0
7925,33.0,120,120,2.0,33.0
7926,32.0,120,120,2.0,33.0
7927,33.0,120,120,2.0,33.0
7928,32.0,120,120,2.0,32.0
7929,33.0,120,120,2.0,32.0
7930,64.0,0,120,0.0,38.0
7931,32.0,120,120,2.0,32.0
7932,33.0,120,120,2.0,32.0
7933,62.0,0,120,0.0,38.0
7934,32.0,120,120,2.0,32.0
7935,61.0,0,120,0.0,38.0
7936,62.0,0,120,0.0,38.0
7937,33.0,120,120,2.0,32.0
7938,64.0,120,120,0.0,38.0
7939,32.0,0,120,2.0,32.0
7940,33.0,0,120,2.0,32.0
7941,66.0,120,120,0.0,37.0
7942,32.0,120,120,2.0,31.0
7943,62.0,0,120,0.0,37.0
7944,33.0,120,120,2.0,31.0
7945,57.0,120,120,1.0,37.0
7946,32.0,0,120,2.0,31.0
7947,55.0,0,120,1.0,37.0
7948,33.0,120,120,2.0,31.0
7949,32.0,0,120,2.0,31.0
7950,54.0,120,120,1.0,37.0
7951,33.0,0,120,2.0,31.0
7952,57.0,120,120,1.0,36.0
7953,32.0,120,120,2.0,31.0
7954,62.0,0,120,1.0,36.0
7955,28.0,120,3795,3.0,43.0
7956,59.0,0,120,1.0,36.0
7957,33.0,120,120,2.0,31.0
7958,32.0,0,120,2.0,30.0
7959,56.0,0,120,1.0,36.0
7960,33.0,120,120,2.0,30.0
7961,32.0,120,120,2.0,30.0
7962,74.0,0,120,0.0,36.0
7963,73.0,0,120,0.0,35.0
7964,33.0,120,120,2.0,30.0
7965,71.0,0,120,0.0,35.0
7966,32.0,0,120,2.0,30.0
7967,73.0,120,120,0.0,35.0
7968,33.0,0,120,2.0,30.0
7969,74.0,120,120,0.0,35.0
7970,32.0,0,120,2.0,30.0
7971,76.0,0,120,0.0,35.0
7972,33.0,120,120,2.0,30.0
7973,73.0,0,120,0.0,35.0
7974,32.0,120,120,2.0,29.0
7975,33.0,120,120,2.0,29.0
7976,76.0,0,120,0.0,34.0
7977,32.0,120,120,2.0,29.0
7978,33.0,120,120,2.0,29.0
7979,81.0,120,120,0.0,34.0
7980,32.0,0,120,2.0,29.0
7981,68.0,120,1095,1.0,35.0
7982,33.0,120,120,2.0,29.0
7983,32.0,120,120,2.0,29.0
7984,33.0,120,120,2.0,29.0
7985,28.0,120,0,3.0,37.0
7986,32.0,0,120,2.0,28.0
7987,33.0,120,120,2.0,28.0
7988,32.0,120,120,2.0,28.0
7989,74.0,0,120,0.0,33.0
7990,33.0,0,120,2.0,28.0
7991,73.0,120,120,0.0,33.0
7992,71.0,0,120,0.0,33.0
7993,32.0,120,120,2.0,28.0
7994,73.0,0,120,0.0,33.0
7995,33.0,120,120,2.0,28.0
7996,74.0,120,120,0.0,32.0
7997,32.0,0,120,2.0,28.0
7998,33.0,120,120,2.0,28.0
7999,76.0,0,120,0.0,32.0
8000,32.0,120,120,2.0,27.0
8001,73.0,0,120,0.0,32.0
8002,33.0,120,120,2.0,27.0
8003,32.0,120,120,2.0,27.0
8004,76.0,0,120,0.0,32.0
8005,33.0,120,120,2.0,27.0
8006,81.0,0,120,0.0,31.0
8007,32.0,120,120,2.0,27.0
8008,68.0,0,1575,1.0,33.0
8009,33.0,120,120,2.0,27.0
8010,32.0,120,120,2.0,27.0
8011,33.0,120,120,2.0,27.0
8012,28.0,0,0,3.0,34.0
8013,32.0,120,120,2.0,26.0
8014,33.0,120,120,2.0,26.0
8015,32.0,0,120,2.0,26.0
8016,74.0,120,120,0.0,30.0
8017,33.0,120,120,2.0,26.0
8018,73.0,0,120,0.0,30.0
8019,71.0,120,120,0.0,30.0
8020,32.0,0,120,2.0,26.0
8021,73.0,120,120,0.0,30.0
8022,33.0,0,120,2.0,26.0
8023,32.0,0,120,2.0,26.0
8024,74.0,120,120,0.0,30.0
8025,76.0,120,120,0.0,30.0
8026,33.0,0,120,2.0,26.0
8027,68.0,0,960,1.0,31.0
8028,45.0,0,120,2.0,68.0
8029,33.0,0,120,3.0,68.0
8030,61.0,0,120,1.0,68.0
8031,64.0,0,120,1.0,68.0
8032,69.0,120,120,0.0,68.0
8033,69.0,0,120,1.0,72.0
8034,64.0,0,120,1.0,72.0
8035,73.0,0,120,0.0,72.0
8036,33.0,240,120,3.0,71.0
8037,40.0,0,120,2.0,71.0
8038,45.0,0,120,2.0,71.0
8039,37.0,0,120,2.0,71.0
8040,76.0,0,120,0.0,75.0
8041,33.0,0,120,3.0,75.0
8042,73.0,0,120,1.0,75.0
8043,37.0,240,120,2.0,75.0
8044,45.0,0,120,2.0,75.0
8045,40.0,0,120,2.0,75.0
8046,69.0,0,120,1.0,75.0
8047,40.0,240,120,2.0,78.0
8048,69.0,0,120,1.0,79.0
8049,76.0,0,120,1.0,79.0
8050,73.0,0,120,1.0,79.0
8051,37.0,0,120,2.0,78.0
8052,33.0,0,120,3.0,78.0
8053,45.0,0,120,2.0,78.0
8054,81.0,0,120,0.0,79.0
8055,85.0,0,120,0.0,83.0
8056,45.0,0,120,2.0,82.0
8057,37.0,0,120,2.0,82.0
8058,40.0,0,120,2.0,82.0
8059,76.0,0,120,1.0,83.0
8060,81.0,240,120,1.0,83.0
8061,33.0,0,120,3.0,82.0
8062,73.0,0,120,1.0,83.0
8063,88.0,0,120,0.0,96.0
8064,81.0,0,120,1.0,96.0
8065,33.0,0,120,3.0,91.0
8066,45.0,0,120,2.0,91.0
8067,40.0,480,120,2.0,91.0
8068,37.0,0,120,2.0,91.0
8069,76.0,0,120,1.0,96.0
8070,85.0,0,120,1.0,96.0
8071,81.0,0,480,1.0,108.0
8072,93.0,0,480,0.0,108.0
8073,33.0,480,480,3.0,104.0
8074,37.0,0,480,2.0,104.0
8075,40.0,0,480,2.0,104.0
8076,45.0,0,480,2.0,104.0
8077,85.0,0,480,1.0,108.0
8078,88.0,0,480,1.0,108.0
