,note,step,duration,channel,velocity
0,66.0,0,94,0.0,60.0
1,50.0,0,160,1.0,60.0
2,57.0,0,160,1.0,60.0
3,66.0,96,192,0.0,60.0
4,64.0,0,94,0.0,60.0
5,55.0,192,94,1.0,60.0
6,59.0,0,94,1.0,60.0
7,54.0,0,94,1.0,60.0
8,57.0,96,94,1.0,60.0
9,62.0,0,94,0.0,60.0
10,62.0,0,24,0.0,60.0
11,52.0,96,94,1.0,75.0
12,59.0,0,94,1.0,75.0
13,67.0,24,232,0.0,92.0
14,67.0,264,32,0.0,60.0
15,67.0,96,24,0.0,60.0
16,45.0,0,32,1.0,45.0
17,49.0,0,32,1.0,45.0
18,55.0,0,32,1.0,45.0
19,52.0,0,32,1.0,45.0
20,69.0,24,24,0.0,60.0
21,71.0,24,24,0.0,60.0
22,69.0,24,0,0.0,60.0
23,66.0,0,24,0.0,60.0
24,67.0,24,24,0.0,60.0
25,71.0,24,48,0.0,60.0
26,55.0,0,32,1.0,45.0
27,49.0,0,32,1.0,45.0
28,52.0,0,32,1.0,45.0
29,45.0,48,32,1.0,45.0
30,69.0,0,48,0.0,60.0
31,67.0,48,48,0.0,60.0
32,66.0,48,48,0.0,60.0
33,64.0,48,46,0.0,60.0
34,50.0,0,32,1.0,45.0
35,54.0,0,32,1.0,45.0
36,66.0,48,94,0.0,60.0
37,62.0,96,94,0.0,60.0
38,62.0,96,32,0.0,60.0
39,78.0,96,32,0.0,60.0
40,62.0,96,94,1.0,45.0
41,69.0,0,94,1.0,45.0
42,78.0,96,192,0.0,60.0
43,71.0,0,94,1.0,45.0
44,67.0,0,94,1.0,45.0
45,76.0,96,96,0.0,60.0
46,66.0,96,94,1.0,45.0
47,69.0,0,94,1.0,45.0
48,74.0,0,94,0.0,60.0
49,74.0,0,24,0.0,92.0
50,71.0,0,32,1.0,75.0
51,64.0,96,32,1.0,75.0
52,79.0,24,232,0.0,92.0
53,79.0,264,32,0.0,60.0
54,79.0,96,22,0.0,60.0
55,64.0,0,32,1.0,45.0
56,71.0,0,32,1.0,45.0
57,67.0,0,32,1.0,45.0
58,61.0,0,32,1.0,45.0
59,81.0,24,22,0.0,60.0
60,83.0,24,22,0.0,60.0
61,81.0,24,22,0.0,60.0
62,78.0,0,22,0.0,60.0
63,79.0,24,22,0.0,60.0
64,81.0,24,46,0.0,60.0
65,83.0,24,46,0.0,60.0
66,71.0,0,32,1.0,45.0
67,61.0,0,32,1.0,45.0
68,64.0,0,32,1.0,45.0
69,67.0,0,32,1.0,45.0
70,81.0,48,46,0.0,60.0
71,79.0,48,46,0.0,60.0
72,78.0,48,46,0.0,60.0
73,76.0,48,46,0.0,60.0
74,66.0,0,160,1.0,45.0
75,62.0,0,160,1.0,45.0
76,74.0,48,160,0.0,60.0
77,66.0,288,94,0.0,60.0
78,50.0,0,160,1.0,60.0
79,57.0,0,160,1.0,60.0
80,66.0,96,192,0.0,60.0
81,55.0,192,94,1.0,60.0
82,64.0,0,94,0.0,60.0
83,59.0,0,94,1.0,60.0
84,62.0,96,94,0.0,60.0
85,54.0,0,94,1.0,60.0
86,57.0,0,94,1.0,60.0
87,62.0,0,24,0.0,60.0
88,59.0,0,94,1.0,75.0
89,52.0,96,94,1.0,75.0
90,67.0,24,232,0.0,92.0
91,67.0,264,32,0.0,60.0
92,67.0,0,24,0.0,60.0
93,49.0,0,32,1.0,45.0
94,52.0,0,32,1.0,45.0
95,55.0,0,32,1.0,45.0
96,45.0,96,32,1.0,45.0
97,69.0,24,24,0.0,60.0
98,71.0,24,24,0.0,60.0
99,69.0,24,0,0.0,60.0
100,66.0,0,24,0.0,60.0
101,67.0,24,24,0.0,60.0
102,71.0,24,48,0.0,60.0
103,55.0,0,32,1.0,45.0
104,52.0,0,32,1.0,45.0
105,49.0,0,32,1.0,45.0
106,45.0,0,32,1.0,45.0
107,69.0,48,48,0.0,60.0
108,67.0,48,48,0.0,60.0
109,66.0,48,48,0.0,60.0
110,64.0,48,46,0.0,60.0
111,54.0,0,32,1.0,45.0
112,50.0,48,32,1.0,45.0
113,66.0,0,94,0.0,60.0
114,62.0,96,94,0.0,60.0
115,62.0,96,32,0.0,60.0
116,78.0,96,32,0.0,60.0
117,62.0,96,94,1.0,45.0
118,69.0,0,94,1.0,45.0
119,78.0,96,192,0.0,60.0
120,71.0,0,94,1.0,45.0
121,67.0,0,94,1.0,45.0
122,76.0,96,96,0.0,60.0
123,66.0,0,94,1.0,45.0
124,69.0,96,94,1.0,45.0
125,74.0,0,94,0.0,60.0
126,74.0,0,24,0.0,92.0
127,64.0,96,32,1.0,75.0
128,71.0,0,32,1.0,75.0
129,79.0,24,232,0.0,92.0
130,79.0,264,32,0.0,60.0
131,79.0,96,22,0.0,60.0
132,61.0,0,32,1.0,45.0
133,64.0,0,32,1.0,45.0
134,67.0,0,32,1.0,45.0
135,71.0,0,32,1.0,45.0
136,81.0,24,22,0.0,60.0
137,83.0,24,22,0.0,60.0
138,81.0,24,22,0.0,60.0
139,78.0,0,22,0.0,60.0
140,79.0,24,22,0.0,60.0
141,81.0,24,46,0.0,60.0
142,83.0,24,46,0.0,60.0
143,61.0,0,32,1.0,45.0
144,71.0,0,32,1.0,45.0
145,67.0,0,32,1.0,45.0
146,64.0,48,32,1.0,45.0
147,81.0,0,46,0.0,60.0
148,79.0,48,46,0.0,60.0
149,78.0,48,46,0.0,60.0
150,76.0,48,46,0.0,60.0
151,74.0,48,160,0.0,60.0
152,62.0,0,160,1.0,45.0
153,66.0,0,160,1.0,45.0
154,78.0,288,94,0.0,60.0
155,76.0,96,94,0.0,60.0
156,74.0,96,94,0.0,60.0
157,73.0,96,94,0.0,60.0
158,71.0,0,94,0.0,60.0
159,62.0,0,94,0.0,60.0
160,54.0,96,94,1.0,45.0
161,47.0,0,94,1.0,45.0
162,49.0,96,94,1.0,45.0
163,71.0,0,94,0.0,60.0
164,64.0,0,160,0.0,60.0
165,42.0,96,94,1.0,48.0
166,70.0,0,94,0.0,64.0
167,71.0,0,32,0.0,68.0
168,47.0,96,32,1.0,51.0
169,62.0,0,32,0.0,68.0
170,54.0,0,256,1.0,45.0
171,78.0,96,94,0.0,72.0
172,76.0,96,94,0.0,76.0
173,74.0,96,94,0.0,80.0
174,73.0,96,94,0.0,84.0
175,62.0,96,32,1.0,71.0
176,71.0,0,32,0.0,88.0
177,59.0,0,32,1.0,71.0
178,69.0,0,256,0.0,92.0
179,61.0,0,288,1.0,75.0
180,64.0,96,288,1.0,75.0
181,67.0,0,94,0.0,68.0
182,61.0,0,94,1.0,75.0
183,57.0,288,94,1.0,75.0
184,62.0,96,94,1.0,45.0
185,66.0,0,160,0.0,60.0
186,57.0,96,94,1.0,45.0
187,50.0,0,94,1.0,45.0
188,64.0,0,94,0.0,60.0
189,55.0,0,94,1.0,45.0
190,59.0,96,94,1.0,45.0
191,54.0,0,94,1.0,45.0
192,57.0,0,94,1.0,45.0
193,62.0,96,94,0.0,60.0
194,62.0,0,24,0.0,60.0
195,52.0,0,32,1.0,75.0
196,59.0,96,32,1.0,75.0
197,67.0,24,232,0.0,92.0
198,67.0,264,94,0.0,45.0
199,67.0,0,24,0.0,45.0
200,45.0,0,32,1.0,30.0
201,49.0,0,32,1.0,30.0
202,52.0,96,32,1.0,30.0
203,55.0,0,32,1.0,30.0
204,69.0,24,24,0.0,45.0
205,71.0,24,24,0.0,45.0
206,69.0,24,0,0.0,45.0
207,66.0,0,24,0.0,45.0
208,67.0,24,24,0.0,45.0
209,71.0,24,48,0.0,45.0
210,55.0,0,32,1.0,30.0
211,45.0,48,32,1.0,30.0
212,49.0,0,32,1.0,30.0
213,52.0,0,32,1.0,30.0
214,69.0,0,48,0.0,45.0
215,67.0,48,48,0.0,45.0
216,66.0,48,48,0.0,45.0
217,64.0,48,46,0.0,45.0
218,54.0,48,32,1.0,30.0
219,50.0,0,32,1.0,30.0
220,66.0,0,94,0.0,45.0
221,62.0,96,94,0.0,45.0
222,62.0,96,32,0.0,45.0
223,78.0,96,32,0.0,45.0
224,78.0,96,160,0.0,45.0
225,62.0,0,94,1.0,30.0
226,69.0,96,94,1.0,30.0
227,71.0,0,94,1.0,30.0
228,67.0,0,94,1.0,30.0
229,76.0,96,94,0.0,45.0
230,69.0,0,32,1.0,30.0
231,66.0,96,32,1.0,30.0
232,74.0,0,94,0.0,45.0
233,74.0,0,24,0.0,45.0
234,71.0,0,32,1.0,75.0
235,64.0,96,32,1.0,75.0
236,79.0,24,232,0.0,92.0
237,79.0,264,32,0.0,45.0
238,79.0,0,22,0.0,45.0
239,61.0,0,32,1.0,30.0
240,64.0,0,32,1.0,30.0
241,67.0,96,32,1.0,30.0
242,71.0,0,32,1.0,30.0
243,81.0,24,22,0.0,45.0
244,83.0,24,22,0.0,45.0
245,81.0,24,22,0.0,45.0
246,78.0,24,22,0.0,45.0
247,81.0,0,46,0.0,45.0
248,79.0,24,22,0.0,45.0
249,83.0,24,46,0.0,45.0
250,71.0,48,32,1.0,30.0
251,61.0,0,32,1.0,30.0
252,64.0,0,32,1.0,30.0
253,67.0,0,32,1.0,30.0
254,81.0,0,46,0.0,45.0
255,79.0,48,46,0.0,45.0
256,78.0,48,46,0.0,45.0
257,76.0,48,46,0.0,45.0
258,66.0,0,160,1.0,30.0
259,62.0,0,160,1.0,30.0
260,74.0,48,160,0.0,45.0
261,78.0,288,94,0.0,45.0
262,76.0,96,94,0.0,45.0
263,74.0,96,94,0.0,45.0
264,73.0,96,94,0.0,45.0
265,47.0,96,94,1.0,30.0
266,54.0,0,94,1.0,30.0
267,71.0,0,94,0.0,45.0
268,62.0,0,94,0.0,45.0
269,49.0,96,94,1.0,30.0
270,71.0,0,94,0.0,45.0
271,64.0,0,160,0.0,45.0
272,70.0,0,94,0.0,50.0
273,42.0,96,94,1.0,35.0
274,62.0,0,32,0.0,56.0
275,47.0,0,32,1.0,40.0
276,71.0,96,32,0.0,56.0
277,54.0,0,256,1.0,30.0
278,78.0,96,94,0.0,62.0
279,76.0,96,94,0.0,68.0
280,74.0,96,94,0.0,74.0
281,73.0,96,94,0.0,80.0
282,71.0,0,32,0.0,86.0
283,62.0,0,32,1.0,69.0
284,59.0,96,32,1.0,69.0
285,69.0,0,256,0.0,92.0
286,61.0,96,288,1.0,75.0
287,64.0,0,288,1.0,75.0
288,57.0,288,94,1.0,75.0
289,61.0,0,94,1.0,75.0
290,67.0,0,94,0.0,68.0
291,62.0,96,94,1.0,45.0
292,66.0,0,160,0.0,60.0
293,57.0,96,94,1.0,45.0
294,50.0,0,94,1.0,45.0
295,59.0,96,94,1.0,45.0
296,55.0,0,94,1.0,45.0
297,64.0,0,94,0.0,60.0
298,54.0,96,94,1.0,45.0
299,57.0,0,94,1.0,45.0
300,62.0,0,94,0.0,60.0
301,62.0,96,24,0.0,60.0
302,52.0,0,32,1.0,75.0
303,59.0,0,32,1.0,75.0
304,67.0,24,232,0.0,92.0
305,67.0,264,94,0.0,45.0
306,67.0,0,24,0.0,45.0
307,55.0,0,32,1.0,30.0
308,52.0,0,32,1.0,30.0
309,49.0,0,32,1.0,30.0
310,45.0,96,32,1.0,30.0
311,69.0,24,24,0.0,45.0
312,71.0,24,24,0.0,45.0
313,69.0,24,24,0.0,45.0
314,66.0,24,24,0.0,45.0
315,69.0,0,48,0.0,45.0
316,67.0,24,24,0.0,45.0
317,71.0,24,48,0.0,45.0
318,45.0,0,32,1.0,30.0
319,49.0,0,32,1.0,30.0
320,52.0,0,32,1.0,30.0
321,55.0,0,32,1.0,30.0
322,69.0,48,48,0.0,45.0
323,67.0,48,48,0.0,45.0
324,66.0,48,48,0.0,45.0
325,64.0,48,46,0.0,45.0
326,50.0,0,32,1.0,30.0
327,54.0,48,32,1.0,30.0
328,66.0,0,94,0.0,45.0
329,62.0,96,94,0.0,45.0
330,62.0,96,32,0.0,45.0
331,78.0,96,32,0.0,45.0
332,78.0,96,160,0.0,45.0
333,69.0,0,94,1.0,30.0
334,62.0,96,94,1.0,30.0
335,76.0,96,94,0.0,45.0
336,71.0,0,94,1.0,30.0
337,67.0,0,94,1.0,30.0
338,66.0,0,32,1.0,30.0
339,69.0,96,32,1.0,30.0
340,74.0,0,94,0.0,45.0
341,74.0,96,24,0.0,45.0
342,64.0,0,32,1.0,75.0
343,71.0,0,32,1.0,75.0
344,79.0,24,232,0.0,92.0
345,79.0,264,32,0.0,45.0
346,79.0,0,22,0.0,45.0
347,71.0,0,32,1.0,30.0
348,64.0,0,32,1.0,30.0
349,61.0,96,32,1.0,30.0
350,67.0,0,32,1.0,30.0
351,81.0,24,22,0.0,45.0
352,83.0,24,22,0.0,45.0
353,81.0,24,22,0.0,45.0
354,78.0,24,22,0.0,45.0
355,79.0,24,22,0.0,45.0
356,81.0,0,46,0.0,45.0
357,83.0,24,46,0.0,45.0
358,61.0,0,32,1.0,30.0
359,64.0,48,32,1.0,30.0
360,67.0,0,32,1.0,30.0
361,71.0,0,32,1.0,30.0
362,81.0,0,46,0.0,45.0
363,79.0,48,46,0.0,45.0
364,78.0,48,46,0.0,45.0
365,76.0,48,46,0.0,45.0
366,66.0,48,160,1.0,30.0
367,74.0,0,160,0.0,45.0
368,62.0,0,160,1.0,30.0
369,74.0,288,94,0.0,45.0
370,62.0,0,160,0.0,45.0
371,74.0,96,160,0.0,45.0
372,57.0,96,94,1.0,30.0
373,54.0,0,94,1.0,30.0
374,73.0,0,94,0.0,45.0
375,61.0,96,94,0.0,45.0
376,57.0,0,94,1.0,30.0
377,52.0,0,94,1.0,30.0
378,53.0,0,94,1.0,30.0
379,50.0,0,94,1.0,30.0
380,71.0,96,94,0.0,45.0
381,56.0,0,94,1.0,30.0
382,59.0,0,94,0.0,45.0
383,57.0,0,48,1.0,30.0
384,49.0,96,48,1.0,30.0
385,52.0,0,48,1.0,30.0
386,64.0,0,48,0.0,45.0
387,76.0,0,48,0.0,45.0
388,76.0,288,94,0.0,45.0
389,64.0,0,94,0.0,45.0
390,64.0,0,160,0.0,45.0
391,76.0,96,160,0.0,45.0
392,59.0,0,94,1.0,35.0
393,55.0,96,94,1.0,35.0
394,59.0,96,94,1.0,40.0
395,54.0,0,94,1.0,40.0
396,74.0,0,94,0.0,45.0
397,62.0,0,94,0.0,45.0
398,61.0,0,94,0.0,45.0
399,73.0,96,94,0.0,45.0
400,52.0,0,94,1.0,45.0
401,55.0,0,94,1.0,45.0
402,58.0,0,94,1.0,45.0
403,50.0,96,32,1.0,50.0
404,54.0,0,32,1.0,50.0
405,59.0,0,32,1.0,50.0
406,78.0,0,48,0.0,45.0
407,66.0,0,48,0.0,45.0
408,71.0,0,94,0.0,45.0
409,83.0,288,94,0.0,45.0
410,71.0,96,160,0.0,45.0
411,83.0,0,160,0.0,45.0
412,66.0,96,94,1.0,75.0
413,62.0,0,94,1.0,75.0
414,61.0,0,94,1.0,80.0
415,66.0,0,94,1.0,80.0
416,69.0,96,94,0.0,76.0
417,81.0,0,94,0.0,76.0
418,80.0,0,94,0.0,92.0
419,59.0,0,94,1.0,86.0
420,62.0,0,94,1.0,86.0
421,65.0,0,94,1.0,86.0
422,68.0,96,94,0.0,92.0
423,66.0,0,32,1.0,92.0
424,57.0,96,32,1.0,92.0
425,61.0,0,32,1.0,92.0
426,85.0,0,160,0.0,108.0
427,73.0,0,160,0.0,108.0
428,78.0,0,94,0.0,60.0
429,60.0,288,96,1.0,92.0
430,69.0,0,96,1.0,92.0
431,61.0,0,32,1.0,92.0
432,69.0,0,32,1.0,92.0
433,78.0,96,160,0.0,60.0
434,61.0,0,32,1.0,92.0
435,78.0,192,46,0.0,60.0
436,77.0,48,46,0.0,60.0
437,81.0,48,46,0.0,60.0
438,71.0,0,160,0.0,60.0
439,80.0,48,46,0.0,60.0
440,69.0,0,32,0.0,60.0
441,78.0,0,32,0.0,60.0
442,54.0,48,32,1.0,92.0
443,49.0,192,32,1.0,92.0
444,65.0,48,46,0.0,60.0
445,69.0,48,46,0.0,60.0
446,68.0,48,46,0.0,60.0
447,66.0,0,32,0.0,60.0
448,42.0,48,94,1.0,92.0
449,65.0,48,46,0.0,57.0
450,37.0,192,94,1.0,84.0
451,69.0,48,46,0.0,56.0
452,68.0,48,46,0.0,55.0
453,66.0,48,46,0.0,54.0
454,65.0,48,46,0.0,53.0
455,69.0,48,46,0.0,52.0
456,68.0,48,46,0.0,51.0
457,30.0,0,304,1.0,68.0
458,66.0,48,142,0.0,50.0
459,66.0,144,32,0.0,45.0
460,66.0,96,160,0.0,45.0
461,57.0,0,160,1.0,30.0
462,50.0,0,160,1.0,30.0
463,64.0,192,94,0.0,45.0
464,59.0,0,94,1.0,30.0
465,55.0,0,94,1.0,30.0
466,54.0,0,94,1.0,30.0
467,57.0,96,94,1.0,30.0
468,62.0,0,94,0.0,45.0
469,62.0,0,24,0.0,45.0
470,59.0,0,32,1.0,75.0
471,52.0,96,32,1.0,75.0
472,67.0,24,232,0.0,92.0
473,67.0,264,32,0.0,45.0
474,67.0,96,22,0.0,45.0
475,49.0,0,32,1.0,30.0
476,45.0,0,32,1.0,30.0
477,55.0,0,32,1.0,30.0
478,52.0,0,32,1.0,30.0
479,69.0,24,22,0.0,45.0
480,71.0,24,22,0.0,45.0
481,69.0,24,22,0.0,45.0
482,66.0,0,22,0.0,45.0
483,67.0,24,22,0.0,45.0
484,69.0,24,46,0.0,45.0
485,71.0,24,46,0.0,45.0
486,45.0,0,32,1.0,30.0
487,49.0,0,32,1.0,30.0
488,52.0,48,32,1.0,30.0
489,55.0,0,32,1.0,30.0
490,69.0,0,46,0.0,45.0
491,67.0,48,46,0.0,45.0
492,66.0,48,46,0.0,45.0
493,64.0,48,46,0.0,45.0
494,50.0,0,32,1.0,30.0
495,54.0,48,32,1.0,30.0
496,66.0,0,94,0.0,45.0
497,62.0,96,94,0.0,45.0
498,62.0,96,32,0.0,45.0
499,78.0,96,32,0.0,45.0
500,78.0,96,160,0.0,45.0
501,62.0,0,94,1.0,30.0
502,69.0,96,94,1.0,30.0
503,67.0,0,94,1.0,30.0
504,76.0,96,94,0.0,45.0
505,71.0,0,94,1.0,30.0
506,74.0,96,94,0.0,45.0
507,66.0,0,94,1.0,30.0
508,69.0,0,94,1.0,30.0
509,74.0,0,24,0.0,45.0
510,64.0,0,32,1.0,75.0
511,71.0,96,32,1.0,75.0
512,79.0,24,232,0.0,92.0
513,79.0,264,32,0.0,45.0
514,79.0,0,24,0.0,45.0
515,57.0,0,32,1.0,75.0
516,61.0,0,32,1.0,75.0
517,67.0,96,32,1.0,75.0
518,64.0,0,32,1.0,75.0
519,81.0,24,24,0.0,45.0
520,83.0,24,24,0.0,45.0
521,81.0,24,24,0.0,45.0
522,78.0,0,24,0.0,45.0
523,79.0,24,24,0.0,45.0
524,81.0,24,48,0.0,45.0
525,83.0,24,48,0.0,45.0
526,61.0,48,32,1.0,75.0
527,64.0,0,32,1.0,75.0
528,67.0,0,32,1.0,75.0
529,57.0,0,32,1.0,75.0
530,81.0,0,48,0.0,45.0
531,79.0,48,48,0.0,45.0
532,78.0,48,48,0.0,45.0
533,76.0,48,48,0.0,45.0
534,62.0,0,32,1.0,75.0
535,66.0,48,32,1.0,75.0
536,74.0,0,46,0.0,45.0
537,57.0,48,46,0.0,45.0
538,59.0,48,46,0.0,45.0
539,61.0,48,46,0.0,45.0
540,62.0,48,46,0.0,45.0
541,64.0,48,46,0.0,45.0
542,66.0,48,32,0.0,45.0
543,66.0,48,32,0.0,45.0
544,65.0,0,48,0.0,60.0
545,66.0,48,32,0.0,60.0
546,50.0,48,94,1.0,45.0
547,67.0,0,48,0.0,60.0
548,66.0,48,32,0.0,60.0
549,57.0,48,94,1.0,45.0
550,63.0,48,48,0.0,60.0
551,64.0,48,32,0.0,60.0
552,55.0,0,94,1.0,45.0
553,59.0,0,94,1.0,45.0
554,61.0,48,48,0.0,60.0
555,62.0,48,32,0.0,60.0
556,54.0,0,94,1.0,45.0
557,57.0,0,94,1.0,45.0
558,62.0,48,24,0.0,60.0
559,52.0,0,32,1.0,45.0
560,59.0,0,32,1.0,45.0
561,64.0,24,24,0.0,60.0
562,66.0,24,24,0.0,60.0
563,64.0,24,24,0.0,60.0
564,61.0,24,24,0.0,60.0
565,62.0,24,24,0.0,60.0
566,64.0,0,48,0.0,60.0
567,66.0,24,48,0.0,60.0
568,67.0,48,48,0.0,60.0
569,66.0,48,48,0.0,60.0
570,67.0,48,48,0.0,60.0
571,66.0,48,46,0.0,60.0
572,49.0,0,32,1.0,45.0
573,55.0,48,32,1.0,45.0
574,52.0,0,32,1.0,45.0
575,45.0,0,32,1.0,45.0
576,67.0,0,48,0.0,60.0
577,69.0,48,48,0.0,60.0
578,70.0,48,48,0.0,60.0
579,71.0,48,48,0.0,60.0
580,45.0,0,32,1.0,45.0
581,49.0,48,32,1.0,45.0
582,52.0,0,32,1.0,45.0
583,55.0,0,32,1.0,45.0
584,69.0,0,48,0.0,60.0
585,67.0,48,48,0.0,60.0
586,66.0,48,48,0.0,60.0
587,64.0,48,46,0.0,60.0
588,54.0,0,32,1.0,45.0
589,50.0,0,32,1.0,45.0
590,66.0,48,48,0.0,60.0
591,62.0,48,48,0.0,60.0
592,69.0,48,48,0.0,60.0
593,66.0,48,48,0.0,60.0
594,74.0,48,48,0.0,60.0
595,69.0,48,48,0.0,60.0
596,78.0,48,34,0.0,60.0
597,78.0,48,32,0.0,60.0
598,77.0,48,48,0.0,60.0
599,78.0,48,46,0.0,60.0
600,79.0,48,48,0.0,60.0
601,78.0,48,46,0.0,60.0
602,69.0,0,94,1.0,45.0
603,62.0,0,94,1.0,45.0
604,75.0,48,48,0.0,60.0
605,76.0,48,46,0.0,60.0
606,71.0,0,94,1.0,45.0
607,67.0,0,94,1.0,45.0
608,73.0,0,48,0.0,60.0
609,69.0,0,94,1.0,45.0
610,66.0,48,94,1.0,45.0
611,74.0,48,46,0.0,60.0
612,74.0,0,24,0.0,60.0
613,64.0,48,32,1.0,45.0
614,71.0,0,32,1.0,45.0
615,76.0,24,24,0.0,60.0
616,78.0,24,24,0.0,60.0
617,76.0,24,0,0.0,60.0
618,73.0,0,24,0.0,60.0
619,74.0,24,24,0.0,60.0
620,78.0,24,48,0.0,60.0
621,79.0,48,48,0.0,60.0
622,81.0,48,48,0.0,60.0
623,82.0,48,48,0.0,60.0
624,83.0,48,46,0.0,60.0
625,57.0,0,32,1.0,45.0
626,64.0,0,32,1.0,45.0
627,67.0,48,32,1.0,45.0
628,61.0,0,32,1.0,45.0
629,82.0,0,46,0.0,60.0
630,83.0,48,48,0.0,60.0
631,85.0,48,48,0.0,60.0
632,83.0,48,48,0.0,60.0
633,64.0,48,32,1.0,45.0
634,61.0,0,32,1.0,45.0
635,57.0,0,32,1.0,45.0
636,67.0,0,32,1.0,45.0
637,81.0,0,48,0.0,60.0
638,79.0,48,48,0.0,60.0
639,78.0,48,48,0.0,60.0
640,76.0,48,48,0.0,60.0
641,66.0,48,160,1.0,45.0
642,62.0,0,160,1.0,45.0
643,74.0,0,160,0.0,60.0
644,78.0,288,96,0.0,60.0
645,76.0,96,96,0.0,60.0
646,74.0,96,96,0.0,60.0
647,73.0,96,96,0.0,60.0
648,71.0,0,94,0.0,60.0
649,62.0,0,94,0.0,60.0
650,47.0,96,94,1.0,45.0
651,54.0,0,94,1.0,45.0
652,49.0,96,94,1.0,45.0
653,71.0,0,94,0.0,60.0
654,64.0,0,160,0.0,60.0
655,42.0,96,94,1.0,48.0
656,70.0,0,94,0.0,64.0
657,47.0,0,32,1.0,51.0
658,54.0,0,256,1.0,45.0
659,62.0,96,94,0.0,68.0
660,71.0,0,94,0.0,68.0
661,78.0,96,94,0.0,72.0
662,76.0,96,94,0.0,76.0
663,74.0,96,94,0.0,80.0
664,73.0,96,94,0.0,84.0
665,62.0,96,32,1.0,71.0
666,71.0,0,32,0.0,88.0
667,59.0,0,32,1.0,71.0
668,69.0,0,256,0.0,92.0
669,61.0,96,288,1.0,75.0
670,64.0,0,288,1.0,75.0
671,61.0,0,94,1.0,60.0
672,57.0,0,94,1.0,60.0
673,67.0,288,94,0.0,75.0
674,62.0,96,96,1.0,45.0
675,66.0,0,160,0.0,60.0
676,57.0,0,96,1.0,45.0
677,50.0,96,96,1.0,45.0
678,64.0,96,94,0.0,60.0
679,59.0,0,96,1.0,45.0
680,55.0,0,96,1.0,45.0
681,62.0,96,94,0.0,60.0
682,54.0,0,96,1.0,45.0
683,57.0,0,96,1.0,45.0
684,62.0,96,24,0.0,60.0
685,52.0,0,32,1.0,75.0
686,59.0,0,32,1.0,75.0
687,67.0,24,232,0.0,92.0
688,67.0,264,32,0.0,60.0
689,67.0,96,24,0.0,60.0
690,49.0,0,32,1.0,45.0
691,52.0,0,32,1.0,45.0
692,55.0,0,32,1.0,45.0
693,45.0,0,32,1.0,45.0
694,69.0,24,24,0.0,60.0
695,71.0,24,24,0.0,60.0
696,69.0,24,0,0.0,60.0
697,66.0,0,24,0.0,60.0
698,67.0,24,24,0.0,60.0
699,71.0,24,48,0.0,60.0
700,45.0,0,32,1.0,45.0
701,49.0,0,32,1.0,45.0
702,52.0,48,32,1.0,45.0
703,55.0,0,32,1.0,45.0
704,69.0,0,48,0.0,60.0
705,67.0,48,48,0.0,60.0
706,66.0,48,48,0.0,60.0
707,64.0,48,46,0.0,60.0
708,54.0,0,32,1.0,45.0
709,50.0,48,32,1.0,45.0
710,66.0,0,94,0.0,60.0
711,62.0,96,94,0.0,60.0
712,62.0,96,32,0.0,60.0
713,78.0,96,32,0.0,60.0
714,78.0,96,160,0.0,60.0
715,69.0,96,96,1.0,45.0
716,62.0,0,96,1.0,45.0
717,76.0,96,94,0.0,60.0
718,71.0,0,96,1.0,45.0
719,67.0,0,96,1.0,45.0
720,74.0,96,94,0.0,60.0
721,69.0,0,96,1.0,45.0
722,66.0,0,96,1.0,45.0
723,74.0,96,24,0.0,60.0
724,64.0,0,32,1.0,45.0
725,71.0,0,32,1.0,45.0
726,79.0,24,232,0.0,92.0
727,79.0,264,32,0.0,92.0
728,79.0,96,24,0.0,92.0
729,67.0,0,32,1.0,45.0
730,64.0,0,32,1.0,45.0
731,61.0,0,32,1.0,45.0
732,57.0,0,32,1.0,45.0
733,81.0,24,24,0.0,92.0
734,83.0,24,24,0.0,92.0
735,81.0,24,0,0.0,92.0
736,78.0,0,24,0.0,92.0
737,79.0,24,24,0.0,92.0
738,83.0,24,48,0.0,92.0
739,67.0,0,32,1.0,45.0
740,64.0,0,32,1.0,45.0
741,61.0,0,32,1.0,45.0
742,57.0,0,32,1.0,45.0
743,81.0,48,48,0.0,92.0
744,79.0,48,48,0.0,92.0
745,78.0,48,48,0.0,92.0
746,76.0,48,48,0.0,92.0
747,74.0,0,160,0.0,92.0
748,66.0,0,160,1.0,45.0
749,62.0,48,160,1.0,45.0
750,66.0,288,48,0.0,92.0
751,78.0,48,46,0.0,92.0
752,77.0,48,48,0.0,92.0
753,78.0,48,46,0.0,92.0
754,76.0,48,48,0.0,92.0
755,74.0,48,46,0.0,92.0
756,74.0,48,48,0.0,92.0
757,73.0,48,46,0.0,92.0
758,73.0,0,48,0.0,92.0
759,71.0,48,46,0.0,92.0
760,50.0,0,96,1.0,45.0
761,47.0,48,96,1.0,45.0
762,71.0,0,94,0.0,92.0
763,49.0,0,96,1.0,45.0
764,52.0,48,160,1.0,45.0
765,70.0,96,94,0.0,92.0
766,42.0,0,96,1.0,45.0
767,71.0,0,32,0.0,92.0
768,47.0,0,32,1.0,45.0
769,50.0,96,32,1.0,45.0
770,66.0,96,48,0.0,92.0
771,78.0,48,46,0.0,92.0
772,77.0,48,48,0.0,92.0
773,78.0,48,46,0.0,92.0
774,76.0,48,48,0.0,92.0
775,74.0,48,46,0.0,92.0
776,74.0,48,48,0.0,92.0
777,73.0,48,46,0.0,92.0
778,73.0,0,48,0.0,92.0
779,71.0,48,46,0.0,92.0
780,62.0,48,96,1.0,45.0
781,59.0,0,96,1.0,45.0
782,71.0,48,48,0.0,127.0
783,69.0,48,46,0.0,127.0
784,68.0,48,46,0.0,92.0
785,69.0,48,46,0.0,87.0
786,68.0,48,46,0.0,82.0
787,64.0,0,256,1.0,63.0
788,61.0,0,256,1.0,63.0
789,69.0,48,46,0.0,77.0
790,57.0,0,32,1.0,45.0
791,61.0,0,32,1.0,45.0
792,66.0,48,46,0.0,72.0
793,67.0,48,46,0.0,66.0
794,65.0,48,48,0.0,60.0
795,66.0,48,46,0.0,60.0
796,62.0,0,96,1.0,45.0
797,67.0,0,48,0.0,60.0
798,66.0,48,46,0.0,60.0
799,50.0,48,96,1.0,45.0
800,63.0,0,48,0.0,60.0
801,64.0,48,46,0.0,60.0
802,59.0,48,96,1.0,45.0
803,55.0,0,96,1.0,45.0
804,61.0,48,48,0.0,60.0
805,62.0,48,46,0.0,60.0
806,54.0,0,96,1.0,45.0
807,57.0,0,96,1.0,45.0
808,62.0,0,24,0.0,60.0
809,59.0,0,32,1.0,45.0
810,52.0,48,32,1.0,45.0
811,64.0,24,24,0.0,60.0
812,66.0,24,24,0.0,60.0
813,64.0,24,24,0.0,60.0
814,61.0,24,24,0.0,60.0
815,62.0,24,24,0.0,60.0
816,64.0,0,48,0.0,60.0
817,66.0,24,48,0.0,60.0
818,67.0,48,48,0.0,60.0
819,66.0,48,48,0.0,60.0
820,67.0,48,48,0.0,60.0
821,66.0,48,46,0.0,60.0
822,67.0,0,48,0.0,60.0
823,49.0,0,94,1.0,45.0
824,45.0,0,94,1.0,45.0
825,55.0,48,94,1.0,45.0
826,52.0,0,94,1.0,45.0
827,69.0,48,48,0.0,60.0
828,70.0,48,48,0.0,60.0
829,71.0,48,48,0.0,60.0
830,69.0,0,48,0.0,60.0
831,45.0,48,94,1.0,45.0
832,52.0,0,94,1.0,45.0
833,55.0,0,94,1.0,45.0
834,49.0,0,94,1.0,45.0
835,67.0,48,48,0.0,60.0
836,66.0,48,48,0.0,60.0
837,64.0,48,46,0.0,60.0
838,66.0,0,48,0.0,60.0
839,50.0,0,94,1.0,45.0
840,54.0,48,94,1.0,45.0
841,62.0,48,48,0.0,60.0
842,69.0,48,48,0.0,60.0
843,66.0,48,48,0.0,60.0
844,74.0,48,48,0.0,60.0
845,69.0,48,48,0.0,60.0
846,78.0,48,34,0.0,60.0
847,78.0,48,32,0.0,60.0
848,77.0,48,48,0.0,60.0
849,78.0,48,46,0.0,60.0
850,79.0,0,48,0.0,60.0
851,78.0,48,46,0.0,60.0
852,62.0,48,94,1.0,45.0
853,69.0,0,94,1.0,45.0
854,75.0,48,48,0.0,60.0
855,76.0,48,46,0.0,60.0
856,67.0,0,94,1.0,45.0
857,71.0,0,94,1.0,45.0
858,73.0,0,48,0.0,60.0
859,69.0,0,94,1.0,45.0
860,74.0,48,46,0.0,60.0
861,66.0,48,94,1.0,45.0
862,74.0,0,24,0.0,60.0
863,64.0,48,32,1.0,45.0
864,71.0,0,32,1.0,45.0
865,76.0,24,24,0.0,60.0
866,78.0,24,24,0.0,60.0
867,76.0,24,0,0.0,60.0
868,73.0,0,24,0.0,60.0
869,74.0,24,24,0.0,60.0
870,78.0,24,48,0.0,60.0
871,79.0,48,48,0.0,60.0
872,81.0,48,48,0.0,60.0
873,82.0,48,48,0.0,60.0
874,83.0,48,46,0.0,60.0
875,67.0,0,32,1.0,45.0
876,64.0,0,32,1.0,45.0
877,61.0,0,32,1.0,45.0
878,57.0,48,32,1.0,45.0
879,82.0,0,48,0.0,60.0
880,83.0,48,48,0.0,60.0
881,85.0,48,48,0.0,60.0
882,83.0,48,48,0.0,60.0
883,57.0,0,32,1.0,45.0
884,61.0,48,32,1.0,45.0
885,64.0,0,32,1.0,45.0
886,67.0,0,32,1.0,45.0
887,81.0,0,48,0.0,60.0
888,79.0,48,48,0.0,60.0
889,78.0,48,48,0.0,60.0
890,76.0,48,48,0.0,60.0
891,62.0,48,32,1.0,45.0
892,66.0,0,32,1.0,45.0
893,74.0,0,32,0.0,60.0
894,62.0,96,160,1.0,45.0
895,83.0,0,160,0.0,60.0
896,86.0,96,160,0.0,60.0
897,62.0,96,96,1.0,45.0
898,62.0,96,94,1.0,45.0
899,85.0,0,192,0.0,60.0
900,81.0,0,192,0.0,60.0
901,62.0,96,160,1.0,45.0
902,79.0,96,192,0.0,60.0
903,62.0,96,96,1.0,45.0
904,83.0,0,192,0.0,60.0
905,62.0,0,94,1.0,45.0
906,78.0,96,192,0.0,60.0
907,81.0,0,192,0.0,60.0
908,71.0,192,192,0.0,60.0
909,74.0,0,192,0.0,60.0
910,79.0,0,192,0.0,60.0
911,62.0,0,0,1.0,45.0
912,74.0,96,192,0.0,60.0
913,78.0,0,192,0.0,60.0
914,69.0,0,192,0.0,60.0
915,62.0,96,160,1.0,45.0
916,76.0,0,192,0.0,60.0
917,73.0,0,192,0.0,60.0
918,67.0,96,192,0.0,60.0
919,62.0,96,0,1.0,45.0
920,69.0,0,94,0.0,60.0
921,66.0,0,94,0.0,60.0
922,74.0,0,94,0.0,60.0
923,50.0,96,160,1.0,45.0
924,74.0,96,192,0.0,60.0
925,50.0,0,0,1.0,45.0
926,71.0,0,192,0.0,60.0
927,73.0,0,192,0.0,60.0
928,69.0,96,192,0.0,60.0
929,50.0,96,160,1.0,45.0
930,67.0,0,192,0.0,60.0
931,50.0,96,0,1.0,45.0
932,71.0,96,192,0.0,60.0
933,69.0,0,192,0.0,60.0
934,66.0,0,192,0.0,60.0
935,50.0,96,160,1.0,45.0
936,62.0,0,0,0.0,60.0
937,59.0,0,192,0.0,60.0
938,50.0,96,0,1.0,45.0
939,67.0,0,192,0.0,60.0
940,66.0,0,192,0.0,60.0
941,57.0,0,192,0.0,60.0
942,50.0,96,160,1.0,45.0
943,50.0,96,0,1.0,45.0
944,55.0,0,192,0.0,60.0
945,61.0,0,192,0.0,60.0
946,64.0,96,192,0.0,60.0
947,57.0,0,160,0.0,60.0
948,54.0,0,160,0.0,60.0
949,62.0,0,160,0.0,60.0
950,38.0,96,160,1.0,45.0
951,59.0,0,192,0.0,60.0
952,55.0,96,192,0.0,60.0
953,38.0,96,96,1.0,45.0
954,62.0,0,192,0.0,60.0
955,38.0,0,94,1.0,45.0
956,54.0,0,192,0.0,60.0
957,62.0,0,192,0.0,60.0
958,57.0,96,192,0.0,60.0
959,38.0,96,160,1.0,45.0
960,38.0,96,96,1.0,45.0
961,62.0,0,0,0.0,60.0
962,61.0,0,192,0.0,60.0
963,55.0,0,192,0.0,60.0
964,52.0,96,192,0.0,60.0
965,38.0,96,94,1.0,45.0
966,50.0,0,160,0.0,60.0
967,54.0,0,160,0.0,60.0
968,38.0,96,160,1.0,45.0
969,62.0,0,0,0.0,60.0
970,59.0,0,192,0.0,60.0
971,55.0,96,192,0.0,60.0
972,38.0,96,0,1.0,45.0
973,57.0,0,192,0.0,60.0
974,62.0,0,0,0.0,60.0
975,54.0,0,192,0.0,60.0
976,38.0,96,160,1.0,45.0
977,55.0,96,192,0.0,60.0
978,61.0,0,192,0.0,60.0
979,52.0,0,192,0.0,60.0
980,38.0,0,0,1.0,45.0
981,54.0,0,336,0.0,60.0
982,50.0,96,336,0.0,60.0
983,62.0,0,336,0.0,60.0
984,38.0,96,288,1.0,45.0
985,38.0,0,94,1.0,45.0
986,57.0,0,336,0.0,60.0
987,62.0,288,336,0.0,60.0
988,54.0,0,336,0.0,60.0
989,38.0,96,288,1.0,42.0
990,38.0,288,94,1.0,30.0
991,50.0,0,384,0.0,45.0
992,54.0,0,384,0.0,45.0
993,62.0,0,384,0.0,45.0
994,38.0,288,0,1.0,30.0
995,62.0,0,336,0.0,45.0
996,50.0,0,336,0.0,45.0
997,54.0,0,336,0.0,45.0
