,note,step,duration,channel,velocity
0,41.0,0,48,4.0,45.0
1,60.0,0,528,2.0,45.0
2,45.0,0,48,4.0,45.0
3,53.0,192,528,3.0,45.0
4,46.0,192,48,4.0,45.0
5,69.0,192,544,1.0,45.0
6,60.0,192,528,2.0,45.0
7,48.0,192,48,4.0,45.0
8,52.0,0,528,3.0,45.0
9,50.0,0,160,4.0,45.0
10,67.0,192,544,1.0,45.0
11,60.0,0,528,2.0,45.0
12,53.0,192,528,3.0,45.0
13,48.0,0,160,4.0,45.0
14,65.0,192,544,1.0,45.0
15,46.0,192,160,4.0,45.0
16,60.0,192,528,2.0,45.0
17,52.0,0,528,3.0,45.0
18,43.0,192,160,4.0,45.0
19,41.0,192,160,4.0,45.0
20,67.0,192,544,1.0,45.0
21,60.0,0,528,2.0,45.0
22,53.0,0,528,3.0,45.0
23,45.0,0,160,4.0,45.0
24,69.0,192,544,1.0,45.0
25,46.0,192,160,4.0,45.0
26,60.0,192,528,2.0,45.0
27,52.0,0,528,3.0,45.0
28,48.0,192,160,4.0,45.0
29,60.0,0,160,2.0,45.0
30,67.0,192,432,1.0,45.0
31,53.0,0,48,3.0,45.0
32,57.0,0,48,2.0,45.0
33,50.0,192,48,4.0,45.0
34,65.0,0,48,1.0,45.0
35,57.0,0,48,2.0,45.0
36,53.0,0,48,3.0,45.0
37,38.0,192,48,4.0,45.0
38,36.0,0,48,4.0,45.0
39,64.0,192,48,2.0,45.0
40,67.0,0,48,1.0,45.0
41,52.0,0,48,3.0,45.0
42,41.0,0,48,4.0,45.0
43,53.0,192,48,3.0,45.0
44,65.0,0,48,1.0,45.0
45,57.0,0,48,2.0,45.0
46,77.0,192,48,2.0,30.0
47,69.0,0,48,3.0,30.0
48,62.0,0,48,4.0,30.0
49,79.0,0,48,2.0,30.0
50,60.0,0,48,4.0,30.0
51,76.0,192,48,3.0,30.0
52,77.0,192,48,2.0,30.0
53,69.0,0,48,3.0,30.0
54,65.0,0,160,4.0,30.0
55,53.0,0,48,3.0,30.0
56,84.0,0,528,1.0,30.0
57,57.0,0,160,4.0,30.0
58,58.0,192,160,4.0,30.0
59,81.0,192,544,2.0,30.0
60,65.0,192,352,3.0,30.0
61,84.0,0,528,1.0,30.0
62,64.0,0,160,3.0,30.0
63,60.0,192,160,4.0,30.0
64,70.0,0,192,3.0,30.0
65,62.0,192,160,4.0,30.0
66,79.0,192,544,2.0,30.0
67,69.0,0,160,3.0,30.0
68,84.0,0,528,1.0,30.0
69,57.0,192,160,3.0,30.0
70,69.0,192,160,3.0,30.0
71,60.0,0,160,4.0,30.0
72,58.0,192,160,4.0,30.0
73,62.0,0,160,3.0,30.0
74,77.0,0,544,2.0,30.0
75,84.0,0,528,1.0,30.0
76,70.0,192,160,3.0,30.0
77,55.0,0,160,4.0,30.0
78,64.0,0,160,3.0,30.0
79,79.0,0,544,2.0,30.0
80,53.0,192,160,4.0,30.0
81,69.0,0,160,3.0,30.0
82,84.0,192,528,1.0,30.0
83,60.0,0,160,3.0,30.0
84,57.0,0,160,4.0,30.0
85,58.0,192,160,4.0,30.0
86,81.0,192,544,2.0,30.0
87,65.0,0,352,3.0,30.0
88,84.0,192,528,1.0,30.0
89,52.0,0,160,3.0,30.0
90,64.0,0,160,3.0,30.0
91,60.0,192,160,4.0,30.0
92,84.0,0,240,1.0,30.0
93,79.0,192,432,2.0,30.0
94,62.0,192,160,4.0,30.0
95,57.0,0,160,3.0,30.0
96,77.0,192,48,2.0,30.0
97,86.0,0,48,1.0,30.0
98,69.0,0,160,3.0,30.0
99,50.0,0,160,4.0,30.0
100,88.0,192,48,1.0,30.0
101,79.0,0,48,2.0,30.0
102,48.0,0,160,4.0,30.0
103,60.0,0,160,3.0,30.0
104,77.0,0,48,2.0,30.0
105,89.0,0,48,1.0,30.0
106,53.0,192,160,4.0,30.0
107,63.0,192,336,1.0,127.0
108,39.0,0,336,4.0,127.0
109,51.0,0,336,3.0,127.0
110,39.0,576,336,4.0,89.0
111,51.0,0,336,3.0,89.0
112,39.0,384,336,4.0,82.0
113,51.0,0,336,3.0,82.0
114,39.0,384,160,4.0,75.0
115,51.0,0,160,3.0,75.0
116,39.0,0,336,4.0,69.0
117,63.0,0,336,1.0,68.0
118,51.0,384,336,3.0,69.0
119,63.0,384,336,1.0,61.0
120,39.0,0,336,4.0,61.0
121,51.0,0,336,3.0,61.0
122,63.0,0,160,1.0,53.0
123,51.0,0,160,3.0,53.0
124,39.0,384,160,4.0,53.0
125,63.0,384,336,1.0,45.0
126,51.0,0,336,3.0,45.0
127,39.0,0,336,4.0,45.0
128,63.0,0,336,1.0,45.0
129,51.0,576,336,3.0,45.0
130,39.0,0,336,4.0,45.0
131,64.0,576,336,1.0,30.0
132,40.0,0,336,4.0,30.0
133,52.0,0,336,3.0,30.0
134,52.0,576,336,3.0,30.0
135,64.0,0,336,1.0,30.0
136,53.0,384,160,3.0,35.0
137,36.0,0,720,4.0,30.0
138,57.0,0,192,3.0,39.0
139,59.0,192,160,3.0,41.0
140,69.0,192,544,1.0,36.0
141,48.0,0,544,3.0,37.0
142,36.0,0,528,4.0,40.0
143,65.0,192,576,2.0,38.0
144,64.0,0,192,2.0,44.0
145,60.0,192,192,3.0,45.0
146,62.0,192,160,3.0,47.0
147,67.0,0,544,1.0,42.0
148,48.0,192,544,3.0,43.0
149,36.0,0,528,4.0,47.0
150,57.0,0,384,2.0,46.0
151,56.0,192,192,2.0,51.0
152,60.0,0,192,3.0,51.0
153,48.0,0,544,3.0,49.0
154,65.0,192,544,1.0,49.0
155,59.0,0,160,3.0,53.0
156,36.0,0,528,4.0,54.0
157,62.0,192,384,2.0,53.0
158,48.0,192,192,3.0,56.0
159,58.0,0,192,3.0,59.0
160,49.0,192,192,3.0,59.0
161,64.0,0,352,2.0,58.0
162,48.0,0,160,3.0,62.0
163,57.0,192,160,3.0,62.0
164,67.0,0,544,1.0,56.0
165,36.0,0,528,4.0,61.0
166,57.0,192,192,2.0,62.0
167,57.0,0,192,3.0,68.0
168,69.0,0,544,1.0,63.0
169,48.0,0,544,3.0,65.0
170,59.0,192,160,3.0,71.0
171,65.0,0,352,2.0,64.0
172,36.0,192,528,4.0,68.0
173,65.0,0,192,2.0,68.0
174,64.0,0,160,2.0,71.0
175,60.0,192,192,3.0,77.0
176,67.0,192,432,1.0,70.0
177,59.0,192,160,3.0,80.0
178,48.0,0,544,3.0,74.0
179,65.0,192,48,1.0,77.0
180,56.0,0,336,2.0,74.0
181,36.0,0,528,4.0,77.0
182,62.0,0,160,2.0,77.0
183,67.0,0,48,1.0,80.0
184,64.0,192,160,2.0,80.0
185,55.0,0,160,2.0,80.0
186,58.0,0,192,3.0,86.0
187,65.0,0,160,1.0,83.0
188,36.0,0,352,4.0,86.0
189,48.0,0,544,3.0,83.0
190,57.0,192,160,2.0,83.0
191,41.0,192,48,4.0,92.0
192,53.0,0,48,3.0,92.0
193,77.0,192,48,1.0,92.0
194,65.0,0,48,2.0,92.0
195,43.0,192,352,4.0,92.0
196,55.0,0,352,3.0,92.0
197,69.0,192,48,2.0,92.0
198,81.0,0,48,1.0,92.0
199,82.0,0,48,1.0,92.0
200,70.0,192,48,2.0,92.0
201,45.0,0,544,4.0,92.0
202,57.0,192,544,3.0,92.0
203,72.0,192,160,2.0,92.0
204,84.0,0,160,1.0,92.0
205,86.0,192,160,1.0,92.0
206,43.0,192,544,4.0,92.0
207,55.0,0,544,3.0,92.0
208,74.0,0,160,2.0,92.0
209,72.0,0,160,2.0,92.0
210,84.0,192,160,1.0,92.0
211,70.0,192,160,2.0,92.0
212,82.0,0,160,1.0,92.0
213,53.0,0,544,3.0,92.0
214,41.0,192,544,4.0,92.0
215,67.0,0,160,2.0,92.0
216,79.0,192,160,1.0,92.0
217,65.0,192,160,2.0,92.0
218,77.0,0,160,1.0,92.0
219,55.0,192,544,3.0,92.0
220,43.0,0,544,4.0,92.0
221,69.0,192,160,2.0,92.0
222,81.0,0,160,1.0,92.0
223,82.0,192,160,1.0,82.0
224,57.0,192,544,3.0,92.0
225,70.0,0,160,2.0,82.0
226,45.0,0,544,4.0,92.0
227,72.0,0,160,2.0,62.0
228,84.0,192,160,1.0,62.0
229,74.0,0,160,2.0,52.0
230,86.0,192,160,1.0,52.0
231,43.0,192,544,4.0,62.0
232,55.0,0,544,3.0,62.0
233,41.0,0,48,4.0,30.0
234,53.0,192,48,3.0,30.0
235,55.0,0,48,3.0,30.0
236,43.0,192,48,4.0,30.0
237,64.0,0,160,2.0,30.0
238,84.0,0,160,1.0,30.0
239,72.0,0,160,2.0,30.0
240,69.0,0,48,2.0,30.0
241,41.0,0,48,4.0,30.0
242,72.0,0,48,2.0,30.0
243,84.0,192,48,1.0,30.0
244,53.0,0,48,3.0,30.0
245,72.0,0,48,2.0,30.0
246,84.0,192,48,1.0,30.0
247,57.0,0,48,3.0,30.0
248,87.0,0,48,1.0,30.0
249,69.0,192,48,2.0,30.0
250,53.0,0,48,3.0,30.0
251,86.0,0,48,1.0,30.0
252,58.0,0,48,3.0,30.0
253,65.0,192,48,2.0,30.0
254,41.0,192,48,4.0,30.0
255,43.0,192,48,4.0,30.0
256,41.0,192,48,4.0,30.0
257,74.0,192,48,2.0,30.0
258,58.0,0,48,3.0,30.0
259,88.0,0,48,1.0,30.0
260,65.0,0,48,2.0,30.0
261,74.0,0,48,2.0,30.0
262,89.0,192,48,1.0,30.0
263,65.0,0,48,2.0,30.0
264,58.0,0,48,3.0,30.0
265,84.0,0,48,1.0,30.0
266,69.0,0,160,2.0,30.0
267,65.0,192,160,3.0,30.0
268,41.0,0,48,4.0,30.0
269,65.0,0,160,3.0,30.0
270,77.0,192,160,2.0,30.0
271,39.0,0,48,4.0,30.0
272,67.0,192,160,3.0,30.0
273,79.0,0,160,2.0,30.0
274,38.0,0,48,4.0,30.0
275,66.0,192,160,3.0,30.0
276,78.0,0,160,2.0,30.0
277,40.0,0,48,4.0,30.0
278,82.0,0,160,2.0,30.0
279,67.0,192,160,3.0,30.0
280,86.0,0,160,1.0,30.0
281,42.0,0,48,4.0,30.0
282,84.0,0,160,1.0,30.0
283,69.0,192,160,3.0,30.0
284,81.0,0,160,2.0,30.0
285,81.0,0,48,2.0,30.0
286,84.0,192,48,1.0,30.0
287,62.0,0,160,3.0,30.0
288,43.0,0,160,4.0,30.0
289,79.0,0,48,2.0,30.0
290,82.0,0,48,1.0,30.0
291,64.0,192,160,3.0,30.0
292,43.0,0,160,4.0,30.0
293,81.0,0,48,1.0,30.0
294,77.0,0,48,2.0,30.0
295,60.0,0,160,3.0,30.0
296,45.0,192,160,4.0,30.0
297,46.0,0,160,4.0,30.0
298,77.0,0,192,2.0,30.0
299,62.0,192,192,3.0,30.0
300,81.0,0,192,1.0,30.0
301,46.0,192,160,4.0,30.0
302,55.0,0,160,3.0,30.0
303,82.0,0,160,1.0,30.0
304,74.0,0,160,2.0,30.0
305,76.0,0,48,2.0,30.0
306,60.0,0,48,3.0,30.0
307,70.0,0,48,2.0,30.0
308,79.0,192,48,1.0,30.0
309,48.0,0,160,4.0,30.0
310,81.0,0,48,1.0,30.0
311,69.0,0,48,2.0,30.0
312,41.0,0,160,4.0,30.0
313,60.0,192,160,3.0,30.0
314,77.0,192,48,1.0,30.0
315,65.0,0,48,2.0,30.0
316,79.0,0,48,1.0,30.0
317,67.0,192,48,2.0,30.0
318,65.0,0,160,2.0,30.0
319,77.0,192,160,1.0,30.0
320,57.0,192,48,3.0,30.0
321,60.0,0,48,4.0,30.0
322,63.0,192,48,4.0,30.0
323,60.0,0,48,3.0,30.0
324,62.0,0,160,4.0,30.0
325,58.0,192,160,3.0,30.0
326,65.0,0,160,2.0,30.0
327,77.0,192,160,1.0,30.0
328,67.0,192,160,2.0,30.0
329,79.0,0,160,1.0,30.0
330,77.0,0,160,1.0,30.0
331,65.0,192,160,2.0,30.0
332,58.0,192,160,3.0,30.0
333,64.0,0,160,4.0,30.0
334,65.0,0,160,4.0,30.0
335,58.0,192,160,3.0,30.0
336,57.0,0,160,3.0,30.0
337,60.0,192,160,4.0,30.0
338,77.0,0,160,1.0,30.0
339,65.0,192,160,2.0,30.0
340,79.0,0,160,1.0,30.0
341,67.0,192,160,2.0,30.0
342,77.0,192,160,1.0,30.0
343,65.0,0,160,2.0,30.0
344,60.0,0,160,3.0,30.0
345,63.0,0,160,4.0,30.0
346,66.0,192,160,2.0,30.0
347,78.0,0,160,1.0,30.0
348,62.0,0,160,4.0,30.0
349,67.0,0,160,2.0,30.0
350,79.0,0,160,1.0,30.0
351,58.0,192,160,3.0,30.0
352,58.0,192,48,3.0,30.0
353,62.0,0,48,4.0,30.0
354,79.0,0,160,1.0,30.0
355,67.0,0,160,2.0,30.0
356,57.0,192,48,3.0,30.0
357,60.0,0,48,4.0,30.0
358,79.0,0,160,1.0,30.0
359,67.0,0,160,2.0,30.0
360,58.0,192,48,4.0,30.0
361,55.0,0,48,3.0,30.0
362,84.0,0,160,1.0,30.0
363,72.0,0,160,2.0,30.0
364,72.0,192,160,2.0,30.0
365,84.0,0,160,1.0,30.0
366,53.0,0,192,3.0,30.0
367,57.0,0,192,4.0,30.0
368,72.0,0,160,2.0,30.0
369,58.0,0,160,4.0,30.0
370,84.0,192,160,1.0,30.0
371,55.0,0,160,3.0,30.0
372,55.0,0,48,4.0,30.0
373,52.0,0,48,3.0,30.0
374,72.0,192,160,2.0,30.0
375,84.0,0,160,1.0,30.0
376,72.0,0,48,2.0,30.0
377,84.0,0,48,1.0,30.0
378,53.0,192,48,3.0,30.0
379,57.0,0,48,4.0,30.0
380,55.0,0,48,4.0,30.0
381,64.0,192,48,3.0,30.0
382,60.0,0,48,2.0,30.0
383,82.0,0,48,1.0,30.0
384,72.0,192,48,2.0,30.0
385,81.0,0,48,1.0,30.0
386,57.0,0,48,4.0,30.0
387,65.0,0,48,3.0,30.0
388,62.0,0,192,3.0,30.0
389,72.0,192,192,2.0,30.0
390,58.0,0,192,4.0,30.0
391,81.0,0,192,1.0,30.0
392,50.0,192,160,3.0,35.0
393,46.0,0,160,4.0,35.0
394,82.0,0,160,1.0,35.0
395,74.0,0,160,2.0,35.0
396,67.0,0,160,2.0,35.0
397,52.0,0,48,3.0,40.0
398,48.0,192,48,4.0,40.0
399,79.0,0,48,1.0,40.0
400,64.0,0,48,2.0,40.0
401,48.0,0,48,4.0,45.0
402,70.0,192,192,2.0,45.0
403,79.0,0,192,1.0,45.0
404,52.0,0,192,3.0,45.0
405,36.0,0,48,4.0,50.0
406,69.0,192,160,2.0,50.0
407,53.0,0,160,3.0,50.0
408,81.0,0,160,1.0,50.0
409,36.0,0,48,4.0,55.0
410,65.0,0,48,2.0,55.0
411,69.0,0,48,2.0,55.0
412,57.0,192,48,3.0,55.0
413,77.0,0,48,1.0,55.0
414,36.0,192,160,4.0,60.0
415,67.0,0,192,2.0,60.0
416,76.0,0,192,1.0,60.0
417,58.0,0,192,3.0,60.0
418,36.0,0,160,4.0,65.0
419,57.0,0,160,3.0,65.0
420,77.0,0,160,1.0,65.0
421,65.0,192,160,2.0,65.0
422,64.0,0,48,2.0,70.0
423,55.0,192,48,3.0,70.0
424,79.0,0,48,1.0,70.0
425,36.0,0,160,4.0,70.0
426,70.0,0,48,2.0,75.0
427,76.0,0,192,1.0,75.0
428,55.0,192,192,3.0,75.0
429,36.0,0,192,4.0,75.0
430,58.0,0,48,2.0,72.0
431,38.0,0,160,4.0,72.0
432,77.0,192,160,1.0,72.0
433,53.0,0,160,3.0,72.0
434,70.0,0,48,2.0,69.0
435,40.0,192,48,4.0,69.0
436,79.0,0,48,1.0,69.0
437,52.0,0,48,3.0,69.0
438,57.0,0,48,3.0,66.0
439,69.0,192,48,2.0,66.0
440,41.0,0,48,4.0,66.0
441,72.0,0,160,1.0,66.0
442,58.0,0,48,3.0,63.0
443,67.0,0,48,2.0,63.0
444,43.0,0,48,4.0,63.0
445,72.0,192,160,1.0,63.0
446,65.0,0,48,2.0,60.0
447,45.0,0,48,4.0,60.0
448,60.0,0,48,3.0,60.0
449,72.0,192,160,1.0,60.0
450,58.0,0,160,2.0,57.0
451,36.0,0,192,4.0,57.0
452,76.0,0,192,1.0,57.0
453,55.0,192,192,3.0,57.0
454,77.0,0,160,1.0,53.0
455,70.0,0,160,2.0,53.0
456,38.0,192,160,4.0,53.0
457,53.0,0,160,3.0,53.0
458,52.0,0,48,3.0,49.0
459,79.0,0,48,1.0,49.0
460,40.0,0,48,4.0,49.0
461,70.0,192,160,2.0,49.0
462,41.0,0,48,4.0,45.0
463,69.0,0,48,2.0,45.0
464,57.0,0,48,3.0,45.0
465,72.0,192,160,1.0,45.0
466,43.0,0,48,4.0,45.0
467,58.0,0,48,3.0,45.0
468,67.0,0,48,2.0,45.0
469,72.0,192,160,1.0,45.0
470,65.0,0,48,2.0,45.0
471,45.0,0,48,4.0,45.0
472,60.0,192,48,3.0,45.0
473,72.0,0,160,1.0,45.0
474,58.0,0,160,2.0,45.0
475,76.0,0,192,1.0,45.0
476,36.0,0,192,4.0,45.0
477,55.0,192,192,3.0,45.0
478,38.0,0,160,4.0,43.0
479,77.0,0,160,1.0,43.0
480,53.0,0,160,3.0,43.0
481,70.0,192,160,2.0,43.0
482,52.0,0,48,3.0,41.0
483,40.0,0,48,4.0,41.0
484,79.0,192,48,1.0,41.0
485,70.0,0,160,2.0,41.0
486,57.0,0,48,3.0,39.0
487,41.0,0,48,4.0,39.0
488,69.0,0,48,2.0,39.0
489,72.0,192,160,1.0,39.0
490,58.0,0,48,3.0,36.0
491,43.0,192,48,4.0,36.0
492,67.0,0,48,2.0,36.0
493,72.0,0,160,1.0,36.0
494,45.0,0,48,4.0,33.0
495,65.0,192,48,2.0,33.0
496,60.0,0,48,3.0,33.0
497,72.0,0,160,1.0,33.0
498,58.0,0,160,2.0,30.0
499,55.0,192,192,3.0,30.0
500,36.0,0,192,4.0,30.0
501,76.0,0,192,1.0,30.0
502,53.0,0,160,3.0,30.0
503,38.0,0,160,4.0,30.0
504,70.0,0,160,2.0,30.0
505,77.0,192,160,1.0,30.0
506,52.0,0,48,3.0,30.0
507,40.0,0,48,4.0,30.0
508,79.0,0,48,1.0,30.0
509,70.0,192,160,2.0,30.0
510,72.0,0,160,1.0,92.0
511,69.0,0,160,2.0,92.0
512,41.0,192,160,4.0,92.0
513,53.0,0,160,3.0,92.0
514,63.0,192,336,1.0,127.0
515,51.0,0,336,3.0,127.0
516,39.0,0,336,4.0,127.0
517,39.0,576,336,4.0,89.0
518,51.0,0,336,3.0,89.0
519,51.0,0,336,3.0,82.0
520,39.0,384,336,4.0,82.0
521,51.0,384,160,3.0,75.0
522,39.0,0,160,4.0,75.0
523,63.0,0,336,1.0,68.0
524,39.0,0,336,4.0,69.0
525,51.0,384,336,3.0,69.0
526,39.0,0,336,4.0,61.0
527,63.0,384,336,1.0,61.0
528,51.0,0,336,3.0,61.0
529,39.0,0,160,4.0,53.0
530,63.0,384,160,1.0,53.0
531,51.0,0,160,3.0,53.0
532,51.0,0,336,3.0,45.0
533,39.0,0,336,4.0,45.0
534,63.0,384,336,1.0,45.0
535,51.0,0,336,3.0,45.0
536,39.0,0,336,4.0,45.0
537,63.0,576,336,1.0,45.0
538,52.0,576,336,3.0,30.0
539,64.0,0,336,1.0,30.0
540,40.0,0,336,4.0,30.0
541,52.0,0,336,3.0,30.0
542,64.0,0,336,1.0,30.0
543,53.0,384,160,3.0,35.0
544,36.0,576,720,4.0,30.0
545,57.0,192,192,3.0,39.0
546,59.0,192,160,3.0,41.0
547,48.0,192,544,3.0,37.0
548,69.0,0,544,1.0,36.0
549,36.0,0,528,4.0,40.0
550,65.0,0,576,2.0,38.0
551,60.0,0,192,3.0,45.0
552,64.0,192,192,2.0,44.0
553,67.0,0,544,1.0,42.0
554,48.0,192,544,3.0,43.0
555,62.0,192,160,3.0,47.0
556,36.0,0,528,4.0,47.0
557,57.0,0,384,2.0,46.0
558,56.0,192,192,2.0,51.0
559,60.0,0,192,3.0,51.0
560,65.0,192,544,1.0,49.0
561,59.0,192,160,3.0,53.0
562,48.0,0,544,3.0,49.0
563,36.0,0,528,4.0,54.0
564,48.0,192,192,3.0,56.0
565,62.0,0,384,2.0,53.0
566,58.0,0,192,3.0,59.0
567,49.0,192,192,3.0,59.0
568,57.0,192,160,3.0,62.0
569,67.0,0,544,1.0,56.0
570,48.0,0,160,3.0,62.0
571,64.0,0,352,2.0,58.0
572,36.0,0,528,4.0,61.0
573,57.0,192,192,2.0,62.0
574,57.0,0,192,3.0,68.0
575,65.0,192,352,2.0,64.0
576,59.0,192,160,3.0,71.0
577,69.0,0,544,1.0,63.0
578,48.0,0,544,3.0,65.0
579,36.0,0,528,4.0,68.0
580,65.0,0,192,2.0,68.0
581,64.0,0,160,2.0,71.0
582,60.0,0,192,3.0,77.0
583,67.0,0,432,1.0,70.0
584,59.0,0,160,3.0,80.0
585,48.0,192,544,3.0,74.0
586,65.0,0,48,1.0,77.0
587,36.0,192,528,4.0,77.0
588,56.0,192,336,2.0,74.0
589,62.0,0,160,2.0,77.0
590,67.0,0,48,1.0,80.0
591,55.0,0,160,2.0,80.0
592,64.0,0,160,2.0,80.0
593,58.0,0,192,3.0,86.0
594,36.0,192,352,4.0,86.0
595,65.0,192,160,1.0,83.0
596,57.0,0,160,2.0,83.0
597,48.0,192,544,3.0,83.0
598,41.0,0,48,4.0,92.0
599,53.0,192,48,3.0,92.0
600,77.0,192,48,1.0,92.0
601,65.0,0,48,2.0,92.0
602,43.0,0,352,4.0,92.0
603,55.0,192,352,3.0,92.0
604,81.0,192,48,1.0,92.0
605,69.0,0,48,2.0,92.0
606,70.0,192,48,2.0,92.0
607,82.0,0,48,1.0,92.0
608,57.0,192,544,3.0,92.0
609,45.0,0,544,4.0,92.0
610,84.0,192,160,1.0,92.0
611,72.0,0,160,2.0,92.0
612,74.0,0,160,2.0,92.0
613,43.0,0,544,4.0,92.0
614,86.0,192,160,1.0,92.0
615,55.0,192,544,3.0,92.0
616,84.0,192,160,1.0,92.0
617,72.0,0,160,2.0,92.0
618,53.0,192,544,3.0,92.0
619,41.0,0,544,4.0,92.0
620,82.0,0,160,1.0,92.0
621,70.0,192,160,2.0,92.0
622,79.0,0,160,1.0,92.0
623,67.0,192,160,2.0,92.0
624,55.0,0,544,3.0,92.0
625,43.0,192,544,4.0,92.0
626,77.0,0,160,1.0,92.0
627,65.0,192,160,2.0,92.0
628,69.0,192,160,2.0,92.0
629,81.0,0,160,1.0,92.0
630,82.0,192,160,1.0,82.0
631,45.0,0,544,4.0,92.0
632,57.0,192,544,3.0,92.0
633,70.0,0,160,2.0,82.0
634,84.0,192,160,1.0,62.0
635,72.0,0,160,2.0,62.0
636,43.0,0,544,4.0,62.0
637,74.0,192,160,2.0,52.0
638,86.0,0,160,1.0,52.0
639,55.0,192,544,3.0,62.0
640,53.0,192,48,3.0,30.0
641,41.0,0,48,4.0,30.0
642,55.0,0,48,3.0,30.0
643,43.0,0,48,4.0,30.0
644,72.0,0,160,2.0,30.0
645,64.0,0,160,2.0,30.0
646,84.0,192,160,1.0,30.0
647,84.0,0,48,1.0,30.0
648,41.0,0,48,4.0,30.0
649,69.0,0,48,2.0,30.0
650,72.0,0,48,2.0,30.0
651,53.0,192,48,3.0,30.0
652,84.0,192,48,1.0,30.0
653,57.0,0,48,3.0,30.0
654,72.0,0,48,2.0,30.0
655,69.0,0,48,2.0,30.0
656,53.0,0,48,3.0,30.0
657,87.0,192,48,1.0,30.0
658,58.0,0,48,3.0,30.0
659,65.0,192,48,2.0,30.0
660,86.0,0,48,1.0,30.0
661,41.0,192,48,4.0,30.0
662,43.0,192,48,4.0,30.0
663,41.0,192,48,4.0,30.0
664,74.0,0,48,2.0,30.0
665,65.0,0,48,2.0,30.0
666,58.0,0,48,3.0,30.0
667,88.0,192,48,1.0,30.0
668,74.0,0,48,2.0,30.0
669,65.0,192,48,2.0,30.0
670,58.0,0,48,3.0,30.0
671,89.0,0,48,1.0,30.0
672,84.0,0,48,1.0,30.0
673,69.0,0,160,2.0,30.0
674,65.0,192,160,3.0,30.0
675,41.0,192,48,4.0,30.0
676,77.0,0,160,2.0,30.0
677,65.0,0,160,3.0,30.0
678,39.0,0,48,4.0,30.0
679,67.0,192,160,3.0,30.0
680,79.0,0,160,2.0,30.0
681,38.0,0,48,4.0,30.0
682,78.0,0,160,2.0,30.0
683,66.0,192,160,3.0,30.0
684,40.0,192,48,4.0,30.0
685,82.0,0,160,2.0,30.0
686,86.0,0,160,1.0,30.0
687,67.0,0,160,3.0,30.0
688,42.0,0,48,4.0,30.0
689,81.0,192,160,2.0,30.0
690,69.0,0,160,3.0,30.0
691,84.0,0,160,1.0,30.0
692,84.0,0,48,1.0,30.0
693,81.0,0,48,2.0,30.0
694,62.0,0,160,3.0,30.0
695,43.0,192,160,4.0,30.0
696,82.0,0,48,1.0,30.0
697,79.0,0,48,2.0,30.0
698,43.0,192,160,4.0,30.0
699,64.0,0,160,3.0,30.0
700,81.0,0,48,1.0,30.0
701,77.0,0,48,2.0,30.0
702,60.0,0,160,3.0,30.0
703,45.0,192,160,4.0,30.0
704,46.0,0,160,4.0,30.0
705,81.0,0,192,1.0,30.0
706,77.0,192,192,2.0,30.0
707,62.0,0,192,3.0,30.0
708,82.0,0,160,1.0,30.0
709,55.0,0,160,3.0,30.0
710,74.0,0,160,2.0,30.0
711,46.0,192,160,4.0,30.0
712,60.0,0,48,3.0,30.0
713,76.0,0,48,2.0,30.0
714,70.0,0,48,2.0,30.0
715,79.0,0,48,1.0,30.0
716,48.0,192,160,4.0,30.0
717,69.0,192,48,2.0,30.0
718,81.0,0,48,1.0,30.0
719,41.0,0,160,4.0,30.0
720,60.0,0,160,3.0,30.0
721,65.0,0,48,2.0,30.0
722,77.0,192,48,1.0,30.0
723,67.0,192,48,2.0,30.0
724,79.0,0,48,1.0,30.0
725,65.0,0,160,2.0,30.0
726,77.0,192,160,1.0,30.0
727,60.0,192,48,4.0,30.0
728,57.0,0,48,3.0,30.0
729,63.0,192,48,4.0,30.0
730,60.0,0,48,3.0,30.0
731,58.0,0,160,3.0,30.0
732,62.0,192,160,4.0,30.0
733,77.0,0,160,1.0,30.0
734,65.0,192,160,2.0,30.0
735,79.0,0,160,1.0,30.0
736,67.0,192,160,2.0,30.0
737,77.0,192,160,1.0,30.0
738,65.0,0,160,2.0,30.0
739,58.0,0,160,3.0,30.0
740,64.0,192,160,4.0,30.0
741,65.0,192,160,4.0,30.0
742,58.0,0,160,3.0,30.0
743,60.0,192,160,4.0,30.0
744,57.0,0,160,3.0,30.0
745,77.0,0,160,1.0,30.0
746,65.0,192,160,2.0,30.0
747,79.0,192,160,1.0,30.0
748,67.0,0,160,2.0,30.0
749,77.0,192,160,1.0,30.0
750,65.0,0,160,2.0,30.0
751,66.0,192,160,2.0,30.0
752,78.0,0,160,1.0,30.0
753,60.0,0,160,3.0,30.0
754,63.0,0,160,4.0,30.0
755,67.0,0,160,2.0,30.0
756,62.0,192,160,4.0,30.0
757,58.0,0,160,3.0,30.0
758,79.0,0,160,1.0,30.0
759,62.0,0,48,4.0,30.0
760,58.0,192,48,3.0,30.0
761,67.0,0,160,2.0,30.0
762,79.0,0,160,1.0,30.0
763,60.0,0,48,4.0,30.0
764,57.0,192,48,3.0,30.0
765,79.0,0,160,1.0,30.0
766,67.0,0,160,2.0,30.0
767,55.0,192,48,3.0,30.0
768,58.0,0,48,4.0,30.0
769,84.0,0,160,1.0,30.0
770,72.0,0,160,2.0,30.0
771,84.0,0,160,1.0,30.0
772,72.0,0,160,2.0,30.0
773,57.0,192,192,4.0,30.0
774,53.0,0,192,3.0,30.0
775,72.0,0,160,2.0,30.0
776,58.0,192,160,4.0,30.0
777,55.0,0,160,3.0,30.0
778,84.0,0,160,1.0,30.0
779,52.0,0,48,3.0,30.0
780,55.0,192,48,4.0,30.0
781,84.0,0,160,1.0,30.0
782,72.0,0,160,2.0,30.0
783,57.0,0,48,4.0,30.0
784,53.0,0,48,3.0,30.0
785,72.0,0,48,2.0,30.0
786,84.0,192,48,1.0,30.0
787,55.0,192,48,4.0,30.0
788,64.0,0,48,3.0,30.0
789,60.0,0,48,2.0,30.0
790,82.0,0,48,1.0,30.0
791,81.0,0,48,1.0,30.0
792,57.0,0,48,4.0,30.0
793,65.0,192,48,3.0,30.0
794,72.0,0,48,2.0,30.0
795,58.0,0,192,4.0,30.0
796,62.0,0,192,3.0,30.0
797,72.0,0,192,2.0,30.0
798,81.0,192,192,1.0,30.0
799,46.0,0,160,4.0,35.0
800,74.0,192,160,2.0,35.0
801,67.0,0,160,2.0,35.0
802,50.0,0,160,3.0,35.0
803,82.0,0,160,1.0,35.0
804,79.0,0,48,1.0,40.0
805,48.0,0,48,4.0,40.0
806,64.0,0,48,2.0,40.0
807,52.0,192,48,3.0,40.0
808,48.0,192,48,4.0,45.0
809,52.0,0,192,3.0,45.0
810,70.0,0,192,2.0,45.0
811,79.0,0,192,1.0,45.0
812,36.0,0,48,4.0,50.0
813,53.0,192,160,3.0,50.0
814,69.0,0,160,2.0,50.0
815,81.0,0,160,1.0,50.0
816,69.0,0,48,2.0,55.0
817,65.0,0,48,2.0,55.0
818,57.0,0,48,3.0,55.0
819,77.0,192,48,1.0,55.0
820,36.0,0,48,4.0,55.0
821,36.0,0,160,4.0,60.0
822,76.0,192,192,1.0,60.0
823,67.0,0,192,2.0,60.0
824,58.0,0,192,3.0,60.0
825,36.0,0,160,4.0,65.0
826,57.0,0,160,3.0,65.0
827,65.0,192,160,2.0,65.0
828,77.0,0,160,1.0,65.0
829,55.0,192,48,3.0,70.0
830,79.0,0,48,1.0,70.0
831,64.0,0,48,2.0,70.0
832,36.0,0,160,4.0,70.0
833,70.0,0,48,2.0,75.0
834,55.0,0,192,3.0,75.0
835,36.0,192,192,4.0,75.0
836,76.0,0,192,1.0,75.0
837,58.0,0,48,2.0,72.0
838,38.0,0,160,4.0,72.0
839,77.0,0,160,1.0,72.0
840,53.0,192,160,3.0,72.0
841,40.0,192,48,4.0,69.0
842,52.0,0,48,3.0,69.0
843,70.0,0,48,2.0,69.0
844,79.0,0,48,1.0,69.0
845,41.0,192,48,4.0,66.0
846,57.0,0,48,3.0,66.0
847,69.0,0,48,2.0,66.0
848,72.0,0,160,1.0,66.0
849,43.0,0,48,4.0,63.0
850,58.0,0,48,3.0,63.0
851,67.0,192,48,2.0,63.0
852,72.0,0,160,1.0,63.0
853,45.0,0,48,4.0,60.0
854,60.0,0,48,3.0,60.0
855,65.0,0,48,2.0,60.0
856,72.0,192,160,1.0,60.0
857,58.0,0,160,2.0,57.0
858,76.0,192,192,1.0,57.0
859,55.0,0,192,3.0,57.0
860,36.0,0,192,4.0,57.0
861,53.0,0,160,3.0,53.0
862,70.0,192,160,2.0,53.0
863,38.0,0,160,4.0,53.0
864,77.0,0,160,1.0,53.0
865,52.0,0,48,3.0,49.0
866,40.0,0,48,4.0,49.0
867,79.0,0,48,1.0,49.0
868,70.0,192,160,2.0,49.0
869,57.0,0,48,3.0,45.0
870,41.0,0,48,4.0,45.0
871,69.0,0,48,2.0,45.0
872,72.0,192,160,1.0,45.0
873,43.0,0,48,4.0,45.0
874,58.0,192,48,3.0,45.0
875,67.0,0,48,2.0,45.0
876,72.0,0,160,1.0,45.0
877,60.0,192,48,3.0,45.0
878,65.0,0,48,2.0,45.0
879,45.0,0,48,4.0,45.0
880,72.0,0,160,1.0,45.0
881,58.0,192,160,2.0,45.0
882,76.0,0,192,1.0,45.0
883,55.0,0,192,3.0,45.0
884,36.0,0,192,4.0,45.0
885,70.0,0,160,2.0,43.0
886,38.0,0,160,4.0,43.0
887,77.0,192,160,1.0,43.0
888,53.0,0,160,3.0,43.0
889,40.0,0,48,4.0,41.0
890,52.0,0,48,3.0,41.0
891,79.0,192,48,1.0,41.0
892,70.0,0,160,2.0,41.0
893,69.0,0,48,2.0,39.0
894,57.0,0,48,3.0,39.0
895,41.0,192,48,4.0,39.0
896,72.0,0,160,1.0,39.0
897,58.0,0,48,3.0,36.0
898,43.0,192,48,4.0,36.0
899,67.0,0,48,2.0,36.0
900,72.0,0,160,1.0,36.0
901,60.0,0,48,3.0,33.0
902,45.0,0,48,4.0,33.0
903,65.0,192,48,2.0,33.0
904,72.0,0,160,1.0,33.0
905,58.0,0,160,2.0,30.0
906,76.0,0,192,1.0,30.0
907,36.0,0,192,4.0,30.0
908,55.0,192,192,3.0,30.0
909,70.0,0,160,2.0,30.0
910,77.0,0,160,1.0,30.0
911,53.0,192,160,3.0,30.0
912,38.0,0,160,4.0,30.0
913,40.0,0,48,4.0,30.0
914,52.0,0,48,3.0,30.0
915,79.0,192,48,1.0,30.0
916,70.0,0,160,2.0,30.0
917,69.0,0,160,2.0,92.0
918,41.0,192,160,4.0,92.0
919,53.0,0,160,3.0,92.0
920,72.0,0,160,1.0,92.0
921,65.0,192,96,1.0,92.0
922,64.0,96,96,1.0,92.0
923,65.0,96,96,1.0,92.0
924,67.0,96,94,1.0,92.0
925,60.0,0,160,2.0,92.0
926,53.0,0,160,3.0,92.0
927,69.0,0,160,1.0,92.0
928,41.0,96,160,4.0,92.0
929,41.0,0,96,4.0,45.0
930,53.0,0,96,3.0,45.0
931,65.0,192,160,2.0,45.0
932,69.0,0,160,2.0,45.0
933,72.0,0,160,1.0,45.0
934,52.0,96,96,3.0,45.0
935,40.0,0,96,4.0,45.0
936,41.0,0,96,4.0,45.0
937,53.0,0,96,3.0,45.0
938,69.0,0,160,2.0,45.0
939,72.0,96,160,1.0,45.0
940,65.0,0,160,2.0,45.0
941,43.0,96,94,4.0,45.0
942,55.0,0,94,3.0,45.0
943,45.0,0,48,4.0,45.0
944,57.0,0,48,3.0,45.0
945,69.0,0,160,2.0,45.0
946,65.0,0,160,2.0,45.0
947,72.0,96,160,1.0,45.0
948,58.0,0,48,3.0,45.0
949,46.0,0,48,4.0,45.0
950,69.0,0,160,2.0,45.0
951,65.0,0,160,2.0,45.0
952,72.0,192,160,1.0,45.0
953,60.0,0,48,3.0,45.0
954,48.0,0,48,4.0,45.0
955,65.0,0,160,2.0,45.0
956,69.0,192,160,2.0,45.0
957,72.0,0,160,1.0,45.0
958,62.0,192,48,3.0,45.0
959,50.0,0,48,4.0,45.0
960,65.0,0,160,2.0,45.0
961,72.0,0,160,1.0,45.0
962,69.0,0,160,2.0,45.0
963,64.0,0,48,3.0,45.0
964,52.0,0,48,4.0,45.0
965,65.0,0,160,2.0,45.0
966,69.0,0,160,2.0,45.0
967,72.0,192,160,1.0,45.0
968,53.0,0,48,4.0,45.0
969,72.0,192,160,1.0,45.0
970,69.0,0,160,2.0,45.0
971,65.0,0,160,2.0,45.0
972,67.0,192,48,3.0,45.0
973,55.0,0,48,4.0,45.0
974,65.0,0,160,2.0,45.0
975,69.0,0,160,2.0,45.0
976,72.0,0,160,1.0,45.0
977,57.0,192,48,4.0,45.0
978,72.0,0,160,1.0,45.0
979,69.0,0,160,2.0,45.0
980,65.0,0,160,2.0,45.0
981,58.0,0,48,4.0,45.0
982,70.0,0,48,3.0,45.0
983,72.0,192,160,1.0,45.0
984,69.0,0,160,2.0,45.0
985,65.0,0,160,2.0,45.0
986,60.0,0,160,4.0,45.0
987,65.0,0,160,2.0,45.0
988,69.0,192,160,2.0,45.0
989,72.0,0,160,3.0,45.0
990,74.0,0,48,1.0,45.0
991,69.0,192,160,3.0,45.0
992,60.0,0,160,4.0,45.0
993,65.0,0,160,2.0,45.0
994,76.0,0,48,1.0,45.0
995,65.0,0,160,2.0,45.0
996,69.0,192,160,3.0,45.0
997,60.0,0,160,4.0,45.0
998,77.0,192,48,1.0,45.0
999,60.0,0,160,4.0,45.0
1000,69.0,0,160,3.0,45.0
1001,65.0,0,160,2.0,45.0
1002,79.0,0,48,1.0,45.0
1003,60.0,192,160,4.0,45.0
1004,65.0,0,160,2.0,45.0
1005,69.0,0,160,3.0,45.0
1006,81.0,192,48,1.0,45.0
1007,65.0,0,160,2.0,45.0
1008,60.0,0,160,4.0,45.0
1009,69.0,0,160,3.0,45.0
1010,82.0,192,48,1.0,45.0
1011,67.0,0,160,3.0,45.0
1012,60.0,0,160,4.0,45.0
1013,64.0,0,160,2.0,45.0
1014,55.0,0,48,1.0,45.0
1015,67.0,0,160,3.0,45.0
1016,60.0,192,160,4.0,45.0
1017,64.0,0,160,2.0,45.0
1018,81.0,0,48,1.0,45.0
1019,60.0,192,160,4.0,45.0
1020,67.0,0,160,3.0,45.0
1021,64.0,0,160,2.0,45.0
1022,82.0,0,48,1.0,45.0
1023,67.0,192,160,3.0,45.0
1024,60.0,0,160,4.0,45.0
1025,64.0,0,160,2.0,45.0
1026,70.0,0,48,1.0,45.0
1027,67.0,0,160,3.0,45.0
1028,64.0,192,160,2.0,45.0
1029,60.0,0,160,4.0,45.0
1030,84.0,192,48,1.0,45.0
1031,67.0,0,160,3.0,45.0
1032,64.0,0,160,2.0,45.0
1033,60.0,0,160,4.0,45.0
1034,81.0,0,48,1.0,92.0
1035,72.0,0,160,3.0,92.0
1036,53.0,0,160,4.0,92.0
1037,69.0,0,160,2.0,92.0
1038,65.0,192,160,2.0,92.0
1039,65.0,192,96,1.0,45.0
1040,72.0,0,160,3.0,45.0
1041,77.0,0,160,2.0,45.0
1042,60.0,0,160,4.0,45.0
1043,69.0,0,160,2.0,45.0
1044,64.0,96,96,1.0,45.0
1045,65.0,0,96,1.0,45.0
1046,72.0,0,160,3.0,45.0
1047,69.0,96,160,2.0,45.0
1048,77.0,0,160,2.0,45.0
1049,60.0,0,160,4.0,45.0
1050,67.0,96,94,1.0,45.0
1051,72.0,0,160,3.0,45.0
1052,77.0,96,160,2.0,45.0
1053,69.0,0,160,2.0,45.0
1054,60.0,0,160,4.0,45.0
1055,70.0,0,48,1.0,45.0
1056,72.0,0,160,3.0,45.0
1057,60.0,0,160,4.0,45.0
1058,77.0,192,160,2.0,45.0
1059,69.0,0,160,2.0,45.0
1060,69.0,0,160,2.0,45.0
1061,77.0,0,160,2.0,45.0
1062,72.0,192,160,3.0,45.0
1063,60.0,0,160,4.0,45.0
1064,74.0,0,48,1.0,45.0
1065,60.0,192,160,4.0,45.0
1066,77.0,0,160,2.0,45.0
1067,72.0,0,160,3.0,45.0
1068,69.0,0,160,2.0,45.0
1069,76.0,0,48,1.0,45.0
1070,69.0,192,160,2.0,45.0
1071,77.0,0,160,2.0,45.0
1072,60.0,0,160,4.0,45.0
1073,72.0,0,160,3.0,45.0
1074,72.0,192,160,3.0,45.0
1075,77.0,0,160,2.0,45.0
1076,69.0,0,160,2.0,45.0
1077,60.0,0,160,4.0,45.0
1078,79.0,192,48,1.0,45.0
1079,60.0,0,160,4.0,45.0
1080,77.0,0,160,2.0,45.0
1081,69.0,0,160,2.0,45.0
1082,72.0,0,160,3.0,45.0
1083,81.0,0,48,1.0,45.0
1084,60.0,0,160,4.0,45.0
1085,72.0,0,160,3.0,45.0
1086,69.0,0,160,2.0,45.0
1087,77.0,192,160,2.0,45.0
1088,82.0,0,48,1.0,45.0
1089,72.0,192,160,3.0,45.0
1090,69.0,0,160,2.0,45.0
1091,60.0,0,160,4.0,45.0
1092,77.0,0,160,2.0,45.0
1093,84.0,0,160,1.0,45.0
1094,76.0,0,160,2.0,45.0
1095,72.0,0,160,3.0,45.0
1096,67.0,0,160,2.0,45.0
1097,60.0,192,160,4.0,45.0
1098,60.0,0,160,4.0,45.0
1099,76.0,0,160,2.0,45.0
1100,86.0,0,160,1.0,45.0
1101,67.0,192,160,2.0,45.0
1102,72.0,0,160,3.0,45.0
1103,88.0,0,160,1.0,45.0
1104,76.0,192,160,2.0,45.0
1105,67.0,0,160,2.0,45.0
1106,72.0,0,160,3.0,45.0
1107,60.0,0,160,4.0,45.0
1108,89.0,192,160,1.0,45.0
1109,76.0,0,160,2.0,45.0
1110,72.0,0,160,3.0,45.0
1111,67.0,0,160,2.0,45.0
1112,60.0,0,160,4.0,45.0
1113,91.0,0,160,1.0,45.0
1114,72.0,0,160,3.0,45.0
1115,60.0,192,160,4.0,45.0
1116,76.0,0,160,2.0,45.0
1117,67.0,0,160,2.0,45.0
1118,67.0,0,160,2.0,45.0
1119,76.0,0,160,2.0,45.0
1120,60.0,0,160,4.0,45.0
1121,72.0,192,160,3.0,45.0
1122,93.0,0,160,1.0,45.0
1123,94.0,0,160,1.0,45.0
1124,76.0,0,160,2.0,45.0
1125,67.0,0,160,2.0,45.0
1126,60.0,0,160,4.0,45.0
1127,72.0,192,160,3.0,45.0
1128,72.0,0,160,3.0,45.0
1129,67.0,0,160,2.0,45.0
1130,76.0,0,160,2.0,45.0
1131,60.0,192,160,4.0,45.0
1132,60.0,192,160,4.0,45.0
1133,72.0,0,160,3.0,45.0
1134,76.0,0,160,2.0,45.0
1135,67.0,0,160,2.0,45.0
1136,81.0,0,160,1.0,45.0
1137,76.0,0,160,2.0,45.0
1138,60.0,0,160,4.0,45.0
1139,82.0,192,160,1.0,45.0
1140,72.0,0,160,3.0,45.0
1141,67.0,0,160,2.0,45.0
1142,60.0,192,160,4.0,45.0
1143,76.0,0,160,2.0,45.0
1144,72.0,0,160,3.0,45.0
1145,67.0,0,160,2.0,45.0
1146,60.0,0,160,4.0,45.0
1147,67.0,192,160,2.0,45.0
1148,76.0,0,160,2.0,45.0
1149,84.0,0,160,1.0,45.0
1150,72.0,0,160,3.0,45.0
1151,81.0,0,160,1.0,45.0
1152,72.0,0,160,3.0,45.0
1153,60.0,0,160,4.0,45.0
1154,69.0,192,160,2.0,45.0
1155,77.0,0,160,2.0,45.0
1156,38.0,192,96,4.0,45.0
1157,50.0,0,96,3.0,45.0
1158,48.0,0,96,3.0,45.0
1159,36.0,96,96,4.0,45.0
1160,50.0,96,96,3.0,45.0
1161,38.0,0,96,4.0,45.0
1162,52.0,0,94,3.0,45.0
1163,40.0,96,94,4.0,45.0
1164,41.0,0,160,4.0,45.0
1165,53.0,96,160,3.0,45.0
1166,64.0,192,96,2.0,45.0
1167,76.0,0,96,1.0,45.0
1168,74.0,96,96,1.0,46.0
1169,62.0,0,96,2.0,46.0
1170,76.0,96,96,1.0,47.0
1171,64.0,0,96,2.0,47.0
1172,77.0,96,94,1.0,48.0
1173,65.0,0,94,2.0,48.0
1174,79.0,96,160,1.0,49.0
1175,67.0,0,160,2.0,49.0
1176,53.0,192,96,3.0,53.0
1177,41.0,0,96,4.0,53.0
1178,52.0,0,96,3.0,54.0
1179,40.0,96,96,4.0,54.0
1180,41.0,96,96,4.0,55.0
1181,53.0,0,96,3.0,55.0
1182,55.0,96,94,3.0,56.0
1183,43.0,0,94,4.0,56.0
1184,45.0,0,160,4.0,57.0
1185,57.0,96,160,3.0,57.0
1186,79.0,0,96,1.0,57.0
1187,67.0,192,96,2.0,57.0
1188,77.0,96,96,1.0,58.0
1189,65.0,0,96,2.0,58.0
1190,79.0,96,96,1.0,59.0
1191,67.0,0,96,2.0,59.0
1192,69.0,0,94,2.0,60.0
1193,81.0,96,94,1.0,60.0
1194,70.0,96,160,2.0,61.0
1195,82.0,0,160,1.0,61.0
1196,57.0,0,96,3.0,65.0
1197,45.0,192,96,4.0,65.0
1198,43.0,96,96,4.0,66.0
1199,55.0,0,96,3.0,66.0
1200,45.0,96,96,4.0,67.0
1201,57.0,0,96,3.0,67.0
1202,58.0,96,94,3.0,68.0
1203,46.0,0,94,4.0,68.0
1204,60.0,96,160,3.0,69.0
1205,48.0,0,160,4.0,69.0
1206,79.0,192,96,1.0,75.0
1207,67.0,0,96,2.0,75.0
1208,65.0,0,96,2.0,68.0
1209,77.0,96,96,1.0,68.0
1210,67.0,96,96,2.0,61.0
1211,79.0,0,96,1.0,61.0
1212,81.0,0,94,1.0,53.0
1213,69.0,96,94,2.0,53.0
1214,70.0,0,160,2.0,45.0
1215,65.0,96,160,3.0,45.0
1216,82.0,0,160,1.0,45.0
1217,62.0,0,160,4.0,45.0
1218,77.0,384,160,2.0,45.0
1219,62.0,0,160,4.0,45.0
1220,81.0,0,160,1.0,45.0
1221,72.0,0,160,3.0,45.0
1222,72.0,0,384,3.0,45.0
1223,81.0,0,384,1.0,45.0
1224,64.0,0,528,4.0,45.0
1225,76.0,192,528,2.0,45.0
1226,71.0,0,160,3.0,45.0
1227,80.0,384,160,1.0,45.0
1228,69.0,192,48,3.0,45.0
1229,65.0,0,48,2.0,45.0
1230,81.0,0,160,1.0,45.0
1231,81.0,192,96,2.0,45.0
1232,69.0,0,96,3.0,45.0
1233,68.0,0,96,3.0,48.0
1234,80.0,96,96,2.0,48.0
1235,69.0,0,96,3.0,51.0
1236,81.0,96,96,2.0,51.0
1237,71.0,96,94,3.0,54.0
1238,83.0,0,94,2.0,54.0
1239,72.0,96,160,3.0,57.0
1240,84.0,0,160,2.0,57.0
1241,79.0,192,96,1.0,45.0
1242,67.0,0,96,2.0,63.0
1243,77.0,0,96,1.0,52.0
1244,65.0,96,96,2.0,66.0
1245,79.0,96,96,1.0,59.0
1246,67.0,0,96,2.0,69.0
1247,41.0,0,1104,4.0,45.0
1248,81.0,96,94,1.0,67.0
1249,69.0,0,94,2.0,72.0
1250,82.0,96,160,1.0,45.0
1251,70.0,0,160,2.0,45.0
1252,65.0,0,160,3.0,45.0
1253,38.0,0,160,4.0,45.0
1254,62.0,0,160,4.0,45.0
1255,77.0,0,160,2.0,45.0
1256,65.0,384,160,3.0,45.0
1257,81.0,0,160,1.0,45.0
1258,81.0,192,384,1.0,45.0
1259,72.0,0,384,3.0,45.0
1260,64.0,0,528,4.0,45.0
1261,76.0,0,528,2.0,45.0
1262,71.0,0,160,3.0,45.0
1263,80.0,384,160,1.0,45.0
1264,81.0,192,160,1.0,45.0
1265,72.0,0,160,3.0,45.0
1266,76.0,0,160,2.0,45.0
1267,60.0,0,160,4.0,45.0
1268,60.0,0,160,4.0,45.0
1269,79.0,0,160,1.0,45.0
1270,72.0,0,160,3.0,45.0
1271,76.0,384,160,2.0,45.0
1272,79.0,192,384,1.0,45.0
1273,71.0,0,384,3.0,45.0
1274,62.0,0,528,4.0,45.0
1275,74.0,0,528,2.0,45.0
1276,78.0,0,160,1.0,45.0
1277,69.0,384,160,3.0,45.0
1278,71.0,0,160,1.0,92.0
1279,67.0,0,160,3.0,92.0
1280,55.0,0,160,4.0,92.0
1281,74.0,192,160,2.0,92.0
1282,79.0,0,160,1.0,92.0
1283,62.0,192,160,4.0,45.0
1284,83.0,0,160,2.0,45.0
1285,71.0,0,160,3.0,45.0
1286,67.0,0,160,3.0,45.0
1287,74.0,0,160,2.0,45.0
1288,66.0,96,96,1.0,45.0
1289,74.0,0,160,2.0,45.0
1290,62.0,0,160,4.0,45.0
1291,67.0,96,160,3.0,45.0
1292,71.0,0,160,3.0,45.0
1293,83.0,0,160,2.0,45.0
1294,69.0,96,94,1.0,45.0
1295,83.0,96,160,2.0,45.0
1296,74.0,0,160,2.0,45.0
1297,71.0,0,160,3.0,45.0
1298,67.0,0,160,3.0,45.0
1299,62.0,0,160,4.0,45.0
1300,72.0,0,48,1.0,45.0
1301,71.0,0,160,3.0,45.0
1302,74.0,0,160,2.0,45.0
1303,83.0,0,160,2.0,45.0
1304,67.0,0,160,3.0,45.0
1305,62.0,192,160,4.0,45.0
1306,83.0,0,160,2.0,45.0
1307,62.0,192,160,4.0,45.0
1308,67.0,0,160,3.0,45.0
1309,71.0,0,160,3.0,45.0
1310,74.0,0,160,2.0,45.0
1311,76.0,192,48,1.0,45.0
1312,83.0,0,160,2.0,45.0
1313,62.0,0,160,4.0,45.0
1314,67.0,0,160,3.0,45.0
1315,71.0,0,160,3.0,45.0
1316,74.0,0,160,2.0,45.0
1317,78.0,0,48,1.0,45.0
1318,62.0,0,160,4.0,45.0
1319,71.0,0,160,3.0,45.0
1320,67.0,0,160,3.0,45.0
1321,74.0,192,160,2.0,45.0
1322,83.0,0,160,2.0,45.0
1323,79.0,192,48,1.0,45.0
1324,74.0,0,160,2.0,45.0
1325,83.0,0,160,2.0,45.0
1326,67.0,0,160,3.0,45.0
1327,71.0,0,160,3.0,45.0
1328,62.0,0,160,4.0,45.0
1329,81.0,0,48,1.0,45.0
1330,66.0,192,160,3.0,45.0
1331,84.0,0,160,2.0,45.0
1332,74.0,0,160,2.0,45.0
1333,62.0,0,160,4.0,45.0
1334,69.0,0,160,3.0,45.0
1335,83.0,0,48,1.0,45.0
1336,74.0,0,160,2.0,45.0
1337,84.0,0,160,2.0,45.0
1338,69.0,0,160,3.0,45.0
1339,66.0,0,160,3.0,45.0
1340,62.0,192,160,4.0,45.0
1341,84.0,192,160,2.0,45.0
1342,62.0,0,160,4.0,45.0
1343,66.0,0,160,3.0,45.0
1344,74.0,0,160,2.0,45.0
1345,69.0,0,160,3.0,45.0
1346,66.0,0,160,3.0,45.0
1347,69.0,0,160,3.0,45.0
1348,62.0,0,160,4.0,45.0
1349,86.0,192,160,1.0,45.0
1350,84.0,0,160,2.0,45.0
1351,74.0,0,160,2.0,45.0
1352,74.0,0,160,2.0,45.0
1353,84.0,0,160,2.0,45.0
1354,69.0,0,160,3.0,45.0
1355,66.0,192,160,3.0,45.0
1356,62.0,0,160,4.0,45.0
1357,88.0,0,160,1.0,45.0
1358,69.0,0,160,3.0,45.0
1359,62.0,0,160,4.0,45.0
1360,66.0,0,160,3.0,45.0
1361,74.0,192,160,2.0,45.0
1362,84.0,0,160,2.0,45.0
1363,90.0,0,160,1.0,45.0
1364,62.0,0,160,4.0,45.0
1365,74.0,192,160,2.0,45.0
1366,84.0,0,160,2.0,45.0
1367,91.0,0,160,1.0,45.0
1368,69.0,0,160,3.0,45.0
1369,66.0,0,160,3.0,45.0
1370,74.0,0,160,2.0,45.0
1371,84.0,0,160,2.0,45.0
1372,69.0,0,160,3.0,45.0
1373,66.0,192,160,3.0,45.0
1374,93.0,0,160,1.0,45.0
1375,62.0,0,160,4.0,45.0
1376,69.0,0,160,3.0,45.0
1377,66.0,0,160,3.0,45.0
1378,84.0,0,160,2.0,45.0
1379,74.0,0,160,2.0,45.0
1380,95.0,192,160,1.0,45.0
1381,62.0,0,160,4.0,45.0
1382,96.0,192,160,1.0,45.0
1383,74.0,0,160,2.0,45.0
1384,84.0,0,160,2.0,45.0
1385,69.0,0,160,3.0,45.0
1386,66.0,0,160,3.0,45.0
1387,62.0,0,160,4.0,45.0
1388,66.0,0,160,3.0,45.0
1389,69.0,0,160,3.0,45.0
1390,74.0,0,160,2.0,45.0
1391,84.0,0,160,2.0,45.0
1392,62.0,192,160,4.0,45.0
1393,71.0,0,160,1.0,45.0
1394,62.0,0,160,4.0,45.0
1395,84.0,0,160,2.0,45.0
1396,66.0,0,160,3.0,45.0
1397,69.0,0,160,3.0,45.0
1398,74.0,192,160,2.0,45.0
1399,69.0,0,160,3.0,45.0
1400,66.0,0,160,3.0,45.0
1401,72.0,0,160,1.0,45.0
1402,74.0,0,160,2.0,45.0
1403,84.0,192,160,2.0,45.0
1404,62.0,0,160,4.0,45.0
1405,74.0,0,160,2.0,45.0
1406,84.0,0,160,2.0,45.0
1407,69.0,192,160,3.0,45.0
1408,62.0,0,160,4.0,45.0
1409,66.0,0,160,3.0,45.0
1410,66.0,0,160,3.0,45.0
1411,62.0,0,160,4.0,45.0
1412,84.0,0,160,2.0,45.0
1413,74.0,192,160,2.0,45.0
1414,69.0,0,160,3.0,45.0
1415,71.0,0,160,3.0,92.0
1416,83.0,0,160,2.0,92.0
1417,67.0,192,160,3.0,92.0
1418,74.0,0,160,2.0,92.0
1419,55.0,0,160,4.0,92.0
1420,74.0,192,160,2.0,45.0
1421,83.0,0,160,2.0,45.0
1422,62.0,0,160,4.0,45.0
1423,71.0,0,160,3.0,45.0
1424,67.0,0,160,3.0,45.0
1425,66.0,96,96,1.0,45.0
1426,62.0,0,160,4.0,45.0
1427,71.0,0,160,3.0,45.0
1428,67.0,0,160,3.0,45.0
1429,74.0,0,160,2.0,45.0
1430,83.0,96,160,2.0,45.0
1431,69.0,96,94,1.0,45.0
1432,83.0,0,160,2.0,45.0
1433,62.0,96,160,4.0,45.0
1434,67.0,0,160,3.0,45.0
1435,71.0,0,160,3.0,45.0
1436,74.0,0,160,2.0,45.0
1437,72.0,0,48,1.0,45.0
1438,71.0,0,160,3.0,45.0
1439,62.0,0,160,4.0,45.0
1440,83.0,0,160,2.0,45.0
1441,67.0,192,160,3.0,45.0
1442,74.0,0,160,2.0,45.0
1443,62.0,0,160,4.0,45.0
1444,83.0,0,160,2.0,45.0
1445,74.0,0,160,2.0,45.0
1446,67.0,192,160,3.0,45.0
1447,71.0,0,160,3.0,45.0
1448,76.0,0,160,1.0,45.0
1449,71.0,0,160,3.0,45.0
1450,62.0,192,160,4.0,45.0
1451,74.0,0,160,2.0,45.0
1452,83.0,0,160,2.0,45.0
1453,67.0,0,160,3.0,45.0
1454,62.0,0,160,4.0,45.0
1455,83.0,0,160,2.0,45.0
1456,67.0,0,160,3.0,45.0
1457,74.0,0,160,2.0,45.0
1458,78.0,192,160,1.0,45.0
1459,71.0,0,160,3.0,45.0
1460,67.0,0,160,3.0,45.0
1461,71.0,0,160,3.0,45.0
1462,74.0,0,160,2.0,45.0
1463,62.0,0,160,4.0,45.0
1464,79.0,192,160,1.0,45.0
1465,83.0,0,160,2.0,45.0
1466,71.0,0,160,3.0,45.0
1467,67.0,0,160,3.0,45.0
1468,81.0,192,160,1.0,45.0
1469,83.0,0,160,2.0,45.0
1470,74.0,0,160,2.0,45.0
1471,62.0,0,160,4.0,45.0
1472,74.0,192,160,2.0,45.0
1473,83.0,0,160,2.0,45.0
1474,67.0,0,160,4.0,45.0
1475,71.0,0,160,3.0,45.0
1476,83.0,0,160,2.0,45.0
1477,84.0,192,160,1.0,45.0
1478,71.0,0,160,3.0,45.0
1479,74.0,0,160,2.0,45.0
1480,67.0,0,160,4.0,45.0
1481,71.0,0,160,3.0,45.0
1482,67.0,0,160,4.0,45.0
1483,83.0,0,160,2.0,45.0
1484,86.0,0,160,1.0,45.0
1485,74.0,192,160,2.0,45.0
1486,74.0,0,160,2.0,45.0
1487,83.0,192,160,2.0,45.0
1488,71.0,0,160,3.0,45.0
1489,67.0,0,160,4.0,45.0
1490,88.0,0,160,1.0,45.0
1491,90.0,0,160,1.0,45.0
1492,67.0,0,160,4.0,45.0
1493,74.0,0,160,2.0,45.0
1494,83.0,0,160,2.0,45.0
1495,71.0,192,160,3.0,45.0
1496,83.0,0,160,2.0,45.0
1497,74.0,0,160,2.0,45.0
1498,65.0,0,160,4.0,45.0
1499,91.0,192,160,1.0,45.0
1500,67.0,0,160,3.0,45.0
1501,71.0,0,160,3.0,45.0
1502,67.0,0,160,3.0,45.0
1503,65.0,0,160,4.0,45.0
1504,74.0,0,160,2.0,45.0
1505,83.0,0,160,2.0,45.0
1506,93.0,192,160,1.0,45.0
1507,71.0,0,160,3.0,45.0
1508,65.0,0,160,4.0,45.0
1509,67.0,0,160,3.0,45.0
1510,71.0,0,160,3.0,45.0
1511,83.0,0,160,2.0,45.0
1512,74.0,192,160,2.0,45.0
1513,95.0,0,160,1.0,45.0
1514,71.0,0,160,3.0,45.0
1515,96.0,0,160,1.0,45.0
1516,83.0,0,160,2.0,45.0
1517,68.0,0,160,3.0,45.0
1518,64.0,192,160,4.0,45.0
1519,74.0,0,160,2.0,45.0
1520,68.0,0,160,3.0,45.0
1521,71.0,192,160,3.0,45.0
1522,83.0,0,160,2.0,45.0
1523,76.0,0,160,2.0,45.0
1524,64.0,0,160,4.0,45.0
1525,76.0,192,160,2.0,44.0
1526,83.0,0,160,2.0,44.0
1527,75.0,0,160,1.0,44.0
1528,64.0,0,160,4.0,44.0
1529,68.0,0,160,3.0,44.0
1530,71.0,0,160,3.0,44.0
1531,71.0,192,160,3.0,43.0
1532,68.0,0,160,3.0,43.0
1533,83.0,0,160,2.0,43.0
1534,64.0,0,160,4.0,43.0
1535,76.0,0,160,2.0,43.0
1536,76.0,0,160,2.0,42.0
1537,71.0,0,160,3.0,42.0
1538,64.0,192,160,4.0,42.0
1539,68.0,0,160,3.0,42.0
1540,83.0,0,160,2.0,42.0
1541,76.0,0,160,2.0,41.0
1542,83.0,0,160,2.0,41.0
1543,74.0,0,160,1.0,41.0
1544,71.0,0,160,3.0,41.0
1545,68.0,0,160,3.0,41.0
1546,64.0,192,160,4.0,41.0
1547,69.0,0,160,3.0,40.0
1548,64.0,0,160,4.0,40.0
1549,72.0,0,160,3.0,40.0
1550,84.0,0,160,2.0,40.0
1551,76.0,192,160,2.0,40.0
1552,69.0,0,160,3.0,39.0
1553,64.0,192,160,4.0,39.0
1554,84.0,0,160,2.0,39.0
1555,76.0,0,160,2.0,39.0
1556,72.0,0,160,3.0,39.0
1557,72.0,0,160,3.0,38.0
1558,71.0,192,160,1.0,37.0
1559,76.0,0,160,2.0,38.0
1560,84.0,0,160,2.0,38.0
1561,69.0,0,160,3.0,38.0
1562,64.0,0,160,4.0,38.0
1563,64.0,0,160,4.0,36.0
1564,84.0,0,160,2.0,36.0
1565,69.0,0,160,3.0,36.0
1566,72.0,192,160,3.0,36.0
1567,76.0,0,160,2.0,36.0
1568,64.0,0,160,4.0,34.0
1569,69.0,0,160,3.0,34.0
1570,76.0,0,160,2.0,34.0
1571,84.0,192,160,2.0,34.0
1572,71.0,0,160,1.0,32.0
1573,83.0,0,160,2.0,32.0
1574,76.0,0,160,2.0,32.0
1575,64.0,192,160,4.0,32.0
1576,68.0,0,160,3.0,32.0
1577,71.0,0,160,1.0,30.0
1578,68.0,0,160,3.0,30.0
1579,76.0,0,160,2.0,30.0
1580,83.0,192,160,2.0,30.0
1581,64.0,0,160,4.0,30.0
1582,64.0,0,160,4.0,30.0
1583,76.0,0,160,2.0,30.0
1584,83.0,192,160,2.0,30.0
1585,68.0,0,160,3.0,30.0
1586,71.0,0,160,3.0,30.0
1587,72.0,0,160,1.0,30.0
1588,71.0,192,160,3.0,30.0
1589,76.0,0,160,2.0,30.0
1590,64.0,0,160,4.0,30.0
1591,68.0,0,160,3.0,30.0
1592,83.0,0,160,2.0,30.0
1593,68.0,0,160,3.0,30.0
1594,71.0,0,160,3.0,30.0
1595,72.0,0,160,1.0,30.0
1596,76.0,192,160,2.0,30.0
1597,83.0,0,160,2.0,30.0
1598,64.0,0,160,4.0,30.0
1599,83.0,0,160,2.0,30.0
1600,71.0,192,160,3.0,30.0
1601,76.0,0,160,2.0,30.0
1602,64.0,0,160,4.0,30.0
1603,68.0,0,160,3.0,30.0
1604,76.0,0,160,2.0,30.0
1605,64.0,0,160,4.0,30.0
1606,71.0,0,160,3.0,30.0
1607,83.0,0,160,2.0,30.0
1608,68.0,192,160,3.0,30.0
1609,76.0,192,160,2.0,30.0
1610,83.0,0,160,2.0,30.0
1611,64.0,0,160,4.0,30.0
1612,71.0,0,160,3.0,30.0
1613,68.0,0,160,3.0,30.0
1614,68.0,0,160,3.0,30.0
1615,83.0,0,160,2.0,30.0
1616,64.0,192,160,4.0,30.0
1617,71.0,0,160,3.0,30.0
1618,76.0,0,160,2.0,30.0
1619,76.0,192,160,2.0,30.0
1620,83.0,0,160,2.0,30.0
1621,64.0,0,160,4.0,30.0
1622,68.0,0,160,3.0,30.0
1623,71.0,0,160,3.0,30.0
1624,72.0,0,160,1.0,30.0
1625,71.0,0,160,3.0,30.0
1626,83.0,0,160,2.0,30.0
1627,72.0,0,160,1.0,30.0
1628,76.0,0,160,2.0,30.0
1629,68.0,0,160,3.0,30.0
1630,64.0,192,160,4.0,30.0
1631,76.0,0,160,2.0,30.0
1632,83.0,0,160,2.0,30.0
1633,71.0,0,160,3.0,30.0
1634,68.0,0,160,3.0,30.0
1635,64.0,192,160,4.0,30.0
1636,68.0,0,160,3.0,30.0
1637,64.0,0,160,4.0,30.0
1638,83.0,0,160,2.0,30.0
1639,76.0,192,160,2.0,30.0
1640,71.0,0,160,3.0,30.0
1641,64.0,192,160,4.0,30.0
1642,71.0,0,160,3.0,30.0
1643,83.0,0,160,2.0,30.0
1644,76.0,0,160,2.0,30.0
1645,68.0,0,160,3.0,30.0
1646,52.0,0,96,4.0,30.0
1647,56.0,192,96,3.0,30.0
1648,80.0,0,160,2.0,30.0
1649,76.0,0,160,2.0,30.0
1650,83.0,0,160,1.0,30.0
1651,54.0,96,96,3.0,32.0
1652,51.0,0,96,4.0,32.0
1653,56.0,0,96,3.0,34.0
1654,52.0,0,96,4.0,34.0
1655,83.0,96,160,1.0,35.0
1656,76.0,0,160,2.0,35.0
1657,80.0,0,160,2.0,35.0
1658,57.0,96,94,3.0,36.0
1659,54.0,0,94,4.0,36.0
1660,56.0,0,48,4.0,38.0
1661,59.0,0,48,3.0,38.0
1662,76.0,0,160,2.0,40.0
1663,83.0,0,160,1.0,40.0
1664,80.0,96,160,2.0,40.0
1665,61.0,0,96,3.0,44.0
1666,80.0,192,160,2.0,45.0
1667,76.0,0,160,2.0,45.0
1668,83.0,0,160,1.0,45.0
1669,59.0,96,96,3.0,47.0
1670,61.0,0,96,3.0,50.0
1671,83.0,0,160,1.0,50.0
1672,76.0,0,160,2.0,50.0
1673,80.0,96,160,2.0,50.0
1674,62.0,96,94,3.0,53.0
1675,64.0,96,48,3.0,56.0
1676,80.0,0,160,2.0,56.0
1677,76.0,0,160,2.0,56.0
1678,83.0,0,160,1.0,56.0
1679,68.0,0,96,3.0,62.0
1680,64.0,0,160,4.0,62.0
1681,80.0,192,160,2.0,62.0
1682,83.0,0,160,1.0,62.0
1683,76.0,0,160,2.0,62.0
1684,66.0,96,96,3.0,65.0
1685,68.0,0,96,3.0,68.0
1686,64.0,0,160,4.0,68.0
1687,76.0,96,160,2.0,68.0
1688,83.0,0,160,1.0,68.0
1689,80.0,0,160,2.0,68.0
1690,69.0,96,94,3.0,71.0
1691,71.0,0,48,3.0,74.0
1692,83.0,0,160,1.0,74.0
1693,64.0,96,160,4.0,74.0
1694,80.0,0,160,2.0,74.0
1695,76.0,0,160,2.0,74.0
1696,66.0,0,96,2.0,80.0
1697,69.0,0,96,3.0,80.0
1698,64.0,0,160,4.0,80.0
1699,88.0,192,160,1.0,80.0
1700,64.0,96,96,2.0,83.0
1701,68.0,0,96,3.0,83.0
1702,69.0,0,96,3.0,86.0
1703,66.0,0,96,2.0,86.0
1704,86.0,0,160,1.0,86.0
1705,64.0,96,160,4.0,86.0
1706,71.0,96,94,3.0,89.0
1707,68.0,0,94,2.0,89.0
1708,85.0,0,48,1.0,92.0
1709,64.0,0,160,3.0,92.0
1710,73.0,0,160,3.0,92.0
1711,57.0,96,160,4.0,92.0
1712,69.0,0,160,2.0,92.0
1713,57.0,0,96,1.0,45.0
1714,64.0,192,160,4.0,45.0
1715,69.0,0,160,3.0,45.0
1716,85.0,0,160,2.0,45.0
1717,73.0,0,160,3.0,45.0
1718,56.0,96,96,1.0,45.0
1719,57.0,0,96,1.0,45.0
1720,69.0,0,160,3.0,45.0
1721,73.0,96,160,3.0,45.0
1722,64.0,0,160,4.0,45.0
1723,85.0,0,160,2.0,45.0
1724,59.0,96,94,1.0,45.0
1725,61.0,0,48,1.0,45.0
1726,76.0,0,160,2.0,45.0
1727,69.0,0,160,3.0,45.0
1728,73.0,0,160,3.0,45.0
1729,64.0,96,160,4.0,45.0
1730,85.0,0,160,2.0,45.0
1731,62.0,0,48,1.0,45.0
1732,76.0,0,160,2.0,45.0
1733,85.0,0,160,2.0,45.0
1734,69.0,192,160,3.0,45.0
1735,73.0,0,160,3.0,45.0
1736,64.0,0,160,4.0,45.0
1737,85.0,0,160,2.0,45.0
1738,69.0,0,160,3.0,45.0
1739,64.0,0,160,4.0,45.0
1740,73.0,0,160,3.0,45.0
1741,76.0,192,160,2.0,45.0
1742,66.0,0,48,1.0,45.0
1743,85.0,0,160,2.0,45.0
1744,76.0,0,160,2.0,45.0
1745,73.0,0,160,3.0,45.0
1746,64.0,0,160,4.0,45.0
1747,69.0,192,160,3.0,45.0
1748,68.0,0,48,1.0,45.0
1749,85.0,0,160,2.0,45.0
1750,64.0,0,160,4.0,45.0
1751,69.0,0,160,3.0,45.0
1752,76.0,192,160,2.0,45.0
1753,73.0,0,160,3.0,45.0
1754,85.0,192,160,2.0,45.0
1755,69.0,0,160,3.0,45.0
1756,73.0,0,160,3.0,45.0
1757,76.0,0,160,2.0,45.0
1758,64.0,0,160,4.0,45.0
1759,71.0,0,160,3.0,45.0
1760,68.0,192,160,3.0,45.0
1761,76.0,0,160,2.0,45.0
1762,64.0,0,160,4.0,45.0
1763,86.0,0,160,2.0,45.0
1764,86.0,0,160,2.0,45.0
1765,76.0,192,160,2.0,45.0
1766,73.0,0,160,1.0,45.0
1767,68.0,0,160,3.0,45.0
1768,71.0,0,160,3.0,45.0
1769,64.0,0,160,4.0,45.0
1770,86.0,0,160,2.0,45.0
1771,76.0,0,160,2.0,45.0
1772,74.0,0,160,1.0,45.0
1773,64.0,0,160,4.0,45.0
1774,71.0,0,160,3.0,45.0
1775,68.0,192,160,3.0,45.0
1776,86.0,0,160,2.0,45.0
1777,76.0,192,160,2.0,45.0
1778,71.0,0,160,3.0,45.0
1779,64.0,0,160,4.0,45.0
1780,68.0,0,160,3.0,45.0
1781,76.0,0,160,2.0,45.0
1782,86.0,0,160,2.0,45.0
1783,78.0,192,160,1.0,45.0
1784,71.0,0,160,3.0,45.0
1785,68.0,0,160,3.0,45.0
1786,64.0,0,160,4.0,45.0
1787,68.0,0,160,3.0,45.0
1788,71.0,0,160,3.0,45.0
1789,76.0,192,160,2.0,45.0
1790,80.0,0,160,1.0,45.0
1791,64.0,0,160,4.0,45.0
1792,86.0,0,160,2.0,45.0
1793,64.0,0,160,4.0,45.0
1794,76.0,0,160,2.0,45.0
1795,71.0,0,160,3.0,45.0
1796,68.0,192,160,3.0,45.0
1797,81.0,0,160,1.0,45.0
1798,86.0,0,160,2.0,45.0
1799,83.0,0,160,1.0,45.0
1800,71.0,0,160,3.0,45.0
1801,68.0,0,160,3.0,45.0
1802,64.0,192,160,4.0,45.0
1803,86.0,0,160,2.0,45.0
1804,76.0,0,160,2.0,45.0
1805,76.0,192,160,2.0,45.0
1806,86.0,0,160,2.0,45.0
1807,68.0,0,160,3.0,45.0
1808,71.0,0,160,3.0,45.0
1809,64.0,0,160,4.0,45.0
1810,85.0,0,160,1.0,45.0
1811,68.0,0,160,3.0,45.0
1812,64.0,0,160,4.0,45.0
1813,86.0,192,160,1.0,45.0
1814,83.0,0,160,2.0,45.0
1815,76.0,0,160,2.0,45.0
1816,71.0,0,160,3.0,45.0
1817,68.0,192,96,3.0,45.0
1818,71.0,0,96,2.0,45.0
1819,76.0,0,160,1.0,45.0
1820,64.0,0,160,4.0,45.0
1821,69.0,0,96,2.0,45.0
1822,66.0,96,96,3.0,45.0
1823,68.0,96,96,3.0,45.0
1824,71.0,0,96,2.0,45.0
1825,85.0,0,160,1.0,45.0
1826,64.0,0,160,4.0,45.0
1827,69.0,96,94,3.0,45.0
1828,73.0,0,94,2.0,45.0
1829,71.0,96,48,3.0,45.0
1830,74.0,0,48,2.0,45.0
1831,86.0,0,160,1.0,45.0
1832,64.0,0,160,4.0,45.0
1833,68.0,0,96,3.0,45.0
1834,71.0,192,96,2.0,45.0
1835,76.0,0,160,1.0,45.0
1836,64.0,0,160,4.0,45.0
1837,66.0,0,96,3.0,45.0
1838,69.0,96,96,2.0,45.0
1839,71.0,0,96,2.0,45.0
1840,68.0,0,96,3.0,45.0
1841,88.0,96,160,1.0,45.0
1842,64.0,0,160,4.0,45.0
1843,73.0,96,94,2.0,45.0
1844,69.0,0,94,3.0,45.0
1845,73.0,96,48,2.0,92.0
1846,69.0,0,48,3.0,92.0
1847,85.0,0,160,1.0,92.0
1848,57.0,0,160,4.0,92.0
1849,45.0,192,96,4.0,45.0
1850,88.0,0,160,1.0,45.0
1851,76.0,0,160,1.0,45.0
1852,73.0,0,160,2.0,45.0
1853,81.0,0,160,2.0,45.0
1854,44.0,96,96,4.0,45.0
1855,45.0,96,96,4.0,45.0
1856,88.0,0,160,1.0,45.0
1857,81.0,0,160,2.0,45.0
1858,73.0,0,160,2.0,45.0
1859,76.0,0,160,1.0,45.0
1860,47.0,96,94,4.0,45.0
1861,49.0,0,48,4.0,45.0
1862,73.0,0,160,2.0,45.0
1863,76.0,0,160,1.0,45.0
1864,81.0,0,160,2.0,45.0
1865,88.0,96,160,1.0,45.0
1866,50.0,0,96,3.0,45.0
1867,76.0,0,160,1.0,45.0
1868,88.0,0,160,1.0,45.0
1869,73.0,0,160,2.0,45.0
1870,81.0,192,160,2.0,45.0
1871,49.0,96,96,3.0,45.0
1872,50.0,0,96,3.0,45.0
1873,88.0,96,160,1.0,45.0
1874,76.0,0,160,1.0,45.0
1875,81.0,0,160,2.0,45.0
1876,73.0,0,160,2.0,45.0
1877,52.0,96,94,3.0,45.0
1878,54.0,0,48,3.0,45.0
1879,73.0,0,160,2.0,45.0
1880,88.0,96,160,1.0,45.0
1881,76.0,0,160,1.0,45.0
1882,81.0,0,160,2.0,45.0
1883,56.0,192,96,3.0,45.0
1884,68.0,0,96,2.0,45.0
1885,88.0,0,160,1.0,45.0
1886,76.0,0,160,1.0,45.0
1887,54.0,0,96,3.0,45.0
1888,66.0,96,96,2.0,45.0
1889,68.0,96,96,2.0,45.0
1890,56.0,0,96,3.0,45.0
1891,76.0,0,160,1.0,45.0
1892,88.0,0,160,1.0,45.0
1893,69.0,0,94,2.0,45.0
1894,57.0,96,94,3.0,45.0
1895,59.0,0,48,3.0,45.0
1896,56.0,0,48,3.0,45.0
1897,71.0,0,48,2.0,45.0
1898,88.0,0,160,1.0,45.0
1899,64.0,0,160,4.0,45.0
1900,76.0,96,160,1.0,45.0
1901,73.0,0,48,2.0,45.0
1902,57.0,0,48,3.0,45.0
1903,64.0,0,160,4.0,45.0
1904,88.0,0,160,1.0,45.0
1905,76.0,192,160,1.0,45.0
1906,59.0,192,48,3.0,45.0
1907,74.0,0,48,2.0,45.0
1908,88.0,0,160,1.0,45.0
1909,64.0,0,160,4.0,45.0
1910,76.0,0,160,1.0,45.0
1911,71.0,0,48,2.0,45.0
1912,68.0,0,48,3.0,45.0
1913,64.0,0,160,4.0,45.0
1914,76.0,192,160,1.0,45.0
1915,88.0,0,160,1.0,45.0
1916,73.0,0,48,3.0,45.0
1917,69.0,192,48,2.0,45.0
1918,78.0,0,160,1.0,45.0
1919,64.0,0,160,4.0,45.0
1920,71.0,0,48,3.0,45.0
1921,74.0,0,48,2.0,45.0
1922,80.0,192,160,1.0,45.0
1923,64.0,0,160,4.0,45.0
1924,66.0,192,160,3.0,45.0
1925,74.0,0,160,2.0,45.0
1926,64.0,0,160,4.0,45.0
1927,81.0,0,160,1.0,45.0
1928,83.0,0,160,1.0,45.0
1929,74.0,192,160,2.0,45.0
1930,64.0,0,160,4.0,45.0
1931,68.0,0,160,3.0,45.0
1932,85.0,0,160,1.0,45.0
1933,64.0,192,160,4.0,45.0
1934,69.0,0,160,3.0,45.0
1935,74.0,0,160,2.0,45.0
1936,86.0,0,160,1.0,45.0
1937,74.0,192,160,2.0,45.0
1938,71.0,0,160,3.0,45.0
1939,68.0,0,160,3.0,45.0
1940,64.0,0,160,4.0,45.0
1941,76.0,0,160,1.0,45.0
1942,71.0,192,160,3.0,45.0
1943,74.0,0,160,2.0,45.0
1944,83.0,0,160,2.0,45.0
1945,68.0,0,160,3.0,45.0
1946,64.0,0,160,4.0,45.0
1947,71.0,0,160,3.0,45.0
1948,68.0,0,160,3.0,45.0
1949,64.0,0,160,4.0,45.0
1950,83.0,0,160,2.0,45.0
1951,74.0,192,160,2.0,45.0
1952,85.0,0,160,1.0,45.0
1953,68.0,0,160,3.0,45.0
1954,86.0,192,160,1.0,45.0
1955,64.0,0,160,4.0,45.0
1956,83.0,0,160,2.0,45.0
1957,74.0,0,160,2.0,45.0
1958,71.0,0,160,3.0,45.0
1959,71.0,0,160,3.0,45.0
1960,83.0,0,160,2.0,45.0
1961,74.0,192,160,2.0,45.0
1962,68.0,0,160,3.0,45.0
1963,64.0,0,160,4.0,45.0
1964,76.0,0,160,1.0,45.0
1965,88.0,0,160,1.0,45.0
1966,64.0,0,160,4.0,45.0
1967,71.0,0,160,3.0,45.0
1968,68.0,0,160,3.0,45.0
1969,74.0,192,160,2.0,45.0
1970,83.0,0,160,2.0,45.0
1971,86.0,0,48,1.0,45.0
1972,64.0,0,160,4.0,45.0
1973,74.0,192,160,2.0,45.0
1974,71.0,0,160,3.0,45.0
1975,68.0,0,160,3.0,45.0
1976,83.0,0,160,2.0,45.0
1977,86.0,0,96,1.0,50.0
1978,44.0,0,96,4.0,48.0
1979,68.0,0,160,3.0,48.0
1980,76.0,192,160,3.0,48.0
1981,74.0,0,160,2.0,48.0
1982,83.0,0,160,2.0,48.0
1983,88.0,96,96,1.0,52.0
1984,42.0,0,96,4.0,50.0
1985,86.0,96,96,1.0,54.0
1986,44.0,0,96,4.0,52.0
1987,76.0,0,160,3.0,52.0
1988,68.0,0,160,3.0,52.0
1989,74.0,0,160,2.0,52.0
1990,83.0,0,160,2.0,52.0
1991,45.0,0,94,4.0,54.0
1992,85.0,96,94,1.0,56.0
1993,47.0,96,48,4.0,56.0
1994,74.0,0,48,2.0,56.0
1995,83.0,0,48,1.0,58.0
1996,76.0,0,160,3.0,56.0
1997,68.0,0,160,3.0,56.0
1998,59.0,192,96,2.0,60.0
1999,71.0,0,96,1.0,63.0
2000,56.0,0,96,3.0,60.0
2001,64.0,0,160,4.0,60.0
2002,54.0,0,96,3.0,62.0
2003,73.0,0,96,1.0,65.0
2004,57.0,96,96,2.0,62.0
2005,71.0,0,96,1.0,67.0
2006,59.0,96,96,2.0,64.0
2007,56.0,0,96,3.0,64.0
2008,64.0,0,160,4.0,64.0
2009,61.0,0,94,2.0,66.0
2010,57.0,0,94,3.0,66.0
2011,69.0,96,94,1.0,69.0
2012,68.0,0,48,1.0,72.0
2013,62.0,96,48,2.0,68.0
2014,59.0,0,48,3.0,68.0
2015,64.0,0,160,4.0,68.0
2016,71.0,0,96,1.0,78.0
2017,68.0,192,96,2.0,72.0
2018,62.0,0,96,3.0,72.0
2019,64.0,0,160,4.0,72.0
2020,69.0,0,96,1.0,81.0
2021,64.0,0,96,3.0,74.0
2022,66.0,96,96,2.0,74.0
2023,71.0,96,96,1.0,84.0
2024,68.0,0,96,2.0,76.0
2025,62.0,0,96,3.0,76.0
2026,64.0,0,160,4.0,76.0
2027,73.0,96,94,1.0,87.0
2028,61.0,0,94,3.0,78.0
2029,69.0,0,94,2.0,78.0
2030,59.0,0,48,3.0,80.0
2031,68.0,96,48,2.0,80.0
2032,74.0,0,48,1.0,90.0
2033,64.0,0,160,4.0,80.0
2034,66.0,192,96,2.0,84.0
2035,86.0,0,96,1.0,96.0
2036,54.0,0,96,3.0,84.0
2037,42.0,0,96,4.0,84.0
2038,85.0,96,96,1.0,99.0
2039,52.0,0,96,3.0,86.0
2040,40.0,0,96,4.0,86.0
2041,64.0,0,96,2.0,86.0
2042,54.0,96,96,3.0,88.0
2043,66.0,0,96,2.0,88.0
2044,42.0,0,96,4.0,88.0
2045,86.0,0,96,1.0,102.0
2046,56.0,0,94,3.0,90.0
2047,68.0,0,94,2.0,90.0
2048,44.0,0,94,4.0,90.0
2049,83.0,96,94,1.0,105.0
2050,45.0,0,48,4.0,92.0
2051,57.0,96,48,3.0,92.0
2052,69.0,0,48,2.0,92.0
2053,81.0,0,48,1.0,108.0
2054,69.0,0,48,1.0,108.0
2055,66.0,192,96,2.0,92.0
2056,54.0,0,96,3.0,92.0
2057,42.0,0,96,4.0,92.0
2058,52.0,0,96,3.0,92.0
2059,40.0,0,96,4.0,92.0
2060,64.0,96,96,2.0,92.0
2061,85.0,0,48,1.0,108.0
2062,42.0,0,96,4.0,92.0
2063,54.0,0,96,3.0,92.0
2064,66.0,96,96,2.0,92.0
2065,68.0,0,94,2.0,92.0
2066,56.0,96,94,3.0,92.0
2067,44.0,0,94,4.0,92.0
2068,57.0,0,48,3.0,92.0
2069,45.0,0,48,4.0,92.0
2070,69.0,96,160,1.0,127.0
2071,66.0,0,96,2.0,92.0
2072,42.0,192,96,4.0,92.0
2073,54.0,0,96,3.0,92.0
2074,88.0,0,160,1.0,108.0
2075,40.0,96,96,4.0,92.0
2076,64.0,0,96,2.0,92.0
2077,52.0,0,96,3.0,92.0
2078,42.0,0,96,4.0,92.0
2079,66.0,0,96,2.0,92.0
2080,54.0,96,96,3.0,92.0
2081,69.0,0,160,1.0,108.0
2082,56.0,0,94,3.0,92.0
2083,68.0,0,94,2.0,92.0
2084,44.0,96,94,4.0,92.0
2085,45.0,0,160,4.0,92.0
2086,57.0,0,160,3.0,92.0
2087,88.0,96,160,1.0,127.0
2088,69.0,0,160,2.0,92.0
2089,54.0,0,96,3.0,92.0
2090,42.0,192,96,4.0,92.0
2091,66.0,0,96,2.0,92.0
2092,69.0,0,160,1.0,108.0
2093,52.0,96,96,3.0,92.0
2094,40.0,0,96,4.0,92.0
2095,64.0,0,96,2.0,92.0
2096,66.0,0,96,2.0,92.0
2097,42.0,96,96,4.0,92.0
2098,54.0,0,96,3.0,92.0
2099,93.0,0,160,1.0,108.0
2100,56.0,96,94,3.0,92.0
2101,68.0,0,94,2.0,92.0
2102,44.0,0,94,4.0,92.0
2103,57.0,0,160,3.0,92.0
2104,69.0,96,160,2.0,92.0
2105,45.0,0,160,4.0,92.0
2106,66.0,0,96,2.0,92.0
2107,42.0,192,96,4.0,92.0
2108,54.0,0,96,3.0,92.0
2109,52.0,0,96,3.0,92.0
2110,40.0,0,96,4.0,92.0
2111,64.0,96,96,2.0,92.0
2112,42.0,96,96,4.0,92.0
2113,66.0,0,96,2.0,92.0
2114,54.0,0,96,3.0,92.0
2115,68.0,0,94,2.0,92.0
2116,44.0,96,94,4.0,92.0
2117,56.0,0,94,3.0,92.0
2118,88.0,0,736,1.0,127.0
2119,45.0,96,160,4.0,92.0
2120,69.0,0,160,2.0,92.0
2121,57.0,0,160,3.0,92.0
2122,69.0,0,48,1.0,108.0
2123,54.0,0,96,3.0,92.0
2124,66.0,0,96,2.0,92.0
2125,42.0,192,96,4.0,92.0
2126,64.0,96,96,2.0,92.0
2127,40.0,0,96,4.0,92.0
2128,52.0,0,96,3.0,92.0
2129,86.0,0,48,1.0,108.0
2130,42.0,0,96,4.0,92.0
2131,66.0,96,96,2.0,92.0
2132,54.0,0,96,3.0,92.0
2133,44.0,0,94,4.0,92.0
2134,56.0,96,94,3.0,92.0
2135,68.0,0,94,2.0,92.0
2136,85.0,0,48,1.0,127.0
2137,69.0,96,160,2.0,92.0
2138,45.0,0,160,4.0,92.0
2139,57.0,0,160,3.0,92.0
2140,69.0,0,48,1.0,108.0
2141,42.0,0,96,4.0,92.0
2142,66.0,192,96,2.0,92.0
2143,54.0,0,96,3.0,92.0
2144,64.0,0,96,2.0,92.0
2145,52.0,96,96,3.0,92.0
2146,40.0,0,96,4.0,92.0
2147,86.0,0,48,1.0,108.0
2148,54.0,0,96,3.0,92.0
2149,66.0,96,96,2.0,92.0
2150,42.0,0,96,4.0,92.0
2151,68.0,0,94,2.0,92.0
2152,44.0,0,94,4.0,92.0
2153,56.0,96,94,3.0,92.0
2154,45.0,0,160,4.0,92.0
2155,69.0,0,160,2.0,92.0
2156,85.0,0,160,1.0,108.0
2157,57.0,96,160,3.0,92.0
2158,54.0,0,96,3.0,92.0
2159,66.0,0,96,2.0,92.0
2160,42.0,192,96,4.0,92.0
2161,69.0,0,160,1.0,108.0
2162,52.0,96,96,3.0,92.0
2163,64.0,0,96,2.0,92.0
2164,40.0,0,96,4.0,92.0
2165,66.0,0,96,2.0,92.0
2166,54.0,96,96,3.0,92.0
2167,42.0,0,96,4.0,92.0
2168,86.0,0,160,1.0,108.0
2169,68.0,96,94,2.0,92.0
2170,56.0,0,94,3.0,92.0
2171,44.0,0,94,4.0,92.0
2172,69.0,96,160,2.0,92.0
2173,45.0,0,160,4.0,92.0
2174,57.0,0,160,3.0,92.0
2175,85.0,0,160,1.0,108.0
2176,66.0,0,96,2.0,92.0
2177,54.0,192,96,3.0,92.0
2178,42.0,0,96,4.0,92.0
2179,69.0,0,160,1.0,108.0
2180,40.0,96,96,4.0,92.0
2181,52.0,0,96,3.0,92.0
2182,64.0,0,96,2.0,92.0
2183,66.0,0,96,2.0,92.0
2184,54.0,0,96,3.0,92.0
2185,42.0,96,96,4.0,92.0
2186,83.0,0,160,1.0,108.0
2187,44.0,0,94,4.0,92.0
2188,68.0,0,94,2.0,92.0
2189,56.0,96,94,3.0,92.0
2190,45.0,96,160,4.0,92.0
2191,81.0,0,160,1.0,108.0
2192,69.0,0,160,2.0,92.0
2193,57.0,0,160,3.0,92.0
2194,42.0,0,96,4.0,92.0
2195,54.0,0,96,3.0,92.0
2196,66.0,192,96,2.0,92.0
2197,69.0,0,160,1.0,108.0
2198,52.0,96,96,3.0,92.0
2199,40.0,0,96,4.0,92.0
2200,64.0,0,96,2.0,92.0
2201,42.0,0,96,4.0,92.0
2202,54.0,0,96,3.0,92.0
2203,66.0,96,96,2.0,92.0
2204,85.0,0,160,1.0,108.0
2205,68.0,0,94,2.0,92.0
2206,56.0,0,94,3.0,92.0
2207,44.0,96,94,4.0,92.0
2208,69.0,96,160,1.0,108.0
2209,45.0,0,160,4.0,92.0
2210,57.0,0,160,3.0,92.0
2211,54.0,0,96,3.0,92.0
2212,42.0,0,96,4.0,92.0
2213,66.0,0,96,2.0,92.0
2214,88.0,192,160,1.0,108.0
2215,40.0,0,96,4.0,92.0
2216,52.0,96,96,3.0,92.0
2217,64.0,0,96,2.0,92.0
2218,54.0,96,96,3.0,92.0
2219,66.0,0,96,2.0,92.0
2220,42.0,0,96,4.0,92.0
2221,69.0,0,160,1.0,108.0
2222,44.0,96,94,4.0,92.0
2223,56.0,0,94,3.0,92.0
2224,68.0,0,94,2.0,92.0
2225,88.0,0,160,1.0,108.0
2226,45.0,0,160,4.0,92.0
2227,57.0,0,160,3.0,92.0
2228,69.0,96,160,2.0,92.0
2229,42.0,192,96,4.0,92.0
2230,54.0,0,96,3.0,92.0
2231,66.0,0,96,2.0,92.0
2232,69.0,0,160,1.0,108.0
2233,40.0,96,96,4.0,92.0
2234,52.0,0,96,3.0,92.0
2235,64.0,0,96,2.0,92.0
2236,42.0,0,96,4.0,92.0
2237,66.0,96,96,2.0,92.0
2238,54.0,0,96,3.0,92.0
2239,93.0,0,160,1.0,108.0
2240,68.0,0,94,2.0,92.0
2241,56.0,0,94,3.0,92.0
2242,44.0,96,94,4.0,92.0
2243,57.0,0,160,3.0,92.0
2244,69.0,96,160,2.0,92.0
2245,45.0,0,160,4.0,92.0
2246,42.0,0,96,4.0,92.0
2247,54.0,192,96,3.0,92.0
2248,66.0,0,96,2.0,92.0
2249,52.0,96,96,3.0,92.0
2250,40.0,0,96,4.0,92.0
2251,64.0,0,96,2.0,92.0
2252,54.0,0,96,3.0,92.0
2253,66.0,96,96,2.0,92.0
2254,42.0,0,96,4.0,92.0
2255,68.0,0,94,2.0,92.0
2256,44.0,0,94,4.0,92.0
2257,56.0,96,94,3.0,92.0
2258,45.0,0,160,4.0,92.0
2259,69.0,0,160,2.0,92.0
2260,88.0,0,736,1.0,127.0
2261,57.0,96,160,3.0,92.0
2262,69.0,0,48,1.0,108.0
2263,66.0,0,96,2.0,92.0
2264,42.0,192,96,4.0,92.0
2265,54.0,0,96,3.0,92.0
2266,64.0,0,96,2.0,92.0
2267,40.0,0,96,4.0,92.0
2268,52.0,96,96,3.0,92.0
2269,86.0,0,48,1.0,108.0
2270,54.0,0,96,3.0,92.0
2271,42.0,0,96,4.0,92.0
2272,66.0,96,96,2.0,92.0
2273,56.0,0,94,3.0,92.0
2274,68.0,96,94,2.0,92.0
2275,44.0,0,94,4.0,92.0
2276,85.0,0,48,1.0,108.0
2277,69.0,0,160,2.0,92.0
2278,57.0,0,160,3.0,92.0
2279,45.0,96,160,4.0,92.0
2280,69.0,0,48,1.0,108.0
2281,66.0,0,96,2.0,92.0
2282,54.0,0,96,3.0,92.0
2283,42.0,192,96,4.0,92.0
2284,64.0,96,96,2.0,92.0
2285,52.0,0,96,3.0,92.0
2286,40.0,0,96,4.0,92.0
2287,86.0,0,48,1.0,108.0
2288,42.0,0,96,4.0,92.0
2289,66.0,96,96,2.0,92.0
2290,54.0,0,96,3.0,92.0
2291,44.0,96,94,4.0,92.0
2292,68.0,0,94,2.0,92.0
2293,56.0,0,94,3.0,92.0
2294,57.0,0,160,3.0,92.0
2295,69.0,0,160,2.0,92.0
2296,85.0,0,160,1.0,108.0
2297,45.0,96,160,4.0,92.0
2298,54.0,0,96,3.0,92.0
2299,42.0,0,96,4.0,92.0
2300,66.0,192,96,2.0,92.0
2301,69.0,0,160,1.0,108.0
2302,52.0,96,96,3.0,92.0
2303,40.0,0,96,4.0,92.0
2304,64.0,0,96,2.0,92.0
2305,66.0,0,96,2.0,92.0
2306,42.0,0,96,4.0,92.0
2307,54.0,96,96,3.0,92.0
2308,86.0,0,160,1.0,108.0
2309,68.0,96,94,2.0,92.0
2310,44.0,0,94,4.0,92.0
2311,56.0,0,94,3.0,92.0
2312,69.0,96,160,2.0,92.0
2313,57.0,0,160,3.0,92.0
2314,45.0,0,160,4.0,92.0
2315,85.0,0,160,1.0,108.0
2316,66.0,0,96,2.0,92.0
2317,42.0,192,96,4.0,92.0
2318,54.0,0,96,3.0,92.0
2319,69.0,0,160,1.0,108.0
2320,52.0,96,96,3.0,92.0
2321,64.0,0,96,2.0,92.0
2322,40.0,0,96,4.0,92.0
2323,54.0,96,96,3.0,92.0
2324,42.0,0,96,4.0,92.0
2325,66.0,0,96,2.0,92.0
2326,86.0,0,160,1.0,108.0
2327,56.0,96,94,3.0,92.0
2328,68.0,0,94,2.0,92.0
2329,44.0,0,94,4.0,92.0
2330,45.0,96,160,4.0,92.0
2331,86.0,0,160,1.0,108.0
2332,69.0,0,160,2.0,92.0
2333,57.0,0,160,3.0,92.0
2334,54.0,192,96,3.0,92.0
2335,66.0,0,96,2.0,92.0
2336,42.0,0,96,4.0,92.0
2337,52.0,0,96,3.0,92.0
2338,71.0,0,192,1.0,108.0
2339,64.0,96,96,2.0,92.0
2340,40.0,0,96,4.0,92.0
2341,66.0,0,96,2.0,92.0
2342,42.0,0,96,4.0,92.0
2343,54.0,0,96,3.0,92.0
2344,85.0,96,160,1.0,108.0
2345,68.0,0,94,2.0,92.0
2346,56.0,0,94,3.0,92.0
2347,44.0,96,94,4.0,92.0
2348,85.0,0,24,1.0,108.0
2349,86.0,24,56,1.0,108.0
2350,45.0,96,160,4.0,92.0
2351,57.0,0,160,3.0,92.0
2352,69.0,0,160,2.0,92.0
2353,71.0,168,48,1.0,108.0
2354,54.0,0,96,3.0,92.0
2355,42.0,0,96,4.0,92.0
2356,66.0,0,96,2.0,92.0
2357,64.0,96,96,2.0,92.0
2358,40.0,0,96,4.0,92.0
2359,52.0,0,96,3.0,92.0
2360,88.0,0,48,1.0,108.0
2361,42.0,0,96,4.0,92.0
2362,54.0,96,96,3.0,92.0
2363,66.0,0,96,2.0,92.0
2364,68.0,0,94,2.0,92.0
2365,44.0,0,94,4.0,92.0
2366,56.0,96,94,3.0,92.0
2367,85.0,0,160,1.0,108.0
2368,69.0,0,160,2.0,92.0
2369,57.0,96,160,3.0,92.0
2370,45.0,0,160,4.0,92.0
2371,66.0,0,96,2.0,92.0
2372,42.0,0,96,4.0,92.0
2373,54.0,0,96,3.0,92.0
2374,69.0,192,160,1.0,108.0
2375,40.0,0,96,4.0,92.0
2376,52.0,0,96,3.0,92.0
2377,64.0,96,96,2.0,92.0
2378,54.0,96,96,3.0,92.0
2379,66.0,0,96,2.0,92.0
2380,42.0,0,96,4.0,92.0
2381,86.0,0,160,1.0,108.0
2382,68.0,0,94,2.0,92.0
2383,44.0,0,94,4.0,92.0
2384,56.0,96,94,3.0,92.0
2385,45.0,96,160,4.0,92.0
2386,85.0,0,160,1.0,108.0
2387,69.0,0,160,2.0,92.0
2388,57.0,0,160,3.0,92.0
2389,66.0,0,96,2.0,92.0
2390,54.0,0,96,3.0,92.0
2391,42.0,0,96,4.0,92.0
2392,88.0,192,160,1.0,108.0
2393,40.0,0,96,4.0,92.0
2394,52.0,0,96,3.0,92.0
2395,64.0,96,96,2.0,92.0
2396,42.0,0,96,4.0,92.0
2397,66.0,0,96,2.0,92.0
2398,54.0,96,96,3.0,92.0
2399,93.0,0,160,1.0,108.0
2400,68.0,0,94,2.0,92.0
2401,44.0,96,94,4.0,92.0
2402,56.0,0,94,3.0,92.0
2403,45.0,0,160,4.0,92.0
2404,69.0,96,160,2.0,92.0
2405,86.0,0,160,1.0,108.0
2406,57.0,0,160,3.0,92.0
2407,54.0,0,96,3.0,92.0
2408,66.0,0,96,2.0,92.0
2409,42.0,192,96,4.0,92.0
2410,52.0,96,96,3.0,92.0
2411,40.0,0,96,4.0,92.0
2412,64.0,0,96,2.0,92.0
2413,71.0,0,192,1.0,108.0
2414,42.0,0,96,4.0,92.0
2415,54.0,0,96,3.0,92.0
2416,66.0,0,96,2.0,92.0
2417,85.0,96,160,1.0,108.0
2418,56.0,0,94,3.0,92.0
2419,44.0,96,94,4.0,92.0
2420,68.0,0,94,2.0,92.0
2421,85.0,96,24,1.0,108.0
2422,86.0,24,56,1.0,108.0
2423,45.0,0,160,4.0,92.0
2424,69.0,0,160,2.0,92.0
2425,57.0,0,160,3.0,92.0
2426,71.0,168,48,1.0,108.0
2427,66.0,0,96,2.0,92.0
2428,42.0,0,96,4.0,92.0
2429,54.0,0,96,3.0,92.0
2430,52.0,96,96,3.0,92.0
2431,40.0,0,96,4.0,92.0
2432,64.0,0,96,2.0,92.0
2433,88.0,0,48,1.0,108.0
2434,66.0,0,96,2.0,92.0
2435,54.0,96,96,3.0,92.0
2436,42.0,0,96,4.0,92.0
2437,44.0,0,94,4.0,92.0
2438,56.0,0,94,3.0,92.0
2439,68.0,96,94,2.0,92.0
2440,45.0,0,160,4.0,92.0
2441,85.0,96,160,1.0,108.0
2442,69.0,0,160,2.0,92.0
2443,57.0,0,160,3.0,92.0
2444,54.0,0,96,3.0,92.0
2445,66.0,0,96,2.0,92.0
2446,42.0,0,96,4.0,92.0
2447,69.0,192,160,1.0,108.0
2448,64.0,96,96,2.0,92.0
2449,40.0,0,96,4.0,92.0
2450,52.0,0,96,3.0,92.0
2451,66.0,0,96,2.0,92.0
2452,42.0,0,96,4.0,92.0
2453,54.0,0,96,3.0,92.0
2454,88.0,96,160,1.0,108.0
2455,56.0,0,94,3.0,92.0
2456,44.0,0,94,4.0,92.0
2457,68.0,96,94,2.0,92.0
2458,88.0,96,24,1.0,108.0
2459,57.0,0,160,3.0,92.0
2460,69.0,0,160,2.0,92.0
2461,45.0,0,160,4.0,92.0
2462,93.0,24,168,1.0,108.0
2463,42.0,0,96,4.0,92.0
2464,66.0,168,96,2.0,92.0
2465,54.0,0,96,3.0,92.0
2466,40.0,96,96,4.0,92.0
2467,64.0,0,96,2.0,92.0
2468,52.0,0,96,3.0,92.0
2469,54.0,0,96,3.0,92.0
2470,69.0,0,288,1.0,108.0
2471,42.0,96,96,4.0,92.0
2472,66.0,0,96,2.0,92.0
2473,88.0,96,94,1.0,108.0
2474,44.0,0,94,4.0,92.0
2475,56.0,0,94,3.0,92.0
2476,68.0,0,94,2.0,92.0
2477,86.0,0,48,1.0,108.0
2478,69.0,96,160,2.0,92.0
2479,45.0,0,160,4.0,92.0
2480,57.0,0,160,3.0,92.0
2481,42.0,0,96,4.0,92.0
2482,54.0,0,96,3.0,92.0
2483,66.0,192,96,2.0,92.0
2484,40.0,96,96,4.0,92.0
2485,64.0,0,96,2.0,92.0
2486,52.0,0,96,3.0,92.0
2487,71.0,0,192,1.0,108.0
2488,66.0,0,96,2.0,92.0
2489,42.0,96,96,4.0,92.0
2490,54.0,0,96,3.0,92.0
2491,85.0,0,160,1.0,108.0
2492,44.0,96,94,4.0,92.0
2493,68.0,0,94,2.0,92.0
2494,56.0,0,94,3.0,92.0
2495,85.0,96,24,1.0,108.0
2496,86.0,24,56,1.0,108.0
2497,45.0,0,160,4.0,92.0
2498,69.0,0,160,2.0,92.0
2499,57.0,0,160,3.0,92.0
2500,71.0,0,48,1.0,108.0
2501,66.0,0,96,2.0,92.0
2502,42.0,168,96,4.0,92.0
2503,54.0,0,96,3.0,92.0
2504,40.0,0,96,4.0,92.0
2505,64.0,96,96,2.0,92.0
2506,52.0,0,96,3.0,92.0
2507,88.0,0,48,1.0,108.0
2508,54.0,96,96,3.0,92.0
2509,42.0,0,96,4.0,92.0
2510,66.0,0,96,2.0,92.0
2511,56.0,96,94,3.0,92.0
2512,44.0,0,94,4.0,92.0
2513,68.0,0,94,2.0,92.0
2514,45.0,0,160,4.0,92.0
2515,57.0,96,160,3.0,92.0
2516,69.0,0,160,2.0,92.0
2517,85.0,0,160,1.0,108.0
2518,54.0,0,96,3.0,92.0
2519,42.0,0,96,4.0,92.0
2520,66.0,192,96,2.0,92.0
2521,69.0,0,160,1.0,108.0
2522,40.0,0,96,4.0,92.0
2523,52.0,96,96,3.0,92.0
2524,64.0,0,96,2.0,92.0
2525,42.0,96,96,4.0,92.0
2526,66.0,0,96,2.0,92.0
2527,54.0,0,96,3.0,92.0
2528,86.0,0,160,1.0,108.0
2529,44.0,0,94,4.0,92.0
2530,56.0,96,94,3.0,92.0
2531,68.0,0,94,2.0,92.0
2532,45.0,96,160,4.0,92.0
2533,57.0,0,160,3.0,92.0
2534,69.0,0,160,2.0,92.0
2535,85.0,0,160,1.0,108.0
2536,66.0,0,96,2.0,92.0
2537,42.0,192,96,4.0,92.0
2538,54.0,0,96,3.0,92.0
2539,88.0,0,160,1.0,108.0
2540,40.0,0,96,4.0,92.0
2541,52.0,0,96,3.0,92.0
2542,64.0,96,96,2.0,92.0
2543,66.0,0,96,2.0,92.0
2544,54.0,0,96,3.0,92.0
2545,42.0,96,96,4.0,92.0
2546,93.0,0,160,1.0,108.0
2547,68.0,0,94,2.0,92.0
2548,56.0,0,94,3.0,92.0
2549,44.0,96,94,4.0,92.0
2550,69.0,0,160,2.0,92.0
2551,86.0,96,160,1.0,108.0
2552,57.0,0,160,3.0,92.0
2553,45.0,0,160,4.0,92.0
2554,66.0,192,96,2.0,92.0
2555,54.0,0,96,3.0,92.0
2556,42.0,0,96,4.0,92.0
2557,52.0,96,96,3.0,92.0
2558,71.0,0,192,1.0,108.0
2559,64.0,0,96,2.0,92.0
2560,40.0,0,96,4.0,92.0
2561,54.0,0,96,3.0,92.0
2562,66.0,0,96,2.0,92.0
2563,42.0,0,96,4.0,92.0
2564,85.0,96,160,1.0,108.0
2565,44.0,0,94,4.0,92.0
2566,56.0,96,94,3.0,92.0
2567,68.0,0,94,2.0,92.0
2568,85.0,0,24,1.0,108.0
2569,86.0,24,56,1.0,108.0
2570,69.0,0,160,2.0,92.0
2571,45.0,0,160,4.0,92.0
2572,57.0,96,160,3.0,92.0
2573,71.0,0,48,1.0,108.0
2574,54.0,0,96,3.0,92.0
2575,42.0,168,96,4.0,92.0
2576,66.0,0,96,2.0,92.0
2577,40.0,0,96,4.0,92.0
2578,52.0,0,96,3.0,92.0
2579,64.0,96,96,2.0,92.0
2580,88.0,0,48,1.0,108.0
2581,42.0,96,96,4.0,92.0
2582,54.0,0,96,3.0,92.0
2583,66.0,0,96,2.0,92.0
2584,68.0,96,94,2.0,92.0
2585,56.0,0,94,3.0,92.0
2586,44.0,0,94,4.0,92.0
2587,57.0,96,160,3.0,92.0
2588,69.0,0,160,2.0,92.0
2589,45.0,0,160,4.0,92.0
2590,85.0,0,160,1.0,108.0
2591,42.0,0,96,4.0,92.0
2592,66.0,0,96,2.0,92.0
2593,54.0,192,96,3.0,92.0
2594,69.0,0,160,1.0,108.0
2595,40.0,96,96,4.0,92.0
2596,64.0,0,96,2.0,92.0
2597,52.0,0,96,3.0,92.0
2598,54.0,0,96,3.0,92.0
2599,66.0,0,96,2.0,92.0
2600,42.0,0,96,4.0,92.0
2601,88.0,96,160,1.0,108.0
2602,44.0,0,94,4.0,92.0
2603,68.0,96,94,2.0,92.0
2604,56.0,0,94,3.0,92.0
2605,88.0,96,24,1.0,108.0
2606,57.0,0,160,3.0,92.0
2607,69.0,0,160,2.0,92.0
2608,45.0,0,160,4.0,92.0
2609,93.0,24,168,1.0,108.0
2610,54.0,0,96,3.0,92.0
2611,42.0,0,96,4.0,92.0
2612,66.0,168,96,2.0,92.0
2613,40.0,0,96,4.0,92.0
2614,52.0,0,96,3.0,92.0
2615,64.0,96,96,2.0,92.0
2616,54.0,0,96,3.0,92.0
2617,66.0,0,96,2.0,92.0
2618,69.0,0,288,1.0,108.0
2619,42.0,96,96,4.0,92.0
2620,44.0,0,94,4.0,92.0
2621,88.0,0,94,1.0,108.0
2622,56.0,0,94,3.0,92.0
2623,68.0,96,94,2.0,92.0
2624,86.0,0,48,1.0,108.0
2625,69.0,0,160,2.0,92.0
2626,57.0,96,160,3.0,92.0
2627,45.0,0,160,4.0,92.0
2628,71.0,192,48,1.0,103.0
2629,66.0,0,96,2.0,89.0
2630,42.0,0,96,4.0,89.0
2631,54.0,0,96,3.0,89.0
2632,52.0,0,96,3.0,87.0
2633,64.0,96,96,2.0,87.0
2634,40.0,0,96,4.0,87.0
2635,88.0,96,48,1.0,98.0
2636,54.0,0,96,3.0,85.0
2637,42.0,0,96,4.0,85.0
2638,66.0,0,96,2.0,85.0
2639,56.0,0,94,3.0,83.0
2640,44.0,96,94,4.0,83.0
2641,68.0,0,94,2.0,83.0
2642,69.0,96,160,2.0,81.0
2643,45.0,0,160,4.0,81.0
2644,85.0,0,160,1.0,93.0
2645,57.0,0,160,3.0,81.0
2646,54.0,192,96,3.0,77.0
2647,66.0,0,96,2.0,77.0
2648,42.0,0,96,4.0,77.0
2649,69.0,0,160,1.0,88.0
2650,64.0,0,96,2.0,75.0
2651,40.0,0,96,4.0,75.0
2652,52.0,96,96,3.0,75.0
2653,42.0,0,96,4.0,73.0
2654,54.0,0,96,3.0,73.0
2655,66.0,96,96,2.0,73.0
2656,88.0,0,160,1.0,83.0
2657,44.0,96,94,4.0,71.0
2658,56.0,0,94,3.0,71.0
2659,68.0,0,94,2.0,71.0
2660,86.0,96,160,1.0,78.0
2661,57.0,0,160,3.0,69.0
2662,69.0,0,160,2.0,69.0
2663,45.0,0,160,4.0,69.0
2664,42.0,0,96,4.0,65.0
2665,54.0,0,96,3.0,65.0
2666,66.0,192,96,2.0,65.0
2667,71.0,0,160,1.0,73.0
2668,40.0,0,96,4.0,63.0
2669,64.0,0,96,2.0,63.0
2670,52.0,96,96,3.0,63.0
2671,42.0,0,96,4.0,61.0
2672,54.0,0,96,3.0,61.0
2673,66.0,96,96,2.0,61.0
2674,88.0,0,160,1.0,68.0
2675,56.0,96,94,3.0,59.0
2676,44.0,0,94,4.0,59.0
2677,68.0,0,94,2.0,59.0
2678,88.0,0,24,1.0,63.0
2679,69.0,96,160,2.0,57.0
2680,45.0,0,160,4.0,57.0
2681,57.0,0,160,3.0,57.0
2682,93.0,24,168,1.0,63.0
2683,66.0,168,96,2.0,53.0
2684,42.0,0,96,4.0,53.0
2685,54.0,0,96,3.0,53.0
2686,52.0,0,96,3.0,51.0
2687,40.0,0,96,4.0,51.0
2688,64.0,96,96,2.0,51.0
2689,69.0,0,288,1.0,57.0
2690,42.0,0,96,4.0,49.0
2691,66.0,0,96,2.0,49.0
2692,54.0,96,96,3.0,49.0
2693,56.0,0,94,3.0,47.0
2694,44.0,96,94,4.0,47.0
2695,88.0,0,94,1.0,48.0
2696,68.0,0,94,2.0,47.0
2697,86.0,0,48,1.0,45.0
2698,57.0,0,160,3.0,45.0
2699,45.0,0,160,4.0,45.0
2700,69.0,96,160,2.0,45.0
2701,71.0,0,48,1.0,45.0
2702,42.0,192,96,4.0,45.0
2703,54.0,0,96,3.0,45.0
2704,66.0,0,96,2.0,45.0
2705,64.0,96,96,2.0,45.0
2706,52.0,0,96,3.0,45.0
2707,40.0,0,96,4.0,45.0
2708,88.0,0,48,1.0,45.0
2709,54.0,0,96,3.0,45.0
2710,66.0,96,96,2.0,45.0
2711,42.0,0,96,4.0,45.0
2712,68.0,0,94,2.0,45.0
2713,56.0,0,94,3.0,45.0
2714,44.0,96,94,4.0,45.0
2715,85.0,0,160,1.0,45.0
2716,45.0,0,160,4.0,45.0
2717,57.0,0,160,3.0,45.0
2718,69.0,96,160,2.0,45.0
2719,42.0,0,96,4.0,45.0
2720,66.0,0,96,2.0,45.0
2721,54.0,0,96,3.0,45.0
2722,69.0,192,160,1.0,45.0
2723,64.0,0,96,2.0,45.0
2724,52.0,0,96,3.0,45.0
2725,40.0,96,96,4.0,45.0
2726,54.0,96,96,3.0,45.0
2727,42.0,0,96,4.0,45.0
2728,66.0,0,96,2.0,45.0
2729,88.0,0,160,1.0,45.0
2730,68.0,96,94,2.0,45.0
2731,44.0,0,94,4.0,45.0
2732,56.0,0,94,3.0,45.0
2733,57.0,96,160,3.0,45.0
2734,45.0,0,160,4.0,45.0
2735,69.0,0,160,2.0,45.0
2736,85.0,0,160,1.0,45.0
2737,42.0,0,96,4.0,44.0
2738,66.0,192,96,2.0,44.0
2739,54.0,0,96,3.0,44.0
2740,69.0,0,160,1.0,44.0
2741,64.0,0,96,2.0,44.0
2742,40.0,0,96,4.0,44.0
2743,52.0,96,96,3.0,44.0
2744,66.0,0,96,2.0,44.0
2745,42.0,0,96,4.0,44.0
2746,54.0,0,96,3.0,44.0
2747,88.0,96,160,1.0,43.0
2748,68.0,0,94,2.0,44.0
2749,56.0,0,94,3.0,44.0
2750,44.0,96,94,4.0,44.0
2751,88.0,0,24,1.0,42.0
2752,69.0,0,160,2.0,44.0
2753,57.0,0,160,3.0,44.0
2754,45.0,96,160,4.0,44.0
2755,93.0,24,168,1.0,42.0
2756,66.0,0,96,2.0,43.0
2757,54.0,0,96,3.0,43.0
2758,42.0,0,96,4.0,43.0
2759,40.0,96,96,4.0,43.0
2760,64.0,0,96,2.0,43.0
2761,52.0,0,96,3.0,43.0
2762,42.0,0,96,4.0,43.0
2763,66.0,96,96,2.0,43.0
2764,54.0,0,96,3.0,43.0
2765,69.0,168,336,1.0,41.0
2766,44.0,96,94,4.0,43.0
2767,56.0,0,94,3.0,43.0
2768,68.0,0,94,2.0,43.0
2769,57.0,0,160,3.0,43.0
2770,73.0,0,160,1.0,39.0
2771,45.0,96,160,4.0,43.0
2772,69.0,0,160,2.0,43.0
2773,42.0,192,96,4.0,42.0
2774,54.0,0,96,3.0,42.0
2775,66.0,0,96,2.0,42.0
2776,57.0,0,160,1.0,38.0
2777,52.0,96,96,3.0,42.0
2778,40.0,0,96,4.0,42.0
2779,64.0,0,96,2.0,42.0
2780,54.0,0,96,3.0,42.0
2781,66.0,0,96,2.0,42.0
2782,42.0,96,96,4.0,42.0
2783,76.0,0,160,1.0,37.0
2784,68.0,96,94,2.0,42.0
2785,56.0,0,94,3.0,42.0
2786,44.0,0,94,4.0,42.0
2787,76.0,0,24,1.0,36.0
2788,81.0,24,72,1.0,36.0
2789,57.0,96,160,3.0,42.0
2790,69.0,0,160,2.0,42.0
2791,45.0,0,160,4.0,42.0
2792,66.0,0,96,2.0,40.0
2793,42.0,0,96,4.0,40.0
2794,54.0,0,96,3.0,40.0
2795,52.0,0,96,3.0,39.0
2796,40.0,0,96,4.0,39.0
2797,64.0,96,96,2.0,39.0
2798,66.0,0,96,2.0,38.0
2799,54.0,96,96,3.0,38.0
2800,42.0,0,96,4.0,38.0
2801,69.0,72,432,1.0,36.0
2802,57.0,96,336,1.0,36.0
2803,56.0,0,94,3.0,37.0
2804,44.0,0,94,4.0,37.0
2805,68.0,96,94,2.0,37.0
2806,57.0,96,160,3.0,36.0
2807,69.0,0,160,2.0,36.0
2808,45.0,0,160,4.0,36.0
2809,85.0,0,160,1.0,34.0
2810,66.0,192,96,2.0,34.0
2811,42.0,0,96,4.0,34.0
2812,54.0,0,96,3.0,34.0
2813,69.0,0,160,1.0,33.0
2814,40.0,0,96,4.0,33.0
2815,64.0,0,96,2.0,33.0
2816,52.0,96,96,3.0,33.0
2817,42.0,0,96,4.0,32.0
2818,66.0,0,96,2.0,32.0
2819,54.0,96,96,3.0,32.0
2820,88.0,0,160,1.0,32.0
2821,68.0,0,94,2.0,31.0
2822,44.0,96,94,4.0,31.0
2823,56.0,0,94,3.0,31.0
2824,88.0,96,24,1.0,30.0
2825,57.0,0,160,3.0,30.0
2826,69.0,0,160,2.0,30.0
2827,45.0,0,160,4.0,30.0
2828,93.0,24,168,1.0,30.0
2829,54.0,0,96,3.0,30.0
2830,42.0,0,96,4.0,30.0
2831,66.0,0,96,2.0,30.0
2832,52.0,0,96,3.0,30.0
2833,64.0,0,96,2.0,30.0
2834,40.0,96,96,4.0,30.0
2835,66.0,0,96,2.0,30.0
2836,42.0,0,96,4.0,30.0
2837,54.0,96,96,3.0,30.0
2838,69.0,168,336,1.0,30.0
2839,68.0,0,94,2.0,30.0
2840,44.0,96,94,4.0,30.0
2841,56.0,0,94,3.0,30.0
2842,64.0,0,24,1.0,30.0
2843,45.0,0,160,4.0,30.0
2844,57.0,96,160,3.0,30.0
2845,69.0,24,168,1.0,30.0
2846,66.0,0,96,2.0,30.0
2847,54.0,0,96,3.0,30.0
2848,42.0,168,96,4.0,30.0
2849,52.0,0,96,3.0,30.0
2850,64.0,0,96,2.0,30.0
2851,40.0,96,96,4.0,30.0
2852,66.0,96,96,2.0,30.0
2853,54.0,0,96,3.0,30.0
2854,42.0,0,96,4.0,30.0
2855,57.0,0,336,1.0,30.0
2856,68.0,0,94,2.0,30.0
2857,56.0,0,94,3.0,30.0
2858,44.0,96,94,4.0,30.0
2859,64.0,96,24,1.0,30.0
2860,45.0,0,160,4.0,30.0
2861,57.0,0,160,3.0,30.0
2862,69.0,24,168,1.0,30.0
2863,54.0,0,96,3.0,30.0
2864,66.0,0,96,2.0,30.0
2865,42.0,168,96,4.0,30.0
2866,52.0,0,96,3.0,30.0
2867,64.0,96,96,2.0,30.0
2868,40.0,0,96,4.0,30.0
2869,66.0,0,96,2.0,30.0
2870,42.0,0,96,4.0,30.0
2871,54.0,96,96,3.0,30.0
2872,56.0,96,94,3.0,30.0
2873,68.0,0,94,2.0,30.0
2874,44.0,0,94,4.0,30.0
2875,69.0,0,160,2.0,30.0
2876,57.0,0,160,3.0,30.0
2877,57.0,0,544,1.0,30.0
2878,45.0,96,160,4.0,30.0
2879,66.0,192,96,1.0,30.0
2880,42.0,0,96,4.0,30.0
2881,54.0,0,96,3.0,30.0
2882,64.0,96,96,1.0,30.0
2883,52.0,0,96,3.0,30.0
2884,40.0,0,96,4.0,30.0
2885,66.0,96,96,1.0,30.0
2886,42.0,0,96,4.0,30.0
2887,54.0,0,96,3.0,30.0
2888,44.0,96,96,4.0,30.0
2889,68.0,0,96,1.0,30.0
2890,56.0,0,96,3.0,30.0
2891,45.0,0,48,4.0,30.0
2892,57.0,96,48,3.0,30.0
2893,69.0,0,48,1.0,30.0
2894,54.0,0,96,3.0,30.0
2895,42.0,192,96,4.0,30.0
2896,66.0,0,96,1.0,30.0
2897,52.0,0,96,3.0,30.0
2898,64.0,0,96,1.0,30.0
2899,40.0,96,96,4.0,30.0
2900,54.0,96,96,3.0,30.0
2901,42.0,0,96,4.0,30.0
2902,66.0,0,96,1.0,30.0
2903,55.0,96,96,3.0,30.0
2904,67.0,0,96,1.0,30.0
2905,43.0,0,96,4.0,30.0
2906,69.0,0,48,1.0,30.0
2907,57.0,96,48,3.0,30.0
2908,45.0,0,48,4.0,30.0
2909,54.0,192,96,3.0,30.0
2910,66.0,0,96,1.0,30.0
2911,42.0,0,96,4.0,30.0
2912,40.0,0,96,4.0,30.0
2913,64.0,0,96,1.0,30.0
2914,52.0,96,96,3.0,30.0
2915,41.0,96,96,4.0,30.0
2916,53.0,0,96,3.0,30.0
2917,65.0,0,96,1.0,30.0
2918,55.0,0,96,3.0,30.0
2919,67.0,96,96,1.0,30.0
2920,43.0,0,96,4.0,30.0
2921,69.0,0,48,1.0,30.0
2922,57.0,96,48,3.0,30.0
2923,45.0,0,48,4.0,30.0
2924,41.0,192,96,4.0,30.0
2925,65.0,0,96,1.0,30.0
2926,53.0,0,96,3.0,30.0
2927,52.0,0,96,3.0,30.0
2928,64.0,0,96,1.0,30.0
2929,40.0,96,96,4.0,30.0
2930,41.0,96,96,4.0,30.0
2931,53.0,0,96,3.0,30.0
2932,65.0,0,96,1.0,30.0
2933,67.0,0,288,1.0,30.0
2934,55.0,0,288,3.0,30.0
2935,43.0,96,288,4.0,30.0
2936,57.0,288,576,3.0,30.0
2937,45.0,0,576,4.0,30.0
2938,69.0,0,576,1.0,30.0
2939,67.0,0,576,1.0,30.0
2940,55.0,576,576,3.0,30.0
2941,43.0,0,576,4.0,30.0
2942,65.0,576,576,1.0,30.0
2943,53.0,0,576,3.0,30.0
2944,41.0,0,576,4.0,30.0
2945,55.0,0,544,3.0,30.0
2946,43.0,0,576,4.0,30.0
2947,67.0,576,576,1.0,30.0
2948,67.0,0,576,2.0,30.0
2949,55.0,576,576,4.0,30.0
2950,79.0,0,576,1.0,30.0
2951,79.0,0,576,2.0,30.0
2952,67.0,0,576,4.0,30.0
2953,91.0,576,576,1.0,30.0
2954,67.0,0,544,2.0,30.0
2955,79.0,0,576,1.0,30.0
2956,55.0,576,576,4.0,30.0
2957,43.0,0,336,4.0,30.0
2958,55.0,576,336,3.0,30.0
2959,41.0,192,48,4.0,30.0
2960,67.0,0,544,1.0,30.0
2961,60.0,192,528,2.0,30.0
2962,45.0,192,48,4.0,45.0
2963,53.0,0,528,3.0,30.0
2964,46.0,0,48,4.0,45.0
2965,69.0,192,544,1.0,45.0
2966,60.0,0,528,2.0,45.0
2967,48.0,0,48,4.0,45.0
2968,52.0,192,528,3.0,45.0
2969,67.0,192,544,1.0,45.0
2970,50.0,0,160,4.0,45.0
2971,60.0,192,528,2.0,45.0
2972,53.0,192,528,3.0,45.0
2973,48.0,0,160,4.0,45.0
2974,46.0,0,160,4.0,45.0
2975,65.0,192,544,1.0,45.0
2976,60.0,192,528,2.0,45.0
2977,52.0,192,528,3.0,45.0
2978,43.0,0,160,4.0,45.0
2979,67.0,192,544,1.0,45.0
2980,41.0,192,160,4.0,45.0
2981,60.0,192,528,2.0,45.0
2982,53.0,0,528,3.0,45.0
2983,45.0,192,160,4.0,45.0
2984,69.0,192,544,1.0,45.0
2985,46.0,0,160,4.0,45.0
2986,60.0,0,528,2.0,45.0
2987,52.0,192,528,3.0,45.0
2988,60.0,192,160,2.0,45.0
2989,48.0,0,160,4.0,45.0
2990,67.0,192,432,1.0,45.0
2991,53.0,0,48,3.0,45.0
2992,50.0,0,48,4.0,45.0
2993,57.0,192,48,2.0,45.0
2994,38.0,192,48,4.0,45.0
2995,57.0,0,48,2.0,45.0
2996,65.0,0,48,1.0,45.0
2997,53.0,0,48,3.0,45.0
2998,52.0,192,48,3.0,45.0
2999,67.0,0,48,1.0,45.0
3000,64.0,0,48,2.0,45.0
3001,36.0,0,48,4.0,45.0
3002,41.0,192,48,4.0,45.0
3003,53.0,0,48,3.0,45.0
3004,65.0,0,48,1.0,45.0
3005,57.0,0,48,2.0,45.0
3006,69.0,0,48,3.0,30.0
3007,77.0,192,48,2.0,30.0
3008,62.0,0,48,4.0,30.0
3009,60.0,0,48,4.0,30.0
3010,76.0,192,48,3.0,30.0
3011,79.0,0,48,2.0,30.0
3012,69.0,0,48,3.0,30.0
3013,77.0,0,48,2.0,30.0
3014,65.0,192,160,4.0,30.0
3015,53.0,192,48,3.0,30.0
3016,84.0,0,528,1.0,30.0
3017,57.0,0,160,4.0,30.0
3018,65.0,0,352,3.0,30.0
3019,58.0,192,160,4.0,30.0
3020,81.0,0,544,2.0,30.0
3021,84.0,192,528,1.0,30.0
3022,64.0,0,160,3.0,30.0
3023,60.0,0,160,4.0,30.0
3024,70.0,0,192,3.0,30.0
3025,79.0,192,544,2.0,30.0
3026,62.0,0,160,4.0,30.0
3027,69.0,192,160,3.0,30.0
3028,84.0,192,528,1.0,30.0
3029,57.0,192,160,3.0,30.0
3030,60.0,0,160,4.0,30.0
3031,69.0,0,160,3.0,30.0
3032,58.0,192,160,4.0,30.0
3033,62.0,0,160,3.0,30.0
3034,77.0,0,544,2.0,30.0
3035,84.0,192,528,1.0,30.0
3036,70.0,0,160,3.0,30.0
3037,55.0,0,160,4.0,30.0
3038,64.0,0,160,3.0,30.0
3039,79.0,192,544,2.0,30.0
3040,69.0,0,160,3.0,30.0
3041,53.0,192,160,4.0,30.0
3042,84.0,192,528,1.0,30.0
3043,60.0,192,160,3.0,30.0
3044,57.0,192,160,4.0,30.0
3045,58.0,192,160,4.0,30.0
3046,81.0,0,544,2.0,30.0
3047,65.0,0,352,3.0,30.0
3048,84.0,0,528,1.0,30.0
3049,52.0,0,160,3.0,30.0
3050,60.0,192,160,4.0,30.0
3051,64.0,0,160,3.0,30.0
3052,79.0,192,432,2.0,30.0
3053,84.0,0,240,1.0,30.0
3054,57.0,192,160,3.0,30.0
3055,62.0,0,160,4.0,30.0
3056,77.0,192,48,2.0,30.0
3057,86.0,0,48,1.0,30.0
3058,50.0,0,160,4.0,30.0
3059,69.0,0,160,3.0,30.0
3060,88.0,192,48,1.0,30.0
3061,79.0,0,48,2.0,30.0
3062,60.0,0,160,3.0,30.0
3063,48.0,0,160,4.0,30.0
3064,89.0,192,48,1.0,30.0
3065,77.0,0,48,2.0,30.0
3066,53.0,0,160,4.0,30.0
3067,39.0,192,336,4.0,127.0
3068,51.0,0,336,3.0,127.0
3069,63.0,0,336,1.0,127.0
3070,39.0,576,336,4.0,89.0
3071,51.0,0,336,3.0,89.0
3072,51.0,0,336,3.0,82.0
3073,39.0,384,336,4.0,82.0
3074,51.0,0,160,3.0,75.0
3075,39.0,384,160,4.0,75.0
3076,63.0,0,336,1.0,68.0
3077,51.0,384,336,3.0,69.0
3078,39.0,0,336,4.0,69.0
3079,63.0,384,336,1.0,61.0
3080,39.0,0,336,4.0,61.0
3081,51.0,0,336,3.0,61.0
3082,39.0,0,160,4.0,53.0
3083,63.0,384,160,1.0,53.0
3084,51.0,0,160,3.0,53.0
3085,39.0,0,336,4.0,45.0
3086,63.0,0,336,1.0,45.0
3087,51.0,384,336,3.0,45.0
3088,51.0,576,336,3.0,45.0
3089,39.0,0,336,4.0,45.0
3090,63.0,0,336,1.0,45.0
3091,64.0,0,336,1.0,30.0
3092,52.0,576,336,3.0,30.0
3093,40.0,0,336,4.0,30.0
3094,64.0,0,336,1.0,30.0
3095,52.0,576,336,3.0,30.0
3096,53.0,384,160,3.0,35.0
3097,36.0,0,720,4.0,30.0
3098,57.0,0,192,3.0,39.0
3099,59.0,192,160,3.0,41.0
3100,48.0,192,544,3.0,37.0
3101,69.0,0,544,1.0,36.0
3102,36.0,192,528,4.0,40.0
3103,65.0,0,576,2.0,38.0
3104,64.0,0,192,2.0,44.0
3105,60.0,0,192,3.0,45.0
3106,48.0,0,544,3.0,43.0
3107,62.0,192,160,3.0,47.0
3108,67.0,192,544,1.0,42.0
3109,36.0,192,528,4.0,47.0
3110,57.0,0,384,2.0,46.0
3111,56.0,0,192,2.0,51.0
3112,60.0,192,192,3.0,51.0
3113,65.0,192,544,1.0,49.0
3114,59.0,0,160,3.0,53.0
3115,48.0,0,544,3.0,49.0
3116,36.0,0,528,4.0,54.0
3117,62.0,192,384,2.0,53.0
3118,48.0,0,192,3.0,56.0
3119,58.0,0,192,3.0,59.0
3120,49.0,0,192,3.0,59.0
3121,67.0,192,544,1.0,56.0
3122,64.0,192,352,2.0,58.0
3123,57.0,192,160,3.0,62.0
3124,48.0,0,160,3.0,62.0
3125,36.0,0,528,4.0,61.0
3126,57.0,192,192,2.0,62.0
3127,57.0,0,192,3.0,68.0
3128,59.0,192,160,3.0,71.0
3129,48.0,0,544,3.0,65.0
3130,65.0,0,352,2.0,64.0
3131,69.0,0,544,1.0,63.0
3132,36.0,192,528,4.0,68.0
3133,65.0,192,192,2.0,68.0
3134,64.0,192,160,2.0,71.0
3135,60.0,0,192,3.0,77.0
3136,67.0,0,432,1.0,70.0
3137,59.0,0,160,3.0,80.0
3138,48.0,0,544,3.0,74.0
3139,65.0,0,48,1.0,77.0
3140,36.0,0,528,4.0,77.0
3141,56.0,192,336,2.0,74.0
3142,62.0,192,160,2.0,77.0
3143,67.0,0,48,1.0,80.0
3144,64.0,0,160,2.0,80.0
3145,55.0,0,160,2.0,80.0
3146,58.0,0,192,3.0,86.0
3147,48.0,0,544,3.0,83.0
3148,65.0,0,160,1.0,83.0
3149,36.0,192,352,4.0,86.0
3150,57.0,192,160,2.0,83.0
3151,53.0,0,48,3.0,92.0
3152,41.0,192,48,4.0,92.0
3153,77.0,0,48,1.0,92.0
3154,65.0,192,48,2.0,92.0
3155,55.0,0,352,3.0,92.0
3156,43.0,192,352,4.0,92.0
3157,81.0,192,48,1.0,92.0
3158,69.0,0,48,2.0,92.0
3159,82.0,192,48,1.0,92.0
3160,70.0,0,48,2.0,92.0
3161,57.0,192,544,3.0,92.0
3162,45.0,0,544,4.0,92.0
3163,84.0,0,160,1.0,92.0
3164,72.0,192,160,2.0,92.0
3165,43.0,0,544,4.0,92.0
3166,55.0,192,544,3.0,92.0
3167,86.0,192,160,1.0,92.0
3168,74.0,0,160,2.0,92.0
3169,84.0,192,160,1.0,92.0
3170,72.0,0,160,2.0,92.0
3171,41.0,192,544,4.0,92.0
3172,70.0,192,160,2.0,92.0
3173,82.0,0,160,1.0,92.0
3174,53.0,0,544,3.0,92.0
3175,79.0,0,160,1.0,92.0
3176,67.0,192,160,2.0,92.0
3177,77.0,192,160,1.0,92.0
3178,43.0,192,544,4.0,92.0
3179,55.0,0,544,3.0,92.0
3180,65.0,0,160,2.0,92.0
3181,69.0,0,160,2.0,92.0
3182,81.0,192,160,1.0,92.0
3183,57.0,0,544,3.0,92.0
3184,45.0,192,544,4.0,92.0
3185,82.0,192,160,1.0,82.0
3186,70.0,0,160,2.0,82.0
3187,84.0,192,160,1.0,62.0
3188,72.0,0,160,2.0,62.0
3189,55.0,0,544,3.0,62.0
3190,74.0,0,160,2.0,52.0
3191,86.0,192,160,1.0,52.0
3192,43.0,192,544,4.0,62.0
3193,41.0,0,48,4.0,30.0
3194,53.0,192,48,3.0,30.0
3195,55.0,0,48,3.0,30.0
3196,43.0,192,48,4.0,30.0
3197,64.0,0,160,2.0,30.0
3198,84.0,0,160,1.0,30.0
3199,72.0,0,160,2.0,30.0
3200,72.0,0,48,2.0,30.0
3201,69.0,0,48,2.0,30.0
3202,41.0,0,48,4.0,30.0
3203,53.0,0,48,3.0,30.0
3204,84.0,192,48,1.0,30.0
3205,84.0,0,48,1.0,30.0
3206,72.0,192,48,2.0,30.0
3207,57.0,0,48,3.0,30.0
3208,69.0,192,48,2.0,30.0
3209,53.0,0,48,3.0,30.0
3210,87.0,0,48,1.0,30.0
3211,65.0,192,48,2.0,30.0
3212,58.0,0,48,3.0,30.0
3213,86.0,0,48,1.0,30.0
3214,41.0,192,48,4.0,30.0
3215,43.0,192,48,4.0,30.0
3216,41.0,192,48,4.0,30.0
3217,88.0,0,48,1.0,30.0
3218,58.0,0,48,3.0,30.0
3219,74.0,192,48,2.0,30.0
3220,65.0,0,48,2.0,30.0
3221,74.0,0,48,2.0,30.0
3222,58.0,0,48,3.0,30.0
3223,65.0,0,48,2.0,30.0
3224,89.0,192,48,1.0,30.0
3225,84.0,192,48,1.0,30.0
3226,65.0,0,160,3.0,30.0
3227,69.0,0,160,2.0,30.0
3228,41.0,0,48,4.0,30.0
3229,65.0,0,160,3.0,30.0
3230,77.0,192,160,2.0,30.0
3231,39.0,0,48,4.0,30.0
3232,79.0,0,160,2.0,30.0
3233,67.0,192,160,3.0,30.0
3234,38.0,0,48,4.0,30.0
3235,66.0,0,160,3.0,30.0
3236,78.0,192,160,2.0,30.0
3237,40.0,0,48,4.0,30.0
3238,67.0,192,160,3.0,30.0
3239,82.0,0,160,2.0,30.0
3240,86.0,0,160,1.0,30.0
3241,42.0,192,48,4.0,30.0
3242,69.0,0,160,3.0,30.0
3243,84.0,0,160,1.0,30.0
3244,81.0,0,160,2.0,30.0
3245,84.0,192,48,1.0,30.0
3246,81.0,0,48,2.0,30.0
3247,43.0,0,160,4.0,30.0
3248,62.0,0,160,3.0,30.0
3249,82.0,0,48,1.0,30.0
3250,79.0,0,48,2.0,30.0
3251,43.0,192,160,4.0,30.0
3252,64.0,0,160,3.0,30.0
3253,77.0,192,48,2.0,30.0
3254,81.0,0,48,1.0,30.0
3255,45.0,0,160,4.0,30.0
3256,60.0,0,160,3.0,30.0
3257,46.0,0,160,4.0,30.0
3258,62.0,192,192,3.0,30.0
3259,77.0,0,192,2.0,30.0
3260,81.0,0,192,1.0,30.0
3261,46.0,0,160,4.0,30.0
3262,82.0,0,160,1.0,30.0
3263,74.0,0,160,2.0,30.0
3264,55.0,192,160,3.0,30.0
3265,70.0,192,48,2.0,30.0
3266,79.0,0,48,1.0,30.0
3267,60.0,0,48,3.0,30.0
3268,76.0,0,48,2.0,30.0
3269,48.0,0,160,4.0,30.0
3270,81.0,0,48,1.0,30.0
3271,69.0,0,48,2.0,30.0
3272,60.0,192,160,3.0,30.0
3273,41.0,0,160,4.0,30.0
3274,65.0,0,48,2.0,30.0
3275,77.0,192,48,1.0,30.0
3276,67.0,192,48,2.0,30.0
3277,79.0,0,48,1.0,30.0
3278,65.0,192,160,2.0,30.0
3279,77.0,0,160,1.0,30.0
3280,57.0,0,48,3.0,30.0
3281,60.0,192,48,4.0,30.0
3282,60.0,0,48,3.0,30.0
3283,63.0,192,48,4.0,30.0
3284,58.0,192,160,3.0,30.0
3285,62.0,0,160,4.0,30.0
3286,65.0,0,160,2.0,30.0
3287,77.0,192,160,1.0,30.0
3288,79.0,0,160,1.0,30.0
3289,67.0,192,160,2.0,30.0
3290,77.0,0,160,1.0,30.0
3291,65.0,192,160,2.0,30.0
3292,64.0,0,160,4.0,30.0
3293,58.0,192,160,3.0,30.0
3294,65.0,0,160,4.0,30.0
3295,58.0,192,160,3.0,30.0
3296,60.0,0,160,4.0,30.0
3297,57.0,192,160,3.0,30.0
3298,77.0,192,160,1.0,30.0
3299,65.0,0,160,2.0,30.0
3300,67.0,192,160,2.0,30.0
3301,79.0,0,160,1.0,30.0
3302,65.0,192,160,2.0,30.0
3303,77.0,0,160,1.0,30.0
3304,78.0,0,160,1.0,30.0
3305,60.0,0,160,3.0,30.0
3306,63.0,192,160,4.0,30.0
3307,66.0,0,160,2.0,30.0
3308,58.0,0,160,3.0,30.0
3309,79.0,0,160,1.0,30.0
3310,67.0,0,160,2.0,30.0
3311,62.0,192,160,4.0,30.0
3312,62.0,0,48,4.0,30.0
3313,58.0,0,48,3.0,30.0
3314,67.0,0,160,2.0,30.0
3315,79.0,192,160,1.0,30.0
3316,60.0,192,48,4.0,30.0
3317,57.0,0,48,3.0,30.0
3318,67.0,0,160,2.0,30.0
3319,79.0,0,160,1.0,30.0
3320,55.0,0,48,3.0,30.0
3321,58.0,192,48,4.0,30.0
3322,72.0,0,160,2.0,30.0
3323,84.0,0,160,1.0,30.0
3324,84.0,0,160,1.0,30.0
3325,72.0,0,160,2.0,30.0
3326,57.0,192,192,4.0,30.0
3327,53.0,0,192,3.0,30.0
3328,72.0,0,160,2.0,30.0
3329,84.0,0,160,1.0,30.0
3330,55.0,192,160,3.0,30.0
3331,58.0,0,160,4.0,30.0
3332,55.0,192,48,4.0,30.0
3333,52.0,0,48,3.0,30.0
3334,84.0,0,160,1.0,30.0
3335,72.0,0,160,2.0,30.0
3336,53.0,0,48,3.0,30.0
3337,72.0,192,48,2.0,30.0
3338,84.0,0,48,1.0,30.0
3339,57.0,0,48,4.0,30.0
3340,60.0,192,48,2.0,30.0
3341,64.0,0,48,3.0,30.0
3342,55.0,0,48,4.0,30.0
3343,82.0,0,48,1.0,30.0
3344,81.0,192,48,1.0,30.0
3345,72.0,0,48,2.0,30.0
3346,65.0,0,48,3.0,30.0
3347,57.0,0,48,4.0,30.0
3348,58.0,192,192,4.0,30.0
3349,72.0,0,192,2.0,30.0
3350,62.0,0,192,3.0,30.0
3351,81.0,0,192,1.0,30.0
3352,82.0,0,160,1.0,35.0
3353,74.0,0,160,2.0,35.0
3354,46.0,192,160,4.0,35.0
3355,67.0,0,160,2.0,35.0
3356,50.0,0,160,3.0,35.0
3357,64.0,0,48,2.0,40.0
3358,79.0,0,48,1.0,40.0
3359,52.0,0,48,3.0,40.0
3360,48.0,192,48,4.0,40.0
3361,48.0,0,48,4.0,45.0
3362,70.0,0,192,2.0,45.0
3363,52.0,192,192,3.0,45.0
3364,79.0,0,192,1.0,45.0
3365,36.0,192,48,4.0,50.0
3366,69.0,0,160,2.0,50.0
3367,53.0,0,160,3.0,50.0
3368,81.0,0,160,1.0,50.0
3369,77.0,0,48,1.0,55.0
3370,69.0,0,48,2.0,55.0
3371,57.0,0,48,3.0,55.0
3372,65.0,0,48,2.0,55.0
3373,36.0,192,48,4.0,55.0
3374,36.0,0,160,4.0,60.0
3375,76.0,192,192,1.0,60.0
3376,58.0,0,192,3.0,60.0
3377,67.0,0,192,2.0,60.0
3378,36.0,0,160,4.0,65.0
3379,65.0,0,160,2.0,65.0
3380,77.0,192,160,1.0,65.0
3381,57.0,0,160,3.0,65.0
3382,79.0,0,48,1.0,70.0
3383,55.0,0,48,3.0,70.0
3384,64.0,0,48,2.0,70.0
3385,36.0,192,160,4.0,70.0
3386,70.0,0,48,2.0,75.0
3387,36.0,0,192,4.0,75.0
3388,76.0,192,192,1.0,75.0
3389,55.0,0,192,3.0,75.0
3390,58.0,0,48,2.0,72.0
3391,53.0,192,160,3.0,72.0
3392,38.0,0,160,4.0,72.0
3393,77.0,0,160,1.0,72.0
3394,70.0,0,48,2.0,69.0
3395,52.0,192,48,3.0,69.0
3396,79.0,0,48,1.0,69.0
3397,40.0,0,48,4.0,69.0
3398,69.0,0,48,2.0,66.0
3399,57.0,0,48,3.0,66.0
3400,41.0,0,48,4.0,66.0
3401,72.0,192,160,1.0,66.0
3402,43.0,0,48,4.0,63.0
3403,67.0,0,48,2.0,63.0
3404,58.0,192,48,3.0,63.0
3405,72.0,0,160,1.0,63.0
3406,65.0,192,48,2.0,60.0
3407,60.0,0,48,3.0,60.0
3408,45.0,0,48,4.0,60.0
3409,72.0,0,160,1.0,60.0
3410,58.0,0,160,2.0,57.0
3411,36.0,0,192,4.0,57.0
3412,76.0,0,192,1.0,57.0
3413,55.0,192,192,3.0,57.0
3414,70.0,0,160,2.0,53.0
3415,53.0,0,160,3.0,53.0
3416,77.0,192,160,1.0,53.0
3417,38.0,0,160,4.0,53.0
3418,79.0,0,48,1.0,49.0
3419,40.0,0,48,4.0,49.0
3420,52.0,192,48,3.0,49.0
3421,70.0,0,160,2.0,49.0
3422,69.0,0,48,2.0,45.0
3423,41.0,0,48,4.0,45.0
3424,57.0,0,48,3.0,45.0
3425,72.0,192,160,1.0,45.0
3426,58.0,0,48,3.0,45.0
3427,67.0,192,48,2.0,45.0
3428,43.0,0,48,4.0,45.0
3429,72.0,0,160,1.0,45.0
3430,65.0,0,48,2.0,45.0
3431,60.0,0,48,3.0,45.0
3432,45.0,0,48,4.0,45.0
3433,72.0,192,160,1.0,45.0
3434,58.0,0,160,2.0,45.0
3435,36.0,0,192,4.0,45.0
3436,76.0,192,192,1.0,45.0
3437,55.0,0,192,3.0,45.0
3438,70.0,0,160,2.0,43.0
3439,53.0,192,160,3.0,43.0
3440,38.0,0,160,4.0,43.0
3441,77.0,0,160,1.0,43.0
3442,79.0,0,48,1.0,41.0
3443,52.0,192,48,3.0,41.0
3444,40.0,0,48,4.0,41.0
3445,70.0,0,160,2.0,41.0
3446,69.0,192,48,2.0,39.0
3447,57.0,0,48,3.0,39.0
3448,41.0,0,48,4.0,39.0
3449,72.0,0,160,1.0,39.0
3450,67.0,0,48,2.0,36.0
3451,43.0,0,48,4.0,36.0
3452,58.0,0,48,3.0,36.0
3453,72.0,192,160,1.0,36.0
3454,60.0,0,48,3.0,33.0
3455,45.0,0,48,4.0,33.0
3456,65.0,0,48,2.0,33.0
3457,72.0,192,160,1.0,33.0
3458,58.0,0,160,2.0,30.0
3459,55.0,192,192,3.0,30.0
3460,36.0,0,192,4.0,30.0
3461,76.0,0,192,1.0,30.0
3462,53.0,0,160,3.0,30.0
3463,70.0,192,160,2.0,30.0
3464,38.0,0,160,4.0,30.0
3465,77.0,0,160,1.0,30.0
3466,40.0,192,48,4.0,30.0
3467,52.0,0,48,3.0,30.0
3468,79.0,0,48,1.0,30.0
3469,70.0,0,160,2.0,30.0
3470,69.0,0,160,2.0,92.0
3471,72.0,192,160,1.0,92.0
3472,53.0,0,160,3.0,92.0
3473,41.0,0,160,4.0,92.0
3474,39.0,0,336,4.0,127.0
3475,63.0,192,336,1.0,127.0
3476,51.0,0,336,3.0,127.0
3477,51.0,576,336,3.0,89.0
3478,39.0,0,336,4.0,89.0
3479,51.0,384,336,3.0,82.0
3480,39.0,0,336,4.0,82.0
3481,39.0,384,160,4.0,75.0
3482,51.0,0,160,3.0,75.0
3483,63.0,0,336,1.0,68.0
3484,39.0,0,336,4.0,69.0
3485,51.0,384,336,3.0,69.0
3486,39.0,0,336,4.0,61.0
3487,51.0,0,336,3.0,61.0
3488,63.0,384,336,1.0,61.0
3489,39.0,0,160,4.0,53.0
3490,63.0,384,160,1.0,53.0
3491,51.0,0,160,3.0,53.0
3492,51.0,0,336,3.0,45.0
3493,63.0,384,336,1.0,45.0
3494,39.0,0,336,4.0,45.0
3495,63.0,576,336,1.0,45.0
3496,51.0,0,336,3.0,45.0
3497,39.0,0,336,4.0,45.0
3498,64.0,0,336,1.0,30.0
3499,52.0,576,336,3.0,30.0
3500,40.0,0,336,4.0,30.0
3501,52.0,576,336,3.0,30.0
3502,64.0,0,336,1.0,30.0
3503,53.0,384,160,3.0,35.0
3504,36.0,0,720,4.0,30.0
3505,57.0,0,192,3.0,39.0
3506,59.0,192,160,3.0,41.0
3507,48.0,0,544,3.0,37.0
3508,69.0,192,544,1.0,36.0
3509,36.0,192,528,4.0,40.0
3510,65.0,0,576,2.0,38.0
3511,64.0,0,192,2.0,44.0
3512,60.0,192,192,3.0,45.0
3513,48.0,192,544,3.0,43.0
3514,67.0,0,544,1.0,42.0
3515,62.0,192,160,3.0,47.0
3516,36.0,0,528,4.0,47.0
3517,57.0,0,384,2.0,46.0
3518,60.0,192,192,3.0,51.0
3519,56.0,0,192,2.0,51.0
3520,59.0,0,160,3.0,53.0
3521,48.0,0,544,3.0,49.0
3522,65.0,192,544,1.0,49.0
3523,36.0,0,528,4.0,54.0
3524,48.0,192,192,3.0,56.0
3525,62.0,192,384,2.0,53.0
3526,49.0,0,192,3.0,59.0
3527,58.0,192,192,3.0,59.0
3528,67.0,0,544,1.0,56.0
3529,57.0,192,160,3.0,62.0
3530,64.0,0,352,2.0,58.0
3531,48.0,0,160,3.0,62.0
3532,36.0,0,528,4.0,61.0
3533,57.0,0,192,2.0,62.0
3534,57.0,0,192,3.0,68.0
3535,59.0,192,160,3.0,71.0
3536,48.0,192,544,3.0,65.0
3537,65.0,192,352,2.0,64.0
3538,69.0,0,544,1.0,63.0
3539,36.0,0,528,4.0,68.0
3540,65.0,0,192,2.0,68.0
3541,64.0,0,160,2.0,71.0
3542,60.0,192,192,3.0,77.0
3543,67.0,0,432,1.0,70.0
3544,59.0,192,160,3.0,80.0
3545,48.0,192,544,3.0,74.0
3546,65.0,192,48,1.0,77.0
3547,36.0,0,528,4.0,77.0
3548,56.0,0,336,2.0,74.0
3549,62.0,0,160,2.0,77.0
3550,67.0,0,48,1.0,80.0
3551,64.0,0,160,2.0,80.0
3552,55.0,0,160,2.0,80.0
3553,58.0,0,192,3.0,86.0
3554,65.0,0,160,1.0,83.0
3555,57.0,192,160,2.0,83.0
3556,48.0,0,544,3.0,83.0
3557,36.0,192,352,4.0,86.0
3558,41.0,0,48,4.0,92.0
3559,53.0,192,48,3.0,92.0
3560,77.0,192,48,1.0,92.0
3561,65.0,0,48,2.0,92.0
3562,43.0,0,352,4.0,92.0
3563,55.0,192,352,3.0,92.0
3564,69.0,0,48,2.0,92.0
3565,81.0,192,48,1.0,92.0
3566,82.0,192,48,1.0,92.0
3567,70.0,0,48,2.0,92.0
3568,45.0,0,544,4.0,92.0
3569,57.0,192,544,3.0,92.0
3570,84.0,192,160,1.0,92.0
3571,72.0,0,160,2.0,92.0
3572,43.0,0,544,4.0,92.0
3573,74.0,192,160,2.0,92.0
3574,86.0,0,160,1.0,92.0
3575,55.0,192,544,3.0,92.0
3576,72.0,192,160,2.0,92.0
3577,84.0,0,160,1.0,92.0
3578,82.0,0,160,1.0,92.0
3579,53.0,0,544,3.0,92.0
3580,70.0,192,160,2.0,92.0
3581,41.0,192,544,4.0,92.0
3582,67.0,0,160,2.0,92.0
3583,79.0,192,160,1.0,92.0
3584,43.0,192,544,4.0,92.0
3585,65.0,192,160,2.0,92.0
3586,55.0,0,544,3.0,92.0
3587,77.0,0,160,1.0,92.0
3588,81.0,192,160,1.0,92.0
3589,69.0,0,160,2.0,92.0
3590,82.0,0,160,1.0,82.0
3591,57.0,192,544,3.0,92.0
3592,45.0,0,544,4.0,92.0
3593,70.0,192,160,2.0,82.0
3594,84.0,0,160,1.0,62.0
3595,72.0,192,160,2.0,62.0
3596,55.0,192,544,3.0,62.0
3597,86.0,192,160,1.0,52.0
3598,43.0,0,544,4.0,62.0
3599,74.0,0,160,2.0,52.0
3600,53.0,192,48,3.0,30.0
3601,41.0,0,48,4.0,30.0
3602,43.0,0,48,4.0,30.0
3603,55.0,192,48,3.0,30.0
3604,64.0,0,160,2.0,30.0
3605,72.0,0,160,2.0,30.0
3606,84.0,0,160,1.0,30.0
3607,53.0,0,48,3.0,30.0
3608,72.0,192,48,2.0,30.0
3609,69.0,0,48,2.0,30.0
3610,41.0,0,48,4.0,30.0
3611,84.0,0,48,1.0,30.0
3612,84.0,192,48,1.0,30.0
3613,57.0,0,48,3.0,30.0
3614,72.0,0,48,2.0,30.0
3615,69.0,0,48,2.0,30.0
3616,53.0,192,48,3.0,30.0
3617,87.0,0,48,1.0,30.0
3618,65.0,0,48,2.0,30.0
3619,58.0,192,48,3.0,30.0
3620,86.0,0,48,1.0,30.0
3621,41.0,192,48,4.0,30.0
3622,43.0,192,48,4.0,30.0
3623,41.0,192,48,4.0,30.0
3624,65.0,192,48,2.0,30.0
3625,74.0,0,48,2.0,30.0
3626,88.0,0,48,1.0,30.0
3627,58.0,0,48,3.0,30.0
3628,74.0,0,48,2.0,30.0
3629,65.0,0,48,2.0,30.0
3630,89.0,0,48,1.0,30.0
3631,58.0,192,48,3.0,30.0
3632,84.0,0,48,1.0,30.0
3633,65.0,0,160,3.0,30.0
3634,69.0,192,160,2.0,30.0
3635,41.0,192,48,4.0,30.0
3636,77.0,0,160,2.0,30.0
3637,65.0,0,160,3.0,30.0
3638,39.0,192,48,4.0,30.0
3639,67.0,0,160,3.0,30.0
3640,79.0,0,160,2.0,30.0
3641,38.0,0,48,4.0,30.0
3642,78.0,192,160,2.0,30.0
3643,66.0,0,160,3.0,30.0
3644,40.0,0,48,4.0,30.0
3645,67.0,192,160,3.0,30.0
3646,86.0,0,160,1.0,30.0
3647,82.0,0,160,2.0,30.0
3648,42.0,0,48,4.0,30.0
3649,69.0,0,160,3.0,30.0
3650,84.0,192,160,1.0,30.0
3651,81.0,0,160,2.0,30.0
3652,81.0,0,48,2.0,30.0
3653,84.0,0,48,1.0,30.0
3654,62.0,0,160,3.0,30.0
3655,43.0,192,160,4.0,30.0
3656,82.0,192,48,1.0,30.0
3657,79.0,0,48,2.0,30.0
3658,64.0,0,160,3.0,30.0
3659,43.0,0,160,4.0,30.0
3660,81.0,0,48,1.0,30.0
3661,77.0,0,48,2.0,30.0
3662,60.0,192,160,3.0,30.0
3663,45.0,0,160,4.0,30.0
3664,46.0,0,160,4.0,30.0
3665,81.0,0,192,1.0,30.0
3666,62.0,192,192,3.0,30.0
3667,77.0,0,192,2.0,30.0
3668,82.0,192,160,1.0,30.0
3669,74.0,0,160,2.0,30.0
3670,46.0,0,160,4.0,30.0
3671,55.0,0,160,3.0,30.0
3672,70.0,192,48,2.0,30.0
3673,76.0,0,48,2.0,30.0
3674,79.0,0,48,1.0,30.0
3675,60.0,0,48,3.0,30.0
3676,48.0,0,160,4.0,30.0
3677,81.0,192,48,1.0,30.0
3678,69.0,0,48,2.0,30.0
3679,60.0,0,160,3.0,30.0
3680,41.0,0,160,4.0,30.0
3681,77.0,0,48,1.0,30.0
3682,65.0,192,48,2.0,30.0
3683,79.0,0,48,1.0,30.0
3684,67.0,192,48,2.0,30.0
3685,65.0,192,160,2.0,30.0
3686,77.0,0,160,1.0,30.0
3687,60.0,0,48,4.0,30.0
3688,57.0,192,48,3.0,30.0
3689,60.0,192,48,3.0,30.0
3690,63.0,0,48,4.0,30.0
3691,62.0,0,160,4.0,30.0
3692,58.0,192,160,3.0,30.0
3693,65.0,0,160,2.0,30.0
3694,77.0,192,160,1.0,30.0
3695,79.0,192,160,1.0,30.0
3696,67.0,0,160,2.0,30.0
3697,65.0,0,160,2.0,30.0
3698,77.0,192,160,1.0,30.0
3699,58.0,192,160,3.0,30.0
3700,64.0,0,160,4.0,30.0
3701,65.0,192,160,4.0,30.0
3702,58.0,0,160,3.0,30.0
3703,60.0,192,160,4.0,30.0
3704,57.0,0,160,3.0,30.0
3705,77.0,192,160,1.0,30.0
3706,65.0,0,160,2.0,30.0
3707,79.0,192,160,1.0,30.0
3708,67.0,0,160,2.0,30.0
3709,77.0,192,160,1.0,30.0
3710,65.0,0,160,2.0,30.0
3711,78.0,0,160,1.0,30.0
3712,63.0,0,160,4.0,30.0
3713,66.0,192,160,2.0,30.0
3714,60.0,0,160,3.0,30.0
3715,67.0,192,160,2.0,30.0
3716,58.0,0,160,3.0,30.0
3717,62.0,0,160,4.0,30.0
3718,79.0,0,160,1.0,30.0
3719,62.0,0,48,4.0,30.0
3720,58.0,0,48,3.0,30.0
3721,79.0,0,160,1.0,30.0
3722,67.0,192,160,2.0,30.0
3723,57.0,0,48,3.0,30.0
3724,60.0,0,48,4.0,30.0
3725,67.0,0,160,2.0,30.0
3726,79.0,192,160,1.0,30.0
3727,58.0,0,48,4.0,30.0
3728,55.0,192,48,3.0,30.0
3729,72.0,0,160,2.0,30.0
3730,84.0,0,160,1.0,30.0
3731,84.0,0,160,1.0,30.0
3732,72.0,0,160,2.0,30.0
3733,57.0,0,192,4.0,30.0
3734,53.0,192,192,3.0,30.0
3735,58.0,192,160,4.0,30.0
3736,84.0,0,160,1.0,30.0
3737,55.0,0,160,3.0,30.0
3738,72.0,0,160,2.0,30.0
3739,55.0,192,48,4.0,30.0
3740,52.0,0,48,3.0,30.0
3741,84.0,0,160,1.0,30.0
3742,72.0,0,160,2.0,30.0
3743,57.0,0,48,4.0,30.0
3744,53.0,0,48,3.0,30.0
3745,84.0,0,48,1.0,30.0
3746,72.0,192,48,2.0,30.0
3747,82.0,192,48,1.0,30.0
3748,64.0,0,48,3.0,30.0
3749,60.0,0,48,2.0,30.0
3750,55.0,0,48,4.0,30.0
3751,65.0,192,48,3.0,30.0
3752,72.0,0,48,2.0,30.0
3753,57.0,0,48,4.0,30.0
3754,81.0,0,48,1.0,30.0
3755,81.0,0,192,1.0,30.0
3756,72.0,192,192,2.0,30.0
3757,62.0,0,192,3.0,30.0
3758,58.0,0,192,4.0,30.0
3759,50.0,0,160,3.0,35.0
3760,46.0,192,160,4.0,35.0
3761,74.0,0,160,2.0,35.0
3762,67.0,0,160,2.0,35.0
3763,82.0,0,160,1.0,35.0
3764,64.0,0,48,2.0,40.0
3765,48.0,192,48,4.0,40.0
3766,52.0,0,48,3.0,40.0
3767,79.0,0,48,1.0,40.0
3768,48.0,0,48,4.0,45.0
3769,79.0,0,192,1.0,45.0
3770,52.0,0,192,3.0,45.0
3771,70.0,192,192,2.0,45.0
3772,36.0,0,48,4.0,50.0
3773,81.0,192,160,1.0,50.0
3774,69.0,0,160,2.0,50.0
3775,53.0,0,160,3.0,50.0
3776,69.0,0,48,2.0,55.0
3777,65.0,192,48,2.0,55.0
3778,77.0,0,48,1.0,55.0
3779,36.0,0,48,4.0,55.0
3780,57.0,0,48,3.0,55.0
3781,36.0,0,160,4.0,60.0
3782,76.0,0,192,1.0,60.0
3783,58.0,192,192,3.0,60.0
3784,67.0,0,192,2.0,60.0
3785,36.0,0,160,4.0,65.0
3786,77.0,0,160,1.0,65.0
3787,57.0,192,160,3.0,65.0
3788,65.0,0,160,2.0,65.0
3789,55.0,192,48,3.0,70.0
3790,79.0,0,48,1.0,70.0
3791,64.0,0,48,2.0,70.0
3792,36.0,0,160,4.0,70.0
3793,70.0,0,48,2.0,75.0
3794,55.0,192,192,3.0,75.0
3795,76.0,0,192,1.0,75.0
3796,36.0,0,192,4.0,75.0
3797,58.0,0,48,2.0,72.0
3798,77.0,0,160,1.0,72.0
3799,38.0,0,160,4.0,72.0
3800,53.0,192,160,3.0,72.0
3801,52.0,0,48,3.0,69.0
3802,70.0,0,48,2.0,69.0
3803,79.0,0,48,1.0,69.0
3804,40.0,192,48,4.0,69.0
3805,57.0,0,48,3.0,66.0
3806,41.0,0,48,4.0,66.0
3807,69.0,0,48,2.0,66.0
3808,72.0,192,160,1.0,66.0
3809,43.0,192,48,4.0,63.0
3810,67.0,0,48,2.0,63.0
3811,58.0,0,48,3.0,63.0
3812,72.0,0,160,1.0,63.0
3813,45.0,0,48,4.0,60.0
3814,65.0,192,48,2.0,60.0
3815,60.0,0,48,3.0,60.0
3816,72.0,0,160,1.0,60.0
3817,58.0,0,160,2.0,57.0
3818,36.0,192,192,4.0,57.0
3819,55.0,0,192,3.0,57.0
3820,76.0,0,192,1.0,57.0
3821,53.0,192,160,3.0,53.0
3822,77.0,0,160,1.0,53.0
3823,38.0,0,160,4.0,53.0
3824,70.0,0,160,2.0,53.0
3825,40.0,192,48,4.0,49.0
3826,52.0,0,48,3.0,49.0
3827,79.0,0,48,1.0,49.0
3828,70.0,0,160,2.0,49.0
3829,41.0,0,48,4.0,45.0
3830,69.0,192,48,2.0,45.0
3831,57.0,0,48,3.0,45.0
3832,72.0,0,160,1.0,45.0
3833,43.0,192,48,4.0,45.0
3834,58.0,0,48,3.0,45.0
3835,67.0,0,48,2.0,45.0
3836,72.0,0,160,1.0,45.0
3837,60.0,192,48,3.0,45.0
3838,45.0,0,48,4.0,45.0
3839,65.0,0,48,2.0,45.0
3840,72.0,0,160,1.0,45.0
3841,58.0,192,160,2.0,45.0
3842,55.0,0,192,3.0,45.0
3843,36.0,0,192,4.0,45.0
3844,76.0,0,192,1.0,45.0
3845,77.0,192,160,1.0,43.0
3846,38.0,0,160,4.0,43.0
3847,53.0,0,160,3.0,43.0
3848,70.0,0,160,2.0,43.0
3849,40.0,192,48,4.0,41.0
3850,79.0,0,48,1.0,41.0
3851,52.0,0,48,3.0,41.0
3852,70.0,0,160,2.0,41.0
3853,69.0,0,48,2.0,39.0
3854,41.0,192,48,4.0,39.0
3855,57.0,0,48,3.0,39.0
3856,72.0,0,160,1.0,39.0
3857,43.0,0,48,4.0,36.0
3858,67.0,0,48,2.0,36.0
3859,58.0,0,48,3.0,36.0
3860,72.0,192,160,1.0,36.0
3861,65.0,0,48,2.0,33.0
3862,45.0,0,48,4.0,33.0
3863,60.0,0,48,3.0,33.0
3864,72.0,192,160,1.0,33.0
3865,58.0,0,160,2.0,30.0
3866,36.0,0,192,4.0,30.0
3867,55.0,0,192,3.0,30.0
3868,76.0,192,192,1.0,30.0
3869,38.0,192,160,4.0,30.0
3870,70.0,0,160,2.0,30.0
3871,77.0,0,160,1.0,30.0
3872,53.0,0,160,3.0,30.0
3873,79.0,0,48,1.0,30.0
3874,40.0,192,48,4.0,30.0
3875,52.0,0,48,3.0,30.0
3876,70.0,0,160,2.0,30.0
3877,53.0,192,160,3.0,45.0
3878,69.0,0,160,2.0,45.0
3879,72.0,0,160,1.0,45.0
3880,41.0,0,160,4.0,45.0
3881,48.0,192,336,3.0,127.0
3882,57.0,0,336,2.0,127.0
3883,45.0,0,336,4.0,127.0
3884,41.0,0,336,4.0,127.0
3885,60.0,0,336,3.0,127.0
3886,45.0,0,336,4.0,77.0
3887,57.0,0,336,2.0,77.0
3888,41.0,576,336,4.0,77.0
3889,60.0,0,336,3.0,77.0
3890,48.0,0,336,3.0,77.0
3891,57.0,384,336,2.0,67.0
3892,41.0,0,336,4.0,67.0
3893,45.0,0,336,4.0,67.0
3894,48.0,0,336,3.0,67.0
3895,60.0,0,336,3.0,67.0
3896,41.0,0,160,4.0,56.0
3897,57.0,0,160,2.0,56.0
3898,60.0,0,160,3.0,56.0
3899,48.0,0,160,3.0,56.0
3900,45.0,384,160,4.0,56.0
3901,81.0,384,336,2.0,45.0
3902,72.0,0,336,2.0,45.0
3903,65.0,0,336,4.0,45.0
3904,84.0,0,336,1.0,45.0
3905,69.0,0,336,3.0,45.0
3906,81.0,384,336,2.0,45.0
3907,72.0,0,336,2.0,45.0
3908,65.0,0,336,4.0,45.0
3909,84.0,0,336,1.0,45.0
3910,69.0,0,336,3.0,45.0
3911,69.0,0,160,3.0,38.0
3912,65.0,0,160,4.0,38.0
3913,81.0,384,160,2.0,38.0
3914,84.0,0,160,1.0,38.0
3915,72.0,0,160,2.0,38.0
3916,84.0,0,336,1.0,30.0
3917,72.0,0,336,2.0,30.0
3918,81.0,0,336,2.0,30.0
3919,65.0,384,336,4.0,30.0
3920,69.0,0,336,3.0,30.0
3921,69.0,0,160,3.0,92.0
3922,72.0,0,160,2.0,92.0
3923,81.0,0,160,2.0,92.0
3924,65.0,0,160,4.0,92.0
3925,84.0,384,160,1.0,92.0
3926,70.0,384,720,1.0,60.0
