,note,step,duration,channel,velocity
0,70.0,0,15,2.0,71.0
1,65.0,0,15,2.0,71.0
2,77.0,0,15,1.0,70.0
3,74.0,0,15,1.0,70.0
4,65.0,1,15,4.0,95.0
5,53.0,0,15,5.0,95.0
6,62.0,0,15,3.0,70.0
7,58.0,1,15,3.0,70.0
8,70.0,28,15,2.0,71.0
9,65.0,0,15,2.0,71.0
10,74.0,0,15,1.0,70.0
11,77.0,0,15,1.0,70.0
12,65.0,0,15,4.0,95.0
13,53.0,1,15,5.0,95.0
14,58.0,1,15,3.0,70.0
15,62.0,0,15,3.0,70.0
16,77.0,0,15,1.0,70.0
17,70.0,28,15,2.0,71.0
18,65.0,0,15,2.0,71.0
19,74.0,0,15,1.0,70.0
20,53.0,1,15,5.0,95.0
21,65.0,0,15,4.0,95.0
22,62.0,0,15,3.0,70.0
23,58.0,1,15,3.0,70.0
24,70.0,0,15,2.0,71.0
25,74.0,0,15,1.0,70.0
26,77.0,0,15,1.0,70.0
27,65.0,28,15,2.0,71.0
28,65.0,0,15,4.0,95.0
29,53.0,1,15,5.0,95.0
30,58.0,0,15,3.0,70.0
31,62.0,1,15,3.0,70.0
32,74.0,0,15,1.0,70.0
33,65.0,28,15,2.0,71.0
34,70.0,0,15,2.0,71.0
35,77.0,0,15,1.0,70.0
36,65.0,1,15,4.0,95.0
37,53.0,0,15,5.0,95.0
38,62.0,1,15,3.0,70.0
39,58.0,0,15,3.0,70.0
40,70.0,0,15,2.0,71.0
41,65.0,0,15,2.0,71.0
42,77.0,28,15,1.0,70.0
43,74.0,0,15,1.0,70.0
44,65.0,0,15,4.0,95.0
45,53.0,1,15,5.0,95.0
46,62.0,1,15,3.0,70.0
47,58.0,0,15,3.0,70.0
48,65.0,0,15,2.0,71.0
49,77.0,28,15,1.0,70.0
50,74.0,0,15,1.0,70.0
51,70.0,0,15,2.0,71.0
52,65.0,0,15,4.0,95.0
53,53.0,1,15,5.0,95.0
54,58.0,1,15,3.0,70.0
55,62.0,0,15,3.0,70.0
56,76.0,26,7,10.0,127.0
57,77.0,0,15,1.0,70.0
58,74.0,2,15,1.0,70.0
59,65.0,0,15,2.0,71.0
60,70.0,0,15,2.0,71.0
61,65.0,0,15,4.0,95.0
62,53.0,1,15,5.0,95.0
63,58.0,0,15,3.0,70.0
64,62.0,1,15,3.0,70.0
65,79.0,11,7,10.0,127.0
66,77.0,15,15,10.0,127.0
67,77.0,0,15,1.0,70.0
68,65.0,0,15,2.0,71.0
69,74.0,0,15,1.0,70.0
70,70.0,1,15,2.0,71.0
71,53.0,0,15,5.0,95.0
72,65.0,1,15,4.0,95.0
73,62.0,0,15,3.0,70.0
74,58.0,1,15,3.0,70.0
75,76.0,26,7,10.0,127.0
76,65.0,0,15,2.0,71.0
77,70.0,0,15,2.0,71.0
78,77.0,2,15,1.0,70.0
79,74.0,0,15,1.0,70.0
80,53.0,0,15,5.0,95.0
81,65.0,1,15,4.0,95.0
82,58.0,0,15,3.0,70.0
83,62.0,1,15,3.0,70.0
84,79.0,11,7,10.0,127.0
85,58.0,1,60,11.0,37.0
86,77.0,15,15,10.0,127.0
87,65.0,0,15,2.0,71.0
88,70.0,0,15,2.0,71.0
89,74.0,0,15,1.0,70.0
90,77.0,1,15,1.0,70.0
91,53.0,0,15,5.0,95.0
92,65.0,1,15,4.0,95.0
93,62.0,1,15,3.0,70.0
94,58.0,0,15,3.0,70.0
95,76.0,26,7,10.0,127.0
96,65.0,2,15,2.0,71.0
97,77.0,0,15,1.0,70.0
98,74.0,0,15,1.0,70.0
99,70.0,0,15,2.0,71.0
100,65.0,0,15,4.0,95.0
101,53.0,1,15,5.0,95.0
102,58.0,1,15,3.0,70.0
103,62.0,0,15,3.0,70.0
104,79.0,11,7,10.0,127.0
105,62.0,1,60,11.0,37.0
106,77.0,1,15,1.0,70.0
107,74.0,0,15,1.0,70.0
108,65.0,0,15,2.0,71.0
109,70.0,0,15,2.0,71.0
110,53.0,0,15,5.0,95.0
111,65.0,1,15,4.0,95.0
112,58.0,1,15,3.0,70.0
113,62.0,0,15,3.0,70.0
114,70.0,0,15,2.0,71.0
115,65.0,28,15,2.0,71.0
116,77.0,0,15,1.0,70.0
117,74.0,0,15,1.0,70.0
118,53.0,0,15,5.0,95.0
119,65.0,1,15,4.0,95.0
120,58.0,0,15,3.0,70.0
121,62.0,1,15,3.0,70.0
122,65.0,1,60,11.0,37.0
123,70.0,28,15,2.0,71.0
124,74.0,0,15,1.0,70.0
125,77.0,0,15,1.0,70.0
126,65.0,0,15,2.0,71.0
127,65.0,1,15,4.0,95.0
128,53.0,0,15,5.0,95.0
129,58.0,0,15,3.0,70.0
130,62.0,1,15,3.0,70.0
131,77.0,15,90,10.0,127.0
132,70.0,0,15,2.0,71.0
133,74.0,1,15,1.0,70.0
134,65.0,0,15,2.0,71.0
135,77.0,0,15,1.0,70.0
136,53.0,0,15,5.0,95.0
137,65.0,1,15,4.0,95.0
138,62.0,1,15,3.0,70.0
139,58.0,0,15,3.0,70.0
140,74.0,26,26,10.0,127.0
141,70.0,1,30,11.0,37.0
142,74.0,26,15,10.0,127.0
143,77.0,0,15,1.0,70.0
144,65.0,0,15,2.0,71.0
145,72.0,1,15,2.0,71.0
146,75.0,0,15,1.0,70.0
147,65.0,0,15,4.0,95.0
148,53.0,1,15,5.0,95.0
149,60.0,0,15,3.0,70.0
150,63.0,1,15,3.0,70.0
151,72.0,11,10,10.0,127.0
152,72.0,15,7,10.0,127.0
153,77.0,0,15,1.0,70.0
154,69.0,2,15,2.0,71.0
155,65.0,0,15,2.0,71.0
156,72.0,0,15,1.0,70.0
157,53.0,1,15,5.0,95.0
158,65.0,0,15,4.0,95.0
159,60.0,0,15,3.0,70.0
160,57.0,1,15,3.0,70.0
161,74.0,11,7,10.0,127.0
162,69.0,1,60,11.0,37.0
163,75.0,15,15,10.0,127.0
164,77.0,1,15,1.0,70.0
165,69.0,0,15,2.0,71.0
166,65.0,0,15,2.0,71.0
167,72.0,0,15,1.0,70.0
168,53.0,0,15,5.0,95.0
169,65.0,1,15,4.0,95.0
170,57.0,0,15,3.0,70.0
171,60.0,1,15,3.0,70.0
172,72.0,26,7,10.0,127.0
173,65.0,0,15,2.0,71.0
174,69.0,2,15,2.0,71.0
175,77.0,0,15,1.0,70.0
176,72.0,0,15,1.0,70.0
177,53.0,1,15,5.0,95.0
178,65.0,0,15,4.0,95.0
179,57.0,1,15,3.0,70.0
180,60.0,0,15,3.0,70.0
181,74.0,11,7,10.0,127.0
182,60.0,0,0,11.0,37.0
183,63.0,1,0,11.0,37.0
184,53.0,0,60,12.0,37.0
185,70.0,0,15,2.0,71.0
186,65.0,0,15,2.0,71.0
187,77.0,0,15,1.0,70.0
188,74.0,0,15,1.0,70.0
189,53.0,0,15,5.0,95.0
190,65.0,0,15,4.0,95.0
191,58.0,0,15,3.0,70.0
192,62.0,1,15,3.0,70.0
193,46.0,1,30,13.0,112.0
194,34.0,0,30,14.0,112.0
195,77.0,0,15,1.0,70.0
196,65.0,28,15,2.0,71.0
197,70.0,0,15,2.0,71.0
198,74.0,0,15,1.0,70.0
199,53.0,0,15,5.0,95.0
200,65.0,1,15,4.0,95.0
201,62.0,1,15,3.0,70.0
202,58.0,0,15,3.0,70.0
203,70.0,15,60,10.0,127.0
204,53.0,1,60,12.0,37.0
205,65.0,28,15,2.0,71.0
206,70.0,0,15,2.0,71.0
207,74.0,0,15,1.0,70.0
208,77.0,0,15,1.0,70.0
209,65.0,0,15,4.0,95.0
210,53.0,1,15,5.0,95.0
211,62.0,0,15,3.0,70.0
212,58.0,1,15,3.0,70.0
213,46.0,0,5,13.0,112.0
214,34.0,1,5,14.0,112.0
215,74.0,28,15,1.0,70.0
216,65.0,0,15,2.0,71.0
217,77.0,0,15,1.0,70.0
218,70.0,0,15,2.0,71.0
219,53.0,1,15,5.0,95.0
220,65.0,0,15,4.0,95.0
221,58.0,0,15,3.0,70.0
222,62.0,0,15,3.0,70.0
223,48.0,14,5,13.0,112.0
224,36.0,1,5,14.0,112.0
225,50.0,1,10,13.0,112.0
226,38.0,0,10,14.0,112.0
227,77.0,0,15,1.0,70.0
228,65.0,0,15,2.0,71.0
229,70.0,13,15,2.0,71.0
230,74.0,0,15,1.0,70.0
231,65.0,0,15,4.0,95.0
232,53.0,0,15,5.0,95.0
233,62.0,0,15,3.0,70.0
234,58.0,1,15,3.0,70.0
235,50.0,0,5,13.0,112.0
236,38.0,0,5,14.0,112.0
237,70.0,0,15,2.0,71.0
238,65.0,28,15,2.0,71.0
239,74.0,0,15,1.0,70.0
240,77.0,0,15,1.0,70.0
241,65.0,0,15,4.0,95.0
242,53.0,1,15,5.0,95.0
243,62.0,1,15,3.0,70.0
244,58.0,0,15,3.0,70.0
245,51.0,14,5,13.0,112.0
246,39.0,1,5,14.0,112.0
247,53.0,0,10,13.0,112.0
248,41.0,0,10,14.0,112.0
249,70.0,0,15,2.0,71.0
250,65.0,0,15,2.0,71.0
251,77.0,0,15,1.0,70.0
252,74.0,13,15,1.0,70.0
253,65.0,0,15,4.0,95.0
254,53.0,1,15,5.0,95.0
255,62.0,1,15,3.0,70.0
256,58.0,0,15,3.0,70.0
257,54.0,0,5,13.0,112.0
258,42.0,0,5,14.0,112.0
259,74.0,0,15,1.0,70.0
260,78.0,0,15,1.0,70.0
261,66.0,28,15,2.0,71.0
262,70.0,0,15,2.0,71.0
263,50.0,0,15,5.0,95.0
264,62.0,1,15,4.0,95.0
265,55.0,0,15,3.0,70.0
266,58.0,1,15,3.0,70.0
267,50.0,14,5,13.0,112.0
268,38.0,1,5,14.0,112.0
269,74.0,0,15,1.0,70.0
270,79.0,0,15,1.0,70.0
271,67.0,13,15,2.0,71.0
272,70.0,0,15,2.0,71.0
273,50.0,1,15,5.0,95.0
274,62.0,0,15,4.0,95.0
275,58.0,0,15,3.0,70.0
276,55.0,0,15,3.0,70.0
277,67.0,28,15,2.0,71.0
278,79.0,0,15,1.0,70.0
279,70.0,0,15,2.0,71.0
280,74.0,0,15,1.0,70.0
281,50.0,1,15,5.0,95.0
282,62.0,0,15,4.0,95.0
283,55.0,0,15,3.0,70.0
284,58.0,1,15,3.0,70.0
285,55.0,0,60,13.0,112.0
286,43.0,1,60,14.0,112.0
287,70.0,0,15,2.0,71.0
288,74.0,0,15,1.0,70.0
289,79.0,0,15,1.0,70.0
290,67.0,28,15,2.0,71.0
291,62.0,0,15,4.0,95.0
292,50.0,1,15,5.0,95.0
293,55.0,1,15,3.0,70.0
294,58.0,0,15,3.0,70.0
295,67.0,0,15,2.0,71.0
296,70.0,0,15,2.0,71.0
297,79.0,0,15,1.0,70.0
298,74.0,28,15,1.0,70.0
299,50.0,0,15,5.0,95.0
300,62.0,1,15,4.0,95.0
301,55.0,1,15,3.0,70.0
302,58.0,0,15,3.0,70.0
303,74.0,0,15,1.0,70.0
304,67.0,0,15,2.0,71.0
305,70.0,28,15,2.0,71.0
306,79.0,0,15,1.0,70.0
307,50.0,0,15,5.0,95.0
308,62.0,1,15,4.0,95.0
309,58.0,1,15,3.0,70.0
310,55.0,0,15,3.0,70.0
311,70.0,0,15,2.0,71.0
312,79.0,0,15,1.0,70.0
313,74.0,28,15,1.0,70.0
314,67.0,0,15,2.0,71.0
315,50.0,1,15,5.0,95.0
316,62.0,0,15,4.0,95.0
317,58.0,0,15,3.0,70.0
318,55.0,1,15,3.0,70.0
319,79.0,0,15,1.0,70.0
320,70.0,0,15,2.0,71.0
321,67.0,0,15,2.0,71.0
322,74.0,28,15,1.0,70.0
323,62.0,1,15,4.0,95.0
324,50.0,0,15,5.0,95.0
325,55.0,1,15,3.0,70.0
326,58.0,0,15,3.0,70.0
327,73.0,26,7,10.0,127.0
328,67.0,0,15,2.0,71.0
329,79.0,0,15,1.0,70.0
330,74.0,2,15,1.0,70.0
331,70.0,0,15,2.0,71.0
332,50.0,1,15,5.0,95.0
333,62.0,0,15,4.0,95.0
334,55.0,0,15,3.0,70.0
335,58.0,1,15,3.0,70.0
336,75.0,11,7,10.0,127.0
337,74.0,15,15,10.0,127.0
338,79.0,0,15,1.0,70.0
339,67.0,1,15,2.0,71.0
340,70.0,0,15,2.0,71.0
341,74.0,0,15,1.0,70.0
342,62.0,0,15,4.0,95.0
343,50.0,1,15,5.0,95.0
344,55.0,1,15,3.0,70.0
345,58.0,0,15,3.0,70.0
346,73.0,26,7,10.0,127.0
347,74.0,0,15,1.0,70.0
348,70.0,0,15,2.0,71.0
349,79.0,2,15,1.0,70.0
350,67.0,0,15,2.0,71.0
351,50.0,1,15,5.0,95.0
352,62.0,0,15,4.0,95.0
353,55.0,1,15,3.0,70.0
354,58.0,0,15,3.0,70.0
355,75.0,11,7,10.0,127.0
356,58.0,1,60,11.0,37.0
357,55.0,0,60,12.0,37.0
358,74.0,15,15,10.0,127.0
359,74.0,0,15,1.0,70.0
360,79.0,0,15,1.0,70.0
361,70.0,1,15,2.0,71.0
362,67.0,0,15,2.0,71.0
363,50.0,1,15,5.0,95.0
364,62.0,0,15,4.0,95.0
365,58.0,0,15,3.0,70.0
366,55.0,1,15,3.0,70.0
367,73.0,26,7,10.0,127.0
368,70.0,0,15,2.0,71.0
369,79.0,2,15,1.0,70.0
370,74.0,0,15,1.0,70.0
371,67.0,0,15,2.0,71.0
372,50.0,1,15,5.0,95.0
373,62.0,0,15,4.0,95.0
374,58.0,0,15,3.0,70.0
375,55.0,1,15,3.0,70.0
376,75.0,11,7,10.0,127.0
377,62.0,1,60,11.0,37.0
378,58.0,0,0,12.0,37.0
379,70.0,0,15,2.0,71.0
380,79.0,1,15,1.0,70.0
381,74.0,0,15,1.0,70.0
382,67.0,0,15,2.0,71.0
383,62.0,1,15,4.0,95.0
384,50.0,0,15,5.0,95.0
385,55.0,0,15,3.0,70.0
386,58.0,1,15,3.0,70.0
387,79.0,0,15,1.0,70.0
388,74.0,0,15,1.0,70.0
389,67.0,28,15,2.0,71.0
390,70.0,0,15,2.0,71.0
391,62.0,1,15,4.0,95.0
392,50.0,0,15,5.0,95.0
393,58.0,1,15,3.0,70.0
394,55.0,0,15,3.0,70.0
395,67.0,1,60,11.0,37.0
396,70.0,0,15,2.0,71.0
397,67.0,0,15,2.0,71.0
398,74.0,0,15,1.0,70.0
399,79.0,28,15,1.0,70.0
400,62.0,1,15,4.0,95.0
401,50.0,0,15,5.0,95.0
402,58.0,1,15,3.0,70.0
403,55.0,0,15,3.0,70.0
404,74.0,15,90,10.0,127.0
405,70.0,0,15,2.0,71.0
406,79.0,0,15,1.0,70.0
407,74.0,0,15,1.0,70.0
408,67.0,0,15,2.0,71.0
409,62.0,1,15,4.0,95.0
410,50.0,0,15,5.0,95.0
411,55.0,0,15,3.0,70.0
412,58.0,1,15,3.0,70.0
413,82.0,26,25,10.0,127.0
414,70.0,1,30,11.0,37.0
415,67.0,1,30,12.0,37.0
416,82.0,26,15,10.0,127.0
417,74.0,0,15,1.0,70.0
418,66.0,0,15,2.0,71.0
419,69.0,0,15,2.0,71.0
420,78.0,0,15,1.0,70.0
421,62.0,1,15,4.0,95.0
422,50.0,0,15,5.0,95.0
423,60.0,1,15,3.0,70.0
424,57.0,0,15,3.0,70.0
425,81.0,11,12,10.0,127.0
426,81.0,15,7,10.0,127.0
427,74.0,0,15,1.0,70.0
428,69.0,2,15,2.0,71.0
429,78.0,0,15,1.0,70.0
430,66.0,0,15,2.0,71.0
431,62.0,1,15,4.0,95.0
432,50.0,0,15,5.0,95.0
433,60.0,1,15,3.0,70.0
434,57.0,0,15,3.0,70.0
435,82.0,11,7,10.0,127.0
436,69.0,1,60,11.0,37.0
437,66.0,1,60,12.0,37.0
438,84.0,15,15,10.0,127.0
439,78.0,0,15,1.0,70.0
440,74.0,0,15,1.0,70.0
441,66.0,0,15,2.0,71.0
442,69.0,0,15,2.0,71.0
443,62.0,1,15,4.0,95.0
444,50.0,0,15,5.0,95.0
445,57.0,1,15,3.0,70.0
446,54.0,0,15,3.0,70.0
447,81.0,26,7,10.0,127.0
448,78.0,0,15,1.0,70.0
449,74.0,2,15,1.0,70.0
450,66.0,0,15,2.0,71.0
451,69.0,0,15,2.0,71.0
452,50.0,0,15,5.0,95.0
453,62.0,1,15,4.0,95.0
454,54.0,0,15,3.0,70.0
455,57.0,1,15,3.0,70.0
456,82.0,11,7,10.0,127.0
457,69.0,1,60,11.0,37.0
458,60.0,1,60,12.0,37.0
459,79.0,0,15,1.0,70.0
460,74.0,0,15,1.0,70.0
461,67.0,0,15,2.0,71.0
462,70.0,1,15,2.0,71.0
463,50.0,1,15,5.0,95.0
464,62.0,0,15,4.0,95.0
465,55.0,0,15,3.0,70.0
466,58.0,0,15,3.0,70.0
467,43.0,0,30,13.0,112.0
468,31.0,1,30,14.0,112.0
469,67.0,0,15,2.0,71.0
470,74.0,28,15,1.0,70.0
471,79.0,0,15,1.0,70.0
472,70.0,0,15,2.0,71.0
473,62.0,0,15,4.0,95.0
474,50.0,1,15,5.0,95.0
475,55.0,1,15,3.0,70.0
476,58.0,0,15,3.0,70.0
477,79.0,15,60,10.0,127.0
478,67.0,1,60,11.0,37.0
479,58.0,0,60,12.0,37.0
480,70.0,0,15,2.0,71.0
481,79.0,0,15,1.0,70.0
482,67.0,28,15,2.0,71.0
483,74.0,0,15,1.0,70.0
484,62.0,0,15,4.0,95.0
485,50.0,1,15,5.0,95.0
486,58.0,1,15,3.0,70.0
487,55.0,0,15,3.0,70.0
488,43.0,0,7,13.0,112.0
489,31.0,0,7,14.0,112.0
490,67.0,0,15,2.0,71.0
491,70.0,28,15,2.0,71.0
492,79.0,0,15,1.0,70.0
493,74.0,0,15,1.0,70.0
494,50.0,0,15,5.0,95.0
495,62.0,1,15,4.0,95.0
496,55.0,1,15,3.0,70.0
497,58.0,0,15,3.0,70.0
498,45.0,14,7,13.0,112.0
499,33.0,1,7,14.0,112.0
500,74.0,0,15,1.0,70.0
501,79.0,0,15,1.0,70.0
502,70.0,0,15,2.0,71.0
503,67.0,13,15,2.0,71.0
504,50.0,1,15,5.0,95.0
505,62.0,0,15,4.0,95.0
506,46.0,0,15,13.0,112.0
507,34.0,1,15,14.0,112.0
508,58.0,0,15,3.0,70.0
509,55.0,0,15,3.0,70.0
510,48.0,0,7,13.0,112.0
511,36.0,1,7,14.0,112.0
512,79.0,0,15,1.0,70.0
513,74.0,0,15,1.0,70.0
514,67.0,28,15,2.0,71.0
515,70.0,0,15,2.0,71.0
516,62.0,1,15,4.0,95.0
517,50.0,0,15,5.0,95.0
518,55.0,0,15,3.0,70.0
519,58.0,0,15,3.0,70.0
520,50.0,14,7,13.0,112.0
521,38.0,1,7,14.0,112.0
522,70.0,0,15,2.0,71.0
523,74.0,0,15,1.0,70.0
524,79.0,0,15,1.0,70.0
525,67.0,13,15,2.0,71.0
526,50.0,0,15,13.0,112.0
527,50.0,0,15,5.0,95.0
528,62.0,1,15,4.0,95.0
529,38.0,1,15,14.0,112.0
530,58.0,0,15,3.0,70.0
531,55.0,0,15,3.0,70.0
532,50.0,1,7,13.0,112.0
533,38.0,0,7,14.0,112.0
534,67.0,0,15,2.0,71.0
535,70.0,0,15,2.0,71.0
536,79.0,28,15,1.0,70.0
537,74.0,0,15,1.0,70.0
538,58.0,0,15,5.0,95.0
539,62.0,0,15,4.0,95.0
540,55.0,0,15,3.0,70.0
541,58.0,1,15,3.0,70.0
542,46.0,14,7,13.0,112.0
543,34.0,1,7,14.0,112.0
544,67.0,0,15,2.0,71.0
545,75.0,0,15,1.0,70.0
546,79.0,13,15,1.0,70.0
547,70.0,0,15,2.0,71.0
548,58.0,1,15,5.0,95.0
549,63.0,0,15,4.0,95.0
550,55.0,1,15,3.0,70.0
551,51.0,0,15,3.0,70.0
552,79.0,28,15,1.0,70.0
553,75.0,0,15,1.0,70.0
554,70.0,0,15,2.0,71.0
555,67.0,0,15,2.0,71.0
556,63.0,0,15,4.0,95.0
557,58.0,1,15,5.0,95.0
558,55.0,1,15,3.0,70.0
559,51.0,0,15,3.0,70.0
560,51.0,0,60,13.0,112.0
561,39.0,0,60,14.0,112.0
562,70.0,0,15,2.0,71.0
563,79.0,0,15,1.0,70.0
564,75.0,28,15,1.0,70.0
565,67.0,0,15,2.0,71.0
566,58.0,0,15,5.0,95.0
567,63.0,1,15,4.0,95.0
568,51.0,1,15,3.0,70.0
569,55.0,0,15,3.0,70.0
570,70.0,0,15,2.0,71.0
571,75.0,0,15,1.0,70.0
572,79.0,0,15,1.0,70.0
573,67.0,28,15,2.0,71.0
574,58.0,1,15,5.0,95.0
575,63.0,0,15,4.0,95.0
576,51.0,1,15,3.0,70.0
577,55.0,0,15,3.0,70.0
578,75.0,0,15,1.0,70.0
579,79.0,28,15,1.0,70.0
580,70.0,0,15,2.0,71.0
581,67.0,0,15,2.0,71.0
582,63.0,1,15,4.0,95.0
583,58.0,0,15,5.0,95.0
584,55.0,1,15,3.0,70.0
585,51.0,0,15,3.0,70.0
586,67.0,0,15,2.0,71.0
587,75.0,0,15,1.0,70.0
588,79.0,28,15,1.0,70.0
589,70.0,0,15,2.0,71.0
590,58.0,0,15,5.0,95.0
591,63.0,1,15,4.0,95.0
592,51.0,1,15,3.0,70.0
593,55.0,0,15,3.0,70.0
594,70.0,0,15,2.0,71.0
595,67.0,0,15,2.0,71.0
596,75.0,0,15,1.0,70.0
597,79.0,28,15,1.0,70.0
598,63.0,1,15,4.0,95.0
599,58.0,0,15,5.0,95.0
600,51.0,0,15,3.0,70.0
601,55.0,1,15,3.0,70.0
602,81.0,26,7,10.0,112.0
603,79.0,0,15,1.0,70.0
604,75.0,0,15,1.0,70.0
605,70.0,2,15,2.0,71.0
606,67.0,0,15,2.0,71.0
607,58.0,1,15,5.0,95.0
608,63.0,0,15,4.0,95.0
609,55.0,0,15,3.0,70.0
610,51.0,1,15,3.0,70.0
611,84.0,11,7,10.0,112.0
612,82.0,15,15,10.0,112.0
613,67.0,0,15,2.0,71.0
614,70.0,0,15,2.0,71.0
615,75.0,1,15,1.0,70.0
616,79.0,0,15,1.0,70.0
617,58.0,0,15,5.0,95.0
618,63.0,1,15,4.0,95.0
619,51.0,1,15,3.0,70.0
620,55.0,0,15,3.0,70.0
621,70.0,1,30,11.0,112.0
622,67.0,0,30,12.0,112.0
623,81.0,26,7,10.0,112.0
624,79.0,2,15,1.0,70.0
625,70.0,0,15,2.0,71.0
626,75.0,0,15,1.0,70.0
627,67.0,0,15,2.0,71.0
628,63.0,0,15,4.0,95.0
629,58.0,1,15,5.0,95.0
630,55.0,0,15,3.0,70.0
631,51.0,1,15,3.0,70.0
632,84.0,11,7,10.0,112.0
633,82.0,15,15,10.0,112.0
634,67.0,0,15,2.0,71.0
635,70.0,0,15,2.0,71.0
636,75.0,0,15,1.0,70.0
637,79.0,1,15,1.0,70.0
638,58.0,0,15,5.0,95.0
639,63.0,1,15,4.0,95.0
640,55.0,1,15,3.0,70.0
641,51.0,0,15,3.0,70.0
642,70.0,1,30,11.0,112.0
643,67.0,0,30,12.0,112.0
644,81.0,26,7,10.0,112.0
645,81.0,0,7,0.0,91.0
646,69.0,1,7,11.0,112.0
647,57.0,0,7,12.0,112.0
648,84.0,11,7,10.0,112.0
649,84.0,0,7,0.0,91.0
650,72.0,1,7,11.0,112.0
651,60.0,1,7,12.0,112.0
652,87.0,13,46,10.0,112.0
653,87.0,1,46,0.0,91.0
654,75.0,0,46,11.0,112.0
655,63.0,1,46,12.0,112.0
656,53.0,1,96,5.0,95.0
657,65.0,0,96,4.0,95.0
658,69.0,0,107,2.0,91.0
659,81.0,0,107,1.0,90.0
660,75.0,1,107,1.0,90.0
661,41.0,0,107,13.0,112.0
662,53.0,1,107,3.0,90.0
663,57.0,0,107,3.0,90.0
664,29.0,0,107,14.0,112.0
665,84.0,88,7,10.0,112.0
666,72.0,0,7,11.0,112.0
667,84.0,1,7,0.0,91.0
668,60.0,0,7,12.0,112.0
669,72.0,1,15,2.0,91.0
670,75.0,0,15,1.0,90.0
671,81.0,0,15,1.0,90.0
672,69.0,0,15,2.0,91.0
673,65.0,1,15,4.0,95.0
674,53.0,0,15,5.0,95.0
675,60.0,0,15,3.0,90.0
676,63.0,1,15,3.0,90.0
677,82.0,11,7,10.0,112.0
678,70.0,1,7,11.0,112.0
679,82.0,0,7,0.0,91.0
680,58.0,1,7,12.0,112.0
681,41.0,0,26,13.0,112.0
682,29.0,0,26,14.0,112.0
683,81.0,13,15,10.0,112.0
684,69.0,0,15,11.0,112.0
685,81.0,1,15,0.0,91.0
686,75.0,1,15,1.0,90.0
687,57.0,0,15,12.0,112.0
688,81.0,0,15,1.0,90.0
689,72.0,0,15,2.0,91.0
690,69.0,0,15,2.0,91.0
691,53.0,1,15,5.0,95.0
692,41.0,0,15,13.0,112.0
693,65.0,0,15,4.0,95.0
694,29.0,1,15,14.0,112.0
695,60.0,0,15,3.0,90.0
696,63.0,0,15,3.0,90.0
697,82.0,26,7,10.0,112.0
698,70.0,1,7,11.0,112.0
699,82.0,0,7,0.0,91.0
700,58.0,0,7,12.0,112.0
701,81.0,0,15,1.0,90.0
702,69.0,1,15,2.0,91.0
703,77.0,0,15,1.0,90.0
704,72.0,0,15,2.0,91.0
705,65.0,1,15,4.0,95.0
706,41.0,0,15,13.0,112.0
707,53.0,0,15,5.0,95.0
708,57.0,0,15,3.0,90.0
709,60.0,1,15,3.0,90.0
710,29.0,0,15,14.0,112.0
711,84.0,11,7,10.0,112.0
712,84.0,1,7,0.0,91.0
713,72.0,0,7,11.0,112.0
714,60.0,1,7,12.0,112.0
715,77.0,13,15,10.0,112.0
716,65.0,0,15,11.0,112.0
717,77.0,1,15,0.0,91.0
718,81.0,0,15,1.0,90.0
719,69.0,0,15,2.0,91.0
720,53.0,0,15,12.0,112.0
721,72.0,0,15,2.0,91.0
722,77.0,1,15,1.0,90.0
723,65.0,0,15,4.0,95.0
724,53.0,0,15,5.0,95.0
725,41.0,1,15,13.0,112.0
726,60.0,0,15,3.0,90.0
727,29.0,1,15,14.0,112.0
728,57.0,0,15,3.0,90.0
729,79.0,26,7,10.0,112.0
730,67.0,0,7,11.0,112.0
731,79.0,1,7,0.0,91.0
732,55.0,1,7,12.0,112.0
733,77.0,0,15,1.0,90.0
734,72.0,0,15,2.0,91.0
735,69.0,0,15,2.0,91.0
736,81.0,0,15,1.0,90.0
737,53.0,0,15,5.0,95.0
738,41.0,1,15,13.0,112.0
739,65.0,0,15,4.0,95.0
740,29.0,0,15,14.0,112.0
741,60.0,1,15,3.0,90.0
742,57.0,0,15,3.0,90.0
743,81.0,11,7,10.0,112.0
744,69.0,0,7,11.0,112.0
745,81.0,1,7,0.0,91.0
746,57.0,1,7,12.0,112.0
747,82.0,0,15,1.0,90.0
748,70.0,0,15,2.0,91.0
749,74.0,1,15,2.0,91.0
750,77.0,0,15,1.0,90.0
751,53.0,1,15,5.0,95.0
752,65.0,0,15,4.0,95.0
753,58.0,0,15,3.0,90.0
754,62.0,1,15,3.0,90.0
755,46.0,0,30,13.0,112.0
756,34.0,0,30,14.0,112.0
757,53.0,1,7,13.0,112.0
758,41.0,0,7,14.0,112.0
759,70.0,28,15,2.0,91.0
760,65.0,0,15,2.0,91.0
761,77.0,0,15,1.0,90.0
762,74.0,0,15,1.0,90.0
763,65.0,0,15,4.0,95.0
764,53.0,0,15,5.0,95.0
765,58.0,1,15,3.0,90.0
766,62.0,0,15,3.0,90.0
767,55.0,14,7,13.0,112.0
768,43.0,1,7,14.0,112.0
769,82.0,13,60,10.0,112.0
770,70.0,0,60,11.0,112.0
771,82.0,1,60,0.0,91.0
772,58.0,0,60,12.0,112.0
773,74.0,0,15,1.0,90.0
774,77.0,0,15,1.0,90.0
775,65.0,0,15,2.0,91.0
776,70.0,13,15,2.0,91.0
777,53.0,1,15,5.0,95.0
778,65.0,0,15,4.0,95.0
779,46.0,0,15,13.0,112.0
780,34.0,0,15,14.0,112.0
781,58.0,0,15,3.0,90.0
782,62.0,1,15,3.0,90.0
783,77.0,26,7,10.0,112.0
784,65.0,0,15,2.0,91.0
785,70.0,2,15,2.0,91.0
786,74.0,0,15,1.0,90.0
787,77.0,0,15,1.0,90.0
788,65.0,0,15,4.0,95.0
789,53.0,1,15,5.0,95.0
790,62.0,0,15,3.0,90.0
791,58.0,1,15,3.0,90.0
792,79.0,11,7,10.0,112.0
793,75.0,0,15,1.0,90.0
794,65.0,2,15,2.0,91.0
795,72.0,0,15,2.0,91.0
796,77.0,0,15,1.0,90.0
797,53.0,1,15,5.0,95.0
798,65.0,0,15,4.0,95.0
799,57.0,1,15,3.0,90.0
800,60.0,0,15,3.0,90.0
801,72.0,15,30,10.0,112.0
802,45.0,1,7,13.0,112.0
803,33.0,0,7,14.0,112.0
804,72.0,0,15,2.0,91.0
805,65.0,0,15,2.0,91.0
806,77.0,0,15,1.0,90.0
807,75.0,1,15,1.0,90.0
808,65.0,0,15,4.0,95.0
809,53.0,0,15,5.0,95.0
810,57.0,0,15,3.0,90.0
811,60.0,1,15,3.0,90.0
812,48.0,14,7,13.0,112.0
813,36.0,1,7,14.0,112.0
814,63.0,27,30,11.0,92.0
815,60.0,0,30,11.0,92.0
816,53.0,0,30,12.0,92.0
817,77.0,0,15,1.0,90.0
818,72.0,0,15,2.0,91.0
819,75.0,13,15,1.0,90.0
820,65.0,0,15,2.0,91.0
821,65.0,0,15,4.0,95.0
822,41.0,1,15,13.0,112.0
823,53.0,0,15,5.0,95.0
824,57.0,1,15,3.0,90.0
825,60.0,0,15,3.0,90.0
826,29.0,0,15,14.0,112.0
827,75.0,26,7,10.0,112.0
828,65.0,0,15,2.0,91.0
829,75.0,2,15,1.0,90.0
830,77.0,0,15,1.0,90.0
831,72.0,0,15,2.0,91.0
832,65.0,0,15,4.0,95.0
833,53.0,1,15,5.0,95.0
834,60.0,0,15,3.0,90.0
835,57.0,1,15,3.0,90.0
836,77.0,11,7,10.0,112.0
837,77.0,0,15,1.0,90.0
838,65.0,2,15,2.0,91.0
839,70.0,0,15,2.0,91.0
840,74.0,0,15,1.0,90.0
841,53.0,0,15,5.0,95.0
842,65.0,1,15,4.0,95.0
843,62.0,0,15,3.0,90.0
844,58.0,1,15,3.0,90.0
845,74.0,15,30,10.0,112.0
846,46.0,1,7,13.0,112.0
847,34.0,0,7,14.0,112.0
848,65.0,0,15,2.0,91.0
849,70.0,0,15,2.0,91.0
850,74.0,0,15,1.0,90.0
851,77.0,0,15,1.0,90.0
852,65.0,0,15,4.0,95.0
853,53.0,0,15,5.0,95.0
854,62.0,1,15,3.0,90.0
855,58.0,0,15,3.0,90.0
856,50.0,14,7,13.0,112.0
857,38.0,1,7,14.0,112.0
858,62.0,27,30,11.0,92.0
859,58.0,0,30,11.0,92.0
860,53.0,1,30,12.0,92.0
861,65.0,13,15,2.0,91.0
862,70.0,0,15,2.0,91.0
863,77.0,0,15,1.0,90.0
864,74.0,0,15,1.0,90.0
865,65.0,1,15,4.0,95.0
866,53.0,0,15,5.0,95.0
867,41.0,0,15,13.0,112.0
868,29.0,1,15,14.0,112.0
869,62.0,0,15,3.0,90.0
870,58.0,0,15,3.0,90.0
871,74.0,26,7,10.0,112.0
872,65.0,2,15,2.0,91.0
873,70.0,0,15,2.0,91.0
874,77.0,0,15,1.0,90.0
875,74.0,0,15,1.0,90.0
876,65.0,1,15,4.0,95.0
877,53.0,0,15,5.0,95.0
878,58.0,1,15,3.0,90.0
879,62.0,0,15,3.0,90.0
880,75.0,11,7,10.0,112.0
881,72.0,15,15,10.0,112.0
882,69.0,0,15,2.0,91.0
883,65.0,0,15,2.0,91.0
884,77.0,0,15,1.0,90.0
885,72.0,2,15,1.0,90.0
886,65.0,1,15,4.0,95.0
887,53.0,0,15,5.0,95.0
888,57.0,0,15,3.0,90.0
889,60.0,1,15,3.0,90.0
890,72.0,26,7,10.0,112.0
891,72.0,1,15,1.0,90.0
892,77.0,0,15,1.0,90.0
893,65.0,0,15,2.0,91.0
894,69.0,0,15,2.0,91.0
895,65.0,0,15,4.0,95.0
896,53.0,1,15,5.0,95.0
897,60.0,0,15,3.0,90.0
898,57.0,0,15,3.0,90.0
899,74.0,11,7,10.0,112.0
900,53.0,0,22,13.0,112.0
901,41.0,1,22,14.0,112.0
902,63.0,1,30,11.0,92.0
903,60.0,0,30,11.0,92.0
904,53.0,0,30,12.0,92.0
905,72.0,15,15,10.0,112.0
906,69.0,2,15,2.0,91.0
907,65.0,0,15,2.0,91.0
908,77.0,0,15,1.0,90.0
909,72.0,0,15,1.0,90.0
910,53.0,1,15,5.0,95.0
911,65.0,0,15,4.0,95.0
912,60.0,1,15,3.0,90.0
913,57.0,0,15,3.0,90.0
914,41.0,0,22,13.0,112.0
915,29.0,0,22,14.0,112.0
916,72.0,26,7,10.0,112.0
917,69.0,0,15,2.0,91.0
918,65.0,0,15,2.0,91.0
919,72.0,0,15,1.0,90.0
920,77.0,0,15,1.0,90.0
921,53.0,0,15,5.0,95.0
922,65.0,0,15,4.0,95.0
923,57.0,0,15,3.0,90.0
924,60.0,1,15,3.0,90.0
925,74.0,11,7,10.0,112.0
926,53.0,1,22,13.0,112.0
927,41.0,0,22,14.0,112.0
928,63.0,0,30,11.0,92.0
929,60.0,1,30,11.0,92.0
930,53.0,1,30,12.0,92.0
931,74.0,1,15,1.0,90.0
932,77.0,0,15,1.0,90.0
933,65.0,0,15,2.0,91.0
934,70.0,0,15,2.0,91.0
935,53.0,1,15,5.0,95.0
936,65.0,0,15,4.0,95.0
937,58.0,1,15,3.0,90.0
938,62.0,0,15,3.0,90.0
939,46.0,0,30,13.0,112.0
940,34.0,0,30,14.0,112.0
941,53.0,0,7,13.0,112.0
942,41.0,0,7,14.0,112.0
943,70.0,28,15,2.0,91.0
944,65.0,0,15,2.0,91.0
945,77.0,0,15,1.0,90.0
946,74.0,0,15,1.0,90.0
947,53.0,0,15,5.0,95.0
948,65.0,1,15,4.0,95.0
949,62.0,0,15,3.0,90.0
950,58.0,1,15,3.0,90.0
951,55.0,14,7,13.0,112.0
952,43.0,1,7,14.0,112.0
953,70.0,15,60,10.0,112.0
954,58.0,0,60,11.0,92.0
955,62.0,1,60,11.0,92.0
956,53.0,0,60,12.0,92.0
957,74.0,0,15,1.0,90.0
958,65.0,0,15,2.0,91.0
959,70.0,13,15,2.0,91.0
960,77.0,0,15,1.0,90.0
961,46.0,1,15,13.0,112.0
962,65.0,0,15,4.0,95.0
963,53.0,0,15,5.0,95.0
964,34.0,1,15,14.0,112.0
965,58.0,0,15,3.0,90.0
966,62.0,0,15,3.0,90.0
967,77.0,26,7,10.0,112.0
968,77.0,2,15,1.0,90.0
969,74.0,0,15,1.0,90.0
970,65.0,0,15,2.0,91.0
971,70.0,0,15,2.0,91.0
972,65.0,0,15,4.0,95.0
973,53.0,1,15,5.0,95.0
974,62.0,1,15,3.0,90.0
975,58.0,0,15,3.0,90.0
976,79.0,11,7,10.0,112.0
977,65.0,1,7,11.0,112.0
978,53.0,0,7,12.0,112.0
979,79.0,15,15,10.0,112.0
980,65.0,1,15,2.0,91.0
981,72.0,0,15,2.0,91.0
982,77.0,0,15,1.0,90.0
983,75.0,0,15,1.0,90.0
984,65.0,0,15,4.0,95.0
985,53.0,1,15,5.0,95.0
986,60.0,1,15,3.0,90.0
987,63.0,0,15,3.0,90.0
988,67.0,1,7,11.0,112.0
989,55.0,1,7,12.0,112.0
990,72.0,11,15,10.0,112.0
991,45.0,0,7,13.0,112.0
992,33.0,1,7,14.0,112.0
993,60.0,14,15,11.0,112.0
994,75.0,0,15,1.0,90.0
995,65.0,0,15,2.0,91.0
996,72.0,1,15,2.0,91.0
997,77.0,0,15,1.0,90.0
998,53.0,0,15,12.0,112.0
999,65.0,0,15,4.0,95.0
1000,53.0,1,15,5.0,95.0
1001,60.0,0,15,3.0,90.0
1002,63.0,0,15,3.0,90.0
1003,48.0,14,7,13.0,112.0
1004,36.0,1,7,14.0,112.0
1005,65.0,0,15,2.0,91.0
1006,75.0,13,15,1.0,90.0
1007,77.0,0,15,1.0,90.0
1008,72.0,0,15,2.0,91.0
1009,41.0,0,15,13.0,112.0
1010,53.0,0,15,5.0,95.0
1011,65.0,1,15,4.0,95.0
1012,63.0,1,15,3.0,90.0
1013,60.0,0,15,3.0,90.0
1014,29.0,0,15,14.0,112.0
1015,75.0,26,7,10.0,112.0
1016,77.0,0,15,1.0,90.0
1017,75.0,0,15,1.0,90.0
1018,65.0,0,15,2.0,91.0
1019,72.0,2,15,2.0,91.0
1020,53.0,1,15,5.0,95.0
1021,65.0,0,15,4.0,95.0
1022,63.0,1,15,3.0,90.0
1023,60.0,0,15,3.0,90.0
1024,77.0,11,7,10.0,112.0
1025,65.0,1,7,11.0,112.0
1026,53.0,0,7,12.0,112.0
1027,77.0,15,15,10.0,112.0
1028,65.0,0,15,2.0,91.0
1029,74.0,0,15,1.0,90.0
1030,77.0,0,15,1.0,90.0
1031,70.0,1,15,2.0,91.0
1032,53.0,1,15,5.0,95.0
1033,65.0,0,15,4.0,95.0
1034,62.0,1,15,3.0,90.0
1035,58.0,0,15,3.0,90.0
1036,67.0,1,7,11.0,112.0
1037,55.0,1,7,12.0,112.0
1038,70.0,11,15,10.0,112.0
1039,46.0,0,7,13.0,112.0
1040,34.0,0,7,14.0,112.0
1041,58.0,14,15,11.0,112.0
1042,74.0,0,15,1.0,90.0
1043,77.0,0,15,1.0,90.0
1044,53.0,0,15,12.0,112.0
1045,70.0,1,15,2.0,91.0
1046,65.0,0,15,2.0,91.0
1047,58.0,0,15,4.0,95.0
1048,46.0,1,15,5.0,95.0
1049,62.0,1,15,3.0,90.0
1050,58.0,0,15,3.0,90.0
1051,50.0,14,7,13.0,112.0
1052,38.0,1,7,14.0,112.0
1053,70.0,0,15,2.0,91.0
1054,65.0,0,15,2.0,91.0
1055,74.0,13,15,1.0,90.0
1056,77.0,0,15,1.0,90.0
1057,46.0,1,15,5.0,95.0
1058,58.0,0,15,4.0,95.0
1059,46.0,0,15,13.0,112.0
1060,34.0,0,15,14.0,112.0
1061,58.0,0,15,3.0,90.0
1062,62.0,1,15,3.0,90.0
1063,79.0,26,7,10.0,112.0
1064,67.0,1,7,11.0,112.0
1065,63.0,0,7,12.0,112.0
1066,70.0,0,15,2.0,91.0
1067,75.0,0,15,1.0,90.0
1068,67.0,0,15,2.0,91.0
1069,79.0,1,15,1.0,90.0
1070,58.0,0,15,4.0,95.0
1071,51.0,0,15,13.0,112.0
1072,46.0,1,15,5.0,95.0
1073,63.0,0,15,3.0,90.0
1074,58.0,0,15,3.0,90.0
1075,39.0,1,15,14.0,112.0
1076,81.0,11,7,10.0,112.0
1077,69.0,1,7,11.0,112.0
1078,65.0,1,7,12.0,112.0
1079,77.0,13,15,10.0,112.0
1080,65.0,1,15,11.0,112.0
1081,70.0,0,15,2.0,91.0
1082,74.0,1,15,1.0,90.0
1083,77.0,0,15,1.0,90.0
1084,65.0,0,15,2.0,91.0
1085,62.0,0,15,12.0,112.0
1086,46.0,1,15,13.0,112.0
1087,58.0,0,15,4.0,95.0
1088,46.0,0,15,5.0,95.0
1089,62.0,1,15,3.0,90.0
1090,58.0,0,15,3.0,90.0
1091,34.0,0,15,14.0,112.0
1092,79.0,26,7,10.0,112.0
1093,67.0,1,7,11.0,112.0
1094,63.0,0,7,12.0,112.0
1095,70.0,0,15,2.0,91.0
1096,67.0,1,15,2.0,91.0
1097,79.0,0,15,1.0,90.0
1098,75.0,0,15,1.0,90.0
1099,58.0,0,15,4.0,95.0
1100,51.0,0,15,13.0,112.0
1101,46.0,1,15,5.0,95.0
1102,63.0,0,15,3.0,90.0
1103,39.0,1,15,14.0,112.0
1104,58.0,0,15,3.0,90.0
1105,81.0,11,7,10.0,112.0
1106,69.0,1,7,11.0,112.0
1107,65.0,1,7,12.0,112.0
1108,77.0,13,15,10.0,112.0
1109,65.0,1,15,11.0,112.0
1110,77.0,0,15,1.0,90.0
1111,62.0,0,15,12.0,112.0
1112,65.0,0,15,2.0,91.0
1113,74.0,0,15,1.0,90.0
1114,70.0,1,15,2.0,91.0
1115,58.0,1,15,4.0,95.0
1116,46.0,0,15,5.0,95.0
1117,46.0,0,15,13.0,112.0
1118,34.0,1,15,14.0,112.0
1119,62.0,0,15,3.0,90.0
1120,58.0,0,15,3.0,90.0
1121,79.0,26,7,10.0,112.0
1122,67.0,1,7,11.0,112.0
1123,63.0,0,7,12.0,112.0
1124,67.0,0,15,2.0,91.0
1125,70.0,0,15,2.0,91.0
1126,79.0,1,15,1.0,90.0
1127,75.0,0,15,1.0,90.0
1128,46.0,0,15,5.0,95.0
1129,51.0,0,15,13.0,112.0
1130,58.0,1,15,4.0,95.0
1131,39.0,0,15,14.0,112.0
1132,58.0,0,15,3.0,90.0
1133,63.0,1,15,3.0,90.0
1134,81.0,11,7,10.0,112.0
1135,69.0,1,7,11.0,112.0
1136,65.0,1,7,12.0,112.0
1137,77.0,13,60,10.0,112.0
1138,65.0,1,60,11.0,112.0
1139,62.0,0,60,12.0,112.0
1140,77.0,1,60,1.0,90.0
1141,74.0,0,60,1.0,90.0
1142,70.0,0,60,2.0,91.0
1143,65.0,0,60,2.0,91.0
1144,58.0,0,60,4.0,95.0
1145,46.0,1,60,5.0,95.0
1146,46.0,0,60,13.0,112.0
1147,62.0,0,60,3.0,90.0
1148,58.0,0,60,3.0,90.0
1149,34.0,1,60,14.0,112.0
1150,72.0,86,7,10.0,80.0
1151,63.0,1,7,11.0,80.0
1152,57.0,1,7,12.0,80.0
1153,65.0,1,15,4.0,75.0
1154,53.0,0,15,5.0,75.0
1155,74.0,12,7,10.0,80.0
1156,65.0,1,7,11.0,80.0
1157,53.0,1,7,12.0,80.0
1158,70.0,13,15,10.0,80.0
1159,62.0,1,15,11.0,80.0
1160,58.0,1,15,12.0,80.0
1161,46.0,1,15,5.0,75.0
1162,58.0,0,15,4.0,75.0
1163,72.0,27,7,10.0,80.0
1164,63.0,1,7,11.0,80.0
1165,57.0,1,7,12.0,80.0
1166,53.0,1,15,5.0,75.0
1167,65.0,0,15,4.0,75.0
1168,74.0,12,7,10.0,80.0
1169,65.0,1,7,11.0,80.0
1170,53.0,1,7,12.0,80.0
1171,70.0,13,15,10.0,80.0
1172,62.0,1,15,11.0,80.0
1173,58.0,1,15,12.0,80.0
1174,46.0,0,15,5.0,75.0
1175,58.0,1,15,4.0,75.0
1176,72.0,27,7,10.0,80.0
1177,84.0,1,7,0.0,71.0
1178,63.0,0,7,11.0,80.0
1179,75.0,0,7,1.0,70.0
1180,57.0,1,7,12.0,80.0
1181,65.0,0,15,4.0,75.0
1182,53.0,1,15,5.0,75.0
1183,74.0,12,7,10.0,80.0
1184,86.0,0,7,0.0,71.0
1185,65.0,1,7,11.0,80.0
1186,53.0,1,7,12.0,80.0
1187,77.0,0,7,1.0,70.0
1188,58.0,1,15,4.0,75.0
1189,46.0,0,15,5.0,75.0
1190,74.0,1,23,1.0,70.0
1191,70.0,29,15,2.0,71.0
1192,77.0,0,15,1.0,70.0
1193,65.0,0,15,2.0,71.0
1194,74.0,0,15,1.0,70.0
1195,58.0,0,15,4.0,75.0
1196,46.0,1,15,5.0,75.0
1197,58.0,1,15,3.0,70.0
1198,62.0,0,15,3.0,70.0
1199,70.0,13,60,10.0,80.0
1200,82.0,1,60,0.0,71.0
1201,62.0,0,60,11.0,80.0
1202,58.0,0,60,12.0,80.0
1203,77.0,0,15,1.0,70.0
1204,74.0,0,15,1.0,70.0
1205,70.0,0,15,2.0,71.0
1206,65.0,28,15,2.0,71.0
1207,58.0,1,15,4.0,75.0
1208,46.0,0,15,5.0,75.0
1209,58.0,1,15,3.0,70.0
1210,62.0,0,15,3.0,70.0
1211,79.0,26,7,10.0,112.0
1212,67.0,1,7,11.0,112.0
1213,63.0,0,7,12.0,112.0
1214,79.0,0,15,1.0,90.0
1215,70.0,0,15,2.0,91.0
1216,67.0,0,15,2.0,91.0
1217,75.0,1,15,1.0,90.0
1218,58.0,1,15,4.0,95.0
1219,51.0,0,15,13.0,112.0
1220,46.0,0,15,5.0,95.0
1221,58.0,0,15,3.0,90.0
1222,39.0,1,15,14.0,112.0
1223,63.0,0,15,3.0,90.0
1224,81.0,11,7,10.0,112.0
1225,69.0,1,7,11.0,112.0
1226,65.0,1,7,12.0,112.0
1227,77.0,13,15,10.0,112.0
1228,65.0,1,15,11.0,112.0
1229,74.0,1,15,1.0,90.0
1230,77.0,0,15,1.0,90.0
1231,70.0,0,15,2.0,91.0
1232,62.0,0,15,12.0,112.0
1233,65.0,0,15,2.0,91.0
1234,46.0,0,15,13.0,112.0
1235,58.0,1,15,4.0,95.0
1236,46.0,0,15,5.0,95.0
1237,34.0,0,15,14.0,112.0
1238,62.0,1,15,3.0,90.0
1239,58.0,0,15,3.0,90.0
1240,79.0,26,7,10.0,112.0
1241,67.0,1,7,11.0,112.0
1242,63.0,1,7,12.0,112.0
1243,70.0,0,15,2.0,91.0
1244,67.0,0,15,2.0,91.0
1245,79.0,0,15,1.0,90.0
1246,75.0,0,15,1.0,90.0
1247,51.0,1,15,13.0,112.0
1248,58.0,0,15,4.0,95.0
1249,46.0,0,15,5.0,95.0
1250,39.0,0,15,14.0,112.0
1251,58.0,1,15,3.0,90.0
1252,63.0,0,15,3.0,90.0
1253,81.0,11,7,10.0,112.0
1254,69.0,1,7,11.0,112.0
1255,65.0,1,7,12.0,112.0
1256,77.0,13,15,10.0,112.0
1257,65.0,1,15,11.0,112.0
1258,70.0,0,15,2.0,91.0
1259,62.0,1,15,12.0,112.0
1260,74.0,0,15,1.0,90.0
1261,77.0,0,15,1.0,90.0
1262,65.0,0,15,2.0,91.0
1263,58.0,0,15,4.0,95.0
1264,46.0,0,15,5.0,95.0
1265,46.0,1,15,13.0,112.0
1266,34.0,0,15,14.0,112.0
1267,58.0,1,15,3.0,90.0
1268,62.0,0,15,3.0,90.0
1269,79.0,26,7,10.0,112.0
1270,67.0,1,7,11.0,112.0
1271,63.0,1,7,12.0,112.0
1272,79.0,0,15,1.0,90.0
1273,75.0,0,15,1.0,90.0
1274,70.0,0,15,2.0,91.0
1275,67.0,0,15,2.0,91.0
1276,58.0,1,15,4.0,95.0
1277,46.0,0,15,5.0,95.0
1278,51.0,0,15,13.0,112.0
1279,39.0,0,15,14.0,112.0
1280,58.0,0,15,3.0,90.0
1281,63.0,1,15,3.0,90.0
1282,81.0,11,7,10.0,112.0
1283,69.0,1,7,11.0,112.0
1284,65.0,1,7,12.0,112.0
1285,77.0,13,60,10.0,112.0
1286,65.0,1,60,11.0,112.0
1287,74.0,0,60,1.0,90.0
1288,70.0,0,60,2.0,91.0
1289,77.0,1,60,1.0,90.0
1290,65.0,0,60,2.0,91.0
1291,62.0,0,60,12.0,112.0
1292,46.0,0,60,5.0,95.0
1293,58.0,1,60,4.0,95.0
1294,46.0,0,60,13.0,112.0
1295,62.0,0,60,3.0,90.0
1296,58.0,1,60,3.0,90.0
1297,34.0,0,60,14.0,112.0
1298,79.0,86,7,10.0,97.0
1299,67.0,1,7,11.0,97.0
1300,63.0,1,7,12.0,97.0
1301,75.0,0,15,1.0,90.0
1302,79.0,0,15,1.0,90.0
1303,67.0,0,15,2.0,91.0
1304,70.0,0,15,2.0,91.0
1305,51.0,0,15,13.0,112.0
1306,46.0,1,15,5.0,95.0
1307,58.0,0,15,4.0,95.0
1308,63.0,0,15,3.0,90.0
1309,58.0,0,15,3.0,90.0
1310,39.0,1,15,14.0,112.0
1311,81.0,11,7,10.0,97.0
1312,69.0,1,7,11.0,97.0
1313,65.0,1,7,12.0,97.0
1314,77.0,13,60,10.0,97.0
1315,65.0,1,60,11.0,97.0
1316,62.0,0,60,12.0,97.0
1317,65.0,1,60,2.0,91.0
1318,70.0,0,60,2.0,91.0
1319,77.0,0,60,1.0,90.0
1320,74.0,0,60,1.0,90.0
1321,46.0,1,60,13.0,112.0
1322,58.0,0,60,4.0,95.0
1323,46.0,0,60,5.0,95.0
1324,34.0,1,60,14.0,112.0
1325,62.0,0,60,3.0,90.0
1326,58.0,0,60,3.0,90.0
1327,79.0,86,7,10.0,97.0
1328,67.0,1,7,11.0,97.0
1329,63.0,0,7,12.0,97.0
1330,75.0,0,15,1.0,90.0
1331,79.0,1,15,1.0,90.0
1332,70.0,0,15,2.0,91.0
1333,67.0,0,15,2.0,91.0
1334,46.0,0,15,5.0,95.0
1335,58.0,1,15,4.0,95.0
1336,51.0,0,15,13.0,112.0
1337,58.0,1,15,3.0,90.0
1338,39.0,0,15,14.0,112.0
1339,63.0,0,15,3.0,90.0
1340,81.0,11,7,10.0,97.0
1341,69.0,1,7,11.0,97.0
1342,65.0,1,7,12.0,97.0
1343,77.0,13,60,10.0,97.0
1344,65.0,1,60,11.0,97.0
1345,65.0,1,60,2.0,91.0
1346,77.0,0,60,1.0,90.0
1347,62.0,0,60,12.0,97.0
1348,74.0,0,60,1.0,90.0
1349,70.0,0,60,2.0,91.0
1350,46.0,1,60,13.0,112.0
1351,46.0,0,60,5.0,95.0
1352,58.0,0,60,4.0,95.0
1353,62.0,0,60,3.0,90.0
1354,34.0,1,60,14.0,112.0
1355,58.0,0,60,3.0,90.0
1356,67.0,0,7,2.0,91.0
1357,63.0,0,7,2.0,91.0
1358,75.0,0,7,1.0,90.0
1359,79.0,88,7,1.0,90.0
1360,55.0,0,7,3.0,90.0
1361,51.0,1,7,3.0,90.0
1362,46.0,1,11,5.0,95.0
1363,58.0,0,11,4.0,95.0
1364,69.0,0,7,2.0,91.0
1365,65.0,0,7,2.0,91.0
1366,81.0,13,7,1.0,90.0
1367,77.0,0,7,1.0,90.0
1368,57.0,1,7,3.0,90.0
1369,53.0,0,7,3.0,90.0
1370,46.0,1,11,5.0,95.0
1371,58.0,0,11,4.0,95.0
1372,77.0,0,15,1.0,90.0
1373,65.0,13,15,2.0,91.0
1374,62.0,0,15,2.0,91.0
1375,74.0,0,15,1.0,90.0
1376,58.0,1,15,4.0,95.0
1377,46.0,0,15,5.0,95.0
1378,50.0,0,15,3.0,90.0
1379,53.0,1,15,3.0,90.0
1380,45.0,1,7,13.0,112.0
1381,33.0,0,7,14.0,112.0
1382,62.0,0,15,2.0,76.0
1383,70.0,0,15,2.0,76.0
1384,74.0,0,15,1.0,75.0
1385,82.0,28,15,1.0,75.0
1386,62.0,0,15,4.0,95.0
1387,58.0,0,15,5.0,95.0
1388,58.0,0,15,3.0,90.0
1389,46.0,1,15,3.0,90.0
1390,48.0,14,7,13.0,112.0
1391,36.0,1,7,14.0,112.0
1392,70.0,0,15,2.0,76.0
1393,62.0,0,15,2.0,76.0
1394,74.0,13,15,1.0,75.0
1395,82.0,0,15,1.0,75.0
1396,62.0,0,15,4.0,95.0
1397,46.0,0,15,13.0,112.0
1398,58.0,1,15,5.0,95.0
1399,58.0,1,15,3.0,90.0
1400,46.0,0,15,3.0,90.0
1401,34.0,0,15,14.0,112.0
1402,57.0,0,7,12.0,112.0
1403,82.0,0,15,1.0,75.0
1404,74.0,0,15,1.0,75.0
1405,70.0,0,15,2.0,76.0
1406,62.0,28,15,2.0,76.0
1407,62.0,1,15,4.0,95.0
1408,58.0,0,15,5.0,95.0
1409,58.0,1,15,3.0,90.0
1410,46.0,0,15,3.0,90.0
1411,60.0,13,7,12.0,112.0
1412,74.0,0,15,1.0,75.0
1413,58.0,0,15,12.0,112.0
1414,82.0,0,15,1.0,75.0
1415,70.0,15,15,2.0,76.0
1416,62.0,0,15,2.0,76.0
1417,58.0,1,15,5.0,95.0
1418,62.0,0,15,4.0,95.0
1419,58.0,1,15,3.0,90.0
1420,46.0,0,15,3.0,90.0
1421,69.0,27,7,11.0,112.0
1422,82.0,0,15,1.0,75.0
1423,74.0,1,15,1.0,75.0
1424,70.0,0,15,2.0,76.0
1425,62.0,0,15,2.0,76.0
1426,58.0,1,15,5.0,95.0
1427,62.0,0,15,4.0,95.0
1428,46.0,1,15,3.0,90.0
1429,58.0,0,15,3.0,90.0
1430,72.0,12,7,11.0,112.0
1431,70.0,15,15,11.0,112.0
1432,74.0,0,15,1.0,75.0
1433,82.0,1,15,1.0,75.0
1434,70.0,0,15,2.0,76.0
1435,62.0,0,15,2.0,76.0
1436,62.0,0,15,4.0,95.0
1437,58.0,1,15,5.0,95.0
1438,46.0,0,15,3.0,90.0
1439,58.0,1,15,3.0,90.0
1440,81.0,26,7,10.0,112.0
1441,70.0,2,15,2.0,76.0
1442,62.0,0,15,2.0,76.0
1443,74.0,0,15,1.0,75.0
1444,82.0,0,15,1.0,75.0
1445,58.0,0,15,5.0,95.0
1446,62.0,1,15,4.0,95.0
1447,58.0,0,15,3.0,90.0
1448,46.0,1,15,3.0,90.0
1449,84.0,11,7,10.0,112.0
1450,82.0,15,15,10.0,112.0
1451,67.0,0,15,2.0,76.0
1452,70.0,0,15,2.0,76.0
1453,82.0,0,15,1.0,75.0
1454,79.0,2,15,1.0,75.0
1455,60.0,1,15,4.0,95.0
1456,58.0,0,15,5.0,95.0
1457,60.0,1,15,3.0,90.0
1458,48.0,0,15,3.0,90.0
1459,47.0,0,7,13.0,112.0
1460,35.0,1,7,14.0,112.0
1461,67.0,28,15,2.0,76.0
1462,70.0,0,15,2.0,76.0
1463,79.0,0,15,1.0,75.0
1464,82.0,0,15,1.0,75.0
1465,58.0,0,15,5.0,95.0
1466,60.0,1,15,4.0,95.0
1467,48.0,0,15,3.0,90.0
1468,60.0,0,15,3.0,90.0
1469,50.0,14,7,13.0,112.0
1470,38.0,1,7,14.0,112.0
1471,67.0,0,15,2.0,76.0
1472,70.0,0,15,2.0,76.0
1473,79.0,13,15,1.0,75.0
1474,82.0,0,15,1.0,75.0
1475,48.0,0,15,13.0,112.0
1476,58.0,1,15,5.0,95.0
1477,60.0,0,15,4.0,95.0
1478,36.0,0,15,14.0,112.0
1479,60.0,0,15,3.0,90.0
1480,48.0,1,15,3.0,90.0
1481,59.0,0,7,12.0,112.0
1482,79.0,28,15,1.0,75.0
1483,70.0,0,15,2.0,76.0
1484,67.0,0,15,2.0,76.0
1485,82.0,0,15,1.0,75.0
1486,60.0,0,15,4.0,95.0
1487,58.0,1,15,5.0,95.0
1488,60.0,1,15,3.0,90.0
1489,48.0,0,15,3.0,90.0
1490,62.0,13,7,12.0,112.0
1491,79.0,0,15,1.0,75.0
1492,82.0,15,15,1.0,75.0
1493,67.0,0,15,2.0,76.0
1494,70.0,0,15,2.0,76.0
1495,60.0,0,15,12.0,112.0
1496,60.0,1,15,4.0,95.0
1497,58.0,0,15,5.0,95.0
1498,48.0,1,15,3.0,90.0
1499,60.0,0,15,3.0,90.0
1500,71.0,27,7,11.0,112.0
1501,70.0,0,15,2.0,76.0
1502,82.0,0,15,1.0,75.0
1503,67.0,0,15,2.0,76.0
1504,79.0,1,15,1.0,75.0
1505,58.0,1,15,5.0,95.0
1506,60.0,0,15,4.0,95.0
1507,48.0,0,15,3.0,90.0
1508,60.0,1,15,3.0,90.0
1509,74.0,12,7,11.0,112.0
1510,72.0,15,15,11.0,112.0
1511,70.0,0,15,2.0,76.0
1512,67.0,0,15,2.0,76.0
1513,79.0,1,15,1.0,75.0
1514,82.0,0,15,1.0,75.0
1515,58.0,0,15,5.0,95.0
1516,60.0,1,15,4.0,95.0
1517,60.0,0,15,3.0,90.0
1518,48.0,1,15,3.0,90.0
1519,81.0,26,7,10.0,112.0
1520,69.0,1,7,11.0,112.0
1521,57.0,0,7,12.0,112.0
1522,67.0,0,15,2.0,76.0
1523,70.0,1,15,2.0,76.0
1524,79.0,0,15,1.0,75.0
1525,82.0,0,15,1.0,75.0
1526,58.0,0,15,5.0,95.0
1527,60.0,1,15,4.0,95.0
1528,48.0,1,15,3.0,90.0
1529,60.0,0,15,3.0,90.0
1530,84.0,11,7,10.0,112.0
1531,72.0,1,7,11.0,112.0
1532,60.0,1,7,12.0,112.0
1533,79.0,0,15,1.0,90.0
1534,67.0,0,15,2.0,91.0
1535,70.0,0,15,2.0,91.0
1536,82.0,0,15,1.0,90.0
1537,60.0,0,15,4.0,95.0
1538,58.0,1,15,5.0,95.0
1539,60.0,1,15,3.0,90.0
1540,48.0,0,15,3.0,90.0
1541,47.0,1,7,13.0,112.0
1542,35.0,1,7,14.0,112.0
1543,82.0,0,15,1.0,90.0
1544,84.0,0,15,1.0,90.0
1545,70.0,28,15,2.0,91.0
1546,67.0,0,15,2.0,91.0
1547,60.0,0,15,4.0,95.0
1548,60.0,0,15,5.0,95.0
1549,58.0,0,15,3.0,90.0
1550,48.0,0,15,3.0,90.0
1551,50.0,14,7,13.0,112.0
1552,38.0,1,7,14.0,112.0
1553,67.0,0,15,2.0,91.0
1554,84.0,13,15,1.0,90.0
1555,82.0,0,15,1.0,90.0
1556,70.0,0,15,2.0,91.0
1557,60.0,1,15,4.0,95.0
1558,60.0,0,15,5.0,95.0
1559,48.0,0,15,13.0,112.0
1560,58.0,1,15,3.0,90.0
1561,36.0,0,15,14.0,112.0
1562,48.0,0,15,3.0,90.0
1563,82.0,13,88,10.0,112.0
1564,70.0,1,88,11.0,112.0
1565,58.0,1,88,12.0,112.0
1566,79.0,26,15,10.0,112.0
1567,67.0,1,15,11.0,112.0
1568,67.0,0,15,2.0,91.0
1569,55.0,0,15,12.0,112.0
1570,84.0,0,15,1.0,90.0
1571,82.0,0,15,1.0,90.0
1572,70.0,1,15,2.0,91.0
1573,60.0,1,15,4.0,95.0
1574,60.0,0,15,5.0,95.0
1575,48.0,0,15,3.0,90.0
1576,58.0,1,15,3.0,90.0
1577,84.0,0,15,1.0,90.0
1578,81.0,0,15,1.0,90.0
1579,65.0,0,15,2.0,91.0
1580,69.0,1,15,2.0,91.0
1581,60.0,1,15,4.0,95.0
1582,60.0,0,15,5.0,95.0
1583,48.0,1,15,3.0,90.0
1584,57.0,0,15,3.0,90.0
1585,47.0,1,7,13.0,112.0
1586,35.0,1,7,14.0,112.0
1587,84.0,0,15,1.0,90.0
1588,65.0,0,15,2.0,91.0
1589,69.0,28,15,2.0,91.0
1590,81.0,0,15,1.0,90.0
1591,60.0,0,15,4.0,95.0
1592,60.0,0,15,5.0,95.0
1593,48.0,0,15,3.0,90.0
1594,57.0,0,15,3.0,90.0
1595,50.0,14,7,13.0,112.0
1596,38.0,1,7,14.0,112.0
1597,84.0,0,15,1.0,90.0
1598,69.0,0,15,2.0,91.0
1599,65.0,0,15,2.0,91.0
1600,81.0,13,15,1.0,90.0
1601,60.0,0,15,4.0,95.0
1602,60.0,1,15,5.0,95.0
1603,48.0,0,15,13.0,112.0
1604,36.0,1,15,14.0,112.0
1605,48.0,0,15,3.0,90.0
1606,57.0,0,15,3.0,90.0
1607,81.0,26,88,10.0,112.0
1608,69.0,1,88,11.0,112.0
1609,57.0,0,88,12.0,112.0
1610,77.0,26,15,10.0,112.0
1611,65.0,1,15,11.0,112.0
1612,84.0,0,15,1.0,90.0
1613,81.0,1,15,1.0,90.0
1614,53.0,0,15,12.0,112.0
1615,65.0,0,15,2.0,91.0
1616,69.0,0,15,2.0,91.0
1617,60.0,1,15,4.0,95.0
1618,60.0,0,15,5.0,95.0
1619,48.0,0,15,3.0,90.0
1620,57.0,1,15,3.0,90.0
1621,79.0,26,15,10.0,112.0
1622,67.0,1,15,11.0,112.0
1623,64.0,0,15,2.0,91.0
1624,67.0,0,15,2.0,91.0
1625,84.0,0,15,1.0,90.0
1626,76.0,1,15,1.0,90.0
1627,55.0,0,15,12.0,112.0
1628,60.0,0,15,5.0,95.0
1629,60.0,1,15,4.0,95.0
1630,48.0,1,15,3.0,90.0
1631,55.0,0,15,3.0,90.0
1632,47.0,0,7,13.0,112.0
1633,35.0,1,7,14.0,112.0
1634,76.0,26,15,10.0,112.0
1635,64.0,1,15,11.0,112.0
1636,67.0,1,15,2.0,91.0
1637,64.0,0,15,2.0,91.0
1638,52.0,0,15,12.0,112.0
1639,84.0,0,15,1.0,90.0
1640,76.0,0,15,1.0,90.0
1641,60.0,1,15,4.0,95.0
1642,60.0,0,15,5.0,95.0
1643,48.0,0,15,3.0,90.0
1644,55.0,0,15,3.0,90.0
1645,50.0,14,7,13.0,112.0
1646,38.0,1,7,14.0,112.0
1647,72.0,11,15,10.0,112.0
1648,60.0,1,15,11.0,112.0
1649,64.0,0,15,2.0,91.0
1650,76.0,1,15,1.0,90.0
1651,84.0,0,15,1.0,90.0
1652,67.0,0,15,2.0,91.0
1653,48.0,0,15,12.0,112.0
1654,60.0,0,15,4.0,95.0
1655,60.0,1,15,5.0,95.0
1656,48.0,0,15,13.0,112.0
1657,36.0,0,15,14.0,112.0
1658,48.0,1,15,3.0,90.0
1659,55.0,0,15,3.0,90.0
1660,76.0,26,15,10.0,112.0
1661,64.0,1,15,11.0,112.0
1662,52.0,0,15,12.0,112.0
1663,67.0,0,15,2.0,91.0
1664,76.0,1,15,1.0,90.0
1665,84.0,0,15,1.0,90.0
1666,64.0,0,15,2.0,91.0
1667,60.0,1,15,4.0,95.0
1668,60.0,0,15,5.0,95.0
1669,55.0,0,15,3.0,90.0
1670,48.0,1,15,3.0,90.0
1671,77.0,26,15,10.0,112.0
1672,65.0,1,15,11.0,112.0
1673,77.0,0,15,1.0,90.0
1674,65.0,1,15,2.0,91.0
1675,69.0,0,15,2.0,91.0
1676,53.0,0,15,12.0,112.0
1677,84.0,0,15,1.0,90.0
1678,60.0,0,15,5.0,95.0
1679,60.0,1,15,4.0,95.0
1680,48.0,1,15,3.0,90.0
1681,57.0,0,15,3.0,90.0
1682,47.0,0,7,13.0,112.0
1683,35.0,0,7,14.0,112.0
1684,81.0,26,15,10.0,112.0
1685,69.0,1,15,11.0,112.0
1686,77.0,0,15,1.0,90.0
1687,57.0,1,15,12.0,112.0
1688,84.0,0,15,1.0,90.0
1689,65.0,0,15,2.0,91.0
1690,69.0,0,15,2.0,91.0
1691,60.0,0,15,4.0,95.0
1692,60.0,1,15,5.0,95.0
1693,48.0,0,15,3.0,90.0
1694,57.0,1,15,3.0,90.0
1695,50.0,14,7,13.0,112.0
1696,38.0,1,7,14.0,112.0
1697,84.0,11,15,10.0,112.0
1698,72.0,1,15,11.0,112.0
1699,84.0,0,15,1.0,90.0
1700,77.0,1,15,1.0,90.0
1701,65.0,0,15,2.0,91.0
1702,69.0,0,15,2.0,91.0
1703,60.0,0,15,12.0,112.0
1704,48.0,1,15,13.0,112.0
1705,60.0,0,15,4.0,95.0
1706,60.0,0,15,5.0,95.0
1707,57.0,0,15,3.0,90.0
1708,36.0,1,15,14.0,112.0
1709,48.0,0,15,3.0,90.0
1710,81.0,26,15,10.0,112.0
1711,69.0,1,15,11.0,112.0
1712,65.0,0,15,2.0,91.0
1713,69.0,0,15,2.0,91.0
1714,57.0,0,15,12.0,112.0
1715,77.0,0,15,1.0,90.0
1716,84.0,1,15,1.0,90.0
1717,60.0,0,15,4.0,95.0
1718,60.0,1,15,5.0,95.0
1719,57.0,1,15,3.0,90.0
1720,48.0,0,15,3.0,90.0
1721,82.0,26,15,10.0,112.0
1722,70.0,1,15,11.0,112.0
1723,79.0,0,15,1.0,90.0
1724,58.0,0,15,12.0,112.0
1725,70.0,0,15,2.0,91.0
1726,67.0,0,15,2.0,91.0
1727,84.0,1,15,1.0,90.0
1728,60.0,0,15,5.0,95.0
1729,60.0,1,15,4.0,95.0
1730,58.0,0,15,3.0,90.0
1731,48.0,1,15,3.0,90.0
1732,47.0,0,7,13.0,112.0
1733,35.0,1,7,14.0,112.0
1734,70.0,0,15,2.0,91.0
1735,79.0,1,15,1.0,90.0
1736,67.0,0,15,2.0,91.0
1737,84.0,0,15,1.0,90.0
1738,60.0,1,15,4.0,95.0
1739,60.0,0,15,5.0,95.0
1740,48.0,0,15,3.0,90.0
1741,58.0,0,15,3.0,90.0
1742,50.0,14,7,13.0,112.0
1743,38.0,1,7,14.0,112.0
1744,79.0,0,15,1.0,90.0
1745,84.0,0,15,1.0,90.0
1746,70.0,13,15,2.0,91.0
1747,67.0,0,15,2.0,91.0
1748,60.0,0,15,4.0,95.0
1749,48.0,1,15,13.0,112.0
1750,60.0,0,15,5.0,95.0
1751,36.0,1,15,14.0,112.0
1752,48.0,0,15,3.0,90.0
1753,58.0,0,15,3.0,90.0
1754,82.0,26,53,10.0,112.0
1755,70.0,1,53,11.0,112.0
1756,58.0,0,53,12.0,112.0
1757,82.0,26,5,10.0,112.0
1758,69.0,1,5,11.0,112.0
1759,57.0,0,8,12.0,112.0
1760,81.0,1,5,10.0,112.0
1761,67.0,1,5,11.0,112.0
1762,82.0,1,5,10.0,112.0
1763,69.0,1,5,11.0,112.0
1764,84.0,0,15,1.0,90.0
1765,79.0,0,15,1.0,90.0
1766,55.0,3,8,12.0,112.0
1767,67.0,0,15,2.0,91.0
1768,70.0,1,15,2.0,91.0
1769,60.0,1,15,4.0,95.0
1770,60.0,0,15,5.0,95.0
1771,58.0,1,15,3.0,90.0
1772,48.0,0,15,3.0,90.0
1773,81.0,4,5,10.0,112.0
1774,67.0,1,5,11.0,112.0
1775,57.0,1,8,12.0,112.0
1776,82.0,3,5,10.0,112.0
1777,69.0,1,5,11.0,112.0
1778,81.0,4,0,10.0,112.0
1779,79.0,1,8,10.0,112.0
1780,67.0,1,5,11.0,112.0
1781,55.0,2,8,12.0,112.0
1782,69.0,1,15,11.0,112.0
1783,65.0,0,15,2.0,91.0
1784,69.0,0,15,2.0,91.0
1785,84.0,0,15,1.0,90.0
1786,57.0,0,15,12.0,112.0
1787,77.0,1,15,1.0,90.0
1788,60.0,0,15,4.0,95.0
1789,60.0,1,15,5.0,95.0
1790,48.0,0,15,3.0,90.0
1791,57.0,1,15,3.0,90.0
1792,47.0,0,7,13.0,112.0
1793,35.0,0,7,14.0,112.0
1794,77.0,0,15,1.0,90.0
1795,69.0,0,15,2.0,91.0
1796,65.0,0,15,2.0,91.0
1797,84.0,0,15,1.0,90.0
1798,60.0,1,15,5.0,95.0
1799,60.0,0,15,4.0,95.0
1800,48.0,1,15,3.0,90.0
1801,57.0,0,15,3.0,90.0
1802,50.0,14,7,13.0,112.0
1803,38.0,1,7,14.0,112.0
1804,77.0,0,15,1.0,90.0
1805,69.0,0,15,2.0,91.0
1806,65.0,13,15,2.0,91.0
1807,84.0,0,15,1.0,90.0
1808,48.0,0,15,13.0,112.0
1809,60.0,1,15,5.0,95.0
1810,60.0,0,15,4.0,95.0
1811,48.0,0,15,3.0,90.0
1812,57.0,0,15,3.0,90.0
1813,36.0,1,15,14.0,112.0
1814,81.0,26,53,10.0,112.0
1815,69.0,1,53,11.0,112.0
1816,57.0,1,53,12.0,112.0
1817,81.0,26,5,10.0,112.0
1818,67.0,1,5,11.0,112.0
1819,55.0,0,8,12.0,112.0
1820,79.0,1,5,10.0,112.0
1821,65.0,1,5,11.0,112.0
1822,81.0,1,5,10.0,112.0
1823,67.0,1,5,11.0,112.0
1824,69.0,0,15,2.0,91.0
1825,53.0,3,8,12.0,112.0
1826,77.0,0,15,1.0,90.0
1827,84.0,0,15,1.0,90.0
1828,65.0,1,15,2.0,91.0
1829,60.0,0,15,4.0,95.0
1830,60.0,1,15,5.0,95.0
1831,48.0,1,15,3.0,90.0
1832,57.0,0,15,3.0,90.0
1833,79.0,4,5,10.0,112.0
1834,65.0,1,5,11.0,112.0
1835,55.0,1,8,12.0,112.0
1836,81.0,3,5,10.0,112.0
1837,67.0,1,5,11.0,112.0
1838,65.0,2,3,11.0,112.0
1839,53.0,3,8,12.0,112.0
1840,79.0,4,15,10.0,112.0
1841,67.0,1,15,11.0,112.0
1842,64.0,0,15,2.0,91.0
1843,76.0,0,15,1.0,90.0
1844,84.0,1,15,1.0,90.0
1845,67.0,0,15,2.0,91.0
1846,55.0,0,15,12.0,112.0
1847,60.0,1,15,4.0,95.0
1848,60.0,0,15,5.0,95.0
1849,55.0,0,15,3.0,90.0
1850,48.0,1,15,3.0,90.0
1851,47.0,1,7,13.0,112.0
1852,35.0,0,7,14.0,112.0
1853,76.0,26,15,10.0,112.0
1854,64.0,1,15,11.0,112.0
1855,67.0,0,15,2.0,91.0
1856,52.0,0,15,12.0,112.0
1857,76.0,0,15,1.0,90.0
1858,84.0,1,15,1.0,90.0
1859,64.0,0,15,2.0,91.0
1860,60.0,0,15,5.0,95.0
1861,60.0,0,15,4.0,95.0
1862,48.0,1,15,3.0,90.0
1863,55.0,0,15,3.0,90.0
1864,50.0,14,7,13.0,112.0
1865,38.0,1,7,14.0,112.0
1866,72.0,11,15,10.0,112.0
1867,60.0,1,15,11.0,112.0
1868,48.0,0,15,12.0,112.0
1869,67.0,0,15,2.0,91.0
1870,64.0,0,15,2.0,91.0
1871,76.0,0,15,1.0,90.0
1872,84.0,1,15,1.0,90.0
1873,60.0,1,15,4.0,95.0
1874,60.0,0,15,5.0,95.0
1875,48.0,0,15,13.0,112.0
1876,48.0,0,15,3.0,90.0
1877,36.0,0,15,14.0,112.0
1878,55.0,1,15,3.0,90.0
1879,76.0,26,15,10.0,112.0
1880,64.0,1,15,11.0,112.0
1881,64.0,0,15,2.0,91.0
1882,67.0,1,15,2.0,91.0
1883,76.0,0,15,1.0,90.0
1884,84.0,0,15,1.0,90.0
1885,52.0,0,15,12.0,112.0
1886,48.0,0,15,13.0,112.0
1887,60.0,1,15,5.0,95.0
1888,60.0,0,15,4.0,95.0
1889,36.0,0,15,14.0,112.0
1890,48.0,0,15,3.0,90.0
1891,55.0,1,15,3.0,90.0
1892,77.0,3,0,10.0,112.0
1893,65.0,1,7,11.0,112.0
1894,53.0,1,0,12.0,112.0
1895,41.0,0,8,13.0,112.0
1896,29.0,1,8,14.0,112.0
1897,65.0,1,7,11.0,112.0
1898,43.0,1,8,13.0,112.0
1899,31.0,1,8,14.0,112.0
1900,77.0,3,0,10.0,112.0
1901,65.0,1,7,11.0,112.0
1902,53.0,1,0,12.0,112.0
1903,45.0,1,8,13.0,112.0
1904,33.0,1,8,14.0,112.0
1905,65.0,1,7,11.0,112.0
1906,69.0,1,30,2.0,91.0
1907,65.0,0,30,2.0,91.0
1908,77.0,0,30,1.0,90.0
1909,46.0,1,8,13.0,112.0
1910,53.0,0,30,4.0,95.0
1911,41.0,1,30,5.0,95.0
1912,53.0,0,30,3.0,90.0
1913,41.0,0,30,3.0,90.0
1914,34.0,1,8,14.0,112.0
1915,77.0,4,7,10.0,112.0
1916,65.0,1,0,11.0,112.0
1917,53.0,1,0,12.0,112.0
1918,48.0,1,8,13.0,112.0
1919,36.0,1,8,14.0,112.0
1920,77.0,3,7,10.0,112.0
1921,46.0,1,8,13.0,112.0
1922,34.0,1,8,14.0,112.0
1923,77.0,3,0,10.0,112.0
1924,65.0,1,0,11.0,112.0
1925,53.0,1,0,12.0,112.0
1926,45.0,1,8,13.0,112.0
1927,33.0,1,8,14.0,112.0
1928,43.0,1,8,13.0,112.0
1929,31.0,1,8,14.0,112.0
1930,77.0,4,30,10.0,112.0
1931,65.0,1,30,11.0,112.0
1932,53.0,1,30,12.0,112.0
1933,41.0,1,30,13.0,112.0
1934,29.0,1,30,14.0,112.0
1935,60.0,29,15,13.0,112.0
1936,48.0,1,15,14.0,112.0
1937,57.0,29,15,13.0,112.0
1938,45.0,1,15,14.0,112.0
1939,53.0,29,15,13.0,112.0
1940,41.0,1,15,14.0,112.0
1941,57.0,29,15,13.0,112.0
1942,45.0,1,15,14.0,112.0
1943,69.0,26,15,10.0,112.0
1944,57.0,2,15,12.0,112.0
1945,61.0,1,15,13.0,112.0
1946,49.0,1,15,14.0,112.0
1947,65.0,26,15,10.0,112.0
1948,53.0,2,15,12.0,112.0
1949,62.0,1,18,13.0,112.0
1950,50.0,1,18,14.0,112.0
1951,74.0,28,15,1.0,90.0
1952,62.0,2,15,3.0,90.0
1953,71.0,28,15,1.0,90.0
1954,59.0,1,15,13.0,112.0
1955,59.0,0,15,3.0,90.0
1956,47.0,1,15,14.0,112.0
1957,77.0,26,15,10.0,112.0
1958,65.0,0,15,11.0,112.0
1959,62.0,1,15,11.0,112.0
1960,59.0,1,15,12.0,112.0
1961,76.0,28,15,10.0,112.0
1962,64.0,1,15,11.0,112.0
1963,60.0,1,15,12.0,112.0
1964,60.0,1,15,13.0,112.0
1965,48.0,1,15,14.0,112.0
1966,67.0,0,15,1.0,90.0
1967,67.0,28,15,2.0,91.0
1968,55.0,2,15,3.0,90.0
1969,60.0,0,15,2.0,91.0
1970,60.0,28,15,1.0,90.0
1971,48.0,1,15,13.0,112.0
1972,48.0,1,15,3.0,90.0
1973,36.0,0,15,14.0,112.0
1974,82.0,26,15,10.0,112.0
1975,67.0,1,15,11.0,112.0
1976,88.0,0,15,0.0,91.0
1977,84.0,0,15,0.0,91.0
1978,76.0,0,15,11.0,112.0
1979,48.0,1,15,12.0,112.0
1980,60.0,0,15,12.0,112.0
1981,81.0,28,7,10.0,112.0
1982,77.0,0,7,11.0,112.0
1983,69.0,1,7,11.0,112.0
1984,65.0,0,7,12.0,112.0
1985,53.0,1,0,12.0,127.0
1986,41.0,0,8,13.0,112.0
1987,29.0,0,8,14.0,112.0
1988,65.0,3,7,10.0,127.0
1989,65.0,1,7,11.0,127.0
1990,89.0,0,15,0.0,91.0
1991,84.0,0,15,0.0,91.0
1992,69.0,0,15,2.0,91.0
1993,65.0,0,15,2.0,91.0
1994,81.0,1,15,1.0,90.0
1995,77.0,0,15,1.0,90.0
1996,65.0,1,15,4.0,95.0
1997,53.0,0,15,5.0,95.0
1998,43.0,1,8,13.0,112.0
1999,53.0,1,15,3.0,90.0
2000,31.0,1,8,14.0,112.0
2001,57.0,0,15,3.0,90.0
2002,65.0,4,7,10.0,127.0
2003,65.0,1,7,11.0,127.0
2004,53.0,1,0,12.0,127.0
2005,45.0,1,8,13.0,112.0
2006,33.0,1,8,14.0,112.0
2007,65.0,3,7,10.0,127.0
2008,65.0,1,7,11.0,127.0
2009,46.0,1,8,13.0,112.0
2010,34.0,1,8,14.0,112.0
2011,65.0,4,7,10.0,127.0
2012,65.0,1,7,11.0,127.0
2013,53.0,1,7,12.0,127.0
2014,48.0,1,8,13.0,112.0
2015,36.0,1,8,14.0,112.0
2016,65.0,3,7,10.0,127.0
2017,65.0,1,7,11.0,127.0
2018,53.0,1,7,12.0,127.0
2019,46.0,1,8,13.0,112.0
2020,34.0,1,8,14.0,112.0
2021,65.0,3,0,10.0,127.0
2022,65.0,1,0,11.0,127.0
2023,53.0,1,0,12.0,127.0
2024,45.0,1,8,13.0,112.0
2025,33.0,1,8,14.0,112.0
2026,43.0,1,8,13.0,112.0
2027,31.0,1,8,14.0,112.0
2028,65.0,4,30,10.0,112.0
2029,65.0,1,30,11.0,112.0
2030,53.0,1,30,12.0,112.0
2031,41.0,1,30,13.0,112.0
2032,29.0,1,30,14.0,112.0
2033,60.0,29,15,13.0,112.0
2034,48.0,1,15,14.0,112.0
2035,57.0,29,15,13.0,112.0
2036,45.0,1,15,14.0,112.0
2037,53.0,29,15,13.0,112.0
2038,41.0,1,15,14.0,112.0
2039,57.0,29,15,13.0,112.0
2040,45.0,1,15,14.0,112.0
2041,69.0,26,15,10.0,112.0
2042,57.0,2,15,12.0,112.0
2043,61.0,1,15,13.0,112.0
2044,49.0,1,15,14.0,112.0
2045,62.0,1,10,13.0,112.0
2046,50.0,1,10,14.0,112.0
2047,65.0,26,15,10.0,112.0
2048,53.0,2,15,12.0,112.0
2049,74.0,28,15,1.0,90.0
2050,62.0,2,15,3.0,90.0
2051,71.0,28,15,1.0,90.0
2052,59.0,1,15,13.0,112.0
2053,59.0,0,15,3.0,90.0
2054,47.0,1,15,14.0,112.0
2055,71.0,26,15,10.0,112.0
2056,59.0,2,15,12.0,112.0
2057,67.0,28,15,10.0,112.0
2058,55.0,2,15,12.0,112.0
2059,55.0,1,15,13.0,112.0
2060,43.0,1,15,14.0,112.0
2061,67.0,28,15,1.0,90.0
2062,55.0,2,15,3.0,90.0
2063,77.0,28,15,1.0,90.0
2064,65.0,1,15,13.0,112.0
2065,53.0,0,15,14.0,112.0
2066,65.0,1,15,3.0,90.0
2067,77.0,26,15,10.0,112.0
2068,65.0,1,15,11.0,112.0
2069,53.0,1,15,12.0,112.0
2070,76.0,28,15,10.0,112.0
2071,64.0,1,15,11.0,112.0
2072,52.0,1,15,12.0,112.0
2073,64.0,1,15,13.0,112.0
2074,52.0,1,15,14.0,112.0
2075,64.0,0,15,2.0,91.0
2076,76.0,28,15,1.0,90.0
2077,52.0,2,15,3.0,90.0
2078,72.0,28,15,1.0,90.0
2079,60.0,0,15,2.0,91.0
2080,48.0,1,15,13.0,112.0
2081,36.0,0,15,14.0,112.0
2082,48.0,1,15,3.0,90.0
2083,72.0,26,15,10.0,112.0
2084,60.0,1,15,11.0,112.0
2085,48.0,1,15,12.0,112.0
2086,82.0,28,15,10.0,112.0
2087,70.0,1,15,11.0,112.0
2088,58.0,1,15,12.0,112.0
2089,58.0,1,15,13.0,112.0
2090,46.0,1,15,14.0,112.0
2091,82.0,0,15,1.0,90.0
2092,70.0,28,15,2.0,91.0
2093,58.0,2,15,3.0,90.0
2094,81.0,28,15,1.0,90.0
2095,69.0,0,15,2.0,91.0
2096,57.0,1,15,13.0,112.0
2097,45.0,0,15,14.0,112.0
2098,57.0,1,15,3.0,90.0
2099,81.0,26,15,10.0,112.0
2100,69.0,1,15,11.0,112.0
2101,57.0,1,15,12.0,112.0
2102,77.0,28,15,10.0,112.0
2103,65.0,1,15,11.0,112.0
2104,53.0,1,15,12.0,112.0
2105,53.0,1,15,13.0,112.0
2106,41.0,1,15,14.0,112.0
2107,77.0,27,15,0.0,91.0
2108,65.0,1,15,1.0,90.0
2109,77.0,0,15,1.0,90.0
2110,65.0,0,15,2.0,91.0
2111,65.0,0,15,4.0,95.0
2112,53.0,1,15,5.0,95.0
2113,53.0,1,15,3.0,90.0
2114,87.0,27,15,0.0,91.0
2115,77.0,1,15,1.0,90.0
2116,65.0,0,15,1.0,90.0
2117,75.0,0,15,2.0,91.0
2118,53.0,0,15,5.0,95.0
2119,65.0,1,15,4.0,95.0
2120,63.0,0,15,13.0,112.0
2121,51.0,0,15,14.0,112.0
2122,63.0,1,15,3.0,90.0
2123,75.0,26,15,10.0,112.0
2124,63.0,1,15,11.0,112.0
2125,51.0,1,15,12.0,112.0
2126,74.0,28,15,10.0,112.0
2127,62.0,1,15,11.0,112.0
2128,50.0,1,15,12.0,112.0
2129,62.0,1,15,13.0,112.0
2130,50.0,1,15,14.0,112.0
2131,86.0,27,15,0.0,91.0
2132,77.0,0,15,1.0,90.0
2133,65.0,0,15,1.0,90.0
2134,74.0,1,15,2.0,91.0
2135,53.0,1,15,5.0,95.0
2136,65.0,0,15,4.0,95.0
2137,62.0,1,15,3.0,90.0
2138,85.0,27,15,0.0,91.0
2139,77.0,0,15,1.0,90.0
2140,65.0,0,15,1.0,90.0
2141,73.0,1,15,2.0,91.0
2142,53.0,0,15,5.0,95.0
2143,65.0,1,15,4.0,95.0
2144,61.0,0,15,13.0,112.0
2145,61.0,0,15,3.0,90.0
2146,49.0,1,15,14.0,112.0
2147,73.0,26,15,10.0,112.0
2148,61.0,1,15,11.0,112.0
2149,49.0,1,15,12.0,112.0
2150,60.0,1,60,13.0,112.0
2151,48.0,1,60,14.0,112.0
2152,72.0,58,30,1.0,90.0
2153,60.0,0,30,2.0,91.0
2154,48.0,2,30,3.0,90.0
2155,77.0,28,30,1.0,90.0
2156,65.0,0,30,2.0,91.0
2157,53.0,2,30,3.0,90.0
2158,76.0,28,30,1.0,90.0
2159,64.0,0,30,2.0,91.0
2160,52.0,2,30,3.0,90.0
2161,62.0,28,30,2.0,91.0
2162,74.0,0,30,1.0,90.0
2163,50.0,2,30,3.0,90.0
2164,72.0,0,30,1.0,90.0
2165,60.0,28,30,2.0,91.0
2166,48.0,2,30,3.0,90.0
2167,67.0,0,30,2.0,91.0
2168,82.0,0,30,1.0,90.0
2169,70.0,28,30,2.0,91.0
2170,79.0,0,30,1.0,90.0
2171,58.0,0,30,3.0,90.0
2172,55.0,2,30,3.0,90.0
2173,72.0,28,270,10.0,112.0
2174,60.0,1,270,11.0,112.0
2175,69.0,0,30,2.0,91.0
2176,65.0,0,30,2.0,91.0
2177,48.0,1,270,12.0,112.0
2178,81.0,0,30,1.0,90.0
2179,77.0,28,30,1.0,90.0
2180,53.0,0,30,3.0,90.0
2181,57.0,2,30,3.0,90.0
2182,67.0,1,30,2.0,91.0
2183,60.0,0,30,2.0,91.0
2184,72.0,0,30,1.0,90.0
2185,79.0,0,30,1.0,90.0
2186,55.0,0,30,3.0,90.0
2187,48.0,0,30,3.0,90.0
2188,84.0,26,60,10.0,112.0
2189,72.0,1,60,11.0,112.0
2190,69.0,0,30,1.0,90.0
2191,77.0,0,30,1.0,90.0
2192,57.0,0,30,2.0,91.0
2193,65.0,28,30,2.0,91.0
2194,60.0,0,60,12.0,112.0
2195,60.0,0,0,5.0,95.0
2196,60.0,0,60,13.0,112.0
2197,60.0,1,0,4.0,95.0
2198,45.0,0,30,3.0,90.0
2199,48.0,1,60,14.0,112.0
2200,53.0,2,30,3.0,90.0
2201,81.0,26,15,10.0,112.0
2202,69.0,1,15,11.0,112.0
2203,57.0,1,15,12.0,112.0
2204,53.0,0,15,13.0,112.0
2205,41.0,1,15,14.0,112.0
2206,77.0,11,15,10.0,112.0
2207,65.0,1,15,11.0,112.0
2208,60.0,1,15,12.0,112.0
2209,57.0,1,15,13.0,112.0
2210,45.0,1,15,14.0,112.0
2211,76.0,11,15,10.0,112.0
2212,67.0,1,15,11.0,112.0
2213,58.0,1,15,12.0,112.0
2214,60.0,1,15,13.0,112.0
2215,48.0,1,15,14.0,112.0
2216,76.0,26,15,10.0,112.0
2217,67.0,1,15,11.0,112.0
2218,58.0,1,15,12.0,112.0
2219,48.0,1,15,13.0,112.0
2220,36.0,1,15,14.0,112.0
2221,76.0,26,15,10.0,112.0
2222,67.0,1,15,11.0,112.0
2223,58.0,1,15,12.0,112.0
2224,48.0,1,15,13.0,112.0
2225,36.0,1,15,14.0,112.0
2226,77.0,26,8,10.0,112.0
2227,69.0,1,8,11.0,112.0
2228,60.0,1,8,12.0,112.0
2229,76.0,3,8,10.0,112.0
2230,67.0,1,8,11.0,112.0
2231,58.0,1,8,12.0,112.0
2232,48.0,1,15,13.0,112.0
2233,36.0,1,15,14.0,112.0
2234,74.0,6,8,10.0,112.0
2235,65.0,1,8,11.0,112.0
2236,57.0,1,8,12.0,112.0
2237,76.0,5,8,10.0,112.0
2238,67.0,1,8,11.0,112.0
2239,58.0,1,8,12.0,112.0
2240,53.0,1,15,13.0,112.0
2241,41.0,1,15,14.0,112.0
2242,77.0,6,30,10.0,112.0
2243,69.0,1,30,11.0,112.0
2244,57.0,1,30,12.0,112.0
2245,72.0,56,30,10.0,112.0
2246,60.0,1,30,11.0,112.0
2247,48.0,0,30,12.0,112.0
2248,77.0,26,30,10.0,112.0
2249,65.0,1,30,11.0,112.0
2250,53.0,1,30,12.0,112.0
2251,76.0,28,30,10.0,112.0
2252,64.0,1,30,11.0,112.0
2253,52.0,1,30,12.0,112.0
2254,48.0,1,30,13.0,112.0
2255,36.0,1,30,14.0,112.0
2256,74.0,26,30,10.0,112.0
2257,62.0,1,30,11.0,112.0
2258,50.0,1,30,12.0,112.0
2259,53.0,1,30,13.0,112.0
2260,41.0,1,30,14.0,112.0
2261,72.0,26,30,10.0,112.0
2262,60.0,1,30,11.0,112.0
2263,48.0,1,30,12.0,112.0
2264,52.0,1,30,13.0,112.0
2265,40.0,1,30,14.0,112.0
2266,82.0,26,30,10.0,112.0
2267,70.0,1,30,11.0,112.0
2268,58.0,1,30,12.0,112.0
2269,55.0,1,30,13.0,112.0
2270,43.0,1,30,14.0,112.0
2271,81.0,26,30,10.0,112.0
2272,69.0,1,30,11.0,112.0
2273,72.0,1,210,1.0,90.0
2274,60.0,1,0,2.0,91.0
2275,57.0,1,30,12.0,112.0
2276,53.0,1,30,13.0,112.0
2277,41.0,1,30,14.0,112.0
2278,48.0,2,210,3.0,90.0
2279,72.0,0,27,1.0,90.0
2280,79.0,26,30,10.0,112.0
2281,67.0,0,30,11.0,112.0
2282,55.0,0,30,12.0,112.0
2283,58.0,0,30,13.0,112.0
2284,46.0,1,30,14.0,112.0
2285,77.0,26,30,10.0,112.0
2286,84.0,1,60,0.0,106.0
2287,65.0,1,30,11.0,112.0
2288,53.0,0,30,12.0,112.0
2289,60.0,0,0,4.0,95.0
2290,57.0,1,30,13.0,112.0
2291,60.0,1,0,5.0,95.0
2292,60.0,0,60,3.0,90.0
2293,45.0,1,30,14.0,112.0
2294,48.0,0,60,3.0,90.0
2295,81.0,27,15,0.0,106.0
2296,81.0,1,15,1.0,90.0
2297,72.0,0,15,2.0,91.0
2298,69.0,0,0,2.0,91.0
2299,41.0,0,15,3.0,90.0
2300,53.0,1,15,3.0,90.0
2301,89.0,12,15,0.0,106.0
2302,65.0,0,15,2.0,91.0
2303,77.0,1,15,1.0,90.0
2304,60.0,1,0,4.0,95.0
2305,57.0,2,15,3.0,90.0
2306,45.0,0,15,3.0,90.0
2307,88.0,12,15,0.0,106.0
2308,76.0,0,15,1.0,90.0
2309,67.0,0,15,2.0,91.0
2310,64.0,1,15,2.0,91.0
2311,60.0,0,15,5.0,95.0
2312,48.0,0,15,3.0,90.0
2313,60.0,1,15,3.0,90.0
2314,72.0,1,87,1.0,90.0
2315,67.0,26,7,10.0,112.0
2316,64.0,1,7,11.0,112.0
2317,58.0,0,7,12.0,112.0
2318,88.0,0,15,0.0,106.0
2319,82.0,0,15,1.0,90.0
2320,72.0,0,15,1.0,90.0
2321,67.0,0,15,2.0,91.0
2322,70.0,1,15,2.0,91.0
2323,60.0,0,15,5.0,95.0
2324,60.0,0,15,4.0,95.0
2325,58.0,0,15,3.0,90.0
2326,48.0,1,15,3.0,90.0
2327,70.0,11,7,10.0,112.0
2328,58.0,1,7,11.0,112.0
2329,55.0,1,7,12.0,112.0
2330,48.0,1,0,13.0,52.0
2331,36.0,0,30,14.0,52.0
2332,76.0,13,7,10.0,112.0
2333,58.0,1,7,11.0,112.0
2334,55.0,0,7,12.0,112.0
2335,88.0,0,15,0.0,106.0
2336,67.0,0,15,2.0,91.0
2337,82.0,0,15,1.0,90.0
2338,72.0,0,15,1.0,90.0
2339,70.0,1,15,2.0,91.0
2340,60.0,0,15,5.0,95.0
2341,60.0,0,15,4.0,95.0
2342,58.0,0,15,3.0,90.0
2343,48.0,1,15,3.0,90.0
2344,79.0,11,7,10.0,112.0
2345,60.0,1,7,11.0,112.0
2346,58.0,1,7,12.0,112.0
2347,36.0,0,30,14.0,52.0
2348,82.0,13,7,10.0,112.0
2349,58.0,0,7,11.0,112.0
2350,89.0,1,8,0.0,106.0
2351,55.0,0,7,12.0,112.0
2352,88.0,4,8,0.0,106.0
2353,70.0,1,15,2.0,91.0
2354,67.0,0,15,2.0,91.0
2355,72.0,0,15,1.0,90.0
2356,82.0,0,15,1.0,90.0
2357,60.0,0,15,4.0,95.0
2358,60.0,0,15,5.0,95.0
2359,48.0,1,15,3.0,90.0
2360,58.0,0,15,3.0,90.0
2361,76.0,7,7,10.0,112.0
2362,60.0,1,7,11.0,112.0
2363,86.0,0,8,0.0,106.0
2364,58.0,1,7,12.0,112.0
2365,88.0,6,8,0.0,106.0
2366,48.0,1,30,13.0,52.0
2367,36.0,0,30,14.0,52.0
2368,77.0,7,15,10.0,112.0
2369,57.0,1,30,11.0,112.0
2370,53.0,0,30,12.0,112.0
2371,76.0,26,7,10.0,112.0
2372,79.0,15,7,10.0,112.0
2373,89.0,0,60,0.0,106.0
2374,77.0,0,60,1.0,90.0
2375,81.0,0,60,1.0,90.0
2376,65.0,0,60,2.0,91.0
2377,69.0,1,60,2.0,91.0
2378,53.0,1,60,5.0,95.0
2379,53.0,0,60,13.0,52.0
2380,60.0,0,60,4.0,95.0
2381,53.0,0,60,3.0,90.0
2382,57.0,1,60,3.0,90.0
2383,41.0,0,60,14.0,52.0
2384,77.0,15,15,10.0,112.0
2385,65.0,1,30,11.0,112.0
2386,53.0,1,30,12.0,112.0
2387,74.0,28,30,2.0,63.0
2388,70.0,0,30,2.0,63.0
2389,41.0,1,60,13.0,52.0
2390,62.0,0,30,3.0,62.0
2391,58.0,1,30,3.0,62.0
2392,29.0,1,60,14.0,52.0
2393,69.0,28,30,2.0,63.0
2394,72.0,0,30,2.0,63.0
2395,53.0,1,60,4.0,80.0
2396,41.0,0,60,5.0,80.0
2397,57.0,0,30,3.0,62.0
2398,60.0,2,30,3.0,62.0
2399,64.0,27,7,11.0,112.0
2400,52.0,1,11,12.0,112.0
2401,67.0,14,7,11.0,112.0
2402,55.0,1,7,12.0,112.0
2403,65.0,14,15,11.0,112.0
2404,53.0,1,15,12.0,112.0
2405,82.0,27,30,0.0,63.0
2406,67.0,0,30,2.0,63.0
2407,70.0,0,30,2.0,63.0
2408,79.0,1,30,1.0,62.0
2409,41.0,1,60,13.0,52.0
2410,29.0,1,60,14.0,52.0
2411,58.0,1,30,3.0,62.0
2412,55.0,0,30,3.0,62.0
2413,81.0,27,30,0.0,63.0
2414,77.0,0,30,1.0,62.0
2415,69.0,1,30,2.0,63.0
2416,65.0,0,30,2.0,63.0
2417,41.0,1,60,5.0,80.0
2418,53.0,0,60,4.0,80.0
2419,53.0,2,30,3.0,62.0
2420,57.0,0,30,3.0,62.0
2421,76.0,26,7,10.0,112.0
2422,79.0,15,7,10.0,112.0
2423,77.0,15,15,10.0,112.0
2424,65.0,1,40,11.0,112.0
2425,53.0,1,40,12.0,112.0
2426,75.0,0,30,2.0,63.0
2427,72.0,28,30,2.0,63.0
2428,41.0,1,60,13.0,52.0
2429,29.0,1,60,14.0,52.0
2430,60.0,0,30,3.0,62.0
2431,63.0,1,30,3.0,62.0
2432,70.0,28,30,2.0,63.0
2433,74.0,0,30,2.0,63.0
2434,53.0,1,60,4.0,80.0
2435,41.0,0,60,5.0,80.0
2436,62.0,0,30,3.0,62.0
2437,58.0,2,30,3.0,62.0
2438,64.0,27,7,11.0,112.0
2439,52.0,1,11,12.0,112.0
2440,67.0,14,7,11.0,112.0
2441,55.0,1,7,12.0,112.0
2442,65.0,14,15,11.0,112.0
2443,53.0,1,15,12.0,112.0
2444,84.0,27,30,0.0,63.0
2445,81.0,1,30,1.0,62.0
2446,72.0,0,30,2.0,63.0
2447,69.0,0,30,2.0,63.0
2448,41.0,1,60,13.0,52.0
2449,60.0,1,30,3.0,62.0
2450,57.0,0,30,3.0,62.0
2451,29.0,1,60,14.0,52.0
2452,82.0,27,30,0.0,63.0
2453,70.0,1,30,2.0,63.0
2454,67.0,0,30,2.0,63.0
2455,79.0,0,30,1.0,62.0
2456,53.0,0,60,4.0,80.0
2457,41.0,1,60,5.0,80.0
2458,58.0,0,30,3.0,62.0
2459,55.0,2,30,3.0,62.0
2460,76.0,26,7,10.0,112.0
2461,79.0,15,7,10.0,112.0
2462,77.0,15,15,10.0,112.0
2463,65.0,1,40,11.0,112.0
2464,53.0,1,40,12.0,112.0
2465,74.0,28,30,2.0,63.0
2466,77.0,0,30,2.0,63.0
2467,41.0,1,60,13.0,52.0
2468,65.0,1,30,3.0,62.0
2469,62.0,0,30,3.0,62.0
2470,29.0,1,60,14.0,52.0
2471,75.0,0,30,2.0,63.0
2472,72.0,28,30,2.0,63.0
2473,41.0,0,60,5.0,80.0
2474,53.0,1,60,4.0,80.0
2475,63.0,0,30,3.0,62.0
2476,60.0,2,30,3.0,62.0
2477,64.0,27,7,11.0,112.0
2478,52.0,1,11,12.0,112.0
2479,67.0,14,7,11.0,112.0
2480,55.0,1,7,12.0,112.0
2481,65.0,14,15,11.0,112.0
2482,53.0,1,15,12.0,112.0
2483,86.0,27,30,0.0,63.0
2484,70.0,0,30,2.0,63.0
2485,82.0,1,30,1.0,62.0
2486,74.0,0,30,2.0,63.0
2487,41.0,1,60,13.0,52.0
2488,62.0,0,30,3.0,62.0
2489,29.0,1,60,14.0,52.0
2490,58.0,1,30,3.0,62.0
2491,84.0,27,30,0.0,63.0
2492,81.0,0,30,1.0,62.0
2493,69.0,0,30,2.0,63.0
2494,72.0,1,30,2.0,63.0
2495,53.0,0,60,4.0,80.0
2496,41.0,1,60,5.0,80.0
2497,60.0,0,30,3.0,62.0
2498,57.0,2,30,3.0,62.0
2499,76.0,26,7,10.0,112.0
2500,79.0,15,7,10.0,112.0
2501,77.0,15,15,10.0,112.0
2502,65.0,1,60,11.0,112.0
2503,75.0,0,30,2.0,76.0
2504,79.0,28,30,2.0,76.0
2505,53.0,1,60,12.0,112.0
2506,41.0,1,60,13.0,52.0
2507,67.0,0,30,3.0,75.0
2508,63.0,1,30,3.0,75.0
2509,29.0,1,60,14.0,52.0
2510,53.0,0,53,4.0,95.0
2511,41.0,1,53,5.0,95.0
2512,77.0,28,24,2.0,76.0
2513,74.0,0,24,2.0,76.0
2514,65.0,2,24,3.0,75.0
2515,62.0,0,24,3.0,75.0
2516,75.0,28,30,2.0,76.0
2517,72.0,0,30,2.0,76.0
2518,60.0,1,30,3.0,75.0
2519,63.0,0,30,3.0,75.0
2520,70.0,28,24,2.0,76.0
2521,74.0,0,24,2.0,76.0
2522,41.0,0,53,5.0,95.0
2523,53.0,1,53,4.0,95.0
2524,58.0,2,24,3.0,75.0
2525,62.0,0,24,3.0,75.0
2526,72.0,28,30,2.0,76.0
2527,69.0,0,30,2.0,76.0
2528,60.0,1,30,3.0,75.0
2529,57.0,0,30,3.0,75.0
2530,75.0,0,24,2.0,76.0
2531,41.0,0,53,5.0,95.0
2532,79.0,28,24,2.0,76.0
2533,53.0,1,53,4.0,95.0
2534,67.0,0,24,3.0,75.0
2535,63.0,2,24,3.0,75.0
2536,74.0,0,30,2.0,76.0
2537,77.0,28,30,2.0,76.0
2538,62.0,0,30,3.0,75.0
2539,65.0,1,30,3.0,75.0
2540,75.0,28,24,2.0,76.0
2541,72.0,0,24,2.0,76.0
2542,41.0,0,53,5.0,95.0
2543,53.0,1,53,4.0,95.0
2544,63.0,2,24,3.0,75.0
2545,60.0,0,24,3.0,75.0
2546,86.0,27,30,0.0,76.0
2547,82.0,0,30,1.0,75.0
2548,70.0,0,30,2.0,76.0
2549,74.0,1,30,2.0,76.0
2550,58.0,1,30,3.0,75.0
2551,62.0,0,30,3.0,75.0
2552,41.0,1,53,5.0,95.0
2553,53.0,0,53,4.0,95.0
2554,69.0,1,24,2.0,76.0
2555,72.0,0,24,2.0,76.0
2556,60.0,0,24,3.0,75.0
2557,57.0,2,24,3.0,75.0
2558,84.0,27,30,0.0,76.0
2559,81.0,0,30,1.0,75.0
2560,79.0,0,30,2.0,76.0
2561,75.0,28,30,2.0,76.0
2562,67.0,0,30,3.0,75.0
2563,63.0,1,30,3.0,75.0
2564,77.0,28,24,2.0,76.0
2565,53.0,1,53,4.0,95.0
2566,41.0,0,53,5.0,95.0
2567,74.0,0,24,2.0,76.0
2568,62.0,0,24,3.0,75.0
2569,65.0,2,24,3.0,75.0
2570,72.0,0,30,2.0,76.0
2571,75.0,28,30,2.0,76.0
2572,60.0,1,30,3.0,75.0
2573,63.0,0,30,3.0,75.0
2574,41.0,0,53,5.0,95.0
2575,70.0,0,24,2.0,76.0
2576,74.0,28,24,2.0,76.0
2577,53.0,1,53,4.0,95.0
2578,58.0,2,24,3.0,75.0
2579,62.0,0,24,3.0,75.0
2580,69.0,0,30,2.0,76.0
2581,72.0,28,30,2.0,76.0
2582,57.0,1,30,3.0,75.0
2583,60.0,0,30,3.0,75.0
2584,75.0,28,24,2.0,76.0
2585,79.0,0,24,2.0,76.0
2586,41.0,0,53,5.0,95.0
2587,53.0,1,53,4.0,95.0
2588,67.0,0,24,3.0,75.0
2589,63.0,2,24,3.0,75.0
2590,77.0,28,30,2.0,76.0
2591,74.0,0,30,2.0,76.0
2592,65.0,1,30,3.0,75.0
2593,62.0,0,30,3.0,75.0
2594,75.0,0,24,2.0,76.0
2595,72.0,28,24,2.0,76.0
2596,53.0,1,53,4.0,95.0
2597,41.0,0,53,5.0,95.0
2598,63.0,2,24,3.0,75.0
2599,60.0,0,24,3.0,75.0
2600,86.0,27,30,0.0,76.0
2601,70.0,0,30,2.0,76.0
2602,74.0,1,30,2.0,76.0
2603,82.0,0,30,1.0,75.0
2604,58.0,0,30,3.0,75.0
2605,62.0,1,30,3.0,75.0
2606,53.0,1,53,4.0,95.0
2607,69.0,0,24,2.0,76.0
2608,41.0,0,53,5.0,95.0
2609,72.0,0,24,2.0,76.0
2610,57.0,2,24,3.0,75.0
2611,60.0,0,24,3.0,75.0
2612,84.0,27,30,0.0,76.0
2613,81.0,1,30,1.0,75.0
2614,79.0,1,30,2.0,76.0
2615,75.0,0,30,2.0,76.0
2616,57.0,0,30,12.0,112.0
2617,41.0,1,30,13.0,112.0
2618,67.0,0,30,3.0,75.0
2619,63.0,1,30,3.0,75.0
2620,29.0,0,30,14.0,112.0
2621,53.0,0,53,4.0,95.0
2622,77.0,0,24,2.0,76.0
2623,41.0,0,53,5.0,95.0
2624,74.0,0,24,2.0,76.0
2625,62.0,0,24,3.0,75.0
2626,77.0,26,58,10.0,112.0
2627,65.0,0,24,3.0,75.0
2628,65.0,1,58,11.0,112.0
2629,58.0,28,27,12.0,112.0
2630,43.0,1,27,13.0,112.0
2631,31.0,1,27,14.0,112.0
2632,87.0,1,30,0.0,76.0
2633,60.0,0,30,12.0,112.0
2634,72.0,1,30,2.0,76.0
2635,75.0,0,30,2.0,76.0
2636,45.0,0,30,13.0,112.0
2637,33.0,0,30,14.0,112.0
2638,60.0,1,30,3.0,75.0
2639,63.0,0,30,3.0,75.0
2640,53.0,0,53,4.0,95.0
2641,74.0,1,24,2.0,76.0
2642,70.0,0,24,2.0,76.0
2643,41.0,1,53,5.0,95.0
2644,58.0,0,24,3.0,75.0
2645,77.0,26,58,10.0,112.0
2646,62.0,1,24,3.0,75.0
2647,62.0,0,27,12.0,112.0
2648,65.0,0,58,11.0,112.0
2649,46.0,1,27,13.0,112.0
2650,34.0,0,27,14.0,112.0
2651,86.0,27,30,0.0,76.0
2652,63.0,0,24,2.0,76.0
2653,72.0,0,24,2.0,76.0
2654,84.0,0,30,0.0,76.0
2655,75.0,0,30,1.0,75.0
2656,53.0,0,30,5.0,95.0
2657,53.0,1,30,13.0,112.0
2658,60.0,0,30,4.0,95.0
2659,60.0,0,30,3.0,75.0
2660,57.0,1,30,3.0,75.0
2661,41.0,0,30,14.0,112.0
2662,74.0,0,15,1.0,70.0
2663,62.0,1,15,2.0,71.0
2664,70.0,0,15,2.0,71.0
2665,70.0,0,15,1.0,70.0
2666,50.0,0,15,5.0,95.0
2667,58.0,1,15,4.0,95.0
2668,58.0,0,15,3.0,90.0
2669,62.0,1,15,3.0,90.0
2670,82.0,27,30,0.0,91.0
2671,70.0,0,15,2.0,71.0
2672,77.0,28,15,1.0,70.0
2673,65.0,0,15,2.0,71.0
2674,74.0,0,15,1.0,70.0
2675,53.0,1,15,5.0,95.0
2676,65.0,0,15,4.0,95.0
2677,58.0,0,15,3.0,90.0
2678,62.0,1,15,3.0,90.0
2679,77.0,26,86,10.0,112.0
2680,65.0,1,86,11.0,112.0
2681,53.0,1,90,12.0,112.0
2682,58.0,0,60,13.0,112.0
2683,46.0,0,60,14.0,112.0
2684,70.0,0,15,2.0,71.0
2685,65.0,0,15,2.0,71.0
2686,74.0,0,15,1.0,70.0
2687,77.0,28,15,1.0,70.0
2688,53.0,1,15,5.0,95.0
2689,65.0,0,15,4.0,95.0
2690,58.0,0,15,3.0,90.0
2691,62.0,1,15,3.0,90.0
2692,77.0,0,15,1.0,70.0
2693,70.0,28,15,2.0,71.0
2694,65.0,0,15,2.0,71.0
2695,74.0,0,15,1.0,70.0
2696,53.0,0,15,5.0,95.0
2697,65.0,1,15,4.0,95.0
2698,58.0,1,15,3.0,90.0
2699,62.0,0,15,3.0,90.0
2700,74.0,0,15,1.0,70.0
2701,65.0,0,15,2.0,71.0
2702,77.0,0,15,1.0,70.0
2703,70.0,28,15,2.0,71.0
2704,53.0,1,15,5.0,95.0
2705,65.0,0,15,4.0,95.0
2706,62.0,1,15,3.0,90.0
2707,58.0,0,15,3.0,90.0
2708,77.0,0,15,1.0,70.0
2709,74.0,0,15,1.0,70.0
2710,65.0,0,15,2.0,71.0
2711,70.0,28,15,2.0,71.0
2712,53.0,1,15,5.0,95.0
2713,65.0,0,15,4.0,95.0
2714,58.0,0,15,3.0,90.0
2715,62.0,1,15,3.0,90.0
2716,70.0,0,15,2.0,71.0
2717,77.0,0,15,1.0,70.0
2718,74.0,0,15,1.0,70.0
2719,65.0,28,15,2.0,71.0
2720,65.0,1,15,4.0,95.0
2721,53.0,0,15,5.0,95.0
2722,58.0,1,15,3.0,90.0
2723,62.0,0,15,3.0,90.0
2724,76.0,26,7,10.0,127.0
2725,74.0,2,15,1.0,70.0
2726,70.0,0,15,2.0,71.0
2727,65.0,0,15,2.0,71.0
2728,77.0,0,15,1.0,70.0
2729,65.0,1,15,4.0,95.0
2730,53.0,0,15,5.0,95.0
2731,62.0,0,15,3.0,90.0
2732,58.0,1,15,3.0,90.0
2733,79.0,11,7,10.0,127.0
2734,77.0,15,15,10.0,127.0
2735,77.0,1,15,1.0,70.0
2736,74.0,0,15,1.0,70.0
2737,65.0,0,15,2.0,71.0
2738,70.0,0,15,2.0,71.0
2739,65.0,0,15,4.0,95.0
2740,53.0,1,15,5.0,95.0
2741,58.0,1,15,3.0,90.0
2742,62.0,0,15,3.0,90.0
2743,76.0,26,7,10.0,127.0
2744,70.0,2,15,2.0,71.0
2745,65.0,0,15,2.0,71.0
2746,77.0,0,15,1.0,70.0
2747,74.0,0,15,1.0,70.0
2748,53.0,0,15,5.0,95.0
2749,65.0,1,15,4.0,95.0
2750,58.0,0,15,3.0,90.0
2751,62.0,1,15,3.0,90.0
2752,79.0,11,7,10.0,127.0
2753,58.0,1,60,11.0,43.0
2754,77.0,15,15,10.0,127.0
2755,74.0,0,15,1.0,70.0
2756,77.0,0,15,1.0,70.0
2757,70.0,0,15,2.0,71.0
2758,65.0,1,15,2.0,71.0
2759,53.0,0,15,5.0,95.0
2760,65.0,1,15,4.0,95.0
2761,58.0,0,15,3.0,90.0
2762,62.0,1,15,3.0,90.0
2763,76.0,26,7,10.0,127.0
2764,70.0,0,15,2.0,71.0
2765,65.0,0,15,2.0,71.0
2766,77.0,2,15,1.0,70.0
2767,74.0,0,15,1.0,70.0
2768,53.0,1,15,5.0,95.0
2769,65.0,0,15,4.0,95.0
2770,62.0,1,15,3.0,90.0
2771,58.0,0,15,3.0,90.0
2772,79.0,11,7,10.0,127.0
2773,62.0,1,60,11.0,43.0
2774,74.0,0,15,1.0,70.0
2775,77.0,1,15,1.0,70.0
2776,65.0,0,15,2.0,71.0
2777,70.0,0,15,2.0,71.0
2778,65.0,0,15,4.0,95.0
2779,53.0,1,15,5.0,95.0
2780,58.0,0,15,3.0,90.0
2781,62.0,1,15,3.0,90.0
2782,74.0,0,15,1.0,70.0
2783,77.0,28,15,1.0,70.0
2784,65.0,0,15,2.0,71.0
2785,70.0,0,15,2.0,71.0
2786,53.0,1,15,5.0,95.0
2787,65.0,0,15,4.0,95.0
2788,62.0,1,15,3.0,90.0
2789,58.0,0,15,3.0,90.0
2790,65.0,1,60,11.0,43.0
2791,77.0,0,15,1.0,70.0
2792,74.0,28,15,1.0,70.0
2793,65.0,0,15,2.0,71.0
2794,70.0,0,15,2.0,71.0
2795,65.0,1,15,4.0,95.0
2796,53.0,0,15,5.0,95.0
2797,62.0,1,15,3.0,90.0
2798,58.0,0,15,3.0,90.0
2799,77.0,15,90,10.0,127.0
2800,77.0,0,15,1.0,70.0
2801,65.0,0,15,2.0,71.0
2802,70.0,0,15,2.0,71.0
2803,74.0,1,15,1.0,70.0
2804,65.0,1,15,4.0,95.0
2805,53.0,0,15,5.0,95.0
2806,62.0,1,15,3.0,90.0
2807,58.0,0,15,3.0,90.0
2808,74.0,26,20,10.0,127.0
2809,70.0,1,30,11.0,43.0
2810,74.0,26,15,10.0,127.0
2811,65.0,0,15,2.0,71.0
2812,77.0,1,15,1.0,70.0
2813,75.0,0,15,1.0,70.0
2814,72.0,0,15,2.0,71.0
2815,65.0,1,15,4.0,95.0
2816,53.0,0,15,5.0,95.0
2817,63.0,0,15,3.0,90.0
2818,60.0,1,15,3.0,90.0
2819,72.0,11,12,10.0,127.0
2820,72.0,15,7,10.0,127.0
2821,72.0,0,15,2.0,71.0
2822,75.0,0,15,1.0,70.0
2823,77.0,0,15,1.0,70.0
2824,65.0,2,15,2.0,71.0
2825,65.0,1,15,4.0,95.0
2826,53.0,0,15,5.0,95.0
2827,63.0,0,15,3.0,90.0
2828,60.0,1,15,3.0,90.0
2829,74.0,11,7,10.0,127.0
2830,69.0,1,60,11.0,43.0
2831,75.0,15,15,10.0,127.0
2832,65.0,0,15,2.0,71.0
2833,77.0,0,15,1.0,70.0
2834,75.0,0,15,1.0,70.0
2835,72.0,0,15,2.0,71.0
2836,65.0,0,15,4.0,95.0
2837,53.0,1,15,5.0,95.0
2838,60.0,0,15,3.0,90.0
2839,63.0,1,15,3.0,90.0
2840,72.0,26,7,10.0,127.0
2841,65.0,0,15,2.0,71.0
2842,72.0,2,15,2.0,71.0
2843,75.0,0,15,1.0,70.0
2844,77.0,0,15,1.0,70.0
2845,65.0,1,15,4.0,95.0
2846,53.0,0,15,5.0,95.0
2847,63.0,1,15,3.0,90.0
2848,60.0,0,15,3.0,90.0
2849,74.0,11,7,10.0,127.0
2850,60.0,0,60,11.0,43.0
2851,63.0,1,60,11.0,43.0
2852,53.0,0,0,12.0,43.0
2853,74.0,1,15,1.0,70.0
2854,77.0,0,15,1.0,70.0
2855,70.0,0,15,2.0,71.0
2856,65.0,0,15,2.0,71.0
2857,53.0,0,15,5.0,95.0
2858,65.0,0,15,4.0,95.0
2859,58.0,1,15,3.0,90.0
2860,62.0,0,15,3.0,90.0
2861,46.0,1,30,13.0,112.0
2862,34.0,0,30,14.0,112.0
2863,77.0,28,15,1.0,70.0
2864,74.0,0,15,1.0,70.0
2865,70.0,0,15,2.0,71.0
2866,65.0,0,15,2.0,71.0
2867,53.0,0,15,5.0,95.0
2868,65.0,1,15,4.0,95.0
2869,58.0,0,15,3.0,90.0
2870,62.0,1,15,3.0,90.0
2871,70.0,15,60,10.0,127.0
2872,58.0,0,60,11.0,43.0
2873,62.0,1,60,11.0,43.0
2874,65.0,0,15,2.0,71.0
2875,70.0,0,15,2.0,71.0
2876,74.0,28,15,1.0,70.0
2877,77.0,0,15,1.0,70.0
2878,53.0,0,15,5.0,95.0
2879,65.0,1,15,4.0,95.0
2880,62.0,0,15,3.0,90.0
2881,58.0,1,15,3.0,90.0
2882,46.0,0,7,13.0,112.0
2883,34.0,0,7,14.0,112.0
2884,65.0,0,15,2.0,71.0
2885,70.0,28,15,2.0,71.0
2886,77.0,0,15,1.0,70.0
2887,74.0,0,15,1.0,70.0
2888,65.0,1,15,4.0,95.0
2889,53.0,0,15,5.0,95.0
2890,62.0,1,15,3.0,90.0
2891,58.0,0,15,3.0,90.0
2892,48.0,14,7,13.0,112.0
2893,36.0,1,7,14.0,112.0
2894,65.0,0,15,2.0,71.0
2895,70.0,0,15,2.0,71.0
2896,74.0,0,15,1.0,70.0
2897,77.0,13,15,1.0,70.0
2898,65.0,1,15,4.0,95.0
2899,50.0,0,15,13.0,112.0
2900,53.0,0,15,5.0,95.0
2901,38.0,1,15,14.0,112.0
2902,62.0,0,15,3.0,90.0
2903,58.0,0,15,3.0,90.0
2904,50.0,1,7,13.0,112.0
2905,38.0,0,7,14.0,112.0
2906,65.0,0,15,2.0,71.0
2907,77.0,0,15,1.0,70.0
2908,74.0,28,15,1.0,70.0
2909,70.0,0,15,2.0,71.0
2910,65.0,0,15,4.0,95.0
2911,53.0,0,15,5.0,95.0
2912,58.0,1,15,3.0,90.0
2913,62.0,0,15,3.0,90.0
2914,51.0,14,7,13.0,112.0
2915,39.0,1,7,14.0,112.0
2916,70.0,0,15,2.0,71.0
2917,65.0,0,15,2.0,71.0
2918,77.0,13,15,1.0,70.0
2919,74.0,0,15,1.0,70.0
2920,53.0,0,15,5.0,95.0
2921,53.0,1,15,13.0,112.0
2922,65.0,0,15,4.0,95.0
2923,41.0,0,15,14.0,112.0
2924,62.0,0,15,3.0,90.0
2925,58.0,1,15,3.0,90.0
2926,55.0,0,7,13.0,112.0
2927,43.0,0,7,14.0,112.0
2928,74.0,0,15,1.0,70.0
2929,77.0,28,15,1.0,70.0
2930,70.0,0,15,2.0,71.0
2931,65.0,0,15,2.0,71.0
2932,65.0,0,15,4.0,95.0
2933,53.0,1,15,5.0,95.0
2934,62.0,0,15,3.0,90.0
2935,58.0,1,15,3.0,90.0
2936,57.0,14,7,13.0,112.0
2937,45.0,1,7,14.0,112.0
2938,65.0,13,15,2.0,71.0
2939,70.0,0,15,2.0,71.0
2940,77.0,0,15,1.0,70.0
2941,74.0,0,15,1.0,70.0
2942,53.0,0,15,5.0,95.0
2943,65.0,0,15,4.0,95.0
2944,62.0,0,15,3.0,90.0
2945,58.0,0,15,3.0,90.0
2946,74.0,0,15,1.0,70.0
2947,77.0,28,15,1.0,70.0
2948,70.0,0,15,2.0,71.0
2949,65.0,0,15,2.0,71.0
2950,65.0,0,15,4.0,95.0
2951,53.0,1,15,5.0,95.0
2952,62.0,0,15,3.0,90.0
2953,58.0,1,15,3.0,90.0
2954,58.0,1,60,13.0,112.0
2955,46.0,1,60,14.0,112.0
2956,74.0,0,15,1.0,70.0
2957,65.0,0,15,2.0,71.0
2958,70.0,28,15,2.0,71.0
2959,77.0,0,15,1.0,70.0
2960,53.0,1,15,5.0,95.0
2961,65.0,0,15,4.0,95.0
2962,58.0,1,15,3.0,90.0
2963,62.0,0,15,3.0,90.0
2964,77.0,0,15,1.0,70.0
2965,70.0,28,15,2.0,71.0
2966,65.0,0,15,2.0,71.0
2967,74.0,0,15,1.0,70.0
2968,65.0,1,15,4.0,95.0
2969,53.0,0,15,5.0,95.0
2970,58.0,1,15,3.0,90.0
2971,62.0,0,15,3.0,90.0
2972,70.0,0,15,2.0,71.0
2973,74.0,0,15,1.0,70.0
2974,77.0,0,15,1.0,70.0
2975,65.0,28,15,2.0,71.0
2976,53.0,1,15,5.0,95.0
2977,65.0,0,15,4.0,95.0
2978,58.0,0,15,3.0,90.0
2979,62.0,1,15,3.0,90.0
2980,74.0,0,15,1.0,70.0
2981,65.0,0,15,2.0,71.0
2982,70.0,0,15,2.0,71.0
2983,77.0,28,15,1.0,70.0
2984,65.0,1,15,4.0,95.0
2985,53.0,0,15,5.0,95.0
2986,62.0,0,15,3.0,90.0
2987,58.0,1,15,3.0,90.0
2988,70.0,0,15,2.0,71.0
2989,77.0,28,15,1.0,70.0
2990,74.0,0,15,1.0,70.0
2991,65.0,0,15,2.0,71.0
2992,65.0,0,15,4.0,95.0
2993,53.0,1,15,5.0,95.0
2994,58.0,0,15,3.0,90.0
2995,62.0,1,15,3.0,90.0
2996,76.0,26,15,10.0,127.0
2997,70.0,0,15,2.0,71.0
2998,65.0,0,15,2.0,71.0
2999,77.0,0,15,1.0,70.0
3000,74.0,2,15,1.0,70.0
3001,53.0,1,15,5.0,95.0
3002,65.0,0,15,4.0,95.0
3003,58.0,0,15,3.0,90.0
3004,62.0,1,15,3.0,90.0
3005,79.0,11,9,10.0,127.0
3006,79.0,15,15,10.0,127.0
3007,70.0,0,15,2.0,71.0
3008,65.0,0,15,2.0,71.0
3009,77.0,0,15,1.0,70.0
3010,74.0,0,15,1.0,70.0
3011,53.0,1,15,5.0,95.0
3012,65.0,0,15,4.0,95.0
3013,62.0,1,15,3.0,90.0
3014,58.0,0,15,3.0,90.0
3015,77.0,11,9,10.0,127.0
3016,58.0,2,30,12.0,43.0
3017,76.0,15,15,10.0,127.0
3018,65.0,0,15,2.0,71.0
3019,74.0,0,15,1.0,70.0
3020,77.0,0,15,1.0,70.0
3021,70.0,1,15,2.0,71.0
3022,65.0,1,15,4.0,95.0
3023,53.0,0,15,5.0,95.0
3024,62.0,1,15,3.0,90.0
3025,58.0,0,15,3.0,90.0
3026,79.0,11,9,10.0,127.0
3027,58.0,1,30,11.0,43.0
3028,79.0,15,15,10.0,127.0
3029,65.0,0,15,2.0,71.0
3030,74.0,0,15,1.0,70.0
3031,77.0,0,15,1.0,70.0
3032,70.0,2,15,2.0,71.0
3033,65.0,1,15,4.0,95.0
3034,53.0,0,15,5.0,95.0
3035,58.0,0,15,3.0,90.0
3036,62.0,1,15,3.0,90.0
3037,77.0,11,9,10.0,127.0
3038,62.0,0,30,12.0,43.0
3039,76.0,15,15,10.0,127.0
3040,74.0,0,15,1.0,70.0
3041,77.0,0,15,1.0,70.0
3042,70.0,0,15,2.0,71.0
3043,65.0,1,15,2.0,71.0
3044,65.0,0,15,4.0,95.0
3045,53.0,1,15,5.0,95.0
3046,62.0,0,15,3.0,90.0
3047,58.0,1,15,3.0,90.0
3048,79.0,11,9,10.0,127.0
3049,62.0,1,30,11.0,43.0
3050,79.0,15,15,10.0,127.0
3051,70.0,0,15,2.0,71.0
3052,77.0,2,15,1.0,70.0
3053,65.0,0,15,2.0,71.0
3054,74.0,0,15,1.0,70.0
3055,53.0,0,15,5.0,95.0
3056,65.0,1,15,4.0,95.0
3057,58.0,1,15,3.0,90.0
3058,62.0,0,15,3.0,90.0
3059,77.0,11,9,10.0,127.0
3060,65.0,0,30,12.0,43.0
3061,77.0,15,15,10.0,127.0
3062,77.0,0,15,1.0,70.0
3063,70.0,0,15,2.0,71.0
3064,65.0,0,15,2.0,71.0
3065,74.0,1,15,1.0,70.0
3066,53.0,1,15,5.0,95.0
3067,65.0,0,15,4.0,95.0
3068,58.0,1,15,3.0,90.0
3069,62.0,0,15,3.0,90.0
3070,76.0,11,9,10.0,127.0
3071,65.0,1,30,11.0,43.0
3072,76.0,15,15,10.0,127.0
3073,70.0,0,15,2.0,71.0
3074,65.0,2,15,2.0,71.0
3075,74.0,0,15,1.0,70.0
3076,77.0,0,15,1.0,70.0
3077,53.0,1,15,5.0,95.0
3078,65.0,0,15,4.0,95.0
3079,58.0,1,15,3.0,90.0
3080,62.0,0,15,3.0,90.0
3081,77.0,11,9,10.0,127.0
3082,70.0,0,30,12.0,43.0
3083,77.0,15,15,10.0,127.0
3084,65.0,0,15,2.0,71.0
3085,74.0,1,15,1.0,70.0
3086,77.0,0,15,1.0,70.0
3087,70.0,0,15,2.0,71.0
3088,53.0,0,15,5.0,95.0
3089,65.0,1,15,4.0,95.0
3090,58.0,1,15,3.0,90.0
3091,62.0,0,15,3.0,90.0
3092,74.0,11,9,10.0,127.0
3093,70.0,1,30,11.0,43.0
3094,74.0,15,15,10.0,127.0
3095,75.0,0,15,1.0,70.0
3096,77.0,0,15,1.0,70.0
3097,65.0,0,15,2.0,71.0
3098,72.0,2,15,2.0,71.0
3099,65.0,1,15,4.0,95.0
3100,53.0,0,15,5.0,95.0
3101,60.0,1,15,3.0,90.0
3102,63.0,0,15,3.0,90.0
3103,72.0,11,9,10.0,127.0
3104,69.0,0,30,12.0,43.0
3105,72.0,15,15,10.0,127.0
3106,65.0,0,15,2.0,71.0
3107,77.0,0,15,1.0,70.0
3108,72.0,0,15,2.0,71.0
3109,75.0,1,15,1.0,70.0
3110,65.0,0,15,4.0,95.0
3111,53.0,1,15,5.0,95.0
3112,60.0,1,15,3.0,90.0
3113,63.0,0,15,3.0,90.0
3114,74.0,11,9,10.0,127.0
3115,69.0,1,30,11.0,43.0
3116,74.0,15,15,10.0,127.0
3117,65.0,0,15,2.0,71.0
3118,72.0,2,15,2.0,71.0
3119,75.0,0,15,1.0,70.0
3120,77.0,0,15,1.0,70.0
3121,65.0,0,15,4.0,95.0
3122,53.0,1,15,5.0,95.0
3123,63.0,1,15,3.0,90.0
3124,60.0,0,15,3.0,90.0
3125,75.0,11,9,10.0,127.0
3126,60.0,0,30,12.0,43.0
3127,63.0,0,30,12.0,43.0
3128,75.0,15,15,10.0,127.0
3129,72.0,0,15,1.0,70.0
3130,69.0,0,15,2.0,71.0
3131,65.0,1,15,2.0,71.0
3132,77.0,0,15,1.0,70.0
3133,65.0,0,15,4.0,95.0
3134,53.0,1,15,5.0,95.0
3135,58.0,1,15,3.0,90.0
3136,55.0,0,15,3.0,90.0
3137,72.0,11,9,10.0,127.0
3138,63.0,0,30,11.0,43.0
3139,60.0,1,30,11.0,43.0
3140,53.0,0,30,12.0,43.0
3141,77.0,0,15,1.0,70.0
3142,70.0,0,15,2.0,71.0
3143,65.0,2,15,2.0,71.0
3144,74.0,0,15,1.0,70.0
3145,65.0,1,15,4.0,95.0
3146,53.0,0,15,5.0,95.0
3147,46.0,0,15,13.0,112.0
3148,62.0,0,15,3.0,90.0
3149,58.0,1,15,3.0,90.0
3150,34.0,0,15,14.0,112.0
3151,46.0,0,7,13.0,112.0
3152,34.0,0,7,14.0,112.0
3153,77.0,1,15,1.0,70.0
3154,74.0,0,15,1.0,70.0
3155,65.0,0,15,2.0,71.0
3156,70.0,0,15,2.0,71.0
3157,53.0,0,15,5.0,95.0
3158,65.0,1,15,4.0,95.0
3159,58.0,1,15,3.0,90.0
3160,62.0,0,15,3.0,90.0
3161,48.0,14,7,13.0,112.0
3162,36.0,1,7,14.0,112.0
3163,70.0,15,60,10.0,127.0
3164,58.0,27,30,11.0,43.0
3165,62.0,0,30,11.0,43.0
3166,53.0,0,30,12.0,43.0
3167,70.0,0,15,2.0,71.0
3168,74.0,0,15,1.0,70.0
3169,65.0,13,15,2.0,71.0
3170,77.0,0,15,1.0,70.0
3171,53.0,0,15,5.0,95.0
3172,65.0,0,15,4.0,95.0
3173,50.0,1,15,13.0,112.0
3174,38.0,1,15,14.0,112.0
3175,58.0,0,15,3.0,90.0
3176,62.0,0,15,3.0,90.0
3177,70.0,26,15,10.0,127.0
3178,70.0,0,15,2.0,71.0
3179,65.0,0,15,2.0,71.0
3180,74.0,0,15,1.0,70.0
3181,77.0,0,15,1.0,70.0
3182,53.0,0,15,5.0,95.0
3183,50.0,1,15,13.0,112.0
3184,65.0,0,15,4.0,95.0
3185,38.0,1,15,14.0,112.0
3186,62.0,0,15,3.0,90.0
3187,58.0,0,15,3.0,90.0
3188,74.0,11,9,10.0,127.0
3189,70.0,1,30,11.0,43.0
3190,62.0,1,30,12.0,43.0
3191,74.0,15,15,10.0,127.0
3192,69.0,0,15,2.0,71.0
3193,65.0,2,15,2.0,71.0
3194,77.0,0,15,1.0,70.0
3195,72.0,0,15,1.0,70.0
3196,53.0,0,15,5.0,95.0
3197,65.0,0,15,4.0,95.0
3198,57.0,1,15,3.0,90.0
3199,60.0,0,15,3.0,90.0
3200,72.0,11,9,10.0,127.0
3201,72.0,15,15,10.0,127.0
3202,69.0,0,15,2.0,71.0
3203,77.0,0,15,1.0,70.0
3204,72.0,1,15,1.0,70.0
3205,65.0,0,15,2.0,71.0
3206,53.0,1,15,5.0,95.0
3207,65.0,0,15,4.0,95.0
3208,57.0,0,15,3.0,90.0
3209,60.0,1,15,3.0,90.0
3210,74.0,11,9,10.0,127.0
3211,69.0,1,30,11.0,43.0
3212,60.0,0,30,12.0,43.0
3213,74.0,15,15,10.0,127.0
3214,69.0,2,15,2.0,71.0
3215,77.0,0,15,1.0,70.0
3216,65.0,0,15,2.0,71.0
3217,72.0,0,15,1.0,70.0
3218,65.0,0,15,4.0,95.0
3219,53.0,1,15,5.0,95.0
3220,60.0,1,15,3.0,90.0
3221,57.0,0,15,3.0,90.0
3222,75.0,11,9,10.0,127.0
3223,75.0,15,15,10.0,127.0
3224,72.0,0,15,1.0,70.0
3225,65.0,0,15,2.0,71.0
3226,69.0,0,15,2.0,71.0
3227,77.0,0,15,1.0,70.0
3228,65.0,1,15,4.0,95.0
3229,53.0,0,15,5.0,95.0
3230,57.0,1,15,3.0,90.0
3231,60.0,0,15,3.0,90.0
3232,72.0,11,9,10.0,127.0
3233,60.0,1,30,11.0,43.0
3234,57.0,1,30,12.0,43.0
3235,53.0,0,30,12.0,43.0
3236,51.0,1,120,13.0,112.0
3237,39.0,0,120,14.0,112.0
3238,65.0,0,15,2.0,71.0
3239,74.0,2,15,1.0,70.0
3240,77.0,0,15,1.0,70.0
3241,70.0,0,15,2.0,71.0
3242,65.0,0,15,4.0,95.0
3243,53.0,1,15,5.0,95.0
3244,62.0,0,15,3.0,90.0
3245,58.0,0,15,3.0,90.0
3246,79.0,15,30,10.0,127.0
3247,50.0,0,30,13.0,112.0
3248,38.0,1,30,14.0,112.0
3249,46.0,0,7,13.0,112.0
3250,34.0,1,7,14.0,112.0
3251,65.0,1,15,2.0,71.0
3252,70.0,0,15,2.0,71.0
3253,77.0,0,15,1.0,70.0
3254,74.0,0,15,1.0,70.0
3255,65.0,0,15,4.0,95.0
3256,53.0,1,15,5.0,95.0
3257,62.0,0,15,3.0,90.0
3258,58.0,0,15,3.0,90.0
3259,48.0,14,7,13.0,112.0
3260,36.0,1,7,14.0,112.0
3261,62.0,1,30,11.0,43.0
3262,53.0,0,30,12.0,43.0
3263,58.0,0,30,12.0,43.0
3264,77.0,26,42,10.0,127.0
3265,70.0,0,15,2.0,71.0
3266,74.0,0,15,1.0,70.0
3267,65.0,0,15,2.0,71.0
3268,77.0,13,15,1.0,70.0
3269,53.0,0,15,5.0,95.0
3270,65.0,0,15,4.0,95.0
3271,50.0,1,15,13.0,112.0
3272,58.0,0,15,3.0,90.0
3273,62.0,0,15,3.0,90.0
3274,38.0,1,15,14.0,112.0
3275,70.0,26,15,10.0,127.0
3276,70.0,0,15,2.0,71.0
3277,77.0,0,15,1.0,70.0
3278,65.0,0,15,2.0,71.0
3279,74.0,1,15,1.0,70.0
3280,65.0,0,15,4.0,95.0
3281,53.0,1,15,5.0,95.0
3282,50.0,0,15,13.0,112.0
3283,38.0,0,15,14.0,112.0
3284,58.0,0,15,3.0,90.0
3285,62.0,1,15,3.0,90.0
3286,74.0,11,9,10.0,127.0
3287,70.0,1,30,11.0,43.0
3288,62.0,0,30,12.0,43.0
3289,74.0,15,15,10.0,127.0
3290,72.0,0,15,1.0,70.0
3291,77.0,0,15,1.0,70.0
3292,69.0,2,15,2.0,71.0
3293,65.0,0,15,2.0,71.0
3294,53.0,1,15,5.0,95.0
3295,65.0,0,15,4.0,95.0
3296,60.0,0,15,3.0,90.0
3297,57.0,1,15,3.0,90.0
3298,72.0,11,9,10.0,127.0
3299,72.0,15,15,10.0,127.0
3300,69.0,1,15,2.0,71.0
3301,65.0,0,15,2.0,71.0
3302,77.0,0,15,1.0,70.0
3303,72.0,0,15,1.0,70.0
3304,65.0,0,15,4.0,95.0
3305,53.0,1,15,5.0,95.0
3306,57.0,0,15,3.0,90.0
3307,60.0,1,15,3.0,90.0
3308,74.0,11,9,10.0,127.0
3309,69.0,1,30,11.0,43.0
3310,60.0,0,30,12.0,43.0
3311,74.0,15,15,10.0,127.0
3312,65.0,0,15,2.0,71.0
3313,77.0,0,15,1.0,70.0
3314,72.0,2,15,1.0,70.0
3315,69.0,0,15,2.0,71.0
3316,53.0,0,15,5.0,95.0
3317,65.0,1,15,4.0,95.0
3318,60.0,0,15,3.0,90.0
3319,57.0,1,15,3.0,90.0
3320,75.0,11,9,10.0,127.0
3321,75.0,15,15,10.0,127.0
3322,69.0,0,15,2.0,71.0
3323,65.0,0,15,2.0,71.0
3324,72.0,0,15,1.0,70.0
3325,77.0,1,15,1.0,70.0
3326,65.0,0,15,4.0,95.0
3327,53.0,1,15,5.0,95.0
3328,57.0,1,15,3.0,90.0
3329,60.0,0,15,3.0,90.0
3330,72.0,11,9,10.0,127.0
3331,60.0,1,30,11.0,43.0
3332,57.0,0,30,12.0,43.0
3333,53.0,0,30,12.0,43.0
3334,51.0,0,120,13.0,112.0
3335,39.0,0,120,14.0,112.0
3336,74.0,2,15,1.0,70.0
3337,77.0,0,15,1.0,70.0
3338,70.0,0,15,2.0,71.0
3339,65.0,0,15,2.0,71.0
3340,53.0,0,15,5.0,95.0
3341,65.0,1,15,4.0,95.0
3342,62.0,0,15,3.0,90.0
3343,58.0,0,15,3.0,90.0
3344,72.0,15,30,10.0,127.0
3345,50.0,0,30,13.0,112.0
3346,38.0,1,30,14.0,112.0
3347,46.0,0,7,13.0,112.0
3348,34.0,0,7,14.0,112.0
3349,65.0,0,15,2.0,71.0
3350,74.0,0,15,1.0,70.0
3351,77.0,0,15,1.0,70.0
3352,70.0,0,15,2.0,71.0
3353,53.0,0,15,5.0,95.0
3354,65.0,1,15,4.0,95.0
3355,62.0,1,15,3.0,90.0
3356,58.0,0,15,3.0,90.0
3357,48.0,14,7,13.0,112.0
3358,36.0,1,7,14.0,112.0
3359,62.0,1,30,11.0,43.0
3360,58.0,0,30,12.0,43.0
3361,53.0,1,30,12.0,43.0
3362,70.0,26,42,10.0,127.0
3363,77.0,0,15,1.0,70.0
3364,65.0,0,15,2.0,71.0
3365,70.0,0,15,2.0,71.0
3366,74.0,13,15,1.0,70.0
3367,65.0,0,15,4.0,95.0
3368,50.0,1,15,13.0,112.0
3369,53.0,0,15,5.0,95.0
3370,62.0,0,15,3.0,90.0
3371,58.0,1,15,3.0,90.0
3372,38.0,0,15,14.0,112.0
3373,70.0,26,15,10.0,112.0
3374,58.0,1,15,11.0,112.0
3375,70.0,0,15,2.0,71.0
3376,65.0,0,15,2.0,71.0
3377,77.0,1,15,1.0,70.0
3378,74.0,0,15,1.0,70.0
3379,65.0,0,15,4.0,95.0
3380,53.0,1,15,5.0,95.0
3381,62.0,0,15,3.0,90.0
3382,58.0,1,15,3.0,90.0
3383,62.0,1,7,11.0,112.0
3384,74.0,11,9,10.0,112.0
3385,74.0,14,15,10.0,112.0
3386,62.0,1,15,11.0,112.0
3387,77.0,0,15,1.0,70.0
3388,72.0,0,15,1.0,70.0
3389,69.0,1,15,2.0,71.0
3390,65.0,0,15,2.0,71.0
3391,53.0,1,15,5.0,95.0
3392,65.0,0,15,4.0,95.0
3393,60.0,0,15,3.0,90.0
3394,57.0,1,15,3.0,90.0
3395,60.0,1,7,11.0,112.0
3396,72.0,11,9,10.0,112.0
3397,41.0,1,7,13.0,112.0
3398,29.0,0,7,14.0,112.0
3399,72.0,14,15,10.0,112.0
3400,60.0,1,15,11.0,112.0
3401,69.0,1,15,2.0,71.0
3402,65.0,0,15,2.0,71.0
3403,72.0,0,15,1.0,70.0
3404,57.0,0,15,12.0,112.0
3405,77.0,0,15,1.0,70.0
3406,53.0,0,15,5.0,95.0
3407,65.0,0,15,4.0,95.0
3408,57.0,1,15,3.0,90.0
3409,60.0,0,15,3.0,90.0
3410,62.0,1,7,11.0,112.0
3411,58.0,1,7,12.0,112.0
3412,74.0,11,9,10.0,112.0
3413,41.0,1,7,13.0,112.0
3414,29.0,1,7,14.0,112.0
3415,74.0,11,15,10.0,112.0
3416,62.0,1,15,11.0,112.0
3417,69.0,0,15,2.0,71.0
3418,58.0,1,15,12.0,112.0
3419,77.0,0,15,1.0,70.0
3420,65.0,0,15,2.0,71.0
3421,72.0,0,15,1.0,70.0
3422,53.0,0,15,13.0,112.0
3423,65.0,0,15,4.0,95.0
3424,53.0,1,15,5.0,95.0
3425,41.0,0,15,14.0,112.0
3426,57.0,0,15,3.0,90.0
3427,60.0,1,15,3.0,90.0
3428,63.0,1,7,11.0,112.0
3429,60.0,1,7,12.0,112.0
3430,75.0,11,9,10.0,112.0
3431,75.0,13,15,10.0,112.0
3432,63.0,1,15,11.0,112.0
3433,60.0,0,15,12.0,112.0
3434,65.0,0,15,2.0,71.0
3435,69.0,0,15,2.0,71.0
3436,77.0,0,15,1.0,70.0
3437,72.0,1,15,1.0,70.0
3438,53.0,1,15,5.0,95.0
3439,65.0,0,15,4.0,95.0
3440,57.0,0,15,3.0,90.0
3441,60.0,1,15,3.0,90.0
3442,60.0,1,7,11.0,112.0
3443,57.0,1,7,12.0,112.0
3444,72.0,11,9,10.0,112.0
3445,75.0,13,15,10.0,112.0
3446,63.0,1,15,11.0,112.0
3447,77.0,1,15,1.0,70.0
3448,70.0,0,15,2.0,71.0
3449,65.0,0,15,2.0,71.0
3450,74.0,0,15,1.0,70.0
3451,53.0,1,15,5.0,95.0
3452,65.0,0,15,4.0,95.0
3453,58.0,1,15,3.0,90.0
3454,62.0,0,15,3.0,90.0
3455,62.0,1,7,11.0,112.0
3456,74.0,11,9,10.0,112.0
3457,46.0,1,7,13.0,112.0
3458,34.0,1,7,14.0,112.0
3459,74.0,14,15,10.0,112.0
3460,62.0,1,15,11.0,112.0
3461,58.0,0,15,12.0,112.0
3462,70.0,0,15,2.0,71.0
3463,74.0,0,15,1.0,70.0
3464,77.0,1,15,1.0,70.0
3465,65.0,0,15,2.0,71.0
3466,65.0,0,15,4.0,95.0
3467,53.0,0,15,5.0,95.0
3468,62.0,0,15,3.0,90.0
3469,58.0,0,15,3.0,90.0
3470,63.0,1,7,11.0,112.0
3471,60.0,1,7,12.0,112.0
3472,75.0,11,9,10.0,112.0
3473,46.0,1,7,13.0,112.0
3474,34.0,1,7,14.0,112.0
3475,75.0,11,15,10.0,112.0
3476,63.0,1,15,11.0,112.0
3477,60.0,0,15,12.0,112.0
3478,77.0,0,15,1.0,70.0
3479,74.0,0,15,1.0,70.0
3480,70.0,1,15,2.0,71.0
3481,65.0,0,15,2.0,71.0
3482,65.0,0,15,4.0,95.0
3483,58.0,1,15,13.0,112.0
3484,53.0,0,15,5.0,95.0
3485,46.0,0,15,14.0,112.0
3486,62.0,1,15,3.0,90.0
3487,58.0,0,15,3.0,90.0
3488,65.0,1,7,11.0,112.0
3489,62.0,1,7,12.0,112.0
3490,77.0,11,9,10.0,112.0
3491,77.0,13,15,10.0,112.0
3492,65.0,1,15,11.0,112.0
3493,65.0,1,15,2.0,71.0
3494,62.0,0,15,12.0,112.0
3495,74.0,0,15,1.0,70.0
3496,77.0,0,15,1.0,70.0
3497,70.0,0,15,2.0,71.0
3498,65.0,1,15,4.0,95.0
3499,53.0,0,15,5.0,95.0
3500,58.0,1,15,3.0,90.0
3501,62.0,0,15,3.0,90.0
3502,62.0,1,7,11.0,112.0
3503,58.0,1,7,12.0,112.0
3504,74.0,11,9,10.0,112.0
3505,77.0,13,15,10.0,112.0
3506,65.0,1,15,11.0,112.0
3507,67.0,1,15,2.0,71.0
3508,72.0,0,15,1.0,70.0
3509,76.0,0,15,1.0,70.0
3510,64.0,0,15,2.0,71.0
3511,55.0,0,15,3.0,90.0
3512,52.0,1,15,3.0,90.0
3513,64.0,1,7,11.0,112.0
3514,76.0,11,9,10.0,112.0
3515,48.0,1,7,13.0,112.0
3516,36.0,1,7,14.0,112.0
3517,76.0,14,15,10.0,112.0
3518,64.0,1,15,11.0,112.0
3519,84.0,0,15,1.0,70.0
3520,52.0,1,15,12.0,112.0
3521,60.0,0,15,2.0,71.0
3522,72.0,0,15,1.0,70.0
3523,72.0,0,15,2.0,71.0
3524,48.0,0,15,3.0,90.0
3525,60.0,0,15,3.0,90.0
3526,65.0,1,7,11.0,112.0
3527,77.0,11,9,10.0,112.0
3528,50.0,1,7,13.0,112.0
3529,38.0,1,7,14.0,112.0
3530,53.0,1,10,12.0,112.0
3531,60.0,1,60,4.0,95.0
3532,60.0,0,60,5.0,95.0
3533,77.0,11,15,10.0,112.0
3534,65.0,1,15,11.0,112.0
3535,60.0,1,15,2.0,71.0
3536,72.0,0,15,1.0,70.0
3537,84.0,0,15,1.0,70.0
3538,72.0,0,15,2.0,71.0
3539,53.0,0,15,12.0,112.0
3540,52.0,1,15,13.0,112.0
3541,60.0,0,15,3.0,90.0
3542,40.0,0,15,14.0,112.0
3543,48.0,1,15,3.0,90.0
3544,67.0,1,7,11.0,112.0
3545,79.0,11,9,10.0,112.0
3546,55.0,1,10,12.0,112.0
3547,52.0,1,7,13.0,112.0
3548,40.0,1,7,14.0,112.0
3549,79.0,13,15,10.0,112.0
3550,67.0,1,15,11.0,112.0
3551,72.0,1,15,1.0,70.0
3552,55.0,0,15,12.0,112.0
3553,84.0,0,15,1.0,70.0
3554,72.0,0,15,2.0,71.0
3555,60.0,0,15,2.0,71.0
3556,48.0,0,15,3.0,90.0
3557,60.0,0,15,3.0,90.0
3558,69.0,1,7,11.0,112.0
3559,81.0,11,9,10.0,112.0
3560,53.0,1,7,13.0,112.0
3561,41.0,1,7,14.0,112.0
3562,57.0,1,10,12.0,112.0
3563,72.0,0,15,2.0,71.0
3564,60.0,0,15,2.0,71.0
3565,72.0,1,15,1.0,70.0
3566,84.0,0,15,1.0,70.0
3567,60.0,0,15,3.0,90.0
3568,48.0,1,15,3.0,90.0
3569,84.0,0,15,1.0,70.0
3570,72.0,0,15,1.0,70.0
3571,72.0,0,15,2.0,71.0
3572,60.0,28,15,2.0,71.0
3573,48.0,0,15,3.0,90.0
3574,60.0,2,15,3.0,90.0
3575,60.0,0,15,2.0,71.0
3576,72.0,28,15,2.0,71.0
3577,84.0,0,15,1.0,70.0
3578,72.0,0,15,1.0,70.0
3579,48.0,0,15,3.0,90.0
3580,60.0,2,15,3.0,90.0
3581,82.0,11,85,10.0,112.0
3582,70.0,1,85,11.0,112.0
3583,58.0,0,85,12.0,112.0
3584,55.0,1,85,13.0,112.0
3585,43.0,0,85,14.0,112.0
3586,79.0,26,15,10.0,112.0
3587,67.0,1,15,11.0,112.0
3588,72.0,0,15,2.0,71.0
3589,55.0,0,15,12.0,112.0
3590,60.0,1,15,2.0,71.0
3591,72.0,0,15,1.0,70.0
3592,84.0,0,15,1.0,70.0
3593,52.0,1,15,13.0,112.0
3594,48.0,0,15,3.0,90.0
3595,40.0,1,15,14.0,112.0
3596,60.0,0,15,3.0,90.0
3597,60.0,0,15,2.0,71.0
3598,84.0,0,15,1.0,70.0
3599,72.0,0,15,1.0,70.0
3600,72.0,0,15,2.0,71.0
3601,48.0,0,15,3.0,90.0
3602,60.0,0,15,3.0,90.0
3603,60.0,0,15,2.0,71.0
3604,72.0,0,15,2.0,71.0
3605,72.0,28,15,1.0,70.0
3606,84.0,0,15,1.0,70.0
3607,60.0,0,15,3.0,90.0
3608,48.0,2,15,3.0,90.0
3609,84.0,28,15,1.0,70.0
3610,72.0,0,15,1.0,70.0
3611,72.0,0,15,2.0,71.0
3612,60.0,0,15,2.0,71.0
3613,60.0,0,15,3.0,90.0
3614,48.0,2,15,3.0,90.0
3615,81.0,26,85,10.0,112.0
3616,69.0,1,85,11.0,112.0
3617,57.0,1,85,12.0,112.0
3618,53.0,1,85,13.0,112.0
3619,41.0,1,85,14.0,112.0
3620,77.0,26,15,10.0,112.0
3621,65.0,1,15,11.0,112.0
3622,72.0,0,15,1.0,70.0
3623,53.0,1,15,12.0,112.0
3624,72.0,0,15,2.0,71.0
3625,84.0,0,15,1.0,70.0
3626,60.0,0,15,2.0,71.0
3627,57.0,1,15,13.0,112.0
3628,48.0,0,15,3.0,90.0
3629,45.0,1,15,14.0,112.0
3630,60.0,0,15,3.0,90.0
3631,79.0,26,15,10.0,112.0
3632,67.0,1,15,11.0,112.0
3633,55.0,0,15,12.0,112.0
3634,72.0,1,15,1.0,70.0
3635,60.0,0,15,2.0,71.0
3636,72.0,0,15,2.0,71.0
3637,84.0,0,15,1.0,70.0
3638,58.0,1,15,13.0,112.0
3639,46.0,0,15,14.0,112.0
3640,48.0,1,15,3.0,90.0
3641,60.0,0,15,3.0,90.0
3642,76.0,26,15,10.0,112.0
3643,64.0,1,15,11.0,112.0
3644,52.0,0,15,12.0,112.0
3645,84.0,0,15,1.0,70.0
3646,60.0,0,15,2.0,71.0
3647,72.0,0,15,2.0,71.0
3648,72.0,1,15,1.0,70.0
3649,58.0,1,15,13.0,112.0
3650,46.0,0,15,14.0,112.0
3651,60.0,1,15,3.0,90.0
3652,48.0,0,15,3.0,90.0
3653,72.0,26,15,10.0,112.0
3654,60.0,1,15,11.0,112.0
3655,72.0,0,15,1.0,70.0
3656,84.0,1,15,1.0,70.0
3657,72.0,0,15,2.0,71.0
3658,60.0,0,15,2.0,71.0
3659,48.0,0,15,12.0,112.0
3660,58.0,1,15,13.0,112.0
3661,48.0,0,15,3.0,90.0
3662,60.0,0,15,3.0,90.0
3663,46.0,1,15,14.0,112.0
3664,76.0,26,15,10.0,112.0
3665,64.0,1,15,11.0,112.0
3666,52.0,0,15,12.0,112.0
3667,84.0,1,15,1.0,70.0
3668,60.0,0,15,2.0,71.0
3669,72.0,0,15,2.0,71.0
3670,72.0,0,15,1.0,70.0
3671,58.0,1,15,13.0,112.0
3672,48.0,0,15,3.0,90.0
3673,60.0,1,15,3.0,90.0
3674,46.0,0,15,14.0,112.0
3675,77.0,26,15,10.0,112.0
3676,65.0,1,15,11.0,112.0
3677,53.0,1,15,12.0,112.0
3678,57.0,1,15,13.0,112.0
3679,45.0,1,15,14.0,112.0
3680,48.0,0,15,3.0,90.0
3681,60.0,0,15,3.0,90.0
3682,69.0,28,15,2.0,91.0
3683,53.0,0,15,5.0,76.0
3684,65.0,1,15,4.0,76.0
3685,41.0,0,15,13.0,112.0
3686,57.0,1,15,3.0,90.0
3687,29.0,0,15,14.0,112.0
3688,70.0,13,12,2.0,91.0
3689,58.0,2,12,3.0,90.0
3690,70.0,13,15,2.0,91.0
3691,65.0,0,15,4.0,76.0
3692,41.0,0,15,13.0,112.0
3693,53.0,1,15,5.0,76.0
3694,29.0,0,15,14.0,112.0
3695,58.0,1,15,3.0,90.0
3696,72.0,13,12,2.0,91.0
3697,60.0,2,12,3.0,90.0
3698,72.0,13,15,2.0,91.0
3699,41.0,0,15,13.0,112.0
3700,65.0,0,15,4.0,76.0
3701,53.0,1,15,5.0,76.0
3702,29.0,0,15,14.0,112.0
3703,60.0,1,15,3.0,90.0
3704,74.0,13,12,2.0,91.0
3705,62.0,2,12,3.0,90.0
3706,65.0,0,15,4.0,76.0
3707,41.0,0,15,13.0,112.0
3708,53.0,1,15,5.0,76.0
3709,29.0,0,15,14.0,112.0
3710,40.0,0,7,13.0,112.0
3711,28.0,1,7,14.0,112.0
3712,65.0,29,15,4.0,76.0
3713,53.0,0,15,5.0,76.0
3714,43.0,14,7,13.0,112.0
3715,31.0,1,7,14.0,112.0
3716,41.0,14,15,13.0,112.0
3717,53.0,0,15,5.0,76.0
3718,65.0,0,15,4.0,76.0
3719,29.0,1,15,14.0,112.0
3720,75.0,13,81,2.0,91.0
3721,63.0,1,81,3.0,90.0
3722,72.0,28,15,2.0,91.0
3723,65.0,0,15,4.0,76.0
3724,53.0,1,15,5.0,76.0
3725,60.0,1,15,3.0,90.0
3726,53.0,0,15,5.0,76.0
3727,65.0,1,15,4.0,76.0
3728,40.0,29,7,13.0,112.0
3729,28.0,1,7,14.0,112.0
3730,65.0,0,15,4.0,76.0
3731,53.0,0,15,5.0,76.0
3732,43.0,14,7,13.0,112.0
3733,31.0,1,7,14.0,112.0
3734,65.0,0,15,4.0,76.0
3735,41.0,0,15,13.0,112.0
3736,53.0,14,15,5.0,76.0
3737,29.0,1,15,14.0,112.0
3738,74.0,28,81,2.0,91.0
3739,62.0,1,81,3.0,90.0
3740,70.0,28,15,2.0,91.0
3741,65.0,0,15,4.0,76.0
3742,53.0,1,15,5.0,76.0
3743,58.0,1,15,3.0,90.0
3744,72.0,1,15,2.0,91.0
3745,65.0,1,15,4.0,76.0
3746,53.0,0,15,5.0,76.0
3747,60.0,1,15,3.0,90.0
3748,40.0,0,7,13.0,112.0
3749,28.0,0,7,14.0,112.0
3750,69.0,28,15,2.0,91.0
3751,65.0,0,15,4.0,76.0
3752,53.0,1,15,5.0,76.0
3753,57.0,1,15,3.0,90.0
3754,43.0,14,7,13.0,112.0
3755,31.0,1,7,14.0,112.0
3756,65.0,13,15,2.0,91.0
3757,65.0,0,15,4.0,76.0
3758,41.0,1,15,13.0,112.0
3759,53.0,0,15,5.0,76.0
3760,53.0,0,15,3.0,90.0
3761,29.0,1,15,14.0,112.0
3762,75.0,26,90,10.0,112.0
3763,63.0,1,90,11.0,112.0
3764,87.0,0,90,0.0,91.0
3765,63.0,0,90,12.0,112.0
3766,75.0,0,90,1.0,90.0
3767,72.0,26,15,10.0,112.0
3768,60.0,1,15,11.0,112.0
3769,84.0,0,15,0.0,91.0
3770,72.0,0,15,1.0,90.0
3771,60.0,1,15,12.0,112.0
3772,69.0,0,15,2.0,91.0
3773,53.0,1,15,5.0,76.0
3774,65.0,0,15,4.0,76.0
3775,57.0,1,15,3.0,90.0
3776,70.0,1,15,2.0,91.0
3777,53.0,1,15,5.0,76.0
3778,65.0,0,15,4.0,76.0
3779,58.0,1,15,3.0,90.0
3780,40.0,1,7,13.0,112.0
3781,28.0,1,7,14.0,112.0
3782,74.0,28,15,2.0,91.0
3783,65.0,0,15,4.0,76.0
3784,53.0,0,15,5.0,76.0
3785,62.0,0,15,3.0,90.0
3786,43.0,14,7,13.0,112.0
3787,31.0,1,7,14.0,112.0
3788,77.0,13,15,2.0,91.0
3789,65.0,0,15,4.0,76.0
3790,41.0,0,15,13.0,112.0
3791,53.0,1,15,5.0,76.0
3792,29.0,1,15,14.0,112.0
3793,65.0,0,15,3.0,90.0
3794,74.0,26,90,10.0,112.0
3795,62.0,0,90,11.0,112.0
3796,86.0,1,90,0.0,91.0
3797,62.0,0,90,12.0,112.0
3798,74.0,0,90,1.0,90.0
3799,70.0,26,15,10.0,112.0
3800,58.0,1,15,11.0,112.0
3801,82.0,0,15,0.0,91.0
3802,74.0,1,15,2.0,91.0
3803,58.0,0,15,12.0,112.0
3804,70.0,0,15,1.0,90.0
3805,53.0,0,15,5.0,76.0
3806,65.0,1,15,4.0,76.0
3807,62.0,1,15,3.0,90.0
3808,72.0,26,15,10.0,112.0
3809,84.0,1,15,0.0,91.0
3810,60.0,0,15,11.0,112.0
3811,72.0,0,15,1.0,90.0
3812,60.0,0,15,12.0,112.0
3813,53.0,0,15,5.0,76.0
3814,65.0,1,15,4.0,76.0
3815,75.0,1,18,2.0,91.0
3816,63.0,1,18,3.0,90.0
3817,40.0,1,7,13.0,112.0
3818,28.0,1,7,14.0,112.0
3819,69.0,26,15,10.0,112.0
3820,81.0,1,15,0.0,91.0
3821,57.0,0,15,11.0,112.0
3822,69.0,0,15,1.0,90.0
3823,57.0,1,15,12.0,112.0
3824,65.0,0,15,4.0,76.0
3825,53.0,0,15,5.0,76.0
3826,43.0,14,7,13.0,112.0
3827,31.0,1,7,14.0,112.0
3828,65.0,11,15,10.0,112.0
3829,53.0,1,15,11.0,112.0
3830,77.0,0,15,0.0,91.0
3831,65.0,1,15,1.0,90.0
3832,53.0,0,15,12.0,112.0
3833,53.0,1,15,5.0,76.0
3834,65.0,0,15,4.0,76.0
3835,41.0,0,15,13.0,112.0
3836,29.0,1,15,14.0,112.0
3837,75.0,0,56,2.0,91.0
3838,63.0,0,56,3.0,90.0
3839,74.0,0,8,2.0,91.0
3840,62.0,1,8,3.0,90.0
3841,69.0,26,15,10.0,112.0
3842,57.0,1,15,11.0,112.0
3843,81.0,0,15,0.0,91.0
3844,72.0,5,8,2.0,91.0
3845,69.0,0,15,1.0,90.0
3846,57.0,1,15,12.0,112.0
3847,53.0,0,15,5.0,76.0
3848,65.0,1,15,4.0,76.0
3849,60.0,2,8,3.0,90.0
3850,74.0,6,8,2.0,91.0
3851,62.0,2,8,3.0,90.0
3852,72.0,5,5,2.0,91.0
3853,60.0,2,5,3.0,90.0
3854,70.0,4,15,10.0,112.0
3855,82.0,0,15,0.0,91.0
3856,58.0,1,15,11.0,112.0
3857,70.0,1,15,1.0,90.0
3858,58.0,0,15,12.0,112.0
3859,65.0,1,15,4.0,76.0
3860,53.0,0,15,5.0,76.0
3861,74.0,0,18,2.0,91.0
3862,62.0,1,18,3.0,90.0
3863,40.0,1,7,13.0,112.0
3864,28.0,0,7,14.0,112.0
3865,74.0,26,15,10.0,112.0
3866,62.0,0,15,11.0,112.0
3867,86.0,1,15,0.0,91.0
3868,62.0,1,15,12.0,112.0
3869,74.0,0,15,1.0,90.0
3870,65.0,0,15,4.0,76.0
3871,53.0,0,15,5.0,76.0
3872,43.0,14,7,13.0,112.0
3873,31.0,1,7,14.0,112.0
3874,77.0,11,15,10.0,112.0
3875,89.0,0,15,0.0,91.0
3876,65.0,1,15,11.0,112.0
3877,77.0,0,15,1.0,90.0
3878,65.0,1,15,12.0,112.0
3879,41.0,1,15,13.0,112.0
3880,53.0,0,15,5.0,76.0
3881,65.0,0,15,4.0,76.0
3882,29.0,1,15,14.0,112.0
3883,74.0,0,56,2.0,91.0
3884,62.0,1,56,3.0,90.0
3885,72.0,1,8,2.0,91.0
3886,60.0,1,8,3.0,90.0
3887,74.0,26,15,10.0,112.0
3888,62.0,0,15,11.0,112.0
3889,86.0,1,15,0.0,91.0
3890,70.0,5,8,2.0,91.0
3891,74.0,0,15,1.0,90.0
3892,62.0,0,15,12.0,112.0
3893,65.0,0,15,4.0,76.0
3894,53.0,1,15,5.0,76.0
3895,58.0,2,8,3.0,90.0
3896,72.0,6,8,2.0,91.0
3897,60.0,2,8,3.0,90.0
3898,70.0,5,8,2.0,91.0
3899,58.0,2,8,3.0,90.0
3900,75.0,4,15,10.0,112.0
3901,63.0,0,15,11.0,112.0
3902,63.0,0,15,12.0,112.0
3903,72.0,0,15,2.0,91.0
3904,65.0,1,15,4.0,76.0
3905,53.0,0,15,5.0,76.0
3906,87.0,1,18,0.0,91.0
3907,60.0,1,15,3.0,90.0
3908,75.0,1,18,1.0,90.0
3909,40.0,0,7,13.0,112.0
3910,28.0,1,7,14.0,112.0
3911,69.0,0,15,2.0,91.0
3912,53.0,1,15,5.0,76.0
3913,65.0,0,15,4.0,76.0
3914,57.0,0,15,3.0,90.0
3915,43.0,14,7,13.0,112.0
3916,31.0,1,7,14.0,112.0
3917,65.0,13,15,2.0,91.0
3918,65.0,0,15,4.0,76.0
3919,41.0,0,15,13.0,112.0
3920,53.0,1,15,5.0,76.0
3921,29.0,1,15,14.0,112.0
3922,53.0,0,15,3.0,90.0
3923,75.0,26,51,10.0,112.0
3924,63.0,0,51,11.0,112.0
3925,63.0,1,51,12.0,112.0
3926,87.0,1,56,0.0,91.0
3927,75.0,0,56,1.0,90.0
3928,74.0,26,8,10.0,112.0
3929,62.0,0,8,11.0,112.0
3930,86.0,1,8,0.0,91.0
3931,62.0,0,8,12.0,112.0
3932,74.0,0,8,1.0,90.0
3933,72.0,3,8,10.0,112.0
3934,84.0,0,8,0.0,91.0
3935,60.0,1,8,11.0,112.0
3936,60.0,1,8,12.0,112.0
3937,69.0,1,15,2.0,91.0
3938,72.0,0,8,1.0,90.0
3939,65.0,1,15,4.0,76.0
3940,53.0,0,15,5.0,76.0
3941,57.0,1,15,3.0,90.0
3942,74.0,6,8,10.0,112.0
3943,62.0,1,8,11.0,112.0
3944,86.0,0,8,0.0,91.0
3945,62.0,1,8,12.0,112.0
3946,74.0,0,8,1.0,90.0
3947,72.0,5,5,10.0,112.0
3948,60.0,1,5,11.0,112.0
3949,60.0,0,5,12.0,112.0
3950,84.0,0,8,0.0,91.0
3951,72.0,1,8,1.0,90.0
3952,74.0,6,15,10.0,112.0
3953,62.0,0,15,11.0,112.0
3954,62.0,0,15,12.0,112.0
3955,70.0,0,15,2.0,91.0
3956,53.0,1,15,5.0,76.0
3957,65.0,0,15,4.0,76.0
3958,86.0,1,18,0.0,91.0
3959,58.0,1,15,3.0,90.0
3960,74.0,1,18,1.0,90.0
3961,40.0,0,7,13.0,112.0
3962,28.0,0,7,14.0,112.0
3963,74.0,1,15,2.0,91.0
3964,53.0,0,15,5.0,76.0
3965,65.0,1,15,4.0,76.0
3966,62.0,1,15,3.0,90.0
3967,43.0,14,7,13.0,112.0
3968,31.0,1,7,14.0,112.0
3969,77.0,13,15,2.0,91.0
3970,53.0,0,15,5.0,76.0
3971,65.0,0,15,4.0,76.0
3972,41.0,1,15,13.0,112.0
3973,65.0,1,15,3.0,90.0
3974,29.0,0,15,14.0,112.0
3975,74.0,26,51,10.0,112.0
3976,62.0,1,51,11.0,112.0
3977,62.0,0,51,12.0,112.0
3978,86.0,0,56,0.0,91.0
3979,74.0,0,56,1.0,90.0
3980,84.0,26,8,10.0,112.0
3981,84.0,1,8,0.0,91.0
3982,60.0,0,8,11.0,112.0
3983,60.0,0,8,12.0,112.0
3984,72.0,1,8,1.0,90.0
3985,82.0,3,8,10.0,112.0
3986,58.0,0,8,11.0,112.0
3987,82.0,1,8,0.0,91.0
3988,74.0,0,15,2.0,91.0
3989,70.0,0,8,1.0,90.0
3990,58.0,1,8,12.0,112.0
3991,65.0,1,15,4.0,76.0
3992,53.0,0,15,5.0,76.0
3993,62.0,1,15,3.0,90.0
3994,84.0,6,8,10.0,112.0
3995,84.0,0,8,0.0,91.0
3996,60.0,1,8,11.0,112.0
3997,60.0,1,8,12.0,112.0
3998,72.0,0,8,1.0,90.0
3999,82.0,5,8,10.0,112.0
4000,58.0,0,8,11.0,112.0
4001,82.0,1,8,0.0,91.0
4002,58.0,1,8,12.0,112.0
4003,70.0,0,8,1.0,90.0
4004,84.0,6,15,10.0,112.0
4005,60.0,0,15,11.0,112.0
4006,60.0,1,15,12.0,112.0
4007,65.0,0,15,4.0,76.0
4008,53.0,1,15,5.0,76.0
4009,75.0,0,18,2.0,91.0
4010,63.0,1,18,3.0,90.0
4011,84.0,1,23,0.0,91.0
4012,72.0,0,23,1.0,90.0
4013,40.0,0,7,13.0,112.0
4014,28.0,1,7,14.0,112.0
4015,81.0,26,15,10.0,112.0
4016,57.0,0,15,11.0,112.0
4017,81.0,1,15,0.0,91.0
4018,57.0,0,15,12.0,112.0
4019,69.0,1,15,1.0,90.0
4020,53.0,0,15,5.0,76.0
4021,65.0,1,15,4.0,76.0
4022,43.0,14,7,13.0,112.0
4023,31.0,1,7,14.0,112.0
4024,77.0,11,15,10.0,112.0
4025,53.0,0,15,11.0,112.0
4026,77.0,1,15,0.0,91.0
4027,53.0,0,15,12.0,112.0
4028,65.0,1,15,1.0,90.0
4029,41.0,1,15,13.0,112.0
4030,65.0,0,15,4.0,76.0
4031,53.0,0,15,5.0,76.0
4032,29.0,1,15,14.0,112.0
4033,75.0,0,56,2.0,91.0
4034,63.0,0,56,3.0,90.0
4035,74.0,0,8,2.0,91.0
4036,62.0,1,8,3.0,90.0
4037,81.0,26,15,10.0,112.0
4038,81.0,1,15,0.0,91.0
4039,57.0,0,15,11.0,112.0
4040,69.0,1,15,1.0,90.0
4041,72.0,5,8,2.0,91.0
4042,57.0,0,15,12.0,112.0
4043,65.0,0,15,4.0,76.0
4044,41.0,0,15,13.0,112.0
4045,53.0,1,15,5.0,76.0
4046,29.0,0,15,14.0,112.0
4047,60.0,2,8,3.0,90.0
4048,74.0,6,8,2.0,91.0
4049,62.0,2,8,3.0,90.0
4050,72.0,5,5,2.0,91.0
4051,60.0,2,5,3.0,90.0
4052,82.0,4,7,10.0,112.0
4053,58.0,1,7,11.0,112.0
4054,58.0,1,0,12.0,112.0
4055,46.0,0,8,13.0,112.0
4056,34.0,0,8,14.0,112.0
4057,70.0,3,7,10.0,112.0
4058,58.0,1,7,11.0,112.0
4059,48.0,1,8,13.0,112.0
4060,36.0,1,8,14.0,112.0
4061,70.0,3,0,10.0,112.0
4062,58.0,1,7,11.0,112.0
4063,58.0,1,7,12.0,112.0
4064,50.0,1,8,13.0,112.0
4065,38.0,1,8,14.0,112.0
4066,58.0,1,7,11.0,112.0
4067,58.0,1,7,12.0,112.0
4068,82.0,0,30,0.0,91.0
4069,70.0,0,30,1.0,90.0
4070,74.0,0,30,2.0,91.0
4071,70.0,0,30,2.0,91.0
4072,51.0,1,8,13.0,112.0
4073,62.0,0,30,3.0,90.0
4074,39.0,1,8,14.0,112.0
4075,58.0,1,30,3.0,90.0
4076,70.0,4,7,10.0,112.0
4077,58.0,1,7,11.0,112.0
4078,58.0,1,0,12.0,112.0
4079,53.0,1,8,13.0,112.0
4080,41.0,1,8,14.0,112.0
4081,70.0,3,7,10.0,112.0
4082,58.0,1,7,11.0,112.0
4083,51.0,1,8,13.0,112.0
4084,46.0,1,45,5.0,95.0
4085,58.0,0,45,4.0,95.0
4086,39.0,1,8,14.0,112.0
4087,70.0,3,0,10.0,112.0
4088,58.0,1,7,11.0,112.0
4089,58.0,1,7,12.0,112.0
4090,50.0,1,8,13.0,112.0
4091,38.0,1,8,14.0,112.0
4092,58.0,1,7,11.0,112.0
4093,58.0,1,7,12.0,112.0
4094,48.0,1,8,13.0,112.0
4095,36.0,1,8,14.0,112.0
4096,70.0,4,23,10.0,112.0
4097,58.0,1,23,11.0,112.0
4098,58.0,1,23,12.0,112.0
4099,46.0,1,23,13.0,112.0
4100,34.0,1,23,14.0,112.0
4101,53.0,29,15,13.0,112.0
4102,41.0,1,15,14.0,112.0
4103,50.0,29,15,13.0,112.0
4104,38.0,1,15,14.0,112.0
4105,46.0,29,15,13.0,112.0
4106,34.0,1,15,14.0,112.0
4107,50.0,29,15,13.0,112.0
4108,38.0,1,15,14.0,112.0
4109,74.0,26,15,10.0,112.0
4110,62.0,1,15,11.0,112.0
4111,54.0,2,15,13.0,112.0
4112,42.0,1,15,14.0,112.0
4113,55.0,2,10,13.0,112.0
4114,43.0,1,10,14.0,112.0
4115,70.0,26,15,10.0,112.0
4116,58.0,1,15,11.0,112.0
4117,67.0,28,15,2.0,71.0
4118,79.0,0,15,1.0,70.0
4119,55.0,2,15,3.0,70.0
4120,64.0,0,15,2.0,71.0
4121,76.0,28,15,1.0,70.0
4122,52.0,1,15,13.0,112.0
4123,52.0,1,15,3.0,70.0
4124,40.0,0,15,14.0,112.0
4125,82.0,26,15,10.0,112.0
4126,70.0,1,15,11.0,112.0
4127,58.0,1,15,12.0,112.0
4128,81.0,28,15,10.0,112.0
4129,69.0,1,15,11.0,112.0
4130,57.0,1,15,12.0,112.0
4131,53.0,1,15,13.0,112.0
4132,41.0,1,15,14.0,112.0
4133,84.0,27,15,0.0,71.0
4134,72.0,1,15,2.0,71.0
4135,77.0,29,15,0.0,71.0
4136,65.0,1,15,2.0,71.0
4137,65.0,1,15,13.0,112.0
4138,53.0,1,15,14.0,112.0
4139,81.0,26,15,10.0,112.0
4140,75.0,1,15,11.0,112.0
4141,84.0,0,15,0.0,71.0
4142,87.0,0,15,0.0,71.0
4143,53.0,0,15,12.0,112.0
4144,60.0,1,15,12.0,112.0
4145,82.0,28,7,10.0,112.0
4146,74.0,1,7,11.0,112.0
4147,58.0,0,7,12.0,112.0
4148,46.0,0,8,13.0,112.0
4149,34.0,1,8,14.0,112.0
4150,70.0,3,7,10.0,127.0
4151,58.0,1,7,11.0,127.0
4152,58.0,1,7,12.0,127.0
4153,48.0,1,8,13.0,112.0
4154,36.0,1,8,14.0,112.0
4155,70.0,3,0,10.0,127.0
4156,58.0,1,7,11.0,127.0
4157,58.0,1,7,12.0,127.0
4158,50.0,1,8,13.0,112.0
4159,38.0,1,8,14.0,112.0
4160,58.0,1,7,11.0,127.0
4161,86.0,0,30,0.0,91.0
4162,82.0,0,30,0.0,91.0
4163,58.0,1,7,12.0,127.0
4164,86.0,0,30,1.0,90.0
4165,74.0,0,30,1.0,90.0
4166,74.0,0,30,2.0,91.0
4167,70.0,1,30,2.0,91.0
4168,51.0,1,8,13.0,112.0
4169,46.0,0,30,5.0,95.0
4170,58.0,1,30,4.0,95.0
4171,58.0,0,30,3.0,90.0
4172,62.0,0,30,3.0,90.0
4173,39.0,1,8,14.0,112.0
4174,70.0,4,7,10.0,127.0
4175,58.0,1,0,11.0,127.0
4176,58.0,1,0,12.0,127.0
4177,53.0,1,8,13.0,112.0
4178,41.0,1,8,14.0,112.0
4179,70.0,3,7,10.0,127.0
4180,51.0,1,8,13.0,112.0
4181,39.0,1,8,14.0,112.0
4182,70.0,4,7,10.0,127.0
4183,58.0,1,0,11.0,127.0
4184,58.0,1,7,12.0,127.0
4185,50.0,1,8,13.0,112.0
4186,38.0,1,8,14.0,112.0
4187,70.0,3,7,10.0,127.0
4188,48.0,1,6,13.0,112.0
4189,58.0,1,7,12.0,127.0
4190,36.0,1,6,14.0,112.0
4191,70.0,4,23,10.0,112.0
4192,58.0,1,23,11.0,112.0
4193,58.0,1,23,12.0,112.0
4194,46.0,1,23,13.0,112.0
4195,34.0,1,23,14.0,112.0
4196,53.0,29,15,13.0,112.0
4197,41.0,1,15,14.0,112.0
4198,50.0,29,15,13.0,112.0
4199,38.0,1,15,14.0,112.0
4200,46.0,29,15,13.0,112.0
4201,34.0,1,15,14.0,112.0
4202,50.0,29,15,13.0,112.0
4203,38.0,1,15,14.0,112.0
4204,74.0,26,15,10.0,112.0
4205,62.0,1,15,11.0,112.0
4206,54.0,2,15,13.0,112.0
4207,42.0,1,15,14.0,112.0
4208,55.0,2,10,13.0,112.0
4209,43.0,1,10,14.0,112.0
4210,70.0,26,15,10.0,112.0
4211,58.0,1,15,11.0,112.0
4212,79.0,28,15,1.0,70.0
4213,67.0,0,15,2.0,71.0
4214,55.0,2,15,3.0,70.0
4215,76.0,0,15,1.0,70.0
4216,64.0,28,15,2.0,71.0
4217,52.0,1,15,13.0,112.0
4218,52.0,1,15,3.0,70.0
4219,40.0,0,15,14.0,112.0
4220,76.0,26,15,10.0,112.0
4221,64.0,1,15,11.0,112.0
4222,52.0,1,15,12.0,112.0
4223,72.0,28,15,10.0,112.0
4224,60.0,1,15,11.0,112.0
4225,48.0,1,15,12.0,112.0
4226,48.0,1,15,13.0,112.0
4227,36.0,1,15,14.0,112.0
4228,72.0,28,15,1.0,71.0
4229,60.0,0,15,2.0,72.0
4230,48.0,2,15,3.0,71.0
4231,82.0,28,15,1.0,72.0
4232,70.0,0,15,2.0,73.0
4233,58.0,1,15,13.0,112.0
4234,58.0,1,15,3.0,72.0
4235,46.0,0,15,14.0,112.0
4236,82.0,26,15,10.0,112.0
4237,70.0,1,15,11.0,112.0
4238,58.0,1,15,12.0,112.0
4239,81.0,28,15,10.0,112.0
4240,69.0,1,15,11.0,112.0
4241,57.0,1,15,12.0,112.0
4242,57.0,1,15,13.0,112.0
4243,45.0,1,15,14.0,112.0
4244,69.0,28,15,2.0,74.0
4245,81.0,0,15,1.0,73.0
4246,57.0,2,15,3.0,73.0
4247,65.0,0,15,2.0,75.0
4248,77.0,28,15,1.0,74.0
4249,53.0,1,15,13.0,112.0
4250,53.0,1,15,3.0,74.0
4251,41.0,0,15,14.0,112.0
4252,65.0,26,15,10.0,112.0
4253,65.0,1,15,11.0,112.0
4254,53.0,1,15,12.0,112.0
4255,75.0,28,15,10.0,112.0
4256,63.0,1,15,11.0,112.0
4257,51.0,1,15,12.0,112.0
4258,63.0,1,15,13.0,112.0
4259,51.0,1,15,14.0,112.0
4260,87.0,27,15,0.0,76.0
4261,75.0,1,15,1.0,75.0
4262,63.0,2,15,3.0,75.0
4263,86.0,27,15,0.0,77.0
4264,74.0,1,15,1.0,76.0
4265,62.0,1,15,13.0,112.0
4266,62.0,0,15,3.0,76.0
4267,50.0,1,15,14.0,112.0
4268,74.0,26,15,10.0,112.0
4269,62.0,1,15,11.0,112.0
4270,50.0,1,15,12.0,112.0
4271,70.0,28,15,10.0,112.0
4272,58.0,1,15,11.0,112.0
4273,58.0,1,15,12.0,112.0
4274,46.0,1,15,13.0,112.0
4275,34.0,1,15,14.0,112.0
4276,82.0,27,15,0.0,78.0
4277,58.0,1,15,2.0,78.0
4278,70.0,0,15,1.0,77.0
4279,46.0,2,15,3.0,77.0
4280,92.0,27,15,0.0,79.0
4281,68.0,1,15,2.0,79.0
4282,80.0,0,15,1.0,78.0
4283,56.0,1,15,13.0,112.0
4284,44.0,0,15,14.0,112.0
4285,56.0,1,15,3.0,78.0
4286,80.0,26,15,10.0,112.0
4287,68.0,1,15,11.0,112.0
4288,56.0,1,15,12.0,112.0
4289,79.0,28,15,10.0,112.0
4290,67.0,1,15,11.0,112.0
4291,55.0,1,15,12.0,112.0
4292,55.0,1,15,13.0,112.0
4293,43.0,1,15,14.0,112.0
4294,91.0,27,15,0.0,80.0
4295,67.0,1,15,2.0,80.0
4296,79.0,0,15,1.0,79.0
4297,55.0,2,15,3.0,79.0
4298,90.0,27,15,0.0,81.0
4299,78.0,0,15,1.0,80.0
4300,66.0,1,15,2.0,81.0
4301,54.0,1,15,13.0,112.0
4302,42.0,0,15,14.0,112.0
4303,54.0,1,15,3.0,80.0
4304,78.0,26,15,10.0,112.0
4305,66.0,1,15,11.0,112.0
4306,54.0,1,15,12.0,112.0
4307,53.0,1,15,13.0,112.0
4308,41.0,1,15,14.0,112.0
4309,65.0,0,30,2.0,91.0
4310,77.0,58,30,1.0,90.0
4311,53.0,2,30,3.0,90.0
4312,70.0,28,30,2.0,91.0
4313,82.0,0,30,1.0,90.0
4314,58.0,2,30,3.0,90.0
4315,81.0,0,30,1.0,90.0
4316,69.0,28,30,2.0,91.0
4317,57.0,2,30,3.0,90.0
4318,79.0,28,30,1.0,90.0
4319,67.0,0,30,2.0,91.0
4320,55.0,2,30,3.0,90.0
4321,77.0,27,30,0.0,91.0
4322,65.0,0,30,2.0,91.0
4323,77.0,1,30,1.0,90.0
4324,65.0,0,30,4.0,95.0
4325,53.0,1,30,5.0,95.0
4326,53.0,1,30,3.0,90.0
4327,87.0,27,30,0.0,91.0
4328,69.0,0,30,2.0,91.0
4329,81.0,0,30,1.0,90.0
4330,75.0,0,30,2.0,91.0
4331,75.0,1,30,1.0,90.0
4332,60.0,0,30,5.0,95.0
4333,63.0,1,30,4.0,95.0
4334,63.0,1,30,3.0,90.0
4335,57.0,0,30,3.0,90.0
4336,77.0,26,0,10.0,112.0
4337,86.0,27,30,0.0,91.0
4338,74.0,0,30,2.0,91.0
4339,70.0,0,30,2.0,91.0
4340,82.0,1,30,1.0,90.0
4341,74.0,0,30,1.0,90.0
4342,53.0,1,270,12.0,112.0
4343,62.0,0,30,4.0,95.0
4344,58.0,1,30,5.0,95.0
4345,58.0,1,30,3.0,90.0
4346,62.0,0,30,3.0,90.0
4347,84.0,1,30,0.0,91.0
4348,72.0,0,30,2.0,91.0
4349,63.0,0,30,2.0,91.0
4350,75.0,0,30,1.0,90.0
4351,81.0,0,30,1.0,90.0
4352,53.0,0,30,5.0,95.0
4353,60.0,1,30,4.0,95.0
4354,57.0,0,30,3.0,90.0
4355,60.0,0,30,3.0,90.0
4356,65.0,1,330,11.0,112.0
4357,82.0,27,30,0.0,91.0
4358,70.0,0,30,2.0,91.0
4359,62.0,0,30,2.0,91.0
4360,65.0,1,60,12.0,112.0
4361,82.0,1,30,1.0,90.0
4362,74.0,0,30,1.0,90.0
4363,58.0,0,30,4.0,95.0
4364,50.0,1,30,5.0,95.0
4365,65.0,0,60,13.0,112.0
4366,53.0,1,60,14.0,112.0
4367,58.0,1,30,3.0,90.0
4368,86.0,26,15,10.0,112.0
4369,74.0,1,15,11.0,112.0
4370,62.0,1,15,12.0,112.0
4371,58.0,1,15,13.0,112.0
4372,46.0,1,15,14.0,112.0
4373,82.0,11,15,10.0,112.0
4374,70.0,1,15,11.0,112.0
4375,58.0,1,15,12.0,112.0
4376,62.0,1,15,13.0,112.0
4377,50.0,1,15,14.0,112.0
4378,81.0,11,15,10.0,112.0
4379,69.0,1,15,11.0,112.0
4380,57.0,1,15,12.0,112.0
4381,65.0,1,15,13.0,112.0
4382,53.0,1,15,14.0,112.0
4383,81.0,26,15,10.0,112.0
4384,63.0,1,15,11.0,112.0
4385,60.0,1,15,12.0,112.0
4386,53.0,1,15,13.0,112.0
4387,41.0,1,15,14.0,112.0
4388,81.0,26,15,10.0,112.0
4389,63.0,1,15,11.0,112.0
4390,60.0,1,15,12.0,112.0
4391,53.0,1,15,13.0,112.0
4392,41.0,1,15,14.0,112.0
4393,82.0,26,8,10.0,112.0
4394,65.0,1,8,11.0,112.0
4395,62.0,1,8,12.0,112.0
4396,81.0,3,8,10.0,112.0
4397,63.0,1,8,11.0,112.0
4398,60.0,1,8,12.0,112.0
4399,53.0,1,15,13.0,112.0
4400,41.0,1,15,14.0,112.0
4401,79.0,6,8,10.0,112.0
4402,62.0,1,8,11.0,112.0
4403,58.0,1,8,12.0,112.0
4404,81.0,5,8,10.0,112.0
4405,63.0,1,8,11.0,112.0
4406,60.0,1,8,12.0,112.0
4407,82.0,6,30,10.0,112.0
4408,62.0,1,30,11.0,112.0
4409,58.0,1,30,12.0,112.0
4410,58.0,1,30,13.0,112.0
4411,46.0,1,30,14.0,112.0
4412,77.0,56,30,10.0,112.0
4413,65.0,1,30,11.0,112.0
4414,53.0,1,30,12.0,112.0
4415,82.0,26,30,10.0,112.0
4416,70.0,1,30,11.0,112.0
4417,58.0,1,30,12.0,112.0
4418,81.0,28,30,10.0,112.0
4419,69.0,1,30,11.0,112.0
4420,57.0,1,30,12.0,112.0
4421,53.0,1,30,13.0,112.0
4422,41.0,1,30,14.0,112.0
4423,79.0,26,30,10.0,112.0
4424,67.0,1,30,11.0,112.0
4425,55.0,1,30,12.0,112.0
4426,58.0,1,30,13.0,112.0
4427,46.0,1,30,14.0,112.0
4428,77.0,26,30,10.0,112.0
4429,65.0,1,30,11.0,112.0
4430,53.0,1,30,12.0,112.0
4431,57.0,1,30,13.0,112.0
4432,45.0,1,30,14.0,112.0
4433,87.0,26,30,10.0,112.0
4434,75.0,1,30,11.0,112.0
4435,63.0,1,30,12.0,112.0
4436,60.0,1,30,13.0,112.0
4437,48.0,1,30,14.0,112.0
4438,86.0,26,30,10.0,112.0
4439,74.0,1,30,11.0,112.0
4440,65.0,0,210,2.0,91.0
4441,62.0,1,30,12.0,112.0
4442,77.0,0,210,1.0,90.0
4443,58.0,1,30,13.0,112.0
4444,46.0,1,30,14.0,112.0
4445,53.0,2,210,3.0,90.0
4446,84.0,26,30,10.0,112.0
4447,72.0,0,30,11.0,112.0
4448,60.0,1,30,12.0,112.0
4449,63.0,0,30,13.0,112.0
4450,51.0,1,30,14.0,112.0
4451,82.0,26,30,10.0,112.0
4452,89.0,1,60,0.0,91.0
4453,70.0,1,30,11.0,112.0
4454,77.0,0,60,2.0,91.0
4455,58.0,1,30,12.0,112.0
4456,53.0,1,60,5.0,95.0
4457,65.0,0,60,4.0,95.0
4458,62.0,1,30,13.0,112.0
4459,65.0,0,60,3.0,90.0
4460,50.0,1,30,14.0,112.0
4461,86.0,27,15,0.0,91.0
4462,74.0,1,15,2.0,91.0
4463,58.0,0,15,4.0,95.0
4464,46.0,1,15,5.0,95.0
4465,62.0,1,15,3.0,90.0
4466,82.0,12,15,0.0,91.0
4467,70.0,1,15,2.0,91.0
4468,50.0,1,15,5.0,95.0
4469,62.0,0,15,4.0,95.0
4470,58.0,1,15,3.0,90.0
4471,81.0,12,15,0.0,91.0
4472,69.0,1,15,2.0,91.0
4473,53.0,0,15,5.0,95.0
4474,65.0,1,15,4.0,95.0
4475,57.0,1,15,3.0,90.0
4476,60.0,26,7,10.0,112.0
4477,63.0,0,7,11.0,112.0
4478,60.0,0,7,12.0,112.0
4479,81.0,1,15,0.0,91.0
4480,69.0,0,15,2.0,91.0
4481,75.0,0,15,1.0,90.0
4482,72.0,0,15,1.0,90.0
4483,65.0,1,15,2.0,91.0
4484,53.0,0,15,5.0,95.0
4485,60.0,0,15,4.0,95.0
4486,63.0,1,15,3.0,90.0
4487,60.0,0,15,3.0,90.0
4488,63.0,11,7,10.0,112.0
4489,60.0,1,7,11.0,112.0
4490,57.0,1,7,12.0,112.0
4491,53.0,1,30,13.0,43.0
4492,41.0,0,30,14.0,43.0
4493,69.0,13,7,10.0,112.0
4494,63.0,0,7,11.0,112.0
4495,60.0,0,7,12.0,112.0
4496,81.0,1,15,0.0,91.0
4497,75.0,1,15,1.0,90.0
4498,72.0,0,15,1.0,90.0
4499,65.0,0,15,2.0,91.0
4500,69.0,0,15,2.0,91.0
4501,53.0,1,15,5.0,95.0
4502,60.0,0,15,4.0,95.0
4503,60.0,0,15,3.0,90.0
4504,63.0,1,15,3.0,90.0
4505,72.0,11,7,10.0,112.0
4506,60.0,1,7,11.0,112.0
4507,57.0,1,7,12.0,112.0
4508,53.0,0,30,13.0,43.0
4509,41.0,0,0,14.0,43.0
4510,75.0,13,7,10.0,112.0
4511,63.0,0,7,11.0,112.0
4512,60.0,0,7,12.0,112.0
4513,82.0,1,8,0.0,91.0
4514,74.0,0,8,1.0,90.0
4515,77.0,1,8,1.0,90.0
4516,81.0,4,8,0.0,91.0
4517,72.0,0,8,1.0,90.0
4518,75.0,1,8,1.0,90.0
4519,65.0,0,15,2.0,91.0
4520,69.0,0,15,2.0,91.0
4521,53.0,0,15,5.0,95.0
4522,60.0,1,15,4.0,95.0
4523,60.0,0,15,3.0,90.0
4524,63.0,1,15,3.0,90.0
4525,81.0,6,7,10.0,112.0
4526,63.0,0,7,11.0,112.0
4527,79.0,1,8,0.0,91.0
4528,60.0,0,7,12.0,112.0
4529,74.0,1,8,1.0,90.0
4530,70.0,0,8,1.0,90.0
4531,81.0,6,8,0.0,91.0
4532,75.0,0,8,1.0,90.0
4533,72.0,1,8,1.0,90.0
4534,53.0,0,30,13.0,43.0
4535,82.0,6,15,10.0,112.0
4536,62.0,1,15,11.0,112.0
4537,82.0,0,30,0.0,91.0
4538,70.0,0,30,2.0,91.0
4539,70.0,0,30,1.0,90.0
4540,65.0,1,30,2.0,91.0
4541,74.0,0,30,1.0,90.0
4542,58.0,0,30,12.0,112.0
4543,46.0,0,30,5.0,95.0
4544,58.0,1,30,4.0,95.0
4545,58.0,1,30,3.0,90.0
4546,62.0,0,30,3.0,90.0
4547,81.0,26,7,10.0,112.0
4548,58.0,0,40,13.0,43.0
4549,84.0,15,7,10.0,112.0
4550,46.0,0,60,14.0,43.0
4551,82.0,15,15,10.0,112.0
4552,70.0,1,15,11.0,112.0
4553,58.0,1,30,12.0,112.0
4554,79.0,27,30,0.0,63.0
4555,75.0,0,30,1.0,62.0
4556,67.0,1,30,2.0,63.0
4557,63.0,0,30,2.0,63.0
4558,46.0,1,60,13.0,43.0
4559,34.0,1,60,14.0,43.0
4560,55.0,0,30,3.0,75.0
4561,51.0,1,30,3.0,75.0
4562,77.0,27,30,0.0,63.0
4563,62.0,0,30,2.0,63.0
4564,65.0,0,30,2.0,63.0
4565,74.0,1,30,1.0,62.0
4566,58.0,1,60,4.0,80.0
4567,46.0,0,60,5.0,80.0
4568,53.0,2,30,3.0,75.0
4569,50.0,0,30,3.0,75.0
4570,69.0,27,7,11.0,112.0
4571,57.0,1,7,12.0,112.0
4572,72.0,14,7,11.0,112.0
4573,60.0,1,7,12.0,112.0
4574,70.0,14,15,11.0,112.0
4575,58.0,1,15,12.0,112.0
4576,75.0,27,30,0.0,63.0
4577,60.0,1,30,2.0,63.0
4578,63.0,0,30,2.0,63.0
4579,72.0,0,30,1.0,62.0
4580,46.0,1,60,13.0,43.0
4581,51.0,0,30,3.0,75.0
4582,48.0,1,30,3.0,75.0
4583,34.0,1,60,14.0,43.0
4584,74.0,27,30,0.0,63.0
4585,62.0,1,30,2.0,63.0
4586,70.0,0,30,1.0,62.0
4587,58.0,0,30,2.0,63.0
4588,58.0,1,60,4.0,80.0
4589,46.0,0,60,5.0,80.0
4590,46.0,0,30,3.0,75.0
4591,50.0,2,30,3.0,75.0
4592,81.0,26,7,10.0,112.0
4593,84.0,15,7,10.0,112.0
4594,82.0,15,15,10.0,112.0
4595,70.0,1,40,11.0,112.0
4596,58.0,1,40,12.0,112.0
4597,80.0,27,30,0.0,63.0
4598,65.0,1,30,2.0,63.0
4599,77.0,0,30,1.0,62.0
4600,68.0,0,30,2.0,63.0
4601,46.0,1,60,13.0,43.0
4602,34.0,1,60,14.0,43.0
4603,56.0,0,30,3.0,75.0
4604,53.0,1,30,3.0,75.0
4605,79.0,27,30,0.0,63.0
4606,63.0,1,30,2.0,63.0
4607,75.0,0,30,1.0,62.0
4608,67.0,0,30,2.0,63.0
4609,58.0,0,60,4.0,80.0
4610,46.0,1,60,5.0,80.0
4611,55.0,0,30,3.0,75.0
4612,51.0,2,30,3.0,75.0
4613,69.0,27,7,11.0,112.0
4614,57.0,1,7,12.0,112.0
4615,72.0,14,7,11.0,112.0
4616,60.0,1,7,12.0,112.0
4617,70.0,14,15,11.0,112.0
4618,58.0,1,15,12.0,112.0
4619,77.0,27,30,0.0,63.0
4620,74.0,0,30,1.0,62.0
4621,62.0,0,30,2.0,63.0
4622,65.0,1,30,2.0,63.0
4623,46.0,1,60,13.0,43.0
4624,50.0,1,30,3.0,75.0
4625,53.0,0,30,3.0,75.0
4626,34.0,1,60,14.0,43.0
4627,75.0,27,30,0.0,63.0
4628,72.0,0,30,1.0,62.0
4629,60.0,1,30,2.0,63.0
4630,63.0,0,30,2.0,63.0
4631,46.0,1,60,5.0,80.0
4632,58.0,0,60,4.0,80.0
4633,51.0,0,30,3.0,75.0
4634,48.0,2,30,3.0,75.0
4635,81.0,26,7,10.0,112.0
4636,84.0,15,7,10.0,112.0
4637,82.0,15,15,10.0,112.0
4638,70.0,1,40,11.0,112.0
4639,58.0,1,40,12.0,112.0
4640,82.0,27,30,0.0,63.0
4641,79.0,0,30,1.0,62.0
4642,67.0,0,30,2.0,63.0
4643,70.0,1,30,2.0,63.0
4644,46.0,1,60,13.0,43.0
4645,34.0,1,60,14.0,43.0
4646,55.0,1,30,3.0,75.0
4647,58.0,0,30,3.0,75.0
4648,80.0,27,30,0.0,63.0
4649,77.0,1,30,1.0,62.0
4650,65.0,0,30,2.0,63.0
4651,68.0,0,30,2.0,63.0
4652,58.0,1,60,4.0,80.0
4653,46.0,0,60,5.0,80.0
4654,56.0,2,30,3.0,75.0
4655,53.0,0,30,3.0,75.0
4656,69.0,27,7,11.0,112.0
4657,57.0,1,7,12.0,112.0
4658,72.0,14,7,11.0,112.0
4659,60.0,1,7,12.0,112.0
4660,70.0,14,15,11.0,112.0
4661,58.0,1,15,12.0,112.0
4662,79.0,27,30,0.0,63.0
4663,67.0,0,30,2.0,63.0
4664,75.0,1,30,1.0,62.0
4665,63.0,0,30,2.0,63.0
4666,46.0,1,60,13.0,43.0
4667,51.0,0,30,3.0,75.0
4668,55.0,1,30,3.0,75.0
4669,34.0,1,60,14.0,43.0
4670,77.0,27,30,0.0,63.0
4671,62.0,0,30,2.0,63.0
4672,74.0,1,30,1.0,62.0
4673,65.0,0,30,2.0,63.0
4674,46.0,0,60,5.0,80.0
4675,58.0,1,60,4.0,80.0
4676,50.0,2,30,3.0,75.0
4677,53.0,0,30,3.0,75.0
4678,81.0,26,7,10.0,112.0
4679,84.0,15,7,10.0,112.0
4680,82.0,15,15,10.0,112.0
4681,70.0,1,40,11.0,112.0
4682,58.0,1,40,12.0,112.0
4683,84.0,27,30,0.0,76.0
4684,80.0,0,30,1.0,75.0
4685,68.0,0,30,2.0,76.0
4686,72.0,1,30,2.0,76.0
4687,46.0,1,60,13.0,43.0
4688,56.0,0,30,3.0,90.0
4689,34.0,1,60,14.0,43.0
4690,60.0,1,30,3.0,90.0
4691,82.0,27,24,0.0,76.0
4692,46.0,1,53,5.0,95.0
4693,70.0,0,24,2.0,76.0
4694,67.0,0,24,2.0,76.0
4695,79.0,1,24,1.0,75.0
4696,58.0,0,53,4.0,95.0
4697,55.0,2,24,3.0,90.0
4698,58.0,0,24,3.0,90.0
4699,80.0,27,30,0.0,76.0
4700,65.0,1,30,2.0,76.0
4701,68.0,0,30,2.0,76.0
4702,77.0,0,30,1.0,75.0
4703,56.0,0,30,3.0,90.0
4704,53.0,1,30,3.0,90.0
4705,79.0,27,24,0.0,76.0
4706,67.0,0,24,2.0,76.0
4707,46.0,0,53,5.0,95.0
4708,63.0,1,24,2.0,76.0
4709,58.0,1,53,4.0,95.0
4710,75.0,0,24,1.0,75.0
4711,51.0,2,24,3.0,90.0
4712,55.0,0,24,3.0,90.0
4713,77.0,27,30,0.0,76.0
4714,74.0,0,30,1.0,75.0
4715,65.0,1,30,2.0,76.0
4716,62.0,0,30,2.0,76.0
4717,53.0,0,30,3.0,90.0
4718,50.0,1,30,3.0,90.0
4719,84.0,27,24,0.0,76.0
4720,46.0,0,53,5.0,95.0
4721,72.0,0,24,2.0,76.0
4722,80.0,0,24,1.0,75.0
4723,58.0,1,53,4.0,95.0
4724,68.0,1,24,2.0,76.0
4725,56.0,2,24,3.0,90.0
4726,60.0,0,24,3.0,90.0
4727,82.0,27,30,0.0,76.0
4728,70.0,1,30,2.0,76.0
4729,67.0,0,30,2.0,76.0
4730,79.0,0,30,1.0,75.0
4731,55.0,0,30,3.0,90.0
4732,58.0,1,30,3.0,90.0
4733,80.0,27,24,0.0,76.0
4734,46.0,0,53,5.0,95.0
4735,68.0,0,24,2.0,76.0
4736,65.0,1,24,2.0,76.0
4737,77.0,0,24,1.0,75.0
4738,58.0,1,53,4.0,95.0
4739,53.0,0,24,3.0,90.0
4740,56.0,2,24,3.0,90.0
4741,79.0,27,30,0.0,76.0
4742,67.0,0,30,2.0,76.0
4743,63.0,0,30,2.0,76.0
4744,75.0,1,30,1.0,75.0
4745,55.0,0,30,3.0,90.0
4746,51.0,1,30,3.0,90.0
4747,77.0,27,24,0.0,76.0
4748,62.0,0,24,2.0,76.0
4749,65.0,1,24,2.0,76.0
4750,46.0,0,53,5.0,95.0
4751,58.0,1,53,4.0,95.0
4752,74.0,0,24,1.0,75.0
4753,53.0,2,24,3.0,90.0
4754,50.0,0,24,3.0,90.0
4755,84.0,27,30,0.0,76.0
4756,72.0,1,30,2.0,76.0
4757,80.0,0,30,1.0,75.0
4758,68.0,0,30,2.0,76.0
4759,60.0,1,30,3.0,90.0
4760,56.0,0,30,3.0,90.0
4761,82.0,27,24,0.0,76.0
4762,70.0,0,24,2.0,76.0
4763,58.0,0,53,4.0,95.0
4764,67.0,0,24,2.0,76.0
4765,79.0,1,24,1.0,75.0
4766,46.0,1,53,5.0,95.0
4767,55.0,2,24,3.0,90.0
4768,58.0,0,24,3.0,90.0
4769,80.0,27,30,0.0,76.0
4770,65.0,1,30,2.0,76.0
4771,68.0,0,30,2.0,76.0
4772,77.0,0,30,1.0,75.0
4773,53.0,0,30,3.0,90.0
4774,56.0,1,30,3.0,90.0
4775,79.0,27,24,0.0,76.0
4776,58.0,1,53,4.0,95.0
4777,67.0,0,24,2.0,76.0
4778,63.0,0,24,2.0,76.0
4779,75.0,1,24,1.0,75.0
4780,46.0,0,53,5.0,95.0
4781,51.0,0,24,3.0,90.0
4782,55.0,2,24,3.0,90.0
4783,77.0,27,30,0.0,76.0
4784,62.0,1,30,2.0,76.0
4785,74.0,0,30,1.0,75.0
4786,65.0,0,30,2.0,76.0
4787,50.0,0,30,3.0,90.0
4788,53.0,1,30,3.0,90.0
4789,84.0,27,24,0.0,76.0
4790,46.0,0,53,5.0,95.0
4791,58.0,1,53,4.0,95.0
4792,72.0,0,24,2.0,76.0
4793,80.0,0,24,1.0,75.0
4794,68.0,1,24,2.0,76.0
4795,56.0,0,24,3.0,90.0
4796,60.0,2,24,3.0,90.0
4797,82.0,27,30,0.0,76.0
4798,70.0,1,30,2.0,76.0
4799,67.0,0,30,2.0,76.0
4800,79.0,0,30,1.0,75.0
4801,58.0,0,30,3.0,90.0
4802,55.0,1,30,3.0,90.0
4803,80.0,27,24,0.0,76.0
4804,77.0,1,24,1.0,75.0
4805,68.0,0,24,2.0,76.0
4806,65.0,0,24,2.0,76.0
4807,46.0,0,53,5.0,95.0
4808,58.0,1,53,4.0,95.0
4809,56.0,2,24,3.0,90.0
4810,53.0,0,24,3.0,90.0
4811,79.0,27,30,0.0,76.0
4812,67.0,0,30,2.0,76.0
4813,75.0,1,30,1.0,75.0
4814,63.0,0,30,2.0,76.0
4815,55.0,1,30,3.0,90.0
4816,51.0,0,30,3.0,90.0
4817,77.0,27,24,0.0,76.0
4818,74.0,1,24,1.0,75.0
4819,58.0,0,53,4.0,95.0
4820,46.0,1,53,5.0,95.0
4821,65.0,0,24,2.0,76.0
4822,62.0,0,24,2.0,76.0
4823,53.0,0,24,3.0,90.0
4824,50.0,2,24,3.0,90.0
4825,84.0,0,30,0.0,76.0
4826,68.0,0,30,2.0,76.0
4827,72.0,0,30,2.0,76.0
4828,80.0,0,30,1.0,75.0
4829,50.0,1,30,12.0,112.0
4830,46.0,0,30,13.0,112.0
4831,56.0,0,30,3.0,90.0
4832,60.0,0,30,3.0,90.0
4833,34.0,1,30,14.0,112.0
4834,82.0,27,24,0.0,76.0
4835,58.0,0,53,4.0,95.0
4836,46.0,1,53,5.0,95.0
4837,79.0,1,24,1.0,75.0
4838,70.0,0,24,2.0,76.0
4839,67.0,0,24,2.0,76.0
4840,82.0,26,57,10.0,112.0
4841,70.0,1,57,11.0,112.0
4842,58.0,0,24,3.0,90.0
4843,55.0,0,24,3.0,90.0
4844,51.0,0,27,12.0,112.0
4845,48.0,1,27,13.0,112.0
4846,36.0,1,27,14.0,112.0
4847,80.0,0,30,0.0,76.0
4848,65.0,0,30,2.0,76.0
4849,68.0,0,30,2.0,76.0
4850,53.0,0,30,12.0,112.0
4851,77.0,1,30,1.0,75.0
4852,50.0,0,30,13.0,112.0
4853,53.0,0,30,3.0,90.0
4854,38.0,1,30,14.0,112.0
4855,56.0,0,30,3.0,90.0
4856,79.0,27,24,0.0,76.0
4857,67.0,1,24,2.0,76.0
4858,63.0,0,24,2.0,76.0
4859,58.0,1,53,4.0,95.0
4860,75.0,0,24,1.0,75.0
4861,46.0,0,53,5.0,95.0
4862,82.0,26,57,10.0,112.0
4863,70.0,1,57,11.0,112.0
4864,51.0,0,24,3.0,90.0
4865,55.0,0,24,3.0,90.0
4866,55.0,0,27,12.0,112.0
4867,51.0,1,27,13.0,112.0
4868,39.0,1,27,14.0,112.0
4869,53.0,0,90,13.0,112.0
4870,41.0,1,90,14.0,112.0
4871,82.0,26,102,10.0,97.0
4872,70.0,1,102,11.0,97.0
4873,80.0,0,102,0.0,76.0
4874,62.0,0,102,2.0,76.0
4875,68.0,1,102,2.0,76.0
4876,74.0,0,102,1.0,75.0
4877,50.0,0,102,12.0,97.0
4878,58.0,0,102,4.0,95.0
4879,46.0,1,102,5.0,80.0
4880,56.0,0,102,3.0,90.0
4881,53.0,0,102,3.0,90.0
4882,46.0,119,7,13.0,112.0
4883,34.0,1,7,14.0,112.0
4884,48.0,14,7,13.0,112.0
4885,36.0,1,7,14.0,112.0
4886,50.0,14,15,13.0,112.0
4887,38.0,1,15,14.0,112.0
4888,50.0,29,7,13.0,112.0
4889,38.0,1,7,14.0,112.0
4890,51.0,14,7,13.0,112.0
4891,39.0,1,7,14.0,112.0
4892,53.0,14,15,13.0,112.0
4893,41.0,1,15,14.0,112.0
4894,53.0,29,7,13.0,112.0
4895,41.0,1,7,14.0,112.0
4896,55.0,14,7,13.0,112.0
4897,43.0,1,7,14.0,112.0
4898,56.0,14,60,13.0,112.0
4899,44.0,1,60,14.0,112.0
4900,58.0,0,5,2.0,91.0
4901,70.0,88,5,1.0,90.0
4902,46.0,1,7,5.0,95.0
4903,58.0,0,7,4.0,95.0
4904,60.0,14,5,2.0,91.0
4905,72.0,0,5,1.0,90.0
4906,46.0,1,7,5.0,95.0
4907,58.0,0,7,4.0,95.0
4908,74.0,14,15,1.0,90.0
4909,62.0,0,15,2.0,91.0
4910,58.0,0,15,4.0,95.0
4911,46.0,1,15,5.0,95.0
4912,58.0,0,7,2.0,91.0
4913,62.0,29,7,2.0,91.0
4914,70.0,0,7,1.0,90.0
4915,74.0,0,7,1.0,90.0
4916,46.0,1,7,5.0,95.0
4917,58.0,0,7,4.0,95.0
4918,72.0,14,7,1.0,90.0
4919,63.0,0,7,2.0,91.0
4920,75.0,0,7,1.0,90.0
4921,60.0,0,7,2.0,91.0
4922,58.0,0,7,4.0,95.0
4923,46.0,1,7,5.0,95.0
4924,74.0,0,15,1.0,90.0
4925,77.0,0,15,1.0,90.0
4926,62.0,14,15,2.0,91.0
4927,65.0,0,15,2.0,91.0
4928,46.0,0,15,5.0,95.0
4929,58.0,1,15,4.0,95.0
4930,62.0,0,7,2.0,91.0
4931,65.0,0,7,2.0,91.0
4932,74.0,0,7,1.0,90.0
4933,77.0,29,7,1.0,90.0
4934,46.0,1,7,5.0,95.0
4935,58.0,0,7,4.0,95.0
4936,53.0,1,7,3.0,90.0
4937,50.0,0,7,3.0,90.0
4938,75.0,0,7,1.0,90.0
4939,79.0,13,7,1.0,90.0
4940,63.0,0,7,2.0,91.0
4941,67.0,0,7,2.0,91.0
4942,46.0,0,7,5.0,95.0
4943,58.0,1,7,4.0,95.0
4944,55.0,0,7,3.0,90.0
4945,51.0,1,7,3.0,90.0
4946,74.0,0,7,1.0,90.0
4947,65.0,0,7,2.0,91.0
4948,68.0,13,7,2.0,91.0
4949,80.0,0,7,1.0,90.0
4950,46.0,1,7,5.0,95.0
4951,58.0,0,7,4.0,95.0
4952,53.0,1,7,3.0,90.0
4953,56.0,0,7,3.0,90.0
4954,65.0,0,7,2.0,91.0
4955,68.0,0,7,2.0,91.0
4956,74.0,0,7,1.0,90.0
4957,80.0,13,7,1.0,90.0
4958,46.0,0,7,5.0,95.0
4959,58.0,1,7,4.0,95.0
4960,56.0,1,7,3.0,90.0
4961,53.0,0,7,3.0,90.0
4962,68.0,0,7,2.0,91.0
4963,80.0,0,7,1.0,90.0
4964,65.0,0,7,2.0,91.0
4965,74.0,13,7,1.0,90.0
4966,46.0,0,7,5.0,95.0
4967,58.0,1,7,4.0,95.0
4968,56.0,0,7,3.0,90.0
4969,53.0,1,7,3.0,90.0
4970,74.0,13,7,1.0,90.0
4971,65.0,0,7,2.0,91.0
4972,68.0,0,7,2.0,91.0
4973,80.0,0,7,1.0,90.0
4974,58.0,1,7,4.0,95.0
4975,46.0,0,7,5.0,95.0
4976,53.0,1,7,3.0,90.0
4977,56.0,0,7,3.0,90.0
4978,65.0,0,20,2.0,91.0
4979,80.0,0,20,1.0,90.0
4980,68.0,13,20,2.0,91.0
4981,74.0,0,20,1.0,90.0
4982,58.0,0,20,4.0,95.0
4983,46.0,1,20,5.0,95.0
4984,53.0,0,20,3.0,90.0
4985,56.0,1,20,3.0,90.0
4986,79.0,41,8,10.0,112.0
4987,82.0,7,8,10.0,112.0
4988,80.0,8,15,10.0,112.0
4989,67.0,122,7,2.0,91.0
4990,79.0,0,7,1.0,90.0
4991,63.0,0,7,2.0,91.0
4992,75.0,0,7,1.0,90.0
4993,58.0,1,7,4.0,95.0
4994,58.0,0,7,5.0,95.0
4995,55.0,1,7,3.0,90.0
4996,51.0,0,7,3.0,90.0
4997,79.0,0,7,1.0,90.0
4998,63.0,13,7,2.0,91.0
4999,75.0,0,7,1.0,90.0
5000,67.0,0,7,2.0,91.0
5001,58.0,0,7,5.0,95.0
5002,58.0,1,7,4.0,95.0
5003,55.0,0,7,3.0,90.0
5004,51.0,1,7,3.0,90.0
5005,79.0,0,7,1.0,90.0
5006,75.0,13,7,1.0,90.0
5007,63.0,0,7,2.0,91.0
5008,67.0,0,7,2.0,91.0
5009,58.0,1,7,5.0,95.0
5010,58.0,0,7,4.0,95.0
5011,51.0,0,7,3.0,90.0
5012,55.0,1,7,3.0,90.0
5013,63.0,13,7,2.0,91.0
5014,67.0,0,7,2.0,91.0
5015,75.0,0,7,1.0,90.0
5016,79.0,0,7,1.0,90.0
5017,58.0,0,7,5.0,95.0
5018,58.0,1,7,4.0,95.0
5019,55.0,1,7,3.0,90.0
5020,51.0,0,7,3.0,90.0
5021,75.0,0,20,1.0,90.0
5022,79.0,0,20,1.0,90.0
5023,63.0,0,20,2.0,91.0
5024,67.0,13,20,2.0,91.0
5025,58.0,1,20,4.0,95.0
5026,58.0,0,20,5.0,95.0
5027,51.0,1,20,3.0,90.0
5028,55.0,0,20,3.0,90.0
5029,77.0,41,8,10.0,112.0
5030,80.0,7,8,10.0,112.0
5031,79.0,8,15,10.0,112.0
5032,79.0,105,8,10.0,112.0
5033,82.0,3,8,10.0,112.0
5034,58.0,0,14,11.0,112.0
5035,67.0,1,14,11.0,112.0
5036,55.0,1,14,12.0,112.0
5037,51.0,0,14,12.0,112.0
5038,51.0,1,14,13.0,112.0
5039,39.0,1,14,14.0,112.0
5040,80.0,8,8,10.0,112.0
5041,86.0,0,7,0.0,91.0
5042,89.0,0,7,0.0,91.0
5043,80.0,0,7,1.0,90.0
5044,77.0,0,7,1.0,90.0
5045,77.0,0,7,2.0,91.0
5046,74.0,1,7,2.0,91.0
5047,58.0,0,9,11.0,112.0
5048,68.0,1,9,11.0,112.0
5049,46.0,0,7,5.0,95.0
5050,58.0,1,7,4.0,95.0
5051,62.0,0,7,3.0,90.0
5052,56.0,0,9,12.0,112.0
5053,53.0,0,9,12.0,112.0
5054,65.0,0,7,3.0,90.0
5055,46.0,0,9,13.0,112.0
5056,34.0,1,9,14.0,112.0
5057,89.0,0,7,0.0,91.0
5058,86.0,1,7,0.0,91.0
5059,79.0,11,8,10.0,112.0
5060,77.0,0,7,1.0,90.0
5061,80.0,1,7,1.0,90.0
5062,74.0,0,7,2.0,91.0
5063,77.0,0,7,2.0,91.0
5064,46.0,0,7,5.0,95.0
5065,58.0,0,7,4.0,95.0
5066,68.0,0,9,11.0,112.0
5067,58.0,0,9,11.0,112.0
5068,65.0,0,7,3.0,90.0
5069,56.0,0,9,12.0,112.0
5070,53.0,0,9,12.0,112.0
5071,62.0,0,7,3.0,90.0
5072,46.0,1,9,13.0,112.0
5073,34.0,1,9,14.0,112.0
5074,82.0,3,8,10.0,112.0
5075,80.0,8,8,10.0,112.0
5076,89.0,0,7,0.0,91.0
5077,86.0,0,7,0.0,91.0
5078,77.0,0,7,1.0,90.0
5079,77.0,0,7,2.0,91.0
5080,74.0,0,7,2.0,91.0
5081,80.0,0,7,1.0,90.0
5082,58.0,1,7,4.0,95.0
5083,58.0,1,9,11.0,112.0
5084,46.0,0,7,5.0,95.0
5085,68.0,0,9,11.0,112.0
5086,56.0,0,9,12.0,112.0
5087,53.0,1,9,12.0,112.0
5088,62.0,1,7,3.0,90.0
5089,65.0,0,7,3.0,90.0
5090,46.0,0,9,13.0,112.0
5091,34.0,0,14,14.0,112.0
5092,86.0,0,7,0.0,91.0
5093,89.0,0,7,0.0,91.0
5094,79.0,11,8,10.0,112.0
5095,77.0,0,7,2.0,91.0
5096,77.0,0,7,1.0,90.0
5097,74.0,0,7,2.0,91.0
5098,80.0,0,7,1.0,90.0
5099,46.0,0,7,5.0,95.0
5100,58.0,0,9,11.0,112.0
5101,58.0,0,7,4.0,95.0
5102,68.0,1,9,11.0,112.0
5103,62.0,0,7,3.0,90.0
5104,53.0,1,9,12.0,112.0
5105,65.0,1,7,3.0,90.0
5106,56.0,0,9,12.0,112.0
5107,46.0,1,9,13.0,112.0
5108,34.0,0,9,14.0,112.0
5109,82.0,3,8,10.0,112.0
5110,80.0,8,15,10.0,112.0
5111,68.0,0,18,11.0,112.0
5112,58.0,0,18,11.0,112.0
5113,53.0,0,18,12.0,112.0
5114,56.0,1,18,12.0,112.0
5115,46.0,0,18,13.0,112.0
5116,89.0,0,20,0.0,91.0
5117,86.0,1,20,0.0,91.0
5118,77.0,0,20,2.0,91.0
5119,80.0,0,20,1.0,90.0
5120,34.0,0,18,14.0,112.0
5121,74.0,0,20,2.0,91.0
5122,77.0,0,20,1.0,90.0
5123,46.0,0,20,5.0,95.0
5124,58.0,1,20,4.0,95.0
5125,65.0,1,20,3.0,90.0
5126,62.0,0,20,3.0,90.0
5127,67.0,42,8,11.0,112.0
5128,55.0,1,8,12.0,112.0
5129,70.0,6,8,11.0,112.0
5130,58.0,1,8,12.0,112.0
5131,68.0,7,20,11.0,112.0
5132,56.0,1,20,12.0,112.0
5133,77.0,103,8,10.0,112.0
5134,65.0,1,14,11.0,112.0
5135,80.0,3,8,10.0,112.0
5136,58.0,0,14,11.0,112.0
5137,53.0,0,14,12.0,112.0
5138,50.0,1,14,12.0,112.0
5139,46.0,1,14,13.0,112.0
5140,34.0,1,14,14.0,112.0
5141,91.0,0,7,0.0,91.0
5142,87.0,1,7,0.0,91.0
5143,79.0,8,8,10.0,112.0
5144,79.0,0,7,2.0,91.0
5145,75.0,0,7,2.0,91.0
5146,58.0,0,9,11.0,112.0
5147,67.0,0,9,11.0,112.0
5148,58.0,1,7,5.0,95.0
5149,58.0,0,7,4.0,95.0
5150,63.0,0,7,3.0,90.0
5151,55.0,1,9,12.0,112.0
5152,51.0,0,9,12.0,112.0
5153,67.0,1,7,3.0,90.0
5154,51.0,0,9,13.0,112.0
5155,39.0,0,9,14.0,112.0
5156,77.0,11,8,10.0,112.0
5157,87.0,0,7,0.0,91.0
5158,91.0,0,7,0.0,91.0
5159,75.0,0,7,2.0,91.0
5160,79.0,0,7,2.0,91.0
5161,58.0,0,7,5.0,95.0
5162,58.0,0,7,4.0,95.0
5163,67.0,1,9,11.0,112.0
5164,58.0,0,9,11.0,112.0
5165,67.0,0,7,3.0,90.0
5166,51.0,1,9,12.0,112.0
5167,63.0,0,7,3.0,90.0
5168,55.0,0,9,12.0,112.0
5169,51.0,1,9,13.0,112.0
5170,39.0,1,9,14.0,112.0
5171,80.0,3,8,10.0,112.0
5172,87.0,0,7,0.0,91.0
5173,79.0,8,8,10.0,112.0
5174,91.0,1,7,0.0,91.0
5175,75.0,1,7,2.0,91.0
5176,79.0,0,7,2.0,91.0
5177,58.0,0,7,5.0,95.0
5178,58.0,0,7,4.0,95.0
5179,67.0,0,9,11.0,112.0
5180,58.0,0,9,11.0,112.0
5181,67.0,0,7,3.0,90.0
5182,55.0,0,9,12.0,112.0
5183,51.0,0,9,12.0,112.0
5184,63.0,0,7,3.0,90.0
5185,51.0,1,9,13.0,112.0
5186,39.0,1,9,14.0,112.0
5187,91.0,1,7,0.0,91.0
5188,87.0,0,7,0.0,91.0
5189,77.0,11,8,10.0,112.0
5190,75.0,0,7,2.0,91.0
5191,79.0,1,7,2.0,91.0
5192,58.0,0,9,11.0,112.0
5193,58.0,1,7,4.0,95.0
5194,67.0,0,9,11.0,112.0
5195,58.0,0,7,5.0,95.0
5196,67.0,1,7,3.0,90.0
5197,63.0,0,7,3.0,90.0
5198,51.0,0,9,12.0,112.0
5199,55.0,0,9,12.0,112.0
5200,51.0,0,9,13.0,112.0
5201,39.0,0,9,14.0,112.0
5202,80.0,3,8,10.0,112.0
5203,79.0,8,15,10.0,112.0
5204,67.0,0,18,11.0,112.0
5205,58.0,0,18,11.0,112.0
5206,55.0,0,18,12.0,112.0
5207,51.0,1,18,12.0,112.0
5208,91.0,1,20,0.0,91.0
5209,51.0,0,18,13.0,112.0
5210,87.0,0,20,0.0,91.0
5211,79.0,0,20,2.0,91.0
5212,75.0,0,20,2.0,91.0
5213,39.0,1,18,14.0,112.0
5214,58.0,0,20,4.0,95.0
5215,58.0,1,20,5.0,95.0
5216,67.0,0,20,3.0,90.0
5217,63.0,0,20,3.0,90.0
5218,65.0,42,8,11.0,112.0
5219,53.0,1,8,12.0,112.0
5220,68.0,6,8,11.0,112.0
5221,56.0,1,8,12.0,112.0
5222,67.0,7,20,11.0,112.0
5223,55.0,1,20,12.0,112.0
5224,79.0,118,9,10.0,112.0
5225,67.0,1,9,11.0,112.0
5226,63.0,0,9,12.0,112.0
5227,91.0,0,15,0.0,91.0
5228,87.0,0,15,0.0,91.0
5229,67.0,1,15,2.0,91.0
5230,75.0,0,15,1.0,90.0
5231,79.0,0,15,1.0,90.0
5232,63.0,0,15,2.0,91.0
5233,51.0,1,15,13.0,112.0
5234,79.0,6,9,10.0,112.0
5235,39.0,0,15,14.0,112.0
5236,51.0,1,15,3.0,90.0
5237,67.0,1,9,11.0,112.0
5238,63.0,1,9,12.0,112.0
5239,79.0,8,9,10.0,112.0
5240,67.0,1,9,11.0,112.0
5241,63.0,1,9,12.0,112.0
5242,79.0,8,9,10.0,112.0
5243,67.0,1,9,11.0,112.0
5244,63.0,0,9,12.0,112.0
5245,87.0,0,15,0.0,91.0
5246,91.0,0,15,0.0,91.0
5247,63.0,1,15,2.0,91.0
5248,67.0,0,15,2.0,91.0
5249,75.0,0,15,1.0,90.0
5250,79.0,0,15,1.0,90.0
5251,51.0,1,15,13.0,112.0
5252,39.0,1,15,14.0,112.0
5253,79.0,6,9,10.0,112.0
5254,51.0,0,15,3.0,90.0
5255,67.0,1,9,11.0,112.0
5256,63.0,1,9,12.0,112.0
5257,79.0,8,9,10.0,112.0
5258,67.0,1,9,11.0,112.0
5259,63.0,1,9,12.0,112.0
5260,77.0,8,9,10.0,112.0
5261,65.0,0,9,11.0,112.0
5262,62.0,1,9,12.0,112.0
5263,86.0,1,15,0.0,91.0
5264,89.0,0,15,0.0,91.0
5265,62.0,0,15,2.0,91.0
5266,65.0,0,15,2.0,91.0
5267,77.0,0,15,1.0,90.0
5268,74.0,0,15,1.0,90.0
5269,53.0,1,15,13.0,112.0
5270,77.0,6,9,10.0,112.0
5271,53.0,1,15,3.0,90.0
5272,41.0,0,15,14.0,112.0
5273,65.0,1,9,11.0,112.0
5274,62.0,1,9,12.0,112.0
5275,77.0,8,9,10.0,112.0
5276,65.0,1,9,11.0,112.0
5277,62.0,1,9,12.0,112.0
5278,81.0,8,9,10.0,112.0
5279,63.0,0,9,11.0,112.0
5280,60.0,1,9,12.0,112.0
5281,93.0,1,15,0.0,91.0
5282,84.0,0,15,0.0,91.0
5283,69.0,0,15,2.0,91.0
5284,60.0,0,15,2.0,91.0
5285,72.0,0,15,1.0,90.0
5286,81.0,0,15,1.0,90.0
5287,41.0,1,15,13.0,112.0
5288,41.0,0,15,3.0,90.0
5289,81.0,6,9,10.0,112.0
5290,29.0,1,15,14.0,112.0
5291,63.0,1,9,11.0,112.0
5292,60.0,1,9,12.0,112.0
5293,81.0,8,9,10.0,112.0
5294,63.0,1,9,11.0,112.0
5295,60.0,1,9,12.0,112.0
5296,82.0,8,9,10.0,112.0
5297,62.0,0,9,11.0,112.0
5298,58.0,0,9,12.0,112.0
5299,94.0,0,15,0.0,91.0
5300,86.0,1,15,0.0,91.0
5301,74.0,0,15,1.0,90.0
5302,82.0,0,15,1.0,90.0
5303,62.0,1,15,2.0,91.0
5304,70.0,0,15,2.0,91.0
5305,46.0,1,15,13.0,112.0
5306,46.0,1,15,3.0,90.0
5307,82.0,6,9,10.0,112.0
5308,34.0,0,15,14.0,112.0
5309,62.0,1,9,11.0,112.0
5310,58.0,1,9,12.0,112.0
5311,82.0,8,9,10.0,112.0
5312,62.0,1,9,11.0,112.0
5313,58.0,1,9,12.0,112.0
5314,79.0,8,9,10.0,112.0
5315,67.0,0,9,11.0,112.0
5316,63.0,0,9,12.0,112.0
5317,91.0,1,15,0.0,91.0
5318,87.0,0,15,0.0,91.0
5319,63.0,0,15,2.0,91.0
5320,79.0,0,15,1.0,90.0
5321,75.0,0,15,1.0,90.0
5322,67.0,1,15,2.0,91.0
5323,51.0,1,15,13.0,112.0
5324,79.0,6,9,10.0,112.0
5325,51.0,1,15,3.0,90.0
5326,39.0,0,15,14.0,112.0
5327,67.0,1,9,11.0,112.0
5328,63.0,1,9,12.0,112.0
5329,79.0,8,9,10.0,112.0
5330,67.0,1,9,11.0,112.0
5331,63.0,1,9,12.0,112.0
5332,77.0,8,9,10.0,112.0
5333,65.0,0,9,11.0,112.0
5334,62.0,0,9,12.0,112.0
5335,86.0,0,15,0.0,91.0
5336,89.0,1,15,0.0,91.0
5337,65.0,1,15,2.0,91.0
5338,62.0,0,15,2.0,91.0
5339,74.0,0,15,1.0,90.0
5340,77.0,0,15,1.0,90.0
5341,53.0,1,15,13.0,112.0
5342,77.0,6,9,10.0,112.0
5343,41.0,0,15,14.0,112.0
5344,53.0,1,15,3.0,90.0
5345,65.0,1,9,11.0,112.0
5346,62.0,1,9,12.0,112.0
5347,77.0,8,9,10.0,112.0
5348,65.0,1,9,11.0,112.0
5349,62.0,1,9,12.0,112.0
5350,81.0,8,9,10.0,112.0
5351,63.0,0,9,11.0,112.0
5352,60.0,0,9,12.0,112.0
5353,84.0,0,15,0.0,91.0
5354,93.0,1,15,0.0,91.0
5355,69.0,0,15,2.0,91.0
5356,60.0,1,15,2.0,91.0
5357,72.0,0,15,1.0,90.0
5358,81.0,0,15,1.0,90.0
5359,41.0,1,15,13.0,112.0
5360,41.0,1,15,3.0,90.0
5361,81.0,6,9,10.0,112.0
5362,29.0,0,15,14.0,112.0
5363,63.0,1,9,11.0,112.0
5364,60.0,1,9,12.0,112.0
5365,81.0,8,9,10.0,112.0
5366,63.0,1,9,11.0,112.0
5367,60.0,1,9,12.0,112.0
5368,82.0,8,7,10.0,112.0
5369,62.0,0,7,11.0,112.0
5370,58.0,1,0,12.0,112.0
5371,82.0,3,7,10.0,112.0
5372,62.0,1,7,11.0,112.0
5373,79.0,5,0,10.0,112.0
5374,67.0,1,0,11.0,112.0
5375,63.0,1,7,12.0,112.0
5376,86.0,1,30,0.0,91.0
5377,63.0,1,7,12.0,112.0
5378,89.0,0,30,0.0,91.0
5379,82.0,0,30,1.0,90.0
5380,74.0,0,30,1.0,90.0
5381,62.0,0,30,2.0,91.0
5382,70.0,1,30,2.0,91.0
5383,46.0,0,30,13.0,112.0
5384,53.0,1,30,5.0,95.0
5385,65.0,0,30,4.0,95.0
5386,34.0,1,30,14.0,112.0
5387,46.0,0,30,3.0,90.0
5388,77.0,5,0,10.0,112.0
5389,65.0,1,7,11.0,112.0
5390,62.0,1,7,12.0,112.0
5391,65.0,1,7,11.0,112.0
5392,62.0,1,7,12.0,112.0
5393,81.0,6,7,10.0,112.0
5394,63.0,1,7,11.0,112.0
5395,60.0,0,7,12.0,112.0
5396,81.0,3,7,10.0,112.0
5397,63.0,1,7,11.0,112.0
5398,89.0,0,15,0.0,91.0
5399,84.0,0,15,0.0,91.0
5400,60.0,1,7,12.0,112.0
5401,69.0,0,15,2.0,91.0
5402,81.0,0,15,1.0,90.0
5403,72.0,1,15,1.0,90.0
5404,60.0,0,15,2.0,91.0
5405,65.0,0,15,4.0,95.0
5406,41.0,1,15,13.0,112.0
5407,53.0,0,0,5.0,95.0
5408,41.0,0,15,3.0,90.0
5409,29.0,1,15,14.0,112.0
5410,82.0,3,0,10.0,112.0
5411,62.0,1,0,11.0,112.0
5412,58.0,1,0,12.0,112.0
5413,79.0,6,7,10.0,112.0
5414,67.0,1,0,11.0,112.0
5415,63.0,1,0,12.0,112.0
5416,79.0,5,7,10.0,112.0
5417,89.0,0,30,0.0,91.0
5418,86.0,0,30,0.0,91.0
5419,82.0,0,30,1.0,90.0
5420,74.0,0,30,1.0,90.0
5421,62.0,0,30,2.0,91.0
5422,70.0,0,30,2.0,91.0
5423,46.0,1,30,13.0,112.0
5424,65.0,0,30,4.0,95.0
5425,34.0,0,30,14.0,112.0
5426,46.0,1,30,3.0,90.0
5427,77.0,6,7,10.0,112.0
5428,65.0,1,7,11.0,112.0
5429,62.0,1,0,12.0,112.0
5430,77.0,5,7,10.0,112.0
5431,65.0,1,7,11.0,112.0
5432,81.0,3,0,10.0,112.0
5433,63.0,0,7,11.0,112.0
5434,60.0,1,0,12.0,112.0
5435,63.0,1,7,11.0,112.0
5436,84.0,0,15,0.0,91.0
5437,89.0,1,0,0.0,91.0
5438,69.0,0,15,2.0,91.0
5439,81.0,0,15,1.0,90.0
5440,72.0,0,15,1.0,90.0
5441,60.0,0,15,2.0,91.0
5442,53.0,0,15,5.0,95.0
5443,65.0,0,0,4.0,95.0
5444,41.0,1,15,13.0,112.0
5445,29.0,1,15,14.0,112.0
5446,41.0,0,15,3.0,90.0
5447,82.0,6,7,10.0,112.0
5448,62.0,0,7,11.0,112.0
5449,58.0,1,0,12.0,112.0
5450,82.0,3,7,10.0,112.0
5451,62.0,1,7,11.0,112.0
5452,79.0,5,0,10.0,112.0
5453,67.0,1,0,11.0,112.0
5454,63.0,1,0,12.0,112.0
5455,86.0,0,30,0.0,91.0
5456,82.0,0,30,1.0,90.0
5457,62.0,0,30,2.0,91.0
5458,70.0,0,30,2.0,91.0
5459,74.0,0,30,1.0,90.0
5460,53.0,1,30,5.0,95.0
5461,46.0,0,30,13.0,112.0
5462,34.0,0,30,14.0,112.0
5463,46.0,1,30,3.0,90.0
5464,77.0,5,0,10.0,112.0
5465,65.0,1,7,11.0,112.0
5466,62.0,1,7,12.0,112.0
5467,65.0,1,7,11.0,112.0
5468,62.0,1,7,12.0,112.0
5469,81.0,3,0,10.0,112.0
5470,63.0,0,7,11.0,112.0
5471,60.0,1,0,12.0,112.0
5472,63.0,1,7,11.0,112.0
5473,89.0,1,0,0.0,91.0
5474,84.0,0,15,0.0,91.0
5475,60.0,0,15,2.0,91.0
5476,72.0,0,15,1.0,90.0
5477,81.0,0,15,1.0,90.0
5478,69.0,1,15,2.0,91.0
5479,65.0,0,15,4.0,95.0
5480,53.0,0,15,5.0,95.0
5481,41.0,1,15,13.0,112.0
5482,41.0,0,15,3.0,90.0
5483,29.0,1,15,14.0,112.0
5484,82.0,6,7,10.0,112.0
5485,62.0,0,7,11.0,112.0
5486,58.0,1,0,12.0,112.0
5487,82.0,3,7,10.0,112.0
5488,62.0,1,7,11.0,112.0
5489,79.0,5,0,10.0,112.0
5490,67.0,1,7,11.0,112.0
5491,63.0,1,0,12.0,112.0
5492,67.0,1,7,11.0,112.0
5493,86.0,0,30,0.0,91.0
5494,62.0,0,30,2.0,91.0
5495,70.0,0,30,2.0,91.0
5496,82.0,0,30,1.0,90.0
5497,74.0,1,30,1.0,90.0
5498,65.0,1,30,4.0,95.0
5499,46.0,0,30,13.0,112.0
5500,53.0,0,30,5.0,95.0
5501,34.0,0,30,14.0,112.0
5502,46.0,1,30,3.0,90.0
5503,77.0,5,0,10.0,112.0
5504,65.0,1,7,11.0,112.0
5505,62.0,1,7,12.0,112.0
5506,65.0,1,7,11.0,112.0
5507,62.0,1,7,12.0,112.0
5508,81.0,6,7,10.0,112.0
5509,63.0,0,7,11.0,112.0
5510,60.0,1,7,12.0,112.0
5511,81.0,3,7,10.0,112.0
5512,63.0,1,7,11.0,112.0
5513,60.0,1,7,12.0,112.0
5514,89.0,0,0,0.0,91.0
5515,84.0,1,15,0.0,91.0
5516,69.0,0,15,2.0,91.0
5517,72.0,0,15,1.0,90.0
5518,81.0,0,15,1.0,90.0
5519,60.0,0,15,2.0,91.0
5520,65.0,0,15,4.0,95.0
5521,41.0,1,15,13.0,112.0
5522,53.0,0,15,5.0,95.0
5523,29.0,1,15,14.0,112.0
5524,41.0,0,15,3.0,90.0
5525,82.0,6,7,10.0,112.0
5526,62.0,1,7,11.0,112.0
5527,58.0,0,7,12.0,112.0
5528,86.0,0,11,0.0,91.0
5529,82.0,0,11,1.0,90.0
5530,74.0,0,11,1.0,90.0
5531,62.0,1,11,2.0,91.0
5532,70.0,0,11,2.0,91.0
5533,58.0,1,11,4.0,95.0
5534,58.0,3,7,10.0,112.0
5535,46.0,0,11,5.0,95.0
5536,46.0,1,11,3.0,90.0
5537,58.0,1,7,11.0,112.0
5538,58.0,1,7,12.0,112.0
5539,46.0,0,14,13.0,112.0
5540,34.0,0,14,14.0,112.0
5541,58.0,6,7,10.0,112.0
5542,58.0,1,0,11.0,112.0
5543,58.0,1,0,12.0,112.0
5544,82.0,0,11,0.0,91.0
5545,70.0,0,11,1.0,90.0
5546,82.0,0,11,1.0,90.0
5547,82.0,0,11,2.0,91.0
5548,70.0,0,11,2.0,91.0
5549,58.0,3,7,10.0,112.0
5550,46.0,0,11,5.0,95.0
5551,58.0,1,11,4.0,95.0
5552,46.0,0,11,3.0,90.0
5553,46.0,0,14,13.0,112.0
5554,34.0,1,14,14.0,112.0
5555,58.0,3,0,10.0,112.0
5556,58.0,1,0,11.0,112.0
5557,58.0,0,7,12.0,112.0
5558,82.0,1,11,0.0,91.0
5559,70.0,0,11,1.0,90.0
5560,82.0,0,11,2.0,91.0
5561,70.0,1,11,2.0,91.0
5562,82.0,0,11,1.0,90.0
5563,46.0,0,11,5.0,95.0
5564,58.0,1,11,4.0,95.0
5565,46.0,0,11,3.0,90.0
5566,58.0,1,7,12.0,112.0
5567,46.0,0,14,13.0,112.0
5568,34.0,1,14,14.0,112.0
5569,58.0,3,0,10.0,112.0
5570,58.0,1,7,11.0,112.0
5571,58.0,0,7,12.0,112.0
5572,82.0,0,11,0.0,91.0
5573,82.0,1,11,1.0,90.0
5574,70.0,0,11,1.0,90.0
5575,82.0,0,11,2.0,91.0
5576,70.0,0,11,2.0,91.0
5577,58.0,0,11,4.0,95.0
5578,46.0,0,11,5.0,95.0
5579,58.0,1,7,11.0,112.0
5580,46.0,1,11,3.0,90.0
5581,58.0,1,7,12.0,112.0
5582,46.0,1,14,13.0,112.0
5583,34.0,0,14,14.0,112.0
5584,58.0,6,7,10.0,112.0
5585,58.0,1,7,11.0,112.0
5586,58.0,0,7,12.0,112.0
5587,82.0,0,11,0.0,91.0
5588,82.0,1,11,2.0,91.0
5589,82.0,0,11,1.0,90.0
5590,70.0,0,11,2.0,91.0
5591,70.0,0,11,1.0,90.0
5592,58.0,0,11,4.0,95.0
5593,58.0,3,7,10.0,112.0
5594,46.0,0,11,5.0,95.0
5595,46.0,1,11,3.0,90.0
5596,58.0,1,7,11.0,112.0
5597,58.0,1,7,12.0,112.0
5598,46.0,1,14,13.0,112.0
5599,34.0,0,14,14.0,112.0
5600,58.0,6,7,10.0,112.0
5601,58.0,0,7,11.0,112.0
5602,58.0,0,7,12.0,112.0
5603,82.0,1,11,0.0,91.0
5604,70.0,0,11,2.0,91.0
5605,82.0,0,11,2.0,91.0
5606,70.0,0,11,1.0,90.0
5607,82.0,1,11,1.0,90.0
5608,46.0,1,11,5.0,95.0
5609,58.0,0,11,4.0,95.0
5610,58.0,3,7,10.0,112.0
5611,46.0,0,11,3.0,90.0
5612,58.0,1,7,11.0,112.0
5613,58.0,1,7,12.0,112.0
5614,46.0,0,14,13.0,112.0
5615,34.0,1,14,14.0,112.0
5616,58.0,3,0,10.0,112.0
5617,58.0,1,0,11.0,112.0
5618,58.0,0,7,12.0,112.0
5619,82.0,0,11,0.0,91.0
5620,82.0,1,11,1.0,90.0
5621,82.0,0,11,2.0,91.0
5622,70.0,0,11,1.0,90.0
5623,70.0,0,11,2.0,91.0
5624,58.0,0,11,4.0,95.0
5625,46.0,0,11,5.0,95.0
5626,46.0,1,11,3.0,90.0
5627,58.0,1,7,12.0,112.0
5628,46.0,1,14,13.0,112.0
5629,34.0,0,14,14.0,112.0
5630,58.0,3,0,10.0,112.0
5631,58.0,0,7,11.0,112.0
5632,58.0,0,7,12.0,112.0
5633,82.0,1,11,0.0,91.0
5634,82.0,0,11,2.0,91.0
5635,70.0,1,11,1.0,90.0
5636,70.0,0,11,2.0,91.0
5637,82.0,0,11,1.0,90.0
5638,46.0,1,11,5.0,95.0
5639,58.0,0,11,4.0,95.0
5640,46.0,0,11,3.0,90.0
5641,58.0,1,7,11.0,112.0
5642,58.0,1,7,12.0,112.0
5643,46.0,0,14,13.0,112.0
5644,34.0,1,14,14.0,112.0
5645,58.0,6,60,10.0,112.0
5646,82.0,1,60,0.0,91.0
5647,58.0,0,60,11.0,112.0
5648,70.0,0,60,1.0,90.0
5649,82.0,1,60,2.0,91.0
5650,70.0,0,60,2.0,91.0
5651,58.0,0,60,12.0,112.0
5652,82.0,0,60,1.0,90.0
5653,46.0,1,60,13.0,112.0
5654,58.0,0,60,4.0,95.0
5655,46.0,0,60,5.0,95.0
5656,34.0,0,60,14.0,112.0
5657,46.0,1,60,3.0,90.0
