,note,step,duration,channel,velocity
0,59.0,1.0,540.0,6.0,0.0
1,71.0,2.0,540.0,0.0,0.0
2,47.0,7.0,150.0,7.0,0.0
3,71.0,0.0,540.0,4.0,0.0
4,59.0,2.0,540.0,4.0,0.0
5,47.0,3.0,540.0,1.0,0.0
6,59.0,0.0,540.0,1.0,0.0
7,71.0,10.0,540.0,5.0,0.0
8,59.0,0.0,540.0,5.0,0.0
9,35.0,185.0,150.0,8.0,0.0
10,59.0,7.0,150.0,7.0,0.0
11,47.0,167.0,150.0,8.0,0.0
12,59.0,7.0,150.0,7.0,0.0
13,47.0,185.0,150.0,8.0,0.0
14,56.0,1.0,540.0,6.0,0.0
15,68.0,2.0,540.0,0.0,0.0
16,44.0,7.0,150.0,7.0,0.0
17,68.0,2.0,540.0,4.0,0.0
18,59.0,3.0,540.0,1.0,0.0
19,47.0,0.0,540.0,1.0,0.0
20,68.0,10.0,540.0,5.0,0.0
21,32.0,185.0,150.0,8.0,0.0
22,56.0,7.0,150.0,7.0,0.0
23,44.0,167.0,150.0,8.0,0.0
24,56.0,7.0,150.0,7.0,0.0
25,44.0,183.0,150.0,8.0,0.0
26,51.0,1.0,150.0,6.0,0.0
27,63.0,1.0,150.0,0.0,0.0
28,51.0,1.0,150.0,7.0,0.0
29,63.0,2.0,150.0,4.0,0.0
30,47.0,3.0,150.0,1.0,0.0
31,59.0,0.0,150.0,1.0,0.0
32,63.0,1.0,150.0,5.0,0.0
33,39.0,55.0,150.0,8.0,0.0
34,53.0,1.0,30.0,6.0,0.0
35,65.0,1.0,30.0,0.0,0.0
36,53.0,1.0,30.0,7.0,0.0
37,65.0,5.0,30.0,4.0,0.0
38,59.0,3.0,330.0,1.0,0.0
39,47.0,0.0,330.0,1.0,0.0
40,65.0,1.0,30.0,5.0,0.0
41,41.0,23.0,30.0,8.0,0.0
42,54.0,1.0,30.0,6.0,0.0
43,66.0,1.0,30.0,0.0,0.0
44,54.0,1.0,30.0,7.0,0.0
45,66.0,5.0,30.0,4.0,0.0
46,66.0,1.0,30.0,5.0,0.0
47,42.0,23.0,30.0,8.0,0.0
48,53.0,1.0,30.0,6.0,0.0
49,65.0,1.0,30.0,0.0,0.0
50,53.0,1.0,30.0,7.0,0.0
51,65.0,5.0,30.0,4.0,0.0
52,65.0,1.0,30.0,5.0,0.0
53,41.0,23.0,30.0,8.0,0.0
54,54.0,1.0,30.0,6.0,0.0
55,66.0,1.0,30.0,0.0,0.0
56,54.0,1.0,30.0,7.0,0.0
57,66.0,5.0,30.0,4.0,0.0
58,66.0,1.0,30.0,5.0,0.0
59,42.0,23.0,30.0,8.0,0.0
60,53.0,1.0,30.0,6.0,0.0
61,65.0,1.0,30.0,0.0,0.0
62,53.0,1.0,30.0,7.0,0.0
63,65.0,5.0,30.0,4.0,0.0
64,65.0,1.0,30.0,5.0,0.0
65,41.0,23.0,30.0,8.0,0.0
66,54.0,1.0,30.0,6.0,0.0
67,66.0,1.0,30.0,0.0,0.0
68,54.0,1.0,30.0,7.0,0.0
69,66.0,5.0,30.0,4.0,0.0
70,66.0,1.0,30.0,5.0,0.0
71,42.0,23.0,30.0,8.0,0.0
72,53.0,1.0,30.0,6.0,0.0
73,65.0,1.0,30.0,0.0,0.0
74,53.0,1.0,30.0,7.0,0.0
75,65.0,5.0,30.0,4.0,0.0
76,65.0,1.0,30.0,5.0,0.0
77,41.0,23.0,30.0,8.0,0.0
78,54.0,1.0,30.0,6.0,0.0
79,66.0,1.0,30.0,0.0,0.0
80,54.0,1.0,30.0,7.0,0.0
81,66.0,5.0,30.0,4.0,0.0
82,66.0,1.0,30.0,5.0,0.0
83,42.0,23.0,30.0,8.0,0.0
84,53.0,1.0,30.0,6.0,0.0
85,65.0,1.0,30.0,0.0,0.0
86,53.0,1.0,30.0,7.0,0.0
87,65.0,5.0,30.0,4.0,0.0
88,65.0,1.0,30.0,5.0,0.0
89,41.0,39.0,30.0,8.0,0.0
90,51.0,1.0,60.0,6.0,0.0
91,63.0,1.0,60.0,0.0,0.0
92,51.0,1.0,60.0,7.0,0.0
93,63.0,2.0,60.0,4.0,0.0
94,63.0,1.0,60.0,5.0,0.0
95,39.0,37.0,60.0,8.0,0.0
96,53.0,1.0,60.0,6.0,0.0
97,65.0,1.0,60.0,0.0,0.0
98,53.0,1.0,60.0,7.0,0.0
99,65.0,5.0,60.0,4.0,0.0
100,65.0,1.0,60.0,5.0,0.0
101,41.0,521.0,60.0,8.0,0.0
102,54.0,1.0,540.0,6.0,0.0
103,66.0,1.0,540.0,0.0,0.0
104,54.0,1.0,540.0,7.0,0.0
105,66.0,2.0,540.0,4.0,0.0
106,42.0,0.0,540.0,1.0,0.0
107,54.0,3.0,540.0,1.0,0.0
108,66.0,1.0,540.0,5.0,0.0
109,42.0,202.0,540.0,8.0,0.0
110,61.0,5.0,150.0,4.0,0.0
111,58.0,59.0,150.0,5.0,0.0
112,63.0,5.0,30.0,4.0,0.0
113,60.0,27.0,30.0,5.0,0.0
114,64.0,5.0,30.0,4.0,0.0
115,61.0,27.0,30.0,5.0,0.0
116,63.0,5.0,30.0,4.0,0.0
117,60.0,27.0,30.0,5.0,0.0
118,64.0,5.0,30.0,4.0,0.0
119,61.0,27.0,30.0,5.0,0.0
120,63.0,5.0,30.0,4.0,0.0
121,60.0,27.0,30.0,5.0,0.0
122,64.0,5.0,30.0,4.0,0.0
123,61.0,27.0,30.0,5.0,0.0
124,63.0,5.0,30.0,4.0,0.0
125,60.0,27.0,30.0,5.0,0.0
126,64.0,5.0,30.0,4.0,0.0
127,61.0,27.0,30.0,5.0,0.0
128,63.0,5.0,30.0,4.0,0.0
129,60.0,43.0,30.0,5.0,0.0
130,61.0,5.0,60.0,4.0,0.0
131,58.0,41.0,60.0,5.0,0.0
132,63.0,5.0,60.0,4.0,0.0
133,60.0,285.0,60.0,5.0,0.0
134,56.0,3.0,390.0,6.0,0.0
135,40.0,7.0,570.0,7.0,0.0
136,64.0,5.0,300.0,4.0,0.0
137,61.0,88.0,300.0,5.0,0.0
138,28.0,39.0,570.0,8.0,0.0
139,66.0,5.0,90.0,4.0,0.0
140,63.0,152.0,90.0,5.0,0.0
141,49.0,3.0,150.0,6.0,0.0
142,68.0,5.0,150.0,4.0,0.0
143,64.0,26.0,150.0,5.0,0.0
144,46.0,3.0,60.0,6.0,0.0
145,42.0,7.0,540.0,7.0,0.0
146,54.0,189.0,60.0,4.0,0.0
147,54.0,40.0,390.0,5.0,0.0
148,30.0,15.0,540.0,8.0,0.0
149,47.0,3.0,60.0,6.0,0.0
150,56.0,149.0,60.0,4.0,0.0
151,49.0,3.0,60.0,6.0,0.0
152,58.0,95.0,60.0,4.0,0.0
153,52.0,123.0,150.0,5.0,0.0
154,47.0,2.0,150.0,6.0,0.0
155,35.0,6.0,150.0,7.0,0.0
156,59.0,61.0,90.0,4.0,0.0
157,51.0,1.0,150.0,5.0,0.0
158,23.0,26.0,150.0,8.0,0.0
159,63.0,96.0,90.0,4.0,0.0
160,66.0,96.0,90.0,4.0,0.0
161,71.0,96.0,90.0,4.0,0.0
162,75.0,94.0,90.0,4.0,0.0
163,71.0,159.0,90.0,4.0,0.0
164,58.0,3.0,150.0,6.0,0.0
165,78.0,5.0,150.0,4.0,0.0
166,61.0,56.0,150.0,5.0,0.0
167,60.0,8.0,30.0,6.0,0.0
168,78.0,5.0,150.0,4.0,0.0
169,63.0,24.0,30.0,5.0,0.0
170,61.0,8.0,30.0,6.0,0.0
171,64.0,24.0,30.0,5.0,0.0
172,60.0,8.0,30.0,6.0,0.0
173,63.0,24.0,30.0,5.0,0.0
174,61.0,8.0,30.0,6.0,0.0
175,64.0,24.0,30.0,5.0,0.0
176,60.0,3.0,30.0,6.0,0.0
177,63.0,24.0,30.0,5.0,0.0
178,61.0,8.0,30.0,6.0,0.0
179,64.0,24.0,30.0,5.0,0.0
180,60.0,8.0,30.0,6.0,0.0
181,78.0,27.0,150.0,4.0,0.0
182,63.0,24.0,30.0,5.0,0.0
183,61.0,8.0,30.0,6.0,0.0
184,64.0,24.0,30.0,5.0,0.0
185,60.0,8.0,30.0,6.0,0.0
186,63.0,40.0,30.0,5.0,0.0
187,58.0,8.0,60.0,6.0,0.0
188,61.0,11.0,60.0,5.0,0.0
189,60.0,8.0,60.0,6.0,0.0
190,63.0,93.0,60.0,5.0,0.0
191,61.0,3.0,300.0,6.0,0.0
192,40.0,1.0,570.0,7.0,0.0
193,78.0,96.0,90.0,4.0,0.0
194,64.0,88.0,300.0,5.0,0.0
195,28.0,39.0,570.0,8.0,0.0
196,79.0,93.0,90.0,4.0,0.0
197,80.0,5.0,90.0,4.0,0.0
198,63.0,3.0,90.0,6.0,0.0
199,72.0,5.0,90.0,4.0,0.0
200,66.0,91.0,90.0,5.0,0.0
201,64.0,8.0,150.0,6.0,0.0
202,73.0,61.0,90.0,4.0,0.0
203,68.0,26.0,150.0,5.0,0.0
204,75.0,6.0,90.0,4.0,0.0
205,46.0,8.0,60.0,6.0,0.0
206,42.0,7.0,540.0,7.0,0.0
207,76.0,96.0,90.0,4.0,0.0
208,54.0,43.0,60.0,5.0,0.0
209,30.0,40.0,540.0,8.0,0.0
210,73.0,45.0,90.0,4.0,0.0
211,47.0,8.0,60.0,6.0,0.0
212,71.0,96.0,90.0,4.0,0.0
213,56.0,43.0,60.0,5.0,0.0
214,70.0,45.0,90.0,4.0,0.0
215,49.0,8.0,60.0,6.0,0.0
216,68.0,47.0,90.0,4.0,0.0
217,52.0,43.0,60.0,5.0,0.0
218,58.0,0.0,60.0,5.0,0.0
219,66.0,98.0,90.0,4.0,0.0
220,47.0,2.0,150.0,6.0,0.0
221,47.0,6.0,150.0,7.0,0.0
222,66.0,61.0,90.0,4.0,0.0
223,59.0,0.0,150.0,5.0,0.0
224,51.0,1.0,150.0,5.0,0.0
225,35.0,26.0,150.0,8.0,0.0
226,71.0,94.0,90.0,4.0,0.0
227,66.0,96.0,90.0,4.0,0.0
228,66.0,96.0,90.0,4.0,0.0
229,66.0,96.0,90.0,4.0,0.0
230,66.0,47.0,90.0,4.0,0.0
231,46.0,0.0,60.0,6.0,0.0
232,54.0,49.0,60.0,6.0,0.0
233,66.0,7.0,90.0,4.0,0.0
234,42.0,0.0,150.0,1.0,0.0
235,54.0,28.0,150.0,1.0,0.0
236,64.0,61.0,90.0,5.0,0.0
237,66.0,7.0,90.0,4.0,0.0
238,61.0,40.0,90.0,5.0,0.0
239,56.0,49.0,60.0,6.0,0.0
240,47.0,0.0,60.0,6.0,0.0
241,66.0,7.0,90.0,4.0,0.0
242,54.0,28.0,150.0,1.0,0.0
243,42.0,0.0,150.0,1.0,0.0
244,59.0,61.0,90.0,5.0,0.0
245,66.0,7.0,90.0,4.0,0.0
246,58.0,40.0,90.0,5.0,0.0
247,49.0,0.0,60.0,6.0,0.0
248,58.0,49.0,60.0,6.0,0.0
249,70.0,0.0,180.0,0.0,0.0
250,64.0,0.0,180.0,0.0,0.0
251,66.0,7.0,90.0,4.0,0.0
252,42.0,28.0,150.0,1.0,0.0
253,54.0,0.0,150.0,1.0,0.0
254,56.0,61.0,90.0,5.0,0.0
255,66.0,5.0,90.0,4.0,0.0
256,54.0,98.0,90.0,5.0,0.0
257,51.0,0.0,150.0,6.0,0.0
258,59.0,1.0,150.0,6.0,0.0
259,63.0,2.0,150.0,0.0,0.0
260,71.0,0.0,150.0,0.0,0.0
261,66.0,2.0,150.0,4.0,0.0
262,47.0,0.0,150.0,1.0,0.0
263,54.0,35.0,150.0,1.0,0.0
264,54.0,56.0,90.0,5.0,0.0
265,59.0,94.0,90.0,5.0,0.0
266,54.0,96.0,90.0,5.0,0.0
267,54.0,96.0,90.0,5.0,0.0
268,54.0,96.0,90.0,5.0,0.0
269,54.0,92.0,90.0,5.0,0.0
270,52.0,4.0,90.0,7.0,0.0
271,58.0,2.0,150.0,4.0,0.0
272,66.0,0.0,150.0,4.0,0.0
273,42.0,0.0,150.0,1.0,0.0
274,54.0,29.0,150.0,1.0,0.0
275,54.0,3.0,90.0,5.0,0.0
276,40.0,58.0,90.0,8.0,0.0
277,49.0,4.0,90.0,7.0,0.0
278,54.0,3.0,90.0,5.0,0.0
279,37.0,89.0,90.0,8.0,0.0
280,47.0,4.0,90.0,7.0,0.0
281,68.0,0.0,150.0,4.0,0.0
282,59.0,2.0,150.0,4.0,0.0
283,42.0,0.0,150.0,1.0,0.0
284,54.0,29.0,150.0,1.0,0.0
285,54.0,3.0,90.0,5.0,0.0
286,35.0,58.0,90.0,8.0,0.0
287,46.0,4.0,90.0,7.0,0.0
288,54.0,3.0,90.0,5.0,0.0
289,34.0,89.0,90.0,8.0,0.0
290,64.0,0.0,150.0,6.0,0.0
291,54.0,3.0,150.0,6.0,0.0
292,70.0,0.0,180.0,0.0,0.0
293,76.0,5.0,180.0,0.0,0.0
294,44.0,4.0,90.0,7.0,0.0
295,70.0,0.0,150.0,4.0,0.0
296,61.0,2.0,150.0,4.0,0.0
297,54.0,27.0,150.0,1.0,0.0
298,42.0,0.0,150.0,1.0,0.0
299,54.0,3.0,90.0,5.0,0.0
300,32.0,55.0,90.0,8.0,0.0
301,42.0,1.0,90.0,7.0,0.0
302,54.0,1.0,90.0,5.0,0.0
303,30.0,153.0,90.0,8.0,0.0
304,63.0,0.0,150.0,6.0,0.0
305,54.0,1.0,150.0,6.0,0.0
306,75.0,0.0,150.0,0.0,0.0
307,71.0,1.0,150.0,0.0,0.0
308,47.0,1.0,150.0,7.0,0.0
309,71.0,2.0,150.0,4.0,0.0
310,59.0,0.0,150.0,4.0,0.0
311,47.0,3.0,150.0,1.0,0.0
312,54.0,0.0,150.0,1.0,0.0
313,54.0,1.0,150.0,5.0,0.0
314,35.0,188.0,150.0,8.0,0.0
315,51.0,2.0,300.0,6.0,0.0
316,73.0,0.0,330.0,0.0,0.0
317,70.0,1.0,330.0,0.0,0.0
318,39.0,1.0,300.0,7.0,0.0
319,51.0,5.0,300.0,4.0,0.0
320,51.0,0.0,150.0,1.0,0.0
321,63.0,123.0,150.0,1.0,0.0
322,51.0,1.0,300.0,5.0,0.0
323,27.0,39.0,300.0,8.0,0.0
324,63.0,0.0,150.0,1.0,0.0
325,51.0,5.0,150.0,1.0,0.0
326,53.0,1.0,60.0,6.0,0.0
327,41.0,1.0,60.0,7.0,0.0
328,53.0,0.0,60.0,4.0,0.0
329,53.0,1.0,60.0,5.0,0.0
330,29.0,37.0,60.0,8.0,0.0
331,55.0,2.0,60.0,6.0,0.0
332,43.0,1.0,60.0,7.0,0.0
333,55.0,2.0,60.0,4.0,0.0
334,63.0,0.0,60.0,1.0,0.0
335,51.0,3.0,60.0,1.0,0.0
336,55.0,1.0,60.0,5.0,0.0
337,31.0,41.0,60.0,8.0,0.0
338,56.0,8.0,60.0,6.0,0.0
339,71.0,0.0,750.0,0.0,0.0
340,68.0,4.0,750.0,0.0,0.0
341,56.0,29.0,270.0,4.0,0.0
342,51.0,0.0,750.0,1.0,0.0
343,63.0,27.0,750.0,1.0,0.0
344,56.0,40.0,60.0,5.0,0.0
345,32.0,39.0,90.0,8.0,0.0
346,51.0,1.0,60.0,5.0,0.0
347,47.0,2.0,15.0,6.0,0.0
348,44.0,6.0,15.0,7.0,0.0
349,51.0,40.0,60.0,5.0,0.0
350,47.0,8.0,15.0,6.0,0.0
351,47.0,2.0,15.0,6.0,0.0
352,44.0,6.0,15.0,7.0,0.0
353,51.0,1.0,15.0,5.0,0.0
354,32.0,39.0,15.0,8.0,0.0
355,47.0,8.0,15.0,6.0,0.0
356,51.0,11.0,15.0,5.0,0.0
357,47.0,2.0,15.0,6.0,0.0
358,68.0,7.0,60.0,4.0,0.0
359,51.0,1.0,15.0,5.0,0.0
360,32.0,39.0,15.0,8.0,0.0
361,47.0,1.0,60.0,6.0,0.0
362,71.0,1.0,60.0,4.0,0.0
363,51.0,40.0,15.0,5.0,0.0
364,44.0,6.0,15.0,7.0,0.0
365,75.0,5.0,60.0,4.0,0.0
366,51.0,40.0,60.0,5.0,0.0
367,32.0,26.0,90.0,8.0,0.0
368,47.0,3.0,15.0,6.0,0.0
369,71.0,1.0,60.0,4.0,0.0
370,47.0,8.0,60.0,6.0,0.0
371,44.0,6.0,90.0,7.0,0.0
372,75.0,13.0,30.0,4.0,0.0
373,51.0,1.0,15.0,5.0,0.0
374,71.0,13.0,30.0,4.0,0.0
375,47.0,2.0,15.0,6.0,0.0
376,44.0,6.0,90.0,7.0,0.0
377,75.0,1.0,90.0,4.0,0.0
378,51.0,1.0,15.0,5.0,0.0
379,32.0,39.0,15.0,8.0,0.0
380,47.0,1.0,60.0,6.0,0.0
381,51.0,40.0,15.0,5.0,0.0
382,51.0,9.0,60.0,5.0,0.0
383,32.0,39.0,15.0,8.0,0.0
384,47.0,8.0,15.0,6.0,0.0
385,71.0,4.0,150.0,0.0,0.0
386,68.0,0.0,150.0,0.0,0.0
387,44.0,6.0,15.0,7.0,0.0
388,71.0,1.0,90.0,4.0,0.0
389,63.0,0.0,150.0,1.0,0.0
390,59.0,27.0,150.0,1.0,0.0
391,51.0,1.0,15.0,5.0,0.0
392,32.0,39.0,15.0,8.0,0.0
393,47.0,8.0,15.0,6.0,0.0
394,47.0,1.0,15.0,6.0,0.0
395,51.0,1.0,15.0,5.0,0.0
396,32.0,39.0,15.0,8.0,0.0
397,47.0,8.0,15.0,6.0,0.0
398,47.0,8.0,60.0,6.0,0.0
399,68.0,0.0,150.0,0.0,0.0
400,71.0,4.0,150.0,0.0,0.0
401,44.0,6.0,15.0,7.0,0.0
402,68.0,1.0,90.0,4.0,0.0
403,63.0,27.0,150.0,1.0,0.0
404,59.0,0.0,150.0,1.0,0.0
405,51.0,1.0,15.0,5.0,0.0
406,32.0,39.0,15.0,8.0,0.0
407,47.0,1.0,60.0,6.0,0.0
408,47.0,8.0,60.0,6.0,0.0
409,44.0,6.0,15.0,7.0,0.0
410,51.0,1.0,15.0,5.0,0.0
411,32.0,39.0,15.0,8.0,0.0
412,47.0,2.0,60.0,6.0,0.0
413,51.0,9.0,15.0,5.0,0.0
414,49.0,8.0,60.0,6.0,0.0
415,70.0,4.0,750.0,0.0,0.0
416,64.0,0.0,750.0,0.0,0.0
417,58.0,29.0,270.0,4.0,0.0
418,61.0,27.0,750.0,1.0,0.0
419,32.0,39.0,15.0,8.0,0.0
420,49.0,2.0,60.0,6.0,0.0
421,52.0,40.0,15.0,5.0,0.0
422,44.0,6.0,15.0,7.0,0.0
423,52.0,1.0,15.0,5.0,0.0
424,49.0,8.0,15.0,6.0,0.0
425,52.0,1.0,60.0,5.0,0.0
426,49.0,2.0,15.0,6.0,0.0
427,44.0,6.0,90.0,7.0,0.0
428,52.0,11.0,60.0,5.0,0.0
429,32.0,39.0,15.0,8.0,0.0
430,49.0,2.0,60.0,6.0,0.0
431,70.0,7.0,60.0,4.0,0.0
432,52.0,1.0,15.0,5.0,0.0
433,32.0,39.0,15.0,8.0,0.0
434,49.0,1.0,15.0,6.0,0.0
435,73.0,1.0,60.0,4.0,0.0
436,52.0,40.0,15.0,5.0,0.0
437,49.0,3.0,60.0,6.0,0.0
438,44.0,6.0,15.0,7.0,0.0
439,76.0,5.0,60.0,4.0,0.0
440,49.0,1.0,60.0,6.0,0.0
441,73.0,1.0,60.0,4.0,0.0
442,52.0,40.0,15.0,5.0,0.0
443,49.0,8.0,60.0,6.0,0.0
444,76.0,13.0,30.0,4.0,0.0
445,52.0,1.0,15.0,5.0,0.0
446,32.0,26.0,15.0,8.0,0.0
447,73.0,13.0,30.0,4.0,0.0
448,52.0,27.0,15.0,5.0,0.0
449,49.0,2.0,15.0,6.0,0.0
450,44.0,6.0,15.0,7.0,0.0
451,76.0,1.0,90.0,4.0,0.0
452,52.0,1.0,15.0,5.0,0.0
453,32.0,39.0,90.0,8.0,0.0
454,49.0,1.0,60.0,6.0,0.0
455,52.0,40.0,15.0,5.0,0.0
456,49.0,8.0,60.0,6.0,0.0
457,44.0,6.0,90.0,7.0,0.0
458,52.0,1.0,15.0,5.0,0.0
459,49.0,2.0,15.0,6.0,0.0
460,64.0,0.0,150.0,0.0,0.0
461,70.0,4.0,150.0,0.0,0.0
462,73.0,1.0,90.0,4.0,0.0
463,61.0,27.0,150.0,1.0,0.0
464,52.0,1.0,15.0,5.0,0.0
465,32.0,39.0,15.0,8.0,0.0
466,49.0,8.0,15.0,6.0,0.0
467,52.0,1.0,60.0,5.0,0.0
468,49.0,8.0,60.0,6.0,0.0
469,44.0,6.0,15.0,7.0,0.0
470,32.0,39.0,90.0,8.0,0.0
471,52.0,9.0,15.0,5.0,0.0
472,49.0,2.0,15.0,6.0,0.0
473,70.0,4.0,150.0,0.0,0.0
474,64.0,0.0,150.0,0.0,0.0
475,44.0,6.0,15.0,7.0,0.0
476,70.0,1.0,90.0,4.0,0.0
477,61.0,27.0,150.0,1.0,0.0
478,52.0,40.0,60.0,5.0,0.0
479,49.0,1.0,60.0,6.0,0.0
480,52.0,1.0,60.0,5.0,0.0
481,49.0,8.0,60.0,6.0,0.0
482,44.0,6.0,90.0,7.0,0.0
483,32.0,39.0,15.0,8.0,0.0
484,49.0,2.0,60.0,6.0,0.0
485,52.0,9.0,15.0,5.0,0.0
486,51.0,0.0,60.0,6.0,0.0
487,61.0,0.0,750.0,0.0,0.0
488,70.0,4.0,750.0,0.0,0.0
489,43.0,6.0,90.0,7.0,0.0
490,51.0,29.0,270.0,4.0,0.0
491,63.0,0.0,750.0,1.0,0.0
492,51.0,27.0,750.0,1.0,0.0
493,31.0,39.0,90.0,8.0,0.0
494,51.0,2.0,60.0,6.0,0.0
495,58.0,8.0,15.0,6.0,0.0
496,51.0,40.0,15.0,5.0,0.0
497,61.0,0.0,15.0,5.0,0.0
498,51.0,0.0,60.0,6.0,0.0
499,61.0,1.0,15.0,5.0,0.0
500,51.0,0.0,15.0,5.0,0.0
501,31.0,39.0,90.0,8.0,0.0
502,58.0,8.0,15.0,6.0,0.0
503,61.0,40.0,15.0,5.0,0.0
504,51.0,0.0,15.0,5.0,0.0
505,51.0,0.0,15.0,6.0,0.0
506,58.0,0.0,60.0,6.0,0.0
507,43.0,6.0,15.0,7.0,0.0
508,61.0,1.0,15.0,5.0,0.0
509,51.0,0.0,15.0,5.0,0.0
510,31.0,39.0,90.0,8.0,0.0
511,51.0,8.0,15.0,6.0,0.0
512,61.0,11.0,15.0,5.0,0.0
513,51.0,0.0,60.0,5.0,0.0
514,58.0,2.0,15.0,6.0,0.0
515,51.0,1.0,60.0,6.0,0.0
516,43.0,6.0,90.0,7.0,0.0
517,73.0,7.0,60.0,4.0,0.0
518,61.0,1.0,15.0,5.0,0.0
519,51.0,0.0,60.0,5.0,0.0
520,31.0,39.0,90.0,8.0,0.0
521,58.0,0.0,60.0,6.0,0.0
522,79.0,1.0,60.0,4.0,0.0
523,51.0,1.0,60.0,5.0,0.0
524,61.0,40.0,15.0,5.0,0.0
525,51.0,1.0,15.0,6.0,0.0
526,58.0,0.0,60.0,6.0,0.0
527,43.0,6.0,90.0,7.0,0.0
528,82.0,5.0,60.0,4.0,0.0
529,61.0,0.0,60.0,5.0,0.0
530,51.0,3.0,15.0,6.0,0.0
531,79.0,1.0,60.0,4.0,0.0
532,61.0,0.0,60.0,5.0,0.0
533,51.0,40.0,15.0,5.0,0.0
534,58.0,1.0,15.0,6.0,0.0
535,51.0,8.0,60.0,6.0,0.0
536,43.0,6.0,90.0,7.0,0.0
537,82.0,13.0,30.0,4.0,0.0
538,51.0,1.0,15.0,5.0,0.0
539,31.0,26.0,15.0,8.0,0.0
540,51.0,0.0,60.0,6.0,0.0
541,79.0,13.0,30.0,4.0,0.0
542,61.0,27.0,15.0,5.0,0.0
543,51.0,0.0,15.0,5.0,0.0
544,58.0,2.0,15.0,6.0,0.0
545,51.0,0.0,60.0,6.0,0.0
546,82.0,1.0,90.0,4.0,0.0
547,61.0,1.0,15.0,5.0,0.0
548,31.0,39.0,90.0,8.0,0.0
549,51.0,0.0,60.0,6.0,0.0
550,51.0,40.0,15.0,5.0,0.0
551,61.0,0.0,15.0,5.0,0.0
552,51.0,8.0,60.0,6.0,0.0
553,58.0,1.0,15.0,6.0,0.0
554,43.0,6.0,15.0,7.0,0.0
555,51.0,9.0,60.0,5.0,0.0
556,61.0,0.0,60.0,5.0,0.0
557,58.0,0.0,60.0,6.0,0.0
558,51.0,2.0,60.0,6.0,0.0
559,61.0,0.0,60.0,5.0,0.0
560,51.0,1.0,60.0,5.0,0.0
561,70.0,0.0,150.0,0.0,0.0
562,73.0,4.0,150.0,0.0,0.0
563,43.0,6.0,90.0,7.0,0.0
564,79.0,1.0,90.0,4.0,0.0
565,63.0,27.0,150.0,1.0,0.0
566,51.0,0.0,150.0,1.0,0.0
567,61.0,0.0,60.0,5.0,0.0
568,31.0,39.0,15.0,8.0,0.0
569,58.0,8.0,15.0,6.0,0.0
570,51.0,0.0,15.0,6.0,0.0
571,51.0,40.0,15.0,5.0,0.0
572,51.0,8.0,60.0,6.0,0.0
573,58.0,0.0,60.0,6.0,0.0
574,51.0,0.0,15.0,5.0,0.0
575,61.0,1.0,15.0,5.0,0.0
576,31.0,39.0,15.0,8.0,0.0
577,58.0,0.0,60.0,6.0,0.0
578,61.0,0.0,60.0,5.0,0.0
579,51.0,9.0,15.0,5.0,0.0
580,58.0,0.0,60.0,6.0,0.0
581,51.0,2.0,15.0,6.0,0.0
582,70.0,4.0,150.0,0.0,0.0
583,73.0,0.0,150.0,0.0,0.0
584,43.0,6.0,15.0,7.0,0.0
585,73.0,1.0,90.0,4.0,0.0
586,63.0,27.0,150.0,1.0,0.0
587,51.0,0.0,150.0,1.0,0.0
588,61.0,0.0,60.0,5.0,0.0
589,31.0,39.0,90.0,8.0,0.0
590,51.0,1.0,60.0,6.0,0.0
591,51.0,40.0,15.0,5.0,0.0
592,58.0,0.0,15.0,6.0,0.0
593,51.0,8.0,60.0,6.0,0.0
594,43.0,6.0,15.0,7.0,0.0
595,51.0,1.0,15.0,5.0,0.0
596,61.0,0.0,15.0,5.0,0.0
597,31.0,39.0,90.0,8.0,0.0
598,51.0,2.0,60.0,6.0,0.0
599,58.0,0.0,60.0,6.0,0.0
600,51.0,9.0,15.0,5.0,0.0
601,61.0,0.0,60.0,5.0,0.0
602,56.0,3.0,60.0,6.0,0.0
603,68.0,0.0,150.0,0.0,0.0
604,71.0,4.0,150.0,0.0,0.0
605,44.0,1.0,90.0,7.0,0.0
606,71.0,5.0,60.0,4.0,0.0
607,51.0,27.0,150.0,1.0,0.0
608,63.0,0.0,150.0,1.0,0.0
609,32.0,39.0,90.0,8.0,0.0
610,56.0,2.0,60.0,6.0,0.0
611,70.0,5.0,60.0,4.0,0.0
612,51.0,40.0,15.0,5.0,0.0
613,61.0,0.0,15.0,5.0,0.0
614,56.0,3.0,60.0,6.0,0.0
615,71.0,5.0,60.0,4.0,0.0
616,73.0,1.0,60.0,4.0,0.0
617,61.0,9.0,15.0,5.0,0.0
618,51.0,0.0,15.0,5.0,0.0
619,56.0,1.0,15.0,6.0,0.0
620,44.0,6.0,15.0,7.0,0.0
621,75.0,29.0,150.0,4.0,0.0
622,51.0,1.0,15.0,5.0,0.0
623,32.0,39.0,15.0,8.0,0.0
624,61.0,40.0,15.0,5.0,0.0
625,51.0,0.0,60.0,5.0,0.0
626,56.0,2.0,15.0,6.0,0.0
627,44.0,6.0,15.0,7.0,0.0
628,61.0,11.0,60.0,5.0,0.0
629,51.0,0.0,60.0,5.0,0.0
630,56.0,2.0,15.0,6.0,0.0
631,44.0,6.0,15.0,7.0,0.0
632,61.0,1.0,15.0,5.0,0.0
633,51.0,0.0,15.0,5.0,0.0
634,32.0,39.0,15.0,8.0,0.0
635,56.0,8.0,15.0,6.0,0.0
636,51.0,40.0,15.0,5.0,0.0
637,44.0,6.0,90.0,7.0,0.0
638,61.0,1.0,15.0,5.0,0.0
639,51.0,0.0,15.0,5.0,0.0
640,32.0,39.0,90.0,8.0,0.0
641,56.0,8.0,15.0,6.0,0.0
642,51.0,0.0,60.0,5.0,0.0
643,61.0,1.0,60.0,5.0,0.0
644,50.0,3.0,60.0,6.0,0.0
645,42.0,1.0,90.0,7.0,0.0
646,71.0,5.0,60.0,4.0,0.0
647,59.0,0.0,60.0,5.0,0.0
648,56.0,40.0,60.0,5.0,0.0
649,50.0,2.0,60.0,6.0,0.0
650,70.0,5.0,60.0,4.0,0.0
651,56.0,0.0,60.0,5.0,0.0
652,59.0,1.0,60.0,5.0,0.0
653,50.0,3.0,60.0,6.0,0.0
654,42.0,6.0,90.0,7.0,0.0
655,71.0,5.0,60.0,4.0,0.0
656,56.0,40.0,60.0,5.0,0.0
657,30.0,39.0,15.0,8.0,0.0
658,50.0,1.0,60.0,6.0,0.0
659,73.0,1.0,60.0,4.0,0.0
660,59.0,0.0,15.0,5.0,0.0
661,56.0,0.0,60.0,5.0,0.0
662,50.0,8.0,60.0,6.0,0.0
663,74.0,29.0,150.0,4.0,0.0
664,59.0,1.0,15.0,5.0,0.0
665,30.0,39.0,90.0,8.0,0.0
666,50.0,2.0,60.0,6.0,0.0
667,59.0,0.0,15.0,5.0,0.0
668,56.0,40.0,15.0,5.0,0.0
669,50.0,8.0,60.0,6.0,0.0
670,42.0,6.0,15.0,7.0,0.0
671,59.0,1.0,15.0,5.0,0.0
672,56.0,0.0,60.0,5.0,0.0
673,30.0,39.0,90.0,8.0,0.0
674,59.0,11.0,15.0,5.0,0.0
675,56.0,1.0,60.0,5.0,0.0
676,50.0,2.0,15.0,6.0,0.0
677,42.0,6.0,15.0,7.0,0.0
678,30.0,39.0,90.0,8.0,0.0
679,50.0,2.0,60.0,6.0,0.0
680,59.0,40.0,15.0,5.0,0.0
681,56.0,0.0,15.0,5.0,0.0
682,50.0,8.0,60.0,6.0,0.0
683,42.0,6.0,15.0,7.0,0.0
684,59.0,1.0,15.0,5.0,0.0
685,56.0,0.0,60.0,5.0,0.0
686,30.0,39.0,90.0,8.0,0.0
687,50.0,2.0,60.0,6.0,0.0
688,59.0,40.0,15.0,5.0,0.0
689,56.0,0.0,60.0,5.0,0.0
690,68.0,4.0,750.0,0.0,0.0
691,71.0,0.0,750.0,0.0,0.0
692,41.0,6.0,90.0,7.0,0.0
693,53.0,29.0,270.0,4.0,0.0
694,61.0,27.0,750.0,1.0,0.0
695,59.0,1.0,15.0,5.0,0.0
696,56.0,0.0,60.0,5.0,0.0
697,49.0,8.0,15.0,6.0,0.0
698,59.0,40.0,15.0,5.0,0.0
699,56.0,1.0,60.0,5.0,0.0
700,49.0,2.0,15.0,6.0,0.0
701,41.0,6.0,90.0,7.0,0.0
702,56.0,0.0,60.0,5.0,0.0
703,59.0,40.0,60.0,5.0,0.0
704,29.0,39.0,15.0,8.0,0.0
705,49.0,8.0,15.0,6.0,0.0
706,56.0,1.0,60.0,5.0,0.0
707,59.0,0.0,60.0,5.0,0.0
708,49.0,2.0,15.0,6.0,0.0
709,56.0,11.0,60.0,5.0,0.0
710,59.0,0.0,60.0,5.0,0.0
711,49.0,2.0,60.0,6.0,0.0
712,49.0,1.0,60.0,6.0,0.0
713,41.0,6.0,15.0,7.0,0.0
714,71.0,7.0,60.0,4.0,0.0
715,56.0,0.0,15.0,5.0,0.0
716,59.0,1.0,15.0,5.0,0.0
717,29.0,39.0,15.0,8.0,0.0
718,49.0,1.0,60.0,6.0,0.0
719,77.0,1.0,60.0,4.0,0.0
720,59.0,40.0,15.0,5.0,0.0
721,49.0,3.0,60.0,6.0,0.0
722,41.0,6.0,90.0,7.0,0.0
723,80.0,5.0,60.0,4.0,0.0
724,56.0,1.0,15.0,5.0,0.0
725,29.0,26.0,90.0,8.0,0.0
726,77.0,1.0,60.0,4.0,0.0
727,56.0,0.0,15.0,5.0,0.0
728,59.0,40.0,15.0,5.0,0.0
729,49.0,1.0,15.0,6.0,0.0
730,41.0,6.0,90.0,7.0,0.0
731,80.0,13.0,30.0,4.0,0.0
732,59.0,0.0,60.0,5.0,0.0
733,56.0,1.0,15.0,5.0,0.0
734,49.0,8.0,15.0,6.0,0.0
735,77.0,13.0,30.0,4.0,0.0
736,59.0,0.0,60.0,5.0,0.0
737,41.0,6.0,90.0,7.0,0.0
738,80.0,1.0,90.0,4.0,0.0
739,59.0,0.0,60.0,5.0,0.0
740,56.0,1.0,15.0,5.0,0.0
741,29.0,39.0,15.0,8.0,0.0
742,49.0,8.0,15.0,6.0,0.0
743,56.0,1.0,60.0,5.0,0.0
744,59.0,0.0,60.0,5.0,0.0
745,49.0,1.0,15.0,6.0,0.0
746,41.0,6.0,90.0,7.0,0.0
747,56.0,9.0,60.0,5.0,0.0
748,59.0,0.0,60.0,5.0,0.0
749,29.0,39.0,15.0,8.0,0.0
750,49.0,8.0,15.0,6.0,0.0
751,56.0,1.0,60.0,5.0,0.0
752,59.0,0.0,60.0,5.0,0.0
753,49.0,2.0,15.0,6.0,0.0
754,71.0,4.0,150.0,0.0,0.0
755,68.0,0.0,150.0,0.0,0.0
756,41.0,6.0,90.0,7.0,0.0
757,77.0,1.0,90.0,4.0,0.0
758,61.0,27.0,150.0,1.0,0.0
759,59.0,0.0,60.0,5.0,0.0
760,29.0,39.0,90.0,8.0,0.0
761,49.0,1.0,60.0,6.0,0.0
762,59.0,0.0,60.0,5.0,0.0
763,56.0,40.0,15.0,5.0,0.0
764,41.0,6.0,90.0,7.0,0.0
765,29.0,39.0,90.0,8.0,0.0
766,49.0,8.0,15.0,6.0,0.0
767,59.0,9.0,15.0,5.0,0.0
768,56.0,0.0,15.0,5.0,0.0
769,49.0,8.0,60.0,6.0,0.0
770,68.0,4.0,150.0,0.0,0.0
771,71.0,0.0,150.0,0.0,0.0
772,41.0,6.0,90.0,7.0,0.0
773,71.0,1.0,90.0,4.0,0.0
774,61.0,27.0,150.0,1.0,0.0
775,59.0,0.0,60.0,5.0,0.0
776,29.0,39.0,90.0,8.0,0.0
777,56.0,40.0,15.0,5.0,0.0
778,49.0,1.0,15.0,6.0,0.0
779,41.0,6.0,90.0,7.0,0.0
780,59.0,1.0,15.0,5.0,0.0
781,56.0,0.0,15.0,5.0,0.0
782,29.0,39.0,90.0,8.0,0.0
783,49.0,8.0,15.0,6.0,0.0
784,59.0,9.0,15.0,5.0,0.0
785,56.0,0.0,15.0,5.0,0.0
786,49.0,2.0,15.0,6.0,0.0
787,70.0,0.0,750.0,0.0,0.0
788,66.0,4.0,750.0,0.0,0.0
789,42.0,6.0,90.0,7.0,0.0
790,54.0,29.0,270.0,4.0,0.0
791,61.0,0.0,750.0,1.0,0.0
792,54.0,27.0,750.0,1.0,0.0
793,30.0,39.0,90.0,8.0,0.0
794,49.0,2.0,60.0,6.0,0.0
795,58.0,40.0,15.0,5.0,0.0
796,54.0,0.0,15.0,5.0,0.0
797,49.0,8.0,60.0,6.0,0.0
798,42.0,6.0,90.0,7.0,0.0
799,54.0,1.0,15.0,5.0,0.0
800,30.0,39.0,90.0,8.0,0.0
801,58.0,0.0,15.0,5.0,0.0
802,54.0,40.0,15.0,5.0,0.0
803,49.0,2.0,15.0,6.0,0.0
804,54.0,11.0,60.0,5.0,0.0
805,58.0,0.0,60.0,5.0,0.0
806,30.0,39.0,90.0,8.0,0.0
807,54.0,1.0,60.0,5.0,0.0
808,58.0,0.0,60.0,5.0,0.0
809,49.0,2.0,15.0,6.0,0.0
810,42.0,6.0,15.0,7.0,0.0
811,70.0,7.0,60.0,4.0,0.0
812,54.0,40.0,60.0,5.0,0.0
813,30.0,39.0,90.0,8.0,0.0
814,49.0,1.0,60.0,6.0,0.0
815,73.0,1.0,60.0,4.0,0.0
816,58.0,0.0,15.0,5.0,0.0
817,54.0,0.0,60.0,5.0,0.0
818,78.0,5.0,60.0,4.0,0.0
819,54.0,0.0,60.0,5.0,0.0
820,58.0,1.0,15.0,5.0,0.0
821,30.0,26.0,90.0,8.0,0.0
822,49.0,3.0,15.0,6.0,0.0
823,73.0,1.0,60.0,4.0,0.0
824,54.0,0.0,60.0,5.0,0.0
825,49.0,1.0,15.0,6.0,0.0
826,42.0,6.0,15.0,7.0,0.0
827,78.0,13.0,30.0,4.0,0.0
828,58.0,1.0,15.0,5.0,0.0
829,54.0,27.0,60.0,5.0,0.0
830,49.0,8.0,15.0,6.0,0.0
831,73.0,13.0,30.0,4.0,0.0
832,58.0,0.0,15.0,5.0,0.0
833,54.0,1.0,60.0,5.0,0.0
834,49.0,2.0,15.0,6.0,0.0
835,42.0,6.0,15.0,7.0,0.0
836,78.0,1.0,90.0,4.0,0.0
837,54.0,40.0,60.0,5.0,0.0
838,58.0,0.0,60.0,5.0,0.0
839,30.0,39.0,15.0,8.0,0.0
840,49.0,8.0,15.0,6.0,0.0
841,49.0,1.0,15.0,6.0,0.0
842,42.0,6.0,15.0,7.0,0.0
843,58.0,1.0,15.0,5.0,0.0
844,54.0,0.0,15.0,5.0,0.0
845,30.0,39.0,15.0,8.0,0.0
846,49.0,8.0,15.0,6.0,0.0
847,58.0,0.0,15.0,5.0,0.0
848,54.0,9.0,15.0,5.0,0.0
849,49.0,2.0,15.0,6.0,0.0
850,70.0,4.0,150.0,0.0,0.0
851,66.0,0.0,150.0,0.0,0.0
852,42.0,6.0,90.0,7.0,0.0
853,73.0,1.0,90.0,4.0,0.0
854,61.0,0.0,150.0,1.0,0.0
855,54.0,27.0,150.0,1.0,0.0
856,30.0,39.0,15.0,8.0,0.0
857,49.0,8.0,15.0,6.0,0.0
858,58.0,40.0,15.0,5.0,0.0
859,54.0,0.0,15.0,5.0,0.0
860,49.0,1.0,15.0,6.0,0.0
861,42.0,6.0,90.0,7.0,0.0
862,54.0,0.0,15.0,5.0,0.0
863,58.0,1.0,15.0,5.0,0.0
864,30.0,39.0,15.0,8.0,0.0
865,49.0,8.0,15.0,6.0,0.0
866,58.0,0.0,60.0,5.0,0.0
867,49.0,2.0,15.0,6.0,0.0
868,70.0,4.0,150.0,0.0,0.0
869,66.0,0.0,150.0,0.0,0.0
870,42.0,6.0,90.0,7.0,0.0
871,70.0,1.0,90.0,4.0,0.0
872,61.0,27.0,150.0,1.0,0.0
873,54.0,0.0,150.0,1.0,0.0
874,58.0,0.0,60.0,5.0,0.0
875,54.0,1.0,15.0,5.0,0.0
876,49.0,8.0,15.0,6.0,0.0
877,58.0,0.0,60.0,5.0,0.0
878,54.0,1.0,60.0,5.0,0.0
879,49.0,1.0,15.0,6.0,0.0
880,42.0,6.0,90.0,7.0,0.0
881,58.0,9.0,60.0,5.0,0.0
882,54.0,0.0,60.0,5.0,0.0
883,30.0,39.0,15.0,8.0,0.0
884,49.0,8.0,15.0,6.0,0.0
885,54.0,0.0,60.0,5.0,0.0
886,58.0,1.0,60.0,5.0,0.0
887,51.0,8.0,60.0,6.0,0.0
888,54.0,0.0,60.0,6.0,0.0
889,68.0,0.0,1110.0,0.0,0.0
890,66.0,2.0,1110.0,0.0,0.0
891,59.0,29.0,270.0,4.0,0.0
892,63.0,0.0,1110.0,1.0,0.0
893,54.0,3.0,1110.0,1.0,0.0
894,35.0,39.0,90.0,8.0,0.0
895,51.0,0.0,60.0,6.0,0.0
896,56.0,40.0,15.0,5.0,0.0
897,54.0,2.0,15.0,6.0,0.0
898,47.0,6.0,15.0,7.0,0.0
899,56.0,1.0,15.0,5.0,0.0
900,35.0,39.0,90.0,8.0,0.0
901,54.0,8.0,15.0,6.0,0.0
902,51.0,0.0,15.0,6.0,0.0
903,56.0,40.0,15.0,5.0,0.0
904,51.0,2.0,15.0,6.0,0.0
905,54.0,0.0,15.0,6.0,0.0
906,56.0,11.0,60.0,5.0,0.0
907,35.0,39.0,90.0,8.0,0.0
908,54.0,0.0,15.0,6.0,0.0
909,51.0,8.0,15.0,6.0,0.0
910,54.0,2.0,15.0,6.0,0.0
911,47.0,6.0,15.0,7.0,0.0
912,71.0,5.0,60.0,4.0,0.0
913,56.0,1.0,15.0,5.0,0.0
914,35.0,39.0,90.0,8.0,0.0
915,51.0,0.0,15.0,6.0,0.0
916,75.0,5.0,60.0,4.0,0.0
917,51.0,0.0,15.0,6.0,0.0
918,54.0,2.0,15.0,6.0,0.0
919,47.0,1.0,90.0,7.0,0.0
920,78.0,5.0,60.0,4.0,0.0
921,56.0,1.0,15.0,5.0,0.0
922,35.0,39.0,90.0,8.0,0.0
923,54.0,3.0,15.0,6.0,0.0
924,51.0,2.0,60.0,6.0,0.0
925,75.0,5.0,60.0,4.0,0.0
926,56.0,40.0,15.0,5.0,0.0
927,54.0,0.0,15.0,6.0,0.0
928,51.0,3.0,60.0,6.0,0.0
929,47.0,6.0,90.0,7.0,0.0
930,78.0,5.0,60.0,4.0,0.0
931,56.0,1.0,15.0,5.0,0.0
932,35.0,39.0,90.0,8.0,0.0
933,54.0,0.0,15.0,6.0,0.0
934,51.0,1.0,60.0,6.0,0.0
935,75.0,1.0,60.0,4.0,0.0
936,56.0,40.0,15.0,5.0,0.0
937,54.0,8.0,60.0,6.0,0.0
938,48.0,6.0,90.0,7.0,0.0
939,60.0,29.0,270.0,4.0,0.0
940,56.0,40.0,60.0,5.0,0.0
941,51.0,0.0,15.0,6.0,0.0
942,54.0,2.0,60.0,6.0,0.0
943,54.0,8.0,60.0,6.0,0.0
944,48.0,6.0,90.0,7.0,0.0
945,56.0,1.0,15.0,5.0,0.0
946,36.0,39.0,15.0,8.0,0.0
947,51.0,0.0,15.0,6.0,0.0
948,54.0,0.0,60.0,6.0,0.0
949,56.0,1.0,60.0,5.0,0.0
950,51.0,8.0,60.0,6.0,0.0
951,54.0,0.0,60.0,6.0,0.0
952,51.0,2.0,60.0,6.0,0.0
953,54.0,0.0,60.0,6.0,0.0
954,56.0,11.0,15.0,5.0,0.0
955,48.0,6.0,15.0,7.0,0.0
956,68.0,5.0,60.0,4.0,0.0
957,56.0,1.0,15.0,5.0,0.0
958,36.0,39.0,15.0,8.0,0.0
959,54.0,0.0,15.0,6.0,0.0
960,51.0,3.0,15.0,6.0,0.0
961,75.0,5.0,60.0,4.0,0.0
962,56.0,1.0,60.0,5.0,0.0
963,54.0,2.0,15.0,6.0,0.0
964,51.0,0.0,15.0,6.0,0.0
965,48.0,1.0,15.0,7.0,0.0
966,78.0,5.0,60.0,4.0,0.0
967,36.0,39.0,15.0,8.0,0.0
968,51.0,2.0,60.0,6.0,0.0
969,54.0,3.0,15.0,6.0,0.0
970,75.0,5.0,60.0,4.0,0.0
971,56.0,40.0,15.0,5.0,0.0
972,54.0,0.0,60.0,6.0,0.0
973,48.0,6.0,90.0,7.0,0.0
974,78.0,2.0,60.0,4.0,0.0
975,56.0,1.0,15.0,5.0,0.0
976,36.0,18.0,90.0,8.0,0.0
977,51.0,1.0,15.0,6.0,0.0
978,54.0,1.0,60.0,6.0,0.0
979,75.0,1.0,60.0,4.0,0.0
980,56.0,40.0,15.0,5.0,0.0
981,53.0,0.0,90.0,6.0,0.0
982,49.0,8.0,90.0,6.0,0.0
983,65.0,0.0,150.0,0.0,0.0
984,68.0,4.0,150.0,0.0,0.0
985,49.0,7.0,180.0,7.0,0.0
986,77.0,24.0,20.0,4.0,0.0
987,61.0,28.0,150.0,1.0,0.0
988,56.0,57.0,90.0,5.0,0.0
989,37.0,23.0,180.0,8.0,0.0
990,75.0,45.0,20.0,4.0,0.0
991,73.0,1.0,150.0,4.0,0.0
992,61.0,3.0,30.0,6.0,0.0
993,73.0,5.0,30.0,4.0,0.0
994,65.0,88.0,30.0,5.0,0.0
995,63.0,3.0,30.0,6.0,0.0
996,73.0,5.0,30.0,4.0,0.0
997,66.0,88.0,30.0,5.0,0.0
998,65.0,3.0,30.0,6.0,0.0
999,73.0,5.0,30.0,4.0,0.0
1000,68.0,88.0,30.0,5.0,0.0
1001,66.0,3.0,30.0,6.0,0.0
1002,73.0,5.0,30.0,4.0,0.0
1003,70.0,91.0,30.0,5.0,0.0
1004,70.0,0.0,90.0,6.0,0.0
1005,53.0,7.0,90.0,7.0,0.0
1006,73.0,61.0,30.0,4.0,0.0
1007,73.0,27.0,90.0,5.0,0.0
1008,41.0,1.0,90.0,8.0,0.0
1009,68.0,8.0,90.0,6.0,0.0
1010,73.0,59.0,30.0,4.0,0.0
1011,71.0,29.0,90.0,5.0,0.0
1012,68.0,7.0,90.0,6.0,0.0
1013,54.0,0.0,90.0,7.0,0.0
1014,73.0,61.0,30.0,4.0,0.0
1015,71.0,27.0,90.0,5.0,0.0
1016,42.0,1.0,90.0,8.0,0.0
1017,66.0,8.0,90.0,6.0,0.0
1018,73.0,59.0,30.0,4.0,0.0
1019,70.0,29.0,90.0,5.0,0.0
1020,66.0,7.0,90.0,6.0,0.0
1021,42.0,0.0,90.0,7.0,0.0
1022,73.0,61.0,30.0,4.0,0.0
1023,70.0,27.0,90.0,5.0,0.0
1024,30.0,1.0,90.0,8.0,0.0
1025,65.0,8.0,90.0,6.0,0.0
1026,73.0,59.0,30.0,4.0,0.0
1027,68.0,21.0,90.0,5.0,0.0
1028,65.0,8.0,90.0,6.0,0.0
1029,49.0,7.0,150.0,7.0,0.0
1030,77.0,24.0,20.0,4.0,0.0
1031,68.0,60.0,90.0,5.0,0.0
1032,37.0,24.0,150.0,8.0,0.0
1033,75.0,43.0,20.0,4.0,0.0
1034,73.0,31.0,150.0,4.0,0.0
1035,61.0,3.0,30.0,6.0,0.0
1036,73.0,5.0,30.0,4.0,0.0
1037,65.0,88.0,30.0,5.0,0.0
1038,63.0,3.0,30.0,6.0,0.0
1039,73.0,5.0,30.0,4.0,0.0
1040,66.0,88.0,30.0,5.0,0.0
1041,65.0,3.0,30.0,6.0,0.0
1042,73.0,5.0,30.0,4.0,0.0
1043,68.0,88.0,30.0,5.0,0.0
1044,66.0,3.0,30.0,6.0,0.0
1045,73.0,5.0,30.0,4.0,0.0
1046,70.0,91.0,30.0,5.0,0.0
1047,70.0,0.0,90.0,6.0,0.0
1048,53.0,7.0,90.0,7.0,0.0
1049,73.0,61.0,30.0,4.0,0.0
1050,73.0,27.0,90.0,5.0,0.0
1051,41.0,1.0,90.0,8.0,0.0
1052,68.0,8.0,90.0,6.0,0.0
1053,73.0,59.0,30.0,4.0,0.0
1054,71.0,29.0,90.0,5.0,0.0
1055,68.0,0.0,90.0,6.0,0.0
1056,54.0,7.0,90.0,7.0,0.0
1057,73.0,61.0,30.0,4.0,0.0
1058,71.0,27.0,90.0,5.0,0.0
1059,42.0,1.0,90.0,8.0,0.0
1060,66.0,8.0,90.0,6.0,0.0
1061,73.0,59.0,30.0,4.0,0.0
1062,70.0,29.0,90.0,5.0,0.0
1063,66.0,7.0,90.0,6.0,0.0
1064,42.0,0.0,90.0,7.0,0.0
1065,73.0,61.0,30.0,4.0,0.0
1066,70.0,27.0,90.0,5.0,0.0
1067,30.0,1.0,90.0,8.0,0.0
1068,65.0,8.0,90.0,6.0,0.0
1069,73.0,59.0,30.0,4.0,0.0
1070,68.0,21.0,90.0,5.0,0.0
1071,65.0,2.0,150.0,6.0,0.0
1072,49.0,6.0,150.0,7.0,0.0
1073,80.0,24.0,20.0,4.0,0.0
1074,68.0,1.0,150.0,5.0,0.0
1075,37.0,24.0,150.0,8.0,0.0
1076,77.0,109.0,20.0,4.0,0.0
1077,73.0,34.0,150.0,4.0,0.0
1078,73.0,96.0,30.0,4.0,0.0
1079,73.0,96.0,30.0,4.0,0.0
1080,73.0,96.0,30.0,4.0,0.0
1081,73.0,160.0,30.0,4.0,0.0
1082,73.0,96.0,90.0,4.0,0.0
1083,75.0,96.0,90.0,4.0,0.0
1084,73.0,96.0,90.0,4.0,0.0
1085,70.0,96.0,90.0,4.0,0.0
1086,71.0,94.0,90.0,4.0,0.0
1087,68.0,95.0,90.0,4.0,0.0
1088,42.0,7.0,90.0,7.0,0.0
1089,66.0,5.0,270.0,4.0,0.0
1090,58.0,24.0,270.0,5.0,0.0
1091,30.0,89.0,90.0,8.0,0.0
1092,54.0,7.0,90.0,7.0,0.0
1093,42.0,60.0,90.0,8.0,0.0
1094,54.0,7.0,90.0,7.0,0.0
1095,42.0,89.0,90.0,8.0,0.0
1096,54.0,1.0,90.0,7.0,0.0
1097,68.0,5.0,90.0,4.0,0.0
1098,59.0,1.0,90.0,5.0,0.0
1099,42.0,89.0,90.0,8.0,0.0
1100,54.0,7.0,90.0,7.0,0.0
1101,70.0,5.0,150.0,4.0,0.0
1102,61.0,24.0,150.0,5.0,0.0
1103,42.0,60.0,90.0,8.0,0.0
1104,54.0,7.0,90.0,7.0,0.0
1105,42.0,89.0,90.0,8.0,0.0
1106,54.0,7.0,90.0,7.0,0.0
1107,71.0,4.0,180.0,4.0,0.0
1108,63.0,24.0,150.0,5.0,0.0
1109,42.0,65.0,90.0,8.0,0.0
1110,54.0,3.0,90.0,7.0,0.0
1111,42.0,89.0,90.0,8.0,0.0
1112,54.0,7.0,90.0,7.0,0.0
1113,69.0,4.0,180.0,4.0,0.0
1114,60.0,24.0,150.0,5.0,0.0
1115,42.0,65.0,90.0,8.0,0.0
1116,54.0,3.0,90.0,7.0,0.0
1117,42.0,89.0,90.0,8.0,0.0
1118,54.0,7.0,90.0,7.0,0.0
1119,70.0,5.0,150.0,4.0,0.0
1120,61.0,24.0,150.0,5.0,0.0
1121,42.0,60.0,90.0,8.0,0.0
1122,54.0,7.0,90.0,7.0,0.0
1123,42.0,87.0,90.0,8.0,0.0
1124,54.0,68.0,90.0,6.0,0.0
1125,54.0,7.0,150.0,7.0,0.0
1126,68.0,5.0,180.0,4.0,0.0
1127,59.0,86.0,180.0,5.0,0.0
1128,42.0,21.0,150.0,8.0,0.0
1129,54.0,5.0,90.0,6.0,0.0
1130,54.0,96.0,90.0,6.0,0.0
1131,65.0,5.0,180.0,4.0,0.0
1132,57.0,86.0,180.0,5.0,0.0
1133,54.0,5.0,90.0,6.0,0.0
1134,54.0,69.0,90.0,6.0,0.0
1135,66.0,5.0,150.0,4.0,0.0
1136,58.0,22.0,150.0,5.0,0.0
1137,54.0,146.0,90.0,6.0,0.0
1138,54.0,48.0,150.0,6.0,0.0
1139,53.0,144.0,60.0,6.0,0.0
1140,56.0,48.0,150.0,6.0,0.0
1141,54.0,144.0,60.0,6.0,0.0
1142,59.0,46.0,150.0,6.0,0.0
1143,58.0,98.0,60.0,6.0,0.0
1144,58.0,32.0,150.0,6.0,0.0
1145,42.0,7.0,90.0,7.0,0.0
1146,70.0,5.0,270.0,4.0,0.0
1147,66.0,24.0,270.0,5.0,0.0
1148,30.0,57.0,90.0,8.0,0.0
1149,54.0,7.0,90.0,7.0,0.0
1150,42.0,60.0,90.0,8.0,0.0
1151,54.0,7.0,90.0,7.0,0.0
1152,42.0,89.0,90.0,8.0,0.0
1153,54.0,1.0,90.0,7.0,0.0
1154,71.0,5.0,90.0,4.0,0.0
1155,68.0,1.0,90.0,5.0,0.0
1156,42.0,89.0,90.0,8.0,0.0
1157,54.0,7.0,90.0,7.0,0.0
1158,73.0,5.0,150.0,4.0,0.0
1159,70.0,24.0,150.0,5.0,0.0
1160,42.0,60.0,90.0,8.0,0.0
1161,54.0,7.0,90.0,7.0,0.0
1162,42.0,89.0,90.0,8.0,0.0
1163,54.0,7.0,90.0,7.0,0.0
1164,75.0,4.0,180.0,4.0,0.0
1165,71.0,88.0,180.0,5.0,0.0
1166,42.0,89.0,90.0,8.0,0.0
1167,54.0,3.0,90.0,7.0,0.0
1168,42.0,1.0,90.0,8.0,0.0
1169,54.0,7.0,90.0,7.0,0.0
1170,72.0,4.0,180.0,4.0,0.0
1171,69.0,88.0,180.0,5.0,0.0
1172,42.0,89.0,90.0,8.0,0.0
1173,54.0,3.0,90.0,7.0,0.0
1174,42.0,1.0,90.0,8.0,0.0
1175,54.0,7.0,90.0,7.0,0.0
1176,73.0,5.0,150.0,4.0,0.0
1177,70.0,24.0,150.0,5.0,0.0
1178,42.0,60.0,90.0,8.0,0.0
1179,54.0,7.0,90.0,7.0,0.0
1180,42.0,87.0,90.0,8.0,0.0
1181,54.0,68.0,90.0,6.0,0.0
1182,54.0,7.0,150.0,7.0,0.0
1183,71.0,5.0,180.0,4.0,0.0
1184,68.0,86.0,180.0,5.0,0.0
1185,42.0,21.0,150.0,8.0,0.0
1186,54.0,5.0,90.0,6.0,0.0
1187,54.0,96.0,90.0,6.0,0.0
1188,69.0,5.0,180.0,4.0,0.0
1189,65.0,86.0,180.0,5.0,0.0
1190,54.0,5.0,90.0,6.0,0.0
1191,54.0,69.0,90.0,6.0,0.0
1192,70.0,5.0,150.0,4.0,0.0
1193,66.0,22.0,150.0,5.0,0.0
1194,54.0,146.0,90.0,6.0,0.0
1195,54.0,8.0,150.0,6.0,0.0
1196,58.0,40.0,150.0,5.0,0.0
1197,53.0,8.0,60.0,6.0,0.0
1198,56.0,136.0,60.0,5.0,0.0
1199,56.0,8.0,150.0,6.0,0.0
1200,59.0,40.0,150.0,5.0,0.0
1201,54.0,8.0,60.0,6.0,0.0
1202,58.0,136.0,60.0,5.0,0.0
1203,59.0,8.0,150.0,6.0,0.0
1204,63.0,38.0,150.0,5.0,0.0
1205,58.0,8.0,60.0,6.0,0.0
1206,61.0,141.0,60.0,5.0,0.0
1207,58.0,1.0,1350.0,6.0,0.0
1208,66.0,48.0,150.0,4.0,0.0
1209,61.0,1.0,1350.0,5.0,0.0
1210,65.0,144.0,60.0,4.0,0.0
1211,71.0,48.0,150.0,4.0,0.0
1212,70.0,144.0,60.0,4.0,0.0
1213,78.0,46.0,150.0,4.0,0.0
1214,76.0,145.0,60.0,4.0,0.0
1215,42.0,7.0,150.0,7.0,0.0
1216,76.0,6.0,540.0,4.0,0.0
1217,30.0,41.0,150.0,8.0,0.0
1218,41.0,7.0,60.0,7.0,0.0
1219,29.0,137.0,60.0,8.0,0.0
1220,44.0,7.0,150.0,7.0,0.0
1221,32.0,41.0,150.0,8.0,0.0
1222,42.0,7.0,60.0,7.0,0.0
1223,30.0,137.0,60.0,8.0,0.0
1224,46.0,1.0,150.0,7.0,0.0
1225,34.0,39.0,150.0,8.0,0.0
1226,44.0,7.0,60.0,7.0,0.0
1227,32.0,20.0,60.0,8.0,0.0
1228,43.0,6.0,180.0,7.0,0.0
1229,76.0,24.0,20.0,4.0,0.0
1230,31.0,26.0,180.0,8.0,0.0
1231,78.0,48.0,20.0,4.0,0.0
1232,76.0,93.0,60.0,4.0,0.0
1233,75.0,1.0,90.0,4.0,0.0
1234,56.0,2.0,150.0,6.0,0.0
1235,44.0,6.0,150.0,7.0,0.0
1236,75.0,96.0,30.0,4.0,0.0
1237,59.0,1.0,150.0,5.0,0.0
1238,32.0,58.0,150.0,8.0,0.0
1239,75.0,29.0,30.0,4.0,0.0
1240,75.0,96.0,30.0,4.0,0.0
1241,75.0,88.0,30.0,4.0,0.0
1242,56.0,1.0,180.0,6.0,0.0
1243,41.0,6.0,180.0,7.0,0.0
1244,75.0,24.0,20.0,4.0,0.0
1245,59.0,1.0,180.0,5.0,0.0
1246,29.0,26.0,180.0,8.0,0.0
1247,76.0,48.0,20.0,4.0,0.0
1248,75.0,93.0,60.0,4.0,0.0
1249,73.0,1.0,90.0,4.0,0.0
1250,54.0,2.0,150.0,6.0,0.0
1251,42.0,6.0,150.0,7.0,0.0
1252,73.0,96.0,30.0,4.0,0.0
1253,58.0,1.0,150.0,5.0,0.0
1254,30.0,58.0,150.0,8.0,0.0
1255,73.0,29.0,30.0,4.0,0.0
1256,73.0,96.0,30.0,4.0,0.0
1257,73.0,160.0,30.0,4.0,0.0
1258,63.0,2.0,150.0,6.0,0.0
1259,47.0,7.0,150.0,7.0,0.0
1260,73.0,5.0,90.0,4.0,0.0
1261,70.0,56.0,90.0,5.0,0.0
1262,35.0,24.0,150.0,8.0,0.0
1263,71.0,5.0,90.0,4.0,0.0
1264,68.0,154.0,90.0,5.0,0.0
1265,61.0,2.0,150.0,6.0,0.0
1266,49.0,7.0,150.0,7.0,0.0
1267,70.0,5.0,180.0,4.0,0.0
1268,66.0,152.0,180.0,5.0,0.0
1269,37.0,26.0,150.0,8.0,0.0
1270,61.0,2.0,150.0,6.0,0.0
1271,37.0,1.0,150.0,7.0,0.0
1272,68.0,5.0,150.0,4.0,0.0
1273,65.0,1.0,150.0,5.0,0.0
1274,25.0,74.0,150.0,8.0,0.0
1275,61.0,2.0,150.0,6.0,0.0
1276,42.0,7.0,150.0,7.0,0.0
1277,70.0,5.0,60.0,4.0,0.0
1278,66.0,43.0,60.0,5.0,0.0
1279,30.0,26.0,150.0,8.0,0.0
1280,71.0,5.0,60.0,4.0,0.0
1281,68.0,43.0,60.0,5.0,0.0
1282,70.0,5.0,60.0,4.0,0.0
1283,66.0,8.0,60.0,5.0,0.0
1284,71.0,5.0,60.0,4.0,0.0
1285,68.0,89.0,60.0,5.0,0.0
1286,73.0,5.0,90.0,4.0,0.0
1287,70.0,29.0,90.0,5.0,0.0
1288,78.0,5.0,30.0,4.0,0.0
1289,73.0,91.0,30.0,5.0,0.0
1290,73.0,5.0,30.0,4.0,0.0
1291,70.0,184.0,30.0,5.0,0.0
1292,58.0,8.0,90.0,6.0,0.0
1293,73.0,0.0,180.0,0.0,0.0
1294,70.0,1.0,180.0,0.0,0.0
1295,55.0,4.0,180.0,7.0,0.0
1296,64.0,24.0,20.0,5.0,0.0
1297,43.0,31.0,180.0,8.0,0.0
1298,66.0,40.0,20.0,5.0,0.0
1299,64.0,86.0,60.0,5.0,0.0
1300,61.0,3.0,90.0,6.0,0.0
1301,63.0,3.0,90.0,5.0,0.0
1302,59.0,1.0,150.0,6.0,0.0
1303,68.0,0.0,150.0,0.0,0.0
1304,71.0,1.0,150.0,0.0,0.0
1305,56.0,7.0,150.0,7.0,0.0
1306,75.0,37.0,180.0,4.0,0.0
1307,63.0,96.0,30.0,5.0,0.0
1308,44.0,26.0,150.0,8.0,0.0
1309,63.0,24.0,30.0,5.0,0.0
1310,80.0,39.0,90.0,4.0,0.0
1311,63.0,57.0,30.0,5.0,0.0
1312,63.0,88.0,30.0,5.0,0.0
1313,56.0,8.0,90.0,6.0,0.0
1314,68.0,0.0,180.0,0.0,0.0
1315,71.0,1.0,180.0,0.0,0.0
1316,53.0,4.0,180.0,7.0,0.0
1317,63.0,24.0,20.0,5.0,0.0
1318,41.0,31.0,180.0,8.0,0.0
1319,65.0,40.0,20.0,5.0,0.0
1320,63.0,86.0,60.0,5.0,0.0
1321,59.0,3.0,90.0,6.0,0.0
1322,61.0,3.0,90.0,5.0,0.0
1323,58.0,1.0,150.0,6.0,0.0
1324,66.0,0.0,150.0,0.0,0.0
1325,70.0,1.0,150.0,0.0,0.0
1326,54.0,7.0,150.0,7.0,0.0
1327,73.0,37.0,180.0,4.0,0.0
1328,61.0,96.0,30.0,5.0,0.0
1329,42.0,26.0,150.0,8.0,0.0
1330,61.0,24.0,30.0,5.0,0.0
1331,78.0,39.0,90.0,4.0,0.0
1332,61.0,57.0,30.0,5.0,0.0
1333,61.0,152.0,30.0,5.0,0.0
1334,58.0,1.0,90.0,6.0,0.0
1335,70.0,0.0,90.0,0.0,0.0
1336,73.0,7.0,90.0,0.0,0.0
1337,47.0,7.0,150.0,7.0,0.0
1338,61.0,58.0,90.0,5.0,0.0
1339,35.0,21.0,150.0,8.0,0.0
1340,56.0,1.0,90.0,6.0,0.0
1341,68.0,0.0,90.0,0.0,0.0
1342,71.0,7.0,90.0,0.0,0.0
1343,59.0,154.0,90.0,5.0,0.0
1344,54.0,1.0,150.0,6.0,0.0
1345,70.0,1.0,150.0,0.0,0.0
1346,66.0,0.0,150.0,0.0,0.0
1347,49.0,6.0,150.0,7.0,0.0
1348,58.0,1.0,150.0,5.0,0.0
1349,37.0,183.0,150.0,8.0,0.0
1350,53.0,1.0,150.0,6.0,0.0
1351,68.0,0.0,150.0,0.0,0.0
1352,65.0,1.0,150.0,0.0,0.0
1353,37.0,6.0,150.0,7.0,0.0
1354,56.0,1.0,150.0,5.0,0.0
1355,25.0,119.0,150.0,8.0,0.0
1356,54.0,1.0,150.0,6.0,0.0
1357,66.0,7.0,150.0,0.0,0.0
1358,42.0,7.0,90.0,7.0,0.0
1359,54.0,11.0,4950.0,1.0,0.0
1360,42.0,0.0,4950.0,1.0,0.0
1361,54.0,24.0,150.0,5.0,0.0
1362,30.0,57.0,90.0,8.0,0.0
1363,54.0,7.0,90.0,7.0,0.0
1364,42.0,89.0,90.0,8.0,0.0
1365,58.0,3.0,330.0,6.0,0.0
1366,54.0,7.0,90.0,7.0,0.0
1367,66.0,29.0,150.0,4.0,0.0
1368,42.0,60.0,90.0,8.0,0.0
1369,54.0,7.0,90.0,7.0,0.0
1370,42.0,20.0,90.0,8.0,0.0
1371,54.0,3.0,90.0,7.0,0.0
1372,68.0,24.0,20.0,4.0,0.0
1373,42.0,20.0,90.0,8.0,0.0
1374,67.0,24.0,20.0,4.0,0.0
1375,68.0,21.0,20.0,4.0,0.0
1376,67.0,4.0,20.0,4.0,0.0
1377,54.0,1.0,90.0,7.0,0.0
1378,68.0,21.0,20.0,4.0,0.0
1379,42.0,89.0,90.0,8.0,0.0
1380,67.0,24.0,20.0,4.0,0.0
1381,65.0,21.0,20.0,4.0,0.0
1382,67.0,6.0,20.0,4.0,0.0
1383,59.0,7.0,390.0,6.0,0.0
1384,54.0,7.0,90.0,7.0,0.0
1385,68.0,6.0,660.0,4.0,0.0
1386,42.0,89.0,90.0,8.0,0.0
1387,54.0,7.0,90.0,7.0,0.0
1388,42.0,89.0,90.0,8.0,0.0
1389,54.0,7.0,90.0,7.0,0.0
1390,63.0,88.0,180.0,5.0,0.0
1391,42.0,89.0,90.0,8.0,0.0
1392,54.0,0.0,90.0,7.0,0.0
1393,42.0,1.0,90.0,8.0,0.0
1394,60.0,0.0,180.0,6.0,0.0
1395,54.0,7.0,90.0,7.0,0.0
1396,66.0,24.0,150.0,5.0,0.0
1397,42.0,65.0,90.0,8.0,0.0
1398,54.0,7.0,90.0,7.0,0.0
1399,42.0,89.0,90.0,8.0,0.0
1400,61.0,1.0,180.0,6.0,0.0
1401,54.0,1.0,90.0,7.0,0.0
1402,64.0,24.0,750.0,5.0,0.0
1403,42.0,44.0,90.0,8.0,0.0
1404,54.0,0.0,90.0,7.0,0.0
1405,73.0,45.0,60.0,4.0,0.0
1406,42.0,8.0,90.0,8.0,0.0
1407,75.0,6.0,60.0,4.0,0.0
1408,56.0,1.0,180.0,6.0,0.0
1409,54.0,3.0,90.0,7.0,0.0
1410,78.0,81.0,15.0,4.0,0.0
1411,42.0,44.0,90.0,8.0,0.0
1412,76.0,4.0,90.0,4.0,0.0
1413,54.0,0.0,90.0,7.0,0.0
1414,75.0,45.0,60.0,4.0,0.0
1415,42.0,8.0,90.0,8.0,0.0
1416,73.0,6.0,60.0,4.0,0.0
1417,59.0,32.0,150.0,6.0,0.0
1418,54.0,3.0,90.0,7.0,0.0
1419,73.0,81.0,15.0,4.0,0.0
1420,42.0,44.0,90.0,8.0,0.0
1421,71.0,4.0,90.0,4.0,0.0
1422,54.0,1.0,90.0,7.0,0.0
1423,70.0,13.0,60.0,4.0,0.0
1424,42.0,89.0,90.0,8.0,0.0
1425,68.0,6.0,60.0,4.0,0.0
1426,58.0,24.0,540.0,6.0,0.0
1427,54.0,7.0,90.0,7.0,0.0
1428,66.0,6.0,660.0,4.0,0.0
1429,42.0,65.0,90.0,8.0,0.0
1430,54.0,7.0,90.0,7.0,0.0
1431,42.0,89.0,90.0,8.0,0.0
1432,54.0,7.0,90.0,7.0,0.0
1433,61.0,88.0,180.0,5.0,0.0
1434,42.0,89.0,90.0,8.0,0.0
1435,54.0,7.0,90.0,7.0,0.0
1436,42.0,1.0,90.0,8.0,0.0
1437,54.0,7.0,90.0,7.0,0.0
1438,62.0,24.0,150.0,5.0,0.0
1439,42.0,41.0,90.0,8.0,0.0
1440,54.0,7.0,90.0,7.0,0.0
1441,42.0,89.0,90.0,8.0,0.0
1442,59.0,0.0,180.0,6.0,0.0
1443,54.0,1.0,90.0,7.0,0.0
1444,63.0,22.0,570.0,5.0,0.0
1445,42.0,44.0,90.0,8.0,0.0
1446,54.0,1.0,90.0,7.0,0.0
1447,71.0,45.0,60.0,4.0,0.0
1448,42.0,8.0,90.0,8.0,0.0
1449,73.0,6.0,60.0,4.0,0.0
1450,54.0,0.0,180.0,6.0,0.0
1451,54.0,3.0,90.0,7.0,0.0
1452,76.0,81.0,15.0,4.0,0.0
1453,42.0,44.0,90.0,8.0,0.0
1454,75.0,4.0,90.0,4.0,0.0
1455,54.0,1.0,90.0,7.0,0.0
1456,73.0,45.0,60.0,4.0,0.0
1457,42.0,8.0,90.0,8.0,0.0
1458,71.0,6.0,60.0,4.0,0.0
1459,58.0,32.0,150.0,6.0,0.0
1460,54.0,3.0,90.0,7.0,0.0
1461,71.0,81.0,15.0,4.0,0.0
1462,42.0,44.0,90.0,8.0,0.0
1463,70.0,4.0,90.0,4.0,0.0
1464,54.0,1.0,90.0,7.0,0.0
1465,68.0,13.0,60.0,4.0,0.0
1466,42.0,1.0,90.0,8.0,0.0
1467,66.0,6.0,60.0,4.0,0.0
1468,56.0,7.0,390.0,6.0,0.0
1469,54.0,7.0,90.0,7.0,0.0
1470,64.0,6.0,660.0,4.0,0.0
1471,64.0,26.0,20.0,5.0,0.0
1472,42.0,1.0,90.0,8.0,0.0
1473,63.0,24.0,20.0,5.0,0.0
1474,64.0,16.0,20.0,5.0,0.0
1475,63.0,24.0,20.0,5.0,0.0
1476,54.0,7.0,90.0,7.0,0.0
1477,64.0,24.0,20.0,5.0,0.0
1478,42.0,1.0,90.0,8.0,0.0
1479,63.0,24.0,20.0,5.0,0.0
1480,61.0,16.0,20.0,5.0,0.0
1481,63.0,88.0,20.0,5.0,0.0
1482,54.0,7.0,90.0,7.0,0.0
1483,64.0,88.0,180.0,5.0,0.0
1484,42.0,89.0,90.0,8.0,0.0
1485,54.0,0.0,90.0,7.0,0.0
1486,42.0,1.0,90.0,8.0,0.0
1487,57.0,8.0,150.0,6.0,0.0
1488,54.0,7.0,90.0,7.0,0.0
1489,60.0,24.0,150.0,5.0,0.0
1490,42.0,57.0,90.0,8.0,0.0
1491,54.0,7.0,90.0,7.0,0.0
1492,42.0,87.0,90.0,8.0,0.0
1493,58.0,2.0,90.0,6.0,0.0
1494,73.0,2.0,540.0,0.0,0.0
1495,76.0,0.0,540.0,0.0,0.0
1496,54.0,1.0,90.0,7.0,0.0
1497,61.0,22.0,150.0,5.0,0.0
1498,42.0,44.0,90.0,8.0,0.0
1499,58.0,2.0,90.0,6.0,0.0
1500,54.0,1.0,90.0,7.0,0.0
1501,70.0,21.0,60.0,4.0,0.0
1502,42.0,8.0,90.0,8.0,0.0
1503,71.0,6.0,60.0,4.0,0.0
1504,58.0,2.0,90.0,6.0,0.0
1505,54.0,3.0,90.0,7.0,0.0
1506,75.0,79.0,15.0,4.0,0.0
1507,42.0,44.0,90.0,8.0,0.0
1508,73.0,4.0,90.0,4.0,0.0
1509,58.0,2.0,90.0,6.0,0.0
1510,54.0,1.0,90.0,7.0,0.0
1511,71.0,43.0,60.0,4.0,0.0
1512,42.0,8.0,90.0,8.0,0.0
1513,70.0,6.0,60.0,4.0,0.0
1514,58.0,2.0,90.0,6.0,0.0
1515,54.0,3.0,90.0,7.0,0.0
1516,70.0,5.0,15.0,4.0,0.0
1517,66.0,74.0,15.0,5.0,0.0
1518,42.0,1.0,90.0,8.0,0.0
1519,68.0,4.0,90.0,4.0,0.0
1520,64.0,41.0,90.0,5.0,0.0
1521,58.0,2.0,90.0,6.0,0.0
1522,54.0,1.0,90.0,7.0,0.0
1523,66.0,5.0,60.0,4.0,0.0
1524,63.0,38.0,60.0,5.0,0.0
1525,42.0,87.0,90.0,8.0,0.0
1526,64.0,5.0,60.0,4.0,0.0
1527,61.0,1.0,60.0,5.0,0.0
1528,59.0,2.0,90.0,6.0,0.0
1529,75.0,2.0,540.0,0.0,0.0
1530,71.0,0.0,540.0,0.0,0.0
1531,54.0,1.0,90.0,7.0,0.0
1532,63.0,6.0,90.0,4.0,0.0
1533,59.0,22.0,150.0,5.0,0.0
1534,42.0,44.0,90.0,8.0,0.0
1535,63.0,2.0,90.0,6.0,0.0
1536,54.0,1.0,90.0,7.0,0.0
1537,71.0,21.0,60.0,4.0,0.0
1538,42.0,8.0,90.0,8.0,0.0
1539,70.0,6.0,60.0,4.0,0.0
1540,63.0,2.0,90.0,6.0,0.0
1541,54.0,3.0,90.0,7.0,0.0
1542,73.0,79.0,15.0,4.0,0.0
1543,42.0,44.0,90.0,8.0,0.0
1544,71.0,4.0,90.0,4.0,0.0
1545,59.0,2.0,90.0,6.0,0.0
1546,54.0,1.0,90.0,7.0,0.0
1547,70.0,43.0,60.0,4.0,0.0
1548,42.0,8.0,90.0,8.0,0.0
1549,68.0,6.0,60.0,4.0,0.0
1550,59.0,2.0,90.0,6.0,0.0
1551,54.0,3.0,90.0,7.0,0.0
1552,68.0,5.0,15.0,4.0,0.0
1553,64.0,36.0,15.0,5.0,0.0
1554,42.0,1.0,90.0,8.0,0.0
1555,66.0,4.0,90.0,4.0,0.0
1556,63.0,38.0,30.0,5.0,0.0
1557,63.0,41.0,60.0,5.0,0.0
1558,54.0,2.0,90.0,6.0,0.0
1559,54.0,1.0,90.0,7.0,0.0
1560,64.0,5.0,60.0,4.0,0.0
1561,61.0,38.0,60.0,5.0,0.0
1562,42.0,89.0,90.0,8.0,0.0
1563,63.0,5.0,60.0,4.0,0.0
1564,59.0,1.0,60.0,5.0,0.0
1565,54.0,32.0,150.0,6.0,0.0
1566,71.0,5.0,180.0,0.0,0.0
1567,75.0,0.0,180.0,0.0,0.0
1568,54.0,7.0,90.0,7.0,0.0
1569,66.0,5.0,150.0,4.0,0.0
1570,63.0,8.0,150.0,5.0,0.0
1571,42.0,44.0,90.0,8.0,0.0
1572,42.0,1.0,90.0,7.0,0.0
1573,30.0,89.0,90.0,8.0,0.0
1574,63.0,0.0,60.0,4.0,0.0
1575,59.0,1.0,60.0,5.0,0.0
1576,54.0,1.0,150.0,6.0,0.0
1577,70.0,0.0,150.0,0.0,0.0
1578,73.0,2.0,150.0,0.0,0.0
1579,54.0,7.0,90.0,7.0,0.0
1580,61.0,5.0,150.0,4.0,0.0
1581,58.0,24.0,150.0,5.0,0.0
1582,42.0,46.0,90.0,8.0,0.0
1583,52.0,7.0,90.0,7.0,0.0
1584,40.0,89.0,90.0,8.0,0.0
1585,51.0,7.0,90.0,7.0,0.0
1586,39.0,89.0,90.0,8.0,0.0
1587,49.0,7.0,90.0,7.0,0.0
1588,37.0,327.0,90.0,8.0,0.0
1589,54.0,1.0,330.0,6.0,0.0
1590,71.0,1.0,330.0,0.0,0.0
1591,47.0,1.0,330.0,7.0,0.0
1592,59.0,2.0,330.0,4.0,0.0
1593,51.0,0.0,330.0,4.0,0.0
1594,59.0,0.0,330.0,1.0,0.0
1595,51.0,3.0,330.0,1.0,0.0
1596,51.0,1.0,330.0,5.0,0.0
1597,59.0,0.0,330.0,5.0,0.0
1598,35.0,39.0,330.0,8.0,0.0
1599,54.0,1.0,60.0,6.0,0.0
1600,71.0,1.0,60.0,0.0,0.0
1601,47.0,1.0,60.0,7.0,0.0
1602,59.0,2.0,60.0,4.0,0.0
1603,59.0,3.0,60.0,1.0,0.0
1604,51.0,0.0,60.0,1.0,0.0
1605,59.0,1.0,60.0,5.0,0.0
1606,35.0,135.0,60.0,8.0,0.0
1607,54.0,1.0,150.0,6.0,0.0
1608,71.0,1.0,150.0,0.0,0.0
1609,47.0,1.0,150.0,7.0,0.0
1610,51.0,2.0,150.0,4.0,0.0
1611,59.0,0.0,150.0,4.0,0.0
1612,59.0,3.0,150.0,1.0,0.0
1613,51.0,0.0,150.0,1.0,0.0
1614,59.0,1.0,150.0,5.0,0.0
1615,51.0,0.0,150.0,5.0,0.0
1616,35.0,39.0,150.0,8.0,0.0
1617,54.0,1.0,60.0,6.0,0.0
1618,71.0,1.0,60.0,0.0,0.0
1619,47.0,1.0,60.0,7.0,0.0
1620,59.0,2.0,60.0,4.0,0.0
1621,59.0,0.0,60.0,1.0,0.0
1622,51.0,3.0,60.0,1.0,0.0
1623,59.0,1.0,60.0,5.0,0.0
1624,35.0,20.0,60.0,8.0,0.0
1625,54.0,1.0,60.0,6.0,0.0
1626,71.0,1.0,60.0,0.0,0.0
1627,47.0,1.0,60.0,7.0,0.0
1628,61.0,21.0,20.0,4.0,0.0
1629,59.0,0.0,60.0,1.0,0.0
1630,51.0,3.0,60.0,1.0,0.0
1631,59.0,0.0,60.0,5.0,0.0
1632,51.0,1.0,60.0,5.0,0.0
1633,35.0,18.0,60.0,8.0,0.0
1634,59.0,2.0,20.0,4.0,0.0
1635,61.0,24.0,20.0,4.0,0.0
1636,59.0,24.0,20.0,4.0,0.0
1637,61.0,24.0,20.0,4.0,0.0
1638,59.0,24.0,20.0,4.0,0.0
1639,58.0,22.0,20.0,4.0,0.0
1640,59.0,47.0,20.0,4.0,0.0
1641,54.0,1.0,60.0,6.0,0.0
1642,70.0,0.0,60.0,0.0,0.0
1643,73.0,1.0,60.0,0.0,0.0
1644,42.0,3.0,60.0,7.0,0.0
1645,61.0,555.0,150.0,4.0,0.0
1646,54.0,3.0,60.0,1.0,0.0
1647,61.0,0.0,60.0,1.0,0.0
1648,52.0,1.0,60.0,5.0,0.0
1649,58.0,0.0,60.0,5.0,0.0
1650,30.0,106.0,60.0,8.0,0.0
1651,54.0,1.0,330.0,6.0,0.0
1652,69.0,0.0,330.0,0.0,0.0
1653,75.0,1.0,330.0,0.0,0.0
1654,47.0,1.0,330.0,7.0,0.0
1655,54.0,2.0,330.0,4.0,0.0
1656,63.0,0.0,330.0,4.0,0.0
1657,47.0,0.0,330.0,1.0,0.0
1658,59.0,3.0,330.0,1.0,0.0
1659,59.0,1.0,330.0,5.0,0.0
1660,57.0,0.0,330.0,5.0,0.0
1661,35.0,39.0,330.0,8.0,0.0
1662,54.0,1.0,60.0,6.0,0.0
1663,75.0,0.0,60.0,0.0,0.0
1664,69.0,1.0,60.0,0.0,0.0
1665,47.0,1.0,60.0,7.0,0.0
1666,63.0,2.0,60.0,4.0,0.0
1667,47.0,3.0,60.0,1.0,0.0
1668,59.0,0.0,60.0,1.0,0.0
1669,57.0,0.0,60.0,5.0,0.0
1670,59.0,1.0,60.0,5.0,0.0
1671,35.0,135.0,60.0,8.0,0.0
1672,54.0,1.0,150.0,6.0,0.0
1673,69.0,0.0,150.0,0.0,0.0
1674,75.0,1.0,150.0,0.0,0.0
1675,47.0,1.0,150.0,7.0,0.0
1676,63.0,0.0,150.0,4.0,0.0
1677,54.0,2.0,150.0,4.0,0.0
1678,47.0,3.0,150.0,1.0,0.0
1679,59.0,0.0,150.0,1.0,0.0
1680,59.0,0.0,150.0,5.0,0.0
1681,57.0,1.0,150.0,5.0,0.0
1682,35.0,39.0,150.0,8.0,0.0
1683,54.0,1.0,60.0,6.0,0.0
1684,75.0,0.0,60.0,0.0,0.0
1685,69.0,1.0,60.0,0.0,0.0
1686,47.0,1.0,60.0,7.0,0.0
1687,63.0,2.0,60.0,4.0,0.0
1688,59.0,3.0,60.0,1.0,0.0
1689,47.0,0.0,60.0,1.0,0.0
1690,59.0,0.0,60.0,5.0,0.0
1691,57.0,1.0,60.0,5.0,0.0
1692,35.0,20.0,60.0,8.0,0.0
1693,54.0,1.0,60.0,6.0,0.0
1694,69.0,0.0,60.0,0.0,0.0
1695,75.0,1.0,60.0,0.0,0.0
1696,47.0,1.0,60.0,7.0,0.0
1697,64.0,21.0,20.0,4.0,0.0
1698,59.0,0.0,60.0,1.0,0.0
1699,47.0,3.0,60.0,1.0,0.0
1700,59.0,0.0,60.0,5.0,0.0
1701,57.0,1.0,60.0,5.0,0.0
1702,35.0,18.0,60.0,8.0,0.0
1703,63.0,2.0,20.0,4.0,0.0
1704,64.0,24.0,20.0,4.0,0.0
1705,63.0,24.0,20.0,4.0,0.0
1706,64.0,24.0,20.0,4.0,0.0
1707,63.0,24.0,20.0,4.0,0.0
1708,61.0,22.0,20.0,4.0,0.0
1709,63.0,47.0,20.0,4.0,0.0
1710,52.0,1.0,60.0,6.0,0.0
1711,76.0,0.0,60.0,0.0,0.0
1712,68.0,1.0,60.0,0.0,0.0
1713,40.0,3.0,60.0,7.0,0.0
1714,64.0,365.0,150.0,4.0,0.0
1715,59.0,0.0,60.0,1.0,0.0
1716,47.0,3.0,60.0,1.0,0.0
1717,56.0,0.0,60.0,5.0,0.0
1718,59.0,1.0,60.0,5.0,0.0
1719,28.0,106.0,60.0,8.0,0.0
1720,56.0,2.0,150.0,6.0,0.0
1721,40.0,7.0,150.0,7.0,0.0
1722,68.0,5.0,540.0,4.0,0.0
1723,64.0,8.0,540.0,5.0,0.0
1724,28.0,39.0,150.0,8.0,0.0
1725,58.0,2.0,60.0,6.0,0.0
1726,42.0,7.0,60.0,7.0,0.0
1727,30.0,183.0,60.0,8.0,0.0
1728,59.0,2.0,180.0,6.0,0.0
1729,44.0,7.0,180.0,7.0,0.0
1730,32.0,138.0,180.0,8.0,0.0
1731,61.0,2.0,150.0,6.0,0.0
1732,46.0,7.0,150.0,7.0,0.0
1733,34.0,215.0,150.0,8.0,0.0
1734,63.0,2.0,180.0,6.0,0.0
1735,47.0,1.0,180.0,7.0,0.0
1736,66.0,5.0,180.0,4.0,0.0
1737,63.0,1.0,180.0,5.0,0.0
1738,35.0,183.0,180.0,8.0,0.0
1739,61.0,2.0,180.0,6.0,0.0
1740,43.0,1.0,180.0,7.0,0.0
1741,70.0,5.0,180.0,4.0,0.0
1742,64.0,1.0,180.0,5.0,0.0
1743,31.0,151.0,180.0,8.0,0.0
1744,59.0,2.0,150.0,6.0,0.0
1745,44.0,1.0,150.0,7.0,0.0
1746,71.0,5.0,150.0,4.0,0.0
1747,63.0,1.0,150.0,5.0,0.0
1748,32.0,167.0,150.0,8.0,0.0
1749,59.0,3.0,150.0,6.0,0.0
1750,40.0,7.0,150.0,7.0,0.0
1751,68.0,5.0,150.0,4.0,0.0
1752,64.0,10.0,150.0,5.0,0.0
1753,28.0,21.0,150.0,8.0,0.0
1754,56.0,3.0,60.0,6.0,0.0
1755,64.0,5.0,60.0,4.0,0.0
1756,61.0,156.0,60.0,5.0,0.0
1757,54.0,3.0,180.0,6.0,0.0
1758,42.0,7.0,150.0,7.0,0.0
1759,63.0,5.0,180.0,4.0,0.0
1760,59.0,152.0,180.0,5.0,0.0
1761,30.0,23.0,150.0,8.0,0.0
1762,52.0,2.0,150.0,6.0,0.0
1763,42.0,1.0,150.0,7.0,0.0
1764,61.0,5.0,150.0,4.0,0.0
1765,58.0,1.0,150.0,5.0,0.0
1766,30.0,183.0,150.0,8.0,0.0
1767,51.0,2.0,150.0,6.0,0.0
1768,47.0,1.0,150.0,7.0,0.0
1769,59.0,5.0,150.0,4.0,0.0
1770,59.0,1.0,150.0,5.0,0.0
1771,35.0,73.0,150.0,8.0,0.0
1772,61.0,7.0,60.0,7.0,0.0
1773,49.0,41.0,60.0,8.0,0.0
1774,59.0,7.0,60.0,7.0,0.0
1775,47.0,24.0,60.0,8.0,0.0
1776,75.0,2.0,30.0,0.0,0.0
1777,71.0,0.0,30.0,0.0,0.0
1778,61.0,7.0,60.0,7.0,0.0
1779,75.0,5.0,30.0,4.0,0.0
1780,71.0,10.0,30.0,5.0,0.0
1781,49.0,41.0,60.0,8.0,0.0
1782,59.0,7.0,60.0,7.0,0.0
1783,47.0,24.0,60.0,8.0,0.0
1784,75.0,2.0,30.0,0.0,0.0
1785,71.0,0.0,30.0,0.0,0.0
1786,61.0,7.0,60.0,7.0,0.0
1787,75.0,5.0,30.0,4.0,0.0
1788,71.0,10.0,30.0,5.0,0.0
1789,49.0,41.0,60.0,8.0,0.0
1790,59.0,7.0,60.0,7.0,0.0
1791,47.0,24.0,60.0,8.0,0.0
1792,75.0,0.0,30.0,0.0,0.0
1793,71.0,2.0,30.0,0.0,0.0
1794,58.0,7.0,60.0,7.0,0.0
1795,75.0,5.0,30.0,4.0,0.0
1796,71.0,10.0,30.0,5.0,0.0
1797,46.0,39.0,60.0,8.0,0.0
1798,56.0,7.0,60.0,7.0,0.0
1799,44.0,90.0,60.0,8.0,0.0
1800,63.0,2.0,330.0,6.0,0.0
1801,71.0,0.0,90.0,0.0,0.0
1802,75.0,2.0,90.0,0.0,0.0
1803,55.0,7.0,150.0,7.0,0.0
1804,75.0,5.0,90.0,4.0,0.0
1805,51.0,4.0,540.0,1.0,0.0
1806,63.0,0.0,540.0,1.0,0.0
1807,71.0,58.0,90.0,5.0,0.0
1808,43.0,24.0,150.0,8.0,0.0
1809,73.0,0.0,90.0,0.0,0.0
1810,70.0,0.0,90.0,0.0,0.0
1811,73.0,5.0,90.0,4.0,0.0
1812,70.0,29.0,90.0,5.0,0.0
1813,71.0,0.0,90.0,0.0,0.0
1814,68.0,3.0,90.0,0.0,0.0
1815,58.0,7.0,60.0,7.0,0.0
1816,71.0,5.0,30.0,4.0,0.0
1817,68.0,10.0,30.0,5.0,0.0
1818,46.0,38.0,60.0,8.0,0.0
1819,56.0,7.0,60.0,7.0,0.0
1820,44.0,24.0,60.0,8.0,0.0
1821,71.0,2.0,30.0,0.0,0.0
1822,68.0,0.0,30.0,0.0,0.0
1823,58.0,7.0,60.0,7.0,0.0
1824,71.0,5.0,30.0,4.0,0.0
1825,68.0,8.0,30.0,5.0,0.0
1826,46.0,41.0,60.0,8.0,0.0
1827,56.0,7.0,60.0,7.0,0.0
1828,44.0,24.0,60.0,8.0,0.0
1829,68.0,0.0,30.0,0.0,0.0
1830,71.0,2.0,30.0,0.0,0.0
1831,58.0,7.0,60.0,7.0,0.0
1832,71.0,5.0,30.0,4.0,0.0
1833,68.0,10.0,30.0,5.0,0.0
1834,46.0,41.0,60.0,8.0,0.0
1835,56.0,7.0,60.0,7.0,0.0
1836,44.0,24.0,60.0,8.0,0.0
1837,71.0,2.0,30.0,0.0,0.0
1838,68.0,0.0,30.0,0.0,0.0
1839,54.0,3.0,60.0,7.0,0.0
1840,71.0,5.0,30.0,4.0,0.0
1841,68.0,10.0,30.0,5.0,0.0
1842,42.0,39.0,60.0,8.0,0.0
1843,52.0,7.0,60.0,7.0,0.0
1844,40.0,90.0,60.0,8.0,0.0
1845,59.0,2.0,330.0,6.0,0.0
1846,71.0,0.0,90.0,0.0,0.0
1847,68.0,2.0,90.0,0.0,0.0
1848,51.0,7.0,150.0,7.0,0.0
1849,71.0,5.0,90.0,4.0,0.0
1850,59.0,0.0,540.0,1.0,0.0
1851,47.0,4.0,540.0,1.0,0.0
1852,68.0,58.0,90.0,5.0,0.0
1853,39.0,24.0,150.0,8.0,0.0
1854,66.0,0.0,90.0,0.0,0.0
1855,69.0,5.0,90.0,0.0,0.0
1856,69.0,0.0,90.0,4.0,0.0
1857,66.0,29.0,90.0,5.0,0.0
1858,68.0,0.0,90.0,0.0,0.0
1859,64.0,3.0,90.0,0.0,0.0
1860,54.0,7.0,60.0,7.0,0.0
1861,68.0,5.0,30.0,4.0,0.0
1862,64.0,10.0,30.0,5.0,0.0
1863,42.0,38.0,60.0,8.0,0.0
1864,52.0,7.0,60.0,7.0,0.0
1865,40.0,24.0,60.0,8.0,0.0
1866,76.0,2.0,30.0,0.0,0.0
1867,80.0,0.0,30.0,0.0,0.0
1868,54.0,7.0,60.0,7.0,0.0
1869,68.0,5.0,30.0,4.0,0.0
1870,64.0,8.0,30.0,5.0,0.0
1871,42.0,41.0,60.0,8.0,0.0
1872,52.0,7.0,60.0,7.0,0.0
1873,40.0,24.0,60.0,8.0,0.0
1874,76.0,0.0,30.0,0.0,0.0
1875,80.0,2.0,30.0,0.0,0.0
1876,54.0,7.0,60.0,7.0,0.0
1877,68.0,5.0,30.0,4.0,0.0
1878,64.0,10.0,30.0,5.0,0.0
1879,42.0,41.0,60.0,8.0,0.0
1880,52.0,7.0,60.0,7.0,0.0
1881,40.0,24.0,60.0,8.0,0.0
1882,76.0,2.0,30.0,0.0,0.0
1883,80.0,0.0,30.0,0.0,0.0
1884,51.0,3.0,60.0,7.0,0.0
1885,68.0,5.0,30.0,4.0,0.0
1886,64.0,10.0,30.0,5.0,0.0
1887,39.0,39.0,60.0,8.0,0.0
1888,49.0,7.0,60.0,7.0,0.0
1889,37.0,90.0,60.0,8.0,0.0
1890,56.0,31.0,270.0,6.0,0.0
1891,76.0,2.0,90.0,0.0,0.0
1892,80.0,0.0,90.0,0.0,0.0
1893,48.0,4.0,180.0,7.0,0.0
1894,68.0,5.0,90.0,4.0,0.0
1895,64.0,89.0,90.0,5.0,0.0
1896,36.0,26.0,180.0,8.0,0.0
1897,78.0,0.0,90.0,0.0,0.0
1898,75.0,0.0,90.0,0.0,0.0
1899,66.0,1.0,90.0,4.0,0.0
1900,63.0,3.0,90.0,5.0,0.0
1901,73.0,0.0,90.0,0.0,0.0
1902,76.0,1.0,90.0,0.0,0.0
1903,49.0,7.0,90.0,7.0,0.0
1904,64.0,5.0,30.0,4.0,0.0
1905,61.0,24.0,30.0,5.0,0.0
1906,37.0,26.0,90.0,8.0,0.0
1907,56.0,2.0,90.0,6.0,0.0
1908,68.0,0.0,30.0,0.0,0.0
1909,76.0,2.0,30.0,0.0,0.0
1910,47.0,3.0,90.0,7.0,0.0
1911,76.0,5.0,30.0,4.0,0.0
1912,61.0,4.0,90.0,1.0,0.0
1913,73.0,54.0,30.0,5.0,0.0
1914,35.0,26.0,90.0,8.0,0.0
1915,61.0,2.0,90.0,6.0,0.0
1916,73.0,0.0,30.0,0.0,0.0
1917,76.0,2.0,30.0,0.0,0.0
1918,46.0,3.0,90.0,7.0,0.0
1919,76.0,5.0,30.0,4.0,0.0
1920,61.0,4.0,90.0,1.0,0.0
1921,73.0,54.0,30.0,5.0,0.0
1922,34.0,26.0,90.0,8.0,0.0
1923,59.0,2.0,90.0,6.0,0.0
1924,76.0,0.0,30.0,0.0,0.0
1925,71.0,2.0,30.0,0.0,0.0
1926,44.0,3.0,90.0,7.0,0.0
1927,76.0,5.0,30.0,4.0,0.0
1928,61.0,4.0,90.0,1.0,0.0
1929,73.0,54.0,30.0,5.0,0.0
1930,32.0,42.0,90.0,8.0,0.0
1931,58.0,2.0,90.0,6.0,0.0
1932,76.0,0.0,330.0,0.0,0.0
1933,70.0,0.0,330.0,0.0,0.0
1934,42.0,1.0,90.0,7.0,0.0
1935,76.0,5.0,60.0,4.0,0.0
1936,54.0,0.0,330.0,1.0,0.0
1937,61.0,1.0,330.0,1.0,0.0
1938,73.0,40.0,60.0,5.0,0.0
1939,30.0,42.0,90.0,8.0,0.0
1940,75.0,5.0,60.0,4.0,0.0
1941,71.0,1.0,60.0,5.0,0.0
1942,58.0,2.0,90.0,6.0,0.0
1943,42.0,1.0,90.0,7.0,0.0
1944,73.0,5.0,60.0,4.0,0.0
1945,70.0,40.0,60.0,5.0,0.0
1946,30.0,42.0,90.0,8.0,0.0
1947,71.0,5.0,60.0,4.0,0.0
1948,68.0,1.0,60.0,5.0,0.0
1949,58.0,2.0,90.0,6.0,0.0
1950,42.0,1.0,90.0,7.0,0.0
1951,70.0,5.0,60.0,4.0,0.0
1952,66.0,40.0,60.0,5.0,0.0
1953,30.0,42.0,90.0,8.0,0.0
1954,68.0,5.0,60.0,4.0,0.0
1955,64.0,1.0,60.0,5.0,0.0
1956,58.0,2.0,90.0,6.0,0.0
1957,42.0,1.0,90.0,7.0,0.0
1958,66.0,4.0,60.0,4.0,0.0
1959,63.0,40.0,60.0,5.0,0.0
1960,30.0,87.0,90.0,8.0,0.0
1961,64.0,5.0,60.0,4.0,0.0
1962,61.0,1.0,60.0,5.0,0.0
1963,59.0,2.0,90.0,6.0,0.0
1964,71.0,0.0,150.0,0.0,0.0
1965,75.0,4.0,150.0,0.0,0.0
1966,44.0,1.0,90.0,7.0,0.0
1967,63.0,5.0,90.0,4.0,0.0
1968,59.0,4.0,150.0,1.0,0.0
1969,47.0,0.0,150.0,1.0,0.0
1970,59.0,1.0,90.0,5.0,0.0
1971,32.0,58.0,90.0,8.0,0.0
1972,59.0,2.0,90.0,6.0,0.0
1973,44.0,3.0,90.0,7.0,0.0
1974,71.0,5.0,60.0,4.0,0.0
1975,63.0,16.0,60.0,5.0,0.0
1976,32.0,1.0,90.0,8.0,0.0
1977,70.0,4.0,20.0,4.0,0.0
1978,66.0,86.0,20.0,5.0,0.0
1979,59.0,2.0,90.0,6.0,0.0
1980,40.0,3.0,90.0,7.0,0.0
1981,68.0,4.0,90.0,4.0,0.0
1982,64.0,43.0,90.0,5.0,0.0
1983,28.0,1.0,90.0,8.0,0.0
1984,56.0,1.0,90.0,6.0,0.0
1985,73.0,0.0,90.0,0.0,0.0
1986,76.0,1.0,90.0,0.0,0.0
1987,40.0,1.0,90.0,7.0,0.0
1988,66.0,5.0,60.0,4.0,0.0
1989,63.0,38.0,60.0,5.0,0.0
1990,28.0,87.0,90.0,8.0,0.0
1991,64.0,5.0,60.0,4.0,0.0
1992,61.0,1.0,60.0,5.0,0.0
1993,54.0,2.0,90.0,6.0,0.0
1994,75.0,2.0,150.0,0.0,0.0
1995,71.0,0.0,150.0,0.0,0.0
1996,42.0,7.0,90.0,7.0,0.0
1997,63.0,2.0,150.0,4.0,0.0
1998,63.0,3.0,150.0,1.0,0.0
1999,59.0,0.0,150.0,1.0,0.0
2000,59.0,22.0,150.0,5.0,0.0
2001,30.0,58.0,90.0,8.0,0.0
2002,54.0,2.0,90.0,6.0,0.0
2003,42.0,7.0,90.0,7.0,0.0
2004,30.0,26.0,90.0,8.0,0.0
2005,52.0,2.0,90.0,6.0,0.0
2006,75.0,2.0,30.0,0.0,0.0
2007,71.0,0.0,30.0,0.0,0.0
2008,42.0,1.0,90.0,7.0,0.0
2009,63.0,30.0,30.0,4.0,0.0
2010,61.0,0.0,150.0,1.0,0.0
2011,54.0,3.0,150.0,1.0,0.0
2012,58.0,22.0,150.0,5.0,0.0
2013,30.0,26.0,90.0,8.0,0.0
2014,70.0,0.0,30.0,0.0,0.0
2015,73.0,2.0,30.0,0.0,0.0
2016,61.0,27.0,30.0,4.0,0.0
2017,71.0,0.0,30.0,0.0,0.0
2018,75.0,2.0,30.0,0.0,0.0
2019,63.0,4.0,30.0,4.0,0.0
2020,52.0,2.0,90.0,6.0,0.0
2021,70.0,2.0,30.0,0.0,0.0
2022,73.0,0.0,30.0,0.0,0.0
2023,42.0,1.0,90.0,7.0,0.0
2024,61.0,30.0,30.0,4.0,0.0
2025,30.0,153.0,90.0,8.0,0.0
2026,71.0,2.0,30.0,0.0,0.0
2027,68.0,0.0,30.0,0.0,0.0
2028,59.0,2.0,30.0,4.0,0.0
2029,73.0,0.0,30.0,0.0,0.0
2030,70.0,2.0,30.0,0.0,0.0
2031,61.0,4.0,30.0,4.0,0.0
2032,51.0,1.0,150.0,6.0,0.0
2033,71.0,1.0,150.0,0.0,0.0
2034,47.0,1.0,150.0,7.0,0.0
2035,59.0,2.0,150.0,4.0,0.0
2036,59.0,0.0,150.0,1.0,0.0
2037,47.0,3.0,150.0,1.0,0.0
2038,59.0,1.0,150.0,5.0,0.0
2039,35.0,58.0,150.0,8.0,0.0
2040,73.0,5.0,30.0,4.0,0.0
2041,61.0,27.0,30.0,5.0,0.0
2042,71.0,5.0,30.0,4.0,0.0
2043,59.0,27.0,30.0,5.0,0.0
2044,73.0,5.0,30.0,4.0,0.0
2045,61.0,24.0,30.0,5.0,0.0
2046,63.0,2.0,30.0,6.0,0.0
2047,59.0,1.0,30.0,7.0,0.0
2048,71.0,5.0,30.0,4.0,0.0
2049,59.0,1.0,30.0,5.0,0.0
2050,47.0,26.0,30.0,8.0,0.0
2051,73.0,5.0,30.0,4.0,0.0
2052,61.0,27.0,30.0,5.0,0.0
2053,71.0,5.0,30.0,4.0,0.0
2054,59.0,24.0,30.0,5.0,0.0
2055,63.0,2.0,30.0,6.0,0.0
2056,59.0,1.0,30.0,7.0,0.0
2057,73.0,5.0,30.0,4.0,0.0
2058,61.0,1.0,30.0,5.0,0.0
2059,47.0,26.0,30.0,8.0,0.0
2060,71.0,5.0,30.0,4.0,0.0
2061,59.0,27.0,30.0,5.0,0.0
2062,73.0,5.0,30.0,4.0,0.0
2063,61.0,24.0,30.0,5.0,0.0
2064,63.0,2.0,30.0,6.0,0.0
2065,59.0,7.0,30.0,7.0,0.0
2066,70.0,5.0,60.0,4.0,0.0
2067,58.0,41.0,60.0,5.0,0.0
2068,47.0,10.0,30.0,8.0,0.0
2069,68.0,5.0,60.0,4.0,0.0
2070,56.0,90.0,60.0,5.0,0.0
2071,63.0,2.0,90.0,6.0,0.0
2072,59.0,7.0,90.0,7.0,0.0
2073,67.0,5.0,150.0,4.0,0.0
2074,55.0,22.0,150.0,5.0,0.0
2075,47.0,58.0,90.0,8.0,0.0
2076,61.0,2.0,90.0,6.0,0.0
2077,58.0,7.0,90.0,7.0,0.0
2078,46.0,25.0,90.0,8.0,0.0
2079,59.0,2.0,30.0,6.0,0.0
2080,56.0,1.0,30.0,7.0,0.0
2081,70.0,5.0,30.0,4.0,0.0
2082,58.0,1.0,30.0,5.0,0.0
2083,44.0,26.0,30.0,8.0,0.0
2084,68.0,5.0,30.0,4.0,0.0
2085,56.0,27.0,30.0,5.0,0.0
2086,70.0,5.0,30.0,4.0,0.0
2087,58.0,24.0,30.0,5.0,0.0
2088,59.0,2.0,30.0,6.0,0.0
2089,56.0,1.0,30.0,7.0,0.0
2090,68.0,5.0,30.0,4.0,0.0
2091,56.0,1.0,30.0,5.0,0.0
2092,44.0,26.0,30.0,8.0,0.0
2093,70.0,5.0,30.0,4.0,0.0
2094,58.0,27.0,30.0,5.0,0.0
2095,68.0,5.0,30.0,4.0,0.0
2096,56.0,24.0,30.0,5.0,0.0
2097,59.0,2.0,30.0,6.0,0.0
2098,56.0,1.0,30.0,7.0,0.0
2099,70.0,5.0,30.0,4.0,0.0
2100,58.0,1.0,30.0,5.0,0.0
2101,44.0,26.0,30.0,8.0,0.0
2102,68.0,5.0,30.0,4.0,0.0
2103,56.0,27.0,30.0,5.0,0.0
2104,70.0,5.0,30.0,4.0,0.0
2105,58.0,24.0,30.0,5.0,0.0
2106,59.0,2.0,30.0,6.0,0.0
2107,56.0,7.0,30.0,7.0,0.0
2108,66.0,5.0,60.0,4.0,0.0
2109,54.0,41.0,60.0,5.0,0.0
2110,44.0,10.0,30.0,8.0,0.0
2111,64.0,5.0,60.0,4.0,0.0
2112,52.0,90.0,60.0,5.0,0.0
2113,59.0,2.0,90.0,6.0,0.0
2114,56.0,7.0,90.0,7.0,0.0
2115,63.0,5.0,150.0,4.0,0.0
2116,51.0,22.0,150.0,5.0,0.0
2117,44.0,58.0,90.0,8.0,0.0
2118,57.0,2.0,90.0,6.0,0.0
2119,54.0,7.0,90.0,7.0,0.0
2120,42.0,25.0,90.0,8.0,0.0
2121,56.0,2.0,30.0,6.0,0.0
2122,52.0,1.0,30.0,7.0,0.0
2123,78.0,5.0,30.0,4.0,0.0
2124,66.0,1.0,30.0,5.0,0.0
2125,40.0,26.0,30.0,8.0,0.0
2126,76.0,5.0,30.0,4.0,0.0
2127,64.0,27.0,30.0,5.0,0.0
2128,78.0,5.0,30.0,4.0,0.0
2129,66.0,24.0,30.0,5.0,0.0
2130,56.0,2.0,30.0,6.0,0.0
2131,52.0,1.0,30.0,7.0,0.0
2132,76.0,5.0,30.0,4.0,0.0
2133,64.0,1.0,30.0,5.0,0.0
2134,40.0,26.0,30.0,8.0,0.0
2135,78.0,5.0,30.0,4.0,0.0
2136,66.0,27.0,30.0,5.0,0.0
2137,76.0,5.0,30.0,4.0,0.0
2138,64.0,24.0,30.0,5.0,0.0
2139,56.0,2.0,30.0,6.0,0.0
2140,52.0,1.0,30.0,7.0,0.0
2141,78.0,5.0,30.0,4.0,0.0
2142,66.0,1.0,30.0,5.0,0.0
2143,40.0,26.0,30.0,8.0,0.0
2144,76.0,5.0,30.0,4.0,0.0
2145,64.0,27.0,30.0,5.0,0.0
2146,78.0,5.0,30.0,4.0,0.0
2147,66.0,24.0,30.0,5.0,0.0
2148,56.0,2.0,30.0,6.0,0.0
2149,52.0,7.0,30.0,7.0,0.0
2150,75.0,5.0,60.0,4.0,0.0
2151,63.0,41.0,60.0,5.0,0.0
2152,40.0,10.0,30.0,8.0,0.0
2153,73.0,5.0,60.0,4.0,0.0
2154,61.0,90.0,60.0,5.0,0.0
2155,56.0,2.0,90.0,6.0,0.0
2156,52.0,7.0,90.0,7.0,0.0
2157,72.0,4.0,180.0,4.0,0.0
2158,60.0,24.0,180.0,5.0,0.0
2159,40.0,85.0,90.0,8.0,0.0
2160,54.0,2.0,90.0,6.0,0.0
2161,51.0,3.0,90.0,7.0,0.0
2162,39.0,1.0,90.0,8.0,0.0
2163,52.0,2.0,30.0,6.0,0.0
2164,49.0,7.0,30.0,7.0,0.0
2165,73.0,5.0,90.0,4.0,0.0
2166,61.0,26.0,90.0,5.0,0.0
2167,37.0,56.0,30.0,8.0,0.0
2168,56.0,2.0,30.0,6.0,0.0
2169,48.0,1.0,30.0,7.0,0.0
2170,75.0,5.0,30.0,4.0,0.0
2171,66.0,1.0,30.0,5.0,0.0
2172,36.0,87.0,30.0,8.0,0.0
2173,56.0,2.0,30.0,6.0,0.0
2174,49.0,1.0,30.0,7.0,0.0
2175,76.0,5.0,30.0,4.0,0.0
2176,64.0,1.0,30.0,5.0,0.0
2177,37.0,87.0,30.0,8.0,0.0
2178,61.0,2.0,30.0,6.0,0.0
2179,65.0,4.0,90.0,0.0,0.0
2180,68.0,0.0,90.0,0.0,0.0
2181,47.0,1.0,30.0,7.0,0.0
2182,77.0,5.0,30.0,4.0,0.0
2183,61.0,29.0,90.0,1.0,0.0
2184,68.0,1.0,30.0,5.0,0.0
2185,35.0,54.0,30.0,8.0,0.0
2186,61.0,2.0,30.0,6.0,0.0
2187,66.0,4.0,90.0,0.0,0.0
2188,70.0,0.0,90.0,0.0,0.0
2189,46.0,1.0,30.0,7.0,0.0
2190,78.0,5.0,30.0,4.0,0.0
2191,61.0,29.0,90.0,1.0,0.0
2192,66.0,1.0,30.0,5.0,0.0
2193,34.0,54.0,30.0,8.0,0.0
2194,70.0,2.0,30.0,6.0,0.0
2195,73.0,4.0,90.0,0.0,0.0
2196,70.0,0.0,90.0,0.0,0.0
2197,51.0,1.0,30.0,7.0,0.0
2198,79.0,5.0,30.0,4.0,0.0
2199,63.0,29.0,90.0,1.0,0.0
2200,73.0,1.0,30.0,5.0,0.0
2201,39.0,54.0,30.0,8.0,0.0
2202,68.0,2.0,30.0,6.0,0.0
2203,68.0,4.0,90.0,0.0,0.0
2204,71.0,0.0,90.0,0.0,0.0
2205,52.0,1.0,30.0,7.0,0.0
2206,80.0,5.0,30.0,4.0,0.0
2207,59.0,29.0,90.0,1.0,0.0
2208,71.0,1.0,30.0,5.0,0.0
2209,40.0,54.0,30.0,8.0,0.0
2210,66.0,2.0,30.0,6.0,0.0
2211,76.0,0.0,90.0,0.0,0.0
2212,68.0,4.0,90.0,0.0,0.0
2213,49.0,1.0,30.0,7.0,0.0
2214,82.0,5.0,30.0,4.0,0.0
2215,64.0,29.0,90.0,1.0,0.0
2216,54.0,0.0,90.0,1.0,0.0
2217,76.0,1.0,30.0,5.0,0.0
2218,37.0,54.0,30.0,8.0,0.0
2219,66.0,2.0,30.0,6.0,0.0
2220,75.0,0.0,90.0,0.0,0.0
2221,71.0,4.0,90.0,0.0,0.0
2222,51.0,1.0,30.0,7.0,0.0
2223,83.0,5.0,30.0,4.0,0.0
2224,54.0,29.0,90.0,1.0,0.0
2225,63.0,0.0,90.0,1.0,0.0
2226,75.0,1.0,30.0,5.0,0.0
2227,39.0,54.0,30.0,8.0,0.0
2228,59.0,2.0,30.0,6.0,0.0
2229,71.0,4.0,90.0,0.0,0.0
2230,75.0,0.0,90.0,0.0,0.0
2231,44.0,1.0,30.0,7.0,0.0
2232,51.0,5.0,30.0,4.0,0.0
2233,59.0,0.0,90.0,1.0,0.0
2234,47.0,43.0,90.0,1.0,0.0
2235,63.0,1.0,30.0,5.0,0.0
2236,32.0,54.0,30.0,8.0,0.0
2237,56.0,8.0,60.0,6.0,0.0
2238,59.0,0.0,60.0,6.0,0.0
2239,74.0,0.0,540.0,0.0,0.0
2240,68.0,2.0,540.0,0.0,0.0
2241,41.0,6.0,90.0,7.0,0.0
2242,53.0,27.0,150.0,4.0,0.0
2243,59.0,1.0,540.0,1.0,0.0
2244,47.0,0.0,540.0,1.0,0.0
2245,62.0,40.0,60.0,5.0,0.0
2246,53.0,0.0,60.0,5.0,0.0
2247,29.0,39.0,90.0,8.0,0.0
2248,59.0,2.0,60.0,6.0,0.0
2249,56.0,0.0,60.0,6.0,0.0
2250,62.0,0.0,60.0,5.0,0.0
2251,53.0,1.0,60.0,5.0,0.0
2252,56.0,8.0,60.0,6.0,0.0
2253,59.0,0.0,60.0,6.0,0.0
2254,41.0,6.0,90.0,7.0,0.0
2255,62.0,13.0,60.0,5.0,0.0
2256,53.0,0.0,60.0,5.0,0.0
2257,29.0,39.0,90.0,8.0,0.0
2258,56.0,0.0,60.0,6.0,0.0
2259,59.0,2.0,60.0,6.0,0.0
2260,53.0,1.0,60.0,5.0,0.0
2261,62.0,0.0,60.0,5.0,0.0
2262,59.0,0.0,60.0,6.0,0.0
2263,56.0,8.0,60.0,6.0,0.0
2264,41.0,6.0,90.0,7.0,0.0
2265,80.0,2.0,330.0,4.0,0.0
2266,53.0,40.0,60.0,5.0,0.0
2267,62.0,0.0,60.0,5.0,0.0
2268,29.0,39.0,90.0,8.0,0.0
2269,59.0,0.0,60.0,6.0,0.0
2270,56.0,2.0,60.0,6.0,0.0
2271,62.0,1.0,60.0,5.0,0.0
2272,53.0,0.0,60.0,5.0,0.0
2273,59.0,8.0,60.0,6.0,0.0
2274,56.0,0.0,60.0,6.0,0.0
2275,41.0,6.0,90.0,7.0,0.0
2276,53.0,0.0,60.0,5.0,0.0
2277,62.0,40.0,60.0,5.0,0.0
2278,29.0,39.0,90.0,8.0,0.0
2279,56.0,2.0,60.0,6.0,0.0
2280,59.0,0.0,60.0,6.0,0.0
2281,53.0,1.0,60.0,5.0,0.0
2282,62.0,0.0,60.0,5.0,0.0
2283,59.0,0.0,60.0,6.0,0.0
2284,56.0,8.0,60.0,6.0,0.0
2285,41.0,6.0,90.0,7.0,0.0
2286,62.0,0.0,60.0,5.0,0.0
2287,53.0,40.0,60.0,5.0,0.0
2288,29.0,39.0,90.0,8.0,0.0
2289,56.0,2.0,60.0,6.0,0.0
2290,59.0,0.0,60.0,6.0,0.0
2291,53.0,0.0,60.0,5.0,0.0
2292,62.0,1.0,60.0,5.0,0.0
2293,59.0,0.0,60.0,6.0,0.0
2294,56.0,3.0,60.0,6.0,0.0
2295,41.0,6.0,90.0,7.0,0.0
2296,62.0,40.0,60.0,5.0,0.0
2297,53.0,0.0,60.0,5.0,0.0
2298,29.0,39.0,90.0,8.0,0.0
2299,56.0,2.0,60.0,6.0,0.0
2300,59.0,0.0,60.0,6.0,0.0
2301,53.0,0.0,60.0,5.0,0.0
2302,62.0,1.0,60.0,5.0,0.0
2303,54.0,0.0,60.0,6.0,0.0
2304,59.0,8.0,60.0,6.0,0.0
2305,75.0,2.0,150.0,0.0,0.0
2306,71.0,0.0,150.0,0.0,0.0
2307,42.0,6.0,90.0,7.0,0.0
2308,54.0,2.0,150.0,4.0,0.0
2309,59.0,0.0,150.0,1.0,0.0
2310,63.0,25.0,150.0,1.0,0.0
2311,63.0,40.0,60.0,5.0,0.0
2312,54.0,0.0,60.0,5.0,0.0
2313,30.0,39.0,90.0,8.0,0.0
2314,59.0,2.0,60.0,6.0,0.0
2315,54.0,0.0,60.0,6.0,0.0
2316,54.0,1.0,60.0,5.0,0.0
2317,63.0,0.0,60.0,5.0,0.0
2318,59.0,0.0,60.0,6.0,0.0
2319,54.0,8.0,60.0,6.0,0.0
2320,42.0,6.0,90.0,7.0,0.0
2321,54.0,11.0,60.0,5.0,0.0
2322,63.0,0.0,60.0,5.0,0.0
2323,30.0,39.0,90.0,8.0,0.0
2324,54.0,2.0,60.0,6.0,0.0
2325,59.0,0.0,60.0,6.0,0.0
2326,54.0,0.0,60.0,5.0,0.0
2327,63.0,1.0,60.0,5.0,0.0
2328,54.0,8.0,60.0,6.0,0.0
2329,59.0,0.0,60.0,6.0,0.0
2330,75.0,4.0,150.0,0.0,0.0
2331,71.0,0.0,150.0,0.0,0.0
2332,42.0,6.0,90.0,7.0,0.0
2333,78.0,27.0,270.0,4.0,0.0
2334,59.0,0.0,150.0,1.0,0.0
2335,63.0,3.0,150.0,1.0,0.0
2336,63.0,0.0,60.0,5.0,0.0
2337,54.0,40.0,60.0,5.0,0.0
2338,30.0,39.0,90.0,8.0,0.0
2339,59.0,2.0,60.0,6.0,0.0
2340,54.0,0.0,60.0,6.0,0.0
2341,54.0,1.0,60.0,5.0,0.0
2342,63.0,0.0,60.0,5.0,0.0
2343,54.0,1.0,60.0,6.0,0.0
2344,59.0,0.0,60.0,6.0,0.0
2345,42.0,3.0,90.0,7.0,0.0
2346,63.0,0.0,60.0,5.0,0.0
2347,54.0,40.0,60.0,5.0,0.0
2348,30.0,39.0,90.0,8.0,0.0
2349,54.0,1.0,60.0,6.0,0.0
2350,59.0,0.0,60.0,6.0,0.0
2351,75.0,0.0,60.0,0.0,0.0
2352,71.0,1.0,60.0,0.0,0.0
2353,59.0,0.0,60.0,1.0,0.0
2354,63.0,3.0,60.0,1.0,0.0
2355,63.0,0.0,60.0,5.0,0.0
2356,54.0,1.0,60.0,5.0,0.0
2357,59.0,0.0,60.0,6.0,0.0
2358,54.0,8.0,60.0,6.0,0.0
2359,75.0,4.0,150.0,0.0,0.0
2360,71.0,0.0,150.0,0.0,0.0
2361,42.0,6.0,90.0,7.0,0.0
2362,63.0,0.0,150.0,1.0,0.0
2363,59.0,0.0,150.0,1.0,0.0
2364,54.0,13.0,60.0,5.0,0.0
2365,63.0,0.0,60.0,5.0,0.0
2366,30.0,39.0,90.0,8.0,0.0
2367,54.0,0.0,60.0,6.0,0.0
2368,59.0,2.0,60.0,6.0,0.0
2369,54.0,1.0,60.0,5.0,0.0
2370,63.0,0.0,60.0,5.0,0.0
2371,59.0,0.0,60.0,6.0,0.0
2372,54.0,1.0,60.0,6.0,0.0
2373,42.0,1.0,90.0,7.0,0.0
2374,75.0,3.0,60.0,4.0,0.0
2375,54.0,0.0,60.0,5.0,0.0
2376,63.0,40.0,60.0,5.0,0.0
2377,30.0,39.0,90.0,8.0,0.0
2378,59.0,0.0,60.0,6.0,0.0
2379,54.0,1.0,60.0,6.0,0.0
2380,71.0,1.0,60.0,0.0,0.0
2381,75.0,0.0,60.0,0.0,0.0
2382,71.0,2.0,60.0,4.0,0.0
2383,63.0,0.0,60.0,1.0,0.0
2384,59.0,3.0,60.0,1.0,0.0
2385,63.0,0.0,60.0,5.0,0.0
2386,54.0,1.0,60.0,5.0,0.0
2387,59.0,0.0,60.0,6.0,0.0
2388,54.0,8.0,60.0,6.0,0.0
2389,71.0,0.0,150.0,0.0,0.0
2390,75.0,4.0,150.0,0.0,0.0
2391,42.0,1.0,90.0,7.0,0.0
2392,78.0,5.0,90.0,4.0,0.0
2393,63.0,0.0,150.0,1.0,0.0
2394,59.0,25.0,150.0,1.0,0.0
2395,54.0,0.0,60.0,5.0,0.0
2396,63.0,40.0,60.0,5.0,0.0
2397,30.0,39.0,90.0,8.0,0.0
2398,59.0,2.0,60.0,6.0,0.0
2399,54.0,0.0,60.0,6.0,0.0
2400,54.0,1.0,60.0,5.0,0.0
2401,63.0,0.0,60.0,5.0,0.0
2402,59.0,5.0,60.0,6.0,0.0
2403,54.0,0.0,60.0,6.0,0.0
2404,42.0,1.0,90.0,7.0,0.0
2405,75.0,3.0,60.0,4.0,0.0
2406,63.0,0.0,60.0,5.0,0.0
2407,54.0,11.0,60.0,5.0,0.0
2408,30.0,39.0,90.0,8.0,0.0
2409,59.0,0.0,60.0,6.0,0.0
2410,54.0,2.0,60.0,6.0,0.0
2411,71.0,5.0,60.0,4.0,0.0
2412,63.0,1.0,60.0,5.0,0.0
2413,54.0,0.0,60.0,5.0,0.0
2414,54.0,0.0,60.0,6.0,0.0
2415,59.0,8.0,60.0,6.0,0.0
2416,75.0,5.0,180.0,0.0,0.0
2417,71.0,0.0,180.0,0.0,0.0
2418,42.0,6.0,90.0,7.0,0.0
2419,66.0,2.0,150.0,4.0,0.0
2420,59.0,0.0,150.0,1.0,0.0
2421,63.0,25.0,150.0,1.0,0.0
2422,54.0,40.0,60.0,5.0,0.0
2423,63.0,0.0,60.0,5.0,0.0
2424,30.0,39.0,90.0,8.0,0.0
2425,59.0,0.0,60.0,6.0,0.0
2426,54.0,2.0,60.0,6.0,0.0
2427,54.0,1.0,60.0,5.0,0.0
2428,63.0,0.0,60.0,5.0,0.0
2429,59.0,8.0,60.0,6.0,0.0
2430,54.0,0.0,60.0,6.0,0.0
2431,42.0,1.0,90.0,7.0,0.0
2432,54.0,13.0,60.0,5.0,0.0
2433,63.0,0.0,60.0,5.0,0.0
2434,30.0,20.0,90.0,8.0,0.0
2435,54.0,0.0,60.0,6.0,0.0
2436,59.0,2.0,60.0,6.0,0.0
2437,63.0,1.0,60.0,5.0,0.0
2438,54.0,0.0,60.0,5.0,0.0
2439,54.0,0.0,60.0,6.0,0.0
2440,58.0,5.0,60.0,6.0,0.0
2441,70.0,0.0,150.0,0.0,0.0
2442,73.0,4.0,150.0,0.0,0.0
2443,42.0,3.0,90.0,7.0,0.0
2444,75.0,19.0,20.0,4.0,0.0
2445,54.0,0.0,150.0,1.0,0.0
2446,61.0,6.0,150.0,1.0,0.0
2447,52.0,0.0,60.0,5.0,0.0
2448,61.0,21.0,60.0,5.0,0.0
2449,30.0,20.0,90.0,8.0,0.0
2450,73.0,3.0,20.0,4.0,0.0
2451,54.0,2.0,60.0,6.0,0.0
2452,58.0,0.0,60.0,6.0,0.0
2453,75.0,19.0,20.0,4.0,0.0
2454,61.0,0.0,60.0,5.0,0.0
2455,52.0,1.0,60.0,5.0,0.0
2456,73.0,3.0,20.0,4.0,0.0
2457,58.0,5.0,60.0,6.0,0.0
2458,54.0,0.0,60.0,6.0,0.0
2459,42.0,3.0,90.0,7.0,0.0
2460,75.0,19.0,20.0,4.0,0.0
2461,52.0,11.0,60.0,5.0,0.0
2462,61.0,0.0,60.0,5.0,0.0
2463,30.0,87.0,90.0,8.0,0.0
2464,73.0,3.0,20.0,4.0,0.0
2465,54.0,2.0,60.0,6.0,0.0
2466,58.0,0.0,60.0,6.0,0.0
2467,71.0,19.0,20.0,4.0,0.0
2468,52.0,0.0,60.0,5.0,0.0
2469,61.0,1.0,60.0,5.0,0.0
2470,73.0,3.0,20.0,4.0,0.0
2471,59.0,0.0,90.0,6.0,0.0
2472,54.0,1.0,90.0,6.0,0.0
2473,71.0,4.0,90.0,0.0,0.0
2474,47.0,1.0,150.0,7.0,0.0
2475,71.0,6.0,150.0,4.0,0.0
2476,51.0,3.0,180.0,1.0,0.0
2477,59.0,3.0,90.0,1.0,0.0
2478,59.0,40.0,90.0,5.0,0.0
2479,51.0,0.0,90.0,5.0,0.0
2480,35.0,21.0,150.0,8.0,0.0
2481,51.0,8.0,60.0,6.0,0.0
2482,66.0,4.0,90.0,0.0,0.0
2483,54.0,0.0,90.0,1.0,0.0
2484,59.0,12.0,60.0,5.0,0.0
2485,51.0,1.0,60.0,6.0,0.0
2486,59.0,88.0,60.0,5.0,0.0
2487,51.0,1.0,90.0,6.0,0.0
2488,71.0,4.0,90.0,0.0,0.0
2489,35.0,7.0,150.0,7.0,0.0
2490,59.0,3.0,90.0,1.0,0.0
2491,59.0,40.0,90.0,5.0,0.0
2492,23.0,21.0,150.0,8.0,0.0
2493,59.0,5.0,60.0,6.0,0.0
2494,66.0,2.0,90.0,0.0,0.0
2495,66.0,3.0,60.0,4.0,0.0
2496,54.0,0.0,90.0,1.0,0.0
2497,42.0,3.0,90.0,1.0,0.0
2498,63.0,12.0,60.0,5.0,0.0
2499,59.0,1.0,60.0,6.0,0.0
2500,71.0,2.0,60.0,4.0,0.0
2501,63.0,88.0,60.0,5.0,0.0
2502,59.0,1.0,90.0,6.0,0.0
2503,71.0,2.0,90.0,0.0,0.0
2504,75.0,2.0,90.0,4.0,0.0
2505,59.0,0.0,90.0,1.0,0.0
2506,47.0,3.0,90.0,1.0,0.0
2507,63.0,40.0,90.0,5.0,0.0
2508,63.0,5.0,60.0,6.0,0.0
2509,75.0,2.0,90.0,0.0,0.0
2510,71.0,3.0,60.0,4.0,0.0
2511,51.0,3.0,90.0,1.0,0.0
2512,63.0,0.0,90.0,1.0,0.0
2513,66.0,40.0,60.0,5.0,0.0
2514,63.0,1.0,60.0,6.0,0.0
2515,75.0,2.0,60.0,4.0,0.0
2516,66.0,48.0,60.0,5.0,0.0
2517,63.0,1.0,150.0,6.0,0.0
2518,78.0,2.0,150.0,0.0,0.0
2519,78.0,2.0,150.0,4.0,0.0
2520,54.0,27.0,150.0,1.0,0.0
2521,66.0,0.0,150.0,1.0,0.0
2522,66.0,48.0,60.0,5.0,0.0
2523,71.0,48.0,60.0,5.0,0.0
2524,47.0,6.0,90.0,7.0,0.0
2525,70.0,10.0,60.0,5.0,0.0
2526,35.0,47.0,90.0,8.0,0.0
2527,68.0,1.0,60.0,5.0,0.0
2528,51.0,6.0,90.0,7.0,0.0
2529,66.0,42.0,60.0,5.0,0.0
2530,39.0,26.0,90.0,8.0,0.0
2531,66.0,1.0,60.0,5.0,0.0
2532,66.0,2.0,90.0,6.0,0.0
2533,71.0,2.0,30.0,0.0,0.0
2534,75.0,0.0,30.0,0.0,0.0
2535,47.0,6.0,90.0,7.0,0.0
2536,71.0,2.0,30.0,4.0,0.0
2537,59.0,0.0,30.0,1.0,0.0
2538,63.0,17.0,30.0,1.0,0.0
2539,63.0,40.0,60.0,5.0,0.0
2540,35.0,26.0,90.0,8.0,0.0
2541,66.0,1.0,60.0,5.0,0.0
2542,66.0,2.0,90.0,6.0,0.0
2543,73.0,2.0,30.0,0.0,0.0
2544,76.0,0.0,30.0,0.0,0.0
2545,54.0,6.0,90.0,7.0,0.0
2546,73.0,2.0,30.0,4.0,0.0
2547,64.0,17.0,30.0,1.0,0.0
2548,61.0,0.0,30.0,1.0,0.0
2549,64.0,40.0,60.0,5.0,0.0
2550,42.0,26.0,90.0,8.0,0.0
2551,66.0,1.0,60.0,5.0,0.0
2552,66.0,2.0,90.0,6.0,0.0
2553,70.0,0.0,30.0,0.0,0.0
2554,73.0,2.0,30.0,0.0,0.0
2555,42.0,6.0,90.0,7.0,0.0
2556,70.0,2.0,30.0,4.0,0.0
2557,61.0,0.0,30.0,1.0,0.0
2558,54.0,17.0,30.0,1.0,0.0
2559,61.0,40.0,60.0,5.0,0.0
2560,30.0,87.0,90.0,8.0,0.0
2561,66.0,1.0,60.0,5.0,0.0
2562,66.0,1.0,90.0,6.0,0.0
2563,71.0,4.0,90.0,0.0,0.0
2564,47.0,1.0,150.0,7.0,0.0
2565,71.0,6.0,150.0,4.0,0.0
2566,51.0,3.0,180.0,1.0,0.0
2567,59.0,3.0,90.0,1.0,0.0
2568,63.0,40.0,90.0,5.0,0.0
2569,35.0,21.0,150.0,8.0,0.0
2570,51.0,8.0,60.0,6.0,0.0
2571,66.0,4.0,90.0,0.0,0.0
2572,54.0,0.0,90.0,1.0,0.0
2573,59.0,12.0,60.0,5.0,0.0
2574,51.0,1.0,60.0,6.0,0.0
2575,59.0,88.0,60.0,5.0,0.0
2576,51.0,1.0,90.0,6.0,0.0
2577,71.0,4.0,90.0,0.0,0.0
2578,35.0,7.0,150.0,7.0,0.0
2579,59.0,3.0,90.0,1.0,0.0
2580,59.0,40.0,90.0,5.0,0.0
2581,23.0,21.0,150.0,8.0,0.0
2582,59.0,5.0,60.0,6.0,0.0
2583,66.0,2.0,90.0,0.0,0.0
2584,66.0,3.0,60.0,4.0,0.0
2585,54.0,3.0,90.0,1.0,0.0
2586,42.0,0.0,90.0,1.0,0.0
2587,63.0,12.0,60.0,5.0,0.0
2588,59.0,1.0,60.0,6.0,0.0
2589,71.0,2.0,60.0,4.0,0.0
2590,63.0,88.0,60.0,5.0,0.0
2591,59.0,1.0,90.0,6.0,0.0
2592,71.0,2.0,90.0,0.0,0.0
2593,75.0,2.0,90.0,4.0,0.0
2594,59.0,0.0,90.0,1.0,0.0
2595,47.0,3.0,90.0,1.0,0.0
2596,63.0,40.0,90.0,5.0,0.0
2597,63.0,5.0,60.0,6.0,0.0
2598,75.0,2.0,90.0,0.0,0.0
2599,71.0,3.0,60.0,4.0,0.0
2600,51.0,3.0,90.0,1.0,0.0
2601,63.0,0.0,90.0,1.0,0.0
2602,66.0,40.0,60.0,5.0,0.0
2603,63.0,1.0,60.0,6.0,0.0
2604,75.0,2.0,60.0,4.0,0.0
2605,66.0,29.0,60.0,5.0,0.0
2606,63.0,1.0,150.0,6.0,0.0
2607,78.0,4.0,150.0,0.0,0.0
2608,78.0,19.0,30.0,4.0,0.0
2609,54.0,27.0,150.0,1.0,0.0
2610,66.0,0.0,150.0,1.0,0.0
2611,66.0,48.0,60.0,5.0,0.0
2612,71.0,29.0,60.0,5.0,0.0
2613,47.0,6.0,90.0,7.0,0.0
2614,78.0,19.0,30.0,4.0,0.0
2615,70.0,10.0,60.0,5.0,0.0
2616,35.0,47.0,90.0,8.0,0.0
2617,68.0,1.0,60.0,5.0,0.0
2618,51.0,6.0,90.0,7.0,0.0
2619,66.0,42.0,60.0,5.0,0.0
2620,39.0,20.0,90.0,8.0,0.0
2621,66.0,1.0,60.0,5.0,0.0
2622,66.0,2.0,90.0,6.0,0.0
2623,75.0,4.0,30.0,0.0,0.0
2624,71.0,0.0,30.0,0.0,0.0
2625,47.0,3.0,90.0,7.0,0.0
2626,76.0,6.0,20.0,4.0,0.0
2627,59.0,14.0,30.0,1.0,0.0
2628,63.0,0.0,30.0,1.0,0.0
2629,59.0,21.0,60.0,5.0,0.0
2630,35.0,26.0,90.0,8.0,0.0
2631,75.0,3.0,20.0,4.0,0.0
2632,73.0,19.0,20.0,4.0,0.0
2633,66.0,1.0,60.0,5.0,0.0
2634,75.0,3.0,20.0,4.0,0.0
2635,66.0,2.0,90.0,6.0,0.0
2636,73.0,0.0,30.0,0.0,0.0
2637,76.0,4.0,30.0,0.0,0.0
2638,54.0,1.0,90.0,7.0,0.0
2639,76.0,5.0,90.0,4.0,0.0
2640,61.0,17.0,30.0,1.0,0.0
2641,64.0,0.0,30.0,1.0,0.0
2642,61.0,40.0,60.0,5.0,0.0
2643,42.0,26.0,90.0,8.0,0.0
2644,66.0,1.0,60.0,5.0,0.0
2645,66.0,2.0,90.0,6.0,0.0
2646,70.0,2.0,30.0,0.0,0.0
2647,73.0,0.0,30.0,0.0,0.0
2648,42.0,6.0,90.0,7.0,0.0
2649,73.0,2.0,30.0,4.0,0.0
2650,61.0,0.0,30.0,1.0,0.0
2651,54.0,17.0,30.0,1.0,0.0
2652,58.0,40.0,60.0,5.0,0.0
2653,30.0,153.0,90.0,8.0,0.0
2654,66.0,1.0,60.0,5.0,0.0
2655,63.0,1.0,150.0,6.0,0.0
2656,71.0,1.0,150.0,0.0,0.0
2657,47.0,1.0,150.0,7.0,0.0
2658,71.0,2.0,150.0,4.0,0.0
2659,59.0,0.0,150.0,1.0,0.0
2660,51.0,3.0,150.0,1.0,0.0
2661,59.0,1.0,150.0,5.0,0.0
2662,35.0,183.0,150.0,8.0,0.0
2663,47.0,1.0,150.0,6.0,0.0
2664,71.0,1.0,150.0,0.0,0.0
2665,35.0,1.0,150.0,7.0,0.0
2666,59.0,0.0,150.0,4.0,0.0
2667,51.0,2.0,150.0,4.0,0.0
2668,47.0,3.0,150.0,1.0,0.0
2669,59.0,0.0,150.0,5.0,0.0
2670,51.0,1.0,150.0,5.0,0.0
2671,23.0,374.0,150.0,8.0,0.0
2672,66.0,0.0,150.0,2.0,0.0
2673,71.0,0.0,150.0,2.0,0.0
2674,63.0,0.0,150.0,2.0,0.0
2675,59.0,8.0,150.0,2.0,0.0
2676,35.0,120.0,150.0,3.0,0.0
2677,39.0,0.0,150.0,3.0,0.0
2678,42.0,0.0,150.0,3.0,0.0
2679,47.0,40.0,540.0,3.0,0.0
2680,71.0,48.0,60.0,2.0,0.0
2681,70.0,48.0,60.0,2.0,0.0
2682,71.0,48.0,60.0,2.0,0.0
2683,73.0,48.0,60.0,2.0,0.0
2684,71.0,48.0,60.0,2.0,0.0
2685,75.0,8.0,60.0,2.0,0.0
2686,71.0,160.0,60.0,2.0,0.0
2687,68.0,8.0,150.0,2.0,0.0
2688,32.0,120.0,150.0,3.0,0.0
2689,35.0,0.0,150.0,3.0,0.0
2690,39.0,0.0,150.0,3.0,0.0
2691,44.0,40.0,540.0,3.0,0.0
2692,68.0,48.0,60.0,2.0,0.0
2693,67.0,48.0,60.0,2.0,0.0
2694,68.0,48.0,60.0,2.0,0.0
2695,70.0,48.0,60.0,2.0,0.0
2696,68.0,48.0,60.0,2.0,0.0
2697,71.0,8.0,60.0,2.0,0.0
2698,68.0,160.0,60.0,2.0,0.0
2699,63.0,8.0,150.0,2.0,0.0
2700,51.0,56.0,150.0,3.0,0.0
2701,39.0,0.0,150.0,3.0,0.0
2702,66.0,32.0,30.0,2.0,0.0
2703,41.0,40.0,330.0,3.0,0.0
2704,53.0,0.0,330.0,3.0,0.0
2705,65.0,32.0,30.0,2.0,0.0
2706,66.0,32.0,30.0,2.0,0.0
2707,65.0,32.0,30.0,2.0,0.0
2708,66.0,32.0,30.0,2.0,0.0
2709,65.0,32.0,30.0,2.0,0.0
2710,66.0,32.0,30.0,2.0,0.0
2711,65.0,32.0,30.0,2.0,0.0
2712,66.0,48.0,30.0,2.0,0.0
2713,63.0,8.0,60.0,2.0,0.0
2714,65.0,168.0,60.0,2.0,0.0
2715,66.0,96.0,300.0,2.0,0.0
2716,42.0,0.0,150.0,3.0,0.0
2717,54.0,120.0,150.0,3.0,0.0
2718,67.0,96.0,90.0,2.0,0.0
2719,68.0,96.0,90.0,2.0,0.0
2720,64.0,160.0,90.0,2.0,0.0
2721,61.0,8.0,150.0,2.0,0.0
2722,52.0,56.0,150.0,3.0,0.0
2723,54.0,0.0,150.0,3.0,0.0
2724,58.0,0.0,150.0,3.0,0.0
2725,64.0,32.0,30.0,2.0,0.0
2726,51.0,40.0,330.0,3.0,0.0
2727,60.0,0.0,330.0,3.0,0.0
2728,54.0,0.0,330.0,3.0,0.0
2729,63.0,32.0,30.0,2.0,0.0
2730,64.0,32.0,30.0,2.0,0.0
2731,63.0,32.0,30.0,2.0,0.0
2732,64.0,32.0,30.0,2.0,0.0
2733,63.0,32.0,30.0,2.0,0.0
2734,64.0,32.0,30.0,2.0,0.0
2735,63.0,32.0,30.0,2.0,0.0
2736,64.0,48.0,30.0,2.0,0.0
2737,61.0,8.0,60.0,2.0,0.0
2738,63.0,168.0,60.0,2.0,0.0
2739,64.0,24.0,300.0,2.0,0.0
2740,49.0,0.0,150.0,3.0,0.0
2741,56.0,120.0,150.0,3.0,0.0
2742,61.0,0.0,150.0,3.0,0.0
2743,68.0,24.0,20.0,2.0,0.0
2744,66.0,24.0,20.0,2.0,0.0
2745,64.0,24.0,20.0,2.0,0.0
2746,66.0,160.0,20.0,2.0,0.0
2747,68.0,192.0,150.0,2.0,0.0
2748,54.0,8.0,150.0,2.0,0.0
2749,46.0,184.0,150.0,3.0,0.0
2750,42.0,8.0,540.0,3.0,0.0
2751,56.0,8.0,150.0,2.0,0.0
2752,47.0,176.0,150.0,3.0,0.0
2753,52.0,8.0,150.0,2.0,0.0
2754,58.0,0.0,150.0,2.0,0.0
2755,49.0,120.0,150.0,3.0,0.0
2756,59.0,72.0,90.0,2.0,0.0
2757,47.0,0.0,150.0,3.0,0.0
2758,51.0,24.0,150.0,3.0,0.0
2759,63.0,96.0,90.0,2.0,0.0
2760,66.0,96.0,90.0,2.0,0.0
2761,71.0,96.0,90.0,2.0,0.0
2762,75.0,94.0,90.0,2.0,0.0
2763,71.0,34.0,90.0,2.0,0.0
2764,78.0,96.0,30.0,2.0,0.0
2765,58.0,0.0,150.0,3.0,0.0
2766,61.0,56.0,150.0,3.0,0.0
2767,78.0,40.0,30.0,2.0,0.0
2768,78.0,96.0,30.0,2.0,0.0
2769,59.0,56.0,150.0,3.0,0.0
2770,62.0,0.0,150.0,3.0,0.0
2771,78.0,40.0,30.0,2.0,0.0
2772,78.0,96.0,30.0,2.0,0.0
2773,60.0,0.0,150.0,3.0,0.0
2774,63.0,120.0,150.0,3.0,0.0
2775,78.0,40.0,30.0,2.0,0.0
2776,78.0,96.0,90.0,2.0,0.0
2777,61.0,0.0,300.0,3.0,0.0
2778,64.0,88.0,300.0,3.0,0.0
2779,79.0,96.0,90.0,2.0,0.0
2780,80.0,8.0,90.0,2.0,0.0
2781,72.0,8.0,90.0,2.0,0.0
2782,63.0,0.0,90.0,3.0,0.0
2783,66.0,88.0,90.0,3.0,0.0
2784,73.0,72.0,90.0,2.0,0.0
2785,64.0,0.0,150.0,3.0,0.0
2786,68.0,24.0,150.0,3.0,0.0
2787,75.0,96.0,90.0,2.0,0.0
2788,76.0,96.0,90.0,2.0,0.0
2789,61.0,0.0,180.0,3.0,0.0
2790,54.0,16.0,540.0,3.0,0.0
2791,58.0,88.0,180.0,3.0,0.0
2792,73.0,8.0,90.0,2.0,0.0
2793,71.0,96.0,90.0,2.0,0.0
2794,59.0,0.0,180.0,3.0,0.0
2795,63.0,88.0,180.0,3.0,0.0
2796,70.0,8.0,90.0,2.0,0.0
2797,68.0,56.0,90.0,2.0,0.0
2798,61.0,22.0,150.0,3.0,0.0
2799,64.0,0.0,150.0,3.0,0.0
2800,66.0,26.0,90.0,2.0,0.0
2801,68.0,24.0,20.0,2.0,0.0
2802,63.0,24.0,150.0,3.0,0.0
2803,59.0,0.0,150.0,3.0,0.0
2804,66.0,24.0,20.0,2.0,0.0
2805,64.0,24.0,20.0,2.0,0.0
2806,66.0,72.0,20.0,2.0,0.0
2807,71.0,94.0,90.0,2.0,0.0
2808,66.0,34.0,90.0,2.0,0.0
2809,66.0,160.0,30.0,2.0,0.0
2810,66.0,94.0,90.0,2.0,0.0
2811,65.0,51.0,90.0,2.0,0.0
2812,64.0,96.0,90.0,2.0,0.0
2813,46.0,3.0,60.0,6.0,0.0
2814,54.0,44.0,60.0,4.0,0.0
2815,61.0,49.0,90.0,2.0,0.0
2816,59.0,96.0,90.0,2.0,0.0
2817,47.0,3.0,60.0,6.0,0.0
2818,56.0,44.0,60.0,4.0,0.0
2819,58.0,49.0,90.0,2.0,0.0
2820,56.0,94.0,90.0,2.0,0.0
2821,49.0,2.0,60.0,6.0,0.0
2822,42.0,1.0,60.0,7.0,0.0
2823,58.0,5.0,60.0,4.0,0.0
2824,52.0,1.0,60.0,5.0,0.0
2825,30.0,38.0,60.0,8.0,0.0
2826,54.0,26.0,90.0,2.0,0.0
2827,56.0,24.0,20.0,2.0,0.0
2828,47.0,2.0,60.0,6.0,0.0
2829,47.0,1.0,60.0,7.0,0.0
2830,59.0,5.0,60.0,4.0,0.0
2831,51.0,1.0,60.0,5.0,0.0
2832,35.0,14.0,60.0,8.0,0.0
2833,54.0,1.0,20.0,2.0,0.0
2834,53.0,24.0,20.0,2.0,0.0
2835,54.0,96.0,20.0,2.0,0.0
2836,59.0,94.0,90.0,2.0,0.0
2837,54.0,34.0,90.0,2.0,0.0
2838,54.0,160.0,30.0,2.0,0.0
2839,54.0,94.0,90.0,2.0,0.0
2840,53.0,54.0,90.0,2.0,0.0
2841,66.0,5.0,60.0,4.0,0.0
2842,52.0,96.0,90.0,3.0,0.0
2843,58.0,47.0,60.0,5.0,0.0
2844,49.0,44.0,90.0,3.0,0.0
2845,68.0,5.0,60.0,4.0,0.0
2846,47.0,96.0,90.0,3.0,0.0
2847,59.0,47.0,60.0,5.0,0.0
2848,46.0,41.0,90.0,3.0,0.0
2849,64.0,2.0,60.0,6.0,0.0
2850,42.0,1.0,60.0,7.0,0.0
2851,70.0,5.0,60.0,4.0,0.0
2852,44.0,94.0,90.0,3.0,0.0
2853,61.0,1.0,60.0,5.0,0.0
2854,30.0,46.0,60.0,8.0,0.0
2855,42.0,43.0,90.0,3.0,0.0
2856,47.0,40.0,150.0,2.0,0.0
2857,63.0,2.0,60.0,6.0,0.0
2858,35.0,1.0,60.0,7.0,0.0
2859,71.0,5.0,60.0,4.0,0.0
2860,59.0,1.0,60.0,5.0,0.0
2861,23.0,46.0,60.0,8.0,0.0
2862,35.0,48.0,60.0,3.0,0.0
2863,37.0,8.0,60.0,3.0,0.0
2864,39.0,48.0,60.0,3.0,0.0
2865,40.0,48.0,60.0,3.0,0.0
2866,42.0,48.0,60.0,3.0,0.0
2867,44.0,48.0,60.0,3.0,0.0
2868,46.0,48.0,60.0,3.0,0.0
2869,47.0,48.0,60.0,3.0,0.0
2870,46.0,48.0,60.0,3.0,0.0
2871,47.0,48.0,60.0,3.0,0.0
2872,46.0,88.0,60.0,3.0,0.0
2873,57.0,3.0,180.0,6.0,0.0
2874,66.0,5.0,180.0,4.0,0.0
2875,47.0,24.0,150.0,3.0,0.0
2876,63.0,39.0,180.0,5.0,0.0
2877,59.0,48.0,60.0,2.0,0.0
2878,61.0,24.0,60.0,2.0,0.0
2879,63.0,1.0,60.0,2.0,0.0
2880,64.0,48.0,60.0,2.0,0.0
2881,56.0,3.0,180.0,6.0,0.0
2882,68.0,5.0,180.0,4.0,0.0
2883,64.0,39.0,180.0,5.0,0.0
2884,66.0,48.0,60.0,2.0,0.0
2885,68.0,48.0,60.0,2.0,0.0
2886,70.0,1.0,60.0,2.0,0.0
2887,71.0,48.0,60.0,2.0,0.0
2888,51.0,3.0,150.0,6.0,0.0
2889,69.0,5.0,150.0,4.0,0.0
2890,66.0,23.0,150.0,5.0,0.0
2891,70.0,48.0,60.0,2.0,0.0
2892,71.0,17.0,60.0,2.0,0.0
2893,70.0,104.0,60.0,2.0,0.0
2894,71.0,1.0,150.0,2.0,0.0
2895,52.0,2.0,150.0,6.0,0.0
2896,47.0,1.0,150.0,7.0,0.0
2897,68.0,5.0,150.0,4.0,0.0
2898,64.0,1.0,150.0,5.0,0.0
2899,35.0,30.0,150.0,8.0,0.0
2900,47.0,48.0,60.0,3.0,0.0
2901,49.0,8.0,60.0,3.0,0.0
2902,51.0,48.0,60.0,3.0,0.0
2903,52.0,48.0,60.0,3.0,0.0
2904,54.0,48.0,60.0,3.0,0.0
2905,56.0,48.0,60.0,3.0,0.0
2906,58.0,48.0,60.0,3.0,0.0
2907,59.0,48.0,60.0,3.0,0.0
2908,58.0,48.0,60.0,3.0,0.0
2909,59.0,48.0,60.0,3.0,0.0
2910,58.0,88.0,60.0,3.0,0.0
2911,52.0,47.0,300.0,6.0,0.0
2912,71.0,5.0,180.0,4.0,0.0
2913,59.0,24.0,150.0,3.0,0.0
2914,68.0,39.0,180.0,5.0,0.0
2915,71.0,48.0,60.0,2.0,0.0
2916,73.0,24.0,60.0,2.0,0.0
2917,75.0,4.0,60.0,2.0,0.0
2918,76.0,48.0,60.0,2.0,0.0
2919,70.0,5.0,180.0,4.0,0.0
2920,66.0,39.0,180.0,5.0,0.0
2921,78.0,1.0,60.0,2.0,0.0
2922,80.0,48.0,60.0,2.0,0.0
2923,54.0,3.0,90.0,6.0,0.0
2924,82.0,1.0,60.0,2.0,0.0
2925,83.0,48.0,60.0,2.0,0.0
2926,56.0,47.0,90.0,6.0,0.0
2927,68.0,5.0,150.0,4.0,0.0
2928,64.0,22.0,150.0,5.0,0.0
2929,82.0,1.0,60.0,2.0,0.0
2930,83.0,20.0,60.0,2.0,0.0
2931,58.0,1.0,90.0,6.0,0.0
2932,82.0,104.0,60.0,2.0,0.0
2933,83.0,1.0,150.0,2.0,0.0
2934,59.0,2.0,150.0,6.0,0.0
2935,47.0,1.0,150.0,7.0,0.0
2936,66.0,5.0,150.0,4.0,0.0
2937,63.0,1.0,150.0,5.0,0.0
2938,35.0,30.0,150.0,8.0,0.0
2939,35.0,48.0,60.0,3.0,0.0
2940,37.0,8.0,60.0,3.0,0.0
2941,39.0,48.0,60.0,3.0,0.0
2942,40.0,48.0,60.0,3.0,0.0
2943,42.0,48.0,60.0,3.0,0.0
2944,44.0,48.0,60.0,3.0,0.0
2945,46.0,48.0,60.0,3.0,0.0
2946,47.0,48.0,60.0,3.0,0.0
2947,46.0,48.0,60.0,3.0,0.0
2948,47.0,48.0,60.0,3.0,0.0
2949,46.0,88.0,60.0,3.0,0.0
2950,54.0,2.0,750.0,6.0,0.0
2951,66.0,5.0,180.0,4.0,0.0
2952,47.0,24.0,150.0,3.0,0.0
2953,63.0,39.0,180.0,5.0,0.0
2954,66.0,48.0,60.0,2.0,0.0
2955,68.0,24.0,60.0,2.0,0.0
2956,70.0,4.0,60.0,2.0,0.0
2957,71.0,48.0,60.0,2.0,0.0
2958,64.0,5.0,180.0,4.0,0.0
2959,61.0,39.0,180.0,5.0,0.0
2960,73.0,48.0,60.0,2.0,0.0
2961,75.0,48.0,60.0,2.0,0.0
2962,76.0,4.0,60.0,2.0,0.0
2963,78.0,48.0,60.0,2.0,0.0
2964,63.0,5.0,150.0,4.0,0.0
2965,60.0,23.0,150.0,5.0,0.0
2966,77.0,48.0,60.0,2.0,0.0
2967,78.0,20.0,60.0,2.0,0.0
2968,77.0,104.0,60.0,2.0,0.0
2969,78.0,1.0,150.0,2.0,0.0
2970,42.0,1.0,150.0,7.0,0.0
2971,64.0,5.0,150.0,4.0,0.0
2972,61.0,1.0,150.0,5.0,0.0
2973,30.0,30.0,150.0,8.0,0.0
2974,30.0,48.0,60.0,3.0,0.0
2975,32.0,8.0,60.0,3.0,0.0
2976,34.0,48.0,60.0,3.0,0.0
2977,35.0,48.0,60.0,3.0,0.0
2978,37.0,48.0,60.0,3.0,0.0
2979,39.0,48.0,60.0,3.0,0.0
2980,41.0,48.0,60.0,3.0,0.0
2981,42.0,48.0,60.0,3.0,0.0
2982,41.0,48.0,60.0,3.0,0.0
2983,42.0,48.0,60.0,3.0,0.0
2984,41.0,88.0,60.0,3.0,0.0
2985,54.0,3.0,390.0,6.0,0.0
2986,64.0,5.0,180.0,4.0,0.0
2987,42.0,24.0,150.0,3.0,0.0
2988,61.0,39.0,180.0,5.0,0.0
2989,54.0,48.0,60.0,2.0,0.0
2990,56.0,24.0,60.0,2.0,0.0
2991,58.0,4.0,60.0,2.0,0.0
2992,59.0,48.0,60.0,2.0,0.0
2993,63.0,5.0,180.0,4.0,0.0
2994,59.0,39.0,180.0,5.0,0.0
2995,61.0,48.0,60.0,2.0,0.0
2996,63.0,48.0,60.0,2.0,0.0
2997,65.0,1.0,60.0,2.0,0.0
2998,66.0,48.0,60.0,2.0,0.0
2999,52.0,3.0,150.0,6.0,0.0
3000,61.0,5.0,150.0,4.0,0.0
3001,58.0,23.0,150.0,5.0,0.0
3002,65.0,48.0,60.0,2.0,0.0
3003,64.0,17.0,60.0,2.0,0.0
3004,61.0,49.0,60.0,2.0,0.0
3005,59.0,9.0,150.0,2.0,0.0
3006,51.0,48.0,60.0,6.0,0.0
3007,59.0,45.0,90.0,4.0,0.0
3008,59.0,24.0,150.0,5.0,0.0
3009,47.0,3.0,60.0,6.0,0.0
3010,49.0,3.0,60.0,6.0,0.0
3011,61.0,12.0,60.0,4.0,0.0
3012,51.0,3.0,60.0,6.0,0.0
3013,63.0,45.0,60.0,4.0,0.0
3014,52.0,3.0,60.0,6.0,0.0
3015,64.0,45.0,60.0,4.0,0.0
3016,54.0,3.0,60.0,6.0,0.0
3017,66.0,45.0,60.0,4.0,0.0
3018,56.0,3.0,60.0,6.0,0.0
3019,68.0,45.0,60.0,4.0,0.0
3020,58.0,3.0,60.0,6.0,0.0
3021,70.0,45.0,60.0,4.0,0.0
3022,59.0,3.0,60.0,6.0,0.0
3023,71.0,45.0,60.0,4.0,0.0
3024,58.0,3.0,60.0,6.0,0.0
3025,70.0,45.0,60.0,4.0,0.0
3026,59.0,3.0,60.0,6.0,0.0
3027,71.0,45.0,60.0,4.0,0.0
3028,58.0,3.0,60.0,6.0,0.0
3029,70.0,44.0,60.0,4.0,0.0
3030,66.0,48.0,60.0,2.0,0.0
3031,59.0,3.0,150.0,6.0,0.0
3032,71.0,28.0,150.0,4.0,0.0
3033,47.0,0.0,750.0,3.0,0.0
3034,57.0,0.0,180.0,3.0,0.0
3035,54.0,40.0,180.0,3.0,0.0
3036,63.0,48.0,60.0,2.0,0.0
3037,59.0,17.0,60.0,2.0,0.0
3038,66.0,8.0,60.0,2.0,0.0
3039,68.0,48.0,60.0,2.0,0.0
3040,56.0,40.0,180.0,3.0,0.0
3041,52.0,0.0,180.0,3.0,0.0
3042,64.0,48.0,60.0,2.0,0.0
3043,59.0,48.0,60.0,2.0,0.0
3044,68.0,8.0,60.0,2.0,0.0
3045,69.0,48.0,60.0,2.0,0.0
3046,51.0,24.0,150.0,3.0,0.0
3047,54.0,0.0,150.0,3.0,0.0
3048,66.0,48.0,60.0,2.0,0.0
3049,59.0,24.0,60.0,2.0,0.0
3050,69.0,97.0,60.0,2.0,0.0
3051,68.0,8.0,150.0,2.0,0.0
3052,56.0,0.0,150.0,3.0,0.0
3053,52.0,25.0,150.0,3.0,0.0
3054,47.0,3.0,60.0,6.0,0.0
3055,59.0,45.0,60.0,4.0,0.0
3056,49.0,3.0,60.0,6.0,0.0
3057,61.0,12.0,60.0,4.0,0.0
3058,51.0,3.0,60.0,6.0,0.0
3059,63.0,45.0,60.0,4.0,0.0
3060,52.0,3.0,60.0,6.0,0.0
3061,64.0,45.0,60.0,4.0,0.0
3062,54.0,3.0,60.0,6.0,0.0
3063,66.0,45.0,60.0,4.0,0.0
3064,56.0,3.0,60.0,6.0,0.0
3065,68.0,45.0,60.0,4.0,0.0
3066,58.0,3.0,60.0,6.0,0.0
3067,70.0,45.0,60.0,4.0,0.0
3068,59.0,3.0,60.0,6.0,0.0
3069,71.0,45.0,60.0,4.0,0.0
3070,58.0,3.0,60.0,6.0,0.0
3071,70.0,45.0,60.0,4.0,0.0
3072,59.0,3.0,60.0,6.0,0.0
3073,71.0,45.0,60.0,4.0,0.0
3074,58.0,3.0,60.0,6.0,0.0
3075,70.0,44.0,60.0,4.0,0.0
3076,71.0,48.0,60.0,2.0,0.0
3077,59.0,3.0,150.0,6.0,0.0
3078,71.0,28.0,150.0,4.0,0.0
3079,56.0,40.0,180.0,3.0,0.0
3080,52.0,0.0,180.0,3.0,0.0
3081,47.0,25.0,750.0,3.0,0.0
3082,68.0,48.0,60.0,2.0,0.0
3083,59.0,17.0,60.0,2.0,0.0
3084,71.0,8.0,60.0,2.0,0.0
3085,70.0,48.0,60.0,2.0,0.0
3086,54.0,40.0,180.0,3.0,0.0
3087,58.0,0.0,180.0,3.0,0.0
3088,66.0,48.0,60.0,2.0,0.0
3089,59.0,48.0,60.0,2.0,0.0
3090,70.0,8.0,60.0,2.0,0.0
3091,68.0,48.0,60.0,2.0,0.0
3092,56.0,24.0,150.0,3.0,0.0
3093,59.0,0.0,150.0,3.0,0.0
3094,64.0,48.0,60.0,2.0,0.0
3095,59.0,24.0,60.0,2.0,0.0
3096,68.0,97.0,60.0,2.0,0.0
3097,66.0,8.0,150.0,2.0,0.0
3098,54.0,0.0,150.0,3.0,0.0
3099,51.0,0.0,150.0,3.0,0.0
3100,47.0,3.0,60.0,6.0,0.0
3101,59.0,45.0,60.0,4.0,0.0
3102,49.0,3.0,60.0,6.0,0.0
3103,61.0,12.0,60.0,4.0,0.0
3104,51.0,3.0,60.0,6.0,0.0
3105,63.0,45.0,60.0,4.0,0.0
3106,52.0,3.0,60.0,6.0,0.0
3107,64.0,45.0,60.0,4.0,0.0
3108,54.0,3.0,60.0,6.0,0.0
3109,66.0,45.0,60.0,4.0,0.0
3110,56.0,3.0,60.0,6.0,0.0
3111,68.0,45.0,60.0,4.0,0.0
3112,58.0,3.0,60.0,6.0,0.0
3113,70.0,45.0,60.0,4.0,0.0
3114,59.0,3.0,60.0,6.0,0.0
3115,71.0,45.0,60.0,4.0,0.0
3116,58.0,3.0,60.0,6.0,0.0
3117,70.0,45.0,60.0,4.0,0.0
3118,59.0,3.0,60.0,6.0,0.0
3119,71.0,45.0,60.0,4.0,0.0
3120,58.0,3.0,60.0,6.0,0.0
3121,70.0,44.0,60.0,4.0,0.0
3122,66.0,48.0,60.0,2.0,0.0
3123,59.0,3.0,150.0,6.0,0.0
3124,71.0,4.0,150.0,4.0,0.0
3125,35.0,24.0,150.0,3.0,0.0
3126,47.0,0.0,150.0,3.0,0.0
3127,63.0,48.0,60.0,2.0,0.0
3128,54.0,17.0,60.0,2.0,0.0
3129,66.0,48.0,60.0,2.0,0.0
3130,64.0,48.0,60.0,2.0,0.0
3131,37.0,24.0,150.0,3.0,0.0
3132,49.0,0.0,150.0,3.0,0.0
3133,58.0,48.0,60.0,2.0,0.0
3134,54.0,24.0,60.0,2.0,0.0
3135,64.0,48.0,60.0,2.0,0.0
3136,63.0,48.0,60.0,2.0,0.0
3137,39.0,24.0,150.0,3.0,0.0
3138,51.0,0.0,150.0,3.0,0.0
3139,59.0,48.0,60.0,2.0,0.0
3140,54.0,24.0,60.0,2.0,0.0
3141,63.0,48.0,60.0,2.0,0.0
3142,61.0,48.0,60.0,2.0,0.0
3143,40.0,0.0,270.0,3.0,0.0
3144,52.0,24.0,270.0,3.0,0.0
3145,63.0,48.0,60.0,2.0,0.0
3146,61.0,48.0,60.0,2.0,0.0
3147,60.0,48.0,60.0,2.0,0.0
3148,61.0,24.0,60.0,2.0,0.0
3149,56.0,48.0,60.0,2.0,0.0
3150,58.0,48.0,60.0,2.0,0.0
3151,54.0,42.0,90.0,3.0,0.0
3152,60.0,6.0,60.0,2.0,0.0
3153,61.0,48.0,60.0,2.0,0.0
3154,52.0,42.0,90.0,3.0,0.0
3155,63.0,6.0,60.0,2.0,0.0
3156,64.0,48.0,60.0,2.0,0.0
3157,51.0,42.0,90.0,3.0,0.0
3158,66.0,6.0,60.0,2.0,0.0
3159,68.0,48.0,60.0,2.0,0.0
3160,52.0,24.0,150.0,3.0,0.0
3161,69.0,48.0,60.0,2.0,0.0
3162,68.0,24.0,60.0,2.0,0.0
3163,66.0,48.0,60.0,2.0,0.0
3164,64.0,47.0,60.0,2.0,0.0
3165,56.0,1.0,90.0,6.0,0.0
3166,49.0,1.0,90.0,7.0,0.0
3167,76.0,4.0,90.0,4.0,0.0
3168,49.0,0.0,90.0,3.0,0.0
3169,37.0,1.0,90.0,3.0,0.0
3170,68.0,1.0,90.0,5.0,0.0
3171,37.0,40.0,90.0,8.0,0.0
3172,66.0,1.0,60.0,2.0,0.0
3173,63.0,47.0,60.0,2.0,0.0
3174,60.0,1.0,90.0,6.0,0.0
3175,51.0,1.0,90.0,7.0,0.0
3176,75.0,4.0,90.0,4.0,0.0
3177,51.0,0.0,90.0,3.0,0.0
3178,39.0,1.0,90.0,3.0,0.0
3179,66.0,1.0,90.0,5.0,0.0
3180,39.0,40.0,90.0,8.0,0.0
3181,64.0,1.0,60.0,2.0,0.0
3182,61.0,47.0,60.0,2.0,0.0
3183,61.0,1.0,90.0,6.0,0.0
3184,52.0,1.0,90.0,7.0,0.0
3185,73.0,4.0,90.0,4.0,0.0
3186,40.0,1.0,90.0,3.0,0.0
3187,52.0,0.0,90.0,3.0,0.0
3188,64.0,1.0,90.0,5.0,0.0
3189,40.0,40.0,90.0,8.0,0.0
3190,63.0,1.0,60.0,2.0,0.0
3191,59.0,47.0,60.0,2.0,0.0
3192,63.0,1.0,90.0,6.0,0.0
3193,53.0,1.0,90.0,7.0,0.0
3194,71.0,4.0,90.0,4.0,0.0
3195,41.0,0.0,90.0,3.0,0.0
3196,53.0,1.0,90.0,3.0,0.0
3197,68.0,1.0,90.0,5.0,0.0
3198,41.0,153.0,90.0,8.0,0.0
3199,61.0,1.0,60.0,2.0,0.0
3200,66.0,161.0,180.0,2.0,0.0
3201,61.0,2.0,150.0,6.0,0.0
3202,54.0,1.0,150.0,7.0,0.0
3203,78.0,4.0,150.0,4.0,0.0
3204,42.0,0.0,150.0,3.0,0.0
3205,54.0,1.0,150.0,3.0,0.0
3206,70.0,1.0,150.0,5.0,0.0
3207,42.0,22.0,150.0,8.0,0.0
3208,54.0,296.0,180.0,2.0,0.0
3209,61.0,2.0,150.0,6.0,0.0
3210,42.0,1.0,150.0,7.0,0.0
3211,66.0,4.0,150.0,4.0,0.0
3212,49.0,1.0,150.0,3.0,0.0
3213,46.0,0.0,150.0,3.0,0.0
3214,30.0,0.0,150.0,3.0,0.0
3215,42.0,0.0,150.0,3.0,0.0
3216,58.0,1.0,150.0,5.0,0.0
3217,30.0,22.0,150.0,8.0,0.0
3218,73.0,8.0,390.0,2.0,0.0
3219,54.0,96.0,90.0,3.0,0.0
3220,61.0,96.0,90.0,3.0,0.0
3221,58.0,88.0,90.0,3.0,0.0
3222,61.0,16.0,90.0,3.0,0.0
3223,75.0,72.0,20.0,2.0,0.0
3224,54.0,40.0,90.0,3.0,0.0
3225,73.0,8.0,60.0,2.0,0.0
3226,71.0,48.0,60.0,2.0,0.0
3227,61.0,96.0,90.0,3.0,0.0
3228,70.0,8.0,60.0,2.0,0.0
3229,76.0,8.0,180.0,2.0,0.0
3230,55.0,88.0,90.0,3.0,0.0
3231,63.0,96.0,90.0,3.0,0.0
3232,75.0,8.0,180.0,2.0,0.0
3233,58.0,88.0,90.0,3.0,0.0
3234,63.0,96.0,90.0,3.0,0.0
3235,70.0,8.0,180.0,2.0,0.0
3236,55.0,88.0,90.0,3.0,0.0
3237,63.0,88.0,90.0,3.0,0.0
3238,73.0,8.0,90.0,2.0,0.0
3239,75.0,4.0,960.0,4.0,0.0
3240,56.0,86.0,90.0,3.0,0.0
3241,63.0,95.0,960.0,5.0,0.0
3242,71.0,10.0,90.0,2.0,0.0
3243,63.0,96.0,90.0,3.0,0.0
3244,59.0,96.0,90.0,3.0,0.0
3245,63.0,88.0,90.0,3.0,0.0
3246,75.0,8.0,90.0,2.0,0.0
3247,55.0,86.0,90.0,3.0,0.0
3248,70.0,10.0,90.0,2.0,0.0
3249,63.0,88.0,90.0,3.0,0.0
3250,73.0,8.0,90.0,2.0,0.0
3251,56.0,86.0,90.0,3.0,0.0
3252,71.0,10.0,90.0,2.0,0.0
3253,63.0,96.0,90.0,3.0,0.0
3254,59.0,92.0,90.0,3.0,0.0
3255,63.0,1.0,90.0,3.0,0.0
3256,74.0,5.0,150.0,4.0,0.0
3257,54.0,60.0,90.0,3.0,0.0
3258,62.0,31.0,150.0,5.0,0.0
3259,62.0,96.0,90.0,3.0,0.0
3260,71.0,8.0,300.0,2.0,0.0
3261,73.0,5.0,150.0,4.0,0.0
3262,53.0,60.0,90.0,3.0,0.0
3263,61.0,31.0,150.0,5.0,0.0
3264,61.0,88.0,90.0,3.0,0.0
3265,56.0,40.0,90.0,3.0,0.0
3266,70.0,48.0,60.0,2.0,0.0
3267,61.0,16.0,90.0,3.0,0.0
3268,71.0,8.0,60.0,2.0,0.0
3269,73.0,72.0,20.0,2.0,0.0
3270,53.0,40.0,90.0,3.0,0.0
3271,71.0,8.0,60.0,2.0,0.0
3272,70.0,48.0,60.0,2.0,0.0
3273,61.0,96.0,90.0,3.0,0.0
3274,68.0,8.0,60.0,2.0,0.0
3275,80.0,8.0,180.0,2.0,0.0
3276,53.0,88.0,90.0,3.0,0.0
3277,61.0,96.0,90.0,3.0,0.0
3278,68.0,8.0,180.0,2.0,0.0
3279,56.0,88.0,90.0,3.0,0.0
3280,61.0,96.0,90.0,3.0,0.0
3281,73.0,8.0,180.0,2.0,0.0
3282,53.0,88.0,90.0,3.0,0.0
3283,61.0,88.0,90.0,3.0,0.0
3284,71.0,8.0,90.0,2.0,0.0
3285,73.0,4.0,960.0,4.0,0.0
3286,54.0,88.0,90.0,3.0,0.0
3287,61.0,95.0,960.0,5.0,0.0
3288,70.0,8.0,90.0,2.0,0.0
3289,61.0,96.0,90.0,3.0,0.0
3290,58.0,96.0,90.0,3.0,0.0
3291,61.0,88.0,90.0,3.0,0.0
3292,73.0,8.0,90.0,2.0,0.0
3293,53.0,86.0,90.0,3.0,0.0
3294,68.0,10.0,90.0,2.0,0.0
3295,61.0,88.0,90.0,3.0,0.0
3296,71.0,8.0,90.0,2.0,0.0
3297,54.0,86.0,90.0,3.0,0.0
3298,70.0,10.0,90.0,2.0,0.0
3299,61.0,96.0,90.0,3.0,0.0
3300,58.0,92.0,90.0,3.0,0.0
3301,61.0,1.0,90.0,3.0,0.0
3302,78.0,5.0,150.0,4.0,0.0
3303,51.0,60.0,90.0,3.0,0.0
3304,70.0,31.0,150.0,5.0,0.0
3305,54.0,96.0,90.0,3.0,0.0
3306,68.0,8.0,300.0,2.0,0.0
3307,59.0,2.0,150.0,6.0,0.0
3308,47.0,1.0,150.0,7.0,0.0
3309,68.0,5.0,150.0,4.0,0.0
3310,47.0,57.0,90.0,3.0,0.0
3311,63.0,1.0,150.0,5.0,0.0
3312,35.0,30.0,150.0,8.0,0.0
3313,56.0,88.0,90.0,3.0,0.0
3314,51.0,40.0,90.0,3.0,0.0
3315,71.0,48.0,60.0,2.0,0.0
3316,56.0,16.0,90.0,3.0,0.0
3317,70.0,8.0,60.0,2.0,0.0
3318,73.0,72.0,20.0,2.0,0.0
3319,47.0,40.0,90.0,3.0,0.0
3320,71.0,8.0,60.0,2.0,0.0
3321,70.0,48.0,60.0,2.0,0.0
3322,56.0,96.0,90.0,3.0,0.0
3323,68.0,8.0,60.0,2.0,0.0
3324,74.0,8.0,180.0,2.0,0.0
3325,56.0,2.0,150.0,6.0,0.0
3326,48.0,1.0,150.0,7.0,0.0
3327,66.0,5.0,150.0,4.0,0.0
3328,48.0,57.0,90.0,3.0,0.0
3329,63.0,1.0,150.0,5.0,0.0
3330,36.0,22.0,150.0,8.0,0.0
3331,56.0,96.0,90.0,3.0,0.0
3332,75.0,40.0,150.0,2.0,0.0
3333,51.0,56.0,90.0,3.0,0.0
3334,56.0,40.0,90.0,3.0,0.0
3335,66.0,56.0,60.0,2.0,0.0
3336,48.0,96.0,90.0,3.0,0.0
3337,56.0,16.0,90.0,3.0,0.0
3338,65.0,24.0,20.0,2.0,0.0
3339,56.0,2.0,150.0,6.0,0.0
3340,49.0,1.0,150.0,7.0,0.0
3341,65.0,5.0,150.0,4.0,0.0
3342,49.0,24.0,180.0,3.0,0.0
3343,61.0,1.0,150.0,5.0,0.0
3344,37.0,20.0,150.0,8.0,0.0
3345,68.0,113.0,20.0,2.0,0.0
3346,73.0,10.0,150.0,2.0,0.0
3347,73.0,4.0,30.0,2.0,0.0
3348,65.0,5.0,30.0,4.0,0.0
3349,61.0,87.0,30.0,5.0,0.0
3350,73.0,4.0,30.0,2.0,0.0
3351,66.0,5.0,30.0,4.0,0.0
3352,63.0,87.0,30.0,5.0,0.0
3353,73.0,4.0,30.0,2.0,0.0
3354,68.0,5.0,30.0,4.0,0.0
3355,65.0,87.0,30.0,5.0,0.0
3356,73.0,4.0,30.0,2.0,0.0
3357,70.0,5.0,30.0,4.0,0.0
3358,66.0,87.0,30.0,5.0,0.0
3359,73.0,63.0,30.0,2.0,0.0
3360,61.0,2.0,90.0,6.0,0.0
3361,53.0,3.0,90.0,7.0,0.0
3362,73.0,4.0,90.0,4.0,0.0
3363,70.0,23.0,90.0,5.0,0.0
3364,41.0,1.0,90.0,8.0,0.0
3365,73.0,66.0,30.0,2.0,0.0
3366,71.0,5.0,90.0,4.0,0.0
3367,68.0,25.0,90.0,5.0,0.0
3368,73.0,63.0,30.0,2.0,0.0
3369,61.0,2.0,90.0,6.0,0.0
3370,54.0,3.0,90.0,7.0,0.0
3371,71.0,4.0,90.0,4.0,0.0
3372,68.0,23.0,90.0,5.0,0.0
3373,42.0,1.0,90.0,8.0,0.0
3374,73.0,66.0,30.0,2.0,0.0
3375,70.0,5.0,90.0,4.0,0.0
3376,66.0,25.0,90.0,5.0,0.0
3377,73.0,63.0,30.0,2.0,0.0
3378,61.0,2.0,90.0,6.0,0.0
3379,42.0,3.0,90.0,7.0,0.0
3380,70.0,4.0,90.0,4.0,0.0
3381,66.0,23.0,90.0,5.0,0.0
3382,30.0,1.0,90.0,8.0,0.0
3383,73.0,66.0,30.0,2.0,0.0
3384,68.0,5.0,90.0,4.0,0.0
3385,65.0,17.0,90.0,5.0,0.0
3386,77.0,24.0,20.0,2.0,0.0
3387,61.0,2.0,150.0,6.0,0.0
3388,49.0,1.0,150.0,7.0,0.0
3389,68.0,4.0,150.0,4.0,0.0
3390,49.0,0.0,150.0,3.0,0.0
3391,37.0,1.0,150.0,3.0,0.0
3392,65.0,1.0,150.0,5.0,0.0
3393,37.0,20.0,150.0,8.0,0.0
3394,75.0,113.0,20.0,2.0,0.0
3395,73.0,34.0,150.0,2.0,0.0
3396,73.0,4.0,30.0,2.0,0.0
3397,65.0,5.0,30.0,4.0,0.0
3398,61.0,87.0,30.0,5.0,0.0
3399,73.0,4.0,30.0,2.0,0.0
3400,66.0,5.0,30.0,4.0,0.0
3401,63.0,87.0,30.0,5.0,0.0
3402,73.0,4.0,30.0,2.0,0.0
3403,68.0,5.0,30.0,4.0,0.0
3404,65.0,87.0,30.0,5.0,0.0
3405,73.0,4.0,30.0,2.0,0.0
3406,70.0,5.0,30.0,4.0,0.0
3407,66.0,87.0,30.0,5.0,0.0
3408,73.0,63.0,30.0,2.0,0.0
3409,61.0,2.0,90.0,6.0,0.0
3410,53.0,3.0,90.0,7.0,0.0
3411,73.0,4.0,90.0,4.0,0.0
3412,70.0,23.0,90.0,5.0,0.0
3413,41.0,1.0,90.0,8.0,0.0
3414,73.0,66.0,30.0,2.0,0.0
3415,71.0,5.0,90.0,4.0,0.0
3416,68.0,25.0,90.0,5.0,0.0
3417,73.0,63.0,30.0,2.0,0.0
3418,61.0,2.0,90.0,6.0,0.0
3419,54.0,3.0,90.0,7.0,0.0
3420,71.0,4.0,90.0,4.0,0.0
3421,68.0,23.0,90.0,5.0,0.0
3422,42.0,1.0,90.0,8.0,0.0
3423,73.0,66.0,30.0,2.0,0.0
3424,70.0,5.0,90.0,4.0,0.0
3425,66.0,25.0,90.0,5.0,0.0
3426,73.0,63.0,30.0,2.0,0.0
3427,61.0,2.0,90.0,6.0,0.0
3428,42.0,3.0,90.0,7.0,0.0
3429,70.0,4.0,90.0,4.0,0.0
3430,66.0,23.0,90.0,5.0,0.0
3431,30.0,1.0,90.0,8.0,0.0
3432,73.0,66.0,30.0,2.0,0.0
3433,68.0,5.0,90.0,4.0,0.0
3434,65.0,17.0,90.0,5.0,0.0
3435,80.0,24.0,20.0,2.0,0.0
3436,61.0,2.0,150.0,6.0,0.0
3437,49.0,1.0,150.0,7.0,0.0
3438,68.0,4.0,150.0,4.0,0.0
3439,49.0,1.0,150.0,3.0,0.0
3440,37.0,0.0,150.0,3.0,0.0
3441,65.0,1.0,150.0,5.0,0.0
3442,37.0,20.0,150.0,8.0,0.0
3443,77.0,113.0,20.0,2.0,0.0
3444,73.0,34.0,150.0,2.0,0.0
3445,73.0,96.0,30.0,2.0,0.0
3446,73.0,96.0,30.0,2.0,0.0
3447,73.0,96.0,30.0,2.0,0.0
3448,73.0,160.0,30.0,2.0,0.0
3449,73.0,96.0,90.0,2.0,0.0
3450,75.0,96.0,90.0,2.0,0.0
3451,73.0,96.0,90.0,2.0,0.0
3452,70.0,96.0,90.0,2.0,0.0
3453,71.0,94.0,90.0,2.0,0.0
3454,68.0,104.0,90.0,2.0,0.0
3455,58.0,38.0,270.0,2.0,0.0
3456,66.0,0.0,270.0,2.0,0.0
3457,42.0,96.0,90.0,3.0,0.0
3458,54.0,58.0,90.0,3.0,0.0
3459,54.0,88.0,90.0,3.0,0.0
3460,59.0,0.0,90.0,2.0,0.0
3461,68.0,8.0,90.0,2.0,0.0
3462,54.0,96.0,90.0,3.0,0.0
3463,70.0,0.0,150.0,2.0,0.0
3464,61.0,38.0,150.0,2.0,0.0
3465,54.0,58.0,90.0,3.0,0.0
3466,54.0,96.0,90.0,3.0,0.0
3467,71.0,6.0,180.0,2.0,0.0
3468,63.0,0.0,180.0,2.0,0.0
3469,54.0,90.0,90.0,3.0,0.0
3470,54.0,96.0,90.0,3.0,0.0
3471,60.0,6.0,180.0,2.0,0.0
3472,69.0,0.0,180.0,2.0,0.0
3473,54.0,90.0,90.0,3.0,0.0
3474,54.0,96.0,90.0,3.0,0.0
3475,61.0,0.0,150.0,2.0,0.0
3476,70.0,38.0,150.0,2.0,0.0
3477,54.0,58.0,90.0,3.0,0.0
3478,54.0,96.0,90.0,3.0,0.0
3479,68.0,0.0,180.0,2.0,0.0
3480,59.0,6.0,180.0,2.0,0.0
3481,54.0,90.0,90.0,3.0,0.0
3482,54.0,96.0,90.0,3.0,0.0
3483,65.0,6.0,180.0,2.0,0.0
3484,57.0,0.0,180.0,2.0,0.0
3485,54.0,90.0,90.0,3.0,0.0
3486,54.0,96.0,90.0,3.0,0.0
3487,66.0,0.0,150.0,2.0,0.0
3488,58.0,38.0,150.0,2.0,0.0
3489,54.0,58.0,90.0,3.0,0.0
3490,54.0,142.0,90.0,3.0,0.0
3491,54.0,20.0,150.0,4.0,0.0
3492,54.0,28.0,150.0,3.0,0.0
3493,53.0,144.0,60.0,4.0,0.0
3494,56.0,48.0,150.0,4.0,0.0
3495,54.0,144.0,60.0,4.0,0.0
3496,59.0,46.0,150.0,4.0,0.0
3497,58.0,100.0,60.0,4.0,0.0
3498,66.0,38.0,270.0,2.0,0.0
3499,70.0,0.0,270.0,2.0,0.0
3500,58.0,34.0,150.0,4.0,0.0
3501,42.0,62.0,90.0,3.0,0.0
3502,54.0,58.0,90.0,3.0,0.0
3503,54.0,88.0,90.0,3.0,0.0
3504,68.0,0.0,90.0,2.0,0.0
3505,71.0,8.0,90.0,2.0,0.0
3506,54.0,96.0,90.0,3.0,0.0
3507,70.0,38.0,150.0,2.0,0.0
3508,73.0,0.0,150.0,2.0,0.0
3509,54.0,58.0,90.0,3.0,0.0
3510,54.0,96.0,90.0,3.0,0.0
3511,71.0,0.0,180.0,2.0,0.0
3512,75.0,6.0,180.0,2.0,0.0
3513,54.0,90.0,90.0,3.0,0.0
3514,54.0,96.0,90.0,3.0,0.0
3515,72.0,6.0,180.0,2.0,0.0
3516,69.0,0.0,180.0,2.0,0.0
3517,54.0,90.0,90.0,3.0,0.0
3518,54.0,96.0,90.0,3.0,0.0
3519,73.0,0.0,150.0,2.0,0.0
3520,70.0,38.0,150.0,2.0,0.0
3521,54.0,58.0,90.0,3.0,0.0
3522,54.0,96.0,90.0,3.0,0.0
3523,71.0,0.0,180.0,2.0,0.0
3524,68.0,6.0,180.0,2.0,0.0
3525,54.0,90.0,90.0,3.0,0.0
3526,54.0,96.0,90.0,3.0,0.0
3527,69.0,0.0,180.0,2.0,0.0
3528,65.0,6.0,180.0,2.0,0.0
3529,54.0,90.0,90.0,3.0,0.0
3530,54.0,96.0,90.0,3.0,0.0
3531,66.0,0.0,150.0,2.0,0.0
3532,70.0,38.0,150.0,2.0,0.0
3533,54.0,58.0,90.0,3.0,0.0
3534,54.0,142.0,90.0,3.0,0.0
3535,58.0,5.0,150.0,4.0,0.0
3536,54.0,28.0,150.0,3.0,0.0
3537,54.0,15.0,150.0,5.0,0.0
3538,56.0,5.0,60.0,4.0,0.0
3539,53.0,139.0,60.0,5.0,0.0
3540,59.0,5.0,150.0,4.0,0.0
3541,56.0,43.0,150.0,5.0,0.0
3542,58.0,5.0,60.0,4.0,0.0
3543,54.0,139.0,60.0,5.0,0.0
3544,63.0,5.0,150.0,4.0,0.0
3545,59.0,41.0,150.0,5.0,0.0
3546,61.0,5.0,60.0,4.0,0.0
3547,58.0,137.0,60.0,5.0,0.0
3548,66.0,48.0,150.0,2.0,0.0
3549,61.0,5.0,540.0,4.0,0.0
3550,58.0,37.0,540.0,5.0,0.0
3551,65.0,144.0,60.0,2.0,0.0
3552,71.0,48.0,150.0,2.0,0.0
3553,70.0,144.0,60.0,2.0,0.0
3554,78.0,4.0,150.0,2.0,0.0
3555,76.0,154.0,60.0,2.0,0.0
3556,76.0,8.0,540.0,2.0,0.0
3557,73.0,4.0,780.0,4.0,0.0
3558,58.0,32.0,150.0,3.0,0.0
3559,54.0,16.0,150.0,3.0,0.0
3560,70.0,85.0,780.0,5.0,0.0
3561,53.0,144.0,60.0,3.0,0.0
3562,56.0,16.0,150.0,3.0,0.0
3563,59.0,32.0,150.0,3.0,0.0
3564,54.0,136.0,60.0,3.0,0.0
3565,61.0,30.0,150.0,3.0,0.0
3566,58.0,16.0,150.0,3.0,0.0
3567,56.0,18.0,60.0,3.0,0.0
3568,76.0,24.0,20.0,2.0,0.0
3569,55.0,1.0,180.0,3.0,0.0
3570,58.0,0.0,180.0,3.0,0.0
3571,78.0,48.0,20.0,2.0,0.0
3572,76.0,94.0,60.0,2.0,0.0
3573,75.0,6.0,90.0,2.0,0.0
3574,75.0,70.0,90.0,2.0,0.0
3575,71.0,4.0,150.0,4.0,0.0
3576,56.0,1.0,150.0,3.0,0.0
3577,59.0,0.0,150.0,3.0,0.0
3578,68.0,21.0,150.0,5.0,0.0
3579,75.0,96.0,90.0,2.0,0.0
3580,75.0,96.0,90.0,2.0,0.0
3581,75.0,26.0,90.0,2.0,0.0
3582,75.0,24.0,20.0,2.0,0.0
3583,71.0,4.0,180.0,4.0,0.0
3584,56.0,1.0,180.0,3.0,0.0
3585,53.0,0.0,180.0,3.0,0.0
3586,68.0,85.0,180.0,5.0,0.0
3587,77.0,48.0,20.0,2.0,0.0
3588,75.0,94.0,60.0,2.0,0.0
3589,73.0,6.0,90.0,2.0,0.0
3590,73.0,70.0,90.0,2.0,0.0
3591,70.0,4.0,150.0,4.0,0.0
3592,58.0,1.0,150.0,3.0,0.0
3593,54.0,0.0,150.0,3.0,0.0
3594,66.0,21.0,150.0,5.0,0.0
3595,73.0,96.0,90.0,2.0,0.0
3596,73.0,96.0,90.0,2.0,0.0
3597,73.0,98.0,90.0,2.0,0.0
3598,70.0,72.0,90.0,2.0,0.0
3599,73.0,0.0,90.0,2.0,0.0
3600,47.0,22.0,150.0,3.0,0.0
3601,71.0,162.0,90.0,2.0,0.0
3602,68.0,0.0,90.0,2.0,0.0
3603,66.0,0.0,150.0,2.0,0.0
3604,70.0,8.0,150.0,2.0,0.0
3605,49.0,184.0,150.0,3.0,0.0
3606,65.0,8.0,150.0,2.0,0.0
3607,68.0,0.0,150.0,2.0,0.0
3608,37.0,72.0,150.0,3.0,0.0
3609,66.0,8.0,150.0,2.0,0.0
3610,70.0,48.0,60.0,2.0,0.0
3611,42.0,24.0,150.0,3.0,0.0
3612,71.0,48.0,60.0,2.0,0.0
3613,70.0,16.0,60.0,2.0,0.0
3614,71.0,94.0,60.0,2.0,0.0
3615,73.0,34.0,90.0,2.0,0.0
3616,78.0,96.0,30.0,2.0,0.0
3617,73.0,188.0,30.0,2.0,0.0
3618,70.0,0.0,30.0,2.0,0.0
3619,58.0,1.0,180.0,6.0,0.0
3620,55.0,6.0,180.0,7.0,0.0
3621,64.0,24.0,20.0,4.0,0.0
3622,61.0,1.0,180.0,5.0,0.0
3623,43.0,151.0,180.0,8.0,0.0
3624,66.0,48.0,20.0,4.0,0.0
3625,64.0,93.0,60.0,4.0,0.0
3626,63.0,1.0,90.0,4.0,0.0
3627,59.0,2.0,150.0,6.0,0.0
3628,56.0,1.0,150.0,7.0,0.0
3629,63.0,5.0,150.0,4.0,0.0
3630,59.0,1.0,150.0,5.0,0.0
3631,44.0,22.0,150.0,8.0,0.0
3632,75.0,96.0,90.0,2.0,0.0
3633,80.0,94.0,90.0,2.0,0.0
3634,75.0,30.0,90.0,2.0,0.0
3635,56.0,1.0,180.0,6.0,0.0
3636,53.0,6.0,180.0,7.0,0.0
3637,63.0,24.0,20.0,4.0,0.0
3638,59.0,1.0,180.0,5.0,0.0
3639,41.0,151.0,180.0,8.0,0.0
3640,64.0,48.0,20.0,4.0,0.0
3641,63.0,93.0,60.0,4.0,0.0
3642,61.0,1.0,90.0,4.0,0.0
3643,58.0,2.0,150.0,6.0,0.0
3644,54.0,1.0,150.0,7.0,0.0
3645,61.0,5.0,150.0,4.0,0.0
3646,58.0,1.0,150.0,5.0,0.0
3647,42.0,22.0,150.0,8.0,0.0
3648,73.0,96.0,90.0,2.0,0.0
3649,78.0,94.0,90.0,2.0,0.0
3650,73.0,98.0,90.0,2.0,0.0
3651,70.0,0.0,90.0,2.0,0.0
3652,73.0,72.0,90.0,2.0,0.0
3653,47.0,22.0,150.0,3.0,0.0
3654,71.0,0.0,90.0,2.0,0.0
3655,68.0,162.0,90.0,2.0,0.0
3656,66.0,8.0,150.0,2.0,0.0
3657,70.0,0.0,150.0,2.0,0.0
3658,49.0,184.0,150.0,3.0,0.0
3659,65.0,0.0,150.0,2.0,0.0
3660,68.0,8.0,150.0,2.0,0.0
3661,37.0,72.0,150.0,3.0,0.0
3662,66.0,48.0,60.0,2.0,0.0
3663,42.0,24.0,150.0,3.0,0.0
3664,73.0,48.0,60.0,2.0,0.0
3665,75.0,24.0,60.0,2.0,0.0
3666,73.0,48.0,60.0,2.0,0.0
3667,78.0,48.0,60.0,2.0,0.0
3668,77.0,48.0,60.0,2.0,0.0
3669,75.0,48.0,60.0,2.0,0.0
3670,73.0,48.0,60.0,2.0,0.0
3671,71.0,48.0,60.0,2.0,0.0
3672,70.0,48.0,60.0,2.0,0.0
3673,68.0,48.0,60.0,2.0,0.0
3674,66.0,48.0,60.0,2.0,0.0
3675,65.0,48.0,60.0,2.0,0.0
3676,49.0,42.0,90.0,3.0,0.0
3677,73.0,6.0,60.0,2.0,0.0
3678,66.0,48.0,60.0,2.0,0.0
3679,51.0,42.0,90.0,3.0,0.0
3680,73.0,6.0,60.0,2.0,0.0
3681,68.0,48.0,60.0,2.0,0.0
3682,53.0,42.0,90.0,3.0,0.0
3683,73.0,6.0,60.0,2.0,0.0
3684,70.0,48.0,60.0,2.0,0.0
3685,54.0,42.0,90.0,3.0,0.0
3686,73.0,6.0,60.0,2.0,0.0
3687,71.0,48.0,60.0,2.0,0.0
3688,56.0,42.0,90.0,3.0,0.0
3689,73.0,6.0,60.0,2.0,0.0
3690,68.0,48.0,60.0,2.0,0.0
3691,53.0,42.0,90.0,3.0,0.0
3692,73.0,6.0,60.0,2.0,0.0
3693,70.0,48.0,60.0,2.0,0.0
3694,54.0,24.0,150.0,3.0,0.0
3695,73.0,48.0,60.0,2.0,0.0
3696,75.0,24.0,60.0,2.0,0.0
3697,73.0,48.0,60.0,2.0,0.0
3698,78.0,48.0,60.0,2.0,0.0
3699,77.0,48.0,60.0,2.0,0.0
3700,75.0,48.0,60.0,2.0,0.0
3701,73.0,48.0,60.0,2.0,0.0
3702,71.0,48.0,60.0,2.0,0.0
3703,70.0,48.0,60.0,2.0,0.0
3704,68.0,48.0,60.0,2.0,0.0
3705,66.0,48.0,60.0,2.0,0.0
3706,65.0,48.0,60.0,2.0,0.0
3707,49.0,42.0,90.0,3.0,0.0
3708,73.0,6.0,60.0,2.0,0.0
3709,66.0,48.0,60.0,2.0,0.0
3710,51.0,42.0,90.0,3.0,0.0
3711,73.0,6.0,60.0,2.0,0.0
3712,68.0,48.0,60.0,2.0,0.0
3713,53.0,42.0,90.0,3.0,0.0
3714,73.0,6.0,60.0,2.0,0.0
3715,70.0,48.0,60.0,2.0,0.0
3716,54.0,42.0,90.0,3.0,0.0
3717,73.0,6.0,60.0,2.0,0.0
3718,71.0,48.0,60.0,2.0,0.0
3719,56.0,42.0,90.0,3.0,0.0
3720,73.0,6.0,60.0,2.0,0.0
3721,68.0,48.0,60.0,2.0,0.0
3722,53.0,42.0,90.0,3.0,0.0
3723,73.0,6.0,60.0,2.0,0.0
3724,70.0,48.0,60.0,2.0,0.0
3725,54.0,42.0,90.0,3.0,0.0
3726,78.0,6.0,60.0,2.0,0.0
3727,71.0,48.0,60.0,2.0,0.0
3728,56.0,42.0,90.0,3.0,0.0
3729,78.0,6.0,60.0,2.0,0.0
3730,73.0,48.0,60.0,2.0,0.0
3731,58.0,42.0,90.0,3.0,0.0
3732,78.0,6.0,60.0,2.0,0.0
3733,75.0,48.0,60.0,2.0,0.0
3734,59.0,42.0,90.0,3.0,0.0
3735,78.0,6.0,60.0,2.0,0.0
3736,76.0,48.0,60.0,2.0,0.0
3737,61.0,42.0,90.0,3.0,0.0
3738,78.0,6.0,60.0,2.0,0.0
3739,73.0,48.0,60.0,2.0,0.0
3740,58.0,42.0,90.0,3.0,0.0
3741,78.0,6.0,60.0,2.0,0.0
3742,75.0,48.0,60.0,2.0,0.0
3743,59.0,42.0,90.0,3.0,0.0
3744,83.0,6.0,60.0,2.0,0.0
3745,77.0,48.0,60.0,2.0,0.0
3746,61.0,42.0,90.0,3.0,0.0
3747,83.0,6.0,60.0,2.0,0.0
3748,78.0,48.0,60.0,2.0,0.0
3749,63.0,42.0,90.0,3.0,0.0
3750,83.0,6.0,60.0,2.0,0.0
3751,77.0,48.0,60.0,2.0,0.0
3752,61.0,42.0,90.0,3.0,0.0
3753,83.0,6.0,60.0,2.0,0.0
3754,78.0,48.0,60.0,2.0,0.0
3755,63.0,42.0,90.0,3.0,0.0
3756,83.0,6.0,60.0,2.0,0.0
3757,75.0,48.0,60.0,2.0,0.0
3758,59.0,42.0,90.0,3.0,0.0
3759,83.0,6.0,60.0,2.0,0.0
3760,77.0,48.0,60.0,2.0,0.0
3761,61.0,24.0,270.0,3.0,0.0
3762,80.0,48.0,60.0,2.0,0.0
3763,83.0,48.0,60.0,2.0,0.0
3764,80.0,48.0,60.0,2.0,0.0
3765,77.0,24.0,60.0,2.0,0.0
3766,75.0,48.0,60.0,2.0,0.0
3767,73.0,48.0,60.0,2.0,0.0
3768,53.0,42.0,90.0,3.0,0.0
3769,71.0,6.0,60.0,2.0,0.0
3770,70.0,48.0,60.0,2.0,0.0
3771,54.0,24.0,150.0,3.0,0.0
3772,73.0,48.0,60.0,2.0,0.0
3773,78.0,24.0,60.0,2.0,0.0
3774,73.0,24.0,60.0,2.0,0.0
3775,77.0,72.0,20.0,2.0,0.0
3776,54.0,18.0,150.0,3.0,0.0
3777,47.0,24.0,150.0,3.0,0.0
3778,75.0,48.0,60.0,2.0,0.0
3779,73.0,6.0,60.0,2.0,0.0
3780,71.0,6.0,60.0,2.0,0.0
3781,56.0,162.0,60.0,3.0,0.0
3782,54.0,0.0,150.0,3.0,0.0
3783,49.0,24.0,150.0,3.0,0.0
3784,70.0,32.0,15.0,2.0,0.0
3785,53.0,24.0,150.0,3.0,0.0
3786,47.0,0.0,150.0,3.0,0.0
3787,68.0,32.0,30.0,2.0,0.0
3788,70.0,32.0,30.0,2.0,0.0
3789,68.0,32.0,30.0,2.0,0.0
3790,66.0,8.0,30.0,2.0,0.0
3791,68.0,104.0,30.0,2.0,0.0
3792,73.0,8.0,180.0,2.0,0.0
3793,58.0,2.0,150.0,6.0,0.0
3794,46.0,1.0,150.0,7.0,0.0
3795,73.0,5.0,150.0,4.0,0.0
3796,66.0,1.0,150.0,5.0,0.0
3797,34.0,22.0,150.0,8.0,0.0
3798,46.0,48.0,60.0,3.0,0.0
3799,49.0,9.0,60.0,3.0,0.0
3800,54.0,88.0,60.0,3.0,0.0
3801,58.0,24.0,150.0,3.0,0.0
3802,61.0,48.0,60.0,2.0,0.0
3803,66.0,24.0,60.0,2.0,0.0
3804,70.0,48.0,60.0,2.0,0.0
3805,73.0,48.0,60.0,2.0,0.0
3806,70.0,48.0,60.0,2.0,0.0
3807,78.0,48.0,60.0,2.0,0.0
3808,73.0,104.0,60.0,2.0,0.0
3809,75.0,8.0,180.0,2.0,0.0
3810,59.0,2.0,150.0,6.0,0.0
3811,47.0,1.0,150.0,7.0,0.0
3812,75.0,5.0,150.0,4.0,0.0
3813,66.0,1.0,150.0,5.0,0.0
3814,35.0,22.0,150.0,8.0,0.0
3815,47.0,48.0,60.0,3.0,0.0
3816,51.0,9.0,60.0,3.0,0.0
3817,54.0,88.0,60.0,3.0,0.0
3818,59.0,24.0,150.0,3.0,0.0
3819,63.0,48.0,60.0,2.0,0.0
3820,66.0,24.0,60.0,2.0,0.0
3821,71.0,48.0,60.0,2.0,0.0
3822,75.0,48.0,60.0,2.0,0.0
3823,71.0,48.0,60.0,2.0,0.0
3824,78.0,48.0,60.0,2.0,0.0
3825,75.0,104.0,60.0,2.0,0.0
3826,81.0,8.0,180.0,2.0,0.0
3827,63.0,2.0,150.0,6.0,0.0
3828,48.0,1.0,150.0,7.0,0.0
3829,78.0,5.0,150.0,4.0,0.0
3830,69.0,1.0,150.0,5.0,0.0
3831,36.0,22.0,150.0,8.0,0.0
3832,48.0,48.0,60.0,3.0,0.0
3833,51.0,9.0,60.0,3.0,0.0
3834,54.0,88.0,60.0,3.0,0.0
3835,57.0,24.0,150.0,3.0,0.0
3836,60.0,48.0,60.0,2.0,0.0
3837,63.0,24.0,60.0,2.0,0.0
3838,66.0,48.0,60.0,2.0,0.0
3839,69.0,48.0,60.0,2.0,0.0
3840,72.0,48.0,60.0,2.0,0.0
3841,75.0,48.0,60.0,2.0,0.0
3842,78.0,96.0,60.0,2.0,0.0
3843,61.0,2.0,150.0,6.0,0.0
3844,49.0,1.0,150.0,7.0,0.0
3845,78.0,4.0,150.0,4.0,0.0
3846,49.0,0.0,150.0,3.0,0.0
3847,37.0,1.0,150.0,3.0,0.0
3848,70.0,1.0,150.0,5.0,0.0
3849,37.0,22.0,150.0,8.0,0.0
3850,61.0,48.0,60.0,2.0,0.0
3851,66.0,17.0,60.0,2.0,0.0
3852,61.0,48.0,60.0,2.0,0.0
3853,70.0,48.0,60.0,2.0,0.0
3854,66.0,48.0,60.0,2.0,0.0
3855,73.0,48.0,60.0,2.0,0.0
3856,70.0,48.0,60.0,2.0,0.0
3857,78.0,48.0,60.0,2.0,0.0
3858,71.0,48.0,60.0,2.0,0.0
3859,82.0,48.0,60.0,2.0,0.0
3860,78.0,48.0,60.0,2.0,0.0
3861,85.0,48.0,60.0,2.0,0.0
3862,82.0,48.0,60.0,2.0,0.0
3863,78.0,48.0,60.0,2.0,0.0
3864,73.0,48.0,60.0,2.0,0.0
3865,82.0,48.0,60.0,2.0,0.0
3866,80.0,48.0,60.0,2.0,0.0
3867,73.0,48.0,60.0,2.0,0.0
3868,70.0,48.0,60.0,2.0,0.0
3869,78.0,48.0,60.0,2.0,0.0
3870,73.0,48.0,60.0,2.0,0.0
3871,70.0,48.0,60.0,2.0,0.0
3872,66.0,48.0,60.0,2.0,0.0
3873,72.0,8.0,60.0,2.0,0.0
3874,49.0,7.0,150.0,7.0,0.0
3875,49.0,40.0,60.0,3.0,0.0
3876,37.0,21.0,150.0,8.0,0.0
3877,73.0,8.0,60.0,2.0,0.0
3878,58.0,40.0,60.0,3.0,0.0
3879,72.0,8.0,60.0,2.0,0.0
3880,61.0,1.0,90.0,6.0,0.0
3881,70.0,5.0,90.0,4.0,0.0
3882,54.0,11.0,60.0,3.0,0.0
3883,66.0,1.0,90.0,5.0,0.0
3884,73.0,2.0,60.0,2.0,0.0
3885,58.0,40.0,60.0,3.0,0.0
3886,72.0,8.0,60.0,2.0,0.0
3887,61.0,1.0,90.0,6.0,0.0
3888,49.0,7.0,150.0,7.0,0.0
3889,70.0,5.0,90.0,4.0,0.0
3890,49.0,39.0,60.0,3.0,0.0
3891,66.0,1.0,90.0,5.0,0.0
3892,37.0,21.0,150.0,8.0,0.0
3893,73.0,2.0,60.0,2.0,0.0
3894,58.0,40.0,60.0,3.0,0.0
3895,75.0,8.0,60.0,2.0,0.0
3896,61.0,1.0,90.0,6.0,0.0
3897,70.0,5.0,90.0,4.0,0.0
3898,54.0,11.0,60.0,3.0,0.0
3899,66.0,1.0,90.0,5.0,0.0
3900,73.0,2.0,60.0,2.0,0.0
3901,58.0,40.0,60.0,3.0,0.0
3902,71.0,8.0,60.0,2.0,0.0
3903,61.0,1.0,90.0,6.0,0.0
3904,49.0,7.0,150.0,7.0,0.0
3905,70.0,5.0,90.0,4.0,0.0
3906,49.0,39.0,60.0,3.0,0.0
3907,66.0,1.0,90.0,5.0,0.0
3908,37.0,21.0,150.0,8.0,0.0
3909,70.0,2.0,60.0,2.0,0.0
3910,58.0,40.0,60.0,3.0,0.0
3911,68.0,8.0,60.0,2.0,0.0
3912,61.0,1.0,90.0,6.0,0.0
3913,70.0,5.0,90.0,4.0,0.0
3914,54.0,11.0,60.0,3.0,0.0
3915,66.0,1.0,90.0,5.0,0.0
3916,66.0,2.0,60.0,2.0,0.0
3917,58.0,24.0,60.0,3.0,0.0
3918,68.0,15.0,30.0,2.0,0.0
3919,61.0,3.0,60.0,6.0,0.0
3920,49.0,1.0,90.0,7.0,0.0
3921,68.0,5.0,60.0,4.0,0.0
3922,49.0,8.0,60.0,3.0,0.0
3923,65.0,0.0,60.0,5.0,0.0
3924,59.0,1.0,60.0,5.0,0.0
3925,37.0,0.0,90.0,8.0,0.0
3926,70.0,31.0,30.0,2.0,0.0
3927,61.0,1.0,60.0,6.0,0.0
3928,68.0,5.0,60.0,4.0,0.0
3929,59.0,24.0,60.0,3.0,0.0
3930,65.0,0.0,60.0,5.0,0.0
3931,59.0,1.0,60.0,5.0,0.0
3932,68.0,1.0,30.0,2.0,0.0
3933,70.0,15.0,30.0,2.0,0.0
3934,61.0,3.0,60.0,6.0,0.0
3935,49.0,1.0,90.0,7.0,0.0
3936,68.0,5.0,60.0,4.0,0.0
3937,53.0,8.0,60.0,3.0,0.0
3938,65.0,0.0,60.0,5.0,0.0
3939,59.0,1.0,60.0,5.0,0.0
3940,37.0,24.0,90.0,8.0,0.0
3941,68.0,31.0,30.0,2.0,0.0
3942,61.0,1.0,60.0,6.0,0.0
3943,68.0,5.0,60.0,4.0,0.0
3944,59.0,0.0,60.0,3.0,0.0
3945,65.0,0.0,60.0,5.0,0.0
3946,59.0,1.0,60.0,5.0,0.0
3947,70.0,1.0,30.0,2.0,0.0
3948,68.0,15.0,30.0,2.0,0.0
3949,61.0,3.0,60.0,6.0,0.0
3950,49.0,1.0,90.0,7.0,0.0
3951,68.0,5.0,60.0,4.0,0.0
3952,49.0,8.0,60.0,3.0,0.0
3953,59.0,1.0,60.0,5.0,0.0
3954,65.0,0.0,60.0,5.0,0.0
3955,37.0,0.0,90.0,8.0,0.0
3956,70.0,31.0,30.0,2.0,0.0
3957,61.0,1.0,60.0,6.0,0.0
3958,68.0,5.0,60.0,4.0,0.0
3959,59.0,24.0,60.0,3.0,0.0
3960,65.0,0.0,60.0,5.0,0.0
3961,59.0,1.0,60.0,5.0,0.0
3962,68.0,1.0,30.0,2.0,0.0
3963,70.0,15.0,30.0,2.0,0.0
3964,61.0,3.0,60.0,6.0,0.0
3965,49.0,1.0,90.0,7.0,0.0
3966,68.0,5.0,60.0,4.0,0.0
3967,53.0,8.0,60.0,3.0,0.0
3968,59.0,0.0,60.0,5.0,0.0
3969,65.0,1.0,60.0,5.0,0.0
3970,37.0,0.0,90.0,8.0,0.0
3971,68.0,31.0,30.0,2.0,0.0
3972,61.0,1.0,60.0,6.0,0.0
3973,68.0,5.0,60.0,4.0,0.0
3974,59.0,24.0,60.0,3.0,0.0
3975,59.0,1.0,60.0,5.0,0.0
3976,65.0,0.0,60.0,5.0,0.0
3977,70.0,1.0,30.0,2.0,0.0
3978,68.0,15.0,30.0,2.0,0.0
3979,61.0,3.0,60.0,6.0,0.0
3980,49.0,1.0,90.0,7.0,0.0
3981,68.0,5.0,60.0,4.0,0.0
3982,49.0,8.0,60.0,3.0,0.0
3983,59.0,0.0,60.0,5.0,0.0
3984,65.0,1.0,60.0,5.0,0.0
3985,37.0,0.0,90.0,8.0,0.0
3986,70.0,31.0,30.0,2.0,0.0
3987,61.0,1.0,60.0,6.0,0.0
3988,68.0,5.0,60.0,4.0,0.0
3989,59.0,39.0,60.0,3.0,0.0
3990,65.0,1.0,60.0,5.0,0.0
3991,59.0,0.0,60.0,5.0,0.0
3992,68.0,1.0,30.0,2.0,0.0
3993,66.0,2.0,60.0,2.0,0.0
3994,61.0,1.0,60.0,6.0,0.0
3995,49.0,1.0,90.0,7.0,0.0
3996,68.0,5.0,60.0,4.0,0.0
3997,53.0,39.0,60.0,3.0,0.0
3998,59.0,0.0,60.0,5.0,0.0
3999,65.0,1.0,60.0,5.0,0.0
4000,37.0,0.0,90.0,8.0,0.0
4001,68.0,1.0,60.0,2.0,0.0
4002,61.0,1.0,60.0,6.0,0.0
4003,68.0,5.0,60.0,4.0,0.0
4004,59.0,160.0,60.0,3.0,0.0
4005,59.0,0.0,60.0,5.0,0.0
4006,65.0,1.0,60.0,5.0,0.0
4007,66.0,143.0,180.0,2.0,0.0
4008,61.0,1.0,330.0,6.0,0.0
4009,66.0,1.0,330.0,0.0,0.0
4010,54.0,1.0,330.0,7.0,0.0
4011,58.0,0.0,330.0,4.0,0.0
4012,66.0,2.0,330.0,4.0,0.0
4013,61.0,0.0,330.0,1.0,0.0
4014,54.0,3.0,330.0,1.0,0.0
4015,54.0,24.0,150.0,3.0,0.0
4016,58.0,0.0,150.0,3.0,0.0
4017,58.0,1.0,330.0,5.0,0.0
4018,66.0,0.0,330.0,5.0,0.0
4019,42.0,39.0,330.0,8.0,0.0
4020,61.0,1.0,60.0,6.0,0.0
4021,66.0,1.0,60.0,0.0,0.0
4022,54.0,1.0,60.0,7.0,0.0
4023,66.0,2.0,60.0,4.0,0.0
4024,54.0,3.0,60.0,1.0,0.0
4025,61.0,0.0,60.0,1.0,0.0
4026,66.0,1.0,60.0,5.0,0.0
4027,42.0,135.0,60.0,8.0,0.0
4028,61.0,1.0,150.0,6.0,0.0
4029,66.0,1.0,150.0,0.0,0.0
4030,54.0,1.0,150.0,7.0,0.0
4031,66.0,0.0,150.0,4.0,0.0
4032,58.0,2.0,150.0,4.0,0.0
4033,61.0,0.0,150.0,1.0,0.0
4034,54.0,3.0,150.0,1.0,0.0
4035,66.0,0.0,150.0,5.0,0.0
4036,58.0,1.0,150.0,5.0,0.0
4037,42.0,39.0,150.0,8.0,0.0
4038,61.0,1.0,60.0,6.0,0.0
4039,66.0,1.0,60.0,0.0,0.0
4040,54.0,1.0,60.0,7.0,0.0
4041,66.0,2.0,60.0,4.0,0.0
4042,54.0,0.0,60.0,1.0,0.0
4043,61.0,3.0,60.0,1.0,0.0
4044,66.0,1.0,60.0,5.0,0.0
4045,42.0,20.0,60.0,8.0,0.0
4046,61.0,1.0,60.0,6.0,0.0
4047,66.0,1.0,60.0,0.0,0.0
4048,54.0,1.0,60.0,7.0,0.0
4049,68.0,21.0,20.0,4.0,0.0
4050,61.0,0.0,60.0,1.0,0.0
4051,54.0,3.0,60.0,1.0,0.0
4052,66.0,1.0,60.0,5.0,0.0
4053,58.0,0.0,60.0,5.0,0.0
4054,42.0,18.0,60.0,8.0,0.0
4055,66.0,2.0,20.0,4.0,0.0
4056,68.0,24.0,20.0,4.0,0.0
4057,66.0,24.0,20.0,4.0,0.0
4058,68.0,24.0,20.0,4.0,0.0
4059,66.0,24.0,20.0,4.0,0.0
4060,65.0,22.0,20.0,4.0,0.0
4061,66.0,47.0,20.0,4.0,0.0
4062,61.0,1.0,60.0,6.0,0.0
4063,68.0,0.0,60.0,0.0,0.0
4064,65.0,1.0,60.0,0.0,0.0
4065,49.0,1.0,60.0,7.0,0.0
4066,68.0,2.0,60.0,4.0,0.0
4067,61.0,3.0,60.0,1.0,0.0
4068,65.0,1.0,60.0,5.0,0.0
4069,59.0,0.0,60.0,5.0,0.0
4070,37.0,661.0,60.0,8.0,0.0
4071,61.0,1.0,330.0,6.0,0.0
4072,70.0,1.0,330.0,0.0,0.0
4073,64.0,0.0,330.0,0.0,0.0
4074,54.0,1.0,330.0,7.0,0.0
4075,70.0,2.0,330.0,4.0,0.0
4076,61.0,0.0,330.0,4.0,0.0
4077,61.0,3.0,330.0,1.0,0.0
4078,54.0,0.0,330.0,1.0,0.0
4079,64.0,1.0,330.0,5.0,0.0
4080,42.0,39.0,330.0,8.0,0.0
4081,61.0,1.0,60.0,6.0,0.0
4082,70.0,0.0,60.0,0.0,0.0
4083,64.0,1.0,60.0,0.0,0.0
4084,54.0,1.0,60.0,7.0,0.0
4085,70.0,2.0,60.0,4.0,0.0
4086,61.0,0.0,60.0,1.0,0.0
4087,54.0,3.0,60.0,1.0,0.0
4088,64.0,1.0,60.0,5.0,0.0
4089,66.0,0.0,60.0,5.0,0.0
4090,42.0,65.0,60.0,8.0,0.0
4091,61.0,1.0,150.0,6.0,0.0
4092,70.0,1.0,150.0,0.0,0.0
4093,64.0,0.0,150.0,0.0,0.0
4094,54.0,1.0,150.0,7.0,0.0
4095,61.0,0.0,150.0,4.0,0.0
4096,70.0,2.0,150.0,4.0,0.0
4097,61.0,3.0,150.0,1.0,0.0
4098,54.0,0.0,150.0,1.0,0.0
4099,64.0,0.0,150.0,5.0,0.0
4100,66.0,70.0,60.0,5.0,0.0
4101,42.0,39.0,150.0,8.0,0.0
4102,61.0,1.0,60.0,6.0,0.0
4103,64.0,0.0,60.0,0.0,0.0
4104,70.0,1.0,60.0,0.0,0.0
4105,54.0,1.0,60.0,7.0,0.0
4106,70.0,2.0,60.0,4.0,0.0
4107,54.0,0.0,60.0,1.0,0.0
4108,61.0,3.0,60.0,1.0,0.0
4109,64.0,0.0,60.0,5.0,0.0
4110,66.0,1.0,60.0,5.0,0.0
4111,42.0,20.0,60.0,8.0,0.0
4112,61.0,1.0,60.0,6.0,0.0
4113,70.0,1.0,60.0,0.0,0.0
4114,64.0,0.0,60.0,0.0,0.0
4115,54.0,1.0,60.0,7.0,0.0
4116,71.0,21.0,20.0,4.0,0.0
4117,54.0,0.0,60.0,1.0,0.0
4118,61.0,3.0,60.0,1.0,0.0
4119,66.0,0.0,60.0,5.0,0.0
4120,64.0,1.0,60.0,5.0,0.0
4121,42.0,18.0,60.0,8.0,0.0
4122,70.0,2.0,20.0,4.0,0.0
4123,71.0,24.0,20.0,4.0,0.0
4124,70.0,24.0,20.0,4.0,0.0
4125,71.0,24.0,20.0,4.0,0.0
4126,70.0,24.0,20.0,4.0,0.0
4127,68.0,22.0,20.0,4.0,0.0
4128,70.0,47.0,20.0,4.0,0.0
4129,59.0,1.0,60.0,6.0,0.0
4130,63.0,1.0,60.0,0.0,0.0
4131,71.0,0.0,60.0,0.0,0.0
4132,49.0,1.0,60.0,7.0,0.0
4133,71.0,2.0,60.0,4.0,0.0
4134,54.0,3.0,60.0,1.0,0.0
4135,59.0,0.0,60.0,1.0,0.0
4136,63.0,0.0,60.0,5.0,0.0
4137,66.0,1.0,60.0,5.0,0.0
4138,37.0,471.0,60.0,8.0,0.0
4139,63.0,2.0,150.0,6.0,0.0
4140,47.0,7.0,150.0,7.0,0.0
4141,75.0,5.0,540.0,4.0,0.0
4142,71.0,8.0,540.0,5.0,0.0
4143,35.0,39.0,150.0,8.0,0.0
4144,65.0,2.0,60.0,6.0,0.0
4145,49.0,7.0,60.0,7.0,0.0
4146,37.0,183.0,60.0,8.0,0.0
4147,66.0,2.0,180.0,6.0,0.0
4148,51.0,7.0,180.0,7.0,0.0
4149,39.0,138.0,180.0,8.0,0.0
4150,68.0,2.0,150.0,6.0,0.0
4151,53.0,7.0,150.0,7.0,0.0
4152,41.0,215.0,150.0,8.0,0.0
4153,70.0,2.0,180.0,6.0,0.0
4154,54.0,1.0,180.0,7.0,0.0
4155,73.0,5.0,180.0,4.0,0.0
4156,70.0,1.0,180.0,5.0,0.0
4157,42.0,151.0,180.0,8.0,0.0
4158,68.0,34.0,150.0,6.0,0.0
4159,50.0,1.0,180.0,7.0,0.0
4160,77.0,5.0,180.0,4.0,0.0
4161,71.0,1.0,180.0,5.0,0.0
4162,38.0,153.0,180.0,8.0,0.0
4163,66.0,3.0,330.0,6.0,0.0
4164,51.0,1.0,150.0,7.0,0.0
4165,78.0,5.0,150.0,4.0,0.0
4166,70.0,1.0,150.0,5.0,0.0
4167,39.0,167.0,150.0,8.0,0.0
4168,47.0,7.0,150.0,7.0,0.0
4169,75.0,5.0,150.0,4.0,0.0
4170,71.0,10.0,150.0,5.0,0.0
4171,35.0,21.0,150.0,8.0,0.0
4172,63.0,3.0,60.0,6.0,0.0
4173,71.0,5.0,60.0,4.0,0.0
4174,68.0,156.0,60.0,5.0,0.0
4175,61.0,3.0,180.0,6.0,0.0
4176,49.0,7.0,150.0,7.0,0.0
4177,70.0,5.0,180.0,4.0,0.0
4178,66.0,152.0,180.0,5.0,0.0
4179,37.0,23.0,150.0,8.0,0.0
4180,59.0,2.0,150.0,6.0,0.0
4181,49.0,1.0,150.0,7.0,0.0
4182,68.0,5.0,150.0,4.0,0.0
4183,65.0,1.0,150.0,5.0,0.0
4184,37.0,183.0,150.0,8.0,0.0
4185,58.0,2.0,150.0,6.0,0.0
4186,42.0,1.0,150.0,7.0,0.0
4187,66.0,5.0,150.0,4.0,0.0
4188,66.0,1.0,150.0,5.0,0.0
4189,30.0,73.0,150.0,8.0,0.0
4190,54.0,7.0,60.0,7.0,0.0
4191,42.0,41.0,60.0,8.0,0.0
4192,52.0,7.0,60.0,7.0,0.0
4193,40.0,24.0,60.0,8.0,0.0
4194,66.0,0.0,30.0,0.0,0.0
4195,70.0,1.0,30.0,0.0,0.0
4196,54.0,1.0,30.0,7.0,0.0
4197,82.0,5.0,30.0,4.0,0.0
4198,78.0,1.0,30.0,5.0,0.0
4199,42.0,25.0,30.0,8.0,0.0
4200,52.0,7.0,30.0,7.0,0.0
4201,40.0,25.0,30.0,8.0,0.0
4202,54.0,7.0,30.0,7.0,0.0
4203,42.0,24.0,30.0,8.0,0.0
4204,66.0,1.0,30.0,0.0,0.0
4205,70.0,0.0,30.0,0.0,0.0
4206,52.0,1.0,30.0,7.0,0.0
4207,82.0,5.0,30.0,4.0,0.0
4208,78.0,1.0,30.0,5.0,0.0
4209,40.0,25.0,30.0,8.0,0.0
4210,54.0,7.0,30.0,7.0,0.0
4211,42.0,25.0,30.0,8.0,0.0
4212,52.0,7.0,30.0,7.0,0.0
4213,40.0,24.0,30.0,8.0,0.0
4214,66.0,2.0,30.0,0.0,0.0
4215,70.0,0.0,30.0,0.0,0.0
4216,51.0,7.0,60.0,7.0,0.0
4217,82.0,5.0,30.0,4.0,0.0
4218,78.0,10.0,30.0,5.0,0.0
4219,39.0,39.0,60.0,8.0,0.0
4220,49.0,7.0,60.0,7.0,0.0
4221,37.0,90.0,60.0,8.0,0.0
4222,70.0,18.0,330.0,6.0,0.0
4223,66.0,0.0,90.0,0.0,0.0
4224,70.0,2.0,90.0,0.0,0.0
4225,50.0,7.0,150.0,7.0,0.0
4226,82.0,5.0,90.0,4.0,0.0
4227,78.0,58.0,90.0,5.0,0.0
4228,38.0,24.0,150.0,8.0,0.0
4229,68.0,0.0,90.0,0.0,0.0
4230,65.0,5.0,90.0,0.0,0.0
4231,80.0,0.0,90.0,4.0,0.0
4232,77.0,29.0,90.0,5.0,0.0
4233,66.0,0.0,90.0,0.0,0.0
4234,63.0,3.0,90.0,0.0,0.0
4235,53.0,7.0,60.0,7.0,0.0
4236,78.0,5.0,30.0,4.0,0.0
4237,75.0,10.0,30.0,5.0,0.0
4238,41.0,38.0,60.0,8.0,0.0
4239,51.0,7.0,60.0,7.0,0.0
4240,39.0,24.0,60.0,8.0,0.0
4241,66.0,0.0,30.0,0.0,0.0
4242,63.0,1.0,30.0,0.0,0.0
4243,53.0,1.0,30.0,7.0,0.0
4244,78.0,5.0,30.0,4.0,0.0
4245,75.0,1.0,30.0,5.0,0.0
4246,41.0,7.0,30.0,8.0,0.0
4247,51.0,7.0,30.0,7.0,0.0
4248,39.0,25.0,30.0,8.0,0.0
4249,53.0,7.0,30.0,7.0,0.0
4250,41.0,24.0,30.0,8.0,0.0
4251,66.0,1.0,30.0,0.0,0.0
4252,63.0,0.0,30.0,0.0,0.0
4253,51.0,1.0,30.0,7.0,0.0
4254,78.0,5.0,30.0,4.0,0.0
4255,75.0,1.0,30.0,5.0,0.0
4256,39.0,25.0,30.0,8.0,0.0
4257,53.0,7.0,30.0,7.0,0.0
4258,41.0,25.0,30.0,8.0,0.0
4259,51.0,7.0,30.0,7.0,0.0
4260,39.0,24.0,30.0,8.0,0.0
4261,63.0,0.0,30.0,0.0,0.0
4262,66.0,2.0,30.0,0.0,0.0
4263,49.0,7.0,60.0,7.0,0.0
4264,78.0,5.0,30.0,4.0,0.0
4265,75.0,10.0,30.0,5.0,0.0
4266,37.0,39.0,60.0,8.0,0.0
4267,47.0,7.0,60.0,7.0,0.0
4268,35.0,90.0,60.0,8.0,0.0
4269,66.0,18.0,330.0,6.0,0.0
4270,63.0,0.0,90.0,0.0,0.0
4271,66.0,2.0,90.0,0.0,0.0
4272,46.0,7.0,150.0,7.0,0.0
4273,78.0,5.0,90.0,4.0,0.0
4274,75.0,58.0,90.0,5.0,0.0
4275,34.0,24.0,150.0,8.0,0.0
4276,64.0,0.0,90.0,0.0,0.0
4277,61.0,0.0,90.0,0.0,0.0
4278,76.0,5.0,90.0,4.0,0.0
4279,73.0,29.0,90.0,5.0,0.0
4280,59.0,0.0,90.0,0.0,0.0
4281,63.0,3.0,90.0,0.0,0.0
4282,61.0,7.0,60.0,7.0,0.0
4283,75.0,5.0,30.0,4.0,0.0
4284,71.0,10.0,30.0,5.0,0.0
4285,49.0,38.0,60.0,8.0,0.0
4286,59.0,7.0,60.0,7.0,0.0
4287,47.0,24.0,60.0,8.0,0.0
4288,71.0,0.0,30.0,0.0,0.0
4289,75.0,1.0,30.0,0.0,0.0
4290,61.0,1.0,30.0,7.0,0.0
4291,75.0,5.0,30.0,4.0,0.0
4292,71.0,1.0,30.0,5.0,0.0
4293,49.0,7.0,30.0,8.0,0.0
4294,59.0,7.0,30.0,7.0,0.0
4295,47.0,25.0,30.0,8.0,0.0
4296,61.0,7.0,30.0,7.0,0.0
4297,49.0,24.0,30.0,8.0,0.0
4298,75.0,0.0,30.0,0.0,0.0
4299,71.0,1.0,30.0,0.0,0.0
4300,59.0,1.0,30.0,7.0,0.0
4301,75.0,5.0,30.0,4.0,0.0
4302,71.0,1.0,30.0,5.0,0.0
4303,47.0,25.0,30.0,8.0,0.0
4304,61.0,7.0,30.0,7.0,0.0
4305,49.0,25.0,30.0,8.0,0.0
4306,59.0,7.0,30.0,7.0,0.0
4307,47.0,24.0,30.0,8.0,0.0
4308,75.0,2.0,30.0,0.0,0.0
4309,71.0,0.0,30.0,0.0,0.0
4310,58.0,7.0,60.0,7.0,0.0
4311,75.0,5.0,30.0,4.0,0.0
4312,71.0,10.0,30.0,5.0,0.0
4313,46.0,39.0,60.0,8.0,0.0
4314,56.0,7.0,60.0,7.0,0.0
4315,44.0,90.0,60.0,8.0,0.0
4316,63.0,31.0,270.0,6.0,0.0
4317,75.0,0.0,90.0,0.0,0.0
4318,71.0,2.0,90.0,0.0,0.0
4319,55.0,4.0,180.0,7.0,0.0
4320,75.0,5.0,90.0,4.0,0.0
4321,71.0,89.0,90.0,5.0,0.0
4322,43.0,26.0,180.0,8.0,0.0
4323,70.0,0.0,90.0,0.0,0.0
4324,73.0,1.0,90.0,0.0,0.0
4325,73.0,0.0,90.0,4.0,0.0
4326,70.0,3.0,90.0,5.0,0.0
4327,71.0,0.0,90.0,0.0,0.0
4328,68.0,1.0,90.0,0.0,0.0
4329,56.0,7.0,90.0,7.0,0.0
4330,71.0,5.0,30.0,4.0,0.0
4331,68.0,24.0,30.0,5.0,0.0
4332,44.0,27.0,90.0,8.0,0.0
4333,63.0,1.0,90.0,6.0,0.0
4334,75.0,35.0,90.0,0.0,0.0
4335,71.0,0.0,90.0,0.0,0.0
4336,54.0,1.0,30.0,7.0,0.0
4337,71.0,5.0,30.0,4.0,0.0
4338,68.0,1.0,30.0,5.0,0.0
4339,42.0,53.0,30.0,8.0,0.0
4340,68.0,1.0,90.0,6.0,0.0
4341,71.0,35.0,90.0,0.0,0.0
4342,80.0,0.0,90.0,0.0,0.0
4343,53.0,1.0,30.0,7.0,0.0
4344,71.0,5.0,30.0,4.0,0.0
4345,68.0,1.0,30.0,5.0,0.0
4346,41.0,53.0,30.0,8.0,0.0
4347,66.0,1.0,90.0,6.0,0.0
4348,71.0,50.0,90.0,0.0,0.0
4349,78.0,0.0,90.0,0.0,0.0
4350,51.0,1.0,30.0,7.0,0.0
4351,71.0,5.0,30.0,4.0,0.0
4352,68.0,1.0,30.0,5.0,0.0
4353,39.0,53.0,30.0,8.0,0.0
4354,65.0,2.0,90.0,6.0,0.0
4355,71.0,0.0,390.0,0.0,0.0
4356,77.0,0.0,390.0,0.0,0.0
4357,49.0,1.0,90.0,7.0,0.0
4358,71.0,5.0,60.0,4.0,0.0
4359,61.0,41.0,330.0,1.0,0.0
4360,68.0,40.0,60.0,5.0,0.0
4361,37.0,42.0,90.0,8.0,0.0
4362,70.0,5.0,60.0,4.0,0.0
4363,66.0,1.0,60.0,5.0,0.0
4364,59.0,2.0,90.0,6.0,0.0
4365,49.0,1.0,90.0,7.0,0.0
4366,68.0,5.0,60.0,4.0,0.0
4367,65.0,40.0,60.0,5.0,0.0
4368,37.0,42.0,90.0,8.0,0.0
4369,70.0,5.0,60.0,4.0,0.0
4370,66.0,1.0,60.0,5.0,0.0
4371,56.0,2.0,90.0,6.0,0.0
4372,49.0,1.0,90.0,7.0,0.0
4373,71.0,45.0,60.0,4.0,0.0
4374,65.0,1.0,90.0,5.0,0.0
4375,37.0,42.0,90.0,8.0,0.0
4376,73.0,5.0,60.0,4.0,0.0
4377,68.0,2.0,90.0,6.0,0.0
4378,49.0,1.0,90.0,7.0,0.0
4379,75.0,4.0,60.0,4.0,0.0
4380,71.0,1.0,90.0,5.0,0.0
4381,37.0,87.0,90.0,8.0,0.0
4382,77.0,5.0,60.0,4.0,0.0
4383,66.0,2.0,90.0,6.0,0.0
4384,70.0,8.0,150.0,0.0,0.0
4385,78.0,0.0,150.0,0.0,0.0
4386,51.0,1.0,90.0,7.0,0.0
4387,78.0,2.0,90.0,4.0,0.0
4388,63.0,3.0,90.0,1.0,0.0
4389,54.0,0.0,360.0,1.0,0.0
4390,70.0,1.0,90.0,5.0,0.0
4391,39.0,58.0,90.0,8.0,0.0
4392,66.0,2.0,90.0,6.0,0.0
4393,46.0,3.0,90.0,7.0,0.0
4394,73.0,5.0,60.0,4.0,0.0
4395,61.0,0.0,90.0,1.0,0.0
4396,73.0,16.0,60.0,5.0,0.0
4397,34.0,1.0,90.0,8.0,0.0
4398,77.0,4.0,20.0,4.0,0.0
4399,73.0,86.0,20.0,5.0,0.0
4400,66.0,2.0,90.0,6.0,0.0
4401,47.0,3.0,90.0,7.0,0.0
4402,75.0,4.0,90.0,4.0,0.0
4403,63.0,25.0,150.0,1.0,0.0
4404,71.0,43.0,90.0,5.0,0.0
4405,35.0,1.0,90.0,8.0,0.0
4406,63.0,1.0,90.0,6.0,0.0
4407,71.0,1.0,90.0,0.0,0.0
4408,68.0,0.0,90.0,0.0,0.0
4409,47.0,1.0,90.0,7.0,0.0
4410,73.0,5.0,60.0,4.0,0.0
4411,70.0,13.0,60.0,5.0,0.0
4412,35.0,87.0,90.0,8.0,0.0
4413,71.0,5.0,60.0,4.0,0.0
4414,68.0,1.0,60.0,5.0,0.0
4415,61.0,2.0,90.0,6.0,0.0
4416,66.0,0.0,150.0,0.0,0.0
4417,70.0,2.0,150.0,0.0,0.0
4418,49.0,7.0,90.0,7.0,0.0
4419,70.0,2.0,150.0,4.0,0.0
4420,61.0,3.0,150.0,1.0,0.0
4421,66.0,22.0,150.0,5.0,0.0
4422,37.0,58.0,90.0,8.0,0.0
4423,61.0,2.0,90.0,6.0,0.0
4424,49.0,7.0,90.0,7.0,0.0
4425,37.0,28.0,90.0,8.0,0.0
4426,61.0,2.0,90.0,6.0,0.0
4427,68.0,4.0,150.0,0.0,0.0
4428,65.0,0.0,150.0,0.0,0.0
4429,37.0,3.0,90.0,7.0,0.0
4430,70.0,32.0,30.0,4.0,0.0
4431,61.0,3.0,150.0,1.0,0.0
4432,65.0,22.0,150.0,5.0,0.0
4433,59.0,0.0,150.0,5.0,0.0
4434,25.0,44.0,90.0,8.0,0.0
4435,68.0,27.0,30.0,4.0,0.0
4436,70.0,4.0,30.0,4.0,0.0
4437,61.0,2.0,90.0,6.0,0.0
4438,37.0,1.0,90.0,7.0,0.0
4439,66.0,14.0,60.0,4.0,0.0
4440,25.0,153.0,90.0,8.0,0.0
4441,68.0,6.0,60.0,4.0,0.0
4442,61.0,1.0,150.0,6.0,0.0
4443,66.0,1.0,150.0,0.0,0.0
4444,42.0,1.0,150.0,7.0,0.0
4445,66.0,2.0,150.0,4.0,0.0
4446,54.0,3.0,150.0,1.0,0.0
4447,61.0,0.0,150.0,1.0,0.0
4448,58.0,1.0,150.0,5.0,0.0
4449,66.0,0.0,150.0,5.0,0.0
4450,30.0,70.0,150.0,8.0,0.0
4451,80.0,48.0,60.0,2.0,0.0
4452,78.0,32.0,60.0,2.0,0.0
4453,80.0,32.0,30.0,2.0,0.0
4454,66.0,26.0,90.0,3.0,0.0
4455,70.0,0.0,90.0,3.0,0.0
4456,78.0,32.0,30.0,2.0,0.0
4457,80.0,6.0,30.0,2.0,0.0
4458,78.0,32.0,30.0,2.0,0.0
4459,66.0,42.0,90.0,3.0,0.0
4460,70.0,0.0,90.0,3.0,0.0
4461,80.0,32.0,30.0,2.0,0.0
4462,78.0,6.0,30.0,2.0,0.0
4463,77.0,46.0,60.0,2.0,0.0
4464,66.0,98.0,90.0,3.0,0.0
4465,70.0,0.0,90.0,3.0,0.0
4466,75.0,8.0,60.0,2.0,0.0
4467,74.0,38.0,150.0,2.0,0.0
4468,70.0,0.0,90.0,3.0,0.0
4469,66.0,56.0,90.0,3.0,0.0
4470,65.0,42.0,90.0,3.0,0.0
4471,68.0,0.0,90.0,3.0,0.0
4472,76.0,48.0,60.0,2.0,0.0
4473,63.0,26.0,90.0,3.0,0.0
4474,66.0,0.0,90.0,3.0,0.0
4475,75.0,6.0,60.0,2.0,0.0
4476,76.0,32.0,30.0,2.0,0.0
4477,63.0,0.0,90.0,3.0,0.0
4478,66.0,26.0,90.0,3.0,0.0
4479,75.0,32.0,30.0,2.0,0.0
4480,76.0,6.0,30.0,2.0,0.0
4481,75.0,32.0,30.0,2.0,0.0
4482,63.0,0.0,90.0,3.0,0.0
4483,66.0,42.0,90.0,3.0,0.0
4484,76.0,32.0,30.0,2.0,0.0
4485,75.0,6.0,30.0,2.0,0.0
4486,73.0,46.0,60.0,2.0,0.0
4487,66.0,0.0,90.0,3.0,0.0
4488,63.0,98.0,90.0,3.0,0.0
4489,71.0,8.0,60.0,2.0,0.0
4490,70.0,38.0,150.0,2.0,0.0
4491,63.0,0.0,90.0,3.0,0.0
4492,66.0,56.0,90.0,3.0,0.0
4493,64.0,42.0,90.0,3.0,0.0
4494,61.0,0.0,90.0,3.0,0.0
4495,73.0,48.0,60.0,2.0,0.0
4496,63.0,0.0,90.0,3.0,0.0
4497,59.0,26.0,90.0,3.0,0.0
4498,71.0,6.0,60.0,2.0,0.0
4499,73.0,32.0,30.0,2.0,0.0
4500,63.0,26.0,90.0,3.0,0.0
4501,59.0,0.0,90.0,3.0,0.0
4502,71.0,32.0,30.0,2.0,0.0
4503,73.0,6.0,30.0,2.0,0.0
4504,71.0,32.0,30.0,2.0,0.0
4505,63.0,42.0,90.0,3.0,0.0
4506,59.0,0.0,90.0,3.0,0.0
4507,73.0,32.0,30.0,2.0,0.0
4508,71.0,6.0,30.0,2.0,0.0
4509,70.0,46.0,60.0,2.0,0.0
4510,63.0,0.0,90.0,3.0,0.0
4511,59.0,98.0,90.0,3.0,0.0
4512,68.0,8.0,60.0,2.0,0.0
4513,67.0,38.0,150.0,2.0,0.0
4514,59.0,56.0,90.0,3.0,0.0
4515,63.0,0.0,90.0,3.0,0.0
4516,58.0,0.0,90.0,3.0,0.0
4517,61.0,90.0,90.0,3.0,0.0
4518,68.0,6.0,90.0,2.0,0.0
4519,56.0,18.0,90.0,3.0,0.0
4520,59.0,0.0,90.0,3.0,0.0
4521,71.0,24.0,20.0,2.0,0.0
4522,54.0,0.0,90.0,3.0,0.0
4523,58.0,90.0,90.0,3.0,0.0
4524,70.0,24.0,20.0,2.0,0.0
4525,68.0,24.0,20.0,2.0,0.0
4526,70.0,6.0,20.0,2.0,0.0
4527,71.0,6.0,90.0,2.0,0.0
4528,56.0,88.0,90.0,3.0,0.0
4529,53.0,0.0,90.0,3.0,0.0
4530,71.0,8.0,90.0,2.0,0.0
4531,54.0,0.0,90.0,3.0,0.0
4532,51.0,42.0,90.0,3.0,0.0
4533,71.0,48.0,60.0,2.0,0.0
4534,49.0,0.0,540.0,3.0,0.0
4535,53.0,0.0,540.0,3.0,0.0
4536,56.0,40.0,540.0,3.0,0.0
4537,61.0,48.0,60.0,2.0,0.0
4538,65.0,48.0,60.0,2.0,0.0
4539,68.0,48.0,60.0,2.0,0.0
4540,71.0,48.0,60.0,2.0,0.0
4541,65.0,48.0,60.0,2.0,0.0
4542,68.0,48.0,60.0,2.0,0.0
4543,71.0,48.0,60.0,2.0,0.0
4544,77.0,48.0,60.0,2.0,0.0
4545,68.0,48.0,60.0,2.0,0.0
4546,71.0,8.0,60.0,2.0,0.0
4547,77.0,48.0,60.0,2.0,0.0
4548,80.0,48.0,60.0,2.0,0.0
4549,71.0,40.0,60.0,2.0,0.0
4550,77.0,48.0,60.0,2.0,0.0
4551,49.0,8.0,30.0,3.0,0.0
4552,80.0,40.0,60.0,2.0,0.0
4553,83.0,48.0,60.0,2.0,0.0
4554,41.0,8.0,30.0,3.0,0.0
4555,82.0,40.0,60.0,2.0,0.0
4556,80.0,48.0,60.0,2.0,0.0
4557,44.0,8.0,30.0,3.0,0.0
4558,78.0,40.0,60.0,2.0,0.0
4559,77.0,48.0,60.0,2.0,0.0
4560,37.0,8.0,30.0,3.0,0.0
4561,75.0,40.0,60.0,2.0,0.0
4562,73.0,48.0,60.0,2.0,0.0
4563,41.0,8.0,30.0,3.0,0.0
4564,71.0,160.0,60.0,2.0,0.0
4565,70.0,8.0,150.0,2.0,0.0
4566,42.0,57.0,150.0,3.0,0.0
4567,66.0,1.0,30.0,6.0,0.0
4568,78.0,1.0,30.0,0.0,0.0
4569,54.0,1.0,30.0,7.0,0.0
4570,66.0,5.0,30.0,4.0,0.0
4571,68.0,3.0,330.0,1.0,0.0
4572,54.0,0.0,330.0,1.0,0.0
4573,66.0,1.0,30.0,5.0,0.0
4574,42.0,23.0,30.0,8.0,0.0
4575,68.0,1.0,30.0,6.0,0.0
4576,80.0,1.0,30.0,0.0,0.0
4577,56.0,1.0,30.0,7.0,0.0
4578,68.0,5.0,30.0,4.0,0.0
4579,68.0,1.0,30.0,5.0,0.0
4580,44.0,23.0,30.0,8.0,0.0
4581,66.0,1.0,30.0,6.0,0.0
4582,78.0,1.0,30.0,0.0,0.0
4583,54.0,1.0,30.0,7.0,0.0
4584,66.0,5.0,30.0,4.0,0.0
4585,66.0,1.0,30.0,5.0,0.0
4586,42.0,23.0,30.0,8.0,0.0
4587,68.0,1.0,30.0,6.0,0.0
4588,80.0,1.0,30.0,0.0,0.0
4589,56.0,1.0,30.0,7.0,0.0
4590,68.0,5.0,30.0,4.0,0.0
4591,68.0,1.0,30.0,5.0,0.0
4592,44.0,23.0,30.0,8.0,0.0
4593,66.0,1.0,30.0,6.0,0.0
4594,78.0,1.0,30.0,0.0,0.0
4595,54.0,1.0,30.0,7.0,0.0
4596,66.0,5.0,30.0,4.0,0.0
4597,66.0,1.0,30.0,5.0,0.0
4598,42.0,23.0,30.0,8.0,0.0
4599,68.0,1.0,30.0,6.0,0.0
4600,80.0,1.0,30.0,0.0,0.0
4601,56.0,1.0,30.0,7.0,0.0
4602,68.0,5.0,30.0,4.0,0.0
4603,68.0,1.0,30.0,5.0,0.0
4604,44.0,23.0,30.0,8.0,0.0
4605,66.0,1.0,30.0,6.0,0.0
4606,78.0,1.0,30.0,0.0,0.0
4607,54.0,1.0,30.0,7.0,0.0
4608,66.0,5.0,30.0,4.0,0.0
4609,66.0,1.0,30.0,5.0,0.0
4610,42.0,23.0,30.0,8.0,0.0
4611,68.0,1.0,30.0,6.0,0.0
4612,80.0,1.0,30.0,0.0,0.0
4613,56.0,1.0,30.0,7.0,0.0
4614,68.0,5.0,30.0,4.0,0.0
4615,68.0,1.0,30.0,5.0,0.0
4616,44.0,23.0,30.0,8.0,0.0
4617,66.0,1.0,30.0,6.0,0.0
4618,78.0,1.0,30.0,0.0,0.0
4619,54.0,1.0,30.0,7.0,0.0
4620,66.0,5.0,30.0,4.0,0.0
4621,66.0,1.0,30.0,5.0,0.0
4622,42.0,39.0,30.0,8.0,0.0
4623,65.0,1.0,60.0,6.0,0.0
4624,77.0,1.0,60.0,0.0,0.0
4625,53.0,1.0,60.0,7.0,0.0
4626,65.0,2.0,60.0,4.0,0.0
4627,65.0,1.0,60.0,5.0,0.0
4628,41.0,37.0,60.0,8.0,0.0
4629,63.0,1.0,60.0,6.0,0.0
4630,75.0,1.0,60.0,0.0,0.0
4631,51.0,1.0,60.0,7.0,0.0
4632,63.0,5.0,60.0,4.0,0.0
4633,63.0,1.0,60.0,5.0,0.0
4634,39.0,153.0,60.0,8.0,0.0
4635,61.0,1.0,150.0,6.0,0.0
4636,73.0,1.0,150.0,0.0,0.0
4637,49.0,1.0,150.0,7.0,0.0
4638,61.0,2.0,150.0,4.0,0.0
4639,61.0,3.0,150.0,1.0,0.0
4640,61.0,1.0,150.0,5.0,0.0
4641,37.0,55.0,150.0,8.0,0.0
4642,59.0,1.0,30.0,6.0,0.0
4643,71.0,1.0,30.0,0.0,0.0
4644,47.0,1.0,30.0,7.0,0.0
4645,59.0,5.0,30.0,4.0,0.0
4646,59.0,3.0,330.0,1.0,0.0
4647,47.0,0.0,330.0,1.0,0.0
4648,59.0,1.0,30.0,5.0,0.0
4649,35.0,23.0,30.0,8.0,0.0
4650,61.0,1.0,30.0,6.0,0.0
4651,73.0,1.0,30.0,0.0,0.0
4652,49.0,1.0,30.0,7.0,0.0
4653,61.0,5.0,30.0,4.0,0.0
4654,61.0,1.0,30.0,5.0,0.0
4655,37.0,23.0,30.0,8.0,0.0
4656,59.0,1.0,30.0,6.0,0.0
4657,71.0,1.0,30.0,0.0,0.0
4658,47.0,1.0,30.0,7.0,0.0
4659,59.0,5.0,30.0,4.0,0.0
4660,59.0,1.0,30.0,5.0,0.0
4661,35.0,23.0,30.0,8.0,0.0
4662,61.0,1.0,30.0,6.0,0.0
4663,73.0,1.0,30.0,0.0,0.0
4664,49.0,1.0,30.0,7.0,0.0
4665,61.0,5.0,30.0,4.0,0.0
4666,61.0,1.0,30.0,5.0,0.0
4667,37.0,23.0,30.0,8.0,0.0
4668,59.0,1.0,30.0,6.0,0.0
4669,71.0,1.0,30.0,0.0,0.0
4670,47.0,1.0,30.0,7.0,0.0
4671,59.0,5.0,30.0,4.0,0.0
4672,59.0,1.0,30.0,5.0,0.0
4673,35.0,23.0,30.0,8.0,0.0
4674,61.0,1.0,30.0,6.0,0.0
4675,73.0,1.0,30.0,0.0,0.0
4676,49.0,1.0,30.0,7.0,0.0
4677,61.0,5.0,30.0,4.0,0.0
4678,61.0,1.0,30.0,5.0,0.0
4679,37.0,23.0,30.0,8.0,0.0
4680,59.0,1.0,30.0,6.0,0.0
4681,71.0,1.0,30.0,0.0,0.0
4682,47.0,1.0,30.0,7.0,0.0
4683,59.0,5.0,30.0,4.0,0.0
4684,59.0,1.0,30.0,5.0,0.0
4685,35.0,23.0,30.0,8.0,0.0
4686,61.0,1.0,30.0,6.0,0.0
4687,73.0,1.0,30.0,0.0,0.0
4688,49.0,1.0,30.0,7.0,0.0
4689,61.0,5.0,30.0,4.0,0.0
4690,61.0,1.0,30.0,5.0,0.0
4691,37.0,23.0,30.0,8.0,0.0
4692,59.0,1.0,30.0,6.0,0.0
4693,71.0,1.0,30.0,0.0,0.0
4694,47.0,1.0,30.0,7.0,0.0
4695,59.0,5.0,30.0,4.0,0.0
4696,59.0,1.0,30.0,5.0,0.0
4697,35.0,39.0,30.0,8.0,0.0
4698,58.0,1.0,60.0,6.0,0.0
4699,70.0,1.0,60.0,0.0,0.0
4700,46.0,1.0,60.0,7.0,0.0
4701,58.0,2.0,60.0,4.0,0.0
4702,58.0,1.0,60.0,5.0,0.0
4703,34.0,37.0,60.0,8.0,0.0
4704,56.0,1.0,60.0,6.0,0.0
4705,68.0,1.0,60.0,0.0,0.0
4706,44.0,1.0,60.0,7.0,0.0
4707,56.0,5.0,60.0,4.0,0.0
4708,56.0,1.0,60.0,5.0,0.0
4709,32.0,96.0,60.0,8.0,0.0
4710,54.0,1.0,150.0,6.0,0.0
4711,66.0,1.0,150.0,0.0,0.0
4712,42.0,1.0,150.0,7.0,0.0
4713,54.0,2.0,150.0,4.0,0.0
4714,42.0,3.0,150.0,1.0,0.0
4715,54.0,0.0,150.0,1.0,0.0
4716,54.0,1.0,150.0,5.0,0.0
4717,30.0,30.0,150.0,8.0,0.0
4718,42.0,48.0,60.0,3.0,0.0
4719,45.0,9.0,60.0,3.0,0.0
4720,49.0,88.0,60.0,3.0,0.0
4721,54.0,40.0,90.0,3.0,0.0
4722,57.0,8.0,60.0,2.0,0.0
4723,61.0,48.0,60.0,2.0,0.0
4724,66.0,96.0,60.0,2.0,0.0
4725,69.0,8.0,90.0,2.0,0.0
4726,54.0,48.0,60.0,3.0,0.0
4727,57.0,48.0,60.0,3.0,0.0
4728,61.0,88.0,60.0,3.0,0.0
4729,66.0,40.0,90.0,3.0,0.0
4730,69.0,8.0,60.0,2.0,0.0
4731,73.0,48.0,60.0,2.0,0.0
4732,78.0,48.0,60.0,2.0,0.0
4733,81.0,48.0,60.0,2.0,0.0
4734,80.0,40.0,60.0,2.0,0.0
4735,78.0,48.0,60.0,2.0,0.0
4736,54.0,8.0,30.0,3.0,0.0
4737,76.0,40.0,60.0,2.0,0.0
4738,75.0,48.0,60.0,2.0,0.0
4739,59.0,8.0,30.0,3.0,0.0
4740,73.0,40.0,60.0,2.0,0.0
4741,72.0,48.0,60.0,2.0,0.0
4742,54.0,8.0,30.0,3.0,0.0
4743,73.0,192.0,60.0,2.0,0.0
4744,72.0,8.0,180.0,2.0,0.0
4745,56.0,25.0,180.0,3.0,0.0
4746,68.0,1.0,30.0,6.0,0.0
4747,80.0,1.0,30.0,0.0,0.0
4748,56.0,1.0,30.0,7.0,0.0
4749,68.0,5.0,30.0,4.0,0.0
4750,68.0,1.0,30.0,5.0,0.0
4751,44.0,23.0,30.0,8.0,0.0
4752,69.0,1.0,30.0,6.0,0.0
4753,81.0,1.0,30.0,0.0,0.0
4754,57.0,1.0,30.0,7.0,0.0
4755,69.0,5.0,30.0,4.0,0.0
4756,69.0,1.0,30.0,5.0,0.0
4757,45.0,23.0,30.0,8.0,0.0
4758,68.0,1.0,30.0,6.0,0.0
4759,80.0,1.0,30.0,0.0,0.0
4760,56.0,1.0,30.0,7.0,0.0
4761,68.0,5.0,30.0,4.0,0.0
4762,68.0,1.0,30.0,5.0,0.0
4763,44.0,23.0,30.0,8.0,0.0
4764,69.0,1.0,30.0,6.0,0.0
4765,81.0,1.0,30.0,0.0,0.0
4766,57.0,1.0,30.0,7.0,0.0
4767,69.0,5.0,30.0,4.0,0.0
4768,69.0,1.0,30.0,5.0,0.0
4769,45.0,23.0,30.0,8.0,0.0
4770,68.0,1.0,30.0,6.0,0.0
4771,80.0,1.0,30.0,0.0,0.0
4772,56.0,1.0,30.0,7.0,0.0
4773,68.0,5.0,30.0,4.0,0.0
4774,68.0,1.0,30.0,5.0,0.0
4775,44.0,23.0,30.0,8.0,0.0
4776,69.0,1.0,30.0,6.0,0.0
4777,81.0,1.0,30.0,0.0,0.0
4778,57.0,1.0,30.0,7.0,0.0
4779,69.0,5.0,30.0,4.0,0.0
4780,69.0,1.0,30.0,5.0,0.0
4781,45.0,23.0,30.0,8.0,0.0
4782,68.0,1.0,30.0,6.0,0.0
4783,80.0,1.0,30.0,0.0,0.0
4784,56.0,1.0,30.0,7.0,0.0
4785,68.0,5.0,30.0,4.0,0.0
4786,68.0,1.0,30.0,5.0,0.0
4787,44.0,23.0,30.0,8.0,0.0
4788,69.0,1.0,30.0,6.0,0.0
4789,81.0,1.0,30.0,0.0,0.0
4790,57.0,1.0,30.0,7.0,0.0
4791,69.0,5.0,30.0,4.0,0.0
4792,69.0,1.0,30.0,5.0,0.0
4793,45.0,23.0,30.0,8.0,0.0
4794,68.0,1.0,30.0,6.0,0.0
4795,80.0,1.0,30.0,0.0,0.0
4796,56.0,1.0,30.0,7.0,0.0
4797,68.0,5.0,30.0,4.0,0.0
4798,68.0,1.0,30.0,5.0,0.0
4799,44.0,39.0,30.0,8.0,0.0
4800,66.0,1.0,60.0,6.0,0.0
4801,78.0,1.0,60.0,0.0,0.0
4802,54.0,1.0,60.0,7.0,0.0
4803,66.0,5.0,60.0,4.0,0.0
4804,66.0,1.0,60.0,5.0,0.0
4805,42.0,37.0,60.0,8.0,0.0
4806,64.0,1.0,60.0,6.0,0.0
4807,76.0,1.0,60.0,0.0,0.0
4808,52.0,1.0,60.0,7.0,0.0
4809,64.0,5.0,60.0,4.0,0.0
4810,64.0,1.0,60.0,5.0,0.0
4811,40.0,153.0,60.0,8.0,0.0
4812,63.0,1.0,150.0,6.0,0.0
4813,75.0,1.0,150.0,0.0,0.0
4814,51.0,1.0,150.0,7.0,0.0
4815,63.0,5.0,150.0,4.0,0.0
4816,63.0,1.0,150.0,5.0,0.0
4817,39.0,55.0,150.0,8.0,0.0
4818,61.0,1.0,30.0,6.0,0.0
4819,73.0,1.0,30.0,0.0,0.0
4820,49.0,1.0,30.0,7.0,0.0
4821,61.0,5.0,30.0,4.0,0.0
4822,61.0,1.0,30.0,5.0,0.0
4823,37.0,23.0,30.0,8.0,0.0
4824,63.0,1.0,30.0,6.0,0.0
4825,75.0,1.0,30.0,0.0,0.0
4826,51.0,1.0,30.0,7.0,0.0
4827,63.0,5.0,30.0,4.0,0.0
4828,63.0,1.0,30.0,5.0,0.0
4829,39.0,23.0,30.0,8.0,0.0
4830,61.0,1.0,30.0,6.0,0.0
4831,73.0,1.0,30.0,0.0,0.0
4832,49.0,1.0,30.0,7.0,0.0
4833,61.0,5.0,30.0,4.0,0.0
4834,61.0,1.0,30.0,5.0,0.0
4835,37.0,23.0,30.0,8.0,0.0
4836,63.0,1.0,30.0,6.0,0.0
4837,75.0,1.0,30.0,0.0,0.0
4838,51.0,1.0,30.0,7.0,0.0
4839,63.0,5.0,30.0,4.0,0.0
4840,63.0,1.0,30.0,5.0,0.0
4841,39.0,23.0,30.0,8.0,0.0
4842,61.0,1.0,30.0,6.0,0.0
4843,73.0,1.0,30.0,0.0,0.0
4844,49.0,1.0,30.0,7.0,0.0
4845,61.0,5.0,30.0,4.0,0.0
4846,61.0,1.0,30.0,5.0,0.0
4847,37.0,23.0,30.0,8.0,0.0
4848,63.0,1.0,30.0,6.0,0.0
4849,75.0,1.0,30.0,0.0,0.0
4850,51.0,1.0,30.0,7.0,0.0
4851,63.0,5.0,30.0,4.0,0.0
4852,63.0,1.0,30.0,5.0,0.0
4853,39.0,23.0,30.0,8.0,0.0
4854,61.0,1.0,30.0,6.0,0.0
4855,73.0,1.0,30.0,0.0,0.0
4856,49.0,1.0,30.0,7.0,0.0
4857,61.0,5.0,30.0,4.0,0.0
4858,61.0,1.0,30.0,5.0,0.0
4859,37.0,23.0,30.0,8.0,0.0
4860,63.0,1.0,30.0,6.0,0.0
4861,75.0,1.0,30.0,0.0,0.0
4862,51.0,1.0,30.0,7.0,0.0
4863,63.0,5.0,30.0,4.0,0.0
4864,63.0,1.0,30.0,5.0,0.0
4865,39.0,23.0,30.0,8.0,0.0
4866,61.0,1.0,30.0,6.0,0.0
4867,73.0,1.0,30.0,0.0,0.0
4868,49.0,1.0,30.0,7.0,0.0
4869,61.0,5.0,30.0,4.0,0.0
4870,61.0,1.0,30.0,5.0,0.0
4871,37.0,39.0,30.0,8.0,0.0
4872,60.0,1.0,60.0,6.0,0.0
4873,72.0,1.0,60.0,0.0,0.0
4874,48.0,1.0,60.0,7.0,0.0
4875,60.0,5.0,60.0,4.0,0.0
4876,60.0,1.0,60.0,5.0,0.0
4877,36.0,37.0,60.0,8.0,0.0
4878,58.0,1.0,60.0,6.0,0.0
4879,70.0,1.0,60.0,0.0,0.0
4880,46.0,1.0,60.0,7.0,0.0
4881,58.0,5.0,60.0,4.0,0.0
4882,58.0,1.0,60.0,5.0,0.0
4883,34.0,96.0,60.0,8.0,0.0
4884,56.0,1.0,150.0,6.0,0.0
4885,68.0,1.0,150.0,0.0,0.0
4886,44.0,1.0,150.0,7.0,0.0
4887,56.0,5.0,150.0,4.0,0.0
4888,56.0,1.0,150.0,5.0,0.0
4889,32.0,30.0,150.0,8.0,0.0
4890,32.0,48.0,60.0,3.0,0.0
4891,36.0,9.0,60.0,3.0,0.0
4892,39.0,88.0,60.0,3.0,0.0
4893,44.0,40.0,90.0,3.0,0.0
4894,51.0,8.0,60.0,2.0,0.0
4895,56.0,48.0,60.0,2.0,0.0
4896,60.0,96.0,60.0,2.0,0.0
4897,63.0,8.0,90.0,2.0,0.0
4898,44.0,48.0,60.0,3.0,0.0
4899,48.0,48.0,60.0,3.0,0.0
4900,51.0,88.0,60.0,3.0,0.0
4901,56.0,40.0,180.0,3.0,0.0
4902,66.0,48.0,60.0,2.0,0.0
4903,72.0,48.0,60.0,2.0,0.0
4904,75.0,8.0,60.0,2.0,0.0
4905,78.0,48.0,60.0,2.0,0.0
4906,76.0,40.0,60.0,2.0,0.0
4907,75.0,48.0,60.0,2.0,0.0
4908,44.0,8.0,30.0,3.0,0.0
4909,73.0,40.0,60.0,2.0,0.0
4910,72.0,48.0,60.0,2.0,0.0
4911,51.0,8.0,30.0,3.0,0.0
4912,69.0,40.0,60.0,2.0,0.0
4913,68.0,48.0,60.0,2.0,0.0
4914,48.0,8.0,30.0,3.0,0.0
4915,66.0,192.0,60.0,2.0,0.0
4916,64.0,8.0,180.0,2.0,0.0
4917,49.0,25.0,180.0,3.0,0.0
4918,73.0,1.0,30.0,6.0,0.0
4919,73.0,1.0,30.0,0.0,0.0
4920,61.0,1.0,30.0,7.0,0.0
4921,73.0,5.0,30.0,4.0,0.0
4922,73.0,1.0,30.0,5.0,0.0
4923,49.0,23.0,30.0,8.0,0.0
4924,75.0,1.0,30.0,6.0,0.0
4925,75.0,1.0,30.0,0.0,0.0
4926,63.0,1.0,30.0,7.0,0.0
4927,75.0,5.0,30.0,4.0,0.0
4928,75.0,1.0,30.0,5.0,0.0
4929,51.0,23.0,30.0,8.0,0.0
4930,73.0,1.0,30.0,6.0,0.0
4931,73.0,1.0,30.0,0.0,0.0
4932,61.0,1.0,30.0,7.0,0.0
4933,73.0,5.0,30.0,4.0,0.0
4934,73.0,1.0,30.0,5.0,0.0
4935,49.0,23.0,30.0,8.0,0.0
4936,75.0,1.0,30.0,6.0,0.0
4937,75.0,1.0,30.0,0.0,0.0
4938,63.0,1.0,30.0,7.0,0.0
4939,75.0,5.0,30.0,4.0,0.0
4940,75.0,1.0,30.0,5.0,0.0
4941,51.0,23.0,30.0,8.0,0.0
4942,73.0,1.0,30.0,6.0,0.0
4943,73.0,1.0,30.0,0.0,0.0
4944,61.0,1.0,30.0,7.0,0.0
4945,73.0,5.0,30.0,4.0,0.0
4946,73.0,1.0,30.0,5.0,0.0
4947,49.0,23.0,30.0,8.0,0.0
4948,75.0,1.0,30.0,6.0,0.0
4949,75.0,1.0,30.0,0.0,0.0
4950,63.0,1.0,30.0,7.0,0.0
4951,75.0,5.0,30.0,4.0,0.0
4952,75.0,1.0,30.0,5.0,0.0
4953,51.0,23.0,30.0,8.0,0.0
4954,73.0,1.0,30.0,6.0,0.0
4955,73.0,1.0,30.0,0.0,0.0
4956,61.0,1.0,30.0,7.0,0.0
4957,73.0,5.0,30.0,4.0,0.0
4958,73.0,1.0,30.0,5.0,0.0
4959,49.0,23.0,30.0,8.0,0.0
4960,75.0,1.0,30.0,6.0,0.0
4961,75.0,1.0,30.0,0.0,0.0
4962,63.0,1.0,30.0,7.0,0.0
4963,75.0,5.0,30.0,4.0,0.0
4964,75.0,1.0,30.0,5.0,0.0
4965,51.0,23.0,30.0,8.0,0.0
4966,73.0,1.0,30.0,6.0,0.0
4967,73.0,1.0,30.0,0.0,0.0
4968,61.0,1.0,30.0,7.0,0.0
4969,73.0,5.0,30.0,4.0,0.0
4970,73.0,1.0,30.0,5.0,0.0
4971,49.0,39.0,30.0,8.0,0.0
4972,71.0,1.0,60.0,6.0,0.0
4973,71.0,1.0,60.0,0.0,0.0
4974,59.0,1.0,60.0,7.0,0.0
4975,71.0,5.0,60.0,4.0,0.0
4976,71.0,1.0,60.0,5.0,0.0
4977,47.0,37.0,60.0,8.0,0.0
4978,69.0,1.0,60.0,6.0,0.0
4979,69.0,1.0,60.0,0.0,0.0
4980,57.0,1.0,60.0,7.0,0.0
4981,69.0,5.0,60.0,4.0,0.0
4982,69.0,1.0,60.0,5.0,0.0
4983,45.0,153.0,60.0,8.0,0.0
4984,68.0,1.0,150.0,6.0,0.0
4985,68.0,1.0,150.0,0.0,0.0
4986,56.0,1.0,150.0,7.0,0.0
4987,68.0,5.0,150.0,4.0,0.0
4988,68.0,1.0,150.0,5.0,0.0
4989,44.0,55.0,150.0,8.0,0.0
4990,66.0,1.0,30.0,6.0,0.0
4991,78.0,1.0,30.0,0.0,0.0
4992,54.0,1.0,30.0,7.0,0.0
4993,66.0,5.0,30.0,4.0,0.0
4994,66.0,1.0,30.0,5.0,0.0
4995,42.0,23.0,30.0,8.0,0.0
4996,68.0,1.0,30.0,6.0,0.0
4997,80.0,1.0,30.0,0.0,0.0
4998,56.0,1.0,30.0,7.0,0.0
4999,68.0,5.0,30.0,4.0,0.0
5000,68.0,1.0,30.0,5.0,0.0
5001,44.0,23.0,30.0,8.0,0.0
5002,66.0,1.0,30.0,6.0,0.0
5003,78.0,1.0,30.0,0.0,0.0
5004,54.0,1.0,30.0,7.0,0.0
5005,66.0,5.0,30.0,4.0,0.0
5006,66.0,1.0,30.0,5.0,0.0
5007,42.0,23.0,30.0,8.0,0.0
5008,68.0,1.0,30.0,6.0,0.0
5009,80.0,1.0,30.0,0.0,0.0
5010,56.0,1.0,30.0,7.0,0.0
5011,68.0,5.0,30.0,4.0,0.0
5012,68.0,1.0,30.0,5.0,0.0
5013,44.0,23.0,30.0,8.0,0.0
5014,66.0,1.0,30.0,6.0,0.0
5015,78.0,1.0,30.0,0.0,0.0
5016,54.0,1.0,30.0,7.0,0.0
5017,66.0,5.0,30.0,4.0,0.0
5018,66.0,1.0,30.0,5.0,0.0
5019,42.0,23.0,30.0,8.0,0.0
5020,68.0,1.0,30.0,6.0,0.0
5021,80.0,1.0,30.0,0.0,0.0
5022,56.0,1.0,30.0,7.0,0.0
5023,68.0,5.0,30.0,4.0,0.0
5024,68.0,1.0,30.0,5.0,0.0
5025,44.0,23.0,30.0,8.0,0.0
5026,66.0,1.0,30.0,6.0,0.0
5027,78.0,1.0,30.0,0.0,0.0
5028,54.0,1.0,30.0,7.0,0.0
5029,66.0,5.0,30.0,4.0,0.0
5030,66.0,1.0,30.0,5.0,0.0
5031,42.0,23.0,30.0,8.0,0.0
5032,68.0,1.0,30.0,6.0,0.0
5033,80.0,1.0,30.0,0.0,0.0
5034,56.0,1.0,30.0,7.0,0.0
5035,68.0,5.0,30.0,4.0,0.0
5036,68.0,1.0,30.0,5.0,0.0
5037,44.0,23.0,30.0,8.0,0.0
5038,66.0,1.0,30.0,6.0,0.0
5039,78.0,1.0,30.0,0.0,0.0
5040,54.0,1.0,30.0,7.0,0.0
5041,66.0,5.0,30.0,4.0,0.0
5042,66.0,1.0,30.0,5.0,0.0
5043,42.0,39.0,30.0,8.0,0.0
5044,64.0,1.0,60.0,6.0,0.0
5045,76.0,1.0,60.0,0.0,0.0
5046,52.0,1.0,60.0,7.0,0.0
5047,64.0,5.0,60.0,4.0,0.0
5048,64.0,1.0,60.0,5.0,0.0
5049,40.0,37.0,60.0,8.0,0.0
5050,63.0,1.0,60.0,6.0,0.0
5051,75.0,1.0,60.0,0.0,0.0
5052,51.0,1.0,60.0,7.0,0.0
5053,63.0,5.0,60.0,4.0,0.0
5054,63.0,1.0,60.0,5.0,0.0
5055,39.0,96.0,60.0,8.0,0.0
5056,61.0,1.0,150.0,6.0,0.0
5057,73.0,1.0,150.0,0.0,0.0
5058,49.0,1.0,150.0,7.0,0.0
5059,61.0,5.0,150.0,4.0,0.0
5060,61.0,1.0,150.0,5.0,0.0
5061,37.0,30.0,150.0,8.0,0.0
5062,37.0,48.0,60.0,3.0,0.0
5063,40.0,9.0,60.0,3.0,0.0
5064,44.0,88.0,60.0,3.0,0.0
5065,49.0,40.0,90.0,3.0,0.0
5066,52.0,8.0,60.0,2.0,0.0
5067,56.0,48.0,60.0,2.0,0.0
5068,61.0,96.0,60.0,2.0,0.0
5069,64.0,8.0,90.0,2.0,0.0
5070,49.0,48.0,60.0,3.0,0.0
5071,52.0,48.0,60.0,3.0,0.0
5072,56.0,88.0,60.0,3.0,0.0
5073,61.0,40.0,180.0,3.0,0.0
5074,64.0,48.0,60.0,2.0,0.0
5075,68.0,48.0,60.0,2.0,0.0
5076,73.0,8.0,60.0,2.0,0.0
5077,76.0,48.0,60.0,2.0,0.0
5078,75.0,40.0,60.0,2.0,0.0
5079,73.0,48.0,60.0,2.0,0.0
5080,49.0,8.0,30.0,3.0,0.0
5081,71.0,40.0,60.0,2.0,0.0
5082,70.0,48.0,60.0,2.0,0.0
5083,52.0,8.0,30.0,3.0,0.0
5084,68.0,40.0,60.0,2.0,0.0
5085,67.0,48.0,60.0,2.0,0.0
5086,49.0,8.0,30.0,3.0,0.0
5087,68.0,192.0,60.0,2.0,0.0
5088,67.0,8.0,180.0,2.0,0.0
5089,51.0,25.0,180.0,3.0,0.0
5090,63.0,1.0,30.0,6.0,0.0
5091,75.0,1.0,30.0,0.0,0.0
5092,51.0,1.0,30.0,7.0,0.0
5093,63.0,5.0,30.0,4.0,0.0
5094,63.0,1.0,30.0,5.0,0.0
5095,39.0,23.0,30.0,8.0,0.0
5096,64.0,1.0,30.0,6.0,0.0
5097,76.0,1.0,30.0,0.0,0.0
5098,52.0,1.0,30.0,7.0,0.0
5099,64.0,5.0,30.0,4.0,0.0
5100,64.0,1.0,30.0,5.0,0.0
5101,40.0,23.0,30.0,8.0,0.0
5102,63.0,1.0,30.0,6.0,0.0
5103,75.0,1.0,30.0,0.0,0.0
5104,51.0,1.0,30.0,7.0,0.0
5105,63.0,5.0,30.0,4.0,0.0
5106,63.0,1.0,30.0,5.0,0.0
5107,39.0,23.0,30.0,8.0,0.0
5108,64.0,1.0,30.0,6.0,0.0
5109,76.0,1.0,30.0,0.0,0.0
5110,52.0,1.0,30.0,7.0,0.0
5111,64.0,5.0,30.0,4.0,0.0
5112,64.0,1.0,30.0,5.0,0.0
5113,40.0,23.0,30.0,8.0,0.0
5114,63.0,1.0,30.0,6.0,0.0
5115,75.0,1.0,30.0,0.0,0.0
5116,51.0,1.0,30.0,7.0,0.0
5117,63.0,5.0,30.0,4.0,0.0
5118,63.0,1.0,30.0,5.0,0.0
5119,39.0,23.0,30.0,8.0,0.0
5120,64.0,1.0,30.0,6.0,0.0
5121,76.0,1.0,30.0,0.0,0.0
5122,52.0,1.0,30.0,7.0,0.0
5123,64.0,5.0,30.0,4.0,0.0
5124,64.0,1.0,30.0,5.0,0.0
5125,40.0,23.0,30.0,8.0,0.0
5126,63.0,1.0,30.0,6.0,0.0
5127,75.0,1.0,30.0,0.0,0.0
5128,51.0,1.0,30.0,7.0,0.0
5129,63.0,5.0,30.0,4.0,0.0
5130,63.0,1.0,30.0,5.0,0.0
5131,39.0,23.0,30.0,8.0,0.0
5132,64.0,1.0,30.0,6.0,0.0
5133,76.0,1.0,30.0,0.0,0.0
5134,52.0,1.0,30.0,7.0,0.0
5135,64.0,5.0,30.0,4.0,0.0
5136,64.0,1.0,30.0,5.0,0.0
5137,40.0,23.0,30.0,8.0,0.0
5138,63.0,1.0,30.0,6.0,0.0
5139,75.0,1.0,30.0,0.0,0.0
5140,51.0,1.0,30.0,7.0,0.0
5141,63.0,5.0,30.0,4.0,0.0
5142,63.0,1.0,30.0,5.0,0.0
5143,39.0,39.0,30.0,8.0,0.0
5144,61.0,1.0,60.0,6.0,0.0
5145,73.0,1.0,60.0,0.0,0.0
5146,49.0,1.0,60.0,7.0,0.0
5147,61.0,5.0,60.0,4.0,0.0
5148,61.0,1.0,60.0,5.0,0.0
5149,37.0,37.0,60.0,8.0,0.0
5150,59.0,1.0,60.0,6.0,0.0
5151,71.0,1.0,60.0,0.0,0.0
5152,47.0,1.0,60.0,7.0,0.0
5153,59.0,5.0,60.0,4.0,0.0
5154,59.0,1.0,60.0,5.0,0.0
5155,35.0,153.0,60.0,8.0,0.0
5156,58.0,1.0,150.0,6.0,0.0
5157,70.0,1.0,150.0,0.0,0.0
5158,46.0,1.0,150.0,7.0,0.0
5159,58.0,5.0,150.0,4.0,0.0
5160,58.0,1.0,150.0,5.0,0.0
5161,34.0,55.0,150.0,8.0,0.0
5162,56.0,1.0,30.0,6.0,0.0
5163,80.0,1.0,30.0,0.0,0.0
5164,44.0,1.0,30.0,7.0,0.0
5165,56.0,5.0,30.0,4.0,0.0
5166,56.0,1.0,30.0,5.0,0.0
5167,32.0,23.0,30.0,8.0,0.0
5168,58.0,1.0,30.0,6.0,0.0
5169,82.0,1.0,30.0,0.0,0.0
5170,46.0,1.0,30.0,7.0,0.0
5171,58.0,5.0,30.0,4.0,0.0
5172,58.0,1.0,30.0,5.0,0.0
5173,34.0,23.0,30.0,8.0,0.0
5174,56.0,1.0,30.0,6.0,0.0
5175,80.0,1.0,30.0,0.0,0.0
5176,44.0,1.0,30.0,7.0,0.0
5177,56.0,5.0,30.0,4.0,0.0
5178,56.0,1.0,30.0,5.0,0.0
5179,32.0,23.0,30.0,8.0,0.0
5180,58.0,1.0,30.0,6.0,0.0
5181,82.0,1.0,30.0,0.0,0.0
5182,46.0,1.0,30.0,7.0,0.0
5183,58.0,5.0,30.0,4.0,0.0
5184,58.0,1.0,30.0,5.0,0.0
5185,34.0,23.0,30.0,8.0,0.0
5186,56.0,1.0,30.0,6.0,0.0
5187,80.0,1.0,30.0,0.0,0.0
5188,44.0,1.0,30.0,7.0,0.0
5189,56.0,5.0,30.0,4.0,0.0
5190,56.0,1.0,30.0,5.0,0.0
5191,32.0,23.0,30.0,8.0,0.0
5192,58.0,1.0,30.0,6.0,0.0
5193,82.0,1.0,30.0,0.0,0.0
5194,46.0,1.0,30.0,7.0,0.0
5195,58.0,5.0,30.0,4.0,0.0
5196,58.0,1.0,30.0,5.0,0.0
5197,34.0,23.0,30.0,8.0,0.0
5198,56.0,1.0,30.0,6.0,0.0
5199,80.0,1.0,30.0,0.0,0.0
5200,44.0,1.0,30.0,7.0,0.0
5201,56.0,5.0,30.0,4.0,0.0
5202,56.0,1.0,30.0,5.0,0.0
5203,32.0,23.0,30.0,8.0,0.0
5204,58.0,1.0,30.0,6.0,0.0
5205,82.0,1.0,30.0,0.0,0.0
5206,46.0,1.0,30.0,7.0,0.0
5207,58.0,5.0,30.0,4.0,0.0
5208,58.0,1.0,30.0,5.0,0.0
5209,34.0,23.0,30.0,8.0,0.0
5210,56.0,1.0,30.0,6.0,0.0
5211,80.0,1.0,30.0,0.0,0.0
5212,44.0,1.0,30.0,7.0,0.0
5213,56.0,5.0,30.0,4.0,0.0
5214,56.0,1.0,30.0,5.0,0.0
5215,32.0,39.0,30.0,8.0,0.0
5216,55.0,1.0,60.0,6.0,0.0
5217,79.0,1.0,60.0,0.0,0.0
5218,43.0,1.0,60.0,7.0,0.0
5219,55.0,5.0,60.0,4.0,0.0
5220,55.0,1.0,60.0,5.0,0.0
5221,31.0,37.0,60.0,8.0,0.0
5222,53.0,1.0,60.0,6.0,0.0
5223,77.0,1.0,60.0,0.0,0.0
5224,41.0,1.0,60.0,7.0,0.0
5225,53.0,5.0,60.0,4.0,0.0
5226,53.0,1.0,60.0,5.0,0.0
5227,29.0,96.0,60.0,8.0,0.0
5228,51.0,1.0,150.0,6.0,0.0
5229,75.0,1.0,150.0,0.0,0.0
5230,39.0,1.0,150.0,7.0,0.0
5231,51.0,5.0,150.0,4.0,0.0
5232,51.0,1.0,150.0,5.0,0.0
5233,27.0,30.0,150.0,8.0,0.0
5234,39.0,48.0,60.0,3.0,0.0
5235,43.0,9.0,60.0,3.0,0.0
5236,46.0,88.0,60.0,3.0,0.0
5237,51.0,40.0,90.0,3.0,0.0
5238,55.0,8.0,60.0,2.0,0.0
5239,58.0,48.0,60.0,2.0,0.0
5240,63.0,96.0,60.0,2.0,0.0
5241,67.0,8.0,90.0,2.0,0.0
5242,51.0,48.0,60.0,3.0,0.0
5243,55.0,48.0,60.0,3.0,0.0
5244,58.0,88.0,60.0,3.0,0.0
5245,63.0,40.0,180.0,3.0,0.0
5246,70.0,48.0,60.0,2.0,0.0
5247,75.0,48.0,60.0,2.0,0.0
5248,79.0,8.0,60.0,2.0,0.0
5249,82.0,48.0,60.0,2.0,0.0
5250,80.0,40.0,60.0,2.0,0.0
5251,79.0,48.0,60.0,2.0,0.0
5252,51.0,8.0,30.0,3.0,0.0
5253,77.0,40.0,60.0,2.0,0.0
5254,75.0,48.0,60.0,2.0,0.0
5255,55.0,8.0,30.0,3.0,0.0
5256,73.0,40.0,60.0,2.0,0.0
5257,71.0,48.0,60.0,2.0,0.0
5258,51.0,8.0,30.0,3.0,0.0
5259,70.0,129.0,60.0,2.0,0.0
5260,71.0,40.0,150.0,2.0,0.0
5261,56.0,24.0,180.0,3.0,0.0
5262,63.0,2.0,30.0,6.0,0.0
5263,59.0,7.0,30.0,7.0,0.0
5264,47.0,22.0,30.0,8.0,0.0
5265,75.0,32.0,30.0,2.0,0.0
5266,63.0,2.0,90.0,6.0,0.0
5267,59.0,7.0,90.0,7.0,0.0
5268,47.0,22.0,90.0,8.0,0.0
5269,76.0,32.0,30.0,2.0,0.0
5270,75.0,1.0,30.0,2.0,0.0
5271,76.0,32.0,30.0,2.0,0.0
5272,61.0,1.0,90.0,6.0,0.0
5273,58.0,7.0,90.0,7.0,0.0
5274,46.0,24.0,90.0,8.0,0.0
5275,75.0,31.0,30.0,2.0,0.0
5276,76.0,1.0,30.0,2.0,0.0
5277,75.0,32.0,30.0,2.0,0.0
5278,61.0,2.0,90.0,6.0,0.0
5279,58.0,7.0,90.0,7.0,0.0
5280,46.0,38.0,90.0,8.0,0.0
5281,76.0,32.0,30.0,2.0,0.0
5282,75.0,1.0,30.0,2.0,0.0
5283,77.0,47.0,60.0,2.0,0.0
5284,60.0,1.0,90.0,6.0,0.0
5285,56.0,7.0,90.0,7.0,0.0
5286,44.0,124.0,90.0,8.0,0.0
5287,79.0,1.0,60.0,2.0,0.0
5288,80.0,1.0,150.0,2.0,0.0
5289,60.0,2.0,150.0,6.0,0.0
5290,56.0,7.0,150.0,7.0,0.0
5291,44.0,54.0,150.0,8.0,0.0
5292,72.0,5.0,30.0,4.0,0.0
5293,68.0,23.0,30.0,5.0,0.0
5294,66.0,8.0,30.0,2.0,0.0
5295,72.0,4.0,90.0,4.0,0.0
5296,54.0,24.0,30.0,3.0,0.0
5297,68.0,23.0,90.0,5.0,0.0
5298,68.0,8.0,30.0,2.0,0.0
5299,56.0,24.0,30.0,3.0,0.0
5300,66.0,4.0,30.0,2.0,0.0
5301,54.0,1.0,30.0,3.0,0.0
5302,68.0,8.0,30.0,2.0,0.0
5303,73.0,5.0,90.0,4.0,0.0
5304,56.0,24.0,30.0,3.0,0.0
5305,70.0,1.0,90.0,5.0,0.0
5306,66.0,8.0,30.0,2.0,0.0
5307,54.0,24.0,30.0,3.0,0.0
5308,68.0,2.0,30.0,2.0,0.0
5309,56.0,24.0,30.0,3.0,0.0
5310,66.0,8.0,30.0,2.0,0.0
5311,73.0,4.0,90.0,4.0,0.0
5312,54.0,24.0,30.0,3.0,0.0
5313,70.0,39.0,90.0,5.0,0.0
5314,68.0,8.0,30.0,2.0,0.0
5315,56.0,24.0,30.0,3.0,0.0
5316,66.0,4.0,30.0,2.0,0.0
5317,54.0,1.0,30.0,3.0,0.0
5318,64.0,8.0,60.0,2.0,0.0
5319,75.0,5.0,90.0,4.0,0.0
5320,52.0,40.0,60.0,3.0,0.0
5321,72.0,1.0,90.0,5.0,0.0
5322,63.0,2.0,60.0,2.0,0.0
5323,51.0,121.0,60.0,3.0,0.0
5324,61.0,4.0,150.0,2.0,0.0
5325,76.0,5.0,150.0,4.0,0.0
5326,49.0,24.0,180.0,3.0,0.0
5327,73.0,31.0,150.0,5.0,0.0
5328,56.0,2.0,30.0,6.0,0.0
5329,52.0,7.0,30.0,7.0,0.0
5330,40.0,22.0,30.0,8.0,0.0
5331,80.0,32.0,30.0,2.0,0.0
5332,56.0,2.0,90.0,6.0,0.0
5333,52.0,7.0,90.0,7.0,0.0
5334,40.0,22.0,90.0,8.0,0.0
5335,82.0,32.0,30.0,2.0,0.0
5336,80.0,1.0,30.0,2.0,0.0
5337,82.0,32.0,30.0,2.0,0.0
5338,54.0,1.0,90.0,6.0,0.0
5339,51.0,7.0,90.0,7.0,0.0
5340,39.0,24.0,90.0,8.0,0.0
5341,80.0,31.0,30.0,2.0,0.0
5342,82.0,1.0,30.0,2.0,0.0
5343,80.0,32.0,30.0,2.0,0.0
5344,54.0,2.0,90.0,6.0,0.0
5345,51.0,7.0,90.0,7.0,0.0
5346,39.0,38.0,90.0,8.0,0.0
5347,79.0,32.0,30.0,2.0,0.0
5348,80.0,1.0,30.0,2.0,0.0
5349,82.0,47.0,60.0,2.0,0.0
5350,53.0,1.0,90.0,6.0,0.0
5351,49.0,7.0,90.0,7.0,0.0
5352,37.0,124.0,90.0,8.0,0.0
5353,84.0,1.0,60.0,2.0,0.0
5354,85.0,1.0,150.0,2.0,0.0
5355,53.0,2.0,150.0,6.0,0.0
5356,49.0,7.0,150.0,7.0,0.0
5357,37.0,54.0,150.0,8.0,0.0
5358,65.0,5.0,30.0,4.0,0.0
5359,61.0,23.0,30.0,5.0,0.0
5360,59.0,8.0,30.0,2.0,0.0
5361,65.0,4.0,90.0,4.0,0.0
5362,47.0,24.0,30.0,3.0,0.0
5363,61.0,23.0,90.0,5.0,0.0
5364,61.0,8.0,30.0,2.0,0.0
5365,49.0,24.0,30.0,3.0,0.0
5366,59.0,4.0,30.0,2.0,0.0
5367,47.0,1.0,30.0,3.0,0.0
5368,61.0,8.0,30.0,2.0,0.0
5369,66.0,5.0,90.0,4.0,0.0
5370,49.0,24.0,30.0,3.0,0.0
5371,63.0,1.0,90.0,5.0,0.0
5372,59.0,8.0,30.0,2.0,0.0
5373,47.0,24.0,30.0,3.0,0.0
5374,61.0,2.0,30.0,2.0,0.0
5375,49.0,24.0,30.0,3.0,0.0
5376,59.0,8.0,30.0,2.0,0.0
5377,66.0,4.0,90.0,4.0,0.0
5378,47.0,24.0,30.0,3.0,0.0
5379,63.0,39.0,90.0,5.0,0.0
5380,61.0,8.0,30.0,2.0,0.0
5381,49.0,24.0,30.0,3.0,0.0
5382,59.0,4.0,30.0,2.0,0.0
5383,47.0,1.0,30.0,3.0,0.0
5384,58.0,8.0,60.0,2.0,0.0
5385,68.0,5.0,90.0,4.0,0.0
5386,46.0,40.0,60.0,3.0,0.0
5387,65.0,1.0,90.0,5.0,0.0
5388,56.0,2.0,60.0,2.0,0.0
5389,44.0,121.0,60.0,3.0,0.0
5390,54.0,4.0,150.0,2.0,0.0
5391,70.0,5.0,150.0,4.0,0.0
5392,42.0,24.0,180.0,3.0,0.0
5393,66.0,31.0,150.0,5.0,0.0
5394,61.0,2.0,30.0,6.0,0.0
5395,58.0,7.0,30.0,7.0,0.0
5396,46.0,22.0,30.0,8.0,0.0
5397,73.0,32.0,30.0,2.0,0.0
5398,61.0,2.0,90.0,6.0,0.0
5399,58.0,7.0,90.0,7.0,0.0
5400,46.0,22.0,90.0,8.0,0.0
5401,75.0,32.0,30.0,2.0,0.0
5402,73.0,1.0,30.0,2.0,0.0
5403,75.0,32.0,30.0,2.0,0.0
5404,59.0,1.0,90.0,6.0,0.0
5405,56.0,7.0,90.0,7.0,0.0
5406,44.0,24.0,90.0,8.0,0.0
5407,73.0,31.0,30.0,2.0,0.0
5408,75.0,1.0,30.0,2.0,0.0
5409,73.0,32.0,30.0,2.0,0.0
5410,59.0,2.0,90.0,6.0,0.0
5411,56.0,7.0,90.0,7.0,0.0
5412,44.0,38.0,90.0,8.0,0.0
5413,72.0,32.0,30.0,2.0,0.0
5414,73.0,1.0,30.0,2.0,0.0
5415,75.0,47.0,60.0,2.0,0.0
5416,58.0,1.0,90.0,6.0,0.0
5417,54.0,7.0,90.0,7.0,0.0
5418,42.0,124.0,90.0,8.0,0.0
5419,77.0,1.0,60.0,2.0,0.0
5420,78.0,1.0,150.0,2.0,0.0
5421,58.0,2.0,150.0,6.0,0.0
5422,54.0,7.0,150.0,7.0,0.0
5423,42.0,54.0,150.0,8.0,0.0
5424,70.0,5.0,30.0,4.0,0.0
5425,66.0,23.0,30.0,5.0,0.0
5426,64.0,8.0,30.0,2.0,0.0
5427,70.0,4.0,90.0,4.0,0.0
5428,52.0,24.0,30.0,3.0,0.0
5429,66.0,23.0,90.0,5.0,0.0
5430,66.0,8.0,30.0,2.0,0.0
5431,54.0,24.0,30.0,3.0,0.0
5432,64.0,4.0,30.0,2.0,0.0
5433,52.0,1.0,30.0,3.0,0.0
5434,66.0,8.0,30.0,2.0,0.0
5435,71.0,5.0,90.0,4.0,0.0
5436,54.0,24.0,30.0,3.0,0.0
5437,68.0,1.0,90.0,5.0,0.0
5438,64.0,8.0,30.0,2.0,0.0
5439,52.0,24.0,30.0,3.0,0.0
5440,66.0,2.0,30.0,2.0,0.0
5441,54.0,24.0,30.0,3.0,0.0
5442,64.0,8.0,30.0,2.0,0.0
5443,71.0,4.0,90.0,4.0,0.0
5444,52.0,24.0,30.0,3.0,0.0
5445,68.0,39.0,90.0,5.0,0.0
5446,66.0,8.0,30.0,2.0,0.0
5447,54.0,24.0,30.0,3.0,0.0
5448,64.0,4.0,30.0,2.0,0.0
5449,52.0,1.0,30.0,3.0,0.0
5450,63.0,8.0,60.0,2.0,0.0
5451,73.0,5.0,90.0,4.0,0.0
5452,51.0,40.0,60.0,3.0,0.0
5453,70.0,1.0,90.0,5.0,0.0
5454,61.0,2.0,60.0,2.0,0.0
5455,49.0,121.0,60.0,3.0,0.0
5456,59.0,4.0,150.0,2.0,0.0
5457,75.0,5.0,150.0,4.0,0.0
5458,47.0,24.0,180.0,3.0,0.0
5459,71.0,31.0,150.0,5.0,0.0
5460,54.0,2.0,30.0,6.0,0.0
5461,51.0,7.0,30.0,7.0,0.0
5462,39.0,22.0,30.0,8.0,0.0
5463,78.0,32.0,30.0,2.0,0.0
5464,54.0,2.0,90.0,6.0,0.0
5465,51.0,7.0,90.0,7.0,0.0
5466,39.0,22.0,90.0,8.0,0.0
5467,80.0,32.0,30.0,2.0,0.0
5468,78.0,1.0,30.0,2.0,0.0
5469,80.0,32.0,30.0,2.0,0.0
5470,52.0,1.0,90.0,6.0,0.0
5471,49.0,7.0,90.0,7.0,0.0
5472,37.0,24.0,90.0,8.0,0.0
5473,78.0,31.0,30.0,2.0,0.0
5474,80.0,1.0,30.0,2.0,0.0
5475,78.0,32.0,30.0,2.0,0.0
5476,52.0,2.0,90.0,6.0,0.0
5477,49.0,7.0,90.0,7.0,0.0
5478,37.0,38.0,90.0,8.0,0.0
5479,77.0,32.0,30.0,2.0,0.0
5480,78.0,1.0,30.0,2.0,0.0
5481,80.0,47.0,60.0,2.0,0.0
5482,51.0,1.0,90.0,6.0,0.0
5483,47.0,7.0,90.0,7.0,0.0
5484,35.0,124.0,90.0,8.0,0.0
5485,82.0,1.0,60.0,2.0,0.0
5486,83.0,1.0,150.0,2.0,0.0
5487,51.0,2.0,150.0,6.0,0.0
5488,47.0,7.0,150.0,7.0,0.0
5489,35.0,54.0,150.0,8.0,0.0
5490,63.0,5.0,30.0,4.0,0.0
5491,59.0,23.0,30.0,5.0,0.0
5492,57.0,8.0,30.0,2.0,0.0
5493,63.0,4.0,90.0,4.0,0.0
5494,45.0,24.0,30.0,3.0,0.0
5495,59.0,23.0,90.0,5.0,0.0
5496,59.0,8.0,30.0,2.0,0.0
5497,47.0,24.0,30.0,3.0,0.0
5498,57.0,4.0,30.0,2.0,0.0
5499,45.0,1.0,30.0,3.0,0.0
5500,59.0,8.0,30.0,2.0,0.0
5501,64.0,5.0,90.0,4.0,0.0
5502,47.0,24.0,30.0,3.0,0.0
5503,61.0,1.0,90.0,5.0,0.0
5504,57.0,8.0,30.0,2.0,0.0
5505,45.0,24.0,30.0,3.0,0.0
5506,59.0,2.0,30.0,2.0,0.0
5507,47.0,24.0,30.0,3.0,0.0
5508,57.0,8.0,30.0,2.0,0.0
5509,64.0,4.0,90.0,4.0,0.0
5510,45.0,24.0,30.0,3.0,0.0
5511,61.0,39.0,90.0,5.0,0.0
5512,59.0,8.0,30.0,2.0,0.0
5513,47.0,24.0,30.0,3.0,0.0
5514,57.0,4.0,30.0,2.0,0.0
5515,45.0,1.0,30.0,3.0,0.0
5516,56.0,8.0,60.0,2.0,0.0
5517,66.0,5.0,90.0,4.0,0.0
5518,44.0,38.0,60.0,3.0,0.0
5519,63.0,1.0,90.0,5.0,0.0
5520,54.0,4.0,60.0,2.0,0.0
5521,42.0,156.0,60.0,3.0,0.0
5522,52.0,96.0,300.0,2.0,0.0
5523,68.0,5.0,150.0,4.0,0.0
5524,40.0,88.0,180.0,3.0,0.0
5525,64.0,31.0,150.0,5.0,0.0
5526,35.0,88.0,180.0,3.0,0.0
5527,56.0,8.0,90.0,2.0,0.0
5528,59.0,96.0,90.0,2.0,0.0
5529,32.0,88.0,180.0,3.0,0.0
5530,64.0,8.0,90.0,2.0,0.0
5531,68.0,96.0,90.0,2.0,0.0
5532,28.0,88.0,180.0,3.0,0.0
5533,71.0,8.0,90.0,2.0,0.0
5534,76.0,96.0,90.0,2.0,0.0
5535,80.0,96.0,90.0,2.0,0.0
5536,83.0,96.0,90.0,2.0,0.0
5537,80.0,96.0,90.0,2.0,0.0
5538,78.0,96.0,90.0,2.0,0.0
5539,75.0,96.0,90.0,2.0,0.0
5540,71.0,97.0,90.0,2.0,0.0
5541,51.0,3.0,180.0,6.0,0.0
5542,66.0,4.0,180.0,4.0,0.0
5543,59.0,96.0,90.0,3.0,0.0
5544,63.0,3.0,150.0,6.0,0.0
5545,78.0,36.0,150.0,4.0,0.0
5546,54.0,57.0,90.0,3.0,0.0
5547,51.0,96.0,90.0,3.0,0.0
5548,61.0,3.0,180.0,6.0,0.0
5549,76.0,4.0,180.0,4.0,0.0
5550,49.0,89.0,90.0,3.0,0.0
5551,52.0,96.0,90.0,3.0,0.0
5552,49.0,3.0,150.0,6.0,0.0
5553,49.0,6.0,180.0,7.0,0.0
5554,64.0,28.0,150.0,4.0,0.0
5555,57.0,57.0,90.0,3.0,0.0
5556,57.0,1.0,180.0,5.0,0.0
5557,37.0,86.0,180.0,8.0,0.0
5558,69.0,3.0,90.0,2.0,0.0
5559,73.0,67.0,90.0,2.0,0.0
5560,61.0,6.0,150.0,7.0,0.0
5561,69.0,1.0,150.0,5.0,0.0
5562,49.0,22.0,150.0,8.0,0.0
5563,76.0,96.0,90.0,2.0,0.0
5564,75.0,96.0,90.0,2.0,0.0
5565,59.0,6.0,180.0,7.0,0.0
5566,68.0,1.0,180.0,5.0,0.0
5567,47.0,86.0,180.0,8.0,0.0
5568,71.0,3.0,90.0,2.0,0.0
5569,68.0,67.0,90.0,2.0,0.0
5570,47.0,3.0,180.0,6.0,0.0
5571,47.0,6.0,150.0,7.0,0.0
5572,63.0,4.0,180.0,4.0,0.0
5573,56.0,1.0,150.0,5.0,0.0
5574,35.0,23.0,150.0,8.0,0.0
5575,56.0,96.0,90.0,3.0,0.0
5576,59.0,3.0,150.0,6.0,0.0
5577,75.0,36.0,150.0,4.0,0.0
5578,51.0,57.0,90.0,3.0,0.0
5579,47.0,96.0,90.0,3.0,0.0
5580,57.0,3.0,180.0,6.0,0.0
5581,73.0,4.0,180.0,4.0,0.0
5582,45.0,89.0,90.0,3.0,0.0
5583,49.0,96.0,90.0,3.0,0.0
5584,45.0,3.0,150.0,6.0,0.0
5585,45.0,6.0,180.0,7.0,0.0
5586,61.0,28.0,150.0,4.0,0.0
5587,54.0,57.0,90.0,3.0,0.0
5588,54.0,1.0,180.0,5.0,0.0
5589,33.0,86.0,180.0,8.0,0.0
5590,66.0,3.0,90.0,2.0,0.0
5591,69.0,67.0,90.0,2.0,0.0
5592,57.0,6.0,150.0,7.0,0.0
5593,66.0,1.0,150.0,5.0,0.0
5594,45.0,22.0,150.0,8.0,0.0
5595,73.0,96.0,90.0,2.0,0.0
5596,71.0,96.0,90.0,2.0,0.0
5597,56.0,6.0,180.0,7.0,0.0
5598,64.0,1.0,180.0,5.0,0.0
5599,44.0,86.0,180.0,8.0,0.0
5600,68.0,3.0,90.0,2.0,0.0
5601,64.0,67.0,90.0,2.0,0.0
5602,44.0,3.0,180.0,6.0,0.0
5603,44.0,6.0,150.0,7.0,0.0
5604,59.0,4.0,180.0,4.0,0.0
5605,52.0,1.0,150.0,5.0,0.0
5606,32.0,23.0,150.0,8.0,0.0
5607,52.0,96.0,90.0,3.0,0.0
5608,56.0,3.0,150.0,6.0,0.0
5609,71.0,36.0,150.0,4.0,0.0
5610,47.0,57.0,90.0,3.0,0.0
5611,44.0,184.0,90.0,3.0,0.0
5612,49.0,2.0,540.0,6.0,0.0
5613,42.0,1.0,540.0,7.0,0.0
5614,58.0,4.0,540.0,4.0,0.0
5615,49.0,0.0,540.0,3.0,0.0
5616,46.0,1.0,540.0,3.0,0.0
5617,42.0,0.0,540.0,3.0,0.0
5618,52.0,1.0,540.0,5.0,0.0
5619,30.0,132.0,540.0,8.0,0.0
5620,76.0,94.0,90.0,2.0,0.0
5621,73.0,34.0,90.0,2.0,0.0
5622,70.0,96.0,30.0,2.0,0.0
5623,66.0,96.0,30.0,2.0,0.0
5624,64.0,17.0,30.0,2.0,0.0
5625,63.0,98.0,90.0,2.0,0.0
5626,47.0,2.0,540.0,6.0,0.0
5627,42.0,1.0,540.0,7.0,0.0
5628,59.0,4.0,540.0,4.0,0.0
5629,47.0,0.0,540.0,3.0,0.0
5630,51.0,1.0,540.0,3.0,0.0
5631,42.0,0.0,540.0,3.0,0.0
5632,51.0,1.0,540.0,5.0,0.0
5633,30.0,132.0,540.0,8.0,0.0
5634,78.0,94.0,90.0,2.0,0.0
5635,75.0,34.0,90.0,2.0,0.0
5636,71.0,96.0,30.0,2.0,0.0
5637,66.0,96.0,30.0,2.0,0.0
5638,63.0,17.0,30.0,2.0,0.0
5639,65.0,98.0,90.0,2.0,0.0
5640,49.0,2.0,540.0,6.0,0.0
5641,42.0,1.0,540.0,7.0,0.0
5642,59.0,4.0,540.0,4.0,0.0
5643,42.0,1.0,540.0,3.0,0.0
5644,47.0,0.0,540.0,3.0,0.0
5645,44.0,0.0,540.0,3.0,0.0
5646,53.0,1.0,540.0,5.0,0.0
5647,30.0,132.0,540.0,8.0,0.0
5648,83.0,94.0,90.0,2.0,0.0
5649,80.0,34.0,90.0,2.0,0.0
5650,77.0,96.0,30.0,2.0,0.0
5651,73.0,96.0,30.0,2.0,0.0
5652,71.0,17.0,30.0,2.0,0.0
5653,70.0,98.0,90.0,2.0,0.0
5654,49.0,2.0,540.0,6.0,0.0
5655,42.0,1.0,540.0,7.0,0.0
5656,58.0,4.0,540.0,4.0,0.0
5657,46.0,0.0,540.0,3.0,0.0
5658,49.0,1.0,540.0,3.0,0.0
5659,42.0,0.0,540.0,3.0,0.0
5660,54.0,1.0,540.0,5.0,0.0
5661,30.0,136.0,540.0,8.0,0.0
5662,85.0,94.0,90.0,2.0,0.0
5663,82.0,34.0,90.0,2.0,0.0
5664,78.0,96.0,30.0,2.0,0.0
5665,73.0,96.0,30.0,2.0,0.0
5666,71.0,17.0,30.0,2.0,0.0
5667,73.0,5.0,90.0,4.0,0.0
5668,54.0,0.0,540.0,3.0,0.0
5669,58.0,40.0,540.0,3.0,0.0
5670,70.0,41.0,90.0,5.0,0.0
5671,76.0,48.0,60.0,2.0,0.0
5672,74.0,48.0,60.0,2.0,0.0
5673,73.0,48.0,60.0,2.0,0.0
5674,76.0,5.0,90.0,4.0,0.0
5675,73.0,41.0,90.0,5.0,0.0
5676,71.0,2.0,60.0,2.0,0.0
5677,70.0,48.0,60.0,2.0,0.0
5678,68.0,48.0,60.0,2.0,0.0
5679,66.0,48.0,60.0,2.0,0.0
5680,64.0,5.0,90.0,4.0,0.0
5681,61.0,41.0,90.0,5.0,0.0
5682,67.0,2.0,60.0,2.0,0.0
5683,64.0,8.0,60.0,2.0,0.0
5684,66.0,94.0,60.0,2.0,0.0
5685,62.0,4.0,90.0,2.0,0.0
5686,62.0,5.0,90.0,4.0,0.0
5687,59.0,0.0,540.0,3.0,0.0
5688,54.0,40.0,540.0,3.0,0.0
5689,59.0,41.0,90.0,5.0,0.0
5690,78.0,48.0,60.0,2.0,0.0
5691,76.0,48.0,60.0,2.0,0.0
5692,74.0,48.0,60.0,2.0,0.0
5693,78.0,5.0,90.0,4.0,0.0
5694,74.0,41.0,90.0,5.0,0.0
5695,73.0,2.0,60.0,2.0,0.0
5696,71.0,48.0,60.0,2.0,0.0
5697,70.0,48.0,60.0,2.0,0.0
5698,71.0,48.0,60.0,2.0,0.0
5699,66.0,5.0,90.0,4.0,0.0
5700,62.0,41.0,90.0,5.0,0.0
5701,69.0,2.0,60.0,2.0,0.0
5702,67.0,8.0,60.0,2.0,0.0
5703,66.0,94.0,60.0,2.0,0.0
5704,65.0,4.0,90.0,2.0,0.0
5705,65.0,5.0,90.0,4.0,0.0
5706,59.0,40.0,540.0,3.0,0.0
5707,55.0,0.0,540.0,3.0,0.0
5708,59.0,41.0,90.0,5.0,0.0
5709,83.0,48.0,60.0,2.0,0.0
5710,82.0,48.0,60.0,2.0,0.0
5711,83.0,48.0,60.0,2.0,0.0
5712,74.0,5.0,90.0,4.0,0.0
5713,65.0,41.0,90.0,5.0,0.0
5714,82.0,2.0,60.0,2.0,0.0
5715,83.0,48.0,60.0,2.0,0.0
5716,82.0,48.0,60.0,2.0,0.0
5717,83.0,48.0,60.0,2.0,0.0
5718,65.0,5.0,90.0,4.0,0.0
5719,59.0,41.0,90.0,5.0,0.0
5720,79.0,2.0,60.0,2.0,0.0
5721,78.0,8.0,60.0,2.0,0.0
5722,77.0,96.0,60.0,2.0,0.0
5723,78.0,68.0,90.0,2.0,0.0
5724,66.0,4.0,150.0,4.0,0.0
5725,58.0,0.0,150.0,3.0,0.0
5726,54.0,1.0,150.0,3.0,0.0
5727,58.0,21.0,150.0,5.0,0.0
5728,79.0,98.0,90.0,2.0,0.0
5729,73.0,94.0,90.0,2.0,0.0
5730,74.0,98.0,90.0,2.0,0.0
5731,76.0,94.0,90.0,2.0,0.0
5732,78.0,98.0,90.0,2.0,0.0
5733,71.0,94.0,90.0,2.0,0.0
5734,73.0,162.0,90.0,2.0,0.0
5735,76.0,56.0,150.0,2.0,0.0
5736,71.0,30.0,150.0,2.0,0.0
5737,76.0,24.0,20.0,2.0,0.0
5738,53.0,96.0,180.0,3.0,0.0
5739,74.0,24.0,20.0,2.0,0.0
5740,76.0,24.0,20.0,2.0,0.0
5741,74.0,48.0,20.0,2.0,0.0
5742,73.0,16.0,60.0,2.0,0.0
5743,74.0,10.0,60.0,2.0,0.0
5744,70.0,0.0,150.0,2.0,0.0
5745,73.0,38.0,150.0,2.0,0.0
5746,54.0,56.0,90.0,3.0,0.0
5747,55.0,98.0,90.0,3.0,0.0
5748,49.0,94.0,90.0,3.0,0.0
5749,50.0,98.0,90.0,3.0,0.0
5750,52.0,94.0,90.0,3.0,0.0
5751,54.0,98.0,90.0,3.0,0.0
5752,47.0,94.0,90.0,3.0,0.0
5753,49.0,98.0,90.0,3.0,0.0
5754,50.0,96.0,90.0,3.0,0.0
5755,46.0,96.0,90.0,3.0,0.0
5756,47.0,94.0,90.0,3.0,0.0
5757,42.0,378.0,90.0,3.0,0.0
5758,43.0,152.0,570.0,3.0,0.0
5759,62.0,160.0,180.0,2.0,0.0
5760,59.0,224.0,540.0,2.0,0.0
5761,63.0,40.0,150.0,2.0,0.0
5762,64.0,224.0,750.0,2.0,0.0
5763,44.0,152.0,570.0,3.0,0.0
5764,59.0,160.0,180.0,2.0,0.0
5765,60.0,40.0,150.0,2.0,0.0
5766,61.0,224.0,750.0,2.0,0.0
5767,45.0,152.0,570.0,3.0,0.0
5768,64.0,160.0,180.0,2.0,0.0
5769,65.0,40.0,150.0,2.0,0.0
5770,66.0,8.0,540.0,2.0,0.0
5771,46.0,8.0,540.0,3.0,0.0
5772,61.0,144.0,180.0,2.0,0.0
5773,62.0,192.0,150.0,2.0,0.0
5774,66.0,3.0,150.0,2.0,0.0
5775,63.0,0.0,150.0,2.0,0.0
5776,59.0,1.0,540.0,6.0,0.0
5777,71.0,2.0,540.0,0.0,0.0
5778,47.0,5.0,150.0,7.0,0.0
5779,59.0,0.0,540.0,4.0,0.0
5780,71.0,2.0,540.0,4.0,0.0
5781,51.0,0.0,540.0,4.0,0.0
5782,59.0,3.0,540.0,1.0,0.0
5783,47.0,0.0,540.0,1.0,0.0
5784,47.0,2.0,150.0,3.0,0.0
5785,51.0,10.0,540.0,5.0,0.0
5786,71.0,0.0,540.0,5.0,0.0
5787,59.0,0.0,540.0,5.0,0.0
5788,35.0,185.0,150.0,8.0,0.0
5789,59.0,7.0,150.0,7.0,0.0
5790,47.0,167.0,150.0,8.0,0.0
5791,59.0,7.0,150.0,7.0,0.0
5792,47.0,185.0,150.0,8.0,0.0
5793,56.0,1.0,540.0,6.0,0.0
5794,68.0,2.0,540.0,0.0,0.0
5795,44.0,7.0,150.0,7.0,0.0
5796,68.0,2.0,540.0,4.0,0.0
5797,59.0,3.0,540.0,1.0,0.0
5798,47.0,0.0,540.0,1.0,0.0
5799,68.0,10.0,540.0,5.0,0.0
5800,32.0,185.0,150.0,8.0,0.0
5801,56.0,7.0,150.0,7.0,0.0
5802,44.0,167.0,150.0,8.0,0.0
5803,56.0,7.0,150.0,7.0,0.0
5804,44.0,183.0,150.0,8.0,0.0
5805,51.0,1.0,150.0,6.0,0.0
5806,63.0,1.0,150.0,0.0,0.0
5807,51.0,1.0,150.0,7.0,0.0
5808,63.0,2.0,150.0,4.0,0.0
5809,47.0,3.0,150.0,1.0,0.0
5810,59.0,0.0,150.0,1.0,0.0
5811,63.0,1.0,150.0,5.0,0.0
5812,39.0,55.0,150.0,8.0,0.0
5813,53.0,1.0,30.0,6.0,0.0
5814,65.0,1.0,30.0,0.0,0.0
5815,53.0,1.0,30.0,7.0,0.0
5816,65.0,5.0,30.0,4.0,0.0
5817,47.0,3.0,330.0,1.0,0.0
5818,59.0,0.0,330.0,1.0,0.0
5819,65.0,1.0,30.0,5.0,0.0
5820,41.0,23.0,30.0,8.0,0.0
5821,54.0,1.0,30.0,6.0,0.0
5822,66.0,1.0,30.0,0.0,0.0
5823,54.0,1.0,30.0,7.0,0.0
5824,66.0,5.0,30.0,4.0,0.0
5825,66.0,1.0,30.0,5.0,0.0
5826,42.0,23.0,30.0,8.0,0.0
5827,53.0,1.0,30.0,6.0,0.0
5828,65.0,1.0,30.0,0.0,0.0
5829,53.0,1.0,30.0,7.0,0.0
5830,65.0,5.0,30.0,4.0,0.0
5831,65.0,1.0,30.0,5.0,0.0
5832,41.0,23.0,30.0,8.0,0.0
5833,54.0,1.0,30.0,6.0,0.0
5834,66.0,1.0,30.0,0.0,0.0
5835,54.0,1.0,30.0,7.0,0.0
5836,66.0,5.0,30.0,4.0,0.0
5837,66.0,1.0,30.0,5.0,0.0
5838,42.0,23.0,30.0,8.0,0.0
5839,53.0,1.0,30.0,6.0,0.0
5840,65.0,1.0,30.0,0.0,0.0
5841,53.0,1.0,30.0,7.0,0.0
5842,65.0,5.0,30.0,4.0,0.0
5843,65.0,1.0,30.0,5.0,0.0
5844,41.0,23.0,30.0,8.0,0.0
5845,54.0,1.0,30.0,6.0,0.0
5846,66.0,1.0,30.0,0.0,0.0
5847,54.0,1.0,30.0,7.0,0.0
5848,66.0,5.0,30.0,4.0,0.0
5849,66.0,1.0,30.0,5.0,0.0
5850,42.0,23.0,30.0,8.0,0.0
5851,53.0,1.0,30.0,6.0,0.0
5852,65.0,1.0,30.0,0.0,0.0
5853,53.0,1.0,30.0,7.0,0.0
5854,65.0,5.0,30.0,4.0,0.0
5855,65.0,1.0,30.0,5.0,0.0
5856,41.0,23.0,30.0,8.0,0.0
5857,54.0,1.0,30.0,6.0,0.0
5858,66.0,1.0,30.0,0.0,0.0
5859,54.0,1.0,30.0,7.0,0.0
5860,66.0,5.0,30.0,4.0,0.0
5861,66.0,1.0,30.0,5.0,0.0
5862,42.0,23.0,30.0,8.0,0.0
5863,53.0,1.0,30.0,6.0,0.0
5864,65.0,1.0,30.0,0.0,0.0
5865,53.0,1.0,30.0,7.0,0.0
5866,65.0,5.0,30.0,4.0,0.0
5867,65.0,1.0,30.0,5.0,0.0
5868,41.0,39.0,30.0,8.0,0.0
5869,51.0,1.0,60.0,6.0,0.0
5870,63.0,1.0,60.0,0.0,0.0
5871,51.0,1.0,60.0,7.0,0.0
5872,63.0,2.0,60.0,4.0,0.0
5873,63.0,1.0,60.0,5.0,0.0
5874,39.0,37.0,60.0,8.0,0.0
5875,53.0,1.0,60.0,6.0,0.0
5876,65.0,1.0,60.0,0.0,0.0
5877,53.0,1.0,60.0,7.0,0.0
5878,65.0,5.0,60.0,4.0,0.0
5879,65.0,1.0,60.0,5.0,0.0
5880,41.0,521.0,60.0,8.0,0.0
5881,54.0,1.0,540.0,6.0,0.0
5882,66.0,1.0,540.0,0.0,0.0
5883,54.0,1.0,540.0,7.0,0.0
5884,66.0,2.0,540.0,4.0,0.0
5885,54.0,0.0,540.0,1.0,0.0
5886,42.0,3.0,540.0,1.0,0.0
5887,66.0,1.0,540.0,5.0,0.0
5888,42.0,202.0,540.0,8.0,0.0
5889,61.0,5.0,150.0,4.0,0.0
5890,58.0,59.0,150.0,5.0,0.0
5891,63.0,5.0,30.0,4.0,0.0
5892,60.0,27.0,30.0,5.0,0.0
5893,64.0,5.0,30.0,4.0,0.0
5894,61.0,27.0,30.0,5.0,0.0
5895,63.0,5.0,30.0,4.0,0.0
5896,60.0,27.0,30.0,5.0,0.0
5897,64.0,5.0,30.0,4.0,0.0
5898,61.0,27.0,30.0,5.0,0.0
5899,63.0,5.0,30.0,4.0,0.0
5900,60.0,27.0,30.0,5.0,0.0
5901,64.0,5.0,30.0,4.0,0.0
5902,61.0,27.0,30.0,5.0,0.0
5903,63.0,5.0,30.0,4.0,0.0
5904,60.0,27.0,30.0,5.0,0.0
5905,64.0,5.0,30.0,4.0,0.0
5906,61.0,27.0,30.0,5.0,0.0
5907,63.0,5.0,30.0,4.0,0.0
5908,60.0,43.0,30.0,5.0,0.0
5909,61.0,5.0,60.0,4.0,0.0
5910,58.0,41.0,60.0,5.0,0.0
5911,63.0,5.0,60.0,4.0,0.0
5912,60.0,285.0,60.0,5.0,0.0
5913,56.0,3.0,390.0,6.0,0.0
5914,40.0,7.0,570.0,7.0,0.0
5915,64.0,5.0,300.0,4.0,0.0
5916,61.0,88.0,300.0,5.0,0.0
5917,28.0,39.0,570.0,8.0,0.0
5918,66.0,5.0,90.0,4.0,0.0
5919,63.0,152.0,90.0,5.0,0.0
5920,49.0,3.0,150.0,6.0,0.0
5921,68.0,5.0,150.0,4.0,0.0
5922,64.0,26.0,150.0,5.0,0.0
5923,46.0,3.0,60.0,6.0,0.0
5924,42.0,7.0,540.0,7.0,0.0
5925,54.0,189.0,60.0,4.0,0.0
5926,54.0,40.0,390.0,5.0,0.0
5927,30.0,15.0,540.0,8.0,0.0
5928,47.0,3.0,60.0,6.0,0.0
5929,56.0,149.0,60.0,4.0,0.0
5930,49.0,3.0,60.0,6.0,0.0
5931,58.0,95.0,60.0,4.0,0.0
5932,52.0,123.0,150.0,5.0,0.0
5933,47.0,2.0,150.0,6.0,0.0
5934,35.0,6.0,150.0,7.0,0.0
5935,59.0,61.0,90.0,4.0,0.0
5936,51.0,1.0,150.0,5.0,0.0
5937,23.0,26.0,150.0,8.0,0.0
5938,63.0,96.0,90.0,4.0,0.0
5939,66.0,96.0,90.0,4.0,0.0
5940,71.0,96.0,90.0,4.0,0.0
5941,75.0,94.0,90.0,4.0,0.0
5942,71.0,30.0,90.0,4.0,0.0
5943,78.0,96.0,30.0,2.0,0.0
5944,78.0,4.0,150.0,4.0,0.0
5945,58.0,56.0,150.0,3.0,0.0
5946,61.0,0.0,150.0,3.0,0.0
5947,78.0,36.0,30.0,2.0,0.0
5948,78.0,96.0,30.0,2.0,0.0
5949,62.0,0.0,150.0,3.0,0.0
5950,59.0,56.0,150.0,3.0,0.0
5951,78.0,40.0,30.0,2.0,0.0
5952,78.0,96.0,30.0,2.0,0.0
5953,60.0,0.0,150.0,3.0,0.0
5954,63.0,120.0,150.0,3.0,0.0
5955,78.0,40.0,30.0,2.0,0.0
5956,78.0,96.0,90.0,2.0,0.0
5957,61.0,0.0,300.0,3.0,0.0
5958,64.0,88.0,300.0,3.0,0.0
5959,79.0,96.0,90.0,2.0,0.0
5960,80.0,8.0,90.0,2.0,0.0
5961,72.0,8.0,90.0,2.0,0.0
5962,63.0,0.0,90.0,3.0,0.0
5963,66.0,88.0,90.0,3.0,0.0
5964,73.0,72.0,90.0,2.0,0.0
5965,68.0,24.0,150.0,3.0,0.0
5966,64.0,0.0,150.0,3.0,0.0
5967,75.0,96.0,90.0,2.0,0.0
5968,76.0,96.0,90.0,2.0,0.0
5969,61.0,0.0,180.0,3.0,0.0
5970,58.0,88.0,180.0,3.0,0.0
5971,54.0,16.0,540.0,3.0,0.0
5972,73.0,8.0,90.0,2.0,0.0
5973,71.0,96.0,90.0,2.0,0.0
5974,63.0,0.0,180.0,3.0,0.0
5975,59.0,88.0,180.0,3.0,0.0
5976,70.0,8.0,90.0,2.0,0.0
5977,68.0,56.0,90.0,2.0,0.0
5978,64.0,0.0,150.0,3.0,0.0
5979,61.0,22.0,150.0,3.0,0.0
5980,66.0,26.0,90.0,2.0,0.0
5981,65.0,24.0,20.0,2.0,0.0
5982,63.0,22.0,150.0,3.0,0.0
5983,59.0,0.0,150.0,3.0,0.0
5984,66.0,24.0,20.0,2.0,0.0
5985,65.0,24.0,20.0,2.0,0.0
5986,66.0,72.0,20.0,2.0,0.0
5987,71.0,34.0,90.0,2.0,0.0
5988,66.0,96.0,30.0,2.0,0.0
5989,66.0,160.0,30.0,2.0,0.0
5990,66.0,94.0,90.0,2.0,0.0
5991,65.0,51.0,90.0,2.0,0.0
5992,64.0,96.0,90.0,2.0,0.0
5993,46.0,3.0,60.0,6.0,0.0
5994,54.0,44.0,60.0,4.0,0.0
5995,61.0,49.0,90.0,2.0,0.0
5996,59.0,96.0,90.0,2.0,0.0
5997,47.0,3.0,60.0,6.0,0.0
5998,56.0,44.0,60.0,4.0,0.0
5999,58.0,49.0,90.0,2.0,0.0
6000,56.0,94.0,90.0,2.0,0.0
6001,49.0,2.0,60.0,6.0,0.0
6002,42.0,1.0,60.0,7.0,0.0
6003,58.0,5.0,60.0,4.0,0.0
6004,52.0,1.0,60.0,5.0,0.0
6005,30.0,38.0,60.0,8.0,0.0
6006,54.0,26.0,90.0,2.0,0.0
6007,52.0,24.0,20.0,2.0,0.0
6008,47.0,2.0,60.0,6.0,0.0
6009,47.0,1.0,60.0,7.0,0.0
6010,59.0,5.0,60.0,4.0,0.0
6011,51.0,1.0,60.0,5.0,0.0
6012,35.0,14.0,60.0,8.0,0.0
6013,54.0,1.0,20.0,2.0,0.0
6014,52.0,24.0,20.0,2.0,0.0
6015,54.0,94.0,20.0,2.0,0.0
6016,59.0,34.0,90.0,2.0,0.0
6017,54.0,96.0,30.0,2.0,0.0
6018,54.0,160.0,30.0,2.0,0.0
6019,54.0,94.0,90.0,2.0,0.0
6020,53.0,54.0,90.0,2.0,0.0
6021,66.0,5.0,60.0,4.0,0.0
6022,52.0,96.0,90.0,3.0,0.0
6023,58.0,47.0,60.0,5.0,0.0
6024,49.0,44.0,90.0,3.0,0.0
6025,68.0,5.0,60.0,4.0,0.0
6026,47.0,96.0,90.0,3.0,0.0
6027,59.0,47.0,60.0,5.0,0.0
6028,46.0,41.0,90.0,3.0,0.0
6029,64.0,2.0,60.0,6.0,0.0
6030,42.0,1.0,60.0,7.0,0.0
6031,70.0,5.0,60.0,4.0,0.0
6032,44.0,94.0,90.0,3.0,0.0
6033,61.0,1.0,60.0,5.0,0.0
6034,30.0,46.0,60.0,8.0,0.0
6035,42.0,43.0,90.0,3.0,0.0
6036,47.0,40.0,150.0,2.0,0.0
6037,63.0,2.0,60.0,6.0,0.0
6038,35.0,1.0,60.0,7.0,0.0
6039,71.0,5.0,60.0,4.0,0.0
6040,59.0,1.0,60.0,5.0,0.0
6041,23.0,46.0,60.0,8.0,0.0
6042,35.0,48.0,60.0,3.0,0.0
6043,37.0,8.0,60.0,3.0,0.0
6044,39.0,48.0,60.0,3.0,0.0
6045,40.0,48.0,60.0,3.0,0.0
6046,42.0,48.0,60.0,3.0,0.0
6047,44.0,48.0,60.0,3.0,0.0
6048,46.0,48.0,60.0,3.0,0.0
6049,47.0,48.0,60.0,3.0,0.0
6050,46.0,48.0,60.0,3.0,0.0
6051,47.0,48.0,60.0,3.0,0.0
6052,46.0,88.0,60.0,3.0,0.0
6053,57.0,3.0,180.0,6.0,0.0
6054,66.0,5.0,180.0,4.0,0.0
6055,47.0,24.0,150.0,3.0,0.0
6056,63.0,39.0,180.0,5.0,0.0
6057,59.0,48.0,60.0,2.0,0.0
6058,61.0,24.0,60.0,2.0,0.0
6059,63.0,1.0,60.0,2.0,0.0
6060,64.0,48.0,60.0,2.0,0.0
6061,56.0,3.0,180.0,6.0,0.0
6062,68.0,5.0,180.0,4.0,0.0
6063,64.0,39.0,180.0,5.0,0.0
6064,66.0,48.0,60.0,2.0,0.0
6065,68.0,48.0,60.0,2.0,0.0
6066,70.0,1.0,60.0,2.0,0.0
6067,71.0,48.0,60.0,2.0,0.0
6068,51.0,3.0,150.0,6.0,0.0
6069,69.0,5.0,150.0,4.0,0.0
6070,66.0,23.0,150.0,5.0,0.0
6071,70.0,48.0,60.0,2.0,0.0
6072,71.0,17.0,60.0,2.0,0.0
6073,70.0,104.0,60.0,2.0,0.0
6074,71.0,1.0,150.0,2.0,0.0
6075,52.0,2.0,150.0,6.0,0.0
6076,47.0,1.0,150.0,7.0,0.0
6077,68.0,5.0,150.0,4.0,0.0
6078,64.0,1.0,150.0,5.0,0.0
6079,35.0,30.0,150.0,8.0,0.0
6080,47.0,48.0,60.0,3.0,0.0
6081,49.0,8.0,60.0,3.0,0.0
6082,51.0,48.0,60.0,3.0,0.0
6083,52.0,48.0,60.0,3.0,0.0
6084,54.0,48.0,60.0,3.0,0.0
6085,56.0,48.0,60.0,3.0,0.0
6086,58.0,48.0,60.0,3.0,0.0
6087,59.0,48.0,60.0,3.0,0.0
6088,58.0,48.0,60.0,3.0,0.0
6089,59.0,48.0,60.0,3.0,0.0
6090,58.0,88.0,60.0,3.0,0.0
6091,71.0,5.0,180.0,4.0,0.0
6092,59.0,24.0,150.0,3.0,0.0
6093,68.0,39.0,180.0,5.0,0.0
6094,71.0,48.0,60.0,2.0,0.0
6095,73.0,24.0,60.0,2.0,0.0
6096,75.0,4.0,60.0,2.0,0.0
6097,76.0,48.0,60.0,2.0,0.0
6098,69.0,5.0,180.0,4.0,0.0
6099,66.0,39.0,180.0,5.0,0.0
6100,78.0,48.0,60.0,2.0,0.0
6101,80.0,48.0,60.0,2.0,0.0
6102,82.0,4.0,60.0,2.0,0.0
6103,83.0,48.0,60.0,2.0,0.0
6104,68.0,5.0,150.0,4.0,0.0
6105,65.0,23.0,150.0,5.0,0.0
6106,82.0,48.0,60.0,2.0,0.0
6107,83.0,20.0,60.0,2.0,0.0
6108,82.0,1.0,60.0,2.0,0.0
6109,83.0,1.0,150.0,2.0,0.0
6110,59.0,103.0,15.0,6.0,0.0
6111,47.0,1.0,150.0,7.0,0.0
6112,69.0,5.0,150.0,4.0,0.0
6113,66.0,1.0,150.0,5.0,0.0
6114,35.0,30.0,150.0,8.0,0.0
6115,35.0,48.0,60.0,3.0,0.0
6116,37.0,8.0,60.0,3.0,0.0
6117,39.0,48.0,60.0,3.0,0.0
6118,40.0,48.0,60.0,3.0,0.0
6119,42.0,48.0,60.0,3.0,0.0
6120,44.0,48.0,60.0,3.0,0.0
6121,46.0,48.0,60.0,3.0,0.0
6122,47.0,48.0,60.0,3.0,0.0
6123,46.0,48.0,60.0,3.0,0.0
6124,47.0,48.0,60.0,3.0,0.0
6125,45.0,88.0,60.0,3.0,0.0
6126,60.0,3.0,390.0,6.0,0.0
6127,44.0,7.0,570.0,7.0,0.0
6128,69.0,5.0,180.0,4.0,0.0
6129,44.0,24.0,150.0,3.0,0.0
6130,66.0,39.0,180.0,5.0,0.0
6131,32.0,39.0,570.0,8.0,0.0
6132,60.0,48.0,60.0,2.0,0.0
6133,61.0,24.0,60.0,2.0,0.0
6134,63.0,4.0,60.0,2.0,0.0
6135,64.0,48.0,60.0,2.0,0.0
6136,68.0,5.0,180.0,4.0,0.0
6137,64.0,39.0,180.0,5.0,0.0
6138,66.0,48.0,60.0,2.0,0.0
6139,68.0,48.0,60.0,2.0,0.0
6140,70.0,1.0,60.0,2.0,0.0
6141,72.0,48.0,60.0,2.0,0.0
6142,54.0,3.0,150.0,6.0,0.0
6143,66.0,5.0,150.0,4.0,0.0
6144,63.0,23.0,150.0,5.0,0.0
6145,73.0,48.0,60.0,2.0,0.0
6146,70.0,17.0,60.0,2.0,0.0
6147,72.0,3.0,60.0,2.0,0.0
6148,73.0,3.0,150.0,2.0,0.0
6149,56.0,3.0,60.0,6.0,0.0
6150,37.0,6.0,150.0,7.0,0.0
6151,65.0,45.0,60.0,4.0,0.0
6152,61.0,1.0,150.0,5.0,0.0
6153,25.0,23.0,150.0,8.0,0.0
6154,49.0,3.0,60.0,6.0,0.0
6155,61.0,45.0,60.0,4.0,0.0
6156,51.0,3.0,60.0,6.0,0.0
6157,63.0,12.0,60.0,4.0,0.0
6158,53.0,3.0,60.0,6.0,0.0
6159,65.0,45.0,60.0,4.0,0.0
6160,54.0,3.0,60.0,6.0,0.0
6161,66.0,45.0,60.0,4.0,0.0
6162,56.0,3.0,60.0,6.0,0.0
6163,68.0,45.0,60.0,4.0,0.0
6164,58.0,3.0,60.0,6.0,0.0
6165,70.0,45.0,60.0,4.0,0.0
6166,60.0,3.0,60.0,6.0,0.0
6167,72.0,45.0,60.0,4.0,0.0
6168,61.0,3.0,60.0,6.0,0.0
6169,73.0,45.0,60.0,4.0,0.0
6170,60.0,3.0,60.0,6.0,0.0
6171,72.0,45.0,60.0,4.0,0.0
6172,61.0,3.0,60.0,6.0,0.0
6173,73.0,45.0,60.0,4.0,0.0
6174,60.0,3.0,60.0,6.0,0.0
6175,72.0,44.0,60.0,4.0,0.0
6176,68.0,48.0,60.0,2.0,0.0
6177,61.0,3.0,150.0,6.0,0.0
6178,73.0,28.0,150.0,4.0,0.0
6179,59.0,0.0,180.0,3.0,0.0
6180,49.0,0.0,750.0,3.0,0.0
6181,56.0,40.0,180.0,3.0,0.0
6182,65.0,48.0,60.0,2.0,0.0
6183,61.0,17.0,60.0,2.0,0.0
6184,68.0,8.0,60.0,2.0,0.0
6185,69.0,48.0,60.0,2.0,0.0
6186,57.0,0.0,180.0,3.0,0.0
6187,54.0,40.0,180.0,3.0,0.0
6188,66.0,48.0,60.0,2.0,0.0
6189,61.0,48.0,60.0,2.0,0.0
6190,69.0,8.0,60.0,2.0,0.0
6191,71.0,48.0,60.0,2.0,0.0
6192,56.0,0.0,150.0,3.0,0.0
6193,53.0,24.0,150.0,3.0,0.0
6194,68.0,48.0,60.0,2.0,0.0
6195,61.0,24.0,60.0,2.0,0.0
6196,71.0,97.0,60.0,2.0,0.0
6197,69.0,3.0,150.0,2.0,0.0
6198,49.0,5.0,150.0,7.0,0.0
6199,54.0,0.0,150.0,3.0,0.0
6200,57.0,2.0,150.0,3.0,0.0
6201,37.0,23.0,150.0,8.0,0.0
6202,49.0,3.0,60.0,6.0,0.0
6203,61.0,45.0,60.0,4.0,0.0
6204,51.0,3.0,60.0,6.0,0.0
6205,63.0,12.0,60.0,4.0,0.0
6206,53.0,3.0,60.0,6.0,0.0
6207,65.0,45.0,60.0,4.0,0.0
6208,54.0,3.0,60.0,6.0,0.0
6209,66.0,45.0,60.0,4.0,0.0
6210,56.0,3.0,60.0,6.0,0.0
6211,68.0,45.0,60.0,4.0,0.0
6212,57.0,3.0,60.0,6.0,0.0
6213,69.0,45.0,60.0,4.0,0.0
6214,59.0,3.0,60.0,6.0,0.0
6215,71.0,45.0,60.0,4.0,0.0
6216,61.0,3.0,60.0,6.0,0.0
6217,73.0,45.0,60.0,4.0,0.0
6218,60.0,3.0,60.0,6.0,0.0
6219,72.0,45.0,60.0,4.0,0.0
6220,61.0,3.0,60.0,6.0,0.0
6221,73.0,45.0,60.0,4.0,0.0
6222,60.0,3.0,60.0,6.0,0.0
6223,72.0,44.0,60.0,4.0,0.0
6224,73.0,48.0,60.0,2.0,0.0
6225,61.0,3.0,150.0,6.0,0.0
6226,73.0,28.0,150.0,4.0,0.0
6227,54.0,0.0,180.0,3.0,0.0
6228,57.0,40.0,180.0,3.0,0.0
6229,49.0,16.0,540.0,3.0,0.0
6230,69.0,48.0,60.0,2.0,0.0
6231,61.0,17.0,60.0,2.0,0.0
6232,73.0,8.0,60.0,2.0,0.0
6233,71.0,48.0,60.0,2.0,0.0
6234,59.0,0.0,180.0,3.0,0.0
6235,56.0,40.0,180.0,3.0,0.0
6236,68.0,48.0,60.0,2.0,0.0
6237,61.0,48.0,60.0,2.0,0.0
6238,71.0,8.0,60.0,2.0,0.0
6239,69.0,48.0,60.0,2.0,0.0
6240,57.0,24.0,150.0,3.0,0.0
6241,61.0,0.0,150.0,3.0,0.0
6242,66.0,48.0,60.0,2.0,0.0
6243,61.0,8.0,60.0,2.0,0.0
6244,69.0,97.0,60.0,2.0,0.0
6245,71.0,3.0,150.0,2.0,0.0
6246,49.0,5.0,150.0,7.0,0.0
6247,56.0,2.0,150.0,3.0,0.0
6248,53.0,0.0,150.0,3.0,0.0
6249,49.0,0.0,150.0,3.0,0.0
6250,37.0,23.0,150.0,8.0,0.0
6251,49.0,3.0,60.0,6.0,0.0
6252,61.0,45.0,60.0,4.0,0.0
6253,51.0,3.0,60.0,6.0,0.0
6254,63.0,12.0,60.0,4.0,0.0
6255,53.0,3.0,60.0,6.0,0.0
6256,65.0,45.0,60.0,4.0,0.0
6257,54.0,3.0,60.0,6.0,0.0
6258,66.0,45.0,60.0,4.0,0.0
6259,56.0,3.0,60.0,6.0,0.0
6260,68.0,45.0,60.0,4.0,0.0
6261,57.0,3.0,60.0,6.0,0.0
6262,69.0,45.0,60.0,4.0,0.0
6263,59.0,3.0,60.0,6.0,0.0
6264,71.0,45.0,60.0,4.0,0.0
6265,61.0,3.0,60.0,6.0,0.0
6266,73.0,45.0,60.0,4.0,0.0
6267,60.0,3.0,60.0,6.0,0.0
6268,72.0,45.0,60.0,4.0,0.0
6269,61.0,3.0,60.0,6.0,0.0
6270,73.0,43.0,60.0,4.0,0.0
6271,60.0,3.0,60.0,6.0,0.0
6272,72.0,46.0,60.0,4.0,0.0
6273,71.0,48.0,60.0,2.0,0.0
6274,61.0,2.0,180.0,6.0,0.0
6275,49.0,1.0,180.0,7.0,0.0
6276,73.0,5.0,180.0,4.0,0.0
6277,49.0,0.0,150.0,3.0,0.0
6278,53.0,24.0,150.0,3.0,0.0
6279,56.0,0.0,150.0,3.0,0.0
6280,65.0,1.0,180.0,5.0,0.0
6281,37.0,38.0,180.0,8.0,0.0
6282,68.0,48.0,60.0,2.0,0.0
6283,61.0,24.0,60.0,2.0,0.0
6284,71.0,1.0,60.0,2.0,0.0
6285,70.0,48.0,60.0,2.0,0.0
6286,66.0,8.0,180.0,6.0,0.0
6287,46.0,1.0,330.0,7.0,0.0
6288,74.0,4.0,330.0,4.0,0.0
6289,46.0,2.0,330.0,3.0,0.0
6290,58.0,0.0,330.0,3.0,0.0
6291,70.0,39.0,180.0,5.0,0.0
6292,34.0,7.0,330.0,8.0,0.0
6293,66.0,48.0,60.0,2.0,0.0
6294,62.0,48.0,60.0,2.0,0.0
6295,70.0,1.0,60.0,2.0,0.0
6296,68.0,48.0,60.0,2.0,0.0
6297,65.0,8.0,150.0,6.0,0.0
6298,68.0,23.0,150.0,5.0,0.0
6299,65.0,48.0,60.0,2.0,0.0
6300,62.0,3.0,60.0,2.0,0.0
6301,68.0,48.0,60.0,2.0,0.0
6302,66.0,48.0,60.0,2.0,0.0
6303,63.0,2.0,150.0,6.0,0.0
6304,39.0,1.0,150.0,7.0,0.0
6305,75.0,4.0,150.0,4.0,0.0
6306,51.0,1.0,150.0,3.0,0.0
6307,66.0,1.0,150.0,5.0,0.0
6308,27.0,22.0,150.0,8.0,0.0
6309,68.0,48.0,60.0,2.0,0.0
6310,66.0,17.0,60.0,2.0,0.0
6311,65.0,48.0,60.0,2.0,0.0
6312,66.0,48.0,60.0,2.0,0.0
6313,63.0,48.0,60.0,2.0,0.0
6314,70.0,48.0,60.0,2.0,0.0
6315,39.0,42.0,90.0,3.0,0.0
6316,66.0,6.0,60.0,2.0,0.0
6317,75.0,48.0,60.0,2.0,0.0
6318,51.0,42.0,90.0,3.0,0.0
6319,72.0,6.0,60.0,2.0,0.0
6320,76.0,48.0,60.0,2.0,0.0
6321,49.0,42.0,90.0,3.0,0.0
6322,73.0,6.0,60.0,2.0,0.0
6323,78.0,48.0,60.0,2.0,0.0
6324,48.0,24.0,150.0,3.0,0.0
6325,76.0,48.0,60.0,2.0,0.0
6326,75.0,24.0,60.0,2.0,0.0
6327,76.0,48.0,60.0,2.0,0.0
6328,75.0,48.0,60.0,2.0,0.0
6329,78.0,2.0,180.0,4.0,0.0
6330,75.0,39.0,180.0,5.0,0.0
6331,73.0,48.0,60.0,2.0,0.0
6332,72.0,48.0,60.0,2.0,0.0
6333,51.0,3.0,90.0,3.0,0.0
6334,73.0,4.0,60.0,2.0,0.0
6335,72.0,48.0,60.0,2.0,0.0
6336,66.0,5.0,150.0,4.0,0.0
6337,44.0,42.0,90.0,3.0,0.0
6338,63.0,23.0,150.0,5.0,0.0
6339,69.0,6.0,60.0,2.0,0.0
6340,68.0,20.0,60.0,2.0,0.0
6341,48.0,42.0,90.0,3.0,0.0
6342,66.0,6.0,60.0,2.0,0.0
6343,64.0,48.0,60.0,2.0,0.0
6344,64.0,4.0,150.0,4.0,0.0
6345,49.0,1.0,150.0,3.0,0.0
6346,61.0,23.0,150.0,5.0,0.0
6347,66.0,48.0,60.0,2.0,0.0
6348,64.0,20.0,60.0,2.0,0.0
6349,63.0,48.0,60.0,2.0,0.0
6350,64.0,48.0,60.0,2.0,0.0
6351,61.0,48.0,60.0,2.0,0.0
6352,68.0,48.0,60.0,2.0,0.0
6353,37.0,42.0,90.0,3.0,0.0
6354,64.0,6.0,60.0,2.0,0.0
6355,73.0,48.0,60.0,2.0,0.0
6356,49.0,42.0,90.0,3.0,0.0
6357,70.0,6.0,60.0,2.0,0.0
6358,75.0,48.0,60.0,2.0,0.0
6359,47.0,42.0,90.0,3.0,0.0
6360,71.0,6.0,60.0,2.0,0.0
6361,76.0,48.0,60.0,2.0,0.0
6362,46.0,24.0,150.0,3.0,0.0
6363,75.0,48.0,60.0,2.0,0.0
6364,73.0,24.0,60.0,2.0,0.0
6365,75.0,48.0,60.0,2.0,0.0
6366,73.0,48.0,60.0,2.0,0.0
6367,76.0,2.0,180.0,4.0,0.0
6368,73.0,39.0,180.0,5.0,0.0
6369,71.0,48.0,60.0,2.0,0.0
6370,70.0,48.0,60.0,2.0,0.0
6371,49.0,3.0,90.0,3.0,0.0
6372,71.0,4.0,60.0,2.0,0.0
6373,70.0,48.0,60.0,2.0,0.0
6374,64.0,5.0,150.0,4.0,0.0
6375,42.0,42.0,90.0,3.0,0.0
6376,61.0,23.0,150.0,5.0,0.0
6377,68.0,6.0,60.0,2.0,0.0
6378,66.0,20.0,60.0,2.0,0.0
6379,46.0,42.0,90.0,3.0,0.0
6380,64.0,6.0,60.0,2.0,0.0
6381,63.0,48.0,60.0,2.0,0.0
6382,63.0,4.0,150.0,4.0,0.0
6383,47.0,1.0,150.0,3.0,0.0
6384,59.0,23.0,150.0,5.0,0.0
6385,66.0,48.0,60.0,2.0,0.0
6386,68.0,20.0,60.0,2.0,0.0
6387,66.0,48.0,60.0,2.0,0.0
6388,71.0,48.0,60.0,2.0,0.0
6389,70.0,48.0,60.0,2.0,0.0
6390,68.0,48.0,60.0,2.0,0.0
6391,35.0,42.0,90.0,3.0,0.0
6392,66.0,6.0,60.0,2.0,0.0
6393,64.0,48.0,60.0,2.0,0.0
6394,37.0,42.0,90.0,3.0,0.0
6395,63.0,6.0,60.0,2.0,0.0
6396,61.0,48.0,60.0,2.0,0.0
6397,39.0,42.0,90.0,3.0,0.0
6398,60.0,6.0,60.0,2.0,0.0
6399,61.0,48.0,60.0,2.0,0.0
6400,40.0,24.0,150.0,3.0,0.0
6401,64.0,48.0,60.0,2.0,0.0
6402,66.0,24.0,60.0,2.0,0.0
6403,64.0,48.0,60.0,2.0,0.0
6404,68.0,48.0,60.0,2.0,0.0
6405,66.0,48.0,60.0,2.0,0.0
6406,64.0,48.0,60.0,2.0,0.0
6407,37.0,42.0,90.0,3.0,0.0
6408,63.0,6.0,60.0,2.0,0.0
6409,61.0,48.0,60.0,2.0,0.0
6410,39.0,42.0,90.0,3.0,0.0
6411,59.0,6.0,60.0,2.0,0.0
6412,58.0,48.0,60.0,2.0,0.0
6413,40.0,162.0,90.0,3.0,0.0
6414,59.0,6.0,60.0,2.0,0.0
6415,58.0,0.0,180.0,2.0,0.0
6416,61.0,0.0,180.0,2.0,0.0
6417,66.0,4.0,180.0,2.0,0.0
6418,42.0,24.0,150.0,3.0,0.0
6419,68.0,5.0,90.0,4.0,0.0
6420,64.0,91.0,90.0,5.0,0.0
6421,54.0,4.0,180.0,2.0,0.0
6422,66.0,5.0,90.0,4.0,0.0
6423,63.0,87.0,90.0,5.0,0.0
6424,63.0,5.0,90.0,4.0,0.0
6425,59.0,91.0,90.0,5.0,0.0
6426,64.0,5.0,90.0,4.0,0.0
6427,61.0,89.0,90.0,5.0,0.0
6428,61.0,5.0,90.0,4.0,0.0
6429,58.0,95.0,90.0,5.0,0.0
6430,78.0,6.0,390.0,2.0,0.0
6431,59.0,5.0,150.0,4.0,0.0
6432,59.0,62.0,90.0,3.0,0.0
6433,59.0,29.0,150.0,5.0,0.0
6434,66.0,96.0,90.0,3.0,0.0
6435,63.0,90.0,90.0,3.0,0.0
6436,66.0,18.0,90.0,3.0,0.0
6437,80.0,72.0,20.0,2.0,0.0
6438,59.0,42.0,90.0,3.0,0.0
6439,78.0,6.0,60.0,2.0,0.0
6440,76.0,48.0,60.0,2.0,0.0
6441,66.0,96.0,90.0,3.0,0.0
6442,75.0,6.0,60.0,2.0,0.0
6443,81.0,6.0,180.0,2.0,0.0
6444,60.0,90.0,90.0,3.0,0.0
6445,68.0,96.0,90.0,3.0,0.0
6446,80.0,6.0,180.0,2.0,0.0
6447,63.0,90.0,90.0,3.0,0.0
6448,68.0,96.0,90.0,3.0,0.0
6449,75.0,6.0,180.0,2.0,0.0
6450,60.0,90.0,90.0,3.0,0.0
6451,68.0,90.0,90.0,3.0,0.0
6452,78.0,6.0,90.0,2.0,0.0
6453,80.0,2.0,960.0,4.0,0.0
6454,61.0,88.0,90.0,3.0,0.0
6455,68.0,93.0,960.0,5.0,0.0
6456,76.0,8.0,90.0,2.0,0.0
6457,68.0,96.0,90.0,3.0,0.0
6458,64.0,96.0,90.0,3.0,0.0
6459,68.0,90.0,90.0,3.0,0.0
6460,80.0,6.0,90.0,2.0,0.0
6461,60.0,88.0,90.0,3.0,0.0
6462,75.0,8.0,90.0,2.0,0.0
6463,68.0,90.0,90.0,3.0,0.0
6464,78.0,6.0,90.0,2.0,0.0
6465,61.0,88.0,90.0,3.0,0.0
6466,76.0,8.0,90.0,2.0,0.0
6467,68.0,96.0,90.0,3.0,0.0
6468,64.0,94.0,90.0,3.0,0.0
6469,68.0,3.0,90.0,3.0,0.0
6470,79.0,5.0,150.0,4.0,0.0
6471,59.0,62.0,90.0,3.0,0.0
6472,67.0,29.0,150.0,5.0,0.0
6473,67.0,96.0,90.0,3.0,0.0
6474,76.0,6.0,300.0,2.0,0.0
6475,78.0,5.0,150.0,4.0,0.0
6476,58.0,62.0,90.0,3.0,0.0
6477,66.0,29.0,150.0,5.0,0.0
6478,66.0,90.0,90.0,3.0,0.0
6479,61.0,42.0,90.0,3.0,0.0
6480,75.0,48.0,60.0,2.0,0.0
6481,66.0,18.0,90.0,3.0,0.0
6482,76.0,6.0,60.0,2.0,0.0
6483,78.0,72.0,20.0,2.0,0.0
6484,58.0,42.0,90.0,3.0,0.0
6485,76.0,6.0,60.0,2.0,0.0
6486,75.0,48.0,60.0,2.0,0.0
6487,66.0,96.0,90.0,3.0,0.0
6488,73.0,6.0,60.0,2.0,0.0
6489,85.0,6.0,180.0,2.0,0.0
6490,58.0,90.0,90.0,3.0,0.0
6491,66.0,96.0,90.0,3.0,0.0
6492,73.0,6.0,180.0,2.0,0.0
6493,61.0,90.0,90.0,3.0,0.0
6494,66.0,96.0,90.0,3.0,0.0
6495,78.0,6.0,180.0,2.0,0.0
6496,58.0,90.0,90.0,3.0,0.0
6497,66.0,90.0,90.0,3.0,0.0
6498,76.0,6.0,90.0,2.0,0.0
6499,78.0,26.0,750.0,4.0,0.0
6500,59.0,88.0,90.0,3.0,0.0
6501,66.0,93.0,960.0,5.0,0.0
6502,75.0,8.0,90.0,2.0,0.0
6503,66.0,96.0,90.0,3.0,0.0
6504,63.0,96.0,90.0,3.0,0.0
6505,66.0,90.0,90.0,3.0,0.0
6506,78.0,6.0,90.0,2.0,0.0
6507,58.0,88.0,90.0,3.0,0.0
6508,73.0,8.0,90.0,2.0,0.0
6509,66.0,90.0,90.0,3.0,0.0
6510,76.0,6.0,90.0,2.0,0.0
6511,59.0,62.0,90.0,3.0,0.0
6512,75.0,8.0,90.0,2.0,0.0
6513,66.0,96.0,90.0,3.0,0.0
6514,71.0,2.0,180.0,4.0,0.0
6515,63.0,94.0,90.0,3.0,0.0
6516,66.0,3.0,90.0,3.0,0.0
6517,75.0,5.0,150.0,4.0,0.0
6518,56.0,62.0,90.0,3.0,0.0
6519,71.0,29.0,150.0,5.0,0.0
6520,59.0,96.0,90.0,3.0,0.0
6521,73.0,6.0,300.0,2.0,0.0
6522,64.0,2.0,150.0,6.0,0.0
6523,52.0,1.0,150.0,7.0,0.0
6524,73.0,5.0,150.0,4.0,0.0
6525,52.0,59.0,90.0,3.0,0.0
6526,68.0,1.0,150.0,5.0,0.0
6527,40.0,28.0,150.0,8.0,0.0
6528,61.0,90.0,90.0,3.0,0.0
6529,56.0,42.0,90.0,3.0,0.0
6530,76.0,48.0,60.0,2.0,0.0
6531,61.0,18.0,90.0,3.0,0.0
6532,75.0,6.0,60.0,2.0,0.0
6533,78.0,72.0,20.0,2.0,0.0
6534,52.0,42.0,90.0,3.0,0.0
6535,76.0,6.0,60.0,2.0,0.0
6536,75.0,48.0,60.0,2.0,0.0
6537,61.0,96.0,90.0,3.0,0.0
6538,73.0,6.0,60.0,2.0,0.0
6539,79.0,6.0,180.0,2.0,0.0
6540,61.0,2.0,150.0,6.0,0.0
6541,53.0,1.0,150.0,7.0,0.0
6542,71.0,5.0,150.0,4.0,0.0
6543,53.0,59.0,90.0,3.0,0.0
6544,68.0,1.0,150.0,5.0,0.0
6545,41.0,22.0,150.0,8.0,0.0
6546,61.0,96.0,90.0,3.0,0.0
6547,80.0,6.0,180.0,2.0,0.0
6548,59.0,90.0,90.0,3.0,0.0
6549,61.0,96.0,90.0,3.0,0.0
6550,71.0,38.0,150.0,2.0,0.0
6551,53.0,58.0,90.0,3.0,0.0
6552,61.0,18.0,90.0,3.0,0.0
6553,70.0,24.0,20.0,2.0,0.0
6554,61.0,2.0,150.0,6.0,0.0
6555,54.0,1.0,150.0,7.0,0.0
6556,70.0,4.0,150.0,4.0,0.0
6557,54.0,1.0,150.0,3.0,0.0
6558,66.0,1.0,150.0,5.0,0.0
6559,42.0,20.0,150.0,8.0,0.0
6560,73.0,113.0,20.0,2.0,0.0
6561,78.0,34.0,150.0,2.0,0.0
6562,78.0,4.0,30.0,2.0,0.0
6563,70.0,5.0,30.0,4.0,0.0
6564,66.0,87.0,30.0,5.0,0.0
6565,78.0,4.0,30.0,2.0,0.0
6566,71.0,5.0,30.0,4.0,0.0
6567,68.0,87.0,30.0,5.0,0.0
6568,78.0,4.0,30.0,2.0,0.0
6569,73.0,5.0,30.0,4.0,0.0
6570,70.0,87.0,30.0,5.0,0.0
6571,78.0,4.0,30.0,2.0,0.0
6572,75.0,5.0,30.0,4.0,0.0
6573,71.0,87.0,30.0,5.0,0.0
6574,78.0,63.0,30.0,2.0,0.0
6575,66.0,2.0,90.0,6.0,0.0
6576,58.0,3.0,90.0,7.0,0.0
6577,78.0,4.0,90.0,4.0,0.0
6578,75.0,23.0,90.0,5.0,0.0
6579,46.0,1.0,90.0,8.0,0.0
6580,78.0,66.0,30.0,2.0,0.0
6581,76.0,5.0,90.0,4.0,0.0
6582,73.0,25.0,90.0,5.0,0.0
6583,78.0,63.0,30.0,2.0,0.0
6584,66.0,2.0,90.0,6.0,0.0
6585,59.0,3.0,90.0,7.0,0.0
6586,76.0,4.0,90.0,4.0,0.0
6587,73.0,23.0,90.0,5.0,0.0
6588,47.0,1.0,90.0,8.0,0.0
6589,78.0,66.0,30.0,2.0,0.0
6590,75.0,5.0,90.0,4.0,0.0
6591,71.0,25.0,90.0,5.0,0.0
6592,78.0,63.0,30.0,2.0,0.0
6593,66.0,2.0,90.0,6.0,0.0
6594,47.0,3.0,90.0,7.0,0.0
6595,75.0,4.0,90.0,4.0,0.0
6596,71.0,23.0,90.0,5.0,0.0
6597,35.0,1.0,90.0,8.0,0.0
6598,78.0,66.0,30.0,2.0,0.0
6599,73.0,5.0,90.0,4.0,0.0
6600,70.0,17.0,90.0,5.0,0.0
6601,85.0,24.0,20.0,2.0,0.0
6602,66.0,2.0,150.0,6.0,0.0
6603,54.0,1.0,150.0,7.0,0.0
6604,73.0,4.0,150.0,4.0,0.0
6605,54.0,1.0,150.0,3.0,0.0
6606,42.0,0.0,150.0,3.0,0.0
6607,70.0,1.0,150.0,5.0,0.0
6608,42.0,20.0,150.0,8.0,0.0
6609,82.0,113.0,20.0,2.0,0.0
6610,78.0,34.0,150.0,2.0,0.0
6611,66.0,4.0,30.0,2.0,0.0
6612,58.0,5.0,30.0,4.0,0.0
6613,54.0,87.0,30.0,5.0,0.0
6614,66.0,4.0,30.0,2.0,0.0
6615,59.0,5.0,30.0,4.0,0.0
6616,56.0,87.0,30.0,5.0,0.0
6617,66.0,4.0,30.0,2.0,0.0
6618,61.0,5.0,30.0,4.0,0.0
6619,58.0,87.0,30.0,5.0,0.0
6620,66.0,4.0,30.0,2.0,0.0
6621,63.0,5.0,30.0,4.0,0.0
6622,59.0,87.0,30.0,5.0,0.0
6623,66.0,63.0,30.0,2.0,0.0
6624,54.0,2.0,90.0,6.0,0.0
6625,46.0,3.0,90.0,7.0,0.0
6626,66.0,4.0,90.0,4.0,0.0
6627,63.0,23.0,90.0,5.0,0.0
6628,34.0,1.0,90.0,8.0,0.0
6629,66.0,66.0,30.0,2.0,0.0
6630,64.0,5.0,90.0,4.0,0.0
6631,61.0,25.0,90.0,5.0,0.0
6632,66.0,63.0,30.0,2.0,0.0
6633,54.0,2.0,90.0,6.0,0.0
6634,47.0,3.0,90.0,7.0,0.0
6635,64.0,4.0,90.0,4.0,0.0
6636,61.0,23.0,90.0,5.0,0.0
6637,35.0,1.0,90.0,8.0,0.0
6638,66.0,66.0,30.0,2.0,0.0
6639,63.0,5.0,90.0,4.0,0.0
6640,59.0,25.0,90.0,5.0,0.0
6641,66.0,63.0,30.0,2.0,0.0
6642,54.0,2.0,90.0,6.0,0.0
6643,35.0,3.0,90.0,7.0,0.0
6644,63.0,4.0,90.0,4.0,0.0
6645,59.0,23.0,90.0,5.0,0.0
6646,23.0,1.0,90.0,8.0,0.0
6647,66.0,66.0,30.0,2.0,0.0
6648,61.0,5.0,90.0,4.0,0.0
6649,58.0,17.0,90.0,5.0,0.0
6650,73.0,24.0,20.0,2.0,0.0
6651,54.0,2.0,150.0,6.0,0.0
6652,42.0,1.0,150.0,7.0,0.0
6653,61.0,4.0,150.0,4.0,0.0
6654,42.0,1.0,150.0,3.0,0.0
6655,30.0,0.0,150.0,3.0,0.0
6656,58.0,1.0,150.0,5.0,0.0
6657,30.0,20.0,150.0,8.0,0.0
6658,70.0,113.0,20.0,2.0,0.0
6659,66.0,34.0,150.0,2.0,0.0
6660,66.0,96.0,30.0,2.0,0.0
6661,66.0,96.0,30.0,2.0,0.0
6662,66.0,96.0,30.0,2.0,0.0
6663,66.0,160.0,30.0,2.0,0.0
6664,66.0,96.0,90.0,2.0,0.0
6665,68.0,96.0,90.0,2.0,0.0
6666,66.0,96.0,90.0,2.0,0.0
6667,63.0,96.0,90.0,2.0,0.0
6668,64.0,94.0,90.0,2.0,0.0
6669,61.0,104.0,90.0,2.0,0.0
6670,51.0,0.0,270.0,2.0,0.0
6671,59.0,38.0,270.0,2.0,0.0
6672,35.0,96.0,90.0,3.0,0.0
6673,47.0,58.0,90.0,3.0,0.0
6674,47.0,88.0,90.0,3.0,0.0
6675,61.0,8.0,90.0,2.0,0.0
6676,52.0,0.0,90.0,2.0,0.0
6677,47.0,96.0,90.0,3.0,0.0
6678,54.0,0.0,150.0,2.0,0.0
6679,63.0,38.0,150.0,2.0,0.0
6680,47.0,58.0,90.0,3.0,0.0
6681,47.0,96.0,90.0,3.0,0.0
6682,56.0,6.0,180.0,2.0,0.0
6683,64.0,0.0,180.0,2.0,0.0
6684,47.0,90.0,90.0,3.0,0.0
6685,47.0,96.0,90.0,3.0,0.0
6686,62.0,0.0,180.0,2.0,0.0
6687,53.0,6.0,180.0,2.0,0.0
6688,47.0,90.0,90.0,3.0,0.0
6689,47.0,96.0,90.0,3.0,0.0
6690,54.0,0.0,150.0,2.0,0.0
6691,63.0,38.0,150.0,2.0,0.0
6692,47.0,58.0,90.0,3.0,0.0
6693,47.0,96.0,90.0,3.0,0.0
6694,61.0,0.0,180.0,2.0,0.0
6695,52.0,6.0,180.0,2.0,0.0
6696,47.0,90.0,90.0,3.0,0.0
6697,47.0,96.0,90.0,3.0,0.0
6698,50.0,6.0,180.0,2.0,0.0
6699,58.0,0.0,180.0,2.0,0.0
6700,47.0,90.0,90.0,3.0,0.0
6701,47.0,96.0,90.0,3.0,0.0
6702,51.0,38.0,150.0,2.0,0.0
6703,59.0,0.0,150.0,2.0,0.0
6704,47.0,58.0,90.0,3.0,0.0
6705,47.0,142.0,90.0,3.0,0.0
6706,59.0,20.0,150.0,4.0,0.0
6707,47.0,28.0,150.0,3.0,0.0
6708,58.0,144.0,60.0,4.0,0.0
6709,61.0,48.0,150.0,4.0,0.0
6710,59.0,144.0,60.0,4.0,0.0
6711,64.0,46.0,150.0,4.0,0.0
6712,63.0,100.0,60.0,4.0,0.0
6713,59.0,38.0,270.0,2.0,0.0
6714,63.0,0.0,270.0,2.0,0.0
6715,63.0,34.0,150.0,4.0,0.0
6716,35.0,62.0,90.0,3.0,0.0
6717,47.0,58.0,90.0,3.0,0.0
6718,47.0,88.0,90.0,3.0,0.0
6719,61.0,8.0,90.0,2.0,0.0
6720,64.0,0.0,90.0,2.0,0.0
6721,47.0,96.0,90.0,3.0,0.0
6722,63.0,38.0,150.0,2.0,0.0
6723,66.0,0.0,150.0,2.0,0.0
6724,47.0,58.0,90.0,3.0,0.0
6725,47.0,96.0,90.0,3.0,0.0
6726,64.0,6.0,180.0,2.0,0.0
6727,68.0,0.0,180.0,2.0,0.0
6728,47.0,90.0,90.0,3.0,0.0
6729,47.0,96.0,90.0,3.0,0.0
6730,62.0,0.0,180.0,2.0,0.0
6731,65.0,6.0,180.0,2.0,0.0
6732,47.0,90.0,90.0,3.0,0.0
6733,47.0,96.0,90.0,3.0,0.0
6734,66.0,38.0,150.0,2.0,0.0
6735,63.0,0.0,150.0,2.0,0.0
6736,47.0,58.0,90.0,3.0,0.0
6737,47.0,96.0,90.0,3.0,0.0
6738,64.0,6.0,180.0,2.0,0.0
6739,61.0,0.0,180.0,2.0,0.0
6740,47.0,90.0,90.0,3.0,0.0
6741,47.0,96.0,90.0,3.0,0.0
6742,62.0,0.0,180.0,2.0,0.0
6743,58.0,6.0,180.0,2.0,0.0
6744,47.0,90.0,90.0,3.0,0.0
6745,47.0,96.0,90.0,3.0,0.0
6746,59.0,38.0,150.0,2.0,0.0
6747,63.0,0.0,150.0,2.0,0.0
6748,47.0,58.0,90.0,3.0,0.0
6749,47.0,142.0,90.0,3.0,0.0
6750,63.0,5.0,150.0,4.0,0.0
6751,47.0,28.0,150.0,3.0,0.0
6752,59.0,15.0,150.0,5.0,0.0
6753,61.0,5.0,60.0,4.0,0.0
6754,58.0,139.0,60.0,5.0,0.0
6755,64.0,5.0,150.0,4.0,0.0
6756,61.0,43.0,150.0,5.0,0.0
6757,63.0,5.0,60.0,4.0,0.0
6758,59.0,139.0,60.0,5.0,0.0
6759,68.0,5.0,150.0,4.0,0.0
6760,64.0,41.0,150.0,5.0,0.0
6761,66.0,5.0,60.0,4.0,0.0
6762,63.0,137.0,60.0,5.0,0.0
6763,71.0,48.0,150.0,2.0,0.0
6764,66.0,5.0,540.0,4.0,0.0
6765,63.0,37.0,540.0,5.0,0.0
6766,70.0,144.0,60.0,2.0,0.0
6767,76.0,48.0,150.0,2.0,0.0
6768,75.0,144.0,60.0,2.0,0.0
6769,83.0,4.0,150.0,2.0,0.0
6770,81.0,154.0,60.0,2.0,0.0
6771,81.0,8.0,540.0,2.0,0.0
6772,78.0,4.0,780.0,4.0,0.0
6773,63.0,32.0,150.0,3.0,0.0
6774,59.0,16.0,150.0,3.0,0.0
6775,75.0,85.0,780.0,5.0,0.0
6776,58.0,144.0,60.0,3.0,0.0
6777,64.0,32.0,150.0,3.0,0.0
6778,61.0,16.0,150.0,3.0,0.0
6779,59.0,136.0,60.0,3.0,0.0
6780,63.0,16.0,150.0,3.0,0.0
6781,66.0,30.0,150.0,3.0,0.0
6782,61.0,18.0,60.0,3.0,0.0
6783,81.0,24.0,20.0,2.0,0.0
6784,63.0,0.0,180.0,3.0,0.0
6785,60.0,1.0,180.0,3.0,0.0
6786,83.0,48.0,20.0,2.0,0.0
6787,81.0,94.0,60.0,2.0,0.0
6788,80.0,6.0,90.0,2.0,0.0
6789,80.0,70.0,90.0,2.0,0.0
6790,76.0,4.0,150.0,4.0,0.0
6791,61.0,1.0,150.0,3.0,0.0
6792,64.0,0.0,150.0,3.0,0.0
6793,73.0,21.0,150.0,5.0,0.0
6794,80.0,96.0,90.0,2.0,0.0
6795,80.0,96.0,90.0,2.0,0.0
6796,80.0,26.0,90.0,2.0,0.0
6797,80.0,24.0,20.0,2.0,0.0
6798,76.0,4.0,180.0,4.0,0.0
6799,58.0,1.0,180.0,3.0,0.0
6800,61.0,0.0,180.0,3.0,0.0
6801,73.0,85.0,180.0,5.0,0.0
6802,82.0,48.0,20.0,2.0,0.0
6803,80.0,94.0,60.0,2.0,0.0
6804,78.0,6.0,90.0,2.0,0.0
6805,78.0,70.0,90.0,2.0,0.0
6806,75.0,4.0,150.0,4.0,0.0
6807,59.0,1.0,150.0,3.0,0.0
6808,63.0,0.0,150.0,3.0,0.0
6809,71.0,21.0,150.0,5.0,0.0
6810,78.0,96.0,90.0,2.0,0.0
6811,78.0,96.0,90.0,2.0,0.0
6812,78.0,98.0,90.0,2.0,0.0
6813,78.0,0.0,90.0,2.0,0.0
6814,75.0,72.0,90.0,2.0,0.0
6815,64.0,22.0,150.0,3.0,0.0
6816,73.0,0.0,90.0,2.0,0.0
6817,76.0,162.0,90.0,2.0,0.0
6818,75.0,0.0,150.0,2.0,0.0
6819,71.0,8.0,150.0,2.0,0.0
6820,66.0,184.0,150.0,3.0,0.0
6821,70.0,8.0,150.0,2.0,0.0
6822,73.0,0.0,150.0,2.0,0.0
6823,54.0,72.0,150.0,3.0,0.0
6824,75.0,48.0,60.0,2.0,0.0
6825,71.0,8.0,150.0,2.0,0.0
6826,59.0,24.0,150.0,3.0,0.0
6827,76.0,48.0,60.0,2.0,0.0
6828,75.0,16.0,60.0,2.0,0.0
6829,76.0,94.0,60.0,2.0,0.0
6830,78.0,96.0,90.0,2.0,0.0
6831,83.0,96.0,90.0,2.0,0.0
6832,75.0,126.0,90.0,2.0,0.0
6833,78.0,0.0,90.0,2.0,0.0
6834,63.0,1.0,180.0,6.0,0.0
6835,60.0,6.0,180.0,7.0,0.0
6836,69.0,24.0,20.0,4.0,0.0
6837,66.0,1.0,180.0,5.0,0.0
6838,48.0,118.0,180.0,8.0,0.0
6839,71.0,48.0,20.0,4.0,0.0
6840,69.0,93.0,60.0,4.0,0.0
6841,68.0,1.0,90.0,4.0,0.0
6842,64.0,2.0,150.0,6.0,0.0
6843,61.0,1.0,150.0,7.0,0.0
6844,68.0,5.0,150.0,4.0,0.0
6845,64.0,1.0,150.0,5.0,0.0
6846,49.0,118.0,150.0,8.0,0.0
6847,80.0,33.0,30.0,2.0,0.0
6848,72.0,94.0,90.0,2.0,0.0
6849,73.0,30.0,90.0,2.0,0.0
6850,61.0,1.0,180.0,6.0,0.0
6851,58.0,6.0,180.0,7.0,0.0
6852,68.0,24.0,20.0,4.0,0.0
6853,64.0,1.0,180.0,5.0,0.0
6854,46.0,118.0,180.0,8.0,0.0
6855,70.0,48.0,20.0,4.0,0.0
6856,68.0,93.0,60.0,4.0,0.0
6857,66.0,1.0,90.0,4.0,0.0
6858,63.0,2.0,150.0,6.0,0.0
6859,59.0,1.0,150.0,7.0,0.0
6860,66.0,5.0,150.0,4.0,0.0
6861,63.0,1.0,150.0,5.0,0.0
6862,47.0,118.0,150.0,8.0,0.0
6863,78.0,33.0,30.0,2.0,0.0
6864,70.0,94.0,90.0,2.0,0.0
6865,71.0,96.0,90.0,2.0,0.0
6866,66.0,0.0,90.0,2.0,0.0
6867,63.0,74.0,90.0,2.0,0.0
6868,52.0,22.0,150.0,3.0,0.0
6869,61.0,162.0,90.0,2.0,0.0
6870,64.0,0.0,90.0,2.0,0.0
6871,59.0,0.0,150.0,2.0,0.0
6872,63.0,8.0,150.0,2.0,0.0
6873,54.0,184.0,150.0,3.0,0.0
6874,58.0,8.0,150.0,2.0,0.0
6875,61.0,0.0,150.0,2.0,0.0
6876,42.0,72.0,150.0,3.0,0.0
6877,59.0,48.0,60.0,2.0,0.0
6878,47.0,40.0,180.0,3.0,0.0
6879,66.0,48.0,60.0,2.0,0.0
6880,68.0,48.0,60.0,2.0,0.0
6881,66.0,8.0,60.0,2.0,0.0
6882,71.0,48.0,60.0,2.0,0.0
6883,70.0,48.0,60.0,2.0,0.0
6884,68.0,48.0,60.0,2.0,0.0
6885,66.0,48.0,60.0,2.0,0.0
6886,64.0,48.0,60.0,2.0,0.0
6887,63.0,48.0,60.0,2.0,0.0
6888,61.0,48.0,60.0,2.0,0.0
6889,59.0,48.0,60.0,2.0,0.0
6890,58.0,48.0,60.0,2.0,0.0
6891,42.0,40.0,90.0,3.0,0.0
6892,66.0,8.0,60.0,2.0,0.0
6893,59.0,48.0,60.0,2.0,0.0
6894,44.0,40.0,90.0,3.0,0.0
6895,66.0,8.0,60.0,2.0,0.0
6896,61.0,48.0,60.0,2.0,0.0
6897,46.0,40.0,90.0,3.0,0.0
6898,66.0,8.0,60.0,2.0,0.0
6899,63.0,48.0,60.0,2.0,0.0
6900,47.0,40.0,90.0,3.0,0.0
6901,66.0,8.0,60.0,2.0,0.0
6902,64.0,48.0,60.0,2.0,0.0
6903,49.0,40.0,90.0,3.0,0.0
6904,66.0,8.0,60.0,2.0,0.0
6905,61.0,48.0,60.0,2.0,0.0
6906,46.0,40.0,90.0,3.0,0.0
6907,66.0,8.0,60.0,2.0,0.0
6908,63.0,48.0,60.0,2.0,0.0
6909,47.0,40.0,180.0,3.0,0.0
6910,66.0,48.0,60.0,2.0,0.0
6911,68.0,48.0,60.0,2.0,0.0
6912,66.0,8.0,60.0,2.0,0.0
6913,71.0,48.0,60.0,2.0,0.0
6914,70.0,48.0,60.0,2.0,0.0
6915,68.0,48.0,60.0,2.0,0.0
6916,66.0,48.0,60.0,2.0,0.0
6917,64.0,48.0,60.0,2.0,0.0
6918,63.0,48.0,60.0,2.0,0.0
6919,61.0,48.0,60.0,2.0,0.0
6920,59.0,48.0,60.0,2.0,0.0
6921,58.0,48.0,60.0,2.0,0.0
6922,42.0,40.0,90.0,3.0,0.0
6923,66.0,8.0,60.0,2.0,0.0
6924,59.0,48.0,60.0,2.0,0.0
6925,44.0,40.0,90.0,3.0,0.0
6926,66.0,8.0,60.0,2.0,0.0
6927,61.0,48.0,60.0,2.0,0.0
6928,46.0,40.0,90.0,3.0,0.0
6929,66.0,8.0,60.0,2.0,0.0
6930,63.0,48.0,60.0,2.0,0.0
6931,47.0,40.0,90.0,3.0,0.0
6932,66.0,8.0,60.0,2.0,0.0
6933,64.0,48.0,60.0,2.0,0.0
6934,49.0,40.0,90.0,3.0,0.0
6935,66.0,8.0,60.0,2.0,0.0
6936,61.0,48.0,60.0,2.0,0.0
6937,46.0,40.0,90.0,3.0,0.0
6938,66.0,8.0,60.0,2.0,0.0
6939,63.0,48.0,60.0,2.0,0.0
6940,47.0,40.0,90.0,3.0,0.0
6941,71.0,8.0,60.0,2.0,0.0
6942,64.0,48.0,60.0,2.0,0.0
6943,49.0,40.0,90.0,3.0,0.0
6944,71.0,8.0,60.0,2.0,0.0
6945,66.0,48.0,60.0,2.0,0.0
6946,51.0,40.0,90.0,3.0,0.0
6947,71.0,8.0,60.0,2.0,0.0
6948,68.0,48.0,60.0,2.0,0.0
6949,52.0,40.0,90.0,3.0,0.0
6950,71.0,8.0,60.0,2.0,0.0
6951,69.0,48.0,60.0,2.0,0.0
6952,54.0,40.0,90.0,3.0,0.0
6953,71.0,8.0,60.0,2.0,0.0
6954,66.0,48.0,60.0,2.0,0.0
6955,51.0,40.0,90.0,3.0,0.0
6956,71.0,8.0,60.0,2.0,0.0
6957,68.0,48.0,60.0,2.0,0.0
6958,52.0,40.0,90.0,3.0,0.0
6959,76.0,8.0,60.0,2.0,0.0
6960,70.0,48.0,60.0,2.0,0.0
6961,54.0,40.0,90.0,3.0,0.0
6962,76.0,8.0,60.0,2.0,0.0
6963,71.0,48.0,60.0,2.0,0.0
6964,56.0,40.0,90.0,3.0,0.0
6965,76.0,8.0,60.0,2.0,0.0
6966,70.0,48.0,60.0,2.0,0.0
6967,54.0,40.0,90.0,3.0,0.0
6968,76.0,8.0,60.0,2.0,0.0
6969,71.0,48.0,60.0,2.0,0.0
6970,56.0,40.0,90.0,3.0,0.0
6971,76.0,8.0,60.0,2.0,0.0
6972,68.0,48.0,60.0,2.0,0.0
6973,52.0,40.0,90.0,3.0,0.0
6974,76.0,8.0,60.0,2.0,0.0
6975,70.0,48.0,60.0,2.0,0.0
6976,54.0,40.0,300.0,3.0,0.0
6977,73.0,48.0,60.0,2.0,0.0
6978,76.0,48.0,60.0,2.0,0.0
6979,73.0,48.0,60.0,2.0,0.0
6980,70.0,48.0,60.0,2.0,0.0
6981,68.0,8.0,60.0,2.0,0.0
6982,66.0,48.0,60.0,2.0,0.0
6983,46.0,40.0,90.0,3.0,0.0
6984,64.0,8.0,60.0,2.0,0.0
6985,63.0,48.0,60.0,2.0,0.0
6986,47.0,16.0,180.0,3.0,0.0
6987,66.0,48.0,60.0,2.0,0.0
6988,71.0,48.0,60.0,2.0,0.0
6989,66.0,8.0,60.0,2.0,0.0
6990,69.0,72.0,20.0,2.0,0.0
6991,47.0,40.0,150.0,3.0,0.0
6992,40.0,184.0,180.0,3.0,0.0
6993,68.0,48.0,60.0,2.0,0.0
6994,66.0,8.0,60.0,2.0,0.0
6995,64.0,8.0,60.0,2.0,0.0
6996,49.0,0.0,60.0,3.0,0.0
6997,63.0,8.0,180.0,2.0,0.0
6998,42.0,88.0,390.0,3.0,0.0
6999,47.0,24.0,180.0,3.0,0.0
7000,61.0,32.0,30.0,2.0,0.0
7001,46.0,0.0,180.0,3.0,0.0
7002,63.0,32.0,30.0,2.0,0.0
7003,61.0,48.0,30.0,2.0,0.0
7004,59.0,48.0,60.0,2.0,0.0
7005,61.0,8.0,60.0,2.0,0.0
7006,51.0,0.0,180.0,3.0,0.0
7007,47.0,40.0,180.0,3.0,0.0
7008,78.0,48.0,60.0,2.0,0.0
7009,80.0,48.0,60.0,2.0,0.0
7010,78.0,8.0,60.0,2.0,0.0
7011,83.0,48.0,60.0,2.0,0.0
7012,82.0,48.0,60.0,2.0,0.0
7013,80.0,48.0,60.0,2.0,0.0
7014,78.0,48.0,60.0,2.0,0.0
7015,76.0,48.0,60.0,2.0,0.0
7016,75.0,48.0,60.0,2.0,0.0
7017,73.0,48.0,60.0,2.0,0.0
7018,71.0,48.0,60.0,2.0,0.0
7019,70.0,47.0,60.0,2.0,0.0
7020,54.0,1.0,90.0,6.0,0.0
7021,70.0,5.0,90.0,4.0,0.0
7022,54.0,40.0,90.0,3.0,0.0
7023,66.0,1.0,90.0,5.0,0.0
7024,78.0,2.0,60.0,2.0,0.0
7025,71.0,47.0,60.0,2.0,0.0
7026,56.0,1.0,90.0,6.0,0.0
7027,71.0,5.0,90.0,4.0,0.0
7028,56.0,40.0,90.0,3.0,0.0
7029,66.0,1.0,90.0,5.0,0.0
7030,78.0,2.0,60.0,2.0,0.0
7031,73.0,47.0,60.0,2.0,0.0
7032,58.0,1.0,90.0,6.0,0.0
7033,73.0,5.0,90.0,4.0,0.0
7034,58.0,40.0,90.0,3.0,0.0
7035,66.0,1.0,90.0,5.0,0.0
7036,78.0,2.0,60.0,2.0,0.0
7037,75.0,47.0,60.0,2.0,0.0
7038,59.0,1.0,90.0,6.0,0.0
7039,75.0,5.0,90.0,4.0,0.0
7040,59.0,40.0,90.0,3.0,0.0
7041,66.0,1.0,90.0,5.0,0.0
7042,78.0,2.0,60.0,2.0,0.0
7043,76.0,47.0,60.0,2.0,0.0
7044,61.0,1.0,90.0,6.0,0.0
7045,76.0,5.0,90.0,4.0,0.0
7046,61.0,40.0,90.0,3.0,0.0
7047,66.0,1.0,90.0,5.0,0.0
7048,78.0,2.0,60.0,2.0,0.0
7049,73.0,47.0,60.0,2.0,0.0
7050,58.0,1.0,90.0,6.0,0.0
7051,73.0,5.0,90.0,4.0,0.0
7052,58.0,40.0,90.0,3.0,0.0
7053,66.0,1.0,90.0,5.0,0.0
7054,78.0,2.0,60.0,2.0,0.0
7055,75.0,48.0,60.0,2.0,0.0
7056,59.0,3.0,150.0,6.0,0.0
7057,75.0,5.0,150.0,4.0,0.0
7058,59.0,40.0,180.0,3.0,0.0
7059,66.0,23.0,150.0,5.0,0.0
7060,78.0,48.0,60.0,2.0,0.0
7061,80.0,17.0,60.0,2.0,0.0
7062,78.0,8.0,60.0,2.0,0.0
7063,83.0,48.0,60.0,2.0,0.0
7064,82.0,48.0,60.0,2.0,0.0
7065,80.0,48.0,60.0,2.0,0.0
7066,78.0,48.0,60.0,2.0,0.0
7067,76.0,48.0,60.0,2.0,0.0
7068,75.0,48.0,60.0,2.0,0.0
7069,73.0,48.0,60.0,2.0,0.0
7070,71.0,48.0,60.0,2.0,0.0
7071,70.0,47.0,60.0,2.0,0.0
7072,54.0,1.0,90.0,6.0,0.0
7073,70.0,5.0,90.0,4.0,0.0
7074,54.0,40.0,90.0,3.0,0.0
7075,66.0,1.0,90.0,5.0,0.0
7076,78.0,2.0,60.0,2.0,0.0
7077,71.0,47.0,60.0,2.0,0.0
7078,56.0,1.0,90.0,6.0,0.0
7079,71.0,5.0,90.0,4.0,0.0
7080,56.0,40.0,90.0,3.0,0.0
7081,66.0,1.0,90.0,5.0,0.0
7082,78.0,2.0,60.0,2.0,0.0
7083,73.0,47.0,60.0,2.0,0.0
7084,58.0,1.0,90.0,6.0,0.0
7085,73.0,5.0,90.0,4.0,0.0
7086,58.0,40.0,90.0,3.0,0.0
7087,66.0,1.0,90.0,5.0,0.0
7088,78.0,2.0,60.0,2.0,0.0
7089,75.0,47.0,60.0,2.0,0.0
7090,59.0,1.0,90.0,6.0,0.0
7091,75.0,5.0,90.0,4.0,0.0
7092,59.0,40.0,90.0,3.0,0.0
7093,66.0,1.0,90.0,5.0,0.0
7094,78.0,2.0,60.0,2.0,0.0
7095,76.0,47.0,60.0,2.0,0.0
7096,61.0,1.0,90.0,6.0,0.0
7097,76.0,5.0,90.0,4.0,0.0
7098,61.0,40.0,90.0,3.0,0.0
7099,66.0,1.0,90.0,5.0,0.0
7100,78.0,2.0,60.0,2.0,0.0
7101,73.0,47.0,60.0,2.0,0.0
7102,58.0,1.0,90.0,6.0,0.0
7103,73.0,5.0,90.0,4.0,0.0
7104,58.0,40.0,90.0,3.0,0.0
7105,66.0,1.0,90.0,5.0,0.0
7106,78.0,2.0,60.0,2.0,0.0
7107,75.0,47.0,60.0,2.0,0.0
7108,59.0,1.0,90.0,6.0,0.0
7109,75.0,5.0,90.0,4.0,0.0
7110,59.0,40.0,90.0,3.0,0.0
7111,71.0,1.0,90.0,5.0,0.0
7112,83.0,2.0,60.0,2.0,0.0
7113,76.0,47.0,60.0,2.0,0.0
7114,61.0,1.0,90.0,6.0,0.0
7115,76.0,5.0,90.0,4.0,0.0
7116,61.0,40.0,90.0,3.0,0.0
7117,71.0,1.0,90.0,5.0,0.0
7118,83.0,2.0,60.0,2.0,0.0
7119,78.0,47.0,60.0,2.0,0.0
7120,63.0,1.0,90.0,6.0,0.0
7121,78.0,5.0,90.0,4.0,0.0
7122,63.0,40.0,90.0,3.0,0.0
7123,71.0,1.0,90.0,5.0,0.0
7124,83.0,2.0,60.0,2.0,0.0
7125,80.0,47.0,60.0,2.0,0.0
7126,64.0,1.0,90.0,6.0,0.0
7127,80.0,5.0,90.0,4.0,0.0
7128,64.0,40.0,90.0,3.0,0.0
7129,71.0,1.0,90.0,5.0,0.0
7130,83.0,2.0,60.0,2.0,0.0
7131,81.0,47.0,60.0,2.0,0.0
7132,66.0,1.0,90.0,6.0,0.0
7133,81.0,5.0,90.0,4.0,0.0
7134,66.0,40.0,90.0,3.0,0.0
7135,71.0,1.0,90.0,5.0,0.0
7136,83.0,2.0,60.0,2.0,0.0
7137,79.0,47.0,60.0,2.0,0.0
7138,63.0,1.0,90.0,6.0,0.0
7139,79.0,5.0,90.0,4.0,0.0
7140,63.0,40.0,90.0,3.0,0.0
7141,71.0,1.0,90.0,5.0,0.0
7142,83.0,2.0,60.0,2.0,0.0
7143,80.0,47.0,60.0,2.0,0.0
7144,64.0,1.0,90.0,6.0,0.0
7145,80.0,5.0,90.0,4.0,0.0
7146,64.0,40.0,90.0,3.0,0.0
7147,71.0,1.0,90.0,5.0,0.0
7148,83.0,2.0,60.0,2.0,0.0
7149,79.0,47.0,60.0,2.0,0.0
7150,63.0,1.0,90.0,6.0,0.0
7151,79.0,5.0,90.0,4.0,0.0
7152,63.0,40.0,90.0,3.0,0.0
7153,71.0,1.0,90.0,5.0,0.0
7154,83.0,2.0,60.0,2.0,0.0
7155,80.0,47.0,60.0,2.0,0.0
7156,64.0,1.0,90.0,6.0,0.0
7157,80.0,5.0,90.0,4.0,0.0
7158,64.0,40.0,90.0,3.0,0.0
7159,71.0,1.0,90.0,5.0,0.0
7160,83.0,2.0,60.0,2.0,0.0
7161,75.0,47.0,60.0,2.0,0.0
7162,60.0,1.0,90.0,6.0,0.0
7163,75.0,5.0,90.0,4.0,0.0
7164,60.0,40.0,90.0,3.0,0.0
7165,68.0,1.0,90.0,5.0,0.0
7166,80.0,2.0,60.0,2.0,0.0
7167,76.0,47.0,60.0,2.0,0.0
7168,61.0,1.0,90.0,6.0,0.0
7169,76.0,5.0,90.0,4.0,0.0
7170,61.0,40.0,90.0,3.0,0.0
7171,68.0,1.0,90.0,5.0,0.0
7172,80.0,2.0,60.0,2.0,0.0
7173,75.0,47.0,60.0,2.0,0.0
7174,60.0,1.0,90.0,6.0,0.0
7175,75.0,5.0,90.0,4.0,0.0
7176,60.0,40.0,90.0,3.0,0.0
7177,68.0,1.0,90.0,5.0,0.0
7178,80.0,2.0,60.0,2.0,0.0
7179,76.0,47.0,60.0,2.0,0.0
7180,61.0,1.0,90.0,6.0,0.0
7181,76.0,5.0,90.0,4.0,0.0
7182,61.0,40.0,90.0,3.0,0.0
7183,68.0,1.0,90.0,5.0,0.0
7184,80.0,2.0,60.0,2.0,0.0
7185,70.0,47.0,60.0,2.0,0.0
7186,55.0,1.0,90.0,6.0,0.0
7187,75.0,5.0,90.0,4.0,0.0
7188,55.0,40.0,90.0,3.0,0.0
7189,70.0,1.0,90.0,5.0,0.0
7190,75.0,2.0,60.0,2.0,0.0
7191,71.0,47.0,60.0,2.0,0.0
7192,56.0,1.0,90.0,6.0,0.0
7193,75.0,5.0,90.0,4.0,0.0
7194,56.0,40.0,90.0,3.0,0.0
7195,71.0,1.0,90.0,5.0,0.0
7196,75.0,2.0,60.0,2.0,0.0
7197,70.0,47.0,60.0,2.0,0.0
7198,55.0,1.0,90.0,6.0,0.0
7199,75.0,5.0,90.0,4.0,0.0
7200,55.0,40.0,90.0,3.0,0.0
7201,70.0,1.0,90.0,5.0,0.0
7202,75.0,2.0,60.0,2.0,0.0
7203,71.0,47.0,60.0,2.0,0.0
7204,56.0,1.0,90.0,6.0,0.0
7205,75.0,5.0,90.0,4.0,0.0
7206,56.0,40.0,90.0,3.0,0.0
7207,71.0,1.0,90.0,5.0,0.0
7208,75.0,2.0,60.0,2.0,0.0
7209,69.0,47.0,60.0,2.0,0.0
7210,54.0,1.0,90.0,6.0,0.0
7211,72.0,5.0,90.0,4.0,0.0
7212,54.0,40.0,90.0,3.0,0.0
7213,69.0,1.0,90.0,5.0,0.0
7214,72.0,2.0,60.0,2.0,0.0
7215,73.0,48.0,60.0,2.0,0.0
7216,52.0,3.0,540.0,6.0,0.0
7217,73.0,5.0,540.0,4.0,0.0
7218,56.0,0.0,570.0,3.0,0.0
7219,68.0,39.0,540.0,5.0,0.0
7220,68.0,48.0,60.0,2.0,0.0
7221,76.0,48.0,60.0,2.0,0.0
7222,75.0,48.0,60.0,2.0,0.0
7223,76.0,48.0,60.0,2.0,0.0
7224,73.0,48.0,60.0,2.0,0.0
7225,80.0,48.0,60.0,2.0,0.0
7226,78.0,48.0,60.0,2.0,0.0
7227,80.0,48.0,60.0,2.0,0.0
7228,76.0,48.0,60.0,2.0,0.0
7229,83.0,1.0,60.0,2.0,0.0
7230,82.0,8.0,60.0,2.0,0.0
7231,83.0,48.0,60.0,2.0,0.0
7232,56.0,2.0,570.0,6.0,0.0
7233,52.0,1.0,570.0,7.0,0.0
7234,61.0,4.0,570.0,4.0,0.0
7235,56.0,0.0,570.0,3.0,0.0
7236,61.0,2.0,570.0,3.0,0.0
7237,59.0,0.0,570.0,3.0,0.0
7238,52.0,40.0,15.0,3.0,0.0
7239,59.0,1.0,750.0,5.0,0.0
7240,40.0,46.0,570.0,8.0,0.0
7241,82.0,48.0,60.0,2.0,0.0
7242,80.0,48.0,60.0,2.0,0.0
7243,79.0,48.0,60.0,2.0,0.0
7244,80.0,48.0,60.0,2.0,0.0
7245,78.0,48.0,60.0,2.0,0.0
7246,76.0,48.0,60.0,2.0,0.0
7247,75.0,48.0,60.0,2.0,0.0
7248,73.0,48.0,60.0,2.0,0.0
7249,71.0,48.0,60.0,2.0,0.0
7250,70.0,48.0,60.0,2.0,0.0
7251,68.0,1.0,60.0,2.0,0.0
7252,66.0,8.0,90.0,2.0,0.0
7253,54.0,2.0,150.0,6.0,0.0
7254,54.0,1.0,150.0,7.0,0.0
7255,63.0,5.0,150.0,4.0,0.0
7256,54.0,40.0,60.0,3.0,0.0
7257,42.0,22.0,150.0,8.0,0.0
7258,63.0,40.0,60.0,3.0,0.0
7259,68.0,8.0,60.0,2.0,0.0
7260,59.0,9.0,60.0,3.0,0.0
7261,70.0,8.0,60.0,2.0,0.0
7262,63.0,40.0,60.0,3.0,0.0
7263,71.0,8.0,60.0,2.0,0.0
7264,54.0,40.0,60.0,3.0,0.0
7265,73.0,8.0,60.0,2.0,0.0
7266,63.0,40.0,60.0,3.0,0.0
7267,75.0,8.0,60.0,2.0,0.0
7268,59.0,40.0,60.0,3.0,0.0
7269,76.0,8.0,60.0,2.0,0.0
7270,63.0,40.0,60.0,3.0,0.0
7271,78.0,8.0,60.0,2.0,0.0
7272,54.0,40.0,60.0,3.0,0.0
7273,80.0,8.0,60.0,2.0,0.0
7274,63.0,40.0,60.0,3.0,0.0
7275,82.0,8.0,60.0,2.0,0.0
7276,59.0,40.0,60.0,3.0,0.0
7277,83.0,8.0,60.0,2.0,0.0
7278,63.0,16.0,60.0,3.0,0.0
7279,71.0,24.0,20.0,2.0,0.0
7280,54.0,16.0,60.0,3.0,0.0
7281,73.0,8.0,20.0,2.0,0.0
7282,75.0,24.0,20.0,2.0,0.0
7283,68.0,16.0,60.0,3.0,0.0
7284,73.0,8.0,20.0,2.0,0.0
7285,75.0,24.0,20.0,2.0,0.0
7286,58.0,16.0,60.0,3.0,0.0
7287,73.0,8.0,20.0,2.0,0.0
7288,75.0,24.0,20.0,2.0,0.0
7289,68.0,16.0,60.0,3.0,0.0
7290,73.0,8.0,20.0,2.0,0.0
7291,75.0,24.0,20.0,2.0,0.0
7292,55.0,16.0,60.0,3.0,0.0
7293,73.0,8.0,20.0,2.0,0.0
7294,75.0,24.0,20.0,2.0,0.0
7295,63.0,16.0,60.0,3.0,0.0
7296,73.0,8.0,20.0,2.0,0.0
7297,75.0,24.0,20.0,2.0,0.0
7298,58.0,16.0,60.0,3.0,0.0
7299,73.0,8.0,20.0,2.0,0.0
7300,75.0,24.0,20.0,2.0,0.0
7301,63.0,16.0,60.0,3.0,0.0
7302,73.0,8.0,20.0,2.0,0.0
7303,75.0,24.0,20.0,2.0,0.0
7304,55.0,16.0,60.0,3.0,0.0
7305,73.0,8.0,20.0,2.0,0.0
7306,75.0,24.0,20.0,2.0,0.0
7307,63.0,16.0,60.0,3.0,0.0
7308,73.0,8.0,20.0,2.0,0.0
7309,75.0,24.0,20.0,2.0,0.0
7310,58.0,16.0,60.0,3.0,0.0
7311,73.0,8.0,20.0,2.0,0.0
7312,71.0,24.0,20.0,2.0,0.0
7313,63.0,184.0,60.0,3.0,0.0
7314,73.0,8.0,20.0,2.0,0.0
7315,71.0,8.0,180.0,2.0,0.0
7316,56.0,158.0,180.0,3.0,0.0
7317,51.0,2.0,300.0,6.0,0.0
7318,73.0,0.0,330.0,0.0,0.0
7319,70.0,1.0,330.0,0.0,0.0
7320,39.0,1.0,300.0,7.0,0.0
7321,51.0,5.0,300.0,4.0,0.0
7322,63.0,123.0,150.0,1.0,0.0
7323,51.0,0.0,150.0,1.0,0.0
7324,51.0,1.0,300.0,5.0,0.0
7325,27.0,39.0,300.0,8.0,0.0
7326,63.0,0.0,150.0,1.0,0.0
7327,51.0,0.0,150.0,1.0,0.0
7328,53.0,1.0,60.0,6.0,0.0
7329,41.0,1.0,60.0,7.0,0.0
7330,53.0,5.0,60.0,4.0,0.0
7331,53.0,1.0,60.0,5.0,0.0
7332,29.0,37.0,60.0,8.0,0.0
7333,55.0,2.0,60.0,6.0,0.0
7334,43.0,1.0,60.0,7.0,0.0
7335,55.0,2.0,60.0,4.0,0.0
7336,51.0,0.0,60.0,1.0,0.0
7337,63.0,3.0,60.0,1.0,0.0
7338,55.0,1.0,60.0,5.0,0.0
7339,31.0,39.0,60.0,8.0,0.0
7340,56.0,8.0,60.0,6.0,0.0
7341,68.0,0.0,750.0,0.0,0.0
7342,71.0,4.0,750.0,0.0,0.0
7343,44.0,6.0,90.0,7.0,0.0
7344,56.0,27.0,270.0,4.0,0.0
7345,63.0,0.0,750.0,1.0,0.0
7346,51.0,25.0,750.0,1.0,0.0
7347,56.0,40.0,60.0,5.0,0.0
7348,32.0,39.0,90.0,8.0,0.0
7349,47.0,2.0,60.0,6.0,0.0
7350,51.0,1.0,60.0,5.0,0.0
7351,47.0,8.0,60.0,6.0,0.0
7352,44.0,6.0,90.0,7.0,0.0
7353,51.0,40.0,60.0,5.0,0.0
7354,32.0,39.0,90.0,8.0,0.0
7355,47.0,2.0,60.0,6.0,0.0
7356,51.0,1.0,60.0,5.0,0.0
7357,47.0,8.0,60.0,6.0,0.0
7358,44.0,6.0,90.0,7.0,0.0
7359,51.0,13.0,60.0,5.0,0.0
7360,32.0,39.0,90.0,8.0,0.0
7361,47.0,2.0,60.0,6.0,0.0
7362,51.0,1.0,60.0,5.0,0.0
7363,47.0,3.0,60.0,6.0,0.0
7364,44.0,1.0,90.0,7.0,0.0
7365,68.0,5.0,60.0,4.0,0.0
7366,51.0,40.0,60.0,5.0,0.0
7367,32.0,39.0,90.0,8.0,0.0
7368,47.0,2.0,60.0,6.0,0.0
7369,71.0,5.0,60.0,4.0,0.0
7370,51.0,1.0,60.0,5.0,0.0
7371,47.0,5.0,60.0,6.0,0.0
7372,44.0,1.0,90.0,7.0,0.0
7373,75.0,3.0,60.0,4.0,0.0
7374,51.0,40.0,60.0,5.0,0.0
7375,32.0,28.0,90.0,8.0,0.0
7376,47.0,2.0,60.0,6.0,0.0
7377,71.0,5.0,60.0,4.0,0.0
7378,51.0,1.0,60.0,5.0,0.0
7379,47.0,8.0,60.0,6.0,0.0
7380,44.0,6.0,90.0,7.0,0.0
7381,75.0,11.0,30.0,4.0,0.0
7382,51.0,29.0,60.0,5.0,0.0
7383,32.0,39.0,90.0,8.0,0.0
7384,47.0,2.0,60.0,6.0,0.0
7385,71.0,11.0,30.0,4.0,0.0
7386,51.0,1.0,60.0,5.0,0.0
7387,47.0,8.0,60.0,6.0,0.0
7388,44.0,1.0,90.0,7.0,0.0
7389,75.0,5.0,90.0,4.0,0.0
7390,51.0,40.0,60.0,5.0,0.0
7391,32.0,39.0,90.0,8.0,0.0
7392,47.0,2.0,60.0,6.0,0.0
7393,51.0,1.0,60.0,5.0,0.0
7394,47.0,8.0,60.0,6.0,0.0
7395,44.0,6.0,90.0,7.0,0.0
7396,51.0,11.0,60.0,5.0,0.0
7397,32.0,39.0,90.0,8.0,0.0
7398,47.0,2.0,60.0,6.0,0.0
7399,51.0,1.0,60.0,5.0,0.0
7400,47.0,8.0,60.0,6.0,0.0
7401,71.0,4.0,150.0,0.0,0.0
7402,68.0,0.0,150.0,0.0,0.0
7403,44.0,1.0,90.0,7.0,0.0
7404,71.0,5.0,90.0,4.0,0.0
7405,63.0,0.0,150.0,1.0,0.0
7406,59.0,25.0,150.0,1.0,0.0
7407,51.0,40.0,60.0,5.0,0.0
7408,32.0,39.0,90.0,8.0,0.0
7409,47.0,2.0,60.0,6.0,0.0
7410,51.0,1.0,60.0,5.0,0.0
7411,47.0,8.0,60.0,6.0,0.0
7412,44.0,6.0,90.0,7.0,0.0
7413,51.0,11.0,60.0,5.0,0.0
7414,32.0,39.0,90.0,8.0,0.0
7415,47.0,2.0,60.0,6.0,0.0
7416,51.0,1.0,60.0,5.0,0.0
7417,47.0,8.0,60.0,6.0,0.0
7418,68.0,0.0,150.0,0.0,0.0
7419,71.0,4.0,150.0,0.0,0.0
7420,44.0,1.0,90.0,7.0,0.0
7421,68.0,5.0,90.0,4.0,0.0
7422,59.0,25.0,150.0,1.0,0.0
7423,63.0,0.0,150.0,1.0,0.0
7424,51.0,40.0,60.0,5.0,0.0
7425,32.0,39.0,90.0,8.0,0.0
7426,47.0,2.0,60.0,6.0,0.0
7427,51.0,1.0,60.0,5.0,0.0
7428,47.0,8.0,60.0,6.0,0.0
7429,44.0,6.0,90.0,7.0,0.0
7430,51.0,11.0,60.0,5.0,0.0
7431,32.0,39.0,90.0,8.0,0.0
7432,47.0,2.0,60.0,6.0,0.0
7433,51.0,1.0,60.0,5.0,0.0
7434,51.0,8.0,60.0,6.0,0.0
7435,71.0,4.0,750.0,0.0,0.0
7436,69.0,0.0,750.0,0.0,0.0
7437,42.0,6.0,90.0,7.0,0.0
7438,54.0,27.0,270.0,4.0,0.0
7439,59.0,25.0,750.0,1.0,0.0
7440,63.0,0.0,750.0,1.0,0.0
7441,57.0,40.0,60.0,5.0,0.0
7442,30.0,39.0,90.0,8.0,0.0
7443,51.0,2.0,60.0,6.0,0.0
7444,57.0,1.0,60.0,5.0,0.0
7445,51.0,8.0,60.0,6.0,0.0
7446,42.0,6.0,90.0,7.0,0.0
7447,57.0,40.0,60.0,5.0,0.0
7448,30.0,39.0,90.0,8.0,0.0
7449,51.0,2.0,60.0,6.0,0.0
7450,57.0,1.0,60.0,5.0,0.0
7451,51.0,8.0,60.0,6.0,0.0
7452,42.0,6.0,90.0,7.0,0.0
7453,57.0,13.0,60.0,5.0,0.0
7454,30.0,39.0,90.0,8.0,0.0
7455,51.0,2.0,60.0,6.0,0.0
7456,57.0,1.0,60.0,5.0,0.0
7457,51.0,3.0,60.0,6.0,0.0
7458,42.0,1.0,90.0,7.0,0.0
7459,71.0,5.0,60.0,4.0,0.0
7460,57.0,40.0,60.0,5.0,0.0
7461,30.0,39.0,90.0,8.0,0.0
7462,51.0,2.0,60.0,6.0,0.0
7463,78.0,5.0,60.0,4.0,0.0
7464,57.0,1.0,60.0,5.0,0.0
7465,51.0,5.0,60.0,6.0,0.0
7466,42.0,1.0,90.0,7.0,0.0
7467,81.0,3.0,60.0,4.0,0.0
7468,57.0,40.0,60.0,5.0,0.0
7469,30.0,28.0,90.0,8.0,0.0
7470,51.0,2.0,60.0,6.0,0.0
7471,78.0,5.0,60.0,4.0,0.0
7472,57.0,1.0,60.0,5.0,0.0
7473,51.0,8.0,60.0,6.0,0.0
7474,42.0,6.0,90.0,7.0,0.0
7475,81.0,11.0,30.0,4.0,0.0
7476,57.0,29.0,60.0,5.0,0.0
7477,30.0,39.0,90.0,8.0,0.0
7478,51.0,2.0,60.0,6.0,0.0
7479,78.0,11.0,30.0,4.0,0.0
7480,57.0,1.0,60.0,5.0,0.0
7481,51.0,8.0,60.0,6.0,0.0
7482,42.0,1.0,90.0,7.0,0.0
7483,81.0,5.0,90.0,4.0,0.0
7484,57.0,40.0,60.0,5.0,0.0
7485,30.0,39.0,90.0,8.0,0.0
7486,51.0,2.0,60.0,6.0,0.0
7487,57.0,1.0,60.0,5.0,0.0
7488,51.0,8.0,60.0,6.0,0.0
7489,42.0,6.0,90.0,7.0,0.0
7490,57.0,11.0,60.0,5.0,0.0
7491,30.0,39.0,90.0,8.0,0.0
7492,51.0,2.0,60.0,6.0,0.0
7493,57.0,1.0,60.0,5.0,0.0
7494,51.0,8.0,60.0,6.0,0.0
7495,71.0,0.0,150.0,0.0,0.0
7496,69.0,4.0,150.0,0.0,0.0
7497,42.0,1.0,90.0,7.0,0.0
7498,78.0,5.0,90.0,4.0,0.0
7499,59.0,25.0,150.0,1.0,0.0
7500,63.0,0.0,150.0,1.0,0.0
7501,57.0,40.0,60.0,5.0,0.0
7502,30.0,39.0,90.0,8.0,0.0
7503,51.0,2.0,60.0,6.0,0.0
7504,57.0,1.0,60.0,5.0,0.0
7505,51.0,8.0,60.0,6.0,0.0
7506,42.0,6.0,90.0,7.0,0.0
7507,57.0,11.0,60.0,5.0,0.0
7508,30.0,39.0,90.0,8.0,0.0
7509,51.0,2.0,60.0,6.0,0.0
7510,57.0,1.0,60.0,5.0,0.0
7511,51.0,8.0,60.0,6.0,0.0
7512,69.0,0.0,150.0,0.0,0.0
7513,71.0,4.0,150.0,0.0,0.0
7514,42.0,1.0,90.0,7.0,0.0
7515,71.0,5.0,90.0,4.0,0.0
7516,59.0,0.0,150.0,1.0,0.0
7517,63.0,25.0,150.0,1.0,0.0
7518,57.0,40.0,60.0,5.0,0.0
7519,30.0,39.0,90.0,8.0,0.0
7520,51.0,2.0,60.0,6.0,0.0
7521,57.0,1.0,60.0,5.0,0.0
7522,51.0,8.0,60.0,6.0,0.0
7523,42.0,6.0,90.0,7.0,0.0
7524,57.0,11.0,60.0,5.0,0.0
7525,30.0,39.0,90.0,8.0,0.0
7526,51.0,2.0,60.0,6.0,0.0
7527,57.0,1.0,60.0,5.0,0.0
7528,52.0,8.0,60.0,6.0,0.0
7529,68.0,4.0,750.0,0.0,0.0
7530,71.0,0.0,750.0,0.0,0.0
7531,40.0,6.0,90.0,7.0,0.0
7532,52.0,27.0,270.0,4.0,0.0
7533,64.0,0.0,750.0,1.0,0.0
7534,59.0,25.0,750.0,1.0,0.0
7535,56.0,40.0,60.0,5.0,0.0
7536,28.0,39.0,90.0,8.0,0.0
7537,52.0,2.0,60.0,6.0,0.0
7538,56.0,1.0,60.0,5.0,0.0
7539,52.0,8.0,60.0,6.0,0.0
7540,40.0,6.0,90.0,7.0,0.0
7541,56.0,40.0,60.0,5.0,0.0
7542,28.0,39.0,90.0,8.0,0.0
7543,52.0,2.0,60.0,6.0,0.0
7544,56.0,1.0,60.0,5.0,0.0
7545,52.0,8.0,60.0,6.0,0.0
7546,40.0,6.0,90.0,7.0,0.0
7547,56.0,13.0,60.0,5.0,0.0
7548,28.0,39.0,90.0,8.0,0.0
7549,52.0,2.0,60.0,6.0,0.0
7550,56.0,1.0,60.0,5.0,0.0
7551,52.0,3.0,60.0,6.0,0.0
7552,40.0,1.0,90.0,7.0,0.0
7553,71.0,5.0,60.0,4.0,0.0
7554,56.0,40.0,60.0,5.0,0.0
7555,28.0,39.0,90.0,8.0,0.0
7556,52.0,2.0,60.0,6.0,0.0
7557,76.0,5.0,60.0,4.0,0.0
7558,56.0,1.0,60.0,5.0,0.0
7559,52.0,5.0,60.0,6.0,0.0
7560,40.0,1.0,90.0,7.0,0.0
7561,80.0,3.0,60.0,4.0,0.0
7562,56.0,40.0,60.0,5.0,0.0
7563,28.0,28.0,90.0,8.0,0.0
7564,52.0,2.0,60.0,6.0,0.0
7565,76.0,5.0,60.0,4.0,0.0
7566,56.0,1.0,60.0,5.0,0.0
7567,52.0,8.0,60.0,6.0,0.0
7568,40.0,6.0,90.0,7.0,0.0
7569,80.0,11.0,30.0,4.0,0.0
7570,56.0,29.0,60.0,5.0,0.0
7571,28.0,39.0,90.0,8.0,0.0
7572,52.0,2.0,60.0,6.0,0.0
7573,76.0,11.0,30.0,4.0,0.0
7574,56.0,1.0,60.0,5.0,0.0
7575,52.0,8.0,60.0,6.0,0.0
7576,40.0,1.0,90.0,7.0,0.0
7577,80.0,5.0,90.0,4.0,0.0
7578,56.0,40.0,60.0,5.0,0.0
7579,28.0,39.0,90.0,8.0,0.0
7580,52.0,2.0,60.0,6.0,0.0
7581,56.0,1.0,60.0,5.0,0.0
7582,52.0,8.0,60.0,6.0,0.0
7583,40.0,6.0,90.0,7.0,0.0
7584,56.0,11.0,60.0,5.0,0.0
7585,28.0,39.0,90.0,8.0,0.0
7586,52.0,2.0,60.0,6.0,0.0
7587,56.0,1.0,60.0,5.0,0.0
7588,52.0,8.0,60.0,6.0,0.0
7589,68.0,0.0,150.0,0.0,0.0
7590,71.0,4.0,150.0,0.0,0.0
7591,40.0,1.0,90.0,7.0,0.0
7592,76.0,5.0,90.0,4.0,0.0
7593,64.0,25.0,150.0,1.0,0.0
7594,59.0,0.0,150.0,1.0,0.0
7595,56.0,40.0,60.0,5.0,0.0
7596,28.0,39.0,90.0,8.0,0.0
7597,52.0,2.0,60.0,6.0,0.0
7598,56.0,1.0,60.0,5.0,0.0
7599,52.0,8.0,60.0,6.0,0.0
7600,40.0,6.0,90.0,7.0,0.0
7601,56.0,11.0,60.0,5.0,0.0
7602,28.0,39.0,90.0,8.0,0.0
7603,52.0,2.0,60.0,6.0,0.0
7604,56.0,1.0,60.0,5.0,0.0
7605,52.0,8.0,60.0,6.0,0.0
7606,68.0,0.0,150.0,0.0,0.0
7607,71.0,4.0,150.0,0.0,0.0
7608,40.0,1.0,90.0,7.0,0.0
7609,71.0,5.0,90.0,4.0,0.0
7610,59.0,0.0,150.0,1.0,0.0
7611,64.0,25.0,150.0,1.0,0.0
7612,56.0,40.0,60.0,5.0,0.0
7613,28.0,39.0,90.0,8.0,0.0
7614,52.0,2.0,60.0,6.0,0.0
7615,56.0,1.0,60.0,5.0,0.0
7616,52.0,8.0,60.0,6.0,0.0
7617,40.0,6.0,90.0,7.0,0.0
7618,56.0,11.0,60.0,5.0,0.0
7619,28.0,39.0,90.0,8.0,0.0
7620,52.0,2.0,60.0,6.0,0.0
7621,56.0,1.0,60.0,5.0,0.0
7622,59.0,8.0,60.0,6.0,0.0
7623,68.0,2.0,750.0,0.0,0.0
7624,71.0,0.0,750.0,0.0,0.0
7625,41.0,6.0,90.0,7.0,0.0
7626,53.0,27.0,270.0,4.0,0.0
7627,61.0,25.0,750.0,1.0,0.0
7628,59.0,0.0,750.0,1.0,0.0
7629,61.0,40.0,60.0,5.0,0.0
7630,29.0,39.0,90.0,8.0,0.0
7631,59.0,2.0,60.0,6.0,0.0
7632,61.0,1.0,60.0,5.0,0.0
7633,59.0,8.0,60.0,6.0,0.0
7634,41.0,6.0,90.0,7.0,0.0
7635,61.0,40.0,60.0,5.0,0.0
7636,29.0,39.0,90.0,8.0,0.0
7637,59.0,2.0,60.0,6.0,0.0
7638,61.0,1.0,60.0,5.0,0.0
7639,59.0,8.0,60.0,6.0,0.0
7640,41.0,6.0,90.0,7.0,0.0
7641,61.0,13.0,60.0,5.0,0.0
7642,29.0,39.0,90.0,8.0,0.0
7643,59.0,2.0,60.0,6.0,0.0
7644,61.0,1.0,60.0,5.0,0.0
7645,59.0,3.0,60.0,6.0,0.0
7646,41.0,1.0,90.0,7.0,0.0
7647,77.0,5.0,60.0,4.0,0.0
7648,61.0,40.0,60.0,5.0,0.0
7649,29.0,39.0,90.0,8.0,0.0
7650,59.0,2.0,60.0,6.0,0.0
7651,80.0,5.0,60.0,4.0,0.0
7652,61.0,1.0,60.0,5.0,0.0
7653,59.0,5.0,60.0,6.0,0.0
7654,41.0,1.0,90.0,7.0,0.0
7655,83.0,3.0,60.0,4.0,0.0
7656,61.0,40.0,60.0,5.0,0.0
7657,29.0,28.0,90.0,8.0,0.0
7658,59.0,2.0,60.0,6.0,0.0
7659,80.0,5.0,60.0,4.0,0.0
7660,61.0,1.0,60.0,5.0,0.0
7661,59.0,8.0,60.0,6.0,0.0
7662,41.0,6.0,90.0,7.0,0.0
7663,83.0,11.0,30.0,4.0,0.0
7664,61.0,29.0,60.0,5.0,0.0
7665,29.0,39.0,90.0,8.0,0.0
7666,59.0,2.0,60.0,6.0,0.0
7667,80.0,11.0,30.0,4.0,0.0
7668,61.0,1.0,60.0,5.0,0.0
7669,59.0,8.0,60.0,6.0,0.0
7670,41.0,6.0,90.0,7.0,0.0
7671,83.0,2.0,150.0,4.0,0.0
7672,61.0,40.0,60.0,5.0,0.0
7673,29.0,39.0,90.0,8.0,0.0
7674,59.0,2.0,60.0,6.0,0.0
7675,61.0,1.0,60.0,5.0,0.0
7676,59.0,8.0,60.0,6.0,0.0
7677,41.0,6.0,90.0,7.0,0.0
7678,61.0,11.0,60.0,5.0,0.0
7679,29.0,39.0,90.0,8.0,0.0
7680,59.0,2.0,60.0,6.0,0.0
7681,61.0,1.0,60.0,5.0,0.0
7682,59.0,8.0,60.0,6.0,0.0
7683,68.0,2.0,150.0,0.0,0.0
7684,71.0,0.0,150.0,0.0,0.0
7685,41.0,6.0,90.0,7.0,0.0
7686,65.0,2.0,150.0,4.0,0.0
7687,61.0,25.0,150.0,1.0,0.0
7688,59.0,0.0,150.0,1.0,0.0
7689,61.0,40.0,60.0,5.0,0.0
7690,29.0,39.0,90.0,8.0,0.0
7691,59.0,2.0,60.0,6.0,0.0
7692,61.0,1.0,60.0,5.0,0.0
7693,59.0,8.0,60.0,6.0,0.0
7694,41.0,6.0,90.0,7.0,0.0
7695,61.0,11.0,60.0,5.0,0.0
7696,29.0,39.0,90.0,8.0,0.0
7697,59.0,2.0,60.0,6.0,0.0
7698,61.0,1.0,60.0,5.0,0.0
7699,59.0,8.0,60.0,6.0,0.0
7700,68.0,0.0,150.0,0.0,0.0
7701,71.0,2.0,150.0,0.0,0.0
7702,41.0,6.0,90.0,7.0,0.0
7703,80.0,2.0,150.0,4.0,0.0
7704,61.0,25.0,150.0,1.0,0.0
7705,59.0,0.0,150.0,1.0,0.0
7706,61.0,40.0,60.0,5.0,0.0
7707,29.0,39.0,90.0,8.0,0.0
7708,59.0,2.0,60.0,6.0,0.0
7709,61.0,1.0,60.0,5.0,0.0
7710,59.0,8.0,60.0,6.0,0.0
7711,41.0,6.0,90.0,7.0,0.0
7712,61.0,11.0,60.0,5.0,0.0
7713,29.0,153.0,90.0,8.0,0.0
7714,59.0,2.0,60.0,6.0,0.0
7715,61.0,1.0,60.0,5.0,0.0
7716,59.0,0.0,150.0,6.0,0.0
7717,54.0,1.0,150.0,6.0,0.0
7718,71.0,1.0,150.0,0.0,0.0
7719,66.0,0.0,150.0,0.0,0.0
7720,42.0,1.0,150.0,7.0,0.0
7721,54.0,2.0,150.0,4.0,0.0
7722,59.0,0.0,150.0,1.0,0.0
7723,63.0,3.0,150.0,1.0,0.0
7724,63.0,1.0,150.0,5.0,0.0
7725,30.0,212.0,150.0,8.0,0.0
7726,71.0,8.0,90.0,2.0,0.0
7727,42.0,26.0,90.0,3.0,0.0
7728,75.0,32.0,30.0,2.0,0.0
7729,58.0,0.0,150.0,3.0,0.0
7730,54.0,22.0,150.0,3.0,0.0
7731,64.0,0.0,150.0,3.0,0.0
7732,73.0,32.0,30.0,2.0,0.0
7733,75.0,48.0,30.0,2.0,0.0
7734,73.0,24.0,60.0,2.0,0.0
7735,71.0,0.0,20.0,2.0,0.0
7736,73.0,162.0,20.0,2.0,0.0
7737,71.0,1.0,150.0,2.0,0.0
7738,54.0,1.0,150.0,6.0,0.0
7739,63.0,1.0,150.0,0.0,0.0
7740,71.0,0.0,150.0,0.0,0.0
7741,47.0,1.0,150.0,7.0,0.0
7742,51.0,2.0,150.0,4.0,0.0
7743,59.0,0.0,150.0,4.0,0.0
7744,47.0,2.0,150.0,1.0,0.0
7745,59.0,0.0,150.0,1.0,0.0
7746,59.0,0.0,150.0,3.0,0.0
7747,63.0,1.0,150.0,3.0,0.0
7748,59.0,1.0,150.0,5.0,0.0
7749,35.0,57.0,150.0,8.0,0.0
7750,59.0,7.0,30.0,7.0,0.0
7751,47.0,25.0,30.0,8.0,0.0
7752,61.0,7.0,30.0,7.0,0.0
7753,49.0,25.0,30.0,8.0,0.0
7754,59.0,7.0,30.0,7.0,0.0
7755,47.0,24.0,30.0,8.0,0.0
7756,75.0,0.0,30.0,0.0,0.0
7757,71.0,1.0,30.0,0.0,0.0
7758,61.0,1.0,30.0,7.0,0.0
7759,75.0,5.0,30.0,4.0,0.0
7760,71.0,1.0,30.0,5.0,0.0
7761,49.0,25.0,30.0,8.0,0.0
7762,59.0,7.0,30.0,7.0,0.0
7763,47.0,25.0,30.0,8.0,0.0
7764,61.0,7.0,30.0,7.0,0.0
7765,49.0,24.0,30.0,8.0,0.0
7766,75.0,1.0,30.0,0.0,0.0
7767,71.0,0.0,30.0,0.0,0.0
7768,59.0,1.0,30.0,7.0,0.0
7769,75.0,5.0,30.0,4.0,0.0
7770,71.0,1.0,30.0,5.0,0.0
7771,47.0,25.0,30.0,8.0,0.0
7772,61.0,7.0,30.0,7.0,0.0
7773,49.0,25.0,30.0,8.0,0.0
7774,59.0,7.0,30.0,7.0,0.0
7775,47.0,24.0,30.0,8.0,0.0
7776,71.0,0.0,30.0,0.0,0.0
7777,75.0,2.0,30.0,0.0,0.0
7778,58.0,7.0,60.0,7.0,0.0
7779,75.0,5.0,30.0,4.0,0.0
7780,71.0,10.0,30.0,5.0,0.0
7781,46.0,39.0,60.0,8.0,0.0
7782,56.0,7.0,60.0,7.0,0.0
7783,44.0,90.0,60.0,8.0,0.0
7784,63.0,18.0,330.0,6.0,0.0
7785,75.0,0.0,90.0,0.0,0.0
7786,71.0,2.0,90.0,0.0,0.0
7787,55.0,7.0,150.0,7.0,0.0
7788,75.0,5.0,90.0,4.0,0.0
7789,51.0,0.0,540.0,1.0,0.0
7790,63.0,4.0,540.0,1.0,0.0
7791,71.0,58.0,90.0,5.0,0.0
7792,43.0,24.0,150.0,8.0,0.0
7793,70.0,0.0,90.0,0.0,0.0
7794,73.0,0.0,90.0,0.0,0.0
7795,73.0,5.0,90.0,4.0,0.0
7796,70.0,28.0,90.0,5.0,0.0
7797,71.0,0.0,90.0,0.0,0.0
7798,68.0,3.0,90.0,0.0,0.0
7799,56.0,1.0,30.0,7.0,0.0
7800,71.0,5.0,30.0,4.0,0.0
7801,68.0,1.0,30.0,5.0,0.0
7802,44.0,25.0,30.0,8.0,0.0
7803,58.0,7.0,30.0,7.0,0.0
7804,46.0,22.0,30.0,8.0,0.0
7805,56.0,7.0,30.0,7.0,0.0
7806,44.0,24.0,30.0,8.0,0.0
7807,71.0,1.0,30.0,0.0,0.0
7808,68.0,0.0,30.0,0.0,0.0
7809,58.0,1.0,30.0,7.0,0.0
7810,71.0,5.0,30.0,4.0,0.0
7811,68.0,1.0,30.0,5.0,0.0
7812,46.0,7.0,30.0,8.0,0.0
7813,56.0,7.0,30.0,7.0,0.0
7814,44.0,25.0,30.0,8.0,0.0
7815,58.0,7.0,30.0,7.0,0.0
7816,46.0,24.0,30.0,8.0,0.0
7817,71.0,1.0,30.0,0.0,0.0
7818,68.0,0.0,30.0,0.0,0.0
7819,56.0,1.0,30.0,7.0,0.0
7820,71.0,5.0,30.0,4.0,0.0
7821,68.0,1.0,30.0,5.0,0.0
7822,44.0,25.0,30.0,8.0,0.0
7823,58.0,7.0,30.0,7.0,0.0
7824,46.0,25.0,30.0,8.0,0.0
7825,56.0,7.0,30.0,7.0,0.0
7826,44.0,24.0,30.0,8.0,0.0
7827,68.0,2.0,30.0,0.0,0.0
7828,71.0,0.0,30.0,0.0,0.0
7829,54.0,3.0,60.0,7.0,0.0
7830,71.0,5.0,30.0,4.0,0.0
7831,68.0,10.0,30.0,5.0,0.0
7832,42.0,39.0,60.0,8.0,0.0
7833,52.0,7.0,60.0,7.0,0.0
7834,40.0,90.0,60.0,8.0,0.0
7835,59.0,18.0,330.0,6.0,0.0
7836,71.0,0.0,90.0,0.0,0.0
7837,68.0,2.0,90.0,0.0,0.0
7838,51.0,7.0,150.0,7.0,0.0
7839,71.0,5.0,90.0,4.0,0.0
7840,59.0,4.0,540.0,1.0,0.0
7841,47.0,0.0,540.0,1.0,0.0
7842,68.0,58.0,90.0,5.0,0.0
7843,39.0,24.0,150.0,8.0,0.0
7844,66.0,0.0,90.0,0.0,0.0
7845,69.0,0.0,90.0,0.0,0.0
7846,69.0,5.0,90.0,4.0,0.0
7847,66.0,28.0,90.0,5.0,0.0
7848,64.0,3.0,90.0,0.0,0.0
7849,68.0,0.0,90.0,0.0,0.0
7850,52.0,1.0,30.0,7.0,0.0
7851,68.0,5.0,30.0,4.0,0.0
7852,64.0,1.0,30.0,5.0,0.0
7853,40.0,25.0,30.0,8.0,0.0
7854,54.0,7.0,30.0,7.0,0.0
7855,42.0,22.0,30.0,8.0,0.0
7856,52.0,7.0,30.0,7.0,0.0
7857,40.0,24.0,30.0,8.0,0.0
7858,80.0,0.0,30.0,0.0,0.0
7859,76.0,1.0,30.0,0.0,0.0
7860,54.0,1.0,30.0,7.0,0.0
7861,68.0,5.0,30.0,4.0,0.0
7862,64.0,1.0,30.0,5.0,0.0
7863,42.0,7.0,30.0,8.0,0.0
7864,52.0,7.0,30.0,7.0,0.0
7865,40.0,25.0,30.0,8.0,0.0
7866,54.0,7.0,30.0,7.0,0.0
7867,42.0,24.0,30.0,8.0,0.0
7868,76.0,0.0,30.0,0.0,0.0
7869,80.0,1.0,30.0,0.0,0.0
7870,52.0,1.0,30.0,7.0,0.0
7871,68.0,5.0,30.0,4.0,0.0
7872,64.0,1.0,30.0,5.0,0.0
7873,40.0,25.0,30.0,8.0,0.0
7874,54.0,7.0,30.0,7.0,0.0
7875,42.0,25.0,30.0,8.0,0.0
7876,52.0,7.0,30.0,7.0,0.0
7877,40.0,24.0,30.0,8.0,0.0
7878,76.0,0.0,30.0,0.0,0.0
7879,80.0,2.0,30.0,0.0,0.0
7880,51.0,3.0,60.0,7.0,0.0
7881,68.0,5.0,30.0,4.0,0.0
7882,64.0,10.0,30.0,5.0,0.0
7883,39.0,39.0,60.0,8.0,0.0
7884,49.0,7.0,60.0,7.0,0.0
7885,37.0,90.0,60.0,8.0,0.0
7886,56.0,31.0,270.0,6.0,0.0
7887,80.0,2.0,90.0,0.0,0.0
7888,76.0,0.0,90.0,0.0,0.0
7889,48.0,4.0,180.0,7.0,0.0
7890,68.0,5.0,90.0,4.0,0.0
7891,64.0,89.0,90.0,5.0,0.0
7892,36.0,26.0,180.0,8.0,0.0
7893,75.0,1.0,90.0,0.0,0.0
7894,78.0,0.0,90.0,0.0,0.0
7895,66.0,0.0,90.0,4.0,0.0
7896,63.0,3.0,90.0,5.0,0.0
7897,76.0,0.0,90.0,0.0,0.0
7898,73.0,1.0,90.0,0.0,0.0
7899,49.0,7.0,90.0,7.0,0.0
7900,64.0,5.0,30.0,4.0,0.0
7901,61.0,24.0,30.0,5.0,0.0
7902,37.0,26.0,90.0,8.0,0.0
7903,56.0,2.0,90.0,6.0,0.0
7904,68.0,0.0,30.0,0.0,0.0
7905,76.0,2.0,30.0,0.0,0.0
7906,47.0,3.0,90.0,7.0,0.0
7907,76.0,5.0,30.0,4.0,0.0
7908,61.0,4.0,90.0,1.0,0.0
7909,73.0,54.0,30.0,5.0,0.0
7910,35.0,26.0,90.0,8.0,0.0
7911,61.0,2.0,90.0,6.0,0.0
7912,76.0,0.0,30.0,0.0,0.0
7913,73.0,2.0,30.0,0.0,0.0
7914,46.0,3.0,90.0,7.0,0.0
7915,76.0,5.0,30.0,4.0,0.0
7916,61.0,4.0,90.0,1.0,0.0
7917,73.0,54.0,30.0,5.0,0.0
7918,34.0,26.0,90.0,8.0,0.0
7919,59.0,2.0,90.0,6.0,0.0
7920,71.0,0.0,30.0,0.0,0.0
7921,76.0,2.0,30.0,0.0,0.0
7922,44.0,3.0,90.0,7.0,0.0
7923,76.0,5.0,30.0,4.0,0.0
7924,61.0,4.0,90.0,1.0,0.0
7925,73.0,54.0,30.0,5.0,0.0
7926,32.0,42.0,90.0,8.0,0.0
7927,58.0,2.0,90.0,6.0,0.0
7928,70.0,4.0,330.0,0.0,0.0
7929,76.0,0.0,330.0,0.0,0.0
7930,42.0,1.0,90.0,7.0,0.0
7931,76.0,5.0,60.0,4.0,0.0
7932,54.0,0.0,330.0,1.0,0.0
7933,61.0,1.0,330.0,1.0,0.0
7934,73.0,40.0,60.0,5.0,0.0
7935,30.0,42.0,90.0,8.0,0.0
7936,75.0,5.0,60.0,4.0,0.0
7937,71.0,1.0,60.0,5.0,0.0
7938,58.0,2.0,90.0,6.0,0.0
7939,42.0,1.0,90.0,7.0,0.0
7940,73.0,5.0,60.0,4.0,0.0
7941,70.0,40.0,60.0,5.0,0.0
7942,30.0,42.0,90.0,8.0,0.0
7943,71.0,5.0,60.0,4.0,0.0
7944,68.0,1.0,60.0,5.0,0.0
7945,58.0,2.0,90.0,6.0,0.0
7946,42.0,1.0,90.0,7.0,0.0
7947,70.0,5.0,60.0,4.0,0.0
7948,66.0,40.0,60.0,5.0,0.0
7949,30.0,42.0,90.0,8.0,0.0
7950,68.0,5.0,60.0,4.0,0.0
7951,64.0,1.0,60.0,5.0,0.0
7952,58.0,2.0,90.0,6.0,0.0
7953,42.0,1.0,90.0,7.0,0.0
7954,66.0,0.0,60.0,4.0,0.0
7955,63.0,40.0,60.0,5.0,0.0
7956,30.0,87.0,90.0,8.0,0.0
7957,64.0,5.0,60.0,4.0,0.0
7958,61.0,1.0,60.0,5.0,0.0
7959,59.0,2.0,90.0,6.0,0.0
7960,75.0,4.0,150.0,0.0,0.0
7961,71.0,0.0,150.0,0.0,0.0
7962,44.0,1.0,90.0,7.0,0.0
7963,63.0,5.0,90.0,4.0,0.0
7964,59.0,0.0,150.0,1.0,0.0
7965,47.0,25.0,150.0,1.0,0.0
7966,59.0,1.0,90.0,5.0,0.0
7967,32.0,58.0,90.0,8.0,0.0
7968,59.0,2.0,90.0,6.0,0.0
7969,44.0,1.0,90.0,7.0,0.0
7970,71.0,5.0,90.0,4.0,0.0
7971,63.0,1.0,90.0,5.0,0.0
7972,32.0,20.0,90.0,8.0,0.0
7973,59.0,2.0,90.0,6.0,0.0
7974,40.0,3.0,90.0,7.0,0.0
7975,70.0,5.0,20.0,4.0,0.0
7976,66.0,62.0,20.0,5.0,0.0
7977,28.0,1.0,90.0,8.0,0.0
7978,68.0,4.0,60.0,4.0,0.0
7979,64.0,43.0,60.0,5.0,0.0
7980,56.0,1.0,90.0,6.0,0.0
7981,76.0,1.0,90.0,0.0,0.0
7982,73.0,0.0,90.0,0.0,0.0
7983,40.0,1.0,90.0,7.0,0.0
7984,66.0,5.0,60.0,4.0,0.0
7985,63.0,38.0,60.0,5.0,0.0
7986,28.0,87.0,90.0,8.0,0.0
7987,64.0,5.0,60.0,4.0,0.0
7988,61.0,1.0,60.0,5.0,0.0
7989,54.0,2.0,90.0,6.0,0.0
7990,75.0,2.0,150.0,0.0,0.0
7991,71.0,0.0,150.0,0.0,0.0
7992,42.0,7.0,90.0,7.0,0.0
7993,63.0,2.0,150.0,4.0,0.0
7994,59.0,3.0,150.0,1.0,0.0
7995,63.0,0.0,150.0,1.0,0.0
7996,59.0,22.0,150.0,5.0,0.0
7997,30.0,58.0,90.0,8.0,0.0
7998,54.0,2.0,90.0,6.0,0.0
7999,42.0,7.0,90.0,7.0,0.0
8000,30.0,20.0,90.0,8.0,0.0
8001,52.0,2.0,90.0,6.0,0.0
8002,70.0,0.0,30.0,0.0,0.0
8003,73.0,18.0,30.0,0.0,0.0
8004,42.0,1.0,90.0,7.0,0.0
8005,63.0,6.0,20.0,4.0,0.0
8006,54.0,0.0,150.0,1.0,0.0
8007,61.0,3.0,150.0,1.0,0.0
8008,58.0,3.0,150.0,5.0,0.0
8009,30.0,20.0,90.0,8.0,0.0
8010,61.0,14.0,20.0,4.0,0.0
8011,71.0,10.0,30.0,0.0,0.0
8012,75.0,0.0,30.0,0.0,0.0
8013,63.0,19.0,20.0,4.0,0.0
8014,73.0,2.0,30.0,0.0,0.0
8015,70.0,0.0,30.0,0.0,0.0
8016,61.0,4.0,20.0,4.0,0.0
8017,52.0,1.0,90.0,6.0,0.0
8018,71.0,2.0,60.0,0.0,0.0
8019,68.0,0.0,60.0,0.0,0.0
8020,42.0,1.0,90.0,7.0,0.0
8021,63.0,22.0,20.0,4.0,0.0
8022,30.0,153.0,90.0,8.0,0.0
8023,61.0,18.0,20.0,4.0,0.0
8024,73.0,0.0,60.0,0.0,0.0
8025,70.0,1.0,60.0,0.0,0.0
8026,59.0,19.0,20.0,4.0,0.0
8027,61.0,6.0,20.0,4.0,0.0
8028,51.0,1.0,150.0,6.0,0.0
8029,71.0,1.0,150.0,0.0,0.0
8030,47.0,1.0,150.0,7.0,0.0
8031,59.0,2.0,150.0,4.0,0.0
8032,47.0,3.0,150.0,1.0,0.0
8033,59.0,0.0,150.0,1.0,0.0
8034,59.0,1.0,150.0,5.0,0.0
8035,35.0,58.0,150.0,8.0,0.0
8036,71.0,5.0,30.0,4.0,0.0
8037,59.0,27.0,30.0,5.0,0.0
8038,73.0,5.0,30.0,4.0,0.0
8039,61.0,27.0,30.0,5.0,0.0
8040,71.0,5.0,30.0,4.0,0.0
8041,59.0,24.0,30.0,5.0,0.0
8042,63.0,2.0,30.0,6.0,0.0
8043,59.0,1.0,30.0,7.0,0.0
8044,73.0,5.0,30.0,4.0,0.0
8045,61.0,1.0,30.0,5.0,0.0
8046,47.0,26.0,30.0,8.0,0.0
8047,71.0,5.0,30.0,4.0,0.0
8048,59.0,27.0,30.0,5.0,0.0
8049,73.0,5.0,30.0,4.0,0.0
8050,61.0,24.0,30.0,5.0,0.0
8051,63.0,2.0,30.0,6.0,0.0
8052,59.0,1.0,30.0,7.0,0.0
8053,71.0,5.0,30.0,4.0,0.0
8054,59.0,1.0,30.0,5.0,0.0
8055,47.0,26.0,30.0,8.0,0.0
8056,73.0,5.0,30.0,4.0,0.0
8057,61.0,27.0,30.0,5.0,0.0
8058,71.0,5.0,30.0,4.0,0.0
8059,59.0,24.0,30.0,5.0,0.0
8060,63.0,2.0,30.0,6.0,0.0
8061,59.0,7.0,30.0,7.0,0.0
8062,70.0,5.0,60.0,4.0,0.0
8063,58.0,41.0,60.0,5.0,0.0
8064,47.0,10.0,30.0,8.0,0.0
8065,68.0,5.0,60.0,4.0,0.0
8066,56.0,90.0,60.0,5.0,0.0
8067,63.0,2.0,90.0,6.0,0.0
8068,59.0,7.0,90.0,7.0,0.0
8069,67.0,5.0,150.0,4.0,0.0
8070,55.0,22.0,150.0,5.0,0.0
8071,47.0,58.0,90.0,8.0,0.0
8072,61.0,2.0,90.0,6.0,0.0
8073,58.0,7.0,90.0,7.0,0.0
8074,46.0,25.0,90.0,8.0,0.0
8075,59.0,2.0,30.0,6.0,0.0
8076,56.0,1.0,30.0,7.0,0.0
8077,68.0,5.0,30.0,4.0,0.0
8078,56.0,1.0,30.0,5.0,0.0
8079,44.0,26.0,30.0,8.0,0.0
8080,70.0,5.0,30.0,4.0,0.0
8081,58.0,27.0,30.0,5.0,0.0
8082,68.0,5.0,30.0,4.0,0.0
8083,56.0,24.0,30.0,5.0,0.0
8084,59.0,2.0,30.0,6.0,0.0
8085,56.0,1.0,30.0,7.0,0.0
8086,70.0,5.0,30.0,4.0,0.0
8087,58.0,1.0,30.0,5.0,0.0
8088,44.0,26.0,30.0,8.0,0.0
8089,68.0,5.0,30.0,4.0,0.0
8090,56.0,27.0,30.0,5.0,0.0
8091,70.0,5.0,30.0,4.0,0.0
8092,58.0,24.0,30.0,5.0,0.0
8093,59.0,2.0,30.0,6.0,0.0
8094,56.0,1.0,30.0,7.0,0.0
8095,68.0,5.0,30.0,4.0,0.0
8096,56.0,1.0,30.0,5.0,0.0
8097,44.0,26.0,30.0,8.0,0.0
8098,70.0,5.0,30.0,4.0,0.0
8099,58.0,27.0,30.0,5.0,0.0
8100,68.0,5.0,30.0,4.0,0.0
8101,56.0,24.0,30.0,5.0,0.0
8102,59.0,2.0,30.0,6.0,0.0
8103,56.0,7.0,30.0,7.0,0.0
8104,66.0,5.0,60.0,4.0,0.0
8105,54.0,41.0,60.0,5.0,0.0
8106,44.0,10.0,30.0,8.0,0.0
8107,64.0,5.0,60.0,4.0,0.0
8108,52.0,90.0,60.0,5.0,0.0
8109,59.0,2.0,90.0,6.0,0.0
8110,56.0,7.0,90.0,7.0,0.0
8111,63.0,5.0,150.0,4.0,0.0
8112,51.0,22.0,150.0,5.0,0.0
8113,44.0,58.0,90.0,8.0,0.0
8114,57.0,2.0,90.0,6.0,0.0
8115,54.0,7.0,90.0,7.0,0.0
8116,42.0,25.0,90.0,8.0,0.0
8117,56.0,2.0,30.0,6.0,0.0
8118,52.0,1.0,30.0,7.0,0.0
8119,76.0,5.0,30.0,4.0,0.0
8120,64.0,1.0,30.0,5.0,0.0
8121,40.0,26.0,30.0,8.0,0.0
8122,78.0,5.0,30.0,4.0,0.0
8123,66.0,27.0,30.0,5.0,0.0
8124,76.0,5.0,30.0,4.0,0.0
8125,64.0,24.0,30.0,5.0,0.0
8126,56.0,2.0,30.0,6.0,0.0
8127,52.0,1.0,30.0,7.0,0.0
8128,78.0,5.0,30.0,4.0,0.0
8129,66.0,1.0,30.0,5.0,0.0
8130,40.0,26.0,30.0,8.0,0.0
8131,76.0,5.0,30.0,4.0,0.0
8132,64.0,27.0,30.0,5.0,0.0
8133,78.0,5.0,30.0,4.0,0.0
8134,66.0,24.0,30.0,5.0,0.0
8135,56.0,2.0,30.0,6.0,0.0
8136,52.0,1.0,30.0,7.0,0.0
8137,76.0,5.0,30.0,4.0,0.0
8138,64.0,1.0,30.0,5.0,0.0
8139,40.0,26.0,30.0,8.0,0.0
8140,78.0,5.0,30.0,4.0,0.0
8141,66.0,27.0,30.0,5.0,0.0
8142,76.0,5.0,30.0,4.0,0.0
8143,64.0,24.0,30.0,5.0,0.0
8144,56.0,2.0,30.0,6.0,0.0
8145,52.0,7.0,30.0,7.0,0.0
8146,75.0,5.0,60.0,4.0,0.0
8147,63.0,41.0,60.0,5.0,0.0
8148,40.0,10.0,30.0,8.0,0.0
8149,73.0,5.0,60.0,4.0,0.0
8150,61.0,90.0,60.0,5.0,0.0
8151,56.0,2.0,90.0,6.0,0.0
8152,52.0,7.0,90.0,7.0,0.0
8153,72.0,4.0,180.0,4.0,0.0
8154,60.0,24.0,180.0,5.0,0.0
8155,40.0,85.0,90.0,8.0,0.0
8156,54.0,2.0,90.0,6.0,0.0
8157,51.0,3.0,90.0,7.0,0.0
8158,39.0,1.0,90.0,8.0,0.0
8159,52.0,2.0,30.0,6.0,0.0
8160,49.0,7.0,30.0,7.0,0.0
8161,73.0,5.0,90.0,4.0,0.0
8162,61.0,26.0,90.0,5.0,0.0
8163,37.0,56.0,30.0,8.0,0.0
8164,56.0,2.0,30.0,6.0,0.0
8165,48.0,1.0,30.0,7.0,0.0
8166,75.0,5.0,30.0,4.0,0.0
8167,66.0,1.0,30.0,5.0,0.0
8168,36.0,87.0,30.0,8.0,0.0
8169,56.0,2.0,30.0,6.0,0.0
8170,49.0,1.0,30.0,7.0,0.0
8171,76.0,5.0,30.0,4.0,0.0
8172,64.0,1.0,30.0,5.0,0.0
8173,37.0,87.0,30.0,8.0,0.0
8174,61.0,2.0,30.0,6.0,0.0
8175,65.0,0.0,90.0,0.0,0.0
8176,68.0,4.0,90.0,0.0,0.0
8177,47.0,1.0,30.0,7.0,0.0
8178,77.0,5.0,30.0,4.0,0.0
8179,61.0,29.0,90.0,1.0,0.0
8180,68.0,1.0,30.0,5.0,0.0
8181,35.0,54.0,30.0,8.0,0.0
8182,61.0,2.0,30.0,6.0,0.0
8183,66.0,0.0,90.0,0.0,0.0
8184,70.0,4.0,90.0,0.0,0.0
8185,46.0,1.0,30.0,7.0,0.0
8186,78.0,5.0,30.0,4.0,0.0
8187,61.0,29.0,90.0,1.0,0.0
8188,66.0,1.0,30.0,5.0,0.0
8189,34.0,54.0,30.0,8.0,0.0
8190,70.0,2.0,30.0,6.0,0.0
8191,73.0,4.0,90.0,0.0,0.0
8192,70.0,0.0,90.0,0.0,0.0
8193,51.0,1.0,30.0,7.0,0.0
8194,79.0,5.0,30.0,4.0,0.0
8195,63.0,29.0,90.0,1.0,0.0
8196,73.0,1.0,30.0,5.0,0.0
8197,39.0,54.0,30.0,8.0,0.0
8198,68.0,2.0,30.0,6.0,0.0
8199,71.0,0.0,90.0,0.0,0.0
8200,68.0,4.0,90.0,0.0,0.0
8201,52.0,1.0,30.0,7.0,0.0
8202,80.0,5.0,30.0,4.0,0.0
8203,59.0,29.0,90.0,1.0,0.0
8204,71.0,1.0,30.0,5.0,0.0
8205,40.0,54.0,30.0,8.0,0.0
8206,66.0,2.0,30.0,6.0,0.0
8207,76.0,0.0,90.0,0.0,0.0
8208,70.0,4.0,90.0,0.0,0.0
8209,49.0,1.0,30.0,7.0,0.0
8210,82.0,5.0,30.0,4.0,0.0
8211,64.0,0.0,90.0,1.0,0.0
8212,54.0,29.0,90.0,1.0,0.0
8213,76.0,1.0,30.0,5.0,0.0
8214,37.0,54.0,30.0,8.0,0.0
8215,66.0,2.0,30.0,6.0,0.0
8216,75.0,0.0,90.0,0.0,0.0
8217,71.0,4.0,90.0,0.0,0.0
8218,51.0,1.0,30.0,7.0,0.0
8219,83.0,5.0,30.0,4.0,0.0
8220,63.0,29.0,90.0,1.0,0.0
8221,54.0,0.0,90.0,1.0,0.0
8222,75.0,1.0,30.0,5.0,0.0
8223,39.0,54.0,30.0,8.0,0.0
8224,59.0,2.0,30.0,6.0,0.0
8225,71.0,0.0,90.0,0.0,0.0
8226,75.0,4.0,90.0,0.0,0.0
8227,44.0,1.0,30.0,7.0,0.0
8228,51.0,5.0,30.0,4.0,0.0
8229,47.0,0.0,90.0,1.0,0.0
8230,59.0,43.0,90.0,1.0,0.0
8231,63.0,1.0,30.0,5.0,0.0
8232,32.0,54.0,30.0,8.0,0.0
8233,59.0,8.0,60.0,6.0,0.0
8234,74.0,0.0,540.0,0.0,0.0
8235,68.0,2.0,540.0,0.0,0.0
8236,41.0,6.0,90.0,7.0,0.0
8237,53.0,27.0,150.0,4.0,0.0
8238,59.0,0.0,540.0,1.0,0.0
8239,47.0,1.0,540.0,1.0,0.0
8240,62.0,40.0,60.0,5.0,0.0
8241,29.0,39.0,90.0,8.0,0.0
8242,59.0,2.0,60.0,6.0,0.0
8243,62.0,1.0,60.0,5.0,0.0
8244,59.0,8.0,60.0,6.0,0.0
8245,41.0,6.0,90.0,7.0,0.0
8246,62.0,13.0,60.0,5.0,0.0
8247,29.0,39.0,90.0,8.0,0.0
8248,59.0,2.0,60.0,6.0,0.0
8249,62.0,1.0,60.0,5.0,0.0
8250,59.0,8.0,60.0,6.0,0.0
8251,41.0,6.0,90.0,7.0,0.0
8252,80.0,2.0,330.0,4.0,0.0
8253,62.0,40.0,60.0,5.0,0.0
8254,29.0,39.0,90.0,8.0,0.0
8255,59.0,2.0,60.0,6.0,0.0
8256,62.0,1.0,60.0,5.0,0.0
8257,59.0,8.0,60.0,6.0,0.0
8258,41.0,6.0,90.0,7.0,0.0
8259,62.0,40.0,60.0,5.0,0.0
8260,29.0,39.0,90.0,8.0,0.0
8261,59.0,2.0,60.0,6.0,0.0
8262,62.0,1.0,60.0,5.0,0.0
8263,59.0,8.0,60.0,6.0,0.0
8264,41.0,6.0,90.0,7.0,0.0
8265,62.0,40.0,60.0,5.0,0.0
8266,29.0,39.0,90.0,8.0,0.0
8267,59.0,2.0,60.0,6.0,0.0
8268,62.0,1.0,60.0,5.0,0.0
8269,59.0,3.0,60.0,6.0,0.0
8270,41.0,6.0,90.0,7.0,0.0
8271,62.0,40.0,60.0,5.0,0.0
8272,29.0,39.0,90.0,8.0,0.0
8273,59.0,2.0,60.0,6.0,0.0
8274,62.0,1.0,60.0,5.0,0.0
8275,59.0,8.0,60.0,6.0,0.0
8276,71.0,2.0,150.0,0.0,0.0
8277,75.0,0.0,150.0,0.0,0.0
8278,42.0,6.0,90.0,7.0,0.0
8279,54.0,2.0,150.0,4.0,0.0
8280,59.0,25.0,150.0,1.0,0.0
8281,63.0,0.0,150.0,1.0,0.0
8282,63.0,40.0,60.0,5.0,0.0
8283,30.0,39.0,90.0,8.0,0.0
8284,59.0,2.0,60.0,6.0,0.0
8285,63.0,1.0,60.0,5.0,0.0
8286,59.0,8.0,60.0,6.0,0.0
8287,42.0,6.0,90.0,7.0,0.0
8288,63.0,11.0,60.0,5.0,0.0
8289,30.0,39.0,90.0,8.0,0.0
8290,59.0,2.0,60.0,6.0,0.0
8291,63.0,1.0,60.0,5.0,0.0
8292,59.0,8.0,60.0,6.0,0.0
8293,71.0,4.0,150.0,0.0,0.0
8294,75.0,0.0,150.0,0.0,0.0
8295,42.0,6.0,90.0,7.0,0.0
8296,78.0,27.0,270.0,4.0,0.0
8297,59.0,0.0,150.0,1.0,0.0
8298,63.0,3.0,150.0,1.0,0.0
8299,63.0,40.0,60.0,5.0,0.0
8300,30.0,39.0,90.0,8.0,0.0
8301,59.0,2.0,60.0,6.0,0.0
8302,63.0,1.0,60.0,5.0,0.0
8303,59.0,1.0,60.0,6.0,0.0
8304,42.0,3.0,90.0,7.0,0.0
8305,63.0,40.0,60.0,5.0,0.0
8306,30.0,39.0,90.0,8.0,0.0
8307,59.0,1.0,60.0,6.0,0.0
8308,75.0,1.0,60.0,0.0,0.0
8309,71.0,0.0,60.0,0.0,0.0
8310,59.0,3.0,60.0,1.0,0.0
8311,63.0,0.0,60.0,1.0,0.0
8312,63.0,1.0,60.0,5.0,0.0
8313,59.0,8.0,60.0,6.0,0.0
8314,75.0,0.0,150.0,0.0,0.0
8315,71.0,4.0,150.0,0.0,0.0
8316,42.0,6.0,90.0,7.0,0.0
8317,63.0,0.0,150.0,1.0,0.0
8318,59.0,0.0,150.0,1.0,0.0
8319,63.0,13.0,60.0,5.0,0.0
8320,30.0,39.0,90.0,8.0,0.0
8321,59.0,2.0,60.0,6.0,0.0
8322,63.0,1.0,60.0,5.0,0.0
8323,59.0,1.0,60.0,6.0,0.0
8324,42.0,1.0,90.0,7.0,0.0
8325,75.0,3.0,60.0,4.0,0.0
8326,63.0,40.0,60.0,5.0,0.0
8327,30.0,39.0,90.0,8.0,0.0
8328,59.0,1.0,60.0,6.0,0.0
8329,75.0,1.0,60.0,0.0,0.0
8330,71.0,0.0,60.0,0.0,0.0
8331,71.0,2.0,60.0,4.0,0.0
8332,59.0,3.0,60.0,1.0,0.0
8333,63.0,0.0,60.0,1.0,0.0
8334,63.0,1.0,60.0,5.0,0.0
8335,59.0,8.0,60.0,6.0,0.0
8336,75.0,0.0,150.0,0.0,0.0
8337,71.0,4.0,150.0,0.0,0.0
8338,42.0,1.0,90.0,7.0,0.0
8339,78.0,5.0,90.0,4.0,0.0
8340,59.0,25.0,150.0,1.0,0.0
8341,63.0,0.0,150.0,1.0,0.0
8342,63.0,40.0,60.0,5.0,0.0
8343,30.0,39.0,90.0,8.0,0.0
8344,59.0,2.0,60.0,6.0,0.0
8345,63.0,1.0,60.0,5.0,0.0
8346,59.0,5.0,60.0,6.0,0.0
8347,42.0,1.0,90.0,7.0,0.0
8348,75.0,3.0,60.0,4.0,0.0
8349,63.0,11.0,60.0,5.0,0.0
8350,30.0,39.0,90.0,8.0,0.0
8351,59.0,2.0,60.0,6.0,0.0
8352,71.0,5.0,60.0,4.0,0.0
8353,63.0,1.0,60.0,5.0,0.0
8354,59.0,8.0,60.0,6.0,0.0
8355,71.0,0.0,180.0,0.0,0.0
8356,75.0,4.0,180.0,0.0,0.0
8357,42.0,6.0,90.0,7.0,0.0
8358,66.0,27.0,150.0,4.0,0.0
8359,63.0,1.0,180.0,1.0,0.0
8360,59.0,0.0,180.0,1.0,0.0
8361,63.0,40.0,60.0,5.0,0.0
8362,30.0,39.0,90.0,8.0,0.0
8363,59.0,2.0,60.0,6.0,0.0
8364,63.0,1.0,60.0,5.0,0.0
8365,59.0,8.0,60.0,6.0,0.0
8366,42.0,1.0,90.0,7.0,0.0
8367,63.0,13.0,60.0,5.0,0.0
8368,30.0,20.0,90.0,8.0,0.0
8369,59.0,2.0,60.0,6.0,0.0
8370,63.0,1.0,60.0,5.0,0.0
8371,58.0,5.0,60.0,6.0,0.0
8372,70.0,0.0,150.0,0.0,0.0
8373,73.0,4.0,150.0,0.0,0.0
8374,42.0,3.0,90.0,7.0,0.0
8375,75.0,19.0,20.0,4.0,0.0
8376,61.0,0.0,150.0,1.0,0.0
8377,58.0,6.0,150.0,1.0,0.0
8378,61.0,21.0,60.0,5.0,0.0
8379,30.0,20.0,90.0,8.0,0.0
8380,73.0,3.0,20.0,4.0,0.0
8381,58.0,2.0,60.0,6.0,0.0
8382,75.0,19.0,20.0,4.0,0.0
8383,61.0,1.0,60.0,5.0,0.0
8384,73.0,3.0,20.0,4.0,0.0
8385,58.0,5.0,60.0,6.0,0.0
8386,42.0,1.0,90.0,7.0,0.0
8387,75.0,19.0,20.0,4.0,0.0
8388,61.0,11.0,60.0,5.0,0.0
8389,30.0,87.0,90.0,8.0,0.0
8390,73.0,3.0,20.0,4.0,0.0
8391,58.0,2.0,60.0,6.0,0.0
8392,71.0,19.0,20.0,4.0,0.0
8393,61.0,1.0,60.0,5.0,0.0
8394,73.0,5.0,20.0,4.0,0.0
8395,59.0,1.0,90.0,6.0,0.0
8396,71.0,4.0,90.0,0.0,0.0
8397,47.0,1.0,150.0,7.0,0.0
8398,71.0,2.0,150.0,4.0,0.0
8399,59.0,3.0,90.0,1.0,0.0
8400,51.0,4.0,150.0,1.0,0.0
8401,59.0,40.0,90.0,5.0,0.0
8402,35.0,21.0,150.0,8.0,0.0
8403,51.0,8.0,60.0,6.0,0.0
8404,66.0,4.0,90.0,0.0,0.0
8405,54.0,3.0,90.0,1.0,0.0
8406,59.0,12.0,60.0,5.0,0.0
8407,51.0,1.0,60.0,6.0,0.0
8408,59.0,88.0,60.0,5.0,0.0
8409,51.0,1.0,90.0,6.0,0.0
8410,71.0,4.0,90.0,0.0,0.0
8411,35.0,7.0,150.0,7.0,0.0
8412,59.0,3.0,90.0,1.0,0.0
8413,59.0,40.0,90.0,5.0,0.0
8414,23.0,21.0,150.0,8.0,0.0
8415,59.0,5.0,60.0,6.0,0.0
8416,66.0,2.0,90.0,0.0,0.0
8417,66.0,3.0,60.0,4.0,0.0
8418,54.0,0.0,90.0,1.0,0.0
8419,42.0,3.0,90.0,1.0,0.0
8420,63.0,12.0,60.0,5.0,0.0
8421,59.0,1.0,60.0,6.0,0.0
8422,71.0,2.0,60.0,4.0,0.0
8423,63.0,88.0,60.0,5.0,0.0
8424,59.0,1.0,90.0,6.0,0.0
8425,71.0,2.0,90.0,0.0,0.0
8426,75.0,2.0,90.0,4.0,0.0
8427,47.0,0.0,90.0,1.0,0.0
8428,59.0,3.0,90.0,1.0,0.0
8429,63.0,40.0,90.0,5.0,0.0
8430,63.0,5.0,60.0,6.0,0.0
8431,75.0,2.0,90.0,0.0,0.0
8432,71.0,3.0,60.0,4.0,0.0
8433,63.0,3.0,90.0,1.0,0.0
8434,51.0,0.0,90.0,1.0,0.0
8435,66.0,40.0,60.0,5.0,0.0
8436,63.0,1.0,60.0,6.0,0.0
8437,75.0,2.0,60.0,4.0,0.0
8438,66.0,48.0,60.0,5.0,0.0
8439,63.0,1.0,150.0,6.0,0.0
8440,78.0,2.0,150.0,0.0,0.0
8441,78.0,2.0,150.0,4.0,0.0
8442,54.0,27.0,150.0,1.0,0.0
8443,66.0,0.0,150.0,1.0,0.0
8444,66.0,48.0,60.0,5.0,0.0
8445,71.0,48.0,60.0,5.0,0.0
8446,47.0,6.0,90.0,7.0,0.0
8447,70.0,10.0,60.0,5.0,0.0
8448,35.0,47.0,90.0,8.0,0.0
8449,68.0,1.0,60.0,5.0,0.0
8450,51.0,6.0,90.0,7.0,0.0
8451,66.0,42.0,60.0,5.0,0.0
8452,39.0,26.0,90.0,8.0,0.0
8453,66.0,1.0,60.0,5.0,0.0
8454,66.0,2.0,90.0,6.0,0.0
8455,75.0,0.0,30.0,0.0,0.0
8456,71.0,2.0,30.0,0.0,0.0
8457,47.0,6.0,90.0,7.0,0.0
8458,71.0,2.0,30.0,4.0,0.0
8459,59.0,17.0,30.0,1.0,0.0
8460,63.0,0.0,30.0,1.0,0.0
8461,63.0,40.0,60.0,5.0,0.0
8462,35.0,26.0,90.0,8.0,0.0
8463,66.0,1.0,60.0,5.0,0.0
8464,66.0,2.0,90.0,6.0,0.0
8465,76.0,0.0,30.0,0.0,0.0
8466,73.0,2.0,30.0,0.0,0.0
8467,54.0,6.0,90.0,7.0,0.0
8468,73.0,2.0,30.0,4.0,0.0
8469,64.0,0.0,30.0,1.0,0.0
8470,61.0,17.0,30.0,1.0,0.0
8471,64.0,40.0,60.0,5.0,0.0
8472,42.0,26.0,90.0,8.0,0.0
8473,66.0,1.0,60.0,5.0,0.0
8474,66.0,2.0,90.0,6.0,0.0
8475,73.0,2.0,30.0,0.0,0.0
8476,70.0,0.0,30.0,0.0,0.0
8477,42.0,6.0,90.0,7.0,0.0
8478,70.0,2.0,30.0,4.0,0.0
8479,61.0,17.0,30.0,1.0,0.0
8480,54.0,0.0,30.0,1.0,0.0
8481,61.0,40.0,60.0,5.0,0.0
8482,30.0,87.0,90.0,8.0,0.0
8483,66.0,1.0,60.0,5.0,0.0
8484,66.0,1.0,90.0,6.0,0.0
8485,71.0,4.0,90.0,0.0,0.0
8486,47.0,1.0,150.0,7.0,0.0
8487,71.0,2.0,150.0,4.0,0.0
8488,59.0,3.0,90.0,1.0,0.0
8489,51.0,4.0,150.0,1.0,0.0
8490,63.0,40.0,90.0,5.0,0.0
8491,35.0,21.0,150.0,8.0,0.0
8492,51.0,8.0,60.0,6.0,0.0
8493,66.0,4.0,90.0,0.0,0.0
8494,54.0,3.0,90.0,1.0,0.0
8495,59.0,12.0,60.0,5.0,0.0
8496,51.0,1.0,60.0,6.0,0.0
8497,59.0,88.0,60.0,5.0,0.0
8498,51.0,1.0,90.0,6.0,0.0
8499,71.0,4.0,90.0,0.0,0.0
8500,35.0,7.0,150.0,7.0,0.0
8501,59.0,3.0,90.0,1.0,0.0
8502,59.0,40.0,90.0,5.0,0.0
8503,23.0,21.0,150.0,8.0,0.0
8504,59.0,5.0,60.0,6.0,0.0
8505,66.0,2.0,90.0,0.0,0.0
8506,66.0,3.0,60.0,4.0,0.0
8507,42.0,0.0,90.0,1.0,0.0
8508,54.0,3.0,90.0,1.0,0.0
8509,63.0,12.0,60.0,5.0,0.0
8510,59.0,1.0,60.0,6.0,0.0
8511,71.0,2.0,60.0,4.0,0.0
8512,63.0,88.0,60.0,5.0,0.0
8513,59.0,1.0,90.0,6.0,0.0
8514,71.0,2.0,90.0,0.0,0.0
8515,75.0,2.0,90.0,4.0,0.0
8516,59.0,3.0,90.0,1.0,0.0
8517,47.0,0.0,90.0,1.0,0.0
8518,63.0,40.0,90.0,5.0,0.0
8519,63.0,5.0,60.0,6.0,0.0
8520,75.0,2.0,90.0,0.0,0.0
8521,71.0,3.0,60.0,4.0,0.0
8522,51.0,0.0,90.0,1.0,0.0
8523,63.0,3.0,90.0,1.0,0.0
8524,66.0,40.0,60.0,5.0,0.0
8525,63.0,1.0,60.0,6.0,0.0
8526,75.0,2.0,60.0,4.0,0.0
8527,66.0,29.0,60.0,5.0,0.0
8528,63.0,1.0,150.0,6.0,0.0
8529,78.0,4.0,150.0,0.0,0.0
8530,78.0,19.0,30.0,4.0,0.0
8531,66.0,0.0,150.0,1.0,0.0
8532,54.0,27.0,150.0,1.0,0.0
8533,66.0,48.0,60.0,5.0,0.0
8534,71.0,29.0,60.0,5.0,0.0
8535,47.0,6.0,90.0,7.0,0.0
8536,78.0,19.0,30.0,4.0,0.0
8537,70.0,10.0,60.0,5.0,0.0
8538,35.0,47.0,90.0,8.0,0.0
8539,68.0,1.0,60.0,5.0,0.0
8540,51.0,6.0,90.0,7.0,0.0
8541,66.0,42.0,60.0,5.0,0.0
8542,39.0,20.0,90.0,8.0,0.0
8543,66.0,1.0,60.0,5.0,0.0
8544,66.0,2.0,90.0,6.0,0.0
8545,75.0,4.0,30.0,0.0,0.0
8546,71.0,0.0,30.0,0.0,0.0
8547,47.0,3.0,90.0,7.0,0.0
8548,76.0,6.0,20.0,4.0,0.0
8549,63.0,14.0,30.0,1.0,0.0
8550,59.0,0.0,30.0,1.0,0.0
8551,59.0,21.0,60.0,5.0,0.0
8552,35.0,26.0,90.0,8.0,0.0
8553,75.0,3.0,20.0,4.0,0.0
8554,76.0,19.0,20.0,4.0,0.0
8555,66.0,1.0,60.0,5.0,0.0
8556,75.0,3.0,20.0,4.0,0.0
8557,66.0,2.0,90.0,6.0,0.0
8558,76.0,0.0,30.0,0.0,0.0
8559,73.0,4.0,30.0,0.0,0.0
8560,54.0,1.0,90.0,7.0,0.0
8561,76.0,5.0,90.0,4.0,0.0
8562,61.0,17.0,30.0,1.0,0.0
8563,64.0,0.0,30.0,1.0,0.0
8564,61.0,40.0,60.0,5.0,0.0
8565,42.0,26.0,90.0,8.0,0.0
8566,66.0,1.0,60.0,5.0,0.0
8567,66.0,2.0,90.0,6.0,0.0
8568,73.0,2.0,30.0,0.0,0.0
8569,70.0,0.0,30.0,0.0,0.0
8570,42.0,6.0,90.0,7.0,0.0
8571,73.0,2.0,30.0,4.0,0.0
8572,54.0,0.0,30.0,1.0,0.0
8573,61.0,17.0,30.0,1.0,0.0
8574,58.0,40.0,60.0,5.0,0.0
8575,30.0,153.0,90.0,8.0,0.0
8576,66.0,1.0,60.0,5.0,0.0
8577,63.0,1.0,150.0,6.0,0.0
8578,71.0,1.0,150.0,0.0,0.0
8579,47.0,1.0,150.0,7.0,0.0
8580,71.0,2.0,150.0,4.0,0.0
8581,51.0,0.0,150.0,1.0,0.0
8582,59.0,3.0,150.0,1.0,0.0
8583,59.0,1.0,150.0,5.0,0.0
8584,35.0,183.0,150.0,8.0,0.0
8585,47.0,1.0,150.0,6.0,0.0
8586,71.0,1.0,150.0,0.0,0.0
8587,35.0,1.0,150.0,7.0,0.0
8588,59.0,0.0,150.0,4.0,0.0
8589,51.0,2.0,150.0,4.0,0.0
8590,47.0,3.0,150.0,1.0,0.0
8591,51.0,177.0,150.0,5.0,0.0
8592,59.0,0.0,150.0,5.0,0.0
8593,23.0,0.0,330.0,8.0,0.0
