,note,step,duration,channel,velocity
0,54.0,240.0,480.0,4.0,0.0
1,57.0,0.0,480.0,2.0,0.0
2,70.0,240.0,240.0,3.0,0.0
3,85.0,0.0,960.0,1.0,0.0
4,66.0,270.0,1410.0,5.0,0.0
5,73.0,240.0,240.0,3.0,0.0
6,70.0,240.0,240.0,3.0,0.0
7,73.0,240.0,240.0,3.0,0.0
8,70.0,0.0,240.0,3.0,0.0
9,90.0,192.0,240.0,1.0,0.0
10,73.0,18.0,180.0,3.0,0.0
11,85.0,0.0,180.0,1.0,0.0
12,82.0,240.0,960.0,1.0,0.0
13,70.0,240.0,240.0,3.0,0.0
14,66.0,270.0,1410.0,5.0,0.0
15,73.0,240.0,240.0,3.0,0.0
16,70.0,240.0,240.0,3.0,0.0
17,73.0,0.0,240.0,3.0,0.0
18,85.0,192.0,240.0,1.0,0.0
19,70.0,0.0,240.0,3.0,0.0
20,82.0,18.0,180.0,1.0,0.0
21,73.0,0.0,180.0,3.0,0.0
22,70.0,240.0,240.0,3.0,0.0
23,61.0,0.0,960.0,5.0,0.0
24,73.0,240.0,240.0,3.0,0.0
25,78.0,0.0,15.0,1.0,0.0
26,70.0,240.0,240.0,3.0,0.0
27,73.0,80.0,240.0,3.0,0.0
28,65.0,23.0,450.0,5.0,0.0
29,80.0,80.0,90.0,1.0,0.0
30,71.0,120.0,240.0,3.0,0.0
31,82.0,80.0,90.0,1.0,0.0
32,80.0,0.0,90.0,1.0,0.0
33,78.0,72.0,120.0,1.0,0.0
34,73.0,25.0,180.0,3.0,0.0
35,80.0,360.0,120.0,1.0,0.0
36,70.0,0.0,360.0,3.0,0.0
37,82.0,480.0,480.0,1.0,0.0
38,66.0,120.0,360.0,5.0,0.0
39,78.0,360.0,480.0,1.0,0.0
40,73.0,360.0,360.0,1.0,0.0
41,66.0,6.0,1410.0,5.0,0.0
42,70.0,240.0,240.0,3.0,0.0
43,85.0,0.0,960.0,1.0,0.0
44,73.0,240.0,240.0,3.0,0.0
45,70.0,240.0,240.0,3.0,0.0
46,73.0,240.0,240.0,3.0,0.0
47,70.0,120.0,240.0,3.0,0.0
48,90.0,72.0,360.0,1.0,0.0
49,73.0,18.0,180.0,3.0,0.0
50,85.0,264.0,90.0,1.0,0.0
51,82.0,0.0,960.0,1.0,0.0
52,70.0,240.0,240.0,3.0,0.0
53,66.0,6.0,1410.0,5.0,0.0
54,73.0,240.0,240.0,3.0,0.0
55,70.0,240.0,240.0,3.0,0.0
56,73.0,240.0,240.0,3.0,0.0
57,85.0,72.0,360.0,1.0,0.0
58,70.0,120.0,240.0,3.0,0.0
59,73.0,18.0,180.0,3.0,0.0
60,82.0,264.0,90.0,1.0,0.0
61,70.0,240.0,240.0,3.0,0.0
62,61.0,0.0,960.0,5.0,0.0
63,73.0,0.0,240.0,3.0,0.0
64,78.0,240.0,15.0,1.0,0.0
65,70.0,240.0,240.0,3.0,0.0
66,73.0,80.0,240.0,3.0,0.0
67,65.0,23.0,450.0,5.0,0.0
68,80.0,80.0,90.0,1.0,0.0
69,71.0,120.0,240.0,3.0,0.0
70,82.0,80.0,90.0,1.0,0.0
71,80.0,72.0,210.0,1.0,0.0
72,73.0,25.0,180.0,3.0,0.0
73,82.0,360.0,120.0,1.0,0.0
74,70.0,0.0,360.0,3.0,0.0
75,66.0,480.0,360.0,5.0,0.0
76,78.0,0.0,360.0,1.0,0.0
77,61.0,480.0,360.0,5.0,0.0
78,54.0,360.0,360.0,5.0,0.0
79,70.0,240.0,240.0,3.0,0.0
80,66.0,270.0,1410.0,5.0,0.0
81,85.0,240.0,960.0,1.0,0.0
82,73.0,240.0,240.0,3.0,0.0
83,70.0,240.0,240.0,3.0,0.0
84,73.0,0.0,240.0,3.0,0.0
85,70.0,192.0,240.0,3.0,0.0
86,90.0,0.0,240.0,1.0,0.0
87,73.0,18.0,180.0,3.0,0.0
88,85.0,0.0,180.0,1.0,0.0
89,70.0,240.0,240.0,3.0,0.0
90,66.0,270.0,1410.0,5.0,0.0
91,82.0,240.0,960.0,1.0,0.0
92,73.0,240.0,240.0,3.0,0.0
93,70.0,240.0,240.0,3.0,0.0
94,73.0,0.0,240.0,3.0,0.0
95,70.0,192.0,240.0,3.0,0.0
96,85.0,0.0,240.0,1.0,0.0
97,82.0,0.0,180.0,1.0,0.0
98,73.0,18.0,180.0,3.0,0.0
99,70.0,240.0,240.0,3.0,0.0
100,61.0,80.0,960.0,5.0,0.0
101,73.0,0.0,240.0,3.0,0.0
102,78.0,240.0,15.0,1.0,0.0
103,70.0,240.0,240.0,3.0,0.0
104,73.0,0.0,240.0,3.0,0.0
105,71.0,0.0,240.0,3.0,0.0
106,80.0,80.0,90.0,1.0,0.0
107,65.0,23.0,450.0,5.0,0.0
108,82.0,80.0,90.0,1.0,0.0
109,80.0,120.0,90.0,1.0,0.0
110,73.0,25.0,180.0,3.0,0.0
111,78.0,72.0,120.0,1.0,0.0
112,80.0,360.0,120.0,1.0,0.0
113,66.0,0.0,360.0,5.0,0.0
114,70.0,120.0,360.0,3.0,0.0
115,82.0,480.0,480.0,1.0,0.0
116,78.0,360.0,480.0,1.0,0.0
117,73.0,360.0,360.0,1.0,0.0
118,70.0,240.0,240.0,3.0,0.0
119,66.0,6.0,1410.0,5.0,0.0
120,85.0,240.0,960.0,1.0,0.0
121,73.0,240.0,240.0,3.0,0.0
122,70.0,240.0,240.0,3.0,0.0
123,73.0,0.0,240.0,3.0,0.0
124,70.0,120.0,240.0,3.0,0.0
125,90.0,72.0,360.0,1.0,0.0
126,73.0,18.0,180.0,3.0,0.0
127,85.0,264.0,90.0,1.0,0.0
128,70.0,240.0,240.0,3.0,0.0
129,82.0,240.0,960.0,1.0,0.0
130,66.0,6.0,1410.0,5.0,0.0
131,73.0,240.0,240.0,3.0,0.0
132,70.0,240.0,240.0,3.0,0.0
133,73.0,0.0,240.0,3.0,0.0
134,85.0,72.0,360.0,1.0,0.0
135,70.0,120.0,240.0,3.0,0.0
136,73.0,18.0,180.0,3.0,0.0
137,82.0,264.0,90.0,1.0,0.0
138,70.0,240.0,240.0,3.0,0.0
139,61.0,80.0,960.0,5.0,0.0
140,73.0,0.0,240.0,3.0,0.0
141,70.0,240.0,240.0,3.0,0.0
142,78.0,240.0,15.0,1.0,0.0
143,73.0,0.0,240.0,3.0,0.0
144,80.0,80.0,90.0,1.0,0.0
145,71.0,120.0,240.0,3.0,0.0
146,65.0,23.0,450.0,5.0,0.0
147,82.0,80.0,90.0,1.0,0.0
148,80.0,72.0,210.0,1.0,0.0
149,73.0,25.0,180.0,3.0,0.0
150,82.0,360.0,120.0,1.0,0.0
151,70.0,480.0,360.0,3.0,0.0
152,66.0,0.0,360.0,5.0,0.0
153,78.0,0.0,360.0,1.0,0.0
154,61.0,480.0,360.0,5.0,0.0
155,54.0,480.0,360.0,5.0,0.0
156,77.0,0.0,360.0,2.0,0.0
157,73.0,480.0,360.0,2.0,0.0
158,49.0,0.0,360.0,5.0,0.0
159,80.0,0.0,360.0,1.0,0.0
160,61.0,0.0,360.0,5.0,0.0
161,80.0,480.0,360.0,1.0,0.0
162,73.0,0.0,360.0,2.0,0.0
163,77.0,0.0,360.0,2.0,0.0
164,77.0,600.0,360.0,2.0,0.0
165,73.0,0.0,360.0,2.0,0.0
166,80.0,0.0,360.0,1.0,0.0
167,77.0,0.0,1320.0,2.0,0.0
168,80.0,0.0,1320.0,1.0,0.0
169,73.0,120.0,1320.0,2.0,0.0
170,49.0,240.0,240.0,5.0,0.0
171,53.0,240.0,240.0,5.0,0.0
172,56.0,240.0,240.0,5.0,0.0
173,61.0,120.0,240.0,5.0,0.0
174,49.0,360.0,240.0,5.0,0.0
175,54.0,0.0,360.0,5.0,0.0
176,78.0,0.0,360.0,2.0,0.0
177,73.0,0.0,360.0,2.0,0.0
178,82.0,480.0,360.0,1.0,0.0
179,82.0,480.0,360.0,1.0,0.0
180,73.0,0.0,360.0,2.0,0.0
181,78.0,0.0,360.0,2.0,0.0
182,82.0,0.0,360.0,1.0,0.0
183,73.0,0.0,360.0,2.0,0.0
184,78.0,600.0,360.0,2.0,0.0
185,78.0,0.0,1320.0,2.0,0.0
186,73.0,72.0,1320.0,2.0,0.0
187,82.0,0.0,1320.0,1.0,0.0
188,54.0,240.0,240.0,5.0,0.0
189,58.0,240.0,240.0,5.0,0.0
190,61.0,240.0,240.0,5.0,0.0
191,66.0,120.0,240.0,5.0,0.0
192,54.0,288.0,180.0,5.0,0.0
193,66.0,270.0,1410.0,5.0,0.0
194,85.0,0.0,480.0,1.0,0.0
195,70.0,240.0,240.0,3.0,0.0
196,73.0,240.0,240.0,3.0,0.0
197,78.0,240.0,240.0,1.0,0.0
198,70.0,0.0,240.0,3.0,0.0
199,82.0,0.0,240.0,1.0,0.0
200,73.0,240.0,240.0,3.0,0.0
201,70.0,0.0,240.0,3.0,0.0
202,85.0,192.0,240.0,1.0,0.0
203,73.0,0.0,180.0,3.0,0.0
204,90.0,18.0,180.0,1.0,0.0
205,66.0,270.0,1410.0,5.0,0.0
206,70.0,240.0,240.0,3.0,0.0
207,85.0,0.0,480.0,1.0,0.0
208,73.0,240.0,240.0,3.0,0.0
209,78.0,0.0,240.0,1.0,0.0
210,70.0,240.0,240.0,3.0,0.0
211,82.0,0.0,240.0,1.0,0.0
212,73.0,240.0,240.0,3.0,0.0
213,85.0,192.0,240.0,1.0,0.0
214,70.0,0.0,240.0,3.0,0.0
215,73.0,0.0,180.0,3.0,0.0
216,90.0,18.0,180.0,1.0,0.0
217,70.0,240.0,240.0,3.0,0.0
218,85.0,0.0,480.0,1.0,0.0
219,66.0,240.0,480.0,5.0,0.0
220,73.0,0.0,240.0,3.0,0.0
221,68.0,240.0,240.0,3.0,0.0
222,83.0,240.0,480.0,1.0,0.0
223,65.0,0.0,480.0,5.0,0.0
224,73.0,0.0,240.0,3.0,0.0
225,70.0,240.0,240.0,3.0,0.0
226,66.0,0.0,480.0,5.0,0.0
227,82.0,0.0,480.0,1.0,0.0
228,73.0,240.0,240.0,3.0,0.0
229,82.0,120.0,240.0,1.0,0.0
230,61.0,0.0,360.0,5.0,0.0
231,65.0,72.0,360.0,3.0,0.0
232,80.0,240.0,180.0,1.0,0.0
233,73.0,240.0,180.0,1.0,0.0
234,73.0,240.0,180.0,1.0,0.0
235,73.0,240.0,180.0,1.0,0.0
236,73.0,288.0,180.0,1.0,0.0
237,85.0,0.0,960.0,1.0,0.0
238,70.0,240.0,240.0,3.0,0.0
239,66.0,6.0,1410.0,5.0,0.0
240,73.0,240.0,240.0,3.0,0.0
241,70.0,240.0,240.0,3.0,0.0
242,73.0,240.0,240.0,3.0,0.0
243,90.0,72.0,360.0,1.0,0.0
244,70.0,120.0,240.0,3.0,0.0
245,73.0,18.0,180.0,3.0,0.0
246,85.0,264.0,90.0,1.0,0.0
247,70.0,240.0,240.0,3.0,0.0
248,82.0,240.0,960.0,1.0,0.0
249,66.0,6.0,1410.0,5.0,0.0
250,73.0,240.0,240.0,3.0,0.0
251,70.0,240.0,240.0,3.0,0.0
252,73.0,0.0,240.0,3.0,0.0
253,85.0,72.0,360.0,1.0,0.0
254,70.0,120.0,240.0,3.0,0.0
255,73.0,18.0,180.0,3.0,0.0
256,82.0,264.0,90.0,1.0,0.0
257,61.0,0.0,960.0,5.0,0.0
258,70.0,240.0,240.0,3.0,0.0
259,78.0,240.0,480.0,1.0,0.0
260,73.0,0.0,240.0,3.0,0.0
261,70.0,240.0,240.0,3.0,0.0
262,78.0,80.0,480.0,1.0,0.0
263,73.0,0.0,240.0,3.0,0.0
264,80.0,80.0,90.0,1.0,0.0
265,65.0,23.0,450.0,5.0,0.0
266,71.0,120.0,240.0,3.0,0.0
267,82.0,80.0,90.0,1.0,0.0
268,80.0,0.0,90.0,1.0,0.0
269,78.0,72.0,120.0,1.0,0.0
270,73.0,25.0,180.0,3.0,0.0
271,80.0,360.0,120.0,1.0,0.0
272,70.0,0.0,360.0,3.0,0.0
273,82.0,480.0,480.0,1.0,0.0
274,66.0,120.0,360.0,5.0,0.0
275,78.0,360.0,480.0,1.0,0.0
276,73.0,360.0,360.0,1.0,0.0
277,66.0,6.0,1410.0,5.0,0.0
278,70.0,240.0,240.0,3.0,0.0
279,85.0,120.0,960.0,1.0,0.0
280,73.0,240.0,240.0,3.0,0.0
281,70.0,240.0,240.0,3.0,0.0
282,73.0,0.0,240.0,3.0,0.0
283,70.0,120.0,240.0,3.0,0.0
284,90.0,120.0,120.0,1.0,0.0
285,89.0,0.0,120.0,1.0,0.0
286,90.0,72.0,120.0,1.0,0.0
287,73.0,18.0,180.0,3.0,0.0
288,85.0,264.0,90.0,1.0,0.0
289,70.0,240.0,240.0,3.0,0.0
290,66.0,6.0,1410.0,5.0,0.0
291,82.0,120.0,960.0,1.0,0.0
292,73.0,240.0,240.0,3.0,0.0
293,70.0,240.0,240.0,3.0,0.0
294,73.0,0.0,240.0,3.0,0.0
295,70.0,0.0,240.0,3.0,0.0
296,85.0,120.0,120.0,1.0,0.0
297,84.0,120.0,120.0,1.0,0.0
298,73.0,18.0,180.0,3.0,0.0
299,85.0,72.0,120.0,1.0,0.0
300,82.0,264.0,90.0,1.0,0.0
301,78.0,240.0,480.0,1.0,0.0
302,61.0,0.0,960.0,5.0,0.0
303,70.0,240.0,240.0,3.0,0.0
304,73.0,0.0,240.0,3.0,0.0
305,70.0,240.0,240.0,3.0,0.0
306,78.0,120.0,480.0,1.0,0.0
307,73.0,0.0,240.0,3.0,0.0
308,71.0,0.0,240.0,3.0,0.0
309,65.0,23.0,450.0,5.0,0.0
310,80.0,120.0,120.0,1.0,0.0
311,78.0,120.0,120.0,1.0,0.0
312,73.0,25.0,180.0,3.0,0.0
313,80.0,72.0,120.0,1.0,0.0
314,82.0,360.0,120.0,1.0,0.0
315,70.0,480.0,360.0,3.0,0.0
316,78.0,0.0,360.0,1.0,0.0
317,66.0,0.0,360.0,5.0,0.0
318,61.0,480.0,360.0,5.0,0.0
319,54.0,480.0,360.0,5.0,0.0
320,49.0,0.0,360.0,5.0,0.0
321,73.0,0.0,360.0,2.0,0.0
322,61.0,0.0,360.0,5.0,0.0
323,77.0,0.0,360.0,2.0,0.0
324,80.0,480.0,360.0,1.0,0.0
325,77.0,0.0,360.0,2.0,0.0
326,80.0,0.0,360.0,1.0,0.0
327,73.0,480.0,360.0,2.0,0.0
328,80.0,600.0,360.0,1.0,0.0
329,73.0,0.0,360.0,2.0,0.0
330,77.0,0.0,360.0,2.0,0.0
331,73.0,0.0,1320.0,2.0,0.0
332,77.0,0.0,1320.0,2.0,0.0
333,80.0,120.0,1320.0,1.0,0.0
334,49.0,240.0,240.0,5.0,0.0
335,53.0,240.0,240.0,5.0,0.0
336,56.0,240.0,240.0,5.0,0.0
337,61.0,120.0,240.0,5.0,0.0
338,49.0,360.0,240.0,5.0,0.0
339,82.0,480.0,360.0,1.0,0.0
340,54.0,0.0,360.0,5.0,0.0
341,73.0,0.0,360.0,2.0,0.0
342,78.0,0.0,360.0,2.0,0.0
343,78.0,0.0,360.0,2.0,0.0
344,73.0,0.0,360.0,2.0,0.0
345,82.0,480.0,360.0,1.0,0.0
346,82.0,0.0,360.0,1.0,0.0
347,73.0,0.0,360.0,2.0,0.0
348,78.0,600.0,360.0,2.0,0.0
349,78.0,72.0,1320.0,2.0,0.0
350,82.0,0.0,1320.0,1.0,0.0
351,73.0,0.0,1320.0,2.0,0.0
352,54.0,240.0,240.0,5.0,0.0
353,58.0,240.0,240.0,5.0,0.0
354,61.0,240.0,240.0,5.0,0.0
355,66.0,120.0,240.0,5.0,0.0
356,54.0,288.0,180.0,5.0,0.0
357,66.0,270.0,1410.0,5.0,0.0
358,70.0,240.0,240.0,3.0,0.0
359,85.0,240.0,480.0,1.0,0.0
360,73.0,0.0,240.0,3.0,0.0
361,78.0,240.0,240.0,1.0,0.0
362,70.0,0.0,240.0,3.0,0.0
363,82.0,0.0,240.0,1.0,0.0
364,73.0,240.0,240.0,3.0,0.0
365,85.0,192.0,240.0,1.0,0.0
366,70.0,0.0,240.0,3.0,0.0
367,73.0,18.0,180.0,3.0,0.0
368,90.0,0.0,180.0,1.0,0.0
369,85.0,240.0,480.0,1.0,0.0
370,70.0,240.0,240.0,3.0,0.0
371,66.0,270.0,1410.0,5.0,0.0
372,73.0,0.0,240.0,3.0,0.0
373,78.0,0.0,240.0,1.0,0.0
374,70.0,240.0,240.0,3.0,0.0
375,82.0,0.0,240.0,1.0,0.0
376,73.0,240.0,240.0,3.0,0.0
377,85.0,0.0,240.0,1.0,0.0
378,70.0,192.0,240.0,3.0,0.0
379,90.0,0.0,180.0,1.0,0.0
380,73.0,18.0,180.0,3.0,0.0
381,66.0,0.0,480.0,5.0,0.0
382,85.0,0.0,480.0,1.0,0.0
383,70.0,240.0,240.0,3.0,0.0
384,73.0,240.0,240.0,3.0,0.0
385,83.0,0.0,480.0,1.0,0.0
386,68.0,240.0,240.0,3.0,0.0
387,65.0,0.0,480.0,5.0,0.0
388,73.0,240.0,240.0,3.0,0.0
389,66.0,240.0,480.0,5.0,0.0
390,82.0,0.0,480.0,1.0,0.0
391,70.0,240.0,240.0,3.0,0.0
392,73.0,0.0,240.0,3.0,0.0
393,82.0,120.0,240.0,1.0,0.0
394,61.0,0.0,360.0,5.0,0.0
395,65.0,72.0,360.0,3.0,0.0
396,80.0,240.0,180.0,1.0,0.0
397,73.0,240.0,180.0,1.0,0.0
398,73.0,240.0,180.0,1.0,0.0
399,73.0,240.0,180.0,1.0,0.0
400,73.0,288.0,180.0,1.0,0.0
401,85.0,0.0,960.0,1.0,0.0
402,66.0,6.0,1410.0,5.0,0.0
403,70.0,240.0,240.0,3.0,0.0
404,73.0,240.0,240.0,3.0,0.0
405,70.0,240.0,240.0,3.0,0.0
406,73.0,240.0,240.0,3.0,0.0
407,90.0,72.0,360.0,1.0,0.0
408,70.0,120.0,240.0,3.0,0.0
409,73.0,18.0,180.0,3.0,0.0
410,85.0,264.0,90.0,1.0,0.0
411,82.0,0.0,960.0,1.0,0.0
412,66.0,6.0,1410.0,5.0,0.0
413,70.0,240.0,240.0,3.0,0.0
414,73.0,240.0,240.0,3.0,0.0
415,70.0,240.0,240.0,3.0,0.0
416,73.0,240.0,240.0,3.0,0.0
417,70.0,120.0,240.0,3.0,0.0
418,85.0,72.0,360.0,1.0,0.0
419,73.0,18.0,180.0,3.0,0.0
420,82.0,264.0,90.0,1.0,0.0
421,61.0,80.0,960.0,5.0,0.0
422,70.0,240.0,240.0,3.0,0.0
423,73.0,240.0,240.0,3.0,0.0
424,78.0,0.0,15.0,1.0,0.0
425,70.0,240.0,240.0,3.0,0.0
426,73.0,0.0,240.0,3.0,0.0
427,65.0,23.0,450.0,5.0,0.0
428,80.0,80.0,90.0,1.0,0.0
429,71.0,0.0,240.0,3.0,0.0
430,82.0,80.0,90.0,1.0,0.0
431,80.0,120.0,90.0,1.0,0.0
432,73.0,25.0,180.0,3.0,0.0
433,78.0,72.0,120.0,1.0,0.0
434,80.0,360.0,120.0,1.0,0.0
435,82.0,480.0,480.0,1.0,0.0
436,70.0,0.0,360.0,3.0,0.0
437,66.0,120.0,360.0,5.0,0.0
438,78.0,360.0,480.0,1.0,0.0
439,73.0,360.0,360.0,1.0,0.0
440,70.0,240.0,240.0,3.0,0.0
441,85.0,0.0,960.0,1.0,0.0
442,66.0,6.0,1410.0,5.0,0.0
443,73.0,240.0,240.0,3.0,0.0
444,70.0,240.0,240.0,3.0,0.0
445,73.0,120.0,240.0,3.0,0.0
446,90.0,120.0,120.0,1.0,0.0
447,70.0,120.0,240.0,3.0,0.0
448,89.0,0.0,120.0,1.0,0.0
449,73.0,18.0,180.0,3.0,0.0
450,90.0,72.0,120.0,1.0,0.0
451,85.0,264.0,90.0,1.0,0.0
452,70.0,240.0,240.0,3.0,0.0
453,82.0,0.0,960.0,1.0,0.0
454,66.0,6.0,1410.0,5.0,0.0
455,73.0,240.0,240.0,3.0,0.0
456,70.0,240.0,240.0,3.0,0.0
457,73.0,120.0,240.0,3.0,0.0
458,85.0,120.0,120.0,1.0,0.0
459,70.0,0.0,240.0,3.0,0.0
460,84.0,120.0,120.0,1.0,0.0
461,85.0,72.0,120.0,1.0,0.0
462,73.0,18.0,180.0,3.0,0.0
463,82.0,264.0,90.0,1.0,0.0
464,70.0,240.0,240.0,3.0,0.0
465,61.0,0.0,960.0,5.0,0.0
466,73.0,0.0,240.0,3.0,0.0
467,78.0,240.0,15.0,1.0,0.0
468,70.0,240.0,240.0,3.0,0.0
469,73.0,0.0,240.0,3.0,0.0
470,65.0,23.0,450.0,5.0,0.0
471,80.0,120.0,120.0,1.0,0.0
472,71.0,120.0,240.0,3.0,0.0
473,78.0,0.0,120.0,1.0,0.0
474,73.0,25.0,180.0,3.0,0.0
475,80.0,72.0,120.0,1.0,0.0
476,82.0,360.0,120.0,1.0,0.0
477,66.0,0.0,360.0,5.0,0.0
478,78.0,0.0,360.0,1.0,0.0
479,70.0,480.0,360.0,3.0,0.0
480,61.0,480.0,360.0,5.0,0.0
481,54.0,240.0,360.0,5.0,0.0
482,66.0,6.0,1410.0,5.0,0.0
483,87.0,120.0,120.0,1.0,0.0
484,70.0,0.0,240.0,3.0,0.0
485,85.0,120.0,120.0,1.0,0.0
486,84.0,120.0,120.0,1.0,0.0
487,73.0,120.0,240.0,3.0,0.0
488,85.0,0.0,120.0,1.0,0.0
489,70.0,0.0,240.0,3.0,0.0
490,84.0,120.0,120.0,1.0,0.0
491,85.0,120.0,120.0,1.0,0.0
492,73.0,120.0,240.0,3.0,0.0
493,84.0,120.0,120.0,1.0,0.0
494,85.0,0.0,120.0,1.0,0.0
495,87.0,120.0,120.0,1.0,0.0
496,70.0,0.0,240.0,3.0,0.0
497,85.0,120.0,120.0,1.0,0.0
498,73.0,18.0,180.0,3.0,0.0
499,90.0,72.0,120.0,1.0,0.0
500,85.0,144.0,90.0,1.0,0.0
501,70.0,0.0,240.0,3.0,0.0
502,83.0,120.0,120.0,1.0,0.0
503,66.0,6.0,1410.0,5.0,0.0
504,82.0,120.0,120.0,1.0,0.0
505,73.0,0.0,240.0,3.0,0.0
506,81.0,120.0,120.0,1.0,0.0
507,82.0,120.0,120.0,1.0,0.0
508,70.0,0.0,240.0,3.0,0.0
509,81.0,120.0,120.0,1.0,0.0
510,82.0,120.0,120.0,1.0,0.0
511,73.0,0.0,240.0,3.0,0.0
512,81.0,120.0,120.0,1.0,0.0
513,82.0,120.0,120.0,1.0,0.0
514,70.0,120.0,240.0,3.0,0.0
515,85.0,120.0,120.0,1.0,0.0
516,82.0,0.0,120.0,1.0,0.0
517,81.0,72.0,120.0,1.0,0.0
518,73.0,18.0,180.0,3.0,0.0
519,82.0,144.0,90.0,1.0,0.0
520,70.0,120.0,240.0,3.0,0.0
521,61.0,0.0,960.0,5.0,0.0
522,80.0,120.0,120.0,1.0,0.0
523,78.0,0.0,120.0,1.0,0.0
524,77.0,120.0,120.0,1.0,0.0
525,73.0,0.0,240.0,3.0,0.0
526,78.0,120.0,120.0,1.0,0.0
527,80.0,120.0,120.0,1.0,0.0
528,70.0,120.0,240.0,3.0,0.0
529,78.0,0.0,120.0,1.0,0.0
530,77.0,120.0,120.0,1.0,0.0
531,73.0,0.0,240.0,3.0,0.0
532,78.0,120.0,120.0,1.0,0.0
533,65.0,23.0,450.0,5.0,0.0
534,71.0,120.0,240.0,3.0,0.0
535,82.0,120.0,120.0,1.0,0.0
536,80.0,0.0,120.0,1.0,0.0
537,79.0,72.0,120.0,1.0,0.0
538,73.0,25.0,180.0,3.0,0.0
539,80.0,120.0,120.0,1.0,0.0
540,82.0,120.0,120.0,1.0,0.0
541,66.0,0.0,360.0,5.0,0.0
542,70.0,0.0,360.0,3.0,0.0
543,78.0,120.0,120.0,1.0,0.0
544,77.0,120.0,120.0,1.0,0.0
545,80.0,120.0,120.0,1.0,0.0
546,78.0,120.0,120.0,1.0,0.0
547,82.0,120.0,120.0,1.0,0.0
548,80.0,120.0,120.0,1.0,0.0
549,83.0,120.0,120.0,1.0,0.0
550,82.0,120.0,120.0,1.0,0.0
551,85.0,120.0,120.0,1.0,0.0
552,83.0,96.0,120.0,1.0,0.0
553,87.0,144.0,90.0,1.0,0.0
554,66.0,6.0,1410.0,5.0,0.0
555,84.0,120.0,120.0,1.0,0.0
556,70.0,120.0,240.0,3.0,0.0
557,85.0,0.0,120.0,1.0,0.0
558,73.0,120.0,240.0,3.0,0.0
559,87.0,120.0,120.0,1.0,0.0
560,85.0,0.0,120.0,1.0,0.0
561,87.0,120.0,120.0,1.0,0.0
562,70.0,120.0,240.0,3.0,0.0
563,85.0,0.0,120.0,1.0,0.0
564,87.0,120.0,120.0,1.0,0.0
565,73.0,0.0,240.0,3.0,0.0
566,85.0,120.0,120.0,1.0,0.0
567,70.0,120.0,240.0,3.0,0.0
568,84.0,120.0,120.0,1.0,0.0
569,85.0,0.0,120.0,1.0,0.0
570,90.0,72.0,120.0,1.0,0.0
571,73.0,18.0,180.0,3.0,0.0
572,85.0,144.0,90.0,1.0,0.0
573,81.0,120.0,120.0,1.0,0.0
574,70.0,0.0,240.0,3.0,0.0
575,66.0,6.0,1410.0,5.0,0.0
576,82.0,120.0,120.0,1.0,0.0
577,73.0,0.0,240.0,3.0,0.0
578,83.0,120.0,120.0,1.0,0.0
579,82.0,120.0,120.0,1.0,0.0
580,70.0,0.0,240.0,3.0,0.0
581,83.0,120.0,120.0,1.0,0.0
582,82.0,120.0,120.0,1.0,0.0
583,73.0,120.0,240.0,3.0,0.0
584,83.0,120.0,120.0,1.0,0.0
585,82.0,0.0,120.0,1.0,0.0
586,70.0,0.0,240.0,3.0,0.0
587,81.0,120.0,120.0,1.0,0.0
588,82.0,120.0,120.0,1.0,0.0
589,73.0,18.0,180.0,3.0,0.0
590,85.0,72.0,120.0,1.0,0.0
591,82.0,144.0,90.0,1.0,0.0
592,77.0,120.0,120.0,1.0,0.0
593,61.0,120.0,960.0,5.0,0.0
594,70.0,0.0,240.0,3.0,0.0
595,78.0,120.0,120.0,1.0,0.0
596,73.0,120.0,240.0,3.0,0.0
597,80.0,120.0,120.0,1.0,0.0
598,78.0,0.0,120.0,1.0,0.0
599,70.0,120.0,240.0,3.0,0.0
600,77.0,120.0,120.0,1.0,0.0
601,78.0,0.0,120.0,1.0,0.0
602,80.0,120.0,120.0,1.0,0.0
603,73.0,0.0,240.0,3.0,0.0
604,78.0,0.0,120.0,1.0,0.0
605,71.0,120.0,240.0,3.0,0.0
606,79.0,120.0,120.0,1.0,0.0
607,65.0,143.0,450.0,5.0,0.0
608,80.0,0.0,120.0,1.0,0.0
609,73.0,24.0,180.0,3.0,0.0
610,82.0,72.0,120.0,1.0,0.0
611,80.0,1.0,90.0,1.0,0.0
612,70.0,120.0,360.0,3.0,0.0
613,66.0,0.0,360.0,5.0,0.0
614,80.0,120.0,120.0,1.0,0.0
615,78.0,120.0,120.0,1.0,0.0
616,77.0,0.0,120.0,1.0,0.0
617,75.0,120.0,120.0,1.0,0.0
618,73.0,120.0,120.0,1.0,0.0
619,71.0,120.0,120.0,1.0,0.0
620,70.0,120.0,120.0,1.0,0.0
621,68.0,360.0,120.0,1.0,0.0
622,66.0,240.0,360.0,1.0,0.0
623,87.0,120.0,120.0,1.0,0.0
624,66.0,6.0,1410.0,5.0,0.0
625,70.0,120.0,240.0,3.0,0.0
626,85.0,0.0,120.0,1.0,0.0
627,84.0,120.0,120.0,1.0,0.0
628,73.0,0.0,240.0,3.0,0.0
629,85.0,120.0,120.0,1.0,0.0
630,70.0,0.0,240.0,3.0,0.0
631,84.0,120.0,120.0,1.0,0.0
632,85.0,120.0,120.0,1.0,0.0
633,84.0,120.0,120.0,1.0,0.0
634,73.0,0.0,240.0,3.0,0.0
635,85.0,120.0,120.0,1.0,0.0
636,70.0,0.0,240.0,3.0,0.0
637,87.0,120.0,120.0,1.0,0.0
638,85.0,120.0,120.0,1.0,0.0
639,73.0,18.0,180.0,3.0,0.0
640,90.0,72.0,120.0,1.0,0.0
641,85.0,144.0,90.0,1.0,0.0
642,70.0,120.0,240.0,3.0,0.0
643,83.0,120.0,120.0,1.0,0.0
644,66.0,6.0,1410.0,5.0,0.0
645,82.0,0.0,120.0,1.0,0.0
646,73.0,120.0,240.0,3.0,0.0
647,81.0,120.0,120.0,1.0,0.0
648,82.0,0.0,120.0,1.0,0.0
649,70.0,0.0,240.0,3.0,0.0
650,81.0,120.0,120.0,1.0,0.0
651,82.0,120.0,120.0,1.0,0.0
652,81.0,120.0,120.0,1.0,0.0
653,73.0,0.0,240.0,3.0,0.0
654,82.0,120.0,120.0,1.0,0.0
655,85.0,120.0,120.0,1.0,0.0
656,70.0,120.0,240.0,3.0,0.0
657,82.0,0.0,120.0,1.0,0.0
658,81.0,72.0,120.0,1.0,0.0
659,73.0,18.0,180.0,3.0,0.0
660,82.0,144.0,90.0,1.0,0.0
661,80.0,120.0,120.0,1.0,0.0
662,61.0,120.0,960.0,5.0,0.0
663,70.0,0.0,240.0,3.0,0.0
664,78.0,120.0,120.0,1.0,0.0
665,77.0,120.0,120.0,1.0,0.0
666,73.0,120.0,240.0,3.0,0.0
667,78.0,0.0,120.0,1.0,0.0
668,80.0,120.0,120.0,1.0,0.0
669,70.0,120.0,240.0,3.0,0.0
670,78.0,0.0,120.0,1.0,0.0
671,77.0,120.0,120.0,1.0,0.0
672,73.0,0.0,240.0,3.0,0.0
673,78.0,0.0,120.0,1.0,0.0
674,71.0,0.0,240.0,3.0,0.0
675,82.0,120.0,120.0,1.0,0.0
676,65.0,23.0,450.0,5.0,0.0
677,80.0,120.0,120.0,1.0,0.0
678,73.0,25.0,180.0,3.0,0.0
679,79.0,72.0,120.0,1.0,0.0
680,80.0,120.0,120.0,1.0,0.0
681,82.0,120.0,120.0,1.0,0.0
682,66.0,0.0,360.0,5.0,0.0
683,70.0,120.0,360.0,3.0,0.0
684,78.0,120.0,120.0,1.0,0.0
685,77.0,0.0,120.0,1.0,0.0
686,80.0,120.0,120.0,1.0,0.0
687,78.0,120.0,120.0,1.0,0.0
688,82.0,120.0,120.0,1.0,0.0
689,80.0,120.0,120.0,1.0,0.0
690,83.0,120.0,120.0,1.0,0.0
691,82.0,120.0,120.0,1.0,0.0
692,85.0,120.0,120.0,1.0,0.0
693,83.0,96.0,120.0,1.0,0.0
694,87.0,144.0,90.0,1.0,0.0
695,66.0,6.0,1410.0,5.0,0.0
696,84.0,120.0,120.0,1.0,0.0
697,70.0,0.0,240.0,3.0,0.0
698,85.0,120.0,120.0,1.0,0.0
699,73.0,120.0,240.0,3.0,0.0
700,87.0,120.0,120.0,1.0,0.0
701,85.0,0.0,120.0,1.0,0.0
702,70.0,120.0,240.0,3.0,0.0
703,87.0,120.0,120.0,1.0,0.0
704,85.0,0.0,120.0,1.0,0.0
705,73.0,0.0,240.0,3.0,0.0
706,87.0,120.0,120.0,1.0,0.0
707,85.0,120.0,120.0,1.0,0.0
708,84.0,120.0,120.0,1.0,0.0
709,70.0,120.0,240.0,3.0,0.0
710,85.0,0.0,120.0,1.0,0.0
711,90.0,72.0,120.0,1.0,0.0
712,73.0,18.0,180.0,3.0,0.0
713,85.0,144.0,90.0,1.0,0.0
714,66.0,6.0,1410.0,5.0,0.0
715,70.0,0.0,240.0,3.0,0.0
716,81.0,120.0,120.0,1.0,0.0
717,82.0,120.0,120.0,1.0,0.0
718,73.0,0.0,240.0,3.0,0.0
719,83.0,120.0,120.0,1.0,0.0
720,82.0,120.0,120.0,1.0,0.0
721,70.0,0.0,240.0,3.0,0.0
722,83.0,120.0,120.0,1.0,0.0
723,82.0,120.0,120.0,1.0,0.0
724,73.0,0.0,240.0,3.0,0.0
725,83.0,120.0,120.0,1.0,0.0
726,82.0,120.0,120.0,1.0,0.0
727,70.0,0.0,240.0,3.0,0.0
728,81.0,120.0,120.0,1.0,0.0
729,82.0,120.0,120.0,1.0,0.0
730,85.0,72.0,120.0,1.0,0.0
731,73.0,18.0,180.0,3.0,0.0
732,82.0,144.0,90.0,1.0,0.0
733,77.0,120.0,120.0,1.0,0.0
734,70.0,0.0,240.0,3.0,0.0
735,61.0,0.0,960.0,5.0,0.0
736,78.0,120.0,120.0,1.0,0.0
737,73.0,120.0,240.0,3.0,0.0
738,80.0,120.0,120.0,1.0,0.0
739,78.0,0.0,120.0,1.0,0.0
740,70.0,120.0,240.0,3.0,0.0
741,77.0,120.0,120.0,1.0,0.0
742,78.0,0.0,120.0,1.0,0.0
743,80.0,120.0,120.0,1.0,0.0
744,73.0,120.0,240.0,3.0,0.0
745,78.0,0.0,120.0,1.0,0.0
746,71.0,120.0,240.0,3.0,0.0
747,79.0,120.0,120.0,1.0,0.0
748,65.0,143.0,450.0,5.0,0.0
749,80.0,0.0,120.0,1.0,0.0
750,82.0,72.0,120.0,1.0,0.0
751,73.0,24.0,180.0,3.0,0.0
752,80.0,1.0,90.0,1.0,0.0
753,80.0,120.0,120.0,1.0,0.0
754,66.0,0.0,360.0,5.0,0.0
755,70.0,0.0,360.0,3.0,0.0
756,78.0,120.0,120.0,1.0,0.0
757,77.0,120.0,120.0,1.0,0.0
758,75.0,120.0,120.0,1.0,0.0
759,73.0,120.0,120.0,1.0,0.0
760,71.0,120.0,120.0,1.0,0.0
761,70.0,120.0,120.0,1.0,0.0
762,68.0,360.0,120.0,1.0,0.0
763,66.0,240.0,360.0,1.0,0.0
764,61.0,30.0,1410.0,5.0,0.0
765,80.0,120.0,120.0,1.0,0.0
766,77.0,120.0,120.0,1.0,0.0
767,68.0,0.0,240.0,3.0,0.0
768,73.0,120.0,120.0,1.0,0.0
769,77.0,120.0,120.0,1.0,0.0
770,65.0,0.0,240.0,3.0,0.0
771,80.0,120.0,120.0,1.0,0.0
772,77.0,120.0,120.0,1.0,0.0
773,83.0,120.0,120.0,1.0,0.0
774,68.0,120.0,240.0,3.0,0.0
775,80.0,0.0,120.0,1.0,0.0
776,82.0,120.0,120.0,1.0,0.0
777,66.0,120.0,240.0,3.0,0.0
778,78.0,0.0,120.0,1.0,0.0
779,85.0,90.0,120.0,1.0,0.0
780,70.0,0.0,240.0,3.0,0.0
781,82.0,120.0,120.0,1.0,0.0
782,68.0,120.0,360.0,3.0,0.0
783,83.0,120.0,120.0,1.0,0.0
784,61.0,0.0,360.0,5.0,0.0
785,80.0,120.0,120.0,1.0,0.0
786,89.0,0.0,120.0,1.0,0.0
787,83.0,120.0,120.0,1.0,0.0
788,92.0,120.0,120.0,1.0,0.0
789,90.0,120.0,120.0,1.0,0.0
790,89.0,120.0,120.0,1.0,0.0
791,87.0,120.0,120.0,1.0,0.0
792,85.0,120.0,120.0,1.0,0.0
793,83.0,120.0,120.0,1.0,0.0
794,82.0,96.0,120.0,1.0,0.0
795,80.0,144.0,90.0,1.0,0.0
796,82.0,120.0,120.0,1.0,0.0
797,66.0,30.0,1410.0,5.0,0.0
798,78.0,120.0,120.0,1.0,0.0
799,73.0,120.0,120.0,1.0,0.0
800,70.0,120.0,240.0,3.0,0.0
801,78.0,0.0,120.0,1.0,0.0
802,82.0,120.0,120.0,1.0,0.0
803,73.0,120.0,240.0,3.0,0.0
804,78.0,0.0,120.0,1.0,0.0
805,85.0,120.0,120.0,1.0,0.0
806,70.0,120.0,240.0,3.0,0.0
807,82.0,0.0,120.0,1.0,0.0
808,83.0,120.0,120.0,1.0,0.0
809,68.0,120.0,240.0,3.0,0.0
810,80.0,0.0,120.0,1.0,0.0
811,71.0,120.0,240.0,3.0,0.0
812,87.0,90.0,120.0,1.0,0.0
813,83.0,0.0,120.0,1.0,0.0
814,66.0,0.0,360.0,5.0,0.0
815,85.0,120.0,120.0,1.0,0.0
816,70.0,120.0,360.0,3.0,0.0
817,82.0,120.0,120.0,1.0,0.0
818,78.0,0.0,120.0,1.0,0.0
819,77.0,120.0,120.0,1.0,0.0
820,80.0,120.0,120.0,1.0,0.0
821,78.0,120.0,120.0,1.0,0.0
822,82.0,120.0,120.0,1.0,0.0
823,80.0,120.0,120.0,1.0,0.0
824,83.0,120.0,120.0,1.0,0.0
825,82.0,120.0,120.0,1.0,0.0
826,85.0,96.0,120.0,1.0,0.0
827,83.0,144.0,90.0,1.0,0.0
828,66.0,6.0,1410.0,5.0,0.0
829,87.0,120.0,120.0,1.0,0.0
830,85.0,120.0,120.0,1.0,0.0
831,83.0,115.0,120.0,1.0,0.0
832,70.0,5.0,240.0,3.0,0.0
833,82.0,120.0,120.0,1.0,0.0
834,80.0,115.0,120.0,1.0,0.0
835,73.0,5.0,240.0,3.0,0.0
836,78.0,120.0,120.0,1.0,0.0
837,77.0,115.0,120.0,1.0,0.0
838,70.0,5.0,240.0,3.0,0.0
839,78.0,120.0,120.0,1.0,0.0
840,71.0,5.0,240.0,3.0,0.0
841,87.0,115.0,120.0,1.0,0.0
842,89.0,120.0,120.0,1.0,0.0
843,90.0,72.0,120.0,1.0,0.0
844,75.0,18.0,180.0,3.0,0.0
845,87.0,144.0,90.0,1.0,0.0
846,84.0,120.0,120.0,1.0,0.0
847,66.0,6.0,1410.0,5.0,0.0
848,85.0,120.0,120.0,1.0,0.0
849,87.0,115.0,120.0,1.0,0.0
850,70.0,5.0,240.0,3.0,0.0
851,85.0,120.0,120.0,1.0,0.0
852,73.0,5.0,240.0,3.0,0.0
853,83.0,115.0,120.0,1.0,0.0
854,82.0,120.0,120.0,1.0,0.0
855,80.0,115.0,120.0,1.0,0.0
856,70.0,5.0,240.0,3.0,0.0
857,78.0,120.0,120.0,1.0,0.0
858,87.0,115.0,120.0,1.0,0.0
859,71.0,5.0,240.0,3.0,0.0
860,89.0,120.0,120.0,1.0,0.0
861,75.0,18.0,180.0,3.0,0.0
862,90.0,72.0,120.0,1.0,0.0
863,87.0,144.0,90.0,1.0,0.0
864,87.0,120.0,120.0,1.0,0.0
865,66.0,120.0,480.0,5.0,0.0
866,70.0,120.0,240.0,3.0,0.0
867,85.0,0.0,120.0,1.0,0.0
868,90.0,96.0,120.0,1.0,0.0
869,85.0,24.0,90.0,1.0,0.0
870,68.0,120.0,240.0,3.0,0.0
871,65.0,120.0,480.0,5.0,0.0
872,85.0,120.0,120.0,1.0,0.0
873,83.0,0.0,120.0,1.0,0.0
874,92.0,96.0,120.0,1.0,0.0
875,83.0,24.0,90.0,1.0,0.0
876,83.0,120.0,120.0,1.0,0.0
877,70.0,120.0,240.0,3.0,0.0
878,66.0,120.0,480.0,5.0,0.0
879,82.0,0.0,120.0,1.0,0.0
880,90.0,96.0,120.0,1.0,0.0
881,82.0,24.0,90.0,1.0,0.0
882,65.0,120.0,360.0,3.0,0.0
883,61.0,0.0,360.0,5.0,0.0
884,82.0,120.0,120.0,1.0,0.0
885,80.0,120.0,120.0,1.0,0.0
886,79.0,0.0,120.0,1.0,0.0
887,80.0,120.0,120.0,1.0,0.0
888,78.0,120.0,120.0,1.0,0.0
889,77.0,120.0,120.0,1.0,0.0
890,76.0,120.0,120.0,1.0,0.0
891,77.0,120.0,120.0,1.0,0.0
892,75.0,120.0,120.0,1.0,0.0
893,73.0,120.0,120.0,1.0,0.0
894,72.0,96.0,120.0,1.0,0.0
895,73.0,144.0,90.0,1.0,0.0
896,70.0,120.0,240.0,3.0,0.0
897,66.0,6.0,1410.0,5.0,0.0
898,87.0,120.0,120.0,1.0,0.0
899,85.0,0.0,120.0,1.0,0.0
900,73.0,120.0,240.0,3.0,0.0
901,84.0,120.0,120.0,1.0,0.0
902,85.0,0.0,120.0,1.0,0.0
903,84.0,120.0,120.0,1.0,0.0
904,70.0,0.0,240.0,3.0,0.0
905,85.0,120.0,120.0,1.0,0.0
906,73.0,0.0,240.0,3.0,0.0
907,84.0,120.0,120.0,1.0,0.0
908,85.0,120.0,120.0,1.0,0.0
909,70.0,120.0,240.0,3.0,0.0
910,87.0,120.0,120.0,1.0,0.0
911,85.0,0.0,120.0,1.0,0.0
912,90.0,72.0,120.0,1.0,0.0
913,73.0,18.0,180.0,3.0,0.0
914,85.0,144.0,90.0,1.0,0.0
915,70.0,0.0,240.0,3.0,0.0
916,66.0,6.0,1410.0,5.0,0.0
917,83.0,120.0,120.0,1.0,0.0
918,82.0,120.0,120.0,1.0,0.0
919,81.0,120.0,120.0,1.0,0.0
920,73.0,0.0,240.0,3.0,0.0
921,82.0,120.0,120.0,1.0,0.0
922,70.0,0.0,240.0,3.0,0.0
923,81.0,120.0,120.0,1.0,0.0
924,82.0,120.0,120.0,1.0,0.0
925,81.0,120.0,120.0,1.0,0.0
926,73.0,120.0,240.0,3.0,0.0
927,82.0,0.0,120.0,1.0,0.0
928,85.0,120.0,120.0,1.0,0.0
929,70.0,0.0,240.0,3.0,0.0
930,82.0,120.0,120.0,1.0,0.0
931,73.0,18.0,180.0,3.0,0.0
932,81.0,72.0,120.0,1.0,0.0
933,82.0,144.0,90.0,1.0,0.0
934,80.0,120.0,120.0,1.0,0.0
935,61.0,0.0,960.0,5.0,0.0
936,70.0,120.0,240.0,3.0,0.0
937,78.0,0.0,120.0,1.0,0.0
938,77.0,120.0,120.0,1.0,0.0
939,73.0,120.0,240.0,3.0,0.0
940,78.0,0.0,120.0,1.0,0.0
941,70.0,0.0,240.0,3.0,0.0
942,80.0,120.0,120.0,1.0,0.0
943,78.0,120.0,120.0,1.0,0.0
944,73.0,0.0,240.0,3.0,0.0
945,77.0,120.0,120.0,1.0,0.0
946,78.0,120.0,120.0,1.0,0.0
947,65.0,23.0,450.0,5.0,0.0
948,71.0,120.0,240.0,3.0,0.0
949,82.0,120.0,120.0,1.0,0.0
950,80.0,0.0,120.0,1.0,0.0
951,79.0,72.0,120.0,1.0,0.0
952,73.0,25.0,180.0,3.0,0.0
953,80.0,120.0,120.0,1.0,0.0
954,82.0,120.0,120.0,1.0,0.0
955,66.0,120.0,360.0,5.0,0.0
956,70.0,0.0,360.0,3.0,0.0
957,78.0,120.0,120.0,1.0,0.0
958,77.0,0.0,120.0,1.0,0.0
959,80.0,120.0,120.0,1.0,0.0
960,78.0,120.0,120.0,1.0,0.0
961,82.0,120.0,120.0,1.0,0.0
962,80.0,120.0,120.0,1.0,0.0
963,83.0,120.0,120.0,1.0,0.0
964,82.0,120.0,120.0,1.0,0.0
965,85.0,120.0,120.0,1.0,0.0
966,83.0,96.0,120.0,1.0,0.0
967,87.0,144.0,90.0,1.0,0.0
968,84.0,120.0,120.0,1.0,0.0
969,66.0,6.0,1410.0,5.0,0.0
970,70.0,120.0,240.0,3.0,0.0
971,85.0,0.0,120.0,1.0,0.0
972,73.0,0.0,240.0,3.0,0.0
973,87.0,120.0,120.0,1.0,0.0
974,85.0,120.0,120.0,1.0,0.0
975,70.0,0.0,240.0,3.0,0.0
976,87.0,120.0,120.0,1.0,0.0
977,85.0,120.0,120.0,1.0,0.0
978,87.0,120.0,120.0,1.0,0.0
979,73.0,120.0,240.0,3.0,0.0
980,85.0,0.0,120.0,1.0,0.0
981,70.0,0.0,240.0,3.0,0.0
982,84.0,120.0,120.0,1.0,0.0
983,85.0,120.0,120.0,1.0,0.0
984,73.0,18.0,180.0,3.0,0.0
985,90.0,72.0,120.0,1.0,0.0
986,85.0,144.0,90.0,1.0,0.0
987,70.0,0.0,240.0,3.0,0.0
988,66.0,6.0,1410.0,5.0,0.0
989,81.0,120.0,120.0,1.0,0.0
990,82.0,120.0,120.0,1.0,0.0
991,73.0,120.0,240.0,3.0,0.0
992,83.0,120.0,120.0,1.0,0.0
993,82.0,0.0,120.0,1.0,0.0
994,83.0,120.0,120.0,1.0,0.0
995,70.0,0.0,240.0,3.0,0.0
996,82.0,120.0,120.0,1.0,0.0
997,73.0,120.0,240.0,3.0,0.0
998,83.0,120.0,120.0,1.0,0.0
999,82.0,0.0,120.0,1.0,0.0
1000,70.0,120.0,240.0,3.0,0.0
1001,81.0,120.0,120.0,1.0,0.0
1002,82.0,0.0,120.0,1.0,0.0
1003,85.0,72.0,120.0,1.0,0.0
1004,73.0,18.0,180.0,3.0,0.0
1005,82.0,144.0,90.0,1.0,0.0
1006,70.0,120.0,240.0,3.0,0.0
1007,77.0,120.0,120.0,1.0,0.0
1008,61.0,0.0,960.0,5.0,0.0
1009,78.0,0.0,120.0,1.0,0.0
1010,80.0,120.0,120.0,1.0,0.0
1011,73.0,0.0,240.0,3.0,0.0
1012,78.0,120.0,120.0,1.0,0.0
1013,70.0,0.0,240.0,3.0,0.0
1014,77.0,120.0,120.0,1.0,0.0
1015,78.0,120.0,120.0,1.0,0.0
1016,80.0,120.0,120.0,1.0,0.0
1017,73.0,120.0,240.0,3.0,0.0
1018,78.0,0.0,120.0,1.0,0.0
1019,65.0,143.0,450.0,5.0,0.0
1020,79.0,120.0,120.0,1.0,0.0
1021,71.0,120.0,240.0,3.0,0.0
1022,80.0,0.0,120.0,1.0,0.0
1023,82.0,72.0,120.0,1.0,0.0
1024,73.0,24.0,180.0,3.0,0.0
1025,80.0,1.0,90.0,1.0,0.0
1026,80.0,120.0,120.0,1.0,0.0
1027,70.0,0.0,360.0,3.0,0.0
1028,66.0,0.0,360.0,5.0,0.0
1029,78.0,120.0,120.0,1.0,0.0
1030,77.0,120.0,120.0,1.0,0.0
1031,75.0,120.0,120.0,1.0,0.0
1032,73.0,120.0,120.0,1.0,0.0
1033,71.0,120.0,120.0,1.0,0.0
1034,70.0,120.0,120.0,1.0,0.0
1035,68.0,360.0,120.0,1.0,0.0
1036,66.0,240.0,360.0,1.0,0.0
1037,61.0,30.0,1410.0,5.0,0.0
1038,80.0,120.0,120.0,1.0,0.0
1039,77.0,120.0,120.0,1.0,0.0
1040,68.0,120.0,240.0,3.0,0.0
1041,73.0,120.0,120.0,1.0,0.0
1042,77.0,0.0,120.0,1.0,0.0
1043,65.0,0.0,240.0,3.0,0.0
1044,80.0,120.0,120.0,1.0,0.0
1045,77.0,120.0,120.0,1.0,0.0
1046,83.0,120.0,120.0,1.0,0.0
1047,68.0,0.0,240.0,3.0,0.0
1048,80.0,120.0,120.0,1.0,0.0
1049,66.0,120.0,240.0,3.0,0.0
1050,82.0,120.0,120.0,1.0,0.0
1051,78.0,0.0,120.0,1.0,0.0
1052,70.0,0.0,240.0,3.0,0.0
1053,85.0,90.0,120.0,1.0,0.0
1054,82.0,120.0,120.0,1.0,0.0
1055,68.0,0.0,360.0,3.0,0.0
1056,61.0,0.0,360.0,5.0,0.0
1057,83.0,120.0,120.0,1.0,0.0
1058,80.0,120.0,120.0,1.0,0.0
1059,89.0,120.0,120.0,1.0,0.0
1060,83.0,120.0,120.0,1.0,0.0
1061,92.0,120.0,120.0,1.0,0.0
1062,90.0,120.0,120.0,1.0,0.0
1063,89.0,120.0,120.0,1.0,0.0
1064,87.0,120.0,120.0,1.0,0.0
1065,85.0,120.0,120.0,1.0,0.0
1066,83.0,120.0,120.0,1.0,0.0
1067,82.0,96.0,120.0,1.0,0.0
1068,80.0,144.0,90.0,1.0,0.0
1069,66.0,30.0,1410.0,5.0,0.0
1070,82.0,120.0,120.0,1.0,0.0
1071,78.0,120.0,120.0,1.0,0.0
1072,70.0,120.0,240.0,3.0,0.0
1073,73.0,120.0,120.0,1.0,0.0
1074,78.0,0.0,120.0,1.0,0.0
1075,82.0,120.0,120.0,1.0,0.0
1076,73.0,0.0,240.0,3.0,0.0
1077,78.0,120.0,120.0,1.0,0.0
1078,70.0,120.0,240.0,3.0,0.0
1079,85.0,120.0,120.0,1.0,0.0
1080,82.0,0.0,120.0,1.0,0.0
1081,68.0,120.0,240.0,3.0,0.0
1082,83.0,120.0,120.0,1.0,0.0
1083,80.0,0.0,120.0,1.0,0.0
1084,71.0,0.0,240.0,3.0,0.0
1085,87.0,90.0,120.0,1.0,0.0
1086,83.0,120.0,120.0,1.0,0.0
1087,66.0,0.0,360.0,5.0,0.0
1088,70.0,120.0,360.0,3.0,0.0
1089,85.0,120.0,120.0,1.0,0.0
1090,82.0,120.0,120.0,1.0,0.0
1091,78.0,0.0,120.0,1.0,0.0
1092,77.0,120.0,120.0,1.0,0.0
1093,80.0,120.0,120.0,1.0,0.0
1094,78.0,120.0,120.0,1.0,0.0
1095,82.0,120.0,120.0,1.0,0.0
1096,80.0,120.0,120.0,1.0,0.0
1097,83.0,120.0,120.0,1.0,0.0
1098,82.0,120.0,120.0,1.0,0.0
1099,85.0,96.0,120.0,1.0,0.0
1100,83.0,144.0,90.0,1.0,0.0
1101,87.0,120.0,120.0,1.0,0.0
1102,66.0,6.0,1410.0,5.0,0.0
1103,85.0,120.0,120.0,1.0,0.0
1104,83.0,115.0,120.0,1.0,0.0
1105,70.0,5.0,240.0,3.0,0.0
1106,82.0,120.0,120.0,1.0,0.0
1107,80.0,115.0,120.0,1.0,0.0
1108,73.0,5.0,240.0,3.0,0.0
1109,78.0,120.0,120.0,1.0,0.0
1110,77.0,115.0,120.0,1.0,0.0
1111,70.0,5.0,240.0,3.0,0.0
1112,78.0,120.0,120.0,1.0,0.0
1113,87.0,115.0,120.0,1.0,0.0
1114,71.0,5.0,240.0,3.0,0.0
1115,89.0,120.0,120.0,1.0,0.0
1116,75.0,18.0,180.0,3.0,0.0
1117,90.0,72.0,120.0,1.0,0.0
1118,87.0,144.0,90.0,1.0,0.0
1119,66.0,6.0,1410.0,5.0,0.0
1120,84.0,120.0,120.0,1.0,0.0
1121,85.0,120.0,120.0,1.0,0.0
1122,87.0,115.0,120.0,1.0,0.0
1123,70.0,5.0,240.0,3.0,0.0
1124,85.0,120.0,120.0,1.0,0.0
1125,73.0,5.0,240.0,3.0,0.0
1126,83.0,115.0,120.0,1.0,0.0
1127,82.0,120.0,120.0,1.0,0.0
1128,80.0,115.0,120.0,1.0,0.0
1129,70.0,5.0,240.0,3.0,0.0
1130,78.0,120.0,120.0,1.0,0.0
1131,87.0,115.0,120.0,1.0,0.0
1132,71.0,5.0,240.0,3.0,0.0
1133,89.0,120.0,120.0,1.0,0.0
1134,90.0,72.0,120.0,1.0,0.0
1135,75.0,18.0,180.0,3.0,0.0
1136,87.0,144.0,90.0,1.0,0.0
1137,87.0,120.0,120.0,1.0,0.0
1138,66.0,120.0,480.0,5.0,0.0
1139,70.0,0.0,240.0,3.0,0.0
1140,85.0,120.0,120.0,1.0,0.0
1141,90.0,96.0,120.0,1.0,0.0
1142,85.0,24.0,90.0,1.0,0.0
1143,65.0,120.0,480.0,5.0,0.0
1144,68.0,0.0,240.0,3.0,0.0
1145,85.0,120.0,120.0,1.0,0.0
1146,83.0,120.0,120.0,1.0,0.0
1147,92.0,96.0,120.0,1.0,0.0
1148,83.0,24.0,90.0,1.0,0.0
1149,70.0,0.0,240.0,3.0,0.0
1150,66.0,120.0,480.0,5.0,0.0
1151,83.0,120.0,120.0,1.0,0.0
1152,82.0,120.0,120.0,1.0,0.0
1153,90.0,96.0,120.0,1.0,0.0
1154,82.0,24.0,90.0,1.0,0.0
1155,65.0,0.0,360.0,3.0,0.0
1156,82.0,120.0,120.0,1.0,0.0
1157,61.0,0.0,360.0,5.0,0.0
1158,80.0,120.0,120.0,1.0,0.0
1159,79.0,120.0,120.0,1.0,0.0
1160,80.0,120.0,120.0,1.0,0.0
1161,78.0,120.0,120.0,1.0,0.0
1162,77.0,120.0,120.0,1.0,0.0
1163,76.0,120.0,120.0,1.0,0.0
1164,77.0,120.0,120.0,1.0,0.0
1165,75.0,120.0,120.0,1.0,0.0
1166,73.0,120.0,120.0,1.0,0.0
1167,72.0,96.0,120.0,1.0,0.0
1168,73.0,144.0,90.0,1.0,0.0
1169,70.0,0.0,240.0,3.0,0.0
1170,87.0,120.0,120.0,1.0,0.0
1171,66.0,6.0,1410.0,5.0,0.0
1172,85.0,120.0,120.0,1.0,0.0
1173,73.0,120.0,240.0,3.0,0.0
1174,84.0,120.0,120.0,1.0,0.0
1175,85.0,0.0,120.0,1.0,0.0
1176,70.0,0.0,240.0,3.0,0.0
1177,84.0,120.0,120.0,1.0,0.0
1178,85.0,120.0,120.0,1.0,0.0
1179,84.0,120.0,120.0,1.0,0.0
1180,73.0,120.0,240.0,3.0,0.0
1181,85.0,0.0,120.0,1.0,0.0
1182,87.0,120.0,120.0,1.0,0.0
1183,70.0,0.0,240.0,3.0,0.0
1184,85.0,120.0,120.0,1.0,0.0
1185,73.0,18.0,180.0,3.0,0.0
1186,90.0,72.0,120.0,1.0,0.0
1187,85.0,144.0,90.0,1.0,0.0
1188,70.0,120.0,240.0,3.0,0.0
1189,83.0,120.0,120.0,1.0,0.0
1190,66.0,6.0,1410.0,5.0,0.0
1191,82.0,0.0,120.0,1.0,0.0
1192,81.0,120.0,120.0,1.0,0.0
1193,73.0,120.0,240.0,3.0,0.0
1194,82.0,0.0,120.0,1.0,0.0
1195,81.0,120.0,120.0,1.0,0.0
1196,70.0,0.0,240.0,3.0,0.0
1197,82.0,120.0,120.0,1.0,0.0
1198,73.0,120.0,240.0,3.0,0.0
1199,81.0,120.0,120.0,1.0,0.0
1200,82.0,0.0,120.0,1.0,0.0
1201,70.0,120.0,240.0,3.0,0.0
1202,85.0,120.0,120.0,1.0,0.0
1203,82.0,0.0,120.0,1.0,0.0
1204,73.0,18.0,180.0,3.0,0.0
1205,81.0,72.0,120.0,1.0,0.0
1206,82.0,144.0,90.0,1.0,0.0
1207,61.0,0.0,960.0,5.0,0.0
1208,70.0,0.0,240.0,3.0,0.0
1209,80.0,120.0,120.0,1.0,0.0
1210,78.0,120.0,120.0,1.0,0.0
1211,73.0,120.0,240.0,3.0,0.0
1212,77.0,120.0,120.0,1.0,0.0
1213,78.0,0.0,120.0,1.0,0.0
1214,70.0,0.0,240.0,3.0,0.0
1215,80.0,120.0,120.0,1.0,0.0
1216,78.0,120.0,120.0,1.0,0.0
1217,77.0,120.0,120.0,1.0,0.0
1218,73.0,0.0,240.0,3.0,0.0
1219,78.0,120.0,120.0,1.0,0.0
1220,65.0,23.0,450.0,5.0,0.0
1221,71.0,120.0,240.0,3.0,0.0
1222,82.0,120.0,120.0,1.0,0.0
1223,80.0,0.0,120.0,1.0,0.0
1224,79.0,72.0,120.0,1.0,0.0
1225,73.0,25.0,180.0,3.0,0.0
1226,80.0,120.0,120.0,1.0,0.0
1227,66.0,120.0,360.0,5.0,0.0
1228,70.0,0.0,360.0,3.0,0.0
1229,82.0,120.0,120.0,1.0,0.0
1230,78.0,120.0,120.0,1.0,0.0
1231,77.0,0.0,120.0,1.0,0.0
1232,80.0,120.0,120.0,1.0,0.0
1233,78.0,120.0,120.0,1.0,0.0
1234,82.0,120.0,120.0,1.0,0.0
1235,80.0,120.0,120.0,1.0,0.0
1236,83.0,120.0,120.0,1.0,0.0
1237,82.0,120.0,120.0,1.0,0.0
1238,85.0,120.0,120.0,1.0,0.0
1239,83.0,96.0,120.0,1.0,0.0
1240,87.0,144.0,90.0,1.0,0.0
1241,70.0,120.0,240.0,3.0,0.0
1242,66.0,6.0,1410.0,5.0,0.0
1243,84.0,120.0,120.0,1.0,0.0
1244,85.0,0.0,120.0,1.0,0.0
1245,73.0,0.0,240.0,3.0,0.0
1246,87.0,120.0,120.0,1.0,0.0
1247,85.0,120.0,120.0,1.0,0.0
1248,70.0,120.0,240.0,3.0,0.0
1249,87.0,120.0,120.0,1.0,0.0
1250,85.0,0.0,120.0,1.0,0.0
1251,87.0,120.0,120.0,1.0,0.0
1252,73.0,120.0,240.0,3.0,0.0
1253,85.0,0.0,120.0,1.0,0.0
1254,84.0,120.0,120.0,1.0,0.0
1255,70.0,120.0,240.0,3.0,0.0
1256,85.0,0.0,120.0,1.0,0.0
1257,90.0,72.0,120.0,1.0,0.0
1258,73.0,18.0,180.0,3.0,0.0
1259,85.0,144.0,90.0,1.0,0.0
1260,70.0,120.0,240.0,3.0,0.0
1261,81.0,120.0,120.0,1.0,0.0
1262,66.0,6.0,1410.0,5.0,0.0
1263,82.0,0.0,120.0,1.0,0.0
1264,73.0,120.0,240.0,3.0,0.0
1265,83.0,120.0,120.0,1.0,0.0
1266,82.0,0.0,120.0,1.0,0.0
1267,83.0,120.0,120.0,1.0,0.0
1268,70.0,120.0,240.0,3.0,0.0
1269,82.0,0.0,120.0,1.0,0.0
1270,73.0,120.0,240.0,3.0,0.0
1271,83.0,120.0,120.0,1.0,0.0
1272,82.0,0.0,120.0,1.0,0.0
1273,81.0,120.0,120.0,1.0,0.0
1274,70.0,120.0,240.0,3.0,0.0
1275,82.0,0.0,120.0,1.0,0.0
1276,85.0,72.0,120.0,1.0,0.0
1277,73.0,18.0,180.0,3.0,0.0
1278,82.0,144.0,90.0,1.0,0.0
1279,70.0,0.0,240.0,3.0,0.0
1280,61.0,0.0,960.0,5.0,0.0
1281,77.0,120.0,120.0,1.0,0.0
1282,78.0,120.0,120.0,1.0,0.0
1283,80.0,120.0,120.0,1.0,0.0
1284,73.0,0.0,240.0,3.0,0.0
1285,78.0,120.0,120.0,1.0,0.0
1286,70.0,0.0,240.0,3.0,0.0
1287,77.0,120.0,120.0,1.0,0.0
1288,78.0,120.0,120.0,1.0,0.0
1289,80.0,120.0,120.0,1.0,0.0
1290,73.0,120.0,240.0,3.0,0.0
1291,78.0,0.0,120.0,1.0,0.0
1292,79.0,120.0,120.0,1.0,0.0
1293,71.0,120.0,240.0,3.0,0.0
1294,65.0,143.0,450.0,5.0,0.0
1295,80.0,0.0,120.0,1.0,0.0
1296,73.0,24.0,180.0,3.0,0.0
1297,82.0,72.0,120.0,1.0,0.0
1298,80.0,1.0,90.0,1.0,0.0
1299,66.0,0.0,360.0,5.0,0.0
1300,80.0,120.0,120.0,1.0,0.0
1301,70.0,0.0,360.0,3.0,0.0
1302,78.0,120.0,120.0,1.0,0.0
1303,77.0,120.0,120.0,1.0,0.0
1304,75.0,120.0,120.0,1.0,0.0
1305,73.0,120.0,120.0,1.0,0.0
1306,71.0,120.0,120.0,1.0,0.0
1307,70.0,120.0,120.0,1.0,0.0
1308,68.0,360.0,120.0,1.0,0.0
1309,66.0,360.0,360.0,1.0,0.0
1310,85.0,0.0,960.0,1.0,0.0
1311,54.0,0.0,240.0,5.0,0.0
1312,82.0,156.0,960.0,2.0,0.0
1313,78.0,0.0,960.0,2.0,0.0
1314,66.0,120.0,120.0,4.0,0.0
1315,65.0,120.0,120.0,4.0,0.0
1316,66.0,120.0,120.0,4.0,0.0
1317,70.0,120.0,120.0,4.0,0.0
1318,66.0,120.0,120.0,4.0,0.0
1319,65.0,120.0,120.0,4.0,0.0
1320,66.0,0.0,120.0,4.0,0.0
1321,90.0,48.0,180.0,1.0,0.0
1322,61.0,36.0,150.0,5.0,0.0
1323,66.0,156.0,120.0,4.0,0.0
1324,58.0,60.0,150.0,5.0,0.0
1325,61.0,264.0,90.0,4.0,0.0
1326,78.0,0.0,960.0,2.0,0.0
1327,73.0,0.0,960.0,2.0,0.0
1328,54.0,120.0,240.0,5.0,0.0
1329,82.0,0.0,960.0,1.0,0.0
1330,66.0,0.0,120.0,4.0,0.0
1331,65.0,120.0,120.0,4.0,0.0
1332,66.0,120.0,120.0,4.0,0.0
1333,70.0,120.0,120.0,4.0,0.0
1334,66.0,120.0,120.0,4.0,0.0
1335,65.0,120.0,120.0,4.0,0.0
1336,66.0,156.0,120.0,4.0,0.0
1337,61.0,36.0,150.0,5.0,0.0
1338,85.0,48.0,180.0,1.0,0.0
1339,66.0,156.0,120.0,4.0,0.0
1340,58.0,60.0,150.0,5.0,0.0
1341,61.0,180.0,90.0,4.0,0.0
1342,51.0,36.0,150.0,5.0,0.0
1343,78.0,0.0,180.0,1.0,0.0
1344,75.0,0.0,180.0,2.0,0.0
1345,70.0,48.0,180.0,2.0,0.0
1346,54.0,120.0,120.0,4.0,0.0
1347,58.0,96.0,120.0,4.0,0.0
1348,63.0,180.0,90.0,4.0,0.0
1349,75.0,0.0,180.0,2.0,0.0
1350,47.0,36.0,150.0,5.0,0.0
1351,80.0,0.0,180.0,1.0,0.0
1352,78.0,48.0,180.0,2.0,0.0
1353,51.0,120.0,120.0,4.0,0.0
1354,56.0,96.0,120.0,4.0,0.0
1355,59.0,180.0,90.0,4.0,0.0
1356,49.0,36.0,150.0,5.0,0.0
1357,83.0,48.0,180.0,1.0,0.0
1358,77.0,0.0,180.0,2.0,0.0
1359,73.0,0.0,180.0,2.0,0.0
1360,80.0,0.0,180.0,2.0,0.0
1361,53.0,120.0,120.0,4.0,0.0
1362,56.0,96.0,120.0,4.0,0.0
1363,61.0,144.0,90.0,4.0,0.0
1364,54.0,120.0,360.0,5.0,0.0
1365,82.0,120.0,120.0,1.0,0.0
1366,78.0,120.0,120.0,1.0,0.0
1367,77.0,0.0,120.0,1.0,0.0
1368,80.0,120.0,120.0,1.0,0.0
1369,78.0,120.0,120.0,1.0,0.0
1370,82.0,120.0,120.0,1.0,0.0
1371,80.0,120.0,120.0,1.0,0.0
1372,83.0,120.0,120.0,1.0,0.0
1373,82.0,120.0,120.0,1.0,0.0
1374,85.0,120.0,120.0,1.0,0.0
1375,83.0,96.0,120.0,1.0,0.0
1376,87.0,264.0,90.0,1.0,0.0
1377,85.0,0.0,960.0,1.0,0.0
1378,54.0,120.0,240.0,5.0,0.0
1379,78.0,0.0,960.0,2.0,0.0
1380,82.0,0.0,960.0,2.0,0.0
1381,66.0,0.0,120.0,4.0,0.0
1382,65.0,120.0,120.0,4.0,0.0
1383,66.0,120.0,120.0,4.0,0.0
1384,70.0,120.0,120.0,4.0,0.0
1385,66.0,120.0,120.0,4.0,0.0
1386,65.0,120.0,120.0,4.0,0.0
1387,66.0,156.0,120.0,4.0,0.0
1388,61.0,36.0,150.0,5.0,0.0
1389,90.0,48.0,180.0,1.0,0.0
1390,66.0,156.0,120.0,4.0,0.0
1391,58.0,60.0,150.0,5.0,0.0
1392,61.0,264.0,90.0,4.0,0.0
1393,54.0,120.0,240.0,5.0,0.0
1394,73.0,0.0,960.0,2.0,0.0
1395,78.0,0.0,960.0,2.0,0.0
1396,82.0,156.0,960.0,1.0,0.0
1397,66.0,0.0,120.0,4.0,0.0
1398,65.0,120.0,120.0,4.0,0.0
1399,66.0,120.0,120.0,4.0,0.0
1400,70.0,120.0,120.0,4.0,0.0
1401,66.0,120.0,120.0,4.0,0.0
1402,65.0,120.0,120.0,4.0,0.0
1403,66.0,0.0,120.0,4.0,0.0
1404,61.0,36.0,150.0,5.0,0.0
1405,85.0,48.0,180.0,1.0,0.0
1406,66.0,156.0,120.0,4.0,0.0
1407,58.0,60.0,150.0,5.0,0.0
1408,61.0,180.0,90.0,4.0,0.0
1409,70.0,0.0,180.0,2.0,0.0
1410,75.0,0.0,180.0,2.0,0.0
1411,78.0,48.0,180.0,1.0,0.0
1412,51.0,36.0,150.0,5.0,0.0
1413,54.0,120.0,120.0,4.0,0.0
1414,58.0,96.0,120.0,4.0,0.0
1415,63.0,180.0,90.0,4.0,0.0
1416,80.0,0.0,180.0,1.0,0.0
1417,71.0,0.0,180.0,2.0,0.0
1418,75.0,48.0,180.0,2.0,0.0
1419,47.0,36.0,150.0,5.0,0.0
1420,51.0,120.0,120.0,4.0,0.0
1421,56.0,96.0,120.0,4.0,0.0
1422,59.0,180.0,90.0,4.0,0.0
1423,77.0,48.0,180.0,1.0,0.0
1424,71.0,0.0,180.0,2.0,0.0
1425,73.0,0.0,180.0,2.0,0.0
1426,49.0,36.0,150.0,5.0,0.0
1427,68.0,0.0,180.0,2.0,0.0
1428,53.0,120.0,120.0,4.0,0.0
1429,56.0,96.0,120.0,4.0,0.0
1430,61.0,264.0,90.0,4.0,0.0
1431,42.0,120.0,240.0,5.0,0.0
1432,78.0,0.0,360.0,1.0,0.0
1433,73.0,0.0,360.0,2.0,0.0
1434,70.0,120.0,360.0,2.0,0.0
1435,66.0,0.0,360.0,2.0,0.0
1436,54.0,0.0,120.0,4.0,0.0
1437,58.0,0.0,120.0,4.0,0.0
1438,54.0,156.0,120.0,4.0,0.0
1439,49.0,84.0,150.0,5.0,0.0
1440,54.0,156.0,120.0,4.0,0.0
1441,46.0,84.0,150.0,5.0,0.0
1442,49.0,192.0,120.0,4.0,0.0
1443,42.0,528.0,180.0,5.0,0.0
1444,54.0,0.0,240.0,5.0,0.0
1445,82.0,0.0,960.0,2.0,0.0
1446,85.0,0.0,960.0,1.0,0.0
1447,78.0,0.0,960.0,2.0,0.0
1448,66.0,120.0,120.0,4.0,0.0
1449,65.0,120.0,120.0,4.0,0.0
1450,66.0,120.0,120.0,4.0,0.0
1451,70.0,120.0,120.0,4.0,0.0
1452,66.0,120.0,120.0,4.0,0.0
1453,65.0,120.0,120.0,4.0,0.0
1454,66.0,156.0,120.0,4.0,0.0
1455,61.0,36.0,150.0,5.0,0.0
1456,90.0,48.0,180.0,1.0,0.0
1457,66.0,156.0,120.0,4.0,0.0
1458,58.0,60.0,150.0,5.0,0.0
1459,61.0,264.0,90.0,4.0,0.0
1460,54.0,0.0,240.0,5.0,0.0
1461,73.0,0.0,960.0,2.0,0.0
1462,82.0,0.0,960.0,1.0,0.0
1463,78.0,0.0,960.0,2.0,0.0
1464,66.0,120.0,120.0,4.0,0.0
1465,65.0,120.0,120.0,4.0,0.0
1466,66.0,120.0,120.0,4.0,0.0
1467,70.0,120.0,120.0,4.0,0.0
1468,66.0,120.0,120.0,4.0,0.0
1469,65.0,120.0,120.0,4.0,0.0
1470,66.0,156.0,120.0,4.0,0.0
1471,85.0,48.0,180.0,1.0,0.0
1472,61.0,36.0,150.0,5.0,0.0
1473,66.0,156.0,120.0,4.0,0.0
1474,58.0,60.0,150.0,5.0,0.0
1475,61.0,180.0,90.0,4.0,0.0
1476,75.0,0.0,180.0,2.0,0.0
1477,78.0,48.0,180.0,1.0,0.0
1478,51.0,36.0,150.0,5.0,0.0
1479,70.0,0.0,180.0,2.0,0.0
1480,54.0,120.0,120.0,4.0,0.0
1481,58.0,96.0,120.0,4.0,0.0
1482,63.0,180.0,90.0,4.0,0.0
1483,47.0,36.0,150.0,5.0,0.0
1484,78.0,0.0,180.0,2.0,0.0
1485,75.0,48.0,180.0,2.0,0.0
1486,80.0,0.0,180.0,1.0,0.0
1487,51.0,120.0,120.0,4.0,0.0
1488,56.0,96.0,120.0,4.0,0.0
1489,59.0,180.0,90.0,4.0,0.0
1490,83.0,48.0,180.0,1.0,0.0
1491,73.0,0.0,180.0,2.0,0.0
1492,77.0,0.0,180.0,2.0,0.0
1493,49.0,36.0,150.0,5.0,0.0
1494,80.0,0.0,180.0,2.0,0.0
1495,53.0,120.0,120.0,4.0,0.0
1496,56.0,96.0,120.0,4.0,0.0
1497,61.0,144.0,90.0,4.0,0.0
1498,54.0,120.0,360.0,5.0,0.0
1499,82.0,120.0,120.0,1.0,0.0
1500,78.0,120.0,120.0,1.0,0.0
1501,77.0,0.0,120.0,1.0,0.0
1502,80.0,120.0,120.0,1.0,0.0
1503,78.0,120.0,120.0,1.0,0.0
1504,82.0,120.0,120.0,1.0,0.0
1505,80.0,120.0,120.0,1.0,0.0
1506,83.0,120.0,120.0,1.0,0.0
1507,82.0,120.0,120.0,1.0,0.0
1508,85.0,120.0,120.0,1.0,0.0
1509,83.0,96.0,120.0,1.0,0.0
1510,87.0,264.0,90.0,1.0,0.0
1511,85.0,156.0,960.0,1.0,0.0
1512,82.0,0.0,960.0,2.0,0.0
1513,54.0,0.0,240.0,5.0,0.0
1514,78.0,0.0,960.0,2.0,0.0
1515,66.0,120.0,120.0,4.0,0.0
1516,65.0,120.0,120.0,4.0,0.0
1517,66.0,120.0,120.0,4.0,0.0
1518,70.0,120.0,120.0,4.0,0.0
1519,66.0,120.0,120.0,4.0,0.0
1520,65.0,120.0,120.0,4.0,0.0
1521,66.0,0.0,120.0,4.0,0.0
1522,90.0,48.0,180.0,1.0,0.0
1523,61.0,36.0,150.0,5.0,0.0
1524,66.0,156.0,120.0,4.0,0.0
1525,58.0,60.0,150.0,5.0,0.0
1526,61.0,264.0,90.0,4.0,0.0
1527,73.0,0.0,960.0,2.0,0.0
1528,82.0,156.0,960.0,1.0,0.0
1529,78.0,0.0,960.0,2.0,0.0
1530,54.0,120.0,240.0,5.0,0.0
1531,66.0,0.0,120.0,4.0,0.0
1532,65.0,120.0,120.0,4.0,0.0
1533,66.0,120.0,120.0,4.0,0.0
1534,70.0,120.0,120.0,4.0,0.0
1535,66.0,120.0,120.0,4.0,0.0
1536,65.0,120.0,120.0,4.0,0.0
1537,66.0,0.0,120.0,4.0,0.0
1538,85.0,48.0,180.0,1.0,0.0
1539,61.0,36.0,150.0,5.0,0.0
1540,66.0,156.0,120.0,4.0,0.0
1541,58.0,60.0,150.0,5.0,0.0
1542,61.0,180.0,90.0,4.0,0.0
1543,78.0,0.0,180.0,1.0,0.0
1544,75.0,48.0,180.0,2.0,0.0
1545,70.0,0.0,180.0,2.0,0.0
1546,51.0,36.0,150.0,5.0,0.0
1547,54.0,120.0,120.0,4.0,0.0
1548,58.0,96.0,120.0,4.0,0.0
1549,63.0,180.0,90.0,4.0,0.0
1550,47.0,36.0,150.0,5.0,0.0
1551,75.0,0.0,180.0,2.0,0.0
1552,71.0,0.0,180.0,2.0,0.0
1553,80.0,48.0,180.0,1.0,0.0
1554,51.0,120.0,120.0,4.0,0.0
1555,56.0,96.0,120.0,4.0,0.0
1556,59.0,180.0,90.0,4.0,0.0
1557,49.0,36.0,150.0,5.0,0.0
1558,77.0,0.0,180.0,1.0,0.0
1559,73.0,0.0,180.0,2.0,0.0
1560,71.0,48.0,180.0,2.0,0.0
1561,68.0,0.0,180.0,2.0,0.0
1562,53.0,120.0,120.0,4.0,0.0
1563,56.0,96.0,120.0,4.0,0.0
1564,61.0,264.0,90.0,4.0,0.0
1565,42.0,120.0,240.0,5.0,0.0
1566,70.0,0.0,360.0,2.0,0.0
1567,78.0,120.0,360.0,1.0,0.0
1568,66.0,0.0,360.0,2.0,0.0
1569,73.0,0.0,360.0,2.0,0.0
1570,54.0,0.0,120.0,4.0,0.0
1571,58.0,0.0,120.0,4.0,0.0
1572,54.0,156.0,120.0,4.0,0.0
1573,49.0,84.0,150.0,5.0,0.0
1574,54.0,156.0,120.0,4.0,0.0
1575,46.0,84.0,150.0,5.0,0.0
1576,49.0,192.0,120.0,4.0,0.0
1577,42.0,486.0,180.0,5.0,0.0
1578,73.0,0.0,360.0,2.0,0.0
1579,77.0,78.0,360.0,2.0,0.0
1580,80.0,0.0,360.0,1.0,0.0
1581,49.0,120.0,90.0,5.0,0.0
1582,51.0,42.0,90.0,5.0,0.0
1583,53.0,120.0,90.0,5.0,0.0
1584,73.0,0.0,360.0,2.0,0.0
1585,77.0,78.0,360.0,2.0,0.0
1586,80.0,0.0,360.0,1.0,0.0
1587,54.0,120.0,90.0,5.0,0.0
1588,56.0,120.0,90.0,5.0,0.0
1589,58.0,42.0,90.0,5.0,0.0
1590,60.0,120.0,90.0,5.0,0.0
1591,77.0,0.0,360.0,2.0,0.0
1592,73.0,78.0,360.0,2.0,0.0
1593,61.0,120.0,90.0,5.0,0.0
1594,80.0,0.0,360.0,1.0,0.0
1595,63.0,120.0,90.0,5.0,0.0
1596,65.0,42.0,90.0,5.0,0.0
1597,66.0,162.0,90.0,5.0,0.0
1598,80.0,0.0,840.0,1.0,0.0
1599,77.0,120.0,840.0,2.0,0.0
1600,73.0,0.0,840.0,2.0,0.0
1601,68.0,120.0,120.0,5.0,0.0
1602,66.0,120.0,120.0,5.0,0.0
1603,65.0,120.0,120.0,5.0,0.0
1604,63.0,120.0,120.0,5.0,0.0
1605,61.0,120.0,120.0,5.0,0.0
1606,59.0,120.0,120.0,5.0,0.0
1607,58.0,0.0,120.0,5.0,0.0
1608,78.0,120.0,120.0,2.0,0.0
1609,56.0,0.0,120.0,5.0,0.0
1610,82.0,0.0,120.0,1.0,0.0
1611,54.0,72.0,120.0,5.0,0.0
1612,80.0,48.0,180.0,2.0,0.0
1613,83.0,0.0,180.0,1.0,0.0
1614,53.0,120.0,120.0,5.0,0.0
1615,51.0,78.0,120.0,5.0,0.0
1616,49.0,240.0,90.0,5.0,0.0
1617,73.0,0.0,360.0,2.0,0.0
1618,78.0,78.0,360.0,2.0,0.0
1619,82.0,0.0,360.0,1.0,0.0
1620,54.0,120.0,90.0,5.0,0.0
1621,56.0,42.0,90.0,5.0,0.0
1622,58.0,120.0,90.0,5.0,0.0
1623,59.0,120.0,90.0,5.0,0.0
1624,82.0,0.0,360.0,1.0,0.0
1625,73.0,78.0,360.0,2.0,0.0
1626,78.0,0.0,360.0,2.0,0.0
1627,61.0,120.0,90.0,5.0,0.0
1628,63.0,42.0,90.0,5.0,0.0
1629,65.0,120.0,90.0,5.0,0.0
1630,66.0,120.0,90.0,5.0,0.0
1631,78.0,0.0,360.0,2.0,0.0
1632,73.0,78.0,360.0,2.0,0.0
1633,82.0,0.0,360.0,1.0,0.0
1634,68.0,120.0,90.0,5.0,0.0
1635,70.0,42.0,90.0,5.0,0.0
1636,71.0,148.0,90.0,5.0,0.0
1637,78.0,120.0,840.0,2.0,0.0
1638,82.0,0.0,840.0,1.0,0.0
1639,73.0,134.0,120.0,5.0,0.0
1640,71.0,120.0,120.0,5.0,0.0
1641,70.0,120.0,120.0,5.0,0.0
1642,68.0,120.0,120.0,5.0,0.0
1643,66.0,120.0,120.0,5.0,0.0
1644,65.0,120.0,120.0,5.0,0.0
1645,63.0,0.0,120.0,5.0,0.0
1646,61.0,0.0,120.0,5.0,0.0
1647,83.0,0.0,120.0,1.0,0.0
1648,80.0,120.0,120.0,2.0,0.0
1649,59.0,72.0,120.0,5.0,0.0
1650,85.0,0.0,180.0,1.0,0.0
1651,82.0,48.0,180.0,2.0,0.0
1652,58.0,120.0,120.0,5.0,0.0
1653,56.0,96.0,120.0,5.0,0.0
1654,54.0,264.0,90.0,5.0,0.0
1655,90.0,0.0,480.0,1.0,0.0
1656,66.0,156.0,120.0,4.0,0.0
1657,65.0,84.0,150.0,5.0,0.0
1658,66.0,156.0,120.0,4.0,0.0
1659,82.0,84.0,150.0,1.0,0.0
1660,64.0,0.0,150.0,5.0,0.0
1661,66.0,156.0,120.0,4.0,0.0
1662,63.0,0.0,150.0,5.0,0.0
1663,83.0,84.0,150.0,1.0,0.0
1664,66.0,156.0,120.0,4.0,0.0
1665,85.0,84.0,150.0,1.0,0.0
1666,61.0,0.0,150.0,5.0,0.0
1667,66.0,156.0,120.0,4.0,0.0
1668,59.0,0.0,150.0,5.0,0.0
1669,87.0,84.0,150.0,1.0,0.0
1670,66.0,156.0,120.0,4.0,0.0
1671,85.0,36.0,360.0,1.0,0.0
1672,58.0,84.0,150.0,5.0,0.0
1673,66.0,120.0,120.0,4.0,0.0
1674,65.0,84.0,150.0,5.0,0.0
1675,66.0,156.0,120.0,4.0,0.0
1676,90.0,0.0,120.0,1.0,0.0
1677,82.0,0.0,150.0,1.0,0.0
1678,64.0,84.0,150.0,5.0,0.0
1679,66.0,156.0,120.0,4.0,0.0
1680,63.0,0.0,150.0,5.0,0.0
1681,83.0,84.0,150.0,1.0,0.0
1682,66.0,156.0,120.0,4.0,0.0
1683,61.0,0.0,150.0,5.0,0.0
1684,85.0,84.0,150.0,1.0,0.0
1685,66.0,156.0,120.0,4.0,0.0
1686,59.0,0.0,150.0,5.0,0.0
1687,87.0,84.0,150.0,1.0,0.0
1688,66.0,156.0,120.0,4.0,0.0
1689,58.0,84.0,150.0,5.0,0.0
1690,87.0,0.0,240.0,1.0,0.0
1691,66.0,120.0,120.0,4.0,0.0
1692,61.0,0.0,120.0,4.0,0.0
1693,85.0,120.0,120.0,1.0,0.0
1694,66.0,156.0,120.0,4.0,0.0
1695,56.0,84.0,150.0,5.0,0.0
1696,85.0,0.0,240.0,1.0,0.0
1697,65.0,120.0,120.0,4.0,0.0
1698,83.0,0.0,120.0,1.0,0.0
1699,61.0,120.0,120.0,4.0,0.0
1700,65.0,156.0,120.0,4.0,0.0
1701,83.0,120.0,240.0,1.0,0.0
1702,54.0,84.0,150.0,5.0,0.0
1703,66.0,0.0,120.0,4.0,0.0
1704,82.0,120.0,120.0,1.0,0.0
1705,61.0,0.0,120.0,4.0,0.0
1706,66.0,96.0,120.0,4.0,0.0
1707,61.0,0.0,360.0,5.0,0.0
1708,65.0,120.0,360.0,4.0,0.0
1709,80.0,144.0,90.0,1.0,0.0
1710,73.0,120.0,120.0,1.0,0.0
1711,75.0,0.0,120.0,1.0,0.0
1712,76.0,120.0,120.0,1.0,0.0
1713,77.0,120.0,120.0,1.0,0.0
1714,78.0,120.0,120.0,1.0,0.0
1715,79.0,120.0,120.0,1.0,0.0
1716,80.0,120.0,120.0,1.0,0.0
1717,81.0,120.0,120.0,1.0,0.0
1718,82.0,120.0,120.0,1.0,0.0
1719,83.0,96.0,120.0,1.0,0.0
1720,84.0,264.0,90.0,1.0,0.0
1721,54.0,120.0,240.0,5.0,0.0
1722,85.0,156.0,960.0,1.0,0.0
1723,78.0,0.0,960.0,2.0,0.0
1724,82.0,0.0,960.0,2.0,0.0
1725,66.0,0.0,120.0,4.0,0.0
1726,65.0,120.0,120.0,4.0,0.0
1727,66.0,120.0,120.0,4.0,0.0
1728,70.0,120.0,120.0,4.0,0.0
1729,66.0,120.0,120.0,4.0,0.0
1730,65.0,120.0,120.0,4.0,0.0
1731,66.0,0.0,120.0,4.0,0.0
1732,61.0,36.0,150.0,5.0,0.0
1733,90.0,48.0,180.0,1.0,0.0
1734,66.0,156.0,120.0,4.0,0.0
1735,58.0,60.0,150.0,5.0,0.0
1736,61.0,264.0,90.0,4.0,0.0
1737,78.0,0.0,960.0,2.0,0.0
1738,73.0,0.0,960.0,2.0,0.0
1739,54.0,120.0,240.0,5.0,0.0
1740,82.0,156.0,960.0,1.0,0.0
1741,66.0,0.0,120.0,4.0,0.0
1742,65.0,120.0,120.0,4.0,0.0
1743,66.0,120.0,120.0,4.0,0.0
1744,70.0,120.0,120.0,4.0,0.0
1745,66.0,120.0,120.0,4.0,0.0
1746,65.0,120.0,120.0,4.0,0.0
1747,66.0,0.0,120.0,4.0,0.0
1748,85.0,48.0,180.0,1.0,0.0
1749,61.0,36.0,150.0,5.0,0.0
1750,66.0,156.0,120.0,4.0,0.0
1751,58.0,60.0,150.0,5.0,0.0
1752,61.0,180.0,90.0,4.0,0.0
1753,78.0,0.0,180.0,1.0,0.0
1754,51.0,36.0,150.0,5.0,0.0
1755,75.0,0.0,180.0,2.0,0.0
1756,70.0,48.0,180.0,2.0,0.0
1757,54.0,120.0,120.0,4.0,0.0
1758,58.0,96.0,120.0,4.0,0.0
1759,63.0,180.0,90.0,4.0,0.0
1760,80.0,0.0,180.0,1.0,0.0
1761,75.0,48.0,180.0,2.0,0.0
1762,78.0,0.0,180.0,2.0,0.0
1763,47.0,36.0,150.0,5.0,0.0
1764,51.0,120.0,120.0,4.0,0.0
1765,56.0,96.0,120.0,4.0,0.0
1766,59.0,180.0,90.0,4.0,0.0
1767,49.0,36.0,150.0,5.0,0.0
1768,80.0,0.0,180.0,2.0,0.0
1769,77.0,0.0,180.0,2.0,0.0
1770,83.0,48.0,180.0,1.0,0.0
1771,73.0,0.0,180.0,2.0,0.0
1772,53.0,120.0,120.0,4.0,0.0
1773,56.0,96.0,120.0,4.0,0.0
1774,61.0,144.0,90.0,4.0,0.0
1775,54.0,120.0,360.0,5.0,0.0
1776,82.0,120.0,120.0,1.0,0.0
1777,78.0,120.0,120.0,1.0,0.0
1778,77.0,0.0,120.0,1.0,0.0
1779,80.0,120.0,120.0,1.0,0.0
1780,78.0,120.0,120.0,1.0,0.0
1781,82.0,120.0,120.0,1.0,0.0
1782,80.0,120.0,120.0,1.0,0.0
1783,83.0,120.0,120.0,1.0,0.0
1784,82.0,120.0,120.0,1.0,0.0
1785,85.0,120.0,120.0,1.0,0.0
1786,83.0,96.0,120.0,1.0,0.0
1787,87.0,264.0,90.0,1.0,0.0
1788,85.0,156.0,960.0,1.0,0.0
1789,54.0,120.0,240.0,5.0,0.0
1790,82.0,0.0,960.0,2.0,0.0
1791,78.0,0.0,960.0,2.0,0.0
1792,66.0,0.0,120.0,4.0,0.0
1793,65.0,120.0,120.0,4.0,0.0
1794,66.0,120.0,120.0,4.0,0.0
1795,70.0,120.0,120.0,4.0,0.0
1796,66.0,120.0,120.0,4.0,0.0
1797,65.0,120.0,120.0,4.0,0.0
1798,66.0,0.0,120.0,4.0,0.0
1799,61.0,36.0,150.0,5.0,0.0
1800,90.0,48.0,180.0,1.0,0.0
1801,66.0,156.0,120.0,4.0,0.0
1802,58.0,60.0,150.0,5.0,0.0
1803,61.0,264.0,90.0,4.0,0.0
1804,78.0,156.0,960.0,2.0,0.0
1805,73.0,0.0,960.0,2.0,0.0
1806,82.0,0.0,960.0,1.0,0.0
1807,54.0,0.0,240.0,5.0,0.0
1808,66.0,120.0,120.0,4.0,0.0
1809,65.0,120.0,120.0,4.0,0.0
1810,66.0,120.0,120.0,4.0,0.0
1811,70.0,120.0,120.0,4.0,0.0
1812,66.0,120.0,120.0,4.0,0.0
1813,65.0,120.0,120.0,4.0,0.0
1814,66.0,0.0,120.0,4.0,0.0
1815,61.0,36.0,150.0,5.0,0.0
1816,85.0,48.0,180.0,1.0,0.0
1817,66.0,156.0,120.0,4.0,0.0
1818,58.0,60.0,150.0,5.0,0.0
1819,61.0,180.0,90.0,4.0,0.0
1820,75.0,0.0,180.0,2.0,0.0
1821,78.0,48.0,180.0,1.0,0.0
1822,51.0,36.0,150.0,5.0,0.0
1823,70.0,0.0,180.0,2.0,0.0
1824,54.0,120.0,120.0,4.0,0.0
1825,58.0,96.0,120.0,4.0,0.0
1826,63.0,180.0,90.0,4.0,0.0
1827,47.0,36.0,150.0,5.0,0.0
1828,75.0,48.0,180.0,2.0,0.0
1829,71.0,0.0,180.0,2.0,0.0
1830,80.0,0.0,180.0,1.0,0.0
1831,51.0,120.0,120.0,4.0,0.0
1832,56.0,96.0,120.0,4.0,0.0
1833,59.0,180.0,90.0,4.0,0.0
1834,77.0,48.0,180.0,1.0,0.0
1835,68.0,0.0,180.0,2.0,0.0
1836,73.0,0.0,180.0,2.0,0.0
1837,71.0,0.0,180.0,2.0,0.0
1838,49.0,36.0,150.0,5.0,0.0
1839,53.0,120.0,120.0,4.0,0.0
1840,56.0,96.0,120.0,4.0,0.0
1841,61.0,180.0,90.0,4.0,0.0
1842,66.0,0.0,360.0,2.0,0.0
1843,42.0,84.0,150.0,5.0,0.0
1844,78.0,0.0,360.0,1.0,0.0
1845,73.0,0.0,360.0,2.0,0.0
1846,70.0,120.0,360.0,2.0,0.0
1847,54.0,120.0,120.0,4.0,0.0
1848,58.0,0.0,120.0,4.0,0.0
1849,54.0,156.0,120.0,4.0,0.0
1850,49.0,84.0,150.0,5.0,0.0
1851,54.0,156.0,120.0,4.0,0.0
1852,46.0,84.0,150.0,5.0,0.0
1853,49.0,240.0,120.0,4.0,0.0
1854,42.0,438.0,240.0,5.0,0.0
1855,73.0,0.0,360.0,2.0,0.0
1856,77.0,78.0,360.0,2.0,0.0
1857,80.0,0.0,360.0,1.0,0.0
1858,49.0,120.0,90.0,5.0,0.0
1859,51.0,42.0,90.0,5.0,0.0
1860,53.0,120.0,90.0,5.0,0.0
1861,54.0,120.0,90.0,5.0,0.0
1862,77.0,0.0,360.0,2.0,0.0
1863,73.0,78.0,360.0,2.0,0.0
1864,80.0,0.0,360.0,1.0,0.0
1865,56.0,120.0,90.0,5.0,0.0
1866,58.0,42.0,90.0,5.0,0.0
1867,60.0,120.0,90.0,5.0,0.0
1868,80.0,78.0,360.0,1.0,0.0
1869,73.0,0.0,360.0,2.0,0.0
1870,77.0,0.0,360.0,2.0,0.0
1871,61.0,120.0,90.0,5.0,0.0
1872,63.0,120.0,90.0,5.0,0.0
1873,65.0,42.0,90.0,5.0,0.0
1874,66.0,162.0,90.0,5.0,0.0
1875,68.0,120.0,120.0,5.0,0.0
1876,80.0,120.0,840.0,1.0,0.0
1877,77.0,0.0,840.0,2.0,0.0
1878,73.0,0.0,840.0,2.0,0.0
1879,66.0,120.0,120.0,5.0,0.0
1880,65.0,120.0,120.0,5.0,0.0
1881,63.0,120.0,120.0,5.0,0.0
1882,61.0,120.0,120.0,5.0,0.0
1883,59.0,120.0,120.0,5.0,0.0
1884,58.0,0.0,120.0,5.0,0.0
1885,78.0,0.0,120.0,2.0,0.0
1886,56.0,120.0,120.0,5.0,0.0
1887,82.0,0.0,120.0,1.0,0.0
1888,80.0,0.0,180.0,2.0,0.0
1889,54.0,72.0,120.0,5.0,0.0
1890,83.0,48.0,180.0,1.0,0.0
1891,53.0,120.0,120.0,5.0,0.0
1892,51.0,78.0,120.0,5.0,0.0
1893,49.0,240.0,90.0,5.0,0.0
1894,78.0,0.0,360.0,2.0,0.0
1895,82.0,78.0,360.0,1.0,0.0
1896,73.0,0.0,360.0,2.0,0.0
1897,54.0,120.0,90.0,5.0,0.0
1898,56.0,42.0,90.0,5.0,0.0
1899,58.0,120.0,90.0,5.0,0.0
1900,73.0,78.0,360.0,2.0,0.0
1901,78.0,0.0,360.0,2.0,0.0
1902,59.0,120.0,90.0,5.0,0.0
1903,82.0,0.0,360.0,1.0,0.0
1904,61.0,120.0,90.0,5.0,0.0
1905,63.0,42.0,90.0,5.0,0.0
1906,65.0,120.0,90.0,5.0,0.0
1907,82.0,78.0,360.0,1.0,0.0
1908,73.0,0.0,360.0,2.0,0.0
1909,66.0,120.0,90.0,5.0,0.0
1910,78.0,0.0,360.0,2.0,0.0
1911,68.0,120.0,90.0,5.0,0.0
1912,70.0,42.0,90.0,5.0,0.0
1913,71.0,148.0,90.0,5.0,0.0
1914,82.0,0.0,840.0,1.0,0.0
1915,78.0,0.0,840.0,2.0,0.0
1916,73.0,134.0,120.0,5.0,0.0
1917,71.0,120.0,120.0,5.0,0.0
1918,70.0,120.0,120.0,5.0,0.0
1919,68.0,120.0,120.0,5.0,0.0
1920,66.0,120.0,120.0,5.0,0.0
1921,65.0,120.0,120.0,5.0,0.0
1922,63.0,120.0,120.0,5.0,0.0
1923,83.0,120.0,120.0,1.0,0.0
1924,61.0,0.0,120.0,5.0,0.0
1925,80.0,0.0,120.0,2.0,0.0
1926,59.0,72.0,120.0,5.0,0.0
1927,82.0,0.0,180.0,2.0,0.0
1928,85.0,48.0,180.0,1.0,0.0
1929,58.0,120.0,120.0,5.0,0.0
1930,56.0,96.0,120.0,5.0,0.0
1931,54.0,264.0,90.0,5.0,0.0
1932,90.0,156.0,480.0,1.0,0.0
1933,66.0,156.0,120.0,4.0,0.0
1934,65.0,84.0,150.0,5.0,0.0
1935,66.0,0.0,120.0,4.0,0.0
1936,64.0,0.0,150.0,5.0,0.0
1937,82.0,84.0,150.0,1.0,0.0
1938,66.0,156.0,120.0,4.0,0.0
1939,83.0,0.0,150.0,1.0,0.0
1940,63.0,84.0,150.0,5.0,0.0
1941,66.0,156.0,120.0,4.0,0.0
1942,85.0,0.0,150.0,1.0,0.0
1943,61.0,84.0,150.0,5.0,0.0
1944,66.0,156.0,120.0,4.0,0.0
1945,87.0,84.0,150.0,1.0,0.0
1946,59.0,0.0,150.0,5.0,0.0
1947,66.0,156.0,120.0,4.0,0.0
1948,85.0,36.0,360.0,1.0,0.0
1949,58.0,84.0,150.0,5.0,0.0
1950,66.0,120.0,120.0,4.0,0.0
1951,65.0,84.0,150.0,5.0,0.0
1952,90.0,0.0,120.0,1.0,0.0
1953,66.0,156.0,120.0,4.0,0.0
1954,82.0,0.0,150.0,1.0,0.0
1955,64.0,84.0,150.0,5.0,0.0
1956,66.0,156.0,120.0,4.0,0.0
1957,83.0,0.0,150.0,1.0,0.0
1958,63.0,84.0,150.0,5.0,0.0
1959,66.0,156.0,120.0,4.0,0.0
1960,85.0,84.0,150.0,1.0,0.0
1961,61.0,0.0,150.0,5.0,0.0
1962,66.0,156.0,120.0,4.0,0.0
1963,59.0,0.0,150.0,5.0,0.0
1964,87.0,84.0,150.0,1.0,0.0
1965,66.0,156.0,120.0,4.0,0.0
1966,58.0,84.0,150.0,5.0,0.0
1967,87.0,0.0,240.0,1.0,0.0
1968,66.0,120.0,120.0,4.0,0.0
1969,85.0,0.0,120.0,1.0,0.0
1970,61.0,120.0,120.0,4.0,0.0
1971,66.0,156.0,120.0,4.0,0.0
1972,56.0,84.0,150.0,5.0,0.0
1973,85.0,0.0,240.0,1.0,0.0
1974,65.0,120.0,120.0,4.0,0.0
1975,83.0,120.0,120.0,1.0,0.0
1976,61.0,0.0,120.0,4.0,0.0
1977,65.0,156.0,120.0,4.0,0.0
1978,83.0,120.0,240.0,1.0,0.0
1979,54.0,84.0,150.0,5.0,0.0
1980,66.0,0.0,120.0,4.0,0.0
1981,82.0,120.0,120.0,1.0,0.0
1982,61.0,0.0,120.0,4.0,0.0
1983,66.0,96.0,120.0,4.0,0.0
1984,65.0,0.0,360.0,4.0,0.0
1985,80.0,144.0,90.0,1.0,0.0
1986,61.0,0.0,360.0,5.0,0.0
1987,73.0,120.0,120.0,1.0,0.0
1988,75.0,120.0,120.0,1.0,0.0
1989,76.0,120.0,120.0,1.0,0.0
1990,77.0,120.0,120.0,1.0,0.0
1991,78.0,120.0,120.0,1.0,0.0
1992,79.0,120.0,120.0,1.0,0.0
1993,80.0,120.0,120.0,1.0,0.0
1994,81.0,120.0,120.0,1.0,0.0
1995,82.0,120.0,120.0,1.0,0.0
1996,83.0,96.0,120.0,1.0,0.0
1997,84.0,264.0,90.0,1.0,0.0
1998,82.0,0.0,960.0,2.0,0.0
1999,78.0,0.0,960.0,2.0,0.0
2000,54.0,0.0,240.0,5.0,0.0
2001,85.0,156.0,960.0,1.0,0.0
2002,66.0,120.0,120.0,4.0,0.0
2003,65.0,120.0,120.0,4.0,0.0
2004,66.0,120.0,120.0,4.0,0.0
2005,70.0,120.0,120.0,4.0,0.0
2006,66.0,120.0,120.0,4.0,0.0
2007,65.0,120.0,120.0,4.0,0.0
2008,66.0,0.0,120.0,4.0,0.0
2009,90.0,48.0,180.0,1.0,0.0
2010,61.0,36.0,150.0,5.0,0.0
2011,66.0,156.0,120.0,4.0,0.0
2012,58.0,60.0,150.0,5.0,0.0
2013,61.0,264.0,90.0,4.0,0.0
2014,54.0,120.0,240.0,5.0,0.0
2015,73.0,156.0,960.0,2.0,0.0
2016,78.0,0.0,960.0,2.0,0.0
2017,82.0,0.0,960.0,1.0,0.0
2018,66.0,0.0,120.0,4.0,0.0
2019,65.0,120.0,120.0,4.0,0.0
2020,66.0,120.0,120.0,4.0,0.0
2021,70.0,120.0,120.0,4.0,0.0
2022,66.0,120.0,120.0,4.0,0.0
2023,65.0,120.0,120.0,4.0,0.0
2024,66.0,0.0,120.0,4.0,0.0
2025,85.0,48.0,180.0,1.0,0.0
2026,61.0,36.0,150.0,5.0,0.0
2027,66.0,156.0,120.0,4.0,0.0
2028,58.0,60.0,150.0,5.0,0.0
2029,61.0,180.0,90.0,4.0,0.0
2030,51.0,36.0,150.0,5.0,0.0
2031,78.0,0.0,180.0,1.0,0.0
2032,75.0,0.0,180.0,2.0,0.0
2033,70.0,48.0,180.0,2.0,0.0
2034,54.0,120.0,120.0,4.0,0.0
2035,58.0,96.0,120.0,4.0,0.0
2036,63.0,180.0,90.0,4.0,0.0
2037,80.0,0.0,180.0,1.0,0.0
2038,78.0,0.0,180.0,2.0,0.0
2039,75.0,48.0,180.0,2.0,0.0
2040,47.0,36.0,150.0,5.0,0.0
2041,51.0,120.0,120.0,4.0,0.0
2042,56.0,96.0,120.0,4.0,0.0
2043,59.0,180.0,90.0,4.0,0.0
2044,73.0,0.0,180.0,2.0,0.0
2045,77.0,48.0,180.0,2.0,0.0
2046,80.0,0.0,180.0,2.0,0.0
2047,49.0,36.0,150.0,5.0,0.0
2048,83.0,0.0,180.0,1.0,0.0
2049,53.0,120.0,120.0,4.0,0.0
2050,56.0,96.0,120.0,4.0,0.0
2051,61.0,144.0,90.0,4.0,0.0
2052,54.0,120.0,360.0,5.0,0.0
2053,82.0,120.0,120.0,1.0,0.0
2054,78.0,120.0,120.0,1.0,0.0
2055,77.0,0.0,120.0,1.0,0.0
2056,80.0,120.0,120.0,1.0,0.0
2057,78.0,120.0,120.0,1.0,0.0
2058,82.0,120.0,120.0,1.0,0.0
2059,80.0,120.0,120.0,1.0,0.0
2060,83.0,120.0,120.0,1.0,0.0
2061,82.0,120.0,120.0,1.0,0.0
2062,85.0,120.0,120.0,1.0,0.0
2063,83.0,96.0,120.0,1.0,0.0
2064,87.0,264.0,90.0,1.0,0.0
2065,54.0,0.0,240.0,5.0,0.0
2066,82.0,0.0,960.0,2.0,0.0
2067,78.0,0.0,960.0,2.0,0.0
2068,85.0,156.0,960.0,1.0,0.0
2069,66.0,120.0,120.0,4.0,0.0
2070,65.0,120.0,120.0,4.0,0.0
2071,66.0,120.0,120.0,4.0,0.0
2072,70.0,120.0,120.0,4.0,0.0
2073,66.0,120.0,120.0,4.0,0.0
2074,65.0,120.0,120.0,4.0,0.0
2075,66.0,0.0,120.0,4.0,0.0
2076,90.0,48.0,180.0,1.0,0.0
2077,61.0,36.0,150.0,5.0,0.0
2078,66.0,156.0,120.0,4.0,0.0
2079,58.0,60.0,150.0,5.0,0.0
2080,61.0,264.0,90.0,4.0,0.0
2081,82.0,0.0,960.0,1.0,0.0
2082,54.0,0.0,240.0,5.0,0.0
2083,78.0,0.0,960.0,2.0,0.0
2084,73.0,156.0,960.0,2.0,0.0
2085,66.0,120.0,120.0,4.0,0.0
2086,65.0,120.0,120.0,4.0,0.0
2087,66.0,120.0,120.0,4.0,0.0
2088,70.0,120.0,120.0,4.0,0.0
2089,66.0,120.0,120.0,4.0,0.0
2090,65.0,120.0,120.0,4.0,0.0
2091,66.0,0.0,120.0,4.0,0.0
2092,61.0,36.0,150.0,5.0,0.0
2093,85.0,48.0,180.0,1.0,0.0
2094,66.0,156.0,120.0,4.0,0.0
2095,58.0,60.0,150.0,5.0,0.0
2096,61.0,180.0,90.0,4.0,0.0
2097,51.0,36.0,150.0,5.0,0.0
2098,75.0,0.0,180.0,2.0,0.0
2099,78.0,0.0,180.0,1.0,0.0
2100,70.0,48.0,180.0,2.0,0.0
2101,54.0,120.0,120.0,4.0,0.0
2102,58.0,96.0,120.0,4.0,0.0
2103,63.0,180.0,90.0,4.0,0.0
2104,47.0,36.0,150.0,5.0,0.0
2105,80.0,48.0,180.0,1.0,0.0
2106,71.0,0.0,180.0,2.0,0.0
2107,75.0,0.0,180.0,2.0,0.0
2108,51.0,120.0,120.0,4.0,0.0
2109,56.0,96.0,120.0,4.0,0.0
2110,59.0,180.0,90.0,4.0,0.0
2111,73.0,0.0,180.0,2.0,0.0
2112,68.0,0.0,180.0,2.0,0.0
2113,71.0,48.0,180.0,2.0,0.0
2114,49.0,36.0,150.0,5.0,0.0
2115,77.0,0.0,180.0,1.0,0.0
2116,53.0,120.0,120.0,4.0,0.0
2117,56.0,96.0,120.0,4.0,0.0
2118,61.0,180.0,90.0,4.0,0.0
2119,42.0,84.0,150.0,5.0,0.0
2120,73.0,0.0,360.0,2.0,0.0
2121,70.0,0.0,360.0,2.0,0.0
2122,66.0,0.0,360.0,2.0,0.0
2123,78.0,0.0,360.0,1.0,0.0
2124,54.0,120.0,120.0,4.0,0.0
2125,58.0,120.0,120.0,4.0,0.0
2126,54.0,156.0,120.0,4.0,0.0
2127,49.0,84.0,150.0,5.0,0.0
2128,54.0,156.0,120.0,4.0,0.0
2129,46.0,84.0,150.0,5.0,0.0
2130,49.0,96.0,120.0,4.0,0.0
2131,42.0,264.0,90.0,5.0,0.0
2132,73.0,60.0,60.0,2.0,0.0
2133,78.0,60.0,60.0,2.0,0.0
2134,82.0,240.0,60.0,2.0,0.0
2135,85.0,144.0,570.0,1.0,0.0
2136,54.0,120.0,120.0,5.0,0.0
2137,58.0,120.0,120.0,5.0,0.0
2138,61.0,96.0,120.0,5.0,0.0
2139,66.0,0.0,480.0,5.0,0.0
2140,73.0,120.0,120.0,1.0,0.0
2141,78.0,120.0,120.0,1.0,0.0
2142,82.0,78.0,120.0,1.0,0.0
2143,85.0,120.0,90.0,1.0,0.0
2144,82.0,120.0,90.0,1.0,0.0
2145,90.0,120.0,90.0,1.0,0.0
2146,90.0,282.0,90.0,1.0,0.0
2147,82.0,144.0,570.0,1.0,0.0
2148,42.0,120.0,120.0,5.0,0.0
2149,46.0,120.0,120.0,5.0,0.0
2150,49.0,96.0,120.0,5.0,0.0
2151,54.0,0.0,480.0,5.0,0.0
2152,70.0,120.0,120.0,1.0,0.0
2153,73.0,120.0,120.0,1.0,0.0
2154,78.0,78.0,120.0,1.0,0.0
2155,82.0,120.0,90.0,1.0,0.0
2156,78.0,120.0,90.0,1.0,0.0
2157,85.0,120.0,90.0,1.0,0.0
2158,85.0,234.0,90.0,1.0,0.0
2159,63.0,6.0,180.0,5.0,0.0
2160,70.0,162.0,90.0,1.0,0.0
2161,75.0,78.0,120.0,1.0,0.0
2162,78.0,234.0,90.0,1.0,0.0
2163,59.0,6.0,180.0,5.0,0.0
2164,71.0,162.0,90.0,1.0,0.0
2165,75.0,78.0,120.0,1.0,0.0
2166,80.0,234.0,90.0,1.0,0.0
2167,61.0,6.0,180.0,5.0,0.0
2168,68.0,162.0,90.0,1.0,0.0
2169,71.0,78.0,120.0,1.0,0.0
2170,77.0,138.0,90.0,1.0,0.0
2171,54.0,120.0,360.0,5.0,0.0
2172,78.0,144.0,90.0,1.0,0.0
2173,66.0,120.0,120.0,1.0,0.0
2174,68.0,0.0,120.0,1.0,0.0
2175,70.0,120.0,120.0,1.0,0.0
2176,71.0,120.0,120.0,1.0,0.0
2177,73.0,120.0,120.0,1.0,0.0
2178,75.0,120.0,120.0,1.0,0.0
2179,77.0,120.0,120.0,1.0,0.0
2180,78.0,120.0,120.0,1.0,0.0
2181,80.0,120.0,120.0,1.0,0.0
2182,82.0,96.0,120.0,1.0,0.0
2183,83.0,264.0,90.0,1.0,0.0
2184,85.0,144.0,570.0,1.0,0.0
2185,42.0,120.0,120.0,5.0,0.0
2186,46.0,120.0,120.0,5.0,0.0
2187,49.0,96.0,120.0,5.0,0.0
2188,54.0,0.0,480.0,5.0,0.0
2189,73.0,120.0,120.0,1.0,0.0
2190,78.0,120.0,120.0,1.0,0.0
2191,82.0,78.0,120.0,1.0,0.0
2192,85.0,120.0,90.0,1.0,0.0
2193,82.0,120.0,90.0,1.0,0.0
2194,90.0,120.0,90.0,1.0,0.0
2195,90.0,282.0,90.0,1.0,0.0
2196,82.0,144.0,570.0,1.0,0.0
2197,54.0,120.0,120.0,5.0,0.0
2198,58.0,120.0,120.0,5.0,0.0
2199,61.0,96.0,120.0,5.0,0.0
2200,66.0,78.0,480.0,5.0,0.0
2201,70.0,120.0,120.0,1.0,0.0
2202,73.0,120.0,120.0,1.0,0.0
2203,78.0,0.0,120.0,1.0,0.0
2204,82.0,120.0,90.0,1.0,0.0
2205,78.0,120.0,90.0,1.0,0.0
2206,85.0,120.0,90.0,1.0,0.0
2207,85.0,234.0,90.0,1.0,0.0
2208,78.0,6.0,180.0,1.0,0.0
2209,51.0,162.0,90.0,5.0,0.0
2210,54.0,78.0,120.0,5.0,0.0
2211,63.0,234.0,90.0,5.0,0.0
2212,80.0,0.0,180.0,1.0,0.0
2213,71.0,6.0,180.0,2.0,0.0
2214,47.0,162.0,90.0,5.0,0.0
2215,51.0,78.0,120.0,5.0,0.0
2216,59.0,234.0,90.0,5.0,0.0
2217,77.0,6.0,180.0,1.0,0.0
2218,68.0,0.0,180.0,2.0,0.0
2219,49.0,162.0,90.0,5.0,0.0
2220,53.0,78.0,120.0,5.0,0.0
2221,61.0,282.0,90.0,5.0,0.0
2222,78.0,0.0,360.0,1.0,0.0
2223,70.0,0.0,360.0,2.0,0.0
2224,54.0,120.0,120.0,5.0,0.0
2225,58.0,120.0,120.0,5.0,0.0
2226,54.0,120.0,120.0,5.0,0.0
2227,49.0,120.0,120.0,5.0,0.0
2228,54.0,120.0,120.0,5.0,0.0
2229,46.0,120.0,120.0,5.0,0.0
2230,49.0,360.0,120.0,5.0,0.0
2231,42.0,60.0,360.0,5.0,0.0
2232,73.0,0.0,60.0,2.0,0.0
2233,78.0,60.0,60.0,2.0,0.0
2234,82.0,240.0,60.0,2.0,0.0
2235,85.0,144.0,570.0,1.0,0.0
2236,54.0,120.0,120.0,5.0,0.0
2237,58.0,120.0,120.0,5.0,0.0
2238,61.0,96.0,120.0,5.0,0.0
2239,66.0,78.0,480.0,5.0,0.0
2240,73.0,120.0,120.0,1.0,0.0
2241,78.0,120.0,120.0,1.0,0.0
2242,82.0,0.0,120.0,1.0,0.0
2243,85.0,120.0,90.0,1.0,0.0
2244,82.0,120.0,90.0,1.0,0.0
2245,90.0,120.0,90.0,1.0,0.0
2246,90.0,282.0,90.0,1.0,0.0
2247,82.0,144.0,570.0,1.0,0.0
2248,42.0,120.0,120.0,5.0,0.0
2249,46.0,120.0,120.0,5.0,0.0
2250,49.0,96.0,120.0,5.0,0.0
2251,54.0,0.0,480.0,5.0,0.0
2252,70.0,120.0,120.0,1.0,0.0
2253,73.0,120.0,120.0,1.0,0.0
2254,78.0,78.0,120.0,1.0,0.0
2255,82.0,120.0,90.0,1.0,0.0
2256,78.0,120.0,90.0,1.0,0.0
2257,85.0,120.0,90.0,1.0,0.0
2258,85.0,234.0,90.0,1.0,0.0
2259,63.0,6.0,180.0,5.0,0.0
2260,70.0,162.0,90.0,1.0,0.0
2261,75.0,78.0,120.0,1.0,0.0
2262,78.0,234.0,90.0,1.0,0.0
2263,59.0,6.0,180.0,5.0,0.0
2264,71.0,162.0,90.0,1.0,0.0
2265,75.0,78.0,120.0,1.0,0.0
2266,80.0,234.0,90.0,1.0,0.0
2267,61.0,6.0,180.0,5.0,0.0
2268,68.0,162.0,90.0,1.0,0.0
2269,71.0,78.0,120.0,1.0,0.0
2270,77.0,138.0,90.0,1.0,0.0
2271,78.0,144.0,90.0,1.0,0.0
2272,54.0,120.0,360.0,5.0,0.0
2273,66.0,120.0,120.0,1.0,0.0
2274,68.0,0.0,120.0,1.0,0.0
2275,70.0,120.0,120.0,1.0,0.0
2276,71.0,120.0,120.0,1.0,0.0
2277,73.0,120.0,120.0,1.0,0.0
2278,75.0,120.0,120.0,1.0,0.0
2279,77.0,120.0,120.0,1.0,0.0
2280,78.0,120.0,120.0,1.0,0.0
2281,80.0,120.0,120.0,1.0,0.0
2282,82.0,96.0,120.0,1.0,0.0
2283,83.0,264.0,90.0,1.0,0.0
2284,85.0,144.0,570.0,1.0,0.0
2285,42.0,120.0,120.0,5.0,0.0
2286,46.0,120.0,120.0,5.0,0.0
2287,49.0,96.0,120.0,5.0,0.0
2288,54.0,0.0,480.0,5.0,0.0
2289,73.0,120.0,120.0,1.0,0.0
2290,78.0,120.0,120.0,1.0,0.0
2291,82.0,78.0,120.0,1.0,0.0
2292,85.0,120.0,90.0,1.0,0.0
2293,82.0,120.0,90.0,1.0,0.0
2294,90.0,120.0,90.0,1.0,0.0
2295,90.0,282.0,90.0,1.0,0.0
2296,82.0,144.0,570.0,1.0,0.0
2297,54.0,120.0,120.0,5.0,0.0
2298,58.0,120.0,120.0,5.0,0.0
2299,61.0,96.0,120.0,5.0,0.0
2300,66.0,0.0,480.0,5.0,0.0
2301,70.0,120.0,120.0,1.0,0.0
2302,73.0,120.0,120.0,1.0,0.0
2303,78.0,78.0,120.0,1.0,0.0
2304,82.0,120.0,90.0,1.0,0.0
2305,78.0,120.0,90.0,1.0,0.0
2306,85.0,120.0,90.0,1.0,0.0
2307,85.0,234.0,90.0,1.0,0.0
2308,78.0,6.0,180.0,1.0,0.0
2309,51.0,162.0,90.0,5.0,0.0
2310,54.0,78.0,120.0,5.0,0.0
2311,63.0,234.0,90.0,5.0,0.0
2312,71.0,0.0,180.0,2.0,0.0
2313,80.0,6.0,180.0,1.0,0.0
2314,47.0,162.0,90.0,5.0,0.0
2315,51.0,78.0,120.0,5.0,0.0
2316,59.0,234.0,90.0,5.0,0.0
2317,68.0,0.0,180.0,2.0,0.0
2318,77.0,6.0,180.0,1.0,0.0
2319,49.0,162.0,90.0,5.0,0.0
2320,53.0,78.0,120.0,5.0,0.0
2321,61.0,282.0,90.0,5.0,0.0
2322,78.0,0.0,360.0,1.0,0.0
2323,70.0,120.0,360.0,2.0,0.0
2324,54.0,120.0,120.0,5.0,0.0
2325,58.0,0.0,120.0,5.0,0.0
2326,54.0,120.0,120.0,5.0,0.0
2327,49.0,120.0,120.0,5.0,0.0
2328,54.0,120.0,120.0,5.0,0.0
2329,46.0,120.0,120.0,5.0,0.0
2330,49.0,360.0,120.0,5.0,0.0
2331,42.0,360.0,360.0,5.0,0.0
2332,80.0,120.0,360.0,1.0,0.0
2333,73.0,0.0,360.0,2.0,0.0
2334,77.0,0.0,360.0,2.0,0.0
2335,37.0,120.0,120.0,5.0,0.0
2336,41.0,0.0,120.0,5.0,0.0
2337,44.0,240.0,120.0,5.0,0.0
2338,49.0,0.0,360.0,5.0,0.0
2339,65.0,120.0,120.0,1.0,0.0
2340,68.0,120.0,120.0,1.0,0.0
2341,73.0,240.0,120.0,1.0,0.0
2342,77.0,0.0,360.0,1.0,0.0
2343,61.0,120.0,120.0,5.0,0.0
2344,65.0,120.0,120.0,5.0,0.0
2345,68.0,240.0,120.0,5.0,0.0
2346,73.0,0.0,360.0,5.0,0.0
2347,80.0,120.0,120.0,1.0,0.0
2348,85.0,120.0,120.0,1.0,0.0
2349,89.0,120.0,120.0,1.0,0.0
2350,92.0,120.0,120.0,1.0,0.0
2351,90.0,120.0,120.0,1.0,0.0
2352,89.0,120.0,120.0,1.0,0.0
2353,87.0,120.0,120.0,1.0,0.0
2354,85.0,120.0,120.0,1.0,0.0
2355,83.0,120.0,120.0,1.0,0.0
2356,82.0,120.0,120.0,1.0,0.0
2357,80.0,240.0,120.0,1.0,0.0
2358,82.0,120.0,360.0,1.0,0.0
2359,42.0,120.0,120.0,5.0,0.0
2360,46.0,0.0,120.0,5.0,0.0
2361,49.0,240.0,120.0,5.0,0.0
2362,54.0,0.0,360.0,5.0,0.0
2363,70.0,120.0,120.0,1.0,0.0
2364,73.0,120.0,120.0,1.0,0.0
2365,78.0,240.0,120.0,1.0,0.0
2366,82.0,0.0,360.0,1.0,0.0
2367,66.0,120.0,120.0,5.0,0.0
2368,70.0,120.0,120.0,5.0,0.0
2369,73.0,240.0,120.0,5.0,0.0
2370,78.0,120.0,360.0,5.0,0.0
2371,85.0,120.0,120.0,1.0,0.0
2372,87.0,0.0,120.0,1.0,0.0
2373,89.0,120.0,120.0,1.0,0.0
2374,90.0,120.0,120.0,1.0,0.0
2375,89.0,120.0,120.0,1.0,0.0
2376,87.0,120.0,120.0,1.0,0.0
2377,85.0,120.0,120.0,1.0,0.0
2378,83.0,120.0,120.0,1.0,0.0
2379,82.0,120.0,120.0,1.0,0.0
2380,80.0,96.0,120.0,1.0,0.0
2381,78.0,144.0,90.0,1.0,0.0
2382,54.0,84.0,630.0,5.0,0.0
2383,85.0,84.0,150.0,1.0,0.0
2384,82.0,36.0,120.0,2.0,0.0
2385,78.0,156.0,120.0,2.0,0.0
2386,90.0,84.0,150.0,1.0,0.0
2387,78.0,120.0,120.0,2.0,0.0
2388,82.0,36.0,120.0,2.0,0.0
2389,85.0,0.0,150.0,1.0,0.0
2390,78.0,120.0,120.0,2.0,0.0
2391,87.0,0.0,150.0,1.0,0.0
2392,59.0,84.0,150.0,5.0,0.0
2393,83.0,36.0,120.0,2.0,0.0
2394,78.0,120.0,120.0,2.0,0.0
2395,54.0,0.0,150.0,5.0,0.0
2396,85.0,84.0,150.0,1.0,0.0
2397,82.0,36.0,120.0,2.0,0.0
2398,78.0,120.0,120.0,2.0,0.0
2399,59.0,60.0,150.0,5.0,0.0
2400,87.0,0.0,150.0,1.0,0.0
2401,83.0,36.0,120.0,2.0,0.0
2402,78.0,144.0,90.0,2.0,0.0
2403,82.0,36.0,120.0,2.0,0.0
2404,54.0,84.0,630.0,5.0,0.0
2405,85.0,84.0,150.0,1.0,0.0
2406,78.0,156.0,120.0,2.0,0.0
2407,90.0,84.0,150.0,1.0,0.0
2408,78.0,120.0,120.0,2.0,0.0
2409,82.0,36.0,120.0,2.0,0.0
2410,85.0,0.0,150.0,1.0,0.0
2411,78.0,120.0,120.0,2.0,0.0
2412,59.0,0.0,150.0,5.0,0.0
2413,83.0,36.0,120.0,2.0,0.0
2414,87.0,84.0,150.0,1.0,0.0
2415,78.0,120.0,120.0,2.0,0.0
2416,54.0,84.0,150.0,5.0,0.0
2417,85.0,0.0,150.0,1.0,0.0
2418,82.0,36.0,120.0,2.0,0.0
2419,78.0,120.0,120.0,2.0,0.0
2420,59.0,60.0,150.0,5.0,0.0
2421,83.0,36.0,120.0,2.0,0.0
2422,87.0,0.0,150.0,1.0,0.0
2423,78.0,180.0,90.0,2.0,0.0
2424,54.0,84.0,150.0,5.0,0.0
2425,85.0,0.0,150.0,1.0,0.0
2426,82.0,120.0,120.0,2.0,0.0
2427,61.0,0.0,120.0,4.0,0.0
2428,78.0,0.0,120.0,2.0,0.0
2429,58.0,96.0,120.0,4.0,0.0
2430,85.0,156.0,120.0,2.0,0.0
2431,61.0,24.0,90.0,4.0,0.0
2432,83.0,84.0,150.0,1.0,0.0
2433,53.0,0.0,150.0,5.0,0.0
2434,61.0,120.0,120.0,4.0,0.0
2435,80.0,0.0,120.0,2.0,0.0
2436,73.0,0.0,120.0,2.0,0.0
2437,56.0,96.0,120.0,4.0,0.0
2438,83.0,156.0,120.0,2.0,0.0
2439,61.0,24.0,90.0,4.0,0.0
2440,82.0,0.0,150.0,1.0,0.0
2441,54.0,84.0,150.0,5.0,0.0
2442,61.0,0.0,120.0,4.0,0.0
2443,78.0,120.0,120.0,2.0,0.0
2444,58.0,0.0,120.0,4.0,0.0
2445,73.0,96.0,120.0,2.0,0.0
2446,82.0,0.0,90.0,2.0,0.0
2447,61.0,180.0,90.0,4.0,0.0
2448,80.0,84.0,150.0,1.0,0.0
2449,49.0,36.0,360.0,5.0,0.0
2450,73.0,120.0,120.0,2.0,0.0
2451,77.0,84.0,150.0,1.0,0.0
2452,73.0,120.0,120.0,2.0,0.0
2453,78.0,48.0,180.0,1.0,0.0
2454,75.0,72.0,120.0,2.0,0.0
2455,73.0,120.0,120.0,2.0,0.0
2456,77.0,36.0,120.0,2.0,0.0
2457,80.0,84.0,150.0,1.0,0.0
2458,73.0,120.0,120.0,2.0,0.0
2459,82.0,84.0,150.0,1.0,0.0
2460,78.0,36.0,120.0,2.0,0.0
2461,73.0,120.0,120.0,2.0,0.0
2462,80.0,36.0,120.0,2.0,0.0
2463,83.0,60.0,150.0,1.0,0.0
2464,73.0,144.0,90.0,2.0,0.0
2465,73.0,60.0,60.0,2.0,0.0
2466,78.0,60.0,60.0,2.0,0.0
2467,82.0,240.0,60.0,2.0,0.0
2468,85.0,144.0,570.0,1.0,0.0
2469,54.0,120.0,120.0,5.0,0.0
2470,58.0,120.0,120.0,5.0,0.0
2471,61.0,96.0,120.0,5.0,0.0
2472,66.0,0.0,480.0,5.0,0.0
2473,73.0,120.0,120.0,1.0,0.0
2474,78.0,120.0,120.0,1.0,0.0
2475,82.0,78.0,120.0,1.0,0.0
2476,85.0,120.0,90.0,1.0,0.0
2477,82.0,120.0,90.0,1.0,0.0
2478,90.0,120.0,90.0,1.0,0.0
2479,90.0,282.0,90.0,1.0,0.0
2480,82.0,144.0,570.0,1.0,0.0
2481,42.0,120.0,120.0,5.0,0.0
2482,46.0,120.0,120.0,5.0,0.0
2483,49.0,96.0,120.0,5.0,0.0
2484,54.0,78.0,480.0,5.0,0.0
2485,70.0,120.0,120.0,1.0,0.0
2486,73.0,120.0,120.0,1.0,0.0
2487,78.0,0.0,120.0,1.0,0.0
2488,82.0,120.0,90.0,1.0,0.0
2489,78.0,120.0,90.0,1.0,0.0
2490,85.0,120.0,90.0,1.0,0.0
2491,85.0,234.0,90.0,1.0,0.0
2492,63.0,6.0,180.0,5.0,0.0
2493,70.0,162.0,90.0,1.0,0.0
2494,75.0,78.0,120.0,1.0,0.0
2495,78.0,234.0,90.0,1.0,0.0
2496,59.0,6.0,180.0,5.0,0.0
2497,71.0,162.0,90.0,1.0,0.0
2498,75.0,78.0,120.0,1.0,0.0
2499,80.0,234.0,90.0,1.0,0.0
2500,61.0,6.0,180.0,5.0,0.0
2501,68.0,162.0,90.0,1.0,0.0
2502,71.0,78.0,120.0,1.0,0.0
2503,77.0,138.0,90.0,1.0,0.0
2504,78.0,144.0,90.0,1.0,0.0
2505,54.0,120.0,360.0,5.0,0.0
2506,66.0,120.0,120.0,1.0,0.0
2507,68.0,0.0,120.0,1.0,0.0
2508,70.0,120.0,120.0,1.0,0.0
2509,71.0,120.0,120.0,1.0,0.0
2510,73.0,120.0,120.0,1.0,0.0
2511,75.0,120.0,120.0,1.0,0.0
2512,77.0,120.0,120.0,1.0,0.0
2513,78.0,120.0,120.0,1.0,0.0
2514,80.0,120.0,120.0,1.0,0.0
2515,82.0,96.0,120.0,1.0,0.0
2516,83.0,264.0,90.0,1.0,0.0
2517,85.0,144.0,570.0,1.0,0.0
2518,54.0,120.0,120.0,5.0,0.0
2519,58.0,120.0,120.0,5.0,0.0
2520,61.0,96.0,120.0,5.0,0.0
2521,66.0,0.0,480.0,5.0,0.0
2522,73.0,120.0,120.0,1.0,0.0
2523,78.0,120.0,120.0,1.0,0.0
2524,82.0,78.0,120.0,1.0,0.0
2525,85.0,120.0,90.0,1.0,0.0
2526,82.0,120.0,90.0,1.0,0.0
2527,90.0,120.0,90.0,1.0,0.0
2528,90.0,282.0,90.0,1.0,0.0
2529,82.0,144.0,570.0,1.0,0.0
2530,42.0,120.0,120.0,5.0,0.0
2531,46.0,120.0,120.0,5.0,0.0
2532,49.0,96.0,120.0,5.0,0.0
2533,54.0,78.0,480.0,5.0,0.0
2534,70.0,120.0,120.0,1.0,0.0
2535,73.0,120.0,120.0,1.0,0.0
2536,78.0,0.0,120.0,1.0,0.0
2537,82.0,120.0,90.0,1.0,0.0
2538,78.0,120.0,90.0,1.0,0.0
2539,85.0,120.0,90.0,1.0,0.0
2540,85.0,234.0,90.0,1.0,0.0
2541,78.0,6.0,180.0,1.0,0.0
2542,51.0,162.0,90.0,5.0,0.0
2543,54.0,78.0,120.0,5.0,0.0
2544,63.0,234.0,90.0,5.0,0.0
2545,80.0,0.0,180.0,1.0,0.0
2546,71.0,6.0,180.0,2.0,0.0
2547,47.0,162.0,90.0,5.0,0.0
2548,51.0,78.0,120.0,5.0,0.0
2549,59.0,234.0,90.0,5.0,0.0
2550,77.0,0.0,180.0,1.0,0.0
2551,68.0,6.0,180.0,2.0,0.0
2552,49.0,162.0,90.0,5.0,0.0
2553,53.0,78.0,120.0,5.0,0.0
2554,61.0,282.0,90.0,5.0,0.0
2555,78.0,120.0,360.0,1.0,0.0
2556,70.0,0.0,360.0,2.0,0.0
2557,54.0,120.0,120.0,5.0,0.0
2558,58.0,0.0,120.0,5.0,0.0
2559,54.0,120.0,120.0,5.0,0.0
2560,49.0,120.0,120.0,5.0,0.0
2561,54.0,120.0,120.0,5.0,0.0
2562,46.0,120.0,120.0,5.0,0.0
2563,49.0,247.0,120.0,5.0,0.0
2564,42.0,473.0,240.0,5.0,0.0
2565,77.0,120.0,360.0,2.0,0.0
2566,73.0,0.0,360.0,2.0,0.0
2567,80.0,0.0,360.0,1.0,0.0
2568,37.0,120.0,120.0,5.0,0.0
2569,41.0,0.0,120.0,5.0,0.0
2570,44.0,240.0,120.0,5.0,0.0
2571,49.0,0.0,360.0,5.0,0.0
2572,65.0,120.0,120.0,1.0,0.0
2573,68.0,120.0,120.0,1.0,0.0
2574,73.0,240.0,120.0,1.0,0.0
2575,77.0,0.0,360.0,1.0,0.0
2576,61.0,120.0,120.0,5.0,0.0
2577,65.0,120.0,120.0,5.0,0.0
2578,68.0,240.0,120.0,5.0,0.0
2579,73.0,120.0,360.0,5.0,0.0
2580,80.0,120.0,120.0,1.0,0.0
2581,85.0,0.0,120.0,1.0,0.0
2582,89.0,120.0,120.0,1.0,0.0
2583,92.0,120.0,120.0,1.0,0.0
2584,90.0,120.0,120.0,1.0,0.0
2585,89.0,120.0,120.0,1.0,0.0
2586,87.0,120.0,120.0,1.0,0.0
2587,85.0,120.0,120.0,1.0,0.0
2588,83.0,120.0,120.0,1.0,0.0
2589,82.0,120.0,120.0,1.0,0.0
2590,80.0,240.0,120.0,1.0,0.0
2591,82.0,0.0,360.0,1.0,0.0
2592,42.0,120.0,120.0,5.0,0.0
2593,46.0,120.0,120.0,5.0,0.0
2594,49.0,240.0,120.0,5.0,0.0
2595,54.0,120.0,360.0,5.0,0.0
2596,70.0,120.0,120.0,1.0,0.0
2597,73.0,0.0,120.0,1.0,0.0
2598,78.0,240.0,120.0,1.0,0.0
2599,82.0,120.0,360.0,1.0,0.0
2600,66.0,120.0,120.0,5.0,0.0
2601,70.0,0.0,120.0,5.0,0.0
2602,73.0,240.0,120.0,5.0,0.0
2603,78.0,0.0,360.0,5.0,0.0
2604,85.0,120.0,120.0,1.0,0.0
2605,87.0,120.0,120.0,1.0,0.0
2606,89.0,120.0,120.0,1.0,0.0
2607,90.0,120.0,120.0,1.0,0.0
2608,89.0,120.0,120.0,1.0,0.0
2609,87.0,120.0,120.0,1.0,0.0
2610,85.0,120.0,120.0,1.0,0.0
2611,83.0,120.0,120.0,1.0,0.0
2612,82.0,120.0,120.0,1.0,0.0
2613,80.0,96.0,120.0,1.0,0.0
2614,78.0,144.0,90.0,1.0,0.0
2615,54.0,0.0,630.0,5.0,0.0
2616,82.0,36.0,120.0,2.0,0.0
2617,85.0,84.0,150.0,1.0,0.0
2618,78.0,156.0,120.0,2.0,0.0
2619,90.0,84.0,150.0,1.0,0.0
2620,78.0,120.0,120.0,2.0,0.0
2621,82.0,36.0,120.0,2.0,0.0
2622,85.0,84.0,150.0,1.0,0.0
2623,78.0,120.0,120.0,2.0,0.0
2624,87.0,84.0,150.0,1.0,0.0
2625,83.0,36.0,120.0,2.0,0.0
2626,59.0,0.0,150.0,5.0,0.0
2627,78.0,120.0,120.0,2.0,0.0
2628,82.0,36.0,120.0,2.0,0.0
2629,85.0,84.0,150.0,1.0,0.0
2630,54.0,0.0,150.0,5.0,0.0
2631,78.0,120.0,120.0,2.0,0.0
2632,59.0,60.0,150.0,5.0,0.0
2633,87.0,0.0,150.0,1.0,0.0
2634,83.0,36.0,120.0,2.0,0.0
2635,78.0,144.0,90.0,2.0,0.0
2636,82.0,36.0,120.0,2.0,0.0
2637,85.0,84.0,150.0,1.0,0.0
2638,54.0,84.0,630.0,5.0,0.0
2639,78.0,156.0,120.0,2.0,0.0
2640,90.0,84.0,150.0,1.0,0.0
2641,78.0,120.0,120.0,2.0,0.0
2642,82.0,36.0,120.0,2.0,0.0
2643,85.0,0.0,150.0,1.0,0.0
2644,78.0,120.0,120.0,2.0,0.0
2645,83.0,36.0,120.0,2.0,0.0
2646,87.0,84.0,150.0,1.0,0.0
2647,59.0,0.0,150.0,5.0,0.0
2648,78.0,120.0,120.0,2.0,0.0
2649,82.0,36.0,120.0,2.0,0.0
2650,54.0,0.0,150.0,5.0,0.0
2651,85.0,84.0,150.0,1.0,0.0
2652,78.0,120.0,120.0,2.0,0.0
2653,83.0,36.0,120.0,2.0,0.0
2654,87.0,0.0,150.0,1.0,0.0
2655,59.0,60.0,150.0,5.0,0.0
2656,78.0,180.0,90.0,2.0,0.0
2657,85.0,0.0,150.0,1.0,0.0
2658,54.0,84.0,150.0,5.0,0.0
2659,82.0,120.0,120.0,2.0,0.0
2660,61.0,0.0,120.0,4.0,0.0
2661,58.0,0.0,120.0,4.0,0.0
2662,78.0,96.0,120.0,2.0,0.0
2663,61.0,24.0,90.0,4.0,0.0
2664,85.0,156.0,120.0,2.0,0.0
2665,53.0,0.0,150.0,5.0,0.0
2666,83.0,84.0,150.0,1.0,0.0
2667,61.0,120.0,120.0,4.0,0.0
2668,80.0,0.0,120.0,2.0,0.0
2669,73.0,96.0,120.0,2.0,0.0
2670,56.0,0.0,120.0,4.0,0.0
2671,61.0,24.0,90.0,4.0,0.0
2672,83.0,156.0,120.0,2.0,0.0
2673,54.0,84.0,150.0,5.0,0.0
2674,82.0,0.0,150.0,1.0,0.0
2675,78.0,120.0,120.0,2.0,0.0
2676,61.0,0.0,120.0,4.0,0.0
2677,58.0,96.0,120.0,4.0,0.0
2678,73.0,0.0,120.0,2.0,0.0
2679,61.0,180.0,90.0,4.0,0.0
2680,82.0,0.0,90.0,2.0,0.0
2681,80.0,84.0,150.0,1.0,0.0
2682,49.0,36.0,360.0,5.0,0.0
2683,73.0,120.0,120.0,2.0,0.0
2684,77.0,84.0,150.0,1.0,0.0
2685,73.0,120.0,120.0,2.0,0.0
2686,75.0,72.0,120.0,2.0,0.0
2687,78.0,48.0,180.0,1.0,0.0
2688,73.0,120.0,120.0,2.0,0.0
2689,77.0,36.0,120.0,2.0,0.0
2690,80.0,84.0,150.0,1.0,0.0
2691,73.0,120.0,120.0,2.0,0.0
2692,78.0,36.0,120.0,2.0,0.0
2693,82.0,84.0,150.0,1.0,0.0
2694,73.0,120.0,120.0,2.0,0.0
2695,83.0,60.0,150.0,1.0,0.0
2696,80.0,36.0,120.0,2.0,0.0
2697,73.0,144.0,90.0,2.0,0.0
2698,73.0,60.0,60.0,2.0,0.0
2699,78.0,60.0,60.0,2.0,0.0
2700,82.0,240.0,60.0,2.0,0.0
2701,85.0,144.0,570.0,1.0,0.0
2702,54.0,120.0,120.0,5.0,0.0
2703,58.0,120.0,120.0,5.0,0.0
2704,61.0,96.0,120.0,5.0,0.0
2705,66.0,78.0,480.0,5.0,0.0
2706,73.0,120.0,120.0,1.0,0.0
2707,78.0,120.0,120.0,1.0,0.0
2708,82.0,0.0,120.0,1.0,0.0
2709,85.0,120.0,90.0,1.0,0.0
2710,82.0,120.0,90.0,1.0,0.0
2711,90.0,120.0,90.0,1.0,0.0
2712,90.0,282.0,90.0,1.0,0.0
2713,82.0,144.0,570.0,1.0,0.0
2714,42.0,120.0,120.0,5.0,0.0
2715,46.0,120.0,120.0,5.0,0.0
2716,49.0,96.0,120.0,5.0,0.0
2717,54.0,78.0,480.0,5.0,0.0
2718,70.0,120.0,120.0,1.0,0.0
2719,73.0,120.0,120.0,1.0,0.0
2720,78.0,0.0,120.0,1.0,0.0
2721,82.0,120.0,90.0,1.0,0.0
2722,78.0,120.0,90.0,1.0,0.0
2723,85.0,120.0,90.0,1.0,0.0
2724,85.0,234.0,90.0,1.0,0.0
2725,63.0,6.0,180.0,5.0,0.0
2726,70.0,162.0,90.0,1.0,0.0
2727,75.0,78.0,120.0,1.0,0.0
2728,78.0,234.0,90.0,1.0,0.0
2729,59.0,6.0,180.0,5.0,0.0
2730,71.0,162.0,90.0,1.0,0.0
2731,75.0,78.0,120.0,1.0,0.0
2732,80.0,234.0,90.0,1.0,0.0
2733,61.0,6.0,180.0,5.0,0.0
2734,68.0,162.0,90.0,1.0,0.0
2735,71.0,78.0,120.0,1.0,0.0
2736,77.0,138.0,90.0,1.0,0.0
2737,78.0,144.0,90.0,1.0,0.0
2738,54.0,0.0,360.0,5.0,0.0
2739,66.0,120.0,120.0,1.0,0.0
2740,68.0,120.0,120.0,1.0,0.0
2741,70.0,120.0,120.0,1.0,0.0
2742,71.0,120.0,120.0,1.0,0.0
2743,73.0,120.0,120.0,1.0,0.0
2744,75.0,120.0,120.0,1.0,0.0
2745,77.0,120.0,120.0,1.0,0.0
2746,78.0,120.0,120.0,1.0,0.0
2747,80.0,120.0,120.0,1.0,0.0
2748,82.0,96.0,120.0,1.0,0.0
2749,83.0,264.0,90.0,1.0,0.0
2750,85.0,144.0,570.0,1.0,0.0
2751,54.0,120.0,120.0,5.0,0.0
2752,58.0,120.0,120.0,5.0,0.0
2753,61.0,96.0,120.0,5.0,0.0
2754,66.0,78.0,480.0,5.0,0.0
2755,73.0,120.0,120.0,1.0,0.0
2756,78.0,120.0,120.0,1.0,0.0
2757,82.0,0.0,120.0,1.0,0.0
2758,85.0,120.0,90.0,1.0,0.0
2759,82.0,120.0,90.0,1.0,0.0
2760,90.0,120.0,90.0,1.0,0.0
2761,90.0,282.0,90.0,1.0,0.0
2762,82.0,144.0,570.0,1.0,0.0
2763,42.0,120.0,120.0,5.0,0.0
2764,46.0,120.0,120.0,5.0,0.0
2765,49.0,96.0,120.0,5.0,0.0
2766,54.0,0.0,480.0,5.0,0.0
2767,70.0,120.0,120.0,1.0,0.0
2768,73.0,120.0,120.0,1.0,0.0
2769,78.0,78.0,120.0,1.0,0.0
2770,82.0,120.0,90.0,1.0,0.0
2771,78.0,120.0,90.0,1.0,0.0
2772,85.0,120.0,90.0,1.0,0.0
2773,85.0,234.0,90.0,1.0,0.0
2774,78.0,6.0,180.0,1.0,0.0
2775,51.0,162.0,90.0,5.0,0.0
2776,54.0,78.0,120.0,5.0,0.0
2777,63.0,234.0,90.0,5.0,0.0
2778,80.0,6.0,180.0,1.0,0.0
2779,71.0,0.0,180.0,2.0,0.0
2780,47.0,162.0,90.0,5.0,0.0
2781,51.0,78.0,120.0,5.0,0.0
2782,59.0,234.0,90.0,5.0,0.0
2783,77.0,0.0,180.0,1.0,0.0
2784,68.0,6.0,180.0,2.0,0.0
2785,49.0,162.0,90.0,5.0,0.0
2786,53.0,78.0,120.0,5.0,0.0
2787,61.0,282.0,90.0,5.0,0.0
2788,70.0,0.0,360.0,2.0,0.0
2789,78.0,0.0,360.0,1.0,0.0
2790,54.0,120.0,120.0,5.0,0.0
2791,58.0,120.0,120.0,5.0,0.0
2792,54.0,120.0,120.0,5.0,0.0
2793,49.0,120.0,120.0,5.0,0.0
2794,54.0,120.0,120.0,5.0,0.0
2795,46.0,120.0,120.0,5.0,0.0
2796,49.0,247.0,120.0,5.0,0.0
2797,42.0,1353.0,240.0,5.0,0.0
2798,66.0,64.0,360.0,5.0,0.0
2799,85.0,0.0,150.0,1.0,0.0
2800,82.0,160.0,150.0,2.0,0.0
2801,83.0,0.0,150.0,1.0,0.0
2802,80.0,40.0,150.0,2.0,0.0
2803,82.0,0.0,90.0,1.0,0.0
2804,78.0,160.0,90.0,2.0,0.0
2805,82.0,160.0,90.0,1.0,0.0
2806,78.0,0.0,90.0,2.0,0.0
2807,78.0,0.0,90.0,2.0,0.0
2808,82.0,160.0,90.0,1.0,0.0
2809,78.0,0.0,90.0,2.0,0.0
2810,82.0,160.0,90.0,1.0,0.0
2811,82.0,0.0,90.0,1.0,0.0
2812,78.0,160.0,90.0,2.0,0.0
2813,82.0,160.0,90.0,1.0,0.0
2814,78.0,0.0,90.0,2.0,0.0
2815,78.0,0.0,90.0,2.0,0.0
2816,82.0,216.0,90.0,1.0,0.0
2817,73.0,0.0,150.0,2.0,0.0
2818,54.0,64.0,360.0,5.0,0.0
2819,82.0,160.0,150.0,1.0,0.0
2820,80.0,0.0,150.0,1.0,0.0
2821,71.0,40.0,150.0,2.0,0.0
2822,78.0,160.0,90.0,1.0,0.0
2823,70.0,0.0,90.0,2.0,0.0
2824,78.0,160.0,90.0,1.0,0.0
2825,70.0,0.0,90.0,2.0,0.0
2826,78.0,0.0,90.0,1.0,0.0
2827,70.0,160.0,90.0,2.0,0.0
2828,78.0,160.0,90.0,1.0,0.0
2829,70.0,0.0,90.0,2.0,0.0
2830,70.0,0.0,90.0,2.0,0.0
2831,78.0,160.0,90.0,1.0,0.0
2832,78.0,160.0,90.0,1.0,0.0
2833,70.0,0.0,90.0,2.0,0.0
2834,70.0,212.0,90.0,2.0,0.0
2835,78.0,0.0,90.0,1.0,0.0
2836,66.0,164.0,150.0,5.0,0.0
2837,70.0,0.0,150.0,2.0,0.0
2838,78.0,104.0,150.0,1.0,0.0
2839,73.0,212.0,90.0,2.0,0.0
2840,82.0,0.0,90.0,1.0,0.0
2841,59.0,164.0,150.0,5.0,0.0
2842,80.0,104.0,150.0,1.0,0.0
2843,71.0,0.0,150.0,2.0,0.0
2844,83.0,0.0,90.0,1.0,0.0
2845,75.0,212.0,90.0,2.0,0.0
2846,61.0,164.0,150.0,5.0,0.0
2847,68.0,104.0,150.0,2.0,0.0
2848,77.0,0.0,150.0,1.0,0.0
2849,80.0,160.0,90.0,1.0,0.0
2850,71.0,0.0,90.0,2.0,0.0
2851,78.0,0.0,90.0,1.0,0.0
2852,70.0,184.0,90.0,2.0,0.0
2853,54.0,88.0,360.0,5.0,0.0
2854,73.0,72.0,120.0,1.0,0.0
2855,75.0,160.0,120.0,1.0,0.0
2856,77.0,160.0,120.0,1.0,0.0
2857,78.0,160.0,120.0,1.0,0.0
2858,80.0,160.0,120.0,1.0,0.0
2859,82.0,160.0,120.0,1.0,0.0
2860,83.0,160.0,120.0,1.0,0.0
2861,84.0,192.0,120.0,1.0,0.0
2862,73.0,160.0,150.0,5.0,0.0
2863,85.0,24.0,720.0,1.0,0.0
2864,70.0,0.0,150.0,5.0,0.0
2865,68.0,104.0,150.0,5.0,0.0
2866,71.0,0.0,150.0,5.0,0.0
2867,70.0,160.0,90.0,5.0,0.0
2868,66.0,0.0,90.0,5.0,0.0
2869,70.0,136.0,90.0,5.0,0.0
2870,66.0,0.0,90.0,5.0,0.0
2871,66.0,0.0,90.0,5.0,0.0
2872,70.0,36.0,90.0,5.0,0.0
2873,87.0,60.0,60.0,1.0,0.0
2874,85.0,60.0,60.0,1.0,0.0
2875,66.0,0.0,90.0,5.0,0.0
2876,70.0,56.0,90.0,5.0,0.0
2877,84.0,4.0,60.0,1.0,0.0
2878,85.0,104.0,60.0,1.0,0.0
2879,70.0,0.0,90.0,5.0,0.0
2880,90.0,72.0,180.0,1.0,0.0
2881,66.0,88.0,90.0,5.0,0.0
2882,66.0,160.0,90.0,5.0,0.0
2883,70.0,0.0,90.0,5.0,0.0
2884,66.0,216.0,90.0,5.0,0.0
2885,70.0,0.0,90.0,5.0,0.0
2886,61.0,160.0,150.0,5.0,0.0
2887,70.0,0.0,150.0,5.0,0.0
2888,82.0,24.0,720.0,1.0,0.0
2889,68.0,0.0,150.0,5.0,0.0
2890,59.0,104.0,150.0,5.0,0.0
2891,58.0,160.0,90.0,5.0,0.0
2892,66.0,0.0,90.0,5.0,0.0
2893,66.0,136.0,90.0,5.0,0.0
2894,58.0,0.0,90.0,5.0,0.0
2895,66.0,0.0,90.0,5.0,0.0
2896,58.0,36.0,90.0,5.0,0.0
2897,83.0,60.0,60.0,1.0,0.0
2898,82.0,60.0,60.0,1.0,0.0
2899,66.0,56.0,90.0,5.0,0.0
2900,58.0,0.0,90.0,5.0,0.0
2901,80.0,4.0,60.0,1.0,0.0
2902,82.0,104.0,60.0,1.0,0.0
2903,85.0,72.0,180.0,1.0,0.0
2904,66.0,88.0,90.0,5.0,0.0
2905,58.0,0.0,90.0,5.0,0.0
2906,66.0,0.0,90.0,5.0,0.0
2907,58.0,160.0,90.0,5.0,0.0
2908,58.0,212.0,90.0,5.0,0.0
2909,66.0,0.0,90.0,5.0,0.0
2910,63.0,164.0,150.0,5.0,0.0
2911,78.0,104.0,150.0,1.0,0.0
2912,70.0,0.0,150.0,2.0,0.0
2913,73.0,0.0,90.0,2.0,0.0
2914,82.0,212.0,90.0,1.0,0.0
2915,59.0,164.0,150.0,5.0,0.0
2916,80.0,0.0,150.0,1.0,0.0
2917,71.0,104.0,150.0,2.0,0.0
2918,83.0,0.0,90.0,1.0,0.0
2919,75.0,212.0,90.0,2.0,0.0
2920,61.0,164.0,150.0,5.0,0.0
2921,68.0,104.0,150.0,2.0,0.0
2922,77.0,0.0,150.0,1.0,0.0
2923,80.0,0.0,90.0,1.0,0.0
2924,71.0,376.0,90.0,2.0,0.0
2925,78.0,120.0,360.0,1.0,0.0
2926,70.0,0.0,360.0,2.0,0.0
2927,66.0,40.0,150.0,5.0,0.0
2928,61.0,160.0,150.0,5.0,0.0
2929,58.0,160.0,150.0,5.0,0.0
2930,54.0,160.0,150.0,5.0,0.0
2931,49.0,360.0,150.0,5.0,0.0
2932,42.0,280.0,360.0,5.0,0.0
2933,82.0,0.0,150.0,2.0,0.0
2934,85.0,160.0,150.0,1.0,0.0
2935,66.0,64.0,360.0,5.0,0.0
2936,83.0,0.0,150.0,1.0,0.0
2937,80.0,40.0,150.0,2.0,0.0
2938,82.0,160.0,90.0,1.0,0.0
2939,78.0,0.0,90.0,2.0,0.0
2940,78.0,0.0,90.0,2.0,0.0
2941,82.0,160.0,90.0,1.0,0.0
2942,78.0,0.0,90.0,2.0,0.0
2943,82.0,160.0,90.0,1.0,0.0
2944,82.0,0.0,90.0,1.0,0.0
2945,78.0,160.0,90.0,2.0,0.0
2946,82.0,0.0,90.0,1.0,0.0
2947,78.0,160.0,90.0,2.0,0.0
2948,82.0,160.0,90.0,1.0,0.0
2949,78.0,0.0,90.0,2.0,0.0
2950,78.0,216.0,90.0,2.0,0.0
2951,82.0,0.0,90.0,1.0,0.0
2952,73.0,0.0,150.0,2.0,0.0
2953,54.0,64.0,360.0,5.0,0.0
2954,82.0,160.0,150.0,1.0,0.0
2955,71.0,0.0,150.0,2.0,0.0
2956,80.0,40.0,150.0,1.0,0.0
2957,78.0,0.0,90.0,1.0,0.0
2958,70.0,160.0,90.0,2.0,0.0
2959,78.0,0.0,90.0,1.0,0.0
2960,70.0,160.0,90.0,2.0,0.0
2961,78.0,0.0,90.0,1.0,0.0
2962,70.0,160.0,90.0,2.0,0.0
2963,70.0,160.0,90.0,2.0,0.0
2964,78.0,0.0,90.0,1.0,0.0
2965,78.0,160.0,90.0,1.0,0.0
2966,70.0,0.0,90.0,2.0,0.0
2967,78.0,0.0,90.0,1.0,0.0
2968,70.0,160.0,90.0,2.0,0.0
2969,78.0,212.0,90.0,1.0,0.0
2970,70.0,0.0,90.0,2.0,0.0
2971,66.0,164.0,150.0,5.0,0.0
2972,78.0,0.0,150.0,1.0,0.0
2973,70.0,104.0,150.0,2.0,0.0
2974,82.0,212.0,90.0,1.0,0.0
2975,73.0,0.0,90.0,2.0,0.0
2976,59.0,164.0,150.0,5.0,0.0
2977,71.0,0.0,150.0,2.0,0.0
2978,80.0,104.0,150.0,1.0,0.0
2979,83.0,212.0,90.0,1.0,0.0
2980,75.0,0.0,90.0,2.0,0.0
2981,61.0,164.0,150.0,5.0,0.0
2982,68.0,104.0,150.0,2.0,0.0
2983,77.0,0.0,150.0,1.0,0.0
2984,71.0,0.0,90.0,2.0,0.0
2985,80.0,160.0,90.0,1.0,0.0
2986,70.0,0.0,90.0,2.0,0.0
2987,78.0,184.0,90.0,1.0,0.0
2988,54.0,88.0,360.0,5.0,0.0
2989,73.0,72.0,120.0,1.0,0.0
2990,75.0,160.0,120.0,1.0,0.0
2991,77.0,160.0,120.0,1.0,0.0
2992,78.0,160.0,120.0,1.0,0.0
2993,80.0,160.0,120.0,1.0,0.0
2994,82.0,160.0,120.0,1.0,0.0
2995,83.0,160.0,120.0,1.0,0.0
2996,84.0,192.0,120.0,1.0,0.0
2997,85.0,24.0,720.0,1.0,0.0
2998,70.0,160.0,150.0,5.0,0.0
2999,73.0,0.0,150.0,5.0,0.0
3000,68.0,0.0,150.0,5.0,0.0
3001,71.0,104.0,150.0,5.0,0.0
3002,70.0,160.0,90.0,5.0,0.0
3003,66.0,0.0,90.0,5.0,0.0
3004,70.0,136.0,90.0,5.0,0.0
3005,66.0,0.0,90.0,5.0,0.0
3006,66.0,0.0,90.0,5.0,0.0
3007,70.0,36.0,90.0,5.0,0.0
3008,87.0,60.0,60.0,1.0,0.0
3009,85.0,60.0,60.0,1.0,0.0
3010,70.0,56.0,90.0,5.0,0.0
3011,66.0,0.0,90.0,5.0,0.0
3012,84.0,4.0,60.0,1.0,0.0
3013,85.0,104.0,60.0,1.0,0.0
3014,70.0,88.0,90.0,5.0,0.0
3015,66.0,0.0,90.0,5.0,0.0
3016,90.0,72.0,180.0,1.0,0.0
3017,70.0,0.0,90.0,5.0,0.0
3018,66.0,160.0,90.0,5.0,0.0
3019,66.0,0.0,90.0,5.0,0.0
3020,70.0,216.0,90.0,5.0,0.0
3021,70.0,160.0,150.0,5.0,0.0
3022,61.0,0.0,150.0,5.0,0.0
3023,82.0,24.0,720.0,1.0,0.0
3024,68.0,104.0,150.0,5.0,0.0
3025,59.0,0.0,150.0,5.0,0.0
3026,66.0,160.0,90.0,5.0,0.0
3027,58.0,0.0,90.0,5.0,0.0
3028,58.0,136.0,90.0,5.0,0.0
3029,66.0,0.0,90.0,5.0,0.0
3030,58.0,36.0,90.0,5.0,0.0
3031,66.0,0.0,90.0,5.0,0.0
3032,83.0,60.0,60.0,1.0,0.0
3033,82.0,60.0,60.0,1.0,0.0
3034,58.0,56.0,90.0,5.0,0.0
3035,66.0,0.0,90.0,5.0,0.0
3036,80.0,4.0,60.0,1.0,0.0
3037,82.0,104.0,60.0,1.0,0.0
3038,85.0,72.0,180.0,1.0,0.0
3039,58.0,0.0,90.0,5.0,0.0
3040,66.0,88.0,90.0,5.0,0.0
3041,58.0,0.0,90.0,5.0,0.0
3042,66.0,160.0,90.0,5.0,0.0
3043,58.0,212.0,90.0,5.0,0.0
3044,66.0,0.0,90.0,5.0,0.0
3045,63.0,164.0,150.0,5.0,0.0
3046,78.0,104.0,150.0,1.0,0.0
3047,70.0,0.0,150.0,2.0,0.0
3048,73.0,0.0,90.0,2.0,0.0
3049,82.0,212.0,90.0,1.0,0.0
3050,59.0,164.0,150.0,5.0,0.0
3051,71.0,0.0,150.0,2.0,0.0
3052,80.0,104.0,150.0,1.0,0.0
3053,75.0,0.0,90.0,2.0,0.0
3054,83.0,212.0,90.0,1.0,0.0
3055,61.0,164.0,150.0,5.0,0.0
3056,68.0,104.0,150.0,2.0,0.0
3057,77.0,0.0,150.0,1.0,0.0
3058,80.0,0.0,90.0,1.0,0.0
3059,71.0,376.0,90.0,2.0,0.0
3060,78.0,120.0,360.0,1.0,0.0
3061,70.0,0.0,360.0,2.0,0.0
3062,66.0,40.0,150.0,5.0,0.0
3063,61.0,160.0,150.0,5.0,0.0
3064,58.0,160.0,150.0,5.0,0.0
3065,54.0,160.0,150.0,5.0,0.0
3066,49.0,360.0,150.0,5.0,0.0
3067,42.0,280.0,360.0,5.0,0.0
3068,61.0,0.0,1440.0,5.0,0.0
3069,49.0,264.0,1440.0,5.0,0.0
3070,77.0,0.0,150.0,2.0,0.0
3071,80.0,104.0,150.0,1.0,0.0
3072,73.0,160.0,90.0,1.0,0.0
3073,83.0,0.0,90.0,1.0,0.0
3074,80.0,216.0,90.0,2.0,0.0
3075,83.0,0.0,150.0,1.0,0.0
3076,80.0,104.0,150.0,2.0,0.0
3077,77.0,160.0,90.0,1.0,0.0
3078,89.0,0.0,90.0,1.0,0.0
3079,83.0,216.0,90.0,2.0,0.0
3080,83.0,104.0,150.0,2.0,0.0
3081,89.0,0.0,150.0,1.0,0.0
3082,80.0,160.0,90.0,1.0,0.0
3083,89.0,0.0,90.0,2.0,0.0
3084,92.0,56.0,90.0,1.0,0.0
3085,73.0,64.0,360.0,5.0,0.0
3086,89.0,96.0,90.0,2.0,0.0
3087,92.0,0.0,90.0,1.0,0.0
3088,87.0,160.0,90.0,2.0,0.0
3089,90.0,0.0,90.0,1.0,0.0
3090,85.0,0.0,90.0,2.0,0.0
3091,89.0,160.0,90.0,1.0,0.0
3092,83.0,0.0,90.0,2.0,0.0
3093,87.0,160.0,90.0,1.0,0.0
3094,82.0,0.0,90.0,2.0,0.0
3095,85.0,160.0,90.0,1.0,0.0
3096,83.0,0.0,90.0,1.0,0.0
3097,80.0,160.0,90.0,2.0,0.0
3098,82.0,0.0,90.0,1.0,0.0
3099,78.0,160.0,90.0,2.0,0.0
3100,77.0,216.0,90.0,2.0,0.0
3101,80.0,0.0,90.0,1.0,0.0
3102,54.0,0.0,1440.0,5.0,0.0
3103,78.0,0.0,150.0,2.0,0.0
3104,66.0,288.0,1440.0,5.0,0.0
3105,82.0,104.0,150.0,1.0,0.0
3106,73.0,160.0,90.0,1.0,0.0
3107,85.0,0.0,90.0,1.0,0.0
3108,82.0,216.0,90.0,2.0,0.0
3109,82.0,104.0,150.0,2.0,0.0
3110,85.0,0.0,150.0,1.0,0.0
3111,78.0,160.0,90.0,1.0,0.0
3112,90.0,216.0,90.0,1.0,0.0
3113,82.0,0.0,90.0,2.0,0.0
3114,82.0,104.0,150.0,2.0,0.0
3115,90.0,0.0,150.0,1.0,0.0
3116,89.0,0.0,90.0,1.0,0.0
3117,80.0,160.0,90.0,2.0,0.0
3118,90.0,56.0,90.0,1.0,0.0
3119,82.0,0.0,90.0,2.0,0.0
3120,42.0,88.0,360.0,5.0,0.0
3121,77.0,72.0,120.0,1.0,0.0
3122,78.0,160.0,120.0,1.0,0.0
3123,79.0,160.0,120.0,1.0,0.0
3124,80.0,160.0,120.0,1.0,0.0
3125,81.0,160.0,120.0,1.0,0.0
3126,82.0,160.0,120.0,1.0,0.0
3127,83.0,160.0,120.0,1.0,0.0
3128,84.0,160.0,120.0,1.0,0.0
3129,85.0,192.0,120.0,1.0,0.0
3130,90.0,160.0,150.0,1.0,0.0
3131,89.0,160.0,150.0,1.0,0.0
3132,88.0,160.0,150.0,1.0,0.0
3133,87.0,160.0,150.0,1.0,0.0
3134,86.0,156.0,150.0,1.0,0.0
3135,65.0,0.0,480.0,5.0,0.0
3136,73.0,320.0,480.0,4.0,0.0
3137,85.0,324.0,150.0,1.0,0.0
3138,70.0,120.0,360.0,4.0,0.0
3139,66.0,0.0,360.0,5.0,0.0
3140,90.0,40.0,150.0,1.0,0.0
3141,89.0,160.0,150.0,1.0,0.0
3142,88.0,160.0,150.0,1.0,0.0
3143,87.0,160.0,150.0,1.0,0.0
3144,86.0,156.0,150.0,1.0,0.0
3145,65.0,0.0,480.0,5.0,0.0
3146,73.0,156.0,480.0,4.0,0.0
3147,85.0,324.0,150.0,1.0,0.0
3148,70.0,0.0,150.0,4.0,0.0
3149,66.0,164.0,150.0,5.0,0.0
3150,84.0,0.0,150.0,1.0,0.0
3151,81.0,160.0,150.0,2.0,0.0
3152,85.0,0.0,150.0,1.0,0.0
3153,82.0,156.0,150.0,2.0,0.0
3154,59.0,164.0,150.0,5.0,0.0
3155,82.0,0.0,150.0,1.0,0.0
3156,79.0,160.0,150.0,2.0,0.0
3157,83.0,0.0,150.0,1.0,0.0
3158,80.0,156.0,150.0,2.0,0.0
3159,60.0,164.0,150.0,5.0,0.0
3160,77.0,160.0,150.0,2.0,0.0
3161,81.0,0.0,150.0,1.0,0.0
3162,78.0,320.0,150.0,2.0,0.0
3163,82.0,0.0,150.0,1.0,0.0
3164,77.0,120.0,360.0,2.0,0.0
3165,80.0,0.0,360.0,1.0,0.0
3166,49.0,40.0,150.0,5.0,0.0
3167,53.0,104.0,150.0,5.0,0.0
3168,56.0,216.0,90.0,5.0,0.0
3169,61.0,160.0,150.0,5.0,0.0
3170,62.0,160.0,150.0,5.0,0.0
3171,63.0,160.0,150.0,5.0,0.0
3172,64.0,160.0,150.0,5.0,0.0
3173,65.0,160.0,150.0,5.0,0.0
3174,82.0,0.0,150.0,2.0,0.0
3175,66.0,64.0,360.0,5.0,0.0
3176,85.0,160.0,150.0,1.0,0.0
3177,80.0,0.0,150.0,2.0,0.0
3178,83.0,40.0,150.0,1.0,0.0
3179,82.0,160.0,90.0,1.0,0.0
3180,78.0,0.0,90.0,2.0,0.0
3181,78.0,160.0,90.0,2.0,0.0
3182,82.0,0.0,90.0,1.0,0.0
3183,78.0,0.0,90.0,2.0,0.0
3184,82.0,160.0,90.0,1.0,0.0
3185,78.0,0.0,90.0,2.0,0.0
3186,82.0,160.0,90.0,1.0,0.0
3187,82.0,0.0,90.0,1.0,0.0
3188,78.0,160.0,90.0,2.0,0.0
3189,82.0,160.0,90.0,1.0,0.0
3190,78.0,0.0,90.0,2.0,0.0
3191,78.0,0.0,90.0,2.0,0.0
3192,82.0,216.0,90.0,1.0,0.0
3193,82.0,160.0,150.0,1.0,0.0
3194,73.0,0.0,150.0,2.0,0.0
3195,54.0,64.0,360.0,5.0,0.0
3196,80.0,0.0,150.0,1.0,0.0
3197,71.0,40.0,150.0,2.0,0.0
3198,70.0,160.0,90.0,2.0,0.0
3199,78.0,0.0,90.0,1.0,0.0
3200,78.0,0.0,90.0,1.0,0.0
3201,70.0,160.0,90.0,2.0,0.0
3202,78.0,160.0,90.0,1.0,0.0
3203,70.0,0.0,90.0,2.0,0.0
3204,78.0,0.0,90.0,1.0,0.0
3205,70.0,160.0,90.0,2.0,0.0
3206,78.0,0.0,90.0,1.0,0.0
3207,70.0,160.0,90.0,2.0,0.0
3208,70.0,0.0,90.0,2.0,0.0
3209,78.0,160.0,90.0,1.0,0.0
3210,70.0,212.0,90.0,2.0,0.0
3211,78.0,0.0,90.0,1.0,0.0
3212,66.0,164.0,150.0,5.0,0.0
3213,78.0,104.0,150.0,1.0,0.0
3214,70.0,0.0,150.0,2.0,0.0
3215,73.0,212.0,90.0,2.0,0.0
3216,82.0,0.0,90.0,1.0,0.0
3217,59.0,164.0,150.0,5.0,0.0
3218,80.0,0.0,150.0,1.0,0.0
3219,71.0,104.0,150.0,2.0,0.0
3220,83.0,212.0,90.0,1.0,0.0
3221,75.0,0.0,90.0,2.0,0.0
3222,61.0,164.0,150.0,5.0,0.0
3223,68.0,0.0,150.0,2.0,0.0
3224,77.0,104.0,150.0,1.0,0.0
3225,71.0,160.0,90.0,2.0,0.0
3226,80.0,0.0,90.0,1.0,0.0
3227,70.0,184.0,90.0,2.0,0.0
3228,78.0,0.0,90.0,1.0,0.0
3229,54.0,88.0,360.0,5.0,0.0
3230,73.0,72.0,120.0,1.0,0.0
3231,75.0,160.0,120.0,1.0,0.0
3232,77.0,160.0,120.0,1.0,0.0
3233,78.0,160.0,120.0,1.0,0.0
3234,80.0,160.0,120.0,1.0,0.0
3235,82.0,160.0,120.0,1.0,0.0
3236,83.0,160.0,120.0,1.0,0.0
3237,84.0,192.0,120.0,1.0,0.0
3238,70.0,160.0,150.0,5.0,0.0
3239,73.0,0.0,150.0,5.0,0.0
3240,85.0,24.0,720.0,1.0,0.0
3241,68.0,0.0,150.0,5.0,0.0
3242,71.0,104.0,150.0,5.0,0.0
3243,70.0,0.0,90.0,5.0,0.0
3244,66.0,160.0,90.0,5.0,0.0
3245,70.0,136.0,90.0,5.0,0.0
3246,66.0,0.0,90.0,5.0,0.0
3247,70.0,36.0,90.0,5.0,0.0
3248,66.0,0.0,90.0,5.0,0.0
3249,87.0,60.0,60.0,1.0,0.0
3250,85.0,60.0,60.0,1.0,0.0
3251,66.0,0.0,90.0,5.0,0.0
3252,70.0,56.0,90.0,5.0,0.0
3253,84.0,4.0,60.0,1.0,0.0
3254,85.0,104.0,60.0,1.0,0.0
3255,90.0,72.0,180.0,1.0,0.0
3256,70.0,88.0,90.0,5.0,0.0
3257,66.0,0.0,90.0,5.0,0.0
3258,70.0,160.0,90.0,5.0,0.0
3259,66.0,0.0,90.0,5.0,0.0
3260,70.0,216.0,90.0,5.0,0.0
3261,66.0,0.0,90.0,5.0,0.0
3262,70.0,160.0,150.0,5.0,0.0
3263,61.0,0.0,150.0,5.0,0.0
3264,82.0,24.0,720.0,1.0,0.0
3265,59.0,104.0,150.0,5.0,0.0
3266,68.0,0.0,150.0,5.0,0.0
3267,66.0,160.0,90.0,5.0,0.0
3268,58.0,0.0,90.0,5.0,0.0
3269,66.0,0.0,90.0,5.0,0.0
3270,58.0,136.0,90.0,5.0,0.0
3271,66.0,0.0,90.0,5.0,0.0
3272,58.0,36.0,90.0,5.0,0.0
3273,83.0,60.0,60.0,1.0,0.0
3274,82.0,60.0,60.0,1.0,0.0
3275,66.0,0.0,90.0,5.0,0.0
3276,58.0,56.0,90.0,5.0,0.0
3277,80.0,4.0,60.0,1.0,0.0
3278,82.0,104.0,60.0,1.0,0.0
3279,85.0,72.0,180.0,1.0,0.0
3280,66.0,88.0,90.0,5.0,0.0
3281,58.0,0.0,90.0,5.0,0.0
3282,58.0,160.0,90.0,5.0,0.0
3283,66.0,0.0,90.0,5.0,0.0
3284,66.0,212.0,90.0,5.0,0.0
3285,58.0,0.0,90.0,5.0,0.0
3286,63.0,164.0,150.0,5.0,0.0
3287,70.0,104.0,150.0,2.0,0.0
3288,78.0,0.0,150.0,1.0,0.0
3289,73.0,0.0,90.0,2.0,0.0
3290,82.0,212.0,90.0,1.0,0.0
3291,59.0,164.0,150.0,5.0,0.0
3292,71.0,0.0,150.0,2.0,0.0
3293,80.0,104.0,150.0,1.0,0.0
3294,75.0,212.0,90.0,2.0,0.0
3295,83.0,0.0,90.0,1.0,0.0
3296,61.0,164.0,150.0,5.0,0.0
3297,68.0,0.0,150.0,2.0,0.0
3298,77.0,104.0,150.0,1.0,0.0
3299,80.0,376.0,90.0,1.0,0.0
3300,71.0,0.0,90.0,2.0,0.0
3301,78.0,0.0,360.0,1.0,0.0
3302,70.0,120.0,360.0,2.0,0.0
3303,66.0,40.0,150.0,5.0,0.0
3304,61.0,160.0,150.0,5.0,0.0
3305,58.0,160.0,150.0,5.0,0.0
3306,54.0,160.0,150.0,5.0,0.0
3307,49.0,240.0,150.0,5.0,0.0
3308,42.0,400.0,240.0,5.0,0.0
3309,80.0,0.0,150.0,1.0,0.0
3310,77.0,104.0,150.0,2.0,0.0
3311,61.0,264.0,1440.0,5.0,0.0
3312,49.0,0.0,1440.0,5.0,0.0
3313,73.0,160.0,90.0,1.0,0.0
3314,80.0,216.0,90.0,2.0,0.0
3315,83.0,0.0,90.0,1.0,0.0
3316,80.0,0.0,150.0,2.0,0.0
3317,83.0,104.0,150.0,1.0,0.0
3318,77.0,160.0,90.0,1.0,0.0
3319,83.0,0.0,90.0,2.0,0.0
3320,89.0,216.0,90.0,1.0,0.0
3321,83.0,0.0,150.0,2.0,0.0
3322,89.0,104.0,150.0,1.0,0.0
3323,80.0,160.0,90.0,1.0,0.0
3324,92.0,0.0,90.0,1.0,0.0
3325,89.0,56.0,90.0,2.0,0.0
3326,73.0,64.0,360.0,5.0,0.0
3327,89.0,96.0,90.0,2.0,0.0
3328,92.0,0.0,90.0,1.0,0.0
3329,87.0,160.0,90.0,2.0,0.0
3330,90.0,0.0,90.0,1.0,0.0
3331,89.0,0.0,90.0,1.0,0.0
3332,85.0,160.0,90.0,2.0,0.0
3333,87.0,0.0,90.0,1.0,0.0
3334,83.0,160.0,90.0,2.0,0.0
3335,85.0,160.0,90.0,1.0,0.0
3336,82.0,0.0,90.0,2.0,0.0
3337,83.0,0.0,90.0,1.0,0.0
3338,80.0,160.0,90.0,2.0,0.0
3339,78.0,0.0,90.0,2.0,0.0
3340,82.0,160.0,90.0,1.0,0.0
3341,77.0,216.0,90.0,2.0,0.0
3342,80.0,0.0,90.0,1.0,0.0
3343,82.0,0.0,150.0,1.0,0.0
3344,66.0,0.0,1440.0,5.0,0.0
3345,54.0,288.0,1440.0,5.0,0.0
3346,78.0,104.0,150.0,2.0,0.0
3347,73.0,160.0,90.0,1.0,0.0
3348,82.0,0.0,90.0,2.0,0.0
3349,85.0,216.0,90.0,1.0,0.0
3350,82.0,0.0,150.0,2.0,0.0
3351,85.0,104.0,150.0,1.0,0.0
3352,78.0,160.0,90.0,1.0,0.0
3353,82.0,0.0,90.0,2.0,0.0
3354,90.0,216.0,90.0,1.0,0.0
3355,82.0,0.0,150.0,2.0,0.0
3356,90.0,104.0,150.0,1.0,0.0
3357,89.0,0.0,90.0,1.0,0.0
3358,80.0,160.0,90.0,2.0,0.0
3359,82.0,0.0,90.0,2.0,0.0
3360,90.0,56.0,90.0,1.0,0.0
3361,42.0,88.0,360.0,5.0,0.0
3362,77.0,72.0,120.0,1.0,0.0
3363,78.0,160.0,120.0,1.0,0.0
3364,79.0,160.0,120.0,1.0,0.0
3365,80.0,160.0,120.0,1.0,0.0
3366,81.0,160.0,120.0,1.0,0.0
3367,82.0,160.0,120.0,1.0,0.0
3368,83.0,160.0,120.0,1.0,0.0
3369,84.0,160.0,120.0,1.0,0.0
3370,85.0,192.0,120.0,1.0,0.0
3371,90.0,160.0,150.0,1.0,0.0
3372,89.0,160.0,150.0,1.0,0.0
3373,88.0,160.0,150.0,1.0,0.0
3374,87.0,160.0,150.0,1.0,0.0
3375,86.0,156.0,150.0,1.0,0.0
3376,85.0,324.0,150.0,1.0,0.0
3377,73.0,0.0,480.0,4.0,0.0
3378,65.0,320.0,480.0,5.0,0.0
3379,66.0,0.0,360.0,5.0,0.0
3380,70.0,120.0,360.0,4.0,0.0
3381,90.0,40.0,150.0,1.0,0.0
3382,89.0,160.0,150.0,1.0,0.0
3383,88.0,160.0,150.0,1.0,0.0
3384,87.0,160.0,150.0,1.0,0.0
3385,86.0,156.0,150.0,1.0,0.0
3386,73.0,0.0,480.0,4.0,0.0
3387,85.0,324.0,150.0,1.0,0.0
3388,65.0,156.0,480.0,5.0,0.0
3389,70.0,0.0,150.0,4.0,0.0
3390,66.0,164.0,150.0,5.0,0.0
3391,81.0,0.0,150.0,2.0,0.0
3392,84.0,160.0,150.0,1.0,0.0
3393,85.0,156.0,150.0,1.0,0.0
3394,82.0,0.0,150.0,2.0,0.0
3395,59.0,164.0,150.0,5.0,0.0
3396,82.0,0.0,150.0,1.0,0.0
3397,79.0,160.0,150.0,2.0,0.0
3398,83.0,0.0,150.0,1.0,0.0
3399,80.0,156.0,150.0,2.0,0.0
3400,60.0,164.0,150.0,5.0,0.0
3401,77.0,0.0,150.0,2.0,0.0
3402,81.0,160.0,150.0,1.0,0.0
3403,82.0,0.0,150.0,1.0,0.0
3404,78.0,320.0,150.0,2.0,0.0
3405,77.0,120.0,360.0,2.0,0.0
3406,80.0,0.0,360.0,1.0,0.0
3407,49.0,40.0,150.0,5.0,0.0
3408,53.0,104.0,150.0,5.0,0.0
3409,56.0,216.0,90.0,5.0,0.0
3410,61.0,160.0,150.0,5.0,0.0
3411,62.0,160.0,150.0,5.0,0.0
3412,63.0,160.0,150.0,5.0,0.0
3413,64.0,160.0,150.0,5.0,0.0
3414,65.0,160.0,150.0,5.0,0.0
3415,66.0,64.0,360.0,5.0,0.0
3416,82.0,0.0,150.0,2.0,0.0
3417,85.0,160.0,150.0,1.0,0.0
3418,80.0,40.0,150.0,2.0,0.0
3419,83.0,0.0,150.0,1.0,0.0
3420,78.0,160.0,90.0,2.0,0.0
3421,82.0,0.0,90.0,1.0,0.0
3422,78.0,0.0,90.0,2.0,0.0
3423,82.0,160.0,90.0,1.0,0.0
3424,78.0,160.0,90.0,2.0,0.0
3425,82.0,0.0,90.0,1.0,0.0
3426,78.0,0.0,90.0,2.0,0.0
3427,82.0,160.0,90.0,1.0,0.0
3428,82.0,0.0,90.0,1.0,0.0
3429,78.0,160.0,90.0,2.0,0.0
3430,78.0,160.0,90.0,2.0,0.0
3431,82.0,0.0,90.0,1.0,0.0
3432,82.0,216.0,90.0,1.0,0.0
3433,78.0,0.0,90.0,2.0,0.0
3434,73.0,0.0,150.0,2.0,0.0
3435,54.0,64.0,360.0,5.0,0.0
3436,82.0,160.0,150.0,1.0,0.0
3437,80.0,40.0,150.0,1.0,0.0
3438,71.0,0.0,150.0,2.0,0.0
3439,78.0,160.0,90.0,1.0,0.0
3440,70.0,0.0,90.0,2.0,0.0
3441,70.0,0.0,90.0,2.0,0.0
3442,78.0,160.0,90.0,1.0,0.0
3443,70.0,0.0,90.0,2.0,0.0
3444,78.0,160.0,90.0,1.0,0.0
3445,70.0,0.0,90.0,2.0,0.0
3446,78.0,160.0,90.0,1.0,0.0
3447,78.0,0.0,90.0,1.0,0.0
3448,70.0,160.0,90.0,2.0,0.0
3449,78.0,0.0,90.0,1.0,0.0
3450,70.0,160.0,90.0,2.0,0.0
3451,70.0,0.0,90.0,2.0,0.0
3452,78.0,212.0,90.0,1.0,0.0
3453,66.0,164.0,150.0,5.0,0.0
3454,70.0,104.0,150.0,2.0,0.0
3455,78.0,0.0,150.0,1.0,0.0
3456,82.0,0.0,90.0,1.0,0.0
3457,73.0,212.0,90.0,2.0,0.0
3458,59.0,164.0,150.0,5.0,0.0
3459,80.0,104.0,150.0,1.0,0.0
3460,71.0,0.0,150.0,2.0,0.0
3461,75.0,0.0,90.0,2.0,0.0
3462,83.0,212.0,90.0,1.0,0.0
3463,61.0,164.0,150.0,5.0,0.0
3464,68.0,0.0,150.0,2.0,0.0
3465,77.0,104.0,150.0,1.0,0.0
3466,71.0,0.0,90.0,2.0,0.0
3467,80.0,160.0,90.0,1.0,0.0
3468,70.0,184.0,90.0,2.0,0.0
3469,54.0,88.0,360.0,5.0,0.0
3470,78.0,0.0,90.0,1.0,0.0
3471,73.0,72.0,120.0,1.0,0.0
3472,75.0,160.0,120.0,1.0,0.0
3473,77.0,160.0,120.0,1.0,0.0
3474,78.0,160.0,120.0,1.0,0.0
3475,80.0,160.0,120.0,1.0,0.0
3476,82.0,160.0,120.0,1.0,0.0
3477,83.0,160.0,120.0,1.0,0.0
3478,84.0,192.0,120.0,1.0,0.0
3479,70.0,0.0,150.0,5.0,0.0
3480,73.0,160.0,150.0,5.0,0.0
3481,85.0,24.0,720.0,1.0,0.0
3482,68.0,0.0,150.0,5.0,0.0
3483,71.0,104.0,150.0,5.0,0.0
3484,70.0,0.0,90.0,5.0,0.0
3485,66.0,160.0,90.0,5.0,0.0
3486,70.0,0.0,90.0,5.0,0.0
3487,66.0,136.0,90.0,5.0,0.0
3488,66.0,0.0,90.0,5.0,0.0
3489,70.0,36.0,90.0,5.0,0.0
3490,87.0,60.0,60.0,1.0,0.0
3491,85.0,60.0,60.0,1.0,0.0
3492,70.0,56.0,90.0,5.0,0.0
3493,66.0,0.0,90.0,5.0,0.0
3494,84.0,4.0,60.0,1.0,0.0
3495,85.0,104.0,60.0,1.0,0.0
3496,90.0,72.0,180.0,1.0,0.0
3497,66.0,88.0,90.0,5.0,0.0
3498,70.0,0.0,90.0,5.0,0.0
3499,66.0,160.0,90.0,5.0,0.0
3500,70.0,0.0,90.0,5.0,0.0
3501,66.0,216.0,90.0,5.0,0.0
3502,70.0,0.0,90.0,5.0,0.0
3503,70.0,0.0,150.0,5.0,0.0
3504,82.0,24.0,720.0,1.0,0.0
3505,61.0,160.0,150.0,5.0,0.0
3506,59.0,104.0,150.0,5.0,0.0
3507,68.0,0.0,150.0,5.0,0.0
3508,66.0,160.0,90.0,5.0,0.0
3509,58.0,0.0,90.0,5.0,0.0
3510,58.0,136.0,90.0,5.0,0.0
3511,66.0,0.0,90.0,5.0,0.0
3512,58.0,36.0,90.0,5.0,0.0
3513,66.0,0.0,90.0,5.0,0.0
3514,83.0,60.0,60.0,1.0,0.0
3515,82.0,60.0,60.0,1.0,0.0
3516,58.0,56.0,90.0,5.0,0.0
3517,66.0,0.0,90.0,5.0,0.0
3518,80.0,4.0,60.0,1.0,0.0
3519,82.0,104.0,60.0,1.0,0.0
3520,85.0,72.0,180.0,1.0,0.0
3521,58.0,88.0,90.0,5.0,0.0
3522,66.0,0.0,90.0,5.0,0.0
3523,66.0,0.0,90.0,5.0,0.0
3524,58.0,160.0,90.0,5.0,0.0
3525,58.0,212.0,90.0,5.0,0.0
3526,66.0,0.0,90.0,5.0,0.0
3527,63.0,164.0,150.0,5.0,0.0
3528,78.0,0.0,150.0,1.0,0.0
3529,70.0,104.0,150.0,2.0,0.0
3530,73.0,212.0,90.0,2.0,0.0
3531,82.0,0.0,90.0,1.0,0.0
3532,59.0,164.0,150.0,5.0,0.0
3533,71.0,104.0,150.0,2.0,0.0
3534,80.0,0.0,150.0,1.0,0.0
3535,75.0,212.0,90.0,2.0,0.0
3536,83.0,0.0,90.0,1.0,0.0
3537,61.0,164.0,150.0,5.0,0.0
3538,77.0,0.0,150.0,1.0,0.0
3539,68.0,104.0,150.0,2.0,0.0
3540,71.0,376.0,90.0,2.0,0.0
3541,80.0,0.0,90.0,1.0,0.0
3542,78.0,120.0,360.0,1.0,0.0
3543,70.0,0.0,360.0,2.0,0.0
3544,66.0,40.0,150.0,5.0,0.0
3545,61.0,160.0,150.0,5.0,0.0
3546,58.0,160.0,150.0,5.0,0.0
3547,54.0,160.0,150.0,5.0,0.0
3548,49.0,240.0,150.0,5.0,0.0
3549,42.0,396.0,240.0,5.0,0.0
3550,85.0,240.0,150.0,1.0,0.0
3551,85.0,240.0,150.0,1.0,0.0
3552,85.0,240.0,150.0,1.0,0.0
3553,83.0,0.0,150.0,4.0,0.0
3554,77.0,144.0,150.0,5.0,0.0
3555,85.0,0.0,150.0,1.0,0.0
3556,87.0,60.0,60.0,1.0,0.0
3557,78.0,0.0,180.0,5.0,0.0
3558,82.0,48.0,180.0,4.0,0.0
3559,85.0,60.0,60.0,1.0,0.0
3560,84.0,12.0,60.0,1.0,0.0
3561,85.0,156.0,60.0,1.0,0.0
3562,90.0,240.0,150.0,1.0,0.0
3563,82.0,240.0,150.0,1.0,0.0
3564,82.0,240.0,150.0,1.0,0.0
3565,82.0,240.0,150.0,1.0,0.0
3566,82.0,0.0,150.0,1.0,0.0
3567,80.0,0.0,150.0,4.0,0.0
3568,74.0,144.0,150.0,5.0,0.0
3569,78.0,48.0,180.0,4.0,0.0
3570,75.0,0.0,180.0,5.0,0.0
3571,83.0,60.0,60.0,1.0,0.0
3572,82.0,60.0,60.0,1.0,0.0
3573,81.0,12.0,60.0,1.0,0.0
3574,82.0,156.0,60.0,1.0,0.0
3575,87.0,240.0,150.0,1.0,0.0
3576,78.0,240.0,150.0,1.0,0.0
3577,70.0,0.0,150.0,5.0,0.0
3578,73.0,240.0,150.0,4.0,0.0
3579,80.0,240.0,150.0,1.0,0.0
3580,75.0,240.0,150.0,4.0,0.0
3581,71.0,0.0,150.0,5.0,0.0
3582,83.0,240.0,150.0,1.0,0.0
3583,73.0,0.0,150.0,5.0,0.0
3584,77.0,324.0,150.0,4.0,0.0
3585,66.0,0.0,360.0,5.0,0.0
3586,82.0,120.0,240.0,1.0,0.0
3587,78.0,78.0,120.0,1.0,0.0
3588,80.0,162.0,90.0,1.0,0.0
3589,80.0,78.0,120.0,1.0,0.0
3590,82.0,162.0,90.0,1.0,0.0
3591,82.0,78.0,120.0,1.0,0.0
3592,83.0,162.0,90.0,1.0,0.0
3593,83.0,78.0,120.0,1.0,0.0
3594,85.0,162.0,90.0,1.0,0.0
3595,85.0,78.0,120.0,1.0,0.0
3596,87.0,198.0,90.0,1.0,0.0
3597,85.0,240.0,150.0,1.0,0.0
3598,77.0,0.0,150.0,5.0,0.0
3599,83.0,0.0,150.0,4.0,0.0
3600,85.0,240.0,150.0,1.0,0.0
3601,82.0,0.0,150.0,4.0,0.0
3602,78.0,0.0,150.0,5.0,0.0
3603,85.0,240.0,150.0,1.0,0.0
3604,77.0,204.0,150.0,5.0,0.0
3605,83.0,0.0,150.0,4.0,0.0
3606,85.0,0.0,150.0,1.0,0.0
3607,85.0,72.0,120.0,1.0,0.0
3608,82.0,48.0,180.0,4.0,0.0
3609,78.0,0.0,180.0,5.0,0.0
3610,87.0,120.0,120.0,1.0,0.0
3611,89.0,96.0,120.0,1.0,0.0
3612,90.0,180.0,90.0,1.0,0.0
3613,82.0,240.0,150.0,1.0,0.0
3614,80.0,0.0,150.0,4.0,0.0
3615,74.0,0.0,150.0,5.0,0.0
3616,82.0,240.0,150.0,1.0,0.0
3617,82.0,0.0,150.0,1.0,0.0
3618,78.0,0.0,150.0,4.0,0.0
3619,75.0,240.0,150.0,5.0,0.0
3620,74.0,0.0,150.0,5.0,0.0
3621,80.0,204.0,150.0,4.0,0.0
3622,82.0,0.0,150.0,1.0,0.0
3623,82.0,72.0,120.0,1.0,0.0
3624,78.0,0.0,180.0,4.0,0.0
3625,75.0,48.0,180.0,5.0,0.0
3626,84.0,120.0,120.0,1.0,0.0
3627,86.0,96.0,120.0,1.0,0.0
3628,87.0,384.0,90.0,1.0,0.0
3629,78.0,36.0,360.0,1.0,0.0
3630,70.0,0.0,150.0,5.0,0.0
3631,73.0,84.0,150.0,4.0,0.0
3632,82.0,360.0,120.0,1.0,0.0
3633,80.0,36.0,360.0,1.0,0.0
3634,75.0,0.0,150.0,4.0,0.0
3635,71.0,84.0,150.0,5.0,0.0
3636,83.0,360.0,120.0,1.0,0.0
3637,77.0,36.0,360.0,1.0,0.0
3638,61.0,84.0,150.0,5.0,0.0
3639,71.0,0.0,150.0,4.0,0.0
3640,80.0,360.0,120.0,1.0,0.0
3641,78.0,36.0,360.0,1.0,0.0
3642,58.0,240.0,150.0,5.0,0.0
3643,46.0,0.0,150.0,5.0,0.0
3644,59.0,240.0,150.0,5.0,0.0
3645,47.0,0.0,150.0,5.0,0.0
3646,49.0,0.0,150.0,5.0,0.0
3647,61.0,324.0,150.0,5.0,0.0
3648,54.0,396.0,240.0,5.0,0.0
3649,42.0,0.0,240.0,5.0,0.0
3650,85.0,240.0,150.0,1.0,0.0
3651,85.0,240.0,150.0,1.0,0.0
3652,85.0,240.0,150.0,1.0,0.0
3653,77.0,144.0,150.0,5.0,0.0
3654,85.0,0.0,150.0,1.0,0.0
3655,83.0,0.0,150.0,4.0,0.0
3656,78.0,0.0,180.0,5.0,0.0
3657,82.0,48.0,180.0,4.0,0.0
3658,87.0,60.0,60.0,1.0,0.0
3659,85.0,60.0,60.0,1.0,0.0
3660,84.0,12.0,60.0,1.0,0.0
3661,85.0,156.0,60.0,1.0,0.0
3662,90.0,240.0,150.0,1.0,0.0
3663,82.0,240.0,150.0,1.0,0.0
3664,82.0,240.0,150.0,1.0,0.0
3665,82.0,240.0,150.0,1.0,0.0
3666,82.0,0.0,150.0,1.0,0.0
3667,74.0,144.0,150.0,5.0,0.0
3668,80.0,0.0,150.0,4.0,0.0
3669,78.0,0.0,180.0,4.0,0.0
3670,83.0,60.0,60.0,1.0,0.0
3671,75.0,48.0,180.0,5.0,0.0
3672,82.0,60.0,60.0,1.0,0.0
3673,81.0,12.0,60.0,1.0,0.0
3674,82.0,156.0,60.0,1.0,0.0
3675,87.0,240.0,150.0,1.0,0.0
3676,78.0,240.0,150.0,1.0,0.0
3677,70.0,240.0,150.0,5.0,0.0
3678,73.0,0.0,150.0,4.0,0.0
3679,80.0,240.0,150.0,1.0,0.0
3680,75.0,0.0,150.0,4.0,0.0
3681,71.0,240.0,150.0,5.0,0.0
3682,83.0,240.0,150.0,1.0,0.0
3683,73.0,0.0,150.0,5.0,0.0
3684,77.0,324.0,150.0,4.0,0.0
3685,66.0,78.0,360.0,5.0,0.0
3686,82.0,120.0,240.0,1.0,0.0
3687,78.0,0.0,120.0,1.0,0.0
3688,80.0,162.0,90.0,1.0,0.0
3689,80.0,78.0,120.0,1.0,0.0
3690,82.0,162.0,90.0,1.0,0.0
3691,82.0,78.0,120.0,1.0,0.0
3692,83.0,162.0,90.0,1.0,0.0
3693,83.0,78.0,120.0,1.0,0.0
3694,85.0,162.0,90.0,1.0,0.0
3695,85.0,78.0,120.0,1.0,0.0
3696,87.0,198.0,90.0,1.0,0.0
3697,85.0,240.0,150.0,1.0,0.0
3698,83.0,0.0,150.0,4.0,0.0
3699,77.0,0.0,150.0,5.0,0.0
3700,85.0,240.0,150.0,1.0,0.0
3701,78.0,0.0,150.0,5.0,0.0
3702,85.0,240.0,150.0,1.0,0.0
3703,82.0,0.0,150.0,4.0,0.0
3704,85.0,204.0,150.0,1.0,0.0
3705,77.0,0.0,150.0,5.0,0.0
3706,83.0,0.0,150.0,4.0,0.0
3707,85.0,72.0,120.0,1.0,0.0
3708,82.0,0.0,180.0,4.0,0.0
3709,78.0,48.0,180.0,5.0,0.0
3710,87.0,120.0,120.0,1.0,0.0
3711,89.0,96.0,120.0,1.0,0.0
3712,90.0,180.0,90.0,1.0,0.0
3713,82.0,240.0,150.0,1.0,0.0
3714,74.0,0.0,150.0,5.0,0.0
3715,80.0,0.0,150.0,4.0,0.0
3716,82.0,240.0,150.0,1.0,0.0
3717,78.0,0.0,150.0,4.0,0.0
3718,75.0,0.0,150.0,5.0,0.0
3719,82.0,240.0,150.0,1.0,0.0
3720,82.0,0.0,150.0,1.0,0.0
3721,74.0,0.0,150.0,5.0,0.0
3722,80.0,204.0,150.0,4.0,0.0
3723,78.0,0.0,180.0,4.0,0.0
3724,75.0,48.0,180.0,5.0,0.0
3725,82.0,72.0,120.0,1.0,0.0
3726,84.0,120.0,120.0,1.0,0.0
3727,86.0,96.0,120.0,1.0,0.0
3728,87.0,384.0,90.0,1.0,0.0
3729,78.0,36.0,360.0,1.0,0.0
3730,73.0,84.0,150.0,4.0,0.0
3731,70.0,0.0,150.0,5.0,0.0
3732,82.0,360.0,120.0,1.0,0.0
3733,80.0,36.0,360.0,1.0,0.0
3734,75.0,84.0,150.0,4.0,0.0
3735,71.0,0.0,150.0,5.0,0.0
3736,83.0,360.0,120.0,1.0,0.0
3737,77.0,36.0,360.0,1.0,0.0
3738,71.0,0.0,150.0,4.0,0.0
3739,61.0,84.0,150.0,5.0,0.0
3740,80.0,360.0,120.0,1.0,0.0
3741,78.0,36.0,360.0,1.0,0.0
3742,58.0,0.0,150.0,5.0,0.0
3743,46.0,240.0,150.0,5.0,0.0
3744,47.0,0.0,150.0,5.0,0.0
3745,59.0,240.0,150.0,5.0,0.0
3746,61.0,324.0,150.0,5.0,0.0
3747,49.0,0.0,150.0,5.0,0.0
3748,54.0,396.0,240.0,5.0,0.0
3749,42.0,0.0,240.0,5.0,0.0
3750,80.0,0.0,150.0,1.0,0.0
3751,65.0,0.0,150.0,4.0,0.0
3752,73.0,0.0,150.0,2.0,0.0
3753,61.0,240.0,150.0,5.0,0.0
3754,65.0,240.0,150.0,4.0,0.0
3755,80.0,0.0,150.0,1.0,0.0
3756,61.0,0.0,150.0,5.0,0.0
3757,73.0,0.0,150.0,2.0,0.0
3758,80.0,240.0,150.0,1.0,0.0
3759,65.0,0.0,150.0,4.0,0.0
3760,73.0,0.0,150.0,2.0,0.0
3761,61.0,0.0,150.0,5.0,0.0
3762,65.0,0.0,150.0,4.0,0.0
3763,73.0,324.0,150.0,2.0,0.0
3764,80.0,0.0,150.0,1.0,0.0
3765,61.0,0.0,150.0,5.0,0.0
3766,66.0,240.0,240.0,4.0,0.0
3767,61.0,0.0,240.0,5.0,0.0
3768,81.0,0.0,240.0,1.0,0.0
3769,73.0,0.0,240.0,2.0,0.0
3770,67.0,0.0,240.0,4.0,0.0
3771,73.0,0.0,240.0,2.0,0.0
3772,61.0,0.0,240.0,5.0,0.0
3773,82.0,720.0,240.0,1.0,0.0
3774,61.0,0.0,1140.0,5.0,0.0
3775,68.0,80.0,720.0,4.0,0.0
3776,83.0,0.0,720.0,1.0,0.0
3777,73.0,0.0,1140.0,2.0,0.0
3778,82.0,80.0,90.0,1.0,0.0
3779,70.0,192.0,240.0,4.0,0.0
3780,80.0,80.0,90.0,1.0,0.0
3781,78.0,0.0,90.0,1.0,0.0
3782,77.0,0.0,180.0,1.0,0.0
3783,71.0,444.0,180.0,4.0,0.0
3784,66.0,240.0,150.0,5.0,0.0
3785,82.0,0.0,150.0,1.0,0.0
3786,78.0,0.0,150.0,2.0,0.0
3787,82.0,0.0,150.0,1.0,0.0
3788,78.0,240.0,150.0,2.0,0.0
3789,66.0,0.0,150.0,5.0,0.0
3790,78.0,0.0,150.0,2.0,0.0
3791,66.0,0.0,150.0,5.0,0.0
3792,82.0,240.0,150.0,1.0,0.0
3793,82.0,0.0,150.0,1.0,0.0
3794,66.0,0.0,150.0,5.0,0.0
3795,78.0,324.0,150.0,2.0,0.0
3796,83.0,0.0,240.0,1.0,0.0
3797,68.0,0.0,240.0,4.0,0.0
3798,78.0,240.0,15.0,2.0,0.0
3799,84.0,720.0,240.0,1.0,0.0
3800,69.0,0.0,240.0,4.0,0.0
3801,66.0,0.0,15.0,5.0,0.0
3802,78.0,0.0,15.0,2.0,0.0
3803,70.0,0.0,720.0,4.0,0.0
3804,85.0,80.0,720.0,1.0,0.0
3805,66.0,0.0,1140.0,5.0,0.0
3806,71.0,80.0,90.0,4.0,0.0
3807,83.0,0.0,90.0,1.0,0.0
3808,82.0,0.0,90.0,1.0,0.0
3809,73.0,72.0,90.0,4.0,0.0
3810,71.0,192.0,90.0,4.0,0.0
3811,80.0,0.0,90.0,1.0,0.0
3812,78.0,288.0,180.0,1.0,0.0
3813,70.0,0.0,180.0,4.0,0.0
3814,87.0,0.0,240.0,2.0,0.0
3815,90.0,240.0,240.0,1.0,0.0
3816,89.0,240.0,240.0,1.0,0.0
3817,85.0,0.0,240.0,2.0,0.0
3818,83.0,240.0,240.0,2.0,0.0
3819,65.0,0.0,240.0,5.0,0.0
3820,87.0,0.0,240.0,1.0,0.0
3821,85.0,0.0,660.0,1.0,0.0
3822,66.0,240.0,240.0,5.0,0.0
3823,82.0,300.0,660.0,2.0,0.0
3824,68.0,180.0,240.0,5.0,0.0
3825,70.0,0.0,180.0,5.0,0.0
3826,90.0,0.0,240.0,1.0,0.0
3827,87.0,240.0,240.0,2.0,0.0
3828,85.0,0.0,240.0,2.0,0.0
3829,89.0,240.0,240.0,1.0,0.0
3830,77.0,240.0,240.0,5.0,0.0
3831,83.0,0.0,240.0,2.0,0.0
3832,87.0,0.0,240.0,1.0,0.0
3833,82.0,240.0,720.0,2.0,0.0
3834,85.0,5.0,660.0,1.0,0.0
3835,78.0,240.0,240.0,5.0,0.0
3836,80.0,187.0,240.0,5.0,0.0
3837,82.0,48.0,180.0,5.0,0.0
3838,87.0,240.0,240.0,1.0,0.0
3839,79.0,0.0,240.0,5.0,0.0
3840,80.0,0.0,240.0,5.0,0.0
3841,83.0,240.0,240.0,1.0,0.0
3842,77.0,240.0,240.0,5.0,0.0
3843,85.0,0.0,240.0,1.0,0.0
3844,82.0,0.0,240.0,1.0,0.0
3845,78.0,240.0,240.0,5.0,0.0
3846,83.0,240.0,240.0,1.0,0.0
3847,75.0,0.0,240.0,5.0,0.0
3848,78.0,0.0,15.0,4.0,0.0
3849,85.0,0.0,240.0,1.0,0.0
3850,70.0,0.0,240.0,5.0,0.0
3851,72.0,0.0,240.0,5.0,0.0
3852,87.0,48.0,180.0,1.0,0.0
3853,78.0,192.0,15.0,4.0,0.0
3854,82.0,60.0,360.0,1.0,0.0
3855,73.0,0.0,840.0,5.0,0.0
3856,78.0,0.0,480.0,4.0,0.0
3857,83.0,60.0,60.0,1.0,0.0
3858,82.0,156.0,60.0,1.0,0.0
3859,77.0,36.0,360.0,4.0,0.0
3860,80.0,204.0,150.0,1.0,0.0
3861,82.0,240.0,150.0,1.0,0.0
3862,83.0,240.0,150.0,1.0,0.0
3863,84.0,240.0,150.0,1.0,0.0
3864,85.0,240.0,150.0,1.0,0.0
3865,85.0,240.0,150.0,1.0,0.0
3866,85.0,240.0,150.0,1.0,0.0
3867,77.0,0.0,150.0,5.0,0.0
3868,83.0,0.0,150.0,4.0,0.0
3869,85.0,144.0,150.0,1.0,0.0
3870,78.0,48.0,180.0,5.0,0.0
3871,82.0,0.0,180.0,4.0,0.0
3872,87.0,60.0,60.0,1.0,0.0
3873,85.0,60.0,60.0,1.0,0.0
3874,84.0,12.0,60.0,1.0,0.0
3875,85.0,156.0,60.0,1.0,0.0
3876,90.0,240.0,150.0,1.0,0.0
3877,82.0,240.0,150.0,1.0,0.0
3878,82.0,240.0,150.0,1.0,0.0
3879,82.0,240.0,150.0,1.0,0.0
3880,82.0,0.0,150.0,1.0,0.0
3881,80.0,144.0,150.0,4.0,0.0
3882,74.0,0.0,150.0,5.0,0.0
3883,78.0,0.0,180.0,4.0,0.0
3884,83.0,60.0,60.0,1.0,0.0
3885,75.0,48.0,180.0,5.0,0.0
3886,82.0,60.0,60.0,1.0,0.0
3887,81.0,12.0,60.0,1.0,0.0
3888,82.0,156.0,60.0,1.0,0.0
3889,87.0,240.0,150.0,1.0,0.0
3890,78.0,240.0,150.0,1.0,0.0
3891,70.0,240.0,150.0,5.0,0.0
3892,73.0,0.0,150.0,4.0,0.0
3893,80.0,240.0,150.0,1.0,0.0
3894,75.0,240.0,150.0,4.0,0.0
3895,71.0,0.0,150.0,5.0,0.0
3896,83.0,240.0,150.0,1.0,0.0
3897,73.0,324.0,150.0,5.0,0.0
3898,77.0,0.0,150.0,4.0,0.0
3899,66.0,0.0,360.0,5.0,0.0
3900,82.0,120.0,240.0,1.0,0.0
3901,78.0,78.0,120.0,1.0,0.0
3902,80.0,162.0,90.0,1.0,0.0
3903,80.0,78.0,120.0,1.0,0.0
3904,82.0,162.0,90.0,1.0,0.0
3905,82.0,78.0,120.0,1.0,0.0
3906,83.0,162.0,90.0,1.0,0.0
3907,83.0,78.0,120.0,1.0,0.0
3908,85.0,162.0,90.0,1.0,0.0
3909,85.0,78.0,120.0,1.0,0.0
3910,87.0,198.0,90.0,1.0,0.0
3911,85.0,240.0,150.0,1.0,0.0
3912,83.0,240.0,150.0,4.0,0.0
3913,85.0,0.0,150.0,1.0,0.0
3914,77.0,0.0,150.0,5.0,0.0
3915,78.0,0.0,150.0,5.0,0.0
3916,85.0,240.0,150.0,1.0,0.0
3917,82.0,0.0,150.0,4.0,0.0
3918,77.0,0.0,150.0,5.0,0.0
3919,85.0,0.0,150.0,1.0,0.0
3920,83.0,204.0,150.0,4.0,0.0
3921,82.0,48.0,180.0,4.0,0.0
3922,85.0,72.0,120.0,1.0,0.0
3923,78.0,0.0,180.0,5.0,0.0
3924,87.0,120.0,120.0,1.0,0.0
3925,89.0,96.0,120.0,1.0,0.0
3926,90.0,180.0,90.0,1.0,0.0
3927,82.0,240.0,150.0,1.0,0.0
3928,80.0,0.0,150.0,4.0,0.0
3929,74.0,0.0,150.0,5.0,0.0
3930,82.0,240.0,150.0,1.0,0.0
3931,82.0,0.0,150.0,1.0,0.0
3932,78.0,0.0,150.0,4.0,0.0
3933,75.0,240.0,150.0,5.0,0.0
3934,80.0,204.0,150.0,4.0,0.0
3935,74.0,0.0,150.0,5.0,0.0
3936,82.0,0.0,150.0,1.0,0.0
3937,78.0,0.0,180.0,4.0,0.0
3938,75.0,48.0,180.0,5.0,0.0
3939,82.0,72.0,120.0,1.0,0.0
3940,84.0,120.0,120.0,1.0,0.0
3941,86.0,96.0,120.0,1.0,0.0
3942,87.0,384.0,90.0,1.0,0.0
3943,78.0,36.0,360.0,1.0,0.0
3944,70.0,84.0,150.0,5.0,0.0
3945,73.0,0.0,150.0,4.0,0.0
3946,82.0,360.0,120.0,1.0,0.0
3947,80.0,36.0,360.0,1.0,0.0
3948,71.0,84.0,150.0,5.0,0.0
3949,75.0,0.0,150.0,4.0,0.0
3950,83.0,360.0,120.0,1.0,0.0
3951,77.0,36.0,360.0,1.0,0.0
3952,71.0,0.0,150.0,4.0,0.0
3953,61.0,84.0,150.0,5.0,0.0
3954,80.0,360.0,120.0,1.0,0.0
3955,78.0,36.0,360.0,1.0,0.0
3956,46.0,240.0,150.0,5.0,0.0
3957,58.0,0.0,150.0,5.0,0.0
3958,59.0,240.0,150.0,5.0,0.0
3959,47.0,0.0,150.0,5.0,0.0
3960,49.0,276.0,150.0,5.0,0.0
3961,61.0,0.0,150.0,5.0,0.0
3962,54.0,444.0,180.0,5.0,0.0
3963,42.0,0.0,180.0,5.0,0.0
3964,73.0,0.0,150.0,2.0,0.0
3965,65.0,0.0,150.0,4.0,0.0
3966,80.0,0.0,150.0,1.0,0.0
3967,61.0,240.0,150.0,5.0,0.0
3968,61.0,0.0,150.0,5.0,0.0
3969,73.0,0.0,150.0,2.0,0.0
3970,65.0,240.0,150.0,4.0,0.0
3971,80.0,0.0,150.0,1.0,0.0
3972,61.0,0.0,150.0,5.0,0.0
3973,73.0,240.0,150.0,2.0,0.0
3974,65.0,0.0,150.0,4.0,0.0
3975,80.0,0.0,150.0,1.0,0.0
3976,73.0,0.0,150.0,2.0,0.0
3977,80.0,324.0,150.0,1.0,0.0
3978,65.0,0.0,150.0,4.0,0.0
3979,61.0,0.0,150.0,5.0,0.0
3980,73.0,0.0,240.0,2.0,0.0
3981,66.0,0.0,240.0,4.0,0.0
3982,61.0,240.0,240.0,5.0,0.0
3983,81.0,0.0,240.0,1.0,0.0
3984,67.0,0.0,240.0,4.0,0.0
3985,82.0,0.0,240.0,1.0,0.0
3986,61.0,0.0,15.0,5.0,0.0
3987,73.0,720.0,15.0,2.0,0.0
3988,83.0,80.0,720.0,1.0,0.0
3989,68.0,0.0,720.0,4.0,0.0
3990,70.0,192.0,240.0,4.0,0.0
3991,82.0,80.0,90.0,1.0,0.0
3992,80.0,80.0,90.0,1.0,0.0
3993,78.0,0.0,90.0,1.0,0.0
3994,77.0,0.0,180.0,1.0,0.0
3995,71.0,0.0,180.0,4.0,0.0
3996,66.0,240.0,150.0,5.0,0.0
3997,82.0,0.0,150.0,1.0,0.0
3998,78.0,0.0,150.0,2.0,0.0
3999,82.0,240.0,150.0,1.0,0.0
4000,78.0,0.0,150.0,2.0,0.0
4001,66.0,0.0,150.0,5.0,0.0
4002,82.0,0.0,150.0,1.0,0.0
4003,78.0,240.0,150.0,2.0,0.0
4004,66.0,0.0,150.0,5.0,0.0
4005,78.0,0.0,150.0,2.0,0.0
4006,82.0,0.0,150.0,1.0,0.0
4007,66.0,324.0,150.0,5.0,0.0
4008,83.0,0.0,240.0,1.0,0.0
4009,68.0,0.0,240.0,4.0,0.0
4010,78.0,0.0,240.0,2.0,0.0
4011,66.0,240.0,15.0,5.0,0.0
4012,84.0,0.0,240.0,1.0,0.0
4013,69.0,0.0,240.0,4.0,0.0
4014,85.0,0.0,720.0,1.0,0.0
4015,70.0,80.0,720.0,4.0,0.0
4016,66.0,0.0,1140.0,5.0,0.0
4017,78.0,720.0,15.0,2.0,0.0
4018,83.0,0.0,90.0,1.0,0.0
4019,71.0,80.0,90.0,4.0,0.0
4020,82.0,72.0,90.0,1.0,0.0
4021,73.0,0.0,90.0,4.0,0.0
4022,71.0,192.0,90.0,4.0,0.0
4023,80.0,0.0,90.0,1.0,0.0
4024,78.0,0.0,180.0,1.0,0.0
4025,70.0,288.0,180.0,4.0,0.0
4026,90.0,0.0,240.0,1.0,0.0
4027,87.0,240.0,240.0,2.0,0.0
4028,89.0,0.0,240.0,1.0,0.0
4029,85.0,240.0,240.0,2.0,0.0
4030,83.0,0.0,240.0,2.0,0.0
4031,87.0,0.0,240.0,1.0,0.0
4032,65.0,240.0,240.0,5.0,0.0
4033,85.0,0.0,660.0,1.0,0.0
4034,82.0,300.0,660.0,2.0,0.0
4035,66.0,240.0,240.0,5.0,0.0
4036,68.0,180.0,240.0,5.0,0.0
4037,70.0,0.0,180.0,5.0,0.0
4038,87.0,240.0,240.0,2.0,0.0
4039,90.0,0.0,240.0,1.0,0.0
4040,89.0,0.0,240.0,1.0,0.0
4041,85.0,240.0,240.0,2.0,0.0
4042,83.0,240.0,240.0,2.0,0.0
4043,87.0,0.0,240.0,1.0,0.0
4044,77.0,0.0,240.0,5.0,0.0
4045,82.0,240.0,720.0,2.0,0.0
4046,78.0,240.0,240.0,5.0,0.0
4047,85.0,5.0,660.0,1.0,0.0
4048,80.0,187.0,240.0,5.0,0.0
4049,82.0,48.0,180.0,5.0,0.0
4050,87.0,240.0,240.0,1.0,0.0
4051,79.0,0.0,240.0,5.0,0.0
4052,80.0,0.0,240.0,5.0,0.0
4053,83.0,240.0,240.0,1.0,0.0
4054,77.0,0.0,240.0,5.0,0.0
4055,85.0,240.0,240.0,1.0,0.0
4056,78.0,240.0,240.0,5.0,0.0
4057,82.0,0.0,240.0,1.0,0.0
4058,78.0,240.0,240.0,4.0,0.0
4059,83.0,0.0,240.0,1.0,0.0
4060,75.0,0.0,240.0,5.0,0.0
4061,85.0,0.0,240.0,1.0,0.0
4062,70.0,192.0,240.0,5.0,0.0
4063,78.0,0.0,240.0,4.0,0.0
4064,87.0,48.0,180.0,1.0,0.0
4065,72.0,360.0,240.0,5.0,0.0
4066,78.0,0.0,15.0,4.0,0.0
4067,73.0,0.0,840.0,5.0,0.0
4068,82.0,60.0,360.0,1.0,0.0
4069,83.0,60.0,60.0,1.0,0.0
4070,82.0,156.0,60.0,1.0,0.0
4071,77.0,36.0,360.0,4.0,0.0
4072,80.0,204.0,150.0,1.0,0.0
4073,82.0,240.0,150.0,1.0,0.0
4074,83.0,240.0,150.0,1.0,0.0
4075,84.0,240.0,150.0,1.0,0.0
4076,85.0,240.0,150.0,1.0,0.0
4077,85.0,240.0,150.0,1.0,0.0
4078,85.0,240.0,150.0,1.0,0.0
4079,83.0,0.0,150.0,4.0,0.0
4080,77.0,144.0,150.0,5.0,0.0
4081,85.0,0.0,150.0,1.0,0.0
4082,78.0,0.0,180.0,5.0,0.0
4083,87.0,60.0,60.0,1.0,0.0
4084,82.0,48.0,180.0,4.0,0.0
4085,85.0,60.0,60.0,1.0,0.0
4086,84.0,12.0,60.0,1.0,0.0
4087,85.0,156.0,60.0,1.0,0.0
4088,90.0,240.0,150.0,1.0,0.0
4089,82.0,240.0,150.0,1.0,0.0
4090,82.0,240.0,150.0,1.0,0.0
4091,82.0,240.0,150.0,1.0,0.0
4092,82.0,0.0,150.0,1.0,0.0
4093,80.0,0.0,150.0,4.0,0.0
4094,74.0,144.0,150.0,5.0,0.0
4095,75.0,0.0,180.0,5.0,0.0
4096,78.0,48.0,180.0,4.0,0.0
4097,83.0,60.0,60.0,1.0,0.0
4098,82.0,60.0,60.0,1.0,0.0
4099,81.0,12.0,60.0,1.0,0.0
4100,82.0,156.0,60.0,1.0,0.0
4101,87.0,240.0,150.0,1.0,0.0
4102,78.0,240.0,150.0,1.0,0.0
4103,70.0,0.0,150.0,5.0,0.0
4104,73.0,240.0,150.0,4.0,0.0
4105,80.0,240.0,150.0,1.0,0.0
4106,71.0,240.0,150.0,5.0,0.0
4107,75.0,0.0,150.0,4.0,0.0
4108,83.0,240.0,150.0,1.0,0.0
4109,77.0,0.0,150.0,4.0,0.0
4110,73.0,324.0,150.0,5.0,0.0
4111,66.0,0.0,360.0,5.0,0.0
4112,82.0,120.0,240.0,1.0,0.0
4113,78.0,78.0,120.0,1.0,0.0
4114,80.0,162.0,90.0,1.0,0.0
4115,80.0,78.0,120.0,1.0,0.0
4116,82.0,162.0,90.0,1.0,0.0
4117,82.0,78.0,120.0,1.0,0.0
4118,83.0,162.0,90.0,1.0,0.0
4119,83.0,78.0,120.0,1.0,0.0
4120,85.0,162.0,90.0,1.0,0.0
4121,85.0,78.0,120.0,1.0,0.0
4122,87.0,198.0,90.0,1.0,0.0
4123,85.0,240.0,150.0,1.0,0.0
4124,85.0,0.0,150.0,1.0,0.0
4125,77.0,240.0,150.0,5.0,0.0
4126,83.0,0.0,150.0,4.0,0.0
4127,85.0,240.0,150.0,1.0,0.0
4128,82.0,0.0,150.0,4.0,0.0
4129,78.0,0.0,150.0,5.0,0.0
4130,83.0,0.0,150.0,4.0,0.0
4131,77.0,204.0,150.0,5.0,0.0
4132,85.0,0.0,150.0,1.0,0.0
4133,82.0,48.0,180.0,4.0,0.0
4134,78.0,0.0,180.0,5.0,0.0
4135,85.0,72.0,120.0,1.0,0.0
4136,87.0,120.0,120.0,1.0,0.0
4137,89.0,96.0,120.0,1.0,0.0
4138,90.0,180.0,90.0,1.0,0.0
4139,82.0,240.0,150.0,1.0,0.0
4140,82.0,240.0,150.0,1.0,0.0
4141,74.0,0.0,150.0,5.0,0.0
4142,80.0,0.0,150.0,4.0,0.0
4143,75.0,240.0,150.0,5.0,0.0
4144,78.0,0.0,150.0,4.0,0.0
4145,82.0,0.0,150.0,1.0,0.0
4146,74.0,0.0,150.0,5.0,0.0
4147,80.0,0.0,150.0,4.0,0.0
4148,82.0,204.0,150.0,1.0,0.0
4149,75.0,48.0,180.0,5.0,0.0
4150,78.0,0.0,180.0,4.0,0.0
4151,82.0,72.0,120.0,1.0,0.0
4152,84.0,120.0,120.0,1.0,0.0
4153,86.0,96.0,120.0,1.0,0.0
4154,87.0,384.0,90.0,1.0,0.0
4155,78.0,36.0,360.0,1.0,0.0
4156,70.0,0.0,150.0,5.0,0.0
4157,73.0,84.0,150.0,4.0,0.0
4158,82.0,360.0,120.0,1.0,0.0
4159,80.0,36.0,360.0,1.0,0.0
4160,71.0,84.0,150.0,5.0,0.0
4161,75.0,0.0,150.0,4.0,0.0
4162,83.0,360.0,120.0,1.0,0.0
4163,77.0,36.0,360.0,1.0,0.0
4164,61.0,84.0,150.0,5.0,0.0
4165,71.0,0.0,150.0,4.0,0.0
4166,80.0,360.0,120.0,1.0,0.0
4167,78.0,36.0,360.0,1.0,0.0
4168,46.0,240.0,150.0,5.0,0.0
4169,58.0,0.0,150.0,5.0,0.0
4170,47.0,240.0,150.0,5.0,0.0
4171,59.0,0.0,150.0,5.0,0.0
4172,61.0,324.0,150.0,5.0,0.0
4173,49.0,0.0,150.0,5.0,0.0
4174,42.0,0.0,240.0,5.0,0.0
4175,54.0,600.0,240.0,5.0,0.0
4176,85.0,480.0,360.0,1.0,0.0
4177,85.0,0.0,360.0,1.0,0.0
4178,66.0,0.0,360.0,3.0,0.0
4179,73.0,480.0,360.0,3.0,0.0
4180,69.0,0.0,360.0,3.0,0.0
4181,66.0,0.0,360.0,3.0,0.0
4182,73.0,72.0,360.0,3.0,0.0
4183,69.0,0.0,360.0,3.0,0.0
4184,90.0,408.0,180.0,1.0,0.0
4185,81.0,480.0,360.0,1.0,0.0
4186,81.0,0.0,360.0,1.0,0.0
4187,73.0,0.0,360.0,3.0,0.0
4188,66.0,0.0,360.0,3.0,0.0
4189,69.0,480.0,360.0,3.0,0.0
4190,73.0,72.0,360.0,3.0,0.0
4191,66.0,0.0,360.0,3.0,0.0
4192,69.0,0.0,360.0,3.0,0.0
4193,85.0,288.0,180.0,1.0,0.0
4194,69.0,0.0,480.0,3.0,0.0
4195,78.0,60.0,240.0,1.0,0.0
4196,61.0,0.0,1440.0,5.0,0.0
4197,80.0,60.0,60.0,1.0,0.0
4198,78.0,60.0,60.0,1.0,0.0
4199,77.0,60.0,60.0,1.0,0.0
4200,78.0,480.0,60.0,1.0,0.0
4201,73.0,240.0,480.0,3.0,0.0
4202,81.0,240.0,720.0,1.0,0.0
4203,71.0,0.0,480.0,3.0,0.0
4204,80.0,156.0,240.0,1.0,0.0
4205,69.0,36.0,360.0,3.0,0.0
4206,78.0,204.0,150.0,1.0,0.0
4207,66.0,0.0,360.0,5.0,0.0
4208,77.0,240.0,150.0,1.0,0.0
4209,78.0,240.0,150.0,1.0,0.0
4210,80.0,240.0,150.0,1.0,0.0
4211,81.0,240.0,150.0,1.0,0.0
4212,83.0,324.0,150.0,1.0,0.0
4213,85.0,60.0,240.0,1.0,0.0
4214,66.0,72.0,1320.0,5.0,0.0
4215,87.0,60.0,60.0,1.0,0.0
4216,85.0,60.0,60.0,1.0,0.0
4217,84.0,60.0,60.0,1.0,0.0
4218,85.0,192.0,60.0,1.0,0.0
4219,87.0,168.0,180.0,1.0,0.0
4220,69.0,72.0,360.0,3.0,0.0
4221,73.0,0.0,360.0,3.0,0.0
4222,89.0,240.0,180.0,1.0,0.0
4223,90.0,168.0,180.0,1.0,0.0
4224,69.0,0.0,360.0,3.0,0.0
4225,73.0,0.0,360.0,3.0,0.0
4226,92.0,204.0,180.0,1.0,0.0
4227,66.0,0.0,1320.0,5.0,0.0
4228,93.0,324.0,150.0,1.0,0.0
4229,89.0,156.0,240.0,1.0,0.0
4230,90.0,204.0,150.0,1.0,0.0
4231,73.0,0.0,360.0,3.0,0.0
4232,69.0,120.0,360.0,3.0,0.0
4233,84.0,156.0,240.0,1.0,0.0
4234,69.0,0.0,360.0,3.0,0.0
4235,85.0,204.0,150.0,1.0,0.0
4236,73.0,120.0,360.0,3.0,0.0
4237,80.0,240.0,240.0,1.0,0.0
4238,61.0,72.0,1320.0,5.0,0.0
4239,81.0,60.0,240.0,1.0,0.0
4240,83.0,60.0,60.0,1.0,0.0
4241,81.0,60.0,60.0,1.0,0.0
4242,80.0,60.0,60.0,1.0,0.0
4243,81.0,480.0,60.0,1.0,0.0
4244,73.0,240.0,480.0,3.0,0.0
4245,85.0,120.0,720.0,1.0,0.0
4246,69.0,0.0,480.0,3.0,0.0
4247,71.0,0.0,360.0,3.0,0.0
4248,68.0,0.0,360.0,3.0,0.0
4249,77.0,528.0,180.0,1.0,0.0
4250,80.0,0.0,480.0,1.0,0.0
4251,71.0,360.0,480.0,2.0,0.0
4252,69.0,0.0,360.0,2.0,0.0
4253,78.0,480.0,360.0,1.0,0.0
4254,66.0,0.0,360.0,5.0,0.0
4255,54.0,480.0,360.0,5.0,0.0
4256,85.0,480.0,360.0,1.0,0.0
4257,85.0,0.0,360.0,1.0,0.0
4258,69.0,0.0,360.0,3.0,0.0
4259,66.0,480.0,360.0,3.0,0.0
4260,73.0,0.0,360.0,3.0,0.0
4261,69.0,0.0,360.0,3.0,0.0
4262,66.0,0.0,360.0,3.0,0.0
4263,73.0,72.0,360.0,3.0,0.0
4264,90.0,408.0,180.0,1.0,0.0
4265,81.0,480.0,360.0,1.0,0.0
4266,81.0,0.0,360.0,1.0,0.0
4267,73.0,480.0,360.0,3.0,0.0
4268,69.0,0.0,360.0,3.0,0.0
4269,66.0,0.0,360.0,3.0,0.0
4270,66.0,72.0,360.0,3.0,0.0
4271,73.0,0.0,360.0,3.0,0.0
4272,69.0,0.0,360.0,3.0,0.0
4273,85.0,288.0,180.0,1.0,0.0
4274,78.0,60.0,240.0,1.0,0.0
4275,69.0,0.0,480.0,3.0,0.0
4276,61.0,156.0,1440.0,5.0,0.0
4277,80.0,60.0,60.0,1.0,0.0
4278,78.0,60.0,60.0,1.0,0.0
4279,77.0,60.0,60.0,1.0,0.0
4280,78.0,480.0,60.0,1.0,0.0
4281,81.0,240.0,720.0,1.0,0.0
4282,73.0,240.0,480.0,3.0,0.0
4283,71.0,0.0,480.0,3.0,0.0
4284,80.0,0.0,240.0,1.0,0.0
4285,69.0,36.0,360.0,3.0,0.0
4286,66.0,0.0,360.0,5.0,0.0
4287,78.0,204.0,150.0,1.0,0.0
4288,77.0,240.0,150.0,1.0,0.0
4289,78.0,240.0,150.0,1.0,0.0
4290,80.0,240.0,150.0,1.0,0.0
4291,81.0,240.0,150.0,1.0,0.0
4292,83.0,324.0,150.0,1.0,0.0
4293,66.0,0.0,1320.0,5.0,0.0
4294,85.0,60.0,240.0,1.0,0.0
4295,87.0,60.0,60.0,1.0,0.0
4296,85.0,60.0,60.0,1.0,0.0
4297,84.0,60.0,60.0,1.0,0.0
4298,85.0,192.0,60.0,1.0,0.0
4299,69.0,0.0,360.0,3.0,0.0
4300,73.0,72.0,360.0,3.0,0.0
4301,87.0,168.0,180.0,1.0,0.0
4302,89.0,240.0,180.0,1.0,0.0
4303,90.0,168.0,180.0,1.0,0.0
4304,73.0,0.0,360.0,3.0,0.0
4305,69.0,72.0,360.0,3.0,0.0
4306,92.0,204.0,180.0,1.0,0.0
4307,66.0,0.0,1320.0,5.0,0.0
4308,93.0,324.0,150.0,1.0,0.0
4309,89.0,156.0,240.0,1.0,0.0
4310,90.0,204.0,150.0,1.0,0.0
4311,69.0,0.0,360.0,3.0,0.0
4312,73.0,120.0,360.0,3.0,0.0
4313,84.0,156.0,240.0,1.0,0.0
4314,85.0,204.0,150.0,1.0,0.0
4315,73.0,120.0,360.0,3.0,0.0
4316,69.0,0.0,360.0,3.0,0.0
4317,80.0,240.0,240.0,1.0,0.0
4318,81.0,60.0,240.0,1.0,0.0
4319,61.0,0.0,1320.0,5.0,0.0
4320,83.0,60.0,60.0,1.0,0.0
4321,81.0,60.0,60.0,1.0,0.0
4322,80.0,60.0,60.0,1.0,0.0
4323,81.0,480.0,60.0,1.0,0.0
4324,69.0,0.0,480.0,3.0,0.0
4325,73.0,240.0,480.0,3.0,0.0
4326,85.0,120.0,720.0,1.0,0.0
4327,71.0,72.0,360.0,3.0,0.0
4328,68.0,0.0,360.0,3.0,0.0
4329,77.0,528.0,180.0,1.0,0.0
4330,80.0,0.0,480.0,1.0,0.0
4331,71.0,360.0,480.0,2.0,0.0
4332,78.0,0.0,360.0,1.0,0.0
4333,66.0,480.0,360.0,5.0,0.0
4334,69.0,0.0,360.0,2.0,0.0
4335,54.0,480.0,360.0,5.0,0.0
4336,80.0,480.0,360.0,1.0,0.0
4337,65.0,72.0,360.0,4.0,0.0
4338,61.0,0.0,360.0,4.0,0.0
4339,80.0,240.0,180.0,1.0,0.0
4340,65.0,0.0,360.0,4.0,0.0
4341,80.0,168.0,180.0,1.0,0.0
4342,61.0,72.0,360.0,4.0,0.0
4343,80.0,88.0,180.0,1.0,0.0
4344,81.0,40.0,40.0,1.0,0.0
4345,80.0,40.0,40.0,1.0,0.0
4346,79.0,240.0,40.0,1.0,0.0
4347,80.0,120.0,240.0,1.0,0.0
4348,85.0,360.0,15.0,1.0,0.0
4349,73.0,0.0,360.0,4.0,0.0
4350,77.0,360.0,360.0,4.0,0.0
4351,73.0,120.0,360.0,4.0,0.0
4352,77.0,0.0,360.0,4.0,0.0
4353,80.0,240.0,240.0,1.0,0.0
4354,83.0,192.0,240.0,1.0,0.0
4355,81.0,408.0,180.0,1.0,0.0
4356,66.0,0.0,360.0,4.0,0.0
4357,73.0,72.0,360.0,4.0,0.0
4358,81.0,240.0,180.0,1.0,0.0
4359,66.0,72.0,360.0,4.0,0.0
4360,73.0,0.0,360.0,4.0,0.0
4361,81.0,168.0,180.0,1.0,0.0
4362,81.0,88.0,180.0,1.0,0.0
4363,83.0,40.0,40.0,1.0,0.0
4364,81.0,40.0,40.0,1.0,0.0
4365,80.0,240.0,40.0,1.0,0.0
4366,81.0,120.0,240.0,1.0,0.0
4367,83.0,360.0,120.0,1.0,0.0
4368,78.0,360.0,360.0,4.0,0.0
4369,81.0,0.0,360.0,4.0,0.0
4370,85.0,120.0,720.0,1.0,0.0
4371,81.0,120.0,360.0,4.0,0.0
4372,78.0,0.0,360.0,4.0,0.0
4373,90.0,240.0,240.0,1.0,0.0
4374,77.0,96.0,480.0,4.0,0.0
4375,83.0,0.0,480.0,4.0,0.0
4376,89.0,240.0,240.0,1.0,0.0
4377,86.0,0.0,240.0,1.0,0.0
4378,85.0,144.0,90.0,1.0,0.0
4379,78.0,0.0,360.0,4.0,0.0
4380,81.0,120.0,360.0,4.0,0.0
4381,93.0,120.0,120.0,1.0,0.0
4382,92.0,0.0,120.0,1.0,0.0
4383,90.0,120.0,120.0,1.0,0.0
4384,89.0,120.0,120.0,1.0,0.0
4385,90.0,120.0,120.0,1.0,0.0
4386,92.0,120.0,120.0,1.0,0.0
4387,90.0,240.0,120.0,1.0,0.0
4388,83.0,120.0,480.0,4.0,0.0
4389,89.0,240.0,240.0,1.0,0.0
4390,77.0,0.0,480.0,4.0,0.0
4391,86.0,0.0,240.0,1.0,0.0
4392,78.0,0.0,360.0,4.0,0.0
4393,81.0,0.0,360.0,4.0,0.0
4394,85.0,120.0,120.0,1.0,0.0
4395,86.0,120.0,120.0,1.0,0.0
4396,87.0,120.0,120.0,1.0,0.0
4397,88.0,120.0,120.0,1.0,0.0
4398,89.0,120.0,120.0,1.0,0.0
4399,90.0,120.0,120.0,1.0,0.0
4400,92.0,96.0,120.0,1.0,0.0
4401,93.0,180.0,90.0,1.0,0.0
4402,75.0,240.0,480.0,5.0,0.0
4403,93.0,240.0,150.0,1.0,0.0
4404,84.0,84.0,150.0,1.0,0.0
4405,77.0,240.0,480.0,5.0,0.0
4406,83.0,156.0,240.0,1.0,0.0
4407,92.0,84.0,150.0,1.0,0.0
4408,81.0,0.0,240.0,1.0,0.0
4409,78.0,156.0,240.0,5.0,0.0
4410,87.0,36.0,150.0,1.0,0.0
4411,72.0,528.0,180.0,5.0,0.0
4412,78.0,187.0,960.0,4.0,0.0
4413,73.0,5.0,1140.0,5.0,0.0
4414,85.0,120.0,480.0,1.0,0.0
4415,83.0,120.0,120.0,1.0,0.0
4416,81.0,120.0,120.0,1.0,0.0
4417,80.0,120.0,120.0,1.0,0.0
4418,81.0,0.0,120.0,1.0,0.0
4419,77.0,648.0,180.0,4.0,0.0
4420,80.0,0.0,180.0,1.0,0.0
4421,85.0,480.0,360.0,1.0,0.0
4422,66.0,0.0,360.0,4.0,0.0
4423,69.0,0.0,360.0,4.0,0.0
4424,73.0,40.0,360.0,4.0,0.0
4425,85.0,0.0,360.0,1.0,0.0
4426,86.0,40.0,40.0,1.0,0.0
4427,85.0,40.0,40.0,1.0,0.0
4428,84.0,240.0,40.0,1.0,0.0
4429,66.0,120.0,360.0,4.0,0.0
4430,73.0,0.0,360.0,4.0,0.0
4431,85.0,120.0,240.0,1.0,0.0
4432,69.0,0.0,360.0,4.0,0.0
4433,90.0,360.0,240.0,1.0,0.0
4434,90.0,96.0,360.0,1.0,0.0
4435,81.0,384.0,90.0,1.0,0.0
4436,66.0,0.0,360.0,4.0,0.0
4437,81.0,0.0,360.0,1.0,0.0
4438,69.0,40.0,360.0,4.0,0.0
4439,73.0,0.0,360.0,4.0,0.0
4440,83.0,40.0,40.0,1.0,0.0
4441,81.0,40.0,40.0,1.0,0.0
4442,80.0,240.0,40.0,1.0,0.0
4443,69.0,360.0,360.0,4.0,0.0
4444,66.0,0.0,360.0,4.0,0.0
4445,81.0,120.0,240.0,1.0,0.0
4446,73.0,0.0,360.0,4.0,0.0
4447,85.0,240.0,480.0,1.0,0.0
4448,61.0,96.0,1440.0,5.0,0.0
4449,69.0,240.0,480.0,4.0,0.0
4450,78.0,240.0,480.0,1.0,0.0
4451,73.0,240.0,480.0,4.0,0.0
4452,81.0,240.0,480.0,1.0,0.0
4453,71.0,0.0,480.0,4.0,0.0
4454,80.0,0.0,240.0,1.0,0.0
4455,78.0,84.0,90.0,1.0,0.0
4456,69.0,0.0,360.0,4.0,0.0
4457,66.0,78.0,360.0,5.0,0.0
4458,80.0,60.0,60.0,1.0,0.0
4459,78.0,78.0,60.0,1.0,0.0
4460,77.0,42.0,90.0,1.0,0.0
4461,78.0,120.0,90.0,1.0,0.0
4462,80.0,120.0,90.0,1.0,0.0
4463,81.0,120.0,90.0,1.0,0.0
4464,83.0,120.0,90.0,1.0,0.0
4465,85.0,120.0,90.0,1.0,0.0
4466,87.0,120.0,90.0,1.0,0.0
4467,89.0,120.0,90.0,1.0,0.0
4468,90.0,120.0,90.0,1.0,0.0
4469,92.0,198.0,90.0,1.0,0.0
4470,93.0,324.0,150.0,1.0,0.0
4471,66.0,0.0,1320.0,5.0,0.0
4472,89.0,156.0,240.0,1.0,0.0
4473,90.0,204.0,150.0,1.0,0.0
4474,69.0,0.0,360.0,4.0,0.0
4475,73.0,120.0,360.0,4.0,0.0
4476,84.0,156.0,240.0,1.0,0.0
4477,69.0,120.0,360.0,4.0,0.0
4478,73.0,0.0,360.0,4.0,0.0
4479,85.0,204.0,150.0,1.0,0.0
4480,81.0,120.0,240.0,1.0,0.0
4481,59.0,0.0,1140.0,5.0,0.0
4482,79.0,40.0,120.0,1.0,0.0
4483,62.0,0.0,1140.0,4.0,0.0
4484,67.0,0.0,1140.0,4.0,0.0
4485,81.0,40.0,40.0,1.0,0.0
4486,79.0,40.0,40.0,1.0,0.0
4487,78.0,120.0,40.0,1.0,0.0
4488,79.0,120.0,120.0,1.0,0.0
4489,81.0,120.0,120.0,1.0,0.0
4490,83.0,40.0,120.0,1.0,0.0
4491,85.0,40.0,40.0,1.0,0.0
4492,83.0,40.0,40.0,1.0,0.0
4493,82.0,120.0,40.0,1.0,0.0
4494,83.0,120.0,120.0,1.0,0.0
4495,85.0,192.0,120.0,1.0,0.0
4496,86.0,528.0,180.0,1.0,0.0
4497,69.0,0.0,360.0,4.0,0.0
4498,78.0,60.0,240.0,1.0,0.0
4499,61.0,0.0,360.0,5.0,0.0
4500,80.0,60.0,60.0,1.0,0.0
4501,78.0,60.0,60.0,1.0,0.0
4502,77.0,60.0,60.0,1.0,0.0
4503,78.0,720.0,60.0,1.0,0.0
4504,81.0,0.0,720.0,1.0,0.0
4505,73.0,120.0,720.0,2.0,0.0
4506,49.0,120.0,360.0,5.0,0.0
4507,71.0,360.0,240.0,2.0,0.0
4508,80.0,0.0,240.0,1.0,0.0
4509,54.0,0.0,360.0,5.0,0.0
4510,78.0,480.0,360.0,1.0,0.0
4511,69.0,0.0,360.0,2.0,0.0
4512,49.0,480.0,360.0,5.0,0.0
4513,42.0,480.0,360.0,5.0,0.0
4514,80.0,480.0,360.0,1.0,0.0
4515,65.0,72.0,360.0,4.0,0.0
4516,61.0,0.0,360.0,4.0,0.0
4517,80.0,240.0,180.0,1.0,0.0
4518,65.0,72.0,360.0,4.0,0.0
4519,80.0,168.0,180.0,1.0,0.0
4520,61.0,0.0,360.0,4.0,0.0
4521,80.0,88.0,180.0,1.0,0.0
4522,81.0,40.0,40.0,1.0,0.0
4523,80.0,40.0,40.0,1.0,0.0
4524,79.0,240.0,40.0,1.0,0.0
4525,80.0,120.0,240.0,1.0,0.0
4526,85.0,360.0,120.0,1.0,0.0
4527,77.0,360.0,360.0,4.0,0.0
4528,73.0,0.0,360.0,4.0,0.0
4529,85.0,120.0,720.0,1.0,0.0
4530,77.0,120.0,360.0,4.0,0.0
4531,73.0,0.0,360.0,4.0,0.0
4532,80.0,240.0,240.0,1.0,0.0
4533,83.0,192.0,240.0,1.0,0.0
4534,81.0,408.0,180.0,1.0,0.0
4535,66.0,72.0,360.0,4.0,0.0
4536,73.0,0.0,360.0,4.0,0.0
4537,81.0,240.0,180.0,1.0,0.0
4538,66.0,72.0,360.0,4.0,0.0
4539,73.0,0.0,360.0,4.0,0.0
4540,81.0,168.0,180.0,1.0,0.0
4541,81.0,88.0,180.0,1.0,0.0
4542,83.0,40.0,40.0,1.0,0.0
4543,81.0,40.0,40.0,1.0,0.0
4544,80.0,240.0,40.0,1.0,0.0
4545,81.0,120.0,240.0,1.0,0.0
4546,83.0,360.0,120.0,1.0,0.0
4547,78.0,0.0,360.0,4.0,0.0
4548,81.0,360.0,360.0,4.0,0.0
4549,85.0,120.0,720.0,1.0,0.0
4550,78.0,0.0,360.0,4.0,0.0
4551,81.0,120.0,360.0,4.0,0.0
4552,90.0,240.0,240.0,1.0,0.0
4553,89.0,240.0,240.0,1.0,0.0
4554,77.0,0.0,480.0,4.0,0.0
4555,83.0,0.0,480.0,4.0,0.0
4556,86.0,96.0,240.0,1.0,0.0
4557,85.0,144.0,90.0,1.0,0.0
4558,81.0,120.0,360.0,4.0,0.0
4559,78.0,0.0,360.0,4.0,0.0
4560,93.0,120.0,120.0,1.0,0.0
4561,92.0,0.0,120.0,1.0,0.0
4562,90.0,120.0,120.0,1.0,0.0
4563,89.0,120.0,120.0,1.0,0.0
4564,90.0,120.0,120.0,1.0,0.0
4565,92.0,120.0,120.0,1.0,0.0
4566,90.0,240.0,120.0,1.0,0.0
4567,89.0,240.0,240.0,1.0,0.0
4568,83.0,0.0,480.0,4.0,0.0
4569,77.0,120.0,480.0,4.0,0.0
4570,86.0,0.0,240.0,1.0,0.0
4571,78.0,120.0,360.0,4.0,0.0
4572,81.0,0.0,360.0,4.0,0.0
4573,85.0,120.0,120.0,1.0,0.0
4574,86.0,120.0,120.0,1.0,0.0
4575,87.0,0.0,120.0,1.0,0.0
4576,88.0,120.0,120.0,1.0,0.0
4577,89.0,120.0,120.0,1.0,0.0
4578,90.0,120.0,120.0,1.0,0.0
4579,92.0,96.0,120.0,1.0,0.0
4580,93.0,180.0,90.0,1.0,0.0
4581,93.0,240.0,150.0,1.0,0.0
4582,75.0,240.0,480.0,5.0,0.0
4583,84.0,84.0,150.0,1.0,0.0
4584,77.0,240.0,480.0,5.0,0.0
4585,83.0,156.0,240.0,1.0,0.0
4586,92.0,84.0,150.0,1.0,0.0
4587,78.0,156.0,240.0,5.0,0.0
4588,81.0,0.0,240.0,1.0,0.0
4589,87.0,36.0,150.0,1.0,0.0
4590,72.0,528.0,180.0,5.0,0.0
4591,85.0,120.0,480.0,1.0,0.0
4592,78.0,187.0,960.0,4.0,0.0
4593,73.0,5.0,1140.0,5.0,0.0
4594,83.0,120.0,120.0,1.0,0.0
4595,81.0,120.0,120.0,1.0,0.0
4596,80.0,120.0,120.0,1.0,0.0
4597,81.0,0.0,120.0,1.0,0.0
4598,80.0,0.0,180.0,1.0,0.0
4599,77.0,648.0,180.0,4.0,0.0
4600,85.0,480.0,360.0,1.0,0.0
4601,69.0,0.0,360.0,4.0,0.0
4602,66.0,40.0,360.0,4.0,0.0
4603,73.0,0.0,360.0,4.0,0.0
4604,85.0,0.0,360.0,1.0,0.0
4605,86.0,40.0,40.0,1.0,0.0
4606,85.0,40.0,40.0,1.0,0.0
4607,84.0,240.0,40.0,1.0,0.0
4608,69.0,0.0,360.0,4.0,0.0
4609,73.0,120.0,360.0,4.0,0.0
4610,85.0,120.0,240.0,1.0,0.0
4611,66.0,0.0,360.0,4.0,0.0
4612,90.0,360.0,240.0,1.0,0.0
4613,90.0,96.0,360.0,1.0,0.0
4614,81.0,384.0,90.0,1.0,0.0
4615,66.0,0.0,360.0,4.0,0.0
4616,69.0,0.0,360.0,4.0,0.0
4617,81.0,0.0,360.0,1.0,0.0
4618,73.0,40.0,360.0,4.0,0.0
4619,83.0,40.0,40.0,1.0,0.0
4620,81.0,40.0,40.0,1.0,0.0
4621,80.0,240.0,40.0,1.0,0.0
4622,81.0,120.0,240.0,1.0,0.0
4623,73.0,0.0,360.0,4.0,0.0
4624,66.0,0.0,360.0,4.0,0.0
4625,69.0,360.0,360.0,4.0,0.0
4626,85.0,240.0,480.0,1.0,0.0
4627,69.0,240.0,480.0,4.0,0.0
4628,61.0,96.0,1440.0,5.0,0.0
4629,78.0,240.0,480.0,1.0,0.0
4630,73.0,240.0,480.0,4.0,0.0
4631,81.0,240.0,480.0,1.0,0.0
4632,71.0,0.0,480.0,4.0,0.0
4633,80.0,0.0,240.0,1.0,0.0
4634,69.0,0.0,360.0,4.0,0.0
4635,78.0,84.0,90.0,1.0,0.0
4636,66.0,78.0,360.0,5.0,0.0
4637,80.0,60.0,60.0,1.0,0.0
4638,78.0,78.0,60.0,1.0,0.0
4639,77.0,42.0,90.0,1.0,0.0
4640,78.0,120.0,90.0,1.0,0.0
4641,80.0,120.0,90.0,1.0,0.0
4642,81.0,120.0,90.0,1.0,0.0
4643,83.0,120.0,90.0,1.0,0.0
4644,85.0,120.0,90.0,1.0,0.0
4645,87.0,120.0,90.0,1.0,0.0
4646,89.0,120.0,90.0,1.0,0.0
4647,90.0,120.0,90.0,1.0,0.0
4648,92.0,198.0,90.0,1.0,0.0
4649,66.0,0.0,1320.0,5.0,0.0
4650,93.0,324.0,150.0,1.0,0.0
4651,89.0,156.0,240.0,1.0,0.0
4652,73.0,0.0,360.0,4.0,0.0
4653,90.0,204.0,150.0,1.0,0.0
4654,69.0,120.0,360.0,4.0,0.0
4655,84.0,156.0,240.0,1.0,0.0
4656,85.0,204.0,150.0,1.0,0.0
4657,73.0,120.0,360.0,4.0,0.0
4658,69.0,0.0,360.0,4.0,0.0
4659,81.0,120.0,240.0,1.0,0.0
4660,79.0,40.0,120.0,1.0,0.0
4661,59.0,0.0,1140.0,5.0,0.0
4662,62.0,0.0,1140.0,4.0,0.0
4663,67.0,0.0,1140.0,4.0,0.0
4664,81.0,40.0,40.0,1.0,0.0
4665,79.0,40.0,40.0,1.0,0.0
4666,78.0,120.0,40.0,1.0,0.0
4667,79.0,120.0,120.0,1.0,0.0
4668,81.0,120.0,120.0,1.0,0.0
4669,83.0,40.0,120.0,1.0,0.0
4670,85.0,40.0,40.0,1.0,0.0
4671,83.0,40.0,40.0,1.0,0.0
4672,82.0,120.0,40.0,1.0,0.0
4673,83.0,120.0,120.0,1.0,0.0
4674,85.0,192.0,120.0,1.0,0.0
4675,86.0,528.0,180.0,1.0,0.0
4676,61.0,0.0,360.0,5.0,0.0
4677,78.0,60.0,240.0,1.0,0.0
4678,69.0,0.0,360.0,4.0,0.0
4679,80.0,60.0,60.0,1.0,0.0
4680,78.0,60.0,60.0,1.0,0.0
4681,77.0,60.0,60.0,1.0,0.0
4682,78.0,720.0,60.0,1.0,0.0
4683,81.0,120.0,720.0,1.0,0.0
4684,73.0,0.0,720.0,2.0,0.0
4685,49.0,120.0,360.0,5.0,0.0
4686,71.0,0.0,240.0,2.0,0.0
4687,80.0,360.0,240.0,1.0,0.0
4688,54.0,0.0,360.0,5.0,0.0
4689,69.0,0.0,360.0,2.0,0.0
4690,78.0,480.0,360.0,1.0,0.0
4691,49.0,480.0,360.0,5.0,0.0
4692,42.0,216.0,360.0,5.0,0.0
4693,66.0,0.0,1200.0,5.0,0.0
4694,73.0,120.0,90.0,1.0,0.0
4695,70.0,96.0,240.0,4.0,0.0
4696,85.0,24.0,90.0,1.0,0.0
4697,69.0,96.0,240.0,4.0,0.0
4698,72.0,120.0,90.0,1.0,0.0
4699,84.0,24.0,90.0,1.0,0.0
4700,73.0,120.0,90.0,1.0,0.0
4701,70.0,96.0,240.0,4.0,0.0
4702,85.0,24.0,90.0,1.0,0.0
4703,72.0,120.0,90.0,1.0,0.0
4704,69.0,96.0,240.0,4.0,0.0
4705,84.0,24.0,90.0,1.0,0.0
4706,73.0,120.0,90.0,1.0,0.0
4707,70.0,96.0,240.0,4.0,0.0
4708,85.0,24.0,90.0,1.0,0.0
4709,78.0,120.0,90.0,1.0,0.0
4710,90.0,120.0,90.0,1.0,0.0
4711,54.0,96.0,1200.0,5.0,0.0
4712,61.0,96.0,240.0,4.0,0.0
4713,70.0,120.0,90.0,1.0,0.0
4714,82.0,24.0,90.0,1.0,0.0
4715,60.0,96.0,240.0,4.0,0.0
4716,69.0,120.0,90.0,1.0,0.0
4717,81.0,24.0,90.0,1.0,0.0
4718,70.0,120.0,90.0,1.0,0.0
4719,61.0,96.0,240.0,4.0,0.0
4720,82.0,24.0,90.0,1.0,0.0
4721,60.0,96.0,240.0,4.0,0.0
4722,69.0,120.0,90.0,1.0,0.0
4723,81.0,24.0,90.0,1.0,0.0
4724,70.0,120.0,90.0,1.0,0.0
4725,61.0,0.0,240.0,4.0,0.0
4726,82.0,24.0,90.0,1.0,0.0
4727,73.0,120.0,90.0,1.0,0.0
4728,85.0,120.0,90.0,1.0,0.0
4729,63.0,60.0,150.0,5.0,0.0
4730,51.0,0.0,150.0,5.0,0.0
4731,66.0,60.0,90.0,1.0,0.0
4732,78.0,120.0,90.0,1.0,0.0
4733,70.0,120.0,90.0,1.0,0.0
4734,82.0,120.0,90.0,1.0,0.0
4735,47.0,60.0,150.0,5.0,0.0
4736,68.0,60.0,90.0,1.0,0.0
4737,59.0,0.0,150.0,5.0,0.0
4738,80.0,120.0,90.0,1.0,0.0
4739,71.0,120.0,90.0,1.0,0.0
4740,83.0,120.0,90.0,1.0,0.0
4741,65.0,60.0,90.0,1.0,0.0
4742,49.0,0.0,150.0,5.0,0.0
4743,61.0,60.0,150.0,5.0,0.0
4744,77.0,120.0,90.0,1.0,0.0
4745,68.0,120.0,90.0,1.0,0.0
4746,80.0,120.0,90.0,1.0,0.0
4747,42.0,96.0,360.0,5.0,0.0
4748,54.0,0.0,360.0,5.0,0.0
4749,66.0,120.0,90.0,1.0,0.0
4750,78.0,120.0,90.0,1.0,0.0
4751,65.0,24.0,90.0,1.0,0.0
4752,77.0,120.0,90.0,1.0,0.0
4753,66.0,120.0,90.0,1.0,0.0
4754,78.0,120.0,90.0,1.0,0.0
4755,68.0,120.0,90.0,1.0,0.0
4756,80.0,120.0,90.0,1.0,0.0
4757,70.0,120.0,90.0,1.0,0.0
4758,82.0,120.0,90.0,1.0,0.0
4759,71.0,120.0,90.0,1.0,0.0
4760,83.0,180.0,90.0,1.0,0.0
4761,73.0,0.0,960.0,1.0,0.0
4762,54.0,60.0,150.0,5.0,0.0
4763,82.0,0.0,960.0,2.0,0.0
4764,85.0,156.0,960.0,1.0,0.0
4765,66.0,180.0,90.0,4.0,0.0
4766,58.0,60.0,150.0,5.0,0.0
4767,70.0,180.0,90.0,4.0,0.0
4768,56.0,60.0,150.0,5.0,0.0
4769,68.0,180.0,90.0,4.0,0.0
4770,54.0,60.0,150.0,5.0,0.0
4771,66.0,24.0,90.0,4.0,0.0
4772,82.0,0.0,180.0,2.0,0.0
4773,53.0,36.0,150.0,5.0,0.0
4774,90.0,0.0,180.0,1.0,0.0
4775,78.0,24.0,180.0,1.0,0.0
4776,65.0,180.0,90.0,4.0,0.0
4777,51.0,60.0,150.0,5.0,0.0
4778,63.0,180.0,90.0,4.0,0.0
4779,49.0,60.0,150.0,5.0,0.0
4780,70.0,0.0,960.0,1.0,0.0
4781,78.0,156.0,960.0,2.0,0.0
4782,82.0,0.0,960.0,1.0,0.0
4783,61.0,180.0,90.0,4.0,0.0
4784,47.0,60.0,150.0,5.0,0.0
4785,59.0,180.0,90.0,4.0,0.0
4786,46.0,60.0,150.0,5.0,0.0
4787,58.0,180.0,90.0,4.0,0.0
4788,44.0,60.0,150.0,5.0,0.0
4789,56.0,24.0,90.0,4.0,0.0
4790,73.0,0.0,180.0,1.0,0.0
4791,85.0,24.0,180.0,1.0,0.0
4792,82.0,0.0,180.0,2.0,0.0
4793,42.0,36.0,150.0,5.0,0.0
4794,54.0,180.0,90.0,4.0,0.0
4795,41.0,60.0,150.0,5.0,0.0
4796,53.0,180.0,90.0,4.0,0.0
4797,39.0,84.0,150.0,5.0,0.0
4798,51.0,0.0,150.0,4.0,0.0
4799,71.0,120.0,120.0,1.0,0.0
4800,78.0,96.0,120.0,1.0,0.0
4801,83.0,180.0,90.0,1.0,0.0
4802,49.0,0.0,150.0,4.0,0.0
4803,37.0,84.0,150.0,5.0,0.0
4804,73.0,120.0,120.0,1.0,0.0
4805,78.0,96.0,120.0,1.0,0.0
4806,82.0,180.0,90.0,1.0,0.0
4807,37.0,84.0,150.0,5.0,0.0
4808,49.0,0.0,150.0,4.0,0.0
4809,71.0,120.0,120.0,1.0,0.0
4810,77.0,120.0,120.0,1.0,0.0
4811,80.0,240.0,120.0,1.0,0.0
4812,78.0,120.0,360.0,1.0,0.0
4813,70.0,0.0,360.0,1.0,0.0
4814,54.0,120.0,120.0,5.0,0.0
4815,58.0,0.0,120.0,5.0,0.0
4816,54.0,120.0,120.0,5.0,0.0
4817,49.0,120.0,120.0,5.0,0.0
4818,54.0,120.0,120.0,5.0,0.0
4819,46.0,120.0,120.0,5.0,0.0
4820,49.0,288.0,120.0,5.0,0.0
4821,42.0,288.0,300.0,5.0,0.0
4822,66.0,0.0,1200.0,5.0,0.0
4823,70.0,96.0,240.0,4.0,0.0
4824,73.0,120.0,90.0,1.0,0.0
4825,85.0,24.0,90.0,1.0,0.0
4826,69.0,96.0,240.0,4.0,0.0
4827,72.0,120.0,90.0,1.0,0.0
4828,84.0,24.0,90.0,1.0,0.0
4829,73.0,120.0,90.0,1.0,0.0
4830,70.0,96.0,240.0,4.0,0.0
4831,85.0,24.0,90.0,1.0,0.0
4832,72.0,120.0,90.0,1.0,0.0
4833,69.0,96.0,240.0,4.0,0.0
4834,84.0,24.0,90.0,1.0,0.0
4835,70.0,96.0,240.0,4.0,0.0
4836,73.0,120.0,90.0,1.0,0.0
4837,85.0,24.0,90.0,1.0,0.0
4838,78.0,120.0,90.0,1.0,0.0
4839,90.0,120.0,90.0,1.0,0.0
4840,70.0,120.0,90.0,1.0,0.0
4841,54.0,96.0,1200.0,5.0,0.0
4842,61.0,96.0,240.0,4.0,0.0
4843,82.0,24.0,90.0,1.0,0.0
4844,69.0,120.0,90.0,1.0,0.0
4845,60.0,96.0,240.0,4.0,0.0
4846,81.0,24.0,90.0,1.0,0.0
4847,61.0,96.0,240.0,4.0,0.0
4848,70.0,120.0,90.0,1.0,0.0
4849,82.0,24.0,90.0,1.0,0.0
4850,69.0,120.0,90.0,1.0,0.0
4851,60.0,96.0,240.0,4.0,0.0
4852,81.0,24.0,90.0,1.0,0.0
4853,61.0,0.0,240.0,4.0,0.0
4854,70.0,120.0,90.0,1.0,0.0
4855,82.0,24.0,90.0,1.0,0.0
4856,73.0,120.0,90.0,1.0,0.0
4857,85.0,120.0,90.0,1.0,0.0
4858,63.0,60.0,150.0,5.0,0.0
4859,51.0,0.0,150.0,5.0,0.0
4860,66.0,60.0,90.0,1.0,0.0
4861,78.0,120.0,90.0,1.0,0.0
4862,70.0,120.0,90.0,1.0,0.0
4863,82.0,120.0,90.0,1.0,0.0
4864,59.0,0.0,150.0,5.0,0.0
4865,47.0,60.0,150.0,5.0,0.0
4866,68.0,60.0,90.0,1.0,0.0
4867,80.0,120.0,90.0,1.0,0.0
4868,71.0,120.0,90.0,1.0,0.0
4869,83.0,120.0,90.0,1.0,0.0
4870,49.0,0.0,150.0,5.0,0.0
4871,61.0,60.0,150.0,5.0,0.0
4872,65.0,60.0,90.0,1.0,0.0
4873,77.0,120.0,90.0,1.0,0.0
4874,68.0,120.0,90.0,1.0,0.0
4875,80.0,120.0,90.0,1.0,0.0
4876,66.0,120.0,90.0,1.0,0.0
4877,42.0,96.0,360.0,5.0,0.0
4878,54.0,0.0,360.0,5.0,0.0
4879,78.0,120.0,90.0,1.0,0.0
4880,65.0,24.0,90.0,1.0,0.0
4881,77.0,120.0,90.0,1.0,0.0
4882,66.0,120.0,90.0,1.0,0.0
4883,78.0,120.0,90.0,1.0,0.0
4884,68.0,120.0,90.0,1.0,0.0
4885,80.0,120.0,90.0,1.0,0.0
4886,70.0,120.0,90.0,1.0,0.0
4887,82.0,120.0,90.0,1.0,0.0
4888,71.0,120.0,90.0,1.0,0.0
4889,83.0,180.0,90.0,1.0,0.0
4890,54.0,60.0,150.0,5.0,0.0
4891,82.0,156.0,960.0,2.0,0.0
4892,73.0,0.0,960.0,1.0,0.0
4893,85.0,0.0,960.0,1.0,0.0
4894,66.0,180.0,90.0,4.0,0.0
4895,58.0,60.0,150.0,5.0,0.0
4896,70.0,180.0,90.0,4.0,0.0
4897,56.0,60.0,150.0,5.0,0.0
4898,68.0,180.0,90.0,4.0,0.0
4899,54.0,60.0,150.0,5.0,0.0
4900,66.0,24.0,90.0,4.0,0.0
4901,78.0,0.0,180.0,1.0,0.0
4902,82.0,0.0,180.0,2.0,0.0
4903,90.0,24.0,180.0,1.0,0.0
4904,53.0,36.0,150.0,5.0,0.0
4905,65.0,180.0,90.0,4.0,0.0
4906,51.0,60.0,150.0,5.0,0.0
4907,63.0,180.0,90.0,4.0,0.0
4908,49.0,60.0,150.0,5.0,0.0
4909,70.0,0.0,960.0,1.0,0.0
4910,82.0,156.0,960.0,1.0,0.0
4911,78.0,0.0,960.0,2.0,0.0
4912,61.0,180.0,90.0,4.0,0.0
4913,47.0,60.0,150.0,5.0,0.0
4914,59.0,180.0,90.0,4.0,0.0
4915,46.0,60.0,150.0,5.0,0.0
4916,58.0,180.0,90.0,4.0,0.0
4917,44.0,60.0,150.0,5.0,0.0
4918,56.0,24.0,90.0,4.0,0.0
4919,73.0,24.0,180.0,1.0,0.0
4920,85.0,0.0,180.0,1.0,0.0
4921,42.0,36.0,150.0,5.0,0.0
4922,82.0,0.0,180.0,2.0,0.0
4923,54.0,180.0,90.0,4.0,0.0
4924,41.0,60.0,150.0,5.0,0.0
4925,53.0,180.0,90.0,4.0,0.0
4926,39.0,84.0,150.0,5.0,0.0
4927,51.0,0.0,150.0,4.0,0.0
4928,71.0,120.0,120.0,1.0,0.0
4929,78.0,96.0,120.0,1.0,0.0
4930,83.0,180.0,90.0,1.0,0.0
4931,49.0,0.0,150.0,4.0,0.0
4932,37.0,84.0,150.0,5.0,0.0
4933,73.0,120.0,120.0,1.0,0.0
4934,78.0,96.0,120.0,1.0,0.0
4935,82.0,180.0,90.0,1.0,0.0
4936,37.0,84.0,150.0,5.0,0.0
4937,49.0,0.0,150.0,4.0,0.0
4938,71.0,120.0,120.0,1.0,0.0
4939,77.0,120.0,120.0,1.0,0.0
4940,80.0,240.0,120.0,1.0,0.0
4941,78.0,0.0,360.0,1.0,0.0
4942,70.0,120.0,360.0,1.0,0.0
4943,54.0,120.0,120.0,5.0,0.0
4944,58.0,0.0,120.0,5.0,0.0
4945,54.0,120.0,120.0,5.0,0.0
4946,49.0,120.0,120.0,5.0,0.0
4947,54.0,120.0,120.0,5.0,0.0
4948,46.0,120.0,120.0,5.0,0.0
4949,49.0,288.0,120.0,5.0,0.0
4950,42.0,288.0,300.0,5.0,0.0
4951,65.0,96.0,240.0,4.0,0.0
4952,61.0,27.0,2820.0,5.0,0.0
4953,68.0,120.0,90.0,1.0,0.0
4954,80.0,24.0,90.0,1.0,0.0
4955,64.0,96.0,240.0,4.0,0.0
4956,67.0,120.0,90.0,1.0,0.0
4957,79.0,24.0,90.0,1.0,0.0
4958,68.0,120.0,90.0,1.0,0.0
4959,65.0,96.0,240.0,4.0,0.0
4960,80.0,24.0,90.0,1.0,0.0
4961,64.0,96.0,240.0,4.0,0.0
4962,67.0,120.0,90.0,1.0,0.0
4963,79.0,24.0,90.0,1.0,0.0
4964,68.0,120.0,90.0,1.0,0.0
4965,65.0,96.0,240.0,4.0,0.0
4966,80.0,24.0,90.0,1.0,0.0
4967,66.0,96.0,240.0,4.0,0.0
4968,70.0,120.0,90.0,1.0,0.0
4969,82.0,24.0,90.0,1.0,0.0
4970,68.0,96.0,240.0,4.0,0.0
4971,71.0,120.0,90.0,1.0,0.0
4972,83.0,24.0,90.0,1.0,0.0
4973,70.0,120.0,90.0,1.0,0.0
4974,67.0,96.0,240.0,4.0,0.0
4975,82.0,24.0,90.0,1.0,0.0
4976,71.0,120.0,90.0,1.0,0.0
4977,68.0,96.0,240.0,4.0,0.0
4978,83.0,24.0,90.0,1.0,0.0
4979,70.0,120.0,90.0,1.0,0.0
4980,67.0,96.0,240.0,4.0,0.0
4981,82.0,24.0,90.0,1.0,0.0
4982,71.0,120.0,90.0,1.0,0.0
4983,68.0,96.0,240.0,4.0,0.0
4984,83.0,24.0,90.0,1.0,0.0
4985,65.0,24.0,180.0,4.0,0.0
4986,68.0,69.0,90.0,1.0,0.0
4987,80.0,120.0,90.0,1.0,0.0
4988,66.0,96.0,240.0,4.0,0.0
4989,54.0,0.0,1440.0,5.0,0.0
4990,70.0,120.0,90.0,1.0,0.0
4991,82.0,24.0,90.0,1.0,0.0
4992,69.0,120.0,90.0,1.0,0.0
4993,65.0,96.0,240.0,4.0,0.0
4994,81.0,24.0,90.0,1.0,0.0
4995,70.0,120.0,90.0,1.0,0.0
4996,66.0,96.0,240.0,4.0,0.0
4997,82.0,24.0,90.0,1.0,0.0
4998,69.0,120.0,90.0,1.0,0.0
4999,65.0,96.0,240.0,4.0,0.0
5000,81.0,24.0,90.0,1.0,0.0
5001,70.0,120.0,90.0,1.0,0.0
5002,66.0,96.0,240.0,4.0,0.0
5003,82.0,24.0,90.0,1.0,0.0
5004,68.0,96.0,240.0,4.0,0.0
5005,71.0,120.0,90.0,1.0,0.0
5006,83.0,24.0,90.0,1.0,0.0
5007,73.0,120.0,90.0,1.0,0.0
5008,66.0,96.0,960.0,5.0,0.0
5009,70.0,96.0,240.0,4.0,0.0
5010,85.0,24.0,90.0,1.0,0.0
5011,69.0,96.0,240.0,4.0,0.0
5012,72.0,120.0,90.0,1.0,0.0
5013,84.0,24.0,90.0,1.0,0.0
5014,70.0,96.0,240.0,4.0,0.0
5015,73.0,120.0,90.0,1.0,0.0
5016,85.0,24.0,90.0,1.0,0.0
5017,72.0,120.0,90.0,1.0,0.0
5018,69.0,0.0,240.0,4.0,0.0
5019,84.0,24.0,90.0,1.0,0.0
5020,70.0,6.0,210.0,4.0,0.0
5021,73.0,114.0,90.0,1.0,0.0
5022,85.0,144.0,90.0,1.0,0.0
5023,78.0,120.0,120.0,1.0,0.0
5024,90.0,156.0,120.0,1.0,0.0
5025,85.0,0.0,480.0,2.0,0.0
5026,77.0,156.0,480.0,1.0,0.0
5027,47.0,60.0,150.0,5.0,0.0
5028,89.0,0.0,480.0,1.0,0.0
5029,59.0,180.0,90.0,4.0,0.0
5030,49.0,60.0,150.0,5.0,0.0
5031,61.0,24.0,90.0,4.0,0.0
5032,87.0,0.0,480.0,1.0,0.0
5033,51.0,60.0,150.0,5.0,0.0
5034,83.0,0.0,480.0,2.0,0.0
5035,75.0,156.0,480.0,1.0,0.0
5036,63.0,180.0,90.0,4.0,0.0
5037,53.0,60.0,150.0,5.0,0.0
5038,65.0,24.0,90.0,4.0,0.0
5039,82.0,0.0,180.0,2.0,0.0
5040,73.0,0.0,180.0,1.0,0.0
5041,54.0,36.0,150.0,5.0,0.0
5042,85.0,24.0,180.0,1.0,0.0
5043,66.0,180.0,90.0,4.0,0.0
5044,90.0,0.0,240.0,1.0,0.0
5045,78.0,0.0,240.0,1.0,0.0
5046,58.0,60.0,150.0,5.0,0.0
5047,70.0,24.0,90.0,4.0,0.0
5048,59.0,60.0,150.0,5.0,0.0
5049,85.0,156.0,15.0,2.0,0.0
5050,89.0,0.0,480.0,1.0,0.0
5051,77.0,156.0,480.0,1.0,0.0
5052,71.0,180.0,90.0,4.0,0.0
5053,61.0,60.0,150.0,5.0,0.0
5054,73.0,24.0,90.0,4.0,0.0
5055,87.0,156.0,480.0,1.0,0.0
5056,83.0,0.0,480.0,2.0,0.0
5057,63.0,60.0,150.0,5.0,0.0
5058,75.0,0.0,480.0,1.0,0.0
5059,75.0,180.0,90.0,4.0,0.0
5060,65.0,60.0,150.0,5.0,0.0
5061,77.0,24.0,90.0,4.0,0.0
5062,85.0,0.0,180.0,1.0,0.0
5063,66.0,36.0,150.0,5.0,0.0
5064,82.0,24.0,180.0,2.0,0.0
5065,73.0,0.0,180.0,1.0,0.0
5066,78.0,180.0,90.0,4.0,0.0
5067,80.0,0.0,240.0,2.0,0.0
5068,85.0,156.0,240.0,1.0,0.0
5069,65.0,60.0,150.0,5.0,0.0
5070,77.0,24.0,90.0,4.0,0.0
5071,78.0,156.0,240.0,2.0,0.0
5072,83.0,0.0,240.0,1.0,0.0
5073,63.0,60.0,150.0,5.0,0.0
5074,75.0,24.0,90.0,4.0,0.0
5075,61.0,60.0,150.0,5.0,0.0
5076,77.0,156.0,240.0,2.0,0.0
5077,82.0,0.0,240.0,1.0,0.0
5078,73.0,24.0,90.0,4.0,0.0
5079,80.0,156.0,240.0,1.0,0.0
5080,59.0,60.0,150.0,5.0,0.0
5081,75.0,0.0,240.0,2.0,0.0
5082,71.0,24.0,90.0,4.0,0.0
5083,73.0,156.0,240.0,2.0,0.0
5084,58.0,60.0,150.0,5.0,0.0
5085,78.0,0.0,240.0,1.0,0.0
5086,70.0,24.0,90.0,4.0,0.0
5087,77.0,0.0,240.0,1.0,0.0
5088,71.0,156.0,240.0,2.0,0.0
5089,56.0,60.0,150.0,5.0,0.0
5090,68.0,24.0,90.0,4.0,0.0
5091,70.0,192.0,240.0,2.0,0.0
5092,54.0,60.0,150.0,5.0,0.0
5093,78.0,0.0,240.0,1.0,0.0
5094,66.0,24.0,90.0,4.0,0.0
5095,80.0,144.0,180.0,1.0,0.0
5096,61.0,0.0,360.0,4.0,0.0
5097,49.0,96.0,360.0,5.0,0.0
5098,77.0,0.0,180.0,2.0,0.0
5099,68.0,0.0,180.0,2.0,0.0
5100,65.0,24.0,90.0,1.0,0.0
5101,77.0,120.0,90.0,1.0,0.0
5102,66.0,120.0,90.0,1.0,0.0
5103,78.0,120.0,90.0,1.0,0.0
5104,68.0,120.0,90.0,1.0,0.0
5105,80.0,120.0,90.0,1.0,0.0
5106,70.0,120.0,90.0,1.0,0.0
5107,82.0,120.0,90.0,1.0,0.0
5108,71.0,120.0,90.0,1.0,0.0
5109,83.0,120.0,90.0,1.0,0.0
5110,70.0,96.0,240.0,4.0,0.0
5111,73.0,120.0,90.0,1.0,0.0
5112,66.0,96.0,1200.0,5.0,0.0
5113,85.0,24.0,90.0,1.0,0.0
5114,69.0,96.0,240.0,4.0,0.0
5115,72.0,120.0,90.0,1.0,0.0
5116,84.0,24.0,90.0,1.0,0.0
5117,73.0,120.0,90.0,1.0,0.0
5118,70.0,96.0,240.0,4.0,0.0
5119,85.0,24.0,90.0,1.0,0.0
5120,72.0,120.0,90.0,1.0,0.0
5121,69.0,96.0,240.0,4.0,0.0
5122,84.0,24.0,90.0,1.0,0.0
5123,73.0,120.0,90.0,1.0,0.0
5124,70.0,0.0,240.0,4.0,0.0
5125,85.0,24.0,90.0,1.0,0.0
5126,78.0,120.0,90.0,1.0,0.0
5127,90.0,120.0,90.0,1.0,0.0
5128,70.0,120.0,90.0,1.0,0.0
5129,54.0,0.0,1200.0,5.0,0.0
5130,61.0,96.0,240.0,4.0,0.0
5131,82.0,24.0,90.0,1.0,0.0
5132,60.0,96.0,240.0,4.0,0.0
5133,69.0,120.0,90.0,1.0,0.0
5134,81.0,24.0,90.0,1.0,0.0
5135,61.0,96.0,240.0,4.0,0.0
5136,70.0,120.0,90.0,1.0,0.0
5137,82.0,24.0,90.0,1.0,0.0
5138,60.0,96.0,240.0,4.0,0.0
5139,69.0,120.0,90.0,1.0,0.0
5140,81.0,24.0,90.0,1.0,0.0
5141,61.0,96.0,240.0,4.0,0.0
5142,70.0,120.0,90.0,1.0,0.0
5143,82.0,24.0,90.0,1.0,0.0
5144,73.0,120.0,90.0,1.0,0.0
5145,85.0,120.0,90.0,1.0,0.0
5146,51.0,60.0,150.0,5.0,0.0
5147,63.0,0.0,150.0,4.0,0.0
5148,66.0,60.0,90.0,1.0,0.0
5149,78.0,120.0,90.0,1.0,0.0
5150,70.0,120.0,90.0,1.0,0.0
5151,82.0,120.0,90.0,1.0,0.0
5152,68.0,60.0,90.0,1.0,0.0
5153,59.0,60.0,150.0,4.0,0.0
5154,47.0,0.0,150.0,5.0,0.0
5155,80.0,120.0,90.0,1.0,0.0
5156,71.0,120.0,90.0,1.0,0.0
5157,83.0,120.0,90.0,1.0,0.0
5158,65.0,60.0,90.0,1.0,0.0
5159,49.0,0.0,150.0,5.0,0.0
5160,61.0,60.0,150.0,4.0,0.0
5161,77.0,120.0,90.0,1.0,0.0
5162,68.0,120.0,90.0,1.0,0.0
5163,80.0,120.0,90.0,1.0,0.0
5164,66.0,120.0,90.0,1.0,0.0
5165,42.0,0.0,360.0,5.0,0.0
5166,54.0,96.0,360.0,4.0,0.0
5167,78.0,120.0,90.0,1.0,0.0
5168,65.0,24.0,90.0,1.0,0.0
5169,77.0,120.0,90.0,1.0,0.0
5170,66.0,120.0,90.0,1.0,0.0
5171,78.0,120.0,90.0,1.0,0.0
5172,68.0,120.0,90.0,1.0,0.0
5173,80.0,120.0,90.0,1.0,0.0
5174,70.0,120.0,90.0,1.0,0.0
5175,82.0,120.0,90.0,1.0,0.0
5176,71.0,120.0,90.0,1.0,0.0
5177,83.0,180.0,90.0,1.0,0.0
5178,85.0,156.0,960.0,1.0,0.0
5179,73.0,0.0,960.0,1.0,0.0
5180,54.0,60.0,150.0,5.0,0.0
5181,66.0,180.0,90.0,4.0,0.0
5182,58.0,60.0,150.0,5.0,0.0
5183,70.0,180.0,90.0,4.0,0.0
5184,56.0,60.0,150.0,5.0,0.0
5185,68.0,180.0,90.0,4.0,0.0
5186,54.0,60.0,150.0,5.0,0.0
5187,66.0,24.0,90.0,4.0,0.0
5188,82.0,0.0,15.0,2.0,0.0
5189,53.0,36.0,150.0,5.0,0.0
5190,78.0,24.0,180.0,1.0,0.0
5191,90.0,0.0,180.0,1.0,0.0
5192,65.0,180.0,90.0,4.0,0.0
5193,51.0,60.0,150.0,5.0,0.0
5194,63.0,180.0,90.0,4.0,0.0
5195,49.0,60.0,150.0,5.0,0.0
5196,82.0,0.0,960.0,1.0,0.0
5197,70.0,0.0,960.0,1.0,0.0
5198,78.0,156.0,960.0,2.0,0.0
5199,61.0,180.0,90.0,4.0,0.0
5200,47.0,60.0,150.0,5.0,0.0
5201,59.0,180.0,90.0,4.0,0.0
5202,46.0,60.0,150.0,5.0,0.0
5203,58.0,180.0,90.0,4.0,0.0
5204,44.0,60.0,150.0,5.0,0.0
5205,56.0,24.0,90.0,4.0,0.0
5206,73.0,0.0,180.0,1.0,0.0
5207,85.0,0.0,180.0,1.0,0.0
5208,82.0,24.0,180.0,2.0,0.0
5209,42.0,36.0,150.0,5.0,0.0
5210,54.0,180.0,90.0,4.0,0.0
5211,41.0,60.0,150.0,5.0,0.0
5212,53.0,180.0,90.0,4.0,0.0
5213,39.0,84.0,150.0,5.0,0.0
5214,51.0,0.0,150.0,4.0,0.0
5215,71.0,120.0,120.0,1.0,0.0
5216,78.0,96.0,120.0,1.0,0.0
5217,83.0,180.0,90.0,1.0,0.0
5218,37.0,84.0,150.0,5.0,0.0
5219,49.0,0.0,150.0,4.0,0.0
5220,73.0,120.0,120.0,1.0,0.0
5221,78.0,96.0,120.0,1.0,0.0
5222,82.0,180.0,90.0,1.0,0.0
5223,37.0,84.0,150.0,5.0,0.0
5224,49.0,0.0,150.0,4.0,0.0
5225,71.0,120.0,120.0,1.0,0.0
5226,77.0,120.0,120.0,1.0,0.0
5227,80.0,240.0,120.0,1.0,0.0
5228,70.0,0.0,360.0,1.0,0.0
5229,78.0,120.0,360.0,1.0,0.0
5230,54.0,120.0,120.0,5.0,0.0
5231,58.0,0.0,120.0,5.0,0.0
5232,54.0,120.0,120.0,5.0,0.0
5233,49.0,120.0,120.0,5.0,0.0
5234,54.0,120.0,120.0,5.0,0.0
5235,46.0,120.0,120.0,5.0,0.0
5236,49.0,288.0,120.0,5.0,0.0
5237,42.0,288.0,300.0,5.0,0.0
5238,68.0,120.0,90.0,1.0,0.0
5239,65.0,96.0,240.0,4.0,0.0
5240,61.0,27.0,2820.0,5.0,0.0
5241,80.0,24.0,90.0,1.0,0.0
5242,67.0,120.0,90.0,1.0,0.0
5243,64.0,96.0,240.0,4.0,0.0
5244,79.0,24.0,90.0,1.0,0.0
5245,68.0,120.0,90.0,1.0,0.0
5246,65.0,96.0,240.0,4.0,0.0
5247,80.0,24.0,90.0,1.0,0.0
5248,64.0,96.0,240.0,4.0,0.0
5249,67.0,120.0,90.0,1.0,0.0
5250,79.0,24.0,90.0,1.0,0.0
5251,68.0,120.0,90.0,1.0,0.0
5252,65.0,96.0,240.0,4.0,0.0
5253,80.0,24.0,90.0,1.0,0.0
5254,70.0,120.0,90.0,1.0,0.0
5255,66.0,96.0,240.0,4.0,0.0
5256,82.0,24.0,90.0,1.0,0.0
5257,71.0,120.0,90.0,1.0,0.0
5258,68.0,96.0,240.0,4.0,0.0
5259,83.0,24.0,90.0,1.0,0.0
5260,70.0,120.0,90.0,1.0,0.0
5261,67.0,96.0,240.0,4.0,0.0
5262,82.0,24.0,90.0,1.0,0.0
5263,71.0,120.0,90.0,1.0,0.0
5264,68.0,96.0,240.0,4.0,0.0
5265,83.0,24.0,90.0,1.0,0.0
5266,67.0,96.0,240.0,4.0,0.0
5267,70.0,120.0,90.0,1.0,0.0
5268,82.0,24.0,90.0,1.0,0.0
5269,71.0,120.0,90.0,1.0,0.0
5270,68.0,96.0,240.0,4.0,0.0
5271,83.0,24.0,90.0,1.0,0.0
5272,68.0,69.0,90.0,1.0,0.0
5273,65.0,24.0,180.0,4.0,0.0
5274,80.0,120.0,90.0,1.0,0.0
5275,54.0,96.0,1440.0,5.0,0.0
5276,70.0,120.0,90.0,1.0,0.0
5277,66.0,96.0,240.0,4.0,0.0
5278,82.0,24.0,90.0,1.0,0.0
5279,69.0,120.0,90.0,1.0,0.0
5280,65.0,96.0,240.0,4.0,0.0
5281,81.0,24.0,90.0,1.0,0.0
5282,66.0,96.0,240.0,4.0,0.0
5283,70.0,120.0,90.0,1.0,0.0
5284,82.0,24.0,90.0,1.0,0.0
5285,65.0,96.0,240.0,4.0,0.0
5286,69.0,120.0,90.0,1.0,0.0
5287,81.0,24.0,90.0,1.0,0.0
5288,70.0,120.0,90.0,1.0,0.0
5289,66.0,96.0,240.0,4.0,0.0
5290,82.0,24.0,90.0,1.0,0.0
5291,71.0,120.0,90.0,1.0,0.0
5292,68.0,0.0,240.0,4.0,0.0
5293,83.0,24.0,90.0,1.0,0.0
5294,70.0,96.0,240.0,4.0,0.0
5295,66.0,0.0,960.0,5.0,0.0
5296,73.0,120.0,90.0,1.0,0.0
5297,85.0,24.0,90.0,1.0,0.0
5298,69.0,96.0,240.0,4.0,0.0
5299,72.0,120.0,90.0,1.0,0.0
5300,84.0,24.0,90.0,1.0,0.0
5301,70.0,96.0,240.0,4.0,0.0
5302,73.0,120.0,90.0,1.0,0.0
5303,85.0,24.0,90.0,1.0,0.0
5304,69.0,96.0,240.0,4.0,0.0
5305,72.0,120.0,90.0,1.0,0.0
5306,84.0,24.0,90.0,1.0,0.0
5307,73.0,114.0,90.0,1.0,0.0
5308,70.0,6.0,210.0,4.0,0.0
5309,85.0,144.0,90.0,1.0,0.0
5310,78.0,120.0,120.0,1.0,0.0
5311,90.0,156.0,120.0,1.0,0.0
5312,85.0,156.0,480.0,2.0,0.0
5313,77.0,0.0,480.0,1.0,0.0
5314,89.0,0.0,480.0,1.0,0.0
5315,47.0,60.0,150.0,5.0,0.0
5316,59.0,180.0,90.0,4.0,0.0
5317,49.0,60.0,150.0,5.0,0.0
5318,61.0,24.0,90.0,4.0,0.0
5319,51.0,60.0,150.0,5.0,0.0
5320,75.0,0.0,480.0,1.0,0.0
5321,83.0,156.0,480.0,2.0,0.0
5322,87.0,0.0,480.0,1.0,0.0
5323,63.0,180.0,90.0,4.0,0.0
5324,53.0,60.0,150.0,5.0,0.0
5325,65.0,24.0,90.0,4.0,0.0
5326,73.0,24.0,180.0,1.0,0.0
5327,85.0,0.0,180.0,1.0,0.0
5328,82.0,0.0,180.0,2.0,0.0
5329,54.0,36.0,150.0,5.0,0.0
5330,66.0,180.0,90.0,4.0,0.0
5331,78.0,0.0,240.0,1.0,0.0
5332,58.0,60.0,150.0,5.0,0.0
5333,90.0,0.0,240.0,1.0,0.0
5334,70.0,24.0,90.0,4.0,0.0
5335,77.0,156.0,480.0,1.0,0.0
5336,89.0,0.0,480.0,1.0,0.0
5337,59.0,60.0,150.0,5.0,0.0
5338,85.0,156.0,15.0,2.0,0.0
5339,71.0,180.0,90.0,4.0,0.0
5340,61.0,60.0,150.0,5.0,0.0
5341,73.0,24.0,90.0,4.0,0.0
5342,87.0,156.0,480.0,1.0,0.0
5343,63.0,60.0,150.0,5.0,0.0
5344,83.0,0.0,480.0,2.0,0.0
5345,75.0,0.0,480.0,1.0,0.0
5346,75.0,180.0,90.0,4.0,0.0
5347,65.0,60.0,150.0,5.0,0.0
5348,77.0,24.0,90.0,4.0,0.0
5349,66.0,36.0,150.0,5.0,0.0
5350,82.0,0.0,180.0,2.0,0.0
5351,85.0,24.0,180.0,1.0,0.0
5352,73.0,0.0,180.0,1.0,0.0
5353,78.0,180.0,90.0,4.0,0.0
5354,65.0,60.0,150.0,5.0,0.0
5355,85.0,156.0,240.0,1.0,0.0
5356,80.0,0.0,240.0,2.0,0.0
5357,77.0,24.0,90.0,4.0,0.0
5358,78.0,156.0,240.0,2.0,0.0
5359,63.0,60.0,150.0,5.0,0.0
5360,83.0,0.0,240.0,1.0,0.0
5361,75.0,24.0,90.0,4.0,0.0
5362,82.0,156.0,240.0,1.0,0.0
5363,61.0,60.0,150.0,5.0,0.0
5364,77.0,0.0,240.0,2.0,0.0
5365,73.0,24.0,90.0,4.0,0.0
5366,80.0,0.0,240.0,1.0,0.0
5367,59.0,60.0,150.0,5.0,0.0
5368,75.0,156.0,240.0,2.0,0.0
5369,71.0,24.0,90.0,4.0,0.0
5370,58.0,60.0,150.0,5.0,0.0
5371,73.0,156.0,240.0,2.0,0.0
5372,78.0,0.0,240.0,1.0,0.0
5373,70.0,24.0,90.0,4.0,0.0
5374,56.0,60.0,150.0,5.0,0.0
5375,77.0,0.0,240.0,1.0,0.0
5376,71.0,156.0,240.0,2.0,0.0
5377,68.0,24.0,90.0,4.0,0.0
5378,78.0,192.0,240.0,1.0,0.0
5379,70.0,0.0,240.0,2.0,0.0
5380,54.0,60.0,150.0,5.0,0.0
5381,66.0,24.0,90.0,4.0,0.0
5382,80.0,0.0,180.0,1.0,0.0
5383,68.0,144.0,180.0,2.0,0.0
5384,61.0,96.0,360.0,4.0,0.0
5385,77.0,0.0,180.0,2.0,0.0
5386,49.0,0.0,360.0,5.0,0.0
5387,65.0,24.0,90.0,1.0,0.0
5388,77.0,120.0,90.0,1.0,0.0
5389,66.0,120.0,90.0,1.0,0.0
5390,78.0,120.0,90.0,1.0,0.0
5391,68.0,120.0,90.0,1.0,0.0
5392,80.0,120.0,90.0,1.0,0.0
5393,70.0,120.0,90.0,1.0,0.0
5394,82.0,120.0,90.0,1.0,0.0
5395,71.0,120.0,90.0,1.0,0.0
5396,83.0,120.0,90.0,1.0,0.0
5397,70.0,96.0,240.0,4.0,0.0
5398,73.0,120.0,90.0,1.0,0.0
5399,66.0,96.0,1200.0,5.0,0.0
5400,85.0,24.0,90.0,1.0,0.0
5401,72.0,120.0,90.0,1.0,0.0
5402,69.0,96.0,240.0,4.0,0.0
5403,84.0,24.0,90.0,1.0,0.0
5404,70.0,96.0,240.0,4.0,0.0
5405,73.0,120.0,90.0,1.0,0.0
5406,85.0,24.0,90.0,1.0,0.0
5407,69.0,96.0,240.0,4.0,0.0
5408,72.0,120.0,90.0,1.0,0.0
5409,84.0,24.0,90.0,1.0,0.0
5410,70.0,0.0,240.0,4.0,0.0
5411,73.0,120.0,90.0,1.0,0.0
5412,85.0,24.0,90.0,1.0,0.0
5413,78.0,120.0,90.0,1.0,0.0
5414,90.0,120.0,90.0,1.0,0.0
5415,70.0,120.0,90.0,1.0,0.0
5416,54.0,0.0,1200.0,5.0,0.0
5417,61.0,96.0,240.0,4.0,0.0
5418,82.0,24.0,90.0,1.0,0.0
5419,60.0,96.0,240.0,4.0,0.0
5420,69.0,120.0,90.0,1.0,0.0
5421,81.0,24.0,90.0,1.0,0.0
5422,70.0,120.0,90.0,1.0,0.0
5423,61.0,96.0,240.0,4.0,0.0
5424,82.0,24.0,90.0,1.0,0.0
5425,60.0,96.0,240.0,4.0,0.0
5426,69.0,120.0,90.0,1.0,0.0
5427,81.0,24.0,90.0,1.0,0.0
5428,61.0,96.0,240.0,4.0,0.0
5429,70.0,120.0,90.0,1.0,0.0
5430,82.0,24.0,90.0,1.0,0.0
5431,73.0,120.0,90.0,1.0,0.0
5432,85.0,120.0,90.0,1.0,0.0
5433,51.0,0.0,150.0,5.0,0.0
5434,63.0,60.0,150.0,4.0,0.0
5435,66.0,60.0,90.0,1.0,0.0
5436,78.0,120.0,90.0,1.0,0.0
5437,70.0,120.0,90.0,1.0,0.0
5438,82.0,120.0,90.0,1.0,0.0
5439,68.0,60.0,90.0,1.0,0.0
5440,59.0,0.0,150.0,4.0,0.0
5441,47.0,60.0,150.0,5.0,0.0
5442,80.0,120.0,90.0,1.0,0.0
5443,71.0,120.0,90.0,1.0,0.0
5444,83.0,120.0,90.0,1.0,0.0
5445,61.0,0.0,150.0,4.0,0.0
5446,49.0,60.0,150.0,5.0,0.0
5447,65.0,60.0,90.0,1.0,0.0
5448,77.0,120.0,90.0,1.0,0.0
5449,68.0,120.0,90.0,1.0,0.0
5450,80.0,120.0,90.0,1.0,0.0
5451,54.0,0.0,360.0,4.0,0.0
5452,66.0,120.0,90.0,1.0,0.0
5453,42.0,96.0,360.0,5.0,0.0
5454,78.0,120.0,90.0,1.0,0.0
5455,65.0,24.0,90.0,1.0,0.0
5456,77.0,120.0,90.0,1.0,0.0
5457,66.0,120.0,90.0,1.0,0.0
5458,78.0,120.0,90.0,1.0,0.0
5459,68.0,120.0,90.0,1.0,0.0
5460,80.0,120.0,90.0,1.0,0.0
5461,70.0,120.0,90.0,1.0,0.0
5462,82.0,120.0,90.0,1.0,0.0
5463,71.0,120.0,90.0,1.0,0.0
5464,83.0,180.0,90.0,1.0,0.0
5465,54.0,60.0,150.0,5.0,0.0
5466,82.0,0.0,960.0,2.0,0.0
5467,73.0,0.0,960.0,1.0,0.0
5468,85.0,156.0,960.0,1.0,0.0
5469,66.0,180.0,90.0,4.0,0.0
5470,58.0,60.0,150.0,5.0,0.0
5471,70.0,180.0,90.0,4.0,0.0
5472,56.0,60.0,150.0,5.0,0.0
5473,68.0,180.0,90.0,4.0,0.0
5474,54.0,60.0,150.0,5.0,0.0
5475,66.0,24.0,90.0,4.0,0.0
5476,82.0,0.0,180.0,2.0,0.0
5477,78.0,24.0,180.0,1.0,0.0
5478,53.0,36.0,150.0,5.0,0.0
5479,90.0,0.0,180.0,1.0,0.0
5480,65.0,180.0,90.0,4.0,0.0
5481,51.0,60.0,150.0,5.0,0.0
5482,63.0,180.0,90.0,4.0,0.0
5483,70.0,156.0,960.0,1.0,0.0
5484,82.0,0.0,960.0,1.0,0.0
5485,78.0,0.0,960.0,2.0,0.0
5486,49.0,60.0,150.0,5.0,0.0
5487,61.0,180.0,90.0,4.0,0.0
5488,47.0,60.0,150.0,5.0,0.0
5489,59.0,180.0,90.0,4.0,0.0
5490,46.0,60.0,150.0,5.0,0.0
5491,58.0,180.0,90.0,4.0,0.0
5492,44.0,60.0,150.0,5.0,0.0
5493,56.0,24.0,90.0,4.0,0.0
5494,82.0,0.0,180.0,2.0,0.0
5495,42.0,36.0,150.0,5.0,0.0
5496,73.0,0.0,180.0,1.0,0.0
5497,85.0,24.0,180.0,1.0,0.0
5498,54.0,180.0,90.0,4.0,0.0
5499,41.0,60.0,150.0,5.0,0.0
5500,53.0,180.0,90.0,4.0,0.0
5501,51.0,84.0,150.0,4.0,0.0
5502,39.0,0.0,150.0,5.0,0.0
5503,71.0,120.0,120.0,1.0,0.0
5504,78.0,96.0,120.0,1.0,0.0
5505,83.0,180.0,90.0,1.0,0.0
5506,37.0,84.0,150.0,5.0,0.0
5507,49.0,0.0,150.0,4.0,0.0
5508,73.0,120.0,120.0,1.0,0.0
5509,78.0,96.0,120.0,1.0,0.0
5510,82.0,180.0,90.0,1.0,0.0
5511,49.0,0.0,150.0,4.0,0.0
5512,37.0,84.0,150.0,5.0,0.0
5513,71.0,120.0,120.0,1.0,0.0
5514,77.0,120.0,120.0,1.0,0.0
5515,80.0,240.0,120.0,1.0,0.0
5516,78.0,120.0,360.0,1.0,0.0
5517,70.0,0.0,360.0,1.0,0.0
5518,54.0,120.0,120.0,5.0,0.0
5519,58.0,0.0,120.0,5.0,0.0
5520,54.0,120.0,120.0,5.0,0.0
5521,49.0,120.0,120.0,5.0,0.0
5522,54.0,120.0,120.0,5.0,0.0
5523,46.0,120.0,120.0,5.0,0.0
5524,49.0,288.0,120.0,5.0,0.0
5525,42.0,552.0,300.0,5.0,0.0
5526,66.0,0.0,360.0,5.0,0.0
5527,85.0,120.0,1080.0,1.0,0.0
5528,70.0,720.0,360.0,4.0,0.0
5529,87.0,120.0,120.0,1.0,0.0
5530,85.0,120.0,120.0,1.0,0.0
5531,84.0,120.0,120.0,1.0,0.0
5532,85.0,120.0,120.0,1.0,0.0
5533,90.0,120.0,120.0,1.0,0.0
5534,89.0,120.0,120.0,1.0,0.0
5535,92.0,360.0,120.0,1.0,0.0
5536,90.0,960.0,360.0,1.0,0.0
5537,66.0,0.0,360.0,5.0,0.0
5538,82.0,120.0,1080.0,1.0,0.0
5539,73.0,720.0,360.0,4.0,0.0
5540,83.0,120.0,120.0,1.0,0.0
5541,82.0,120.0,120.0,1.0,0.0
5542,80.0,120.0,120.0,1.0,0.0
5543,82.0,120.0,120.0,1.0,0.0
5544,85.0,120.0,120.0,1.0,0.0
5545,83.0,120.0,120.0,1.0,0.0
5546,87.0,360.0,120.0,1.0,0.0
5547,85.0,1320.0,360.0,1.0,0.0
5548,61.0,600.0,720.0,5.0,0.0
5549,78.0,0.0,720.0,1.0,0.0
5550,70.0,0.0,720.0,4.0,0.0
5551,78.0,0.0,360.0,1.0,0.0
5552,70.0,0.0,360.0,4.0,0.0
5553,61.0,480.0,360.0,5.0,0.0
5554,78.0,120.0,360.0,1.0,0.0
5555,70.0,0.0,360.0,4.0,0.0
5556,61.0,0.0,360.0,5.0,0.0
5557,82.0,360.0,120.0,1.0,0.0
5558,71.0,0.0,360.0,4.0,0.0
5559,61.0,120.0,360.0,5.0,0.0
5560,80.0,0.0,360.0,1.0,0.0
5561,78.0,360.0,120.0,1.0,0.0
5562,61.0,0.0,360.0,5.0,0.0
5563,80.0,0.0,360.0,1.0,0.0
5564,71.0,120.0,360.0,4.0,0.0
5565,82.0,192.0,120.0,1.0,0.0
5566,78.0,168.0,180.0,1.0,0.0
5567,66.0,120.0,360.0,5.0,0.0
5568,70.0,0.0,360.0,4.0,0.0
5569,66.0,0.0,120.0,1.0,0.0
5570,70.0,120.0,120.0,1.0,0.0
5571,68.0,120.0,120.0,1.0,0.0
5572,71.0,120.0,120.0,1.0,0.0
5573,70.0,120.0,120.0,1.0,0.0
5574,73.0,120.0,120.0,1.0,0.0
5575,71.0,120.0,120.0,1.0,0.0
5576,75.0,120.0,120.0,1.0,0.0
5577,73.0,120.0,120.0,1.0,0.0
5578,77.0,120.0,120.0,1.0,0.0
5579,75.0,120.0,120.0,1.0,0.0
5580,78.0,120.0,120.0,1.0,0.0
5581,77.0,120.0,120.0,1.0,0.0
5582,80.0,120.0,120.0,1.0,0.0
5583,78.0,120.0,120.0,1.0,0.0
5584,82.0,120.0,120.0,1.0,0.0
5585,80.0,120.0,120.0,1.0,0.0
5586,83.0,120.0,120.0,1.0,0.0
5587,82.0,120.0,120.0,1.0,0.0
5588,85.0,120.0,120.0,1.0,0.0
5589,83.0,96.0,120.0,1.0,0.0
5590,87.0,864.0,90.0,1.0,0.0
5591,85.0,120.0,1200.0,1.0,0.0
5592,70.0,0.0,360.0,4.0,0.0
5593,66.0,360.0,360.0,5.0,0.0
5594,70.0,0.0,360.0,4.0,0.0
5595,66.0,120.0,360.0,5.0,0.0
5596,87.0,240.0,240.0,1.0,0.0
5597,89.0,240.0,240.0,1.0,0.0
5598,90.0,240.0,240.0,1.0,0.0
5599,92.0,240.0,240.0,1.0,0.0
5600,90.0,240.0,240.0,1.0,0.0
5601,89.0,192.0,240.0,1.0,0.0
5602,90.0,888.0,180.0,1.0,0.0
5603,82.0,120.0,1200.0,1.0,0.0
5604,73.0,360.0,360.0,4.0,0.0
5605,66.0,0.0,360.0,5.0,0.0
5606,73.0,120.0,360.0,4.0,0.0
5607,66.0,0.0,360.0,5.0,0.0
5608,83.0,240.0,240.0,1.0,0.0
5609,84.0,240.0,240.0,1.0,0.0
5610,85.0,240.0,240.0,1.0,0.0
5611,87.0,240.0,240.0,1.0,0.0
5612,85.0,240.0,240.0,1.0,0.0
5613,84.0,192.0,240.0,1.0,0.0
5614,85.0,768.0,180.0,1.0,0.0
5615,85.0,0.0,720.0,1.0,0.0
5616,61.0,0.0,720.0,5.0,0.0
5617,70.0,192.0,720.0,4.0,0.0
5618,82.0,408.0,180.0,1.0,0.0
5619,78.0,465.0,360.0,1.0,0.0
5620,61.0,0.0,1800.0,5.0,0.0
5621,70.0,7.0,360.0,4.0,0.0
5622,78.0,8.0,360.0,1.0,0.0
5623,70.0,120.0,360.0,4.0,0.0
5624,82.0,360.0,120.0,1.0,0.0
5625,80.0,120.0,360.0,1.0,0.0
5626,71.0,0.0,360.0,4.0,0.0
5627,78.0,360.0,120.0,1.0,0.0
5628,71.0,0.0,360.0,4.0,0.0
5629,80.0,120.0,360.0,1.0,0.0
5630,82.0,960.0,120.0,1.0,0.0
5631,80.0,360.0,960.0,1.0,0.0
5632,66.0,360.0,1320.0,5.0,0.0
5633,71.0,0.0,960.0,4.0,0.0
5634,78.0,0.0,360.0,1.0,0.0
5635,70.0,0.0,360.0,4.0,0.0
5636,60.0,120.0,240.0,5.0,0.0
5637,61.0,360.0,120.0,5.0,0.0
5638,57.0,120.0,240.0,5.0,0.0
5639,58.0,360.0,120.0,5.0,0.0
5640,53.0,120.0,240.0,5.0,0.0
5641,54.0,960.0,120.0,5.0,0.0
5642,80.0,108.0,1140.0,1.0,0.0
5643,49.0,113.0,2760.0,5.0,0.0
5644,61.0,0.0,360.0,4.0,0.0
5645,65.0,312.0,360.0,4.0,0.0
5646,65.0,0.0,360.0,4.0,0.0
5647,61.0,0.0,360.0,4.0,0.0
5648,82.0,60.0,60.0,1.0,0.0
5649,80.0,60.0,60.0,1.0,0.0
5650,79.0,60.0,60.0,1.0,0.0
5651,80.0,240.0,60.0,1.0,0.0
5652,65.0,72.0,360.0,4.0,0.0
5653,61.0,0.0,360.0,4.0,0.0
5654,83.0,120.0,240.0,1.0,0.0
5655,82.0,280.0,180.0,1.0,0.0
5656,82.0,68.0,240.0,1.0,0.0
5657,61.0,0.0,360.0,4.0,0.0
5658,66.0,60.0,360.0,4.0,0.0
5659,83.0,60.0,60.0,1.0,0.0
5660,82.0,0.0,60.0,1.0,0.0
5661,81.0,60.0,60.0,1.0,0.0
5662,82.0,247.0,60.0,1.0,0.0
5663,85.0,113.0,240.0,1.0,0.0
5664,66.0,0.0,360.0,4.0,0.0
5665,61.0,7.0,360.0,4.0,0.0
5666,83.0,360.0,15.0,1.0,0.0
5667,68.0,0.0,360.0,4.0,0.0
5668,61.0,0.0,360.0,4.0,0.0
5669,61.0,120.0,120.0,1.0,0.0
5670,63.0,120.0,120.0,1.0,0.0
5671,65.0,120.0,120.0,1.0,0.0
5672,66.0,120.0,120.0,1.0,0.0
5673,68.0,120.0,120.0,1.0,0.0
5674,70.0,120.0,120.0,1.0,0.0
5675,72.0,60.0,120.0,1.0,0.0
5676,73.0,60.0,60.0,1.0,0.0
5677,75.0,60.0,60.0,1.0,0.0
5678,77.0,60.0,60.0,1.0,0.0
5679,78.0,60.0,60.0,1.0,0.0
5680,80.0,60.0,60.0,1.0,0.0
5681,82.0,60.0,60.0,1.0,0.0
5682,84.0,60.0,60.0,1.0,0.0
5683,85.0,60.0,60.0,1.0,0.0
5684,87.0,60.0,60.0,1.0,0.0
5685,89.0,60.0,60.0,1.0,0.0
5686,90.0,80.0,60.0,1.0,0.0
5687,92.0,80.0,90.0,1.0,0.0
5688,90.0,100.0,90.0,1.0,0.0
5689,89.0,60.0,90.0,1.0,0.0
5690,87.0,80.0,90.0,1.0,0.0
5691,85.0,80.0,90.0,1.0,0.0
5692,83.0,860.0,90.0,1.0,0.0
5693,82.0,160.0,1110.0,1.0,0.0
5694,54.0,11.0,2700.0,5.0,0.0
5695,66.0,280.0,360.0,4.0,0.0
5696,66.0,0.0,360.0,4.0,0.0
5697,70.0,120.0,360.0,4.0,0.0
5698,78.0,40.0,150.0,1.0,0.0
5699,80.0,160.0,150.0,1.0,0.0
5700,82.0,160.0,150.0,1.0,0.0
5701,70.0,0.0,360.0,4.0,0.0
5702,66.0,120.0,360.0,4.0,0.0
5703,83.0,40.0,150.0,1.0,0.0
5704,85.0,160.0,150.0,1.0,0.0
5705,66.0,0.0,360.0,4.0,0.0
5706,71.0,120.0,360.0,4.0,0.0
5707,68.0,0.0,360.0,4.0,0.0
5708,83.0,160.0,150.0,1.0,0.0
5709,80.0,40.0,150.0,1.0,0.0
5710,82.0,160.0,150.0,1.0,0.0
5711,83.0,149.0,150.0,1.0,0.0
5712,68.0,120.0,360.0,4.0,0.0
5713,66.0,0.0,360.0,4.0,0.0
5714,71.0,0.0,360.0,4.0,0.0
5715,85.0,40.0,150.0,1.0,0.0
5716,87.0,360.0,150.0,1.0,0.0
5717,66.0,0.0,360.0,4.0,0.0
5718,85.0,960.0,360.0,1.0,0.0
5719,70.0,0.0,360.0,4.0,0.0
5720,73.0,0.0,360.0,4.0,0.0
5721,66.0,60.0,840.0,1.0,0.0
5722,54.0,60.0,720.0,1.0,0.0
5723,68.0,60.0,60.0,1.0,0.0
5724,66.0,60.0,60.0,1.0,0.0
5725,65.0,60.0,60.0,1.0,0.0
5726,66.0,60.0,60.0,1.0,0.0
5727,68.0,60.0,60.0,1.0,0.0
5728,70.0,0.0,60.0,1.0,0.0
5729,71.0,60.0,60.0,1.0,0.0
5730,73.0,60.0,60.0,1.0,0.0
5731,75.0,60.0,60.0,1.0,0.0
5732,77.0,60.0,60.0,1.0,0.0
5733,78.0,60.0,60.0,1.0,0.0
5734,80.0,60.0,60.0,1.0,0.0
5735,82.0,60.0,60.0,1.0,0.0
5736,83.0,60.0,60.0,1.0,0.0
5737,85.0,60.0,60.0,1.0,0.0
5738,87.0,60.0,60.0,1.0,0.0
5739,89.0,60.0,60.0,1.0,0.0
5740,90.0,60.0,60.0,1.0,0.0
5741,89.0,60.0,60.0,1.0,0.0
5742,90.0,60.0,60.0,1.0,0.0
5743,89.0,60.0,60.0,1.0,0.0
5744,90.0,60.0,60.0,1.0,0.0
5745,92.0,60.0,60.0,1.0,0.0
5746,90.0,60.0,60.0,1.0,0.0
5747,89.0,60.0,60.0,1.0,0.0
5748,87.0,840.0,60.0,1.0,0.0
5749,66.0,65.0,2760.0,5.0,0.0
5750,85.0,120.0,1200.0,1.0,0.0
5751,70.0,360.0,360.0,4.0,0.0
5752,73.0,0.0,360.0,4.0,0.0
5753,70.0,120.0,360.0,4.0,0.0
5754,73.0,0.0,360.0,4.0,0.0
5755,78.0,240.0,240.0,1.0,0.0
5756,82.0,120.0,240.0,1.0,0.0
5757,70.0,120.0,360.0,4.0,0.0
5758,73.0,0.0,360.0,4.0,0.0
5759,85.0,240.0,240.0,1.0,0.0
5760,87.0,120.0,240.0,1.0,0.0
5761,75.0,120.0,360.0,4.0,0.0
5762,71.0,0.0,360.0,4.0,0.0
5763,83.0,240.0,240.0,1.0,0.0
5764,75.0,7.0,360.0,4.0,0.0
5765,71.0,0.0,360.0,4.0,0.0
5766,90.0,120.0,240.0,1.0,0.0
5767,87.0,528.0,180.0,1.0,0.0
5768,84.0,360.0,480.0,1.0,0.0
5769,66.0,89.0,2760.0,5.0,0.0
5770,73.0,200.0,360.0,4.0,0.0
5771,70.0,0.0,360.0,4.0,0.0
5772,85.0,80.0,570.0,1.0,0.0
5773,70.0,0.0,360.0,4.0,0.0
5774,73.0,40.0,360.0,4.0,0.0
5775,78.0,80.0,90.0,1.0,0.0
5776,79.0,80.0,90.0,1.0,0.0
5777,80.0,40.0,90.0,1.0,0.0
5778,81.0,80.0,90.0,1.0,0.0
5779,82.0,120.0,90.0,1.0,0.0
5780,70.0,0.0,360.0,4.0,0.0
5781,73.0,120.0,360.0,4.0,0.0
5782,83.0,120.0,120.0,1.0,0.0
5783,84.0,120.0,120.0,1.0,0.0
5784,85.0,0.0,120.0,1.0,0.0
5785,86.0,80.0,120.0,1.0,0.0
5786,71.0,120.0,360.0,4.0,0.0
5787,75.0,0.0,360.0,4.0,0.0
5788,87.0,80.0,90.0,1.0,0.0
5789,88.0,80.0,90.0,1.0,0.0
5790,89.0,120.0,90.0,1.0,0.0
5791,90.0,0.0,120.0,1.0,0.0
5792,89.0,120.0,120.0,1.0,0.0
5793,75.0,0.0,360.0,4.0,0.0
5794,71.0,7.0,360.0,4.0,0.0
5795,92.0,120.0,120.0,1.0,0.0
5796,90.0,120.0,120.0,1.0,0.0
5797,89.0,0.0,120.0,1.0,0.0
5798,87.0,144.0,90.0,1.0,0.0
5799,73.0,0.0,360.0,4.0,0.0
5800,87.0,78.0,120.0,1.0,0.0
5801,70.0,0.0,360.0,4.0,0.0
5802,66.0,78.0,360.0,5.0,0.0
5803,85.0,120.0,90.0,1.0,0.0
5804,90.0,42.0,90.0,1.0,0.0
5805,89.0,120.0,90.0,1.0,0.0
5806,90.0,120.0,90.0,1.0,0.0
5807,89.0,120.0,90.0,1.0,0.0
5808,87.0,120.0,90.0,1.0,0.0
5809,85.0,162.0,90.0,1.0,0.0
5810,85.0,78.0,120.0,1.0,0.0
5811,73.0,0.0,360.0,4.0,0.0
5812,65.0,78.0,360.0,5.0,0.0
5813,83.0,120.0,90.0,1.0,0.0
5814,92.0,42.0,90.0,1.0,0.0
5815,90.0,120.0,90.0,1.0,0.0
5816,89.0,120.0,90.0,1.0,0.0
5817,87.0,120.0,90.0,1.0,0.0
5818,85.0,120.0,90.0,1.0,0.0
5819,83.0,162.0,90.0,1.0,0.0
5820,83.0,78.0,120.0,1.0,0.0
5821,66.0,78.0,360.0,5.0,0.0
5822,73.0,0.0,360.0,4.0,0.0
5823,82.0,120.0,90.0,1.0,0.0
5824,90.0,42.0,90.0,1.0,0.0
5825,89.0,120.0,90.0,1.0,0.0
5826,87.0,120.0,90.0,1.0,0.0
5827,85.0,120.0,90.0,1.0,0.0
5828,83.0,120.0,90.0,1.0,0.0
5829,82.0,1242.0,90.0,1.0,0.0
5830,61.0,0.0,2280.0,5.0,0.0
5831,70.0,105.0,1680.0,4.0,0.0
5832,85.0,120.0,1200.0,1.0,0.0
5833,84.0,120.0,120.0,1.0,0.0
5834,85.0,120.0,120.0,1.0,0.0
5835,87.0,120.0,120.0,1.0,0.0
5836,85.0,15.0,120.0,1.0,0.0
5837,83.0,120.0,120.0,1.0,0.0
5838,66.0,192.0,240.0,4.0,0.0
5839,82.0,0.0,120.0,1.0,0.0
5840,80.0,168.0,180.0,1.0,0.0
5841,65.0,72.0,360.0,4.0,0.0
5842,82.0,240.0,180.0,1.0,0.0
5843,83.0,240.0,180.0,1.0,0.0
5844,84.0,888.0,180.0,1.0,0.0
5845,85.0,160.0,1110.0,1.0,0.0
5846,70.0,0.0,360.0,4.0,0.0
5847,66.0,280.0,360.0,5.0,0.0
5848,70.0,0.0,360.0,4.0,0.0
5849,66.0,120.0,360.0,5.0,0.0
5850,86.0,40.0,150.0,1.0,0.0
5851,87.0,160.0,150.0,1.0,0.0
5852,88.0,160.0,150.0,1.0,0.0
5853,89.0,160.0,150.0,1.0,0.0
5854,90.0,240.0,150.0,1.0,0.0
5855,92.0,240.0,240.0,1.0,0.0
5856,90.0,240.0,240.0,1.0,0.0
5857,89.0,165.0,240.0,1.0,0.0
5858,90.0,75.0,180.0,1.0,0.0
5859,90.0,840.0,60.0,1.0,0.0
5860,82.0,165.0,1110.0,1.0,0.0
5861,73.0,275.0,360.0,4.0,0.0
5862,66.0,0.0,360.0,5.0,0.0
5863,66.0,120.0,360.0,5.0,0.0
5864,73.0,0.0,360.0,4.0,0.0
5865,82.0,40.0,150.0,1.0,0.0
5866,83.0,160.0,150.0,1.0,0.0
5867,84.0,160.0,150.0,1.0,0.0
5868,85.0,160.0,150.0,1.0,0.0
5869,86.0,240.0,150.0,1.0,0.0
5870,87.0,240.0,240.0,1.0,0.0
5871,85.0,240.0,240.0,1.0,0.0
5872,84.0,192.0,240.0,1.0,0.0
5873,85.0,528.0,180.0,1.0,0.0
5874,61.0,0.0,720.0,5.0,0.0
5875,70.0,120.0,720.0,4.0,0.0
5876,85.0,120.0,15.0,1.0,0.0
5877,82.0,0.0,120.0,1.0,0.0
5878,85.0,96.0,120.0,1.0,0.0
5879,82.0,384.0,90.0,1.0,0.0
5880,78.0,465.0,360.0,1.0,0.0
5881,61.0,0.0,1800.0,5.0,0.0
5882,70.0,7.0,360.0,4.0,0.0
5883,78.0,8.0,360.0,1.0,0.0
5884,70.0,120.0,360.0,4.0,0.0
5885,82.0,360.0,120.0,1.0,0.0
5886,71.0,120.0,360.0,4.0,0.0
5887,80.0,0.0,360.0,1.0,0.0
5888,78.0,360.0,120.0,1.0,0.0
5889,71.0,120.0,360.0,4.0,0.0
5890,80.0,0.0,360.0,1.0,0.0
5891,82.0,240.0,120.0,1.0,0.0
5892,78.0,0.0,960.0,1.0,0.0
5893,70.0,120.0,960.0,4.0,0.0
5894,42.0,120.0,120.0,5.0,0.0
5895,44.0,120.0,120.0,5.0,0.0
5896,46.0,120.0,120.0,5.0,0.0
5897,47.0,120.0,120.0,5.0,0.0
5898,49.0,120.0,120.0,5.0,0.0
5899,51.0,120.0,120.0,5.0,0.0
5900,53.0,0.0,120.0,5.0,0.0
5901,54.0,120.0,120.0,5.0,0.0
5902,56.0,120.0,120.0,5.0,0.0
5903,58.0,120.0,120.0,5.0,0.0
5904,59.0,120.0,120.0,5.0,0.0
5905,61.0,120.0,120.0,5.0,0.0
5906,63.0,120.0,120.0,5.0,0.0
5907,65.0,120.0,120.0,5.0,0.0
5908,66.0,120.0,120.0,5.0,0.0
5909,68.0,120.0,120.0,5.0,0.0
5910,70.0,120.0,120.0,5.0,0.0
5911,71.0,120.0,120.0,5.0,0.0
5912,73.0,80.0,120.0,5.0,0.0
5913,75.0,80.0,90.0,5.0,0.0
5914,77.0,80.0,90.0,5.0,0.0
5915,78.0,80.0,90.0,5.0,0.0
5916,80.0,80.0,90.0,5.0,0.0
5917,82.0,64.0,90.0,5.0,0.0
5918,83.0,296.0,60.0,5.0,0.0
5919,85.0,185.0,2100.0,1.0,0.0
5920,82.0,0.0,2100.0,2.0,0.0
5921,54.0,120.0,120.0,5.0,0.0
5922,56.0,120.0,120.0,5.0,0.0
5923,58.0,120.0,120.0,5.0,0.0
5924,59.0,120.0,120.0,5.0,0.0
5925,61.0,120.0,120.0,5.0,0.0
5926,63.0,120.0,120.0,5.0,0.0
5927,65.0,120.0,120.0,5.0,0.0
5928,66.0,120.0,120.0,5.0,0.0
5929,68.0,120.0,120.0,5.0,0.0
5930,70.0,120.0,120.0,5.0,0.0
5931,71.0,120.0,120.0,5.0,0.0
5932,73.0,120.0,120.0,5.0,0.0
5933,75.0,120.0,120.0,5.0,0.0
5934,77.0,120.0,120.0,5.0,0.0
5935,78.0,135.0,120.0,5.0,0.0
5936,66.0,0.0,360.0,5.0,0.0
5937,83.0,120.0,120.0,1.0,0.0
5938,87.0,120.0,120.0,1.0,0.0
5939,80.0,120.0,120.0,1.0,0.0
5940,89.0,120.0,120.0,1.0,0.0
5941,82.0,120.0,120.0,1.0,0.0
5942,90.0,240.0,120.0,1.0,0.0
5943,78.0,0.0,1920.0,2.0,0.0
5944,82.0,0.0,1920.0,1.0,0.0
5945,42.0,120.0,120.0,5.0,0.0
5946,44.0,120.0,120.0,5.0,0.0
5947,46.0,120.0,120.0,5.0,0.0
5948,47.0,120.0,120.0,5.0,0.0
5949,49.0,120.0,120.0,5.0,0.0
5950,51.0,120.0,120.0,5.0,0.0
5951,53.0,120.0,120.0,5.0,0.0
5952,54.0,120.0,120.0,5.0,0.0
5953,56.0,120.0,120.0,5.0,0.0
5954,58.0,120.0,120.0,5.0,0.0
5955,59.0,120.0,120.0,5.0,0.0
5956,61.0,120.0,120.0,5.0,0.0
5957,63.0,120.0,120.0,5.0,0.0
5958,65.0,120.0,120.0,5.0,0.0
5959,66.0,360.0,120.0,5.0,0.0
5960,54.0,0.0,360.0,5.0,0.0
5961,80.0,120.0,120.0,1.0,0.0
5962,83.0,120.0,120.0,1.0,0.0
5963,81.0,120.0,120.0,1.0,0.0
5964,84.0,120.0,120.0,1.0,0.0
5965,82.0,120.0,120.0,1.0,0.0
5966,85.0,128.0,120.0,1.0,0.0
5967,73.0,192.0,120.0,1.0,0.0
5968,61.0,209.0,2640.0,5.0,0.0
5969,90.0,160.0,150.0,1.0,0.0
5970,89.0,160.0,150.0,1.0,0.0
5971,88.0,160.0,150.0,1.0,0.0
5972,87.0,160.0,150.0,1.0,0.0
5973,86.0,120.0,150.0,1.0,0.0
5974,68.0,0.0,1680.0,4.0,0.0
5975,71.0,0.0,1680.0,4.0,0.0
5976,85.0,120.0,120.0,1.0,0.0
5977,84.0,120.0,120.0,1.0,0.0
5978,83.0,120.0,120.0,1.0,0.0
5979,82.0,160.0,120.0,1.0,0.0
5980,81.0,160.0,150.0,1.0,0.0
5981,80.0,160.0,150.0,1.0,0.0
5982,79.0,240.0,150.0,1.0,0.0
5983,78.0,240.0,240.0,1.0,0.0
5984,77.0,247.0,240.0,1.0,0.0
5985,83.0,0.0,240.0,1.0,0.0
5986,77.0,984.0,90.0,1.0,0.0
5987,71.0,0.0,960.0,2.0,0.0
5988,80.0,720.0,960.0,1.0,0.0
5989,42.0,0.0,1680.0,5.0,0.0
5990,54.0,0.0,1680.0,5.0,0.0
5991,70.0,0.0,720.0,2.0,0.0
5992,78.0,1356.0,720.0,1.0,0.0
5993,66.0,0.0,150.0,5.0,0.0
5994,85.0,0.0,150.0,1.0,0.0
5995,70.0,324.0,150.0,4.0,0.0
5996,85.0,240.0,240.0,1.0,0.0
5997,70.0,0.0,240.0,4.0,0.0
5998,71.0,156.0,240.0,4.0,0.0
5999,87.0,0.0,240.0,1.0,0.0
6000,68.0,240.0,150.0,4.0,0.0
6001,83.0,0.0,150.0,1.0,0.0
6002,73.0,0.0,150.0,4.0,0.0
6003,66.0,0.0,150.0,5.0,0.0
6004,82.0,324.0,150.0,1.0,0.0
6005,73.0,240.0,240.0,4.0,0.0
6006,82.0,0.0,240.0,1.0,0.0
6007,83.0,0.0,240.0,1.0,0.0
6008,75.0,156.0,240.0,4.0,0.0
6009,80.0,0.0,150.0,1.0,0.0
6010,71.0,240.0,150.0,4.0,0.0
6011,78.0,240.0,150.0,1.0,0.0
6012,66.0,0.0,150.0,5.0,0.0
6013,70.0,0.0,150.0,4.0,0.0
6014,66.0,0.0,150.0,5.0,0.0
6015,70.0,240.0,150.0,4.0,0.0
6016,78.0,0.0,150.0,1.0,0.0
6017,80.0,0.0,150.0,1.0,0.0
6018,61.0,240.0,150.0,5.0,0.0
6019,65.0,0.0,150.0,4.0,0.0
6020,61.0,324.0,150.0,5.0,0.0
6021,65.0,0.0,150.0,4.0,0.0
6022,80.0,0.0,150.0,1.0,0.0
6023,81.0,120.0,240.0,1.0,0.0
6024,66.0,36.0,360.0,5.0,0.0
6025,82.0,240.0,150.0,1.0,0.0
6026,78.0,240.0,150.0,1.0,0.0
6027,73.0,240.0,150.0,1.0,0.0
6028,85.0,0.0,150.0,1.0,0.0
6029,54.0,84.0,150.0,5.0,0.0
6030,66.0,156.0,120.0,4.0,0.0
6031,58.0,84.0,150.0,5.0,0.0
6032,90.0,156.0,480.0,1.0,0.0
6033,66.0,156.0,120.0,4.0,0.0
6034,61.0,84.0,150.0,5.0,0.0
6035,66.0,0.0,120.0,4.0,0.0
6036,85.0,0.0,150.0,1.0,0.0
6037,65.0,60.0,150.0,5.0,0.0
6038,66.0,180.0,90.0,4.0,0.0
6039,82.0,84.0,150.0,1.0,0.0
6040,54.0,0.0,150.0,5.0,0.0
6041,66.0,156.0,120.0,4.0,0.0
6042,85.0,156.0,480.0,1.0,0.0
6043,58.0,84.0,150.0,5.0,0.0
6044,66.0,156.0,120.0,4.0,0.0
6045,61.0,84.0,150.0,5.0,0.0
6046,66.0,0.0,120.0,4.0,0.0
6047,65.0,0.0,150.0,5.0,0.0
6048,78.0,60.0,150.0,1.0,0.0
6049,66.0,180.0,90.0,4.0,0.0
6050,82.0,0.0,150.0,1.0,0.0
6051,63.0,60.0,150.0,5.0,0.0
6052,70.0,120.0,90.0,4.0,0.0
6053,66.0,60.0,90.0,4.0,0.0
6054,82.0,60.0,150.0,1.0,0.0
6055,70.0,24.0,90.0,4.0,0.0
6056,82.0,120.0,60.0,1.0,0.0
6057,80.0,36.0,120.0,1.0,0.0
6058,61.0,60.0,150.0,5.0,0.0
6059,78.0,96.0,120.0,1.0,0.0
6060,71.0,24.0,90.0,4.0,0.0
6061,65.0,24.0,90.0,4.0,0.0
6062,80.0,96.0,120.0,1.0,0.0
6063,82.0,156.0,120.0,1.0,0.0
6064,71.0,24.0,90.0,4.0,0.0
6065,66.0,0.0,150.0,4.0,0.0
6066,70.0,204.0,150.0,4.0,0.0
6067,78.0,36.0,360.0,1.0,0.0
6068,61.0,240.0,150.0,5.0,0.0
6069,54.0,480.0,150.0,5.0,0.0
6070,66.0,0.0,150.0,5.0,0.0
6071,70.0,324.0,150.0,4.0,0.0
6072,85.0,0.0,150.0,1.0,0.0
6073,70.0,240.0,240.0,4.0,0.0
6074,85.0,0.0,240.0,1.0,0.0
6075,87.0,0.0,240.0,1.0,0.0
6076,71.0,156.0,240.0,4.0,0.0
6077,83.0,0.0,150.0,1.0,0.0
6078,68.0,240.0,150.0,4.0,0.0
6079,73.0,324.0,150.0,4.0,0.0
6080,82.0,0.0,150.0,1.0,0.0
6081,66.0,0.0,150.0,5.0,0.0
6082,73.0,0.0,240.0,4.0,0.0
6083,82.0,240.0,240.0,1.0,0.0
6084,75.0,0.0,240.0,4.0,0.0
6085,83.0,156.0,240.0,1.0,0.0
6086,80.0,0.0,150.0,1.0,0.0
6087,71.0,240.0,150.0,4.0,0.0
6088,78.0,240.0,150.0,1.0,0.0
6089,70.0,0.0,150.0,4.0,0.0
6090,66.0,0.0,150.0,5.0,0.0
6091,70.0,0.0,150.0,4.0,0.0
6092,66.0,0.0,150.0,5.0,0.0
6093,78.0,240.0,150.0,1.0,0.0
6094,61.0,240.0,150.0,5.0,0.0
6095,80.0,0.0,150.0,1.0,0.0
6096,65.0,0.0,150.0,4.0,0.0
6097,80.0,0.0,150.0,1.0,0.0
6098,61.0,324.0,150.0,5.0,0.0
6099,65.0,0.0,150.0,4.0,0.0
6100,81.0,120.0,240.0,1.0,0.0
6101,66.0,36.0,360.0,5.0,0.0
6102,82.0,240.0,150.0,1.0,0.0
6103,78.0,240.0,150.0,1.0,0.0
6104,73.0,240.0,150.0,1.0,0.0
6105,54.0,0.0,150.0,5.0,0.0
6106,85.0,84.0,150.0,1.0,0.0
6107,66.0,156.0,120.0,4.0,0.0
6108,90.0,156.0,480.0,1.0,0.0
6109,58.0,84.0,150.0,5.0,0.0
6110,66.0,156.0,120.0,4.0,0.0
6111,61.0,84.0,150.0,5.0,0.0
6112,66.0,0.0,120.0,4.0,0.0
6113,65.0,0.0,150.0,5.0,0.0
6114,85.0,60.0,150.0,1.0,0.0
6115,66.0,180.0,90.0,4.0,0.0
6116,82.0,84.0,150.0,1.0,0.0
6117,54.0,0.0,150.0,5.0,0.0
6118,66.0,156.0,120.0,4.0,0.0
6119,85.0,0.0,480.0,1.0,0.0
6120,58.0,84.0,150.0,5.0,0.0
6121,66.0,156.0,120.0,4.0,0.0
6122,61.0,84.0,150.0,5.0,0.0
6123,66.0,156.0,120.0,4.0,0.0
6124,65.0,60.0,150.0,5.0,0.0
6125,78.0,0.0,150.0,1.0,0.0
6126,66.0,180.0,90.0,4.0,0.0
6127,63.0,0.0,150.0,5.0,0.0
6128,82.0,60.0,150.0,1.0,0.0
6129,70.0,120.0,90.0,4.0,0.0
6130,66.0,60.0,90.0,4.0,0.0
6131,82.0,60.0,150.0,1.0,0.0
6132,70.0,24.0,90.0,4.0,0.0
6133,82.0,120.0,60.0,1.0,0.0
6134,61.0,60.0,150.0,5.0,0.0
6135,80.0,36.0,120.0,1.0,0.0
6136,71.0,24.0,90.0,4.0,0.0
6137,78.0,96.0,120.0,1.0,0.0
6138,80.0,96.0,120.0,1.0,0.0
6139,65.0,24.0,90.0,4.0,0.0
6140,71.0,24.0,90.0,4.0,0.0
6141,82.0,156.0,120.0,1.0,0.0
6142,70.0,204.0,150.0,4.0,0.0
6143,66.0,0.0,150.0,4.0,0.0
6144,78.0,36.0,360.0,1.0,0.0
6145,61.0,240.0,150.0,5.0,0.0
6146,54.0,684.0,150.0,5.0,0.0
6147,73.0,0.0,360.0,2.0,0.0
6148,77.0,0.0,360.0,2.0,0.0
6149,80.0,0.0,360.0,1.0,0.0
6150,47.0,0.0,360.0,5.0,0.0
6151,59.0,480.0,360.0,5.0,0.0
6152,46.0,480.0,360.0,5.0,0.0
6153,78.0,0.0,360.0,2.0,0.0
6154,82.0,0.0,360.0,1.0,0.0
6155,58.0,0.0,360.0,5.0,0.0
6156,73.0,0.0,360.0,2.0,0.0
6157,73.0,0.0,360.0,2.0,0.0
6158,80.0,0.0,360.0,2.0,0.0
6159,41.0,576.0,360.0,5.0,0.0
6160,53.0,0.0,360.0,5.0,0.0
6161,83.0,0.0,360.0,1.0,0.0
6162,80.0,144.0,90.0,1.0,0.0
6163,66.0,0.0,150.0,5.0,0.0
6164,82.0,36.0,120.0,1.0,0.0
6165,70.0,84.0,150.0,4.0,0.0
6166,77.0,120.0,120.0,1.0,0.0
6167,70.0,0.0,150.0,4.0,0.0
6168,66.0,84.0,150.0,5.0,0.0
6169,78.0,36.0,120.0,1.0,0.0
6170,82.0,120.0,120.0,1.0,0.0
6171,83.0,36.0,120.0,1.0,0.0
6172,68.0,0.0,150.0,5.0,0.0
6173,71.0,84.0,150.0,4.0,0.0
6174,79.0,120.0,120.0,1.0,0.0
6175,68.0,84.0,150.0,5.0,0.0
6176,71.0,0.0,150.0,4.0,0.0
6177,80.0,36.0,120.0,1.0,0.0
6178,83.0,360.0,120.0,1.0,0.0
6179,73.0,0.0,360.0,4.0,0.0
6180,70.0,0.0,360.0,5.0,0.0
6181,85.0,480.0,360.0,1.0,0.0
6182,90.0,96.0,120.0,1.0,0.0
6183,89.0,144.0,90.0,1.0,0.0
6184,89.0,96.0,120.0,1.0,0.0
6185,87.0,144.0,90.0,1.0,0.0
6186,87.0,96.0,120.0,1.0,0.0
6187,85.0,144.0,90.0,1.0,0.0
6188,85.0,96.0,120.0,1.0,0.0
6189,83.0,144.0,90.0,1.0,0.0
6190,83.0,96.0,120.0,1.0,0.0
6191,82.0,684.0,90.0,1.0,0.0
6192,71.0,0.0,660.0,5.0,0.0
6193,87.0,245.0,660.0,1.0,0.0
6194,77.0,7.0,660.0,4.0,0.0
6195,78.0,0.0,180.0,4.0,0.0
6196,70.0,240.0,180.0,5.0,0.0
6197,85.0,0.0,180.0,1.0,0.0
6198,68.0,0.0,180.0,5.0,0.0
6199,78.0,240.0,180.0,4.0,0.0
6200,84.0,0.0,180.0,1.0,0.0
6201,73.0,0.0,180.0,5.0,0.0
6202,77.0,240.0,180.0,4.0,0.0
6203,83.0,0.0,180.0,1.0,0.0
6204,82.0,240.0,180.0,1.0,0.0
6205,75.0,0.0,180.0,5.0,0.0
6206,78.0,0.0,180.0,4.0,0.0
6207,78.0,240.0,180.0,4.0,0.0
6208,72.0,0.0,180.0,5.0,0.0
6209,81.0,0.0,180.0,1.0,0.0
6210,77.0,120.0,360.0,4.0,0.0
6211,80.0,168.0,180.0,1.0,0.0
6212,73.0,0.0,360.0,5.0,0.0
6213,82.0,240.0,240.0,1.0,0.0
6214,83.0,240.0,240.0,1.0,0.0
6215,84.0,156.0,240.0,1.0,0.0
6216,66.0,0.0,150.0,5.0,0.0
6217,70.0,324.0,150.0,4.0,0.0
6218,85.0,0.0,150.0,1.0,0.0
6219,85.0,0.0,240.0,1.0,0.0
6220,70.0,240.0,240.0,4.0,0.0
6221,87.0,156.0,240.0,1.0,0.0
6222,71.0,0.0,240.0,4.0,0.0
6223,68.0,240.0,150.0,4.0,0.0
6224,83.0,0.0,150.0,1.0,0.0
6225,73.0,0.0,150.0,4.0,0.0
6226,66.0,324.0,150.0,5.0,0.0
6227,82.0,0.0,150.0,1.0,0.0
6228,82.0,0.0,240.0,1.0,0.0
6229,73.0,240.0,240.0,4.0,0.0
6230,83.0,0.0,240.0,1.0,0.0
6231,75.0,156.0,240.0,4.0,0.0
6232,71.0,240.0,150.0,4.0,0.0
6233,80.0,0.0,150.0,1.0,0.0
6234,66.0,0.0,150.0,5.0,0.0
6235,78.0,0.0,150.0,1.0,0.0
6236,70.0,240.0,150.0,4.0,0.0
6237,66.0,0.0,150.0,5.0,0.0
6238,70.0,240.0,150.0,4.0,0.0
6239,78.0,0.0,150.0,1.0,0.0
6240,65.0,240.0,150.0,4.0,0.0
6241,80.0,0.0,150.0,1.0,0.0
6242,61.0,0.0,150.0,5.0,0.0
6243,80.0,0.0,150.0,1.0,0.0
6244,61.0,0.0,150.0,5.0,0.0
6245,65.0,324.0,150.0,4.0,0.0
6246,81.0,120.0,240.0,1.0,0.0
6247,66.0,36.0,360.0,5.0,0.0
6248,82.0,240.0,150.0,1.0,0.0
6249,78.0,240.0,150.0,1.0,0.0
6250,73.0,240.0,150.0,1.0,0.0
6251,54.0,84.0,150.0,5.0,0.0
6252,85.0,0.0,150.0,1.0,0.0
6253,66.0,156.0,120.0,4.0,0.0
6254,58.0,84.0,150.0,5.0,0.0
6255,90.0,156.0,480.0,1.0,0.0
6256,66.0,156.0,120.0,4.0,0.0
6257,61.0,84.0,150.0,5.0,0.0
6258,66.0,0.0,120.0,4.0,0.0
6259,65.0,60.0,150.0,5.0,0.0
6260,85.0,0.0,150.0,1.0,0.0
6261,66.0,180.0,90.0,4.0,0.0
6262,54.0,0.0,150.0,5.0,0.0
6263,82.0,84.0,150.0,1.0,0.0
6264,66.0,156.0,120.0,4.0,0.0
6265,85.0,156.0,480.0,1.0,0.0
6266,58.0,84.0,150.0,5.0,0.0
6267,66.0,156.0,120.0,4.0,0.0
6268,61.0,84.0,150.0,5.0,0.0
6269,66.0,0.0,120.0,4.0,0.0
6270,65.0,60.0,150.0,5.0,0.0
6271,78.0,0.0,150.0,1.0,0.0
6272,66.0,180.0,90.0,4.0,0.0
6273,63.0,0.0,150.0,5.0,0.0
6274,82.0,60.0,150.0,1.0,0.0
6275,70.0,120.0,90.0,4.0,0.0
6276,82.0,60.0,150.0,1.0,0.0
6277,66.0,60.0,90.0,4.0,0.0
6278,70.0,24.0,90.0,4.0,0.0
6279,82.0,120.0,60.0,1.0,0.0
6280,80.0,36.0,120.0,1.0,0.0
6281,61.0,60.0,150.0,5.0,0.0
6282,71.0,24.0,90.0,4.0,0.0
6283,78.0,96.0,120.0,1.0,0.0
6284,65.0,24.0,90.0,4.0,0.0
6285,80.0,96.0,120.0,1.0,0.0
6286,82.0,156.0,120.0,1.0,0.0
6287,71.0,24.0,90.0,4.0,0.0
6288,78.0,36.0,360.0,1.0,0.0
6289,66.0,204.0,150.0,4.0,0.0
6290,70.0,0.0,150.0,4.0,0.0
6291,61.0,240.0,150.0,5.0,0.0
6292,54.0,684.0,150.0,5.0,0.0
6293,59.0,480.0,360.0,5.0,0.0
6294,73.0,0.0,360.0,2.0,0.0
6295,77.0,0.0,360.0,2.0,0.0
6296,80.0,0.0,360.0,1.0,0.0
6297,47.0,0.0,360.0,5.0,0.0
6298,78.0,0.0,360.0,2.0,0.0
6299,73.0,0.0,360.0,2.0,0.0
6300,82.0,0.0,360.0,1.0,0.0
6301,46.0,480.0,360.0,5.0,0.0
6302,58.0,0.0,360.0,5.0,0.0
6303,53.0,0.0,360.0,5.0,0.0
6304,41.0,0.0,360.0,5.0,0.0
6305,80.0,576.0,360.0,2.0,0.0
6306,73.0,0.0,360.0,2.0,0.0
6307,83.0,0.0,360.0,1.0,0.0
6308,80.0,144.0,90.0,1.0,0.0
6309,66.0,84.0,150.0,5.0,0.0
6310,70.0,0.0,150.0,4.0,0.0
6311,82.0,36.0,120.0,1.0,0.0
6312,77.0,120.0,120.0,1.0,0.0
6313,70.0,84.0,150.0,4.0,0.0
6314,66.0,0.0,150.0,5.0,0.0
6315,78.0,36.0,120.0,1.0,0.0
6316,82.0,120.0,120.0,1.0,0.0
6317,71.0,84.0,150.0,4.0,0.0
6318,83.0,36.0,120.0,1.0,0.0
6319,68.0,0.0,150.0,5.0,0.0
6320,79.0,120.0,120.0,1.0,0.0
6321,80.0,36.0,120.0,1.0,0.0
6322,68.0,0.0,150.0,5.0,0.0
6323,71.0,84.0,150.0,4.0,0.0
6324,83.0,360.0,120.0,1.0,0.0
6325,85.0,0.0,360.0,1.0,0.0
6326,73.0,480.0,360.0,4.0,0.0
6327,70.0,0.0,360.0,5.0,0.0
6328,90.0,96.0,120.0,1.0,0.0
6329,89.0,144.0,90.0,1.0,0.0
6330,89.0,96.0,120.0,1.0,0.0
6331,87.0,144.0,90.0,1.0,0.0
6332,87.0,96.0,120.0,1.0,0.0
6333,85.0,144.0,90.0,1.0,0.0
6334,85.0,96.0,120.0,1.0,0.0
6335,83.0,144.0,90.0,1.0,0.0
6336,83.0,96.0,120.0,1.0,0.0
6337,82.0,684.0,90.0,1.0,0.0
6338,71.0,0.0,660.0,5.0,0.0
6339,77.0,7.0,660.0,4.0,0.0
6340,87.0,245.0,660.0,1.0,0.0
6341,78.0,240.0,180.0,4.0,0.0
6342,85.0,0.0,180.0,1.0,0.0
6343,70.0,0.0,180.0,5.0,0.0
6344,84.0,0.0,180.0,1.0,0.0
6345,78.0,0.0,180.0,4.0,0.0
6346,68.0,240.0,180.0,5.0,0.0
6347,77.0,240.0,180.0,4.0,0.0
6348,73.0,0.0,180.0,5.0,0.0
6349,83.0,0.0,180.0,1.0,0.0
6350,82.0,240.0,180.0,1.0,0.0
6351,78.0,0.0,180.0,4.0,0.0
6352,75.0,0.0,180.0,5.0,0.0
6353,78.0,0.0,180.0,4.0,0.0
6354,72.0,0.0,180.0,5.0,0.0
6355,81.0,240.0,180.0,1.0,0.0
6356,77.0,120.0,360.0,4.0,0.0
6357,73.0,0.0,360.0,5.0,0.0
6358,80.0,168.0,180.0,1.0,0.0
6359,82.0,240.0,240.0,1.0,0.0
6360,83.0,240.0,240.0,1.0,0.0
6361,84.0,156.0,240.0,1.0,0.0
6362,70.0,324.0,150.0,4.0,0.0
6363,85.0,0.0,150.0,1.0,0.0
6364,66.0,0.0,150.0,5.0,0.0
6365,70.0,240.0,240.0,4.0,0.0
6366,85.0,0.0,240.0,1.0,0.0
6367,87.0,156.0,240.0,1.0,0.0
6368,71.0,0.0,240.0,4.0,0.0
6369,68.0,0.0,150.0,4.0,0.0
6370,83.0,240.0,150.0,1.0,0.0
6371,82.0,0.0,150.0,1.0,0.0
6372,66.0,324.0,150.0,5.0,0.0
6373,73.0,0.0,150.0,4.0,0.0
6374,73.0,0.0,240.0,4.0,0.0
6375,82.0,240.0,240.0,1.0,0.0
6376,75.0,156.0,240.0,4.0,0.0
6377,83.0,0.0,240.0,1.0,0.0
6378,80.0,240.0,150.0,1.0,0.0
6379,71.0,0.0,150.0,4.0,0.0
6380,78.0,0.0,150.0,1.0,0.0
6381,70.0,0.0,150.0,4.0,0.0
6382,66.0,240.0,150.0,5.0,0.0
6383,70.0,240.0,150.0,4.0,0.0
6384,66.0,0.0,150.0,5.0,0.0
6385,78.0,0.0,150.0,1.0,0.0
6386,61.0,0.0,150.0,5.0,0.0
6387,80.0,240.0,150.0,1.0,0.0
6388,65.0,0.0,150.0,4.0,0.0
6389,65.0,0.0,150.0,4.0,0.0
6390,61.0,0.0,150.0,5.0,0.0
6391,80.0,324.0,150.0,1.0,0.0
6392,66.0,36.0,360.0,5.0,0.0
6393,81.0,120.0,240.0,1.0,0.0
6394,82.0,240.0,150.0,1.0,0.0
6395,78.0,240.0,150.0,1.0,0.0
6396,73.0,240.0,150.0,1.0,0.0
6397,85.0,84.0,150.0,1.0,0.0
6398,54.0,0.0,150.0,5.0,0.0
6399,66.0,156.0,120.0,4.0,0.0
6400,58.0,84.0,150.0,5.0,0.0
6401,90.0,0.0,480.0,1.0,0.0
6402,66.0,156.0,120.0,4.0,0.0
6403,61.0,84.0,150.0,5.0,0.0
6404,66.0,156.0,120.0,4.0,0.0
6405,85.0,60.0,150.0,1.0,0.0
6406,65.0,0.0,150.0,5.0,0.0
6407,66.0,180.0,90.0,4.0,0.0
6408,82.0,84.0,150.0,1.0,0.0
6409,54.0,0.0,150.0,5.0,0.0
6410,66.0,156.0,120.0,4.0,0.0
6411,85.0,0.0,480.0,1.0,0.0
6412,58.0,84.0,150.0,5.0,0.0
6413,66.0,156.0,120.0,4.0,0.0
6414,61.0,84.0,150.0,5.0,0.0
6415,66.0,156.0,120.0,4.0,0.0
6416,65.0,60.0,150.0,5.0,0.0
6417,78.0,0.0,150.0,1.0,0.0
6418,66.0,180.0,90.0,4.0,0.0
6419,82.0,60.0,150.0,1.0,0.0
6420,63.0,0.0,150.0,5.0,0.0
6421,70.0,120.0,90.0,4.0,0.0
6422,66.0,60.0,90.0,4.0,0.0
6423,82.0,60.0,150.0,1.0,0.0
6424,70.0,24.0,90.0,4.0,0.0
6425,82.0,120.0,60.0,1.0,0.0
6426,80.0,36.0,120.0,1.0,0.0
6427,61.0,60.0,150.0,5.0,0.0
6428,71.0,24.0,90.0,4.0,0.0
6429,78.0,96.0,120.0,1.0,0.0
6430,80.0,96.0,120.0,1.0,0.0
6431,65.0,24.0,90.0,4.0,0.0
6432,82.0,156.0,120.0,1.0,0.0
6433,71.0,24.0,90.0,4.0,0.0
6434,78.0,36.0,360.0,1.0,0.0
6435,70.0,204.0,150.0,4.0,0.0
6436,66.0,0.0,150.0,4.0,0.0
6437,61.0,240.0,150.0,5.0,0.0
6438,54.0,480.0,150.0,5.0,0.0
6439,76.0,240.0,150.0,1.0,0.0
6440,66.0,0.0,150.0,4.0,0.0
6441,58.0,0.0,150.0,5.0,0.0
6442,58.0,124.0,150.0,5.0,0.0
6443,66.0,0.0,150.0,4.0,0.0
6444,76.0,0.0,150.0,1.0,0.0
6445,66.0,0.0,150.0,4.0,0.0
6446,58.0,84.0,150.0,5.0,0.0
6447,76.0,40.0,40.0,1.0,0.0
6448,78.0,40.0,40.0,1.0,0.0
6449,76.0,36.0,40.0,1.0,0.0
6450,75.0,120.0,120.0,1.0,0.0
6451,76.0,36.0,120.0,1.0,0.0
6452,66.0,84.0,150.0,4.0,0.0
6453,58.0,0.0,150.0,5.0,0.0
6454,78.0,360.0,120.0,1.0,0.0
6455,75.0,0.0,360.0,1.0,0.0
6456,66.0,0.0,360.0,4.0,0.0
6457,59.0,756.0,360.0,5.0,0.0
6458,73.0,0.0,150.0,1.0,0.0
6459,66.0,0.0,150.0,4.0,0.0
6460,61.0,240.0,150.0,5.0,0.0
6461,61.0,0.0,150.0,5.0,0.0
6462,73.0,124.0,150.0,1.0,0.0
6463,66.0,0.0,150.0,4.0,0.0
6464,66.0,0.0,150.0,4.0,0.0
6465,73.0,40.0,40.0,1.0,0.0
6466,61.0,84.0,150.0,5.0,0.0
6467,75.0,40.0,40.0,1.0,0.0
6468,73.0,36.0,40.0,1.0,0.0
6469,72.0,120.0,120.0,1.0,0.0
6470,61.0,84.0,150.0,5.0,0.0
6471,66.0,0.0,150.0,4.0,0.0
6472,73.0,36.0,120.0,1.0,0.0
6473,75.0,360.0,120.0,1.0,0.0
6474,63.0,0.0,360.0,5.0,0.0
6475,66.0,756.0,360.0,4.0,0.0
6476,71.0,0.0,360.0,1.0,0.0
6477,62.0,0.0,960.0,5.0,0.0
6478,66.0,0.0,960.0,4.0,0.0
6479,83.0,240.0,150.0,1.0,0.0
6480,83.0,204.0,150.0,1.0,0.0
6481,83.0,120.0,120.0,1.0,0.0
6482,82.0,120.0,120.0,1.0,0.0
6483,83.0,120.0,120.0,1.0,0.0
6484,85.0,0.0,120.0,1.0,0.0
6485,61.0,0.0,360.0,5.0,0.0
6486,83.0,120.0,120.0,1.0,0.0
6487,71.0,120.0,15.0,4.0,0.0
6488,65.0,120.0,360.0,4.0,0.0
6489,80.0,120.0,120.0,1.0,0.0
6490,83.0,0.0,120.0,1.0,0.0
6491,89.0,120.0,120.0,1.0,0.0
6492,92.0,120.0,120.0,1.0,0.0
6493,83.0,120.0,120.0,1.0,0.0
6494,50.0,0.0,150.0,5.0,0.0
6495,62.0,60.0,150.0,5.0,0.0
6496,90.0,36.0,120.0,1.0,0.0
6497,83.0,144.0,90.0,1.0,0.0
6498,61.0,0.0,660.0,5.0,0.0
6499,49.0,53.0,660.0,5.0,0.0
6500,92.0,120.0,120.0,1.0,0.0
6501,83.0,120.0,120.0,1.0,0.0
6502,80.0,120.0,120.0,1.0,0.0
6503,83.0,120.0,120.0,1.0,0.0
6504,92.0,67.0,120.0,1.0,0.0
6505,83.0,120.0,120.0,1.0,0.0
6506,90.0,36.0,120.0,1.0,0.0
6507,62.0,60.0,150.0,5.0,0.0
6508,50.0,0.0,150.0,5.0,0.0
6509,83.0,144.0,90.0,1.0,0.0
6510,89.0,120.0,120.0,1.0,0.0
6511,61.0,53.0,660.0,5.0,0.0
6512,49.0,0.0,660.0,5.0,0.0
6513,83.0,120.0,120.0,1.0,0.0
6514,80.0,120.0,120.0,1.0,0.0
6515,83.0,120.0,120.0,1.0,0.0
6516,92.0,67.0,120.0,1.0,0.0
6517,83.0,120.0,120.0,1.0,0.0
6518,50.0,60.0,150.0,5.0,0.0
6519,62.0,0.0,150.0,5.0,0.0
6520,90.0,36.0,120.0,1.0,0.0
6521,83.0,144.0,90.0,1.0,0.0
6522,61.0,0.0,150.0,5.0,0.0
6523,49.0,84.0,150.0,5.0,0.0
6524,89.0,36.0,120.0,1.0,0.0
6525,83.0,120.0,120.0,1.0,0.0
6526,90.0,36.0,120.0,1.0,0.0
6527,62.0,0.0,150.0,5.0,0.0
6528,50.0,84.0,150.0,5.0,0.0
6529,83.0,120.0,120.0,1.0,0.0
6530,49.0,84.0,150.0,5.0,0.0
6531,61.0,0.0,150.0,5.0,0.0
6532,89.0,36.0,120.0,1.0,0.0
6533,83.0,120.0,120.0,1.0,0.0
6534,90.0,36.0,120.0,1.0,0.0
6535,50.0,60.0,150.0,5.0,0.0
6536,62.0,0.0,150.0,5.0,0.0
6537,83.0,144.0,90.0,1.0,0.0
6538,73.0,0.0,1920.0,5.0,0.0
6539,89.0,120.0,120.0,1.0,0.0
6540,85.0,120.0,120.0,1.0,0.0
6541,92.0,120.0,120.0,1.0,0.0
6542,83.0,120.0,120.0,1.0,0.0
6543,82.0,120.0,120.0,1.0,0.0
6544,85.0,120.0,120.0,1.0,0.0
6545,92.0,120.0,120.0,1.0,0.0
6546,90.0,120.0,120.0,1.0,0.0
6547,80.0,120.0,120.0,1.0,0.0
6548,83.0,120.0,120.0,1.0,0.0
6549,90.0,120.0,120.0,1.0,0.0
6550,89.0,120.0,120.0,1.0,0.0
6551,78.0,120.0,120.0,1.0,0.0
6552,82.0,120.0,120.0,1.0,0.0
6553,89.0,120.0,120.0,1.0,0.0
6554,87.0,120.0,120.0,1.0,0.0
6555,61.0,0.0,15.0,5.0,0.0
6556,77.0,120.0,120.0,1.0,0.0
6557,80.0,120.0,120.0,1.0,0.0
6558,87.0,120.0,120.0,1.0,0.0
6559,85.0,120.0,120.0,1.0,0.0
6560,75.0,120.0,120.0,1.0,0.0
6561,78.0,120.0,120.0,1.0,0.0
6562,85.0,120.0,120.0,1.0,0.0
6563,83.0,120.0,120.0,1.0,0.0
6564,73.0,120.0,120.0,1.0,0.0
6565,77.0,120.0,120.0,1.0,0.0
6566,83.0,120.0,120.0,1.0,0.0
6567,82.0,120.0,120.0,1.0,0.0
6568,71.0,120.0,120.0,1.0,0.0
6569,75.0,120.0,120.0,1.0,0.0
6570,82.0,120.0,120.0,1.0,0.0
6571,80.0,0.0,120.0,1.0,0.0
6572,70.0,120.0,120.0,1.0,0.0
6573,49.0,120.0,15.0,5.0,0.0
6574,37.0,0.0,1920.0,5.0,0.0
6575,73.0,120.0,120.0,1.0,0.0
6576,80.0,120.0,120.0,1.0,0.0
6577,78.0,120.0,120.0,1.0,0.0
6578,68.0,120.0,120.0,1.0,0.0
6579,71.0,120.0,120.0,1.0,0.0
6580,78.0,120.0,120.0,1.0,0.0
6581,77.0,120.0,120.0,1.0,0.0
6582,66.0,120.0,120.0,1.0,0.0
6583,70.0,120.0,120.0,1.0,0.0
6584,77.0,120.0,120.0,1.0,0.0
6585,75.0,120.0,120.0,1.0,0.0
6586,65.0,120.0,120.0,1.0,0.0
6587,68.0,120.0,120.0,1.0,0.0
6588,75.0,96.0,120.0,1.0,0.0
6589,73.0,24.0,90.0,1.0,0.0
6590,63.0,120.0,120.0,3.0,0.0
6591,66.0,120.0,120.0,3.0,0.0
6592,69.0,120.0,120.0,3.0,0.0
6593,78.0,0.0,240.0,1.0,0.0
6594,74.0,120.0,120.0,3.0,0.0
6595,68.0,120.0,120.0,3.0,0.0
6596,80.0,0.0,240.0,1.0,0.0
6597,72.0,120.0,120.0,3.0,0.0
6598,81.0,48.0,180.0,1.0,0.0
6599,66.0,72.0,120.0,3.0,0.0
6600,72.0,120.0,120.0,3.0,0.0
6601,63.0,120.0,120.0,3.0,0.0
6602,66.0,120.0,120.0,3.0,0.0
6603,78.0,0.0,240.0,1.0,0.0
6604,69.0,120.0,120.0,3.0,0.0
6605,72.0,120.0,120.0,3.0,0.0
6606,68.0,120.0,120.0,3.0,0.0
6607,80.0,120.0,240.0,1.0,0.0
6608,72.0,0.0,120.0,3.0,0.0
6609,81.0,48.0,180.0,1.0,0.0
6610,66.0,72.0,120.0,3.0,0.0
6611,72.0,120.0,120.0,3.0,0.0
6612,63.0,120.0,120.0,3.0,0.0
6613,66.0,120.0,120.0,3.0,0.0
6614,78.0,0.0,240.0,1.0,0.0
6615,69.0,120.0,120.0,3.0,0.0
6616,72.0,120.0,120.0,3.0,0.0
6617,80.0,120.0,240.0,1.0,0.0
6618,68.0,120.0,120.0,3.0,0.0
6619,72.0,0.0,120.0,3.0,0.0
6620,66.0,72.0,120.0,3.0,0.0
6621,81.0,48.0,180.0,1.0,0.0
6622,72.0,120.0,120.0,3.0,0.0
6623,66.0,120.0,120.0,3.0,0.0
6624,81.0,0.0,240.0,1.0,0.0
6625,72.0,120.0,120.0,3.0,0.0
6626,80.0,48.0,180.0,1.0,0.0
6627,68.0,72.0,120.0,3.0,0.0
6628,72.0,120.0,120.0,3.0,0.0
6629,68.0,120.0,120.0,3.0,0.0
6630,80.0,0.0,240.0,1.0,0.0
6631,72.0,120.0,120.0,3.0,0.0
6632,78.0,24.0,180.0,1.0,0.0
6633,69.0,72.0,120.0,3.0,0.0
6634,72.0,144.0,90.0,3.0,0.0
6635,65.0,120.0,120.0,3.0,0.0
6636,68.0,120.0,120.0,3.0,0.0
6637,71.0,120.0,120.0,3.0,0.0
6638,44.0,120.0,240.0,5.0,0.0
6639,74.0,0.0,120.0,3.0,0.0
6640,69.0,120.0,120.0,3.0,0.0
6641,42.0,0.0,240.0,5.0,0.0
6642,74.0,120.0,120.0,3.0,0.0
6643,41.0,48.0,180.0,5.0,0.0
6644,68.0,72.0,120.0,3.0,0.0
6645,74.0,120.0,120.0,3.0,0.0
6646,65.0,120.0,120.0,3.0,0.0
6647,68.0,120.0,120.0,3.0,0.0
6648,71.0,120.0,120.0,3.0,0.0
6649,44.0,0.0,240.0,5.0,0.0
6650,74.0,120.0,120.0,3.0,0.0
6651,69.0,120.0,120.0,3.0,0.0
6652,42.0,120.0,240.0,5.0,0.0
6653,74.0,0.0,120.0,3.0,0.0
6654,41.0,48.0,180.0,5.0,0.0
6655,68.0,72.0,120.0,3.0,0.0
6656,74.0,120.0,120.0,3.0,0.0
6657,68.0,120.0,120.0,3.0,0.0
6658,41.0,120.0,240.0,5.0,0.0
6659,74.0,0.0,120.0,3.0,0.0
6660,66.0,72.0,120.0,3.0,0.0
6661,42.0,48.0,180.0,5.0,0.0
6662,74.0,120.0,120.0,3.0,0.0
6663,66.0,120.0,120.0,3.0,0.0
6664,42.0,0.0,240.0,5.0,0.0
6665,74.0,120.0,120.0,3.0,0.0
6666,44.0,48.0,180.0,5.0,0.0
6667,65.0,72.0,120.0,3.0,0.0
6668,74.0,360.0,120.0,3.0,0.0
6669,44.0,0.0,360.0,5.0,0.0
6670,65.0,480.0,360.0,3.0,0.0
6671,42.0,480.0,360.0,5.0,0.0
6672,41.0,480.0,360.0,5.0,0.0
6673,38.0,1807.0,360.0,5.0,0.0
6674,37.0,0.0,6090.0,5.0,0.0
6675,44.0,0.0,6090.0,3.0,0.0
6676,41.0,2.0,6090.0,3.0,0.0
6677,47.0,0.0,6090.0,3.0,0.0
6678,49.0,73.0,1680.0,1.0,0.0
6679,51.0,80.0,90.0,1.0,0.0
6680,49.0,80.0,90.0,1.0,0.0
6681,48.0,60.0,90.0,1.0,0.0
6682,49.0,60.0,60.0,1.0,0.0
6683,53.0,60.0,60.0,1.0,0.0
6684,51.0,60.0,60.0,1.0,0.0
6685,54.0,60.0,60.0,1.0,0.0
6686,53.0,60.0,60.0,1.0,0.0
6687,56.0,60.0,60.0,1.0,0.0
6688,54.0,60.0,60.0,1.0,0.0
6689,58.0,60.0,60.0,1.0,0.0
6690,56.0,60.0,60.0,1.0,0.0
6691,59.0,60.0,60.0,1.0,0.0
6692,58.0,60.0,60.0,1.0,0.0
6693,61.0,60.0,60.0,1.0,0.0
6694,59.0,60.0,60.0,1.0,0.0
6695,63.0,60.0,60.0,1.0,0.0
6696,61.0,60.0,60.0,1.0,0.0
6697,65.0,60.0,60.0,1.0,0.0
6698,63.0,60.0,60.0,1.0,0.0
6699,66.0,60.0,60.0,1.0,0.0
6700,65.0,60.0,60.0,1.0,0.0
6701,68.0,60.0,60.0,1.0,0.0
6702,66.0,60.0,60.0,1.0,0.0
6703,70.0,60.0,60.0,1.0,0.0
6704,68.0,60.0,60.0,1.0,0.0
6705,71.0,60.0,60.0,1.0,0.0
6706,70.0,60.0,60.0,1.0,0.0
6707,73.0,60.0,60.0,1.0,0.0
6708,71.0,60.0,60.0,1.0,0.0
6709,75.0,60.0,60.0,1.0,0.0
6710,73.0,60.0,60.0,1.0,0.0
6711,77.0,60.0,60.0,1.0,0.0
6712,75.0,60.0,60.0,1.0,0.0
6713,78.0,60.0,60.0,1.0,0.0
6714,77.0,60.0,60.0,1.0,0.0
6715,80.0,60.0,60.0,1.0,0.0
6716,78.0,60.0,60.0,1.0,0.0
6717,82.0,60.0,60.0,1.0,0.0
6718,80.0,60.0,60.0,1.0,0.0
6719,83.0,60.0,60.0,1.0,0.0
6720,82.0,60.0,60.0,1.0,0.0
6721,85.0,60.0,60.0,1.0,0.0
6722,83.0,60.0,60.0,1.0,0.0
6723,85.0,60.0,60.0,1.0,0.0
6724,83.0,60.0,60.0,1.0,0.0
6725,85.0,60.0,60.0,1.0,0.0
6726,83.0,60.0,60.0,1.0,0.0
6727,85.0,60.0,60.0,1.0,0.0
6728,83.0,60.0,60.0,1.0,0.0
6729,85.0,60.0,60.0,1.0,0.0
6730,83.0,60.0,60.0,1.0,0.0
6731,85.0,60.0,60.0,1.0,0.0
6732,83.0,60.0,60.0,1.0,0.0
6733,85.0,60.0,60.0,1.0,0.0
6734,83.0,60.0,60.0,1.0,0.0
6735,85.0,60.0,60.0,1.0,0.0
6736,83.0,60.0,60.0,1.0,0.0
6737,85.0,60.0,60.0,1.0,0.0
6738,84.0,60.0,60.0,1.0,0.0
6739,85.0,60.0,60.0,1.0,0.0
6740,84.0,60.0,60.0,1.0,0.0
6741,85.0,60.0,60.0,1.0,0.0
6742,84.0,60.0,60.0,1.0,0.0
6743,85.0,60.0,60.0,1.0,0.0
6744,84.0,60.0,60.0,1.0,0.0
6745,85.0,60.0,60.0,1.0,0.0
6746,84.0,60.0,60.0,1.0,0.0
6747,85.0,60.0,60.0,1.0,0.0
6748,84.0,60.0,60.0,1.0,0.0
6749,85.0,40.0,60.0,1.0,0.0
6750,84.0,38.0,40.0,1.0,0.0
6751,85.0,40.0,40.0,1.0,0.0
6752,84.0,60.0,40.0,1.0,0.0
6753,82.0,60.0,60.0,1.0,0.0
6754,84.0,360.0,60.0,1.0,0.0
6755,87.0,96.0,360.0,1.0,0.0
6756,85.0,264.0,90.0,1.0,0.0
6757,66.0,6.0,1410.0,5.0,0.0
6758,85.0,60.0,720.0,1.0,0.0
6759,70.0,240.0,240.0,3.0,0.0
6760,73.0,240.0,240.0,3.0,0.0
6761,70.0,0.0,240.0,3.0,0.0
6762,73.0,0.0,240.0,3.0,0.0
6763,87.0,60.0,60.0,1.0,0.0
6764,85.0,60.0,60.0,1.0,0.0
6765,84.0,60.0,60.0,1.0,0.0
6766,85.0,240.0,60.0,1.0,0.0
6767,70.0,120.0,240.0,3.0,0.0
6768,90.0,72.0,360.0,1.0,0.0
6769,73.0,18.0,180.0,3.0,0.0
6770,85.0,264.0,90.0,1.0,0.0
6771,70.0,240.0,240.0,3.0,0.0
6772,82.0,57.0,720.0,1.0,0.0
6773,66.0,6.0,1410.0,5.0,0.0
6774,73.0,240.0,240.0,3.0,0.0
6775,70.0,3.0,240.0,3.0,0.0
6776,83.0,60.0,60.0,1.0,0.0
6777,73.0,0.0,240.0,3.0,0.0
6778,82.0,60.0,60.0,1.0,0.0
6779,80.0,60.0,60.0,1.0,0.0
6780,82.0,240.0,60.0,1.0,0.0
6781,70.0,120.0,240.0,3.0,0.0
6782,85.0,72.0,360.0,1.0,0.0
6783,73.0,18.0,180.0,3.0,0.0
6784,82.0,264.0,90.0,1.0,0.0
6785,61.0,0.0,960.0,5.0,0.0
6786,70.0,240.0,240.0,3.0,0.0
6787,73.0,240.0,240.0,3.0,0.0
6788,78.0,0.0,15.0,1.0,0.0
6789,70.0,240.0,240.0,3.0,0.0
6790,73.0,80.0,240.0,3.0,0.0
6791,80.0,80.0,90.0,1.0,0.0
6792,65.0,23.0,450.0,5.0,0.0
6793,71.0,0.0,240.0,3.0,0.0
6794,82.0,80.0,90.0,1.0,0.0
6795,80.0,120.0,90.0,1.0,0.0
6796,73.0,25.0,180.0,3.0,0.0
6797,78.0,72.0,120.0,1.0,0.0
6798,80.0,240.0,120.0,1.0,0.0
6799,66.0,0.0,360.0,5.0,0.0
6800,81.0,120.0,240.0,1.0,0.0
6801,70.0,360.0,360.0,3.0,0.0
6802,82.0,0.0,120.0,1.0,0.0
6803,77.0,120.0,240.0,1.0,0.0
6804,78.0,360.0,120.0,1.0,0.0
6805,72.0,120.0,240.0,1.0,0.0
6806,73.0,312.0,120.0,1.0,0.0
6807,66.0,72.0,360.0,5.0,0.0
6808,85.0,168.0,180.0,1.0,0.0
6809,70.0,0.0,360.0,4.0,0.0
6810,86.0,240.0,180.0,1.0,0.0
6811,87.0,240.0,180.0,1.0,0.0
6812,89.0,288.0,180.0,1.0,0.0
6813,92.0,192.0,240.0,1.0,0.0
6814,90.0,240.0,180.0,1.0,0.0
6815,66.0,72.0,360.0,5.0,0.0
6816,81.0,168.0,180.0,1.0,0.0
6817,73.0,0.0,360.0,4.0,0.0
6818,82.0,240.0,180.0,1.0,0.0
6819,83.0,240.0,180.0,1.0,0.0
6820,84.0,288.0,180.0,1.0,0.0
6821,87.0,192.0,240.0,1.0,0.0
6822,85.0,288.0,180.0,1.0,0.0
6823,70.0,120.0,240.0,3.0,0.0
6824,85.0,120.0,360.0,1.0,0.0
6825,61.0,0.0,960.0,5.0,0.0
6826,73.0,0.0,240.0,3.0,0.0
6827,82.0,192.0,120.0,1.0,0.0
6828,70.0,240.0,240.0,3.0,0.0
6829,78.0,48.0,180.0,1.0,0.0
6830,73.0,40.0,240.0,3.0,0.0
6831,80.0,40.0,40.0,1.0,0.0
6832,65.0,23.0,450.0,5.0,0.0
6833,71.0,120.0,240.0,3.0,0.0
6834,82.0,40.0,40.0,1.0,0.0
6835,80.0,120.0,40.0,1.0,0.0
6836,78.0,0.0,120.0,1.0,0.0
6837,80.0,72.0,120.0,1.0,0.0
6838,73.0,25.0,180.0,3.0,0.0
6839,82.0,360.0,120.0,1.0,0.0
6840,66.0,0.0,360.0,5.0,0.0
6841,78.0,336.0,360.0,1.0,0.0
6842,70.0,0.0,360.0,3.0,0.0
6843,90.0,120.0,90.0,1.0,0.0
6844,89.0,120.0,90.0,1.0,0.0
6845,87.0,120.0,90.0,1.0,0.0
6846,85.0,120.0,90.0,1.0,0.0
6847,83.0,120.0,90.0,1.0,0.0
6848,82.0,120.0,90.0,1.0,0.0
6849,80.0,264.0,90.0,1.0,0.0
6850,61.0,180.0,960.0,5.0,0.0
6851,70.0,240.0,240.0,3.0,0.0
6852,78.0,240.0,480.0,1.0,0.0
6853,73.0,0.0,240.0,3.0,0.0
6854,70.0,240.0,240.0,3.0,0.0
6855,78.0,0.0,480.0,1.0,0.0
6856,73.0,0.0,240.0,3.0,0.0
6857,65.0,23.0,450.0,5.0,0.0
6858,80.0,60.0,180.0,1.0,0.0
6859,71.0,0.0,240.0,3.0,0.0
6860,78.0,120.0,60.0,1.0,0.0
6861,73.0,25.0,180.0,3.0,0.0
6862,80.0,72.0,120.0,1.0,0.0
6863,82.0,360.0,120.0,1.0,0.0
6864,70.0,0.0,360.0,3.0,0.0
6865,66.0,300.0,360.0,5.0,0.0
6866,78.0,0.0,360.0,1.0,0.0
6867,90.0,60.0,60.0,1.0,0.0
6868,89.0,60.0,60.0,1.0,0.0
6869,87.0,60.0,60.0,1.0,0.0
6870,85.0,60.0,60.0,1.0,0.0
6871,83.0,60.0,60.0,1.0,0.0
6872,82.0,60.0,60.0,1.0,0.0
6873,80.0,60.0,60.0,1.0,0.0
6874,78.0,60.0,60.0,1.0,0.0
6875,77.0,60.0,60.0,1.0,0.0
6876,75.0,60.0,60.0,1.0,0.0
6877,73.0,60.0,60.0,1.0,0.0
6878,71.0,60.0,60.0,1.0,0.0
6879,70.0,60.0,60.0,1.0,0.0
6880,68.0,240.0,60.0,1.0,0.0
6881,49.0,0.0,960.0,5.0,0.0
6882,58.0,240.0,240.0,3.0,0.0
6883,61.0,0.0,240.0,3.0,0.0
6884,66.0,240.0,15.0,1.0,0.0
6885,58.0,240.0,240.0,3.0,0.0
6886,61.0,0.0,240.0,3.0,0.0
6887,59.0,0.0,240.0,3.0,0.0
6888,68.0,40.0,40.0,1.0,0.0
6889,53.0,23.0,450.0,5.0,0.0
6890,70.0,40.0,40.0,1.0,0.0
6891,68.0,120.0,40.0,1.0,0.0
6892,66.0,120.0,120.0,1.0,0.0
6893,61.0,25.0,180.0,3.0,0.0
6894,68.0,72.0,120.0,1.0,0.0
6895,70.0,360.0,120.0,1.0,0.0
6896,66.0,960.0,360.0,1.0,0.0
6897,54.0,0.0,360.0,5.0,0.0
6898,58.0,0.0,360.0,3.0,0.0
6899,89.0,480.0,360.0,1.0,0.0
6900,80.0,0.0,360.0,2.0,0.0
6901,49.0,0.0,360.0,5.0,0.0
6902,83.0,0.0,360.0,2.0,0.0
6903,61.0,0.0,360.0,5.0,0.0
6904,82.0,0.0,360.0,2.0,0.0
6905,42.0,0.0,360.0,5.0,0.0
6906,54.0,0.0,360.0,5.0,0.0
6907,90.0,0.0,360.0,1.0,0.0
6908,78.0,0.0,360.0,2.0,0.0
