,note,step,duration,channel,velocity
0,66.0,0.0,210.0,2.0,0.0
1,78.0,36.0,210.0,1.0,0.0
2,66.0,0.0,210.0,3.0,0.0
3,42.0,0.0,210.0,5.0,0.0
4,66.0,0.0,210.0,4.0,0.0
5,78.0,0.0,210.0,0.0,0.0
6,73.0,0.0,30.0,0.0,0.0
7,73.0,0.0,30.0,1.0,0.0
8,61.0,0.0,30.0,3.0,0.0
9,37.0,111.0,30.0,5.0,0.0
10,61.0,0.0,30.0,4.0,0.0
11,61.0,0.0,30.0,2.0,0.0
12,66.0,0.0,120.0,2.0,0.0
13,66.0,0.0,120.0,4.0,0.0
14,78.0,0.0,120.0,0.0,0.0
15,78.0,0.0,120.0,1.0,0.0
16,66.0,93.0,120.0,3.0,0.0
17,42.0,0.0,120.0,5.0,0.0
18,70.0,0.0,90.0,2.0,0.0
19,46.0,36.0,90.0,5.0,0.0
20,70.0,0.0,90.0,3.0,0.0
21,70.0,0.0,90.0,4.0,0.0
22,82.0,0.0,90.0,0.0,0.0
23,73.0,0.0,30.0,1.0,0.0
24,73.0,0.0,30.0,0.0,0.0
25,61.0,0.0,30.0,4.0,0.0
26,61.0,204.0,30.0,3.0,0.0
27,37.0,0.0,30.0,5.0,0.0
28,61.0,0.0,30.0,2.0,0.0
29,78.0,0.0,210.0,1.0,0.0
30,66.0,0.0,210.0,2.0,0.0
31,42.0,0.0,210.0,5.0,0.0
32,78.0,0.0,210.0,0.0,0.0
33,66.0,0.0,210.0,3.0,0.0
34,66.0,36.0,210.0,4.0,0.0
35,61.0,111.0,30.0,4.0,0.0
36,73.0,0.0,30.0,0.0,0.0
37,73.0,0.0,30.0,1.0,0.0
38,37.0,0.0,30.0,5.0,0.0
39,61.0,0.0,30.0,2.0,0.0
40,61.0,0.0,30.0,3.0,0.0
41,66.0,0.0,120.0,2.0,0.0
42,42.0,0.0,120.0,5.0,0.0
43,78.0,0.0,120.0,0.0,0.0
44,78.0,93.0,120.0,1.0,0.0
45,66.0,0.0,120.0,4.0,0.0
46,66.0,0.0,120.0,3.0,0.0
47,70.0,0.0,90.0,2.0,0.0
48,82.0,0.0,90.0,0.0,0.0
49,70.0,0.0,90.0,4.0,0.0
50,70.0,0.0,90.0,3.0,0.0
51,46.0,36.0,90.0,5.0,0.0
52,73.0,0.0,30.0,1.0,0.0
53,61.0,0.0,30.0,2.0,0.0
54,61.0,0.0,30.0,4.0,0.0
55,73.0,57.0,30.0,0.0,0.0
56,37.0,0.0,30.0,5.0,0.0
57,61.0,0.0,30.0,3.0,0.0
58,66.0,0.0,60.0,3.0,0.0
59,78.0,6.0,120.0,1.0,0.0
60,66.0,0.0,60.0,4.0,0.0
61,78.0,0.0,120.0,0.0,0.0
62,66.0,0.0,60.0,2.0,0.0
63,42.0,54.0,60.0,5.0,0.0
64,42.0,60.0,60.0,5.0,0.0
65,66.0,0.0,60.0,4.0,0.0
66,42.0,0.0,60.0,5.0,0.0
67,87.0,60.0,60.0,2.0,0.0
68,83.0,0.0,60.0,3.0,0.0
69,66.0,0.0,60.0,4.0,0.0
70,42.0,0.0,60.0,5.0,0.0
71,66.0,60.0,60.0,4.0,0.0
72,82.0,0.0,60.0,3.0,0.0
73,42.0,0.0,60.0,5.0,0.0
74,66.0,0.0,60.0,4.0,0.0
75,85.0,60.0,60.0,2.0,0.0
76,42.0,0.0,60.0,5.0,0.0
77,66.0,60.0,60.0,4.0,0.0
78,42.0,0.0,60.0,5.0,0.0
79,83.0,60.0,60.0,2.0,0.0
80,80.0,0.0,60.0,3.0,0.0
81,66.0,0.0,60.0,4.0,0.0
82,66.0,0.0,60.0,4.0,0.0
83,42.0,60.0,60.0,5.0,0.0
84,66.0,0.0,60.0,4.0,0.0
85,42.0,0.0,60.0,5.0,0.0
86,78.0,60.0,60.0,3.0,0.0
87,82.0,0.0,60.0,2.0,0.0
88,42.0,60.0,60.0,5.0,0.0
89,66.0,0.0,60.0,4.0,0.0
90,42.0,0.0,60.0,5.0,0.0
91,83.0,60.0,60.0,2.0,0.0
92,66.0,0.0,60.0,4.0,0.0
93,80.0,0.0,60.0,3.0,0.0
94,42.0,0.0,60.0,5.0,0.0
95,66.0,60.0,60.0,4.0,0.0
96,82.0,0.0,60.0,2.0,0.0
97,66.0,60.0,60.0,4.0,0.0
98,42.0,0.0,60.0,5.0,0.0
99,78.0,0.0,60.0,3.0,0.0
100,66.0,0.0,60.0,4.0,0.0
101,42.0,60.0,60.0,5.0,0.0
102,80.0,0.0,60.0,2.0,0.0
103,42.0,60.0,60.0,5.0,0.0
104,66.0,0.0,60.0,4.0,0.0
105,77.0,0.0,60.0,3.0,0.0
106,66.0,114.0,60.0,4.0,0.0
107,42.0,0.0,60.0,5.0,0.0
108,66.0,0.0,210.0,4.0,0.0
109,78.0,0.0,120.0,2.0,0.0
110,66.0,0.0,120.0,2.0,0.0
111,78.0,0.0,210.0,1.0,0.0
112,78.0,0.0,210.0,0.0,0.0
113,42.0,36.0,210.0,5.0,0.0
114,78.0,93.0,120.0,3.0,0.0
115,66.0,0.0,120.0,3.0,0.0
116,70.0,0.0,90.0,2.0,0.0
117,70.0,0.0,90.0,3.0,0.0
118,73.0,0.0,30.0,1.0,0.0
119,37.0,0.0,30.0,5.0,0.0
120,73.0,0.0,30.0,0.0,0.0
121,61.0,0.0,30.0,3.0,0.0
122,61.0,111.0,30.0,2.0,0.0
123,61.0,0.0,30.0,4.0,0.0
124,78.0,93.0,120.0,1.0,0.0
125,42.0,0.0,120.0,5.0,0.0
126,78.0,0.0,120.0,0.0,0.0
127,66.0,0.0,120.0,4.0,0.0
128,66.0,0.0,210.0,3.0,0.0
129,66.0,0.0,210.0,2.0,0.0
130,70.0,0.0,90.0,4.0,0.0
131,46.0,36.0,90.0,5.0,0.0
132,82.0,0.0,90.0,0.0,0.0
133,37.0,0.0,30.0,5.0,0.0
134,61.0,0.0,30.0,3.0,0.0
135,61.0,0.0,30.0,2.0,0.0
136,61.0,0.0,30.0,4.0,0.0
137,73.0,204.0,30.0,1.0,0.0
138,73.0,0.0,30.0,0.0,0.0
139,66.0,0.0,210.0,3.0,0.0
140,78.0,0.0,210.0,0.0,0.0
141,42.0,36.0,210.0,5.0,0.0
142,66.0,0.0,210.0,2.0,0.0
143,66.0,0.0,210.0,4.0,0.0
144,78.0,0.0,210.0,1.0,0.0
145,61.0,0.0,30.0,2.0,0.0
146,61.0,111.0,30.0,4.0,0.0
147,73.0,0.0,30.0,1.0,0.0
148,37.0,0.0,30.0,5.0,0.0
149,61.0,0.0,30.0,3.0,0.0
150,73.0,0.0,30.0,0.0,0.0
151,66.0,0.0,120.0,4.0,0.0
152,66.0,93.0,120.0,2.0,0.0
153,78.0,0.0,120.0,0.0,0.0
154,42.0,0.0,120.0,5.0,0.0
155,66.0,0.0,120.0,3.0,0.0
156,78.0,0.0,120.0,1.0,0.0
157,66.0,0.0,90.0,3.0,0.0
158,70.0,0.0,90.0,4.0,0.0
159,82.0,36.0,90.0,0.0,0.0
160,46.0,0.0,90.0,5.0,0.0
161,66.0,0.0,90.0,2.0,0.0
162,37.0,0.0,30.0,5.0,0.0
163,61.0,0.0,30.0,2.0,0.0
164,73.0,0.0,30.0,0.0,0.0
165,73.0,0.0,30.0,1.0,0.0
166,61.0,0.0,30.0,3.0,0.0
167,61.0,57.0,30.0,4.0,0.0
168,66.0,0.0,60.0,2.0,0.0
169,66.0,0.0,60.0,3.0,0.0
170,78.0,0.0,60.0,1.0,0.0
171,66.0,0.0,60.0,4.0,0.0
172,42.0,54.0,60.0,5.0,0.0
173,78.0,6.0,120.0,0.0,0.0
174,66.0,0.0,60.0,4.0,0.0
175,42.0,60.0,60.0,5.0,0.0
176,83.0,0.0,60.0,1.0,0.0
177,66.0,0.0,60.0,4.0,0.0
178,87.0,0.0,60.0,2.0,0.0
179,83.0,0.0,60.0,3.0,0.0
180,87.0,60.0,60.0,1.0,0.0
181,42.0,0.0,60.0,5.0,0.0
182,42.0,0.0,60.0,5.0,0.0
183,66.0,60.0,60.0,4.0,0.0
184,82.0,0.0,60.0,3.0,0.0
185,66.0,0.0,60.0,4.0,0.0
186,42.0,0.0,60.0,5.0,0.0
187,85.0,0.0,60.0,1.0,0.0
188,82.0,0.0,60.0,1.0,0.0
189,85.0,60.0,60.0,2.0,0.0
190,42.0,0.0,60.0,5.0,0.0
191,66.0,60.0,60.0,4.0,0.0
192,80.0,0.0,60.0,3.0,0.0
193,83.0,0.0,60.0,2.0,0.0
194,83.0,0.0,60.0,1.0,0.0
195,42.0,0.0,60.0,5.0,0.0
196,66.0,0.0,60.0,4.0,0.0
197,80.0,60.0,60.0,1.0,0.0
198,42.0,0.0,60.0,5.0,0.0
199,66.0,60.0,60.0,4.0,0.0
200,78.0,0.0,60.0,1.0,0.0
201,82.0,0.0,60.0,1.0,0.0
202,42.0,0.0,60.0,5.0,0.0
203,82.0,0.0,60.0,2.0,0.0
204,78.0,0.0,60.0,3.0,0.0
205,66.0,60.0,60.0,4.0,0.0
206,66.0,60.0,60.0,4.0,0.0
207,42.0,0.0,60.0,5.0,0.0
208,42.0,0.0,60.0,5.0,0.0
209,83.0,0.0,60.0,1.0,0.0
210,66.0,60.0,60.0,4.0,0.0
211,80.0,0.0,60.0,1.0,0.0
212,83.0,0.0,60.0,2.0,0.0
213,80.0,0.0,60.0,3.0,0.0
214,42.0,60.0,60.0,5.0,0.0
215,66.0,0.0,60.0,4.0,0.0
216,78.0,60.0,60.0,3.0,0.0
217,82.0,0.0,60.0,2.0,0.0
218,82.0,0.0,60.0,1.0,0.0
219,42.0,0.0,60.0,5.0,0.0
220,78.0,0.0,60.0,1.0,0.0
221,66.0,0.0,60.0,4.0,0.0
222,42.0,0.0,60.0,5.0,0.0
223,66.0,60.0,60.0,4.0,0.0
224,80.0,0.0,60.0,2.0,0.0
225,73.0,0.0,60.0,1.0,0.0
226,80.0,0.0,60.0,1.0,0.0
227,66.0,0.0,60.0,4.0,0.0
228,77.0,60.0,60.0,3.0,0.0
229,42.0,0.0,60.0,5.0,0.0
230,66.0,0.0,60.0,4.0,0.0
231,42.0,33.0,60.0,5.0,0.0
232,78.0,30.0,30.0,3.0,0.0
233,78.0,0.0,120.0,1.0,0.0
234,70.0,0.0,120.0,1.0,0.0
235,66.0,9.0,120.0,4.0,0.0
236,82.0,0.0,930.0,0.0,0.0
237,78.0,0.0,30.0,2.0,0.0
238,73.0,18.0,930.0,0.0,0.0
239,42.0,0.0,120.0,5.0,0.0
240,85.0,0.0,30.0,2.0,0.0
241,82.0,30.0,30.0,3.0,0.0
242,85.0,21.0,30.0,2.0,0.0
243,82.0,0.0,30.0,3.0,0.0
244,85.0,27.0,30.0,2.0,0.0
245,82.0,0.0,30.0,3.0,0.0
246,70.0,3.0,90.0,4.0,0.0
247,82.0,0.0,20.0,3.0,0.0
248,85.0,30.0,20.0,2.0,0.0
249,46.0,0.0,90.0,5.0,0.0
250,82.0,27.0,20.0,3.0,0.0
251,85.0,0.0,20.0,2.0,0.0
252,82.0,0.0,20.0,3.0,0.0
253,85.0,30.0,20.0,2.0,0.0
254,85.0,3.0,20.0,2.0,0.0
255,82.0,0.0,20.0,3.0,0.0
256,49.0,27.0,30.0,5.0,0.0
257,73.0,0.0,30.0,4.0,0.0
258,82.0,30.0,20.0,3.0,0.0
259,85.0,0.0,690.0,1.0,0.0
260,85.0,0.0,20.0,2.0,0.0
261,54.0,6.0,120.0,5.0,0.0
262,82.0,0.0,690.0,1.0,0.0
263,78.0,0.0,120.0,4.0,0.0
264,85.0,0.0,20.0,2.0,0.0
265,82.0,30.0,20.0,3.0,0.0
266,85.0,0.0,20.0,2.0,0.0
267,82.0,24.0,20.0,3.0,0.0
268,85.0,30.0,20.0,2.0,0.0
269,82.0,0.0,20.0,3.0,0.0
270,82.0,30.0,20.0,3.0,0.0
271,73.0,0.0,90.0,4.0,0.0
272,85.0,0.0,20.0,2.0,0.0
273,49.0,3.0,90.0,5.0,0.0
274,85.0,0.0,20.0,2.0,0.0
275,82.0,27.0,20.0,3.0,0.0
276,82.0,30.0,20.0,3.0,0.0
277,85.0,0.0,20.0,2.0,0.0
278,70.0,0.0,30.0,4.0,0.0
279,85.0,0.0,20.0,2.0,0.0
280,82.0,3.0,20.0,3.0,0.0
281,46.0,27.0,30.0,5.0,0.0
282,82.0,0.0,20.0,3.0,0.0
283,66.0,0.0,60.0,4.0,0.0
284,42.0,0.0,60.0,5.0,0.0
285,85.0,30.0,20.0,2.0,0.0
286,85.0,0.0,20.0,2.0,0.0
287,82.0,30.0,20.0,3.0,0.0
288,68.0,0.0,30.0,4.0,0.0
289,44.0,27.0,30.0,5.0,0.0
290,85.0,3.0,20.0,2.0,0.0
291,82.0,0.0,20.0,3.0,0.0
292,46.0,27.0,30.0,5.0,0.0
293,85.0,0.0,20.0,2.0,0.0
294,70.0,0.0,30.0,4.0,0.0
295,82.0,3.0,20.0,3.0,0.0
296,82.0,3.0,20.0,3.0,0.0
297,71.0,27.0,30.0,4.0,0.0
298,47.0,0.0,30.0,5.0,0.0
299,85.0,0.0,20.0,2.0,0.0
300,49.0,0.0,30.0,5.0,0.0
301,82.0,3.0,20.0,3.0,0.0
302,85.0,0.0,20.0,2.0,0.0
303,73.0,27.0,30.0,4.0,0.0
304,82.0,3.0,20.0,3.0,0.0
305,85.0,0.0,20.0,2.0,0.0
306,75.0,0.0,30.0,4.0,0.0
307,51.0,27.0,30.0,5.0,0.0
308,77.0,27.0,30.0,4.0,0.0
309,85.0,3.0,20.0,2.0,0.0
310,53.0,0.0,30.0,5.0,0.0
311,82.0,0.0,20.0,3.0,0.0
312,82.0,0.0,20.0,3.0,0.0
313,54.0,30.0,60.0,5.0,0.0
314,78.0,0.0,60.0,4.0,0.0
315,85.0,30.0,20.0,2.0,0.0
316,82.0,0.0,20.0,3.0,0.0
317,85.0,0.0,20.0,2.0,0.0
318,85.0,30.0,20.0,2.0,0.0
319,49.0,0.0,60.0,5.0,0.0
320,82.0,0.0,20.0,3.0,0.0
321,73.0,30.0,60.0,4.0,0.0
322,82.0,0.0,20.0,3.0,0.0
323,85.0,0.0,20.0,2.0,0.0
324,85.0,0.0,20.0,2.0,0.0
325,70.0,30.0,60.0,4.0,0.0
326,82.0,30.0,20.0,3.0,0.0
327,46.0,0.0,60.0,5.0,0.0
328,85.0,0.0,20.0,2.0,0.0
329,82.0,0.0,20.0,3.0,0.0
330,85.0,12.0,20.0,2.0,0.0
331,66.0,0.0,60.0,4.0,0.0
332,82.0,0.0,20.0,3.0,0.0
333,42.0,30.0,60.0,5.0,0.0
334,82.0,0.0,20.0,3.0,0.0
335,85.0,0.0,20.0,2.0,0.0
336,83.0,18.0,930.0,1.0,0.0
337,87.0,0.0,930.0,1.0,0.0
338,83.0,0.0,930.0,0.0,0.0
339,83.0,30.0,20.0,3.0,0.0
340,59.0,6.0,120.0,4.0,0.0
341,71.0,0.0,930.0,0.0,0.0
342,35.0,0.0,120.0,5.0,0.0
343,87.0,0.0,20.0,2.0,0.0
344,87.0,0.0,20.0,2.0,0.0
345,83.0,30.0,20.0,3.0,0.0
346,87.0,24.0,20.0,2.0,0.0
347,83.0,0.0,20.0,3.0,0.0
348,87.0,0.0,20.0,2.0,0.0
349,83.0,30.0,20.0,3.0,0.0
350,39.0,0.0,90.0,5.0,0.0
351,87.0,0.0,20.0,2.0,0.0
352,83.0,30.0,20.0,3.0,0.0
353,63.0,3.0,90.0,4.0,0.0
354,83.0,27.0,20.0,3.0,0.0
355,87.0,0.0,20.0,2.0,0.0
356,83.0,0.0,20.0,3.0,0.0
357,87.0,30.0,20.0,2.0,0.0
358,66.0,27.0,30.0,4.0,0.0
359,42.0,0.0,30.0,5.0,0.0
360,83.0,3.0,20.0,3.0,0.0
361,87.0,0.0,20.0,2.0,0.0
362,47.0,0.0,120.0,5.0,0.0
363,87.0,30.0,20.0,2.0,0.0
364,83.0,0.0,20.0,3.0,0.0
365,71.0,6.0,120.0,4.0,0.0
366,87.0,0.0,20.0,2.0,0.0
367,83.0,30.0,20.0,3.0,0.0
368,87.0,0.0,20.0,2.0,0.0
369,83.0,24.0,20.0,3.0,0.0
370,87.0,0.0,20.0,2.0,0.0
371,83.0,30.0,20.0,3.0,0.0
372,66.0,0.0,90.0,4.0,0.0
373,87.0,0.0,20.0,2.0,0.0
374,42.0,3.0,90.0,5.0,0.0
375,83.0,30.0,20.0,3.0,0.0
376,87.0,0.0,20.0,2.0,0.0
377,83.0,27.0,20.0,3.0,0.0
378,83.0,0.0,20.0,3.0,0.0
379,87.0,30.0,20.0,2.0,0.0
380,63.0,0.0,30.0,4.0,0.0
381,83.0,0.0,20.0,3.0,0.0
382,87.0,3.0,20.0,2.0,0.0
383,39.0,27.0,30.0,5.0,0.0
384,35.0,0.0,60.0,5.0,0.0
385,83.0,0.0,20.0,3.0,0.0
386,59.0,0.0,60.0,4.0,0.0
387,87.0,30.0,20.0,2.0,0.0
388,87.0,30.0,20.0,2.0,0.0
389,83.0,0.0,20.0,3.0,0.0
390,87.0,3.0,20.0,2.0,0.0
391,61.0,27.0,30.0,4.0,0.0
392,83.0,0.0,20.0,3.0,0.0
393,37.0,0.0,30.0,5.0,0.0
394,39.0,0.0,30.0,5.0,0.0
395,83.0,3.0,20.0,3.0,0.0
396,63.0,27.0,30.0,4.0,0.0
397,87.0,0.0,20.0,2.0,0.0
398,40.0,0.0,30.0,5.0,0.0
399,83.0,0.0,20.0,3.0,0.0
400,87.0,3.0,20.0,2.0,0.0
401,64.0,27.0,30.0,4.0,0.0
402,66.0,0.0,30.0,4.0,0.0
403,87.0,0.0,20.0,2.0,0.0
404,83.0,3.0,20.0,3.0,0.0
405,42.0,27.0,30.0,5.0,0.0
406,83.0,0.0,20.0,3.0,0.0
407,87.0,3.0,20.0,2.0,0.0
408,68.0,0.0,30.0,4.0,0.0
409,44.0,27.0,30.0,5.0,0.0
410,46.0,27.0,30.0,5.0,0.0
411,70.0,0.0,30.0,4.0,0.0
412,83.0,0.0,20.0,3.0,0.0
413,87.0,3.0,20.0,2.0,0.0
414,87.0,0.0,20.0,2.0,0.0
415,83.0,30.0,20.0,3.0,0.0
416,71.0,0.0,60.0,4.0,0.0
417,47.0,0.0,60.0,5.0,0.0
418,83.0,0.0,20.0,3.0,0.0
419,87.0,30.0,20.0,2.0,0.0
420,83.0,30.0,20.0,3.0,0.0
421,78.0,30.0,60.0,4.0,0.0
422,54.0,0.0,60.0,5.0,0.0
423,87.0,0.0,20.0,2.0,0.0
424,83.0,0.0,20.0,3.0,0.0
425,87.0,0.0,20.0,2.0,0.0
426,51.0,0.0,60.0,5.0,0.0
427,87.0,0.0,20.0,2.0,0.0
428,83.0,30.0,20.0,3.0,0.0
429,75.0,30.0,60.0,4.0,0.0
430,83.0,0.0,20.0,3.0,0.0
431,87.0,0.0,20.0,2.0,0.0
432,87.0,12.0,20.0,2.0,0.0
433,83.0,0.0,20.0,3.0,0.0
434,47.0,0.0,60.0,5.0,0.0
435,71.0,0.0,60.0,4.0,0.0
436,83.0,0.0,20.0,3.0,0.0
437,87.0,30.0,20.0,2.0,0.0
438,85.0,0.0,20.0,2.0,0.0
439,82.0,30.0,20.0,3.0,0.0
440,66.0,6.0,120.0,4.0,0.0
441,42.0,0.0,120.0,5.0,0.0
442,73.0,0.0,930.0,0.0,0.0
443,82.0,0.0,930.0,1.0,0.0
444,85.0,0.0,930.0,1.0,0.0
445,82.0,18.0,930.0,0.0,0.0
446,85.0,30.0,20.0,2.0,0.0
447,82.0,0.0,20.0,3.0,0.0
448,85.0,0.0,20.0,2.0,0.0
449,82.0,24.0,20.0,3.0,0.0
450,85.0,30.0,20.0,2.0,0.0
451,82.0,0.0,20.0,3.0,0.0
452,70.0,0.0,90.0,4.0,0.0
453,82.0,30.0,20.0,3.0,0.0
454,85.0,0.0,20.0,2.0,0.0
455,46.0,3.0,90.0,5.0,0.0
456,82.0,27.0,20.0,3.0,0.0
457,85.0,0.0,20.0,2.0,0.0
458,85.0,0.0,20.0,2.0,0.0
459,82.0,30.0,20.0,3.0,0.0
460,73.0,27.0,30.0,4.0,0.0
461,82.0,3.0,20.0,3.0,0.0
462,85.0,0.0,20.0,2.0,0.0
463,49.0,0.0,30.0,5.0,0.0
464,85.0,0.0,20.0,2.0,0.0
465,54.0,6.0,120.0,5.0,0.0
466,82.0,30.0,20.0,3.0,0.0
467,78.0,0.0,120.0,4.0,0.0
468,82.0,30.0,20.0,3.0,0.0
469,85.0,0.0,20.0,2.0,0.0
470,85.0,24.0,20.0,2.0,0.0
471,82.0,0.0,20.0,3.0,0.0
472,85.0,0.0,20.0,2.0,0.0
473,82.0,30.0,20.0,3.0,0.0
474,73.0,3.0,90.0,4.0,0.0
475,49.0,0.0,90.0,5.0,0.0
476,85.0,30.0,20.0,2.0,0.0
477,82.0,0.0,20.0,3.0,0.0
478,85.0,27.0,20.0,2.0,0.0
479,82.0,0.0,20.0,3.0,0.0
480,82.0,30.0,20.0,3.0,0.0
481,85.0,0.0,20.0,2.0,0.0
482,85.0,3.0,20.0,2.0,0.0
483,46.0,27.0,30.0,5.0,0.0
484,82.0,0.0,20.0,3.0,0.0
485,70.0,0.0,30.0,4.0,0.0
486,42.0,0.0,60.0,5.0,0.0
487,85.0,30.0,20.0,2.0,0.0
488,66.0,0.0,60.0,4.0,0.0
489,82.0,0.0,20.0,3.0,0.0
490,82.0,0.0,20.0,3.0,0.0
491,85.0,30.0,20.0,2.0,0.0
492,44.0,0.0,30.0,5.0,0.0
493,82.0,0.0,20.0,3.0,0.0
494,68.0,27.0,30.0,4.0,0.0
495,85.0,3.0,20.0,2.0,0.0
496,85.0,3.0,20.0,2.0,0.0
497,82.0,0.0,20.0,3.0,0.0
498,46.0,27.0,30.0,5.0,0.0
499,70.0,0.0,30.0,4.0,0.0
500,71.0,0.0,30.0,4.0,0.0
501,47.0,27.0,30.0,5.0,0.0
502,85.0,0.0,20.0,2.0,0.0
503,82.0,3.0,20.0,3.0,0.0
504,85.0,0.0,20.0,2.0,0.0
505,49.0,27.0,30.0,5.0,0.0
506,82.0,3.0,20.0,3.0,0.0
507,73.0,0.0,30.0,4.0,0.0
508,75.0,0.0,30.0,4.0,0.0
509,51.0,27.0,30.0,5.0,0.0
510,82.0,0.0,20.0,3.0,0.0
511,85.0,3.0,20.0,2.0,0.0
512,85.0,0.0,20.0,2.0,0.0
513,77.0,0.0,30.0,4.0,0.0
514,53.0,27.0,30.0,5.0,0.0
515,82.0,3.0,20.0,3.0,0.0
516,78.0,0.0,60.0,4.0,0.0
517,82.0,30.0,20.0,3.0,0.0
518,85.0,0.0,20.0,2.0,0.0
519,54.0,0.0,60.0,5.0,0.0
520,85.0,0.0,20.0,2.0,0.0
521,82.0,30.0,20.0,3.0,0.0
522,85.0,0.0,20.0,2.0,0.0
523,49.0,0.0,60.0,5.0,0.0
524,82.0,30.0,20.0,3.0,0.0
525,73.0,30.0,60.0,4.0,0.0
526,85.0,0.0,20.0,2.0,0.0
527,82.0,0.0,20.0,3.0,0.0
528,85.0,30.0,20.0,2.0,0.0
529,46.0,0.0,60.0,5.0,0.0
530,70.0,0.0,60.0,4.0,0.0
531,82.0,0.0,20.0,3.0,0.0
532,82.0,0.0,20.0,3.0,0.0
533,85.0,30.0,20.0,2.0,0.0
534,42.0,0.0,60.0,5.0,0.0
535,66.0,33.0,60.0,4.0,0.0
536,85.0,0.0,20.0,2.0,0.0
537,82.0,12.0,20.0,3.0,0.0
538,85.0,0.0,20.0,2.0,0.0
539,82.0,0.0,20.0,3.0,0.0
540,80.0,3.0,60.0,3.0,0.0
541,47.0,6.0,120.0,5.0,0.0
542,75.0,15.0,150.0,0.0,0.0
543,80.0,0.0,60.0,0.0,0.0
544,87.0,27.0,30.0,2.0,0.0
545,71.0,0.0,60.0,4.0,0.0
546,85.0,30.0,30.0,2.0,0.0
547,83.0,0.0,30.0,0.0,0.0
548,83.0,0.0,30.0,3.0,0.0
549,59.0,3.0,60.0,4.0,0.0
550,83.0,21.0,30.0,2.0,0.0
551,82.0,0.0,30.0,2.0,0.0
552,82.0,0.0,30.0,0.0,0.0
553,82.0,30.0,30.0,3.0,0.0
554,80.0,0.0,30.0,3.0,0.0
555,71.0,9.0,120.0,4.0,0.0
556,80.0,0.0,120.0,0.0,0.0
557,80.0,15.0,30.0,2.0,0.0
558,79.0,30.0,30.0,2.0,0.0
559,79.0,0.0,30.0,3.0,0.0
560,80.0,0.0,30.0,3.0,0.0
561,80.0,21.0,30.0,2.0,0.0
562,79.0,0.0,30.0,3.0,0.0
563,79.0,90.0,30.0,2.0,0.0
564,80.0,0.0,120.0,3.0,0.0
565,80.0,9.0,120.0,2.0,0.0
566,71.0,0.0,30.0,4.0,0.0
567,47.0,21.0,30.0,5.0,0.0
568,49.0,57.0,30.0,5.0,0.0
569,73.0,0.0,30.0,4.0,0.0
570,51.0,60.0,60.0,5.0,0.0
571,75.0,0.0,60.0,4.0,0.0
572,49.0,0.0,60.0,5.0,0.0
573,73.0,33.0,60.0,4.0,0.0
574,87.0,0.0,30.0,3.0,0.0
575,75.0,15.0,150.0,0.0,0.0
576,71.0,0.0,60.0,4.0,0.0
577,87.0,27.0,30.0,2.0,0.0
578,47.0,6.0,120.0,5.0,0.0
579,80.0,3.0,60.0,0.0,0.0
580,85.0,0.0,30.0,2.0,0.0
581,85.0,30.0,30.0,3.0,0.0
582,83.0,0.0,30.0,2.0,0.0
583,83.0,0.0,30.0,3.0,0.0
584,59.0,3.0,60.0,4.0,0.0
585,83.0,21.0,30.0,0.0,0.0
586,82.0,30.0,30.0,2.0,0.0
587,82.0,0.0,30.0,0.0,0.0
588,82.0,0.0,30.0,3.0,0.0
589,80.0,0.0,30.0,3.0,0.0
590,80.0,0.0,120.0,0.0,0.0
591,80.0,15.0,30.0,2.0,0.0
592,71.0,9.0,120.0,4.0,0.0
593,79.0,0.0,30.0,2.0,0.0
594,79.0,30.0,30.0,3.0,0.0
595,80.0,0.0,30.0,2.0,0.0
596,80.0,21.0,30.0,3.0,0.0
597,79.0,0.0,30.0,3.0,0.0
598,79.0,90.0,30.0,2.0,0.0
599,80.0,9.0,120.0,2.0,0.0
600,80.0,0.0,120.0,3.0,0.0
601,71.0,0.0,30.0,4.0,0.0
602,47.0,21.0,30.0,5.0,0.0
603,49.0,57.0,30.0,5.0,0.0
604,73.0,0.0,30.0,4.0,0.0
605,75.0,0.0,60.0,4.0,0.0
606,51.0,60.0,60.0,5.0,0.0
607,51.0,0.0,60.0,5.0,0.0
608,73.0,33.0,60.0,4.0,0.0
609,87.0,0.0,30.0,2.0,0.0
610,71.0,0.0,60.0,4.0,0.0
611,87.0,27.0,30.0,3.0,0.0
612,47.0,3.0,60.0,5.0,0.0
613,80.0,0.0,120.0,0.0,0.0
614,75.0,6.0,120.0,0.0,0.0
615,85.0,0.0,30.0,2.0,0.0
616,85.0,30.0,30.0,3.0,0.0
617,83.0,0.0,30.0,3.0,0.0
618,75.0,0.0,60.0,4.0,0.0
619,83.0,21.0,30.0,2.0,0.0
620,47.0,3.0,60.0,5.0,0.0
621,82.0,0.0,30.0,2.0,0.0
622,82.0,57.0,30.0,3.0,0.0
623,80.0,12.0,150.0,2.0,0.0
624,80.0,0.0,150.0,3.0,0.0
625,80.0,0.0,150.0,0.0,0.0
626,47.0,60.0,60.0,5.0,0.0
627,75.0,0.0,60.0,4.0,0.0
628,75.0,18.0,210.0,0.0,0.0
629,47.0,0.0,60.0,5.0,0.0
630,75.0,48.0,60.0,4.0,0.0
631,75.0,0.0,60.0,4.0,0.0
632,48.0,42.0,60.0,5.0,0.0
633,82.0,0.0,60.0,2.0,0.0
634,82.0,0.0,60.0,0.0,0.0
635,82.0,0.0,60.0,3.0,0.0
636,75.0,60.0,60.0,4.0,0.0
637,48.0,0.0,60.0,5.0,0.0
638,80.0,0.0,60.0,0.0,0.0
639,80.0,0.0,60.0,3.0,0.0
640,80.0,0.0,60.0,2.0,0.0
641,48.0,0.0,60.0,5.0,0.0
642,75.0,54.0,60.0,4.0,0.0
643,75.0,6.0,120.0,0.0,0.0
644,78.0,0.0,60.0,3.0,0.0
645,78.0,60.0,60.0,2.0,0.0
646,78.0,0.0,60.0,0.0,0.0
647,48.0,0.0,60.0,5.0,0.0
648,75.0,0.0,60.0,4.0,0.0
649,73.0,0.0,120.0,0.0,0.0
650,77.0,6.0,120.0,0.0,0.0
651,73.0,18.0,450.0,1.0,0.0
652,77.0,0.0,60.0,2.0,0.0
653,61.0,0.0,450.0,1.0,0.0
654,77.0,0.0,60.0,3.0,0.0
655,49.0,0.0,60.0,5.0,0.0
656,68.0,33.0,60.0,4.0,0.0
657,49.0,3.0,60.0,5.0,0.0
658,85.0,21.0,30.0,3.0,0.0
659,85.0,0.0,30.0,2.0,0.0
660,73.0,0.0,60.0,4.0,0.0
661,85.0,0.0,30.0,2.0,0.0
662,85.0,27.0,30.0,3.0,0.0
663,84.0,0.0,20.0,3.0,0.0
664,48.0,0.0,60.0,5.0,0.0
665,72.0,0.0,60.0,4.0,0.0
666,84.0,30.0,20.0,2.0,0.0
667,84.0,0.0,20.0,3.0,0.0
668,84.0,30.0,20.0,2.0,0.0
669,82.0,0.0,20.0,3.0,0.0
670,82.0,30.0,20.0,2.0,0.0
671,46.0,0.0,60.0,5.0,0.0
672,70.0,0.0,60.0,4.0,0.0
673,82.0,0.0,20.0,3.0,0.0
674,82.0,30.0,20.0,2.0,0.0
675,80.0,30.0,20.0,2.0,0.0
676,80.0,0.0,20.0,3.0,0.0
677,44.0,0.0,60.0,5.0,0.0
678,68.0,30.0,60.0,4.0,0.0
679,80.0,0.0,20.0,3.0,0.0
680,80.0,0.0,20.0,2.0,0.0
681,66.0,0.0,60.0,4.0,0.0
682,78.0,30.0,20.0,3.0,0.0
683,78.0,0.0,20.0,2.0,0.0
684,42.0,30.0,60.0,5.0,0.0
685,78.0,0.0,20.0,2.0,0.0
686,78.0,0.0,20.0,3.0,0.0
687,41.0,0.0,60.0,5.0,0.0
688,77.0,30.0,20.0,2.0,0.0
689,77.0,0.0,20.0,3.0,0.0
690,65.0,30.0,60.0,4.0,0.0
691,77.0,0.0,20.0,3.0,0.0
692,77.0,0.0,20.0,2.0,0.0
693,39.0,0.0,60.0,5.0,0.0
694,75.0,12.0,20.0,2.0,0.0
695,75.0,0.0,20.0,3.0,0.0
696,63.0,0.0,60.0,4.0,0.0
697,75.0,0.0,20.0,2.0,0.0
698,75.0,30.0,20.0,3.0,0.0
699,73.0,0.0,60.0,0.0,0.0
700,37.0,30.0,60.0,5.0,0.0
701,73.0,0.0,20.0,3.0,0.0
702,73.0,0.0,600.0,1.0,0.0
703,61.0,0.0,600.0,1.0,0.0
704,61.0,0.0,60.0,4.0,0.0
705,73.0,30.0,20.0,2.0,0.0
706,73.0,0.0,20.0,2.0,0.0
707,73.0,0.0,20.0,3.0,0.0
708,73.0,0.0,20.0,2.0,0.0
709,49.0,0.0,60.0,5.0,0.0
710,85.0,3.0,60.0,0.0,0.0
711,73.0,3.0,20.0,3.0,0.0
712,73.0,27.0,30.0,4.0,0.0
713,73.0,27.0,30.0,4.0,0.0
714,73.0,0.0,20.0,2.0,0.0
715,73.0,0.0,20.0,3.0,0.0
716,72.0,0.0,20.0,2.0,0.0
717,72.0,0.0,20.0,3.0,0.0
718,48.0,30.0,60.0,5.0,0.0
719,84.0,0.0,60.0,0.0,0.0
720,72.0,30.0,20.0,4.0,0.0
721,72.0,0.0,20.0,4.0,0.0
722,72.0,0.0,20.0,3.0,0.0
723,72.0,0.0,20.0,2.0,0.0
724,82.0,30.0,60.0,0.0,0.0
725,70.0,0.0,20.0,2.0,0.0
726,70.0,0.0,20.0,3.0,0.0
727,70.0,30.0,20.0,4.0,0.0
728,46.0,0.0,60.0,5.0,0.0
729,70.0,0.0,20.0,3.0,0.0
730,70.0,0.0,20.0,4.0,0.0
731,70.0,0.0,20.0,2.0,0.0
732,80.0,0.0,60.0,0.0,0.0
733,44.0,0.0,60.0,5.0,0.0
734,68.0,0.0,20.0,2.0,0.0
735,68.0,0.0,20.0,4.0,0.0
736,68.0,30.0,20.0,3.0,0.0
737,68.0,30.0,20.0,2.0,0.0
738,68.0,0.0,20.0,3.0,0.0
739,68.0,0.0,20.0,4.0,0.0
740,66.0,30.0,20.0,2.0,0.0
741,78.0,0.0,60.0,0.0,0.0
742,66.0,0.0,20.0,3.0,0.0
743,42.0,30.0,60.0,5.0,0.0
744,66.0,0.0,20.0,4.0,0.0
745,66.0,0.0,20.0,3.0,0.0
746,66.0,0.0,20.0,2.0,0.0
747,66.0,0.0,20.0,4.0,0.0
748,65.0,0.0,20.0,2.0,0.0
749,65.0,30.0,20.0,4.0,0.0
750,65.0,0.0,20.0,3.0,0.0
751,41.0,0.0,60.0,5.0,0.0
752,77.0,0.0,60.0,0.0,0.0
753,65.0,0.0,20.0,3.0,0.0
754,65.0,30.0,20.0,2.0,0.0
755,65.0,0.0,20.0,4.0,0.0
756,75.0,0.0,60.0,0.0,0.0
757,63.0,0.0,20.0,4.0,0.0
758,39.0,0.0,60.0,5.0,0.0
759,63.0,30.0,20.0,3.0,0.0
760,63.0,0.0,20.0,2.0,0.0
761,63.0,0.0,20.0,2.0,0.0
762,63.0,0.0,20.0,3.0,0.0
763,63.0,114.0,20.0,4.0,0.0
764,61.0,0.0,120.0,2.0,0.0
765,61.0,120.0,120.0,3.0,0.0
766,37.0,0.0,120.0,5.0,0.0
767,73.0,0.0,120.0,0.0,0.0
768,61.0,0.0,120.0,4.0,0.0
769,77.0,0.0,120.0,0.0,0.0
770,68.0,0.0,120.0,2.0,0.0
771,77.0,0.0,120.0,2.0,0.0
772,85.0,0.0,120.0,2.0,0.0
773,61.0,0.0,120.0,4.0,0.0
774,77.0,0.0,120.0,3.0,0.0
775,85.0,0.0,120.0,3.0,0.0
776,68.0,0.0,120.0,3.0,0.0
777,77.0,0.0,120.0,0.0,0.0
778,73.0,0.0,120.0,0.0,0.0
779,73.0,0.0,120.0,1.0,0.0
780,80.0,0.0,120.0,1.0,0.0
781,37.0,120.0,120.0,5.0,0.0
782,73.0,0.0,120.0,1.0,0.0
783,80.0,0.0,120.0,1.0,0.0
784,73.0,0.0,120.0,0.0,0.0
785,77.0,0.0,120.0,0.0,0.0
786,85.0,0.0,120.0,2.0,0.0
787,77.0,0.0,120.0,2.0,0.0
788,68.0,0.0,120.0,2.0,0.0
789,68.0,186.0,120.0,3.0,0.0
790,85.0,0.0,120.0,3.0,0.0
791,37.0,0.0,120.0,5.0,0.0
792,77.0,0.0,120.0,3.0,0.0
793,61.0,0.0,120.0,4.0,0.0
794,72.0,0.0,60.0,3.0,0.0
795,68.0,0.0,60.0,4.0,0.0
796,80.0,18.0,930.0,1.0,0.0
797,75.0,60.0,60.0,2.0,0.0
798,68.0,0.0,60.0,4.0,0.0
799,77.0,0.0,60.0,2.0,0.0
800,73.0,60.0,60.0,3.0,0.0
801,78.0,0.0,60.0,2.0,0.0
802,75.0,60.0,60.0,3.0,0.0
803,68.0,0.0,60.0,4.0,0.0
804,77.0,0.0,60.0,3.0,0.0
805,80.0,60.0,60.0,2.0,0.0
806,68.0,0.0,60.0,4.0,0.0
807,78.0,0.0,120.0,2.0,0.0
808,75.0,6.0,120.0,3.0,0.0
809,68.0,54.0,60.0,4.0,0.0
810,68.0,60.0,60.0,4.0,0.0
811,68.0,60.0,60.0,4.0,0.0
812,68.0,35.0,60.0,4.0,0.0
813,75.0,25.0,30.0,3.0,0.0
814,68.0,35.0,60.0,4.0,0.0
815,75.0,0.0,30.0,0.0,0.0
816,84.0,0.0,30.0,0.0,0.0
817,84.0,0.0,30.0,2.0,0.0
818,85.0,0.0,30.0,0.0,0.0
819,85.0,0.0,30.0,2.0,0.0
820,68.0,35.0,60.0,4.0,0.0
821,77.0,0.0,30.0,0.0,0.0
822,77.0,25.0,30.0,3.0,0.0
823,78.0,0.0,30.0,0.0,0.0
824,87.0,25.0,30.0,2.0,0.0
825,78.0,0.0,30.0,3.0,0.0
826,87.0,0.0,30.0,0.0,0.0
827,68.0,35.0,60.0,4.0,0.0
828,85.0,0.0,30.0,2.0,0.0
829,85.0,25.0,30.0,0.0,0.0
830,77.0,0.0,30.0,3.0,0.0
831,77.0,0.0,30.0,0.0,0.0
832,68.0,60.0,60.0,4.0,0.0
833,75.0,0.0,120.0,3.0,0.0
834,84.0,6.0,120.0,0.0,0.0
835,75.0,0.0,120.0,0.0,0.0
836,68.0,54.0,60.0,4.0,0.0
837,84.0,0.0,120.0,2.0,0.0
838,68.0,60.0,60.0,4.0,0.0
839,68.0,42.0,60.0,4.0,0.0
840,68.0,30.0,60.0,4.0,0.0
841,68.0,0.0,20.0,4.0,0.0
842,78.0,30.0,20.0,3.0,0.0
843,44.0,0.0,20.0,5.0,0.0
844,75.0,0.0,450.0,0.0,0.0
845,84.0,3.0,90.0,2.0,0.0
846,84.0,0.0,450.0,0.0,0.0
847,80.0,18.0,450.0,1.0,0.0
848,78.0,0.0,20.0,3.0,0.0
849,68.0,0.0,20.0,4.0,0.0
850,44.0,27.0,20.0,5.0,0.0
851,68.0,30.0,20.0,4.0,0.0
852,78.0,0.0,20.0,3.0,0.0
853,44.0,0.0,20.0,5.0,0.0
854,85.0,27.0,30.0,2.0,0.0
855,68.0,0.0,20.0,4.0,0.0
856,44.0,3.0,20.0,5.0,0.0
857,78.0,0.0,20.0,3.0,0.0
858,44.0,30.0,20.0,5.0,0.0
859,78.0,0.0,20.0,3.0,0.0
860,68.0,0.0,20.0,4.0,0.0
861,87.0,3.0,90.0,2.0,0.0
862,78.0,0.0,20.0,3.0,0.0
863,68.0,0.0,20.0,4.0,0.0
864,44.0,27.0,20.0,5.0,0.0
865,44.0,0.0,20.0,5.0,0.0
866,68.0,30.0,20.0,4.0,0.0
867,78.0,0.0,20.0,3.0,0.0
868,44.0,0.0,20.0,5.0,0.0
869,89.0,27.0,30.0,2.0,0.0
870,78.0,0.0,20.0,3.0,0.0
871,68.0,3.0,20.0,4.0,0.0
872,68.0,0.0,20.0,4.0,0.0
873,78.0,3.0,20.0,3.0,0.0
874,44.0,0.0,20.0,5.0,0.0
875,90.0,27.0,30.0,2.0,0.0
876,44.0,3.0,20.0,5.0,0.0
877,78.0,0.0,20.0,3.0,0.0
878,68.0,0.0,20.0,4.0,0.0
879,87.0,27.0,30.0,2.0,0.0
880,68.0,0.0,20.0,4.0,0.0
881,44.0,30.0,20.0,5.0,0.0
882,78.0,0.0,20.0,3.0,0.0
883,78.0,0.0,20.0,3.0,0.0
884,68.0,0.0,20.0,4.0,0.0
885,44.0,30.0,20.0,5.0,0.0
886,68.0,0.0,20.0,4.0,0.0
887,78.0,3.0,20.0,3.0,0.0
888,87.0,27.0,30.0,2.0,0.0
889,44.0,0.0,20.0,5.0,0.0
890,78.0,3.0,20.0,3.0,0.0
891,68.0,0.0,20.0,4.0,0.0
892,44.0,0.0,20.0,5.0,0.0
893,84.0,27.0,30.0,2.0,0.0
894,78.0,0.0,20.0,3.0,0.0
895,44.0,0.0,20.0,5.0,0.0
896,68.0,12.0,20.0,4.0,0.0
897,68.0,33.0,20.0,4.0,0.0
898,78.0,0.0,20.0,3.0,0.0
899,44.0,0.0,20.0,5.0,0.0
900,37.0,0.0,60.0,5.0,0.0
901,77.0,0.0,120.0,0.0,0.0
902,85.0,0.0,120.0,0.0,0.0
903,80.0,6.0,120.0,1.0,0.0
904,77.0,0.0,30.0,3.0,0.0
905,68.0,3.0,60.0,4.0,0.0
906,85.0,27.0,30.0,2.0,0.0
907,73.0,0.0,120.0,1.0,0.0
908,73.0,30.0,30.0,3.0,0.0
909,73.0,0.0,30.0,2.0,0.0
910,75.0,0.0,30.0,2.0,0.0
911,75.0,21.0,30.0,3.0,0.0
912,49.0,3.0,60.0,5.0,0.0
913,73.0,0.0,60.0,4.0,0.0
914,77.0,30.0,30.0,2.0,0.0
915,77.0,0.0,30.0,3.0,0.0
916,78.0,27.0,30.0,3.0,0.0
917,68.0,3.0,60.0,4.0,0.0
918,78.0,0.0,30.0,2.0,0.0
919,80.0,0.0,120.0,1.0,0.0
920,80.0,6.0,120.0,0.0,0.0
921,77.0,0.0,120.0,0.0,0.0
922,44.0,0.0,60.0,5.0,0.0
923,73.0,0.0,120.0,1.0,0.0
924,80.0,0.0,30.0,3.0,0.0
925,80.0,30.0,30.0,2.0,0.0
926,65.0,0.0,60.0,4.0,0.0
927,41.0,3.0,60.0,5.0,0.0
928,82.0,21.0,30.0,2.0,0.0
929,82.0,0.0,30.0,3.0,0.0
930,84.0,111.0,30.0,3.0,0.0
931,84.0,0.0,30.0,2.0,0.0
932,80.0,0.0,120.0,1.0,0.0
933,85.0,0.0,120.0,2.0,0.0
934,73.0,0.0,120.0,1.0,0.0
935,61.0,0.0,120.0,4.0,0.0
936,37.0,186.0,120.0,5.0,0.0
937,77.0,0.0,120.0,0.0,0.0
938,80.0,0.0,120.0,0.0,0.0
939,85.0,0.0,120.0,3.0,0.0
940,68.0,6.0,120.0,4.0,0.0
941,90.0,0.0,300.0,2.0,0.0
942,72.0,0.0,60.0,3.0,0.0
943,80.0,53.0,930.0,1.0,0.0
944,44.0,54.0,60.0,5.0,0.0
945,46.0,19.0,60.0,5.0,0.0
946,73.0,0.0,60.0,3.0,0.0
947,48.0,0.0,60.0,5.0,0.0
948,75.0,3.0,60.0,3.0,0.0
949,70.0,15.0,15.0,4.0,0.0
950,68.0,26.0,15.0,4.0,0.0
951,67.0,30.0,30.0,4.0,0.0
952,49.0,0.0,60.0,5.0,0.0
953,77.0,3.0,60.0,3.0,0.0
954,68.0,27.0,30.0,4.0,0.0
955,70.0,57.0,30.0,4.0,0.0
956,75.0,0.0,120.0,3.0,0.0
957,48.0,6.0,120.0,5.0,0.0
958,68.0,35.0,60.0,4.0,0.0
959,89.0,19.0,30.0,2.0,0.0
960,68.0,35.0,60.0,4.0,0.0
961,87.0,25.0,30.0,2.0,0.0
962,68.0,35.0,60.0,4.0,0.0
963,68.0,60.0,60.0,4.0,0.0
964,85.0,25.0,30.0,2.0,0.0
965,44.0,0.0,60.0,5.0,0.0
966,90.0,35.0,300.0,2.0,0.0
967,72.0,54.0,60.0,3.0,0.0
968,68.0,6.0,120.0,4.0,0.0
969,73.0,19.0,60.0,3.0,0.0
970,46.0,0.0,60.0,5.0,0.0
971,75.0,3.0,60.0,3.0,0.0
972,70.0,15.0,15.0,4.0,0.0
973,48.0,0.0,60.0,5.0,0.0
974,68.0,26.0,15.0,4.0,0.0
975,67.0,30.0,30.0,4.0,0.0
976,68.0,27.0,30.0,4.0,0.0
977,49.0,3.0,60.0,5.0,0.0
978,77.0,0.0,60.0,3.0,0.0
979,70.0,57.0,30.0,4.0,0.0
980,75.0,0.0,120.0,3.0,0.0
981,68.0,41.0,120.0,4.0,0.0
982,48.0,0.0,120.0,5.0,0.0
983,89.0,19.0,30.0,2.0,0.0
984,87.0,60.0,30.0,2.0,0.0
985,85.0,7.0,30.0,2.0,0.0
986,90.0,25.0,30.0,2.0,0.0
987,87.0,0.0,30.0,3.0,0.0
988,80.0,0.0,450.0,1.0,0.0
989,84.0,0.0,450.0,0.0,0.0
990,44.0,35.0,60.0,5.0,0.0
991,68.0,0.0,60.0,4.0,0.0
992,75.0,18.0,450.0,0.0,0.0
993,44.0,35.0,60.0,5.0,0.0
994,89.0,25.0,30.0,2.0,0.0
995,85.0,0.0,30.0,3.0,0.0
996,68.0,0.0,60.0,4.0,0.0
997,44.0,35.0,60.0,5.0,0.0
998,84.0,0.0,30.0,3.0,0.0
999,68.0,0.0,60.0,4.0,0.0
1000,87.0,25.0,30.0,2.0,0.0
1001,82.0,25.0,30.0,3.0,0.0
1002,68.0,0.0,60.0,4.0,0.0
1003,85.0,0.0,30.0,2.0,0.0
1004,44.0,35.0,60.0,5.0,0.0
1005,84.0,0.0,30.0,2.0,0.0
1006,68.0,35.0,60.0,4.0,0.0
1007,80.0,25.0,30.0,3.0,0.0
1008,44.0,0.0,60.0,5.0,0.0
1009,44.0,35.0,60.0,5.0,0.0
1010,68.0,0.0,60.0,4.0,0.0
1011,78.0,25.0,30.0,3.0,0.0
1012,82.0,0.0,30.0,2.0,0.0
1013,68.0,0.0,60.0,4.0,0.0
1014,77.0,0.0,30.0,3.0,0.0
1015,44.0,35.0,60.0,5.0,0.0
1016,80.0,25.0,30.0,2.0,0.0
1017,44.0,35.0,60.0,5.0,0.0
1018,78.0,0.0,30.0,2.0,0.0
1019,68.0,0.0,60.0,4.0,0.0
1020,75.0,7.0,30.0,3.0,0.0
1021,77.0,0.0,450.0,0.0,0.0
1022,85.0,0.0,450.0,0.0,0.0
1023,68.0,0.0,60.0,4.0,0.0
1024,73.0,0.0,30.0,3.0,0.0
1025,44.0,35.0,60.0,5.0,0.0
1026,80.0,18.0,450.0,1.0,0.0
1027,77.0,25.0,30.0,2.0,0.0
1028,78.0,0.0,30.0,2.0,0.0
1029,68.0,35.0,60.0,4.0,0.0
1030,75.0,25.0,30.0,3.0,0.0
1031,44.0,0.0,60.0,5.0,0.0
1032,68.0,35.0,60.0,4.0,0.0
1033,77.0,0.0,30.0,3.0,0.0
1034,80.0,25.0,30.0,2.0,0.0
1035,44.0,0.0,60.0,5.0,0.0
1036,82.0,0.0,30.0,2.0,0.0
1037,44.0,35.0,60.0,5.0,0.0
1038,68.0,0.0,60.0,4.0,0.0
1039,78.0,25.0,30.0,3.0,0.0
1040,84.0,0.0,30.0,2.0,0.0
1041,68.0,35.0,60.0,4.0,0.0
1042,44.0,0.0,60.0,5.0,0.0
1043,80.0,25.0,30.0,3.0,0.0
1044,82.0,25.0,30.0,3.0,0.0
1045,85.0,0.0,30.0,2.0,0.0
1046,68.0,0.0,60.0,4.0,0.0
1047,44.0,35.0,60.0,5.0,0.0
1048,84.0,0.0,30.0,3.0,0.0
1049,68.0,0.0,60.0,4.0,0.0
1050,87.0,25.0,30.0,2.0,0.0
1051,44.0,35.0,60.0,5.0,0.0
1052,89.0,7.0,30.0,2.0,0.0
1053,68.0,0.0,60.0,4.0,0.0
1054,85.0,0.0,30.0,3.0,0.0
1055,44.0,35.0,60.0,5.0,0.0
1056,87.0,0.0,30.0,3.0,0.0
1057,90.0,0.0,30.0,2.0,0.0
1058,80.0,18.0,450.0,1.0,0.0
1059,44.0,35.0,60.0,5.0,0.0
1060,68.0,6.0,120.0,4.0,0.0
1061,87.0,25.0,30.0,0.0,0.0
1062,90.0,0.0,30.0,0.0,0.0
1063,85.0,0.0,30.0,3.0,0.0
1064,89.0,0.0,30.0,2.0,0.0
1065,44.0,35.0,60.0,5.0,0.0
1066,85.0,19.0,30.0,0.0,0.0
1067,89.0,0.0,30.0,0.0,0.0
1068,87.0,0.0,30.0,2.0,0.0
1069,84.0,25.0,30.0,3.0,0.0
1070,84.0,0.0,30.0,0.0,0.0
1071,44.0,35.0,60.0,5.0,0.0
1072,87.0,0.0,30.0,0.0,0.0
1073,85.0,0.0,30.0,0.0,0.0
1074,82.0,0.0,30.0,0.0,0.0
1075,85.0,0.0,30.0,2.0,0.0
1076,44.0,35.0,60.0,5.0,0.0
1077,82.0,25.0,30.0,3.0,0.0
1078,84.0,0.0,30.0,0.0,0.0
1079,80.0,0.0,30.0,0.0,0.0
1080,44.0,35.0,60.0,5.0,0.0
1081,84.0,25.0,30.0,2.0,0.0
1082,80.0,0.0,30.0,3.0,0.0
1083,82.0,0.0,30.0,0.0,0.0
1084,78.0,0.0,30.0,0.0,0.0
1085,44.0,35.0,60.0,5.0,0.0
1086,78.0,0.0,30.0,3.0,0.0
1087,82.0,25.0,30.0,2.0,0.0
1088,80.0,25.0,30.0,0.0,0.0
1089,77.0,0.0,30.0,0.0,0.0
1090,44.0,35.0,60.0,5.0,0.0
1091,80.0,0.0,30.0,2.0,0.0
1092,77.0,0.0,30.0,3.0,0.0
1093,75.0,0.0,30.0,0.0,0.0
1094,78.0,0.0,30.0,0.0,0.0
1095,75.0,0.0,30.0,3.0,0.0
1096,78.0,7.0,30.0,2.0,0.0
1097,44.0,60.0,60.0,5.0,0.0
1098,37.0,60.0,120.0,5.0,0.0
1099,76.0,0.0,60.0,0.0,0.0
1100,73.0,54.0,60.0,0.0,0.0
1101,76.0,0.0,60.0,2.0,0.0
1102,80.0,0.0,60.0,1.0,0.0
1103,68.0,0.0,60.0,4.0,0.0
1104,73.0,0.0,60.0,1.0,0.0
1105,73.0,0.0,60.0,3.0,0.0
1106,68.0,0.0,120.0,4.0,0.0
1107,85.0,60.0,120.0,3.0,0.0
1108,49.0,60.0,120.0,5.0,0.0
1109,85.0,0.0,120.0,3.0,0.0
1110,68.0,60.0,120.0,4.0,0.0
1111,52.0,60.0,120.0,5.0,0.0
1112,85.0,60.0,120.0,3.0,0.0
1113,68.0,0.0,120.0,4.0,0.0
1114,49.0,6.0,120.0,5.0,0.0
1115,85.0,60.0,60.0,3.0,0.0
1116,88.0,0.0,60.0,2.0,0.0
1117,68.0,0.0,60.0,4.0,0.0
1118,90.0,54.0,60.0,2.0,0.0
1119,87.0,0.0,60.0,3.0,0.0
1120,66.0,0.0,60.0,4.0,0.0
1121,42.0,60.0,120.0,5.0,0.0
1122,66.0,0.0,120.0,4.0,0.0
1123,87.0,60.0,120.0,3.0,0.0
1124,90.0,0.0,120.0,2.0,0.0
1125,42.0,60.0,120.0,5.0,0.0
1126,90.0,60.0,120.0,2.0,0.0
1127,87.0,0.0,120.0,3.0,0.0
1128,69.0,0.0,120.0,4.0,0.0
1129,44.0,6.0,120.0,5.0,0.0
1130,87.0,0.0,60.0,3.0,0.0
1131,68.0,6.0,120.0,4.0,0.0
1132,90.0,54.0,60.0,2.0,0.0
1133,88.0,0.0,60.0,2.0,0.0
1134,32.0,6.0,120.0,5.0,0.0
1135,85.0,54.0,60.0,3.0,0.0
1136,84.0,60.0,60.0,3.0,0.0
1137,66.0,0.0,60.0,4.0,0.0
1138,87.0,0.0,60.0,2.0,0.0
1139,68.0,0.0,60.0,4.0,0.0
1140,37.0,60.0,120.0,5.0,0.0
1141,85.0,54.0,60.0,3.0,0.0
1142,73.0,12.0,210.0,0.0,0.0
1143,88.0,0.0,60.0,2.0,0.0
1144,76.0,0.0,210.0,0.0,0.0
1145,68.0,48.0,120.0,4.0,0.0
1146,37.0,60.0,120.0,5.0,0.0
1147,68.0,60.0,120.0,4.0,0.0
1148,80.0,0.0,210.0,0.0,0.0
1149,76.0,12.0,210.0,0.0,0.0
1150,37.0,60.0,120.0,5.0,0.0
1151,68.0,48.0,120.0,4.0,0.0
1152,37.0,6.0,120.0,5.0,0.0
1153,64.0,60.0,60.0,4.0,0.0
1154,80.0,0.0,60.0,3.0,0.0
1155,81.0,0.0,60.0,0.0,0.0
1156,78.0,0.0,60.0,0.0,0.0
1157,81.0,54.0,60.0,3.0,0.0
1158,66.0,0.0,60.0,4.0,0.0
1159,42.0,60.0,120.0,5.0,0.0
1160,66.0,60.0,120.0,4.0,0.0
1161,78.0,0.0,120.0,0.0,0.0
1162,81.0,0.0,120.0,3.0,0.0
1163,81.0,0.0,120.0,0.0,0.0
1164,42.0,60.0,120.0,5.0,0.0
1165,85.0,60.0,120.0,0.0,0.0
1166,85.0,0.0,120.0,3.0,0.0
1167,69.0,0.0,120.0,4.0,0.0
1168,81.0,0.0,120.0,0.0,0.0
1169,42.0,60.0,120.0,5.0,0.0
1170,84.0,0.0,120.0,0.0,0.0
1171,80.0,0.0,120.0,0.0,0.0
1172,84.0,60.0,120.0,3.0,0.0
1173,68.0,0.0,120.0,4.0,0.0
1174,42.0,6.0,120.0,5.0,0.0
1175,87.0,0.0,60.0,0.0,0.0
1176,87.0,0.0,60.0,3.0,0.0
1177,78.0,0.0,60.0,0.0,0.0
1178,66.0,60.0,60.0,4.0,0.0
1179,65.0,54.0,60.0,4.0,0.0
1180,85.0,6.0,120.0,3.0,0.0
1181,73.0,0.0,120.0,3.0,0.0
1182,37.0,0.0,60.0,5.0,0.0
1183,85.0,0.0,120.0,0.0,0.0
1184,80.0,0.0,120.0,1.0,0.0
1185,73.0,0.0,120.0,1.0,0.0
1186,73.0,0.0,120.0,2.0,0.0
1187,85.0,0.0,120.0,2.0,0.0
1188,77.0,0.0,120.0,0.0,0.0
1189,68.0,60.0,60.0,4.0,0.0
1190,44.0,0.0,60.0,5.0,0.0
1191,41.0,0.0,60.0,5.0,0.0
1192,65.0,60.0,60.0,4.0,0.0
1193,37.0,60.0,60.0,5.0,0.0
1194,61.0,0.0,60.0,4.0,0.0
1195,66.0,0.0,120.0,3.0,0.0
1196,61.0,0.0,60.0,4.0,0.0
1197,82.0,0.0,120.0,2.0,0.0
1198,73.0,0.0,120.0,2.0,0.0
1199,73.0,0.0,120.0,3.0,0.0
1200,66.0,0.0,120.0,2.0,0.0
1201,82.0,0.0,120.0,3.0,0.0
1202,37.0,54.0,60.0,5.0,0.0
1203,82.0,0.0,120.0,0.0,0.0
1204,78.0,6.0,120.0,0.0,0.0
1205,78.0,0.0,120.0,1.0,0.0
1206,82.0,0.0,120.0,1.0,0.0
1207,46.0,0.0,60.0,5.0,0.0
1208,70.0,60.0,60.0,4.0,0.0
1209,42.0,0.0,60.0,5.0,0.0
1210,66.0,60.0,60.0,4.0,0.0
1211,37.0,60.0,60.0,5.0,0.0
1212,61.0,0.0,60.0,4.0,0.0
1213,73.0,6.0,120.0,3.0,0.0
1214,80.0,0.0,120.0,3.0,0.0
1215,73.0,0.0,120.0,1.0,0.0
1216,77.0,0.0,120.0,0.0,0.0
1217,80.0,0.0,120.0,0.0,0.0
1218,80.0,0.0,120.0,1.0,0.0
1219,73.0,0.0,120.0,2.0,0.0
1220,37.0,54.0,60.0,5.0,0.0
1221,61.0,0.0,60.0,4.0,0.0
1222,80.0,0.0,120.0,2.0,0.0
1223,37.0,19.0,60.0,5.0,0.0
1224,65.0,0.0,60.0,4.0,0.0
1225,85.0,15.0,15.0,3.0,0.0
1226,41.0,4.0,60.0,5.0,0.0
1227,80.0,12.0,210.0,1.0,0.0
1228,85.0,0.0,210.0,1.0,0.0
1229,68.0,0.0,60.0,4.0,0.0
1230,85.0,0.0,15.0,2.0,0.0
1231,87.0,0.0,15.0,2.0,0.0
1232,87.0,15.0,15.0,3.0,0.0
1233,85.0,11.0,15.0,3.0,0.0
1234,85.0,0.0,15.0,2.0,0.0
1235,87.0,0.0,15.0,2.0,0.0
1236,87.0,15.0,15.0,3.0,0.0
1237,68.0,0.0,60.0,4.0,0.0
1238,41.0,4.0,60.0,5.0,0.0
1239,85.0,0.0,15.0,3.0,0.0
1240,85.0,15.0,15.0,2.0,0.0
1241,87.0,15.0,15.0,2.0,0.0
1242,87.0,0.0,15.0,3.0,0.0
1243,84.0,11.0,15.0,3.0,0.0
1244,84.0,0.0,15.0,2.0,0.0
1245,85.0,0.0,15.0,2.0,0.0
1246,85.0,56.0,15.0,3.0,0.0
1247,66.0,42.0,60.0,4.0,0.0
1248,39.0,0.0,60.0,5.0,0.0
1249,87.0,0.0,120.0,3.0,0.0
1250,87.0,6.0,120.0,2.0,0.0
1251,39.0,0.0,60.0,5.0,0.0
1252,66.0,60.0,60.0,4.0,0.0
1253,68.0,0.0,120.0,3.0,0.0
1254,84.0,0.0,120.0,1.0,0.0
1255,78.0,6.0,120.0,3.0,0.0
1256,72.0,54.0,60.0,4.0,0.0
1257,68.0,0.0,120.0,2.0,0.0
1258,78.0,0.0,120.0,0.0,0.0
1259,78.0,0.0,120.0,2.0,0.0
1260,44.0,0.0,60.0,5.0,0.0
1261,80.0,0.0,120.0,1.0,0.0
1262,87.0,0.0,120.0,0.0,0.0
1263,72.0,0.0,60.0,4.0,0.0
1264,44.0,60.0,60.0,5.0,0.0
1265,85.0,0.0,120.0,3.0,0.0
1266,85.0,0.0,120.0,0.0,0.0
1267,77.0,0.0,120.0,0.0,0.0
1268,68.0,0.0,120.0,2.0,0.0
1269,37.0,0.0,60.0,5.0,0.0
1270,85.0,6.0,120.0,2.0,0.0
1271,77.0,0.0,120.0,3.0,0.0
1272,68.0,0.0,120.0,3.0,0.0
1273,77.0,0.0,120.0,2.0,0.0
1274,73.0,54.0,60.0,4.0,0.0
1275,85.0,0.0,120.0,1.0,0.0
1276,73.0,0.0,120.0,1.0,0.0
1277,44.0,60.0,60.0,5.0,0.0
1278,68.0,0.0,60.0,4.0,0.0
1279,41.0,60.0,60.0,5.0,0.0
1280,65.0,0.0,60.0,4.0,0.0
1281,61.0,0.0,60.0,4.0,0.0
1282,37.0,60.0,60.0,5.0,0.0
1283,73.0,0.0,120.0,2.0,0.0
1284,82.0,6.0,120.0,0.0,0.0
1285,78.0,0.0,120.0,0.0,0.0
1286,66.0,0.0,120.0,2.0,0.0
1287,61.0,0.0,60.0,4.0,0.0
1288,82.0,0.0,120.0,1.0,0.0
1289,66.0,0.0,120.0,3.0,0.0
1290,73.0,0.0,120.0,3.0,0.0
1291,82.0,0.0,120.0,3.0,0.0
1292,78.0,0.0,120.0,1.0,0.0
1293,82.0,0.0,120.0,2.0,0.0
1294,37.0,54.0,60.0,5.0,0.0
1295,46.0,60.0,60.0,5.0,0.0
1296,70.0,0.0,60.0,4.0,0.0
1297,66.0,0.0,60.0,4.0,0.0
1298,42.0,60.0,60.0,5.0,0.0
1299,37.0,60.0,60.0,5.0,0.0
1300,61.0,0.0,60.0,4.0,0.0
1301,73.0,0.0,120.0,2.0,0.0
1302,80.0,0.0,120.0,2.0,0.0
1303,61.0,0.0,60.0,4.0,0.0
1304,37.0,54.0,60.0,5.0,0.0
1305,80.0,6.0,120.0,1.0,0.0
1306,73.0,0.0,120.0,3.0,0.0
1307,80.0,0.0,120.0,3.0,0.0
1308,77.0,0.0,120.0,0.0,0.0
1309,80.0,0.0,120.0,0.0,0.0
1310,73.0,0.0,120.0,1.0,0.0
1311,65.0,19.0,60.0,4.0,0.0
1312,37.0,0.0,60.0,5.0,0.0
1313,85.0,12.0,210.0,1.0,0.0
1314,80.0,0.0,210.0,1.0,0.0
1315,85.0,0.0,15.0,2.0,0.0
1316,85.0,15.0,15.0,3.0,0.0
1317,41.0,4.0,60.0,5.0,0.0
1318,68.0,0.0,60.0,4.0,0.0
1319,87.0,0.0,15.0,3.0,0.0
1320,87.0,15.0,15.0,2.0,0.0
1321,85.0,11.0,15.0,2.0,0.0
1322,85.0,0.0,15.0,3.0,0.0
1323,87.0,0.0,15.0,3.0,0.0
1324,87.0,15.0,15.0,2.0,0.0
1325,85.0,0.0,15.0,2.0,0.0
1326,41.0,4.0,60.0,5.0,0.0
1327,85.0,15.0,15.0,3.0,0.0
1328,68.0,0.0,60.0,4.0,0.0
1329,87.0,0.0,15.0,2.0,0.0
1330,87.0,15.0,15.0,3.0,0.0
1331,84.0,0.0,15.0,2.0,0.0
1332,84.0,11.0,15.0,3.0,0.0
1333,85.0,56.0,15.0,2.0,0.0
1334,85.0,0.0,15.0,3.0,0.0
1335,87.0,6.0,120.0,2.0,0.0
1336,66.0,42.0,60.0,4.0,0.0
1337,87.0,0.0,120.0,3.0,0.0
1338,39.0,0.0,60.0,5.0,0.0
1339,39.0,60.0,60.0,5.0,0.0
1340,78.0,0.0,60.0,4.0,0.0
1341,87.0,0.0,120.0,0.0,0.0
1342,78.0,6.0,120.0,0.0,0.0
1343,44.0,54.0,60.0,5.0,0.0
1344,80.0,0.0,120.0,1.0,0.0
1345,84.0,0.0,120.0,1.0,0.0
1346,72.0,0.0,60.0,4.0,0.0
1347,75.0,0.0,120.0,3.0,0.0
1348,75.0,0.0,120.0,2.0,0.0
1349,72.0,60.0,60.0,4.0,0.0
1350,44.0,0.0,60.0,5.0,0.0
1351,85.0,6.0,120.0,1.0,0.0
1352,61.0,0.0,120.0,3.0,0.0
1353,68.0,0.0,120.0,3.0,0.0
1354,73.0,0.0,120.0,1.0,0.0
1355,77.0,0.0,120.0,3.0,0.0
1356,73.0,0.0,120.0,4.0,0.0
1357,37.0,0.0,120.0,5.0,0.0
1358,85.0,54.0,60.0,0.0,0.0
1359,77.0,0.0,60.0,2.0,0.0
1360,73.0,33.0,60.0,2.0,0.0
1361,73.0,0.0,60.0,0.0,0.0
1362,73.0,12.0,210.0,3.0,0.0
1363,72.0,0.0,30.0,0.0,0.0
1364,46.0,9.0,120.0,5.0,0.0
1365,70.0,0.0,120.0,4.0,0.0
1366,72.0,30.0,30.0,2.0,0.0
1367,73.0,0.0,30.0,2.0,0.0
1368,73.0,30.0,30.0,0.0,0.0
1369,75.0,0.0,30.0,2.0,0.0
1370,75.0,21.0,30.0,0.0,0.0
1371,77.0,0.0,30.0,0.0,0.0
1372,77.0,57.0,30.0,2.0,0.0
1373,78.0,0.0,60.0,0.0,0.0
1374,42.0,6.0,120.0,5.0,0.0
1375,66.0,0.0,120.0,4.0,0.0
1376,78.0,42.0,60.0,2.0,0.0
1377,75.0,0.0,60.0,0.0,0.0
1378,75.0,33.0,60.0,2.0,0.0
1379,44.0,3.0,60.0,5.0,0.0
1380,74.0,0.0,30.0,0.0,0.0
1381,74.0,27.0,30.0,2.0,0.0
1382,72.0,6.0,120.0,3.0,0.0
1383,72.0,0.0,120.0,0.0,0.0
1384,68.0,0.0,60.0,4.0,0.0
1385,75.0,30.0,30.0,0.0,0.0
1386,75.0,0.0,30.0,2.0,0.0
1387,77.0,0.0,30.0,2.0,0.0
1388,66.0,3.0,60.0,4.0,0.0
1389,42.0,0.0,60.0,5.0,0.0
1390,77.0,21.0,30.0,0.0,0.0
1391,78.0,57.0,30.0,0.0,0.0
1392,78.0,0.0,30.0,2.0,0.0
1393,73.0,6.0,120.0,0.0,0.0
1394,80.0,0.0,60.0,0.0,0.0
1395,80.0,54.0,60.0,2.0,0.0
1396,73.0,0.0,60.0,3.0,0.0
1397,85.0,18.0,450.0,1.0,0.0
1398,41.0,0.0,60.0,5.0,0.0
1399,73.0,0.0,450.0,1.0,0.0
1400,65.0,0.0,60.0,4.0,0.0
1401,73.0,0.0,60.0,4.0,0.0
1402,80.0,0.0,60.0,3.0,0.0
1403,80.0,19.0,60.0,2.0,0.0
1404,41.0,0.0,60.0,5.0,0.0
1405,80.0,0.0,60.0,0.0,0.0
1406,80.0,15.0,15.0,0.0,0.0
1407,73.0,12.0,150.0,0.0,0.0
1408,80.0,0.0,15.0,2.0,0.0
1409,73.0,0.0,60.0,4.0,0.0
1410,80.0,0.0,15.0,3.0,0.0
1411,41.0,4.0,60.0,5.0,0.0
1412,82.0,0.0,15.0,3.0,0.0
1413,82.0,15.0,15.0,0.0,0.0
1414,82.0,0.0,15.0,2.0,0.0
1415,80.0,11.0,15.0,0.0,0.0
1416,80.0,0.0,15.0,2.0,0.0
1417,80.0,0.0,15.0,3.0,0.0
1418,82.0,15.0,15.0,2.0,0.0
1419,82.0,0.0,15.0,0.0,0.0
1420,82.0,0.0,15.0,3.0,0.0
1421,80.0,15.0,15.0,2.0,0.0
1422,80.0,0.0,15.0,3.0,0.0
1423,73.0,0.0,60.0,4.0,0.0
1424,80.0,0.0,15.0,0.0,0.0
1425,41.0,4.0,60.0,5.0,0.0
1426,82.0,0.0,15.0,0.0,0.0
1427,82.0,15.0,15.0,2.0,0.0
1428,82.0,0.0,15.0,3.0,0.0
1429,78.0,11.0,15.0,3.0,0.0
1430,78.0,0.0,15.0,0.0,0.0
1431,78.0,0.0,15.0,2.0,0.0
1432,80.0,0.0,15.0,2.0,0.0
1433,80.0,0.0,15.0,3.0,0.0
1434,80.0,44.0,15.0,0.0,0.0
1435,82.0,0.0,60.0,2.0,0.0
1436,73.0,0.0,60.0,4.0,0.0
1437,82.0,0.0,60.0,3.0,0.0
1438,42.0,0.0,60.0,5.0,0.0
1439,82.0,60.0,60.0,0.0,0.0
1440,78.0,0.0,60.0,2.0,0.0
1441,70.0,0.0,60.0,4.0,0.0
1442,78.0,0.0,60.0,0.0,0.0
1443,78.0,0.0,60.0,3.0,0.0
1444,42.0,60.0,60.0,5.0,0.0
1445,70.0,42.0,60.0,4.0,0.0
1446,42.0,0.0,60.0,5.0,0.0
1447,75.0,0.0,60.0,0.0,0.0
1448,75.0,0.0,60.0,2.0,0.0
1449,75.0,0.0,60.0,3.0,0.0
1450,70.0,0.0,60.0,3.0,0.0
1451,70.0,0.0,60.0,4.0,0.0
1452,70.0,0.0,60.0,2.0,0.0
1453,42.0,60.0,60.0,5.0,0.0
1454,70.0,0.0,60.0,0.0,0.0
1455,68.0,0.0,210.0,3.0,0.0
1456,85.0,0.0,330.0,1.0,0.0
1457,80.0,7.0,330.0,1.0,0.0
1458,68.0,0.0,120.0,0.0,0.0
1459,68.0,18.0,210.0,2.0,0.0
1460,44.0,54.0,60.0,5.0,0.0
1461,68.0,0.0,60.0,4.0,0.0
1462,44.0,0.0,60.0,5.0,0.0
1463,68.0,33.0,60.0,4.0,0.0
1464,44.0,0.0,60.0,5.0,0.0
1465,80.0,27.0,30.0,0.0,0.0
1466,73.0,3.0,60.0,4.0,0.0
1467,77.0,30.0,30.0,0.0,0.0
1468,44.0,3.0,60.0,5.0,0.0
1469,75.0,9.0,30.0,0.0,0.0
1470,73.0,0.0,60.0,4.0,0.0
1471,73.0,16.0,30.0,0.0,0.0
1472,73.0,4.0,60.0,4.0,0.0
1473,75.0,0.0,15.0,3.0,0.0
1474,75.0,0.0,15.0,2.0,0.0
1475,44.0,0.0,60.0,5.0,0.0
1476,75.0,15.0,15.0,0.0,0.0
1477,77.0,15.0,15.0,0.0,0.0
1478,77.0,0.0,15.0,3.0,0.0
1479,77.0,0.0,15.0,2.0,0.0
1480,75.0,0.0,15.0,0.0,0.0
1481,75.0,0.0,15.0,3.0,0.0
1482,75.0,11.0,15.0,2.0,0.0
1483,77.0,0.0,15.0,2.0,0.0
1484,77.0,15.0,15.0,0.0,0.0
1485,77.0,0.0,15.0,3.0,0.0
1486,75.0,0.0,15.0,0.0,0.0
1487,75.0,15.0,15.0,2.0,0.0
1488,73.0,0.0,60.0,4.0,0.0
1489,44.0,4.0,60.0,5.0,0.0
1490,75.0,0.0,15.0,3.0,0.0
1491,77.0,0.0,15.0,0.0,0.0
1492,77.0,8.0,15.0,3.0,0.0
1493,77.0,0.0,15.0,2.0,0.0
1494,75.0,0.0,15.0,0.0,0.0
1495,75.0,0.0,15.0,3.0,0.0
1496,75.0,11.0,15.0,2.0,0.0
1497,77.0,0.0,15.0,2.0,0.0
1498,77.0,0.0,15.0,0.0,0.0
1499,77.0,15.0,15.0,3.0,0.0
1500,72.0,0.0,60.0,4.0,0.0
1501,44.0,4.0,60.0,5.0,0.0
1502,84.0,0.0,120.0,1.0,0.0
1503,80.0,0.0,120.0,1.0,0.0
1504,75.0,0.0,15.0,0.0,0.0
1505,75.0,15.0,15.0,2.0,0.0
1506,75.0,0.0,15.0,3.0,0.0
1507,72.0,6.0,120.0,0.0,0.0
1508,77.0,0.0,15.0,3.0,0.0
1509,77.0,0.0,15.0,2.0,0.0
1510,77.0,15.0,15.0,0.0,0.0
1511,75.0,0.0,15.0,0.0,0.0
1512,75.0,0.0,15.0,3.0,0.0
1513,75.0,11.0,15.0,2.0,0.0
1514,77.0,0.0,15.0,3.0,0.0
1515,77.0,0.0,15.0,0.0,0.0
1516,77.0,29.0,15.0,2.0,0.0
1517,73.0,0.0,30.0,2.0,0.0
1518,73.0,21.0,30.0,0.0,0.0
1519,72.0,0.0,60.0,4.0,0.0
1520,44.0,3.0,60.0,5.0,0.0
1521,73.0,0.0,30.0,3.0,0.0
1522,75.0,0.0,30.0,3.0,0.0
1523,75.0,0.0,30.0,2.0,0.0
1524,75.0,57.0,30.0,0.0,0.0
1525,73.0,0.0,120.0,3.0,0.0
1526,73.0,0.0,120.0,1.0,0.0
1527,73.0,0.0,120.0,4.0,0.0
1528,77.0,54.0,60.0,0.0,0.0
1529,37.0,0.0,120.0,5.0,0.0
1530,85.0,0.0,120.0,1.0,0.0
1531,77.0,0.0,60.0,2.0,0.0
1532,73.0,33.0,60.0,2.0,0.0
1533,73.0,6.0,40.0,0.0,0.0
1534,72.0,0.0,30.0,0.0,0.0
1535,72.0,30.0,30.0,2.0,0.0
1536,46.0,0.0,120.0,5.0,0.0
1537,73.0,0.0,210.0,3.0,0.0
1538,70.0,9.0,120.0,4.0,0.0
1539,73.0,0.0,30.0,0.0,0.0
1540,73.0,30.0,30.0,2.0,0.0
1541,75.0,0.0,30.0,0.0,0.0
1542,75.0,21.0,30.0,2.0,0.0
1543,77.0,0.0,30.0,2.0,0.0
1544,77.0,57.0,30.0,0.0,0.0
1545,78.0,0.0,60.0,2.0,0.0
1546,42.0,6.0,120.0,5.0,0.0
1547,78.0,42.0,60.0,0.0,0.0
1548,66.0,0.0,120.0,4.0,0.0
1549,75.0,33.0,60.0,0.0,0.0
1550,75.0,0.0,60.0,2.0,0.0
1551,74.0,27.0,30.0,2.0,0.0
1552,44.0,3.0,60.0,5.0,0.0
1553,74.0,0.0,30.0,0.0,0.0
1554,72.0,6.0,120.0,3.0,0.0
1555,68.0,0.0,60.0,4.0,0.0
1556,72.0,0.0,120.0,0.0,0.0
1557,75.0,0.0,30.0,0.0,0.0
1558,75.0,30.0,30.0,2.0,0.0
1559,77.0,0.0,30.0,0.0,0.0
1560,77.0,21.0,30.0,2.0,0.0
1561,42.0,3.0,60.0,5.0,0.0
1562,68.0,0.0,60.0,4.0,0.0
1563,78.0,57.0,30.0,2.0,0.0
1564,78.0,0.0,30.0,0.0,0.0
1565,80.0,7.0,210.0,1.0,0.0
1566,73.0,0.0,210.0,1.0,0.0
1567,73.0,6.0,120.0,0.0,0.0
1568,41.0,0.0,60.0,5.0,0.0
1569,73.0,0.0,60.0,3.0,0.0
1570,80.0,54.0,60.0,2.0,0.0
1571,65.0,0.0,60.0,4.0,0.0
1572,80.0,0.0,60.0,0.0,0.0
1573,80.0,0.0,60.0,2.0,0.0
1574,73.0,0.0,60.0,4.0,0.0
1575,80.0,0.0,60.0,3.0,0.0
1576,41.0,19.0,60.0,5.0,0.0
1577,80.0,0.0,60.0,0.0,0.0
1578,80.0,0.0,15.0,3.0,0.0
1579,80.0,0.0,15.0,0.0,0.0
1580,41.0,4.0,60.0,5.0,0.0
1581,80.0,15.0,15.0,2.0,0.0
1582,73.0,0.0,60.0,4.0,0.0
1583,73.0,12.0,150.0,0.0,0.0
1584,82.0,15.0,15.0,0.0,0.0
1585,82.0,0.0,15.0,3.0,0.0
1586,82.0,0.0,15.0,2.0,0.0
1587,80.0,0.0,15.0,2.0,0.0
1588,80.0,0.0,15.0,0.0,0.0
1589,80.0,11.0,15.0,3.0,0.0
1590,82.0,0.0,15.0,2.0,0.0
1591,82.0,0.0,15.0,0.0,0.0
1592,82.0,15.0,15.0,3.0,0.0
1593,41.0,0.0,60.0,5.0,0.0
1594,73.0,4.0,60.0,4.0,0.0
1595,80.0,0.0,15.0,0.0,0.0
1596,80.0,0.0,15.0,2.0,0.0
1597,80.0,15.0,15.0,3.0,0.0
1598,82.0,0.0,15.0,3.0,0.0
1599,82.0,0.0,15.0,2.0,0.0
1600,82.0,8.0,15.0,0.0,0.0
1601,78.0,11.0,15.0,2.0,0.0
1602,78.0,0.0,15.0,3.0,0.0
1603,78.0,0.0,15.0,0.0,0.0
1604,80.0,0.0,15.0,0.0,0.0
1605,80.0,44.0,15.0,3.0,0.0
1606,80.0,0.0,15.0,2.0,0.0
1607,82.0,0.0,60.0,2.0,0.0
1608,82.0,0.0,60.0,0.0,0.0
1609,42.0,0.0,60.0,5.0,0.0
1610,82.0,0.0,60.0,3.0,0.0
1611,82.0,6.0,120.0,1.0,0.0
1612,73.0,54.0,60.0,1.0,0.0
1613,73.0,0.0,60.0,4.0,0.0
1614,42.0,0.0,60.0,5.0,0.0
1615,78.0,0.0,60.0,0.0,0.0
1616,73.0,0.0,60.0,1.0,0.0
1617,78.0,60.0,60.0,2.0,0.0
1618,78.0,0.0,60.0,3.0,0.0
1619,70.0,0.0,60.0,4.0,0.0
1620,75.0,0.0,60.0,2.0,0.0
1621,42.0,0.0,60.0,5.0,0.0
1622,78.0,0.0,60.0,1.0,0.0
1623,85.0,6.0,120.0,1.0,0.0
1624,70.0,54.0,60.0,4.0,0.0
1625,75.0,0.0,60.0,0.0,0.0
1626,75.0,0.0,60.0,3.0,0.0
1627,43.0,0.0,60.0,5.0,0.0
1628,82.0,0.0,60.0,1.0,0.0
1629,70.0,0.0,60.0,2.0,0.0
1630,70.0,0.0,60.0,0.0,0.0
1631,70.0,0.0,60.0,3.0,0.0
1632,70.0,60.0,60.0,4.0,0.0
1633,85.0,0.0,330.0,1.0,0.0
1634,44.0,0.0,60.0,5.0,0.0
1635,68.0,54.0,60.0,4.0,0.0
1636,68.0,0.0,120.0,0.0,0.0
1637,68.0,18.0,210.0,2.0,0.0
1638,68.0,0.0,60.0,3.0,0.0
1639,80.0,7.0,330.0,1.0,0.0
1640,44.0,33.0,60.0,5.0,0.0
1641,68.0,0.0,60.0,4.0,0.0
1642,68.0,0.0,60.0,3.0,0.0
1643,73.0,0.0,60.0,3.0,0.0
1644,44.0,0.0,60.0,5.0,0.0
1645,68.0,3.0,60.0,4.0,0.0
1646,80.0,27.0,30.0,0.0,0.0
1647,77.0,30.0,30.0,0.0,0.0
1648,44.0,0.0,60.0,5.0,0.0
1649,75.0,9.0,30.0,0.0,0.0
1650,68.0,0.0,60.0,4.0,0.0
1651,73.0,3.0,60.0,3.0,0.0
1652,73.0,16.0,30.0,0.0,0.0
1653,68.0,4.0,60.0,4.0,0.0
1654,75.0,15.0,15.0,2.0,0.0
1655,73.0,0.0,60.0,3.0,0.0
1656,75.0,0.0,15.0,0.0,0.0
1657,44.0,0.0,60.0,5.0,0.0
1658,77.0,0.0,15.0,2.0,0.0
1659,77.0,15.0,15.0,0.0,0.0
1660,75.0,11.0,15.0,2.0,0.0
1661,75.0,0.0,15.0,0.0,0.0
1662,77.0,15.0,15.0,2.0,0.0
1663,77.0,0.0,15.0,0.0,0.0
1664,75.0,15.0,15.0,2.0,0.0
1665,44.0,0.0,60.0,5.0,0.0
1666,75.0,0.0,15.0,0.0,0.0
1667,68.0,4.0,60.0,4.0,0.0
1668,73.0,0.0,60.0,3.0,0.0
1669,77.0,0.0,15.0,0.0,0.0
1670,77.0,8.0,15.0,2.0,0.0
1671,75.0,11.0,15.0,2.0,0.0
1672,75.0,0.0,15.0,0.0,0.0
1673,77.0,15.0,15.0,0.0,0.0
1674,77.0,0.0,15.0,2.0,0.0
1675,66.0,0.0,60.0,4.0,0.0
1676,72.0,4.0,60.0,3.0,0.0
1677,44.0,0.0,60.0,5.0,0.0
1678,75.0,15.0,15.0,2.0,0.0
1679,75.0,0.0,15.0,0.0,0.0
1680,72.0,6.0,120.0,0.0,0.0
1681,84.0,0.0,120.0,1.0,0.0
1682,80.0,0.0,120.0,1.0,0.0
1683,77.0,0.0,15.0,0.0,0.0
1684,77.0,15.0,15.0,2.0,0.0
1685,75.0,11.0,15.0,2.0,0.0
1686,75.0,0.0,15.0,0.0,0.0
1687,77.0,29.0,15.0,0.0,0.0
1688,77.0,0.0,15.0,2.0,0.0
1689,66.0,3.0,60.0,4.0,0.0
1690,73.0,21.0,30.0,0.0,0.0
1691,44.0,0.0,60.0,5.0,0.0
1692,72.0,0.0,60.0,3.0,0.0
1693,73.0,0.0,30.0,2.0,0.0
1694,75.0,0.0,30.0,2.0,0.0
1695,75.0,57.0,30.0,0.0,0.0
1696,85.0,0.0,120.0,1.0,0.0
1697,73.0,0.0,60.0,3.0,0.0
1698,73.0,0.0,60.0,2.0,0.0
1699,49.0,0.0,60.0,5.0,0.0
1700,73.0,9.0,120.0,1.0,0.0
1701,73.0,0.0,60.0,0.0,0.0
1702,65.0,33.0,60.0,4.0,0.0
1703,61.0,21.0,30.0,4.0,0.0
1704,37.0,0.0,30.0,5.0,0.0
1705,61.0,0.0,30.0,3.0,0.0
1706,61.0,0.0,30.0,2.0,0.0
1707,73.0,0.0,30.0,0.0,0.0
1708,75.0,0.0,30.0,0.0,0.0
1709,63.0,0.0,30.0,3.0,0.0
1710,39.0,0.0,30.0,5.0,0.0
1711,63.0,57.0,30.0,2.0,0.0
1712,63.0,0.0,30.0,4.0,0.0
1713,65.0,0.0,60.0,4.0,0.0
1714,77.0,0.0,60.0,0.0,0.0
1715,41.0,60.0,60.0,5.0,0.0
1716,65.0,0.0,60.0,3.0,0.0
1717,65.0,0.0,60.0,2.0,0.0
1718,66.0,114.0,60.0,3.0,0.0
1719,78.0,0.0,60.0,0.0,0.0
1720,42.0,0.0,60.0,5.0,0.0
1721,66.0,0.0,60.0,2.0,0.0
1722,66.0,0.0,60.0,4.0,0.0
1723,80.0,0.0,120.0,0.0,0.0
1724,68.0,0.0,120.0,2.0,0.0
1725,44.0,120.0,120.0,5.0,0.0
1726,68.0,0.0,120.0,4.0,0.0
1727,68.0,0.0,120.0,3.0,0.0
1728,68.0,0.0,120.0,3.0,0.0
1729,75.0,0.0,120.0,3.0,0.0
1730,84.0,0.0,120.0,3.0,0.0
1731,75.0,0.0,120.0,0.0,0.0
1732,84.0,0.0,120.0,0.0,0.0
1733,32.0,0.0,120.0,5.0,0.0
1734,75.0,0.0,120.0,2.0,0.0
1735,78.0,66.0,120.0,4.0,0.0
1736,78.0,0.0,120.0,1.0,0.0
1737,80.0,0.0,120.0,1.0,0.0
1738,84.0,0.0,120.0,2.0,0.0
1739,68.0,0.0,120.0,2.0,0.0
1740,80.0,0.0,60.0,4.0,0.0
1741,68.0,0.0,60.0,3.0,0.0
1742,37.0,0.0,60.0,5.0,0.0
1743,85.0,0.0,60.0,3.0,0.0
1744,85.0,0.0,60.0,0.0,0.0
1745,77.0,33.0,60.0,0.0,0.0
1746,80.0,0.0,120.0,1.0,0.0
1747,73.0,9.0,120.0,1.0,0.0
1748,77.0,0.0,60.0,2.0,0.0
1749,85.0,0.0,60.0,2.0,0.0
1750,77.0,0.0,60.0,3.0,0.0
1751,68.0,0.0,60.0,2.0,0.0
1752,61.0,0.0,30.0,2.0,0.0
1753,73.0,0.0,30.0,0.0,0.0
1754,61.0,0.0,30.0,4.0,0.0
1755,61.0,0.0,30.0,3.0,0.0
1756,37.0,0.0,30.0,5.0,0.0
1757,63.0,0.0,30.0,4.0,0.0
1758,39.0,0.0,30.0,5.0,0.0
1759,75.0,0.0,30.0,0.0,0.0
1760,63.0,0.0,30.0,2.0,0.0
1761,63.0,0.0,30.0,3.0,0.0
1762,41.0,0.0,60.0,5.0,0.0
1763,65.0,0.0,60.0,2.0,0.0
1764,77.0,0.0,60.0,0.0,0.0
1765,65.0,0.0,60.0,3.0,0.0
1766,65.0,60.0,60.0,4.0,0.0
1767,66.0,0.0,60.0,2.0,0.0
1768,66.0,0.0,60.0,3.0,0.0
1769,66.0,114.0,60.0,4.0,0.0
1770,42.0,0.0,60.0,5.0,0.0
1771,78.0,0.0,60.0,0.0,0.0
1772,44.0,0.0,120.0,5.0,0.0
1773,68.0,0.0,120.0,4.0,0.0
1774,80.0,0.0,120.0,0.0,0.0
1775,68.0,0.0,120.0,2.0,0.0
1776,68.0,120.0,120.0,3.0,0.0
1777,78.0,0.0,120.0,4.0,0.0
1778,80.0,0.0,120.0,1.0,0.0
1779,78.0,0.0,120.0,1.0,0.0
1780,68.0,0.0,120.0,3.0,0.0
1781,75.0,0.0,120.0,3.0,0.0
1782,68.0,0.0,120.0,2.0,0.0
1783,75.0,0.0,120.0,2.0,0.0
1784,84.0,120.0,120.0,2.0,0.0
1785,75.0,0.0,120.0,0.0,0.0
1786,32.0,0.0,120.0,5.0,0.0
1787,84.0,0.0,120.0,0.0,0.0
1788,84.0,0.0,120.0,3.0,0.0
1789,85.0,0.0,120.0,3.0,0.0
1790,77.0,0.0,120.0,3.0,0.0
1791,68.0,228.0,120.0,3.0,0.0
1792,68.0,0.0,120.0,2.0,0.0
1793,77.0,0.0,120.0,2.0,0.0
1794,85.0,0.0,120.0,2.0,0.0
1795,37.0,0.0,120.0,5.0,0.0
1796,77.0,0.0,120.0,4.0,0.0
1797,73.0,0.0,120.0,0.0,0.0
1798,85.0,0.0,120.0,0.0,0.0
1799,80.0,0.0,120.0,1.0,0.0
1800,73.0,0.0,120.0,1.0,0.0
1801,62.0,83.0,330.0,3.0,0.0
1802,38.0,0.0,330.0,5.0,0.0
1803,62.0,120.0,210.0,2.0,0.0
1804,62.0,0.0,330.0,4.0,0.0
1805,74.0,0.0,330.0,0.0,0.0
1806,63.0,49.0,60.0,2.0,0.0
1807,39.0,0.0,60.0,5.0,0.0
1808,75.0,0.0,60.0,0.0,0.0
1809,63.0,0.0,60.0,3.0,0.0
1810,63.0,0.0,60.0,4.0,0.0
1811,82.0,0.0,120.0,1.0,0.0
1812,70.0,71.0,120.0,1.0,0.0
1813,65.0,0.0,60.0,3.0,0.0
1814,41.0,0.0,60.0,5.0,0.0
1815,77.0,0.0,60.0,0.0,0.0
1816,65.0,0.0,60.0,2.0,0.0
1817,65.0,120.0,60.0,4.0,0.0
1818,78.0,0.0,60.0,0.0,0.0
1819,66.0,0.0,60.0,3.0,0.0
1820,42.0,0.0,60.0,5.0,0.0
1821,66.0,0.0,60.0,2.0,0.0
1822,66.0,120.0,60.0,4.0,0.0
1823,62.0,0.0,60.0,4.0,0.0
1824,74.0,0.0,60.0,0.0,0.0
1825,62.0,0.0,60.0,2.0,0.0
1826,62.0,49.0,60.0,3.0,0.0
1827,38.0,0.0,60.0,5.0,0.0
1828,70.0,0.0,120.0,1.0,0.0
1829,82.0,71.0,120.0,1.0,0.0
1830,63.0,0.0,60.0,2.0,0.0
1831,63.0,0.0,60.0,4.0,0.0
1832,63.0,49.0,60.0,3.0,0.0
1833,75.0,0.0,120.0,0.0,0.0
1834,82.0,71.0,120.0,1.0,0.0
1835,39.0,0.0,60.0,5.0,0.0
1836,70.0,0.0,120.0,1.0,0.0
1837,65.0,49.0,60.0,2.0,0.0
1838,65.0,0.0,60.0,3.0,0.0
1839,41.0,0.0,60.0,5.0,0.0
1840,77.0,71.0,120.0,0.0,0.0
1841,65.0,0.0,60.0,4.0,0.0
1842,66.0,49.0,60.0,3.0,0.0
1843,66.0,0.0,60.0,2.0,0.0
1844,66.0,0.0,60.0,4.0,0.0
1845,78.0,71.0,120.0,0.0,0.0
1846,42.0,0.0,60.0,5.0,0.0
1847,82.0,0.0,120.0,1.0,0.0
1848,62.0,0.0,60.0,4.0,0.0
1849,70.0,39.0,120.0,1.0,0.0
1850,74.0,0.0,120.0,0.0,0.0
1851,62.0,0.0,60.0,2.0,0.0
1852,62.0,49.0,60.0,3.0,0.0
1853,38.0,0.0,60.0,5.0,0.0
1854,63.0,0.0,30.0,3.0,0.0
1855,75.0,0.0,120.0,0.0,0.0
1856,63.0,3.0,60.0,4.0,0.0
1857,39.0,25.0,30.0,5.0,0.0
1858,82.0,0.0,120.0,1.0,0.0
1859,63.0,2.0,30.0,2.0,0.0
1860,82.0,0.0,30.0,3.0,0.0
1861,85.0,30.0,30.0,2.0,0.0
1862,75.0,6.0,120.0,4.0,0.0
1863,41.0,19.0,30.0,5.0,0.0
1864,82.0,2.0,30.0,3.0,0.0
1865,85.0,0.0,30.0,2.0,0.0
1866,82.0,0.0,30.0,3.0,0.0
1867,85.0,27.0,30.0,2.0,0.0
1868,85.0,18.0,330.0,0.0,0.0
1869,75.0,0.0,60.0,0.0,0.0
1870,43.0,19.0,30.0,5.0,0.0
1871,82.0,5.0,20.0,3.0,0.0
1872,85.0,0.0,20.0,2.0,0.0
1873,85.0,0.0,20.0,2.0,0.0
1874,82.0,30.0,20.0,3.0,0.0
1875,77.0,30.0,60.0,0.0,0.0
1876,85.0,0.0,20.0,2.0,0.0
1877,44.0,25.0,30.0,5.0,0.0
1878,82.0,5.0,20.0,3.0,0.0
1879,75.0,6.0,120.0,4.0,0.0
1880,85.0,0.0,20.0,2.0,0.0
1881,82.0,0.0,20.0,3.0,0.0
1882,46.0,6.0,120.0,5.0,0.0
1883,79.0,0.0,20.0,3.0,0.0
1884,82.0,24.0,20.0,3.0,0.0
1885,79.0,0.0,210.0,0.0,0.0
1886,85.0,0.0,20.0,2.0,0.0
1887,85.0,0.0,20.0,2.0,0.0
1888,82.0,0.0,20.0,3.0,0.0
1889,79.0,30.0,20.0,3.0,0.0
1890,82.0,24.0,20.0,3.0,0.0
1891,79.0,0.0,20.0,3.0,0.0
1892,75.0,6.0,120.0,4.0,0.0
1893,85.0,0.0,20.0,2.0,0.0
1894,82.0,0.0,20.0,3.0,0.0
1895,79.0,0.0,20.0,3.0,0.0
1896,85.0,30.0,20.0,2.0,0.0
1897,82.0,24.0,20.0,3.0,0.0
1898,85.0,0.0,20.0,2.0,0.0
1899,79.0,0.0,20.0,3.0,0.0
1900,79.0,0.0,20.0,3.0,0.0
1901,85.0,30.0,20.0,2.0,0.0
1902,82.0,0.0,20.0,3.0,0.0
1903,75.0,30.0,120.0,4.0,0.0
1904,85.0,0.0,20.0,2.0,0.0
1905,79.0,12.0,20.0,3.0,0.0
1906,82.0,0.0,20.0,3.0,0.0
1907,82.0,30.0,20.0,3.0,0.0
1908,85.0,0.0,20.0,2.0,0.0
1909,79.0,0.0,20.0,3.0,0.0
1910,80.0,0.0,20.0,3.0,0.0
1911,83.0,5.0,20.0,2.0,0.0
1912,80.0,0.0,450.0,0.0,0.0
1913,83.0,18.0,450.0,0.0,0.0
1914,44.0,25.0,30.0,5.0,0.0
1915,83.0,0.0,20.0,2.0,0.0
1916,80.0,0.0,20.0,3.0,0.0
1917,83.0,0.0,20.0,2.0,0.0
1918,75.0,6.0,120.0,4.0,0.0
1919,80.0,5.0,20.0,3.0,0.0
1920,46.0,25.0,30.0,5.0,0.0
1921,83.0,30.0,20.0,2.0,0.0
1922,80.0,0.0,20.0,3.0,0.0
1923,83.0,0.0,20.0,2.0,0.0
1924,47.0,19.0,30.0,5.0,0.0
1925,80.0,5.0,20.0,3.0,0.0
1926,80.0,0.0,20.0,3.0,0.0
1927,83.0,30.0,20.0,2.0,0.0
1928,75.0,6.0,120.0,4.0,0.0
1929,49.0,25.0,30.0,5.0,0.0
1930,80.0,0.0,20.0,3.0,0.0
1931,83.0,5.0,20.0,2.0,0.0
1932,80.0,0.0,20.0,3.0,0.0
1933,83.0,30.0,20.0,2.0,0.0
1934,80.0,0.0,20.0,3.0,0.0
1935,83.0,24.0,20.0,2.0,0.0
1936,51.0,6.0,120.0,5.0,0.0
1937,80.0,0.0,20.0,3.0,0.0
1938,83.0,30.0,20.0,2.0,0.0
1939,83.0,24.0,20.0,2.0,0.0
1940,80.0,0.0,20.0,3.0,0.0
1941,75.0,6.0,120.0,4.0,0.0
1942,80.0,30.0,20.0,3.0,0.0
1943,83.0,0.0,20.0,2.0,0.0
1944,80.0,0.0,20.0,3.0,0.0
1945,83.0,24.0,20.0,2.0,0.0
1946,83.0,0.0,20.0,2.0,0.0
1947,80.0,30.0,20.0,3.0,0.0
1948,83.0,0.0,20.0,2.0,0.0
1949,75.0,0.0,120.0,4.0,0.0
1950,80.0,12.0,20.0,3.0,0.0
1951,80.0,0.0,20.0,3.0,0.0
1952,83.0,30.0,20.0,2.0,0.0
1953,82.0,0.0,20.0,3.0,0.0
1954,85.0,5.0,20.0,2.0,0.0
1955,82.0,18.0,210.0,0.0,0.0
1956,85.0,18.0,450.0,0.0,0.0
1957,39.0,25.0,30.0,5.0,0.0
1958,85.0,0.0,20.0,2.0,0.0
1959,82.0,30.0,20.0,3.0,0.0
1960,82.0,5.0,20.0,3.0,0.0
1961,41.0,25.0,30.0,5.0,0.0
1962,85.0,0.0,20.0,2.0,0.0
1963,75.0,6.0,120.0,4.0,0.0
1964,82.0,0.0,20.0,3.0,0.0
1965,85.0,30.0,20.0,2.0,0.0
1966,82.0,0.0,20.0,3.0,0.0
1967,43.0,19.0,30.0,5.0,0.0
1968,85.0,5.0,20.0,2.0,0.0
1969,82.0,30.0,20.0,3.0,0.0
1970,85.0,0.0,20.0,2.0,0.0
1971,82.0,0.0,20.0,3.0,0.0
1972,44.0,7.0,30.0,5.0,0.0
1973,75.0,6.0,120.0,4.0,0.0
1974,85.0,5.0,20.0,2.0,0.0
1975,85.0,0.0,20.0,2.0,0.0
1976,82.0,30.0,20.0,3.0,0.0
1977,79.0,0.0,20.0,3.0,0.0
1978,79.0,0.0,210.0,0.0,0.0
1979,46.0,6.0,120.0,5.0,0.0
1980,85.0,24.0,20.0,2.0,0.0
1981,82.0,0.0,20.0,3.0,0.0
1982,82.0,30.0,20.0,3.0,0.0
1983,85.0,0.0,20.0,2.0,0.0
1984,79.0,0.0,20.0,3.0,0.0
1985,79.0,24.0,20.0,3.0,0.0
1986,85.0,0.0,20.0,2.0,0.0
1987,75.0,6.0,120.0,4.0,0.0
1988,82.0,0.0,20.0,3.0,0.0
1989,85.0,0.0,20.0,2.0,0.0
1990,79.0,30.0,20.0,3.0,0.0
1991,82.0,0.0,20.0,3.0,0.0
1992,82.0,0.0,20.0,3.0,0.0
1993,79.0,24.0,20.0,3.0,0.0
1994,85.0,0.0,20.0,2.0,0.0
1995,82.0,0.0,20.0,3.0,0.0
1996,85.0,0.0,20.0,2.0,0.0
1997,79.0,30.0,20.0,3.0,0.0
1998,85.0,12.0,20.0,2.0,0.0
1999,75.0,0.0,120.0,4.0,0.0
2000,79.0,0.0,20.0,3.0,0.0
2001,82.0,0.0,20.0,3.0,0.0
2002,79.0,0.0,20.0,3.0,0.0
2003,82.0,60.0,20.0,3.0,0.0
2004,85.0,0.0,20.0,2.0,0.0
2005,44.0,0.0,60.0,5.0,0.0
2006,83.0,0.0,60.0,0.0,0.0
2007,83.0,0.0,60.0,3.0,0.0
2008,83.0,60.0,60.0,2.0,0.0
2009,80.0,0.0,60.0,0.0,0.0
2010,68.0,0.0,60.0,3.0,0.0
2011,68.0,0.0,60.0,0.0,0.0
2012,44.0,0.0,60.0,5.0,0.0
2013,68.0,60.0,60.0,4.0,0.0
2014,68.0,0.0,60.0,2.0,0.0
2015,71.0,0.0,60.0,2.0,0.0
2016,47.0,0.0,60.0,5.0,0.0
2017,71.0,0.0,60.0,0.0,0.0
2018,71.0,0.0,60.0,3.0,0.0
2019,71.0,60.0,60.0,4.0,0.0
2020,75.0,0.0,60.0,4.0,0.0
2021,51.0,0.0,60.0,5.0,0.0
2022,75.0,0.0,60.0,3.0,0.0
2023,75.0,0.0,60.0,2.0,0.0
2024,75.0,87.0,60.0,0.0,0.0
2025,80.0,0.0,90.0,0.0,0.0
2026,80.0,0.0,90.0,2.0,0.0
2027,56.0,0.0,90.0,5.0,0.0
2028,80.0,36.0,90.0,3.0,0.0
2029,80.0,0.0,90.0,4.0,0.0
2030,78.0,0.0,30.0,3.0,0.0
2031,78.0,16.0,30.0,2.0,0.0
2032,78.0,0.0,30.0,0.0,0.0
2033,78.0,0.0,30.0,4.0,0.0
2034,54.0,0.0,30.0,5.0,0.0
2035,54.0,0.0,15.0,5.0,0.0
2036,78.0,15.0,15.0,0.0,0.0
2037,78.0,0.0,15.0,2.0,0.0
2038,78.0,0.0,15.0,3.0,0.0
2039,78.0,0.0,15.0,4.0,0.0
2040,80.0,0.0,15.0,4.0,0.0
2041,80.0,0.0,15.0,0.0,0.0
2042,56.0,0.0,15.0,5.0,0.0
2043,80.0,0.0,15.0,2.0,0.0
2044,80.0,15.0,15.0,3.0,0.0
2045,54.0,0.0,15.0,5.0,0.0
2046,78.0,0.0,15.0,2.0,0.0
2047,78.0,15.0,15.0,0.0,0.0
2048,78.0,0.0,15.0,3.0,0.0
2049,78.0,0.0,15.0,4.0,0.0
2050,80.0,0.0,15.0,3.0,0.0
2051,80.0,0.0,15.0,4.0,0.0
2052,56.0,0.0,15.0,5.0,0.0
2053,80.0,15.0,15.0,2.0,0.0
2054,80.0,0.0,15.0,0.0,0.0
2055,78.0,0.0,15.0,0.0,0.0
2056,54.0,0.0,15.0,5.0,0.0
2057,78.0,0.0,15.0,4.0,0.0
2058,78.0,0.0,15.0,3.0,0.0
2059,78.0,15.0,15.0,2.0,0.0
2060,80.0,0.0,15.0,3.0,0.0
2061,56.0,0.0,15.0,5.0,0.0
2062,80.0,0.0,15.0,0.0,0.0
2063,80.0,15.0,15.0,4.0,0.0
2064,80.0,0.0,15.0,2.0,0.0
2065,77.0,0.0,15.0,0.0,0.0
2066,77.0,0.0,15.0,2.0,0.0
2067,77.0,15.0,15.0,4.0,0.0
2068,53.0,0.0,15.0,5.0,0.0
2069,77.0,0.0,15.0,3.0,0.0
2070,78.0,0.0,15.0,3.0,0.0
2071,78.0,26.0,15.0,2.0,0.0
2072,78.0,0.0,15.0,4.0,0.0
2073,78.0,0.0,15.0,0.0,0.0
2074,54.0,0.0,15.0,5.0,0.0
2075,77.0,6.0,120.0,0.0,0.0
2076,53.0,0.0,60.0,5.0,0.0
2077,77.0,0.0,20.0,3.0,0.0
2078,73.0,27.0,30.0,2.0,0.0
2079,80.0,3.0,20.0,3.0,0.0
2080,77.0,3.0,60.0,4.0,0.0
2081,80.0,0.0,450.0,1.0,0.0
2082,83.0,0.0,450.0,1.0,0.0
2083,83.0,27.0,30.0,2.0,0.0
2084,80.0,0.0,20.0,3.0,0.0
2085,77.0,0.0,20.0,3.0,0.0
2086,73.0,6.0,120.0,4.0,0.0
2087,83.0,21.0,30.0,2.0,0.0
2088,80.0,0.0,20.0,3.0,0.0
2089,77.0,3.0,20.0,3.0,0.0
2090,37.0,0.0,60.0,5.0,0.0
2091,80.0,3.0,20.0,3.0,0.0
2092,77.0,0.0,20.0,3.0,0.0
2093,83.0,27.0,30.0,2.0,0.0
2094,77.0,0.0,20.0,3.0,0.0
2095,83.0,0.0,20.0,2.0,0.0
2096,80.0,24.0,20.0,3.0,0.0
2097,41.0,0.0,60.0,5.0,0.0
2098,77.0,0.0,20.0,3.0,0.0
2099,83.0,30.0,20.0,2.0,0.0
2100,80.0,0.0,20.0,3.0,0.0
2101,77.0,0.0,20.0,3.0,0.0
2102,80.0,30.0,20.0,3.0,0.0
2103,73.0,6.0,120.0,4.0,0.0
2104,44.0,0.0,60.0,5.0,0.0
2105,83.0,0.0,20.0,2.0,0.0
2106,80.0,30.0,20.0,3.0,0.0
2107,83.0,0.0,20.0,2.0,0.0
2108,77.0,0.0,20.0,3.0,0.0
2109,77.0,18.0,210.0,0.0,0.0
2110,83.0,0.0,210.0,0.0,0.0
2111,49.0,6.0,120.0,5.0,0.0
2112,83.0,24.0,20.0,2.0,0.0
2113,77.0,0.0,20.0,3.0,0.0
2114,80.0,0.0,20.0,3.0,0.0
2115,77.0,0.0,20.0,3.0,0.0
2116,80.0,30.0,20.0,3.0,0.0
2117,83.0,0.0,20.0,2.0,0.0
2118,77.0,0.0,20.0,3.0,0.0
2119,80.0,0.0,20.0,3.0,0.0
2120,73.0,6.0,120.0,4.0,0.0
2121,83.0,24.0,20.0,2.0,0.0
2122,77.0,0.0,20.0,3.0,0.0
2123,80.0,0.0,20.0,3.0,0.0
2124,83.0,30.0,20.0,2.0,0.0
2125,77.0,0.0,20.0,3.0,0.0
2126,83.0,24.0,20.0,2.0,0.0
2127,80.0,0.0,20.0,3.0,0.0
2128,83.0,0.0,20.0,2.0,0.0
2129,77.0,30.0,20.0,3.0,0.0
2130,80.0,0.0,20.0,3.0,0.0
2131,73.0,0.0,120.0,4.0,0.0
2132,77.0,12.0,20.0,3.0,0.0
2133,83.0,0.0,20.0,2.0,0.0
2134,80.0,0.0,20.0,3.0,0.0
2135,80.0,0.0,20.0,3.0,0.0
2136,77.0,0.0,20.0,3.0,0.0
2137,83.0,30.0,20.0,2.0,0.0
2138,78.0,0.0,20.0,3.0,0.0
2139,78.0,0.0,450.0,1.0,0.0
2140,82.0,0.0,450.0,1.0,0.0
2141,78.0,18.0,450.0,0.0,0.0
2142,42.0,0.0,60.0,5.0,0.0
2143,82.0,30.0,20.0,2.0,0.0
2144,82.0,0.0,450.0,0.0,0.0
2145,82.0,30.0,20.0,2.0,0.0
2146,78.0,0.0,20.0,3.0,0.0
2147,82.0,30.0,20.0,2.0,0.0
2148,44.0,0.0,60.0,5.0,0.0
2149,78.0,0.0,20.0,3.0,0.0
2150,73.0,6.0,120.0,4.0,0.0
2151,78.0,0.0,20.0,3.0,0.0
2152,82.0,30.0,20.0,2.0,0.0
2153,46.0,0.0,60.0,5.0,0.0
2154,82.0,24.0,20.0,2.0,0.0
2155,78.0,0.0,20.0,3.0,0.0
2156,82.0,0.0,20.0,2.0,0.0
2157,78.0,30.0,20.0,3.0,0.0
2158,82.0,30.0,20.0,2.0,0.0
2159,73.0,6.0,120.0,4.0,0.0
2160,78.0,0.0,20.0,3.0,0.0
2161,47.0,0.0,60.0,5.0,0.0
2162,78.0,30.0,20.0,3.0,0.0
2163,82.0,0.0,20.0,2.0,0.0
2164,49.0,6.0,120.0,5.0,0.0
2165,82.0,0.0,20.0,2.0,0.0
2166,78.0,24.0,20.0,3.0,0.0
2167,78.0,0.0,20.0,3.0,0.0
2168,82.0,30.0,20.0,2.0,0.0
2169,73.0,6.0,120.0,4.0,0.0
2170,78.0,24.0,20.0,3.0,0.0
2171,82.0,0.0,20.0,2.0,0.0
2172,82.0,0.0,20.0,2.0,0.0
2173,78.0,30.0,20.0,3.0,0.0
2174,82.0,0.0,20.0,2.0,0.0
2175,78.0,24.0,20.0,3.0,0.0
2176,82.0,0.0,20.0,2.0,0.0
2177,78.0,30.0,20.0,3.0,0.0
2178,82.0,0.0,20.0,2.0,0.0
2179,78.0,12.0,20.0,3.0,0.0
2180,73.0,0.0,120.0,4.0,0.0
2181,82.0,30.0,20.0,2.0,0.0
2182,78.0,0.0,20.0,3.0,0.0
2183,80.0,0.0,20.0,3.0,0.0
2184,80.0,0.0,450.0,0.0,0.0
2185,83.0,0.0,450.0,0.0,0.0
2186,37.0,30.0,60.0,5.0,0.0
2187,83.0,18.0,450.0,1.0,0.0
2188,80.0,0.0,450.0,1.0,0.0
2189,83.0,30.0,20.0,2.0,0.0
2190,77.0,0.0,20.0,3.0,0.0
2191,83.0,0.0,20.0,2.0,0.0
2192,77.0,0.0,20.0,3.0,0.0
2193,80.0,0.0,20.0,3.0,0.0
2194,83.0,30.0,20.0,2.0,0.0
2195,39.0,0.0,60.0,5.0,0.0
2196,80.0,0.0,20.0,3.0,0.0
2197,77.0,0.0,20.0,3.0,0.0
2198,73.0,6.0,120.0,4.0,0.0
2199,83.0,30.0,20.0,2.0,0.0
2200,77.0,0.0,20.0,3.0,0.0
2201,80.0,0.0,20.0,3.0,0.0
2202,77.0,0.0,20.0,3.0,0.0
2203,83.0,0.0,20.0,2.0,0.0
2204,41.0,0.0,60.0,5.0,0.0
2205,80.0,24.0,20.0,3.0,0.0
2206,83.0,30.0,20.0,2.0,0.0
2207,77.0,0.0,20.0,3.0,0.0
2208,80.0,0.0,20.0,3.0,0.0
2209,77.0,0.0,20.0,3.0,0.0
2210,73.0,6.0,120.0,4.0,0.0
2211,83.0,0.0,20.0,2.0,0.0
2212,80.0,30.0,20.0,3.0,0.0
2213,42.0,30.0,60.0,5.0,0.0
2214,80.0,0.0,20.0,3.0,0.0
2215,77.0,0.0,20.0,3.0,0.0
2216,83.0,0.0,20.0,2.0,0.0
2217,83.0,0.0,20.0,2.0,0.0
2218,77.0,24.0,20.0,3.0,0.0
2219,44.0,6.0,120.0,5.0,0.0
2220,80.0,0.0,20.0,3.0,0.0
2221,80.0,0.0,20.0,3.0,0.0
2222,77.0,30.0,20.0,3.0,0.0
2223,83.0,0.0,20.0,2.0,0.0
2224,77.0,0.0,20.0,3.0,0.0
2225,80.0,0.0,20.0,3.0,0.0
2226,73.0,6.0,120.0,4.0,0.0
2227,83.0,24.0,20.0,2.0,0.0
2228,83.0,0.0,20.0,2.0,0.0
2229,77.0,30.0,20.0,3.0,0.0
2230,80.0,0.0,20.0,3.0,0.0
2231,80.0,0.0,20.0,3.0,0.0
2232,83.0,24.0,20.0,2.0,0.0
2233,77.0,0.0,20.0,3.0,0.0
2234,83.0,0.0,20.0,2.0,0.0
2235,77.0,30.0,20.0,3.0,0.0
2236,80.0,0.0,20.0,3.0,0.0
2237,73.0,0.0,180.0,4.0,0.0
2238,77.0,0.0,20.0,3.0,0.0
2239,80.0,12.0,20.0,3.0,0.0
2240,83.0,0.0,20.0,2.0,0.0
2241,83.0,0.0,20.0,2.0,0.0
2242,77.0,60.0,20.0,3.0,0.0
2243,80.0,0.0,20.0,3.0,0.0
2244,42.0,0.0,120.0,5.0,0.0
2245,82.0,54.0,60.0,3.0,0.0
2246,78.0,0.0,120.0,0.0,0.0
2247,82.0,0.0,120.0,1.0,0.0
2248,78.0,6.0,120.0,1.0,0.0
2249,82.0,0.0,60.0,2.0,0.0
2250,82.0,0.0,120.0,0.0,0.0
2251,66.0,0.0,60.0,2.0,0.0
2252,66.0,60.0,60.0,3.0,0.0
2253,70.0,60.0,60.0,3.0,0.0
2254,70.0,0.0,60.0,2.0,0.0
2255,73.0,0.0,60.0,3.0,0.0
2256,73.0,60.0,60.0,2.0,0.0
2257,78.0,0.0,90.0,2.0,0.0
2258,85.0,0.0,210.0,1.0,0.0
2259,73.0,7.0,210.0,1.0,0.0
2260,54.0,0.0,60.0,5.0,0.0
2261,78.0,0.0,90.0,0.0,0.0
2262,73.0,27.0,60.0,4.0,0.0
2263,78.0,33.0,90.0,3.0,0.0
2264,49.0,3.0,60.0,5.0,0.0
2265,73.0,0.0,60.0,4.0,0.0
2266,80.0,0.0,30.0,0.0,0.0
2267,80.0,0.0,30.0,3.0,0.0
2268,80.0,16.0,30.0,2.0,0.0
2269,80.0,15.0,15.0,0.0,0.0
2270,80.0,0.0,15.0,2.0,0.0
2271,73.0,4.0,60.0,4.0,0.0
2272,53.0,0.0,60.0,5.0,0.0
2273,80.0,0.0,15.0,3.0,0.0
2274,82.0,15.0,15.0,0.0,0.0
2275,82.0,0.0,15.0,3.0,0.0
2276,82.0,0.0,15.0,2.0,0.0
2277,80.0,0.0,15.0,2.0,0.0
2278,80.0,0.0,15.0,3.0,0.0
2279,80.0,11.0,15.0,0.0,0.0
2280,82.0,15.0,15.0,2.0,0.0
2281,82.0,0.0,15.0,0.0,0.0
2282,82.0,0.0,15.0,3.0,0.0
2283,73.0,4.0,60.0,4.0,0.0
2284,80.0,0.0,15.0,3.0,0.0
2285,80.0,0.0,15.0,2.0,0.0
2286,49.0,0.0,60.0,5.0,0.0
2287,80.0,15.0,15.0,0.0,0.0
2288,82.0,8.0,15.0,2.0,0.0
2289,82.0,0.0,15.0,0.0,0.0
2290,82.0,0.0,15.0,3.0,0.0
2291,78.0,0.0,15.0,0.0,0.0
2292,78.0,11.0,15.0,2.0,0.0
2293,78.0,0.0,15.0,3.0,0.0
2294,80.0,56.0,15.0,0.0,0.0
2295,80.0,0.0,15.0,2.0,0.0
2296,80.0,0.0,15.0,3.0,0.0
2297,82.0,0.0,60.0,2.0,0.0
2298,82.0,54.0,60.0,3.0,0.0
2299,73.0,6.0,120.0,4.0,0.0
2300,73.0,0.0,120.0,1.0,0.0
2301,85.0,0.0,120.0,1.0,0.0
2302,82.0,0.0,120.0,0.0,0.0
2303,54.0,0.0,120.0,5.0,0.0
2304,70.0,0.0,60.0,3.0,0.0
2305,70.0,60.0,60.0,2.0,0.0
2306,73.0,0.0,60.0,3.0,0.0
2307,73.0,60.0,60.0,2.0,0.0
2308,78.0,0.0,60.0,3.0,0.0
2309,78.0,60.0,60.0,2.0,0.0
2310,54.0,27.0,60.0,5.0,0.0
2311,82.0,27.0,90.0,2.0,0.0
2312,82.0,0.0,90.0,3.0,0.0
2313,82.0,0.0,120.0,1.0,0.0
2314,82.0,0.0,90.0,0.0,0.0
2315,78.0,6.0,120.0,1.0,0.0
2316,54.0,3.0,60.0,5.0,0.0
2317,66.0,0.0,60.0,4.0,0.0
2318,84.0,0.0,30.0,2.0,0.0
2319,84.0,0.0,30.0,3.0,0.0
2320,84.0,16.0,30.0,0.0,0.0
2321,84.0,6.0,120.0,1.0,0.0
2322,51.0,0.0,60.0,5.0,0.0
2323,78.0,4.0,60.0,4.0,0.0
2324,84.0,0.0,15.0,0.0,0.0
2325,84.0,0.0,15.0,2.0,0.0
2326,78.0,0.0,120.0,1.0,0.0
2327,84.0,15.0,15.0,3.0,0.0
2328,85.0,0.0,15.0,0.0,0.0
2329,85.0,15.0,15.0,2.0,0.0
2330,85.0,0.0,15.0,3.0,0.0
2331,84.0,0.0,15.0,2.0,0.0
2332,84.0,0.0,15.0,3.0,0.0
2333,84.0,11.0,15.0,0.0,0.0
2334,85.0,15.0,15.0,3.0,0.0
2335,85.0,0.0,15.0,0.0,0.0
2336,85.0,0.0,15.0,2.0,0.0
2337,84.0,0.0,15.0,2.0,0.0
2338,84.0,15.0,15.0,0.0,0.0
2339,84.0,0.0,15.0,3.0,0.0
2340,51.0,0.0,60.0,5.0,0.0
2341,78.0,4.0,60.0,4.0,0.0
2342,85.0,0.0,15.0,2.0,0.0
2343,85.0,15.0,15.0,3.0,0.0
2344,85.0,0.0,15.0,0.0,0.0
2345,82.0,0.0,15.0,3.0,0.0
2346,82.0,0.0,15.0,0.0,0.0
2347,82.0,5.0,15.0,2.0,0.0
2348,84.0,0.0,15.0,0.0,0.0
2349,84.0,0.0,15.0,2.0,0.0
2350,84.0,56.0,15.0,3.0,0.0
2351,85.0,0.0,60.0,1.0,0.0
2352,85.0,0.0,60.0,0.0,0.0
2353,85.0,0.0,60.0,2.0,0.0
2354,73.0,0.0,60.0,1.0,0.0
2355,49.0,0.0,60.0,5.0,0.0
2356,73.0,0.0,60.0,4.0,0.0
2357,85.0,60.0,60.0,3.0,0.0
2358,66.0,0.0,60.0,4.0,0.0
2359,66.0,0.0,60.0,2.0,0.0
2360,42.0,0.0,60.0,5.0,0.0
2361,66.0,0.0,60.0,3.0,0.0
2362,66.0,0.0,60.0,0.0,0.0
2363,66.0,60.0,60.0,1.0,0.0
2364,78.0,0.0,60.0,1.0,0.0
2365,46.0,60.0,60.0,5.0,0.0
2366,70.0,0.0,60.0,4.0,0.0
2367,70.0,0.0,60.0,0.0,0.0
2368,70.0,0.0,60.0,3.0,0.0
2369,82.0,0.0,60.0,1.0,0.0
2370,73.0,0.0,60.0,1.0,0.0
2371,70.0,0.0,60.0,2.0,0.0
2372,73.0,0.0,60.0,2.0,0.0
2373,49.0,0.0,60.0,5.0,0.0
2374,78.0,7.0,210.0,1.0,0.0
2375,73.0,87.0,60.0,4.0,0.0
2376,66.0,0.0,210.0,1.0,0.0
2377,73.0,0.0,60.0,0.0,0.0
2378,73.0,0.0,60.0,3.0,0.0
2379,78.0,0.0,90.0,4.0,0.0
2380,78.0,0.0,90.0,3.0,0.0
2381,54.0,0.0,90.0,5.0,0.0
2382,78.0,0.0,90.0,2.0,0.0
2383,78.0,36.0,90.0,0.0,0.0
2384,72.0,0.0,30.0,4.0,0.0
2385,48.0,0.0,30.0,5.0,0.0
2386,72.0,0.0,30.0,2.0,0.0
2387,72.0,0.0,30.0,3.0,0.0
2388,72.0,16.0,30.0,0.0,0.0
2389,48.0,0.0,15.0,5.0,0.0
2390,72.0,0.0,15.0,2.0,0.0
2391,72.0,0.0,15.0,3.0,0.0
2392,72.0,0.0,15.0,4.0,0.0
2393,72.0,15.0,15.0,0.0,0.0
2394,49.0,8.0,15.0,5.0,0.0
2395,73.0,0.0,15.0,0.0,0.0
2396,73.0,0.0,15.0,4.0,0.0
2397,73.0,0.0,15.0,3.0,0.0
2398,73.0,0.0,15.0,2.0,0.0
2399,48.0,0.0,15.0,5.0,0.0
2400,72.0,0.0,15.0,4.0,0.0
2401,72.0,15.0,15.0,0.0,0.0
2402,72.0,0.0,15.0,3.0,0.0
2403,72.0,0.0,15.0,2.0,0.0
2404,73.0,0.0,15.0,3.0,0.0
2405,49.0,15.0,15.0,5.0,0.0
2406,73.0,0.0,15.0,0.0,0.0
2407,73.0,0.0,15.0,4.0,0.0
2408,73.0,0.0,15.0,2.0,0.0
2409,72.0,15.0,15.0,3.0,0.0
2410,48.0,0.0,15.0,5.0,0.0
2411,72.0,0.0,15.0,4.0,0.0
2412,72.0,0.0,15.0,0.0,0.0
2413,72.0,0.0,15.0,2.0,0.0
2414,49.0,0.0,15.0,5.0,0.0
2415,73.0,0.0,15.0,4.0,0.0
2416,73.0,0.0,15.0,0.0,0.0
2417,73.0,15.0,15.0,3.0,0.0
2418,73.0,0.0,15.0,2.0,0.0
2419,46.0,0.0,15.0,5.0,0.0
2420,70.0,0.0,15.0,2.0,0.0
2421,70.0,15.0,15.0,3.0,0.0
2422,70.0,0.0,15.0,0.0,0.0
2423,70.0,0.0,15.0,4.0,0.0
2424,72.0,0.0,15.0,3.0,0.0
2425,72.0,0.0,15.0,0.0,0.0
2426,72.0,0.0,15.0,4.0,0.0
2427,48.0,0.0,15.0,5.0,0.0
2428,72.0,110.0,15.0,2.0,0.0
2429,49.0,0.0,120.0,5.0,0.0
2430,61.0,0.0,120.0,1.0,0.0
2431,73.0,0.0,120.0,3.0,0.0
2432,73.0,0.0,120.0,4.0,0.0
2433,73.0,0.0,120.0,1.0,0.0
2434,73.0,120.0,120.0,2.0,0.0
2435,73.0,0.0,120.0,0.0,0.0
2436,68.0,0.0,120.0,0.0,0.0
2437,61.0,0.0,120.0,1.0,0.0
2438,73.0,0.0,120.0,1.0,0.0
2439,73.0,0.0,120.0,4.0,0.0
2440,73.0,0.0,120.0,3.0,0.0
2441,68.0,0.0,120.0,3.0,0.0
2442,61.0,0.0,120.0,3.0,0.0
2443,73.0,0.0,120.0,2.0,0.0
2444,77.0,0.0,120.0,0.0,0.0
2445,37.0,0.0,120.0,5.0,0.0
2446,68.0,0.0,120.0,2.0,0.0
2447,61.0,120.0,120.0,2.0,0.0
2448,73.0,0.0,120.0,3.0,0.0
2449,61.0,0.0,120.0,2.0,0.0
2450,68.0,0.0,120.0,2.0,0.0
2451,73.0,0.0,120.0,2.0,0.0
2452,37.0,0.0,120.0,5.0,0.0
2453,73.0,0.0,120.0,1.0,0.0
2454,73.0,0.0,120.0,4.0,0.0
2455,68.0,0.0,120.0,3.0,0.0
2456,61.0,186.0,120.0,3.0,0.0
2457,77.0,0.0,120.0,0.0,0.0
2458,68.0,0.0,120.0,0.0,0.0
2459,61.0,0.0,120.0,1.0,0.0
2460,77.0,0.0,60.0,2.0,0.0
2461,49.0,0.0,60.0,5.0,0.0
2462,61.0,12.0,810.0,1.0,0.0
2463,73.0,0.0,810.0,1.0,0.0
2464,73.0,60.0,60.0,4.0,0.0
2465,73.0,60.0,60.0,4.0,0.0
2466,51.0,0.0,60.0,5.0,0.0
2467,78.0,0.0,60.0,2.0,0.0
2468,53.0,0.0,60.0,5.0,0.0
2469,80.0,0.0,60.0,2.0,0.0
2470,73.0,60.0,60.0,4.0,0.0
2471,73.0,0.0,60.0,4.0,0.0
2472,82.0,0.0,60.0,2.0,0.0
2473,54.0,60.0,60.0,5.0,0.0
2474,83.0,0.0,120.0,2.0,0.0
2475,56.0,6.0,120.0,5.0,0.0
2476,73.0,54.0,60.0,4.0,0.0
2477,73.0,60.0,60.0,4.0,0.0
2478,73.0,60.0,60.0,4.0,0.0
2479,73.0,35.0,60.0,4.0,0.0
2480,80.0,0.0,30.0,0.0,0.0
2481,83.0,0.0,30.0,2.0,0.0
2482,83.0,0.0,30.0,0.0,0.0
2483,73.0,35.0,60.0,4.0,0.0
2484,80.0,25.0,30.0,3.0,0.0
2485,78.0,0.0,30.0,3.0,0.0
2486,82.0,25.0,30.0,2.0,0.0
2487,78.0,0.0,30.0,0.0,0.0
2488,73.0,35.0,60.0,4.0,0.0
2489,82.0,0.0,30.0,0.0,0.0
2490,73.0,35.0,60.0,4.0,0.0
2491,80.0,25.0,30.0,0.0,0.0
2492,77.0,0.0,30.0,0.0,0.0
2493,77.0,0.0,30.0,3.0,0.0
2494,80.0,0.0,30.0,2.0,0.0
2495,78.0,25.0,30.0,3.0,0.0
2496,82.0,0.0,30.0,0.0,0.0
2497,82.0,0.0,30.0,2.0,0.0
2498,78.0,0.0,30.0,0.0,0.0
2499,73.0,60.0,60.0,4.0,0.0
2500,83.0,0.0,120.0,2.0,0.0
2501,80.0,6.0,120.0,0.0,0.0
2502,83.0,0.0,120.0,0.0,0.0
2503,73.0,0.0,60.0,4.0,0.0
2504,80.0,42.0,60.0,3.0,0.0
2505,73.0,60.0,60.0,4.0,0.0
2506,73.0,60.0,60.0,4.0,0.0
2507,73.0,35.0,60.0,4.0,0.0
2508,80.0,0.0,30.0,0.0,0.0
2509,85.0,18.0,450.0,1.0,0.0
2510,73.0,18.0,210.0,1.0,0.0
2511,37.0,35.0,60.0,5.0,0.0
2512,83.0,25.0,30.0,0.0,0.0
2513,73.0,0.0,450.0,4.0,0.0
2514,80.0,0.0,30.0,3.0,0.0
2515,83.0,0.0,30.0,2.0,0.0
2516,82.0,0.0,30.0,0.0,0.0
2517,78.0,0.0,30.0,0.0,0.0
2518,82.0,0.0,30.0,2.0,0.0
2519,37.0,35.0,60.0,5.0,0.0
2520,78.0,25.0,30.0,3.0,0.0
2521,77.0,0.0,30.0,3.0,0.0
2522,77.0,0.0,30.0,0.0,0.0
2523,80.0,0.0,30.0,0.0,0.0
2524,80.0,25.0,30.0,2.0,0.0
2525,37.0,35.0,60.0,5.0,0.0
2526,75.0,0.0,30.0,3.0,0.0
2527,78.0,0.0,30.0,2.0,0.0
2528,37.0,35.0,60.0,5.0,0.0
2529,78.0,7.0,30.0,0.0,0.0
2530,75.0,0.0,30.0,0.0,0.0
2531,73.0,0.0,30.0,0.0,0.0
2532,80.0,0.0,210.0,1.0,0.0
2533,77.0,0.0,30.0,0.0,0.0
2534,77.0,0.0,30.0,2.0,0.0
2535,37.0,35.0,60.0,5.0,0.0
2536,73.0,25.0,30.0,3.0,0.0
2537,75.0,0.0,30.0,2.0,0.0
2538,71.0,0.0,30.0,0.0,0.0
2539,37.0,35.0,60.0,5.0,0.0
2540,71.0,25.0,30.0,3.0,0.0
2541,75.0,0.0,30.0,0.0,0.0
2542,37.0,35.0,60.0,5.0,0.0
2543,70.0,0.0,30.0,0.0,0.0
2544,73.0,0.0,30.0,2.0,0.0
2545,73.0,0.0,30.0,0.0,0.0
2546,70.0,25.0,30.0,3.0,0.0
2547,71.0,7.0,30.0,2.0,0.0
2548,37.0,60.0,60.0,5.0,0.0
2549,71.0,0.0,30.0,0.0,0.0
2550,68.0,0.0,30.0,0.0,0.0
2551,68.0,0.0,30.0,3.0,0.0
2552,70.0,0.0,120.0,0.0,0.0
2553,66.0,0.0,120.0,0.0,0.0
2554,70.0,33.0,60.0,2.0,0.0
2555,85.0,9.0,120.0,1.0,0.0
2556,82.0,0.0,120.0,1.0,0.0
2557,70.0,0.0,60.0,3.0,0.0
2558,42.0,0.0,60.0,5.0,0.0
2559,73.0,0.0,120.0,4.0,0.0
2560,66.0,0.0,30.0,2.0,0.0
2561,66.0,21.0,30.0,3.0,0.0
2562,42.0,0.0,30.0,5.0,0.0
2563,46.0,0.0,30.0,5.0,0.0
2564,70.0,0.0,30.0,2.0,0.0
2565,70.0,57.0,30.0,3.0,0.0
2566,49.0,27.0,60.0,5.0,0.0
2567,73.0,0.0,60.0,2.0,0.0
2568,82.0,6.0,90.0,1.0,0.0
2569,73.0,9.0,120.0,0.0,0.0
2570,82.0,0.0,120.0,0.0,0.0
2571,78.0,0.0,90.0,1.0,0.0
2572,73.0,0.0,60.0,3.0,0.0
2573,70.0,21.0,30.0,2.0,0.0
2574,70.0,0.0,30.0,3.0,0.0
2575,46.0,0.0,30.0,5.0,0.0
2576,73.0,0.0,30.0,2.0,0.0
2577,49.0,0.0,30.0,5.0,0.0
2578,73.0,57.0,30.0,3.0,0.0
2579,82.0,0.0,30.0,1.0,0.0
2580,78.0,0.0,30.0,1.0,0.0
2581,78.0,0.0,120.0,0.0,0.0
2582,78.0,33.0,60.0,4.0,0.0
2583,82.0,0.0,120.0,1.0,0.0
2584,54.0,0.0,120.0,5.0,0.0
2585,78.0,0.0,120.0,3.0,0.0
2586,78.0,0.0,120.0,2.0,0.0
2587,70.0,9.0,120.0,0.0,0.0
2588,78.0,0.0,120.0,1.0,0.0
2589,73.0,21.0,30.0,4.0,0.0
2590,70.0,57.0,30.0,4.0,0.0
2591,66.0,33.0,60.0,4.0,0.0
2592,70.0,30.0,30.0,4.0,0.0
2593,66.0,57.0,30.0,4.0,0.0
2594,61.0,0.0,450.0,1.0,0.0
2595,77.0,0.0,60.0,2.0,0.0
2596,73.0,0.0,60.0,3.0,0.0
2597,73.0,18.0,450.0,1.0,0.0
2598,61.0,60.0,60.0,4.0,0.0
2599,61.0,0.0,60.0,4.0,0.0
2600,78.0,0.0,60.0,2.0,0.0
2601,75.0,60.0,60.0,3.0,0.0
2602,80.0,60.0,60.0,2.0,0.0
2603,61.0,0.0,60.0,4.0,0.0
2604,77.0,0.0,60.0,3.0,0.0
2605,61.0,0.0,60.0,4.0,0.0
2606,82.0,0.0,60.0,2.0,0.0
2607,78.0,60.0,60.0,3.0,0.0
2608,80.0,0.0,120.0,3.0,0.0
2609,83.0,6.0,120.0,2.0,0.0
2610,61.0,54.0,60.0,4.0,0.0
2611,61.0,60.0,60.0,4.0,0.0
2612,61.0,42.0,60.0,4.0,0.0
2613,61.0,35.0,60.0,4.0,0.0
2614,80.0,0.0,30.0,0.0,0.0
2615,77.0,25.0,30.0,0.0,0.0
2616,80.0,35.0,60.0,1.0,0.0
2617,80.0,0.0,30.0,2.0,0.0
2618,73.0,0.0,60.0,1.0,0.0
2619,77.0,0.0,30.0,3.0,0.0
2620,61.0,0.0,60.0,4.0,0.0
2621,37.0,18.0,450.0,5.0,0.0
2622,82.0,0.0,30.0,2.0,0.0
2623,61.0,0.0,60.0,4.0,0.0
2624,78.0,0.0,30.0,3.0,0.0
2625,78.0,35.0,60.0,1.0,0.0
2626,78.0,25.0,30.0,0.0,0.0
2627,82.0,0.0,30.0,0.0,0.0
2628,82.0,0.0,60.0,1.0,0.0
2629,83.0,0.0,60.0,1.0,0.0
2630,80.0,0.0,30.0,0.0,0.0
2631,83.0,0.0,30.0,0.0,0.0
2632,83.0,0.0,30.0,2.0,0.0
2633,61.0,0.0,60.0,4.0,0.0
2634,80.0,25.0,30.0,3.0,0.0
2635,80.0,35.0,60.0,1.0,0.0
2636,82.0,0.0,30.0,0.0,0.0
2637,61.0,60.0,60.0,4.0,0.0
2638,78.0,25.0,30.0,0.0,0.0
2639,78.0,0.0,60.0,1.0,0.0
2640,82.0,0.0,60.0,1.0,0.0
2641,82.0,0.0,30.0,2.0,0.0
2642,78.0,0.0,30.0,3.0,0.0
2643,77.0,6.0,120.0,0.0,0.0
2644,80.0,0.0,120.0,2.0,0.0
2645,73.0,0.0,120.0,1.0,0.0
2646,80.0,0.0,120.0,1.0,0.0
2647,80.0,0.0,120.0,0.0,0.0
2648,77.0,0.0,120.0,3.0,0.0
2649,61.0,54.0,60.0,4.0,0.0
2650,61.0,60.0,60.0,4.0,0.0
2651,61.0,42.0,60.0,4.0,0.0
2652,61.0,35.0,60.0,4.0,0.0
2653,80.0,0.0,30.0,0.0,0.0
2654,61.0,35.0,60.0,4.0,0.0
2655,37.0,0.0,60.0,5.0,0.0
2656,83.0,25.0,30.0,2.0,0.0
2657,73.0,18.0,450.0,1.0,0.0
2658,83.0,0.0,30.0,0.0,0.0
2659,80.0,0.0,30.0,3.0,0.0
2660,80.0,0.0,450.0,1.0,0.0
2661,61.0,0.0,60.0,4.0,0.0
2662,37.0,35.0,60.0,5.0,0.0
2663,78.0,0.0,30.0,0.0,0.0
2664,82.0,0.0,30.0,0.0,0.0
2665,82.0,25.0,30.0,2.0,0.0
2666,78.0,0.0,30.0,3.0,0.0
2667,77.0,0.0,30.0,0.0,0.0
2668,80.0,25.0,30.0,0.0,0.0
2669,80.0,0.0,30.0,2.0,0.0
2670,77.0,0.0,30.0,3.0,0.0
2671,37.0,35.0,60.0,5.0,0.0
2672,61.0,0.0,60.0,4.0,0.0
2673,78.0,25.0,30.0,2.0,0.0
2674,37.0,35.0,60.0,5.0,0.0
2675,78.0,0.0,30.0,0.0,0.0
2676,75.0,0.0,30.0,3.0,0.0
2677,75.0,0.0,30.0,0.0,0.0
2678,61.0,0.0,60.0,4.0,0.0
2679,73.0,0.0,30.0,0.0,0.0
2680,61.0,35.0,60.0,4.0,0.0
2681,77.0,0.0,30.0,2.0,0.0
2682,73.0,25.0,30.0,3.0,0.0
2683,37.0,0.0,60.0,5.0,0.0
2684,77.0,0.0,30.0,0.0,0.0
2685,75.0,0.0,30.0,0.0,0.0
2686,75.0,25.0,30.0,2.0,0.0
2687,71.0,0.0,30.0,3.0,0.0
2688,61.0,0.0,60.0,4.0,0.0
2689,71.0,0.0,30.0,0.0,0.0
2690,37.0,35.0,60.0,5.0,0.0
2691,70.0,0.0,30.0,0.0,0.0
2692,70.0,0.0,30.0,3.0,0.0
2693,61.0,35.0,60.0,4.0,0.0
2694,37.0,0.0,60.0,5.0,0.0
2695,73.0,25.0,30.0,2.0,0.0
2696,73.0,0.0,30.0,0.0,0.0
2697,71.0,0.0,30.0,2.0,0.0
2698,61.0,0.0,60.0,4.0,0.0
2699,68.0,0.0,30.0,0.0,0.0
2700,37.0,30.0,60.0,5.0,0.0
2701,68.0,0.0,30.0,3.0,0.0
2702,71.0,7.0,30.0,0.0,0.0
2703,66.0,30.0,20.0,3.0,0.0
2704,70.0,0.0,120.0,2.0,0.0
2705,61.0,0.0,60.0,4.0,0.0
2706,42.0,0.0,120.0,5.0,0.0
2707,66.0,0.0,120.0,0.0,0.0
2708,70.0,0.0,120.0,0.0,0.0
2709,82.0,0.0,120.0,1.0,0.0
2710,78.0,6.0,120.0,1.0,0.0
2711,66.0,30.0,20.0,3.0,0.0
2712,73.0,21.0,30.0,4.0,0.0
2713,66.0,3.0,20.0,3.0,0.0
2714,66.0,3.0,20.0,3.0,0.0
2715,71.0,27.0,30.0,4.0,0.0
2716,78.0,0.0,210.0,0.0,0.0
2717,85.0,0.0,210.0,0.0,0.0
2718,66.0,30.0,20.0,3.0,0.0
2719,85.0,18.0,210.0,2.0,0.0
2720,70.0,0.0,60.0,4.0,0.0
2721,66.0,30.0,20.0,3.0,0.0
2722,70.0,0.0,60.0,4.0,0.0
2723,66.0,30.0,20.0,3.0,0.0
2724,66.0,30.0,20.0,3.0,0.0
2725,66.0,30.0,20.0,3.0,0.0
2726,70.0,0.0,60.0,4.0,0.0
2727,78.0,6.0,360.0,1.0,0.0
2728,66.0,30.0,20.0,3.0,0.0
2729,46.0,0.0,30.0,5.0,0.0
2730,73.0,9.0,30.0,4.0,0.0
2731,66.0,3.0,20.0,3.0,0.0
2732,71.0,16.0,30.0,4.0,0.0
2733,66.0,3.0,20.0,3.0,0.0
2734,44.0,0.0,30.0,5.0,0.0
2735,76.0,11.0,15.0,2.0,0.0
2736,70.0,0.0,60.0,4.0,0.0
2737,78.0,0.0,240.0,0.0,0.0
2738,76.0,6.0,120.0,0.0,0.0
2739,42.0,4.0,60.0,5.0,0.0
2740,66.0,4.0,20.0,3.0,0.0
2741,78.0,15.0,15.0,2.0,0.0
2742,66.0,0.0,20.0,3.0,0.0
2743,76.0,11.0,15.0,2.0,0.0
2744,78.0,15.0,15.0,2.0,0.0
2745,66.0,4.0,20.0,3.0,0.0
2746,73.0,0.0,60.0,4.0,0.0
2747,46.0,4.0,60.0,5.0,0.0
2748,76.0,11.0,15.0,2.0,0.0
2749,78.0,15.0,15.0,2.0,0.0
2750,75.0,5.0,15.0,2.0,0.0
2751,66.0,0.0,20.0,3.0,0.0
2752,76.0,26.0,15.0,2.0,0.0
2753,47.0,0.0,120.0,5.0,0.0
2754,75.0,0.0,120.0,0.0,0.0
2755,66.0,30.0,20.0,3.0,0.0
2756,66.0,0.0,60.0,4.0,0.0
2757,75.0,0.0,120.0,2.0,0.0
2758,66.0,30.0,20.0,3.0,0.0
2759,66.0,3.0,20.0,3.0,0.0
2760,75.0,21.0,30.0,4.0,0.0
2761,73.0,27.0,30.0,4.0,0.0
2762,66.0,3.0,20.0,3.0,0.0
2763,68.0,30.0,20.0,3.0,0.0
2764,87.0,0.0,210.0,2.0,0.0
2765,80.0,0.0,210.0,0.0,0.0
2766,87.0,18.0,210.0,0.0,0.0
2767,72.0,0.0,60.0,4.0,0.0
2768,68.0,30.0,20.0,3.0,0.0
2769,72.0,0.0,60.0,4.0,0.0
2770,68.0,30.0,20.0,3.0,0.0
2771,68.0,30.0,20.0,3.0,0.0
2772,80.0,0.0,360.0,1.0,0.0
2773,68.0,30.0,20.0,3.0,0.0
2774,72.0,0.0,60.0,4.0,0.0
2775,68.0,30.0,20.0,3.0,0.0
2776,68.0,3.0,20.0,3.0,0.0
2777,48.0,9.0,30.0,5.0,0.0
2778,75.0,0.0,30.0,4.0,0.0
2779,68.0,3.0,20.0,3.0,0.0
2780,46.0,0.0,30.0,5.0,0.0
2781,73.0,16.0,30.0,4.0,0.0
2782,68.0,4.0,20.0,3.0,0.0
2783,44.0,4.0,60.0,5.0,0.0
2784,80.0,6.0,120.0,0.0,0.0
2785,78.0,0.0,120.0,0.0,0.0
2786,78.0,11.0,15.0,2.0,0.0
2787,72.0,0.0,60.0,4.0,0.0
2788,80.0,15.0,15.0,2.0,0.0
2789,68.0,0.0,20.0,3.0,0.0
2790,78.0,11.0,15.0,2.0,0.0
2791,80.0,15.0,15.0,2.0,0.0
2792,75.0,0.0,60.0,4.0,0.0
2793,48.0,4.0,60.0,5.0,0.0
2794,78.0,11.0,15.0,2.0,0.0
2795,68.0,4.0,20.0,3.0,0.0
2796,80.0,15.0,15.0,2.0,0.0
2797,77.0,5.0,15.0,2.0,0.0
2798,68.0,0.0,20.0,3.0,0.0
2799,78.0,29.0,15.0,2.0,0.0
2800,68.0,30.0,30.0,3.0,0.0
2801,68.0,9.0,120.0,4.0,0.0
2802,82.0,0.0,30.0,0.0,0.0
2803,77.0,0.0,30.0,0.0,0.0
2804,73.0,0.0,120.0,1.0,0.0
2805,49.0,0.0,120.0,5.0,0.0
2806,77.0,0.0,30.0,2.0,0.0
2807,78.0,0.0,30.0,0.0,0.0
2808,75.0,0.0,30.0,0.0,0.0
2809,66.0,0.0,30.0,3.0,0.0
2810,75.0,30.0,30.0,2.0,0.0
2811,77.0,0.0,30.0,0.0,0.0
2812,73.0,21.0,30.0,2.0,0.0
2813,65.0,0.0,30.0,3.0,0.0
2814,73.0,0.0,30.0,0.0,0.0
2815,75.0,0.0,30.0,2.0,0.0
2816,75.0,0.0,30.0,0.0,0.0
2817,78.0,57.0,30.0,0.0,0.0
2818,66.0,0.0,30.0,3.0,0.0
2819,73.0,6.0,120.0,1.0,0.0
2820,73.0,0.0,60.0,0.0,0.0
2821,77.0,0.0,60.0,0.0,0.0
2822,49.0,54.0,60.0,5.0,0.0
2823,68.0,0.0,60.0,4.0,0.0
2824,65.0,0.0,60.0,3.0,0.0
2825,80.0,0.0,120.0,1.0,0.0
2826,73.0,0.0,60.0,2.0,0.0
2827,73.0,0.0,60.0,2.0,0.0
2828,68.0,60.0,60.0,4.0,0.0
2829,49.0,0.0,60.0,5.0,0.0
2830,77.0,0.0,60.0,0.0,0.0
2831,73.0,0.0,60.0,0.0,0.0
2832,65.0,0.0,60.0,3.0,0.0
2833,73.0,0.0,120.0,1.0,0.0
2834,80.0,0.0,120.0,1.0,0.0
2835,73.0,0.0,120.0,2.0,0.0
2836,65.0,0.0,120.0,3.0,0.0
2837,73.0,0.0,120.0,0.0,0.0
2838,77.0,6.0,120.0,0.0,0.0
2839,49.0,54.0,60.0,5.0,0.0
2840,68.0,0.0,60.0,4.0,0.0
2841,47.0,60.0,60.0,5.0,0.0
2842,68.0,0.0,60.0,4.0,0.0
2843,70.0,60.0,60.0,4.0,0.0
2844,46.0,0.0,60.0,5.0,0.0
2845,44.0,0.0,60.0,5.0,0.0
2846,71.0,60.0,60.0,4.0,0.0
2847,73.0,6.0,120.0,3.0,0.0
2848,42.0,0.0,120.0,5.0,0.0
2849,70.0,0.0,120.0,4.0,0.0
2850,82.0,54.0,60.0,2.0,0.0
2851,78.0,33.0,60.0,2.0,0.0
2852,77.0,30.0,30.0,2.0,0.0
2853,75.0,9.0,120.0,4.0,0.0
2854,78.0,12.0,210.0,3.0,0.0
2855,51.0,0.0,120.0,5.0,0.0
2856,78.0,30.0,30.0,2.0,0.0
2857,80.0,21.0,30.0,2.0,0.0
2858,82.0,57.0,30.0,2.0,0.0
2859,71.0,6.0,120.0,4.0,0.0
2860,47.0,0.0,120.0,5.0,0.0
2861,83.0,42.0,60.0,2.0,0.0
2862,80.0,33.0,60.0,2.0,0.0
2863,49.0,0.0,60.0,5.0,0.0
2864,77.0,6.0,120.0,3.0,0.0
2865,73.0,3.0,60.0,4.0,0.0
2866,79.0,27.0,30.0,2.0,0.0
2867,80.0,30.0,30.0,2.0,0.0
2868,47.0,3.0,60.0,5.0,0.0
2869,82.0,21.0,30.0,2.0,0.0
2870,71.0,0.0,60.0,4.0,0.0
2871,83.0,57.0,30.0,2.0,0.0
2872,78.0,0.0,60.0,3.0,0.0
2873,70.0,0.0,60.0,4.0,0.0
2874,85.0,7.0,210.0,1.0,0.0
2875,78.0,0.0,210.0,1.0,0.0
2876,46.0,0.0,60.0,5.0,0.0
2877,85.0,60.0,60.0,2.0,0.0
2878,85.0,0.0,210.0,0.0,0.0
2879,78.0,0.0,450.0,0.0,0.0
2880,85.0,19.0,60.0,2.0,0.0
2881,85.0,0.0,60.0,3.0,0.0
2882,78.0,0.0,60.0,4.0,0.0
2883,46.0,0.0,60.0,5.0,0.0
2884,78.0,0.0,60.0,4.0,0.0
2885,85.0,0.0,15.0,2.0,0.0
2886,85.0,15.0,15.0,3.0,0.0
2887,46.0,4.0,60.0,5.0,0.0
2888,87.0,0.0,15.0,2.0,0.0
2889,87.0,15.0,15.0,3.0,0.0
2890,85.0,0.0,15.0,3.0,0.0
2891,85.0,11.0,15.0,2.0,0.0
2892,87.0,0.0,15.0,2.0,0.0
2893,87.0,15.0,15.0,3.0,0.0
2894,85.0,0.0,15.0,3.0,0.0
2895,85.0,15.0,15.0,2.0,0.0
2896,46.0,0.0,60.0,5.0,0.0
2897,78.0,4.0,60.0,4.0,0.0
2898,87.0,0.0,15.0,3.0,0.0
2899,87.0,8.0,15.0,2.0,0.0
2900,83.0,11.0,15.0,3.0,0.0
2901,83.0,0.0,15.0,2.0,0.0
2902,85.0,0.0,15.0,3.0,0.0
2903,85.0,56.0,15.0,2.0,0.0
2904,87.0,0.0,210.0,0.0,0.0
2905,87.0,0.0,60.0,3.0,0.0
2906,78.0,0.0,60.0,4.0,0.0
2907,87.0,18.0,210.0,1.0,0.0
2908,87.0,0.0,60.0,2.0,0.0
2909,47.0,60.0,60.0,5.0,0.0
2910,78.0,0.0,210.0,1.0,0.0
2911,83.0,60.0,60.0,2.0,0.0
2912,75.0,0.0,60.0,4.0,0.0
2913,47.0,0.0,60.0,5.0,0.0
2914,83.0,0.0,60.0,3.0,0.0
2915,80.0,0.0,60.0,2.0,0.0
2916,47.0,0.0,60.0,5.0,0.0
2917,75.0,0.0,60.0,4.0,0.0
2918,80.0,42.0,60.0,3.0,0.0
2919,47.0,0.0,60.0,5.0,0.0
2920,75.0,0.0,60.0,2.0,0.0
2921,75.0,60.0,60.0,4.0,0.0
2922,75.0,0.0,60.0,3.0,0.0
2923,82.0,0.0,210.0,1.0,0.0
2924,78.0,0.0,330.0,1.0,0.0
2925,73.0,0.0,210.0,2.0,0.0
2926,82.0,18.0,210.0,0.0,0.0
2927,73.0,0.0,120.0,0.0,0.0
2928,73.0,6.0,120.0,3.0,0.0
2929,49.0,54.0,60.0,5.0,0.0
2930,73.0,0.0,60.0,4.0,0.0
2931,73.0,60.0,60.0,4.0,0.0
2932,49.0,0.0,60.0,5.0,0.0
2933,78.0,0.0,210.0,3.0,0.0
2934,49.0,42.0,60.0,5.0,0.0
2935,73.0,0.0,60.0,4.0,0.0
2936,78.0,7.0,210.0,0.0,0.0
2937,49.0,19.0,60.0,5.0,0.0
2938,73.0,0.0,60.0,4.0,0.0
2939,80.0,15.0,15.0,0.0,0.0
2940,80.0,0.0,15.0,2.0,0.0
2941,80.0,12.0,210.0,1.0,0.0
2942,37.0,0.0,60.0,5.0,0.0
2943,73.0,4.0,60.0,4.0,0.0
2944,82.0,0.0,15.0,2.0,0.0
2945,82.0,15.0,15.0,0.0,0.0
2946,80.0,11.0,15.0,0.0,0.0
2947,80.0,0.0,15.0,2.0,0.0
2948,82.0,0.0,15.0,2.0,0.0
2949,82.0,15.0,15.0,0.0,0.0
2950,73.0,4.0,60.0,4.0,0.0
2951,37.0,0.0,60.0,5.0,0.0
2952,80.0,0.0,15.0,0.0,0.0
2953,80.0,15.0,15.0,2.0,0.0
2954,82.0,8.0,15.0,2.0,0.0
2955,82.0,0.0,15.0,0.0,0.0
2956,80.0,11.0,15.0,2.0,0.0
2957,80.0,0.0,15.0,0.0,0.0
2958,82.0,0.0,15.0,0.0,0.0
2959,82.0,15.0,15.0,2.0,0.0
2960,80.0,0.0,15.0,0.0,0.0
2961,77.0,0.0,120.0,0.0,0.0
2962,71.0,0.0,60.0,4.0,0.0
2963,73.0,0.0,120.0,1.0,0.0
2964,37.0,4.0,60.0,5.0,0.0
2965,77.0,6.0,120.0,3.0,0.0
2966,80.0,15.0,15.0,2.0,0.0
2967,82.0,0.0,15.0,2.0,0.0
2968,82.0,15.0,15.0,0.0,0.0
2969,80.0,0.0,15.0,0.0,0.0
2970,80.0,11.0,15.0,2.0,0.0
2971,82.0,0.0,15.0,0.0,0.0
2972,82.0,29.0,15.0,2.0,0.0
2973,78.0,0.0,30.0,0.0,0.0
2974,78.0,9.0,30.0,2.0,0.0
2975,71.0,0.0,60.0,4.0,0.0
2976,37.0,3.0,60.0,5.0,0.0
2977,80.0,0.0,30.0,2.0,0.0
2978,80.0,57.0,30.0,0.0,0.0
2979,70.0,6.0,120.0,4.0,0.0
2980,78.0,0.0,120.0,0.0,0.0
2981,42.0,0.0,120.0,5.0,0.0
2982,78.0,0.0,120.0,1.0,0.0
2983,78.0,54.0,60.0,2.0,0.0
2984,70.0,0.0,120.0,1.0,0.0
2985,78.0,0.0,60.0,3.0,0.0
2986,66.0,33.0,60.0,2.0,0.0
2987,66.0,0.0,60.0,3.0,0.0
2988,65.0,0.0,30.0,2.0,0.0
2989,51.0,9.0,120.0,5.0,0.0
2990,65.0,30.0,30.0,3.0,0.0
2991,66.0,12.0,210.0,4.0,0.0
2992,66.0,30.0,30.0,2.0,0.0
2993,66.0,0.0,30.0,3.0,0.0
2994,68.0,21.0,30.0,2.0,0.0
2995,68.0,0.0,30.0,3.0,0.0
2996,70.0,57.0,30.0,2.0,0.0
2997,70.0,0.0,30.0,3.0,0.0
2998,71.0,42.0,60.0,2.0,0.0
2999,71.0,0.0,60.0,3.0,0.0
3000,47.0,6.0,120.0,5.0,0.0
3001,68.0,0.0,60.0,3.0,0.0
3002,68.0,33.0,60.0,2.0,0.0
3003,49.0,3.0,60.0,5.0,0.0
3004,67.0,27.0,30.0,3.0,0.0
3005,67.0,0.0,30.0,2.0,0.0
3006,65.0,6.0,120.0,4.0,0.0
3007,68.0,0.0,30.0,3.0,0.0
3008,68.0,30.0,30.0,2.0,0.0
3009,70.0,0.0,30.0,3.0,0.0
3010,47.0,3.0,60.0,5.0,0.0
3011,70.0,21.0,30.0,2.0,0.0
3012,71.0,0.0,30.0,2.0,0.0
3013,71.0,57.0,30.0,3.0,0.0
3014,66.0,60.0,60.0,4.0,0.0
3015,73.0,0.0,60.0,3.0,0.0
3016,78.0,18.0,330.0,0.0,0.0
3017,73.0,7.0,210.0,0.0,0.0
3018,78.0,0.0,450.0,1.0,0.0
3019,85.0,0.0,210.0,1.0,0.0
3020,46.0,0.0,60.0,5.0,0.0
3021,73.0,0.0,60.0,2.0,0.0
3022,73.0,0.0,60.0,3.0,0.0
3023,46.0,0.0,60.0,5.0,0.0
3024,73.0,0.0,60.0,2.0,0.0
3025,66.0,19.0,60.0,4.0,0.0
3026,73.0,15.0,15.0,3.0,0.0
3027,73.0,0.0,15.0,2.0,0.0
3028,46.0,0.0,60.0,5.0,0.0
3029,66.0,4.0,60.0,4.0,0.0
3030,75.0,0.0,15.0,2.0,0.0
3031,75.0,15.0,15.0,3.0,0.0
3032,73.0,0.0,15.0,2.0,0.0
3033,73.0,11.0,15.0,3.0,0.0
3034,75.0,0.0,15.0,3.0,0.0
3035,75.0,15.0,15.0,2.0,0.0
3036,73.0,15.0,15.0,3.0,0.0
3037,66.0,4.0,60.0,4.0,0.0
3038,73.0,0.0,15.0,2.0,0.0
3039,46.0,0.0,60.0,5.0,0.0
3040,75.0,0.0,15.0,3.0,0.0
3041,75.0,8.0,15.0,2.0,0.0
3042,71.0,11.0,15.0,3.0,0.0
3043,71.0,0.0,15.0,2.0,0.0
3044,73.0,0.0,15.0,2.0,0.0
3045,73.0,56.0,15.0,3.0,0.0
3046,75.0,0.0,60.0,2.0,0.0
3047,66.0,0.0,60.0,4.0,0.0
3048,47.0,42.0,60.0,5.0,0.0
3049,75.0,0.0,60.0,3.0,0.0
3050,75.0,12.0,210.0,0.0,0.0
3051,87.0,0.0,210.0,1.0,0.0
3052,71.0,0.0,60.0,3.0,0.0
3053,47.0,0.0,60.0,5.0,0.0
3054,66.0,60.0,60.0,4.0,0.0
3055,71.0,0.0,60.0,2.0,0.0
3056,48.0,42.0,60.0,5.0,0.0
3057,68.0,0.0,60.0,2.0,0.0
3058,80.0,6.0,120.0,0.0,0.0
3059,60.0,0.0,60.0,4.0,0.0
3060,68.0,0.0,60.0,3.0,0.0
3061,60.0,60.0,60.0,4.0,0.0
3062,63.0,0.0,60.0,2.0,0.0
3063,63.0,0.0,60.0,3.0,0.0
3064,48.0,0.0,60.0,5.0,0.0
3065,49.0,54.0,60.0,5.0,0.0
3066,73.0,6.0,120.0,0.0,0.0
3067,61.0,0.0,60.0,3.0,0.0
3068,82.0,0.0,210.0,0.0,0.0
3069,78.0,0.0,330.0,1.0,0.0
3070,61.0,0.0,60.0,4.0,0.0
3071,61.0,0.0,210.0,2.0,0.0
3072,82.0,18.0,210.0,1.0,0.0
3073,61.0,0.0,60.0,4.0,0.0
3074,49.0,0.0,60.0,5.0,0.0
3075,61.0,60.0,60.0,3.0,0.0
3076,61.0,0.0,60.0,4.0,0.0
3077,78.0,7.0,210.0,0.0,0.0
3078,49.0,0.0,60.0,5.0,0.0
3079,66.0,42.0,60.0,3.0,0.0
3080,49.0,0.0,60.0,5.0,0.0
3081,61.0,19.0,60.0,4.0,0.0
3082,66.0,0.0,60.0,3.0,0.0
3083,37.0,0.0,60.0,5.0,0.0
3084,66.0,4.0,60.0,3.0,0.0
3085,61.0,0.0,60.0,4.0,0.0
3086,68.0,0.0,15.0,2.0,0.0
3087,80.0,12.0,210.0,1.0,0.0
3088,80.0,15.0,15.0,0.0,0.0
3089,82.0,15.0,15.0,0.0,0.0
3090,70.0,0.0,15.0,2.0,0.0
3091,80.0,11.0,15.0,0.0,0.0
3092,68.0,0.0,15.0,2.0,0.0
3093,70.0,0.0,15.0,2.0,0.0
3094,82.0,15.0,15.0,0.0,0.0
3095,61.0,0.0,60.0,4.0,0.0
3096,66.0,0.0,60.0,3.0,0.0
3097,37.0,4.0,60.0,5.0,0.0
3098,68.0,15.0,15.0,2.0,0.0
3099,80.0,0.0,15.0,0.0,0.0
3100,82.0,0.0,15.0,0.0,0.0
3101,70.0,8.0,15.0,2.0,0.0
3102,80.0,11.0,15.0,0.0,0.0
3103,68.0,0.0,15.0,2.0,0.0
3104,70.0,15.0,15.0,2.0,0.0
3105,82.0,0.0,15.0,0.0,0.0
3106,65.0,4.0,60.0,3.0,0.0
3107,77.0,0.0,120.0,0.0,0.0
3108,37.0,0.0,60.0,5.0,0.0
3109,73.0,6.0,120.0,1.0,0.0
3110,68.0,15.0,15.0,2.0,0.0
3111,80.0,0.0,15.0,0.0,0.0
3112,61.0,0.0,60.0,4.0,0.0
3113,82.0,0.0,15.0,0.0,0.0
3114,70.0,15.0,15.0,2.0,0.0
3115,80.0,0.0,15.0,0.0,0.0
3116,68.0,11.0,15.0,2.0,0.0
3117,82.0,0.0,15.0,0.0,0.0
3118,70.0,29.0,15.0,2.0,0.0
3119,65.0,0.0,60.0,3.0,0.0
3120,78.0,0.0,30.0,0.0,0.0
3121,37.0,0.0,60.0,5.0,0.0
3122,61.0,3.0,60.0,4.0,0.0
3123,66.0,9.0,30.0,2.0,0.0
3124,68.0,0.0,30.0,2.0,0.0
3125,80.0,57.0,30.0,0.0,0.0
3126,41.0,0.0,60.0,5.0,0.0
3127,78.0,0.0,60.0,0.0,0.0
3128,66.0,0.0,60.0,4.0,0.0
3129,78.0,0.0,60.0,1.0,0.0
3130,66.0,33.0,60.0,2.0,0.0
3131,66.0,0.0,60.0,3.0,0.0
3132,42.0,0.0,30.0,5.0,0.0
3133,66.0,30.0,30.0,2.0,0.0
3134,78.0,0.0,30.0,1.0,0.0
3135,66.0,0.0,30.0,4.0,0.0
3136,66.0,0.0,30.0,0.0,0.0
3137,66.0,0.0,30.0,3.0,0.0
3138,68.0,0.0,30.0,2.0,0.0
3139,68.0,57.0,30.0,0.0,0.0
3140,68.0,0.0,30.0,3.0,0.0
3141,44.0,0.0,30.0,5.0,0.0
3142,68.0,0.0,30.0,4.0,0.0
3143,80.0,0.0,30.0,1.0,0.0
3144,82.0,0.0,60.0,1.0,0.0
3145,70.0,0.0,60.0,4.0,0.0
3146,70.0,0.0,60.0,2.0,0.0
3147,46.0,0.0,60.0,5.0,0.0
3148,70.0,60.0,60.0,0.0,0.0
3149,70.0,0.0,60.0,3.0,0.0
3150,71.0,0.0,60.0,4.0,0.0
3151,71.0,0.0,60.0,3.0,0.0
3152,83.0,0.0,60.0,1.0,0.0
3153,71.0,114.0,60.0,0.0,0.0
3154,71.0,0.0,60.0,2.0,0.0
3155,47.0,0.0,60.0,5.0,0.0
3156,73.0,0.0,120.0,0.0,0.0
3157,73.0,120.0,120.0,1.0,0.0
3158,85.0,0.0,120.0,1.0,0.0
3159,73.0,0.0,120.0,2.0,0.0
3160,49.0,0.0,120.0,5.0,0.0
3161,73.0,0.0,120.0,3.0,0.0
3162,73.0,0.0,120.0,4.0,0.0
3163,68.0,0.0,120.0,3.0,0.0
3164,61.0,0.0,120.0,3.0,0.0
3165,71.0,0.0,120.0,0.0,0.0
3166,61.0,0.0,120.0,2.0,0.0
3167,68.0,0.0,120.0,2.0,0.0
3168,61.0,66.0,120.0,4.0,0.0
3169,73.0,0.0,120.0,1.0,0.0
3170,77.0,0.0,120.0,2.0,0.0
3171,77.0,0.0,120.0,3.0,0.0
3172,61.0,0.0,120.0,1.0,0.0
3173,77.0,0.0,120.0,0.0,0.0
3174,37.0,0.0,120.0,5.0,0.0
3175,66.0,0.0,60.0,4.0,0.0
3176,61.0,33.0,60.0,3.0,0.0
3177,78.0,0.0,60.0,1.0,0.0
3178,70.0,0.0,60.0,3.0,0.0
3179,41.0,0.0,60.0,5.0,0.0
3180,78.0,0.0,60.0,3.0,0.0
3181,78.0,0.0,60.0,0.0,0.0
3182,78.0,0.0,60.0,2.0,0.0
3183,70.0,0.0,60.0,2.0,0.0
3184,61.0,0.0,60.0,2.0,0.0
3185,42.0,0.0,30.0,5.0,0.0
3186,66.0,0.0,30.0,4.0,0.0
3187,66.0,30.0,30.0,0.0,0.0
3188,66.0,0.0,30.0,3.0,0.0
3189,78.0,0.0,30.0,1.0,0.0
3190,66.0,0.0,30.0,2.0,0.0
3191,68.0,0.0,30.0,0.0,0.0
3192,68.0,0.0,30.0,3.0,0.0
3193,68.0,57.0,30.0,4.0,0.0
3194,44.0,0.0,30.0,5.0,0.0
3195,68.0,0.0,30.0,2.0,0.0
3196,80.0,0.0,30.0,1.0,0.0
3197,70.0,0.0,60.0,2.0,0.0
3198,70.0,0.0,60.0,0.0,0.0
3199,82.0,60.0,60.0,1.0,0.0
3200,46.0,0.0,60.0,5.0,0.0
3201,70.0,0.0,60.0,4.0,0.0
3202,70.0,0.0,60.0,3.0,0.0
3203,71.0,0.0,60.0,0.0,0.0
3204,71.0,0.0,60.0,4.0,0.0
3205,83.0,114.0,60.0,1.0,0.0
3206,71.0,0.0,60.0,2.0,0.0
3207,71.0,0.0,60.0,3.0,0.0
3208,47.0,0.0,60.0,5.0,0.0
3209,85.0,0.0,120.0,1.0,0.0
3210,49.0,0.0,120.0,5.0,0.0
3211,73.0,0.0,120.0,0.0,0.0
3212,73.0,0.0,120.0,1.0,0.0
3213,73.0,120.0,120.0,3.0,0.0
3214,73.0,0.0,120.0,4.0,0.0
3215,73.0,0.0,120.0,2.0,0.0
3216,61.0,0.0,120.0,1.0,0.0
3217,61.0,0.0,120.0,2.0,0.0
3218,61.0,0.0,120.0,4.0,0.0
3219,73.0,0.0,120.0,1.0,0.0
3220,77.0,0.0,120.0,0.0,0.0
3221,77.0,0.0,120.0,3.0,0.0
3222,37.0,0.0,120.0,5.0,0.0
3223,68.0,0.0,120.0,3.0,0.0
3224,61.0,120.0,120.0,3.0,0.0
3225,77.0,0.0,120.0,2.0,0.0
3226,68.0,0.0,120.0,2.0,0.0
3227,71.0,0.0,120.0,0.0,0.0
3228,78.0,0.0,120.0,0.0,0.0
3229,70.0,0.0,120.0,0.0,0.0
3230,42.0,0.0,120.0,5.0,0.0
3231,70.0,0.0,120.0,3.0,0.0
3232,78.0,120.0,120.0,1.0,0.0
3233,66.0,0.0,120.0,1.0,0.0
3234,61.0,0.0,120.0,2.0,0.0
3235,66.0,0.0,120.0,4.0,0.0
3236,78.0,0.0,120.0,2.0,0.0
3237,78.0,0.0,120.0,3.0,0.0
3238,61.0,0.0,120.0,3.0,0.0
3239,70.0,0.0,120.0,2.0,0.0
3240,61.0,0.0,120.0,2.0,0.0
3241,78.0,0.0,120.0,2.0,0.0
3242,70.0,0.0,120.0,0.0,0.0
3243,82.0,0.0,120.0,1.0,0.0
3244,66.0,0.0,120.0,1.0,0.0
3245,42.0,0.0,120.0,5.0,0.0
3246,78.0,0.0,120.0,3.0,0.0
3247,70.0,0.0,120.0,3.0,0.0
3248,61.0,120.0,120.0,3.0,0.0
3249,78.0,0.0,120.0,0.0,0.0
3250,70.0,0.0,120.0,2.0,0.0
3251,66.0,0.0,120.0,4.0,0.0
3252,70.0,0.0,120.0,3.0,0.0
3253,78.0,0.0,120.0,3.0,0.0
3254,66.0,0.0,120.0,4.0,0.0
3255,82.0,0.0,120.0,1.0,0.0
3256,61.0,0.0,120.0,3.0,0.0
3257,66.0,0.0,120.0,1.0,0.0
3258,42.0,0.0,120.0,5.0,0.0
3259,78.0,0.0,120.0,0.0,0.0
3260,70.0,0.0,120.0,2.0,0.0
3261,61.0,0.0,120.0,2.0,0.0
3262,70.0,0.0,120.0,0.0,0.0
3263,78.0,333.0,120.0,2.0,0.0
3264,66.0,36.0,210.0,4.0,0.0
3265,66.0,0.0,210.0,2.0,0.0
3266,78.0,0.0,210.0,1.0,0.0
3267,42.0,0.0,210.0,5.0,0.0
3268,78.0,0.0,210.0,0.0,0.0
3269,66.0,0.0,210.0,3.0,0.0
3270,61.0,0.0,30.0,4.0,0.0
3271,73.0,0.0,30.0,1.0,0.0
3272,73.0,111.0,30.0,0.0,0.0
3273,61.0,0.0,30.0,2.0,0.0
3274,61.0,0.0,30.0,3.0,0.0
3275,37.0,0.0,30.0,5.0,0.0
3276,66.0,0.0,120.0,2.0,0.0
3277,66.0,0.0,120.0,3.0,0.0
3278,66.0,0.0,120.0,4.0,0.0
3279,42.0,0.0,120.0,5.0,0.0
3280,78.0,0.0,120.0,0.0,0.0
3281,78.0,93.0,120.0,1.0,0.0
3282,70.0,0.0,90.0,2.0,0.0
3283,70.0,0.0,90.0,4.0,0.0
3284,82.0,0.0,90.0,0.0,0.0
3285,70.0,0.0,90.0,3.0,0.0
3286,46.0,36.0,90.0,5.0,0.0
3287,61.0,0.0,30.0,4.0,0.0
3288,61.0,204.0,30.0,2.0,0.0
3289,73.0,0.0,30.0,1.0,0.0
3290,73.0,0.0,30.0,0.0,0.0
3291,61.0,0.0,30.0,3.0,0.0
3292,37.0,0.0,30.0,5.0,0.0
3293,78.0,36.0,210.0,0.0,0.0
3294,66.0,0.0,210.0,3.0,0.0
3295,78.0,0.0,210.0,1.0,0.0
3296,66.0,0.0,210.0,2.0,0.0
3297,66.0,0.0,210.0,4.0,0.0
3298,42.0,0.0,210.0,5.0,0.0
3299,73.0,0.0,30.0,0.0,0.0
3300,61.0,111.0,30.0,3.0,0.0
3301,37.0,0.0,30.0,5.0,0.0
3302,61.0,0.0,30.0,4.0,0.0
3303,61.0,0.0,30.0,2.0,0.0
3304,73.0,0.0,30.0,1.0,0.0
3305,66.0,0.0,120.0,4.0,0.0
3306,42.0,0.0,120.0,5.0,0.0
3307,66.0,0.0,120.0,3.0,0.0
3308,78.0,0.0,120.0,0.0,0.0
3309,66.0,0.0,120.0,2.0,0.0
3310,78.0,93.0,120.0,1.0,0.0
3311,82.0,0.0,90.0,0.0,0.0
3312,70.0,0.0,90.0,3.0,0.0
3313,46.0,0.0,90.0,5.0,0.0
3314,70.0,36.0,90.0,4.0,0.0
3315,70.0,0.0,90.0,2.0,0.0
3316,61.0,0.0,30.0,4.0,0.0
3317,73.0,0.0,30.0,1.0,0.0
3318,37.0,0.0,30.0,5.0,0.0
3319,73.0,57.0,30.0,0.0,0.0
3320,61.0,0.0,30.0,3.0,0.0
3321,61.0,0.0,30.0,2.0,0.0
3322,66.0,54.0,60.0,2.0,0.0
3323,78.0,0.0,120.0,1.0,0.0
3324,66.0,0.0,60.0,3.0,0.0
3325,78.0,6.0,120.0,0.0,0.0
3326,42.0,0.0,60.0,5.0,0.0
3327,66.0,0.0,60.0,4.0,0.0
3328,66.0,0.0,60.0,4.0,0.0
3329,42.0,60.0,60.0,5.0,0.0
3330,87.0,0.0,60.0,2.0,0.0
3331,83.0,0.0,60.0,3.0,0.0
3332,66.0,60.0,60.0,4.0,0.0
3333,42.0,0.0,60.0,5.0,0.0
3334,42.0,0.0,60.0,5.0,0.0
3335,66.0,60.0,60.0,4.0,0.0
3336,82.0,0.0,60.0,3.0,0.0
3337,66.0,0.0,60.0,4.0,0.0
3338,42.0,0.0,60.0,5.0,0.0
3339,85.0,60.0,60.0,2.0,0.0
3340,66.0,0.0,60.0,4.0,0.0
3341,42.0,60.0,60.0,5.0,0.0
3342,66.0,0.0,60.0,4.0,0.0
3343,42.0,0.0,60.0,5.0,0.0
3344,80.0,0.0,60.0,3.0,0.0
3345,83.0,60.0,60.0,2.0,0.0
3346,66.0,0.0,60.0,4.0,0.0
3347,42.0,60.0,60.0,5.0,0.0
3348,78.0,0.0,60.0,3.0,0.0
3349,66.0,0.0,60.0,4.0,0.0
3350,82.0,0.0,60.0,2.0,0.0
3351,42.0,60.0,60.0,5.0,0.0
3352,42.0,60.0,60.0,5.0,0.0
3353,66.0,0.0,60.0,4.0,0.0
3354,66.0,0.0,60.0,4.0,0.0
3355,42.0,0.0,60.0,5.0,0.0
3356,80.0,60.0,60.0,3.0,0.0
3357,83.0,0.0,60.0,2.0,0.0
3358,66.0,60.0,60.0,4.0,0.0
3359,42.0,0.0,60.0,5.0,0.0
3360,42.0,60.0,60.0,5.0,0.0
3361,78.0,0.0,60.0,3.0,0.0
3362,66.0,0.0,60.0,4.0,0.0
3363,82.0,0.0,60.0,2.0,0.0
3364,66.0,60.0,60.0,4.0,0.0
3365,42.0,0.0,60.0,5.0,0.0
3366,80.0,60.0,60.0,2.0,0.0
3367,66.0,0.0,60.0,4.0,0.0
3368,77.0,0.0,60.0,3.0,0.0
3369,42.0,0.0,60.0,5.0,0.0
3370,42.0,114.0,60.0,5.0,0.0
3371,66.0,0.0,60.0,4.0,0.0
3372,66.0,0.0,210.0,4.0,0.0
3373,78.0,0.0,210.0,1.0,0.0
3374,66.0,0.0,120.0,2.0,0.0
3375,78.0,0.0,120.0,3.0,0.0
3376,78.0,36.0,210.0,0.0,0.0
3377,78.0,0.0,120.0,2.0,0.0
3378,42.0,0.0,210.0,5.0,0.0
3379,66.0,93.0,120.0,3.0,0.0
3380,70.0,0.0,90.0,3.0,0.0
3381,70.0,0.0,90.0,2.0,0.0
3382,61.0,0.0,30.0,3.0,0.0
3383,73.0,111.0,30.0,0.0,0.0
3384,61.0,0.0,30.0,4.0,0.0
3385,61.0,0.0,30.0,2.0,0.0
3386,37.0,0.0,30.0,5.0,0.0
3387,73.0,0.0,30.0,1.0,0.0
3388,66.0,0.0,120.0,4.0,0.0
3389,78.0,93.0,120.0,1.0,0.0
3390,66.0,0.0,210.0,3.0,0.0
3391,66.0,0.0,210.0,2.0,0.0
3392,42.0,0.0,120.0,5.0,0.0
3393,78.0,0.0,120.0,0.0,0.0
3394,46.0,36.0,90.0,5.0,0.0
3395,70.0,0.0,90.0,4.0,0.0
3396,82.0,0.0,90.0,0.0,0.0
3397,73.0,0.0,30.0,1.0,0.0
3398,61.0,0.0,30.0,4.0,0.0
3399,61.0,0.0,30.0,3.0,0.0
3400,61.0,204.0,30.0,2.0,0.0
3401,73.0,0.0,30.0,0.0,0.0
3402,37.0,0.0,30.0,5.0,0.0
3403,66.0,0.0,210.0,3.0,0.0
3404,66.0,0.0,210.0,2.0,0.0
3405,78.0,0.0,210.0,0.0,0.0
3406,78.0,0.0,210.0,1.0,0.0
3407,66.0,0.0,210.0,4.0,0.0
3408,42.0,36.0,210.0,5.0,0.0
3409,73.0,0.0,30.0,0.0,0.0
3410,61.0,0.0,30.0,2.0,0.0
3411,61.0,111.0,30.0,4.0,0.0
3412,37.0,0.0,30.0,5.0,0.0
3413,61.0,0.0,30.0,3.0,0.0
3414,73.0,0.0,30.0,1.0,0.0
3415,42.0,0.0,120.0,5.0,0.0
3416,78.0,93.0,120.0,0.0,0.0
3417,66.0,0.0,120.0,4.0,0.0
3418,66.0,0.0,120.0,3.0,0.0
3419,78.0,0.0,120.0,1.0,0.0
3420,66.0,0.0,120.0,2.0,0.0
3421,82.0,0.0,90.0,0.0,0.0
3422,46.0,0.0,90.0,5.0,0.0
3423,66.0,0.0,90.0,3.0,0.0
3424,70.0,36.0,90.0,4.0,0.0
3425,66.0,0.0,90.0,2.0,0.0
3426,61.0,0.0,30.0,4.0,0.0
3427,61.0,0.0,30.0,2.0,0.0
3428,61.0,57.0,30.0,3.0,0.0
3429,73.0,0.0,30.0,1.0,0.0
3430,37.0,0.0,30.0,5.0,0.0
3431,73.0,0.0,30.0,0.0,0.0
3432,66.0,0.0,60.0,3.0,0.0
3433,42.0,54.0,60.0,5.0,0.0
3434,66.0,0.0,60.0,2.0,0.0
3435,66.0,0.0,60.0,4.0,0.0
3436,78.0,0.0,60.0,1.0,0.0
3437,78.0,6.0,120.0,0.0,0.0
3438,66.0,0.0,60.0,4.0,0.0
3439,42.0,60.0,60.0,5.0,0.0
3440,42.0,0.0,60.0,5.0,0.0
3441,83.0,0.0,60.0,1.0,0.0
3442,66.0,60.0,60.0,4.0,0.0
3443,87.0,0.0,60.0,2.0,0.0
3444,83.0,0.0,60.0,3.0,0.0
3445,87.0,0.0,60.0,1.0,0.0
3446,42.0,60.0,60.0,5.0,0.0
3447,66.0,0.0,60.0,4.0,0.0
3448,85.0,0.0,60.0,2.0,0.0
3449,82.0,0.0,60.0,1.0,0.0
3450,85.0,0.0,60.0,1.0,0.0
3451,66.0,0.0,60.0,4.0,0.0
3452,82.0,60.0,60.0,3.0,0.0
3453,42.0,0.0,60.0,5.0,0.0
3454,42.0,0.0,60.0,5.0,0.0
3455,66.0,60.0,60.0,4.0,0.0
3456,42.0,0.0,60.0,5.0,0.0
3457,83.0,0.0,60.0,1.0,0.0
3458,66.0,0.0,60.0,4.0,0.0
3459,80.0,60.0,60.0,1.0,0.0
3460,83.0,0.0,60.0,2.0,0.0
3461,80.0,0.0,60.0,3.0,0.0
3462,42.0,60.0,60.0,5.0,0.0
3463,66.0,0.0,60.0,4.0,0.0
3464,66.0,60.0,60.0,4.0,0.0
3465,78.0,0.0,60.0,1.0,0.0
3466,82.0,0.0,60.0,1.0,0.0
3467,42.0,0.0,60.0,5.0,0.0
3468,78.0,0.0,60.0,3.0,0.0
3469,82.0,0.0,60.0,2.0,0.0
3470,42.0,60.0,60.0,5.0,0.0
3471,66.0,0.0,60.0,4.0,0.0
3472,83.0,0.0,60.0,2.0,0.0
3473,80.0,0.0,60.0,3.0,0.0
3474,83.0,60.0,60.0,1.0,0.0
3475,80.0,0.0,60.0,1.0,0.0
3476,66.0,0.0,60.0,4.0,0.0
3477,42.0,0.0,60.0,5.0,0.0
3478,42.0,60.0,60.0,5.0,0.0
3479,66.0,0.0,60.0,4.0,0.0
3480,66.0,0.0,60.0,4.0,0.0
3481,78.0,0.0,60.0,1.0,0.0
3482,78.0,0.0,60.0,3.0,0.0
3483,82.0,0.0,60.0,1.0,0.0
3484,42.0,0.0,60.0,5.0,0.0
3485,82.0,60.0,60.0,2.0,0.0
3486,66.0,60.0,60.0,4.0,0.0
3487,42.0,0.0,60.0,5.0,0.0
3488,80.0,0.0,60.0,2.0,0.0
3489,42.0,0.0,60.0,5.0,0.0
3490,73.0,0.0,60.0,1.0,0.0
3491,80.0,60.0,60.0,1.0,0.0
3492,66.0,0.0,60.0,4.0,0.0
3493,77.0,0.0,60.0,3.0,0.0
3494,66.0,33.0,60.0,4.0,0.0
3495,42.0,0.0,60.0,5.0,0.0
3496,78.0,0.0,30.0,3.0,0.0
3497,42.0,9.0,120.0,5.0,0.0
3498,70.0,0.0,120.0,1.0,0.0
3499,78.0,0.0,120.0,1.0,0.0
3500,78.0,30.0,30.0,2.0,0.0
3501,66.0,0.0,120.0,4.0,0.0
3502,73.0,18.0,930.0,0.0,0.0
3503,82.0,0.0,930.0,0.0,0.0
3504,82.0,30.0,30.0,3.0,0.0
3505,85.0,0.0,30.0,2.0,0.0
3506,85.0,21.0,30.0,2.0,0.0
3507,82.0,0.0,30.0,3.0,0.0
3508,85.0,0.0,30.0,2.0,0.0
3509,82.0,27.0,30.0,3.0,0.0
3510,46.0,0.0,90.0,5.0,0.0
3511,85.0,0.0,20.0,2.0,0.0
3512,82.0,30.0,20.0,3.0,0.0
3513,70.0,3.0,90.0,4.0,0.0
3514,85.0,0.0,20.0,2.0,0.0
3515,82.0,27.0,20.0,3.0,0.0
3516,82.0,30.0,20.0,3.0,0.0
3517,85.0,0.0,20.0,2.0,0.0
3518,73.0,0.0,30.0,4.0,0.0
3519,85.0,3.0,20.0,2.0,0.0
3520,82.0,0.0,20.0,3.0,0.0
3521,49.0,27.0,30.0,5.0,0.0
3522,85.0,0.0,690.0,1.0,0.0
3523,82.0,0.0,690.0,1.0,0.0
3524,82.0,30.0,20.0,3.0,0.0
3525,85.0,0.0,20.0,2.0,0.0
3526,78.0,6.0,120.0,4.0,0.0
3527,54.0,0.0,120.0,5.0,0.0
3528,85.0,30.0,20.0,2.0,0.0
3529,82.0,0.0,20.0,3.0,0.0
3530,82.0,24.0,20.0,3.0,0.0
3531,85.0,0.0,20.0,2.0,0.0
3532,82.0,30.0,20.0,3.0,0.0
3533,85.0,0.0,20.0,2.0,0.0
3534,82.0,0.0,20.0,3.0,0.0
3535,49.0,0.0,90.0,5.0,0.0
3536,85.0,30.0,20.0,2.0,0.0
3537,73.0,3.0,90.0,4.0,0.0
3538,82.0,0.0,20.0,3.0,0.0
3539,85.0,27.0,20.0,2.0,0.0
3540,85.0,0.0,20.0,2.0,0.0
3541,82.0,30.0,20.0,3.0,0.0
3542,70.0,0.0,30.0,4.0,0.0
3543,85.0,0.0,20.0,2.0,0.0
3544,46.0,27.0,30.0,5.0,0.0
3545,82.0,3.0,20.0,3.0,0.0
3546,66.0,0.0,60.0,4.0,0.0
3547,82.0,0.0,20.0,3.0,0.0
3548,42.0,0.0,60.0,5.0,0.0
3549,85.0,30.0,20.0,2.0,0.0
3550,82.0,30.0,20.0,3.0,0.0
3551,85.0,0.0,20.0,2.0,0.0
3552,82.0,0.0,20.0,3.0,0.0
3553,85.0,3.0,20.0,2.0,0.0
3554,68.0,0.0,30.0,4.0,0.0
3555,44.0,27.0,30.0,5.0,0.0
3556,85.0,0.0,20.0,2.0,0.0
3557,70.0,0.0,30.0,4.0,0.0
3558,46.0,27.0,30.0,5.0,0.0
3559,82.0,3.0,20.0,3.0,0.0
3560,85.0,3.0,20.0,2.0,0.0
3561,71.0,27.0,30.0,4.0,0.0
3562,82.0,0.0,20.0,3.0,0.0
3563,47.0,0.0,30.0,5.0,0.0
3564,82.0,0.0,20.0,3.0,0.0
3565,85.0,3.0,20.0,2.0,0.0
3566,49.0,27.0,30.0,5.0,0.0
3567,73.0,0.0,30.0,4.0,0.0
3568,75.0,27.0,30.0,4.0,0.0
3569,85.0,0.0,20.0,2.0,0.0
3570,82.0,3.0,20.0,3.0,0.0
3571,51.0,0.0,30.0,5.0,0.0
3572,77.0,0.0,30.0,4.0,0.0
3573,82.0,0.0,20.0,3.0,0.0
3574,53.0,27.0,30.0,5.0,0.0
3575,85.0,3.0,20.0,2.0,0.0
3576,54.0,0.0,60.0,5.0,0.0
3577,85.0,30.0,20.0,2.0,0.0
3578,82.0,0.0,20.0,3.0,0.0
3579,78.0,0.0,60.0,4.0,0.0
3580,82.0,30.0,20.0,3.0,0.0
3581,85.0,0.0,20.0,2.0,0.0
3582,82.0,30.0,20.0,3.0,0.0
3583,49.0,0.0,60.0,5.0,0.0
3584,73.0,0.0,60.0,4.0,0.0
3585,85.0,0.0,20.0,2.0,0.0
3586,82.0,30.0,20.0,3.0,0.0
3587,85.0,0.0,20.0,2.0,0.0
3588,70.0,0.0,60.0,4.0,0.0
3589,82.0,30.0,20.0,3.0,0.0
3590,46.0,0.0,60.0,5.0,0.0
3591,85.0,0.0,20.0,2.0,0.0
3592,85.0,0.0,20.0,2.0,0.0
3593,82.0,30.0,20.0,3.0,0.0
3594,85.0,0.0,20.0,2.0,0.0
3595,66.0,0.0,60.0,4.0,0.0
3596,42.0,0.0,60.0,5.0,0.0
3597,82.0,12.0,20.0,3.0,0.0
3598,82.0,0.0,20.0,3.0,0.0
3599,85.0,30.0,20.0,2.0,0.0
3600,35.0,6.0,120.0,5.0,0.0
3601,87.0,18.0,930.0,1.0,0.0
3602,59.0,0.0,120.0,4.0,0.0
3603,83.0,0.0,930.0,0.0,0.0
3604,71.0,0.0,930.0,0.0,0.0
3605,83.0,0.0,930.0,1.0,0.0
3606,83.0,30.0,20.0,3.0,0.0
3607,87.0,0.0,20.0,2.0,0.0
3608,87.0,0.0,20.0,2.0,0.0
3609,83.0,30.0,20.0,3.0,0.0
3610,83.0,24.0,20.0,3.0,0.0
3611,87.0,0.0,20.0,2.0,0.0
3612,87.0,0.0,20.0,2.0,0.0
3613,83.0,30.0,20.0,3.0,0.0
3614,87.0,30.0,20.0,2.0,0.0
3615,39.0,3.0,90.0,5.0,0.0
3616,63.0,0.0,90.0,4.0,0.0
3617,83.0,0.0,20.0,3.0,0.0
3618,87.0,27.0,20.0,2.0,0.0
3619,83.0,0.0,20.0,3.0,0.0
3620,83.0,30.0,20.0,3.0,0.0
3621,87.0,0.0,20.0,2.0,0.0
3622,42.0,0.0,30.0,5.0,0.0
3623,66.0,27.0,30.0,4.0,0.0
3624,83.0,3.0,20.0,3.0,0.0
3625,87.0,0.0,20.0,2.0,0.0
3626,83.0,30.0,20.0,3.0,0.0
3627,47.0,0.0,120.0,5.0,0.0
3628,71.0,6.0,120.0,4.0,0.0
3629,87.0,0.0,20.0,2.0,0.0
3630,87.0,0.0,20.0,2.0,0.0
3631,83.0,30.0,20.0,3.0,0.0
3632,87.0,0.0,20.0,2.0,0.0
3633,83.0,24.0,20.0,3.0,0.0
3634,87.0,30.0,20.0,2.0,0.0
3635,83.0,0.0,20.0,3.0,0.0
3636,42.0,0.0,90.0,5.0,0.0
3637,83.0,0.0,20.0,3.0,0.0
3638,66.0,3.0,90.0,4.0,0.0
3639,87.0,30.0,20.0,2.0,0.0
3640,83.0,0.0,20.0,3.0,0.0
3641,87.0,27.0,20.0,2.0,0.0
3642,83.0,0.0,20.0,3.0,0.0
3643,87.0,30.0,20.0,2.0,0.0
3644,83.0,3.0,20.0,3.0,0.0
3645,87.0,0.0,20.0,2.0,0.0
3646,39.0,0.0,30.0,5.0,0.0
3647,63.0,27.0,30.0,4.0,0.0
3648,87.0,0.0,20.0,2.0,0.0
3649,59.0,0.0,60.0,4.0,0.0
3650,83.0,30.0,20.0,3.0,0.0
3651,35.0,0.0,60.0,5.0,0.0
3652,83.0,0.0,20.0,3.0,0.0
3653,87.0,30.0,20.0,2.0,0.0
3654,61.0,27.0,30.0,4.0,0.0
3655,87.0,0.0,20.0,2.0,0.0
3656,37.0,0.0,30.0,5.0,0.0
3657,83.0,3.0,20.0,3.0,0.0
3658,39.0,27.0,30.0,5.0,0.0
3659,63.0,0.0,30.0,4.0,0.0
3660,83.0,3.0,20.0,3.0,0.0
3661,87.0,0.0,20.0,2.0,0.0
3662,87.0,0.0,20.0,2.0,0.0
3663,83.0,3.0,20.0,3.0,0.0
3664,40.0,27.0,30.0,5.0,0.0
3665,64.0,0.0,30.0,4.0,0.0
3666,83.0,0.0,20.0,3.0,0.0
3667,66.0,0.0,30.0,4.0,0.0
3668,87.0,3.0,20.0,2.0,0.0
3669,42.0,27.0,30.0,5.0,0.0
3670,83.0,3.0,20.0,3.0,0.0
3671,87.0,0.0,20.0,2.0,0.0
3672,44.0,0.0,30.0,5.0,0.0
3673,68.0,27.0,30.0,4.0,0.0
3674,46.0,27.0,30.0,5.0,0.0
3675,87.0,3.0,20.0,2.0,0.0
3676,70.0,0.0,30.0,4.0,0.0
3677,83.0,0.0,20.0,3.0,0.0
3678,71.0,0.0,60.0,4.0,0.0
3679,47.0,0.0,60.0,5.0,0.0
3680,87.0,0.0,20.0,2.0,0.0
3681,83.0,30.0,20.0,3.0,0.0
3682,87.0,30.0,20.0,2.0,0.0
3683,83.0,0.0,20.0,3.0,0.0
3684,83.0,30.0,20.0,3.0,0.0
3685,78.0,0.0,60.0,4.0,0.0
3686,54.0,0.0,60.0,5.0,0.0
3687,87.0,0.0,20.0,2.0,0.0
3688,87.0,0.0,20.0,2.0,0.0
3689,83.0,30.0,20.0,3.0,0.0
3690,83.0,0.0,20.0,3.0,0.0
3691,87.0,30.0,20.0,2.0,0.0
3692,51.0,0.0,60.0,5.0,0.0
3693,75.0,30.0,60.0,4.0,0.0
3694,83.0,0.0,20.0,3.0,0.0
3695,87.0,0.0,20.0,2.0,0.0
3696,83.0,12.0,20.0,3.0,0.0
3697,87.0,0.0,20.0,2.0,0.0
3698,47.0,0.0,60.0,5.0,0.0
3699,71.0,0.0,60.0,4.0,0.0
3700,87.0,0.0,20.0,2.0,0.0
3701,83.0,30.0,20.0,3.0,0.0
3702,82.0,30.0,20.0,3.0,0.0
3703,82.0,0.0,930.0,1.0,0.0
3704,85.0,0.0,930.0,1.0,0.0
3705,85.0,0.0,20.0,2.0,0.0
3706,66.0,6.0,120.0,4.0,0.0
3707,82.0,0.0,930.0,0.0,0.0
3708,73.0,18.0,930.0,0.0,0.0
3709,42.0,0.0,120.0,5.0,0.0
3710,85.0,30.0,20.0,2.0,0.0
3711,82.0,0.0,20.0,3.0,0.0
3712,82.0,0.0,20.0,3.0,0.0
3713,85.0,24.0,20.0,2.0,0.0
3714,82.0,30.0,20.0,3.0,0.0
3715,85.0,0.0,20.0,2.0,0.0
3716,46.0,0.0,90.0,5.0,0.0
3717,85.0,0.0,20.0,2.0,0.0
3718,82.0,30.0,20.0,3.0,0.0
3719,70.0,3.0,90.0,4.0,0.0
3720,82.0,27.0,20.0,3.0,0.0
3721,85.0,0.0,20.0,2.0,0.0
3722,82.0,30.0,20.0,3.0,0.0
3723,85.0,0.0,20.0,2.0,0.0
3724,85.0,0.0,20.0,2.0,0.0
3725,49.0,0.0,30.0,5.0,0.0
3726,82.0,3.0,20.0,3.0,0.0
3727,73.0,27.0,30.0,4.0,0.0
3728,54.0,6.0,120.0,5.0,0.0
3729,78.0,0.0,120.0,4.0,0.0
3730,85.0,30.0,20.0,2.0,0.0
3731,82.0,0.0,20.0,3.0,0.0
3732,82.0,0.0,20.0,3.0,0.0
3733,85.0,30.0,20.0,2.0,0.0
3734,82.0,0.0,20.0,3.0,0.0
3735,85.0,24.0,20.0,2.0,0.0
3736,82.0,0.0,20.0,3.0,0.0
3737,85.0,30.0,20.0,2.0,0.0
3738,82.0,30.0,20.0,3.0,0.0
3739,49.0,3.0,90.0,5.0,0.0
3740,85.0,0.0,20.0,2.0,0.0
3741,73.0,0.0,90.0,4.0,0.0
3742,82.0,27.0,20.0,3.0,0.0
3743,85.0,0.0,20.0,2.0,0.0
3744,85.0,30.0,20.0,2.0,0.0
3745,82.0,0.0,20.0,3.0,0.0
3746,82.0,3.0,20.0,3.0,0.0
3747,46.0,27.0,30.0,5.0,0.0
3748,85.0,0.0,20.0,2.0,0.0
3749,70.0,0.0,30.0,4.0,0.0
3750,82.0,0.0,20.0,3.0,0.0
3751,85.0,30.0,20.0,2.0,0.0
3752,66.0,0.0,60.0,4.0,0.0
3753,42.0,0.0,60.0,5.0,0.0
3754,85.0,0.0,20.0,2.0,0.0
3755,82.0,30.0,20.0,3.0,0.0
3756,44.0,0.0,30.0,5.0,0.0
3757,82.0,3.0,20.0,3.0,0.0
3758,68.0,27.0,30.0,4.0,0.0
3759,85.0,0.0,20.0,2.0,0.0
3760,82.0,3.0,20.0,3.0,0.0
3761,85.0,0.0,20.0,2.0,0.0
3762,46.0,0.0,30.0,5.0,0.0
3763,70.0,27.0,30.0,4.0,0.0
3764,47.0,27.0,30.0,5.0,0.0
3765,85.0,3.0,20.0,2.0,0.0
3766,71.0,0.0,30.0,4.0,0.0
3767,82.0,0.0,20.0,3.0,0.0
3768,82.0,3.0,20.0,3.0,0.0
3769,73.0,0.0,30.0,4.0,0.0
3770,49.0,27.0,30.0,5.0,0.0
3771,85.0,0.0,20.0,2.0,0.0
3772,51.0,27.0,30.0,5.0,0.0
3773,75.0,0.0,30.0,4.0,0.0
3774,82.0,0.0,20.0,3.0,0.0
3775,85.0,3.0,20.0,2.0,0.0
3776,77.0,27.0,30.0,4.0,0.0
3777,85.0,3.0,20.0,2.0,0.0
3778,82.0,0.0,20.0,3.0,0.0
3779,53.0,0.0,30.0,5.0,0.0
3780,82.0,0.0,20.0,3.0,0.0
3781,78.0,0.0,60.0,4.0,0.0
3782,85.0,30.0,20.0,2.0,0.0
3783,54.0,0.0,60.0,5.0,0.0
3784,85.0,0.0,20.0,2.0,0.0
3785,82.0,30.0,20.0,3.0,0.0
3786,85.0,0.0,20.0,2.0,0.0
3787,49.0,0.0,60.0,5.0,0.0
3788,82.0,30.0,20.0,3.0,0.0
3789,73.0,30.0,60.0,4.0,0.0
3790,85.0,0.0,20.0,2.0,0.0
3791,82.0,0.0,20.0,3.0,0.0
3792,70.0,0.0,60.0,4.0,0.0
3793,85.0,0.0,20.0,2.0,0.0
3794,46.0,30.0,60.0,5.0,0.0
3795,82.0,30.0,20.0,3.0,0.0
3796,85.0,0.0,20.0,2.0,0.0
3797,82.0,0.0,20.0,3.0,0.0
3798,85.0,0.0,20.0,2.0,0.0
3799,42.0,0.0,60.0,5.0,0.0
3800,82.0,12.0,20.0,3.0,0.0
3801,66.0,0.0,60.0,4.0,0.0
3802,85.0,0.0,20.0,2.0,0.0
3803,82.0,33.0,20.0,3.0,0.0
3804,71.0,3.0,60.0,4.0,0.0
3805,75.0,15.0,150.0,0.0,0.0
3806,80.0,0.0,60.0,3.0,0.0
3807,87.0,27.0,30.0,2.0,0.0
3808,47.0,6.0,120.0,5.0,0.0
3809,80.0,0.0,60.0,0.0,0.0
3810,85.0,30.0,30.0,2.0,0.0
3811,83.0,0.0,30.0,2.0,0.0
3812,83.0,0.0,30.0,0.0,0.0
3813,83.0,21.0,30.0,3.0,0.0
3814,59.0,3.0,60.0,4.0,0.0
3815,82.0,30.0,30.0,0.0,0.0
3816,82.0,0.0,30.0,2.0,0.0
3817,82.0,0.0,30.0,3.0,0.0
3818,80.0,15.0,30.0,2.0,0.0
3819,80.0,0.0,30.0,3.0,0.0
3820,80.0,9.0,120.0,0.0,0.0
3821,71.0,0.0,120.0,4.0,0.0
3822,79.0,0.0,30.0,3.0,0.0
3823,79.0,30.0,30.0,2.0,0.0
3824,80.0,21.0,30.0,2.0,0.0
3825,80.0,0.0,30.0,3.0,0.0
3826,79.0,0.0,30.0,2.0,0.0
3827,79.0,90.0,30.0,3.0,0.0
3828,80.0,9.0,120.0,2.0,0.0
3829,80.0,0.0,120.0,3.0,0.0
3830,71.0,0.0,30.0,4.0,0.0
3831,47.0,21.0,30.0,5.0,0.0
3832,73.0,0.0,30.0,4.0,0.0
3833,49.0,57.0,30.0,5.0,0.0
3834,51.0,60.0,60.0,5.0,0.0
3835,75.0,0.0,60.0,4.0,0.0
3836,49.0,0.0,60.0,5.0,0.0
3837,73.0,33.0,60.0,4.0,0.0
3838,87.0,27.0,30.0,3.0,0.0
3839,75.0,15.0,150.0,0.0,0.0
3840,80.0,3.0,60.0,0.0,0.0
3841,87.0,0.0,30.0,2.0,0.0
3842,71.0,0.0,60.0,4.0,0.0
3843,47.0,6.0,120.0,5.0,0.0
3844,85.0,0.0,30.0,3.0,0.0
3845,85.0,30.0,30.0,2.0,0.0
3846,83.0,0.0,30.0,3.0,0.0
3847,83.0,21.0,30.0,0.0,0.0
3848,59.0,3.0,60.0,4.0,0.0
3849,83.0,0.0,30.0,2.0,0.0
3850,82.0,30.0,30.0,3.0,0.0
3851,82.0,0.0,30.0,2.0,0.0
3852,82.0,0.0,30.0,0.0,0.0
3853,80.0,9.0,120.0,0.0,0.0
3854,80.0,0.0,30.0,3.0,0.0
3855,71.0,0.0,120.0,4.0,0.0
3856,80.0,15.0,30.0,2.0,0.0
3857,79.0,0.0,30.0,3.0,0.0
3858,79.0,30.0,30.0,2.0,0.0
3859,80.0,0.0,30.0,3.0,0.0
3860,80.0,21.0,30.0,2.0,0.0
3861,79.0,0.0,30.0,2.0,0.0
3862,79.0,90.0,30.0,3.0,0.0
3863,80.0,9.0,120.0,2.0,0.0
3864,80.0,0.0,120.0,3.0,0.0
3865,47.0,21.0,30.0,5.0,0.0
3866,71.0,0.0,30.0,4.0,0.0
3867,73.0,57.0,30.0,4.0,0.0
3868,49.0,0.0,30.0,5.0,0.0
3869,51.0,0.0,60.0,5.0,0.0
3870,75.0,60.0,60.0,4.0,0.0
3871,51.0,0.0,60.0,5.0,0.0
3872,73.0,33.0,60.0,4.0,0.0
3873,80.0,6.0,120.0,0.0,0.0
3874,75.0,0.0,120.0,0.0,0.0
3875,71.0,0.0,60.0,4.0,0.0
3876,87.0,0.0,30.0,3.0,0.0
3877,87.0,27.0,30.0,2.0,0.0
3878,47.0,3.0,60.0,5.0,0.0
3879,85.0,0.0,30.0,2.0,0.0
3880,85.0,30.0,30.0,3.0,0.0
3881,83.0,21.0,30.0,2.0,0.0
3882,47.0,3.0,60.0,5.0,0.0
3883,83.0,0.0,30.0,3.0,0.0
3884,75.0,0.0,60.0,4.0,0.0
3885,82.0,0.0,30.0,2.0,0.0
3886,82.0,57.0,30.0,3.0,0.0
3887,47.0,0.0,60.0,5.0,0.0
3888,75.0,60.0,60.0,4.0,0.0
3889,80.0,0.0,150.0,2.0,0.0
3890,80.0,12.0,150.0,3.0,0.0
3891,75.0,18.0,210.0,0.0,0.0
3892,80.0,0.0,150.0,0.0,0.0
3893,47.0,0.0,60.0,5.0,0.0
3894,75.0,48.0,60.0,4.0,0.0
3895,75.0,42.0,60.0,4.0,0.0
3896,48.0,0.0,60.0,5.0,0.0
3897,82.0,0.0,60.0,2.0,0.0
3898,48.0,0.0,60.0,5.0,0.0
3899,75.0,0.0,60.0,4.0,0.0
3900,82.0,0.0,60.0,0.0,0.0
3901,82.0,60.0,60.0,3.0,0.0
3902,80.0,0.0,60.0,3.0,0.0
3903,80.0,0.0,60.0,2.0,0.0
3904,80.0,0.0,60.0,0.0,0.0
3905,48.0,0.0,60.0,5.0,0.0
3906,75.0,54.0,60.0,4.0,0.0
3907,75.0,6.0,120.0,0.0,0.0
3908,75.0,0.0,60.0,4.0,0.0
3909,78.0,60.0,60.0,3.0,0.0
3910,78.0,0.0,60.0,2.0,0.0
3911,48.0,0.0,60.0,5.0,0.0
3912,78.0,0.0,60.0,0.0,0.0
3913,68.0,0.0,60.0,4.0,0.0
3914,73.0,0.0,450.0,1.0,0.0
3915,61.0,18.0,450.0,1.0,0.0
3916,77.0,6.0,120.0,0.0,0.0
3917,73.0,0.0,120.0,0.0,0.0
3918,77.0,0.0,60.0,3.0,0.0
3919,49.0,0.0,60.0,5.0,0.0
3920,77.0,33.0,60.0,2.0,0.0
3921,85.0,0.0,30.0,2.0,0.0
3922,49.0,0.0,60.0,5.0,0.0
3923,85.0,21.0,30.0,3.0,0.0
3924,73.0,3.0,60.0,4.0,0.0
3925,85.0,0.0,30.0,2.0,0.0
3926,85.0,27.0,30.0,3.0,0.0
3927,84.0,0.0,20.0,2.0,0.0
3928,84.0,30.0,20.0,3.0,0.0
3929,48.0,0.0,60.0,5.0,0.0
3930,72.0,0.0,60.0,4.0,0.0
3931,84.0,0.0,20.0,2.0,0.0
3932,84.0,30.0,20.0,3.0,0.0
3933,82.0,30.0,20.0,3.0,0.0
3934,82.0,0.0,20.0,2.0,0.0
3935,46.0,0.0,60.0,5.0,0.0
3936,70.0,0.0,60.0,4.0,0.0
3937,82.0,0.0,20.0,2.0,0.0
3938,82.0,30.0,20.0,3.0,0.0
3939,44.0,0.0,60.0,5.0,0.0
3940,68.0,0.0,60.0,4.0,0.0
3941,80.0,30.0,20.0,2.0,0.0
3942,80.0,0.0,20.0,3.0,0.0
3943,80.0,30.0,20.0,3.0,0.0
3944,80.0,0.0,20.0,2.0,0.0
3945,78.0,30.0,20.0,3.0,0.0
3946,78.0,0.0,20.0,2.0,0.0
3947,42.0,0.0,60.0,5.0,0.0
3948,66.0,0.0,60.0,4.0,0.0
3949,78.0,0.0,20.0,2.0,0.0
3950,78.0,30.0,20.0,3.0,0.0
3951,77.0,0.0,20.0,2.0,0.0
3952,65.0,0.0,60.0,4.0,0.0
3953,41.0,30.0,60.0,5.0,0.0
3954,77.0,30.0,20.0,3.0,0.0
3955,77.0,0.0,20.0,2.0,0.0
3956,77.0,0.0,20.0,3.0,0.0
3957,75.0,12.0,20.0,2.0,0.0
3958,75.0,0.0,20.0,3.0,0.0
3959,39.0,0.0,60.0,5.0,0.0
3960,63.0,0.0,60.0,4.0,0.0
3961,75.0,30.0,20.0,3.0,0.0
3962,75.0,0.0,20.0,2.0,0.0
3963,61.0,0.0,60.0,4.0,0.0
3964,73.0,0.0,600.0,1.0,0.0
3965,37.0,30.0,60.0,5.0,0.0
3966,73.0,0.0,20.0,2.0,0.0
3967,61.0,0.0,600.0,1.0,0.0
3968,73.0,30.0,20.0,3.0,0.0
3969,73.0,0.0,60.0,0.0,0.0
3970,73.0,0.0,20.0,2.0,0.0
3971,73.0,0.0,20.0,3.0,0.0
3972,49.0,0.0,60.0,5.0,0.0
3973,73.0,27.0,30.0,4.0,0.0
3974,73.0,3.0,20.0,3.0,0.0
3975,73.0,0.0,20.0,2.0,0.0
3976,85.0,3.0,60.0,0.0,0.0
3977,73.0,0.0,20.0,2.0,0.0
3978,73.0,27.0,30.0,4.0,0.0
3979,73.0,0.0,20.0,3.0,0.0
3980,72.0,30.0,20.0,4.0,0.0
3981,72.0,0.0,20.0,3.0,0.0
3982,48.0,30.0,60.0,5.0,0.0
3983,72.0,0.0,20.0,2.0,0.0
3984,84.0,0.0,60.0,0.0,0.0
3985,72.0,0.0,20.0,3.0,0.0
3986,72.0,0.0,20.0,2.0,0.0
3987,72.0,0.0,20.0,4.0,0.0
3988,70.0,0.0,20.0,4.0,0.0
3989,82.0,30.0,60.0,0.0,0.0
3990,46.0,0.0,60.0,5.0,0.0
3991,70.0,0.0,20.0,3.0,0.0
3992,70.0,30.0,20.0,2.0,0.0
3993,70.0,0.0,20.0,4.0,0.0
3994,70.0,0.0,20.0,3.0,0.0
3995,70.0,0.0,20.0,2.0,0.0
3996,68.0,0.0,20.0,3.0,0.0
3997,44.0,0.0,60.0,5.0,0.0
3998,68.0,0.0,20.0,2.0,0.0
3999,80.0,0.0,60.0,0.0,0.0
4000,68.0,30.0,20.0,4.0,0.0
4001,68.0,0.0,20.0,4.0,0.0
4002,68.0,30.0,20.0,2.0,0.0
4003,68.0,0.0,20.0,3.0,0.0
4004,78.0,0.0,60.0,0.0,0.0
4005,66.0,0.0,20.0,4.0,0.0
4006,42.0,0.0,60.0,5.0,0.0
4007,66.0,0.0,20.0,2.0,0.0
4008,66.0,30.0,20.0,3.0,0.0
4009,66.0,30.0,20.0,4.0,0.0
4010,66.0,0.0,20.0,2.0,0.0
4011,66.0,0.0,20.0,3.0,0.0
4012,77.0,0.0,60.0,0.0,0.0
4013,41.0,0.0,60.0,5.0,0.0
4014,65.0,0.0,20.0,3.0,0.0
4015,65.0,0.0,20.0,4.0,0.0
4016,65.0,30.0,20.0,2.0,0.0
4017,65.0,0.0,20.0,2.0,0.0
4018,65.0,0.0,20.0,4.0,0.0
4019,65.0,30.0,20.0,3.0,0.0
4020,63.0,0.0,20.0,2.0,0.0
4021,63.0,0.0,20.0,3.0,0.0
4022,75.0,0.0,60.0,0.0,0.0
4023,63.0,30.0,20.0,4.0,0.0
4024,39.0,0.0,60.0,5.0,0.0
4025,63.0,0.0,20.0,2.0,0.0
4026,63.0,114.0,20.0,4.0,0.0
4027,63.0,0.0,20.0,3.0,0.0
4028,61.0,0.0,120.0,2.0,0.0
4029,61.0,0.0,120.0,3.0,0.0
4030,61.0,0.0,120.0,4.0,0.0
4031,77.0,0.0,120.0,0.0,0.0
4032,73.0,0.0,120.0,0.0,0.0
4033,37.0,120.0,120.0,5.0,0.0
4034,80.0,0.0,120.0,1.0,0.0
4035,37.0,120.0,120.0,5.0,0.0
4036,68.0,0.0,120.0,2.0,0.0
4037,77.0,0.0,120.0,2.0,0.0
4038,85.0,0.0,120.0,2.0,0.0
4039,68.0,0.0,120.0,3.0,0.0
4040,77.0,0.0,120.0,3.0,0.0
4041,85.0,0.0,120.0,3.0,0.0
4042,77.0,0.0,120.0,0.0,0.0
4043,73.0,0.0,120.0,0.0,0.0
4044,73.0,0.0,120.0,1.0,0.0
4045,61.0,0.0,120.0,4.0,0.0
4046,77.0,0.0,120.0,0.0,0.0
4047,73.0,0.0,120.0,0.0,0.0
4048,37.0,0.0,120.0,5.0,0.0
4049,61.0,0.0,120.0,4.0,0.0
4050,80.0,0.0,120.0,1.0,0.0
4051,73.0,0.0,120.0,1.0,0.0
4052,85.0,0.0,120.0,2.0,0.0
4053,77.0,0.0,120.0,2.0,0.0
4054,68.0,0.0,120.0,2.0,0.0
4055,85.0,186.0,120.0,3.0,0.0
4056,77.0,0.0,120.0,3.0,0.0
4057,68.0,0.0,120.0,3.0,0.0
4058,80.0,18.0,930.0,1.0,0.0
4059,68.0,60.0,60.0,4.0,0.0
4060,72.0,0.0,60.0,3.0,0.0
4061,75.0,0.0,60.0,2.0,0.0
4062,77.0,60.0,60.0,2.0,0.0
4063,73.0,0.0,60.0,3.0,0.0
4064,68.0,0.0,60.0,4.0,0.0
4065,75.0,0.0,60.0,3.0,0.0
4066,78.0,0.0,60.0,2.0,0.0
4067,68.0,60.0,60.0,4.0,0.0
4068,80.0,0.0,60.0,2.0,0.0
4069,77.0,60.0,60.0,3.0,0.0
4070,68.0,0.0,60.0,4.0,0.0
4071,68.0,54.0,60.0,4.0,0.0
4072,78.0,0.0,120.0,2.0,0.0
4073,75.0,6.0,120.0,3.0,0.0
4074,68.0,60.0,60.0,4.0,0.0
4075,68.0,60.0,60.0,4.0,0.0
4076,68.0,35.0,60.0,4.0,0.0
4077,75.0,0.0,30.0,0.0,0.0
4078,84.0,0.0,30.0,0.0,0.0
4079,84.0,25.0,30.0,2.0,0.0
4080,75.0,0.0,30.0,3.0,0.0
4081,68.0,35.0,60.0,4.0,0.0
4082,85.0,0.0,30.0,0.0,0.0
4083,77.0,0.0,30.0,0.0,0.0
4084,85.0,25.0,30.0,2.0,0.0
4085,77.0,0.0,30.0,3.0,0.0
4086,68.0,35.0,60.0,4.0,0.0
4087,78.0,0.0,30.0,3.0,0.0
4088,87.0,0.0,30.0,0.0,0.0
4089,78.0,25.0,30.0,0.0,0.0
4090,87.0,0.0,30.0,2.0,0.0
4091,68.0,35.0,60.0,4.0,0.0
4092,85.0,0.0,30.0,2.0,0.0
4093,68.0,60.0,60.0,4.0,0.0
4094,77.0,25.0,30.0,3.0,0.0
4095,85.0,0.0,30.0,0.0,0.0
4096,77.0,0.0,30.0,0.0,0.0
4097,84.0,6.0,120.0,2.0,0.0
4098,75.0,0.0,120.0,0.0,0.0
4099,75.0,0.0,120.0,3.0,0.0
4100,68.0,54.0,60.0,4.0,0.0
4101,84.0,0.0,120.0,0.0,0.0
4102,68.0,60.0,60.0,4.0,0.0
4103,68.0,42.0,60.0,4.0,0.0
4104,68.0,30.0,60.0,4.0,0.0
4105,80.0,0.0,450.0,1.0,0.0
4106,78.0,0.0,20.0,3.0,0.0
4107,84.0,3.0,90.0,2.0,0.0
4108,84.0,0.0,450.0,0.0,0.0
4109,68.0,30.0,20.0,4.0,0.0
4110,44.0,0.0,20.0,5.0,0.0
4111,75.0,18.0,450.0,0.0,0.0
4112,78.0,0.0,20.0,3.0,0.0
4113,44.0,0.0,20.0,5.0,0.0
4114,68.0,27.0,20.0,4.0,0.0
4115,78.0,0.0,20.0,3.0,0.0
4116,68.0,30.0,20.0,4.0,0.0
4117,44.0,0.0,20.0,5.0,0.0
4118,78.0,0.0,20.0,3.0,0.0
4119,44.0,0.0,20.0,5.0,0.0
4120,68.0,3.0,20.0,4.0,0.0
4121,85.0,27.0,30.0,2.0,0.0
4122,78.0,0.0,20.0,3.0,0.0
4123,44.0,30.0,20.0,5.0,0.0
4124,68.0,0.0,20.0,4.0,0.0
4125,87.0,3.0,90.0,2.0,0.0
4126,44.0,27.0,20.0,5.0,0.0
4127,68.0,0.0,20.0,4.0,0.0
4128,78.0,0.0,20.0,3.0,0.0
4129,78.0,0.0,20.0,3.0,0.0
4130,68.0,0.0,20.0,4.0,0.0
4131,44.0,30.0,20.0,5.0,0.0
4132,44.0,3.0,20.0,5.0,0.0
4133,78.0,0.0,20.0,3.0,0.0
4134,68.0,0.0,20.0,4.0,0.0
4135,89.0,27.0,30.0,2.0,0.0
4136,78.0,0.0,20.0,3.0,0.0
4137,90.0,27.0,30.0,2.0,0.0
4138,44.0,0.0,20.0,5.0,0.0
4139,68.0,3.0,20.0,4.0,0.0
4140,68.0,0.0,20.0,4.0,0.0
4141,44.0,3.0,20.0,5.0,0.0
4142,87.0,27.0,30.0,2.0,0.0
4143,78.0,0.0,20.0,3.0,0.0
4144,78.0,30.0,20.0,3.0,0.0
4145,68.0,0.0,20.0,4.0,0.0
4146,44.0,0.0,20.0,5.0,0.0
4147,68.0,30.0,20.0,4.0,0.0
4148,44.0,0.0,20.0,5.0,0.0
4149,78.0,0.0,20.0,3.0,0.0
4150,44.0,0.0,20.0,5.0,0.0
4151,68.0,0.0,20.0,4.0,0.0
4152,87.0,27.0,30.0,2.0,0.0
4153,78.0,3.0,20.0,3.0,0.0
4154,44.0,0.0,20.0,5.0,0.0
4155,78.0,0.0,20.0,3.0,0.0
4156,68.0,3.0,20.0,4.0,0.0
4157,84.0,27.0,30.0,2.0,0.0
4158,44.0,12.0,20.0,5.0,0.0
4159,68.0,0.0,20.0,4.0,0.0
4160,78.0,0.0,20.0,3.0,0.0
4161,44.0,0.0,20.0,5.0,0.0
4162,78.0,0.0,20.0,3.0,0.0
4163,68.0,33.0,20.0,4.0,0.0
4164,77.0,0.0,120.0,0.0,0.0
4165,73.0,0.0,120.0,1.0,0.0
4166,80.0,0.0,120.0,1.0,0.0
4167,77.0,0.0,30.0,3.0,0.0
4168,85.0,6.0,120.0,0.0,0.0
4169,37.0,3.0,60.0,5.0,0.0
4170,85.0,27.0,30.0,2.0,0.0
4171,68.0,0.0,60.0,4.0,0.0
4172,73.0,30.0,30.0,2.0,0.0
4173,73.0,0.0,30.0,3.0,0.0
4174,75.0,0.0,30.0,3.0,0.0
4175,73.0,0.0,60.0,4.0,0.0
4176,49.0,3.0,60.0,5.0,0.0
4177,75.0,21.0,30.0,2.0,0.0
4178,77.0,30.0,30.0,3.0,0.0
4179,77.0,0.0,30.0,2.0,0.0
4180,80.0,6.0,120.0,0.0,0.0
4181,78.0,0.0,30.0,3.0,0.0
4182,68.0,3.0,60.0,4.0,0.0
4183,77.0,0.0,120.0,0.0,0.0
4184,73.0,0.0,120.0,1.0,0.0
4185,44.0,0.0,60.0,5.0,0.0
4186,80.0,0.0,120.0,1.0,0.0
4187,78.0,27.0,30.0,2.0,0.0
4188,80.0,30.0,30.0,3.0,0.0
4189,80.0,0.0,30.0,2.0,0.0
4190,82.0,21.0,30.0,3.0,0.0
4191,65.0,0.0,60.0,4.0,0.0
4192,41.0,3.0,60.0,5.0,0.0
4193,82.0,0.0,30.0,2.0,0.0
4194,84.0,111.0,30.0,2.0,0.0
4195,84.0,0.0,30.0,3.0,0.0
4196,85.0,0.0,120.0,2.0,0.0
4197,80.0,0.0,120.0,1.0,0.0
4198,61.0,0.0,120.0,4.0,0.0
4199,37.0,0.0,120.0,5.0,0.0
4200,85.0,0.0,120.0,3.0,0.0
4201,77.0,186.0,120.0,0.0,0.0
4202,73.0,0.0,120.0,1.0,0.0
4203,80.0,0.0,120.0,0.0,0.0
4204,68.0,6.0,120.0,4.0,0.0
4205,90.0,35.0,300.0,2.0,0.0
4206,80.0,53.0,930.0,1.0,0.0
4207,44.0,54.0,60.0,5.0,0.0
4208,72.0,0.0,60.0,3.0,0.0
4209,73.0,0.0,60.0,3.0,0.0
4210,46.0,19.0,60.0,5.0,0.0
4211,75.0,3.0,60.0,3.0,0.0
4212,70.0,15.0,15.0,4.0,0.0
4213,48.0,0.0,60.0,5.0,0.0
4214,68.0,26.0,15.0,4.0,0.0
4215,67.0,30.0,30.0,4.0,0.0
4216,49.0,0.0,60.0,5.0,0.0
4217,68.0,27.0,30.0,4.0,0.0
4218,77.0,3.0,60.0,3.0,0.0
4219,70.0,57.0,30.0,4.0,0.0
4220,75.0,0.0,120.0,3.0,0.0
4221,68.0,0.0,60.0,4.0,0.0
4222,48.0,6.0,120.0,5.0,0.0
4223,68.0,35.0,60.0,4.0,0.0
4224,89.0,19.0,30.0,2.0,0.0
4225,87.0,25.0,30.0,2.0,0.0
4226,68.0,35.0,60.0,4.0,0.0
4227,68.0,60.0,60.0,4.0,0.0
4228,85.0,25.0,30.0,2.0,0.0
4229,72.0,0.0,60.0,3.0,0.0
4230,44.0,54.0,60.0,5.0,0.0
4231,68.0,6.0,120.0,4.0,0.0
4232,90.0,35.0,300.0,2.0,0.0
4233,46.0,19.0,60.0,5.0,0.0
4234,73.0,0.0,60.0,3.0,0.0
4235,70.0,15.0,15.0,4.0,0.0
4236,75.0,3.0,60.0,3.0,0.0
4237,48.0,0.0,60.0,5.0,0.0
4238,68.0,26.0,15.0,4.0,0.0
4239,67.0,30.0,30.0,4.0,0.0
4240,49.0,0.0,60.0,5.0,0.0
4241,68.0,27.0,30.0,4.0,0.0
4242,77.0,3.0,60.0,3.0,0.0
4243,70.0,57.0,30.0,4.0,0.0
4244,68.0,41.0,120.0,4.0,0.0
4245,75.0,0.0,120.0,3.0,0.0
4246,48.0,0.0,120.0,5.0,0.0
4247,89.0,19.0,30.0,2.0,0.0
4248,87.0,60.0,30.0,2.0,0.0
4249,85.0,7.0,30.0,2.0,0.0
4250,80.0,0.0,450.0,1.0,0.0
4251,90.0,25.0,30.0,2.0,0.0
4252,87.0,0.0,30.0,3.0,0.0
4253,68.0,35.0,60.0,4.0,0.0
4254,44.0,0.0,60.0,5.0,0.0
4255,75.0,0.0,450.0,0.0,0.0
4256,84.0,18.0,450.0,0.0,0.0
4257,44.0,35.0,60.0,5.0,0.0
4258,89.0,25.0,30.0,2.0,0.0
4259,68.0,0.0,60.0,4.0,0.0
4260,85.0,0.0,30.0,3.0,0.0
4261,68.0,0.0,60.0,4.0,0.0
4262,84.0,25.0,30.0,3.0,0.0
4263,87.0,0.0,30.0,2.0,0.0
4264,44.0,35.0,60.0,5.0,0.0
4265,44.0,0.0,60.0,5.0,0.0
4266,68.0,35.0,60.0,4.0,0.0
4267,82.0,0.0,30.0,3.0,0.0
4268,85.0,25.0,30.0,2.0,0.0
4269,68.0,0.0,60.0,4.0,0.0
4270,44.0,35.0,60.0,5.0,0.0
4271,80.0,0.0,30.0,3.0,0.0
4272,84.0,25.0,30.0,2.0,0.0
4273,78.0,0.0,30.0,3.0,0.0
4274,68.0,0.0,60.0,4.0,0.0
4275,44.0,35.0,60.0,5.0,0.0
4276,82.0,25.0,30.0,2.0,0.0
4277,44.0,35.0,60.0,5.0,0.0
4278,77.0,25.0,30.0,3.0,0.0
4279,80.0,0.0,30.0,2.0,0.0
4280,68.0,0.0,60.0,4.0,0.0
4281,44.0,0.0,60.0,5.0,0.0
4282,68.0,35.0,60.0,4.0,0.0
4283,78.0,7.0,30.0,2.0,0.0
4284,75.0,0.0,30.0,3.0,0.0
4285,73.0,0.0,30.0,3.0,0.0
4286,44.0,0.0,60.0,5.0,0.0
4287,77.0,0.0,450.0,0.0,0.0
4288,68.0,35.0,60.0,4.0,0.0
4289,80.0,18.0,450.0,1.0,0.0
4290,77.0,25.0,30.0,2.0,0.0
4291,85.0,0.0,450.0,0.0,0.0
4292,68.0,0.0,60.0,4.0,0.0
4293,75.0,25.0,30.0,3.0,0.0
4294,78.0,0.0,30.0,2.0,0.0
4295,44.0,35.0,60.0,5.0,0.0
4296,80.0,25.0,30.0,2.0,0.0
4297,44.0,35.0,60.0,5.0,0.0
4298,77.0,0.0,30.0,3.0,0.0
4299,68.0,0.0,60.0,4.0,0.0
4300,44.0,0.0,60.0,5.0,0.0
4301,68.0,35.0,60.0,4.0,0.0
4302,78.0,25.0,30.0,3.0,0.0
4303,82.0,0.0,30.0,2.0,0.0
4304,84.0,0.0,30.0,2.0,0.0
4305,44.0,0.0,60.0,5.0,0.0
4306,80.0,25.0,30.0,3.0,0.0
4307,68.0,35.0,60.0,4.0,0.0
4308,85.0,25.0,30.0,2.0,0.0
4309,44.0,35.0,60.0,5.0,0.0
4310,82.0,0.0,30.0,3.0,0.0
4311,68.0,0.0,60.0,4.0,0.0
4312,68.0,35.0,60.0,4.0,0.0
4313,84.0,0.0,30.0,3.0,0.0
4314,87.0,25.0,30.0,2.0,0.0
4315,44.0,0.0,60.0,5.0,0.0
4316,44.0,0.0,60.0,5.0,0.0
4317,68.0,35.0,60.0,4.0,0.0
4318,85.0,0.0,30.0,3.0,0.0
4319,89.0,7.0,30.0,2.0,0.0
4320,87.0,0.0,30.0,0.0,0.0
4321,68.0,6.0,120.0,4.0,0.0
4322,87.0,0.0,30.0,3.0,0.0
4323,90.0,0.0,30.0,0.0,0.0
4324,44.0,35.0,60.0,5.0,0.0
4325,80.0,18.0,450.0,1.0,0.0
4326,90.0,25.0,30.0,2.0,0.0
4327,85.0,19.0,30.0,0.0,0.0
4328,85.0,0.0,30.0,3.0,0.0
4329,89.0,0.0,30.0,2.0,0.0
4330,44.0,35.0,60.0,5.0,0.0
4331,89.0,0.0,30.0,0.0,0.0
4332,84.0,0.0,30.0,0.0,0.0
4333,87.0,0.0,30.0,0.0,0.0
4334,87.0,0.0,30.0,2.0,0.0
4335,84.0,25.0,30.0,3.0,0.0
4336,44.0,35.0,60.0,5.0,0.0
4337,82.0,0.0,30.0,0.0,0.0
4338,44.0,35.0,60.0,5.0,0.0
4339,82.0,25.0,30.0,3.0,0.0
4340,85.0,0.0,30.0,0.0,0.0
4341,85.0,0.0,30.0,2.0,0.0
4342,80.0,0.0,30.0,0.0,0.0
4343,84.0,0.0,30.0,0.0,0.0
4344,84.0,25.0,30.0,2.0,0.0
4345,80.0,0.0,30.0,3.0,0.0
4346,44.0,35.0,60.0,5.0,0.0
4347,82.0,25.0,30.0,0.0,0.0
4348,78.0,0.0,30.0,0.0,0.0
4349,44.0,35.0,60.0,5.0,0.0
4350,82.0,0.0,30.0,2.0,0.0
4351,78.0,0.0,30.0,3.0,0.0
4352,77.0,0.0,30.0,0.0,0.0
4353,80.0,0.0,30.0,0.0,0.0
4354,77.0,0.0,30.0,3.0,0.0
4355,80.0,25.0,30.0,2.0,0.0
4356,44.0,35.0,60.0,5.0,0.0
4357,44.0,60.0,60.0,5.0,0.0
4358,75.0,0.0,30.0,0.0,0.0
4359,78.0,0.0,30.0,0.0,0.0
4360,78.0,7.0,30.0,2.0,0.0
4361,75.0,0.0,30.0,3.0,0.0
4362,73.0,54.0,60.0,3.0,0.0
4363,37.0,60.0,120.0,5.0,0.0
4364,68.0,0.0,60.0,4.0,0.0
4365,76.0,0.0,60.0,0.0,0.0
4366,76.0,0.0,60.0,2.0,0.0
4367,73.0,0.0,60.0,1.0,0.0
4368,80.0,0.0,60.0,1.0,0.0
4369,73.0,0.0,60.0,0.0,0.0
4370,85.0,0.0,120.0,3.0,0.0
4371,68.0,60.0,120.0,4.0,0.0
4372,49.0,60.0,120.0,5.0,0.0
4373,85.0,0.0,120.0,3.0,0.0
4374,68.0,60.0,120.0,4.0,0.0
4375,52.0,60.0,120.0,5.0,0.0
4376,85.0,60.0,120.0,3.0,0.0
4377,68.0,0.0,120.0,4.0,0.0
4378,49.0,6.0,120.0,5.0,0.0
4379,88.0,0.0,60.0,2.0,0.0
4380,85.0,60.0,60.0,3.0,0.0
4381,68.0,0.0,60.0,4.0,0.0
4382,90.0,0.0,60.0,2.0,0.0
4383,87.0,0.0,60.0,3.0,0.0
4384,42.0,60.0,120.0,5.0,0.0
4385,66.0,54.0,60.0,4.0,0.0
4386,90.0,0.0,120.0,2.0,0.0
4387,87.0,0.0,120.0,3.0,0.0
4388,66.0,60.0,120.0,4.0,0.0
4389,42.0,60.0,120.0,5.0,0.0
4390,87.0,0.0,120.0,3.0,0.0
4391,69.0,60.0,120.0,4.0,0.0
4392,90.0,0.0,120.0,2.0,0.0
4393,44.0,6.0,120.0,5.0,0.0
4394,90.0,54.0,60.0,2.0,0.0
4395,87.0,0.0,60.0,3.0,0.0
4396,68.0,6.0,120.0,4.0,0.0
4397,32.0,6.0,120.0,5.0,0.0
4398,85.0,54.0,60.0,3.0,0.0
4399,88.0,0.0,60.0,2.0,0.0
4400,87.0,0.0,60.0,2.0,0.0
4401,66.0,0.0,60.0,4.0,0.0
4402,84.0,60.0,60.0,3.0,0.0
4403,76.0,0.0,210.0,0.0,0.0
4404,73.0,12.0,210.0,0.0,0.0
4405,37.0,60.0,120.0,5.0,0.0
4406,68.0,0.0,60.0,4.0,0.0
4407,85.0,54.0,60.0,3.0,0.0
4408,88.0,0.0,60.0,2.0,0.0
4409,68.0,48.0,120.0,4.0,0.0
4410,37.0,60.0,120.0,5.0,0.0
4411,68.0,60.0,120.0,4.0,0.0
4412,37.0,60.0,120.0,5.0,0.0
4413,80.0,0.0,210.0,0.0,0.0
4414,76.0,12.0,210.0,0.0,0.0
4415,68.0,48.0,120.0,4.0,0.0
4416,37.0,6.0,120.0,5.0,0.0
4417,64.0,0.0,60.0,4.0,0.0
4418,80.0,60.0,60.0,3.0,0.0
4419,66.0,0.0,60.0,4.0,0.0
4420,81.0,0.0,60.0,3.0,0.0
4421,81.0,54.0,60.0,0.0,0.0
4422,78.0,0.0,60.0,0.0,0.0
4423,42.0,60.0,120.0,5.0,0.0
4424,66.0,0.0,120.0,4.0,0.0
4425,81.0,0.0,120.0,3.0,0.0
4426,81.0,0.0,120.0,0.0,0.0
4427,78.0,60.0,120.0,0.0,0.0
4428,42.0,60.0,120.0,5.0,0.0
4429,81.0,0.0,120.0,0.0,0.0
4430,85.0,0.0,120.0,0.0,0.0
4431,85.0,0.0,120.0,3.0,0.0
4432,69.0,60.0,120.0,4.0,0.0
4433,42.0,60.0,120.0,5.0,0.0
4434,84.0,60.0,120.0,3.0,0.0
4435,68.0,0.0,120.0,4.0,0.0
4436,80.0,0.0,120.0,0.0,0.0
4437,84.0,0.0,120.0,0.0,0.0
4438,42.0,6.0,120.0,5.0,0.0
4439,66.0,0.0,60.0,4.0,0.0
4440,87.0,0.0,60.0,0.0,0.0
4441,87.0,0.0,60.0,3.0,0.0
4442,78.0,60.0,60.0,0.0,0.0
4443,65.0,54.0,60.0,4.0,0.0
4444,37.0,0.0,60.0,5.0,0.0
4445,80.0,0.0,120.0,1.0,0.0
4446,73.0,0.0,120.0,1.0,0.0
4447,77.0,0.0,120.0,0.0,0.0
4448,85.0,0.0,120.0,3.0,0.0
4449,73.0,0.0,120.0,3.0,0.0
4450,73.0,0.0,120.0,2.0,0.0
4451,85.0,6.0,120.0,2.0,0.0
4452,85.0,0.0,120.0,0.0,0.0
4453,68.0,0.0,60.0,4.0,0.0
4454,44.0,60.0,60.0,5.0,0.0
4455,65.0,60.0,60.0,4.0,0.0
4456,41.0,0.0,60.0,5.0,0.0
4457,37.0,0.0,60.0,5.0,0.0
4458,61.0,60.0,60.0,4.0,0.0
4459,82.0,0.0,120.0,0.0,0.0
4460,78.0,0.0,120.0,0.0,0.0
4461,82.0,0.0,120.0,3.0,0.0
4462,73.0,6.0,120.0,3.0,0.0
4463,66.0,0.0,120.0,3.0,0.0
4464,61.0,54.0,60.0,4.0,0.0
4465,82.0,0.0,120.0,2.0,0.0
4466,73.0,0.0,120.0,2.0,0.0
4467,66.0,0.0,120.0,2.0,0.0
4468,37.0,0.0,60.0,5.0,0.0
4469,82.0,0.0,120.0,1.0,0.0
4470,78.0,0.0,120.0,1.0,0.0
4471,70.0,0.0,60.0,4.0,0.0
4472,46.0,60.0,60.0,5.0,0.0
4473,66.0,0.0,60.0,4.0,0.0
4474,42.0,60.0,60.0,5.0,0.0
4475,61.0,0.0,60.0,4.0,0.0
4476,37.0,60.0,60.0,5.0,0.0
4477,73.0,0.0,120.0,1.0,0.0
4478,37.0,0.0,60.0,5.0,0.0
4479,73.0,0.0,120.0,3.0,0.0
4480,80.0,0.0,120.0,3.0,0.0
4481,80.0,6.0,120.0,1.0,0.0
4482,80.0,0.0,120.0,0.0,0.0
4483,77.0,0.0,120.0,0.0,0.0
4484,73.0,0.0,120.0,2.0,0.0
4485,80.0,0.0,120.0,2.0,0.0
4486,61.0,54.0,60.0,4.0,0.0
4487,65.0,19.0,60.0,4.0,0.0
4488,37.0,0.0,60.0,5.0,0.0
4489,85.0,15.0,15.0,3.0,0.0
4490,85.0,12.0,210.0,1.0,0.0
4491,41.0,4.0,60.0,5.0,0.0
4492,85.0,0.0,15.0,2.0,0.0
4493,80.0,0.0,210.0,1.0,0.0
4494,68.0,0.0,60.0,4.0,0.0
4495,87.0,15.0,15.0,2.0,0.0
4496,87.0,0.0,15.0,3.0,0.0
4497,85.0,0.0,15.0,3.0,0.0
4498,85.0,11.0,15.0,2.0,0.0
4499,87.0,0.0,15.0,2.0,0.0
4500,87.0,15.0,15.0,3.0,0.0
4501,85.0,15.0,15.0,3.0,0.0
4502,41.0,4.0,60.0,5.0,0.0
4503,85.0,0.0,15.0,2.0,0.0
4504,68.0,0.0,60.0,4.0,0.0
4505,87.0,0.0,15.0,3.0,0.0
4506,87.0,15.0,15.0,2.0,0.0
4507,84.0,11.0,15.0,2.0,0.0
4508,84.0,0.0,15.0,3.0,0.0
4509,85.0,56.0,15.0,3.0,0.0
4510,85.0,0.0,15.0,2.0,0.0
4511,66.0,0.0,60.0,4.0,0.0
4512,39.0,42.0,60.0,5.0,0.0
4513,87.0,6.0,120.0,3.0,0.0
4514,87.0,0.0,120.0,2.0,0.0
4515,66.0,60.0,60.0,4.0,0.0
4516,39.0,0.0,60.0,5.0,0.0
4517,44.0,54.0,60.0,5.0,0.0
4518,72.0,0.0,60.0,4.0,0.0
4519,80.0,0.0,120.0,1.0,0.0
4520,68.0,6.0,120.0,2.0,0.0
4521,68.0,0.0,120.0,3.0,0.0
4522,78.0,0.0,120.0,0.0,0.0
4523,87.0,0.0,120.0,0.0,0.0
4524,78.0,0.0,120.0,3.0,0.0
4525,84.0,0.0,120.0,1.0,0.0
4526,78.0,0.0,120.0,2.0,0.0
4527,72.0,60.0,60.0,4.0,0.0
4528,44.0,0.0,60.0,5.0,0.0
4529,73.0,54.0,60.0,4.0,0.0
4530,85.0,0.0,120.0,2.0,0.0
4531,77.0,0.0,120.0,2.0,0.0
4532,68.0,0.0,120.0,2.0,0.0
4533,68.0,0.0,120.0,3.0,0.0
4534,77.0,6.0,120.0,3.0,0.0
4535,85.0,0.0,120.0,3.0,0.0
4536,85.0,0.0,120.0,1.0,0.0
4537,73.0,0.0,120.0,1.0,0.0
4538,37.0,0.0,60.0,5.0,0.0
4539,85.0,0.0,120.0,0.0,0.0
4540,77.0,0.0,120.0,0.0,0.0
4541,44.0,60.0,60.0,5.0,0.0
4542,68.0,0.0,60.0,4.0,0.0
4543,65.0,60.0,60.0,4.0,0.0
4544,41.0,0.0,60.0,5.0,0.0
4545,61.0,0.0,60.0,4.0,0.0
4546,37.0,60.0,60.0,5.0,0.0
4547,82.0,0.0,120.0,0.0,0.0
4548,78.0,6.0,120.0,0.0,0.0
4549,66.0,0.0,120.0,2.0,0.0
4550,73.0,0.0,120.0,3.0,0.0
4551,66.0,0.0,120.0,3.0,0.0
4552,73.0,0.0,120.0,2.0,0.0
4553,82.0,0.0,120.0,3.0,0.0
4554,78.0,0.0,120.0,1.0,0.0
4555,82.0,0.0,120.0,1.0,0.0
4556,61.0,54.0,60.0,4.0,0.0
4557,37.0,0.0,60.0,5.0,0.0
4558,82.0,0.0,120.0,2.0,0.0
4559,46.0,0.0,60.0,5.0,0.0
4560,70.0,60.0,60.0,4.0,0.0
4561,42.0,60.0,60.0,5.0,0.0
4562,66.0,0.0,60.0,4.0,0.0
4563,61.0,0.0,60.0,4.0,0.0
4564,37.0,60.0,60.0,5.0,0.0
4565,80.0,0.0,120.0,1.0,0.0
4566,37.0,0.0,60.0,5.0,0.0
4567,80.0,0.0,120.0,3.0,0.0
4568,73.0,0.0,120.0,1.0,0.0
4569,77.0,0.0,120.0,0.0,0.0
4570,73.0,6.0,120.0,2.0,0.0
4571,80.0,0.0,120.0,2.0,0.0
4572,61.0,54.0,60.0,4.0,0.0
4573,73.0,0.0,120.0,3.0,0.0
4574,80.0,0.0,120.0,0.0,0.0
4575,65.0,0.0,60.0,4.0,0.0
4576,37.0,19.0,60.0,5.0,0.0
4577,68.0,4.0,60.0,4.0,0.0
4578,85.0,0.0,15.0,3.0,0.0
4579,41.0,0.0,60.0,5.0,0.0
4580,85.0,15.0,15.0,2.0,0.0
4581,85.0,12.0,210.0,1.0,0.0
4582,80.0,0.0,210.0,1.0,0.0
4583,87.0,0.0,15.0,3.0,0.0
4584,87.0,15.0,15.0,2.0,0.0
4585,85.0,11.0,15.0,3.0,0.0
4586,85.0,0.0,15.0,2.0,0.0
4587,87.0,0.0,15.0,2.0,0.0
4588,87.0,15.0,15.0,3.0,0.0
4589,41.0,4.0,60.0,5.0,0.0
4590,85.0,15.0,15.0,3.0,0.0
4591,68.0,0.0,60.0,4.0,0.0
4592,85.0,0.0,15.0,2.0,0.0
4593,87.0,15.0,15.0,2.0,0.0
4594,87.0,0.0,15.0,3.0,0.0
4595,84.0,0.0,15.0,2.0,0.0
4596,84.0,11.0,15.0,3.0,0.0
4597,85.0,0.0,15.0,3.0,0.0
4598,85.0,56.0,15.0,2.0,0.0
4599,66.0,0.0,60.0,4.0,0.0
4600,87.0,6.0,120.0,3.0,0.0
4601,87.0,0.0,120.0,2.0,0.0
4602,39.0,42.0,60.0,5.0,0.0
4603,78.0,0.0,60.0,4.0,0.0
4604,39.0,60.0,60.0,5.0,0.0
4605,75.0,0.0,120.0,3.0,0.0
4606,75.0,0.0,120.0,2.0,0.0
4607,80.0,6.0,120.0,1.0,0.0
4608,84.0,0.0,120.0,1.0,0.0
4609,78.0,0.0,120.0,0.0,0.0
4610,87.0,0.0,120.0,0.0,0.0
4611,72.0,0.0,60.0,4.0,0.0
4612,44.0,54.0,60.0,5.0,0.0
4613,44.0,0.0,60.0,5.0,0.0
4614,72.0,60.0,60.0,4.0,0.0
4615,37.0,0.0,120.0,5.0,0.0
4616,61.0,0.0,120.0,3.0,0.0
4617,68.0,0.0,120.0,3.0,0.0
4618,73.0,0.0,120.0,1.0,0.0
4619,85.0,0.0,120.0,1.0,0.0
4620,85.0,54.0,60.0,0.0,0.0
4621,73.0,0.0,120.0,4.0,0.0
4622,77.0,0.0,60.0,2.0,0.0
4623,77.0,6.0,120.0,3.0,0.0
4624,73.0,0.0,60.0,2.0,0.0
4625,73.0,33.0,60.0,0.0,0.0
4626,72.0,0.0,30.0,2.0,0.0
4627,70.0,9.0,120.0,4.0,0.0
4628,72.0,30.0,30.0,0.0,0.0
4629,46.0,0.0,120.0,5.0,0.0
4630,73.0,0.0,210.0,3.0,0.0
4631,73.0,0.0,30.0,2.0,0.0
4632,73.0,30.0,30.0,0.0,0.0
4633,75.0,0.0,30.0,2.0,0.0
4634,75.0,21.0,30.0,0.0,0.0
4635,77.0,57.0,30.0,0.0,0.0
4636,77.0,0.0,30.0,2.0,0.0
4637,78.0,42.0,60.0,0.0,0.0
4638,42.0,0.0,120.0,5.0,0.0
4639,66.0,6.0,120.0,4.0,0.0
4640,78.0,0.0,60.0,2.0,0.0
4641,75.0,0.0,60.0,0.0,0.0
4642,75.0,33.0,60.0,2.0,0.0
4643,74.0,27.0,30.0,0.0,0.0
4644,72.0,6.0,120.0,0.0,0.0
4645,74.0,0.0,30.0,2.0,0.0
4646,72.0,0.0,120.0,3.0,0.0
4647,68.0,0.0,60.0,4.0,0.0
4648,44.0,3.0,60.0,5.0,0.0
4649,75.0,30.0,30.0,2.0,0.0
4650,75.0,0.0,30.0,0.0,0.0
4651,77.0,21.0,30.0,2.0,0.0
4652,42.0,3.0,60.0,5.0,0.0
4653,77.0,0.0,30.0,0.0,0.0
4654,66.0,0.0,60.0,4.0,0.0
4655,78.0,57.0,30.0,0.0,0.0
4656,78.0,0.0,30.0,2.0,0.0
4657,85.0,18.0,450.0,1.0,0.0
4658,41.0,0.0,60.0,5.0,0.0
4659,73.0,0.0,450.0,1.0,0.0
4660,80.0,54.0,60.0,2.0,0.0
4661,73.0,6.0,120.0,0.0,0.0
4662,65.0,0.0,60.0,4.0,0.0
4663,73.0,0.0,60.0,3.0,0.0
4664,80.0,0.0,60.0,0.0,0.0
4665,73.0,0.0,60.0,4.0,0.0
4666,80.0,19.0,60.0,3.0,0.0
4667,80.0,0.0,60.0,0.0,0.0
4668,80.0,0.0,60.0,2.0,0.0
4669,41.0,0.0,60.0,5.0,0.0
4670,80.0,15.0,15.0,2.0,0.0
4671,41.0,0.0,60.0,5.0,0.0
4672,73.0,4.0,60.0,4.0,0.0
4673,73.0,12.0,150.0,0.0,0.0
4674,80.0,0.0,15.0,0.0,0.0
4675,80.0,0.0,15.0,3.0,0.0
4676,82.0,0.0,15.0,3.0,0.0
4677,82.0,0.0,15.0,2.0,0.0
4678,82.0,15.0,15.0,0.0,0.0
4679,80.0,0.0,15.0,3.0,0.0
4680,80.0,11.0,15.0,2.0,0.0
4681,80.0,0.0,15.0,0.0,0.0
4682,82.0,15.0,15.0,2.0,0.0
4683,82.0,0.0,15.0,0.0,0.0
4684,82.0,0.0,15.0,3.0,0.0
4685,80.0,0.0,15.0,2.0,0.0
4686,73.0,4.0,60.0,4.0,0.0
4687,80.0,0.0,15.0,3.0,0.0
4688,80.0,15.0,15.0,0.0,0.0
4689,41.0,0.0,60.0,5.0,0.0
4690,82.0,0.0,15.0,2.0,0.0
4691,82.0,15.0,15.0,0.0,0.0
4692,82.0,0.0,15.0,3.0,0.0
4693,78.0,0.0,15.0,2.0,0.0
4694,78.0,11.0,15.0,3.0,0.0
4695,78.0,0.0,15.0,0.0,0.0
4696,80.0,0.0,15.0,3.0,0.0
4697,80.0,0.0,15.0,0.0,0.0
4698,80.0,44.0,15.0,2.0,0.0
4699,82.0,0.0,60.0,0.0,0.0
4700,42.0,0.0,60.0,5.0,0.0
4701,73.0,60.0,60.0,4.0,0.0
4702,82.0,0.0,60.0,3.0,0.0
4703,82.0,0.0,60.0,2.0,0.0
4704,78.0,0.0,60.0,2.0,0.0
4705,78.0,0.0,60.0,0.0,0.0
4706,42.0,0.0,60.0,5.0,0.0
4707,78.0,0.0,60.0,3.0,0.0
4708,70.0,0.0,60.0,4.0,0.0
4709,42.0,0.0,60.0,5.0,0.0
4710,75.0,0.0,60.0,2.0,0.0
4711,70.0,0.0,60.0,4.0,0.0
4712,75.0,42.0,60.0,3.0,0.0
4713,75.0,0.0,60.0,0.0,0.0
4714,70.0,60.0,60.0,4.0,0.0
4715,42.0,0.0,60.0,5.0,0.0
4716,70.0,0.0,60.0,0.0,0.0
4717,70.0,0.0,60.0,2.0,0.0
4718,70.0,0.0,60.0,3.0,0.0
4719,68.0,54.0,60.0,4.0,0.0
4720,85.0,0.0,330.0,1.0,0.0
4721,68.0,0.0,120.0,0.0,0.0
4722,68.0,0.0,210.0,2.0,0.0
4723,80.0,0.0,330.0,1.0,0.0
4724,44.0,0.0,60.0,5.0,0.0
4725,68.0,18.0,210.0,3.0,0.0
4726,68.0,0.0,60.0,4.0,0.0
4727,44.0,33.0,60.0,5.0,0.0
4728,73.0,3.0,60.0,4.0,0.0
4729,80.0,27.0,30.0,0.0,0.0
4730,44.0,0.0,60.0,5.0,0.0
4731,77.0,30.0,30.0,0.0,0.0
4732,73.0,0.0,60.0,4.0,0.0
4733,75.0,9.0,30.0,0.0,0.0
4734,44.0,3.0,60.0,5.0,0.0
4735,73.0,16.0,30.0,0.0,0.0
4736,44.0,4.0,60.0,5.0,0.0
4737,75.0,0.0,15.0,2.0,0.0
4738,73.0,0.0,60.0,4.0,0.0
4739,75.0,0.0,15.0,3.0,0.0
4740,75.0,15.0,15.0,0.0,0.0
4741,77.0,15.0,15.0,3.0,0.0
4742,77.0,0.0,15.0,2.0,0.0
4743,77.0,0.0,15.0,0.0,0.0
4744,75.0,0.0,15.0,3.0,0.0
4745,75.0,0.0,15.0,2.0,0.0
4746,75.0,11.0,15.0,0.0,0.0
4747,77.0,0.0,15.0,2.0,0.0
4748,77.0,0.0,15.0,0.0,0.0
4749,77.0,15.0,15.0,3.0,0.0
4750,75.0,0.0,15.0,0.0,0.0
4751,75.0,0.0,15.0,3.0,0.0
4752,73.0,0.0,60.0,4.0,0.0
4753,75.0,15.0,15.0,2.0,0.0
4754,44.0,4.0,60.0,5.0,0.0
4755,77.0,0.0,15.0,3.0,0.0
4756,77.0,0.0,15.0,0.0,0.0
4757,77.0,8.0,15.0,2.0,0.0
4758,75.0,0.0,15.0,0.0,0.0
4759,75.0,11.0,15.0,2.0,0.0
4760,75.0,0.0,15.0,3.0,0.0
4761,77.0,15.0,15.0,3.0,0.0
4762,77.0,0.0,15.0,0.0,0.0
4763,77.0,0.0,15.0,2.0,0.0
4764,75.0,0.0,15.0,2.0,0.0
4765,72.0,0.0,60.0,4.0,0.0
4766,44.0,4.0,60.0,5.0,0.0
4767,75.0,0.0,15.0,0.0,0.0
4768,72.0,6.0,120.0,0.0,0.0
4769,75.0,15.0,15.0,3.0,0.0
4770,80.0,0.0,120.0,1.0,0.0
4771,84.0,0.0,120.0,1.0,0.0
4772,77.0,15.0,15.0,2.0,0.0
4773,77.0,0.0,15.0,0.0,0.0
4774,77.0,0.0,15.0,3.0,0.0
4775,75.0,0.0,15.0,3.0,0.0
4776,75.0,11.0,15.0,2.0,0.0
4777,75.0,0.0,15.0,0.0,0.0
4778,77.0,29.0,15.0,0.0,0.0
4779,77.0,0.0,15.0,3.0,0.0
4780,77.0,0.0,15.0,2.0,0.0
4781,73.0,21.0,30.0,3.0,0.0
4782,44.0,3.0,60.0,5.0,0.0
4783,73.0,0.0,30.0,2.0,0.0
4784,73.0,0.0,30.0,0.0,0.0
4785,72.0,0.0,60.0,4.0,0.0
4786,75.0,0.0,30.0,2.0,0.0
4787,75.0,57.0,30.0,0.0,0.0
4788,75.0,0.0,30.0,3.0,0.0
4789,73.0,6.0,120.0,3.0,0.0
4790,73.0,0.0,120.0,1.0,0.0
4791,85.0,0.0,120.0,1.0,0.0
4792,73.0,0.0,120.0,4.0,0.0
4793,37.0,0.0,120.0,5.0,0.0
4794,77.0,0.0,60.0,2.0,0.0
4795,77.0,54.0,60.0,0.0,0.0
4796,73.0,33.0,60.0,2.0,0.0
4797,73.0,0.0,40.0,0.0,0.0
4798,72.0,0.0,30.0,0.0,0.0
4799,73.0,0.0,210.0,3.0,0.0
4800,70.0,9.0,120.0,4.0,0.0
4801,46.0,0.0,120.0,5.0,0.0
4802,72.0,30.0,30.0,2.0,0.0
4803,73.0,0.0,30.0,0.0,0.0
4804,73.0,30.0,30.0,2.0,0.0
4805,75.0,21.0,30.0,0.0,0.0
4806,75.0,0.0,30.0,2.0,0.0
4807,77.0,0.0,30.0,2.0,0.0
4808,77.0,57.0,30.0,0.0,0.0
4809,78.0,0.0,60.0,0.0,0.0
4810,78.0,42.0,60.0,2.0,0.0
4811,42.0,0.0,120.0,5.0,0.0
4812,66.0,6.0,120.0,4.0,0.0
4813,75.0,0.0,60.0,2.0,0.0
4814,75.0,33.0,60.0,0.0,0.0
4815,72.0,6.0,120.0,3.0,0.0
4816,74.0,0.0,30.0,2.0,0.0
4817,74.0,27.0,30.0,0.0,0.0
4818,44.0,3.0,60.0,5.0,0.0
4819,68.0,0.0,60.0,4.0,0.0
4820,72.0,0.0,120.0,0.0,0.0
4821,75.0,0.0,30.0,0.0,0.0
4822,75.0,30.0,30.0,2.0,0.0
4823,42.0,3.0,60.0,5.0,0.0
4824,77.0,21.0,30.0,2.0,0.0
4825,68.0,0.0,60.0,4.0,0.0
4826,77.0,0.0,30.0,0.0,0.0
4827,78.0,0.0,30.0,0.0,0.0
4828,78.0,57.0,30.0,2.0,0.0
4829,73.0,7.0,210.0,1.0,0.0
4830,80.0,0.0,210.0,1.0,0.0
4831,73.0,54.0,60.0,3.0,0.0
4832,65.0,0.0,60.0,4.0,0.0
4833,80.0,0.0,60.0,0.0,0.0
4834,73.0,6.0,120.0,0.0,0.0
4835,41.0,0.0,60.0,5.0,0.0
4836,80.0,0.0,60.0,2.0,0.0
4837,80.0,0.0,60.0,0.0,0.0
4838,41.0,19.0,60.0,5.0,0.0
4839,80.0,0.0,60.0,3.0,0.0
4840,80.0,0.0,60.0,2.0,0.0
4841,73.0,0.0,60.0,4.0,0.0
4842,41.0,4.0,60.0,5.0,0.0
4843,80.0,0.0,15.0,2.0,0.0
4844,80.0,0.0,15.0,3.0,0.0
4845,73.0,0.0,60.0,4.0,0.0
4846,80.0,15.0,15.0,0.0,0.0
4847,73.0,12.0,150.0,0.0,0.0
4848,82.0,15.0,15.0,2.0,0.0
4849,82.0,0.0,15.0,3.0,0.0
4850,82.0,0.0,15.0,0.0,0.0
4851,80.0,0.0,15.0,2.0,0.0
4852,80.0,0.0,15.0,3.0,0.0
4853,80.0,11.0,15.0,0.0,0.0
4854,82.0,0.0,15.0,3.0,0.0
4855,82.0,0.0,15.0,0.0,0.0
4856,82.0,15.0,15.0,2.0,0.0
4857,80.0,0.0,15.0,3.0,0.0
4858,80.0,0.0,15.0,0.0,0.0
4859,73.0,4.0,60.0,4.0,0.0
4860,41.0,0.0,60.0,5.0,0.0
4861,80.0,15.0,15.0,2.0,0.0
4862,82.0,0.0,15.0,3.0,0.0
4863,82.0,0.0,15.0,2.0,0.0
4864,82.0,8.0,15.0,0.0,0.0
4865,78.0,0.0,15.0,0.0,0.0
4866,78.0,0.0,15.0,2.0,0.0
4867,78.0,11.0,15.0,3.0,0.0
4868,80.0,44.0,15.0,0.0,0.0
4869,80.0,0.0,15.0,3.0,0.0
4870,80.0,0.0,15.0,2.0,0.0
4871,82.0,0.0,60.0,3.0,0.0
4872,42.0,0.0,60.0,5.0,0.0
4873,82.0,0.0,60.0,0.0,0.0
4874,73.0,0.0,60.0,4.0,0.0
4875,82.0,6.0,120.0,1.0,0.0
4876,73.0,54.0,60.0,1.0,0.0
4877,82.0,0.0,60.0,2.0,0.0
4878,70.0,0.0,60.0,4.0,0.0
4879,78.0,0.0,60.0,0.0,0.0
4880,42.0,0.0,60.0,5.0,0.0
4881,78.0,0.0,60.0,2.0,0.0
4882,73.0,0.0,60.0,1.0,0.0
4883,78.0,60.0,60.0,3.0,0.0
4884,75.0,0.0,60.0,3.0,0.0
4885,75.0,0.0,60.0,0.0,0.0
4886,70.0,0.0,60.0,4.0,0.0
4887,75.0,0.0,60.0,2.0,0.0
4888,42.0,0.0,60.0,5.0,0.0
4889,85.0,6.0,120.0,1.0,0.0
4890,78.0,0.0,60.0,1.0,0.0
4891,82.0,60.0,60.0,1.0,0.0
4892,70.0,0.0,60.0,4.0,0.0
4893,70.0,0.0,60.0,2.0,0.0
4894,70.0,0.0,60.0,3.0,0.0
4895,70.0,0.0,60.0,0.0,0.0
4896,43.0,0.0,60.0,5.0,0.0
4897,68.0,0.0,60.0,3.0,0.0
4898,80.0,7.0,330.0,1.0,0.0
4899,85.0,0.0,330.0,1.0,0.0
4900,68.0,0.0,120.0,0.0,0.0
4901,68.0,0.0,60.0,4.0,0.0
4902,68.0,18.0,210.0,2.0,0.0
4903,44.0,54.0,60.0,5.0,0.0
4904,44.0,0.0,60.0,5.0,0.0
4905,68.0,0.0,60.0,4.0,0.0
4906,68.0,33.0,60.0,3.0,0.0
4907,68.0,3.0,60.0,4.0,0.0
4908,73.0,0.0,60.0,3.0,0.0
4909,44.0,0.0,60.0,5.0,0.0
4910,80.0,27.0,30.0,0.0,0.0
4911,77.0,30.0,30.0,0.0,0.0
4912,68.0,0.0,60.0,4.0,0.0
4913,75.0,9.0,30.0,0.0,0.0
4914,44.0,0.0,60.0,5.0,0.0
4915,73.0,3.0,60.0,3.0,0.0
4916,73.0,16.0,30.0,0.0,0.0
4917,75.0,15.0,15.0,2.0,0.0
4918,75.0,0.0,15.0,0.0,0.0
4919,44.0,4.0,60.0,5.0,0.0
4920,68.0,0.0,60.0,4.0,0.0
4921,73.0,0.0,60.0,3.0,0.0
4922,77.0,0.0,15.0,0.0,0.0
4923,77.0,15.0,15.0,2.0,0.0
4924,75.0,0.0,15.0,0.0,0.0
4925,75.0,11.0,15.0,2.0,0.0
4926,77.0,15.0,15.0,0.0,0.0
4927,77.0,0.0,15.0,2.0,0.0
4928,68.0,4.0,60.0,4.0,0.0
4929,75.0,15.0,15.0,2.0,0.0
4930,44.0,0.0,60.0,5.0,0.0
4931,75.0,0.0,15.0,0.0,0.0
4932,73.0,0.0,60.0,3.0,0.0
4933,77.0,0.0,15.0,2.0,0.0
4934,77.0,8.0,15.0,0.0,0.0
4935,75.0,11.0,15.0,2.0,0.0
4936,75.0,0.0,15.0,0.0,0.0
4937,77.0,0.0,15.0,0.0,0.0
4938,77.0,15.0,15.0,2.0,0.0
4939,75.0,15.0,15.0,0.0,0.0
4940,72.0,6.0,120.0,0.0,0.0
4941,66.0,0.0,60.0,4.0,0.0
4942,84.0,0.0,120.0,1.0,0.0
4943,72.0,0.0,60.0,3.0,0.0
4944,44.0,4.0,60.0,5.0,0.0
4945,80.0,0.0,120.0,1.0,0.0
4946,75.0,0.0,15.0,2.0,0.0
4947,77.0,0.0,15.0,2.0,0.0
4948,77.0,15.0,15.0,0.0,0.0
4949,75.0,0.0,15.0,2.0,0.0
4950,75.0,11.0,15.0,0.0,0.0
4951,77.0,0.0,15.0,0.0,0.0
4952,77.0,29.0,15.0,2.0,0.0
4953,73.0,0.0,30.0,2.0,0.0
4954,44.0,0.0,60.0,5.0,0.0
4955,72.0,3.0,60.0,3.0,0.0
4956,73.0,21.0,30.0,0.0,0.0
4957,66.0,0.0,60.0,4.0,0.0
4958,75.0,57.0,30.0,0.0,0.0
4959,75.0,0.0,30.0,2.0,0.0
4960,49.0,0.0,60.0,5.0,0.0
4961,73.0,0.0,120.0,1.0,0.0
4962,73.0,0.0,60.0,0.0,0.0
4963,73.0,0.0,60.0,2.0,0.0
4964,65.0,0.0,60.0,4.0,0.0
4965,85.0,9.0,120.0,1.0,0.0
4966,73.0,33.0,60.0,3.0,0.0
4967,61.0,0.0,30.0,2.0,0.0
4968,61.0,21.0,30.0,3.0,0.0
4969,37.0,0.0,30.0,5.0,0.0
4970,73.0,0.0,30.0,0.0,0.0
4971,61.0,0.0,30.0,4.0,0.0
4972,63.0,57.0,30.0,2.0,0.0
4973,39.0,0.0,30.0,5.0,0.0
4974,63.0,0.0,30.0,3.0,0.0
4975,75.0,0.0,30.0,0.0,0.0
4976,63.0,0.0,30.0,4.0,0.0
4977,65.0,60.0,60.0,4.0,0.0
4978,65.0,0.0,60.0,2.0,0.0
4979,41.0,0.0,60.0,5.0,0.0
4980,65.0,0.0,60.0,3.0,0.0
4981,77.0,0.0,60.0,0.0,0.0
4982,42.0,0.0,60.0,5.0,0.0
4983,78.0,114.0,60.0,0.0,0.0
4984,66.0,0.0,60.0,2.0,0.0
4985,66.0,0.0,60.0,4.0,0.0
4986,66.0,0.0,60.0,3.0,0.0
4987,80.0,0.0,120.0,0.0,0.0
4988,68.0,0.0,120.0,2.0,0.0
4989,68.0,0.0,120.0,3.0,0.0
4990,44.0,120.0,120.0,5.0,0.0
4991,68.0,0.0,120.0,4.0,0.0
4992,84.0,0.0,120.0,0.0,0.0
4993,84.0,0.0,120.0,2.0,0.0
4994,75.0,0.0,120.0,2.0,0.0
4995,68.0,0.0,120.0,2.0,0.0
4996,78.0,0.0,120.0,4.0,0.0
4997,84.0,0.0,120.0,3.0,0.0
4998,75.0,0.0,120.0,3.0,0.0
4999,68.0,0.0,120.0,3.0,0.0
5000,32.0,0.0,120.0,5.0,0.0
5001,75.0,0.0,120.0,0.0,0.0
5002,78.0,0.0,120.0,1.0,0.0
5003,80.0,66.0,120.0,1.0,0.0
5004,73.0,9.0,120.0,1.0,0.0
5005,80.0,0.0,120.0,1.0,0.0
5006,80.0,0.0,60.0,4.0,0.0
5007,85.0,0.0,60.0,2.0,0.0
5008,77.0,0.0,60.0,2.0,0.0
5009,37.0,0.0,60.0,5.0,0.0
5010,77.0,0.0,60.0,0.0,0.0
5011,85.0,0.0,60.0,0.0,0.0
5012,77.0,0.0,60.0,3.0,0.0
5013,68.0,0.0,60.0,3.0,0.0
5014,68.0,33.0,60.0,2.0,0.0
5015,85.0,0.0,60.0,3.0,0.0
5016,73.0,0.0,30.0,0.0,0.0
5017,61.0,21.0,30.0,3.0,0.0
5018,61.0,0.0,30.0,4.0,0.0
5019,37.0,0.0,30.0,5.0,0.0
5020,61.0,0.0,30.0,2.0,0.0
5021,39.0,0.0,30.0,5.0,0.0
5022,63.0,57.0,30.0,2.0,0.0
5023,63.0,0.0,30.0,4.0,0.0
5024,63.0,0.0,30.0,3.0,0.0
5025,75.0,0.0,30.0,0.0,0.0
5026,41.0,0.0,60.0,5.0,0.0
5027,65.0,0.0,60.0,4.0,0.0
5028,65.0,60.0,60.0,3.0,0.0
5029,65.0,0.0,60.0,2.0,0.0
5030,77.0,0.0,60.0,0.0,0.0
5031,66.0,0.0,60.0,4.0,0.0
5032,42.0,0.0,60.0,5.0,0.0
5033,78.0,0.0,60.0,0.0,0.0
5034,66.0,114.0,60.0,2.0,0.0
5035,66.0,0.0,60.0,3.0,0.0
5036,68.0,0.0,120.0,2.0,0.0
5037,80.0,0.0,120.0,0.0,0.0
5038,44.0,0.0,120.0,5.0,0.0
5039,68.0,0.0,120.0,4.0,0.0
5040,68.0,0.0,120.0,3.0,0.0
5041,68.0,0.0,120.0,2.0,0.0
5042,84.0,0.0,120.0,2.0,0.0
5043,78.0,0.0,120.0,1.0,0.0
5044,80.0,0.0,120.0,1.0,0.0
5045,75.0,0.0,120.0,2.0,0.0
5046,84.0,0.0,120.0,0.0,0.0
5047,75.0,0.0,120.0,0.0,0.0
5048,32.0,0.0,120.0,5.0,0.0
5049,75.0,0.0,120.0,3.0,0.0
5050,84.0,0.0,120.0,3.0,0.0
5051,68.0,0.0,120.0,3.0,0.0
5052,78.0,120.0,120.0,4.0,0.0
5053,85.0,0.0,120.0,2.0,0.0
5054,77.0,0.0,120.0,3.0,0.0
5055,68.0,0.0,120.0,3.0,0.0
5056,80.0,0.0,120.0,1.0,0.0
5057,73.0,0.0,120.0,1.0,0.0
5058,77.0,228.0,120.0,2.0,0.0
5059,77.0,0.0,120.0,4.0,0.0
5060,73.0,0.0,120.0,0.0,0.0
5061,85.0,0.0,120.0,0.0,0.0
5062,37.0,0.0,120.0,5.0,0.0
5063,85.0,0.0,120.0,3.0,0.0
5064,68.0,0.0,120.0,2.0,0.0
5065,62.0,120.0,210.0,2.0,0.0
5066,74.0,83.0,330.0,0.0,0.0
5067,62.0,0.0,330.0,4.0,0.0
5068,38.0,0.0,330.0,5.0,0.0
5069,62.0,0.0,330.0,3.0,0.0
5070,63.0,0.0,60.0,2.0,0.0
5071,82.0,71.0,120.0,1.0,0.0
5072,70.0,0.0,120.0,1.0,0.0
5073,39.0,49.0,60.0,5.0,0.0
5074,63.0,0.0,60.0,3.0,0.0
5075,63.0,0.0,60.0,4.0,0.0
5076,75.0,0.0,60.0,0.0,0.0
5077,65.0,0.0,60.0,4.0,0.0
5078,77.0,0.0,60.0,0.0,0.0
5079,65.0,0.0,60.0,3.0,0.0
5080,65.0,0.0,60.0,2.0,0.0
5081,41.0,120.0,60.0,5.0,0.0
5082,78.0,0.0,60.0,0.0,0.0
5083,66.0,0.0,60.0,3.0,0.0
5084,42.0,0.0,60.0,5.0,0.0
5085,66.0,0.0,60.0,2.0,0.0
5086,66.0,120.0,60.0,4.0,0.0
5087,62.0,0.0,60.0,4.0,0.0
5088,70.0,0.0,120.0,1.0,0.0
5089,38.0,0.0,60.0,5.0,0.0
5090,82.0,71.0,120.0,1.0,0.0
5091,62.0,49.0,60.0,2.0,0.0
5092,74.0,0.0,60.0,0.0,0.0
5093,62.0,0.0,60.0,3.0,0.0
5094,82.0,0.0,120.0,1.0,0.0
5095,39.0,49.0,60.0,5.0,0.0
5096,63.0,0.0,60.0,3.0,0.0
5097,63.0,0.0,60.0,4.0,0.0
5098,70.0,71.0,120.0,1.0,0.0
5099,63.0,0.0,60.0,2.0,0.0
5100,75.0,0.0,120.0,0.0,0.0
5101,65.0,0.0,60.0,3.0,0.0
5102,65.0,0.0,60.0,2.0,0.0
5103,41.0,0.0,60.0,5.0,0.0
5104,77.0,71.0,120.0,0.0,0.0
5105,65.0,49.0,60.0,4.0,0.0
5106,66.0,49.0,60.0,2.0,0.0
5107,66.0,0.0,60.0,3.0,0.0
5108,78.0,71.0,120.0,0.0,0.0
5109,66.0,0.0,60.0,4.0,0.0
5110,42.0,0.0,60.0,5.0,0.0
5111,82.0,39.0,120.0,1.0,0.0
5112,74.0,0.0,120.0,0.0,0.0
5113,62.0,49.0,60.0,3.0,0.0
5114,70.0,0.0,120.0,1.0,0.0
5115,62.0,0.0,60.0,4.0,0.0
5116,62.0,0.0,60.0,2.0,0.0
5117,38.0,0.0,60.0,5.0,0.0
5118,63.0,2.0,30.0,2.0,0.0
5119,75.0,0.0,120.0,0.0,0.0
5120,63.0,3.0,60.0,4.0,0.0
5121,82.0,9.0,120.0,1.0,0.0
5122,39.0,25.0,30.0,5.0,0.0
5123,63.0,0.0,30.0,3.0,0.0
5124,82.0,30.0,30.0,3.0,0.0
5125,85.0,0.0,30.0,2.0,0.0
5126,75.0,6.0,120.0,4.0,0.0
5127,82.0,0.0,30.0,3.0,0.0
5128,41.0,19.0,30.0,5.0,0.0
5129,85.0,2.0,30.0,2.0,0.0
5130,82.0,27.0,30.0,3.0,0.0
5131,85.0,0.0,30.0,2.0,0.0
5132,85.0,0.0,20.0,2.0,0.0
5133,43.0,19.0,30.0,5.0,0.0
5134,82.0,5.0,20.0,3.0,0.0
5135,85.0,0.0,330.0,0.0,0.0
5136,75.0,30.0,60.0,0.0,0.0
5137,85.0,0.0,20.0,2.0,0.0
5138,82.0,0.0,20.0,3.0,0.0
5139,77.0,0.0,60.0,0.0,0.0
5140,82.0,0.0,20.0,3.0,0.0
5141,85.0,5.0,20.0,2.0,0.0
5142,44.0,25.0,30.0,5.0,0.0
5143,75.0,6.0,120.0,4.0,0.0
5144,85.0,30.0,20.0,2.0,0.0
5145,82.0,0.0,20.0,3.0,0.0
5146,79.0,24.0,20.0,3.0,0.0
5147,85.0,0.0,20.0,2.0,0.0
5148,82.0,0.0,20.0,3.0,0.0
5149,79.0,18.0,210.0,0.0,0.0
5150,46.0,6.0,120.0,5.0,0.0
5151,82.0,0.0,20.0,3.0,0.0
5152,85.0,0.0,20.0,2.0,0.0
5153,79.0,30.0,20.0,3.0,0.0
5154,82.0,0.0,20.0,3.0,0.0
5155,75.0,6.0,120.0,4.0,0.0
5156,79.0,24.0,20.0,3.0,0.0
5157,85.0,0.0,20.0,2.0,0.0
5158,85.0,0.0,20.0,2.0,0.0
5159,79.0,30.0,20.0,3.0,0.0
5160,82.0,0.0,20.0,3.0,0.0
5161,79.0,0.0,20.0,3.0,0.0
5162,82.0,0.0,20.0,3.0,0.0
5163,85.0,24.0,20.0,2.0,0.0
5164,85.0,30.0,20.0,2.0,0.0
5165,82.0,0.0,20.0,3.0,0.0
5166,79.0,0.0,20.0,3.0,0.0
5167,75.0,0.0,120.0,4.0,0.0
5168,79.0,12.0,20.0,3.0,0.0
5169,85.0,0.0,20.0,2.0,0.0
5170,82.0,0.0,20.0,3.0,0.0
5171,79.0,0.0,20.0,3.0,0.0
5172,82.0,30.0,20.0,3.0,0.0
5173,85.0,0.0,20.0,2.0,0.0
5174,83.0,0.0,20.0,2.0,0.0
5175,80.0,5.0,20.0,3.0,0.0
5176,83.0,0.0,450.0,0.0,0.0
5177,80.0,18.0,450.0,0.0,0.0
5178,44.0,25.0,30.0,5.0,0.0
5179,80.0,0.0,20.0,3.0,0.0
5180,83.0,30.0,20.0,2.0,0.0
5181,80.0,0.0,20.0,3.0,0.0
5182,83.0,5.0,20.0,2.0,0.0
5183,46.0,25.0,30.0,5.0,0.0
5184,75.0,6.0,120.0,4.0,0.0
5185,83.0,0.0,20.0,2.0,0.0
5186,80.0,30.0,20.0,3.0,0.0
5187,80.0,0.0,20.0,3.0,0.0
5188,83.0,5.0,20.0,2.0,0.0
5189,47.0,19.0,30.0,5.0,0.0
5190,80.0,0.0,20.0,3.0,0.0
5191,83.0,30.0,20.0,2.0,0.0
5192,75.0,6.0,120.0,4.0,0.0
5193,49.0,25.0,30.0,5.0,0.0
5194,80.0,0.0,20.0,3.0,0.0
5195,83.0,5.0,20.0,2.0,0.0
5196,80.0,0.0,20.0,3.0,0.0
5197,83.0,30.0,20.0,2.0,0.0
5198,51.0,6.0,120.0,5.0,0.0
5199,83.0,24.0,20.0,2.0,0.0
5200,80.0,0.0,20.0,3.0,0.0
5201,80.0,30.0,20.0,3.0,0.0
5202,83.0,0.0,20.0,2.0,0.0
5203,75.0,6.0,120.0,4.0,0.0
5204,83.0,24.0,20.0,2.0,0.0
5205,80.0,0.0,20.0,3.0,0.0
5206,80.0,0.0,20.0,3.0,0.0
5207,83.0,30.0,20.0,2.0,0.0
5208,80.0,0.0,20.0,3.0,0.0
5209,83.0,24.0,20.0,2.0,0.0
5210,80.0,30.0,20.0,3.0,0.0
5211,83.0,0.0,20.0,2.0,0.0
5212,80.0,0.0,20.0,3.0,0.0
5213,75.0,0.0,120.0,4.0,0.0
5214,83.0,12.0,20.0,2.0,0.0
5215,80.0,0.0,20.0,3.0,0.0
5216,83.0,30.0,20.0,2.0,0.0
5217,85.0,0.0,20.0,2.0,0.0
5218,82.0,18.0,210.0,0.0,0.0
5219,85.0,18.0,450.0,0.0,0.0
5220,82.0,5.0,20.0,3.0,0.0
5221,39.0,25.0,30.0,5.0,0.0
5222,82.0,0.0,20.0,3.0,0.0
5223,85.0,30.0,20.0,2.0,0.0
5224,75.0,6.0,120.0,4.0,0.0
5225,82.0,0.0,20.0,3.0,0.0
5226,85.0,5.0,20.0,2.0,0.0
5227,41.0,25.0,30.0,5.0,0.0
5228,85.0,30.0,20.0,2.0,0.0
5229,82.0,0.0,20.0,3.0,0.0
5230,82.0,0.0,20.0,3.0,0.0
5231,43.0,19.0,30.0,5.0,0.0
5232,85.0,5.0,20.0,2.0,0.0
5233,82.0,0.0,20.0,3.0,0.0
5234,85.0,30.0,20.0,2.0,0.0
5235,44.0,7.0,30.0,5.0,0.0
5236,75.0,6.0,120.0,4.0,0.0
5237,82.0,0.0,20.0,3.0,0.0
5238,85.0,5.0,20.0,2.0,0.0
5239,82.0,0.0,20.0,3.0,0.0
5240,85.0,30.0,20.0,2.0,0.0
5241,46.0,6.0,120.0,5.0,0.0
5242,85.0,24.0,20.0,2.0,0.0
5243,79.0,0.0,210.0,0.0,0.0
5244,82.0,0.0,20.0,3.0,0.0
5245,79.0,0.0,20.0,3.0,0.0
5246,85.0,0.0,20.0,2.0,0.0
5247,82.0,0.0,20.0,3.0,0.0
5248,79.0,30.0,20.0,3.0,0.0
5249,85.0,0.0,20.0,2.0,0.0
5250,79.0,0.0,20.0,3.0,0.0
5251,82.0,24.0,20.0,3.0,0.0
5252,75.0,6.0,120.0,4.0,0.0
5253,82.0,0.0,20.0,3.0,0.0
5254,79.0,0.0,20.0,3.0,0.0
5255,85.0,30.0,20.0,2.0,0.0
5256,85.0,0.0,20.0,2.0,0.0
5257,79.0,0.0,20.0,3.0,0.0
5258,82.0,24.0,20.0,3.0,0.0
5259,82.0,0.0,20.0,3.0,0.0
5260,85.0,0.0,20.0,2.0,0.0
5261,79.0,30.0,20.0,3.0,0.0
5262,79.0,12.0,20.0,3.0,0.0
5263,85.0,0.0,20.0,2.0,0.0
5264,75.0,0.0,120.0,4.0,0.0
5265,82.0,0.0,20.0,3.0,0.0
5266,79.0,0.0,20.0,3.0,0.0
5267,82.0,60.0,20.0,3.0,0.0
5268,85.0,0.0,20.0,2.0,0.0
5269,83.0,0.0,60.0,0.0,0.0
5270,80.0,0.0,60.0,0.0,0.0
5271,83.0,0.0,60.0,3.0,0.0
5272,44.0,0.0,60.0,5.0,0.0
5273,83.0,60.0,60.0,2.0,0.0
5274,68.0,0.0,60.0,3.0,0.0
5275,68.0,0.0,60.0,4.0,0.0
5276,44.0,0.0,60.0,5.0,0.0
5277,68.0,0.0,60.0,2.0,0.0
5278,68.0,60.0,60.0,0.0,0.0
5279,71.0,0.0,60.0,3.0,0.0
5280,71.0,0.0,60.0,4.0,0.0
5281,71.0,0.0,60.0,2.0,0.0
5282,47.0,0.0,60.0,5.0,0.0
5283,71.0,60.0,60.0,0.0,0.0
5284,75.0,0.0,60.0,0.0,0.0
5285,75.0,87.0,60.0,3.0,0.0
5286,51.0,0.0,60.0,5.0,0.0
5287,75.0,0.0,60.0,2.0,0.0
5288,75.0,0.0,60.0,4.0,0.0
5289,56.0,36.0,90.0,5.0,0.0
5290,80.0,0.0,90.0,3.0,0.0
5291,80.0,0.0,90.0,2.0,0.0
5292,80.0,0.0,90.0,4.0,0.0
5293,80.0,0.0,90.0,0.0,0.0
5294,78.0,0.0,30.0,4.0,0.0
5295,54.0,0.0,30.0,5.0,0.0
5296,78.0,0.0,30.0,0.0,0.0
5297,78.0,16.0,30.0,3.0,0.0
5298,78.0,0.0,30.0,2.0,0.0
5299,78.0,15.0,15.0,3.0,0.0
5300,54.0,0.0,15.0,5.0,0.0
5301,78.0,0.0,15.0,0.0,0.0
5302,78.0,0.0,15.0,4.0,0.0
5303,78.0,0.0,15.0,2.0,0.0
5304,80.0,0.0,15.0,2.0,0.0
5305,80.0,15.0,15.0,0.0,0.0
5306,56.0,0.0,15.0,5.0,0.0
5307,80.0,0.0,15.0,3.0,0.0
5308,80.0,0.0,15.0,4.0,0.0
5309,78.0,0.0,15.0,2.0,0.0
5310,78.0,15.0,15.0,4.0,0.0
5311,78.0,0.0,15.0,0.0,0.0
5312,54.0,0.0,15.0,5.0,0.0
5313,78.0,0.0,15.0,3.0,0.0
5314,80.0,0.0,15.0,3.0,0.0
5315,56.0,15.0,15.0,5.0,0.0
5316,80.0,0.0,15.0,0.0,0.0
5317,80.0,0.0,15.0,2.0,0.0
5318,80.0,0.0,15.0,4.0,0.0
5319,78.0,0.0,15.0,2.0,0.0
5320,78.0,0.0,15.0,3.0,0.0
5321,78.0,15.0,15.0,0.0,0.0
5322,54.0,0.0,15.0,5.0,0.0
5323,78.0,0.0,15.0,4.0,0.0
5324,80.0,0.0,15.0,3.0,0.0
5325,80.0,0.0,15.0,4.0,0.0
5326,80.0,15.0,15.0,2.0,0.0
5327,56.0,0.0,15.0,5.0,0.0
5328,80.0,0.0,15.0,0.0,0.0
5329,77.0,0.0,15.0,0.0,0.0
5330,77.0,15.0,15.0,4.0,0.0
5331,77.0,0.0,15.0,2.0,0.0
5332,53.0,0.0,15.0,5.0,0.0
5333,77.0,0.0,15.0,3.0,0.0
5334,54.0,0.0,15.0,5.0,0.0
5335,78.0,0.0,15.0,2.0,0.0
5336,78.0,26.0,15.0,4.0,0.0
5337,78.0,0.0,15.0,0.0,0.0
5338,78.0,0.0,15.0,3.0,0.0
5339,53.0,3.0,60.0,5.0,0.0
5340,80.0,3.0,20.0,3.0,0.0
5341,80.0,0.0,450.0,1.0,0.0
5342,77.0,6.0,120.0,0.0,0.0
5343,73.0,27.0,30.0,2.0,0.0
5344,77.0,0.0,20.0,3.0,0.0
5345,83.0,0.0,450.0,1.0,0.0
5346,77.0,0.0,60.0,4.0,0.0
5347,80.0,0.0,20.0,3.0,0.0
5348,77.0,0.0,20.0,3.0,0.0
5349,83.0,27.0,30.0,2.0,0.0
5350,80.0,0.0,20.0,3.0,0.0
5351,77.0,3.0,20.0,3.0,0.0
5352,73.0,6.0,120.0,4.0,0.0
5353,37.0,3.0,60.0,5.0,0.0
5354,83.0,21.0,30.0,2.0,0.0
5355,80.0,0.0,20.0,3.0,0.0
5356,77.0,0.0,20.0,3.0,0.0
5357,83.0,27.0,30.0,2.0,0.0
5358,77.0,0.0,20.0,3.0,0.0
5359,80.0,0.0,20.0,3.0,0.0
5360,41.0,30.0,60.0,5.0,0.0
5361,83.0,24.0,20.0,2.0,0.0
5362,77.0,0.0,20.0,3.0,0.0
5363,80.0,0.0,20.0,3.0,0.0
5364,83.0,0.0,20.0,2.0,0.0
5365,73.0,6.0,120.0,4.0,0.0
5366,83.0,30.0,20.0,2.0,0.0
5367,77.0,0.0,20.0,3.0,0.0
5368,80.0,0.0,20.0,3.0,0.0
5369,44.0,30.0,60.0,5.0,0.0
5370,77.0,0.0,20.0,3.0,0.0
5371,80.0,0.0,20.0,3.0,0.0
5372,83.0,0.0,20.0,2.0,0.0
5373,80.0,0.0,20.0,3.0,0.0
5374,49.0,6.0,120.0,5.0,0.0
5375,83.0,0.0,20.0,2.0,0.0
5376,77.0,24.0,20.0,3.0,0.0
5377,83.0,0.0,210.0,0.0,0.0
5378,77.0,18.0,210.0,0.0,0.0
5379,80.0,30.0,20.0,3.0,0.0
5380,77.0,0.0,20.0,3.0,0.0
5381,83.0,0.0,20.0,2.0,0.0
5382,80.0,0.0,20.0,3.0,0.0
5383,77.0,24.0,20.0,3.0,0.0
5384,73.0,6.0,120.0,4.0,0.0
5385,83.0,0.0,20.0,2.0,0.0
5386,77.0,30.0,20.0,3.0,0.0
5387,80.0,0.0,20.0,3.0,0.0
5388,83.0,0.0,20.0,2.0,0.0
5389,77.0,24.0,20.0,3.0,0.0
5390,80.0,0.0,20.0,3.0,0.0
5391,83.0,0.0,20.0,2.0,0.0
5392,83.0,0.0,20.0,2.0,0.0
5393,77.0,0.0,20.0,3.0,0.0
5394,80.0,30.0,20.0,3.0,0.0
5395,83.0,12.0,20.0,2.0,0.0
5396,73.0,0.0,120.0,4.0,0.0
5397,77.0,0.0,20.0,3.0,0.0
5398,80.0,0.0,20.0,3.0,0.0
5399,80.0,30.0,20.0,3.0,0.0
5400,77.0,0.0,20.0,3.0,0.0
5401,83.0,0.0,20.0,2.0,0.0
5402,82.0,18.0,450.0,0.0,0.0
5403,78.0,0.0,450.0,0.0,0.0
5404,78.0,0.0,20.0,3.0,0.0
5405,42.0,0.0,60.0,5.0,0.0
5406,82.0,0.0,450.0,1.0,0.0
5407,78.0,0.0,450.0,1.0,0.0
5408,82.0,30.0,20.0,2.0,0.0
5409,78.0,30.0,20.0,3.0,0.0
5410,82.0,0.0,20.0,2.0,0.0
5411,73.0,6.0,120.0,4.0,0.0
5412,82.0,0.0,20.0,2.0,0.0
5413,78.0,30.0,20.0,3.0,0.0
5414,44.0,30.0,60.0,5.0,0.0
5415,82.0,0.0,20.0,2.0,0.0
5416,78.0,0.0,20.0,3.0,0.0
5417,82.0,0.0,20.0,2.0,0.0
5418,78.0,24.0,20.0,3.0,0.0
5419,46.0,30.0,60.0,5.0,0.0
5420,78.0,0.0,20.0,3.0,0.0
5421,82.0,0.0,20.0,2.0,0.0
5422,73.0,6.0,120.0,4.0,0.0
5423,82.0,0.0,20.0,2.0,0.0
5424,78.0,30.0,20.0,3.0,0.0
5425,47.0,0.0,60.0,5.0,0.0
5426,82.0,0.0,20.0,2.0,0.0
5427,78.0,30.0,20.0,3.0,0.0
5428,49.0,6.0,120.0,5.0,0.0
5429,82.0,0.0,20.0,2.0,0.0
5430,78.0,24.0,20.0,3.0,0.0
5431,82.0,0.0,20.0,2.0,0.0
5432,78.0,30.0,20.0,3.0,0.0
5433,78.0,0.0,20.0,3.0,0.0
5434,82.0,24.0,20.0,2.0,0.0
5435,73.0,6.0,120.0,4.0,0.0
5436,78.0,30.0,20.0,3.0,0.0
5437,82.0,0.0,20.0,2.0,0.0
5438,82.0,24.0,20.0,2.0,0.0
5439,78.0,0.0,20.0,3.0,0.0
5440,78.0,30.0,20.0,3.0,0.0
5441,82.0,0.0,20.0,2.0,0.0
5442,82.0,12.0,20.0,2.0,0.0
5443,78.0,0.0,20.0,3.0,0.0
5444,73.0,30.0,120.0,4.0,0.0
5445,82.0,0.0,20.0,2.0,0.0
5446,78.0,30.0,20.0,3.0,0.0
5447,77.0,30.0,20.0,3.0,0.0
5448,80.0,0.0,20.0,3.0,0.0
5449,80.0,0.0,450.0,0.0,0.0
5450,80.0,0.0,450.0,1.0,0.0
5451,83.0,0.0,450.0,1.0,0.0
5452,83.0,18.0,450.0,0.0,0.0
5453,83.0,0.0,20.0,2.0,0.0
5454,37.0,0.0,60.0,5.0,0.0
5455,83.0,0.0,20.0,2.0,0.0
5456,80.0,0.0,20.0,3.0,0.0
5457,77.0,0.0,20.0,3.0,0.0
5458,77.0,0.0,20.0,3.0,0.0
5459,83.0,30.0,20.0,2.0,0.0
5460,80.0,0.0,20.0,3.0,0.0
5461,39.0,0.0,60.0,5.0,0.0
5462,73.0,6.0,120.0,4.0,0.0
5463,77.0,30.0,20.0,3.0,0.0
5464,80.0,0.0,20.0,3.0,0.0
5465,83.0,0.0,20.0,2.0,0.0
5466,41.0,0.0,60.0,5.0,0.0
5467,83.0,24.0,20.0,2.0,0.0
5468,80.0,0.0,20.0,3.0,0.0
5469,77.0,0.0,20.0,3.0,0.0
5470,77.0,0.0,20.0,3.0,0.0
5471,80.0,0.0,20.0,3.0,0.0
5472,83.0,30.0,20.0,2.0,0.0
5473,80.0,30.0,20.0,3.0,0.0
5474,77.0,0.0,20.0,3.0,0.0
5475,42.0,30.0,60.0,5.0,0.0
5476,73.0,6.0,120.0,4.0,0.0
5477,83.0,0.0,20.0,2.0,0.0
5478,77.0,0.0,20.0,3.0,0.0
5479,80.0,0.0,20.0,3.0,0.0
5480,83.0,0.0,20.0,2.0,0.0
5481,77.0,0.0,20.0,3.0,0.0
5482,80.0,0.0,20.0,3.0,0.0
5483,83.0,24.0,20.0,2.0,0.0
5484,44.0,6.0,120.0,5.0,0.0
5485,80.0,0.0,20.0,3.0,0.0
5486,83.0,30.0,20.0,2.0,0.0
5487,77.0,0.0,20.0,3.0,0.0
5488,83.0,0.0,20.0,2.0,0.0
5489,73.0,6.0,120.0,4.0,0.0
5490,77.0,0.0,20.0,3.0,0.0
5491,80.0,24.0,20.0,3.0,0.0
5492,80.0,0.0,20.0,3.0,0.0
5493,83.0,0.0,20.0,2.0,0.0
5494,77.0,30.0,20.0,3.0,0.0
5495,80.0,0.0,20.0,3.0,0.0
5496,83.0,24.0,20.0,2.0,0.0
5497,77.0,0.0,20.0,3.0,0.0
5498,77.0,0.0,20.0,3.0,0.0
5499,80.0,0.0,20.0,3.0,0.0
5500,83.0,30.0,20.0,2.0,0.0
5501,73.0,0.0,180.0,4.0,0.0
5502,83.0,12.0,20.0,2.0,0.0
5503,80.0,0.0,20.0,3.0,0.0
5504,77.0,0.0,20.0,3.0,0.0
5505,83.0,60.0,20.0,2.0,0.0
5506,77.0,0.0,20.0,3.0,0.0
5507,80.0,0.0,20.0,3.0,0.0
5508,82.0,54.0,60.0,2.0,0.0
5509,78.0,0.0,120.0,1.0,0.0
5510,82.0,0.0,120.0,1.0,0.0
5511,78.0,0.0,120.0,0.0,0.0
5512,82.0,0.0,120.0,0.0,0.0
5513,82.0,0.0,60.0,3.0,0.0
5514,42.0,6.0,120.0,5.0,0.0
5515,66.0,60.0,60.0,3.0,0.0
5516,66.0,0.0,60.0,2.0,0.0
5517,70.0,60.0,60.0,2.0,0.0
5518,70.0,0.0,60.0,3.0,0.0
5519,73.0,0.0,60.0,3.0,0.0
5520,73.0,60.0,60.0,2.0,0.0
5521,85.0,7.0,210.0,1.0,0.0
5522,78.0,33.0,90.0,3.0,0.0
5523,73.0,0.0,210.0,1.0,0.0
5524,73.0,0.0,60.0,4.0,0.0
5525,78.0,0.0,90.0,2.0,0.0
5526,78.0,0.0,90.0,0.0,0.0
5527,54.0,27.0,60.0,5.0,0.0
5528,73.0,0.0,60.0,4.0,0.0
5529,49.0,3.0,60.0,5.0,0.0
5530,80.0,16.0,30.0,2.0,0.0
5531,80.0,0.0,30.0,0.0,0.0
5532,80.0,0.0,30.0,3.0,0.0
5533,53.0,0.0,60.0,5.0,0.0
5534,73.0,4.0,60.0,4.0,0.0
5535,80.0,15.0,15.0,0.0,0.0
5536,80.0,0.0,15.0,3.0,0.0
5537,80.0,0.0,15.0,2.0,0.0
5538,82.0,15.0,15.0,3.0,0.0
5539,82.0,0.0,15.0,2.0,0.0
5540,82.0,0.0,15.0,0.0,0.0
5541,80.0,0.0,15.0,2.0,0.0
5542,80.0,11.0,15.0,0.0,0.0
5543,80.0,0.0,15.0,3.0,0.0
5544,82.0,0.0,15.0,3.0,0.0
5545,82.0,0.0,15.0,0.0,0.0
5546,82.0,15.0,15.0,2.0,0.0
5547,49.0,4.0,60.0,5.0,0.0
5548,80.0,15.0,15.0,0.0,0.0
5549,73.0,0.0,60.0,4.0,0.0
5550,80.0,0.0,15.0,3.0,0.0
5551,80.0,0.0,15.0,2.0,0.0
5552,82.0,0.0,15.0,0.0,0.0
5553,82.0,0.0,15.0,2.0,0.0
5554,82.0,8.0,15.0,3.0,0.0
5555,78.0,11.0,15.0,3.0,0.0
5556,78.0,0.0,15.0,2.0,0.0
5557,78.0,0.0,15.0,0.0,0.0
5558,80.0,56.0,15.0,0.0,0.0
5559,80.0,0.0,15.0,3.0,0.0
5560,80.0,0.0,15.0,2.0,0.0
5561,73.0,0.0,120.0,1.0,0.0
5562,73.0,6.0,120.0,4.0,0.0
5563,82.0,0.0,60.0,2.0,0.0
5564,82.0,0.0,120.0,0.0,0.0
5565,82.0,54.0,60.0,3.0,0.0
5566,54.0,0.0,120.0,5.0,0.0
5567,85.0,0.0,120.0,1.0,0.0
5568,70.0,0.0,60.0,2.0,0.0
5569,70.0,60.0,60.0,3.0,0.0
5570,73.0,60.0,60.0,2.0,0.0
5571,73.0,0.0,60.0,3.0,0.0
5572,78.0,0.0,60.0,3.0,0.0
5573,78.0,60.0,60.0,2.0,0.0
5574,82.0,6.0,120.0,1.0,0.0
5575,78.0,0.0,120.0,1.0,0.0
5576,54.0,27.0,60.0,5.0,0.0
5577,82.0,0.0,90.0,0.0,0.0
5578,82.0,0.0,90.0,3.0,0.0
5579,82.0,27.0,90.0,2.0,0.0
5580,54.0,3.0,60.0,5.0,0.0
5581,66.0,0.0,60.0,4.0,0.0
5582,84.0,16.0,30.0,2.0,0.0
5583,84.0,0.0,30.0,0.0,0.0
5584,84.0,0.0,30.0,3.0,0.0
5585,84.0,0.0,15.0,3.0,0.0
5586,84.0,0.0,15.0,2.0,0.0
5587,84.0,0.0,120.0,1.0,0.0
5588,78.0,6.0,120.0,1.0,0.0
5589,51.0,0.0,60.0,5.0,0.0
5590,84.0,15.0,15.0,0.0,0.0
5591,78.0,4.0,60.0,4.0,0.0
5592,85.0,0.0,15.0,0.0,0.0
5593,85.0,15.0,15.0,3.0,0.0
5594,85.0,0.0,15.0,2.0,0.0
5595,84.0,11.0,15.0,2.0,0.0
5596,84.0,0.0,15.0,0.0,0.0
5597,84.0,0.0,15.0,3.0,0.0
5598,85.0,0.0,15.0,0.0,0.0
5599,85.0,15.0,15.0,3.0,0.0
5600,85.0,0.0,15.0,2.0,0.0
5601,84.0,15.0,15.0,0.0,0.0
5602,84.0,0.0,15.0,3.0,0.0
5603,84.0,0.0,15.0,2.0,0.0
5604,51.0,4.0,60.0,5.0,0.0
5605,78.0,0.0,60.0,4.0,0.0
5606,85.0,0.0,15.0,2.0,0.0
5607,85.0,0.0,15.0,3.0,0.0
5608,85.0,15.0,15.0,0.0,0.0
5609,82.0,0.0,15.0,0.0,0.0
5610,82.0,0.0,15.0,2.0,0.0
5611,82.0,5.0,15.0,3.0,0.0
5612,84.0,56.0,15.0,2.0,0.0
5613,84.0,0.0,15.0,3.0,0.0
5614,84.0,0.0,15.0,0.0,0.0
5615,73.0,0.0,60.0,4.0,0.0
5616,85.0,0.0,60.0,3.0,0.0
5617,49.0,0.0,60.0,5.0,0.0
5618,73.0,0.0,60.0,1.0,0.0
5619,85.0,0.0,60.0,0.0,0.0
5620,85.0,60.0,60.0,2.0,0.0
5621,85.0,0.0,60.0,1.0,0.0
5622,66.0,60.0,60.0,4.0,0.0
5623,42.0,0.0,60.0,5.0,0.0
5624,66.0,0.0,60.0,2.0,0.0
5625,66.0,0.0,60.0,3.0,0.0
5626,66.0,0.0,60.0,1.0,0.0
5627,78.0,0.0,60.0,1.0,0.0
5628,66.0,0.0,60.0,0.0,0.0
5629,73.0,0.0,60.0,1.0,0.0
5630,70.0,60.0,60.0,2.0,0.0
5631,70.0,0.0,60.0,4.0,0.0
5632,82.0,0.0,60.0,1.0,0.0
5633,70.0,0.0,60.0,3.0,0.0
5634,70.0,0.0,60.0,0.0,0.0
5635,46.0,0.0,60.0,5.0,0.0
5636,73.0,0.0,60.0,2.0,0.0
5637,66.0,7.0,210.0,1.0,0.0
5638,49.0,87.0,60.0,5.0,0.0
5639,78.0,0.0,210.0,1.0,0.0
5640,73.0,0.0,60.0,3.0,0.0
5641,73.0,0.0,60.0,4.0,0.0
5642,73.0,0.0,60.0,0.0,0.0
5643,78.0,0.0,90.0,4.0,0.0
5644,54.0,0.0,90.0,5.0,0.0
5645,78.0,0.0,90.0,2.0,0.0
5646,78.0,36.0,90.0,0.0,0.0
5647,78.0,0.0,90.0,3.0,0.0
5648,72.0,0.0,30.0,3.0,0.0
5649,72.0,16.0,30.0,0.0,0.0
5650,72.0,0.0,30.0,2.0,0.0
5651,48.0,0.0,30.0,5.0,0.0
5652,72.0,0.0,30.0,4.0,0.0
5653,72.0,0.0,15.0,0.0,0.0
5654,72.0,0.0,15.0,2.0,0.0
5655,72.0,0.0,15.0,4.0,0.0
5656,72.0,15.0,15.0,3.0,0.0
5657,48.0,0.0,15.0,5.0,0.0
5658,73.0,0.0,15.0,4.0,0.0
5659,73.0,0.0,15.0,3.0,0.0
5660,73.0,8.0,15.0,2.0,0.0
5661,73.0,0.0,15.0,0.0,0.0
5662,49.0,0.0,15.0,5.0,0.0
5663,48.0,0.0,15.0,5.0,0.0
5664,72.0,0.0,15.0,0.0,0.0
5665,72.0,15.0,15.0,2.0,0.0
5666,72.0,0.0,15.0,3.0,0.0
5667,72.0,0.0,15.0,4.0,0.0
5668,73.0,0.0,15.0,4.0,0.0
5669,73.0,15.0,15.0,3.0,0.0
5670,73.0,0.0,15.0,0.0,0.0
5671,73.0,0.0,15.0,2.0,0.0
5672,49.0,0.0,15.0,5.0,0.0
5673,72.0,15.0,15.0,3.0,0.0
5674,72.0,0.0,15.0,2.0,0.0
5675,72.0,0.0,15.0,0.0,0.0
5676,72.0,0.0,15.0,4.0,0.0
5677,48.0,0.0,15.0,5.0,0.0
5678,49.0,15.0,15.0,5.0,0.0
5679,73.0,0.0,15.0,3.0,0.0
5680,73.0,0.0,15.0,0.0,0.0
5681,73.0,0.0,15.0,4.0,0.0
5682,73.0,0.0,15.0,2.0,0.0
5683,70.0,0.0,15.0,0.0,0.0
5684,70.0,0.0,15.0,4.0,0.0
5685,70.0,15.0,15.0,2.0,0.0
5686,46.0,0.0,15.0,5.0,0.0
5687,70.0,0.0,15.0,3.0,0.0
5688,48.0,0.0,15.0,5.0,0.0
5689,72.0,110.0,15.0,4.0,0.0
5690,72.0,0.0,15.0,0.0,0.0
5691,72.0,0.0,15.0,3.0,0.0
5692,72.0,0.0,15.0,2.0,0.0
5693,73.0,0.0,120.0,1.0,0.0
5694,73.0,0.0,120.0,4.0,0.0
5695,73.0,0.0,120.0,3.0,0.0
5696,61.0,0.0,120.0,1.0,0.0
5697,73.0,0.0,120.0,0.0,0.0
5698,73.0,120.0,120.0,2.0,0.0
5699,49.0,0.0,120.0,5.0,0.0
5700,73.0,0.0,120.0,4.0,0.0
5701,73.0,0.0,120.0,1.0,0.0
5702,61.0,0.0,120.0,1.0,0.0
5703,37.0,0.0,120.0,5.0,0.0
5704,73.0,0.0,120.0,2.0,0.0
5705,68.0,120.0,120.0,2.0,0.0
5706,68.0,0.0,120.0,0.0,0.0
5707,77.0,0.0,120.0,0.0,0.0
5708,61.0,0.0,120.0,3.0,0.0
5709,68.0,0.0,120.0,3.0,0.0
5710,73.0,0.0,120.0,3.0,0.0
5711,61.0,0.0,120.0,2.0,0.0
5712,73.0,0.0,120.0,1.0,0.0
5713,68.0,0.0,120.0,0.0,0.0
5714,77.0,186.0,120.0,0.0,0.0
5715,61.0,0.0,120.0,1.0,0.0
5716,61.0,0.0,120.0,3.0,0.0
5717,68.0,0.0,120.0,3.0,0.0
5718,68.0,0.0,120.0,2.0,0.0
5719,73.0,0.0,120.0,2.0,0.0
5720,73.0,0.0,120.0,4.0,0.0
5721,73.0,0.0,120.0,3.0,0.0
5722,61.0,0.0,120.0,2.0,0.0
5723,37.0,0.0,120.0,5.0,0.0
5724,73.0,60.0,60.0,4.0,0.0
5725,61.0,12.0,810.0,1.0,0.0
5726,49.0,0.0,60.0,5.0,0.0
5727,77.0,0.0,60.0,2.0,0.0
5728,73.0,0.0,810.0,1.0,0.0
5729,51.0,0.0,60.0,5.0,0.0
5730,73.0,0.0,60.0,4.0,0.0
5731,78.0,60.0,60.0,2.0,0.0
5732,73.0,60.0,60.0,4.0,0.0
5733,53.0,0.0,60.0,5.0,0.0
5734,80.0,0.0,60.0,2.0,0.0
5735,82.0,0.0,60.0,2.0,0.0
5736,73.0,60.0,60.0,4.0,0.0
5737,54.0,0.0,60.0,5.0,0.0
5738,73.0,54.0,60.0,4.0,0.0
5739,83.0,0.0,120.0,2.0,0.0
5740,56.0,6.0,120.0,5.0,0.0
5741,73.0,60.0,60.0,4.0,0.0
5742,73.0,60.0,60.0,4.0,0.0
5743,73.0,35.0,60.0,4.0,0.0
5744,73.0,35.0,60.0,4.0,0.0
5745,80.0,0.0,30.0,0.0,0.0
5746,83.0,0.0,30.0,2.0,0.0
5747,83.0,0.0,30.0,0.0,0.0
5748,80.0,25.0,30.0,3.0,0.0
5749,82.0,0.0,30.0,0.0,0.0
5750,78.0,25.0,30.0,0.0,0.0
5751,73.0,35.0,60.0,4.0,0.0
5752,82.0,0.0,30.0,2.0,0.0
5753,78.0,0.0,30.0,3.0,0.0
5754,80.0,0.0,30.0,2.0,0.0
5755,77.0,25.0,30.0,3.0,0.0
5756,77.0,0.0,30.0,0.0,0.0
5757,80.0,0.0,30.0,0.0,0.0
5758,73.0,35.0,60.0,4.0,0.0
5759,73.0,60.0,60.0,4.0,0.0
5760,78.0,0.0,30.0,3.0,0.0
5761,82.0,0.0,30.0,2.0,0.0
5762,82.0,25.0,30.0,0.0,0.0
5763,78.0,0.0,30.0,0.0,0.0
5764,80.0,0.0,120.0,0.0,0.0
5765,80.0,42.0,60.0,3.0,0.0
5766,73.0,0.0,60.0,4.0,0.0
5767,83.0,6.0,120.0,0.0,0.0
5768,83.0,0.0,120.0,2.0,0.0
5769,73.0,60.0,60.0,4.0,0.0
5770,73.0,60.0,60.0,4.0,0.0
5771,73.0,35.0,60.0,4.0,0.0
5772,83.0,25.0,30.0,2.0,0.0
5773,85.0,0.0,450.0,1.0,0.0
5774,73.0,18.0,210.0,1.0,0.0
5775,73.0,0.0,450.0,4.0,0.0
5776,80.0,0.0,30.0,3.0,0.0
5777,83.0,0.0,30.0,0.0,0.0
5778,80.0,0.0,30.0,0.0,0.0
5779,37.0,35.0,60.0,5.0,0.0
5780,37.0,35.0,60.0,5.0,0.0
5781,78.0,0.0,30.0,0.0,0.0
5782,82.0,0.0,30.0,0.0,0.0
5783,82.0,0.0,30.0,2.0,0.0
5784,78.0,25.0,30.0,3.0,0.0
5785,80.0,0.0,30.0,0.0,0.0
5786,77.0,25.0,30.0,3.0,0.0
5787,80.0,0.0,30.0,2.0,0.0
5788,77.0,0.0,30.0,0.0,0.0
5789,37.0,35.0,60.0,5.0,0.0
5790,75.0,0.0,30.0,3.0,0.0
5791,78.0,0.0,30.0,2.0,0.0
5792,78.0,7.0,30.0,0.0,0.0
5793,75.0,0.0,30.0,0.0,0.0
5794,37.0,35.0,60.0,5.0,0.0
5795,37.0,35.0,60.0,5.0,0.0
5796,80.0,18.0,210.0,1.0,0.0
5797,77.0,0.0,30.0,0.0,0.0
5798,73.0,0.0,30.0,0.0,0.0
5799,77.0,25.0,30.0,2.0,0.0
5800,73.0,0.0,30.0,3.0,0.0
5801,75.0,0.0,30.0,2.0,0.0
5802,37.0,35.0,60.0,5.0,0.0
5803,71.0,25.0,30.0,3.0,0.0
5804,71.0,0.0,30.0,0.0,0.0
5805,75.0,0.0,30.0,0.0,0.0
5806,73.0,0.0,30.0,0.0,0.0
5807,70.0,0.0,30.0,0.0,0.0
5808,73.0,25.0,30.0,2.0,0.0
5809,70.0,0.0,30.0,3.0,0.0
5810,37.0,35.0,60.0,5.0,0.0
5811,37.0,60.0,60.0,5.0,0.0
5812,71.0,0.0,30.0,2.0,0.0
5813,71.0,0.0,30.0,0.0,0.0
5814,68.0,0.0,30.0,3.0,0.0
5815,68.0,7.0,30.0,0.0,0.0
5816,73.0,0.0,120.0,4.0,0.0
5817,70.0,33.0,60.0,3.0,0.0
5818,42.0,0.0,60.0,5.0,0.0
5819,85.0,9.0,120.0,1.0,0.0
5820,82.0,0.0,120.0,1.0,0.0
5821,70.0,0.0,120.0,0.0,0.0
5822,70.0,0.0,60.0,2.0,0.0
5823,66.0,0.0,120.0,0.0,0.0
5824,42.0,21.0,30.0,5.0,0.0
5825,66.0,0.0,30.0,2.0,0.0
5826,66.0,0.0,30.0,3.0,0.0
5827,46.0,57.0,30.0,5.0,0.0
5828,70.0,0.0,30.0,3.0,0.0
5829,70.0,0.0,30.0,2.0,0.0
5830,73.0,0.0,60.0,2.0,0.0
5831,82.0,6.0,90.0,1.0,0.0
5832,78.0,0.0,90.0,1.0,0.0
5833,73.0,0.0,60.0,3.0,0.0
5834,82.0,0.0,120.0,0.0,0.0
5835,73.0,9.0,120.0,0.0,0.0
5836,49.0,27.0,60.0,5.0,0.0
5837,70.0,0.0,30.0,3.0,0.0
5838,70.0,0.0,30.0,2.0,0.0
5839,46.0,21.0,30.0,5.0,0.0
5840,82.0,0.0,30.0,1.0,0.0
5841,73.0,0.0,30.0,3.0,0.0
5842,78.0,57.0,30.0,1.0,0.0
5843,49.0,0.0,30.0,5.0,0.0
5844,73.0,0.0,30.0,2.0,0.0
5845,78.0,0.0,120.0,0.0,0.0
5846,70.0,0.0,120.0,0.0,0.0
5847,78.0,0.0,120.0,3.0,0.0
5848,82.0,9.0,120.0,1.0,0.0
5849,78.0,33.0,60.0,4.0,0.0
5850,78.0,0.0,120.0,1.0,0.0
5851,78.0,0.0,120.0,2.0,0.0
5852,54.0,0.0,120.0,5.0,0.0
5853,73.0,21.0,30.0,4.0,0.0
5854,70.0,57.0,30.0,4.0,0.0
5855,66.0,33.0,60.0,4.0,0.0
5856,70.0,30.0,30.0,4.0,0.0
5857,66.0,57.0,30.0,4.0,0.0
5858,77.0,0.0,60.0,2.0,0.0
5859,61.0,18.0,450.0,1.0,0.0
5860,73.0,0.0,450.0,1.0,0.0
5861,61.0,60.0,60.0,4.0,0.0
5862,73.0,0.0,60.0,3.0,0.0
5863,75.0,0.0,60.0,3.0,0.0
5864,78.0,0.0,60.0,2.0,0.0
5865,61.0,60.0,60.0,4.0,0.0
5866,80.0,0.0,60.0,2.0,0.0
5867,77.0,0.0,60.0,3.0,0.0
5868,61.0,60.0,60.0,4.0,0.0
5869,61.0,0.0,60.0,4.0,0.0
5870,78.0,0.0,60.0,3.0,0.0
5871,82.0,60.0,60.0,2.0,0.0
5872,61.0,54.0,60.0,4.0,0.0
5873,80.0,6.0,120.0,3.0,0.0
5874,83.0,0.0,120.0,2.0,0.0
5875,61.0,60.0,60.0,4.0,0.0
5876,61.0,42.0,60.0,4.0,0.0
5877,61.0,35.0,60.0,4.0,0.0
5878,73.0,0.0,60.0,1.0,0.0
5879,77.0,0.0,30.0,3.0,0.0
5880,61.0,35.0,60.0,4.0,0.0
5881,77.0,25.0,30.0,0.0,0.0
5882,80.0,0.0,30.0,0.0,0.0
5883,80.0,0.0,30.0,2.0,0.0
5884,37.0,18.0,450.0,5.0,0.0
5885,80.0,0.0,60.0,1.0,0.0
5886,78.0,0.0,30.0,0.0,0.0
5887,82.0,25.0,30.0,0.0,0.0
5888,78.0,35.0,60.0,1.0,0.0
5889,82.0,0.0,60.0,1.0,0.0
5890,61.0,0.0,60.0,4.0,0.0
5891,82.0,0.0,30.0,2.0,0.0
5892,78.0,0.0,30.0,3.0,0.0
5893,80.0,0.0,30.0,0.0,0.0
5894,61.0,0.0,60.0,4.0,0.0
5895,80.0,25.0,30.0,3.0,0.0
5896,83.0,0.0,30.0,0.0,0.0
5897,83.0,0.0,30.0,2.0,0.0
5898,80.0,0.0,60.0,1.0,0.0
5899,83.0,35.0,60.0,1.0,0.0
5900,78.0,0.0,30.0,0.0,0.0
5901,61.0,0.0,60.0,4.0,0.0
5902,82.0,25.0,30.0,0.0,0.0
5903,82.0,60.0,60.0,1.0,0.0
5904,78.0,0.0,60.0,1.0,0.0
5905,82.0,0.0,30.0,2.0,0.0
5906,78.0,0.0,30.0,3.0,0.0
5907,80.0,0.0,120.0,1.0,0.0
5908,80.0,0.0,120.0,0.0,0.0
5909,80.0,0.0,120.0,2.0,0.0
5910,73.0,0.0,120.0,1.0,0.0
5911,77.0,6.0,120.0,3.0,0.0
5912,61.0,54.0,60.0,4.0,0.0
5913,77.0,0.0,120.0,0.0,0.0
5914,61.0,60.0,60.0,4.0,0.0
5915,61.0,42.0,60.0,4.0,0.0
5916,61.0,35.0,60.0,4.0,0.0
5917,80.0,25.0,30.0,0.0,0.0
5918,61.0,35.0,60.0,4.0,0.0
5919,83.0,0.0,30.0,0.0,0.0
5920,37.0,0.0,60.0,5.0,0.0
5921,83.0,0.0,30.0,2.0,0.0
5922,73.0,0.0,450.0,1.0,0.0
5923,80.0,0.0,30.0,3.0,0.0
5924,80.0,18.0,450.0,1.0,0.0
5925,37.0,35.0,60.0,5.0,0.0
5926,78.0,0.0,30.0,3.0,0.0
5927,78.0,0.0,30.0,0.0,0.0
5928,61.0,0.0,60.0,4.0,0.0
5929,82.0,25.0,30.0,2.0,0.0
5930,82.0,0.0,30.0,0.0,0.0
5931,37.0,35.0,60.0,5.0,0.0
5932,61.0,0.0,60.0,4.0,0.0
5933,77.0,0.0,30.0,3.0,0.0
5934,80.0,0.0,30.0,0.0,0.0
5935,77.0,0.0,30.0,0.0,0.0
5936,80.0,25.0,30.0,2.0,0.0
5937,78.0,25.0,30.0,2.0,0.0
5938,61.0,35.0,60.0,4.0,0.0
5939,37.0,0.0,60.0,5.0,0.0
5940,78.0,0.0,30.0,0.0,0.0
5941,75.0,0.0,30.0,0.0,0.0
5942,75.0,0.0,30.0,3.0,0.0
5943,77.0,25.0,30.0,0.0,0.0
5944,37.0,35.0,60.0,5.0,0.0
5945,61.0,0.0,60.0,4.0,0.0
5946,77.0,0.0,30.0,2.0,0.0
5947,73.0,0.0,30.0,0.0,0.0
5948,73.0,0.0,30.0,3.0,0.0
5949,71.0,25.0,30.0,0.0,0.0
5950,75.0,0.0,30.0,2.0,0.0
5951,71.0,0.0,30.0,3.0,0.0
5952,37.0,0.0,60.0,5.0,0.0
5953,61.0,35.0,60.0,4.0,0.0
5954,75.0,0.0,30.0,0.0,0.0
5955,73.0,25.0,30.0,2.0,0.0
5956,61.0,35.0,60.0,4.0,0.0
5957,70.0,0.0,30.0,0.0,0.0
5958,37.0,0.0,60.0,5.0,0.0
5959,73.0,0.0,30.0,0.0,0.0
5960,70.0,0.0,30.0,3.0,0.0
5961,37.0,30.0,60.0,5.0,0.0
5962,71.0,7.0,30.0,2.0,0.0
5963,68.0,0.0,30.0,0.0,0.0
5964,68.0,0.0,30.0,3.0,0.0
5965,71.0,0.0,30.0,0.0,0.0
5966,61.0,0.0,60.0,4.0,0.0
5967,70.0,0.0,120.0,2.0,0.0
5968,61.0,30.0,60.0,4.0,0.0
5969,42.0,0.0,120.0,5.0,0.0
5970,82.0,6.0,120.0,1.0,0.0
5971,66.0,0.0,120.0,0.0,0.0
5972,66.0,30.0,20.0,3.0,0.0
5973,78.0,0.0,120.0,1.0,0.0
5974,70.0,0.0,120.0,0.0,0.0
5975,66.0,0.0,20.0,3.0,0.0
5976,66.0,3.0,20.0,3.0,0.0
5977,73.0,21.0,30.0,4.0,0.0
5978,66.0,3.0,20.0,3.0,0.0
5979,71.0,27.0,30.0,4.0,0.0
5980,85.0,0.0,210.0,0.0,0.0
5981,66.0,30.0,20.0,3.0,0.0
5982,70.0,30.0,60.0,4.0,0.0
5983,85.0,0.0,210.0,2.0,0.0
5984,78.0,18.0,210.0,0.0,0.0
5985,66.0,0.0,20.0,3.0,0.0
5986,66.0,30.0,20.0,3.0,0.0
5987,70.0,30.0,60.0,4.0,0.0
5988,66.0,0.0,20.0,3.0,0.0
5989,78.0,6.0,360.0,1.0,0.0
5990,70.0,0.0,60.0,4.0,0.0
5991,66.0,30.0,20.0,3.0,0.0
5992,66.0,30.0,20.0,3.0,0.0
5993,46.0,9.0,30.0,5.0,0.0
5994,73.0,0.0,30.0,4.0,0.0
5995,66.0,3.0,20.0,3.0,0.0
5996,44.0,16.0,30.0,5.0,0.0
5997,66.0,3.0,20.0,3.0,0.0
5998,71.0,0.0,30.0,4.0,0.0
5999,76.0,6.0,120.0,0.0,0.0
6000,78.0,0.0,240.0,0.0,0.0
6001,66.0,4.0,20.0,3.0,0.0
6002,70.0,0.0,60.0,4.0,0.0
6003,42.0,4.0,60.0,5.0,0.0
6004,76.0,11.0,15.0,2.0,0.0
6005,78.0,15.0,15.0,2.0,0.0
6006,66.0,0.0,20.0,3.0,0.0
6007,76.0,11.0,15.0,2.0,0.0
6008,78.0,15.0,15.0,2.0,0.0
6009,76.0,11.0,15.0,2.0,0.0
6010,46.0,0.0,60.0,5.0,0.0
6011,73.0,0.0,60.0,4.0,0.0
6012,66.0,4.0,20.0,3.0,0.0
6013,78.0,15.0,15.0,2.0,0.0
6014,75.0,5.0,15.0,2.0,0.0
6015,66.0,4.0,20.0,3.0,0.0
6016,76.0,26.0,15.0,2.0,0.0
6017,66.0,30.0,20.0,3.0,0.0
6018,75.0,0.0,120.0,0.0,0.0
6019,47.0,0.0,120.0,5.0,0.0
6020,66.0,0.0,60.0,4.0,0.0
6021,75.0,0.0,120.0,2.0,0.0
6022,66.0,30.0,20.0,3.0,0.0
6023,66.0,3.0,20.0,3.0,0.0
6024,75.0,21.0,30.0,4.0,0.0
6025,66.0,3.0,20.0,3.0,0.0
6026,73.0,27.0,30.0,4.0,0.0
6027,87.0,0.0,210.0,0.0,0.0
6028,80.0,0.0,210.0,0.0,0.0
6029,87.0,18.0,210.0,2.0,0.0
6030,72.0,0.0,60.0,4.0,0.0
6031,68.0,30.0,20.0,3.0,0.0
6032,68.0,30.0,20.0,3.0,0.0
6033,68.0,30.0,20.0,3.0,0.0
6034,72.0,0.0,60.0,4.0,0.0
6035,68.0,30.0,20.0,3.0,0.0
6036,72.0,30.0,60.0,4.0,0.0
6037,68.0,30.0,20.0,3.0,0.0
6038,80.0,9.0,360.0,1.0,0.0
6039,68.0,0.0,20.0,3.0,0.0
6040,48.0,9.0,30.0,5.0,0.0
6041,68.0,3.0,20.0,3.0,0.0
6042,75.0,0.0,30.0,4.0,0.0
6043,46.0,16.0,30.0,5.0,0.0
6044,73.0,0.0,30.0,4.0,0.0
6045,68.0,3.0,20.0,3.0,0.0
6046,78.0,11.0,15.0,2.0,0.0
6047,44.0,4.0,60.0,5.0,0.0
6048,78.0,0.0,120.0,0.0,0.0
6049,80.0,6.0,120.0,0.0,0.0
6050,72.0,0.0,60.0,4.0,0.0
6051,68.0,4.0,20.0,3.0,0.0
6052,80.0,15.0,15.0,2.0,0.0
6053,78.0,11.0,15.0,2.0,0.0
6054,68.0,0.0,20.0,3.0,0.0
6055,80.0,15.0,15.0,2.0,0.0
6056,48.0,0.0,60.0,5.0,0.0
6057,68.0,4.0,20.0,3.0,0.0
6058,78.0,11.0,15.0,2.0,0.0
6059,75.0,4.0,60.0,4.0,0.0
6060,80.0,15.0,15.0,2.0,0.0
6061,77.0,5.0,15.0,2.0,0.0
6062,68.0,0.0,20.0,3.0,0.0
6063,78.0,29.0,15.0,2.0,0.0
6064,77.0,0.0,30.0,0.0,0.0
6065,82.0,0.0,30.0,0.0,0.0
6066,68.0,30.0,30.0,3.0,0.0
6067,73.0,0.0,120.0,1.0,0.0
6068,68.0,0.0,120.0,4.0,0.0
6069,49.0,0.0,120.0,5.0,0.0
6070,77.0,0.0,30.0,2.0,0.0
6071,75.0,0.0,30.0,2.0,0.0
6072,78.0,0.0,30.0,0.0,0.0
6073,75.0,0.0,30.0,0.0,0.0
6074,66.0,30.0,30.0,3.0,0.0
6075,73.0,0.0,30.0,2.0,0.0
6076,73.0,0.0,30.0,0.0,0.0
6077,77.0,0.0,30.0,0.0,0.0
6078,65.0,21.0,30.0,3.0,0.0
6079,66.0,57.0,30.0,3.0,0.0
6080,75.0,0.0,30.0,2.0,0.0
6081,78.0,0.0,30.0,0.0,0.0
6082,75.0,0.0,30.0,0.0,0.0
6083,68.0,0.0,60.0,4.0,0.0
6084,65.0,0.0,60.0,3.0,0.0
6085,73.0,0.0,60.0,0.0,0.0
6086,73.0,0.0,120.0,1.0,0.0
6087,80.0,6.0,120.0,1.0,0.0
6088,77.0,0.0,60.0,0.0,0.0
6089,49.0,54.0,60.0,5.0,0.0
6090,73.0,0.0,60.0,2.0,0.0
6091,77.0,0.0,60.0,0.0,0.0
6092,73.0,0.0,60.0,0.0,0.0
6093,68.0,60.0,60.0,4.0,0.0
6094,49.0,0.0,60.0,5.0,0.0
6095,73.0,0.0,60.0,2.0,0.0
6096,65.0,0.0,60.0,3.0,0.0
6097,80.0,0.0,120.0,1.0,0.0
6098,73.0,0.0,120.0,2.0,0.0
6099,65.0,0.0,120.0,3.0,0.0
6100,73.0,0.0,120.0,1.0,0.0
6101,77.0,6.0,120.0,0.0,0.0
6102,49.0,54.0,60.0,5.0,0.0
6103,68.0,0.0,60.0,4.0,0.0
6104,73.0,0.0,120.0,0.0,0.0
6105,68.0,60.0,60.0,4.0,0.0
6106,47.0,0.0,60.0,5.0,0.0
6107,70.0,60.0,60.0,4.0,0.0
6108,46.0,0.0,60.0,5.0,0.0
6109,71.0,60.0,60.0,4.0,0.0
6110,44.0,0.0,60.0,5.0,0.0
6111,70.0,0.0,120.0,4.0,0.0
6112,73.0,0.0,120.0,3.0,0.0
6113,42.0,6.0,120.0,5.0,0.0
6114,82.0,54.0,60.0,2.0,0.0
6115,78.0,33.0,60.0,2.0,0.0
6116,77.0,30.0,30.0,2.0,0.0
6117,78.0,12.0,210.0,3.0,0.0
6118,75.0,0.0,120.0,4.0,0.0
6119,51.0,9.0,120.0,5.0,0.0
6120,78.0,30.0,30.0,2.0,0.0
6121,80.0,21.0,30.0,2.0,0.0
6122,82.0,57.0,30.0,2.0,0.0
6123,83.0,42.0,60.0,2.0,0.0
6124,71.0,6.0,120.0,4.0,0.0
6125,47.0,0.0,120.0,5.0,0.0
6126,80.0,33.0,60.0,2.0,0.0
6127,73.0,0.0,60.0,4.0,0.0
6128,49.0,3.0,60.0,5.0,0.0
6129,77.0,6.0,120.0,3.0,0.0
6130,79.0,27.0,30.0,2.0,0.0
6131,80.0,30.0,30.0,2.0,0.0
6132,82.0,21.0,30.0,2.0,0.0
6133,47.0,0.0,60.0,5.0,0.0
6134,71.0,3.0,60.0,4.0,0.0
6135,83.0,57.0,30.0,2.0,0.0
6136,85.0,7.0,210.0,0.0,0.0
6137,78.0,0.0,210.0,1.0,0.0
6138,85.0,0.0,210.0,1.0,0.0
6139,78.0,0.0,450.0,0.0,0.0
6140,85.0,0.0,60.0,2.0,0.0
6141,78.0,60.0,60.0,3.0,0.0
6142,70.0,0.0,60.0,4.0,0.0
6143,46.0,0.0,60.0,5.0,0.0
6144,85.0,19.0,60.0,3.0,0.0
6145,78.0,0.0,60.0,4.0,0.0
6146,46.0,0.0,60.0,5.0,0.0
6147,85.0,0.0,60.0,2.0,0.0
6148,46.0,0.0,60.0,5.0,0.0
6149,78.0,4.0,60.0,4.0,0.0
6150,85.0,0.0,15.0,2.0,0.0
6151,85.0,15.0,15.0,3.0,0.0
6152,87.0,0.0,15.0,2.0,0.0
6153,87.0,15.0,15.0,3.0,0.0
6154,85.0,0.0,15.0,3.0,0.0
6155,85.0,11.0,15.0,2.0,0.0
6156,87.0,15.0,15.0,3.0,0.0
6157,87.0,0.0,15.0,2.0,0.0
6158,85.0,15.0,15.0,2.0,0.0
6159,78.0,0.0,60.0,4.0,0.0
6160,46.0,4.0,60.0,5.0,0.0
6161,85.0,0.0,15.0,3.0,0.0
6162,87.0,8.0,15.0,2.0,0.0
6163,87.0,0.0,15.0,3.0,0.0
6164,83.0,0.0,15.0,2.0,0.0
6165,83.0,11.0,15.0,3.0,0.0
6166,85.0,56.0,15.0,3.0,0.0
6167,85.0,0.0,15.0,2.0,0.0
6168,87.0,60.0,60.0,2.0,0.0
6169,87.0,0.0,210.0,0.0,0.0
6170,87.0,0.0,60.0,3.0,0.0
6171,87.0,0.0,210.0,1.0,0.0
6172,78.0,18.0,210.0,1.0,0.0
6173,78.0,0.0,60.0,4.0,0.0
6174,47.0,0.0,60.0,5.0,0.0
6175,47.0,0.0,60.0,5.0,0.0
6176,83.0,60.0,60.0,3.0,0.0
6177,75.0,0.0,60.0,4.0,0.0
6178,83.0,0.0,60.0,2.0,0.0
6179,80.0,42.0,60.0,3.0,0.0
6180,80.0,0.0,60.0,2.0,0.0
6181,47.0,0.0,60.0,5.0,0.0
6182,75.0,0.0,60.0,4.0,0.0
6183,75.0,0.0,60.0,2.0,0.0
6184,75.0,0.0,60.0,3.0,0.0
6185,47.0,0.0,60.0,5.0,0.0
6186,75.0,60.0,60.0,4.0,0.0
6187,73.0,18.0,210.0,2.0,0.0
6188,73.0,54.0,60.0,4.0,0.0
6189,49.0,0.0,60.0,5.0,0.0
6190,73.0,6.0,120.0,0.0,0.0
6191,78.0,7.0,330.0,1.0,0.0
6192,82.0,0.0,210.0,0.0,0.0
6193,73.0,0.0,120.0,3.0,0.0
6194,82.0,0.0,210.0,1.0,0.0
6195,73.0,0.0,60.0,4.0,0.0
6196,49.0,60.0,60.0,5.0,0.0
6197,73.0,0.0,60.0,4.0,0.0
6198,78.0,0.0,210.0,3.0,0.0
6199,78.0,0.0,210.0,0.0,0.0
6200,49.0,42.0,60.0,5.0,0.0
6201,73.0,19.0,60.0,4.0,0.0
6202,49.0,0.0,60.0,5.0,0.0
6203,37.0,4.0,60.0,5.0,0.0
6204,80.0,0.0,15.0,2.0,0.0
6205,80.0,12.0,210.0,1.0,0.0
6206,80.0,15.0,15.0,0.0,0.0
6207,73.0,0.0,60.0,4.0,0.0
6208,82.0,15.0,15.0,2.0,0.0
6209,82.0,0.0,15.0,0.0,0.0
6210,80.0,0.0,15.0,2.0,0.0
6211,80.0,11.0,15.0,0.0,0.0
6212,82.0,0.0,15.0,0.0,0.0
6213,82.0,15.0,15.0,2.0,0.0
6214,80.0,0.0,15.0,0.0,0.0
6215,73.0,4.0,60.0,4.0,0.0
6216,80.0,15.0,15.0,2.0,0.0
6217,37.0,0.0,60.0,5.0,0.0
6218,82.0,0.0,15.0,0.0,0.0
6219,82.0,8.0,15.0,2.0,0.0
6220,80.0,0.0,15.0,2.0,0.0
6221,80.0,11.0,15.0,0.0,0.0
6222,82.0,15.0,15.0,2.0,0.0
6223,82.0,0.0,15.0,0.0,0.0
6224,73.0,0.0,120.0,1.0,0.0
6225,77.0,0.0,120.0,0.0,0.0
6226,80.0,0.0,15.0,0.0,0.0
6227,37.0,0.0,60.0,5.0,0.0
6228,77.0,6.0,120.0,3.0,0.0
6229,80.0,15.0,15.0,2.0,0.0
6230,71.0,4.0,60.0,4.0,0.0
6231,82.0,0.0,15.0,0.0,0.0
6232,82.0,15.0,15.0,2.0,0.0
6233,80.0,11.0,15.0,0.0,0.0
6234,80.0,0.0,15.0,2.0,0.0
6235,82.0,29.0,15.0,2.0,0.0
6236,82.0,0.0,15.0,0.0,0.0
6237,78.0,9.0,30.0,0.0,0.0
6238,78.0,0.0,30.0,2.0,0.0
6239,71.0,0.0,60.0,4.0,0.0
6240,37.0,3.0,60.0,5.0,0.0
6241,80.0,57.0,30.0,0.0,0.0
6242,80.0,0.0,30.0,2.0,0.0
6243,70.0,0.0,120.0,4.0,0.0
6244,70.0,6.0,120.0,1.0,0.0
6245,78.0,0.0,120.0,0.0,0.0
6246,78.0,0.0,60.0,2.0,0.0
6247,42.0,0.0,120.0,5.0,0.0
6248,78.0,54.0,60.0,3.0,0.0
6249,78.0,0.0,120.0,1.0,0.0
6250,66.0,0.0,60.0,3.0,0.0
6251,66.0,33.0,60.0,2.0,0.0
6252,51.0,9.0,120.0,5.0,0.0
6253,65.0,30.0,30.0,3.0,0.0
6254,65.0,0.0,30.0,2.0,0.0
6255,66.0,12.0,210.0,4.0,0.0
6256,66.0,0.0,30.0,2.0,0.0
6257,66.0,30.0,30.0,3.0,0.0
6258,68.0,21.0,30.0,2.0,0.0
6259,68.0,0.0,30.0,3.0,0.0
6260,70.0,57.0,30.0,3.0,0.0
6261,70.0,0.0,30.0,2.0,0.0
6262,71.0,42.0,60.0,3.0,0.0
6263,47.0,6.0,120.0,5.0,0.0
6264,71.0,0.0,60.0,2.0,0.0
6265,68.0,33.0,60.0,2.0,0.0
6266,68.0,0.0,60.0,3.0,0.0
6267,65.0,6.0,120.0,4.0,0.0
6268,49.0,3.0,60.0,5.0,0.0
6269,67.0,0.0,30.0,3.0,0.0
6270,67.0,27.0,30.0,2.0,0.0
6271,68.0,0.0,30.0,2.0,0.0
6272,68.0,30.0,30.0,3.0,0.0
6273,47.0,3.0,60.0,5.0,0.0
6274,70.0,21.0,30.0,2.0,0.0
6275,70.0,0.0,30.0,3.0,0.0
6276,71.0,57.0,30.0,3.0,0.0
6277,71.0,0.0,30.0,2.0,0.0
6278,73.0,0.0,60.0,3.0,0.0
6279,85.0,0.0,210.0,1.0,0.0
6280,78.0,18.0,330.0,0.0,0.0
6281,46.0,60.0,60.0,5.0,0.0
6282,73.0,0.0,60.0,2.0,0.0
6283,73.0,7.0,210.0,0.0,0.0
6284,66.0,0.0,60.0,4.0,0.0
6285,78.0,0.0,450.0,1.0,0.0
6286,66.0,0.0,60.0,4.0,0.0
6287,46.0,0.0,60.0,5.0,0.0
6288,73.0,0.0,60.0,2.0,0.0
6289,73.0,19.0,60.0,3.0,0.0
6290,46.0,4.0,60.0,5.0,0.0
6291,73.0,0.0,15.0,3.0,0.0
6292,66.0,0.0,60.0,4.0,0.0
6293,73.0,15.0,15.0,2.0,0.0
6294,75.0,15.0,15.0,2.0,0.0
6295,75.0,0.0,15.0,3.0,0.0
6296,73.0,11.0,15.0,2.0,0.0
6297,73.0,0.0,15.0,3.0,0.0
6298,75.0,15.0,15.0,3.0,0.0
6299,75.0,0.0,15.0,2.0,0.0
6300,66.0,4.0,60.0,4.0,0.0
6301,73.0,15.0,15.0,3.0,0.0
6302,46.0,0.0,60.0,5.0,0.0
6303,73.0,0.0,15.0,2.0,0.0
6304,75.0,0.0,15.0,3.0,0.0
6305,75.0,8.0,15.0,2.0,0.0
6306,71.0,11.0,15.0,2.0,0.0
6307,71.0,0.0,15.0,3.0,0.0
6308,73.0,0.0,15.0,2.0,0.0
6309,73.0,56.0,15.0,3.0,0.0
6310,75.0,0.0,60.0,2.0,0.0
6311,66.0,0.0,60.0,4.0,0.0
6312,87.0,12.0,210.0,1.0,0.0
6313,47.0,0.0,60.0,5.0,0.0
6314,75.0,0.0,210.0,0.0,0.0
6315,75.0,42.0,60.0,3.0,0.0
6316,47.0,0.0,60.0,5.0,0.0
6317,71.0,0.0,60.0,3.0,0.0
6318,71.0,0.0,60.0,2.0,0.0
6319,66.0,60.0,60.0,4.0,0.0
6320,68.0,0.0,60.0,3.0,0.0
6321,68.0,0.0,60.0,2.0,0.0
6322,60.0,0.0,60.0,4.0,0.0
6323,80.0,6.0,120.0,0.0,0.0
6324,48.0,42.0,60.0,5.0,0.0
6325,48.0,60.0,60.0,5.0,0.0
6326,63.0,0.0,60.0,2.0,0.0
6327,63.0,0.0,60.0,3.0,0.0
6328,60.0,0.0,60.0,4.0,0.0
6329,73.0,6.0,120.0,0.0,0.0
6330,82.0,0.0,210.0,1.0,0.0
6331,82.0,18.0,210.0,0.0,0.0
6332,61.0,0.0,210.0,2.0,0.0
6333,78.0,0.0,330.0,1.0,0.0
6334,61.0,0.0,60.0,3.0,0.0
6335,61.0,54.0,60.0,4.0,0.0
6336,49.0,0.0,60.0,5.0,0.0
6337,61.0,0.0,60.0,4.0,0.0
6338,61.0,0.0,60.0,3.0,0.0
6339,49.0,60.0,60.0,5.0,0.0
6340,49.0,42.0,60.0,5.0,0.0
6341,66.0,0.0,60.0,3.0,0.0
6342,61.0,0.0,60.0,4.0,0.0
6343,78.0,7.0,210.0,0.0,0.0
6344,66.0,0.0,60.0,3.0,0.0
6345,49.0,0.0,60.0,5.0,0.0
6346,61.0,19.0,60.0,4.0,0.0
6347,68.0,15.0,15.0,2.0,0.0
6348,37.0,4.0,60.0,5.0,0.0
6349,80.0,0.0,15.0,0.0,0.0
6350,66.0,0.0,60.0,3.0,0.0
6351,80.0,12.0,210.0,1.0,0.0
6352,61.0,0.0,60.0,4.0,0.0
6353,82.0,15.0,15.0,0.0,0.0
6354,70.0,0.0,15.0,2.0,0.0
6355,80.0,0.0,15.0,0.0,0.0
6356,68.0,11.0,15.0,2.0,0.0
6357,82.0,0.0,15.0,0.0,0.0
6358,70.0,15.0,15.0,2.0,0.0
6359,37.0,0.0,60.0,5.0,0.0
6360,66.0,0.0,60.0,3.0,0.0
6361,80.0,0.0,15.0,0.0,0.0
6362,61.0,4.0,60.0,4.0,0.0
6363,68.0,15.0,15.0,2.0,0.0
6364,82.0,0.0,15.0,0.0,0.0
6365,70.0,8.0,15.0,2.0,0.0
6366,80.0,11.0,15.0,0.0,0.0
6367,68.0,0.0,15.0,2.0,0.0
6368,70.0,0.0,15.0,2.0,0.0
6369,82.0,15.0,15.0,0.0,0.0
6370,68.0,15.0,15.0,2.0,0.0
6371,80.0,0.0,15.0,0.0,0.0
6372,73.0,0.0,120.0,1.0,0.0
6373,65.0,0.0,60.0,3.0,0.0
6374,37.0,0.0,60.0,5.0,0.0
6375,77.0,6.0,120.0,0.0,0.0
6376,61.0,4.0,60.0,4.0,0.0
6377,82.0,0.0,15.0,0.0,0.0
6378,70.0,15.0,15.0,2.0,0.0
6379,68.0,0.0,15.0,2.0,0.0
6380,80.0,11.0,15.0,0.0,0.0
6381,70.0,0.0,15.0,2.0,0.0
6382,82.0,29.0,15.0,0.0,0.0
6383,78.0,9.0,30.0,0.0,0.0
6384,61.0,0.0,60.0,4.0,0.0
6385,66.0,0.0,30.0,2.0,0.0
6386,65.0,0.0,60.0,3.0,0.0
6387,37.0,3.0,60.0,5.0,0.0
6388,80.0,0.0,30.0,0.0,0.0
6389,68.0,57.0,30.0,2.0,0.0
6390,66.0,0.0,60.0,2.0,0.0
6391,78.0,0.0,60.0,1.0,0.0
6392,78.0,0.0,60.0,0.0,0.0
6393,41.0,33.0,60.0,5.0,0.0
6394,66.0,0.0,60.0,4.0,0.0
6395,66.0,0.0,60.0,3.0,0.0
6396,66.0,0.0,30.0,0.0,0.0
6397,66.0,0.0,30.0,3.0,0.0
6398,42.0,0.0,30.0,5.0,0.0
6399,66.0,0.0,30.0,2.0,0.0
6400,66.0,0.0,30.0,4.0,0.0
6401,78.0,30.0,30.0,1.0,0.0
6402,68.0,0.0,30.0,2.0,0.0
6403,68.0,0.0,30.0,3.0,0.0
6404,44.0,0.0,30.0,5.0,0.0
6405,68.0,57.0,30.0,0.0,0.0
6406,80.0,0.0,30.0,1.0,0.0
6407,68.0,0.0,30.0,4.0,0.0
6408,70.0,0.0,60.0,0.0,0.0
6409,70.0,0.0,60.0,3.0,0.0
6410,70.0,60.0,60.0,4.0,0.0
6411,46.0,0.0,60.0,5.0,0.0
6412,82.0,0.0,60.0,1.0,0.0
6413,70.0,0.0,60.0,2.0,0.0
6414,83.0,0.0,60.0,1.0,0.0
6415,71.0,0.0,60.0,0.0,0.0
6416,71.0,0.0,60.0,2.0,0.0
6417,71.0,0.0,60.0,4.0,0.0
6418,47.0,114.0,60.0,5.0,0.0
6419,71.0,0.0,60.0,3.0,0.0
6420,73.0,0.0,120.0,2.0,0.0
6421,49.0,0.0,120.0,5.0,0.0
6422,73.0,0.0,120.0,1.0,0.0
6423,73.0,0.0,120.0,0.0,0.0
6424,73.0,0.0,120.0,3.0,0.0
6425,85.0,120.0,120.0,1.0,0.0
6426,73.0,0.0,120.0,4.0,0.0
6427,37.0,0.0,120.0,5.0,0.0
6428,61.0,0.0,120.0,2.0,0.0
6429,68.0,0.0,120.0,2.0,0.0
6430,77.0,0.0,120.0,2.0,0.0
6431,77.0,0.0,120.0,0.0,0.0
6432,61.0,0.0,120.0,4.0,0.0
6433,68.0,0.0,120.0,3.0,0.0
6434,61.0,0.0,120.0,3.0,0.0
6435,73.0,66.0,120.0,1.0,0.0
6436,61.0,0.0,120.0,1.0,0.0
6437,77.0,0.0,120.0,3.0,0.0
6438,71.0,0.0,120.0,0.0,0.0
6439,70.0,0.0,60.0,2.0,0.0
6440,78.0,0.0,60.0,2.0,0.0
6441,78.0,0.0,60.0,1.0,0.0
6442,61.0,33.0,60.0,3.0,0.0
6443,70.0,0.0,60.0,3.0,0.0
6444,66.0,0.0,60.0,4.0,0.0
6445,61.0,0.0,60.0,2.0,0.0
6446,78.0,0.0,60.0,0.0,0.0
6447,78.0,0.0,60.0,3.0,0.0
6448,41.0,0.0,60.0,5.0,0.0
6449,78.0,0.0,30.0,1.0,0.0
6450,66.0,0.0,30.0,2.0,0.0
6451,66.0,0.0,30.0,0.0,0.0
6452,42.0,30.0,30.0,5.0,0.0
6453,66.0,0.0,30.0,4.0,0.0
6454,66.0,0.0,30.0,3.0,0.0
6455,68.0,0.0,30.0,4.0,0.0
6456,68.0,0.0,30.0,0.0,0.0
6457,80.0,0.0,30.0,1.0,0.0
6458,68.0,0.0,30.0,2.0,0.0
6459,44.0,57.0,30.0,5.0,0.0
6460,68.0,0.0,30.0,3.0,0.0
6461,70.0,0.0,60.0,3.0,0.0
6462,70.0,60.0,60.0,4.0,0.0
6463,70.0,0.0,60.0,2.0,0.0
6464,82.0,0.0,60.0,1.0,0.0
6465,46.0,0.0,60.0,5.0,0.0
6466,70.0,0.0,60.0,0.0,0.0
6467,71.0,0.0,60.0,3.0,0.0
6468,47.0,0.0,60.0,5.0,0.0
6469,71.0,0.0,60.0,0.0,0.0
6470,71.0,114.0,60.0,2.0,0.0
6471,83.0,0.0,60.0,1.0,0.0
6472,71.0,0.0,60.0,4.0,0.0
6473,85.0,0.0,120.0,1.0,0.0
6474,73.0,0.0,120.0,3.0,0.0
6475,49.0,0.0,120.0,5.0,0.0
6476,73.0,0.0,120.0,2.0,0.0
6477,73.0,0.0,120.0,1.0,0.0
6478,73.0,120.0,120.0,0.0,0.0
6479,73.0,0.0,120.0,4.0,0.0
6480,73.0,0.0,120.0,1.0,0.0
6481,77.0,0.0,120.0,2.0,0.0
6482,68.0,0.0,120.0,3.0,0.0
6483,68.0,0.0,120.0,2.0,0.0
6484,61.0,0.0,120.0,4.0,0.0
6485,71.0,0.0,120.0,0.0,0.0
6486,61.0,0.0,120.0,2.0,0.0
6487,77.0,0.0,120.0,0.0,0.0
6488,37.0,0.0,120.0,5.0,0.0
6489,61.0,0.0,120.0,3.0,0.0
6490,77.0,0.0,120.0,3.0,0.0
6491,61.0,120.0,120.0,1.0,0.0
6492,66.0,0.0,120.0,1.0,0.0
6493,78.0,0.0,120.0,1.0,0.0
6494,78.0,0.0,120.0,3.0,0.0
6495,70.0,120.0,120.0,0.0,0.0
6496,78.0,0.0,120.0,0.0,0.0
6497,61.0,0.0,120.0,3.0,0.0
6498,70.0,0.0,120.0,3.0,0.0
6499,42.0,0.0,120.0,5.0,0.0
6500,70.0,0.0,120.0,2.0,0.0
6501,61.0,0.0,120.0,2.0,0.0
6502,66.0,0.0,120.0,4.0,0.0
6503,78.0,0.0,120.0,2.0,0.0
6504,61.0,0.0,120.0,2.0,0.0
6505,61.0,0.0,120.0,3.0,0.0
6506,70.0,0.0,120.0,0.0,0.0
6507,78.0,0.0,120.0,0.0,0.0
6508,70.0,132.0,120.0,3.0,0.0
6509,78.0,0.0,120.0,3.0,0.0
6510,78.0,0.0,120.0,2.0,0.0
6511,42.0,0.0,120.0,5.0,0.0
6512,66.0,0.0,120.0,4.0,0.0
6513,66.0,0.0,120.0,1.0,0.0
6514,82.0,0.0,120.0,1.0,0.0
6515,70.0,0.0,120.0,2.0,0.0
6516,78.0,0.0,120.0,0.0,0.0
6517,78.0,0.0,120.0,3.0,0.0
6518,70.0,0.0,120.0,3.0,0.0
6519,61.0,0.0,120.0,3.0,0.0
6520,42.0,0.0,120.0,5.0,0.0
6521,66.0,0.0,120.0,4.0,0.0
6522,82.0,0.0,120.0,1.0,0.0
6523,61.0,0.0,120.0,2.0,0.0
6524,70.0,0.0,120.0,2.0,0.0
6525,78.0,0.0,120.0,2.0,0.0
6526,70.0,0.0,120.0,0.0,0.0
6527,66.0,0.0,120.0,1.0,0.0
