,note,step,duration,channel,velocity
0,78.0,0.0,1440.0,1.0,0.0
1,54.0,0.0,1440.0,3.0,0.0
2,66.0,0.0,1440.0,5.0,0.0
3,66.0,0.0,1440.0,8.0,0.0
4,66.0,0.0,1440.0,2.0,0.0
5,66.0,0.0,1440.0,7.0,0.0
6,42.0,0.0,1440.0,12.0,0.0
7,66.0,60.0,1440.0,10.0,0.0
8,78.0,0.0,1440.0,0.0,0.0
9,54.0,60.0,60.0,6.0,0.0
10,54.0,0.0,1440.0,4.0,0.0
11,54.0,0.0,1440.0,11.0,0.0
12,56.0,60.0,60.0,6.0,0.0
13,54.0,60.0,60.0,6.0,0.0
14,56.0,60.0,60.0,6.0,0.0
15,54.0,60.0,60.0,6.0,0.0
16,56.0,60.0,60.0,6.0,0.0
17,54.0,60.0,60.0,6.0,0.0
18,56.0,60.0,60.0,6.0,0.0
19,54.0,60.0,60.0,6.0,0.0
20,56.0,60.0,60.0,6.0,0.0
21,54.0,60.0,60.0,6.0,0.0
22,56.0,60.0,60.0,6.0,0.0
23,54.0,60.0,60.0,6.0,0.0
24,56.0,60.0,60.0,6.0,0.0
25,54.0,60.0,60.0,6.0,0.0
26,56.0,60.0,60.0,6.0,0.0
27,54.0,60.0,60.0,6.0,0.0
28,56.0,60.0,60.0,6.0,0.0
29,54.0,60.0,60.0,6.0,0.0
30,56.0,60.0,60.0,6.0,0.0
31,54.0,60.0,60.0,6.0,0.0
32,56.0,60.0,60.0,6.0,0.0
33,54.0,60.0,60.0,6.0,0.0
34,56.0,0.0,60.0,6.0,0.0
35,54.0,60.0,60.0,6.0,0.0
36,56.0,60.0,60.0,6.0,0.0
37,54.0,60.0,60.0,6.0,0.0
38,56.0,60.0,60.0,6.0,0.0
39,54.0,60.0,60.0,6.0,0.0
40,56.0,60.0,60.0,6.0,0.0
41,54.0,60.0,60.0,6.0,0.0
42,56.0,40.0,60.0,6.0,0.0
43,78.0,270.0,1320.0,5.0,0.0
44,66.0,0.0,40.0,7.0,0.0
45,66.0,240.0,1590.0,3.0,0.0
46,66.0,0.0,1320.0,4.0,0.0
47,78.0,0.0,1590.0,10.0,0.0
48,66.0,0.0,1590.0,11.0,0.0
49,78.0,0.0,1590.0,2.0,0.0
50,54.0,0.0,1590.0,12.0,0.0
51,90.0,0.0,1590.0,0.0,0.0
52,66.0,60.0,40.0,8.0,0.0
53,90.0,0.0,1590.0,1.0,0.0
54,54.0,960.0,360.0,6.0,0.0
55,78.0,260.0,40.0,8.0,0.0
56,78.0,0.0,40.0,7.0,0.0
57,90.0,0.0,1470.0,7.0,0.0
58,90.0,0.0,1470.0,8.0,0.0
59,66.0,0.0,30.0,7.0,0.0
60,66.0,0.0,30.0,8.0,0.0
61,66.0,0.0,30.0,10.0,0.0
62,66.0,0.0,30.0,2.0,0.0
63,54.0,0.0,30.0,3.0,0.0
64,78.0,0.0,30.0,1.0,0.0
65,42.0,210.0,30.0,12.0,0.0
66,54.0,0.0,30.0,11.0,0.0
67,78.0,0.0,30.0,0.0,0.0
68,49.0,0.0,120.0,6.0,0.0
69,77.0,0.0,120.0,1.0,0.0
70,61.0,0.0,120.0,4.0,0.0
71,53.0,0.0,120.0,11.0,0.0
72,65.0,0.0,120.0,2.0,0.0
73,53.0,0.0,120.0,3.0,0.0
74,65.0,0.0,120.0,10.0,0.0
75,77.0,0.0,120.0,0.0,0.0
76,41.0,0.0,120.0,12.0,0.0
77,73.0,480.0,120.0,5.0,0.0
78,65.0,0.0,120.0,7.0,0.0
79,65.0,0.0,120.0,8.0,0.0
80,49.0,0.0,120.0,6.0,0.0
81,89.0,0.0,120.0,1.0,0.0
82,77.0,0.0,120.0,2.0,0.0
83,89.0,0.0,120.0,7.0,0.0
84,65.0,1290.0,120.0,11.0,0.0
85,77.0,0.0,120.0,10.0,0.0
86,89.0,0.0,120.0,0.0,0.0
87,65.0,0.0,120.0,3.0,0.0
88,61.0,0.0,120.0,4.0,0.0
89,89.0,0.0,120.0,8.0,0.0
90,53.0,0.0,120.0,12.0,0.0
91,73.0,0.0,120.0,5.0,0.0
92,77.0,0.0,90.0,1.0,0.0
93,77.0,390.0,90.0,0.0,0.0
94,65.0,0.0,90.0,2.0,0.0
95,65.0,0.0,90.0,8.0,0.0
96,53.0,0.0,90.0,11.0,0.0
97,41.0,0.0,90.0,12.0,0.0
98,65.0,0.0,90.0,7.0,0.0
99,53.0,0.0,90.0,3.0,0.0
100,65.0,0.0,90.0,10.0,0.0
101,54.0,0.0,360.0,4.0,0.0
102,63.0,0.0,360.0,2.0,0.0
103,63.0,0.0,360.0,8.0,0.0
104,51.0,0.0,360.0,3.0,0.0
105,54.0,0.0,360.0,6.0,0.0
106,75.0,0.0,360.0,0.0,0.0
107,78.0,0.0,360.0,5.0,0.0
108,75.0,0.0,360.0,1.0,0.0
109,66.0,390.0,360.0,5.0,0.0
110,39.0,0.0,360.0,12.0,0.0
111,63.0,0.0,360.0,10.0,0.0
112,51.0,0.0,360.0,11.0,0.0
113,63.0,0.0,360.0,7.0,0.0
114,66.0,0.0,360.0,4.0,0.0
115,51.0,0.0,270.0,3.0,0.0
116,66.0,0.0,270.0,5.0,0.0
117,78.0,0.0,270.0,5.0,0.0
118,66.0,0.0,270.0,4.0,0.0
119,51.0,0.0,270.0,11.0,0.0
120,54.0,0.0,270.0,4.0,0.0
121,63.0,0.0,270.0,7.0,0.0
122,75.0,0.0,270.0,1.0,0.0
123,39.0,0.0,270.0,12.0,0.0
124,75.0,0.0,270.0,0.0,0.0
125,54.0,0.0,270.0,6.0,0.0
126,63.0,0.0,270.0,8.0,0.0
127,63.0,180.0,270.0,10.0,0.0
128,63.0,0.0,270.0,2.0,0.0
129,66.0,0.0,90.0,5.0,0.0
130,66.0,0.0,90.0,4.0,0.0
131,54.0,0.0,90.0,4.0,0.0
132,51.0,0.0,90.0,3.0,0.0
133,78.0,0.0,90.0,5.0,0.0
134,75.0,0.0,90.0,1.0,0.0
135,39.0,0.0,90.0,12.0,0.0
136,54.0,90.0,90.0,6.0,0.0
137,63.0,0.0,90.0,8.0,0.0
138,63.0,0.0,90.0,10.0,0.0
139,63.0,0.0,90.0,2.0,0.0
140,63.0,0.0,90.0,7.0,0.0
141,75.0,0.0,90.0,0.0,0.0
142,51.0,0.0,90.0,11.0,0.0
143,51.0,0.0,60.0,11.0,0.0
144,78.0,0.0,360.0,5.0,0.0
145,66.0,0.0,360.0,5.0,0.0
146,75.0,0.0,60.0,0.0,0.0
147,51.0,0.0,60.0,3.0,0.0
148,75.0,0.0,60.0,1.0,0.0
149,39.0,0.0,60.0,12.0,0.0
150,54.0,0.0,360.0,4.0,0.0
151,66.0,0.0,360.0,4.0,0.0
152,63.0,0.0,60.0,7.0,0.0
153,63.0,0.0,60.0,8.0,0.0
154,63.0,60.0,60.0,10.0,0.0
155,54.0,0.0,360.0,6.0,0.0
156,63.0,0.0,60.0,2.0,0.0
157,77.0,0.0,60.0,1.0,0.0
158,65.0,0.0,60.0,8.0,0.0
159,65.0,0.0,60.0,2.0,0.0
160,53.0,0.0,60.0,11.0,0.0
161,53.0,0.0,60.0,3.0,0.0
162,77.0,0.0,60.0,0.0,0.0
163,41.0,0.0,60.0,12.0,0.0
164,65.0,0.0,60.0,7.0,0.0
165,65.0,60.0,60.0,10.0,0.0
166,39.0,0.0,60.0,12.0,0.0
167,51.0,0.0,60.0,3.0,0.0
168,63.0,0.0,60.0,10.0,0.0
169,63.0,0.0,60.0,7.0,0.0
170,63.0,0.0,60.0,8.0,0.0
171,75.0,60.0,60.0,0.0,0.0
172,63.0,0.0,60.0,2.0,0.0
173,51.0,0.0,60.0,11.0,0.0
174,75.0,0.0,60.0,1.0,0.0
175,77.0,0.0,60.0,1.0,0.0
176,65.0,0.0,60.0,8.0,0.0
177,65.0,0.0,60.0,2.0,0.0
178,65.0,0.0,60.0,10.0,0.0
179,65.0,0.0,60.0,7.0,0.0
180,41.0,0.0,60.0,12.0,0.0
181,53.0,0.0,60.0,11.0,0.0
182,53.0,60.0,60.0,3.0,0.0
183,77.0,0.0,60.0,0.0,0.0
184,63.0,60.0,60.0,8.0,0.0
185,51.0,0.0,60.0,3.0,0.0
186,63.0,0.0,60.0,10.0,0.0
187,39.0,0.0,60.0,12.0,0.0
188,75.0,0.0,60.0,0.0,0.0
189,75.0,0.0,60.0,1.0,0.0
190,63.0,0.0,60.0,2.0,0.0
191,51.0,0.0,60.0,11.0,0.0
192,63.0,0.0,60.0,7.0,0.0
193,53.0,0.0,60.0,3.0,0.0
194,65.0,0.0,60.0,10.0,0.0
195,77.0,0.0,60.0,0.0,0.0
196,65.0,0.0,60.0,7.0,0.0
197,77.0,0.0,60.0,1.0,0.0
198,41.0,60.0,60.0,12.0,0.0
199,65.0,0.0,60.0,2.0,0.0
200,53.0,0.0,60.0,11.0,0.0
201,65.0,0.0,60.0,8.0,0.0
202,63.0,0.0,60.0,8.0,0.0
203,75.0,0.0,60.0,1.0,0.0
204,63.0,0.0,60.0,2.0,0.0
205,75.0,0.0,60.0,0.0,0.0
206,63.0,0.0,60.0,10.0,0.0
207,51.0,0.0,60.0,11.0,0.0
208,39.0,60.0,60.0,12.0,0.0
209,51.0,0.0,60.0,3.0,0.0
210,63.0,0.0,60.0,7.0,0.0
211,77.0,0.0,60.0,0.0,0.0
212,65.0,0.0,60.0,10.0,0.0
213,41.0,0.0,60.0,12.0,0.0
214,65.0,0.0,60.0,8.0,0.0
215,65.0,0.0,60.0,2.0,0.0
216,53.0,0.0,60.0,11.0,0.0
217,53.0,60.0,60.0,3.0,0.0
218,77.0,0.0,60.0,1.0,0.0
219,65.0,0.0,60.0,7.0,0.0
220,54.0,0.0,360.0,6.0,0.0
221,39.0,0.0,60.0,12.0,0.0
222,63.0,60.0,60.0,8.0,0.0
223,63.0,0.0,60.0,2.0,0.0
224,54.0,0.0,360.0,4.0,0.0
225,75.0,0.0,60.0,0.0,0.0
226,78.0,0.0,360.0,5.0,0.0
227,75.0,0.0,60.0,1.0,0.0
228,63.0,0.0,60.0,7.0,0.0
229,66.0,0.0,360.0,4.0,0.0
230,63.0,0.0,60.0,10.0,0.0
231,51.0,0.0,60.0,3.0,0.0
232,66.0,0.0,360.0,5.0,0.0
233,51.0,0.0,60.0,11.0,0.0
234,65.0,0.0,60.0,7.0,0.0
235,65.0,0.0,60.0,2.0,0.0
236,65.0,0.0,60.0,10.0,0.0
237,41.0,0.0,60.0,12.0,0.0
238,53.0,0.0,60.0,3.0,0.0
239,77.0,0.0,60.0,1.0,0.0
240,65.0,0.0,60.0,8.0,0.0
241,77.0,60.0,60.0,0.0,0.0
242,53.0,0.0,60.0,11.0,0.0
243,63.0,0.0,60.0,2.0,0.0
244,51.0,60.0,60.0,3.0,0.0
245,39.0,0.0,60.0,12.0,0.0
246,63.0,0.0,60.0,8.0,0.0
247,63.0,0.0,60.0,10.0,0.0
248,75.0,0.0,60.0,0.0,0.0
249,75.0,0.0,60.0,1.0,0.0
250,63.0,0.0,60.0,7.0,0.0
251,51.0,0.0,60.0,11.0,0.0
252,53.0,0.0,60.0,11.0,0.0
253,41.0,0.0,60.0,12.0,0.0
254,65.0,120.0,60.0,2.0,0.0
255,65.0,0.0,60.0,10.0,0.0
256,77.0,0.0,60.0,0.0,0.0
257,65.0,0.0,60.0,8.0,0.0
258,65.0,0.0,60.0,7.0,0.0
259,53.0,0.0,60.0,3.0,0.0
260,77.0,0.0,60.0,1.0,0.0
261,73.0,0.0,120.0,1.0,0.0
262,61.0,0.0,120.0,10.0,0.0
263,61.0,60.0,120.0,8.0,0.0
264,73.0,0.0,120.0,0.0,0.0
265,49.0,0.0,120.0,3.0,0.0
266,37.0,0.0,120.0,12.0,0.0
267,49.0,0.0,120.0,11.0,0.0
268,61.0,0.0,120.0,7.0,0.0
269,61.0,0.0,120.0,2.0,0.0
270,51.0,0.0,120.0,11.0,0.0
271,63.0,0.0,120.0,8.0,0.0
272,75.0,60.0,60.0,0.0,0.0
273,63.0,120.0,120.0,10.0,0.0
274,63.0,0.0,120.0,7.0,0.0
275,39.0,0.0,120.0,12.0,0.0
276,75.0,0.0,120.0,1.0,0.0
277,63.0,0.0,120.0,2.0,0.0
278,51.0,0.0,120.0,3.0,0.0
279,49.0,0.0,120.0,6.0,0.0
280,49.0,0.0,120.0,3.0,0.0
281,73.0,0.0,120.0,1.0,0.0
282,61.0,0.0,120.0,2.0,0.0
283,37.0,480.0,120.0,12.0,0.0
284,73.0,0.0,120.0,0.0,0.0
285,73.0,0.0,120.0,5.0,0.0
286,61.0,0.0,120.0,7.0,0.0
287,61.0,0.0,120.0,10.0,0.0
288,49.0,0.0,120.0,4.0,0.0
289,61.0,0.0,120.0,8.0,0.0
290,49.0,0.0,120.0,11.0,0.0
291,61.0,0.0,120.0,5.0,0.0
292,61.0,0.0,120.0,4.0,0.0
293,85.0,0.0,120.0,7.0,0.0
294,85.0,0.0,120.0,1.0,0.0
295,73.0,0.0,120.0,2.0,0.0
296,49.0,0.0,120.0,6.0,0.0
297,61.0,0.0,120.0,5.0,0.0
298,73.0,0.0,120.0,5.0,0.0
299,49.0,0.0,120.0,12.0,0.0
300,85.0,0.0,120.0,0.0,0.0
301,49.0,0.0,120.0,4.0,0.0
302,61.0,0.0,120.0,4.0,0.0
303,85.0,0.0,120.0,8.0,0.0
304,61.0,0.0,120.0,11.0,0.0
305,61.0,1680.0,120.0,3.0,0.0
306,73.0,0.0,120.0,10.0,0.0
307,71.0,390.0,360.0,7.0,0.0
308,71.0,180.0,270.0,7.0,0.0
309,71.0,390.0,90.0,7.0,0.0
310,71.0,480.0,360.0,7.0,0.0
311,71.0,1080.0,360.0,7.0,0.0
312,71.0,0.0,1140.0,8.0,0.0
313,49.0,0.0,1140.0,12.0,0.0
314,61.0,0.0,1140.0,11.0,0.0
315,68.0,60.0,1140.0,10.0,0.0
316,78.0,180.0,960.0,7.0,0.0
317,61.0,0.0,1140.0,3.0,0.0
318,77.0,1080.0,240.0,7.0,0.0
319,71.0,390.0,360.0,7.0,0.0
320,71.0,180.0,270.0,7.0,0.0
321,71.0,390.0,90.0,7.0,0.0
322,71.0,480.0,360.0,7.0,0.0
323,71.0,1080.0,360.0,7.0,0.0
324,71.0,0.0,1140.0,8.0,0.0
325,65.0,0.0,1140.0,10.0,0.0
326,61.0,60.0,1140.0,11.0,0.0
327,79.0,180.0,960.0,7.0,0.0
328,49.0,0.0,1140.0,12.0,0.0
329,61.0,0.0,1140.0,3.0,0.0
330,80.0,1080.0,240.0,7.0,0.0
331,83.0,390.0,360.0,7.0,0.0
332,83.0,180.0,270.0,7.0,0.0
333,83.0,630.0,90.0,7.0,0.0
334,83.0,120.0,720.0,7.0,0.0
335,49.0,0.0,120.0,12.0,0.0
336,68.0,0.0,120.0,10.0,0.0
337,71.0,120.0,120.0,8.0,0.0
338,61.0,0.0,120.0,11.0,0.0
339,61.0,0.0,120.0,3.0,0.0
340,80.0,120.0,120.0,7.0,0.0
341,77.0,120.0,120.0,7.0,0.0
342,51.0,0.0,120.0,12.0,0.0
343,63.0,0.0,120.0,3.0,0.0
344,63.0,240.0,120.0,11.0,0.0
345,66.0,0.0,120.0,10.0,0.0
346,78.0,390.0,360.0,7.0,0.0
347,70.0,0.0,120.0,8.0,0.0
348,78.0,180.0,270.0,7.0,0.0
349,78.0,630.0,90.0,7.0,0.0
350,78.0,120.0,720.0,7.0,0.0
351,58.0,0.0,120.0,3.0,0.0
352,58.0,0.0,120.0,11.0,0.0
353,61.0,120.0,120.0,10.0,0.0
354,46.0,0.0,120.0,12.0,0.0
355,66.0,0.0,120.0,8.0,0.0
356,73.0,120.0,120.0,7.0,0.0
357,70.0,360.0,120.0,7.0,0.0
358,75.0,240.0,360.0,7.0,0.0
359,59.0,240.0,120.0,11.0,0.0
360,59.0,0.0,120.0,3.0,0.0
361,47.0,0.0,120.0,12.0,0.0
362,68.0,0.0,120.0,8.0,0.0
363,63.0,0.0,120.0,10.0,0.0
364,71.0,120.0,120.0,7.0,0.0
365,68.0,480.0,120.0,7.0,0.0
366,71.0,120.0,480.0,7.0,0.0
367,59.0,0.0,120.0,10.0,0.0
368,61.0,240.0,120.0,10.0,0.0
369,49.0,0.0,120.0,12.0,0.0
370,61.0,0.0,120.0,3.0,0.0
371,61.0,0.0,120.0,11.0,0.0
372,65.0,0.0,120.0,8.0,0.0
373,68.0,120.0,120.0,7.0,0.0
374,63.0,60.0,120.0,7.0,0.0
375,66.0,30.0,90.0,8.0,0.0
376,66.0,0.0,1440.0,2.0,0.0
377,42.0,0.0,1440.0,12.0,0.0
378,78.0,0.0,4200.0,5.0,0.0
379,66.0,90.0,4200.0,5.0,0.0
380,66.0,60.0,480.0,7.0,0.0
381,54.0,30.0,60.0,6.0,0.0
382,54.0,60.0,1440.0,11.0,0.0
383,58.0,0.0,360.0,10.0,0.0
384,54.0,0.0,1440.0,3.0,0.0
385,54.0,0.0,2280.0,4.0,0.0
386,61.0,0.0,360.0,10.0,0.0
387,66.0,0.0,2280.0,4.0,0.0
388,56.0,60.0,60.0,6.0,0.0
389,54.0,30.0,60.0,6.0,0.0
390,66.0,30.0,90.0,8.0,0.0
391,56.0,60.0,60.0,6.0,0.0
392,66.0,30.0,90.0,8.0,0.0
393,54.0,30.0,60.0,6.0,0.0
394,56.0,60.0,60.0,6.0,0.0
395,66.0,30.0,90.0,8.0,0.0
396,54.0,30.0,60.0,6.0,0.0
397,56.0,0.0,60.0,6.0,0.0
398,66.0,30.0,90.0,8.0,0.0
399,54.0,30.0,60.0,6.0,0.0
400,56.0,60.0,60.0,6.0,0.0
401,66.0,30.0,90.0,8.0,0.0
402,54.0,30.0,60.0,6.0,0.0
403,56.0,60.0,60.0,6.0,0.0
404,54.0,30.0,60.0,6.0,0.0
405,66.0,30.0,90.0,8.0,0.0
406,56.0,60.0,60.0,6.0,0.0
407,54.0,30.0,60.0,6.0,0.0
408,66.0,30.0,90.0,8.0,0.0
409,56.0,60.0,60.0,6.0,0.0
410,66.0,30.0,90.0,8.0,0.0
411,66.0,0.0,720.0,10.0,0.0
412,54.0,30.0,60.0,6.0,0.0
413,56.0,60.0,60.0,6.0,0.0
414,66.0,30.0,90.0,8.0,0.0
415,54.0,30.0,60.0,6.0,0.0
416,56.0,60.0,60.0,6.0,0.0
417,66.0,30.0,90.0,8.0,0.0
418,54.0,30.0,60.0,6.0,0.0
419,56.0,60.0,60.0,6.0,0.0
420,66.0,30.0,90.0,8.0,0.0
421,54.0,30.0,60.0,6.0,0.0
422,56.0,0.0,60.0,6.0,0.0
423,54.0,30.0,60.0,6.0,0.0
424,66.0,30.0,90.0,8.0,0.0
425,56.0,60.0,60.0,6.0,0.0
426,54.0,30.0,60.0,6.0,0.0
427,66.0,30.0,90.0,8.0,0.0
428,56.0,60.0,60.0,6.0,0.0
429,54.0,30.0,60.0,6.0,0.0
430,66.0,30.0,90.0,8.0,0.0
431,56.0,60.0,60.0,6.0,0.0
432,54.0,30.0,60.0,6.0,0.0
433,66.0,30.0,90.0,8.0,0.0
434,56.0,90.0,60.0,6.0,0.0
435,66.0,0.0,1590.0,3.0,0.0
436,78.0,0.0,1590.0,2.0,0.0
437,54.0,0.0,1590.0,12.0,0.0
438,78.0,60.0,1590.0,10.0,0.0
439,66.0,120.0,90.0,8.0,0.0
440,54.0,90.0,360.0,6.0,0.0
441,66.0,0.0,1590.0,11.0,0.0
442,66.0,120.0,90.0,8.0,0.0
443,66.0,30.0,90.0,8.0,0.0
444,66.0,120.0,90.0,8.0,0.0
445,54.0,0.0,270.0,4.0,0.0
446,66.0,60.0,270.0,4.0,0.0
447,66.0,120.0,90.0,8.0,0.0
448,66.0,60.0,90.0,8.0,0.0
449,66.0,120.0,90.0,8.0,0.0
450,66.0,0.0,90.0,8.0,0.0
451,66.0,120.0,90.0,4.0,0.0
452,54.0,0.0,90.0,4.0,0.0
453,66.0,120.0,90.0,8.0,0.0
454,66.0,90.0,360.0,4.0,0.0
455,54.0,0.0,360.0,4.0,0.0
456,66.0,120.0,90.0,8.0,0.0
457,66.0,30.0,90.0,8.0,0.0
458,66.0,120.0,90.0,8.0,0.0
459,66.0,60.0,90.0,8.0,0.0
460,54.0,0.0,360.0,4.0,0.0
461,66.0,30.0,360.0,4.0,0.0
462,66.0,120.0,90.0,8.0,0.0
463,66.0,30.0,90.0,8.0,0.0
464,42.0,60.0,30.0,12.0,0.0
465,66.0,120.0,90.0,8.0,0.0
466,66.0,0.0,30.0,10.0,0.0
467,66.0,0.0,30.0,2.0,0.0
468,54.0,0.0,30.0,11.0,0.0
469,54.0,0.0,30.0,3.0,0.0
470,78.0,0.0,1440.0,1.0,0.0
471,53.0,90.0,120.0,3.0,0.0
472,53.0,0.0,120.0,11.0,0.0
473,41.0,0.0,120.0,12.0,0.0
474,66.0,0.0,2280.0,4.0,0.0
475,54.0,0.0,2280.0,4.0,0.0
476,66.0,0.0,1440.0,7.0,0.0
477,78.0,90.0,1440.0,0.0,0.0
478,65.0,0.0,120.0,10.0,0.0
479,65.0,0.0,120.0,2.0,0.0
480,66.0,30.0,90.0,8.0,0.0
481,54.0,0.0,360.0,6.0,0.0
482,66.0,120.0,90.0,8.0,0.0
483,66.0,30.0,90.0,8.0,0.0
484,66.0,120.0,90.0,8.0,0.0
485,78.0,0.0,270.0,5.0,0.0
486,77.0,0.0,120.0,2.0,0.0
487,77.0,0.0,120.0,10.0,0.0
488,66.0,30.0,90.0,8.0,0.0
489,65.0,0.0,120.0,3.0,0.0
490,65.0,90.0,120.0,11.0,0.0
491,53.0,0.0,120.0,12.0,0.0
492,54.0,60.0,270.0,6.0,0.0
493,66.0,0.0,270.0,5.0,0.0
494,66.0,60.0,90.0,8.0,0.0
495,66.0,120.0,90.0,8.0,0.0
496,66.0,0.0,90.0,5.0,0.0
497,78.0,0.0,90.0,5.0,0.0
498,66.0,120.0,90.0,8.0,0.0
499,54.0,0.0,90.0,6.0,0.0
500,66.0,90.0,360.0,5.0,0.0
501,78.0,0.0,360.0,5.0,0.0
502,66.0,120.0,90.0,8.0,0.0
503,54.0,0.0,360.0,6.0,0.0
504,66.0,120.0,90.0,8.0,0.0
505,66.0,30.0,90.0,8.0,0.0
506,66.0,30.0,90.0,8.0,0.0
507,54.0,90.0,360.0,6.0,0.0
508,66.0,0.0,360.0,5.0,0.0
509,78.0,0.0,360.0,5.0,0.0
510,66.0,120.0,90.0,8.0,0.0
511,66.0,120.0,90.0,8.0,0.0
512,66.0,30.0,90.0,8.0,0.0
513,41.0,0.0,90.0,12.0,0.0
514,65.0,0.0,90.0,2.0,0.0
515,53.0,0.0,90.0,11.0,0.0
516,53.0,0.0,90.0,3.0,0.0
517,65.0,70.0,90.0,10.0,0.0
518,66.0,0.0,90.0,8.0,0.0
519,39.0,0.0,360.0,12.0,0.0
520,66.0,50.0,40.0,7.0,0.0
521,90.0,30.0,1590.0,1.0,0.0
522,90.0,0.0,1590.0,0.0,0.0
523,63.0,0.0,360.0,2.0,0.0
524,54.0,0.0,360.0,6.0,0.0
525,51.0,90.0,360.0,3.0,0.0
526,51.0,0.0,360.0,11.0,0.0
527,78.0,90.0,2280.0,5.0,0.0
528,66.0,0.0,2280.0,5.0,0.0
529,66.0,10.0,90.0,8.0,0.0
530,63.0,0.0,360.0,10.0,0.0
531,78.0,110.0,40.0,7.0,0.0
532,90.0,0.0,1470.0,7.0,0.0
533,66.0,120.0,90.0,8.0,0.0
534,66.0,30.0,90.0,8.0,0.0
535,66.0,120.0,90.0,8.0,0.0
536,63.0,0.0,270.0,2.0,0.0
537,54.0,60.0,270.0,4.0,0.0
538,63.0,0.0,270.0,10.0,0.0
539,66.0,0.0,270.0,4.0,0.0
540,51.0,0.0,270.0,11.0,0.0
541,51.0,0.0,270.0,3.0,0.0
542,66.0,120.0,90.0,8.0,0.0
543,39.0,0.0,270.0,12.0,0.0
544,66.0,60.0,90.0,8.0,0.0
545,66.0,120.0,90.0,8.0,0.0
546,54.0,0.0,90.0,4.0,0.0
547,51.0,0.0,90.0,11.0,0.0
548,51.0,0.0,90.0,3.0,0.0
549,63.0,90.0,90.0,2.0,0.0
550,66.0,0.0,90.0,8.0,0.0
551,63.0,0.0,90.0,10.0,0.0
552,39.0,0.0,90.0,12.0,0.0
553,66.0,0.0,90.0,4.0,0.0
554,66.0,30.0,90.0,8.0,0.0
555,63.0,0.0,60.0,10.0,0.0
556,51.0,0.0,60.0,11.0,0.0
557,66.0,60.0,360.0,4.0,0.0
558,51.0,30.0,60.0,3.0,0.0
559,39.0,0.0,60.0,12.0,0.0
560,54.0,0.0,360.0,4.0,0.0
561,63.0,0.0,60.0,2.0,0.0
562,41.0,60.0,60.0,12.0,0.0
563,65.0,0.0,60.0,2.0,0.0
564,53.0,0.0,60.0,3.0,0.0
565,53.0,0.0,60.0,11.0,0.0
566,65.0,0.0,60.0,10.0,0.0
567,51.0,0.0,60.0,3.0,0.0
568,66.0,30.0,90.0,8.0,0.0
569,51.0,0.0,60.0,11.0,0.0
570,63.0,0.0,60.0,2.0,0.0
571,39.0,30.0,60.0,12.0,0.0
572,63.0,0.0,60.0,10.0,0.0
573,65.0,60.0,60.0,10.0,0.0
574,53.0,0.0,60.0,3.0,0.0
575,53.0,0.0,60.0,11.0,0.0
576,65.0,0.0,60.0,2.0,0.0
577,41.0,0.0,60.0,12.0,0.0
578,63.0,0.0,60.0,2.0,0.0
579,39.0,0.0,60.0,12.0,0.0
580,51.0,30.0,60.0,3.0,0.0
581,63.0,0.0,60.0,10.0,0.0
582,51.0,0.0,60.0,11.0,0.0
583,66.0,30.0,90.0,8.0,0.0
584,65.0,0.0,60.0,2.0,0.0
585,41.0,0.0,60.0,12.0,0.0
586,53.0,0.0,60.0,3.0,0.0
587,65.0,0.0,60.0,10.0,0.0
588,53.0,0.0,60.0,11.0,0.0
589,39.0,0.0,60.0,12.0,0.0
590,51.0,0.0,60.0,11.0,0.0
591,63.0,30.0,60.0,2.0,0.0
592,66.0,30.0,90.0,8.0,0.0
593,51.0,0.0,60.0,3.0,0.0
594,63.0,0.0,60.0,10.0,0.0
595,53.0,0.0,60.0,3.0,0.0
596,41.0,0.0,60.0,12.0,0.0
597,65.0,0.0,60.0,10.0,0.0
598,53.0,0.0,60.0,11.0,0.0
599,65.0,60.0,60.0,2.0,0.0
600,66.0,30.0,90.0,8.0,0.0
601,51.0,0.0,60.0,11.0,0.0
602,51.0,0.0,60.0,3.0,0.0
603,63.0,0.0,60.0,10.0,0.0
604,39.0,0.0,60.0,12.0,0.0
605,66.0,30.0,360.0,4.0,0.0
606,63.0,30.0,60.0,2.0,0.0
607,54.0,0.0,360.0,4.0,0.0
608,53.0,0.0,60.0,11.0,0.0
609,65.0,0.0,60.0,2.0,0.0
610,53.0,0.0,60.0,3.0,0.0
611,65.0,30.0,60.0,10.0,0.0
612,41.0,0.0,60.0,12.0,0.0
613,39.0,0.0,60.0,12.0,0.0
614,51.0,0.0,60.0,11.0,0.0
615,66.0,30.0,90.0,8.0,0.0
616,63.0,0.0,60.0,2.0,0.0
617,51.0,0.0,60.0,3.0,0.0
618,63.0,30.0,60.0,10.0,0.0
619,53.0,0.0,60.0,11.0,0.0
620,53.0,90.0,60.0,3.0,0.0
621,41.0,0.0,60.0,12.0,0.0
622,65.0,0.0,60.0,2.0,0.0
623,65.0,0.0,60.0,10.0,0.0
624,66.0,30.0,90.0,8.0,0.0
625,37.0,0.0,120.0,12.0,0.0
626,49.0,0.0,120.0,11.0,0.0
627,61.0,0.0,120.0,2.0,0.0
628,61.0,0.0,120.0,10.0,0.0
629,49.0,0.0,120.0,3.0,0.0
630,63.0,0.0,120.0,2.0,0.0
631,78.0,0.0,30.0,0.0,0.0
632,66.0,30.0,90.0,8.0,0.0
633,63.0,90.0,120.0,10.0,0.0
634,51.0,0.0,120.0,11.0,0.0
635,39.0,0.0,120.0,12.0,0.0
636,78.0,60.0,30.0,1.0,0.0
637,66.0,0.0,30.0,7.0,0.0
638,51.0,0.0,120.0,3.0,0.0
639,49.0,0.0,120.0,11.0,0.0
640,61.0,90.0,120.0,2.0,0.0
641,54.0,0.0,360.0,6.0,0.0
642,49.0,0.0,120.0,3.0,0.0
643,37.0,0.0,120.0,12.0,0.0
644,66.0,30.0,90.0,8.0,0.0
645,54.0,0.0,2280.0,4.0,0.0
646,65.0,0.0,120.0,7.0,0.0
647,61.0,0.0,120.0,10.0,0.0
648,66.0,0.0,2280.0,4.0,0.0
649,77.0,0.0,120.0,1.0,0.0
650,77.0,0.0,120.0,0.0,0.0
651,66.0,120.0,90.0,8.0,0.0
652,66.0,30.0,90.0,8.0,0.0
653,66.0,120.0,90.0,8.0,0.0
654,61.0,0.0,120.0,11.0,0.0
655,73.0,0.0,120.0,10.0,0.0
656,73.0,0.0,120.0,2.0,0.0
657,89.0,0.0,120.0,7.0,0.0
658,49.0,0.0,120.0,12.0,0.0
659,89.0,0.0,120.0,1.0,0.0
660,66.0,60.0,270.0,5.0,0.0
661,78.0,0.0,270.0,5.0,0.0
662,54.0,0.0,270.0,6.0,0.0
663,66.0,30.0,90.0,8.0,0.0
664,61.0,0.0,120.0,3.0,0.0
665,89.0,90.0,120.0,0.0,0.0
666,66.0,60.0,90.0,8.0,0.0
667,66.0,120.0,90.0,8.0,0.0
668,66.0,0.0,90.0,8.0,0.0
669,78.0,120.0,90.0,5.0,0.0
670,66.0,0.0,90.0,5.0,0.0
671,54.0,0.0,90.0,6.0,0.0
672,66.0,120.0,90.0,8.0,0.0
673,54.0,90.0,360.0,6.0,0.0
674,66.0,0.0,360.0,5.0,0.0
675,78.0,0.0,360.0,5.0,0.0
676,66.0,120.0,90.0,8.0,0.0
677,66.0,30.0,90.0,8.0,0.0
678,66.0,120.0,90.0,8.0,0.0
679,66.0,0.0,360.0,5.0,0.0
680,78.0,0.0,360.0,5.0,0.0
681,54.0,90.0,360.0,6.0,0.0
682,66.0,120.0,90.0,8.0,0.0
683,66.0,120.0,90.0,8.0,0.0
684,66.0,30.0,90.0,8.0,0.0
685,49.0,0.0,90.0,11.0,0.0
686,49.0,0.0,90.0,3.0,0.0
687,37.0,0.0,90.0,12.0,0.0
688,77.0,0.0,90.0,1.0,0.0
689,65.0,0.0,90.0,7.0,0.0
690,61.0,0.0,90.0,10.0,0.0
691,66.0,0.0,90.0,8.0,0.0
692,77.0,0.0,90.0,0.0,0.0
693,61.0,120.0,90.0,2.0,0.0
694,66.0,120.0,90.0,8.0,0.0
695,63.0,0.0,360.0,7.0,0.0
696,54.0,0.0,360.0,6.0,0.0
697,75.0,0.0,360.0,0.0,0.0
698,47.0,0.0,360.0,11.0,0.0
699,35.0,0.0,360.0,12.0,0.0
700,59.0,0.0,360.0,2.0,0.0
701,75.0,0.0,360.0,1.0,0.0
702,47.0,0.0,360.0,3.0,0.0
703,78.0,0.0,360.0,5.0,0.0
704,59.0,90.0,360.0,10.0,0.0
705,66.0,0.0,360.0,5.0,0.0
706,66.0,120.0,90.0,8.0,0.0
707,66.0,30.0,90.0,8.0,0.0
708,66.0,120.0,90.0,8.0,0.0
709,75.0,60.0,270.0,0.0,0.0
710,66.0,120.0,90.0,8.0,0.0
711,59.0,0.0,270.0,11.0,0.0
712,47.0,0.0,270.0,12.0,0.0
713,54.0,0.0,270.0,6.0,0.0
714,59.0,0.0,270.0,2.0,0.0
715,63.0,0.0,270.0,7.0,0.0
716,78.0,0.0,270.0,5.0,0.0
717,59.0,0.0,270.0,3.0,0.0
718,66.0,0.0,270.0,5.0,0.0
719,66.0,0.0,270.0,4.0,0.0
720,59.0,0.0,270.0,10.0,0.0
721,75.0,0.0,270.0,1.0,0.0
722,54.0,0.0,270.0,4.0,0.0
723,66.0,60.0,90.0,8.0,0.0
724,66.0,120.0,90.0,8.0,0.0
725,66.0,0.0,90.0,8.0,0.0
726,54.0,0.0,90.0,6.0,0.0
727,59.0,0.0,90.0,10.0,0.0
728,78.0,0.0,90.0,5.0,0.0
729,47.0,0.0,90.0,12.0,0.0
730,59.0,0.0,90.0,11.0,0.0
731,75.0,0.0,90.0,0.0,0.0
732,63.0,0.0,90.0,7.0,0.0
733,59.0,0.0,90.0,2.0,0.0
734,59.0,0.0,90.0,3.0,0.0
735,66.0,0.0,90.0,4.0,0.0
736,75.0,90.0,90.0,1.0,0.0
737,66.0,0.0,90.0,5.0,0.0
738,54.0,0.0,90.0,4.0,0.0
739,59.0,0.0,60.0,11.0,0.0
740,75.0,0.0,60.0,0.0,0.0
741,75.0,0.0,60.0,1.0,0.0
742,47.0,0.0,60.0,12.0,0.0
743,66.0,60.0,360.0,5.0,0.0
744,59.0,30.0,60.0,10.0,0.0
745,59.0,0.0,60.0,3.0,0.0
746,54.0,0.0,360.0,6.0,0.0
747,66.0,30.0,90.0,8.0,0.0
748,59.0,0.0,60.0,2.0,0.0
749,63.0,0.0,60.0,7.0,0.0
750,54.0,0.0,360.0,4.0,0.0
751,78.0,0.0,360.0,5.0,0.0
752,66.0,0.0,360.0,4.0,0.0
753,61.0,0.0,60.0,11.0,0.0
754,77.0,0.0,60.0,1.0,0.0
755,61.0,0.0,60.0,2.0,0.0
756,49.0,0.0,60.0,12.0,0.0
757,77.0,0.0,60.0,0.0,0.0
758,65.0,0.0,60.0,7.0,0.0
759,61.0,60.0,60.0,10.0,0.0
760,61.0,0.0,60.0,3.0,0.0
761,63.0,0.0,60.0,7.0,0.0
762,75.0,0.0,60.0,1.0,0.0
763,59.0,0.0,60.0,3.0,0.0
764,75.0,0.0,60.0,0.0,0.0
765,66.0,30.0,90.0,8.0,0.0
766,47.0,0.0,60.0,12.0,0.0
767,59.0,0.0,60.0,10.0,0.0
768,59.0,0.0,60.0,2.0,0.0
769,59.0,30.0,60.0,11.0,0.0
770,49.0,60.0,60.0,12.0,0.0
771,77.0,0.0,60.0,1.0,0.0
772,77.0,0.0,60.0,0.0,0.0
773,65.0,0.0,60.0,7.0,0.0
774,61.0,0.0,60.0,10.0,0.0
775,61.0,0.0,60.0,11.0,0.0
776,61.0,0.0,60.0,2.0,0.0
777,61.0,0.0,60.0,3.0,0.0
778,63.0,30.0,60.0,7.0,0.0
779,59.0,0.0,60.0,3.0,0.0
780,59.0,0.0,60.0,10.0,0.0
781,75.0,0.0,60.0,1.0,0.0
782,59.0,0.0,60.0,11.0,0.0
783,66.0,30.0,90.0,8.0,0.0
784,75.0,0.0,60.0,0.0,0.0
785,59.0,0.0,60.0,2.0,0.0
786,47.0,0.0,60.0,12.0,0.0
787,77.0,0.0,60.0,0.0,0.0
788,49.0,0.0,60.0,12.0,0.0
789,61.0,0.0,60.0,2.0,0.0
790,77.0,0.0,60.0,1.0,0.0
791,65.0,0.0,60.0,7.0,0.0
792,61.0,0.0,60.0,10.0,0.0
793,61.0,0.0,60.0,11.0,0.0
794,61.0,0.0,60.0,3.0,0.0
795,59.0,0.0,60.0,2.0,0.0
796,75.0,0.0,60.0,0.0,0.0
797,59.0,30.0,60.0,11.0,0.0
798,75.0,0.0,60.0,1.0,0.0
799,66.0,30.0,90.0,8.0,0.0
800,59.0,0.0,60.0,10.0,0.0
801,63.0,0.0,60.0,7.0,0.0
802,59.0,0.0,60.0,3.0,0.0
803,47.0,0.0,60.0,12.0,0.0
804,77.0,60.0,60.0,0.0,0.0
805,61.0,0.0,60.0,3.0,0.0
806,61.0,0.0,60.0,11.0,0.0
807,61.0,0.0,60.0,2.0,0.0
808,77.0,0.0,60.0,1.0,0.0
809,65.0,0.0,60.0,7.0,0.0
810,49.0,0.0,60.0,12.0,0.0
811,61.0,0.0,60.0,10.0,0.0
812,66.0,30.0,90.0,8.0,0.0
813,54.0,90.0,360.0,4.0,0.0
814,59.0,0.0,60.0,10.0,0.0
815,59.0,0.0,60.0,2.0,0.0
816,63.0,0.0,60.0,7.0,0.0
817,75.0,0.0,60.0,1.0,0.0
818,66.0,0.0,360.0,4.0,0.0
819,54.0,0.0,360.0,6.0,0.0
820,59.0,0.0,60.0,11.0,0.0
821,47.0,0.0,60.0,12.0,0.0
822,59.0,30.0,60.0,3.0,0.0
823,66.0,0.0,360.0,5.0,0.0
824,78.0,0.0,360.0,5.0,0.0
825,75.0,0.0,60.0,0.0,0.0
826,65.0,0.0,60.0,7.0,0.0
827,61.0,0.0,60.0,11.0,0.0
828,61.0,0.0,60.0,10.0,0.0
829,77.0,0.0,60.0,1.0,0.0
830,49.0,0.0,60.0,12.0,0.0
831,61.0,0.0,60.0,2.0,0.0
832,61.0,60.0,60.0,3.0,0.0
833,77.0,0.0,60.0,0.0,0.0
834,59.0,0.0,60.0,2.0,0.0
835,63.0,0.0,60.0,7.0,0.0
836,75.0,30.0,60.0,1.0,0.0
837,66.0,30.0,90.0,8.0,0.0
838,75.0,0.0,60.0,0.0,0.0
839,59.0,0.0,60.0,3.0,0.0
840,59.0,0.0,60.0,11.0,0.0
841,47.0,0.0,60.0,12.0,0.0
842,59.0,0.0,60.0,10.0,0.0
843,61.0,0.0,60.0,10.0,0.0
844,49.0,90.0,60.0,12.0,0.0
845,61.0,0.0,60.0,3.0,0.0
846,61.0,0.0,60.0,11.0,0.0
847,65.0,0.0,60.0,7.0,0.0
848,77.0,0.0,60.0,1.0,0.0
849,61.0,0.0,60.0,2.0,0.0
850,77.0,0.0,60.0,0.0,0.0
851,58.0,0.0,120.0,3.0,0.0
852,58.0,0.0,120.0,2.0,0.0
853,61.0,0.0,120.0,7.0,0.0
854,73.0,0.0,120.0,0.0,0.0
855,66.0,30.0,90.0,8.0,0.0
856,58.0,0.0,120.0,11.0,0.0
857,73.0,0.0,120.0,1.0,0.0
858,46.0,0.0,120.0,12.0,0.0
859,58.0,0.0,120.0,10.0,0.0
860,47.0,0.0,120.0,12.0,0.0
861,59.0,30.0,120.0,2.0,0.0
862,59.0,0.0,120.0,3.0,0.0
863,75.0,0.0,120.0,1.0,0.0
864,75.0,0.0,120.0,0.0,0.0
865,63.0,0.0,120.0,7.0,0.0
866,66.0,30.0,90.0,8.0,0.0
867,59.0,0.0,120.0,11.0,0.0
868,59.0,0.0,120.0,10.0,0.0
869,66.0,0.0,360.0,4.0,0.0
870,73.0,0.0,360.0,1.0,0.0
871,54.0,0.0,360.0,4.0,0.0
872,58.0,0.0,360.0,10.0,0.0
873,58.0,0.0,360.0,11.0,0.0
874,73.0,0.0,360.0,0.0,0.0
875,61.0,30.0,30.0,7.0,0.0
876,46.0,0.0,360.0,12.0,0.0
877,54.0,0.0,360.0,6.0,0.0
878,58.0,120.0,360.0,3.0,0.0
879,66.0,0.0,360.0,5.0,0.0
880,78.0,0.0,360.0,5.0,0.0
881,58.0,0.0,360.0,2.0,0.0
882,66.0,180.0,60.0,8.0,0.0
883,66.0,120.0,120.0,7.0,0.0
884,68.0,0.0,120.0,8.0,0.0
885,68.0,0.0,120.0,7.0,0.0
886,70.0,120.0,120.0,8.0,0.0
887,70.0,0.0,120.0,7.0,0.0
888,71.0,120.0,120.0,7.0,0.0
889,71.0,0.0,120.0,8.0,0.0
890,73.0,120.0,120.0,7.0,0.0
891,73.0,0.0,120.0,8.0,0.0
892,75.0,0.0,120.0,8.0,0.0
893,75.0,120.0,120.0,7.0,0.0
894,77.0,120.0,120.0,8.0,0.0
895,77.0,0.0,120.0,7.0,0.0
896,78.0,0.0,120.0,7.0,0.0
897,78.0,120.0,120.0,8.0,0.0
898,80.0,120.0,120.0,7.0,0.0
899,80.0,0.0,120.0,8.0,0.0
900,82.0,120.0,120.0,8.0,0.0
901,82.0,0.0,120.0,7.0,0.0
902,83.0,0.0,120.0,8.0,0.0
903,83.0,120.0,120.0,7.0,0.0
904,85.0,120.0,120.0,8.0,0.0
905,70.0,0.0,360.0,3.0,0.0
906,78.0,120.0,360.0,1.0,0.0
907,58.0,0.0,360.0,12.0,0.0
908,85.0,0.0,120.0,7.0,0.0
909,90.0,0.0,360.0,1.0,0.0
910,66.0,0.0,360.0,2.0,0.0
911,73.0,0.0,360.0,2.0,0.0
912,70.0,0.0,360.0,10.0,0.0
913,85.0,0.0,360.0,0.0,0.0
914,70.0,0.0,360.0,11.0,0.0
915,87.0,0.0,120.0,8.0,0.0
916,87.0,120.0,120.0,7.0,0.0
917,89.0,0.0,120.0,7.0,0.0
918,89.0,0.0,120.0,8.0,0.0
919,90.0,0.0,120.0,8.0,0.0
920,90.0,120.0,120.0,7.0,0.0
921,71.0,0.0,180.0,2.0,0.0
922,83.0,0.0,180.0,0.0,0.0
923,95.0,0.0,180.0,0.0,0.0
924,61.0,0.0,180.0,4.0,0.0
925,83.0,60.0,120.0,8.0,0.0
926,68.0,0.0,180.0,10.0,0.0
927,73.0,60.0,180.0,5.0,0.0
928,83.0,0.0,180.0,2.0,0.0
929,83.0,0.0,180.0,1.0,0.0
930,83.0,0.0,120.0,7.0,0.0
931,49.0,60.0,360.0,6.0,0.0
932,68.0,0.0,180.0,3.0,0.0
933,56.0,0.0,180.0,12.0,0.0
934,68.0,0.0,180.0,11.0,0.0
935,85.0,0.0,120.0,7.0,0.0
936,85.0,120.0,120.0,8.0,0.0
937,66.0,0.0,180.0,11.0,0.0
938,66.0,0.0,180.0,3.0,0.0
939,82.0,0.0,120.0,7.0,0.0
940,82.0,0.0,180.0,1.0,0.0
941,70.0,0.0,180.0,2.0,0.0
942,82.0,0.0,180.0,2.0,0.0
943,73.0,0.0,180.0,5.0,0.0
944,94.0,0.0,180.0,0.0,0.0
945,82.0,0.0,180.0,0.0,0.0
946,54.0,0.0,180.0,12.0,0.0
947,61.0,60.0,180.0,4.0,0.0
948,82.0,0.0,120.0,8.0,0.0
949,66.0,0.0,180.0,10.0,0.0
950,83.0,0.0,120.0,7.0,0.0
951,83.0,120.0,120.0,8.0,0.0
952,80.0,0.0,120.0,7.0,0.0
953,65.0,0.0,180.0,10.0,0.0
954,53.0,0.0,180.0,12.0,0.0
955,65.0,0.0,180.0,11.0,0.0
956,80.0,0.0,180.0,0.0,0.0
957,65.0,0.0,180.0,3.0,0.0
958,92.0,0.0,180.0,0.0,0.0
959,61.0,0.0,180.0,4.0,0.0
960,80.0,60.0,120.0,8.0,0.0
961,73.0,0.0,180.0,5.0,0.0
962,49.0,90.0,270.0,6.0,0.0
963,80.0,0.0,180.0,2.0,0.0
964,68.0,0.0,180.0,2.0,0.0
965,80.0,60.0,180.0,1.0,0.0
966,82.0,0.0,120.0,7.0,0.0
967,82.0,30.0,120.0,8.0,0.0
968,61.0,0.0,180.0,4.0,0.0
969,78.0,60.0,120.0,7.0,0.0
970,66.0,0.0,180.0,2.0,0.0
971,78.0,0.0,180.0,2.0,0.0
972,63.0,0.0,180.0,10.0,0.0
973,73.0,0.0,180.0,5.0,0.0
974,63.0,0.0,180.0,11.0,0.0
975,78.0,0.0,180.0,1.0,0.0
976,90.0,0.0,180.0,1.0,0.0
977,63.0,0.0,180.0,3.0,0.0
978,78.0,0.0,120.0,8.0,0.0
979,90.0,30.0,180.0,0.0,0.0
980,51.0,0.0,180.0,12.0,0.0
981,78.0,0.0,180.0,0.0,0.0
982,80.0,0.0,120.0,8.0,0.0
983,49.0,30.0,90.0,6.0,0.0
984,80.0,120.0,120.0,7.0,0.0
985,77.0,0.0,180.0,1.0,0.0
986,61.0,0.0,180.0,3.0,0.0
987,89.0,0.0,180.0,0.0,0.0
988,61.0,0.0,180.0,11.0,0.0
989,65.0,0.0,180.0,2.0,0.0
990,61.0,0.0,180.0,10.0,0.0
991,77.0,0.0,180.0,2.0,0.0
992,73.0,60.0,180.0,5.0,0.0
993,77.0,60.0,120.0,7.0,0.0
994,61.0,0.0,180.0,4.0,0.0
995,49.0,0.0,360.0,6.0,0.0
996,77.0,0.0,120.0,8.0,0.0
997,77.0,0.0,180.0,0.0,0.0
998,49.0,0.0,180.0,12.0,0.0
999,89.0,0.0,180.0,1.0,0.0
1000,78.0,120.0,120.0,7.0,0.0
1001,78.0,0.0,120.0,8.0,0.0
1002,87.0,0.0,180.0,0.0,0.0
1003,61.0,0.0,180.0,4.0,0.0
1004,71.0,60.0,180.0,10.0,0.0
1005,75.0,0.0,180.0,2.0,0.0
1006,75.0,60.0,120.0,8.0,0.0
1007,87.0,0.0,180.0,1.0,0.0
1008,75.0,0.0,120.0,7.0,0.0
1009,73.0,0.0,180.0,5.0,0.0
1010,59.0,0.0,180.0,3.0,0.0
1011,75.0,0.0,180.0,1.0,0.0
1012,47.0,0.0,180.0,12.0,0.0
1013,63.0,0.0,180.0,2.0,0.0
1014,59.0,0.0,180.0,11.0,0.0
1015,77.0,0.0,120.0,7.0,0.0
1016,77.0,120.0,120.0,8.0,0.0
1017,58.0,0.0,180.0,11.0,0.0
1018,61.0,0.0,180.0,4.0,0.0
1019,46.0,0.0,180.0,12.0,0.0
1020,73.0,0.0,180.0,1.0,0.0
1021,70.0,0.0,180.0,10.0,0.0
1022,58.0,0.0,180.0,3.0,0.0
1023,61.0,0.0,180.0,2.0,0.0
1024,85.0,60.0,180.0,0.0,0.0
1025,73.0,0.0,180.0,5.0,0.0
1026,73.0,0.0,120.0,7.0,0.0
1027,73.0,0.0,180.0,2.0,0.0
1028,49.0,0.0,360.0,6.0,0.0
1029,85.0,0.0,180.0,1.0,0.0
1030,73.0,60.0,120.0,8.0,0.0
1031,75.0,0.0,120.0,7.0,0.0
1032,75.0,120.0,120.0,8.0,0.0
1033,71.0,0.0,180.0,1.0,0.0
1034,44.0,60.0,180.0,12.0,0.0
1035,71.0,0.0,180.0,2.0,0.0
1036,59.0,0.0,180.0,2.0,0.0
1037,83.0,0.0,180.0,1.0,0.0
1038,71.0,0.0,120.0,8.0,0.0
1039,56.0,0.0,180.0,11.0,0.0
1040,83.0,0.0,180.0,0.0,0.0
1041,73.0,0.0,180.0,5.0,0.0
1042,68.0,0.0,180.0,10.0,0.0
1043,61.0,0.0,180.0,4.0,0.0
1044,56.0,0.0,180.0,3.0,0.0
1045,71.0,60.0,120.0,7.0,0.0
1046,73.0,120.0,120.0,7.0,0.0
1047,73.0,0.0,120.0,8.0,0.0
1048,70.0,0.0,120.0,7.0,0.0
1049,54.0,0.0,360.0,6.0,0.0
1050,66.0,120.0,360.0,10.0,0.0
1051,70.0,120.0,120.0,8.0,0.0
1052,66.0,0.0,360.0,4.0,0.0
1053,78.0,0.0,360.0,5.0,0.0
1054,73.0,0.0,360.0,5.0,0.0
1055,42.0,0.0,360.0,12.0,0.0
1056,61.0,0.0,360.0,4.0,0.0
1057,54.0,0.0,360.0,11.0,0.0
1058,70.0,0.0,360.0,1.0,0.0
1059,82.0,0.0,360.0,1.0,0.0
1060,54.0,0.0,360.0,3.0,0.0
1061,82.0,0.0,360.0,0.0,0.0
1062,70.0,0.0,360.0,2.0,0.0
1063,58.0,0.0,360.0,2.0,0.0
1064,66.0,0.0,120.0,7.0,0.0
1065,66.0,120.0,120.0,8.0,0.0
1066,68.0,0.0,120.0,7.0,0.0
1067,68.0,0.0,120.0,8.0,0.0
1068,70.0,0.0,120.0,7.0,0.0
1069,70.0,120.0,120.0,8.0,0.0
1070,71.0,120.0,120.0,8.0,0.0
1071,71.0,0.0,120.0,7.0,0.0
1072,73.0,0.0,120.0,7.0,0.0
1073,73.0,120.0,120.0,8.0,0.0
1074,75.0,120.0,120.0,7.0,0.0
1075,75.0,0.0,120.0,8.0,0.0
1076,77.0,120.0,120.0,7.0,0.0
1077,77.0,0.0,120.0,8.0,0.0
1078,78.0,0.0,120.0,8.0,0.0
1079,78.0,120.0,120.0,7.0,0.0
1080,80.0,0.0,120.0,8.0,0.0
1081,80.0,120.0,120.0,7.0,0.0
1082,82.0,120.0,120.0,8.0,0.0
1083,82.0,0.0,120.0,7.0,0.0
1084,83.0,0.0,120.0,8.0,0.0
1085,83.0,120.0,120.0,7.0,0.0
1086,85.0,120.0,120.0,8.0,0.0
1087,90.0,0.0,360.0,1.0,0.0
1088,85.0,0.0,120.0,7.0,0.0
1089,58.0,0.0,360.0,12.0,0.0
1090,66.0,0.0,360.0,2.0,0.0
1091,70.0,0.0,360.0,3.0,0.0
1092,85.0,120.0,360.0,0.0,0.0
1093,73.0,0.0,360.0,2.0,0.0
1094,70.0,0.0,360.0,10.0,0.0
1095,78.0,0.0,360.0,1.0,0.0
1096,70.0,0.0,360.0,11.0,0.0
1097,87.0,0.0,120.0,7.0,0.0
1098,87.0,120.0,120.0,8.0,0.0
1099,89.0,0.0,120.0,7.0,0.0
1100,89.0,0.0,120.0,8.0,0.0
1101,90.0,120.0,120.0,8.0,0.0
1102,90.0,0.0,120.0,7.0,0.0
1103,83.0,0.0,120.0,8.0,0.0
1104,83.0,0.0,180.0,1.0,0.0
1105,68.0,0.0,180.0,3.0,0.0
1106,61.0,0.0,180.0,4.0,0.0
1107,56.0,0.0,180.0,12.0,0.0
1108,83.0,0.0,180.0,0.0,0.0
1109,97.0,0.0,180.0,0.0,0.0
1110,83.0,0.0,180.0,2.0,0.0
1111,71.0,0.0,180.0,2.0,0.0
1112,73.0,60.0,180.0,5.0,0.0
1113,68.0,0.0,180.0,10.0,0.0
1114,68.0,0.0,180.0,11.0,0.0
1115,49.0,60.0,360.0,6.0,0.0
1116,83.0,60.0,120.0,7.0,0.0
1117,85.0,0.0,120.0,7.0,0.0
1118,85.0,120.0,120.0,8.0,0.0
1119,61.0,0.0,180.0,4.0,0.0
1120,66.0,0.0,180.0,10.0,0.0
1121,82.0,0.0,180.0,2.0,0.0
1122,70.0,0.0,180.0,2.0,0.0
1123,54.0,0.0,180.0,12.0,0.0
1124,73.0,60.0,180.0,5.0,0.0
1125,94.0,0.0,180.0,0.0,0.0
1126,82.0,0.0,180.0,0.0,0.0
1127,82.0,0.0,120.0,8.0,0.0
1128,66.0,0.0,180.0,3.0,0.0
1129,66.0,0.0,180.0,11.0,0.0
1130,82.0,0.0,120.0,7.0,0.0
1131,82.0,0.0,180.0,1.0,0.0
1132,83.0,0.0,120.0,8.0,0.0
1133,83.0,120.0,120.0,7.0,0.0
1134,65.0,0.0,180.0,11.0,0.0
1135,68.0,0.0,180.0,2.0,0.0
1136,80.0,0.0,120.0,8.0,0.0
1137,92.0,0.0,180.0,0.0,0.0
1138,80.0,0.0,180.0,2.0,0.0
1139,65.0,0.0,180.0,3.0,0.0
1140,65.0,0.0,180.0,10.0,0.0
1141,80.0,0.0,180.0,0.0,0.0
1142,80.0,60.0,120.0,7.0,0.0
1143,80.0,0.0,180.0,1.0,0.0
1144,73.0,0.0,180.0,5.0,0.0
1145,49.0,90.0,270.0,6.0,0.0
1146,61.0,60.0,180.0,4.0,0.0
1147,53.0,0.0,180.0,12.0,0.0
1148,82.0,0.0,120.0,8.0,0.0
1149,82.0,30.0,120.0,7.0,0.0
1150,78.0,0.0,180.0,2.0,0.0
1151,61.0,0.0,180.0,4.0,0.0
1152,66.0,0.0,180.0,2.0,0.0
1153,78.0,60.0,120.0,8.0,0.0
1154,51.0,0.0,180.0,12.0,0.0
1155,78.0,0.0,180.0,1.0,0.0
1156,63.0,0.0,180.0,11.0,0.0
1157,63.0,0.0,180.0,3.0,0.0
1158,78.0,0.0,120.0,7.0,0.0
1159,63.0,30.0,180.0,10.0,0.0
1160,78.0,0.0,180.0,0.0,0.0
1161,73.0,0.0,180.0,5.0,0.0
1162,90.0,0.0,180.0,0.0,0.0
1163,80.0,120.0,120.0,7.0,0.0
1164,49.0,30.0,90.0,6.0,0.0
1165,80.0,0.0,120.0,8.0,0.0
1166,73.0,0.0,180.0,5.0,0.0
1167,49.0,0.0,360.0,6.0,0.0
1168,61.0,0.0,180.0,10.0,0.0
1169,61.0,0.0,180.0,11.0,0.0
1170,77.0,0.0,120.0,7.0,0.0
1171,89.0,0.0,180.0,1.0,0.0
1172,49.0,0.0,180.0,12.0,0.0
1173,77.0,0.0,180.0,1.0,0.0
1174,65.0,0.0,180.0,2.0,0.0
1175,77.0,0.0,180.0,2.0,0.0
1176,61.0,60.0,180.0,3.0,0.0
1177,77.0,0.0,180.0,0.0,0.0
1178,89.0,0.0,180.0,0.0,0.0
1179,61.0,0.0,180.0,4.0,0.0
1180,77.0,60.0,120.0,8.0,0.0
1181,78.0,0.0,120.0,7.0,0.0
1182,78.0,120.0,120.0,8.0,0.0
1183,59.0,0.0,180.0,11.0,0.0
1184,61.0,0.0,180.0,4.0,0.0
1185,75.0,0.0,120.0,7.0,0.0
1186,87.0,0.0,180.0,0.0,0.0
1187,75.0,0.0,180.0,2.0,0.0
1188,63.0,0.0,180.0,2.0,0.0
1189,87.0,0.0,180.0,1.0,0.0
1190,71.0,60.0,180.0,10.0,0.0
1191,47.0,0.0,180.0,12.0,0.0
1192,73.0,0.0,180.0,5.0,0.0
1193,59.0,0.0,180.0,3.0,0.0
1194,75.0,0.0,180.0,1.0,0.0
1195,75.0,60.0,120.0,8.0,0.0
1196,77.0,120.0,120.0,8.0,0.0
1197,77.0,0.0,120.0,7.0,0.0
1198,73.0,0.0,120.0,7.0,0.0
1199,58.0,0.0,180.0,11.0,0.0
1200,73.0,0.0,180.0,2.0,0.0
1201,61.0,0.0,180.0,4.0,0.0
1202,73.0,60.0,120.0,8.0,0.0
1203,61.0,0.0,180.0,2.0,0.0
1204,85.0,0.0,180.0,1.0,0.0
1205,49.0,0.0,360.0,6.0,0.0
1206,70.0,60.0,180.0,10.0,0.0
1207,73.0,0.0,180.0,5.0,0.0
1208,58.0,0.0,180.0,3.0,0.0
1209,46.0,0.0,180.0,12.0,0.0
1210,85.0,0.0,180.0,0.0,0.0
1211,73.0,0.0,180.0,1.0,0.0
1212,75.0,0.0,120.0,7.0,0.0
1213,75.0,120.0,120.0,8.0,0.0
1214,59.0,0.0,180.0,2.0,0.0
1215,44.0,0.0,180.0,12.0,0.0
1216,56.0,0.0,180.0,3.0,0.0
1217,73.0,60.0,180.0,5.0,0.0
1218,68.0,0.0,180.0,10.0,0.0
1219,83.0,0.0,180.0,1.0,0.0
1220,71.0,0.0,180.0,2.0,0.0
1221,56.0,0.0,180.0,11.0,0.0
1222,71.0,0.0,180.0,1.0,0.0
1223,71.0,0.0,120.0,8.0,0.0
1224,83.0,0.0,180.0,0.0,0.0
1225,71.0,60.0,120.0,7.0,0.0
1226,61.0,0.0,180.0,4.0,0.0
1227,73.0,60.0,120.0,8.0,0.0
1228,73.0,0.0,120.0,7.0,0.0
1229,78.0,60.0,360.0,5.0,0.0
1230,58.0,0.0,360.0,2.0,0.0
1231,82.0,0.0,360.0,0.0,0.0
1232,70.0,120.0,60.0,7.0,0.0
1233,70.0,0.0,360.0,8.0,0.0
1234,42.0,0.0,360.0,12.0,0.0
1235,66.0,0.0,360.0,4.0,0.0
1236,61.0,0.0,360.0,4.0,0.0
1237,82.0,0.0,360.0,1.0,0.0
1238,70.0,0.0,360.0,1.0,0.0
1239,70.0,0.0,360.0,2.0,0.0
1240,66.0,0.0,360.0,10.0,0.0
1241,54.0,0.0,360.0,3.0,0.0
1242,73.0,0.0,360.0,5.0,0.0
1243,54.0,0.0,360.0,11.0,0.0
1244,54.0,0.0,360.0,6.0,0.0
1245,66.0,120.0,60.0,7.0,0.0
1246,68.0,60.0,60.0,7.0,0.0
1247,70.0,120.0,60.0,7.0,0.0
1248,71.0,120.0,60.0,7.0,0.0
1249,73.0,120.0,60.0,7.0,0.0
1250,75.0,120.0,60.0,7.0,0.0
1251,77.0,120.0,60.0,7.0,0.0
1252,78.0,120.0,60.0,7.0,0.0
1253,80.0,120.0,60.0,7.0,0.0
1254,82.0,120.0,60.0,7.0,0.0
1255,83.0,120.0,60.0,7.0,0.0
1256,85.0,120.0,60.0,7.0,0.0
1257,87.0,120.0,60.0,7.0,0.0
1258,89.0,120.0,60.0,7.0,0.0
1259,90.0,120.0,60.0,7.0,0.0
1260,68.0,120.0,90.0,8.0,0.0
1261,78.0,0.0,3360.0,0.0,0.0
1262,90.0,0.0,4800.0,0.0,0.0
1263,80.0,0.0,1440.0,1.0,0.0
1264,54.0,0.0,3360.0,4.0,0.0
1265,66.0,0.0,3360.0,4.0,0.0
1266,84.0,0.0,1440.0,1.0,0.0
1267,84.0,30.0,1140.0,7.0,0.0
1268,78.0,0.0,90.0,8.0,0.0
1269,51.0,0.0,1050.0,3.0,0.0
1270,54.0,0.0,360.0,6.0,0.0
1271,63.0,0.0,60.0,10.0,0.0
1272,51.0,30.0,60.0,11.0,0.0
1273,68.0,0.0,1440.0,2.0,0.0
1274,72.0,0.0,1440.0,2.0,0.0
1275,66.0,0.0,360.0,5.0,0.0
1276,39.0,0.0,60.0,12.0,0.0
1277,78.0,0.0,360.0,5.0,0.0
1278,68.0,0.0,90.0,8.0,0.0
1279,78.0,120.0,90.0,8.0,0.0
1280,68.0,0.0,90.0,8.0,0.0
1281,65.0,90.0,120.0,10.0,0.0
1282,78.0,30.0,90.0,8.0,0.0
1283,53.0,0.0,120.0,11.0,0.0
1284,41.0,0.0,120.0,12.0,0.0
1285,54.0,0.0,120.0,11.0,0.0
1286,42.0,90.0,120.0,12.0,0.0
1287,68.0,0.0,90.0,8.0,0.0
1288,66.0,0.0,120.0,10.0,0.0
1289,78.0,30.0,90.0,8.0,0.0
1290,56.0,90.0,120.0,11.0,0.0
1291,54.0,0.0,360.0,6.0,0.0
1292,68.0,0.0,120.0,10.0,0.0
1293,78.0,30.0,90.0,8.0,0.0
1294,44.0,0.0,120.0,12.0,0.0
1295,66.0,0.0,270.0,5.0,0.0
1296,78.0,60.0,270.0,5.0,0.0
1297,68.0,0.0,90.0,8.0,0.0
1298,68.0,0.0,90.0,8.0,0.0
1299,78.0,30.0,90.0,8.0,0.0
1300,70.0,30.0,120.0,10.0,0.0
1301,58.0,0.0,120.0,11.0,0.0
1302,46.0,0.0,120.0,12.0,0.0
1303,72.0,0.0,120.0,10.0,0.0
1304,68.0,0.0,90.0,8.0,0.0
1305,78.0,30.0,90.0,8.0,0.0
1306,48.0,90.0,120.0,12.0,0.0
1307,60.0,0.0,120.0,11.0,0.0
1308,61.0,0.0,120.0,11.0,0.0
1309,73.0,0.0,120.0,10.0,0.0
1310,78.0,30.0,90.0,8.0,0.0
1311,78.0,0.0,90.0,5.0,0.0
1312,68.0,0.0,90.0,8.0,0.0
1313,66.0,0.0,90.0,5.0,0.0
1314,49.0,90.0,120.0,12.0,0.0
1315,78.0,90.0,90.0,8.0,0.0
1316,78.0,0.0,360.0,5.0,0.0
1317,54.0,0.0,360.0,6.0,0.0
1318,75.0,60.0,480.0,10.0,0.0
1319,51.0,0.0,480.0,12.0,0.0
1320,68.0,0.0,90.0,8.0,0.0
1321,66.0,30.0,360.0,5.0,0.0
1322,63.0,0.0,480.0,11.0,0.0
1323,68.0,0.0,90.0,8.0,0.0
1324,78.0,30.0,90.0,8.0,0.0
1325,53.0,90.0,120.0,3.0,0.0
1326,78.0,30.0,90.0,8.0,0.0
1327,68.0,0.0,90.0,8.0,0.0
1328,54.0,0.0,120.0,3.0,0.0
1329,56.0,0.0,120.0,3.0,0.0
1330,84.0,60.0,30.0,7.0,0.0
1331,68.0,30.0,90.0,8.0,0.0
1332,78.0,0.0,90.0,8.0,0.0
1333,58.0,0.0,120.0,3.0,0.0
1334,84.0,30.0,60.0,7.0,0.0
1335,78.0,0.0,90.0,8.0,0.0
1336,68.0,30.0,90.0,8.0,0.0
1337,85.0,60.0,60.0,7.0,0.0
1338,68.0,30.0,90.0,8.0,0.0
1339,60.0,90.0,120.0,3.0,0.0
1340,84.0,30.0,60.0,7.0,0.0
1341,78.0,0.0,90.0,8.0,0.0
1342,85.0,0.0,60.0,7.0,0.0
1343,78.0,0.0,90.0,8.0,0.0
1344,82.0,90.0,120.0,7.0,0.0
1345,68.0,30.0,90.0,8.0,0.0
1346,61.0,0.0,120.0,3.0,0.0
1347,84.0,0.0,90.0,7.0,0.0
1348,68.0,0.0,90.0,8.0,0.0
1349,63.0,0.0,90.0,3.0,0.0
1350,78.0,90.0,90.0,8.0,0.0
1351,82.0,0.0,1440.0,1.0,0.0
1352,73.0,0.0,1440.0,2.0,0.0
1353,70.0,60.0,1440.0,2.0,0.0
1354,78.0,0.0,360.0,5.0,0.0
1355,66.0,0.0,360.0,5.0,0.0
1356,85.0,0.0,1440.0,1.0,0.0
1357,49.0,0.0,60.0,11.0,0.0
1358,54.0,0.0,360.0,6.0,0.0
1359,61.0,0.0,60.0,10.0,0.0
1360,68.0,0.0,90.0,8.0,0.0
1361,49.0,0.0,1050.0,3.0,0.0
1362,78.0,120.0,90.0,8.0,0.0
1363,85.0,30.0,1140.0,7.0,0.0
1364,37.0,30.0,60.0,12.0,0.0
1365,78.0,120.0,90.0,8.0,0.0
1366,68.0,0.0,90.0,8.0,0.0
1367,63.0,0.0,120.0,10.0,0.0
1368,78.0,0.0,90.0,8.0,0.0
1369,68.0,30.0,90.0,8.0,0.0
1370,51.0,0.0,120.0,11.0,0.0
1371,39.0,90.0,120.0,12.0,0.0
1372,65.0,0.0,120.0,10.0,0.0
1373,53.0,90.0,120.0,11.0,0.0
1374,78.0,0.0,90.0,8.0,0.0
1375,68.0,30.0,90.0,8.0,0.0
1376,41.0,0.0,120.0,12.0,0.0
1377,66.0,0.0,270.0,5.0,0.0
1378,42.0,0.0,120.0,12.0,0.0
1379,66.0,0.0,120.0,10.0,0.0
1380,54.0,0.0,360.0,6.0,0.0
1381,54.0,90.0,120.0,11.0,0.0
1382,78.0,60.0,270.0,5.0,0.0
1383,78.0,0.0,90.0,8.0,0.0
1384,68.0,30.0,90.0,8.0,0.0
1385,44.0,0.0,120.0,12.0,0.0
1386,68.0,30.0,120.0,10.0,0.0
1387,56.0,0.0,120.0,11.0,0.0
1388,68.0,30.0,90.0,8.0,0.0
1389,78.0,0.0,90.0,8.0,0.0
1390,46.0,0.0,120.0,12.0,0.0
1391,70.0,0.0,120.0,10.0,0.0
1392,68.0,30.0,90.0,8.0,0.0
1393,78.0,0.0,90.0,8.0,0.0
1394,58.0,90.0,120.0,11.0,0.0
1395,60.0,0.0,120.0,11.0,0.0
1396,48.0,90.0,120.0,12.0,0.0
1397,78.0,30.0,90.0,8.0,0.0
1398,78.0,0.0,90.0,5.0,0.0
1399,66.0,0.0,90.0,5.0,0.0
1400,68.0,0.0,90.0,8.0,0.0
1401,72.0,0.0,120.0,10.0,0.0
1402,61.0,0.0,480.0,11.0,0.0
1403,78.0,0.0,360.0,5.0,0.0
1404,78.0,0.0,90.0,8.0,0.0
1405,68.0,90.0,90.0,8.0,0.0
1406,54.0,0.0,360.0,6.0,0.0
1407,66.0,30.0,360.0,5.0,0.0
1408,73.0,0.0,480.0,10.0,0.0
1409,49.0,0.0,480.0,12.0,0.0
1410,68.0,30.0,90.0,8.0,0.0
1411,78.0,0.0,90.0,8.0,0.0
1412,51.0,90.0,120.0,3.0,0.0
1413,53.0,0.0,120.0,3.0,0.0
1414,78.0,30.0,90.0,8.0,0.0
1415,68.0,0.0,90.0,8.0,0.0
1416,78.0,0.0,90.0,8.0,0.0
1417,68.0,30.0,90.0,8.0,0.0
1418,85.0,60.0,30.0,7.0,0.0
1419,54.0,0.0,120.0,3.0,0.0
1420,56.0,60.0,120.0,3.0,0.0
1421,68.0,30.0,90.0,8.0,0.0
1422,85.0,30.0,60.0,7.0,0.0
1423,78.0,0.0,90.0,8.0,0.0
1424,87.0,0.0,60.0,7.0,0.0
1425,78.0,0.0,90.0,8.0,0.0
1426,85.0,30.0,60.0,7.0,0.0
1427,58.0,0.0,120.0,3.0,0.0
1428,68.0,30.0,90.0,8.0,0.0
1429,87.0,90.0,60.0,7.0,0.0
1430,68.0,0.0,90.0,8.0,0.0
1431,78.0,30.0,90.0,8.0,0.0
1432,60.0,90.0,120.0,3.0,0.0
1433,84.0,0.0,120.0,7.0,0.0
1434,85.0,0.0,90.0,7.0,0.0
1435,78.0,0.0,90.0,8.0,0.0
1436,68.0,90.0,90.0,8.0,0.0
1437,61.0,0.0,90.0,3.0,0.0
1438,60.0,0.0,960.0,3.0,0.0
1439,48.0,0.0,60.0,11.0,0.0
1440,68.0,0.0,720.0,4.0,0.0
1441,78.0,0.0,360.0,5.0,0.0
1442,80.0,0.0,360.0,5.0,0.0
1443,66.0,0.0,720.0,4.0,0.0
1444,36.0,30.0,60.0,12.0,0.0
1445,68.0,0.0,1920.0,2.0,0.0
1446,54.0,30.0,360.0,6.0,0.0
1447,87.0,60.0,960.0,0.0,0.0
1448,60.0,0.0,60.0,10.0,0.0
1449,75.0,0.0,960.0,2.0,0.0
1450,78.0,120.0,90.0,8.0,0.0
1451,87.0,0.0,60.0,7.0,0.0
1452,78.0,0.0,960.0,1.0,0.0
1453,80.0,0.0,1920.0,1.0,0.0
1454,68.0,0.0,90.0,8.0,0.0
1455,68.0,120.0,90.0,8.0,0.0
1456,78.0,0.0,90.0,8.0,0.0
1457,68.0,0.0,90.0,8.0,0.0
1458,72.0,0.0,180.0,10.0,0.0
1459,78.0,30.0,90.0,8.0,0.0
1460,60.0,30.0,180.0,11.0,0.0
1461,48.0,0.0,180.0,12.0,0.0
1462,68.0,0.0,90.0,8.0,0.0
1463,87.0,30.0,30.0,7.0,0.0
1464,78.0,90.0,90.0,8.0,0.0
1465,87.0,30.0,60.0,7.0,0.0
1466,78.0,30.0,90.0,8.0,0.0
1467,68.0,0.0,90.0,8.0,0.0
1468,60.0,0.0,180.0,11.0,0.0
1469,72.0,0.0,180.0,10.0,0.0
1470,48.0,30.0,180.0,12.0,0.0
1471,89.0,60.0,60.0,7.0,0.0
1472,87.0,0.0,60.0,7.0,0.0
1473,78.0,30.0,90.0,8.0,0.0
1474,68.0,0.0,90.0,8.0,0.0
1475,89.0,90.0,60.0,7.0,0.0
1476,85.0,60.0,120.0,7.0,0.0
1477,68.0,0.0,90.0,8.0,0.0
1478,60.0,0.0,180.0,11.0,0.0
1479,78.0,30.0,90.0,8.0,0.0
1480,48.0,30.0,180.0,12.0,0.0
1481,72.0,0.0,180.0,10.0,0.0
1482,87.0,0.0,90.0,7.0,0.0
1483,68.0,0.0,90.0,8.0,0.0
1484,78.0,30.0,90.0,8.0,0.0
1485,49.0,30.0,360.0,6.0,0.0
1486,61.0,90.0,720.0,4.0,0.0
1487,61.0,0.0,960.0,3.0,0.0
1488,37.0,30.0,60.0,12.0,0.0
1489,68.0,0.0,720.0,4.0,0.0
1490,77.0,110.0,960.0,2.0,0.0
1491,77.0,0.0,960.0,1.0,0.0
1492,80.0,0.0,360.0,5.0,0.0
1493,73.0,0.0,360.0,5.0,0.0
1494,85.0,0.0,960.0,0.0,0.0
1495,89.0,0.0,960.0,0.0,0.0
1496,89.0,0.0,60.0,7.0,0.0
1497,61.0,0.0,60.0,10.0,0.0
1498,49.0,0.0,60.0,11.0,0.0
1499,77.0,120.0,90.0,8.0,0.0
1500,68.0,0.0,90.0,8.0,0.0
1501,77.0,120.0,90.0,8.0,0.0
1502,68.0,0.0,90.0,8.0,0.0
1503,68.0,0.0,90.0,8.0,0.0
1504,61.0,0.0,180.0,11.0,0.0
1505,49.0,30.0,180.0,12.0,0.0
1506,73.0,0.0,180.0,10.0,0.0
1507,77.0,30.0,90.0,8.0,0.0
1508,77.0,90.0,90.0,8.0,0.0
1509,68.0,0.0,90.0,8.0,0.0
1510,89.0,30.0,30.0,7.0,0.0
1511,77.0,30.0,90.0,8.0,0.0
1512,49.0,0.0,180.0,12.0,0.0
1513,61.0,0.0,180.0,11.0,0.0
1514,73.0,30.0,180.0,10.0,0.0
1515,89.0,30.0,60.0,7.0,0.0
1516,68.0,0.0,90.0,8.0,0.0
1517,90.0,60.0,60.0,7.0,0.0
1518,77.0,0.0,90.0,8.0,0.0
1519,68.0,30.0,90.0,8.0,0.0
1520,89.0,0.0,60.0,7.0,0.0
1521,90.0,0.0,60.0,7.0,0.0
1522,49.0,0.0,180.0,12.0,0.0
1523,87.0,60.0,120.0,7.0,0.0
1524,77.0,30.0,90.0,8.0,0.0
1525,68.0,0.0,90.0,8.0,0.0
1526,61.0,30.0,180.0,11.0,0.0
1527,73.0,0.0,180.0,10.0,0.0
1528,89.0,30.0,90.0,7.0,0.0
1529,68.0,0.0,90.0,8.0,0.0
1530,77.0,0.0,90.0,8.0,0.0
1531,75.0,0.0,120.0,10.0,0.0
1532,90.0,0.0,120.0,7.0,0.0
1533,66.0,0.0,360.0,5.0,0.0
1534,78.0,0.0,360.0,5.0,0.0
1535,54.0,0.0,360.0,6.0,0.0
1536,51.0,120.0,120.0,12.0,0.0
1537,71.0,10.0,120.0,2.0,0.0
1538,63.0,0.0,120.0,11.0,0.0
1539,90.0,0.0,120.0,0.0,0.0
1540,78.0,120.0,360.0,1.0,0.0
1541,83.0,0.0,360.0,1.0,0.0
1542,63.0,0.0,120.0,3.0,0.0
1543,72.0,0.0,120.0,8.0,0.0
1544,54.0,0.0,360.0,4.0,0.0
1545,66.0,0.0,360.0,4.0,0.0
1546,73.0,0.0,120.0,8.0,0.0
1547,73.0,120.0,120.0,2.0,0.0
1548,65.0,0.0,120.0,11.0,0.0
1549,89.0,0.0,120.0,7.0,0.0
1550,77.0,0.0,120.0,10.0,0.0
1551,53.0,0.0,120.0,12.0,0.0
1552,89.0,0.0,120.0,0.0,0.0
1553,65.0,0.0,120.0,3.0,0.0
1554,78.0,0.0,120.0,10.0,0.0
1555,66.0,0.0,120.0,11.0,0.0
1556,87.0,0.0,120.0,7.0,0.0
1557,87.0,0.0,120.0,0.0,0.0
1558,66.0,0.0,120.0,3.0,0.0
1559,54.0,0.0,120.0,12.0,0.0
1560,75.0,0.0,120.0,8.0,0.0
1561,75.0,0.0,120.0,2.0,0.0
1562,65.0,0.0,120.0,3.0,0.0
1563,53.0,0.0,120.0,12.0,0.0
1564,65.0,0.0,120.0,11.0,0.0
1565,77.0,0.0,120.0,8.0,0.0
1566,85.0,0.0,120.0,7.0,0.0
1567,85.0,0.0,120.0,0.0,0.0
1568,77.0,120.0,120.0,10.0,0.0
1569,77.0,0.0,120.0,2.0,0.0
1570,78.0,0.0,240.0,2.0,0.0
1571,84.0,20.0,210.0,0.0,0.0
1572,63.0,0.0,240.0,11.0,0.0
1573,51.0,0.0,240.0,12.0,0.0
1574,78.0,0.0,120.0,8.0,0.0
1575,75.0,0.0,240.0,10.0,0.0
1576,63.0,0.0,240.0,3.0,0.0
1577,84.0,100.0,120.0,7.0,0.0
1578,85.0,120.0,120.0,7.0,0.0
1579,77.0,0.0,120.0,8.0,0.0
1580,75.0,120.0,120.0,8.0,0.0
1581,87.0,0.0,120.0,7.0,0.0
1582,73.0,110.0,120.0,8.0,0.0
1583,89.0,0.0,120.0,7.0,0.0
1584,78.0,0.0,360.0,5.0,0.0
1585,90.0,120.0,120.0,7.0,0.0
1586,63.0,0.0,120.0,3.0,0.0
1587,54.0,110.0,360.0,6.0,0.0
1588,75.0,0.0,120.0,10.0,0.0
1589,63.0,0.0,120.0,11.0,0.0
1590,83.0,0.0,360.0,1.0,0.0
1591,66.0,0.0,360.0,5.0,0.0
1592,78.0,0.0,360.0,1.0,0.0
1593,54.0,0.0,360.0,4.0,0.0
1594,66.0,0.0,360.0,4.0,0.0
1595,72.0,0.0,120.0,8.0,0.0
1596,71.0,10.0,120.0,2.0,0.0
1597,90.0,0.0,120.0,0.0,0.0
1598,51.0,0.0,120.0,12.0,0.0
1599,53.0,0.0,120.0,12.0,0.0
1600,65.0,0.0,120.0,3.0,0.0
1601,89.0,0.0,120.0,0.0,0.0
1602,65.0,120.0,120.0,11.0,0.0
1603,73.0,0.0,120.0,2.0,0.0
1604,73.0,0.0,120.0,8.0,0.0
1605,77.0,0.0,120.0,10.0,0.0
1606,89.0,0.0,120.0,7.0,0.0
1607,75.0,0.0,120.0,2.0,0.0
1608,54.0,0.0,120.0,12.0,0.0
1609,75.0,0.0,120.0,8.0,0.0
1610,87.0,0.0,120.0,7.0,0.0
1611,87.0,0.0,120.0,0.0,0.0
1612,66.0,0.0,120.0,3.0,0.0
1613,66.0,0.0,120.0,11.0,0.0
1614,78.0,0.0,120.0,10.0,0.0
1615,77.0,0.0,120.0,2.0,0.0
1616,65.0,0.0,120.0,11.0,0.0
1617,85.0,10.0,120.0,0.0,0.0
1618,85.0,0.0,120.0,7.0,0.0
1619,53.0,0.0,120.0,12.0,0.0
1620,77.0,0.0,120.0,8.0,0.0
1621,77.0,0.0,120.0,10.0,0.0
1622,65.0,120.0,120.0,3.0,0.0
1623,63.0,0.0,240.0,11.0,0.0
1624,84.0,0.0,240.0,0.0,0.0
1625,63.0,0.0,240.0,3.0,0.0
1626,84.0,120.0,120.0,7.0,0.0
1627,78.0,0.0,240.0,2.0,0.0
1628,75.0,0.0,240.0,10.0,0.0
1629,51.0,120.0,240.0,12.0,0.0
1630,78.0,0.0,120.0,8.0,0.0
1631,77.0,0.0,120.0,8.0,0.0
1632,85.0,0.0,120.0,7.0,0.0
1633,87.0,0.0,120.0,7.0,0.0
1634,75.0,120.0,120.0,8.0,0.0
1635,73.0,0.0,120.0,8.0,0.0
1636,89.0,90.0,120.0,7.0,0.0
1637,63.0,0.0,180.0,11.0,0.0
1638,75.0,30.0,180.0,10.0,0.0
1639,66.0,60.0,360.0,5.0,0.0
1640,90.0,0.0,180.0,0.0,0.0
1641,78.0,0.0,360.0,5.0,0.0
1642,72.0,90.0,90.0,8.0,0.0
1643,66.0,0.0,360.0,4.0,0.0
1644,54.0,0.0,360.0,4.0,0.0
1645,51.0,0.0,180.0,12.0,0.0
1646,72.0,0.0,180.0,2.0,0.0
1647,78.0,0.0,180.0,2.0,0.0
1648,78.0,0.0,180.0,1.0,0.0
1649,84.0,0.0,180.0,1.0,0.0
1650,54.0,0.0,360.0,6.0,0.0
1651,63.0,0.0,180.0,3.0,0.0
1652,90.0,0.0,90.0,7.0,0.0
1653,90.0,120.0,90.0,7.0,0.0
1654,72.0,0.0,90.0,8.0,0.0
1655,77.0,0.0,180.0,2.0,0.0
1656,73.0,0.0,180.0,10.0,0.0
1657,77.0,110.0,210.0,1.0,0.0
1658,85.0,0.0,180.0,1.0,0.0
1659,61.0,30.0,180.0,11.0,0.0
1660,73.0,0.0,180.0,2.0,0.0
1661,73.0,0.0,90.0,8.0,0.0
1662,49.0,0.0,180.0,12.0,0.0
1663,89.0,30.0,90.0,7.0,0.0
1664,61.0,0.0,180.0,3.0,0.0
1665,89.0,0.0,180.0,0.0,0.0
1666,73.0,0.0,90.0,8.0,0.0
1667,89.0,10.0,90.0,7.0,0.0
1668,75.0,90.0,90.0,8.0,0.0
1669,60.0,30.0,180.0,3.0,0.0
1670,75.0,0.0,180.0,1.0,0.0
1671,87.0,0.0,180.0,1.0,0.0
1672,48.0,0.0,180.0,12.0,0.0
1673,78.0,0.0,270.0,5.0,0.0
1674,87.0,0.0,90.0,7.0,0.0
1675,87.0,0.0,180.0,0.0,0.0
1676,72.0,0.0,180.0,10.0,0.0
1677,66.0,0.0,270.0,4.0,0.0
1678,54.0,0.0,270.0,4.0,0.0
1679,54.0,60.0,270.0,6.0,0.0
1680,60.0,0.0,180.0,11.0,0.0
1681,75.0,0.0,180.0,2.0,0.0
1682,66.0,0.0,270.0,5.0,0.0
1683,87.0,60.0,90.0,7.0,0.0
1684,75.0,0.0,90.0,8.0,0.0
1685,85.0,90.0,90.0,7.0,0.0
1686,89.0,0.0,180.0,1.0,0.0
1687,58.0,0.0,180.0,11.0,0.0
1688,77.0,0.0,180.0,2.0,0.0
1689,73.0,0.0,180.0,2.0,0.0
1690,70.0,30.0,180.0,10.0,0.0
1691,58.0,0.0,180.0,3.0,0.0
1692,73.0,0.0,180.0,1.0,0.0
1693,85.0,0.0,180.0,0.0,0.0
1694,77.0,0.0,90.0,8.0,0.0
1695,46.0,0.0,180.0,12.0,0.0
1696,54.0,0.0,90.0,4.0,0.0
1697,54.0,0.0,90.0,6.0,0.0
1698,66.0,0.0,90.0,4.0,0.0
1699,78.0,0.0,90.0,5.0,0.0
1700,85.0,120.0,90.0,7.0,0.0
1701,66.0,0.0,90.0,5.0,0.0
1702,77.0,0.0,90.0,8.0,0.0
1703,78.0,0.0,360.0,5.0,0.0
1704,78.0,0.0,360.0,2.0,0.0
1705,72.0,0.0,360.0,2.0,0.0
1706,54.0,0.0,360.0,6.0,0.0
1707,54.0,0.0,360.0,4.0,0.0
1708,66.0,60.0,360.0,5.0,0.0
1709,44.0,0.0,180.0,12.0,0.0
1710,66.0,0.0,360.0,4.0,0.0
1711,84.0,90.0,90.0,7.0,0.0
1712,56.0,0.0,180.0,11.0,0.0
1713,78.0,0.0,90.0,8.0,0.0
1714,56.0,0.0,180.0,3.0,0.0
1715,90.0,0.0,360.0,1.0,0.0
1716,68.0,0.0,180.0,10.0,0.0
1717,72.0,30.0,180.0,1.0,0.0
1718,84.0,0.0,180.0,0.0,0.0
1719,78.0,120.0,90.0,8.0,0.0
1720,84.0,0.0,90.0,7.0,0.0
1721,66.0,30.0,180.0,10.0,0.0
1722,82.0,0.0,180.0,1.0,0.0
1723,82.0,0.0,180.0,0.0,0.0
1724,54.0,0.0,180.0,3.0,0.0
1725,78.0,30.0,90.0,8.0,0.0
1726,82.0,0.0,90.0,7.0,0.0
1727,42.0,0.0,180.0,12.0,0.0
1728,54.0,0.0,180.0,11.0,0.0
1729,78.0,120.0,90.0,8.0,0.0
1730,82.0,0.0,90.0,7.0,0.0
1731,65.0,0.0,180.0,10.0,0.0
1732,53.0,30.0,180.0,3.0,0.0
1733,66.0,0.0,360.0,5.0,0.0
1734,80.0,0.0,180.0,1.0,0.0
1735,80.0,90.0,90.0,7.0,0.0
1736,84.0,0.0,360.0,1.0,0.0
1737,80.0,0.0,180.0,0.0,0.0
1738,84.0,0.0,90.0,8.0,0.0
1739,78.0,60.0,360.0,5.0,0.0
1740,53.0,0.0,180.0,11.0,0.0
1741,41.0,0.0,180.0,12.0,0.0
1742,72.0,0.0,360.0,2.0,0.0
1743,54.0,0.0,360.0,6.0,0.0
1744,54.0,0.0,360.0,4.0,0.0
1745,66.0,0.0,360.0,4.0,0.0
1746,66.0,0.0,360.0,2.0,0.0
1747,80.0,0.0,90.0,7.0,0.0
1748,84.0,120.0,90.0,8.0,0.0
1749,78.0,0.0,180.0,0.0,0.0
1750,78.0,0.0,90.0,7.0,0.0
1751,78.0,30.0,180.0,1.0,0.0
1752,39.0,0.0,180.0,12.0,0.0
1753,63.0,0.0,180.0,10.0,0.0
1754,51.0,0.0,180.0,3.0,0.0
1755,84.0,30.0,90.0,8.0,0.0
1756,51.0,0.0,180.0,11.0,0.0
1757,78.0,120.0,90.0,7.0,0.0
1758,84.0,0.0,90.0,8.0,0.0
1759,85.0,90.0,960.0,0.0,0.0
1760,68.0,60.0,1440.0,4.0,0.0
1761,49.0,30.0,180.0,3.0,0.0
1762,61.0,0.0,1440.0,4.0,0.0
1763,37.0,0.0,180.0,12.0,0.0
1764,77.0,90.0,720.0,7.0,0.0
1765,85.0,90.0,90.0,8.0,0.0
1766,73.0,0.0,90.0,8.0,0.0
1767,49.0,0.0,360.0,6.0,0.0
1768,77.0,0.0,960.0,0.0,0.0
1769,61.0,60.0,360.0,5.0,0.0
1770,73.0,0.0,360.0,5.0,0.0
1771,73.0,0.0,960.0,2.0,0.0
1772,65.0,40.0,1800.0,2.0,0.0
1773,77.0,0.0,960.0,1.0,0.0
1774,85.0,0.0,960.0,1.0,0.0
1775,49.0,0.0,180.0,11.0,0.0
1776,61.0,0.0,90.0,10.0,0.0
1777,61.0,120.0,90.0,10.0,0.0
1778,85.0,0.0,90.0,8.0,0.0
1779,73.0,0.0,90.0,8.0,0.0
1780,61.0,30.0,180.0,11.0,0.0
1781,49.0,0.0,180.0,12.0,0.0
1782,73.0,0.0,90.0,8.0,0.0
1783,61.0,0.0,180.0,3.0,0.0
1784,85.0,0.0,90.0,8.0,0.0
1785,61.0,30.0,90.0,10.0,0.0
1786,85.0,0.0,90.0,8.0,0.0
1787,61.0,120.0,90.0,10.0,0.0
1788,73.0,0.0,90.0,8.0,0.0
1789,85.0,90.0,90.0,8.0,0.0
1790,73.0,0.0,90.0,8.0,0.0
1791,61.0,30.0,180.0,3.0,0.0
1792,61.0,0.0,180.0,11.0,0.0
1793,49.0,0.0,180.0,12.0,0.0
1794,61.0,0.0,90.0,10.0,0.0
1795,61.0,0.0,90.0,10.0,0.0
1796,73.0,0.0,90.0,8.0,0.0
1797,85.0,30.0,90.0,8.0,0.0
1798,85.0,0.0,90.0,8.0,0.0
1799,49.0,0.0,180.0,12.0,0.0
1800,61.0,0.0,180.0,3.0,0.0
1801,61.0,30.0,180.0,11.0,0.0
1802,73.0,90.0,90.0,8.0,0.0
1803,61.0,0.0,90.0,10.0,0.0
1804,61.0,30.0,90.0,10.0,0.0
1805,85.0,0.0,90.0,8.0,0.0
1806,73.0,0.0,90.0,8.0,0.0
1807,89.0,30.0,540.0,7.0,0.0
1808,83.0,0.0,90.0,8.0,0.0
1809,80.0,60.0,360.0,7.0,0.0
1810,73.0,0.0,360.0,7.0,0.0
1811,73.0,0.0,90.0,8.0,0.0
1812,77.0,0.0,90.0,10.0,0.0
1813,49.0,30.0,180.0,12.0,0.0
1814,68.0,90.0,90.0,10.0,0.0
1815,68.0,0.0,960.0,2.0,0.0
1816,71.0,0.0,960.0,2.0,0.0
1817,80.0,0.0,960.0,1.0,0.0
1818,83.0,0.0,960.0,1.0,0.0
1819,61.0,0.0,180.0,11.0,0.0
1820,61.0,0.0,180.0,3.0,0.0
1821,89.0,90.0,960.0,0.0,0.0
1822,73.0,0.0,360.0,5.0,0.0
1823,80.0,0.0,960.0,0.0,0.0
1824,68.0,0.0,90.0,10.0,0.0
1825,77.0,120.0,90.0,10.0,0.0
1826,73.0,0.0,90.0,8.0,0.0
1827,83.0,0.0,90.0,8.0,0.0
1828,83.0,0.0,90.0,8.0,0.0
1829,68.0,0.0,90.0,10.0,0.0
1830,77.0,30.0,90.0,10.0,0.0
1831,73.0,0.0,90.0,8.0,0.0
1832,61.0,0.0,180.0,3.0,0.0
1833,49.0,0.0,180.0,12.0,0.0
1834,61.0,30.0,180.0,11.0,0.0
1835,77.0,0.0,90.0,10.0,0.0
1836,73.0,0.0,90.0,8.0,0.0
1837,68.0,0.0,90.0,10.0,0.0
1838,83.0,30.0,90.0,8.0,0.0
1839,61.0,0.0,180.0,3.0,0.0
1840,73.0,50.0,270.0,5.0,0.0
1841,61.0,0.0,180.0,11.0,0.0
1842,73.0,0.0,90.0,8.0,0.0
1843,83.0,0.0,90.0,8.0,0.0
1844,68.0,0.0,90.0,10.0,0.0
1845,77.0,90.0,90.0,10.0,0.0
1846,49.0,30.0,180.0,12.0,0.0
1847,73.0,0.0,90.0,8.0,0.0
1848,83.0,60.0,90.0,8.0,0.0
1849,68.0,0.0,90.0,10.0,0.0
1850,77.0,0.0,90.0,10.0,0.0
1851,85.0,10.0,90.0,7.0,0.0
1852,49.0,0.0,180.0,12.0,0.0
1853,77.0,30.0,90.0,10.0,0.0
1854,83.0,0.0,90.0,8.0,0.0
1855,68.0,0.0,90.0,10.0,0.0
1856,61.0,0.0,180.0,11.0,0.0
1857,61.0,30.0,180.0,3.0,0.0
1858,73.0,0.0,90.0,8.0,0.0
1859,87.0,20.0,90.0,7.0,0.0
1860,73.0,0.0,90.0,8.0,0.0
1861,83.0,0.0,90.0,8.0,0.0
1862,75.0,0.0,90.0,5.0,0.0
1863,68.0,0.0,90.0,10.0,0.0
1864,77.0,30.0,90.0,10.0,0.0
1865,89.0,0.0,90.0,7.0,0.0
1866,66.0,0.0,360.0,4.0,0.0
1867,73.0,30.0,720.0,5.0,0.0
1868,70.0,0.0,360.0,4.0,0.0
1869,90.0,90.0,480.0,7.0,0.0
1870,90.0,0.0,1440.0,0.0,0.0
1871,73.0,0.0,90.0,8.0,0.0
1872,49.0,60.0,360.0,6.0,0.0
1873,49.0,0.0,180.0,12.0,0.0
1874,70.0,90.0,90.0,10.0,0.0
1875,78.0,0.0,90.0,10.0,0.0
1876,82.0,90.0,1440.0,0.0,0.0
1877,61.0,0.0,180.0,3.0,0.0
1878,82.0,0.0,90.0,8.0,0.0
1879,61.0,30.0,180.0,11.0,0.0
1880,70.0,0.0,1440.0,2.0,0.0
1881,66.0,0.0,1440.0,2.0,0.0
1882,78.0,0.0,1440.0,1.0,0.0
1883,73.0,0.0,90.0,8.0,0.0
1884,70.0,120.0,90.0,10.0,0.0
1885,82.0,0.0,90.0,8.0,0.0
1886,78.0,0.0,90.0,10.0,0.0
1887,70.0,0.0,90.0,10.0,0.0
1888,78.0,0.0,90.0,10.0,0.0
1889,61.0,0.0,180.0,11.0,0.0
1890,61.0,0.0,180.0,3.0,0.0
1891,82.0,30.0,90.0,8.0,0.0
1892,73.0,0.0,90.0,8.0,0.0
1893,49.0,30.0,180.0,12.0,0.0
1894,82.0,0.0,90.0,8.0,0.0
1895,73.0,0.0,90.0,8.0,0.0
1896,70.0,30.0,90.0,10.0,0.0
1897,78.0,0.0,90.0,10.0,0.0
1898,49.0,60.0,270.0,6.0,0.0
1899,49.0,0.0,180.0,12.0,0.0
1900,73.0,0.0,90.0,8.0,0.0
1901,70.0,0.0,90.0,10.0,0.0
1902,78.0,0.0,90.0,10.0,0.0
1903,61.0,0.0,180.0,3.0,0.0
1904,61.0,60.0,360.0,4.0,0.0
1905,73.0,0.0,360.0,4.0,0.0
1906,82.0,30.0,90.0,8.0,0.0
1907,85.0,60.0,120.0,7.0,0.0
1908,61.0,30.0,180.0,11.0,0.0
1909,70.0,30.0,90.0,10.0,0.0
1910,73.0,0.0,90.0,8.0,0.0
1911,78.0,0.0,90.0,10.0,0.0
1912,82.0,0.0,90.0,8.0,0.0
1913,78.0,0.0,90.0,10.0,0.0
1914,70.0,0.0,90.0,10.0,0.0
1915,73.0,0.0,90.0,8.0,0.0
1916,49.0,0.0,180.0,12.0,0.0
1917,82.0,30.0,90.0,8.0,0.0
1918,61.0,0.0,180.0,3.0,0.0
1919,61.0,30.0,180.0,11.0,0.0
1920,49.0,0.0,90.0,6.0,0.0
1921,73.0,0.0,90.0,8.0,0.0
1922,70.0,0.0,90.0,10.0,0.0
1923,78.0,120.0,90.0,10.0,0.0
1924,82.0,0.0,90.0,8.0,0.0
1925,70.0,0.0,360.0,5.0,0.0
1926,73.0,30.0,90.0,8.0,0.0
1927,58.0,0.0,180.0,3.0,0.0
1928,82.0,60.0,120.0,7.0,0.0
1929,82.0,0.0,90.0,8.0,0.0
1930,58.0,0.0,180.0,11.0,0.0
1931,46.0,30.0,180.0,12.0,0.0
1932,70.0,0.0,90.0,10.0,0.0
1933,58.0,0.0,360.0,4.0,0.0
1934,78.0,0.0,90.0,10.0,0.0
1935,70.0,0.0,360.0,4.0,0.0
1936,54.0,60.0,360.0,6.0,0.0
1937,70.0,0.0,90.0,10.0,0.0
1938,78.0,120.0,90.0,10.0,0.0
1939,82.0,0.0,90.0,8.0,0.0
1940,73.0,0.0,90.0,8.0,0.0
1941,58.0,30.0,180.0,3.0,0.0
1942,58.0,0.0,180.0,11.0,0.0
1943,73.0,30.0,90.0,8.0,0.0
1944,70.0,0.0,90.0,10.0,0.0
1945,78.0,0.0,90.0,10.0,0.0
1946,46.0,0.0,180.0,12.0,0.0
1947,82.0,0.0,90.0,8.0,0.0
1948,73.0,30.0,90.0,8.0,0.0
1949,82.0,0.0,90.0,8.0,0.0
1950,70.0,0.0,90.0,10.0,0.0
1951,78.0,0.0,90.0,10.0,0.0
1952,42.0,30.0,180.0,12.0,0.0
1953,54.0,0.0,360.0,4.0,0.0
1954,54.0,0.0,180.0,3.0,0.0
1955,66.0,0.0,360.0,4.0,0.0
1956,78.0,0.0,90.0,10.0,0.0
1957,73.0,0.0,90.0,8.0,0.0
1958,78.0,60.0,270.0,7.0,0.0
1959,70.0,90.0,90.0,10.0,0.0
1960,54.0,0.0,180.0,11.0,0.0
1961,82.0,0.0,90.0,8.0,0.0
1962,54.0,0.0,360.0,6.0,0.0
1963,66.0,60.0,360.0,5.0,0.0
1964,82.0,0.0,90.0,8.0,0.0
1965,73.0,0.0,90.0,8.0,0.0
1966,78.0,60.0,90.0,10.0,0.0
1967,70.0,0.0,90.0,10.0,0.0
1968,82.0,30.0,90.0,8.0,0.0
1969,73.0,0.0,90.0,8.0,0.0
1970,70.0,0.0,90.0,10.0,0.0
1971,78.0,0.0,90.0,10.0,0.0
1972,54.0,0.0,180.0,11.0,0.0
1973,42.0,0.0,180.0,12.0,0.0
1974,54.0,30.0,180.0,3.0,0.0
1975,78.0,120.0,90.0,10.0,0.0
1976,70.0,0.0,90.0,10.0,0.0
1977,82.0,0.0,90.0,8.0,0.0
1978,73.0,0.0,90.0,8.0,0.0
1979,82.0,0.0,90.0,7.0,0.0
1980,49.0,90.0,720.0,4.0,0.0
1981,80.0,0.0,90.0,8.0,0.0
1982,73.0,90.0,90.0,8.0,0.0
1983,65.0,40.0,1800.0,2.0,0.0
1984,68.0,0.0,960.0,2.0,0.0
1985,37.0,0.0,180.0,12.0,0.0
1986,49.0,60.0,360.0,6.0,0.0
1987,49.0,30.0,180.0,3.0,0.0
1988,61.0,0.0,720.0,4.0,0.0
1989,73.0,0.0,360.0,5.0,0.0
1990,68.0,0.0,90.0,10.0,0.0
1991,77.0,0.0,90.0,10.0,0.0
1992,80.0,60.0,1440.0,0.0,0.0
1993,89.0,0.0,1440.0,0.0,0.0
1994,80.0,90.0,960.0,1.0,0.0
1995,77.0,0.0,960.0,1.0,0.0
1996,49.0,0.0,180.0,11.0,0.0
1997,73.0,0.0,720.0,7.0,0.0
1998,85.0,0.0,720.0,7.0,0.0
1999,73.0,120.0,90.0,8.0,0.0
2000,80.0,0.0,90.0,8.0,0.0
2001,68.0,0.0,90.0,10.0,0.0
2002,77.0,0.0,90.0,10.0,0.0
2003,61.0,0.0,180.0,11.0,0.0
2004,80.0,0.0,90.0,8.0,0.0
2005,73.0,0.0,90.0,8.0,0.0
2006,68.0,30.0,90.0,10.0,0.0
2007,77.0,0.0,90.0,10.0,0.0
2008,49.0,30.0,180.0,12.0,0.0
2009,61.0,0.0,180.0,3.0,0.0
2010,73.0,0.0,90.0,8.0,0.0
2011,80.0,0.0,90.0,8.0,0.0
2012,77.0,0.0,90.0,10.0,0.0
2013,68.0,120.0,90.0,10.0,0.0
2014,77.0,0.0,90.0,10.0,0.0
2015,73.0,0.0,90.0,8.0,0.0
2016,80.0,0.0,90.0,8.0,0.0
2017,61.0,30.0,180.0,11.0,0.0
2018,49.0,0.0,180.0,12.0,0.0
2019,61.0,0.0,180.0,3.0,0.0
2020,68.0,90.0,90.0,10.0,0.0
2021,68.0,0.0,90.0,10.0,0.0
2022,77.0,0.0,90.0,10.0,0.0
2023,80.0,30.0,90.0,8.0,0.0
2024,73.0,0.0,90.0,8.0,0.0
2025,49.0,0.0,180.0,12.0,0.0
2026,68.0,90.0,90.0,10.0,0.0
2027,77.0,0.0,90.0,10.0,0.0
2028,61.0,0.0,180.0,11.0,0.0
2029,73.0,0.0,90.0,8.0,0.0
2030,80.0,0.0,90.0,8.0,0.0
2031,61.0,30.0,180.0,3.0,0.0
2032,68.0,0.0,90.0,10.0,0.0
2033,77.0,0.0,90.0,10.0,0.0
2034,73.0,30.0,90.0,8.0,0.0
2035,80.0,0.0,90.0,8.0,0.0
2036,61.0,30.0,720.0,4.0,0.0
2037,68.0,0.0,720.0,4.0,0.0
2038,49.0,0.0,180.0,12.0,0.0
2039,71.0,0.0,960.0,2.0,0.0
2040,68.0,0.0,960.0,2.0,0.0
2041,61.0,0.0,180.0,3.0,0.0
2042,61.0,30.0,180.0,11.0,0.0
2043,80.0,0.0,360.0,7.0,0.0
2044,80.0,0.0,960.0,1.0,0.0
2045,77.0,0.0,90.0,10.0,0.0
2046,73.0,0.0,360.0,5.0,0.0
2047,68.0,90.0,90.0,10.0,0.0
2048,83.0,0.0,960.0,1.0,0.0
2049,89.0,30.0,540.0,7.0,0.0
2050,73.0,0.0,90.0,8.0,0.0
2051,73.0,60.0,360.0,7.0,0.0
2052,83.0,0.0,90.0,8.0,0.0
2053,77.0,0.0,90.0,10.0,0.0
2054,73.0,0.0,90.0,8.0,0.0
2055,83.0,0.0,90.0,8.0,0.0
2056,68.0,120.0,90.0,10.0,0.0
2057,83.0,30.0,90.0,8.0,0.0
2058,61.0,0.0,180.0,11.0,0.0
2059,61.0,30.0,180.0,3.0,0.0
2060,73.0,0.0,90.0,8.0,0.0
2061,77.0,0.0,90.0,10.0,0.0
2062,49.0,0.0,180.0,12.0,0.0
2063,68.0,0.0,90.0,10.0,0.0
2064,77.0,0.0,90.0,10.0,0.0
2065,68.0,0.0,90.0,10.0,0.0
2066,73.0,0.0,90.0,8.0,0.0
2067,83.0,30.0,90.0,8.0,0.0
2068,68.0,0.0,90.0,10.0,0.0
2069,61.0,0.0,180.0,11.0,0.0
2070,73.0,0.0,90.0,8.0,0.0
2071,77.0,90.0,90.0,10.0,0.0
2072,83.0,0.0,90.0,8.0,0.0
2073,73.0,50.0,270.0,5.0,0.0
2074,61.0,0.0,180.0,3.0,0.0
2075,49.0,30.0,180.0,12.0,0.0
2076,83.0,0.0,90.0,8.0,0.0
2077,77.0,0.0,90.0,10.0,0.0
2078,73.0,0.0,90.0,8.0,0.0
2079,68.0,30.0,90.0,10.0,0.0
2080,77.0,30.0,90.0,10.0,0.0
2081,68.0,0.0,90.0,10.0,0.0
2082,73.0,0.0,90.0,8.0,0.0
2083,83.0,0.0,90.0,8.0,0.0
2084,61.0,0.0,180.0,11.0,0.0
2085,85.0,10.0,90.0,7.0,0.0
2086,61.0,0.0,180.0,3.0,0.0
2087,49.0,30.0,180.0,12.0,0.0
2088,87.0,20.0,90.0,7.0,0.0
2089,83.0,0.0,90.0,8.0,0.0
2090,77.0,30.0,90.0,10.0,0.0
2091,68.0,0.0,90.0,10.0,0.0
2092,73.0,0.0,90.0,8.0,0.0
2093,73.0,0.0,90.0,5.0,0.0
2094,89.0,90.0,90.0,7.0,0.0
2095,82.0,0.0,1440.0,1.0,0.0
2096,78.0,0.0,1440.0,1.0,0.0
2097,90.0,90.0,1440.0,0.0,0.0
2098,82.0,0.0,1440.0,0.0,0.0
2099,49.0,0.0,180.0,12.0,0.0
2100,49.0,60.0,360.0,6.0,0.0
2101,61.0,0.0,180.0,11.0,0.0
2102,61.0,30.0,180.0,3.0,0.0
2103,66.0,0.0,360.0,4.0,0.0
2104,70.0,0.0,360.0,4.0,0.0
2105,66.0,0.0,1440.0,2.0,0.0
2106,70.0,0.0,1440.0,2.0,0.0
2107,78.0,0.0,90.0,10.0,0.0
2108,70.0,90.0,90.0,10.0,0.0
2109,73.0,30.0,720.0,5.0,0.0
2110,82.0,0.0,90.0,8.0,0.0
2111,73.0,0.0,90.0,8.0,0.0
2112,90.0,90.0,480.0,7.0,0.0
2113,70.0,120.0,90.0,10.0,0.0
2114,78.0,0.0,90.0,10.0,0.0
2115,73.0,0.0,90.0,8.0,0.0
2116,82.0,0.0,90.0,8.0,0.0
2117,49.0,0.0,180.0,12.0,0.0
2118,82.0,0.0,90.0,8.0,0.0
2119,73.0,0.0,90.0,8.0,0.0
2120,61.0,30.0,180.0,3.0,0.0
2121,61.0,0.0,180.0,11.0,0.0
2122,78.0,0.0,90.0,10.0,0.0
2123,70.0,30.0,90.0,10.0,0.0
2124,70.0,0.0,90.0,10.0,0.0
2125,82.0,0.0,90.0,8.0,0.0
2126,73.0,0.0,90.0,8.0,0.0
2127,78.0,30.0,90.0,10.0,0.0
2128,78.0,30.0,90.0,10.0,0.0
2129,73.0,0.0,90.0,8.0,0.0
2130,61.0,60.0,360.0,4.0,0.0
2131,73.0,0.0,360.0,4.0,0.0
2132,61.0,0.0,180.0,11.0,0.0
2133,70.0,0.0,90.0,10.0,0.0
2134,82.0,0.0,90.0,8.0,0.0
2135,85.0,60.0,120.0,7.0,0.0
2136,49.0,0.0,180.0,12.0,0.0
2137,49.0,60.0,270.0,6.0,0.0
2138,61.0,30.0,180.0,3.0,0.0
2139,73.0,0.0,90.0,8.0,0.0
2140,82.0,0.0,90.0,8.0,0.0
2141,70.0,0.0,90.0,10.0,0.0
2142,78.0,30.0,90.0,10.0,0.0
2143,61.0,0.0,180.0,3.0,0.0
2144,78.0,30.0,90.0,10.0,0.0
2145,73.0,0.0,90.0,8.0,0.0
2146,82.0,0.0,90.0,8.0,0.0
2147,49.0,30.0,180.0,12.0,0.0
2148,70.0,0.0,90.0,10.0,0.0
2149,61.0,0.0,180.0,11.0,0.0
2150,78.0,0.0,90.0,10.0,0.0
2151,49.0,120.0,90.0,6.0,0.0
2152,82.0,0.0,90.0,8.0,0.0
2153,70.0,0.0,90.0,10.0,0.0
2154,73.0,0.0,90.0,8.0,0.0
2155,58.0,0.0,360.0,4.0,0.0
2156,82.0,30.0,90.0,8.0,0.0
2157,73.0,0.0,90.0,8.0,0.0
2158,58.0,30.0,180.0,3.0,0.0
2159,70.0,0.0,360.0,4.0,0.0
2160,70.0,0.0,360.0,5.0,0.0
2161,54.0,60.0,360.0,6.0,0.0
2162,78.0,0.0,90.0,10.0,0.0
2163,70.0,0.0,90.0,10.0,0.0
2164,58.0,0.0,180.0,11.0,0.0
2165,82.0,60.0,120.0,7.0,0.0
2166,46.0,0.0,180.0,12.0,0.0
2167,78.0,0.0,90.0,10.0,0.0
2168,82.0,0.0,90.0,8.0,0.0
2169,73.0,0.0,90.0,8.0,0.0
2170,70.0,120.0,90.0,10.0,0.0
2171,78.0,0.0,90.0,10.0,0.0
2172,46.0,0.0,180.0,12.0,0.0
2173,58.0,0.0,180.0,3.0,0.0
2174,73.0,0.0,90.0,8.0,0.0
2175,58.0,30.0,180.0,11.0,0.0
2176,70.0,0.0,90.0,10.0,0.0
2177,82.0,30.0,90.0,8.0,0.0
2178,82.0,30.0,90.0,8.0,0.0
2179,73.0,0.0,90.0,8.0,0.0
2180,78.0,0.0,90.0,10.0,0.0
2181,70.0,0.0,90.0,10.0,0.0
2182,78.0,60.0,270.0,7.0,0.0
2183,82.0,0.0,90.0,8.0,0.0
2184,54.0,30.0,180.0,11.0,0.0
2185,54.0,0.0,360.0,4.0,0.0
2186,78.0,0.0,90.0,10.0,0.0
2187,54.0,60.0,360.0,6.0,0.0
2188,42.0,0.0,180.0,12.0,0.0
2189,66.0,0.0,360.0,4.0,0.0
2190,54.0,0.0,180.0,3.0,0.0
2191,73.0,0.0,90.0,8.0,0.0
2192,66.0,0.0,360.0,5.0,0.0
2193,70.0,90.0,90.0,10.0,0.0
2194,73.0,0.0,90.0,8.0,0.0
2195,78.0,60.0,90.0,10.0,0.0
2196,70.0,0.0,90.0,10.0,0.0
2197,82.0,0.0,90.0,8.0,0.0
2198,54.0,30.0,180.0,11.0,0.0
2199,73.0,0.0,90.0,8.0,0.0
2200,42.0,0.0,180.0,12.0,0.0
2201,78.0,0.0,90.0,10.0,0.0
2202,82.0,0.0,90.0,8.0,0.0
2203,54.0,0.0,180.0,3.0,0.0
2204,70.0,30.0,90.0,10.0,0.0
2205,82.0,0.0,90.0,7.0,0.0
2206,82.0,0.0,90.0,8.0,0.0
2207,73.0,0.0,90.0,8.0,0.0
2208,78.0,390.0,90.0,10.0,0.0
2209,70.0,0.0,90.0,10.0,0.0
2210,73.0,0.0,360.0,5.0,0.0
2211,77.0,0.0,360.0,1.0,0.0
2212,49.0,0.0,360.0,6.0,0.0
2213,65.0,0.0,360.0,2.0,0.0
2214,80.0,0.0,540.0,8.0,0.0
2215,73.0,0.0,540.0,8.0,0.0
2216,80.0,180.0,360.0,1.0,0.0
2217,49.0,0.0,360.0,11.0,0.0
2218,49.0,0.0,360.0,3.0,0.0
2219,77.0,0.0,360.0,10.0,0.0
2220,68.0,0.0,360.0,2.0,0.0
2221,89.0,0.0,360.0,0.0,0.0
2222,68.0,0.0,360.0,10.0,0.0
2223,85.0,270.0,540.0,7.0,0.0
2224,61.0,0.0,360.0,4.0,0.0
2225,37.0,0.0,360.0,12.0,0.0
2226,80.0,0.0,360.0,0.0,0.0
2227,49.0,0.0,360.0,4.0,0.0
2228,89.0,120.0,90.0,8.0,0.0
2229,89.0,0.0,90.0,7.0,0.0
2230,85.0,0.0,90.0,8.0,0.0
2231,85.0,210.0,90.0,7.0,0.0
2232,80.0,150.0,180.0,8.0,0.0
2233,80.0,0.0,180.0,7.0,0.0
2234,85.0,0.0,90.0,7.0,0.0
2235,85.0,120.0,90.0,8.0,0.0
2236,80.0,0.0,90.0,7.0,0.0
2237,80.0,210.0,90.0,8.0,0.0
2238,77.0,0.0,180.0,8.0,0.0
2239,77.0,150.0,180.0,7.0,0.0
2240,80.0,120.0,90.0,7.0,0.0
2241,80.0,0.0,90.0,8.0,0.0
2242,77.0,0.0,90.0,8.0,0.0
2243,77.0,570.0,90.0,7.0,0.0
2244,73.0,0.0,540.0,8.0,0.0
2245,49.0,0.0,540.0,12.0,0.0
2246,49.0,0.0,720.0,6.0,0.0
2247,61.0,90.0,720.0,4.0,0.0
2248,73.0,0.0,720.0,5.0,0.0
2249,61.0,0.0,540.0,3.0,0.0
2250,61.0,0.0,540.0,11.0,0.0
2251,73.0,0.0,720.0,2.0,0.0
2252,85.0,0.0,720.0,1.0,0.0
2253,85.0,180.0,540.0,0.0,0.0
2254,73.0,0.0,540.0,7.0,0.0
2255,73.0,0.0,540.0,10.0,0.0
2256,89.0,120.0,90.0,0.0,0.0
2257,65.0,0.0,90.0,3.0,0.0
2258,77.0,0.0,90.0,8.0,0.0
2259,77.0,0.0,90.0,10.0,0.0
2260,65.0,0.0,90.0,11.0,0.0
2261,77.0,0.0,90.0,7.0,0.0
2262,53.0,0.0,90.0,12.0,0.0
2263,73.0,0.0,90.0,7.0,0.0
2264,85.0,0.0,90.0,0.0,0.0
2265,49.0,0.0,90.0,12.0,0.0
2266,61.0,0.0,90.0,3.0,0.0
2267,61.0,0.0,90.0,11.0,0.0
2268,73.0,0.0,90.0,8.0,0.0
2269,73.0,210.0,90.0,10.0,0.0
2270,49.0,90.0,360.0,6.0,0.0
2271,44.0,0.0,180.0,12.0,0.0
2272,61.0,0.0,360.0,4.0,0.0
2273,68.0,0.0,180.0,8.0,0.0
2274,73.0,0.0,360.0,5.0,0.0
2275,56.0,0.0,180.0,3.0,0.0
2276,56.0,0.0,180.0,11.0,0.0
2277,80.0,0.0,360.0,1.0,0.0
2278,68.0,0.0,180.0,10.0,0.0
2279,68.0,0.0,360.0,2.0,0.0
2280,80.0,150.0,180.0,0.0,0.0
2281,68.0,0.0,180.0,7.0,0.0
2282,61.0,0.0,90.0,3.0,0.0
2283,73.0,0.0,90.0,10.0,0.0
2284,85.0,0.0,90.0,0.0,0.0
2285,73.0,0.0,90.0,8.0,0.0
2286,49.0,0.0,90.0,12.0,0.0
2287,73.0,30.0,90.0,7.0,0.0
2288,61.0,0.0,90.0,11.0,0.0
2289,44.0,0.0,90.0,12.0,0.0
2290,68.0,0.0,90.0,7.0,0.0
2291,56.0,210.0,90.0,11.0,0.0
2292,56.0,0.0,90.0,3.0,0.0
2293,68.0,0.0,90.0,10.0,0.0
2294,80.0,0.0,90.0,0.0,0.0
2295,68.0,0.0,90.0,8.0,0.0
2296,41.0,0.0,180.0,12.0,0.0
2297,77.0,0.0,180.0,0.0,0.0
2298,77.0,0.0,360.0,1.0,0.0
2299,53.0,0.0,180.0,11.0,0.0
2300,65.0,0.0,180.0,10.0,0.0
2301,61.0,90.0,360.0,4.0,0.0
2302,65.0,0.0,360.0,2.0,0.0
2303,49.0,0.0,360.0,6.0,0.0
2304,53.0,0.0,180.0,3.0,0.0
2305,65.0,0.0,180.0,7.0,0.0
2306,73.0,0.0,360.0,5.0,0.0
2307,65.0,150.0,180.0,8.0,0.0
2308,68.0,30.0,90.0,10.0,0.0
2309,80.0,0.0,90.0,0.0,0.0
2310,68.0,0.0,90.0,7.0,0.0
2311,44.0,0.0,90.0,12.0,0.0
2312,56.0,0.0,90.0,3.0,0.0
2313,68.0,0.0,90.0,8.0,0.0
2314,56.0,0.0,90.0,11.0,0.0
2315,77.0,0.0,90.0,0.0,0.0
2316,65.0,0.0,90.0,10.0,0.0
2317,41.0,0.0,90.0,12.0,0.0
2318,65.0,0.0,90.0,7.0,0.0
2319,53.0,210.0,90.0,3.0,0.0
2320,53.0,0.0,90.0,11.0,0.0
2321,65.0,0.0,90.0,8.0,0.0
2322,73.0,0.0,12960.0,0.0,0.0
2323,49.0,0.0,180.0,3.0,0.0
2324,61.0,30.0,11700.0,8.0,0.0
2325,49.0,0.0,180.0,11.0,0.0
2326,61.0,60.0,360.0,2.0,0.0
2327,73.0,0.0,360.0,1.0,0.0
2328,49.0,0.0,360.0,6.0,0.0
2329,73.0,0.0,360.0,5.0,0.0
2330,61.0,0.0,360.0,4.0,0.0
2331,61.0,0.0,1440.0,7.0,0.0
2332,61.0,180.0,1440.0,10.0,0.0
2333,37.0,180.0,180.0,12.0,0.0
2334,48.0,240.0,180.0,11.0,0.0
2335,36.0,0.0,180.0,12.0,0.0
2336,48.0,0.0,180.0,3.0,0.0
2337,49.0,0.0,180.0,3.0,0.0
2338,37.0,240.0,180.0,12.0,0.0
2339,49.0,0.0,180.0,11.0,0.0
2340,39.0,0.0,180.0,12.0,0.0
2341,51.0,240.0,180.0,11.0,0.0
2342,51.0,0.0,180.0,3.0,0.0
2343,53.0,240.0,180.0,3.0,0.0
2344,41.0,0.0,180.0,12.0,0.0
2345,53.0,0.0,180.0,11.0,0.0
2346,54.0,0.0,180.0,11.0,0.0
2347,42.0,0.0,180.0,12.0,0.0
2348,54.0,60.0,180.0,3.0,0.0
2349,56.0,240.0,180.0,11.0,0.0
2350,56.0,0.0,180.0,3.0,0.0
2351,44.0,0.0,180.0,12.0,0.0
2352,42.0,0.0,180.0,12.0,0.0
2353,54.0,0.0,180.0,11.0,0.0
2354,54.0,240.0,180.0,3.0,0.0
2355,56.0,120.0,1920.0,10.0,0.0
2356,41.0,0.0,180.0,12.0,0.0
2357,53.0,0.0,180.0,11.0,0.0
2358,53.0,240.0,180.0,3.0,0.0
2359,73.0,30.0,1590.0,7.0,0.0
2360,39.0,0.0,180.0,12.0,0.0
2361,51.0,240.0,180.0,3.0,0.0
2362,51.0,0.0,180.0,11.0,0.0
2363,49.0,240.0,180.0,3.0,0.0
2364,37.0,0.0,180.0,12.0,0.0
2365,49.0,0.0,180.0,11.0,0.0
2366,51.0,240.0,180.0,11.0,0.0
2367,39.0,0.0,180.0,12.0,0.0
2368,51.0,0.0,180.0,3.0,0.0
2369,53.0,0.0,180.0,3.0,0.0
2370,41.0,0.0,180.0,12.0,0.0
2371,53.0,240.0,180.0,11.0,0.0
2372,42.0,0.0,180.0,12.0,0.0
2373,54.0,0.0,180.0,3.0,0.0
2374,54.0,210.0,180.0,11.0,0.0
2375,56.0,0.0,180.0,3.0,0.0
2376,44.0,210.0,180.0,12.0,0.0
2377,56.0,0.0,180.0,11.0,0.0
2378,53.0,60.0,180.0,11.0,0.0
2379,41.0,0.0,180.0,12.0,0.0
2380,53.0,0.0,180.0,3.0,0.0
2381,61.0,30.0,30.0,7.0,0.0
2382,63.0,60.0,120.0,7.0,0.0
2383,54.0,240.0,180.0,3.0,0.0
2384,54.0,0.0,180.0,11.0,0.0
2385,75.0,180.0,1440.0,0.0,0.0
2386,42.0,0.0,180.0,12.0,0.0
2387,58.0,180.0,1920.0,10.0,0.0
2388,41.0,0.0,180.0,12.0,0.0
2389,53.0,180.0,180.0,3.0,0.0
2390,53.0,0.0,180.0,11.0,0.0
2391,51.0,0.0,180.0,3.0,0.0
2392,39.0,0.0,180.0,12.0,0.0
2393,51.0,240.0,180.0,11.0,0.0
2394,75.0,60.0,120.0,7.0,0.0
2395,53.0,0.0,180.0,3.0,0.0
2396,41.0,0.0,180.0,12.0,0.0
2397,53.0,240.0,180.0,11.0,0.0
2398,54.0,0.0,180.0,3.0,0.0
2399,42.0,240.0,180.0,12.0,0.0
2400,54.0,0.0,180.0,11.0,0.0
2401,56.0,0.0,180.0,3.0,0.0
2402,56.0,60.0,180.0,11.0,0.0
2403,44.0,0.0,180.0,12.0,0.0
2404,46.0,0.0,180.0,12.0,0.0
2405,58.0,240.0,180.0,11.0,0.0
2406,58.0,0.0,180.0,3.0,0.0
2407,54.0,0.0,180.0,11.0,0.0
2408,42.0,30.0,180.0,12.0,0.0
2409,54.0,0.0,180.0,3.0,0.0
2410,63.0,30.0,90.0,7.0,0.0
2411,44.0,0.0,180.0,12.0,0.0
2412,59.0,120.0,1920.0,10.0,0.0
2413,56.0,180.0,180.0,3.0,0.0
2414,65.0,60.0,360.0,7.0,0.0
2415,56.0,0.0,180.0,11.0,0.0
2416,77.0,60.0,1440.0,0.0,0.0
2417,54.0,0.0,180.0,11.0,0.0
2418,54.0,0.0,180.0,3.0,0.0
2419,42.0,240.0,180.0,12.0,0.0
2420,41.0,0.0,180.0,12.0,0.0
2421,65.0,150.0,270.0,7.0,0.0
2422,53.0,90.0,180.0,11.0,0.0
2423,53.0,0.0,180.0,3.0,0.0
2424,42.0,30.0,180.0,12.0,0.0
2425,54.0,0.0,180.0,11.0,0.0
2426,54.0,0.0,180.0,3.0,0.0
2427,65.0,90.0,90.0,7.0,0.0
2428,56.0,0.0,180.0,3.0,0.0
2429,44.0,0.0,180.0,12.0,0.0
2430,65.0,60.0,60.0,7.0,0.0
2431,56.0,60.0,180.0,11.0,0.0
2432,66.0,60.0,60.0,7.0,0.0
2433,65.0,0.0,60.0,7.0,0.0
2434,66.0,60.0,60.0,7.0,0.0
2435,65.0,60.0,60.0,7.0,0.0
2436,58.0,60.0,180.0,3.0,0.0
2437,46.0,0.0,180.0,12.0,0.0
2438,58.0,0.0,180.0,11.0,0.0
2439,66.0,60.0,60.0,7.0,0.0
2440,65.0,0.0,60.0,7.0,0.0
2441,66.0,0.0,60.0,7.0,0.0
2442,65.0,60.0,60.0,7.0,0.0
2443,59.0,0.0,180.0,11.0,0.0
2444,47.0,0.0,180.0,12.0,0.0
2445,59.0,0.0,180.0,3.0,0.0
2446,66.0,60.0,60.0,7.0,0.0
2447,65.0,60.0,60.0,7.0,0.0
2448,66.0,120.0,60.0,7.0,0.0
2449,56.0,0.0,180.0,3.0,0.0
2450,63.0,60.0,120.0,7.0,0.0
2451,44.0,0.0,180.0,12.0,0.0
2452,56.0,60.0,180.0,11.0,0.0
2453,65.0,0.0,120.0,7.0,0.0
2454,58.0,0.0,180.0,3.0,0.0
2455,58.0,180.0,1920.0,10.0,0.0
2456,66.0,60.0,120.0,7.0,0.0
2457,58.0,240.0,180.0,11.0,0.0
2458,78.0,180.0,1440.0,0.0,0.0
2459,46.0,0.0,180.0,12.0,0.0
2460,56.0,0.0,180.0,3.0,0.0
2461,56.0,0.0,180.0,11.0,0.0
2462,44.0,180.0,180.0,12.0,0.0
2463,54.0,240.0,180.0,11.0,0.0
2464,78.0,60.0,120.0,7.0,0.0
2465,54.0,0.0,180.0,3.0,0.0
2466,42.0,0.0,180.0,12.0,0.0
2467,56.0,0.0,180.0,11.0,0.0
2468,56.0,240.0,180.0,3.0,0.0
2469,44.0,0.0,180.0,12.0,0.0
2470,58.0,0.0,180.0,11.0,0.0
2471,46.0,0.0,180.0,12.0,0.0
2472,58.0,240.0,180.0,3.0,0.0
2473,47.0,0.0,180.0,12.0,0.0
2474,59.0,0.0,180.0,11.0,0.0
2475,59.0,60.0,180.0,3.0,0.0
2476,49.0,0.0,180.0,12.0,0.0
2477,61.0,240.0,180.0,3.0,0.0
2478,61.0,0.0,180.0,11.0,0.0
2479,46.0,0.0,180.0,12.0,0.0
2480,58.0,0.0,180.0,3.0,0.0
2481,58.0,30.0,180.0,11.0,0.0
2482,66.0,30.0,90.0,7.0,0.0
2483,59.0,0.0,180.0,11.0,0.0
2484,59.0,0.0,180.0,3.0,0.0
2485,47.0,180.0,180.0,12.0,0.0
2486,68.0,60.0,360.0,7.0,0.0
2487,59.0,0.0,1920.0,10.0,0.0
2488,80.0,60.0,1440.0,0.0,0.0
2489,58.0,0.0,180.0,11.0,0.0
2490,46.0,240.0,180.0,12.0,0.0
2491,58.0,0.0,180.0,3.0,0.0
2492,68.0,150.0,270.0,7.0,0.0
2493,56.0,90.0,180.0,11.0,0.0
2494,44.0,0.0,180.0,12.0,0.0
2495,56.0,0.0,180.0,3.0,0.0
2496,42.0,0.0,180.0,12.0,0.0
2497,54.0,30.0,180.0,11.0,0.0
2498,54.0,0.0,180.0,3.0,0.0
2499,68.0,90.0,90.0,7.0,0.0
2500,53.0,0.0,180.0,3.0,0.0
2501,41.0,60.0,180.0,12.0,0.0
2502,68.0,60.0,60.0,7.0,0.0
2503,53.0,0.0,180.0,11.0,0.0
2504,70.0,60.0,60.0,7.0,0.0
2505,68.0,0.0,60.0,7.0,0.0
2506,70.0,60.0,60.0,7.0,0.0
2507,37.0,0.0,180.0,12.0,0.0
2508,49.0,0.0,180.0,11.0,0.0
2509,49.0,0.0,180.0,3.0,0.0
2510,68.0,60.0,60.0,7.0,0.0
2511,70.0,60.0,60.0,7.0,0.0
2512,68.0,60.0,60.0,7.0,0.0
2513,70.0,0.0,60.0,7.0,0.0
2514,51.0,0.0,180.0,3.0,0.0
2515,51.0,0.0,180.0,11.0,0.0
2516,68.0,60.0,60.0,7.0,0.0
2517,39.0,60.0,180.0,12.0,0.0
2518,70.0,60.0,60.0,7.0,0.0
2519,68.0,0.0,60.0,7.0,0.0
2520,70.0,120.0,60.0,7.0,0.0
2521,53.0,60.0,180.0,11.0,0.0
2522,41.0,0.0,180.0,12.0,0.0
2523,66.0,60.0,120.0,7.0,0.0
2524,53.0,0.0,180.0,3.0,0.0
2525,68.0,90.0,120.0,7.0,0.0
2526,58.0,0.0,1440.0,10.0,0.0
2527,61.0,0.0,1440.0,2.0,0.0
2528,54.0,0.0,1440.0,4.0,0.0
2529,70.0,0.0,1440.0,2.0,0.0
2530,66.0,0.0,1440.0,4.0,0.0
2531,78.0,0.0,1440.0,5.0,0.0
2532,66.0,0.0,1440.0,5.0,0.0
2533,54.0,90.0,720.0,6.0,0.0
2534,70.0,90.0,90.0,7.0,0.0
2535,54.0,0.0,1440.0,3.0,0.0
2536,54.0,0.0,1440.0,11.0,0.0
2537,73.0,0.0,1440.0,1.0,0.0
2538,70.0,0.0,1440.0,1.0,0.0
2539,82.0,0.0,1440.0,0.0,0.0
2540,42.0,90.0,1440.0,12.0,0.0
2541,70.0,120.0,90.0,7.0,0.0
2542,66.0,0.0,90.0,7.0,0.0
2543,66.0,120.0,90.0,8.0,0.0
2544,66.0,0.0,90.0,8.0,0.0
2545,66.0,120.0,90.0,7.0,0.0
2546,70.0,120.0,90.0,8.0,0.0
2547,70.0,0.0,90.0,7.0,0.0
2548,70.0,0.0,90.0,7.0,0.0
2549,70.0,30.0,90.0,8.0,0.0
2550,73.0,120.0,90.0,7.0,0.0
2551,73.0,0.0,90.0,8.0,0.0
2552,73.0,0.0,90.0,8.0,0.0
2553,73.0,120.0,90.0,7.0,0.0
2554,78.0,0.0,90.0,7.0,0.0
2555,78.0,120.0,90.0,8.0,0.0
2556,78.0,120.0,90.0,8.0,0.0
2557,78.0,0.0,90.0,7.0,0.0
2558,70.0,0.0,90.0,8.0,0.0
2559,70.0,120.0,90.0,7.0,0.0
2560,70.0,30.0,90.0,8.0,0.0
2561,70.0,0.0,90.0,7.0,0.0
2562,73.0,120.0,90.0,7.0,0.0
2563,73.0,0.0,90.0,8.0,0.0
2564,73.0,0.0,90.0,8.0,0.0
2565,73.0,120.0,90.0,7.0,0.0
2566,78.0,120.0,90.0,8.0,0.0
2567,78.0,0.0,90.0,7.0,0.0
2568,78.0,120.0,90.0,8.0,0.0
2569,78.0,0.0,90.0,7.0,0.0
2570,66.0,0.0,1590.0,3.0,0.0
2571,82.0,120.0,90.0,8.0,0.0
2572,66.0,0.0,1440.0,4.0,0.0
2573,82.0,0.0,1440.0,1.0,0.0
2574,58.0,0.0,1440.0,4.0,0.0
2575,73.0,90.0,2640.0,1.0,0.0
2576,70.0,0.0,1440.0,5.0,0.0
2577,73.0,120.0,4320.0,2.0,0.0
2578,82.0,0.0,90.0,7.0,0.0
2579,82.0,0.0,1590.0,10.0,0.0
2580,70.0,0.0,1440.0,2.0,0.0
2581,54.0,0.0,1590.0,12.0,0.0
2582,66.0,60.0,1590.0,11.0,0.0
2583,54.0,90.0,720.0,6.0,0.0
2584,94.0,0.0,1440.0,0.0,0.0
2585,85.0,0.0,4320.0,0.0,0.0
2586,78.0,90.0,1440.0,5.0,0.0
2587,82.0,120.0,90.0,7.0,0.0
2588,82.0,0.0,90.0,8.0,0.0
2589,73.0,0.0,90.0,7.0,0.0
2590,73.0,120.0,90.0,8.0,0.0
2591,73.0,0.0,90.0,7.0,0.0
2592,73.0,120.0,90.0,8.0,0.0
2593,78.0,0.0,90.0,8.0,0.0
2594,78.0,120.0,90.0,7.0,0.0
2595,78.0,30.0,90.0,7.0,0.0
2596,78.0,0.0,90.0,8.0,0.0
2597,82.0,120.0,90.0,7.0,0.0
2598,82.0,0.0,90.0,8.0,0.0
2599,82.0,120.0,90.0,8.0,0.0
2600,82.0,0.0,90.0,7.0,0.0
2601,85.0,120.0,90.0,7.0,0.0
2602,85.0,0.0,90.0,8.0,0.0
2603,85.0,120.0,90.0,7.0,0.0
2604,85.0,0.0,90.0,8.0,0.0
2605,82.0,120.0,90.0,8.0,0.0
2606,82.0,0.0,90.0,7.0,0.0
2607,82.0,30.0,90.0,7.0,0.0
2608,82.0,0.0,90.0,8.0,0.0
2609,90.0,0.0,90.0,7.0,0.0
2610,90.0,60.0,90.0,8.0,0.0
2611,90.0,0.0,90.0,8.0,0.0
2612,90.0,120.0,90.0,7.0,0.0
2613,82.0,0.0,90.0,7.0,0.0
2614,82.0,60.0,90.0,8.0,0.0
2615,54.0,0.0,30.0,11.0,0.0
2616,82.0,150.0,90.0,7.0,0.0
2617,42.0,60.0,30.0,12.0,0.0
2618,82.0,0.0,90.0,8.0,0.0
2619,66.0,0.0,30.0,10.0,0.0
2620,54.0,0.0,30.0,3.0,0.0
2621,53.0,0.0,120.0,3.0,0.0
2622,80.0,60.0,540.0,7.0,0.0
2623,68.0,0.0,1440.0,2.0,0.0
2624,80.0,0.0,540.0,8.0,0.0
2625,92.0,90.0,1440.0,0.0,0.0
2626,49.0,0.0,360.0,6.0,0.0
2627,80.0,0.0,720.0,1.0,0.0
2628,53.0,240.0,120.0,11.0,0.0
2629,61.0,180.0,360.0,4.0,0.0
2630,41.0,0.0,120.0,12.0,0.0
2631,68.0,0.0,360.0,4.0,0.0
2632,80.0,0.0,360.0,5.0,0.0
2633,73.0,0.0,360.0,5.0,0.0
2634,65.0,0.0,120.0,10.0,0.0
2635,65.0,0.0,120.0,11.0,0.0
2636,53.0,0.0,120.0,12.0,0.0
2637,49.0,0.0,360.0,6.0,0.0
2638,77.0,120.0,120.0,10.0,0.0
2639,65.0,0.0,120.0,3.0,0.0
2640,68.0,0.0,360.0,4.0,0.0
2641,61.0,0.0,360.0,4.0,0.0
2642,73.0,0.0,360.0,5.0,0.0
2643,80.0,90.0,360.0,5.0,0.0
2644,82.0,0.0,90.0,7.0,0.0
2645,82.0,30.0,90.0,8.0,0.0
2646,84.0,120.0,90.0,7.0,0.0
2647,84.0,0.0,90.0,8.0,0.0
2648,85.0,0.0,90.0,8.0,0.0
2649,80.0,90.0,720.0,1.0,0.0
2650,85.0,0.0,1440.0,1.0,0.0
2651,85.0,120.0,90.0,7.0,0.0
2652,87.0,0.0,90.0,8.0,0.0
2653,87.0,120.0,90.0,7.0,0.0
2654,89.0,120.0,90.0,7.0,0.0
2655,89.0,0.0,90.0,8.0,0.0
2656,87.0,0.0,90.0,7.0,0.0
2657,87.0,30.0,90.0,8.0,0.0
2658,85.0,0.0,90.0,8.0,0.0
2659,85.0,120.0,90.0,7.0,0.0
2660,84.0,30.0,90.0,8.0,0.0
2661,84.0,0.0,90.0,7.0,0.0
2662,82.0,0.0,90.0,8.0,0.0
2663,82.0,60.0,90.0,7.0,0.0
2664,53.0,0.0,30.0,3.0,0.0
2665,53.0,60.0,30.0,11.0,0.0
2666,80.0,210.0,90.0,7.0,0.0
2667,65.0,0.0,30.0,10.0,0.0
2668,80.0,0.0,90.0,8.0,0.0
2669,41.0,0.0,30.0,12.0,0.0
2670,66.0,30.0,720.0,4.0,0.0
2671,54.0,0.0,720.0,4.0,0.0
2672,63.0,0.0,360.0,10.0,0.0
2673,51.0,0.0,360.0,3.0,0.0
2674,90.0,0.0,1920.0,0.0,0.0
2675,51.0,0.0,360.0,11.0,0.0
2676,66.0,0.0,1920.0,2.0,0.0
2677,78.0,0.0,180.0,7.0,0.0
2678,75.0,0.0,720.0,5.0,0.0
2679,78.0,180.0,180.0,8.0,0.0
2680,39.0,0.0,360.0,12.0,0.0
2681,78.0,0.0,1920.0,1.0,0.0
2682,54.0,120.0,360.0,6.0,0.0
2683,87.0,120.0,360.0,7.0,0.0
2684,87.0,0.0,360.0,8.0,0.0
2685,51.0,0.0,270.0,11.0,0.0
2686,84.0,0.0,1920.0,0.0,0.0
2687,84.0,60.0,1920.0,1.0,0.0
2688,54.0,0.0,270.0,6.0,0.0
2689,51.0,0.0,270.0,3.0,0.0
2690,72.0,0.0,1920.0,2.0,0.0
2691,39.0,30.0,270.0,12.0,0.0
2692,63.0,0.0,270.0,10.0,0.0
2693,85.0,0.0,60.0,8.0,0.0
2694,85.0,60.0,60.0,7.0,0.0
2695,87.0,0.0,60.0,8.0,0.0
2696,87.0,60.0,60.0,7.0,0.0
2697,85.0,0.0,60.0,8.0,0.0
2698,51.0,0.0,90.0,3.0,0.0
2699,39.0,0.0,90.0,12.0,0.0
2700,85.0,30.0,60.0,7.0,0.0
2701,51.0,30.0,90.0,11.0,0.0
2702,54.0,0.0,90.0,6.0,0.0
2703,63.0,0.0,90.0,10.0,0.0
2704,87.0,60.0,60.0,8.0,0.0
2705,87.0,0.0,60.0,7.0,0.0
2706,84.0,0.0,240.0,7.0,0.0
2707,54.0,0.0,360.0,6.0,0.0
2708,75.0,0.0,360.0,5.0,0.0
2709,66.0,0.0,360.0,4.0,0.0
2710,39.0,0.0,60.0,12.0,0.0
2711,51.0,60.0,60.0,11.0,0.0
2712,54.0,0.0,360.0,4.0,0.0
2713,84.0,60.0,240.0,8.0,0.0
2714,51.0,0.0,60.0,3.0,0.0
2715,63.0,0.0,60.0,10.0,0.0
2716,41.0,60.0,60.0,12.0,0.0
2717,53.0,0.0,60.0,3.0,0.0
2718,65.0,0.0,60.0,10.0,0.0
2719,53.0,0.0,60.0,11.0,0.0
2720,51.0,0.0,60.0,3.0,0.0
2721,39.0,0.0,60.0,12.0,0.0
2722,63.0,0.0,60.0,10.0,0.0
2723,51.0,60.0,60.0,11.0,0.0
2724,41.0,0.0,60.0,12.0,0.0
2725,53.0,0.0,60.0,11.0,0.0
2726,53.0,0.0,60.0,3.0,0.0
2727,65.0,0.0,60.0,10.0,0.0
2728,51.0,0.0,60.0,11.0,0.0
2729,63.0,0.0,60.0,10.0,0.0
2730,82.0,0.0,120.0,7.0,0.0
2731,51.0,60.0,60.0,3.0,0.0
2732,82.0,0.0,120.0,8.0,0.0
2733,39.0,0.0,60.0,12.0,0.0
2734,65.0,60.0,60.0,10.0,0.0
2735,53.0,0.0,60.0,11.0,0.0
2736,53.0,0.0,60.0,3.0,0.0
2737,41.0,0.0,60.0,12.0,0.0
2738,39.0,0.0,60.0,12.0,0.0
2739,51.0,60.0,60.0,3.0,0.0
2740,63.0,0.0,60.0,10.0,0.0
2741,51.0,0.0,60.0,11.0,0.0
2742,53.0,0.0,60.0,11.0,0.0
2743,65.0,0.0,60.0,10.0,0.0
2744,41.0,60.0,60.0,12.0,0.0
2745,53.0,0.0,60.0,3.0,0.0
2746,63.0,60.0,60.0,10.0,0.0
2747,66.0,0.0,360.0,4.0,0.0
2748,54.0,0.0,360.0,4.0,0.0
2749,54.0,0.0,360.0,6.0,0.0
2750,80.0,0.0,120.0,8.0,0.0
2751,49.0,0.0,120.0,11.0,0.0
2752,75.0,0.0,360.0,5.0,0.0
2753,80.0,0.0,120.0,7.0,0.0
2754,51.0,0.0,60.0,3.0,0.0
2755,37.0,0.0,120.0,12.0,0.0
2756,53.0,60.0,60.0,3.0,0.0
2757,65.0,0.0,60.0,10.0,0.0
2758,39.0,0.0,120.0,12.0,0.0
2759,63.0,0.0,60.0,10.0,0.0
2760,51.0,60.0,60.0,3.0,0.0
2761,51.0,0.0,120.0,11.0,0.0
2762,53.0,0.0,60.0,3.0,0.0
2763,65.0,120.0,60.0,10.0,0.0
2764,49.0,0.0,120.0,3.0,0.0
2765,78.0,120.0,120.0,7.0,0.0
2766,78.0,0.0,120.0,8.0,0.0
2767,61.0,0.0,120.0,10.0,0.0
2768,51.0,120.0,120.0,3.0,0.0
2769,63.0,0.0,120.0,10.0,0.0
2770,89.0,180.0,1920.0,0.0,0.0
2771,49.0,0.0,120.0,11.0,0.0
2772,61.0,0.0,120.0,10.0,0.0
2773,77.0,0.0,1920.0,1.0,0.0
2774,65.0,0.0,1920.0,2.0,0.0
2775,77.0,60.0,540.0,8.0,0.0
2776,49.0,0.0,360.0,6.0,0.0
2777,73.0,0.0,360.0,5.0,0.0
2778,49.0,0.0,120.0,3.0,0.0
2779,77.0,0.0,540.0,7.0,0.0
2780,37.0,240.0,120.0,12.0,0.0
2781,61.0,120.0,360.0,4.0,0.0
2782,73.0,0.0,120.0,10.0,0.0
2783,49.0,0.0,120.0,12.0,0.0
2784,82.0,0.0,1800.0,1.0,0.0
2785,82.0,120.0,1920.0,0.0,0.0
2786,61.0,0.0,120.0,3.0,0.0
2787,70.0,0.0,1800.0,2.0,0.0
2788,61.0,210.0,120.0,11.0,0.0
2789,78.0,120.0,90.0,7.0,0.0
2790,78.0,0.0,90.0,8.0,0.0
2791,80.0,120.0,90.0,8.0,0.0
2792,80.0,0.0,90.0,7.0,0.0
2793,82.0,0.0,90.0,7.0,0.0
2794,82.0,120.0,90.0,8.0,0.0
2795,84.0,0.0,90.0,7.0,0.0
2796,84.0,120.0,90.0,8.0,0.0
2797,85.0,0.0,90.0,7.0,0.0
2798,85.0,120.0,90.0,8.0,0.0
2799,84.0,120.0,90.0,7.0,0.0
2800,84.0,0.0,90.0,8.0,0.0
2801,82.0,0.0,90.0,8.0,0.0
2802,82.0,120.0,90.0,7.0,0.0
2803,80.0,0.0,90.0,8.0,0.0
2804,80.0,120.0,90.0,7.0,0.0
2805,78.0,0.0,90.0,8.0,0.0
2806,78.0,120.0,90.0,7.0,0.0
2807,61.0,0.0,90.0,3.0,0.0
2808,49.0,0.0,90.0,12.0,0.0
2809,73.0,30.0,90.0,10.0,0.0
2810,77.0,0.0,90.0,8.0,0.0
2811,61.0,0.0,90.0,11.0,0.0
2812,77.0,0.0,90.0,7.0,0.0
2813,60.0,0.0,360.0,11.0,0.0
2814,48.0,120.0,360.0,12.0,0.0
2815,75.0,0.0,180.0,8.0,0.0
2816,72.0,0.0,360.0,10.0,0.0
2817,60.0,0.0,360.0,3.0,0.0
2818,75.0,0.0,1440.0,1.0,0.0
2819,87.0,0.0,1920.0,0.0,0.0
2820,63.0,0.0,1440.0,2.0,0.0
2821,75.0,180.0,180.0,7.0,0.0
2822,84.0,150.0,360.0,8.0,0.0
2823,84.0,0.0,360.0,7.0,0.0
2824,60.0,0.0,270.0,11.0,0.0
2825,68.0,0.0,1920.0,2.0,0.0
2826,60.0,0.0,270.0,3.0,0.0
2827,72.0,0.0,270.0,10.0,0.0
2828,48.0,30.0,270.0,12.0,0.0
2829,80.0,0.0,1920.0,1.0,0.0
2830,80.0,0.0,1800.0,0.0,0.0
2831,82.0,60.0,60.0,8.0,0.0
2832,82.0,0.0,60.0,7.0,0.0
2833,84.0,0.0,60.0,8.0,0.0
2834,84.0,60.0,60.0,7.0,0.0
2835,82.0,0.0,60.0,8.0,0.0
2836,60.0,0.0,90.0,3.0,0.0
2837,82.0,30.0,60.0,7.0,0.0
2838,48.0,0.0,90.0,12.0,0.0
2839,60.0,30.0,90.0,11.0,0.0
2840,72.0,0.0,90.0,10.0,0.0
2841,84.0,60.0,60.0,7.0,0.0
2842,84.0,0.0,60.0,8.0,0.0
2843,80.0,0.0,240.0,8.0,0.0
2844,60.0,60.0,60.0,11.0,0.0
2845,48.0,0.0,60.0,12.0,0.0
2846,60.0,0.0,60.0,3.0,0.0
2847,80.0,0.0,240.0,7.0,0.0
2848,72.0,0.0,60.0,10.0,0.0
2849,61.0,0.0,60.0,11.0,0.0
2850,61.0,0.0,60.0,3.0,0.0
2851,73.0,0.0,60.0,10.0,0.0
2852,49.0,60.0,60.0,12.0,0.0
2853,48.0,60.0,60.0,12.0,0.0
2854,60.0,0.0,60.0,3.0,0.0
2855,72.0,0.0,60.0,10.0,0.0
2856,60.0,0.0,60.0,11.0,0.0
2857,61.0,0.0,60.0,11.0,0.0
2858,61.0,0.0,60.0,3.0,0.0
2859,73.0,0.0,60.0,10.0,0.0
2860,49.0,60.0,60.0,12.0,0.0
2861,60.0,60.0,60.0,3.0,0.0
2862,79.0,0.0,120.0,8.0,0.0
2863,79.0,0.0,120.0,7.0,0.0
2864,60.0,0.0,60.0,11.0,0.0
2865,48.0,0.0,60.0,12.0,0.0
2866,72.0,0.0,60.0,10.0,0.0
2867,49.0,0.0,60.0,12.0,0.0
2868,73.0,0.0,60.0,10.0,0.0
2869,61.0,0.0,60.0,3.0,0.0
2870,61.0,60.0,60.0,11.0,0.0
2871,60.0,0.0,60.0,3.0,0.0
2872,72.0,60.0,60.0,10.0,0.0
2873,48.0,0.0,60.0,12.0,0.0
2874,60.0,0.0,60.0,11.0,0.0
2875,61.0,60.0,60.0,11.0,0.0
2876,61.0,0.0,60.0,3.0,0.0
2877,49.0,0.0,60.0,12.0,0.0
2878,73.0,0.0,60.0,10.0,0.0
2879,72.0,0.0,60.0,10.0,0.0
2880,77.0,0.0,120.0,7.0,0.0
2881,48.0,0.0,60.0,12.0,0.0
2882,77.0,0.0,120.0,8.0,0.0
2883,60.0,0.0,60.0,3.0,0.0
2884,60.0,60.0,60.0,11.0,0.0
2885,73.0,0.0,60.0,10.0,0.0
2886,49.0,0.0,60.0,12.0,0.0
2887,61.0,60.0,60.0,11.0,0.0
2888,61.0,0.0,60.0,3.0,0.0
2889,60.0,0.0,60.0,11.0,0.0
2890,48.0,0.0,60.0,12.0,0.0
2891,60.0,60.0,60.0,3.0,0.0
2892,72.0,0.0,60.0,10.0,0.0
2893,49.0,120.0,60.0,12.0,0.0
2894,73.0,0.0,60.0,10.0,0.0
2895,61.0,0.0,60.0,11.0,0.0
2896,61.0,0.0,60.0,3.0,0.0
2897,75.0,0.0,120.0,8.0,0.0
2898,70.0,0.0,120.0,10.0,0.0
2899,58.0,0.0,120.0,11.0,0.0
2900,58.0,120.0,120.0,3.0,0.0
2901,75.0,0.0,120.0,7.0,0.0
2902,46.0,0.0,120.0,12.0,0.0
2903,60.0,0.0,120.0,11.0,0.0
2904,48.0,0.0,120.0,12.0,0.0
2905,60.0,120.0,120.0,3.0,0.0
2906,72.0,0.0,120.0,10.0,0.0
2907,70.0,0.0,120.0,10.0,0.0
2908,61.0,0.0,1440.0,2.0,0.0
2909,46.0,60.0,120.0,12.0,0.0
2910,73.0,180.0,180.0,7.0,0.0
2911,58.0,0.0,120.0,3.0,0.0
2912,73.0,0.0,1440.0,1.0,0.0
2913,73.0,0.0,180.0,8.0,0.0
2914,58.0,0.0,120.0,11.0,0.0
2915,85.0,120.0,480.0,0.0,0.0
2916,85.0,0.0,120.0,7.0,0.0
2917,85.0,120.0,120.0,8.0,0.0
2918,84.0,0.0,120.0,8.0,0.0
2919,84.0,0.0,120.0,7.0,0.0
2920,67.0,240.0,480.0,2.0,0.0
2921,82.0,0.0,240.0,7.0,0.0
2922,70.0,0.0,120.0,3.0,0.0
2923,70.0,0.0,120.0,11.0,0.0
2924,82.0,0.0,120.0,10.0,0.0
2925,79.0,0.0,480.0,1.0,0.0
2926,58.0,120.0,120.0,12.0,0.0
2927,85.0,0.0,360.0,0.0,0.0
2928,91.0,0.0,360.0,0.0,0.0
2929,82.0,120.0,120.0,7.0,0.0
2930,82.0,120.0,15.0,8.0,0.0
2931,80.0,0.0,120.0,8.0,0.0
2932,80.0,0.0,120.0,7.0,0.0
2933,82.0,90.0,480.0,1.0,0.0
2934,70.0,0.0,480.0,2.0,0.0
2935,79.0,0.0,240.0,7.0,0.0
2936,79.0,90.0,240.0,8.0,0.0
2937,82.0,120.0,90.0,7.0,0.0
2938,82.0,0.0,90.0,8.0,0.0
2939,80.0,30.0,90.0,8.0,0.0
2940,80.0,0.0,90.0,7.0,0.0
2941,79.0,120.0,90.0,8.0,0.0
2942,73.0,0.0,480.0,2.0,0.0
2943,85.0,0.0,480.0,1.0,0.0
2944,79.0,120.0,480.0,1.0,0.0
2945,67.0,0.0,480.0,2.0,0.0
2946,79.0,0.0,90.0,7.0,0.0
2947,77.0,120.0,90.0,8.0,0.0
2948,77.0,0.0,90.0,7.0,0.0
2949,75.0,0.0,90.0,7.0,0.0
2950,75.0,120.0,90.0,8.0,0.0
2951,73.0,0.0,90.0,7.0,0.0
2952,58.0,0.0,90.0,11.0,0.0
2953,70.0,30.0,90.0,10.0,0.0
2954,73.0,0.0,90.0,8.0,0.0
2955,58.0,0.0,90.0,3.0,0.0
2956,46.0,0.0,90.0,12.0,0.0
2957,84.0,0.0,360.0,0.0,0.0
2958,44.0,0.0,360.0,12.0,0.0
2959,72.0,0.0,360.0,2.0,0.0
2960,80.0,240.0,360.0,1.0,0.0
2961,84.0,0.0,360.0,1.0,0.0
2962,68.0,120.0,1440.0,10.0,0.0
2963,56.0,0.0,360.0,11.0,0.0
2964,56.0,0.0,1440.0,3.0,0.0
2965,92.0,0.0,360.0,0.0,0.0
2966,68.0,0.0,18720.0,4.0,0.0
2967,72.0,180.0,180.0,7.0,0.0
2968,68.0,0.0,360.0,2.0,0.0
2969,72.0,60.0,120.0,8.0,0.0
2970,72.0,0.0,120.0,8.0,0.0
2971,80.0,0.0,120.0,7.0,0.0
2972,80.0,0.0,120.0,7.0,0.0
2973,72.0,240.0,120.0,8.0,0.0
2974,80.0,0.0,120.0,7.0,0.0
2975,72.0,360.0,120.0,8.0,0.0
2976,71.0,240.0,240.0,8.0,0.0
2977,79.0,0.0,240.0,7.0,0.0
2978,72.0,0.0,240.0,8.0,0.0
2979,80.0,0.0,240.0,7.0,0.0
2980,80.0,0.0,120.0,7.0,0.0
2981,72.0,240.0,120.0,8.0,0.0
2982,72.0,360.0,120.0,8.0,0.0
2983,80.0,0.0,120.0,7.0,0.0
2984,68.0,120.0,1440.0,3.0,0.0
2985,56.0,0.0,360.0,11.0,0.0
2986,44.0,120.0,360.0,12.0,0.0
2987,72.0,120.0,240.0,8.0,0.0
2988,81.0,0.0,240.0,7.0,0.0
2989,80.0,210.0,1590.0,10.0,0.0
2990,73.0,0.0,15.0,8.0,0.0
2991,82.0,120.0,15.0,7.0,0.0
2992,82.0,360.0,120.0,7.0,0.0
2993,73.0,0.0,120.0,8.0,0.0
2994,82.0,240.0,2160.0,7.0,0.0
2995,73.0,240.0,240.0,8.0,0.0
2996,74.0,0.0,240.0,8.0,0.0
2997,74.0,30.0,120.0,8.0,0.0
2998,74.0,90.0,120.0,8.0,0.0
2999,68.0,150.0,90.0,10.0,0.0
3000,44.0,120.0,360.0,12.0,0.0
3001,66.0,240.0,1440.0,3.0,0.0
3002,56.0,0.0,360.0,11.0,0.0
3003,66.0,120.0,120.0,10.0,0.0
3004,74.0,120.0,240.0,8.0,0.0
3005,75.0,120.0,240.0,8.0,0.0
3006,78.0,120.0,120.0,10.0,0.0
3007,77.0,240.0,240.0,8.0,0.0
3008,75.0,240.0,15.0,8.0,0.0
3009,85.0,0.0,240.0,7.0,0.0
3010,84.0,210.0,240.0,7.0,0.0
3011,66.0,30.0,90.0,10.0,0.0
3012,44.0,0.0,360.0,12.0,0.0
3013,65.0,0.0,360.0,10.0,0.0
3014,56.0,120.0,360.0,11.0,0.0
3015,82.0,240.0,15.0,7.0,0.0
3016,65.0,60.0,1440.0,3.0,0.0
3017,80.0,240.0,240.0,7.0,0.0
3018,65.0,180.0,270.0,10.0,0.0
3019,79.0,30.0,240.0,7.0,0.0
3020,65.0,30.0,90.0,10.0,0.0
3021,80.0,60.0,15.0,7.0,0.0
3022,65.0,60.0,60.0,10.0,0.0
3023,66.0,60.0,60.0,10.0,0.0
3024,65.0,60.0,60.0,10.0,0.0
3025,66.0,60.0,60.0,10.0,0.0
3026,73.0,0.0,240.0,8.0,0.0
3027,65.0,60.0,60.0,10.0,0.0
3028,66.0,60.0,60.0,10.0,0.0
3029,65.0,60.0,60.0,10.0,0.0
3030,66.0,0.0,60.0,10.0,0.0
3031,65.0,60.0,60.0,10.0,0.0
3032,72.0,120.0,240.0,8.0,0.0
3033,66.0,60.0,60.0,10.0,0.0
3034,65.0,60.0,60.0,10.0,0.0
3035,66.0,0.0,60.0,10.0,0.0
3036,63.0,120.0,120.0,10.0,0.0
3037,73.0,0.0,240.0,8.0,0.0
3038,65.0,120.0,120.0,10.0,0.0
3039,63.0,120.0,120.0,10.0,0.0
3040,73.0,240.0,960.0,8.0,0.0
3041,56.0,0.0,360.0,11.0,0.0
3042,63.0,0.0,1440.0,3.0,0.0
3043,44.0,120.0,360.0,12.0,0.0
3044,78.0,120.0,240.0,7.0,0.0
3045,75.0,120.0,120.0,10.0,0.0
3046,77.0,240.0,240.0,7.0,0.0
3047,78.0,0.0,15.0,7.0,0.0
3048,72.0,0.0,2160.0,8.0,0.0
3049,82.0,240.0,240.0,7.0,0.0
3050,80.0,210.0,240.0,7.0,0.0
3051,63.0,30.0,90.0,10.0,0.0
3052,56.0,0.0,360.0,11.0,0.0
3053,61.0,0.0,1440.0,3.0,0.0
3054,78.0,240.0,15.0,7.0,0.0
3055,44.0,120.0,360.0,12.0,0.0
3056,61.0,0.0,360.0,10.0,0.0
3057,77.0,240.0,240.0,7.0,0.0
3058,76.0,30.0,240.0,7.0,0.0
3059,61.0,180.0,270.0,10.0,0.0
3060,77.0,60.0,240.0,7.0,0.0
3061,61.0,30.0,90.0,10.0,0.0
3062,77.0,120.0,1200.0,7.0,0.0
3063,61.0,60.0,60.0,10.0,0.0
3064,63.0,60.0,60.0,10.0,0.0
3065,61.0,60.0,60.0,10.0,0.0
3066,63.0,60.0,60.0,10.0,0.0
3067,61.0,60.0,60.0,10.0,0.0
3068,70.0,60.0,240.0,8.0,0.0
3069,63.0,60.0,60.0,10.0,0.0
3070,61.0,60.0,60.0,10.0,0.0
3071,63.0,0.0,60.0,10.0,0.0
3072,61.0,60.0,60.0,10.0,0.0
3073,69.0,120.0,240.0,8.0,0.0
3074,63.0,60.0,60.0,10.0,0.0
3075,61.0,60.0,60.0,10.0,0.0
3076,63.0,0.0,60.0,10.0,0.0
3077,60.0,120.0,120.0,10.0,0.0
3078,61.0,0.0,120.0,10.0,0.0
3079,44.0,0.0,360.0,12.0,0.0
3080,60.0,0.0,1440.0,3.0,0.0
3081,70.0,120.0,15.0,8.0,0.0
3082,60.0,120.0,120.0,10.0,0.0
3083,56.0,120.0,360.0,11.0,0.0
3084,75.0,120.0,240.0,7.0,0.0
3085,74.0,240.0,240.0,7.0,0.0
3086,72.0,120.0,120.0,10.0,0.0
3087,75.0,0.0,15.0,7.0,0.0
3088,68.0,60.0,2160.0,8.0,0.0
3089,78.0,240.0,240.0,7.0,0.0
3090,77.0,210.0,240.0,7.0,0.0
3091,75.0,240.0,240.0,7.0,0.0
3092,60.0,30.0,90.0,10.0,0.0
3093,58.0,0.0,1440.0,3.0,0.0
3094,44.0,120.0,360.0,12.0,0.0
3095,56.0,0.0,360.0,11.0,0.0
3096,58.0,0.0,360.0,10.0,0.0
3097,75.0,120.0,240.0,7.0,0.0
3098,73.0,240.0,240.0,7.0,0.0
3099,72.0,30.0,240.0,7.0,0.0
3100,58.0,180.0,270.0,10.0,0.0
3101,58.0,30.0,90.0,10.0,0.0
3102,73.0,60.0,15.0,7.0,0.0
3103,58.0,60.0,60.0,10.0,0.0
3104,60.0,60.0,60.0,10.0,0.0
3105,58.0,60.0,60.0,10.0,0.0
3106,60.0,0.0,60.0,10.0,0.0
3107,58.0,60.0,60.0,10.0,0.0
3108,66.0,60.0,240.0,8.0,0.0
3109,60.0,60.0,60.0,10.0,0.0
3110,58.0,60.0,60.0,10.0,0.0
3111,60.0,0.0,60.0,10.0,0.0
3112,58.0,60.0,60.0,10.0,0.0
3113,65.0,0.0,240.0,8.0,0.0
3114,60.0,60.0,60.0,10.0,0.0
3115,58.0,60.0,60.0,10.0,0.0
3116,60.0,120.0,60.0,10.0,0.0
3117,66.0,120.0,720.0,8.0,0.0
3118,56.0,120.0,120.0,10.0,0.0
3119,58.0,120.0,120.0,10.0,0.0
3120,44.0,0.0,360.0,12.0,0.0
3121,56.0,120.0,360.0,11.0,0.0
3122,56.0,120.0,120.0,10.0,0.0
3123,56.0,120.0,960.0,3.0,0.0
3124,68.0,0.0,960.0,2.0,0.0
3125,72.0,0.0,240.0,7.0,0.0
3126,56.0,0.0,360.0,11.0,0.0
3127,68.0,120.0,120.0,10.0,0.0
3128,77.0,120.0,240.0,7.0,0.0
3129,65.0,120.0,960.0,8.0,0.0
3130,44.0,120.0,360.0,12.0,0.0
3131,73.0,0.0,240.0,7.0,0.0
3132,54.0,120.0,120.0,10.0,0.0
3133,72.0,120.0,240.0,7.0,0.0
3134,66.0,0.0,960.0,2.0,0.0
3135,44.0,0.0,360.0,12.0,0.0
3136,54.0,0.0,960.0,3.0,0.0
3137,56.0,120.0,360.0,11.0,0.0
3138,70.0,0.0,240.0,7.0,0.0
3139,44.0,120.0,360.0,12.0,0.0
3140,66.0,120.0,120.0,10.0,0.0
3141,56.0,0.0,360.0,11.0,0.0
3142,75.0,120.0,240.0,7.0,0.0
3143,63.0,120.0,840.0,8.0,0.0
3144,72.0,120.0,240.0,7.0,0.0
3145,70.0,120.0,240.0,7.0,0.0
3146,53.0,0.0,960.0,3.0,0.0
3147,44.0,0.0,360.0,12.0,0.0
3148,65.0,0.0,960.0,2.0,0.0
3149,56.0,0.0,360.0,11.0,0.0
3150,53.0,120.0,120.0,10.0,0.0
3151,68.0,120.0,240.0,7.0,0.0
3152,44.0,0.0,360.0,12.0,0.0
3153,73.0,120.0,240.0,7.0,0.0
3154,56.0,120.0,360.0,11.0,0.0
3155,61.0,0.0,960.0,8.0,0.0
3156,65.0,120.0,120.0,10.0,0.0
3157,70.0,120.0,240.0,7.0,0.0
3158,44.0,0.0,360.0,12.0,0.0
3159,63.0,120.0,120.0,10.0,0.0
3160,51.0,0.0,960.0,3.0,0.0
3161,56.0,120.0,360.0,11.0,0.0
3162,63.0,60.0,960.0,2.0,0.0
3163,68.0,120.0,240.0,7.0,0.0
3164,66.0,120.0,240.0,7.0,0.0
3165,70.0,120.0,240.0,7.0,0.0
3166,75.0,120.0,120.0,10.0,0.0
3167,44.0,0.0,360.0,12.0,0.0
3168,60.0,0.0,480.0,8.0,0.0
3169,56.0,120.0,360.0,11.0,0.0
3170,66.0,0.0,240.0,7.0,0.0
3171,37.0,60.0,360.0,12.0,0.0
3172,61.0,0.0,360.0,4.0,0.0
3173,68.0,0.0,360.0,4.0,0.0
3174,73.0,0.0,360.0,10.0,0.0
3175,65.0,120.0,60.0,7.0,0.0
3176,49.0,0.0,360.0,3.0,0.0
3177,61.0,0.0,360.0,8.0,0.0
3178,49.0,0.0,360.0,11.0,0.0
3179,61.0,0.0,180.0,2.0,0.0
3180,61.0,120.0,60.0,7.0,0.0
3181,63.0,30.0,90.0,2.0,0.0
3182,63.0,30.0,60.0,7.0,0.0
3183,65.0,90.0,90.0,2.0,0.0
3184,65.0,30.0,60.0,7.0,0.0
3185,66.0,30.0,60.0,7.0,0.0
3186,66.0,90.0,90.0,2.0,0.0
3187,68.0,90.0,90.0,2.0,0.0
3188,68.0,30.0,60.0,7.0,0.0
3189,70.0,30.0,60.0,7.0,0.0
3190,70.0,90.0,90.0,2.0,0.0
3191,72.0,30.0,60.0,7.0,0.0
3192,72.0,90.0,90.0,2.0,0.0
3193,73.0,60.0,360.0,2.0,0.0
3194,73.0,90.0,90.0,0.0,0.0
3195,73.0,30.0,60.0,7.0,0.0
3196,75.0,90.0,90.0,0.0,0.0
3197,75.0,30.0,60.0,7.0,0.0
3198,77.0,30.0,60.0,7.0,0.0
3199,77.0,30.0,90.0,0.0,0.0
3200,78.0,90.0,90.0,0.0,0.0
3201,78.0,30.0,60.0,7.0,0.0
3202,80.0,30.0,60.0,7.0,0.0
3203,80.0,90.0,90.0,0.0,0.0
3204,82.0,30.0,60.0,7.0,0.0
3205,82.0,90.0,90.0,0.0,0.0
3206,84.0,30.0,60.0,7.0,0.0
3207,84.0,90.0,90.0,0.0,0.0
3208,85.0,360.0,90.0,0.0,0.0
3209,85.0,30.0,60.0,7.0,0.0
3210,78.0,0.0,720.0,2.0,0.0
3211,82.0,0.0,720.0,0.0,0.0
3212,90.0,0.0,720.0,0.0,0.0
3213,82.0,0.0,720.0,1.0,0.0
3214,78.0,0.0,720.0,5.0,0.0
3215,70.0,0.0,720.0,5.0,0.0
3216,66.0,0.0,720.0,4.0,0.0
3217,82.0,0.0,360.0,7.0,0.0
3218,54.0,0.0,720.0,6.0,0.0
3219,90.0,0.0,720.0,7.0,0.0
3220,78.0,180.0,720.0,1.0,0.0
3221,58.0,0.0,720.0,4.0,0.0
3222,70.0,0.0,720.0,2.0,0.0
3223,82.0,0.0,720.0,8.0,0.0
3224,73.0,90.0,360.0,8.0,0.0
3225,66.0,0.0,360.0,8.0,0.0
3226,66.0,0.0,360.0,7.0,0.0
3227,42.0,30.0,90.0,12.0,0.0
3228,54.0,0.0,90.0,11.0,0.0
3229,54.0,0.0,90.0,3.0,0.0
3230,66.0,0.0,90.0,10.0,0.0
3231,53.0,210.0,90.0,11.0,0.0
3232,53.0,0.0,90.0,3.0,0.0
3233,65.0,0.0,90.0,10.0,0.0
3234,41.0,0.0,90.0,12.0,0.0
3235,42.0,60.0,180.0,12.0,0.0
3236,54.0,0.0,180.0,11.0,0.0
3237,54.0,0.0,180.0,3.0,0.0
3238,66.0,0.0,180.0,10.0,0.0
3239,56.0,0.0,180.0,3.0,0.0
3240,68.0,0.0,180.0,10.0,0.0
3241,44.0,0.0,180.0,12.0,0.0
3242,56.0,240.0,180.0,11.0,0.0
3243,78.0,0.0,630.0,5.0,0.0
3244,58.0,150.0,180.0,3.0,0.0
3245,54.0,0.0,630.0,6.0,0.0
3246,73.0,90.0,360.0,7.0,0.0
3247,66.0,0.0,630.0,2.0,0.0
3248,70.0,0.0,630.0,2.0,0.0
3249,78.0,0.0,630.0,8.0,0.0
3250,70.0,0.0,180.0,10.0,0.0
3251,78.0,0.0,630.0,1.0,0.0
3252,82.0,0.0,630.0,1.0,0.0
3253,82.0,30.0,630.0,0.0,0.0
3254,82.0,0.0,630.0,7.0,0.0
3255,78.0,0.0,630.0,0.0,0.0
3256,66.0,0.0,630.0,4.0,0.0
3257,58.0,0.0,630.0,4.0,0.0
3258,46.0,0.0,180.0,12.0,0.0
3259,58.0,0.0,180.0,11.0,0.0
3260,70.0,0.0,630.0,5.0,0.0
3261,66.0,0.0,360.0,7.0,0.0
3262,46.0,0.0,90.0,12.0,0.0
3263,58.0,0.0,90.0,11.0,0.0
3264,70.0,30.0,90.0,10.0,0.0
3265,58.0,0.0,90.0,3.0,0.0
3266,56.0,0.0,90.0,3.0,0.0
3267,56.0,0.0,90.0,11.0,0.0
3268,68.0,0.0,90.0,10.0,0.0
3269,44.0,180.0,90.0,12.0,0.0
3270,70.0,210.0,180.0,10.0,0.0
3271,58.0,0.0,180.0,11.0,0.0
3272,58.0,0.0,180.0,3.0,0.0
3273,46.0,0.0,180.0,12.0,0.0
3274,48.0,180.0,180.0,12.0,0.0
3275,60.0,0.0,180.0,11.0,0.0
3276,60.0,0.0,180.0,3.0,0.0
3277,72.0,0.0,180.0,10.0,0.0
3278,54.0,0.0,30.0,6.0,0.0
3279,82.0,0.0,30.0,0.0,0.0
3280,78.0,0.0,30.0,8.0,0.0
3281,66.0,30.0,30.0,2.0,0.0
3282,70.0,0.0,30.0,2.0,0.0
3283,82.0,0.0,30.0,1.0,0.0
3284,78.0,0.0,30.0,1.0,0.0
3285,70.0,0.0,30.0,4.0,0.0
3286,78.0,0.0,30.0,0.0,0.0
3287,80.0,0.0,30.0,7.0,0.0
3288,78.0,0.0,30.0,5.0,0.0
3289,66.0,0.0,30.0,4.0,0.0
3290,82.0,0.0,30.0,5.0,0.0
3291,77.0,0.0,120.0,8.0,0.0
3292,80.0,0.0,120.0,7.0,0.0
3293,77.0,0.0,120.0,1.0,0.0
3294,80.0,0.0,120.0,1.0,0.0
3295,61.0,0.0,180.0,11.0,0.0
3296,49.0,150.0,180.0,12.0,0.0
3297,68.0,0.0,120.0,2.0,0.0
3298,65.0,0.0,120.0,2.0,0.0
3299,61.0,0.0,120.0,4.0,0.0
3300,73.0,0.0,180.0,10.0,0.0
3301,68.0,0.0,120.0,4.0,0.0
3302,49.0,0.0,120.0,6.0,0.0
3303,80.0,0.0,120.0,0.0,0.0
3304,73.0,60.0,120.0,5.0,0.0
3305,80.0,0.0,120.0,5.0,0.0
3306,77.0,0.0,120.0,0.0,0.0
3307,61.0,0.0,180.0,3.0,0.0
3308,61.0,120.0,90.0,11.0,0.0
3309,61.0,0.0,90.0,3.0,0.0
3310,49.0,0.0,90.0,12.0,0.0
3311,73.0,0.0,90.0,10.0,0.0
3312,48.0,0.0,90.0,12.0,0.0
3313,72.0,0.0,90.0,10.0,0.0
3314,60.0,150.0,90.0,3.0,0.0
3315,60.0,0.0,90.0,11.0,0.0
3316,61.0,240.0,180.0,11.0,0.0
3317,68.0,60.0,120.0,4.0,0.0
3318,77.0,0.0,120.0,1.0,0.0
3319,80.0,0.0,120.0,5.0,0.0
3320,73.0,0.0,120.0,5.0,0.0
3321,85.0,0.0,120.0,7.0,0.0
3322,85.0,0.0,120.0,1.0,0.0
3323,80.0,0.0,120.0,0.0,0.0
3324,85.0,0.0,120.0,0.0,0.0
3325,73.0,0.0,120.0,2.0,0.0
3326,65.0,0.0,120.0,2.0,0.0
3327,49.0,0.0,120.0,6.0,0.0
3328,49.0,0.0,180.0,12.0,0.0
3329,73.0,0.0,180.0,10.0,0.0
3330,61.0,0.0,120.0,4.0,0.0
3331,77.0,0.0,120.0,8.0,0.0
3332,80.0,0.0,120.0,8.0,0.0
3333,61.0,0.0,180.0,3.0,0.0
3334,63.0,240.0,180.0,11.0,0.0
3335,63.0,0.0,180.0,3.0,0.0
3336,51.0,0.0,180.0,12.0,0.0
3337,75.0,0.0,180.0,10.0,0.0
3338,65.0,240.0,180.0,3.0,0.0
3339,77.0,0.0,180.0,10.0,0.0
3340,53.0,0.0,180.0,12.0,0.0
3341,65.0,0.0,180.0,11.0,0.0
3342,61.0,0.0,180.0,11.0,0.0
3343,49.0,0.0,180.0,12.0,0.0
3344,73.0,240.0,180.0,10.0,0.0
3345,61.0,0.0,180.0,3.0,0.0
3346,51.0,0.0,180.0,12.0,0.0
3347,63.0,0.0,180.0,3.0,0.0
3348,75.0,240.0,180.0,10.0,0.0
3349,63.0,0.0,180.0,11.0,0.0
3350,65.0,0.0,180.0,3.0,0.0
3351,53.0,240.0,180.0,12.0,0.0
3352,77.0,0.0,180.0,10.0,0.0
3353,65.0,0.0,180.0,11.0,0.0
3354,66.0,0.0,720.0,4.0,0.0
3355,82.0,0.0,720.0,8.0,0.0
3356,54.0,180.0,720.0,6.0,0.0
3357,66.0,0.0,360.0,8.0,0.0
3358,70.0,0.0,720.0,2.0,0.0
3359,78.0,0.0,720.0,2.0,0.0
3360,78.0,0.0,720.0,1.0,0.0
3361,82.0,0.0,720.0,1.0,0.0
3362,90.0,0.0,720.0,0.0,0.0
3363,82.0,0.0,720.0,0.0,0.0
3364,66.0,0.0,180.0,11.0,0.0
3365,66.0,0.0,180.0,3.0,0.0
3366,73.0,0.0,360.0,8.0,0.0
3367,54.0,150.0,180.0,12.0,0.0
3368,58.0,0.0,720.0,4.0,0.0
3369,78.0,0.0,180.0,10.0,0.0
3370,70.0,0.0,720.0,5.0,0.0
3371,66.0,90.0,360.0,7.0,0.0
3372,78.0,0.0,720.0,5.0,0.0
3373,90.0,0.0,720.0,7.0,0.0
3374,82.0,0.0,360.0,7.0,0.0
3375,66.0,0.0,90.0,10.0,0.0
3376,54.0,0.0,90.0,11.0,0.0
3377,42.0,30.0,90.0,12.0,0.0
3378,54.0,0.0,90.0,3.0,0.0
3379,65.0,0.0,90.0,10.0,0.0
3380,53.0,0.0,90.0,3.0,0.0
3381,41.0,210.0,90.0,12.0,0.0
3382,53.0,0.0,90.0,11.0,0.0
3383,54.0,0.0,180.0,11.0,0.0
3384,54.0,60.0,180.0,3.0,0.0
3385,66.0,0.0,180.0,10.0,0.0
3386,42.0,0.0,180.0,12.0,0.0
3387,56.0,0.0,180.0,3.0,0.0
3388,56.0,240.0,180.0,11.0,0.0
3389,68.0,0.0,180.0,10.0,0.0
3390,44.0,0.0,180.0,12.0,0.0
3391,82.0,0.0,630.0,0.0,0.0
3392,78.0,0.0,630.0,0.0,0.0
3393,46.0,150.0,180.0,12.0,0.0
3394,82.0,0.0,630.0,1.0,0.0
3395,78.0,0.0,630.0,1.0,0.0
3396,66.0,30.0,630.0,4.0,0.0
3397,58.0,0.0,630.0,4.0,0.0
3398,82.0,0.0,630.0,7.0,0.0
3399,70.0,0.0,630.0,2.0,0.0
3400,66.0,0.0,630.0,2.0,0.0
3401,66.0,0.0,360.0,7.0,0.0
3402,70.0,0.0,630.0,5.0,0.0
3403,58.0,0.0,180.0,11.0,0.0
3404,78.0,0.0,630.0,5.0,0.0
3405,73.0,90.0,360.0,7.0,0.0
3406,54.0,0.0,630.0,6.0,0.0
3407,78.0,0.0,630.0,8.0,0.0
3408,70.0,0.0,180.0,10.0,0.0
3409,58.0,0.0,180.0,3.0,0.0
3410,58.0,0.0,90.0,3.0,0.0
3411,46.0,0.0,90.0,12.0,0.0
3412,70.0,0.0,90.0,10.0,0.0
3413,58.0,30.0,90.0,11.0,0.0
3414,56.0,0.0,90.0,3.0,0.0
3415,44.0,0.0,90.0,12.0,0.0
3416,68.0,180.0,90.0,10.0,0.0
3417,56.0,0.0,90.0,11.0,0.0
3418,46.0,0.0,180.0,12.0,0.0
3419,58.0,0.0,180.0,11.0,0.0
3420,58.0,0.0,180.0,3.0,0.0
3421,70.0,210.0,180.0,10.0,0.0
3422,60.0,0.0,180.0,3.0,0.0
3423,60.0,0.0,180.0,11.0,0.0
3424,72.0,0.0,180.0,10.0,0.0
3425,48.0,180.0,180.0,12.0,0.0
3426,82.0,0.0,30.0,7.0,0.0
3427,82.0,0.0,30.0,0.0,0.0
3428,82.0,0.0,30.0,5.0,0.0
3429,78.0,0.0,30.0,5.0,0.0
3430,78.0,0.0,30.0,8.0,0.0
3431,78.0,0.0,30.0,0.0,0.0
3432,82.0,0.0,30.0,1.0,0.0
3433,78.0,0.0,30.0,1.0,0.0
3434,54.0,30.0,30.0,6.0,0.0
3435,66.0,0.0,30.0,2.0,0.0
3436,66.0,0.0,30.0,4.0,0.0
3437,70.0,0.0,30.0,4.0,0.0
3438,70.0,0.0,30.0,2.0,0.0
3439,80.0,0.0,120.0,0.0,0.0
3440,80.0,0.0,120.0,7.0,0.0
3441,80.0,0.0,120.0,1.0,0.0
3442,77.0,0.0,120.0,0.0,0.0
3443,77.0,0.0,120.0,8.0,0.0
3444,49.0,0.0,120.0,6.0,0.0
3445,73.0,0.0,120.0,5.0,0.0
3446,80.0,0.0,120.0,5.0,0.0
3447,77.0,0.0,120.0,1.0,0.0
3448,61.0,150.0,180.0,3.0,0.0
3449,68.0,60.0,120.0,2.0,0.0
3450,49.0,0.0,180.0,12.0,0.0
3451,73.0,0.0,180.0,10.0,0.0
3452,68.0,0.0,120.0,4.0,0.0
3453,61.0,0.0,120.0,4.0,0.0
3454,65.0,0.0,120.0,2.0,0.0
3455,61.0,0.0,180.0,11.0,0.0
3456,49.0,0.0,90.0,12.0,0.0
3457,61.0,0.0,90.0,11.0,0.0
3458,73.0,0.0,90.0,10.0,0.0
3459,61.0,120.0,90.0,3.0,0.0
3460,60.0,0.0,90.0,3.0,0.0
3461,72.0,0.0,90.0,10.0,0.0
3462,48.0,150.0,90.0,12.0,0.0
3463,60.0,0.0,90.0,11.0,0.0
3464,77.0,0.0,120.0,8.0,0.0
3465,49.0,0.0,120.0,6.0,0.0
3466,65.0,0.0,120.0,2.0,0.0
3467,73.0,0.0,180.0,10.0,0.0
3468,77.0,0.0,120.0,1.0,0.0
3469,80.0,0.0,120.0,0.0,0.0
3470,85.0,60.0,120.0,1.0,0.0
3471,85.0,0.0,120.0,0.0,0.0
3472,73.0,0.0,120.0,2.0,0.0
3473,61.0,0.0,120.0,4.0,0.0
3474,68.0,0.0,120.0,4.0,0.0
3475,49.0,0.0,180.0,12.0,0.0
3476,80.0,60.0,360.0,5.0,0.0
3477,73.0,0.0,120.0,5.0,0.0
3478,61.0,0.0,180.0,3.0,0.0
3479,80.0,0.0,120.0,8.0,0.0
3480,85.0,0.0,120.0,7.0,0.0
3481,61.0,180.0,180.0,11.0,0.0
3482,63.0,0.0,180.0,3.0,0.0
3483,75.0,0.0,180.0,10.0,0.0
3484,51.0,240.0,180.0,12.0,0.0
3485,63.0,0.0,180.0,11.0,0.0
3486,65.0,240.0,180.0,3.0,0.0
3487,77.0,0.0,180.0,10.0,0.0
3488,77.0,120.0,1920.0,2.0,0.0
3489,68.0,0.0,720.0,2.0,0.0
3490,53.0,0.0,180.0,12.0,0.0
3491,65.0,0.0,180.0,11.0,0.0
3492,80.0,150.0,720.0,1.0,0.0
3493,89.0,0.0,1320.0,1.0,0.0
3494,75.0,240.0,180.0,10.0,0.0
3495,63.0,0.0,180.0,3.0,0.0
3496,51.0,0.0,180.0,12.0,0.0
3497,63.0,0.0,180.0,11.0,0.0
3498,49.0,0.0,180.0,12.0,0.0
3499,61.0,0.0,180.0,3.0,0.0
3500,73.0,0.0,180.0,10.0,0.0
3501,61.0,60.0,180.0,11.0,0.0
3502,48.0,0.0,180.0,12.0,0.0
3503,60.0,180.0,180.0,11.0,0.0
3504,60.0,0.0,180.0,3.0,0.0
3505,72.0,0.0,180.0,10.0,0.0
3506,89.0,30.0,30.0,0.0,0.0
3507,89.0,0.0,30.0,7.0,0.0
3508,89.0,0.0,30.0,8.0,0.0
3509,70.0,0.0,180.0,10.0,0.0
3510,78.0,0.0,120.0,7.0,0.0
3511,70.0,0.0,360.0,4.0,0.0
3512,66.0,90.0,360.0,4.0,0.0
3513,78.0,0.0,360.0,5.0,0.0
3514,78.0,60.0,120.0,0.0,0.0
3515,46.0,150.0,180.0,12.0,0.0
3516,58.0,0.0,180.0,11.0,0.0
3517,78.0,120.0,1440.0,1.0,0.0
3518,58.0,0.0,180.0,3.0,0.0
3519,78.0,0.0,120.0,8.0,0.0
3520,66.0,120.0,1920.0,2.0,0.0
3521,54.0,0.0,90.0,12.0,0.0
3522,66.0,30.0,90.0,11.0,0.0
3523,66.0,0.0,90.0,3.0,0.0
3524,78.0,0.0,90.0,10.0,0.0
3525,77.0,0.0,90.0,10.0,0.0
3526,65.0,150.0,90.0,3.0,0.0
3527,53.0,0.0,90.0,12.0,0.0
3528,65.0,0.0,90.0,11.0,0.0
3529,87.0,60.0,360.0,1.0,0.0
3530,63.0,180.0,180.0,11.0,0.0
3531,75.0,0.0,180.0,10.0,0.0
3532,84.0,60.0,120.0,7.0,0.0
3533,63.0,0.0,180.0,3.0,0.0
3534,51.0,0.0,180.0,12.0,0.0
3535,84.0,0.0,120.0,8.0,0.0
3536,84.0,0.0,120.0,0.0,0.0
3537,61.0,0.0,180.0,11.0,0.0
3538,73.0,60.0,180.0,10.0,0.0
3539,49.0,0.0,180.0,12.0,0.0
3540,61.0,0.0,180.0,3.0,0.0
3541,48.0,180.0,180.0,12.0,0.0
3542,87.0,0.0,120.0,8.0,0.0
3543,66.0,60.0,360.0,4.0,0.0
3544,87.0,0.0,1320.0,1.0,0.0
3545,87.0,0.0,120.0,7.0,0.0
3546,60.0,0.0,180.0,3.0,0.0
3547,68.0,0.0,360.0,4.0,0.0
3548,80.0,0.0,360.0,5.0,0.0
3549,72.0,0.0,180.0,10.0,0.0
3550,60.0,0.0,180.0,11.0,0.0
3551,87.0,60.0,120.0,0.0,0.0
3552,75.0,120.0,1920.0,2.0,0.0
3553,68.0,0.0,180.0,10.0,0.0
3554,56.0,0.0,180.0,3.0,0.0
3555,44.0,0.0,180.0,12.0,0.0
3556,56.0,60.0,180.0,11.0,0.0
3557,78.0,60.0,120.0,0.0,0.0
3558,70.0,0.0,180.0,10.0,0.0
3559,58.0,210.0,180.0,3.0,0.0
3560,46.0,0.0,180.0,12.0,0.0
3561,58.0,0.0,180.0,11.0,0.0
3562,72.0,0.0,180.0,10.0,0.0
3563,48.0,60.0,180.0,12.0,0.0
3564,60.0,0.0,180.0,11.0,0.0
3565,60.0,0.0,180.0,3.0,0.0
3566,78.0,0.0,30.0,8.0,0.0
3567,78.0,30.0,30.0,7.0,0.0
3568,61.0,0.0,360.0,4.0,0.0
3569,73.0,90.0,360.0,5.0,0.0
3570,61.0,150.0,180.0,11.0,0.0
3571,77.0,60.0,120.0,7.0,0.0
3572,77.0,180.0,1440.0,1.0,0.0
3573,77.0,0.0,120.0,8.0,0.0
3574,77.0,0.0,120.0,0.0,0.0
3575,73.0,0.0,180.0,10.0,0.0
3576,68.0,0.0,360.0,4.0,0.0
3577,61.0,0.0,180.0,3.0,0.0
3578,49.0,0.0,180.0,12.0,0.0
3579,65.0,120.0,1920.0,2.0,0.0
3580,53.0,0.0,90.0,12.0,0.0
3581,65.0,0.0,90.0,3.0,0.0
3582,77.0,30.0,90.0,10.0,0.0
3583,65.0,0.0,90.0,11.0,0.0
3584,63.0,0.0,90.0,3.0,0.0
3585,75.0,150.0,90.0,10.0,0.0
3586,63.0,0.0,90.0,11.0,0.0
3587,51.0,0.0,90.0,12.0,0.0
3588,85.0,60.0,360.0,1.0,0.0
3589,49.0,0.0,180.0,12.0,0.0
3590,80.0,0.0,120.0,7.0,0.0
3591,61.0,180.0,180.0,3.0,0.0
3592,80.0,60.0,120.0,0.0,0.0
3593,61.0,0.0,180.0,11.0,0.0
3594,80.0,0.0,120.0,8.0,0.0
3595,73.0,0.0,180.0,10.0,0.0
3596,72.0,0.0,180.0,10.0,0.0
3597,60.0,0.0,180.0,11.0,0.0
3598,48.0,0.0,180.0,12.0,0.0
3599,60.0,60.0,180.0,3.0,0.0
3600,70.0,0.0,360.0,4.0,0.0
3601,61.0,60.0,360.0,4.0,0.0
3602,70.0,180.0,180.0,10.0,0.0
3603,46.0,0.0,180.0,12.0,0.0
3604,85.0,0.0,120.0,8.0,0.0
3605,58.0,0.0,180.0,11.0,0.0
3606,73.0,0.0,360.0,5.0,0.0
3607,85.0,60.0,120.0,7.0,0.0
3608,85.0,0.0,120.0,0.0,0.0
3609,85.0,0.0,1920.0,1.0,0.0
3610,58.0,0.0,180.0,3.0,0.0
3611,73.0,120.0,1920.0,2.0,0.0
3612,56.0,0.0,180.0,3.0,0.0
3613,56.0,0.0,180.0,11.0,0.0
3614,68.0,0.0,180.0,10.0,0.0
3615,44.0,60.0,180.0,12.0,0.0
3616,66.0,0.0,180.0,10.0,0.0
3617,54.0,210.0,180.0,3.0,0.0
3618,54.0,0.0,180.0,11.0,0.0
3619,42.0,0.0,180.0,12.0,0.0
3620,53.0,60.0,180.0,3.0,0.0
3621,41.0,0.0,180.0,12.0,0.0
3622,53.0,0.0,180.0,11.0,0.0
3623,65.0,0.0,180.0,10.0,0.0
3624,77.0,30.0,30.0,7.0,0.0
3625,77.0,0.0,30.0,0.0,0.0
3626,77.0,0.0,30.0,8.0,0.0
3627,66.0,0.0,720.0,4.0,0.0
3628,66.0,0.0,180.0,10.0,0.0
3629,54.0,240.0,180.0,11.0,0.0
3630,75.0,0.0,1920.0,1.0,0.0
3631,75.0,0.0,120.0,0.0,0.0
3632,75.0,60.0,120.0,7.0,0.0
3633,75.0,0.0,120.0,8.0,0.0
3634,78.0,180.0,720.0,5.0,0.0
3635,70.0,0.0,720.0,4.0,0.0
3636,54.0,0.0,180.0,3.0,0.0
3637,42.0,0.0,180.0,12.0,0.0
3638,63.0,0.0,960.0,2.0,0.0
3639,54.0,0.0,180.0,3.0,0.0
3640,54.0,180.0,180.0,11.0,0.0
3641,42.0,0.0,180.0,12.0,0.0
3642,66.0,0.0,180.0,10.0,0.0
3643,42.0,0.0,180.0,12.0,0.0
3644,85.0,0.0,120.0,8.0,0.0
3645,85.0,0.0,120.0,0.0,0.0
3646,66.0,60.0,180.0,10.0,0.0
3647,54.0,0.0,180.0,11.0,0.0
3648,54.0,0.0,180.0,3.0,0.0
3649,85.0,60.0,120.0,7.0,0.0
3650,54.0,60.0,180.0,3.0,0.0
3651,66.0,0.0,180.0,10.0,0.0
3652,54.0,0.0,180.0,11.0,0.0
3653,42.0,0.0,180.0,12.0,0.0
3654,68.0,60.0,120.0,0.0,0.0
3655,68.0,0.0,180.0,10.0,0.0
3656,84.0,0.0,960.0,1.0,0.0
3657,56.0,240.0,180.0,11.0,0.0
3658,68.0,180.0,720.0,4.0,0.0
3659,72.0,90.0,960.0,2.0,0.0
3660,66.0,0.0,960.0,2.0,0.0
3661,56.0,0.0,180.0,3.0,0.0
3662,44.0,0.0,180.0,12.0,0.0
3663,68.0,0.0,120.0,8.0,0.0
3664,68.0,0.0,120.0,7.0,0.0
3665,80.0,0.0,720.0,5.0,0.0
3666,56.0,0.0,180.0,11.0,0.0
3667,68.0,0.0,180.0,10.0,0.0
3668,44.0,180.0,180.0,12.0,0.0
3669,56.0,0.0,180.0,3.0,0.0
3670,68.0,60.0,180.0,10.0,0.0
3671,84.0,60.0,120.0,7.0,0.0
3672,56.0,0.0,180.0,11.0,0.0
3673,56.0,0.0,180.0,3.0,0.0
3674,44.0,0.0,180.0,12.0,0.0
3675,84.0,0.0,120.0,0.0,0.0
3676,84.0,0.0,120.0,8.0,0.0
3677,56.0,0.0,180.0,3.0,0.0
3678,56.0,60.0,180.0,11.0,0.0
3679,44.0,0.0,180.0,12.0,0.0
3680,68.0,0.0,180.0,10.0,0.0
3681,85.0,0.0,360.0,0.0,0.0
3682,49.0,0.0,360.0,6.0,0.0
3683,49.0,0.0,360.0,3.0,0.0
3684,77.0,0.0,360.0,1.0,0.0
3685,85.0,0.0,360.0,1.0,0.0
3686,61.0,0.0,360.0,4.0,0.0
3687,73.0,0.0,360.0,5.0,0.0
3688,61.0,90.0,360.0,10.0,0.0
3689,68.0,0.0,360.0,4.0,0.0
3690,85.0,120.0,90.0,7.0,0.0
3691,37.0,0.0,360.0,12.0,0.0
3692,73.0,0.0,360.0,2.0,0.0
3693,65.0,0.0,360.0,2.0,0.0
3694,85.0,0.0,360.0,8.0,0.0
3695,49.0,0.0,360.0,11.0,0.0
3696,73.0,120.0,90.0,7.0,0.0
3697,73.0,30.0,90.0,7.0,0.0
3698,73.0,120.0,90.0,7.0,0.0
3699,61.0,0.0,90.0,8.0,0.0
3700,73.0,120.0,90.0,7.0,0.0
3701,73.0,120.0,90.0,7.0,0.0
3702,61.0,0.0,90.0,8.0,0.0
3703,73.0,0.0,90.0,7.0,0.0
3704,61.0,120.0,90.0,8.0,0.0
3705,73.0,0.0,90.0,7.0,0.0
3706,61.0,120.0,90.0,8.0,0.0
3707,61.0,0.0,90.0,8.0,0.0
3708,73.0,120.0,90.0,7.0,0.0
3709,73.0,0.0,90.0,7.0,0.0
3710,61.0,120.0,90.0,8.0,0.0
3711,73.0,120.0,90.0,7.0,0.0
3712,61.0,0.0,90.0,8.0,0.0
3713,61.0,0.0,90.0,8.0,0.0
3714,73.0,120.0,90.0,7.0,0.0
3715,61.0,0.0,90.0,8.0,0.0
3716,73.0,120.0,90.0,7.0,0.0
3717,73.0,120.0,90.0,7.0,0.0
3718,61.0,0.0,90.0,8.0,0.0
3719,61.0,120.0,90.0,8.0,0.0
3720,73.0,0.0,90.0,7.0,0.0
3721,73.0,0.0,90.0,7.0,0.0
3722,61.0,120.0,90.0,8.0,0.0
3723,42.0,0.0,960.0,3.0,0.0
3724,90.0,0.0,960.0,1.0,0.0
3725,73.0,0.0,6120.0,0.0,0.0
3726,69.0,0.0,1920.0,2.0,0.0
3727,85.0,0.0,6120.0,0.0,0.0
3728,54.0,90.0,360.0,6.0,0.0
3729,61.0,120.0,90.0,8.0,0.0
3730,66.0,0.0,1920.0,2.0,0.0
3731,73.0,120.0,7200.0,4.0,0.0
3732,78.0,90.0,1440.0,5.0,0.0
3733,66.0,0.0,1440.0,5.0,0.0
3734,73.0,0.0,90.0,7.0,0.0
3735,61.0,0.0,7200.0,4.0,0.0
3736,54.0,90.0,960.0,3.0,0.0
3737,73.0,0.0,90.0,7.0,0.0
3738,61.0,120.0,90.0,8.0,0.0
3739,73.0,0.0,90.0,7.0,0.0
3740,61.0,30.0,90.0,8.0,0.0
3741,61.0,120.0,90.0,8.0,0.0
3742,73.0,0.0,90.0,7.0,0.0
3743,73.0,120.0,90.0,7.0,0.0
3744,61.0,0.0,90.0,8.0,0.0
3745,73.0,0.0,90.0,7.0,0.0
3746,61.0,120.0,90.0,8.0,0.0
3747,73.0,120.0,90.0,7.0,0.0
3748,61.0,0.0,90.0,8.0,0.0
3749,61.0,30.0,90.0,8.0,0.0
3750,73.0,0.0,90.0,7.0,0.0
3751,81.0,0.0,15.0,1.0,0.0
3752,73.0,120.0,90.0,7.0,0.0
3753,57.0,0.0,960.0,3.0,0.0
3754,61.0,0.0,90.0,8.0,0.0
3755,78.0,120.0,960.0,1.0,0.0
3756,45.0,0.0,960.0,3.0,0.0
3757,61.0,120.0,90.0,8.0,0.0
3758,73.0,0.0,90.0,7.0,0.0
3759,73.0,0.0,90.0,7.0,0.0
3760,61.0,120.0,90.0,8.0,0.0
3761,73.0,0.0,90.0,7.0,0.0
3762,61.0,30.0,90.0,8.0,0.0
3763,73.0,120.0,90.0,7.0,0.0
3764,61.0,0.0,90.0,8.0,0.0
3765,61.0,120.0,90.0,8.0,0.0
3766,73.0,0.0,90.0,7.0,0.0
3767,73.0,0.0,90.0,7.0,0.0
3768,61.0,120.0,90.0,8.0,0.0
3769,61.0,30.0,90.0,8.0,0.0
3770,73.0,0.0,90.0,7.0,0.0
3771,73.0,0.0,360.0,5.0,0.0
3772,49.0,0.0,360.0,6.0,0.0
3773,68.0,0.0,480.0,2.0,0.0
3774,49.0,0.0,120.0,3.0,0.0
3775,61.0,0.0,120.0,3.0,0.0
3776,73.0,120.0,120.0,7.0,0.0
3777,65.0,0.0,480.0,2.0,0.0
3778,61.0,0.0,120.0,8.0,0.0
3779,61.0,0.0,360.0,5.0,0.0
3780,80.0,120.0,240.0,1.0,0.0
3781,77.0,0.0,240.0,1.0,0.0
3782,73.0,0.0,120.0,8.0,0.0
3783,85.0,0.0,120.0,7.0,0.0
3784,72.0,120.0,120.0,8.0,0.0
3785,85.0,0.0,240.0,1.0,0.0
3786,84.0,0.0,120.0,7.0,0.0
3787,80.0,0.0,240.0,1.0,0.0
3788,85.0,120.0,120.0,7.0,0.0
3789,73.0,0.0,120.0,8.0,0.0
3790,61.0,0.0,120.0,3.0,0.0
3791,49.0,0.0,360.0,6.0,0.0
3792,72.0,120.0,120.0,8.0,0.0
3793,49.0,0.0,120.0,3.0,0.0
3794,80.0,0.0,480.0,1.0,0.0
3795,77.0,0.0,480.0,1.0,0.0
3796,73.0,0.0,360.0,5.0,0.0
3797,61.0,120.0,360.0,5.0,0.0
3798,84.0,0.0,120.0,7.0,0.0
3799,84.0,120.0,120.0,7.0,0.0
3800,73.0,0.0,120.0,8.0,0.0
3801,72.0,0.0,120.0,8.0,0.0
3802,84.0,0.0,120.0,7.0,0.0
3803,73.0,120.0,120.0,8.0,0.0
3804,85.0,0.0,120.0,7.0,0.0
3805,72.0,0.0,120.0,8.0,0.0
3806,84.0,120.0,120.0,7.0,0.0
3807,73.0,120.0,120.0,8.0,0.0
3808,85.0,0.0,120.0,7.0,0.0
3809,84.0,0.0,120.0,7.0,0.0
3810,72.0,120.0,120.0,8.0,0.0
3811,85.0,120.0,120.0,7.0,0.0
3812,73.0,0.0,120.0,8.0,0.0
3813,72.0,120.0,120.0,8.0,0.0
3814,84.0,0.0,120.0,7.0,0.0
3815,73.0,120.0,120.0,8.0,0.0
3816,85.0,0.0,120.0,7.0,0.0
3817,72.0,120.0,120.0,8.0,0.0
3818,84.0,0.0,120.0,7.0,0.0
3819,85.0,0.0,120.0,7.0,0.0
3820,73.0,90.0,120.0,8.0,0.0
3821,73.0,120.0,90.0,7.0,0.0
3822,66.0,0.0,1920.0,2.0,0.0
3823,90.0,0.0,960.0,1.0,0.0
3824,42.0,90.0,960.0,3.0,0.0
3825,54.0,90.0,360.0,6.0,0.0
3826,61.0,0.0,90.0,8.0,0.0
3827,69.0,0.0,1920.0,2.0,0.0
3828,78.0,90.0,1440.0,5.0,0.0
3829,66.0,0.0,1440.0,5.0,0.0
3830,61.0,120.0,90.0,8.0,0.0
3831,73.0,0.0,90.0,7.0,0.0
3832,61.0,30.0,90.0,8.0,0.0
3833,73.0,0.0,90.0,7.0,0.0
3834,73.0,120.0,90.0,7.0,0.0
3835,61.0,0.0,90.0,8.0,0.0
3836,73.0,120.0,90.0,7.0,0.0
3837,61.0,0.0,90.0,8.0,0.0
3838,61.0,0.0,90.0,8.0,0.0
3839,73.0,120.0,90.0,7.0,0.0
3840,61.0,0.0,90.0,8.0,0.0
3841,73.0,120.0,90.0,7.0,0.0
3842,61.0,0.0,90.0,8.0,0.0
3843,73.0,30.0,90.0,7.0,0.0
3844,61.0,0.0,90.0,8.0,0.0
3845,81.0,0.0,15.0,1.0,0.0
3846,78.0,120.0,960.0,1.0,0.0
3847,73.0,120.0,90.0,7.0,0.0
3848,45.0,90.0,720.0,3.0,0.0
3849,61.0,0.0,90.0,8.0,0.0
3850,73.0,120.0,90.0,7.0,0.0
3851,61.0,0.0,90.0,8.0,0.0
3852,73.0,120.0,90.0,7.0,0.0
3853,61.0,0.0,90.0,8.0,0.0
3854,73.0,30.0,90.0,7.0,0.0
3855,61.0,120.0,90.0,8.0,0.0
3856,73.0,0.0,90.0,7.0,0.0
3857,73.0,0.0,90.0,7.0,0.0
3858,61.0,30.0,90.0,8.0,0.0
3859,61.0,120.0,90.0,8.0,0.0
3860,73.0,0.0,90.0,7.0,0.0
3861,61.0,0.0,90.0,8.0,0.0
3862,73.0,30.0,90.0,7.0,0.0
3863,65.0,0.0,480.0,2.0,0.0
3864,77.0,0.0,240.0,1.0,0.0
3865,80.0,0.0,240.0,1.0,0.0
3866,68.0,0.0,480.0,2.0,0.0
3867,61.0,0.0,360.0,5.0,0.0
3868,49.0,0.0,120.0,3.0,0.0
3869,73.0,0.0,360.0,5.0,0.0
3870,49.0,0.0,360.0,6.0,0.0
3871,61.0,0.0,120.0,8.0,0.0
3872,61.0,0.0,120.0,3.0,0.0
3873,73.0,120.0,120.0,7.0,0.0
3874,85.0,120.0,120.0,7.0,0.0
3875,73.0,0.0,120.0,8.0,0.0
3876,85.0,0.0,240.0,1.0,0.0
3877,72.0,0.0,120.0,8.0,0.0
3878,84.0,120.0,120.0,7.0,0.0
3879,73.0,0.0,120.0,8.0,0.0
3880,85.0,0.0,120.0,7.0,0.0
3881,77.0,0.0,480.0,1.0,0.0
3882,49.0,120.0,360.0,6.0,0.0
3883,72.0,120.0,120.0,8.0,0.0
3884,61.0,0.0,120.0,3.0,0.0
3885,80.0,120.0,15.0,1.0,0.0
3886,73.0,0.0,360.0,5.0,0.0
3887,61.0,0.0,360.0,5.0,0.0
3888,49.0,0.0,120.0,3.0,0.0
3889,84.0,0.0,120.0,7.0,0.0
3890,85.0,0.0,120.0,7.0,0.0
3891,73.0,120.0,120.0,8.0,0.0
3892,84.0,0.0,120.0,7.0,0.0
3893,72.0,0.0,120.0,8.0,0.0
3894,85.0,0.0,120.0,7.0,0.0
3895,73.0,0.0,120.0,8.0,0.0
3896,72.0,0.0,120.0,8.0,0.0
3897,84.0,120.0,120.0,7.0,0.0
3898,73.0,0.0,120.0,8.0,0.0
3899,85.0,120.0,120.0,7.0,0.0
3900,72.0,0.0,120.0,8.0,0.0
3901,84.0,120.0,120.0,7.0,0.0
3902,73.0,0.0,120.0,8.0,0.0
3903,85.0,0.0,120.0,7.0,0.0
3904,84.0,120.0,120.0,7.0,0.0
3905,88.0,0.0,960.0,1.0,0.0
3906,80.0,0.0,960.0,1.0,0.0
3907,68.0,480.0,960.0,3.0,0.0
3908,64.0,0.0,960.0,3.0,0.0
3909,72.0,0.0,120.0,8.0,0.0
3910,73.0,0.0,120.0,8.0,0.0
3911,85.0,120.0,120.0,7.0,0.0
3912,72.0,120.0,120.0,8.0,0.0
3913,84.0,0.0,120.0,7.0,0.0
3914,85.0,0.0,120.0,7.0,0.0
3915,73.0,180.0,120.0,8.0,0.0
3916,75.0,0.0,180.0,8.0,0.0
3917,75.0,0.0,180.0,7.0,0.0
3918,75.0,0.0,180.0,10.0,0.0
3919,63.0,0.0,180.0,11.0,0.0
3920,51.0,300.0,180.0,12.0,0.0
3921,67.0,0.0,480.0,3.0,0.0
3922,87.0,180.0,480.0,1.0,0.0
3923,79.0,0.0,480.0,1.0,0.0
3924,63.0,0.0,480.0,3.0,0.0
3925,72.0,0.0,180.0,10.0,0.0
3926,60.0,960.0,180.0,11.0,0.0
3927,72.0,0.0,180.0,8.0,0.0
3928,72.0,0.0,180.0,7.0,0.0
3929,48.0,0.0,180.0,12.0,0.0
3930,63.0,0.0,960.0,3.0,0.0
3931,66.0,0.0,960.0,3.0,0.0
3932,78.0,480.0,960.0,1.0,0.0
3933,87.0,0.0,960.0,1.0,0.0
3934,61.0,0.0,180.0,11.0,0.0
3935,73.0,0.0,180.0,10.0,0.0
3936,49.0,300.0,180.0,12.0,0.0
3937,73.0,0.0,180.0,8.0,0.0
3938,73.0,0.0,180.0,7.0,0.0
3939,64.0,0.0,480.0,3.0,0.0
3940,85.0,0.0,480.0,1.0,0.0
3941,76.0,0.0,480.0,1.0,0.0
3942,61.0,180.0,480.0,3.0,0.0
3943,45.0,0.0,180.0,12.0,0.0
3944,57.0,0.0,180.0,11.0,0.0
3945,69.0,540.0,180.0,10.0,0.0
3946,69.0,0.0,180.0,8.0,0.0
3947,69.0,0.0,180.0,7.0,0.0
3948,76.0,0.0,240.0,1.0,0.0
3949,61.0,0.0,240.0,3.0,0.0
3950,64.0,0.0,240.0,3.0,0.0
3951,85.0,420.0,240.0,1.0,0.0
3952,66.0,0.0,180.0,7.0,0.0
3953,66.0,0.0,180.0,10.0,0.0
3954,66.0,0.0,180.0,8.0,0.0
3955,54.0,0.0,180.0,11.0,0.0
3956,42.0,540.0,180.0,12.0,0.0
3957,63.0,0.0,240.0,3.0,0.0
3958,81.0,0.0,240.0,1.0,0.0
3959,73.0,0.0,240.0,1.0,0.0
3960,66.0,420.0,240.0,3.0,0.0
3961,68.0,0.0,180.0,10.0,0.0
3962,56.0,0.0,180.0,11.0,0.0
3963,68.0,540.0,180.0,8.0,0.0
3964,68.0,0.0,180.0,7.0,0.0
3965,44.0,0.0,180.0,12.0,0.0
3966,66.0,0.0,240.0,3.0,0.0
3967,75.0,0.0,240.0,1.0,0.0
3968,72.0,300.0,240.0,1.0,0.0
3969,63.0,0.0,240.0,3.0,0.0
3970,49.0,0.0,1500.0,3.0,0.0
3971,37.0,0.0,1500.0,12.0,0.0
3972,49.0,60.0,60.0,6.0,0.0
3973,73.0,0.0,1500.0,1.0,0.0
3974,61.0,0.0,1500.0,8.0,0.0
3975,73.0,0.0,1500.0,0.0,0.0
3976,49.0,330.0,1500.0,11.0,0.0
3977,61.0,0.0,1320.0,5.0,0.0
3978,61.0,0.0,1500.0,2.0,0.0
3979,61.0,0.0,1500.0,7.0,0.0
3980,49.0,0.0,1320.0,4.0,0.0
3981,61.0,0.0,1500.0,10.0,0.0
3982,73.0,0.0,1320.0,5.0,0.0
3983,61.0,0.0,1320.0,4.0,0.0
3984,51.0,60.0,60.0,6.0,0.0
3985,49.0,60.0,60.0,6.0,0.0
3986,51.0,60.0,60.0,6.0,0.0
3987,49.0,60.0,60.0,6.0,0.0
3988,51.0,60.0,60.0,6.0,0.0
3989,49.0,60.0,60.0,6.0,0.0
3990,51.0,60.0,60.0,6.0,0.0
3991,49.0,60.0,60.0,6.0,0.0
3992,51.0,60.0,60.0,6.0,0.0
3993,49.0,60.0,60.0,6.0,0.0
3994,51.0,60.0,60.0,6.0,0.0
3995,49.0,60.0,60.0,6.0,0.0
3996,51.0,120.0,60.0,6.0,0.0
3997,49.0,180.0,480.0,6.0,0.0
3998,51.0,360.0,60.0,6.0,0.0
3999,62.0,0.0,30.0,8.0,0.0
4000,62.0,0.0,30.0,10.0,0.0
4001,74.0,0.0,30.0,0.0,0.0
4002,74.0,0.0,30.0,1.0,0.0
4003,50.0,0.0,30.0,11.0,0.0
4004,62.0,0.0,30.0,7.0,0.0
4005,62.0,210.0,30.0,2.0,0.0
4006,38.0,0.0,30.0,12.0,0.0
4007,50.0,0.0,30.0,3.0,0.0
4008,75.0,0.0,120.0,0.0,0.0
4009,63.0,0.0,120.0,7.0,0.0
4010,63.0,120.0,1320.0,2.0,0.0
4011,51.0,0.0,120.0,3.0,0.0
4012,75.0,0.0,1320.0,1.0,0.0
4013,63.0,0.0,120.0,8.0,0.0
4014,62.0,120.0,120.0,10.0,0.0
4015,39.0,0.0,120.0,12.0,0.0
4016,51.0,0.0,120.0,11.0,0.0
4017,62.0,0.0,120.0,8.0,0.0
4018,38.0,120.0,120.0,12.0,0.0
4019,62.0,0.0,120.0,7.0,0.0
4020,50.0,0.0,120.0,11.0,0.0
4021,50.0,0.0,120.0,3.0,0.0
4022,74.0,0.0,120.0,0.0,0.0
4023,75.0,0.0,120.0,0.0,0.0
4024,62.0,0.0,15.0,10.0,0.0
4025,63.0,120.0,120.0,7.0,0.0
4026,51.0,0.0,120.0,3.0,0.0
4027,39.0,0.0,120.0,12.0,0.0
4028,51.0,0.0,120.0,11.0,0.0
4029,63.0,0.0,120.0,8.0,0.0
4030,62.0,0.0,120.0,8.0,0.0
4031,50.0,0.0,120.0,3.0,0.0
4032,74.0,0.0,120.0,0.0,0.0
4033,38.0,0.0,120.0,12.0,0.0
4034,62.0,0.0,120.0,7.0,0.0
4035,50.0,0.0,120.0,11.0,0.0
4036,51.0,0.0,120.0,11.0,0.0
4037,39.0,120.0,120.0,12.0,0.0
4038,63.0,0.0,120.0,8.0,0.0
4039,63.0,0.0,120.0,7.0,0.0
4040,75.0,0.0,120.0,0.0,0.0
4041,62.0,120.0,15.0,10.0,0.0
4042,51.0,0.0,120.0,3.0,0.0
4043,62.0,120.0,120.0,8.0,0.0
4044,62.0,0.0,120.0,10.0,0.0
4045,62.0,0.0,120.0,7.0,0.0
4046,50.0,0.0,120.0,11.0,0.0
4047,74.0,0.0,120.0,0.0,0.0
4048,50.0,0.0,120.0,3.0,0.0
4049,38.0,0.0,120.0,12.0,0.0
4050,63.0,0.0,120.0,7.0,0.0
4051,39.0,120.0,120.0,12.0,0.0
4052,51.0,0.0,120.0,11.0,0.0
4053,62.0,0.0,120.0,10.0,0.0
4054,75.0,0.0,120.0,0.0,0.0
4055,51.0,0.0,120.0,3.0,0.0
4056,63.0,0.0,120.0,8.0,0.0
4057,74.0,0.0,120.0,0.0,0.0
4058,62.0,0.0,120.0,7.0,0.0
4059,50.0,0.0,120.0,3.0,0.0
4060,62.0,0.0,120.0,8.0,0.0
4061,50.0,0.0,120.0,11.0,0.0
4062,38.0,0.0,120.0,12.0,0.0
4063,63.0,0.0,480.0,7.0,0.0
4064,51.0,0.0,480.0,11.0,0.0
4065,63.0,0.0,480.0,8.0,0.0
4066,75.0,0.0,480.0,0.0,0.0
4067,51.0,0.0,480.0,3.0,0.0
4068,62.0,360.0,15.0,10.0,0.0
4069,39.0,0.0,480.0,12.0,0.0
4070,51.0,0.0,30.0,3.0,0.0
4071,76.0,0.0,30.0,0.0,0.0
4072,76.0,0.0,30.0,1.0,0.0
4073,52.0,210.0,30.0,11.0,0.0
4074,40.0,0.0,30.0,12.0,0.0
4075,64.0,0.0,30.0,2.0,0.0
4076,64.0,0.0,30.0,8.0,0.0
4077,64.0,0.0,30.0,7.0,0.0
4078,64.0,0.0,30.0,10.0,0.0
4079,77.0,120.0,1320.0,1.0,0.0
4080,64.0,0.0,120.0,10.0,0.0
4081,53.0,0.0,120.0,3.0,0.0
4082,53.0,0.0,120.0,11.0,0.0
4083,41.0,0.0,120.0,12.0,0.0
4084,65.0,0.0,1320.0,2.0,0.0
4085,77.0,0.0,120.0,0.0,0.0
4086,65.0,0.0,120.0,8.0,0.0
4087,65.0,120.0,120.0,7.0,0.0
4088,64.0,0.0,120.0,8.0,0.0
4089,52.0,0.0,120.0,3.0,0.0
4090,64.0,0.0,120.0,10.0,0.0
4091,40.0,120.0,120.0,12.0,0.0
4092,52.0,0.0,120.0,11.0,0.0
4093,76.0,0.0,120.0,0.0,0.0
4094,64.0,0.0,120.0,7.0,0.0
4095,77.0,120.0,120.0,0.0,0.0
4096,53.0,0.0,120.0,3.0,0.0
4097,53.0,0.0,120.0,11.0,0.0
4098,65.0,0.0,120.0,7.0,0.0
4099,41.0,0.0,120.0,12.0,0.0
4100,65.0,0.0,120.0,8.0,0.0
4101,64.0,0.0,15.0,10.0,0.0
4102,64.0,0.0,120.0,8.0,0.0
4103,52.0,0.0,120.0,3.0,0.0
4104,64.0,0.0,120.0,7.0,0.0
4105,76.0,0.0,120.0,0.0,0.0
4106,52.0,0.0,120.0,11.0,0.0
4107,40.0,0.0,120.0,12.0,0.0
4108,65.0,0.0,120.0,8.0,0.0
4109,64.0,120.0,15.0,10.0,0.0
4110,41.0,0.0,120.0,12.0,0.0
4111,65.0,0.0,120.0,7.0,0.0
4112,53.0,0.0,120.0,11.0,0.0
4113,53.0,120.0,120.0,3.0,0.0
4114,77.0,0.0,120.0,0.0,0.0
4115,76.0,0.0,120.0,0.0,0.0
4116,40.0,120.0,120.0,12.0,0.0
4117,64.0,0.0,15.0,10.0,0.0
4118,64.0,0.0,120.0,8.0,0.0
4119,52.0,0.0,120.0,11.0,0.0
4120,64.0,0.0,120.0,7.0,0.0
4121,52.0,0.0,120.0,3.0,0.0
4122,65.0,120.0,120.0,7.0,0.0
4123,53.0,0.0,120.0,3.0,0.0
4124,53.0,0.0,120.0,11.0,0.0
4125,65.0,0.0,120.0,8.0,0.0
4126,77.0,0.0,120.0,0.0,0.0
4127,41.0,0.0,120.0,12.0,0.0
4128,64.0,0.0,15.0,10.0,0.0
4129,52.0,0.0,120.0,3.0,0.0
4130,76.0,0.0,120.0,0.0,0.0
4131,40.0,360.0,120.0,12.0,0.0
4132,64.0,0.0,120.0,8.0,0.0
4133,52.0,0.0,120.0,11.0,0.0
4134,64.0,0.0,120.0,7.0,0.0
4135,65.0,390.0,480.0,8.0,0.0
4136,64.0,0.0,15.0,10.0,0.0
4137,53.0,0.0,480.0,3.0,0.0
4138,65.0,0.0,480.0,7.0,0.0
4139,41.0,0.0,480.0,12.0,0.0
4140,77.0,0.0,480.0,0.0,0.0
4141,53.0,0.0,480.0,11.0,0.0
4142,65.0,0.0,30.0,8.0,0.0
4143,53.0,210.0,30.0,3.0,0.0
4144,53.0,0.0,30.0,11.0,0.0
4145,41.0,0.0,30.0,12.0,0.0
4146,77.0,0.0,30.0,0.0,0.0
4147,65.0,0.0,30.0,7.0,0.0
4148,64.0,0.0,30.0,10.0,0.0
4149,65.0,0.0,30.0,2.0,0.0
4150,54.0,0.0,840.0,11.0,0.0
4151,54.0,30.0,840.0,3.0,0.0
4152,66.0,120.0,120.0,8.0,0.0
4153,42.0,0.0,840.0,12.0,0.0
4154,66.0,0.0,120.0,7.0,0.0
4155,78.0,0.0,840.0,0.0,0.0
4156,66.0,0.0,840.0,1.0,0.0
4157,66.0,0.0,840.0,2.0,0.0
4158,66.0,0.0,840.0,10.0,0.0
4159,65.0,0.0,120.0,7.0,0.0
4160,65.0,120.0,120.0,8.0,0.0
4161,66.0,120.0,120.0,7.0,0.0
4162,66.0,0.0,120.0,8.0,0.0
4163,65.0,0.0,120.0,8.0,0.0
4164,65.0,240.0,120.0,7.0,0.0
4165,66.0,0.0,240.0,7.0,0.0
4166,66.0,120.0,240.0,8.0,0.0
4167,67.0,0.0,30.0,8.0,0.0
4168,67.0,90.0,30.0,7.0,0.0
4169,55.0,0.0,120.0,3.0,0.0
4170,67.0,0.0,120.0,1.0,0.0
4171,79.0,0.0,120.0,0.0,0.0
4172,55.0,120.0,120.0,11.0,0.0
4173,67.0,0.0,120.0,10.0,0.0
4174,43.0,0.0,120.0,12.0,0.0
4175,67.0,0.0,120.0,2.0,0.0
4176,56.0,30.0,840.0,3.0,0.0
4177,68.0,0.0,840.0,2.0,0.0
4178,68.0,0.0,840.0,1.0,0.0
4179,68.0,120.0,120.0,8.0,0.0
4180,68.0,0.0,120.0,7.0,0.0
4181,44.0,0.0,840.0,12.0,0.0
4182,68.0,0.0,840.0,10.0,0.0
4183,80.0,0.0,840.0,0.0,0.0
4184,56.0,0.0,840.0,11.0,0.0
4185,67.0,0.0,120.0,8.0,0.0
4186,67.0,120.0,120.0,7.0,0.0
4187,68.0,0.0,120.0,8.0,0.0
4188,68.0,120.0,120.0,7.0,0.0
4189,67.0,240.0,120.0,8.0,0.0
4190,67.0,0.0,120.0,7.0,0.0
4191,68.0,0.0,240.0,8.0,0.0
4192,68.0,120.0,240.0,7.0,0.0
4193,69.0,0.0,120.0,2.0,0.0
4194,69.0,0.0,30.0,8.0,0.0
4195,45.0,120.0,120.0,12.0,0.0
4196,57.0,0.0,120.0,11.0,0.0
4197,69.0,60.0,30.0,7.0,0.0
4198,81.0,0.0,90.0,0.0,0.0
4199,69.0,0.0,120.0,1.0,0.0
4200,57.0,30.0,90.0,3.0,0.0
4201,69.0,0.0,120.0,10.0,0.0
4202,70.0,0.0,120.0,7.0,0.0
4203,58.0,0.0,840.0,11.0,0.0
4204,58.0,30.0,840.0,3.0,0.0
4205,70.0,0.0,840.0,2.0,0.0
4206,70.0,0.0,840.0,10.0,0.0
4207,70.0,120.0,120.0,8.0,0.0
4208,46.0,0.0,840.0,12.0,0.0
4209,82.0,0.0,840.0,0.0,0.0
4210,70.0,0.0,840.0,1.0,0.0
4211,69.0,120.0,120.0,7.0,0.0
4212,69.0,0.0,120.0,8.0,0.0
4213,70.0,120.0,120.0,7.0,0.0
4214,70.0,0.0,120.0,8.0,0.0
4215,69.0,0.0,120.0,7.0,0.0
4216,69.0,240.0,120.0,8.0,0.0
4217,70.0,0.0,240.0,7.0,0.0
4218,70.0,120.0,240.0,8.0,0.0
4219,72.0,0.0,120.0,2.0,0.0
4220,72.0,90.0,30.0,7.0,0.0
4221,59.0,0.0,120.0,3.0,0.0
4222,48.0,0.0,120.0,12.0,0.0
4223,60.0,0.0,120.0,11.0,0.0
4224,72.0,0.0,30.0,8.0,0.0
4225,72.0,120.0,120.0,1.0,0.0
4226,84.0,0.0,120.0,0.0,0.0
4227,72.0,0.0,120.0,10.0,0.0
4228,73.0,120.0,120.0,8.0,0.0
4229,85.0,0.0,840.0,0.0,0.0
4230,73.0,30.0,840.0,2.0,0.0
4231,61.0,0.0,840.0,3.0,0.0
4232,73.0,0.0,840.0,10.0,0.0
4233,73.0,0.0,840.0,1.0,0.0
4234,49.0,0.0,840.0,12.0,0.0
4235,73.0,0.0,120.0,7.0,0.0
4236,61.0,0.0,840.0,11.0,0.0
4237,72.0,120.0,120.0,7.0,0.0
4238,72.0,0.0,120.0,8.0,0.0
4239,73.0,120.0,120.0,8.0,0.0
4240,73.0,0.0,120.0,7.0,0.0
4241,72.0,0.0,120.0,7.0,0.0
4242,72.0,240.0,120.0,8.0,0.0
4243,73.0,0.0,240.0,7.0,0.0
4244,73.0,120.0,240.0,8.0,0.0
4245,75.0,0.0,120.0,1.0,0.0
4246,75.0,0.0,30.0,8.0,0.0
4247,87.0,120.0,120.0,0.0,0.0
4248,75.0,0.0,120.0,10.0,0.0
4249,63.0,0.0,120.0,11.0,0.0
4250,63.0,0.0,120.0,3.0,0.0
4251,51.0,0.0,120.0,12.0,0.0
4252,75.0,0.0,120.0,2.0,0.0
4253,75.0,90.0,30.0,7.0,0.0
4254,64.0,0.0,840.0,11.0,0.0
4255,76.0,0.0,840.0,10.0,0.0
4256,76.0,0.0,840.0,1.0,0.0
4257,76.0,0.0,120.0,8.0,0.0
4258,64.0,0.0,840.0,3.0,0.0
4259,52.0,0.0,840.0,12.0,0.0
4260,76.0,30.0,840.0,2.0,0.0
4261,88.0,0.0,840.0,0.0,0.0
4262,76.0,120.0,120.0,7.0,0.0
4263,75.0,0.0,120.0,8.0,0.0
4264,75.0,120.0,120.0,7.0,0.0
4265,76.0,0.0,120.0,7.0,0.0
4266,76.0,120.0,120.0,8.0,0.0
4267,75.0,0.0,120.0,7.0,0.0
4268,75.0,240.0,120.0,8.0,0.0
4269,76.0,0.0,240.0,7.0,0.0
4270,76.0,120.0,240.0,8.0,0.0
4271,89.0,0.0,120.0,0.0,0.0
4272,65.0,0.0,120.0,11.0,0.0
4273,77.0,120.0,120.0,1.0,0.0
4274,77.0,0.0,120.0,10.0,0.0
4275,65.0,0.0,120.0,3.0,0.0
4276,77.0,90.0,30.0,8.0,0.0
4277,53.0,0.0,120.0,12.0,0.0
4278,77.0,0.0,120.0,2.0,0.0
4279,77.0,0.0,30.0,7.0,0.0
4280,78.0,0.0,840.0,10.0,0.0
4281,78.0,0.0,120.0,7.0,0.0
4282,78.0,0.0,840.0,2.0,0.0
4283,66.0,0.0,840.0,11.0,0.0
4284,54.0,0.0,840.0,12.0,0.0
4285,78.0,120.0,120.0,8.0,0.0
4286,66.0,0.0,840.0,3.0,0.0
4287,90.0,30.0,840.0,0.0,0.0
4288,78.0,0.0,840.0,1.0,0.0
4289,77.0,120.0,120.0,8.0,0.0
4290,77.0,0.0,120.0,7.0,0.0
4291,78.0,120.0,120.0,7.0,0.0
4292,78.0,0.0,120.0,8.0,0.0
4293,77.0,0.0,120.0,8.0,0.0
4294,77.0,240.0,120.0,7.0,0.0
4295,78.0,120.0,240.0,8.0,0.0
4296,78.0,0.0,240.0,7.0,0.0
4297,79.0,0.0,120.0,1.0,0.0
4298,79.0,0.0,120.0,2.0,0.0
4299,79.0,0.0,30.0,8.0,0.0
4300,79.0,90.0,30.0,7.0,0.0
4301,55.0,90.0,120.0,12.0,0.0
4302,67.0,0.0,120.0,3.0,0.0
4303,67.0,0.0,120.0,11.0,0.0
4304,91.0,0.0,120.0,0.0,0.0
4305,79.0,0.0,120.0,10.0,0.0
4306,68.0,0.0,120.0,3.0,0.0
4307,80.0,0.0,90.0,8.0,0.0
4308,68.0,0.0,120.0,4.0,0.0
4309,80.0,0.0,720.0,5.0,0.0
4310,80.0,90.0,720.0,1.0,0.0
4311,68.0,90.0,120.0,11.0,0.0
4312,80.0,0.0,120.0,10.0,0.0
4313,80.0,0.0,720.0,2.0,0.0
4314,56.0,0.0,120.0,12.0,0.0
4315,80.0,30.0,90.0,7.0,0.0
4316,85.0,0.0,720.0,0.0,0.0
4317,80.0,120.0,90.0,8.0,0.0
4318,80.0,0.0,90.0,7.0,0.0
4319,80.0,0.0,90.0,7.0,0.0
4320,80.0,120.0,90.0,8.0,0.0
4321,80.0,120.0,90.0,7.0,0.0
4322,80.0,0.0,90.0,8.0,0.0
4323,80.0,0.0,90.0,8.0,0.0
4324,56.0,0.0,120.0,11.0,0.0
4325,68.0,0.0,120.0,10.0,0.0
4326,68.0,90.0,120.0,4.0,0.0
4327,44.0,0.0,120.0,12.0,0.0
4328,56.0,0.0,120.0,3.0,0.0
4329,80.0,30.0,90.0,7.0,0.0
4330,80.0,30.0,90.0,7.0,0.0
4331,80.0,0.0,90.0,8.0,0.0
4332,80.0,0.0,90.0,8.0,0.0
4333,80.0,120.0,90.0,7.0,0.0
4334,80.0,120.0,90.0,7.0,0.0
4335,80.0,0.0,90.0,8.0,0.0
4336,89.0,60.0,720.0,0.0,0.0
4337,73.0,0.0,90.0,8.0,0.0
4338,77.0,0.0,720.0,1.0,0.0
4339,85.0,0.0,720.0,0.0,0.0
4340,73.0,0.0,720.0,1.0,0.0
4341,77.0,120.0,90.0,7.0,0.0
4342,73.0,0.0,90.0,8.0,0.0
4343,77.0,90.0,90.0,7.0,0.0
4344,77.0,0.0,90.0,7.0,0.0
4345,70.0,30.0,60.0,10.0,0.0
4346,70.0,0.0,60.0,4.0,0.0
4347,73.0,120.0,90.0,8.0,0.0
4348,58.0,0.0,60.0,3.0,0.0
4349,58.0,0.0,60.0,11.0,0.0
4350,46.0,0.0,60.0,12.0,0.0
4351,77.0,90.0,90.0,7.0,0.0
4352,73.0,0.0,90.0,8.0,0.0
4353,68.0,30.0,60.0,4.0,0.0
4354,44.0,0.0,60.0,12.0,0.0
4355,56.0,0.0,60.0,3.0,0.0
4356,68.0,0.0,60.0,10.0,0.0
4357,77.0,120.0,90.0,7.0,0.0
4358,73.0,0.0,90.0,8.0,0.0
4359,56.0,0.0,60.0,11.0,0.0
4360,77.0,30.0,90.0,7.0,0.0
4361,73.0,0.0,90.0,8.0,0.0
4362,58.0,30.0,60.0,3.0,0.0
4363,70.0,0.0,60.0,4.0,0.0
4364,77.0,0.0,90.0,7.0,0.0
4365,46.0,0.0,60.0,12.0,0.0
4366,73.0,120.0,90.0,8.0,0.0
4367,70.0,0.0,60.0,10.0,0.0
4368,58.0,0.0,60.0,11.0,0.0
4369,77.0,0.0,90.0,7.0,0.0
4370,73.0,120.0,90.0,8.0,0.0
4371,54.0,0.0,120.0,11.0,0.0
4372,75.0,0.0,90.0,8.0,0.0
4373,66.0,0.0,120.0,10.0,0.0
4374,78.0,0.0,720.0,1.0,0.0
4375,75.0,0.0,720.0,1.0,0.0
4376,54.0,0.0,120.0,3.0,0.0
4377,66.0,90.0,120.0,4.0,0.0
4378,78.0,30.0,90.0,7.0,0.0
4379,42.0,0.0,120.0,12.0,0.0
4380,87.0,90.0,720.0,0.0,0.0
4381,90.0,0.0,720.0,0.0,0.0
4382,75.0,120.0,90.0,8.0,0.0
4383,78.0,0.0,90.0,7.0,0.0
4384,78.0,120.0,90.0,7.0,0.0
4385,75.0,0.0,90.0,8.0,0.0
4386,75.0,0.0,90.0,8.0,0.0
4387,78.0,120.0,90.0,7.0,0.0
4388,75.0,0.0,90.0,8.0,0.0
4389,51.0,0.0,120.0,3.0,0.0
4390,66.0,0.0,120.0,4.0,0.0
4391,63.0,0.0,120.0,10.0,0.0
4392,51.0,0.0,120.0,11.0,0.0
4393,39.0,90.0,120.0,12.0,0.0
4394,78.0,30.0,90.0,7.0,0.0
4395,75.0,30.0,90.0,8.0,0.0
4396,78.0,0.0,90.0,7.0,0.0
4397,78.0,120.0,90.0,7.0,0.0
4398,75.0,0.0,90.0,8.0,0.0
4399,78.0,120.0,90.0,7.0,0.0
4400,75.0,0.0,90.0,8.0,0.0
4401,44.0,0.0,180.0,12.0,0.0
4402,75.0,0.0,720.0,1.0,0.0
4403,72.0,0.0,720.0,1.0,0.0
4404,80.0,60.0,720.0,5.0,0.0
4405,68.0,0.0,180.0,4.0,0.0
4406,84.0,0.0,720.0,0.0,0.0
4407,56.0,0.0,180.0,11.0,0.0
4408,68.0,0.0,180.0,10.0,0.0
4409,75.0,0.0,90.0,7.0,0.0
4410,56.0,30.0,180.0,3.0,0.0
4411,72.0,90.0,90.0,8.0,0.0
4412,87.0,0.0,720.0,0.0,0.0
4413,72.0,120.0,90.0,8.0,0.0
4414,75.0,0.0,90.0,7.0,0.0
4415,72.0,0.0,90.0,8.0,0.0
4416,75.0,120.0,90.0,7.0,0.0
4417,75.0,120.0,90.0,7.0,0.0
4418,72.0,0.0,90.0,8.0,0.0
4419,72.0,0.0,90.0,8.0,0.0
4420,75.0,120.0,90.0,7.0,0.0
4421,75.0,30.0,90.0,7.0,0.0
4422,72.0,0.0,90.0,8.0,0.0
4423,68.0,30.0,60.0,4.0,0.0
4424,66.0,0.0,60.0,10.0,0.0
4425,54.0,0.0,60.0,11.0,0.0
4426,54.0,0.0,60.0,3.0,0.0
4427,42.0,0.0,60.0,12.0,0.0
4428,72.0,0.0,90.0,8.0,0.0
4429,75.0,120.0,90.0,7.0,0.0
4430,75.0,120.0,90.0,7.0,0.0
4431,72.0,0.0,90.0,8.0,0.0
4432,80.0,30.0,90.0,8.0,0.0
4433,89.0,0.0,90.0,7.0,0.0
4434,80.0,0.0,720.0,2.0,0.0
4435,77.0,0.0,720.0,2.0,0.0
4436,53.0,0.0,120.0,11.0,0.0
4437,80.0,90.0,720.0,1.0,0.0
4438,41.0,90.0,120.0,12.0,0.0
4439,73.0,0.0,720.0,1.0,0.0
4440,73.0,0.0,720.0,5.0,0.0
4441,65.0,0.0,120.0,10.0,0.0
4442,89.0,0.0,720.0,0.0,0.0
4443,53.0,0.0,120.0,3.0,0.0
4444,61.0,0.0,120.0,4.0,0.0
4445,68.0,0.0,120.0,4.0,0.0
4446,80.0,0.0,720.0,5.0,0.0
4447,92.0,0.0,720.0,0.0,0.0
4448,89.0,0.0,90.0,7.0,0.0
4449,80.0,120.0,90.0,8.0,0.0
4450,80.0,0.0,90.0,8.0,0.0
4451,89.0,120.0,90.0,7.0,0.0
4452,80.0,120.0,90.0,8.0,0.0
4453,89.0,0.0,90.0,7.0,0.0
4454,89.0,0.0,90.0,7.0,0.0
4455,61.0,90.0,360.0,10.0,0.0
4456,68.0,0.0,120.0,4.0,0.0
4457,61.0,0.0,120.0,4.0,0.0
4458,49.0,0.0,120.0,3.0,0.0
4459,37.0,90.0,120.0,12.0,0.0
4460,80.0,30.0,90.0,8.0,0.0
4461,49.0,0.0,120.0,11.0,0.0
4462,80.0,30.0,90.0,8.0,0.0
4463,89.0,0.0,90.0,7.0,0.0
4464,89.0,30.0,90.0,7.0,0.0
4465,80.0,0.0,90.0,8.0,0.0
4466,80.0,0.0,90.0,8.0,0.0
4467,89.0,120.0,90.0,7.0,0.0
4468,77.0,0.0,720.0,1.0,0.0
4469,86.0,120.0,90.0,7.0,0.0
4470,77.0,0.0,720.0,2.0,0.0
4471,74.0,60.0,720.0,2.0,0.0
4472,86.0,0.0,720.0,1.0,0.0
4473,86.0,0.0,720.0,0.0,0.0
4474,89.0,0.0,720.0,0.0,0.0
4475,77.0,0.0,90.0,8.0,0.0
4476,77.0,0.0,90.0,8.0,0.0
4477,86.0,90.0,90.0,7.0,0.0
4478,70.0,0.0,60.0,3.0,0.0
4479,70.0,30.0,60.0,11.0,0.0
4480,77.0,0.0,90.0,8.0,0.0
4481,70.0,0.0,60.0,4.0,0.0
4482,58.0,0.0,60.0,12.0,0.0
4483,70.0,0.0,60.0,10.0,0.0
4484,86.0,120.0,90.0,7.0,0.0
4485,86.0,90.0,90.0,7.0,0.0
4486,77.0,0.0,90.0,8.0,0.0
4487,68.0,0.0,60.0,3.0,0.0
4488,68.0,0.0,60.0,4.0,0.0
4489,68.0,30.0,60.0,11.0,0.0
4490,56.0,0.0,60.0,12.0,0.0
4491,77.0,0.0,90.0,8.0,0.0
4492,86.0,120.0,90.0,7.0,0.0
4493,68.0,0.0,60.0,10.0,0.0
4494,86.0,30.0,90.0,7.0,0.0
4495,77.0,0.0,90.0,8.0,0.0
4496,70.0,0.0,60.0,4.0,0.0
4497,77.0,0.0,90.0,8.0,0.0
4498,70.0,0.0,60.0,11.0,0.0
4499,86.0,120.0,90.0,7.0,0.0
4500,70.0,30.0,60.0,10.0,0.0
4501,58.0,0.0,60.0,12.0,0.0
4502,70.0,0.0,60.0,3.0,0.0
4503,86.0,0.0,90.0,7.0,0.0
4504,77.0,120.0,90.0,8.0,0.0
4505,78.0,30.0,90.0,8.0,0.0
4506,66.0,90.0,120.0,3.0,0.0
4507,66.0,0.0,120.0,11.0,0.0
4508,75.0,0.0,720.0,2.0,0.0
4509,66.0,0.0,120.0,10.0,0.0
4510,87.0,0.0,720.0,1.0,0.0
4511,78.0,90.0,720.0,1.0,0.0
4512,66.0,0.0,120.0,4.0,0.0
4513,54.0,0.0,120.0,12.0,0.0
4514,87.0,0.0,720.0,0.0,0.0
4515,90.0,0.0,720.0,0.0,0.0
4516,87.0,0.0,90.0,7.0,0.0
4517,78.0,0.0,720.0,2.0,0.0
4518,87.0,120.0,90.0,7.0,0.0
4519,78.0,0.0,90.0,8.0,0.0
4520,78.0,0.0,90.0,8.0,0.0
4521,87.0,120.0,90.0,7.0,0.0
4522,87.0,0.0,90.0,7.0,0.0
4523,78.0,120.0,90.0,8.0,0.0
4524,66.0,0.0,120.0,4.0,0.0
4525,63.0,0.0,120.0,11.0,0.0
4526,63.0,0.0,120.0,10.0,0.0
4527,87.0,30.0,90.0,7.0,0.0
4528,78.0,0.0,90.0,8.0,0.0
4529,51.0,0.0,120.0,12.0,0.0
4530,63.0,90.0,120.0,3.0,0.0
4531,78.0,0.0,90.0,8.0,0.0
4532,87.0,30.0,90.0,7.0,0.0
4533,78.0,0.0,90.0,8.0,0.0
4534,87.0,120.0,90.0,7.0,0.0
4535,78.0,0.0,90.0,8.0,0.0
4536,87.0,120.0,90.0,7.0,0.0
4537,87.0,0.0,720.0,0.0,0.0
4538,56.0,0.0,180.0,12.0,0.0
4539,68.0,0.0,180.0,4.0,0.0
4540,80.0,0.0,720.0,5.0,0.0
4541,84.0,0.0,720.0,0.0,0.0
4542,68.0,0.0,180.0,3.0,0.0
4543,75.0,60.0,720.0,1.0,0.0
4544,84.0,0.0,720.0,1.0,0.0
4545,84.0,90.0,90.0,7.0,0.0
4546,75.0,0.0,720.0,2.0,0.0
4547,72.0,0.0,720.0,2.0,0.0
4548,68.0,0.0,180.0,10.0,0.0
4549,75.0,0.0,90.0,8.0,0.0
4550,68.0,30.0,180.0,11.0,0.0
4551,75.0,0.0,90.0,8.0,0.0
4552,84.0,120.0,90.0,7.0,0.0
4553,84.0,120.0,90.0,7.0,0.0
4554,75.0,0.0,90.0,8.0,0.0
4555,75.0,120.0,90.0,8.0,0.0
4556,84.0,0.0,90.0,7.0,0.0
4557,75.0,0.0,90.0,8.0,0.0
4558,84.0,120.0,90.0,7.0,0.0
4559,84.0,30.0,90.0,7.0,0.0
4560,75.0,0.0,90.0,8.0,0.0
4561,68.0,30.0,60.0,4.0,0.0
4562,84.0,0.0,90.0,7.0,0.0
4563,54.0,0.0,60.0,12.0,0.0
4564,66.0,0.0,60.0,10.0,0.0
4565,66.0,0.0,60.0,11.0,0.0
4566,75.0,120.0,90.0,8.0,0.0
4567,66.0,0.0,60.0,3.0,0.0
4568,84.0,90.0,90.0,7.0,0.0
4569,75.0,0.0,90.0,8.0,0.0
4570,65.0,0.0,360.0,11.0,0.0
4571,61.0,0.0,360.0,4.0,0.0
4572,80.0,0.0,360.0,5.0,0.0
4573,65.0,0.0,360.0,10.0,0.0
4574,49.0,0.0,360.0,6.0,0.0
4575,85.0,0.0,60.0,7.0,0.0
4576,85.0,0.0,540.0,1.0,0.0
4577,68.0,0.0,360.0,4.0,0.0
4578,73.0,300.0,60.0,8.0,0.0
4579,85.0,180.0,540.0,0.0,0.0
4580,53.0,0.0,360.0,12.0,0.0
4581,73.0,0.0,540.0,2.0,0.0
4582,73.0,120.0,360.0,5.0,0.0
4583,65.0,0.0,360.0,3.0,0.0
4584,89.0,0.0,120.0,8.0,0.0
4585,89.0,0.0,120.0,7.0,0.0
4586,87.0,0.0,120.0,8.0,0.0
4587,87.0,60.0,120.0,7.0,0.0
4588,85.0,60.0,240.0,7.0,0.0
4589,85.0,0.0,240.0,8.0,0.0
4590,84.0,0.0,180.0,1.0,0.0
4591,49.0,0.0,90.0,11.0,0.0
4592,72.0,60.0,180.0,2.0,0.0
4593,84.0,20.0,60.0,8.0,0.0
4594,37.0,0.0,90.0,12.0,0.0
4595,84.0,0.0,180.0,0.0,0.0
4596,49.0,80.0,90.0,3.0,0.0
4597,84.0,0.0,60.0,7.0,0.0
4598,61.0,0.0,90.0,10.0,0.0
4599,39.0,0.0,90.0,12.0,0.0
4600,63.0,0.0,90.0,10.0,0.0
4601,51.0,20.0,90.0,11.0,0.0
4602,51.0,0.0,90.0,3.0,0.0
4603,65.0,0.0,90.0,10.0,0.0
4604,53.0,0.0,90.0,11.0,0.0
4605,41.0,0.0,90.0,12.0,0.0
4606,53.0,60.0,90.0,3.0,0.0
4607,54.0,60.0,480.0,11.0,0.0
4608,70.0,0.0,540.0,2.0,0.0
4609,54.0,0.0,360.0,6.0,0.0
4610,82.0,300.0,60.0,7.0,0.0
4611,94.0,180.0,540.0,0.0,0.0
4612,82.0,0.0,60.0,8.0,0.0
4613,82.0,120.0,360.0,5.0,0.0
4614,73.0,0.0,360.0,5.0,0.0
4615,82.0,0.0,540.0,1.0,0.0
4616,82.0,0.0,540.0,0.0,0.0
4617,42.0,0.0,480.0,12.0,0.0
4618,61.0,0.0,360.0,4.0,0.0
4619,54.0,0.0,480.0,3.0,0.0
4620,66.0,0.0,480.0,10.0,0.0
4621,70.0,0.0,360.0,4.0,0.0
4622,85.0,0.0,120.0,7.0,0.0
4623,85.0,0.0,120.0,8.0,0.0
4624,84.0,0.0,120.0,7.0,0.0
4625,84.0,0.0,120.0,8.0,0.0
4626,82.0,0.0,240.0,8.0,0.0
4627,82.0,60.0,240.0,7.0,0.0
4628,63.0,80.0,90.0,10.0,0.0
4629,68.0,0.0,180.0,2.0,0.0
4630,80.0,0.0,60.0,8.0,0.0
4631,80.0,60.0,180.0,1.0,0.0
4632,80.0,0.0,180.0,0.0,0.0
4633,92.0,0.0,180.0,0.0,0.0
4634,41.0,0.0,90.0,12.0,0.0
4635,53.0,0.0,90.0,3.0,0.0
4636,53.0,0.0,90.0,11.0,0.0
4637,80.0,20.0,60.0,7.0,0.0
4638,54.0,0.0,90.0,3.0,0.0
4639,66.0,0.0,90.0,10.0,0.0
4640,54.0,20.0,90.0,11.0,0.0
4641,42.0,0.0,90.0,12.0,0.0
4642,56.0,0.0,90.0,3.0,0.0
4643,68.0,0.0,90.0,10.0,0.0
4644,56.0,0.0,90.0,11.0,0.0
4645,44.0,60.0,90.0,12.0,0.0
4646,58.0,0.0,480.0,3.0,0.0
4647,78.0,0.0,540.0,1.0,0.0
4648,58.0,0.0,480.0,11.0,0.0
4649,78.0,0.0,360.0,5.0,0.0
4650,90.0,0.0,540.0,0.0,0.0
4651,78.0,0.0,540.0,0.0,0.0
4652,78.0,300.0,60.0,8.0,0.0
4653,73.0,0.0,360.0,5.0,0.0
4654,66.0,180.0,540.0,2.0,0.0
4655,66.0,120.0,360.0,4.0,0.0
4656,70.0,0.0,360.0,4.0,0.0
4657,54.0,0.0,360.0,6.0,0.0
4658,70.0,0.0,480.0,10.0,0.0
4659,46.0,0.0,480.0,12.0,0.0
4660,78.0,0.0,60.0,7.0,0.0
4661,82.0,0.0,120.0,7.0,0.0
4662,82.0,0.0,120.0,8.0,0.0
4663,80.0,60.0,120.0,8.0,0.0
4664,80.0,0.0,120.0,7.0,0.0
4665,78.0,60.0,240.0,7.0,0.0
4666,78.0,0.0,240.0,8.0,0.0
4667,65.0,0.0,180.0,2.0,0.0
4668,61.0,0.0,90.0,11.0,0.0
4669,77.0,0.0,180.0,0.0,0.0
4670,61.0,80.0,90.0,10.0,0.0
4671,61.0,0.0,90.0,3.0,0.0
4672,77.0,60.0,180.0,1.0,0.0
4673,77.0,0.0,60.0,7.0,0.0
4674,77.0,20.0,60.0,8.0,0.0
4675,49.0,0.0,90.0,12.0,0.0
4676,89.0,0.0,180.0,0.0,0.0
4677,63.0,0.0,90.0,11.0,0.0
4678,63.0,0.0,90.0,3.0,0.0
4679,63.0,0.0,90.0,10.0,0.0
4680,51.0,20.0,90.0,12.0,0.0
4681,53.0,0.0,90.0,12.0,0.0
4682,65.0,0.0,90.0,3.0,0.0
4683,65.0,60.0,90.0,10.0,0.0
4684,65.0,0.0,90.0,11.0,0.0
4685,75.0,0.0,60.0,7.0,0.0
4686,54.0,0.0,480.0,12.0,0.0
4687,82.0,0.0,360.0,5.0,0.0
4688,66.0,0.0,480.0,3.0,0.0
4689,78.0,0.0,360.0,5.0,0.0
4690,75.0,0.0,540.0,1.0,0.0
4691,63.0,60.0,540.0,2.0,0.0
4692,75.0,80.0,720.0,0.0,0.0
4693,66.0,0.0,480.0,11.0,0.0
4694,66.0,0.0,480.0,10.0,0.0
4695,87.0,0.0,720.0,0.0,0.0
4696,58.0,0.0,360.0,4.0,0.0
4697,66.0,120.0,360.0,4.0,0.0
4698,75.0,300.0,60.0,8.0,0.0
4699,54.0,0.0,360.0,6.0,0.0
4700,78.0,0.0,120.0,7.0,0.0
4701,78.0,0.0,120.0,8.0,0.0
4702,77.0,0.0,120.0,7.0,0.0
4703,77.0,60.0,120.0,8.0,0.0
4704,75.0,120.0,120.0,7.0,0.0
4705,75.0,0.0,120.0,8.0,0.0
4706,73.0,0.0,120.0,8.0,0.0
4707,73.0,0.0,120.0,7.0,0.0
4708,72.0,0.0,120.0,7.0,0.0
4709,72.0,40.0,120.0,8.0,0.0
4710,87.0,60.0,180.0,1.0,0.0
4711,51.0,0.0,90.0,12.0,0.0
4712,63.0,40.0,90.0,10.0,0.0
4713,75.0,0.0,180.0,2.0,0.0
4714,63.0,0.0,90.0,11.0,0.0
4715,63.0,0.0,90.0,3.0,0.0
4716,53.0,0.0,90.0,12.0,0.0
4717,65.0,0.0,90.0,11.0,0.0
4718,65.0,0.0,90.0,3.0,0.0
4719,65.0,20.0,90.0,10.0,0.0
4720,70.0,0.0,120.0,7.0,0.0
4721,70.0,0.0,120.0,8.0,0.0
4722,54.0,0.0,90.0,12.0,0.0
4723,66.0,180.0,90.0,3.0,0.0
4724,66.0,0.0,90.0,10.0,0.0
4725,66.0,0.0,90.0,11.0,0.0
4726,69.0,120.0,480.0,10.0,0.0
4727,80.0,60.0,720.0,5.0,0.0
4728,68.0,0.0,720.0,4.0,0.0
4729,68.0,300.0,180.0,7.0,0.0
4730,68.0,0.0,480.0,3.0,0.0
4731,68.0,0.0,180.0,8.0,0.0
4732,73.0,0.0,1920.0,2.0,0.0
4733,68.0,0.0,480.0,11.0,0.0
4734,56.0,0.0,480.0,12.0,0.0
4735,85.0,0.0,1920.0,1.0,0.0
4736,77.0,0.0,1920.0,2.0,0.0
4737,89.0,120.0,1440.0,0.0,0.0
4738,89.0,0.0,1920.0,1.0,0.0
4739,80.0,0.0,720.0,0.0,0.0
4740,85.0,0.0,360.0,8.0,0.0
4741,85.0,0.0,360.0,7.0,0.0
4742,77.0,0.0,360.0,7.0,0.0
4743,77.0,120.0,360.0,8.0,0.0
4744,85.0,40.0,180.0,8.0,0.0
4745,65.0,60.0,90.0,11.0,0.0
4746,77.0,0.0,180.0,7.0,0.0
4747,53.0,0.0,90.0,12.0,0.0
4748,85.0,0.0,180.0,7.0,0.0
4749,65.0,20.0,60.0,3.0,0.0
4750,65.0,0.0,90.0,10.0,0.0
4751,77.0,0.0,180.0,8.0,0.0
4752,66.0,20.0,60.0,3.0,0.0
4753,54.0,0.0,90.0,12.0,0.0
4754,66.0,0.0,90.0,10.0,0.0
4755,66.0,20.0,90.0,11.0,0.0
4756,69.0,180.0,90.0,10.0,0.0
4757,68.0,20.0,60.0,3.0,0.0
4758,56.0,0.0,90.0,12.0,0.0
4759,68.0,0.0,90.0,11.0,0.0
4760,70.0,0.0,960.0,4.0,0.0
4761,70.0,0.0,480.0,11.0,0.0
4762,58.0,0.0,480.0,12.0,0.0
4763,82.0,0.0,720.0,5.0,0.0
4764,70.0,0.0,480.0,10.0,0.0
4765,70.0,180.0,180.0,8.0,0.0
4766,85.0,120.0,720.0,0.0,0.0
4767,70.0,120.0,360.0,3.0,0.0
4768,70.0,0.0,180.0,7.0,0.0
4769,85.0,0.0,360.0,7.0,0.0
4770,77.0,120.0,360.0,7.0,0.0
4771,85.0,0.0,360.0,8.0,0.0
4772,77.0,0.0,360.0,8.0,0.0
4773,77.0,0.0,180.0,8.0,0.0
4774,58.0,0.0,120.0,11.0,0.0
4775,58.0,0.0,120.0,3.0,0.0
4776,85.0,0.0,180.0,8.0,0.0
4777,70.0,60.0,120.0,10.0,0.0
4778,46.0,0.0,120.0,12.0,0.0
4779,85.0,60.0,180.0,7.0,0.0
4780,77.0,0.0,180.0,7.0,0.0
4781,69.0,0.0,120.0,10.0,0.0
4782,56.0,0.0,120.0,11.0,0.0
4783,44.0,0.0,120.0,12.0,0.0
4784,56.0,180.0,120.0,3.0,0.0
4785,66.0,0.0,960.0,4.0,0.0
4786,87.0,0.0,1920.0,1.0,0.0
4787,75.0,0.0,1920.0,2.0,0.0
4788,54.0,120.0,480.0,11.0,0.0
4789,66.0,0.0,480.0,10.0,0.0
4790,73.0,0.0,960.0,2.0,0.0
4791,82.0,0.0,720.0,0.0,0.0
4792,87.0,120.0,1440.0,0.0,0.0
4793,54.0,0.0,480.0,3.0,0.0
4794,66.0,300.0,180.0,8.0,0.0
4795,42.0,0.0,480.0,12.0,0.0
4796,85.0,0.0,960.0,1.0,0.0
4797,66.0,0.0,180.0,7.0,0.0
4798,78.0,80.0,720.0,5.0,0.0
4799,85.0,0.0,360.0,7.0,0.0
4800,75.0,120.0,360.0,7.0,0.0
4801,75.0,0.0,360.0,8.0,0.0
4802,85.0,0.0,360.0,8.0,0.0
4803,63.0,80.0,90.0,3.0,0.0
4804,51.0,0.0,90.0,12.0,0.0
4805,75.0,0.0,180.0,8.0,0.0
4806,85.0,0.0,180.0,7.0,0.0
4807,75.0,0.0,180.0,7.0,0.0
4808,63.0,0.0,90.0,10.0,0.0
4809,85.0,60.0,180.0,8.0,0.0
4810,63.0,0.0,90.0,11.0,0.0
4811,65.0,0.0,90.0,11.0,0.0
4812,53.0,0.0,90.0,12.0,0.0
4813,65.0,0.0,90.0,10.0,0.0
4814,65.0,20.0,90.0,3.0,0.0
4815,54.0,0.0,90.0,12.0,0.0
4816,66.0,0.0,90.0,10.0,0.0
4817,66.0,0.0,90.0,11.0,0.0
4818,66.0,180.0,90.0,3.0,0.0
4819,68.0,300.0,180.0,8.0,0.0
4820,68.0,0.0,180.0,7.0,0.0
4821,68.0,0.0,480.0,10.0,0.0
4822,56.0,0.0,480.0,12.0,0.0
4823,84.0,90.0,960.0,1.0,0.0
4824,68.0,0.0,480.0,11.0,0.0
4825,84.0,0.0,720.0,0.0,0.0
4826,68.0,0.0,720.0,4.0,0.0
4827,72.0,0.0,960.0,2.0,0.0
4828,80.0,30.0,720.0,5.0,0.0
4829,68.0,0.0,480.0,3.0,0.0
4830,75.0,0.0,360.0,7.0,0.0
4831,75.0,0.0,360.0,8.0,0.0
4832,84.0,120.0,360.0,8.0,0.0
4833,84.0,0.0,360.0,7.0,0.0
4834,56.0,60.0,60.0,3.0,0.0
4835,75.0,0.0,180.0,7.0,0.0
4836,84.0,0.0,180.0,8.0,0.0
4837,75.0,0.0,180.0,8.0,0.0
4838,84.0,0.0,180.0,7.0,0.0
4839,68.0,0.0,60.0,10.0,0.0
4840,44.0,0.0,30.0,12.0,0.0
4841,56.0,30.0,30.0,11.0,0.0
4842,66.0,0.0,60.0,10.0,0.0
4843,54.0,0.0,60.0,3.0,0.0
4844,54.0,0.0,60.0,11.0,0.0
4845,42.0,60.0,60.0,12.0,0.0
4846,65.0,60.0,60.0,10.0,0.0
4847,41.0,0.0,60.0,12.0,0.0
4848,53.0,0.0,60.0,3.0,0.0
4849,53.0,0.0,60.0,11.0,0.0
4850,51.0,0.0,60.0,11.0,0.0
4851,39.0,0.0,60.0,12.0,0.0
4852,51.0,0.0,60.0,3.0,0.0
4853,63.0,0.0,60.0,10.0,0.0
4854,49.0,90.0,240.0,3.0,0.0
4855,73.0,90.0,960.0,2.0,0.0
4856,68.0,30.0,180.0,4.0,0.0
4857,61.0,0.0,240.0,10.0,0.0
4858,61.0,0.0,180.0,4.0,0.0
4859,49.0,0.0,360.0,6.0,0.0
4860,85.0,30.0,540.0,7.0,0.0
4861,85.0,0.0,960.0,0.0,0.0
4862,73.0,0.0,2100.0,5.0,0.0
4863,85.0,0.0,960.0,1.0,0.0
4864,73.0,60.0,360.0,7.0,0.0
4865,49.0,0.0,240.0,11.0,0.0
4866,85.0,90.0,90.0,8.0,0.0
4867,37.0,0.0,240.0,12.0,0.0
4868,77.0,0.0,90.0,8.0,0.0
4869,85.0,30.0,90.0,8.0,0.0
4870,77.0,0.0,90.0,8.0,0.0
4871,49.0,0.0,180.0,12.0,0.0
4872,73.0,0.0,180.0,10.0,0.0
4873,61.0,0.0,180.0,3.0,0.0
4874,85.0,0.0,90.0,8.0,0.0
4875,77.0,30.0,90.0,8.0,0.0
4876,61.0,30.0,180.0,4.0,0.0
4877,61.0,0.0,180.0,11.0,0.0
4878,77.0,90.0,90.0,8.0,0.0
4879,85.0,0.0,90.0,8.0,0.0
4880,61.0,0.0,180.0,4.0,0.0
4881,49.0,0.0,180.0,12.0,0.0
4882,73.0,30.0,180.0,10.0,0.0
4883,61.0,0.0,180.0,3.0,0.0
4884,61.0,0.0,180.0,11.0,0.0
4885,85.0,90.0,90.0,8.0,0.0
4886,77.0,0.0,90.0,8.0,0.0
4887,77.0,120.0,90.0,8.0,0.0
4888,85.0,0.0,90.0,8.0,0.0
4889,61.0,0.0,180.0,4.0,0.0
4890,61.0,0.0,180.0,3.0,0.0
4891,77.0,90.0,90.0,8.0,0.0
4892,85.0,0.0,90.0,8.0,0.0
4893,49.0,0.0,180.0,12.0,0.0
4894,73.0,30.0,180.0,7.0,0.0
4895,73.0,0.0,180.0,10.0,0.0
4896,61.0,0.0,180.0,11.0,0.0
4897,77.0,0.0,90.0,8.0,0.0
4898,85.0,30.0,90.0,8.0,0.0
4899,73.0,0.0,180.0,10.0,0.0
4900,80.0,0.0,960.0,0.0,0.0
4901,89.0,0.0,960.0,0.0,0.0
4902,61.0,0.0,180.0,3.0,0.0
4903,61.0,0.0,180.0,11.0,0.0
4904,83.0,90.0,960.0,1.0,0.0
4905,77.0,0.0,960.0,1.0,0.0
4906,65.0,0.0,960.0,2.0,0.0
4907,49.0,30.0,180.0,12.0,0.0
4908,89.0,30.0,540.0,7.0,0.0
4909,71.0,0.0,960.0,2.0,0.0
4910,80.0,0.0,90.0,8.0,0.0
4911,83.0,90.0,90.0,8.0,0.0
4912,61.0,0.0,180.0,4.0,0.0
4913,83.0,120.0,90.0,8.0,0.0
4914,80.0,0.0,90.0,8.0,0.0
4915,80.0,90.0,90.0,8.0,0.0
4916,61.0,0.0,180.0,4.0,0.0
4917,73.0,0.0,180.0,10.0,0.0
4918,49.0,0.0,180.0,12.0,0.0
4919,83.0,0.0,90.0,8.0,0.0
4920,61.0,30.0,180.0,3.0,0.0
4921,61.0,0.0,180.0,11.0,0.0
4922,80.0,90.0,90.0,8.0,0.0
4923,83.0,0.0,90.0,8.0,0.0
4924,61.0,0.0,180.0,11.0,0.0
4925,73.0,30.0,180.0,10.0,0.0
4926,61.0,0.0,180.0,4.0,0.0
4927,80.0,90.0,90.0,8.0,0.0
4928,83.0,0.0,90.0,8.0,0.0
4929,49.0,0.0,180.0,12.0,0.0
4930,61.0,0.0,180.0,3.0,0.0
4931,83.0,0.0,90.0,8.0,0.0
4932,80.0,120.0,90.0,8.0,0.0
4933,61.0,0.0,180.0,11.0,0.0
4934,61.0,30.0,180.0,3.0,0.0
4935,49.0,0.0,180.0,12.0,0.0
4936,61.0,0.0,180.0,4.0,0.0
4937,80.0,90.0,90.0,8.0,0.0
4938,83.0,0.0,90.0,8.0,0.0
4939,73.0,0.0,180.0,10.0,0.0
4940,73.0,0.0,180.0,7.0,0.0
4941,83.0,0.0,90.0,8.0,0.0
4942,80.0,30.0,90.0,8.0,0.0
4943,61.0,0.0,180.0,3.0,0.0
4944,90.0,0.0,720.0,0.0,0.0
4945,82.0,30.0,720.0,0.0,0.0
4946,82.0,0.0,90.0,8.0,0.0
4947,73.0,30.0,180.0,10.0,0.0
4948,49.0,0.0,180.0,12.0,0.0
4949,61.0,0.0,180.0,11.0,0.0
4950,70.0,0.0,720.0,2.0,0.0
4951,82.0,0.0,720.0,1.0,0.0
4952,78.0,0.0,1440.0,1.0,0.0
4953,49.0,60.0,360.0,6.0,0.0
4954,61.0,0.0,2100.0,4.0,0.0
4955,90.0,30.0,540.0,7.0,0.0
4956,66.0,60.0,1080.0,2.0,0.0
4957,78.0,90.0,90.0,8.0,0.0
4958,78.0,120.0,90.0,8.0,0.0
4959,82.0,0.0,90.0,8.0,0.0
4960,61.0,0.0,180.0,3.0,0.0
4961,49.0,0.0,180.0,12.0,0.0
4962,61.0,0.0,180.0,11.0,0.0
4963,73.0,30.0,180.0,5.0,0.0
4964,78.0,30.0,90.0,8.0,0.0
4965,82.0,0.0,90.0,8.0,0.0
4966,73.0,0.0,180.0,10.0,0.0
4967,78.0,90.0,90.0,8.0,0.0
4968,82.0,0.0,90.0,8.0,0.0
4969,61.0,0.0,180.0,3.0,0.0
4970,78.0,90.0,90.0,8.0,0.0
4971,73.0,0.0,180.0,5.0,0.0
4972,73.0,30.0,180.0,10.0,0.0
4973,49.0,0.0,180.0,12.0,0.0
4974,49.0,60.0,270.0,6.0,0.0
4975,61.0,0.0,180.0,11.0,0.0
4976,82.0,0.0,90.0,8.0,0.0
4977,82.0,0.0,90.0,8.0,0.0
4978,78.0,30.0,90.0,8.0,0.0
4979,82.0,0.0,90.0,8.0,0.0
4980,78.0,90.0,90.0,8.0,0.0
4981,49.0,30.0,180.0,12.0,0.0
4982,61.0,0.0,180.0,3.0,0.0
4983,73.0,0.0,180.0,5.0,0.0
4984,73.0,0.0,180.0,7.0,0.0
4985,73.0,0.0,180.0,10.0,0.0
4986,61.0,0.0,180.0,11.0,0.0
4987,82.0,0.0,90.0,8.0,0.0
4988,49.0,120.0,90.0,6.0,0.0
4989,78.0,0.0,90.0,8.0,0.0
4990,73.0,0.0,180.0,5.0,0.0
4991,82.0,0.0,90.0,8.0,0.0
4992,78.0,30.0,90.0,8.0,0.0
4993,73.0,0.0,180.0,10.0,0.0
4994,61.0,0.0,180.0,11.0,0.0
4995,61.0,30.0,180.0,3.0,0.0
4996,49.0,60.0,360.0,6.0,0.0
4997,87.0,0.0,480.0,1.0,0.0
4998,75.0,0.0,480.0,2.0,0.0
4999,78.0,90.0,480.0,0.0,0.0
5000,87.0,0.0,480.0,0.0,0.0
5001,87.0,0.0,180.0,7.0,0.0
5002,49.0,0.0,180.0,12.0,0.0
5003,82.0,0.0,90.0,8.0,0.0
5004,78.0,120.0,90.0,8.0,0.0
5005,78.0,0.0,90.0,8.0,0.0
5006,61.0,30.0,180.0,3.0,0.0
5007,49.0,0.0,180.0,12.0,0.0
5008,73.0,0.0,180.0,5.0,0.0
5009,73.0,0.0,180.0,10.0,0.0
5010,73.0,0.0,180.0,7.0,0.0
5011,82.0,30.0,90.0,8.0,0.0
5012,61.0,0.0,180.0,11.0,0.0
5013,78.0,30.0,90.0,8.0,0.0
5014,82.0,0.0,90.0,8.0,0.0
5015,73.0,0.0,180.0,10.0,0.0
5016,84.0,90.0,480.0,0.0,0.0
5017,63.0,0.0,480.0,2.0,0.0
5018,72.0,0.0,480.0,2.0,0.0
5019,49.0,30.0,180.0,12.0,0.0
5020,73.0,0.0,180.0,5.0,0.0
5021,61.0,0.0,180.0,3.0,0.0
5022,84.0,0.0,180.0,7.0,0.0
5023,84.0,0.0,480.0,1.0,0.0
5024,75.0,0.0,480.0,0.0,0.0
5025,78.0,90.0,90.0,8.0,0.0
5026,80.0,0.0,90.0,8.0,0.0
5027,49.0,60.0,360.0,6.0,0.0
5028,61.0,0.0,180.0,11.0,0.0
5029,78.0,0.0,90.0,8.0,0.0
5030,80.0,120.0,90.0,8.0,0.0
5031,49.0,30.0,180.0,12.0,0.0
5032,73.0,0.0,180.0,7.0,0.0
5033,61.0,0.0,180.0,11.0,0.0
5034,73.0,0.0,180.0,5.0,0.0
5035,78.0,0.0,90.0,8.0,0.0
5036,61.0,0.0,180.0,3.0,0.0
5037,80.0,30.0,90.0,8.0,0.0
5038,73.0,0.0,180.0,10.0,0.0
5039,80.0,30.0,90.0,8.0,0.0
5040,78.0,0.0,90.0,8.0,0.0
5041,85.0,30.0,540.0,7.0,0.0
5042,65.0,0.0,1920.0,2.0,0.0
5043,73.0,90.0,960.0,2.0,0.0
5044,80.0,0.0,90.0,8.0,0.0
5045,73.0,0.0,2100.0,5.0,0.0
5046,61.0,0.0,180.0,10.0,0.0
5047,77.0,90.0,90.0,8.0,0.0
5048,85.0,0.0,720.0,0.0,0.0
5049,77.0,90.0,720.0,0.0,0.0
5050,77.0,0.0,1920.0,1.0,0.0
5051,37.0,0.0,180.0,12.0,0.0
5052,49.0,60.0,360.0,6.0,0.0
5053,85.0,0.0,960.0,1.0,0.0
5054,49.0,30.0,180.0,11.0,0.0
5055,49.0,0.0,180.0,3.0,0.0
5056,77.0,120.0,90.0,8.0,0.0
5057,80.0,0.0,90.0,8.0,0.0
5058,61.0,30.0,180.0,11.0,0.0
5059,61.0,0.0,180.0,4.0,0.0
5060,61.0,0.0,180.0,3.0,0.0
5061,80.0,0.0,90.0,8.0,0.0
5062,77.0,30.0,90.0,8.0,0.0
5063,49.0,0.0,180.0,12.0,0.0
5064,73.0,0.0,180.0,10.0,0.0
5065,80.0,0.0,90.0,8.0,0.0
5066,77.0,90.0,90.0,8.0,0.0
5067,49.0,0.0,180.0,12.0,0.0
5068,61.0,0.0,180.0,3.0,0.0
5069,77.0,0.0,90.0,8.0,0.0
5070,80.0,90.0,90.0,8.0,0.0
5071,73.0,30.0,180.0,10.0,0.0
5072,61.0,0.0,180.0,11.0,0.0
5073,61.0,0.0,180.0,4.0,0.0
5074,80.0,30.0,90.0,8.0,0.0
5075,77.0,0.0,90.0,8.0,0.0
5076,61.0,30.0,180.0,11.0,0.0
5077,77.0,0.0,90.0,8.0,0.0
5078,80.0,90.0,90.0,8.0,0.0
5079,49.0,0.0,180.0,12.0,0.0
5080,61.0,0.0,180.0,4.0,0.0
5081,61.0,0.0,180.0,3.0,0.0
5082,73.0,0.0,180.0,7.0,0.0
5083,73.0,0.0,180.0,10.0,0.0
5084,80.0,30.0,90.0,8.0,0.0
5085,77.0,0.0,90.0,8.0,0.0
5086,83.0,90.0,90.0,8.0,0.0
5087,83.0,90.0,960.0,1.0,0.0
5088,80.0,0.0,720.0,0.0,0.0
5089,61.0,0.0,180.0,11.0,0.0
5090,80.0,0.0,90.0,8.0,0.0
5091,49.0,30.0,180.0,12.0,0.0
5092,61.0,0.0,180.0,4.0,0.0
5093,73.0,0.0,180.0,10.0,0.0
5094,89.0,30.0,540.0,7.0,0.0
5095,71.0,0.0,960.0,2.0,0.0
5096,61.0,0.0,180.0,3.0,0.0
5097,89.0,90.0,720.0,0.0,0.0
5098,83.0,0.0,90.0,8.0,0.0
5099,80.0,120.0,90.0,8.0,0.0
5100,61.0,30.0,180.0,3.0,0.0
5101,61.0,0.0,180.0,4.0,0.0
5102,73.0,0.0,180.0,10.0,0.0
5103,80.0,90.0,90.0,8.0,0.0
5104,61.0,0.0,180.0,11.0,0.0
5105,49.0,0.0,180.0,12.0,0.0
5106,83.0,0.0,90.0,8.0,0.0
5107,80.0,0.0,90.0,8.0,0.0
5108,83.0,90.0,90.0,8.0,0.0
5109,49.0,0.0,180.0,12.0,0.0
5110,61.0,0.0,180.0,3.0,0.0
5111,61.0,0.0,180.0,4.0,0.0
5112,61.0,30.0,180.0,11.0,0.0
5113,73.0,0.0,180.0,10.0,0.0
5114,80.0,90.0,90.0,8.0,0.0
5115,83.0,0.0,90.0,8.0,0.0
5116,80.0,30.0,90.0,8.0,0.0
5117,83.0,0.0,90.0,8.0,0.0
5118,73.0,30.0,180.0,10.0,0.0
5119,61.0,0.0,180.0,3.0,0.0
5120,49.0,0.0,180.0,12.0,0.0
5121,73.0,0.0,180.0,7.0,0.0
5122,61.0,0.0,180.0,4.0,0.0
5123,83.0,0.0,90.0,8.0,0.0
5124,80.0,90.0,90.0,8.0,0.0
5125,61.0,0.0,180.0,11.0,0.0
5126,80.0,30.0,90.0,8.0,0.0
5127,83.0,0.0,90.0,8.0,0.0
5128,49.0,60.0,360.0,6.0,0.0
5129,66.0,60.0,1080.0,2.0,0.0
5130,70.0,0.0,720.0,2.0,0.0
5131,61.0,0.0,180.0,3.0,0.0
5132,61.0,0.0,180.0,11.0,0.0
5133,49.0,30.0,180.0,12.0,0.0
5134,73.0,0.0,180.0,10.0,0.0
5135,61.0,0.0,2280.0,4.0,0.0
5136,82.0,30.0,720.0,1.0,0.0
5137,78.0,0.0,1440.0,1.0,0.0
5138,90.0,30.0,540.0,7.0,0.0
5139,82.0,0.0,720.0,0.0,0.0
5140,90.0,0.0,720.0,0.0,0.0
5141,82.0,0.0,90.0,8.0,0.0
5142,78.0,90.0,90.0,8.0,0.0
5143,82.0,0.0,90.0,8.0,0.0
5144,78.0,120.0,90.0,8.0,0.0
5145,61.0,0.0,180.0,11.0,0.0
5146,49.0,0.0,180.0,12.0,0.0
5147,82.0,0.0,90.0,8.0,0.0
5148,78.0,30.0,90.0,8.0,0.0
5149,61.0,0.0,180.0,3.0,0.0
5150,73.0,30.0,180.0,5.0,0.0
5151,73.0,0.0,180.0,10.0,0.0
5152,82.0,0.0,90.0,8.0,0.0
5153,78.0,90.0,90.0,8.0,0.0
5154,49.0,0.0,180.0,12.0,0.0
5155,61.0,0.0,180.0,3.0,0.0
5156,73.0,30.0,180.0,5.0,0.0
5157,61.0,0.0,180.0,11.0,0.0
5158,73.0,0.0,180.0,10.0,0.0
5159,78.0,0.0,90.0,8.0,0.0
5160,82.0,90.0,90.0,8.0,0.0
5161,49.0,60.0,270.0,6.0,0.0
5162,82.0,30.0,90.0,8.0,0.0
5163,78.0,0.0,90.0,8.0,0.0
5164,78.0,90.0,90.0,8.0,0.0
5165,73.0,0.0,180.0,10.0,0.0
5166,61.0,0.0,180.0,11.0,0.0
5167,82.0,0.0,90.0,8.0,0.0
5168,61.0,30.0,180.0,3.0,0.0
5169,49.0,0.0,180.0,12.0,0.0
5170,73.0,0.0,180.0,5.0,0.0
5171,73.0,0.0,180.0,7.0,0.0
5172,49.0,0.0,90.0,6.0,0.0
5173,78.0,0.0,90.0,8.0,0.0
5174,82.0,120.0,90.0,8.0,0.0
5175,73.0,0.0,180.0,5.0,0.0
5176,49.0,0.0,180.0,12.0,0.0
5177,82.0,0.0,90.0,8.0,0.0
5178,78.0,30.0,90.0,8.0,0.0
5179,49.0,60.0,360.0,6.0,0.0
5180,87.0,90.0,480.0,0.0,0.0
5181,73.0,0.0,180.0,10.0,0.0
5182,75.0,0.0,480.0,2.0,0.0
5183,87.0,0.0,180.0,7.0,0.0
5184,78.0,0.0,480.0,0.0,0.0
5185,61.0,30.0,180.0,3.0,0.0
5186,61.0,0.0,180.0,11.0,0.0
5187,87.0,0.0,480.0,1.0,0.0
5188,78.0,0.0,90.0,8.0,0.0
5189,82.0,120.0,90.0,8.0,0.0
5190,49.0,0.0,180.0,12.0,0.0
5191,73.0,0.0,180.0,5.0,0.0
5192,73.0,30.0,180.0,10.0,0.0
5193,61.0,0.0,180.0,11.0,0.0
5194,73.0,0.0,180.0,7.0,0.0
5195,82.0,0.0,90.0,8.0,0.0
5196,61.0,0.0,180.0,3.0,0.0
5197,78.0,30.0,90.0,8.0,0.0
5198,82.0,0.0,90.0,8.0,0.0
5199,78.0,30.0,90.0,8.0,0.0
5200,75.0,0.0,480.0,0.0,0.0
5201,72.0,360.0,480.0,2.0,0.0
5202,63.0,0.0,480.0,2.0,0.0
5203,49.0,60.0,360.0,6.0,0.0
5204,80.0,0.0,90.0,8.0,0.0
5205,84.0,0.0,480.0,0.0,0.0
5206,78.0,90.0,90.0,8.0,0.0
5207,84.0,30.0,180.0,7.0,0.0
5208,84.0,0.0,480.0,1.0,0.0
5209,61.0,0.0,180.0,11.0,0.0
5210,73.0,0.0,180.0,10.0,0.0
5211,49.0,0.0,180.0,12.0,0.0
5212,73.0,0.0,180.0,5.0,0.0
5213,61.0,0.0,180.0,3.0,0.0
5214,78.0,0.0,90.0,8.0,0.0
5215,80.0,120.0,90.0,8.0,0.0
5216,73.0,0.0,180.0,5.0,0.0
5217,61.0,0.0,180.0,11.0,0.0
5218,73.0,0.0,180.0,7.0,0.0
5219,49.0,30.0,180.0,12.0,0.0
5220,61.0,0.0,180.0,3.0,0.0
5221,73.0,0.0,180.0,10.0,0.0
5222,80.0,30.0,90.0,8.0,0.0
5223,78.0,0.0,90.0,8.0,0.0
5224,80.0,0.0,90.0,8.0,0.0
5225,78.0,30.0,90.0,8.0,0.0
5226,77.0,260.0,540.0,8.0,0.0
5227,73.0,0.0,360.0,5.0,0.0
5228,49.0,0.0,360.0,6.0,0.0
5229,85.0,0.0,360.0,0.0,0.0
5230,85.0,0.0,360.0,1.0,0.0
5231,85.0,0.0,540.0,7.0,0.0
5232,77.0,0.0,360.0,0.0,0.0
5233,73.0,0.0,360.0,10.0,0.0
5234,49.0,0.0,360.0,12.0,0.0
5235,80.0,0.0,540.0,8.0,0.0
5236,77.0,0.0,360.0,1.0,0.0
5237,61.0,180.0,360.0,3.0,0.0
5238,65.0,0.0,360.0,2.0,0.0
5239,73.0,0.0,360.0,2.0,0.0
5240,61.0,0.0,360.0,11.0,0.0
5241,85.0,80.0,90.0,8.0,0.0
5242,85.0,0.0,90.0,7.0,0.0
5243,84.0,0.0,90.0,8.0,0.0
5244,84.0,80.0,90.0,7.0,0.0
5245,82.0,720.0,90.0,8.0,0.0
5246,82.0,0.0,90.0,7.0,0.0
5247,80.0,0.0,15.0,8.0,0.0
5248,80.0,60.0,15.0,7.0,0.0
5249,78.0,60.0,60.0,8.0,0.0
5250,78.0,0.0,60.0,7.0,0.0
5251,77.0,60.0,60.0,7.0,0.0
5252,77.0,0.0,60.0,8.0,0.0
5253,75.0,360.0,60.0,7.0,0.0
5254,75.0,0.0,60.0,8.0,0.0
5255,85.0,0.0,720.0,0.0,0.0
5256,85.0,0.0,540.0,1.0,0.0
5257,61.0,0.0,540.0,11.0,0.0
5258,61.0,180.0,540.0,3.0,0.0
5259,49.0,0.0,540.0,12.0,0.0
5260,73.0,0.0,540.0,10.0,0.0
5261,73.0,0.0,540.0,2.0,0.0
5262,49.0,180.0,360.0,6.0,0.0
5263,73.0,0.0,360.0,5.0,0.0
5264,73.0,80.0,720.0,7.0,0.0
5265,61.0,0.0,360.0,4.0,0.0
5266,85.0,0.0,90.0,1.0,0.0
5267,49.0,0.0,90.0,12.0,0.0
5268,61.0,0.0,90.0,3.0,0.0
5269,73.0,0.0,15.0,8.0,0.0
5270,61.0,0.0,90.0,11.0,0.0
5271,73.0,0.0,90.0,10.0,0.0
5272,73.0,80.0,90.0,2.0,0.0
5273,73.0,0.0,90.0,7.0,0.0
5274,72.0,0.0,90.0,7.0,0.0
5275,59.0,0.0,90.0,3.0,0.0
5276,72.0,0.0,90.0,8.0,0.0
5277,72.0,0.0,90.0,2.0,0.0
5278,60.0,0.0,90.0,11.0,0.0
5279,72.0,80.0,90.0,10.0,0.0
5280,84.0,0.0,90.0,1.0,0.0
5281,48.0,0.0,90.0,12.0,0.0
5282,46.0,360.0,90.0,12.0,0.0
5283,58.0,0.0,90.0,3.0,0.0
5284,58.0,0.0,90.0,11.0,0.0
5285,70.0,0.0,90.0,2.0,0.0
5286,70.0,0.0,90.0,7.0,0.0
5287,82.0,0.0,90.0,1.0,0.0
5288,70.0,0.0,90.0,8.0,0.0
5289,70.0,0.0,90.0,10.0,0.0
5290,56.0,0.0,720.0,3.0,0.0
5291,68.0,180.0,360.0,4.0,0.0
5292,68.0,0.0,720.0,2.0,0.0
5293,80.0,0.0,360.0,5.0,0.0
5294,80.0,0.0,720.0,1.0,0.0
5295,56.0,0.0,720.0,11.0,0.0
5296,92.0,180.0,540.0,0.0,0.0
5297,68.0,0.0,720.0,8.0,0.0
5298,44.0,60.0,720.0,12.0,0.0
5299,68.0,0.0,15.0,7.0,0.0
5300,68.0,0.0,60.0,8.0,0.0
5301,56.0,0.0,60.0,3.0,0.0
5302,80.0,0.0,60.0,1.0,0.0
5303,56.0,0.0,60.0,11.0,0.0
5304,68.0,0.0,15.0,10.0,0.0
5305,68.0,0.0,60.0,2.0,0.0
5306,92.0,0.0,60.0,0.0,0.0
5307,44.0,0.0,60.0,12.0,0.0
5308,54.0,60.0,60.0,3.0,0.0
5309,66.0,0.0,60.0,7.0,0.0
5310,66.0,0.0,60.0,10.0,0.0
5311,66.0,0.0,60.0,8.0,0.0
5312,42.0,0.0,60.0,12.0,0.0
5313,54.0,0.0,60.0,11.0,0.0
5314,66.0,0.0,60.0,2.0,0.0
5315,78.0,0.0,60.0,1.0,0.0
5316,90.0,0.0,60.0,0.0,0.0
5317,53.0,0.0,60.0,11.0,0.0
5318,65.0,0.0,60.0,7.0,0.0
5319,65.0,0.0,60.0,10.0,0.0
5320,77.0,0.0,60.0,1.0,0.0
5321,65.0,60.0,60.0,2.0,0.0
5322,89.0,0.0,60.0,0.0,0.0
5323,41.0,0.0,60.0,12.0,0.0
5324,53.0,0.0,60.0,3.0,0.0
5325,65.0,0.0,60.0,8.0,0.0
5326,51.0,0.0,60.0,11.0,0.0
5327,51.0,0.0,60.0,3.0,0.0
5328,63.0,0.0,60.0,8.0,0.0
5329,63.0,360.0,60.0,2.0,0.0
5330,87.0,0.0,60.0,0.0,0.0
5331,63.0,0.0,60.0,7.0,0.0
5332,63.0,0.0,60.0,10.0,0.0
5333,75.0,0.0,60.0,1.0,0.0
5334,39.0,0.0,60.0,12.0,0.0
5335,49.0,0.0,480.0,3.0,0.0
5336,73.0,120.0,360.0,5.0,0.0
5337,73.0,0.0,480.0,1.0,0.0
5338,61.0,0.0,360.0,4.0,0.0
5339,49.0,0.0,360.0,6.0,0.0
5340,61.0,0.0,480.0,2.0,0.0
5341,61.0,0.0,480.0,8.0,0.0
5342,49.0,0.0,480.0,11.0,0.0
5343,37.0,120.0,480.0,12.0,0.0
5344,61.0,0.0,480.0,10.0,0.0
5345,61.0,0.0,480.0,7.0,0.0
5346,85.0,0.0,480.0,0.0,0.0
5347,89.0,0.0,360.0,0.0,0.0
5348,80.0,0.0,360.0,0.0,0.0
5349,80.0,0.0,120.0,1.0,0.0
5350,77.0,240.0,120.0,1.0,0.0
5351,73.0,0.0,360.0,5.0,0.0
5352,77.0,0.0,360.0,8.0,0.0
5353,61.0,0.0,360.0,11.0,0.0
5354,61.0,0.0,360.0,8.0,0.0
5355,73.0,0.0,360.0,10.0,0.0
5356,68.0,0.0,360.0,8.0,0.0
5357,61.0,0.0,360.0,3.0,0.0
5358,49.0,0.0,360.0,6.0,0.0
5359,49.0,0.0,360.0,12.0,0.0
5360,68.0,0.0,360.0,2.0,0.0
5361,77.0,240.0,360.0,2.0,0.0
5362,61.0,0.0,360.0,4.0,0.0
5363,73.0,0.0,360.0,7.0,0.0
5364,80.0,0.0,360.0,7.0,0.0
5365,68.0,0.0,360.0,8.0,0.0
5366,61.0,0.0,360.0,10.0,0.0
5367,73.0,0.0,360.0,5.0,0.0
5368,77.0,0.0,360.0,8.0,0.0
5369,77.0,0.0,360.0,0.0,0.0
5370,85.0,0.0,360.0,0.0,0.0
5371,61.0,0.0,360.0,8.0,0.0
5372,68.0,2040.0,360.0,7.0,0.0
5373,37.0,0.0,360.0,12.0,0.0
5374,49.0,0.0,360.0,11.0,0.0
5375,77.0,0.0,120.0,1.0,0.0
5376,85.0,240.0,120.0,1.0,0.0
5377,73.0,0.0,360.0,2.0,0.0
5378,61.0,0.0,360.0,4.0,0.0
5379,49.0,0.0,360.0,6.0,0.0
5380,65.0,0.0,360.0,2.0,0.0
5381,49.0,0.0,360.0,3.0,0.0
5382,85.0,0.0,360.0,7.0,0.0
5383,77.0,0.0,360.0,7.0,0.0
5384,49.0,0.0,11880.0,3.0,0.0
5385,49.0,600.0,11880.0,11.0,0.0
5386,61.0,0.0,11880.0,4.0,0.0
5387,37.0,0.0,11880.0,12.0,0.0
5388,61.0,1920.0,1440.0,8.0,0.0
5389,49.0,0.0,11880.0,4.0,0.0
5390,73.0,240.0,1590.0,8.0,0.0
5391,53.0,150.0,1440.0,10.0,0.0
5392,61.0,210.0,30.0,8.0,0.0
5393,62.0,480.0,120.0,8.0,0.0
5394,54.0,360.0,1920.0,10.0,0.0
5395,71.0,450.0,1440.0,7.0,0.0
5396,74.0,840.0,120.0,8.0,0.0
5397,62.0,30.0,90.0,8.0,0.0
5398,56.0,0.0,1920.0,10.0,0.0
5399,65.0,390.0,360.0,8.0,0.0
5400,83.0,30.0,1590.0,7.0,0.0
5401,65.0,180.0,270.0,8.0,0.0
5402,65.0,90.0,90.0,8.0,0.0
5403,65.0,60.0,60.0,8.0,0.0
5404,66.0,60.0,60.0,8.0,0.0
5405,65.0,60.0,60.0,8.0,0.0
5406,66.0,60.0,60.0,8.0,0.0
5407,65.0,60.0,60.0,8.0,0.0
5408,66.0,60.0,60.0,8.0,0.0
5409,65.0,60.0,60.0,8.0,0.0
5410,66.0,60.0,60.0,8.0,0.0
5411,65.0,60.0,60.0,8.0,0.0
5412,66.0,30.0,60.0,8.0,0.0
5413,65.0,60.0,60.0,8.0,0.0
5414,66.0,120.0,60.0,8.0,0.0
5415,63.0,90.0,120.0,8.0,0.0
5416,71.0,30.0,90.0,7.0,0.0
5417,65.0,120.0,120.0,8.0,0.0
5418,70.0,240.0,120.0,7.0,0.0
5419,58.0,240.0,360.0,10.0,0.0
5420,66.0,0.0,360.0,8.0,0.0
5421,61.0,0.0,270.0,8.0,0.0
5422,58.0,180.0,270.0,10.0,0.0
5423,82.0,150.0,120.0,7.0,0.0
5424,58.0,0.0,90.0,10.0,0.0
5425,61.0,90.0,90.0,8.0,0.0
5426,58.0,0.0,60.0,10.0,0.0
5427,61.0,60.0,60.0,8.0,0.0
5428,63.0,0.0,60.0,8.0,0.0
5429,59.0,60.0,60.0,10.0,0.0
5430,61.0,60.0,60.0,8.0,0.0
5431,58.0,0.0,60.0,10.0,0.0
5432,59.0,0.0,60.0,10.0,0.0
5433,63.0,60.0,60.0,8.0,0.0
5434,58.0,60.0,60.0,10.0,0.0
5435,61.0,0.0,60.0,8.0,0.0
5436,63.0,0.0,60.0,8.0,0.0
5437,59.0,60.0,60.0,10.0,0.0
5438,58.0,60.0,60.0,10.0,0.0
5439,61.0,0.0,60.0,8.0,0.0
5440,59.0,60.0,60.0,10.0,0.0
5441,63.0,0.0,60.0,8.0,0.0
5442,61.0,0.0,60.0,8.0,0.0
5443,58.0,60.0,60.0,10.0,0.0
5444,63.0,60.0,60.0,8.0,0.0
5445,59.0,0.0,60.0,10.0,0.0
5446,58.0,0.0,60.0,10.0,0.0
5447,61.0,60.0,60.0,8.0,0.0
5448,63.0,0.0,60.0,8.0,0.0
5449,59.0,120.0,60.0,10.0,0.0
5450,59.0,0.0,120.0,8.0,0.0
5451,56.0,90.0,120.0,10.0,0.0
5452,61.0,0.0,120.0,8.0,0.0
5453,70.0,30.0,90.0,7.0,0.0
5454,58.0,360.0,120.0,10.0,0.0
5455,63.0,0.0,360.0,8.0,0.0
5456,60.0,0.0,1440.0,10.0,0.0
5457,69.0,390.0,360.0,7.0,0.0
5458,66.0,0.0,270.0,8.0,0.0
5459,69.0,180.0,270.0,7.0,0.0
5460,66.0,0.0,90.0,8.0,0.0
5461,69.0,90.0,90.0,7.0,0.0
5462,69.0,60.0,60.0,7.0,0.0
5463,66.0,0.0,60.0,8.0,0.0
5464,71.0,60.0,60.0,7.0,0.0
5465,68.0,0.0,60.0,8.0,0.0
5466,69.0,0.0,60.0,7.0,0.0
5467,66.0,60.0,60.0,8.0,0.0
5468,71.0,0.0,60.0,7.0,0.0
5469,68.0,60.0,60.0,8.0,0.0
5470,69.0,60.0,60.0,7.0,0.0
5471,66.0,0.0,60.0,8.0,0.0
5472,68.0,0.0,60.0,8.0,0.0
5473,71.0,60.0,60.0,7.0,0.0
5474,66.0,60.0,60.0,8.0,0.0
5475,69.0,0.0,60.0,7.0,0.0
5476,71.0,60.0,60.0,7.0,0.0
5477,68.0,0.0,60.0,8.0,0.0
5478,65.0,60.0,120.0,8.0,0.0
5479,69.0,60.0,60.0,7.0,0.0
5480,71.0,0.0,60.0,7.0,0.0
5481,66.0,120.0,120.0,8.0,0.0
5482,69.0,60.0,60.0,7.0,0.0
5483,71.0,0.0,60.0,7.0,0.0
5484,68.0,120.0,120.0,7.0,0.0
5485,69.0,60.0,120.0,7.0,0.0
5486,61.0,0.0,360.0,10.0,0.0
5487,65.0,0.0,60.0,8.0,0.0
5488,68.0,300.0,60.0,7.0,0.0
5489,69.0,0.0,480.0,8.0,0.0
5490,73.0,480.0,480.0,7.0,0.0
5491,71.0,0.0,480.0,7.0,0.0
5492,68.0,480.0,480.0,8.0,0.0
5493,60.0,0.0,480.0,3.0,0.0
5494,48.0,0.0,480.0,12.0,0.0
5495,66.0,60.0,480.0,8.0,0.0
5496,69.0,0.0,480.0,7.0,0.0
5497,60.0,0.0,480.0,11.0,0.0
5498,60.0,0.0,480.0,10.0,0.0
5499,61.0,0.0,480.0,3.0,0.0
5500,68.0,0.0,60.0,7.0,0.0
5501,61.0,0.0,480.0,10.0,0.0
5502,49.0,0.0,480.0,12.0,0.0
5503,65.0,420.0,60.0,8.0,0.0
5504,61.0,480.0,480.0,11.0,0.0
5505,73.0,0.0,480.0,7.0,0.0
5506,69.0,480.0,480.0,8.0,0.0
5507,71.0,0.0,480.0,7.0,0.0
5508,68.0,480.0,480.0,8.0,0.0
5509,60.0,0.0,480.0,3.0,0.0
5510,69.0,0.0,480.0,7.0,0.0
5511,66.0,0.0,480.0,8.0,0.0
5512,48.0,60.0,480.0,12.0,0.0
5513,60.0,0.0,480.0,11.0,0.0
5514,60.0,0.0,480.0,10.0,0.0
5515,61.0,0.0,240.0,10.0,0.0
5516,65.0,0.0,60.0,8.0,0.0
5517,61.0,300.0,240.0,11.0,0.0
5518,68.0,180.0,60.0,7.0,0.0
5519,61.0,0.0,240.0,3.0,0.0
5520,49.0,0.0,240.0,12.0,0.0
5521,48.0,0.0,60.0,12.0,0.0
5522,66.0,0.0,60.0,8.0,0.0
5523,60.0,0.0,60.0,10.0,0.0
5524,69.0,0.0,60.0,7.0,0.0
5525,60.0,480.0,60.0,11.0,0.0
5526,59.0,0.0,60.0,3.0,0.0
5527,68.0,0.0,60.0,7.0,0.0
5528,61.0,0.0,60.0,11.0,0.0
5529,65.0,120.0,60.0,8.0,0.0
5530,61.0,360.0,180.0,10.0,0.0
5531,49.0,0.0,60.0,12.0,0.0
5532,61.0,0.0,60.0,3.0,0.0
5533,60.0,0.0,60.0,11.0,0.0
5534,69.0,0.0,60.0,7.0,0.0
5535,59.0,0.0,60.0,3.0,0.0
5536,48.0,0.0,60.0,12.0,0.0
5537,60.0,0.0,60.0,10.0,0.0
5538,66.0,780.0,60.0,8.0,0.0
5539,68.0,0.0,360.0,7.0,0.0
5540,61.0,0.0,360.0,3.0,0.0
5541,49.0,0.0,360.0,12.0,0.0
5542,61.0,0.0,360.0,10.0,0.0
5543,61.0,0.0,360.0,11.0,0.0
5544,65.0,1650.0,360.0,8.0,0.0
5545,65.0,120.0,90.0,10.0,0.0
5546,70.0,90.0,1440.0,7.0,0.0
5547,58.0,90.0,720.0,11.0,0.0
5548,58.0,0.0,3360.0,4.0,0.0
5549,70.0,0.0,3360.0,5.0,0.0
5550,65.0,0.0,7200.0,3.0,0.0
5551,62.0,0.0,7200.0,3.0,0.0
5552,70.0,0.0,90.0,8.0,0.0
5553,65.0,0.0,90.0,8.0,0.0
5554,70.0,0.0,3360.0,2.0,0.0
5555,82.0,90.0,3360.0,0.0,0.0
5556,46.0,0.0,720.0,12.0,0.0
5557,70.0,0.0,3360.0,1.0,0.0
5558,65.0,0.0,90.0,8.0,0.0
5559,65.0,0.0,90.0,10.0,0.0
5560,70.0,120.0,90.0,8.0,0.0
5561,65.0,0.0,90.0,10.0,0.0
5562,70.0,120.0,90.0,8.0,0.0
5563,65.0,0.0,90.0,8.0,0.0
5564,65.0,0.0,90.0,10.0,0.0
5565,70.0,120.0,90.0,8.0,0.0
5566,65.0,0.0,90.0,8.0,0.0
5567,65.0,0.0,90.0,10.0,0.0
5568,65.0,120.0,90.0,8.0,0.0
5569,70.0,0.0,90.0,8.0,0.0
5570,70.0,0.0,90.0,8.0,0.0
5571,65.0,0.0,90.0,8.0,0.0
5572,65.0,30.0,90.0,10.0,0.0
5573,70.0,120.0,90.0,8.0,0.0
5574,65.0,0.0,90.0,8.0,0.0
5575,65.0,0.0,90.0,10.0,0.0
5576,65.0,120.0,90.0,10.0,0.0
5577,70.0,0.0,90.0,8.0,0.0
5578,65.0,0.0,90.0,8.0,0.0
5579,65.0,0.0,90.0,8.0,0.0
5580,70.0,0.0,90.0,8.0,0.0
5581,65.0,120.0,90.0,10.0,0.0
5582,65.0,120.0,90.0,10.0,0.0
5583,65.0,0.0,90.0,8.0,0.0
5584,70.0,0.0,90.0,8.0,0.0
5585,65.0,0.0,90.0,10.0,0.0
5586,70.0,120.0,90.0,8.0,0.0
5587,65.0,0.0,90.0,8.0,0.0
5588,65.0,0.0,90.0,10.0,0.0
5589,70.0,30.0,90.0,8.0,0.0
5590,65.0,0.0,90.0,8.0,0.0
5591,70.0,120.0,90.0,8.0,0.0
5592,65.0,0.0,90.0,8.0,0.0
5593,65.0,0.0,90.0,10.0,0.0
5594,65.0,0.0,90.0,8.0,0.0
5595,65.0,120.0,90.0,10.0,0.0
5596,70.0,0.0,90.0,8.0,0.0
5597,70.0,0.0,90.0,8.0,0.0
5598,65.0,0.0,90.0,10.0,0.0
5599,65.0,120.0,90.0,8.0,0.0
5600,65.0,120.0,90.0,10.0,0.0
5601,65.0,0.0,90.0,8.0,0.0
5602,70.0,0.0,90.0,8.0,0.0
5603,82.0,60.0,1590.0,7.0,0.0
5604,62.0,120.0,90.0,8.0,0.0
5605,70.0,0.0,90.0,8.0,0.0
5606,65.0,0.0,90.0,10.0,0.0
5607,94.0,0.0,1440.0,0.0,0.0
5608,65.0,0.0,90.0,10.0,0.0
5609,62.0,0.0,90.0,8.0,0.0
5610,70.0,120.0,90.0,8.0,0.0
5611,70.0,0.0,90.0,8.0,0.0
5612,62.0,0.0,90.0,8.0,0.0
5613,65.0,120.0,90.0,10.0,0.0
5614,70.0,0.0,90.0,8.0,0.0
5615,65.0,0.0,90.0,10.0,0.0
5616,62.0,120.0,90.0,8.0,0.0
5617,65.0,0.0,90.0,10.0,0.0
5618,62.0,0.0,90.0,8.0,0.0
5619,70.0,120.0,90.0,8.0,0.0
5620,65.0,0.0,90.0,10.0,0.0
5621,70.0,120.0,90.0,8.0,0.0
5622,62.0,0.0,90.0,8.0,0.0
5623,65.0,0.0,90.0,10.0,0.0
5624,70.0,120.0,90.0,8.0,0.0
5625,62.0,0.0,90.0,8.0,0.0
5626,65.0,0.0,90.0,10.0,0.0
5627,70.0,120.0,90.0,8.0,0.0
5628,62.0,0.0,90.0,8.0,0.0
5629,70.0,120.0,90.0,8.0,0.0
5630,65.0,0.0,90.0,10.0,0.0
5631,62.0,0.0,90.0,8.0,0.0
5632,70.0,120.0,90.0,8.0,0.0
5633,62.0,0.0,90.0,8.0,0.0
5634,65.0,0.0,90.0,10.0,0.0
5635,65.0,120.0,90.0,10.0,0.0
5636,70.0,0.0,90.0,8.0,0.0
5637,62.0,0.0,90.0,8.0,0.0
5638,65.0,30.0,90.0,10.0,0.0
5639,70.0,0.0,90.0,8.0,0.0
5640,62.0,0.0,90.0,8.0,0.0
5641,70.0,0.0,90.0,8.0,0.0
5642,62.0,60.0,90.0,8.0,0.0
5643,65.0,0.0,90.0,10.0,0.0
5644,65.0,0.0,90.0,10.0,0.0
5645,62.0,0.0,90.0,8.0,0.0
5646,70.0,120.0,90.0,8.0,0.0
5647,62.0,0.0,90.0,8.0,0.0
5648,70.0,0.0,90.0,8.0,0.0
5649,65.0,60.0,90.0,10.0,0.0
5650,70.0,120.0,90.0,8.0,0.0
5651,65.0,0.0,90.0,10.0,0.0
5652,62.0,0.0,90.0,8.0,0.0
5653,70.0,60.0,30.0,7.0,0.0
5654,71.0,90.0,120.0,7.0,0.0
5655,74.0,0.0,3360.0,2.0,0.0
5656,71.0,0.0,3360.0,2.0,0.0
5657,80.0,0.0,3360.0,5.0,0.0
5658,68.0,0.0,3360.0,4.0,0.0
5659,65.0,0.0,90.0,10.0,0.0
5660,77.0,0.0,3360.0,1.0,0.0
5661,44.0,90.0,1440.0,12.0,0.0
5662,86.0,0.0,3360.0,1.0,0.0
5663,68.0,0.0,90.0,10.0,0.0
5664,95.0,0.0,3360.0,0.0,0.0
5665,62.0,0.0,90.0,8.0,0.0
5666,71.0,30.0,90.0,8.0,0.0
5667,89.0,0.0,3360.0,0.0,0.0
5668,56.0,0.0,1440.0,11.0,0.0
5669,71.0,0.0,90.0,8.0,0.0
5670,62.0,0.0,90.0,8.0,0.0
5671,68.0,120.0,90.0,10.0,0.0
5672,65.0,0.0,90.0,10.0,0.0
5673,65.0,0.0,90.0,10.0,0.0
5674,62.0,0.0,90.0,8.0,0.0
5675,71.0,120.0,90.0,8.0,0.0
5676,68.0,0.0,90.0,10.0,0.0
5677,71.0,0.0,90.0,8.0,0.0
5678,62.0,0.0,90.0,8.0,0.0
5679,65.0,120.0,90.0,10.0,0.0
5680,68.0,0.0,90.0,10.0,0.0
5681,62.0,0.0,90.0,8.0,0.0
5682,71.0,0.0,90.0,8.0,0.0
5683,65.0,30.0,90.0,10.0,0.0
5684,68.0,0.0,90.0,10.0,0.0
5685,83.0,90.0,120.0,7.0,0.0
5686,65.0,120.0,90.0,10.0,0.0
5687,68.0,0.0,90.0,10.0,0.0
5688,62.0,0.0,90.0,8.0,0.0
5689,71.0,0.0,90.0,8.0,0.0
5690,71.0,0.0,90.0,8.0,0.0
5691,62.0,0.0,90.0,8.0,0.0
5692,68.0,120.0,90.0,10.0,0.0
5693,65.0,0.0,90.0,10.0,0.0
5694,65.0,0.0,90.0,10.0,0.0
5695,68.0,0.0,90.0,10.0,0.0
5696,71.0,0.0,90.0,8.0,0.0
5697,62.0,120.0,90.0,8.0,0.0
5698,71.0,0.0,90.0,8.0,0.0
5699,68.0,120.0,90.0,10.0,0.0
5700,62.0,0.0,90.0,8.0,0.0
5701,65.0,0.0,90.0,10.0,0.0
5702,71.0,120.0,90.0,8.0,0.0
5703,68.0,0.0,90.0,10.0,0.0
5704,65.0,0.0,90.0,10.0,0.0
5705,62.0,0.0,90.0,8.0,0.0
5706,62.0,0.0,90.0,8.0,0.0
5707,65.0,0.0,90.0,10.0,0.0
5708,68.0,120.0,90.0,10.0,0.0
5709,71.0,0.0,90.0,8.0,0.0
5710,65.0,0.0,90.0,10.0,0.0
5711,71.0,0.0,90.0,8.0,0.0
5712,62.0,0.0,90.0,8.0,0.0
5713,68.0,30.0,90.0,10.0,0.0
5714,62.0,120.0,90.0,8.0,0.0
5715,71.0,0.0,90.0,8.0,0.0
5716,68.0,0.0,90.0,10.0,0.0
5717,65.0,0.0,90.0,10.0,0.0
5718,68.0,0.0,90.0,10.0,0.0
5719,62.0,120.0,90.0,8.0,0.0
5720,71.0,0.0,90.0,8.0,0.0
5721,65.0,0.0,90.0,10.0,0.0
5722,68.0,0.0,90.0,10.0,0.0
5723,71.0,0.0,90.0,8.0,0.0
5724,62.0,120.0,90.0,8.0,0.0
5725,65.0,0.0,90.0,10.0,0.0
5726,71.0,0.0,90.0,7.0,0.0
5727,68.0,0.0,90.0,10.0,0.0
5728,71.0,0.0,90.0,8.0,0.0
5729,62.0,0.0,90.0,8.0,0.0
5730,65.0,120.0,90.0,10.0,0.0
5731,71.0,90.0,360.0,7.0,0.0
5732,56.0,30.0,1590.0,12.0,0.0
5733,68.0,0.0,90.0,10.0,0.0
5734,65.0,120.0,90.0,10.0,0.0
5735,68.0,0.0,1590.0,11.0,0.0
5736,62.0,0.0,90.0,8.0,0.0
5737,71.0,0.0,90.0,8.0,0.0
5738,62.0,120.0,90.0,8.0,0.0
5739,71.0,0.0,90.0,8.0,0.0
5740,65.0,0.0,90.0,10.0,0.0
5741,68.0,0.0,90.0,10.0,0.0
5742,71.0,0.0,90.0,8.0,0.0
5743,68.0,0.0,90.0,10.0,0.0
5744,65.0,0.0,90.0,10.0,0.0
5745,62.0,30.0,90.0,8.0,0.0
5746,65.0,0.0,90.0,10.0,0.0
5747,62.0,120.0,90.0,8.0,0.0
5748,68.0,0.0,90.0,10.0,0.0
5749,71.0,0.0,90.0,8.0,0.0
5750,65.0,0.0,90.0,10.0,0.0
5751,68.0,120.0,90.0,10.0,0.0
5752,71.0,60.0,270.0,7.0,0.0
5753,62.0,0.0,90.0,8.0,0.0
5754,71.0,0.0,90.0,8.0,0.0
5755,62.0,0.0,90.0,8.0,0.0
5756,71.0,60.0,90.0,8.0,0.0
5757,68.0,0.0,90.0,10.0,0.0
5758,65.0,0.0,90.0,10.0,0.0
5759,65.0,0.0,90.0,10.0,0.0
5760,68.0,120.0,90.0,10.0,0.0
5761,71.0,0.0,90.0,8.0,0.0
5762,62.0,0.0,90.0,8.0,0.0
5763,71.0,0.0,90.0,8.0,0.0
5764,62.0,0.0,90.0,8.0,0.0
5765,68.0,0.0,90.0,10.0,0.0
5766,65.0,90.0,90.0,10.0,0.0
5767,71.0,0.0,90.0,7.0,0.0
5768,71.0,30.0,60.0,7.0,0.0
5769,68.0,0.0,90.0,10.0,0.0
5770,65.0,0.0,90.0,10.0,0.0
5771,62.0,30.0,90.0,8.0,0.0
5772,71.0,0.0,90.0,8.0,0.0
5773,73.0,60.0,60.0,7.0,0.0
5774,71.0,0.0,90.0,8.0,0.0
5775,62.0,0.0,90.0,8.0,0.0
5776,71.0,30.0,60.0,7.0,0.0
5777,65.0,0.0,90.0,10.0,0.0
5778,68.0,30.0,90.0,10.0,0.0
5779,73.0,60.0,60.0,7.0,0.0
5780,71.0,30.0,60.0,7.0,0.0
5781,62.0,0.0,90.0,8.0,0.0
5782,68.0,30.0,90.0,10.0,0.0
5783,65.0,0.0,90.0,10.0,0.0
5784,71.0,0.0,90.0,8.0,0.0
5785,73.0,60.0,60.0,7.0,0.0
5786,65.0,0.0,90.0,10.0,0.0
5787,68.0,0.0,90.0,10.0,0.0
5788,71.0,0.0,90.0,8.0,0.0
5789,62.0,30.0,90.0,8.0,0.0
5790,71.0,30.0,60.0,7.0,0.0
5791,73.0,60.0,60.0,7.0,0.0
5792,71.0,0.0,90.0,8.0,0.0
5793,62.0,30.0,90.0,8.0,0.0
5794,65.0,0.0,90.0,10.0,0.0
5795,68.0,0.0,90.0,10.0,0.0
5796,71.0,30.0,60.0,7.0,0.0
5797,73.0,30.0,60.0,7.0,0.0
5798,68.0,0.0,90.0,10.0,0.0
5799,71.0,0.0,90.0,8.0,0.0
5800,62.0,30.0,90.0,8.0,0.0
5801,71.0,30.0,60.0,7.0,0.0
5802,65.0,0.0,90.0,10.0,0.0
5803,73.0,90.0,60.0,7.0,0.0
5804,65.0,0.0,90.0,10.0,0.0
5805,70.0,30.0,120.0,7.0,0.0
5806,68.0,0.0,90.0,10.0,0.0
5807,71.0,30.0,90.0,8.0,0.0
5808,62.0,0.0,90.0,8.0,0.0
5809,65.0,0.0,90.0,10.0,0.0
5810,44.0,0.0,30.0,12.0,0.0
5811,68.0,0.0,90.0,10.0,0.0
5812,56.0,60.0,30.0,11.0,0.0
5813,71.0,90.0,120.0,7.0,0.0
5814,71.0,30.0,90.0,8.0,0.0
5815,62.0,0.0,90.0,8.0,0.0
5816,70.0,0.0,3360.0,4.0,0.0
5817,82.0,0.0,3360.0,5.0,0.0
5818,75.0,0.0,4800.0,2.0,0.0
5819,70.0,0.0,90.0,7.0,0.0
5820,70.0,0.0,3360.0,2.0,0.0
5821,43.0,0.0,120.0,12.0,0.0
5822,63.0,0.0,90.0,8.0,0.0
5823,70.0,0.0,90.0,8.0,0.0
5824,75.0,0.0,3360.0,1.0,0.0
5825,94.0,0.0,3360.0,0.0,0.0
5826,82.0,0.0,3360.0,0.0,0.0
5827,63.0,90.0,1440.0,3.0,0.0
5828,55.0,90.0,120.0,11.0,0.0
5829,67.0,0.0,1440.0,3.0,0.0
5830,67.0,30.0,90.0,10.0,0.0
5831,67.0,0.0,90.0,10.0,0.0
5832,70.0,0.0,90.0,8.0,0.0
5833,63.0,0.0,90.0,8.0,0.0
5834,63.0,120.0,90.0,7.0,0.0
5835,65.0,120.0,90.0,7.0,0.0
5836,70.0,0.0,90.0,8.0,0.0
5837,63.0,0.0,90.0,8.0,0.0
5838,67.0,0.0,90.0,10.0,0.0
5839,67.0,120.0,90.0,10.0,0.0
5840,67.0,0.0,90.0,7.0,0.0
5841,70.0,0.0,90.0,8.0,0.0
5842,63.0,0.0,90.0,8.0,0.0
5843,70.0,30.0,90.0,8.0,0.0
5844,68.0,0.0,90.0,7.0,0.0
5845,55.0,0.0,120.0,12.0,0.0
5846,67.0,0.0,90.0,10.0,0.0
5847,63.0,0.0,90.0,8.0,0.0
5848,67.0,90.0,120.0,11.0,0.0
5849,67.0,120.0,90.0,10.0,0.0
5850,70.0,0.0,90.0,8.0,0.0
5851,70.0,0.0,90.0,7.0,0.0
5852,63.0,0.0,90.0,8.0,0.0
5853,72.0,120.0,90.0,7.0,0.0
5854,70.0,0.0,90.0,8.0,0.0
5855,67.0,0.0,90.0,10.0,0.0
5856,63.0,0.0,90.0,8.0,0.0
5857,67.0,120.0,90.0,10.0,0.0
5858,70.0,0.0,90.0,8.0,0.0
5859,63.0,0.0,90.0,8.0,0.0
5860,74.0,0.0,90.0,7.0,0.0
5861,75.0,30.0,180.0,7.0,0.0
5862,70.0,0.0,90.0,8.0,0.0
5863,67.0,0.0,90.0,10.0,0.0
5864,63.0,90.0,90.0,8.0,0.0
5865,70.0,120.0,90.0,8.0,0.0
5866,63.0,0.0,90.0,8.0,0.0
5867,67.0,0.0,90.0,10.0,0.0
5868,67.0,120.0,90.0,10.0,0.0
5869,70.0,0.0,90.0,8.0,0.0
5870,63.0,0.0,90.0,8.0,0.0
5871,77.0,0.0,90.0,7.0,0.0
5872,63.0,0.0,90.0,8.0,0.0
5873,79.0,30.0,90.0,7.0,0.0
5874,70.0,0.0,90.0,8.0,0.0
5875,67.0,0.0,90.0,10.0,0.0
5876,67.0,0.0,90.0,10.0,0.0
5877,63.0,0.0,90.0,8.0,0.0
5878,70.0,120.0,90.0,8.0,0.0
5879,80.0,0.0,90.0,7.0,0.0
5880,82.0,0.0,90.0,7.0,0.0
5881,67.0,0.0,90.0,10.0,0.0
5882,70.0,120.0,90.0,8.0,0.0
5883,63.0,0.0,90.0,8.0,0.0
5884,84.0,0.0,90.0,7.0,0.0
5885,70.0,120.0,90.0,8.0,0.0
5886,63.0,0.0,90.0,8.0,0.0
5887,67.0,0.0,90.0,10.0,0.0
5888,43.0,0.0,90.0,12.0,0.0
5889,86.0,120.0,90.0,7.0,0.0
5890,70.0,0.0,90.0,8.0,0.0
5891,63.0,0.0,90.0,8.0,0.0
5892,67.0,0.0,90.0,10.0,0.0
5893,55.0,0.0,90.0,11.0,0.0
5894,70.0,0.0,90.0,8.0,0.0
5895,63.0,120.0,90.0,8.0,0.0
5896,66.0,0.0,1440.0,3.0,0.0
5897,66.0,0.0,90.0,10.0,0.0
5898,87.0,0.0,90.0,7.0,0.0
5899,42.0,0.0,360.0,12.0,0.0
5900,66.0,0.0,1440.0,4.0,0.0
5901,54.0,90.0,360.0,11.0,0.0
5902,78.0,0.0,1440.0,5.0,0.0
5903,63.0,60.0,1440.0,3.0,0.0
5904,63.0,0.0,90.0,8.0,0.0
5905,70.0,0.0,90.0,8.0,0.0
5906,66.0,120.0,90.0,10.0,0.0
5907,87.0,0.0,90.0,7.0,0.0
5908,87.0,0.0,90.0,7.0,0.0
5909,70.0,0.0,90.0,8.0,0.0
5910,63.0,0.0,90.0,8.0,0.0
5911,66.0,30.0,90.0,10.0,0.0
5912,63.0,120.0,90.0,8.0,0.0
5913,87.0,0.0,90.0,7.0,0.0
5914,66.0,0.0,90.0,10.0,0.0
5915,70.0,0.0,90.0,8.0,0.0
5916,87.0,0.0,90.0,7.0,0.0
5917,70.0,0.0,90.0,8.0,0.0
5918,42.0,0.0,270.0,12.0,0.0
5919,63.0,0.0,90.0,8.0,0.0
5920,66.0,120.0,90.0,10.0,0.0
5921,54.0,60.0,270.0,11.0,0.0
5922,63.0,0.0,90.0,8.0,0.0
5923,70.0,0.0,90.0,8.0,0.0
5924,66.0,0.0,90.0,10.0,0.0
5925,87.0,60.0,90.0,7.0,0.0
5926,87.0,120.0,90.0,7.0,0.0
5927,66.0,0.0,90.0,10.0,0.0
5928,63.0,0.0,90.0,8.0,0.0
5929,70.0,0.0,90.0,8.0,0.0
5930,54.0,0.0,90.0,11.0,0.0
5931,87.0,0.0,90.0,7.0,0.0
5932,63.0,0.0,90.0,8.0,0.0
5933,70.0,90.0,90.0,8.0,0.0
5934,42.0,0.0,90.0,12.0,0.0
5935,66.0,0.0,90.0,10.0,0.0
5936,70.0,0.0,90.0,10.0,0.0
5937,87.0,30.0,90.0,7.0,0.0
5938,82.0,0.0,90.0,8.0,0.0
5939,42.0,0.0,60.0,12.0,0.0
5940,54.0,30.0,60.0,11.0,0.0
5941,44.0,0.0,60.0,12.0,0.0
5942,56.0,60.0,60.0,11.0,0.0
5943,82.0,0.0,90.0,8.0,0.0
5944,87.0,0.0,90.0,7.0,0.0
5945,42.0,30.0,60.0,12.0,0.0
5946,70.0,30.0,90.0,10.0,0.0
5947,54.0,0.0,60.0,11.0,0.0
5948,56.0,60.0,60.0,11.0,0.0
5949,44.0,0.0,60.0,12.0,0.0
5950,70.0,0.0,90.0,10.0,0.0
5951,82.0,0.0,90.0,8.0,0.0
5952,87.0,30.0,90.0,7.0,0.0
5953,54.0,0.0,60.0,11.0,0.0
5954,42.0,30.0,60.0,12.0,0.0
5955,56.0,60.0,60.0,11.0,0.0
5956,44.0,0.0,60.0,12.0,0.0
5957,70.0,30.0,90.0,10.0,0.0
5958,82.0,0.0,90.0,8.0,0.0
5959,87.0,0.0,90.0,7.0,0.0
5960,54.0,0.0,60.0,11.0,0.0
5961,42.0,30.0,60.0,12.0,0.0
5962,56.0,0.0,60.0,11.0,0.0
5963,44.0,0.0,60.0,12.0,0.0
5964,82.0,30.0,90.0,8.0,0.0
5965,87.0,0.0,90.0,7.0,0.0
5966,54.0,0.0,60.0,11.0,0.0
5967,70.0,0.0,90.0,10.0,0.0
5968,42.0,30.0,60.0,12.0,0.0
5969,56.0,0.0,60.0,11.0,0.0
5970,44.0,60.0,60.0,12.0,0.0
5971,70.0,30.0,90.0,10.0,0.0
5972,54.0,30.0,60.0,11.0,0.0
5973,42.0,0.0,60.0,12.0,0.0
5974,82.0,0.0,90.0,8.0,0.0
5975,87.0,0.0,90.0,7.0,0.0
5976,56.0,90.0,60.0,11.0,0.0
5977,44.0,0.0,60.0,12.0,0.0
5978,41.0,0.0,120.0,12.0,0.0
5979,53.0,90.0,120.0,11.0,0.0
5980,70.0,0.0,90.0,10.0,0.0
5981,82.0,0.0,90.0,8.0,0.0
5982,87.0,30.0,90.0,7.0,0.0
5983,54.0,0.0,120.0,11.0,0.0
5984,42.0,90.0,120.0,12.0,0.0
5985,87.0,30.0,90.0,7.0,0.0
5986,70.0,0.0,90.0,10.0,0.0
5987,82.0,0.0,90.0,8.0,0.0
5988,87.0,0.0,15.0,1.0,0.0
5989,93.0,0.0,960.0,0.0,0.0
5990,84.0,0.0,960.0,0.0,0.0
5991,53.0,0.0,120.0,11.0,0.0
5992,84.0,90.0,960.0,1.0,0.0
5993,41.0,90.0,120.0,12.0,0.0
5994,69.0,0.0,960.0,3.0,0.0
5995,87.0,0.0,90.0,7.0,0.0
5996,81.0,30.0,90.0,8.0,0.0
5997,65.0,0.0,1920.0,3.0,0.0
5998,72.0,0.0,960.0,2.0,0.0
5999,72.0,0.0,90.0,10.0,0.0
6000,87.0,0.0,90.0,7.0,0.0
6001,81.0,120.0,90.0,8.0,0.0
6002,72.0,0.0,90.0,10.0,0.0
6003,81.0,120.0,90.0,8.0,0.0
6004,72.0,0.0,90.0,10.0,0.0
6005,87.0,0.0,90.0,7.0,0.0
6006,72.0,0.0,90.0,10.0,0.0
6007,87.0,120.0,90.0,7.0,0.0
6008,81.0,0.0,90.0,8.0,0.0
6009,81.0,30.0,90.0,8.0,0.0
6010,53.0,0.0,120.0,12.0,0.0
6011,72.0,0.0,90.0,10.0,0.0
6012,65.0,90.0,120.0,11.0,0.0
6013,87.0,0.0,90.0,7.0,0.0
6014,81.0,120.0,90.0,8.0,0.0
6015,72.0,0.0,90.0,10.0,0.0
6016,87.0,0.0,90.0,7.0,0.0
6017,72.0,0.0,90.0,10.0,0.0
6018,81.0,120.0,90.0,8.0,0.0
6019,87.0,0.0,90.0,7.0,0.0
6020,81.0,0.0,90.0,8.0,0.0
6021,87.0,0.0,90.0,7.0,0.0
6022,72.0,30.0,90.0,10.0,0.0
6023,82.0,0.0,90.0,8.0,0.0
6024,70.0,0.0,960.0,3.0,0.0
6025,73.0,120.0,90.0,10.0,0.0
6026,73.0,0.0,960.0,2.0,0.0
6027,82.0,0.0,960.0,1.0,0.0
6028,85.0,0.0,960.0,1.0,0.0
6029,70.0,0.0,960.0,2.0,0.0
6030,94.0,0.0,960.0,0.0,0.0
6031,85.0,90.0,960.0,0.0,0.0
6032,85.0,0.0,90.0,7.0,0.0
6033,85.0,0.0,90.0,7.0,0.0
6034,73.0,0.0,90.0,10.0,0.0
6035,82.0,120.0,90.0,8.0,0.0
6036,85.0,0.0,90.0,7.0,0.0
6037,73.0,0.0,90.0,10.0,0.0
6038,82.0,120.0,90.0,8.0,0.0
6039,73.0,0.0,90.0,10.0,0.0
6040,82.0,120.0,90.0,8.0,0.0
6041,85.0,0.0,90.0,7.0,0.0
6042,85.0,0.0,90.0,7.0,0.0
6043,82.0,0.0,90.0,8.0,0.0
6044,73.0,120.0,90.0,10.0,0.0
6045,85.0,120.0,90.0,7.0,0.0
6046,73.0,0.0,90.0,10.0,0.0
6047,82.0,0.0,90.0,8.0,0.0
6048,82.0,0.0,90.0,8.0,0.0
6049,73.0,60.0,90.0,10.0,0.0
6050,85.0,0.0,90.0,7.0,0.0
6051,53.0,0.0,30.0,11.0,0.0
6052,73.0,0.0,90.0,10.0,0.0
6053,82.0,30.0,90.0,8.0,0.0
6054,41.0,60.0,30.0,12.0,0.0
6055,85.0,0.0,90.0,7.0,0.0
6056,84.0,0.0,960.0,1.0,0.0
6057,63.0,0.0,960.0,3.0,0.0
6058,53.0,90.0,120.0,11.0,0.0
6059,93.0,0.0,960.0,0.0,0.0
6060,69.0,0.0,960.0,2.0,0.0
6061,72.0,0.0,960.0,2.0,0.0
6062,84.0,30.0,90.0,7.0,0.0
6063,78.0,90.0,960.0,1.0,0.0
6064,78.0,0.0,90.0,8.0,0.0
6065,75.0,0.0,90.0,10.0,0.0
6066,41.0,0.0,120.0,12.0,0.0
6067,87.0,0.0,960.0,0.0,0.0
6068,75.0,120.0,90.0,10.0,0.0
6069,84.0,0.0,90.0,7.0,0.0
6070,78.0,0.0,90.0,8.0,0.0
6071,75.0,0.0,90.0,10.0,0.0
6072,84.0,120.0,90.0,7.0,0.0
6073,78.0,0.0,90.0,8.0,0.0
6074,84.0,0.0,90.0,7.0,0.0
6075,78.0,0.0,90.0,8.0,0.0
6076,75.0,120.0,90.0,10.0,0.0
6077,65.0,90.0,120.0,11.0,0.0
6078,53.0,0.0,120.0,12.0,0.0
6079,75.0,0.0,90.0,10.0,0.0
6080,84.0,0.0,90.0,7.0,0.0
6081,78.0,30.0,90.0,8.0,0.0
6082,75.0,0.0,90.0,10.0,0.0
6083,78.0,120.0,90.0,8.0,0.0
6084,84.0,0.0,90.0,7.0,0.0
6085,84.0,120.0,90.0,7.0,0.0
6086,75.0,0.0,90.0,10.0,0.0
6087,78.0,0.0,90.0,8.0,0.0
6088,78.0,30.0,90.0,8.0,0.0
6089,75.0,0.0,90.0,10.0,0.0
6090,84.0,0.0,90.0,7.0,0.0
6091,82.0,0.0,90.0,7.0,0.0
6092,73.0,0.0,90.0,10.0,0.0
6093,61.0,0.0,960.0,3.0,0.0
6094,70.0,0.0,960.0,2.0,0.0
6095,94.0,90.0,960.0,0.0,0.0
6096,85.0,0.0,960.0,0.0,0.0
6097,77.0,0.0,960.0,1.0,0.0
6098,73.0,0.0,960.0,2.0,0.0
6099,77.0,120.0,90.0,8.0,0.0
6100,82.0,0.0,960.0,1.0,0.0
6101,82.0,0.0,90.0,7.0,0.0
6102,73.0,120.0,90.0,10.0,0.0
6103,77.0,0.0,90.0,8.0,0.0
6104,82.0,120.0,90.0,7.0,0.0
6105,77.0,0.0,90.0,8.0,0.0
6106,73.0,0.0,90.0,10.0,0.0
6107,73.0,120.0,90.0,10.0,0.0
6108,77.0,0.0,90.0,8.0,0.0
6109,82.0,0.0,90.0,7.0,0.0
6110,82.0,0.0,90.0,7.0,0.0
6111,77.0,120.0,90.0,8.0,0.0
6112,73.0,0.0,90.0,10.0,0.0
6113,73.0,0.0,90.0,10.0,0.0
6114,82.0,120.0,90.0,7.0,0.0
6115,77.0,0.0,90.0,8.0,0.0
6116,82.0,0.0,90.0,7.0,0.0
6117,77.0,0.0,90.0,8.0,0.0
6118,73.0,60.0,90.0,10.0,0.0
6119,73.0,0.0,90.0,10.0,0.0
6120,82.0,30.0,90.0,7.0,0.0
6121,53.0,60.0,30.0,11.0,0.0
6122,41.0,0.0,30.0,12.0,0.0
6123,77.0,0.0,90.0,8.0,0.0
6124,75.0,0.0,90.0,8.0,0.0
6125,60.0,90.0,960.0,3.0,0.0
6126,81.0,0.0,90.0,7.0,0.0
6127,53.0,0.0,120.0,11.0,0.0
6128,65.0,0.0,3840.0,2.0,0.0
6129,41.0,90.0,120.0,12.0,0.0
6130,93.0,0.0,960.0,0.0,0.0
6131,84.0,0.0,960.0,0.0,0.0
6132,75.0,0.0,960.0,1.0,0.0
6133,81.0,20.0,900.0,1.0,0.0
6134,72.0,30.0,90.0,10.0,0.0
6135,81.0,0.0,90.0,7.0,0.0
6136,75.0,120.0,90.0,8.0,0.0
6137,72.0,0.0,90.0,10.0,0.0
6138,75.0,120.0,90.0,8.0,0.0
6139,81.0,0.0,90.0,7.0,0.0
6140,72.0,0.0,90.0,10.0,0.0
6141,81.0,0.0,90.0,7.0,0.0
6142,75.0,0.0,90.0,8.0,0.0
6143,72.0,120.0,90.0,10.0,0.0
6144,75.0,0.0,90.0,8.0,0.0
6145,65.0,90.0,120.0,11.0,0.0
6146,72.0,0.0,90.0,10.0,0.0
6147,53.0,0.0,120.0,12.0,0.0
6148,81.0,30.0,90.0,7.0,0.0
6149,81.0,120.0,90.0,7.0,0.0
6150,75.0,0.0,90.0,8.0,0.0
6151,72.0,0.0,90.0,10.0,0.0
6152,75.0,0.0,90.0,8.0,0.0
6153,72.0,100.0,90.0,10.0,0.0
6154,81.0,0.0,90.0,7.0,0.0
6155,81.0,0.0,90.0,7.0,0.0
6156,72.0,30.0,90.0,10.0,0.0
6157,75.0,0.0,90.0,8.0,0.0
6158,78.0,0.0,960.0,1.0,0.0
6159,73.0,0.0,960.0,1.0,0.0
6160,78.0,0.0,90.0,7.0,0.0
6161,82.0,90.0,960.0,0.0,0.0
6162,90.0,0.0,960.0,0.0,0.0
6163,70.0,0.0,90.0,10.0,0.0
6164,58.0,90.0,480.0,3.0,0.0
6165,73.0,120.0,90.0,8.0,0.0
6166,78.0,120.0,90.0,7.0,0.0
6167,70.0,0.0,90.0,10.0,0.0
6168,73.0,0.0,90.0,8.0,0.0
6169,70.0,0.0,90.0,10.0,0.0
6170,73.0,120.0,90.0,8.0,0.0
6171,78.0,0.0,90.0,7.0,0.0
6172,70.0,0.0,90.0,10.0,0.0
6173,73.0,30.0,90.0,8.0,0.0
6174,78.0,0.0,90.0,7.0,0.0
6175,73.0,0.0,90.0,8.0,0.0
6176,78.0,0.0,90.0,7.0,0.0
6177,70.0,0.0,480.0,3.0,0.0
6178,70.0,120.0,90.0,10.0,0.0
6179,73.0,120.0,90.0,8.0,0.0
6180,78.0,0.0,90.0,7.0,0.0
6181,70.0,0.0,90.0,10.0,0.0
6182,73.0,60.0,90.0,8.0,0.0
6183,78.0,0.0,90.0,7.0,0.0
6184,70.0,0.0,90.0,10.0,0.0
6185,53.0,60.0,30.0,11.0,0.0
6186,41.0,0.0,30.0,12.0,0.0
6187,78.0,0.0,90.0,7.0,0.0
6188,70.0,30.0,90.0,10.0,0.0
6189,73.0,0.0,90.0,8.0,0.0
6190,53.0,90.0,120.0,11.0,0.0
6191,77.0,0.0,960.0,1.0,0.0
6192,72.0,0.0,960.0,1.0,0.0
6193,72.0,0.0,90.0,8.0,0.0
6194,84.0,0.0,960.0,0.0,0.0
6195,41.0,0.0,120.0,12.0,0.0
6196,69.0,0.0,90.0,10.0,0.0
6197,69.0,90.0,960.0,3.0,0.0
6198,77.0,30.0,90.0,7.0,0.0
6199,89.0,0.0,960.0,0.0,0.0
6200,69.0,0.0,90.0,10.0,0.0
6201,72.0,0.0,90.0,8.0,0.0
6202,77.0,120.0,90.0,7.0,0.0
6203,77.0,0.0,90.0,7.0,0.0
6204,69.0,0.0,90.0,10.0,0.0
6205,72.0,120.0,90.0,8.0,0.0
6206,72.0,0.0,90.0,8.0,0.0
6207,77.0,0.0,90.0,7.0,0.0
6208,69.0,120.0,90.0,10.0,0.0
6209,65.0,0.0,120.0,11.0,0.0
6210,72.0,30.0,90.0,8.0,0.0
6211,77.0,0.0,90.0,7.0,0.0
6212,69.0,0.0,90.0,10.0,0.0
6213,53.0,90.0,120.0,12.0,0.0
6214,69.0,0.0,90.0,10.0,0.0
6215,72.0,0.0,90.0,8.0,0.0
6216,77.0,120.0,90.0,7.0,0.0
6217,72.0,0.0,90.0,8.0,0.0
6218,77.0,0.0,90.0,7.0,0.0
6219,69.0,120.0,90.0,10.0,0.0
6220,77.0,0.0,90.0,7.0,0.0
6221,72.0,0.0,90.0,8.0,0.0
6222,69.0,30.0,90.0,10.0,0.0
6223,70.0,120.0,90.0,10.0,0.0
6224,73.0,0.0,90.0,8.0,0.0
6225,70.0,0.0,960.0,3.0,0.0
6226,73.0,0.0,960.0,1.0,0.0
6227,76.0,0.0,960.0,1.0,0.0
6228,76.0,0.0,90.0,7.0,0.0
6229,88.0,0.0,960.0,0.0,0.0
6230,85.0,180.0,960.0,0.0,0.0
6231,73.0,0.0,90.0,8.0,0.0
6232,70.0,120.0,90.0,10.0,0.0
6233,76.0,0.0,90.0,7.0,0.0
6234,70.0,120.0,90.0,10.0,0.0
6235,73.0,0.0,90.0,8.0,0.0
6236,76.0,0.0,90.0,7.0,0.0
6237,73.0,120.0,90.0,8.0,0.0
6238,70.0,0.0,90.0,10.0,0.0
6239,76.0,0.0,90.0,7.0,0.0
6240,76.0,0.0,90.0,7.0,0.0
6241,73.0,120.0,90.0,8.0,0.0
6242,70.0,0.0,90.0,10.0,0.0
6243,73.0,0.0,90.0,8.0,0.0
6244,70.0,120.0,90.0,10.0,0.0
6245,76.0,0.0,90.0,7.0,0.0
6246,73.0,0.0,90.0,8.0,0.0
6247,70.0,120.0,90.0,10.0,0.0
6248,76.0,0.0,90.0,7.0,0.0
6249,73.0,30.0,90.0,8.0,0.0
6250,53.0,0.0,90.0,11.0,0.0
6251,76.0,0.0,90.0,7.0,0.0
6252,41.0,0.0,90.0,12.0,0.0
6253,70.0,0.0,90.0,10.0,0.0
6254,69.0,0.0,180.0,10.0,0.0
6255,65.0,180.0,480.0,2.0,0.0
6256,41.0,0.0,180.0,12.0,0.0
6257,72.0,0.0,360.0,1.0,0.0
6258,53.0,0.0,180.0,11.0,0.0
6259,89.0,0.0,2280.0,0.0,0.0
6260,84.0,0.0,360.0,0.0,0.0
6261,69.0,0.0,360.0,3.0,0.0
6262,72.0,180.0,180.0,8.0,0.0
6263,77.0,0.0,180.0,7.0,0.0
6264,77.0,120.0,360.0,1.0,0.0
6265,53.0,0.0,180.0,12.0,0.0
6266,65.0,0.0,180.0,11.0,0.0
6267,73.0,0.0,180.0,8.0,0.0
6268,77.0,0.0,180.0,7.0,0.0
6269,70.0,480.0,180.0,10.0,0.0
6270,77.0,0.0,180.0,7.0,0.0
6271,41.0,0.0,180.0,12.0,0.0
6272,69.0,0.0,180.0,10.0,0.0
6273,72.0,480.0,180.0,8.0,0.0
6274,53.0,0.0,180.0,11.0,0.0
6275,70.0,0.0,180.0,10.0,0.0
6276,53.0,660.0,180.0,12.0,0.0
6277,77.0,0.0,180.0,7.0,0.0
6278,65.0,0.0,180.0,11.0,0.0
6279,72.0,0.0,180.0,8.0,0.0
6280,69.0,120.0,360.0,10.0,0.0
6281,77.0,0.0,480.0,1.0,0.0
6282,69.0,0.0,480.0,1.0,0.0
6283,65.0,0.0,480.0,3.0,0.0
6284,41.0,0.0,360.0,12.0,0.0
6285,53.0,0.0,360.0,11.0,0.0
6286,57.0,480.0,480.0,3.0,0.0
6287,72.0,0.0,360.0,8.0,0.0
6288,77.0,0.0,360.0,7.0,0.0
6289,72.0,480.0,480.0,1.0,0.0
6290,60.0,0.0,480.0,3.0,0.0
6291,63.0,0.0,480.0,3.0,0.0
6292,75.0,0.0,480.0,1.0,0.0
6293,70.0,0.0,480.0,1.0,0.0
6294,73.0,0.0,480.0,1.0,0.0
6295,61.0,480.0,480.0,3.0,0.0
6296,58.0,0.0,480.0,3.0,0.0
6297,60.0,0.0,480.0,3.0,0.0
6298,57.0,0.0,480.0,3.0,0.0
6299,72.0,0.0,480.0,1.0,0.0
6300,69.0,360.0,480.0,1.0,0.0
6301,70.0,840.0,1440.0,8.0,0.0
6302,58.0,960.0,360.0,11.0,0.0
6303,58.0,0.0,360.0,3.0,0.0
6304,46.0,0.0,360.0,12.0,0.0
6305,61.0,0.0,1440.0,10.0,0.0
6306,70.0,0.0,360.0,1.0,0.0
6307,53.0,120.0,360.0,11.0,0.0
6308,41.0,0.0,360.0,12.0,0.0
6309,73.0,150.0,1440.0,10.0,0.0
6310,82.0,240.0,1590.0,8.0,0.0
6311,49.0,960.0,360.0,11.0,0.0
6312,37.0,0.0,360.0,12.0,0.0
6313,46.0,0.0,360.0,11.0,0.0
6314,34.0,120.0,360.0,12.0,0.0
6315,77.0,120.0,480.0,1.0,0.0
6316,70.0,90.0,30.0,8.0,0.0
6317,41.0,0.0,360.0,12.0,0.0
6318,72.0,60.0,3360.0,10.0,0.0
6319,69.0,240.0,120.0,8.0,0.0
6320,75.0,450.0,1440.0,7.0,0.0
6321,78.0,120.0,480.0,1.0,0.0
6322,53.0,120.0,360.0,11.0,0.0
6323,81.0,360.0,120.0,8.0,0.0
6324,77.0,360.0,480.0,1.0,0.0
6325,45.0,120.0,360.0,12.0,0.0
6326,57.0,0.0,360.0,11.0,0.0
6327,77.0,360.0,480.0,1.0,0.0
6328,69.0,30.0,90.0,8.0,0.0
6329,69.0,0.0,360.0,8.0,0.0
6330,60.0,120.0,360.0,11.0,0.0
6331,78.0,270.0,480.0,1.0,0.0
6332,48.0,0.0,360.0,12.0,0.0
6333,87.0,30.0,1590.0,7.0,0.0
6334,69.0,180.0,270.0,8.0,0.0
6335,77.0,60.0,480.0,1.0,0.0
6336,69.0,30.0,90.0,8.0,0.0
6337,53.0,0.0,360.0,12.0,0.0
6338,65.0,60.0,360.0,11.0,0.0
6339,69.0,60.0,60.0,8.0,0.0
6340,70.0,60.0,60.0,8.0,0.0
6341,69.0,60.0,60.0,8.0,0.0
6342,70.0,60.0,60.0,8.0,0.0
6343,69.0,60.0,60.0,8.0,0.0
6344,70.0,0.0,60.0,8.0,0.0
6345,69.0,60.0,60.0,8.0,0.0
6346,70.0,0.0,60.0,8.0,0.0
6347,69.0,60.0,60.0,8.0,0.0
6348,65.0,120.0,480.0,3.0,0.0
6349,70.0,30.0,60.0,8.0,0.0
6350,69.0,60.0,60.0,8.0,0.0
6351,70.0,120.0,60.0,8.0,0.0
6352,67.0,30.0,120.0,8.0,0.0
6353,75.0,90.0,30.0,7.0,0.0
6354,69.0,0.0,120.0,8.0,0.0
6355,68.0,450.0,1440.0,8.0,0.0
6356,74.0,240.0,120.0,7.0,0.0
6357,71.0,120.0,480.0,3.0,0.0
6358,65.0,60.0,3360.0,10.0,0.0
6359,58.0,0.0,360.0,11.0,0.0
6360,46.0,120.0,360.0,12.0,0.0
6361,70.0,360.0,480.0,3.0,0.0
6362,86.0,360.0,120.0,7.0,0.0
6363,53.0,0.0,360.0,11.0,0.0
6364,41.0,120.0,360.0,12.0,0.0
6365,70.0,360.0,480.0,3.0,0.0
6366,74.0,30.0,90.0,7.0,0.0
6367,74.0,0.0,360.0,7.0,0.0
6368,38.0,120.0,360.0,12.0,0.0
6369,71.0,270.0,480.0,3.0,0.0
6370,80.0,30.0,1590.0,8.0,0.0
6371,50.0,0.0,360.0,11.0,0.0
6372,70.0,60.0,480.0,3.0,0.0
6373,74.0,180.0,270.0,7.0,0.0
6374,74.0,30.0,90.0,7.0,0.0
6375,46.0,60.0,360.0,11.0,0.0
6376,34.0,0.0,360.0,12.0,0.0
6377,74.0,60.0,60.0,7.0,0.0
6378,75.0,60.0,60.0,7.0,0.0
6379,74.0,60.0,60.0,7.0,0.0
6380,75.0,60.0,60.0,7.0,0.0
6381,74.0,60.0,60.0,7.0,0.0
6382,75.0,0.0,60.0,7.0,0.0
6383,74.0,60.0,60.0,7.0,0.0
6384,75.0,0.0,60.0,7.0,0.0
6385,74.0,60.0,60.0,7.0,0.0
6386,70.0,0.0,480.0,1.0,0.0
6387,75.0,30.0,60.0,7.0,0.0
6388,74.0,60.0,60.0,7.0,0.0
6389,75.0,120.0,60.0,7.0,0.0
6390,72.0,30.0,120.0,7.0,0.0
6391,74.0,120.0,120.0,7.0,0.0
6392,68.0,90.0,30.0,8.0,0.0
6393,39.0,0.0,360.0,12.0,0.0
6394,67.0,240.0,120.0,8.0,0.0
6395,76.0,120.0,480.0,1.0,0.0
6396,73.0,450.0,1440.0,7.0,0.0
6397,70.0,60.0,3360.0,10.0,0.0
6398,51.0,120.0,360.0,11.0,0.0
6399,75.0,360.0,480.0,1.0,0.0
6400,79.0,360.0,120.0,8.0,0.0
6401,55.0,120.0,360.0,11.0,0.0
6402,43.0,0.0,360.0,12.0,0.0
6403,75.0,360.0,480.0,1.0,0.0
6404,67.0,30.0,90.0,8.0,0.0
6405,85.0,30.0,1590.0,7.0,0.0
6406,58.0,120.0,360.0,11.0,0.0
6407,46.0,0.0,360.0,12.0,0.0
6408,76.0,270.0,480.0,1.0,0.0
6409,67.0,0.0,360.0,8.0,0.0
6410,67.0,180.0,270.0,8.0,0.0
6411,75.0,60.0,480.0,1.0,0.0
6412,67.0,30.0,90.0,8.0,0.0
6413,51.0,0.0,360.0,12.0,0.0
6414,67.0,60.0,60.0,8.0,0.0
6415,63.0,0.0,360.0,11.0,0.0
6416,68.0,60.0,60.0,8.0,0.0
6417,67.0,60.0,60.0,8.0,0.0
6418,68.0,60.0,60.0,8.0,0.0
6419,67.0,60.0,60.0,8.0,0.0
6420,68.0,60.0,60.0,8.0,0.0
6421,67.0,60.0,60.0,8.0,0.0
6422,68.0,0.0,60.0,8.0,0.0
6423,67.0,60.0,60.0,8.0,0.0
6424,63.0,0.0,480.0,3.0,0.0
6425,68.0,30.0,60.0,8.0,0.0
6426,67.0,60.0,60.0,8.0,0.0
6427,68.0,120.0,60.0,8.0,0.0
6428,65.0,90.0,120.0,8.0,0.0
6429,67.0,120.0,120.0,8.0,0.0
6430,73.0,30.0,90.0,7.0,0.0
6431,69.0,120.0,480.0,3.0,0.0
6432,56.0,0.0,360.0,12.0,0.0
6433,66.0,450.0,1440.0,8.0,0.0
6434,63.0,0.0,3360.0,10.0,0.0
6435,72.0,240.0,120.0,7.0,0.0
6436,68.0,120.0,360.0,11.0,0.0
6437,84.0,360.0,120.0,7.0,0.0
6438,68.0,360.0,480.0,3.0,0.0
6439,51.0,120.0,360.0,12.0,0.0
6440,63.0,0.0,360.0,11.0,0.0
6441,68.0,360.0,480.0,3.0,0.0
6442,72.0,30.0,90.0,7.0,0.0
6443,69.0,270.0,480.0,3.0,0.0
6444,78.0,30.0,1590.0,8.0,0.0
6445,60.0,0.0,360.0,11.0,0.0
6446,48.0,0.0,360.0,12.0,0.0
6447,72.0,120.0,360.0,7.0,0.0
6448,72.0,180.0,270.0,7.0,0.0
6449,68.0,60.0,480.0,3.0,0.0
6450,72.0,30.0,90.0,7.0,0.0
6451,44.0,0.0,360.0,12.0,0.0
6452,72.0,60.0,60.0,7.0,0.0
6453,56.0,0.0,360.0,11.0,0.0
6454,73.0,60.0,60.0,7.0,0.0
6455,72.0,60.0,60.0,7.0,0.0
6456,73.0,60.0,60.0,7.0,0.0
6457,72.0,60.0,60.0,7.0,0.0
6458,73.0,60.0,60.0,7.0,0.0
6459,72.0,60.0,60.0,7.0,0.0
6460,73.0,60.0,60.0,7.0,0.0
6461,72.0,60.0,60.0,7.0,0.0
6462,68.0,0.0,480.0,1.0,0.0
6463,73.0,30.0,60.0,7.0,0.0
6464,72.0,60.0,60.0,7.0,0.0
6465,73.0,120.0,60.0,7.0,0.0
6466,70.0,30.0,120.0,7.0,0.0
6467,72.0,120.0,120.0,7.0,0.0
6468,66.0,90.0,30.0,8.0,0.0
6469,68.0,60.0,3360.0,10.0,0.0
6470,37.0,120.0,360.0,12.0,0.0
6471,71.0,450.0,1440.0,7.0,0.0
6472,74.0,120.0,480.0,1.0,0.0
6473,49.0,0.0,360.0,11.0,0.0
6474,65.0,240.0,120.0,8.0,0.0
6475,73.0,360.0,480.0,1.0,0.0
6476,77.0,360.0,120.0,8.0,0.0
6477,41.0,120.0,360.0,12.0,0.0
6478,53.0,0.0,360.0,11.0,0.0
6479,73.0,360.0,480.0,1.0,0.0
6480,65.0,30.0,90.0,8.0,0.0
6481,45.0,0.0,360.0,12.0,0.0
6482,57.0,120.0,360.0,11.0,0.0
6483,74.0,270.0,480.0,1.0,0.0
6484,65.0,0.0,360.0,8.0,0.0
6485,83.0,0.0,1440.0,7.0,0.0
6486,65.0,180.0,270.0,8.0,0.0
6487,73.0,60.0,480.0,1.0,0.0
6488,65.0,30.0,90.0,8.0,0.0
6489,49.0,60.0,360.0,12.0,0.0
6490,65.0,60.0,60.0,8.0,0.0
6491,61.0,0.0,360.0,11.0,0.0
6492,66.0,60.0,60.0,8.0,0.0
6493,65.0,60.0,60.0,8.0,0.0
6494,66.0,60.0,60.0,8.0,0.0
6495,65.0,60.0,60.0,8.0,0.0
6496,66.0,0.0,60.0,8.0,0.0
6497,65.0,60.0,60.0,8.0,0.0
6498,66.0,0.0,60.0,8.0,0.0
6499,65.0,60.0,60.0,8.0,0.0
6500,66.0,60.0,60.0,8.0,0.0
6501,65.0,60.0,60.0,8.0,0.0
6502,66.0,120.0,60.0,8.0,0.0
6503,63.0,120.0,120.0,8.0,0.0
6504,65.0,60.0,120.0,8.0,0.0
6505,66.0,0.0,1440.0,2.0,0.0
6506,54.0,60.0,1440.0,3.0,0.0
6507,66.0,0.0,1440.0,7.0,0.0
6508,54.0,60.0,60.0,6.0,0.0
6509,66.0,0.0,1440.0,5.0,0.0
6510,54.0,0.0,1440.0,11.0,0.0
6511,42.0,0.0,1440.0,12.0,0.0
6512,78.0,0.0,1440.0,1.0,0.0
6513,78.0,0.0,1440.0,0.0,0.0
6514,66.0,0.0,1440.0,10.0,0.0
6515,66.0,0.0,1440.0,8.0,0.0
6516,54.0,0.0,1440.0,4.0,0.0
6517,56.0,60.0,60.0,6.0,0.0
6518,54.0,60.0,60.0,6.0,0.0
6519,56.0,60.0,60.0,6.0,0.0
6520,54.0,60.0,60.0,6.0,0.0
6521,56.0,60.0,60.0,6.0,0.0
6522,54.0,60.0,60.0,6.0,0.0
6523,56.0,60.0,60.0,6.0,0.0
6524,54.0,60.0,60.0,6.0,0.0
6525,56.0,60.0,60.0,6.0,0.0
6526,54.0,60.0,60.0,6.0,0.0
6527,56.0,60.0,60.0,6.0,0.0
6528,54.0,60.0,60.0,6.0,0.0
6529,56.0,60.0,60.0,6.0,0.0
6530,54.0,60.0,60.0,6.0,0.0
6531,56.0,60.0,60.0,6.0,0.0
6532,54.0,60.0,60.0,6.0,0.0
6533,56.0,60.0,60.0,6.0,0.0
6534,54.0,60.0,60.0,6.0,0.0
6535,56.0,60.0,60.0,6.0,0.0
6536,54.0,60.0,60.0,6.0,0.0
6537,56.0,60.0,60.0,6.0,0.0
6538,54.0,60.0,60.0,6.0,0.0
6539,56.0,0.0,60.0,6.0,0.0
6540,54.0,60.0,60.0,6.0,0.0
6541,56.0,60.0,60.0,6.0,0.0
6542,54.0,60.0,60.0,6.0,0.0
6543,56.0,60.0,60.0,6.0,0.0
6544,54.0,60.0,60.0,6.0,0.0
6545,56.0,60.0,60.0,6.0,0.0
6546,54.0,60.0,60.0,6.0,0.0
6547,56.0,40.0,60.0,6.0,0.0
6548,78.0,270.0,1320.0,5.0,0.0
6549,66.0,60.0,40.0,8.0,0.0
6550,78.0,0.0,1590.0,2.0,0.0
6551,66.0,0.0,40.0,7.0,0.0
6552,54.0,960.0,360.0,6.0,0.0
6553,66.0,0.0,1590.0,3.0,0.0
6554,90.0,0.0,1590.0,1.0,0.0
6555,66.0,0.0,1320.0,4.0,0.0
6556,78.0,0.0,1590.0,10.0,0.0
6557,66.0,0.0,1590.0,11.0,0.0
6558,54.0,240.0,1590.0,12.0,0.0
6559,90.0,0.0,1590.0,0.0,0.0
6560,78.0,0.0,40.0,8.0,0.0
6561,78.0,260.0,40.0,7.0,0.0
6562,90.0,0.0,1470.0,7.0,0.0
6563,90.0,0.0,1470.0,8.0,0.0
6564,66.0,0.0,30.0,10.0,0.0
6565,42.0,0.0,30.0,12.0,0.0
6566,54.0,210.0,30.0,3.0,0.0
6567,66.0,0.0,30.0,8.0,0.0
6568,66.0,0.0,30.0,2.0,0.0
6569,78.0,0.0,30.0,1.0,0.0
6570,54.0,0.0,30.0,11.0,0.0
6571,66.0,0.0,30.0,7.0,0.0
6572,78.0,0.0,30.0,0.0,0.0
6573,41.0,0.0,120.0,12.0,0.0
6574,65.0,0.0,120.0,7.0,0.0
6575,77.0,0.0,120.0,1.0,0.0
6576,73.0,0.0,120.0,5.0,0.0
6577,53.0,0.0,120.0,11.0,0.0
6578,49.0,0.0,120.0,6.0,0.0
6579,61.0,480.0,120.0,4.0,0.0
6580,53.0,0.0,120.0,3.0,0.0
6581,77.0,0.0,120.0,0.0,0.0
6582,65.0,0.0,120.0,8.0,0.0
6583,65.0,0.0,120.0,2.0,0.0
6584,65.0,0.0,120.0,10.0,0.0
6585,53.0,0.0,120.0,12.0,0.0
6586,49.0,0.0,120.0,6.0,0.0
6587,89.0,0.0,120.0,0.0,0.0
6588,65.0,0.0,120.0,11.0,0.0
6589,65.0,1290.0,120.0,3.0,0.0
6590,89.0,0.0,120.0,7.0,0.0
6591,77.0,0.0,120.0,10.0,0.0
6592,73.0,0.0,120.0,5.0,0.0
6593,89.0,0.0,120.0,1.0,0.0
6594,77.0,0.0,120.0,2.0,0.0
6595,61.0,0.0,120.0,4.0,0.0
6596,89.0,0.0,120.0,8.0,0.0
6597,65.0,0.0,90.0,10.0,0.0
6598,41.0,0.0,90.0,12.0,0.0
6599,65.0,0.0,90.0,2.0,0.0
6600,53.0,0.0,90.0,11.0,0.0
6601,77.0,0.0,90.0,1.0,0.0
6602,65.0,0.0,90.0,7.0,0.0
6603,77.0,0.0,90.0,0.0,0.0
6604,65.0,0.0,90.0,8.0,0.0
6605,53.0,390.0,90.0,3.0,0.0
6606,66.0,0.0,360.0,5.0,0.0
6607,78.0,0.0,360.0,5.0,0.0
6608,63.0,0.0,360.0,10.0,0.0
6609,75.0,0.0,360.0,0.0,0.0
6610,51.0,390.0,360.0,3.0,0.0
6611,39.0,0.0,360.0,12.0,0.0
6612,75.0,0.0,360.0,1.0,0.0
6613,63.0,0.0,360.0,7.0,0.0
6614,51.0,0.0,360.0,11.0,0.0
6615,63.0,0.0,360.0,8.0,0.0
6616,63.0,0.0,360.0,2.0,0.0
6617,66.0,0.0,360.0,4.0,0.0
6618,54.0,0.0,360.0,6.0,0.0
6619,54.0,0.0,360.0,4.0,0.0
6620,51.0,0.0,270.0,3.0,0.0
6621,63.0,180.0,270.0,2.0,0.0
6622,66.0,0.0,270.0,4.0,0.0
6623,75.0,0.0,270.0,0.0,0.0
6624,54.0,0.0,270.0,4.0,0.0
6625,39.0,0.0,270.0,12.0,0.0
6626,66.0,0.0,270.0,5.0,0.0
6627,63.0,0.0,270.0,10.0,0.0
6628,75.0,0.0,270.0,1.0,0.0
6629,78.0,0.0,270.0,5.0,0.0
6630,51.0,0.0,270.0,11.0,0.0
6631,63.0,0.0,270.0,7.0,0.0
6632,63.0,0.0,270.0,8.0,0.0
6633,54.0,0.0,270.0,6.0,0.0
6634,54.0,0.0,90.0,6.0,0.0
6635,63.0,0.0,90.0,10.0,0.0
6636,63.0,0.0,90.0,2.0,0.0
6637,78.0,0.0,90.0,5.0,0.0
6638,75.0,0.0,90.0,0.0,0.0
6639,54.0,90.0,90.0,4.0,0.0
6640,66.0,0.0,90.0,4.0,0.0
6641,63.0,0.0,90.0,8.0,0.0
6642,66.0,0.0,90.0,5.0,0.0
6643,51.0,0.0,90.0,11.0,0.0
6644,39.0,0.0,90.0,12.0,0.0
6645,63.0,0.0,90.0,7.0,0.0
6646,51.0,0.0,90.0,3.0,0.0
6647,75.0,0.0,90.0,1.0,0.0
6648,66.0,0.0,360.0,5.0,0.0
6649,75.0,60.0,60.0,1.0,0.0
6650,51.0,0.0,60.0,11.0,0.0
6651,78.0,0.0,360.0,5.0,0.0
6652,51.0,0.0,60.0,3.0,0.0
6653,63.0,0.0,60.0,2.0,0.0
6654,63.0,0.0,60.0,10.0,0.0
6655,54.0,0.0,360.0,6.0,0.0
6656,39.0,0.0,60.0,12.0,0.0
6657,63.0,0.0,60.0,8.0,0.0
6658,63.0,0.0,60.0,7.0,0.0
6659,66.0,0.0,360.0,4.0,0.0
6660,54.0,0.0,360.0,4.0,0.0
6661,75.0,0.0,60.0,0.0,0.0
6662,53.0,0.0,60.0,3.0,0.0
6663,53.0,0.0,60.0,11.0,0.0
6664,41.0,0.0,60.0,12.0,0.0
6665,65.0,0.0,60.0,7.0,0.0
6666,77.0,60.0,60.0,0.0,0.0
6667,65.0,0.0,60.0,8.0,0.0
6668,65.0,0.0,60.0,2.0,0.0
6669,77.0,0.0,60.0,1.0,0.0
6670,65.0,0.0,60.0,10.0,0.0
6671,63.0,0.0,60.0,8.0,0.0
6672,75.0,0.0,60.0,1.0,0.0
6673,51.0,0.0,60.0,11.0,0.0
6674,51.0,0.0,60.0,3.0,0.0
6675,39.0,0.0,60.0,12.0,0.0
6676,75.0,0.0,60.0,0.0,0.0
6677,63.0,60.0,60.0,2.0,0.0
6678,63.0,0.0,60.0,10.0,0.0
6679,63.0,0.0,60.0,7.0,0.0
6680,53.0,0.0,60.0,11.0,0.0
6681,65.0,60.0,60.0,7.0,0.0
6682,65.0,0.0,60.0,8.0,0.0
6683,77.0,0.0,60.0,1.0,0.0
6684,53.0,0.0,60.0,3.0,0.0
6685,65.0,0.0,60.0,10.0,0.0
6686,65.0,0.0,60.0,2.0,0.0
6687,77.0,0.0,60.0,0.0,0.0
6688,41.0,0.0,60.0,12.0,0.0
6689,63.0,60.0,60.0,2.0,0.0
6690,75.0,0.0,60.0,1.0,0.0
6691,63.0,0.0,60.0,10.0,0.0
6692,63.0,0.0,60.0,7.0,0.0
6693,63.0,0.0,60.0,8.0,0.0
6694,51.0,0.0,60.0,3.0,0.0
6695,39.0,0.0,60.0,12.0,0.0
6696,75.0,0.0,60.0,0.0,0.0
6697,51.0,0.0,60.0,11.0,0.0
6698,53.0,0.0,60.0,11.0,0.0
6699,65.0,0.0,60.0,2.0,0.0
6700,53.0,0.0,60.0,3.0,0.0
6701,65.0,0.0,60.0,8.0,0.0
6702,65.0,0.0,60.0,7.0,0.0
6703,65.0,0.0,60.0,10.0,0.0
6704,77.0,60.0,60.0,0.0,0.0
6705,41.0,0.0,60.0,12.0,0.0
6706,77.0,0.0,60.0,1.0,0.0
6707,63.0,0.0,60.0,8.0,0.0
6708,63.0,0.0,60.0,10.0,0.0
6709,51.0,60.0,60.0,3.0,0.0
6710,63.0,0.0,60.0,2.0,0.0
6711,63.0,0.0,60.0,7.0,0.0
6712,51.0,0.0,60.0,11.0,0.0
6713,75.0,0.0,60.0,1.0,0.0
6714,39.0,0.0,60.0,12.0,0.0
6715,75.0,0.0,60.0,0.0,0.0
6716,77.0,0.0,60.0,0.0,0.0
6717,53.0,60.0,60.0,11.0,0.0
6718,65.0,0.0,60.0,7.0,0.0
6719,77.0,0.0,60.0,1.0,0.0
6720,53.0,0.0,60.0,3.0,0.0
6721,65.0,0.0,60.0,2.0,0.0
6722,65.0,0.0,60.0,8.0,0.0
6723,65.0,0.0,60.0,10.0,0.0
6724,41.0,0.0,60.0,12.0,0.0
6725,63.0,0.0,60.0,8.0,0.0
6726,63.0,0.0,60.0,10.0,0.0
6727,66.0,60.0,360.0,4.0,0.0
6728,78.0,0.0,360.0,5.0,0.0
6729,54.0,0.0,360.0,4.0,0.0
6730,66.0,0.0,360.0,5.0,0.0
6731,54.0,0.0,360.0,6.0,0.0
6732,39.0,0.0,60.0,12.0,0.0
6733,63.0,0.0,60.0,2.0,0.0
6734,63.0,60.0,60.0,7.0,0.0
6735,51.0,0.0,60.0,3.0,0.0
6736,51.0,0.0,60.0,11.0,0.0
6737,75.0,0.0,60.0,0.0,0.0
6738,75.0,0.0,60.0,1.0,0.0
6739,53.0,60.0,60.0,11.0,0.0
6740,77.0,0.0,60.0,1.0,0.0
6741,65.0,0.0,60.0,8.0,0.0
6742,65.0,0.0,60.0,2.0,0.0
6743,41.0,0.0,60.0,12.0,0.0
6744,77.0,0.0,60.0,0.0,0.0
6745,65.0,0.0,60.0,10.0,0.0
6746,53.0,0.0,60.0,3.0,0.0
6747,65.0,0.0,60.0,7.0,0.0
6748,39.0,0.0,60.0,12.0,0.0
6749,63.0,0.0,60.0,8.0,0.0
6750,75.0,0.0,60.0,0.0,0.0
6751,75.0,60.0,60.0,1.0,0.0
6752,63.0,0.0,60.0,2.0,0.0
6753,63.0,0.0,60.0,7.0,0.0
6754,51.0,0.0,60.0,3.0,0.0
6755,51.0,0.0,60.0,11.0,0.0
6756,63.0,0.0,60.0,10.0,0.0
6757,77.0,120.0,60.0,0.0,0.0
6758,41.0,0.0,60.0,12.0,0.0
6759,65.0,0.0,60.0,10.0,0.0
6760,53.0,0.0,60.0,3.0,0.0
6761,65.0,0.0,60.0,2.0,0.0
6762,53.0,0.0,60.0,11.0,0.0
6763,65.0,0.0,60.0,7.0,0.0
6764,77.0,0.0,60.0,1.0,0.0
6765,65.0,0.0,60.0,8.0,0.0
6766,61.0,0.0,120.0,10.0,0.0
6767,49.0,0.0,120.0,3.0,0.0
6768,49.0,0.0,120.0,11.0,0.0
6769,73.0,0.0,120.0,1.0,0.0
6770,61.0,0.0,120.0,2.0,0.0
6771,61.0,0.0,120.0,8.0,0.0
6772,61.0,0.0,120.0,7.0,0.0
6773,37.0,0.0,120.0,12.0,0.0
6774,73.0,0.0,120.0,0.0,0.0
6775,63.0,0.0,120.0,2.0,0.0
6776,51.0,0.0,120.0,11.0,0.0
6777,63.0,0.0,120.0,10.0,0.0
6778,63.0,0.0,120.0,7.0,0.0
6779,39.0,0.0,120.0,12.0,0.0
6780,75.0,0.0,120.0,1.0,0.0
6781,75.0,60.0,60.0,0.0,0.0
6782,63.0,120.0,120.0,8.0,0.0
6783,51.0,0.0,120.0,3.0,0.0
6784,61.0,0.0,120.0,2.0,0.0
6785,61.0,0.0,120.0,5.0,0.0
6786,73.0,0.0,120.0,5.0,0.0
6787,73.0,0.0,120.0,1.0,0.0
6788,73.0,0.0,120.0,0.0,0.0
6789,37.0,0.0,120.0,12.0,0.0
6790,61.0,0.0,120.0,10.0,0.0
6791,49.0,0.0,120.0,3.0,0.0
6792,61.0,0.0,120.0,7.0,0.0
6793,61.0,0.0,120.0,4.0,0.0
6794,49.0,0.0,120.0,4.0,0.0
6795,49.0,0.0,120.0,11.0,0.0
6796,61.0,480.0,120.0,8.0,0.0
6797,49.0,0.0,120.0,6.0,0.0
6798,61.0,0.0,120.0,5.0,0.0
6799,61.0,0.0,120.0,3.0,0.0
6800,49.0,0.0,120.0,12.0,0.0
6801,61.0,0.0,120.0,4.0,0.0
6802,49.0,0.0,120.0,4.0,0.0
6803,73.0,0.0,120.0,10.0,0.0
6804,73.0,0.0,120.0,2.0,0.0
6805,85.0,0.0,120.0,0.0,0.0
6806,85.0,0.0,120.0,1.0,0.0
6807,85.0,0.0,120.0,8.0,0.0
6808,73.0,0.0,120.0,5.0,0.0
6809,61.0,1680.0,120.0,11.0,0.0
6810,49.0,0.0,120.0,6.0,0.0
6811,85.0,0.0,120.0,7.0,0.0
6812,71.0,390.0,360.0,7.0,0.0
6813,71.0,180.0,270.0,7.0,0.0
6814,71.0,390.0,90.0,7.0,0.0
6815,71.0,480.0,360.0,7.0,0.0
6816,71.0,1080.0,360.0,7.0,0.0
6817,61.0,0.0,1140.0,11.0,0.0
6818,71.0,0.0,1140.0,8.0,0.0
6819,49.0,60.0,1140.0,12.0,0.0
6820,78.0,180.0,960.0,7.0,0.0
6821,61.0,0.0,1140.0,3.0,0.0
6822,68.0,0.0,1140.0,10.0,0.0
6823,77.0,1080.0,240.0,7.0,0.0
6824,71.0,390.0,360.0,7.0,0.0
6825,71.0,180.0,270.0,7.0,0.0
6826,71.0,390.0,90.0,7.0,0.0
6827,71.0,480.0,360.0,7.0,0.0
6828,71.0,1080.0,360.0,7.0,0.0
6829,71.0,60.0,1140.0,8.0,0.0
6830,49.0,0.0,1140.0,12.0,0.0
6831,61.0,0.0,1140.0,11.0,0.0
6832,79.0,180.0,960.0,7.0,0.0
6833,61.0,0.0,1140.0,3.0,0.0
6834,65.0,0.0,1140.0,10.0,0.0
6835,80.0,1080.0,240.0,7.0,0.0
6836,83.0,390.0,360.0,7.0,0.0
6837,83.0,180.0,270.0,7.0,0.0
6838,83.0,630.0,90.0,7.0,0.0
6839,83.0,120.0,720.0,7.0,0.0
6840,61.0,0.0,120.0,3.0,0.0
6841,71.0,0.0,120.0,8.0,0.0
6842,49.0,0.0,120.0,12.0,0.0
6843,61.0,0.0,120.0,11.0,0.0
6844,68.0,120.0,120.0,10.0,0.0
6845,80.0,120.0,120.0,7.0,0.0
6846,77.0,120.0,120.0,7.0,0.0
6847,70.0,0.0,120.0,8.0,0.0
6848,51.0,0.0,120.0,12.0,0.0
6849,63.0,0.0,120.0,3.0,0.0
6850,63.0,240.0,120.0,11.0,0.0
6851,78.0,390.0,360.0,7.0,0.0
6852,66.0,0.0,120.0,10.0,0.0
6853,78.0,180.0,270.0,7.0,0.0
6854,78.0,630.0,90.0,7.0,0.0
6855,78.0,120.0,720.0,7.0,0.0
6856,58.0,0.0,120.0,11.0,0.0
6857,66.0,0.0,120.0,8.0,0.0
6858,46.0,0.0,120.0,12.0,0.0
6859,61.0,120.0,120.0,10.0,0.0
6860,58.0,0.0,120.0,3.0,0.0
6861,73.0,120.0,120.0,7.0,0.0
6862,70.0,360.0,120.0,7.0,0.0
6863,75.0,240.0,360.0,7.0,0.0
6864,63.0,240.0,120.0,10.0,0.0
6865,59.0,0.0,120.0,11.0,0.0
6866,68.0,0.0,120.0,8.0,0.0
6867,47.0,0.0,120.0,12.0,0.0
6868,59.0,0.0,120.0,3.0,0.0
6869,71.0,120.0,120.0,7.0,0.0
6870,68.0,480.0,120.0,7.0,0.0
6871,71.0,120.0,480.0,7.0,0.0
6872,61.0,0.0,120.0,11.0,0.0
6873,65.0,240.0,120.0,8.0,0.0
6874,49.0,0.0,120.0,12.0,0.0
6875,61.0,0.0,120.0,3.0,0.0
6876,59.0,0.0,120.0,10.0,0.0
6877,61.0,0.0,120.0,10.0,0.0
6878,68.0,120.0,120.0,7.0,0.0
6879,63.0,60.0,120.0,7.0,0.0
6880,66.0,90.0,2280.0,4.0,0.0
6881,54.0,0.0,2280.0,4.0,0.0
6882,54.0,0.0,1440.0,3.0,0.0
6883,66.0,0.0,4200.0,5.0,0.0
6884,66.0,0.0,1440.0,2.0,0.0
6885,66.0,60.0,480.0,7.0,0.0
6886,66.0,30.0,90.0,8.0,0.0
6887,42.0,60.0,1440.0,12.0,0.0
6888,78.0,90.0,4200.0,5.0,0.0
6889,54.0,30.0,60.0,6.0,0.0
6890,61.0,0.0,360.0,10.0,0.0
6891,58.0,0.0,360.0,10.0,0.0
6892,54.0,0.0,1440.0,11.0,0.0
6893,56.0,60.0,60.0,6.0,0.0
6894,66.0,30.0,90.0,8.0,0.0
6895,54.0,30.0,60.0,6.0,0.0
6896,56.0,60.0,60.0,6.0,0.0
6897,54.0,30.0,60.0,6.0,0.0
6898,66.0,30.0,90.0,8.0,0.0
6899,56.0,60.0,60.0,6.0,0.0
6900,66.0,30.0,90.0,8.0,0.0
6901,54.0,30.0,60.0,6.0,0.0
6902,56.0,0.0,60.0,6.0,0.0
6903,54.0,30.0,60.0,6.0,0.0
6904,66.0,30.0,90.0,8.0,0.0
6905,56.0,60.0,60.0,6.0,0.0
6906,54.0,30.0,60.0,6.0,0.0
6907,66.0,30.0,90.0,8.0,0.0
6908,56.0,60.0,60.0,6.0,0.0
6909,54.0,30.0,60.0,6.0,0.0
6910,66.0,30.0,90.0,8.0,0.0
6911,56.0,60.0,60.0,6.0,0.0
6912,54.0,30.0,60.0,6.0,0.0
6913,66.0,30.0,90.0,8.0,0.0
6914,56.0,60.0,60.0,6.0,0.0
6915,66.0,60.0,720.0,10.0,0.0
6916,66.0,30.0,90.0,8.0,0.0
6917,54.0,30.0,60.0,6.0,0.0
6918,56.0,60.0,60.0,6.0,0.0
6919,54.0,30.0,60.0,6.0,0.0
6920,66.0,30.0,90.0,8.0,0.0
6921,56.0,60.0,60.0,6.0,0.0
6922,54.0,30.0,60.0,6.0,0.0
6923,66.0,30.0,90.0,8.0,0.0
6924,56.0,60.0,60.0,6.0,0.0
6925,54.0,30.0,60.0,6.0,0.0
6926,66.0,30.0,90.0,8.0,0.0
6927,56.0,0.0,60.0,6.0,0.0
6928,66.0,30.0,90.0,8.0,0.0
6929,54.0,30.0,60.0,6.0,0.0
6930,56.0,60.0,60.0,6.0,0.0
6931,66.0,30.0,90.0,8.0,0.0
6932,54.0,30.0,60.0,6.0,0.0
6933,56.0,0.0,60.0,6.0,0.0
6934,54.0,30.0,60.0,6.0,0.0
6935,66.0,30.0,90.0,8.0,0.0
6936,56.0,60.0,60.0,6.0,0.0
6937,66.0,30.0,90.0,8.0,0.0
6938,54.0,30.0,60.0,6.0,0.0
6939,56.0,90.0,60.0,6.0,0.0
6940,54.0,0.0,360.0,6.0,0.0
6941,66.0,0.0,1590.0,11.0,0.0
6942,78.0,0.0,1590.0,2.0,0.0
6943,78.0,0.0,1590.0,10.0,0.0
6944,66.0,120.0,90.0,8.0,0.0
6945,66.0,60.0,1590.0,3.0,0.0
6946,54.0,0.0,1590.0,12.0,0.0
6947,66.0,120.0,90.0,8.0,0.0
6948,66.0,30.0,90.0,8.0,0.0
6949,66.0,120.0,90.0,8.0,0.0
6950,66.0,120.0,90.0,8.0,0.0
6951,54.0,60.0,270.0,4.0,0.0
6952,66.0,0.0,270.0,4.0,0.0
6953,66.0,60.0,90.0,8.0,0.0
6954,66.0,120.0,90.0,8.0,0.0
6955,54.0,0.0,90.0,4.0,0.0
6956,66.0,0.0,90.0,8.0,0.0
6957,66.0,120.0,90.0,4.0,0.0
6958,66.0,120.0,90.0,8.0,0.0
6959,66.0,90.0,360.0,4.0,0.0
6960,54.0,0.0,360.0,4.0,0.0
6961,66.0,120.0,90.0,8.0,0.0
6962,66.0,30.0,90.0,8.0,0.0
6963,66.0,120.0,90.0,8.0,0.0
6964,66.0,60.0,90.0,8.0,0.0
6965,54.0,0.0,360.0,4.0,0.0
6966,66.0,30.0,360.0,4.0,0.0
6967,66.0,120.0,90.0,8.0,0.0
6968,66.0,30.0,90.0,8.0,0.0
6969,66.0,60.0,30.0,10.0,0.0
6970,42.0,0.0,30.0,12.0,0.0
6971,66.0,120.0,90.0,8.0,0.0
6972,54.0,0.0,30.0,3.0,0.0
6973,66.0,0.0,30.0,2.0,0.0
6974,54.0,0.0,30.0,11.0,0.0
6975,64.0,0.0,120.0,10.0,0.0
6976,78.0,90.0,1440.0,1.0,0.0
6977,66.0,0.0,1440.0,7.0,0.0
6978,64.0,0.0,120.0,2.0,0.0
6979,40.0,0.0,120.0,12.0,0.0
6980,52.0,90.0,120.0,3.0,0.0
6981,78.0,0.0,1440.0,0.0,0.0
6982,52.0,0.0,120.0,11.0,0.0
6983,54.0,0.0,2280.0,4.0,0.0
6984,54.0,0.0,360.0,6.0,0.0
6985,66.0,0.0,2280.0,4.0,0.0
6986,66.0,30.0,90.0,8.0,0.0
6987,66.0,120.0,90.0,8.0,0.0
6988,66.0,30.0,90.0,8.0,0.0
6989,66.0,120.0,90.0,8.0,0.0
6990,66.0,30.0,90.0,8.0,0.0
6991,54.0,0.0,270.0,6.0,0.0
6992,76.0,0.0,120.0,2.0,0.0
6993,64.0,0.0,120.0,3.0,0.0
6994,52.0,0.0,120.0,12.0,0.0
6995,76.0,90.0,120.0,10.0,0.0
6996,66.0,60.0,270.0,5.0,0.0
6997,78.0,0.0,270.0,5.0,0.0
6998,64.0,0.0,120.0,11.0,0.0
6999,66.0,60.0,90.0,8.0,0.0
7000,66.0,120.0,90.0,8.0,0.0
7001,54.0,0.0,90.0,6.0,0.0
7002,66.0,120.0,90.0,8.0,0.0
7003,78.0,0.0,90.0,5.0,0.0
7004,66.0,0.0,90.0,5.0,0.0
7005,78.0,90.0,360.0,5.0,0.0
7006,54.0,0.0,360.0,6.0,0.0
7007,66.0,0.0,360.0,5.0,0.0
7008,66.0,120.0,90.0,8.0,0.0
7009,66.0,120.0,90.0,8.0,0.0
7010,66.0,30.0,90.0,8.0,0.0
7011,66.0,30.0,90.0,8.0,0.0
7012,54.0,90.0,360.0,6.0,0.0
7013,66.0,120.0,90.0,8.0,0.0
7014,78.0,0.0,360.0,5.0,0.0
7015,66.0,0.0,360.0,5.0,0.0
7016,66.0,120.0,90.0,8.0,0.0
7017,66.0,30.0,90.0,8.0,0.0
7018,52.0,0.0,90.0,11.0,0.0
7019,64.0,0.0,90.0,2.0,0.0
7020,64.0,0.0,90.0,10.0,0.0
7021,52.0,0.0,90.0,3.0,0.0
7022,40.0,0.0,90.0,12.0,0.0
7023,66.0,70.0,90.0,8.0,0.0
7024,66.0,0.0,2280.0,5.0,0.0
7025,90.0,0.0,1590.0,0.0,0.0
7026,63.0,0.0,360.0,10.0,0.0
7027,54.0,0.0,360.0,6.0,0.0
7028,63.0,0.0,360.0,2.0,0.0
7029,90.0,0.0,1590.0,1.0,0.0
7030,39.0,90.0,360.0,12.0,0.0
7031,78.0,0.0,2280.0,5.0,0.0
7032,66.0,50.0,40.0,7.0,0.0
7033,51.0,0.0,360.0,3.0,0.0
7034,51.0,0.0,360.0,11.0,0.0
7035,66.0,10.0,90.0,8.0,0.0
7036,78.0,110.0,40.0,7.0,0.0
7037,66.0,120.0,90.0,8.0,0.0
7038,90.0,30.0,1470.0,7.0,0.0
7039,66.0,30.0,90.0,8.0,0.0
7040,66.0,120.0,90.0,8.0,0.0
7041,51.0,60.0,270.0,3.0,0.0
7042,39.0,0.0,270.0,12.0,0.0
7043,63.0,0.0,270.0,2.0,0.0
7044,63.0,0.0,270.0,10.0,0.0
7045,51.0,0.0,270.0,11.0,0.0
7046,66.0,120.0,90.0,8.0,0.0
7047,54.0,0.0,270.0,4.0,0.0
7048,66.0,0.0,270.0,4.0,0.0
7049,66.0,60.0,90.0,8.0,0.0
7050,66.0,120.0,90.0,8.0,0.0
7051,51.0,0.0,90.0,11.0,0.0
7052,39.0,0.0,90.0,12.0,0.0
7053,63.0,0.0,90.0,2.0,0.0
7054,66.0,0.0,90.0,4.0,0.0
7055,51.0,0.0,90.0,3.0,0.0
7056,54.0,0.0,90.0,4.0,0.0
7057,66.0,90.0,90.0,8.0,0.0
7058,63.0,0.0,90.0,10.0,0.0
7059,51.0,0.0,60.0,3.0,0.0
7060,66.0,0.0,360.0,4.0,0.0
7061,39.0,0.0,60.0,12.0,0.0
7062,63.0,0.0,60.0,2.0,0.0
7063,66.0,30.0,90.0,8.0,0.0
7064,51.0,30.0,60.0,11.0,0.0
7065,54.0,0.0,360.0,4.0,0.0
7066,63.0,0.0,60.0,10.0,0.0
7067,64.0,60.0,60.0,10.0,0.0
7068,64.0,0.0,60.0,2.0,0.0
7069,52.0,0.0,60.0,3.0,0.0
7070,40.0,0.0,60.0,12.0,0.0
7071,52.0,0.0,60.0,11.0,0.0
7072,39.0,0.0,60.0,12.0,0.0
7073,51.0,0.0,60.0,11.0,0.0
7074,63.0,0.0,60.0,2.0,0.0
7075,66.0,30.0,90.0,8.0,0.0
7076,63.0,30.0,60.0,10.0,0.0
7077,51.0,0.0,60.0,3.0,0.0
7078,40.0,0.0,60.0,12.0,0.0
7079,52.0,0.0,60.0,3.0,0.0
7080,52.0,0.0,60.0,11.0,0.0
7081,64.0,0.0,60.0,10.0,0.0
7082,64.0,60.0,60.0,2.0,0.0
7083,51.0,0.0,60.0,11.0,0.0
7084,63.0,0.0,60.0,10.0,0.0
7085,66.0,30.0,90.0,8.0,0.0
7086,63.0,0.0,60.0,2.0,0.0
7087,39.0,0.0,60.0,12.0,0.0
7088,51.0,30.0,60.0,3.0,0.0
7089,40.0,60.0,60.0,12.0,0.0
7090,52.0,0.0,60.0,3.0,0.0
7091,52.0,0.0,60.0,11.0,0.0
7092,64.0,0.0,60.0,2.0,0.0
7093,64.0,0.0,60.0,10.0,0.0
7094,63.0,0.0,60.0,2.0,0.0
7095,39.0,0.0,60.0,12.0,0.0
7096,66.0,30.0,90.0,8.0,0.0
7097,63.0,0.0,60.0,10.0,0.0
7098,51.0,0.0,60.0,3.0,0.0
7099,51.0,30.0,60.0,11.0,0.0
7100,52.0,60.0,60.0,3.0,0.0
7101,64.0,0.0,60.0,2.0,0.0
7102,52.0,0.0,60.0,11.0,0.0
7103,64.0,0.0,60.0,10.0,0.0
7104,40.0,0.0,60.0,12.0,0.0
7105,51.0,0.0,60.0,11.0,0.0
7106,39.0,0.0,60.0,12.0,0.0
7107,63.0,30.0,60.0,10.0,0.0
7108,66.0,30.0,90.0,8.0,0.0
7109,63.0,0.0,60.0,2.0,0.0
7110,51.0,0.0,60.0,3.0,0.0
7111,66.0,0.0,360.0,4.0,0.0
7112,54.0,30.0,360.0,4.0,0.0
7113,52.0,0.0,60.0,11.0,0.0
7114,64.0,0.0,60.0,2.0,0.0
7115,64.0,0.0,60.0,10.0,0.0
7116,40.0,0.0,60.0,12.0,0.0
7117,52.0,30.0,60.0,3.0,0.0
7118,63.0,0.0,60.0,2.0,0.0
7119,63.0,0.0,60.0,10.0,0.0
7120,51.0,0.0,60.0,11.0,0.0
7121,51.0,0.0,60.0,3.0,0.0
7122,66.0,30.0,90.0,8.0,0.0
7123,39.0,30.0,60.0,12.0,0.0
7124,40.0,90.0,60.0,12.0,0.0
7125,52.0,0.0,60.0,11.0,0.0
7126,64.0,0.0,60.0,10.0,0.0
7127,64.0,0.0,60.0,2.0,0.0
7128,52.0,0.0,60.0,3.0,0.0
7129,37.0,0.0,120.0,12.0,0.0
7130,61.0,0.0,120.0,2.0,0.0
7131,49.0,0.0,120.0,11.0,0.0
7132,49.0,0.0,120.0,3.0,0.0
7133,66.0,30.0,90.0,8.0,0.0
7134,61.0,0.0,120.0,10.0,0.0
7135,51.0,0.0,120.0,3.0,0.0
7136,51.0,0.0,120.0,11.0,0.0
7137,78.0,0.0,30.0,0.0,0.0
7138,63.0,90.0,120.0,10.0,0.0
7139,78.0,60.0,30.0,1.0,0.0
7140,63.0,0.0,120.0,2.0,0.0
7141,39.0,0.0,120.0,12.0,0.0
7142,66.0,0.0,30.0,7.0,0.0
7143,66.0,30.0,90.0,8.0,0.0
7144,49.0,0.0,180.0,3.0,0.0
7145,66.0,30.0,90.0,8.0,0.0
7146,64.0,0.0,120.0,7.0,0.0
7147,76.0,60.0,120.0,0.0,0.0
7148,61.0,90.0,360.0,2.0,0.0
7149,49.0,0.0,180.0,11.0,0.0
7150,54.0,0.0,360.0,6.0,0.0
7151,54.0,0.0,2280.0,4.0,0.0
7152,76.0,0.0,120.0,1.0,0.0
7153,66.0,0.0,2280.0,4.0,0.0
7154,61.0,30.0,180.0,10.0,0.0
7155,64.0,0.0,90.0,8.0,0.0
7156,37.0,0.0,180.0,12.0,0.0
7157,64.0,0.0,90.0,8.0,0.0
7158,66.0,120.0,90.0,8.0,0.0
7159,51.0,30.0,90.0,11.0,0.0
7160,51.0,0.0,90.0,3.0,0.0
7161,64.0,0.0,90.0,8.0,0.0
7162,63.0,0.0,90.0,10.0,0.0
7163,66.0,0.0,90.0,8.0,0.0
7164,39.0,0.0,90.0,12.0,0.0
7165,52.0,0.0,90.0,11.0,0.0
7166,64.0,0.0,90.0,10.0,0.0
7167,64.0,0.0,90.0,8.0,0.0
7168,66.0,0.0,90.0,8.0,0.0
7169,40.0,0.0,90.0,12.0,0.0
7170,52.0,120.0,90.0,3.0,0.0
7171,66.0,0.0,90.0,10.0,0.0
7172,64.0,0.0,90.0,8.0,0.0
7173,54.0,0.0,90.0,3.0,0.0
7174,54.0,60.0,270.0,6.0,0.0
7175,88.0,0.0,120.0,1.0,0.0
7176,88.0,0.0,120.0,7.0,0.0
7177,66.0,0.0,90.0,8.0,0.0
7178,42.0,0.0,90.0,12.0,0.0
7179,54.0,30.0,90.0,11.0,0.0
7180,88.0,90.0,120.0,0.0,0.0
7181,66.0,0.0,360.0,5.0,0.0
7182,44.0,0.0,90.0,12.0,0.0
7183,56.0,60.0,90.0,11.0,0.0
7184,68.0,0.0,90.0,10.0,0.0
7185,64.0,0.0,90.0,8.0,0.0
7186,66.0,0.0,90.0,8.0,0.0
7187,56.0,0.0,90.0,3.0,0.0
7188,66.0,30.0,90.0,8.0,0.0
7189,64.0,0.0,90.0,8.0,0.0
7190,70.0,0.0,90.0,10.0,0.0
7191,58.0,0.0,90.0,11.0,0.0
7192,58.0,0.0,90.0,3.0,0.0
7193,46.0,0.0,90.0,12.0,0.0
7194,54.0,0.0,90.0,6.0,0.0
7195,78.0,90.0,15.0,5.0,0.0
7196,47.0,30.0,90.0,12.0,0.0
7197,64.0,0.0,90.0,8.0,0.0
7198,66.0,0.0,90.0,8.0,0.0
7199,59.0,0.0,90.0,11.0,0.0
7200,71.0,0.0,90.0,10.0,0.0
7201,59.0,0.0,90.0,3.0,0.0
7202,61.0,0.0,180.0,11.0,0.0
7203,66.0,0.0,15.0,5.0,0.0
7204,66.0,90.0,90.0,8.0,0.0
7205,64.0,0.0,90.0,8.0,0.0
7206,54.0,60.0,360.0,6.0,0.0
7207,61.0,0.0,180.0,3.0,0.0
7208,49.0,30.0,180.0,12.0,0.0
7209,73.0,0.0,180.0,10.0,0.0
7210,64.0,120.0,90.0,8.0,0.0
7211,66.0,0.0,90.0,8.0,0.0
7212,66.0,0.0,90.0,8.0,0.0
7213,47.0,0.0,180.0,12.0,0.0
7214,71.0,0.0,180.0,10.0,0.0
7215,59.0,30.0,180.0,3.0,0.0
7216,64.0,30.0,90.0,8.0,0.0
7217,59.0,0.0,180.0,11.0,0.0
7218,66.0,0.0,90.0,8.0,0.0
7219,64.0,30.0,90.0,8.0,0.0
7220,66.0,90.0,15.0,5.0,0.0
7221,78.0,0.0,15.0,5.0,0.0
7222,64.0,90.0,90.0,8.0,0.0
7223,58.0,0.0,180.0,11.0,0.0
7224,54.0,60.0,360.0,6.0,0.0
7225,66.0,0.0,90.0,8.0,0.0
7226,70.0,0.0,180.0,10.0,0.0
7227,58.0,30.0,180.0,3.0,0.0
7228,46.0,0.0,180.0,12.0,0.0
7229,64.0,0.0,90.0,8.0,0.0
7230,66.0,120.0,90.0,8.0,0.0
7231,44.0,0.0,180.0,12.0,0.0
7232,66.0,30.0,90.0,8.0,0.0
7233,56.0,0.0,180.0,11.0,0.0
7234,56.0,0.0,180.0,3.0,0.0
7235,68.0,30.0,180.0,10.0,0.0
7236,64.0,0.0,90.0,8.0,0.0
7237,66.0,30.0,90.0,8.0,0.0
7238,64.0,0.0,90.0,8.0,0.0
7239,58.0,0.0,360.0,3.0,0.0
7240,46.0,0.0,360.0,12.0,0.0
7241,70.0,0.0,360.0,10.0,0.0
7242,66.0,0.0,15.0,5.0,0.0
7243,78.0,90.0,15.0,5.0,0.0
7244,88.0,60.0,1440.0,1.0,0.0
7245,58.0,0.0,360.0,11.0,0.0
7246,85.0,0.0,1440.0,1.0,0.0
7247,64.0,120.0,90.0,8.0,0.0
7248,66.0,0.0,90.0,8.0,0.0
7249,54.0,90.0,360.0,6.0,0.0
7250,64.0,120.0,90.0,8.0,0.0
7251,66.0,0.0,90.0,8.0,0.0
7252,78.0,0.0,90.0,0.0,0.0
7253,66.0,0.0,90.0,2.0,0.0
7254,78.0,0.0,90.0,7.0,0.0
7255,66.0,0.0,90.0,8.0,0.0
7256,80.0,0.0,90.0,0.0,0.0
7257,64.0,30.0,90.0,8.0,0.0
7258,80.0,0.0,90.0,7.0,0.0
7259,68.0,0.0,90.0,2.0,0.0
7260,66.0,0.0,90.0,8.0,0.0
7261,64.0,120.0,90.0,8.0,0.0
7262,70.0,0.0,90.0,2.0,0.0
7263,82.0,0.0,90.0,7.0,0.0
7264,82.0,0.0,90.0,0.0,0.0
7265,83.0,0.0,90.0,0.0,0.0
7266,54.0,0.0,270.0,6.0,0.0
7267,58.0,60.0,270.0,3.0,0.0
7268,58.0,0.0,270.0,11.0,0.0
7269,70.0,0.0,270.0,10.0,0.0
7270,54.0,0.0,270.0,4.0,0.0
7271,46.0,0.0,270.0,12.0,0.0
7272,66.0,0.0,270.0,4.0,0.0
7273,66.0,0.0,270.0,5.0,0.0
7274,71.0,0.0,90.0,2.0,0.0
7275,66.0,120.0,90.0,8.0,0.0
7276,83.0,0.0,90.0,7.0,0.0
7277,64.0,0.0,90.0,8.0,0.0
7278,78.0,0.0,270.0,5.0,0.0
7279,66.0,0.0,90.0,8.0,0.0
7280,64.0,0.0,90.0,8.0,0.0
7281,85.0,60.0,90.0,7.0,0.0
7282,73.0,0.0,90.0,2.0,0.0
7283,85.0,0.0,90.0,0.0,0.0
7284,87.0,0.0,90.0,7.0,0.0
7285,66.0,0.0,90.0,8.0,0.0
7286,75.0,0.0,90.0,2.0,0.0
7287,64.0,120.0,90.0,8.0,0.0
7288,87.0,0.0,90.0,0.0,0.0
7289,64.0,0.0,90.0,8.0,0.0
7290,66.0,0.0,90.0,8.0,0.0
7291,54.0,0.0,90.0,6.0,0.0
7292,54.0,0.0,90.0,4.0,0.0
7293,46.0,0.0,90.0,12.0,0.0
7294,66.0,0.0,90.0,4.0,0.0
7295,66.0,0.0,90.0,5.0,0.0
7296,78.0,0.0,90.0,5.0,0.0
7297,70.0,0.0,90.0,10.0,0.0
7298,88.0,0.0,90.0,0.0,0.0
7299,76.0,0.0,90.0,2.0,0.0
7300,88.0,0.0,90.0,7.0,0.0
7301,58.0,0.0,90.0,11.0,0.0
7302,58.0,90.0,90.0,3.0,0.0
7303,46.0,30.0,60.0,12.0,0.0
7304,78.0,0.0,180.0,2.0,0.0
7305,90.0,0.0,180.0,7.0,0.0
7306,54.0,0.0,360.0,4.0,0.0
7307,58.0,0.0,60.0,11.0,0.0
7308,90.0,30.0,180.0,0.0,0.0
7309,66.0,60.0,360.0,4.0,0.0
7310,70.0,0.0,60.0,10.0,0.0
7311,78.0,0.0,360.0,5.0,0.0
7312,58.0,0.0,60.0,3.0,0.0
7313,66.0,0.0,360.0,5.0,0.0
7314,54.0,0.0,360.0,6.0,0.0
7315,66.0,0.0,90.0,8.0,0.0
7316,64.0,30.0,90.0,8.0,0.0
7317,59.0,0.0,60.0,11.0,0.0
7318,59.0,60.0,60.0,3.0,0.0
7319,71.0,0.0,60.0,10.0,0.0
7320,47.0,0.0,60.0,12.0,0.0
7321,70.0,0.0,60.0,10.0,0.0
7322,64.0,30.0,90.0,8.0,0.0
7323,66.0,0.0,90.0,8.0,0.0
7324,58.0,0.0,60.0,3.0,0.0
7325,46.0,0.0,60.0,12.0,0.0
7326,58.0,0.0,60.0,11.0,0.0
7327,59.0,0.0,60.0,11.0,0.0
7328,47.0,0.0,60.0,12.0,0.0
7329,59.0,0.0,60.0,3.0,0.0
7330,71.0,60.0,60.0,10.0,0.0
7331,66.0,30.0,90.0,8.0,0.0
7332,64.0,0.0,90.0,8.0,0.0
7333,58.0,0.0,60.0,11.0,0.0
7334,58.0,30.0,60.0,3.0,0.0
7335,88.0,0.0,180.0,0.0,0.0
7336,70.0,0.0,60.0,10.0,0.0
7337,88.0,30.0,180.0,7.0,0.0
7338,76.0,0.0,180.0,2.0,0.0
7339,46.0,0.0,60.0,12.0,0.0
7340,47.0,0.0,60.0,12.0,0.0
7341,59.0,0.0,60.0,11.0,0.0
7342,71.0,0.0,60.0,10.0,0.0
7343,59.0,0.0,60.0,3.0,0.0
7344,70.0,0.0,60.0,10.0,0.0
7345,64.0,0.0,90.0,8.0,0.0
7346,66.0,30.0,90.0,8.0,0.0
7347,58.0,0.0,60.0,3.0,0.0
7348,46.0,0.0,60.0,12.0,0.0
7349,58.0,0.0,60.0,11.0,0.0
7350,71.0,0.0,60.0,10.0,0.0
7351,59.0,0.0,60.0,3.0,0.0
7352,59.0,0.0,60.0,11.0,0.0
7353,47.0,0.0,60.0,12.0,0.0
7354,46.0,30.0,60.0,12.0,0.0
7355,58.0,0.0,60.0,11.0,0.0
7356,78.0,0.0,360.0,5.0,0.0
7357,66.0,60.0,360.0,5.0,0.0
7358,64.0,30.0,90.0,8.0,0.0
7359,54.0,0.0,360.0,4.0,0.0
7360,75.0,0.0,180.0,2.0,0.0
7361,87.0,0.0,180.0,7.0,0.0
7362,66.0,0.0,90.0,8.0,0.0
7363,66.0,0.0,360.0,4.0,0.0
7364,70.0,0.0,60.0,10.0,0.0
7365,54.0,0.0,360.0,6.0,0.0
7366,87.0,0.0,180.0,0.0,0.0
7367,58.0,0.0,60.0,3.0,0.0
7368,59.0,0.0,60.0,11.0,0.0
7369,59.0,60.0,60.0,3.0,0.0
7370,47.0,0.0,60.0,12.0,0.0
7371,71.0,0.0,60.0,10.0,0.0
7372,46.0,0.0,60.0,12.0,0.0
7373,58.0,0.0,60.0,11.0,0.0
7374,70.0,30.0,60.0,10.0,0.0
7375,58.0,0.0,60.0,3.0,0.0
7376,66.0,0.0,90.0,8.0,0.0
7377,64.0,30.0,90.0,8.0,0.0
7378,47.0,0.0,60.0,12.0,0.0
7379,59.0,0.0,60.0,11.0,0.0
7380,59.0,0.0,60.0,3.0,0.0
7381,71.0,90.0,60.0,10.0,0.0
7382,85.0,30.0,180.0,0.0,0.0
7383,56.0,0.0,120.0,3.0,0.0
7384,56.0,0.0,120.0,11.0,0.0
7385,64.0,30.0,90.0,8.0,0.0
7386,44.0,0.0,120.0,12.0,0.0
7387,73.0,0.0,180.0,2.0,0.0
7388,85.0,0.0,180.0,7.0,0.0
7389,66.0,0.0,90.0,8.0,0.0
7390,68.0,0.0,120.0,10.0,0.0
7391,46.0,0.0,120.0,12.0,0.0
7392,58.0,90.0,120.0,11.0,0.0
7393,58.0,0.0,120.0,3.0,0.0
7394,66.0,30.0,90.0,8.0,0.0
7395,64.0,0.0,90.0,8.0,0.0
7396,70.0,0.0,120.0,10.0,0.0
7397,66.0,30.0,180.0,8.0,0.0
7398,59.0,0.0,1440.0,3.0,0.0
7399,63.0,0.0,180.0,8.0,0.0
7400,59.0,0.0,1440.0,11.0,0.0
7401,87.0,90.0,90.0,7.0,0.0
7402,54.0,0.0,1440.0,4.0,0.0
7403,66.0,0.0,1440.0,4.0,0.0
7404,71.0,0.0,1440.0,10.0,0.0
7405,71.0,0.0,1440.0,2.0,0.0
7406,87.0,0.0,1440.0,0.0,0.0
7407,47.0,90.0,1440.0,12.0,0.0
7408,75.0,0.0,1440.0,2.0,0.0
7409,83.0,0.0,1440.0,1.0,0.0
7410,78.0,0.0,1440.0,5.0,0.0
7411,66.0,0.0,1440.0,5.0,0.0
7412,83.0,0.0,1440.0,0.0,0.0
7413,87.0,0.0,1440.0,1.0,0.0
7414,54.0,90.0,720.0,6.0,0.0
7415,87.0,120.0,90.0,7.0,0.0
7416,90.0,120.0,90.0,8.0,0.0
7417,90.0,0.0,90.0,7.0,0.0
7418,90.0,0.0,90.0,7.0,0.0
7419,90.0,120.0,90.0,8.0,0.0
7420,87.0,120.0,90.0,8.0,0.0
7421,87.0,0.0,90.0,7.0,0.0
7422,87.0,30.0,90.0,7.0,0.0
7423,87.0,0.0,90.0,8.0,0.0
7424,83.0,0.0,90.0,8.0,0.0
7425,83.0,120.0,90.0,7.0,0.0
7426,83.0,0.0,90.0,7.0,0.0
7427,83.0,120.0,90.0,8.0,0.0
7428,78.0,120.0,90.0,8.0,0.0
7429,78.0,0.0,90.0,7.0,0.0
7430,78.0,0.0,90.0,8.0,0.0
7431,78.0,120.0,90.0,7.0,0.0
7432,87.0,0.0,90.0,8.0,0.0
7433,87.0,120.0,90.0,7.0,0.0
7434,87.0,30.0,90.0,7.0,0.0
7435,87.0,0.0,90.0,8.0,0.0
7436,83.0,120.0,90.0,7.0,0.0
7437,83.0,0.0,90.0,8.0,0.0
7438,83.0,120.0,90.0,8.0,0.0
7439,83.0,0.0,90.0,7.0,0.0
7440,78.0,0.0,90.0,7.0,0.0
7441,78.0,120.0,90.0,8.0,0.0
7442,78.0,0.0,90.0,8.0,0.0
7443,78.0,120.0,90.0,7.0,0.0
7444,59.0,60.0,1590.0,12.0,0.0
7445,75.0,0.0,1440.0,2.0,0.0
7446,66.0,0.0,1440.0,5.0,0.0
7447,78.0,0.0,1440.0,5.0,0.0
7448,54.0,90.0,1440.0,4.0,0.0
7449,75.0,0.0,90.0,8.0,0.0
7450,75.0,120.0,90.0,7.0,0.0
7451,71.0,0.0,1590.0,3.0,0.0
7452,71.0,0.0,1590.0,11.0,0.0
7453,71.0,0.0,1590.0,10.0,0.0
7454,87.0,0.0,1440.0,0.0,0.0
7455,83.0,0.0,1440.0,0.0,0.0
7456,71.0,0.0,1440.0,2.0,0.0
7457,66.0,0.0,1440.0,4.0,0.0
7458,54.0,90.0,720.0,6.0,0.0
7459,90.0,0.0,1440.0,1.0,0.0
7460,87.0,0.0,1440.0,1.0,0.0
7461,75.0,0.0,90.0,7.0,0.0
7462,75.0,120.0,90.0,8.0,0.0
7463,83.0,120.0,90.0,7.0,0.0
7464,83.0,0.0,90.0,8.0,0.0
7465,83.0,120.0,90.0,8.0,0.0
7466,83.0,0.0,90.0,7.0,0.0
7467,78.0,120.0,90.0,8.0,0.0
7468,78.0,0.0,90.0,7.0,0.0
7469,78.0,30.0,90.0,8.0,0.0
7470,78.0,0.0,90.0,7.0,0.0
7471,75.0,120.0,90.0,8.0,0.0
7472,75.0,0.0,90.0,7.0,0.0
7473,75.0,0.0,90.0,8.0,0.0
7474,75.0,120.0,90.0,7.0,0.0
7475,71.0,0.0,90.0,7.0,0.0
7476,71.0,120.0,90.0,8.0,0.0
7477,71.0,0.0,90.0,7.0,0.0
7478,71.0,120.0,90.0,8.0,0.0
7479,78.0,120.0,90.0,7.0,0.0
7480,78.0,0.0,90.0,8.0,0.0
7481,78.0,30.0,90.0,7.0,0.0
7482,78.0,0.0,90.0,8.0,0.0
7483,83.0,0.0,90.0,7.0,0.0
7484,83.0,60.0,90.0,8.0,0.0
7485,83.0,120.0,90.0,7.0,0.0
7486,83.0,0.0,90.0,8.0,0.0
7487,87.0,60.0,90.0,8.0,0.0
7488,87.0,0.0,90.0,7.0,0.0
7489,71.0,0.0,30.0,10.0,0.0
7490,87.0,0.0,90.0,7.0,0.0
7491,87.0,150.0,90.0,8.0,0.0
7492,47.0,0.0,30.0,12.0,0.0
7493,59.0,60.0,30.0,3.0,0.0
7494,59.0,0.0,30.0,11.0,0.0
7495,66.0,60.0,360.0,4.0,0.0
7496,85.0,120.0,180.0,7.0,0.0
7497,78.0,0.0,360.0,5.0,0.0
7498,54.0,0.0,360.0,4.0,0.0
7499,85.0,0.0,180.0,8.0,0.0
7500,66.0,0.0,2280.0,2.0,0.0
7501,58.0,60.0,120.0,11.0,0.0
7502,70.0,0.0,120.0,10.0,0.0
7503,54.0,0.0,360.0,6.0,0.0
7504,73.0,120.0,1440.0,2.0,0.0
7505,66.0,0.0,360.0,5.0,0.0
7506,85.0,120.0,720.0,0.0,0.0
7507,78.0,0.0,720.0,0.0,0.0
7508,46.0,0.0,120.0,12.0,0.0
7509,85.0,0.0,720.0,1.0,0.0
7510,58.0,0.0,120.0,3.0,0.0
7511,90.0,0.0,720.0,1.0,0.0
7512,89.0,0.0,60.0,8.0,0.0
7513,89.0,60.0,60.0,7.0,0.0
7514,90.0,0.0,60.0,8.0,0.0
7515,90.0,0.0,60.0,7.0,0.0
7516,89.0,60.0,60.0,7.0,0.0
7517,89.0,0.0,60.0,8.0,0.0
7518,90.0,120.0,60.0,7.0,0.0
7519,54.0,0.0,360.0,4.0,0.0
7520,90.0,0.0,15.0,8.0,0.0
7521,58.0,0.0,120.0,12.0,0.0
7522,66.0,120.0,360.0,4.0,0.0
7523,70.0,120.0,120.0,11.0,0.0
7524,70.0,0.0,120.0,10.0,0.0
7525,78.0,0.0,360.0,5.0,0.0
7526,54.0,0.0,360.0,6.0,0.0
7527,90.0,0.0,240.0,7.0,0.0
7528,66.0,0.0,360.0,5.0,0.0
7529,70.0,0.0,120.0,3.0,0.0
7530,89.0,240.0,240.0,8.0,0.0
7531,89.0,0.0,240.0,7.0,0.0
7532,90.0,0.0,240.0,7.0,0.0
7533,90.0,120.0,240.0,8.0,0.0
7534,85.0,120.0,720.0,1.0,0.0
7535,78.0,0.0,1440.0,1.0,0.0
7536,90.0,0.0,1320.0,0.0,0.0
7537,85.0,0.0,720.0,0.0,0.0
7538,89.0,0.0,120.0,7.0,0.0
7539,89.0,120.0,120.0,8.0,0.0
7540,87.0,0.0,120.0,7.0,0.0
7541,87.0,120.0,120.0,8.0,0.0
7542,85.0,0.0,120.0,7.0,0.0
7543,85.0,90.0,120.0,8.0,0.0
7544,70.0,150.0,90.0,10.0,0.0
7545,58.0,0.0,90.0,11.0,0.0
7546,58.0,0.0,90.0,3.0,0.0
7547,46.0,0.0,90.0,12.0,0.0
7548,83.0,120.0,120.0,7.0,0.0
7549,56.0,120.0,360.0,11.0,0.0
7550,44.0,0.0,360.0,12.0,0.0
7551,56.0,0.0,360.0,3.0,0.0
7552,61.0,0.0,360.0,4.0,0.0
7553,68.0,0.0,360.0,10.0,0.0
7554,83.0,0.0,1440.0,0.0,0.0
7555,73.0,0.0,360.0,5.0,0.0
7556,71.0,0.0,1440.0,2.0,0.0
7557,49.0,0.0,360.0,6.0,0.0
7558,83.0,0.0,1920.0,1.0,0.0
7559,83.0,0.0,120.0,8.0,0.0
7560,85.0,0.0,120.0,8.0,0.0
7561,85.0,120.0,120.0,7.0,0.0
7562,82.0,0.0,120.0,8.0,0.0
7563,82.0,0.0,120.0,7.0,0.0
7564,83.0,0.0,120.0,8.0,0.0
7565,83.0,120.0,120.0,7.0,0.0
7566,68.0,0.0,270.0,10.0,0.0
7567,44.0,0.0,270.0,12.0,0.0
7568,56.0,90.0,270.0,3.0,0.0
7569,65.0,0.0,1800.0,2.0,0.0
7570,61.0,0.0,270.0,4.0,0.0
7571,73.0,0.0,270.0,5.0,0.0
7572,77.0,0.0,1440.0,1.0,0.0
7573,80.0,0.0,120.0,8.0,0.0
7574,89.0,0.0,1800.0,0.0,0.0
7575,56.0,0.0,270.0,11.0,0.0
7576,49.0,0.0,270.0,6.0,0.0
7577,80.0,120.0,120.0,7.0,0.0
7578,82.0,30.0,120.0,7.0,0.0
7579,82.0,0.0,120.0,8.0,0.0
7580,78.0,0.0,120.0,8.0,0.0
7581,78.0,90.0,120.0,7.0,0.0
7582,80.0,60.0,120.0,8.0,0.0
7583,49.0,30.0,90.0,6.0,0.0
7584,61.0,0.0,90.0,4.0,0.0
7585,56.0,0.0,90.0,3.0,0.0
7586,80.0,0.0,120.0,7.0,0.0
7587,56.0,0.0,90.0,11.0,0.0
7588,44.0,0.0,90.0,12.0,0.0
7589,73.0,0.0,90.0,5.0,0.0
7590,68.0,0.0,90.0,10.0,0.0
7591,44.0,60.0,60.0,12.0,0.0
7592,56.0,0.0,60.0,3.0,0.0
7593,68.0,0.0,60.0,10.0,0.0
7594,77.0,0.0,60.0,8.0,0.0
7595,73.0,0.0,360.0,5.0,0.0
7596,49.0,0.0,360.0,6.0,0.0
7597,61.0,0.0,360.0,4.0,0.0
7598,77.0,0.0,60.0,7.0,0.0
7599,56.0,0.0,60.0,11.0,0.0
7600,58.0,0.0,60.0,3.0,0.0
7601,46.0,0.0,60.0,12.0,0.0
7602,70.0,0.0,60.0,10.0,0.0
7603,58.0,60.0,60.0,11.0,0.0
7604,68.0,0.0,60.0,10.0,0.0
7605,56.0,0.0,60.0,11.0,0.0
7606,44.0,0.0,60.0,12.0,0.0
7607,56.0,60.0,60.0,3.0,0.0
7608,58.0,60.0,60.0,3.0,0.0
7609,58.0,0.0,60.0,11.0,0.0
7610,70.0,0.0,60.0,10.0,0.0
7611,46.0,0.0,60.0,12.0,0.0
7612,56.0,0.0,60.0,11.0,0.0
7613,80.0,0.0,240.0,7.0,0.0
7614,80.0,0.0,240.0,8.0,0.0
7615,68.0,0.0,60.0,10.0,0.0
7616,56.0,0.0,60.0,3.0,0.0
7617,44.0,60.0,60.0,12.0,0.0
7618,70.0,0.0,60.0,10.0,0.0
7619,46.0,0.0,60.0,12.0,0.0
7620,58.0,0.0,60.0,3.0,0.0
7621,58.0,60.0,60.0,11.0,0.0
7622,56.0,60.0,60.0,3.0,0.0
7623,56.0,0.0,60.0,11.0,0.0
7624,68.0,0.0,60.0,10.0,0.0
7625,44.0,0.0,60.0,12.0,0.0
7626,58.0,0.0,60.0,11.0,0.0
7627,46.0,0.0,60.0,12.0,0.0
7628,70.0,0.0,60.0,10.0,0.0
7629,58.0,60.0,60.0,3.0,0.0
7630,73.0,0.0,360.0,5.0,0.0
7631,44.0,0.0,60.0,12.0,0.0
7632,82.0,0.0,240.0,7.0,0.0
7633,49.0,120.0,360.0,6.0,0.0
7634,61.0,0.0,360.0,4.0,0.0
7635,56.0,0.0,60.0,11.0,0.0
7636,56.0,0.0,60.0,3.0,0.0
7637,82.0,120.0,240.0,8.0,0.0
7638,68.0,60.0,60.0,10.0,0.0
7639,46.0,0.0,60.0,12.0,0.0
7640,58.0,60.0,60.0,11.0,0.0
7641,58.0,0.0,60.0,3.0,0.0
7642,70.0,0.0,60.0,10.0,0.0
7643,68.0,60.0,60.0,10.0,0.0
7644,44.0,0.0,60.0,12.0,0.0
7645,56.0,0.0,60.0,11.0,0.0
7646,56.0,0.0,60.0,3.0,0.0
7647,46.0,0.0,60.0,12.0,0.0
7648,58.0,0.0,60.0,3.0,0.0
7649,70.0,0.0,60.0,10.0,0.0
7650,58.0,0.0,60.0,11.0,0.0
7651,54.0,0.0,120.0,3.0,0.0
7652,42.0,0.0,120.0,12.0,0.0
7653,83.0,0.0,240.0,7.0,0.0
7654,66.0,0.0,120.0,10.0,0.0
7655,54.0,0.0,120.0,11.0,0.0
7656,83.0,0.0,240.0,8.0,0.0
7657,68.0,0.0,120.0,10.0,0.0
7658,56.0,120.0,120.0,11.0,0.0
7659,56.0,0.0,120.0,3.0,0.0
7660,44.0,0.0,120.0,12.0,0.0
7661,82.0,0.0,180.0,7.0,0.0
7662,66.0,0.0,120.0,10.0,0.0
7663,42.0,0.0,120.0,12.0,0.0
7664,82.0,0.0,720.0,0.0,0.0
7665,70.0,0.0,720.0,2.0,0.0
7666,82.0,0.0,480.0,1.0,0.0
7667,66.0,60.0,360.0,4.0,0.0
7668,82.0,120.0,180.0,8.0,0.0
7669,54.0,60.0,120.0,3.0,0.0
7670,58.0,0.0,360.0,4.0,0.0
7671,78.0,0.0,360.0,5.0,0.0
7672,70.0,0.0,360.0,5.0,0.0
7673,78.0,240.0,960.0,1.0,0.0
7674,54.0,0.0,120.0,11.0,0.0
7675,54.0,0.0,360.0,6.0,0.0
7676,86.0,60.0,60.0,8.0,0.0
7677,86.0,0.0,60.0,7.0,0.0
7678,87.0,0.0,60.0,7.0,0.0
7679,87.0,0.0,60.0,8.0,0.0
7680,86.0,60.0,60.0,7.0,0.0
7681,86.0,0.0,60.0,8.0,0.0
7682,87.0,120.0,60.0,7.0,0.0
7683,87.0,0.0,60.0,8.0,0.0
7684,58.0,0.0,360.0,4.0,0.0
7685,66.0,0.0,360.0,4.0,0.0
7686,87.0,0.0,360.0,0.0,0.0
7687,66.0,0.0,120.0,11.0,0.0
7688,63.0,0.0,360.0,2.0,0.0
7689,78.0,0.0,120.0,10.0,0.0
7690,87.0,0.0,1920.0,1.0,0.0
7691,87.0,120.0,240.0,8.0,0.0
7692,78.0,0.0,360.0,5.0,0.0
7693,70.0,120.0,360.0,5.0,0.0
7694,54.0,0.0,360.0,6.0,0.0
7695,54.0,120.0,120.0,12.0,0.0
7696,66.0,0.0,120.0,3.0,0.0
7697,87.0,0.0,240.0,7.0,0.0
7698,86.0,0.0,240.0,8.0,0.0
7699,86.0,0.0,240.0,7.0,0.0
7700,75.0,0.0,1440.0,2.0,0.0
7701,82.0,120.0,960.0,1.0,0.0
7702,66.0,0.0,360.0,2.0,0.0
7703,87.0,120.0,240.0,7.0,0.0
7704,87.0,0.0,240.0,8.0,0.0
7705,87.0,0.0,1440.0,0.0,0.0
7706,90.0,0.0,360.0,0.0,0.0
7707,85.0,0.0,120.0,7.0,0.0
7708,85.0,240.0,120.0,8.0,0.0
7709,70.0,30.0,360.0,2.0,0.0
7710,83.0,240.0,120.0,7.0,0.0
7711,83.0,0.0,120.0,8.0,0.0
7712,94.0,0.0,360.0,0.0,0.0
7713,82.0,0.0,120.0,8.0,0.0
7714,82.0,0.0,120.0,7.0,0.0
7715,54.0,90.0,30.0,3.0,0.0
7716,54.0,0.0,30.0,11.0,0.0
7717,66.0,0.0,30.0,10.0,0.0
7718,42.0,0.0,30.0,12.0,0.0
7719,65.0,0.0,120.0,10.0,0.0
7720,61.0,0.0,360.0,4.0,0.0
7721,92.0,0.0,1920.0,0.0,0.0
7722,80.0,0.0,1920.0,1.0,0.0
7723,80.0,0.0,120.0,8.0,0.0
7724,49.0,120.0,360.0,6.0,0.0
7725,68.0,120.0,1920.0,2.0,0.0
7726,41.0,120.0,120.0,12.0,0.0
7727,53.0,0.0,120.0,3.0,0.0
7728,73.0,0.0,360.0,5.0,0.0
7729,80.0,0.0,120.0,7.0,0.0
7730,53.0,0.0,120.0,11.0,0.0
7731,82.0,120.0,120.0,7.0,0.0
7732,82.0,0.0,120.0,8.0,0.0
7733,78.0,0.0,120.0,7.0,0.0
7734,78.0,0.0,120.0,8.0,0.0
7735,80.0,0.0,120.0,8.0,0.0
7736,80.0,120.0,120.0,7.0,0.0
7737,73.0,0.0,1920.0,2.0,0.0
7738,65.0,120.0,120.0,3.0,0.0
7739,65.0,0.0,120.0,11.0,0.0
7740,77.0,0.0,120.0,8.0,0.0
7741,85.0,0.0,1920.0,1.0,0.0
7742,85.0,0.0,1920.0,0.0,0.0
7743,49.0,0.0,270.0,6.0,0.0
7744,77.0,0.0,120.0,7.0,0.0
7745,53.0,0.0,120.0,12.0,0.0
7746,78.0,0.0,120.0,10.0,0.0
7747,73.0,0.0,270.0,5.0,0.0
7748,61.0,90.0,270.0,4.0,0.0
7749,78.0,0.0,120.0,7.0,0.0
7750,78.0,30.0,120.0,8.0,0.0
7751,75.0,90.0,120.0,8.0,0.0
7752,75.0,0.0,120.0,7.0,0.0
7753,77.0,60.0,120.0,8.0,0.0
7754,73.0,0.0,90.0,5.0,0.0
7755,49.0,0.0,90.0,6.0,0.0
7756,61.0,30.0,90.0,4.0,0.0
7757,77.0,0.0,120.0,7.0,0.0
7758,73.0,300.0,60.0,8.0,0.0
7759,73.0,120.0,360.0,5.0,0.0
7760,73.0,0.0,60.0,7.0,0.0
7761,61.0,0.0,360.0,4.0,0.0
7762,49.0,0.0,360.0,6.0,0.0
7763,77.0,240.0,240.0,8.0,0.0
7764,77.0,0.0,240.0,7.0,0.0
7765,78.0,0.0,240.0,7.0,0.0
7766,61.0,0.0,360.0,4.0,0.0
7767,78.0,120.0,240.0,8.0,0.0
7768,73.0,0.0,360.0,5.0,0.0
7769,49.0,90.0,360.0,6.0,0.0
7770,80.0,0.0,240.0,7.0,0.0
7771,80.0,0.0,240.0,8.0,0.0
7772,53.0,0.0,90.0,11.0,0.0
7773,53.0,30.0,90.0,3.0,0.0
7774,65.0,0.0,90.0,10.0,0.0
7775,41.0,0.0,90.0,12.0,0.0
7776,78.0,0.0,1920.0,1.0,0.0
7777,78.0,120.0,120.0,7.0,0.0
7778,39.0,0.0,360.0,12.0,0.0
7779,51.0,0.0,360.0,3.0,0.0
7780,51.0,0.0,360.0,11.0,0.0
7781,66.0,0.0,1920.0,2.0,0.0
7782,54.0,0.0,360.0,6.0,0.0
7783,66.0,0.0,360.0,4.0,0.0
7784,54.0,0.0,360.0,4.0,0.0
7785,78.0,0.0,120.0,8.0,0.0
7786,66.0,0.0,360.0,5.0,0.0
7787,78.0,0.0,360.0,5.0,0.0
7788,63.0,0.0,360.0,10.0,0.0
7789,90.0,0.0,1920.0,0.0,0.0
7790,80.0,120.0,120.0,7.0,0.0
7791,80.0,0.0,120.0,8.0,0.0
7792,82.0,0.0,120.0,8.0,0.0
7793,82.0,120.0,120.0,7.0,0.0
7794,80.0,0.0,120.0,8.0,0.0
7795,80.0,120.0,120.0,7.0,0.0
7796,51.0,0.0,270.0,11.0,0.0
7797,72.0,0.0,1440.0,2.0,0.0
7798,78.0,120.0,120.0,8.0,0.0
7799,84.0,0.0,1440.0,1.0,0.0
7800,78.0,0.0,120.0,7.0,0.0
7801,84.0,0.0,1440.0,0.0,0.0
7802,54.0,0.0,270.0,4.0,0.0
7803,66.0,0.0,270.0,4.0,0.0
7804,78.0,0.0,270.0,5.0,0.0
7805,66.0,0.0,270.0,5.0,0.0
7806,54.0,0.0,270.0,6.0,0.0
7807,63.0,0.0,270.0,10.0,0.0
7808,51.0,0.0,270.0,3.0,0.0
7809,39.0,90.0,270.0,12.0,0.0
7810,77.0,0.0,120.0,8.0,0.0
7811,77.0,30.0,120.0,7.0,0.0
7812,75.0,0.0,120.0,8.0,0.0
7813,75.0,90.0,120.0,7.0,0.0
7814,73.0,0.0,120.0,8.0,0.0
7815,51.0,0.0,90.0,11.0,0.0
7816,66.0,0.0,90.0,4.0,0.0
7817,63.0,0.0,90.0,10.0,0.0
7818,39.0,0.0,90.0,12.0,0.0
7819,73.0,60.0,120.0,7.0,0.0
7820,66.0,0.0,90.0,5.0,0.0
7821,78.0,0.0,90.0,5.0,0.0
7822,54.0,0.0,90.0,6.0,0.0
7823,51.0,0.0,90.0,3.0,0.0
7824,54.0,30.0,90.0,4.0,0.0
7825,72.0,0.0,120.0,7.0,0.0
7826,66.0,0.0,360.0,5.0,0.0
7827,78.0,0.0,360.0,5.0,0.0
7828,72.0,0.0,120.0,8.0,0.0
7829,66.0,0.0,360.0,4.0,0.0
7830,54.0,0.0,360.0,4.0,0.0
7831,51.0,60.0,60.0,11.0,0.0
7832,54.0,0.0,360.0,6.0,0.0
7833,51.0,0.0,60.0,3.0,0.0
7834,39.0,0.0,60.0,12.0,0.0
7835,63.0,0.0,60.0,10.0,0.0
7836,65.0,60.0,60.0,10.0,0.0
7837,53.0,0.0,60.0,3.0,0.0
7838,41.0,0.0,60.0,12.0,0.0
7839,53.0,0.0,60.0,11.0,0.0
7840,39.0,0.0,60.0,12.0,0.0
7841,63.0,60.0,60.0,10.0,0.0
7842,51.0,0.0,60.0,11.0,0.0
7843,73.0,0.0,120.0,8.0,0.0
7844,51.0,0.0,60.0,3.0,0.0
7845,73.0,0.0,120.0,7.0,0.0
7846,53.0,0.0,60.0,11.0,0.0
7847,53.0,0.0,60.0,3.0,0.0
7848,41.0,60.0,60.0,12.0,0.0
7849,65.0,0.0,60.0,10.0,0.0
7850,51.0,60.0,60.0,3.0,0.0
7851,63.0,0.0,60.0,10.0,0.0
7852,75.0,0.0,120.0,8.0,0.0
7853,51.0,0.0,60.0,11.0,0.0
7854,39.0,0.0,60.0,12.0,0.0
7855,75.0,0.0,120.0,7.0,0.0
7856,41.0,0.0,60.0,12.0,0.0
7857,65.0,0.0,60.0,10.0,0.0
7858,53.0,0.0,60.0,11.0,0.0
7859,53.0,60.0,60.0,3.0,0.0
7860,73.0,0.0,120.0,7.0,0.0
7861,51.0,0.0,60.0,3.0,0.0
7862,63.0,0.0,60.0,10.0,0.0
7863,73.0,0.0,120.0,8.0,0.0
7864,51.0,60.0,60.0,11.0,0.0
7865,39.0,0.0,60.0,12.0,0.0
7866,65.0,0.0,60.0,10.0,0.0
7867,41.0,0.0,60.0,12.0,0.0
7868,53.0,0.0,60.0,11.0,0.0
7869,53.0,60.0,60.0,3.0,0.0
7870,54.0,0.0,360.0,4.0,0.0
7871,66.0,0.0,360.0,4.0,0.0
7872,72.0,0.0,120.0,8.0,0.0
7873,39.0,0.0,60.0,12.0,0.0
7874,63.0,0.0,60.0,10.0,0.0
7875,54.0,0.0,360.0,6.0,0.0
7876,51.0,60.0,60.0,11.0,0.0
7877,51.0,0.0,60.0,3.0,0.0
7878,78.0,0.0,360.0,5.0,0.0
7879,66.0,0.0,360.0,5.0,0.0
7880,72.0,0.0,120.0,7.0,0.0
7881,41.0,60.0,60.0,12.0,0.0
7882,53.0,0.0,60.0,11.0,0.0
7883,65.0,0.0,60.0,10.0,0.0
7884,53.0,0.0,60.0,3.0,0.0
7885,51.0,0.0,60.0,3.0,0.0
7886,70.0,0.0,120.0,7.0,0.0
7887,70.0,0.0,120.0,8.0,0.0
7888,63.0,60.0,60.0,10.0,0.0
7889,39.0,0.0,60.0,12.0,0.0
7890,51.0,0.0,60.0,11.0,0.0
7891,41.0,0.0,60.0,12.0,0.0
7892,53.0,0.0,60.0,11.0,0.0
7893,53.0,0.0,60.0,3.0,0.0
7894,65.0,120.0,60.0,10.0,0.0
7895,37.0,0.0,120.0,12.0,0.0
7896,49.0,120.0,120.0,11.0,0.0
7897,49.0,0.0,120.0,3.0,0.0
7898,68.0,0.0,120.0,7.0,0.0
7899,68.0,0.0,120.0,8.0,0.0
7900,61.0,0.0,120.0,10.0,0.0
7901,66.0,0.0,120.0,8.0,0.0
7902,63.0,0.0,120.0,10.0,0.0
7903,51.0,120.0,120.0,3.0,0.0
7904,39.0,0.0,120.0,12.0,0.0
7905,51.0,0.0,120.0,11.0,0.0
7906,66.0,0.0,120.0,7.0,0.0
7907,73.0,0.0,360.0,2.0,0.0
7908,65.0,0.0,360.0,2.0,0.0
7909,77.0,0.0,360.0,1.0,0.0
7910,49.0,0.0,360.0,6.0,0.0
7911,49.0,0.0,360.0,3.0,0.0
7912,89.0,0.0,360.0,0.0,0.0
7913,65.0,180.0,180.0,7.0,0.0
7914,73.0,0.0,360.0,5.0,0.0
7915,85.0,0.0,360.0,1.0,0.0
7916,85.0,0.0,360.0,0.0,0.0
7917,37.0,0.0,360.0,12.0,0.0
7918,49.0,0.0,18720.0,4.0,0.0
7919,61.0,0.0,19560.0,4.0,0.0
7920,49.0,240.0,360.0,11.0,0.0
7921,65.0,60.0,120.0,8.0,0.0
7922,61.0,0.0,1440.0,10.0,0.0
7923,73.0,0.0,120.0,7.0,0.0
7924,65.0,0.0,120.0,8.0,0.0
7925,73.0,240.0,120.0,7.0,0.0
7926,65.0,0.0,120.0,8.0,0.0
7927,73.0,360.0,120.0,7.0,0.0
7928,65.0,0.0,120.0,8.0,0.0
7929,72.0,240.0,240.0,7.0,0.0
7930,64.0,0.0,240.0,8.0,0.0
7931,73.0,0.0,240.0,7.0,0.0
7932,65.0,120.0,15.0,8.0,0.0
7933,73.0,0.0,120.0,7.0,0.0
7934,65.0,0.0,120.0,8.0,0.0
7935,73.0,360.0,120.0,7.0,0.0
7936,73.0,210.0,1590.0,10.0,0.0
7937,37.0,0.0,360.0,12.0,0.0
7938,65.0,120.0,240.0,8.0,0.0
7939,49.0,120.0,360.0,11.0,0.0
7940,74.0,0.0,240.0,7.0,0.0
7941,61.0,120.0,1440.0,3.0,0.0
7942,75.0,0.0,240.0,7.0,0.0
7943,75.0,240.0,120.0,7.0,0.0
7944,66.0,120.0,15.0,8.0,0.0
7945,75.0,360.0,120.0,7.0,0.0
7946,66.0,0.0,120.0,8.0,0.0
7947,66.0,240.0,240.0,8.0,0.0
7948,75.0,0.0,1320.0,7.0,0.0
7949,67.0,0.0,15.0,8.0,0.0
7950,67.0,30.0,120.0,8.0,0.0
7951,61.0,210.0,30.0,10.0,0.0
7952,49.0,120.0,360.0,11.0,0.0
7953,67.0,120.0,240.0,8.0,0.0
7954,37.0,0.0,360.0,12.0,0.0
7955,59.0,0.0,1440.0,3.0,0.0
7956,59.0,120.0,120.0,10.0,0.0
7957,68.0,120.0,240.0,8.0,0.0
7958,87.0,240.0,720.0,7.0,0.0
7959,71.0,120.0,120.0,10.0,0.0
7960,70.0,240.0,240.0,8.0,0.0
7961,68.0,240.0,15.0,8.0,0.0
7962,90.0,0.0,240.0,7.0,0.0
7963,80.0,0.0,1680.0,8.0,0.0
7964,89.0,210.0,240.0,7.0,0.0
7965,59.0,30.0,90.0,10.0,0.0
7966,58.0,0.0,360.0,10.0,0.0
7967,37.0,120.0,360.0,12.0,0.0
7968,87.0,240.0,15.0,7.0,0.0
7969,49.0,0.0,360.0,11.0,0.0
7970,58.0,0.0,1440.0,3.0,0.0
7971,85.0,240.0,240.0,7.0,0.0
7972,84.0,30.0,240.0,7.0,0.0
7973,58.0,180.0,270.0,10.0,0.0
7974,85.0,60.0,240.0,7.0,0.0
7975,58.0,30.0,90.0,10.0,0.0
7976,85.0,120.0,1200.0,7.0,0.0
7977,58.0,60.0,60.0,10.0,0.0
7978,59.0,60.0,60.0,10.0,0.0
7979,58.0,60.0,60.0,10.0,0.0
7980,59.0,60.0,60.0,10.0,0.0
7981,78.0,60.0,240.0,8.0,0.0
7982,58.0,60.0,60.0,10.0,0.0
7983,59.0,60.0,60.0,10.0,0.0
7984,58.0,60.0,60.0,10.0,0.0
7985,59.0,0.0,60.0,10.0,0.0
7986,58.0,60.0,60.0,10.0,0.0
7987,77.0,120.0,240.0,8.0,0.0
7988,59.0,60.0,60.0,10.0,0.0
7989,58.0,60.0,60.0,10.0,0.0
7990,59.0,0.0,60.0,10.0,0.0
7991,56.0,120.0,120.0,10.0,0.0
7992,78.0,120.0,240.0,8.0,0.0
7993,58.0,0.0,120.0,10.0,0.0
7994,49.0,0.0,360.0,11.0,0.0
7995,78.0,0.0,960.0,8.0,0.0
7996,56.0,120.0,120.0,10.0,0.0
7997,56.0,0.0,960.0,3.0,0.0
7998,37.0,120.0,360.0,12.0,0.0
7999,83.0,120.0,240.0,7.0,0.0
8000,68.0,120.0,120.0,10.0,0.0
8001,82.0,240.0,240.0,7.0,0.0
8002,77.0,0.0,2160.0,8.0,0.0
8003,83.0,240.0,15.0,7.0,0.0
8004,68.0,240.0,960.0,3.0,0.0
8005,87.0,240.0,240.0,7.0,0.0
8006,85.0,210.0,240.0,7.0,0.0
8007,83.0,0.0,240.0,7.0,0.0
8008,68.0,30.0,90.0,10.0,0.0
8009,66.0,0.0,1440.0,3.0,0.0
8010,83.0,120.0,240.0,7.0,0.0
8011,49.0,120.0,360.0,11.0,0.0
8012,66.0,0.0,360.0,10.0,0.0
8013,37.0,0.0,360.0,12.0,0.0
8014,82.0,240.0,240.0,7.0,0.0
8015,81.0,30.0,240.0,7.0,0.0
8016,66.0,180.0,270.0,10.0,0.0
8017,82.0,60.0,240.0,7.0,0.0
8018,66.0,30.0,90.0,10.0,0.0
8019,66.0,60.0,60.0,10.0,0.0
8020,82.0,120.0,1200.0,7.0,0.0
8021,68.0,60.0,60.0,10.0,0.0
8022,66.0,60.0,60.0,10.0,0.0
8023,68.0,60.0,60.0,10.0,0.0
8024,75.0,60.0,240.0,8.0,0.0
8025,66.0,60.0,60.0,10.0,0.0
8026,68.0,60.0,60.0,10.0,0.0
8027,66.0,60.0,60.0,10.0,0.0
8028,68.0,0.0,60.0,10.0,0.0
8029,66.0,60.0,60.0,10.0,0.0
8030,74.0,120.0,240.0,8.0,0.0
8031,68.0,60.0,60.0,10.0,0.0
8032,66.0,60.0,60.0,10.0,0.0
8033,68.0,0.0,60.0,10.0,0.0
8034,65.0,120.0,120.0,10.0,0.0
8035,75.0,0.0,240.0,8.0,0.0
8036,66.0,120.0,120.0,10.0,0.0
8037,49.0,0.0,360.0,11.0,0.0
8038,37.0,120.0,360.0,12.0,0.0
8039,65.0,240.0,1440.0,3.0,0.0
8040,65.0,120.0,120.0,10.0,0.0
8041,75.0,0.0,960.0,8.0,0.0
8042,80.0,120.0,240.0,7.0,0.0
8043,79.0,240.0,240.0,7.0,0.0
8044,77.0,120.0,120.0,10.0,0.0
8045,80.0,240.0,15.0,7.0,0.0
8046,73.0,60.0,2160.0,8.0,0.0
8047,83.0,0.0,240.0,7.0,0.0
8048,82.0,210.0,240.0,7.0,0.0
8049,65.0,30.0,90.0,10.0,0.0
8050,80.0,240.0,15.0,7.0,0.0
8051,63.0,60.0,1440.0,3.0,0.0
8052,37.0,120.0,360.0,12.0,0.0
8053,49.0,0.0,360.0,11.0,0.0
8054,63.0,0.0,360.0,10.0,0.0
8055,78.0,240.0,240.0,7.0,0.0
8056,77.0,30.0,240.0,7.0,0.0
8057,63.0,180.0,270.0,10.0,0.0
8058,63.0,30.0,90.0,10.0,0.0
8059,78.0,60.0,15.0,7.0,0.0
8060,63.0,60.0,60.0,10.0,0.0
8061,65.0,60.0,60.0,10.0,0.0
8062,63.0,60.0,60.0,10.0,0.0
8063,65.0,0.0,60.0,10.0,0.0
8064,71.0,0.0,240.0,8.0,0.0
8065,63.0,60.0,60.0,10.0,0.0
8066,65.0,60.0,60.0,10.0,0.0
8067,63.0,60.0,60.0,10.0,0.0
8068,65.0,0.0,60.0,10.0,0.0
8069,63.0,60.0,60.0,10.0,0.0
8070,70.0,0.0,240.0,8.0,0.0
8071,65.0,60.0,60.0,10.0,0.0
8072,63.0,60.0,60.0,10.0,0.0
8073,65.0,120.0,60.0,10.0,0.0
8074,71.0,120.0,720.0,8.0,0.0
8075,61.0,120.0,120.0,10.0,0.0
8076,63.0,120.0,120.0,10.0,0.0
8077,49.0,120.0,360.0,11.0,0.0
8078,61.0,0.0,960.0,3.0,0.0
8079,61.0,120.0,120.0,10.0,0.0
8080,37.0,0.0,360.0,12.0,0.0
8081,73.0,120.0,960.0,2.0,0.0
8082,77.0,0.0,240.0,7.0,0.0
8083,37.0,120.0,360.0,12.0,0.0
8084,82.0,120.0,240.0,7.0,0.0
8085,73.0,120.0,120.0,10.0,0.0
8086,70.0,0.0,960.0,8.0,0.0
8087,49.0,0.0,360.0,11.0,0.0
8088,78.0,0.0,240.0,7.0,0.0
8089,49.0,120.0,360.0,11.0,0.0
8090,37.0,0.0,360.0,12.0,0.0
8091,77.0,120.0,240.0,7.0,0.0
8092,71.0,120.0,960.0,2.0,0.0
8093,59.0,120.0,120.0,10.0,0.0
8094,59.0,0.0,960.0,3.0,0.0
8095,75.0,120.0,240.0,7.0,0.0
8096,49.0,0.0,360.0,11.0,0.0
8097,71.0,120.0,120.0,10.0,0.0
8098,80.0,120.0,240.0,7.0,0.0
8099,68.0,0.0,960.0,8.0,0.0
8100,37.0,120.0,360.0,12.0,0.0
8101,77.0,0.0,240.0,7.0,0.0
8102,75.0,120.0,240.0,7.0,0.0
8103,37.0,0.0,360.0,12.0,0.0
8104,49.0,120.0,360.0,11.0,0.0
8105,58.0,120.0,120.0,10.0,0.0
8106,58.0,0.0,960.0,3.0,0.0
8107,70.0,120.0,960.0,2.0,0.0
8108,73.0,120.0,240.0,7.0,0.0
8109,78.0,120.0,240.0,7.0,0.0
8110,66.0,120.0,960.0,8.0,0.0
8111,70.0,120.0,120.0,10.0,0.0
8112,49.0,0.0,360.0,11.0,0.0
8113,37.0,120.0,360.0,12.0,0.0
8114,75.0,0.0,240.0,7.0,0.0
8115,56.0,0.0,960.0,3.0,0.0
8116,37.0,120.0,360.0,12.0,0.0
8117,68.0,0.0,960.0,2.0,0.0
8118,49.0,0.0,360.0,11.0,0.0
8119,56.0,120.0,120.0,10.0,0.0
8120,73.0,120.0,240.0,7.0,0.0
8121,71.0,0.0,240.0,7.0,0.0
8122,37.0,0.0,360.0,12.0,0.0
8123,63.0,0.0,480.0,8.0,0.0
8124,75.0,120.0,240.0,7.0,0.0
8125,49.0,120.0,360.0,11.0,0.0
8126,68.0,120.0,120.0,10.0,0.0
8127,71.0,60.0,240.0,7.0,0.0
8128,66.0,0.0,180.0,2.0,0.0
8129,54.0,0.0,360.0,4.0,0.0
8130,54.0,0.0,360.0,11.0,0.0
8131,66.0,60.0,360.0,10.0,0.0
8132,42.0,0.0,360.0,12.0,0.0
8133,54.0,0.0,360.0,3.0,0.0
8134,70.0,120.0,60.0,7.0,0.0
8135,66.0,0.0,360.0,8.0,0.0
8136,66.0,120.0,60.0,7.0,0.0
8137,68.0,30.0,60.0,7.0,0.0
8138,68.0,30.0,90.0,2.0,0.0
8139,70.0,30.0,60.0,7.0,0.0
8140,70.0,90.0,90.0,2.0,0.0
8141,71.0,30.0,60.0,7.0,0.0
8142,71.0,90.0,90.0,2.0,0.0
8143,73.0,30.0,60.0,7.0,0.0
8144,73.0,90.0,90.0,2.0,0.0
8145,75.0,90.0,90.0,2.0,0.0
8146,75.0,30.0,60.0,7.0,0.0
8147,77.0,30.0,60.0,7.0,0.0
8148,77.0,90.0,90.0,2.0,0.0
8149,78.0,90.0,90.0,0.0,0.0
8150,78.0,60.0,360.0,2.0,0.0
8151,78.0,30.0,60.0,7.0,0.0
8152,80.0,90.0,90.0,0.0,0.0
8153,80.0,30.0,60.0,7.0,0.0
8154,82.0,30.0,90.0,0.0,0.0
8155,82.0,30.0,60.0,7.0,0.0
8156,83.0,30.0,60.0,7.0,0.0
8157,83.0,90.0,90.0,0.0,0.0
8158,85.0,30.0,60.0,7.0,0.0
8159,85.0,90.0,90.0,0.0,0.0
8160,87.0,90.0,90.0,0.0,0.0
8161,87.0,30.0,60.0,7.0,0.0
8162,89.0,90.0,90.0,0.0,0.0
8163,89.0,30.0,60.0,7.0,0.0
8164,90.0,360.0,90.0,0.0,0.0
8165,90.0,30.0,60.0,7.0,0.0
8166,87.0,0.0,720.0,1.0,0.0
8167,54.0,0.0,720.0,4.0,0.0
8168,66.0,0.0,720.0,4.0,0.0
8169,78.0,0.0,360.0,7.0,0.0
8170,87.0,0.0,720.0,7.0,0.0
8171,87.0,180.0,720.0,0.0,0.0
8172,78.0,0.0,720.0,5.0,0.0
8173,66.0,0.0,720.0,5.0,0.0
8174,54.0,0.0,360.0,6.0,0.0
8175,75.0,0.0,720.0,2.0,0.0
8176,71.0,0.0,720.0,2.0,0.0
8177,83.0,0.0,720.0,8.0,0.0
8178,75.0,90.0,360.0,8.0,0.0
8179,66.0,0.0,360.0,8.0,0.0
8180,83.0,0.0,720.0,1.0,0.0
8181,83.0,0.0,720.0,0.0,0.0
8182,66.0,0.0,360.0,7.0,0.0
8183,71.0,0.0,90.0,10.0,0.0
8184,59.0,30.0,90.0,3.0,0.0
8185,59.0,0.0,90.0,11.0,0.0
8186,47.0,0.0,90.0,12.0,0.0
8187,58.0,210.0,90.0,3.0,0.0
8188,58.0,0.0,90.0,11.0,0.0
8189,46.0,0.0,90.0,12.0,0.0
8190,70.0,0.0,90.0,10.0,0.0
8191,47.0,0.0,180.0,12.0,0.0
8192,59.0,0.0,180.0,3.0,0.0
8193,71.0,0.0,180.0,10.0,0.0
8194,59.0,60.0,180.0,11.0,0.0
8195,61.0,0.0,180.0,11.0,0.0
8196,73.0,0.0,180.0,10.0,0.0
8197,61.0,0.0,180.0,3.0,0.0
8198,49.0,240.0,180.0,12.0,0.0
8199,54.0,30.0,630.0,4.0,0.0
8200,66.0,0.0,360.0,8.0,0.0
8201,75.0,90.0,360.0,8.0,0.0
8202,63.0,0.0,180.0,11.0,0.0
8203,54.0,0.0,360.0,6.0,0.0
8204,78.0,0.0,630.0,2.0,0.0
8205,83.0,0.0,630.0,8.0,0.0
8206,51.0,0.0,180.0,12.0,0.0
8207,66.0,0.0,630.0,4.0,0.0
8208,78.0,0.0,630.0,5.0,0.0
8209,71.0,0.0,630.0,2.0,0.0
8210,66.0,0.0,630.0,5.0,0.0
8211,75.0,0.0,180.0,10.0,0.0
8212,66.0,0.0,360.0,7.0,0.0
8213,78.0,0.0,360.0,7.0,0.0
8214,90.0,0.0,630.0,7.0,0.0
8215,63.0,150.0,180.0,3.0,0.0
8216,87.0,0.0,630.0,1.0,0.0
8217,83.0,0.0,630.0,1.0,0.0
8218,83.0,0.0,630.0,0.0,0.0
8219,90.0,0.0,630.0,0.0,0.0
8220,75.0,0.0,90.0,10.0,0.0
8221,63.0,0.0,90.0,3.0,0.0
8222,63.0,30.0,90.0,11.0,0.0
8223,51.0,0.0,90.0,12.0,0.0
8224,61.0,0.0,90.0,3.0,0.0
8225,49.0,0.0,90.0,12.0,0.0
8226,61.0,0.0,90.0,11.0,0.0
8227,73.0,180.0,90.0,10.0,0.0
8228,75.0,0.0,180.0,10.0,0.0
8229,63.0,0.0,180.0,3.0,0.0
8230,63.0,210.0,180.0,11.0,0.0
8231,51.0,0.0,180.0,12.0,0.0
8232,65.0,0.0,180.0,3.0,0.0
8233,77.0,180.0,180.0,10.0,0.0
8234,65.0,0.0,180.0,11.0,0.0
8235,53.0,0.0,180.0,12.0,0.0
8236,83.0,0.0,30.0,0.0,0.0
8237,78.0,0.0,30.0,5.0,0.0
8238,87.0,0.0,30.0,0.0,0.0
8239,66.0,0.0,30.0,4.0,0.0
8240,87.0,0.0,30.0,7.0,0.0
8241,83.0,0.0,30.0,1.0,0.0
8242,87.0,0.0,30.0,1.0,0.0
8243,54.0,30.0,30.0,4.0,0.0
8244,75.0,0.0,30.0,2.0,0.0
8245,66.0,0.0,30.0,5.0,0.0
8246,83.0,0.0,30.0,8.0,0.0
8247,71.0,0.0,30.0,2.0,0.0
8248,66.0,0.0,120.0,5.0,0.0
8249,82.0,0.0,120.0,0.0,0.0
8250,85.0,0.0,120.0,0.0,0.0
8251,54.0,0.0,180.0,12.0,0.0
8252,82.0,0.0,120.0,8.0,0.0
8253,85.0,0.0,120.0,7.0,0.0
8254,78.0,0.0,120.0,5.0,0.0
8255,66.0,150.0,180.0,3.0,0.0
8256,73.0,0.0,120.0,2.0,0.0
8257,85.0,60.0,120.0,1.0,0.0
8258,82.0,0.0,120.0,1.0,0.0
8259,78.0,0.0,180.0,10.0,0.0
8260,54.0,0.0,120.0,4.0,0.0
8261,66.0,0.0,180.0,11.0,0.0
8262,70.0,0.0,120.0,2.0,0.0
8263,66.0,0.0,120.0,4.0,0.0
8264,54.0,0.0,120.0,6.0,0.0
8265,66.0,0.0,90.0,11.0,0.0
8266,66.0,120.0,90.0,10.0,0.0
8267,54.0,0.0,90.0,12.0,0.0
8268,66.0,0.0,90.0,3.0,0.0
8269,65.0,150.0,90.0,3.0,0.0
8270,65.0,0.0,90.0,10.0,0.0
8271,65.0,0.0,90.0,11.0,0.0
8272,53.0,0.0,90.0,12.0,0.0
8273,90.0,0.0,120.0,0.0,0.0
8274,54.0,0.0,180.0,12.0,0.0
8275,73.0,0.0,120.0,2.0,0.0
8276,70.0,0.0,120.0,2.0,0.0
8277,82.0,0.0,120.0,8.0,0.0
8278,54.0,0.0,120.0,4.0,0.0
8279,66.0,0.0,120.0,4.0,0.0
8280,66.0,240.0,180.0,11.0,0.0
8281,78.0,0.0,120.0,5.0,0.0
8282,66.0,0.0,120.0,5.0,0.0
8283,82.0,0.0,120.0,1.0,0.0
8284,66.0,0.0,180.0,10.0,0.0
8285,85.0,0.0,120.0,1.0,0.0
8286,54.0,60.0,120.0,6.0,0.0
8287,85.0,0.0,120.0,0.0,0.0
8288,66.0,0.0,180.0,3.0,0.0
8289,90.0,0.0,120.0,7.0,0.0
8290,68.0,0.0,180.0,3.0,0.0
8291,56.0,0.0,180.0,12.0,0.0
8292,68.0,0.0,180.0,10.0,0.0
8293,68.0,240.0,180.0,11.0,0.0
8294,70.0,0.0,180.0,3.0,0.0
8295,70.0,0.0,180.0,10.0,0.0
8296,58.0,0.0,180.0,12.0,0.0
8297,70.0,240.0,180.0,11.0,0.0
8298,54.0,0.0,180.0,11.0,0.0
8299,54.0,240.0,180.0,3.0,0.0
8300,42.0,0.0,180.0,12.0,0.0
8301,66.0,0.0,180.0,10.0,0.0
8302,68.0,0.0,180.0,10.0,0.0
8303,56.0,240.0,180.0,11.0,0.0
8304,44.0,0.0,180.0,12.0,0.0
8305,56.0,0.0,180.0,3.0,0.0
8306,58.0,240.0,180.0,11.0,0.0
8307,58.0,0.0,180.0,3.0,0.0
8308,46.0,0.0,180.0,12.0,0.0
8309,70.0,0.0,180.0,10.0,0.0
8310,54.0,0.0,720.0,4.0,0.0
8311,83.0,0.0,720.0,1.0,0.0
8312,75.0,0.0,720.0,2.0,0.0
8313,78.0,0.0,720.0,5.0,0.0
8314,66.0,0.0,720.0,5.0,0.0
8315,87.0,0.0,720.0,0.0,0.0
8316,87.0,0.0,720.0,1.0,0.0
8317,54.0,90.0,360.0,6.0,0.0
8318,78.0,0.0,360.0,7.0,0.0
8319,66.0,0.0,720.0,4.0,0.0
8320,59.0,150.0,180.0,11.0,0.0
8321,47.0,0.0,180.0,12.0,0.0
8322,87.0,0.0,720.0,7.0,0.0
8323,66.0,0.0,360.0,7.0,0.0
8324,71.0,120.0,720.0,2.0,0.0
8325,83.0,0.0,720.0,0.0,0.0
8326,83.0,0.0,720.0,8.0,0.0
8327,75.0,0.0,360.0,8.0,0.0
8328,66.0,0.0,360.0,8.0,0.0
8329,59.0,0.0,180.0,3.0,0.0
8330,71.0,0.0,180.0,10.0,0.0
8331,71.0,0.0,90.0,10.0,0.0
8332,59.0,0.0,90.0,3.0,0.0
8333,59.0,0.0,90.0,11.0,0.0
8334,47.0,30.0,90.0,12.0,0.0
8335,58.0,210.0,90.0,3.0,0.0
8336,46.0,0.0,90.0,12.0,0.0
8337,58.0,0.0,90.0,11.0,0.0
8338,70.0,0.0,90.0,10.0,0.0
8339,59.0,60.0,180.0,3.0,0.0
8340,71.0,0.0,180.0,10.0,0.0
8341,61.0,0.0,360.0,11.0,0.0
8342,49.0,60.0,360.0,12.0,0.0
8343,73.0,240.0,180.0,10.0,0.0
8344,61.0,0.0,180.0,3.0,0.0
8345,71.0,0.0,630.0,2.0,0.0
8346,83.0,0.0,630.0,0.0,0.0
8347,51.0,0.0,180.0,12.0,0.0
8348,66.0,90.0,360.0,7.0,0.0
8349,78.0,0.0,360.0,7.0,0.0
8350,66.0,30.0,630.0,4.0,0.0
8351,54.0,0.0,630.0,4.0,0.0
8352,54.0,0.0,360.0,6.0,0.0
8353,78.0,0.0,630.0,5.0,0.0
8354,66.0,0.0,630.0,5.0,0.0
8355,90.0,0.0,630.0,7.0,0.0
8356,90.0,0.0,630.0,0.0,0.0
8357,66.0,0.0,360.0,8.0,0.0
8358,75.0,0.0,360.0,8.0,0.0
8359,83.0,0.0,630.0,1.0,0.0
8360,87.0,0.0,630.0,1.0,0.0
8361,78.0,0.0,630.0,2.0,0.0
8362,63.0,0.0,180.0,3.0,0.0
8363,63.0,150.0,180.0,11.0,0.0
8364,83.0,0.0,630.0,8.0,0.0
8365,75.0,0.0,180.0,10.0,0.0
8366,75.0,30.0,90.0,10.0,0.0
8367,63.0,0.0,90.0,11.0,0.0
8368,51.0,0.0,90.0,12.0,0.0
8369,63.0,0.0,90.0,3.0,0.0
8370,49.0,180.0,90.0,12.0,0.0
8371,73.0,0.0,90.0,10.0,0.0
8372,61.0,0.0,90.0,11.0,0.0
8373,61.0,0.0,90.0,3.0,0.0
8374,63.0,0.0,180.0,3.0,0.0
8375,75.0,210.0,180.0,10.0,0.0
8376,63.0,0.0,180.0,11.0,0.0
8377,51.0,0.0,180.0,12.0,0.0
8378,65.0,0.0,180.0,11.0,0.0
8379,77.0,0.0,180.0,10.0,0.0
8380,65.0,0.0,180.0,3.0,0.0
8381,53.0,180.0,180.0,12.0,0.0
8382,54.0,0.0,30.0,4.0,0.0
8383,75.0,0.0,30.0,2.0,0.0
8384,71.0,0.0,30.0,2.0,0.0
8385,87.0,0.0,30.0,7.0,0.0
8386,66.0,0.0,30.0,5.0,0.0
8387,78.0,0.0,30.0,5.0,0.0
8388,87.0,0.0,30.0,1.0,0.0
8389,83.0,0.0,30.0,8.0,0.0
8390,83.0,30.0,30.0,1.0,0.0
8391,83.0,0.0,30.0,0.0,0.0
8392,87.0,0.0,30.0,0.0,0.0
8393,66.0,0.0,30.0,4.0,0.0
8394,54.0,0.0,120.0,4.0,0.0
8395,85.0,0.0,120.0,7.0,0.0
8396,66.0,150.0,180.0,11.0,0.0
8397,66.0,0.0,120.0,4.0,0.0
8398,85.0,60.0,120.0,0.0,0.0
8399,73.0,0.0,120.0,2.0,0.0
8400,82.0,0.0,120.0,8.0,0.0
8401,54.0,0.0,180.0,12.0,0.0
8402,82.0,0.0,120.0,0.0,0.0
8403,85.0,0.0,120.0,1.0,0.0
8404,82.0,0.0,120.0,1.0,0.0
8405,54.0,0.0,120.0,6.0,0.0
8406,78.0,0.0,180.0,10.0,0.0
8407,66.0,0.0,120.0,5.0,0.0
8408,66.0,0.0,180.0,3.0,0.0
8409,70.0,0.0,120.0,2.0,0.0
8410,78.0,0.0,120.0,5.0,0.0
8411,66.0,0.0,90.0,11.0,0.0
8412,66.0,0.0,90.0,3.0,0.0
8413,66.0,120.0,90.0,10.0,0.0
8414,54.0,0.0,90.0,12.0,0.0
8415,65.0,0.0,90.0,3.0,0.0
8416,65.0,0.0,90.0,10.0,0.0
8417,65.0,0.0,90.0,11.0,0.0
8418,53.0,150.0,90.0,12.0,0.0
8419,90.0,0.0,120.0,7.0,0.0
8420,82.0,0.0,120.0,1.0,0.0
8421,85.0,0.0,120.0,1.0,0.0
8422,54.0,0.0,180.0,12.0,0.0
8423,66.0,240.0,180.0,10.0,0.0
8424,90.0,0.0,120.0,0.0,0.0
8425,82.0,60.0,120.0,8.0,0.0
8426,66.0,0.0,120.0,4.0,0.0
8427,85.0,0.0,120.0,0.0,0.0
8428,66.0,0.0,180.0,3.0,0.0
8429,54.0,0.0,120.0,6.0,0.0
8430,73.0,0.0,120.0,2.0,0.0
8431,70.0,0.0,120.0,2.0,0.0
8432,78.0,0.0,120.0,5.0,0.0
8433,66.0,0.0,120.0,5.0,0.0
8434,66.0,0.0,180.0,11.0,0.0
8435,54.0,0.0,120.0,4.0,0.0
8436,56.0,240.0,180.0,12.0,0.0
8437,68.0,0.0,180.0,3.0,0.0
8438,68.0,0.0,180.0,11.0,0.0
8439,68.0,0.0,180.0,10.0,0.0
8440,82.0,0.0,1920.0,1.0,0.0
8441,70.0,0.0,180.0,10.0,0.0
8442,70.0,240.0,180.0,11.0,0.0
8443,85.0,0.0,720.0,1.0,0.0
8444,70.0,0.0,180.0,3.0,0.0
8445,70.0,120.0,1920.0,2.0,0.0
8446,73.0,150.0,720.0,2.0,0.0
8447,58.0,0.0,180.0,12.0,0.0
8448,68.0,240.0,180.0,11.0,0.0
8449,56.0,0.0,180.0,12.0,0.0
8450,68.0,0.0,180.0,10.0,0.0
8451,68.0,0.0,180.0,3.0,0.0
8452,66.0,0.0,180.0,10.0,0.0
8453,66.0,0.0,180.0,3.0,0.0
8454,66.0,60.0,180.0,11.0,0.0
8455,54.0,0.0,180.0,12.0,0.0
8456,53.0,0.0,180.0,12.0,0.0
8457,65.0,180.0,180.0,10.0,0.0
8458,65.0,0.0,180.0,3.0,0.0
8459,65.0,0.0,180.0,11.0,0.0
8460,85.0,0.0,30.0,7.0,0.0
8461,85.0,0.0,30.0,0.0,0.0
8462,85.0,30.0,30.0,8.0,0.0
8463,83.0,0.0,120.0,0.0,0.0
8464,83.0,0.0,120.0,7.0,0.0
8465,63.0,0.0,180.0,3.0,0.0
8466,71.0,0.0,1920.0,2.0,0.0
8467,83.0,60.0,120.0,8.0,0.0
8468,63.0,0.0,180.0,10.0,0.0
8469,83.0,120.0,1920.0,1.0,0.0
8470,63.0,150.0,180.0,11.0,0.0
8471,51.0,0.0,180.0,12.0,0.0
8472,65.0,0.0,90.0,3.0,0.0
8473,53.0,0.0,90.0,12.0,0.0
8474,65.0,0.0,90.0,11.0,0.0
8475,65.0,120.0,90.0,10.0,0.0
8476,66.0,0.0,90.0,11.0,0.0
8477,66.0,150.0,90.0,3.0,0.0
8478,66.0,0.0,90.0,10.0,0.0
8479,54.0,0.0,90.0,12.0,0.0
8480,68.0,180.0,180.0,10.0,0.0
8481,49.0,0.0,360.0,6.0,0.0
8482,89.0,0.0,120.0,8.0,0.0
8483,68.0,0.0,180.0,3.0,0.0
8484,68.0,0.0,360.0,4.0,0.0
8485,73.0,0.0,360.0,5.0,0.0
8486,80.0,0.0,360.0,5.0,0.0
8487,56.0,0.0,180.0,12.0,0.0
8488,61.0,60.0,360.0,4.0,0.0
8489,89.0,0.0,120.0,0.0,0.0
8490,89.0,60.0,120.0,7.0,0.0
8491,68.0,0.0,180.0,11.0,0.0
8492,54.0,0.0,180.0,12.0,0.0
8493,66.0,0.0,180.0,3.0,0.0
8494,66.0,60.0,180.0,10.0,0.0
8495,66.0,0.0,180.0,11.0,0.0
8496,92.0,0.0,120.0,7.0,0.0
8497,53.0,0.0,180.0,12.0,0.0
8498,65.0,0.0,180.0,3.0,0.0
8499,80.0,60.0,360.0,5.0,0.0
8500,73.0,0.0,360.0,5.0,0.0
8501,65.0,180.0,180.0,11.0,0.0
8502,80.0,120.0,1920.0,1.0,0.0
8503,49.0,0.0,360.0,6.0,0.0
8504,68.0,0.0,1920.0,2.0,0.0
8505,65.0,0.0,180.0,10.0,0.0
8506,92.0,60.0,120.0,8.0,0.0
8507,61.0,0.0,360.0,4.0,0.0
8508,92.0,0.0,120.0,0.0,0.0
8509,68.0,0.0,360.0,4.0,0.0
8510,61.0,0.0,180.0,3.0,0.0
8511,61.0,0.0,180.0,11.0,0.0
8512,61.0,240.0,180.0,10.0,0.0
8513,49.0,0.0,180.0,12.0,0.0
8514,63.0,0.0,180.0,11.0,0.0
8515,51.0,0.0,180.0,12.0,0.0
8516,63.0,210.0,180.0,3.0,0.0
8517,63.0,0.0,180.0,10.0,0.0
8518,53.0,0.0,180.0,12.0,0.0
8519,65.0,0.0,180.0,3.0,0.0
8520,65.0,0.0,180.0,10.0,0.0
8521,65.0,60.0,180.0,11.0,0.0
8522,83.0,0.0,30.0,8.0,0.0
8523,83.0,30.0,30.0,0.0,0.0
8524,83.0,0.0,30.0,7.0,0.0
8525,82.0,60.0,120.0,8.0,0.0
8526,82.0,0.0,120.0,0.0,0.0
8527,66.0,0.0,180.0,11.0,0.0
8528,66.0,0.0,180.0,3.0,0.0
8529,82.0,120.0,1920.0,1.0,0.0
8530,82.0,0.0,120.0,7.0,0.0
8531,70.0,0.0,1920.0,2.0,0.0
8532,54.0,0.0,180.0,12.0,0.0
8533,66.0,150.0,180.0,10.0,0.0
8534,58.0,0.0,90.0,12.0,0.0
8535,70.0,0.0,90.0,3.0,0.0
8536,70.0,0.0,90.0,11.0,0.0
8537,70.0,120.0,90.0,10.0,0.0
8538,58.0,150.0,90.0,12.0,0.0
8539,68.0,0.0,90.0,3.0,0.0
8540,70.0,0.0,90.0,11.0,0.0
8541,68.0,0.0,90.0,10.0,0.0
8542,85.0,60.0,120.0,8.0,0.0
8543,82.0,0.0,360.0,5.0,0.0
8544,78.0,0.0,360.0,5.0,0.0
8545,85.0,0.0,120.0,7.0,0.0
8546,66.0,0.0,180.0,3.0,0.0
8547,66.0,0.0,180.0,11.0,0.0
8548,70.0,60.0,360.0,4.0,0.0
8549,66.0,0.0,360.0,4.0,0.0
8550,54.0,0.0,360.0,6.0,0.0
8551,85.0,0.0,120.0,0.0,0.0
8552,54.0,180.0,180.0,12.0,0.0
8553,66.0,0.0,180.0,10.0,0.0
8554,65.0,60.0,180.0,3.0,0.0
8555,65.0,0.0,180.0,11.0,0.0
8556,53.0,0.0,180.0,12.0,0.0
8557,65.0,0.0,180.0,10.0,0.0
8558,66.0,0.0,960.0,2.0,0.0
8559,82.0,0.0,360.0,5.0,0.0
8560,78.0,0.0,360.0,5.0,0.0
8561,90.0,0.0,120.0,7.0,0.0
8562,63.0,0.0,180.0,10.0,0.0
8563,90.0,60.0,120.0,0.0,0.0
8564,66.0,0.0,360.0,4.0,0.0
8565,70.0,0.0,360.0,4.0,0.0
8566,90.0,0.0,120.0,8.0,0.0
8567,51.0,180.0,180.0,12.0,0.0
8568,63.0,0.0,180.0,11.0,0.0
8569,78.0,120.0,1920.0,1.0,0.0
8570,54.0,60.0,360.0,6.0,0.0
8571,63.0,0.0,180.0,3.0,0.0
8572,61.0,240.0,180.0,10.0,0.0
8573,49.0,0.0,180.0,12.0,0.0
8574,61.0,0.0,180.0,11.0,0.0
8575,61.0,0.0,180.0,3.0,0.0
8576,59.0,0.0,180.0,3.0,0.0
8577,59.0,0.0,180.0,11.0,0.0
8578,59.0,210.0,180.0,10.0,0.0
8579,47.0,0.0,180.0,12.0,0.0
8580,58.0,0.0,180.0,3.0,0.0
8581,58.0,0.0,180.0,11.0,0.0
8582,58.0,0.0,180.0,10.0,0.0
8583,46.0,60.0,180.0,12.0,0.0
8584,82.0,0.0,30.0,0.0,0.0
8585,82.0,30.0,30.0,7.0,0.0
8586,82.0,0.0,30.0,8.0,0.0
8587,80.0,0.0,120.0,8.0,0.0
8588,59.0,0.0,180.0,3.0,0.0
8589,68.0,60.0,360.0,4.0,0.0
8590,66.0,0.0,360.0,4.0,0.0
8591,80.0,0.0,360.0,5.0,0.0
8592,80.0,60.0,120.0,0.0,0.0
8593,80.0,0.0,120.0,7.0,0.0
8594,59.0,0.0,180.0,11.0,0.0
8595,59.0,180.0,180.0,10.0,0.0
8596,54.0,0.0,360.0,6.0,0.0
8597,80.0,0.0,960.0,1.0,0.0
8598,47.0,0.0,180.0,12.0,0.0
8599,63.0,0.0,720.0,2.0,0.0
8600,68.0,180.0,720.0,2.0,0.0
8601,78.0,0.0,360.0,5.0,0.0
8602,59.0,180.0,180.0,11.0,0.0
8603,59.0,0.0,180.0,3.0,0.0
8604,47.0,0.0,180.0,12.0,0.0
8605,71.0,0.0,180.0,10.0,0.0
8606,90.0,0.0,120.0,0.0,0.0
8607,59.0,0.0,180.0,11.0,0.0
8608,59.0,0.0,180.0,3.0,0.0
8609,71.0,60.0,180.0,10.0,0.0
8610,90.0,0.0,120.0,7.0,0.0
8611,47.0,0.0,180.0,12.0,0.0
8612,90.0,60.0,120.0,8.0,0.0
8613,47.0,0.0,180.0,12.0,0.0
8614,59.0,60.0,180.0,3.0,0.0
8615,71.0,0.0,180.0,10.0,0.0
8616,59.0,0.0,180.0,11.0,0.0
8617,49.0,0.0,180.0,12.0,0.0
8618,73.0,0.0,360.0,5.0,0.0
8619,73.0,0.0,120.0,8.0,0.0
8620,73.0,60.0,120.0,7.0,0.0
8621,80.0,0.0,360.0,5.0,0.0
8622,71.0,0.0,720.0,2.0,0.0
8623,61.0,180.0,180.0,3.0,0.0
8624,73.0,0.0,120.0,0.0,0.0
8625,68.0,60.0,360.0,4.0,0.0
8626,61.0,0.0,360.0,4.0,0.0
8627,73.0,0.0,180.0,10.0,0.0
8628,77.0,0.0,960.0,1.0,0.0
8629,80.0,90.0,960.0,1.0,0.0
8630,61.0,0.0,180.0,11.0,0.0
8631,65.0,180.0,720.0,2.0,0.0
8632,49.0,0.0,360.0,6.0,0.0
8633,49.0,0.0,180.0,12.0,0.0
8634,61.0,180.0,180.0,3.0,0.0
8635,73.0,0.0,180.0,10.0,0.0
8636,61.0,0.0,180.0,11.0,0.0
8637,89.0,60.0,120.0,0.0,0.0
8638,61.0,0.0,180.0,11.0,0.0
8639,89.0,0.0,120.0,7.0,0.0
8640,89.0,0.0,120.0,8.0,0.0
8641,61.0,60.0,180.0,3.0,0.0
8642,73.0,0.0,180.0,10.0,0.0
8643,49.0,0.0,180.0,12.0,0.0
8644,49.0,0.0,180.0,12.0,0.0
8645,61.0,0.0,180.0,3.0,0.0
8646,61.0,60.0,180.0,11.0,0.0
8647,73.0,0.0,180.0,10.0,0.0
8648,90.0,120.0,90.0,7.0,0.0
8649,54.0,90.0,360.0,6.0,0.0
8650,54.0,0.0,360.0,3.0,0.0
8651,78.0,0.0,360.0,1.0,0.0
8652,66.0,0.0,360.0,2.0,0.0
8653,70.0,0.0,360.0,2.0,0.0
8654,90.0,0.0,360.0,0.0,0.0
8655,78.0,0.0,360.0,5.0,0.0
8656,70.0,0.0,360.0,5.0,0.0
8657,90.0,0.0,360.0,8.0,0.0
8658,42.0,0.0,360.0,12.0,0.0
8659,58.0,0.0,360.0,4.0,0.0
8660,66.0,0.0,360.0,4.0,0.0
8661,66.0,0.0,360.0,10.0,0.0
8662,54.0,0.0,360.0,11.0,0.0
8663,78.0,120.0,90.0,7.0,0.0
8664,78.0,30.0,90.0,7.0,0.0
8665,78.0,120.0,90.0,7.0,0.0
8666,78.0,0.0,90.0,7.0,0.0
8667,66.0,120.0,90.0,8.0,0.0
8668,78.0,0.0,90.0,7.0,0.0
8669,66.0,120.0,90.0,8.0,0.0
8670,66.0,0.0,90.0,8.0,0.0
8671,78.0,120.0,90.0,7.0,0.0
8672,78.0,0.0,90.0,7.0,0.0
8673,66.0,120.0,90.0,8.0,0.0
8674,78.0,0.0,90.0,7.0,0.0
8675,66.0,120.0,90.0,8.0,0.0
8676,66.0,120.0,90.0,8.0,0.0
8677,78.0,0.0,90.0,7.0,0.0
8678,78.0,120.0,90.0,7.0,0.0
8679,66.0,0.0,90.0,8.0,0.0
8680,78.0,120.0,90.0,7.0,0.0
8681,66.0,0.0,90.0,8.0,0.0
8682,66.0,0.0,90.0,8.0,0.0
8683,78.0,120.0,90.0,7.0,0.0
8684,66.0,0.0,90.0,8.0,0.0
8685,78.0,120.0,90.0,7.0,0.0
8686,78.0,120.0,90.0,7.0,0.0
8687,66.0,0.0,90.0,8.0,0.0
8688,66.0,120.0,90.0,8.0,0.0
8689,78.0,0.0,90.0,7.0,0.0
8690,78.0,0.0,960.0,1.0,0.0
8691,74.0,0.0,960.0,1.0,0.0
8692,78.0,0.0,6120.0,0.0,0.0
8693,78.0,0.0,2280.0,5.0,0.0
8694,78.0,120.0,90.0,7.0,0.0
8695,71.0,90.0,960.0,3.0,0.0
8696,59.0,0.0,960.0,3.0,0.0
8697,66.0,0.0,2280.0,5.0,0.0
8698,54.0,90.0,360.0,6.0,0.0
8699,71.0,0.0,1920.0,2.0,0.0
8700,74.0,0.0,1920.0,2.0,0.0
8701,66.0,0.0,90.0,8.0,0.0
8702,90.0,0.0,6120.0,0.0,0.0
8703,66.0,0.0,90.0,8.0,0.0
8704,78.0,120.0,90.0,7.0,0.0
8705,66.0,30.0,90.0,8.0,0.0
8706,78.0,0.0,90.0,7.0,0.0
8707,66.0,120.0,90.0,8.0,0.0
8708,78.0,0.0,90.0,7.0,0.0
8709,78.0,0.0,90.0,7.0,0.0
8710,66.0,120.0,90.0,8.0,0.0
8711,78.0,0.0,90.0,7.0,0.0
8712,66.0,120.0,90.0,8.0,0.0
8713,66.0,0.0,90.0,8.0,0.0
8714,78.0,120.0,90.0,7.0,0.0
8715,66.0,0.0,90.0,8.0,0.0
8716,78.0,30.0,90.0,7.0,0.0
8717,86.0,120.0,960.0,1.0,0.0
8718,83.0,0.0,960.0,1.0,0.0
8719,62.0,0.0,720.0,3.0,0.0
8720,50.0,90.0,720.0,3.0,0.0
8721,66.0,0.0,90.0,8.0,0.0
8722,78.0,120.0,90.0,7.0,0.0
8723,78.0,120.0,90.0,7.0,0.0
8724,66.0,0.0,90.0,8.0,0.0
8725,66.0,0.0,90.0,8.0,0.0
8726,78.0,120.0,90.0,7.0,0.0
8727,66.0,120.0,90.0,8.0,0.0
8728,78.0,0.0,90.0,7.0,0.0
8729,78.0,0.0,90.0,7.0,0.0
8730,66.0,120.0,90.0,8.0,0.0
8731,66.0,0.0,90.0,8.0,0.0
8732,78.0,30.0,90.0,7.0,0.0
8733,66.0,0.0,90.0,8.0,0.0
8734,78.0,120.0,90.0,7.0,0.0
8735,66.0,0.0,90.0,8.0,0.0
8736,78.0,30.0,90.0,7.0,0.0
8737,66.0,0.0,120.0,3.0,0.0
8738,54.0,0.0,360.0,6.0,0.0
8739,70.0,0.0,480.0,2.0,0.0
8740,73.0,0.0,480.0,2.0,0.0
8741,54.0,0.0,120.0,3.0,0.0
8742,78.0,0.0,120.0,7.0,0.0
8743,85.0,0.0,360.0,1.0,0.0
8744,82.0,0.0,360.0,1.0,0.0
8745,66.0,120.0,120.0,8.0,0.0
8746,78.0,120.0,120.0,8.0,0.0
8747,90.0,0.0,120.0,7.0,0.0
8748,89.0,120.0,120.0,7.0,0.0
8749,77.0,0.0,120.0,8.0,0.0
8750,90.0,0.0,120.0,7.0,0.0
8751,78.0,120.0,120.0,1.0,0.0
8752,78.0,0.0,120.0,8.0,0.0
8753,66.0,0.0,270.0,5.0,0.0
8754,78.0,90.0,270.0,5.0,0.0
8755,77.0,120.0,120.0,8.0,0.0
8756,54.0,0.0,270.0,6.0,0.0
8757,66.0,0.0,120.0,3.0,0.0
8758,82.0,0.0,15.0,1.0,0.0
8759,54.0,0.0,120.0,3.0,0.0
8760,89.0,0.0,120.0,7.0,0.0
8761,85.0,0.0,480.0,1.0,0.0
8762,78.0,30.0,120.0,8.0,0.0
8763,90.0,0.0,120.0,7.0,0.0
8764,77.0,0.0,120.0,8.0,0.0
8765,89.0,90.0,120.0,7.0,0.0
8766,90.0,0.0,120.0,7.0,0.0
8767,66.0,0.0,90.0,5.0,0.0
8768,78.0,0.0,90.0,5.0,0.0
8769,78.0,0.0,120.0,8.0,0.0
8770,54.0,30.0,90.0,6.0,0.0
8771,89.0,120.0,120.0,7.0,0.0
8772,77.0,0.0,120.0,8.0,0.0
8773,78.0,120.0,360.0,5.0,0.0
8774,54.0,0.0,360.0,6.0,0.0
8775,66.0,0.0,360.0,5.0,0.0
8776,78.0,0.0,120.0,8.0,0.0
8777,90.0,120.0,120.0,7.0,0.0
8778,77.0,0.0,120.0,8.0,0.0
8779,89.0,0.0,120.0,7.0,0.0
8780,78.0,120.0,120.0,8.0,0.0
8781,90.0,0.0,120.0,7.0,0.0
8782,89.0,120.0,120.0,7.0,0.0
8783,77.0,0.0,120.0,8.0,0.0
8784,78.0,0.0,360.0,5.0,0.0
8785,66.0,0.0,360.0,5.0,0.0
8786,54.0,0.0,360.0,6.0,0.0
8787,78.0,0.0,120.0,8.0,0.0
8788,90.0,120.0,120.0,7.0,0.0
8789,89.0,0.0,120.0,7.0,0.0
8790,77.0,120.0,120.0,8.0,0.0
8791,90.0,0.0,120.0,7.0,0.0
8792,78.0,90.0,120.0,8.0,0.0
8793,78.0,120.0,90.0,7.0,0.0
8794,74.0,0.0,1920.0,2.0,0.0
8795,78.0,90.0,960.0,1.0,0.0
8796,54.0,90.0,360.0,6.0,0.0
8797,71.0,0.0,960.0,3.0,0.0
8798,59.0,0.0,960.0,3.0,0.0
8799,66.0,0.0,90.0,8.0,0.0
8800,66.0,0.0,2280.0,5.0,0.0
8801,78.0,0.0,2280.0,5.0,0.0
8802,74.0,0.0,960.0,1.0,0.0
8803,71.0,0.0,1920.0,2.0,0.0
8804,78.0,120.0,90.0,7.0,0.0
8805,66.0,0.0,90.0,8.0,0.0
8806,78.0,0.0,90.0,7.0,0.0
8807,66.0,30.0,90.0,8.0,0.0
8808,78.0,0.0,90.0,7.0,0.0
8809,66.0,120.0,90.0,8.0,0.0
8810,66.0,120.0,90.0,8.0,0.0
8811,78.0,0.0,90.0,7.0,0.0
8812,66.0,0.0,90.0,8.0,0.0
8813,78.0,120.0,90.0,7.0,0.0
8814,78.0,120.0,90.0,7.0,0.0
8815,66.0,0.0,90.0,8.0,0.0
8816,78.0,30.0,90.0,7.0,0.0
8817,66.0,0.0,90.0,8.0,0.0
8818,62.0,0.0,960.0,3.0,0.0
8819,86.0,120.0,960.0,1.0,0.0
8820,83.0,0.0,960.0,1.0,0.0
8821,50.0,0.0,960.0,3.0,0.0
8822,78.0,0.0,90.0,7.0,0.0
8823,66.0,120.0,90.0,8.0,0.0
8824,66.0,120.0,90.0,8.0,0.0
8825,78.0,0.0,90.0,7.0,0.0
8826,78.0,0.0,90.0,7.0,0.0
8827,66.0,120.0,90.0,8.0,0.0
8828,66.0,0.0,90.0,8.0,0.0
8829,78.0,120.0,90.0,7.0,0.0
8830,66.0,120.0,90.0,8.0,0.0
8831,78.0,0.0,90.0,7.0,0.0
8832,78.0,0.0,90.0,7.0,0.0
8833,66.0,120.0,90.0,8.0,0.0
8834,78.0,120.0,90.0,7.0,0.0
8835,66.0,0.0,90.0,8.0,0.0
8836,66.0,0.0,90.0,8.0,0.0
8837,78.0,30.0,90.0,7.0,0.0
8838,73.0,120.0,480.0,2.0,0.0
8839,66.0,0.0,120.0,8.0,0.0
8840,54.0,0.0,360.0,6.0,0.0
8841,70.0,0.0,480.0,2.0,0.0
8842,78.0,0.0,120.0,7.0,0.0
8843,54.0,120.0,120.0,3.0,0.0
8844,66.0,0.0,120.0,3.0,0.0
8845,85.0,0.0,360.0,1.0,0.0
8846,82.0,0.0,360.0,1.0,0.0
8847,78.0,120.0,120.0,8.0,0.0
8848,90.0,0.0,120.0,7.0,0.0
8849,89.0,0.0,120.0,7.0,0.0
8850,77.0,120.0,120.0,8.0,0.0
8851,78.0,0.0,120.0,1.0,0.0
8852,82.0,0.0,120.0,1.0,0.0
8853,78.0,0.0,120.0,8.0,0.0
8854,90.0,0.0,120.0,7.0,0.0
8855,66.0,0.0,360.0,5.0,0.0
8856,89.0,0.0,120.0,7.0,0.0
8857,85.0,120.0,480.0,1.0,0.0
8858,82.0,0.0,480.0,1.0,0.0
8859,78.0,120.0,360.0,5.0,0.0
8860,54.0,0.0,360.0,6.0,0.0
8861,77.0,120.0,120.0,8.0,0.0
8862,54.0,0.0,120.0,3.0,0.0
8863,42.0,0.0,120.0,3.0,0.0
8864,90.0,0.0,120.0,7.0,0.0
8865,78.0,120.0,120.0,8.0,0.0
8866,77.0,0.0,120.0,8.0,0.0
8867,89.0,0.0,120.0,7.0,0.0
8868,90.0,0.0,120.0,7.0,0.0
8869,78.0,0.0,120.0,8.0,0.0
8870,89.0,0.0,120.0,7.0,0.0
8871,77.0,120.0,120.0,8.0,0.0
8872,90.0,120.0,120.0,7.0,0.0
8873,78.0,0.0,120.0,8.0,0.0
8874,77.0,0.0,120.0,8.0,0.0
8875,89.0,120.0,120.0,7.0,0.0
8876,90.0,120.0,120.0,7.0,0.0
8877,78.0,0.0,120.0,8.0,0.0
8878,77.0,120.0,120.0,8.0,0.0
8879,61.0,0.0,960.0,3.0,0.0
8880,81.0,480.0,960.0,1.0,0.0
8881,85.0,0.0,960.0,1.0,0.0
8882,89.0,0.0,120.0,7.0,0.0
8883,69.0,0.0,960.0,3.0,0.0
8884,78.0,0.0,120.0,8.0,0.0
8885,90.0,120.0,120.0,7.0,0.0
8886,89.0,0.0,120.0,7.0,0.0
8887,77.0,120.0,120.0,8.0,0.0
8888,78.0,180.0,120.0,8.0,0.0
8889,90.0,0.0,120.0,7.0,0.0
8890,80.0,0.0,180.0,7.0,0.0
8891,80.0,0.0,180.0,8.0,0.0
8892,56.0,0.0,180.0,12.0,0.0
8893,80.0,300.0,180.0,10.0,0.0
8894,68.0,0.0,180.0,11.0,0.0
8895,60.0,0.0,480.0,3.0,0.0
8896,84.0,180.0,480.0,1.0,0.0
8897,80.0,0.0,480.0,1.0,0.0
8898,68.0,0.0,480.0,3.0,0.0
8899,77.0,0.0,180.0,8.0,0.0
8900,77.0,960.0,180.0,7.0,0.0
8901,65.0,0.0,180.0,11.0,0.0
8902,77.0,0.0,180.0,10.0,0.0
8903,53.0,0.0,180.0,12.0,0.0
8904,83.0,0.0,960.0,1.0,0.0
8905,80.0,0.0,960.0,1.0,0.0
8906,68.0,0.0,960.0,3.0,0.0
8907,59.0,480.0,960.0,3.0,0.0
8908,78.0,300.0,180.0,7.0,0.0
8909,78.0,0.0,180.0,10.0,0.0
8910,66.0,0.0,180.0,11.0,0.0
8911,78.0,0.0,180.0,8.0,0.0
8912,54.0,0.0,180.0,12.0,0.0
8913,78.0,0.0,480.0,1.0,0.0
8914,81.0,0.0,480.0,1.0,0.0
8915,66.0,180.0,480.0,3.0,0.0
8916,57.0,0.0,480.0,3.0,0.0
8917,62.0,0.0,180.0,11.0,0.0
8918,74.0,540.0,180.0,8.0,0.0
8919,74.0,0.0,180.0,7.0,0.0
8920,74.0,0.0,180.0,10.0,0.0
8921,50.0,0.0,180.0,12.0,0.0
8922,81.0,0.0,240.0,1.0,0.0
8923,66.0,420.0,240.0,3.0,0.0
8924,78.0,0.0,240.0,1.0,0.0
8925,62.0,0.0,240.0,3.0,0.0
8926,71.0,0.0,180.0,7.0,0.0
8927,71.0,540.0,180.0,10.0,0.0
8928,59.0,0.0,180.0,11.0,0.0
8929,47.0,0.0,180.0,12.0,0.0
8930,71.0,0.0,180.0,8.0,0.0
8931,80.0,0.0,240.0,1.0,0.0
8932,78.0,0.0,240.0,1.0,0.0
8933,66.0,0.0,240.0,3.0,0.0
8934,62.0,420.0,240.0,3.0,0.0
8935,49.0,0.0,180.0,12.0,0.0
8936,73.0,0.0,180.0,8.0,0.0
8937,73.0,540.0,180.0,7.0,0.0
8938,61.0,0.0,180.0,11.0,0.0
8939,73.0,0.0,180.0,10.0,0.0
8940,85.0,300.0,240.0,1.0,0.0
8941,68.0,0.0,240.0,3.0,0.0
8942,77.0,0.0,240.0,1.0,0.0
8943,61.0,0.0,240.0,3.0,0.0
8944,54.0,0.0,1320.0,4.0,0.0
8945,66.0,0.0,1500.0,2.0,0.0
8946,66.0,330.0,1500.0,8.0,0.0
8947,54.0,60.0,60.0,6.0,0.0
8948,78.0,0.0,1500.0,1.0,0.0
8949,66.0,180.0,1320.0,4.0,0.0
8950,78.0,0.0,1500.0,0.0,0.0
8951,66.0,0.0,1500.0,10.0,0.0
8952,54.0,0.0,1500.0,3.0,0.0
8953,54.0,0.0,1500.0,11.0,0.0
8954,78.0,0.0,1320.0,5.0,0.0
8955,66.0,0.0,1320.0,5.0,0.0
8956,42.0,0.0,1500.0,12.0,0.0
8957,66.0,0.0,1500.0,7.0,0.0
8958,56.0,60.0,60.0,6.0,0.0
8959,54.0,60.0,60.0,6.0,0.0
8960,56.0,60.0,60.0,6.0,0.0
8961,54.0,60.0,60.0,6.0,0.0
8962,56.0,60.0,60.0,6.0,0.0
8963,54.0,60.0,60.0,6.0,0.0
8964,56.0,60.0,60.0,6.0,0.0
8965,54.0,60.0,60.0,6.0,0.0
8966,56.0,60.0,60.0,6.0,0.0
8967,54.0,60.0,60.0,6.0,0.0
8968,56.0,60.0,60.0,6.0,0.0
8969,54.0,60.0,60.0,6.0,0.0
8970,56.0,60.0,60.0,6.0,0.0
8971,54.0,60.0,60.0,6.0,0.0
8972,56.0,360.0,60.0,6.0,0.0
8973,54.0,0.0,360.0,6.0,0.0
8974,43.0,0.0,30.0,12.0,0.0
8975,55.0,150.0,90.0,3.0,0.0
8976,67.0,0.0,30.0,2.0,0.0
8977,67.0,60.0,30.0,10.0,0.0
8978,67.0,0.0,30.0,7.0,0.0
8979,79.0,0.0,30.0,1.0,0.0
8980,55.0,0.0,30.0,11.0,0.0
8981,79.0,0.0,30.0,0.0,0.0
8982,67.0,0.0,30.0,8.0,0.0
8983,68.0,0.0,120.0,10.0,0.0
8984,68.0,0.0,120.0,7.0,0.0
8985,80.0,0.0,1320.0,1.0,0.0
8986,68.0,0.0,120.0,8.0,0.0
8987,68.0,120.0,1320.0,2.0,0.0
8988,44.0,0.0,120.0,12.0,0.0
8989,80.0,0.0,1320.0,0.0,0.0
8990,56.0,120.0,120.0,3.0,0.0
8991,56.0,0.0,120.0,11.0,0.0
8992,55.0,0.0,120.0,11.0,0.0
8993,67.0,0.0,120.0,7.0,0.0
8994,43.0,0.0,120.0,12.0,0.0
8995,67.0,0.0,120.0,10.0,0.0
8996,55.0,0.0,120.0,3.0,0.0
8997,66.0,120.0,120.0,8.0,0.0
8998,56.0,0.0,120.0,3.0,0.0
8999,68.0,0.0,120.0,7.0,0.0
9000,68.0,120.0,120.0,8.0,0.0
9001,44.0,0.0,120.0,12.0,0.0
9002,56.0,0.0,120.0,11.0,0.0
9003,68.0,0.0,120.0,10.0,0.0
9004,67.0,120.0,120.0,7.0,0.0
9005,43.0,0.0,120.0,12.0,0.0
9006,67.0,0.0,120.0,10.0,0.0
9007,55.0,0.0,120.0,3.0,0.0
9008,55.0,0.0,120.0,11.0,0.0
9009,66.0,0.0,120.0,8.0,0.0
9010,68.0,0.0,120.0,10.0,0.0
9011,44.0,0.0,120.0,12.0,0.0
9012,56.0,0.0,120.0,11.0,0.0
9013,68.0,0.0,120.0,8.0,0.0
9014,56.0,120.0,120.0,3.0,0.0
9015,68.0,0.0,120.0,7.0,0.0
9016,43.0,0.0,120.0,12.0,0.0
9017,66.0,120.0,120.0,8.0,0.0
9018,67.0,0.0,120.0,7.0,0.0
9019,67.0,0.0,120.0,10.0,0.0
9020,55.0,0.0,120.0,3.0,0.0
9021,55.0,0.0,120.0,11.0,0.0
9022,68.0,0.0,120.0,7.0,0.0
9023,44.0,120.0,120.0,12.0,0.0
9024,56.0,0.0,120.0,11.0,0.0
9025,56.0,0.0,120.0,3.0,0.0
9026,68.0,0.0,120.0,10.0,0.0
9027,68.0,0.0,120.0,8.0,0.0
9028,67.0,0.0,120.0,7.0,0.0
9029,66.0,0.0,120.0,8.0,0.0
9030,55.0,0.0,120.0,3.0,0.0
9031,55.0,0.0,120.0,11.0,0.0
9032,67.0,0.0,120.0,10.0,0.0
9033,43.0,360.0,120.0,12.0,0.0
9034,68.0,0.0,480.0,7.0,0.0
9035,56.0,0.0,480.0,11.0,0.0
9036,56.0,0.0,480.0,3.0,0.0
9037,68.0,0.0,480.0,10.0,0.0
9038,44.0,0.0,480.0,12.0,0.0
9039,68.0,390.0,480.0,8.0,0.0
9040,69.0,0.0,30.0,7.0,0.0
9041,69.0,0.0,30.0,2.0,0.0
9042,81.0,0.0,30.0,1.0,0.0
9043,57.0,0.0,30.0,11.0,0.0
9044,57.0,0.0,30.0,3.0,0.0
9045,81.0,210.0,30.0,0.0,0.0
9046,69.0,0.0,30.0,10.0,0.0
9047,69.0,0.0,30.0,8.0,0.0
9048,45.0,0.0,30.0,12.0,0.0
9049,70.0,0.0,120.0,8.0,0.0
9050,70.0,0.0,120.0,7.0,0.0
9051,58.0,0.0,120.0,11.0,0.0
9052,46.0,120.0,120.0,12.0,0.0
9053,82.0,0.0,720.0,1.0,0.0
9054,58.0,0.0,120.0,3.0,0.0
9055,82.0,0.0,1320.0,0.0,0.0
9056,70.0,120.0,1320.0,2.0,0.0
9057,70.0,0.0,120.0,10.0,0.0
9058,69.0,0.0,120.0,8.0,0.0
9059,68.0,0.0,120.0,7.0,0.0
9060,57.0,0.0,120.0,11.0,0.0
9061,69.0,0.0,120.0,10.0,0.0
9062,45.0,0.0,120.0,12.0,0.0
9063,57.0,120.0,120.0,3.0,0.0
9064,70.0,0.0,120.0,7.0,0.0
9065,46.0,0.0,120.0,12.0,0.0
9066,70.0,120.0,120.0,10.0,0.0
9067,58.0,0.0,120.0,11.0,0.0
9068,70.0,0.0,120.0,8.0,0.0
9069,58.0,0.0,120.0,3.0,0.0
9070,69.0,0.0,120.0,8.0,0.0
9071,57.0,120.0,120.0,11.0,0.0
9072,57.0,0.0,120.0,3.0,0.0
9073,68.0,0.0,120.0,7.0,0.0
9074,69.0,0.0,120.0,10.0,0.0
9075,45.0,0.0,120.0,12.0,0.0
9076,70.0,120.0,120.0,8.0,0.0
9077,70.0,0.0,120.0,10.0,0.0
9078,58.0,0.0,120.0,3.0,0.0
9079,70.0,0.0,120.0,7.0,0.0
9080,58.0,0.0,120.0,11.0,0.0
9081,46.0,0.0,120.0,12.0,0.0
9082,69.0,120.0,120.0,8.0,0.0
9083,57.0,0.0,120.0,11.0,0.0
9084,57.0,0.0,120.0,3.0,0.0
9085,69.0,0.0,120.0,10.0,0.0
9086,45.0,0.0,120.0,12.0,0.0
9087,68.0,0.0,120.0,7.0,0.0
9088,70.0,0.0,120.0,10.0,0.0
9089,58.0,0.0,120.0,3.0,0.0
9090,70.0,120.0,120.0,7.0,0.0
9091,70.0,0.0,120.0,8.0,0.0
9092,58.0,0.0,120.0,11.0,0.0
9093,46.0,0.0,120.0,12.0,0.0
9094,69.0,0.0,120.0,8.0,0.0
9095,69.0,0.0,120.0,10.0,0.0
9096,57.0,0.0,120.0,3.0,0.0
9097,45.0,0.0,120.0,12.0,0.0
9098,68.0,360.0,120.0,7.0,0.0
9099,57.0,0.0,120.0,11.0,0.0
9100,46.0,0.0,480.0,12.0,0.0
9101,82.0,0.0,360.0,1.0,0.0
9102,70.0,0.0,480.0,8.0,0.0
9103,70.0,390.0,480.0,7.0,0.0
9104,70.0,0.0,480.0,10.0,0.0
9105,58.0,0.0,480.0,3.0,0.0
9106,58.0,0.0,480.0,11.0,0.0
9107,58.0,0.0,30.0,11.0,0.0
9108,70.0,0.0,30.0,8.0,0.0
9109,70.0,0.0,30.0,7.0,0.0
9110,58.0,0.0,30.0,3.0,0.0
9111,46.0,0.0,30.0,12.0,0.0
9112,70.0,0.0,30.0,2.0,0.0
9113,58.0,0.0,30.0,2.0,0.0
9114,70.0,0.0,30.0,10.0,0.0
9115,82.0,0.0,30.0,0.0,0.0
9116,70.0,210.0,30.0,1.0,0.0
9117,71.0,0.0,840.0,2.0,0.0
9118,59.0,0.0,840.0,2.0,0.0
9119,71.0,0.0,840.0,10.0,0.0
9120,83.0,0.0,840.0,0.0,0.0
9121,47.0,0.0,840.0,12.0,0.0
9122,59.0,30.0,840.0,3.0,0.0
9123,59.0,0.0,840.0,11.0,0.0
9124,71.0,0.0,120.0,7.0,0.0
9125,71.0,0.0,840.0,1.0,0.0
9126,71.0,120.0,120.0,8.0,0.0
9127,70.0,120.0,120.0,8.0,0.0
9128,70.0,0.0,120.0,7.0,0.0
9129,71.0,120.0,120.0,8.0,0.0
9130,71.0,0.0,120.0,7.0,0.0
9131,70.0,240.0,120.0,7.0,0.0
9132,70.0,0.0,120.0,8.0,0.0
9133,71.0,120.0,240.0,8.0,0.0
9134,71.0,0.0,240.0,7.0,0.0
9135,84.0,0.0,120.0,0.0,0.0
9136,48.0,0.0,120.0,12.0,0.0
9137,72.0,0.0,30.0,8.0,0.0
9138,60.0,0.0,120.0,11.0,0.0
9139,72.0,0.0,120.0,1.0,0.0
9140,72.0,90.0,30.0,7.0,0.0
9141,72.0,0.0,120.0,2.0,0.0
9142,60.0,120.0,120.0,2.0,0.0
9143,60.0,0.0,120.0,3.0,0.0
9144,72.0,0.0,120.0,10.0,0.0
9145,49.0,0.0,840.0,12.0,0.0
9146,61.0,0.0,840.0,11.0,0.0
9147,73.0,0.0,840.0,1.0,0.0
9148,73.0,120.0,120.0,7.0,0.0
9149,61.0,0.0,840.0,3.0,0.0
9150,85.0,0.0,840.0,0.0,0.0
9151,73.0,0.0,840.0,10.0,0.0
9152,61.0,0.0,840.0,2.0,0.0
9153,73.0,30.0,840.0,2.0,0.0
9154,73.0,0.0,120.0,8.0,0.0
9155,72.0,120.0,120.0,7.0,0.0
9156,72.0,0.0,120.0,8.0,0.0
9157,73.0,0.0,120.0,7.0,0.0
9158,73.0,120.0,120.0,8.0,0.0
9159,72.0,0.0,120.0,7.0,0.0
9160,72.0,240.0,120.0,8.0,0.0
9161,73.0,120.0,240.0,8.0,0.0
9162,73.0,0.0,240.0,7.0,0.0
9163,74.0,90.0,30.0,8.0,0.0
9164,74.0,120.0,120.0,1.0,0.0
9165,74.0,0.0,30.0,7.0,0.0
9166,62.0,0.0,120.0,11.0,0.0
9167,62.0,0.0,120.0,3.0,0.0
9168,74.0,0.0,120.0,10.0,0.0
9169,86.0,0.0,120.0,0.0,0.0
9170,74.0,0.0,120.0,2.0,0.0
9171,62.0,0.0,120.0,2.0,0.0
9172,50.0,0.0,120.0,12.0,0.0
9173,75.0,0.0,840.0,2.0,0.0
9174,63.0,0.0,840.0,2.0,0.0
9175,75.0,120.0,120.0,8.0,0.0
9176,87.0,30.0,840.0,0.0,0.0
9177,75.0,0.0,840.0,1.0,0.0
9178,75.0,0.0,840.0,10.0,0.0
9179,75.0,0.0,120.0,7.0,0.0
9180,63.0,0.0,840.0,3.0,0.0
9181,51.0,0.0,840.0,12.0,0.0
9182,63.0,0.0,840.0,11.0,0.0
9183,74.0,0.0,120.0,7.0,0.0
9184,74.0,120.0,120.0,8.0,0.0
9185,75.0,0.0,120.0,7.0,0.0
9186,75.0,120.0,120.0,8.0,0.0
9187,74.0,240.0,120.0,7.0,0.0
9188,74.0,0.0,120.0,8.0,0.0
9189,75.0,120.0,240.0,8.0,0.0
9190,75.0,0.0,240.0,7.0,0.0
9191,41.0,0.0,120.0,12.0,0.0
9192,77.0,0.0,120.0,1.0,0.0
9193,53.0,0.0,120.0,11.0,0.0
9194,77.0,90.0,30.0,8.0,0.0
9195,77.0,0.0,30.0,7.0,0.0
9196,53.0,0.0,120.0,3.0,0.0
9197,77.0,0.0,120.0,2.0,0.0
9198,65.0,0.0,120.0,2.0,0.0
9199,65.0,0.0,120.0,10.0,0.0
9200,89.0,120.0,120.0,0.0,0.0
9201,78.0,0.0,120.0,8.0,0.0
9202,42.0,0.0,840.0,12.0,0.0
9203,66.0,0.0,840.0,2.0,0.0
9204,78.0,0.0,840.0,2.0,0.0
9205,90.0,0.0,840.0,0.0,0.0
9206,78.0,30.0,840.0,1.0,0.0
9207,78.0,120.0,120.0,7.0,0.0
9208,54.0,0.0,840.0,11.0,0.0
9209,66.0,0.0,840.0,10.0,0.0
9210,54.0,0.0,840.0,3.0,0.0
9211,77.0,120.0,120.0,8.0,0.0
9212,77.0,0.0,120.0,7.0,0.0
9213,78.0,0.0,120.0,8.0,0.0
9214,78.0,120.0,120.0,7.0,0.0
9215,77.0,240.0,120.0,8.0,0.0
9216,77.0,0.0,120.0,7.0,0.0
9217,78.0,120.0,240.0,7.0,0.0
9218,78.0,0.0,240.0,8.0,0.0
9219,56.0,0.0,120.0,11.0,0.0
9220,68.0,0.0,120.0,10.0,0.0
9221,80.0,0.0,120.0,2.0,0.0
9222,68.0,0.0,120.0,2.0,0.0
9223,92.0,90.0,120.0,0.0,0.0
9224,44.0,0.0,120.0,12.0,0.0
9225,80.0,0.0,30.0,8.0,0.0
9226,80.0,90.0,30.0,7.0,0.0
9227,56.0,0.0,120.0,3.0,0.0
9228,80.0,0.0,120.0,1.0,0.0
9229,57.0,0.0,840.0,3.0,0.0
9230,81.0,120.0,120.0,7.0,0.0
9231,93.0,0.0,840.0,0.0,0.0
9232,81.0,30.0,840.0,1.0,0.0
9233,45.0,0.0,840.0,12.0,0.0
9234,81.0,0.0,840.0,2.0,0.0
9235,69.0,0.0,840.0,10.0,0.0
9236,69.0,0.0,840.0,2.0,0.0
9237,57.0,0.0,840.0,11.0,0.0
9238,81.0,30.0,90.0,8.0,0.0
9239,80.0,0.0,120.0,7.0,0.0
9240,80.0,120.0,120.0,8.0,0.0
9241,81.0,0.0,120.0,7.0,0.0
9242,81.0,120.0,120.0,8.0,0.0
9243,80.0,180.0,120.0,7.0,0.0
9244,80.0,0.0,120.0,8.0,0.0
9245,81.0,60.0,180.0,8.0,0.0
9246,81.0,120.0,240.0,7.0,0.0
9247,70.0,0.0,120.0,2.0,0.0
9248,82.0,0.0,120.0,2.0,0.0
9249,58.0,120.0,120.0,3.0,0.0
9250,58.0,0.0,120.0,11.0,0.0
9251,82.0,0.0,30.0,8.0,0.0
9252,82.0,90.0,30.0,7.0,0.0
9253,70.0,0.0,120.0,10.0,0.0
9254,46.0,0.0,120.0,12.0,0.0
9255,82.0,0.0,120.0,1.0,0.0
9256,94.0,0.0,120.0,0.0,0.0
9257,83.0,0.0,840.0,1.0,0.0
9258,95.0,120.0,360.0,0.0,0.0
9259,59.0,30.0,840.0,11.0,0.0
9260,71.0,0.0,840.0,10.0,0.0
9261,83.0,0.0,120.0,8.0,0.0
9262,47.0,0.0,840.0,12.0,0.0
9263,83.0,120.0,120.0,7.0,0.0
9264,71.0,0.0,840.0,2.0,0.0
9265,83.0,0.0,840.0,2.0,0.0
9266,59.0,0.0,840.0,3.0,0.0
9267,82.0,120.0,120.0,7.0,0.0
9268,82.0,0.0,120.0,8.0,0.0
9269,83.0,0.0,120.0,8.0,0.0
9270,83.0,0.0,120.0,7.0,0.0
9271,82.0,0.0,120.0,8.0,0.0
9272,82.0,180.0,120.0,7.0,0.0
9273,83.0,0.0,180.0,8.0,0.0
9274,83.0,180.0,180.0,7.0,0.0
9275,84.0,90.0,30.0,8.0,0.0
9276,84.0,0.0,120.0,1.0,0.0
9277,60.0,90.0,120.0,3.0,0.0
9278,84.0,0.0,30.0,7.0,0.0
9279,60.0,0.0,120.0,11.0,0.0
9280,48.0,0.0,120.0,12.0,0.0
9281,72.0,0.0,120.0,10.0,0.0
9282,84.0,0.0,120.0,2.0,0.0
9283,72.0,0.0,120.0,2.0,0.0
9284,73.0,90.0,720.0,5.0,0.0
9285,85.0,0.0,90.0,8.0,0.0
9286,85.0,0.0,720.0,0.0,0.0
9287,49.0,0.0,720.0,6.0,0.0
9288,85.0,120.0,90.0,7.0,0.0
9289,73.0,0.0,720.0,4.0,0.0
9290,73.0,0.0,720.0,2.0,0.0
9291,61.0,0.0,720.0,4.0,0.0
9292,85.0,0.0,720.0,1.0,0.0
9293,61.0,0.0,480.0,3.0,0.0
9294,85.0,0.0,720.0,2.0,0.0
9295,85.0,120.0,90.0,7.0,0.0
9296,85.0,0.0,90.0,8.0,0.0
9297,85.0,120.0,90.0,8.0,0.0
9298,85.0,0.0,90.0,7.0,0.0
9299,85.0,30.0,90.0,8.0,0.0
9300,85.0,0.0,90.0,7.0,0.0
9301,61.0,0.0,120.0,3.0,0.0
9302,49.0,0.0,15.0,12.0,0.0
9303,61.0,90.0,15.0,11.0,0.0
9304,73.0,0.0,15.0,10.0,0.0
9305,85.0,30.0,90.0,8.0,0.0
9306,85.0,0.0,90.0,7.0,0.0
9307,85.0,30.0,90.0,7.0,0.0
9308,85.0,0.0,90.0,8.0,0.0
9309,85.0,0.0,90.0,8.0,0.0
9310,85.0,120.0,90.0,7.0,0.0
9311,85.0,120.0,90.0,8.0,0.0
9312,85.0,0.0,90.0,7.0,0.0
9313,66.0,0.0,720.0,2.0,0.0
9314,70.0,0.0,720.0,2.0,0.0
9315,66.0,0.0,720.0,4.0,0.0
9316,82.0,60.0,720.0,1.0,0.0
9317,70.0,0.0,720.0,4.0,0.0
9318,82.0,0.0,720.0,0.0,0.0
9319,78.0,0.0,720.0,0.0,0.0
9320,82.0,120.0,90.0,7.0,0.0
9321,78.0,0.0,90.0,8.0,0.0
9322,78.0,0.0,720.0,1.0,0.0
9323,82.0,0.0,90.0,7.0,0.0
9324,78.0,90.0,90.0,8.0,0.0
9325,51.0,30.0,60.0,12.0,0.0
9326,78.0,0.0,90.0,8.0,0.0
9327,63.0,0.0,60.0,3.0,0.0
9328,82.0,120.0,90.0,7.0,0.0
9329,63.0,0.0,60.0,11.0,0.0
9330,75.0,0.0,60.0,10.0,0.0
9331,82.0,90.0,90.0,7.0,0.0
9332,78.0,0.0,90.0,8.0,0.0
9333,49.0,0.0,60.0,12.0,0.0
9334,78.0,0.0,90.0,8.0,0.0
9335,61.0,0.0,60.0,11.0,0.0
9336,73.0,0.0,60.0,10.0,0.0
9337,82.0,120.0,90.0,7.0,0.0
9338,61.0,30.0,60.0,3.0,0.0
9339,78.0,30.0,90.0,8.0,0.0
9340,82.0,0.0,90.0,7.0,0.0
9341,51.0,0.0,60.0,12.0,0.0
9342,63.0,30.0,60.0,3.0,0.0
9343,75.0,0.0,60.0,10.0,0.0
9344,63.0,0.0,60.0,11.0,0.0
9345,78.0,120.0,90.0,8.0,0.0
9346,82.0,0.0,90.0,7.0,0.0
9347,82.0,0.0,90.0,7.0,0.0
9348,78.0,120.0,90.0,8.0,0.0
9349,83.0,0.0,90.0,7.0,0.0
9350,83.0,0.0,720.0,0.0,0.0
9351,80.0,0.0,720.0,0.0,0.0
9352,68.0,0.0,720.0,4.0,0.0
9353,71.0,90.0,120.0,10.0,0.0
9354,68.0,0.0,720.0,2.0,0.0
9355,71.0,0.0,720.0,2.0,0.0
9356,47.0,0.0,120.0,12.0,0.0
9357,71.0,90.0,720.0,4.0,0.0
9358,59.0,0.0,120.0,3.0,0.0
9359,83.0,0.0,720.0,1.0,0.0
9360,80.0,0.0,720.0,1.0,0.0
9361,59.0,0.0,120.0,11.0,0.0
9362,80.0,30.0,90.0,8.0,0.0
9363,83.0,120.0,90.0,7.0,0.0
9364,80.0,0.0,90.0,8.0,0.0
9365,80.0,0.0,90.0,8.0,0.0
9366,83.0,120.0,90.0,7.0,0.0
9367,80.0,0.0,90.0,8.0,0.0
9368,83.0,120.0,90.0,7.0,0.0
9369,68.0,0.0,120.0,10.0,0.0
9370,83.0,30.0,90.0,7.0,0.0
9371,56.0,90.0,120.0,3.0,0.0
9372,44.0,0.0,120.0,12.0,0.0
9373,56.0,0.0,120.0,11.0,0.0
9374,80.0,0.0,90.0,8.0,0.0
9375,80.0,0.0,90.0,8.0,0.0
9376,83.0,30.0,90.0,7.0,0.0
9377,83.0,120.0,90.0,7.0,0.0
9378,80.0,0.0,90.0,8.0,0.0
9379,80.0,120.0,90.0,8.0,0.0
9380,83.0,0.0,90.0,7.0,0.0
9381,80.0,60.0,720.0,0.0,0.0
9382,68.0,0.0,720.0,4.0,0.0
9383,80.0,90.0,90.0,7.0,0.0
9384,73.0,0.0,180.0,10.0,0.0
9385,61.0,30.0,180.0,11.0,0.0
9386,77.0,0.0,720.0,0.0,0.0
9387,61.0,0.0,720.0,4.0,0.0
9388,80.0,0.0,720.0,1.0,0.0
9389,77.0,0.0,90.0,8.0,0.0
9390,49.0,30.0,540.0,6.0,0.0
9391,49.0,0.0,180.0,12.0,0.0
9392,65.0,0.0,720.0,2.0,0.0
9393,77.0,0.0,720.0,1.0,0.0
9394,73.0,0.0,540.0,5.0,0.0
9395,68.0,0.0,720.0,2.0,0.0
9396,61.0,0.0,180.0,3.0,0.0
9397,80.0,0.0,90.0,7.0,0.0
9398,77.0,120.0,90.0,8.0,0.0
9399,80.0,120.0,90.0,7.0,0.0
9400,77.0,0.0,90.0,8.0,0.0
9401,80.0,0.0,90.0,7.0,0.0
9402,77.0,90.0,90.0,8.0,0.0
9403,80.0,120.0,90.0,7.0,0.0
9404,77.0,0.0,90.0,8.0,0.0
9405,80.0,30.0,90.0,7.0,0.0
9406,77.0,0.0,90.0,8.0,0.0
9407,71.0,30.0,60.0,10.0,0.0
9408,73.0,0.0,180.0,5.0,0.0
9409,59.0,0.0,60.0,3.0,0.0
9410,59.0,0.0,60.0,11.0,0.0
9411,80.0,90.0,90.0,7.0,0.0
9412,47.0,0.0,60.0,12.0,0.0
9413,49.0,30.0,180.0,6.0,0.0
9414,77.0,0.0,90.0,8.0,0.0
9415,77.0,0.0,90.0,8.0,0.0
9416,80.0,120.0,90.0,7.0,0.0
9417,82.0,0.0,1440.0,0.0,0.0
9418,70.0,0.0,1440.0,4.0,0.0
9419,78.0,0.0,90.0,8.0,0.0
9420,82.0,0.0,720.0,1.0,0.0
9421,85.0,0.0,720.0,1.0,0.0
9422,70.0,0.0,360.0,5.0,0.0
9423,73.0,0.0,720.0,2.0,0.0
9424,73.0,60.0,1440.0,4.0,0.0
9425,58.0,0.0,120.0,11.0,0.0
9426,58.0,0.0,120.0,3.0,0.0
9427,54.0,90.0,360.0,6.0,0.0
9428,85.0,30.0,90.0,7.0,0.0
9429,70.0,0.0,120.0,10.0,0.0
9430,73.0,0.0,360.0,5.0,0.0
9431,85.0,0.0,720.0,0.0,0.0
9432,70.0,90.0,720.0,2.0,0.0
9433,46.0,90.0,120.0,12.0,0.0
9434,85.0,0.0,90.0,7.0,0.0
9435,78.0,120.0,90.0,8.0,0.0
9436,85.0,0.0,90.0,7.0,0.0
9437,78.0,30.0,90.0,8.0,0.0
9438,78.0,0.0,90.0,8.0,0.0
9439,85.0,120.0,90.0,7.0,0.0
9440,78.0,0.0,90.0,8.0,0.0
9441,85.0,30.0,90.0,7.0,0.0
9442,54.0,0.0,120.0,11.0,0.0
9443,66.0,90.0,120.0,10.0,0.0
9444,54.0,0.0,120.0,3.0,0.0
9445,42.0,0.0,120.0,12.0,0.0
9446,78.0,0.0,90.0,8.0,0.0
9447,85.0,30.0,90.0,7.0,0.0
9448,85.0,0.0,90.0,7.0,0.0
9449,78.0,120.0,90.0,8.0,0.0
9450,78.0,120.0,90.0,8.0,0.0
9451,85.0,0.0,90.0,7.0,0.0
9452,70.0,60.0,720.0,2.0,0.0
9453,91.0,0.0,90.0,7.0,0.0
9454,82.0,120.0,90.0,8.0,0.0
9455,79.0,0.0,720.0,1.0,0.0
9456,82.0,0.0,720.0,1.0,0.0
9457,91.0,0.0,720.0,0.0,0.0
9458,67.0,0.0,720.0,2.0,0.0
9459,82.0,0.0,90.0,8.0,0.0
9460,91.0,90.0,90.0,7.0,0.0
9461,51.0,30.0,60.0,12.0,0.0
9462,91.0,0.0,90.0,7.0,0.0
9463,63.0,0.0,60.0,3.0,0.0
9464,63.0,0.0,60.0,11.0,0.0
9465,82.0,120.0,90.0,8.0,0.0
9466,75.0,0.0,60.0,10.0,0.0
9467,91.0,0.0,90.0,7.0,0.0
9468,82.0,30.0,90.0,8.0,0.0
9469,91.0,120.0,90.0,7.0,0.0
9470,61.0,0.0,60.0,11.0,0.0
9471,61.0,0.0,60.0,3.0,0.0
9472,49.0,0.0,60.0,12.0,0.0
9473,73.0,30.0,60.0,10.0,0.0
9474,82.0,0.0,90.0,8.0,0.0
9475,91.0,0.0,90.0,7.0,0.0
9476,82.0,30.0,90.0,8.0,0.0
9477,63.0,0.0,60.0,11.0,0.0
9478,82.0,120.0,90.0,8.0,0.0
9479,91.0,0.0,90.0,7.0,0.0
9480,75.0,30.0,60.0,10.0,0.0
9481,63.0,0.0,60.0,3.0,0.0
9482,51.0,0.0,60.0,12.0,0.0
9483,91.0,120.0,90.0,7.0,0.0
9484,82.0,0.0,90.0,8.0,0.0
9485,59.0,90.0,120.0,11.0,0.0
9486,59.0,0.0,120.0,3.0,0.0
9487,68.0,0.0,720.0,4.0,0.0
9488,71.0,0.0,720.0,4.0,0.0
9489,83.0,0.0,720.0,1.0,0.0
9490,80.0,0.0,720.0,1.0,0.0
9491,71.0,0.0,720.0,2.0,0.0
9492,68.0,0.0,720.0,2.0,0.0
9493,92.0,90.0,720.0,0.0,0.0
9494,47.0,0.0,120.0,12.0,0.0
9495,83.0,0.0,720.0,0.0,0.0
9496,83.0,30.0,90.0,8.0,0.0
9497,71.0,0.0,120.0,10.0,0.0
9498,92.0,0.0,90.0,7.0,0.0
9499,92.0,0.0,90.0,7.0,0.0
9500,83.0,120.0,90.0,8.0,0.0
9501,92.0,0.0,90.0,7.0,0.0
9502,83.0,120.0,90.0,8.0,0.0
9503,83.0,0.0,90.0,8.0,0.0
9504,92.0,120.0,90.0,7.0,0.0
9505,92.0,0.0,90.0,7.0,0.0
9506,68.0,0.0,120.0,10.0,0.0
9507,44.0,0.0,120.0,12.0,0.0
9508,83.0,30.0,90.0,8.0,0.0
9509,56.0,90.0,120.0,11.0,0.0
9510,56.0,0.0,120.0,3.0,0.0
9511,83.0,0.0,90.0,8.0,0.0
9512,92.0,30.0,90.0,7.0,0.0
9513,92.0,0.0,90.0,7.0,0.0
9514,83.0,120.0,90.0,8.0,0.0
9515,92.0,120.0,90.0,7.0,0.0
9516,83.0,0.0,90.0,8.0,0.0
9517,89.0,0.0,720.0,0.0,0.0
9518,89.0,0.0,90.0,7.0,0.0
9519,73.0,30.0,540.0,5.0,0.0
9520,77.0,0.0,720.0,1.0,0.0
9521,61.0,0.0,180.0,3.0,0.0
9522,61.0,0.0,720.0,4.0,0.0
9523,68.0,0.0,720.0,4.0,0.0
9524,61.0,0.0,180.0,11.0,0.0
9525,49.0,0.0,180.0,12.0,0.0
9526,80.0,0.0,720.0,0.0,0.0
9527,65.0,60.0,720.0,2.0,0.0
9528,68.0,0.0,720.0,2.0,0.0
9529,73.0,30.0,180.0,10.0,0.0
9530,49.0,0.0,540.0,6.0,0.0
9531,80.0,90.0,90.0,8.0,0.0
9532,80.0,0.0,720.0,1.0,0.0
9533,89.0,0.0,90.0,7.0,0.0
9534,80.0,120.0,90.0,8.0,0.0
9535,80.0,120.0,90.0,8.0,0.0
9536,89.0,0.0,90.0,7.0,0.0
9537,80.0,90.0,90.0,8.0,0.0
9538,89.0,0.0,90.0,7.0,0.0
9539,89.0,120.0,90.0,7.0,0.0
9540,80.0,0.0,90.0,8.0,0.0
9541,80.0,30.0,90.0,8.0,0.0
9542,89.0,0.0,90.0,7.0,0.0
9543,80.0,0.0,90.0,8.0,0.0
9544,71.0,0.0,60.0,10.0,0.0
9545,59.0,0.0,60.0,3.0,0.0
9546,49.0,0.0,180.0,6.0,0.0
9547,59.0,30.0,60.0,11.0,0.0
9548,89.0,90.0,90.0,7.0,0.0
9549,73.0,30.0,180.0,5.0,0.0
9550,47.0,0.0,60.0,12.0,0.0
9551,80.0,90.0,90.0,8.0,0.0
9552,89.0,0.0,90.0,7.0,0.0
9553,61.0,0.0,360.0,4.0,0.0
9554,70.0,0.0,360.0,10.0,0.0
9555,78.0,240.0,480.0,1.0,0.0
9556,58.0,0.0,360.0,11.0,0.0
9557,85.0,0.0,480.0,1.0,0.0
9558,90.0,300.0,60.0,7.0,0.0
9559,58.0,0.0,360.0,3.0,0.0
9560,66.0,0.0,360.0,4.0,0.0
9561,73.0,0.0,360.0,5.0,0.0
9562,46.0,0.0,360.0,12.0,0.0
9563,78.0,0.0,480.0,0.0,0.0
9564,78.0,0.0,60.0,8.0,0.0
9565,54.0,0.0,360.0,6.0,0.0
9566,66.0,0.0,480.0,2.0,0.0
9567,73.0,0.0,480.0,2.0,0.0
9568,90.0,0.0,480.0,0.0,0.0
9569,70.0,0.0,360.0,5.0,0.0
9570,85.0,120.0,120.0,8.0,0.0
9571,85.0,0.0,120.0,7.0,0.0
9572,83.0,0.0,120.0,7.0,0.0
9573,83.0,0.0,120.0,8.0,0.0
9574,82.0,0.0,240.0,7.0,0.0
9575,82.0,60.0,240.0,8.0,0.0
9576,70.0,0.0,240.0,2.0,0.0
9577,82.0,0.0,240.0,1.0,0.0
9578,82.0,0.0,240.0,0.0,0.0
9579,94.0,0.0,240.0,0.0,0.0
9580,80.0,0.0,60.0,0.0,0.0
9581,68.0,0.0,60.0,2.0,0.0
9582,61.0,0.0,90.0,10.0,0.0
9583,80.0,0.0,60.0,1.0,0.0
9584,37.0,0.0,90.0,12.0,0.0
9585,92.0,20.0,60.0,0.0,0.0
9586,49.0,0.0,90.0,3.0,0.0
9587,80.0,0.0,60.0,8.0,0.0
9588,49.0,80.0,90.0,11.0,0.0
9589,80.0,0.0,60.0,7.0,0.0
9590,39.0,80.0,90.0,12.0,0.0
9591,51.0,0.0,90.0,3.0,0.0
9592,63.0,0.0,90.0,10.0,0.0
9593,51.0,0.0,90.0,11.0,0.0
9594,53.0,0.0,90.0,3.0,0.0
9595,41.0,60.0,90.0,12.0,0.0
9596,53.0,0.0,90.0,11.0,0.0
9597,65.0,0.0,90.0,10.0,0.0
9598,78.0,0.0,540.0,0.0,0.0
9599,90.0,0.0,540.0,0.0,0.0
9600,78.0,300.0,60.0,8.0,0.0
9601,54.0,60.0,480.0,3.0,0.0
9602,78.0,180.0,540.0,1.0,0.0
9603,66.0,0.0,480.0,10.0,0.0
9604,66.0,0.0,540.0,2.0,0.0
9605,78.0,0.0,60.0,7.0,0.0
9606,42.0,0.0,480.0,12.0,0.0
9607,54.0,0.0,480.0,11.0,0.0
9608,70.0,120.0,360.0,5.0,0.0
9609,66.0,0.0,360.0,4.0,0.0
9610,58.0,0.0,360.0,4.0,0.0
9611,73.0,0.0,360.0,5.0,0.0
9612,54.0,0.0,360.0,6.0,0.0
9613,82.0,0.0,120.0,8.0,0.0
9614,82.0,0.0,120.0,7.0,0.0
9615,80.0,0.0,120.0,7.0,0.0
9616,80.0,0.0,120.0,8.0,0.0
9617,78.0,80.0,240.0,8.0,0.0
9618,78.0,0.0,240.0,7.0,0.0
9619,77.0,0.0,180.0,7.0,0.0
9620,77.0,0.0,180.0,1.0,0.0
9621,77.0,60.0,180.0,8.0,0.0
9622,66.0,0.0,90.0,10.0,0.0
9623,65.0,0.0,180.0,2.0,0.0
9624,89.0,0.0,180.0,0.0,0.0
9625,77.0,0.0,180.0,0.0,0.0
9626,54.0,0.0,90.0,3.0,0.0
9627,42.0,0.0,90.0,12.0,0.0
9628,54.0,80.0,90.0,11.0,0.0
9629,68.0,0.0,90.0,10.0,0.0
9630,56.0,0.0,90.0,11.0,0.0
9631,44.0,20.0,90.0,12.0,0.0
9632,56.0,0.0,90.0,3.0,0.0
9633,58.0,0.0,90.0,11.0,0.0
9634,58.0,0.0,90.0,3.0,0.0
9635,70.0,0.0,90.0,10.0,0.0
9636,46.0,60.0,90.0,12.0,0.0
9637,47.0,0.0,480.0,12.0,0.0
9638,66.0,120.0,360.0,4.0,0.0
9639,63.0,240.0,480.0,2.0,0.0
9640,66.0,0.0,360.0,5.0,0.0
9641,78.0,0.0,360.0,5.0,0.0
9642,54.0,0.0,360.0,4.0,0.0
9643,59.0,0.0,480.0,11.0,0.0
9644,59.0,0.0,480.0,3.0,0.0
9645,54.0,0.0,360.0,6.0,0.0
9646,75.0,0.0,60.0,7.0,0.0
9647,71.0,0.0,480.0,10.0,0.0
9648,75.0,0.0,480.0,1.0,0.0
9649,75.0,300.0,60.0,8.0,0.0
9650,75.0,0.0,480.0,0.0,0.0
9651,87.0,0.0,480.0,0.0,0.0
9652,87.0,0.0,120.0,8.0,0.0
9653,87.0,0.0,120.0,7.0,0.0
9654,85.0,0.0,120.0,8.0,0.0
9655,85.0,0.0,120.0,7.0,0.0
9656,83.0,0.0,240.0,8.0,0.0
9657,95.0,0.0,240.0,0.0,0.0
9658,83.0,0.0,240.0,1.0,0.0
9659,83.0,0.0,240.0,7.0,0.0
9660,71.0,60.0,240.0,2.0,0.0
9661,83.0,0.0,240.0,0.0,0.0
9662,82.0,0.0,60.0,1.0,0.0
9663,51.0,0.0,90.0,3.0,0.0
9664,39.0,0.0,90.0,12.0,0.0
9665,51.0,80.0,90.0,11.0,0.0
9666,82.0,0.0,60.0,0.0,0.0
9667,94.0,0.0,60.0,0.0,0.0
9668,70.0,0.0,60.0,2.0,0.0
9669,63.0,0.0,90.0,10.0,0.0
9670,82.0,20.0,60.0,8.0,0.0
9671,82.0,0.0,60.0,7.0,0.0
9672,53.0,0.0,90.0,3.0,0.0
9673,65.0,80.0,90.0,10.0,0.0
9674,41.0,0.0,90.0,12.0,0.0
9675,53.0,0.0,90.0,11.0,0.0
9676,42.0,0.0,90.0,12.0,0.0
9677,54.0,0.0,90.0,3.0,0.0
9678,54.0,0.0,90.0,11.0,0.0
9679,66.0,60.0,90.0,10.0,0.0
9680,56.0,60.0,480.0,3.0,0.0
9681,80.0,300.0,60.0,7.0,0.0
9682,68.0,0.0,480.0,10.0,0.0
9683,80.0,0.0,60.0,8.0,0.0
9684,68.0,60.0,540.0,2.0,0.0
9685,44.0,0.0,480.0,12.0,0.0
9686,80.0,0.0,600.0,0.0,0.0
9687,56.0,0.0,480.0,11.0,0.0
9688,92.0,0.0,600.0,0.0,0.0
9689,78.0,0.0,360.0,5.0,0.0
9690,80.0,0.0,360.0,5.0,0.0
9691,68.0,0.0,360.0,4.0,0.0
9692,66.0,0.0,360.0,4.0,0.0
9693,80.0,0.0,540.0,1.0,0.0
9694,83.0,0.0,120.0,7.0,0.0
9695,83.0,120.0,120.0,8.0,0.0
9696,82.0,0.0,120.0,7.0,0.0
9697,82.0,0.0,120.0,8.0,0.0
9698,80.0,0.0,120.0,7.0,0.0
9699,80.0,120.0,120.0,8.0,0.0
9700,78.0,80.0,120.0,7.0,0.0
9701,78.0,0.0,120.0,0.0,0.0
9702,90.0,0.0,120.0,0.0,0.0
9703,78.0,0.0,120.0,8.0,0.0
9704,68.0,0.0,90.0,10.0,0.0
9705,89.0,0.0,120.0,0.0,0.0
9706,77.0,40.0,120.0,0.0,0.0
9707,80.0,60.0,180.0,1.0,0.0
9708,56.0,40.0,90.0,3.0,0.0
9709,77.0,0.0,120.0,8.0,0.0
9710,68.0,0.0,180.0,2.0,0.0
9711,44.0,0.0,90.0,12.0,0.0
9712,77.0,0.0,120.0,7.0,0.0
9713,56.0,0.0,90.0,11.0,0.0
9714,58.0,20.0,90.0,3.0,0.0
9715,46.0,0.0,90.0,12.0,0.0
9716,58.0,0.0,90.0,11.0,0.0
9717,70.0,0.0,90.0,10.0,0.0
9718,75.0,180.0,120.0,8.0,0.0
9719,87.0,0.0,120.0,0.0,0.0
9720,75.0,0.0,120.0,0.0,0.0
9721,75.0,0.0,120.0,7.0,0.0
9722,71.0,0.0,90.0,10.0,0.0
9723,59.0,0.0,90.0,3.0,0.0
9724,59.0,0.0,90.0,11.0,0.0
9725,47.0,0.0,90.0,12.0,0.0
9726,49.0,120.0,360.0,6.0,0.0
9727,61.0,0.0,480.0,3.0,0.0
9728,82.0,0.0,1440.0,1.0,0.0
9729,78.0,180.0,2880.0,1.0,0.0
9730,66.0,0.0,2640.0,4.0,0.0
9731,70.0,0.0,1440.0,4.0,0.0
9732,66.0,0.0,1440.0,2.0,0.0
9733,73.0,0.0,180.0,7.0,0.0
9734,82.0,0.0,1440.0,5.0,0.0
9735,73.0,0.0,480.0,10.0,0.0
9736,73.0,180.0,180.0,8.0,0.0
9737,78.0,0.0,2640.0,5.0,0.0
9738,49.0,0.0,480.0,12.0,0.0
9739,73.0,0.0,720.0,0.0,0.0
9740,85.0,80.0,720.0,0.0,0.0
9741,61.0,120.0,480.0,11.0,0.0
9742,70.0,120.0,1440.0,2.0,0.0
9743,90.0,120.0,360.0,7.0,0.0
9744,82.0,0.0,360.0,8.0,0.0
9745,90.0,0.0,360.0,8.0,0.0
9746,82.0,0.0,360.0,7.0,0.0
9747,90.0,0.0,180.0,7.0,0.0
9748,82.0,0.0,180.0,7.0,0.0
9749,90.0,60.0,180.0,8.0,0.0
9750,82.0,0.0,180.0,8.0,0.0
9751,70.0,0.0,90.0,10.0,0.0
9752,58.0,0.0,90.0,11.0,0.0
9753,46.0,0.0,90.0,12.0,0.0
9754,58.0,80.0,90.0,3.0,0.0
9755,71.0,0.0,90.0,10.0,0.0
9756,47.0,0.0,90.0,12.0,0.0
9757,59.0,20.0,90.0,11.0,0.0
9758,59.0,0.0,90.0,3.0,0.0
9759,61.0,180.0,90.0,3.0,0.0
9760,73.0,0.0,90.0,10.0,0.0
9761,49.0,0.0,90.0,12.0,0.0
9762,61.0,0.0,90.0,11.0,0.0
9763,54.0,120.0,360.0,6.0,0.0
9764,63.0,0.0,480.0,3.0,0.0
9765,75.0,180.0,180.0,8.0,0.0
9766,51.0,0.0,480.0,12.0,0.0
9767,63.0,0.0,480.0,11.0,0.0
9768,75.0,0.0,480.0,10.0,0.0
9769,90.0,0.0,1920.0,0.0,0.0
9770,82.0,120.0,720.0,0.0,0.0
9771,75.0,0.0,180.0,7.0,0.0
9772,82.0,120.0,360.0,8.0,0.0
9773,90.0,0.0,360.0,8.0,0.0
9774,90.0,0.0,360.0,7.0,0.0
9775,82.0,0.0,360.0,7.0,0.0
9776,63.0,0.0,120.0,11.0,0.0
9777,63.0,60.0,120.0,3.0,0.0
9778,75.0,0.0,120.0,10.0,0.0
9779,82.0,0.0,180.0,8.0,0.0
9780,51.0,0.0,120.0,12.0,0.0
9781,90.0,60.0,180.0,8.0,0.0
9782,90.0,0.0,180.0,7.0,0.0
9783,82.0,0.0,180.0,7.0,0.0
9784,73.0,0.0,120.0,10.0,0.0
9785,61.0,0.0,120.0,11.0,0.0
9786,49.0,180.0,120.0,12.0,0.0
9787,61.0,0.0,120.0,3.0,0.0
9788,54.0,120.0,360.0,6.0,0.0
9789,71.0,0.0,480.0,10.0,0.0
9790,80.0,0.0,1440.0,5.0,0.0
9791,59.0,120.0,480.0,11.0,0.0
9792,80.0,0.0,1920.0,1.0,0.0
9793,68.0,0.0,720.0,2.0,0.0
9794,68.0,0.0,1440.0,4.0,0.0
9795,71.0,0.0,180.0,7.0,0.0
9796,63.0,80.0,720.0,2.0,0.0
9797,59.0,0.0,480.0,3.0,0.0
9798,80.0,0.0,1920.0,0.0,0.0
9799,47.0,0.0,480.0,12.0,0.0
9800,71.0,180.0,180.0,8.0,0.0
9801,80.0,120.0,360.0,8.0,0.0
9802,90.0,0.0,360.0,8.0,0.0
9803,80.0,0.0,360.0,7.0,0.0
9804,90.0,0.0,360.0,7.0,0.0
9805,56.0,0.0,90.0,3.0,0.0
9806,80.0,60.0,180.0,8.0,0.0
9807,90.0,0.0,180.0,8.0,0.0
9808,68.0,0.0,90.0,10.0,0.0
9809,80.0,0.0,180.0,7.0,0.0
9810,56.0,0.0,90.0,11.0,0.0
9811,44.0,80.0,90.0,12.0,0.0
9812,90.0,0.0,180.0,7.0,0.0
9813,58.0,0.0,90.0,11.0,0.0
9814,70.0,0.0,90.0,10.0,0.0
9815,46.0,0.0,90.0,12.0,0.0
9816,58.0,20.0,90.0,3.0,0.0
9817,71.0,0.0,90.0,10.0,0.0
9818,47.0,0.0,90.0,12.0,0.0
9819,59.0,0.0,90.0,3.0,0.0
9820,59.0,0.0,90.0,11.0,0.0
9821,89.0,0.0,960.0,0.0,0.0
9822,49.0,120.0,360.0,6.0,0.0
9823,49.0,0.0,480.0,12.0,0.0
9824,61.0,60.0,720.0,4.0,0.0
9825,73.0,0.0,480.0,10.0,0.0
9826,73.0,0.0,180.0,8.0,0.0
9827,61.0,0.0,480.0,11.0,0.0
9828,73.0,180.0,180.0,7.0,0.0
9829,73.0,0.0,720.0,5.0,0.0
9830,71.0,0.0,720.0,2.0,0.0
9831,61.0,120.0,480.0,3.0,0.0
9832,77.0,0.0,960.0,1.0,0.0
9833,65.0,0.0,720.0,2.0,0.0
9834,89.0,120.0,360.0,8.0,0.0
9835,89.0,0.0,360.0,7.0,0.0
9836,80.0,0.0,360.0,8.0,0.0
9837,80.0,0.0,360.0,7.0,0.0
9838,89.0,0.0,180.0,7.0,0.0
9839,80.0,0.0,180.0,7.0,0.0
9840,61.0,60.0,60.0,3.0,0.0
9841,73.0,0.0,60.0,10.0,0.0
9842,49.0,0.0,60.0,12.0,0.0
9843,89.0,0.0,180.0,8.0,0.0
9844,80.0,0.0,180.0,8.0,0.0
9845,61.0,0.0,60.0,11.0,0.0
9846,59.0,0.0,60.0,11.0,0.0
9847,47.0,0.0,60.0,12.0,0.0
9848,59.0,60.0,60.0,3.0,0.0
9849,71.0,0.0,60.0,10.0,0.0
9850,70.0,0.0,60.0,10.0,0.0
9851,46.0,0.0,60.0,12.0,0.0
9852,58.0,60.0,60.0,11.0,0.0
9853,58.0,0.0,60.0,3.0,0.0
9854,56.0,0.0,60.0,3.0,0.0
9855,68.0,0.0,60.0,10.0,0.0
9856,44.0,90.0,60.0,12.0,0.0
9857,56.0,0.0,60.0,11.0,0.0
9858,70.0,0.0,720.0,2.0,0.0
9859,54.0,60.0,4200.0,4.0,0.0
9860,82.0,60.0,1440.0,0.0,0.0
9861,90.0,90.0,720.0,0.0,0.0
9862,66.0,0.0,4200.0,4.0,0.0
9863,90.0,30.0,90.0,8.0,0.0
9864,54.0,0.0,240.0,11.0,0.0
9865,90.0,30.0,540.0,7.0,0.0
9866,54.0,90.0,240.0,3.0,0.0
9867,78.0,0.0,6120.0,5.0,0.0
9868,66.0,60.0,6120.0,5.0,0.0
9869,54.0,60.0,360.0,6.0,0.0
9870,66.0,0.0,720.0,2.0,0.0
9871,78.0,0.0,720.0,1.0,0.0
9872,66.0,90.0,120.0,10.0,0.0
9873,42.0,0.0,240.0,12.0,0.0
9874,70.0,0.0,90.0,10.0,0.0
9875,78.0,30.0,90.0,8.0,0.0
9876,78.0,0.0,90.0,8.0,0.0
9877,70.0,30.0,90.0,10.0,0.0
9878,54.0,0.0,180.0,11.0,0.0
9879,42.0,30.0,180.0,12.0,0.0
9880,54.0,0.0,180.0,3.0,0.0
9881,70.0,90.0,90.0,10.0,0.0
9882,78.0,0.0,90.0,8.0,0.0
9883,54.0,30.0,180.0,3.0,0.0
9884,54.0,0.0,180.0,11.0,0.0
9885,70.0,90.0,90.0,10.0,0.0
9886,78.0,0.0,90.0,8.0,0.0
9887,42.0,0.0,180.0,12.0,0.0
9888,70.0,30.0,90.0,10.0,0.0
9889,78.0,0.0,90.0,8.0,0.0
9890,54.0,30.0,180.0,3.0,0.0
9891,42.0,0.0,180.0,12.0,0.0
9892,70.0,90.0,90.0,10.0,0.0
9893,78.0,0.0,90.0,8.0,0.0
9894,54.0,0.0,180.0,11.0,0.0
9895,78.0,0.0,180.0,7.0,0.0
9896,78.0,120.0,90.0,8.0,0.0
9897,70.0,0.0,90.0,10.0,0.0
9898,42.0,0.0,180.0,12.0,0.0
9899,76.0,0.0,720.0,1.0,0.0
9900,70.0,0.0,720.0,1.0,0.0
9901,64.0,0.0,720.0,2.0,0.0
9902,73.0,0.0,720.0,2.0,0.0
9903,54.0,0.0,180.0,3.0,0.0
9904,76.0,90.0,90.0,8.0,0.0
9905,54.0,30.0,180.0,11.0,0.0
9906,88.0,30.0,540.0,7.0,0.0
9907,70.0,0.0,90.0,10.0,0.0
9908,88.0,90.0,720.0,0.0,0.0
9909,85.0,0.0,90.0,8.0,0.0
9910,85.0,120.0,90.0,8.0,0.0
9911,76.0,0.0,90.0,8.0,0.0
9912,70.0,0.0,90.0,10.0,0.0
9913,85.0,0.0,90.0,8.0,0.0
9914,76.0,0.0,90.0,8.0,0.0
9915,54.0,0.0,180.0,3.0,0.0
9916,70.0,90.0,90.0,10.0,0.0
9917,54.0,30.0,180.0,11.0,0.0
9918,42.0,0.0,180.0,12.0,0.0
9919,70.0,0.0,90.0,10.0,0.0
9920,76.0,0.0,90.0,8.0,0.0
9921,85.0,30.0,90.0,8.0,0.0
9922,54.0,0.0,180.0,11.0,0.0
9923,42.0,30.0,180.0,12.0,0.0
9924,70.0,90.0,90.0,10.0,0.0
9925,85.0,0.0,90.0,8.0,0.0
9926,76.0,0.0,90.0,8.0,0.0
9927,54.0,0.0,180.0,3.0,0.0
9928,85.0,0.0,90.0,8.0,0.0
9929,76.0,0.0,90.0,8.0,0.0
9930,70.0,30.0,90.0,10.0,0.0
9931,54.0,0.0,180.0,3.0,0.0
9932,54.0,0.0,180.0,11.0,0.0
9933,70.0,0.0,90.0,10.0,0.0
9934,85.0,90.0,90.0,8.0,0.0
9935,42.0,30.0,180.0,12.0,0.0
9936,78.0,0.0,180.0,7.0,0.0
9937,76.0,0.0,90.0,8.0,0.0
9938,70.0,120.0,90.0,10.0,0.0
9939,76.0,0.0,90.0,8.0,0.0
9940,85.0,0.0,90.0,8.0,0.0
9941,71.0,0.0,90.0,10.0,0.0
9942,54.0,0.0,180.0,3.0,0.0
9943,86.0,30.0,540.0,7.0,0.0
9944,54.0,60.0,360.0,6.0,0.0
9945,62.0,60.0,1080.0,2.0,0.0
9946,54.0,0.0,180.0,11.0,0.0
9947,71.0,90.0,1920.0,1.0,0.0
9948,74.0,90.0,720.0,1.0,0.0
9949,71.0,0.0,1440.0,2.0,0.0
9950,83.0,0.0,1920.0,0.0,0.0
9951,86.0,0.0,720.0,0.0,0.0
9952,83.0,0.0,90.0,8.0,0.0
9953,42.0,30.0,180.0,12.0,0.0
9954,74.0,90.0,90.0,8.0,0.0
9955,83.0,0.0,90.0,8.0,0.0
9956,71.0,120.0,90.0,10.0,0.0
9957,74.0,0.0,90.0,8.0,0.0
9958,71.0,30.0,90.0,10.0,0.0
9959,54.0,30.0,180.0,3.0,0.0
9960,54.0,0.0,180.0,11.0,0.0
9961,83.0,0.0,90.0,8.0,0.0
9962,42.0,0.0,180.0,12.0,0.0
9963,74.0,0.0,90.0,8.0,0.0
9964,74.0,0.0,90.0,8.0,0.0
9965,83.0,0.0,90.0,8.0,0.0
9966,71.0,90.0,90.0,10.0,0.0
9967,42.0,0.0,180.0,12.0,0.0
9968,54.0,30.0,180.0,11.0,0.0
9969,54.0,0.0,180.0,3.0,0.0
9970,83.0,90.0,90.0,8.0,0.0
9971,71.0,0.0,90.0,10.0,0.0
9972,74.0,0.0,90.0,8.0,0.0
9973,71.0,0.0,90.0,10.0,0.0
9974,74.0,30.0,90.0,8.0,0.0
9975,83.0,0.0,90.0,8.0,0.0
9976,83.0,0.0,90.0,8.0,0.0
9977,74.0,90.0,90.0,8.0,0.0
9978,42.0,30.0,180.0,12.0,0.0
9979,54.0,0.0,180.0,3.0,0.0
9980,85.0,0.0,240.0,0.0,0.0
9981,71.0,0.0,90.0,10.0,0.0
9982,85.0,90.0,240.0,7.0,0.0
9983,54.0,0.0,180.0,11.0,0.0
9984,73.0,0.0,240.0,1.0,0.0
9985,83.0,0.0,90.0,8.0,0.0
9986,74.0,0.0,90.0,8.0,0.0
9987,71.0,30.0,90.0,10.0,0.0
9988,86.0,0.0,240.0,0.0,0.0
9989,86.0,0.0,240.0,7.0,0.0
9990,83.0,0.0,90.0,8.0,0.0
9991,42.0,30.0,180.0,12.0,0.0
9992,80.0,0.0,90.0,8.0,0.0
9993,54.0,0.0,180.0,3.0,0.0
9994,68.0,30.0,90.0,10.0,0.0
9995,54.0,0.0,180.0,11.0,0.0
9996,74.0,90.0,240.0,1.0,0.0
9997,80.0,0.0,90.0,8.0,0.0
9998,83.0,0.0,90.0,8.0,0.0
9999,68.0,30.0,90.0,10.0,0.0
10000,83.0,0.0,90.0,8.0,0.0
10001,54.0,0.0,180.0,3.0,0.0
10002,87.0,90.0,240.0,0.0,0.0
10003,54.0,0.0,180.0,11.0,0.0
10004,80.0,0.0,90.0,8.0,0.0
10005,68.0,90.0,90.0,10.0,0.0
10006,42.0,30.0,180.0,12.0,0.0
10007,75.0,0.0,240.0,1.0,0.0
10008,87.0,0.0,240.0,7.0,0.0
10009,80.0,0.0,90.0,8.0,0.0
10010,83.0,0.0,90.0,8.0,0.0
10011,68.0,30.0,90.0,10.0,0.0
10012,80.0,90.0,90.0,8.0,0.0
10013,83.0,0.0,90.0,8.0,0.0
10014,61.0,60.0,360.0,2.0,0.0
10015,54.0,0.0,180.0,11.0,0.0
10016,76.0,0.0,240.0,1.0,0.0
10017,42.0,0.0,180.0,12.0,0.0
10018,88.0,0.0,240.0,0.0,0.0
10019,88.0,90.0,240.0,7.0,0.0
10020,54.0,30.0,180.0,3.0,0.0
10021,73.0,0.0,90.0,10.0,0.0
10022,80.0,30.0,90.0,8.0,0.0
10023,83.0,0.0,90.0,8.0,0.0
10024,73.0,0.0,90.0,10.0,0.0
10025,83.0,30.0,90.0,8.0,0.0
10026,80.0,0.0,90.0,8.0,0.0
10027,54.0,0.0,180.0,11.0,0.0
10028,77.0,0.0,240.0,1.0,0.0
10029,89.0,0.0,240.0,7.0,0.0
10030,73.0,0.0,90.0,10.0,0.0
10031,54.0,0.0,180.0,3.0,0.0
10032,42.0,30.0,180.0,12.0,0.0
10033,89.0,0.0,240.0,0.0,0.0
10034,73.0,0.0,90.0,10.0,0.0
10035,80.0,30.0,90.0,8.0,0.0
10036,83.0,0.0,90.0,8.0,0.0
10037,90.0,90.0,960.0,0.0,0.0
10038,54.0,90.0,720.0,6.0,0.0
10039,54.0,0.0,180.0,11.0,0.0
10040,90.0,0.0,720.0,7.0,0.0
10041,54.0,30.0,180.0,3.0,0.0
10042,82.0,0.0,1920.0,0.0,0.0
10043,82.0,90.0,90.0,8.0,0.0
10044,42.0,0.0,180.0,12.0,0.0
10045,78.0,0.0,90.0,8.0,0.0
10046,61.0,0.0,720.0,2.0,0.0
10047,70.0,0.0,720.0,2.0,0.0
10048,70.0,0.0,1920.0,1.0,0.0
10049,73.0,0.0,90.0,10.0,0.0
10050,78.0,0.0,960.0,1.0,0.0
10051,73.0,120.0,90.0,10.0,0.0
10052,78.0,0.0,90.0,8.0,0.0
10053,82.0,0.0,90.0,8.0,0.0
10054,73.0,30.0,90.0,10.0,0.0
10055,54.0,0.0,180.0,3.0,0.0
10056,42.0,0.0,180.0,12.0,0.0
10057,54.0,30.0,180.0,11.0,0.0
10058,82.0,0.0,90.0,8.0,0.0
10059,78.0,0.0,90.0,8.0,0.0
10060,82.0,120.0,90.0,8.0,0.0
10061,73.0,0.0,90.0,10.0,0.0
10062,78.0,0.0,90.0,8.0,0.0
10063,54.0,0.0,180.0,11.0,0.0
10064,78.0,0.0,90.0,8.0,0.0
10065,54.0,0.0,180.0,3.0,0.0
10066,82.0,90.0,90.0,8.0,0.0
10067,66.0,0.0,180.0,4.0,0.0
10068,42.0,0.0,180.0,12.0,0.0
10069,73.0,0.0,90.0,10.0,0.0
10070,54.0,30.0,180.0,4.0,0.0
10071,82.0,0.0,90.0,8.0,0.0
10072,73.0,30.0,90.0,10.0,0.0
10073,78.0,0.0,90.0,8.0,0.0
10074,82.0,90.0,90.0,8.0,0.0
10075,78.0,0.0,90.0,8.0,0.0
10076,54.0,0.0,180.0,4.0,0.0
10077,66.0,0.0,180.0,4.0,0.0
10078,54.0,0.0,180.0,11.0,0.0
10079,78.0,30.0,180.0,7.0,0.0
10080,73.0,0.0,90.0,10.0,0.0
10081,54.0,0.0,180.0,3.0,0.0
10082,42.0,0.0,180.0,12.0,0.0
10083,82.0,0.0,90.0,8.0,0.0
10084,78.0,30.0,90.0,8.0,0.0
10085,73.0,0.0,90.0,10.0,0.0
10086,88.0,30.0,540.0,7.0,0.0
10087,70.0,0.0,90.0,10.0,0.0
10088,76.0,90.0,90.0,8.0,0.0
10089,54.0,0.0,180.0,3.0,0.0
10090,64.0,0.0,720.0,2.0,0.0
10091,73.0,90.0,720.0,2.0,0.0
10092,54.0,60.0,360.0,6.0,0.0
10093,76.0,90.0,960.0,1.0,0.0
10094,54.0,0.0,180.0,11.0,0.0
10095,85.0,0.0,90.0,8.0,0.0
10096,66.0,0.0,180.0,4.0,0.0
10097,42.0,0.0,180.0,12.0,0.0
10098,54.0,30.0,180.0,4.0,0.0
10099,88.0,0.0,960.0,0.0,0.0
10100,76.0,0.0,90.0,8.0,0.0
10101,70.0,120.0,90.0,10.0,0.0
10102,85.0,0.0,90.0,8.0,0.0
10103,70.0,0.0,90.0,10.0,0.0
10104,42.0,0.0,180.0,12.0,0.0
10105,76.0,0.0,90.0,8.0,0.0
10106,66.0,0.0,180.0,4.0,0.0
10107,54.0,0.0,180.0,3.0,0.0
10108,54.0,30.0,180.0,4.0,0.0
10109,85.0,30.0,90.0,8.0,0.0
10110,54.0,0.0,180.0,11.0,0.0
10111,70.0,0.0,90.0,10.0,0.0
10112,76.0,90.0,90.0,8.0,0.0
10113,85.0,0.0,90.0,8.0,0.0
10114,76.0,90.0,90.0,8.0,0.0
10115,85.0,0.0,90.0,8.0,0.0
10116,54.0,0.0,180.0,4.0,0.0
10117,66.0,0.0,180.0,4.0,0.0
10118,42.0,0.0,180.0,12.0,0.0
10119,54.0,60.0,360.0,6.0,0.0
10120,70.0,0.0,90.0,10.0,0.0
10121,54.0,30.0,180.0,11.0,0.0
10122,54.0,0.0,180.0,3.0,0.0
10123,85.0,30.0,90.0,8.0,0.0
10124,76.0,0.0,90.0,8.0,0.0
10125,70.0,0.0,90.0,10.0,0.0
10126,54.0,0.0,180.0,3.0,0.0
10127,76.0,0.0,90.0,8.0,0.0
10128,54.0,30.0,180.0,11.0,0.0
10129,42.0,0.0,180.0,12.0,0.0
10130,85.0,30.0,90.0,8.0,0.0
10131,66.0,0.0,180.0,4.0,0.0
10132,54.0,0.0,180.0,4.0,0.0
10133,78.0,0.0,180.0,7.0,0.0
10134,70.0,0.0,90.0,10.0,0.0
10135,70.0,0.0,90.0,10.0,0.0
10136,76.0,0.0,90.0,8.0,0.0
10137,85.0,30.0,90.0,8.0,0.0
10138,54.0,0.0,360.0,6.0,0.0
10139,54.0,0.0,2280.0,4.0,0.0
10140,71.0,0.0,1920.0,1.0,0.0
10141,86.0,30.0,540.0,7.0,0.0
10142,74.0,0.0,720.0,1.0,0.0
10143,42.0,0.0,180.0,12.0,0.0
10144,71.0,0.0,90.0,10.0,0.0
10145,54.0,0.0,180.0,3.0,0.0
10146,62.0,60.0,1080.0,2.0,0.0
10147,71.0,0.0,1440.0,2.0,0.0
10148,66.0,0.0,2280.0,4.0,0.0
10149,74.0,0.0,90.0,8.0,0.0
10150,83.0,90.0,90.0,8.0,0.0
10151,86.0,90.0,720.0,0.0,0.0
10152,83.0,0.0,1920.0,0.0,0.0
10153,54.0,30.0,180.0,11.0,0.0
10154,74.0,120.0,90.0,8.0,0.0
10155,71.0,0.0,90.0,10.0,0.0
10156,83.0,0.0,90.0,8.0,0.0
10157,83.0,0.0,90.0,8.0,0.0
10158,54.0,0.0,180.0,3.0,0.0
10159,74.0,0.0,90.0,8.0,0.0
10160,42.0,0.0,180.0,12.0,0.0
10161,54.0,30.0,180.0,11.0,0.0
10162,71.0,30.0,90.0,10.0,0.0
10163,71.0,90.0,90.0,10.0,0.0
10164,83.0,0.0,90.0,8.0,0.0
10165,74.0,0.0,90.0,8.0,0.0
10166,54.0,0.0,180.0,6.0,0.0
10167,54.0,0.0,180.0,11.0,0.0
10168,66.0,0.0,180.0,5.0,0.0
10169,78.0,30.0,180.0,5.0,0.0
10170,54.0,0.0,180.0,3.0,0.0
10171,74.0,0.0,90.0,8.0,0.0
10172,83.0,0.0,90.0,8.0,0.0
10173,42.0,0.0,180.0,12.0,0.0
10174,71.0,90.0,90.0,10.0,0.0
10175,74.0,0.0,90.0,8.0,0.0
10176,83.0,30.0,90.0,8.0,0.0
10177,71.0,0.0,90.0,10.0,0.0
10178,54.0,0.0,180.0,6.0,0.0
10179,54.0,0.0,180.0,11.0,0.0
10180,42.0,0.0,180.0,12.0,0.0
10181,85.0,0.0,240.0,0.0,0.0
10182,74.0,90.0,90.0,8.0,0.0
10183,78.0,30.0,180.0,5.0,0.0
10184,71.0,0.0,90.0,10.0,0.0
10185,54.0,0.0,180.0,3.0,0.0
10186,66.0,0.0,180.0,5.0,0.0
10187,83.0,0.0,90.0,8.0,0.0
10188,73.0,0.0,240.0,1.0,0.0
10189,85.0,90.0,240.0,7.0,0.0
10190,71.0,0.0,90.0,10.0,0.0
10191,83.0,0.0,90.0,8.0,0.0
10192,74.0,30.0,90.0,8.0,0.0
10193,83.0,0.0,90.0,8.0,0.0
10194,80.0,0.0,90.0,8.0,0.0
10195,54.0,0.0,180.0,6.0,0.0
10196,66.0,0.0,180.0,5.0,0.0
10197,78.0,0.0,180.0,5.0,0.0
10198,86.0,0.0,240.0,0.0,0.0
10199,54.0,0.0,180.0,3.0,0.0
10200,54.0,0.0,180.0,11.0,0.0
10201,74.0,90.0,240.0,1.0,0.0
10202,86.0,0.0,240.0,7.0,0.0
10203,42.0,30.0,180.0,12.0,0.0
10204,68.0,30.0,90.0,10.0,0.0
10205,68.0,0.0,90.0,10.0,0.0
10206,83.0,0.0,90.0,8.0,0.0
10207,80.0,30.0,90.0,8.0,0.0
10208,87.0,0.0,240.0,7.0,0.0
10209,42.0,0.0,180.0,12.0,0.0
10210,68.0,0.0,90.0,10.0,0.0
10211,54.0,0.0,180.0,11.0,0.0
10212,87.0,90.0,240.0,0.0,0.0
10213,80.0,0.0,90.0,8.0,0.0
10214,66.0,0.0,180.0,5.0,0.0
10215,54.0,30.0,180.0,3.0,0.0
10216,78.0,0.0,180.0,5.0,0.0
10217,54.0,0.0,180.0,6.0,0.0
10218,75.0,0.0,240.0,1.0,0.0
10219,83.0,90.0,90.0,8.0,0.0
10220,83.0,0.0,90.0,8.0,0.0
10221,68.0,0.0,90.0,10.0,0.0
10222,80.0,30.0,90.0,8.0,0.0
10223,88.0,0.0,240.0,7.0,0.0
10224,61.0,60.0,360.0,2.0,0.0
10225,66.0,30.0,180.0,5.0,0.0
10226,78.0,0.0,180.0,5.0,0.0
10227,42.0,0.0,180.0,12.0,0.0
10228,73.0,0.0,90.0,10.0,0.0
10229,54.0,0.0,180.0,3.0,0.0
10230,54.0,0.0,180.0,6.0,0.0
10231,88.0,90.0,240.0,0.0,0.0
10232,83.0,0.0,90.0,8.0,0.0
10233,80.0,90.0,90.0,8.0,0.0
10234,54.0,0.0,180.0,11.0,0.0
10235,76.0,0.0,240.0,1.0,0.0
10236,73.0,30.0,90.0,10.0,0.0
10237,83.0,0.0,90.0,8.0,0.0
10238,80.0,0.0,90.0,8.0,0.0
10239,89.0,360.0,240.0,7.0,0.0
10240,54.0,0.0,180.0,6.0,0.0
10241,83.0,0.0,90.0,8.0,0.0
10242,54.0,0.0,180.0,11.0,0.0
10243,77.0,0.0,240.0,1.0,0.0
10244,73.0,0.0,90.0,10.0,0.0
10245,78.0,0.0,180.0,5.0,0.0
10246,66.0,30.0,180.0,5.0,0.0
10247,42.0,0.0,180.0,12.0,0.0
10248,89.0,0.0,240.0,0.0,0.0
10249,80.0,30.0,90.0,8.0,0.0
10250,54.0,0.0,180.0,3.0,0.0
10251,73.0,0.0,90.0,10.0,0.0
10252,80.0,0.0,90.0,8.0,0.0
10253,83.0,30.0,90.0,8.0,0.0
10254,73.0,0.0,360.0,10.0,0.0
10255,78.0,0.0,360.0,8.0,0.0
10256,42.0,0.0,360.0,12.0,0.0
10257,54.0,0.0,360.0,6.0,0.0
10258,54.0,0.0,360.0,3.0,0.0
10259,61.0,0.0,360.0,2.0,0.0
10260,70.0,0.0,360.0,2.0,0.0
10261,82.0,0.0,360.0,0.0,0.0
10262,90.0,0.0,360.0,0.0,0.0
10263,54.0,360.0,360.0,11.0,0.0
10264,82.0,0.0,360.0,8.0,0.0
10265,78.0,0.0,360.0,5.0,0.0
10266,70.0,0.0,360.0,1.0,0.0
10267,78.0,0.0,360.0,1.0,0.0
10268,90.0,90.0,720.0,7.0,0.0
10269,66.0,0.0,360.0,5.0,0.0
10270,89.0,120.0,90.0,7.0,0.0
10271,87.0,120.0,90.0,7.0,0.0
10272,85.0,120.0,90.0,7.0,0.0
10273,87.0,120.0,90.0,7.0,0.0
10274,85.0,120.0,90.0,7.0,0.0
10275,83.0,120.0,90.0,7.0,0.0
10276,82.0,120.0,90.0,7.0,0.0
10277,83.0,120.0,90.0,7.0,0.0
10278,82.0,120.0,90.0,7.0,0.0
10279,80.0,390.0,90.0,7.0,0.0
10280,54.0,0.0,720.0,12.0,0.0
10281,66.0,0.0,720.0,4.0,0.0
10282,66.0,90.0,720.0,2.0,0.0
10283,78.0,0.0,720.0,2.0,0.0
10284,78.0,180.0,540.0,8.0,0.0
10285,66.0,0.0,720.0,11.0,0.0
10286,66.0,0.0,720.0,3.0,0.0
10287,54.0,180.0,360.0,6.0,0.0
10288,78.0,0.0,720.0,5.0,0.0
10289,90.0,0.0,540.0,0.0,0.0
10290,90.0,0.0,540.0,1.0,0.0
10291,78.0,0.0,720.0,10.0,0.0
10292,78.0,0.0,540.0,7.0,0.0
10293,77.0,0.0,90.0,7.0,0.0
10294,89.0,0.0,90.0,1.0,0.0
10295,89.0,0.0,90.0,0.0,0.0
10296,77.0,120.0,90.0,8.0,0.0
10297,87.0,120.0,90.0,1.0,0.0
10298,87.0,0.0,90.0,0.0,0.0
10299,75.0,0.0,90.0,8.0,0.0
10300,75.0,0.0,90.0,7.0,0.0
10301,49.0,0.0,360.0,12.0,0.0
10302,73.0,0.0,360.0,10.0,0.0
10303,61.0,0.0,360.0,4.0,0.0
10304,73.0,0.0,90.0,7.0,0.0
10305,85.0,0.0,90.0,0.0,0.0
10306,73.0,0.0,360.0,2.0,0.0
10307,61.0,0.0,360.0,2.0,0.0
10308,73.0,0.0,360.0,5.0,0.0
10309,61.0,90.0,360.0,3.0,0.0
10310,85.0,0.0,90.0,1.0,0.0
10311,73.0,120.0,90.0,8.0,0.0
10312,61.0,0.0,360.0,11.0,0.0
10313,87.0,0.0,90.0,1.0,0.0
10314,75.0,120.0,90.0,7.0,0.0
10315,75.0,0.0,90.0,8.0,0.0
10316,87.0,0.0,90.0,0.0,0.0
10317,73.0,0.0,90.0,7.0,0.0
10318,73.0,0.0,90.0,8.0,0.0
10319,85.0,30.0,90.0,0.0,0.0
10320,85.0,0.0,90.0,1.0,0.0
10321,71.0,0.0,90.0,8.0,0.0
10322,83.0,0.0,90.0,0.0,0.0
10323,71.0,120.0,90.0,7.0,0.0
10324,83.0,0.0,90.0,1.0,0.0
10325,70.0,90.0,360.0,5.0,0.0
10326,70.0,120.0,90.0,7.0,0.0
10327,58.0,0.0,360.0,2.0,0.0
10328,58.0,0.0,360.0,11.0,0.0
10329,70.0,0.0,360.0,2.0,0.0
10330,58.0,0.0,360.0,3.0,0.0
10331,70.0,0.0,360.0,10.0,0.0
10332,82.0,0.0,90.0,0.0,0.0
10333,82.0,0.0,90.0,1.0,0.0
10334,46.0,0.0,360.0,12.0,0.0
10335,58.0,0.0,360.0,4.0,0.0
10336,70.0,0.0,90.0,8.0,0.0
10337,71.0,0.0,90.0,8.0,0.0
10338,83.0,120.0,90.0,1.0,0.0
10339,83.0,0.0,90.0,0.0,0.0
10340,71.0,0.0,90.0,7.0,0.0
10341,70.0,0.0,90.0,7.0,0.0
10342,82.0,30.0,90.0,1.0,0.0
10343,70.0,0.0,90.0,8.0,0.0
10344,82.0,0.0,90.0,0.0,0.0
10345,68.0,390.0,90.0,7.0,0.0
10346,80.0,0.0,90.0,1.0,0.0
10347,80.0,0.0,90.0,0.0,0.0
10348,68.0,0.0,90.0,8.0,0.0
10349,54.0,0.0,720.0,2.0,0.0
10350,78.0,180.0,360.0,0.0,0.0
10351,42.0,0.0,720.0,12.0,0.0
10352,66.0,180.0,540.0,8.0,0.0
10353,54.0,0.0,360.0,4.0,0.0
10354,54.0,120.0,720.0,11.0,0.0
10355,66.0,0.0,540.0,7.0,0.0
10356,66.0,0.0,720.0,10.0,0.0
10357,66.0,0.0,360.0,5.0,0.0
10358,54.0,0.0,360.0,6.0,0.0
10359,54.0,0.0,720.0,3.0,0.0
10360,78.0,0.0,360.0,1.0,0.0
10361,66.0,0.0,120.0,8.0,0.0
10362,66.0,120.0,120.0,7.0,0.0
10363,68.0,0.0,120.0,8.0,0.0
10364,68.0,240.0,120.0,7.0,0.0
10365,70.0,0.0,240.0,8.0,0.0
10366,70.0,120.0,120.0,8.0,0.0
10367,70.0,120.0,15.0,7.0,0.0
10368,71.0,0.0,120.0,8.0,0.0
10369,71.0,240.0,120.0,7.0,0.0
10370,73.0,0.0,240.0,7.0,0.0
10371,73.0,80.0,15.0,8.0,0.0
10372,73.0,0.0,90.0,7.0,0.0
10373,75.0,0.0,90.0,7.0,0.0
10374,75.0,80.0,90.0,8.0,0.0
10375,77.0,0.0,90.0,7.0,0.0
10376,77.0,360.0,90.0,8.0,0.0
10377,78.0,0.0,720.0,7.0,0.0
10378,66.0,0.0,720.0,2.0,0.0
10379,42.0,0.0,720.0,12.0,0.0
10380,66.0,120.0,720.0,5.0,0.0
10381,54.0,360.0,360.0,6.0,0.0
10382,54.0,0.0,720.0,11.0,0.0
10383,54.0,0.0,720.0,2.0,0.0
10384,54.0,0.0,720.0,3.0,0.0
10385,78.0,0.0,720.0,0.0,0.0
10386,66.0,0.0,720.0,10.0,0.0
10387,78.0,0.0,720.0,1.0,0.0
10388,54.0,0.0,720.0,4.0,0.0
10389,78.0,0.0,15.0,8.0,0.0
10390,78.0,0.0,120.0,7.0,0.0
10391,80.0,240.0,120.0,8.0,0.0
10392,80.0,0.0,120.0,7.0,0.0
10393,58.0,0.0,360.0,4.0,0.0
10394,58.0,0.0,360.0,2.0,0.0
10395,70.0,0.0,360.0,10.0,0.0
10396,82.0,0.0,360.0,1.0,0.0
10397,46.0,0.0,360.0,12.0,0.0
10398,58.0,0.0,360.0,3.0,0.0
10399,70.0,120.0,360.0,2.0,0.0
10400,82.0,0.0,360.0,0.0,0.0
10401,70.0,0.0,360.0,5.0,0.0
10402,58.0,0.0,360.0,11.0,0.0
10403,82.0,0.0,15.0,8.0,0.0
10404,82.0,120.0,15.0,7.0,0.0
10405,83.0,0.0,120.0,8.0,0.0
10406,83.0,240.0,120.0,7.0,0.0
10407,85.0,0.0,360.0,0.0,0.0
10408,61.0,0.0,360.0,2.0,0.0
10409,73.0,0.0,360.0,10.0,0.0
10410,49.0,0.0,360.0,12.0,0.0
10411,85.0,80.0,240.0,8.0,0.0
10412,85.0,0.0,360.0,1.0,0.0
10413,73.0,0.0,360.0,5.0,0.0
10414,73.0,0.0,360.0,2.0,0.0
10415,61.0,0.0,360.0,11.0,0.0
10416,85.0,0.0,240.0,7.0,0.0
10417,61.0,40.0,360.0,4.0,0.0
10418,61.0,0.0,360.0,3.0,0.0
10419,85.0,0.0,90.0,7.0,0.0
10420,85.0,40.0,90.0,8.0,0.0
10421,87.0,80.0,90.0,8.0,0.0
10422,87.0,0.0,90.0,7.0,0.0
10423,89.0,360.0,90.0,7.0,0.0
10424,89.0,0.0,90.0,8.0,0.0
10425,66.0,0.0,360.0,11.0,0.0
10426,66.0,0.0,360.0,4.0,0.0
10427,90.0,0.0,360.0,0.0,0.0
10428,78.0,0.0,360.0,10.0,0.0
10429,54.0,0.0,360.0,12.0,0.0
10430,90.0,0.0,480.0,8.0,0.0
10431,54.0,0.0,360.0,6.0,0.0
10432,66.0,120.0,360.0,3.0,0.0
10433,90.0,0.0,360.0,1.0,0.0
10434,66.0,0.0,360.0,2.0,0.0
10435,78.0,0.0,360.0,2.0,0.0
10436,78.0,0.0,360.0,5.0,0.0
10437,73.0,0.0,360.0,8.0,0.0
10438,66.0,0.0,360.0,8.0,0.0
10439,66.0,0.0,360.0,4.0,0.0
10440,54.0,0.0,360.0,4.0,0.0
10441,78.0,0.0,360.0,1.0,0.0
10442,82.0,480.0,360.0,1.0,0.0
10443,82.0,0.0,360.0,8.0,0.0
10444,66.0,0.0,360.0,7.0,0.0
10445,58.0,0.0,360.0,2.0,0.0
10446,90.0,360.0,15.0,7.0,0.0
10447,82.0,0.0,360.0,0.0,0.0
10448,66.0,0.0,360.0,3.0,0.0
10449,70.0,0.0,360.0,5.0,0.0
10450,66.0,0.0,360.0,11.0,0.0
10451,73.0,0.0,360.0,5.0,0.0
10452,54.0,0.0,360.0,12.0,0.0
10453,80.0,0.0,360.0,10.0,0.0
10454,61.0,0.0,360.0,2.0,0.0
10455,54.0,0.0,360.0,6.0,0.0
10456,78.0,0.0,360.0,7.0,0.0
10457,90.0,0.0,360.0,0.0,0.0
10458,73.0,0.0,360.0,5.0,0.0
10459,49.0,0.0,360.0,12.0,0.0
10460,82.0,0.0,360.0,1.0,0.0
10461,61.0,0.0,360.0,2.0,0.0
10462,58.0,0.0,360.0,2.0,0.0
10463,78.0,0.0,360.0,1.0,0.0
10464,54.0,0.0,360.0,6.0,0.0
10465,54.0,0.0,360.0,4.0,0.0
10466,61.0,0.0,360.0,3.0,0.0
10467,66.0,0.0,360.0,7.0,0.0
10468,73.0,0.0,360.0,10.0,0.0
10469,70.0,0.0,360.0,5.0,0.0
10470,66.0,0.0,360.0,4.0,0.0
10471,78.0,480.0,360.0,7.0,0.0
10472,82.0,0.0,360.0,0.0,0.0
10473,90.0,0.0,360.0,0.0,0.0
10474,90.0,0.0,360.0,7.0,0.0
10475,82.0,0.0,360.0,8.0,0.0
10476,73.0,0.0,360.0,8.0,0.0
10477,66.0,0.0,360.0,8.0,0.0
10478,61.0,0.0,360.0,11.0,0.0
10479,78.0,0.0,360.0,1.0,0.0
10480,82.0,0.0,360.0,1.0,0.0
10481,82.0,0.0,360.0,0.0,0.0
10482,58.0,0.0,360.0,3.0,0.0
10483,70.0,0.0,360.0,5.0,0.0
10484,73.0,0.0,360.0,5.0,0.0
10485,54.0,0.0,360.0,6.0,0.0
10486,66.0,0.0,360.0,4.0,0.0
10487,70.0,0.0,360.0,10.0,0.0
10488,46.0,0.0,360.0,12.0,0.0
10489,66.0,0.0,360.0,7.0,0.0
10490,78.0,0.0,360.0,7.0,0.0
10491,90.0,0.0,360.0,0.0,0.0
10492,82.0,0.0,360.0,8.0,0.0
10493,90.0,0.0,360.0,7.0,0.0
10494,66.0,0.0,360.0,8.0,0.0
10495,54.0,0.0,360.0,4.0,0.0
10496,58.0,0.0,360.0,2.0,0.0
10497,61.0,480.0,360.0,2.0,0.0
10498,58.0,0.0,360.0,11.0,0.0
10499,73.0,0.0,360.0,8.0,0.0
10500,82.0,0.0,720.0,0.0,0.0
10501,90.0,0.0,720.0,0.0,0.0
10502,66.0,0.0,720.0,4.0,0.0
10503,54.0,0.0,720.0,4.0,0.0
10504,61.0,0.0,720.0,2.0,0.0
10505,54.0,0.0,720.0,6.0,0.0
10506,66.0,0.0,720.0,10.0,0.0
10507,66.0,0.0,360.0,7.0,0.0
10508,78.0,360.0,360.0,7.0,0.0
10509,90.0,0.0,720.0,7.0,0.0
10510,58.0,0.0,720.0,2.0,0.0
10511,54.0,0.0,720.0,11.0,0.0
10512,82.0,0.0,720.0,1.0,0.0
10513,42.0,0.0,720.0,12.0,0.0
10514,73.0,0.0,360.0,8.0,0.0
10515,66.0,0.0,360.0,8.0,0.0
10516,73.0,0.0,720.0,5.0,0.0
10517,82.0,0.0,720.0,8.0,0.0
10518,78.0,600.0,720.0,1.0,0.0
10519,70.0,0.0,720.0,5.0,0.0
10520,54.0,0.0,720.0,3.0,0.0
10521,54.0,0.0,720.0,11.0,0.0
10522,70.0,0.0,720.0,5.0,0.0
10523,54.0,0.0,720.0,6.0,0.0
10524,42.0,0.0,720.0,12.0,0.0
10525,58.0,0.0,720.0,2.0,0.0
10526,61.0,0.0,720.0,2.0,0.0
10527,90.0,0.0,720.0,0.0,0.0
10528,82.0,0.0,720.0,8.0,0.0
10529,73.0,0.0,360.0,8.0,0.0
10530,82.0,0.0,720.0,0.0,0.0
10531,54.0,0.0,720.0,4.0,0.0
10532,66.0,0.0,720.0,4.0,0.0
10533,66.0,0.0,720.0,10.0,0.0
10534,82.0,0.0,720.0,1.0,0.0
10535,73.0,0.0,720.0,5.0,0.0
10536,54.0,0.0,720.0,3.0,0.0
10537,66.0,0.0,360.0,8.0,0.0
10538,66.0,360.0,360.0,7.0,0.0
10539,78.0,0.0,360.0,7.0,0.0
10540,90.0,600.0,720.0,7.0,0.0
10541,78.0,0.0,720.0,1.0,0.0
10542,70.0,0.0,720.0,5.0,0.0
10543,73.0,0.0,720.0,5.0,0.0
10544,61.0,0.0,720.0,2.0,0.0
10545,58.0,0.0,720.0,2.0,0.0
10546,54.0,0.0,720.0,3.0,0.0
10547,66.0,360.0,360.0,7.0,0.0
10548,54.0,0.0,720.0,6.0,0.0
10549,66.0,0.0,360.0,8.0,0.0
10550,73.0,0.0,360.0,8.0,0.0
10551,82.0,0.0,720.0,0.0,0.0
10552,90.0,0.0,720.0,0.0,0.0
10553,42.0,0.0,720.0,12.0,0.0
10554,78.0,0.0,360.0,7.0,0.0
10555,90.0,0.0,720.0,7.0,0.0
10556,66.0,0.0,720.0,10.0,0.0
10557,54.0,0.0,720.0,4.0,0.0
10558,66.0,0.0,720.0,4.0,0.0
10559,78.0,0.0,720.0,1.0,0.0
10560,54.0,0.0,720.0,11.0,0.0
10561,82.0,0.0,720.0,8.0,0.0
10562,82.0,0.0,720.0,1.0,0.0
