,note,step,duration,channel,velocity
0,44.0,10.0,90.0,0.0,0.0
1,56.0,25.0,90.0,0.0,0.0
2,51.0,2.0,90.0,0.0,0.0
3,72.0,2.0,210.0,1.0,0.0
4,63.0,13.0,240.0,1.0,0.0
5,44.0,2.0,210.0,1.0,0.0
6,56.0,1.0,210.0,1.0,0.0
7,60.0,39.0,40.0,0.0,0.0
8,72.0,4.0,40.0,0.0,0.0
9,68.0,0.0,40.0,0.0,0.0
10,60.0,58.0,90.0,0.0,0.0
11,68.0,0.0,90.0,0.0,0.0
12,72.0,2.0,90.0,0.0,0.0
13,44.0,39.0,30.0,0.0,0.0
14,48.0,3.0,90.0,0.0,0.0
15,72.0,6.0,90.0,0.0,0.0
16,60.0,0.0,90.0,0.0,0.0
17,68.0,49.0,90.0,0.0,0.0
18,46.0,3.0,15.0,0.0,0.0
19,44.0,33.0,15.0,0.0,0.0
20,63.0,2.0,90.0,1.0,0.0
21,48.0,6.0,90.0,0.0,0.0
22,72.0,11.0,120.0,1.0,0.0
23,44.0,46.0,120.0,1.0,0.0
24,56.0,1.0,90.0,1.0,0.0
25,60.0,1.0,40.0,0.0,0.0
26,72.0,1.0,30.0,0.0,0.0
27,68.0,8.0,40.0,0.0,0.0
28,46.0,0.0,15.0,0.0,0.0
29,44.0,1.0,15.0,0.0,0.0
30,72.0,29.0,60.0,0.0,0.0
31,51.0,1.0,180.0,1.0,0.0
32,60.0,5.0,60.0,0.0,0.0
33,56.0,7.0,120.0,1.0,0.0
34,72.0,46.0,120.0,1.0,0.0
35,63.0,3.0,240.0,1.0,0.0
36,39.0,7.0,40.0,0.0,0.0
37,68.0,0.0,60.0,0.0,0.0
38,51.0,13.0,60.0,0.0,0.0
39,27.0,3.0,40.0,0.0,0.0
40,39.0,1.0,40.0,0.0,0.0
41,73.0,5.0,15.0,0.0,0.0
42,70.0,9.0,15.0,0.0,0.0
43,72.0,6.0,15.0,0.0,0.0
44,63.0,3.0,60.0,0.0,0.0
45,67.0,3.0,60.0,0.0,0.0
46,70.0,4.0,90.0,1.0,0.0
47,51.0,4.0,40.0,0.0,0.0
48,39.0,1.0,40.0,0.0,0.0
49,55.0,0.0,60.0,1.0,0.0
50,75.0,6.0,30.0,0.0,0.0
51,70.0,21.0,15.0,0.0,0.0
52,68.0,19.0,40.0,1.0,0.0
53,65.0,2.0,15.0,1.0,0.0
54,53.0,5.0,15.0,1.0,0.0
55,53.0,1.0,15.0,0.0,0.0
56,41.0,1.0,15.0,0.0,0.0
57,68.0,2.0,15.0,0.0,0.0
58,77.0,3.0,15.0,0.0,0.0
59,43.0,13.0,40.0,0.0,0.0
60,55.0,3.0,40.0,0.0,0.0
61,79.0,3.0,20.0,0.0,0.0
62,67.0,11.0,30.0,0.0,0.0
63,52.0,4.0,60.0,1.0,0.0
64,72.0,1.0,30.0,0.0,0.0
65,67.0,3.0,60.0,1.0,0.0
66,70.0,2.0,30.0,0.0,0.0
67,41.0,2.0,20.0,0.0,0.0
68,53.0,8.0,20.0,0.0,0.0
69,72.0,1.0,60.0,1.0,0.0
70,60.0,1.0,40.0,0.0,0.0
71,70.0,2.0,40.0,0.0,0.0
72,67.0,8.0,40.0,0.0,0.0
73,48.0,0.0,60.0,1.0,0.0
74,64.0,0.0,60.0,1.0,0.0
75,52.0,5.0,40.0,0.0,0.0
76,40.0,1.0,40.0,0.0,0.0
77,36.0,58.0,15.0,0.0,0.0
78,48.0,0.0,15.0,0.0,0.0
79,68.0,1.0,60.0,0.0,0.0
80,65.0,6.0,60.0,0.0,0.0
81,60.0,3.0,60.0,0.0,0.0
82,53.0,2.0,60.0,0.0,0.0
83,53.0,2.0,120.0,1.0,0.0
84,60.0,4.0,60.0,1.0,0.0
85,41.0,2.0,90.0,0.0,0.0
86,68.0,5.0,20.0,1.0,0.0
87,67.0,7.0,15.0,0.0,0.0
88,70.0,1.0,15.0,0.0,0.0
89,58.0,2.0,30.0,1.0,0.0
90,72.0,9.0,20.0,1.0,0.0
91,68.0,2.0,15.0,0.0,0.0
92,72.0,0.0,15.0,0.0,0.0
93,41.0,8.0,15.0,0.0,0.0
94,41.0,6.0,90.0,0.0,0.0
95,61.0,24.0,120.0,1.0,0.0
96,41.0,3.0,120.0,1.0,0.0
97,56.0,43.0,15.0,1.0,0.0
98,73.0,47.0,150.0,1.0,0.0
99,68.0,18.0,60.0,0.0,0.0
100,61.0,2.0,40.0,0.0,0.0
101,73.0,5.0,40.0,0.0,0.0
102,73.0,4.0,40.0,0.0,0.0
103,63.0,18.0,15.0,0.0,0.0
104,39.0,12.0,15.0,0.0,0.0
105,65.0,5.0,15.0,0.0,0.0
106,41.0,3.0,15.0,0.0,0.0
107,58.0,12.0,30.0,0.0,0.0
108,63.0,4.0,120.0,1.0,0.0
109,58.0,6.0,90.0,1.0,0.0
110,43.0,36.0,120.0,1.0,0.0
111,43.0,7.0,90.0,0.0,0.0
112,63.0,1.0,40.0,0.0,0.0
113,73.0,8.0,60.0,1.0,0.0
114,73.0,3.0,40.0,0.0,0.0
115,70.0,2.0,40.0,0.0,0.0
116,41.0,0.0,15.0,0.0,0.0
117,43.0,3.0,15.0,0.0,0.0
118,44.0,46.0,40.0,0.0,0.0
119,58.0,48.0,120.0,1.0,0.0
120,44.0,2.0,120.0,1.0,0.0
121,63.0,4.0,90.0,0.0,0.0
122,63.0,4.0,120.0,1.0,0.0
123,73.0,2.0,120.0,1.0,0.0
124,73.0,2.0,90.0,0.0,0.0
125,70.0,7.0,90.0,0.0,0.0
126,44.0,2.0,40.0,0.0,0.0
127,56.0,4.0,40.0,0.0,0.0
128,68.0,0.0,15.0,0.0,0.0
129,72.0,4.0,15.0,0.0,0.0
130,70.0,1.0,15.0,0.0,0.0
131,73.0,3.0,15.0,0.0,0.0
132,63.0,1.0,120.0,1.0,0.0
133,68.0,1.0,60.0,0.0,0.0
134,63.0,9.0,40.0,0.0,0.0
135,72.0,1.0,120.0,1.0,0.0
136,44.0,3.0,120.0,1.0,0.0
137,56.0,39.0,120.0,1.0,0.0
138,72.0,50.0,60.0,0.0,0.0
139,48.0,9.0,40.0,0.0,0.0
140,63.0,2.0,60.0,0.0,0.0
141,36.0,1.0,40.0,0.0,0.0
142,37.0,4.0,15.0,0.0,0.0
143,49.0,0.0,15.0,0.0,0.0
144,56.0,1.0,60.0,0.0,0.0
145,51.0,0.0,15.0,0.0,0.0
146,39.0,9.0,40.0,0.0,0.0
147,68.0,0.0,60.0,0.0,0.0
148,49.0,6.0,15.0,0.0,0.0
149,37.0,29.0,20.0,0.0,0.0
150,36.0,9.0,40.0,0.0,0.0
151,60.0,1.0,60.0,0.0,0.0
152,72.0,7.0,30.0,0.0,0.0
153,48.0,2.0,40.0,0.0,0.0
154,46.0,44.0,15.0,0.0,0.0
155,34.0,8.0,15.0,0.0,0.0
156,33.0,4.0,90.0,0.0,0.0
157,45.0,32.0,90.0,0.0,0.0
158,72.0,39.0,40.0,0.0,0.0
159,63.0,0.0,40.0,0.0,0.0
160,75.0,44.0,150.0,1.0,0.0
161,75.0,2.0,40.0,0.0,0.0
162,45.0,3.0,150.0,1.0,0.0
163,65.0,3.0,150.0,1.0,0.0
164,60.0,1.0,150.0,1.0,0.0
165,72.0,0.0,90.0,0.0,0.0
166,75.0,0.0,90.0,0.0,0.0
167,63.0,1.0,90.0,0.0,0.0
168,41.0,35.0,30.0,0.0,0.0
169,45.0,12.0,90.0,0.0,0.0
170,60.0,2.0,40.0,1.0,0.0
171,75.0,2.0,40.0,1.0,0.0
172,75.0,52.0,90.0,0.0,0.0
173,72.0,1.0,90.0,0.0,0.0
174,63.0,0.0,90.0,0.0,0.0
175,65.0,0.0,40.0,1.0,0.0
176,45.0,12.0,40.0,1.0,0.0
177,43.0,1.0,15.0,0.0,0.0
178,41.0,40.0,15.0,0.0,0.0
179,60.0,5.0,90.0,1.0,0.0
180,45.0,4.0,90.0,0.0,0.0
181,45.0,36.0,120.0,1.0,0.0
182,65.0,11.0,120.0,1.0,0.0
183,75.0,2.0,90.0,1.0,0.0
184,72.0,1.0,40.0,0.0,0.0
185,63.0,1.0,30.0,0.0,0.0
186,75.0,4.0,30.0,0.0,0.0
187,43.0,0.0,15.0,0.0,0.0
188,41.0,7.0,15.0,0.0,0.0
189,75.0,5.0,90.0,0.0,0.0
190,72.0,0.0,90.0,0.0,0.0
191,60.0,1.0,120.0,1.0,0.0
192,34.0,33.0,60.0,0.0,0.0
193,46.0,15.0,40.0,0.0,0.0
194,75.0,63.0,120.0,1.0,0.0
195,65.0,3.0,90.0,1.0,0.0
196,46.0,7.0,120.0,1.0,0.0
197,63.0,4.0,90.0,0.0,0.0
198,46.0,3.0,40.0,0.0,0.0
199,58.0,1.0,40.0,0.0,0.0
200,70.0,1.0,30.0,0.0,0.0
201,74.0,4.0,15.0,0.0,0.0
202,75.0,2.0,15.0,0.0,0.0
203,74.0,38.0,60.0,0.0,0.0
204,46.0,36.0,120.0,1.0,0.0
205,58.0,3.0,210.0,1.0,0.0
206,74.0,1.0,120.0,1.0,0.0
207,70.0,7.0,60.0,0.0,0.0
208,65.0,3.0,180.0,1.0,0.0
209,46.0,8.0,40.0,0.0,0.0
210,34.0,1.0,40.0,0.0,0.0
211,65.0,8.0,90.0,0.0,0.0
212,36.0,2.0,15.0,0.0,0.0
213,48.0,2.0,15.0,0.0,0.0
214,70.0,0.0,90.0,0.0,0.0
215,73.0,3.0,90.0,1.0,0.0
216,73.0,1.0,90.0,0.0,0.0
217,37.0,2.0,40.0,0.0,0.0
218,49.0,11.0,40.0,0.0,0.0
219,48.0,0.0,15.0,0.0,0.0
220,36.0,34.0,15.0,0.0,0.0
221,64.0,10.0,60.0,1.0,0.0
222,34.0,5.0,60.0,0.0,0.0
223,46.0,1.0,40.0,0.0,0.0
224,64.0,6.0,40.0,0.0,0.0
225,44.0,28.0,30.0,0.0,0.0
226,32.0,7.0,15.0,0.0,0.0
227,70.0,1.0,40.0,0.0,0.0
228,63.0,39.0,40.0,0.0,0.0
229,63.0,1.0,210.0,1.0,0.0
230,43.0,3.0,240.0,1.0,0.0
231,73.0,0.0,210.0,1.0,0.0
232,43.0,30.0,90.0,0.0,0.0
233,31.0,5.0,90.0,0.0,0.0
234,58.0,6.0,210.0,1.0,0.0
235,73.0,5.0,40.0,0.0,0.0
236,63.0,49.0,90.0,0.0,0.0
237,70.0,0.0,90.0,0.0,0.0
238,73.0,2.0,90.0,0.0,0.0
239,39.0,38.0,30.0,0.0,0.0
240,43.0,6.0,90.0,0.0,0.0
241,73.0,49.0,90.0,0.0,0.0
242,63.0,1.0,40.0,0.0,0.0
243,70.0,2.0,40.0,0.0,0.0
244,41.0,9.0,20.0,0.0,0.0
245,39.0,46.0,15.0,0.0,0.0
246,43.0,43.0,120.0,1.0,0.0
247,43.0,7.0,90.0,0.0,0.0
248,73.0,0.0,90.0,1.0,0.0
249,70.0,0.0,40.0,0.0,0.0
250,63.0,0.0,90.0,1.0,0.0
251,58.0,0.0,90.0,1.0,0.0
252,63.0,1.0,40.0,0.0,0.0
253,73.0,1.0,40.0,0.0,0.0
254,63.0,0.0,40.0,0.0,0.0
255,70.0,2.0,40.0,0.0,0.0
256,41.0,13.0,15.0,0.0,0.0
257,39.0,2.0,15.0,0.0,0.0
258,32.0,19.0,60.0,0.0,0.0
259,73.0,1.0,90.0,0.0,0.0
260,73.0,2.0,90.0,1.0,0.0
261,63.0,1.0,90.0,1.0,0.0
262,44.0,18.0,40.0,0.0,0.0
263,63.0,5.0,90.0,0.0,0.0
264,70.0,4.0,90.0,0.0,0.0
265,58.0,2.0,90.0,1.0,0.0
266,44.0,2.0,90.0,1.0,0.0
267,44.0,1.0,30.0,0.0,0.0
268,56.0,3.0,30.0,0.0,0.0
269,63.0,3.0,15.0,1.0,0.0
270,72.0,3.0,15.0,0.0,0.0
271,68.0,0.0,20.0,0.0,0.0
272,58.0,2.0,20.0,1.0,0.0
273,73.0,0.0,20.0,1.0,0.0
274,44.0,4.0,15.0,1.0,0.0
275,73.0,2.0,15.0,0.0,0.0
276,70.0,113.0,15.0,0.0,0.0
277,63.0,3.0,120.0,1.0,0.0
278,68.0,2.0,210.0,0.0,0.0
279,72.0,11.0,210.0,0.0,0.0
280,44.0,7.0,120.0,1.0,0.0
281,56.0,30.0,120.0,1.0,0.0
282,72.0,3.0,120.0,1.0,0.0
283,60.0,3.0,210.0,0.0,0.0
284,44.0,7.0,60.0,0.0,0.0
285,32.0,2.0,40.0,0.0,0.0
286,34.0,2.0,15.0,0.0,0.0
287,46.0,0.0,15.0,0.0,0.0
288,48.0,22.0,40.0,0.0,0.0
289,36.0,0.0,40.0,0.0,0.0
290,37.0,0.0,20.0,0.0,0.0
291,49.0,21.0,20.0,0.0,0.0
292,39.0,12.0,40.0,0.0,0.0
293,51.0,3.0,40.0,0.0,0.0
294,41.0,9.0,15.0,0.0,0.0
295,53.0,33.0,20.0,0.0,0.0
296,54.0,41.0,120.0,1.0,0.0
297,72.0,5.0,90.0,1.0,0.0
298,56.0,4.0,90.0,1.0,0.0
299,68.0,2.0,40.0,0.0,0.0
300,72.0,1.0,40.0,0.0,0.0
301,42.0,4.0,90.0,0.0,0.0
302,54.0,12.0,90.0,0.0,0.0
303,63.0,6.0,120.0,1.0,0.0
304,80.0,39.0,40.0,0.0,0.0
305,72.0,0.0,90.0,0.0,0.0
306,80.0,1.0,90.0,0.0,0.0
307,68.0,7.0,90.0,0.0,0.0
308,42.0,0.0,15.0,0.0,0.0
309,63.0,25.0,60.0,1.0,0.0
310,42.0,5.0,90.0,0.0,0.0
311,54.0,3.0,40.0,1.0,0.0
312,56.0,6.0,30.0,1.0,0.0
313,72.0,1.0,40.0,1.0,0.0
314,63.0,1.0,40.0,1.0,0.0
315,54.0,6.0,40.0,1.0,0.0
316,68.0,16.0,15.0,0.0,0.0
317,72.0,1.0,40.0,0.0,0.0
318,80.0,1.0,40.0,0.0,0.0
319,72.0,1.0,40.0,1.0,0.0
320,56.0,5.0,40.0,1.0,0.0
321,68.0,0.0,15.0,0.0,0.0
322,41.0,1.0,15.0,0.0,0.0
323,42.0,50.0,15.0,0.0,0.0
324,72.0,1.0,40.0,1.0,0.0
325,54.0,0.0,40.0,1.0,0.0
326,63.0,0.0,40.0,1.0,0.0
327,42.0,9.0,90.0,0.0,0.0
328,68.0,4.0,40.0,0.0,0.0
329,56.0,28.0,40.0,1.0,0.0
330,72.0,7.0,15.0,1.0,0.0
331,63.0,5.0,20.0,1.0,0.0
332,68.0,1.0,40.0,0.0,0.0
333,54.0,0.0,15.0,1.0,0.0
334,56.0,0.0,15.0,1.0,0.0
335,80.0,0.0,40.0,0.0,0.0
336,72.0,5.0,40.0,0.0,0.0
337,56.0,4.0,15.0,1.0,0.0
338,72.0,4.0,20.0,1.0,0.0
339,54.0,1.0,20.0,1.0,0.0
340,63.0,3.0,15.0,1.0,0.0
341,41.0,1.0,15.0,0.0,0.0
342,42.0,42.0,15.0,0.0,0.0
343,63.0,1.0,60.0,1.0,0.0
344,56.0,0.0,120.0,1.0,0.0
345,68.0,7.0,360.0,0.0,0.0
346,53.0,6.0,60.0,1.0,0.0
347,80.0,1.0,330.0,0.0,0.0
348,72.0,28.0,60.0,0.0,0.0
349,41.0,17.0,40.0,0.0,0.0
350,72.0,3.0,60.0,1.0,0.0
351,73.0,3.0,40.0,0.0,0.0
352,41.0,9.0,30.0,0.0,0.0
353,61.0,3.0,40.0,1.0,0.0
354,53.0,2.0,40.0,1.0,0.0
355,53.0,1.0,30.0,0.0,0.0
356,73.0,113.0,60.0,1.0,0.0
357,61.0,0.0,240.0,1.0,0.0
358,53.0,1.0,210.0,1.0,0.0
359,56.0,3.0,210.0,1.0,0.0
360,73.0,3.0,210.0,1.0,0.0
361,73.0,7.0,210.0,0.0,0.0
362,41.0,8.0,60.0,0.0,0.0
363,29.0,8.0,40.0,0.0,0.0
364,32.0,1.0,15.0,0.0,0.0
365,44.0,42.0,15.0,0.0,0.0
366,37.0,14.0,40.0,0.0,0.0
367,49.0,3.0,40.0,0.0,0.0
368,48.0,4.0,15.0,0.0,0.0
369,36.0,27.0,20.0,0.0,0.0
370,37.0,0.0,40.0,0.0,0.0
371,49.0,2.0,40.0,0.0,0.0
372,51.0,43.0,15.0,0.0,0.0
373,39.0,4.0,15.0,0.0,0.0
374,73.0,2.0,90.0,1.0,0.0
375,68.0,2.0,40.0,0.0,0.0
376,80.0,1.0,40.0,0.0,0.0
377,56.0,4.0,120.0,1.0,0.0
378,52.0,40.0,120.0,1.0,0.0
379,73.0,34.0,40.0,0.0,0.0
380,40.0,2.0,90.0,0.0,0.0
381,52.0,20.0,90.0,0.0,0.0
382,61.0,1.0,90.0,1.0,0.0
383,68.0,0.0,90.0,0.0,0.0
384,73.0,1.0,90.0,0.0,0.0
385,80.0,1.0,90.0,0.0,0.0
386,40.0,2.0,15.0,0.0,0.0
387,73.0,5.0,30.0,1.0,0.0
388,52.0,24.0,40.0,1.0,0.0
389,61.0,10.0,40.0,1.0,0.0
390,40.0,4.0,90.0,0.0,0.0
391,56.0,3.0,30.0,1.0,0.0
392,52.0,5.0,40.0,1.0,0.0
393,73.0,5.0,40.0,1.0,0.0
394,56.0,2.0,40.0,1.0,0.0
395,61.0,1.0,40.0,1.0,0.0
396,68.0,18.0,15.0,0.0,0.0
397,80.0,3.0,90.0,0.0,0.0
398,73.0,0.0,120.0,0.0,0.0
399,39.0,1.0,15.0,0.0,0.0
400,68.0,2.0,15.0,0.0,0.0
401,40.0,50.0,15.0,0.0,0.0
402,52.0,24.0,40.0,1.0,0.0
403,40.0,5.0,90.0,0.0,0.0
404,56.0,0.0,40.0,1.0,0.0
405,61.0,0.0,40.0,1.0,0.0
406,73.0,3.0,40.0,1.0,0.0
407,68.0,2.0,40.0,0.0,0.0
408,73.0,4.0,30.0,0.0,0.0
409,61.0,0.0,15.0,1.0,0.0
410,73.0,13.0,15.0,1.0,0.0
411,52.0,2.0,15.0,1.0,0.0
412,80.0,4.0,40.0,0.0,0.0
413,56.0,1.0,15.0,1.0,0.0
414,68.0,0.0,30.0,0.0,0.0
415,61.0,41.0,30.0,1.0,0.0
416,56.0,11.0,15.0,1.0,0.0
417,39.0,2.0,15.0,0.0,0.0
418,52.0,0.0,30.0,1.0,0.0
419,73.0,1.0,15.0,1.0,0.0
420,40.0,5.0,15.0,0.0,0.0
421,68.0,14.0,360.0,0.0,0.0
422,73.0,14.0,90.0,1.0,0.0
423,80.0,4.0,330.0,0.0,0.0
424,73.0,30.0,40.0,0.0,0.0
425,56.0,2.0,120.0,1.0,0.0
426,63.0,1.0,120.0,1.0,0.0
427,51.0,15.0,120.0,1.0,0.0
428,39.0,7.0,40.0,0.0,0.0
429,72.0,98.0,60.0,1.0,0.0
430,51.0,9.0,40.0,0.0,0.0
431,39.0,3.0,30.0,0.0,0.0
432,72.0,4.0,40.0,0.0,0.0
433,71.0,4.0,210.0,0.0,0.0
434,71.0,3.0,210.0,1.0,0.0
435,51.0,37.0,240.0,1.0,0.0
436,56.0,0.0,210.0,1.0,0.0
437,63.0,0.0,240.0,1.0,0.0
438,39.0,11.0,40.0,0.0,0.0
439,51.0,1.0,40.0,0.0,0.0
440,55.0,3.0,15.0,0.0,0.0
441,43.0,41.0,15.0,0.0,0.0
442,56.0,22.0,40.0,0.0,0.0
443,44.0,1.0,40.0,0.0,0.0
444,55.0,1.0,20.0,0.0,0.0
445,43.0,26.0,20.0,0.0,0.0
446,56.0,4.0,40.0,0.0,0.0
447,44.0,0.0,40.0,0.0,0.0
448,47.0,1.0,15.0,0.0,0.0
449,59.0,0.0,15.0,0.0,0.0
450,68.0,24.0,60.0,0.0,0.0
451,38.0,2.0,40.0,0.0,0.0
452,56.0,5.0,210.0,1.0,0.0
453,50.0,34.0,40.0,0.0,0.0
454,65.0,9.0,180.0,1.0,0.0
455,80.0,1.0,60.0,0.0,0.0
456,50.0,2.0,210.0,1.0,0.0
457,71.0,0.0,60.0,0.0,0.0
458,71.0,1.0,210.0,1.0,0.0
459,38.0,3.0,40.0,0.0,0.0
460,50.0,0.0,40.0,0.0,0.0
461,80.0,60.0,15.0,0.0,0.0
462,71.0,2.0,15.0,0.0,0.0
463,71.0,2.0,90.0,0.0,0.0
464,80.0,10.0,90.0,0.0,0.0
465,38.0,1.0,40.0,0.0,0.0
466,50.0,24.0,40.0,0.0,0.0
467,50.0,1.0,40.0,0.0,0.0
468,38.0,2.0,40.0,0.0,0.0
469,79.0,2.0,15.0,0.0,0.0
470,56.0,8.0,15.0,1.0,0.0
471,71.0,1.0,15.0,1.0,0.0
472,50.0,1.0,20.0,1.0,0.0
473,65.0,1.0,20.0,1.0,0.0
474,70.0,1.0,15.0,0.0,0.0
475,80.0,42.0,15.0,0.0,0.0
476,71.0,0.0,15.0,0.0,0.0
477,80.0,7.0,90.0,0.0,0.0
478,65.0,5.0,120.0,1.0,0.0
479,38.0,4.0,40.0,0.0,0.0
480,56.0,0.0,120.0,1.0,0.0
481,71.0,3.0,90.0,1.0,0.0
482,50.0,101.0,120.0,1.0,0.0
483,71.0,7.0,90.0,0.0,0.0
484,50.0,43.0,40.0,0.0,0.0
485,38.0,5.0,40.0,0.0,0.0
486,50.0,0.0,40.0,0.0,0.0
487,79.0,5.0,15.0,0.0,0.0
488,70.0,1.0,15.0,0.0,0.0
489,80.0,5.0,15.0,0.0,0.0
490,71.0,0.0,15.0,0.0,0.0
491,71.0,2.0,120.0,0.0,0.0
492,80.0,1.0,90.0,0.0,0.0
493,51.0,4.0,120.0,1.0,0.0
494,71.0,108.0,120.0,1.0,0.0
495,39.0,3.0,90.0,0.0,0.0
496,63.0,1.0,120.0,1.0,0.0
497,56.0,1.0,120.0,1.0,0.0
498,51.0,5.0,120.0,0.0,0.0
499,39.0,2.0,120.0,0.0,0.0
500,75.0,1.0,120.0,0.0,0.0
501,70.0,4.0,120.0,0.0,0.0
502,79.0,0.0,120.0,0.0,0.0
503,70.0,3.0,120.0,1.0,0.0
504,55.0,188.0,150.0,1.0,0.0
505,27.0,5.0,120.0,0.0,0.0
506,63.0,4.0,120.0,1.0,0.0
507,51.0,9.0,120.0,1.0,0.0
508,51.0,4.0,90.0,0.0,0.0
509,75.0,10.0,90.0,0.0,0.0
510,50.0,6.0,15.0,0.0,0.0
511,74.0,16.0,15.0,0.0,0.0
512,51.0,113.0,15.0,0.0,0.0
513,75.0,2.0,15.0,0.0,0.0
514,67.0,1.0,120.0,0.0,0.0
515,79.0,200.0,120.0,0.0,0.0
516,55.0,4.0,120.0,0.0,0.0
517,79.0,11.0,90.0,0.0,0.0
518,55.0,10.0,90.0,0.0,0.0
519,53.0,2.0,15.0,0.0,0.0
520,77.0,12.0,15.0,0.0,0.0
521,79.0,120.0,15.0,0.0,0.0
522,55.0,4.0,15.0,0.0,0.0
523,58.0,2.0,120.0,0.0,0.0
524,82.0,86.0,120.0,0.0,0.0
525,70.0,1.0,120.0,0.0,0.0
526,51.0,1.0,30.0,1.0,0.0
527,70.0,19.0,60.0,1.0,0.0
528,55.0,9.0,30.0,1.0,0.0
529,63.0,18.0,40.0,1.0,0.0
530,63.0,4.0,240.0,1.0,0.0
531,63.0,5.0,240.0,0.0,0.0
532,55.0,8.0,240.0,1.0,0.0
533,75.0,15.0,240.0,1.0,0.0
534,39.0,2.0,15.0,0.0,0.0
535,75.0,2.0,210.0,0.0,0.0
536,51.0,8.0,240.0,1.0,0.0
537,51.0,65.0,15.0,0.0,0.0
538,39.0,3.0,20.0,0.0,0.0
539,51.0,60.0,30.0,0.0,0.0
540,39.0,58.0,30.0,0.0,0.0
541,51.0,2.0,30.0,0.0,0.0
542,39.0,2.0,30.0,0.0,0.0
543,51.0,16.0,30.0,0.0,0.0
544,51.0,1.0,90.0,1.0,0.0
545,68.0,1.0,90.0,0.0,0.0
546,74.0,34.0,120.0,1.0,0.0
547,74.0,20.0,90.0,0.0,0.0
548,65.0,3.0,120.0,1.0,0.0
549,65.0,1.0,90.0,0.0,0.0
550,39.0,61.0,30.0,0.0,0.0
551,56.0,2.0,120.0,1.0,0.0
552,51.0,0.0,30.0,0.0,0.0
553,51.0,6.0,30.0,0.0,0.0
554,39.0,2.0,30.0,0.0,0.0
555,51.0,1.0,40.0,0.0,0.0
556,67.0,4.0,120.0,1.0,0.0
557,58.0,2.0,120.0,1.0,0.0
558,70.0,9.0,120.0,0.0,0.0
559,67.0,5.0,90.0,0.0,0.0
560,73.0,6.0,90.0,0.0,0.0
561,73.0,32.0,120.0,1.0,0.0
562,51.0,9.0,210.0,1.0,0.0
563,39.0,55.0,40.0,0.0,0.0
564,51.0,3.0,30.0,0.0,0.0
565,39.0,1.0,30.0,0.0,0.0
566,39.0,54.0,40.0,0.0,0.0
567,63.0,4.0,90.0,0.0,0.0
568,68.0,4.0,120.0,1.0,0.0
569,56.0,2.0,120.0,1.0,0.0
570,72.0,10.0,120.0,0.0,0.0
571,51.0,2.0,30.0,0.0,0.0
572,68.0,0.0,90.0,0.0,0.0
573,72.0,33.0,120.0,1.0,0.0
574,39.0,2.0,30.0,0.0,0.0
575,51.0,2.0,30.0,0.0,0.0
576,68.0,2.0,90.0,0.0,0.0
577,63.0,2.0,90.0,0.0,0.0
578,51.0,1.0,40.0,0.0,0.0
579,51.0,0.0,90.0,1.0,0.0
580,39.0,45.0,40.0,0.0,0.0
581,68.0,98.0,90.0,1.0,0.0
582,63.0,3.0,90.0,1.0,0.0
583,60.0,1.0,90.0,1.0,0.0
584,51.0,1.0,30.0,0.0,0.0
585,39.0,8.0,20.0,0.0,0.0
586,63.0,3.0,90.0,1.0,0.0
587,51.0,10.0,90.0,1.0,0.0
588,68.0,5.0,120.0,1.0,0.0
589,75.0,3.0,90.0,0.0,0.0
590,60.0,2.0,120.0,1.0,0.0
591,51.0,8.0,90.0,0.0,0.0
592,74.0,8.0,15.0,0.0,0.0
593,50.0,5.0,15.0,0.0,0.0
594,51.0,0.0,15.0,0.0,0.0
595,75.0,116.0,15.0,0.0,0.0
596,67.0,3.0,120.0,1.0,0.0
597,67.0,1.0,120.0,0.0,0.0
598,79.0,5.0,120.0,0.0,0.0
599,63.0,8.0,120.0,1.0,0.0
600,51.0,192.0,150.0,1.0,0.0
601,58.0,1.0,120.0,1.0,0.0
602,55.0,1.0,120.0,0.0,0.0
603,55.0,9.0,90.0,0.0,0.0
604,79.0,7.0,90.0,0.0,0.0
605,53.0,11.0,15.0,0.0,0.0
606,77.0,1.0,15.0,0.0,0.0
607,55.0,3.0,15.0,0.0,0.0
608,79.0,121.0,15.0,0.0,0.0
609,70.0,0.0,120.0,0.0,0.0
610,82.0,93.0,120.0,0.0,0.0
611,58.0,3.0,120.0,0.0,0.0
612,51.0,16.0,40.0,1.0,0.0
613,70.0,37.0,60.0,1.0,0.0
614,63.0,5.0,40.0,1.0,0.0
615,55.0,3.0,40.0,1.0,0.0
616,63.0,9.0,240.0,1.0,0.0
617,51.0,1.0,210.0,1.0,0.0
618,39.0,57.0,40.0,0.0,0.0
619,75.0,3.0,210.0,0.0,0.0
620,63.0,6.0,210.0,0.0,0.0
621,55.0,12.0,240.0,1.0,0.0
622,75.0,27.0,240.0,1.0,0.0
623,51.0,1.0,40.0,0.0,0.0
624,51.0,61.0,40.0,0.0,0.0
625,39.0,1.0,40.0,0.0,0.0
626,39.0,59.0,40.0,0.0,0.0
627,51.0,0.0,40.0,0.0,0.0
628,39.0,0.0,40.0,0.0,0.0
629,51.0,1.0,40.0,0.0,0.0
630,65.0,7.0,120.0,1.0,0.0
631,74.0,14.0,120.0,0.0,0.0
632,68.0,0.0,90.0,0.0,0.0
633,74.0,17.0,150.0,1.0,0.0
634,51.0,5.0,90.0,1.0,0.0
635,56.0,12.0,120.0,1.0,0.0
636,51.0,59.0,40.0,0.0,0.0
637,39.0,2.0,40.0,0.0,0.0
638,65.0,2.0,90.0,0.0,0.0
639,51.0,2.0,40.0,0.0,0.0
640,39.0,1.0,40.0,0.0,0.0
641,39.0,61.0,40.0,0.0,0.0
642,73.0,2.0,120.0,0.0,0.0
643,67.0,0.0,90.0,0.0,0.0
644,67.0,1.0,120.0,1.0,0.0
645,70.0,9.0,120.0,0.0,0.0
646,51.0,0.0,40.0,0.0,0.0
647,73.0,4.0,120.0,1.0,0.0
648,51.0,4.0,210.0,1.0,0.0
649,58.0,35.0,120.0,1.0,0.0
650,39.0,7.0,40.0,0.0,0.0
651,51.0,2.0,40.0,0.0,0.0
652,68.0,2.0,120.0,0.0,0.0
653,72.0,0.0,120.0,1.0,0.0
654,63.0,2.0,120.0,0.0,0.0
655,51.0,0.0,40.0,0.0,0.0
656,56.0,32.0,120.0,1.0,0.0
657,72.0,6.0,120.0,0.0,0.0
658,39.0,53.0,40.0,0.0,0.0
659,68.0,0.0,120.0,1.0,0.0
660,51.0,1.0,30.0,0.0,0.0
661,39.0,19.0,40.0,0.0,0.0
662,56.0,2.0,120.0,0.0,0.0
663,63.0,0.0,120.0,0.0,0.0
664,60.0,89.0,120.0,1.0,0.0
665,39.0,2.0,40.0,0.0,0.0
666,51.0,55.0,40.0,0.0,0.0
667,68.0,0.0,120.0,1.0,0.0
668,68.0,1.0,120.0,0.0,0.0
669,51.0,2.0,90.0,1.0,0.0
670,63.0,16.0,90.0,1.0,0.0
671,39.0,7.0,40.0,0.0,0.0
672,51.0,1.0,40.0,0.0,0.0
673,63.0,115.0,240.0,1.0,0.0
674,58.0,8.0,240.0,0.0,0.0
675,51.0,9.0,90.0,0.0,0.0
676,51.0,3.0,360.0,1.0,0.0
677,75.0,1.0,480.0,1.0,0.0
678,58.0,5.0,360.0,1.0,0.0
679,66.0,81.0,120.0,0.0,0.0
680,50.0,18.0,15.0,0.0,0.0
681,51.0,2.0,15.0,0.0,0.0
682,63.0,28.0,90.0,0.0,0.0
683,54.0,2.0,120.0,0.0,0.0
684,66.0,5.0,120.0,1.0,0.0
685,78.0,84.0,120.0,0.0,0.0
686,75.0,0.0,240.0,0.0,0.0
687,65.0,1.0,480.0,1.0,0.0
688,45.0,4.0,360.0,1.0,0.0
689,45.0,18.0,90.0,0.0,0.0
690,60.0,116.0,120.0,1.0,0.0
691,77.0,108.0,480.0,0.0,0.0
692,43.0,7.0,20.0,0.0,0.0
693,45.0,7.0,15.0,0.0,0.0
694,53.0,5.0,120.0,0.0,0.0
695,73.0,111.0,120.0,0.0,0.0
696,57.0,0.0,120.0,1.0,0.0
697,73.0,3.0,120.0,1.0,0.0
698,72.0,0.0,120.0,1.0,0.0
699,72.0,88.0,120.0,0.0,0.0
700,53.0,5.0,360.0,1.0,0.0
701,73.0,9.0,480.0,1.0,0.0
702,46.0,9.0,360.0,1.0,0.0
703,46.0,11.0,90.0,0.0,0.0
704,73.0,7.0,120.0,0.0,0.0
705,45.0,16.0,15.0,0.0,0.0
706,46.0,2.0,15.0,0.0,0.0
707,70.0,54.0,180.0,0.0,0.0
708,49.0,2.0,120.0,0.0,0.0
709,58.0,52.0,15.0,1.0,0.0
710,64.0,6.0,120.0,1.0,0.0
711,76.0,84.0,120.0,0.0,0.0
712,43.0,17.0,90.0,0.0,0.0
713,63.0,3.0,450.0,1.0,0.0
714,43.0,0.0,360.0,1.0,0.0
715,75.0,4.0,450.0,0.0,0.0
716,73.0,1.0,120.0,0.0,0.0
717,41.0,10.0,15.0,0.0,0.0
718,43.0,3.0,15.0,0.0,0.0
719,51.0,0.0,120.0,0.0,0.0
720,55.0,7.0,120.0,1.0,0.0
721,72.0,2.0,120.0,0.0,0.0
722,72.0,95.0,120.0,1.0,0.0
723,51.0,88.0,120.0,1.0,0.0
724,71.0,8.0,120.0,0.0,0.0
725,71.0,6.0,120.0,1.0,0.0
726,72.0,47.0,120.0,1.0,0.0
727,72.0,4.0,90.0,0.0,0.0
728,68.0,2.0,90.0,0.0,0.0
729,56.0,1.0,90.0,0.0,0.0
730,56.0,0.0,120.0,1.0,0.0
731,55.0,17.0,15.0,0.0,0.0
732,56.0,11.0,15.0,0.0,0.0
733,63.0,14.0,90.0,1.0,0.0
734,70.0,21.0,90.0,0.0,0.0
735,55.0,6.0,90.0,1.0,0.0
736,70.0,25.0,60.0,1.0,0.0
737,63.0,1.0,210.0,0.0,0.0
738,55.0,84.0,120.0,0.0,0.0
739,54.0,2.0,120.0,1.0,0.0
740,68.0,1.0,90.0,0.0,0.0
741,54.0,3.0,90.0,0.0,0.0
742,72.0,1.0,120.0,1.0,0.0
743,56.0,3.0,90.0,1.0,0.0
744,72.0,10.0,90.0,0.0,0.0
745,63.0,3.0,120.0,1.0,0.0
746,53.0,7.0,15.0,0.0,0.0
747,54.0,119.0,15.0,0.0,0.0
748,73.0,3.0,120.0,1.0,0.0
749,56.0,6.0,240.0,1.0,0.0
750,61.0,76.0,120.0,0.0,0.0
751,68.0,5.0,210.0,0.0,0.0
752,73.0,5.0,120.0,0.0,0.0
753,65.0,1.0,120.0,1.0,0.0
754,53.0,1.0,120.0,0.0,0.0
755,53.0,4.0,120.0,1.0,0.0
756,52.0,11.0,90.0,0.0,0.0
757,74.0,1.0,120.0,1.0,0.0
758,52.0,0.0,120.0,1.0,0.0
759,68.0,87.0,120.0,1.0,0.0
760,62.0,2.0,120.0,0.0,0.0
761,74.0,2.0,90.0,0.0,0.0
762,51.0,11.0,15.0,0.0,0.0
763,52.0,2.0,15.0,0.0,0.0
764,67.0,2.0,120.0,1.0,0.0
765,70.0,4.0,120.0,0.0,0.0
766,58.0,7.0,120.0,1.0,0.0
767,75.0,1.0,120.0,1.0,0.0
768,75.0,11.0,90.0,0.0,0.0
769,67.0,0.0,90.0,0.0,0.0
770,63.0,9.0,120.0,0.0,0.0
771,51.0,56.0,120.0,1.0,0.0
772,51.0,1.0,120.0,0.0,0.0
773,68.0,47.0,120.0,1.0,0.0
774,50.0,8.0,120.0,0.0,0.0
775,50.0,0.0,120.0,1.0,0.0
776,77.0,45.0,60.0,0.0,0.0
777,70.0,3.0,60.0,0.0,0.0
778,68.0,1.0,60.0,0.0,0.0
779,70.0,0.0,240.0,1.0,0.0
780,53.0,10.0,120.0,1.0,0.0
781,49.0,5.0,120.0,1.0,0.0
782,55.0,60.0,120.0,1.0,0.0
783,49.0,0.0,60.0,0.0,0.0
784,67.0,22.0,90.0,1.0,0.0
785,75.0,0.0,60.0,0.0,0.0
786,70.0,33.0,60.0,0.0,0.0
787,79.0,1.0,60.0,0.0,0.0
788,65.0,1.0,30.0,1.0,0.0
789,80.0,6.0,60.0,0.0,0.0
790,48.0,11.0,120.0,1.0,0.0
791,63.0,4.0,120.0,1.0,0.0
792,56.0,8.0,120.0,1.0,0.0
793,72.0,48.0,120.0,1.0,0.0
794,75.0,0.0,60.0,0.0,0.0
795,68.0,41.0,60.0,0.0,0.0
796,48.0,1.0,60.0,0.0,0.0
797,37.0,1.0,120.0,0.0,0.0
798,70.0,1.0,120.0,1.0,0.0
799,49.0,2.0,120.0,0.0,0.0
800,65.0,52.0,120.0,1.0,0.0
801,70.0,36.0,60.0,0.0,0.0
802,68.0,2.0,60.0,0.0,0.0
803,77.0,0.0,60.0,0.0,0.0
804,49.0,0.0,120.0,1.0,0.0
805,56.0,14.0,90.0,1.0,0.0
806,65.0,1.0,60.0,0.0,0.0
807,58.0,10.0,20.0,1.0,0.0
808,51.0,0.0,240.0,1.0,0.0
809,68.0,47.0,60.0,0.0,0.0
810,68.0,53.0,120.0,1.0,0.0
811,51.0,3.0,120.0,0.0,0.0
812,72.0,0.0,60.0,0.0,0.0
813,39.0,12.0,120.0,0.0,0.0
814,63.0,19.0,210.0,1.0,0.0
815,60.0,2.0,120.0,1.0,0.0
816,63.0,2.0,60.0,0.0,0.0
817,27.0,88.0,120.0,0.0,0.0
818,67.0,2.0,120.0,1.0,0.0
819,70.0,37.0,60.0,0.0,0.0
820,67.0,3.0,60.0,0.0,0.0
821,39.0,0.0,120.0,0.0,0.0
822,58.0,2.0,120.0,1.0,0.0
823,63.0,2.0,60.0,0.0,0.0
824,56.0,5.0,120.0,1.0,0.0
825,44.0,104.0,120.0,1.0,0.0
826,68.0,3.0,90.0,0.0,0.0
827,44.0,10.0,90.0,0.0,0.0
828,63.0,1.0,120.0,1.0,0.0
829,68.0,0.0,120.0,1.0,0.0
830,43.0,12.0,15.0,0.0,0.0
831,67.0,0.0,15.0,0.0,0.0
832,68.0,7.0,15.0,0.0,0.0
833,44.0,4.0,15.0,0.0,0.0
834,60.0,2.0,120.0,0.0,0.0
835,72.0,211.0,120.0,0.0,0.0
836,48.0,1.0,120.0,0.0,0.0
837,72.0,1.0,90.0,0.0,0.0
838,48.0,12.0,90.0,0.0,0.0
839,46.0,2.0,15.0,0.0,0.0
840,70.0,11.0,15.0,0.0,0.0
841,48.0,2.0,15.0,0.0,0.0
842,72.0,121.0,15.0,0.0,0.0
843,51.0,1.0,120.0,0.0,0.0
844,75.0,95.0,120.0,0.0,0.0
845,63.0,4.0,120.0,0.0,0.0
846,63.0,16.0,40.0,1.0,0.0
847,44.0,8.0,60.0,1.0,0.0
848,56.0,5.0,60.0,1.0,0.0
849,72.0,87.0,60.0,1.0,0.0
850,63.0,3.0,150.0,1.0,0.0
851,55.0,8.0,150.0,1.0,0.0
852,70.0,51.0,150.0,1.0,0.0
853,37.0,45.0,90.0,0.0,0.0
854,49.0,3.0,90.0,0.0,0.0
855,49.0,1.0,150.0,1.0,0.0
856,70.0,3.0,90.0,0.0,0.0
857,79.0,0.0,90.0,0.0,0.0
858,75.0,1.0,90.0,0.0,0.0
859,49.0,0.0,90.0,0.0,0.0
860,37.0,1.0,90.0,0.0,0.0
861,79.0,3.0,90.0,0.0,0.0
862,75.0,1.0,90.0,0.0,0.0
863,70.0,1.0,90.0,0.0,0.0
864,63.0,4.0,40.0,1.0,0.0
865,49.0,0.0,40.0,1.0,0.0
866,55.0,2.0,40.0,1.0,0.0
867,70.0,53.0,40.0,1.0,0.0
868,49.0,1.0,40.0,1.0,0.0
869,70.0,2.0,90.0,0.0,0.0
870,75.0,0.0,90.0,0.0,0.0
871,79.0,3.0,90.0,0.0,0.0
872,70.0,40.0,40.0,1.0,0.0
873,63.0,2.0,40.0,1.0,0.0
874,55.0,10.0,40.0,1.0,0.0
875,49.0,214.0,90.0,0.0,0.0
876,37.0,1.0,90.0,0.0,0.0
877,70.0,1.0,30.0,1.0,0.0
878,63.0,0.0,30.0,1.0,0.0
879,55.0,7.0,40.0,1.0,0.0
880,49.0,1.0,30.0,1.0,0.0
881,70.0,3.0,210.0,0.0,0.0
882,79.0,12.0,210.0,0.0,0.0
883,75.0,5.0,210.0,0.0,0.0
884,70.0,3.0,240.0,1.0,0.0
885,37.0,8.0,210.0,0.0,0.0
886,49.0,1.0,240.0,1.0,0.0
887,63.0,4.0,210.0,1.0,0.0
888,49.0,1.0,210.0,0.0,0.0
889,55.0,41.0,240.0,1.0,0.0
890,48.0,5.0,120.0,0.0,0.0
891,56.0,1.0,120.0,1.0,0.0
892,63.0,16.0,120.0,1.0,0.0
893,80.0,22.0,40.0,0.0,0.0
894,56.0,5.0,120.0,0.0,0.0
895,48.0,6.0,120.0,1.0,0.0
896,75.0,7.0,120.0,1.0,0.0
897,51.0,1.0,120.0,0.0,0.0
898,79.0,14.0,30.0,0.0,0.0
899,77.0,35.0,15.0,0.0,0.0
900,75.0,2.0,15.0,0.0,0.0
901,73.0,1.0,40.0,1.0,0.0
902,49.0,2.0,40.0,1.0,0.0
903,73.0,4.0,30.0,0.0,0.0
904,53.0,8.0,40.0,1.0,0.0
905,58.0,3.0,120.0,0.0,0.0
906,53.0,3.0,120.0,0.0,0.0
907,49.0,2.0,90.0,0.0,0.0
908,65.0,3.0,30.0,1.0,0.0
909,75.0,29.0,20.0,0.0,0.0
910,53.0,1.0,60.0,1.0,0.0
911,73.0,7.0,60.0,1.0,0.0
912,49.0,2.0,60.0,1.0,0.0
913,77.0,26.0,15.0,0.0,0.0
914,65.0,0.0,60.0,1.0,0.0
915,73.0,30.0,30.0,0.0,0.0
916,51.0,17.0,90.0,0.0,0.0
917,72.0,30.0,30.0,0.0,0.0
918,56.0,2.0,120.0,1.0,0.0
919,72.0,26.0,120.0,1.0,0.0
920,56.0,0.0,90.0,0.0,0.0
921,60.0,3.0,90.0,0.0,0.0
922,51.0,83.0,240.0,1.0,0.0
923,63.0,19.0,210.0,1.0,0.0
924,73.0,28.0,30.0,0.0,0.0
925,75.0,12.0,30.0,0.0,0.0
926,72.0,3.0,30.0,0.0,0.0
927,70.0,3.0,120.0,1.0,0.0
928,51.0,0.0,120.0,0.0,0.0
929,58.0,2.0,120.0,0.0,0.0
930,55.0,3.0,120.0,0.0,0.0
931,70.0,32.0,30.0,0.0,0.0
932,55.0,4.0,120.0,1.0,0.0
933,72.0,25.0,30.0,0.0,0.0
934,73.0,1.0,30.0,0.0,0.0
935,70.0,3.0,30.0,0.0,0.0
936,68.0,3.0,90.0,0.0,0.0
937,68.0,2.0,120.0,1.0,0.0
938,56.0,1.0,120.0,1.0,0.0
939,44.0,13.0,90.0,0.0,0.0
940,44.0,107.0,120.0,1.0,0.0
941,63.0,3.0,120.0,1.0,0.0
942,67.0,13.0,15.0,0.0,0.0
943,43.0,2.0,15.0,0.0,0.0
944,44.0,3.0,20.0,0.0,0.0
945,68.0,5.0,15.0,0.0,0.0
946,48.0,194.0,120.0,0.0,0.0
947,72.0,14.0,120.0,0.0,0.0
948,60.0,2.0,120.0,0.0,0.0
949,48.0,14.0,90.0,0.0,0.0
950,72.0,0.0,90.0,0.0,0.0
951,70.0,13.0,15.0,0.0,0.0
952,46.0,2.0,15.0,0.0,0.0
953,48.0,0.0,15.0,0.0,0.0
954,72.0,124.0,15.0,0.0,0.0
955,75.0,94.0,120.0,0.0,0.0
956,51.0,1.0,120.0,0.0,0.0
957,63.0,0.0,120.0,0.0,0.0
958,72.0,102.0,60.0,1.0,0.0
959,56.0,5.0,60.0,1.0,0.0
960,63.0,17.0,40.0,1.0,0.0
961,44.0,2.0,60.0,1.0,0.0
962,49.0,9.0,150.0,1.0,0.0
963,49.0,0.0,120.0,0.0,0.0
964,70.0,5.0,150.0,1.0,0.0
965,79.0,0.0,90.0,0.0,0.0
966,63.0,2.0,150.0,1.0,0.0
967,75.0,1.0,90.0,0.0,0.0
968,37.0,41.0,120.0,0.0,0.0
969,55.0,0.0,150.0,1.0,0.0
970,70.0,2.0,90.0,0.0,0.0
971,37.0,49.0,40.0,0.0,0.0
972,49.0,0.0,40.0,0.0,0.0
973,75.0,0.0,40.0,0.0,0.0
974,70.0,0.0,40.0,0.0,0.0
975,79.0,1.0,40.0,0.0,0.0
976,70.0,2.0,30.0,0.0,0.0
977,37.0,0.0,40.0,0.0,0.0
978,49.0,3.0,40.0,0.0,0.0
979,55.0,0.0,40.0,1.0,0.0
980,49.0,4.0,40.0,1.0,0.0
981,70.0,49.0,40.0,1.0,0.0
982,79.0,1.0,30.0,0.0,0.0
983,63.0,3.0,40.0,1.0,0.0
984,75.0,0.0,30.0,0.0,0.0
985,49.0,3.0,40.0,1.0,0.0
986,37.0,1.0,40.0,0.0,0.0
987,49.0,0.0,40.0,0.0,0.0
988,55.0,3.0,40.0,1.0,0.0
989,79.0,0.0,40.0,0.0,0.0
990,63.0,1.0,40.0,1.0,0.0
991,70.0,1.0,40.0,0.0,0.0
992,75.0,1.0,40.0,0.0,0.0
993,70.0,42.0,40.0,1.0,0.0
994,63.0,5.0,30.0,1.0,0.0
995,70.0,0.0,30.0,0.0,0.0
996,75.0,0.0,30.0,0.0,0.0
997,49.0,0.0,40.0,0.0,0.0
998,37.0,230.0,40.0,0.0,0.0
999,79.0,1.0,40.0,0.0,0.0
1000,55.0,1.0,30.0,1.0,0.0
1001,70.0,2.0,30.0,1.0,0.0
1002,49.0,0.0,30.0,1.0,0.0
1003,75.0,27.0,240.0,0.0,0.0
1004,70.0,0.0,240.0,0.0,0.0
1005,55.0,0.0,240.0,1.0,0.0
1006,79.0,0.0,240.0,0.0,0.0
1007,49.0,5.0,240.0,1.0,0.0
1008,70.0,1.0,240.0,1.0,0.0
1009,63.0,17.0,210.0,1.0,0.0
1010,37.0,11.0,240.0,0.0,0.0
1011,49.0,3.0,210.0,0.0,0.0
1012,63.0,10.0,120.0,1.0,0.0
1013,51.0,1.0,90.0,0.0,0.0
1014,48.0,10.0,90.0,0.0,0.0
1015,56.0,0.0,120.0,0.0,0.0
1016,80.0,27.0,30.0,0.0,0.0
1017,48.0,3.0,120.0,1.0,0.0
1018,56.0,1.0,120.0,1.0,0.0
1019,75.0,27.0,120.0,1.0,0.0
1020,79.0,11.0,30.0,0.0,0.0
1021,77.0,34.0,15.0,0.0,0.0
1022,75.0,0.0,15.0,0.0,0.0
1023,53.0,2.0,90.0,0.0,0.0
1024,73.0,15.0,40.0,1.0,0.0
1025,49.0,0.0,40.0,1.0,0.0
1026,49.0,5.0,40.0,0.0,0.0
1027,58.0,1.0,90.0,0.0,0.0
1028,73.0,7.0,40.0,0.0,0.0
1029,65.0,1.0,30.0,1.0,0.0
1030,53.0,0.0,40.0,1.0,0.0
1031,75.0,29.0,30.0,0.0,0.0
1032,49.0,14.0,40.0,0.0,0.0
1033,65.0,3.0,60.0,1.0,0.0
1034,49.0,32.0,60.0,1.0,0.0
1035,53.0,4.0,60.0,1.0,0.0
1036,77.0,5.0,30.0,0.0,0.0
1037,73.0,0.0,60.0,1.0,0.0
1038,73.0,0.0,30.0,0.0,0.0
1039,51.0,20.0,40.0,0.0,0.0
1040,56.0,0.0,90.0,0.0,0.0
1041,72.0,11.0,30.0,0.0,0.0
1042,60.0,5.0,90.0,0.0,0.0
1043,56.0,0.0,120.0,1.0,0.0
1044,63.0,18.0,210.0,1.0,0.0
1045,72.0,30.0,120.0,1.0,0.0
1046,51.0,28.0,240.0,1.0,0.0
1047,73.0,27.0,30.0,0.0,0.0
1048,51.0,17.0,40.0,0.0,0.0
1049,75.0,8.0,30.0,0.0,0.0
1050,72.0,2.0,30.0,0.0,0.0
1051,70.0,5.0,120.0,1.0,0.0
1052,55.0,1.0,120.0,1.0,0.0
1053,70.0,11.0,30.0,0.0,0.0
1054,51.0,21.0,40.0,0.0,0.0
1055,58.0,6.0,90.0,0.0,0.0
1056,55.0,3.0,90.0,0.0,0.0
1057,72.0,14.0,30.0,0.0,0.0
1058,51.0,3.0,30.0,0.0,0.0
1059,73.0,8.0,30.0,0.0,0.0
1060,70.0,0.0,30.0,0.0,0.0
1061,68.0,0.0,120.0,1.0,0.0
1062,56.0,6.0,120.0,1.0,0.0
1063,68.0,29.0,30.0,0.0,0.0
1064,44.0,13.0,150.0,1.0,0.0
1065,63.0,5.0,150.0,1.0,0.0
1066,48.0,2.0,120.0,0.0,0.0
1067,44.0,1.0,120.0,0.0,0.0
1068,56.0,33.0,30.0,0.0,0.0
1069,58.0,30.0,30.0,0.0,0.0
1070,60.0,0.0,30.0,0.0,0.0
1071,61.0,27.0,30.0,0.0,0.0
1072,63.0,25.0,30.0,0.0,0.0
1073,65.0,37.0,30.0,0.0,0.0
1074,67.0,28.0,30.0,0.0,0.0
1075,68.0,30.0,30.0,0.0,0.0
1076,70.0,31.0,30.0,0.0,0.0
1077,72.0,14.0,30.0,0.0,0.0
1078,73.0,45.0,15.0,0.0,0.0
1079,75.0,0.0,40.0,1.0,0.0
1080,56.0,5.0,30.0,1.0,0.0
1081,75.0,1.0,120.0,0.0,0.0
1082,63.0,4.0,40.0,1.0,0.0
1083,60.0,17.0,40.0,1.0,0.0
1084,44.0,31.0,60.0,0.0,0.0
1085,72.0,21.0,90.0,0.0,0.0
1086,75.0,1.0,60.0,1.0,0.0
1087,48.0,0.0,60.0,0.0,0.0
1088,63.0,9.0,30.0,1.0,0.0
1089,60.0,2.0,60.0,1.0,0.0
1090,51.0,38.0,60.0,0.0,0.0
1091,68.0,14.0,90.0,0.0,0.0
1092,72.0,4.0,120.0,0.0,0.0
1093,51.0,1.0,240.0,1.0,0.0
1094,56.0,57.0,15.0,1.0,0.0
1095,63.0,7.0,240.0,1.0,0.0
1096,72.0,52.0,120.0,1.0,0.0
1097,50.0,6.0,60.0,0.0,0.0
1098,55.0,21.0,120.0,1.0,0.0
1099,70.0,1.0,90.0,0.0,0.0
1100,63.0,24.0,90.0,0.0,0.0
1101,51.0,18.0,60.0,0.0,0.0
1102,67.0,1.0,90.0,0.0,0.0
1103,70.0,3.0,120.0,1.0,0.0
1104,39.0,5.0,60.0,0.0,0.0
1105,44.0,1.0,120.0,0.0,0.0
1106,68.0,25.0,30.0,0.0,0.0
1107,60.0,7.0,20.0,0.0,0.0
1108,68.0,12.0,120.0,1.0,0.0
1109,63.0,5.0,120.0,1.0,0.0
1110,44.0,8.0,150.0,1.0,0.0
1111,56.0,1.0,120.0,1.0,0.0
1112,32.0,6.0,120.0,0.0,0.0
1113,56.0,35.0,30.0,0.0,0.0
1114,58.0,28.0,30.0,0.0,0.0
1115,60.0,1.0,30.0,0.0,0.0
1116,61.0,30.0,30.0,0.0,0.0
1117,63.0,28.0,30.0,0.0,0.0
1118,65.0,34.0,30.0,0.0,0.0
1119,67.0,28.0,30.0,0.0,0.0
1120,68.0,31.0,30.0,0.0,0.0
1121,70.0,34.0,30.0,0.0,0.0
1122,72.0,4.0,40.0,0.0,0.0
1123,73.0,49.0,15.0,0.0,0.0
1124,75.0,3.0,40.0,1.0,0.0
1125,75.0,1.0,120.0,0.0,0.0
1126,72.0,8.0,90.0,0.0,0.0
1127,60.0,0.0,40.0,1.0,0.0
1128,63.0,24.0,40.0,1.0,0.0
1129,44.0,27.0,60.0,0.0,0.0
1130,56.0,5.0,30.0,1.0,0.0
1131,56.0,7.0,40.0,1.0,0.0
1132,63.0,12.0,30.0,1.0,0.0
1133,48.0,2.0,60.0,0.0,0.0
1134,60.0,5.0,60.0,1.0,0.0
1135,75.0,57.0,60.0,1.0,0.0
1136,56.0,62.0,120.0,1.0,0.0
1137,72.0,2.0,120.0,1.0,0.0
1138,68.0,7.0,90.0,0.0,0.0
1139,72.0,10.0,90.0,0.0,0.0
1140,63.0,0.0,210.0,1.0,0.0
1141,51.0,36.0,60.0,0.0,0.0
1142,51.0,81.0,240.0,1.0,0.0
1143,50.0,3.0,60.0,0.0,0.0
1144,70.0,5.0,120.0,1.0,0.0
1145,55.0,2.0,120.0,1.0,0.0
1146,51.0,30.0,60.0,0.0,0.0
1147,70.0,21.0,90.0,0.0,0.0
1148,63.0,4.0,90.0,0.0,0.0
1149,67.0,1.0,90.0,0.0,0.0
1150,39.0,1.0,60.0,0.0,0.0
1151,56.0,4.0,120.0,1.0,0.0
1152,44.0,34.0,90.0,0.0,0.0
1153,44.0,0.0,120.0,1.0,0.0
1154,68.0,3.0,120.0,1.0,0.0
1155,63.0,67.0,120.0,1.0,0.0
1156,68.0,4.0,90.0,0.0,0.0
1157,60.0,2.0,90.0,0.0,0.0
1158,32.0,2.0,90.0,0.0,0.0
1159,72.0,3.0,90.0,0.0,0.0
1160,68.0,1.0,90.0,0.0,0.0
1161,63.0,1.0,90.0,0.0,0.0
1162,75.0,106.0,90.0,0.0,0.0
1163,67.0,2.0,90.0,0.0,0.0
1164,51.0,0.0,60.0,0.0,0.0
1165,39.0,14.0,60.0,0.0,0.0
1166,75.0,136.0,90.0,0.0,0.0
1167,70.0,2.0,90.0,0.0,0.0
1168,79.0,3.0,90.0,0.0,0.0
1169,75.0,2.0,120.0,0.0,0.0
1170,72.0,0.0,120.0,0.0,0.0
1171,44.0,1.0,120.0,0.0,0.0
1172,68.0,0.0,120.0,0.0,0.0
1173,56.0,0.0,120.0,0.0,0.0
1174,80.0,10.0,120.0,0.0,0.0
