,note,step,duration,channel,velocity
0,78.0,0.0,150.0,0.0,0.0
1,78.0,240.0,150.0,5.0,0.0
2,83.0,0.0,150.0,0.0,0.0
3,83.0,240.0,150.0,5.0,0.0
4,87.0,288.0,150.0,5.0,0.0
5,87.0,0.0,150.0,0.0,0.0
6,59.0,0.0,780.0,3.0,0.0
7,90.0,144.0,300.0,0.0,0.0
8,63.0,0.0,180.0,1.0,0.0
9,90.0,0.0,300.0,5.0,0.0
10,47.0,0.0,780.0,10.0,0.0
11,63.0,0.0,180.0,6.0,0.0
12,47.0,0.0,780.0,4.0,0.0
13,59.0,0.0,180.0,2.0,0.0
14,59.0,0.0,780.0,8.0,0.0
15,59.0,96.0,180.0,7.0,0.0
16,63.0,0.0,180.0,6.0,0.0
17,63.0,0.0,180.0,1.0,0.0
18,59.0,0.0,180.0,2.0,0.0
19,59.0,240.0,180.0,7.0,0.0
20,63.0,96.0,180.0,2.0,0.0
21,66.0,0.0,180.0,6.0,0.0
22,66.0,0.0,180.0,1.0,0.0
23,90.0,0.0,300.0,5.0,0.0
24,63.0,0.0,180.0,7.0,0.0
25,90.0,144.0,300.0,0.0,0.0
26,63.0,0.0,180.0,7.0,0.0
27,66.0,0.0,180.0,1.0,0.0
28,66.0,0.0,180.0,6.0,0.0
29,63.0,240.0,180.0,2.0,0.0
30,71.0,96.0,180.0,1.0,0.0
31,71.0,0.0,180.0,6.0,0.0
32,90.0,0.0,300.0,5.0,0.0
33,90.0,144.0,300.0,0.0,0.0
34,66.0,0.0,180.0,7.0,0.0
35,66.0,0.0,180.0,2.0,0.0
36,66.0,0.0,180.0,2.0,0.0
37,71.0,0.0,180.0,1.0,0.0
38,66.0,0.0,180.0,7.0,0.0
39,71.0,240.0,180.0,6.0,0.0
40,71.0,96.0,180.0,2.0,0.0
41,75.0,0.0,180.0,1.0,0.0
42,75.0,0.0,180.0,6.0,0.0
43,90.0,144.0,300.0,0.0,0.0
44,90.0,0.0,300.0,5.0,0.0
45,71.0,0.0,180.0,7.0,0.0
46,71.0,0.0,180.0,7.0,0.0
47,75.0,240.0,180.0,6.0,0.0
48,71.0,0.0,180.0,2.0,0.0
49,75.0,0.0,180.0,1.0,0.0
50,54.0,48.0,390.0,8.0,0.0
51,82.0,0.0,300.0,0.0,0.0
52,42.0,0.0,390.0,4.0,0.0
53,73.0,96.0,180.0,2.0,0.0
54,42.0,0.0,390.0,10.0,0.0
55,82.0,96.0,300.0,5.0,0.0
56,76.0,0.0,180.0,1.0,0.0
57,54.0,0.0,390.0,3.0,0.0
58,73.0,0.0,180.0,7.0,0.0
59,76.0,0.0,180.0,6.0,0.0
60,73.0,0.0,180.0,2.0,0.0
61,73.0,240.0,180.0,7.0,0.0
62,76.0,0.0,180.0,6.0,0.0
63,76.0,0.0,180.0,1.0,0.0
64,82.0,144.0,300.0,5.0,0.0
65,73.0,0.0,180.0,2.0,0.0
66,76.0,96.0,180.0,6.0,0.0
67,73.0,0.0,180.0,7.0,0.0
68,82.0,0.0,300.0,0.0,0.0
69,76.0,0.0,180.0,1.0,0.0
70,73.0,0.0,180.0,2.0,0.0
71,76.0,0.0,180.0,1.0,0.0
72,73.0,240.0,180.0,7.0,0.0
73,76.0,0.0,180.0,6.0,0.0
74,59.0,48.0,390.0,3.0,0.0
75,59.0,0.0,390.0,8.0,0.0
76,75.0,0.0,180.0,6.0,0.0
77,47.0,0.0,390.0,4.0,0.0
78,71.0,0.0,180.0,7.0,0.0
79,71.0,0.0,180.0,2.0,0.0
80,47.0,0.0,390.0,10.0,0.0
81,75.0,96.0,180.0,1.0,0.0
82,83.0,0.0,300.0,0.0,0.0
83,83.0,96.0,300.0,5.0,0.0
84,75.0,0.0,180.0,6.0,0.0
85,71.0,128.0,180.0,2.0,0.0
86,75.0,0.0,180.0,1.0,0.0
87,71.0,0.0,180.0,7.0,0.0
88,71.0,0.0,180.0,2.0,0.0
89,83.0,80.0,90.0,0.0,0.0
90,75.0,48.0,180.0,6.0,0.0
91,75.0,0.0,180.0,1.0,0.0
92,83.0,0.0,90.0,5.0,0.0
93,71.0,0.0,180.0,7.0,0.0
94,85.0,0.0,90.0,5.0,0.0
95,85.0,32.0,90.0,0.0,0.0
96,83.0,120.0,90.0,0.0,0.0
97,83.0,0.0,90.0,5.0,0.0
98,75.0,0.0,180.0,1.0,0.0
99,71.0,0.0,180.0,7.0,0.0
100,75.0,48.0,180.0,6.0,0.0
101,82.0,0.0,120.0,5.0,0.0
102,71.0,0.0,180.0,2.0,0.0
103,82.0,72.0,120.0,0.0,0.0
104,83.0,192.0,120.0,0.0,0.0
105,83.0,0.0,120.0,5.0,0.0
106,46.0,0.0,390.0,4.0,0.0
107,58.0,48.0,390.0,8.0,0.0
108,88.0,96.0,300.0,0.0,0.0
109,73.0,96.0,180.0,1.0,0.0
110,58.0,0.0,390.0,3.0,0.0
111,88.0,0.0,300.0,5.0,0.0
112,66.0,0.0,180.0,7.0,0.0
113,66.0,0.0,180.0,2.0,0.0
114,46.0,0.0,390.0,10.0,0.0
115,73.0,0.0,180.0,6.0,0.0
116,66.0,0.0,180.0,7.0,0.0
117,66.0,0.0,180.0,2.0,0.0
118,73.0,0.0,180.0,6.0,0.0
119,73.0,240.0,180.0,1.0,0.0
120,73.0,0.0,180.0,6.0,0.0
121,73.0,96.0,180.0,1.0,0.0
122,88.0,0.0,300.0,0.0,0.0
123,66.0,0.0,180.0,7.0,0.0
124,88.0,144.0,300.0,5.0,0.0
125,66.0,0.0,180.0,2.0,0.0
126,73.0,240.0,180.0,1.0,0.0
127,73.0,0.0,180.0,6.0,0.0
128,66.0,0.0,180.0,2.0,0.0
129,66.0,0.0,180.0,7.0,0.0
130,47.0,48.0,390.0,10.0,0.0
131,47.0,0.0,390.0,4.0,0.0
132,59.0,0.0,390.0,3.0,0.0
133,66.0,0.0,180.0,2.0,0.0
134,87.0,96.0,300.0,0.0,0.0
135,66.0,96.0,180.0,7.0,0.0
136,59.0,0.0,390.0,8.0,0.0
137,87.0,0.0,300.0,5.0,0.0
138,71.0,0.0,180.0,6.0,0.0
139,71.0,0.0,180.0,1.0,0.0
140,71.0,0.0,180.0,6.0,0.0
141,66.0,0.0,180.0,2.0,0.0
142,71.0,0.0,180.0,1.0,0.0
143,66.0,240.0,180.0,7.0,0.0
144,87.0,144.0,300.0,5.0,0.0
145,71.0,0.0,180.0,6.0,0.0
146,87.0,0.0,300.0,0.0,0.0
147,66.0,0.0,180.0,7.0,0.0
148,71.0,96.0,180.0,1.0,0.0
149,66.0,0.0,180.0,2.0,0.0
150,66.0,0.0,180.0,7.0,0.0
151,71.0,240.0,180.0,1.0,0.0
152,71.0,0.0,180.0,6.0,0.0
153,66.0,0.0,180.0,2.0,0.0
154,66.0,0.0,180.0,2.0,0.0
155,85.0,48.0,390.0,5.0,0.0
156,70.0,192.0,180.0,1.0,0.0
157,70.0,0.0,180.0,6.0,0.0
158,66.0,0.0,180.0,7.0,0.0
159,42.0,0.0,390.0,10.0,0.0
160,54.0,0.0,390.0,8.0,0.0
161,42.0,0.0,390.0,4.0,0.0
162,85.0,0.0,390.0,0.0,0.0
163,54.0,0.0,390.0,3.0,0.0
164,75.0,0.0,180.0,1.0,0.0
165,71.0,0.0,180.0,7.0,0.0
166,71.0,240.0,180.0,2.0,0.0
167,75.0,0.0,180.0,6.0,0.0
168,70.0,0.0,180.0,2.0,0.0
169,73.0,0.0,180.0,1.0,0.0
170,73.0,240.0,180.0,6.0,0.0
171,70.0,0.0,180.0,7.0,0.0
172,71.0,0.0,180.0,6.0,0.0
173,68.0,0.0,180.0,2.0,0.0
174,71.0,0.0,180.0,1.0,0.0
175,68.0,240.0,180.0,7.0,0.0
176,70.0,0.0,180.0,6.0,0.0
177,66.0,0.0,180.0,7.0,0.0
178,70.0,0.0,180.0,1.0,0.0
179,66.0,192.0,180.0,2.0,0.0
180,68.0,0.0,180.0,1.0,0.0
181,68.0,0.0,180.0,6.0,0.0
182,78.0,48.0,150.0,0.0,0.0
183,64.0,192.0,180.0,2.0,0.0
184,64.0,0.0,180.0,7.0,0.0
185,78.0,0.0,150.0,5.0,0.0
186,63.0,0.0,180.0,2.0,0.0
187,83.0,0.0,150.0,5.0,0.0
188,83.0,48.0,150.0,0.0,0.0
189,66.0,0.0,180.0,1.0,0.0
190,66.0,0.0,180.0,6.0,0.0
191,63.0,192.0,180.0,7.0,0.0
192,61.0,240.0,180.0,7.0,0.0
193,64.0,0.0,180.0,6.0,0.0
194,64.0,0.0,180.0,1.0,0.0
195,61.0,0.0,180.0,2.0,0.0
196,87.0,0.0,150.0,0.0,0.0
197,87.0,48.0,150.0,5.0,0.0
198,63.0,0.0,180.0,1.0,0.0
199,59.0,96.0,180.0,2.0,0.0
200,63.0,0.0,180.0,6.0,0.0
201,47.0,0.0,780.0,10.0,0.0
202,47.0,0.0,780.0,4.0,0.0
203,90.0,144.0,300.0,0.0,0.0
204,59.0,0.0,780.0,8.0,0.0
205,59.0,0.0,180.0,7.0,0.0
206,59.0,0.0,780.0,3.0,0.0
207,90.0,0.0,300.0,5.0,0.0
208,59.0,0.0,180.0,2.0,0.0
209,59.0,240.0,180.0,7.0,0.0
210,63.0,0.0,180.0,1.0,0.0
211,63.0,0.0,180.0,6.0,0.0
212,63.0,0.0,180.0,7.0,0.0
213,63.0,0.0,180.0,2.0,0.0
214,66.0,0.0,180.0,6.0,0.0
215,90.0,144.0,300.0,5.0,0.0
216,90.0,0.0,300.0,0.0,0.0
217,66.0,96.0,180.0,1.0,0.0
218,63.0,0.0,180.0,2.0,0.0
219,63.0,0.0,180.0,7.0,0.0
220,66.0,240.0,180.0,6.0,0.0
221,66.0,0.0,180.0,1.0,0.0
222,71.0,96.0,180.0,6.0,0.0
223,66.0,0.0,180.0,2.0,0.0
224,71.0,0.0,180.0,1.0,0.0
225,90.0,0.0,300.0,5.0,0.0
226,66.0,0.0,180.0,7.0,0.0
227,90.0,144.0,300.0,0.0,0.0
228,66.0,0.0,180.0,2.0,0.0
229,66.0,240.0,180.0,7.0,0.0
230,71.0,0.0,180.0,6.0,0.0
231,71.0,0.0,180.0,1.0,0.0
232,71.0,0.0,180.0,2.0,0.0
233,90.0,144.0,300.0,0.0,0.0
234,75.0,96.0,180.0,1.0,0.0
235,71.0,0.0,180.0,7.0,0.0
236,75.0,0.0,180.0,6.0,0.0
237,90.0,0.0,300.0,5.0,0.0
238,75.0,0.0,180.0,1.0,0.0
239,71.0,0.0,180.0,2.0,0.0
240,71.0,240.0,180.0,7.0,0.0
241,75.0,0.0,180.0,6.0,0.0
242,73.0,0.0,180.0,7.0,0.0
243,76.0,96.0,180.0,6.0,0.0
244,42.0,0.0,390.0,10.0,0.0
245,54.0,0.0,390.0,8.0,0.0
246,54.0,48.0,390.0,3.0,0.0
247,76.0,0.0,180.0,1.0,0.0
248,82.0,96.0,300.0,5.0,0.0
249,42.0,0.0,390.0,4.0,0.0
250,73.0,0.0,180.0,2.0,0.0
251,82.0,0.0,300.0,0.0,0.0
252,76.0,0.0,180.0,6.0,0.0
253,73.0,0.0,180.0,7.0,0.0
254,76.0,0.0,180.0,1.0,0.0
255,73.0,128.0,180.0,2.0,0.0
256,82.0,0.0,90.0,5.0,0.0
257,73.0,48.0,180.0,7.0,0.0
258,76.0,0.0,180.0,6.0,0.0
259,73.0,0.0,180.0,2.0,0.0
260,76.0,0.0,180.0,1.0,0.0
261,82.0,80.0,90.0,0.0,0.0
262,83.0,32.0,90.0,5.0,0.0
263,83.0,0.0,90.0,0.0,0.0
264,82.0,0.0,90.0,0.0,0.0
265,82.0,120.0,90.0,5.0,0.0
266,73.0,0.0,180.0,2.0,0.0
267,80.0,72.0,120.0,0.0,0.0
268,76.0,48.0,180.0,6.0,0.0
269,73.0,0.0,180.0,7.0,0.0
270,76.0,0.0,180.0,1.0,0.0
271,80.0,0.0,120.0,5.0,0.0
272,82.0,192.0,120.0,0.0,0.0
273,82.0,0.0,120.0,5.0,0.0
274,75.0,96.0,180.0,6.0,0.0
275,83.0,96.0,300.0,5.0,0.0
276,44.0,0.0,390.0,10.0,0.0
277,75.0,0.0,180.0,1.0,0.0
278,44.0,0.0,390.0,4.0,0.0
279,83.0,0.0,300.0,0.0,0.0
280,71.0,0.0,180.0,2.0,0.0
281,71.0,0.0,180.0,7.0,0.0
282,56.0,0.0,390.0,8.0,0.0
283,56.0,48.0,390.0,3.0,0.0
284,71.0,128.0,180.0,2.0,0.0
285,75.0,0.0,180.0,6.0,0.0
286,75.0,0.0,180.0,1.0,0.0
287,71.0,0.0,180.0,7.0,0.0
288,71.0,0.0,180.0,2.0,0.0
289,83.0,80.0,90.0,0.0,0.0
290,75.0,48.0,180.0,1.0,0.0
291,75.0,0.0,180.0,6.0,0.0
292,83.0,0.0,90.0,5.0,0.0
293,71.0,0.0,180.0,7.0,0.0
294,85.0,0.0,90.0,5.0,0.0
295,85.0,32.0,90.0,0.0,0.0
296,83.0,120.0,90.0,5.0,0.0
297,83.0,0.0,90.0,0.0,0.0
298,75.0,48.0,180.0,6.0,0.0
299,82.0,0.0,120.0,0.0,0.0
300,71.0,0.0,180.0,2.0,0.0
301,71.0,0.0,180.0,7.0,0.0
302,75.0,0.0,180.0,1.0,0.0
303,82.0,72.0,120.0,5.0,0.0
304,83.0,192.0,120.0,5.0,0.0
305,83.0,0.0,120.0,0.0,0.0
306,52.0,0.0,390.0,3.0,0.0
307,85.0,96.0,300.0,0.0,0.0
308,71.0,96.0,180.0,7.0,0.0
309,40.0,0.0,390.0,10.0,0.0
310,40.0,48.0,390.0,4.0,0.0
311,71.0,0.0,180.0,2.0,0.0
312,80.0,0.0,180.0,1.0,0.0
313,85.0,0.0,300.0,5.0,0.0
314,80.0,0.0,180.0,6.0,0.0
315,52.0,0.0,390.0,8.0,0.0
316,71.0,0.0,180.0,7.0,0.0
317,80.0,240.0,180.0,6.0,0.0
318,80.0,0.0,180.0,1.0,0.0
319,71.0,0.0,180.0,2.0,0.0
320,85.0,144.0,300.0,0.0,0.0
321,80.0,0.0,180.0,1.0,0.0
322,85.0,0.0,300.0,5.0,0.0
323,71.0,0.0,180.0,7.0,0.0
324,80.0,96.0,180.0,6.0,0.0
325,71.0,0.0,180.0,2.0,0.0
326,80.0,0.0,180.0,1.0,0.0
327,71.0,240.0,180.0,7.0,0.0
328,80.0,0.0,180.0,6.0,0.0
329,71.0,0.0,180.0,2.0,0.0
330,70.0,0.0,180.0,2.0,0.0
331,42.0,0.0,390.0,4.0,0.0
332,42.0,0.0,390.0,10.0,0.0
333,70.0,0.0,180.0,7.0,0.0
334,54.0,48.0,390.0,8.0,0.0
335,78.0,0.0,390.0,0.0,0.0
336,76.0,0.0,180.0,1.0,0.0
337,78.0,0.0,390.0,5.0,0.0
338,54.0,0.0,390.0,3.0,0.0
339,76.0,192.0,180.0,6.0,0.0
340,76.0,240.0,180.0,1.0,0.0
341,76.0,0.0,180.0,6.0,0.0
342,70.0,0.0,180.0,2.0,0.0
343,70.0,0.0,180.0,7.0,0.0
344,71.0,0.0,180.0,7.0,0.0
345,76.0,0.0,180.0,6.0,0.0
346,80.0,0.0,180.0,0.0,0.0
347,71.0,240.0,180.0,2.0,0.0
348,80.0,0.0,180.0,5.0,0.0
349,76.0,0.0,180.0,1.0,0.0
350,82.0,240.0,180.0,5.0,0.0
351,73.0,0.0,180.0,2.0,0.0
352,76.0,0.0,180.0,1.0,0.0
353,73.0,0.0,180.0,7.0,0.0
354,82.0,0.0,180.0,0.0,0.0
355,76.0,0.0,180.0,6.0,0.0
356,59.0,0.0,390.0,3.0,0.0
357,75.0,0.0,180.0,1.0,0.0
358,47.0,48.0,390.0,4.0,0.0
359,75.0,0.0,180.0,6.0,0.0
360,47.0,0.0,390.0,10.0,0.0
361,83.0,0.0,390.0,5.0,0.0
362,59.0,0.0,390.0,8.0,0.0
363,83.0,0.0,390.0,0.0,0.0
364,71.0,0.0,180.0,7.0,0.0
365,71.0,192.0,180.0,2.0,0.0
366,75.0,0.0,180.0,6.0,0.0
367,71.0,0.0,180.0,7.0,0.0
368,71.0,0.0,180.0,2.0,0.0
369,75.0,240.0,180.0,1.0,0.0
370,47.0,0.0,390.0,4.0,0.0
371,47.0,48.0,390.0,10.0,0.0
372,59.0,0.0,390.0,8.0,0.0
373,70.0,0.0,180.0,2.0,0.0
374,73.0,192.0,180.0,6.0,0.0
375,70.0,0.0,180.0,7.0,0.0
376,59.0,0.0,390.0,3.0,0.0
377,73.0,0.0,180.0,1.0,0.0
378,68.0,240.0,180.0,2.0,0.0
379,71.0,0.0,180.0,1.0,0.0
380,71.0,0.0,180.0,6.0,0.0
381,68.0,0.0,180.0,7.0,0.0
382,66.0,0.0,180.0,2.0,0.0
383,70.0,0.0,180.0,6.0,0.0
384,51.0,0.0,390.0,8.0,0.0
385,51.0,0.0,390.0,3.0,0.0
386,39.0,0.0,390.0,4.0,0.0
387,39.0,0.0,390.0,10.0,0.0
388,66.0,192.0,180.0,7.0,0.0
389,70.0,0.0,180.0,1.0,0.0
390,78.0,48.0,150.0,5.0,0.0
391,64.0,0.0,180.0,7.0,0.0
392,78.0,0.0,150.0,0.0,0.0
393,68.0,192.0,180.0,1.0,0.0
394,68.0,0.0,180.0,6.0,0.0
395,64.0,0.0,180.0,2.0,0.0
396,83.0,48.0,150.0,0.0,0.0
397,66.0,192.0,180.0,6.0,0.0
398,83.0,0.0,150.0,5.0,0.0
399,63.0,0.0,180.0,2.0,0.0
400,42.0,0.0,390.0,4.0,0.0
401,54.0,0.0,390.0,3.0,0.0
402,54.0,48.0,390.0,8.0,0.0
403,66.0,0.0,180.0,1.0,0.0
404,63.0,0.0,180.0,7.0,0.0
405,42.0,0.0,390.0,10.0,0.0
406,64.0,0.0,180.0,1.0,0.0
407,61.0,0.0,180.0,2.0,0.0
408,87.0,0.0,150.0,5.0,0.0
409,61.0,0.0,180.0,7.0,0.0
410,64.0,240.0,180.0,6.0,0.0
411,87.0,0.0,150.0,0.0,0.0
412,47.0,0.0,780.0,4.0,0.0
413,63.0,0.0,180.0,1.0,0.0
414,59.0,96.0,180.0,7.0,0.0
415,59.0,0.0,180.0,2.0,0.0
416,47.0,0.0,780.0,10.0,0.0
417,59.0,0.0,780.0,8.0,0.0
418,63.0,0.0,180.0,6.0,0.0
419,90.0,144.0,300.0,5.0,0.0
420,90.0,0.0,300.0,0.0,0.0
421,59.0,0.0,780.0,3.0,0.0
422,63.0,0.0,180.0,1.0,0.0
423,59.0,0.0,180.0,7.0,0.0
424,63.0,0.0,180.0,6.0,0.0
425,59.0,240.0,180.0,2.0,0.0
426,90.0,144.0,300.0,5.0,0.0
427,63.0,0.0,180.0,7.0,0.0
428,66.0,0.0,180.0,1.0,0.0
429,90.0,0.0,300.0,0.0,0.0
430,63.0,96.0,180.0,2.0,0.0
431,66.0,0.0,180.0,6.0,0.0
432,63.0,0.0,180.0,2.0,0.0
433,66.0,0.0,180.0,6.0,0.0
434,66.0,0.0,180.0,1.0,0.0
435,63.0,240.0,180.0,7.0,0.0
436,66.0,0.0,180.0,2.0,0.0
437,90.0,144.0,300.0,5.0,0.0
438,71.0,96.0,180.0,1.0,0.0
439,71.0,0.0,180.0,6.0,0.0
440,90.0,0.0,300.0,0.0,0.0
441,66.0,0.0,180.0,7.0,0.0
442,66.0,240.0,180.0,7.0,0.0
443,66.0,0.0,180.0,2.0,0.0
444,71.0,0.0,180.0,6.0,0.0
445,71.0,0.0,180.0,1.0,0.0
446,90.0,144.0,300.0,0.0,0.0
447,75.0,0.0,180.0,1.0,0.0
448,71.0,0.0,180.0,7.0,0.0
449,75.0,0.0,180.0,6.0,0.0
450,71.0,96.0,180.0,2.0,0.0
451,90.0,0.0,300.0,5.0,0.0
452,75.0,0.0,180.0,6.0,0.0
453,71.0,0.0,180.0,7.0,0.0
454,71.0,0.0,180.0,2.0,0.0
455,75.0,240.0,180.0,1.0,0.0
456,82.0,0.0,300.0,0.0,0.0
457,73.0,96.0,180.0,2.0,0.0
458,76.0,0.0,180.0,1.0,0.0
459,82.0,96.0,300.0,5.0,0.0
460,54.0,0.0,390.0,8.0,0.0
461,54.0,48.0,390.0,3.0,0.0
462,76.0,0.0,180.0,6.0,0.0
463,42.0,0.0,390.0,4.0,0.0
464,73.0,0.0,180.0,7.0,0.0
465,42.0,0.0,390.0,10.0,0.0
466,76.0,0.0,180.0,1.0,0.0
467,73.0,0.0,180.0,7.0,0.0
468,73.0,240.0,180.0,2.0,0.0
469,76.0,0.0,180.0,6.0,0.0
470,82.0,144.0,300.0,5.0,0.0
471,76.0,0.0,180.0,1.0,0.0
472,73.0,0.0,180.0,2.0,0.0
473,82.0,0.0,300.0,0.0,0.0
474,76.0,0.0,180.0,6.0,0.0
475,73.0,96.0,180.0,7.0,0.0
476,76.0,0.0,180.0,1.0,0.0
477,73.0,0.0,180.0,7.0,0.0
478,73.0,240.0,180.0,2.0,0.0
479,76.0,0.0,180.0,6.0,0.0
480,71.0,96.0,180.0,7.0,0.0
481,83.0,96.0,300.0,0.0,0.0
482,59.0,0.0,390.0,3.0,0.0
483,47.0,48.0,390.0,10.0,0.0
484,75.0,0.0,180.0,6.0,0.0
485,83.0,0.0,300.0,5.0,0.0
486,47.0,0.0,390.0,4.0,0.0
487,59.0,0.0,390.0,8.0,0.0
488,71.0,0.0,180.0,2.0,0.0
489,75.0,0.0,180.0,1.0,0.0
490,75.0,0.0,180.0,6.0,0.0
491,71.0,0.0,180.0,7.0,0.0
492,71.0,128.0,180.0,2.0,0.0
493,75.0,0.0,180.0,1.0,0.0
494,83.0,80.0,90.0,5.0,0.0
495,83.0,0.0,90.0,0.0,0.0
496,75.0,0.0,180.0,6.0,0.0
497,75.0,48.0,180.0,1.0,0.0
498,71.0,0.0,180.0,7.0,0.0
499,71.0,0.0,180.0,2.0,0.0
500,85.0,0.0,90.0,0.0,0.0
501,85.0,32.0,90.0,5.0,0.0
502,83.0,0.0,90.0,0.0,0.0
503,83.0,120.0,90.0,5.0,0.0
504,75.0,0.0,180.0,1.0,0.0
505,71.0,0.0,180.0,7.0,0.0
506,82.0,0.0,120.0,5.0,0.0
507,71.0,0.0,180.0,2.0,0.0
508,82.0,72.0,120.0,0.0,0.0
509,75.0,48.0,180.0,6.0,0.0
510,83.0,192.0,120.0,5.0,0.0
511,83.0,0.0,120.0,0.0,0.0
512,73.0,96.0,180.0,6.0,0.0
513,88.0,0.0,300.0,0.0,0.0
514,66.0,0.0,180.0,7.0,0.0
515,88.0,96.0,300.0,5.0,0.0
516,46.0,48.0,390.0,4.0,0.0
517,66.0,0.0,180.0,2.0,0.0
518,73.0,0.0,180.0,1.0,0.0
519,58.0,0.0,390.0,8.0,0.0
520,58.0,0.0,390.0,3.0,0.0
521,46.0,0.0,390.0,10.0,0.0
522,73.0,0.0,180.0,1.0,0.0
523,66.0,0.0,180.0,7.0,0.0
524,66.0,240.0,180.0,2.0,0.0
525,73.0,0.0,180.0,6.0,0.0
526,73.0,96.0,180.0,1.0,0.0
527,73.0,0.0,180.0,6.0,0.0
528,88.0,144.0,300.0,5.0,0.0
529,66.0,0.0,180.0,7.0,0.0
530,66.0,0.0,180.0,2.0,0.0
531,88.0,0.0,300.0,0.0,0.0
532,66.0,0.0,180.0,2.0,0.0
533,66.0,0.0,180.0,7.0,0.0
534,73.0,240.0,180.0,6.0,0.0
535,73.0,0.0,180.0,1.0,0.0
536,47.0,48.0,390.0,10.0,0.0
537,87.0,0.0,300.0,0.0,0.0
538,71.0,0.0,180.0,1.0,0.0
539,66.0,0.0,180.0,7.0,0.0
540,59.0,0.0,390.0,3.0,0.0
541,71.0,96.0,180.0,6.0,0.0
542,66.0,0.0,180.0,2.0,0.0
543,47.0,0.0,390.0,4.0,0.0
544,87.0,96.0,300.0,5.0,0.0
545,59.0,0.0,390.0,8.0,0.0
546,71.0,240.0,180.0,6.0,0.0
547,66.0,0.0,180.0,2.0,0.0
548,71.0,0.0,180.0,1.0,0.0
549,66.0,0.0,180.0,7.0,0.0
550,71.0,0.0,180.0,1.0,0.0
551,87.0,144.0,300.0,5.0,0.0
552,66.0,0.0,180.0,7.0,0.0
553,87.0,0.0,300.0,0.0,0.0
554,71.0,0.0,180.0,6.0,0.0
555,66.0,96.0,180.0,2.0,0.0
556,71.0,0.0,180.0,6.0,0.0
557,71.0,0.0,180.0,1.0,0.0
558,66.0,0.0,180.0,7.0,0.0
559,66.0,240.0,180.0,2.0,0.0
560,42.0,0.0,390.0,4.0,0.0
561,70.0,192.0,180.0,6.0,0.0
562,42.0,0.0,390.0,10.0,0.0
563,85.0,0.0,390.0,0.0,0.0
564,70.0,0.0,180.0,1.0,0.0
565,85.0,0.0,390.0,5.0,0.0
566,54.0,0.0,390.0,8.0,0.0
567,66.0,0.0,180.0,2.0,0.0
568,54.0,48.0,390.0,3.0,0.0
569,66.0,0.0,180.0,7.0,0.0
570,75.0,0.0,180.0,1.0,0.0
571,75.0,0.0,180.0,6.0,0.0
572,71.0,0.0,180.0,2.0,0.0
573,71.0,240.0,180.0,7.0,0.0
574,70.0,240.0,180.0,2.0,0.0
575,73.0,0.0,180.0,1.0,0.0
576,73.0,0.0,180.0,6.0,0.0
577,70.0,0.0,180.0,7.0,0.0
578,71.0,240.0,180.0,1.0,0.0
579,68.0,0.0,180.0,7.0,0.0
580,68.0,0.0,180.0,2.0,0.0
581,71.0,0.0,180.0,6.0,0.0
582,66.0,0.0,180.0,7.0,0.0
583,66.0,0.0,180.0,2.0,0.0
584,70.0,0.0,180.0,6.0,0.0
585,70.0,192.0,180.0,1.0,0.0
586,68.0,192.0,180.0,1.0,0.0
587,64.0,0.0,180.0,7.0,0.0
588,78.0,0.0,150.0,5.0,0.0
589,64.0,0.0,180.0,2.0,0.0
590,78.0,48.0,150.0,0.0,0.0
591,68.0,0.0,180.0,6.0,0.0
592,83.0,48.0,150.0,0.0,0.0
593,63.0,0.0,180.0,2.0,0.0
594,66.0,0.0,180.0,1.0,0.0
595,66.0,0.0,180.0,6.0,0.0
596,83.0,0.0,150.0,5.0,0.0
597,63.0,192.0,180.0,7.0,0.0
598,64.0,0.0,180.0,6.0,0.0
599,87.0,0.0,150.0,5.0,0.0
600,61.0,0.0,180.0,2.0,0.0
601,87.0,48.0,150.0,0.0,0.0
602,61.0,0.0,180.0,7.0,0.0
603,64.0,240.0,180.0,1.0,0.0
604,90.0,0.0,300.0,5.0,0.0
605,63.0,96.0,180.0,6.0,0.0
606,47.0,0.0,780.0,4.0,0.0
607,59.0,0.0,780.0,3.0,0.0
608,90.0,144.0,300.0,0.0,0.0
609,63.0,0.0,180.0,1.0,0.0
610,59.0,0.0,780.0,8.0,0.0
611,59.0,0.0,180.0,7.0,0.0
612,59.0,0.0,180.0,2.0,0.0
613,47.0,144.0,780.0,10.0,0.0
614,63.0,0.0,180.0,6.0,0.0
615,59.0,0.0,180.0,2.0,0.0
616,59.0,240.0,180.0,7.0,0.0
617,63.0,0.0,180.0,1.0,0.0
618,66.0,0.0,180.0,6.0,0.0
619,90.0,0.0,300.0,0.0,0.0
620,63.0,0.0,180.0,7.0,0.0
621,66.0,0.0,180.0,1.0,0.0
622,63.0,96.0,180.0,2.0,0.0
623,90.0,0.0,300.0,5.0,0.0
624,66.0,0.0,180.0,6.0,0.0
625,66.0,0.0,180.0,1.0,0.0
626,63.0,0.0,180.0,7.0,0.0
627,63.0,240.0,180.0,2.0,0.0
628,71.0,96.0,180.0,6.0,0.0
629,90.0,144.0,300.0,5.0,0.0
630,71.0,0.0,180.0,1.0,0.0
631,90.0,0.0,300.0,0.0,0.0
632,66.0,0.0,180.0,2.0,0.0
633,66.0,0.0,180.0,7.0,0.0
634,66.0,240.0,180.0,2.0,0.0
635,71.0,0.0,180.0,1.0,0.0
636,66.0,0.0,180.0,7.0,0.0
637,71.0,0.0,180.0,6.0,0.0
638,75.0,96.0,180.0,1.0,0.0
639,75.0,0.0,180.0,6.0,0.0
640,90.0,144.0,300.0,0.0,0.0
641,71.0,0.0,180.0,2.0,0.0
642,90.0,0.0,300.0,5.0,0.0
643,71.0,0.0,180.0,7.0,0.0
644,75.0,240.0,180.0,1.0,0.0
645,75.0,0.0,180.0,6.0,0.0
646,71.0,0.0,180.0,7.0,0.0
647,71.0,0.0,180.0,2.0,0.0
648,42.0,0.0,390.0,4.0,0.0
649,54.0,0.0,390.0,8.0,0.0
650,42.0,0.0,390.0,10.0,0.0
651,73.0,96.0,180.0,2.0,0.0
652,82.0,96.0,300.0,0.0,0.0
653,76.0,0.0,180.0,6.0,0.0
654,73.0,0.0,180.0,7.0,0.0
655,82.0,0.0,300.0,5.0,0.0
656,76.0,0.0,180.0,1.0,0.0
657,54.0,48.0,390.0,3.0,0.0
658,76.0,0.0,180.0,1.0,0.0
659,73.0,128.0,180.0,2.0,0.0
660,73.0,0.0,180.0,7.0,0.0
661,76.0,0.0,180.0,6.0,0.0
662,76.0,0.0,180.0,6.0,0.0
663,82.0,0.0,90.0,5.0,0.0
664,73.0,0.0,180.0,7.0,0.0
665,82.0,80.0,90.0,0.0,0.0
666,73.0,48.0,180.0,2.0,0.0
667,76.0,0.0,180.0,1.0,0.0
668,83.0,0.0,90.0,5.0,0.0
669,83.0,32.0,90.0,0.0,0.0
670,82.0,120.0,90.0,0.0,0.0
671,82.0,0.0,90.0,5.0,0.0
672,80.0,0.0,120.0,5.0,0.0
673,76.0,0.0,180.0,1.0,0.0
674,73.0,0.0,180.0,2.0,0.0
675,80.0,72.0,120.0,0.0,0.0
676,73.0,48.0,180.0,7.0,0.0
677,76.0,0.0,180.0,6.0,0.0
678,82.0,192.0,120.0,0.0,0.0
679,82.0,0.0,120.0,5.0,0.0
680,83.0,0.0,300.0,5.0,0.0
681,44.0,0.0,390.0,10.0,0.0
682,71.0,0.0,180.0,2.0,0.0
683,44.0,0.0,390.0,4.0,0.0
684,75.0,0.0,180.0,6.0,0.0
685,75.0,0.0,180.0,1.0,0.0
686,56.0,0.0,390.0,8.0,0.0
687,71.0,96.0,180.0,7.0,0.0
688,83.0,96.0,300.0,0.0,0.0
689,56.0,48.0,390.0,3.0,0.0
690,75.0,128.0,180.0,1.0,0.0
691,71.0,0.0,180.0,7.0,0.0
692,71.0,0.0,180.0,2.0,0.0
693,75.0,0.0,180.0,6.0,0.0
694,75.0,0.0,180.0,6.0,0.0
695,83.0,80.0,90.0,5.0,0.0
696,71.0,0.0,180.0,2.0,0.0
697,83.0,0.0,90.0,0.0,0.0
698,71.0,0.0,180.0,7.0,0.0
699,75.0,48.0,180.0,1.0,0.0
700,85.0,0.0,90.0,5.0,0.0
701,85.0,32.0,90.0,0.0,0.0
702,83.0,0.0,90.0,5.0,0.0
703,83.0,120.0,90.0,0.0,0.0
704,75.0,0.0,180.0,6.0,0.0
705,82.0,72.0,120.0,5.0,0.0
706,71.0,0.0,180.0,2.0,0.0
707,71.0,0.0,180.0,7.0,0.0
708,82.0,0.0,120.0,0.0,0.0
709,75.0,48.0,180.0,1.0,0.0
710,83.0,0.0,120.0,0.0,0.0
711,83.0,192.0,120.0,5.0,0.0
712,80.0,0.0,180.0,6.0,0.0
713,71.0,0.0,180.0,7.0,0.0
714,40.0,0.0,390.0,4.0,0.0
715,85.0,96.0,300.0,0.0,0.0
716,52.0,0.0,390.0,8.0,0.0
717,40.0,48.0,390.0,10.0,0.0
718,80.0,96.0,180.0,1.0,0.0
719,85.0,0.0,300.0,5.0,0.0
720,52.0,0.0,390.0,3.0,0.0
721,71.0,0.0,180.0,2.0,0.0
722,71.0,240.0,180.0,2.0,0.0
723,80.0,0.0,180.0,6.0,0.0
724,71.0,0.0,180.0,7.0,0.0
725,80.0,0.0,180.0,1.0,0.0
726,80.0,0.0,180.0,1.0,0.0
727,80.0,0.0,180.0,6.0,0.0
728,71.0,0.0,180.0,7.0,0.0
729,85.0,0.0,300.0,0.0,0.0
730,71.0,96.0,180.0,2.0,0.0
731,85.0,144.0,300.0,5.0,0.0
732,71.0,0.0,180.0,7.0,0.0
733,80.0,0.0,180.0,6.0,0.0
734,71.0,0.0,180.0,2.0,0.0
735,80.0,240.0,180.0,1.0,0.0
736,70.0,0.0,180.0,2.0,0.0
737,76.0,0.0,180.0,6.0,0.0
738,54.0,0.0,390.0,3.0,0.0
739,42.0,0.0,390.0,4.0,0.0
740,78.0,0.0,390.0,0.0,0.0
741,42.0,0.0,390.0,10.0,0.0
742,78.0,48.0,390.0,5.0,0.0
743,70.0,0.0,180.0,7.0,0.0
744,54.0,0.0,390.0,8.0,0.0
745,76.0,192.0,180.0,1.0,0.0
746,76.0,0.0,180.0,6.0,0.0
747,70.0,240.0,180.0,2.0,0.0
748,76.0,0.0,180.0,1.0,0.0
749,70.0,0.0,180.0,7.0,0.0
750,80.0,0.0,180.0,5.0,0.0
751,76.0,0.0,180.0,1.0,0.0
752,80.0,0.0,180.0,0.0,0.0
753,76.0,0.0,180.0,6.0,0.0
754,71.0,0.0,180.0,7.0,0.0
755,71.0,240.0,180.0,2.0,0.0
756,82.0,0.0,180.0,5.0,0.0
757,76.0,0.0,180.0,1.0,0.0
758,82.0,0.0,180.0,0.0,0.0
759,73.0,240.0,180.0,7.0,0.0
760,73.0,0.0,180.0,2.0,0.0
761,76.0,0.0,180.0,6.0,0.0
762,71.0,0.0,180.0,2.0,0.0
763,35.0,0.0,180.0,4.0,0.0
764,83.0,0.0,1140.0,5.0,0.0
765,47.0,0.0,180.0,3.0,0.0
766,47.0,0.0,180.0,8.0,0.0
767,75.0,48.0,390.0,1.0,0.0
768,83.0,0.0,1140.0,0.0,0.0
769,75.0,0.0,390.0,6.0,0.0
770,35.0,0.0,180.0,10.0,0.0
771,71.0,192.0,180.0,7.0,0.0
772,47.0,0.0,180.0,10.0,0.0
773,59.0,0.0,180.0,8.0,0.0
774,66.0,0.0,180.0,7.0,0.0
775,59.0,0.0,180.0,3.0,0.0
776,47.0,0.0,180.0,4.0,0.0
777,63.0,0.0,180.0,7.0,0.0
778,66.0,0.0,180.0,2.0,0.0
779,63.0,240.0,180.0,2.0,0.0
780,66.0,0.0,180.0,2.0,0.0
781,63.0,0.0,180.0,2.0,0.0
782,59.0,0.0,180.0,8.0,0.0
783,59.0,0.0,180.0,3.0,0.0
784,66.0,240.0,180.0,7.0,0.0
785,63.0,0.0,180.0,7.0,0.0
786,47.0,0.0,180.0,4.0,0.0
787,47.0,0.0,180.0,10.0,0.0
788,47.0,0.0,180.0,4.0,0.0
789,59.0,0.0,180.0,8.0,0.0
790,59.0,0.0,180.0,3.0,0.0
791,63.0,0.0,180.0,7.0,0.0
792,66.0,240.0,180.0,2.0,0.0
793,66.0,0.0,180.0,7.0,0.0
794,63.0,0.0,180.0,2.0,0.0
795,47.0,0.0,180.0,10.0,0.0
796,47.0,0.0,180.0,10.0,0.0
797,66.0,0.0,180.0,2.0,0.0
798,59.0,0.0,180.0,8.0,0.0
799,64.0,240.0,180.0,2.0,0.0
800,66.0,0.0,180.0,7.0,0.0
801,59.0,0.0,180.0,3.0,0.0
802,64.0,0.0,180.0,7.0,0.0
803,47.0,0.0,180.0,4.0,0.0
804,64.0,0.0,180.0,2.0,0.0
805,85.0,0.0,180.0,0.0,0.0
806,66.0,0.0,180.0,2.0,0.0
807,66.0,0.0,180.0,7.0,0.0
808,64.0,0.0,180.0,7.0,0.0
809,47.0,0.0,180.0,4.0,0.0
810,59.0,0.0,180.0,8.0,0.0
811,85.0,240.0,180.0,5.0,0.0
812,47.0,0.0,180.0,10.0,0.0
813,59.0,0.0,180.0,3.0,0.0
814,59.0,0.0,180.0,3.0,0.0
815,82.0,0.0,180.0,0.0,0.0
816,82.0,0.0,180.0,5.0,0.0
817,64.0,0.0,180.0,7.0,0.0
818,66.0,240.0,180.0,7.0,0.0
819,47.0,0.0,180.0,4.0,0.0
820,64.0,0.0,180.0,2.0,0.0
821,66.0,0.0,180.0,2.0,0.0
822,47.0,0.0,180.0,10.0,0.0
823,59.0,0.0,180.0,8.0,0.0
824,47.0,0.0,180.0,10.0,0.0
825,66.0,0.0,180.0,7.0,0.0
826,64.0,0.0,180.0,7.0,0.0
827,66.0,0.0,180.0,2.0,0.0
828,64.0,0.0,180.0,2.0,0.0
829,47.0,240.0,180.0,4.0,0.0
830,59.0,0.0,180.0,3.0,0.0
831,59.0,0.0,180.0,8.0,0.0
832,78.0,0.0,180.0,0.0,0.0
833,78.0,0.0,180.0,5.0,0.0
834,63.0,0.0,180.0,7.0,0.0
835,35.0,0.0,180.0,10.0,0.0
836,63.0,0.0,180.0,2.0,0.0
837,66.0,0.0,180.0,2.0,0.0
838,83.0,0.0,1140.0,1.0,0.0
839,47.0,0.0,180.0,3.0,0.0
840,87.0,240.0,1140.0,5.0,0.0
841,66.0,0.0,180.0,7.0,0.0
842,83.0,0.0,1140.0,6.0,0.0
843,47.0,240.0,180.0,8.0,0.0
844,87.0,0.0,1140.0,0.0,0.0
845,35.0,0.0,180.0,4.0,0.0
846,59.0,0.0,180.0,3.0,0.0
847,47.0,0.0,180.0,10.0,0.0
848,59.0,0.0,180.0,8.0,0.0
849,63.0,0.0,180.0,7.0,0.0
850,66.0,0.0,180.0,7.0,0.0
851,47.0,0.0,180.0,4.0,0.0
852,63.0,240.0,180.0,2.0,0.0
853,66.0,0.0,180.0,2.0,0.0
854,66.0,0.0,180.0,7.0,0.0
855,59.0,0.0,180.0,3.0,0.0
856,63.0,0.0,180.0,7.0,0.0
857,47.0,0.0,180.0,4.0,0.0
858,63.0,240.0,180.0,2.0,0.0
859,66.0,0.0,180.0,2.0,0.0
860,59.0,0.0,180.0,8.0,0.0
861,47.0,0.0,180.0,10.0,0.0
862,47.0,240.0,180.0,4.0,0.0
863,59.0,0.0,180.0,3.0,0.0
864,66.0,0.0,180.0,7.0,0.0
865,66.0,0.0,180.0,2.0,0.0
866,47.0,0.0,180.0,10.0,0.0
867,59.0,0.0,180.0,8.0,0.0
868,63.0,0.0,180.0,7.0,0.0
869,63.0,0.0,180.0,2.0,0.0
870,59.0,0.0,180.0,3.0,0.0
871,47.0,0.0,180.0,4.0,0.0
872,59.0,0.0,180.0,8.0,0.0
873,64.0,0.0,180.0,7.0,0.0
874,47.0,0.0,180.0,10.0,0.0
875,66.0,0.0,180.0,2.0,0.0
876,64.0,0.0,180.0,2.0,0.0
877,66.0,0.0,180.0,7.0,0.0
878,64.0,0.0,180.0,7.0,0.0
879,66.0,0.0,180.0,2.0,0.0
880,64.0,0.0,180.0,2.0,0.0
881,88.0,0.0,180.0,5.0,0.0
882,59.0,0.0,180.0,8.0,0.0
883,85.0,0.0,180.0,6.0,0.0
884,66.0,0.0,180.0,7.0,0.0
885,88.0,0.0,180.0,0.0,0.0
886,47.0,240.0,180.0,10.0,0.0
887,47.0,0.0,180.0,4.0,0.0
888,59.0,0.0,180.0,3.0,0.0
889,85.0,0.0,180.0,1.0,0.0
890,47.0,0.0,180.0,4.0,0.0
891,64.0,0.0,180.0,2.0,0.0
892,47.0,0.0,180.0,10.0,0.0
893,64.0,0.0,180.0,7.0,0.0
894,66.0,0.0,180.0,2.0,0.0
895,85.0,0.0,180.0,0.0,0.0
896,66.0,240.0,180.0,7.0,0.0
897,59.0,0.0,180.0,3.0,0.0
898,82.0,0.0,180.0,1.0,0.0
899,82.0,0.0,180.0,6.0,0.0
900,59.0,0.0,180.0,8.0,0.0
901,85.0,0.0,180.0,5.0,0.0
902,59.0,0.0,180.0,3.0,0.0
903,47.0,0.0,180.0,10.0,0.0
904,78.0,0.0,180.0,6.0,0.0
905,82.0,0.0,180.0,0.0,0.0
906,47.0,0.0,180.0,4.0,0.0
907,66.0,0.0,180.0,2.0,0.0
908,59.0,0.0,180.0,8.0,0.0
909,64.0,0.0,180.0,2.0,0.0
910,82.0,0.0,180.0,5.0,0.0
911,78.0,0.0,180.0,1.0,0.0
912,64.0,0.0,180.0,7.0,0.0
913,66.0,240.0,180.0,7.0,0.0
914,47.0,0.0,1140.0,4.0,0.0
915,63.0,240.0,390.0,2.0,0.0
916,66.0,0.0,300.0,2.0,0.0
917,59.0,0.0,1140.0,8.0,0.0
918,90.0,0.0,180.0,5.0,0.0
919,87.0,240.0,1140.0,6.0,0.0
920,47.0,0.0,1140.0,10.0,0.0
921,63.0,0.0,390.0,7.0,0.0
922,66.0,96.0,300.0,7.0,0.0
923,59.0,0.0,1140.0,3.0,0.0
924,90.0,96.0,180.0,0.0,0.0
925,87.0,0.0,1140.0,1.0,0.0
926,90.0,0.0,390.0,0.0,0.0
927,90.0,480.0,390.0,5.0,0.0
928,71.0,0.0,660.0,2.0,0.0
929,71.0,0.0,660.0,7.0,0.0
930,90.0,0.0,390.0,5.0,0.0
931,90.0,48.0,390.0,0.0,0.0
932,49.0,0.0,180.0,4.0,0.0
933,73.0,0.0,180.0,7.0,0.0
934,88.0,0.0,180.0,6.0,0.0
935,61.0,0.0,180.0,3.0,0.0
936,90.0,0.0,390.0,5.0,0.0
937,61.0,0.0,180.0,8.0,0.0
938,90.0,48.0,390.0,0.0,0.0
939,49.0,192.0,180.0,10.0,0.0
940,88.0,0.0,180.0,1.0,0.0
941,73.0,0.0,180.0,2.0,0.0
942,58.0,0.0,180.0,3.0,0.0
943,85.0,240.0,180.0,1.0,0.0
944,46.0,0.0,180.0,10.0,0.0
945,85.0,0.0,180.0,6.0,0.0
946,70.0,0.0,180.0,2.0,0.0
947,58.0,0.0,180.0,8.0,0.0
948,46.0,0.0,180.0,4.0,0.0
949,70.0,0.0,180.0,7.0,0.0
950,42.0,0.0,180.0,4.0,0.0
951,90.0,432.0,420.0,0.0,0.0
952,54.0,0.0,180.0,3.0,0.0
953,66.0,0.0,180.0,7.0,0.0
954,82.0,0.0,180.0,1.0,0.0
955,42.0,240.0,180.0,10.0,0.0
956,90.0,0.0,420.0,5.0,0.0
957,54.0,0.0,180.0,8.0,0.0
958,82.0,0.0,180.0,6.0,0.0
959,66.0,0.0,180.0,2.0,0.0
960,75.0,0.0,1140.0,7.0,0.0
961,75.0,240.0,1140.0,2.0,0.0
962,83.0,0.0,1140.0,1.0,0.0
963,51.0,0.0,1140.0,4.0,0.0
964,63.0,0.0,1140.0,8.0,0.0
965,83.0,0.0,1140.0,6.0,0.0
966,51.0,0.0,1140.0,10.0,0.0
967,63.0,0.0,1140.0,3.0,0.0
968,90.0,480.0,390.0,0.0,0.0
969,90.0,0.0,390.0,5.0,0.0
970,90.0,0.0,390.0,5.0,0.0
971,90.0,48.0,390.0,0.0,0.0
972,76.0,0.0,180.0,2.0,0.0
973,52.0,0.0,180.0,4.0,0.0
974,52.0,0.0,180.0,10.0,0.0
975,76.0,0.0,180.0,7.0,0.0
976,90.0,48.0,390.0,0.0,0.0
977,64.0,192.0,180.0,8.0,0.0
978,85.0,0.0,180.0,6.0,0.0
979,64.0,0.0,180.0,3.0,0.0
980,85.0,0.0,180.0,1.0,0.0
981,90.0,0.0,390.0,5.0,0.0
982,73.0,0.0,180.0,2.0,0.0
983,82.0,0.0,180.0,1.0,0.0
984,49.0,240.0,180.0,10.0,0.0
985,61.0,0.0,180.0,8.0,0.0
986,82.0,0.0,180.0,6.0,0.0
987,61.0,0.0,180.0,3.0,0.0
988,73.0,0.0,180.0,7.0,0.0
989,49.0,0.0,180.0,4.0,0.0
990,46.0,0.0,180.0,10.0,0.0
991,58.0,288.0,180.0,3.0,0.0
992,46.0,0.0,180.0,4.0,0.0
993,90.0,0.0,480.0,0.0,0.0
994,70.0,0.0,180.0,2.0,0.0
995,78.0,0.0,180.0,1.0,0.0
996,90.0,48.0,480.0,5.0,0.0
997,70.0,0.0,180.0,7.0,0.0
998,78.0,0.0,180.0,6.0,0.0
999,58.0,0.0,180.0,8.0,0.0
1000,47.0,0.0,300.0,4.0,0.0
1001,71.0,0.0,300.0,7.0,0.0
1002,87.0,144.0,300.0,1.0,0.0
1003,87.0,0.0,300.0,6.0,0.0
1004,59.0,0.0,300.0,8.0,0.0
1005,71.0,0.0,300.0,2.0,0.0
1006,59.0,0.0,300.0,3.0,0.0
1007,47.0,0.0,300.0,10.0,0.0
1008,87.0,0.0,180.0,5.0,0.0
1009,87.0,192.0,180.0,0.0,0.0
1010,51.0,0.0,150.0,10.0,0.0
1011,87.0,0.0,180.0,0.0,0.0
1012,75.0,0.0,180.0,7.0,0.0
1013,63.0,48.0,150.0,8.0,0.0
1014,87.0,192.0,180.0,5.0,0.0
1015,75.0,0.0,180.0,2.0,0.0
1016,63.0,0.0,150.0,3.0,0.0
1017,51.0,0.0,150.0,4.0,0.0
1018,87.0,0.0,150.0,6.0,0.0
1019,87.0,0.0,150.0,1.0,0.0
1020,87.0,0.0,180.0,0.0,0.0
1021,87.0,0.0,180.0,5.0,0.0
1022,75.0,0.0,180.0,7.0,0.0
1023,87.0,0.0,150.0,6.0,0.0
1024,87.0,48.0,150.0,1.0,0.0
1025,63.0,0.0,150.0,8.0,0.0
1026,51.0,0.0,150.0,4.0,0.0
1027,63.0,0.0,150.0,3.0,0.0
1028,51.0,0.0,150.0,10.0,0.0
1029,75.0,288.0,180.0,2.0,0.0
1030,63.0,0.0,240.0,3.0,0.0
1031,87.0,0.0,240.0,0.0,0.0
1032,75.0,0.0,240.0,7.0,0.0
1033,63.0,0.0,240.0,8.0,0.0
1034,51.0,0.0,240.0,10.0,0.0
1035,75.0,192.0,240.0,2.0,0.0
1036,87.0,0.0,240.0,5.0,0.0
1037,51.0,0.0,240.0,4.0,0.0
1038,87.0,0.0,240.0,6.0,0.0
1039,87.0,0.0,240.0,1.0,0.0
1040,71.0,0.0,180.0,7.0,0.0
1041,59.0,0.0,180.0,8.0,0.0
1042,83.0,0.0,180.0,1.0,0.0
1043,83.0,0.0,180.0,5.0,0.0
1044,71.0,0.0,180.0,2.0,0.0
1045,47.0,0.0,180.0,10.0,0.0
1046,83.0,240.0,180.0,0.0,0.0
1047,59.0,0.0,180.0,3.0,0.0
1048,47.0,0.0,180.0,4.0,0.0
1049,83.0,0.0,180.0,6.0,0.0
1050,59.0,0.0,180.0,8.0,0.0
1051,83.0,0.0,180.0,6.0,0.0
1052,47.0,0.0,180.0,4.0,0.0
1053,47.0,0.0,180.0,10.0,0.0
1054,83.0,0.0,180.0,1.0,0.0
1055,71.0,0.0,180.0,7.0,0.0
1056,59.0,0.0,180.0,3.0,0.0
1057,71.0,240.0,180.0,2.0,0.0
1058,83.0,0.0,180.0,5.0,0.0
1059,83.0,0.0,180.0,0.0,0.0
1060,83.0,0.0,180.0,1.0,0.0
1061,83.0,0.0,180.0,0.0,0.0
1062,83.0,0.0,180.0,6.0,0.0
1063,71.0,288.0,180.0,7.0,0.0
1064,47.0,0.0,180.0,4.0,0.0
1065,71.0,0.0,180.0,2.0,0.0
1066,59.0,0.0,180.0,8.0,0.0
1067,47.0,0.0,180.0,10.0,0.0
1068,59.0,0.0,180.0,3.0,0.0
1069,83.0,0.0,180.0,5.0,0.0
1070,83.0,192.0,240.0,5.0,0.0
1071,83.0,0.0,240.0,1.0,0.0
1072,83.0,0.0,240.0,6.0,0.0
1073,71.0,0.0,240.0,7.0,0.0
1074,71.0,0.0,240.0,2.0,0.0
1075,83.0,0.0,240.0,0.0,0.0
1076,47.0,0.0,240.0,4.0,0.0
1077,59.0,0.0,240.0,3.0,0.0
1078,59.0,0.0,240.0,8.0,0.0
1079,47.0,0.0,240.0,10.0,0.0
1080,42.0,0.0,180.0,4.0,0.0
1081,66.0,0.0,180.0,7.0,0.0
1082,78.0,0.0,180.0,0.0,0.0
1083,78.0,0.0,180.0,6.0,0.0
1084,78.0,0.0,180.0,1.0,0.0
1085,66.0,0.0,180.0,2.0,0.0
1086,54.0,0.0,180.0,3.0,0.0
1087,54.0,0.0,180.0,8.0,0.0
1088,42.0,0.0,180.0,10.0,0.0
1089,78.0,240.0,180.0,5.0,0.0
1090,66.0,0.0,180.0,2.0,0.0
1091,54.0,0.0,180.0,3.0,0.0
1092,78.0,0.0,180.0,5.0,0.0
1093,42.0,0.0,180.0,4.0,0.0
1094,42.0,0.0,180.0,10.0,0.0
1095,66.0,240.0,180.0,7.0,0.0
1096,54.0,0.0,180.0,8.0,0.0
1097,78.0,0.0,180.0,0.0,0.0
1098,78.0,0.0,180.0,6.0,0.0
1099,78.0,0.0,180.0,1.0,0.0
1100,66.0,288.0,180.0,2.0,0.0
1101,78.0,0.0,180.0,6.0,0.0
1102,78.0,0.0,180.0,5.0,0.0
1103,78.0,0.0,180.0,0.0,0.0
1104,78.0,0.0,180.0,1.0,0.0
1105,66.0,0.0,180.0,7.0,0.0
1106,42.0,0.0,180.0,4.0,0.0
1107,42.0,0.0,180.0,10.0,0.0
1108,54.0,0.0,180.0,3.0,0.0
1109,54.0,0.0,180.0,8.0,0.0
1110,54.0,0.0,240.0,8.0,0.0
1111,78.0,0.0,240.0,5.0,0.0
1112,78.0,0.0,240.0,1.0,0.0
1113,78.0,0.0,240.0,0.0,0.0
1114,42.0,0.0,240.0,10.0,0.0
1115,66.0,0.0,240.0,2.0,0.0
1116,66.0,192.0,240.0,7.0,0.0
1117,78.0,0.0,240.0,6.0,0.0
1118,42.0,0.0,240.0,4.0,0.0
1119,54.0,0.0,240.0,3.0,0.0
1120,51.0,240.0,180.0,3.0,0.0
1121,63.0,0.0,180.0,2.0,0.0
1122,39.0,0.0,180.0,4.0,0.0
1123,39.0,0.0,180.0,10.0,0.0
1124,75.0,0.0,180.0,6.0,0.0
1125,75.0,0.0,180.0,1.0,0.0
1126,75.0,0.0,180.0,5.0,0.0
1127,51.0,0.0,180.0,8.0,0.0
1128,75.0,0.0,180.0,0.0,0.0
1129,63.0,0.0,180.0,7.0,0.0
1130,39.0,0.0,180.0,10.0,0.0
1131,63.0,0.0,240.0,7.0,0.0
1132,39.0,48.0,180.0,4.0,0.0
1133,75.0,0.0,240.0,6.0,0.0
1134,75.0,0.0,240.0,0.0,0.0
1135,51.0,0.0,180.0,3.0,0.0
1136,63.0,192.0,240.0,2.0,0.0
1137,51.0,0.0,180.0,8.0,0.0
1138,75.0,0.0,240.0,1.0,0.0
1139,75.0,0.0,240.0,5.0,0.0
1140,71.0,0.0,180.0,0.0,0.0
1141,47.0,0.0,180.0,8.0,0.0
1142,35.0,0.0,180.0,4.0,0.0
1143,59.0,0.0,180.0,7.0,0.0
1144,59.0,0.0,180.0,2.0,0.0
1145,71.0,0.0,180.0,5.0,0.0
1146,47.0,0.0,180.0,3.0,0.0
1147,35.0,0.0,180.0,10.0,0.0
1148,71.0,240.0,180.0,6.0,0.0
1149,71.0,0.0,180.0,1.0,0.0
1150,78.0,0.0,300.0,0.0,0.0
1151,78.0,0.0,300.0,5.0,0.0
1152,54.0,96.0,180.0,3.0,0.0
1153,66.0,0.0,180.0,2.0,0.0
1154,42.0,0.0,180.0,4.0,0.0
1155,66.0,0.0,180.0,7.0,0.0
1156,42.0,0.0,180.0,10.0,0.0
1157,54.0,0.0,180.0,8.0,0.0
1158,78.0,144.0,300.0,6.0,0.0
1159,78.0,0.0,300.0,1.0,0.0
1160,54.0,0.0,180.0,10.0,0.0
1161,78.0,0.0,180.0,2.0,0.0
1162,66.0,240.0,180.0,3.0,0.0
1163,78.0,0.0,180.0,7.0,0.0
1164,66.0,0.0,180.0,8.0,0.0
1165,54.0,0.0,180.0,4.0,0.0
1166,52.0,0.0,180.0,10.0,0.0
1167,52.0,0.0,180.0,4.0,0.0
1168,76.0,96.0,180.0,2.0,0.0
1169,76.0,0.0,180.0,7.0,0.0
1170,64.0,0.0,180.0,3.0,0.0
1171,66.0,0.0,300.0,1.0,0.0
1172,73.0,0.0,300.0,5.0,0.0
1173,82.0,144.0,300.0,6.0,0.0
1174,73.0,0.0,300.0,1.0,0.0
1175,82.0,0.0,300.0,1.0,0.0
1176,64.0,0.0,180.0,8.0,0.0
1177,66.0,0.0,300.0,6.0,0.0
1178,66.0,0.0,300.0,0.0,0.0
1179,82.0,0.0,300.0,0.0,0.0
1180,73.0,0.0,300.0,0.0,0.0
1181,73.0,0.0,300.0,6.0,0.0
1182,82.0,0.0,300.0,5.0,0.0
1183,66.0,0.0,300.0,5.0,0.0
1184,66.0,0.0,180.0,3.0,0.0
1185,66.0,0.0,180.0,8.0,0.0
1186,78.0,0.0,180.0,2.0,0.0
1187,78.0,0.0,180.0,7.0,0.0
1188,54.0,240.0,180.0,10.0,0.0
1189,54.0,0.0,180.0,4.0,0.0
1190,83.0,0.0,300.0,6.0,0.0
1191,66.0,0.0,300.0,1.0,0.0
1192,75.0,0.0,300.0,0.0,0.0
1193,66.0,0.0,300.0,0.0,0.0
1194,51.0,0.0,180.0,4.0,0.0
1195,63.0,0.0,180.0,3.0,0.0
1196,83.0,0.0,300.0,0.0,0.0
1197,51.0,0.0,180.0,10.0,0.0
1198,75.0,144.0,300.0,1.0,0.0
1199,83.0,0.0,300.0,1.0,0.0
1200,66.0,0.0,300.0,6.0,0.0
1201,75.0,0.0,180.0,2.0,0.0
1202,75.0,0.0,180.0,7.0,0.0
1203,63.0,96.0,180.0,8.0,0.0
1204,75.0,0.0,300.0,5.0,0.0
1205,66.0,0.0,300.0,5.0,0.0
1206,83.0,0.0,300.0,5.0,0.0
1207,75.0,0.0,300.0,6.0,0.0
1208,78.0,0.0,180.0,2.0,0.0
1209,66.0,240.0,180.0,8.0,0.0
1210,66.0,0.0,180.0,3.0,0.0
1211,78.0,0.0,180.0,7.0,0.0
1212,54.0,0.0,180.0,4.0,0.0
1213,54.0,0.0,180.0,10.0,0.0
1214,75.0,0.0,180.0,7.0,0.0
1215,63.0,0.0,180.0,8.0,0.0
1216,75.0,0.0,180.0,2.0,0.0
1217,87.0,0.0,300.0,5.0,0.0
1218,83.0,0.0,300.0,6.0,0.0
1219,87.0,0.0,300.0,0.0,0.0
1220,63.0,0.0,180.0,3.0,0.0
1221,51.0,96.0,180.0,4.0,0.0
1222,66.0,0.0,300.0,6.0,0.0
1223,51.0,0.0,180.0,10.0,0.0
1224,83.0,0.0,300.0,1.0,0.0
1225,75.0,0.0,300.0,1.0,0.0
1226,66.0,144.0,300.0,1.0,0.0
1227,75.0,0.0,300.0,6.0,0.0
1228,71.0,0.0,180.0,7.0,0.0
1229,47.0,0.0,180.0,4.0,0.0
1230,59.0,0.0,180.0,8.0,0.0
1231,71.0,336.0,180.0,2.0,0.0
1232,47.0,0.0,180.0,10.0,0.0
1233,59.0,0.0,180.0,3.0,0.0
1234,82.0,0.0,300.0,6.0,0.0
1235,90.0,0.0,390.0,5.0,0.0
1236,73.0,0.0,300.0,6.0,0.0
1237,66.0,0.0,390.0,7.0,0.0
1238,42.0,0.0,390.0,10.0,0.0
1239,54.0,0.0,390.0,3.0,0.0
1240,66.0,96.0,300.0,6.0,0.0
1241,73.0,0.0,300.0,1.0,0.0
1242,90.0,480.0,390.0,0.0,0.0
1243,54.0,0.0,390.0,8.0,0.0
1244,66.0,0.0,300.0,1.0,0.0
1245,66.0,0.0,390.0,2.0,0.0
1246,42.0,0.0,390.0,4.0,0.0
1247,82.0,0.0,300.0,1.0,0.0
1248,42.0,0.0,390.0,4.0,0.0
1249,54.0,0.0,390.0,8.0,0.0
1250,66.0,0.0,390.0,5.0,0.0
1251,66.0,0.0,390.0,1.0,0.0
1252,66.0,0.0,390.0,2.0,0.0
1253,66.0,0.0,390.0,6.0,0.0
1254,54.0,480.0,390.0,3.0,0.0
1255,42.0,0.0,390.0,10.0,0.0
1256,66.0,0.0,390.0,7.0,0.0
1257,66.0,0.0,390.0,0.0,0.0
1258,42.0,0.0,390.0,4.0,0.0
1259,66.0,0.0,390.0,7.0,0.0
1260,54.0,0.0,390.0,8.0,0.0
1261,42.0,0.0,390.0,10.0,0.0
1262,54.0,1536.0,390.0,3.0,0.0
1263,66.0,0.0,390.0,0.0,0.0
1264,66.0,0.0,390.0,6.0,0.0
1265,66.0,0.0,390.0,5.0,0.0
1266,66.0,0.0,390.0,2.0,0.0
1267,66.0,0.0,390.0,1.0,0.0
1268,85.0,0.0,960.0,5.0,0.0
1269,85.0,192.0,960.0,0.0,0.0
1270,66.0,0.0,480.0,7.0,0.0
1271,70.0,0.0,480.0,6.0,0.0
1272,66.0,0.0,480.0,2.0,0.0
1273,70.0,0.0,480.0,1.0,0.0
1274,77.0,0.0,180.0,5.0,0.0
1275,77.0,0.0,180.0,0.0,0.0
1276,71.0,0.0,180.0,1.0,0.0
1277,68.0,0.0,180.0,2.0,0.0
1278,68.0,0.0,180.0,7.0,0.0
1279,71.0,480.0,180.0,6.0,0.0
1280,73.0,480.0,180.0,6.0,0.0
1281,78.0,0.0,180.0,5.0,0.0
1282,70.0,0.0,180.0,2.0,0.0
1283,73.0,0.0,180.0,1.0,0.0
1284,70.0,0.0,180.0,7.0,0.0
1285,78.0,0.0,180.0,0.0,0.0
1286,71.0,480.0,180.0,7.0,0.0
1287,71.0,0.0,180.0,2.0,0.0
1288,75.0,0.0,180.0,6.0,0.0
1289,75.0,0.0,180.0,1.0,0.0
1290,80.0,0.0,180.0,5.0,0.0
1291,80.0,0.0,180.0,0.0,0.0
1292,77.0,0.0,180.0,1.0,0.0
1293,82.0,0.0,180.0,0.0,0.0
1294,77.0,0.0,180.0,6.0,0.0
1295,73.0,0.0,180.0,2.0,0.0
1296,82.0,0.0,180.0,5.0,0.0
1297,73.0,480.0,180.0,7.0,0.0
1298,78.0,480.0,180.0,6.0,0.0
1299,75.0,0.0,180.0,2.0,0.0
1300,83.0,0.0,180.0,0.0,0.0
1301,78.0,0.0,180.0,1.0,0.0
1302,83.0,0.0,180.0,5.0,0.0
1303,75.0,0.0,180.0,7.0,0.0
1304,80.0,0.0,180.0,1.0,0.0
1305,77.0,528.0,180.0,2.0,0.0
1306,80.0,0.0,180.0,6.0,0.0
1307,77.0,0.0,180.0,7.0,0.0
1308,78.0,0.0,240.0,1.0,0.0
1309,78.0,0.0,390.0,7.0,0.0
1310,82.0,144.0,240.0,0.0,0.0
1311,82.0,0.0,240.0,5.0,0.0
1312,78.0,0.0,240.0,6.0,0.0
1313,78.0,96.0,390.0,2.0,0.0
1314,80.0,0.0,240.0,6.0,0.0
1315,83.0,240.0,240.0,0.0,0.0
1316,80.0,0.0,240.0,1.0,0.0
1317,83.0,0.0,240.0,5.0,0.0
1318,81.0,240.0,240.0,1.0,0.0
1319,84.0,0.0,240.0,0.0,0.0
1320,81.0,0.0,240.0,6.0,0.0
1321,84.0,0.0,240.0,5.0,0.0
1322,82.0,0.0,240.0,6.0,0.0
1323,85.0,0.0,240.0,0.0,0.0
1324,85.0,240.0,240.0,5.0,0.0
1325,82.0,0.0,240.0,1.0,0.0
1326,59.0,96.0,390.0,7.0,0.0
1327,59.0,0.0,390.0,2.0,0.0
1328,77.0,0.0,240.0,1.0,0.0
1329,86.0,0.0,240.0,5.0,0.0
1330,77.0,0.0,240.0,6.0,0.0
1331,86.0,144.0,240.0,0.0,0.0
1332,78.0,0.0,240.0,6.0,0.0
1333,87.0,0.0,240.0,0.0,0.0
1334,78.0,240.0,240.0,1.0,0.0
1335,87.0,0.0,240.0,5.0,0.0
1336,75.0,0.0,240.0,6.0,0.0
1337,83.0,0.0,240.0,0.0,0.0
1338,83.0,192.0,240.0,5.0,0.0
1339,75.0,0.0,240.0,1.0,0.0
1340,71.0,0.0,180.0,1.0,0.0
1341,71.0,0.0,180.0,6.0,0.0
1342,80.0,240.0,180.0,5.0,0.0
1343,80.0,0.0,180.0,0.0,0.0
1344,70.0,192.0,960.0,6.0,0.0
1345,61.0,0.0,180.0,7.0,0.0
1346,78.0,0.0,960.0,0.0,0.0
1347,70.0,0.0,960.0,1.0,0.0
1348,61.0,240.0,180.0,2.0,0.0
1349,78.0,0.0,960.0,5.0,0.0
1350,60.0,0.0,180.0,7.0,0.0
1351,60.0,240.0,180.0,2.0,0.0
1352,61.0,240.0,180.0,7.0,0.0
1353,61.0,0.0,180.0,2.0,0.0
1354,60.0,0.0,180.0,7.0,0.0
1355,60.0,48.0,180.0,2.0,0.0
1356,61.0,0.0,180.0,7.0,0.0
1357,61.0,192.0,180.0,2.0,0.0
1358,77.0,0.0,390.0,0.0,0.0
1359,77.0,48.0,390.0,5.0,0.0
1360,68.0,0.0,390.0,6.0,0.0
1361,68.0,0.0,390.0,1.0,0.0
1362,63.0,0.0,180.0,7.0,0.0
1363,63.0,240.0,180.0,2.0,0.0
1364,59.0,0.0,180.0,7.0,0.0
1365,59.0,240.0,180.0,2.0,0.0
1366,56.0,240.0,180.0,7.0,0.0
1367,56.0,0.0,180.0,2.0,0.0
1368,54.0,768.0,180.0,7.0,0.0
1369,54.0,0.0,180.0,2.0,0.0
1370,85.0,0.0,960.0,0.0,0.0
1371,73.0,0.0,960.0,1.0,0.0
1372,73.0,0.0,960.0,6.0,0.0
1373,85.0,0.0,960.0,5.0,0.0
1374,58.0,192.0,480.0,7.0,0.0
1375,54.0,0.0,480.0,3.0,0.0
1376,42.0,0.0,480.0,4.0,0.0
1377,58.0,0.0,480.0,2.0,0.0
1378,42.0,0.0,480.0,10.0,0.0
1379,54.0,0.0,480.0,8.0,0.0
1380,56.0,480.0,180.0,3.0,0.0
1381,65.0,0.0,180.0,1.0,0.0
1382,56.0,0.0,180.0,8.0,0.0
1383,77.0,0.0,180.0,0.0,0.0
1384,59.0,0.0,180.0,2.0,0.0
1385,44.0,0.0,180.0,10.0,0.0
1386,44.0,0.0,180.0,4.0,0.0
1387,65.0,0.0,180.0,6.0,0.0
1388,77.0,0.0,180.0,5.0,0.0
1389,59.0,0.0,180.0,7.0,0.0
1390,58.0,0.0,180.0,8.0,0.0
1391,58.0,0.0,180.0,3.0,0.0
1392,78.0,0.0,180.0,0.0,0.0
1393,61.0,0.0,180.0,7.0,0.0
1394,61.0,0.0,180.0,2.0,0.0
1395,66.0,480.0,180.0,6.0,0.0
1396,46.0,0.0,180.0,4.0,0.0
1397,66.0,0.0,180.0,1.0,0.0
1398,46.0,0.0,180.0,10.0,0.0
1399,78.0,0.0,180.0,5.0,0.0
1400,59.0,0.0,180.0,3.0,0.0
1401,68.0,0.0,180.0,1.0,0.0
1402,80.0,0.0,180.0,0.0,0.0
1403,63.0,0.0,180.0,7.0,0.0
1404,47.0,0.0,180.0,4.0,0.0
1405,63.0,0.0,180.0,2.0,0.0
1406,47.0,0.0,180.0,10.0,0.0
1407,59.0,0.0,180.0,8.0,0.0
1408,68.0,480.0,180.0,6.0,0.0
1409,80.0,0.0,180.0,5.0,0.0
1410,70.0,0.0,180.0,6.0,0.0
1411,70.0,0.0,180.0,1.0,0.0
1412,65.0,0.0,180.0,7.0,0.0
1413,49.0,0.0,180.0,4.0,0.0
1414,65.0,0.0,180.0,2.0,0.0
1415,61.0,0.0,180.0,8.0,0.0
1416,82.0,0.0,180.0,5.0,0.0
1417,61.0,480.0,180.0,3.0,0.0
1418,82.0,0.0,180.0,0.0,0.0
1419,49.0,0.0,180.0,10.0,0.0
1420,51.0,0.0,180.0,10.0,0.0
1421,63.0,0.0,180.0,8.0,0.0
1422,51.0,0.0,180.0,4.0,0.0
1423,71.0,0.0,180.0,6.0,0.0
1424,66.0,480.0,180.0,2.0,0.0
1425,83.0,0.0,180.0,0.0,0.0
1426,66.0,0.0,180.0,7.0,0.0
1427,71.0,0.0,180.0,1.0,0.0
1428,63.0,0.0,180.0,3.0,0.0
1429,83.0,0.0,180.0,5.0,0.0
1430,53.0,0.0,180.0,10.0,0.0
1431,68.0,0.0,180.0,7.0,0.0
1432,65.0,0.0,180.0,3.0,0.0
1433,65.0,0.0,180.0,8.0,0.0
1434,53.0,0.0,180.0,4.0,0.0
1435,68.0,672.0,180.0,2.0,0.0
1436,54.0,0.0,390.0,10.0,0.0
1437,82.0,0.0,480.0,0.0,0.0
1438,70.0,0.0,480.0,6.0,0.0
1439,70.0,384.0,480.0,1.0,0.0
1440,54.0,96.0,390.0,4.0,0.0
1441,61.0,384.0,960.0,2.0,0.0
1442,66.0,0.0,390.0,8.0,0.0
1443,82.0,0.0,480.0,5.0,0.0
1444,66.0,0.0,390.0,3.0,0.0
1445,61.0,0.0,960.0,7.0,0.0
1446,42.0,0.0,390.0,4.0,0.0
1447,82.0,0.0,960.0,6.0,0.0
1448,54.0,96.0,390.0,3.0,0.0
1449,54.0,0.0,390.0,8.0,0.0
1450,90.0,0.0,960.0,0.0,0.0
1451,90.0,0.0,960.0,5.0,0.0
1452,82.0,384.0,960.0,1.0,0.0
1453,42.0,0.0,390.0,10.0,0.0
1454,51.0,0.0,390.0,3.0,0.0
1455,39.0,0.0,390.0,10.0,0.0
1456,63.0,0.0,480.0,7.0,0.0
1457,63.0,0.0,480.0,2.0,0.0
1458,51.0,0.0,390.0,8.0,0.0
1459,39.0,96.0,390.0,4.0,0.0
1460,84.0,276.0,390.0,5.0,0.0
1461,56.0,0.0,390.0,3.0,0.0
1462,44.0,0.0,390.0,4.0,0.0
1463,66.0,0.0,390.0,2.0,0.0
1464,44.0,0.0,390.0,10.0,0.0
1465,75.0,0.0,390.0,6.0,0.0
1466,84.0,0.0,390.0,0.0,0.0
1467,75.0,0.0,390.0,1.0,0.0
1468,66.0,0.0,390.0,7.0,0.0
1469,56.0,0.0,390.0,8.0,0.0
1470,49.0,0.0,180.0,8.0,0.0
1471,78.0,0.0,960.0,6.0,0.0
1472,37.0,240.0,180.0,4.0,0.0
1473,49.0,0.0,180.0,3.0,0.0
1474,78.0,0.0,960.0,1.0,0.0
1475,87.0,180.0,960.0,0.0,0.0
1476,87.0,0.0,960.0,5.0,0.0
1477,72.0,0.0,960.0,2.0,0.0
1478,72.0,0.0,960.0,7.0,0.0
1479,37.0,0.0,180.0,10.0,0.0
1480,49.0,0.0,180.0,4.0,0.0
1481,49.0,0.0,180.0,10.0,0.0
1482,61.0,0.0,180.0,3.0,0.0
1483,61.0,240.0,180.0,8.0,0.0
1484,49.0,0.0,180.0,4.0,0.0
1485,49.0,0.0,180.0,10.0,0.0
1486,61.0,0.0,180.0,8.0,0.0
1487,61.0,240.0,180.0,3.0,0.0
1488,49.0,60.0,180.0,4.0,0.0
1489,61.0,0.0,180.0,3.0,0.0
1490,49.0,0.0,180.0,10.0,0.0
1491,61.0,0.0,180.0,8.0,0.0
1492,73.0,36.0,390.0,7.0,0.0
1493,77.0,0.0,390.0,6.0,0.0
1494,49.0,0.0,180.0,10.0,0.0
1495,85.0,0.0,390.0,5.0,0.0
1496,77.0,0.0,390.0,1.0,0.0
1497,49.0,0.0,180.0,4.0,0.0
1498,61.0,204.0,180.0,3.0,0.0
1499,73.0,0.0,390.0,2.0,0.0
1500,85.0,0.0,390.0,0.0,0.0
1501,61.0,0.0,180.0,8.0,0.0
1502,49.0,0.0,180.0,10.0,0.0
1503,49.0,0.0,180.0,4.0,0.0
1504,61.0,240.0,180.0,3.0,0.0
1505,61.0,0.0,180.0,8.0,0.0
1506,61.0,0.0,180.0,8.0,0.0
1507,61.0,0.0,180.0,3.0,0.0
1508,49.0,0.0,180.0,4.0,0.0
1509,49.0,240.0,180.0,10.0,0.0
1510,61.0,0.0,180.0,8.0,0.0
1511,49.0,240.0,180.0,4.0,0.0
1512,49.0,0.0,180.0,10.0,0.0
1513,61.0,0.0,180.0,3.0,0.0
1514,49.0,0.0,180.0,3.0,0.0
1515,49.0,60.0,180.0,8.0,0.0
1516,37.0,0.0,180.0,4.0,0.0
1517,37.0,0.0,180.0,10.0,0.0
1518,87.0,180.0,240.0,0.0,0.0
1519,87.0,0.0,240.0,5.0,0.0
1520,61.0,0.0,180.0,8.0,0.0
1521,49.0,0.0,180.0,4.0,0.0
1522,85.0,0.0,180.0,0.0,0.0
1523,85.0,0.0,180.0,5.0,0.0
1524,61.0,0.0,180.0,3.0,0.0
1525,49.0,240.0,180.0,10.0,0.0
1526,49.0,0.0,180.0,4.0,0.0
1527,83.0,0.0,180.0,5.0,0.0
1528,61.0,0.0,180.0,8.0,0.0
1529,49.0,0.0,180.0,10.0,0.0
1530,83.0,0.0,180.0,0.0,0.0
1531,61.0,240.0,180.0,3.0,0.0
1532,61.0,0.0,180.0,8.0,0.0
1533,49.0,240.0,180.0,10.0,0.0
1534,49.0,0.0,180.0,4.0,0.0
1535,61.0,0.0,180.0,3.0,0.0
1536,82.0,0.0,180.0,0.0,0.0
1537,82.0,0.0,180.0,5.0,0.0
1538,61.0,0.0,180.0,8.0,0.0
1539,80.0,60.0,360.0,5.0,0.0
1540,61.0,0.0,180.0,3.0,0.0
1541,80.0,0.0,360.0,0.0,0.0
1542,49.0,180.0,180.0,4.0,0.0
1543,49.0,0.0,180.0,10.0,0.0
1544,49.0,0.0,180.0,10.0,0.0
1545,61.0,0.0,180.0,3.0,0.0
1546,61.0,240.0,180.0,8.0,0.0
1547,49.0,0.0,180.0,4.0,0.0
1548,61.0,0.0,180.0,3.0,0.0
1549,80.0,60.0,360.0,0.0,0.0
1550,80.0,0.0,360.0,5.0,0.0
1551,61.0,180.0,180.0,8.0,0.0
1552,49.0,0.0,180.0,10.0,0.0
1553,49.0,0.0,180.0,4.0,0.0
1554,49.0,0.0,180.0,4.0,0.0
1555,61.0,240.0,180.0,8.0,0.0
1556,49.0,0.0,180.0,10.0,0.0
1557,61.0,0.0,180.0,3.0,0.0
1558,75.0,0.0,240.0,6.0,0.0
1559,49.0,60.0,180.0,3.0,0.0
1560,83.0,180.0,240.0,0.0,0.0
1561,75.0,0.0,240.0,1.0,0.0
1562,37.0,0.0,180.0,4.0,0.0
1563,49.0,0.0,180.0,8.0,0.0
1564,37.0,0.0,180.0,10.0,0.0
1565,83.0,0.0,240.0,5.0,0.0
1566,73.0,0.0,180.0,6.0,0.0
1567,82.0,0.0,180.0,0.0,0.0
1568,49.0,0.0,180.0,4.0,0.0
1569,73.0,0.0,180.0,1.0,0.0
1570,49.0,0.0,180.0,10.0,0.0
1571,61.0,240.0,180.0,3.0,0.0
1572,82.0,0.0,180.0,5.0,0.0
1573,61.0,0.0,180.0,8.0,0.0
1574,49.0,0.0,180.0,4.0,0.0
1575,80.0,240.0,180.0,0.0,0.0
1576,80.0,0.0,180.0,5.0,0.0
1577,61.0,0.0,180.0,3.0,0.0
1578,49.0,0.0,180.0,10.0,0.0
1579,71.0,0.0,180.0,6.0,0.0
1580,71.0,0.0,180.0,1.0,0.0
1581,61.0,0.0,180.0,8.0,0.0
1582,49.0,0.0,180.0,4.0,0.0
1583,61.0,0.0,180.0,8.0,0.0
1584,78.0,0.0,180.0,0.0,0.0
1585,70.0,0.0,180.0,6.0,0.0
1586,61.0,0.0,180.0,3.0,0.0
1587,70.0,0.0,180.0,1.0,0.0
1588,49.0,0.0,180.0,10.0,0.0
1589,78.0,240.0,180.0,5.0,0.0
1590,77.0,0.0,360.0,5.0,0.0
1591,77.0,0.0,360.0,0.0,0.0
1592,68.0,60.0,360.0,1.0,0.0
1593,49.0,0.0,180.0,4.0,0.0
1594,61.0,0.0,180.0,3.0,0.0
1595,68.0,0.0,360.0,6.0,0.0
1596,49.0,0.0,180.0,10.0,0.0
1597,61.0,180.0,180.0,8.0,0.0
1598,49.0,0.0,180.0,4.0,0.0
1599,61.0,240.0,180.0,8.0,0.0
1600,61.0,0.0,180.0,3.0,0.0
1601,49.0,0.0,180.0,10.0,0.0
1602,68.0,0.0,360.0,1.0,0.0
1603,61.0,0.0,180.0,8.0,0.0
1604,49.0,180.0,180.0,10.0,0.0
1605,61.0,0.0,180.0,3.0,0.0
1606,49.0,0.0,180.0,4.0,0.0
1607,68.0,60.0,360.0,6.0,0.0
1608,61.0,0.0,180.0,8.0,0.0
1609,61.0,240.0,180.0,3.0,0.0
1610,49.0,0.0,180.0,4.0,0.0
1611,49.0,0.0,180.0,10.0,0.0
1612,71.0,0.0,240.0,1.0,0.0
1613,71.0,0.0,240.0,6.0,0.0
1614,87.0,0.0,240.0,5.0,0.0
1615,53.0,0.0,240.0,2.0,0.0
1616,37.0,0.0,180.0,10.0,0.0
1617,53.0,0.0,240.0,7.0,0.0
1618,49.0,0.0,180.0,8.0,0.0
1619,87.0,180.0,240.0,0.0,0.0
1620,49.0,60.0,180.0,3.0,0.0
1621,37.0,0.0,180.0,4.0,0.0
1622,70.0,0.0,180.0,1.0,0.0
1623,85.0,0.0,180.0,5.0,0.0
1624,49.0,0.0,180.0,10.0,0.0
1625,70.0,0.0,180.0,6.0,0.0
1626,54.0,0.0,180.0,7.0,0.0
1627,54.0,0.0,180.0,2.0,0.0
1628,85.0,0.0,180.0,0.0,0.0
1629,61.0,240.0,180.0,8.0,0.0
1630,61.0,0.0,180.0,3.0,0.0
1631,49.0,0.0,180.0,4.0,0.0
1632,49.0,240.0,180.0,10.0,0.0
1633,68.0,0.0,180.0,1.0,0.0
1634,83.0,0.0,180.0,5.0,0.0
1635,56.0,0.0,180.0,7.0,0.0
1636,61.0,0.0,180.0,3.0,0.0
1637,68.0,0.0,180.0,6.0,0.0
1638,49.0,0.0,180.0,4.0,0.0
1639,83.0,0.0,180.0,0.0,0.0
1640,56.0,0.0,180.0,2.0,0.0
1641,61.0,0.0,180.0,8.0,0.0
1642,66.0,0.0,180.0,1.0,0.0
1643,58.0,0.0,180.0,2.0,0.0
1644,61.0,0.0,180.0,3.0,0.0
1645,66.0,240.0,180.0,6.0,0.0
1646,61.0,0.0,180.0,8.0,0.0
1647,82.0,0.0,180.0,5.0,0.0
1648,82.0,0.0,180.0,0.0,0.0
1649,49.0,0.0,180.0,4.0,0.0
1650,49.0,0.0,180.0,10.0,0.0
1651,58.0,0.0,180.0,7.0,0.0
1652,61.0,0.0,180.0,8.0,0.0
1653,59.0,0.0,360.0,7.0,0.0
1654,49.0,180.0,180.0,4.0,0.0
1655,61.0,0.0,180.0,3.0,0.0
1656,80.0,0.0,180.0,0.0,0.0
1657,80.0,0.0,180.0,5.0,0.0
1658,59.0,0.0,360.0,2.0,0.0
1659,49.0,0.0,180.0,10.0,0.0
1660,65.0,60.0,360.0,6.0,0.0
1661,65.0,0.0,360.0,1.0,0.0
1662,49.0,0.0,180.0,10.0,0.0
1663,61.0,0.0,180.0,8.0,0.0
1664,61.0,0.0,180.0,3.0,0.0
1665,49.0,0.0,180.0,4.0,0.0
1666,80.0,240.0,180.0,0.0,0.0
1667,80.0,0.0,180.0,5.0,0.0
1668,61.0,0.0,180.0,8.0,0.0
1669,80.0,240.0,180.0,5.0,0.0
1670,49.0,0.0,180.0,4.0,0.0
1671,80.0,0.0,180.0,0.0,0.0
1672,49.0,0.0,180.0,10.0,0.0
1673,61.0,0.0,180.0,3.0,0.0
1674,61.0,240.0,180.0,8.0,0.0
1675,49.0,0.0,180.0,10.0,0.0
1676,49.0,0.0,180.0,4.0,0.0
1677,80.0,0.0,180.0,0.0,0.0
1678,80.0,0.0,180.0,5.0,0.0
1679,61.0,0.0,180.0,3.0,0.0
1680,83.0,180.0,240.0,5.0,0.0
1681,49.0,60.0,180.0,3.0,0.0
1682,37.0,0.0,180.0,4.0,0.0
1683,75.0,0.0,240.0,1.0,0.0
1684,65.0,0.0,240.0,7.0,0.0
1685,65.0,0.0,240.0,2.0,0.0
1686,75.0,0.0,240.0,6.0,0.0
1687,49.0,0.0,180.0,8.0,0.0
1688,83.0,0.0,240.0,0.0,0.0
1689,37.0,0.0,180.0,10.0,0.0
1690,66.0,0.0,180.0,2.0,0.0
1691,61.0,0.0,180.0,8.0,0.0
1692,61.0,0.0,180.0,3.0,0.0
1693,73.0,0.0,180.0,1.0,0.0
1694,66.0,0.0,180.0,7.0,0.0
1695,73.0,240.0,180.0,6.0,0.0
1696,82.0,0.0,180.0,0.0,0.0
1697,49.0,0.0,180.0,10.0,0.0
1698,82.0,0.0,180.0,5.0,0.0
1699,49.0,0.0,180.0,4.0,0.0
1700,71.0,0.0,180.0,6.0,0.0
1701,71.0,0.0,180.0,1.0,0.0
1702,49.0,0.0,180.0,10.0,0.0
1703,80.0,0.0,180.0,0.0,0.0
1704,68.0,0.0,180.0,2.0,0.0
1705,80.0,0.0,180.0,5.0,0.0
1706,68.0,0.0,180.0,7.0,0.0
1707,61.0,0.0,180.0,3.0,0.0
1708,61.0,240.0,180.0,8.0,0.0
1709,49.0,0.0,180.0,4.0,0.0
1710,70.0,0.0,180.0,7.0,0.0
1711,78.0,0.0,180.0,0.0,0.0
1712,70.0,0.0,180.0,2.0,0.0
1713,49.0,0.0,180.0,4.0,0.0
1714,70.0,0.0,180.0,1.0,0.0
1715,49.0,0.0,180.0,10.0,0.0
1716,61.0,0.0,180.0,3.0,0.0
1717,78.0,0.0,180.0,5.0,0.0
1718,70.0,300.0,180.0,6.0,0.0
1719,61.0,0.0,180.0,8.0,0.0
1720,49.0,96.0,390.0,10.0,0.0
1721,68.0,24.0,360.0,1.0,0.0
1722,61.0,0.0,390.0,8.0,0.0
1723,68.0,0.0,360.0,6.0,0.0
1724,49.0,0.0,390.0,4.0,0.0
1725,71.0,0.0,360.0,2.0,0.0
1726,61.0,0.0,390.0,3.0,0.0
1727,77.0,120.0,240.0,5.0,0.0
1728,77.0,0.0,240.0,0.0,0.0
1729,71.0,0.0,360.0,7.0,0.0
1730,80.0,0.0,240.0,0.0,0.0
1731,80.0,240.0,240.0,5.0,0.0
1732,77.0,0.0,240.0,5.0,0.0
1733,77.0,192.0,240.0,0.0,0.0
1734,80.0,288.0,180.0,0.0,0.0
1735,80.0,0.0,180.0,5.0,0.0
1736,65.0,180.0,240.0,6.0,0.0
1737,62.0,0.0,960.0,8.0,0.0
1738,83.0,0.0,240.0,5.0,0.0
1739,50.0,0.0,960.0,10.0,0.0
1740,65.0,0.0,240.0,1.0,0.0
1741,62.0,0.0,960.0,3.0,0.0
1742,50.0,240.0,960.0,4.0,0.0
1743,83.0,0.0,240.0,0.0,0.0
1744,81.0,0.0,180.0,0.0,0.0
1745,66.0,0.0,180.0,6.0,0.0
1746,66.0,204.0,180.0,1.0,0.0
1747,81.0,12.0,180.0,5.0,0.0
1748,68.0,204.0,180.0,6.0,0.0
1749,80.0,0.0,180.0,5.0,0.0
1750,68.0,0.0,180.0,1.0,0.0
1751,80.0,12.0,180.0,0.0,0.0
1752,65.0,0.0,150.0,7.0,0.0
1753,65.0,24.0,150.0,2.0,0.0
1754,66.0,0.0,150.0,2.0,0.0
1755,69.0,48.0,180.0,6.0,0.0
1756,66.0,24.0,150.0,7.0,0.0
1757,78.0,12.0,180.0,5.0,0.0
1758,78.0,0.0,180.0,0.0,0.0
1759,69.0,0.0,180.0,1.0,0.0
1760,77.0,72.0,240.0,0.0,0.0
1761,61.0,0.0,390.0,3.0,0.0
1762,77.0,0.0,240.0,5.0,0.0
1763,61.0,0.0,390.0,8.0,0.0
1764,71.0,0.0,390.0,1.0,0.0
1765,68.0,0.0,300.0,2.0,0.0
1766,49.0,0.0,390.0,10.0,0.0
1767,71.0,0.0,390.0,6.0,0.0
1768,68.0,72.0,300.0,7.0,0.0
1769,49.0,96.0,390.0,4.0,0.0
1770,80.0,0.0,240.0,5.0,0.0
1771,80.0,240.0,240.0,0.0,0.0
1772,77.0,0.0,240.0,5.0,0.0
1773,77.0,192.0,240.0,0.0,0.0
1774,80.0,288.0,180.0,0.0,0.0
1775,80.0,0.0,180.0,5.0,0.0
1776,65.0,180.0,240.0,6.0,0.0
1777,83.0,0.0,240.0,5.0,0.0
1778,62.0,0.0,960.0,3.0,0.0
1779,50.0,0.0,960.0,4.0,0.0
1780,50.0,240.0,960.0,10.0,0.0
1781,62.0,0.0,960.0,8.0,0.0
1782,83.0,0.0,240.0,0.0,0.0
1783,65.0,0.0,240.0,1.0,0.0
1784,66.0,0.0,180.0,6.0,0.0
1785,66.0,204.0,180.0,1.0,0.0
1786,81.0,0.0,180.0,0.0,0.0
1787,81.0,12.0,180.0,5.0,0.0
1788,65.0,0.0,150.0,2.0,0.0
1789,80.0,12.0,180.0,5.0,0.0
1790,80.0,0.0,180.0,0.0,0.0
1791,68.0,204.0,180.0,1.0,0.0
1792,65.0,24.0,150.0,7.0,0.0
1793,68.0,0.0,180.0,6.0,0.0
1794,69.0,0.0,180.0,6.0,0.0
1795,78.0,0.0,180.0,5.0,0.0
1796,69.0,48.0,180.0,1.0,0.0
1797,78.0,12.0,180.0,0.0,0.0
1798,66.0,0.0,150.0,7.0,0.0
1799,66.0,24.0,150.0,2.0,0.0
1800,71.0,0.0,390.0,6.0,0.0
1801,71.0,96.0,390.0,1.0,0.0
1802,68.0,0.0,300.0,2.0,0.0
1803,77.0,0.0,240.0,0.0,0.0
1804,49.0,0.0,390.0,10.0,0.0
1805,61.0,0.0,390.0,3.0,0.0
1806,61.0,0.0,390.0,8.0,0.0
1807,49.0,0.0,390.0,4.0,0.0
1808,68.0,72.0,300.0,7.0,0.0
1809,77.0,72.0,240.0,5.0,0.0
1810,80.0,240.0,240.0,0.0,0.0
1811,80.0,0.0,240.0,5.0,0.0
1812,77.0,192.0,240.0,5.0,0.0
1813,77.0,0.0,240.0,0.0,0.0
1814,80.0,288.0,180.0,0.0,0.0
1815,80.0,0.0,180.0,5.0,0.0
1816,80.0,0.0,240.0,6.0,0.0
1817,73.0,0.0,480.0,2.0,0.0
1818,73.0,0.0,480.0,7.0,0.0
1819,83.0,240.0,240.0,5.0,0.0
1820,83.0,0.0,240.0,0.0,0.0
1821,80.0,0.0,240.0,1.0,0.0
1822,77.0,0.0,240.0,6.0,0.0
1823,80.0,0.0,240.0,0.0,0.0
1824,77.0,0.0,240.0,1.0,0.0
1825,80.0,240.0,240.0,5.0,0.0
1826,74.0,0.0,480.0,7.0,0.0
1827,83.0,240.0,240.0,0.0,0.0
1828,80.0,0.0,240.0,6.0,0.0
1829,74.0,0.0,480.0,2.0,0.0
1830,83.0,0.0,240.0,5.0,0.0
1831,80.0,0.0,240.0,1.0,0.0
1832,80.0,0.0,240.0,0.0,0.0
1833,77.0,240.0,240.0,1.0,0.0
1834,77.0,0.0,240.0,6.0,0.0
1835,80.0,0.0,240.0,5.0,0.0
1836,73.0,0.0,480.0,7.0,0.0
1837,83.0,0.0,240.0,5.0,0.0
1838,80.0,0.0,240.0,6.0,0.0
1839,73.0,0.0,480.0,2.0,0.0
1840,83.0,240.0,240.0,0.0,0.0
1841,80.0,0.0,240.0,1.0,0.0
1842,80.0,0.0,240.0,5.0,0.0
1843,77.0,240.0,240.0,1.0,0.0
1844,77.0,0.0,240.0,6.0,0.0
1845,80.0,0.0,240.0,0.0,0.0
1846,80.0,0.0,240.0,6.0,0.0
1847,74.0,0.0,480.0,2.0,0.0
1848,80.0,0.0,240.0,1.0,0.0
1849,83.0,0.0,240.0,0.0,0.0
1850,74.0,0.0,480.0,7.0,0.0
1851,83.0,240.0,240.0,5.0,0.0
1852,80.0,384.0,240.0,5.0,0.0
1853,77.0,0.0,240.0,6.0,0.0
1854,80.0,0.0,240.0,0.0,0.0
1855,77.0,0.0,240.0,1.0,0.0
1856,73.0,0.0,390.0,2.0,0.0
1857,83.0,0.0,390.0,0.0,0.0
1858,83.0,960.0,390.0,5.0,0.0
1859,73.0,0.0,390.0,7.0,0.0
1860,80.0,0.0,390.0,1.0,0.0
1861,80.0,0.0,390.0,6.0,0.0
1862,73.0,0.0,150.0,5.0,0.0
1863,73.0,240.0,150.0,0.0,0.0
1864,78.0,240.0,150.0,5.0,0.0
1865,78.0,0.0,150.0,0.0,0.0
1866,82.0,0.0,150.0,0.0,0.0
1867,82.0,288.0,150.0,5.0,0.0
1868,85.0,144.0,300.0,0.0,0.0
1869,70.0,0.0,180.0,6.0,0.0
1870,66.0,0.0,180.0,7.0,0.0
1871,54.0,0.0,780.0,3.0,0.0
1872,70.0,0.0,180.0,1.0,0.0
1873,42.0,144.0,780.0,4.0,0.0
1874,54.0,0.0,780.0,8.0,0.0
1875,85.0,0.0,300.0,5.0,0.0
1876,42.0,0.0,780.0,10.0,0.0
1877,66.0,96.0,180.0,2.0,0.0
1878,66.0,0.0,180.0,7.0,0.0
1879,70.0,0.0,180.0,1.0,0.0
1880,70.0,240.0,180.0,6.0,0.0
1881,66.0,0.0,180.0,2.0,0.0
1882,58.0,0.0,180.0,7.0,0.0
1883,61.0,0.0,180.0,1.0,0.0
1884,85.0,0.0,300.0,5.0,0.0
1885,58.0,0.0,180.0,2.0,0.0
1886,85.0,0.0,300.0,0.0,0.0
1887,61.0,96.0,180.0,6.0,0.0
1888,61.0,0.0,180.0,1.0,0.0
1889,61.0,0.0,180.0,6.0,0.0
1890,58.0,0.0,180.0,2.0,0.0
1891,58.0,240.0,180.0,7.0,0.0
1892,66.0,0.0,180.0,1.0,0.0
1893,85.0,144.0,300.0,5.0,0.0
1894,61.0,0.0,180.0,7.0,0.0
1895,66.0,0.0,180.0,6.0,0.0
1896,85.0,0.0,300.0,0.0,0.0
1897,61.0,96.0,180.0,2.0,0.0
1898,61.0,0.0,180.0,7.0,0.0
1899,61.0,240.0,180.0,2.0,0.0
1900,66.0,0.0,180.0,1.0,0.0
1901,66.0,0.0,180.0,6.0,0.0
1902,70.0,0.0,180.0,1.0,0.0
1903,66.0,0.0,180.0,7.0,0.0
1904,85.0,0.0,300.0,0.0,0.0
1905,85.0,144.0,300.0,5.0,0.0
1906,70.0,0.0,180.0,6.0,0.0
1907,66.0,96.0,180.0,2.0,0.0
1908,70.0,0.0,180.0,1.0,0.0
1909,66.0,0.0,180.0,7.0,0.0
1910,66.0,240.0,180.0,2.0,0.0
1911,70.0,0.0,180.0,6.0,0.0
1912,68.0,0.0,180.0,2.0,0.0
1913,77.0,0.0,300.0,0.0,0.0
1914,77.0,72.0,300.0,5.0,0.0
1915,71.0,96.0,180.0,1.0,0.0
1916,61.0,72.0,360.0,8.0,0.0
1917,71.0,0.0,180.0,6.0,0.0
1918,49.0,0.0,360.0,4.0,0.0
1919,49.0,0.0,360.0,10.0,0.0
1920,61.0,0.0,360.0,3.0,0.0
1921,68.0,0.0,180.0,7.0,0.0
1922,71.0,0.0,180.0,6.0,0.0
1923,68.0,0.0,180.0,2.0,0.0
1924,68.0,0.0,180.0,7.0,0.0
1925,71.0,240.0,180.0,1.0,0.0
1926,77.0,0.0,300.0,5.0,0.0
1927,71.0,0.0,180.0,1.0,0.0
1928,68.0,0.0,180.0,2.0,0.0
1929,68.0,0.0,180.0,7.0,0.0
1930,77.0,144.0,300.0,0.0,0.0
1931,71.0,96.0,180.0,6.0,0.0
1932,71.0,0.0,180.0,1.0,0.0
1933,68.0,240.0,180.0,2.0,0.0
1934,71.0,0.0,180.0,6.0,0.0
1935,68.0,0.0,180.0,7.0,0.0
1936,66.0,0.0,360.0,3.0,0.0
1937,66.0,0.0,180.0,2.0,0.0
1938,78.0,0.0,300.0,5.0,0.0
1939,54.0,0.0,360.0,4.0,0.0
1940,54.0,72.0,360.0,10.0,0.0
1941,70.0,0.0,180.0,6.0,0.0
1942,66.0,0.0,180.0,7.0,0.0
1943,66.0,0.0,360.0,8.0,0.0
1944,78.0,72.0,300.0,0.0,0.0
1945,70.0,96.0,180.0,1.0,0.0
1946,66.0,0.0,180.0,2.0,0.0
1947,70.0,0.0,180.0,1.0,0.0
1948,70.0,0.0,180.0,6.0,0.0
1949,66.0,128.0,180.0,7.0,0.0
1950,70.0,0.0,180.0,1.0,0.0
1951,66.0,48.0,180.0,2.0,0.0
1952,66.0,0.0,180.0,7.0,0.0
1953,78.0,0.0,90.0,5.0,0.0
1954,78.0,80.0,90.0,0.0,0.0
1955,70.0,0.0,180.0,6.0,0.0
1956,80.0,32.0,90.0,5.0,0.0
1957,80.0,0.0,90.0,0.0,0.0
1958,78.0,120.0,90.0,5.0,0.0
1959,78.0,0.0,90.0,0.0,0.0
1960,66.0,0.0,180.0,2.0,0.0
1961,70.0,48.0,180.0,6.0,0.0
1962,70.0,0.0,180.0,1.0,0.0
1963,66.0,0.0,180.0,7.0,0.0
1964,77.0,72.0,120.0,5.0,0.0
1965,77.0,0.0,120.0,0.0,0.0
1966,78.0,192.0,120.0,0.0,0.0
1967,78.0,0.0,120.0,5.0,0.0
1968,65.0,0.0,360.0,8.0,0.0
1969,53.0,0.0,360.0,4.0,0.0
1970,73.0,96.0,180.0,6.0,0.0
1971,83.0,0.0,300.0,5.0,0.0
1972,73.0,0.0,180.0,1.0,0.0
1973,53.0,72.0,360.0,10.0,0.0
1974,68.0,0.0,180.0,2.0,0.0
1975,83.0,72.0,300.0,0.0,0.0
1976,68.0,0.0,180.0,7.0,0.0
1977,65.0,0.0,360.0,3.0,0.0
1978,68.0,0.0,180.0,7.0,0.0
1979,73.0,0.0,180.0,6.0,0.0
1980,73.0,240.0,180.0,1.0,0.0
1981,68.0,0.0,180.0,2.0,0.0
1982,83.0,144.0,300.0,0.0,0.0
1983,83.0,0.0,300.0,5.0,0.0
1984,73.0,0.0,180.0,6.0,0.0
1985,68.0,0.0,180.0,2.0,0.0
1986,68.0,96.0,180.0,7.0,0.0
1987,73.0,0.0,180.0,1.0,0.0
1988,73.0,0.0,180.0,6.0,0.0
1989,73.0,0.0,180.0,1.0,0.0
1990,68.0,240.0,180.0,7.0,0.0
1991,68.0,0.0,180.0,2.0,0.0
1992,54.0,0.0,360.0,10.0,0.0
1993,82.0,72.0,300.0,5.0,0.0
1994,82.0,0.0,300.0,0.0,0.0
1995,66.0,0.0,360.0,3.0,0.0
1996,66.0,0.0,180.0,2.0,0.0
1997,54.0,72.0,360.0,4.0,0.0
1998,73.0,0.0,180.0,1.0,0.0
1999,73.0,96.0,180.0,6.0,0.0
2000,66.0,0.0,180.0,7.0,0.0
2001,66.0,0.0,360.0,8.0,0.0
2002,66.0,240.0,180.0,7.0,0.0
2003,66.0,0.0,180.0,2.0,0.0
2004,73.0,0.0,180.0,6.0,0.0
2005,73.0,0.0,180.0,1.0,0.0
2006,73.0,0.0,180.0,1.0,0.0
2007,82.0,0.0,300.0,5.0,0.0
2008,66.0,0.0,180.0,2.0,0.0
2009,82.0,144.0,300.0,0.0,0.0
2010,73.0,96.0,180.0,6.0,0.0
2011,66.0,0.0,180.0,7.0,0.0
2012,73.0,0.0,180.0,6.0,0.0
2013,73.0,0.0,180.0,1.0,0.0
2014,66.0,204.0,180.0,7.0,0.0
2015,66.0,0.0,180.0,2.0,0.0
2016,61.0,24.0,360.0,3.0,0.0
2017,49.0,0.0,360.0,10.0,0.0
2018,73.0,204.0,150.0,6.0,0.0
2019,65.0,0.0,150.0,2.0,0.0
2020,49.0,0.0,360.0,4.0,0.0
2021,61.0,0.0,360.0,8.0,0.0
2022,73.0,0.0,150.0,1.0,0.0
2023,80.0,12.0,390.0,5.0,0.0
2024,65.0,0.0,150.0,7.0,0.0
2025,80.0,0.0,390.0,0.0,0.0
2026,75.0,240.0,150.0,2.0,0.0
2027,75.0,0.0,150.0,7.0,0.0
2028,78.0,0.0,150.0,1.0,0.0
2029,78.0,0.0,150.0,6.0,0.0
2030,77.0,0.0,150.0,6.0,0.0
2031,73.0,0.0,150.0,7.0,0.0
2032,73.0,240.0,150.0,2.0,0.0
2033,77.0,0.0,150.0,1.0,0.0
2034,75.0,0.0,150.0,1.0,0.0
2035,71.0,240.0,150.0,2.0,0.0
2036,75.0,0.0,150.0,6.0,0.0
2037,71.0,0.0,150.0,7.0,0.0
2038,70.0,0.0,150.0,2.0,0.0
2039,73.0,0.0,150.0,1.0,0.0
2040,70.0,0.0,150.0,7.0,0.0
2041,73.0,228.0,150.0,6.0,0.0
2042,73.0,12.0,150.0,5.0,0.0
2043,71.0,0.0,150.0,6.0,0.0
2044,73.0,0.0,150.0,0.0,0.0
2045,71.0,0.0,150.0,1.0,0.0
2046,68.0,228.0,150.0,2.0,0.0
2047,68.0,0.0,150.0,7.0,0.0
2048,70.0,0.0,150.0,1.0,0.0
2049,66.0,0.0,150.0,7.0,0.0
2050,70.0,0.0,150.0,6.0,0.0
2051,78.0,12.0,150.0,0.0,0.0
2052,78.0,0.0,150.0,5.0,0.0
2053,66.0,228.0,150.0,2.0,0.0
2054,68.0,0.0,150.0,6.0,0.0
2055,65.0,0.0,150.0,2.0,0.0
2056,82.0,0.0,150.0,5.0,0.0
2057,68.0,276.0,150.0,1.0,0.0
2058,65.0,0.0,150.0,7.0,0.0
2059,82.0,12.0,150.0,0.0,0.0
2060,70.0,0.0,180.0,1.0,0.0
2061,66.0,96.0,180.0,7.0,0.0
2062,70.0,0.0,180.0,6.0,0.0
2063,42.0,0.0,780.0,10.0,0.0
2064,54.0,0.0,780.0,8.0,0.0
2065,66.0,0.0,180.0,2.0,0.0
2066,85.0,0.0,300.0,0.0,0.0
2067,54.0,0.0,780.0,3.0,0.0
2068,42.0,144.0,780.0,4.0,0.0
2069,85.0,144.0,300.0,5.0,0.0
2070,70.0,0.0,180.0,6.0,0.0
2071,66.0,0.0,180.0,7.0,0.0
2072,66.0,0.0,180.0,2.0,0.0
2073,70.0,240.0,180.0,1.0,0.0
2074,58.0,0.0,180.0,7.0,0.0
2075,61.0,0.0,180.0,6.0,0.0
2076,85.0,0.0,300.0,0.0,0.0
2077,85.0,0.0,300.0,5.0,0.0
2078,58.0,0.0,180.0,2.0,0.0
2079,61.0,96.0,180.0,1.0,0.0
2080,61.0,0.0,180.0,6.0,0.0
2081,61.0,0.0,180.0,1.0,0.0
2082,58.0,240.0,180.0,7.0,0.0
2083,58.0,0.0,180.0,2.0,0.0
2084,61.0,0.0,180.0,7.0,0.0
2085,61.0,0.0,180.0,2.0,0.0
2086,85.0,0.0,300.0,0.0,0.0
2087,66.0,0.0,180.0,1.0,0.0
2088,66.0,96.0,180.0,6.0,0.0
2089,85.0,144.0,300.0,5.0,0.0
2090,66.0,0.0,180.0,1.0,0.0
2091,66.0,240.0,180.0,6.0,0.0
2092,61.0,0.0,180.0,2.0,0.0
2093,61.0,0.0,180.0,7.0,0.0
2094,70.0,0.0,180.0,6.0,0.0
2095,85.0,0.0,300.0,5.0,0.0
2096,66.0,0.0,180.0,7.0,0.0
2097,85.0,144.0,300.0,0.0,0.0
2098,70.0,96.0,180.0,1.0,0.0
2099,66.0,0.0,180.0,2.0,0.0
2100,66.0,0.0,180.0,7.0,0.0
2101,70.0,0.0,180.0,1.0,0.0
2102,66.0,0.0,180.0,2.0,0.0
2103,70.0,240.0,180.0,6.0,0.0
2104,77.0,72.0,300.0,0.0,0.0
2105,49.0,0.0,360.0,4.0,0.0
2106,71.0,0.0,180.0,1.0,0.0
2107,71.0,0.0,180.0,6.0,0.0
2108,61.0,0.0,360.0,3.0,0.0
2109,49.0,0.0,360.0,10.0,0.0
2110,77.0,0.0,300.0,5.0,0.0
2111,68.0,96.0,180.0,7.0,0.0
2112,68.0,0.0,180.0,2.0,0.0
2113,61.0,72.0,360.0,8.0,0.0
2114,68.0,0.0,180.0,2.0,0.0
2115,71.0,112.0,180.0,6.0,0.0
2116,68.0,0.0,180.0,7.0,0.0
2117,71.0,0.0,180.0,1.0,0.0
2118,77.0,80.0,60.0,5.0,0.0
2119,77.0,0.0,60.0,0.0,0.0
2120,71.0,0.0,180.0,6.0,0.0
2121,68.0,0.0,180.0,2.0,0.0
2122,71.0,0.0,180.0,1.0,0.0
2123,68.0,32.0,180.0,7.0,0.0
2124,78.0,0.0,60.0,5.0,0.0
2125,78.0,48.0,60.0,0.0,0.0
2126,77.0,112.0,60.0,5.0,0.0
2127,77.0,0.0,60.0,0.0,0.0
2128,75.0,96.0,90.0,5.0,0.0
2129,68.0,24.0,180.0,2.0,0.0
2130,68.0,0.0,180.0,7.0,0.0
2131,75.0,0.0,90.0,0.0,0.0
2132,71.0,0.0,180.0,1.0,0.0
2133,71.0,0.0,180.0,6.0,0.0
2134,77.0,0.0,90.0,0.0,0.0
2135,77.0,216.0,90.0,5.0,0.0
2136,70.0,0.0,180.0,6.0,0.0
2137,63.0,0.0,360.0,8.0,0.0
2138,70.0,0.0,180.0,1.0,0.0
2139,78.0,0.0,300.0,5.0,0.0
2140,51.0,0.0,360.0,10.0,0.0
2141,63.0,0.0,360.0,3.0,0.0
2142,51.0,72.0,360.0,4.0,0.0
2143,78.0,72.0,300.0,0.0,0.0
2144,66.0,0.0,180.0,2.0,0.0
2145,66.0,96.0,180.0,7.0,0.0
2146,66.0,0.0,180.0,2.0,0.0
2147,66.0,0.0,180.0,7.0,0.0
2148,70.0,0.0,180.0,1.0,0.0
2149,70.0,112.0,180.0,6.0,0.0
2150,70.0,0.0,180.0,6.0,0.0
2151,70.0,32.0,180.0,1.0,0.0
2152,66.0,0.0,180.0,7.0,0.0
2153,78.0,80.0,60.0,5.0,0.0
2154,78.0,0.0,60.0,0.0,0.0
2155,66.0,0.0,180.0,2.0,0.0
2156,80.0,0.0,60.0,0.0,0.0
2157,80.0,48.0,60.0,5.0,0.0
2158,78.0,112.0,60.0,5.0,0.0
2159,78.0,0.0,60.0,0.0,0.0
2160,66.0,24.0,180.0,2.0,0.0
2161,70.0,0.0,180.0,6.0,0.0
2162,77.0,0.0,90.0,5.0,0.0
2163,70.0,0.0,180.0,1.0,0.0
2164,77.0,96.0,90.0,0.0,0.0
2165,66.0,0.0,180.0,7.0,0.0
2166,78.0,216.0,90.0,5.0,0.0
2167,78.0,0.0,90.0,0.0,0.0
2168,75.0,0.0,180.0,6.0,0.0
2169,80.0,0.0,300.0,0.0,0.0
2170,59.0,0.0,360.0,3.0,0.0
2171,66.0,0.0,180.0,7.0,0.0
2172,47.0,0.0,360.0,4.0,0.0
2173,47.0,0.0,360.0,10.0,0.0
2174,75.0,0.0,180.0,1.0,0.0
2175,59.0,72.0,360.0,8.0,0.0
2176,80.0,72.0,300.0,5.0,0.0
2177,66.0,96.0,180.0,2.0,0.0
2178,75.0,0.0,180.0,1.0,0.0
2179,66.0,0.0,180.0,7.0,0.0
2180,66.0,0.0,180.0,2.0,0.0
2181,75.0,112.0,180.0,6.0,0.0
2182,75.0,0.0,180.0,6.0,0.0
2183,80.0,80.0,60.0,0.0,0.0
2184,80.0,0.0,60.0,5.0,0.0
2185,75.0,0.0,180.0,1.0,0.0
2186,66.0,32.0,180.0,2.0,0.0
2187,66.0,0.0,180.0,7.0,0.0
2188,82.0,0.0,60.0,0.0,0.0
2189,82.0,48.0,60.0,5.0,0.0
2190,80.0,112.0,60.0,5.0,0.0
2191,80.0,0.0,60.0,0.0,0.0
2192,75.0,0.0,180.0,1.0,0.0
2193,78.0,0.0,90.0,5.0,0.0
2194,75.0,0.0,180.0,6.0,0.0
2195,78.0,96.0,90.0,0.0,0.0
2196,66.0,24.0,180.0,2.0,0.0
2197,66.0,0.0,180.0,7.0,0.0
2198,80.0,0.0,90.0,0.0,0.0
2199,80.0,216.0,90.0,5.0,0.0
2200,61.0,72.0,360.0,3.0,0.0
2201,49.0,0.0,360.0,10.0,0.0
2202,66.0,96.0,180.0,2.0,0.0
2203,49.0,0.0,360.0,4.0,0.0
2204,66.0,0.0,180.0,7.0,0.0
2205,76.0,0.0,180.0,6.0,0.0
2206,82.0,0.0,300.0,5.0,0.0
2207,76.0,0.0,180.0,1.0,0.0
2208,61.0,0.0,360.0,8.0,0.0
2209,82.0,72.0,300.0,0.0,0.0
2210,76.0,0.0,180.0,1.0,0.0
2211,66.0,0.0,180.0,7.0,0.0
2212,76.0,112.0,180.0,6.0,0.0
2213,66.0,0.0,180.0,2.0,0.0
2214,66.0,32.0,180.0,7.0,0.0
2215,66.0,0.0,180.0,2.0,0.0
2216,82.0,0.0,60.0,0.0,0.0
2217,76.0,0.0,180.0,6.0,0.0
2218,82.0,80.0,60.0,5.0,0.0
2219,76.0,0.0,180.0,1.0,0.0
2220,83.0,48.0,60.0,5.0,0.0
2221,83.0,0.0,60.0,0.0,0.0
2222,82.0,112.0,60.0,5.0,0.0
2223,82.0,0.0,60.0,0.0,0.0
2224,80.0,96.0,90.0,5.0,0.0
2225,76.0,0.0,180.0,1.0,0.0
2226,76.0,0.0,180.0,6.0,0.0
2227,66.0,0.0,180.0,2.0,0.0
2228,66.0,24.0,180.0,7.0,0.0
2229,80.0,0.0,90.0,0.0,0.0
2230,82.0,984.0,90.0,0.0,0.0
2231,82.0,0.0,90.0,5.0,0.0
2232,64.0,0.0,960.0,8.0,0.0
2233,52.0,0.0,960.0,4.0,0.0
2234,85.0,144.0,960.0,0.0,0.0
2235,70.0,0.0,960.0,6.0,0.0
2236,66.0,0.0,1350.0,7.0,0.0
2237,52.0,0.0,960.0,10.0,0.0
2238,85.0,0.0,960.0,5.0,0.0
2239,64.0,0.0,960.0,3.0,0.0
2240,66.0,0.0,1350.0,2.0,0.0
2241,70.0,0.0,960.0,1.0,0.0
2242,83.0,240.0,150.0,0.0,0.0
2243,63.0,0.0,390.0,3.0,0.0
2244,71.0,0.0,390.0,1.0,0.0
2245,71.0,0.0,390.0,6.0,0.0
2246,63.0,0.0,390.0,8.0,0.0
2247,83.0,0.0,150.0,5.0,0.0
2248,51.0,0.0,390.0,4.0,0.0
2249,51.0,240.0,390.0,10.0,0.0
2250,75.0,0.0,150.0,5.0,0.0
2251,75.0,0.0,150.0,0.0,0.0
2252,78.0,0.0,150.0,5.0,0.0
2253,78.0,240.0,150.0,0.0,0.0
2254,83.0,288.0,150.0,5.0,0.0
2255,83.0,0.0,150.0,0.0,0.0
2256,59.0,0.0,780.0,3.0,0.0
2257,71.0,0.0,180.0,6.0,0.0
2258,68.0,0.0,180.0,2.0,0.0
2259,87.0,0.0,300.0,5.0,0.0
2260,47.0,0.0,780.0,4.0,0.0
2261,47.0,0.0,780.0,10.0,0.0
2262,71.0,96.0,180.0,1.0,0.0
2263,59.0,0.0,780.0,8.0,0.0
2264,87.0,144.0,300.0,0.0,0.0
2265,68.0,0.0,180.0,7.0,0.0
2266,71.0,0.0,180.0,1.0,0.0
2267,68.0,0.0,180.0,2.0,0.0
2268,68.0,240.0,180.0,7.0,0.0
2269,71.0,0.0,180.0,6.0,0.0
2270,87.0,0.0,300.0,0.0,0.0
2271,70.0,0.0,180.0,1.0,0.0
2272,87.0,144.0,300.0,5.0,0.0
2273,70.0,96.0,180.0,6.0,0.0
2274,67.0,0.0,180.0,2.0,0.0
2275,67.0,0.0,180.0,7.0,0.0
2276,67.0,0.0,180.0,7.0,0.0
2277,70.0,240.0,180.0,1.0,0.0
2278,70.0,0.0,180.0,6.0,0.0
2279,67.0,0.0,180.0,2.0,0.0
2280,87.0,0.0,300.0,5.0,0.0
2281,71.0,0.0,180.0,1.0,0.0
2282,71.0,0.0,180.0,6.0,0.0
2283,87.0,144.0,300.0,0.0,0.0
2284,68.0,96.0,180.0,2.0,0.0
2285,68.0,0.0,180.0,7.0,0.0
2286,68.0,240.0,180.0,7.0,0.0
2287,71.0,0.0,180.0,1.0,0.0
2288,71.0,0.0,180.0,6.0,0.0
2289,68.0,0.0,180.0,2.0,0.0
2290,67.0,0.0,180.0,2.0,0.0
2291,87.0,0.0,300.0,5.0,0.0
2292,87.0,144.0,300.0,0.0,0.0
2293,70.0,0.0,180.0,1.0,0.0
2294,67.0,0.0,180.0,7.0,0.0
2295,70.0,96.0,180.0,6.0,0.0
2296,70.0,0.0,180.0,1.0,0.0
2297,67.0,0.0,180.0,7.0,0.0
2298,67.0,240.0,180.0,2.0,0.0
2299,70.0,0.0,180.0,6.0,0.0
2300,49.0,0.0,360.0,10.0,0.0
2301,68.0,0.0,180.0,7.0,0.0
2302,61.0,0.0,360.0,3.0,0.0
2303,77.0,0.0,300.0,0.0,0.0
2304,68.0,96.0,180.0,2.0,0.0
2305,77.0,72.0,300.0,5.0,0.0
2306,49.0,0.0,360.0,4.0,0.0
2307,71.0,0.0,180.0,1.0,0.0
2308,71.0,0.0,180.0,6.0,0.0
2309,61.0,72.0,360.0,8.0,0.0
2310,68.0,0.0,180.0,2.0,0.0
2311,68.0,0.0,180.0,7.0,0.0
2312,71.0,112.0,180.0,1.0,0.0
2313,71.0,0.0,180.0,6.0,0.0
2314,71.0,0.0,180.0,1.0,0.0
2315,77.0,0.0,60.0,0.0,0.0
2316,71.0,32.0,180.0,6.0,0.0
2317,77.0,80.0,60.0,5.0,0.0
2318,68.0,0.0,180.0,7.0,0.0
2319,68.0,0.0,180.0,2.0,0.0
2320,78.0,48.0,60.0,0.0,0.0
2321,78.0,0.0,60.0,5.0,0.0
2322,77.0,112.0,60.0,0.0,0.0
2323,77.0,0.0,60.0,5.0,0.0
2324,71.0,0.0,180.0,1.0,0.0
2325,68.0,24.0,180.0,2.0,0.0
2326,75.0,0.0,90.0,5.0,0.0
2327,71.0,0.0,180.0,6.0,0.0
2328,68.0,0.0,180.0,7.0,0.0
2329,75.0,96.0,90.0,0.0,0.0
2330,77.0,0.0,90.0,0.0,0.0
2331,77.0,216.0,90.0,5.0,0.0
2332,63.0,72.0,360.0,8.0,0.0
2333,70.0,0.0,180.0,1.0,0.0
2334,66.0,0.0,180.0,7.0,0.0
2335,63.0,0.0,360.0,3.0,0.0
2336,70.0,96.0,180.0,6.0,0.0
2337,51.0,0.0,360.0,4.0,0.0
2338,78.0,72.0,300.0,5.0,0.0
2339,51.0,0.0,360.0,10.0,0.0
2340,78.0,0.0,300.0,0.0,0.0
2341,66.0,0.0,180.0,2.0,0.0
2342,70.0,0.0,180.0,1.0,0.0
2343,70.0,0.0,180.0,6.0,0.0
2344,66.0,0.0,180.0,7.0,0.0
2345,66.0,112.0,180.0,2.0,0.0
2346,70.0,0.0,180.0,6.0,0.0
2347,78.0,80.0,60.0,0.0,0.0
2348,66.0,0.0,180.0,7.0,0.0
2349,78.0,0.0,60.0,5.0,0.0
2350,66.0,0.0,180.0,2.0,0.0
2351,70.0,32.0,180.0,1.0,0.0
2352,80.0,0.0,60.0,0.0,0.0
2353,80.0,48.0,60.0,5.0,0.0
2354,78.0,0.0,60.0,5.0,0.0
2355,78.0,112.0,60.0,0.0,0.0
2356,66.0,24.0,180.0,2.0,0.0
2357,70.0,0.0,180.0,6.0,0.0
2358,77.0,0.0,90.0,5.0,0.0
2359,66.0,0.0,180.0,7.0,0.0
2360,70.0,0.0,180.0,1.0,0.0
2361,77.0,96.0,90.0,0.0,0.0
2362,78.0,0.0,90.0,0.0,0.0
2363,78.0,216.0,90.0,5.0,0.0
2364,83.0,0.0,300.0,5.0,0.0
2365,63.0,0.0,180.0,2.0,0.0
2366,68.0,96.0,180.0,6.0,0.0
2367,63.0,0.0,180.0,7.0,0.0
2368,47.0,0.0,390.0,4.0,0.0
2369,59.0,48.0,390.0,8.0,0.0
2370,68.0,0.0,180.0,1.0,0.0
2371,83.0,96.0,300.0,0.0,0.0
2372,47.0,0.0,390.0,10.0,0.0
2373,59.0,0.0,390.0,3.0,0.0
2374,63.0,0.0,180.0,2.0,0.0
2375,68.0,0.0,180.0,1.0,0.0
2376,68.0,0.0,180.0,6.0,0.0
2377,63.0,240.0,180.0,7.0,0.0
2378,83.0,0.0,300.0,0.0,0.0
2379,68.0,0.0,180.0,1.0,0.0
2380,63.0,96.0,180.0,2.0,0.0
2381,63.0,0.0,180.0,7.0,0.0
2382,83.0,144.0,300.0,5.0,0.0
2383,68.0,0.0,180.0,6.0,0.0
2384,63.0,0.0,180.0,7.0,0.0
2385,68.0,0.0,180.0,1.0,0.0
2386,68.0,0.0,180.0,6.0,0.0
2387,63.0,240.0,180.0,2.0,0.0
2388,61.0,0.0,180.0,7.0,0.0
2389,61.0,48.0,390.0,3.0,0.0
2390,80.0,0.0,300.0,0.0,0.0
2391,49.0,0.0,390.0,4.0,0.0
2392,65.0,96.0,180.0,6.0,0.0
2393,61.0,0.0,180.0,2.0,0.0
2394,65.0,0.0,180.0,1.0,0.0
2395,61.0,0.0,390.0,8.0,0.0
2396,80.0,96.0,300.0,5.0,0.0
2397,49.0,0.0,390.0,10.0,0.0
2398,65.0,0.0,180.0,1.0,0.0
2399,65.0,0.0,180.0,6.0,0.0
2400,61.0,0.0,180.0,2.0,0.0
2401,61.0,240.0,180.0,7.0,0.0
2402,80.0,144.0,300.0,0.0,0.0
2403,61.0,0.0,180.0,7.0,0.0
2404,65.0,96.0,180.0,1.0,0.0
2405,65.0,0.0,180.0,6.0,0.0
2406,80.0,0.0,300.0,5.0,0.0
2407,61.0,0.0,180.0,2.0,0.0
2408,61.0,0.0,180.0,7.0,0.0
2409,65.0,288.0,180.0,6.0,0.0
2410,65.0,0.0,180.0,1.0,0.0
2411,61.0,0.0,180.0,2.0,0.0
2412,58.0,0.0,960.0,3.0,0.0
2413,66.0,240.0,240.0,6.0,0.0
2414,46.0,0.0,960.0,4.0,0.0
2415,46.0,0.0,960.0,10.0,0.0
2416,85.0,0.0,1200.0,0.0,0.0
2417,85.0,0.0,1200.0,5.0,0.0
2418,61.0,240.0,1200.0,7.0,0.0
2419,66.0,0.0,240.0,1.0,0.0
2420,61.0,0.0,1200.0,2.0,0.0
2421,58.0,240.0,960.0,8.0,0.0
2422,70.0,0.0,240.0,6.0,0.0
2423,70.0,240.0,240.0,1.0,0.0
2424,73.0,192.0,240.0,1.0,0.0
2425,73.0,0.0,240.0,6.0,0.0
2426,78.0,48.0,180.0,1.0,0.0
2427,78.0,0.0,180.0,6.0,0.0
2428,77.0,0.0,960.0,1.0,0.0
2429,56.0,240.0,960.0,3.0,0.0
2430,56.0,0.0,960.0,8.0,0.0
2431,77.0,0.0,960.0,6.0,0.0
2432,44.0,0.0,960.0,4.0,0.0
2433,44.0,0.0,960.0,10.0,0.0
2434,87.0,240.0,240.0,0.0,0.0
2435,87.0,0.0,240.0,5.0,0.0
2436,65.0,0.0,240.0,2.0,0.0
2437,65.0,0.0,240.0,7.0,0.0
2438,83.0,192.0,240.0,0.0,0.0
2439,68.0,0.0,240.0,7.0,0.0
2440,68.0,0.0,240.0,2.0,0.0
2441,83.0,0.0,240.0,5.0,0.0
2442,85.0,48.0,180.0,5.0,0.0
2443,61.0,0.0,180.0,2.0,0.0
2444,61.0,0.0,180.0,7.0,0.0
2445,85.0,0.0,180.0,0.0,0.0
2446,78.0,0.0,240.0,1.0,0.0
2447,73.0,0.0,1200.0,7.0,0.0
2448,82.0,0.0,1200.0,0.0,0.0
2449,73.0,240.0,1200.0,2.0,0.0
2450,78.0,240.0,240.0,6.0,0.0
2451,54.0,0.0,960.0,8.0,0.0
2452,42.0,0.0,960.0,4.0,0.0
2453,82.0,0.0,1200.0,5.0,0.0
2454,42.0,0.0,960.0,10.0,0.0
2455,54.0,240.0,960.0,3.0,0.0
2456,66.0,0.0,240.0,1.0,0.0
2457,66.0,240.0,240.0,6.0,0.0
2458,70.0,0.0,240.0,1.0,0.0
2459,70.0,192.0,240.0,6.0,0.0
2460,73.0,48.0,180.0,1.0,0.0
2461,73.0,0.0,180.0,6.0,0.0
2462,59.0,0.0,780.0,8.0,0.0
2463,59.0,144.0,780.0,3.0,0.0
2464,47.0,0.0,780.0,4.0,0.0
2465,75.0,240.0,960.0,1.0,0.0
2466,47.0,0.0,780.0,10.0,0.0
2467,75.0,0.0,960.0,6.0,0.0
2468,75.0,0.0,240.0,2.0,0.0
2469,83.0,0.0,240.0,0.0,0.0
2470,75.0,240.0,240.0,7.0,0.0
2471,83.0,0.0,240.0,5.0,0.0
2472,80.0,0.0,240.0,5.0,0.0
2473,71.0,0.0,240.0,2.0,0.0
2474,80.0,0.0,240.0,0.0,0.0
2475,71.0,48.0,240.0,7.0,0.0
2476,82.0,0.0,180.0,5.0,0.0
2477,73.0,48.0,180.0,2.0,0.0
2478,82.0,0.0,180.0,0.0,0.0
2479,73.0,0.0,180.0,7.0,0.0
2480,61.0,0.0,960.0,8.0,0.0
2481,70.0,240.0,1200.0,7.0,0.0
2482,73.0,240.0,240.0,6.0,0.0
2483,73.0,0.0,240.0,1.0,0.0
2484,49.0,240.0,960.0,10.0,0.0
2485,70.0,0.0,1200.0,2.0,0.0
2486,78.0,0.0,1200.0,5.0,0.0
2487,61.0,0.0,960.0,3.0,0.0
2488,78.0,0.0,1200.0,0.0,0.0
2489,49.0,0.0,960.0,4.0,0.0
2490,61.0,240.0,240.0,1.0,0.0
2491,61.0,0.0,240.0,6.0,0.0
2492,66.0,192.0,240.0,6.0,0.0
2493,66.0,0.0,240.0,1.0,0.0
2494,70.0,48.0,180.0,1.0,0.0
2495,70.0,0.0,180.0,6.0,0.0
2496,37.0,0.0,780.0,10.0,0.0
2497,49.0,0.0,780.0,8.0,0.0
2498,37.0,0.0,780.0,4.0,0.0
2499,49.0,0.0,780.0,3.0,0.0
2500,71.0,144.0,780.0,1.0,0.0
2501,71.0,0.0,780.0,6.0,0.0
2502,71.0,0.0,240.0,2.0,0.0
2503,80.0,0.0,240.0,0.0,0.0
2504,80.0,0.0,240.0,5.0,0.0
2505,71.0,240.0,240.0,7.0,0.0
2506,77.0,0.0,240.0,0.0,0.0
2507,77.0,0.0,240.0,5.0,0.0
2508,68.0,48.0,240.0,2.0,0.0
2509,68.0,0.0,240.0,7.0,0.0
2510,73.0,192.0,180.0,5.0,0.0
2511,65.0,0.0,180.0,7.0,0.0
2512,65.0,0.0,180.0,2.0,0.0
2513,73.0,0.0,180.0,0.0,0.0
2514,85.0,0.0,240.0,5.0,0.0
2515,46.0,0.0,150.0,10.0,0.0
2516,58.0,0.0,150.0,3.0,0.0
2517,85.0,0.0,240.0,0.0,0.0
2518,46.0,0.0,150.0,4.0,0.0
2519,58.0,96.0,150.0,8.0,0.0
2520,66.0,156.0,240.0,2.0,0.0
2521,66.0,0.0,240.0,7.0,0.0
2522,73.0,0.0,240.0,6.0,0.0
2523,73.0,0.0,240.0,1.0,0.0
2524,46.0,0.0,180.0,4.0,0.0
2525,87.0,0.0,150.0,5.0,0.0
2526,58.0,0.0,180.0,3.0,0.0
2527,87.0,0.0,150.0,0.0,0.0
2528,58.0,0.0,180.0,8.0,0.0
2529,73.0,0.0,180.0,2.0,0.0
2530,75.0,0.0,150.0,6.0,0.0
2531,46.0,0.0,180.0,10.0,0.0
2532,75.0,36.0,150.0,1.0,0.0
2533,73.0,204.0,180.0,7.0,0.0
2534,77.0,0.0,150.0,1.0,0.0
2535,89.0,36.0,150.0,0.0,0.0
2536,58.0,0.0,180.0,3.0,0.0
2537,46.0,0.0,180.0,4.0,0.0
2538,77.0,0.0,150.0,6.0,0.0
2539,89.0,0.0,150.0,5.0,0.0
2540,58.0,0.0,180.0,8.0,0.0
2541,73.0,0.0,180.0,2.0,0.0
2542,73.0,204.0,180.0,7.0,0.0
2543,46.0,0.0,180.0,10.0,0.0
2544,46.0,0.0,180.0,10.0,0.0
2545,90.0,36.0,150.0,5.0,0.0
2546,73.0,0.0,180.0,2.0,0.0
2547,90.0,0.0,150.0,0.0,0.0
2548,78.0,0.0,150.0,1.0,0.0
2549,46.0,0.0,180.0,4.0,0.0
2550,73.0,0.0,180.0,7.0,0.0
2551,58.0,0.0,180.0,8.0,0.0
2552,58.0,240.0,180.0,3.0,0.0
2553,78.0,0.0,150.0,6.0,0.0
2554,73.0,0.0,240.0,7.0,0.0
2555,44.0,0.0,180.0,4.0,0.0
2556,89.0,0.0,240.0,5.0,0.0
2557,56.0,0.0,180.0,8.0,0.0
2558,73.0,0.0,240.0,2.0,0.0
2559,77.0,156.0,240.0,6.0,0.0
2560,44.0,0.0,180.0,10.0,0.0
2561,77.0,0.0,240.0,1.0,0.0
2562,89.0,0.0,240.0,0.0,0.0
2563,56.0,48.0,180.0,3.0,0.0
2564,56.0,0.0,180.0,8.0,0.0
2565,56.0,204.0,180.0,3.0,0.0
2566,75.0,0.0,150.0,6.0,0.0
2567,87.0,36.0,150.0,0.0,0.0
2568,75.0,0.0,150.0,1.0,0.0
2569,44.0,0.0,180.0,4.0,0.0
2570,65.0,0.0,180.0,7.0,0.0
2571,44.0,0.0,180.0,10.0,0.0
2572,65.0,0.0,180.0,2.0,0.0
2573,87.0,0.0,150.0,5.0,0.0
2574,65.0,0.0,180.0,2.0,0.0
2575,44.0,0.0,180.0,10.0,0.0
2576,73.0,0.0,150.0,6.0,0.0
2577,65.0,0.0,180.0,7.0,0.0
2578,44.0,0.0,180.0,4.0,0.0
2579,85.0,0.0,150.0,0.0,0.0
2580,56.0,0.0,180.0,8.0,0.0
2581,56.0,204.0,180.0,3.0,0.0
2582,85.0,0.0,150.0,5.0,0.0
2583,73.0,36.0,150.0,1.0,0.0
2584,44.0,0.0,180.0,10.0,0.0
2585,83.0,0.0,150.0,0.0,0.0
2586,71.0,0.0,150.0,6.0,0.0
2587,83.0,0.0,150.0,5.0,0.0
2588,44.0,240.0,180.0,4.0,0.0
2589,56.0,0.0,180.0,8.0,0.0
2590,65.0,0.0,180.0,7.0,0.0
2591,71.0,36.0,150.0,1.0,0.0
2592,56.0,0.0,180.0,3.0,0.0
2593,65.0,0.0,180.0,2.0,0.0
2594,42.0,0.0,180.0,10.0,0.0
2595,66.0,156.0,240.0,7.0,0.0
2596,54.0,0.0,180.0,8.0,0.0
2597,82.0,0.0,240.0,5.0,0.0
2598,42.0,0.0,180.0,4.0,0.0
2599,66.0,0.0,240.0,2.0,0.0
2600,54.0,48.0,180.0,3.0,0.0
2601,82.0,0.0,240.0,0.0,0.0
2602,70.0,0.0,240.0,6.0,0.0
2603,70.0,0.0,240.0,1.0,0.0
2604,42.0,0.0,180.0,4.0,0.0
2605,83.0,0.0,150.0,5.0,0.0
2606,68.0,0.0,180.0,2.0,0.0
2607,71.0,0.0,150.0,6.0,0.0
2608,83.0,36.0,150.0,0.0,0.0
2609,42.0,204.0,180.0,10.0,0.0
2610,68.0,0.0,180.0,7.0,0.0
2611,71.0,0.0,150.0,1.0,0.0
2612,54.0,0.0,180.0,8.0,0.0
2613,54.0,0.0,180.0,3.0,0.0
2614,73.0,0.0,150.0,6.0,0.0
2615,85.0,0.0,150.0,5.0,0.0
2616,70.0,0.0,180.0,2.0,0.0
2617,85.0,0.0,150.0,0.0,0.0
2618,54.0,0.0,180.0,3.0,0.0
2619,42.0,0.0,180.0,4.0,0.0
2620,54.0,0.0,180.0,8.0,0.0
2621,70.0,0.0,180.0,7.0,0.0
2622,42.0,204.0,180.0,10.0,0.0
2623,73.0,36.0,150.0,1.0,0.0
2624,75.0,0.0,150.0,1.0,0.0
2625,87.0,36.0,150.0,5.0,0.0
2626,54.0,0.0,180.0,8.0,0.0
2627,75.0,0.0,150.0,6.0,0.0
2628,42.0,240.0,180.0,4.0,0.0
2629,71.0,0.0,180.0,7.0,0.0
2630,54.0,0.0,180.0,3.0,0.0
2631,42.0,0.0,180.0,10.0,0.0
2632,87.0,0.0,150.0,0.0,0.0
2633,71.0,0.0,180.0,2.0,0.0
2634,47.0,0.0,180.0,4.0,0.0
2635,47.0,0.0,180.0,10.0,0.0
2636,70.0,0.0,240.0,7.0,0.0
2637,70.0,156.0,240.0,2.0,0.0
2638,85.0,0.0,240.0,5.0,0.0
2639,73.0,0.0,240.0,6.0,0.0
2640,59.0,0.0,180.0,8.0,0.0
2641,73.0,0.0,240.0,1.0,0.0
2642,59.0,48.0,180.0,3.0,0.0
2643,85.0,0.0,240.0,0.0,0.0
2644,59.0,0.0,180.0,8.0,0.0
2645,47.0,0.0,180.0,10.0,0.0
2646,71.0,0.0,150.0,1.0,0.0
2647,59.0,204.0,180.0,3.0,0.0
2648,83.0,0.0,150.0,0.0,0.0
2649,68.0,0.0,180.0,2.0,0.0
2650,83.0,0.0,150.0,5.0,0.0
2651,47.0,0.0,180.0,4.0,0.0
2652,71.0,36.0,150.0,6.0,0.0
2653,68.0,0.0,180.0,7.0,0.0
2654,47.0,0.0,180.0,10.0,0.0
2655,82.0,0.0,150.0,0.0,0.0
2656,59.0,0.0,180.0,8.0,0.0
2657,70.0,0.0,150.0,1.0,0.0
2658,73.0,0.0,180.0,7.0,0.0
2659,47.0,0.0,180.0,4.0,0.0
2660,73.0,204.0,180.0,2.0,0.0
2661,82.0,0.0,150.0,5.0,0.0
2662,70.0,36.0,150.0,6.0,0.0
2663,59.0,0.0,180.0,3.0,0.0
2664,71.0,0.0,180.0,2.0,0.0
2665,80.0,0.0,150.0,0.0,0.0
2666,59.0,0.0,180.0,3.0,0.0
2667,71.0,0.0,180.0,7.0,0.0
2668,59.0,240.0,180.0,8.0,0.0
2669,80.0,0.0,150.0,5.0,0.0
2670,47.0,0.0,180.0,4.0,0.0
2671,68.0,0.0,150.0,1.0,0.0
2672,68.0,36.0,150.0,6.0,0.0
2673,47.0,0.0,180.0,10.0,0.0
2674,80.0,0.0,240.0,5.0,0.0
2675,71.0,0.0,240.0,7.0,0.0
2676,49.0,0.0,180.0,10.0,0.0
2677,68.0,0.0,240.0,1.0,0.0
2678,68.0,0.0,240.0,6.0,0.0
2679,71.0,0.0,240.0,2.0,0.0
2680,80.0,156.0,240.0,0.0,0.0
2681,49.0,48.0,180.0,4.0,0.0
2682,61.0,0.0,180.0,8.0,0.0
2683,61.0,0.0,180.0,3.0,0.0
2684,66.0,0.0,150.0,1.0,0.0
2685,49.0,0.0,180.0,4.0,0.0
2686,66.0,0.0,150.0,6.0,0.0
2687,61.0,204.0,180.0,3.0,0.0
2688,78.0,0.0,150.0,0.0,0.0
2689,49.0,0.0,180.0,10.0,0.0
2690,70.0,0.0,180.0,2.0,0.0
2691,61.0,0.0,180.0,8.0,0.0
2692,70.0,0.0,180.0,7.0,0.0
2693,78.0,36.0,150.0,5.0,0.0
2694,49.0,0.0,180.0,4.0,0.0
2695,61.0,0.0,180.0,8.0,0.0
2696,78.0,0.0,150.0,0.0,0.0
2697,49.0,0.0,180.0,10.0,0.0
2698,70.0,0.0,180.0,7.0,0.0
2699,78.0,36.0,150.0,5.0,0.0
2700,66.0,0.0,150.0,6.0,0.0
2701,61.0,0.0,180.0,3.0,0.0
2702,70.0,204.0,180.0,2.0,0.0
2703,66.0,0.0,150.0,1.0,0.0
2704,70.0,0.0,180.0,2.0,0.0
2705,61.0,0.0,180.0,8.0,0.0
2706,66.0,0.0,150.0,6.0,0.0
2707,66.0,36.0,150.0,1.0,0.0
2708,70.0,240.0,180.0,7.0,0.0
2709,61.0,0.0,180.0,3.0,0.0
2710,78.0,0.0,150.0,0.0,0.0
2711,49.0,0.0,180.0,4.0,0.0
2712,78.0,0.0,150.0,5.0,0.0
2713,49.0,0.0,180.0,10.0,0.0
2714,66.0,0.0,240.0,1.0,0.0
2715,49.0,0.0,180.0,3.0,0.0
2716,66.0,0.0,240.0,6.0,0.0
2717,70.0,0.0,240.0,2.0,0.0
2718,78.0,0.0,240.0,0.0,0.0
2719,37.0,48.0,180.0,10.0,0.0
2720,70.0,156.0,240.0,7.0,0.0
2721,37.0,0.0,180.0,4.0,0.0
2722,49.0,0.0,180.0,8.0,0.0
2723,78.0,0.0,240.0,5.0,0.0
2724,37.0,204.0,180.0,4.0,0.0
2725,70.0,0.0,150.0,6.0,0.0
2726,49.0,0.0,180.0,8.0,0.0
2727,70.0,0.0,150.0,1.0,0.0
2728,49.0,0.0,180.0,3.0,0.0
2729,73.0,0.0,180.0,2.0,0.0
2730,82.0,36.0,150.0,5.0,0.0
2731,73.0,0.0,180.0,7.0,0.0
2732,37.0,0.0,180.0,10.0,0.0
2733,82.0,0.0,150.0,0.0,0.0
2734,49.0,0.0,180.0,3.0,0.0
2735,37.0,0.0,180.0,10.0,0.0
2736,71.0,0.0,180.0,7.0,0.0
2737,80.0,36.0,150.0,5.0,0.0
2738,80.0,0.0,150.0,0.0,0.0
2739,37.0,204.0,180.0,4.0,0.0
2740,68.0,0.0,150.0,1.0,0.0
2741,49.0,0.0,180.0,8.0,0.0
2742,68.0,0.0,150.0,6.0,0.0
2743,71.0,0.0,180.0,2.0,0.0
2744,37.0,0.0,180.0,4.0,0.0
2745,37.0,0.0,180.0,10.0,0.0
2746,49.0,204.0,180.0,3.0,0.0
2747,68.0,0.0,180.0,7.0,0.0
2748,65.0,0.0,150.0,1.0,0.0
2749,65.0,36.0,150.0,6.0,0.0
2750,49.0,0.0,180.0,8.0,0.0
2751,77.0,0.0,150.0,0.0,0.0
2752,68.0,0.0,180.0,2.0,0.0
2753,77.0,0.0,150.0,5.0,0.0
2754,66.0,0.0,180.0,7.0,0.0
2755,66.0,192.0,180.0,2.0,0.0
2756,54.0,0.0,390.0,8.0,0.0
2757,54.0,0.0,390.0,3.0,0.0
2758,78.0,12.0,390.0,0.0,0.0
2759,78.0,0.0,390.0,5.0,0.0
2760,66.0,36.0,150.0,1.0,0.0
2761,42.0,0.0,390.0,4.0,0.0
2762,42.0,0.0,390.0,10.0,0.0
2763,66.0,0.0,150.0,6.0,0.0
2764,61.0,0.0,150.0,1.0,0.0
2765,58.0,0.0,180.0,7.0,0.0
2766,58.0,204.0,180.0,2.0,0.0
2767,61.0,36.0,150.0,6.0,0.0
2768,61.0,0.0,150.0,6.0,0.0
2769,61.0,36.0,150.0,1.0,0.0
2770,54.0,0.0,390.0,3.0,0.0
2771,54.0,0.0,390.0,8.0,0.0
2772,42.0,0.0,390.0,4.0,0.0
2773,58.0,0.0,180.0,2.0,0.0
2774,42.0,12.0,390.0,10.0,0.0
2775,58.0,192.0,180.0,7.0,0.0
2776,58.0,204.0,180.0,7.0,0.0
2777,58.0,0.0,180.0,2.0,0.0
2778,61.0,36.0,150.0,6.0,0.0
2779,61.0,0.0,150.0,1.0,0.0
2780,61.0,0.0,150.0,6.0,0.0
2781,58.0,12.0,390.0,3.0,0.0
2782,46.0,0.0,390.0,4.0,0.0
2783,58.0,0.0,180.0,2.0,0.0
2784,58.0,192.0,180.0,7.0,0.0
2785,46.0,0.0,390.0,10.0,0.0
2786,58.0,0.0,390.0,8.0,0.0
2787,61.0,36.0,150.0,1.0,0.0
2788,61.0,0.0,150.0,1.0,0.0
2789,58.0,0.0,180.0,2.0,0.0
2790,73.0,192.0,180.0,0.0,0.0
2791,61.0,36.0,150.0,6.0,0.0
2792,73.0,0.0,180.0,5.0,0.0
2793,58.0,0.0,180.0,7.0,0.0
2794,49.0,0.0,390.0,4.0,0.0
2795,61.0,0.0,390.0,3.0,0.0
2796,78.0,0.0,150.0,5.0,0.0
2797,61.0,0.0,390.0,8.0,0.0
2798,58.0,0.0,180.0,7.0,0.0
2799,78.0,12.0,150.0,0.0,0.0
2800,49.0,12.0,390.0,10.0,0.0
2801,61.0,0.0,150.0,6.0,0.0
2802,61.0,36.0,150.0,1.0,0.0
2803,58.0,192.0,180.0,2.0,0.0
2804,61.0,36.0,150.0,1.0,0.0
2805,82.0,0.0,150.0,0.0,0.0
2806,61.0,0.0,150.0,6.0,0.0
2807,58.0,204.0,180.0,2.0,0.0
2808,58.0,0.0,180.0,7.0,0.0
2809,82.0,0.0,150.0,5.0,0.0
2810,61.0,36.0,150.0,6.0,0.0
2811,66.0,0.0,390.0,8.0,0.0
2812,85.0,96.0,300.0,5.0,0.0
2813,58.0,0.0,180.0,7.0,0.0
2814,54.0,0.0,390.0,4.0,0.0
2815,54.0,12.0,390.0,10.0,0.0
2816,58.0,96.0,180.0,2.0,0.0
2817,66.0,0.0,390.0,3.0,0.0
2818,85.0,0.0,300.0,0.0,0.0
2819,61.0,0.0,150.0,1.0,0.0
2820,61.0,36.0,150.0,6.0,0.0
2821,58.0,0.0,180.0,7.0,0.0
2822,61.0,0.0,150.0,1.0,0.0
2823,58.0,204.0,180.0,2.0,0.0
2824,54.0,0.0,390.0,3.0,0.0
2825,42.0,12.0,390.0,10.0,0.0
2826,54.0,0.0,390.0,8.0,0.0
2827,58.0,0.0,180.0,7.0,0.0
2828,85.0,0.0,300.0,5.0,0.0
2829,66.0,36.0,150.0,1.0,0.0
2830,85.0,96.0,300.0,0.0,0.0
2831,66.0,0.0,150.0,6.0,0.0
2832,42.0,0.0,390.0,4.0,0.0
2833,58.0,96.0,180.0,2.0,0.0
2834,66.0,36.0,150.0,6.0,0.0
2835,58.0,0.0,180.0,7.0,0.0
2836,58.0,204.0,180.0,2.0,0.0
2837,66.0,0.0,150.0,1.0,0.0
2838,85.0,0.0,300.0,5.0,0.0
2839,65.0,0.0,150.0,1.0,0.0
2840,85.0,108.0,300.0,0.0,0.0
2841,58.0,96.0,180.0,7.0,0.0
2842,65.0,36.0,150.0,6.0,0.0
2843,58.0,0.0,180.0,2.0,0.0
2844,58.0,0.0,180.0,7.0,0.0
2845,58.0,204.0,180.0,2.0,0.0
2846,65.0,0.0,150.0,6.0,0.0
2847,65.0,36.0,150.0,1.0,0.0
2848,64.0,36.0,150.0,6.0,0.0
2849,58.0,0.0,180.0,2.0,0.0
2850,85.0,0.0,300.0,0.0,0.0
2851,85.0,108.0,300.0,5.0,0.0
2852,64.0,0.0,150.0,1.0,0.0
2853,58.0,96.0,180.0,7.0,0.0
2854,58.0,0.0,180.0,2.0,0.0
2855,64.0,36.0,150.0,1.0,0.0
2856,64.0,0.0,150.0,6.0,0.0
2857,58.0,204.0,180.0,7.0,0.0
2858,59.0,0.0,180.0,7.0,0.0
2859,75.0,0.0,390.0,5.0,0.0
2860,75.0,12.0,390.0,0.0,0.0
2861,63.0,0.0,150.0,1.0,0.0
2862,59.0,192.0,180.0,2.0,0.0
2863,63.0,36.0,150.0,6.0,0.0
2864,63.0,36.0,150.0,6.0,0.0
2865,59.0,0.0,180.0,7.0,0.0
2866,63.0,0.0,150.0,1.0,0.0
2867,59.0,204.0,180.0,2.0,0.0
2868,42.0,0.0,390.0,4.0,0.0
2869,42.0,0.0,390.0,10.0,0.0
2870,63.0,0.0,150.0,6.0,0.0
2871,54.0,12.0,390.0,8.0,0.0
2872,63.0,36.0,150.0,1.0,0.0
2873,59.0,192.0,180.0,2.0,0.0
2874,54.0,0.0,390.0,3.0,0.0
2875,59.0,0.0,180.0,7.0,0.0
2876,59.0,0.0,180.0,7.0,0.0
2877,63.0,36.0,150.0,6.0,0.0
2878,59.0,204.0,180.0,2.0,0.0
2879,63.0,0.0,150.0,1.0,0.0
2880,59.0,0.0,180.0,7.0,0.0
2881,47.0,0.0,390.0,10.0,0.0
2882,63.0,0.0,150.0,6.0,0.0
2883,47.0,12.0,390.0,4.0,0.0
2884,59.0,0.0,390.0,8.0,0.0
2885,63.0,36.0,150.0,1.0,0.0
2886,59.0,192.0,180.0,2.0,0.0
2887,59.0,0.0,390.0,3.0,0.0
2888,63.0,0.0,150.0,6.0,0.0
2889,59.0,0.0,180.0,2.0,0.0
2890,75.0,0.0,150.0,5.0,0.0
2891,75.0,0.0,150.0,0.0,0.0
2892,63.0,36.0,150.0,1.0,0.0
2893,59.0,192.0,180.0,7.0,0.0
2894,78.0,0.0,150.0,5.0,0.0
2895,63.0,0.0,150.0,6.0,0.0
2896,63.0,36.0,150.0,1.0,0.0
2897,59.0,192.0,180.0,7.0,0.0
2898,51.0,12.0,390.0,4.0,0.0
2899,51.0,0.0,390.0,10.0,0.0
2900,59.0,0.0,180.0,2.0,0.0
2901,63.0,0.0,390.0,3.0,0.0
2902,63.0,0.0,390.0,8.0,0.0
2903,78.0,12.0,150.0,0.0,0.0
2904,59.0,204.0,180.0,2.0,0.0
2905,63.0,36.0,150.0,6.0,0.0
2906,83.0,0.0,150.0,5.0,0.0
2907,63.0,0.0,150.0,1.0,0.0
2908,59.0,0.0,180.0,7.0,0.0
2909,83.0,0.0,150.0,0.0,0.0
2910,54.0,0.0,390.0,10.0,0.0
2911,63.0,0.0,150.0,1.0,0.0
2912,54.0,0.0,390.0,4.0,0.0
2913,87.0,0.0,300.0,0.0,0.0
2914,59.0,0.0,180.0,7.0,0.0
2915,66.0,0.0,390.0,3.0,0.0
2916,59.0,96.0,180.0,2.0,0.0
2917,63.0,36.0,150.0,6.0,0.0
2918,66.0,12.0,390.0,8.0,0.0
2919,87.0,96.0,300.0,5.0,0.0
2920,63.0,36.0,150.0,6.0,0.0
2921,59.0,0.0,180.0,2.0,0.0
2922,59.0,204.0,180.0,7.0,0.0
2923,63.0,0.0,150.0,1.0,0.0
2924,87.0,96.0,300.0,0.0,0.0
2925,54.0,0.0,390.0,3.0,0.0
2926,75.0,0.0,150.0,1.0,0.0
2927,87.0,0.0,300.0,5.0,0.0
2928,54.0,12.0,390.0,8.0,0.0
2929,75.0,36.0,150.0,6.0,0.0
2930,42.0,0.0,390.0,10.0,0.0
2931,66.0,0.0,180.0,7.0,0.0
2932,66.0,96.0,180.0,2.0,0.0
2933,42.0,0.0,390.0,4.0,0.0
2934,75.0,36.0,150.0,6.0,0.0
2935,75.0,0.0,150.0,1.0,0.0
2936,66.0,0.0,180.0,2.0,0.0
2937,66.0,204.0,180.0,7.0,0.0
2938,64.0,0.0,180.0,2.0,0.0
2939,87.0,108.0,300.0,0.0,0.0
2940,73.0,0.0,150.0,6.0,0.0
2941,87.0,0.0,300.0,5.0,0.0
2942,64.0,96.0,180.0,7.0,0.0
2943,73.0,36.0,150.0,1.0,0.0
2944,73.0,0.0,150.0,1.0,0.0
2945,64.0,204.0,180.0,2.0,0.0
2946,64.0,0.0,180.0,7.0,0.0
2947,73.0,36.0,150.0,6.0,0.0
2948,71.0,0.0,150.0,6.0,0.0
2949,87.0,0.0,300.0,5.0,0.0
2950,63.0,0.0,180.0,2.0,0.0
2951,63.0,96.0,180.0,7.0,0.0
2952,87.0,108.0,300.0,0.0,0.0
2953,71.0,36.0,150.0,1.0,0.0
2954,71.0,0.0,150.0,1.0,0.0
2955,71.0,36.0,150.0,6.0,0.0
2956,63.0,204.0,180.0,7.0,0.0
2957,63.0,0.0,180.0,2.0,0.0
2958,76.0,12.0,390.0,5.0,0.0
2959,61.0,0.0,180.0,2.0,0.0
2960,76.0,0.0,390.0,0.0,0.0
2961,70.0,36.0,150.0,6.0,0.0
2962,70.0,0.0,150.0,1.0,0.0
2963,61.0,192.0,180.0,7.0,0.0
2964,61.0,0.0,180.0,2.0,0.0
2965,70.0,0.0,150.0,1.0,0.0
2966,61.0,204.0,180.0,7.0,0.0
2967,70.0,36.0,150.0,6.0,0.0
2968,70.0,36.0,150.0,1.0,0.0
2969,70.0,0.0,150.0,6.0,0.0
2970,42.0,0.0,390.0,10.0,0.0
2971,61.0,0.0,180.0,2.0,0.0
2972,61.0,192.0,180.0,7.0,0.0
2973,54.0,12.0,390.0,8.0,0.0
2974,54.0,0.0,390.0,3.0,0.0
2975,42.0,0.0,390.0,4.0,0.0
2976,70.0,0.0,150.0,1.0,0.0
2977,70.0,36.0,150.0,6.0,0.0
2978,61.0,204.0,180.0,2.0,0.0
2979,61.0,0.0,180.0,7.0,0.0
2980,70.0,0.0,150.0,1.0,0.0
2981,61.0,0.0,180.0,7.0,0.0
2982,46.0,0.0,390.0,10.0,0.0
2983,46.0,0.0,390.0,4.0,0.0
2984,70.0,36.0,150.0,6.0,0.0
2985,58.0,0.0,390.0,8.0,0.0
2986,61.0,192.0,180.0,2.0,0.0
2987,58.0,12.0,390.0,3.0,0.0
2988,70.0,36.0,150.0,1.0,0.0
2989,70.0,0.0,150.0,6.0,0.0
2990,61.0,0.0,180.0,2.0,0.0
2991,76.0,0.0,150.0,5.0,0.0
2992,76.0,0.0,150.0,0.0,0.0
2993,61.0,192.0,180.0,7.0,0.0
2994,82.0,0.0,150.0,0.0,0.0
2995,61.0,0.0,390.0,8.0,0.0
2996,49.0,0.0,390.0,4.0,0.0
2997,61.0,0.0,180.0,7.0,0.0
2998,82.0,12.0,150.0,5.0,0.0
2999,70.0,0.0,150.0,1.0,0.0
3000,49.0,12.0,390.0,10.0,0.0
3001,61.0,0.0,390.0,3.0,0.0
3002,70.0,36.0,150.0,6.0,0.0
3003,61.0,192.0,180.0,2.0,0.0
3004,70.0,36.0,150.0,1.0,0.0
3005,85.0,0.0,150.0,5.0,0.0
3006,70.0,0.0,150.0,6.0,0.0
3007,61.0,0.0,180.0,7.0,0.0
3008,61.0,204.0,180.0,2.0,0.0
3009,85.0,0.0,150.0,0.0,0.0
3010,66.0,0.0,390.0,3.0,0.0
3011,70.0,36.0,150.0,6.0,0.0
3012,54.0,0.0,390.0,4.0,0.0
3013,70.0,0.0,150.0,1.0,0.0
3014,66.0,96.0,180.0,7.0,0.0
3015,66.0,12.0,390.0,8.0,0.0
3016,88.0,96.0,300.0,0.0,0.0
3017,54.0,0.0,390.0,10.0,0.0
3018,88.0,0.0,300.0,5.0,0.0
3019,66.0,0.0,180.0,2.0,0.0
3020,70.0,0.0,150.0,1.0,0.0
3021,66.0,0.0,180.0,7.0,0.0
3022,66.0,204.0,180.0,2.0,0.0
3023,70.0,36.0,150.0,6.0,0.0
3024,68.0,96.0,180.0,7.0,0.0
3025,42.0,12.0,390.0,4.0,0.0
3026,88.0,0.0,300.0,5.0,0.0
3027,68.0,0.0,180.0,2.0,0.0
3028,71.0,0.0,150.0,1.0,0.0
3029,54.0,0.0,390.0,3.0,0.0
3030,71.0,36.0,150.0,6.0,0.0
3031,42.0,0.0,390.0,10.0,0.0
3032,54.0,0.0,390.0,8.0,0.0
3033,88.0,96.0,300.0,0.0,0.0
3034,68.0,0.0,180.0,2.0,0.0
3035,71.0,36.0,150.0,6.0,0.0
3036,68.0,204.0,180.0,7.0,0.0
3037,71.0,0.0,150.0,1.0,0.0
3038,88.0,108.0,300.0,0.0,0.0
3039,70.0,96.0,180.0,2.0,0.0
3040,88.0,0.0,300.0,5.0,0.0
3041,70.0,0.0,180.0,7.0,0.0
3042,73.0,36.0,150.0,1.0,0.0
3043,73.0,0.0,150.0,6.0,0.0
3044,70.0,204.0,180.0,7.0,0.0
3045,73.0,36.0,150.0,6.0,0.0
3046,73.0,0.0,150.0,1.0,0.0
3047,70.0,0.0,180.0,2.0,0.0
3048,75.0,36.0,150.0,6.0,0.0
3049,88.0,108.0,300.0,0.0,0.0
3050,71.0,0.0,180.0,2.0,0.0
3051,75.0,0.0,150.0,1.0,0.0
3052,88.0,0.0,300.0,5.0,0.0
3053,71.0,96.0,180.0,7.0,0.0
3054,75.0,36.0,150.0,1.0,0.0
3055,75.0,0.0,150.0,6.0,0.0
3056,71.0,432.0,180.0,7.0,0.0
3057,71.0,0.0,180.0,2.0,0.0
3058,73.0,0.0,390.0,7.0,0.0
3059,76.0,0.0,390.0,6.0,0.0
3060,73.0,0.0,390.0,2.0,0.0
3061,76.0,0.0,390.0,1.0,0.0
3062,78.0,0.0,390.0,0.0,0.0
3063,78.0,0.0,390.0,5.0,0.0
3064,70.0,0.0,390.0,7.0,0.0
3065,70.0,1008.0,390.0,2.0,0.0
3066,78.0,0.0,180.0,0.0,0.0
3067,78.0,240.0,180.0,5.0,0.0
3068,83.0,240.0,180.0,5.0,0.0
3069,83.0,0.0,180.0,0.0,0.0
3070,87.0,0.0,180.0,0.0,0.0
3071,87.0,240.0,180.0,5.0,0.0
3072,59.0,0.0,180.0,7.0,0.0
3073,59.0,0.0,780.0,3.0,0.0
3074,63.0,96.0,180.0,1.0,0.0
3075,90.0,144.0,300.0,0.0,0.0
3076,59.0,0.0,780.0,8.0,0.0
3077,63.0,0.0,180.0,6.0,0.0
3078,47.0,0.0,780.0,4.0,0.0
3079,47.0,0.0,780.0,10.0,0.0
3080,90.0,0.0,300.0,5.0,0.0
3081,59.0,0.0,180.0,2.0,0.0
3082,59.0,0.0,180.0,2.0,0.0
3083,59.0,0.0,180.0,7.0,0.0
3084,63.0,0.0,180.0,6.0,0.0
3085,63.0,240.0,180.0,1.0,0.0
3086,90.0,0.0,300.0,0.0,0.0
3087,90.0,144.0,300.0,5.0,0.0
3088,63.0,0.0,180.0,7.0,0.0
3089,63.0,0.0,180.0,2.0,0.0
3090,66.0,96.0,180.0,6.0,0.0
3091,66.0,0.0,180.0,1.0,0.0
3092,66.0,0.0,180.0,6.0,0.0
3093,63.0,240.0,180.0,2.0,0.0
3094,66.0,0.0,180.0,1.0,0.0
3095,63.0,0.0,180.0,7.0,0.0
3096,66.0,96.0,180.0,2.0,0.0
3097,90.0,0.0,300.0,0.0,0.0
3098,66.0,0.0,180.0,7.0,0.0
3099,71.0,0.0,180.0,6.0,0.0
3100,90.0,144.0,300.0,5.0,0.0
3101,71.0,0.0,180.0,1.0,0.0
3102,66.0,0.0,180.0,2.0,0.0
3103,71.0,240.0,180.0,1.0,0.0
3104,71.0,0.0,180.0,6.0,0.0
3105,66.0,0.0,180.0,7.0,0.0
3106,71.0,96.0,180.0,2.0,0.0
3107,75.0,0.0,180.0,1.0,0.0
3108,90.0,144.0,300.0,5.0,0.0
3109,71.0,0.0,180.0,7.0,0.0
3110,75.0,0.0,180.0,6.0,0.0
3111,90.0,0.0,300.0,0.0,0.0
3112,71.0,0.0,180.0,2.0,0.0
3113,75.0,0.0,180.0,6.0,0.0
3114,71.0,0.0,180.0,7.0,0.0
3115,75.0,240.0,180.0,1.0,0.0
3116,82.0,0.0,300.0,5.0,0.0
3117,76.0,0.0,180.0,1.0,0.0
3118,73.0,0.0,180.0,7.0,0.0
3119,54.0,48.0,390.0,3.0,0.0
3120,54.0,0.0,390.0,8.0,0.0
3121,42.0,0.0,390.0,4.0,0.0
3122,42.0,0.0,390.0,10.0,0.0
3123,73.0,96.0,180.0,2.0,0.0
3124,82.0,96.0,300.0,0.0,0.0
3125,76.0,0.0,180.0,6.0,0.0
3126,76.0,240.0,180.0,1.0,0.0
3127,73.0,0.0,180.0,2.0,0.0
3128,76.0,0.0,180.0,6.0,0.0
3129,73.0,0.0,180.0,7.0,0.0
3130,73.0,0.0,180.0,2.0,0.0
3131,82.0,144.0,300.0,5.0,0.0
3132,73.0,96.0,180.0,7.0,0.0
3133,76.0,0.0,180.0,6.0,0.0
3134,76.0,0.0,180.0,1.0,0.0
3135,82.0,0.0,300.0,0.0,0.0
3136,76.0,240.0,180.0,1.0,0.0
3137,76.0,0.0,180.0,6.0,0.0
3138,73.0,0.0,180.0,2.0,0.0
3139,73.0,0.0,180.0,7.0,0.0
3140,75.0,0.0,180.0,6.0,0.0
3141,71.0,0.0,180.0,2.0,0.0
3142,83.0,96.0,300.0,5.0,0.0
3143,47.0,0.0,390.0,4.0,0.0
3144,75.0,96.0,180.0,1.0,0.0
3145,47.0,0.0,390.0,10.0,0.0
3146,71.0,0.0,180.0,7.0,0.0
3147,83.0,0.0,300.0,0.0,0.0
3148,59.0,48.0,390.0,8.0,0.0
3149,59.0,0.0,390.0,3.0,0.0
3150,71.0,0.0,180.0,2.0,0.0
3151,71.0,128.0,180.0,7.0,0.0
3152,75.0,0.0,180.0,6.0,0.0
3153,75.0,0.0,180.0,1.0,0.0
3154,83.0,80.0,90.0,0.0,0.0
3155,71.0,0.0,180.0,7.0,0.0
3156,75.0,48.0,180.0,1.0,0.0
3157,83.0,0.0,90.0,5.0,0.0
3158,75.0,0.0,180.0,6.0,0.0
3159,71.0,0.0,180.0,2.0,0.0
3160,85.0,32.0,90.0,5.0,0.0
3161,85.0,0.0,90.0,0.0,0.0
3162,83.0,0.0,90.0,0.0,0.0
3163,83.0,120.0,90.0,5.0,0.0
3164,71.0,0.0,180.0,7.0,0.0
3165,75.0,48.0,180.0,6.0,0.0
3166,75.0,0.0,180.0,1.0,0.0
3167,82.0,0.0,120.0,0.0,0.0
3168,82.0,72.0,120.0,5.0,0.0
3169,71.0,0.0,180.0,2.0,0.0
3170,83.0,0.0,120.0,0.0,0.0
3171,83.0,192.0,120.0,5.0,0.0
3172,88.0,0.0,300.0,5.0,0.0
3173,46.0,0.0,390.0,4.0,0.0
3174,58.0,0.0,390.0,3.0,0.0
3175,73.0,0.0,180.0,6.0,0.0
3176,66.0,96.0,180.0,2.0,0.0
3177,58.0,0.0,390.0,8.0,0.0
3178,46.0,48.0,390.0,10.0,0.0
3179,66.0,0.0,180.0,7.0,0.0
3180,73.0,0.0,180.0,1.0,0.0
3181,88.0,96.0,300.0,0.0,0.0
3182,73.0,240.0,180.0,1.0,0.0
3183,66.0,0.0,180.0,7.0,0.0
3184,73.0,0.0,180.0,6.0,0.0
3185,66.0,0.0,180.0,2.0,0.0
3186,66.0,0.0,180.0,2.0,0.0
3187,73.0,96.0,180.0,6.0,0.0
3188,66.0,0.0,180.0,7.0,0.0
3189,88.0,144.0,300.0,0.0,0.0
3190,88.0,0.0,300.0,5.0,0.0
3191,73.0,0.0,180.0,1.0,0.0
3192,66.0,0.0,180.0,2.0,0.0
3193,73.0,240.0,180.0,1.0,0.0
3194,73.0,0.0,180.0,6.0,0.0
3195,66.0,0.0,180.0,7.0,0.0
3196,66.0,0.0,180.0,2.0,0.0
3197,87.0,0.0,300.0,0.0,0.0
3198,66.0,0.0,180.0,7.0,0.0
3199,47.0,48.0,390.0,10.0,0.0
3200,59.0,0.0,390.0,3.0,0.0
3201,71.0,96.0,180.0,1.0,0.0
3202,71.0,0.0,180.0,6.0,0.0
3203,59.0,0.0,390.0,8.0,0.0
3204,87.0,96.0,300.0,5.0,0.0
3205,47.0,0.0,390.0,4.0,0.0
3206,66.0,0.0,180.0,7.0,0.0
3207,66.0,240.0,180.0,2.0,0.0
3208,71.0,0.0,180.0,6.0,0.0
3209,71.0,0.0,180.0,1.0,0.0
3210,87.0,144.0,300.0,0.0,0.0
3211,71.0,0.0,180.0,6.0,0.0
3212,87.0,0.0,300.0,5.0,0.0
3213,66.0,96.0,180.0,7.0,0.0
3214,66.0,0.0,180.0,2.0,0.0
3215,71.0,0.0,180.0,1.0,0.0
3216,66.0,240.0,180.0,2.0,0.0
3217,66.0,0.0,180.0,7.0,0.0
3218,71.0,0.0,180.0,6.0,0.0
3219,71.0,0.0,180.0,1.0,0.0
3220,70.0,0.0,180.0,1.0,0.0
3221,66.0,192.0,180.0,7.0,0.0
3222,54.0,0.0,390.0,3.0,0.0
3223,85.0,0.0,390.0,0.0,0.0
3224,85.0,0.0,390.0,5.0,0.0
3225,54.0,48.0,390.0,8.0,0.0
3226,42.0,0.0,390.0,10.0,0.0
3227,70.0,0.0,180.0,6.0,0.0
3228,42.0,0.0,390.0,4.0,0.0
3229,66.0,0.0,180.0,2.0,0.0
3230,71.0,0.0,180.0,2.0,0.0
3231,75.0,240.0,180.0,6.0,0.0
3232,75.0,0.0,180.0,1.0,0.0
3233,71.0,0.0,180.0,7.0,0.0
3234,70.0,0.0,180.0,7.0,0.0
3235,70.0,240.0,180.0,2.0,0.0
3236,73.0,0.0,180.0,1.0,0.0
3237,73.0,0.0,180.0,6.0,0.0
3238,71.0,0.0,180.0,1.0,0.0
3239,68.0,240.0,180.0,2.0,0.0
3240,68.0,0.0,180.0,7.0,0.0
3241,71.0,0.0,180.0,6.0,0.0
3242,70.0,192.0,180.0,6.0,0.0
3243,66.0,0.0,180.0,2.0,0.0
3244,70.0,0.0,180.0,1.0,0.0
3245,66.0,0.0,180.0,7.0,0.0
3246,78.0,0.0,150.0,0.0,0.0
3247,64.0,0.0,180.0,2.0,0.0
3248,78.0,48.0,150.0,5.0,0.0
3249,68.0,0.0,180.0,1.0,0.0
3250,68.0,0.0,180.0,6.0,0.0
3251,64.0,192.0,180.0,7.0,0.0
3252,66.0,0.0,180.0,1.0,0.0
3253,83.0,48.0,150.0,5.0,0.0
3254,66.0,0.0,180.0,6.0,0.0
3255,63.0,192.0,180.0,2.0,0.0
3256,83.0,0.0,150.0,0.0,0.0
3257,63.0,0.0,180.0,7.0,0.0
3258,64.0,0.0,180.0,1.0,0.0
3259,87.0,0.0,150.0,5.0,0.0
3260,64.0,240.0,180.0,6.0,0.0
3261,61.0,0.0,180.0,7.0,0.0
3262,87.0,48.0,150.0,0.0,0.0
3263,61.0,0.0,180.0,2.0,0.0
3264,59.0,0.0,180.0,2.0,0.0
3265,59.0,0.0,180.0,7.0,0.0
3266,63.0,0.0,180.0,1.0,0.0
3267,90.0,144.0,300.0,0.0,0.0
3268,59.0,0.0,780.0,8.0,0.0
3269,90.0,0.0,300.0,5.0,0.0
3270,47.0,0.0,780.0,4.0,0.0
3271,47.0,0.0,780.0,10.0,0.0
3272,59.0,0.0,780.0,3.0,0.0
3273,63.0,96.0,180.0,6.0,0.0
3274,59.0,0.0,180.0,2.0,0.0
3275,63.0,0.0,180.0,1.0,0.0
3276,59.0,0.0,180.0,7.0,0.0
3277,63.0,240.0,180.0,6.0,0.0
3278,66.0,0.0,180.0,1.0,0.0
3279,63.0,96.0,180.0,7.0,0.0
3280,90.0,0.0,300.0,5.0,0.0
3281,63.0,0.0,180.0,2.0,0.0
3282,90.0,144.0,300.0,0.0,0.0
3283,66.0,0.0,180.0,6.0,0.0
3284,66.0,0.0,180.0,1.0,0.0
3285,63.0,240.0,180.0,7.0,0.0
3286,66.0,0.0,180.0,6.0,0.0
3287,63.0,0.0,180.0,2.0,0.0
3288,71.0,0.0,180.0,6.0,0.0
3289,66.0,0.0,180.0,2.0,0.0
3290,71.0,0.0,180.0,1.0,0.0
3291,66.0,96.0,180.0,7.0,0.0
3292,90.0,0.0,300.0,5.0,0.0
3293,90.0,144.0,300.0,0.0,0.0
3294,66.0,240.0,180.0,7.0,0.0
3295,66.0,0.0,180.0,2.0,0.0
3296,71.0,0.0,180.0,6.0,0.0
3297,71.0,0.0,180.0,1.0,0.0
3298,90.0,0.0,300.0,0.0,0.0
3299,75.0,0.0,180.0,1.0,0.0
3300,71.0,0.0,180.0,7.0,0.0
3301,75.0,96.0,180.0,6.0,0.0
3302,90.0,144.0,300.0,5.0,0.0
3303,71.0,0.0,180.0,2.0,0.0
3304,75.0,0.0,180.0,6.0,0.0
3305,75.0,240.0,180.0,1.0,0.0
3306,71.0,0.0,180.0,2.0,0.0
3307,71.0,0.0,180.0,7.0,0.0
3308,76.0,96.0,180.0,1.0,0.0
3309,73.0,0.0,180.0,2.0,0.0
3310,54.0,48.0,390.0,3.0,0.0
3311,42.0,0.0,390.0,10.0,0.0
3312,76.0,0.0,180.0,6.0,0.0
3313,82.0,96.0,300.0,5.0,0.0
3314,82.0,0.0,300.0,0.0,0.0
3315,54.0,0.0,390.0,8.0,0.0
3316,42.0,0.0,390.0,4.0,0.0
3317,73.0,0.0,180.0,7.0,0.0
3318,76.0,128.0,180.0,6.0,0.0
3319,76.0,0.0,180.0,1.0,0.0
3320,73.0,0.0,180.0,2.0,0.0
3321,73.0,0.0,180.0,7.0,0.0
3322,76.0,48.0,180.0,6.0,0.0
3323,76.0,0.0,180.0,1.0,0.0
3324,73.0,0.0,180.0,2.0,0.0
3325,73.0,0.0,180.0,7.0,0.0
3326,82.0,0.0,90.0,0.0,0.0
3327,82.0,80.0,90.0,5.0,0.0
3328,83.0,32.0,90.0,5.0,0.0
3329,83.0,0.0,90.0,0.0,0.0
3330,82.0,120.0,90.0,0.0,0.0
3331,82.0,0.0,90.0,5.0,0.0
3332,80.0,72.0,120.0,5.0,0.0
3333,73.0,48.0,180.0,2.0,0.0
3334,76.0,0.0,180.0,1.0,0.0
3335,76.0,0.0,180.0,6.0,0.0
3336,80.0,0.0,120.0,0.0,0.0
3337,73.0,0.0,180.0,7.0,0.0
3338,82.0,0.0,120.0,0.0,0.0
3339,82.0,192.0,120.0,5.0,0.0
3340,83.0,96.0,300.0,0.0,0.0
3341,71.0,96.0,180.0,2.0,0.0
3342,75.0,0.0,180.0,1.0,0.0
3343,71.0,0.0,180.0,7.0,0.0
3344,56.0,48.0,390.0,3.0,0.0
3345,56.0,0.0,390.0,8.0,0.0
3346,83.0,0.0,300.0,5.0,0.0
3347,44.0,0.0,390.0,10.0,0.0
3348,75.0,0.0,180.0,6.0,0.0
3349,44.0,0.0,390.0,4.0,0.0
3350,75.0,0.0,180.0,1.0,0.0
3351,75.0,128.0,180.0,6.0,0.0
3352,71.0,0.0,180.0,2.0,0.0
3353,71.0,0.0,180.0,7.0,0.0
3354,83.0,80.0,90.0,5.0,0.0
3355,75.0,48.0,180.0,6.0,0.0
3356,75.0,0.0,180.0,1.0,0.0
3357,71.0,0.0,180.0,2.0,0.0
3358,71.0,0.0,180.0,7.0,0.0
3359,83.0,0.0,90.0,0.0,0.0
3360,85.0,32.0,90.0,5.0,0.0
3361,85.0,0.0,90.0,0.0,0.0
3362,83.0,0.0,90.0,0.0,0.0
3363,83.0,120.0,90.0,5.0,0.0
3364,82.0,72.0,120.0,0.0,0.0
3365,71.0,0.0,180.0,7.0,0.0
3366,75.0,0.0,180.0,1.0,0.0
3367,82.0,0.0,120.0,5.0,0.0
3368,71.0,48.0,180.0,2.0,0.0
3369,75.0,0.0,180.0,6.0,0.0
3370,83.0,192.0,120.0,0.0,0.0
3371,83.0,0.0,120.0,5.0,0.0
3372,85.0,96.0,300.0,5.0,0.0
3373,85.0,0.0,300.0,0.0,0.0
3374,80.0,96.0,180.0,6.0,0.0
3375,52.0,0.0,390.0,3.0,0.0
3376,71.0,0.0,180.0,2.0,0.0
3377,40.0,0.0,390.0,10.0,0.0
3378,71.0,0.0,180.0,7.0,0.0
3379,52.0,0.0,390.0,8.0,0.0
3380,80.0,0.0,180.0,1.0,0.0
3381,40.0,48.0,390.0,4.0,0.0
3382,80.0,240.0,180.0,1.0,0.0
3383,71.0,0.0,180.0,2.0,0.0
3384,80.0,0.0,180.0,6.0,0.0
3385,71.0,0.0,180.0,7.0,0.0
3386,85.0,144.0,300.0,0.0,0.0
3387,80.0,0.0,180.0,6.0,0.0
3388,85.0,0.0,300.0,5.0,0.0
3389,80.0,0.0,180.0,1.0,0.0
3390,71.0,0.0,180.0,7.0,0.0
3391,71.0,96.0,180.0,2.0,0.0
3392,80.0,0.0,180.0,6.0,0.0
3393,71.0,0.0,180.0,7.0,0.0
3394,71.0,0.0,180.0,2.0,0.0
3395,80.0,240.0,180.0,1.0,0.0
3396,70.0,0.0,180.0,7.0,0.0
3397,42.0,0.0,390.0,4.0,0.0
3398,54.0,0.0,390.0,3.0,0.0
3399,78.0,0.0,390.0,5.0,0.0
3400,78.0,48.0,390.0,0.0,0.0
3401,76.0,0.0,180.0,6.0,0.0
3402,70.0,192.0,180.0,2.0,0.0
3403,54.0,0.0,390.0,8.0,0.0
3404,42.0,0.0,390.0,10.0,0.0
3405,76.0,0.0,180.0,1.0,0.0
3406,70.0,240.0,180.0,2.0,0.0
3407,70.0,0.0,180.0,7.0,0.0
3408,76.0,0.0,180.0,6.0,0.0
3409,76.0,0.0,180.0,1.0,0.0
3410,80.0,0.0,180.0,5.0,0.0
3411,71.0,0.0,180.0,2.0,0.0
3412,76.0,0.0,180.0,1.0,0.0
3413,76.0,0.0,180.0,6.0,0.0
3414,80.0,0.0,180.0,0.0,0.0
3415,71.0,240.0,180.0,7.0,0.0
3416,73.0,0.0,180.0,2.0,0.0
3417,76.0,0.0,180.0,1.0,0.0
3418,73.0,0.0,180.0,7.0,0.0
3419,76.0,0.0,180.0,6.0,0.0
3420,82.0,0.0,180.0,5.0,0.0
3421,82.0,240.0,180.0,0.0,0.0
3422,83.0,0.0,390.0,0.0,0.0
3423,75.0,0.0,180.0,1.0,0.0
3424,83.0,0.0,390.0,5.0,0.0
3425,59.0,0.0,390.0,3.0,0.0
3426,47.0,0.0,390.0,4.0,0.0
3427,75.0,192.0,180.0,6.0,0.0
3428,47.0,48.0,390.0,10.0,0.0
3429,71.0,0.0,180.0,2.0,0.0
3430,59.0,0.0,390.0,8.0,0.0
3431,71.0,0.0,180.0,7.0,0.0
3432,71.0,0.0,180.0,2.0,0.0
3433,75.0,0.0,180.0,1.0,0.0
3434,71.0,0.0,180.0,7.0,0.0
3435,75.0,240.0,180.0,6.0,0.0
3436,59.0,0.0,390.0,3.0,0.0
3437,70.0,0.0,180.0,7.0,0.0
3438,47.0,0.0,390.0,10.0,0.0
3439,47.0,0.0,390.0,4.0,0.0
3440,59.0,48.0,390.0,8.0,0.0
3441,70.0,0.0,180.0,2.0,0.0
3442,73.0,192.0,180.0,1.0,0.0
3443,73.0,0.0,180.0,6.0,0.0
3444,68.0,0.0,180.0,7.0,0.0
3445,68.0,0.0,180.0,2.0,0.0
3446,71.0,0.0,180.0,1.0,0.0
3447,71.0,240.0,180.0,6.0,0.0
3448,39.0,0.0,390.0,10.0,0.0
3449,66.0,0.0,180.0,2.0,0.0
3450,51.0,48.0,390.0,8.0,0.0
3451,39.0,0.0,390.0,4.0,0.0
3452,70.0,192.0,180.0,6.0,0.0
3453,70.0,0.0,180.0,1.0,0.0
3454,66.0,0.0,180.0,7.0,0.0
3455,51.0,0.0,390.0,3.0,0.0
3456,78.0,0.0,150.0,0.0,0.0
3457,78.0,0.0,150.0,5.0,0.0
3458,68.0,0.0,180.0,1.0,0.0
3459,64.0,0.0,180.0,2.0,0.0
3460,68.0,0.0,180.0,6.0,0.0
3461,64.0,192.0,180.0,7.0,0.0
3462,83.0,0.0,150.0,0.0,0.0
3463,54.0,0.0,390.0,8.0,0.0
3464,66.0,0.0,180.0,1.0,0.0
3465,66.0,0.0,180.0,6.0,0.0
3466,83.0,48.0,150.0,5.0,0.0
3467,42.0,48.0,390.0,10.0,0.0
3468,42.0,0.0,390.0,4.0,0.0
3469,54.0,0.0,390.0,3.0,0.0
3470,63.0,0.0,180.0,7.0,0.0
3471,63.0,192.0,180.0,2.0,0.0
3472,87.0,0.0,150.0,0.0,0.0
3473,64.0,0.0,180.0,6.0,0.0
3474,64.0,0.0,180.0,1.0,0.0
3475,87.0,0.0,150.0,5.0,0.0
3476,61.0,240.0,180.0,7.0,0.0
3477,61.0,0.0,180.0,2.0,0.0
3478,63.0,96.0,180.0,6.0,0.0
3479,90.0,0.0,300.0,0.0,0.0
3480,63.0,0.0,180.0,1.0,0.0
3481,47.0,0.0,780.0,4.0,0.0
3482,59.0,0.0,780.0,3.0,0.0
3483,59.0,0.0,180.0,7.0,0.0
3484,59.0,0.0,180.0,2.0,0.0
3485,90.0,144.0,300.0,5.0,0.0
3486,59.0,0.0,780.0,8.0,0.0
3487,47.0,0.0,780.0,10.0,0.0
3488,59.0,0.0,180.0,7.0,0.0
3489,59.0,0.0,180.0,2.0,0.0
3490,63.0,0.0,180.0,1.0,0.0
3491,63.0,240.0,180.0,6.0,0.0
3492,63.0,0.0,180.0,7.0,0.0
3493,66.0,96.0,180.0,6.0,0.0
3494,63.0,0.0,180.0,2.0,0.0
3495,90.0,0.0,300.0,0.0,0.0
3496,90.0,144.0,300.0,5.0,0.0
3497,66.0,0.0,180.0,1.0,0.0
3498,66.0,0.0,180.0,1.0,0.0
3499,63.0,0.0,180.0,2.0,0.0
3500,66.0,240.0,180.0,6.0,0.0
3501,63.0,0.0,180.0,7.0,0.0
3502,66.0,0.0,180.0,2.0,0.0
3503,90.0,0.0,300.0,0.0,0.0
3504,71.0,0.0,180.0,1.0,0.0
3505,66.0,0.0,180.0,7.0,0.0
3506,90.0,144.0,300.0,5.0,0.0
3507,71.0,96.0,180.0,6.0,0.0
3508,71.0,0.0,180.0,6.0,0.0
3509,66.0,240.0,180.0,2.0,0.0
3510,66.0,0.0,180.0,7.0,0.0
3511,71.0,0.0,180.0,1.0,0.0
3512,90.0,0.0,300.0,0.0,0.0
3513,90.0,144.0,300.0,5.0,0.0
3514,71.0,0.0,180.0,2.0,0.0
3515,75.0,0.0,180.0,6.0,0.0
3516,71.0,96.0,180.0,7.0,0.0
3517,75.0,0.0,180.0,1.0,0.0
3518,75.0,0.0,180.0,1.0,0.0
3519,75.0,0.0,180.0,6.0,0.0
3520,71.0,0.0,180.0,2.0,0.0
3521,71.0,240.0,180.0,7.0,0.0
3522,42.0,0.0,390.0,10.0,0.0
3523,73.0,0.0,180.0,2.0,0.0
3524,82.0,0.0,300.0,5.0,0.0
3525,42.0,0.0,390.0,4.0,0.0
3526,82.0,96.0,300.0,0.0,0.0
3527,76.0,0.0,180.0,6.0,0.0
3528,76.0,96.0,180.0,1.0,0.0
3529,54.0,0.0,390.0,8.0,0.0
3530,54.0,48.0,390.0,3.0,0.0
3531,73.0,0.0,180.0,7.0,0.0
3532,76.0,0.0,180.0,6.0,0.0
3533,73.0,0.0,180.0,2.0,0.0
3534,73.0,240.0,180.0,7.0,0.0
3535,76.0,0.0,180.0,1.0,0.0
3536,76.0,0.0,180.0,6.0,0.0
3537,82.0,0.0,300.0,0.0,0.0
3538,82.0,144.0,300.0,5.0,0.0
3539,76.0,96.0,180.0,1.0,0.0
3540,73.0,0.0,180.0,2.0,0.0
3541,73.0,0.0,180.0,7.0,0.0
3542,76.0,0.0,180.0,6.0,0.0
3543,76.0,0.0,180.0,1.0,0.0
3544,73.0,240.0,180.0,2.0,0.0
3545,73.0,0.0,180.0,7.0,0.0
3546,59.0,0.0,390.0,3.0,0.0
3547,71.0,0.0,180.0,2.0,0.0
3548,75.0,0.0,180.0,6.0,0.0
3549,83.0,0.0,300.0,5.0,0.0
3550,71.0,0.0,180.0,7.0,0.0
3551,59.0,0.0,390.0,8.0,0.0
3552,83.0,96.0,300.0,0.0,0.0
3553,47.0,48.0,390.0,4.0,0.0
3554,47.0,0.0,390.0,10.0,0.0
3555,75.0,96.0,180.0,1.0,0.0
3556,71.0,128.0,180.0,7.0,0.0
3557,71.0,0.0,180.0,2.0,0.0
3558,75.0,0.0,180.0,1.0,0.0
3559,75.0,0.0,180.0,6.0,0.0
3560,83.0,0.0,90.0,0.0,0.0
3561,75.0,48.0,180.0,6.0,0.0
3562,71.0,0.0,180.0,2.0,0.0
3563,83.0,80.0,90.0,5.0,0.0
3564,71.0,0.0,180.0,7.0,0.0
3565,75.0,0.0,180.0,1.0,0.0
3566,85.0,0.0,90.0,0.0,0.0
3567,85.0,32.0,90.0,5.0,0.0
3568,83.0,0.0,90.0,0.0,0.0
3569,83.0,120.0,90.0,5.0,0.0
3570,75.0,0.0,180.0,1.0,0.0
3571,71.0,48.0,180.0,2.0,0.0
3572,75.0,0.0,180.0,6.0,0.0
3573,82.0,72.0,120.0,0.0,0.0
3574,82.0,0.0,120.0,5.0,0.0
3575,71.0,0.0,180.0,7.0,0.0
3576,83.0,0.0,120.0,5.0,0.0
3577,83.0,192.0,120.0,0.0,0.0
3578,46.0,0.0,390.0,10.0,0.0
3579,66.0,0.0,180.0,7.0,0.0
3580,73.0,96.0,180.0,6.0,0.0
3581,58.0,0.0,390.0,8.0,0.0
3582,73.0,0.0,180.0,1.0,0.0
3583,58.0,48.0,390.0,3.0,0.0
3584,88.0,0.0,300.0,0.0,0.0
3585,66.0,0.0,180.0,2.0,0.0
3586,46.0,0.0,390.0,4.0,0.0
3587,88.0,96.0,300.0,5.0,0.0
3588,66.0,240.0,180.0,7.0,0.0
3589,66.0,0.0,180.0,2.0,0.0
3590,73.0,0.0,180.0,1.0,0.0
3591,73.0,0.0,180.0,6.0,0.0
3592,73.0,0.0,180.0,1.0,0.0
3593,66.0,0.0,180.0,2.0,0.0
3594,73.0,0.0,180.0,6.0,0.0
3595,66.0,96.0,180.0,7.0,0.0
3596,88.0,0.0,300.0,0.0,0.0
3597,88.0,144.0,300.0,5.0,0.0
3598,73.0,0.0,180.0,6.0,0.0
3599,66.0,240.0,180.0,7.0,0.0
3600,73.0,0.0,180.0,1.0,0.0
3601,66.0,0.0,180.0,2.0,0.0
3602,87.0,96.0,300.0,5.0,0.0
3603,66.0,0.0,180.0,2.0,0.0
3604,59.0,48.0,390.0,8.0,0.0
3605,87.0,0.0,300.0,0.0,0.0
3606,59.0,0.0,390.0,3.0,0.0
3607,47.0,0.0,390.0,10.0,0.0
3608,66.0,96.0,180.0,7.0,0.0
3609,47.0,0.0,390.0,4.0,0.0
3610,71.0,0.0,180.0,1.0,0.0
3611,71.0,0.0,180.0,6.0,0.0
3612,71.0,0.0,180.0,6.0,0.0
3613,66.0,0.0,180.0,2.0,0.0
3614,71.0,240.0,180.0,1.0,0.0
3615,66.0,0.0,180.0,7.0,0.0
3616,66.0,96.0,180.0,2.0,0.0
3617,71.0,0.0,180.0,1.0,0.0
3618,71.0,0.0,180.0,6.0,0.0
3619,87.0,144.0,300.0,5.0,0.0
3620,66.0,0.0,180.0,7.0,0.0
3621,87.0,0.0,300.0,0.0,0.0
3622,71.0,240.0,180.0,6.0,0.0
3623,66.0,0.0,180.0,7.0,0.0
3624,66.0,0.0,180.0,2.0,0.0
3625,71.0,0.0,180.0,1.0,0.0
3626,85.0,0.0,390.0,0.0,0.0
3627,85.0,48.0,390.0,5.0,0.0
3628,42.0,0.0,390.0,4.0,0.0
3629,54.0,0.0,390.0,8.0,0.0
3630,66.0,0.0,180.0,2.0,0.0
3631,66.0,0.0,180.0,7.0,0.0
3632,70.0,192.0,180.0,6.0,0.0
3633,70.0,0.0,180.0,1.0,0.0
3634,42.0,0.0,390.0,10.0,0.0
3635,54.0,0.0,390.0,3.0,0.0
3636,71.0,0.0,180.0,2.0,0.0
3637,71.0,0.0,180.0,7.0,0.0
3638,75.0,240.0,180.0,6.0,0.0
3639,75.0,0.0,180.0,1.0,0.0
3640,70.0,240.0,180.0,7.0,0.0
3641,70.0,0.0,180.0,2.0,0.0
3642,73.0,0.0,180.0,6.0,0.0
3643,73.0,0.0,180.0,1.0,0.0
3644,68.0,0.0,180.0,2.0,0.0
3645,71.0,0.0,180.0,6.0,0.0
3646,68.0,0.0,180.0,7.0,0.0
3647,71.0,240.0,180.0,1.0,0.0
3648,66.0,0.0,180.0,7.0,0.0
3649,70.0,0.0,180.0,1.0,0.0
3650,70.0,192.0,180.0,6.0,0.0
3651,66.0,0.0,180.0,2.0,0.0
3652,68.0,0.0,180.0,1.0,0.0
3653,78.0,0.0,150.0,0.0,0.0
3654,64.0,0.0,180.0,7.0,0.0
3655,78.0,48.0,150.0,5.0,0.0
3656,68.0,0.0,180.0,6.0,0.0
3657,64.0,192.0,180.0,2.0,0.0
3658,63.0,192.0,180.0,2.0,0.0
3659,63.0,0.0,180.0,7.0,0.0
3660,66.0,0.0,180.0,6.0,0.0
3661,66.0,0.0,180.0,1.0,0.0
3662,83.0,0.0,150.0,0.0,0.0
3663,83.0,48.0,150.0,5.0,0.0
3664,64.0,0.0,180.0,1.0,0.0
3665,87.0,0.0,150.0,5.0,0.0
3666,61.0,0.0,180.0,7.0,0.0
3667,64.0,240.0,180.0,6.0,0.0
3668,87.0,48.0,150.0,0.0,0.0
3669,61.0,0.0,180.0,2.0,0.0
3670,59.0,0.0,180.0,2.0,0.0
3671,47.0,0.0,780.0,4.0,0.0
3672,90.0,144.0,300.0,0.0,0.0
3673,63.0,96.0,180.0,6.0,0.0
3674,59.0,0.0,780.0,3.0,0.0
3675,90.0,0.0,300.0,5.0,0.0
3676,63.0,0.0,180.0,1.0,0.0
3677,47.0,0.0,780.0,10.0,0.0
3678,59.0,0.0,780.0,8.0,0.0
3679,59.0,0.0,180.0,7.0,0.0
3680,63.0,0.0,180.0,6.0,0.0
3681,59.0,240.0,180.0,2.0,0.0
3682,63.0,0.0,180.0,1.0,0.0
3683,59.0,0.0,180.0,7.0,0.0
3684,63.0,0.0,180.0,7.0,0.0
3685,66.0,0.0,180.0,6.0,0.0
3686,90.0,0.0,300.0,5.0,0.0
3687,66.0,96.0,180.0,1.0,0.0
3688,63.0,0.0,180.0,2.0,0.0
3689,90.0,144.0,300.0,0.0,0.0
3690,63.0,240.0,180.0,2.0,0.0
3691,63.0,0.0,180.0,7.0,0.0
3692,66.0,0.0,180.0,6.0,0.0
3693,66.0,0.0,180.0,1.0,0.0
3694,71.0,0.0,180.0,1.0,0.0
3695,66.0,0.0,180.0,2.0,0.0
3696,90.0,0.0,300.0,5.0,0.0
3697,66.0,0.0,180.0,7.0,0.0
3698,71.0,96.0,180.0,6.0,0.0
3699,90.0,144.0,300.0,0.0,0.0
3700,71.0,0.0,180.0,6.0,0.0
3701,66.0,0.0,180.0,2.0,0.0
3702,71.0,0.0,180.0,1.0,0.0
3703,66.0,240.0,180.0,7.0,0.0
3704,71.0,0.0,180.0,2.0,0.0
3705,75.0,96.0,180.0,1.0,0.0
3706,71.0,0.0,180.0,7.0,0.0
3707,75.0,0.0,180.0,6.0,0.0
3708,90.0,144.0,300.0,0.0,0.0
3709,90.0,0.0,300.0,5.0,0.0
3710,71.0,0.0,180.0,2.0,0.0
3711,75.0,0.0,180.0,1.0,0.0
3712,75.0,0.0,180.0,6.0,0.0
3713,71.0,240.0,180.0,7.0,0.0
3714,42.0,0.0,390.0,4.0,0.0
3715,82.0,96.0,300.0,5.0,0.0
3716,82.0,0.0,300.0,0.0,0.0
3717,73.0,0.0,180.0,2.0,0.0
3718,73.0,96.0,180.0,7.0,0.0
3719,76.0,0.0,180.0,6.0,0.0
3720,54.0,0.0,390.0,8.0,0.0
3721,76.0,0.0,180.0,1.0,0.0
3722,54.0,48.0,390.0,3.0,0.0
3723,42.0,0.0,390.0,10.0,0.0
3724,76.0,0.0,180.0,1.0,0.0
3725,76.0,0.0,180.0,6.0,0.0
3726,73.0,128.0,180.0,2.0,0.0
3727,73.0,0.0,180.0,7.0,0.0
3728,82.0,80.0,90.0,5.0,0.0
3729,76.0,48.0,180.0,1.0,0.0
3730,73.0,0.0,180.0,2.0,0.0
3731,73.0,0.0,180.0,7.0,0.0
3732,76.0,0.0,180.0,6.0,0.0
3733,82.0,0.0,90.0,0.0,0.0
3734,83.0,32.0,90.0,5.0,0.0
3735,83.0,0.0,90.0,0.0,0.0
3736,82.0,0.0,90.0,5.0,0.0
3737,82.0,120.0,90.0,0.0,0.0
3738,76.0,0.0,180.0,1.0,0.0
3739,80.0,72.0,120.0,0.0,0.0
3740,76.0,0.0,180.0,6.0,0.0
3741,73.0,48.0,180.0,7.0,0.0
3742,80.0,0.0,120.0,5.0,0.0
3743,73.0,0.0,180.0,2.0,0.0
3744,82.0,192.0,120.0,0.0,0.0
3745,82.0,0.0,120.0,5.0,0.0
3746,83.0,96.0,300.0,0.0,0.0
3747,56.0,0.0,390.0,3.0,0.0
3748,75.0,96.0,180.0,1.0,0.0
3749,44.0,0.0,390.0,10.0,0.0
3750,56.0,0.0,390.0,8.0,0.0
3751,71.0,0.0,180.0,7.0,0.0
3752,75.0,0.0,180.0,6.0,0.0
3753,44.0,48.0,390.0,4.0,0.0
3754,83.0,0.0,300.0,5.0,0.0
3755,71.0,0.0,180.0,2.0,0.0
3756,75.0,0.0,180.0,6.0,0.0
3757,71.0,0.0,180.0,7.0,0.0
3758,75.0,0.0,180.0,1.0,0.0
3759,71.0,128.0,180.0,2.0,0.0
3760,71.0,0.0,180.0,2.0,0.0
3761,71.0,0.0,180.0,7.0,0.0
3762,75.0,0.0,180.0,1.0,0.0
3763,75.0,48.0,180.0,6.0,0.0
3764,83.0,80.0,90.0,0.0,0.0
3765,83.0,0.0,90.0,5.0,0.0
3766,85.0,32.0,90.0,0.0,0.0
3767,85.0,0.0,90.0,5.0,0.0
3768,83.0,0.0,90.0,5.0,0.0
3769,83.0,120.0,90.0,0.0,0.0
3770,82.0,72.0,120.0,5.0,0.0
3771,71.0,48.0,180.0,7.0,0.0
3772,75.0,0.0,180.0,6.0,0.0
3773,71.0,0.0,180.0,2.0,0.0
3774,82.0,0.0,120.0,0.0,0.0
3775,75.0,0.0,180.0,1.0,0.0
3776,83.0,0.0,120.0,5.0,0.0
3777,83.0,192.0,120.0,0.0,0.0
3778,80.0,0.0,180.0,6.0,0.0
3779,52.0,0.0,390.0,3.0,0.0
3780,52.0,0.0,390.0,8.0,0.0
3781,71.0,96.0,180.0,2.0,0.0
3782,71.0,0.0,180.0,7.0,0.0
3783,40.0,48.0,390.0,4.0,0.0
3784,80.0,0.0,180.0,1.0,0.0
3785,85.0,96.0,300.0,0.0,0.0
3786,85.0,0.0,300.0,5.0,0.0
3787,40.0,0.0,390.0,10.0,0.0
3788,80.0,240.0,180.0,6.0,0.0
3789,71.0,0.0,180.0,7.0,0.0
3790,80.0,0.0,180.0,1.0,0.0
3791,71.0,0.0,180.0,2.0,0.0
3792,71.0,0.0,180.0,7.0,0.0
3793,80.0,0.0,180.0,1.0,0.0
3794,85.0,144.0,300.0,5.0,0.0
3795,80.0,96.0,180.0,6.0,0.0
3796,71.0,0.0,180.0,2.0,0.0
3797,85.0,0.0,300.0,0.0,0.0
3798,80.0,0.0,180.0,1.0,0.0
3799,80.0,240.0,180.0,6.0,0.0
3800,71.0,0.0,180.0,2.0,0.0
3801,71.0,0.0,180.0,7.0,0.0
3802,76.0,0.0,180.0,1.0,0.0
3803,42.0,0.0,390.0,4.0,0.0
3804,70.0,0.0,180.0,2.0,0.0
3805,54.0,48.0,390.0,8.0,0.0
3806,78.0,0.0,390.0,5.0,0.0
3807,78.0,0.0,390.0,0.0,0.0
3808,42.0,0.0,390.0,10.0,0.0
3809,54.0,0.0,390.0,3.0,0.0
3810,76.0,0.0,180.0,6.0,0.0
3811,70.0,192.0,180.0,7.0,0.0
3812,70.0,0.0,180.0,7.0,0.0
3813,70.0,0.0,180.0,2.0,0.0
3814,76.0,240.0,180.0,6.0,0.0
3815,76.0,0.0,180.0,1.0,0.0
3816,80.0,240.0,180.0,0.0,0.0
3817,80.0,0.0,180.0,5.0,0.0
3818,76.0,0.0,180.0,1.0,0.0
3819,71.0,0.0,180.0,2.0,0.0
3820,71.0,0.0,180.0,7.0,0.0
3821,76.0,0.0,180.0,6.0,0.0
3822,73.0,0.0,180.0,2.0,0.0
3823,73.0,0.0,180.0,7.0,0.0
3824,82.0,0.0,180.0,5.0,0.0
3825,76.0,0.0,180.0,6.0,0.0
3826,82.0,0.0,180.0,0.0,0.0
3827,76.0,240.0,180.0,1.0,0.0
3828,47.0,0.0,180.0,8.0,0.0
3829,35.0,0.0,180.0,10.0,0.0
3830,35.0,0.0,180.0,4.0,0.0
3831,83.0,240.0,1140.0,0.0,0.0
3832,75.0,0.0,390.0,6.0,0.0
3833,75.0,48.0,390.0,1.0,0.0
3834,83.0,0.0,1140.0,5.0,0.0
3835,71.0,0.0,180.0,2.0,0.0
3836,47.0,0.0,180.0,3.0,0.0
3837,71.0,192.0,180.0,7.0,0.0
3838,47.0,0.0,180.0,4.0,0.0
3839,66.0,0.0,180.0,2.0,0.0
3840,59.0,0.0,180.0,8.0,0.0
3841,47.0,0.0,180.0,10.0,0.0
3842,66.0,0.0,180.0,7.0,0.0
3843,63.0,0.0,180.0,2.0,0.0
3844,63.0,240.0,180.0,7.0,0.0
3845,59.0,0.0,180.0,3.0,0.0
3846,47.0,0.0,180.0,10.0,0.0
3847,63.0,240.0,180.0,7.0,0.0
3848,59.0,0.0,180.0,8.0,0.0
3849,47.0,0.0,180.0,4.0,0.0
3850,66.0,0.0,180.0,2.0,0.0
3851,59.0,0.0,180.0,3.0,0.0
3852,63.0,0.0,180.0,2.0,0.0
3853,66.0,0.0,180.0,7.0,0.0
3854,47.0,0.0,180.0,10.0,0.0
3855,66.0,0.0,180.0,2.0,0.0
3856,63.0,0.0,180.0,2.0,0.0
3857,59.0,0.0,180.0,3.0,0.0
3858,66.0,240.0,180.0,7.0,0.0
3859,63.0,0.0,180.0,7.0,0.0
3860,47.0,0.0,180.0,4.0,0.0
3861,59.0,0.0,180.0,8.0,0.0
3862,59.0,0.0,180.0,3.0,0.0
3863,47.0,0.0,180.0,10.0,0.0
3864,64.0,0.0,180.0,7.0,0.0
3865,66.0,0.0,180.0,2.0,0.0
3866,59.0,0.0,180.0,8.0,0.0
3867,47.0,0.0,180.0,4.0,0.0
3868,64.0,0.0,180.0,2.0,0.0
3869,66.0,0.0,180.0,7.0,0.0
3870,59.0,0.0,180.0,3.0,0.0
3871,66.0,0.0,180.0,2.0,0.0
3872,64.0,0.0,180.0,2.0,0.0
3873,47.0,240.0,180.0,10.0,0.0
3874,85.0,0.0,180.0,0.0,0.0
3875,47.0,0.0,180.0,4.0,0.0
3876,64.0,0.0,180.0,7.0,0.0
3877,59.0,0.0,180.0,8.0,0.0
3878,85.0,0.0,180.0,5.0,0.0
3879,66.0,0.0,180.0,7.0,0.0
3880,59.0,0.0,180.0,3.0,0.0
3881,82.0,0.0,180.0,0.0,0.0
3882,47.0,0.0,180.0,10.0,0.0
3883,59.0,0.0,180.0,8.0,0.0
3884,64.0,240.0,180.0,7.0,0.0
3885,66.0,0.0,180.0,2.0,0.0
3886,66.0,0.0,180.0,7.0,0.0
3887,47.0,0.0,180.0,4.0,0.0
3888,64.0,0.0,180.0,2.0,0.0
3889,82.0,0.0,180.0,5.0,0.0
3890,64.0,0.0,180.0,2.0,0.0
3891,78.0,0.0,180.0,0.0,0.0
3892,59.0,0.0,180.0,8.0,0.0
3893,66.0,0.0,180.0,2.0,0.0
3894,78.0,0.0,180.0,5.0,0.0
3895,59.0,0.0,180.0,3.0,0.0
3896,47.0,0.0,180.0,4.0,0.0
3897,64.0,0.0,180.0,7.0,0.0
3898,47.0,240.0,180.0,10.0,0.0
3899,66.0,0.0,180.0,7.0,0.0
3900,66.0,0.0,180.0,7.0,0.0
3901,63.0,0.0,180.0,7.0,0.0
3902,35.0,0.0,180.0,4.0,0.0
3903,66.0,0.0,180.0,2.0,0.0
3904,63.0,0.0,180.0,2.0,0.0
3905,87.0,240.0,1140.0,5.0,0.0
3906,47.0,240.0,180.0,3.0,0.0
3907,47.0,0.0,180.0,8.0,0.0
3908,83.0,0.0,1140.0,6.0,0.0
3909,35.0,0.0,180.0,10.0,0.0
3910,87.0,0.0,1140.0,0.0,0.0
3911,83.0,0.0,1140.0,1.0,0.0
3912,47.0,0.0,180.0,4.0,0.0
3913,63.0,0.0,180.0,7.0,0.0
3914,59.0,0.0,180.0,8.0,0.0
3915,66.0,0.0,180.0,2.0,0.0
3916,63.0,0.0,180.0,2.0,0.0
3917,66.0,0.0,180.0,7.0,0.0
3918,59.0,0.0,180.0,3.0,0.0
3919,47.0,240.0,180.0,10.0,0.0
3920,59.0,0.0,180.0,3.0,0.0
3921,63.0,0.0,180.0,7.0,0.0
3922,63.0,0.0,180.0,2.0,0.0
3923,66.0,0.0,180.0,2.0,0.0
3924,47.0,0.0,180.0,4.0,0.0
3925,59.0,0.0,180.0,8.0,0.0
3926,47.0,240.0,180.0,10.0,0.0
3927,66.0,0.0,180.0,7.0,0.0
3928,66.0,0.0,180.0,7.0,0.0
3929,66.0,0.0,180.0,2.0,0.0
3930,63.0,0.0,180.0,2.0,0.0
3931,59.0,0.0,180.0,3.0,0.0
3932,63.0,240.0,180.0,7.0,0.0
3933,59.0,0.0,180.0,8.0,0.0
3934,47.0,0.0,180.0,4.0,0.0
3935,47.0,0.0,180.0,10.0,0.0
3936,66.0,0.0,180.0,7.0,0.0
3937,47.0,0.0,180.0,4.0,0.0
3938,64.0,0.0,180.0,7.0,0.0
3939,66.0,0.0,180.0,2.0,0.0
3940,59.0,0.0,180.0,3.0,0.0
3941,64.0,0.0,180.0,2.0,0.0
3942,47.0,0.0,180.0,10.0,0.0
3943,59.0,0.0,180.0,8.0,0.0
3944,85.0,0.0,180.0,6.0,0.0
3945,88.0,0.0,180.0,0.0,0.0
3946,64.0,0.0,180.0,2.0,0.0
3947,66.0,0.0,180.0,2.0,0.0
3948,85.0,240.0,180.0,1.0,0.0
3949,59.0,0.0,180.0,3.0,0.0
3950,66.0,0.0,180.0,7.0,0.0
3951,64.0,0.0,180.0,7.0,0.0
3952,88.0,0.0,180.0,5.0,0.0
3953,47.0,0.0,180.0,4.0,0.0
3954,59.0,0.0,180.0,8.0,0.0
3955,47.0,0.0,180.0,10.0,0.0
3956,85.0,0.0,180.0,5.0,0.0
3957,85.0,0.0,180.0,0.0,0.0
3958,82.0,0.0,180.0,1.0,0.0
3959,47.0,0.0,180.0,4.0,0.0
3960,59.0,0.0,180.0,3.0,0.0
3961,64.0,0.0,180.0,7.0,0.0
3962,66.0,0.0,180.0,7.0,0.0
3963,59.0,240.0,180.0,8.0,0.0
3964,47.0,0.0,180.0,10.0,0.0
3965,82.0,0.0,180.0,6.0,0.0
3966,64.0,0.0,180.0,2.0,0.0
3967,66.0,0.0,180.0,2.0,0.0
3968,64.0,0.0,180.0,7.0,0.0
3969,47.0,0.0,180.0,10.0,0.0
3970,47.0,0.0,180.0,4.0,0.0
3971,82.0,0.0,180.0,5.0,0.0
3972,82.0,240.0,180.0,0.0,0.0
3973,59.0,0.0,180.0,8.0,0.0
3974,66.0,0.0,180.0,7.0,0.0
3975,78.0,0.0,180.0,1.0,0.0
3976,78.0,0.0,180.0,6.0,0.0
3977,59.0,0.0,180.0,3.0,0.0
3978,64.0,0.0,180.0,2.0,0.0
3979,66.0,0.0,180.0,2.0,0.0
3980,90.0,0.0,180.0,5.0,0.0
3981,47.0,0.0,1140.0,10.0,0.0
3982,87.0,0.0,1140.0,6.0,0.0
3983,87.0,0.0,1140.0,1.0,0.0
3984,90.0,96.0,180.0,0.0,0.0
3985,47.0,0.0,1140.0,4.0,0.0
3986,66.0,0.0,300.0,2.0,0.0
3987,63.0,240.0,390.0,2.0,0.0
3988,59.0,240.0,1140.0,8.0,0.0
3989,59.0,0.0,1140.0,3.0,0.0
3990,66.0,96.0,300.0,7.0,0.0
3991,63.0,0.0,390.0,7.0,0.0
3992,90.0,480.0,390.0,5.0,0.0
3993,90.0,0.0,390.0,0.0,0.0
3994,71.0,0.0,660.0,7.0,0.0
3995,71.0,0.0,660.0,2.0,0.0
3996,90.0,0.0,390.0,5.0,0.0
3997,90.0,48.0,390.0,0.0,0.0
3998,49.0,0.0,180.0,10.0,0.0
3999,73.0,0.0,180.0,2.0,0.0
4000,88.0,0.0,180.0,6.0,0.0
4001,90.0,48.0,390.0,5.0,0.0
4002,49.0,0.0,180.0,4.0,0.0
4003,73.0,0.0,180.0,7.0,0.0
4004,88.0,0.0,180.0,1.0,0.0
4005,90.0,0.0,390.0,0.0,0.0
4006,61.0,0.0,180.0,8.0,0.0
4007,61.0,192.0,180.0,3.0,0.0
4008,58.0,0.0,180.0,3.0,0.0
4009,70.0,240.0,180.0,2.0,0.0
4010,58.0,0.0,180.0,8.0,0.0
4011,85.0,0.0,180.0,6.0,0.0
4012,85.0,0.0,180.0,1.0,0.0
4013,46.0,0.0,180.0,4.0,0.0
4014,70.0,0.0,180.0,7.0,0.0
4015,46.0,0.0,180.0,10.0,0.0
4016,66.0,0.0,180.0,7.0,0.0
4017,90.0,432.0,420.0,5.0,0.0
4018,54.0,0.0,180.0,3.0,0.0
4019,54.0,0.0,180.0,8.0,0.0
4020,66.0,0.0,180.0,2.0,0.0
4021,82.0,0.0,180.0,1.0,0.0
4022,82.0,0.0,180.0,6.0,0.0
4023,90.0,0.0,420.0,0.0,0.0
4024,42.0,0.0,180.0,10.0,0.0
4025,42.0,240.0,180.0,4.0,0.0
4026,51.0,0.0,1140.0,10.0,0.0
4027,63.0,0.0,1140.0,8.0,0.0
4028,75.0,0.0,1140.0,7.0,0.0
4029,83.0,240.0,1140.0,6.0,0.0
4030,51.0,0.0,1140.0,4.0,0.0
4031,83.0,0.0,1140.0,1.0,0.0
4032,63.0,0.0,1140.0,3.0,0.0
4033,75.0,0.0,1140.0,2.0,0.0
4034,90.0,480.0,390.0,5.0,0.0
4035,90.0,0.0,390.0,0.0,0.0
4036,90.0,0.0,390.0,0.0,0.0
4037,90.0,48.0,390.0,5.0,0.0
4038,52.0,0.0,180.0,4.0,0.0
4039,64.0,192.0,180.0,3.0,0.0
4040,64.0,0.0,180.0,8.0,0.0
4041,76.0,0.0,180.0,2.0,0.0
4042,85.0,0.0,180.0,1.0,0.0
4043,90.0,0.0,390.0,5.0,0.0
4044,52.0,0.0,180.0,10.0,0.0
4045,85.0,0.0,180.0,6.0,0.0
4046,90.0,48.0,390.0,0.0,0.0
4047,76.0,0.0,180.0,7.0,0.0
4048,49.0,0.0,180.0,10.0,0.0
4049,61.0,0.0,180.0,3.0,0.0
4050,61.0,0.0,180.0,8.0,0.0
4051,82.0,0.0,180.0,6.0,0.0
4052,73.0,0.0,180.0,2.0,0.0
4053,82.0,0.0,180.0,1.0,0.0
4054,73.0,0.0,180.0,7.0,0.0
4055,49.0,240.0,180.0,4.0,0.0
4056,78.0,0.0,180.0,6.0,0.0
4057,58.0,0.0,180.0,8.0,0.0
4058,78.0,0.0,180.0,1.0,0.0
4059,70.0,0.0,180.0,7.0,0.0
4060,58.0,0.0,180.0,3.0,0.0
4061,46.0,0.0,180.0,4.0,0.0
4062,90.0,0.0,480.0,0.0,0.0
4063,70.0,288.0,180.0,2.0,0.0
4064,90.0,48.0,480.0,5.0,0.0
4065,46.0,0.0,180.0,10.0,0.0
4066,47.0,0.0,300.0,10.0,0.0
4067,71.0,0.0,300.0,2.0,0.0
4068,47.0,0.0,300.0,4.0,0.0
4069,87.0,0.0,300.0,6.0,0.0
4070,71.0,0.0,300.0,7.0,0.0
4071,59.0,144.0,300.0,8.0,0.0
4072,59.0,0.0,300.0,3.0,0.0
4073,87.0,0.0,300.0,1.0,0.0
4074,87.0,192.0,180.0,0.0,0.0
4075,87.0,0.0,180.0,5.0,0.0
4076,63.0,0.0,150.0,3.0,0.0
4077,75.0,0.0,180.0,2.0,0.0
4078,51.0,0.0,150.0,10.0,0.0
4079,87.0,0.0,150.0,6.0,0.0
4080,75.0,0.0,180.0,7.0,0.0
4081,51.0,0.0,150.0,4.0,0.0
4082,87.0,0.0,150.0,1.0,0.0
4083,87.0,0.0,180.0,5.0,0.0
4084,87.0,192.0,180.0,0.0,0.0
4085,63.0,48.0,150.0,8.0,0.0
4086,87.0,0.0,180.0,0.0,0.0
4087,63.0,0.0,150.0,3.0,0.0
4088,51.0,0.0,150.0,10.0,0.0
4089,75.0,288.0,180.0,2.0,0.0
4090,63.0,48.0,150.0,8.0,0.0
4091,87.0,0.0,180.0,5.0,0.0
4092,75.0,0.0,180.0,7.0,0.0
4093,87.0,0.0,150.0,1.0,0.0
4094,51.0,0.0,150.0,4.0,0.0
4095,87.0,0.0,150.0,6.0,0.0
4096,87.0,0.0,240.0,0.0,0.0
4097,75.0,0.0,240.0,7.0,0.0
4098,87.0,0.0,240.0,1.0,0.0
4099,63.0,192.0,240.0,3.0,0.0
4100,51.0,0.0,240.0,10.0,0.0
4101,75.0,0.0,240.0,2.0,0.0
4102,63.0,0.0,240.0,8.0,0.0
4103,87.0,0.0,240.0,5.0,0.0
4104,87.0,0.0,240.0,6.0,0.0
4105,51.0,0.0,240.0,4.0,0.0
4106,83.0,0.0,180.0,1.0,0.0
4107,83.0,0.0,180.0,0.0,0.0
4108,59.0,0.0,180.0,3.0,0.0
4109,47.0,0.0,180.0,10.0,0.0
4110,47.0,0.0,180.0,4.0,0.0
4111,83.0,0.0,180.0,6.0,0.0
4112,59.0,0.0,180.0,8.0,0.0
4113,83.0,0.0,180.0,5.0,0.0
4114,71.0,0.0,180.0,7.0,0.0
4115,71.0,240.0,180.0,2.0,0.0
4116,83.0,0.0,180.0,1.0,0.0
4117,71.0,0.0,180.0,7.0,0.0
4118,83.0,0.0,180.0,5.0,0.0
4119,83.0,0.0,180.0,0.0,0.0
4120,47.0,0.0,180.0,10.0,0.0
4121,47.0,0.0,180.0,4.0,0.0
4122,71.0,0.0,180.0,2.0,0.0
4123,59.0,0.0,180.0,8.0,0.0
4124,59.0,0.0,180.0,3.0,0.0
4125,83.0,240.0,180.0,6.0,0.0
4126,59.0,0.0,180.0,3.0,0.0
4127,83.0,0.0,180.0,5.0,0.0
4128,47.0,0.0,180.0,10.0,0.0
4129,83.0,0.0,180.0,0.0,0.0
4130,47.0,0.0,180.0,4.0,0.0
4131,83.0,0.0,180.0,6.0,0.0
4132,83.0,0.0,180.0,1.0,0.0
4133,71.0,0.0,180.0,7.0,0.0
4134,71.0,0.0,180.0,2.0,0.0
4135,59.0,288.0,180.0,8.0,0.0
4136,83.0,192.0,240.0,6.0,0.0
4137,71.0,0.0,240.0,2.0,0.0
4138,47.0,0.0,240.0,10.0,0.0
4139,59.0,0.0,240.0,3.0,0.0
4140,83.0,0.0,240.0,5.0,0.0
4141,71.0,0.0,240.0,7.0,0.0
4142,83.0,0.0,240.0,0.0,0.0
4143,83.0,0.0,240.0,1.0,0.0
4144,59.0,0.0,240.0,8.0,0.0
4145,47.0,0.0,240.0,4.0,0.0
4146,42.0,0.0,180.0,10.0,0.0
4147,54.0,0.0,180.0,8.0,0.0
4148,66.0,240.0,180.0,7.0,0.0
4149,78.0,0.0,180.0,1.0,0.0
4150,66.0,0.0,180.0,2.0,0.0
4151,42.0,0.0,180.0,4.0,0.0
4152,78.0,0.0,180.0,5.0,0.0
4153,78.0,0.0,180.0,0.0,0.0
4154,54.0,0.0,180.0,3.0,0.0
4155,78.0,0.0,180.0,6.0,0.0
4156,78.0,0.0,180.0,6.0,0.0
4157,66.0,240.0,180.0,7.0,0.0
4158,54.0,0.0,180.0,3.0,0.0
4159,54.0,0.0,180.0,8.0,0.0
4160,42.0,0.0,180.0,10.0,0.0
4161,78.0,0.0,180.0,5.0,0.0
4162,78.0,0.0,180.0,0.0,0.0
4163,66.0,0.0,180.0,2.0,0.0
4164,42.0,0.0,180.0,4.0,0.0
4165,78.0,0.0,180.0,1.0,0.0
4166,54.0,0.0,180.0,3.0,0.0
4167,78.0,0.0,180.0,5.0,0.0
4168,42.0,0.0,180.0,10.0,0.0
4169,78.0,0.0,180.0,0.0,0.0
4170,66.0,0.0,180.0,7.0,0.0
4171,54.0,0.0,180.0,8.0,0.0
4172,78.0,0.0,180.0,1.0,0.0
4173,78.0,0.0,180.0,6.0,0.0
4174,42.0,288.0,180.0,4.0,0.0
4175,66.0,0.0,180.0,2.0,0.0
4176,66.0,0.0,240.0,7.0,0.0
4177,42.0,192.0,240.0,4.0,0.0
4178,42.0,0.0,240.0,10.0,0.0
4179,78.0,0.0,240.0,5.0,0.0
4180,54.0,0.0,240.0,8.0,0.0
4181,78.0,0.0,240.0,0.0,0.0
4182,78.0,0.0,240.0,1.0,0.0
4183,78.0,0.0,240.0,6.0,0.0
4184,66.0,0.0,240.0,2.0,0.0
4185,54.0,0.0,240.0,3.0,0.0
4186,39.0,0.0,180.0,10.0,0.0
4187,75.0,0.0,180.0,1.0,0.0
4188,75.0,0.0,180.0,6.0,0.0
4189,75.0,0.0,180.0,0.0,0.0
4190,51.0,0.0,180.0,3.0,0.0
4191,63.0,240.0,180.0,2.0,0.0
4192,75.0,0.0,180.0,5.0,0.0
4193,63.0,0.0,180.0,7.0,0.0
4194,51.0,0.0,180.0,8.0,0.0
4195,39.0,0.0,180.0,4.0,0.0
4196,63.0,0.0,240.0,7.0,0.0
4197,39.0,0.0,180.0,10.0,0.0
4198,75.0,0.0,240.0,1.0,0.0
4199,75.0,192.0,240.0,6.0,0.0
4200,75.0,0.0,240.0,0.0,0.0
4201,63.0,0.0,240.0,2.0,0.0
4202,39.0,48.0,180.0,4.0,0.0
4203,51.0,0.0,180.0,3.0,0.0
4204,75.0,0.0,240.0,5.0,0.0
4205,51.0,0.0,180.0,8.0,0.0
4206,35.0,0.0,180.0,10.0,0.0
4207,71.0,0.0,180.0,0.0,0.0
4208,35.0,0.0,180.0,4.0,0.0
4209,47.0,0.0,180.0,3.0,0.0
4210,71.0,0.0,180.0,5.0,0.0
4211,59.0,0.0,180.0,2.0,0.0
4212,47.0,0.0,180.0,8.0,0.0
4213,71.0,240.0,180.0,6.0,0.0
4214,59.0,0.0,180.0,7.0,0.0
4215,71.0,0.0,180.0,1.0,0.0
4216,42.0,0.0,180.0,4.0,0.0
4217,78.0,144.0,300.0,5.0,0.0
4218,66.0,96.0,180.0,2.0,0.0
4219,78.0,0.0,300.0,6.0,0.0
4220,78.0,0.0,300.0,0.0,0.0
4221,78.0,0.0,300.0,1.0,0.0
4222,54.0,0.0,180.0,8.0,0.0
4223,42.0,0.0,180.0,10.0,0.0
4224,66.0,0.0,180.0,7.0,0.0
4225,54.0,0.0,180.0,3.0,0.0
4226,54.0,0.0,180.0,4.0,0.0
4227,66.0,0.0,180.0,8.0,0.0
4228,78.0,0.0,180.0,2.0,0.0
4229,54.0,240.0,180.0,10.0,0.0
4230,66.0,0.0,180.0,3.0,0.0
4231,78.0,0.0,180.0,7.0,0.0
4232,64.0,0.0,180.0,3.0,0.0
4233,73.0,0.0,300.0,6.0,0.0
4234,82.0,0.0,300.0,6.0,0.0
4235,66.0,0.0,300.0,6.0,0.0
4236,52.0,0.0,180.0,4.0,0.0
4237,76.0,0.0,180.0,7.0,0.0
4238,73.0,0.0,300.0,0.0,0.0
4239,73.0,0.0,300.0,5.0,0.0
4240,82.0,144.0,300.0,1.0,0.0
4241,73.0,0.0,300.0,1.0,0.0
4242,76.0,0.0,180.0,2.0,0.0
4243,52.0,0.0,180.0,10.0,0.0
4244,66.0,0.0,300.0,1.0,0.0
4245,66.0,0.0,300.0,0.0,0.0
4246,82.0,0.0,300.0,0.0,0.0
4247,64.0,96.0,180.0,8.0,0.0
4248,82.0,0.0,300.0,5.0,0.0
4249,66.0,0.0,300.0,5.0,0.0
4250,54.0,0.0,180.0,4.0,0.0
4251,66.0,0.0,180.0,8.0,0.0
4252,78.0,0.0,180.0,2.0,0.0
4253,78.0,240.0,180.0,7.0,0.0
4254,54.0,0.0,180.0,10.0,0.0
4255,66.0,0.0,180.0,3.0,0.0
4256,66.0,0.0,300.0,6.0,0.0
4257,51.0,0.0,180.0,10.0,0.0
4258,83.0,0.0,300.0,5.0,0.0
4259,75.0,0.0,300.0,5.0,0.0
4260,66.0,0.0,300.0,0.0,0.0
4261,83.0,0.0,300.0,6.0,0.0
4262,75.0,0.0,300.0,0.0,0.0
4263,51.0,0.0,180.0,4.0,0.0
4264,75.0,0.0,180.0,2.0,0.0
4265,66.0,0.0,300.0,5.0,0.0
4266,83.0,0.0,300.0,0.0,0.0
4267,75.0,0.0,300.0,6.0,0.0
4268,63.0,0.0,180.0,8.0,0.0
4269,66.0,0.0,300.0,1.0,0.0
4270,83.0,144.0,300.0,1.0,0.0
4271,75.0,0.0,300.0,1.0,0.0
4272,75.0,96.0,180.0,7.0,0.0
4273,63.0,0.0,180.0,3.0,0.0
4274,54.0,0.0,180.0,10.0,0.0
4275,66.0,0.0,180.0,8.0,0.0
4276,78.0,0.0,180.0,2.0,0.0
4277,66.0,240.0,180.0,3.0,0.0
4278,54.0,0.0,180.0,4.0,0.0
4279,78.0,0.0,180.0,7.0,0.0
4280,66.0,144.0,300.0,6.0,0.0
4281,51.0,96.0,180.0,4.0,0.0
4282,75.0,0.0,180.0,7.0,0.0
4283,51.0,0.0,180.0,10.0,0.0
4284,75.0,0.0,300.0,6.0,0.0
4285,87.0,0.0,300.0,0.0,0.0
4286,75.0,0.0,300.0,1.0,0.0
4287,63.0,0.0,180.0,3.0,0.0
4288,75.0,0.0,180.0,2.0,0.0
4289,83.0,0.0,300.0,1.0,0.0
4290,83.0,0.0,300.0,6.0,0.0
4291,87.0,0.0,300.0,5.0,0.0
4292,66.0,0.0,300.0,1.0,0.0
4293,63.0,0.0,180.0,8.0,0.0
4294,59.0,0.0,180.0,3.0,0.0
4295,59.0,0.0,180.0,8.0,0.0
4296,71.0,0.0,180.0,2.0,0.0
4297,47.0,0.0,180.0,4.0,0.0
4298,71.0,336.0,180.0,7.0,0.0
4299,47.0,0.0,180.0,10.0,0.0
4300,90.0,0.0,390.0,0.0,0.0
4301,54.0,0.0,390.0,3.0,0.0
4302,42.0,0.0,390.0,10.0,0.0
4303,66.0,0.0,390.0,7.0,0.0
4304,90.0,0.0,390.0,5.0,0.0
4305,54.0,0.0,390.0,8.0,0.0
4306,66.0,0.0,300.0,6.0,0.0
4307,82.0,0.0,300.0,6.0,0.0
4308,66.0,0.0,390.0,2.0,0.0
4309,73.0,96.0,300.0,6.0,0.0
4310,42.0,480.0,390.0,4.0,0.0
4311,82.0,0.0,300.0,1.0,0.0
4312,66.0,0.0,300.0,1.0,0.0
4313,73.0,0.0,300.0,1.0,0.0
4314,66.0,0.0,390.0,7.0,0.0
4315,42.0,0.0,390.0,4.0,0.0
4316,66.0,0.0,390.0,6.0,0.0
4317,66.0,0.0,390.0,5.0,0.0
4318,54.0,480.0,390.0,8.0,0.0
4319,54.0,0.0,390.0,3.0,0.0
4320,42.0,0.0,390.0,10.0,0.0
4321,66.0,0.0,390.0,1.0,0.0
4322,66.0,0.0,390.0,2.0,0.0
4323,66.0,0.0,390.0,0.0,0.0
4324,66.0,0.0,390.0,7.0,0.0
4325,66.0,0.0,390.0,1.0,0.0
4326,66.0,0.0,390.0,2.0,0.0
4327,54.0,0.0,390.0,3.0,0.0
4328,42.0,0.0,390.0,10.0,0.0
4329,66.0,0.0,390.0,6.0,0.0
4330,54.0,1536.0,390.0,8.0,0.0
4331,66.0,0.0,390.0,5.0,0.0
4332,42.0,0.0,390.0,4.0,0.0
4333,66.0,0.0,390.0,0.0,0.0
4334,85.0,0.0,960.0,0.0,0.0
4335,85.0,0.0,960.0,5.0,0.0
4336,66.0,192.0,480.0,7.0,0.0
4337,70.0,0.0,480.0,6.0,0.0
4338,66.0,0.0,480.0,2.0,0.0
4339,70.0,0.0,480.0,1.0,0.0
4340,71.0,0.0,180.0,1.0,0.0
4341,68.0,480.0,180.0,2.0,0.0
4342,68.0,0.0,180.0,7.0,0.0
4343,77.0,0.0,180.0,5.0,0.0
4344,71.0,0.0,180.0,6.0,0.0
4345,77.0,0.0,180.0,0.0,0.0
4346,78.0,0.0,180.0,0.0,0.0
4347,70.0,0.0,180.0,7.0,0.0
4348,73.0,0.0,180.0,6.0,0.0
4349,70.0,0.0,180.0,2.0,0.0
4350,78.0,480.0,180.0,5.0,0.0
4351,73.0,0.0,180.0,1.0,0.0
4352,71.0,0.0,180.0,2.0,0.0
4353,80.0,0.0,180.0,0.0,0.0
4354,75.0,0.0,180.0,6.0,0.0
4355,71.0,0.0,180.0,7.0,0.0
4356,75.0,0.0,180.0,1.0,0.0
4357,80.0,480.0,180.0,5.0,0.0
4358,77.0,0.0,180.0,6.0,0.0
4359,82.0,0.0,180.0,0.0,0.0
4360,82.0,0.0,180.0,5.0,0.0
4361,73.0,0.0,180.0,2.0,0.0
4362,77.0,480.0,180.0,1.0,0.0
4363,73.0,0.0,180.0,7.0,0.0
4364,78.0,0.0,180.0,1.0,0.0
4365,83.0,0.0,180.0,5.0,0.0
4366,75.0,0.0,180.0,2.0,0.0
4367,83.0,480.0,180.0,0.0,0.0
4368,75.0,0.0,180.0,7.0,0.0
4369,78.0,0.0,180.0,6.0,0.0
4370,77.0,0.0,180.0,2.0,0.0
4371,77.0,528.0,180.0,7.0,0.0
4372,80.0,0.0,180.0,6.0,0.0
4373,80.0,0.0,180.0,1.0,0.0
4374,78.0,0.0,390.0,7.0,0.0
4375,82.0,0.0,240.0,5.0,0.0
4376,78.0,96.0,390.0,2.0,0.0
4377,78.0,0.0,240.0,1.0,0.0
4378,78.0,144.0,240.0,6.0,0.0
4379,82.0,0.0,240.0,0.0,0.0
4380,83.0,240.0,240.0,0.0,0.0
4381,83.0,0.0,240.0,5.0,0.0
4382,80.0,0.0,240.0,1.0,0.0
4383,80.0,0.0,240.0,6.0,0.0
4384,84.0,240.0,240.0,5.0,0.0
4385,84.0,0.0,240.0,0.0,0.0
4386,81.0,0.0,240.0,6.0,0.0
4387,81.0,0.0,240.0,1.0,0.0
4388,82.0,0.0,240.0,1.0,0.0
4389,85.0,0.0,240.0,0.0,0.0
4390,85.0,240.0,240.0,5.0,0.0
4391,82.0,0.0,240.0,6.0,0.0
4392,59.0,0.0,390.0,2.0,0.0
4393,59.0,96.0,390.0,7.0,0.0
4394,77.0,0.0,240.0,1.0,0.0
4395,86.0,144.0,240.0,5.0,0.0
4396,86.0,0.0,240.0,0.0,0.0
4397,77.0,0.0,240.0,6.0,0.0
4398,87.0,240.0,240.0,0.0,0.0
4399,78.0,0.0,240.0,6.0,0.0
4400,87.0,0.0,240.0,5.0,0.0
4401,78.0,0.0,240.0,1.0,0.0
4402,75.0,192.0,240.0,1.0,0.0
4403,83.0,0.0,240.0,5.0,0.0
4404,75.0,0.0,240.0,6.0,0.0
4405,83.0,0.0,240.0,0.0,0.0
4406,71.0,0.0,180.0,1.0,0.0
4407,71.0,0.0,180.0,6.0,0.0
4408,80.0,240.0,180.0,0.0,0.0
4409,80.0,0.0,180.0,5.0,0.0
4410,70.0,0.0,960.0,6.0,0.0
4411,70.0,0.0,960.0,1.0,0.0
4412,61.0,0.0,180.0,7.0,0.0
4413,78.0,192.0,960.0,0.0,0.0
4414,78.0,0.0,960.0,5.0,0.0
4415,61.0,240.0,180.0,2.0,0.0
4416,60.0,240.0,180.0,7.0,0.0
4417,60.0,0.0,180.0,2.0,0.0
4418,61.0,0.0,180.0,2.0,0.0
4419,61.0,240.0,180.0,7.0,0.0
4420,60.0,48.0,180.0,7.0,0.0
4421,60.0,0.0,180.0,2.0,0.0
4422,77.0,0.0,390.0,0.0,0.0
4423,61.0,0.0,180.0,2.0,0.0
4424,68.0,48.0,390.0,6.0,0.0
4425,68.0,0.0,390.0,1.0,0.0
4426,61.0,192.0,180.0,7.0,0.0
4427,77.0,0.0,390.0,5.0,0.0
4428,63.0,240.0,180.0,2.0,0.0
4429,63.0,0.0,180.0,7.0,0.0
4430,59.0,0.0,180.0,7.0,0.0
4431,59.0,240.0,180.0,2.0,0.0
4432,56.0,240.0,180.0,7.0,0.0
4433,56.0,0.0,180.0,2.0,0.0
4434,54.0,768.0,180.0,2.0,0.0
4435,85.0,192.0,960.0,0.0,0.0
4436,73.0,0.0,960.0,1.0,0.0
4437,85.0,0.0,960.0,5.0,0.0
4438,73.0,0.0,960.0,6.0,0.0
4439,54.0,0.0,180.0,7.0,0.0
4440,42.0,0.0,480.0,10.0,0.0
4441,42.0,0.0,480.0,4.0,0.0
4442,58.0,0.0,480.0,7.0,0.0
4443,58.0,0.0,480.0,2.0,0.0
4444,54.0,0.0,480.0,3.0,0.0
4445,54.0,0.0,480.0,8.0,0.0
4446,65.0,0.0,180.0,1.0,0.0
4447,77.0,0.0,180.0,5.0,0.0
4448,56.0,480.0,180.0,8.0,0.0
4449,44.0,0.0,180.0,4.0,0.0
4450,65.0,0.0,180.0,6.0,0.0
4451,77.0,0.0,180.0,0.0,0.0
4452,56.0,0.0,180.0,3.0,0.0
4453,44.0,0.0,180.0,10.0,0.0
4454,59.0,0.0,180.0,2.0,0.0
4455,59.0,0.0,180.0,7.0,0.0
4456,78.0,0.0,180.0,5.0,0.0
4457,61.0,480.0,180.0,7.0,0.0
4458,46.0,0.0,180.0,10.0,0.0
4459,58.0,0.0,180.0,3.0,0.0
4460,61.0,0.0,180.0,2.0,0.0
4461,66.0,0.0,180.0,6.0,0.0
4462,46.0,0.0,180.0,4.0,0.0
4463,66.0,0.0,180.0,1.0,0.0
4464,58.0,0.0,180.0,8.0,0.0
4465,78.0,0.0,180.0,0.0,0.0
4466,68.0,480.0,180.0,1.0,0.0
4467,80.0,0.0,180.0,0.0,0.0
4468,80.0,0.0,180.0,5.0,0.0
4469,47.0,0.0,180.0,10.0,0.0
4470,63.0,0.0,180.0,7.0,0.0
4471,63.0,0.0,180.0,2.0,0.0
4472,59.0,0.0,180.0,3.0,0.0
4473,47.0,0.0,180.0,4.0,0.0
4474,68.0,0.0,180.0,6.0,0.0
4475,59.0,0.0,180.0,8.0,0.0
4476,70.0,0.0,180.0,6.0,0.0
4477,61.0,0.0,180.0,8.0,0.0
4478,82.0,0.0,180.0,0.0,0.0
4479,49.0,0.0,180.0,4.0,0.0
4480,70.0,0.0,180.0,1.0,0.0
4481,49.0,0.0,180.0,10.0,0.0
4482,61.0,480.0,180.0,3.0,0.0
4483,65.0,0.0,180.0,7.0,0.0
4484,65.0,0.0,180.0,2.0,0.0
4485,82.0,0.0,180.0,5.0,0.0
4486,51.0,0.0,180.0,4.0,0.0
4487,63.0,0.0,180.0,8.0,0.0
4488,66.0,0.0,180.0,2.0,0.0
4489,71.0,480.0,180.0,1.0,0.0
4490,83.0,0.0,180.0,0.0,0.0
4491,66.0,0.0,180.0,7.0,0.0
4492,71.0,0.0,180.0,6.0,0.0
4493,83.0,0.0,180.0,5.0,0.0
4494,63.0,0.0,180.0,3.0,0.0
4495,51.0,0.0,180.0,10.0,0.0
4496,68.0,0.0,180.0,7.0,0.0
4497,65.0,672.0,180.0,3.0,0.0
4498,53.0,0.0,180.0,4.0,0.0
4499,68.0,0.0,180.0,2.0,0.0
4500,53.0,0.0,180.0,10.0,0.0
4501,65.0,0.0,180.0,8.0,0.0
4502,61.0,384.0,960.0,2.0,0.0
4503,66.0,0.0,390.0,8.0,0.0
4504,82.0,0.0,480.0,0.0,0.0
4505,82.0,0.0,480.0,5.0,0.0
4506,54.0,0.0,390.0,10.0,0.0
4507,66.0,96.0,390.0,3.0,0.0
4508,61.0,0.0,960.0,7.0,0.0
4509,70.0,0.0,480.0,1.0,0.0
4510,54.0,0.0,390.0,4.0,0.0
4511,70.0,384.0,480.0,6.0,0.0
4512,54.0,0.0,390.0,8.0,0.0
4513,90.0,384.0,960.0,5.0,0.0
4514,82.0,0.0,960.0,1.0,0.0
4515,42.0,0.0,390.0,10.0,0.0
4516,90.0,0.0,960.0,0.0,0.0
4517,42.0,0.0,390.0,4.0,0.0
4518,82.0,0.0,960.0,6.0,0.0
4519,54.0,96.0,390.0,3.0,0.0
4520,63.0,0.0,480.0,7.0,0.0
4521,39.0,96.0,390.0,10.0,0.0
4522,63.0,0.0,480.0,2.0,0.0
4523,39.0,0.0,390.0,4.0,0.0
4524,51.0,0.0,390.0,3.0,0.0
4525,51.0,0.0,390.0,8.0,0.0
4526,44.0,0.0,390.0,10.0,0.0
4527,84.0,0.0,390.0,0.0,0.0
4528,75.0,0.0,390.0,1.0,0.0
4529,56.0,276.0,390.0,3.0,0.0
4530,56.0,0.0,390.0,8.0,0.0
4531,75.0,0.0,390.0,6.0,0.0
4532,44.0,0.0,390.0,4.0,0.0
4533,84.0,0.0,390.0,5.0,0.0
4534,66.0,0.0,390.0,2.0,0.0
4535,66.0,0.0,390.0,7.0,0.0
4536,78.0,180.0,960.0,1.0,0.0
4537,72.0,0.0,960.0,2.0,0.0
4538,49.0,240.0,180.0,3.0,0.0
4539,37.0,0.0,180.0,10.0,0.0
4540,37.0,0.0,180.0,4.0,0.0
4541,78.0,0.0,960.0,6.0,0.0
4542,87.0,0.0,960.0,5.0,0.0
4543,72.0,0.0,960.0,7.0,0.0
4544,87.0,0.0,960.0,0.0,0.0
4545,49.0,0.0,180.0,8.0,0.0
4546,49.0,0.0,180.0,10.0,0.0
4547,61.0,240.0,180.0,8.0,0.0
4548,49.0,0.0,180.0,4.0,0.0
4549,61.0,0.0,180.0,3.0,0.0
4550,61.0,240.0,180.0,8.0,0.0
4551,61.0,0.0,180.0,3.0,0.0
4552,49.0,0.0,180.0,10.0,0.0
4553,49.0,0.0,180.0,4.0,0.0
4554,61.0,0.0,180.0,8.0,0.0
4555,49.0,0.0,180.0,4.0,0.0
4556,49.0,0.0,180.0,10.0,0.0
4557,61.0,60.0,180.0,3.0,0.0
4558,61.0,0.0,180.0,3.0,0.0
4559,73.0,0.0,390.0,2.0,0.0
4560,49.0,204.0,180.0,4.0,0.0
4561,85.0,36.0,390.0,0.0,0.0
4562,49.0,0.0,180.0,10.0,0.0
4563,73.0,0.0,390.0,7.0,0.0
4564,85.0,0.0,390.0,5.0,0.0
4565,77.0,0.0,390.0,6.0,0.0
4566,61.0,0.0,180.0,8.0,0.0
4567,77.0,0.0,390.0,1.0,0.0
4568,49.0,0.0,180.0,4.0,0.0
4569,61.0,0.0,180.0,8.0,0.0
4570,49.0,0.0,180.0,10.0,0.0
4571,61.0,240.0,180.0,3.0,0.0
4572,49.0,240.0,180.0,4.0,0.0
4573,49.0,0.0,180.0,10.0,0.0
4574,61.0,0.0,180.0,8.0,0.0
4575,61.0,0.0,180.0,3.0,0.0
4576,49.0,240.0,180.0,10.0,0.0
4577,61.0,0.0,180.0,3.0,0.0
4578,49.0,0.0,180.0,4.0,0.0
4579,61.0,0.0,180.0,8.0,0.0
4580,37.0,0.0,180.0,10.0,0.0
4581,87.0,180.0,240.0,5.0,0.0
4582,49.0,60.0,180.0,3.0,0.0
4583,87.0,0.0,240.0,0.0,0.0
4584,37.0,0.0,180.0,4.0,0.0
4585,49.0,0.0,180.0,8.0,0.0
4586,49.0,0.0,180.0,10.0,0.0
4587,49.0,240.0,180.0,4.0,0.0
4588,61.0,0.0,180.0,3.0,0.0
4589,85.0,0.0,180.0,5.0,0.0
4590,85.0,0.0,180.0,0.0,0.0
4591,61.0,0.0,180.0,8.0,0.0
4592,61.0,0.0,180.0,3.0,0.0
4593,49.0,240.0,180.0,4.0,0.0
4594,49.0,0.0,180.0,10.0,0.0
4595,61.0,0.0,180.0,8.0,0.0
4596,83.0,0.0,180.0,0.0,0.0
4597,83.0,0.0,180.0,5.0,0.0
4598,49.0,0.0,180.0,10.0,0.0
4599,82.0,0.0,180.0,5.0,0.0
4600,49.0,0.0,180.0,4.0,0.0
4601,61.0,0.0,180.0,3.0,0.0
4602,82.0,0.0,180.0,0.0,0.0
4603,61.0,240.0,180.0,8.0,0.0
4604,80.0,60.0,360.0,0.0,0.0
4605,61.0,0.0,180.0,3.0,0.0
4606,49.0,0.0,180.0,10.0,0.0
4607,49.0,0.0,180.0,4.0,0.0
4608,80.0,0.0,360.0,5.0,0.0
4609,61.0,180.0,180.0,8.0,0.0
4610,61.0,0.0,180.0,3.0,0.0
4611,49.0,240.0,180.0,10.0,0.0
4612,61.0,0.0,180.0,8.0,0.0
4613,49.0,0.0,180.0,4.0,0.0
4614,61.0,0.0,180.0,3.0,0.0
4615,49.0,0.0,180.0,10.0,0.0
4616,49.0,0.0,180.0,4.0,0.0
4617,80.0,0.0,360.0,0.0,0.0
4618,80.0,60.0,360.0,5.0,0.0
4619,61.0,180.0,180.0,8.0,0.0
4620,61.0,0.0,180.0,3.0,0.0
4621,49.0,240.0,180.0,4.0,0.0
4622,49.0,0.0,180.0,10.0,0.0
4623,61.0,0.0,180.0,8.0,0.0
4624,37.0,60.0,180.0,10.0,0.0
4625,83.0,180.0,240.0,0.0,0.0
4626,49.0,0.0,180.0,3.0,0.0
4627,37.0,0.0,180.0,4.0,0.0
4628,75.0,0.0,240.0,1.0,0.0
4629,49.0,0.0,180.0,8.0,0.0
4630,75.0,0.0,240.0,6.0,0.0
4631,83.0,0.0,240.0,5.0,0.0
4632,61.0,0.0,180.0,3.0,0.0
4633,49.0,0.0,180.0,4.0,0.0
4634,73.0,0.0,180.0,1.0,0.0
4635,61.0,0.0,180.0,8.0,0.0
4636,73.0,240.0,180.0,6.0,0.0
4637,82.0,0.0,180.0,0.0,0.0
4638,82.0,0.0,180.0,5.0,0.0
4639,49.0,0.0,180.0,10.0,0.0
4640,49.0,0.0,180.0,10.0,0.0
4641,71.0,0.0,180.0,6.0,0.0
4642,49.0,240.0,180.0,4.0,0.0
4643,71.0,0.0,180.0,1.0,0.0
4644,61.0,0.0,180.0,3.0,0.0
4645,61.0,0.0,180.0,8.0,0.0
4646,80.0,0.0,180.0,0.0,0.0
4647,80.0,0.0,180.0,5.0,0.0
4648,49.0,240.0,180.0,10.0,0.0
4649,70.0,0.0,180.0,6.0,0.0
4650,61.0,0.0,180.0,8.0,0.0
4651,61.0,0.0,180.0,3.0,0.0
4652,70.0,0.0,180.0,1.0,0.0
4653,49.0,0.0,180.0,4.0,0.0
4654,78.0,0.0,180.0,0.0,0.0
4655,78.0,0.0,180.0,5.0,0.0
4656,68.0,60.0,360.0,1.0,0.0
4657,61.0,0.0,180.0,3.0,0.0
4658,61.0,180.0,180.0,8.0,0.0
4659,49.0,0.0,180.0,4.0,0.0
4660,77.0,0.0,360.0,5.0,0.0
4661,49.0,0.0,180.0,10.0,0.0
4662,68.0,0.0,360.0,6.0,0.0
4663,77.0,0.0,360.0,0.0,0.0
4664,61.0,0.0,180.0,3.0,0.0
4665,49.0,0.0,180.0,10.0,0.0
4666,49.0,0.0,180.0,4.0,0.0
4667,61.0,240.0,180.0,8.0,0.0
4668,68.0,60.0,360.0,1.0,0.0
4669,49.0,0.0,180.0,4.0,0.0
4670,68.0,0.0,360.0,6.0,0.0
4671,61.0,180.0,180.0,8.0,0.0
4672,61.0,0.0,180.0,3.0,0.0
4673,49.0,0.0,180.0,10.0,0.0
4674,61.0,0.0,180.0,3.0,0.0
4675,49.0,240.0,180.0,10.0,0.0
4676,49.0,0.0,180.0,4.0,0.0
4677,61.0,0.0,180.0,8.0,0.0
4678,87.0,0.0,240.0,5.0,0.0
4679,37.0,0.0,180.0,4.0,0.0
4680,53.0,0.0,240.0,7.0,0.0
4681,49.0,0.0,180.0,8.0,0.0
4682,37.0,0.0,180.0,10.0,0.0
4683,71.0,0.0,240.0,1.0,0.0
4684,49.0,60.0,180.0,3.0,0.0
4685,71.0,180.0,240.0,6.0,0.0
4686,87.0,0.0,240.0,0.0,0.0
4687,53.0,0.0,240.0,2.0,0.0
4688,49.0,0.0,180.0,10.0,0.0
4689,54.0,0.0,180.0,2.0,0.0
4690,61.0,0.0,180.0,3.0,0.0
4691,85.0,0.0,180.0,0.0,0.0
4692,49.0,0.0,180.0,4.0,0.0
4693,85.0,240.0,180.0,5.0,0.0
4694,70.0,0.0,180.0,1.0,0.0
4695,61.0,0.0,180.0,8.0,0.0
4696,70.0,0.0,180.0,6.0,0.0
4697,54.0,0.0,180.0,7.0,0.0
4698,68.0,0.0,180.0,1.0,0.0
4699,56.0,0.0,180.0,7.0,0.0
4700,56.0,0.0,180.0,2.0,0.0
4701,83.0,0.0,180.0,5.0,0.0
4702,83.0,0.0,180.0,0.0,0.0
4703,49.0,0.0,180.0,10.0,0.0
4704,61.0,0.0,180.0,8.0,0.0
4705,49.0,0.0,180.0,4.0,0.0
4706,61.0,240.0,180.0,3.0,0.0
4707,68.0,0.0,180.0,6.0,0.0
4708,66.0,0.0,180.0,6.0,0.0
4709,58.0,240.0,180.0,7.0,0.0
4710,82.0,0.0,180.0,5.0,0.0
4711,49.0,0.0,180.0,4.0,0.0
4712,61.0,0.0,180.0,3.0,0.0
4713,82.0,0.0,180.0,0.0,0.0
4714,66.0,0.0,180.0,1.0,0.0
4715,58.0,0.0,180.0,2.0,0.0
4716,61.0,0.0,180.0,8.0,0.0
4717,49.0,0.0,180.0,10.0,0.0
4718,49.0,180.0,180.0,10.0,0.0
4719,61.0,0.0,180.0,8.0,0.0
4720,65.0,0.0,360.0,1.0,0.0
4721,80.0,0.0,180.0,0.0,0.0
4722,65.0,60.0,360.0,6.0,0.0
4723,59.0,0.0,360.0,2.0,0.0
4724,49.0,0.0,180.0,4.0,0.0
4725,61.0,0.0,180.0,3.0,0.0
4726,80.0,0.0,180.0,5.0,0.0
4727,59.0,0.0,360.0,7.0,0.0
4728,49.0,0.0,180.0,4.0,0.0
4729,80.0,240.0,180.0,5.0,0.0
4730,80.0,0.0,180.0,0.0,0.0
4731,61.0,0.0,180.0,8.0,0.0
4732,49.0,0.0,180.0,10.0,0.0
4733,61.0,0.0,180.0,3.0,0.0
4734,80.0,0.0,180.0,5.0,0.0
4735,49.0,0.0,180.0,4.0,0.0
4736,61.0,0.0,180.0,8.0,0.0
4737,49.0,0.0,180.0,10.0,0.0
4738,61.0,240.0,180.0,3.0,0.0
4739,80.0,0.0,180.0,0.0,0.0
4740,80.0,0.0,180.0,5.0,0.0
4741,61.0,0.0,180.0,3.0,0.0
4742,61.0,0.0,180.0,8.0,0.0
4743,49.0,240.0,180.0,10.0,0.0
4744,49.0,0.0,180.0,4.0,0.0
4745,80.0,0.0,180.0,0.0,0.0
4746,75.0,0.0,240.0,6.0,0.0
4747,65.0,180.0,240.0,2.0,0.0
4748,83.0,0.0,240.0,5.0,0.0
4749,49.0,0.0,180.0,8.0,0.0
4750,49.0,0.0,180.0,3.0,0.0
4751,65.0,0.0,240.0,7.0,0.0
4752,37.0,60.0,180.0,4.0,0.0
4753,75.0,0.0,240.0,1.0,0.0
4754,37.0,0.0,180.0,10.0,0.0
4755,83.0,0.0,240.0,0.0,0.0
4756,82.0,0.0,180.0,0.0,0.0
4757,73.0,0.0,180.0,1.0,0.0
4758,73.0,0.0,180.0,6.0,0.0
4759,66.0,0.0,180.0,7.0,0.0
4760,49.0,0.0,180.0,10.0,0.0
4761,49.0,0.0,180.0,4.0,0.0
4762,61.0,0.0,180.0,8.0,0.0
4763,66.0,0.0,180.0,2.0,0.0
4764,82.0,0.0,180.0,5.0,0.0
4765,61.0,240.0,180.0,3.0,0.0
4766,61.0,0.0,180.0,8.0,0.0
4767,61.0,0.0,180.0,3.0,0.0
4768,68.0,0.0,180.0,7.0,0.0
4769,49.0,0.0,180.0,4.0,0.0
4770,49.0,0.0,180.0,10.0,0.0
4771,71.0,0.0,180.0,6.0,0.0
4772,68.0,0.0,180.0,2.0,0.0
4773,80.0,0.0,180.0,5.0,0.0
4774,80.0,240.0,180.0,0.0,0.0
4775,71.0,0.0,180.0,1.0,0.0
4776,49.0,0.0,180.0,10.0,0.0
4777,78.0,0.0,180.0,5.0,0.0
4778,70.0,300.0,180.0,2.0,0.0
4779,70.0,0.0,180.0,7.0,0.0
4780,78.0,0.0,180.0,0.0,0.0
4781,61.0,0.0,180.0,3.0,0.0
4782,49.0,0.0,180.0,4.0,0.0
4783,61.0,0.0,180.0,8.0,0.0
4784,70.0,0.0,180.0,1.0,0.0
4785,70.0,0.0,180.0,6.0,0.0
4786,71.0,24.0,360.0,7.0,0.0
4787,77.0,120.0,240.0,5.0,0.0
4788,61.0,0.0,390.0,8.0,0.0
4789,71.0,0.0,360.0,2.0,0.0
4790,68.0,0.0,360.0,6.0,0.0
4791,49.0,0.0,390.0,4.0,0.0
4792,77.0,0.0,240.0,0.0,0.0
4793,61.0,0.0,390.0,3.0,0.0
4794,68.0,0.0,360.0,1.0,0.0
4795,49.0,96.0,390.0,10.0,0.0
4796,80.0,0.0,240.0,0.0,0.0
4797,80.0,240.0,240.0,5.0,0.0
4798,77.0,0.0,240.0,0.0,0.0
4799,77.0,192.0,240.0,5.0,0.0
4800,80.0,288.0,180.0,0.0,0.0
4801,80.0,0.0,180.0,5.0,0.0
4802,62.0,0.0,960.0,3.0,0.0
4803,83.0,0.0,240.0,0.0,0.0
4804,65.0,180.0,240.0,6.0,0.0
4805,50.0,0.0,960.0,10.0,0.0
4806,50.0,240.0,960.0,4.0,0.0
4807,65.0,0.0,240.0,1.0,0.0
4808,62.0,0.0,960.0,8.0,0.0
4809,83.0,0.0,240.0,5.0,0.0
4810,81.0,0.0,180.0,0.0,0.0
4811,66.0,204.0,180.0,1.0,0.0
4812,81.0,12.0,180.0,5.0,0.0
4813,66.0,0.0,180.0,6.0,0.0
4814,68.0,0.0,180.0,1.0,0.0
4815,65.0,0.0,150.0,7.0,0.0
4816,68.0,204.0,180.0,6.0,0.0
4817,80.0,12.0,180.0,5.0,0.0
4818,65.0,24.0,150.0,2.0,0.0
4819,80.0,0.0,180.0,0.0,0.0
4820,78.0,12.0,180.0,0.0,0.0
4821,66.0,0.0,150.0,2.0,0.0
4822,66.0,24.0,150.0,7.0,0.0
4823,69.0,48.0,180.0,1.0,0.0
4824,69.0,0.0,180.0,6.0,0.0
4825,78.0,0.0,180.0,5.0,0.0
4826,77.0,0.0,240.0,5.0,0.0
4827,68.0,0.0,300.0,2.0,0.0
4828,68.0,72.0,300.0,7.0,0.0
4829,49.0,0.0,390.0,10.0,0.0
4830,77.0,72.0,240.0,0.0,0.0
4831,49.0,0.0,390.0,4.0,0.0
4832,71.0,0.0,390.0,6.0,0.0
4833,61.0,96.0,390.0,8.0,0.0
4834,71.0,0.0,390.0,1.0,0.0
4835,61.0,0.0,390.0,3.0,0.0
4836,80.0,240.0,240.0,0.0,0.0
4837,80.0,0.0,240.0,5.0,0.0
4838,77.0,192.0,240.0,5.0,0.0
4839,77.0,0.0,240.0,0.0,0.0
4840,80.0,0.0,180.0,5.0,0.0
4841,80.0,288.0,180.0,0.0,0.0
4842,50.0,0.0,960.0,10.0,0.0
4843,62.0,0.0,960.0,3.0,0.0
4844,83.0,180.0,240.0,5.0,0.0
4845,83.0,0.0,240.0,0.0,0.0
4846,65.0,0.0,240.0,6.0,0.0
4847,50.0,0.0,960.0,4.0,0.0
4848,62.0,240.0,960.0,8.0,0.0
4849,65.0,0.0,240.0,1.0,0.0
4850,81.0,12.0,180.0,5.0,0.0
4851,81.0,0.0,180.0,0.0,0.0
4852,66.0,0.0,180.0,6.0,0.0
4853,66.0,204.0,180.0,1.0,0.0
4854,65.0,24.0,150.0,7.0,0.0
4855,68.0,204.0,180.0,1.0,0.0
4856,80.0,0.0,180.0,5.0,0.0
4857,68.0,0.0,180.0,6.0,0.0
4858,80.0,12.0,180.0,0.0,0.0
4859,65.0,0.0,150.0,2.0,0.0
4860,66.0,0.0,150.0,2.0,0.0
4861,66.0,24.0,150.0,7.0,0.0
4862,69.0,0.0,180.0,1.0,0.0
4863,78.0,0.0,180.0,5.0,0.0
4864,69.0,48.0,180.0,6.0,0.0
4865,78.0,12.0,180.0,0.0,0.0
4866,49.0,96.0,390.0,4.0,0.0
4867,68.0,0.0,300.0,7.0,0.0
4868,49.0,0.0,390.0,10.0,0.0
4869,77.0,72.0,240.0,5.0,0.0
4870,68.0,72.0,300.0,2.0,0.0
4871,71.0,0.0,390.0,6.0,0.0
4872,77.0,0.0,240.0,0.0,0.0
4873,61.0,0.0,390.0,3.0,0.0
4874,71.0,0.0,390.0,1.0,0.0
4875,61.0,0.0,390.0,8.0,0.0
4876,80.0,240.0,240.0,5.0,0.0
4877,80.0,0.0,240.0,0.0,0.0
4878,77.0,0.0,240.0,0.0,0.0
4879,77.0,192.0,240.0,5.0,0.0
4880,80.0,0.0,180.0,5.0,0.0
4881,80.0,288.0,180.0,0.0,0.0
4882,83.0,0.0,240.0,5.0,0.0
4883,80.0,0.0,240.0,1.0,0.0
4884,73.0,0.0,480.0,7.0,0.0
4885,83.0,240.0,240.0,0.0,0.0
4886,73.0,0.0,480.0,2.0,0.0
4887,80.0,0.0,240.0,6.0,0.0
4888,77.0,0.0,240.0,6.0,0.0
4889,80.0,0.0,240.0,5.0,0.0
4890,80.0,240.0,240.0,0.0,0.0
4891,77.0,0.0,240.0,1.0,0.0
4892,80.0,0.0,240.0,1.0,0.0
4893,74.0,0.0,480.0,2.0,0.0
4894,83.0,0.0,240.0,0.0,0.0
4895,83.0,240.0,240.0,5.0,0.0
4896,74.0,0.0,480.0,7.0,0.0
4897,80.0,0.0,240.0,6.0,0.0
4898,77.0,240.0,240.0,6.0,0.0
4899,77.0,0.0,240.0,1.0,0.0
4900,80.0,0.0,240.0,5.0,0.0
4901,80.0,0.0,240.0,0.0,0.0
4902,73.0,0.0,480.0,7.0,0.0
4903,80.0,0.0,240.0,1.0,0.0
4904,83.0,240.0,240.0,0.0,0.0
4905,73.0,0.0,480.0,2.0,0.0
4906,80.0,0.0,240.0,6.0,0.0
4907,83.0,0.0,240.0,5.0,0.0
4908,77.0,0.0,240.0,6.0,0.0
4909,77.0,240.0,240.0,1.0,0.0
4910,80.0,0.0,240.0,0.0,0.0
4911,80.0,0.0,240.0,5.0,0.0
4912,74.0,0.0,480.0,7.0,0.0
4913,80.0,240.0,240.0,6.0,0.0
4914,74.0,0.0,480.0,2.0,0.0
4915,83.0,0.0,240.0,5.0,0.0
4916,80.0,0.0,240.0,1.0,0.0
4917,83.0,0.0,240.0,0.0,0.0
4918,80.0,0.0,240.0,0.0,0.0
4919,77.0,0.0,240.0,1.0,0.0
4920,77.0,384.0,240.0,6.0,0.0
4921,80.0,0.0,240.0,5.0,0.0
4922,83.0,0.0,390.0,0.0,0.0
4923,83.0,0.0,390.0,5.0,0.0
4924,73.0,0.0,390.0,7.0,0.0
4925,80.0,0.0,390.0,6.0,0.0
4926,73.0,960.0,390.0,2.0,0.0
4927,80.0,0.0,390.0,1.0,0.0
4928,73.0,240.0,150.0,0.0,0.0
4929,73.0,0.0,150.0,5.0,0.0
4930,78.0,240.0,150.0,0.0,0.0
4931,78.0,0.0,150.0,5.0,0.0
4932,82.0,288.0,150.0,0.0,0.0
4933,82.0,0.0,150.0,5.0,0.0
4934,66.0,0.0,180.0,7.0,0.0
4935,54.0,0.0,780.0,8.0,0.0
4936,70.0,96.0,180.0,1.0,0.0
4937,85.0,0.0,300.0,0.0,0.0
4938,70.0,0.0,180.0,6.0,0.0
4939,54.0,0.0,780.0,3.0,0.0
4940,66.0,0.0,180.0,2.0,0.0
4941,85.0,144.0,300.0,5.0,0.0
4942,42.0,144.0,780.0,4.0,0.0
4943,42.0,0.0,780.0,10.0,0.0
4944,70.0,240.0,180.0,6.0,0.0
4945,70.0,0.0,180.0,1.0,0.0
4946,66.0,0.0,180.0,2.0,0.0
4947,66.0,0.0,180.0,7.0,0.0
4948,58.0,96.0,180.0,2.0,0.0
4949,85.0,0.0,300.0,0.0,0.0
4950,61.0,0.0,180.0,6.0,0.0
4951,61.0,0.0,180.0,1.0,0.0
4952,85.0,0.0,300.0,5.0,0.0
4953,58.0,0.0,180.0,7.0,0.0
4954,58.0,0.0,180.0,7.0,0.0
4955,58.0,0.0,180.0,2.0,0.0
4956,61.0,0.0,180.0,6.0,0.0
4957,61.0,240.0,180.0,1.0,0.0
4958,85.0,144.0,300.0,0.0,0.0
4959,61.0,0.0,180.0,2.0,0.0
4960,66.0,0.0,180.0,1.0,0.0
4961,85.0,0.0,300.0,5.0,0.0
4962,61.0,0.0,180.0,7.0,0.0
4963,66.0,96.0,180.0,6.0,0.0
4964,66.0,0.0,180.0,6.0,0.0
4965,61.0,0.0,180.0,7.0,0.0
4966,66.0,0.0,180.0,1.0,0.0
4967,61.0,240.0,180.0,2.0,0.0
4968,85.0,144.0,300.0,5.0,0.0
4969,70.0,0.0,180.0,1.0,0.0
4970,66.0,0.0,180.0,2.0,0.0
4971,66.0,96.0,180.0,7.0,0.0
4972,85.0,0.0,300.0,0.0,0.0
4973,70.0,0.0,180.0,6.0,0.0
4974,66.0,240.0,180.0,2.0,0.0
4975,70.0,0.0,180.0,1.0,0.0
4976,66.0,0.0,180.0,7.0,0.0
4977,70.0,0.0,180.0,6.0,0.0
4978,61.0,0.0,360.0,8.0,0.0
4979,77.0,0.0,300.0,0.0,0.0
4980,68.0,96.0,180.0,2.0,0.0
4981,71.0,0.0,180.0,6.0,0.0
4982,71.0,0.0,180.0,1.0,0.0
4983,49.0,72.0,360.0,10.0,0.0
4984,61.0,0.0,360.0,3.0,0.0
4985,77.0,72.0,300.0,5.0,0.0
4986,68.0,0.0,180.0,7.0,0.0
4987,49.0,0.0,360.0,4.0,0.0
4988,71.0,0.0,180.0,1.0,0.0
4989,68.0,240.0,180.0,7.0,0.0
4990,68.0,0.0,180.0,2.0,0.0
4991,71.0,0.0,180.0,6.0,0.0
4992,68.0,96.0,180.0,7.0,0.0
4993,68.0,0.0,180.0,2.0,0.0
4994,71.0,0.0,180.0,1.0,0.0
4995,71.0,0.0,180.0,6.0,0.0
4996,77.0,144.0,300.0,5.0,0.0
4997,77.0,0.0,300.0,0.0,0.0
4998,71.0,0.0,180.0,6.0,0.0
4999,71.0,0.0,180.0,1.0,0.0
5000,68.0,240.0,180.0,2.0,0.0
5001,68.0,0.0,180.0,7.0,0.0
5002,78.0,0.0,300.0,0.0,0.0
5003,54.0,72.0,360.0,4.0,0.0
5004,66.0,0.0,180.0,7.0,0.0
5005,66.0,0.0,360.0,3.0,0.0
5006,70.0,0.0,180.0,6.0,0.0
5007,70.0,96.0,180.0,1.0,0.0
5008,66.0,0.0,360.0,8.0,0.0
5009,78.0,72.0,300.0,5.0,0.0
5010,54.0,0.0,360.0,10.0,0.0
5011,66.0,0.0,180.0,2.0,0.0
5012,66.0,0.0,180.0,2.0,0.0
5013,70.0,0.0,180.0,6.0,0.0
5014,66.0,128.0,180.0,7.0,0.0
5015,70.0,0.0,180.0,1.0,0.0
5016,78.0,80.0,90.0,5.0,0.0
5017,66.0,48.0,180.0,7.0,0.0
5018,66.0,0.0,180.0,2.0,0.0
5019,70.0,0.0,180.0,1.0,0.0
5020,78.0,0.0,90.0,0.0,0.0
5021,70.0,0.0,180.0,6.0,0.0
5022,80.0,0.0,90.0,5.0,0.0
5023,80.0,32.0,90.0,0.0,0.0
5024,78.0,120.0,90.0,5.0,0.0
5025,78.0,0.0,90.0,0.0,0.0
5026,66.0,0.0,180.0,2.0,0.0
5027,70.0,0.0,180.0,1.0,0.0
5028,70.0,0.0,180.0,6.0,0.0
5029,77.0,72.0,120.0,0.0,0.0
5030,66.0,48.0,180.0,7.0,0.0
5031,77.0,0.0,120.0,5.0,0.0
5032,78.0,192.0,120.0,5.0,0.0
5033,78.0,0.0,120.0,0.0,0.0
5034,73.0,0.0,180.0,1.0,0.0
5035,83.0,72.0,300.0,0.0,0.0
5036,65.0,0.0,360.0,3.0,0.0
5037,68.0,0.0,180.0,2.0,0.0
5038,53.0,0.0,360.0,10.0,0.0
5039,65.0,72.0,360.0,8.0,0.0
5040,53.0,0.0,360.0,4.0,0.0
5041,83.0,0.0,300.0,5.0,0.0
5042,68.0,0.0,180.0,7.0,0.0
5043,73.0,96.0,180.0,6.0,0.0
5044,73.0,0.0,180.0,6.0,0.0
5045,68.0,0.0,180.0,2.0,0.0
5046,73.0,240.0,180.0,1.0,0.0
5047,68.0,0.0,180.0,7.0,0.0
5048,68.0,0.0,180.0,2.0,0.0
5049,83.0,0.0,300.0,0.0,0.0
5050,73.0,0.0,180.0,1.0,0.0
5051,68.0,96.0,180.0,7.0,0.0
5052,83.0,144.0,300.0,5.0,0.0
5053,73.0,0.0,180.0,6.0,0.0
5054,73.0,0.0,180.0,6.0,0.0
5055,68.0,0.0,180.0,7.0,0.0
5056,73.0,240.0,180.0,1.0,0.0
5057,68.0,0.0,180.0,2.0,0.0
5058,73.0,0.0,180.0,1.0,0.0
5059,82.0,72.0,300.0,0.0,0.0
5060,66.0,0.0,180.0,2.0,0.0
5061,66.0,0.0,360.0,8.0,0.0
5062,82.0,0.0,300.0,5.0,0.0
5063,66.0,0.0,180.0,7.0,0.0
5064,54.0,0.0,360.0,10.0,0.0
5065,73.0,96.0,180.0,6.0,0.0
5066,54.0,72.0,360.0,4.0,0.0
5067,66.0,0.0,360.0,3.0,0.0
5068,73.0,0.0,180.0,6.0,0.0
5069,66.0,0.0,180.0,2.0,0.0
5070,66.0,240.0,180.0,7.0,0.0
5071,73.0,0.0,180.0,1.0,0.0
5072,82.0,144.0,300.0,0.0,0.0
5073,66.0,96.0,180.0,7.0,0.0
5074,73.0,0.0,180.0,6.0,0.0
5075,82.0,0.0,300.0,5.0,0.0
5076,73.0,0.0,180.0,1.0,0.0
5077,66.0,0.0,180.0,2.0,0.0
5078,73.0,0.0,180.0,6.0,0.0
5079,73.0,204.0,180.0,1.0,0.0
5080,66.0,0.0,180.0,7.0,0.0
5081,66.0,0.0,180.0,2.0,0.0
5082,65.0,204.0,150.0,7.0,0.0
5083,49.0,0.0,360.0,10.0,0.0
5084,49.0,0.0,360.0,4.0,0.0
5085,73.0,0.0,150.0,1.0,0.0
5086,61.0,0.0,360.0,3.0,0.0
5087,80.0,12.0,390.0,5.0,0.0
5088,65.0,0.0,150.0,2.0,0.0
5089,80.0,0.0,390.0,0.0,0.0
5090,73.0,0.0,150.0,6.0,0.0
5091,61.0,24.0,360.0,8.0,0.0
5092,78.0,0.0,150.0,6.0,0.0
5093,78.0,240.0,150.0,1.0,0.0
5094,75.0,0.0,150.0,7.0,0.0
5095,75.0,0.0,150.0,2.0,0.0
5096,77.0,0.0,150.0,1.0,0.0
5097,73.0,0.0,150.0,2.0,0.0
5098,77.0,0.0,150.0,6.0,0.0
5099,73.0,240.0,150.0,7.0,0.0
5100,71.0,0.0,150.0,2.0,0.0
5101,75.0,0.0,150.0,1.0,0.0
5102,75.0,0.0,150.0,6.0,0.0
5103,71.0,240.0,150.0,7.0,0.0
5104,70.0,0.0,150.0,2.0,0.0
5105,70.0,0.0,150.0,7.0,0.0
5106,73.0,0.0,150.0,6.0,0.0
5107,73.0,228.0,150.0,1.0,0.0
5108,73.0,12.0,150.0,5.0,0.0
5109,71.0,0.0,150.0,6.0,0.0
5110,73.0,0.0,150.0,0.0,0.0
5111,68.0,228.0,150.0,7.0,0.0
5112,71.0,0.0,150.0,1.0,0.0
5113,68.0,0.0,150.0,2.0,0.0
5114,70.0,0.0,150.0,1.0,0.0
5115,66.0,228.0,150.0,2.0,0.0
5116,70.0,0.0,150.0,6.0,0.0
5117,78.0,12.0,150.0,0.0,0.0
5118,66.0,0.0,150.0,7.0,0.0
5119,78.0,0.0,150.0,5.0,0.0
5120,82.0,12.0,150.0,5.0,0.0
5121,65.0,0.0,150.0,7.0,0.0
5122,82.0,0.0,150.0,0.0,0.0
5123,68.0,276.0,150.0,1.0,0.0
5124,68.0,0.0,150.0,6.0,0.0
5125,65.0,0.0,150.0,2.0,0.0
5126,66.0,0.0,180.0,7.0,0.0
5127,85.0,144.0,300.0,5.0,0.0
5128,85.0,0.0,300.0,0.0,0.0
5129,70.0,0.0,180.0,1.0,0.0
5130,66.0,0.0,180.0,2.0,0.0
5131,54.0,0.0,780.0,8.0,0.0
5132,42.0,0.0,780.0,4.0,0.0
5133,42.0,144.0,780.0,10.0,0.0
5134,70.0,96.0,180.0,6.0,0.0
5135,54.0,0.0,780.0,3.0,0.0
5136,66.0,0.0,180.0,7.0,0.0
5137,66.0,0.0,180.0,2.0,0.0
5138,70.0,0.0,180.0,1.0,0.0
5139,70.0,240.0,180.0,6.0,0.0
5140,61.0,0.0,180.0,1.0,0.0
5141,85.0,0.0,300.0,0.0,0.0
5142,61.0,96.0,180.0,6.0,0.0
5143,58.0,0.0,180.0,7.0,0.0
5144,85.0,0.0,300.0,5.0,0.0
5145,58.0,0.0,180.0,2.0,0.0
5146,58.0,0.0,180.0,2.0,0.0
5147,61.0,0.0,180.0,1.0,0.0
5148,58.0,0.0,180.0,7.0,0.0
5149,61.0,240.0,180.0,6.0,0.0
5150,85.0,144.0,300.0,0.0,0.0
5151,85.0,0.0,300.0,5.0,0.0
5152,66.0,0.0,180.0,6.0,0.0
5153,61.0,96.0,180.0,2.0,0.0
5154,61.0,0.0,180.0,7.0,0.0
5155,66.0,0.0,180.0,1.0,0.0
5156,61.0,0.0,180.0,7.0,0.0
5157,66.0,0.0,180.0,6.0,0.0
5158,66.0,0.0,180.0,1.0,0.0
5159,61.0,240.0,180.0,2.0,0.0
5160,85.0,144.0,300.0,0.0,0.0
5161,70.0,0.0,180.0,6.0,0.0
5162,70.0,0.0,180.0,1.0,0.0
5163,85.0,0.0,300.0,5.0,0.0
5164,66.0,0.0,180.0,2.0,0.0
5165,66.0,96.0,180.0,7.0,0.0
5166,70.0,0.0,180.0,6.0,0.0
5167,66.0,0.0,180.0,2.0,0.0
5168,66.0,240.0,180.0,7.0,0.0
5169,70.0,0.0,180.0,1.0,0.0
5170,77.0,72.0,300.0,0.0,0.0
5171,71.0,96.0,180.0,1.0,0.0
5172,61.0,0.0,360.0,8.0,0.0
5173,68.0,0.0,180.0,2.0,0.0
5174,49.0,0.0,360.0,4.0,0.0
5175,68.0,0.0,180.0,7.0,0.0
5176,49.0,72.0,360.0,10.0,0.0
5177,77.0,0.0,300.0,5.0,0.0
5178,61.0,0.0,360.0,3.0,0.0
5179,71.0,0.0,180.0,6.0,0.0
5180,68.0,0.0,180.0,7.0,0.0
5181,71.0,0.0,180.0,6.0,0.0
5182,71.0,0.0,180.0,1.0,0.0
5183,68.0,112.0,180.0,2.0,0.0
5184,68.0,0.0,180.0,2.0,0.0
5185,71.0,32.0,180.0,6.0,0.0
5186,77.0,80.0,60.0,5.0,0.0
5187,68.0,0.0,180.0,7.0,0.0
5188,71.0,0.0,180.0,1.0,0.0
5189,77.0,0.0,60.0,0.0,0.0
5190,78.0,48.0,60.0,5.0,0.0
5191,78.0,0.0,60.0,0.0,0.0
5192,77.0,0.0,60.0,0.0,0.0
5193,77.0,112.0,60.0,5.0,0.0
5194,71.0,24.0,180.0,6.0,0.0
5195,75.0,0.0,90.0,5.0,0.0
5196,68.0,0.0,180.0,7.0,0.0
5197,68.0,0.0,180.0,2.0,0.0
5198,75.0,96.0,90.0,0.0,0.0
5199,71.0,0.0,180.0,1.0,0.0
5200,77.0,0.0,90.0,5.0,0.0
5201,77.0,216.0,90.0,0.0,0.0
5202,66.0,96.0,180.0,7.0,0.0
5203,66.0,0.0,180.0,2.0,0.0
5204,51.0,0.0,360.0,4.0,0.0
5205,78.0,72.0,300.0,5.0,0.0
5206,63.0,0.0,360.0,8.0,0.0
5207,78.0,0.0,300.0,0.0,0.0
5208,63.0,0.0,360.0,3.0,0.0
5209,70.0,0.0,180.0,6.0,0.0
5210,70.0,0.0,180.0,1.0,0.0
5211,51.0,72.0,360.0,10.0,0.0
5212,70.0,0.0,180.0,6.0,0.0
5213,70.0,0.0,180.0,1.0,0.0
5214,66.0,112.0,180.0,2.0,0.0
5215,66.0,0.0,180.0,7.0,0.0
5216,70.0,0.0,180.0,1.0,0.0
5217,78.0,0.0,60.0,0.0,0.0
5218,66.0,0.0,180.0,7.0,0.0
5219,70.0,0.0,180.0,6.0,0.0
5220,66.0,32.0,180.0,2.0,0.0
5221,78.0,80.0,60.0,5.0,0.0
5222,80.0,48.0,60.0,0.0,0.0
5223,80.0,0.0,60.0,5.0,0.0
5224,78.0,0.0,60.0,5.0,0.0
5225,78.0,112.0,60.0,0.0,0.0
5226,77.0,96.0,90.0,0.0,0.0
5227,70.0,0.0,180.0,6.0,0.0
5228,70.0,0.0,180.0,1.0,0.0
5229,77.0,0.0,90.0,5.0,0.0
5230,66.0,0.0,180.0,7.0,0.0
5231,66.0,24.0,180.0,2.0,0.0
5232,78.0,0.0,90.0,5.0,0.0
5233,78.0,216.0,90.0,0.0,0.0
5234,80.0,72.0,300.0,0.0,0.0
5235,80.0,0.0,300.0,5.0,0.0
5236,47.0,72.0,360.0,10.0,0.0
5237,47.0,0.0,360.0,4.0,0.0
5238,66.0,0.0,180.0,2.0,0.0
5239,59.0,0.0,360.0,3.0,0.0
5240,59.0,0.0,360.0,8.0,0.0
5241,66.0,96.0,180.0,7.0,0.0
5242,75.0,0.0,180.0,6.0,0.0
5243,75.0,0.0,180.0,1.0,0.0
5244,75.0,0.0,180.0,1.0,0.0
5245,66.0,112.0,180.0,2.0,0.0
5246,75.0,0.0,180.0,6.0,0.0
5247,66.0,0.0,180.0,7.0,0.0
5248,80.0,80.0,60.0,5.0,0.0
5249,66.0,0.0,180.0,2.0,0.0
5250,75.0,32.0,180.0,1.0,0.0
5251,80.0,0.0,60.0,0.0,0.0
5252,75.0,0.0,180.0,6.0,0.0
5253,66.0,0.0,180.0,7.0,0.0
5254,82.0,0.0,60.0,0.0,0.0
5255,82.0,48.0,60.0,5.0,0.0
5256,80.0,112.0,60.0,0.0,0.0
5257,80.0,0.0,60.0,5.0,0.0
5258,78.0,96.0,90.0,5.0,0.0
5259,78.0,0.0,90.0,0.0,0.0
5260,75.0,24.0,180.0,6.0,0.0
5261,75.0,0.0,180.0,1.0,0.0
5262,66.0,0.0,180.0,2.0,0.0
5263,66.0,0.0,180.0,7.0,0.0
5264,80.0,216.0,90.0,0.0,0.0
5265,80.0,0.0,90.0,5.0,0.0
5266,82.0,72.0,300.0,5.0,0.0
5267,76.0,96.0,180.0,1.0,0.0
5268,66.0,0.0,180.0,7.0,0.0
5269,76.0,0.0,180.0,6.0,0.0
5270,61.0,0.0,360.0,8.0,0.0
5271,49.0,0.0,360.0,10.0,0.0
5272,49.0,72.0,360.0,4.0,0.0
5273,82.0,0.0,300.0,0.0,0.0
5274,66.0,0.0,180.0,2.0,0.0
5275,61.0,0.0,360.0,3.0,0.0
5276,76.0,0.0,180.0,1.0,0.0
5277,66.0,0.0,180.0,7.0,0.0
5278,76.0,112.0,180.0,6.0,0.0
5279,66.0,0.0,180.0,2.0,0.0
5280,66.0,0.0,180.0,2.0,0.0
5281,76.0,0.0,180.0,6.0,0.0
5282,76.0,32.0,180.0,1.0,0.0
5283,66.0,0.0,180.0,7.0,0.0
5284,82.0,0.0,60.0,5.0,0.0
5285,82.0,80.0,60.0,0.0,0.0
5286,83.0,48.0,60.0,0.0,0.0
5287,83.0,0.0,60.0,5.0,0.0
5288,82.0,0.0,60.0,5.0,0.0
5289,82.0,112.0,60.0,0.0,0.0
5290,76.0,0.0,180.0,1.0,0.0
5291,80.0,0.0,90.0,0.0,0.0
5292,76.0,0.0,180.0,6.0,0.0
5293,80.0,96.0,90.0,5.0,0.0
5294,66.0,0.0,180.0,7.0,0.0
5295,66.0,24.0,180.0,2.0,0.0
5296,82.0,0.0,90.0,5.0,0.0
5297,82.0,984.0,90.0,0.0,0.0
5298,70.0,0.0,960.0,1.0,0.0
5299,52.0,0.0,960.0,4.0,0.0
5300,85.0,0.0,960.0,5.0,0.0
5301,66.0,0.0,1350.0,2.0,0.0
5302,64.0,0.0,960.0,3.0,0.0
5303,66.0,0.0,1350.0,7.0,0.0
5304,64.0,0.0,960.0,8.0,0.0
5305,52.0,144.0,960.0,10.0,0.0
5306,85.0,0.0,960.0,0.0,0.0
5307,70.0,0.0,960.0,6.0,0.0
5308,51.0,0.0,390.0,4.0,0.0
5309,63.0,0.0,390.0,8.0,0.0
5310,83.0,0.0,150.0,5.0,0.0
5311,71.0,0.0,390.0,6.0,0.0
5312,63.0,0.0,390.0,3.0,0.0
5313,83.0,240.0,150.0,0.0,0.0
5314,71.0,0.0,390.0,1.0,0.0
5315,51.0,0.0,390.0,10.0,0.0
5316,75.0,240.0,150.0,0.0,0.0
5317,75.0,0.0,150.0,5.0,0.0
5318,78.0,240.0,150.0,0.0,0.0
5319,78.0,0.0,150.0,5.0,0.0
5320,83.0,0.0,150.0,0.0,0.0
5321,83.0,288.0,150.0,5.0,0.0
5322,47.0,0.0,780.0,4.0,0.0
5323,87.0,0.0,300.0,5.0,0.0
5324,59.0,0.0,780.0,3.0,0.0
5325,59.0,144.0,780.0,8.0,0.0
5326,47.0,0.0,780.0,10.0,0.0
5327,68.0,0.0,180.0,7.0,0.0
5328,71.0,96.0,180.0,1.0,0.0
5329,68.0,0.0,180.0,2.0,0.0
5330,71.0,0.0,180.0,6.0,0.0
5331,87.0,144.0,300.0,0.0,0.0
5332,71.0,0.0,180.0,6.0,0.0
5333,68.0,0.0,180.0,7.0,0.0
5334,68.0,0.0,180.0,2.0,0.0
5335,71.0,240.0,180.0,1.0,0.0
5336,87.0,0.0,300.0,5.0,0.0
5337,67.0,96.0,180.0,2.0,0.0
5338,70.0,0.0,180.0,1.0,0.0
5339,70.0,0.0,180.0,6.0,0.0
5340,87.0,0.0,300.0,0.0,0.0
5341,67.0,0.0,180.0,7.0,0.0
5342,70.0,0.0,180.0,1.0,0.0
5343,70.0,0.0,180.0,6.0,0.0
5344,67.0,240.0,180.0,7.0,0.0
5345,67.0,0.0,180.0,2.0,0.0
5346,87.0,144.0,300.0,0.0,0.0
5347,71.0,0.0,180.0,6.0,0.0
5348,87.0,0.0,300.0,5.0,0.0
5349,71.0,96.0,180.0,1.0,0.0
5350,68.0,0.0,180.0,2.0,0.0
5351,68.0,0.0,180.0,7.0,0.0
5352,71.0,240.0,180.0,1.0,0.0
5353,68.0,0.0,180.0,2.0,0.0
5354,71.0,0.0,180.0,6.0,0.0
5355,68.0,0.0,180.0,7.0,0.0
5356,87.0,0.0,300.0,0.0,0.0
5357,87.0,144.0,300.0,5.0,0.0
5358,67.0,96.0,180.0,2.0,0.0
5359,70.0,0.0,180.0,6.0,0.0
5360,70.0,0.0,180.0,1.0,0.0
5361,67.0,0.0,180.0,7.0,0.0
5362,67.0,240.0,180.0,7.0,0.0
5363,67.0,0.0,180.0,2.0,0.0
5364,70.0,0.0,180.0,1.0,0.0
5365,70.0,0.0,180.0,6.0,0.0
5366,77.0,0.0,300.0,5.0,0.0
5367,61.0,0.0,360.0,8.0,0.0
5368,68.0,0.0,180.0,2.0,0.0
5369,49.0,72.0,360.0,4.0,0.0
5370,49.0,0.0,360.0,10.0,0.0
5371,77.0,72.0,300.0,0.0,0.0
5372,61.0,0.0,360.0,3.0,0.0
5373,68.0,0.0,180.0,7.0,0.0
5374,71.0,0.0,180.0,1.0,0.0
5375,71.0,96.0,180.0,6.0,0.0
5376,71.0,0.0,180.0,6.0,0.0
5377,68.0,0.0,180.0,7.0,0.0
5378,71.0,0.0,180.0,1.0,0.0
5379,68.0,112.0,180.0,2.0,0.0
5380,71.0,0.0,180.0,1.0,0.0
5381,68.0,32.0,180.0,7.0,0.0
5382,71.0,0.0,180.0,6.0,0.0
5383,68.0,0.0,180.0,2.0,0.0
5384,77.0,0.0,60.0,5.0,0.0
5385,77.0,80.0,60.0,0.0,0.0
5386,78.0,48.0,60.0,5.0,0.0
5387,78.0,0.0,60.0,0.0,0.0
5388,77.0,0.0,60.0,0.0,0.0
5389,77.0,112.0,60.0,5.0,0.0
5390,71.0,0.0,180.0,1.0,0.0
5391,75.0,96.0,90.0,0.0,0.0
5392,68.0,0.0,180.0,2.0,0.0
5393,71.0,24.0,180.0,6.0,0.0
5394,75.0,0.0,90.0,5.0,0.0
5395,68.0,0.0,180.0,7.0,0.0
5396,77.0,0.0,90.0,0.0,0.0
5397,77.0,216.0,90.0,5.0,0.0
5398,66.0,0.0,180.0,7.0,0.0
5399,70.0,96.0,180.0,1.0,0.0
5400,70.0,0.0,180.0,6.0,0.0
5401,51.0,0.0,360.0,4.0,0.0
5402,63.0,0.0,360.0,8.0,0.0
5403,63.0,72.0,360.0,3.0,0.0
5404,78.0,0.0,300.0,5.0,0.0
5405,78.0,72.0,300.0,0.0,0.0
5406,66.0,0.0,180.0,2.0,0.0
5407,51.0,0.0,360.0,10.0,0.0
5408,66.0,112.0,180.0,2.0,0.0
5409,66.0,0.0,180.0,7.0,0.0
5410,70.0,0.0,180.0,6.0,0.0
5411,70.0,0.0,180.0,1.0,0.0
5412,66.0,0.0,180.0,2.0,0.0
5413,70.0,32.0,180.0,1.0,0.0
5414,78.0,0.0,60.0,5.0,0.0
5415,70.0,0.0,180.0,6.0,0.0
5416,78.0,80.0,60.0,0.0,0.0
5417,66.0,0.0,180.0,7.0,0.0
5418,80.0,48.0,60.0,5.0,0.0
5419,80.0,0.0,60.0,0.0,0.0
5420,78.0,112.0,60.0,0.0,0.0
5421,78.0,0.0,60.0,5.0,0.0
5422,66.0,0.0,180.0,7.0,0.0
5423,77.0,96.0,90.0,0.0,0.0
5424,77.0,0.0,90.0,5.0,0.0
5425,66.0,0.0,180.0,2.0,0.0
5426,70.0,0.0,180.0,6.0,0.0
5427,70.0,24.0,180.0,1.0,0.0
5428,78.0,0.0,90.0,0.0,0.0
5429,78.0,216.0,90.0,5.0,0.0
5430,47.0,0.0,390.0,4.0,0.0
5431,83.0,96.0,300.0,5.0,0.0
5432,59.0,0.0,390.0,3.0,0.0
5433,47.0,48.0,390.0,10.0,0.0
5434,68.0,0.0,180.0,6.0,0.0
5435,83.0,0.0,300.0,0.0,0.0
5436,68.0,96.0,180.0,1.0,0.0
5437,63.0,0.0,180.0,7.0,0.0
5438,63.0,0.0,180.0,2.0,0.0
5439,59.0,0.0,390.0,8.0,0.0
5440,63.0,0.0,180.0,2.0,0.0
5441,68.0,0.0,180.0,6.0,0.0
5442,68.0,0.0,180.0,1.0,0.0
5443,63.0,240.0,180.0,7.0,0.0
5444,83.0,0.0,300.0,5.0,0.0
5445,63.0,0.0,180.0,2.0,0.0
5446,63.0,0.0,180.0,7.0,0.0
5447,68.0,0.0,180.0,6.0,0.0
5448,68.0,96.0,180.0,1.0,0.0
5449,83.0,144.0,300.0,0.0,0.0
5450,63.0,0.0,180.0,2.0,0.0
5451,68.0,0.0,180.0,6.0,0.0
5452,63.0,0.0,180.0,7.0,0.0
5453,68.0,240.0,180.0,1.0,0.0
5454,80.0,96.0,300.0,0.0,0.0
5455,61.0,96.0,180.0,7.0,0.0
5456,65.0,0.0,180.0,1.0,0.0
5457,49.0,0.0,390.0,10.0,0.0
5458,80.0,0.0,300.0,5.0,0.0
5459,49.0,48.0,390.0,4.0,0.0
5460,61.0,0.0,180.0,2.0,0.0
5461,61.0,0.0,390.0,8.0,0.0
5462,65.0,0.0,180.0,6.0,0.0
5463,61.0,0.0,390.0,3.0,0.0
5464,65.0,0.0,180.0,1.0,0.0
5465,65.0,0.0,180.0,6.0,0.0
5466,61.0,240.0,180.0,7.0,0.0
5467,61.0,0.0,180.0,2.0,0.0
5468,65.0,0.0,180.0,6.0,0.0
5469,80.0,144.0,300.0,0.0,0.0
5470,80.0,0.0,300.0,5.0,0.0
5471,65.0,0.0,180.0,1.0,0.0
5472,61.0,96.0,180.0,7.0,0.0
5473,61.0,0.0,180.0,2.0,0.0
5474,61.0,288.0,180.0,2.0,0.0
5475,65.0,0.0,180.0,1.0,0.0
5476,61.0,0.0,180.0,7.0,0.0
5477,65.0,0.0,180.0,6.0,0.0
5478,46.0,0.0,960.0,10.0,0.0
5479,85.0,240.0,1200.0,0.0,0.0
5480,66.0,0.0,240.0,1.0,0.0
5481,61.0,0.0,1200.0,7.0,0.0
5482,46.0,240.0,960.0,4.0,0.0
5483,61.0,0.0,1200.0,2.0,0.0
5484,58.0,0.0,960.0,8.0,0.0
5485,66.0,240.0,240.0,6.0,0.0
5486,58.0,0.0,960.0,3.0,0.0
5487,85.0,0.0,1200.0,5.0,0.0
5488,70.0,0.0,240.0,1.0,0.0
5489,70.0,240.0,240.0,6.0,0.0
5490,73.0,0.0,240.0,6.0,0.0
5491,73.0,192.0,240.0,1.0,0.0
5492,78.0,0.0,180.0,6.0,0.0
5493,78.0,48.0,180.0,1.0,0.0
5494,77.0,0.0,960.0,6.0,0.0
5495,56.0,0.0,960.0,3.0,0.0
5496,44.0,240.0,960.0,10.0,0.0
5497,77.0,0.0,960.0,1.0,0.0
5498,44.0,0.0,960.0,4.0,0.0
5499,56.0,0.0,960.0,8.0,0.0
5500,65.0,0.0,240.0,2.0,0.0
5501,87.0,240.0,240.0,5.0,0.0
5502,87.0,0.0,240.0,0.0,0.0
5503,65.0,0.0,240.0,7.0,0.0
5504,83.0,0.0,240.0,0.0,0.0
5505,68.0,192.0,240.0,7.0,0.0
5506,68.0,0.0,240.0,2.0,0.0
5507,83.0,0.0,240.0,5.0,0.0
5508,85.0,0.0,180.0,5.0,0.0
5509,61.0,48.0,180.0,2.0,0.0
5510,61.0,0.0,180.0,7.0,0.0
5511,85.0,0.0,180.0,0.0,0.0
5512,42.0,0.0,960.0,4.0,0.0
5513,73.0,0.0,1200.0,7.0,0.0
5514,54.0,0.0,960.0,8.0,0.0
5515,78.0,0.0,240.0,1.0,0.0
5516,78.0,240.0,240.0,6.0,0.0
5517,42.0,240.0,960.0,10.0,0.0
5518,82.0,0.0,1200.0,5.0,0.0
5519,54.0,0.0,960.0,3.0,0.0
5520,82.0,0.0,1200.0,0.0,0.0
5521,73.0,240.0,1200.0,2.0,0.0
5522,66.0,0.0,240.0,1.0,0.0
5523,66.0,240.0,240.0,6.0,0.0
5524,70.0,192.0,240.0,1.0,0.0
5525,70.0,0.0,240.0,6.0,0.0
5526,73.0,0.0,180.0,6.0,0.0
5527,73.0,48.0,180.0,1.0,0.0
5528,47.0,0.0,780.0,4.0,0.0
5529,75.0,0.0,960.0,1.0,0.0
5530,59.0,0.0,780.0,3.0,0.0
5531,75.0,240.0,960.0,6.0,0.0
5532,59.0,144.0,780.0,8.0,0.0
5533,47.0,0.0,780.0,10.0,0.0
5534,83.0,0.0,240.0,0.0,0.0
5535,75.0,240.0,240.0,7.0,0.0
5536,83.0,0.0,240.0,5.0,0.0
5537,75.0,0.0,240.0,2.0,0.0
5538,80.0,0.0,240.0,5.0,0.0
5539,71.0,48.0,240.0,2.0,0.0
5540,80.0,0.0,240.0,0.0,0.0
5541,71.0,0.0,240.0,7.0,0.0
5542,82.0,0.0,180.0,0.0,0.0
5543,73.0,48.0,180.0,7.0,0.0
5544,73.0,0.0,180.0,2.0,0.0
5545,82.0,0.0,180.0,5.0,0.0
5546,78.0,0.0,1200.0,0.0,0.0
5547,49.0,0.0,960.0,4.0,0.0
5548,73.0,0.0,240.0,1.0,0.0
5549,49.0,0.0,960.0,10.0,0.0
5550,70.0,0.0,1200.0,2.0,0.0
5551,73.0,240.0,240.0,6.0,0.0
5552,61.0,240.0,960.0,8.0,0.0
5553,70.0,0.0,1200.0,7.0,0.0
5554,61.0,0.0,960.0,3.0,0.0
5555,78.0,240.0,1200.0,5.0,0.0
5556,61.0,0.0,240.0,1.0,0.0
5557,61.0,240.0,240.0,6.0,0.0
5558,66.0,0.0,240.0,1.0,0.0
5559,66.0,192.0,240.0,6.0,0.0
5560,70.0,48.0,180.0,6.0,0.0
5561,70.0,0.0,180.0,1.0,0.0
5562,71.0,0.0,780.0,1.0,0.0
5563,37.0,0.0,780.0,10.0,0.0
5564,49.0,0.0,780.0,3.0,0.0
5565,49.0,144.0,780.0,8.0,0.0
5566,37.0,0.0,780.0,4.0,0.0
5567,71.0,0.0,780.0,6.0,0.0
5568,80.0,0.0,240.0,0.0,0.0
5569,80.0,0.0,240.0,5.0,0.0
5570,71.0,240.0,240.0,2.0,0.0
5571,71.0,0.0,240.0,7.0,0.0
5572,77.0,0.0,240.0,5.0,0.0
5573,77.0,48.0,240.0,0.0,0.0
5574,68.0,0.0,240.0,2.0,0.0
5575,68.0,0.0,240.0,7.0,0.0
5576,65.0,0.0,180.0,2.0,0.0
5577,73.0,0.0,180.0,5.0,0.0
5578,65.0,0.0,180.0,7.0,0.0
5579,73.0,192.0,180.0,0.0,0.0
5580,46.0,0.0,150.0,4.0,0.0
5581,85.0,0.0,240.0,5.0,0.0
5582,58.0,96.0,150.0,3.0,0.0
5583,85.0,0.0,240.0,0.0,0.0
5584,66.0,0.0,240.0,7.0,0.0
5585,73.0,0.0,240.0,6.0,0.0
5586,58.0,0.0,150.0,8.0,0.0
5587,73.0,156.0,240.0,1.0,0.0
5588,66.0,0.0,240.0,2.0,0.0
5589,46.0,0.0,150.0,10.0,0.0
5590,87.0,0.0,150.0,0.0,0.0
5591,46.0,0.0,180.0,10.0,0.0
5592,87.0,36.0,150.0,5.0,0.0
5593,73.0,204.0,180.0,2.0,0.0
5594,58.0,0.0,180.0,3.0,0.0
5595,46.0,0.0,180.0,4.0,0.0
5596,73.0,0.0,180.0,7.0,0.0
5597,58.0,0.0,180.0,8.0,0.0
5598,75.0,0.0,150.0,1.0,0.0
5599,75.0,0.0,150.0,6.0,0.0
5600,89.0,0.0,150.0,5.0,0.0
5601,77.0,36.0,150.0,1.0,0.0
5602,58.0,204.0,180.0,8.0,0.0
5603,73.0,0.0,180.0,7.0,0.0
5604,46.0,0.0,180.0,4.0,0.0
5605,89.0,0.0,150.0,0.0,0.0
5606,77.0,0.0,150.0,6.0,0.0
5607,73.0,0.0,180.0,2.0,0.0
5608,58.0,0.0,180.0,3.0,0.0
5609,46.0,0.0,180.0,10.0,0.0
5610,58.0,0.0,180.0,3.0,0.0
5611,90.0,0.0,150.0,0.0,0.0
5612,58.0,0.0,180.0,8.0,0.0
5613,78.0,0.0,150.0,1.0,0.0
5614,46.0,0.0,180.0,4.0,0.0
5615,73.0,0.0,180.0,2.0,0.0
5616,90.0,36.0,150.0,5.0,0.0
5617,78.0,0.0,150.0,6.0,0.0
5618,73.0,240.0,180.0,7.0,0.0
5619,46.0,0.0,180.0,10.0,0.0
5620,77.0,0.0,240.0,1.0,0.0
5621,77.0,0.0,240.0,6.0,0.0
5622,89.0,0.0,240.0,0.0,0.0
5623,56.0,0.0,180.0,3.0,0.0
5624,73.0,0.0,240.0,7.0,0.0
5625,73.0,0.0,240.0,2.0,0.0
5626,44.0,48.0,180.0,10.0,0.0
5627,89.0,156.0,240.0,5.0,0.0
5628,44.0,0.0,180.0,4.0,0.0
5629,56.0,0.0,180.0,8.0,0.0
5630,65.0,0.0,180.0,2.0,0.0
5631,65.0,204.0,180.0,7.0,0.0
5632,56.0,0.0,180.0,8.0,0.0
5633,87.0,0.0,150.0,0.0,0.0
5634,44.0,0.0,180.0,10.0,0.0
5635,44.0,0.0,180.0,4.0,0.0
5636,56.0,0.0,180.0,3.0,0.0
5637,75.0,0.0,150.0,1.0,0.0
5638,75.0,0.0,150.0,6.0,0.0
5639,87.0,36.0,150.0,5.0,0.0
5640,65.0,0.0,180.0,2.0,0.0
5641,73.0,0.0,150.0,6.0,0.0
5642,44.0,204.0,180.0,10.0,0.0
5643,56.0,0.0,180.0,3.0,0.0
5644,56.0,0.0,180.0,8.0,0.0
5645,85.0,0.0,150.0,5.0,0.0
5646,65.0,0.0,180.0,7.0,0.0
5647,85.0,0.0,150.0,0.0,0.0
5648,73.0,36.0,150.0,1.0,0.0
5649,44.0,0.0,180.0,4.0,0.0
5650,83.0,0.0,150.0,0.0,0.0
5651,65.0,0.0,180.0,2.0,0.0
5652,71.0,0.0,150.0,6.0,0.0
5653,56.0,0.0,180.0,8.0,0.0
5654,71.0,36.0,150.0,1.0,0.0
5655,44.0,0.0,180.0,10.0,0.0
5656,65.0,0.0,180.0,7.0,0.0
5657,83.0,0.0,150.0,5.0,0.0
5658,44.0,240.0,180.0,4.0,0.0
5659,56.0,0.0,180.0,3.0,0.0
5660,66.0,0.0,240.0,2.0,0.0
5661,66.0,0.0,240.0,7.0,0.0
5662,82.0,0.0,240.0,0.0,0.0
5663,54.0,0.0,180.0,3.0,0.0
5664,82.0,0.0,240.0,5.0,0.0
5665,70.0,0.0,240.0,6.0,0.0
5666,54.0,48.0,180.0,8.0,0.0
5667,42.0,0.0,180.0,4.0,0.0
5668,42.0,0.0,180.0,10.0,0.0
5669,70.0,156.0,240.0,1.0,0.0
5670,83.0,36.0,150.0,5.0,0.0
5671,42.0,204.0,180.0,4.0,0.0
5672,42.0,0.0,180.0,10.0,0.0
5673,83.0,0.0,150.0,0.0,0.0
5674,68.0,0.0,180.0,7.0,0.0
5675,54.0,0.0,180.0,3.0,0.0
5676,54.0,0.0,180.0,8.0,0.0
5677,71.0,0.0,150.0,1.0,0.0
5678,68.0,0.0,180.0,2.0,0.0
5679,71.0,0.0,150.0,6.0,0.0
5680,42.0,0.0,180.0,4.0,0.0
5681,85.0,36.0,150.0,5.0,0.0
5682,42.0,0.0,180.0,10.0,0.0
5683,70.0,0.0,180.0,2.0,0.0
5684,70.0,0.0,180.0,7.0,0.0
5685,73.0,0.0,150.0,1.0,0.0
5686,54.0,0.0,180.0,3.0,0.0
5687,54.0,204.0,180.0,8.0,0.0
5688,73.0,0.0,150.0,6.0,0.0
5689,85.0,0.0,150.0,0.0,0.0
5690,75.0,0.0,150.0,6.0,0.0
5691,54.0,0.0,180.0,3.0,0.0
5692,71.0,0.0,180.0,7.0,0.0
5693,42.0,240.0,180.0,10.0,0.0
5694,42.0,0.0,180.0,4.0,0.0
5695,75.0,0.0,150.0,1.0,0.0
5696,54.0,0.0,180.0,8.0,0.0
5697,87.0,0.0,150.0,5.0,0.0
5698,87.0,36.0,150.0,0.0,0.0
5699,71.0,0.0,180.0,2.0,0.0
5700,59.0,0.0,180.0,3.0,0.0
5701,70.0,0.0,240.0,7.0,0.0
5702,47.0,0.0,180.0,4.0,0.0
5703,85.0,0.0,240.0,5.0,0.0
5704,70.0,0.0,240.0,2.0,0.0
5705,59.0,48.0,180.0,8.0,0.0
5706,73.0,0.0,240.0,6.0,0.0
5707,73.0,0.0,240.0,1.0,0.0
5708,47.0,0.0,180.0,10.0,0.0
5709,85.0,156.0,240.0,0.0,0.0
5710,47.0,0.0,180.0,10.0,0.0
5711,83.0,0.0,150.0,5.0,0.0
5712,71.0,0.0,150.0,1.0,0.0
5713,59.0,0.0,180.0,8.0,0.0
5714,71.0,0.0,150.0,6.0,0.0
5715,68.0,0.0,180.0,2.0,0.0
5716,47.0,0.0,180.0,4.0,0.0
5717,68.0,204.0,180.0,7.0,0.0
5718,83.0,36.0,150.0,0.0,0.0
5719,59.0,0.0,180.0,3.0,0.0
5720,59.0,204.0,180.0,8.0,0.0
5721,70.0,0.0,150.0,6.0,0.0
5722,47.0,0.0,180.0,10.0,0.0
5723,47.0,0.0,180.0,4.0,0.0
5724,73.0,0.0,180.0,2.0,0.0
5725,73.0,0.0,180.0,7.0,0.0
5726,82.0,36.0,150.0,0.0,0.0
5727,70.0,0.0,150.0,1.0,0.0
5728,82.0,0.0,150.0,5.0,0.0
5729,59.0,0.0,180.0,3.0,0.0
5730,80.0,0.0,150.0,5.0,0.0
5731,71.0,0.0,180.0,2.0,0.0
5732,80.0,0.0,150.0,0.0,0.0
5733,68.0,36.0,150.0,6.0,0.0
5734,47.0,0.0,180.0,10.0,0.0
5735,47.0,240.0,180.0,4.0,0.0
5736,68.0,0.0,150.0,1.0,0.0
5737,71.0,0.0,180.0,7.0,0.0
5738,59.0,0.0,180.0,8.0,0.0
5739,59.0,0.0,180.0,3.0,0.0
5740,49.0,48.0,180.0,4.0,0.0
5741,68.0,0.0,240.0,6.0,0.0
5742,61.0,0.0,180.0,3.0,0.0
5743,71.0,0.0,240.0,2.0,0.0
5744,71.0,0.0,240.0,7.0,0.0
5745,80.0,0.0,240.0,0.0,0.0
5746,61.0,0.0,180.0,8.0,0.0
5747,68.0,156.0,240.0,1.0,0.0
5748,49.0,0.0,180.0,10.0,0.0
5749,80.0,0.0,240.0,5.0,0.0
5750,61.0,204.0,180.0,8.0,0.0
5751,78.0,36.0,150.0,5.0,0.0
5752,70.0,0.0,180.0,7.0,0.0
5753,66.0,0.0,150.0,6.0,0.0
5754,70.0,0.0,180.0,2.0,0.0
5755,61.0,0.0,180.0,3.0,0.0
5756,49.0,0.0,180.0,10.0,0.0
5757,78.0,0.0,150.0,0.0,0.0
5758,66.0,0.0,150.0,1.0,0.0
5759,49.0,0.0,180.0,4.0,0.0
5760,70.0,0.0,180.0,7.0,0.0
5761,61.0,0.0,180.0,8.0,0.0
5762,49.0,204.0,180.0,10.0,0.0
5763,78.0,0.0,150.0,0.0,0.0
5764,61.0,0.0,180.0,3.0,0.0
5765,70.0,0.0,180.0,2.0,0.0
5766,66.0,36.0,150.0,6.0,0.0
5767,78.0,0.0,150.0,5.0,0.0
5768,66.0,0.0,150.0,1.0,0.0
5769,49.0,0.0,180.0,4.0,0.0
5770,61.0,0.0,180.0,8.0,0.0
5771,61.0,240.0,180.0,3.0,0.0
5772,78.0,0.0,150.0,0.0,0.0
5773,70.0,0.0,180.0,7.0,0.0
5774,70.0,0.0,180.0,2.0,0.0
5775,66.0,0.0,150.0,1.0,0.0
5776,78.0,0.0,150.0,5.0,0.0
5777,66.0,36.0,150.0,6.0,0.0
5778,49.0,0.0,180.0,4.0,0.0
5779,49.0,0.0,180.0,10.0,0.0
5780,78.0,156.0,240.0,0.0,0.0
5781,70.0,0.0,240.0,2.0,0.0
5782,66.0,0.0,240.0,6.0,0.0
5783,78.0,0.0,240.0,5.0,0.0
5784,66.0,0.0,240.0,1.0,0.0
5785,70.0,0.0,240.0,7.0,0.0
5786,49.0,48.0,180.0,3.0,0.0
5787,37.0,0.0,180.0,10.0,0.0
5788,37.0,0.0,180.0,4.0,0.0
5789,49.0,0.0,180.0,8.0,0.0
5790,70.0,36.0,150.0,6.0,0.0
5791,37.0,0.0,180.0,4.0,0.0
5792,70.0,0.0,150.0,1.0,0.0
5793,73.0,0.0,180.0,2.0,0.0
5794,49.0,0.0,180.0,8.0,0.0
5795,82.0,0.0,150.0,5.0,0.0
5796,37.0,0.0,180.0,10.0,0.0
5797,49.0,0.0,180.0,3.0,0.0
5798,82.0,0.0,150.0,0.0,0.0
5799,73.0,204.0,180.0,7.0,0.0
5800,80.0,36.0,150.0,0.0,0.0
5801,71.0,0.0,180.0,2.0,0.0
5802,49.0,0.0,180.0,8.0,0.0
5803,49.0,0.0,180.0,3.0,0.0
5804,68.0,0.0,150.0,1.0,0.0
5805,37.0,204.0,180.0,4.0,0.0
5806,71.0,0.0,180.0,7.0,0.0
5807,37.0,0.0,180.0,10.0,0.0
5808,80.0,0.0,150.0,5.0,0.0
5809,68.0,0.0,150.0,6.0,0.0
5810,37.0,0.0,180.0,10.0,0.0
5811,49.0,204.0,180.0,8.0,0.0
5812,49.0,0.0,180.0,3.0,0.0
5813,68.0,0.0,180.0,7.0,0.0
5814,77.0,0.0,150.0,0.0,0.0
5815,77.0,36.0,150.0,5.0,0.0
5816,37.0,0.0,180.0,4.0,0.0
5817,65.0,0.0,150.0,6.0,0.0
5818,68.0,0.0,180.0,2.0,0.0
5819,65.0,0.0,150.0,1.0,0.0
5820,42.0,12.0,390.0,10.0,0.0
5821,66.0,0.0,180.0,7.0,0.0
5822,78.0,0.0,390.0,5.0,0.0
5823,66.0,0.0,150.0,6.0,0.0
5824,66.0,36.0,150.0,1.0,0.0
5825,78.0,0.0,390.0,0.0,0.0
5826,42.0,0.0,390.0,4.0,0.0
5827,66.0,192.0,180.0,2.0,0.0
5828,54.0,0.0,390.0,8.0,0.0
5829,54.0,0.0,390.0,3.0,0.0
5830,61.0,36.0,150.0,6.0,0.0
5831,58.0,0.0,180.0,2.0,0.0
5832,58.0,204.0,180.0,7.0,0.0
5833,61.0,0.0,150.0,1.0,0.0
5834,54.0,0.0,390.0,3.0,0.0
5835,42.0,0.0,390.0,4.0,0.0
5836,42.0,0.0,390.0,10.0,0.0
5837,58.0,0.0,180.0,7.0,0.0
5838,61.0,36.0,150.0,1.0,0.0
5839,54.0,12.0,390.0,8.0,0.0
5840,58.0,192.0,180.0,2.0,0.0
5841,61.0,0.0,150.0,6.0,0.0
5842,61.0,36.0,150.0,6.0,0.0
5843,61.0,0.0,150.0,1.0,0.0
5844,58.0,0.0,180.0,2.0,0.0
5845,58.0,204.0,180.0,7.0,0.0
5846,61.0,0.0,150.0,6.0,0.0
5847,61.0,36.0,150.0,1.0,0.0
5848,58.0,0.0,390.0,3.0,0.0
5849,46.0,0.0,390.0,10.0,0.0
5850,58.0,0.0,390.0,8.0,0.0
5851,58.0,0.0,180.0,2.0,0.0
5852,58.0,192.0,180.0,7.0,0.0
5853,46.0,12.0,390.0,4.0,0.0
5854,73.0,0.0,180.0,0.0,0.0
5855,61.0,0.0,150.0,6.0,0.0
5856,58.0,192.0,180.0,2.0,0.0
5857,58.0,0.0,180.0,7.0,0.0
5858,73.0,0.0,180.0,5.0,0.0
5859,61.0,36.0,150.0,1.0,0.0
5860,58.0,192.0,180.0,2.0,0.0
5861,49.0,0.0,390.0,10.0,0.0
5862,61.0,0.0,150.0,6.0,0.0
5863,49.0,12.0,390.0,4.0,0.0
5864,61.0,0.0,390.0,8.0,0.0
5865,61.0,0.0,390.0,3.0,0.0
5866,78.0,12.0,150.0,0.0,0.0
5867,78.0,0.0,150.0,5.0,0.0
5868,61.0,36.0,150.0,1.0,0.0
5869,58.0,0.0,180.0,7.0,0.0
5870,58.0,204.0,180.0,7.0,0.0
5871,61.0,0.0,150.0,6.0,0.0
5872,61.0,36.0,150.0,1.0,0.0
5873,82.0,0.0,150.0,0.0,0.0
5874,82.0,0.0,150.0,5.0,0.0
5875,58.0,0.0,180.0,2.0,0.0
5876,58.0,96.0,180.0,7.0,0.0
5877,54.0,0.0,390.0,10.0,0.0
5878,58.0,0.0,180.0,2.0,0.0
5879,85.0,0.0,300.0,0.0,0.0
5880,54.0,0.0,390.0,4.0,0.0
5881,61.0,36.0,150.0,6.0,0.0
5882,66.0,12.0,390.0,8.0,0.0
5883,61.0,0.0,150.0,1.0,0.0
5884,85.0,96.0,300.0,5.0,0.0
5885,66.0,0.0,390.0,3.0,0.0
5886,58.0,0.0,180.0,2.0,0.0
5887,61.0,36.0,150.0,6.0,0.0
5888,58.0,204.0,180.0,7.0,0.0
5889,61.0,0.0,150.0,1.0,0.0
5890,66.0,0.0,150.0,6.0,0.0
5891,54.0,0.0,390.0,3.0,0.0
5892,42.0,0.0,390.0,10.0,0.0
5893,58.0,0.0,180.0,2.0,0.0
5894,85.0,96.0,300.0,5.0,0.0
5895,85.0,0.0,300.0,0.0,0.0
5896,54.0,0.0,390.0,8.0,0.0
5897,42.0,12.0,390.0,4.0,0.0
5898,58.0,96.0,180.0,7.0,0.0
5899,66.0,36.0,150.0,1.0,0.0
5900,58.0,204.0,180.0,7.0,0.0
5901,66.0,0.0,150.0,6.0,0.0
5902,58.0,0.0,180.0,2.0,0.0
5903,66.0,36.0,150.0,1.0,0.0
5904,65.0,36.0,150.0,6.0,0.0
5905,65.0,0.0,150.0,1.0,0.0
5906,58.0,0.0,180.0,2.0,0.0
5907,58.0,96.0,180.0,7.0,0.0
5908,85.0,108.0,300.0,5.0,0.0
5909,85.0,0.0,300.0,0.0,0.0
5910,58.0,0.0,180.0,2.0,0.0
5911,58.0,204.0,180.0,7.0,0.0
5912,65.0,36.0,150.0,1.0,0.0
5913,65.0,0.0,150.0,6.0,0.0
5914,58.0,0.0,180.0,7.0,0.0
5915,85.0,0.0,300.0,0.0,0.0
5916,64.0,0.0,150.0,1.0,0.0
5917,85.0,108.0,300.0,5.0,0.0
5918,64.0,36.0,150.0,6.0,0.0
5919,58.0,96.0,180.0,2.0,0.0
5920,58.0,204.0,180.0,2.0,0.0
5921,58.0,0.0,180.0,7.0,0.0
5922,64.0,0.0,150.0,6.0,0.0
5923,64.0,36.0,150.0,1.0,0.0
5924,63.0,0.0,150.0,1.0,0.0
5925,75.0,0.0,390.0,0.0,0.0
5926,59.0,0.0,180.0,7.0,0.0
5927,63.0,36.0,150.0,6.0,0.0
5928,59.0,192.0,180.0,2.0,0.0
5929,75.0,12.0,390.0,5.0,0.0
5930,63.0,36.0,150.0,6.0,0.0
5931,59.0,0.0,180.0,7.0,0.0
5932,63.0,0.0,150.0,1.0,0.0
5933,59.0,204.0,180.0,2.0,0.0
5934,54.0,0.0,390.0,3.0,0.0
5935,54.0,12.0,390.0,8.0,0.0
5936,42.0,0.0,390.0,4.0,0.0
5937,59.0,0.0,180.0,2.0,0.0
5938,59.0,192.0,180.0,7.0,0.0
5939,42.0,0.0,390.0,10.0,0.0
5940,63.0,36.0,150.0,1.0,0.0
5941,63.0,0.0,150.0,6.0,0.0
5942,63.0,0.0,150.0,1.0,0.0
5943,63.0,36.0,150.0,6.0,0.0
5944,59.0,0.0,180.0,7.0,0.0
5945,59.0,204.0,180.0,2.0,0.0
5946,47.0,0.0,390.0,10.0,0.0
5947,59.0,0.0,180.0,2.0,0.0
5948,59.0,0.0,390.0,8.0,0.0
5949,47.0,0.0,390.0,4.0,0.0
5950,59.0,192.0,180.0,7.0,0.0
5951,63.0,36.0,150.0,1.0,0.0
5952,63.0,0.0,150.0,6.0,0.0
5953,59.0,12.0,390.0,3.0,0.0
5954,59.0,192.0,180.0,2.0,0.0
5955,63.0,0.0,150.0,6.0,0.0
5956,63.0,36.0,150.0,1.0,0.0
5957,75.0,0.0,150.0,5.0,0.0
5958,75.0,0.0,150.0,0.0,0.0
5959,59.0,0.0,180.0,7.0,0.0
5960,63.0,36.0,150.0,6.0,0.0
5961,59.0,192.0,180.0,7.0,0.0
5962,78.0,0.0,150.0,5.0,0.0
5963,59.0,0.0,180.0,2.0,0.0
5964,51.0,0.0,390.0,10.0,0.0
5965,51.0,0.0,390.0,4.0,0.0
5966,63.0,0.0,390.0,8.0,0.0
5967,78.0,12.0,150.0,0.0,0.0
5968,63.0,0.0,150.0,1.0,0.0
5969,63.0,12.0,390.0,3.0,0.0
5970,83.0,0.0,150.0,5.0,0.0
5971,63.0,0.0,150.0,1.0,0.0
5972,83.0,0.0,150.0,0.0,0.0
5973,59.0,0.0,180.0,2.0,0.0
5974,63.0,36.0,150.0,6.0,0.0
5975,59.0,204.0,180.0,7.0,0.0
5976,87.0,96.0,300.0,0.0,0.0
5977,54.0,0.0,390.0,4.0,0.0
5978,63.0,0.0,150.0,1.0,0.0
5979,66.0,0.0,390.0,8.0,0.0
5980,59.0,96.0,180.0,7.0,0.0
5981,54.0,0.0,390.0,10.0,0.0
5982,59.0,0.0,180.0,2.0,0.0
5983,87.0,0.0,300.0,5.0,0.0
5984,66.0,12.0,390.0,3.0,0.0
5985,63.0,36.0,150.0,6.0,0.0
5986,63.0,36.0,150.0,6.0,0.0
5987,63.0,0.0,150.0,1.0,0.0
5988,59.0,204.0,180.0,2.0,0.0
5989,59.0,0.0,180.0,7.0,0.0
5990,87.0,0.0,300.0,0.0,0.0
5991,42.0,0.0,390.0,4.0,0.0
5992,54.0,0.0,390.0,8.0,0.0
5993,66.0,0.0,180.0,2.0,0.0
5994,42.0,12.0,390.0,10.0,0.0
5995,75.0,36.0,150.0,6.0,0.0
5996,87.0,96.0,300.0,5.0,0.0
5997,66.0,96.0,180.0,7.0,0.0
5998,75.0,0.0,150.0,1.0,0.0
5999,54.0,0.0,390.0,3.0,0.0
6000,75.0,0.0,150.0,6.0,0.0
6001,66.0,204.0,180.0,7.0,0.0
6002,75.0,36.0,150.0,1.0,0.0
6003,66.0,0.0,180.0,2.0,0.0
6004,64.0,96.0,180.0,2.0,0.0
6005,73.0,36.0,150.0,6.0,0.0
6006,87.0,0.0,300.0,0.0,0.0
6007,64.0,0.0,180.0,7.0,0.0
6008,73.0,0.0,150.0,1.0,0.0
6009,87.0,108.0,300.0,5.0,0.0
6010,64.0,204.0,180.0,7.0,0.0
6011,73.0,0.0,150.0,1.0,0.0
6012,73.0,36.0,150.0,6.0,0.0
6013,64.0,0.0,180.0,2.0,0.0
6014,63.0,96.0,180.0,2.0,0.0
6015,87.0,0.0,300.0,5.0,0.0
6016,63.0,0.0,180.0,7.0,0.0
6017,87.0,108.0,300.0,0.0,0.0
6018,71.0,0.0,150.0,6.0,0.0
6019,71.0,36.0,150.0,1.0,0.0
6020,71.0,0.0,150.0,6.0,0.0
6021,71.0,36.0,150.0,1.0,0.0
6022,63.0,204.0,180.0,7.0,0.0
6023,63.0,0.0,180.0,2.0,0.0
6024,61.0,0.0,180.0,2.0,0.0
6025,76.0,0.0,390.0,0.0,0.0
6026,76.0,12.0,390.0,5.0,0.0
6027,70.0,0.0,150.0,6.0,0.0
6028,61.0,192.0,180.0,7.0,0.0
6029,70.0,36.0,150.0,1.0,0.0
6030,70.0,36.0,150.0,1.0,0.0
6031,61.0,0.0,180.0,7.0,0.0
6032,70.0,0.0,150.0,6.0,0.0
6033,61.0,204.0,180.0,2.0,0.0
6034,70.0,0.0,150.0,6.0,0.0
6035,54.0,0.0,390.0,8.0,0.0
6036,61.0,192.0,180.0,7.0,0.0
6037,54.0,0.0,390.0,3.0,0.0
6038,61.0,0.0,180.0,2.0,0.0
6039,70.0,36.0,150.0,1.0,0.0
6040,42.0,0.0,390.0,4.0,0.0
6041,42.0,12.0,390.0,10.0,0.0
6042,61.0,204.0,180.0,2.0,0.0
6043,70.0,36.0,150.0,6.0,0.0
6044,70.0,0.0,150.0,1.0,0.0
6045,61.0,0.0,180.0,7.0,0.0
6046,61.0,192.0,180.0,2.0,0.0
6047,70.0,0.0,150.0,1.0,0.0
6048,46.0,0.0,390.0,4.0,0.0
6049,70.0,36.0,150.0,6.0,0.0
6050,46.0,0.0,390.0,10.0,0.0
6051,61.0,0.0,180.0,7.0,0.0
6052,58.0,0.0,390.0,8.0,0.0
6053,58.0,0.0,390.0,3.0,0.0
6054,70.0,0.0,150.0,6.0,0.0
6055,70.0,36.0,150.0,1.0,0.0
6056,61.0,0.0,180.0,7.0,0.0
6057,61.0,192.0,180.0,2.0,0.0
6058,76.0,0.0,150.0,0.0,0.0
6059,76.0,12.0,150.0,5.0,0.0
6060,82.0,12.0,150.0,0.0,0.0
6061,61.0,0.0,390.0,8.0,0.0
6062,49.0,0.0,390.0,10.0,0.0
6063,70.0,36.0,150.0,1.0,0.0
6064,82.0,0.0,150.0,5.0,0.0
6065,61.0,0.0,180.0,7.0,0.0
6066,49.0,0.0,390.0,4.0,0.0
6067,61.0,192.0,180.0,2.0,0.0
6068,61.0,0.0,390.0,3.0,0.0
6069,70.0,0.0,150.0,6.0,0.0
6070,61.0,204.0,180.0,7.0,0.0
6071,70.0,0.0,150.0,1.0,0.0
6072,85.0,12.0,150.0,0.0,0.0
6073,85.0,0.0,150.0,5.0,0.0
6074,61.0,0.0,180.0,2.0,0.0
6075,70.0,36.0,150.0,6.0,0.0
6076,88.0,96.0,300.0,0.0,0.0
6077,66.0,0.0,180.0,7.0,0.0
6078,66.0,0.0,390.0,8.0,0.0
6079,66.0,96.0,180.0,2.0,0.0
6080,88.0,0.0,300.0,5.0,0.0
6081,70.0,36.0,150.0,1.0,0.0
6082,70.0,0.0,150.0,6.0,0.0
6083,66.0,0.0,390.0,3.0,0.0
6084,54.0,0.0,390.0,10.0,0.0
6085,54.0,12.0,390.0,4.0,0.0
6086,70.0,36.0,150.0,6.0,0.0
6087,66.0,204.0,180.0,7.0,0.0
6088,66.0,0.0,180.0,2.0,0.0
6089,70.0,0.0,150.0,1.0,0.0
6090,71.0,0.0,150.0,1.0,0.0
6091,54.0,0.0,390.0,3.0,0.0
6092,68.0,0.0,180.0,2.0,0.0
6093,68.0,96.0,180.0,7.0,0.0
6094,42.0,12.0,390.0,10.0,0.0
6095,71.0,36.0,150.0,6.0,0.0
6096,42.0,0.0,390.0,4.0,0.0
6097,88.0,96.0,300.0,5.0,0.0
6098,88.0,0.0,300.0,0.0,0.0
6099,54.0,0.0,390.0,8.0,0.0
6100,71.0,0.0,150.0,1.0,0.0
6101,68.0,0.0,180.0,2.0,0.0
6102,68.0,204.0,180.0,7.0,0.0
6103,71.0,36.0,150.0,6.0,0.0
6104,88.0,0.0,300.0,0.0,0.0
6105,73.0,0.0,150.0,6.0,0.0
6106,73.0,36.0,150.0,1.0,0.0
6107,88.0,108.0,300.0,5.0,0.0
6108,70.0,96.0,180.0,7.0,0.0
6109,70.0,0.0,180.0,2.0,0.0
6110,70.0,204.0,180.0,2.0,0.0
6111,73.0,0.0,150.0,1.0,0.0
6112,73.0,36.0,150.0,6.0,0.0
6113,70.0,0.0,180.0,7.0,0.0
6114,71.0,96.0,180.0,7.0,0.0
6115,88.0,0.0,300.0,0.0,0.0
6116,75.0,0.0,150.0,6.0,0.0
6117,75.0,36.0,150.0,1.0,0.0
6118,71.0,0.0,180.0,2.0,0.0
6119,88.0,108.0,300.0,5.0,0.0
6120,71.0,0.0,180.0,2.0,0.0
6121,75.0,36.0,150.0,6.0,0.0
6122,71.0,432.0,180.0,7.0,0.0
6123,75.0,0.0,150.0,1.0,0.0
6124,78.0,0.0,390.0,5.0,0.0
6125,70.0,0.0,390.0,2.0,0.0
6126,73.0,0.0,390.0,2.0,0.0
6127,73.0,0.0,390.0,7.0,0.0
6128,70.0,0.0,390.0,7.0,0.0
6129,78.0,0.0,390.0,0.0,0.0
6130,76.0,972.0,390.0,6.0,0.0
6131,76.0,0.0,390.0,1.0,0.0
6132,66.0,0.0,150.0,2.0,0.0
6133,66.0,0.0,150.0,7.0,0.0
6134,66.0,0.0,150.0,6.0,0.0
6135,54.0,0.0,150.0,8.0,0.0
6136,42.0,0.0,150.0,4.0,0.0
6137,66.0,0.0,150.0,5.0,0.0
6138,66.0,0.0,150.0,1.0,0.0
6139,42.0,0.0,150.0,10.0,0.0
6140,54.0,240.0,150.0,3.0,0.0
6141,66.0,0.0,150.0,0.0,0.0
6142,70.0,0.0,150.0,5.0,0.0
6143,58.0,0.0,150.0,3.0,0.0
6144,70.0,0.0,150.0,0.0,0.0
6145,70.0,240.0,150.0,2.0,0.0
6146,70.0,0.0,150.0,1.0,0.0
6147,46.0,0.0,150.0,10.0,0.0
6148,70.0,0.0,150.0,6.0,0.0
6149,58.0,0.0,150.0,8.0,0.0
6150,46.0,0.0,150.0,4.0,0.0
6151,70.0,0.0,150.0,7.0,0.0
6152,61.0,0.0,150.0,8.0,0.0
6153,49.0,396.0,150.0,4.0,0.0
6154,73.0,0.0,150.0,6.0,0.0
6155,73.0,0.0,150.0,1.0,0.0
6156,73.0,0.0,150.0,5.0,0.0
6157,49.0,0.0,150.0,10.0,0.0
6158,73.0,0.0,150.0,0.0,0.0
6159,73.0,0.0,150.0,2.0,0.0
6160,61.0,0.0,150.0,3.0,0.0
6161,73.0,0.0,150.0,7.0,0.0
6162,76.0,0.0,300.0,7.0,0.0
6163,76.0,480.0,300.0,0.0,0.0
6164,76.0,0.0,300.0,1.0,0.0
6165,76.0,0.0,300.0,2.0,0.0
6166,64.0,0.0,300.0,8.0,0.0
6167,64.0,0.0,300.0,3.0,0.0
6168,52.0,0.0,300.0,10.0,0.0
6169,76.0,0.0,300.0,5.0,0.0
6170,76.0,0.0,300.0,6.0,0.0
6171,52.0,0.0,300.0,4.0,0.0
6172,76.0,0.0,300.0,7.0,0.0
6173,52.0,0.0,300.0,4.0,0.0
6174,76.0,0.0,300.0,6.0,0.0
6175,76.0,0.0,300.0,5.0,0.0
6176,64.0,0.0,300.0,3.0,0.0
6177,76.0,0.0,300.0,2.0,0.0
6178,52.0,0.0,300.0,10.0,0.0
6179,76.0,480.0,300.0,0.0,0.0
6180,64.0,0.0,300.0,8.0,0.0
6181,76.0,0.0,300.0,1.0,0.0
6182,76.0,0.0,300.0,6.0,0.0
6183,52.0,0.0,300.0,10.0,0.0
6184,76.0,0.0,300.0,7.0,0.0
6185,64.0,0.0,300.0,8.0,0.0
6186,76.0,0.0,300.0,2.0,0.0
6187,52.0,0.0,300.0,4.0,0.0
6188,76.0,0.0,300.0,0.0,0.0
6189,76.0,480.0,300.0,1.0,0.0
6190,76.0,0.0,300.0,5.0,0.0
6191,64.0,0.0,300.0,3.0,0.0
6192,76.0,0.0,300.0,5.0,0.0
6193,76.0,0.0,300.0,6.0,0.0
6194,76.0,552.0,300.0,2.0,0.0
6195,52.0,0.0,300.0,4.0,0.0
6196,64.0,0.0,300.0,3.0,0.0
6197,76.0,0.0,300.0,1.0,0.0
6198,52.0,0.0,300.0,10.0,0.0
6199,76.0,0.0,300.0,0.0,0.0
6200,64.0,0.0,300.0,8.0,0.0
6201,76.0,0.0,300.0,7.0,0.0
6202,43.0,0.0,390.0,10.0,0.0
6203,67.0,0.0,390.0,0.0,0.0
6204,43.0,960.0,390.0,4.0,0.0
6205,55.0,0.0,390.0,8.0,0.0
6206,67.0,0.0,390.0,6.0,0.0
6207,67.0,0.0,390.0,2.0,0.0
6208,67.0,0.0,390.0,1.0,0.0
6209,67.0,0.0,390.0,5.0,0.0
6210,55.0,0.0,390.0,3.0,0.0
6211,67.0,0.0,390.0,7.0,0.0
6212,74.0,240.0,150.0,5.0,0.0
6213,74.0,0.0,150.0,0.0,0.0
6214,79.0,240.0,150.0,5.0,0.0
6215,79.0,0.0,150.0,0.0,0.0
6216,83.0,0.0,150.0,5.0,0.0
6217,83.0,288.0,150.0,0.0,0.0
6218,86.0,0.0,300.0,5.0,0.0
6219,86.0,144.0,300.0,0.0,0.0
6220,43.0,0.0,780.0,4.0,0.0
6221,55.0,0.0,780.0,8.0,0.0
6222,55.0,0.0,180.0,2.0,0.0
6223,43.0,0.0,780.0,10.0,0.0
6224,55.0,144.0,780.0,3.0,0.0
6225,59.0,0.0,180.0,1.0,0.0
6226,59.0,96.0,180.0,6.0,0.0
6227,55.0,0.0,180.0,7.0,0.0
6228,55.0,0.0,180.0,7.0,0.0
6229,55.0,0.0,180.0,2.0,0.0
6230,59.0,240.0,180.0,6.0,0.0
6231,59.0,0.0,180.0,1.0,0.0
6232,86.0,0.0,300.0,0.0,0.0
6233,62.0,0.0,180.0,1.0,0.0
6234,59.0,96.0,180.0,2.0,0.0
6235,62.0,0.0,180.0,6.0,0.0
6236,59.0,0.0,180.0,7.0,0.0
6237,86.0,0.0,300.0,5.0,0.0
6238,59.0,0.0,180.0,7.0,0.0
6239,62.0,0.0,180.0,1.0,0.0
6240,59.0,240.0,180.0,2.0,0.0
6241,62.0,0.0,180.0,6.0,0.0
6242,67.0,0.0,180.0,6.0,0.0
6243,86.0,144.0,300.0,5.0,0.0
6244,62.0,0.0,180.0,2.0,0.0
6245,67.0,96.0,180.0,1.0,0.0
6246,62.0,0.0,180.0,7.0,0.0
6247,86.0,0.0,300.0,0.0,0.0
6248,67.0,0.0,180.0,6.0,0.0
6249,62.0,0.0,180.0,7.0,0.0
6250,67.0,0.0,180.0,1.0,0.0
6251,62.0,240.0,180.0,2.0,0.0
6252,71.0,96.0,180.0,6.0,0.0
6253,71.0,0.0,180.0,1.0,0.0
6254,86.0,144.0,300.0,0.0,0.0
6255,67.0,0.0,180.0,2.0,0.0
6256,67.0,0.0,180.0,7.0,0.0
6257,86.0,0.0,300.0,5.0,0.0
6258,67.0,0.0,180.0,2.0,0.0
6259,67.0,0.0,180.0,7.0,0.0
6260,71.0,240.0,180.0,6.0,0.0
6261,71.0,0.0,180.0,1.0,0.0
6262,72.0,96.0,180.0,1.0,0.0
6263,69.0,0.0,180.0,2.0,0.0
6264,38.0,0.0,360.0,10.0,0.0
6265,38.0,72.0,360.0,4.0,0.0
6266,78.0,0.0,300.0,0.0,0.0
6267,69.0,0.0,180.0,7.0,0.0
6268,78.0,72.0,300.0,5.0,0.0
6269,50.0,0.0,360.0,3.0,0.0
6270,72.0,0.0,180.0,6.0,0.0
6271,50.0,0.0,360.0,8.0,0.0
6272,69.0,0.0,180.0,2.0,0.0
6273,69.0,240.0,180.0,7.0,0.0
6274,72.0,0.0,180.0,6.0,0.0
6275,72.0,0.0,180.0,1.0,0.0
6276,72.0,96.0,180.0,1.0,0.0
6277,78.0,144.0,300.0,5.0,0.0
6278,78.0,0.0,300.0,0.0,0.0
6279,69.0,0.0,180.0,7.0,0.0
6280,69.0,0.0,180.0,2.0,0.0
6281,72.0,0.0,180.0,6.0,0.0
6282,69.0,0.0,180.0,7.0,0.0
6283,69.0,240.0,180.0,2.0,0.0
6284,72.0,0.0,180.0,6.0,0.0
6285,72.0,0.0,180.0,1.0,0.0
6286,43.0,0.0,360.0,4.0,0.0
6287,67.0,96.0,180.0,2.0,0.0
6288,79.0,0.0,300.0,5.0,0.0
6289,79.0,72.0,300.0,0.0,0.0
6290,67.0,0.0,180.0,7.0,0.0
6291,55.0,0.0,360.0,3.0,0.0
6292,71.0,0.0,180.0,6.0,0.0
6293,43.0,72.0,360.0,10.0,0.0
6294,55.0,0.0,360.0,8.0,0.0
6295,71.0,0.0,180.0,1.0,0.0
6296,71.0,0.0,180.0,6.0,0.0
6297,67.0,128.0,180.0,2.0,0.0
6298,71.0,0.0,180.0,1.0,0.0
6299,67.0,0.0,180.0,7.0,0.0
6300,67.0,0.0,180.0,2.0,0.0
6301,79.0,0.0,90.0,5.0,0.0
6302,71.0,0.0,180.0,1.0,0.0
6303,71.0,0.0,180.0,6.0,0.0
6304,79.0,80.0,90.0,0.0,0.0
6305,67.0,48.0,180.0,7.0,0.0
6306,81.0,0.0,90.0,0.0,0.0
6307,81.0,32.0,90.0,5.0,0.0
6308,79.0,0.0,90.0,5.0,0.0
6309,79.0,120.0,90.0,0.0,0.0
6310,67.0,0.0,180.0,2.0,0.0
6311,71.0,0.0,180.0,1.0,0.0
6312,71.0,48.0,180.0,6.0,0.0
6313,78.0,0.0,120.0,5.0,0.0
6314,67.0,0.0,180.0,7.0,0.0
6315,78.0,72.0,120.0,0.0,0.0
6316,79.0,192.0,120.0,5.0,0.0
6317,79.0,0.0,120.0,0.0,0.0
6318,54.0,72.0,360.0,3.0,0.0
6319,84.0,72.0,300.0,0.0,0.0
6320,84.0,0.0,300.0,5.0,0.0
6321,42.0,0.0,360.0,4.0,0.0
6322,62.0,0.0,180.0,2.0,0.0
6323,69.0,0.0,180.0,1.0,0.0
6324,62.0,96.0,180.0,7.0,0.0
6325,42.0,0.0,360.0,10.0,0.0
6326,54.0,0.0,360.0,8.0,0.0
6327,69.0,0.0,180.0,6.0,0.0
6328,62.0,240.0,180.0,2.0,0.0
6329,62.0,0.0,180.0,7.0,0.0
6330,69.0,0.0,180.0,1.0,0.0
6331,69.0,0.0,180.0,6.0,0.0
6332,62.0,96.0,180.0,2.0,0.0
6333,69.0,0.0,180.0,1.0,0.0
6334,84.0,144.0,300.0,0.0,0.0
6335,84.0,0.0,300.0,5.0,0.0
6336,62.0,0.0,180.0,7.0,0.0
6337,69.0,0.0,180.0,6.0,0.0
6338,62.0,0.0,180.0,2.0,0.0
6339,69.0,0.0,180.0,1.0,0.0
6340,62.0,240.0,180.0,7.0,0.0
6341,69.0,0.0,180.0,6.0,0.0
6342,55.0,0.0,360.0,8.0,0.0
6343,62.0,0.0,180.0,2.0,0.0
6344,43.0,0.0,360.0,10.0,0.0
6345,83.0,0.0,300.0,5.0,0.0
6346,83.0,72.0,300.0,0.0,0.0
6347,55.0,0.0,360.0,3.0,0.0
6348,62.0,0.0,180.0,7.0,0.0
6349,67.0,0.0,180.0,1.0,0.0
6350,43.0,72.0,360.0,4.0,0.0
6351,67.0,96.0,180.0,6.0,0.0
6352,67.0,240.0,180.0,1.0,0.0
6353,62.0,0.0,180.0,2.0,0.0
6354,67.0,0.0,180.0,6.0,0.0
6355,62.0,0.0,180.0,7.0,0.0
6356,62.0,96.0,180.0,2.0,0.0
6357,62.0,0.0,180.0,7.0,0.0
6358,83.0,0.0,300.0,0.0,0.0
6359,67.0,0.0,180.0,6.0,0.0
6360,83.0,144.0,300.0,5.0,0.0
6361,67.0,0.0,180.0,1.0,0.0
6362,67.0,0.0,180.0,1.0,0.0
6363,62.0,240.0,180.0,2.0,0.0
6364,67.0,0.0,180.0,6.0,0.0
6365,62.0,0.0,180.0,7.0,0.0
6366,38.0,0.0,390.0,10.0,0.0
6367,66.0,0.0,180.0,1.0,0.0
6368,50.0,0.0,390.0,3.0,0.0
6369,62.0,0.0,180.0,2.0,0.0
6370,66.0,192.0,180.0,6.0,0.0
6371,50.0,0.0,390.0,8.0,0.0
6372,38.0,48.0,390.0,4.0,0.0
6373,81.0,0.0,390.0,0.0,0.0
6374,81.0,0.0,390.0,5.0,0.0
6375,62.0,0.0,180.0,7.0,0.0
6376,67.0,0.0,180.0,2.0,0.0
6377,67.0,240.0,180.0,7.0,0.0
6378,71.0,0.0,180.0,1.0,0.0
6379,71.0,0.0,180.0,6.0,0.0
6380,69.0,0.0,180.0,6.0,0.0
6381,66.0,0.0,180.0,2.0,0.0
6382,69.0,240.0,180.0,1.0,0.0
6383,66.0,0.0,180.0,7.0,0.0
6384,64.0,0.0,180.0,2.0,0.0
6385,67.0,0.0,180.0,1.0,0.0
6386,64.0,240.0,180.0,7.0,0.0
6387,67.0,0.0,180.0,6.0,0.0
6388,62.0,0.0,180.0,7.0,0.0
6389,66.0,0.0,180.0,1.0,0.0
6390,66.0,0.0,180.0,6.0,0.0
6391,62.0,240.0,180.0,2.0,0.0
6392,74.0,0.0,180.0,0.0,0.0
6393,60.0,0.0,180.0,7.0,0.0
6394,74.0,240.0,180.0,5.0,0.0
6395,64.0,0.0,180.0,1.0,0.0
6396,60.0,0.0,180.0,2.0,0.0
6397,64.0,0.0,180.0,6.0,0.0
6398,59.0,0.0,180.0,7.0,0.0
6399,79.0,0.0,180.0,0.0,0.0
6400,79.0,0.0,180.0,5.0,0.0
6401,62.0,0.0,180.0,1.0,0.0
6402,62.0,0.0,180.0,6.0,0.0
6403,59.0,240.0,180.0,2.0,0.0
6404,83.0,0.0,180.0,0.0,0.0
6405,57.0,0.0,180.0,7.0,0.0
6406,60.0,0.0,180.0,6.0,0.0
6407,60.0,0.0,180.0,1.0,0.0
6408,57.0,0.0,180.0,2.0,0.0
6409,83.0,240.0,180.0,5.0,0.0
6410,55.0,0.0,780.0,3.0,0.0
6411,59.0,0.0,180.0,1.0,0.0
6412,86.0,0.0,300.0,0.0,0.0
6413,59.0,0.0,180.0,6.0,0.0
6414,86.0,144.0,300.0,5.0,0.0
6415,55.0,0.0,180.0,7.0,0.0
6416,43.0,0.0,780.0,4.0,0.0
6417,55.0,96.0,180.0,2.0,0.0
6418,43.0,0.0,780.0,10.0,0.0
6419,55.0,0.0,780.0,8.0,0.0
6420,55.0,0.0,180.0,2.0,0.0
6421,59.0,0.0,180.0,6.0,0.0
6422,59.0,0.0,180.0,1.0,0.0
6423,55.0,240.0,180.0,7.0,0.0
6424,62.0,0.0,180.0,1.0,0.0
6425,86.0,0.0,300.0,5.0,0.0
6426,59.0,0.0,180.0,2.0,0.0
6427,59.0,0.0,180.0,7.0,0.0
6428,86.0,144.0,300.0,0.0,0.0
6429,62.0,96.0,180.0,6.0,0.0
6430,59.0,0.0,180.0,2.0,0.0
6431,62.0,0.0,180.0,6.0,0.0
6432,59.0,240.0,180.0,7.0,0.0
6433,62.0,0.0,180.0,1.0,0.0
6434,62.0,96.0,180.0,7.0,0.0
6435,67.0,0.0,180.0,1.0,0.0
6436,67.0,0.0,180.0,6.0,0.0
6437,86.0,144.0,300.0,0.0,0.0
6438,86.0,0.0,300.0,5.0,0.0
6439,62.0,0.0,180.0,2.0,0.0
6440,67.0,0.0,180.0,6.0,0.0
6441,62.0,0.0,180.0,2.0,0.0
6442,67.0,0.0,180.0,1.0,0.0
6443,62.0,240.0,180.0,7.0,0.0
6444,86.0,144.0,300.0,0.0,0.0
6445,67.0,96.0,180.0,7.0,0.0
6446,71.0,0.0,180.0,1.0,0.0
6447,71.0,0.0,180.0,6.0,0.0
6448,86.0,0.0,300.0,5.0,0.0
6449,67.0,0.0,180.0,2.0,0.0
6450,67.0,0.0,180.0,2.0,0.0
6451,67.0,0.0,180.0,7.0,0.0
6452,71.0,0.0,180.0,1.0,0.0
6453,71.0,240.0,180.0,6.0,0.0
6454,72.0,0.0,180.0,6.0,0.0
6455,50.0,0.0,360.0,3.0,0.0
6456,72.0,168.0,180.0,1.0,0.0
6457,38.0,0.0,360.0,4.0,0.0
6458,78.0,0.0,390.0,0.0,0.0
6459,69.0,0.0,180.0,7.0,0.0
6460,69.0,0.0,180.0,2.0,0.0
6461,78.0,48.0,390.0,5.0,0.0
6462,38.0,24.0,360.0,10.0,0.0
6463,50.0,0.0,360.0,8.0,0.0
6464,69.0,0.0,180.0,7.0,0.0
6465,72.0,0.0,180.0,6.0,0.0
6466,69.0,112.0,180.0,2.0,0.0
6467,72.0,0.0,180.0,1.0,0.0
6468,72.0,32.0,180.0,6.0,0.0
6469,69.0,0.0,180.0,7.0,0.0
6470,69.0,0.0,180.0,2.0,0.0
6471,72.0,0.0,180.0,1.0,0.0
6472,78.0,80.0,60.0,0.0,0.0
6473,78.0,0.0,60.0,5.0,0.0
6474,79.0,0.0,60.0,5.0,0.0
6475,79.0,48.0,60.0,0.0,0.0
6476,78.0,112.0,60.0,0.0,0.0
6477,78.0,0.0,60.0,5.0,0.0
6478,76.0,0.0,90.0,5.0,0.0
6479,69.0,24.0,180.0,2.0,0.0
6480,76.0,96.0,90.0,0.0,0.0
6481,69.0,0.0,180.0,7.0,0.0
6482,72.0,0.0,180.0,6.0,0.0
6483,72.0,0.0,180.0,1.0,0.0
6484,78.0,216.0,90.0,5.0,0.0
6485,78.0,0.0,90.0,0.0,0.0
6486,71.0,0.0,180.0,6.0,0.0
6487,52.0,0.0,360.0,8.0,0.0
6488,79.0,0.0,390.0,5.0,0.0
6489,67.0,168.0,180.0,2.0,0.0
6490,40.0,24.0,360.0,4.0,0.0
6491,71.0,0.0,180.0,1.0,0.0
6492,52.0,0.0,360.0,3.0,0.0
6493,79.0,48.0,390.0,0.0,0.0
6494,67.0,0.0,180.0,7.0,0.0
6495,40.0,0.0,360.0,10.0,0.0
6496,67.0,0.0,180.0,2.0,0.0
6497,67.0,0.0,180.0,7.0,0.0
6498,71.0,0.0,180.0,1.0,0.0
6499,71.0,112.0,180.0,6.0,0.0
6500,67.0,0.0,180.0,7.0,0.0
6501,79.0,0.0,60.0,0.0,0.0
6502,71.0,32.0,180.0,6.0,0.0
6503,79.0,80.0,60.0,5.0,0.0
6504,67.0,0.0,180.0,2.0,0.0
6505,71.0,0.0,180.0,1.0,0.0
6506,81.0,0.0,60.0,0.0,0.0
6507,81.0,48.0,60.0,5.0,0.0
6508,79.0,112.0,60.0,5.0,0.0
6509,79.0,0.0,60.0,0.0,0.0
6510,67.0,0.0,180.0,7.0,0.0
6511,67.0,0.0,180.0,2.0,0.0
6512,71.0,24.0,180.0,1.0,0.0
6513,78.0,0.0,90.0,0.0,0.0
6514,78.0,96.0,90.0,5.0,0.0
6515,71.0,0.0,180.0,6.0,0.0
6516,79.0,0.0,90.0,0.0,0.0
6517,79.0,216.0,90.0,5.0,0.0
6518,48.0,0.0,360.0,8.0,0.0
6519,36.0,72.0,360.0,10.0,0.0
6520,48.0,0.0,360.0,3.0,0.0
6521,67.0,0.0,180.0,2.0,0.0
6522,81.0,72.0,300.0,5.0,0.0
6523,76.0,0.0,180.0,6.0,0.0
6524,67.0,0.0,180.0,7.0,0.0
6525,36.0,0.0,360.0,4.0,0.0
6526,81.0,0.0,300.0,0.0,0.0
6527,76.0,96.0,180.0,1.0,0.0
6528,67.0,0.0,180.0,2.0,0.0
6529,67.0,0.0,180.0,7.0,0.0
6530,76.0,240.0,180.0,6.0,0.0
6531,76.0,0.0,180.0,1.0,0.0
6532,81.0,0.0,300.0,5.0,0.0
6533,67.0,96.0,180.0,2.0,0.0
6534,81.0,144.0,300.0,0.0,0.0
6535,76.0,0.0,180.0,1.0,0.0
6536,67.0,0.0,180.0,7.0,0.0
6537,76.0,0.0,180.0,6.0,0.0
6538,76.0,0.0,180.0,1.0,0.0
6539,67.0,0.0,180.0,7.0,0.0
6540,67.0,240.0,180.0,2.0,0.0
6541,76.0,0.0,180.0,6.0,0.0
6542,38.0,0.0,360.0,10.0,0.0
6543,66.0,96.0,180.0,2.0,0.0
6544,74.0,0.0,300.0,5.0,0.0
6545,72.0,0.0,180.0,1.0,0.0
6546,38.0,72.0,360.0,4.0,0.0
6547,50.0,0.0,360.0,8.0,0.0
6548,50.0,0.0,360.0,3.0,0.0
6549,66.0,0.0,180.0,7.0,0.0
6550,74.0,72.0,300.0,0.0,0.0
6551,72.0,0.0,180.0,6.0,0.0
6552,72.0,0.0,180.0,6.0,0.0
6553,66.0,240.0,180.0,2.0,0.0
6554,66.0,0.0,180.0,7.0,0.0
6555,72.0,0.0,180.0,1.0,0.0
6556,67.0,0.0,180.0,2.0,0.0
6557,67.0,240.0,180.0,7.0,0.0
6558,76.0,0.0,180.0,5.0,0.0
6559,72.0,0.0,180.0,1.0,0.0
6560,76.0,0.0,180.0,0.0,0.0
6561,72.0,0.0,180.0,6.0,0.0
6562,72.0,216.0,180.0,1.0,0.0
6563,78.0,0.0,180.0,5.0,0.0
6564,72.0,0.0,180.0,6.0,0.0
6565,78.0,0.0,180.0,0.0,0.0
6566,69.0,0.0,180.0,2.0,0.0
6567,69.0,0.0,180.0,7.0,0.0
6568,79.0,48.0,1140.0,5.0,0.0
6569,43.0,0.0,180.0,10.0,0.0
6570,43.0,0.0,180.0,8.0,0.0
6571,71.0,0.0,390.0,1.0,0.0
6572,79.0,0.0,1140.0,0.0,0.0
6573,67.0,0.0,240.0,7.0,0.0
6574,71.0,24.0,390.0,6.0,0.0
6575,67.0,144.0,240.0,2.0,0.0
6576,43.0,72.0,180.0,4.0,0.0
6577,43.0,0.0,180.0,3.0,0.0
6578,62.0,0.0,240.0,7.0,0.0
6579,43.0,0.0,180.0,4.0,0.0
6580,55.0,72.0,180.0,8.0,0.0
6581,43.0,0.0,180.0,10.0,0.0
6582,55.0,0.0,180.0,3.0,0.0
6583,62.0,168.0,240.0,2.0,0.0
6584,55.0,0.0,180.0,3.0,0.0
6585,59.0,168.0,240.0,7.0,0.0
6586,59.0,0.0,240.0,2.0,0.0
6587,55.0,0.0,180.0,8.0,0.0
6588,43.0,72.0,180.0,4.0,0.0
6589,43.0,0.0,180.0,10.0,0.0
6590,55.0,0.0,180.0,8.0,0.0
6591,43.0,72.0,180.0,10.0,0.0
6592,55.0,0.0,180.0,3.0,0.0
6593,43.0,0.0,180.0,4.0,0.0
6594,62.0,168.0,240.0,2.0,0.0
6595,62.0,0.0,240.0,7.0,0.0
6596,43.0,24.0,180.0,10.0,0.0
6597,60.0,168.0,240.0,7.0,0.0
6598,55.0,0.0,180.0,3.0,0.0
6599,55.0,0.0,180.0,8.0,0.0
6600,43.0,0.0,180.0,4.0,0.0
6601,60.0,0.0,240.0,2.0,0.0
6602,81.0,48.0,180.0,5.0,0.0
6603,62.0,0.0,240.0,2.0,0.0
6604,55.0,0.0,180.0,3.0,0.0
6605,43.0,0.0,180.0,10.0,0.0
6606,81.0,0.0,180.0,0.0,0.0
6607,55.0,24.0,180.0,8.0,0.0
6608,43.0,0.0,180.0,4.0,0.0
6609,62.0,168.0,240.0,7.0,0.0
6610,55.0,0.0,180.0,8.0,0.0
6611,60.0,0.0,240.0,2.0,0.0
6612,55.0,0.0,180.0,3.0,0.0
6613,78.0,0.0,180.0,0.0,0.0
6614,60.0,168.0,240.0,7.0,0.0
6615,78.0,48.0,180.0,5.0,0.0
6616,43.0,0.0,180.0,4.0,0.0
6617,43.0,24.0,180.0,10.0,0.0
6618,43.0,0.0,180.0,4.0,0.0
6619,43.0,0.0,180.0,10.0,0.0
6620,62.0,216.0,180.0,2.0,0.0
6621,55.0,0.0,180.0,8.0,0.0
6622,74.0,0.0,180.0,0.0,0.0
6623,55.0,24.0,180.0,3.0,0.0
6624,62.0,0.0,180.0,7.0,0.0
6625,74.0,0.0,180.0,5.0,0.0
6626,43.0,72.0,180.0,4.0,0.0
6627,79.0,0.0,1140.0,6.0,0.0
6628,83.0,48.0,1140.0,5.0,0.0
6629,43.0,0.0,180.0,10.0,0.0
6630,59.0,168.0,240.0,2.0,0.0
6631,43.0,0.0,180.0,8.0,0.0
6632,43.0,0.0,180.0,3.0,0.0
6633,59.0,0.0,240.0,7.0,0.0
6634,83.0,0.0,1140.0,0.0,0.0
6635,79.0,0.0,1140.0,1.0,0.0
6636,43.0,0.0,180.0,10.0,0.0
6637,55.0,0.0,180.0,8.0,0.0
6638,43.0,72.0,180.0,4.0,0.0
6639,62.0,168.0,240.0,7.0,0.0
6640,55.0,0.0,180.0,3.0,0.0
6641,62.0,0.0,240.0,2.0,0.0
6642,55.0,0.0,180.0,3.0,0.0
6643,59.0,0.0,240.0,2.0,0.0
6644,59.0,168.0,240.0,7.0,0.0
6645,55.0,0.0,180.0,8.0,0.0
6646,43.0,0.0,180.0,10.0,0.0
6647,43.0,72.0,180.0,4.0,0.0
6648,43.0,0.0,180.0,10.0,0.0
6649,43.0,0.0,180.0,4.0,0.0
6650,62.0,0.0,240.0,2.0,0.0
6651,55.0,0.0,180.0,3.0,0.0
6652,55.0,72.0,180.0,8.0,0.0
6653,62.0,168.0,240.0,7.0,0.0
6654,55.0,0.0,180.0,8.0,0.0
6655,60.0,0.0,240.0,2.0,0.0
6656,55.0,24.0,180.0,3.0,0.0
6657,60.0,168.0,240.0,7.0,0.0
6658,43.0,0.0,180.0,4.0,0.0
6659,43.0,0.0,180.0,10.0,0.0
6660,84.0,0.0,180.0,0.0,0.0
6661,55.0,24.0,180.0,3.0,0.0
6662,81.0,0.0,180.0,6.0,0.0
6663,55.0,0.0,180.0,8.0,0.0
6664,62.0,168.0,240.0,2.0,0.0
6665,62.0,0.0,240.0,7.0,0.0
6666,81.0,0.0,180.0,1.0,0.0
6667,84.0,48.0,180.0,5.0,0.0
6668,43.0,0.0,180.0,4.0,0.0
6669,43.0,0.0,180.0,10.0,0.0
6670,78.0,0.0,180.0,6.0,0.0
6671,60.0,168.0,240.0,7.0,0.0
6672,43.0,0.0,180.0,10.0,0.0
6673,81.0,0.0,180.0,0.0,0.0
6674,78.0,0.0,180.0,1.0,0.0
6675,55.0,0.0,180.0,8.0,0.0
6676,43.0,0.0,180.0,4.0,0.0
6677,81.0,48.0,180.0,5.0,0.0
6678,55.0,24.0,180.0,3.0,0.0
6679,60.0,0.0,240.0,2.0,0.0
6680,43.0,0.0,180.0,10.0,0.0
6681,55.0,0.0,180.0,8.0,0.0
6682,55.0,24.0,180.0,3.0,0.0
6683,43.0,0.0,180.0,4.0,0.0
6684,74.0,0.0,180.0,1.0,0.0
6685,74.0,0.0,180.0,6.0,0.0
6686,62.0,240.0,180.0,7.0,0.0
6687,78.0,0.0,180.0,0.0,0.0
6688,62.0,0.0,180.0,2.0,0.0
6689,78.0,0.0,180.0,5.0,0.0
6690,59.0,0.0,300.0,2.0,0.0
6691,86.0,96.0,180.0,5.0,0.0
6692,83.0,48.0,1140.0,6.0,0.0
6693,43.0,0.0,1200.0,10.0,0.0
6694,86.0,0.0,180.0,0.0,0.0
6695,59.0,336.0,300.0,7.0,0.0
6696,55.0,0.0,1200.0,3.0,0.0
6697,43.0,0.0,1200.0,4.0,0.0
6698,55.0,0.0,1200.0,8.0,0.0
6699,83.0,0.0,1140.0,1.0,0.0
6700,86.0,0.0,390.0,0.0,0.0
6701,86.0,480.0,390.0,5.0,0.0
6702,67.0,192.0,720.0,7.0,0.0
6703,67.0,0.0,720.0,2.0,0.0
6704,86.0,48.0,390.0,5.0,0.0
6705,86.0,0.0,390.0,0.0,0.0
6706,86.0,48.0,390.0,5.0,0.0
6707,45.0,0.0,240.0,10.0,0.0
6708,69.0,0.0,240.0,7.0,0.0
6709,69.0,144.0,240.0,2.0,0.0
6710,57.0,0.0,240.0,8.0,0.0
6711,84.0,0.0,180.0,6.0,0.0
6712,86.0,0.0,390.0,0.0,0.0
6713,45.0,0.0,240.0,4.0,0.0
6714,57.0,0.0,240.0,3.0,0.0
6715,84.0,48.0,180.0,1.0,0.0
6716,66.0,0.0,240.0,7.0,0.0
6717,42.0,0.0,240.0,10.0,0.0
6718,81.0,0.0,180.0,1.0,0.0
6719,54.0,0.0,240.0,3.0,0.0
6720,42.0,192.0,240.0,4.0,0.0
6721,81.0,48.0,180.0,6.0,0.0
6722,54.0,0.0,240.0,8.0,0.0
6723,66.0,0.0,240.0,2.0,0.0
6724,62.0,0.0,180.0,2.0,0.0
6725,50.0,0.0,180.0,3.0,0.0
6726,86.0,0.0,420.0,0.0,0.0
6727,86.0,432.0,420.0,5.0,0.0
6728,50.0,0.0,180.0,8.0,0.0
6729,78.0,0.0,180.0,6.0,0.0
6730,78.0,240.0,180.0,1.0,0.0
6731,62.0,0.0,180.0,7.0,0.0
6732,38.0,0.0,180.0,4.0,0.0
6733,38.0,0.0,180.0,10.0,0.0
6734,79.0,0.0,1200.0,1.0,0.0
6735,71.0,0.0,1200.0,7.0,0.0
6736,71.0,0.0,1200.0,2.0,0.0
6737,59.0,0.0,1200.0,3.0,0.0
6738,47.0,240.0,1200.0,10.0,0.0
6739,79.0,0.0,1200.0,6.0,0.0
6740,59.0,0.0,1200.0,8.0,0.0
6741,47.0,0.0,1200.0,4.0,0.0
6742,86.0,0.0,390.0,5.0,0.0
6743,86.0,480.0,390.0,0.0,0.0
6744,86.0,96.0,390.0,5.0,0.0
6745,86.0,0.0,390.0,0.0,0.0
6746,48.0,144.0,240.0,10.0,0.0
6747,86.0,0.0,390.0,0.0,0.0
6748,60.0,0.0,240.0,8.0,0.0
6749,81.0,0.0,240.0,1.0,0.0
6750,48.0,0.0,240.0,4.0,0.0
6751,72.0,0.0,240.0,2.0,0.0
6752,60.0,0.0,240.0,3.0,0.0
6753,72.0,0.0,240.0,7.0,0.0
6754,86.0,96.0,390.0,5.0,0.0
6755,81.0,0.0,240.0,6.0,0.0
6756,78.0,0.0,240.0,1.0,0.0
6757,78.0,0.0,240.0,6.0,0.0
6758,45.0,192.0,240.0,10.0,0.0
6759,57.0,0.0,240.0,8.0,0.0
6760,57.0,0.0,240.0,3.0,0.0
6761,69.0,0.0,240.0,2.0,0.0
6762,45.0,0.0,240.0,4.0,0.0
6763,69.0,0.0,240.0,7.0,0.0
6764,86.0,48.0,480.0,5.0,0.0
6765,66.0,0.0,180.0,2.0,0.0
6766,66.0,0.0,180.0,7.0,0.0
6767,54.0,0.0,180.0,8.0,0.0
6768,54.0,0.0,180.0,3.0,0.0
6769,86.0,0.0,480.0,0.0,0.0
6770,42.0,288.0,180.0,10.0,0.0
6771,74.0,0.0,180.0,1.0,0.0
6772,42.0,0.0,180.0,4.0,0.0
6773,74.0,0.0,180.0,6.0,0.0
6774,67.0,24.0,300.0,7.0,0.0
6775,55.0,0.0,300.0,3.0,0.0
6776,83.0,0.0,300.0,1.0,0.0
6777,55.0,0.0,300.0,8.0,0.0
6778,43.0,0.0,300.0,4.0,0.0
6779,43.0,120.0,300.0,10.0,0.0
6780,67.0,0.0,300.0,2.0,0.0
6781,83.0,0.0,300.0,6.0,0.0
6782,83.0,240.0,180.0,0.0,0.0
6783,83.0,0.0,180.0,5.0,0.0
6784,67.0,0.0,300.0,2.0,0.0
6785,59.0,24.0,300.0,2.0,0.0
6786,83.0,0.0,180.0,0.0,0.0
6787,55.0,120.0,300.0,3.0,0.0
6788,43.0,0.0,300.0,4.0,0.0
6789,62.0,0.0,300.0,1.0,0.0
6790,43.0,0.0,300.0,10.0,0.0
6791,55.0,0.0,300.0,8.0,0.0
6792,71.0,0.0,300.0,1.0,0.0
6793,83.0,96.0,180.0,5.0,0.0
6794,67.0,0.0,300.0,7.0,0.0
6795,59.0,0.0,300.0,7.0,0.0
6796,62.0,0.0,300.0,6.0,0.0
6797,71.0,0.0,300.0,6.0,0.0
6798,83.0,0.0,180.0,5.0,0.0
6799,83.0,288.0,180.0,0.0,0.0
6800,83.0,192.0,240.0,5.0,0.0
6801,83.0,0.0,240.0,0.0,0.0
6802,79.0,240.0,180.0,5.0,0.0
6803,79.0,0.0,180.0,0.0,0.0
6804,59.0,0.0,300.0,7.0,0.0
6805,67.0,0.0,300.0,2.0,0.0
6806,55.0,0.0,300.0,8.0,0.0
6807,43.0,0.0,300.0,10.0,0.0
6808,79.0,0.0,180.0,5.0,0.0
6809,67.0,0.0,300.0,7.0,0.0
6810,59.0,0.0,300.0,2.0,0.0
6811,62.0,0.0,300.0,6.0,0.0
6812,71.0,0.0,300.0,6.0,0.0
6813,43.0,0.0,300.0,4.0,0.0
6814,62.0,0.0,300.0,1.0,0.0
6815,71.0,24.0,300.0,1.0,0.0
6816,55.0,120.0,300.0,3.0,0.0
6817,79.0,96.0,180.0,0.0,0.0
6818,79.0,288.0,180.0,5.0,0.0
6819,79.0,0.0,180.0,0.0,0.0
6820,79.0,0.0,240.0,0.0,0.0
6821,79.0,192.0,240.0,5.0,0.0
6822,74.0,240.0,180.0,5.0,0.0
6823,74.0,0.0,180.0,0.0,0.0
6824,59.0,0.0,300.0,7.0,0.0
6825,74.0,96.0,180.0,0.0,0.0
6826,62.0,0.0,300.0,1.0,0.0
6827,71.0,0.0,300.0,1.0,0.0
6828,55.0,120.0,300.0,8.0,0.0
6829,67.0,0.0,300.0,7.0,0.0
6830,43.0,0.0,300.0,4.0,0.0
6831,62.0,24.0,300.0,6.0,0.0
6832,71.0,0.0,300.0,6.0,0.0
6833,55.0,0.0,300.0,3.0,0.0
6834,74.0,0.0,180.0,5.0,0.0
6835,43.0,0.0,300.0,10.0,0.0
6836,59.0,0.0,300.0,2.0,0.0
6837,67.0,0.0,300.0,2.0,0.0
6838,74.0,288.0,180.0,0.0,0.0
6839,74.0,0.0,180.0,5.0,0.0
6840,55.0,0.0,300.0,3.0,0.0
6841,74.0,48.0,240.0,5.0,0.0
6842,43.0,0.0,300.0,10.0,0.0
6843,71.0,0.0,300.0,6.0,0.0
6844,62.0,0.0,300.0,6.0,0.0
6845,62.0,0.0,300.0,1.0,0.0
6846,74.0,0.0,240.0,0.0,0.0
6847,55.0,72.0,300.0,8.0,0.0
6848,59.0,0.0,300.0,2.0,0.0
6849,67.0,0.0,300.0,7.0,0.0
6850,59.0,24.0,300.0,7.0,0.0
6851,43.0,0.0,300.0,4.0,0.0
6852,71.0,0.0,300.0,1.0,0.0
6853,67.0,0.0,300.0,2.0,0.0
6854,71.0,336.0,150.0,0.0,0.0
6855,71.0,0.0,150.0,5.0,0.0
6856,71.0,0.0,300.0,6.0,0.0
6857,55.0,0.0,300.0,3.0,0.0
6858,59.0,0.0,300.0,7.0,0.0
6859,71.0,0.0,300.0,1.0,0.0
6860,62.0,0.0,300.0,1.0,0.0
6861,71.0,0.0,240.0,0.0,0.0
6862,67.0,0.0,300.0,7.0,0.0
6863,62.0,0.0,300.0,6.0,0.0
6864,43.0,72.0,300.0,10.0,0.0
6865,59.0,24.0,300.0,2.0,0.0
6866,43.0,0.0,300.0,4.0,0.0
6867,71.0,48.0,240.0,5.0,0.0
6868,67.0,0.0,300.0,2.0,0.0
6869,55.0,0.0,300.0,8.0,0.0
6870,67.0,0.0,150.0,0.0,0.0
6871,67.0,336.0,150.0,5.0,0.0
6872,87.0,0.0,240.0,0.0,0.0
6873,87.0,192.0,240.0,5.0,0.0
6874,81.0,240.0,180.0,5.0,0.0
6875,81.0,0.0,180.0,0.0,0.0
6876,71.0,0.0,300.0,1.0,0.0
6877,59.0,0.0,300.0,2.0,0.0
6878,42.0,120.0,300.0,4.0,0.0
6879,69.0,0.0,300.0,2.0,0.0
6880,54.0,0.0,300.0,8.0,0.0
6881,42.0,0.0,300.0,10.0,0.0
6882,63.0,0.0,300.0,1.0,0.0
6883,81.0,96.0,180.0,5.0,0.0
6884,54.0,0.0,300.0,3.0,0.0
6885,81.0,0.0,180.0,0.0,0.0
6886,63.0,0.0,300.0,6.0,0.0
6887,69.0,0.0,300.0,7.0,0.0
6888,59.0,24.0,300.0,7.0,0.0
6889,71.0,0.0,300.0,6.0,0.0
6890,81.0,0.0,180.0,0.0,0.0
6891,81.0,288.0,180.0,5.0,0.0
6892,81.0,192.0,240.0,0.0,0.0
6893,81.0,0.0,240.0,5.0,0.0
6894,78.0,240.0,180.0,5.0,0.0
6895,78.0,0.0,180.0,0.0,0.0
6896,69.0,0.0,300.0,2.0,0.0
6897,59.0,0.0,300.0,2.0,0.0
6898,54.0,0.0,300.0,3.0,0.0
6899,69.0,0.0,300.0,7.0,0.0
6900,71.0,0.0,300.0,1.0,0.0
6901,63.0,0.0,300.0,1.0,0.0
6902,78.0,0.0,180.0,5.0,0.0
6903,54.0,120.0,300.0,8.0,0.0
6904,78.0,96.0,180.0,0.0,0.0
6905,71.0,0.0,300.0,6.0,0.0
6906,63.0,24.0,300.0,6.0,0.0
6907,42.0,0.0,300.0,4.0,0.0
6908,59.0,0.0,300.0,7.0,0.0
6909,42.0,0.0,300.0,10.0,0.0
6910,78.0,0.0,180.0,5.0,0.0
6911,78.0,288.0,180.0,0.0,0.0
6912,78.0,192.0,240.0,5.0,0.0
6913,78.0,0.0,240.0,0.0,0.0
6914,75.0,240.0,180.0,5.0,0.0
6915,75.0,0.0,180.0,0.0,0.0
6916,63.0,24.0,300.0,1.0,0.0
6917,54.0,0.0,300.0,8.0,0.0
6918,71.0,0.0,300.0,6.0,0.0
6919,63.0,0.0,300.0,6.0,0.0
6920,42.0,0.0,300.0,4.0,0.0
6921,71.0,0.0,300.0,1.0,0.0
6922,54.0,0.0,300.0,3.0,0.0
6923,75.0,0.0,180.0,5.0,0.0
6924,42.0,120.0,300.0,10.0,0.0
6925,69.0,0.0,300.0,7.0,0.0
6926,69.0,0.0,300.0,2.0,0.0
6927,75.0,96.0,180.0,0.0,0.0
6928,59.0,0.0,300.0,2.0,0.0
6929,59.0,0.0,300.0,7.0,0.0
6930,75.0,288.0,180.0,0.0,0.0
6931,75.0,0.0,180.0,5.0,0.0
6932,63.0,0.0,300.0,1.0,0.0
6933,54.0,120.0,300.0,3.0,0.0
6934,75.0,48.0,240.0,0.0,0.0
6935,75.0,0.0,240.0,5.0,0.0
6936,42.0,0.0,300.0,10.0,0.0
6937,71.0,0.0,300.0,1.0,0.0
6938,59.0,24.0,300.0,7.0,0.0
6939,71.0,0.0,300.0,6.0,0.0
6940,42.0,0.0,300.0,4.0,0.0
6941,59.0,0.0,300.0,2.0,0.0
6942,63.0,0.0,300.0,6.0,0.0
6943,54.0,0.0,300.0,8.0,0.0
6944,69.0,0.0,300.0,2.0,0.0
6945,69.0,0.0,300.0,7.0,0.0
6946,69.0,0.0,180.0,5.0,0.0
6947,69.0,288.0,180.0,0.0,0.0
6948,69.0,48.0,240.0,0.0,0.0
6949,59.0,0.0,300.0,7.0,0.0
6950,71.0,0.0,300.0,6.0,0.0
6951,69.0,0.0,300.0,2.0,0.0
6952,54.0,120.0,300.0,8.0,0.0
6953,69.0,0.0,240.0,5.0,0.0
6954,71.0,0.0,300.0,1.0,0.0
6955,42.0,0.0,300.0,10.0,0.0
6956,69.0,0.0,300.0,7.0,0.0
6957,42.0,0.0,300.0,4.0,0.0
6958,54.0,0.0,300.0,3.0,0.0
6959,59.0,0.0,300.0,2.0,0.0
6960,63.0,0.0,300.0,6.0,0.0
6961,63.0,24.0,300.0,1.0,0.0
6962,66.0,0.0,180.0,0.0,0.0
6963,66.0,288.0,180.0,5.0,0.0
6964,88.0,0.0,240.0,5.0,0.0
6965,88.0,192.0,240.0,0.0,0.0
6966,83.0,240.0,180.0,5.0,0.0
6967,83.0,0.0,180.0,0.0,0.0
6968,64.0,0.0,300.0,6.0,0.0
6969,67.0,0.0,300.0,6.0,0.0
6970,59.0,0.0,300.0,2.0,0.0
6971,71.0,0.0,300.0,2.0,0.0
6972,83.0,0.0,180.0,0.0,0.0
6973,67.0,0.0,300.0,1.0,0.0
6974,64.0,24.0,300.0,1.0,0.0
6975,52.0,0.0,300.0,8.0,0.0
6976,59.0,0.0,300.0,7.0,0.0
6977,71.0,0.0,300.0,7.0,0.0
6978,52.0,0.0,300.0,3.0,0.0
6979,40.0,0.0,300.0,10.0,0.0
6980,40.0,120.0,300.0,4.0,0.0
6981,83.0,96.0,180.0,5.0,0.0
6982,83.0,0.0,180.0,0.0,0.0
6983,83.0,288.0,180.0,5.0,0.0
6984,83.0,0.0,240.0,0.0,0.0
6985,83.0,192.0,240.0,5.0,0.0
6986,79.0,0.0,180.0,0.0,0.0
6987,79.0,240.0,180.0,5.0,0.0
6988,52.0,0.0,300.0,8.0,0.0
6989,40.0,0.0,300.0,4.0,0.0
6990,59.0,0.0,300.0,7.0,0.0
6991,79.0,0.0,180.0,5.0,0.0
6992,52.0,120.0,300.0,3.0,0.0
6993,64.0,0.0,300.0,6.0,0.0
6994,67.0,0.0,300.0,6.0,0.0
6995,79.0,96.0,180.0,0.0,0.0
6996,71.0,0.0,300.0,7.0,0.0
6997,71.0,24.0,300.0,2.0,0.0
6998,59.0,0.0,300.0,2.0,0.0
6999,40.0,0.0,300.0,10.0,0.0
7000,67.0,0.0,300.0,1.0,0.0
7001,64.0,0.0,300.0,1.0,0.0
7002,79.0,0.0,180.0,5.0,0.0
7003,79.0,288.0,180.0,0.0,0.0
7004,79.0,0.0,240.0,5.0,0.0
7005,79.0,192.0,240.0,0.0,0.0
7006,76.0,240.0,180.0,5.0,0.0
7007,76.0,0.0,180.0,0.0,0.0
7008,76.0,96.0,180.0,0.0,0.0
7009,67.0,0.0,300.0,1.0,0.0
7010,40.0,120.0,300.0,4.0,0.0
7011,67.0,24.0,300.0,6.0,0.0
7012,71.0,0.0,300.0,7.0,0.0
7013,59.0,0.0,300.0,7.0,0.0
7014,64.0,0.0,300.0,1.0,0.0
7015,64.0,0.0,300.0,6.0,0.0
7016,52.0,0.0,300.0,3.0,0.0
7017,76.0,0.0,180.0,5.0,0.0
7018,59.0,0.0,300.0,2.0,0.0
7019,71.0,0.0,300.0,2.0,0.0
7020,52.0,0.0,300.0,8.0,0.0
7021,40.0,0.0,300.0,10.0,0.0
7022,76.0,0.0,180.0,0.0,0.0
7023,76.0,288.0,180.0,5.0,0.0
7024,59.0,0.0,300.0,2.0,0.0
7025,71.0,0.0,300.0,7.0,0.0
7026,59.0,0.0,300.0,7.0,0.0
7027,76.0,48.0,240.0,0.0,0.0
7028,67.0,0.0,300.0,6.0,0.0
7029,40.0,0.0,300.0,4.0,0.0
7030,71.0,0.0,300.0,2.0,0.0
7031,64.0,0.0,300.0,6.0,0.0
7032,67.0,24.0,300.0,1.0,0.0
7033,64.0,0.0,300.0,1.0,0.0
7034,76.0,0.0,240.0,5.0,0.0
7035,52.0,0.0,300.0,3.0,0.0
7036,52.0,0.0,300.0,8.0,0.0
7037,40.0,120.0,300.0,10.0,0.0
7038,71.0,0.0,180.0,5.0,0.0
7039,71.0,288.0,180.0,0.0,0.0
7040,64.0,0.0,300.0,1.0,0.0
7041,67.0,0.0,300.0,1.0,0.0
7042,71.0,0.0,240.0,0.0,0.0
7043,67.0,0.0,300.0,6.0,0.0
7044,64.0,0.0,300.0,6.0,0.0
7045,52.0,120.0,300.0,8.0,0.0
7046,71.0,24.0,300.0,2.0,0.0
7047,71.0,0.0,300.0,7.0,0.0
7048,52.0,0.0,300.0,3.0,0.0
7049,59.0,0.0,300.0,7.0,0.0
7050,40.0,0.0,300.0,10.0,0.0
7051,59.0,0.0,300.0,2.0,0.0
7052,40.0,0.0,300.0,4.0,0.0
7053,71.0,48.0,240.0,5.0,0.0
7054,67.0,0.0,180.0,0.0,0.0
7055,67.0,288.0,180.0,5.0,0.0
7056,90.0,192.0,240.0,5.0,0.0
7057,90.0,0.0,240.0,0.0,0.0
7058,87.0,0.0,180.0,0.0,0.0
7059,87.0,240.0,180.0,5.0,0.0
7060,87.0,0.0,180.0,5.0,0.0
7061,46.0,120.0,300.0,4.0,0.0
7062,66.0,0.0,300.0,7.0,0.0
7063,61.0,24.0,300.0,7.0,0.0
7064,46.0,0.0,300.0,10.0,0.0
7065,66.0,0.0,300.0,2.0,0.0
7066,58.0,0.0,300.0,3.0,0.0
7067,61.0,0.0,300.0,2.0,0.0
7068,73.0,0.0,300.0,6.0,0.0
7069,64.0,0.0,300.0,6.0,0.0
7070,58.0,0.0,300.0,8.0,0.0
7071,73.0,0.0,300.0,1.0,0.0
7072,64.0,0.0,300.0,1.0,0.0
7073,87.0,96.0,180.0,0.0,0.0
7074,87.0,288.0,180.0,5.0,0.0
7075,87.0,0.0,180.0,0.0,0.0
7076,87.0,0.0,240.0,5.0,0.0
7077,87.0,192.0,240.0,0.0,0.0
7078,82.0,0.0,180.0,5.0,0.0
7079,82.0,240.0,180.0,0.0,0.0
7080,82.0,0.0,180.0,0.0,0.0
7081,58.0,0.0,300.0,3.0,0.0
7082,58.0,0.0,300.0,8.0,0.0
7083,46.0,120.0,300.0,10.0,0.0
7084,64.0,0.0,300.0,1.0,0.0
7085,82.0,96.0,180.0,5.0,0.0
7086,66.0,0.0,300.0,2.0,0.0
7087,66.0,0.0,300.0,7.0,0.0
7088,61.0,0.0,300.0,2.0,0.0
7089,73.0,0.0,300.0,1.0,0.0
7090,61.0,0.0,300.0,7.0,0.0
7091,46.0,0.0,300.0,4.0,0.0
7092,73.0,24.0,300.0,6.0,0.0
7093,64.0,0.0,300.0,6.0,0.0
7094,82.0,0.0,180.0,5.0,0.0
7095,82.0,288.0,180.0,0.0,0.0
7096,82.0,0.0,240.0,5.0,0.0
7097,82.0,192.0,240.0,0.0,0.0
7098,78.0,240.0,180.0,5.0,0.0
7099,78.0,0.0,180.0,0.0,0.0
7100,78.0,0.0,180.0,0.0,0.0
7101,61.0,0.0,300.0,7.0,0.0
7102,78.0,96.0,180.0,5.0,0.0
7103,66.0,0.0,300.0,7.0,0.0
7104,64.0,0.0,300.0,6.0,0.0
7105,73.0,0.0,300.0,6.0,0.0
7106,73.0,0.0,300.0,1.0,0.0
7107,46.0,0.0,390.0,4.0,0.0
7108,58.0,0.0,390.0,3.0,0.0
7109,64.0,0.0,300.0,1.0,0.0
7110,66.0,0.0,300.0,2.0,0.0
7111,61.0,96.0,300.0,2.0,0.0
7112,46.0,48.0,390.0,10.0,0.0
7113,58.0,0.0,390.0,8.0,0.0
7114,78.0,288.0,180.0,5.0,0.0
7115,78.0,0.0,180.0,0.0,0.0
7116,61.0,0.0,300.0,7.0,0.0
7117,73.0,96.0,300.0,1.0,0.0
7118,64.0,0.0,300.0,1.0,0.0
7119,58.0,0.0,390.0,8.0,0.0
7120,78.0,48.0,240.0,0.0,0.0
7121,66.0,0.0,300.0,7.0,0.0
7122,61.0,0.0,300.0,2.0,0.0
7123,66.0,0.0,300.0,2.0,0.0
7124,46.0,0.0,390.0,10.0,0.0
7125,58.0,0.0,390.0,3.0,0.0
7126,78.0,0.0,240.0,5.0,0.0
7127,46.0,48.0,390.0,4.0,0.0
7128,73.0,0.0,300.0,6.0,0.0
7129,64.0,0.0,300.0,6.0,0.0
7130,73.0,288.0,180.0,5.0,0.0
7131,73.0,0.0,180.0,0.0,0.0
7132,58.0,0.0,390.0,8.0,0.0
7133,46.0,0.0,390.0,4.0,0.0
7134,58.0,48.0,390.0,3.0,0.0
7135,61.0,96.0,300.0,2.0,0.0
7136,46.0,0.0,390.0,10.0,0.0
7137,64.0,0.0,300.0,1.0,0.0
7138,73.0,0.0,240.0,0.0,0.0
7139,66.0,0.0,300.0,7.0,0.0
7140,73.0,48.0,240.0,5.0,0.0
7141,73.0,0.0,300.0,6.0,0.0
7142,64.0,0.0,300.0,6.0,0.0
7143,66.0,0.0,300.0,2.0,0.0
7144,73.0,0.0,300.0,1.0,0.0
7145,61.0,0.0,300.0,7.0,0.0
7146,70.0,288.0,180.0,0.0,0.0
7147,70.0,0.0,180.0,5.0,0.0
7148,86.0,0.0,240.0,5.0,0.0
7149,86.0,192.0,240.0,0.0,0.0
7150,83.0,240.0,180.0,5.0,0.0
7151,83.0,0.0,180.0,0.0,0.0
7152,74.0,0.0,300.0,1.0,0.0
7153,66.0,0.0,300.0,1.0,0.0
7154,71.0,0.0,300.0,2.0,0.0
7155,83.0,96.0,180.0,0.0,0.0
7156,59.0,120.0,300.0,8.0,0.0
7157,47.0,0.0,300.0,4.0,0.0
7158,62.0,24.0,300.0,7.0,0.0
7159,71.0,0.0,300.0,7.0,0.0
7160,62.0,0.0,300.0,2.0,0.0
7161,66.0,0.0,300.0,6.0,0.0
7162,74.0,0.0,300.0,6.0,0.0
7163,83.0,0.0,180.0,5.0,0.0
7164,47.0,0.0,300.0,10.0,0.0
7165,59.0,0.0,300.0,3.0,0.0
7166,83.0,288.0,180.0,0.0,0.0
7167,83.0,0.0,180.0,5.0,0.0
7168,83.0,192.0,240.0,5.0,0.0
7169,83.0,0.0,240.0,0.0,0.0
7170,78.0,240.0,180.0,0.0,0.0
7171,78.0,0.0,180.0,5.0,0.0
7172,78.0,0.0,180.0,5.0,0.0
7173,59.0,120.0,300.0,8.0,0.0
7174,74.0,0.0,300.0,1.0,0.0
7175,66.0,0.0,300.0,1.0,0.0
7176,62.0,0.0,300.0,2.0,0.0
7177,66.0,0.0,300.0,6.0,0.0
7178,71.0,24.0,300.0,2.0,0.0
7179,47.0,0.0,300.0,4.0,0.0
7180,62.0,0.0,300.0,7.0,0.0
7181,71.0,0.0,300.0,7.0,0.0
7182,47.0,0.0,300.0,10.0,0.0
7183,74.0,0.0,300.0,6.0,0.0
7184,59.0,0.0,300.0,3.0,0.0
7185,78.0,96.0,180.0,0.0,0.0
7186,78.0,288.0,180.0,5.0,0.0
7187,78.0,0.0,180.0,0.0,0.0
7188,78.0,192.0,240.0,5.0,0.0
7189,78.0,0.0,240.0,0.0,0.0
7190,74.0,0.0,180.0,0.0,0.0
7191,74.0,240.0,180.0,5.0,0.0
7192,74.0,0.0,300.0,6.0,0.0
7193,74.0,0.0,300.0,1.0,0.0
7194,47.0,0.0,300.0,10.0,0.0
7195,74.0,0.0,180.0,0.0,0.0
7196,62.0,0.0,300.0,7.0,0.0
7197,59.0,120.0,300.0,3.0,0.0
7198,66.0,0.0,300.0,1.0,0.0
7199,66.0,0.0,300.0,6.0,0.0
7200,71.0,24.0,300.0,7.0,0.0
7201,47.0,0.0,300.0,4.0,0.0
7202,62.0,0.0,300.0,2.0,0.0
7203,59.0,0.0,300.0,8.0,0.0
7204,71.0,0.0,300.0,2.0,0.0
7205,74.0,96.0,180.0,5.0,0.0
7206,74.0,288.0,180.0,0.0,0.0
7207,74.0,0.0,180.0,5.0,0.0
7208,47.0,0.0,300.0,10.0,0.0
7209,59.0,0.0,300.0,3.0,0.0
7210,66.0,0.0,300.0,6.0,0.0
7211,74.0,0.0,240.0,0.0,0.0
7212,74.0,48.0,240.0,5.0,0.0
7213,62.0,0.0,300.0,2.0,0.0
7214,47.0,0.0,300.0,4.0,0.0
7215,71.0,0.0,300.0,2.0,0.0
7216,59.0,120.0,300.0,8.0,0.0
7217,71.0,0.0,300.0,7.0,0.0
7218,62.0,0.0,300.0,7.0,0.0
7219,74.0,0.0,300.0,6.0,0.0
7220,66.0,0.0,300.0,1.0,0.0
7221,74.0,24.0,300.0,1.0,0.0
7222,71.0,0.0,180.0,0.0,0.0
7223,71.0,288.0,180.0,5.0,0.0
7224,71.0,48.0,240.0,5.0,0.0
7225,66.0,24.0,300.0,6.0,0.0
7226,71.0,0.0,240.0,0.0,0.0
7227,71.0,0.0,300.0,7.0,0.0
7228,62.0,0.0,300.0,7.0,0.0
7229,62.0,0.0,300.0,2.0,0.0
7230,74.0,0.0,300.0,6.0,0.0
7231,59.0,0.0,300.0,3.0,0.0
7232,59.0,0.0,300.0,8.0,0.0
7233,47.0,120.0,300.0,10.0,0.0
7234,66.0,0.0,300.0,1.0,0.0
7235,74.0,0.0,300.0,1.0,0.0
7236,47.0,0.0,300.0,4.0,0.0
7237,71.0,0.0,300.0,2.0,0.0
7238,66.0,0.0,180.0,5.0,0.0
7239,66.0,288.0,180.0,0.0,0.0
7240,83.0,0.0,240.0,0.0,0.0
7241,83.0,0.0,240.0,1.0,0.0
7242,83.0,156.0,240.0,5.0,0.0
7243,83.0,0.0,240.0,6.0,0.0
7244,47.0,0.0,240.0,10.0,0.0
7245,59.0,0.0,240.0,8.0,0.0
7246,71.0,0.0,240.0,7.0,0.0
7247,59.0,0.0,240.0,3.0,0.0
7248,47.0,0.0,240.0,4.0,0.0
7249,71.0,0.0,240.0,2.0,0.0
7250,55.0,0.0,150.0,10.0,0.0
7251,55.0,0.0,150.0,4.0,0.0
7252,67.0,36.0,150.0,8.0,0.0
7253,67.0,0.0,150.0,7.0,0.0
7254,67.0,0.0,150.0,2.0,0.0
7255,79.0,0.0,180.0,6.0,0.0
7256,67.0,0.0,150.0,3.0,0.0
7257,79.0,0.0,180.0,1.0,0.0
7258,79.0,0.0,180.0,0.0,0.0
7259,79.0,204.0,180.0,5.0,0.0
7260,67.0,0.0,150.0,2.0,0.0
7261,79.0,204.0,180.0,0.0,0.0
7262,79.0,0.0,180.0,6.0,0.0
7263,79.0,0.0,180.0,5.0,0.0
7264,55.0,0.0,150.0,4.0,0.0
7265,67.0,0.0,150.0,8.0,0.0
7266,55.0,0.0,150.0,10.0,0.0
7267,79.0,0.0,180.0,1.0,0.0
7268,67.0,0.0,150.0,3.0,0.0
7269,67.0,36.0,150.0,7.0,0.0
7270,55.0,0.0,150.0,4.0,0.0
7271,79.0,0.0,180.0,6.0,0.0
7272,79.0,0.0,180.0,1.0,0.0
7273,67.0,0.0,150.0,2.0,0.0
7274,55.0,0.0,150.0,10.0,0.0
7275,79.0,0.0,180.0,5.0,0.0
7276,67.0,0.0,150.0,7.0,0.0
7277,67.0,0.0,150.0,3.0,0.0
7278,79.0,288.0,180.0,0.0,0.0
7279,67.0,36.0,150.0,8.0,0.0
7280,67.0,0.0,240.0,8.0,0.0
7281,79.0,0.0,240.0,1.0,0.0
7282,67.0,156.0,240.0,2.0,0.0
7283,79.0,0.0,240.0,0.0,0.0
7284,79.0,0.0,240.0,6.0,0.0
7285,67.0,0.0,240.0,7.0,0.0
7286,55.0,0.0,240.0,10.0,0.0
7287,67.0,0.0,240.0,3.0,0.0
7288,79.0,0.0,240.0,5.0,0.0
7289,55.0,0.0,240.0,4.0,0.0
7290,74.0,0.0,180.0,5.0,0.0
7291,62.0,0.0,150.0,7.0,0.0
7292,74.0,0.0,180.0,6.0,0.0
7293,74.0,0.0,180.0,0.0,0.0
7294,50.0,0.0,150.0,10.0,0.0
7295,74.0,204.0,180.0,1.0,0.0
7296,62.0,0.0,150.0,8.0,0.0
7297,50.0,36.0,150.0,4.0,0.0
7298,62.0,0.0,150.0,3.0,0.0
7299,62.0,0.0,150.0,2.0,0.0
7300,62.0,0.0,150.0,2.0,0.0
7301,50.0,0.0,150.0,10.0,0.0
7302,74.0,204.0,180.0,6.0,0.0
7303,74.0,0.0,180.0,1.0,0.0
7304,62.0,36.0,150.0,8.0,0.0
7305,50.0,0.0,150.0,4.0,0.0
7306,62.0,0.0,150.0,7.0,0.0
7307,62.0,0.0,150.0,3.0,0.0
7308,74.0,0.0,180.0,0.0,0.0
7309,74.0,0.0,180.0,5.0,0.0
7310,74.0,0.0,180.0,5.0,0.0
7311,62.0,36.0,150.0,3.0,0.0
7312,74.0,0.0,180.0,1.0,0.0
7313,50.0,0.0,150.0,4.0,0.0
7314,62.0,0.0,150.0,7.0,0.0
7315,62.0,0.0,150.0,8.0,0.0
7316,50.0,0.0,150.0,10.0,0.0
7317,74.0,0.0,180.0,0.0,0.0
7318,74.0,288.0,180.0,6.0,0.0
7319,62.0,0.0,150.0,2.0,0.0
7320,74.0,0.0,240.0,5.0,0.0
7321,74.0,0.0,240.0,0.0,0.0
7322,62.0,0.0,240.0,2.0,0.0
7323,62.0,0.0,240.0,8.0,0.0
7324,74.0,156.0,240.0,6.0,0.0
7325,74.0,0.0,240.0,1.0,0.0
7326,50.0,0.0,240.0,4.0,0.0
7327,50.0,0.0,240.0,10.0,0.0
7328,62.0,0.0,240.0,7.0,0.0
7329,62.0,0.0,240.0,3.0,0.0
7330,71.0,0.0,180.0,1.0,0.0
7331,47.0,0.0,150.0,10.0,0.0
7332,59.0,0.0,150.0,7.0,0.0
7333,47.0,0.0,150.0,4.0,0.0
7334,71.0,204.0,180.0,5.0,0.0
7335,59.0,0.0,150.0,2.0,0.0
7336,71.0,0.0,180.0,0.0,0.0
7337,59.0,0.0,150.0,3.0,0.0
7338,59.0,36.0,150.0,8.0,0.0
7339,71.0,0.0,180.0,6.0,0.0
7340,71.0,0.0,180.0,0.0,0.0
7341,71.0,0.0,180.0,5.0,0.0
7342,59.0,0.0,150.0,8.0,0.0
7343,59.0,0.0,150.0,7.0,0.0
7344,71.0,204.0,180.0,6.0,0.0
7345,47.0,0.0,150.0,4.0,0.0
7346,59.0,0.0,150.0,2.0,0.0
7347,59.0,0.0,150.0,3.0,0.0
7348,71.0,0.0,180.0,1.0,0.0
7349,47.0,36.0,150.0,10.0,0.0
7350,71.0,0.0,180.0,0.0,0.0
7351,47.0,0.0,150.0,10.0,0.0
7352,59.0,36.0,150.0,7.0,0.0
7353,47.0,0.0,150.0,4.0,0.0
7354,71.0,288.0,180.0,5.0,0.0
7355,59.0,0.0,150.0,3.0,0.0
7356,59.0,0.0,150.0,2.0,0.0
7357,71.0,0.0,180.0,6.0,0.0
7358,59.0,0.0,150.0,8.0,0.0
7359,71.0,0.0,180.0,1.0,0.0
7360,59.0,0.0,240.0,7.0,0.0
7361,47.0,0.0,240.0,10.0,0.0
7362,59.0,0.0,240.0,8.0,0.0
7363,71.0,0.0,240.0,1.0,0.0
7364,59.0,0.0,240.0,2.0,0.0
7365,71.0,0.0,240.0,6.0,0.0
7366,71.0,0.0,240.0,5.0,0.0
7367,47.0,0.0,240.0,4.0,0.0
7368,59.0,0.0,240.0,3.0,0.0
7369,71.0,156.0,240.0,0.0,0.0
7370,67.0,0.0,180.0,5.0,0.0
7371,55.0,0.0,150.0,3.0,0.0
7372,55.0,0.0,150.0,2.0,0.0
7373,43.0,0.0,150.0,10.0,0.0
7374,43.0,36.0,150.0,4.0,0.0
7375,55.0,0.0,150.0,8.0,0.0
7376,67.0,204.0,180.0,1.0,0.0
7377,55.0,0.0,150.0,7.0,0.0
7378,67.0,0.0,180.0,6.0,0.0
7379,67.0,0.0,180.0,0.0,0.0
7380,43.0,84.0,150.0,4.0,0.0
7381,67.0,0.0,240.0,0.0,0.0
7382,55.0,0.0,150.0,8.0,0.0
7383,67.0,156.0,240.0,5.0,0.0
7384,55.0,0.0,150.0,3.0,0.0
7385,55.0,0.0,150.0,7.0,0.0
7386,55.0,0.0,150.0,2.0,0.0
7387,67.0,0.0,240.0,6.0,0.0
7388,43.0,0.0,150.0,10.0,0.0
7389,67.0,0.0,240.0,1.0,0.0
7390,53.0,0.0,150.0,8.0,0.0
7391,65.0,0.0,180.0,0.0,0.0
7392,41.0,0.0,150.0,4.0,0.0
7393,53.0,0.0,150.0,7.0,0.0
7394,65.0,0.0,180.0,6.0,0.0
7395,53.0,0.0,150.0,2.0,0.0
7396,53.0,36.0,150.0,3.0,0.0
7397,65.0,0.0,180.0,1.0,0.0
7398,41.0,0.0,150.0,10.0,0.0
7399,65.0,204.0,180.0,5.0,0.0
7400,66.0,108.0,300.0,5.0,0.0
7401,54.0,0.0,150.0,7.0,0.0
7402,54.0,0.0,150.0,2.0,0.0
7403,42.0,0.0,150.0,4.0,0.0
7404,66.0,0.0,300.0,1.0,0.0
7405,42.0,0.0,150.0,10.0,0.0
7406,66.0,0.0,300.0,0.0,0.0
7407,54.0,0.0,150.0,8.0,0.0
7408,66.0,0.0,300.0,6.0,0.0
7409,54.0,132.0,150.0,3.0,0.0
7410,66.0,0.0,150.0,2.0,0.0
7411,66.0,0.0,150.0,3.0,0.0
7412,54.0,0.0,150.0,4.0,0.0
7413,54.0,240.0,150.0,10.0,0.0
7414,66.0,0.0,150.0,8.0,0.0
7415,66.0,0.0,150.0,7.0,0.0
7416,52.0,0.0,150.0,4.0,0.0
7417,66.0,0.0,300.0,6.0,0.0
7418,73.0,0.0,300.0,6.0,0.0
7419,73.0,0.0,390.0,5.0,0.0
7420,82.0,96.0,300.0,5.0,0.0
7421,64.0,0.0,150.0,3.0,0.0
7422,64.0,132.0,150.0,2.0,0.0
7423,66.0,0.0,390.0,5.0,0.0
7424,82.0,0.0,300.0,6.0,0.0
7425,64.0,0.0,150.0,8.0,0.0
7426,64.0,0.0,150.0,7.0,0.0
7427,73.0,12.0,390.0,0.0,0.0
7428,66.0,0.0,300.0,1.0,0.0
7429,82.0,0.0,300.0,0.0,0.0
7430,73.0,0.0,300.0,1.0,0.0
7431,82.0,0.0,300.0,1.0,0.0
7432,52.0,0.0,150.0,10.0,0.0
7433,66.0,0.0,390.0,0.0,0.0
7434,54.0,0.0,150.0,4.0,0.0
7435,66.0,0.0,150.0,2.0,0.0
7436,66.0,0.0,150.0,8.0,0.0
7437,66.0,0.0,150.0,3.0,0.0
7438,54.0,0.0,150.0,10.0,0.0
7439,66.0,240.0,150.0,7.0,0.0
7440,83.0,0.0,300.0,6.0,0.0
7441,74.0,0.0,300.0,6.0,0.0
7442,66.0,0.0,300.0,6.0,0.0
7443,62.0,132.0,150.0,7.0,0.0
7444,62.0,0.0,150.0,3.0,0.0
7445,66.0,12.0,390.0,5.0,0.0
7446,83.0,0.0,300.0,5.0,0.0
7447,74.0,0.0,390.0,5.0,0.0
7448,50.0,0.0,150.0,10.0,0.0
7449,74.0,0.0,390.0,0.0,0.0
7450,83.0,0.0,300.0,0.0,0.0
7451,66.0,0.0,390.0,0.0,0.0
7452,66.0,96.0,300.0,1.0,0.0
7453,83.0,0.0,300.0,1.0,0.0
7454,74.0,0.0,300.0,1.0,0.0
7455,62.0,0.0,150.0,8.0,0.0
7456,50.0,0.0,150.0,4.0,0.0
7457,62.0,0.0,150.0,2.0,0.0
7458,66.0,0.0,150.0,8.0,0.0
7459,54.0,0.0,150.0,10.0,0.0
7460,66.0,0.0,150.0,2.0,0.0
7461,66.0,0.0,150.0,7.0,0.0
7462,66.0,240.0,150.0,3.0,0.0
7463,54.0,0.0,150.0,4.0,0.0
7464,86.0,12.0,390.0,5.0,0.0
7465,62.0,0.0,150.0,7.0,0.0
7466,86.0,0.0,390.0,0.0,0.0
7467,50.0,0.0,150.0,10.0,0.0
7468,74.0,0.0,300.0,6.0,0.0
7469,83.0,0.0,300.0,6.0,0.0
7470,50.0,0.0,150.0,4.0,0.0
7471,62.0,0.0,150.0,2.0,0.0
7472,62.0,0.0,150.0,8.0,0.0
7473,66.0,0.0,300.0,1.0,0.0
7474,83.0,0.0,300.0,1.0,0.0
7475,74.0,0.0,300.0,1.0,0.0
7476,66.0,96.0,300.0,6.0,0.0
7477,62.0,132.0,150.0,3.0,0.0
7478,59.0,0.0,150.0,3.0,0.0
7479,47.0,372.0,150.0,10.0,0.0
7480,59.0,0.0,150.0,8.0,0.0
7481,47.0,0.0,150.0,4.0,0.0
7482,59.0,0.0,150.0,2.0,0.0
7483,59.0,0.0,150.0,7.0,0.0
7484,66.0,0.0,300.0,8.0,0.0
7485,66.0,0.0,300.0,2.0,0.0
7486,90.0,384.0,390.0,5.0,0.0
7487,66.0,0.0,300.0,1.0,0.0
7488,66.0,0.0,300.0,7.0,0.0
7489,73.0,0.0,300.0,1.0,0.0
7490,54.0,0.0,300.0,10.0,0.0
7491,66.0,0.0,300.0,3.0,0.0
7492,82.0,0.0,300.0,1.0,0.0
7493,54.0,0.0,300.0,4.0,0.0
7494,66.0,0.0,300.0,6.0,0.0
7495,90.0,0.0,390.0,0.0,0.0
7496,82.0,0.0,300.0,6.0,0.0
7497,73.0,96.0,300.0,6.0,0.0
7498,66.0,0.0,300.0,5.0,0.0
7499,66.0,0.0,300.0,1.0,0.0
7500,54.0,0.0,300.0,8.0,0.0
7501,54.0,0.0,300.0,2.0,0.0
7502,54.0,0.0,300.0,3.0,0.0
7503,66.0,0.0,300.0,6.0,0.0
7504,66.0,0.0,300.0,0.0,0.0
7505,42.0,0.0,300.0,4.0,0.0
7506,42.0,480.0,300.0,10.0,0.0
7507,54.0,0.0,300.0,7.0,0.0
7508,66.0,0.0,300.0,1.0,0.0
7509,66.0,0.0,300.0,6.0,0.0
7510,42.0,0.0,300.0,4.0,0.0
7511,66.0,0.0,300.0,0.0,0.0
7512,54.0,1632.0,300.0,8.0,0.0
7513,66.0,0.0,300.0,5.0,0.0
7514,54.0,0.0,300.0,7.0,0.0
7515,54.0,0.0,300.0,3.0,0.0
7516,42.0,0.0,300.0,10.0,0.0
7517,54.0,0.0,300.0,2.0,0.0
7518,78.0,0.0,960.0,5.0,0.0
7519,78.0,0.0,960.0,0.0,0.0
7520,63.0,0.0,480.0,6.0,0.0
7521,59.0,0.0,480.0,2.0,0.0
7522,59.0,0.0,480.0,7.0,0.0
7523,63.0,192.0,480.0,1.0,0.0
7524,61.0,480.0,180.0,7.0,0.0
7525,61.0,0.0,180.0,2.0,0.0
7526,64.0,0.0,180.0,1.0,0.0
7527,70.0,0.0,180.0,5.0,0.0
7528,70.0,0.0,180.0,0.0,0.0
7529,64.0,0.0,180.0,6.0,0.0
7530,63.0,0.0,180.0,2.0,0.0
7531,71.0,0.0,180.0,5.0,0.0
7532,66.0,0.0,180.0,1.0,0.0
7533,66.0,0.0,180.0,6.0,0.0
7534,63.0,0.0,180.0,7.0,0.0
7535,71.0,480.0,180.0,0.0,0.0
7536,64.0,0.0,180.0,2.0,0.0
7537,73.0,0.0,180.0,5.0,0.0
7538,68.0,0.0,180.0,1.0,0.0
7539,64.0,480.0,180.0,7.0,0.0
7540,68.0,0.0,180.0,6.0,0.0
7541,73.0,0.0,180.0,0.0,0.0
7542,75.0,0.0,180.0,0.0,0.0
7543,66.0,0.0,180.0,7.0,0.0
7544,70.0,0.0,180.0,1.0,0.0
7545,75.0,0.0,180.0,5.0,0.0
7546,70.0,480.0,180.0,6.0,0.0
7547,66.0,0.0,180.0,2.0,0.0
7548,68.0,0.0,180.0,2.0,0.0
7549,71.0,0.0,180.0,6.0,0.0
7550,76.0,0.0,180.0,5.0,0.0
7551,71.0,0.0,180.0,1.0,0.0
7552,76.0,0.0,180.0,0.0,0.0
7553,68.0,480.0,180.0,7.0,0.0
7554,70.0,528.0,180.0,7.0,0.0
7555,73.0,0.0,180.0,6.0,0.0
7556,70.0,0.0,180.0,2.0,0.0
7557,73.0,0.0,180.0,1.0,0.0
7558,71.0,0.0,240.0,1.0,0.0
7559,71.0,0.0,300.0,7.0,0.0
7560,71.0,168.0,300.0,2.0,0.0
7561,75.0,0.0,240.0,5.0,0.0
7562,71.0,0.0,240.0,6.0,0.0
7563,75.0,72.0,240.0,0.0,0.0
7564,76.0,0.0,240.0,5.0,0.0
7565,73.0,0.0,240.0,1.0,0.0
7566,73.0,0.0,240.0,6.0,0.0
7567,76.0,240.0,240.0,0.0,0.0
7568,77.0,0.0,240.0,5.0,0.0
7569,74.0,0.0,240.0,1.0,0.0
7570,74.0,240.0,240.0,6.0,0.0
7571,77.0,0.0,240.0,0.0,0.0
7572,78.0,0.0,240.0,5.0,0.0
7573,75.0,240.0,240.0,1.0,0.0
7574,78.0,0.0,240.0,0.0,0.0
7575,75.0,0.0,240.0,6.0,0.0
7576,79.0,0.0,240.0,5.0,0.0
7577,52.0,168.0,300.0,2.0,0.0
7578,79.0,0.0,240.0,0.0,0.0
7579,70.0,72.0,240.0,6.0,0.0
7580,52.0,0.0,300.0,7.0,0.0
7581,70.0,0.0,240.0,1.0,0.0
7582,71.0,0.0,240.0,1.0,0.0
7583,80.0,0.0,240.0,0.0,0.0
7584,71.0,0.0,240.0,6.0,0.0
7585,80.0,240.0,240.0,5.0,0.0
7586,76.0,192.0,240.0,5.0,0.0
7587,68.0,0.0,240.0,6.0,0.0
7588,68.0,0.0,240.0,1.0,0.0
7589,76.0,0.0,240.0,0.0,0.0
7590,64.0,240.0,180.0,1.0,0.0
7591,73.0,0.0,180.0,0.0,0.0
7592,64.0,0.0,180.0,6.0,0.0
7593,73.0,0.0,180.0,5.0,0.0
7594,54.0,0.0,180.0,7.0,0.0
7595,63.0,0.0,960.0,1.0,0.0
7596,71.0,192.0,960.0,0.0,0.0
7597,54.0,240.0,180.0,2.0,0.0
7598,71.0,0.0,960.0,5.0,0.0
7599,63.0,0.0,960.0,6.0,0.0
7600,53.0,240.0,180.0,2.0,0.0
7601,53.0,0.0,180.0,7.0,0.0
7602,54.0,240.0,180.0,2.0,0.0
7603,54.0,0.0,180.0,7.0,0.0
7604,53.0,48.0,180.0,7.0,0.0
7605,53.0,0.0,180.0,2.0,0.0
7606,54.0,0.0,180.0,7.0,0.0
7607,61.0,0.0,390.0,1.0,0.0
7608,70.0,0.0,390.0,5.0,0.0
7609,70.0,0.0,390.0,0.0,0.0
7610,61.0,48.0,390.0,6.0,0.0
7611,54.0,192.0,180.0,2.0,0.0
7612,55.0,0.0,180.0,2.0,0.0
7613,55.0,240.0,180.0,7.0,0.0
7614,56.0,0.0,180.0,7.0,0.0
7615,56.0,240.0,180.0,2.0,0.0
7616,58.0,240.0,180.0,7.0,0.0
7617,58.0,0.0,180.0,2.0,0.0
7618,78.0,0.0,960.0,0.0,0.0
7619,59.0,0.0,180.0,2.0,0.0
7620,59.0,768.0,180.0,7.0,0.0
7621,66.0,0.0,1140.0,1.0,0.0
7622,78.0,0.0,960.0,5.0,0.0
7623,66.0,0.0,1140.0,6.0,0.0
7624,63.0,192.0,480.0,7.0,0.0
7625,47.0,0.0,480.0,8.0,0.0
7626,63.0,0.0,480.0,2.0,0.0
7627,47.0,0.0,480.0,3.0,0.0
7628,35.0,0.0,480.0,4.0,0.0
7629,35.0,0.0,480.0,10.0,0.0
7630,64.0,0.0,180.0,2.0,0.0
7631,49.0,480.0,180.0,3.0,0.0
7632,37.0,0.0,180.0,10.0,0.0
7633,49.0,0.0,180.0,8.0,0.0
7634,37.0,0.0,180.0,4.0,0.0
7635,70.0,0.0,180.0,0.0,0.0
7636,64.0,0.0,180.0,7.0,0.0
7637,70.0,0.0,180.0,5.0,0.0
7638,39.0,0.0,180.0,4.0,0.0
7639,71.0,0.0,180.0,0.0,0.0
7640,39.0,0.0,180.0,10.0,0.0
7641,59.0,0.0,180.0,6.0,0.0
7642,54.0,0.0,180.0,7.0,0.0
7643,59.0,480.0,180.0,1.0,0.0
7644,51.0,0.0,180.0,8.0,0.0
7645,54.0,0.0,180.0,2.0,0.0
7646,71.0,0.0,180.0,5.0,0.0
7647,51.0,0.0,180.0,3.0,0.0
7648,73.0,0.0,180.0,0.0,0.0
7649,56.0,0.0,180.0,2.0,0.0
7650,52.0,0.0,180.0,8.0,0.0
7651,56.0,480.0,180.0,7.0,0.0
7652,61.0,0.0,180.0,1.0,0.0
7653,52.0,0.0,180.0,3.0,0.0
7654,61.0,0.0,180.0,6.0,0.0
7655,40.0,0.0,180.0,10.0,0.0
7656,40.0,0.0,180.0,4.0,0.0
7657,73.0,0.0,180.0,5.0,0.0
7658,54.0,0.0,180.0,8.0,0.0
7659,58.0,0.0,180.0,2.0,0.0
7660,63.0,0.0,180.0,1.0,0.0
7661,58.0,0.0,180.0,7.0,0.0
7662,75.0,0.0,180.0,5.0,0.0
7663,42.0,0.0,180.0,10.0,0.0
7664,54.0,0.0,180.0,3.0,0.0
7665,42.0,0.0,180.0,4.0,0.0
7666,63.0,0.0,180.0,6.0,0.0
7667,75.0,480.0,180.0,0.0,0.0
7668,64.0,0.0,180.0,6.0,0.0
7669,44.0,0.0,180.0,4.0,0.0
7670,59.0,0.0,180.0,7.0,0.0
7671,59.0,0.0,180.0,2.0,0.0
7672,44.0,0.0,180.0,10.0,0.0
7673,56.0,0.0,180.0,8.0,0.0
7674,76.0,0.0,180.0,0.0,0.0
7675,64.0,480.0,180.0,1.0,0.0
7676,56.0,0.0,180.0,3.0,0.0
7677,76.0,0.0,180.0,5.0,0.0
7678,58.0,0.0,180.0,8.0,0.0
7679,46.0,576.0,180.0,10.0,0.0
7680,61.0,0.0,180.0,2.0,0.0
7681,58.0,0.0,180.0,3.0,0.0
7682,61.0,0.0,180.0,7.0,0.0
7683,46.0,0.0,180.0,4.0,0.0
7684,59.0,0.0,300.0,8.0,0.0
7685,47.0,0.0,300.0,10.0,0.0
7686,47.0,0.0,300.0,4.0,0.0
7687,63.0,0.0,480.0,6.0,0.0
7688,63.0,0.0,480.0,1.0,0.0
7689,75.0,480.0,480.0,5.0,0.0
7690,66.0,0.0,300.0,2.0,0.0
7691,59.0,0.0,300.0,3.0,0.0
7692,66.0,192.0,300.0,7.0,0.0
7693,75.0,0.0,480.0,0.0,0.0
7694,75.0,0.0,960.0,1.0,0.0
7695,44.0,480.0,480.0,4.0,0.0
7696,75.0,0.0,960.0,6.0,0.0
7697,44.0,0.0,480.0,10.0,0.0
7698,83.0,0.0,960.0,0.0,0.0
7699,68.0,0.0,960.0,7.0,0.0
7700,56.0,0.0,480.0,3.0,0.0
7701,68.0,0.0,960.0,2.0,0.0
7702,56.0,0.0,480.0,8.0,0.0
7703,83.0,0.0,960.0,5.0,0.0
7704,59.0,0.0,480.0,3.0,0.0
7705,59.0,0.0,480.0,8.0,0.0
7706,47.0,0.0,480.0,10.0,0.0
7707,47.0,384.0,480.0,4.0,0.0
7708,77.0,0.0,390.0,5.0,0.0
7709,68.0,0.0,390.0,6.0,0.0
7710,49.0,0.0,390.0,10.0,0.0
7711,77.0,0.0,390.0,0.0,0.0
7712,71.0,0.0,390.0,7.0,0.0
7713,71.0,0.0,390.0,2.0,0.0
7714,68.0,288.0,390.0,1.0,0.0
7715,61.0,0.0,390.0,8.0,0.0
7716,61.0,0.0,390.0,3.0,0.0
7717,49.0,0.0,390.0,4.0,0.0
7718,80.0,0.0,960.0,0.0,0.0
7719,54.0,0.0,180.0,8.0,0.0
7720,54.0,0.0,180.0,3.0,0.0
7721,77.0,0.0,960.0,2.0,0.0
7722,71.0,0.0,960.0,6.0,0.0
7723,77.0,0.0,960.0,7.0,0.0
7724,42.0,240.0,180.0,4.0,0.0
7725,80.0,0.0,960.0,5.0,0.0
7726,71.0,192.0,960.0,1.0,0.0
7727,42.0,0.0,180.0,10.0,0.0
7728,54.0,0.0,180.0,8.0,0.0
7729,42.0,0.0,180.0,10.0,0.0
7730,54.0,240.0,180.0,3.0,0.0
7731,42.0,0.0,180.0,4.0,0.0
7732,54.0,240.0,180.0,3.0,0.0
7733,42.0,0.0,180.0,10.0,0.0
7734,42.0,0.0,180.0,4.0,0.0
7735,54.0,0.0,180.0,8.0,0.0
7736,54.0,0.0,180.0,3.0,0.0
7737,42.0,48.0,180.0,4.0,0.0
7738,54.0,0.0,180.0,8.0,0.0
7739,42.0,0.0,180.0,10.0,0.0
7740,42.0,0.0,180.0,10.0,0.0
7741,78.0,0.0,390.0,0.0,0.0
7742,78.0,48.0,390.0,5.0,0.0
7743,54.0,0.0,180.0,8.0,0.0
7744,70.0,0.0,390.0,6.0,0.0
7745,78.0,72.0,300.0,2.0,0.0
7746,78.0,0.0,300.0,7.0,0.0
7747,42.0,120.0,180.0,4.0,0.0
7748,54.0,0.0,180.0,3.0,0.0
7749,70.0,0.0,390.0,1.0,0.0
7750,42.0,240.0,180.0,10.0,0.0
7751,42.0,0.0,180.0,4.0,0.0
7752,54.0,0.0,180.0,8.0,0.0
7753,54.0,0.0,180.0,3.0,0.0
7754,42.0,0.0,180.0,4.0,0.0
7755,42.0,0.0,180.0,10.0,0.0
7756,54.0,0.0,180.0,3.0,0.0
7757,54.0,240.0,180.0,8.0,0.0
7758,42.0,0.0,180.0,10.0,0.0
7759,54.0,0.0,180.0,3.0,0.0
7760,54.0,240.0,180.0,8.0,0.0
7761,42.0,0.0,180.0,4.0,0.0
7762,54.0,0.0,180.0,8.0,0.0
7763,80.0,0.0,240.0,5.0,0.0
7764,42.0,48.0,180.0,10.0,0.0
7765,54.0,0.0,180.0,3.0,0.0
7766,42.0,0.0,180.0,4.0,0.0
7767,80.0,156.0,240.0,0.0,0.0
7768,78.0,0.0,150.0,5.0,0.0
7769,78.0,36.0,150.0,0.0,0.0
7770,54.0,0.0,180.0,3.0,0.0
7771,42.0,0.0,180.0,4.0,0.0
7772,42.0,204.0,180.0,10.0,0.0
7773,54.0,0.0,180.0,8.0,0.0
7774,76.0,36.0,150.0,5.0,0.0
7775,54.0,0.0,180.0,3.0,0.0
7776,42.0,0.0,180.0,10.0,0.0
7777,54.0,204.0,180.0,8.0,0.0
7778,76.0,0.0,150.0,0.0,0.0
7779,42.0,0.0,180.0,4.0,0.0
7780,75.0,36.0,150.0,5.0,0.0
7781,42.0,0.0,180.0,4.0,0.0
7782,42.0,0.0,180.0,10.0,0.0
7783,54.0,0.0,180.0,3.0,0.0
7784,54.0,240.0,180.0,8.0,0.0
7785,75.0,0.0,150.0,0.0,0.0
7786,54.0,120.0,180.0,3.0,0.0
7787,42.0,0.0,180.0,10.0,0.0
7788,73.0,0.0,300.0,0.0,0.0
7789,73.0,120.0,300.0,5.0,0.0
7790,54.0,0.0,180.0,8.0,0.0
7791,42.0,0.0,180.0,4.0,0.0
7792,42.0,0.0,180.0,10.0,0.0
7793,42.0,240.0,180.0,4.0,0.0
7794,54.0,0.0,180.0,8.0,0.0
7795,54.0,0.0,180.0,3.0,0.0
7796,42.0,0.0,180.0,4.0,0.0
7797,73.0,0.0,300.0,5.0,0.0
7798,54.0,120.0,180.0,8.0,0.0
7799,73.0,120.0,300.0,0.0,0.0
7800,54.0,0.0,180.0,3.0,0.0
7801,42.0,0.0,180.0,10.0,0.0
7802,42.0,0.0,180.0,10.0,0.0
7803,42.0,240.0,180.0,4.0,0.0
7804,54.0,0.0,180.0,8.0,0.0
7805,54.0,0.0,180.0,3.0,0.0
7806,42.0,0.0,180.0,10.0,0.0
7807,76.0,0.0,240.0,5.0,0.0
7808,68.0,0.0,240.0,1.0,0.0
7809,68.0,156.0,240.0,6.0,0.0
7810,42.0,48.0,180.0,4.0,0.0
7811,54.0,0.0,180.0,3.0,0.0
7812,54.0,0.0,180.0,8.0,0.0
7813,76.0,0.0,240.0,0.0,0.0
7814,75.0,36.0,150.0,5.0,0.0
7815,66.0,0.0,180.0,1.0,0.0
7816,66.0,0.0,180.0,6.0,0.0
7817,54.0,0.0,180.0,3.0,0.0
7818,54.0,204.0,180.0,8.0,0.0
7819,42.0,0.0,180.0,10.0,0.0
7820,75.0,0.0,150.0,0.0,0.0
7821,42.0,0.0,180.0,4.0,0.0
7822,73.0,0.0,150.0,0.0,0.0
7823,54.0,0.0,180.0,3.0,0.0
7824,64.0,0.0,180.0,1.0,0.0
7825,42.0,0.0,180.0,4.0,0.0
7826,42.0,204.0,180.0,10.0,0.0
7827,54.0,0.0,180.0,8.0,0.0
7828,73.0,36.0,150.0,5.0,0.0
7829,64.0,0.0,180.0,6.0,0.0
7830,71.0,0.0,150.0,0.0,0.0
7831,71.0,36.0,150.0,5.0,0.0
7832,54.0,0.0,180.0,3.0,0.0
7833,63.0,240.0,180.0,1.0,0.0
7834,63.0,0.0,180.0,6.0,0.0
7835,42.0,0.0,180.0,10.0,0.0
7836,42.0,0.0,180.0,4.0,0.0
7837,54.0,0.0,180.0,8.0,0.0
7838,54.0,0.0,180.0,8.0,0.0
7839,70.0,120.0,300.0,5.0,0.0
7840,61.0,24.0,300.0,1.0,0.0
7841,61.0,0.0,300.0,6.0,0.0
7842,70.0,0.0,300.0,0.0,0.0
7843,42.0,0.0,180.0,10.0,0.0
7844,54.0,0.0,180.0,3.0,0.0
7845,42.0,96.0,180.0,4.0,0.0
7846,54.0,0.0,180.0,3.0,0.0
7847,42.0,0.0,180.0,10.0,0.0
7848,54.0,240.0,180.0,8.0,0.0
7849,42.0,0.0,180.0,4.0,0.0
7850,61.0,0.0,300.0,1.0,0.0
7851,61.0,144.0,300.0,6.0,0.0
7852,42.0,96.0,180.0,10.0,0.0
7853,42.0,0.0,180.0,4.0,0.0
7854,54.0,0.0,180.0,8.0,0.0
7855,54.0,0.0,180.0,3.0,0.0
7856,54.0,0.0,180.0,3.0,0.0
7857,54.0,0.0,180.0,8.0,0.0
7858,42.0,240.0,180.0,10.0,0.0
7859,42.0,0.0,180.0,4.0,0.0
7860,80.0,156.0,240.0,5.0,0.0
7861,54.0,0.0,180.0,8.0,0.0
7862,58.0,0.0,240.0,2.0,0.0
7863,54.0,48.0,180.0,3.0,0.0
7864,58.0,0.0,240.0,7.0,0.0
7865,42.0,0.0,180.0,4.0,0.0
7866,76.0,0.0,240.0,6.0,0.0
7867,76.0,0.0,240.0,1.0,0.0
7868,42.0,0.0,180.0,10.0,0.0
7869,80.0,0.0,240.0,0.0,0.0
7870,78.0,0.0,150.0,0.0,0.0
7871,42.0,0.0,180.0,4.0,0.0
7872,75.0,0.0,180.0,6.0,0.0
7873,42.0,0.0,180.0,10.0,0.0
7874,59.0,0.0,180.0,7.0,0.0
7875,75.0,204.0,180.0,1.0,0.0
7876,59.0,0.0,180.0,2.0,0.0
7877,54.0,0.0,180.0,3.0,0.0
7878,78.0,36.0,150.0,5.0,0.0
7879,54.0,0.0,180.0,8.0,0.0
7880,76.0,36.0,150.0,5.0,0.0
7881,54.0,0.0,180.0,3.0,0.0
7882,54.0,0.0,180.0,8.0,0.0
7883,42.0,0.0,180.0,10.0,0.0
7884,42.0,0.0,180.0,4.0,0.0
7885,73.0,0.0,180.0,1.0,0.0
7886,61.0,0.0,180.0,2.0,0.0
7887,73.0,0.0,180.0,6.0,0.0
7888,76.0,0.0,150.0,0.0,0.0
7889,61.0,204.0,180.0,7.0,0.0
7890,63.0,0.0,180.0,7.0,0.0
7891,42.0,0.0,180.0,10.0,0.0
7892,71.0,0.0,180.0,6.0,0.0
7893,42.0,0.0,180.0,4.0,0.0
7894,75.0,0.0,150.0,5.0,0.0
7895,54.0,204.0,180.0,3.0,0.0
7896,75.0,36.0,150.0,0.0,0.0
7897,71.0,0.0,180.0,1.0,0.0
7898,54.0,0.0,180.0,8.0,0.0
7899,63.0,0.0,180.0,2.0,0.0
7900,73.0,0.0,150.0,5.0,0.0
7901,64.0,0.0,390.0,7.0,0.0
7902,54.0,192.0,180.0,3.0,0.0
7903,42.0,0.0,180.0,4.0,0.0
7904,73.0,36.0,150.0,0.0,0.0
7905,54.0,0.0,180.0,8.0,0.0
7906,64.0,0.0,390.0,2.0,0.0
7907,70.0,0.0,390.0,1.0,0.0
7908,42.0,0.0,180.0,10.0,0.0
7909,70.0,12.0,390.0,6.0,0.0
7910,42.0,0.0,180.0,4.0,0.0
7911,73.0,0.0,150.0,5.0,0.0
7912,42.0,204.0,180.0,10.0,0.0
7913,73.0,36.0,150.0,0.0,0.0
7914,54.0,0.0,180.0,8.0,0.0
7915,54.0,0.0,180.0,3.0,0.0
7916,54.0,0.0,180.0,3.0,0.0
7917,42.0,0.0,180.0,4.0,0.0
7918,54.0,0.0,180.0,8.0,0.0
7919,73.0,36.0,150.0,0.0,0.0
7920,73.0,0.0,150.0,5.0,0.0
7921,42.0,204.0,180.0,10.0,0.0
7922,42.0,0.0,180.0,4.0,0.0
7923,73.0,36.0,150.0,0.0,0.0
7924,73.0,0.0,150.0,5.0,0.0
7925,54.0,0.0,180.0,3.0,0.0
7926,42.0,0.0,180.0,10.0,0.0
7927,54.0,240.0,180.0,8.0,0.0
7928,54.0,48.0,180.0,8.0,0.0
7929,58.0,192.0,240.0,2.0,0.0
7930,73.0,0.0,240.0,6.0,0.0
7931,42.0,0.0,180.0,4.0,0.0
7932,76.0,0.0,240.0,5.0,0.0
7933,73.0,0.0,240.0,1.0,0.0
7934,76.0,0.0,240.0,0.0,0.0
7935,58.0,0.0,240.0,7.0,0.0
7936,54.0,0.0,180.0,3.0,0.0
7937,42.0,0.0,180.0,10.0,0.0
7938,54.0,0.0,180.0,8.0,0.0
7939,75.0,0.0,180.0,0.0,0.0
7940,75.0,0.0,180.0,5.0,0.0
7941,71.0,0.0,180.0,1.0,0.0
7942,42.0,0.0,180.0,4.0,0.0
7943,59.0,0.0,180.0,2.0,0.0
7944,59.0,0.0,180.0,7.0,0.0
7945,71.0,0.0,180.0,6.0,0.0
7946,42.0,0.0,180.0,10.0,0.0
7947,54.0,240.0,180.0,3.0,0.0
7948,70.0,0.0,180.0,1.0,0.0
7949,73.0,0.0,180.0,5.0,0.0
7950,42.0,0.0,180.0,10.0,0.0
7951,73.0,0.0,180.0,0.0,0.0
7952,54.0,0.0,180.0,3.0,0.0
7953,42.0,0.0,180.0,4.0,0.0
7954,61.0,0.0,180.0,7.0,0.0
7955,61.0,240.0,180.0,2.0,0.0
7956,54.0,0.0,180.0,8.0,0.0
7957,70.0,0.0,180.0,6.0,0.0
7958,63.0,0.0,180.0,2.0,0.0
7959,42.0,288.0,180.0,4.0,0.0
7960,54.0,0.0,180.0,8.0,0.0
7961,68.0,0.0,180.0,6.0,0.0
7962,68.0,0.0,180.0,1.0,0.0
7963,42.0,0.0,180.0,10.0,0.0
7964,71.0,0.0,180.0,0.0,0.0
7965,71.0,0.0,180.0,5.0,0.0
7966,63.0,0.0,180.0,7.0,0.0
7967,54.0,0.0,180.0,3.0,0.0
7968,42.0,0.0,390.0,10.0,0.0
7969,54.0,0.0,390.0,3.0,0.0
7970,70.0,0.0,240.0,5.0,0.0
7971,64.0,0.0,390.0,2.0,0.0
7972,66.0,0.0,390.0,6.0,0.0
7973,70.0,144.0,240.0,0.0,0.0
7974,54.0,0.0,390.0,8.0,0.0
7975,66.0,0.0,390.0,1.0,0.0
7976,42.0,0.0,390.0,4.0,0.0
7977,64.0,96.0,390.0,7.0,0.0
7978,73.0,240.0,240.0,5.0,0.0
7979,73.0,0.0,240.0,0.0,0.0
7980,70.0,0.0,240.0,0.0,0.0
7981,70.0,192.0,240.0,5.0,0.0
7982,73.0,0.0,180.0,0.0,0.0
7983,73.0,288.0,180.0,5.0,0.0
7984,43.0,0.0,960.0,10.0,0.0
7985,43.0,240.0,960.0,4.0,0.0
7986,58.0,0.0,240.0,7.0,0.0
7987,76.0,0.0,240.0,0.0,0.0
7988,55.0,0.0,960.0,3.0,0.0
7989,58.0,0.0,240.0,2.0,0.0
7990,76.0,192.0,240.0,5.0,0.0
7991,55.0,0.0,960.0,8.0,0.0
7992,59.0,240.0,180.0,7.0,0.0
7993,74.0,0.0,180.0,0.0,0.0
7994,74.0,0.0,180.0,5.0,0.0
7995,59.0,0.0,180.0,2.0,0.0
7996,64.0,0.0,300.0,6.0,0.0
7997,61.0,0.0,180.0,7.0,0.0
7998,73.0,96.0,180.0,5.0,0.0
7999,64.0,144.0,300.0,1.0,0.0
8000,61.0,0.0,180.0,2.0,0.0
8001,73.0,0.0,180.0,0.0,0.0
8002,61.0,0.0,180.0,2.0,0.0
8003,71.0,0.0,180.0,5.0,0.0
8004,61.0,0.0,180.0,7.0,0.0
8005,71.0,48.0,180.0,0.0,0.0
8006,70.0,48.0,240.0,5.0,0.0
8007,42.0,0.0,390.0,10.0,0.0
8008,54.0,0.0,390.0,3.0,0.0
8009,61.0,0.0,390.0,2.0,0.0
8010,42.0,0.0,390.0,4.0,0.0
8011,64.0,0.0,300.0,1.0,0.0
8012,70.0,0.0,240.0,0.0,0.0
8013,64.0,96.0,300.0,6.0,0.0
8014,61.0,0.0,390.0,7.0,0.0
8015,54.0,96.0,390.0,8.0,0.0
8016,73.0,240.0,240.0,5.0,0.0
8017,73.0,0.0,240.0,0.0,0.0
8018,70.0,0.0,240.0,5.0,0.0
8019,70.0,192.0,240.0,0.0,0.0
8020,73.0,0.0,180.0,5.0,0.0
8021,73.0,288.0,180.0,0.0,0.0
8022,55.0,0.0,960.0,8.0,0.0
8023,58.0,0.0,240.0,2.0,0.0
8024,76.0,192.0,240.0,0.0,0.0
8025,58.0,0.0,240.0,7.0,0.0
8026,55.0,0.0,960.0,3.0,0.0
8027,43.0,144.0,960.0,4.0,0.0
8028,43.0,0.0,960.0,10.0,0.0
8029,76.0,0.0,240.0,5.0,0.0
8030,59.0,0.0,180.0,2.0,0.0
8031,59.0,0.0,180.0,7.0,0.0
8032,74.0,240.0,180.0,0.0,0.0
8033,74.0,0.0,180.0,5.0,0.0
8034,73.0,0.0,180.0,0.0,0.0
8035,73.0,0.0,180.0,5.0,0.0
8036,64.0,0.0,300.0,6.0,0.0
8037,61.0,96.0,180.0,7.0,0.0
8038,61.0,0.0,180.0,2.0,0.0
8039,64.0,144.0,300.0,1.0,0.0
8040,71.0,0.0,180.0,0.0,0.0
8041,61.0,0.0,180.0,7.0,0.0
8042,61.0,48.0,180.0,2.0,0.0
8043,71.0,0.0,180.0,5.0,0.0
8044,42.0,0.0,390.0,10.0,0.0
8045,64.0,0.0,150.0,6.0,0.0
8046,61.0,0.0,390.0,7.0,0.0
8047,54.0,96.0,390.0,8.0,0.0
8048,70.0,0.0,150.0,5.0,0.0
8049,70.0,0.0,150.0,0.0,0.0
8050,42.0,0.0,390.0,4.0,0.0
8051,64.0,240.0,150.0,1.0,0.0
8052,61.0,0.0,390.0,2.0,0.0
8053,54.0,0.0,390.0,3.0,0.0
8054,82.0,240.0,240.0,1.0,0.0
8055,85.0,0.0,240.0,0.0,0.0
8056,85.0,0.0,240.0,5.0,0.0
8057,82.0,0.0,240.0,6.0,0.0
8058,82.0,192.0,240.0,0.0,0.0
8059,82.0,0.0,240.0,5.0,0.0
8060,78.0,0.0,240.0,1.0,0.0
8061,78.0,0.0,240.0,6.0,0.0
8062,85.0,0.0,180.0,5.0,0.0
8063,82.0,0.0,180.0,1.0,0.0
8064,82.0,288.0,180.0,6.0,0.0
8065,85.0,0.0,180.0,0.0,0.0
8066,88.0,0.0,240.0,0.0,0.0
8067,85.0,0.0,240.0,6.0,0.0
8068,88.0,0.0,240.0,5.0,0.0
8069,85.0,240.0,240.0,1.0,0.0
8070,78.0,0.0,480.0,7.0,0.0
8071,78.0,0.0,480.0,2.0,0.0
8072,82.0,0.0,240.0,6.0,0.0
8073,85.0,240.0,240.0,0.0,0.0
8074,82.0,0.0,240.0,1.0,0.0
8075,85.0,0.0,240.0,5.0,0.0
8076,88.0,240.0,240.0,0.0,0.0
8077,79.0,0.0,480.0,7.0,0.0
8078,79.0,0.0,480.0,2.0,0.0
8079,85.0,0.0,240.0,6.0,0.0
8080,85.0,0.0,240.0,1.0,0.0
8081,88.0,0.0,240.0,5.0,0.0
8082,85.0,0.0,240.0,5.0,0.0
8083,82.0,240.0,240.0,1.0,0.0
8084,82.0,0.0,240.0,6.0,0.0
8085,85.0,0.0,240.0,0.0,0.0
8086,78.0,240.0,480.0,2.0,0.0
8087,88.0,240.0,240.0,5.0,0.0
8088,88.0,0.0,240.0,0.0,0.0
8089,85.0,0.0,240.0,1.0,0.0
8090,85.0,0.0,240.0,6.0,0.0
8091,78.0,0.0,480.0,7.0,0.0
8092,85.0,0.0,240.0,0.0,0.0
8093,82.0,0.0,240.0,1.0,0.0
8094,85.0,0.0,240.0,5.0,0.0
8095,82.0,0.0,240.0,6.0,0.0
8096,85.0,240.0,240.0,1.0,0.0
8097,79.0,0.0,480.0,7.0,0.0
8098,88.0,0.0,240.0,5.0,0.0
8099,79.0,0.0,480.0,2.0,0.0
8100,88.0,0.0,240.0,0.0,0.0
8101,85.0,0.0,240.0,6.0,0.0
8102,85.0,0.0,240.0,0.0,0.0
8103,82.0,0.0,240.0,6.0,0.0
8104,85.0,384.0,240.0,5.0,0.0
8105,82.0,0.0,240.0,1.0,0.0
8106,78.0,0.0,390.0,2.0,0.0
8107,85.0,0.0,390.0,1.0,0.0
8108,78.0,0.0,390.0,7.0,0.0
8109,85.0,960.0,390.0,6.0,0.0
8110,88.0,0.0,390.0,5.0,0.0
8111,88.0,0.0,390.0,0.0,0.0
8112,78.0,240.0,150.0,5.0,0.0
8113,78.0,0.0,150.0,0.0,0.0
8114,83.0,0.0,150.0,0.0,0.0
8115,83.0,240.0,150.0,5.0,0.0
8116,87.0,288.0,150.0,5.0,0.0
8117,87.0,0.0,150.0,0.0,0.0
8118,90.0,144.0,300.0,0.0,0.0
8119,59.0,0.0,780.0,3.0,0.0
8120,90.0,0.0,300.0,5.0,0.0
8121,47.0,0.0,780.0,4.0,0.0
8122,59.0,0.0,780.0,8.0,0.0
8123,63.0,0.0,180.0,1.0,0.0
8124,63.0,0.0,180.0,6.0,0.0
8125,47.0,144.0,780.0,10.0,0.0
8126,59.0,96.0,180.0,2.0,0.0
8127,59.0,0.0,180.0,7.0,0.0
8128,59.0,0.0,180.0,2.0,0.0
8129,59.0,0.0,180.0,7.0,0.0
8130,63.0,0.0,180.0,1.0,0.0
8131,63.0,240.0,180.0,6.0,0.0
8132,63.0,96.0,180.0,2.0,0.0
8133,66.0,0.0,180.0,1.0,0.0
8134,90.0,0.0,300.0,0.0,0.0
8135,63.0,0.0,180.0,7.0,0.0
8136,90.0,0.0,300.0,5.0,0.0
8137,66.0,0.0,180.0,6.0,0.0
8138,66.0,0.0,180.0,1.0,0.0
8139,63.0,0.0,180.0,7.0,0.0
8140,63.0,0.0,180.0,2.0,0.0
8141,66.0,240.0,180.0,6.0,0.0
8142,71.0,96.0,180.0,6.0,0.0
8143,71.0,0.0,180.0,1.0,0.0
8144,66.0,0.0,180.0,7.0,0.0
8145,90.0,144.0,300.0,5.0,0.0
8146,90.0,0.0,300.0,0.0,0.0
8147,66.0,0.0,180.0,2.0,0.0
8148,66.0,240.0,180.0,7.0,0.0
8149,71.0,0.0,180.0,1.0,0.0
8150,66.0,0.0,180.0,2.0,0.0
8151,71.0,0.0,180.0,6.0,0.0
8152,90.0,0.0,300.0,0.0,0.0
8153,90.0,144.0,300.0,5.0,0.0
8154,71.0,0.0,180.0,7.0,0.0
8155,71.0,0.0,180.0,2.0,0.0
8156,75.0,0.0,180.0,1.0,0.0
8157,75.0,96.0,180.0,6.0,0.0
8158,75.0,240.0,180.0,1.0,0.0
8159,75.0,0.0,180.0,6.0,0.0
8160,71.0,0.0,180.0,2.0,0.0
8161,71.0,0.0,180.0,7.0,0.0
8162,54.0,72.0,360.0,8.0,0.0
8163,54.0,0.0,360.0,3.0,0.0
8164,76.0,0.0,180.0,1.0,0.0
8165,73.0,0.0,180.0,2.0,0.0
8166,42.0,0.0,360.0,10.0,0.0
8167,42.0,0.0,360.0,4.0,0.0
8168,76.0,96.0,180.0,6.0,0.0
8169,73.0,0.0,180.0,7.0,0.0
8170,82.0,72.0,300.0,0.0,0.0
8171,82.0,0.0,300.0,5.0,0.0
8172,73.0,240.0,180.0,7.0,0.0
8173,76.0,0.0,180.0,6.0,0.0
8174,73.0,0.0,180.0,2.0,0.0
8175,76.0,0.0,180.0,1.0,0.0
8176,76.0,96.0,180.0,1.0,0.0
8177,73.0,0.0,180.0,7.0,0.0
8178,73.0,0.0,180.0,2.0,0.0
8179,82.0,144.0,300.0,0.0,0.0
8180,76.0,0.0,180.0,6.0,0.0
8181,82.0,0.0,300.0,5.0,0.0
8182,76.0,0.0,180.0,6.0,0.0
8183,73.0,0.0,180.0,2.0,0.0
8184,73.0,240.0,180.0,7.0,0.0
8185,76.0,0.0,180.0,1.0,0.0
8186,75.0,0.0,180.0,6.0,0.0
8187,83.0,0.0,300.0,5.0,0.0
8188,83.0,72.0,300.0,0.0,0.0
8189,59.0,0.0,360.0,3.0,0.0
8190,47.0,0.0,360.0,4.0,0.0
8191,47.0,0.0,360.0,10.0,0.0
8192,75.0,0.0,180.0,1.0,0.0
8193,59.0,72.0,360.0,8.0,0.0
8194,71.0,0.0,180.0,7.0,0.0
8195,71.0,96.0,180.0,2.0,0.0
8196,75.0,128.0,180.0,1.0,0.0
8197,71.0,0.0,180.0,2.0,0.0
8198,71.0,0.0,180.0,7.0,0.0
8199,75.0,0.0,180.0,6.0,0.0
8200,83.0,0.0,90.0,5.0,0.0
8201,71.0,0.0,180.0,2.0,0.0
8202,75.0,0.0,180.0,6.0,0.0
8203,83.0,80.0,90.0,0.0,0.0
8204,75.0,0.0,180.0,1.0,0.0
8205,71.0,48.0,180.0,7.0,0.0
8206,85.0,32.0,90.0,0.0,0.0
8207,85.0,0.0,90.0,5.0,0.0
8208,83.0,120.0,90.0,0.0,0.0
8209,83.0,0.0,90.0,5.0,0.0
8210,75.0,48.0,180.0,1.0,0.0
8211,82.0,72.0,120.0,5.0,0.0
8212,71.0,0.0,180.0,2.0,0.0
8213,82.0,0.0,120.0,0.0,0.0
8214,75.0,0.0,180.0,6.0,0.0
8215,71.0,0.0,180.0,7.0,0.0
8216,83.0,192.0,120.0,0.0,0.0
8217,83.0,0.0,120.0,5.0,0.0
8218,66.0,0.0,180.0,7.0,0.0
8219,88.0,0.0,300.0,0.0,0.0
8220,73.0,0.0,180.0,1.0,0.0
8221,58.0,72.0,360.0,3.0,0.0
8222,66.0,96.0,180.0,2.0,0.0
8223,46.0,0.0,360.0,4.0,0.0
8224,73.0,0.0,180.0,6.0,0.0
8225,46.0,0.0,360.0,10.0,0.0
8226,58.0,0.0,360.0,8.0,0.0
8227,88.0,72.0,300.0,5.0,0.0
8228,73.0,240.0,180.0,6.0,0.0
8229,66.0,0.0,180.0,2.0,0.0
8230,66.0,0.0,180.0,7.0,0.0
8231,73.0,0.0,180.0,1.0,0.0
8232,73.0,0.0,180.0,1.0,0.0
8233,88.0,144.0,300.0,0.0,0.0
8234,88.0,0.0,300.0,5.0,0.0
8235,66.0,0.0,180.0,7.0,0.0
8236,73.0,96.0,180.0,6.0,0.0
8237,66.0,0.0,180.0,2.0,0.0
8238,66.0,0.0,180.0,7.0,0.0
8239,73.0,0.0,180.0,1.0,0.0
8240,73.0,240.0,180.0,6.0,0.0
8241,66.0,0.0,180.0,2.0,0.0
8242,66.0,0.0,180.0,2.0,0.0
8243,59.0,0.0,360.0,8.0,0.0
8244,87.0,72.0,300.0,0.0,0.0
8245,71.0,0.0,180.0,1.0,0.0
8246,66.0,96.0,180.0,7.0,0.0
8247,47.0,0.0,360.0,10.0,0.0
8248,87.0,0.0,300.0,5.0,0.0
8249,71.0,0.0,180.0,6.0,0.0
8250,59.0,0.0,360.0,3.0,0.0
8251,47.0,72.0,360.0,4.0,0.0
8252,71.0,0.0,180.0,6.0,0.0
8253,66.0,240.0,180.0,2.0,0.0
8254,71.0,0.0,180.0,1.0,0.0
8255,66.0,0.0,180.0,7.0,0.0
8256,66.0,0.0,180.0,2.0,0.0
8257,66.0,96.0,180.0,7.0,0.0
8258,87.0,0.0,300.0,0.0,0.0
8259,87.0,144.0,300.0,5.0,0.0
8260,71.0,0.0,180.0,1.0,0.0
8261,71.0,0.0,180.0,6.0,0.0
8262,66.0,240.0,180.0,2.0,0.0
8263,66.0,0.0,180.0,7.0,0.0
8264,71.0,0.0,180.0,1.0,0.0
8265,71.0,0.0,180.0,6.0,0.0
8266,42.0,0.0,390.0,4.0,0.0
8267,70.0,0.0,180.0,1.0,0.0
8268,42.0,48.0,390.0,10.0,0.0
8269,54.0,0.0,390.0,3.0,0.0
8270,85.0,0.0,390.0,5.0,0.0
8271,66.0,0.0,180.0,7.0,0.0
8272,66.0,192.0,180.0,2.0,0.0
8273,54.0,0.0,390.0,8.0,0.0
8274,85.0,0.0,390.0,0.0,0.0
8275,70.0,0.0,180.0,6.0,0.0
8276,68.0,0.0,180.0,7.0,0.0
8277,68.0,240.0,180.0,2.0,0.0
8278,71.0,0.0,180.0,6.0,0.0
8279,71.0,0.0,180.0,1.0,0.0
8280,70.0,0.0,180.0,6.0,0.0
8281,66.0,0.0,180.0,7.0,0.0
8282,70.0,240.0,180.0,1.0,0.0
8283,66.0,0.0,180.0,2.0,0.0
8284,64.0,240.0,180.0,7.0,0.0
8285,64.0,0.0,180.0,2.0,0.0
8286,68.0,0.0,180.0,6.0,0.0
8287,68.0,0.0,180.0,1.0,0.0
8288,63.0,0.0,180.0,7.0,0.0
8289,66.0,0.0,180.0,6.0,0.0
8290,66.0,204.0,180.0,1.0,0.0
8291,63.0,0.0,180.0,2.0,0.0
8292,61.0,204.0,180.0,2.0,0.0
8293,61.0,0.0,180.0,7.0,0.0
8294,66.0,0.0,150.0,0.0,0.0
8295,64.0,0.0,180.0,1.0,0.0
8296,66.0,36.0,150.0,5.0,0.0
8297,64.0,0.0,180.0,6.0,0.0
8298,59.0,204.0,180.0,7.0,0.0
8299,63.0,0.0,180.0,6.0,0.0
8300,59.0,0.0,180.0,2.0,0.0
8301,71.0,36.0,150.0,0.0,0.0
8302,63.0,0.0,180.0,1.0,0.0
8303,71.0,0.0,150.0,5.0,0.0
8304,61.0,0.0,180.0,6.0,0.0
8305,61.0,0.0,180.0,1.0,0.0
8306,75.0,0.0,150.0,5.0,0.0
8307,58.0,240.0,180.0,7.0,0.0
8308,75.0,36.0,150.0,0.0,0.0
8309,58.0,0.0,180.0,2.0,0.0
8310,59.0,96.0,180.0,2.0,0.0
8311,63.0,0.0,180.0,6.0,0.0
8312,47.0,0.0,780.0,3.0,0.0
8313,35.0,0.0,780.0,4.0,0.0
8314,47.0,0.0,780.0,8.0,0.0
8315,78.0,0.0,300.0,5.0,0.0
8316,63.0,0.0,180.0,1.0,0.0
8317,78.0,144.0,300.0,0.0,0.0
8318,35.0,144.0,780.0,10.0,0.0
8319,59.0,0.0,180.0,7.0,0.0
8320,63.0,240.0,180.0,1.0,0.0
8321,59.0,0.0,180.0,7.0,0.0
8322,63.0,0.0,180.0,6.0,0.0
8323,59.0,0.0,180.0,2.0,0.0
8324,54.0,0.0,180.0,2.0,0.0
8325,59.0,0.0,180.0,1.0,0.0
8326,78.0,0.0,300.0,0.0,0.0
8327,78.0,0.0,300.0,5.0,0.0
8328,54.0,96.0,180.0,7.0,0.0
8329,59.0,0.0,180.0,6.0,0.0
8330,54.0,0.0,180.0,2.0,0.0
8331,59.0,240.0,180.0,6.0,0.0
8332,59.0,0.0,180.0,1.0,0.0
8333,54.0,0.0,180.0,7.0,0.0
8334,63.0,0.0,180.0,1.0,0.0
8335,59.0,0.0,180.0,7.0,0.0
8336,78.0,0.0,300.0,0.0,0.0
8337,59.0,0.0,180.0,2.0,0.0
8338,78.0,144.0,300.0,5.0,0.0
8339,63.0,96.0,180.0,6.0,0.0
8340,59.0,0.0,180.0,7.0,0.0
8341,63.0,240.0,180.0,1.0,0.0
8342,59.0,0.0,180.0,2.0,0.0
8343,63.0,0.0,180.0,6.0,0.0
8344,78.0,144.0,300.0,0.0,0.0
8345,63.0,0.0,180.0,2.0,0.0
8346,66.0,0.0,180.0,6.0,0.0
8347,66.0,96.0,180.0,1.0,0.0
8348,63.0,0.0,180.0,7.0,0.0
8349,78.0,0.0,300.0,5.0,0.0
8350,63.0,0.0,180.0,7.0,0.0
8351,66.0,0.0,180.0,6.0,0.0
8352,66.0,0.0,180.0,1.0,0.0
8353,63.0,240.0,180.0,2.0,0.0
8354,54.0,0.0,360.0,3.0,0.0
8355,70.0,72.0,300.0,5.0,0.0
8356,64.0,0.0,180.0,1.0,0.0
8357,61.0,0.0,180.0,2.0,0.0
8358,42.0,0.0,360.0,10.0,0.0
8359,42.0,72.0,360.0,4.0,0.0
8360,54.0,0.0,360.0,8.0,0.0
8361,70.0,0.0,300.0,0.0,0.0
8362,64.0,0.0,180.0,6.0,0.0
8363,61.0,96.0,180.0,7.0,0.0
8364,64.0,128.0,180.0,1.0,0.0
8365,64.0,0.0,180.0,6.0,0.0
8366,61.0,0.0,180.0,2.0,0.0
8367,61.0,0.0,180.0,7.0,0.0
8368,70.0,80.0,90.0,5.0,0.0
8369,61.0,0.0,180.0,7.0,0.0
8370,64.0,0.0,180.0,1.0,0.0
8371,61.0,0.0,180.0,2.0,0.0
8372,70.0,0.0,90.0,0.0,0.0
8373,64.0,48.0,180.0,6.0,0.0
8374,71.0,0.0,90.0,0.0,0.0
8375,71.0,32.0,90.0,5.0,0.0
8376,70.0,120.0,90.0,0.0,0.0
8377,70.0,0.0,90.0,5.0,0.0
8378,68.0,0.0,120.0,5.0,0.0
8379,61.0,0.0,180.0,7.0,0.0
8380,64.0,48.0,180.0,1.0,0.0
8381,68.0,72.0,120.0,0.0,0.0
8382,64.0,0.0,180.0,6.0,0.0
8383,61.0,0.0,180.0,2.0,0.0
8384,70.0,0.0,120.0,5.0,0.0
8385,70.0,192.0,120.0,0.0,0.0
8386,63.0,0.0,180.0,1.0,0.0
8387,44.0,0.0,360.0,4.0,0.0
8388,56.0,0.0,360.0,3.0,0.0
8389,59.0,0.0,180.0,2.0,0.0
8390,63.0,96.0,180.0,6.0,0.0
8391,71.0,72.0,300.0,5.0,0.0
8392,71.0,0.0,300.0,0.0,0.0
8393,59.0,0.0,180.0,7.0,0.0
8394,56.0,72.0,360.0,8.0,0.0
8395,44.0,0.0,360.0,10.0,0.0
8396,59.0,0.0,180.0,7.0,0.0
8397,59.0,0.0,180.0,2.0,0.0
8398,63.0,128.0,180.0,1.0,0.0
8399,63.0,0.0,180.0,6.0,0.0
8400,63.0,0.0,180.0,6.0,0.0
8401,63.0,0.0,180.0,1.0,0.0
8402,71.0,0.0,90.0,5.0,0.0
8403,71.0,80.0,90.0,0.0,0.0
8404,59.0,0.0,180.0,2.0,0.0
8405,59.0,48.0,180.0,7.0,0.0
8406,73.0,0.0,90.0,5.0,0.0
8407,73.0,32.0,90.0,0.0,0.0
8408,71.0,120.0,90.0,5.0,0.0
8409,71.0,0.0,90.0,0.0,0.0
8410,70.0,0.0,120.0,5.0,0.0
8411,63.0,0.0,180.0,1.0,0.0
8412,70.0,72.0,120.0,0.0,0.0
8413,59.0,0.0,180.0,7.0,0.0
8414,59.0,48.0,180.0,2.0,0.0
8415,63.0,0.0,180.0,6.0,0.0
8416,71.0,0.0,120.0,0.0,0.0
8417,71.0,192.0,120.0,5.0,0.0
8418,52.0,0.0,360.0,3.0,0.0
8419,73.0,0.0,300.0,0.0,0.0
8420,52.0,72.0,360.0,8.0,0.0
8421,40.0,0.0,360.0,10.0,0.0
8422,40.0,0.0,360.0,4.0,0.0
8423,68.0,0.0,180.0,6.0,0.0
8424,59.0,0.0,180.0,2.0,0.0
8425,59.0,96.0,180.0,7.0,0.0
8426,68.0,0.0,180.0,1.0,0.0
8427,73.0,72.0,300.0,5.0,0.0
8428,59.0,0.0,180.0,2.0,0.0
8429,68.0,128.0,180.0,1.0,0.0
8430,68.0,0.0,180.0,6.0,0.0
8431,59.0,0.0,180.0,7.0,0.0
8432,73.0,80.0,90.0,5.0,0.0
8433,68.0,0.0,180.0,1.0,0.0
8434,59.0,0.0,180.0,7.0,0.0
8435,73.0,0.0,90.0,0.0,0.0
8436,59.0,0.0,180.0,2.0,0.0
8437,68.0,48.0,180.0,6.0,0.0
8438,75.0,32.0,90.0,0.0,0.0
8439,75.0,0.0,90.0,5.0,0.0
8440,73.0,120.0,90.0,5.0,0.0
8441,73.0,0.0,90.0,0.0,0.0
8442,59.0,0.0,180.0,7.0,0.0
8443,68.0,48.0,180.0,1.0,0.0
8444,68.0,0.0,180.0,6.0,0.0
8445,71.0,0.0,120.0,5.0,0.0
8446,71.0,72.0,120.0,0.0,0.0
8447,59.0,0.0,180.0,2.0,0.0
8448,73.0,192.0,120.0,5.0,0.0
8449,73.0,0.0,120.0,0.0,0.0
8450,54.0,0.0,360.0,8.0,0.0
8451,69.0,0.0,180.0,1.0,0.0
8452,59.0,96.0,180.0,7.0,0.0
8453,42.0,0.0,360.0,4.0,0.0
8454,69.0,0.0,180.0,6.0,0.0
8455,59.0,0.0,180.0,2.0,0.0
8456,42.0,72.0,360.0,10.0,0.0
8457,75.0,0.0,300.0,0.0,0.0
8458,75.0,72.0,300.0,5.0,0.0
8459,54.0,0.0,360.0,3.0,0.0
8460,59.0,0.0,180.0,2.0,0.0
8461,69.0,0.0,180.0,6.0,0.0
8462,69.0,0.0,180.0,1.0,0.0
8463,59.0,128.0,180.0,7.0,0.0
8464,69.0,0.0,180.0,1.0,0.0
8465,75.0,80.0,90.0,5.0,0.0
8466,75.0,0.0,90.0,0.0,0.0
8467,69.0,0.0,180.0,6.0,0.0
8468,59.0,48.0,180.0,7.0,0.0
8469,59.0,0.0,180.0,2.0,0.0
8470,76.0,0.0,90.0,5.0,0.0
8471,76.0,32.0,90.0,0.0,0.0
8472,75.0,0.0,90.0,0.0,0.0
8473,75.0,120.0,90.0,5.0,0.0
8474,69.0,0.0,180.0,6.0,0.0
8475,59.0,48.0,180.0,7.0,0.0
8476,69.0,0.0,180.0,1.0,0.0
8477,73.0,0.0,120.0,0.0,0.0
8478,73.0,72.0,120.0,5.0,0.0
8479,59.0,0.0,180.0,2.0,0.0
8480,75.0,960.0,120.0,0.0,0.0
8481,75.0,0.0,120.0,5.0,0.0
8482,45.0,0.0,960.0,4.0,0.0
8483,63.0,0.0,960.0,1.0,0.0
8484,59.0,240.0,1350.0,2.0,0.0
8485,57.0,0.0,960.0,8.0,0.0
8486,57.0,0.0,960.0,3.0,0.0
8487,63.0,0.0,960.0,6.0,0.0
8488,45.0,0.0,960.0,10.0,0.0
8489,78.0,0.0,960.0,5.0,0.0
8490,78.0,144.0,960.0,0.0,0.0
8491,59.0,0.0,1350.0,7.0,0.0
8492,64.0,0.0,390.0,6.0,0.0
8493,44.0,0.0,390.0,4.0,0.0
8494,76.0,0.0,150.0,5.0,0.0
8495,56.0,0.0,390.0,3.0,0.0
8496,76.0,240.0,150.0,0.0,0.0
8497,44.0,0.0,390.0,10.0,0.0
8498,56.0,0.0,390.0,8.0,0.0
8499,64.0,0.0,390.0,1.0,0.0
8500,68.0,0.0,150.0,5.0,0.0
8501,68.0,0.0,150.0,0.0,0.0
8502,71.0,0.0,150.0,0.0,0.0
8503,71.0,240.0,150.0,5.0,0.0
8504,76.0,288.0,150.0,0.0,0.0
8505,76.0,0.0,150.0,5.0,0.0
8506,61.0,0.0,180.0,7.0,0.0
8507,52.0,0.0,780.0,8.0,0.0
8508,64.0,0.0,180.0,1.0,0.0
8509,52.0,0.0,780.0,3.0,0.0
8510,40.0,0.0,780.0,4.0,0.0
8511,61.0,0.0,180.0,2.0,0.0
8512,80.0,0.0,300.0,5.0,0.0
8513,40.0,0.0,780.0,10.0,0.0
8514,80.0,144.0,300.0,0.0,0.0
8515,64.0,96.0,180.0,6.0,0.0
8516,61.0,0.0,180.0,2.0,0.0
8517,64.0,0.0,180.0,6.0,0.0
8518,61.0,240.0,180.0,7.0,0.0
8519,64.0,0.0,180.0,1.0,0.0
8520,60.0,0.0,180.0,2.0,0.0
8521,80.0,0.0,300.0,0.0,0.0
8522,60.0,96.0,180.0,7.0,0.0
8523,80.0,144.0,300.0,5.0,0.0
8524,63.0,0.0,180.0,1.0,0.0
8525,63.0,0.0,180.0,6.0,0.0
8526,63.0,240.0,180.0,1.0,0.0
8527,60.0,0.0,180.0,2.0,0.0
8528,63.0,0.0,180.0,6.0,0.0
8529,60.0,0.0,180.0,7.0,0.0
8530,61.0,0.0,180.0,7.0,0.0
8531,80.0,144.0,300.0,0.0,0.0
8532,64.0,0.0,180.0,1.0,0.0
8533,61.0,96.0,180.0,2.0,0.0
8534,80.0,0.0,300.0,5.0,0.0
8535,64.0,0.0,180.0,6.0,0.0
8536,61.0,240.0,180.0,2.0,0.0
8537,64.0,0.0,180.0,6.0,0.0
8538,61.0,0.0,180.0,7.0,0.0
8539,64.0,0.0,180.0,1.0,0.0
8540,60.0,0.0,180.0,2.0,0.0
8541,80.0,0.0,300.0,0.0,0.0
8542,63.0,0.0,180.0,1.0,0.0
8543,80.0,144.0,300.0,5.0,0.0
8544,60.0,0.0,180.0,7.0,0.0
8545,63.0,96.0,180.0,6.0,0.0
8546,63.0,0.0,180.0,6.0,0.0
8547,63.0,0.0,180.0,1.0,0.0
8548,60.0,0.0,180.0,2.0,0.0
8549,60.0,240.0,180.0,7.0,0.0
8550,64.0,96.0,180.0,1.0,0.0
8551,54.0,0.0,390.0,8.0,0.0
8552,61.0,0.0,180.0,2.0,0.0
8553,70.0,0.0,300.0,5.0,0.0
8554,64.0,0.0,180.0,6.0,0.0
8555,42.0,0.0,390.0,10.0,0.0
8556,61.0,0.0,180.0,7.0,0.0
8557,70.0,96.0,300.0,0.0,0.0
8558,42.0,0.0,390.0,4.0,0.0
8559,54.0,48.0,390.0,3.0,0.0
8560,61.0,0.0,180.0,2.0,0.0
8561,64.0,0.0,180.0,1.0,0.0
8562,61.0,0.0,180.0,7.0,0.0
8563,64.0,128.0,180.0,6.0,0.0
8564,64.0,0.0,180.0,1.0,0.0
8565,64.0,48.0,180.0,6.0,0.0
8566,61.0,0.0,180.0,2.0,0.0
8567,61.0,0.0,180.0,7.0,0.0
8568,70.0,0.0,90.0,5.0,0.0
8569,70.0,80.0,90.0,0.0,0.0
8570,71.0,0.0,90.0,0.0,0.0
8571,71.0,32.0,90.0,5.0,0.0
8572,70.0,120.0,90.0,5.0,0.0
8573,70.0,0.0,90.0,0.0,0.0
8574,64.0,48.0,180.0,1.0,0.0
8575,61.0,0.0,180.0,7.0,0.0
8576,61.0,0.0,180.0,2.0,0.0
8577,68.0,0.0,120.0,5.0,0.0
8578,68.0,72.0,120.0,0.0,0.0
8579,64.0,0.0,180.0,6.0,0.0
8580,70.0,0.0,120.0,5.0,0.0
8581,70.0,192.0,120.0,0.0,0.0
8582,63.0,96.0,180.0,1.0,0.0
8583,59.0,0.0,180.0,2.0,0.0
8584,71.0,0.0,300.0,5.0,0.0
8585,56.0,48.0,390.0,3.0,0.0
8586,71.0,96.0,300.0,0.0,0.0
8587,44.0,0.0,390.0,4.0,0.0
8588,44.0,0.0,390.0,10.0,0.0
8589,59.0,0.0,180.0,7.0,0.0
8590,56.0,0.0,390.0,8.0,0.0
8591,63.0,0.0,180.0,6.0,0.0
8592,63.0,0.0,180.0,1.0,0.0
8593,59.0,0.0,180.0,7.0,0.0
8594,63.0,128.0,180.0,6.0,0.0
8595,59.0,0.0,180.0,2.0,0.0
8596,59.0,0.0,180.0,7.0,0.0
8597,71.0,80.0,90.0,0.0,0.0
8598,59.0,48.0,180.0,2.0,0.0
8599,71.0,0.0,90.0,5.0,0.0
8600,63.0,0.0,180.0,1.0,0.0
8601,63.0,0.0,180.0,6.0,0.0
8602,73.0,0.0,90.0,5.0,0.0
8603,73.0,32.0,90.0,0.0,0.0
8604,71.0,120.0,90.0,5.0,0.0
8605,71.0,0.0,90.0,0.0,0.0
8606,63.0,0.0,180.0,6.0,0.0
8607,59.0,0.0,180.0,2.0,0.0
8608,63.0,0.0,180.0,1.0,0.0
8609,70.0,72.0,120.0,5.0,0.0
8610,59.0,48.0,180.0,7.0,0.0
8611,70.0,0.0,120.0,0.0,0.0
8612,71.0,192.0,120.0,5.0,0.0
8613,71.0,0.0,120.0,0.0,0.0
8614,76.0,0.0,300.0,5.0,0.0
8615,76.0,96.0,300.0,0.0,0.0
8616,61.0,0.0,180.0,7.0,0.0
8617,52.0,0.0,390.0,8.0,0.0
8618,52.0,0.0,390.0,3.0,0.0
8619,68.0,0.0,180.0,6.0,0.0
8620,40.0,48.0,390.0,10.0,0.0
8621,61.0,0.0,180.0,2.0,0.0
8622,40.0,0.0,390.0,4.0,0.0
8623,68.0,96.0,180.0,1.0,0.0
8624,68.0,0.0,180.0,6.0,0.0
8625,61.0,240.0,180.0,7.0,0.0
8626,61.0,0.0,180.0,2.0,0.0
8627,68.0,0.0,180.0,1.0,0.0
8628,61.0,0.0,180.0,7.0,0.0
8629,76.0,144.0,300.0,5.0,0.0
8630,76.0,0.0,300.0,0.0,0.0
8631,68.0,96.0,180.0,6.0,0.0
8632,61.0,0.0,180.0,2.0,0.0
8633,68.0,0.0,180.0,1.0,0.0
8634,68.0,0.0,180.0,1.0,0.0
8635,61.0,0.0,180.0,2.0,0.0
8636,68.0,0.0,180.0,6.0,0.0
8637,61.0,240.0,180.0,7.0,0.0
8638,70.0,0.0,180.0,6.0,0.0
8639,54.0,0.0,390.0,8.0,0.0
8640,70.0,0.0,180.0,1.0,0.0
8641,54.0,0.0,390.0,3.0,0.0
8642,66.0,0.0,180.0,2.0,0.0
8643,42.0,0.0,390.0,10.0,0.0
8644,42.0,48.0,390.0,4.0,0.0
8645,73.0,96.0,300.0,0.0,0.0
8646,73.0,0.0,300.0,5.0,0.0
8647,66.0,96.0,180.0,7.0,0.0
8648,70.0,0.0,180.0,6.0,0.0
8649,70.0,0.0,180.0,1.0,0.0
8650,66.0,240.0,180.0,2.0,0.0
8651,66.0,0.0,180.0,7.0,0.0
8652,66.0,0.0,180.0,2.0,0.0
8653,70.0,0.0,180.0,1.0,0.0
8654,73.0,0.0,300.0,0.0,0.0
8655,70.0,96.0,180.0,6.0,0.0
8656,66.0,0.0,180.0,7.0,0.0
8657,73.0,144.0,300.0,5.0,0.0
8658,66.0,0.0,180.0,7.0,0.0
8659,66.0,288.0,180.0,2.0,0.0
8660,70.0,0.0,180.0,6.0,0.0
8661,70.0,0.0,180.0,1.0,0.0
8662,71.0,0.0,240.0,6.0,0.0
8663,51.0,0.0,960.0,3.0,0.0
8664,78.0,0.0,1200.0,5.0,0.0
8665,66.0,240.0,1200.0,7.0,0.0
8666,51.0,0.0,960.0,8.0,0.0
8667,66.0,0.0,1200.0,2.0,0.0
8668,78.0,0.0,1200.0,0.0,0.0
8669,71.0,240.0,240.0,1.0,0.0
8670,39.0,240.0,960.0,4.0,0.0
8671,39.0,0.0,960.0,10.0,0.0
8672,63.0,240.0,240.0,1.0,0.0
8673,63.0,0.0,240.0,6.0,0.0
8674,66.0,0.0,240.0,6.0,0.0
8675,66.0,192.0,240.0,1.0,0.0
8676,71.0,48.0,180.0,6.0,0.0
8677,71.0,0.0,180.0,1.0,0.0
8678,37.0,0.0,960.0,10.0,0.0
8679,70.0,0.0,960.0,6.0,0.0
8680,49.0,192.0,960.0,8.0,0.0
8681,70.0,0.0,960.0,1.0,0.0
8682,49.0,0.0,960.0,3.0,0.0
8683,37.0,0.0,960.0,4.0,0.0
8684,80.0,0.0,240.0,0.0,0.0
8685,68.0,0.0,240.0,2.0,0.0
8686,80.0,0.0,240.0,5.0,0.0
8687,68.0,240.0,240.0,7.0,0.0
8688,76.0,0.0,240.0,5.0,0.0
8689,64.0,0.0,240.0,2.0,0.0
8690,64.0,192.0,240.0,7.0,0.0
8691,76.0,0.0,240.0,0.0,0.0
8692,78.0,48.0,180.0,0.0,0.0
8693,66.0,0.0,180.0,2.0,0.0
8694,78.0,0.0,180.0,5.0,0.0
8695,66.0,0.0,180.0,7.0,0.0
8696,71.0,288.0,180.0,1.0,0.0
8697,71.0,0.0,180.0,6.0,0.0
8698,35.0,0.0,960.0,10.0,0.0
8699,63.0,0.0,1200.0,2.0,0.0
8700,47.0,0.0,960.0,8.0,0.0
8701,35.0,0.0,960.0,4.0,0.0
8702,63.0,0.0,1200.0,7.0,0.0
8703,75.0,240.0,1200.0,5.0,0.0
8704,75.0,0.0,1200.0,0.0,0.0
8705,47.0,240.0,960.0,3.0,0.0
8706,59.0,240.0,240.0,1.0,0.0
8707,59.0,0.0,240.0,6.0,0.0
8708,63.0,0.0,240.0,1.0,0.0
8709,63.0,192.0,240.0,6.0,0.0
8710,66.0,0.0,180.0,1.0,0.0
8711,66.0,48.0,180.0,6.0,0.0
8712,40.0,0.0,960.0,10.0,0.0
8713,52.0,0.0,960.0,3.0,0.0
8714,68.0,0.0,960.0,1.0,0.0
8715,68.0,0.0,960.0,6.0,0.0
8716,52.0,192.0,960.0,8.0,0.0
8717,40.0,0.0,960.0,4.0,0.0
8718,64.0,0.0,240.0,2.0,0.0
8719,76.0,0.0,240.0,5.0,0.0
8720,64.0,240.0,240.0,7.0,0.0
8721,76.0,0.0,240.0,0.0,0.0
8722,73.0,0.0,240.0,5.0,0.0
8723,61.0,192.0,240.0,2.0,0.0
8724,73.0,0.0,240.0,0.0,0.0
8725,61.0,0.0,240.0,7.0,0.0
8726,75.0,0.0,180.0,0.0,0.0
8727,63.0,48.0,180.0,7.0,0.0
8728,63.0,0.0,180.0,2.0,0.0
8729,75.0,0.0,180.0,5.0,0.0
8730,54.0,0.0,780.0,8.0,0.0
8731,54.0,0.0,780.0,3.0,0.0
8732,66.0,0.0,180.0,1.0,0.0
8733,66.0,288.0,180.0,6.0,0.0
8734,63.0,240.0,1200.0,2.0,0.0
8735,42.0,0.0,780.0,4.0,0.0
8736,71.0,0.0,1200.0,0.0,0.0
8737,63.0,0.0,1200.0,7.0,0.0
8738,42.0,144.0,780.0,10.0,0.0
8739,71.0,0.0,1200.0,5.0,0.0
8740,78.0,0.0,240.0,6.0,0.0
8741,78.0,240.0,240.0,1.0,0.0
8742,75.0,48.0,240.0,6.0,0.0
8743,75.0,0.0,240.0,1.0,0.0
8744,71.0,288.0,180.0,1.0,0.0
8745,71.0,0.0,180.0,6.0,0.0
8746,42.0,0.0,780.0,4.0,0.0
8747,66.0,0.0,780.0,6.0,0.0
8748,42.0,0.0,780.0,3.0,0.0
8749,42.0,144.0,780.0,10.0,0.0
8750,66.0,0.0,780.0,1.0,0.0
8751,42.0,0.0,780.0,8.0,0.0
8752,64.0,0.0,240.0,7.0,0.0
8753,64.0,240.0,240.0,2.0,0.0
8754,73.0,0.0,240.0,0.0,0.0
8755,73.0,0.0,240.0,5.0,0.0
8756,61.0,0.0,240.0,7.0,0.0
8757,70.0,0.0,240.0,5.0,0.0
8758,61.0,48.0,240.0,2.0,0.0
8759,70.0,0.0,240.0,0.0,0.0
8760,58.0,240.0,180.0,2.0,0.0
8761,66.0,0.0,180.0,0.0,0.0
8762,58.0,0.0,180.0,7.0,0.0
8763,66.0,0.0,180.0,5.0,0.0
8764,59.0,0.0,240.0,7.0,0.0
8765,78.0,0.0,240.0,5.0,0.0
8766,51.0,0.0,180.0,3.0,0.0
8767,39.0,48.0,180.0,4.0,0.0
8768,66.0,0.0,240.0,6.0,0.0
8769,66.0,0.0,240.0,1.0,0.0
8770,51.0,0.0,180.0,8.0,0.0
8771,39.0,0.0,180.0,10.0,0.0
8772,78.0,0.0,240.0,0.0,0.0
8773,59.0,156.0,240.0,2.0,0.0
8774,68.0,0.0,150.0,6.0,0.0
8775,63.0,0.0,180.0,8.0,0.0
8776,51.0,0.0,180.0,4.0,0.0
8777,66.0,0.0,150.0,2.0,0.0
8778,68.0,0.0,150.0,1.0,0.0
8779,51.0,0.0,180.0,10.0,0.0
8780,63.0,204.0,180.0,3.0,0.0
8781,66.0,0.0,150.0,7.0,0.0
8782,80.0,0.0,150.0,0.0,0.0
8783,80.0,36.0,150.0,5.0,0.0
8784,82.0,0.0,150.0,0.0,0.0
8785,51.0,0.0,180.0,4.0,0.0
8786,70.0,0.0,150.0,6.0,0.0
8787,63.0,0.0,180.0,3.0,0.0
8788,70.0,36.0,150.0,1.0,0.0
8789,66.0,0.0,150.0,2.0,0.0
8790,63.0,204.0,180.0,8.0,0.0
8791,51.0,0.0,180.0,10.0,0.0
8792,82.0,0.0,150.0,5.0,0.0
8793,66.0,0.0,150.0,7.0,0.0
8794,51.0,0.0,180.0,10.0,0.0
8795,83.0,0.0,150.0,5.0,0.0
8796,63.0,0.0,180.0,3.0,0.0
8797,66.0,0.0,150.0,7.0,0.0
8798,66.0,36.0,150.0,2.0,0.0
8799,71.0,0.0,150.0,6.0,0.0
8800,51.0,0.0,180.0,4.0,0.0
8801,71.0,0.0,150.0,1.0,0.0
8802,83.0,0.0,150.0,0.0,0.0
8803,63.0,240.0,180.0,8.0,0.0
8804,61.0,0.0,180.0,8.0,0.0
8805,82.0,0.0,240.0,0.0,0.0
8806,49.0,0.0,180.0,10.0,0.0
8807,61.0,48.0,180.0,3.0,0.0
8808,66.0,156.0,240.0,7.0,0.0
8809,66.0,0.0,240.0,2.0,0.0
8810,70.0,0.0,240.0,6.0,0.0
8811,49.0,0.0,180.0,4.0,0.0
8812,82.0,0.0,240.0,5.0,0.0
8813,70.0,0.0,240.0,1.0,0.0
8814,49.0,0.0,180.0,10.0,0.0
8815,68.0,0.0,150.0,1.0,0.0
8816,49.0,0.0,180.0,4.0,0.0
8817,61.0,204.0,180.0,3.0,0.0
8818,70.0,0.0,150.0,2.0,0.0
8819,61.0,0.0,180.0,8.0,0.0
8820,80.0,36.0,150.0,5.0,0.0
8821,70.0,0.0,150.0,7.0,0.0
8822,68.0,0.0,150.0,6.0,0.0
8823,80.0,0.0,150.0,0.0,0.0
8824,78.0,0.0,150.0,0.0,0.0
8825,70.0,0.0,150.0,7.0,0.0
8826,70.0,36.0,150.0,2.0,0.0
8827,61.0,204.0,180.0,8.0,0.0
8828,61.0,0.0,180.0,3.0,0.0
8829,49.0,0.0,180.0,4.0,0.0
8830,78.0,0.0,150.0,5.0,0.0
8831,66.0,0.0,150.0,6.0,0.0
8832,49.0,0.0,180.0,10.0,0.0
8833,66.0,0.0,150.0,1.0,0.0
8834,76.0,36.0,150.0,0.0,0.0
8835,76.0,0.0,150.0,5.0,0.0
8836,70.0,0.0,150.0,7.0,0.0
8837,64.0,0.0,150.0,6.0,0.0
8838,49.0,240.0,180.0,4.0,0.0
8839,61.0,0.0,180.0,8.0,0.0
8840,70.0,0.0,150.0,2.0,0.0
8841,61.0,0.0,180.0,3.0,0.0
8842,49.0,0.0,180.0,10.0,0.0
8843,64.0,0.0,150.0,1.0,0.0
8844,47.0,0.0,180.0,4.0,0.0
8845,63.0,0.0,240.0,6.0,0.0
8846,59.0,0.0,180.0,8.0,0.0
8847,59.0,0.0,180.0,3.0,0.0
8848,63.0,0.0,240.0,1.0,0.0
8849,71.0,0.0,240.0,7.0,0.0
8850,75.0,0.0,240.0,5.0,0.0
8851,75.0,156.0,240.0,0.0,0.0
8852,47.0,48.0,180.0,10.0,0.0
8853,71.0,0.0,240.0,2.0,0.0
8854,59.0,0.0,180.0,8.0,0.0
8855,47.0,0.0,180.0,4.0,0.0
8856,75.0,0.0,150.0,7.0,0.0
8857,66.0,0.0,150.0,6.0,0.0
8858,66.0,0.0,150.0,1.0,0.0
8859,78.0,0.0,150.0,5.0,0.0
8860,47.0,204.0,180.0,10.0,0.0
8861,78.0,0.0,150.0,0.0,0.0
8862,59.0,0.0,180.0,3.0,0.0
8863,75.0,36.0,150.0,2.0,0.0
8864,63.0,36.0,150.0,2.0,0.0
8865,59.0,0.0,180.0,3.0,0.0
8866,71.0,0.0,150.0,1.0,0.0
8867,63.0,0.0,150.0,7.0,0.0
8868,59.0,204.0,180.0,8.0,0.0
8869,83.0,0.0,150.0,0.0,0.0
8870,71.0,0.0,150.0,6.0,0.0
8871,47.0,0.0,180.0,10.0,0.0
8872,83.0,0.0,150.0,5.0,0.0
8873,47.0,0.0,180.0,4.0,0.0
8874,59.0,0.0,180.0,3.0,0.0
8875,75.0,0.0,150.0,6.0,0.0
8876,47.0,0.0,180.0,4.0,0.0
8877,66.0,0.0,150.0,7.0,0.0
8878,59.0,0.0,180.0,8.0,0.0
8879,75.0,0.0,150.0,1.0,0.0
8880,87.0,0.0,150.0,0.0,0.0
8881,47.0,240.0,180.0,10.0,0.0
8882,87.0,0.0,150.0,5.0,0.0
8883,66.0,36.0,150.0,2.0,0.0
8884,40.0,48.0,180.0,4.0,0.0
8885,68.0,0.0,240.0,7.0,0.0
8886,78.0,0.0,240.0,1.0,0.0
8887,90.0,0.0,240.0,5.0,0.0
8888,52.0,0.0,180.0,3.0,0.0
8889,68.0,0.0,240.0,2.0,0.0
8890,40.0,0.0,180.0,10.0,0.0
8891,78.0,0.0,240.0,6.0,0.0
8892,90.0,156.0,240.0,0.0,0.0
8893,52.0,0.0,180.0,8.0,0.0
8894,80.0,0.0,150.0,7.0,0.0
8895,76.0,0.0,150.0,1.0,0.0
8896,80.0,0.0,150.0,2.0,0.0
8897,52.0,0.0,180.0,8.0,0.0
8898,76.0,0.0,150.0,6.0,0.0
8899,88.0,36.0,150.0,5.0,0.0
8900,40.0,0.0,180.0,4.0,0.0
8901,52.0,204.0,180.0,3.0,0.0
8902,88.0,0.0,150.0,0.0,0.0
8903,40.0,0.0,180.0,10.0,0.0
8904,40.0,204.0,180.0,4.0,0.0
8905,87.0,0.0,150.0,0.0,0.0
8906,40.0,0.0,180.0,10.0,0.0
8907,87.0,0.0,150.0,5.0,0.0
8908,78.0,0.0,150.0,2.0,0.0
8909,75.0,36.0,150.0,1.0,0.0
8910,75.0,0.0,150.0,6.0,0.0
8911,78.0,0.0,150.0,7.0,0.0
8912,52.0,0.0,180.0,8.0,0.0
8913,52.0,0.0,180.0,3.0,0.0
8914,73.0,0.0,150.0,1.0,0.0
8915,76.0,36.0,150.0,2.0,0.0
8916,40.0,240.0,180.0,10.0,0.0
8917,52.0,0.0,180.0,8.0,0.0
8918,85.0,0.0,150.0,0.0,0.0
8919,85.0,0.0,150.0,5.0,0.0
8920,40.0,0.0,180.0,4.0,0.0
8921,73.0,0.0,150.0,6.0,0.0
8922,52.0,0.0,180.0,3.0,0.0
8923,76.0,0.0,150.0,7.0,0.0
8924,42.0,0.0,180.0,10.0,0.0
8925,85.0,0.0,240.0,5.0,0.0
8926,76.0,0.0,240.0,2.0,0.0
8927,73.0,0.0,240.0,1.0,0.0
8928,54.0,0.0,180.0,8.0,0.0
8929,42.0,0.0,180.0,4.0,0.0
8930,85.0,0.0,240.0,0.0,0.0
8931,73.0,0.0,240.0,6.0,0.0
8932,54.0,48.0,180.0,3.0,0.0
8933,76.0,156.0,240.0,7.0,0.0
8934,42.0,0.0,180.0,10.0,0.0
8935,71.0,36.0,150.0,1.0,0.0
8936,75.0,0.0,150.0,7.0,0.0
8937,83.0,0.0,150.0,5.0,0.0
8938,71.0,0.0,150.0,6.0,0.0
8939,54.0,0.0,180.0,3.0,0.0
8940,75.0,0.0,150.0,2.0,0.0
8941,42.0,0.0,180.0,4.0,0.0
8942,83.0,0.0,150.0,0.0,0.0
8943,54.0,204.0,180.0,8.0,0.0
8944,54.0,204.0,180.0,3.0,0.0
8945,42.0,0.0,180.0,10.0,0.0
8946,42.0,0.0,180.0,4.0,0.0
8947,75.0,0.0,150.0,2.0,0.0
8948,83.0,0.0,150.0,5.0,0.0
8949,75.0,0.0,150.0,7.0,0.0
8950,71.0,36.0,150.0,1.0,0.0
8951,54.0,0.0,180.0,8.0,0.0
8952,71.0,0.0,150.0,6.0,0.0
8953,83.0,0.0,150.0,0.0,0.0
8954,42.0,0.0,180.0,4.0,0.0
8955,83.0,0.0,150.0,5.0,0.0
8956,75.0,0.0,150.0,7.0,0.0
8957,83.0,0.0,150.0,0.0,0.0
8958,71.0,0.0,150.0,6.0,0.0
8959,54.0,240.0,180.0,8.0,0.0
8960,42.0,0.0,180.0,10.0,0.0
8961,71.0,0.0,150.0,1.0,0.0
8962,54.0,0.0,180.0,3.0,0.0
8963,75.0,36.0,150.0,2.0,0.0
8964,54.0,48.0,180.0,3.0,0.0
8965,83.0,0.0,240.0,0.0,0.0
8966,83.0,0.0,240.0,5.0,0.0
8967,75.0,156.0,240.0,7.0,0.0
8968,75.0,0.0,240.0,2.0,0.0
8969,54.0,0.0,180.0,8.0,0.0
8970,71.0,0.0,240.0,6.0,0.0
8971,42.0,0.0,180.0,4.0,0.0
8972,71.0,0.0,240.0,1.0,0.0
8973,42.0,0.0,180.0,10.0,0.0
8974,75.0,0.0,150.0,6.0,0.0
8975,42.0,204.0,180.0,4.0,0.0
8976,42.0,0.0,180.0,10.0,0.0
8977,87.0,0.0,150.0,0.0,0.0
8978,87.0,0.0,150.0,5.0,0.0
8979,54.0,0.0,180.0,8.0,0.0
8980,54.0,0.0,180.0,3.0,0.0
8981,78.0,0.0,150.0,2.0,0.0
8982,78.0,36.0,150.0,7.0,0.0
8983,75.0,0.0,150.0,1.0,0.0
8984,85.0,0.0,150.0,0.0,0.0
8985,76.0,36.0,150.0,7.0,0.0
8986,42.0,0.0,180.0,4.0,0.0
8987,73.0,0.0,150.0,6.0,0.0
8988,42.0,0.0,180.0,10.0,0.0
8989,73.0,0.0,150.0,1.0,0.0
8990,85.0,0.0,150.0,5.0,0.0
8991,54.0,0.0,180.0,3.0,0.0
8992,76.0,0.0,150.0,2.0,0.0
8993,54.0,204.0,180.0,8.0,0.0
8994,42.0,240.0,180.0,4.0,0.0
8995,73.0,0.0,150.0,2.0,0.0
8996,70.0,0.0,150.0,6.0,0.0
8997,70.0,0.0,150.0,1.0,0.0
8998,82.0,36.0,150.0,0.0,0.0
8999,82.0,0.0,150.0,5.0,0.0
9000,54.0,0.0,180.0,3.0,0.0
9001,54.0,0.0,180.0,8.0,0.0
9002,42.0,0.0,180.0,10.0,0.0
9003,73.0,0.0,150.0,7.0,0.0
9004,59.0,0.0,300.0,8.0,0.0
9005,71.0,0.0,180.0,1.0,0.0
9006,71.0,0.0,180.0,7.0,0.0
9007,59.0,0.0,300.0,3.0,0.0
9008,47.0,72.0,300.0,10.0,0.0
9009,71.0,120.0,180.0,6.0,0.0
9010,47.0,0.0,300.0,4.0,0.0
9011,83.0,48.0,390.0,5.0,0.0
9012,83.0,0.0,390.0,0.0,0.0
9013,71.0,0.0,180.0,2.0,0.0
9014,59.0,0.0,180.0,7.0,0.0
9015,63.0,0.0,180.0,1.0,0.0
9016,59.0,0.0,180.0,2.0,0.0
9017,63.0,240.0,180.0,6.0,0.0
9018,35.0,0.0,300.0,4.0,0.0
9019,47.0,120.0,300.0,3.0,0.0
9020,59.0,0.0,180.0,2.0,0.0
9021,59.0,0.0,180.0,7.0,0.0
9022,35.0,0.0,300.0,10.0,0.0
9023,47.0,0.0,300.0,8.0,0.0
9024,63.0,120.0,180.0,6.0,0.0
9025,63.0,0.0,180.0,1.0,0.0
9026,59.0,0.0,180.0,2.0,0.0
9027,63.0,0.0,180.0,1.0,0.0
9028,59.0,240.0,180.0,7.0,0.0
9029,63.0,0.0,180.0,6.0,0.0
9030,39.0,0.0,300.0,4.0,0.0
9031,39.0,0.0,300.0,10.0,0.0
9032,63.0,0.0,180.0,1.0,0.0
9033,51.0,0.0,300.0,3.0,0.0
9034,59.0,0.0,180.0,2.0,0.0
9035,59.0,0.0,180.0,7.0,0.0
9036,51.0,72.0,300.0,8.0,0.0
9037,63.0,120.0,180.0,6.0,0.0
9038,66.0,0.0,150.0,5.0,0.0
9039,63.0,0.0,180.0,1.0,0.0
9040,59.0,0.0,180.0,2.0,0.0
9041,66.0,48.0,150.0,0.0,0.0
9042,63.0,192.0,180.0,6.0,0.0
9043,59.0,0.0,180.0,7.0,0.0
9044,59.0,0.0,180.0,7.0,0.0
9045,63.0,0.0,180.0,1.0,0.0
9046,54.0,0.0,300.0,8.0,0.0
9047,71.0,0.0,150.0,5.0,0.0
9048,42.0,0.0,300.0,4.0,0.0
9049,42.0,72.0,300.0,10.0,0.0
9050,54.0,0.0,300.0,3.0,0.0
9051,59.0,0.0,180.0,2.0,0.0
9052,63.0,120.0,180.0,6.0,0.0
9053,71.0,48.0,150.0,0.0,0.0
9054,75.0,48.0,150.0,5.0,0.0
9055,75.0,0.0,150.0,0.0,0.0
9056,63.0,0.0,180.0,1.0,0.0
9057,59.0,0.0,180.0,2.0,0.0
9058,63.0,0.0,180.0,6.0,0.0
9059,59.0,240.0,180.0,7.0,0.0
9060,59.0,0.0,300.0,3.0,0.0
9061,47.0,0.0,300.0,4.0,0.0
9062,47.0,120.0,300.0,10.0,0.0
9063,59.0,0.0,300.0,8.0,0.0
9064,59.0,96.0,180.0,2.0,0.0
9065,63.0,0.0,180.0,6.0,0.0
9066,63.0,0.0,180.0,1.0,0.0
9067,59.0,0.0,180.0,7.0,0.0
9068,78.0,0.0,300.0,0.0,0.0
9069,78.0,24.0,300.0,5.0,0.0
9070,59.0,0.0,180.0,2.0,0.0
9071,59.0,0.0,180.0,7.0,0.0
9072,63.0,240.0,180.0,1.0,0.0
9073,63.0,0.0,180.0,6.0,0.0
9074,59.0,96.0,180.0,7.0,0.0
9075,47.0,120.0,300.0,3.0,0.0
9076,35.0,0.0,300.0,10.0,0.0
9077,35.0,0.0,300.0,4.0,0.0
9078,78.0,24.0,300.0,5.0,0.0
9079,63.0,0.0,180.0,6.0,0.0
9080,63.0,0.0,180.0,1.0,0.0
9081,59.0,0.0,180.0,2.0,0.0
9082,78.0,0.0,300.0,0.0,0.0
9083,47.0,0.0,300.0,8.0,0.0
9084,63.0,240.0,180.0,1.0,0.0
9085,63.0,0.0,180.0,6.0,0.0
9086,59.0,0.0,180.0,2.0,0.0
9087,59.0,0.0,180.0,7.0,0.0
9088,61.0,0.0,180.0,1.0,0.0
9089,58.0,0.0,180.0,2.0,0.0
9090,78.0,144.0,300.0,0.0,0.0
9091,78.0,0.0,300.0,5.0,0.0
9092,58.0,96.0,180.0,7.0,0.0
9093,61.0,0.0,180.0,6.0,0.0
9094,61.0,0.0,180.0,1.0,0.0
9095,58.0,0.0,180.0,2.0,0.0
9096,58.0,240.0,180.0,7.0,0.0
9097,61.0,0.0,180.0,6.0,0.0
9098,57.0,0.0,180.0,7.0,0.0
9099,57.0,0.0,180.0,2.0,0.0
9100,78.0,144.0,300.0,5.0,0.0
9101,63.0,0.0,180.0,1.0,0.0
9102,63.0,96.0,180.0,6.0,0.0
9103,78.0,0.0,300.0,0.0,0.0
9104,63.0,0.0,180.0,1.0,0.0
9105,57.0,0.0,180.0,2.0,0.0
9106,57.0,240.0,180.0,7.0,0.0
9107,63.0,0.0,180.0,6.0,0.0
9108,64.0,0.0,180.0,6.0,0.0
9109,56.0,0.0,180.0,7.0,0.0
9110,68.0,48.0,390.0,5.0,0.0
9111,56.0,0.0,180.0,2.0,0.0
9112,64.0,192.0,180.0,1.0,0.0
9113,68.0,0.0,390.0,0.0,0.0
9114,56.0,240.0,180.0,7.0,0.0
9115,64.0,0.0,180.0,1.0,0.0
9116,64.0,0.0,180.0,6.0,0.0
9117,56.0,0.0,180.0,2.0,0.0
9118,35.0,0.0,300.0,10.0,0.0
9119,56.0,0.0,180.0,2.0,0.0
9120,47.0,120.0,300.0,3.0,0.0
9121,56.0,120.0,180.0,7.0,0.0
9122,35.0,0.0,300.0,4.0,0.0
9123,64.0,0.0,180.0,6.0,0.0
9124,47.0,0.0,300.0,8.0,0.0
9125,64.0,0.0,180.0,1.0,0.0
9126,64.0,240.0,180.0,1.0,0.0
9127,56.0,0.0,180.0,7.0,0.0
9128,56.0,0.0,180.0,2.0,0.0
9129,64.0,0.0,180.0,6.0,0.0
9130,52.0,0.0,300.0,8.0,0.0
9131,64.0,0.0,180.0,6.0,0.0
9132,56.0,120.0,180.0,7.0,0.0
9133,56.0,0.0,180.0,2.0,0.0
9134,40.0,72.0,300.0,10.0,0.0
9135,40.0,0.0,300.0,4.0,0.0
9136,52.0,0.0,300.0,3.0,0.0
9137,64.0,0.0,180.0,1.0,0.0
9138,64.0,0.0,180.0,1.0,0.0
9139,56.0,0.0,180.0,2.0,0.0
9140,68.0,0.0,150.0,0.0,0.0
9141,68.0,48.0,150.0,5.0,0.0
9142,64.0,192.0,180.0,6.0,0.0
9143,56.0,0.0,180.0,7.0,0.0
9144,56.0,0.0,300.0,8.0,0.0
9145,44.0,72.0,300.0,10.0,0.0
9146,56.0,120.0,180.0,7.0,0.0
9147,56.0,0.0,300.0,3.0,0.0
9148,71.0,0.0,150.0,5.0,0.0
9149,44.0,0.0,300.0,4.0,0.0
9150,64.0,0.0,180.0,6.0,0.0
9151,71.0,48.0,150.0,0.0,0.0
9152,56.0,0.0,180.0,2.0,0.0
9153,64.0,0.0,180.0,1.0,0.0
9154,64.0,240.0,180.0,6.0,0.0
9155,56.0,0.0,180.0,2.0,0.0
9156,56.0,0.0,180.0,7.0,0.0
9157,76.0,0.0,150.0,5.0,0.0
9158,64.0,0.0,180.0,1.0,0.0
9159,76.0,48.0,150.0,0.0,0.0
9160,64.0,96.0,180.0,6.0,0.0
9161,47.0,0.0,300.0,10.0,0.0
9162,80.0,0.0,300.0,5.0,0.0
9163,64.0,0.0,180.0,1.0,0.0
9164,80.0,24.0,300.0,0.0,0.0
9165,59.0,120.0,300.0,3.0,0.0
9166,56.0,0.0,180.0,2.0,0.0
9167,56.0,0.0,180.0,7.0,0.0
9168,59.0,0.0,300.0,8.0,0.0
9169,47.0,0.0,300.0,4.0,0.0
9170,64.0,0.0,180.0,6.0,0.0
9171,56.0,0.0,180.0,7.0,0.0
9172,64.0,240.0,180.0,1.0,0.0
9173,56.0,0.0,180.0,2.0,0.0
9174,71.0,0.0,180.0,6.0,0.0
9175,47.0,0.0,300.0,8.0,0.0
9176,80.0,0.0,300.0,0.0,0.0
9177,68.0,0.0,180.0,2.0,0.0
9178,35.0,0.0,300.0,4.0,0.0
9179,71.0,0.0,180.0,1.0,0.0
9180,68.0,96.0,180.0,7.0,0.0
9181,80.0,24.0,300.0,5.0,0.0
9182,47.0,120.0,300.0,3.0,0.0
9183,35.0,0.0,300.0,10.0,0.0
9184,68.0,240.0,180.0,2.0,0.0
9185,71.0,0.0,180.0,6.0,0.0
9186,68.0,0.0,180.0,7.0,0.0
9187,71.0,0.0,180.0,1.0,0.0
9188,80.0,144.0,300.0,5.0,0.0
9189,69.0,0.0,180.0,6.0,0.0
9190,69.0,96.0,180.0,1.0,0.0
9191,66.0,0.0,180.0,7.0,0.0
9192,80.0,0.0,300.0,0.0,0.0
9193,66.0,0.0,180.0,2.0,0.0
9194,66.0,0.0,180.0,2.0,0.0
9195,69.0,0.0,180.0,1.0,0.0
9196,69.0,0.0,180.0,6.0,0.0
9197,66.0,240.0,180.0,7.0,0.0
9198,64.0,96.0,180.0,2.0,0.0
9199,80.0,144.0,300.0,0.0,0.0
9200,64.0,0.0,180.0,7.0,0.0
9201,68.0,0.0,180.0,1.0,0.0
9202,68.0,0.0,180.0,6.0,0.0
9203,80.0,0.0,300.0,5.0,0.0
9204,64.0,0.0,180.0,2.0,0.0
9205,68.0,240.0,180.0,6.0,0.0
9206,64.0,0.0,180.0,7.0,0.0
9207,68.0,0.0,180.0,1.0,0.0
9208,63.0,0.0,180.0,2.0,0.0
9209,66.0,0.0,180.0,6.0,0.0
9210,66.0,192.0,180.0,1.0,0.0
9211,69.0,0.0,390.0,0.0,0.0
9212,63.0,0.0,180.0,7.0,0.0
9213,69.0,48.0,390.0,5.0,0.0
9214,66.0,240.0,180.0,6.0,0.0
9215,63.0,0.0,180.0,7.0,0.0
9216,63.0,0.0,180.0,2.0,0.0
9217,66.0,0.0,180.0,1.0,0.0
9218,63.0,120.0,180.0,7.0,0.0
9219,63.0,0.0,180.0,2.0,0.0
9220,35.0,0.0,300.0,4.0,0.0
9221,47.0,0.0,300.0,8.0,0.0
9222,35.0,0.0,300.0,10.0,0.0
9223,66.0,0.0,180.0,6.0,0.0
9224,66.0,0.0,180.0,1.0,0.0
9225,47.0,120.0,300.0,3.0,0.0
9226,66.0,240.0,180.0,6.0,0.0
9227,66.0,0.0,180.0,1.0,0.0
9228,63.0,0.0,180.0,7.0,0.0
9229,63.0,0.0,180.0,2.0,0.0
9230,39.0,0.0,300.0,10.0,0.0
9231,63.0,0.0,180.0,2.0,0.0
9232,39.0,120.0,300.0,4.0,0.0
9233,63.0,0.0,180.0,7.0,0.0
9234,66.0,120.0,180.0,1.0,0.0
9235,51.0,0.0,300.0,8.0,0.0
9236,51.0,0.0,300.0,3.0,0.0
9237,66.0,0.0,180.0,6.0,0.0
9238,66.0,240.0,180.0,6.0,0.0
9239,66.0,0.0,180.0,1.0,0.0
9240,69.0,0.0,180.0,5.0,0.0
9241,63.0,0.0,180.0,7.0,0.0
9242,63.0,0.0,180.0,2.0,0.0
9243,69.0,0.0,180.0,0.0,0.0
9244,63.0,120.0,180.0,2.0,0.0
9245,75.0,0.0,180.0,0.0,0.0
9246,75.0,0.0,180.0,5.0,0.0
9247,42.0,0.0,300.0,4.0,0.0
9248,54.0,120.0,300.0,3.0,0.0
9249,66.0,0.0,180.0,1.0,0.0
9250,66.0,0.0,180.0,6.0,0.0
9251,42.0,0.0,300.0,10.0,0.0
9252,54.0,0.0,300.0,8.0,0.0
9253,63.0,0.0,180.0,7.0,0.0
9254,66.0,0.0,180.0,1.0,0.0
9255,66.0,0.0,180.0,6.0,0.0
9256,78.0,0.0,180.0,0.0,0.0
9257,78.0,0.0,180.0,5.0,0.0
9258,63.0,240.0,180.0,2.0,0.0
9259,63.0,0.0,180.0,7.0,0.0
9260,47.0,0.0,300.0,10.0,0.0
9261,59.0,0.0,300.0,8.0,0.0
9262,63.0,96.0,180.0,1.0,0.0
9263,81.0,0.0,300.0,0.0,0.0
9264,59.0,0.0,180.0,2.0,0.0
9265,63.0,0.0,180.0,6.0,0.0
9266,59.0,0.0,180.0,7.0,0.0
9267,81.0,24.0,300.0,5.0,0.0
9268,47.0,120.0,300.0,4.0,0.0
9269,59.0,0.0,300.0,3.0,0.0
9270,59.0,240.0,180.0,7.0,0.0
9271,63.0,0.0,180.0,6.0,0.0
9272,59.0,0.0,180.0,2.0,0.0
9273,63.0,0.0,180.0,1.0,0.0
9274,47.0,0.0,300.0,8.0,0.0
9275,35.0,120.0,300.0,4.0,0.0
9276,47.0,0.0,300.0,3.0,0.0
9277,64.0,96.0,180.0,1.0,0.0
9278,64.0,0.0,180.0,6.0,0.0
9279,61.0,0.0,180.0,2.0,0.0
9280,81.0,24.0,300.0,0.0,0.0
9281,81.0,0.0,300.0,5.0,0.0
9282,61.0,0.0,180.0,7.0,0.0
9283,35.0,0.0,300.0,10.0,0.0
9284,61.0,0.0,180.0,7.0,0.0
9285,61.0,0.0,180.0,2.0,0.0
9286,64.0,240.0,180.0,6.0,0.0
9287,64.0,0.0,180.0,1.0,0.0
9288,66.0,0.0,180.0,1.0,0.0
9289,63.0,0.0,180.0,7.0,0.0
9290,81.0,144.0,300.0,5.0,0.0
9291,66.0,96.0,180.0,6.0,0.0
9292,63.0,0.0,180.0,2.0,0.0
9293,81.0,0.0,300.0,0.0,0.0
9294,63.0,0.0,180.0,7.0,0.0
9295,66.0,0.0,180.0,6.0,0.0
9296,63.0,0.0,180.0,2.0,0.0
9297,66.0,240.0,180.0,1.0,0.0
9298,68.0,0.0,180.0,1.0,0.0
9299,81.0,144.0,300.0,0.0,0.0
9300,81.0,0.0,300.0,5.0,0.0
9301,68.0,96.0,180.0,6.0,0.0
9302,64.0,0.0,180.0,2.0,0.0
9303,64.0,0.0,180.0,7.0,0.0
9304,64.0,0.0,180.0,7.0,0.0
9305,68.0,432.0,180.0,1.0,0.0
9306,64.0,0.0,180.0,2.0,0.0
9307,68.0,0.0,180.0,6.0,0.0
9308,71.0,0.0,390.0,0.0,0.0
9309,69.0,0.0,390.0,6.0,0.0
9310,66.0,0.0,390.0,2.0,0.0
9311,71.0,0.0,390.0,5.0,0.0
9312,66.0,960.0,390.0,7.0,0.0
9313,69.0,0.0,390.0,1.0,0.0
9314,59.0,0.0,150.0,5.0,0.0
9315,59.0,0.0,150.0,2.0,0.0
9316,47.0,0.0,150.0,3.0,0.0
9317,59.0,0.0,150.0,0.0,0.0
9318,59.0,0.0,150.0,1.0,0.0
9319,59.0,0.0,150.0,7.0,0.0
9320,35.0,0.0,150.0,10.0,0.0
9321,59.0,0.0,150.0,6.0,0.0
9322,35.0,0.0,150.0,4.0,0.0
9323,47.0,240.0,150.0,8.0,0.0
9324,51.0,0.0,150.0,8.0,0.0
9325,63.0,0.0,150.0,7.0,0.0
9326,63.0,0.0,150.0,0.0,0.0
9327,39.0,0.0,150.0,4.0,0.0
9328,63.0,0.0,150.0,1.0,0.0
9329,51.0,0.0,150.0,3.0,0.0
9330,63.0,240.0,150.0,6.0,0.0
9331,63.0,0.0,150.0,2.0,0.0
9332,63.0,0.0,150.0,5.0,0.0
9333,39.0,0.0,150.0,10.0,0.0
9334,42.0,0.0,150.0,10.0,0.0
9335,66.0,384.0,150.0,7.0,0.0
9336,66.0,0.0,150.0,2.0,0.0
9337,66.0,0.0,150.0,1.0,0.0
9338,66.0,0.0,150.0,0.0,0.0
9339,66.0,0.0,150.0,6.0,0.0
9340,54.0,0.0,150.0,8.0,0.0
9341,66.0,0.0,150.0,5.0,0.0
9342,54.0,0.0,150.0,3.0,0.0
9343,42.0,0.0,150.0,4.0,0.0
9344,69.0,0.0,300.0,7.0,0.0
9345,45.0,0.0,300.0,10.0,0.0
9346,57.0,0.0,300.0,8.0,0.0
9347,69.0,0.0,300.0,2.0,0.0
9348,69.0,0.0,300.0,1.0,0.0
9349,45.0,480.0,300.0,4.0,0.0
9350,69.0,0.0,300.0,6.0,0.0
9351,69.0,0.0,300.0,0.0,0.0
9352,57.0,0.0,300.0,3.0,0.0
9353,69.0,0.0,300.0,5.0,0.0
9354,69.0,480.0,300.0,6.0,0.0
9355,69.0,0.0,300.0,7.0,0.0
9356,45.0,0.0,300.0,4.0,0.0
9357,69.0,0.0,300.0,5.0,0.0
9358,57.0,0.0,300.0,3.0,0.0
9359,57.0,0.0,300.0,8.0,0.0
9360,69.0,0.0,300.0,1.0,0.0
9361,45.0,0.0,300.0,10.0,0.0
9362,69.0,0.0,300.0,2.0,0.0
9363,69.0,0.0,300.0,0.0,0.0
9364,69.0,0.0,300.0,0.0,0.0
9365,69.0,0.0,300.0,7.0,0.0
9366,57.0,0.0,300.0,8.0,0.0
9367,69.0,0.0,300.0,6.0,0.0
9368,57.0,480.0,300.0,3.0,0.0
9369,45.0,0.0,300.0,10.0,0.0
9370,69.0,0.0,300.0,1.0,0.0
9371,69.0,0.0,300.0,5.0,0.0
9372,69.0,0.0,300.0,2.0,0.0
9373,45.0,0.0,300.0,4.0,0.0
9374,57.0,0.0,300.0,3.0,0.0
9375,69.0,0.0,300.0,2.0,0.0
9376,69.0,0.0,300.0,7.0,0.0
9377,69.0,0.0,300.0,1.0,0.0
9378,69.0,0.0,300.0,0.0,0.0
9379,69.0,0.0,300.0,5.0,0.0
9380,57.0,0.0,300.0,8.0,0.0
9381,69.0,576.0,300.0,6.0,0.0
9382,45.0,0.0,300.0,4.0,0.0
9383,45.0,0.0,300.0,10.0,0.0
9384,48.0,0.0,390.0,8.0,0.0
9385,60.0,0.0,390.0,0.0,0.0
9386,60.0,0.0,390.0,7.0,0.0
9387,60.0,0.0,390.0,5.0,0.0
9388,60.0,0.0,390.0,6.0,0.0
9389,60.0,0.0,390.0,2.0,0.0
9390,36.0,0.0,390.0,10.0,0.0
9391,36.0,0.0,390.0,4.0,0.0
9392,60.0,0.0,390.0,1.0,0.0
9393,48.0,960.0,390.0,3.0,0.0
9394,68.0,0.0,150.0,0.0,0.0
9395,68.0,240.0,150.0,5.0,0.0
9396,72.0,0.0,150.0,0.0,0.0
9397,72.0,240.0,150.0,5.0,0.0
9398,75.0,0.0,150.0,0.0,0.0
9399,75.0,384.0,150.0,5.0,0.0
9400,78.0,24.0,300.0,6.0,0.0
9401,80.0,0.0,300.0,0.0,0.0
9402,78.0,0.0,300.0,1.0,0.0
9403,72.0,0.0,300.0,7.0,0.0
9404,72.0,0.0,300.0,2.0,0.0
9405,75.0,0.0,300.0,2.0,0.0
9406,75.0,456.0,300.0,7.0,0.0
9407,80.0,0.0,300.0,5.0,0.0
9408,80.0,0.0,300.0,0.0,0.0
9409,80.0,24.0,300.0,5.0,0.0
9410,72.0,0.0,300.0,2.0,0.0
9411,75.0,0.0,300.0,2.0,0.0
9412,78.0,0.0,300.0,6.0,0.0
9413,78.0,0.0,300.0,1.0,0.0
9414,75.0,0.0,300.0,7.0,0.0
9415,72.0,456.0,300.0,7.0,0.0
9416,73.0,0.0,300.0,2.0,0.0
9417,77.0,24.0,300.0,6.0,0.0
9418,73.0,168.0,300.0,7.0,0.0
9419,77.0,0.0,300.0,1.0,0.0
9420,80.0,0.0,480.0,0.0,0.0
9421,80.0,192.0,480.0,5.0,0.0
9422,85.0,576.0,180.0,5.0,0.0
9423,85.0,0.0,180.0,0.0,0.0
9424,78.0,0.0,300.0,0.0,0.0
9425,76.0,0.0,300.0,1.0,0.0
9426,73.0,0.0,300.0,2.0,0.0
9427,70.0,456.0,300.0,2.0,0.0
9428,70.0,0.0,300.0,7.0,0.0
9429,76.0,0.0,300.0,6.0,0.0
9430,78.0,24.0,300.0,5.0,0.0
9431,73.0,0.0,300.0,7.0,0.0
9432,73.0,456.0,300.0,2.0,0.0
9433,73.0,0.0,300.0,7.0,0.0
9434,70.0,0.0,300.0,7.0,0.0
9435,76.0,24.0,300.0,6.0,0.0
9436,76.0,0.0,300.0,1.0,0.0
9437,78.0,0.0,300.0,5.0,0.0
9438,78.0,0.0,300.0,0.0,0.0
9439,70.0,0.0,300.0,2.0,0.0
9440,71.0,0.0,300.0,2.0,0.0
9441,78.0,192.0,480.0,0.0,0.0
9442,75.0,0.0,300.0,1.0,0.0
9443,75.0,24.0,300.0,6.0,0.0
9444,71.0,168.0,300.0,7.0,0.0
9445,78.0,0.0,480.0,5.0,0.0
9446,83.0,576.0,180.0,0.0,0.0
9447,83.0,0.0,180.0,5.0,0.0
9448,71.0,0.0,300.0,1.0,0.0
9449,76.0,24.0,300.0,0.0,0.0
9450,71.0,0.0,300.0,6.0,0.0
9451,68.0,0.0,300.0,2.0,0.0
9452,76.0,0.0,300.0,5.0,0.0
9453,68.0,456.0,300.0,7.0,0.0
9454,68.0,0.0,300.0,2.0,0.0
9455,76.0,0.0,300.0,0.0,0.0
9456,68.0,456.0,300.0,7.0,0.0
9457,71.0,0.0,300.0,1.0,0.0
9458,76.0,24.0,300.0,5.0,0.0
9459,71.0,0.0,300.0,6.0,0.0
9460,71.0,24.0,300.0,1.0,0.0
9461,67.0,0.0,300.0,2.0,0.0
9462,67.0,456.0,300.0,7.0,0.0
9463,76.0,0.0,300.0,0.0,0.0
9464,76.0,0.0,300.0,5.0,0.0
9465,71.0,0.0,300.0,6.0,0.0
9466,71.0,0.0,300.0,1.0,0.0
9467,71.0,0.0,300.0,6.0,0.0
9468,76.0,0.0,300.0,0.0,0.0
9469,67.0,552.0,300.0,2.0,0.0
9470,67.0,0.0,300.0,7.0,0.0
9471,76.0,24.0,300.0,5.0,0.0
9472,66.0,0.0,390.0,2.0,0.0
9473,70.0,960.0,390.0,1.0,0.0
9474,66.0,0.0,390.0,7.0,0.0
9475,76.0,0.0,390.0,0.0,0.0
9476,76.0,0.0,390.0,5.0,0.0
9477,70.0,0.0,390.0,6.0,0.0
9478,66.0,0.0,150.0,5.0,0.0
9479,54.0,0.0,150.0,3.0,0.0
9480,54.0,0.0,150.0,8.0,0.0
9481,66.0,0.0,150.0,0.0,0.0
9482,66.0,0.0,150.0,7.0,0.0
9483,42.0,0.0,150.0,10.0,0.0
9484,66.0,240.0,150.0,6.0,0.0
9485,66.0,0.0,150.0,1.0,0.0
9486,42.0,0.0,150.0,4.0,0.0
9487,66.0,0.0,150.0,2.0,0.0
9488,70.0,0.0,150.0,2.0,0.0
9489,58.0,0.0,150.0,3.0,0.0
9490,70.0,0.0,150.0,5.0,0.0
9491,70.0,0.0,150.0,6.0,0.0
9492,46.0,0.0,150.0,4.0,0.0
9493,58.0,240.0,150.0,8.0,0.0
9494,70.0,0.0,150.0,0.0,0.0
9495,70.0,0.0,150.0,1.0,0.0
9496,70.0,0.0,150.0,7.0,0.0
9497,46.0,0.0,150.0,10.0,0.0
9498,73.0,0.0,150.0,1.0,0.0
9499,73.0,384.0,150.0,2.0,0.0
9500,73.0,0.0,150.0,5.0,0.0
9501,73.0,0.0,150.0,6.0,0.0
9502,73.0,0.0,150.0,0.0,0.0
9503,49.0,0.0,150.0,10.0,0.0
9504,61.0,0.0,150.0,3.0,0.0
9505,49.0,0.0,150.0,4.0,0.0
9506,61.0,0.0,150.0,8.0,0.0
9507,73.0,0.0,150.0,7.0,0.0
9508,76.0,0.0,300.0,2.0,0.0
9509,76.0,0.0,300.0,0.0,0.0
9510,76.0,0.0,300.0,1.0,0.0
9511,52.0,0.0,300.0,4.0,0.0
9512,52.0,0.0,300.0,10.0,0.0
9513,64.0,480.0,300.0,3.0,0.0
9514,76.0,0.0,300.0,7.0,0.0
9515,76.0,0.0,300.0,5.0,0.0
9516,64.0,0.0,300.0,8.0,0.0
9517,76.0,0.0,300.0,6.0,0.0
9518,76.0,0.0,300.0,1.0,0.0
9519,64.0,0.0,300.0,3.0,0.0
9520,76.0,480.0,300.0,0.0,0.0
9521,64.0,0.0,300.0,8.0,0.0
9522,76.0,0.0,300.0,5.0,0.0
9523,76.0,0.0,300.0,6.0,0.0
9524,76.0,0.0,300.0,2.0,0.0
9525,52.0,0.0,300.0,4.0,0.0
9526,76.0,0.0,300.0,7.0,0.0
9527,52.0,0.0,300.0,10.0,0.0
9528,76.0,0.0,300.0,2.0,0.0
9529,52.0,0.0,300.0,10.0,0.0
9530,64.0,0.0,300.0,8.0,0.0
9531,76.0,480.0,300.0,1.0,0.0
9532,76.0,0.0,300.0,6.0,0.0
9533,76.0,0.0,300.0,0.0,0.0
9534,64.0,0.0,300.0,3.0,0.0
9535,76.0,0.0,300.0,7.0,0.0
9536,76.0,0.0,300.0,5.0,0.0
9537,52.0,0.0,300.0,4.0,0.0
9538,76.0,0.0,300.0,0.0,0.0
9539,64.0,0.0,300.0,8.0,0.0
9540,52.0,0.0,300.0,4.0,0.0
9541,76.0,0.0,300.0,1.0,0.0
9542,52.0,576.0,300.0,10.0,0.0
9543,76.0,0.0,300.0,5.0,0.0
9544,76.0,0.0,300.0,6.0,0.0
9545,76.0,0.0,300.0,2.0,0.0
9546,76.0,0.0,300.0,7.0,0.0
9547,64.0,0.0,300.0,3.0,0.0
9548,54.0,0.0,390.0,3.0,0.0
9549,54.0,0.0,390.0,8.0,0.0
9550,66.0,0.0,390.0,5.0,0.0
9551,66.0,0.0,390.0,2.0,0.0
9552,66.0,0.0,390.0,0.0,0.0
9553,66.0,0.0,390.0,6.0,0.0
9554,42.0,0.0,390.0,10.0,0.0
9555,42.0,1008.0,390.0,4.0,0.0
9556,66.0,0.0,390.0,1.0,0.0
9557,66.0,0.0,390.0,7.0,0.0
9558,78.0,240.0,180.0,5.0,0.0
9559,78.0,0.0,180.0,0.0,0.0
9560,82.0,240.0,180.0,5.0,0.0
9561,82.0,0.0,180.0,0.0,0.0
9562,87.0,0.0,180.0,0.0,0.0
9563,87.0,240.0,180.0,5.0,0.0
9564,59.0,0.0,180.0,2.0,0.0
9565,47.0,144.0,780.0,4.0,0.0
9566,90.0,0.0,300.0,0.0,0.0
9567,47.0,0.0,780.0,10.0,0.0
9568,59.0,0.0,780.0,8.0,0.0
9569,59.0,0.0,780.0,3.0,0.0
9570,90.0,144.0,300.0,5.0,0.0
9571,63.0,0.0,180.0,1.0,0.0
9572,63.0,96.0,180.0,6.0,0.0
9573,59.0,0.0,180.0,7.0,0.0
9574,63.0,0.0,180.0,6.0,0.0
9575,59.0,240.0,180.0,7.0,0.0
9576,59.0,0.0,180.0,2.0,0.0
9577,63.0,0.0,180.0,1.0,0.0
9578,90.0,0.0,300.0,0.0,0.0
9579,90.0,0.0,300.0,5.0,0.0
9580,66.0,0.0,180.0,1.0,0.0
9581,63.0,0.0,180.0,2.0,0.0
9582,63.0,96.0,180.0,7.0,0.0
9583,66.0,0.0,180.0,6.0,0.0
9584,63.0,240.0,180.0,7.0,0.0
9585,66.0,0.0,180.0,1.0,0.0
9586,66.0,0.0,180.0,6.0,0.0
9587,63.0,0.0,180.0,2.0,0.0
9588,90.0,144.0,300.0,5.0,0.0
9589,71.0,0.0,180.0,1.0,0.0
9590,66.0,0.0,180.0,7.0,0.0
9591,71.0,0.0,180.0,6.0,0.0
9592,90.0,0.0,300.0,0.0,0.0
9593,66.0,96.0,180.0,2.0,0.0
9594,71.0,0.0,180.0,6.0,0.0
9595,71.0,0.0,180.0,1.0,0.0
9596,66.0,240.0,180.0,7.0,0.0
9597,66.0,0.0,180.0,2.0,0.0
9598,75.0,0.0,180.0,1.0,0.0
9599,71.0,96.0,180.0,2.0,0.0
9600,75.0,0.0,180.0,6.0,0.0
9601,71.0,0.0,180.0,7.0,0.0
9602,90.0,144.0,300.0,5.0,0.0
9603,90.0,0.0,300.0,0.0,0.0
9604,71.0,0.0,180.0,7.0,0.0
9605,75.0,0.0,180.0,1.0,0.0
9606,71.0,0.0,180.0,2.0,0.0
9607,75.0,240.0,180.0,6.0,0.0
9608,54.0,0.0,360.0,3.0,0.0
9609,42.0,0.0,360.0,10.0,0.0
9610,76.0,0.0,180.0,6.0,0.0
9611,76.0,0.0,180.0,1.0,0.0
9612,73.0,96.0,180.0,2.0,0.0
9613,82.0,0.0,300.0,5.0,0.0
9614,73.0,0.0,180.0,7.0,0.0
9615,82.0,72.0,300.0,0.0,0.0
9616,54.0,72.0,360.0,8.0,0.0
9617,42.0,0.0,360.0,4.0,0.0
9618,76.0,0.0,180.0,1.0,0.0
9619,73.0,0.0,180.0,2.0,0.0
9620,73.0,0.0,180.0,7.0,0.0
9621,76.0,240.0,180.0,6.0,0.0
9622,73.0,0.0,180.0,2.0,0.0
9623,76.0,0.0,180.0,1.0,0.0
9624,82.0,144.0,300.0,0.0,0.0
9625,73.0,0.0,180.0,7.0,0.0
9626,82.0,0.0,300.0,5.0,0.0
9627,76.0,96.0,180.0,6.0,0.0
9628,76.0,0.0,180.0,6.0,0.0
9629,76.0,0.0,180.0,1.0,0.0
9630,73.0,0.0,180.0,7.0,0.0
9631,73.0,240.0,180.0,2.0,0.0
9632,75.0,96.0,180.0,6.0,0.0
9633,71.0,0.0,180.0,2.0,0.0
9634,47.0,0.0,360.0,4.0,0.0
9635,71.0,0.0,180.0,7.0,0.0
9636,47.0,0.0,360.0,10.0,0.0
9637,83.0,0.0,300.0,5.0,0.0
9638,59.0,72.0,360.0,8.0,0.0
9639,75.0,0.0,180.0,1.0,0.0
9640,59.0,0.0,360.0,3.0,0.0
9641,83.0,72.0,300.0,0.0,0.0
9642,71.0,0.0,180.0,2.0,0.0
9643,71.0,0.0,180.0,7.0,0.0
9644,75.0,128.0,180.0,1.0,0.0
9645,75.0,0.0,180.0,6.0,0.0
9646,83.0,80.0,90.0,0.0,0.0
9647,75.0,0.0,180.0,6.0,0.0
9648,83.0,0.0,90.0,5.0,0.0
9649,71.0,48.0,180.0,7.0,0.0
9650,75.0,0.0,180.0,1.0,0.0
9651,71.0,0.0,180.0,2.0,0.0
9652,85.0,32.0,90.0,5.0,0.0
9653,85.0,0.0,90.0,0.0,0.0
9654,83.0,0.0,90.0,5.0,0.0
9655,83.0,120.0,90.0,0.0,0.0
9656,82.0,72.0,120.0,5.0,0.0
9657,75.0,0.0,180.0,6.0,0.0
9658,71.0,0.0,180.0,7.0,0.0
9659,82.0,0.0,120.0,0.0,0.0
9660,71.0,48.0,180.0,2.0,0.0
9661,75.0,0.0,180.0,1.0,0.0
9662,83.0,192.0,120.0,0.0,0.0
9663,83.0,0.0,120.0,5.0,0.0
9664,88.0,72.0,300.0,5.0,0.0
9665,66.0,0.0,180.0,7.0,0.0
9666,88.0,0.0,300.0,0.0,0.0
9667,46.0,72.0,360.0,10.0,0.0
9668,73.0,96.0,180.0,1.0,0.0
9669,66.0,0.0,180.0,2.0,0.0
9670,58.0,0.0,360.0,3.0,0.0
9671,46.0,0.0,360.0,4.0,0.0
9672,58.0,0.0,360.0,8.0,0.0
9673,73.0,0.0,180.0,6.0,0.0
9674,73.0,0.0,180.0,6.0,0.0
9675,66.0,240.0,180.0,2.0,0.0
9676,66.0,0.0,180.0,7.0,0.0
9677,73.0,0.0,180.0,1.0,0.0
9678,88.0,144.0,300.0,5.0,0.0
9679,73.0,0.0,180.0,1.0,0.0
9680,88.0,0.0,300.0,0.0,0.0
9681,66.0,96.0,180.0,7.0,0.0
9682,73.0,0.0,180.0,6.0,0.0
9683,66.0,0.0,180.0,2.0,0.0
9684,66.0,240.0,180.0,2.0,0.0
9685,73.0,0.0,180.0,6.0,0.0
9686,73.0,0.0,180.0,1.0,0.0
9687,66.0,0.0,180.0,7.0,0.0
9688,66.0,0.0,180.0,7.0,0.0
9689,71.0,0.0,180.0,1.0,0.0
9690,59.0,0.0,360.0,8.0,0.0
9691,47.0,0.0,360.0,4.0,0.0
9692,47.0,72.0,360.0,10.0,0.0
9693,71.0,0.0,180.0,6.0,0.0
9694,66.0,96.0,180.0,2.0,0.0
9695,87.0,72.0,300.0,0.0,0.0
9696,59.0,0.0,360.0,3.0,0.0
9697,87.0,0.0,300.0,5.0,0.0
9698,71.0,0.0,180.0,6.0,0.0
9699,66.0,0.0,180.0,7.0,0.0
9700,71.0,240.0,180.0,1.0,0.0
9701,66.0,0.0,180.0,2.0,0.0
9702,66.0,0.0,180.0,7.0,0.0
9703,71.0,96.0,180.0,6.0,0.0
9704,87.0,144.0,300.0,0.0,0.0
9705,71.0,0.0,180.0,1.0,0.0
9706,66.0,0.0,180.0,2.0,0.0
9707,87.0,0.0,300.0,5.0,0.0
9708,71.0,0.0,180.0,6.0,0.0
9709,66.0,240.0,180.0,2.0,0.0
9710,66.0,0.0,180.0,7.0,0.0
9711,71.0,0.0,180.0,1.0,0.0
9712,85.0,0.0,390.0,0.0,0.0
9713,66.0,192.0,180.0,7.0,0.0
9714,54.0,48.0,390.0,8.0,0.0
9715,42.0,0.0,390.0,4.0,0.0
9716,70.0,0.0,180.0,6.0,0.0
9717,66.0,0.0,180.0,2.0,0.0
9718,54.0,0.0,390.0,3.0,0.0
9719,42.0,0.0,390.0,10.0,0.0
9720,85.0,0.0,390.0,5.0,0.0
9721,70.0,0.0,180.0,1.0,0.0
9722,75.0,0.0,180.0,1.0,0.0
9723,71.0,0.0,180.0,2.0,0.0
9724,71.0,240.0,180.0,7.0,0.0
9725,75.0,0.0,180.0,6.0,0.0
9726,73.0,0.0,180.0,6.0,0.0
9727,70.0,240.0,180.0,7.0,0.0
9728,70.0,0.0,180.0,2.0,0.0
9729,73.0,0.0,180.0,1.0,0.0
9730,71.0,0.0,180.0,6.0,0.0
9731,68.0,240.0,180.0,2.0,0.0
9732,71.0,0.0,180.0,1.0,0.0
9733,68.0,0.0,180.0,7.0,0.0
9734,70.0,0.0,180.0,6.0,0.0
9735,70.0,192.0,180.0,1.0,0.0
9736,66.0,0.0,180.0,2.0,0.0
9737,66.0,0.0,180.0,7.0,0.0
9738,64.0,0.0,180.0,7.0,0.0
9739,78.0,0.0,150.0,0.0,0.0
9740,68.0,0.0,180.0,6.0,0.0
9741,64.0,192.0,180.0,2.0,0.0
9742,68.0,0.0,180.0,1.0,0.0
9743,78.0,48.0,150.0,5.0,0.0
9744,66.0,0.0,180.0,1.0,0.0
9745,66.0,192.0,180.0,6.0,0.0
9746,83.0,48.0,150.0,0.0,0.0
9747,63.0,0.0,180.0,2.0,0.0
9748,83.0,0.0,150.0,5.0,0.0
9749,63.0,0.0,180.0,7.0,0.0
9750,61.0,0.0,180.0,2.0,0.0
9751,87.0,0.0,150.0,5.0,0.0
9752,87.0,48.0,150.0,0.0,0.0
9753,64.0,0.0,180.0,6.0,0.0
9754,64.0,0.0,180.0,1.0,0.0
9755,61.0,240.0,180.0,7.0,0.0
9756,90.0,144.0,300.0,0.0,0.0
9757,90.0,0.0,300.0,5.0,0.0
9758,63.0,0.0,180.0,1.0,0.0
9759,63.0,0.0,180.0,6.0,0.0
9760,47.0,144.0,780.0,4.0,0.0
9761,59.0,0.0,780.0,3.0,0.0
9762,59.0,96.0,180.0,7.0,0.0
9763,59.0,0.0,180.0,2.0,0.0
9764,47.0,0.0,780.0,10.0,0.0
9765,59.0,0.0,780.0,8.0,0.0
9766,59.0,0.0,180.0,7.0,0.0
9767,63.0,0.0,180.0,6.0,0.0
9768,63.0,0.0,180.0,1.0,0.0
9769,59.0,240.0,180.0,2.0,0.0
9770,90.0,0.0,300.0,0.0,0.0
9771,66.0,0.0,180.0,6.0,0.0
9772,66.0,0.0,180.0,1.0,0.0
9773,63.0,0.0,180.0,2.0,0.0
9774,90.0,0.0,300.0,5.0,0.0
9775,63.0,96.0,180.0,7.0,0.0
9776,66.0,240.0,180.0,1.0,0.0
9777,63.0,0.0,180.0,2.0,0.0
9778,63.0,0.0,180.0,7.0,0.0
9779,66.0,0.0,180.0,6.0,0.0
9780,90.0,0.0,300.0,5.0,0.0
9781,66.0,0.0,180.0,7.0,0.0
9782,66.0,96.0,180.0,2.0,0.0
9783,71.0,0.0,180.0,6.0,0.0
9784,90.0,144.0,300.0,0.0,0.0
9785,71.0,0.0,180.0,1.0,0.0
9786,66.0,240.0,180.0,7.0,0.0
9787,71.0,0.0,180.0,6.0,0.0
9788,71.0,0.0,180.0,1.0,0.0
9789,66.0,0.0,180.0,2.0,0.0
9790,90.0,144.0,300.0,0.0,0.0
9791,71.0,0.0,180.0,2.0,0.0
9792,90.0,0.0,300.0,5.0,0.0
9793,75.0,0.0,180.0,6.0,0.0
9794,75.0,96.0,180.0,1.0,0.0
9795,71.0,0.0,180.0,7.0,0.0
9796,71.0,240.0,180.0,2.0,0.0
9797,75.0,0.0,180.0,6.0,0.0
9798,71.0,0.0,180.0,7.0,0.0
9799,75.0,0.0,180.0,1.0,0.0
9800,82.0,0.0,300.0,0.0,0.0
9801,76.0,96.0,180.0,1.0,0.0
9802,73.0,0.0,180.0,7.0,0.0
9803,54.0,0.0,390.0,8.0,0.0
9804,76.0,0.0,180.0,6.0,0.0
9805,73.0,0.0,180.0,2.0,0.0
9806,82.0,96.0,300.0,5.0,0.0
9807,42.0,0.0,390.0,4.0,0.0
9808,54.0,0.0,390.0,3.0,0.0
9809,42.0,48.0,390.0,10.0,0.0
9810,76.0,128.0,180.0,6.0,0.0
9811,76.0,0.0,180.0,1.0,0.0
9812,73.0,0.0,180.0,7.0,0.0
9813,73.0,0.0,180.0,2.0,0.0
9814,82.0,80.0,90.0,0.0,0.0
9815,76.0,0.0,180.0,6.0,0.0
9816,82.0,0.0,90.0,5.0,0.0
9817,73.0,48.0,180.0,2.0,0.0
9818,76.0,0.0,180.0,1.0,0.0
9819,73.0,0.0,180.0,7.0,0.0
9820,83.0,32.0,90.0,0.0,0.0
9821,83.0,0.0,90.0,5.0,0.0
9822,82.0,120.0,90.0,0.0,0.0
9823,82.0,0.0,90.0,5.0,0.0
9824,80.0,72.0,120.0,5.0,0.0
9825,76.0,0.0,180.0,6.0,0.0
9826,73.0,0.0,180.0,7.0,0.0
9827,73.0,48.0,180.0,2.0,0.0
9828,80.0,0.0,120.0,0.0,0.0
9829,76.0,0.0,180.0,1.0,0.0
9830,82.0,0.0,120.0,5.0,0.0
9831,82.0,192.0,120.0,0.0,0.0
9832,56.0,0.0,390.0,8.0,0.0
9833,75.0,0.0,180.0,6.0,0.0
9834,56.0,0.0,390.0,3.0,0.0
9835,71.0,96.0,180.0,7.0,0.0
9836,75.0,0.0,180.0,1.0,0.0
9837,44.0,0.0,390.0,4.0,0.0
9838,44.0,48.0,390.0,10.0,0.0
9839,83.0,0.0,300.0,5.0,0.0
9840,83.0,96.0,300.0,0.0,0.0
9841,71.0,0.0,180.0,2.0,0.0
9842,75.0,0.0,180.0,6.0,0.0
9843,75.0,128.0,180.0,1.0,0.0
9844,71.0,0.0,180.0,2.0,0.0
9845,71.0,0.0,180.0,7.0,0.0
9846,71.0,48.0,180.0,2.0,0.0
9847,83.0,0.0,90.0,5.0,0.0
9848,75.0,0.0,180.0,6.0,0.0
9849,75.0,0.0,180.0,1.0,0.0
9850,83.0,80.0,90.0,0.0,0.0
9851,71.0,0.0,180.0,7.0,0.0
9852,85.0,32.0,90.0,5.0,0.0
9853,85.0,0.0,90.0,0.0,0.0
9854,83.0,120.0,90.0,5.0,0.0
9855,83.0,0.0,90.0,0.0,0.0
9856,82.0,72.0,120.0,0.0,0.0
9857,82.0,0.0,120.0,5.0,0.0
9858,75.0,0.0,180.0,6.0,0.0
9859,71.0,48.0,180.0,7.0,0.0
9860,71.0,0.0,180.0,2.0,0.0
9861,75.0,0.0,180.0,1.0,0.0
9862,83.0,192.0,120.0,5.0,0.0
9863,83.0,0.0,120.0,0.0,0.0
9864,71.0,0.0,180.0,2.0,0.0
9865,80.0,96.0,180.0,6.0,0.0
9866,52.0,0.0,390.0,3.0,0.0
9867,85.0,96.0,300.0,5.0,0.0
9868,85.0,0.0,300.0,0.0,0.0
9869,40.0,0.0,390.0,10.0,0.0
9870,52.0,0.0,390.0,8.0,0.0
9871,71.0,0.0,180.0,7.0,0.0
9872,40.0,48.0,390.0,4.0,0.0
9873,80.0,0.0,180.0,1.0,0.0
9874,71.0,0.0,180.0,2.0,0.0
9875,80.0,240.0,180.0,6.0,0.0
9876,71.0,0.0,180.0,7.0,0.0
9877,80.0,0.0,180.0,1.0,0.0
9878,80.0,0.0,180.0,1.0,0.0
9879,85.0,0.0,300.0,0.0,0.0
9880,85.0,144.0,300.0,5.0,0.0
9881,80.0,0.0,180.0,6.0,0.0
9882,71.0,0.0,180.0,2.0,0.0
9883,71.0,96.0,180.0,7.0,0.0
9884,71.0,0.0,180.0,7.0,0.0
9885,71.0,0.0,180.0,2.0,0.0
9886,80.0,0.0,180.0,1.0,0.0
9887,80.0,240.0,180.0,6.0,0.0
9888,54.0,48.0,390.0,8.0,0.0
9889,70.0,0.0,180.0,2.0,0.0
9890,76.0,0.0,180.0,1.0,0.0
9891,78.0,0.0,300.0,5.0,0.0
9892,42.0,0.0,390.0,10.0,0.0
9893,70.0,0.0,180.0,7.0,0.0
9894,76.0,96.0,180.0,6.0,0.0
9895,54.0,0.0,390.0,3.0,0.0
9896,42.0,0.0,390.0,4.0,0.0
9897,78.0,96.0,300.0,0.0,0.0
9898,76.0,0.0,180.0,1.0,0.0
9899,70.0,0.0,180.0,2.0,0.0
9900,70.0,0.0,180.0,7.0,0.0
9901,76.0,240.0,180.0,6.0,0.0
9902,71.0,48.0,180.0,7.0,0.0
9903,76.0,0.0,180.0,1.0,0.0
9904,76.0,0.0,180.0,6.0,0.0
9905,80.0,0.0,240.0,0.0,0.0
9906,71.0,0.0,180.0,2.0,0.0
9907,80.0,192.0,240.0,5.0,0.0
9908,82.0,0.0,180.0,0.0,0.0
9909,76.0,288.0,180.0,1.0,0.0
9910,73.0,0.0,180.0,2.0,0.0
9911,76.0,0.0,180.0,6.0,0.0
9912,73.0,0.0,180.0,7.0,0.0
9913,82.0,0.0,180.0,5.0,0.0
9914,83.0,48.0,240.0,0.0,0.0
9915,71.0,96.0,300.0,6.0,0.0
9916,35.0,0.0,390.0,10.0,0.0
9917,71.0,0.0,300.0,2.0,0.0
9918,47.0,96.0,390.0,8.0,0.0
9919,71.0,0.0,300.0,1.0,0.0
9920,35.0,0.0,390.0,4.0,0.0
9921,71.0,0.0,300.0,7.0,0.0
9922,83.0,0.0,240.0,5.0,0.0
9923,47.0,0.0,390.0,3.0,0.0
9924,82.0,0.0,240.0,5.0,0.0
9925,82.0,240.0,240.0,0.0,0.0
9926,63.0,0.0,480.0,2.0,0.0
9927,63.0,240.0,480.0,7.0,0.0
9928,83.0,0.0,240.0,5.0,0.0
9929,71.0,0.0,480.0,1.0,0.0
9930,83.0,240.0,240.0,0.0,0.0
9931,71.0,0.0,480.0,6.0,0.0
9932,87.0,0.0,240.0,5.0,0.0
9933,87.0,0.0,240.0,0.0,0.0
9934,73.0,0.0,480.0,1.0,0.0
9935,85.0,156.0,240.0,5.0,0.0
9936,73.0,0.0,480.0,6.0,0.0
9937,64.0,0.0,480.0,2.0,0.0
9938,64.0,156.0,480.0,7.0,0.0
9939,85.0,0.0,240.0,0.0,0.0
9940,83.0,0.0,240.0,0.0,0.0
9941,42.0,84.0,150.0,4.0,0.0
9942,42.0,0.0,150.0,10.0,0.0
9943,83.0,0.0,240.0,5.0,0.0
9944,54.0,0.0,150.0,3.0,0.0
9945,54.0,0.0,150.0,8.0,0.0
9946,66.0,12.0,390.0,2.0,0.0
9947,59.0,0.0,150.0,3.0,0.0
9948,75.0,0.0,300.0,6.0,0.0
9949,82.0,48.0,240.0,0.0,0.0
9950,82.0,0.0,240.0,5.0,0.0
9951,47.0,84.0,150.0,4.0,0.0
9952,47.0,0.0,150.0,10.0,0.0
9953,66.0,0.0,390.0,7.0,0.0
9954,75.0,96.0,300.0,1.0,0.0
9955,59.0,0.0,150.0,8.0,0.0
9956,80.0,288.0,180.0,0.0,0.0
9957,51.0,0.0,150.0,10.0,0.0
9958,80.0,0.0,180.0,5.0,0.0
9959,51.0,0.0,150.0,4.0,0.0
9960,63.0,36.0,150.0,8.0,0.0
9961,63.0,0.0,150.0,3.0,0.0
9962,78.0,72.0,240.0,0.0,0.0
9963,66.0,0.0,300.0,8.0,0.0
9964,54.0,168.0,300.0,4.0,0.0
9965,66.0,0.0,300.0,3.0,0.0
9966,78.0,0.0,240.0,5.0,0.0
9967,54.0,0.0,300.0,10.0,0.0
9968,80.0,240.0,240.0,5.0,0.0
9969,80.0,0.0,240.0,0.0,0.0
9970,64.0,0.0,480.0,7.0,0.0
9971,73.0,0.0,480.0,1.0,0.0
9972,54.0,0.0,300.0,10.0,0.0
9973,66.0,0.0,300.0,8.0,0.0
9974,82.0,72.0,240.0,0.0,0.0
9975,54.0,168.0,300.0,4.0,0.0
9976,73.0,0.0,480.0,6.0,0.0
9977,64.0,0.0,480.0,2.0,0.0
9978,82.0,0.0,240.0,5.0,0.0
9979,66.0,0.0,300.0,3.0,0.0
9980,83.0,240.0,240.0,5.0,0.0
9981,83.0,0.0,240.0,0.0,0.0
9982,71.0,240.0,480.0,6.0,0.0
9983,66.0,0.0,300.0,8.0,0.0
9984,85.0,0.0,240.0,0.0,0.0
9985,54.0,168.0,300.0,10.0,0.0
9986,63.0,0.0,480.0,7.0,0.0
9987,66.0,0.0,300.0,3.0,0.0
9988,63.0,0.0,480.0,2.0,0.0
9989,54.0,0.0,300.0,4.0,0.0
9990,71.0,0.0,480.0,1.0,0.0
9991,85.0,72.0,240.0,5.0,0.0
9992,87.0,0.0,240.0,5.0,0.0
9993,87.0,0.0,240.0,0.0,0.0
9994,54.0,0.0,300.0,10.0,0.0
9995,54.0,0.0,300.0,4.0,0.0
9996,61.0,0.0,390.0,7.0,0.0
9997,88.0,48.0,240.0,0.0,0.0
9998,66.0,0.0,300.0,3.0,0.0
9999,61.0,48.0,390.0,2.0,0.0
10000,70.0,24.0,300.0,6.0,0.0
10001,70.0,0.0,300.0,1.0,0.0
10002,88.0,0.0,240.0,5.0,0.0
10003,66.0,72.0,300.0,8.0,0.0
10004,82.0,0.0,180.0,5.0,0.0
10005,82.0,108.0,180.0,0.0,0.0
10006,85.0,60.0,60.0,0.0,0.0
10007,63.0,0.0,390.0,8.0,0.0
10008,51.0,0.0,390.0,10.0,0.0
10009,85.0,0.0,60.0,5.0,0.0
10010,51.0,96.0,390.0,4.0,0.0
10011,63.0,0.0,390.0,3.0,0.0
10012,83.0,60.0,60.0,0.0,0.0
10013,83.0,0.0,60.0,5.0,0.0
10014,85.0,60.0,60.0,5.0,0.0
10015,85.0,0.0,60.0,0.0,0.0
10016,83.0,0.0,60.0,5.0,0.0
10017,83.0,144.0,60.0,0.0,0.0
10018,82.0,240.0,240.0,0.0,0.0
10019,82.0,0.0,240.0,5.0,0.0
10020,63.0,0.0,480.0,7.0,0.0
10021,71.0,0.0,480.0,1.0,0.0
10022,63.0,0.0,480.0,2.0,0.0
10023,83.0,240.0,240.0,0.0,0.0
10024,71.0,0.0,480.0,6.0,0.0
10025,83.0,0.0,240.0,5.0,0.0
10026,87.0,240.0,240.0,5.0,0.0
10027,87.0,0.0,240.0,0.0,0.0
10028,85.0,156.0,240.0,0.0,0.0
10029,73.0,156.0,480.0,1.0,0.0
10030,73.0,0.0,480.0,6.0,0.0
10031,64.0,0.0,480.0,2.0,0.0
10032,85.0,0.0,240.0,5.0,0.0
10033,64.0,0.0,480.0,7.0,0.0
10034,83.0,0.0,240.0,0.0,0.0
10035,54.0,0.0,150.0,3.0,0.0
10036,83.0,0.0,240.0,5.0,0.0
10037,54.0,0.0,150.0,8.0,0.0
10038,42.0,84.0,150.0,10.0,0.0
10039,42.0,0.0,150.0,4.0,0.0
10040,66.0,0.0,390.0,2.0,0.0
10041,59.0,0.0,150.0,3.0,0.0
10042,82.0,0.0,240.0,0.0,0.0
10043,66.0,0.0,390.0,7.0,0.0
10044,47.0,0.0,150.0,10.0,0.0
10045,47.0,84.0,150.0,4.0,0.0
10046,75.0,0.0,390.0,1.0,0.0
10047,59.0,0.0,150.0,8.0,0.0
10048,75.0,12.0,390.0,6.0,0.0
10049,82.0,144.0,240.0,5.0,0.0
10050,51.0,0.0,150.0,4.0,0.0
10051,63.0,0.0,150.0,3.0,0.0
10052,80.0,0.0,180.0,0.0,0.0
10053,63.0,36.0,150.0,8.0,0.0
10054,51.0,0.0,150.0,10.0,0.0
10055,80.0,288.0,180.0,5.0,0.0
10056,78.0,72.0,240.0,0.0,0.0
10057,66.0,0.0,300.0,3.0,0.0
10058,78.0,0.0,240.0,5.0,0.0
10059,54.0,0.0,300.0,10.0,0.0
10060,54.0,168.0,300.0,4.0,0.0
10061,66.0,0.0,300.0,8.0,0.0
10062,80.0,0.0,240.0,5.0,0.0
10063,80.0,240.0,240.0,0.0,0.0
10064,66.0,0.0,300.0,3.0,0.0
10065,54.0,0.0,300.0,10.0,0.0
10066,82.0,0.0,240.0,5.0,0.0
10067,64.0,0.0,480.0,2.0,0.0
10068,73.0,0.0,480.0,6.0,0.0
10069,73.0,240.0,480.0,1.0,0.0
10070,82.0,72.0,240.0,0.0,0.0
10071,64.0,0.0,480.0,7.0,0.0
10072,66.0,0.0,300.0,8.0,0.0
10073,54.0,168.0,300.0,4.0,0.0
10074,83.0,0.0,240.0,0.0,0.0
10075,83.0,0.0,240.0,5.0,0.0
10076,54.0,0.0,300.0,10.0,0.0
10077,66.0,168.0,300.0,3.0,0.0
10078,85.0,72.0,240.0,0.0,0.0
10079,63.0,0.0,480.0,7.0,0.0
10080,66.0,0.0,300.0,8.0,0.0
10081,71.0,0.0,480.0,6.0,0.0
10082,71.0,0.0,480.0,1.0,0.0
10083,63.0,0.0,480.0,2.0,0.0
10084,85.0,0.0,240.0,5.0,0.0
10085,54.0,0.0,300.0,4.0,0.0
10086,87.0,240.0,240.0,5.0,0.0
10087,87.0,0.0,240.0,0.0,0.0
10088,61.0,0.0,390.0,7.0,0.0
10089,70.0,0.0,300.0,6.0,0.0
10090,70.0,24.0,300.0,1.0,0.0
10091,66.0,0.0,300.0,3.0,0.0
10092,54.0,0.0,300.0,4.0,0.0
10093,66.0,72.0,300.0,8.0,0.0
10094,88.0,0.0,240.0,0.0,0.0
10095,61.0,48.0,390.0,2.0,0.0
10096,88.0,48.0,240.0,5.0,0.0
10097,54.0,0.0,300.0,10.0,0.0
10098,82.0,108.0,180.0,0.0,0.0
10099,82.0,0.0,180.0,5.0,0.0
10100,85.0,60.0,60.0,5.0,0.0
10101,63.0,0.0,390.0,8.0,0.0
10102,51.0,0.0,390.0,4.0,0.0
10103,63.0,96.0,390.0,3.0,0.0
10104,51.0,0.0,390.0,10.0,0.0
10105,85.0,0.0,60.0,0.0,0.0
10106,83.0,0.0,60.0,5.0,0.0
10107,83.0,60.0,60.0,0.0,0.0
10108,85.0,0.0,60.0,0.0,0.0
10109,85.0,60.0,60.0,5.0,0.0
10110,83.0,0.0,60.0,0.0,0.0
10111,83.0,144.0,60.0,5.0,0.0
10112,82.0,0.0,240.0,0.0,0.0
10113,82.0,240.0,240.0,5.0,0.0
10114,83.0,240.0,240.0,0.0,0.0
10115,71.0,240.0,480.0,1.0,0.0
10116,63.0,0.0,480.0,7.0,0.0
10117,71.0,0.0,480.0,6.0,0.0
10118,63.0,0.0,480.0,2.0,0.0
10119,83.0,0.0,240.0,5.0,0.0
10120,87.0,0.0,240.0,5.0,0.0
10121,87.0,0.0,240.0,0.0,0.0
10122,64.0,156.0,480.0,7.0,0.0
10123,73.0,0.0,480.0,6.0,0.0
10124,85.0,0.0,240.0,0.0,0.0
10125,64.0,0.0,480.0,2.0,0.0
10126,85.0,156.0,240.0,5.0,0.0
10127,73.0,0.0,480.0,1.0,0.0
10128,83.0,0.0,240.0,5.0,0.0
10129,42.0,0.0,150.0,4.0,0.0
10130,54.0,0.0,150.0,8.0,0.0
10131,42.0,0.0,150.0,10.0,0.0
10132,83.0,0.0,240.0,0.0,0.0
10133,54.0,84.0,150.0,3.0,0.0
10134,82.0,0.0,240.0,5.0,0.0
10135,82.0,144.0,240.0,0.0,0.0
10136,47.0,84.0,150.0,10.0,0.0
10137,66.0,0.0,390.0,2.0,0.0
10138,75.0,0.0,390.0,6.0,0.0
10139,47.0,0.0,150.0,4.0,0.0
10140,75.0,0.0,390.0,1.0,0.0
10141,59.0,0.0,150.0,8.0,0.0
10142,59.0,0.0,150.0,3.0,0.0
10143,66.0,12.0,390.0,7.0,0.0
10144,51.0,36.0,150.0,4.0,0.0
10145,63.0,0.0,150.0,3.0,0.0
10146,63.0,0.0,150.0,8.0,0.0
10147,51.0,0.0,150.0,10.0,0.0
10148,80.0,0.0,180.0,5.0,0.0
10149,80.0,288.0,180.0,0.0,0.0
10150,54.0,0.0,300.0,10.0,0.0
10151,66.0,168.0,300.0,3.0,0.0
10152,66.0,0.0,300.0,8.0,0.0
10153,78.0,72.0,240.0,5.0,0.0
10154,78.0,0.0,240.0,0.0,0.0
10155,54.0,0.0,300.0,4.0,0.0
10156,80.0,240.0,240.0,0.0,0.0
10157,80.0,0.0,240.0,5.0,0.0
10158,64.0,0.0,480.0,7.0,0.0
10159,66.0,0.0,300.0,3.0,0.0
10160,82.0,72.0,240.0,5.0,0.0
10161,82.0,0.0,240.0,0.0,0.0
10162,73.0,0.0,480.0,1.0,0.0
10163,66.0,168.0,300.0,8.0,0.0
10164,64.0,240.0,480.0,2.0,0.0
10165,54.0,0.0,300.0,10.0,0.0
10166,73.0,0.0,480.0,6.0,0.0
10167,54.0,0.0,300.0,4.0,0.0
10168,83.0,0.0,240.0,0.0,0.0
10169,83.0,0.0,240.0,5.0,0.0
10170,55.0,0.0,300.0,4.0,0.0
10171,70.0,0.0,300.0,1.0,0.0
10172,63.0,0.0,300.0,7.0,0.0
10173,67.0,168.0,300.0,8.0,0.0
10174,63.0,0.0,300.0,2.0,0.0
10175,67.0,0.0,300.0,3.0,0.0
10176,85.0,0.0,240.0,0.0,0.0
10177,85.0,48.0,240.0,5.0,0.0
10178,70.0,24.0,300.0,6.0,0.0
10179,55.0,0.0,300.0,10.0,0.0
10180,87.0,0.0,240.0,5.0,0.0
10181,87.0,240.0,240.0,0.0,0.0
10182,88.0,48.0,240.0,0.0,0.0
10183,55.0,120.0,300.0,10.0,0.0
10184,76.0,0.0,300.0,1.0,0.0
10185,73.0,24.0,300.0,2.0,0.0
10186,55.0,0.0,300.0,4.0,0.0
10187,67.0,0.0,300.0,8.0,0.0
10188,73.0,0.0,300.0,7.0,0.0
10189,67.0,0.0,300.0,3.0,0.0
10190,76.0,0.0,300.0,6.0,0.0
10191,88.0,0.0,240.0,5.0,0.0
10192,82.0,288.0,180.0,0.0,0.0
10193,82.0,0.0,180.0,5.0,0.0
10194,56.0,0.0,960.0,10.0,0.0
10195,75.0,0.0,780.0,6.0,0.0
10196,85.0,240.0,240.0,0.0,0.0
10197,71.0,0.0,1440.0,2.0,0.0
10198,68.0,0.0,960.0,8.0,0.0
10199,75.0,192.0,780.0,1.0,0.0
10200,56.0,0.0,960.0,4.0,0.0
10201,85.0,0.0,240.0,5.0,0.0
10202,68.0,0.0,960.0,3.0,0.0
10203,71.0,240.0,1440.0,7.0,0.0
10204,83.0,0.0,240.0,0.0,0.0
10205,83.0,240.0,240.0,5.0,0.0
10206,82.0,0.0,240.0,0.0,0.0
10207,82.0,48.0,240.0,5.0,0.0
10208,83.0,240.0,240.0,0.0,0.0
10209,83.0,0.0,240.0,5.0,0.0
10210,52.0,240.0,960.0,10.0,0.0
10211,64.0,0.0,960.0,8.0,0.0
10212,82.0,0.0,240.0,0.0,0.0
10213,78.0,0.0,240.0,1.0,0.0
10214,82.0,0.0,240.0,5.0,0.0
10215,78.0,240.0,240.0,6.0,0.0
10216,52.0,0.0,960.0,4.0,0.0
10217,64.0,0.0,960.0,3.0,0.0
10218,76.0,0.0,240.0,6.0,0.0
10219,80.0,0.0,240.0,5.0,0.0
10220,80.0,0.0,240.0,0.0,0.0
10221,76.0,0.0,240.0,1.0,0.0
10222,68.0,0.0,390.0,2.0,0.0
10223,78.0,0.0,240.0,0.0,0.0
10224,78.0,0.0,240.0,5.0,0.0
10225,75.0,144.0,240.0,1.0,0.0
10226,68.0,48.0,390.0,7.0,0.0
10227,75.0,0.0,240.0,6.0,0.0
10228,76.0,0.0,180.0,0.0,0.0
10229,76.0,48.0,180.0,5.0,0.0
10230,73.0,0.0,180.0,1.0,0.0
10231,73.0,0.0,180.0,6.0,0.0
10232,66.0,0.0,1830.0,2.0,0.0
10233,71.0,0.0,240.0,1.0,0.0
10234,66.0,0.0,780.0,3.0,0.0
10235,75.0,0.0,240.0,5.0,0.0
10236,66.0,0.0,780.0,8.0,0.0
10237,54.0,144.0,780.0,10.0,0.0
10238,75.0,0.0,240.0,0.0,0.0
10239,66.0,0.0,1830.0,7.0,0.0
10240,54.0,0.0,780.0,4.0,0.0
10241,71.0,240.0,240.0,6.0,0.0
10242,73.0,0.0,240.0,1.0,0.0
10243,76.0,0.0,240.0,0.0,0.0
10244,73.0,240.0,240.0,6.0,0.0
10245,76.0,0.0,240.0,5.0,0.0
10246,74.0,0.0,240.0,6.0,0.0
10247,74.0,48.0,240.0,1.0,0.0
10248,77.0,0.0,240.0,5.0,0.0
10249,77.0,0.0,240.0,0.0,0.0
10250,75.0,0.0,180.0,6.0,0.0
10251,75.0,0.0,180.0,1.0,0.0
10252,78.0,0.0,180.0,0.0,0.0
10253,78.0,288.0,180.0,5.0,0.0
10254,78.0,0.0,240.0,5.0,0.0
10255,42.0,0.0,780.0,10.0,0.0
10256,75.0,0.0,240.0,6.0,0.0
10257,54.0,96.0,780.0,8.0,0.0
10258,78.0,0.0,240.0,0.0,0.0
10259,42.0,0.0,780.0,4.0,0.0
10260,54.0,0.0,780.0,3.0,0.0
10261,75.0,240.0,240.0,1.0,0.0
10262,73.0,0.0,240.0,6.0,0.0
10263,76.0,0.0,240.0,5.0,0.0
10264,76.0,240.0,240.0,0.0,0.0
10265,73.0,0.0,240.0,1.0,0.0
10266,71.0,0.0,240.0,1.0,0.0
10267,64.0,0.0,390.0,2.0,0.0
10268,75.0,0.0,240.0,5.0,0.0
10269,71.0,0.0,240.0,6.0,0.0
10270,64.0,48.0,390.0,7.0,0.0
10271,75.0,48.0,240.0,0.0,0.0
10272,70.0,0.0,180.0,6.0,0.0
10273,70.0,0.0,180.0,1.0,0.0
10274,73.0,240.0,180.0,0.0,0.0
10275,73.0,0.0,180.0,5.0,0.0
10276,47.0,0.0,180.0,4.0,0.0
10277,47.0,0.0,180.0,10.0,0.0
10278,66.0,216.0,450.0,7.0,0.0
10279,71.0,0.0,450.0,6.0,0.0
10280,66.0,0.0,450.0,2.0,0.0
10281,63.0,0.0,450.0,2.0,0.0
10282,63.0,0.0,450.0,7.0,0.0
10283,59.0,240.0,180.0,8.0,0.0
10284,59.0,0.0,180.0,3.0,0.0
10285,71.0,0.0,450.0,0.0,0.0
10286,71.0,0.0,450.0,5.0,0.0
10287,71.0,0.0,450.0,1.0,0.0
10288,66.0,0.0,180.0,3.0,0.0
10289,54.0,24.0,180.0,4.0,0.0
10290,54.0,0.0,180.0,10.0,0.0
10291,66.0,0.0,180.0,8.0,0.0
10292,54.0,240.0,180.0,4.0,0.0
10293,54.0,0.0,180.0,10.0,0.0
10294,66.0,0.0,180.0,3.0,0.0
10295,66.0,0.0,180.0,8.0,0.0
10296,54.0,0.0,180.0,4.0,0.0
10297,66.0,0.0,180.0,8.0,0.0
10298,54.0,240.0,180.0,10.0,0.0
10299,66.0,0.0,180.0,3.0,0.0
10300,52.0,0.0,180.0,10.0,0.0
10301,52.0,0.0,180.0,4.0,0.0
10302,64.0,0.0,180.0,3.0,0.0
10303,64.0,192.0,180.0,8.0,0.0
10304,66.0,192.0,180.0,3.0,0.0
10305,54.0,0.0,180.0,10.0,0.0
10306,54.0,0.0,180.0,4.0,0.0
10307,78.0,0.0,150.0,5.0,0.0
10308,66.0,0.0,180.0,8.0,0.0
10309,78.0,48.0,150.0,0.0,0.0
10310,51.0,0.0,180.0,10.0,0.0
10311,63.0,0.0,180.0,8.0,0.0
10312,83.0,48.0,150.0,5.0,0.0
10313,51.0,0.0,180.0,4.0,0.0
10314,63.0,96.0,180.0,3.0,0.0
10315,83.0,96.0,300.0,1.0,0.0
10316,83.0,0.0,150.0,0.0,0.0
10317,83.0,0.0,300.0,6.0,0.0
10318,54.0,0.0,180.0,4.0,0.0
10319,66.0,0.0,180.0,3.0,0.0
10320,87.0,0.0,150.0,0.0,0.0
10321,87.0,48.0,150.0,5.0,0.0
10322,54.0,0.0,180.0,10.0,0.0
10323,66.0,240.0,180.0,8.0,0.0
10324,61.0,0.0,180.0,3.0,0.0
10325,90.0,0.0,300.0,0.0,0.0
10326,61.0,0.0,180.0,8.0,0.0
10327,90.0,144.0,300.0,5.0,0.0
10328,82.0,0.0,300.0,1.0,0.0
10329,82.0,0.0,300.0,6.0,0.0
10330,49.0,96.0,180.0,10.0,0.0
10331,49.0,0.0,180.0,4.0,0.0
10332,66.0,0.0,180.0,8.0,0.0
10333,54.0,240.0,180.0,4.0,0.0
10334,66.0,0.0,180.0,3.0,0.0
10335,54.0,0.0,180.0,10.0,0.0
10336,83.0,0.0,300.0,6.0,0.0
10337,59.0,96.0,180.0,8.0,0.0
10338,59.0,0.0,180.0,3.0,0.0
10339,90.0,0.0,300.0,0.0,0.0
10340,83.0,144.0,300.0,1.0,0.0
10341,47.0,0.0,180.0,4.0,0.0
10342,47.0,0.0,180.0,10.0,0.0
10343,90.0,0.0,300.0,5.0,0.0
10344,54.0,0.0,180.0,4.0,0.0
10345,54.0,0.0,180.0,10.0,0.0
10346,66.0,0.0,180.0,3.0,0.0
10347,66.0,240.0,180.0,8.0,0.0
10348,46.0,0.0,180.0,10.0,0.0
10349,58.0,0.0,180.0,8.0,0.0
10350,85.0,48.0,720.0,1.0,0.0
10351,90.0,0.0,300.0,5.0,0.0
10352,46.0,0.0,180.0,4.0,0.0
10353,90.0,96.0,300.0,0.0,0.0
10354,58.0,96.0,180.0,3.0,0.0
10355,85.0,0.0,720.0,6.0,0.0
10356,66.0,0.0,180.0,8.0,0.0
10357,54.0,0.0,180.0,10.0,0.0
10358,66.0,48.0,150.0,7.0,0.0
10359,66.0,192.0,180.0,3.0,0.0
10360,54.0,0.0,180.0,4.0,0.0
10361,66.0,0.0,150.0,2.0,0.0
10362,70.0,0.0,150.0,2.0,0.0
10363,42.0,48.0,180.0,10.0,0.0
10364,54.0,0.0,180.0,8.0,0.0
10365,90.0,72.0,300.0,5.0,0.0
10366,42.0,0.0,180.0,4.0,0.0
10367,70.0,48.0,150.0,7.0,0.0
10368,54.0,0.0,180.0,3.0,0.0
10369,90.0,0.0,300.0,0.0,0.0
10370,66.0,0.0,180.0,8.0,0.0
10371,73.0,48.0,150.0,7.0,0.0
10372,54.0,240.0,180.0,4.0,0.0
10373,66.0,0.0,180.0,3.0,0.0
10374,54.0,0.0,180.0,10.0,0.0
10375,87.0,24.0,120.0,1.0,0.0
10376,73.0,0.0,150.0,2.0,0.0
10377,87.0,0.0,120.0,6.0,0.0
10378,88.0,0.0,60.0,1.0,0.0
10379,88.0,0.0,60.0,6.0,0.0
10380,66.0,0.0,390.0,5.0,0.0
10381,86.0,0.0,480.0,1.0,0.0
10382,66.0,48.0,390.0,0.0,0.0
10383,47.0,96.0,180.0,4.0,0.0
10384,59.0,0.0,180.0,8.0,0.0
10385,47.0,0.0,180.0,10.0,0.0
10386,78.0,0.0,300.0,2.0,0.0
10387,78.0,96.0,300.0,7.0,0.0
10388,86.0,192.0,480.0,6.0,0.0
10389,59.0,0.0,180.0,3.0,0.0
10390,54.0,48.0,180.0,10.0,0.0
10391,66.0,0.0,180.0,8.0,0.0
10392,54.0,0.0,180.0,4.0,0.0
10393,66.0,0.0,180.0,3.0,0.0
10394,66.0,0.0,180.0,3.0,0.0
10395,66.0,96.0,180.0,8.0,0.0
10396,87.0,48.0,390.0,6.0,0.0
10397,78.0,0.0,300.0,7.0,0.0
10398,54.0,0.0,180.0,10.0,0.0
10399,78.0,96.0,300.0,2.0,0.0
10400,87.0,0.0,390.0,1.0,0.0
10401,54.0,0.0,180.0,4.0,0.0
10402,66.0,0.0,180.0,8.0,0.0
10403,54.0,240.0,180.0,10.0,0.0
10404,54.0,0.0,180.0,4.0,0.0
10405,66.0,0.0,180.0,3.0,0.0
10406,64.0,0.0,180.0,3.0,0.0
10407,78.0,96.0,300.0,7.0,0.0
10408,64.0,0.0,180.0,8.0,0.0
10409,78.0,0.0,300.0,2.0,0.0
10410,52.0,96.0,180.0,10.0,0.0
10411,52.0,0.0,180.0,4.0,0.0
10412,66.0,0.0,180.0,8.0,0.0
10413,54.0,0.0,180.0,10.0,0.0
10414,54.0,0.0,180.0,4.0,0.0
10415,78.0,48.0,150.0,0.0,0.0
10416,78.0,0.0,150.0,5.0,0.0
10417,66.0,192.0,180.0,3.0,0.0
10418,83.0,48.0,150.0,0.0,0.0
10419,78.0,0.0,300.0,7.0,0.0
10420,51.0,0.0,180.0,4.0,0.0
10421,83.0,96.0,300.0,1.0,0.0
10422,51.0,0.0,180.0,10.0,0.0
10423,63.0,96.0,180.0,3.0,0.0
10424,83.0,0.0,300.0,6.0,0.0
10425,78.0,0.0,300.0,2.0,0.0
10426,63.0,0.0,180.0,8.0,0.0
10427,83.0,0.0,150.0,5.0,0.0
10428,66.0,240.0,180.0,8.0,0.0
10429,87.0,0.0,150.0,0.0,0.0
10430,54.0,0.0,180.0,10.0,0.0
10431,66.0,0.0,180.0,3.0,0.0
10432,87.0,48.0,150.0,5.0,0.0
10433,54.0,0.0,180.0,4.0,0.0
10434,82.0,0.0,300.0,1.0,0.0
10435,61.0,0.0,180.0,3.0,0.0
10436,54.0,48.0,390.0,2.0,0.0
10437,90.0,0.0,300.0,5.0,0.0
10438,54.0,0.0,390.0,7.0,0.0
10439,49.0,0.0,180.0,10.0,0.0
10440,82.0,0.0,300.0,6.0,0.0
10441,61.0,96.0,180.0,8.0,0.0
10442,49.0,0.0,180.0,4.0,0.0
10443,90.0,96.0,300.0,0.0,0.0
10444,54.0,240.0,180.0,4.0,0.0
10445,54.0,0.0,180.0,10.0,0.0
10446,66.0,0.0,180.0,8.0,0.0
10447,66.0,0.0,180.0,3.0,0.0
10448,47.0,96.0,180.0,10.0,0.0
10449,59.0,0.0,180.0,8.0,0.0
10450,90.0,0.0,300.0,5.0,0.0
10451,59.0,0.0,180.0,3.0,0.0
10452,83.0,0.0,300.0,1.0,0.0
10453,47.0,0.0,180.0,4.0,0.0
10454,90.0,144.0,300.0,0.0,0.0
10455,83.0,0.0,300.0,6.0,0.0
10456,54.0,0.0,180.0,4.0,0.0
10457,66.0,240.0,180.0,3.0,0.0
10458,66.0,0.0,180.0,8.0,0.0
10459,54.0,0.0,180.0,10.0,0.0
10460,58.0,0.0,180.0,3.0,0.0
10461,58.0,0.0,180.0,8.0,0.0
10462,85.0,48.0,720.0,6.0,0.0
10463,46.0,0.0,180.0,10.0,0.0
10464,90.0,96.0,300.0,5.0,0.0
10465,85.0,0.0,720.0,1.0,0.0
10466,46.0,96.0,180.0,4.0,0.0
10467,90.0,0.0,300.0,0.0,0.0
10468,66.0,0.0,150.0,7.0,0.0
10469,66.0,192.0,180.0,8.0,0.0
10470,66.0,48.0,150.0,2.0,0.0
10471,66.0,0.0,180.0,3.0,0.0
10472,54.0,0.0,180.0,10.0,0.0
10473,54.0,0.0,180.0,4.0,0.0
10474,54.0,0.0,180.0,8.0,0.0
10475,54.0,0.0,180.0,3.0,0.0
10476,42.0,48.0,180.0,10.0,0.0
10477,42.0,0.0,180.0,4.0,0.0
10478,70.0,48.0,150.0,2.0,0.0
10479,90.0,72.0,300.0,0.0,0.0
10480,90.0,0.0,300.0,5.0,0.0
10481,70.0,0.0,150.0,7.0,0.0
10482,66.0,0.0,180.0,8.0,0.0
10483,66.0,0.0,180.0,3.0,0.0
10484,87.0,0.0,120.0,1.0,0.0
10485,73.0,0.0,150.0,7.0,0.0
10486,54.0,240.0,180.0,4.0,0.0
10487,73.0,48.0,150.0,2.0,0.0
10488,54.0,0.0,180.0,10.0,0.0
10489,87.0,24.0,120.0,6.0,0.0
10490,88.0,0.0,60.0,1.0,0.0
10491,88.0,0.0,60.0,6.0,0.0
10492,47.0,96.0,180.0,4.0,0.0
10493,78.0,0.0,300.0,2.0,0.0
10494,86.0,192.0,480.0,6.0,0.0
10495,66.0,0.0,390.0,5.0,0.0
10496,86.0,0.0,480.0,1.0,0.0
10497,78.0,96.0,300.0,7.0,0.0
10498,47.0,0.0,180.0,10.0,0.0
10499,66.0,48.0,390.0,0.0,0.0
10500,59.0,0.0,180.0,8.0,0.0
10501,59.0,0.0,180.0,3.0,0.0
10502,54.0,0.0,180.0,10.0,0.0
10503,66.0,48.0,180.0,8.0,0.0
10504,66.0,0.0,180.0,3.0,0.0
10505,54.0,0.0,180.0,4.0,0.0
10506,87.0,0.0,390.0,6.0,0.0
10507,87.0,48.0,390.0,1.0,0.0
10508,54.0,0.0,180.0,10.0,0.0
10509,54.0,96.0,180.0,4.0,0.0
10510,66.0,0.0,180.0,3.0,0.0
10511,78.0,96.0,300.0,2.0,0.0
10512,78.0,0.0,300.0,7.0,0.0
10513,66.0,0.0,180.0,8.0,0.0
10514,54.0,0.0,180.0,4.0,0.0
10515,54.0,240.0,180.0,10.0,0.0
10516,66.0,0.0,180.0,8.0,0.0
10517,66.0,0.0,180.0,3.0,0.0
10518,64.0,0.0,180.0,8.0,0.0
10519,52.0,0.0,180.0,4.0,0.0
10520,78.0,96.0,300.0,2.0,0.0
10521,78.0,0.0,300.0,7.0,0.0
10522,64.0,96.0,180.0,3.0,0.0
10523,52.0,0.0,180.0,10.0,0.0
10524,54.0,192.0,180.0,4.0,0.0
10525,66.0,0.0,180.0,3.0,0.0
10526,78.0,0.0,150.0,5.0,0.0
10527,54.0,0.0,180.0,10.0,0.0
10528,78.0,48.0,150.0,0.0,0.0
10529,66.0,0.0,180.0,8.0,0.0
10530,63.0,0.0,180.0,3.0,0.0
10531,63.0,96.0,180.0,8.0,0.0
10532,83.0,48.0,150.0,5.0,0.0
10533,51.0,0.0,180.0,10.0,0.0
10534,78.0,96.0,300.0,7.0,0.0
10535,51.0,0.0,180.0,4.0,0.0
10536,78.0,0.0,300.0,2.0,0.0
10537,83.0,0.0,300.0,1.0,0.0
10538,83.0,0.0,300.0,6.0,0.0
10539,83.0,0.0,150.0,0.0,0.0
10540,87.0,0.0,150.0,0.0,0.0
10541,54.0,0.0,180.0,10.0,0.0
10542,66.0,240.0,180.0,3.0,0.0
10543,66.0,0.0,180.0,8.0,0.0
10544,54.0,0.0,180.0,4.0,0.0
10545,87.0,48.0,150.0,5.0,0.0
10546,90.0,96.0,300.0,5.0,0.0
10547,54.0,0.0,390.0,2.0,0.0
10548,82.0,0.0,300.0,1.0,0.0
10549,61.0,0.0,180.0,8.0,0.0
10550,61.0,0.0,180.0,3.0,0.0
10551,49.0,0.0,180.0,4.0,0.0
10552,82.0,0.0,300.0,6.0,0.0
10553,49.0,96.0,180.0,10.0,0.0
10554,54.0,48.0,390.0,7.0,0.0
10555,90.0,0.0,300.0,0.0,0.0
10556,54.0,240.0,180.0,4.0,0.0
10557,66.0,0.0,180.0,8.0,0.0
10558,54.0,0.0,180.0,10.0,0.0
10559,66.0,0.0,180.0,3.0,0.0
10560,59.0,0.0,180.0,3.0,0.0
10561,47.0,0.0,180.0,10.0,0.0
10562,59.0,96.0,180.0,8.0,0.0
10563,83.0,0.0,300.0,1.0,0.0
10564,90.0,144.0,300.0,5.0,0.0
10565,83.0,0.0,300.0,6.0,0.0
10566,90.0,0.0,300.0,0.0,0.0
10567,47.0,0.0,180.0,4.0,0.0
10568,54.0,240.0,180.0,10.0,0.0
10569,66.0,0.0,180.0,3.0,0.0
10570,54.0,0.0,180.0,4.0,0.0
10571,66.0,0.0,180.0,8.0,0.0
10572,58.0,96.0,180.0,3.0,0.0
10573,58.0,0.0,180.0,8.0,0.0
10574,46.0,0.0,180.0,10.0,0.0
10575,90.0,0.0,300.0,0.0,0.0
10576,85.0,48.0,720.0,6.0,0.0
10577,46.0,0.0,180.0,4.0,0.0
10578,90.0,96.0,300.0,5.0,0.0
10579,85.0,0.0,720.0,1.0,0.0
10580,54.0,0.0,180.0,10.0,0.0
10581,66.0,0.0,180.0,3.0,0.0
10582,66.0,192.0,180.0,8.0,0.0
10583,66.0,48.0,150.0,7.0,0.0
10584,54.0,0.0,180.0,4.0,0.0
10585,66.0,0.0,150.0,2.0,0.0
10586,90.0,0.0,300.0,5.0,0.0
10587,90.0,72.0,300.0,0.0,0.0
10588,70.0,48.0,150.0,7.0,0.0
10589,70.0,0.0,150.0,2.0,0.0
10590,54.0,48.0,180.0,8.0,0.0
10591,54.0,0.0,180.0,3.0,0.0
10592,42.0,0.0,180.0,10.0,0.0
10593,42.0,0.0,180.0,4.0,0.0
10594,54.0,0.0,180.0,4.0,0.0
10595,66.0,0.0,180.0,3.0,0.0
10596,73.0,0.0,150.0,7.0,0.0
10597,66.0,0.0,180.0,8.0,0.0
10598,87.0,24.0,120.0,1.0,0.0
10599,87.0,0.0,120.0,6.0,0.0
10600,73.0,48.0,150.0,2.0,0.0
10601,54.0,240.0,180.0,10.0,0.0
10602,88.0,0.0,60.0,6.0,0.0
10603,88.0,0.0,60.0,1.0,0.0
10604,47.0,0.0,180.0,4.0,0.0
10605,59.0,0.0,180.0,8.0,0.0
10606,90.0,144.0,240.0,0.0,0.0
10607,87.0,0.0,240.0,6.0,0.0
10608,90.0,0.0,240.0,5.0,0.0
10609,59.0,48.0,180.0,3.0,0.0
10610,47.0,0.0,180.0,10.0,0.0
10611,71.0,0.0,240.0,7.0,0.0
10612,87.0,0.0,240.0,1.0,0.0
10613,71.0,0.0,240.0,2.0,0.0
10614,47.0,0.0,180.0,10.0,0.0
10615,66.0,36.0,150.0,2.0,0.0
10616,47.0,192.0,180.0,4.0,0.0
10617,66.0,0.0,150.0,7.0,0.0
10618,83.0,0.0,150.0,1.0,0.0
10619,87.0,12.0,150.0,5.0,0.0
10620,59.0,0.0,180.0,3.0,0.0
10621,83.0,0.0,150.0,6.0,0.0
10622,59.0,0.0,180.0,8.0,0.0
10623,87.0,0.0,150.0,0.0,0.0
10624,66.0,0.0,150.0,7.0,0.0
10625,66.0,36.0,150.0,2.0,0.0
10626,87.0,0.0,150.0,0.0,0.0
10627,59.0,0.0,180.0,8.0,0.0
10628,83.0,12.0,150.0,6.0,0.0
10629,87.0,0.0,150.0,5.0,0.0
10630,47.0,192.0,180.0,10.0,0.0
10631,47.0,0.0,180.0,4.0,0.0
10632,83.0,0.0,150.0,1.0,0.0
10633,59.0,0.0,180.0,3.0,0.0
10634,66.0,0.0,150.0,2.0,0.0
10635,47.0,0.0,180.0,4.0,0.0
10636,87.0,0.0,150.0,0.0,0.0
10637,83.0,12.0,150.0,1.0,0.0
10638,59.0,0.0,180.0,8.0,0.0
10639,83.0,0.0,150.0,6.0,0.0
10640,59.0,204.0,180.0,3.0,0.0
10641,87.0,0.0,150.0,5.0,0.0
10642,47.0,0.0,180.0,10.0,0.0
10643,66.0,36.0,150.0,7.0,0.0
10644,66.0,36.0,150.0,2.0,0.0
10645,83.0,144.0,240.0,6.0,0.0
10646,59.0,48.0,180.0,8.0,0.0
10647,87.0,0.0,240.0,0.0,0.0
10648,47.0,0.0,180.0,4.0,0.0
10649,83.0,0.0,240.0,1.0,0.0
10650,66.0,0.0,150.0,7.0,0.0
10651,47.0,0.0,180.0,10.0,0.0
10652,87.0,0.0,240.0,5.0,0.0
10653,59.0,0.0,180.0,3.0,0.0
10654,83.0,0.0,150.0,0.0,0.0
10655,83.0,12.0,150.0,5.0,0.0
10656,59.0,192.0,180.0,8.0,0.0
10657,59.0,0.0,180.0,3.0,0.0
10658,47.0,0.0,180.0,4.0,0.0
10659,66.0,36.0,150.0,2.0,0.0
10660,66.0,0.0,150.0,7.0,0.0
10661,47.0,0.0,180.0,10.0,0.0
10662,75.0,0.0,150.0,1.0,0.0
10663,75.0,0.0,150.0,6.0,0.0
10664,83.0,0.0,150.0,5.0,0.0
10665,47.0,192.0,180.0,10.0,0.0
10666,59.0,0.0,180.0,3.0,0.0
10667,66.0,36.0,150.0,2.0,0.0
10668,47.0,0.0,180.0,4.0,0.0
10669,75.0,0.0,150.0,6.0,0.0
10670,83.0,0.0,150.0,0.0,0.0
10671,75.0,12.0,150.0,1.0,0.0
10672,66.0,0.0,150.0,7.0,0.0
10673,59.0,0.0,180.0,8.0,0.0
10674,59.0,0.0,180.0,3.0,0.0
10675,66.0,0.0,150.0,7.0,0.0
10676,66.0,36.0,150.0,2.0,0.0
10677,75.0,0.0,150.0,1.0,0.0
10678,83.0,0.0,150.0,0.0,0.0
10679,75.0,12.0,150.0,6.0,0.0
10680,47.0,0.0,180.0,10.0,0.0
10681,47.0,0.0,180.0,4.0,0.0
10682,83.0,0.0,150.0,5.0,0.0
10683,59.0,204.0,180.0,8.0,0.0
10684,83.0,0.0,240.0,5.0,0.0
10685,52.0,0.0,180.0,8.0,0.0
10686,40.0,48.0,180.0,10.0,0.0
10687,83.0,0.0,240.0,0.0,0.0
10688,80.0,0.0,240.0,6.0,0.0
10689,40.0,0.0,180.0,4.0,0.0
10690,64.0,36.0,150.0,7.0,0.0
10691,80.0,144.0,240.0,1.0,0.0
10692,64.0,0.0,150.0,2.0,0.0
10693,52.0,0.0,180.0,3.0,0.0
10694,52.0,0.0,180.0,8.0,0.0
10695,71.0,0.0,150.0,7.0,0.0
10696,52.0,0.0,180.0,3.0,0.0
10697,80.0,0.0,150.0,5.0,0.0
10698,76.0,12.0,150.0,1.0,0.0
10699,40.0,0.0,180.0,10.0,0.0
10700,71.0,36.0,150.0,2.0,0.0
10701,40.0,192.0,180.0,4.0,0.0
10702,76.0,0.0,150.0,6.0,0.0
10703,80.0,0.0,150.0,0.0,0.0
10704,76.0,12.0,150.0,1.0,0.0
10705,52.0,0.0,180.0,3.0,0.0
10706,71.0,0.0,150.0,7.0,0.0
10707,40.0,192.0,180.0,10.0,0.0
10708,52.0,0.0,180.0,8.0,0.0
10709,71.0,36.0,150.0,2.0,0.0
10710,40.0,0.0,180.0,4.0,0.0
10711,80.0,0.0,150.0,5.0,0.0
10712,76.0,0.0,150.0,6.0,0.0
10713,80.0,0.0,150.0,0.0,0.0
10714,52.0,204.0,180.0,8.0,0.0
10715,80.0,0.0,150.0,5.0,0.0
10716,52.0,0.0,180.0,3.0,0.0
10717,80.0,0.0,150.0,0.0,0.0
10718,40.0,0.0,180.0,10.0,0.0
10719,76.0,0.0,150.0,6.0,0.0
10720,40.0,0.0,180.0,4.0,0.0
10721,76.0,12.0,150.0,1.0,0.0
10722,71.0,36.0,150.0,7.0,0.0
10723,71.0,0.0,150.0,2.0,0.0
10724,66.0,36.0,150.0,2.0,0.0
10725,42.0,0.0,180.0,4.0,0.0
10726,78.0,0.0,240.0,0.0,0.0
10727,42.0,0.0,180.0,10.0,0.0
10728,78.0,0.0,240.0,5.0,0.0
10729,54.0,48.0,180.0,3.0,0.0
10730,54.0,0.0,180.0,8.0,0.0
10731,66.0,0.0,150.0,7.0,0.0
10732,75.0,0.0,240.0,1.0,0.0
10733,75.0,144.0,240.0,6.0,0.0
10734,71.0,12.0,150.0,1.0,0.0
10735,75.0,0.0,150.0,0.0,0.0
10736,66.0,0.0,150.0,2.0,0.0
10737,66.0,36.0,150.0,7.0,0.0
10738,42.0,0.0,180.0,4.0,0.0
10739,42.0,0.0,180.0,10.0,0.0
10740,71.0,0.0,150.0,6.0,0.0
10741,75.0,0.0,150.0,5.0,0.0
10742,54.0,204.0,180.0,3.0,0.0
10743,54.0,0.0,180.0,8.0,0.0
10744,66.0,0.0,150.0,7.0,0.0
10745,64.0,36.0,150.0,7.0,0.0
10746,76.0,0.0,240.0,5.0,0.0
10747,54.0,0.0,180.0,8.0,0.0
10748,73.0,0.0,240.0,1.0,0.0
10749,42.0,0.0,180.0,4.0,0.0
10750,73.0,144.0,240.0,6.0,0.0
10751,76.0,0.0,240.0,0.0,0.0
10752,42.0,48.0,180.0,10.0,0.0
10753,66.0,0.0,150.0,2.0,0.0
10754,64.0,0.0,150.0,2.0,0.0
10755,54.0,0.0,180.0,3.0,0.0
10756,73.0,12.0,150.0,5.0,0.0
10757,66.0,0.0,150.0,2.0,0.0
10758,42.0,0.0,180.0,10.0,0.0
10759,66.0,36.0,150.0,7.0,0.0
10760,64.0,0.0,150.0,7.0,0.0
10761,70.0,0.0,150.0,6.0,0.0
10762,73.0,0.0,150.0,0.0,0.0
10763,64.0,0.0,150.0,2.0,0.0
10764,54.0,0.0,180.0,3.0,0.0
10765,42.0,228.0,180.0,4.0,0.0
10766,70.0,0.0,150.0,1.0,0.0
10767,54.0,0.0,180.0,8.0,0.0
10768,35.0,0.0,390.0,10.0,0.0
10769,47.0,0.0,390.0,3.0,0.0
10770,71.0,0.0,390.0,0.0,0.0
10771,71.0,0.0,180.0,1.0,0.0
10772,35.0,0.0,390.0,4.0,0.0
10773,71.0,204.0,180.0,6.0,0.0
10774,63.0,0.0,180.0,2.0,0.0
10775,47.0,36.0,390.0,8.0,0.0
10776,66.0,0.0,180.0,2.0,0.0
10777,66.0,0.0,180.0,7.0,0.0
10778,63.0,0.0,180.0,7.0,0.0
10779,71.0,0.0,390.0,5.0,0.0
10780,71.0,0.0,180.0,1.0,0.0
10781,59.0,0.0,180.0,1.0,0.0
10782,59.0,0.0,180.0,6.0,0.0
10783,71.0,0.0,180.0,6.0,0.0
10784,66.0,0.0,180.0,7.0,0.0
10785,63.0,0.0,180.0,7.0,0.0
10786,66.0,240.0,180.0,2.0,0.0
10787,63.0,0.0,180.0,2.0,0.0
10788,71.0,0.0,180.0,6.0,0.0
10789,66.0,0.0,180.0,7.0,0.0
10790,59.0,0.0,180.0,6.0,0.0
10791,59.0,240.0,180.0,1.0,0.0
10792,63.0,0.0,180.0,2.0,0.0
10793,66.0,0.0,180.0,2.0,0.0
10794,71.0,0.0,180.0,1.0,0.0
10795,63.0,0.0,180.0,7.0,0.0
10796,59.0,0.0,180.0,6.0,0.0
10797,59.0,0.0,180.0,1.0,0.0
10798,71.0,0.0,180.0,1.0,0.0
10799,66.0,0.0,180.0,7.0,0.0
10800,63.0,0.0,180.0,2.0,0.0
10801,63.0,0.0,180.0,7.0,0.0
10802,66.0,0.0,180.0,2.0,0.0
10803,71.0,240.0,180.0,6.0,0.0
10804,63.0,0.0,180.0,7.0,0.0
10805,59.0,0.0,180.0,6.0,0.0
10806,71.0,0.0,180.0,6.0,0.0
10807,59.0,0.0,180.0,1.0,0.0
10808,66.0,0.0,180.0,7.0,0.0
10809,71.0,0.0,180.0,1.0,0.0
10810,66.0,0.0,180.0,2.0,0.0
10811,63.0,204.0,180.0,2.0,0.0
10812,71.0,0.0,180.0,6.0,0.0
10813,59.0,204.0,180.0,6.0,0.0
10814,71.0,0.0,180.0,1.0,0.0
10815,59.0,0.0,180.0,1.0,0.0
10816,71.0,36.0,150.0,0.0,0.0
10817,66.0,0.0,180.0,2.0,0.0
10818,63.0,0.0,180.0,2.0,0.0
10819,66.0,0.0,180.0,7.0,0.0
10820,63.0,0.0,180.0,7.0,0.0
10821,71.0,0.0,150.0,5.0,0.0
10822,75.0,36.0,150.0,5.0,0.0
10823,71.0,0.0,180.0,1.0,0.0
10824,63.0,204.0,180.0,2.0,0.0
10825,59.0,0.0,180.0,6.0,0.0
10826,66.0,0.0,180.0,2.0,0.0
10827,75.0,0.0,150.0,0.0,0.0
10828,63.0,0.0,180.0,7.0,0.0
10829,66.0,0.0,180.0,7.0,0.0
10830,71.0,0.0,180.0,6.0,0.0
10831,59.0,0.0,180.0,1.0,0.0
10832,78.0,36.0,150.0,5.0,0.0
10833,71.0,0.0,180.0,6.0,0.0
10834,66.0,0.0,180.0,7.0,0.0
10835,63.0,0.0,180.0,7.0,0.0
10836,59.0,0.0,180.0,6.0,0.0
10837,63.0,0.0,180.0,2.0,0.0
10838,66.0,0.0,180.0,2.0,0.0
10839,78.0,0.0,150.0,0.0,0.0
10840,71.0,240.0,180.0,1.0,0.0
10841,59.0,0.0,180.0,1.0,0.0
10842,63.0,0.0,180.0,2.0,0.0
10843,66.0,0.0,180.0,2.0,0.0
10844,83.0,132.0,300.0,5.0,0.0
10845,59.0,0.0,180.0,1.0,0.0
10846,59.0,0.0,180.0,6.0,0.0
10847,66.0,0.0,180.0,7.0,0.0
10848,63.0,0.0,180.0,7.0,0.0
10849,71.0,0.0,180.0,6.0,0.0
10850,83.0,0.0,300.0,0.0,0.0
10851,71.0,108.0,180.0,1.0,0.0
10852,63.0,0.0,180.0,2.0,0.0
10853,71.0,0.0,180.0,1.0,0.0
10854,63.0,0.0,180.0,7.0,0.0
10855,66.0,240.0,180.0,7.0,0.0
10856,71.0,0.0,180.0,6.0,0.0
10857,59.0,0.0,180.0,1.0,0.0
10858,59.0,0.0,180.0,6.0,0.0
10859,66.0,0.0,180.0,2.0,0.0
10860,66.0,108.0,180.0,7.0,0.0
10861,83.0,0.0,300.0,0.0,0.0
10862,59.0,0.0,180.0,1.0,0.0
10863,71.0,0.0,180.0,1.0,0.0
10864,63.0,0.0,180.0,2.0,0.0
10865,66.0,0.0,180.0,2.0,0.0
10866,71.0,0.0,180.0,6.0,0.0
10867,83.0,132.0,300.0,5.0,0.0
10868,59.0,0.0,180.0,6.0,0.0
10869,63.0,0.0,180.0,7.0,0.0
10870,71.0,0.0,180.0,6.0,0.0
10871,59.0,0.0,180.0,1.0,0.0
10872,63.0,240.0,180.0,2.0,0.0
10873,66.0,0.0,180.0,2.0,0.0
10874,59.0,0.0,180.0,6.0,0.0
10875,71.0,0.0,180.0,1.0,0.0
10876,66.0,0.0,180.0,7.0,0.0
10877,63.0,0.0,180.0,7.0,0.0
10878,63.0,0.0,180.0,7.0,0.0
10879,59.0,108.0,180.0,1.0,0.0
10880,71.0,0.0,180.0,1.0,0.0
10881,71.0,0.0,180.0,6.0,0.0
10882,59.0,0.0,180.0,6.0,0.0
10883,66.0,0.0,180.0,7.0,0.0
10884,83.0,0.0,300.0,0.0,0.0
10885,63.0,0.0,180.0,2.0,0.0
10886,83.0,108.0,300.0,5.0,0.0
10887,66.0,0.0,180.0,2.0,0.0
10888,59.0,0.0,180.0,1.0,0.0
10889,63.0,0.0,180.0,2.0,0.0
10890,35.0,0.0,150.0,10.0,0.0
10891,47.0,0.0,150.0,3.0,0.0
10892,47.0,0.0,150.0,8.0,0.0
10893,71.0,0.0,180.0,6.0,0.0
10894,59.0,0.0,180.0,6.0,0.0
10895,66.0,0.0,180.0,2.0,0.0
10896,66.0,216.0,180.0,7.0,0.0
10897,63.0,0.0,180.0,7.0,0.0
10898,71.0,0.0,180.0,1.0,0.0
10899,35.0,24.0,150.0,4.0,0.0
10900,63.0,0.0,180.0,2.0,0.0
10901,66.0,0.0,180.0,2.0,0.0
10902,59.0,0.0,180.0,1.0,0.0
10903,51.0,24.0,150.0,3.0,0.0
10904,71.0,0.0,180.0,1.0,0.0
10905,39.0,0.0,150.0,10.0,0.0
10906,71.0,108.0,180.0,6.0,0.0
10907,59.0,0.0,180.0,6.0,0.0
10908,63.0,0.0,180.0,7.0,0.0
10909,39.0,0.0,150.0,4.0,0.0
10910,66.0,0.0,180.0,7.0,0.0
10911,51.0,0.0,150.0,8.0,0.0
10912,83.0,108.0,300.0,0.0,0.0
10913,83.0,0.0,300.0,5.0,0.0
10914,59.0,0.0,180.0,6.0,0.0
10915,71.0,0.0,180.0,1.0,0.0
10916,63.0,240.0,180.0,7.0,0.0
10917,66.0,0.0,180.0,7.0,0.0
10918,54.0,0.0,150.0,8.0,0.0
10919,59.0,0.0,180.0,1.0,0.0
10920,71.0,0.0,180.0,6.0,0.0
10921,42.0,0.0,150.0,4.0,0.0
10922,42.0,24.0,150.0,10.0,0.0
10923,54.0,0.0,150.0,3.0,0.0
10924,66.0,0.0,180.0,2.0,0.0
10925,63.0,0.0,180.0,2.0,0.0
10926,59.0,0.0,300.0,3.0,0.0
10927,59.0,0.0,390.0,5.0,0.0
10928,59.0,0.0,180.0,6.0,0.0
10929,71.0,0.0,180.0,6.0,0.0
10930,66.0,0.0,180.0,7.0,0.0
10931,63.0,0.0,180.0,7.0,0.0
10932,59.0,36.0,390.0,0.0,0.0
10933,71.0,0.0,180.0,1.0,0.0
10934,59.0,0.0,180.0,1.0,0.0
10935,59.0,0.0,300.0,8.0,0.0
10936,47.0,0.0,300.0,4.0,0.0
10937,66.0,132.0,180.0,2.0,0.0
10938,63.0,0.0,180.0,2.0,0.0
10939,47.0,72.0,300.0,10.0,0.0
10940,66.0,0.0,180.0,2.0,0.0
10941,71.0,0.0,180.0,6.0,0.0
10942,63.0,0.0,180.0,2.0,0.0
10943,59.0,0.0,180.0,6.0,0.0
10944,63.0,0.0,180.0,7.0,0.0
10945,66.0,0.0,180.0,7.0,0.0
10946,59.0,0.0,180.0,1.0,0.0
10947,71.0,240.0,180.0,1.0,0.0
10948,47.0,108.0,300.0,10.0,0.0
10949,66.0,0.0,180.0,2.0,0.0
10950,63.0,0.0,180.0,2.0,0.0
10951,63.0,0.0,180.0,7.0,0.0
10952,47.0,0.0,300.0,4.0,0.0
10953,66.0,0.0,180.0,7.0,0.0
10954,59.0,0.0,180.0,1.0,0.0
10955,71.0,0.0,180.0,1.0,0.0
10956,59.0,0.0,300.0,3.0,0.0
10957,59.0,132.0,180.0,6.0,0.0
10958,71.0,0.0,180.0,6.0,0.0
10959,59.0,0.0,300.0,8.0,0.0
10960,66.0,0.0,180.0,7.0,0.0
10961,71.0,0.0,180.0,1.0,0.0
10962,66.0,0.0,180.0,2.0,0.0
10963,63.0,0.0,180.0,2.0,0.0
10964,63.0,0.0,180.0,7.0,0.0
10965,59.0,0.0,180.0,1.0,0.0
10966,59.0,0.0,180.0,6.0,0.0
10967,71.0,240.0,180.0,6.0,0.0
10968,59.0,0.0,300.0,8.0,0.0
10969,59.0,72.0,300.0,3.0,0.0
10970,47.0,0.0,300.0,10.0,0.0
10971,71.0,0.0,180.0,6.0,0.0
10972,71.0,132.0,180.0,1.0,0.0
10973,59.0,0.0,180.0,6.0,0.0
10974,66.0,0.0,180.0,7.0,0.0
10975,63.0,0.0,180.0,7.0,0.0
10976,63.0,0.0,180.0,2.0,0.0
10977,66.0,0.0,180.0,2.0,0.0
10978,47.0,0.0,300.0,4.0,0.0
10979,59.0,0.0,180.0,1.0,0.0
10980,66.0,0.0,180.0,2.0,0.0
10981,71.0,0.0,180.0,6.0,0.0
10982,59.0,0.0,180.0,6.0,0.0
10983,63.0,0.0,180.0,7.0,0.0
10984,63.0,0.0,180.0,2.0,0.0
10985,66.0,204.0,180.0,7.0,0.0
10986,71.0,0.0,180.0,1.0,0.0
10987,59.0,0.0,180.0,1.0,0.0
10988,75.0,36.0,150.0,5.0,0.0
10989,75.0,0.0,150.0,0.0,0.0
10990,71.0,0.0,180.0,6.0,0.0
10991,59.0,72.0,300.0,8.0,0.0
10992,47.0,0.0,300.0,10.0,0.0
10993,78.0,36.0,150.0,5.0,0.0
10994,47.0,0.0,300.0,4.0,0.0
10995,78.0,0.0,150.0,0.0,0.0
10996,59.0,0.0,180.0,6.0,0.0
10997,63.0,0.0,180.0,7.0,0.0
10998,71.0,0.0,180.0,1.0,0.0
10999,63.0,0.0,180.0,2.0,0.0
11000,66.0,0.0,180.0,2.0,0.0
11001,66.0,132.0,180.0,7.0,0.0
11002,59.0,0.0,300.0,3.0,0.0
11003,59.0,0.0,180.0,1.0,0.0
11004,59.0,0.0,180.0,1.0,0.0
11005,63.0,0.0,180.0,7.0,0.0
11006,71.0,0.0,180.0,6.0,0.0
11007,59.0,0.0,180.0,6.0,0.0
11008,83.0,36.0,150.0,0.0,0.0
11009,71.0,0.0,180.0,1.0,0.0
11010,66.0,240.0,180.0,7.0,0.0
11011,83.0,0.0,150.0,5.0,0.0
11012,66.0,0.0,180.0,2.0,0.0
11013,63.0,0.0,180.0,2.0,0.0
11014,71.0,108.0,180.0,6.0,0.0
11015,35.0,36.0,390.0,10.0,0.0
11016,63.0,0.0,180.0,2.0,0.0
11017,66.0,0.0,180.0,2.0,0.0
11018,47.0,0.0,390.0,8.0,0.0
11019,59.0,0.0,180.0,1.0,0.0
11020,87.0,0.0,300.0,0.0,0.0
11021,87.0,96.0,300.0,5.0,0.0
11022,35.0,0.0,390.0,4.0,0.0
11023,63.0,0.0,180.0,7.0,0.0
11024,66.0,0.0,180.0,7.0,0.0
11025,47.0,0.0,390.0,3.0,0.0
11026,71.0,0.0,180.0,1.0,0.0
11027,59.0,0.0,180.0,6.0,0.0
11028,63.0,0.0,180.0,7.0,0.0
11029,66.0,0.0,180.0,7.0,0.0
11030,71.0,0.0,180.0,1.0,0.0
11031,59.0,0.0,180.0,1.0,0.0
11032,63.0,0.0,180.0,2.0,0.0
11033,66.0,0.0,180.0,2.0,0.0
11034,71.0,240.0,180.0,6.0,0.0
11035,59.0,0.0,180.0,6.0,0.0
11036,66.0,0.0,180.0,7.0,0.0
11037,87.0,0.0,300.0,5.0,0.0
11038,71.0,0.0,180.0,1.0,0.0
11039,63.0,108.0,180.0,7.0,0.0
11040,59.0,0.0,180.0,1.0,0.0
11041,71.0,0.0,180.0,6.0,0.0
11042,59.0,0.0,180.0,6.0,0.0
11043,63.0,0.0,180.0,2.0,0.0
11044,66.0,0.0,180.0,2.0,0.0
11045,87.0,132.0,300.0,0.0,0.0
11046,66.0,0.0,180.0,7.0,0.0
11047,63.0,0.0,180.0,7.0,0.0
11048,71.0,0.0,180.0,6.0,0.0
11049,59.0,0.0,180.0,1.0,0.0
11050,63.0,0.0,180.0,2.0,0.0
11051,66.0,0.0,180.0,2.0,0.0
11052,59.0,0.0,180.0,6.0,0.0
11053,71.0,240.0,180.0,1.0,0.0
11054,71.0,0.0,180.0,6.0,0.0
11055,63.0,0.0,180.0,7.0,0.0
11056,66.0,0.0,180.0,7.0,0.0
11057,87.0,108.0,300.0,0.0,0.0
11058,59.0,0.0,180.0,6.0,0.0
11059,66.0,108.0,180.0,2.0,0.0
11060,87.0,0.0,300.0,5.0,0.0
11061,59.0,0.0,180.0,1.0,0.0
11062,71.0,0.0,180.0,1.0,0.0
11063,63.0,0.0,180.0,2.0,0.0
11064,59.0,0.0,180.0,6.0,0.0
11065,63.0,0.0,180.0,2.0,0.0
11066,47.0,0.0,150.0,8.0,0.0
11067,71.0,0.0,180.0,6.0,0.0
11068,35.0,0.0,150.0,4.0,0.0
11069,66.0,0.0,180.0,2.0,0.0
11070,63.0,0.0,180.0,7.0,0.0
11071,47.0,24.0,150.0,3.0,0.0
11072,71.0,0.0,180.0,1.0,0.0
11073,59.0,0.0,180.0,1.0,0.0
11074,35.0,0.0,150.0,10.0,0.0
11075,66.0,216.0,180.0,7.0,0.0
11076,66.0,0.0,180.0,2.0,0.0
11077,63.0,0.0,180.0,7.0,0.0
11078,51.0,24.0,150.0,8.0,0.0
11079,39.0,0.0,150.0,10.0,0.0
11080,39.0,0.0,150.0,4.0,0.0
11081,87.0,0.0,300.0,0.0,0.0
11082,87.0,108.0,300.0,5.0,0.0
11083,71.0,0.0,180.0,1.0,0.0
11084,59.0,0.0,180.0,1.0,0.0
11085,51.0,0.0,150.0,3.0,0.0
11086,71.0,0.0,180.0,6.0,0.0
11087,63.0,0.0,180.0,2.0,0.0
11088,59.0,0.0,180.0,6.0,0.0
11089,66.0,108.0,180.0,7.0,0.0
11090,42.0,0.0,150.0,4.0,0.0
11091,71.0,0.0,180.0,6.0,0.0
11092,59.0,0.0,180.0,6.0,0.0
11093,63.0,240.0,180.0,2.0,0.0
11094,71.0,0.0,180.0,1.0,0.0
11095,59.0,0.0,180.0,1.0,0.0
11096,66.0,0.0,180.0,2.0,0.0
11097,54.0,0.0,150.0,3.0,0.0
11098,66.0,0.0,180.0,7.0,0.0
11099,42.0,0.0,150.0,10.0,0.0
11100,63.0,0.0,180.0,7.0,0.0
11101,54.0,24.0,150.0,8.0,0.0
11102,59.0,72.0,300.0,3.0,0.0
11103,71.0,0.0,180.0,1.0,0.0
11104,59.0,0.0,180.0,1.0,0.0
11105,47.0,0.0,300.0,10.0,0.0
11106,59.0,0.0,390.0,0.0,0.0
11107,59.0,36.0,390.0,5.0,0.0
11108,59.0,0.0,300.0,8.0,0.0
11109,66.0,0.0,180.0,7.0,0.0
11110,63.0,132.0,180.0,7.0,0.0
11111,66.0,0.0,180.0,2.0,0.0
11112,71.0,0.0,180.0,6.0,0.0
11113,59.0,0.0,180.0,6.0,0.0
11114,47.0,0.0,300.0,4.0,0.0
11115,63.0,0.0,180.0,2.0,0.0
11116,66.0,0.0,180.0,7.0,0.0
11117,71.0,0.0,180.0,6.0,0.0
11118,63.0,0.0,180.0,7.0,0.0
11119,66.0,0.0,180.0,2.0,0.0
11120,71.0,0.0,180.0,1.0,0.0
11121,59.0,240.0,180.0,6.0,0.0
11122,63.0,0.0,180.0,2.0,0.0
11123,59.0,0.0,180.0,1.0,0.0
11124,47.0,0.0,300.0,4.0,0.0
11125,59.0,0.0,300.0,8.0,0.0
11126,59.0,132.0,180.0,6.0,0.0
11127,47.0,108.0,300.0,10.0,0.0
11128,59.0,0.0,300.0,3.0,0.0
11129,63.0,0.0,180.0,7.0,0.0
11130,63.0,0.0,180.0,2.0,0.0
11131,66.0,0.0,180.0,2.0,0.0
11132,59.0,0.0,180.0,1.0,0.0
11133,66.0,0.0,180.0,7.0,0.0
11134,71.0,0.0,180.0,1.0,0.0
11135,71.0,0.0,180.0,6.0,0.0
11136,59.0,240.0,180.0,1.0,0.0
11137,71.0,0.0,180.0,6.0,0.0
11138,63.0,0.0,180.0,7.0,0.0
11139,66.0,0.0,180.0,7.0,0.0
11140,66.0,0.0,180.0,2.0,0.0
11141,63.0,0.0,180.0,2.0,0.0
11142,59.0,0.0,180.0,6.0,0.0
11143,71.0,0.0,180.0,1.0,0.0
11144,63.0,0.0,180.0,2.0,0.0
11145,66.0,132.0,180.0,2.0,0.0
11146,71.0,0.0,180.0,6.0,0.0
11147,59.0,0.0,180.0,6.0,0.0
11148,63.0,0.0,180.0,7.0,0.0
11149,71.0,0.0,180.0,1.0,0.0
11150,59.0,0.0,180.0,1.0,0.0
11151,59.0,0.0,300.0,3.0,0.0
11152,59.0,0.0,300.0,8.0,0.0
11153,66.0,0.0,180.0,7.0,0.0
11154,47.0,0.0,300.0,10.0,0.0
11155,47.0,72.0,300.0,4.0,0.0
11156,63.0,0.0,180.0,2.0,0.0
11157,66.0,0.0,180.0,7.0,0.0
11158,78.0,0.0,150.0,0.0,0.0
11159,66.0,204.0,180.0,2.0,0.0
11160,63.0,0.0,180.0,7.0,0.0
11161,59.0,0.0,180.0,1.0,0.0
11162,78.0,36.0,150.0,5.0,0.0
11163,71.0,0.0,180.0,6.0,0.0
11164,71.0,0.0,180.0,1.0,0.0
11165,59.0,0.0,180.0,6.0,0.0
11166,47.0,0.0,300.0,10.0,0.0
11167,47.0,0.0,300.0,4.0,0.0
11168,59.0,132.0,180.0,1.0,0.0
11169,83.0,36.0,150.0,5.0,0.0
11170,59.0,72.0,300.0,3.0,0.0
11171,83.0,0.0,150.0,0.0,0.0
11172,59.0,0.0,300.0,8.0,0.0
11173,59.0,0.0,180.0,6.0,0.0
11174,71.0,0.0,180.0,6.0,0.0
11175,66.0,0.0,180.0,2.0,0.0
11176,63.0,0.0,180.0,2.0,0.0
11177,71.0,0.0,180.0,1.0,0.0
11178,66.0,0.0,180.0,7.0,0.0
11179,63.0,0.0,180.0,7.0,0.0
11180,87.0,0.0,150.0,5.0,0.0
11181,59.0,0.0,180.0,6.0,0.0
11182,71.0,240.0,180.0,6.0,0.0
11183,87.0,36.0,150.0,0.0,0.0
11184,66.0,0.0,180.0,7.0,0.0
11185,66.0,0.0,180.0,2.0,0.0
11186,63.0,0.0,180.0,2.0,0.0
11187,59.0,0.0,180.0,1.0,0.0
11188,71.0,0.0,180.0,1.0,0.0
11189,63.0,0.0,180.0,7.0,0.0
11190,90.0,0.0,300.0,5.0,0.0
11191,35.0,0.0,390.0,10.0,0.0
11192,35.0,0.0,390.0,4.0,0.0
11193,59.0,0.0,180.0,1.0,0.0
11194,71.0,108.0,180.0,1.0,0.0
11195,59.0,0.0,180.0,6.0,0.0
11196,47.0,36.0,390.0,3.0,0.0
11197,47.0,0.0,390.0,8.0,0.0
11198,90.0,96.0,300.0,0.0,0.0
11199,63.0,0.0,180.0,2.0,0.0
11200,66.0,0.0,180.0,2.0,0.0
11201,63.0,0.0,180.0,7.0,0.0
11202,66.0,0.0,180.0,7.0,0.0
11203,71.0,0.0,180.0,6.0,0.0
11204,59.0,0.0,180.0,6.0,0.0
11205,63.0,0.0,180.0,2.0,0.0
11206,66.0,0.0,180.0,2.0,0.0
11207,66.0,0.0,180.0,7.0,0.0
11208,63.0,0.0,180.0,7.0,0.0
11209,71.0,0.0,180.0,6.0,0.0
11210,59.0,0.0,180.0,1.0,0.0
11211,71.0,240.0,180.0,1.0,0.0
11212,63.0,0.0,180.0,2.0,0.0
11213,90.0,132.0,300.0,5.0,0.0
11214,66.0,0.0,180.0,7.0,0.0
11215,71.0,108.0,180.0,6.0,0.0
11216,59.0,0.0,180.0,6.0,0.0
11217,71.0,0.0,180.0,1.0,0.0
11218,90.0,0.0,300.0,0.0,0.0
11219,63.0,0.0,180.0,7.0,0.0
11220,59.0,0.0,180.0,1.0,0.0
11221,66.0,0.0,180.0,2.0,0.0
11222,71.0,0.0,180.0,6.0,0.0
11223,63.0,0.0,180.0,2.0,0.0
11224,59.0,0.0,180.0,1.0,0.0
11225,59.0,0.0,180.0,6.0,0.0
11226,71.0,0.0,180.0,1.0,0.0
11227,66.0,0.0,180.0,7.0,0.0
11228,66.0,0.0,180.0,2.0,0.0
11229,63.0,240.0,180.0,7.0,0.0
11230,63.0,0.0,180.0,2.0,0.0
11231,66.0,108.0,180.0,2.0,0.0
11232,90.0,0.0,300.0,5.0,0.0
11233,71.0,0.0,180.0,1.0,0.0
11234,90.0,108.0,300.0,0.0,0.0
11235,71.0,0.0,180.0,6.0,0.0
11236,59.0,0.0,180.0,6.0,0.0
11237,59.0,0.0,180.0,1.0,0.0
11238,66.0,0.0,180.0,7.0,0.0
11239,63.0,0.0,180.0,7.0,0.0
11240,63.0,0.0,180.0,2.0,0.0
11241,71.0,0.0,180.0,1.0,0.0
11242,66.0,0.0,180.0,2.0,0.0
11243,59.0,0.0,180.0,6.0,0.0
11244,47.0,0.0,150.0,3.0,0.0
11245,71.0,216.0,180.0,6.0,0.0
11246,47.0,0.0,150.0,8.0,0.0
11247,59.0,0.0,180.0,1.0,0.0
11248,35.0,24.0,150.0,10.0,0.0
11249,35.0,0.0,150.0,4.0,0.0
11250,66.0,0.0,180.0,7.0,0.0
11251,63.0,0.0,180.0,7.0,0.0
11252,66.0,108.0,180.0,7.0,0.0
11253,63.0,0.0,180.0,7.0,0.0
11254,51.0,0.0,150.0,3.0,0.0
11255,63.0,0.0,180.0,2.0,0.0
11256,66.0,0.0,180.0,2.0,0.0
11257,90.0,0.0,300.0,0.0,0.0
11258,71.0,0.0,180.0,6.0,0.0
11259,39.0,24.0,150.0,10.0,0.0
11260,71.0,0.0,180.0,1.0,0.0
11261,90.0,108.0,300.0,5.0,0.0
11262,39.0,0.0,150.0,4.0,0.0
11263,51.0,0.0,150.0,8.0,0.0
11264,59.0,0.0,180.0,1.0,0.0
11265,59.0,0.0,180.0,6.0,0.0
11266,59.0,0.0,180.0,6.0,0.0
11267,54.0,0.0,150.0,8.0,0.0
11268,63.0,240.0,180.0,7.0,0.0
11269,54.0,24.0,150.0,3.0,0.0
11270,71.0,0.0,180.0,1.0,0.0
11271,59.0,0.0,180.0,1.0,0.0
11272,42.0,0.0,150.0,4.0,0.0
11273,42.0,0.0,150.0,10.0,0.0
11274,71.0,0.0,180.0,6.0,0.0
11275,66.0,0.0,180.0,7.0,0.0
11276,66.0,0.0,180.0,2.0,0.0
11277,63.0,0.0,180.0,2.0,0.0
11278,59.0,0.0,360.0,3.0,0.0
11279,90.0,0.0,780.0,0.0,0.0
11280,47.0,0.0,360.0,4.0,0.0
11281,47.0,60.0,360.0,10.0,0.0
11282,90.0,72.0,780.0,5.0,0.0
11283,59.0,0.0,180.0,6.0,0.0
11284,63.0,0.0,180.0,7.0,0.0
11285,66.0,0.0,180.0,7.0,0.0
11286,71.0,0.0,180.0,1.0,0.0
11287,59.0,0.0,180.0,1.0,0.0
11288,63.0,0.0,180.0,2.0,0.0
11289,66.0,0.0,180.0,2.0,0.0
11290,71.0,180.0,180.0,6.0,0.0
11291,59.0,0.0,360.0,8.0,0.0
11292,66.0,0.0,180.0,7.0,0.0
11293,59.0,0.0,180.0,1.0,0.0
11294,63.0,0.0,180.0,2.0,0.0
11295,66.0,0.0,180.0,2.0,0.0
11296,63.0,0.0,180.0,7.0,0.0
11297,59.0,0.0,180.0,6.0,0.0
11298,71.0,240.0,180.0,1.0,0.0
11299,71.0,0.0,180.0,6.0,0.0
11300,71.0,108.0,180.0,6.0,0.0
11301,59.0,0.0,180.0,6.0,0.0
11302,54.0,0.0,360.0,4.0,0.0
11303,54.0,0.0,360.0,10.0,0.0
11304,71.0,0.0,180.0,1.0,0.0
11305,66.0,0.0,180.0,7.0,0.0
11306,63.0,0.0,180.0,7.0,0.0
11307,66.0,0.0,180.0,2.0,0.0
11308,63.0,0.0,180.0,2.0,0.0
11309,66.0,60.0,360.0,8.0,0.0
11310,59.0,0.0,180.0,1.0,0.0
11311,66.0,0.0,360.0,3.0,0.0
11312,66.0,0.0,180.0,7.0,0.0
11313,71.0,0.0,180.0,1.0,0.0
11314,66.0,240.0,180.0,2.0,0.0
11315,63.0,0.0,180.0,2.0,0.0
11316,71.0,0.0,180.0,6.0,0.0
11317,63.0,0.0,180.0,7.0,0.0
11318,59.0,0.0,180.0,1.0,0.0
11319,59.0,0.0,180.0,6.0,0.0
11320,71.0,0.0,180.0,6.0,0.0
11321,71.0,0.0,180.0,1.0,0.0
11322,59.0,0.0,180.0,1.0,0.0
11323,51.0,0.0,360.0,10.0,0.0
11324,87.0,0.0,300.0,0.0,0.0
11325,66.0,0.0,180.0,2.0,0.0
11326,63.0,60.0,360.0,3.0,0.0
11327,63.0,108.0,180.0,7.0,0.0
11328,66.0,0.0,180.0,7.0,0.0
11329,51.0,0.0,360.0,4.0,0.0
11330,63.0,0.0,360.0,8.0,0.0
11331,59.0,0.0,180.0,6.0,0.0
11332,63.0,0.0,180.0,2.0,0.0
11333,87.0,72.0,300.0,5.0,0.0
11334,59.0,0.0,180.0,1.0,0.0
11335,66.0,0.0,180.0,2.0,0.0
11336,63.0,240.0,180.0,2.0,0.0
11337,59.0,0.0,180.0,6.0,0.0
11338,63.0,0.0,180.0,7.0,0.0
11339,66.0,0.0,180.0,7.0,0.0
11340,71.0,0.0,180.0,6.0,0.0
11341,71.0,0.0,180.0,1.0,0.0
11342,66.0,0.0,180.0,7.0,0.0
11343,59.0,0.0,360.0,8.0,0.0
11344,71.0,0.0,180.0,6.0,0.0
11345,59.0,0.0,180.0,6.0,0.0
11346,66.0,108.0,180.0,2.0,0.0
11347,83.0,0.0,300.0,0.0,0.0
11348,63.0,0.0,180.0,2.0,0.0
11349,59.0,0.0,360.0,3.0,0.0
11350,83.0,72.0,300.0,5.0,0.0
11351,59.0,0.0,180.0,1.0,0.0
11352,71.0,0.0,180.0,1.0,0.0
11353,47.0,0.0,360.0,10.0,0.0
11354,63.0,0.0,180.0,7.0,0.0
11355,47.0,60.0,360.0,4.0,0.0
11356,66.0,0.0,180.0,2.0,0.0
11357,63.0,0.0,180.0,2.0,0.0
11358,66.0,0.0,180.0,7.0,0.0
11359,59.0,0.0,180.0,1.0,0.0
11360,63.0,0.0,180.0,7.0,0.0
11361,59.0,0.0,180.0,6.0,0.0
11362,71.0,0.0,180.0,6.0,0.0
11363,71.0,240.0,180.0,1.0,0.0
11364,66.0,0.0,180.0,7.0,0.0
11365,71.0,0.0,180.0,6.0,0.0
11366,78.0,168.0,180.0,5.0,0.0
11367,59.0,0.0,180.0,6.0,0.0
11368,42.0,0.0,360.0,10.0,0.0
11369,66.0,0.0,180.0,2.0,0.0
11370,63.0,0.0,180.0,2.0,0.0
11371,78.0,0.0,180.0,0.0,0.0
11372,63.0,0.0,180.0,7.0,0.0
11373,42.0,0.0,360.0,4.0,0.0
11374,54.0,60.0,360.0,8.0,0.0
11375,54.0,0.0,360.0,3.0,0.0
11376,71.0,12.0,180.0,1.0,0.0
11377,59.0,0.0,180.0,1.0,0.0
11378,71.0,0.0,180.0,1.0,0.0
11379,59.0,0.0,180.0,6.0,0.0
11380,78.0,0.0,180.0,0.0,0.0
11381,59.0,0.0,180.0,1.0,0.0
11382,71.0,12.0,180.0,6.0,0.0
11383,66.0,0.0,180.0,2.0,0.0
11384,78.0,228.0,180.0,5.0,0.0
11385,63.0,0.0,180.0,2.0,0.0
11386,63.0,0.0,180.0,7.0,0.0
11387,66.0,0.0,180.0,7.0,0.0
11388,66.0,0.0,180.0,7.0,0.0
11389,59.0,0.0,180.0,6.0,0.0
11390,71.0,0.0,180.0,1.0,0.0
11391,59.0,0.0,360.0,8.0,0.0
11392,59.0,60.0,360.0,3.0,0.0
11393,83.0,168.0,180.0,0.0,0.0
11394,59.0,12.0,180.0,1.0,0.0
11395,71.0,0.0,180.0,6.0,0.0
11396,47.0,0.0,360.0,4.0,0.0
11397,83.0,0.0,180.0,5.0,0.0
11398,63.0,0.0,180.0,2.0,0.0
11399,66.0,0.0,180.0,2.0,0.0
11400,47.0,0.0,360.0,10.0,0.0
11401,63.0,0.0,180.0,7.0,0.0
11402,59.0,12.0,180.0,6.0,0.0
11403,66.0,0.0,180.0,2.0,0.0
11404,83.0,228.0,180.0,5.0,0.0
11405,71.0,0.0,180.0,1.0,0.0
11406,66.0,0.0,180.0,7.0,0.0
11407,83.0,0.0,180.0,0.0,0.0
11408,63.0,0.0,180.0,7.0,0.0
11409,71.0,0.0,180.0,6.0,0.0
11410,59.0,0.0,180.0,1.0,0.0
11411,63.0,0.0,180.0,2.0,0.0
11412,39.0,0.0,360.0,4.0,0.0
11413,59.0,0.0,180.0,1.0,0.0
11414,71.0,0.0,180.0,1.0,0.0
11415,66.0,0.0,180.0,2.0,0.0
11416,39.0,0.0,360.0,10.0,0.0
11417,51.0,60.0,360.0,3.0,0.0
11418,63.0,0.0,180.0,7.0,0.0
11419,71.0,0.0,180.0,6.0,0.0
11420,59.0,12.0,180.0,6.0,0.0
11421,66.0,0.0,180.0,7.0,0.0
11422,75.0,168.0,180.0,5.0,0.0
11423,51.0,0.0,360.0,8.0,0.0
11424,75.0,0.0,180.0,0.0,0.0
11425,63.0,0.0,180.0,2.0,0.0
11426,71.0,0.0,180.0,6.0,0.0
11427,66.0,12.0,180.0,2.0,0.0
11428,75.0,0.0,180.0,5.0,0.0
11429,59.0,0.0,180.0,6.0,0.0
11430,63.0,0.0,180.0,2.0,0.0
11431,71.0,0.0,180.0,1.0,0.0
11432,75.0,228.0,180.0,0.0,0.0
11433,66.0,0.0,180.0,7.0,0.0
11434,63.0,0.0,180.0,7.0,0.0
11435,59.0,0.0,180.0,1.0,0.0
11436,63.0,0.0,180.0,7.0,0.0
11437,66.0,0.0,180.0,7.0,0.0
11438,42.0,0.0,360.0,10.0,0.0
11439,78.0,0.0,180.0,0.0,0.0
11440,59.0,0.0,180.0,6.0,0.0
11441,71.0,0.0,180.0,6.0,0.0
11442,54.0,0.0,360.0,8.0,0.0
11443,66.0,12.0,180.0,2.0,0.0
11444,42.0,0.0,360.0,4.0,0.0
11445,71.0,0.0,180.0,1.0,0.0
11446,59.0,0.0,180.0,1.0,0.0
11447,78.0,168.0,180.0,5.0,0.0
11448,63.0,0.0,180.0,2.0,0.0
11449,54.0,60.0,360.0,3.0,0.0
11450,66.0,0.0,180.0,7.0,0.0
11451,63.0,0.0,180.0,2.0,0.0
11452,66.0,0.0,180.0,2.0,0.0
11453,78.0,432.0,180.0,0.0,0.0
11454,63.0,0.0,180.0,7.0,0.0
11455,71.0,0.0,180.0,1.0,0.0
11456,59.0,0.0,180.0,1.0,0.0
11457,78.0,0.0,180.0,5.0,0.0
11458,71.0,0.0,180.0,6.0,0.0
11459,59.0,12.0,180.0,6.0,0.0
11460,63.0,0.0,390.0,2.0,0.0
11461,66.0,0.0,390.0,7.0,0.0
11462,63.0,0.0,390.0,7.0,0.0
11463,59.0,0.0,390.0,6.0,0.0
11464,71.0,0.0,390.0,6.0,0.0
11465,35.0,0.0,390.0,10.0,0.0
11466,71.0,912.0,420.0,5.0,0.0
11467,71.0,0.0,420.0,0.0,0.0
11468,59.0,0.0,390.0,1.0,0.0
11469,35.0,0.0,390.0,4.0,0.0
11470,47.0,0.0,390.0,8.0,0.0
11471,47.0,48.0,390.0,3.0,0.0
11472,71.0,0.0,390.0,1.0,0.0
11473,66.0,0.0,390.0,2.0,0.0
11474,78.0,0.0,420.0,0.0,0.0
11475,47.0,0.0,390.0,10.0,0.0
11476,59.0,48.0,390.0,8.0,0.0
11477,59.0,0.0,390.0,3.0,0.0
11478,75.0,0.0,390.0,6.0,0.0
11479,83.0,0.0,390.0,6.0,0.0
11480,66.0,0.0,390.0,6.0,0.0
11481,71.0,0.0,390.0,2.0,0.0
11482,83.0,0.0,390.0,1.0,0.0
11483,75.0,0.0,390.0,1.0,0.0
11484,71.0,0.0,390.0,7.0,0.0
11485,71.0,1296.0,420.0,0.0,0.0
11486,47.0,0.0,390.0,4.0,0.0
11487,71.0,0.0,420.0,5.0,0.0
11488,78.0,0.0,420.0,5.0,0.0
11489,87.0,0.0,420.0,5.0,0.0
11490,87.0,0.0,420.0,0.0,0.0
11491,66.0,0.0,390.0,1.0,0.0
11492,35.0,0.0,780.0,4.0,0.0
11493,59.0,0.0,780.0,6.0,0.0
11494,47.0,0.0,780.0,3.0,0.0
11495,59.0,0.0,780.0,7.0,0.0
11496,59.0,0.0,780.0,2.0,0.0
11497,47.0,0.0,780.0,8.0,0.0
11498,59.0,5760.0,780.0,1.0,0.0
11499,35.0,0.0,780.0,10.0,0.0
11500,59.0,0.0,780.0,0.0,0.0
11501,59.0,0.0,780.0,5.0,0.0
11502,35.0,0.0,780.0,10.0,0.0
11503,35.0,0.0,780.0,4.0,0.0
