,note,step,duration,channel,velocity
0,51.0,120.0,120.0,1.0,0.0
1,63.0,0.0,120.0,0.0,0.0
2,67.0,0.0,120.0,0.0,0.0
3,65.0,0.0,120.0,0.0,0.0
4,68.0,0.0,120.0,0.0,0.0
5,51.0,120.0,120.0,1.0,0.0
6,67.0,117.0,120.0,0.0,0.0
7,51.0,1.0,120.0,1.0,0.0
8,70.0,0.0,120.0,0.0,0.0
9,68.0,0.0,120.0,0.0,0.0
10,72.0,122.0,120.0,0.0,0.0
11,62.0,0.0,120.0,0.0,0.0
12,65.0,0.0,120.0,0.0,0.0
13,58.0,120.0,120.0,1.0,0.0
14,63.0,120.0,120.0,0.0,0.0
15,67.0,0.0,120.0,0.0,0.0
16,58.0,0.0,120.0,1.0,0.0
17,58.0,1.0,120.0,1.0,0.0
18,65.0,0.0,120.0,0.0,0.0
19,68.0,117.0,120.0,0.0,0.0
20,70.0,0.0,120.0,0.0,0.0
21,67.0,122.0,120.0,0.0,0.0
22,63.0,120.0,120.0,0.0,0.0
23,60.0,0.0,120.0,0.0,0.0
24,46.0,120.0,120.0,1.0,0.0
25,62.0,0.0,120.0,0.0,0.0
26,65.0,0.0,120.0,0.0,0.0
27,39.0,120.0,120.0,1.0,0.0
28,67.0,0.0,120.0,0.0,0.0
29,63.0,0.0,480.0,0.0,0.0
30,68.0,0.0,120.0,0.0,0.0
31,41.0,61.0,120.0,1.0,0.0
32,43.0,60.0,120.0,1.0,0.0
33,72.0,57.0,60.0,0.0,0.0
34,70.0,2.0,60.0,0.0,0.0
35,44.0,0.0,120.0,1.0,0.0
36,68.0,60.0,60.0,0.0,0.0
37,67.0,121.0,60.0,0.0,0.0
38,46.0,60.0,240.0,1.0,0.0
39,67.0,0.0,120.0,0.0,0.0
40,63.0,117.0,120.0,0.0,0.0
41,62.0,2.0,120.0,0.0,0.0
42,65.0,0.0,120.0,0.0,0.0
43,67.0,60.0,120.0,0.0,0.0
44,63.0,60.0,60.0,0.0,0.0
45,58.0,0.0,60.0,0.0,0.0
46,65.0,60.0,60.0,0.0,0.0
47,68.0,0.0,120.0,0.0,0.0
48,58.0,60.0,60.0,0.0,0.0
49,34.0,0.0,240.0,1.0,0.0
50,67.0,60.0,60.0,0.0,0.0
51,70.0,59.0,120.0,0.0,0.0
52,46.0,0.0,240.0,1.0,0.0
53,58.0,1.0,60.0,0.0,0.0
54,72.0,2.0,120.0,0.0,0.0
55,68.0,58.0,60.0,0.0,0.0
56,58.0,60.0,60.0,0.0,0.0
57,62.0,60.0,60.0,0.0,0.0
58,65.0,0.0,120.0,0.0,0.0
59,58.0,60.0,60.0,0.0,0.0
60,67.0,0.0,120.0,0.0,0.0
61,63.0,60.0,60.0,0.0,0.0
62,58.0,60.0,60.0,0.0,0.0
63,68.0,59.0,120.0,0.0,0.0
64,34.0,60.0,240.0,1.0,0.0
65,46.0,0.0,240.0,1.0,0.0
66,65.0,60.0,60.0,0.0,0.0
67,58.0,1.0,60.0,0.0,0.0
68,70.0,2.0,120.0,0.0,0.0
69,67.0,58.0,60.0,0.0,0.0
70,58.0,0.0,60.0,0.0,0.0
71,63.0,60.0,120.0,0.0,0.0
72,60.0,60.0,60.0,0.0,0.0
73,58.0,0.0,60.0,0.0,0.0
74,46.0,0.0,120.0,1.0,0.0
75,65.0,60.0,120.0,0.0,0.0
76,62.0,60.0,60.0,0.0,0.0
77,58.0,0.0,60.0,0.0,0.0
78,51.0,0.0,240.0,1.0,0.0
79,67.0,60.0,60.0,0.0,0.0
80,63.0,60.0,60.0,0.0,0.0
81,68.0,60.0,60.0,0.0,0.0
82,48.0,0.0,120.0,1.0,0.0
83,65.0,16.0,60.0,0.0,0.0
84,44.0,1.0,120.0,1.0,0.0
85,67.0,15.0,15.0,0.0,0.0
86,65.0,15.0,15.0,0.0,0.0
87,67.0,15.0,15.0,0.0,0.0
88,65.0,15.0,15.0,0.0,0.0
89,67.0,15.0,15.0,0.0,0.0
90,65.0,15.0,15.0,0.0,0.0
91,67.0,14.0,15.0,0.0,0.0
92,65.0,15.0,15.0,0.0,0.0
93,67.0,15.0,15.0,0.0,0.0
94,46.0,1.0,120.0,1.0,0.0
95,50.0,0.0,120.0,1.0,0.0
96,65.0,15.0,15.0,0.0,0.0
97,67.0,15.0,15.0,0.0,0.0
98,65.0,30.0,15.0,0.0,0.0
99,63.0,29.0,30.0,0.0,0.0
100,65.0,239.0,30.0,0.0,0.0
101,63.0,120.0,240.0,0.0,0.0
102,51.0,0.0,240.0,1.0,0.0
103,39.0,0.0,240.0,1.0,0.0
104,51.0,0.0,120.0,1.0,0.0
105,67.0,0.0,120.0,0.0,0.0
106,63.0,120.0,120.0,0.0,0.0
107,65.0,0.0,120.0,0.0,0.0
108,68.0,120.0,120.0,0.0,0.0
109,51.0,0.0,120.0,1.0,0.0
110,51.0,1.0,120.0,1.0,0.0
111,70.0,117.0,120.0,0.0,0.0
112,67.0,0.0,120.0,0.0,0.0
113,72.0,0.0,120.0,0.0,0.0
114,68.0,122.0,120.0,0.0,0.0
115,58.0,0.0,120.0,1.0,0.0
116,65.0,120.0,120.0,0.0,0.0
117,62.0,0.0,120.0,0.0,0.0
118,63.0,0.0,120.0,0.0,0.0
119,58.0,120.0,120.0,1.0,0.0
120,67.0,0.0,120.0,0.0,0.0
121,65.0,0.0,120.0,0.0,0.0
122,58.0,1.0,120.0,1.0,0.0
123,68.0,117.0,120.0,0.0,0.0
124,70.0,0.0,120.0,0.0,0.0
125,67.0,122.0,120.0,0.0,0.0
126,60.0,120.0,120.0,0.0,0.0
127,63.0,0.0,120.0,0.0,0.0
128,62.0,0.0,120.0,0.0,0.0
129,65.0,0.0,120.0,0.0,0.0
130,46.0,120.0,120.0,1.0,0.0
131,39.0,120.0,120.0,1.0,0.0
132,67.0,0.0,120.0,0.0,0.0
133,63.0,0.0,480.0,0.0,0.0
134,68.0,61.0,120.0,0.0,0.0
135,41.0,0.0,120.0,1.0,0.0
136,72.0,57.0,60.0,0.0,0.0
137,43.0,60.0,120.0,1.0,0.0
138,70.0,2.0,60.0,0.0,0.0
139,68.0,60.0,60.0,0.0,0.0
140,44.0,0.0,120.0,1.0,0.0
141,67.0,121.0,60.0,0.0,0.0
142,63.0,117.0,120.0,0.0,0.0
143,67.0,0.0,120.0,0.0,0.0
144,46.0,60.0,240.0,1.0,0.0
145,62.0,0.0,120.0,0.0,0.0
146,65.0,2.0,120.0,0.0,0.0
147,63.0,60.0,60.0,0.0,0.0
148,67.0,0.0,120.0,0.0,0.0
149,58.0,60.0,60.0,0.0,0.0
150,68.0,60.0,120.0,0.0,0.0
151,65.0,60.0,60.0,0.0,0.0
152,58.0,0.0,60.0,0.0,0.0
153,34.0,0.0,240.0,1.0,0.0
154,46.0,60.0,240.0,1.0,0.0
155,70.0,59.0,120.0,0.0,0.0
156,67.0,60.0,60.0,0.0,0.0
157,58.0,1.0,60.0,0.0,0.0
158,72.0,2.0,120.0,0.0,0.0
159,68.0,58.0,60.0,0.0,0.0
160,58.0,0.0,60.0,0.0,0.0
161,65.0,0.0,120.0,0.0,0.0
162,62.0,60.0,60.0,0.0,0.0
163,58.0,60.0,60.0,0.0,0.0
164,67.0,60.0,120.0,0.0,0.0
165,63.0,60.0,60.0,0.0,0.0
166,58.0,0.0,60.0,0.0,0.0
167,46.0,0.0,240.0,1.0,0.0
168,68.0,59.0,120.0,0.0,0.0
169,65.0,60.0,60.0,0.0,0.0
170,34.0,0.0,240.0,1.0,0.0
171,58.0,1.0,60.0,0.0,0.0
172,70.0,2.0,120.0,0.0,0.0
173,67.0,58.0,60.0,0.0,0.0
174,58.0,60.0,60.0,0.0,0.0
175,60.0,60.0,60.0,0.0,0.0
176,63.0,60.0,120.0,0.0,0.0
177,58.0,0.0,60.0,0.0,0.0
178,65.0,0.0,120.0,0.0,0.0
179,62.0,60.0,60.0,0.0,0.0
180,46.0,0.0,120.0,1.0,0.0
181,58.0,60.0,60.0,0.0,0.0
182,51.0,0.0,240.0,1.0,0.0
183,67.0,60.0,60.0,0.0,0.0
184,63.0,60.0,60.0,0.0,0.0
185,68.0,60.0,60.0,0.0,0.0
186,48.0,0.0,120.0,1.0,0.0
187,65.0,16.0,60.0,0.0,0.0
188,67.0,15.0,15.0,0.0,0.0
189,44.0,1.0,120.0,1.0,0.0
190,65.0,15.0,15.0,0.0,0.0
191,67.0,15.0,15.0,0.0,0.0
192,65.0,15.0,15.0,0.0,0.0
193,67.0,15.0,15.0,0.0,0.0
194,65.0,15.0,15.0,0.0,0.0
195,67.0,14.0,15.0,0.0,0.0
196,65.0,15.0,15.0,0.0,0.0
197,46.0,0.0,120.0,1.0,0.0
198,50.0,1.0,120.0,1.0,0.0
199,67.0,15.0,15.0,0.0,0.0
200,65.0,15.0,15.0,0.0,0.0
201,67.0,15.0,15.0,0.0,0.0
202,65.0,30.0,15.0,0.0,0.0
203,63.0,29.0,30.0,0.0,0.0
204,65.0,239.0,30.0,0.0,0.0
205,63.0,120.0,240.0,0.0,0.0
206,39.0,0.0,240.0,1.0,0.0
207,51.0,0.0,240.0,1.0,0.0
208,51.0,0.0,120.0,1.0,0.0
209,67.0,30.0,120.0,0.0,0.0
210,53.0,120.0,120.0,1.0,0.0
211,70.0,30.0,30.0,0.0,0.0
212,68.0,30.0,30.0,0.0,0.0
213,67.0,30.0,30.0,0.0,0.0
214,68.0,0.0,30.0,0.0,0.0
215,55.0,0.0,120.0,1.0,0.0
216,70.0,120.0,120.0,0.0,0.0
217,75.0,120.0,120.0,0.0,0.0
218,68.0,0.0,120.0,0.0,0.0
219,60.0,0.0,120.0,1.0,0.0
220,67.0,0.0,120.0,0.0,0.0
221,75.0,0.0,120.0,0.0,0.0
222,58.0,120.0,120.0,1.0,0.0
223,75.0,120.0,120.0,0.0,0.0
224,72.0,0.0,120.0,0.0,0.0
225,56.0,0.0,120.0,1.0,0.0
226,55.0,1.0,120.0,1.0,0.0
227,75.0,0.0,240.0,0.0,0.0
228,70.0,117.0,120.0,0.0,0.0
229,51.0,61.0,120.0,1.0,0.0
230,67.0,2.0,120.0,0.0,0.0
231,77.0,57.0,60.0,0.0,0.0
232,75.0,62.0,60.0,0.0,0.0
233,74.0,60.0,60.0,0.0,0.0
234,72.0,120.0,60.0,0.0,0.0
235,70.0,120.0,120.0,0.0,0.0
236,51.0,60.0,240.0,1.0,0.0
237,67.0,0.0,120.0,0.0,0.0
238,70.0,0.0,120.0,0.0,0.0
239,72.0,60.0,60.0,0.0,0.0
240,44.0,121.0,240.0,1.0,0.0
241,68.0,0.0,60.0,0.0,0.0
242,67.0,0.0,60.0,0.0,0.0
243,70.0,60.0,60.0,0.0,0.0
244,68.0,60.0,60.0,0.0,0.0
245,65.0,0.0,60.0,0.0,0.0
246,67.0,0.0,60.0,0.0,0.0
247,63.0,0.0,60.0,0.0,0.0
248,46.0,120.0,240.0,1.0,0.0
249,63.0,117.0,120.0,0.0,0.0
250,67.0,0.0,120.0,0.0,0.0
251,65.0,0.0,120.0,0.0,0.0
252,62.0,2.0,120.0,0.0,0.0
253,51.0,0.0,120.0,1.0,0.0
254,67.0,30.0,120.0,0.0,0.0
255,70.0,30.0,30.0,0.0,0.0
256,53.0,0.0,120.0,1.0,0.0
257,68.0,30.0,30.0,0.0,0.0
258,67.0,30.0,30.0,0.0,0.0
259,68.0,120.0,30.0,0.0,0.0
260,55.0,120.0,120.0,1.0,0.0
261,70.0,0.0,120.0,0.0,0.0
262,60.0,0.0,120.0,1.0,0.0
263,75.0,120.0,120.0,0.0,0.0
264,68.0,0.0,120.0,0.0,0.0
265,75.0,0.0,120.0,0.0,0.0
266,58.0,0.0,120.0,1.0,0.0
267,67.0,120.0,120.0,0.0,0.0
268,75.0,0.0,120.0,0.0,0.0
269,72.0,0.0,120.0,0.0,0.0
270,56.0,120.0,120.0,1.0,0.0
271,75.0,0.0,240.0,0.0,0.0
272,70.0,117.0,120.0,0.0,0.0
273,55.0,1.0,120.0,1.0,0.0
274,51.0,60.0,120.0,1.0,0.0
275,67.0,2.0,120.0,0.0,0.0
276,79.0,60.0,60.0,0.0,0.0
277,75.0,60.0,60.0,0.0,0.0
278,51.0,60.0,120.0,1.0,0.0
279,74.0,60.0,60.0,0.0,0.0
280,72.0,0.0,60.0,0.0,0.0
281,77.0,60.0,60.0,0.0,0.0
282,50.0,0.0,120.0,1.0,0.0
283,74.0,60.0,60.0,0.0,0.0
284,72.0,60.0,60.0,0.0,0.0
285,55.0,0.0,120.0,1.0,0.0
286,70.0,60.0,60.0,0.0,0.0
287,51.0,60.0,120.0,1.0,0.0
288,75.0,60.0,60.0,0.0,0.0
289,72.0,0.0,60.0,0.0,0.0
290,53.0,0.0,120.0,1.0,0.0
291,70.0,60.0,60.0,0.0,0.0
292,69.0,240.0,60.0,0.0,0.0
293,46.0,0.0,240.0,1.0,0.0
294,70.0,120.0,240.0,0.0,0.0
295,51.0,0.0,120.0,1.0,0.0
296,67.0,30.0,120.0,0.0,0.0
297,53.0,120.0,120.0,1.0,0.0
298,70.0,30.0,30.0,0.0,0.0
299,68.0,30.0,30.0,0.0,0.0
300,67.0,30.0,30.0,0.0,0.0
301,68.0,0.0,30.0,0.0,0.0
302,70.0,120.0,120.0,0.0,0.0
303,55.0,0.0,120.0,1.0,0.0
304,68.0,0.0,120.0,0.0,0.0
305,75.0,0.0,120.0,0.0,0.0
306,60.0,120.0,120.0,1.0,0.0
307,67.0,0.0,120.0,0.0,0.0
308,75.0,0.0,120.0,0.0,0.0
309,58.0,120.0,120.0,1.0,0.0
310,56.0,0.0,120.0,1.0,0.0
311,75.0,0.0,120.0,0.0,0.0
312,72.0,120.0,120.0,0.0,0.0
313,55.0,1.0,120.0,1.0,0.0
314,75.0,61.0,240.0,0.0,0.0
315,70.0,117.0,120.0,0.0,0.0
316,51.0,0.0,120.0,1.0,0.0
317,67.0,2.0,120.0,0.0,0.0
318,77.0,57.0,60.0,0.0,0.0
319,75.0,62.0,60.0,0.0,0.0
320,74.0,60.0,60.0,0.0,0.0
321,72.0,120.0,60.0,0.0,0.0
322,51.0,60.0,240.0,1.0,0.0
323,70.0,120.0,120.0,0.0,0.0
324,70.0,0.0,120.0,0.0,0.0
325,67.0,0.0,120.0,0.0,0.0
326,44.0,121.0,240.0,1.0,0.0
327,72.0,0.0,60.0,0.0,0.0
328,68.0,60.0,60.0,0.0,0.0
329,70.0,0.0,60.0,0.0,0.0
330,67.0,60.0,60.0,0.0,0.0
331,65.0,60.0,60.0,0.0,0.0
332,68.0,0.0,60.0,0.0,0.0
333,67.0,0.0,60.0,0.0,0.0
334,63.0,0.0,60.0,0.0,0.0
335,63.0,0.0,120.0,0.0,0.0
336,67.0,117.0,120.0,0.0,0.0
337,46.0,120.0,240.0,1.0,0.0
338,65.0,0.0,120.0,0.0,0.0
339,62.0,2.0,120.0,0.0,0.0
340,51.0,0.0,120.0,1.0,0.0
341,67.0,30.0,120.0,0.0,0.0
342,53.0,0.0,120.0,1.0,0.0
343,70.0,30.0,30.0,0.0,0.0
344,68.0,30.0,30.0,0.0,0.0
345,67.0,30.0,30.0,0.0,0.0
346,68.0,120.0,30.0,0.0,0.0
347,55.0,0.0,120.0,1.0,0.0
348,70.0,120.0,120.0,0.0,0.0
349,75.0,120.0,120.0,0.0,0.0
350,68.0,0.0,120.0,0.0,0.0
351,60.0,0.0,120.0,1.0,0.0
352,58.0,0.0,120.0,1.0,0.0
353,75.0,0.0,120.0,0.0,0.0
354,67.0,120.0,120.0,0.0,0.0
355,75.0,0.0,120.0,0.0,0.0
356,56.0,0.0,120.0,1.0,0.0
357,72.0,120.0,120.0,0.0,0.0
358,55.0,1.0,120.0,1.0,0.0
359,70.0,117.0,120.0,0.0,0.0
360,75.0,60.0,240.0,0.0,0.0
361,51.0,0.0,120.0,1.0,0.0
362,67.0,2.0,120.0,0.0,0.0
363,79.0,60.0,60.0,0.0,0.0
364,75.0,60.0,60.0,0.0,0.0
365,51.0,0.0,120.0,1.0,0.0
366,74.0,60.0,60.0,0.0,0.0
367,72.0,60.0,60.0,0.0,0.0
368,77.0,60.0,60.0,0.0,0.0
369,50.0,60.0,120.0,1.0,0.0
370,74.0,0.0,60.0,0.0,0.0
371,55.0,0.0,120.0,1.0,0.0
372,72.0,60.0,60.0,0.0,0.0
373,70.0,60.0,60.0,0.0,0.0
374,75.0,60.0,60.0,0.0,0.0
375,51.0,60.0,120.0,1.0,0.0
376,72.0,0.0,60.0,0.0,0.0
377,53.0,240.0,120.0,1.0,0.0
378,70.0,60.0,60.0,0.0,0.0
379,69.0,0.0,60.0,0.0,0.0
380,70.0,120.0,240.0,0.0,0.0
381,46.0,0.0,240.0,1.0,0.0
382,63.0,0.0,120.0,0.0,0.0
383,51.0,0.0,120.0,1.0,0.0
384,67.0,120.0,120.0,0.0,0.0
385,63.0,0.0,120.0,0.0,0.0
386,45.0,120.0,120.0,1.0,0.0
387,67.0,0.0,120.0,0.0,0.0
388,67.0,60.0,120.0,0.0,0.0
389,63.0,0.0,120.0,0.0,0.0
390,46.0,0.0,120.0,1.0,0.0
391,62.0,0.0,60.0,0.0,0.0
392,65.0,60.0,60.0,0.0,0.0
393,67.0,0.0,60.0,0.0,0.0
394,63.0,120.0,60.0,0.0,0.0
395,58.0,0.0,120.0,1.0,0.0
396,65.0,120.0,120.0,0.0,0.0
397,68.0,0.0,120.0,0.0,0.0
398,65.0,0.0,120.0,0.0,0.0
399,68.0,0.0,120.0,0.0,0.0
400,50.0,120.0,120.0,1.0,0.0
401,68.0,117.0,120.0,0.0,0.0
402,51.0,1.0,120.0,1.0,0.0
403,65.0,0.0,120.0,0.0,0.0
404,67.0,62.0,120.0,0.0,0.0
405,63.0,0.0,120.0,0.0,0.0
406,51.0,60.0,60.0,1.0,0.0
407,67.0,0.0,120.0,0.0,0.0
408,70.0,0.0,120.0,0.0,0.0
409,50.0,60.0,60.0,1.0,0.0
410,70.0,61.0,120.0,0.0,0.0
411,51.0,60.0,60.0,1.0,0.0
412,67.0,0.0,120.0,0.0,0.0
413,50.0,0.0,60.0,1.0,0.0
414,68.0,0.0,60.0,0.0,0.0
415,51.0,60.0,120.0,1.0,0.0
416,72.0,57.0,60.0,0.0,0.0
417,70.0,2.0,60.0,0.0,0.0
418,67.0,0.0,60.0,0.0,0.0
419,68.0,0.0,60.0,0.0,0.0
420,65.0,60.0,60.0,0.0,0.0
421,51.0,0.0,120.0,1.0,0.0
422,67.0,0.0,60.0,0.0,0.0
423,63.0,120.0,60.0,0.0,0.0
424,62.0,0.0,120.0,0.0,0.0
425,65.0,0.0,120.0,0.0,0.0
426,58.0,120.0,120.0,1.0,0.0
427,57.0,0.0,120.0,1.0,0.0
428,67.0,121.0,120.0,0.0,0.0
429,63.0,0.0,120.0,0.0,0.0
430,67.0,117.0,120.0,0.0,0.0
431,58.0,120.0,240.0,1.0,0.0
432,63.0,0.0,120.0,0.0,0.0
433,62.0,0.0,120.0,0.0,0.0
434,65.0,2.0,120.0,0.0,0.0
435,51.0,0.0,120.0,1.0,0.0
436,67.0,0.0,120.0,0.0,0.0
437,58.0,120.0,120.0,1.0,0.0
438,67.0,0.0,120.0,0.0,0.0
439,58.0,61.0,120.0,1.0,0.0
440,51.0,0.0,120.0,1.0,0.0
441,68.0,57.0,60.0,0.0,0.0
442,51.0,0.0,120.0,1.0,0.0
443,58.0,60.0,120.0,1.0,0.0
444,67.0,2.0,60.0,0.0,0.0
445,65.0,60.0,60.0,0.0,0.0
446,63.0,120.0,60.0,0.0,0.0
447,70.0,0.0,120.0,0.0,0.0
448,51.0,0.0,120.0,1.0,0.0
449,55.0,120.0,120.0,1.0,0.0
450,67.0,61.0,120.0,0.0,0.0
451,55.0,0.0,120.0,1.0,0.0
452,70.0,0.0,120.0,0.0,0.0
453,51.0,0.0,120.0,1.0,0.0
454,72.0,57.0,60.0,0.0,0.0
455,55.0,0.0,120.0,1.0,0.0
456,51.0,60.0,120.0,1.0,0.0
457,70.0,2.0,60.0,0.0,0.0
458,68.0,60.0,60.0,0.0,0.0
459,67.0,120.0,60.0,0.0,0.0
460,44.0,0.0,120.0,1.0,0.0
461,72.0,120.0,120.0,0.0,0.0
462,51.0,0.0,120.0,1.0,0.0
463,51.0,0.0,120.0,1.0,0.0
464,72.0,60.0,120.0,0.0,0.0
465,72.0,60.0,60.0,0.0,0.0
466,51.0,0.0,360.0,1.0,0.0
467,44.0,0.0,120.0,1.0,0.0
468,74.0,60.0,60.0,0.0,0.0
469,48.0,0.0,120.0,1.0,0.0
470,75.0,60.0,60.0,0.0,0.0
471,68.0,120.0,60.0,0.0,0.0
472,67.0,16.0,120.0,0.0,0.0
473,46.0,0.0,120.0,1.0,0.0
474,67.0,15.0,15.0,0.0,0.0
475,46.0,1.0,120.0,1.0,0.0
476,50.0,0.0,120.0,1.0,0.0
477,65.0,15.0,15.0,0.0,0.0
478,67.0,15.0,15.0,0.0,0.0
479,65.0,30.0,15.0,0.0,0.0
480,63.0,29.0,30.0,0.0,0.0
481,65.0,239.0,30.0,0.0,0.0
482,39.0,0.0,240.0,1.0,0.0
483,63.0,120.0,240.0,0.0,0.0
484,51.0,0.0,240.0,1.0,0.0
485,51.0,120.0,120.0,1.0,0.0
486,67.0,0.0,120.0,0.0,0.0
487,63.0,0.0,120.0,0.0,0.0
488,45.0,0.0,120.0,1.0,0.0
489,67.0,120.0,120.0,0.0,0.0
490,63.0,0.0,120.0,0.0,0.0
491,46.0,0.0,120.0,1.0,0.0
492,63.0,60.0,120.0,0.0,0.0
493,67.0,0.0,120.0,0.0,0.0
494,62.0,60.0,60.0,0.0,0.0
495,65.0,0.0,60.0,0.0,0.0
496,63.0,0.0,60.0,0.0,0.0
497,67.0,120.0,60.0,0.0,0.0
498,68.0,120.0,120.0,0.0,0.0
499,65.0,0.0,120.0,0.0,0.0
500,58.0,0.0,120.0,1.0,0.0
501,68.0,120.0,120.0,0.0,0.0
502,65.0,0.0,120.0,0.0,0.0
503,50.0,0.0,120.0,1.0,0.0
504,68.0,0.0,120.0,0.0,0.0
505,65.0,117.0,120.0,0.0,0.0
506,51.0,1.0,120.0,1.0,0.0
507,63.0,0.0,120.0,0.0,0.0
508,67.0,62.0,120.0,0.0,0.0
509,70.0,0.0,120.0,0.0,0.0
510,67.0,60.0,120.0,0.0,0.0
511,51.0,60.0,60.0,1.0,0.0
512,50.0,0.0,60.0,1.0,0.0
513,51.0,60.0,60.0,1.0,0.0
514,67.0,61.0,120.0,0.0,0.0
515,70.0,0.0,120.0,0.0,0.0
516,50.0,0.0,60.0,1.0,0.0
517,68.0,0.0,60.0,0.0,0.0
518,51.0,60.0,120.0,1.0,0.0
519,72.0,57.0,60.0,0.0,0.0
520,67.0,2.0,60.0,0.0,0.0
521,70.0,0.0,60.0,0.0,0.0
522,68.0,0.0,60.0,0.0,0.0
523,65.0,60.0,60.0,0.0,0.0
524,51.0,0.0,120.0,1.0,0.0
525,63.0,0.0,60.0,0.0,0.0
526,67.0,120.0,60.0,0.0,0.0
527,62.0,0.0,120.0,0.0,0.0
528,58.0,120.0,120.0,1.0,0.0
529,65.0,0.0,120.0,0.0,0.0
530,63.0,0.0,120.0,0.0,0.0
531,57.0,0.0,120.0,1.0,0.0
532,67.0,121.0,120.0,0.0,0.0
533,58.0,120.0,240.0,1.0,0.0
534,63.0,0.0,120.0,0.0,0.0
535,67.0,117.0,120.0,0.0,0.0
536,65.0,0.0,120.0,0.0,0.0
537,62.0,2.0,120.0,0.0,0.0
538,58.0,120.0,120.0,1.0,0.0
539,51.0,0.0,120.0,1.0,0.0
540,67.0,0.0,120.0,0.0,0.0
541,58.0,0.0,120.0,1.0,0.0
542,67.0,0.0,120.0,0.0,0.0
543,51.0,61.0,120.0,1.0,0.0
544,68.0,57.0,60.0,0.0,0.0
545,51.0,60.0,120.0,1.0,0.0
546,58.0,0.0,120.0,1.0,0.0
547,67.0,2.0,60.0,0.0,0.0
548,65.0,60.0,60.0,0.0,0.0
549,63.0,120.0,60.0,0.0,0.0
550,51.0,120.0,120.0,1.0,0.0
551,55.0,0.0,120.0,1.0,0.0
552,70.0,0.0,120.0,0.0,0.0
553,67.0,61.0,120.0,0.0,0.0
554,70.0,0.0,120.0,0.0,0.0
555,51.0,0.0,120.0,1.0,0.0
556,55.0,0.0,120.0,1.0,0.0
557,55.0,60.0,120.0,1.0,0.0
558,72.0,57.0,60.0,0.0,0.0
559,51.0,0.0,120.0,1.0,0.0
560,70.0,2.0,60.0,0.0,0.0
561,68.0,60.0,60.0,0.0,0.0
562,67.0,120.0,60.0,0.0,0.0
563,72.0,0.0,120.0,0.0,0.0
564,44.0,0.0,120.0,1.0,0.0
565,51.0,120.0,120.0,1.0,0.0
566,72.0,0.0,120.0,0.0,0.0
567,51.0,0.0,120.0,1.0,0.0
568,72.0,60.0,60.0,0.0,0.0
569,44.0,60.0,120.0,1.0,0.0
570,51.0,0.0,360.0,1.0,0.0
571,74.0,0.0,60.0,0.0,0.0
572,48.0,0.0,120.0,1.0,0.0
573,75.0,60.0,60.0,0.0,0.0
574,68.0,120.0,60.0,0.0,0.0
575,46.0,16.0,120.0,1.0,0.0
576,67.0,0.0,120.0,0.0,0.0
577,50.0,0.0,120.0,1.0,0.0
578,67.0,15.0,15.0,0.0,0.0
579,46.0,1.0,120.0,1.0,0.0
580,65.0,15.0,15.0,0.0,0.0
581,67.0,15.0,15.0,0.0,0.0
582,65.0,30.0,15.0,0.0,0.0
583,63.0,29.0,30.0,0.0,0.0
584,65.0,239.0,30.0,0.0,0.0
585,51.0,60.0,240.0,1.0,0.0
586,63.0,0.0,240.0,0.0,0.0
587,39.0,0.0,240.0,1.0,0.0
588,39.0,60.0,60.0,1.0,0.0
589,63.0,0.0,120.0,0.0,0.0
590,43.0,60.0,60.0,1.0,0.0
591,63.0,60.0,120.0,0.0,0.0
592,46.0,60.0,60.0,1.0,0.0
593,51.0,0.0,60.0,1.0,0.0
594,63.0,60.0,60.0,0.0,0.0
595,39.0,60.0,120.0,1.0,0.0
596,58.0,0.0,60.0,0.0,0.0
597,55.0,60.0,60.0,0.0,0.0
598,51.0,60.0,60.0,0.0,0.0
599,67.0,60.0,120.0,0.0,0.0
600,39.0,60.0,60.0,1.0,0.0
601,43.0,0.0,60.0,1.0,0.0
602,46.0,60.0,60.0,1.0,0.0
603,67.0,60.0,120.0,0.0,0.0
604,51.0,0.0,60.0,1.0,0.0
605,39.0,60.0,120.0,1.0,0.0
606,67.0,60.0,60.0,0.0,0.0
607,63.0,0.0,60.0,0.0,0.0
608,58.0,60.0,60.0,0.0,0.0
609,55.0,60.0,60.0,0.0,0.0
610,70.0,0.0,120.0,0.0,0.0
611,39.0,60.0,60.0,1.0,0.0
612,43.0,60.0,60.0,1.0,0.0
613,70.0,60.0,120.0,0.0,0.0
614,46.0,60.0,60.0,1.0,0.0
615,51.0,0.0,60.0,1.0,0.0
616,39.0,0.0,60.0,1.0,0.0
617,70.0,60.0,60.0,0.0,0.0
618,67.0,0.0,60.0,0.0,0.0
619,43.0,60.0,60.0,1.0,0.0
620,63.0,0.0,60.0,0.0,0.0
621,46.0,60.0,60.0,1.0,0.0
622,51.0,0.0,60.0,1.0,0.0
623,58.0,60.0,60.0,0.0,0.0
624,75.0,0.0,120.0,0.0,0.0
625,39.0,60.0,60.0,1.0,0.0
626,43.0,60.0,60.0,1.0,0.0
627,67.0,0.0,120.0,0.0,0.0
628,75.0,0.0,120.0,0.0,0.0
629,46.0,60.0,60.0,1.0,0.0
630,51.0,240.0,60.0,1.0,0.0
631,39.0,0.0,240.0,1.0,0.0
632,75.0,60.0,240.0,0.0,0.0
633,67.0,0.0,240.0,0.0,0.0
634,63.0,60.0,60.0,0.0,0.0
635,67.0,60.0,120.0,0.0,0.0
636,58.0,0.0,60.0,0.0,0.0
637,68.0,60.0,120.0,0.0,0.0
638,65.0,60.0,60.0,0.0,0.0
639,58.0,0.0,60.0,0.0,0.0
640,34.0,60.0,240.0,1.0,0.0
641,46.0,0.0,240.0,1.0,0.0
642,70.0,59.0,120.0,0.0,0.0
643,67.0,60.0,60.0,0.0,0.0
644,58.0,1.0,60.0,0.0,0.0
645,72.0,2.0,120.0,0.0,0.0
646,68.0,58.0,60.0,0.0,0.0
647,58.0,0.0,60.0,0.0,0.0
648,65.0,0.0,120.0,0.0,0.0
649,62.0,60.0,60.0,0.0,0.0
650,58.0,60.0,60.0,0.0,0.0
651,67.0,0.0,120.0,0.0,0.0
652,63.0,60.0,60.0,0.0,0.0
653,58.0,60.0,60.0,0.0,0.0
654,65.0,60.0,60.0,0.0,0.0
655,34.0,0.0,240.0,1.0,0.0
656,46.0,0.0,240.0,1.0,0.0
657,68.0,59.0,120.0,0.0,0.0
658,58.0,1.0,60.0,0.0,0.0
659,67.0,58.0,60.0,0.0,0.0
660,70.0,2.0,120.0,0.0,0.0
661,58.0,60.0,60.0,0.0,0.0
662,63.0,60.0,120.0,0.0,0.0
663,60.0,60.0,60.0,0.0,0.0
664,58.0,0.0,60.0,0.0,0.0
665,65.0,60.0,120.0,0.0,0.0
666,46.0,0.0,120.0,1.0,0.0
667,62.0,60.0,60.0,0.0,0.0
668,58.0,0.0,60.0,0.0,0.0
669,67.0,60.0,60.0,0.0,0.0
670,39.0,60.0,120.0,1.0,0.0
671,70.0,0.0,60.0,0.0,0.0
672,67.0,60.0,60.0,0.0,0.0
673,48.0,61.0,120.0,1.0,0.0
674,63.0,0.0,60.0,0.0,0.0
675,70.0,57.0,60.0,0.0,0.0
676,44.0,60.0,120.0,1.0,0.0
677,68.0,2.0,60.0,0.0,0.0
678,46.0,240.0,120.0,1.0,0.0
679,65.0,60.0,60.0,0.0,0.0
680,62.0,0.0,60.0,0.0,0.0
681,39.0,0.0,240.0,1.0,0.0
682,63.0,60.0,240.0,0.0,0.0
683,63.0,0.0,120.0,0.0,0.0
684,39.0,60.0,60.0,1.0,0.0
685,43.0,60.0,60.0,1.0,0.0
686,63.0,60.0,120.0,0.0,0.0
687,46.0,60.0,60.0,1.0,0.0
688,51.0,0.0,60.0,1.0,0.0
689,63.0,60.0,60.0,0.0,0.0
690,39.0,0.0,120.0,1.0,0.0
691,58.0,60.0,60.0,0.0,0.0
692,55.0,60.0,60.0,0.0,0.0
693,51.0,60.0,60.0,0.0,0.0
694,39.0,60.0,60.0,1.0,0.0
695,67.0,60.0,120.0,0.0,0.0
696,43.0,0.0,60.0,1.0,0.0
697,46.0,60.0,60.0,1.0,0.0
698,67.0,60.0,120.0,0.0,0.0
699,51.0,0.0,60.0,1.0,0.0
700,67.0,60.0,60.0,0.0,0.0
701,39.0,60.0,120.0,1.0,0.0
702,63.0,0.0,60.0,0.0,0.0
703,58.0,60.0,60.0,0.0,0.0
704,55.0,60.0,60.0,0.0,0.0
705,39.0,60.0,60.0,1.0,0.0
706,70.0,0.0,120.0,0.0,0.0
707,43.0,60.0,60.0,1.0,0.0
708,70.0,60.0,120.0,0.0,0.0
709,46.0,60.0,60.0,1.0,0.0
710,51.0,0.0,60.0,1.0,0.0
711,70.0,0.0,60.0,0.0,0.0
712,39.0,60.0,60.0,1.0,0.0
713,43.0,0.0,60.0,1.0,0.0
714,67.0,60.0,60.0,0.0,0.0
715,46.0,0.0,60.0,1.0,0.0
716,63.0,60.0,60.0,0.0,0.0
717,51.0,0.0,60.0,1.0,0.0
718,58.0,60.0,60.0,0.0,0.0
719,75.0,60.0,120.0,0.0,0.0
720,39.0,60.0,60.0,1.0,0.0
721,43.0,0.0,60.0,1.0,0.0
722,46.0,60.0,60.0,1.0,0.0
723,75.0,240.0,120.0,0.0,0.0
724,67.0,0.0,120.0,0.0,0.0
725,51.0,0.0,60.0,1.0,0.0
726,75.0,0.0,240.0,0.0,0.0
727,39.0,0.0,240.0,1.0,0.0
728,67.0,60.0,240.0,0.0,0.0
729,63.0,60.0,60.0,0.0,0.0
730,67.0,60.0,120.0,0.0,0.0
731,58.0,0.0,60.0,0.0,0.0
732,68.0,60.0,120.0,0.0,0.0
733,65.0,60.0,60.0,0.0,0.0
734,58.0,0.0,60.0,0.0,0.0
735,34.0,0.0,240.0,1.0,0.0
736,67.0,60.0,60.0,0.0,0.0
737,70.0,59.0,120.0,0.0,0.0
738,46.0,60.0,240.0,1.0,0.0
739,58.0,1.0,60.0,0.0,0.0
740,68.0,58.0,60.0,0.0,0.0
741,72.0,2.0,120.0,0.0,0.0
742,58.0,0.0,60.0,0.0,0.0
743,65.0,0.0,120.0,0.0,0.0
744,62.0,60.0,60.0,0.0,0.0
745,58.0,60.0,60.0,0.0,0.0
746,63.0,60.0,60.0,0.0,0.0
747,67.0,60.0,120.0,0.0,0.0
748,58.0,0.0,60.0,0.0,0.0
749,34.0,60.0,240.0,1.0,0.0
750,46.0,0.0,240.0,1.0,0.0
751,65.0,60.0,60.0,0.0,0.0
752,68.0,59.0,120.0,0.0,0.0
753,58.0,1.0,60.0,0.0,0.0
754,70.0,2.0,120.0,0.0,0.0
755,67.0,58.0,60.0,0.0,0.0
756,58.0,0.0,60.0,0.0,0.0
757,60.0,60.0,60.0,0.0,0.0
758,63.0,0.0,120.0,0.0,0.0
759,58.0,60.0,60.0,0.0,0.0
760,65.0,0.0,120.0,0.0,0.0
761,46.0,60.0,120.0,1.0,0.0
762,62.0,60.0,60.0,0.0,0.0
763,58.0,0.0,60.0,0.0,0.0
764,67.0,60.0,60.0,0.0,0.0
765,39.0,60.0,120.0,1.0,0.0
766,70.0,0.0,60.0,0.0,0.0
767,48.0,0.0,120.0,1.0,0.0
768,67.0,60.0,60.0,0.0,0.0
769,63.0,61.0,60.0,0.0,0.0
770,70.0,57.0,60.0,0.0,0.0
771,44.0,60.0,120.0,1.0,0.0
772,68.0,2.0,60.0,0.0,0.0
773,65.0,60.0,60.0,0.0,0.0
774,46.0,0.0,120.0,1.0,0.0
775,62.0,240.0,60.0,0.0,0.0
776,39.0,0.0,240.0,1.0,0.0
777,63.0,120.0,240.0,0.0,0.0
778,63.0,0.0,120.0,0.0,0.0
779,51.0,0.0,120.0,1.0,0.0
780,67.0,120.0,120.0,0.0,0.0
781,68.0,0.0,120.0,0.0,0.0
782,51.0,120.0,120.0,1.0,0.0
783,65.0,0.0,120.0,0.0,0.0
784,51.0,1.0,120.0,1.0,0.0
785,67.0,0.0,120.0,0.0,0.0
786,70.0,117.0,120.0,0.0,0.0
787,72.0,0.0,120.0,0.0,0.0
788,68.0,122.0,120.0,0.0,0.0
789,58.0,0.0,120.0,1.0,0.0
790,65.0,120.0,120.0,0.0,0.0
791,62.0,0.0,120.0,0.0,0.0
792,67.0,0.0,120.0,0.0,0.0
793,63.0,0.0,120.0,0.0,0.0
794,58.0,120.0,120.0,1.0,0.0
795,65.0,0.0,120.0,0.0,0.0
796,68.0,117.0,120.0,0.0,0.0
797,58.0,1.0,120.0,1.0,0.0
798,67.0,0.0,120.0,0.0,0.0
799,70.0,122.0,120.0,0.0,0.0
800,63.0,0.0,120.0,0.0,0.0
801,60.0,120.0,120.0,0.0,0.0
802,62.0,0.0,120.0,0.0,0.0
803,65.0,0.0,120.0,0.0,0.0
804,46.0,120.0,120.0,1.0,0.0
805,67.0,120.0,120.0,0.0,0.0
806,39.0,0.0,120.0,1.0,0.0
807,63.0,0.0,480.0,0.0,0.0
808,41.0,61.0,120.0,1.0,0.0
809,68.0,0.0,120.0,0.0,0.0
810,43.0,60.0,120.0,1.0,0.0
811,72.0,57.0,60.0,0.0,0.0
812,70.0,2.0,60.0,0.0,0.0
813,44.0,0.0,120.0,1.0,0.0
814,68.0,60.0,60.0,0.0,0.0
815,67.0,121.0,60.0,0.0,0.0
816,63.0,0.0,120.0,0.0,0.0
817,67.0,117.0,120.0,0.0,0.0
818,46.0,60.0,240.0,1.0,0.0
819,65.0,0.0,120.0,0.0,0.0
820,62.0,2.0,120.0,0.0,0.0
821,63.0,60.0,60.0,0.0,0.0
822,67.0,60.0,120.0,0.0,0.0
823,58.0,0.0,60.0,0.0,0.0
824,68.0,0.0,120.0,0.0,0.0
825,65.0,60.0,60.0,0.0,0.0
826,58.0,60.0,60.0,0.0,0.0
827,67.0,60.0,60.0,0.0,0.0
828,70.0,59.0,120.0,0.0,0.0
829,46.0,0.0,240.0,1.0,0.0
830,34.0,0.0,240.0,1.0,0.0
831,58.0,1.0,60.0,0.0,0.0
832,72.0,2.0,120.0,0.0,0.0
833,68.0,58.0,60.0,0.0,0.0
834,58.0,60.0,60.0,0.0,0.0
835,62.0,60.0,60.0,0.0,0.0
836,65.0,0.0,120.0,0.0,0.0
837,58.0,60.0,60.0,0.0,0.0
838,63.0,60.0,60.0,0.0,0.0
839,67.0,0.0,120.0,0.0,0.0
840,58.0,60.0,60.0,0.0,0.0
841,68.0,59.0,120.0,0.0,0.0
842,34.0,0.0,240.0,1.0,0.0
843,46.0,60.0,240.0,1.0,0.0
844,65.0,60.0,60.0,0.0,0.0
845,58.0,1.0,60.0,0.0,0.0
846,70.0,2.0,120.0,0.0,0.0
847,67.0,58.0,60.0,0.0,0.0
848,58.0,0.0,60.0,0.0,0.0
849,60.0,60.0,60.0,0.0,0.0
850,63.0,0.0,120.0,0.0,0.0
851,58.0,60.0,60.0,0.0,0.0
852,65.0,60.0,120.0,0.0,0.0
853,46.0,0.0,120.0,1.0,0.0
854,62.0,60.0,60.0,0.0,0.0
855,58.0,0.0,60.0,0.0,0.0
856,67.0,60.0,60.0,0.0,0.0
857,51.0,0.0,240.0,1.0,0.0
858,63.0,60.0,60.0,0.0,0.0
859,48.0,0.0,120.0,1.0,0.0
860,68.0,60.0,60.0,0.0,0.0
861,65.0,16.0,60.0,0.0,0.0
862,44.0,1.0,120.0,1.0,0.0
863,67.0,15.0,15.0,0.0,0.0
864,65.0,15.0,15.0,0.0,0.0
865,67.0,15.0,15.0,0.0,0.0
866,65.0,15.0,15.0,0.0,0.0
867,67.0,15.0,15.0,0.0,0.0
868,65.0,15.0,15.0,0.0,0.0
869,67.0,14.0,15.0,0.0,0.0
870,65.0,15.0,15.0,0.0,0.0
871,67.0,15.0,15.0,0.0,0.0
872,50.0,1.0,120.0,1.0,0.0
873,46.0,0.0,120.0,1.0,0.0
874,65.0,15.0,15.0,0.0,0.0
875,67.0,15.0,15.0,0.0,0.0
876,65.0,30.0,15.0,0.0,0.0
877,63.0,29.0,30.0,0.0,0.0
878,65.0,239.0,30.0,0.0,0.0
879,39.0,120.0,240.0,1.0,0.0
880,63.0,0.0,240.0,0.0,0.0
881,51.0,0.0,240.0,1.0,0.0
882,51.0,0.0,120.0,1.0,0.0
883,63.0,120.0,120.0,0.0,0.0
884,67.0,0.0,120.0,0.0,0.0
885,68.0,120.0,120.0,0.0,0.0
886,51.0,0.0,120.0,1.0,0.0
887,65.0,0.0,120.0,0.0,0.0
888,67.0,117.0,120.0,0.0,0.0
889,70.0,0.0,120.0,0.0,0.0
890,51.0,1.0,120.0,1.0,0.0
891,68.0,122.0,120.0,0.0,0.0
892,72.0,0.0,120.0,0.0,0.0
893,58.0,120.0,120.0,1.0,0.0
894,65.0,0.0,120.0,0.0,0.0
895,62.0,0.0,120.0,0.0,0.0
896,58.0,120.0,120.0,1.0,0.0
897,67.0,0.0,120.0,0.0,0.0
898,63.0,0.0,120.0,0.0,0.0
899,68.0,0.0,120.0,0.0,0.0
900,65.0,117.0,120.0,0.0,0.0
901,58.0,1.0,120.0,1.0,0.0
902,67.0,122.0,120.0,0.0,0.0
903,70.0,0.0,120.0,0.0,0.0
904,63.0,120.0,120.0,0.0,0.0
905,60.0,0.0,120.0,0.0,0.0
906,46.0,0.0,120.0,1.0,0.0
907,62.0,0.0,120.0,0.0,0.0
908,65.0,120.0,120.0,0.0,0.0
909,39.0,0.0,120.0,1.0,0.0
910,67.0,120.0,120.0,0.0,0.0
911,63.0,0.0,480.0,0.0,0.0
912,68.0,61.0,120.0,0.0,0.0
913,41.0,0.0,120.0,1.0,0.0
914,72.0,57.0,60.0,0.0,0.0
915,43.0,60.0,120.0,1.0,0.0
916,70.0,2.0,60.0,0.0,0.0
917,44.0,121.0,120.0,1.0,0.0
918,68.0,60.0,60.0,0.0,0.0
919,67.0,0.0,60.0,0.0,0.0
920,46.0,60.0,240.0,1.0,0.0
921,67.0,117.0,120.0,0.0,0.0
922,63.0,0.0,120.0,0.0,0.0
923,65.0,0.0,120.0,0.0,0.0
924,62.0,2.0,120.0,0.0,0.0
925,67.0,60.0,120.0,0.0,0.0
926,63.0,60.0,60.0,0.0,0.0
927,58.0,0.0,60.0,0.0,0.0
928,68.0,60.0,120.0,0.0,0.0
929,65.0,60.0,60.0,0.0,0.0
930,58.0,0.0,60.0,0.0,0.0
931,46.0,0.0,240.0,1.0,0.0
932,34.0,60.0,240.0,1.0,0.0
933,67.0,60.0,60.0,0.0,0.0
934,70.0,59.0,120.0,0.0,0.0
935,58.0,1.0,60.0,0.0,0.0
936,72.0,2.0,120.0,0.0,0.0
937,68.0,58.0,60.0,0.0,0.0
938,58.0,0.0,60.0,0.0,0.0
939,65.0,0.0,120.0,0.0,0.0
940,62.0,60.0,60.0,0.0,0.0
941,58.0,60.0,60.0,0.0,0.0
942,67.0,60.0,120.0,0.0,0.0
943,63.0,60.0,60.0,0.0,0.0
944,58.0,0.0,60.0,0.0,0.0
945,65.0,60.0,60.0,0.0,0.0
946,34.0,60.0,240.0,1.0,0.0
947,68.0,59.0,120.0,0.0,0.0
948,46.0,0.0,240.0,1.0,0.0
949,58.0,1.0,60.0,0.0,0.0
950,70.0,2.0,120.0,0.0,0.0
951,67.0,58.0,60.0,0.0,0.0
952,58.0,0.0,60.0,0.0,0.0
953,60.0,60.0,60.0,0.0,0.0
954,63.0,0.0,120.0,0.0,0.0
955,58.0,60.0,60.0,0.0,0.0
956,46.0,0.0,120.0,1.0,0.0
957,65.0,0.0,120.0,0.0,0.0
958,62.0,60.0,60.0,0.0,0.0
959,58.0,60.0,60.0,0.0,0.0
960,67.0,60.0,60.0,0.0,0.0
961,51.0,0.0,240.0,1.0,0.0
962,63.0,60.0,60.0,0.0,0.0
963,48.0,0.0,120.0,1.0,0.0
964,68.0,60.0,60.0,0.0,0.0
965,65.0,16.0,60.0,0.0,0.0
966,67.0,15.0,15.0,0.0,0.0
967,44.0,1.0,120.0,1.0,0.0
968,65.0,15.0,15.0,0.0,0.0
969,67.0,15.0,15.0,0.0,0.0
970,65.0,15.0,15.0,0.0,0.0
971,67.0,15.0,15.0,0.0,0.0
972,65.0,15.0,15.0,0.0,0.0
973,67.0,14.0,15.0,0.0,0.0
974,65.0,15.0,15.0,0.0,0.0
975,67.0,15.0,15.0,0.0,0.0
976,46.0,0.0,120.0,1.0,0.0
977,50.0,1.0,120.0,1.0,0.0
978,65.0,15.0,15.0,0.0,0.0
979,67.0,15.0,15.0,0.0,0.0
980,65.0,30.0,15.0,0.0,0.0
981,63.0,29.0,30.0,0.0,0.0
982,65.0,239.0,30.0,0.0,0.0
983,39.0,0.0,240.0,1.0,0.0
984,63.0,0.0,240.0,0.0,0.0
985,51.0,0.0,240.0,1.0,0.0
