,note,step,duration,channel,velocity
0,54.0,0.0,960.0,5.0,0.0
1,66.0,480.0,960.0,1.0,0.0
2,49.0,960.0,480.0,5.0,0.0
3,61.0,0.0,480.0,1.0,0.0
4,46.0,0.0,960.0,5.0,0.0
5,58.0,480.0,960.0,1.0,0.0
6,49.0,960.0,480.0,5.0,0.0
7,61.0,0.0,480.0,1.0,0.0
8,66.0,0.0,960.0,1.0,0.0
9,54.0,480.0,960.0,5.0,0.0
10,70.0,614.0,480.0,1.0,0.0
11,58.0,0.0,480.0,5.0,0.0
12,73.0,0.0,600.0,1.0,0.0
13,61.0,586.0,600.0,5.0,0.0
14,78.0,240.0,240.0,1.0,0.0
15,70.0,240.0,240.0,1.0,0.0
16,59.0,5.0,2880.0,4.0,0.0
17,56.0,115.0,2880.0,4.0,0.0
18,73.0,240.0,240.0,1.0,0.0
19,49.0,0.0,2880.0,5.0,0.0
20,71.0,240.0,240.0,1.0,0.0
21,70.0,240.0,240.0,1.0,0.0
22,68.0,240.0,240.0,1.0,0.0
23,66.0,240.0,240.0,1.0,0.0
24,65.0,240.0,240.0,1.0,0.0
25,63.0,240.0,240.0,1.0,0.0
26,61.0,240.0,240.0,1.0,0.0
27,60.0,240.0,240.0,1.0,0.0
28,61.0,240.0,240.0,1.0,0.0
29,63.0,240.0,240.0,1.0,0.0
30,65.0,0.0,240.0,1.0,0.0
31,54.0,120.0,480.0,5.0,0.0
32,66.0,180.0,120.0,1.0,0.0
33,58.0,0.0,480.0,4.0,0.0
34,68.0,60.0,60.0,1.0,0.0
35,66.0,120.0,60.0,1.0,0.0
36,65.0,0.0,120.0,1.0,0.0
37,66.0,240.0,120.0,1.0,0.0
38,68.0,240.0,120.0,1.0,0.0
39,70.0,240.0,120.0,1.0,0.0
40,71.0,360.0,120.0,1.0,0.0
41,72.0,240.0,240.0,1.0,0.0
42,73.0,240.0,240.0,1.0,0.0
43,75.0,240.0,240.0,1.0,0.0
44,73.0,240.0,240.0,1.0,0.0
45,78.0,240.0,240.0,1.0,0.0
46,70.0,240.0,240.0,1.0,0.0
47,49.0,0.0,2880.0,5.0,0.0
48,56.0,15.0,2880.0,4.0,0.0
49,59.0,177.0,2880.0,4.0,0.0
50,73.0,240.0,240.0,1.0,0.0
51,71.0,240.0,240.0,1.0,0.0
52,70.0,240.0,240.0,1.0,0.0
53,68.0,240.0,240.0,1.0,0.0
54,66.0,240.0,240.0,1.0,0.0
55,65.0,240.0,240.0,1.0,0.0
56,63.0,240.0,240.0,1.0,0.0
57,61.0,240.0,240.0,1.0,0.0
58,60.0,240.0,240.0,1.0,0.0
59,61.0,240.0,240.0,1.0,0.0
60,63.0,225.0,240.0,1.0,0.0
61,65.0,15.0,240.0,1.0,0.0
62,66.0,0.0,180.0,1.0,0.0
63,54.0,480.0,180.0,5.0,0.0
64,58.0,0.0,180.0,4.0,0.0
65,58.0,0.0,180.0,4.0,0.0
66,54.0,0.0,180.0,5.0,0.0
67,66.0,480.0,180.0,1.0,0.0
68,61.0,0.0,180.0,4.0,0.0
69,70.0,0.0,180.0,1.0,0.0
70,54.0,768.0,180.0,5.0,0.0
71,66.0,0.0,480.0,1.0,0.0
72,54.0,440.0,480.0,5.0,0.0
73,58.0,0.0,480.0,4.0,0.0
74,66.0,160.0,90.0,1.0,0.0
75,68.0,120.0,120.0,1.0,0.0
76,66.0,120.0,120.0,1.0,0.0
77,65.0,120.0,120.0,1.0,0.0
78,66.0,480.0,120.0,1.0,0.0
79,75.0,440.0,480.0,1.0,0.0
80,54.0,120.0,480.0,4.0,0.0
81,51.0,0.0,480.0,4.0,0.0
82,47.0,0.0,480.0,5.0,0.0
83,66.0,40.0,90.0,1.0,0.0
84,68.0,120.0,120.0,1.0,0.0
85,66.0,120.0,120.0,1.0,0.0
86,65.0,120.0,120.0,1.0,0.0
87,66.0,480.0,120.0,1.0,0.0
88,73.0,440.0,480.0,1.0,0.0
89,46.0,120.0,480.0,5.0,0.0
90,54.0,0.0,480.0,4.0,0.0
91,49.0,0.0,480.0,4.0,0.0
92,66.0,40.0,90.0,1.0,0.0
93,68.0,120.0,120.0,1.0,0.0
94,66.0,120.0,120.0,1.0,0.0
95,65.0,120.0,120.0,1.0,0.0
96,66.0,480.0,120.0,1.0,0.0
97,68.0,240.0,480.0,1.0,0.0
98,53.0,480.0,1440.0,5.0,0.0
99,61.0,0.0,1920.0,4.0,0.0
100,73.0,480.0,240.0,1.0,0.0
101,71.0,240.0,240.0,1.0,0.0
102,69.0,247.0,480.0,1.0,0.0
103,54.0,0.0,480.0,5.0,0.0
104,70.0,193.0,240.0,1.0,0.0
105,66.0,160.0,90.0,1.0,0.0
106,68.0,120.0,120.0,1.0,0.0
107,66.0,120.0,120.0,1.0,0.0
108,65.0,120.0,120.0,1.0,0.0
109,66.0,480.0,120.0,1.0,0.0
110,75.0,440.0,480.0,1.0,0.0
111,51.0,0.0,480.0,4.0,0.0
112,54.0,120.0,480.0,4.0,0.0
113,47.0,0.0,480.0,5.0,0.0
114,66.0,40.0,90.0,1.0,0.0
115,68.0,120.0,120.0,1.0,0.0
116,66.0,120.0,120.0,1.0,0.0
117,65.0,120.0,120.0,1.0,0.0
118,66.0,480.0,120.0,1.0,0.0
119,73.0,440.0,480.0,1.0,0.0
120,54.0,0.0,480.0,4.0,0.0
121,49.0,0.0,480.0,4.0,0.0
122,46.0,120.0,480.0,5.0,0.0
123,66.0,40.0,90.0,1.0,0.0
124,68.0,120.0,120.0,1.0,0.0
125,66.0,120.0,120.0,1.0,0.0
126,65.0,120.0,120.0,1.0,0.0
127,66.0,480.0,120.0,1.0,0.0
128,49.0,0.0,1440.0,5.0,0.0
129,53.0,0.0,480.0,4.0,0.0
130,68.0,240.0,480.0,1.0,0.0
131,71.0,240.0,240.0,1.0,0.0
132,56.0,240.0,480.0,4.0,0.0
133,65.0,240.0,240.0,1.0,0.0
134,59.0,480.0,480.0,4.0,0.0
135,66.0,1152.0,480.0,1.0,0.0
136,54.0,0.0,480.0,5.0,0.0
137,58.0,0.0,480.0,4.0,0.0
138,51.0,0.0,180.0,5.0,0.0
139,75.0,648.0,180.0,1.0,0.0
140,70.0,0.0,180.0,2.0,0.0
141,66.0,0.0,180.0,2.0,0.0
142,63.0,777.0,360.0,1.0,0.0
143,39.0,15.0,360.0,5.0,0.0
144,65.0,0.0,180.0,2.0,0.0
145,46.0,0.0,180.0,5.0,0.0
146,70.0,0.0,180.0,1.0,0.0
147,62.0,648.0,180.0,2.0,0.0
148,34.0,840.0,360.0,5.0,0.0
149,58.0,0.0,360.0,1.0,0.0
150,59.0,120.0,960.0,1.0,0.0
151,51.0,240.0,240.0,3.0,0.0
152,47.0,0.0,1440.0,5.0,0.0
153,54.0,240.0,240.0,3.0,0.0
154,51.0,240.0,240.0,3.0,0.0
155,54.0,0.0,240.0,3.0,0.0
156,51.0,0.0,240.0,3.0,0.0
157,61.0,120.0,120.0,1.0,0.0
158,59.0,120.0,120.0,1.0,0.0
159,58.0,120.0,120.0,1.0,0.0
160,54.0,240.0,240.0,3.0,0.0
161,59.0,0.0,120.0,1.0,0.0
162,46.0,0.0,1440.0,5.0,0.0
163,68.0,0.0,240.0,1.0,0.0
164,52.0,240.0,240.0,3.0,0.0
165,54.0,240.0,240.0,3.0,0.0
166,52.0,25.0,240.0,3.0,0.0
167,66.0,0.0,15.0,1.0,0.0
168,54.0,240.0,240.0,3.0,0.0
169,66.0,120.0,360.0,1.0,0.0
170,52.0,120.0,240.0,3.0,0.0
171,54.0,240.0,240.0,3.0,0.0
172,51.0,240.0,240.0,3.0,0.0
173,66.0,0.0,240.0,1.0,0.0
174,47.0,0.0,1440.0,5.0,0.0
175,71.0,240.0,240.0,1.0,0.0
176,54.0,0.0,240.0,3.0,0.0
177,51.0,0.0,240.0,3.0,0.0
178,70.0,240.0,240.0,1.0,0.0
179,54.0,0.0,240.0,3.0,0.0
180,69.0,240.0,240.0,1.0,0.0
181,68.0,0.0,240.0,1.0,0.0
182,51.0,240.0,240.0,3.0,0.0
183,54.0,240.0,240.0,3.0,0.0
184,67.0,0.0,240.0,1.0,0.0
185,46.0,0.0,1440.0,5.0,0.0
186,52.0,240.0,240.0,3.0,0.0
187,66.0,210.0,480.0,1.0,0.0
188,54.0,30.0,240.0,3.0,0.0
189,52.0,240.0,240.0,3.0,0.0
190,54.0,240.0,240.0,3.0,0.0
191,52.0,240.0,240.0,3.0,0.0
192,54.0,240.0,240.0,3.0,0.0
193,51.0,240.0,240.0,3.0,0.0
194,47.0,0.0,1440.0,5.0,0.0
195,59.0,150.0,960.0,1.0,0.0
196,54.0,240.0,240.0,3.0,0.0
197,51.0,240.0,240.0,3.0,0.0
198,54.0,0.0,240.0,3.0,0.0
199,51.0,0.0,240.0,3.0,0.0
200,61.0,90.0,120.0,1.0,0.0
201,59.0,120.0,120.0,1.0,0.0
202,58.0,120.0,120.0,1.0,0.0
203,54.0,0.0,240.0,3.0,0.0
204,59.0,240.0,120.0,1.0,0.0
205,68.0,0.0,240.0,1.0,0.0
206,46.0,0.0,1440.0,5.0,0.0
207,49.0,240.0,240.0,3.0,0.0
208,52.0,240.0,240.0,3.0,0.0
209,67.0,0.0,15.0,1.0,0.0
210,49.0,25.0,240.0,3.0,0.0
211,52.0,240.0,240.0,3.0,0.0
212,67.0,120.0,360.0,1.0,0.0
213,49.0,120.0,240.0,3.0,0.0
214,52.0,240.0,240.0,3.0,0.0
215,68.0,240.0,240.0,1.0,0.0
216,51.0,0.0,240.0,3.0,0.0
217,56.0,0.0,240.0,3.0,0.0
218,75.0,240.0,240.0,1.0,0.0
219,51.0,0.0,240.0,3.0,0.0
220,71.0,240.0,240.0,1.0,0.0
221,56.0,240.0,240.0,3.0,0.0
222,70.0,0.0,240.0,1.0,0.0
223,68.0,240.0,240.0,1.0,0.0
224,51.0,0.0,240.0,3.0,0.0
225,56.0,240.0,240.0,3.0,0.0
226,66.0,0.0,240.0,1.0,0.0
227,65.0,240.0,480.0,1.0,0.0
228,47.0,0.0,15.0,5.0,0.0
229,49.0,240.0,240.0,3.0,0.0
230,56.0,0.0,240.0,3.0,0.0
231,49.0,240.0,240.0,3.0,0.0
232,56.0,240.0,240.0,3.0,0.0
233,49.0,240.0,240.0,3.0,0.0
234,56.0,240.0,240.0,3.0,0.0
235,46.0,0.0,1440.0,5.0,0.0
236,49.0,10.0,240.0,3.0,0.0
237,66.0,230.0,240.0,1.0,0.0
238,82.0,240.0,240.0,1.0,0.0
239,54.0,0.0,240.0,3.0,0.0
240,49.0,0.0,240.0,3.0,0.0
241,78.0,240.0,240.0,1.0,0.0
242,54.0,0.0,240.0,3.0,0.0
243,77.0,240.0,240.0,1.0,0.0
244,49.0,240.0,240.0,3.0,0.0
245,75.0,0.0,240.0,1.0,0.0
246,73.0,0.0,240.0,1.0,0.0
247,54.0,240.0,240.0,3.0,0.0
248,72.0,0.0,480.0,1.0,0.0
249,51.0,240.0,240.0,3.0,0.0
250,44.0,240.0,1440.0,5.0,0.0
251,54.0,240.0,240.0,3.0,0.0
252,51.0,240.0,240.0,3.0,0.0
253,54.0,240.0,240.0,3.0,0.0
254,51.0,240.0,240.0,3.0,0.0
255,54.0,0.0,240.0,3.0,0.0
256,46.0,0.0,1440.0,5.0,0.0
257,49.0,0.0,240.0,3.0,0.0
258,73.0,240.0,240.0,1.0,0.0
259,53.0,240.0,240.0,3.0,0.0
260,77.0,0.0,240.0,1.0,0.0
261,73.0,0.0,240.0,1.0,0.0
262,49.0,240.0,240.0,3.0,0.0
263,53.0,240.0,240.0,3.0,0.0
264,72.0,0.0,240.0,1.0,0.0
265,70.0,0.0,240.0,1.0,0.0
266,49.0,240.0,240.0,3.0,0.0
267,68.0,240.0,240.0,1.0,0.0
268,53.0,0.0,240.0,3.0,0.0
269,58.0,240.0,240.0,3.0,0.0
270,51.0,0.0,1440.0,5.0,0.0
271,67.0,240.0,480.0,1.0,0.0
272,61.0,0.0,240.0,3.0,0.0
273,58.0,240.0,240.0,3.0,0.0
274,61.0,240.0,240.0,3.0,0.0
275,58.0,240.0,240.0,3.0,0.0
276,61.0,240.0,240.0,3.0,0.0
277,56.0,0.0,480.0,5.0,0.0
278,60.0,120.0,480.0,3.0,0.0
279,68.0,120.0,120.0,2.0,0.0
280,67.0,120.0,120.0,2.0,0.0
281,68.0,0.0,120.0,2.0,0.0
282,70.0,120.0,120.0,2.0,0.0
283,68.0,120.0,120.0,2.0,0.0
284,67.0,120.0,120.0,2.0,0.0
285,68.0,240.0,120.0,2.0,0.0
286,66.0,0.0,480.0,5.0,0.0
287,68.0,120.0,120.0,2.0,0.0
288,72.0,120.0,120.0,2.0,0.0
289,68.0,240.0,120.0,2.0,0.0
290,65.0,240.0,480.0,5.0,0.0
291,68.0,120.0,120.0,2.0,0.0
292,73.0,120.0,120.0,2.0,0.0
293,68.0,0.0,120.0,2.0,0.0
294,60.0,0.0,480.0,5.0,0.0
295,68.0,120.0,120.0,2.0,0.0
296,78.0,120.0,120.0,2.0,0.0
297,68.0,240.0,120.0,2.0,0.0
298,61.0,0.0,480.0,5.0,0.0
299,68.0,120.0,120.0,2.0,0.0
300,77.0,120.0,120.0,2.0,0.0
301,68.0,120.0,120.0,2.0,0.0
302,56.0,0.0,480.0,5.0,0.0
303,75.0,120.0,120.0,2.0,0.0
304,72.0,120.0,120.0,2.0,0.0
305,70.0,120.0,120.0,2.0,0.0
306,68.0,120.0,120.0,2.0,0.0
307,67.0,120.0,120.0,2.0,0.0
308,68.0,120.0,120.0,2.0,0.0
309,70.0,120.0,120.0,2.0,0.0
310,68.0,240.0,120.0,2.0,0.0
311,66.0,0.0,480.0,5.0,0.0
312,68.0,120.0,120.0,2.0,0.0
313,72.0,120.0,120.0,2.0,0.0
314,68.0,240.0,120.0,2.0,0.0
315,65.0,0.0,480.0,5.0,0.0
316,68.0,120.0,120.0,2.0,0.0
317,73.0,120.0,120.0,2.0,0.0
318,68.0,240.0,120.0,2.0,0.0
319,60.0,0.0,480.0,5.0,0.0
320,68.0,120.0,120.0,2.0,0.0
321,78.0,120.0,120.0,2.0,0.0
322,68.0,240.0,120.0,2.0,0.0
323,61.0,0.0,480.0,5.0,0.0
324,68.0,120.0,120.0,2.0,0.0
325,77.0,120.0,120.0,2.0,0.0
326,68.0,120.0,120.0,2.0,0.0
327,75.0,120.0,120.0,1.0,0.0
328,56.0,0.0,480.0,5.0,0.0
329,80.0,120.0,120.0,1.0,0.0
330,75.0,120.0,120.0,1.0,0.0
331,72.0,120.0,120.0,1.0,0.0
332,68.0,120.0,120.0,1.0,0.0
333,75.0,120.0,120.0,1.0,0.0
334,72.0,120.0,120.0,1.0,0.0
335,68.0,120.0,120.0,1.0,0.0
336,63.0,120.0,120.0,1.0,0.0
337,56.0,120.0,120.0,5.0,0.0
338,68.0,0.0,120.0,1.0,0.0
339,51.0,0.0,120.0,5.0,0.0
340,63.0,120.0,120.0,1.0,0.0
341,48.0,0.0,120.0,5.0,0.0
342,60.0,288.0,120.0,1.0,0.0
343,44.0,0.0,300.0,5.0,0.0
344,56.0,492.0,300.0,1.0,0.0
345,32.0,1560.0,360.0,5.0,0.0
346,60.0,5.0,300.0,2.0,0.0
347,63.0,10.0,300.0,2.0,0.0
348,68.0,45.0,300.0,1.0,0.0
349,49.0,480.0,960.0,5.0,0.0
350,44.0,960.0,480.0,5.0,0.0
351,41.0,480.0,960.0,5.0,0.0
352,44.0,480.0,480.0,5.0,0.0
353,49.0,240.0,960.0,5.0,0.0
354,80.0,240.0,240.0,1.0,0.0
355,80.0,240.0,15.0,1.0,0.0
356,80.0,0.0,15.0,1.0,0.0
357,53.0,240.0,480.0,5.0,0.0
358,80.0,0.0,240.0,1.0,0.0
359,56.0,0.0,960.0,5.0,0.0
360,82.0,240.0,240.0,1.0,0.0
361,80.0,240.0,240.0,1.0,0.0
362,78.0,240.0,240.0,1.0,0.0
363,77.0,240.0,240.0,1.0,0.0
364,75.0,240.0,240.0,1.0,0.0
365,73.0,80.0,240.0,1.0,0.0
366,54.0,480.0,960.0,5.0,0.0
367,73.0,80.0,90.0,1.0,0.0
368,75.0,80.0,90.0,1.0,0.0
369,73.0,240.0,90.0,1.0,0.0
370,72.0,240.0,15.0,1.0,0.0
371,51.0,960.0,480.0,5.0,0.0
372,48.0,480.0,960.0,5.0,0.0
373,51.0,480.0,480.0,5.0,0.0
374,54.0,240.0,960.0,5.0,0.0
375,78.0,240.0,240.0,1.0,0.0
376,78.0,240.0,240.0,1.0,0.0
377,78.0,0.0,240.0,1.0,0.0
378,78.0,240.0,240.0,1.0,0.0
379,60.0,240.0,480.0,5.0,0.0
380,78.0,0.0,240.0,1.0,0.0
381,80.0,240.0,240.0,1.0,0.0
382,63.0,240.0,960.0,5.0,0.0
383,78.0,240.0,240.0,1.0,0.0
384,77.0,240.0,240.0,1.0,0.0
385,75.0,0.0,240.0,1.0,0.0
386,73.0,240.0,240.0,1.0,0.0
387,72.0,360.0,240.0,1.0,0.0
388,65.0,120.0,360.0,4.0,0.0
389,73.0,360.0,480.0,1.0,0.0
390,68.0,0.0,240.0,3.0,0.0
391,65.0,120.0,360.0,4.0,0.0
392,68.0,0.0,240.0,3.0,0.0
393,77.0,240.0,240.0,1.0,0.0
394,75.0,120.0,240.0,1.0,0.0
395,65.0,120.0,360.0,4.0,0.0
396,73.0,0.0,240.0,1.0,0.0
397,68.0,360.0,240.0,3.0,0.0
398,72.0,0.0,480.0,1.0,0.0
399,66.0,120.0,360.0,4.0,0.0
400,68.0,360.0,240.0,3.0,0.0
401,66.0,120.0,360.0,4.0,0.0
402,82.0,240.0,240.0,1.0,0.0
403,68.0,0.0,240.0,3.0,0.0
404,66.0,120.0,360.0,4.0,0.0
405,80.0,120.0,240.0,1.0,0.0
406,68.0,360.0,240.0,3.0,0.0
407,72.0,0.0,240.0,1.0,0.0
408,73.0,360.0,480.0,1.0,0.0
409,65.0,120.0,360.0,4.0,0.0
410,68.0,0.0,240.0,3.0,0.0
411,65.0,120.0,360.0,4.0,0.0
412,77.0,0.0,240.0,1.0,0.0
413,68.0,240.0,240.0,3.0,0.0
414,65.0,120.0,360.0,4.0,0.0
415,75.0,120.0,240.0,1.0,0.0
416,68.0,360.0,240.0,3.0,0.0
417,73.0,0.0,240.0,1.0,0.0
418,66.0,120.0,360.0,4.0,0.0
419,72.0,0.0,480.0,1.0,0.0
420,68.0,360.0,240.0,3.0,0.0
421,66.0,120.0,360.0,4.0,0.0
422,68.0,0.0,240.0,3.0,0.0
423,82.0,240.0,240.0,1.0,0.0
424,66.0,120.0,360.0,4.0,0.0
425,80.0,120.0,240.0,1.0,0.0
426,72.0,0.0,240.0,1.0,0.0
427,68.0,360.0,240.0,3.0,0.0
428,65.0,120.0,360.0,4.0,0.0
429,73.0,0.0,480.0,1.0,0.0
430,68.0,360.0,240.0,3.0,0.0
431,65.0,120.0,360.0,4.0,0.0
432,80.0,240.0,240.0,1.0,0.0
433,68.0,0.0,240.0,3.0,0.0
434,65.0,120.0,360.0,4.0,0.0
435,77.0,120.0,240.0,1.0,0.0
436,75.0,0.0,240.0,1.0,0.0
437,68.0,360.0,240.0,3.0,0.0
438,58.0,0.0,1440.0,5.0,0.0
439,74.0,360.0,480.0,1.0,0.0
440,65.0,120.0,360.0,4.0,0.0
441,68.0,0.0,240.0,3.0,0.0
442,65.0,120.0,360.0,4.0,0.0
443,83.0,0.0,240.0,1.0,0.0
444,68.0,240.0,240.0,3.0,0.0
445,82.0,120.0,240.0,1.0,0.0
446,65.0,120.0,360.0,4.0,0.0
447,74.0,0.0,240.0,1.0,0.0
448,68.0,240.0,240.0,3.0,0.0
449,66.0,240.0,480.0,4.0,0.0
450,77.0,240.0,240.0,1.0,0.0
451,63.0,0.0,480.0,5.0,0.0
452,75.0,0.0,240.0,1.0,0.0
453,80.0,240.0,240.0,1.0,0.0
454,68.0,0.0,960.0,4.0,0.0
455,60.0,0.0,480.0,5.0,0.0
456,79.0,240.0,240.0,1.0,0.0
457,61.0,0.0,480.0,5.0,0.0
458,78.0,240.0,240.0,1.0,0.0
459,77.0,360.0,240.0,1.0,0.0
460,75.0,120.0,360.0,1.0,0.0
461,66.0,480.0,480.0,4.0,0.0
462,54.0,0.0,480.0,5.0,0.0
463,77.0,0.0,120.0,1.0,0.0
464,56.0,120.0,960.0,5.0,0.0
465,73.0,0.0,480.0,1.0,0.0
466,65.0,80.0,480.0,4.0,0.0
467,63.0,0.0,480.0,4.0,0.0
468,72.0,80.0,90.0,1.0,0.0
469,73.0,80.0,90.0,1.0,0.0
470,72.0,120.0,90.0,1.0,0.0
471,70.0,120.0,120.0,1.0,0.0
472,72.0,0.0,120.0,1.0,0.0
473,73.0,120.0,120.0,1.0,0.0
474,61.0,0.0,480.0,5.0,0.0
475,68.0,120.0,120.0,1.0,0.0
476,67.0,120.0,120.0,1.0,0.0
477,68.0,120.0,120.0,1.0,0.0
478,70.0,120.0,120.0,1.0,0.0
479,68.0,120.0,120.0,1.0,0.0
480,67.0,120.0,120.0,1.0,0.0
481,53.0,0.0,240.0,5.0,0.0
482,68.0,120.0,120.0,1.0,0.0
483,51.0,120.0,240.0,5.0,0.0
484,66.0,120.0,120.0,1.0,0.0
485,68.0,0.0,120.0,1.0,0.0
486,65.0,120.0,120.0,1.0,0.0
487,49.0,120.0,240.0,5.0,0.0
488,68.0,0.0,120.0,1.0,0.0
489,63.0,120.0,120.0,1.0,0.0
490,48.0,120.0,480.0,5.0,0.0
491,68.0,120.0,120.0,1.0,0.0
492,67.0,120.0,120.0,1.0,0.0
493,68.0,0.0,120.0,1.0,0.0
494,70.0,120.0,120.0,1.0,0.0
495,68.0,120.0,120.0,1.0,0.0
496,58.0,0.0,240.0,5.0,0.0
497,67.0,120.0,120.0,1.0,0.0
498,68.0,120.0,120.0,1.0,0.0
499,56.0,120.0,240.0,5.0,0.0
500,78.0,120.0,120.0,1.0,0.0
501,68.0,0.0,120.0,1.0,0.0
502,78.0,120.0,120.0,1.0,0.0
503,48.0,0.0,240.0,5.0,0.0
504,68.0,120.0,120.0,1.0,0.0
505,77.0,120.0,120.0,1.0,0.0
506,49.0,0.0,480.0,5.0,0.0
507,68.0,120.0,120.0,1.0,0.0
508,67.0,120.0,120.0,1.0,0.0
509,68.0,120.0,120.0,1.0,0.0
510,70.0,120.0,120.0,1.0,0.0
511,68.0,120.0,120.0,1.0,0.0
512,67.0,120.0,120.0,1.0,0.0
513,53.0,120.0,240.0,5.0,0.0
514,68.0,0.0,120.0,1.0,0.0
515,66.0,120.0,120.0,1.0,0.0
516,51.0,0.0,240.0,5.0,0.0
517,68.0,120.0,120.0,1.0,0.0
518,49.0,120.0,240.0,5.0,0.0
519,65.0,120.0,120.0,1.0,0.0
520,68.0,0.0,120.0,1.0,0.0
521,63.0,120.0,120.0,1.0,0.0
522,48.0,0.0,480.0,5.0,0.0
523,68.0,120.0,120.0,1.0,0.0
524,67.0,120.0,120.0,1.0,0.0
525,68.0,120.0,120.0,1.0,0.0
526,70.0,120.0,120.0,1.0,0.0
527,68.0,120.0,120.0,1.0,0.0
528,67.0,120.0,120.0,1.0,0.0
529,58.0,0.0,240.0,5.0,0.0
530,68.0,120.0,120.0,1.0,0.0
531,78.0,120.0,120.0,1.0,0.0
532,56.0,0.0,240.0,5.0,0.0
533,68.0,120.0,120.0,1.0,0.0
534,48.0,120.0,240.0,5.0,0.0
535,78.0,120.0,120.0,1.0,0.0
536,68.0,0.0,120.0,1.0,0.0
537,77.0,120.0,120.0,1.0,0.0
538,49.0,120.0,480.0,5.0,0.0
539,68.0,120.0,120.0,1.0,0.0
540,67.0,120.0,120.0,1.0,0.0
541,68.0,0.0,120.0,1.0,0.0
542,70.0,120.0,120.0,1.0,0.0
543,68.0,120.0,120.0,1.0,0.0
544,56.0,120.0,240.0,5.0,0.0
545,67.0,120.0,120.0,1.0,0.0
546,68.0,0.0,120.0,1.0,0.0
547,71.0,120.0,120.0,1.0,0.0
548,53.0,120.0,240.0,5.0,0.0
549,68.0,0.0,120.0,1.0,0.0
550,66.0,120.0,120.0,1.0,0.0
551,51.0,0.0,240.0,5.0,0.0
552,68.0,120.0,120.0,1.0,0.0
553,50.0,120.0,480.0,5.0,0.0
554,65.0,120.0,120.0,1.0,0.0
555,70.0,120.0,120.0,1.0,0.0
556,69.0,120.0,120.0,1.0,0.0
557,70.0,0.0,120.0,1.0,0.0
558,72.0,120.0,120.0,1.0,0.0
559,70.0,120.0,120.0,1.0,0.0
560,59.0,0.0,240.0,5.0,0.0
561,69.0,120.0,120.0,1.0,0.0
562,70.0,120.0,120.0,1.0,0.0
563,58.0,120.0,240.0,5.0,0.0
564,80.0,120.0,120.0,1.0,0.0
565,70.0,0.0,120.0,1.0,0.0
566,50.0,0.0,240.0,5.0,0.0
567,80.0,120.0,120.0,1.0,0.0
568,70.0,240.0,120.0,1.0,0.0
569,79.0,0.0,480.0,1.0,0.0
570,51.0,0.0,480.0,5.0,0.0
571,58.0,120.0,120.0,3.0,0.0
572,55.0,120.0,120.0,4.0,0.0
573,58.0,240.0,120.0,3.0,0.0
574,78.0,240.0,480.0,1.0,0.0
575,48.0,0.0,480.0,5.0,0.0
576,57.0,120.0,120.0,3.0,0.0
577,51.0,120.0,120.0,4.0,0.0
578,57.0,0.0,120.0,3.0,0.0
579,49.0,120.0,480.0,5.0,0.0
580,77.0,0.0,480.0,1.0,0.0
581,56.0,120.0,120.0,3.0,0.0
582,53.0,120.0,120.0,4.0,0.0
583,56.0,0.0,120.0,3.0,0.0
584,42.0,0.0,480.0,5.0,0.0
585,54.0,120.0,480.0,4.0,0.0
586,75.0,120.0,120.0,1.0,0.0
587,82.0,120.0,120.0,1.0,0.0
588,78.0,120.0,120.0,1.0,0.0
589,75.0,0.0,120.0,1.0,0.0
590,53.0,120.0,480.0,4.0,0.0
591,44.0,0.0,480.0,5.0,0.0
592,73.0,120.0,120.0,1.0,0.0
593,80.0,120.0,120.0,1.0,0.0
594,77.0,120.0,120.0,1.0,0.0
595,73.0,0.0,120.0,1.0,0.0
596,42.0,120.0,480.0,5.0,0.0
597,72.0,120.0,120.0,1.0,0.0
598,51.0,0.0,480.0,4.0,0.0
599,78.0,120.0,120.0,1.0,0.0
600,75.0,120.0,120.0,1.0,0.0
601,72.0,0.0,120.0,1.0,0.0
602,41.0,0.0,480.0,5.0,0.0
603,73.0,120.0,120.0,1.0,0.0
604,49.0,0.0,480.0,4.0,0.0
605,77.0,120.0,120.0,1.0,0.0
606,80.0,120.0,120.0,1.0,0.0
607,78.0,120.0,120.0,1.0,0.0
608,77.0,120.0,120.0,1.0,0.0
609,75.0,120.0,120.0,1.0,0.0
610,73.0,120.0,120.0,1.0,0.0
611,72.0,120.0,120.0,1.0,0.0
612,56.0,120.0,480.0,4.0,0.0
613,53.0,0.0,480.0,5.0,0.0
614,70.0,120.0,120.0,1.0,0.0
615,68.0,120.0,120.0,1.0,0.0
616,66.0,120.0,120.0,1.0,0.0
617,65.0,0.0,120.0,1.0,0.0
618,63.0,120.0,120.0,1.0,0.0
619,58.0,0.0,480.0,4.0,0.0
620,54.0,120.0,480.0,5.0,0.0
621,66.0,120.0,120.0,1.0,0.0
622,70.0,120.0,120.0,1.0,0.0
623,68.0,0.0,120.0,1.0,0.0
624,66.0,120.0,120.0,1.0,0.0
625,65.0,120.0,120.0,1.0,0.0
626,63.0,120.0,120.0,1.0,0.0
627,61.0,120.0,120.0,1.0,0.0
628,51.0,0.0,480.0,4.0,0.0
629,49.0,0.0,480.0,4.0,0.0
630,46.0,120.0,480.0,5.0,0.0
631,60.0,120.0,120.0,1.0,0.0
632,58.0,120.0,120.0,1.0,0.0
633,56.0,120.0,120.0,1.0,0.0
634,55.0,0.0,120.0,1.0,0.0
635,44.0,0.0,360.0,5.0,0.0
636,56.0,120.0,120.0,1.0,0.0
637,53.0,120.0,120.0,3.0,0.0
638,68.0,120.0,120.0,1.0,0.0
639,49.0,0.0,120.0,3.0,0.0
640,53.0,120.0,120.0,3.0,0.0
641,73.0,120.0,120.0,1.0,0.0
642,44.0,0.0,360.0,5.0,0.0
643,53.0,120.0,120.0,3.0,0.0
644,49.0,120.0,120.0,3.0,0.0
645,77.0,0.0,120.0,1.0,0.0
646,53.0,120.0,120.0,3.0,0.0
647,44.0,0.0,360.0,5.0,0.0
648,80.0,120.0,120.0,1.0,0.0
649,53.0,120.0,120.0,3.0,0.0
650,85.0,0.0,120.0,1.0,0.0
651,49.0,120.0,120.0,3.0,0.0
652,53.0,80.0,120.0,3.0,0.0
653,44.0,0.0,360.0,5.0,0.0
654,75.0,80.0,90.0,1.0,0.0
655,77.0,80.0,90.0,1.0,0.0
656,54.0,80.0,120.0,3.0,0.0
657,75.0,0.0,90.0,1.0,0.0
658,48.0,40.0,120.0,3.0,0.0
659,77.0,40.0,90.0,1.0,0.0
660,75.0,80.0,90.0,1.0,0.0
661,54.0,80.0,120.0,3.0,0.0
662,77.0,0.0,90.0,1.0,0.0
663,75.0,80.0,90.0,1.0,0.0
664,44.0,40.0,360.0,5.0,0.0
665,77.0,80.0,90.0,1.0,0.0
666,54.0,0.0,120.0,3.0,0.0
667,75.0,80.0,90.0,1.0,0.0
668,48.0,0.0,120.0,3.0,0.0
669,77.0,40.0,90.0,1.0,0.0
670,75.0,80.0,90.0,1.0,0.0
671,54.0,0.0,120.0,3.0,0.0
672,77.0,80.0,90.0,1.0,0.0
673,44.0,120.0,360.0,5.0,0.0
674,75.0,80.0,90.0,1.0,0.0
675,77.0,80.0,90.0,1.0,0.0
676,54.0,0.0,120.0,3.0,0.0
677,75.0,120.0,90.0,1.0,0.0
678,73.0,0.0,120.0,1.0,0.0
679,48.0,0.0,120.0,3.0,0.0
680,54.0,0.0,120.0,3.0,0.0
681,75.0,240.0,120.0,1.0,0.0
682,73.0,240.0,480.0,1.0,0.0
683,49.0,240.0,240.0,5.0,0.0
684,53.0,0.0,240.0,5.0,0.0
685,56.0,240.0,240.0,5.0,0.0
686,61.0,240.0,240.0,5.0,0.0
687,60.0,240.0,240.0,5.0,0.0
688,59.0,360.0,240.0,5.0,0.0
689,58.0,120.0,360.0,5.0,0.0
690,78.0,0.0,480.0,1.0,0.0
691,61.0,360.0,240.0,4.0,0.0
692,56.0,120.0,360.0,5.0,0.0
693,80.0,0.0,480.0,1.0,0.0
694,61.0,360.0,240.0,4.0,0.0
695,82.0,0.0,480.0,1.0,0.0
696,54.0,120.0,360.0,5.0,0.0
697,61.0,480.0,240.0,4.0,0.0
698,80.0,120.0,720.0,1.0,0.0
699,53.0,0.0,720.0,5.0,0.0
700,61.0,240.0,240.0,4.0,0.0
701,60.0,0.0,240.0,4.0,0.0
702,61.0,0.0,240.0,4.0,0.0
703,82.0,120.0,120.0,1.0,0.0
704,80.0,120.0,120.0,1.0,0.0
705,54.0,120.0,360.0,5.0,0.0
706,78.0,120.0,120.0,1.0,0.0
707,77.0,120.0,120.0,1.0,0.0
708,63.0,480.0,240.0,4.0,0.0
709,75.0,0.0,120.0,1.0,0.0
710,73.0,0.0,120.0,1.0,0.0
711,77.0,0.0,720.0,1.0,0.0
712,56.0,0.0,480.0,5.0,0.0
713,65.0,240.0,240.0,4.0,0.0
714,61.0,240.0,240.0,4.0,0.0
715,78.0,0.0,240.0,1.0,0.0
716,65.0,360.0,240.0,4.0,0.0
717,56.0,120.0,360.0,5.0,0.0
718,75.0,240.0,480.0,1.0,0.0
719,66.0,0.0,240.0,4.0,0.0
720,73.0,240.0,480.0,1.0,0.0
721,65.0,240.0,240.0,4.0,0.0
722,61.0,0.0,240.0,5.0,0.0
723,60.0,240.0,240.0,5.0,0.0
724,59.0,240.0,240.0,5.0,0.0
725,58.0,240.0,240.0,5.0,0.0
726,57.0,240.0,240.0,5.0,0.0
727,66.0,120.0,240.0,1.0,0.0
728,58.0,120.0,360.0,5.0,0.0
729,78.0,240.0,240.0,1.0,0.0
730,61.0,0.0,240.0,4.0,0.0
731,56.0,120.0,360.0,5.0,0.0
732,68.0,120.0,240.0,1.0,0.0
733,60.0,0.0,240.0,4.0,0.0
734,80.0,240.0,240.0,1.0,0.0
735,70.0,120.0,240.0,1.0,0.0
736,55.0,120.0,360.0,5.0,0.0
737,64.0,0.0,240.0,4.0,0.0
738,82.0,240.0,240.0,1.0,0.0
739,56.0,0.0,720.0,5.0,0.0
740,80.0,120.0,240.0,1.0,0.0
741,82.0,120.0,120.0,1.0,0.0
742,65.0,0.0,240.0,4.0,0.0
743,84.0,120.0,120.0,1.0,0.0
744,85.0,120.0,120.0,1.0,0.0
745,61.0,0.0,240.0,4.0,0.0
746,84.0,120.0,120.0,1.0,0.0
747,82.0,120.0,120.0,1.0,0.0
748,65.0,120.0,240.0,4.0,0.0
749,80.0,0.0,120.0,1.0,0.0
750,78.0,120.0,120.0,1.0,0.0
751,56.0,120.0,360.0,5.0,0.0
752,77.0,120.0,120.0,1.0,0.0
753,75.0,0.0,120.0,1.0,0.0
754,65.0,0.0,240.0,4.0,0.0
755,73.0,480.0,120.0,1.0,0.0
756,56.0,0.0,720.0,5.0,0.0
757,77.0,240.0,720.0,1.0,0.0
758,68.0,240.0,240.0,4.0,0.0
759,65.0,0.0,240.0,4.0,0.0
760,68.0,0.0,240.0,4.0,0.0
761,78.0,360.0,240.0,1.0,0.0
762,56.0,120.0,360.0,5.0,0.0
763,75.0,0.0,480.0,1.0,0.0
764,66.0,240.0,240.0,4.0,0.0
765,73.0,240.0,480.0,1.0,0.0
766,49.0,120.0,120.0,5.0,0.0
767,53.0,120.0,120.0,5.0,0.0
768,56.0,0.0,120.0,5.0,0.0
769,61.0,120.0,360.0,5.0,0.0
770,80.0,120.0,120.0,1.0,0.0
771,82.0,0.0,120.0,1.0,0.0
772,80.0,120.0,120.0,1.0,0.0
773,60.0,120.0,360.0,4.0,0.0
774,56.0,0.0,360.0,5.0,0.0
775,78.0,120.0,120.0,1.0,0.0
776,77.0,120.0,120.0,1.0,0.0
777,78.0,0.0,120.0,1.0,0.0
778,75.0,240.0,120.0,1.0,0.0
779,73.0,0.0,480.0,1.0,0.0
780,37.0,120.0,120.0,5.0,0.0
781,41.0,120.0,120.0,5.0,0.0
782,44.0,240.0,120.0,5.0,0.0
783,49.0,0.0,360.0,5.0,0.0
784,68.0,120.0,120.0,1.0,0.0
785,70.0,120.0,120.0,1.0,0.0
786,68.0,120.0,120.0,1.0,0.0
787,48.0,120.0,360.0,4.0,0.0
788,66.0,120.0,120.0,1.0,0.0
789,44.0,0.0,360.0,5.0,0.0
790,65.0,120.0,120.0,1.0,0.0
791,66.0,0.0,120.0,1.0,0.0
792,63.0,192.0,120.0,1.0,0.0
793,49.0,0.0,180.0,5.0,0.0
794,61.0,648.0,180.0,1.0,0.0
795,68.0,7.0,360.0,2.0,0.0
796,73.0,0.0,360.0,1.0,0.0
797,65.0,0.0,360.0,2.0,0.0
798,37.0,785.0,360.0,5.0,0.0
799,62.0,648.0,180.0,1.0,0.0
800,47.0,0.0,180.0,5.0,0.0
801,74.0,7.0,360.0,1.0,0.0
802,64.0,0.0,360.0,2.0,0.0
803,68.0,0.0,360.0,2.0,0.0
804,35.0,833.0,360.0,5.0,0.0
805,49.0,240.0,240.0,3.0,0.0
806,45.0,240.0,1440.0,5.0,0.0
807,57.0,120.0,960.0,1.0,0.0
808,52.0,240.0,240.0,3.0,0.0
809,49.0,240.0,240.0,3.0,0.0
810,52.0,0.0,240.0,3.0,0.0
811,59.0,120.0,120.0,1.0,0.0
812,49.0,0.0,240.0,3.0,0.0
813,57.0,120.0,120.0,1.0,0.0
814,52.0,0.0,240.0,3.0,0.0
815,56.0,120.0,120.0,1.0,0.0
816,57.0,0.0,120.0,1.0,0.0
817,50.0,0.0,240.0,3.0,0.0
818,44.0,240.0,1440.0,5.0,0.0
819,66.0,240.0,240.0,1.0,0.0
820,52.0,0.0,240.0,3.0,0.0
821,50.0,25.0,240.0,3.0,0.0
822,64.0,240.0,15.0,1.0,0.0
823,52.0,240.0,240.0,3.0,0.0
824,64.0,75.0,420.0,1.0,0.0
825,50.0,165.0,240.0,3.0,0.0
826,52.0,0.0,240.0,3.0,0.0
827,49.0,240.0,240.0,3.0,0.0
828,64.0,0.0,240.0,1.0,0.0
829,45.0,240.0,1440.0,5.0,0.0
830,69.0,240.0,240.0,1.0,0.0
831,52.0,0.0,240.0,3.0,0.0
832,49.0,0.0,240.0,3.0,0.0
833,68.0,240.0,240.0,1.0,0.0
834,67.0,0.0,240.0,1.0,0.0
835,52.0,240.0,240.0,3.0,0.0
836,49.0,240.0,240.0,3.0,0.0
837,66.0,0.0,240.0,1.0,0.0
838,65.0,0.0,240.0,1.0,0.0
839,52.0,0.0,240.0,3.0,0.0
840,50.0,240.0,240.0,3.0,0.0
841,64.0,240.0,480.0,1.0,0.0
842,44.0,0.0,1440.0,5.0,0.0
843,52.0,0.0,240.0,3.0,0.0
844,50.0,240.0,240.0,3.0,0.0
845,52.0,240.0,240.0,3.0,0.0
846,50.0,240.0,240.0,3.0,0.0
847,52.0,240.0,240.0,3.0,0.0
848,45.0,0.0,1440.0,5.0,0.0
849,57.0,0.0,960.0,1.0,0.0
850,49.0,240.0,240.0,3.0,0.0
851,52.0,240.0,240.0,3.0,0.0
852,49.0,240.0,240.0,3.0,0.0
853,52.0,120.0,240.0,3.0,0.0
854,59.0,120.0,120.0,1.0,0.0
855,49.0,0.0,240.0,3.0,0.0
856,57.0,120.0,120.0,1.0,0.0
857,56.0,120.0,120.0,1.0,0.0
858,52.0,0.0,240.0,3.0,0.0
859,57.0,240.0,120.0,1.0,0.0
860,47.0,0.0,240.0,3.0,0.0
861,44.0,0.0,1440.0,5.0,0.0
862,66.0,240.0,240.0,1.0,0.0
863,65.0,240.0,240.0,1.0,0.0
864,50.0,0.0,240.0,3.0,0.0
865,47.0,25.0,240.0,3.0,0.0
866,65.0,215.0,270.0,1.0,0.0
867,50.0,240.0,240.0,3.0,0.0
868,65.0,170.0,300.0,1.0,0.0
869,47.0,70.0,240.0,3.0,0.0
870,50.0,240.0,240.0,3.0,0.0
871,45.0,240.0,1440.0,5.0,0.0
872,49.0,240.0,240.0,3.0,0.0
873,66.0,0.0,240.0,1.0,0.0
874,54.0,240.0,240.0,3.0,0.0
875,73.0,0.0,240.0,1.0,0.0
876,69.0,0.0,240.0,1.0,0.0
877,49.0,240.0,240.0,3.0,0.0
878,68.0,0.0,240.0,1.0,0.0
879,54.0,240.0,240.0,3.0,0.0
880,66.0,0.0,240.0,1.0,0.0
881,49.0,240.0,240.0,3.0,0.0
882,64.0,0.0,240.0,1.0,0.0
883,63.0,240.0,480.0,1.0,0.0
884,54.0,0.0,15.0,3.0,0.0
885,48.0,240.0,1440.0,5.0,0.0
886,57.0,0.0,240.0,3.0,0.0
887,54.0,240.0,240.0,3.0,0.0
888,57.0,240.0,240.0,3.0,0.0
889,54.0,240.0,240.0,3.0,0.0
890,57.0,0.0,240.0,3.0,0.0
891,64.0,240.0,240.0,1.0,0.0
892,52.0,0.0,240.0,3.0,0.0
893,49.0,240.0,1440.0,5.0,0.0
894,76.0,240.0,240.0,1.0,0.0
895,56.0,0.0,240.0,3.0,0.0
896,52.0,240.0,240.0,3.0,0.0
897,73.0,0.0,240.0,1.0,0.0
898,71.0,0.0,240.0,1.0,0.0
899,56.0,240.0,240.0,3.0,0.0
900,52.0,0.0,240.0,3.0,0.0
901,70.0,240.0,240.0,1.0,0.0
902,68.0,0.0,240.0,1.0,0.0
903,56.0,0.0,240.0,3.0,0.0
904,51.0,0.0,1440.0,5.0,0.0
905,67.0,240.0,480.0,1.0,0.0
906,58.0,240.0,240.0,3.0,0.0
907,61.0,0.0,240.0,3.0,0.0
908,58.0,240.0,240.0,3.0,0.0
909,61.0,240.0,240.0,3.0,0.0
910,58.0,240.0,240.0,3.0,0.0
911,61.0,240.0,240.0,3.0,0.0
912,52.0,240.0,1440.0,5.0,0.0
913,56.0,0.0,240.0,3.0,0.0
914,68.0,240.0,240.0,1.0,0.0
915,59.0,240.0,240.0,3.0,0.0
916,83.0,0.0,240.0,1.0,0.0
917,80.0,240.0,240.0,1.0,0.0
918,56.0,0.0,240.0,3.0,0.0
919,59.0,0.0,240.0,3.0,0.0
920,78.0,240.0,240.0,1.0,0.0
921,76.0,0.0,240.0,1.0,0.0
922,56.0,240.0,240.0,3.0,0.0
923,75.0,0.0,240.0,1.0,0.0
924,59.0,0.0,240.0,3.0,0.0
925,53.0,240.0,1440.0,5.0,0.0
926,56.0,240.0,240.0,3.0,0.0
927,74.0,240.0,480.0,1.0,0.0
928,58.0,0.0,240.0,3.0,0.0
929,56.0,240.0,240.0,3.0,0.0
930,58.0,240.0,240.0,3.0,0.0
931,56.0,240.0,240.0,3.0,0.0
932,58.0,0.0,240.0,3.0,0.0
933,75.0,0.0,240.0,1.0,0.0
934,58.0,240.0,240.0,3.0,0.0
935,54.0,0.0,1440.0,5.0,0.0
936,63.0,0.0,240.0,3.0,0.0
937,78.0,240.0,240.0,1.0,0.0
938,58.0,0.0,240.0,3.0,0.0
939,75.0,240.0,240.0,1.0,0.0
940,73.0,240.0,240.0,1.0,0.0
941,63.0,0.0,240.0,3.0,0.0
942,71.0,0.0,240.0,1.0,0.0
943,58.0,240.0,240.0,3.0,0.0
944,70.0,0.0,240.0,1.0,0.0
945,63.0,240.0,15.0,3.0,0.0
946,69.0,0.0,480.0,1.0,0.0
947,59.0,240.0,1440.0,5.0,0.0
948,65.0,240.0,240.0,3.0,0.0
949,63.0,240.0,240.0,3.0,0.0
950,65.0,240.0,240.0,3.0,0.0
951,63.0,240.0,240.0,3.0,0.0
952,65.0,0.0,240.0,3.0,0.0
953,58.0,120.0,480.0,5.0,0.0
954,62.0,0.0,480.0,3.0,0.0
955,70.0,120.0,120.0,2.0,0.0
956,69.0,120.0,120.0,2.0,0.0
957,70.0,0.0,120.0,2.0,0.0
958,72.0,120.0,120.0,2.0,0.0
959,70.0,120.0,120.0,2.0,0.0
960,69.0,120.0,120.0,2.0,0.0
961,70.0,240.0,120.0,2.0,0.0
962,68.0,240.0,480.0,5.0,0.0
963,70.0,120.0,120.0,2.0,0.0
964,74.0,120.0,120.0,2.0,0.0
965,70.0,0.0,120.0,2.0,0.0
966,66.0,240.0,480.0,5.0,0.0
967,70.0,120.0,120.0,2.0,0.0
968,75.0,120.0,120.0,2.0,0.0
969,70.0,0.0,120.0,2.0,0.0
970,62.0,0.0,480.0,5.0,0.0
971,70.0,120.0,120.0,2.0,0.0
972,80.0,120.0,120.0,2.0,0.0
973,70.0,240.0,120.0,2.0,0.0
974,63.0,0.0,480.0,5.0,0.0
975,70.0,120.0,120.0,2.0,0.0
976,78.0,120.0,120.0,2.0,0.0
977,70.0,120.0,120.0,2.0,0.0
978,58.0,120.0,480.0,5.0,0.0
979,77.0,120.0,120.0,2.0,0.0
980,74.0,120.0,120.0,2.0,0.0
981,72.0,120.0,120.0,2.0,0.0
982,70.0,0.0,120.0,2.0,0.0
983,69.0,120.0,120.0,2.0,0.0
984,70.0,120.0,120.0,2.0,0.0
985,72.0,120.0,120.0,2.0,0.0
986,70.0,240.0,120.0,2.0,0.0
987,68.0,240.0,480.0,5.0,0.0
988,70.0,120.0,120.0,2.0,0.0
989,74.0,120.0,120.0,2.0,0.0
990,70.0,0.0,120.0,2.0,0.0
991,66.0,0.0,480.0,5.0,0.0
992,70.0,120.0,120.0,2.0,0.0
993,75.0,120.0,120.0,2.0,0.0
994,70.0,240.0,120.0,2.0,0.0
995,62.0,240.0,480.0,5.0,0.0
996,70.0,120.0,120.0,2.0,0.0
997,80.0,120.0,120.0,2.0,0.0
998,70.0,0.0,120.0,2.0,0.0
999,63.0,120.0,480.0,5.0,0.0
1000,70.0,120.0,120.0,2.0,0.0
1001,78.0,120.0,120.0,2.0,0.0
1002,70.0,0.0,120.0,2.0,0.0
1003,77.0,120.0,120.0,1.0,0.0
1004,58.0,0.0,480.0,5.0,0.0
1005,82.0,120.0,120.0,1.0,0.0
1006,77.0,120.0,120.0,1.0,0.0
1007,74.0,120.0,120.0,1.0,0.0
1008,70.0,120.0,120.0,1.0,0.0
1009,77.0,120.0,120.0,1.0,0.0
1010,74.0,120.0,120.0,1.0,0.0
1011,70.0,120.0,120.0,1.0,0.0
1012,65.0,120.0,120.0,1.0,0.0
1013,70.0,0.0,120.0,1.0,0.0
1014,58.0,120.0,120.0,5.0,0.0
1015,53.0,120.0,120.0,5.0,0.0
1016,65.0,0.0,120.0,1.0,0.0
1017,50.0,240.0,120.0,5.0,0.0
1018,62.0,0.0,120.0,1.0,0.0
1019,58.0,600.0,240.0,1.0,0.0
1020,46.0,0.0,240.0,5.0,0.0
1021,70.0,1553.0,360.0,1.0,0.0
1022,34.0,7.0,360.0,5.0,0.0
1023,62.0,0.0,360.0,2.0,0.0
1024,65.0,0.0,360.0,2.0,0.0
1025,51.0,480.0,960.0,5.0,0.0
1026,46.0,960.0,480.0,5.0,0.0
1027,43.0,480.0,960.0,5.0,0.0
1028,46.0,480.0,480.0,5.0,0.0
1029,51.0,0.0,960.0,5.0,0.0
1030,82.0,240.0,240.0,1.0,0.0
1031,82.0,240.0,240.0,1.0,0.0
1032,82.0,240.0,240.0,1.0,0.0
1033,55.0,0.0,480.0,5.0,0.0
1034,82.0,240.0,240.0,1.0,0.0
1035,82.0,240.0,240.0,1.0,0.0
1036,58.0,0.0,480.0,5.0,0.0
1037,83.0,240.0,240.0,1.0,0.0
1038,82.0,240.0,240.0,1.0,0.0
1039,80.0,240.0,240.0,1.0,0.0
1040,79.0,240.0,240.0,1.0,0.0
1041,76.0,240.0,240.0,1.0,0.0
1042,75.0,80.0,240.0,1.0,0.0
1043,75.0,80.0,90.0,1.0,0.0
1044,51.0,0.0,960.0,5.0,0.0
1045,76.0,80.0,90.0,1.0,0.0
1046,75.0,240.0,90.0,1.0,0.0
1047,73.0,480.0,240.0,1.0,0.0
1048,73.0,480.0,480.0,1.0,0.0
1049,46.0,960.0,480.0,5.0,0.0
1050,43.0,480.0,960.0,5.0,0.0
1051,46.0,480.0,480.0,5.0,0.0
1052,51.0,0.0,960.0,5.0,0.0
1053,73.0,240.0,240.0,1.0,0.0
1054,73.0,240.0,240.0,1.0,0.0
1055,73.0,240.0,240.0,1.0,0.0
1056,55.0,0.0,480.0,5.0,0.0
1057,73.0,240.0,15.0,1.0,0.0
1058,58.0,240.0,480.0,5.0,0.0
1059,75.0,240.0,240.0,1.0,0.0
1060,73.0,0.0,240.0,1.0,0.0
1061,71.0,240.0,240.0,1.0,0.0
1062,70.0,240.0,240.0,1.0,0.0
1063,68.0,240.0,240.0,1.0,0.0
1064,67.0,960.0,240.0,1.0,0.0
1065,68.0,480.0,960.0,1.0,0.0
1066,63.0,960.0,480.0,1.0,0.0
1067,59.0,480.0,960.0,1.0,0.0
1068,63.0,480.0,480.0,1.0,0.0
1069,68.0,0.0,960.0,1.0,0.0
1070,63.0,240.0,240.0,5.0,0.0
1071,63.0,240.0,15.0,5.0,0.0
1072,71.0,0.0,480.0,1.0,0.0
1073,63.0,240.0,15.0,5.0,0.0
1074,75.0,240.0,480.0,1.0,0.0
1075,64.0,240.0,240.0,5.0,0.0
1076,63.0,0.0,240.0,5.0,0.0
1077,61.0,240.0,240.0,5.0,0.0
1078,59.0,240.0,240.0,5.0,0.0
1079,58.0,240.0,240.0,5.0,0.0
1080,56.0,240.0,15.0,5.0,0.0
1081,72.0,0.0,960.0,1.0,0.0
1082,54.0,480.0,240.0,5.0,0.0
1083,54.0,480.0,480.0,5.0,0.0
1084,68.0,960.0,480.0,1.0,0.0
1085,63.0,480.0,960.0,1.0,0.0
1086,68.0,480.0,480.0,1.0,0.0
1087,72.0,0.0,960.0,1.0,0.0
1088,54.0,240.0,15.0,5.0,0.0
1089,54.0,240.0,240.0,5.0,0.0
1090,75.0,0.0,480.0,1.0,0.0
1091,54.0,240.0,15.0,5.0,0.0
1092,56.0,240.0,240.0,5.0,0.0
1093,78.0,0.0,480.0,1.0,0.0
1094,54.0,240.0,240.0,5.0,0.0
1095,52.0,240.0,240.0,5.0,0.0
1096,51.0,240.0,240.0,5.0,0.0
1097,49.0,240.0,240.0,5.0,0.0
1098,48.0,480.0,240.0,5.0,0.0
1099,49.0,240.0,480.0,5.0,0.0
1100,76.0,0.0,240.0,1.0,0.0
1101,76.0,240.0,15.0,1.0,0.0
1102,76.0,240.0,15.0,1.0,0.0
1103,76.0,240.0,15.0,1.0,0.0
1104,78.0,240.0,240.0,1.0,0.0
1105,58.0,0.0,480.0,4.0,0.0
1106,54.0,0.0,1440.0,5.0,0.0
1107,61.0,240.0,480.0,4.0,0.0
1108,76.0,0.0,240.0,1.0,0.0
1109,75.0,240.0,240.0,1.0,0.0
1110,59.0,240.0,480.0,4.0,0.0
1111,63.0,0.0,480.0,4.0,0.0
1112,73.0,0.0,240.0,1.0,0.0
1113,61.0,0.0,480.0,4.0,0.0
1114,64.0,480.0,480.0,4.0,0.0
1115,71.0,240.0,240.0,1.0,0.0
1116,70.0,0.0,240.0,1.0,0.0
1117,63.0,0.0,480.0,4.0,0.0
1118,59.0,240.0,480.0,4.0,0.0
1119,75.0,0.0,15.0,1.0,0.0
1120,75.0,240.0,240.0,1.0,0.0
1121,75.0,240.0,15.0,1.0,0.0
1122,52.0,480.0,1440.0,5.0,0.0
1123,59.0,0.0,480.0,4.0,0.0
1124,56.0,0.0,480.0,4.0,0.0
1125,76.0,240.0,240.0,1.0,0.0
1126,75.0,240.0,240.0,1.0,0.0
1127,58.0,0.0,480.0,4.0,0.0
1128,61.0,240.0,480.0,4.0,0.0
1129,73.0,240.0,240.0,1.0,0.0
1130,71.0,0.0,240.0,1.0,0.0
1131,70.0,240.0,240.0,1.0,0.0
1132,63.0,0.0,480.0,4.0,0.0
1133,59.0,0.0,480.0,4.0,0.0
1134,68.0,0.0,240.0,1.0,0.0
1135,61.0,0.0,480.0,4.0,0.0
1136,58.0,0.0,480.0,4.0,0.0
1137,73.0,240.0,15.0,1.0,0.0
1138,73.0,240.0,240.0,1.0,0.0
1139,73.0,240.0,15.0,1.0,0.0
1140,51.0,0.0,1440.0,5.0,0.0
1141,55.0,0.0,480.0,4.0,0.0
1142,58.0,0.0,480.0,4.0,0.0
1143,75.0,240.0,240.0,1.0,0.0
1144,73.0,240.0,240.0,1.0,0.0
1145,56.0,240.0,480.0,4.0,0.0
1146,59.0,0.0,480.0,4.0,0.0
1147,71.0,240.0,240.0,1.0,0.0
1148,70.0,0.0,240.0,1.0,0.0
1149,58.0,0.0,480.0,4.0,0.0
1150,68.0,240.0,240.0,1.0,0.0
1151,61.0,240.0,480.0,4.0,0.0
1152,67.0,0.0,240.0,1.0,0.0
1153,56.0,0.0,480.0,4.0,0.0
1154,73.0,240.0,240.0,1.0,0.0
1155,59.0,240.0,480.0,4.0,0.0
1156,71.0,0.0,240.0,1.0,0.0
1157,70.0,240.0,240.0,1.0,0.0
1158,68.0,240.0,240.0,1.0,0.0
1159,59.0,0.0,480.0,4.0,0.0
1160,66.0,240.0,240.0,1.0,0.0
1161,49.0,240.0,480.0,5.0,0.0
1162,65.0,0.0,240.0,1.0,0.0
1163,80.0,240.0,240.0,1.0,0.0
1164,58.0,0.0,480.0,4.0,0.0
1165,51.0,240.0,480.0,5.0,0.0
1166,78.0,0.0,240.0,1.0,0.0
1167,77.0,240.0,240.0,1.0,0.0
1168,75.0,240.0,240.0,1.0,0.0
1169,73.0,240.0,240.0,1.0,0.0
1170,63.0,0.0,480.0,5.0,0.0
1171,66.0,0.0,480.0,4.0,0.0
1172,72.0,480.0,240.0,1.0,0.0
1173,73.0,240.0,480.0,1.0,0.0
1174,61.0,0.0,240.0,5.0,0.0
1175,61.0,240.0,15.0,5.0,0.0
1176,61.0,240.0,15.0,5.0,0.0
1177,71.0,0.0,480.0,1.0,0.0
1178,65.0,0.0,480.0,2.0,0.0
1179,61.0,240.0,240.0,5.0,0.0
1180,69.0,0.0,480.0,1.0,0.0
1181,62.0,240.0,240.0,5.0,0.0
1182,66.0,240.0,480.0,2.0,0.0
1183,61.0,0.0,240.0,5.0,0.0
1184,59.0,240.0,240.0,5.0,0.0
1185,57.0,240.0,240.0,5.0,0.0
1186,69.0,0.0,480.0,2.0,0.0
1187,78.0,0.0,480.0,1.0,0.0
1188,56.0,240.0,240.0,5.0,0.0
1189,54.0,480.0,240.0,5.0,0.0
1190,77.0,0.0,480.0,1.0,0.0
1191,68.0,240.0,480.0,2.0,0.0
1192,49.0,0.0,240.0,5.0,0.0
1193,49.0,240.0,15.0,5.0,0.0
1194,49.0,240.0,15.0,5.0,0.0
1195,59.0,240.0,480.0,2.0,0.0
1196,65.0,0.0,480.0,1.0,0.0
1197,49.0,240.0,15.0,5.0,0.0
1198,50.0,240.0,240.0,5.0,0.0
1199,66.0,0.0,480.0,1.0,0.0
1200,57.0,240.0,480.0,2.0,0.0
1201,49.0,0.0,240.0,5.0,0.0
1202,47.0,240.0,240.0,5.0,0.0
1203,45.0,240.0,240.0,5.0,0.0
1204,57.0,0.0,480.0,1.0,0.0
1205,54.0,240.0,480.0,2.0,0.0
1206,44.0,240.0,240.0,5.0,0.0
1207,42.0,0.0,240.0,5.0,0.0
1208,37.0,0.0,480.0,5.0,0.0
1209,53.0,0.0,480.0,2.0,0.0
1210,56.0,240.0,240.0,1.0,0.0
1211,61.0,240.0,15.0,1.0,0.0
1212,61.0,240.0,15.0,1.0,0.0
1213,61.0,240.0,240.0,1.0,0.0
1214,61.0,240.0,240.0,1.0,0.0
1215,60.0,240.0,240.0,1.0,0.0
1216,49.0,0.0,3360.0,5.0,0.0
1217,53.0,240.0,3360.0,4.0,0.0
1218,61.0,240.0,240.0,1.0,0.0
1219,63.0,240.0,240.0,1.0,0.0
1220,61.0,240.0,240.0,1.0,0.0
1221,66.0,240.0,240.0,1.0,0.0
1222,65.0,240.0,240.0,1.0,0.0
1223,70.0,240.0,240.0,1.0,0.0
1224,68.0,240.0,240.0,1.0,0.0
1225,71.0,240.0,240.0,1.0,0.0
1226,70.0,240.0,240.0,1.0,0.0
1227,75.0,240.0,240.0,1.0,0.0
1228,73.0,480.0,240.0,1.0,0.0
1229,73.0,240.0,720.0,1.0,0.0
1230,72.0,240.0,240.0,1.0,0.0
1231,71.0,240.0,240.0,1.0,0.0
1232,68.0,960.0,240.0,1.0,0.0
1233,54.0,0.0,960.0,5.0,0.0
1234,66.0,480.0,960.0,1.0,0.0
1235,49.0,960.0,480.0,5.0,0.0
1236,61.0,0.0,480.0,1.0,0.0
1237,58.0,0.0,960.0,1.0,0.0
1238,46.0,480.0,960.0,5.0,0.0
1239,49.0,0.0,480.0,5.0,0.0
1240,61.0,960.0,480.0,1.0,0.0
1241,54.0,0.0,960.0,5.0,0.0
1242,66.0,480.0,960.0,1.0,0.0
1243,58.0,0.0,480.0,5.0,0.0
1244,70.0,614.0,480.0,1.0,0.0
1245,73.0,586.0,600.0,1.0,0.0
1246,61.0,0.0,600.0,5.0,0.0
1247,78.0,240.0,240.0,1.0,0.0
1248,70.0,240.0,240.0,1.0,0.0
1249,59.0,0.0,2880.0,4.0,0.0
1250,49.0,5.0,2880.0,5.0,0.0
1251,56.0,115.0,2880.0,4.0,0.0
1252,73.0,240.0,240.0,1.0,0.0
1253,71.0,240.0,240.0,1.0,0.0
1254,70.0,240.0,240.0,1.0,0.0
1255,68.0,240.0,240.0,1.0,0.0
1256,66.0,240.0,240.0,1.0,0.0
1257,65.0,240.0,240.0,1.0,0.0
1258,63.0,240.0,240.0,1.0,0.0
1259,61.0,240.0,240.0,1.0,0.0
1260,60.0,240.0,240.0,1.0,0.0
1261,61.0,240.0,240.0,1.0,0.0
1262,63.0,240.0,240.0,1.0,0.0
1263,65.0,0.0,240.0,1.0,0.0
1264,66.0,180.0,120.0,1.0,0.0
1265,54.0,0.0,480.0,5.0,0.0
1266,58.0,120.0,480.0,4.0,0.0
1267,68.0,60.0,60.0,1.0,0.0
1268,66.0,120.0,60.0,1.0,0.0
1269,65.0,0.0,120.0,1.0,0.0
1270,66.0,240.0,120.0,1.0,0.0
1271,68.0,240.0,120.0,1.0,0.0
1272,70.0,240.0,120.0,1.0,0.0
1273,71.0,360.0,120.0,1.0,0.0
1274,72.0,240.0,240.0,1.0,0.0
1275,73.0,240.0,240.0,1.0,0.0
1276,75.0,240.0,240.0,1.0,0.0
1277,73.0,240.0,240.0,1.0,0.0
1278,78.0,240.0,240.0,1.0,0.0
1279,70.0,240.0,240.0,1.0,0.0
1280,59.0,177.0,2880.0,4.0,0.0
1281,49.0,0.0,2880.0,5.0,0.0
1282,56.0,15.0,2880.0,4.0,0.0
1283,73.0,240.0,240.0,1.0,0.0
1284,71.0,240.0,240.0,1.0,0.0
1285,70.0,240.0,240.0,1.0,0.0
1286,68.0,240.0,240.0,1.0,0.0
1287,66.0,240.0,240.0,1.0,0.0
1288,65.0,240.0,240.0,1.0,0.0
1289,63.0,240.0,240.0,1.0,0.0
1290,61.0,240.0,240.0,1.0,0.0
1291,60.0,240.0,240.0,1.0,0.0
1292,61.0,240.0,240.0,1.0,0.0
1293,63.0,225.0,240.0,1.0,0.0
1294,65.0,15.0,240.0,1.0,0.0
1295,66.0,0.0,180.0,1.0,0.0
1296,58.0,0.0,180.0,4.0,0.0
1297,54.0,480.0,180.0,5.0,0.0
1298,54.0,0.0,180.0,5.0,0.0
1299,66.0,480.0,180.0,1.0,0.0
1300,58.0,0.0,180.0,4.0,0.0
1301,54.0,0.0,180.0,5.0,0.0
1302,61.0,0.0,180.0,4.0,0.0
1303,70.0,768.0,180.0,1.0,0.0
1304,58.0,0.0,480.0,4.0,0.0
1305,54.0,0.0,480.0,5.0,0.0
1306,66.0,440.0,480.0,1.0,0.0
1307,66.0,160.0,90.0,1.0,0.0
1308,68.0,120.0,120.0,1.0,0.0
1309,66.0,120.0,120.0,1.0,0.0
1310,65.0,120.0,120.0,1.0,0.0
1311,66.0,480.0,120.0,1.0,0.0
1312,75.0,440.0,480.0,1.0,0.0
1313,51.0,0.0,480.0,4.0,0.0
1314,47.0,0.0,480.0,5.0,0.0
1315,54.0,120.0,480.0,4.0,0.0
1316,66.0,40.0,90.0,1.0,0.0
1317,68.0,120.0,120.0,1.0,0.0
1318,66.0,120.0,120.0,1.0,0.0
1319,65.0,120.0,120.0,1.0,0.0
1320,66.0,480.0,120.0,1.0,0.0
1321,73.0,440.0,480.0,1.0,0.0
1322,46.0,0.0,480.0,5.0,0.0
1323,49.0,0.0,480.0,4.0,0.0
1324,54.0,120.0,480.0,4.0,0.0
1325,66.0,40.0,90.0,1.0,0.0
1326,68.0,120.0,120.0,1.0,0.0
1327,66.0,120.0,120.0,1.0,0.0
1328,65.0,120.0,120.0,1.0,0.0
1329,66.0,480.0,120.0,1.0,0.0
1330,61.0,247.0,1920.0,4.0,0.0
1331,68.0,240.0,480.0,1.0,0.0
1332,53.0,480.0,1440.0,5.0,0.0
1333,73.0,480.0,240.0,1.0,0.0
1334,71.0,240.0,240.0,1.0,0.0
1335,69.0,0.0,480.0,1.0,0.0
1336,54.0,0.0,480.0,5.0,0.0
1337,70.0,193.0,240.0,1.0,0.0
1338,66.0,160.0,90.0,1.0,0.0
1339,68.0,120.0,120.0,1.0,0.0
1340,66.0,120.0,120.0,1.0,0.0
1341,65.0,120.0,120.0,1.0,0.0
1342,66.0,480.0,120.0,1.0,0.0
1343,75.0,440.0,480.0,1.0,0.0
1344,47.0,0.0,480.0,5.0,0.0
1345,51.0,0.0,480.0,4.0,0.0
1346,54.0,120.0,480.0,4.0,0.0
1347,66.0,40.0,90.0,1.0,0.0
1348,68.0,120.0,120.0,1.0,0.0
1349,66.0,120.0,120.0,1.0,0.0
1350,65.0,120.0,120.0,1.0,0.0
1351,66.0,480.0,120.0,1.0,0.0
1352,73.0,440.0,480.0,1.0,0.0
1353,54.0,0.0,480.0,4.0,0.0
1354,49.0,0.0,480.0,4.0,0.0
1355,46.0,120.0,480.0,5.0,0.0
1356,66.0,40.0,90.0,1.0,0.0
1357,68.0,120.0,120.0,1.0,0.0
1358,66.0,120.0,120.0,1.0,0.0
1359,65.0,120.0,120.0,1.0,0.0
1360,66.0,480.0,120.0,1.0,0.0
1361,49.0,480.0,1440.0,5.0,0.0
1362,68.0,240.0,480.0,1.0,0.0
1363,53.0,0.0,480.0,4.0,0.0
1364,56.0,240.0,480.0,4.0,0.0
1365,71.0,240.0,240.0,1.0,0.0
1366,65.0,240.0,240.0,1.0,0.0
1367,59.0,0.0,480.0,4.0,0.0
1368,66.0,0.0,480.0,1.0,0.0
1369,58.0,0.0,480.0,4.0,0.0
1370,54.0,1152.0,480.0,5.0,0.0
1371,75.0,655.0,180.0,1.0,0.0
1372,70.0,0.0,180.0,2.0,0.0
1373,66.0,0.0,180.0,2.0,0.0
1374,51.0,0.0,180.0,5.0,0.0
1375,39.0,0.0,360.0,5.0,0.0
1376,63.0,785.0,360.0,1.0,0.0
1377,65.0,0.0,180.0,2.0,0.0
1378,62.0,648.0,180.0,2.0,0.0
1379,70.0,0.0,180.0,1.0,0.0
1380,46.0,0.0,180.0,5.0,0.0
1381,58.0,0.0,360.0,1.0,0.0
1382,34.0,840.0,360.0,5.0,0.0
1383,59.0,0.0,960.0,1.0,0.0
1384,51.0,240.0,240.0,3.0,0.0
1385,47.0,0.0,1440.0,5.0,0.0
1386,54.0,240.0,240.0,3.0,0.0
1387,51.0,240.0,240.0,3.0,0.0
1388,54.0,120.0,240.0,3.0,0.0
1389,61.0,120.0,120.0,1.0,0.0
1390,51.0,0.0,240.0,3.0,0.0
1391,59.0,120.0,120.0,1.0,0.0
1392,58.0,120.0,120.0,1.0,0.0
1393,54.0,240.0,240.0,3.0,0.0
1394,59.0,0.0,120.0,1.0,0.0
1395,68.0,0.0,240.0,1.0,0.0
1396,46.0,0.0,1440.0,5.0,0.0
1397,52.0,240.0,240.0,3.0,0.0
1398,54.0,206.0,240.0,3.0,0.0
1399,66.0,0.0,240.0,1.0,0.0
1400,66.0,34.0,210.0,1.0,0.0
1401,52.0,240.0,240.0,3.0,0.0
1402,54.0,240.0,240.0,3.0,0.0
1403,52.0,70.0,240.0,3.0,0.0
1404,66.0,170.0,300.0,1.0,0.0
1405,54.0,240.0,240.0,3.0,0.0
1406,66.0,0.0,240.0,1.0,0.0
1407,47.0,0.0,1440.0,5.0,0.0
1408,51.0,240.0,240.0,3.0,0.0
1409,71.0,0.0,240.0,1.0,0.0
1410,54.0,240.0,240.0,3.0,0.0
1411,51.0,0.0,240.0,3.0,0.0
1412,70.0,240.0,240.0,1.0,0.0
1413,69.0,0.0,240.0,1.0,0.0
1414,54.0,240.0,240.0,3.0,0.0
1415,68.0,240.0,240.0,1.0,0.0
1416,51.0,0.0,240.0,3.0,0.0
1417,67.0,240.0,240.0,1.0,0.0
1418,54.0,0.0,240.0,3.0,0.0
1419,52.0,240.0,240.0,3.0,0.0
1420,46.0,240.0,1440.0,5.0,0.0
1421,66.0,0.0,480.0,1.0,0.0
1422,54.0,240.0,240.0,3.0,0.0
1423,52.0,240.0,240.0,3.0,0.0
1424,54.0,240.0,240.0,3.0,0.0
1425,52.0,240.0,240.0,3.0,0.0
1426,54.0,0.0,240.0,3.0,0.0
1427,51.0,240.0,240.0,3.0,0.0
1428,47.0,0.0,1440.0,5.0,0.0
1429,59.0,120.0,960.0,1.0,0.0
1430,54.0,240.0,240.0,3.0,0.0
1431,51.0,240.0,240.0,3.0,0.0
1432,54.0,0.0,240.0,3.0,0.0
1433,51.0,0.0,240.0,3.0,0.0
1434,61.0,120.0,120.0,1.0,0.0
1435,59.0,120.0,120.0,1.0,0.0
1436,54.0,0.0,240.0,3.0,0.0
1437,58.0,120.0,120.0,1.0,0.0
1438,59.0,240.0,120.0,1.0,0.0
1439,68.0,0.0,240.0,1.0,0.0
1440,49.0,240.0,240.0,3.0,0.0
1441,46.0,240.0,1440.0,5.0,0.0
1442,67.0,206.0,240.0,1.0,0.0
1443,52.0,0.0,240.0,3.0,0.0
1444,49.0,240.0,240.0,3.0,0.0
1445,67.0,34.0,210.0,1.0,0.0
1446,52.0,240.0,240.0,3.0,0.0
1447,49.0,70.0,240.0,3.0,0.0
1448,67.0,170.0,300.0,1.0,0.0
1449,52.0,0.0,240.0,3.0,0.0
1450,51.0,240.0,240.0,3.0,0.0
1451,47.0,0.0,1440.0,5.0,0.0
1452,68.0,0.0,240.0,1.0,0.0
1453,56.0,240.0,240.0,3.0,0.0
1454,75.0,0.0,240.0,1.0,0.0
1455,71.0,0.0,240.0,1.0,0.0
1456,51.0,240.0,240.0,3.0,0.0
1457,70.0,240.0,240.0,1.0,0.0
1458,56.0,0.0,240.0,3.0,0.0
1459,51.0,240.0,240.0,3.0,0.0
1460,68.0,0.0,240.0,1.0,0.0
1461,66.0,0.0,240.0,1.0,0.0
1462,65.0,0.0,480.0,1.0,0.0
1463,50.0,0.0,1440.0,5.0,0.0
1464,56.0,240.0,15.0,3.0,0.0
1465,59.0,240.0,240.0,3.0,0.0
1466,56.0,240.0,240.0,3.0,0.0
1467,59.0,240.0,240.0,3.0,0.0
1468,56.0,240.0,240.0,3.0,0.0
1469,59.0,240.0,240.0,3.0,0.0
1470,66.0,240.0,240.0,1.0,0.0
1471,51.0,0.0,1440.0,5.0,0.0
1472,54.0,0.0,240.0,3.0,0.0
1473,58.0,240.0,240.0,3.0,0.0
1474,82.0,0.0,240.0,1.0,0.0
1475,78.0,0.0,240.0,1.0,0.0
1476,54.0,240.0,240.0,3.0,0.0
1477,77.0,240.0,240.0,1.0,0.0
1478,58.0,0.0,240.0,3.0,0.0
1479,75.0,240.0,240.0,1.0,0.0
1480,54.0,0.0,240.0,3.0,0.0
1481,58.0,240.0,240.0,3.0,0.0
1482,73.0,0.0,240.0,1.0,0.0
1483,63.0,240.0,240.0,3.0,0.0
1484,56.0,0.0,1440.0,5.0,0.0
1485,72.0,240.0,480.0,1.0,0.0
1486,66.0,0.0,240.0,3.0,0.0
1487,63.0,240.0,240.0,3.0,0.0
1488,66.0,240.0,240.0,3.0,0.0
1489,63.0,240.0,240.0,3.0,0.0
1490,66.0,240.0,240.0,3.0,0.0
1491,65.0,0.0,480.0,3.0,0.0
1492,61.0,0.0,480.0,5.0,0.0
1493,73.0,120.0,120.0,2.0,0.0
1494,72.0,120.0,120.0,2.0,0.0
1495,73.0,120.0,120.0,2.0,0.0
1496,75.0,120.0,120.0,2.0,0.0
1497,73.0,120.0,120.0,2.0,0.0
1498,72.0,120.0,120.0,2.0,0.0
1499,73.0,240.0,120.0,2.0,0.0
1500,71.0,15.0,480.0,5.0,0.0
1501,73.0,120.0,120.0,2.0,0.0
1502,77.0,105.0,120.0,2.0,0.0
1503,73.0,240.0,120.0,2.0,0.0
1504,70.0,240.0,480.0,5.0,0.0
1505,73.0,120.0,120.0,2.0,0.0
1506,78.0,120.0,120.0,2.0,0.0
1507,73.0,0.0,120.0,2.0,0.0
1508,65.0,240.0,480.0,5.0,0.0
1509,73.0,120.0,120.0,2.0,0.0
1510,83.0,120.0,120.0,2.0,0.0
1511,73.0,0.0,120.0,2.0,0.0
1512,66.0,0.0,480.0,5.0,0.0
1513,73.0,120.0,120.0,2.0,0.0
1514,82.0,120.0,120.0,2.0,0.0
1515,73.0,120.0,120.0,2.0,0.0
1516,80.0,120.0,120.0,2.0,0.0
1517,61.0,0.0,480.0,5.0,0.0
1518,77.0,120.0,120.0,2.0,0.0
1519,75.0,120.0,120.0,2.0,0.0
1520,73.0,120.0,120.0,2.0,0.0
1521,72.0,120.0,120.0,2.0,0.0
1522,73.0,120.0,120.0,2.0,0.0
1523,75.0,120.0,120.0,2.0,0.0
1524,73.0,240.0,120.0,2.0,0.0
1525,71.0,0.0,480.0,5.0,0.0
1526,73.0,120.0,120.0,2.0,0.0
1527,77.0,120.0,120.0,2.0,0.0
1528,73.0,240.0,120.0,2.0,0.0
1529,70.0,240.0,480.0,5.0,0.0
1530,73.0,120.0,120.0,2.0,0.0
1531,78.0,120.0,120.0,2.0,0.0
1532,73.0,0.0,120.0,2.0,0.0
1533,65.0,0.0,480.0,5.0,0.0
1534,73.0,120.0,120.0,2.0,0.0
1535,83.0,120.0,120.0,2.0,0.0
1536,73.0,240.0,120.0,2.0,0.0
1537,66.0,120.0,480.0,5.0,0.0
1538,73.0,120.0,120.0,2.0,0.0
1539,82.0,120.0,120.0,2.0,0.0
1540,73.0,0.0,120.0,2.0,0.0
1541,80.0,120.0,120.0,1.0,0.0
1542,61.0,0.0,480.0,5.0,0.0
1543,85.0,120.0,120.0,1.0,0.0
1544,80.0,120.0,120.0,1.0,0.0
1545,77.0,120.0,120.0,1.0,0.0
1546,73.0,120.0,120.0,1.0,0.0
1547,80.0,120.0,120.0,1.0,0.0
1548,77.0,120.0,120.0,1.0,0.0
1549,73.0,120.0,120.0,1.0,0.0
1550,68.0,120.0,120.0,1.0,0.0
1551,73.0,120.0,120.0,1.0,0.0
1552,61.0,0.0,120.0,5.0,0.0
1553,68.0,0.0,120.0,1.0,0.0
1554,56.0,120.0,120.0,5.0,0.0
1555,65.0,0.0,120.0,1.0,0.0
1556,53.0,240.0,120.0,5.0,0.0
1557,61.0,0.0,240.0,1.0,0.0
1558,49.0,607.0,240.0,5.0,0.0
1559,73.0,0.0,360.0,1.0,0.0
1560,37.0,1553.0,360.0,5.0,0.0
1561,54.0,480.0,960.0,5.0,0.0
1562,49.0,960.0,480.0,5.0,0.0
1563,46.0,480.0,960.0,5.0,0.0
1564,49.0,480.0,480.0,5.0,0.0
1565,54.0,240.0,960.0,5.0,0.0
1566,73.0,240.0,240.0,1.0,0.0
1567,73.0,240.0,240.0,1.0,0.0
1568,73.0,0.0,240.0,1.0,0.0
1569,58.0,240.0,480.0,5.0,0.0
1570,73.0,240.0,240.0,1.0,0.0
1571,73.0,0.0,240.0,1.0,0.0
1572,61.0,0.0,480.0,5.0,0.0
1573,75.0,240.0,240.0,1.0,0.0
1574,73.0,240.0,240.0,1.0,0.0
1575,71.0,240.0,240.0,1.0,0.0
1576,70.0,240.0,240.0,1.0,0.0
1577,68.0,240.0,240.0,1.0,0.0
1578,66.0,80.0,240.0,1.0,0.0
1579,47.0,480.0,960.0,5.0,0.0
1580,66.0,80.0,90.0,1.0,0.0
1581,68.0,80.0,90.0,1.0,0.0
1582,66.0,240.0,90.0,1.0,0.0
1583,65.0,480.0,240.0,1.0,0.0
1584,65.0,0.0,480.0,1.0,0.0
1585,44.0,960.0,480.0,5.0,0.0
1586,41.0,480.0,960.0,5.0,0.0
1587,44.0,480.0,480.0,5.0,0.0
1588,47.0,240.0,960.0,5.0,0.0
1589,71.0,240.0,15.0,1.0,0.0
1590,71.0,240.0,15.0,1.0,0.0
1591,53.0,0.0,480.0,5.0,0.0
1592,71.0,0.0,15.0,1.0,0.0
1593,71.0,240.0,15.0,1.0,0.0
1594,73.0,240.0,240.0,1.0,0.0
1595,56.0,0.0,480.0,5.0,0.0
1596,71.0,240.0,240.0,1.0,0.0
1597,70.0,240.0,240.0,1.0,0.0
1598,68.0,240.0,240.0,1.0,0.0
1599,66.0,240.0,240.0,1.0,0.0
1600,65.0,360.0,240.0,1.0,0.0
1601,58.0,120.0,360.0,4.0,0.0
1602,66.0,0.0,480.0,1.0,0.0
1603,61.0,360.0,240.0,3.0,0.0
1604,58.0,120.0,360.0,4.0,0.0
1605,61.0,0.0,240.0,3.0,0.0
1606,70.0,240.0,240.0,1.0,0.0
1607,68.0,120.0,240.0,1.0,0.0
1608,58.0,120.0,360.0,4.0,0.0
1609,61.0,360.0,240.0,3.0,0.0
1610,66.0,0.0,240.0,1.0,0.0
1611,59.0,120.0,360.0,4.0,0.0
1612,65.0,360.0,480.0,1.0,0.0
1613,61.0,0.0,240.0,3.0,0.0
1614,59.0,120.0,360.0,4.0,0.0
1615,61.0,0.0,240.0,3.0,0.0
1616,75.0,240.0,240.0,1.0,0.0
1617,73.0,120.0,240.0,1.0,0.0
1618,59.0,120.0,360.0,4.0,0.0
1619,61.0,0.0,240.0,3.0,0.0
1620,65.0,360.0,240.0,1.0,0.0
1621,58.0,120.0,360.0,4.0,0.0
1622,66.0,360.0,480.0,1.0,0.0
1623,61.0,0.0,240.0,3.0,0.0
1624,58.0,120.0,360.0,4.0,0.0
1625,70.0,240.0,240.0,1.0,0.0
1626,61.0,0.0,240.0,3.0,0.0
1627,58.0,120.0,360.0,4.0,0.0
1628,68.0,120.0,240.0,1.0,0.0
1629,61.0,360.0,240.0,3.0,0.0
1630,66.0,0.0,240.0,1.0,0.0
1631,65.0,360.0,480.0,1.0,0.0
1632,59.0,120.0,360.0,4.0,0.0
1633,61.0,0.0,240.0,3.0,0.0
1634,59.0,120.0,360.0,4.0,0.0
1635,61.0,0.0,240.0,3.0,0.0
1636,74.0,240.0,240.0,1.0,0.0
1637,59.0,120.0,360.0,4.0,0.0
1638,73.0,120.0,240.0,1.0,0.0
1639,61.0,360.0,240.0,3.0,0.0
1640,65.0,0.0,240.0,1.0,0.0
1641,57.0,120.0,360.0,4.0,0.0
1642,66.0,360.0,480.0,1.0,0.0
1643,61.0,0.0,240.0,3.0,0.0
1644,57.0,120.0,360.0,4.0,0.0
1645,61.0,0.0,240.0,3.0,0.0
1646,73.0,240.0,240.0,1.0,0.0
1647,69.0,120.0,240.0,1.0,0.0
1648,57.0,120.0,360.0,4.0,0.0
1649,68.0,360.0,240.0,1.0,0.0
1650,61.0,0.0,240.0,3.0,0.0
1651,58.0,120.0,360.0,4.0,0.0
1652,51.0,240.0,1440.0,5.0,0.0
1653,67.0,0.0,480.0,1.0,0.0
1654,61.0,360.0,240.0,3.0,0.0
1655,58.0,120.0,360.0,4.0,0.0
1656,76.0,0.0,240.0,1.0,0.0
1657,61.0,240.0,240.0,3.0,0.0
1658,75.0,120.0,240.0,1.0,0.0
1659,58.0,120.0,360.0,4.0,0.0
1660,67.0,0.0,240.0,1.0,0.0
1661,61.0,0.0,240.0,3.0,0.0
1662,56.0,0.0,480.0,5.0,0.0
1663,59.0,0.0,480.0,4.0,0.0
1664,70.0,240.0,240.0,1.0,0.0
1665,68.0,240.0,240.0,1.0,0.0
1666,73.0,240.0,240.0,1.0,0.0
1667,61.0,0.0,960.0,4.0,0.0
1668,53.0,0.0,480.0,5.0,0.0
1669,72.0,240.0,240.0,1.0,0.0
1670,54.0,360.0,480.0,5.0,0.0
1671,71.0,240.0,240.0,1.0,0.0
1672,70.0,0.0,240.0,1.0,0.0
1673,59.0,0.0,480.0,4.0,0.0
1674,68.0,120.0,360.0,1.0,0.0
1675,47.0,480.0,480.0,5.0,0.0
1676,70.0,0.0,120.0,1.0,0.0
1677,58.0,80.0,480.0,4.0,0.0
1678,66.0,0.0,480.0,1.0,0.0
1679,49.0,0.0,960.0,5.0,0.0
1680,56.0,120.0,480.0,4.0,0.0
1681,65.0,80.0,90.0,1.0,0.0
1682,66.0,80.0,90.0,1.0,0.0
1683,65.0,120.0,90.0,1.0,0.0
1684,63.0,120.0,120.0,1.0,0.0
1685,65.0,0.0,120.0,1.0,0.0
1686,66.0,120.0,120.0,1.0,0.0
1687,54.0,0.0,480.0,5.0,0.0
1688,61.0,120.0,120.0,1.0,0.0
1689,60.0,120.0,120.0,1.0,0.0
1690,61.0,120.0,120.0,1.0,0.0
1691,63.0,120.0,120.0,1.0,0.0
1692,61.0,120.0,120.0,1.0,0.0
1693,60.0,120.0,120.0,1.0,0.0
1694,46.0,120.0,240.0,5.0,0.0
1695,61.0,0.0,120.0,1.0,0.0
1696,59.0,120.0,120.0,1.0,0.0
1697,44.0,0.0,240.0,5.0,0.0
1698,61.0,120.0,120.0,1.0,0.0
1699,42.0,120.0,240.0,5.0,0.0
1700,58.0,120.0,120.0,1.0,0.0
1701,61.0,0.0,120.0,1.0,0.0
1702,56.0,120.0,120.0,1.0,0.0
1703,41.0,120.0,480.0,5.0,0.0
1704,61.0,120.0,120.0,1.0,0.0
1705,60.0,120.0,120.0,1.0,0.0
1706,61.0,0.0,120.0,1.0,0.0
1707,63.0,120.0,120.0,1.0,0.0
1708,61.0,120.0,120.0,1.0,0.0
1709,60.0,120.0,120.0,1.0,0.0
1710,51.0,120.0,240.0,5.0,0.0
1711,61.0,0.0,120.0,1.0,0.0
1712,71.0,120.0,120.0,1.0,0.0
1713,49.0,0.0,240.0,5.0,0.0
1714,61.0,120.0,120.0,1.0,0.0
1715,41.0,0.0,240.0,5.0,0.0
1716,71.0,120.0,120.0,1.0,0.0
1717,61.0,120.0,120.0,1.0,0.0
1718,70.0,120.0,120.0,1.0,0.0
1719,42.0,0.0,480.0,5.0,0.0
1720,73.0,120.0,120.0,1.0,0.0
1721,72.0,120.0,120.0,1.0,0.0
1722,73.0,120.0,120.0,1.0,0.0
1723,75.0,120.0,120.0,1.0,0.0
1724,73.0,120.0,120.0,1.0,0.0
1725,72.0,120.0,120.0,1.0,0.0
1726,58.0,120.0,240.0,5.0,0.0
1727,73.0,0.0,120.0,1.0,0.0
1728,71.0,120.0,120.0,1.0,0.0
1729,56.0,0.0,240.0,5.0,0.0
1730,73.0,120.0,120.0,1.0,0.0
1731,70.0,120.0,120.0,1.0,0.0
1732,54.0,120.0,240.0,5.0,0.0
1733,73.0,0.0,120.0,1.0,0.0
1734,53.0,120.0,480.0,5.0,0.0
1735,68.0,120.0,120.0,1.0,0.0
1736,73.0,120.0,120.0,1.0,0.0
1737,72.0,120.0,120.0,1.0,0.0
1738,73.0,0.0,120.0,1.0,0.0
1739,75.0,120.0,120.0,1.0,0.0
1740,73.0,120.0,120.0,1.0,0.0
1741,63.0,0.0,240.0,5.0,0.0
1742,72.0,120.0,120.0,1.0,0.0
1743,73.0,120.0,120.0,1.0,0.0
1744,61.0,0.0,240.0,5.0,0.0
1745,83.0,120.0,120.0,1.0,0.0
1746,73.0,120.0,120.0,1.0,0.0
1747,83.0,120.0,120.0,1.0,0.0
1748,53.0,0.0,240.0,5.0,0.0
1749,73.0,120.0,120.0,1.0,0.0
1750,54.0,0.0,480.0,5.0,0.0
1751,82.0,120.0,120.0,1.0,0.0
1752,73.0,120.0,120.0,1.0,0.0
1753,72.0,120.0,120.0,1.0,0.0
1754,73.0,120.0,120.0,1.0,0.0
1755,75.0,120.0,120.0,1.0,0.0
1756,73.0,120.0,120.0,1.0,0.0
1757,72.0,120.0,120.0,1.0,0.0
1758,61.0,0.0,240.0,5.0,0.0
1759,73.0,120.0,120.0,1.0,0.0
1760,58.0,0.0,240.0,5.0,0.0
1761,76.0,120.0,120.0,1.0,0.0
1762,73.0,120.0,120.0,1.0,0.0
1763,56.0,0.0,240.0,5.0,0.0
1764,71.0,120.0,120.0,1.0,0.0
1765,73.0,120.0,120.0,1.0,0.0
1766,70.0,120.0,120.0,1.0,0.0
1767,55.0,0.0,480.0,5.0,0.0
1768,75.0,120.0,120.0,1.0,0.0
1769,74.0,120.0,120.0,1.0,0.0
1770,75.0,120.0,120.0,1.0,0.0
1771,77.0,120.0,120.0,1.0,0.0
1772,75.0,120.0,120.0,1.0,0.0
1773,64.0,120.0,240.0,5.0,0.0
1774,74.0,120.0,120.0,1.0,0.0
1775,75.0,0.0,120.0,1.0,0.0
1776,85.0,120.0,120.0,1.0,0.0
1777,63.0,0.0,240.0,5.0,0.0
1778,75.0,120.0,120.0,1.0,0.0
1779,55.0,0.0,240.0,5.0,0.0
1780,85.0,120.0,120.0,1.0,0.0
1781,75.0,240.0,120.0,1.0,0.0
1782,56.0,120.0,240.0,5.0,0.0
1783,84.0,0.0,480.0,1.0,0.0
1784,63.0,0.0,120.0,4.0,0.0
1785,60.0,120.0,120.0,4.0,0.0
1786,63.0,240.0,120.0,4.0,0.0
1787,83.0,0.0,480.0,1.0,0.0
1788,53.0,0.0,240.0,5.0,0.0
1789,62.0,120.0,120.0,4.0,0.0
1790,59.0,120.0,120.0,4.0,0.0
1791,62.0,240.0,120.0,4.0,0.0
1792,54.0,0.0,240.0,5.0,0.0
1793,61.0,120.0,120.0,4.0,0.0
1794,58.0,120.0,120.0,4.0,0.0
1795,61.0,0.0,120.0,4.0,0.0
1796,82.0,120.0,15.0,1.0,0.0
1797,59.0,0.0,480.0,4.0,0.0
1798,51.0,0.0,480.0,5.0,0.0
1799,80.0,120.0,120.0,1.0,0.0
1800,83.0,120.0,120.0,1.0,0.0
1801,80.0,120.0,120.0,1.0,0.0
1802,58.0,120.0,480.0,4.0,0.0
1803,49.0,0.0,480.0,5.0,0.0
1804,80.0,120.0,120.0,1.0,0.0
1805,78.0,120.0,120.0,1.0,0.0
1806,82.0,120.0,120.0,1.0,0.0
1807,78.0,0.0,120.0,1.0,0.0
1808,78.0,120.0,120.0,1.0,0.0
1809,47.0,120.0,480.0,5.0,0.0
1810,56.0,0.0,480.0,4.0,0.0
1811,77.0,120.0,120.0,1.0,0.0
1812,80.0,120.0,120.0,1.0,0.0
1813,77.0,0.0,120.0,1.0,0.0
1814,54.0,120.0,480.0,4.0,0.0
1815,46.0,0.0,480.0,5.0,0.0
1816,78.0,120.0,120.0,1.0,0.0
1817,82.0,120.0,120.0,1.0,0.0
1818,85.0,120.0,120.0,1.0,0.0
1819,83.0,0.0,120.0,1.0,0.0
1820,82.0,120.0,120.0,1.0,0.0
1821,80.0,120.0,120.0,1.0,0.0
1822,78.0,120.0,120.0,1.0,0.0
1823,77.0,120.0,120.0,1.0,0.0
1824,58.0,120.0,480.0,5.0,0.0
1825,75.0,120.0,120.0,1.0,0.0
1826,61.0,0.0,480.0,4.0,0.0
1827,73.0,120.0,120.0,1.0,0.0
1828,71.0,120.0,120.0,1.0,0.0
1829,70.0,0.0,120.0,1.0,0.0
1830,68.0,120.0,120.0,1.0,0.0
1831,63.0,0.0,480.0,4.0,0.0
1832,59.0,0.0,480.0,5.0,0.0
1833,71.0,120.0,120.0,1.0,0.0
1834,75.0,120.0,120.0,1.0,0.0
1835,73.0,120.0,120.0,1.0,0.0
1836,71.0,120.0,120.0,1.0,0.0
1837,70.0,120.0,120.0,1.0,0.0
1838,68.0,120.0,120.0,1.0,0.0
1839,66.0,120.0,120.0,1.0,0.0
1840,56.0,0.0,480.0,4.0,0.0
1841,51.0,120.0,480.0,5.0,0.0
1842,65.0,120.0,120.0,1.0,0.0
1843,54.0,0.0,480.0,4.0,0.0
1844,63.0,120.0,120.0,1.0,0.0
1845,61.0,120.0,120.0,1.0,0.0
1846,60.0,0.0,120.0,1.0,0.0
1847,61.0,120.0,120.0,1.0,0.0
1848,49.0,0.0,360.0,5.0,0.0
1849,58.0,120.0,120.0,4.0,0.0
1850,66.0,120.0,120.0,1.0,0.0
1851,54.0,0.0,120.0,4.0,0.0
1852,58.0,120.0,120.0,4.0,0.0
1853,49.0,0.0,360.0,5.0,0.0
1854,70.0,120.0,120.0,1.0,0.0
1855,58.0,120.0,120.0,4.0,0.0
1856,54.0,0.0,120.0,4.0,0.0
1857,73.0,120.0,120.0,1.0,0.0
1858,58.0,120.0,120.0,4.0,0.0
1859,49.0,0.0,360.0,5.0,0.0
1860,78.0,120.0,120.0,1.0,0.0
1861,58.0,120.0,120.0,4.0,0.0
1862,54.0,0.0,120.0,4.0,0.0
1863,82.0,120.0,120.0,1.0,0.0
1864,58.0,80.0,120.0,4.0,0.0
1865,49.0,0.0,360.0,5.0,0.0
1866,68.0,80.0,90.0,2.0,0.0
1867,70.0,80.0,90.0,2.0,0.0
1868,59.0,80.0,120.0,4.0,0.0
1869,68.0,0.0,90.0,2.0,0.0
1870,70.0,40.0,90.0,2.0,0.0
1871,53.0,40.0,120.0,4.0,0.0
1872,68.0,80.0,90.0,2.0,0.0
1873,59.0,0.0,120.0,4.0,0.0
1874,70.0,80.0,90.0,2.0,0.0
1875,49.0,40.0,360.0,5.0,0.0
1876,68.0,80.0,90.0,2.0,0.0
1877,70.0,80.0,90.0,2.0,0.0
1878,59.0,80.0,120.0,4.0,0.0
1879,68.0,0.0,90.0,2.0,0.0
1880,70.0,40.0,90.0,2.0,0.0
1881,53.0,0.0,120.0,4.0,0.0
1882,68.0,80.0,90.0,2.0,0.0
1883,59.0,0.0,120.0,4.0,0.0
1884,70.0,80.0,90.0,2.0,0.0
1885,68.0,80.0,90.0,2.0,0.0
1886,49.0,120.0,360.0,5.0,0.0
1887,70.0,80.0,90.0,2.0,0.0
1888,59.0,120.0,120.0,4.0,0.0
1889,68.0,0.0,90.0,2.0,0.0
1890,66.0,0.0,120.0,2.0,0.0
1891,53.0,0.0,120.0,4.0,0.0
1892,68.0,240.0,120.0,2.0,0.0
1893,59.0,0.0,120.0,4.0,0.0
1894,54.0,240.0,240.0,5.0,0.0
1895,66.0,0.0,480.0,1.0,0.0
1896,58.0,240.0,240.0,5.0,0.0
1897,61.0,240.0,240.0,5.0,0.0
1898,66.0,240.0,240.0,5.0,0.0
1899,65.0,240.0,240.0,5.0,0.0
1900,64.0,360.0,240.0,5.0,0.0
1901,71.0,360.0,480.0,1.0,0.0
1902,63.0,120.0,360.0,5.0,0.0
1903,66.0,0.0,240.0,4.0,0.0
1904,61.0,120.0,360.0,5.0,0.0
1905,73.0,360.0,480.0,1.0,0.0
1906,66.0,0.0,240.0,4.0,0.0
1907,59.0,120.0,360.0,5.0,0.0
1908,75.0,480.0,480.0,1.0,0.0
1909,66.0,0.0,240.0,4.0,0.0
1910,58.0,240.0,480.0,5.0,0.0
1911,73.0,120.0,720.0,1.0,0.0
1912,66.0,0.0,240.0,4.0,0.0
1913,65.0,0.0,240.0,4.0,0.0
1914,75.0,120.0,120.0,1.0,0.0
1915,66.0,120.0,240.0,4.0,0.0
1916,73.0,0.0,120.0,1.0,0.0
1917,71.0,120.0,120.0,1.0,0.0
1918,51.0,120.0,360.0,5.0,0.0
1919,70.0,120.0,120.0,1.0,0.0
1920,68.0,0.0,120.0,1.0,0.0
1921,59.0,0.0,240.0,4.0,0.0
1922,66.0,480.0,120.0,1.0,0.0
1923,49.0,0.0,720.0,5.0,0.0
1924,70.0,120.0,720.0,1.0,0.0
1925,58.0,240.0,240.0,4.0,0.0
1926,54.0,120.0,360.0,4.0,0.0
1927,58.0,360.0,240.0,4.0,0.0
1928,71.0,0.0,240.0,1.0,0.0
1929,68.0,0.0,480.0,1.0,0.0
1930,49.0,120.0,360.0,5.0,0.0
1931,59.0,240.0,240.0,4.0,0.0
1932,66.0,0.0,480.0,1.0,0.0
1933,58.0,240.0,240.0,4.0,0.0
1934,54.0,240.0,240.0,5.0,0.0
1935,53.0,240.0,240.0,5.0,0.0
1936,52.0,240.0,240.0,5.0,0.0
1937,51.0,240.0,240.0,5.0,0.0
1938,50.0,240.0,240.0,5.0,0.0
1939,59.0,120.0,240.0,1.0,0.0
1940,51.0,120.0,360.0,5.0,0.0
1941,71.0,240.0,240.0,1.0,0.0
1942,61.0,120.0,240.0,1.0,0.0
1943,49.0,120.0,360.0,5.0,0.0
1944,73.0,240.0,240.0,1.0,0.0
1945,48.0,120.0,360.0,5.0,0.0
1946,63.0,120.0,240.0,1.0,0.0
1947,57.0,15.0,240.0,4.0,0.0
1948,75.0,240.0,240.0,1.0,0.0
1949,49.0,120.0,720.0,5.0,0.0
1950,73.0,105.0,240.0,1.0,0.0
1951,75.0,120.0,120.0,1.0,0.0
1952,58.0,120.0,240.0,4.0,0.0
1953,77.0,0.0,120.0,1.0,0.0
1954,78.0,120.0,120.0,1.0,0.0
1955,54.0,120.0,360.0,4.0,0.0
1956,77.0,0.0,120.0,1.0,0.0
1957,58.0,0.0,240.0,4.0,0.0
1958,75.0,0.0,120.0,1.0,0.0
1959,73.0,120.0,120.0,1.0,0.0
1960,71.0,120.0,120.0,1.0,0.0
1961,49.0,0.0,360.0,5.0,0.0
1962,70.0,120.0,120.0,1.0,0.0
1963,68.0,120.0,120.0,1.0,0.0
1964,58.0,480.0,240.0,4.0,0.0
1965,66.0,0.0,120.0,1.0,0.0
1966,49.0,0.0,720.0,5.0,0.0
1967,70.0,0.0,720.0,1.0,0.0
1968,61.0,240.0,240.0,4.0,0.0
1969,58.0,240.0,240.0,4.0,0.0
1970,61.0,360.0,240.0,4.0,0.0
1971,71.0,0.0,240.0,1.0,0.0
1972,49.0,120.0,360.0,5.0,0.0
1973,68.0,240.0,480.0,1.0,0.0
1974,59.0,0.0,240.0,4.0,0.0
1975,66.0,0.0,480.0,1.0,0.0
1976,54.0,120.0,120.0,5.0,0.0
1977,58.0,120.0,120.0,5.0,0.0
1978,61.0,240.0,120.0,5.0,0.0
1979,66.0,0.0,360.0,5.0,0.0
1980,73.0,120.0,120.0,1.0,0.0
1981,75.0,120.0,120.0,1.0,0.0
1982,73.0,120.0,120.0,1.0,0.0
1983,71.0,120.0,120.0,1.0,0.0
1984,49.0,0.0,360.0,5.0,0.0
1985,53.0,120.0,360.0,4.0,0.0
1986,70.0,120.0,120.0,1.0,0.0
1987,71.0,0.0,120.0,1.0,0.0
1988,68.0,240.0,120.0,1.0,0.0
1989,66.0,0.0,240.0,1.0,0.0
1990,42.0,120.0,120.0,5.0,0.0
1991,46.0,120.0,120.0,5.0,0.0
1992,49.0,240.0,120.0,5.0,0.0
1993,54.0,0.0,360.0,5.0,0.0
1994,61.0,120.0,120.0,1.0,0.0
1995,63.0,120.0,120.0,1.0,0.0
1996,61.0,120.0,120.0,1.0,0.0
1997,37.0,0.0,360.0,5.0,0.0
1998,41.0,0.0,360.0,4.0,0.0
1999,59.0,120.0,120.0,1.0,0.0
2000,58.0,120.0,120.0,1.0,0.0
2001,59.0,120.0,120.0,1.0,0.0
2002,56.0,240.0,120.0,1.0,0.0
2003,54.0,120.0,240.0,1.0,0.0
2004,42.0,480.0,360.0,5.0,0.0
2005,73.0,0.0,360.0,2.0,0.0
2006,70.0,0.0,360.0,2.0,0.0
2007,78.0,0.0,360.0,1.0,0.0
2008,30.0,2520.0,360.0,5.0,0.0
2009,35.0,0.0,480.0,5.0,0.0
2010,47.0,240.0,480.0,5.0,0.0
2011,63.0,0.0,480.0,2.0,0.0
2012,66.0,0.0,480.0,1.0,0.0
2013,63.0,0.0,240.0,1.0,0.0
2014,59.0,240.0,240.0,2.0,0.0
2015,42.0,0.0,240.0,5.0,0.0
2016,54.0,216.0,240.0,2.0,0.0
2017,61.0,0.0,240.0,1.0,0.0
2018,59.0,264.0,210.0,1.0,0.0
2019,47.0,240.0,480.0,5.0,0.0
2020,51.0,0.0,210.0,2.0,0.0
2021,54.0,0.0,240.0,1.0,0.0
2022,59.0,240.0,240.0,1.0,0.0
2023,58.0,0.0,240.0,2.0,0.0
2024,42.0,240.0,240.0,5.0,0.0
2025,61.0,0.0,240.0,1.0,0.0
2026,63.0,0.0,240.0,1.0,0.0
2027,47.0,240.0,240.0,5.0,0.0
2028,44.0,0.0,240.0,5.0,0.0
2029,64.0,240.0,240.0,1.0,0.0
2030,39.0,240.0,240.0,5.0,0.0
2031,66.0,0.0,240.0,1.0,0.0
2032,68.0,0.0,240.0,1.0,0.0
2033,40.0,360.0,240.0,5.0,0.0
2034,59.0,0.0,15.0,2.0,0.0
2035,63.0,120.0,360.0,1.0,0.0
2036,42.0,120.0,720.0,5.0,0.0
2037,64.0,120.0,120.0,1.0,0.0
2038,58.0,0.0,480.0,2.0,0.0
2039,61.0,120.0,120.0,1.0,0.0
2040,63.0,0.0,120.0,1.0,0.0
2041,64.0,120.0,120.0,1.0,0.0
2042,65.0,480.0,120.0,1.0,0.0
2043,63.0,240.0,480.0,5.0,0.0
2044,66.0,0.0,960.0,2.0,0.0
2045,78.0,0.0,480.0,1.0,0.0
2046,75.0,240.0,240.0,1.0,0.0
2047,59.0,0.0,240.0,5.0,0.0
2048,54.0,190.0,240.0,5.0,0.0
2049,73.0,0.0,240.0,1.0,0.0
2050,71.0,240.0,180.0,1.0,0.0
2051,51.0,0.0,180.0,5.0,0.0
2052,66.0,0.0,180.0,2.0,0.0
2053,70.0,240.0,180.0,2.0,0.0
2054,54.0,0.0,180.0,5.0,0.0
2055,73.0,0.0,180.0,1.0,0.0
2056,75.0,0.0,180.0,1.0,0.0
2057,71.0,0.0,180.0,2.0,0.0
2058,59.0,240.0,180.0,5.0,0.0
2059,56.0,290.0,180.0,5.0,0.0
2060,76.0,0.0,180.0,1.0,0.0
2061,71.0,0.0,180.0,2.0,0.0
2062,71.0,60.0,240.0,2.0,0.0
2063,78.0,0.0,240.0,1.0,0.0
2064,51.0,0.0,240.0,5.0,0.0
2065,61.0,240.0,240.0,4.0,0.0
2066,52.0,0.0,240.0,5.0,0.0
2067,79.0,60.0,60.0,1.0,0.0
2068,80.0,60.0,60.0,1.0,0.0
2069,76.0,60.0,60.0,1.0,0.0
2070,73.0,0.0,60.0,1.0,0.0
2071,54.0,0.0,480.0,5.0,0.0
2072,63.0,0.0,240.0,4.0,0.0
2073,71.0,60.0,240.0,1.0,0.0
2074,64.0,0.0,240.0,4.0,0.0
2075,75.0,60.0,60.0,1.0,0.0
2076,73.0,60.0,60.0,1.0,0.0
2077,72.0,60.0,60.0,1.0,0.0
2078,73.0,480.0,60.0,1.0,0.0
2079,70.0,0.0,480.0,2.0,0.0
2080,64.0,0.0,480.0,4.0,0.0
2081,73.0,0.0,480.0,1.0,0.0
2082,63.0,0.0,240.0,4.0,0.0
2083,59.0,240.0,15.0,5.0,0.0
2084,71.0,0.0,240.0,1.0,0.0
2085,47.0,0.0,480.0,5.0,0.0
2086,35.0,240.0,480.0,5.0,0.0
2087,63.0,0.0,480.0,2.0,0.0
2088,66.0,0.0,480.0,1.0,0.0
2089,63.0,0.0,240.0,1.0,0.0
2090,59.0,240.0,240.0,2.0,0.0
2091,54.0,0.0,240.0,2.0,0.0
2092,61.0,216.0,240.0,1.0,0.0
2093,42.0,0.0,240.0,5.0,0.0
2094,47.0,0.0,480.0,5.0,0.0
2095,51.0,0.0,210.0,2.0,0.0
2096,59.0,264.0,210.0,1.0,0.0
2097,54.0,240.0,240.0,1.0,0.0
2098,59.0,240.0,240.0,1.0,0.0
2099,42.0,0.0,240.0,5.0,0.0
2100,58.0,240.0,240.0,2.0,0.0
2101,61.0,0.0,240.0,1.0,0.0
2102,47.0,0.0,240.0,5.0,0.0
2103,63.0,240.0,240.0,1.0,0.0
2104,44.0,0.0,240.0,5.0,0.0
2105,64.0,240.0,240.0,1.0,0.0
2106,66.0,0.0,240.0,1.0,0.0
2107,39.0,240.0,240.0,5.0,0.0
2108,68.0,0.0,240.0,1.0,0.0
2109,40.0,0.0,240.0,5.0,0.0
2110,42.0,120.0,720.0,5.0,0.0
2111,63.0,120.0,360.0,1.0,0.0
2112,59.0,360.0,15.0,2.0,0.0
2113,64.0,120.0,120.0,1.0,0.0
2114,58.0,480.0,480.0,2.0,0.0
2115,61.0,120.0,120.0,1.0,0.0
2116,63.0,0.0,120.0,1.0,0.0
2117,64.0,120.0,120.0,1.0,0.0
2118,65.0,0.0,120.0,1.0,0.0
2119,66.0,0.0,960.0,2.0,0.0
2120,63.0,0.0,480.0,5.0,0.0
2121,78.0,240.0,480.0,1.0,0.0
2122,59.0,240.0,240.0,5.0,0.0
2123,75.0,0.0,240.0,1.0,0.0
2124,54.0,0.0,240.0,5.0,0.0
2125,73.0,190.0,240.0,1.0,0.0
2126,51.0,240.0,180.0,5.0,0.0
2127,66.0,0.0,180.0,2.0,0.0
2128,71.0,0.0,180.0,1.0,0.0
2129,54.0,240.0,180.0,5.0,0.0
2130,73.0,0.0,180.0,1.0,0.0
2131,70.0,0.0,180.0,2.0,0.0
2132,59.0,0.0,180.0,5.0,0.0
2133,71.0,0.0,180.0,2.0,0.0
2134,75.0,240.0,180.0,1.0,0.0
2135,71.0,0.0,180.0,2.0,0.0
2136,56.0,290.0,180.0,5.0,0.0
2137,76.0,0.0,180.0,1.0,0.0
2138,78.0,0.0,240.0,1.0,0.0
2139,51.0,0.0,240.0,5.0,0.0
2140,71.0,60.0,240.0,2.0,0.0
2141,61.0,0.0,240.0,4.0,0.0
2142,79.0,60.0,60.0,1.0,0.0
2143,52.0,0.0,240.0,5.0,0.0
2144,80.0,60.0,60.0,1.0,0.0
2145,76.0,60.0,60.0,1.0,0.0
2146,73.0,240.0,60.0,1.0,0.0
2147,63.0,0.0,240.0,4.0,0.0
2148,54.0,480.0,480.0,5.0,0.0
2149,71.0,60.0,240.0,1.0,0.0
2150,75.0,60.0,60.0,1.0,0.0
2151,64.0,0.0,240.0,4.0,0.0
2152,73.0,60.0,60.0,1.0,0.0
2153,72.0,60.0,60.0,1.0,0.0
2154,73.0,0.0,60.0,1.0,0.0
2155,59.0,0.0,480.0,5.0,0.0
2156,64.0,0.0,480.0,4.0,0.0
2157,73.0,240.0,480.0,1.0,0.0
2158,70.0,0.0,480.0,2.0,0.0
2159,63.0,0.0,240.0,4.0,0.0
2160,71.0,0.0,240.0,1.0,0.0
2161,59.0,480.0,240.0,5.0,0.0
2162,58.0,240.0,240.0,5.0,0.0
2163,73.0,240.0,480.0,1.0,0.0
2164,54.0,0.0,240.0,4.0,0.0
2165,75.0,0.0,240.0,1.0,0.0
2166,59.0,240.0,240.0,5.0,0.0
2167,71.0,360.0,240.0,1.0,0.0
2168,54.0,0.0,240.0,4.0,0.0
2169,61.0,0.0,480.0,5.0,0.0
2170,76.0,120.0,360.0,1.0,0.0
2171,54.0,0.0,480.0,4.0,0.0
2172,73.0,120.0,120.0,1.0,0.0
2173,70.0,120.0,120.0,1.0,0.0
2174,71.0,120.0,120.0,1.0,0.0
2175,73.0,120.0,120.0,1.0,0.0
2176,74.0,190.0,120.0,1.0,0.0
2177,75.0,0.0,180.0,1.0,0.0
2178,59.0,240.0,180.0,5.0,0.0
2179,75.0,0.0,180.0,1.0,0.0
2180,59.0,240.0,180.0,5.0,0.0
2181,59.0,240.0,180.0,5.0,0.0
2182,61.0,0.0,180.0,2.0,0.0
2183,76.0,0.0,180.0,1.0,0.0
2184,77.0,0.0,180.0,1.0,0.0
2185,62.0,410.0,180.0,2.0,0.0
2186,59.0,0.0,180.0,5.0,0.0
2187,78.0,41.0,360.0,1.0,0.0
2188,59.0,0.0,480.0,5.0,0.0
2189,63.0,3.0,480.0,2.0,0.0
2190,80.0,41.0,40.0,1.0,0.0
2191,78.0,38.0,40.0,1.0,0.0
2192,76.0,117.0,40.0,1.0,0.0
2193,75.0,120.0,120.0,1.0,0.0
2194,76.0,120.0,120.0,1.0,0.0
2195,78.0,120.0,120.0,1.0,0.0
2196,79.0,480.0,120.0,1.0,0.0
2197,80.0,480.0,480.0,1.0,0.0
2198,64.0,0.0,240.0,5.0,0.0
2199,71.0,0.0,240.0,3.0,0.0
2200,78.0,480.0,480.0,1.0,0.0
2201,62.0,0.0,240.0,5.0,0.0
2202,71.0,0.0,240.0,3.0,0.0
2203,77.0,0.0,480.0,1.0,0.0
2204,61.0,0.0,240.0,5.0,0.0
2205,71.0,480.0,240.0,3.0,0.0
2206,76.0,0.0,480.0,1.0,0.0
2207,55.0,240.0,240.0,5.0,0.0
2208,58.0,0.0,240.0,4.0,0.0
2209,59.0,240.0,480.0,4.0,0.0
2210,75.0,240.0,240.0,1.0,0.0
2211,56.0,0.0,480.0,5.0,0.0
2212,83.0,0.0,240.0,1.0,0.0
2213,52.0,360.0,480.0,5.0,0.0
2214,73.0,0.0,240.0,1.0,0.0
2215,56.0,240.0,240.0,4.0,0.0
2216,80.0,0.0,240.0,1.0,0.0
2217,64.0,0.0,240.0,4.0,0.0
2218,63.0,240.0,480.0,4.0,0.0
2219,71.0,60.0,360.0,1.0,0.0
2220,54.0,720.0,720.0,5.0,0.0
2221,73.0,60.0,60.0,1.0,0.0
2222,71.0,0.0,60.0,1.0,0.0
2223,70.0,0.0,240.0,1.0,0.0
2224,61.0,0.0,240.0,4.0,0.0
2225,47.0,0.0,480.0,5.0,0.0
2226,35.0,0.0,480.0,5.0,0.0
2227,63.0,240.0,480.0,2.0,0.0
2228,66.0,0.0,480.0,1.0,0.0
2229,59.0,0.0,240.0,2.0,0.0
2230,63.0,240.0,240.0,1.0,0.0
2231,54.0,0.0,240.0,2.0,0.0
2232,61.0,216.0,240.0,1.0,0.0
2233,42.0,0.0,240.0,5.0,0.0
2234,59.0,264.0,210.0,1.0,0.0
2235,51.0,0.0,210.0,2.0,0.0
2236,47.0,240.0,480.0,5.0,0.0
2237,54.0,0.0,240.0,1.0,0.0
2238,59.0,240.0,240.0,1.0,0.0
2239,42.0,240.0,240.0,5.0,0.0
2240,61.0,0.0,240.0,1.0,0.0
2241,58.0,0.0,240.0,2.0,0.0
2242,47.0,240.0,240.0,5.0,0.0
2243,63.0,0.0,240.0,1.0,0.0
2244,44.0,240.0,240.0,5.0,0.0
2245,64.0,0.0,240.0,1.0,0.0
2246,66.0,240.0,240.0,1.0,0.0
2247,39.0,0.0,240.0,5.0,0.0
2248,68.0,0.0,240.0,1.0,0.0
2249,40.0,0.0,240.0,5.0,0.0
2250,63.0,120.0,360.0,1.0,0.0
2251,59.0,360.0,15.0,2.0,0.0
2252,42.0,0.0,720.0,5.0,0.0
2253,64.0,0.0,120.0,1.0,0.0
2254,61.0,120.0,120.0,1.0,0.0
2255,58.0,0.0,480.0,2.0,0.0
2256,63.0,120.0,120.0,1.0,0.0
2257,64.0,120.0,120.0,1.0,0.0
2258,65.0,480.0,120.0,1.0,0.0
2259,66.0,190.0,960.0,2.0,0.0
2260,78.0,0.0,480.0,1.0,0.0
2261,63.0,240.0,480.0,5.0,0.0
2262,75.0,240.0,240.0,1.0,0.0
2263,59.0,0.0,240.0,5.0,0.0
2264,73.0,0.0,240.0,1.0,0.0
2265,54.0,0.0,240.0,5.0,0.0
2266,51.0,0.0,180.0,5.0,0.0
2267,71.0,0.0,180.0,1.0,0.0
2268,66.0,240.0,180.0,2.0,0.0
2269,73.0,0.0,180.0,1.0,0.0
2270,54.0,240.0,180.0,5.0,0.0
2271,70.0,0.0,180.0,2.0,0.0
2272,75.0,240.0,180.0,1.0,0.0
2273,71.0,0.0,180.0,2.0,0.0
2274,59.0,0.0,180.0,5.0,0.0
2275,56.0,0.0,180.0,5.0,0.0
2276,76.0,290.0,180.0,1.0,0.0
2277,71.0,0.0,180.0,2.0,0.0
2278,51.0,0.0,240.0,5.0,0.0
2279,71.0,0.0,240.0,2.0,0.0
2280,78.0,60.0,240.0,1.0,0.0
2281,52.0,240.0,240.0,5.0,0.0
2282,61.0,0.0,240.0,4.0,0.0
2283,79.0,60.0,60.0,1.0,0.0
2284,80.0,60.0,60.0,1.0,0.0
2285,76.0,60.0,60.0,1.0,0.0
2286,73.0,0.0,60.0,1.0,0.0
2287,54.0,480.0,480.0,5.0,0.0
2288,71.0,0.0,240.0,1.0,0.0
2289,63.0,60.0,240.0,4.0,0.0
2290,75.0,60.0,60.0,1.0,0.0
2291,73.0,60.0,60.0,1.0,0.0
2292,72.0,60.0,60.0,1.0,0.0
2293,73.0,0.0,60.0,1.0,0.0
2294,70.0,0.0,480.0,2.0,0.0
2295,73.0,0.0,480.0,1.0,0.0
2296,64.0,0.0,15.0,4.0,0.0
2297,59.0,0.0,15.0,5.0,0.0
2298,71.0,480.0,240.0,1.0,0.0
2299,63.0,0.0,240.0,4.0,0.0
2300,58.0,240.0,240.0,5.0,0.0
2301,73.0,0.0,480.0,1.0,0.0
2302,54.0,240.0,240.0,4.0,0.0
2303,59.0,0.0,240.0,5.0,0.0
2304,75.0,240.0,240.0,1.0,0.0
2305,71.0,360.0,240.0,1.0,0.0
2306,54.0,0.0,240.0,4.0,0.0
2307,54.0,0.0,480.0,4.0,0.0
2308,61.0,120.0,480.0,5.0,0.0
2309,76.0,120.0,360.0,1.0,0.0
2310,73.0,0.0,120.0,1.0,0.0
2311,70.0,120.0,120.0,1.0,0.0
2312,71.0,120.0,120.0,1.0,0.0
2313,73.0,120.0,120.0,1.0,0.0
2314,74.0,190.0,120.0,1.0,0.0
2315,59.0,240.0,180.0,5.0,0.0
2316,75.0,0.0,180.0,1.0,0.0
2317,75.0,240.0,180.0,1.0,0.0
2318,59.0,0.0,180.0,5.0,0.0
2319,59.0,240.0,180.0,5.0,0.0
2320,76.0,0.0,180.0,1.0,0.0
2321,61.0,0.0,180.0,2.0,0.0
2322,59.0,0.0,180.0,5.0,0.0
2323,77.0,410.0,180.0,1.0,0.0
2324,62.0,0.0,180.0,2.0,0.0
2325,63.0,3.0,480.0,2.0,0.0
2326,78.0,41.0,360.0,1.0,0.0
2327,59.0,0.0,480.0,5.0,0.0
2328,80.0,41.0,40.0,1.0,0.0
2329,78.0,38.0,40.0,1.0,0.0
2330,76.0,117.0,40.0,1.0,0.0
2331,75.0,120.0,120.0,1.0,0.0
2332,76.0,120.0,120.0,1.0,0.0
2333,78.0,120.0,120.0,1.0,0.0
2334,79.0,480.0,120.0,1.0,0.0
2335,80.0,480.0,480.0,1.0,0.0
2336,71.0,0.0,240.0,3.0,0.0
2337,64.0,0.0,240.0,5.0,0.0
2338,78.0,0.0,480.0,1.0,0.0
2339,71.0,0.0,240.0,3.0,0.0
2340,62.0,480.0,240.0,5.0,0.0
2341,77.0,480.0,480.0,1.0,0.0
2342,71.0,0.0,240.0,3.0,0.0
2343,61.0,0.0,240.0,5.0,0.0
2344,76.0,0.0,480.0,1.0,0.0
2345,55.0,0.0,240.0,5.0,0.0
2346,58.0,240.0,240.0,4.0,0.0
2347,56.0,240.0,480.0,5.0,0.0
2348,75.0,240.0,240.0,1.0,0.0
2349,59.0,0.0,480.0,4.0,0.0
2350,83.0,0.0,240.0,1.0,0.0
2351,56.0,240.0,240.0,4.0,0.0
2352,73.0,0.0,240.0,1.0,0.0
2353,52.0,0.0,480.0,5.0,0.0
2354,64.0,360.0,240.0,4.0,0.0
2355,80.0,0.0,240.0,1.0,0.0
2356,71.0,60.0,360.0,1.0,0.0
2357,63.0,0.0,480.0,4.0,0.0
2358,54.0,0.0,720.0,5.0,0.0
2359,73.0,60.0,60.0,1.0,0.0
2360,71.0,240.0,60.0,1.0,0.0
2361,61.0,720.0,240.0,4.0,0.0
2362,70.0,0.0,240.0,1.0,0.0
2363,63.0,240.0,480.0,2.0,0.0
2364,35.0,0.0,480.0,5.0,0.0
2365,47.0,0.0,480.0,5.0,0.0
2366,66.0,0.0,480.0,1.0,0.0
2367,59.0,0.0,240.0,2.0,0.0
2368,63.0,240.0,240.0,1.0,0.0
2369,54.0,0.0,240.0,2.0,0.0
2370,61.0,216.0,240.0,1.0,0.0
2371,42.0,0.0,240.0,5.0,0.0
2372,51.0,264.0,210.0,2.0,0.0
2373,47.0,0.0,480.0,5.0,0.0
2374,59.0,0.0,210.0,1.0,0.0
2375,54.0,240.0,240.0,1.0,0.0
2376,59.0,240.0,240.0,1.0,0.0
2377,58.0,0.0,240.0,2.0,0.0
2378,61.0,0.0,240.0,1.0,0.0
2379,42.0,240.0,240.0,5.0,0.0
2380,59.0,0.0,960.0,2.0,0.0
2381,63.0,0.0,240.0,1.0,0.0
2382,47.0,240.0,240.0,5.0,0.0
2383,64.0,240.0,240.0,1.0,0.0
2384,44.0,0.0,240.0,5.0,0.0
2385,39.0,0.0,240.0,5.0,0.0
2386,66.0,240.0,240.0,1.0,0.0
2387,68.0,360.0,240.0,1.0,0.0
2388,40.0,0.0,240.0,5.0,0.0
2389,42.0,0.0,720.0,5.0,0.0
2390,59.0,0.0,480.0,2.0,0.0
2391,63.0,120.0,360.0,1.0,0.0
2392,64.0,120.0,120.0,1.0,0.0
2393,58.0,480.0,480.0,2.0,0.0
2394,61.0,120.0,120.0,1.0,0.0
2395,63.0,120.0,120.0,1.0,0.0
2396,64.0,120.0,120.0,1.0,0.0
2397,65.0,0.0,120.0,1.0,0.0
2398,63.0,0.0,480.0,5.0,0.0
2399,78.0,240.0,480.0,1.0,0.0
2400,75.0,0.0,240.0,1.0,0.0
2401,59.0,240.0,240.0,5.0,0.0
2402,54.0,0.0,240.0,5.0,0.0
2403,73.0,0.0,240.0,1.0,0.0
2404,51.0,240.0,180.0,5.0,0.0
2405,66.0,190.0,15.0,2.0,0.0
2406,71.0,0.0,180.0,1.0,0.0
2407,73.0,0.0,180.0,1.0,0.0
2408,54.0,240.0,180.0,5.0,0.0
2409,70.0,0.0,180.0,2.0,0.0
2410,59.0,0.0,180.0,5.0,0.0
2411,71.0,0.0,180.0,2.0,0.0
2412,75.0,240.0,180.0,1.0,0.0
2413,71.0,290.0,180.0,2.0,0.0
2414,76.0,0.0,180.0,1.0,0.0
2415,56.0,0.0,180.0,5.0,0.0
2416,78.0,0.0,240.0,1.0,0.0
2417,71.0,0.0,240.0,2.0,0.0
2418,51.0,60.0,240.0,5.0,0.0
2419,61.0,240.0,240.0,4.0,0.0
2420,79.0,60.0,60.0,1.0,0.0
2421,52.0,0.0,240.0,5.0,0.0
2422,80.0,60.0,60.0,1.0,0.0
2423,76.0,60.0,60.0,1.0,0.0
2424,73.0,0.0,60.0,1.0,0.0
2425,63.0,60.0,240.0,4.0,0.0
2426,54.0,480.0,480.0,5.0,0.0
2427,71.0,0.0,240.0,1.0,0.0
2428,75.0,60.0,60.0,1.0,0.0
2429,64.0,0.0,240.0,4.0,0.0
2430,73.0,60.0,60.0,1.0,0.0
2431,72.0,60.0,60.0,1.0,0.0
2432,70.0,0.0,480.0,2.0,0.0
2433,73.0,0.0,15.0,1.0,0.0
2434,64.0,0.0,480.0,4.0,0.0
2435,59.0,240.0,15.0,5.0,0.0
2436,63.0,480.0,240.0,4.0,0.0
2437,71.0,0.0,240.0,1.0,0.0
2438,75.0,0.0,360.0,1.0,0.0
2439,44.0,12.0,960.0,5.0,0.0
2440,71.0,0.0,360.0,2.0,0.0
2441,56.0,120.0,15.0,3.0,0.0
2442,73.0,0.0,120.0,1.0,0.0
2443,70.0,120.0,120.0,2.0,0.0
2444,71.0,0.0,240.0,1.0,0.0
2445,56.0,0.0,15.0,3.0,0.0
2446,68.0,120.0,240.0,2.0,0.0
2447,56.0,0.0,15.0,3.0,0.0
2448,56.0,108.0,15.0,3.0,0.0
2449,43.0,12.0,960.0,5.0,0.0
2450,73.0,0.0,360.0,2.0,0.0
2451,76.0,0.0,360.0,1.0,0.0
2452,55.0,120.0,15.0,3.0,0.0
2453,75.0,120.0,120.0,1.0,0.0
2454,71.0,0.0,120.0,2.0,0.0
2455,55.0,0.0,120.0,3.0,0.0
2456,73.0,120.0,240.0,1.0,0.0
2457,70.0,0.0,240.0,2.0,0.0
2458,55.0,120.0,120.0,3.0,0.0
2459,55.0,0.0,120.0,3.0,0.0
2460,55.0,108.0,15.0,3.0,0.0
2461,56.0,0.0,480.0,5.0,0.0
2462,71.0,0.0,120.0,1.0,0.0
2463,68.0,120.0,120.0,2.0,0.0
2464,73.0,120.0,120.0,1.0,0.0
2465,70.0,0.0,120.0,2.0,0.0
2466,71.0,0.0,120.0,2.0,0.0
2467,71.0,0.0,120.0,2.0,0.0
2468,75.0,120.0,15.0,1.0,0.0
2469,52.0,120.0,240.0,5.0,0.0
2470,73.0,40.0,90.0,1.0,0.0
2471,70.0,0.0,90.0,2.0,0.0
2472,70.0,0.0,120.0,2.0,0.0
2473,50.0,95.0,240.0,5.0,0.0
2474,73.0,80.0,120.0,1.0,0.0
2475,71.0,0.0,90.0,1.0,0.0
2476,68.0,40.0,90.0,2.0,0.0
2477,71.0,0.0,480.0,1.0,0.0
2478,68.0,120.0,480.0,2.0,0.0
2479,51.0,120.0,90.0,5.0,0.0
2480,39.0,75.0,90.0,5.0,0.0
2481,51.0,120.0,60.0,5.0,0.0
2482,51.0,70.0,60.0,5.0,0.0
2483,51.0,120.0,120.0,5.0,0.0
2484,67.0,0.0,240.0,2.0,0.0
2485,70.0,0.0,240.0,1.0,0.0
2486,49.0,120.0,120.0,5.0,0.0
2487,47.0,120.0,120.0,5.0,0.0
2488,46.0,240.0,120.0,5.0,0.0
2489,44.0,215.0,480.0,5.0,0.0
2490,71.0,120.0,120.0,1.0,0.0
2491,68.0,120.0,120.0,1.0,0.0
2492,64.0,0.0,120.0,1.0,0.0
2493,63.0,95.0,240.0,1.0,0.0
2494,59.0,0.0,90.0,4.0,0.0
2495,56.0,25.0,90.0,5.0,0.0
2496,59.0,120.0,90.0,4.0,0.0
2497,56.0,0.0,90.0,5.0,0.0
2498,62.0,240.0,240.0,1.0,0.0
2499,56.0,0.0,90.0,5.0,0.0
2500,59.0,25.0,90.0,4.0,0.0
2501,58.0,0.0,480.0,4.0,0.0
2502,54.0,0.0,480.0,5.0,0.0
2503,78.0,120.0,120.0,1.0,0.0
2504,75.0,120.0,120.0,1.0,0.0
2505,71.0,215.0,120.0,1.0,0.0
2506,70.0,95.0,240.0,1.0,0.0
2507,60.0,25.0,90.0,5.0,0.0
2508,63.0,0.0,90.0,4.0,0.0
2509,60.0,0.0,90.0,5.0,0.0
2510,69.0,120.0,240.0,1.0,0.0
2511,63.0,120.0,90.0,4.0,0.0
2512,60.0,25.0,90.0,5.0,0.0
2513,63.0,0.0,90.0,4.0,0.0
2514,62.0,0.0,120.0,4.0,0.0
2515,58.0,120.0,120.0,5.0,0.0
2516,70.0,120.0,120.0,1.0,0.0
2517,59.0,120.0,120.0,5.0,0.0
2518,63.0,0.0,120.0,2.0,0.0
2519,66.0,120.0,120.0,1.0,0.0
2520,56.0,120.0,120.0,5.0,0.0
2521,65.0,0.0,120.0,2.0,0.0
2522,68.0,120.0,120.0,1.0,0.0
2523,58.0,120.0,120.0,5.0,0.0
2524,62.0,0.0,120.0,2.0,0.0
2525,65.0,240.0,120.0,1.0,0.0
2526,51.0,0.0,480.0,5.0,0.0
2527,63.0,120.0,120.0,1.0,0.0
2528,65.0,120.0,120.0,1.0,0.0
2529,67.0,120.0,120.0,1.0,0.0
2530,68.0,0.0,120.0,1.0,0.0
2531,65.0,120.0,120.0,2.0,0.0
2532,67.0,120.0,120.0,2.0,0.0
2533,70.0,0.0,120.0,1.0,0.0
2534,68.0,0.0,120.0,1.0,0.0
2535,71.0,120.0,120.0,2.0,0.0
2536,70.0,0.0,120.0,2.0,0.0
2537,73.0,240.0,120.0,1.0,0.0
2538,71.0,120.0,360.0,2.0,0.0
2539,44.0,12.0,960.0,5.0,0.0
2540,75.0,0.0,360.0,1.0,0.0
2541,56.0,120.0,120.0,3.0,0.0
2542,56.0,0.0,120.0,3.0,0.0
2543,73.0,0.0,120.0,1.0,0.0
2544,70.0,0.0,120.0,2.0,0.0
2545,56.0,120.0,120.0,3.0,0.0
2546,68.0,0.0,240.0,2.0,0.0
2547,71.0,0.0,240.0,1.0,0.0
2548,56.0,120.0,120.0,3.0,0.0
2549,56.0,120.0,120.0,3.0,0.0
2550,56.0,108.0,120.0,3.0,0.0
2551,56.0,240.0,120.0,3.0,0.0
2552,76.0,0.0,360.0,1.0,0.0
2553,73.0,0.0,360.0,2.0,0.0
2554,43.0,12.0,960.0,5.0,0.0
2555,55.0,120.0,120.0,3.0,0.0
2556,55.0,120.0,15.0,3.0,0.0
2557,75.0,120.0,120.0,1.0,0.0
2558,71.0,0.0,120.0,2.0,0.0
2559,70.0,120.0,240.0,2.0,0.0
2560,73.0,0.0,240.0,1.0,0.0
2561,55.0,120.0,15.0,3.0,0.0
2562,55.0,108.0,120.0,3.0,0.0
2563,55.0,240.0,120.0,3.0,0.0
2564,56.0,120.0,480.0,5.0,0.0
2565,68.0,120.0,120.0,2.0,0.0
2566,71.0,0.0,120.0,1.0,0.0
2567,73.0,0.0,120.0,1.0,0.0
2568,70.0,120.0,120.0,2.0,0.0
2569,75.0,0.0,120.0,1.0,0.0
2570,71.0,0.0,120.0,2.0,0.0
2571,71.0,0.0,120.0,2.0,0.0
2572,75.0,80.0,120.0,1.0,0.0
2573,52.0,120.0,240.0,5.0,0.0
2574,73.0,40.0,90.0,1.0,0.0
2575,70.0,0.0,90.0,2.0,0.0
2576,73.0,0.0,120.0,1.0,0.0
2577,50.0,95.0,240.0,5.0,0.0
2578,70.0,80.0,120.0,2.0,0.0
2579,71.0,40.0,90.0,1.0,0.0
2580,68.0,0.0,90.0,2.0,0.0
2581,51.0,120.0,90.0,5.0,0.0
2582,68.0,120.0,480.0,2.0,0.0
2583,71.0,0.0,480.0,1.0,0.0
2584,39.0,75.0,90.0,5.0,0.0
2585,51.0,120.0,60.0,5.0,0.0
2586,51.0,70.0,60.0,5.0,0.0
2587,67.0,0.0,240.0,2.0,0.0
2588,51.0,120.0,120.0,5.0,0.0
2589,70.0,120.0,240.0,1.0,0.0
2590,49.0,0.0,120.0,5.0,0.0
2591,47.0,120.0,120.0,5.0,0.0
2592,46.0,240.0,120.0,5.0,0.0
2593,44.0,215.0,480.0,5.0,0.0
2594,71.0,120.0,120.0,1.0,0.0
2595,68.0,120.0,120.0,1.0,0.0
2596,64.0,0.0,120.0,1.0,0.0
2597,63.0,95.0,240.0,1.0,0.0
2598,56.0,0.0,90.0,5.0,0.0
2599,59.0,25.0,90.0,4.0,0.0
2600,62.0,240.0,240.0,1.0,0.0
2601,59.0,120.0,90.0,4.0,0.0
2602,56.0,0.0,90.0,5.0,0.0
2603,56.0,25.0,90.0,5.0,0.0
2604,59.0,0.0,90.0,4.0,0.0
2605,54.0,215.0,480.0,5.0,0.0
2606,58.0,0.0,480.0,4.0,0.0
2607,78.0,120.0,120.0,1.0,0.0
2608,75.0,120.0,120.0,1.0,0.0
2609,71.0,0.0,120.0,1.0,0.0
2610,70.0,95.0,240.0,1.0,0.0
2611,60.0,25.0,90.0,5.0,0.0
2612,63.0,0.0,90.0,4.0,0.0
2613,63.0,0.0,90.0,4.0,0.0
2614,60.0,120.0,90.0,5.0,0.0
2615,69.0,120.0,240.0,1.0,0.0
2616,60.0,0.0,90.0,5.0,0.0
2617,63.0,25.0,90.0,4.0,0.0
2618,62.0,0.0,120.0,4.0,0.0
2619,58.0,120.0,120.0,5.0,0.0
2620,70.0,120.0,120.0,1.0,0.0
2621,59.0,120.0,120.0,5.0,0.0
2622,63.0,0.0,120.0,2.0,0.0
2623,66.0,120.0,120.0,1.0,0.0
2624,56.0,120.0,120.0,5.0,0.0
2625,68.0,0.0,120.0,1.0,0.0
2626,65.0,120.0,120.0,2.0,0.0
2627,58.0,120.0,120.0,5.0,0.0
2628,65.0,0.0,120.0,1.0,0.0
2629,62.0,240.0,120.0,2.0,0.0
2630,51.0,0.0,480.0,5.0,0.0
2631,63.0,120.0,120.0,1.0,0.0
2632,65.0,120.0,120.0,1.0,0.0
2633,67.0,120.0,120.0,1.0,0.0
2634,65.0,0.0,120.0,2.0,0.0
2635,68.0,120.0,120.0,1.0,0.0
2636,67.0,0.0,120.0,2.0,0.0
2637,70.0,120.0,120.0,1.0,0.0
2638,71.0,120.0,120.0,2.0,0.0
2639,68.0,0.0,120.0,1.0,0.0
2640,70.0,0.0,120.0,2.0,0.0
2641,73.0,215.0,120.0,1.0,0.0
2642,56.0,95.0,360.0,5.0,0.0
2643,72.0,0.0,480.0,2.0,0.0
2644,75.0,215.0,480.0,1.0,0.0
2645,66.0,120.0,90.0,3.0,0.0
2646,63.0,0.0,90.0,3.0,0.0
2647,66.0,25.0,90.0,3.0,0.0
2648,63.0,0.0,90.0,3.0,0.0
2649,66.0,25.0,90.0,3.0,0.0
2650,63.0,0.0,90.0,3.0,0.0
2651,73.0,215.0,480.0,2.0,0.0
2652,56.0,95.0,360.0,5.0,0.0
2653,76.0,0.0,480.0,1.0,0.0
2654,61.0,120.0,90.0,3.0,0.0
2655,64.0,0.0,90.0,3.0,0.0
2656,61.0,0.0,90.0,3.0,0.0
2657,64.0,25.0,90.0,3.0,0.0
2658,64.0,0.0,90.0,3.0,0.0
2659,61.0,25.0,90.0,3.0,0.0
2660,56.0,95.0,360.0,5.0,0.0
2661,78.0,180.0,480.0,1.0,0.0
2662,75.0,0.0,480.0,2.0,0.0
2663,60.0,120.0,90.0,3.0,0.0
2664,63.0,0.0,90.0,3.0,0.0
2665,63.0,0.0,90.0,3.0,0.0
2666,60.0,25.0,90.0,3.0,0.0
2667,60.0,25.0,90.0,3.0,0.0
2668,63.0,0.0,90.0,3.0,0.0
2669,56.0,35.0,180.0,5.0,0.0
2670,76.0,0.0,240.0,1.0,0.0
2671,73.0,180.0,240.0,2.0,0.0
2672,64.0,25.0,90.0,3.0,0.0
2673,61.0,0.0,90.0,3.0,0.0
2674,55.0,35.0,180.0,5.0,0.0
2675,61.0,240.0,90.0,3.0,0.0
2676,64.0,0.0,90.0,3.0,0.0
2677,70.0,0.0,480.0,2.0,0.0
2678,54.0,95.0,360.0,5.0,0.0
2679,73.0,215.0,480.0,1.0,0.0
2680,61.0,0.0,90.0,3.0,0.0
2681,64.0,120.0,90.0,3.0,0.0
2682,64.0,0.0,90.0,3.0,0.0
2683,61.0,25.0,90.0,3.0,0.0
2684,64.0,25.0,90.0,3.0,0.0
2685,61.0,0.0,90.0,3.0,0.0
2686,71.0,0.0,480.0,2.0,0.0
2687,75.0,215.0,480.0,1.0,0.0
2688,54.0,95.0,360.0,5.0,0.0
2689,59.0,120.0,90.0,3.0,0.0
2690,63.0,0.0,90.0,3.0,0.0
2691,59.0,0.0,90.0,3.0,0.0
2692,63.0,25.0,90.0,3.0,0.0
2693,59.0,0.0,90.0,3.0,0.0
2694,63.0,25.0,90.0,3.0,0.0
2695,76.0,215.0,480.0,1.0,0.0
2696,73.0,0.0,480.0,2.0,0.0
2697,54.0,95.0,360.0,5.0,0.0
2698,61.0,0.0,90.0,3.0,0.0
2699,58.0,120.0,90.0,3.0,0.0
2700,61.0,25.0,90.0,3.0,0.0
2701,58.0,0.0,90.0,3.0,0.0
2702,61.0,25.0,90.0,3.0,0.0
2703,58.0,0.0,90.0,3.0,0.0
2704,75.0,0.0,240.0,1.0,0.0
2705,71.0,95.0,240.0,2.0,0.0
2706,54.0,95.0,360.0,5.0,0.0
2707,59.0,25.0,90.0,3.0,0.0
2708,63.0,0.0,90.0,3.0,0.0
2709,59.0,25.0,90.0,3.0,0.0
2710,63.0,0.0,90.0,3.0,0.0
2711,59.0,0.0,90.0,3.0,0.0
2712,63.0,265.0,90.0,3.0,0.0
2713,53.0,0.0,480.0,5.0,0.0
2714,56.0,0.0,480.0,4.0,0.0
2715,74.0,120.0,120.0,1.0,0.0
2716,75.0,120.0,120.0,1.0,0.0
2717,74.0,215.0,120.0,1.0,0.0
2718,82.0,95.0,240.0,1.0,0.0
2719,55.0,0.0,90.0,5.0,0.0
2720,63.0,25.0,90.0,4.0,0.0
2721,63.0,120.0,90.0,4.0,0.0
2722,55.0,0.0,90.0,5.0,0.0
2723,73.0,240.0,240.0,1.0,0.0
2724,55.0,25.0,90.0,5.0,0.0
2725,63.0,0.0,90.0,4.0,0.0
2726,56.0,0.0,480.0,5.0,0.0
2727,63.0,215.0,480.0,4.0,0.0
2728,72.0,120.0,120.0,1.0,0.0
2729,73.0,120.0,120.0,1.0,0.0
2730,72.0,0.0,120.0,1.0,0.0
2731,80.0,95.0,240.0,1.0,0.0
2732,56.0,0.0,90.0,4.0,0.0
2733,52.0,25.0,90.0,5.0,0.0
2734,56.0,0.0,90.0,4.0,0.0
2735,52.0,120.0,90.0,5.0,0.0
2736,71.0,240.0,240.0,1.0,0.0
2737,56.0,25.0,90.0,4.0,0.0
2738,52.0,0.0,90.0,5.0,0.0
2739,52.0,0.0,480.0,5.0,0.0
2740,49.0,0.0,480.0,5.0,0.0
2741,69.0,120.0,120.0,1.0,0.0
2742,68.0,120.0,120.0,1.0,0.0
2743,69.0,120.0,120.0,1.0,0.0
2744,72.0,120.0,120.0,1.0,0.0
2745,73.0,120.0,120.0,1.0,0.0
2746,75.0,120.0,120.0,1.0,0.0
2747,76.0,120.0,120.0,1.0,0.0
2748,68.0,0.0,480.0,1.0,0.0
2749,51.0,0.0,720.0,5.0,0.0
2750,59.0,120.0,120.0,4.0,0.0
2751,60.0,120.0,120.0,4.0,0.0
2752,61.0,120.0,120.0,4.0,0.0
2753,62.0,120.0,120.0,4.0,0.0
2754,63.0,0.0,240.0,4.0,0.0
2755,67.0,120.0,120.0,1.0,0.0
2756,70.0,120.0,120.0,1.0,0.0
2757,71.0,120.0,120.0,1.0,0.0
2758,73.0,200.0,120.0,1.0,0.0
2759,71.0,80.0,360.0,2.0,0.0
2760,44.0,80.0,720.0,5.0,0.0
2761,75.0,0.0,360.0,1.0,0.0
2762,56.0,120.0,90.0,3.0,0.0
2763,56.0,40.0,90.0,3.0,0.0
2764,70.0,80.0,120.0,2.0,0.0
2765,73.0,0.0,120.0,1.0,0.0
2766,56.0,40.0,90.0,3.0,0.0
2767,71.0,0.0,240.0,1.0,0.0
2768,56.0,120.0,90.0,3.0,0.0
2769,68.0,0.0,240.0,2.0,0.0
2770,56.0,40.0,90.0,3.0,0.0
2771,56.0,120.0,90.0,3.0,0.0
2772,56.0,240.0,90.0,3.0,0.0
2773,76.0,0.0,360.0,1.0,0.0
2774,43.0,80.0,720.0,5.0,0.0
2775,73.0,80.0,360.0,2.0,0.0
2776,55.0,120.0,90.0,3.0,0.0
2777,55.0,40.0,90.0,3.0,0.0
2778,71.0,0.0,120.0,2.0,0.0
2779,75.0,80.0,120.0,1.0,0.0
2780,55.0,40.0,90.0,3.0,0.0
2781,70.0,0.0,240.0,2.0,0.0
2782,73.0,0.0,240.0,1.0,0.0
2783,55.0,120.0,90.0,3.0,0.0
2784,55.0,40.0,90.0,3.0,0.0
2785,55.0,120.0,90.0,3.0,0.0
2786,55.0,280.0,90.0,3.0,0.0
2787,56.0,120.0,480.0,5.0,0.0
2788,68.0,120.0,120.0,2.0,0.0
2789,71.0,0.0,120.0,1.0,0.0
2790,70.0,120.0,120.0,2.0,0.0
2791,73.0,0.0,120.0,1.0,0.0
2792,75.0,0.0,120.0,1.0,0.0
2793,71.0,0.0,120.0,2.0,0.0
2794,75.0,0.0,120.0,1.0,0.0
2795,71.0,80.0,120.0,2.0,0.0
2796,52.0,120.0,240.0,5.0,0.0
2797,73.0,40.0,90.0,1.0,0.0
2798,70.0,0.0,90.0,2.0,0.0
2799,70.0,0.0,120.0,2.0,0.0
2800,73.0,80.0,120.0,1.0,0.0
2801,50.0,95.0,240.0,5.0,0.0
2802,68.0,40.0,90.0,2.0,0.0
2803,71.0,0.0,90.0,1.0,0.0
2804,71.0,120.0,480.0,1.0,0.0
2805,51.0,120.0,90.0,5.0,0.0
2806,68.0,0.0,480.0,2.0,0.0
2807,39.0,75.0,90.0,5.0,0.0
2808,51.0,120.0,60.0,5.0,0.0
2809,51.0,70.0,60.0,5.0,0.0
2810,51.0,120.0,120.0,5.0,0.0
2811,67.0,120.0,240.0,2.0,0.0
2812,70.0,0.0,240.0,1.0,0.0
2813,49.0,0.0,120.0,5.0,0.0
2814,47.0,120.0,120.0,5.0,0.0
2815,46.0,240.0,120.0,5.0,0.0
2816,44.0,0.0,480.0,5.0,0.0
2817,75.0,120.0,120.0,1.0,0.0
2818,71.0,120.0,120.0,1.0,0.0
2819,67.0,215.0,120.0,1.0,0.0
2820,70.0,95.0,240.0,1.0,0.0
2821,59.0,0.0,90.0,5.0,0.0
2822,63.0,25.0,90.0,4.0,0.0
2823,59.0,120.0,90.0,5.0,0.0
2824,68.0,240.0,240.0,1.0,0.0
2825,63.0,0.0,90.0,4.0,0.0
2826,63.0,0.0,90.0,4.0,0.0
2827,59.0,25.0,90.0,5.0,0.0
2828,61.0,0.0,480.0,5.0,0.0
2829,64.0,0.0,480.0,4.0,0.0
2830,80.0,120.0,120.0,1.0,0.0
2831,76.0,120.0,120.0,1.0,0.0
2832,72.0,215.0,120.0,1.0,0.0
2833,75.0,95.0,240.0,1.0,0.0
2834,68.0,25.0,90.0,4.0,0.0
2835,64.0,0.0,90.0,5.0,0.0
2836,74.0,120.0,240.0,1.0,0.0
2837,64.0,120.0,90.0,5.0,0.0
2838,68.0,0.0,90.0,4.0,0.0
2839,64.0,25.0,90.0,5.0,0.0
2840,68.0,0.0,90.0,4.0,0.0
2841,63.0,0.0,120.0,5.0,0.0
2842,67.0,120.0,120.0,4.0,0.0
2843,75.0,120.0,120.0,1.0,0.0
2844,64.0,120.0,120.0,5.0,0.0
2845,68.0,120.0,120.0,2.0,0.0
2846,71.0,0.0,120.0,1.0,0.0
2847,61.0,120.0,120.0,5.0,0.0
2848,70.0,120.0,120.0,2.0,0.0
2849,73.0,0.0,120.0,1.0,0.0
2850,63.0,120.0,120.0,5.0,0.0
2851,70.0,0.0,120.0,1.0,0.0
2852,67.0,240.0,120.0,2.0,0.0
2853,56.0,0.0,480.0,5.0,0.0
2854,67.0,120.0,120.0,1.0,0.0
2855,68.0,120.0,120.0,1.0,0.0
2856,67.0,120.0,120.0,1.0,0.0
2857,68.0,120.0,120.0,1.0,0.0
2858,70.0,120.0,120.0,1.0,0.0
2859,67.0,0.0,120.0,2.0,0.0
2860,68.0,96.0,120.0,2.0,0.0
2861,72.0,0.0,120.0,1.0,0.0
2862,73.0,0.0,90.0,1.0,0.0
2863,70.0,239.0,90.0,2.0,0.0
2864,72.0,215.0,480.0,2.0,0.0
2865,75.0,0.0,480.0,1.0,0.0
2866,56.0,95.0,360.0,5.0,0.0
2867,66.0,0.0,90.0,3.0,0.0
2868,63.0,120.0,90.0,3.0,0.0
2869,66.0,25.0,90.0,3.0,0.0
2870,63.0,0.0,90.0,3.0,0.0
2871,66.0,25.0,90.0,3.0,0.0
2872,63.0,0.0,90.0,3.0,0.0
2873,73.0,215.0,480.0,2.0,0.0
2874,56.0,95.0,360.0,5.0,0.0
2875,76.0,0.0,480.0,1.0,0.0
2876,61.0,120.0,90.0,3.0,0.0
2877,64.0,0.0,90.0,3.0,0.0
2878,61.0,25.0,90.0,3.0,0.0
2879,64.0,0.0,90.0,3.0,0.0
2880,61.0,25.0,90.0,3.0,0.0
2881,64.0,0.0,90.0,3.0,0.0
2882,75.0,180.0,480.0,2.0,0.0
2883,56.0,95.0,360.0,5.0,0.0
2884,78.0,0.0,480.0,1.0,0.0
2885,60.0,0.0,90.0,3.0,0.0
2886,63.0,120.0,90.0,3.0,0.0
2887,63.0,25.0,90.0,3.0,0.0
2888,60.0,0.0,90.0,3.0,0.0
2889,60.0,0.0,90.0,3.0,0.0
2890,63.0,25.0,90.0,3.0,0.0
2891,76.0,0.0,240.0,1.0,0.0
2892,73.0,180.0,240.0,2.0,0.0
2893,56.0,35.0,180.0,5.0,0.0
2894,61.0,25.0,90.0,3.0,0.0
2895,64.0,0.0,90.0,3.0,0.0
2896,55.0,35.0,180.0,5.0,0.0
2897,64.0,0.0,90.0,3.0,0.0
2898,61.0,240.0,90.0,3.0,0.0
2899,73.0,0.0,480.0,1.0,0.0
2900,70.0,215.0,480.0,2.0,0.0
2901,54.0,95.0,360.0,5.0,0.0
2902,64.0,120.0,90.0,3.0,0.0
2903,61.0,0.0,90.0,3.0,0.0
2904,61.0,25.0,90.0,3.0,0.0
2905,64.0,0.0,90.0,3.0,0.0
2906,64.0,25.0,90.0,3.0,0.0
2907,61.0,0.0,90.0,3.0,0.0
2908,54.0,95.0,360.0,5.0,0.0
2909,71.0,215.0,480.0,2.0,0.0
2910,75.0,0.0,480.0,1.0,0.0
2911,63.0,120.0,90.0,3.0,0.0
2912,59.0,0.0,90.0,3.0,0.0
2913,59.0,25.0,90.0,3.0,0.0
2914,63.0,0.0,90.0,3.0,0.0
2915,63.0,25.0,90.0,3.0,0.0
2916,59.0,0.0,90.0,3.0,0.0
2917,76.0,0.0,480.0,1.0,0.0
2918,73.0,215.0,480.0,2.0,0.0
2919,54.0,95.0,360.0,5.0,0.0
2920,58.0,120.0,90.0,3.0,0.0
2921,61.0,0.0,90.0,3.0,0.0
2922,58.0,0.0,90.0,3.0,0.0
2923,61.0,25.0,90.0,3.0,0.0
2924,61.0,25.0,90.0,3.0,0.0
2925,58.0,0.0,90.0,3.0,0.0
2926,71.0,95.0,240.0,2.0,0.0
2927,54.0,95.0,360.0,5.0,0.0
2928,75.0,0.0,240.0,1.0,0.0
2929,63.0,25.0,90.0,3.0,0.0
2930,59.0,0.0,90.0,3.0,0.0
2931,59.0,0.0,90.0,3.0,0.0
2932,63.0,25.0,90.0,3.0,0.0
2933,59.0,265.0,90.0,3.0,0.0
2934,63.0,0.0,90.0,3.0,0.0
2935,53.0,0.0,480.0,5.0,0.0
2936,56.0,215.0,480.0,4.0,0.0
2937,74.0,120.0,120.0,1.0,0.0
2938,75.0,120.0,120.0,1.0,0.0
2939,74.0,0.0,120.0,1.0,0.0
2940,82.0,95.0,240.0,1.0,0.0
2941,63.0,25.0,90.0,4.0,0.0
2942,55.0,0.0,90.0,5.0,0.0
2943,63.0,0.0,90.0,4.0,0.0
2944,55.0,120.0,90.0,5.0,0.0
2945,73.0,240.0,240.0,1.0,0.0
2946,63.0,0.0,90.0,4.0,0.0
2947,55.0,25.0,90.0,5.0,0.0
2948,63.0,0.0,480.0,4.0,0.0
2949,56.0,215.0,480.0,5.0,0.0
2950,72.0,120.0,120.0,1.0,0.0
2951,73.0,120.0,120.0,1.0,0.0
2952,72.0,0.0,120.0,1.0,0.0
2953,80.0,95.0,240.0,1.0,0.0
2954,52.0,0.0,90.0,5.0,0.0
2955,56.0,25.0,90.0,4.0,0.0
2956,56.0,0.0,90.0,4.0,0.0
2957,71.0,240.0,240.0,1.0,0.0
2958,52.0,120.0,90.0,5.0,0.0
2959,56.0,0.0,90.0,4.0,0.0
2960,52.0,25.0,90.0,5.0,0.0
2961,49.0,0.0,480.0,5.0,0.0
2962,52.0,0.0,480.0,5.0,0.0
2963,69.0,120.0,120.0,1.0,0.0
2964,68.0,120.0,120.0,1.0,0.0
2965,69.0,120.0,120.0,1.0,0.0
2966,72.0,120.0,120.0,1.0,0.0
2967,73.0,120.0,120.0,1.0,0.0
2968,75.0,120.0,120.0,1.0,0.0
2969,76.0,120.0,120.0,1.0,0.0
2970,51.0,0.0,720.0,5.0,0.0
2971,59.0,120.0,120.0,4.0,0.0
2972,68.0,120.0,480.0,1.0,0.0
2973,60.0,120.0,120.0,4.0,0.0
2974,61.0,120.0,120.0,4.0,0.0
2975,62.0,0.0,120.0,4.0,0.0
2976,67.0,120.0,120.0,1.0,0.0
2977,63.0,120.0,240.0,4.0,0.0
2978,70.0,0.0,120.0,1.0,0.0
2979,71.0,120.0,120.0,1.0,0.0
2980,73.0,200.0,120.0,1.0,0.0
2981,75.0,80.0,360.0,1.0,0.0
2982,71.0,0.0,360.0,2.0,0.0
2983,44.0,0.0,720.0,5.0,0.0
2984,56.0,120.0,90.0,3.0,0.0
2985,56.0,40.0,90.0,3.0,0.0
2986,70.0,0.0,120.0,2.0,0.0
2987,73.0,80.0,120.0,1.0,0.0
2988,56.0,40.0,90.0,3.0,0.0
2989,71.0,80.0,240.0,1.0,0.0
2990,68.0,0.0,240.0,2.0,0.0
2991,56.0,120.0,90.0,3.0,0.0
2992,56.0,40.0,90.0,3.0,0.0
2993,56.0,120.0,90.0,3.0,0.0
2994,56.0,240.0,90.0,3.0,0.0
2995,43.0,80.0,720.0,5.0,0.0
2996,73.0,0.0,360.0,2.0,0.0
2997,76.0,80.0,360.0,1.0,0.0
2998,55.0,120.0,90.0,3.0,0.0
2999,55.0,40.0,90.0,3.0,0.0
3000,75.0,80.0,120.0,1.0,0.0
3001,71.0,0.0,120.0,2.0,0.0
3002,55.0,40.0,90.0,3.0,0.0
3003,55.0,120.0,90.0,3.0,0.0
3004,73.0,0.0,240.0,1.0,0.0
3005,70.0,0.0,240.0,2.0,0.0
3006,55.0,40.0,90.0,3.0,0.0
3007,55.0,120.0,90.0,3.0,0.0
3008,55.0,280.0,90.0,3.0,0.0
3009,56.0,120.0,480.0,5.0,0.0
3010,71.0,0.0,120.0,1.0,0.0
3011,68.0,120.0,120.0,2.0,0.0
3012,73.0,0.0,120.0,1.0,0.0
3013,70.0,120.0,120.0,2.0,0.0
3014,75.0,0.0,120.0,1.0,0.0
3015,71.0,0.0,120.0,2.0,0.0
3016,52.0,120.0,240.0,5.0,0.0
3017,75.0,80.0,120.0,1.0,0.0
3018,71.0,0.0,120.0,2.0,0.0
3019,70.0,40.0,90.0,2.0,0.0
3020,73.0,0.0,90.0,1.0,0.0
3021,73.0,80.0,120.0,1.0,0.0
3022,70.0,0.0,120.0,2.0,0.0
3023,50.0,95.0,240.0,5.0,0.0
3024,68.0,0.0,90.0,2.0,0.0
3025,71.0,40.0,90.0,1.0,0.0
3026,68.0,120.0,480.0,2.0,0.0
3027,51.0,120.0,90.0,5.0,0.0
3028,71.0,0.0,480.0,1.0,0.0
3029,39.0,75.0,90.0,5.0,0.0
3030,51.0,120.0,60.0,5.0,0.0
3031,51.0,70.0,60.0,5.0,0.0
3032,70.0,0.0,240.0,1.0,0.0
3033,51.0,120.0,120.0,5.0,0.0
3034,67.0,120.0,240.0,2.0,0.0
3035,49.0,0.0,120.0,5.0,0.0
3036,47.0,120.0,120.0,5.0,0.0
3037,46.0,240.0,120.0,5.0,0.0
3038,44.0,215.0,480.0,5.0,0.0
3039,75.0,120.0,120.0,1.0,0.0
3040,71.0,120.0,120.0,1.0,0.0
3041,67.0,0.0,120.0,1.0,0.0
3042,70.0,95.0,240.0,1.0,0.0
3043,63.0,0.0,90.0,4.0,0.0
3044,59.0,25.0,90.0,5.0,0.0
3045,63.0,120.0,90.0,4.0,0.0
3046,68.0,240.0,240.0,1.0,0.0
3047,59.0,0.0,90.0,5.0,0.0
3048,63.0,25.0,90.0,4.0,0.0
3049,59.0,0.0,90.0,5.0,0.0
3050,61.0,0.0,480.0,5.0,0.0
3051,64.0,0.0,480.0,4.0,0.0
3052,80.0,120.0,120.0,1.0,0.0
3053,76.0,120.0,120.0,1.0,0.0
3054,72.0,215.0,120.0,1.0,0.0
3055,75.0,95.0,240.0,1.0,0.0
3056,64.0,25.0,90.0,5.0,0.0
3057,68.0,0.0,90.0,4.0,0.0
3058,68.0,120.0,90.0,4.0,0.0
3059,74.0,120.0,240.0,1.0,0.0
3060,64.0,0.0,90.0,5.0,0.0
3061,64.0,25.0,90.0,5.0,0.0
3062,68.0,0.0,90.0,4.0,0.0
3063,67.0,120.0,120.0,4.0,0.0
3064,63.0,0.0,120.0,5.0,0.0
3065,75.0,120.0,120.0,1.0,0.0
3066,64.0,120.0,120.0,5.0,0.0
3067,71.0,120.0,120.0,1.0,0.0
3068,68.0,0.0,120.0,2.0,0.0
3069,61.0,120.0,120.0,5.0,0.0
3070,73.0,120.0,120.0,1.0,0.0
3071,70.0,0.0,120.0,2.0,0.0
3072,63.0,120.0,120.0,5.0,0.0
3073,70.0,0.0,120.0,1.0,0.0
3074,67.0,240.0,120.0,2.0,0.0
3075,56.0,0.0,480.0,5.0,0.0
3076,67.0,120.0,120.0,1.0,0.0
3077,68.0,120.0,120.0,1.0,0.0
3078,67.0,240.0,120.0,1.0,0.0
3079,68.0,120.0,600.0,1.0,0.0
3080,62.0,120.0,120.0,4.0,0.0
3081,59.0,0.0,120.0,5.0,0.0
3082,60.0,120.0,120.0,5.0,0.0
3083,63.0,0.0,120.0,4.0,0.0
3084,62.0,0.0,120.0,4.0,0.0
3085,59.0,120.0,120.0,5.0,0.0
3086,69.0,120.0,120.0,1.0,0.0
3087,68.0,120.0,120.0,1.0,0.0
3088,69.0,120.0,120.0,1.0,0.0
3089,68.0,120.0,600.0,1.0,0.0
3090,60.0,120.0,15.0,5.0,0.0
3091,63.0,0.0,15.0,4.0,0.0
3092,64.0,120.0,120.0,4.0,0.0
3093,61.0,0.0,120.0,5.0,0.0
3094,60.0,120.0,120.0,5.0,0.0
3095,63.0,0.0,120.0,4.0,0.0
3096,64.0,120.0,600.0,4.0,0.0
3097,61.0,0.0,600.0,5.0,0.0
3098,72.0,120.0,120.0,1.0,0.0
3099,73.0,120.0,120.0,1.0,0.0
3100,76.0,120.0,120.0,1.0,0.0
3101,67.0,120.0,600.0,1.0,0.0
3102,62.0,0.0,120.0,4.0,0.0
3103,59.0,120.0,120.0,5.0,0.0
3104,61.0,0.0,120.0,4.0,0.0
3105,58.0,120.0,120.0,5.0,0.0
3106,59.0,0.0,120.0,5.0,0.0
3107,62.0,120.0,120.0,4.0,0.0
3108,58.0,0.0,600.0,5.0,0.0
3109,61.0,120.0,600.0,4.0,0.0
3110,65.0,120.0,120.0,1.0,0.0
3111,66.0,120.0,120.0,1.0,0.0
3112,65.0,120.0,120.0,1.0,0.0
3113,66.0,120.0,600.0,1.0,0.0
3114,60.0,0.0,120.0,5.0,0.0
3115,63.0,120.0,120.0,4.0,0.0
3116,64.0,0.0,120.0,4.0,0.0
3117,61.0,120.0,120.0,5.0,0.0
3118,63.0,120.0,120.0,4.0,0.0
3119,60.0,0.0,120.0,5.0,0.0
3120,64.0,120.0,480.0,4.0,0.0
3121,61.0,0.0,480.0,5.0,0.0
3122,69.0,120.0,120.0,1.0,0.0
3123,70.0,120.0,120.0,1.0,0.0
3124,71.0,0.0,120.0,1.0,0.0
3125,72.0,120.0,120.0,1.0,0.0
3126,73.0,120.0,120.0,1.0,0.0
3127,74.0,120.0,120.0,1.0,0.0
3128,75.0,360.0,120.0,1.0,0.0
3129,66.0,120.0,720.0,4.0,0.0
3130,61.0,0.0,720.0,4.0,0.0
3131,58.0,0.0,720.0,5.0,0.0
3132,78.0,120.0,360.0,1.0,0.0
3133,77.0,240.0,120.0,1.0,0.0
3134,76.0,360.0,360.0,1.0,0.0
3135,60.0,120.0,120.0,1.0,0.0
3136,61.0,120.0,120.0,1.0,0.0
3137,63.0,120.0,120.0,1.0,0.0
3138,64.0,120.0,120.0,1.0,0.0
3139,63.0,120.0,120.0,1.0,0.0
3140,64.0,120.0,120.0,1.0,0.0
3141,65.0,480.0,120.0,1.0,0.0
3142,47.0,0.0,480.0,5.0,0.0
3143,63.0,0.0,480.0,2.0,0.0
3144,35.0,0.0,480.0,5.0,0.0
3145,66.0,240.0,480.0,1.0,0.0
3146,59.0,240.0,240.0,2.0,0.0
3147,63.0,0.0,240.0,1.0,0.0
3148,42.0,216.0,240.0,5.0,0.0
3149,61.0,0.0,240.0,1.0,0.0
3150,54.0,0.0,240.0,2.0,0.0
3151,51.0,0.0,210.0,2.0,0.0
3152,59.0,264.0,210.0,1.0,0.0
3153,47.0,240.0,480.0,5.0,0.0
3154,54.0,0.0,240.0,1.0,0.0
3155,59.0,240.0,240.0,1.0,0.0
3156,58.0,0.0,240.0,2.0,0.0
3157,61.0,240.0,240.0,1.0,0.0
3158,42.0,0.0,240.0,5.0,0.0
3159,59.0,0.0,960.0,2.0,0.0
3160,63.0,0.0,240.0,1.0,0.0
3161,47.0,240.0,240.0,5.0,0.0
3162,64.0,240.0,240.0,1.0,0.0
3163,44.0,0.0,240.0,5.0,0.0
3164,39.0,0.0,240.0,5.0,0.0
3165,66.0,240.0,240.0,1.0,0.0
3166,68.0,0.0,240.0,1.0,0.0
3167,40.0,360.0,240.0,5.0,0.0
3168,59.0,0.0,480.0,2.0,0.0
3169,63.0,120.0,360.0,1.0,0.0
3170,42.0,0.0,720.0,5.0,0.0
3171,64.0,120.0,120.0,1.0,0.0
3172,58.0,480.0,480.0,2.0,0.0
3173,61.0,120.0,120.0,1.0,0.0
3174,63.0,120.0,120.0,1.0,0.0
3175,64.0,120.0,120.0,1.0,0.0
3176,65.0,0.0,120.0,1.0,0.0
3177,78.0,240.0,480.0,1.0,0.0
3178,63.0,0.0,480.0,5.0,0.0
3179,59.0,240.0,240.0,5.0,0.0
3180,75.0,0.0,240.0,1.0,0.0
3181,73.0,0.0,240.0,1.0,0.0
3182,54.0,0.0,240.0,5.0,0.0
3183,71.0,0.0,180.0,1.0,0.0
3184,51.0,0.0,180.0,5.0,0.0
3185,66.0,190.0,15.0,2.0,0.0
3186,54.0,240.0,180.0,5.0,0.0
3187,73.0,0.0,180.0,1.0,0.0
3188,70.0,0.0,180.0,2.0,0.0
3189,75.0,0.0,180.0,1.0,0.0
3190,59.0,240.0,180.0,5.0,0.0
3191,71.0,0.0,180.0,2.0,0.0
3192,56.0,0.0,180.0,5.0,0.0
3193,71.0,0.0,180.0,2.0,0.0
3194,76.0,290.0,180.0,1.0,0.0
3195,51.0,0.0,240.0,5.0,0.0
3196,71.0,0.0,240.0,2.0,0.0
3197,78.0,60.0,240.0,1.0,0.0
3198,61.0,0.0,240.0,4.0,0.0
3199,52.0,0.0,240.0,5.0,0.0
3200,79.0,60.0,60.0,1.0,0.0
3201,80.0,60.0,60.0,1.0,0.0
3202,76.0,60.0,60.0,1.0,0.0
3203,73.0,240.0,60.0,1.0,0.0
3204,63.0,0.0,240.0,4.0,0.0
3205,71.0,60.0,240.0,1.0,0.0
3206,54.0,0.0,480.0,5.0,0.0
3207,75.0,60.0,60.0,1.0,0.0
3208,73.0,60.0,60.0,1.0,0.0
3209,72.0,60.0,60.0,1.0,0.0
3210,64.0,480.0,15.0,4.0,0.0
3211,73.0,0.0,15.0,1.0,0.0
3212,59.0,0.0,480.0,5.0,0.0
3213,70.0,240.0,480.0,2.0,0.0
3214,71.0,0.0,240.0,1.0,0.0
3215,63.0,0.0,240.0,4.0,0.0
3216,59.0,480.0,240.0,5.0,0.0
3217,52.0,72.0,360.0,5.0,0.0
3218,68.0,120.0,480.0,1.0,0.0
3219,59.0,120.0,120.0,3.0,0.0
3220,56.0,48.0,180.0,3.0,0.0
3221,59.0,0.0,120.0,3.0,0.0
3222,54.0,72.0,360.0,5.0,0.0
3223,71.0,120.0,120.0,1.0,0.0
3224,59.0,0.0,120.0,3.0,0.0
3225,69.0,120.0,120.0,1.0,0.0
3226,66.0,0.0,120.0,1.0,0.0
3227,57.0,48.0,180.0,3.0,0.0
3228,59.0,0.0,120.0,3.0,0.0
3229,63.0,192.0,120.0,1.0,0.0
3230,64.0,60.0,360.0,1.0,0.0
3231,56.0,48.0,180.0,5.0,0.0
3232,59.0,120.0,120.0,3.0,0.0
3233,52.0,48.0,180.0,5.0,0.0
3234,59.0,0.0,120.0,3.0,0.0
3235,66.0,12.0,60.0,1.0,0.0
3236,68.0,192.0,60.0,1.0,0.0
3237,66.0,192.0,240.0,1.0,0.0
3238,51.0,48.0,180.0,5.0,0.0
3239,59.0,0.0,120.0,3.0,0.0
3240,47.0,48.0,180.0,5.0,0.0
3241,59.0,240.0,120.0,3.0,0.0
3242,51.0,72.0,360.0,5.0,0.0
3243,69.0,120.0,480.0,1.0,0.0
3244,59.0,120.0,120.0,3.0,0.0
3245,54.0,48.0,180.0,3.0,0.0
3246,59.0,0.0,120.0,3.0,0.0
3247,73.0,120.0,120.0,1.0,0.0
3248,52.0,72.0,360.0,5.0,0.0
3249,71.0,0.0,120.0,1.0,0.0
3250,59.0,120.0,120.0,3.0,0.0
3251,69.0,0.0,120.0,1.0,0.0
3252,56.0,48.0,180.0,3.0,0.0
3253,68.0,0.0,120.0,1.0,0.0
3254,59.0,192.0,120.0,3.0,0.0
3255,66.0,60.0,360.0,1.0,0.0
3256,51.0,48.0,180.0,5.0,0.0
3257,59.0,120.0,120.0,3.0,0.0
3258,47.0,48.0,180.0,5.0,0.0
3259,68.0,12.0,60.0,1.0,0.0
3260,59.0,240.0,120.0,3.0,0.0
3261,69.0,0.0,60.0,1.0,0.0
3262,68.0,120.0,240.0,1.0,0.0
3263,52.0,72.0,360.0,5.0,0.0
3264,59.0,0.0,120.0,3.0,0.0
3265,56.0,48.0,180.0,3.0,0.0
3266,59.0,240.0,120.0,3.0,0.0
3267,80.0,0.0,360.0,1.0,0.0
3268,54.0,90.0,360.0,5.0,0.0
3269,63.0,120.0,120.0,3.0,0.0
3270,60.0,30.0,210.0,3.0,0.0
3271,72.0,0.0,120.0,1.0,0.0
3272,63.0,80.0,120.0,3.0,0.0
3273,52.0,72.0,360.0,5.0,0.0
3274,73.0,120.0,90.0,1.0,0.0
3275,61.0,80.0,120.0,3.0,0.0
3276,75.0,40.0,90.0,1.0,0.0
3277,56.0,8.0,180.0,3.0,0.0
3278,76.0,40.0,90.0,1.0,0.0
3279,77.0,40.0,90.0,1.0,0.0
3280,61.0,240.0,120.0,3.0,0.0
3281,52.0,108.0,360.0,5.0,0.0
3282,78.0,0.0,360.0,1.0,0.0
3283,61.0,120.0,120.0,3.0,0.0
3284,58.0,12.0,240.0,3.0,0.0
3285,70.0,80.0,120.0,1.0,0.0
3286,61.0,0.0,120.0,3.0,0.0
3287,71.0,120.0,90.0,1.0,0.0
3288,51.0,72.0,360.0,5.0,0.0
3289,73.0,40.0,90.0,1.0,0.0
3290,59.0,80.0,120.0,3.0,0.0
3291,54.0,8.0,180.0,3.0,0.0
3292,74.0,40.0,90.0,1.0,0.0
3293,75.0,40.0,90.0,1.0,0.0
3294,59.0,120.0,120.0,3.0,0.0
3295,52.0,0.0,360.0,5.0,0.0
3296,75.0,120.0,120.0,1.0,0.0
3297,61.0,120.0,120.0,3.0,0.0
3298,68.0,0.0,120.0,1.0,0.0
3299,76.0,72.0,120.0,1.0,0.0
3300,56.0,48.0,180.0,3.0,0.0
3301,73.0,120.0,120.0,1.0,0.0
3302,61.0,0.0,120.0,3.0,0.0
3303,54.0,8.0,180.0,5.0,0.0
3304,73.0,72.0,120.0,1.0,0.0
3305,71.0,40.0,90.0,1.0,0.0
3306,63.0,120.0,120.0,3.0,0.0
3307,54.0,8.0,180.0,5.0,0.0
3308,71.0,72.0,120.0,1.0,0.0
3309,64.0,120.0,120.0,3.0,0.0
3310,70.0,40.0,90.0,1.0,0.0
3311,59.0,0.0,480.0,5.0,0.0
3312,71.0,120.0,120.0,1.0,0.0
3313,70.0,120.0,120.0,1.0,0.0
3314,71.0,120.0,120.0,1.0,0.0
3315,73.0,120.0,120.0,1.0,0.0
3316,71.0,120.0,120.0,1.0,0.0
3317,70.0,120.0,120.0,1.0,0.0
3318,69.0,120.0,120.0,1.0,0.0
3319,66.0,240.0,120.0,1.0,0.0
3320,52.0,72.0,360.0,5.0,0.0
3321,68.0,0.0,480.0,1.0,0.0
3322,59.0,120.0,120.0,3.0,0.0
3323,56.0,48.0,180.0,3.0,0.0
3324,59.0,120.0,120.0,3.0,0.0
3325,71.0,120.0,120.0,1.0,0.0
3326,54.0,0.0,360.0,5.0,0.0
3327,69.0,0.0,120.0,1.0,0.0
3328,59.0,120.0,120.0,3.0,0.0
3329,66.0,72.0,120.0,1.0,0.0
3330,57.0,48.0,180.0,3.0,0.0
3331,63.0,0.0,120.0,1.0,0.0
3332,59.0,192.0,120.0,3.0,0.0
3333,56.0,48.0,180.0,5.0,0.0
3334,64.0,60.0,360.0,1.0,0.0
3335,59.0,120.0,120.0,3.0,0.0
3336,52.0,48.0,180.0,5.0,0.0
3337,59.0,0.0,120.0,3.0,0.0
3338,66.0,12.0,60.0,1.0,0.0
3339,68.0,192.0,60.0,1.0,0.0
3340,51.0,48.0,180.0,5.0,0.0
3341,66.0,0.0,240.0,1.0,0.0
3342,59.0,192.0,120.0,3.0,0.0
3343,47.0,48.0,180.0,5.0,0.0
3344,59.0,240.0,120.0,3.0,0.0
3345,51.0,72.0,360.0,5.0,0.0
3346,69.0,0.0,480.0,1.0,0.0
3347,59.0,120.0,120.0,3.0,0.0
3348,54.0,48.0,180.0,3.0,0.0
3349,59.0,120.0,120.0,3.0,0.0
3350,73.0,120.0,120.0,1.0,0.0
3351,52.0,0.0,360.0,5.0,0.0
3352,71.0,120.0,120.0,1.0,0.0
3353,59.0,0.0,120.0,3.0,0.0
3354,69.0,72.0,120.0,1.0,0.0
3355,56.0,48.0,180.0,3.0,0.0
3356,59.0,192.0,120.0,3.0,0.0
3357,68.0,0.0,120.0,1.0,0.0
3358,66.0,60.0,360.0,1.0,0.0
3359,51.0,48.0,180.0,5.0,0.0
3360,59.0,120.0,120.0,3.0,0.0
3361,47.0,48.0,180.0,5.0,0.0
3362,59.0,240.0,120.0,3.0,0.0
3363,68.0,12.0,60.0,1.0,0.0
3364,69.0,0.0,60.0,1.0,0.0
3365,68.0,120.0,240.0,1.0,0.0
3366,52.0,72.0,360.0,5.0,0.0
3367,59.0,0.0,120.0,3.0,0.0
3368,56.0,48.0,180.0,3.0,0.0
3369,59.0,240.0,120.0,3.0,0.0
3370,54.0,90.0,360.0,5.0,0.0
3371,80.0,0.0,360.0,1.0,0.0
3372,63.0,120.0,120.0,3.0,0.0
3373,60.0,30.0,210.0,3.0,0.0
3374,72.0,0.0,120.0,1.0,0.0
3375,63.0,80.0,120.0,3.0,0.0
3376,73.0,120.0,90.0,1.0,0.0
3377,52.0,72.0,360.0,5.0,0.0
3378,61.0,80.0,120.0,3.0,0.0
3379,75.0,40.0,90.0,1.0,0.0
3380,56.0,8.0,180.0,3.0,0.0
3381,76.0,40.0,90.0,1.0,0.0
3382,61.0,240.0,120.0,3.0,0.0
3383,77.0,40.0,90.0,1.0,0.0
3384,78.0,0.0,360.0,1.0,0.0
3385,52.0,108.0,360.0,5.0,0.0
3386,61.0,120.0,120.0,3.0,0.0
3387,58.0,12.0,240.0,3.0,0.0
3388,61.0,80.0,120.0,3.0,0.0
3389,70.0,0.0,120.0,1.0,0.0
3390,71.0,120.0,90.0,1.0,0.0
3391,51.0,72.0,360.0,5.0,0.0
3392,59.0,80.0,120.0,3.0,0.0
3393,73.0,40.0,90.0,1.0,0.0
3394,74.0,40.0,90.0,1.0,0.0
3395,54.0,8.0,180.0,3.0,0.0
3396,59.0,120.0,120.0,3.0,0.0
3397,75.0,40.0,90.0,1.0,0.0
3398,52.0,72.0,360.0,5.0,0.0
3399,75.0,120.0,120.0,1.0,0.0
3400,68.0,120.0,120.0,1.0,0.0
3401,61.0,0.0,120.0,3.0,0.0
3402,76.0,0.0,120.0,1.0,0.0
3403,56.0,48.0,180.0,3.0,0.0
3404,61.0,0.0,120.0,3.0,0.0
3405,73.0,120.0,15.0,1.0,0.0
3406,54.0,8.0,180.0,5.0,0.0
3407,71.0,40.0,90.0,1.0,0.0
3408,63.0,120.0,120.0,3.0,0.0
3409,54.0,8.0,180.0,5.0,0.0
3410,71.0,72.0,120.0,1.0,0.0
3411,70.0,40.0,90.0,1.0,0.0
3412,64.0,120.0,120.0,3.0,0.0
3413,71.0,120.0,120.0,1.0,0.0
3414,59.0,0.0,480.0,5.0,0.0
3415,70.0,120.0,120.0,1.0,0.0
3416,71.0,120.0,120.0,1.0,0.0
3417,73.0,120.0,120.0,1.0,0.0
3418,71.0,120.0,120.0,1.0,0.0
3419,70.0,120.0,120.0,1.0,0.0
3420,69.0,120.0,120.0,1.0,0.0
3421,66.0,180.0,120.0,1.0,0.0
3422,65.0,0.0,960.0,2.0,0.0
3423,59.0,60.0,180.0,5.0,0.0
3424,68.0,0.0,480.0,1.0,0.0
3425,62.0,180.0,120.0,3.0,0.0
3426,59.0,60.0,180.0,5.0,0.0
3427,62.0,120.0,120.0,3.0,0.0
3428,67.0,60.0,120.0,1.0,0.0
3429,59.0,60.0,180.0,5.0,0.0
3430,61.0,0.0,120.0,3.0,0.0
3431,68.0,120.0,120.0,1.0,0.0
3432,59.0,60.0,180.0,5.0,0.0
3433,69.0,60.0,120.0,1.0,0.0
3434,61.0,0.0,120.0,3.0,0.0
3435,68.0,180.0,120.0,1.0,0.0
3436,58.0,60.0,180.0,5.0,0.0
3437,73.0,180.0,240.0,1.0,0.0
3438,64.0,0.0,480.0,2.0,0.0
3439,61.0,0.0,120.0,3.0,0.0
3440,58.0,60.0,180.0,5.0,0.0
3441,66.0,0.0,240.0,1.0,0.0
3442,61.0,120.0,120.0,3.0,0.0
3443,65.0,60.0,120.0,1.0,0.0
3444,57.0,60.0,180.0,5.0,0.0
3445,63.0,180.0,480.0,2.0,0.0
3446,59.0,0.0,120.0,3.0,0.0
3447,66.0,120.0,120.0,1.0,0.0
3448,68.0,60.0,120.0,1.0,0.0
3449,57.0,60.0,180.0,5.0,0.0
3450,59.0,0.0,120.0,3.0,0.0
3451,66.0,0.0,120.0,1.0,0.0
3452,56.0,60.0,180.0,5.0,0.0
3453,71.0,0.0,240.0,1.0,0.0
3454,62.0,0.0,480.0,2.0,0.0
3455,59.0,180.0,120.0,3.0,0.0
3456,64.0,120.0,360.0,1.0,0.0
3457,56.0,60.0,180.0,5.0,0.0
3458,59.0,120.0,120.0,3.0,0.0
3459,57.0,120.0,240.0,5.0,0.0
3460,61.0,0.0,120.0,2.0,0.0
3461,66.0,0.0,120.0,1.0,0.0
3462,63.0,0.0,120.0,2.0,0.0
3463,64.0,120.0,120.0,2.0,0.0
3464,68.0,0.0,120.0,1.0,0.0
3465,54.0,180.0,240.0,5.0,0.0
3466,69.0,0.0,120.0,1.0,0.0
3467,66.0,0.0,120.0,2.0,0.0
3468,64.0,0.0,480.0,2.0,0.0
3469,59.0,60.0,180.0,5.0,0.0
3470,68.0,120.0,480.0,1.0,0.0
3471,58.0,180.0,120.0,3.0,0.0
3472,59.0,60.0,180.0,5.0,0.0
3473,58.0,0.0,120.0,3.0,0.0
3474,63.0,120.0,240.0,2.0,0.0
3475,59.0,120.0,120.0,5.0,0.0
3476,66.0,0.0,240.0,1.0,0.0
3477,54.0,0.0,120.0,5.0,0.0
3478,51.0,120.0,120.0,5.0,0.0
3479,47.0,240.0,120.0,5.0,0.0
3480,49.0,60.0,360.0,5.0,0.0
3481,76.0,0.0,480.0,1.0,0.0
3482,56.0,120.0,120.0,3.0,0.0
3483,52.0,60.0,180.0,3.0,0.0
3484,56.0,120.0,120.0,3.0,0.0
3485,75.0,120.0,120.0,1.0,0.0
3486,52.0,0.0,360.0,5.0,0.0
3487,61.0,120.0,120.0,3.0,0.0
3488,73.0,0.0,120.0,1.0,0.0
3489,71.0,60.0,120.0,1.0,0.0
3490,54.0,60.0,180.0,3.0,0.0
3491,70.0,0.0,120.0,1.0,0.0
3492,61.0,240.0,120.0,3.0,0.0
3493,81.0,120.0,480.0,1.0,0.0
3494,51.0,60.0,360.0,5.0,0.0
3495,59.0,120.0,120.0,3.0,0.0
3496,54.0,60.0,180.0,3.0,0.0
3497,59.0,0.0,120.0,3.0,0.0
3498,57.0,0.0,360.0,5.0,0.0
3499,80.0,120.0,120.0,1.0,0.0
3500,66.0,120.0,120.0,3.0,0.0
3501,78.0,0.0,120.0,1.0,0.0
3502,59.0,60.0,180.0,3.0,0.0
3503,76.0,60.0,120.0,1.0,0.0
3504,75.0,0.0,120.0,1.0,0.0
3505,66.0,120.0,120.0,3.0,0.0
3506,76.0,120.0,120.0,1.0,0.0
3507,56.0,0.0,240.0,5.0,0.0
3508,64.0,0.0,240.0,4.0,0.0
3509,68.0,120.0,120.0,1.0,0.0
3510,61.0,120.0,240.0,4.0,0.0
3511,57.0,0.0,240.0,5.0,0.0
3512,66.0,120.0,120.0,1.0,0.0
3513,73.0,0.0,120.0,1.0,0.0
3514,71.0,120.0,120.0,1.0,0.0
3515,56.0,0.0,240.0,4.0,0.0
3516,64.0,120.0,120.0,1.0,0.0
3517,47.0,0.0,15.0,5.0,0.0
3518,54.0,0.0,240.0,4.0,0.0
3519,69.0,120.0,120.0,1.0,0.0
3520,63.0,480.0,120.0,1.0,0.0
3521,66.0,0.0,480.0,1.0,0.0
3522,57.0,0.0,480.0,4.0,0.0
3523,64.0,120.0,120.0,1.0,0.0
3524,52.0,120.0,15.0,5.0,0.0
3525,56.0,0.0,240.0,4.0,0.0
3526,66.0,120.0,120.0,1.0,0.0
3527,67.0,120.0,120.0,1.0,0.0
3528,68.0,180.0,120.0,1.0,0.0
3529,59.0,60.0,180.0,5.0,0.0
3530,68.0,120.0,480.0,1.0,0.0
3531,65.0,180.0,960.0,2.0,0.0
3532,62.0,180.0,120.0,3.0,0.0
3533,59.0,60.0,180.0,5.0,0.0
3534,62.0,0.0,120.0,3.0,0.0
3535,59.0,60.0,180.0,5.0,0.0
3536,67.0,60.0,120.0,1.0,0.0
3537,61.0,120.0,120.0,3.0,0.0
3538,68.0,0.0,120.0,1.0,0.0
3539,69.0,60.0,120.0,1.0,0.0
3540,59.0,60.0,180.0,5.0,0.0
3541,61.0,0.0,120.0,3.0,0.0
3542,68.0,0.0,120.0,1.0,0.0
3543,64.0,120.0,480.0,2.0,0.0
3544,58.0,60.0,180.0,5.0,0.0
3545,73.0,0.0,240.0,1.0,0.0
3546,61.0,180.0,120.0,3.0,0.0
3547,66.0,0.0,240.0,1.0,0.0
3548,58.0,60.0,180.0,5.0,0.0
3549,61.0,0.0,120.0,3.0,0.0
3550,63.0,180.0,480.0,2.0,0.0
3551,57.0,60.0,180.0,5.0,0.0
3552,65.0,60.0,120.0,1.0,0.0
3553,59.0,120.0,120.0,3.0,0.0
3554,66.0,0.0,120.0,1.0,0.0
3555,57.0,60.0,180.0,5.0,0.0
3556,68.0,60.0,120.0,1.0,0.0
3557,66.0,0.0,120.0,1.0,0.0
3558,59.0,0.0,120.0,3.0,0.0
3559,71.0,180.0,240.0,1.0,0.0
3560,56.0,60.0,180.0,5.0,0.0
3561,62.0,120.0,480.0,2.0,0.0
3562,59.0,0.0,120.0,3.0,0.0
3563,64.0,0.0,360.0,1.0,0.0
3564,56.0,60.0,180.0,5.0,0.0
3565,59.0,0.0,120.0,3.0,0.0
3566,57.0,0.0,240.0,5.0,0.0
3567,61.0,120.0,120.0,2.0,0.0
3568,63.0,0.0,120.0,2.0,0.0
3569,66.0,120.0,120.0,1.0,0.0
3570,54.0,0.0,240.0,5.0,0.0
3571,64.0,120.0,120.0,2.0,0.0
3572,68.0,0.0,120.0,1.0,0.0
3573,66.0,180.0,120.0,2.0,0.0
3574,69.0,0.0,120.0,1.0,0.0
3575,68.0,120.0,480.0,1.0,0.0
3576,64.0,0.0,480.0,2.0,0.0
3577,59.0,60.0,180.0,5.0,0.0
3578,58.0,180.0,120.0,3.0,0.0
3579,59.0,60.0,180.0,5.0,0.0
3580,58.0,0.0,120.0,3.0,0.0
3581,63.0,0.0,240.0,2.0,0.0
3582,66.0,0.0,240.0,1.0,0.0
3583,59.0,120.0,120.0,5.0,0.0
3584,54.0,120.0,120.0,5.0,0.0
3585,51.0,120.0,120.0,5.0,0.0
3586,47.0,240.0,120.0,5.0,0.0
3587,76.0,0.0,480.0,1.0,0.0
3588,49.0,60.0,360.0,5.0,0.0
3589,56.0,120.0,120.0,3.0,0.0
3590,52.0,60.0,180.0,3.0,0.0
3591,56.0,120.0,120.0,3.0,0.0
3592,75.0,120.0,120.0,1.0,0.0
3593,52.0,0.0,360.0,5.0,0.0
3594,61.0,0.0,120.0,3.0,0.0
3595,73.0,120.0,120.0,1.0,0.0
3596,71.0,60.0,120.0,1.0,0.0
3597,54.0,60.0,180.0,3.0,0.0
3598,70.0,0.0,120.0,1.0,0.0
3599,61.0,240.0,120.0,3.0,0.0
3600,51.0,60.0,360.0,5.0,0.0
3601,81.0,0.0,480.0,1.0,0.0
3602,59.0,120.0,120.0,3.0,0.0
3603,54.0,60.0,180.0,3.0,0.0
3604,59.0,120.0,120.0,3.0,0.0
3605,57.0,60.0,360.0,5.0,0.0
3606,80.0,120.0,120.0,1.0,0.0
3607,66.0,120.0,120.0,3.0,0.0
3608,78.0,0.0,120.0,1.0,0.0
3609,76.0,0.0,120.0,1.0,0.0
3610,59.0,60.0,180.0,3.0,0.0
3611,75.0,120.0,120.0,1.0,0.0
3612,66.0,0.0,120.0,3.0,0.0
3613,56.0,0.0,240.0,5.0,0.0
3614,76.0,120.0,120.0,1.0,0.0
3615,64.0,0.0,240.0,4.0,0.0
3616,68.0,120.0,120.0,1.0,0.0
3617,61.0,120.0,240.0,4.0,0.0
3618,66.0,120.0,120.0,1.0,0.0
3619,57.0,0.0,240.0,5.0,0.0
3620,73.0,0.0,120.0,1.0,0.0
3621,56.0,0.0,240.0,4.0,0.0
3622,71.0,120.0,120.0,1.0,0.0
3623,47.0,0.0,240.0,5.0,0.0
3624,64.0,120.0,120.0,1.0,0.0
3625,47.0,480.0,240.0,5.0,0.0
3626,54.0,0.0,240.0,4.0,0.0
3627,69.0,120.0,120.0,1.0,0.0
3628,63.0,0.0,120.0,1.0,0.0
3629,52.0,0.0,480.0,5.0,0.0
3630,66.0,0.0,480.0,1.0,0.0
3631,57.0,120.0,480.0,4.0,0.0
3632,64.0,120.0,120.0,1.0,0.0
3633,56.0,120.0,240.0,4.0,0.0
3634,52.0,0.0,240.0,5.0,0.0
3635,66.0,0.0,120.0,1.0,0.0
3636,67.0,120.0,120.0,1.0,0.0
3637,68.0,240.0,120.0,1.0,0.0
3638,63.0,0.0,240.0,4.0,0.0
3639,60.0,0.0,240.0,5.0,0.0
3640,68.0,120.0,120.0,1.0,0.0
3641,69.0,120.0,120.0,1.0,0.0
3642,68.0,240.0,120.0,1.0,0.0
3643,64.0,0.0,240.0,4.0,0.0
3644,61.0,0.0,240.0,5.0,0.0
3645,68.0,120.0,120.0,1.0,0.0
3646,80.0,120.0,120.0,1.0,0.0
3647,68.0,240.0,120.0,1.0,0.0
3648,61.0,0.0,240.0,4.0,0.0
3649,58.0,0.0,240.0,5.0,0.0
3650,66.0,120.0,120.0,1.0,0.0
3651,67.0,120.0,120.0,1.0,0.0
3652,66.0,240.0,120.0,1.0,0.0
3653,63.0,0.0,240.0,4.0,0.0
3654,59.0,120.0,240.0,5.0,0.0
3655,66.0,0.0,120.0,1.0,0.0
3656,78.0,120.0,120.0,1.0,0.0
3657,66.0,240.0,120.0,1.0,0.0
3658,59.0,0.0,960.0,4.0,0.0
3659,56.0,0.0,960.0,5.0,0.0
3660,65.0,120.0,120.0,1.0,0.0
3661,66.0,120.0,120.0,1.0,0.0
3662,65.0,120.0,120.0,1.0,0.0
3663,71.0,120.0,120.0,1.0,0.0
3664,65.0,120.0,120.0,1.0,0.0
3665,74.0,120.0,120.0,1.0,0.0
3666,65.0,360.0,120.0,1.0,0.0
3667,66.0,120.0,600.0,1.0,0.0
3668,54.0,0.0,480.0,5.0,0.0
3669,58.0,120.0,120.0,4.0,0.0
3670,61.0,120.0,120.0,4.0,0.0
3671,62.0,120.0,240.0,4.0,0.0
3672,65.0,0.0,120.0,1.0,0.0
3673,74.0,120.0,120.0,1.0,0.0
3674,59.0,0.0,240.0,4.0,0.0
3675,65.0,360.0,120.0,1.0,0.0
3676,66.0,120.0,600.0,1.0,0.0
3677,54.0,0.0,480.0,5.0,0.0
3678,58.0,120.0,120.0,4.0,0.0
3679,61.0,120.0,120.0,4.0,0.0
3680,62.0,120.0,240.0,4.0,0.0
3681,65.0,0.0,120.0,1.0,0.0
3682,74.0,120.0,120.0,1.0,0.0
3683,59.0,360.0,240.0,4.0,0.0
3684,65.0,0.0,120.0,1.0,0.0
3685,66.0,120.0,600.0,1.0,0.0
3686,54.0,720.0,2520.0,5.0,0.0
3687,58.0,120.0,120.0,4.0,0.0
3688,61.0,120.0,120.0,4.0,0.0
3689,64.0,0.0,2160.0,4.0,0.0
3690,70.0,120.0,120.0,1.0,0.0
3691,73.0,120.0,120.0,1.0,0.0
3692,76.0,120.0,120.0,1.0,0.0
3693,79.0,120.0,120.0,1.0,0.0
3694,80.0,120.0,120.0,1.0,0.0
3695,82.0,120.0,120.0,1.0,0.0
3696,80.0,120.0,120.0,1.0,0.0
3697,78.0,120.0,120.0,1.0,0.0
3698,76.0,120.0,120.0,1.0,0.0
3699,75.0,120.0,120.0,1.0,0.0
3700,73.0,360.0,120.0,1.0,0.0
3701,71.0,60.0,360.0,1.0,0.0
3702,73.0,60.0,60.0,1.0,0.0
3703,71.0,240.0,60.0,1.0,0.0
3704,70.0,0.0,240.0,1.0,0.0
3705,35.0,0.0,480.0,5.0,0.0
3706,47.0,240.0,480.0,5.0,0.0
3707,66.0,0.0,480.0,1.0,0.0
3708,63.0,0.0,480.0,2.0,0.0
3709,59.0,240.0,240.0,2.0,0.0
3710,63.0,0.0,240.0,1.0,0.0
3711,61.0,0.0,240.0,1.0,0.0
3712,54.0,0.0,240.0,2.0,0.0
3713,42.0,216.0,240.0,5.0,0.0
3714,51.0,0.0,210.0,2.0,0.0
3715,47.0,0.0,480.0,5.0,0.0
3716,59.0,264.0,210.0,1.0,0.0
3717,54.0,240.0,240.0,1.0,0.0
3718,59.0,240.0,240.0,1.0,0.0
3719,58.0,0.0,240.0,2.0,0.0
3720,61.0,0.0,240.0,1.0,0.0
3721,42.0,240.0,240.0,5.0,0.0
3722,63.0,240.0,240.0,1.0,0.0
3723,47.0,0.0,240.0,5.0,0.0
3724,44.0,0.0,240.0,5.0,0.0
3725,64.0,240.0,240.0,1.0,0.0
3726,39.0,240.0,240.0,5.0,0.0
3727,66.0,0.0,240.0,1.0,0.0
3728,40.0,0.0,240.0,5.0,0.0
3729,68.0,360.0,240.0,1.0,0.0
3730,42.0,120.0,720.0,5.0,0.0
3731,59.0,0.0,15.0,2.0,0.0
3732,63.0,120.0,360.0,1.0,0.0
3733,64.0,120.0,120.0,1.0,0.0
3734,58.0,0.0,480.0,2.0,0.0
3735,61.0,120.0,120.0,1.0,0.0
3736,63.0,0.0,120.0,1.0,0.0
3737,64.0,120.0,120.0,1.0,0.0
3738,65.0,480.0,120.0,1.0,0.0
3739,63.0,0.0,480.0,5.0,0.0
3740,78.0,240.0,480.0,1.0,0.0
3741,66.0,0.0,960.0,2.0,0.0
3742,59.0,240.0,240.0,5.0,0.0
3743,75.0,0.0,240.0,1.0,0.0
3744,73.0,190.0,240.0,1.0,0.0
3745,54.0,0.0,240.0,5.0,0.0
3746,51.0,0.0,180.0,5.0,0.0
3747,71.0,240.0,180.0,1.0,0.0
3748,66.0,0.0,180.0,2.0,0.0
3749,70.0,0.0,180.0,2.0,0.0
3750,73.0,0.0,180.0,1.0,0.0
3751,54.0,240.0,180.0,5.0,0.0
3752,59.0,240.0,180.0,5.0,0.0
3753,75.0,0.0,180.0,1.0,0.0
3754,71.0,0.0,180.0,2.0,0.0
3755,71.0,0.0,180.0,2.0,0.0
3756,56.0,0.0,180.0,5.0,0.0
3757,76.0,290.0,180.0,1.0,0.0
3758,51.0,0.0,240.0,5.0,0.0
3759,78.0,60.0,240.0,1.0,0.0
3760,71.0,0.0,240.0,2.0,0.0
3761,61.0,240.0,240.0,4.0,0.0
3762,79.0,60.0,60.0,1.0,0.0
3763,52.0,0.0,240.0,5.0,0.0
3764,80.0,60.0,60.0,1.0,0.0
3765,76.0,60.0,60.0,1.0,0.0
3766,73.0,0.0,60.0,1.0,0.0
3767,63.0,60.0,240.0,4.0,0.0
3768,54.0,480.0,480.0,5.0,0.0
3769,71.0,0.0,240.0,1.0,0.0
3770,75.0,60.0,60.0,1.0,0.0
3771,64.0,0.0,240.0,4.0,0.0
3772,73.0,60.0,60.0,1.0,0.0
3773,72.0,60.0,60.0,1.0,0.0
3774,73.0,0.0,60.0,1.0,0.0
3775,73.0,0.0,480.0,1.0,0.0
3776,64.0,0.0,480.0,4.0,0.0
3777,70.0,0.0,480.0,2.0,0.0
3778,63.0,0.0,240.0,4.0,0.0
3779,59.0,240.0,15.0,5.0,0.0
3780,71.0,0.0,240.0,1.0,0.0
3781,47.0,0.0,360.0,5.0,0.0
3782,68.0,120.0,360.0,1.0,0.0
3783,56.0,120.0,120.0,3.0,0.0
3784,52.0,0.0,120.0,3.0,0.0
3785,56.0,0.0,120.0,3.0,0.0
3786,70.0,150.0,120.0,1.0,0.0
3787,71.0,90.0,150.0,1.0,0.0
3788,47.0,0.0,360.0,5.0,0.0
3789,56.0,120.0,120.0,3.0,0.0
3790,52.0,35.0,120.0,3.0,0.0
3791,71.0,85.0,150.0,1.0,0.0
3792,56.0,240.0,120.0,3.0,0.0
3793,71.0,60.0,360.0,1.0,0.0
3794,47.0,0.0,360.0,5.0,0.0
3795,54.0,120.0,120.0,3.0,0.0
3796,51.0,0.0,120.0,3.0,0.0
3797,70.0,60.0,60.0,1.0,0.0
3798,54.0,0.0,120.0,3.0,0.0
3799,68.0,240.0,60.0,1.0,0.0
3800,66.0,120.0,240.0,1.0,0.0
3801,47.0,120.0,360.0,5.0,0.0
3802,54.0,0.0,120.0,3.0,0.0
3803,51.0,0.0,120.0,3.0,0.0
3804,54.0,240.0,120.0,3.0,0.0
3805,47.0,0.0,360.0,5.0,0.0
3806,68.0,120.0,360.0,1.0,0.0
3807,56.0,120.0,120.0,3.0,0.0
3808,52.0,0.0,120.0,3.0,0.0
3809,70.0,80.0,120.0,1.0,0.0
3810,56.0,0.0,120.0,3.0,0.0
3811,47.0,80.0,360.0,5.0,0.0
3812,71.0,120.0,90.0,1.0,0.0
3813,71.0,40.0,90.0,1.0,0.0
3814,56.0,80.0,120.0,3.0,0.0
3815,52.0,0.0,120.0,3.0,0.0
3816,71.0,40.0,90.0,1.0,0.0
3817,71.0,40.0,90.0,1.0,0.0
3818,56.0,60.0,120.0,3.0,0.0
3819,71.0,60.0,60.0,1.0,0.0
3820,47.0,0.0,360.0,5.0,0.0
3821,75.0,60.0,60.0,1.0,0.0
3822,54.0,0.0,120.0,3.0,0.0
3823,73.0,60.0,60.0,1.0,0.0
3824,71.0,60.0,60.0,1.0,0.0
3825,51.0,0.0,120.0,3.0,0.0
3826,70.0,60.0,60.0,1.0,0.0
3827,73.0,60.0,60.0,1.0,0.0
3828,54.0,0.0,120.0,3.0,0.0
3829,71.0,60.0,60.0,1.0,0.0
3830,68.0,240.0,60.0,1.0,0.0
3831,47.0,0.0,360.0,5.0,0.0
3832,66.0,120.0,240.0,1.0,0.0
3833,54.0,0.0,120.0,3.0,0.0
3834,51.0,120.0,120.0,3.0,0.0
3835,54.0,240.0,120.0,3.0,0.0
3836,44.0,215.0,480.0,5.0,0.0
3837,75.0,120.0,120.0,1.0,0.0
3838,76.0,120.0,120.0,1.0,0.0
3839,80.0,0.0,120.0,1.0,0.0
3840,72.0,95.0,240.0,1.0,0.0
3841,66.0,25.0,90.0,4.0,0.0
3842,58.0,0.0,90.0,5.0,0.0
3843,66.0,0.0,90.0,4.0,0.0
3844,58.0,120.0,90.0,5.0,0.0
3845,73.0,240.0,240.0,1.0,0.0
3846,58.0,25.0,90.0,5.0,0.0
3847,66.0,0.0,90.0,4.0,0.0
3848,66.0,0.0,480.0,4.0,0.0
3849,59.0,0.0,480.0,5.0,0.0
3850,74.0,120.0,120.0,1.0,0.0
3851,75.0,120.0,120.0,1.0,0.0
3852,78.0,120.0,120.0,1.0,0.0
3853,70.0,95.0,120.0,1.0,0.0
3854,63.0,0.0,90.0,5.0,0.0
3855,66.0,120.0,90.0,4.0,0.0
3856,71.0,240.0,240.0,1.0,0.0
3857,66.0,120.0,90.0,4.0,0.0
3858,63.0,0.0,90.0,5.0,0.0
3859,66.0,25.0,90.0,4.0,0.0
3860,63.0,0.0,90.0,5.0,0.0
3861,68.0,120.0,480.0,4.0,0.0
3862,64.0,0.0,480.0,5.0,0.0
3863,72.0,120.0,120.0,1.0,0.0
3864,73.0,120.0,120.0,1.0,0.0
3865,76.0,0.0,120.0,1.0,0.0
3866,67.0,120.0,120.0,1.0,0.0
3867,68.0,120.0,120.0,1.0,0.0
3868,54.0,0.0,240.0,5.0,0.0
3869,71.0,120.0,120.0,1.0,0.0
3870,70.0,0.0,120.0,1.0,0.0
3871,73.0,0.0,480.0,1.0,0.0
3872,64.0,480.0,15.0,4.0,0.0
3873,55.0,0.0,480.0,5.0,0.0
3874,63.0,0.0,240.0,4.0,0.0
3875,56.0,480.0,240.0,5.0,0.0
3876,71.0,0.0,240.0,1.0,0.0
3877,49.0,60.0,360.0,5.0,0.0
3878,71.0,0.0,480.0,1.0,0.0
3879,56.0,120.0,120.0,3.0,0.0
3880,53.0,60.0,180.0,3.0,0.0
3881,56.0,120.0,120.0,3.0,0.0
3882,47.0,60.0,360.0,5.0,0.0
3883,70.0,120.0,120.0,1.0,0.0
3884,68.0,120.0,120.0,1.0,0.0
3885,56.0,0.0,120.0,3.0,0.0
3886,49.0,60.0,180.0,3.0,0.0
3887,66.0,0.0,120.0,1.0,0.0
3888,56.0,0.0,120.0,3.0,0.0
3889,65.0,240.0,120.0,1.0,0.0
3890,46.0,60.0,360.0,5.0,0.0
3891,76.0,0.0,480.0,1.0,0.0
3892,54.0,120.0,120.0,3.0,0.0
3893,49.0,60.0,180.0,3.0,0.0
3894,54.0,120.0,120.0,3.0,0.0
3895,52.0,0.0,360.0,5.0,0.0
3896,75.0,120.0,120.0,1.0,0.0
3897,61.0,0.0,120.0,3.0,0.0
3898,73.0,120.0,120.0,1.0,0.0
3899,54.0,60.0,180.0,3.0,0.0
3900,71.0,60.0,120.0,1.0,0.0
3901,61.0,0.0,120.0,3.0,0.0
3902,70.0,120.0,120.0,1.0,0.0
3903,59.0,0.0,240.0,4.0,0.0
3904,71.0,120.0,120.0,1.0,0.0
3905,51.0,0.0,240.0,5.0,0.0
3906,63.0,120.0,120.0,1.0,0.0
3907,61.0,120.0,120.0,1.0,0.0
3908,56.0,0.0,240.0,4.0,0.0
3909,52.0,0.0,240.0,5.0,0.0
3910,68.0,120.0,120.0,1.0,0.0
3911,51.0,120.0,240.0,4.0,0.0
3912,66.0,120.0,120.0,1.0,0.0
3913,42.0,0.0,240.0,5.0,0.0
3914,59.0,0.0,120.0,1.0,0.0
3915,42.0,0.0,240.0,5.0,0.0
3916,64.0,120.0,120.0,1.0,0.0
3917,49.0,0.0,240.0,4.0,0.0
3918,58.0,120.0,120.0,1.0,0.0
3919,47.0,120.0,120.0,5.0,0.0
3920,59.0,240.0,480.0,1.0,0.0
3921,51.0,50.0,120.0,5.0,0.0
3922,54.0,120.0,60.0,5.0,0.0
3923,54.0,70.0,60.0,5.0,0.0
3924,54.0,0.0,240.0,5.0,0.0
3925,76.0,120.0,120.0,1.0,0.0
3926,73.0,120.0,120.0,1.0,0.0
3927,70.0,120.0,120.0,1.0,0.0
3928,78.0,240.0,480.0,1.0,0.0
3929,59.0,120.0,120.0,5.0,0.0
3930,63.0,50.0,120.0,5.0,0.0
3931,66.0,120.0,60.0,5.0,0.0
3932,66.0,70.0,60.0,5.0,0.0
3933,66.0,120.0,240.0,5.0,0.0
3934,76.0,0.0,120.0,1.0,0.0
3935,73.0,120.0,120.0,1.0,0.0
3936,70.0,120.0,120.0,1.0,0.0
3937,71.0,240.0,480.0,1.0,0.0
3938,35.0,120.0,120.0,5.0,0.0
3939,39.0,50.0,120.0,5.0,0.0
3940,42.0,120.0,60.0,5.0,0.0
3941,42.0,70.0,60.0,5.0,0.0
3942,42.0,0.0,240.0,5.0,0.0
3943,64.0,120.0,120.0,1.0,0.0
3944,61.0,120.0,120.0,1.0,0.0
3945,58.0,919.0,120.0,1.0,0.0
3946,52.0,0.0,960.0,2.0,0.0
3947,61.0,433.0,960.0,1.0,0.0
3948,30.0,41.0,930.0,5.0,0.0
3949,42.0,0.0,960.0,5.0,0.0
3950,35.0,47.0,420.0,5.0,0.0
3951,51.0,4200.0,480.0,2.0,0.0
3952,59.0,0.0,480.0,1.0,0.0
3953,66.0,240.0,120.0,1.0,0.0
3954,70.0,320.0,120.0,1.0,0.0
3955,54.0,40.0,450.0,5.0,0.0
3956,61.0,120.0,240.0,3.0,0.0
3957,71.0,320.0,120.0,1.0,0.0
3958,56.0,40.0,450.0,5.0,0.0
3959,61.0,440.0,240.0,3.0,0.0
3960,72.0,95.0,480.0,1.0,0.0
3961,58.0,40.0,450.0,5.0,0.0
3962,61.0,0.0,240.0,3.0,0.0
3963,54.0,40.0,450.0,5.0,0.0
3964,73.0,240.0,90.0,1.0,0.0
3965,61.0,40.0,240.0,3.0,0.0
3966,70.0,105.0,90.0,1.0,0.0
3967,70.0,90.0,90.0,1.0,0.0
3968,68.0,230.0,120.0,1.0,0.0
3969,53.0,40.0,450.0,5.0,0.0
3970,67.0,80.0,120.0,1.0,0.0
3971,61.0,125.0,240.0,3.0,0.0
3972,54.0,40.0,450.0,5.0,0.0
3973,68.0,235.0,120.0,1.0,0.0
3974,61.0,440.0,240.0,3.0,0.0
3975,70.0,80.0,120.0,1.0,0.0
3976,56.0,40.0,450.0,5.0,0.0
3977,73.0,95.0,480.0,1.0,0.0
3978,61.0,0.0,240.0,3.0,0.0
3979,59.0,40.0,450.0,5.0,0.0
3980,71.0,265.0,90.0,1.0,0.0
3981,65.0,80.0,120.0,1.0,0.0
3982,61.0,120.0,240.0,3.0,0.0
3983,58.0,40.0,450.0,5.0,0.0
3984,66.0,320.0,120.0,1.0,0.0
3985,66.0,120.0,480.0,1.0,0.0
3986,61.0,240.0,240.0,3.0,0.0
3987,58.0,40.0,450.0,5.0,0.0
3988,67.0,80.0,120.0,1.0,0.0
3989,61.0,120.0,240.0,3.0,0.0
3990,53.0,40.0,450.0,5.0,0.0
3991,68.0,320.0,120.0,1.0,0.0
3992,61.0,240.0,240.0,3.0,0.0
3993,68.0,120.0,480.0,1.0,0.0
3994,53.0,40.0,450.0,5.0,0.0
3995,61.0,120.0,240.0,3.0,0.0
3996,69.0,80.0,120.0,1.0,0.0
3997,70.0,120.0,120.0,1.0,0.0
3998,54.0,120.0,240.0,5.0,0.0
3999,68.0,120.0,120.0,1.0,0.0
4000,53.0,120.0,240.0,5.0,0.0
4001,54.0,120.0,240.0,5.0,0.0
4002,70.0,120.0,120.0,1.0,0.0
4003,71.0,120.0,120.0,1.0,0.0
4004,68.0,0.0,120.0,2.0,0.0
4005,47.0,480.0,240.0,5.0,0.0
4006,70.0,0.0,480.0,1.0,0.0
4007,49.0,120.0,480.0,5.0,0.0
4008,66.0,0.0,480.0,2.0,0.0
4009,68.0,5.0,120.0,1.0,0.0
4010,65.0,235.0,120.0,2.0,0.0
4011,66.0,120.0,120.0,1.0,0.0
4012,68.0,120.0,120.0,1.0,0.0
4013,70.0,245.0,120.0,1.0,0.0
4014,54.0,115.0,360.0,5.0,0.0
4015,61.0,120.0,240.0,3.0,0.0
4016,71.0,245.0,120.0,1.0,0.0
4017,56.0,115.0,360.0,5.0,0.0
4018,61.0,365.0,240.0,3.0,0.0
4019,72.0,120.0,480.0,1.0,0.0
4020,58.0,115.0,360.0,5.0,0.0
4021,61.0,0.0,240.0,3.0,0.0
4022,54.0,115.0,360.0,5.0,0.0
4023,73.0,240.0,120.0,1.0,0.0
4024,70.0,5.0,120.0,1.0,0.0
4025,61.0,35.0,240.0,3.0,0.0
4026,70.0,65.0,60.0,1.0,0.0
4027,53.0,115.0,360.0,5.0,0.0
4028,68.0,235.0,90.0,1.0,0.0
4029,61.0,95.0,240.0,3.0,0.0
4030,67.0,30.0,90.0,1.0,0.0
4031,54.0,115.0,360.0,5.0,0.0
4032,68.0,240.0,90.0,1.0,0.0
4033,70.0,30.0,90.0,1.0,0.0
4034,61.0,365.0,240.0,3.0,0.0
4035,73.0,95.0,480.0,1.0,0.0
4036,56.0,115.0,360.0,5.0,0.0
4037,61.0,0.0,240.0,3.0,0.0
4038,59.0,30.0,360.0,5.0,0.0
4039,71.0,270.0,90.0,1.0,0.0
4040,61.0,240.0,240.0,3.0,0.0
4041,65.0,85.0,150.0,3.0,0.0
4042,58.0,95.0,480.0,5.0,0.0
4043,66.0,95.0,240.0,1.0,0.0
4044,78.0,145.0,90.0,1.0,0.0
4045,78.0,240.0,90.0,1.0,0.0
4046,78.0,385.0,90.0,1.0,0.0
4047,63.0,0.0,480.0,4.0,0.0
4048,68.0,95.0,240.0,1.0,0.0
4049,59.0,95.0,480.0,5.0,0.0
4050,75.0,145.0,90.0,1.0,0.0
4051,75.0,240.0,90.0,1.0,0.0
4052,75.0,240.0,90.0,1.0,0.0
4053,66.0,240.0,90.0,1.0,0.0
4054,58.0,60.0,480.0,4.0,0.0
4055,49.0,0.0,960.0,5.0,0.0
4056,66.0,145.0,90.0,1.0,0.0
4057,68.0,60.0,60.0,1.0,0.0
4058,59.0,0.0,480.0,4.0,0.0
4059,70.0,60.0,60.0,1.0,0.0
4060,68.0,60.0,60.0,1.0,0.0
4061,66.0,120.0,60.0,1.0,0.0
4062,68.0,120.0,120.0,1.0,0.0
4063,70.0,480.0,120.0,1.0,0.0
4064,54.0,360.0,480.0,5.0,0.0
4065,58.0,0.0,480.0,4.0,0.0
4066,66.0,0.0,480.0,1.0,0.0
4067,66.0,120.0,120.0,1.0,0.0
4068,70.0,120.0,120.0,1.0,0.0
4069,49.0,240.0,240.0,5.0,0.0
4070,73.0,120.0,120.0,1.0,0.0
4071,53.0,120.0,240.0,5.0,0.0
4072,72.0,120.0,120.0,1.0,0.0
4073,51.0,240.0,240.0,5.0,0.0
4074,54.0,120.0,240.0,5.0,0.0
4075,53.0,240.0,240.0,5.0,0.0
4076,80.0,120.0,120.0,1.0,0.0
4077,56.0,240.0,240.0,5.0,0.0
4078,71.0,0.0,480.0,1.0,0.0
4079,54.0,240.0,240.0,5.0,0.0
4080,70.0,240.0,480.0,1.0,0.0
4081,61.0,240.0,240.0,5.0,0.0
4082,59.0,240.0,720.0,5.0,0.0
4083,67.0,240.0,240.0,1.0,0.0
4084,68.0,0.0,240.0,1.0,0.0
4085,60.0,360.0,240.0,5.0,0.0
4086,75.0,0.0,240.0,1.0,0.0
4087,66.0,60.0,360.0,1.0,0.0
4088,61.0,120.0,480.0,5.0,0.0
4089,68.0,60.0,60.0,1.0,0.0
4090,66.0,0.0,60.0,1.0,0.0
4091,65.0,240.0,120.0,1.0,0.0
4092,65.0,120.0,120.0,1.0,0.0
4093,68.0,120.0,120.0,1.0,0.0
4094,49.0,240.0,240.0,5.0,0.0
4095,73.0,120.0,120.0,1.0,0.0
4096,53.0,120.0,240.0,5.0,0.0
4097,72.0,120.0,120.0,1.0,0.0
4098,51.0,240.0,240.0,5.0,0.0
4099,54.0,120.0,240.0,5.0,0.0
4100,80.0,120.0,120.0,1.0,0.0
4101,53.0,240.0,240.0,5.0,0.0
4102,56.0,240.0,240.0,5.0,0.0
4103,71.0,155.0,480.0,1.0,0.0
4104,54.0,0.0,240.0,5.0,0.0
4105,70.0,85.0,150.0,1.0,0.0
4106,61.0,480.0,240.0,5.0,0.0
4107,63.0,0.0,960.0,5.0,0.0
4108,66.0,0.0,960.0,4.0,0.0
4109,78.0,240.0,240.0,1.0,0.0
4110,75.0,240.0,240.0,1.0,0.0
4111,72.0,240.0,240.0,1.0,0.0
4112,73.0,240.0,240.0,1.0,0.0
4113,61.0,0.0,480.0,5.0,0.0
4114,65.0,120.0,480.0,4.0,0.0
4115,77.0,0.0,240.0,1.0,0.0
4116,80.0,240.0,120.0,1.0,0.0
4117,80.0,480.0,120.0,1.0,0.0
4118,63.0,120.0,960.0,5.0,0.0
4119,66.0,0.0,960.0,4.0,0.0
4120,80.0,120.0,120.0,1.0,0.0
4121,78.0,120.0,120.0,1.0,0.0
4122,77.0,120.0,120.0,1.0,0.0
4123,75.0,120.0,120.0,1.0,0.0
4124,73.0,120.0,120.0,1.0,0.0
4125,72.0,0.0,120.0,1.0,0.0
4126,73.0,120.0,120.0,1.0,0.0
4127,61.0,0.0,480.0,5.0,0.0
4128,65.0,120.0,480.0,4.0,0.0
4129,68.0,120.0,120.0,1.0,0.0
4130,73.0,120.0,120.0,1.0,0.0
4131,77.0,0.0,120.0,1.0,0.0
4132,80.0,240.0,120.0,1.0,0.0
4133,80.0,360.0,120.0,1.0,0.0
4134,66.0,0.0,960.0,4.0,0.0
4135,63.0,0.0,960.0,5.0,0.0
4136,77.0,120.0,120.0,1.0,0.0
4137,80.0,120.0,120.0,1.0,0.0
4138,78.0,120.0,120.0,1.0,0.0
4139,77.0,120.0,120.0,1.0,0.0
4140,75.0,120.0,120.0,1.0,0.0
4141,73.0,120.0,120.0,1.0,0.0
4142,72.0,120.0,120.0,1.0,0.0
4143,65.0,120.0,480.0,4.0,0.0
4144,61.0,0.0,480.0,5.0,0.0
4145,73.0,120.0,120.0,1.0,0.0
4146,75.0,120.0,120.0,1.0,0.0
4147,77.0,120.0,120.0,1.0,0.0
4148,75.0,0.0,120.0,1.0,0.0
4149,73.0,120.0,120.0,1.0,0.0
4150,71.0,120.0,120.0,1.0,0.0
4151,70.0,120.0,120.0,1.0,0.0
4152,69.0,120.0,120.0,1.0,0.0
4153,70.0,320.0,120.0,1.0,0.0
4154,54.0,40.0,450.0,5.0,0.0
4155,61.0,120.0,240.0,3.0,0.0
4156,56.0,40.0,450.0,5.0,0.0
4157,71.0,320.0,120.0,1.0,0.0
4158,61.0,440.0,240.0,3.0,0.0
4159,58.0,40.0,450.0,5.0,0.0
4160,72.0,95.0,480.0,1.0,0.0
4161,61.0,0.0,240.0,3.0,0.0
4162,54.0,40.0,450.0,5.0,0.0
4163,73.0,240.0,90.0,1.0,0.0
4164,61.0,40.0,240.0,3.0,0.0
4165,70.0,105.0,90.0,1.0,0.0
4166,70.0,90.0,90.0,1.0,0.0
4167,53.0,40.0,450.0,5.0,0.0
4168,68.0,230.0,120.0,1.0,0.0
4169,67.0,80.0,120.0,1.0,0.0
4170,61.0,125.0,240.0,3.0,0.0
4171,68.0,235.0,120.0,1.0,0.0
4172,54.0,40.0,450.0,5.0,0.0
4173,70.0,80.0,120.0,1.0,0.0
4174,61.0,440.0,240.0,3.0,0.0
4175,56.0,40.0,450.0,5.0,0.0
4176,73.0,95.0,480.0,1.0,0.0
4177,61.0,0.0,240.0,3.0,0.0
4178,71.0,265.0,90.0,1.0,0.0
4179,59.0,40.0,450.0,5.0,0.0
4180,65.0,80.0,120.0,1.0,0.0
4181,61.0,120.0,240.0,3.0,0.0
4182,66.0,320.0,120.0,1.0,0.0
4183,58.0,40.0,450.0,5.0,0.0
4184,66.0,120.0,480.0,1.0,0.0
4185,61.0,240.0,240.0,3.0,0.0
4186,58.0,40.0,450.0,5.0,0.0
4187,61.0,120.0,240.0,3.0,0.0
4188,67.0,80.0,120.0,1.0,0.0
4189,53.0,40.0,450.0,5.0,0.0
4190,68.0,320.0,120.0,1.0,0.0
4191,61.0,240.0,240.0,3.0,0.0
4192,68.0,120.0,480.0,1.0,0.0
4193,53.0,40.0,450.0,5.0,0.0
4194,61.0,120.0,240.0,3.0,0.0
4195,69.0,80.0,120.0,1.0,0.0
4196,70.0,120.0,120.0,1.0,0.0
4197,54.0,120.0,240.0,5.0,0.0
4198,68.0,120.0,120.0,1.0,0.0
4199,53.0,120.0,240.0,5.0,0.0
4200,54.0,120.0,240.0,5.0,0.0
4201,70.0,120.0,120.0,1.0,0.0
4202,47.0,480.0,240.0,5.0,0.0
4203,68.0,120.0,120.0,2.0,0.0
4204,71.0,0.0,120.0,1.0,0.0
4205,70.0,120.0,480.0,1.0,0.0
4206,49.0,0.0,480.0,5.0,0.0
4207,66.0,0.0,480.0,2.0,0.0
4208,65.0,235.0,120.0,2.0,0.0
4209,68.0,5.0,120.0,1.0,0.0
4210,66.0,120.0,120.0,1.0,0.0
4211,68.0,120.0,120.0,1.0,0.0
4212,54.0,115.0,360.0,5.0,0.0
4213,70.0,245.0,120.0,1.0,0.0
4214,61.0,120.0,240.0,3.0,0.0
4215,56.0,115.0,360.0,5.0,0.0
4216,71.0,245.0,120.0,1.0,0.0
4217,61.0,365.0,240.0,3.0,0.0
4218,72.0,120.0,480.0,1.0,0.0
4219,58.0,115.0,360.0,5.0,0.0
4220,61.0,0.0,240.0,3.0,0.0
4221,54.0,115.0,360.0,5.0,0.0
4222,73.0,240.0,120.0,1.0,0.0
4223,61.0,35.0,240.0,3.0,0.0
4224,70.0,5.0,120.0,1.0,0.0
4225,70.0,65.0,60.0,1.0,0.0
4226,68.0,235.0,90.0,1.0,0.0
4227,53.0,115.0,360.0,5.0,0.0
4228,67.0,30.0,90.0,1.0,0.0
4229,61.0,95.0,240.0,3.0,0.0
4230,68.0,240.0,90.0,1.0,0.0
4231,54.0,115.0,360.0,5.0,0.0
4232,61.0,365.0,240.0,3.0,0.0
4233,70.0,30.0,90.0,1.0,0.0
4234,73.0,95.0,480.0,1.0,0.0
4235,56.0,115.0,360.0,5.0,0.0
4236,61.0,0.0,240.0,3.0,0.0
4237,71.0,270.0,90.0,1.0,0.0
4238,59.0,30.0,360.0,5.0,0.0
4239,65.0,85.0,150.0,3.0,0.0
4240,61.0,240.0,240.0,3.0,0.0
4241,58.0,95.0,480.0,5.0,0.0
4242,66.0,95.0,240.0,1.0,0.0
4243,78.0,145.0,90.0,1.0,0.0
4244,78.0,240.0,90.0,1.0,0.0
4245,78.0,385.0,90.0,1.0,0.0
4246,59.0,95.0,480.0,5.0,0.0
4247,68.0,95.0,240.0,1.0,0.0
4248,63.0,0.0,480.0,4.0,0.0
4249,75.0,145.0,90.0,1.0,0.0
4250,75.0,240.0,90.0,1.0,0.0
4251,75.0,240.0,90.0,1.0,0.0
4252,58.0,60.0,480.0,4.0,0.0
4253,66.0,240.0,90.0,1.0,0.0
4254,49.0,480.0,960.0,5.0,0.0
4255,66.0,145.0,90.0,1.0,0.0
4256,59.0,0.0,480.0,4.0,0.0
4257,68.0,60.0,60.0,1.0,0.0
4258,70.0,60.0,60.0,1.0,0.0
4259,68.0,60.0,60.0,1.0,0.0
4260,66.0,120.0,60.0,1.0,0.0
4261,68.0,120.0,120.0,1.0,0.0
4262,70.0,0.0,120.0,1.0,0.0
4263,58.0,0.0,480.0,4.0,0.0
4264,54.0,0.0,480.0,5.0,0.0
4265,66.0,360.0,480.0,1.0,0.0
4266,61.0,240.0,120.0,1.0,0.0
4267,42.0,0.0,720.0,5.0,0.0
4268,70.0,0.0,120.0,1.0,0.0
4269,61.0,310.0,120.0,2.0,0.0
4270,61.0,120.0,480.0,2.0,0.0
4271,54.0,240.0,180.0,4.0,0.0
4272,70.0,0.0,480.0,1.0,0.0
4273,54.0,50.0,180.0,4.0,0.0
4274,58.0,70.0,120.0,2.0,0.0
4275,66.0,0.0,120.0,1.0,0.0
4276,54.0,170.0,180.0,4.0,0.0
4277,63.0,0.0,120.0,2.0,0.0
4278,42.0,120.0,720.0,5.0,0.0
4279,71.0,310.0,120.0,1.0,0.0
4280,63.0,0.0,480.0,2.0,0.0
4281,71.0,0.0,480.0,1.0,0.0
4282,54.0,240.0,180.0,4.0,0.0
4283,54.0,50.0,180.0,4.0,0.0
4284,59.0,70.0,120.0,2.0,0.0
4285,68.0,0.0,120.0,1.0,0.0
4286,54.0,290.0,180.0,4.0,0.0
4287,59.0,240.0,480.0,4.0,0.0
4288,63.0,240.0,240.0,1.0,0.0
4289,66.0,0.0,240.0,1.0,0.0
4290,65.0,240.0,240.0,1.0,0.0
4291,56.0,0.0,480.0,4.0,0.0
4292,68.0,120.0,240.0,1.0,0.0
4293,58.0,0.0,480.0,4.0,0.0
4294,54.0,0.0,15.0,5.0,0.0
4295,66.0,120.0,120.0,1.0,0.0
4296,65.0,120.0,120.0,1.0,0.0
4297,66.0,120.0,120.0,1.0,0.0
4298,68.0,120.0,120.0,1.0,0.0
4299,66.0,240.0,120.0,1.0,0.0
4300,66.0,240.0,120.0,1.0,0.0
4301,73.0,0.0,120.0,1.0,0.0
4302,70.0,310.0,120.0,2.0,0.0
4303,42.0,0.0,720.0,5.0,0.0
4304,73.0,0.0,480.0,1.0,0.0
4305,70.0,120.0,480.0,2.0,0.0
4306,54.0,240.0,180.0,4.0,0.0
4307,54.0,50.0,180.0,4.0,0.0
4308,66.0,70.0,120.0,2.0,0.0
4309,70.0,0.0,120.0,1.0,0.0
4310,54.0,170.0,180.0,4.0,0.0
4311,75.0,310.0,120.0,1.0,0.0
4312,42.0,0.0,720.0,5.0,0.0
4313,71.0,0.0,120.0,2.0,0.0
4314,54.0,240.0,180.0,4.0,0.0
4315,75.0,0.0,480.0,1.0,0.0
4316,71.0,120.0,480.0,2.0,0.0
4317,54.0,50.0,180.0,4.0,0.0
4318,68.0,70.0,120.0,2.0,0.0
4319,71.0,0.0,120.0,1.0,0.0
4320,54.0,290.0,180.0,4.0,0.0
4321,63.0,240.0,480.0,4.0,0.0
4322,66.0,240.0,240.0,1.0,0.0
4323,70.0,0.0,240.0,1.0,0.0
4324,68.0,240.0,240.0,1.0,0.0
4325,65.0,0.0,480.0,4.0,0.0
4326,71.0,0.0,240.0,1.0,0.0
4327,70.0,120.0,120.0,1.0,0.0
4328,66.0,0.0,480.0,4.0,0.0
4329,54.0,120.0,15.0,5.0,0.0
4330,68.0,120.0,120.0,1.0,0.0
4331,70.0,120.0,120.0,1.0,0.0
4332,71.0,0.0,120.0,1.0,0.0
4333,70.0,240.0,120.0,1.0,0.0
4334,70.0,240.0,120.0,1.0,0.0
4335,82.0,120.0,120.0,1.0,0.0
4336,62.0,240.0,240.0,5.0,0.0
4337,65.0,0.0,240.0,5.0,0.0
4338,82.0,240.0,240.0,1.0,0.0
4339,63.0,0.0,240.0,5.0,0.0
4340,78.0,240.0,240.0,1.0,0.0
4341,75.0,240.0,240.0,1.0,0.0
4342,66.0,0.0,240.0,5.0,0.0
4343,74.0,0.0,480.0,1.0,0.0
4344,65.0,240.0,240.0,5.0,0.0
4345,68.0,240.0,240.0,5.0,0.0
4346,66.0,120.0,240.0,5.0,0.0
4347,75.0,0.0,240.0,1.0,0.0
4348,70.0,120.0,240.0,5.0,0.0
4349,82.0,120.0,120.0,1.0,0.0
4350,79.0,120.0,120.0,1.0,0.0
4351,60.0,120.0,240.0,5.0,0.0
4352,80.0,0.0,120.0,1.0,0.0
4353,63.0,120.0,240.0,5.0,0.0
4354,82.0,120.0,120.0,1.0,0.0
4355,80.0,0.0,120.0,1.0,0.0
4356,78.0,120.0,120.0,1.0,0.0
4357,61.0,0.0,240.0,5.0,0.0
4358,77.0,120.0,120.0,1.0,0.0
4359,65.0,0.0,240.0,5.0,0.0
4360,75.0,120.0,120.0,1.0,0.0
4361,73.0,240.0,120.0,1.0,0.0
4362,63.0,240.0,240.0,5.0,0.0
4363,72.0,120.0,480.0,1.0,0.0
4364,66.0,0.0,240.0,5.0,0.0
4365,65.0,120.0,240.0,5.0,0.0
4366,73.0,120.0,120.0,1.0,0.0
4367,68.0,120.0,240.0,5.0,0.0
4368,80.0,120.0,120.0,1.0,0.0
4369,61.0,120.0,480.0,4.0,0.0
4370,53.0,0.0,480.0,5.0,0.0
4371,85.0,120.0,120.0,1.0,0.0
4372,84.0,120.0,120.0,1.0,0.0
4373,82.0,120.0,120.0,1.0,0.0
4374,80.0,0.0,120.0,1.0,0.0
4375,78.0,120.0,120.0,1.0,0.0
4376,77.0,120.0,120.0,1.0,0.0
4377,75.0,120.0,120.0,1.0,0.0
4378,73.0,120.0,120.0,1.0,0.0
4379,63.0,0.0,480.0,4.0,0.0
4380,61.0,120.0,480.0,4.0,0.0
4381,54.0,0.0,480.0,5.0,0.0
4382,82.0,120.0,120.0,1.0,0.0
4383,80.0,120.0,120.0,1.0,0.0
4384,78.0,120.0,120.0,1.0,0.0
4385,77.0,0.0,120.0,1.0,0.0
4386,75.0,120.0,120.0,1.0,0.0
4387,73.0,120.0,120.0,1.0,0.0
4388,72.0,120.0,120.0,1.0,0.0
4389,70.0,120.0,120.0,1.0,0.0
4390,56.0,480.0,960.0,5.0,0.0
4391,68.0,120.0,120.0,1.0,0.0
4392,65.0,120.0,480.0,4.0,0.0
4393,73.0,120.0,120.0,1.0,0.0
4394,77.0,120.0,120.0,1.0,0.0
4395,80.0,0.0,120.0,1.0,0.0
4396,80.0,120.0,120.0,1.0,0.0
4397,78.0,120.0,120.0,1.0,0.0
4398,77.0,120.0,120.0,1.0,0.0
4399,75.0,0.0,120.0,1.0,0.0
4400,75.0,0.0,480.0,1.0,0.0
4401,66.0,0.0,15.0,4.0,0.0
4402,61.0,120.0,720.0,5.0,0.0
4403,65.0,0.0,240.0,4.0,0.0
4404,73.0,0.0,240.0,1.0,0.0
4405,61.0,240.0,120.0,1.0,0.0
4406,42.0,120.0,720.0,5.0,0.0
4407,61.0,310.0,120.0,2.0,0.0
4408,70.0,0.0,120.0,1.0,0.0
4409,54.0,240.0,180.0,4.0,0.0
4410,61.0,0.0,480.0,2.0,0.0
4411,70.0,0.0,480.0,1.0,0.0
4412,54.0,50.0,180.0,4.0,0.0
4413,54.0,170.0,180.0,4.0,0.0
4414,58.0,0.0,120.0,2.0,0.0
4415,66.0,70.0,120.0,1.0,0.0
4416,63.0,0.0,120.0,2.0,0.0
4417,42.0,0.0,720.0,5.0,0.0
4418,71.0,310.0,120.0,1.0,0.0
4419,71.0,0.0,480.0,1.0,0.0
4420,54.0,240.0,180.0,4.0,0.0
4421,63.0,120.0,480.0,2.0,0.0
4422,54.0,50.0,180.0,4.0,0.0
4423,68.0,0.0,120.0,1.0,0.0
4424,54.0,290.0,180.0,4.0,0.0
4425,59.0,70.0,120.0,2.0,0.0
4426,63.0,240.0,240.0,1.0,0.0
4427,59.0,240.0,480.0,4.0,0.0
4428,66.0,0.0,240.0,1.0,0.0
4429,56.0,0.0,480.0,4.0,0.0
4430,65.0,240.0,240.0,1.0,0.0
4431,68.0,0.0,240.0,1.0,0.0
4432,54.0,120.0,15.0,5.0,0.0
4433,58.0,0.0,480.0,4.0,0.0
4434,66.0,120.0,120.0,1.0,0.0
4435,65.0,120.0,120.0,1.0,0.0
4436,66.0,120.0,120.0,1.0,0.0
4437,68.0,0.0,120.0,1.0,0.0
4438,66.0,240.0,120.0,1.0,0.0
4439,66.0,240.0,120.0,1.0,0.0
4440,73.0,310.0,120.0,1.0,0.0
4441,70.0,0.0,120.0,2.0,0.0
4442,42.0,0.0,720.0,5.0,0.0
4443,70.0,120.0,480.0,2.0,0.0
4444,73.0,0.0,480.0,1.0,0.0
4445,54.0,240.0,180.0,4.0,0.0
4446,54.0,50.0,180.0,4.0,0.0
4447,70.0,70.0,120.0,1.0,0.0
4448,54.0,170.0,180.0,4.0,0.0
4449,66.0,0.0,120.0,2.0,0.0
4450,71.0,0.0,120.0,2.0,0.0
4451,42.0,120.0,720.0,5.0,0.0
4452,75.0,310.0,120.0,1.0,0.0
4453,71.0,0.0,480.0,2.0,0.0
4454,75.0,0.0,480.0,1.0,0.0
4455,54.0,240.0,180.0,4.0,0.0
4456,54.0,50.0,180.0,4.0,0.0
4457,68.0,0.0,120.0,2.0,0.0
4458,71.0,70.0,120.0,1.0,0.0
4459,54.0,290.0,180.0,4.0,0.0
4460,66.0,240.0,240.0,1.0,0.0
4461,63.0,240.0,480.0,4.0,0.0
4462,54.0,0.0,960.0,5.0,0.0
4463,70.0,0.0,240.0,1.0,0.0
4464,65.0,120.0,480.0,4.0,0.0
4465,68.0,240.0,240.0,1.0,0.0
4466,71.0,0.0,240.0,1.0,0.0
4467,70.0,120.0,120.0,1.0,0.0
4468,54.0,120.0,480.0,5.0,0.0
4469,66.0,0.0,480.0,4.0,0.0
4470,68.0,120.0,120.0,1.0,0.0
4471,70.0,120.0,120.0,1.0,0.0
4472,71.0,0.0,120.0,1.0,0.0
4473,70.0,240.0,120.0,1.0,0.0
4474,70.0,240.0,120.0,1.0,0.0
4475,82.0,120.0,120.0,1.0,0.0
4476,62.0,240.0,240.0,5.0,0.0
4477,82.0,240.0,240.0,1.0,0.0
4478,65.0,0.0,240.0,5.0,0.0
4479,63.0,0.0,240.0,5.0,0.0
4480,78.0,240.0,240.0,1.0,0.0
4481,75.0,0.0,240.0,1.0,0.0
4482,66.0,240.0,240.0,5.0,0.0
4483,74.0,240.0,480.0,1.0,0.0
4484,65.0,240.0,240.0,5.0,0.0
4485,68.0,0.0,240.0,5.0,0.0
4486,75.0,120.0,240.0,1.0,0.0
4487,66.0,0.0,240.0,5.0,0.0
4488,70.0,120.0,240.0,5.0,0.0
4489,82.0,120.0,120.0,1.0,0.0
4490,60.0,120.0,240.0,5.0,0.0
4491,79.0,120.0,120.0,1.0,0.0
4492,80.0,0.0,120.0,1.0,0.0
4493,82.0,120.0,120.0,1.0,0.0
4494,63.0,120.0,240.0,5.0,0.0
4495,80.0,0.0,120.0,1.0,0.0
4496,78.0,120.0,120.0,1.0,0.0
4497,61.0,0.0,240.0,5.0,0.0
4498,77.0,120.0,120.0,1.0,0.0
4499,65.0,240.0,240.0,5.0,0.0
4500,75.0,120.0,120.0,1.0,0.0
4501,73.0,0.0,120.0,1.0,0.0
4502,72.0,120.0,480.0,1.0,0.0
4503,63.0,240.0,240.0,5.0,0.0
4504,66.0,0.0,240.0,5.0,0.0
4505,73.0,120.0,120.0,1.0,0.0
4506,65.0,120.0,240.0,5.0,0.0
4507,80.0,120.0,120.0,1.0,0.0
4508,68.0,120.0,240.0,5.0,0.0
4509,61.0,0.0,480.0,4.0,0.0
4510,85.0,120.0,120.0,1.0,0.0
4511,53.0,120.0,480.0,5.0,0.0
4512,84.0,120.0,120.0,1.0,0.0
4513,82.0,120.0,120.0,1.0,0.0
4514,80.0,0.0,120.0,1.0,0.0
4515,78.0,120.0,120.0,1.0,0.0
4516,77.0,120.0,120.0,1.0,0.0
4517,75.0,120.0,120.0,1.0,0.0
4518,73.0,120.0,120.0,1.0,0.0
4519,63.0,120.0,480.0,4.0,0.0
4520,82.0,120.0,120.0,1.0,0.0
4521,61.0,0.0,480.0,4.0,0.0
4522,54.0,0.0,480.0,5.0,0.0
4523,80.0,120.0,120.0,1.0,0.0
4524,78.0,120.0,120.0,1.0,0.0
4525,77.0,0.0,120.0,1.0,0.0
4526,75.0,120.0,120.0,1.0,0.0
4527,73.0,120.0,120.0,1.0,0.0
4528,72.0,120.0,120.0,1.0,0.0
4529,70.0,120.0,120.0,1.0,0.0
4530,65.0,0.0,480.0,4.0,0.0
4531,56.0,480.0,960.0,5.0,0.0
4532,68.0,120.0,120.0,1.0,0.0
4533,73.0,120.0,120.0,1.0,0.0
4534,77.0,120.0,120.0,1.0,0.0
4535,80.0,120.0,120.0,1.0,0.0
4536,80.0,120.0,120.0,1.0,0.0
4537,78.0,120.0,120.0,1.0,0.0
4538,77.0,120.0,120.0,1.0,0.0
4539,75.0,0.0,120.0,1.0,0.0
4540,75.0,0.0,480.0,1.0,0.0
4541,61.0,0.0,720.0,5.0,0.0
4542,66.0,0.0,15.0,4.0,0.0
4543,73.0,120.0,240.0,1.0,0.0
4544,65.0,0.0,240.0,4.0,0.0
4545,61.0,240.0,120.0,1.0,0.0
4546,34.0,0.0,720.0,5.0,0.0
4547,73.0,310.0,120.0,1.0,0.0
4548,70.0,0.0,120.0,2.0,0.0
4549,46.0,240.0,180.0,4.0,0.0
4550,73.0,120.0,480.0,1.0,0.0
4551,70.0,0.0,480.0,2.0,0.0
4552,46.0,50.0,180.0,4.0,0.0
4553,73.0,0.0,120.0,2.0,0.0
4554,76.0,70.0,120.0,1.0,0.0
4555,46.0,170.0,180.0,4.0,0.0
4556,39.0,0.0,720.0,5.0,0.0
4557,67.0,0.0,120.0,2.0,0.0
4558,70.0,310.0,120.0,1.0,0.0
4559,51.0,240.0,180.0,4.0,0.0
4560,67.0,0.0,480.0,2.0,0.0
4561,70.0,120.0,480.0,1.0,0.0
4562,51.0,50.0,180.0,4.0,0.0
4563,51.0,170.0,180.0,4.0,0.0
4564,70.0,0.0,120.0,2.0,0.0
4565,73.0,70.0,120.0,1.0,0.0
4566,68.0,310.0,120.0,2.0,0.0
4567,32.0,120.0,720.0,5.0,0.0
4568,71.0,0.0,120.0,1.0,0.0
4569,68.0,0.0,480.0,2.0,0.0
4570,71.0,0.0,480.0,1.0,0.0
4571,44.0,240.0,180.0,4.0,0.0
4572,44.0,50.0,180.0,4.0,0.0
4573,71.0,0.0,120.0,2.0,0.0
4574,44.0,170.0,180.0,4.0,0.0
4575,75.0,70.0,120.0,1.0,0.0
4576,37.0,120.0,720.0,5.0,0.0
4577,65.0,310.0,120.0,2.0,0.0
4578,68.0,0.0,120.0,1.0,0.0
4579,68.0,0.0,480.0,1.0,0.0
4580,49.0,240.0,180.0,4.0,0.0
4581,65.0,0.0,480.0,2.0,0.0
4582,49.0,50.0,180.0,4.0,0.0
4583,71.0,0.0,120.0,1.0,0.0
4584,49.0,170.0,180.0,4.0,0.0
4585,68.0,70.0,120.0,2.0,0.0
4586,71.0,120.0,120.0,1.0,0.0
4587,54.0,120.0,240.0,5.0,0.0
4588,69.0,0.0,120.0,1.0,0.0
4589,57.0,120.0,240.0,5.0,0.0
4590,68.0,120.0,120.0,1.0,0.0
4591,66.0,0.0,120.0,1.0,0.0
4592,65.0,120.0,120.0,1.0,0.0
4593,54.0,0.0,240.0,5.0,0.0
4594,66.0,120.0,120.0,1.0,0.0
4595,52.0,0.0,240.0,5.0,0.0
4596,68.0,120.0,120.0,1.0,0.0
4597,66.0,120.0,120.0,1.0,0.0
4598,50.0,120.0,240.0,5.0,0.0
4599,71.0,120.0,120.0,1.0,0.0
4600,69.0,0.0,120.0,1.0,0.0
4601,68.0,120.0,120.0,1.0,0.0
4602,54.0,120.0,240.0,5.0,0.0
4603,66.0,0.0,120.0,1.0,0.0
4604,50.0,0.0,240.0,5.0,0.0
4605,65.0,120.0,120.0,1.0,0.0
4606,66.0,120.0,120.0,1.0,0.0
4607,68.0,120.0,120.0,1.0,0.0
4608,49.0,0.0,240.0,5.0,0.0
4609,66.0,120.0,120.0,1.0,0.0
4610,78.0,120.0,120.0,1.0,0.0
4611,48.0,480.0,240.0,5.0,0.0
4612,78.0,120.0,480.0,1.0,0.0
4613,56.0,0.0,480.0,5.0,0.0
4614,63.0,480.0,480.0,4.0,0.0
4615,66.0,0.0,120.0,2.0,0.0
4616,72.0,120.0,120.0,1.0,0.0
4617,75.0,0.0,480.0,1.0,0.0
4618,66.0,120.0,480.0,2.0,0.0
4619,61.0,0.0,480.0,5.0,0.0
4620,65.0,0.0,120.0,2.0,0.0
4621,73.0,240.0,120.0,1.0,0.0
4622,61.0,240.0,120.0,1.0,0.0
4623,70.0,0.0,120.0,1.0,0.0
4624,42.0,185.0,240.0,5.0,0.0
4625,61.0,125.0,120.0,2.0,0.0
4626,61.0,0.0,480.0,2.0,0.0
4627,70.0,120.0,480.0,1.0,0.0
4628,54.0,240.0,180.0,4.0,0.0
4629,54.0,50.0,180.0,4.0,0.0
4630,58.0,0.0,120.0,2.0,0.0
4631,66.0,70.0,120.0,1.0,0.0
4632,54.0,170.0,180.0,4.0,0.0
4633,63.0,0.0,120.0,2.0,0.0
4634,42.0,185.0,240.0,5.0,0.0
4635,71.0,125.0,120.0,1.0,0.0
4636,71.0,0.0,480.0,1.0,0.0
4637,63.0,120.0,480.0,2.0,0.0
4638,54.0,240.0,180.0,4.0,0.0
4639,54.0,50.0,180.0,4.0,0.0
4640,54.0,290.0,180.0,4.0,0.0
4641,68.0,0.0,120.0,1.0,0.0
4642,59.0,70.0,120.0,2.0,0.0
4643,54.0,120.0,960.0,5.0,0.0
4644,63.0,240.0,240.0,1.0,0.0
4645,59.0,0.0,480.0,4.0,0.0
4646,66.0,240.0,240.0,1.0,0.0
4647,65.0,240.0,240.0,1.0,0.0
4648,56.0,0.0,480.0,4.0,0.0
4649,68.0,0.0,240.0,1.0,0.0
4650,54.0,0.0,480.0,5.0,0.0
4651,66.0,120.0,120.0,1.0,0.0
4652,58.0,0.0,480.0,4.0,0.0
4653,65.0,120.0,120.0,1.0,0.0
4654,66.0,120.0,120.0,1.0,0.0
4655,68.0,120.0,120.0,1.0,0.0
4656,66.0,240.0,120.0,1.0,0.0
4657,66.0,240.0,120.0,1.0,0.0
4658,70.0,0.0,120.0,2.0,0.0
4659,42.0,185.0,240.0,5.0,0.0
4660,73.0,125.0,120.0,1.0,0.0
4661,73.0,0.0,480.0,1.0,0.0
4662,70.0,120.0,480.0,2.0,0.0
4663,54.0,240.0,180.0,4.0,0.0
4664,54.0,50.0,180.0,4.0,0.0
4665,70.0,0.0,120.0,1.0,0.0
4666,54.0,170.0,180.0,4.0,0.0
4667,66.0,70.0,120.0,2.0,0.0
4668,42.0,185.0,240.0,5.0,0.0
4669,75.0,125.0,120.0,1.0,0.0
4670,71.0,0.0,120.0,2.0,0.0
4671,71.0,0.0,480.0,2.0,0.0
4672,75.0,120.0,480.0,1.0,0.0
4673,54.0,240.0,180.0,4.0,0.0
4674,54.0,50.0,180.0,4.0,0.0
4675,71.0,70.0,120.0,1.0,0.0
4676,54.0,290.0,180.0,4.0,0.0
4677,68.0,0.0,120.0,2.0,0.0
4678,63.0,0.0,480.0,4.0,0.0
4679,54.0,120.0,960.0,5.0,0.0
4680,66.0,240.0,240.0,1.0,0.0
4681,70.0,240.0,240.0,1.0,0.0
4682,65.0,0.0,480.0,4.0,0.0
4683,68.0,240.0,240.0,1.0,0.0
4684,71.0,0.0,240.0,1.0,0.0
4685,70.0,120.0,120.0,1.0,0.0
4686,54.0,0.0,480.0,5.0,0.0
4687,66.0,0.0,480.0,4.0,0.0
4688,68.0,120.0,120.0,1.0,0.0
4689,70.0,120.0,120.0,1.0,0.0
4690,71.0,120.0,120.0,1.0,0.0
4691,70.0,240.0,120.0,1.0,0.0
4692,66.0,240.0,120.0,1.0,0.0
4693,75.0,120.0,120.0,1.0,0.0
4694,55.0,240.0,240.0,5.0,0.0
4695,75.0,0.0,240.0,1.0,0.0
4696,58.0,240.0,240.0,5.0,0.0
4697,71.0,0.0,240.0,1.0,0.0
4698,56.0,240.0,240.0,5.0,0.0
4699,68.0,0.0,240.0,1.0,0.0
4700,59.0,240.0,240.0,5.0,0.0
4701,67.0,120.0,480.0,1.0,0.0
4702,58.0,240.0,240.0,5.0,0.0
4703,61.0,0.0,240.0,5.0,0.0
4704,59.0,120.0,240.0,5.0,0.0
4705,68.0,120.0,120.0,1.0,0.0
4706,75.0,120.0,120.0,1.0,0.0
4707,63.0,120.0,240.0,5.0,0.0
4708,72.0,120.0,120.0,1.0,0.0
4709,53.0,0.0,240.0,5.0,0.0
4710,73.0,120.0,120.0,1.0,0.0
4711,56.0,0.0,240.0,5.0,0.0
4712,75.0,120.0,120.0,1.0,0.0
4713,73.0,120.0,120.0,1.0,0.0
4714,54.0,0.0,240.0,5.0,0.0
4715,71.0,120.0,120.0,1.0,0.0
4716,70.0,120.0,120.0,1.0,0.0
4717,68.0,120.0,120.0,1.0,0.0
4718,58.0,0.0,240.0,5.0,0.0
4719,66.0,240.0,120.0,1.0,0.0
4720,56.0,240.0,240.0,5.0,0.0
4721,65.0,120.0,480.0,1.0,0.0
4722,59.0,0.0,240.0,5.0,0.0
4723,58.0,120.0,240.0,5.0,0.0
4724,66.0,120.0,120.0,1.0,0.0
4725,61.0,120.0,240.0,5.0,0.0
4726,73.0,120.0,120.0,1.0,0.0
4727,78.0,120.0,120.0,1.0,0.0
4728,46.0,0.0,480.0,5.0,0.0
4729,49.0,0.0,480.0,4.0,0.0
4730,54.0,0.0,480.0,4.0,0.0
4731,77.0,120.0,120.0,1.0,0.0
4732,75.0,120.0,120.0,1.0,0.0
4733,73.0,120.0,120.0,1.0,0.0
4734,71.0,120.0,120.0,1.0,0.0
4735,70.0,120.0,120.0,1.0,0.0
4736,68.0,120.0,120.0,1.0,0.0
4737,66.0,120.0,120.0,1.0,0.0
4738,75.0,120.0,120.0,1.0,0.0
4739,56.0,0.0,480.0,4.0,0.0
4740,54.0,120.0,480.0,4.0,0.0
4741,47.0,0.0,480.0,5.0,0.0
4742,73.0,120.0,120.0,1.0,0.0
4743,71.0,120.0,120.0,1.0,0.0
4744,70.0,0.0,120.0,1.0,0.0
4745,68.0,120.0,120.0,1.0,0.0
4746,66.0,120.0,120.0,1.0,0.0
4747,65.0,120.0,120.0,1.0,0.0
4748,63.0,120.0,120.0,1.0,0.0
4749,61.0,120.0,120.0,1.0,0.0
4750,49.0,0.0,960.0,5.0,0.0
4751,58.0,120.0,480.0,4.0,0.0
4752,66.0,120.0,120.0,1.0,0.0
4753,70.0,120.0,120.0,1.0,0.0
4754,73.0,0.0,120.0,1.0,0.0
4755,73.0,120.0,120.0,1.0,0.0
4756,71.0,120.0,120.0,1.0,0.0
4757,70.0,120.0,120.0,1.0,0.0
4758,68.0,480.0,120.0,1.0,0.0
4759,59.0,0.0,15.0,4.0,0.0
4760,54.0,0.0,600.0,5.0,0.0
4761,68.0,120.0,480.0,1.0,0.0
4762,66.0,0.0,120.0,1.0,0.0
4763,58.0,240.0,120.0,4.0,0.0
4764,61.0,240.0,120.0,1.0,0.0
4765,73.0,310.0,120.0,1.0,0.0
4766,70.0,0.0,120.0,2.0,0.0
4767,34.0,120.0,720.0,5.0,0.0
4768,70.0,0.0,480.0,2.0,0.0
4769,46.0,240.0,180.0,4.0,0.0
4770,73.0,0.0,480.0,1.0,0.0
4771,46.0,50.0,180.0,4.0,0.0
4772,46.0,170.0,180.0,4.0,0.0
4773,76.0,0.0,120.0,1.0,0.0
4774,73.0,70.0,120.0,2.0,0.0
4775,67.0,0.0,120.0,2.0,0.0
4776,70.0,310.0,120.0,1.0,0.0
4777,39.0,120.0,720.0,5.0,0.0
4778,67.0,0.0,480.0,2.0,0.0
4779,51.0,240.0,180.0,4.0,0.0
4780,70.0,0.0,480.0,1.0,0.0
4781,51.0,50.0,180.0,4.0,0.0
4782,70.0,70.0,120.0,2.0,0.0
4783,73.0,0.0,120.0,1.0,0.0
4784,51.0,170.0,180.0,4.0,0.0
4785,71.0,310.0,120.0,1.0,0.0
4786,68.0,0.0,120.0,2.0,0.0
4787,32.0,0.0,720.0,5.0,0.0
4788,68.0,120.0,480.0,2.0,0.0
4789,71.0,0.0,480.0,1.0,0.0
4790,44.0,240.0,180.0,4.0,0.0
4791,44.0,50.0,180.0,4.0,0.0
4792,75.0,70.0,120.0,1.0,0.0
4793,71.0,0.0,120.0,2.0,0.0
4794,44.0,170.0,180.0,4.0,0.0
4795,37.0,0.0,720.0,5.0,0.0
4796,65.0,0.0,120.0,2.0,0.0
4797,68.0,310.0,120.0,1.0,0.0
4798,68.0,0.0,480.0,1.0,0.0
4799,49.0,240.0,180.0,4.0,0.0
4800,65.0,120.0,480.0,2.0,0.0
4801,49.0,50.0,180.0,4.0,0.0
4802,68.0,70.0,120.0,2.0,0.0
4803,49.0,170.0,180.0,4.0,0.0
4804,71.0,0.0,120.0,1.0,0.0
4805,54.0,0.0,240.0,5.0,0.0
4806,71.0,120.0,120.0,1.0,0.0
4807,69.0,120.0,120.0,1.0,0.0
4808,68.0,120.0,120.0,1.0,0.0
4809,57.0,0.0,240.0,5.0,0.0
4810,66.0,120.0,120.0,1.0,0.0
4811,54.0,0.0,240.0,5.0,0.0
4812,65.0,120.0,120.0,1.0,0.0
4813,66.0,120.0,120.0,1.0,0.0
4814,68.0,120.0,120.0,1.0,0.0
4815,52.0,120.0,240.0,5.0,0.0
4816,66.0,0.0,120.0,1.0,0.0
4817,50.0,120.0,240.0,5.0,0.0
4818,71.0,120.0,120.0,1.0,0.0
4819,69.0,0.0,120.0,1.0,0.0
4820,54.0,0.0,240.0,5.0,0.0
4821,68.0,120.0,120.0,1.0,0.0
4822,66.0,120.0,120.0,1.0,0.0
4823,50.0,0.0,240.0,5.0,0.0
4824,65.0,120.0,120.0,1.0,0.0
4825,66.0,120.0,120.0,1.0,0.0
4826,49.0,0.0,240.0,5.0,0.0
4827,68.0,120.0,120.0,1.0,0.0
4828,66.0,120.0,120.0,1.0,0.0
4829,78.0,120.0,120.0,1.0,0.0
4830,48.0,480.0,240.0,5.0,0.0
4831,78.0,120.0,480.0,1.0,0.0
4832,56.0,0.0,480.0,5.0,0.0
4833,63.0,480.0,480.0,4.0,0.0
4834,72.0,0.0,120.0,1.0,0.0
4835,66.0,120.0,120.0,2.0,0.0
4836,61.0,0.0,480.0,5.0,0.0
4837,66.0,120.0,480.0,2.0,0.0
4838,75.0,0.0,480.0,1.0,0.0
4839,73.0,0.0,120.0,1.0,0.0
4840,65.0,240.0,120.0,2.0,0.0
4841,61.0,240.0,120.0,1.0,0.0
4842,70.0,125.0,120.0,1.0,0.0
4843,61.0,0.0,120.0,2.0,0.0
4844,42.0,185.0,240.0,5.0,0.0
4845,61.0,120.0,480.0,2.0,0.0
4846,70.0,0.0,480.0,1.0,0.0
4847,54.0,240.0,180.0,4.0,0.0
4848,54.0,50.0,180.0,4.0,0.0
4849,66.0,0.0,120.0,1.0,0.0
4850,54.0,170.0,180.0,4.0,0.0
4851,58.0,70.0,120.0,2.0,0.0
4852,71.0,0.0,120.0,1.0,0.0
4853,42.0,185.0,240.0,5.0,0.0
4854,63.0,125.0,120.0,2.0,0.0
4855,71.0,0.0,480.0,1.0,0.0
4856,63.0,120.0,480.0,2.0,0.0
4857,54.0,240.0,180.0,4.0,0.0
4858,54.0,50.0,180.0,4.0,0.0
4859,54.0,290.0,180.0,4.0,0.0
4860,59.0,70.0,120.0,2.0,0.0
4861,68.0,0.0,120.0,1.0,0.0
4862,54.0,120.0,960.0,5.0,0.0
4863,59.0,0.0,480.0,4.0,0.0
4864,63.0,240.0,240.0,1.0,0.0
4865,66.0,240.0,240.0,1.0,0.0
4866,65.0,240.0,240.0,1.0,0.0
4867,56.0,0.0,480.0,4.0,0.0
4868,68.0,0.0,240.0,1.0,0.0
4869,66.0,120.0,120.0,1.0,0.0
4870,58.0,120.0,480.0,4.0,0.0
4871,54.0,0.0,480.0,5.0,0.0
4872,65.0,120.0,120.0,1.0,0.0
4873,66.0,120.0,120.0,1.0,0.0
4874,68.0,0.0,120.0,1.0,0.0
4875,66.0,240.0,120.0,1.0,0.0
4876,66.0,240.0,120.0,1.0,0.0
4877,73.0,0.0,120.0,1.0,0.0
4878,42.0,185.0,240.0,5.0,0.0
4879,70.0,125.0,120.0,2.0,0.0
4880,73.0,120.0,480.0,1.0,0.0
4881,54.0,240.0,180.0,4.0,0.0
4882,70.0,0.0,480.0,2.0,0.0
4883,54.0,50.0,180.0,4.0,0.0
4884,66.0,0.0,120.0,2.0,0.0
4885,70.0,70.0,120.0,1.0,0.0
4886,54.0,170.0,180.0,4.0,0.0
4887,42.0,185.0,240.0,5.0,0.0
4888,71.0,125.0,120.0,2.0,0.0
4889,75.0,0.0,120.0,1.0,0.0
4890,75.0,120.0,480.0,1.0,0.0
4891,71.0,0.0,480.0,2.0,0.0
4892,54.0,240.0,180.0,4.0,0.0
4893,54.0,50.0,180.0,4.0,0.0
4894,71.0,0.0,120.0,1.0,0.0
4895,68.0,70.0,120.0,2.0,0.0
4896,54.0,290.0,180.0,4.0,0.0
4897,66.0,240.0,240.0,1.0,0.0
4898,63.0,0.0,480.0,4.0,0.0
4899,70.0,240.0,240.0,1.0,0.0
4900,65.0,0.0,480.0,4.0,0.0
4901,68.0,240.0,240.0,1.0,0.0
4902,71.0,0.0,240.0,1.0,0.0
4903,70.0,120.0,120.0,1.0,0.0
4904,54.0,120.0,15.0,5.0,0.0
4905,66.0,120.0,480.0,4.0,0.0
4906,68.0,120.0,120.0,1.0,0.0
4907,70.0,120.0,120.0,1.0,0.0
4908,71.0,0.0,120.0,1.0,0.0
4909,70.0,240.0,120.0,1.0,0.0
4910,66.0,240.0,120.0,1.0,0.0
4911,55.0,240.0,240.0,5.0,0.0
4912,75.0,120.0,120.0,1.0,0.0
4913,58.0,240.0,240.0,5.0,0.0
4914,75.0,0.0,240.0,1.0,0.0
4915,71.0,240.0,240.0,1.0,0.0
4916,56.0,0.0,240.0,5.0,0.0
4917,59.0,0.0,240.0,5.0,0.0
4918,68.0,240.0,240.0,1.0,0.0
4919,58.0,240.0,240.0,5.0,0.0
4920,67.0,120.0,480.0,1.0,0.0
4921,61.0,0.0,240.0,5.0,0.0
4922,59.0,120.0,240.0,5.0,0.0
4923,68.0,120.0,120.0,1.0,0.0
4924,75.0,120.0,120.0,1.0,0.0
4925,63.0,120.0,240.0,5.0,0.0
4926,72.0,120.0,120.0,1.0,0.0
4927,53.0,0.0,240.0,5.0,0.0
4928,73.0,120.0,120.0,1.0,0.0
4929,56.0,0.0,240.0,5.0,0.0
4930,75.0,120.0,120.0,1.0,0.0
4931,73.0,120.0,120.0,1.0,0.0
4932,71.0,120.0,120.0,1.0,0.0
4933,54.0,120.0,240.0,5.0,0.0
4934,70.0,0.0,120.0,1.0,0.0
4935,58.0,0.0,240.0,5.0,0.0
4936,68.0,120.0,120.0,1.0,0.0
4937,66.0,240.0,120.0,1.0,0.0
4938,65.0,0.0,480.0,1.0,0.0
4939,56.0,240.0,240.0,5.0,0.0
4940,59.0,120.0,240.0,5.0,0.0
4941,66.0,120.0,120.0,1.0,0.0
4942,58.0,120.0,240.0,5.0,0.0
4943,73.0,120.0,120.0,1.0,0.0
4944,61.0,120.0,240.0,5.0,0.0
4945,49.0,120.0,480.0,4.0,0.0
4946,54.0,0.0,480.0,4.0,0.0
4947,46.0,0.0,480.0,5.0,0.0
4948,78.0,120.0,120.0,1.0,0.0
4949,77.0,120.0,120.0,1.0,0.0
4950,75.0,120.0,120.0,1.0,0.0
4951,73.0,0.0,120.0,1.0,0.0
4952,71.0,120.0,120.0,1.0,0.0
4953,70.0,120.0,120.0,1.0,0.0
4954,68.0,120.0,120.0,1.0,0.0
4955,66.0,120.0,120.0,1.0,0.0
4956,47.0,0.0,480.0,5.0,0.0
4957,54.0,0.0,480.0,4.0,0.0
4958,56.0,0.0,480.0,4.0,0.0
4959,75.0,120.0,120.0,1.0,0.0
4960,73.0,120.0,120.0,1.0,0.0
4961,71.0,120.0,120.0,1.0,0.0
4962,70.0,120.0,120.0,1.0,0.0
4963,68.0,120.0,120.0,1.0,0.0
4964,66.0,120.0,120.0,1.0,0.0
4965,65.0,120.0,120.0,1.0,0.0
4966,63.0,120.0,120.0,1.0,0.0
4967,49.0,0.0,960.0,5.0,0.0
4968,58.0,0.0,480.0,4.0,0.0
4969,61.0,120.0,120.0,1.0,0.0
4970,66.0,120.0,120.0,1.0,0.0
4971,70.0,120.0,120.0,1.0,0.0
4972,73.0,120.0,15.0,1.0,0.0
4973,71.0,120.0,120.0,1.0,0.0
4974,70.0,120.0,120.0,1.0,0.0
4975,68.0,0.0,120.0,1.0,0.0
4976,59.0,480.0,15.0,4.0,0.0
4977,68.0,120.0,480.0,1.0,0.0
4978,54.0,240.0,600.0,5.0,0.0
4979,58.0,0.0,120.0,4.0,0.0
4980,66.0,0.0,120.0,1.0,0.0
4981,66.0,120.0,120.0,1.0,0.0
4982,68.0,480.0,120.0,1.0,0.0
4983,70.0,0.0,480.0,1.0,0.0
4984,54.0,240.0,240.0,5.0,0.0
4985,58.0,0.0,15.0,4.0,0.0
4986,54.0,120.0,240.0,5.0,0.0
4987,70.0,120.0,120.0,1.0,0.0
4988,71.0,480.0,120.0,1.0,0.0
4989,73.0,240.0,480.0,1.0,0.0
4990,58.0,0.0,240.0,4.0,0.0
4991,54.0,0.0,15.0,5.0,0.0
4992,58.0,120.0,240.0,4.0,0.0
4993,73.0,120.0,120.0,1.0,0.0
4994,75.0,190.0,120.0,1.0,0.0
4995,76.0,240.0,180.0,1.0,0.0
4996,73.0,240.0,180.0,1.0,0.0
4997,70.0,240.0,180.0,1.0,0.0
4998,66.0,205.0,180.0,1.0,0.0
4999,65.0,240.0,150.0,1.0,0.0
5000,66.0,240.0,150.0,1.0,0.0
5001,64.0,240.0,150.0,1.0,0.0
5002,61.0,205.0,150.0,1.0,0.0
5003,59.0,240.0,120.0,1.0,0.0
5004,59.0,240.0,120.0,1.0,0.0
5005,51.0,0.0,480.0,5.0,0.0
5006,59.0,240.0,120.0,1.0,0.0
5007,54.0,120.0,480.0,4.0,0.0
5008,59.0,120.0,120.0,1.0,0.0
5009,68.0,240.0,120.0,1.0,0.0
5010,68.0,240.0,120.0,1.0,0.0
5011,59.0,0.0,480.0,4.0,0.0
5012,68.0,240.0,120.0,1.0,0.0
5013,52.0,120.0,480.0,5.0,0.0
5014,68.0,120.0,120.0,1.0,0.0
5015,61.0,240.0,120.0,1.0,0.0
5016,61.0,240.0,120.0,1.0,0.0
5017,49.0,0.0,480.0,4.0,0.0
5018,46.0,240.0,480.0,5.0,0.0
5019,66.0,240.0,120.0,1.0,0.0
5020,66.0,120.0,120.0,1.0,0.0
5021,47.0,120.0,240.0,5.0,0.0
5022,54.0,0.0,240.0,4.0,0.0
5023,64.0,0.0,240.0,1.0,0.0
5024,63.0,240.0,120.0,1.0,0.0
5025,61.0,240.0,120.0,1.0,0.0
5026,59.0,240.0,120.0,1.0,0.0
5027,75.0,240.0,120.0,1.0,0.0
5028,75.0,240.0,120.0,1.0,0.0
5029,59.0,0.0,120.0,5.0,0.0
5030,58.0,0.0,120.0,5.0,0.0
5031,74.0,240.0,120.0,1.0,0.0
5032,73.0,0.0,120.0,1.0,0.0
5033,55.0,240.0,120.0,5.0,0.0
5034,72.0,0.0,120.0,1.0,0.0
5035,56.0,240.0,120.0,5.0,0.0
5036,71.0,0.0,120.0,1.0,0.0
5037,53.0,240.0,120.0,5.0,0.0
5038,70.0,240.0,120.0,1.0,0.0
5039,54.0,135.0,960.0,5.0,0.0
5040,69.0,0.0,120.0,1.0,0.0
5041,48.0,240.0,120.0,5.0,0.0
5042,49.0,0.0,960.0,5.0,0.0
5043,68.0,240.0,120.0,1.0,0.0
5044,68.0,105.0,120.0,1.0,0.0
5045,53.0,120.0,480.0,5.0,0.0
5046,73.0,240.0,120.0,1.0,0.0
5047,73.0,120.0,120.0,1.0,0.0
5048,66.0,120.0,480.0,1.0,0.0
5049,54.0,240.0,120.0,5.0,0.0
5050,49.0,120.0,120.0,5.0,0.0
5051,46.0,240.0,120.0,5.0,0.0
5052,42.0,240.0,120.0,5.0,0.0
5053,59.0,240.0,120.0,1.0,0.0
5054,59.0,240.0,120.0,1.0,0.0
5055,51.0,120.0,480.0,5.0,0.0
5056,54.0,0.0,480.0,4.0,0.0
5057,59.0,240.0,120.0,1.0,0.0
5058,59.0,120.0,120.0,1.0,0.0
5059,68.0,240.0,120.0,1.0,0.0
5060,68.0,240.0,120.0,1.0,0.0
5061,68.0,240.0,120.0,1.0,0.0
5062,52.0,0.0,480.0,5.0,0.0
5063,59.0,120.0,480.0,4.0,0.0
5064,68.0,120.0,120.0,1.0,0.0
5065,61.0,240.0,120.0,1.0,0.0
5066,61.0,240.0,120.0,1.0,0.0
5067,66.0,240.0,120.0,1.0,0.0
5068,49.0,0.0,480.0,4.0,0.0
5069,46.0,240.0,480.0,5.0,0.0
5070,66.0,120.0,120.0,1.0,0.0
5071,54.0,0.0,240.0,4.0,0.0
5072,47.0,0.0,240.0,5.0,0.0
5073,64.0,120.0,240.0,1.0,0.0
5074,63.0,240.0,120.0,1.0,0.0
5075,61.0,240.0,120.0,1.0,0.0
5076,59.0,240.0,120.0,1.0,0.0
5077,75.0,240.0,120.0,1.0,0.0
5078,75.0,0.0,120.0,1.0,0.0
5079,59.0,240.0,120.0,5.0,0.0
5080,74.0,0.0,120.0,1.0,0.0
5081,58.0,240.0,120.0,5.0,0.0
5082,73.0,240.0,120.0,1.0,0.0
5083,55.0,0.0,120.0,5.0,0.0
5084,56.0,240.0,120.0,5.0,0.0
5085,72.0,0.0,120.0,1.0,0.0
5086,53.0,0.0,120.0,5.0,0.0
5087,71.0,240.0,120.0,1.0,0.0
5088,54.0,135.0,960.0,5.0,0.0
5089,70.0,240.0,120.0,1.0,0.0
5090,48.0,240.0,120.0,5.0,0.0
5091,69.0,0.0,120.0,1.0,0.0
5092,68.0,240.0,120.0,1.0,0.0
5093,49.0,0.0,960.0,5.0,0.0
5094,68.0,105.0,120.0,1.0,0.0
5095,73.0,240.0,120.0,1.0,0.0
5096,53.0,120.0,480.0,5.0,0.0
5097,73.0,120.0,120.0,1.0,0.0
5098,54.0,240.0,120.0,5.0,0.0
5099,66.0,120.0,480.0,1.0,0.0
5100,49.0,120.0,120.0,5.0,0.0
5101,46.0,240.0,120.0,5.0,0.0
5102,42.0,240.0,120.0,5.0,0.0
5103,57.0,240.0,120.0,5.0,0.0
5104,66.0,120.0,240.0,1.0,0.0
5105,57.0,120.0,120.0,5.0,0.0
5106,69.0,120.0,240.0,1.0,0.0
5107,57.0,120.0,120.0,5.0,0.0
5108,72.0,120.0,240.0,1.0,0.0
5109,57.0,120.0,120.0,5.0,0.0
5110,75.0,120.0,240.0,1.0,0.0
5111,48.0,120.0,120.0,5.0,0.0
5112,69.0,120.0,240.0,1.0,0.0
5113,48.0,120.0,120.0,5.0,0.0
5114,48.0,120.0,120.0,5.0,0.0
5115,68.0,120.0,240.0,1.0,0.0
5116,66.0,120.0,240.0,1.0,0.0
5117,48.0,120.0,120.0,5.0,0.0
5118,55.0,120.0,120.0,5.0,0.0
5119,65.0,120.0,240.0,1.0,0.0
5120,64.0,120.0,240.0,1.0,0.0
5121,55.0,120.0,120.0,5.0,0.0
5122,70.0,120.0,240.0,1.0,0.0
5123,55.0,120.0,120.0,5.0,0.0
5124,71.0,120.0,240.0,1.0,0.0
5125,55.0,120.0,120.0,5.0,0.0
5126,73.0,120.0,240.0,1.0,0.0
5127,46.0,120.0,120.0,5.0,0.0
5128,67.0,120.0,240.0,1.0,0.0
5129,46.0,120.0,120.0,5.0,0.0
5130,66.0,120.0,240.0,1.0,0.0
5131,46.0,120.0,120.0,5.0,0.0
5132,64.0,120.0,240.0,1.0,0.0
5133,46.0,120.0,120.0,5.0,0.0
5134,63.0,120.0,240.0,1.0,0.0
5135,47.0,120.0,120.0,5.0,0.0
5136,62.0,120.0,240.0,1.0,0.0
5137,47.0,120.0,120.0,5.0,0.0
5138,61.0,120.0,240.0,1.0,0.0
5139,46.0,120.0,120.0,5.0,0.0
5140,66.0,120.0,240.0,1.0,0.0
5141,45.0,120.0,120.0,5.0,0.0
5142,59.0,120.0,240.0,1.0,0.0
5143,44.0,120.0,120.0,5.0,0.0
5144,43.0,120.0,120.0,5.0,0.0
5145,65.0,120.0,240.0,1.0,0.0
5146,58.0,120.0,240.0,1.0,0.0
5147,42.0,120.0,120.0,5.0,0.0
5148,41.0,0.0,120.0,5.0,0.0
5149,59.0,120.0,120.0,2.0,0.0
5150,62.0,120.0,240.0,1.0,0.0
5151,42.0,120.0,240.0,5.0,0.0
5152,58.0,120.0,120.0,2.0,0.0
5153,61.0,0.0,240.0,1.0,0.0
5154,62.0,0.0,240.0,1.0,0.0
5155,41.0,120.0,240.0,5.0,0.0
5156,59.0,120.0,120.0,2.0,0.0
5157,61.0,0.0,240.0,1.0,0.0
5158,42.0,120.0,240.0,5.0,0.0
5159,58.0,120.0,120.0,2.0,0.0
5160,41.0,0.0,240.0,5.0,0.0
5161,59.0,120.0,120.0,2.0,0.0
5162,62.0,120.0,240.0,1.0,0.0
5163,61.0,120.0,240.0,1.0,0.0
5164,42.0,0.0,480.0,5.0,0.0
5165,58.0,120.0,120.0,2.0,0.0
5166,59.0,120.0,120.0,2.0,0.0
5167,63.0,120.0,240.0,1.0,0.0
5168,64.0,120.0,240.0,1.0,0.0
5169,61.0,120.0,120.0,2.0,0.0
5170,61.0,120.0,240.0,1.0,0.0
5171,58.0,120.0,120.0,2.0,0.0
5172,59.0,240.0,120.0,1.0,0.0
5173,59.0,240.0,120.0,1.0,0.0
5174,59.0,240.0,120.0,1.0,0.0
5175,54.0,120.0,480.0,4.0,0.0
5176,51.0,0.0,480.0,5.0,0.0
5177,59.0,120.0,120.0,1.0,0.0
5178,68.0,240.0,120.0,1.0,0.0
5179,68.0,240.0,120.0,1.0,0.0
5180,68.0,240.0,120.0,1.0,0.0
5181,59.0,0.0,480.0,4.0,0.0
5182,52.0,120.0,480.0,5.0,0.0
5183,68.0,120.0,120.0,1.0,0.0
5184,61.0,240.0,120.0,1.0,0.0
5185,61.0,240.0,120.0,1.0,0.0
5186,46.0,0.0,480.0,5.0,0.0
5187,66.0,240.0,120.0,1.0,0.0
5188,49.0,240.0,480.0,4.0,0.0
5189,66.0,120.0,120.0,1.0,0.0
5190,64.0,0.0,240.0,1.0,0.0
5191,47.0,120.0,240.0,5.0,0.0
5192,54.0,0.0,240.0,4.0,0.0
5193,63.0,240.0,120.0,1.0,0.0
5194,61.0,240.0,120.0,1.0,0.0
5195,59.0,240.0,120.0,1.0,0.0
5196,75.0,240.0,120.0,1.0,0.0
5197,75.0,0.0,120.0,1.0,0.0
5198,59.0,240.0,120.0,5.0,0.0
5199,74.0,0.0,120.0,1.0,0.0
5200,58.0,240.0,120.0,5.0,0.0
5201,55.0,0.0,120.0,5.0,0.0
5202,73.0,240.0,120.0,1.0,0.0
5203,56.0,240.0,120.0,5.0,0.0
5204,72.0,0.0,120.0,1.0,0.0
5205,71.0,0.0,120.0,1.0,0.0
5206,53.0,240.0,120.0,5.0,0.0
5207,54.0,135.0,960.0,5.0,0.0
5208,70.0,240.0,120.0,1.0,0.0
5209,69.0,0.0,120.0,1.0,0.0
5210,48.0,240.0,120.0,5.0,0.0
5211,68.0,240.0,120.0,1.0,0.0
5212,49.0,120.0,960.0,5.0,0.0
5213,68.0,105.0,120.0,1.0,0.0
5214,53.0,0.0,480.0,5.0,0.0
5215,73.0,240.0,120.0,1.0,0.0
5216,73.0,120.0,120.0,1.0,0.0
5217,66.0,120.0,480.0,1.0,0.0
5218,54.0,240.0,120.0,5.0,0.0
5219,49.0,120.0,120.0,5.0,0.0
5220,46.0,240.0,120.0,5.0,0.0
5221,42.0,240.0,120.0,5.0,0.0
5222,57.0,240.0,120.0,5.0,0.0
5223,66.0,120.0,240.0,1.0,0.0
5224,57.0,120.0,120.0,5.0,0.0
5225,57.0,120.0,120.0,5.0,0.0
5226,69.0,120.0,240.0,1.0,0.0
5227,57.0,120.0,120.0,5.0,0.0
5228,72.0,120.0,240.0,1.0,0.0
5229,48.0,120.0,120.0,5.0,0.0
5230,75.0,120.0,240.0,1.0,0.0
5231,48.0,120.0,120.0,5.0,0.0
5232,69.0,120.0,240.0,1.0,0.0
5233,68.0,120.0,240.0,1.0,0.0
5234,48.0,120.0,120.0,5.0,0.0
5235,48.0,120.0,120.0,5.0,0.0
5236,66.0,120.0,240.0,1.0,0.0
5237,55.0,120.0,120.0,5.0,0.0
5238,65.0,120.0,240.0,1.0,0.0
5239,64.0,120.0,240.0,1.0,0.0
5240,55.0,120.0,120.0,5.0,0.0
5241,70.0,120.0,240.0,1.0,0.0
5242,55.0,120.0,120.0,5.0,0.0
5243,71.0,120.0,240.0,1.0,0.0
5244,55.0,120.0,120.0,5.0,0.0
5245,73.0,120.0,240.0,1.0,0.0
5246,46.0,120.0,120.0,5.0,0.0
5247,67.0,120.0,240.0,1.0,0.0
5248,46.0,120.0,120.0,5.0,0.0
5249,66.0,120.0,240.0,1.0,0.0
5250,46.0,120.0,120.0,5.0,0.0
5251,46.0,120.0,120.0,5.0,0.0
5252,64.0,120.0,240.0,1.0,0.0
5253,47.0,120.0,120.0,5.0,0.0
5254,63.0,120.0,240.0,1.0,0.0
5255,62.0,120.0,240.0,1.0,0.0
5256,47.0,120.0,120.0,5.0,0.0
5257,61.0,120.0,240.0,1.0,0.0
5258,46.0,120.0,120.0,5.0,0.0
5259,66.0,120.0,240.0,1.0,0.0
5260,45.0,120.0,120.0,5.0,0.0
5261,44.0,120.0,120.0,5.0,0.0
5262,59.0,120.0,240.0,1.0,0.0
5263,43.0,120.0,120.0,5.0,0.0
5264,65.0,120.0,240.0,1.0,0.0
5265,58.0,120.0,240.0,1.0,0.0
5266,42.0,120.0,120.0,5.0,0.0
5267,41.0,120.0,120.0,5.0,0.0
5268,62.0,0.0,240.0,1.0,0.0
5269,59.0,240.0,240.0,2.0,0.0
5270,61.0,240.0,240.0,1.0,0.0
5271,58.0,0.0,240.0,2.0,0.0
5272,42.0,0.0,240.0,5.0,0.0
5273,59.0,0.0,240.0,2.0,0.0
5274,41.0,0.0,240.0,5.0,0.0
5275,62.0,240.0,240.0,1.0,0.0
5276,58.0,240.0,240.0,2.0,0.0
5277,42.0,0.0,240.0,5.0,0.0
5278,61.0,0.0,240.0,1.0,0.0
5279,62.0,0.0,240.0,1.0,0.0
5280,41.0,0.0,240.0,5.0,0.0
5281,59.0,240.0,240.0,2.0,0.0
5282,61.0,0.0,240.0,1.0,0.0
5283,42.0,240.0,480.0,5.0,0.0
5284,58.0,240.0,240.0,2.0,0.0
5285,59.0,0.0,240.0,2.0,0.0
5286,63.0,0.0,240.0,1.0,0.0
5287,64.0,0.0,240.0,1.0,0.0
5288,61.0,240.0,240.0,2.0,0.0
5289,61.0,0.0,240.0,1.0,0.0
5290,58.0,120.0,240.0,2.0,0.0
5291,59.0,240.0,120.0,1.0,0.0
5292,59.0,240.0,120.0,1.0,0.0
5293,59.0,240.0,120.0,1.0,0.0
5294,54.0,0.0,480.0,4.0,0.0
5295,51.0,120.0,480.0,5.0,0.0
5296,59.0,120.0,120.0,1.0,0.0
5297,68.0,240.0,120.0,1.0,0.0
5298,68.0,240.0,120.0,1.0,0.0
5299,59.0,0.0,480.0,4.0,0.0
5300,52.0,120.0,480.0,5.0,0.0
5301,68.0,240.0,120.0,1.0,0.0
5302,68.0,120.0,120.0,1.0,0.0
5303,61.0,240.0,120.0,1.0,0.0
5304,61.0,240.0,120.0,1.0,0.0
5305,46.0,240.0,480.0,5.0,0.0
5306,49.0,0.0,480.0,4.0,0.0
5307,66.0,240.0,120.0,1.0,0.0
5308,66.0,120.0,120.0,1.0,0.0
5309,64.0,0.0,240.0,1.0,0.0
5310,47.0,0.0,240.0,5.0,0.0
5311,54.0,120.0,240.0,4.0,0.0
5312,63.0,240.0,120.0,1.0,0.0
5313,61.0,240.0,120.0,1.0,0.0
5314,59.0,240.0,120.0,1.0,0.0
5315,75.0,240.0,120.0,1.0,0.0
5316,75.0,0.0,120.0,1.0,0.0
5317,59.0,240.0,120.0,5.0,0.0
5318,58.0,0.0,120.0,5.0,0.0
5319,74.0,240.0,120.0,1.0,0.0
5320,55.0,0.0,120.0,5.0,0.0
5321,73.0,240.0,120.0,1.0,0.0
5322,56.0,240.0,120.0,5.0,0.0
5323,72.0,0.0,120.0,1.0,0.0
5324,71.0,0.0,120.0,1.0,0.0
5325,53.0,240.0,120.0,5.0,0.0
5326,54.0,135.0,960.0,5.0,0.0
5327,70.0,240.0,120.0,1.0,0.0
5328,48.0,0.0,120.0,5.0,0.0
5329,69.0,240.0,120.0,1.0,0.0
5330,49.0,0.0,960.0,5.0,0.0
5331,68.0,240.0,120.0,1.0,0.0
5332,68.0,105.0,120.0,1.0,0.0
5333,53.0,120.0,480.0,5.0,0.0
5334,73.0,240.0,120.0,1.0,0.0
5335,73.0,120.0,120.0,1.0,0.0
5336,66.0,120.0,480.0,1.0,0.0
5337,54.0,240.0,120.0,5.0,0.0
5338,49.0,120.0,120.0,5.0,0.0
5339,46.0,240.0,120.0,5.0,0.0
5340,42.0,360.0,120.0,5.0,0.0
5341,51.0,240.0,240.0,5.0,0.0
5342,63.0,240.0,240.0,5.0,0.0
5343,62.0,240.0,240.0,5.0,0.0
5344,61.0,0.0,240.0,5.0,0.0
5345,67.0,240.0,240.0,1.0,0.0
5346,59.0,240.0,240.0,5.0,0.0
5347,68.0,0.0,240.0,1.0,0.0
5348,70.0,0.0,240.0,1.0,0.0
5349,58.0,240.0,240.0,5.0,0.0
5350,71.0,240.0,240.0,1.0,0.0
5351,56.0,0.0,240.0,5.0,0.0
5352,72.0,0.0,240.0,1.0,0.0
5353,54.0,120.0,240.0,5.0,0.0
5354,73.0,360.0,120.0,1.0,0.0
5355,53.0,240.0,480.0,5.0,0.0
5356,85.0,0.0,240.0,1.0,0.0
5357,84.0,240.0,240.0,1.0,0.0
5358,65.0,0.0,240.0,5.0,0.0
5359,83.0,240.0,240.0,1.0,0.0
5360,82.0,0.0,240.0,1.0,0.0
5361,66.0,240.0,240.0,5.0,0.0
5362,80.0,0.0,240.0,1.0,0.0
5363,68.0,240.0,240.0,5.0,0.0
5364,70.0,0.0,240.0,5.0,0.0
5365,78.0,240.0,240.0,1.0,0.0
5366,68.0,0.0,240.0,5.0,0.0
5367,76.0,120.0,240.0,1.0,0.0
5368,75.0,240.0,120.0,1.0,0.0
5369,67.0,0.0,120.0,5.0,0.0
5370,68.0,0.0,120.0,5.0,0.0
5371,83.0,240.0,120.0,1.0,0.0
5372,65.0,0.0,120.0,5.0,0.0
5373,73.0,240.0,120.0,1.0,0.0
5374,82.0,240.0,120.0,1.0,0.0
5375,66.0,0.0,120.0,5.0,0.0
5376,63.0,0.0,120.0,5.0,0.0
5377,71.0,240.0,120.0,1.0,0.0
5378,65.0,0.0,120.0,5.0,0.0
5379,80.0,240.0,120.0,1.0,0.0
5380,70.0,0.0,120.0,1.0,0.0
5381,62.0,240.0,120.0,5.0,0.0
5382,78.0,600.0,120.0,1.0,0.0
5383,63.0,0.0,120.0,5.0,0.0
5384,66.0,0.0,960.0,4.0,0.0
5385,63.0,0.0,960.0,5.0,0.0
5386,78.0,240.0,240.0,1.0,0.0
5387,75.0,240.0,240.0,1.0,0.0
5388,72.0,240.0,240.0,1.0,0.0
5389,61.0,0.0,480.0,5.0,0.0
5390,73.0,240.0,240.0,1.0,0.0
5391,65.0,0.0,480.0,4.0,0.0
5392,77.0,120.0,240.0,1.0,0.0
5393,80.0,240.0,120.0,1.0,0.0
5394,80.0,480.0,120.0,1.0,0.0
5395,63.0,120.0,960.0,5.0,0.0
5396,66.0,0.0,960.0,4.0,0.0
5397,80.0,120.0,120.0,1.0,0.0
5398,78.0,120.0,120.0,1.0,0.0
5399,77.0,120.0,120.0,1.0,0.0
5400,75.0,120.0,120.0,1.0,0.0
5401,73.0,120.0,120.0,1.0,0.0
5402,72.0,0.0,120.0,1.0,0.0
5403,73.0,120.0,120.0,1.0,0.0
5404,61.0,0.0,480.0,5.0,0.0
5405,65.0,0.0,480.0,4.0,0.0
5406,68.0,120.0,120.0,1.0,0.0
5407,73.0,120.0,120.0,1.0,0.0
5408,77.0,120.0,120.0,1.0,0.0
5409,80.0,240.0,120.0,1.0,0.0
5410,80.0,360.0,120.0,1.0,0.0
5411,63.0,120.0,960.0,5.0,0.0
5412,66.0,0.0,960.0,4.0,0.0
5413,77.0,120.0,120.0,1.0,0.0
5414,80.0,120.0,120.0,1.0,0.0
5415,78.0,120.0,120.0,1.0,0.0
5416,77.0,120.0,120.0,1.0,0.0
5417,75.0,120.0,120.0,1.0,0.0
5418,73.0,120.0,120.0,1.0,0.0
5419,72.0,0.0,120.0,1.0,0.0
5420,73.0,120.0,120.0,1.0,0.0
5421,65.0,0.0,480.0,4.0,0.0
5422,61.0,0.0,480.0,5.0,0.0
5423,74.0,120.0,120.0,1.0,0.0
5424,77.0,120.0,120.0,1.0,0.0
5425,75.0,120.0,120.0,1.0,0.0
5426,73.0,120.0,120.0,1.0,0.0
5427,71.0,120.0,120.0,1.0,0.0
5428,70.0,120.0,120.0,1.0,0.0
5429,69.0,120.0,120.0,1.0,0.0
5430,54.0,40.0,450.0,5.0,0.0
5431,70.0,320.0,120.0,1.0,0.0
5432,61.0,120.0,240.0,3.0,0.0
5433,56.0,40.0,450.0,5.0,0.0
5434,71.0,320.0,120.0,1.0,0.0
5435,61.0,440.0,240.0,3.0,0.0
5436,58.0,40.0,450.0,5.0,0.0
5437,72.0,95.0,480.0,1.0,0.0
5438,61.0,0.0,240.0,3.0,0.0
5439,73.0,240.0,90.0,1.0,0.0
5440,54.0,40.0,450.0,5.0,0.0
5441,70.0,105.0,90.0,1.0,0.0
5442,61.0,40.0,240.0,3.0,0.0
5443,70.0,90.0,90.0,1.0,0.0
5444,68.0,230.0,120.0,1.0,0.0
5445,53.0,40.0,450.0,5.0,0.0
5446,61.0,125.0,240.0,3.0,0.0
5447,67.0,80.0,120.0,1.0,0.0
5448,54.0,40.0,450.0,5.0,0.0
5449,68.0,235.0,120.0,1.0,0.0
5450,70.0,80.0,120.0,1.0,0.0
5451,61.0,440.0,240.0,3.0,0.0
5452,56.0,40.0,450.0,5.0,0.0
5453,73.0,95.0,480.0,1.0,0.0
5454,61.0,0.0,240.0,3.0,0.0
5455,59.0,40.0,450.0,5.0,0.0
5456,71.0,265.0,90.0,1.0,0.0
5457,61.0,120.0,240.0,3.0,0.0
5458,65.0,80.0,120.0,1.0,0.0
5459,66.0,320.0,120.0,1.0,0.0
5460,58.0,40.0,450.0,5.0,0.0
5461,66.0,120.0,480.0,1.0,0.0
5462,61.0,240.0,240.0,3.0,0.0
5463,58.0,40.0,450.0,5.0,0.0
5464,67.0,80.0,120.0,1.0,0.0
5465,61.0,120.0,240.0,3.0,0.0
5466,53.0,40.0,450.0,5.0,0.0
5467,68.0,320.0,120.0,1.0,0.0
5468,61.0,240.0,240.0,3.0,0.0
5469,68.0,120.0,480.0,1.0,0.0
5470,53.0,40.0,450.0,5.0,0.0
5471,61.0,120.0,240.0,3.0,0.0
5472,69.0,80.0,120.0,1.0,0.0
5473,70.0,120.0,120.0,1.0,0.0
5474,54.0,120.0,240.0,5.0,0.0
5475,53.0,120.0,240.0,5.0,0.0
5476,68.0,120.0,120.0,1.0,0.0
5477,54.0,120.0,240.0,5.0,0.0
5478,70.0,120.0,120.0,1.0,0.0
5479,47.0,480.0,240.0,5.0,0.0
5480,68.0,120.0,120.0,2.0,0.0
5481,71.0,0.0,120.0,1.0,0.0
5482,66.0,0.0,480.0,2.0,0.0
5483,70.0,0.0,480.0,1.0,0.0
5484,49.0,120.0,480.0,5.0,0.0
5485,65.0,235.0,120.0,2.0,0.0
5486,68.0,5.0,120.0,1.0,0.0
5487,66.0,120.0,120.0,1.0,0.0
5488,68.0,120.0,120.0,1.0,0.0
5489,54.0,115.0,360.0,5.0,0.0
5490,70.0,245.0,120.0,1.0,0.0
5491,61.0,120.0,240.0,3.0,0.0
5492,71.0,245.0,120.0,1.0,0.0
5493,56.0,115.0,360.0,5.0,0.0
5494,61.0,365.0,240.0,3.0,0.0
5495,72.0,0.0,480.0,1.0,0.0
5496,58.0,115.0,360.0,5.0,0.0
5497,61.0,120.0,240.0,3.0,0.0
5498,73.0,240.0,120.0,1.0,0.0
5499,54.0,115.0,360.0,5.0,0.0
5500,61.0,35.0,240.0,3.0,0.0
5501,70.0,5.0,120.0,1.0,0.0
5502,70.0,65.0,60.0,1.0,0.0
5503,53.0,115.0,360.0,5.0,0.0
5504,68.0,235.0,90.0,1.0,0.0
5505,67.0,30.0,90.0,1.0,0.0
5506,61.0,95.0,240.0,3.0,0.0
5507,68.0,240.0,90.0,1.0,0.0
5508,54.0,115.0,360.0,5.0,0.0
5509,61.0,365.0,240.0,3.0,0.0
5510,70.0,30.0,90.0,1.0,0.0
5511,73.0,0.0,480.0,1.0,0.0
5512,56.0,115.0,360.0,5.0,0.0
5513,61.0,95.0,240.0,3.0,0.0
5514,59.0,30.0,360.0,5.0,0.0
5515,71.0,270.0,90.0,1.0,0.0
5516,65.0,85.0,150.0,3.0,0.0
5517,61.0,240.0,240.0,3.0,0.0
5518,58.0,95.0,480.0,5.0,0.0
5519,66.0,95.0,240.0,1.0,0.0
5520,78.0,145.0,90.0,1.0,0.0
5521,78.0,240.0,90.0,1.0,0.0
5522,78.0,385.0,90.0,1.0,0.0
5523,63.0,95.0,480.0,4.0,0.0
5524,68.0,95.0,240.0,1.0,0.0
5525,59.0,0.0,480.0,5.0,0.0
5526,75.0,145.0,90.0,1.0,0.0
5527,75.0,240.0,90.0,1.0,0.0
5528,75.0,240.0,90.0,1.0,0.0
5529,49.0,0.0,960.0,5.0,0.0
5530,66.0,240.0,90.0,1.0,0.0
5531,58.0,60.0,480.0,4.0,0.0
5532,66.0,145.0,90.0,1.0,0.0
5533,59.0,480.0,480.0,4.0,0.0
5534,68.0,60.0,60.0,1.0,0.0
5535,70.0,60.0,60.0,1.0,0.0
5536,68.0,60.0,60.0,1.0,0.0
5537,66.0,120.0,60.0,1.0,0.0
5538,68.0,120.0,120.0,1.0,0.0
5539,70.0,0.0,120.0,1.0,0.0
5540,58.0,360.0,480.0,4.0,0.0
5541,54.0,0.0,480.0,5.0,0.0
5542,66.0,0.0,480.0,1.0,0.0
5543,66.0,240.0,120.0,1.0,0.0
5544,78.0,0.0,120.0,1.0,0.0
5545,42.0,70.0,360.0,5.0,0.0
5546,75.0,240.0,120.0,2.0,0.0
5547,54.0,240.0,180.0,4.0,0.0
5548,75.0,0.0,480.0,2.0,0.0
5549,78.0,120.0,480.0,1.0,0.0
5550,54.0,50.0,180.0,4.0,0.0
5551,71.0,0.0,120.0,2.0,0.0
5552,54.0,170.0,180.0,4.0,0.0
5553,75.0,70.0,120.0,1.0,0.0
5554,73.0,0.0,120.0,1.0,0.0
5555,42.0,70.0,360.0,5.0,0.0
5556,70.0,240.0,120.0,2.0,0.0
5557,54.0,240.0,180.0,4.0,0.0
5558,73.0,120.0,480.0,1.0,0.0
5559,70.0,0.0,480.0,2.0,0.0
5560,54.0,50.0,180.0,4.0,0.0
5561,54.0,170.0,180.0,4.0,0.0
5562,66.0,0.0,120.0,2.0,0.0
5563,70.0,70.0,120.0,1.0,0.0
5564,65.0,0.0,120.0,2.0,0.0
5565,68.0,240.0,120.0,1.0,0.0
5566,37.0,70.0,360.0,5.0,0.0
5567,65.0,0.0,480.0,2.0,0.0
5568,49.0,240.0,180.0,4.0,0.0
5569,68.0,120.0,480.0,1.0,0.0
5570,49.0,50.0,180.0,4.0,0.0
5571,49.0,290.0,180.0,4.0,0.0
5572,71.0,70.0,120.0,1.0,0.0
5573,68.0,0.0,120.0,2.0,0.0
5574,42.0,0.0,360.0,5.0,0.0
5575,65.0,0.0,240.0,2.0,0.0
5576,69.0,120.0,240.0,1.0,0.0
5577,54.0,170.0,180.0,4.0,0.0
5578,66.0,70.0,120.0,2.0,0.0
5579,70.0,0.0,120.0,1.0,0.0
5580,70.0,0.0,120.0,1.0,0.0
5581,66.0,70.0,120.0,2.0,0.0
5582,54.0,170.0,180.0,4.0,0.0
5583,66.0,70.0,120.0,1.0,0.0
5584,54.0,170.0,180.0,4.0,0.0
5585,78.0,240.0,120.0,1.0,0.0
5586,75.0,0.0,120.0,2.0,0.0
5587,42.0,70.0,360.0,5.0,0.0
5588,75.0,120.0,480.0,2.0,0.0
5589,78.0,0.0,480.0,1.0,0.0
5590,54.0,240.0,180.0,4.0,0.0
5591,54.0,50.0,180.0,4.0,0.0
5592,71.0,70.0,120.0,2.0,0.0
5593,75.0,0.0,120.0,1.0,0.0
5594,54.0,170.0,180.0,4.0,0.0
5595,73.0,0.0,120.0,1.0,0.0
5596,42.0,70.0,360.0,5.0,0.0
5597,70.0,240.0,120.0,2.0,0.0
5598,54.0,240.0,180.0,4.0,0.0
5599,73.0,120.0,480.0,1.0,0.0
5600,70.0,0.0,480.0,2.0,0.0
5601,54.0,50.0,180.0,4.0,0.0
5602,54.0,170.0,180.0,4.0,0.0
5603,70.0,70.0,120.0,1.0,0.0
5604,66.0,0.0,120.0,2.0,0.0
5605,68.0,0.0,120.0,1.0,0.0
5606,65.0,240.0,120.0,2.0,0.0
5607,37.0,70.0,360.0,5.0,0.0
5608,68.0,0.0,480.0,1.0,0.0
5609,49.0,240.0,180.0,4.0,0.0
5610,65.0,120.0,480.0,2.0,0.0
5611,49.0,50.0,180.0,4.0,0.0
5612,49.0,290.0,180.0,4.0,0.0
5613,68.0,0.0,120.0,2.0,0.0
5614,71.0,70.0,120.0,1.0,0.0
5615,42.0,70.0,360.0,5.0,0.0
5616,65.0,0.0,240.0,2.0,0.0
5617,69.0,120.0,240.0,1.0,0.0
5618,66.0,0.0,120.0,2.0,0.0
5619,54.0,170.0,180.0,4.0,0.0
5620,70.0,0.0,120.0,1.0,0.0
5621,66.0,0.0,120.0,2.0,0.0
5622,70.0,70.0,120.0,1.0,0.0
5623,54.0,170.0,180.0,4.0,0.0
5624,54.0,170.0,180.0,4.0,0.0
5625,66.0,70.0,120.0,1.0,0.0
5626,78.0,240.0,120.0,1.0,0.0
5627,78.0,240.0,120.0,1.0,0.0
5628,51.0,120.0,720.0,5.0,0.0
5629,78.0,240.0,120.0,1.0,0.0
5630,78.0,240.0,120.0,1.0,0.0
5631,72.0,120.0,120.0,1.0,0.0
5632,72.0,120.0,120.0,1.0,0.0
5633,53.0,0.0,120.0,5.0,0.0
5634,54.0,120.0,120.0,5.0,0.0
5635,72.0,0.0,120.0,1.0,0.0
5636,56.0,240.0,120.0,5.0,0.0
5637,72.0,240.0,120.0,1.0,0.0
5638,54.0,120.0,480.0,5.0,0.0
5639,80.0,120.0,120.0,1.0,0.0
5640,53.0,205.0,150.0,5.0,0.0
5641,80.0,35.0,120.0,1.0,0.0
5642,80.0,240.0,120.0,1.0,0.0
5643,37.0,120.0,240.0,5.0,0.0
5644,80.0,120.0,120.0,1.0,0.0
5645,38.0,120.0,240.0,5.0,0.0
5646,71.0,120.0,120.0,1.0,0.0
5647,39.0,120.0,240.0,5.0,0.0
5648,71.0,120.0,120.0,1.0,0.0
5649,40.0,120.0,240.0,5.0,0.0
5650,71.0,120.0,120.0,1.0,0.0
5651,71.0,120.0,120.0,1.0,0.0
5652,41.0,120.0,240.0,5.0,0.0
5653,70.0,0.0,120.0,1.0,0.0
5654,42.0,240.0,120.0,5.0,0.0
5655,78.0,0.0,120.0,1.0,0.0
5656,54.0,240.0,120.0,5.0,0.0
5657,56.0,0.0,120.0,5.0,0.0
5658,77.0,240.0,120.0,1.0,0.0
5659,58.0,0.0,120.0,5.0,0.0
5660,76.0,240.0,120.0,1.0,0.0
5661,59.0,0.0,120.0,5.0,0.0
5662,75.0,240.0,120.0,1.0,0.0
5663,59.0,240.0,120.0,5.0,0.0
5664,74.0,0.0,120.0,1.0,0.0
5665,73.0,0.0,120.0,1.0,0.0
5666,61.0,240.0,120.0,5.0,0.0
5667,72.0,360.0,120.0,1.0,0.0
5668,63.0,0.0,120.0,5.0,0.0
5669,73.0,240.0,240.0,1.0,0.0
5670,61.0,0.0,480.0,5.0,0.0
5671,70.0,240.0,240.0,1.0,0.0
5672,61.0,480.0,480.0,5.0,0.0
5673,68.0,240.0,240.0,1.0,0.0
5674,73.0,0.0,240.0,1.0,0.0
5675,71.0,0.0,480.0,1.0,0.0
5676,62.0,240.0,480.0,5.0,0.0
5677,70.0,0.0,240.0,1.0,0.0
5678,63.0,120.0,240.0,5.0,0.0
5679,39.0,240.0,120.0,5.0,0.0
5680,54.0,240.0,120.0,5.0,0.0
5681,54.0,120.0,120.0,5.0,0.0
5682,74.0,120.0,240.0,1.0,0.0
5683,75.0,120.0,240.0,1.0,0.0
5684,54.0,120.0,120.0,5.0,0.0
5685,54.0,120.0,120.0,5.0,0.0
5686,78.0,120.0,240.0,1.0,0.0
5687,48.0,240.0,120.0,5.0,0.0
5688,81.0,0.0,360.0,1.0,0.0
5689,48.0,60.0,120.0,5.0,0.0
5690,83.0,60.0,60.0,1.0,0.0
5691,81.0,120.0,60.0,1.0,0.0
5692,48.0,120.0,120.0,5.0,0.0
5693,80.0,120.0,240.0,1.0,0.0
5694,48.0,120.0,120.0,5.0,0.0
5695,78.0,120.0,240.0,1.0,0.0
5696,50.0,240.0,120.0,5.0,0.0
5697,77.0,0.0,120.0,1.0,0.0
5698,50.0,120.0,120.0,5.0,0.0
5699,65.0,120.0,240.0,1.0,0.0
5700,50.0,120.0,120.0,5.0,0.0
5701,68.0,120.0,240.0,1.0,0.0
5702,50.0,120.0,120.0,5.0,0.0
5703,71.0,120.0,240.0,1.0,0.0
5704,74.0,0.0,360.0,1.0,0.0
5705,41.0,240.0,120.0,5.0,0.0
5706,41.0,60.0,120.0,5.0,0.0
5707,76.0,60.0,60.0,1.0,0.0
5708,74.0,120.0,60.0,1.0,0.0
5709,73.0,120.0,240.0,1.0,0.0
5710,41.0,120.0,120.0,5.0,0.0
5711,41.0,120.0,120.0,5.0,0.0
5712,71.0,120.0,240.0,1.0,0.0
5713,42.0,240.0,120.0,5.0,0.0
5714,70.0,0.0,120.0,1.0,0.0
5715,66.0,0.0,120.0,1.0,0.0
5716,54.0,240.0,120.0,5.0,0.0
5717,68.0,0.0,120.0,1.0,0.0
5718,53.0,240.0,120.0,5.0,0.0
5719,52.0,240.0,120.0,5.0,0.0
5720,70.0,0.0,120.0,1.0,0.0
5721,71.0,240.0,120.0,1.0,0.0
5722,51.0,0.0,120.0,5.0,0.0
5723,50.0,240.0,120.0,5.0,0.0
5724,72.0,0.0,120.0,1.0,0.0
5725,49.0,0.0,120.0,5.0,0.0
5726,73.0,240.0,120.0,1.0,0.0
5727,46.0,0.0,120.0,5.0,0.0
5728,74.0,312.0,120.0,1.0,0.0
5729,75.0,673.0,180.0,1.0,0.0
5730,47.0,0.0,180.0,5.0,0.0
5731,75.0,0.0,390.0,2.0,0.0
5732,48.0,0.0,390.0,5.0,0.0
5733,36.0,0.0,390.0,5.0,0.0
5734,78.0,455.0,390.0,1.0,0.0
5735,69.0,0.0,390.0,2.0,0.0
5736,75.0,240.0,120.0,1.0,0.0
5737,77.0,240.0,120.0,1.0,0.0
5738,78.0,240.0,120.0,1.0,0.0
5739,78.0,120.0,120.0,1.0,0.0
5740,49.0,0.0,720.0,5.0,0.0
5741,80.0,120.0,120.0,1.0,0.0
5742,82.0,120.0,120.0,1.0,0.0
5743,58.0,120.0,240.0,3.0,0.0
5744,83.0,0.0,120.0,1.0,0.0
5745,54.0,0.0,240.0,3.0,0.0
5746,85.0,120.0,120.0,1.0,0.0
5747,83.0,120.0,120.0,1.0,0.0
5748,82.0,120.0,120.0,1.0,0.0
5749,58.0,0.0,240.0,3.0,0.0
5750,80.0,120.0,120.0,1.0,0.0
5751,49.0,120.0,720.0,5.0,0.0
5752,78.0,120.0,120.0,1.0,0.0
5753,77.0,120.0,120.0,1.0,0.0
5754,58.0,120.0,240.0,3.0,0.0
5755,75.0,120.0,120.0,1.0,0.0
5756,73.0,0.0,120.0,1.0,0.0
5757,71.0,120.0,120.0,1.0,0.0
5758,54.0,0.0,240.0,3.0,0.0
5759,70.0,0.0,120.0,1.0,0.0
5760,68.0,120.0,120.0,1.0,0.0
5761,58.0,80.0,240.0,3.0,0.0
5762,66.0,0.0,120.0,1.0,0.0
5763,68.0,80.0,90.0,2.0,0.0
5764,49.0,80.0,720.0,5.0,0.0
5765,70.0,80.0,90.0,2.0,0.0
5766,68.0,80.0,90.0,2.0,0.0
5767,70.0,80.0,90.0,2.0,0.0
5768,59.0,80.0,240.0,3.0,0.0
5769,68.0,80.0,90.0,2.0,0.0
5770,70.0,0.0,90.0,2.0,0.0
5771,68.0,80.0,90.0,2.0,0.0
5772,53.0,0.0,240.0,3.0,0.0
5773,70.0,80.0,90.0,2.0,0.0
5774,68.0,0.0,90.0,2.0,0.0
5775,59.0,0.0,240.0,3.0,0.0
5776,70.0,80.0,90.0,2.0,0.0
5777,68.0,80.0,90.0,2.0,0.0
5778,70.0,80.0,90.0,2.0,0.0
5779,49.0,0.0,720.0,5.0,0.0
5780,68.0,80.0,90.0,2.0,0.0
5781,70.0,80.0,90.0,2.0,0.0
5782,68.0,80.0,90.0,2.0,0.0
5783,59.0,0.0,240.0,3.0,0.0
5784,70.0,80.0,90.0,2.0,0.0
5785,68.0,80.0,90.0,2.0,0.0
5786,70.0,80.0,90.0,2.0,0.0
5787,68.0,80.0,90.0,2.0,0.0
5788,53.0,0.0,240.0,3.0,0.0
5789,70.0,80.0,90.0,2.0,0.0
5790,68.0,120.0,90.0,2.0,0.0
5791,59.0,0.0,240.0,3.0,0.0
5792,66.0,120.0,120.0,2.0,0.0
5793,68.0,360.0,120.0,2.0,0.0
5794,66.0,190.0,480.0,1.0,0.0
5795,42.0,70.0,360.0,5.0,0.0
5796,54.0,50.0,180.0,5.0,0.0
5797,54.0,240.0,180.0,5.0,0.0
5798,54.0,435.0,180.0,5.0,0.0
5799,54.0,95.0,390.0,5.0,0.0
5800,70.0,0.0,240.0,2.0,0.0
5801,73.0,240.0,240.0,1.0,0.0
5802,68.0,240.0,240.0,2.0,0.0
5803,71.0,0.0,240.0,1.0,0.0
5804,70.0,0.0,240.0,1.0,0.0
5805,66.0,360.0,240.0,2.0,0.0
5806,75.0,0.0,480.0,1.0,0.0
5807,71.0,190.0,480.0,2.0,0.0
5808,42.0,70.0,360.0,5.0,0.0
5809,54.0,50.0,180.0,5.0,0.0
5810,54.0,240.0,180.0,5.0,0.0
5811,54.0,435.0,180.0,5.0,0.0
5812,54.0,95.0,390.0,5.0,0.0
5813,75.0,240.0,240.0,1.0,0.0
5814,71.0,0.0,240.0,2.0,0.0
5815,73.0,240.0,240.0,2.0,0.0
5816,77.0,0.0,240.0,1.0,0.0
5817,78.0,0.0,240.0,1.0,0.0
5818,75.0,360.0,240.0,2.0,0.0
5819,70.0,0.0,480.0,2.0,0.0
5820,73.0,190.0,480.0,1.0,0.0
5821,42.0,70.0,360.0,5.0,0.0
5822,54.0,50.0,180.0,5.0,0.0
5823,54.0,240.0,180.0,5.0,0.0
5824,54.0,430.0,180.0,5.0,0.0
5825,54.0,100.0,390.0,5.0,0.0
5826,66.0,240.0,240.0,2.0,0.0
5827,70.0,0.0,240.0,1.0,0.0
5828,71.0,240.0,240.0,1.0,0.0
5829,68.0,0.0,240.0,2.0,0.0
5830,73.0,0.0,240.0,1.0,0.0
5831,70.0,360.0,240.0,2.0,0.0
5832,37.0,70.0,360.0,5.0,0.0
5833,71.0,0.0,480.0,1.0,0.0
5834,68.0,190.0,480.0,2.0,0.0
5835,49.0,50.0,180.0,5.0,0.0
5836,49.0,240.0,180.0,5.0,0.0
5837,49.0,435.0,180.0,5.0,0.0
5838,49.0,95.0,390.0,5.0,0.0
5839,61.0,240.0,240.0,1.0,0.0
5840,60.0,240.0,240.0,2.0,0.0
5841,63.0,0.0,240.0,1.0,0.0
5842,65.0,240.0,240.0,1.0,0.0
5843,59.0,0.0,240.0,2.0,0.0
5844,66.0,480.0,240.0,1.0,0.0
5845,42.0,0.0,240.0,5.0,0.0
5846,58.0,0.0,240.0,2.0,0.0
5847,70.0,0.0,240.0,1.0,0.0
5848,61.0,480.0,240.0,2.0,0.0
5849,54.0,0.0,240.0,5.0,0.0
5850,42.0,0.0,240.0,5.0,0.0
5851,58.0,0.0,240.0,2.0,0.0
5852,66.0,0.0,240.0,1.0,0.0
