,note,step,duration,channel,velocity
0,69.0,30.0,90.0,4.0,0.0
1,64.0,209.0,30.0,4.0,0.0
2,73.0,15.0,210.0,4.0,0.0
3,61.0,60.0,120.0,5.0,0.0
4,57.0,0.0,120.0,7.0,0.0
5,45.0,0.0,120.0,8.0,0.0
6,64.0,100.0,180.0,6.0,0.0
7,71.0,15.0,15.0,4.0,0.0
8,69.0,1.0,15.0,4.0,0.0
9,59.0,0.0,60.0,7.0,0.0
10,47.0,0.0,60.0,8.0,0.0
11,62.0,0.0,60.0,5.0,0.0
12,68.0,0.0,60.0,4.0,0.0
13,83.0,0.0,40.0,1.0,0.0
14,86.0,0.0,40.0,0.0,0.0
15,52.0,0.0,40.0,7.0,0.0
16,52.0,0.0,40.0,6.0,0.0
17,74.0,0.0,40.0,4.0,0.0
18,68.0,0.0,40.0,2.0,0.0
19,62.0,0.0,40.0,2.0,0.0
20,40.0,290.0,40.0,8.0,0.0
21,64.0,0.0,40.0,3.0,0.0
22,71.0,0.0,40.0,3.0,0.0
23,59.0,0.0,40.0,5.0,0.0
24,80.0,0.0,40.0,1.0,0.0
25,68.0,0.0,40.0,5.0,0.0
26,71.0,30.0,90.0,4.0,0.0
27,64.0,209.0,30.0,4.0,0.0
28,74.0,15.0,210.0,4.0,0.0
29,68.0,60.0,120.0,5.0,0.0
30,64.0,0.0,180.0,6.0,0.0
31,50.0,0.0,120.0,8.0,0.0
32,62.0,0.0,120.0,7.0,0.0
33,73.0,15.0,15.0,4.0,0.0
34,71.0,1.0,15.0,4.0,0.0
35,49.0,0.0,60.0,8.0,0.0
36,69.0,0.0,60.0,5.0,0.0
37,61.0,0.0,60.0,7.0,0.0
38,69.0,100.0,60.0,4.0,0.0
39,61.0,0.0,40.0,5.0,0.0
40,69.0,0.0,40.0,2.0,0.0
41,37.0,0.0,40.0,8.0,0.0
42,76.0,0.0,40.0,1.0,0.0
43,81.0,0.0,40.0,1.0,0.0
44,69.0,0.0,40.0,5.0,0.0
45,69.0,0.0,40.0,3.0,0.0
46,64.0,0.0,40.0,2.0,0.0
47,61.0,290.0,40.0,6.0,0.0
48,88.0,0.0,40.0,0.0,0.0
49,49.0,0.0,40.0,7.0,0.0
50,76.0,0.0,40.0,4.0,0.0
51,57.0,0.0,40.0,3.0,0.0
52,81.0,0.0,90.0,4.0,0.0
53,69.0,30.0,90.0,5.0,0.0
54,76.0,0.0,30.0,4.0,0.0
55,64.0,90.0,30.0,5.0,0.0
56,85.0,0.0,90.0,4.0,0.0
57,73.0,10.0,90.0,5.0,0.0
58,83.0,0.0,15.0,4.0,0.0
59,71.0,10.0,15.0,5.0,0.0
60,69.0,0.0,15.0,5.0,0.0
61,81.0,10.0,15.0,4.0,0.0
62,80.0,0.0,15.0,4.0,0.0
63,68.0,30.0,15.0,5.0,0.0
64,83.0,30.0,30.0,4.0,0.0
65,71.0,0.0,30.0,5.0,0.0
66,69.0,0.0,30.0,5.0,0.0
67,81.0,30.0,30.0,4.0,0.0
68,68.0,30.0,30.0,5.0,0.0
69,80.0,0.0,30.0,4.0,0.0
70,66.0,60.0,30.0,5.0,0.0
71,78.0,0.0,30.0,4.0,0.0
72,76.0,0.0,60.0,4.0,0.0
73,64.0,60.0,60.0,5.0,0.0
74,63.0,120.0,60.0,5.0,0.0
75,75.0,0.0,60.0,4.0,0.0
76,56.0,0.0,120.0,6.0,0.0
77,74.0,120.0,120.0,4.0,0.0
78,62.0,0.0,120.0,5.0,0.0
79,53.0,0.0,120.0,7.0,0.0
80,41.0,0.0,120.0,8.0,0.0
81,57.0,0.0,120.0,6.0,0.0
82,61.0,0.0,120.0,5.0,0.0
83,42.0,30.0,120.0,8.0,0.0
84,54.0,0.0,120.0,7.0,0.0
85,73.0,0.0,120.0,4.0,0.0
86,62.0,0.0,360.0,2.0,0.0
87,78.0,16.0,120.0,4.0,0.0
88,66.0,0.0,30.0,5.0,0.0
89,38.0,6.0,60.0,8.0,0.0
90,78.0,0.0,120.0,1.0,0.0
91,57.0,0.0,360.0,3.0,0.0
92,62.0,24.0,30.0,6.0,0.0
93,50.0,0.0,60.0,7.0,0.0
94,66.0,0.0,360.0,2.0,0.0
95,69.0,0.0,360.0,3.0,0.0
96,50.0,20.0,60.0,7.0,0.0
97,38.0,0.0,60.0,8.0,0.0
98,66.0,15.0,15.0,6.0,0.0
99,69.0,0.0,15.0,5.0,0.0
100,69.0,9.0,15.0,5.0,0.0
101,66.0,0.0,15.0,6.0,0.0
102,50.0,6.0,60.0,7.0,0.0
103,62.0,15.0,30.0,6.0,0.0
104,66.0,0.0,30.0,5.0,0.0
105,38.0,0.0,60.0,8.0,0.0
106,80.0,0.0,15.0,4.0,0.0
107,80.0,0.0,15.0,1.0,0.0
108,78.0,9.0,15.0,4.0,0.0
109,78.0,0.0,15.0,1.0,0.0
110,77.0,0.0,15.0,1.0,0.0
111,77.0,0.0,15.0,4.0,0.0
112,66.0,0.0,15.0,6.0,0.0
113,50.0,6.0,60.0,7.0,0.0
114,78.0,15.0,30.0,4.0,0.0
115,78.0,0.0,30.0,1.0,0.0
116,69.0,15.0,15.0,5.0,0.0
117,38.0,0.0,60.0,8.0,0.0
118,80.0,0.0,30.0,4.0,0.0
119,69.0,0.0,15.0,5.0,0.0
120,66.0,9.0,15.0,6.0,0.0
121,80.0,30.0,30.0,1.0,0.0
122,83.0,0.0,30.0,4.0,0.0
123,38.0,6.0,60.0,8.0,0.0
124,83.0,0.0,30.0,1.0,0.0
125,66.0,0.0,30.0,5.0,0.0
126,62.0,24.0,30.0,6.0,0.0
127,50.0,0.0,60.0,7.0,0.0
128,69.0,0.0,30.0,5.0,0.0
129,81.0,0.0,30.0,4.0,0.0
130,66.0,0.0,30.0,6.0,0.0
131,81.0,15.0,30.0,1.0,0.0
132,38.0,0.0,60.0,8.0,0.0
133,50.0,6.0,60.0,7.0,0.0
134,69.0,0.0,15.0,5.0,0.0
135,66.0,15.0,15.0,6.0,0.0
136,80.0,0.0,30.0,1.0,0.0
137,80.0,15.0,30.0,4.0,0.0
138,66.0,9.0,15.0,6.0,0.0
139,69.0,0.0,15.0,5.0,0.0
140,78.0,0.0,30.0,1.0,0.0
141,40.0,0.0,60.0,8.0,0.0
142,61.0,0.0,30.0,5.0,0.0
143,78.0,15.0,90.0,1.0,0.0
144,52.0,6.0,60.0,7.0,0.0
145,52.0,0.0,360.0,3.0,0.0
146,64.0,0.0,360.0,3.0,0.0
147,57.0,24.0,30.0,6.0,0.0
148,78.0,30.0,15.0,4.0,0.0
149,64.0,0.0,240.0,2.0,0.0
150,61.0,30.0,240.0,2.0,0.0
151,69.0,0.0,30.0,5.0,0.0
152,40.0,0.0,60.0,8.0,0.0
153,61.0,15.0,15.0,6.0,0.0
154,69.0,0.0,15.0,5.0,0.0
155,52.0,6.0,60.0,7.0,0.0
156,61.0,9.0,15.0,6.0,0.0
157,69.0,0.0,15.0,5.0,0.0
158,76.0,30.0,30.0,1.0,0.0
159,52.0,6.0,60.0,7.0,0.0
160,76.0,0.0,15.0,4.0,0.0
161,40.0,0.0,60.0,8.0,0.0
162,76.0,0.0,150.0,1.0,0.0
163,57.0,24.0,30.0,6.0,0.0
164,61.0,0.0,30.0,5.0,0.0
165,52.0,6.0,60.0,7.0,0.0
166,69.0,0.0,15.0,5.0,0.0
167,61.0,15.0,15.0,6.0,0.0
168,40.0,0.0,60.0,8.0,0.0
169,61.0,9.0,15.0,6.0,0.0
170,69.0,0.0,15.0,5.0,0.0
171,59.0,24.0,30.0,5.0,0.0
172,52.0,0.0,60.0,7.0,0.0
173,59.0,0.0,120.0,2.0,0.0
174,56.0,0.0,30.0,6.0,0.0
175,62.0,0.0,120.0,2.0,0.0
176,40.0,6.0,60.0,8.0,0.0
177,59.0,0.0,30.0,6.0,0.0
178,77.0,15.0,30.0,4.0,0.0
179,68.0,0.0,30.0,5.0,0.0
180,77.0,0.0,30.0,1.0,0.0
181,68.0,0.0,15.0,5.0,0.0
182,52.0,0.0,60.0,7.0,0.0
183,78.0,15.0,30.0,1.0,0.0
184,59.0,15.0,15.0,6.0,0.0
185,40.0,6.0,60.0,8.0,0.0
186,78.0,0.0,30.0,4.0,0.0
187,74.0,0.0,30.0,4.0,0.0
188,68.0,0.0,15.0,5.0,0.0
189,59.0,9.0,15.0,6.0,0.0
190,74.0,30.0,30.0,1.0,0.0
191,56.0,0.0,30.0,6.0,0.0
192,53.0,6.0,60.0,7.0,0.0
193,61.0,24.0,30.0,5.0,0.0
194,41.0,0.0,60.0,8.0,0.0
195,73.0,0.0,150.0,4.0,0.0
196,73.0,0.0,60.0,1.0,0.0
197,61.0,1.0,150.0,2.0,0.0
198,85.0,0.0,150.0,0.0,0.0
199,68.0,0.0,30.0,6.0,0.0
200,53.0,0.0,60.0,7.0,0.0
201,71.0,15.0,15.0,5.0,0.0
202,68.0,30.0,15.0,6.0,0.0
203,41.0,35.0,60.0,8.0,0.0
204,71.0,0.0,15.0,5.0,0.0
205,68.0,9.0,15.0,6.0,0.0
206,57.0,15.0,30.0,6.0,0.0
207,61.0,0.0,30.0,5.0,0.0
208,54.0,0.0,60.0,7.0,0.0
209,42.0,6.0,60.0,8.0,0.0
210,74.0,0.0,15.0,4.0,0.0
211,86.0,9.0,15.0,0.0,0.0
212,69.0,0.0,30.0,5.0,0.0
213,62.0,0.0,15.0,2.0,0.0
214,61.0,0.0,15.0,2.0,0.0
215,73.0,0.0,15.0,4.0,0.0
216,85.0,15.0,15.0,0.0,0.0
217,66.0,0.0,15.0,6.0,0.0
218,54.0,6.0,60.0,7.0,0.0
219,69.0,0.0,15.0,5.0,0.0
220,72.0,0.0,15.0,4.0,0.0
221,42.0,0.0,60.0,8.0,0.0
222,60.0,0.0,15.0,2.0,0.0
223,84.0,0.0,15.0,0.0,0.0
224,73.0,0.0,15.0,4.0,0.0
225,85.0,15.0,15.0,0.0,0.0
226,61.0,0.0,15.0,2.0,0.0
227,69.0,9.0,15.0,5.0,0.0
228,66.0,0.0,15.0,6.0,0.0
229,60.0,0.0,15.0,2.0,0.0
230,72.0,0.0,15.0,4.0,0.0
231,84.0,0.0,15.0,0.0,0.0
232,85.0,0.0,15.0,0.0,0.0
233,73.0,0.0,15.0,4.0,0.0
234,61.0,30.0,15.0,2.0,0.0
235,50.0,0.0,60.0,7.0,0.0
236,54.0,0.0,30.0,6.0,0.0
237,88.0,0.0,30.0,0.0,0.0
238,76.0,0.0,30.0,4.0,0.0
239,64.0,24.0,30.0,2.0,0.0
240,59.0,0.0,30.0,5.0,0.0
241,38.0,6.0,60.0,8.0,0.0
242,62.0,15.0,30.0,6.0,0.0
243,74.0,0.0,30.0,4.0,0.0
244,66.0,0.0,30.0,5.0,0.0
245,86.0,0.0,30.0,0.0,0.0
246,62.0,0.0,30.0,2.0,0.0
247,85.0,0.0,30.0,0.0,0.0
248,50.0,0.0,60.0,7.0,0.0
249,66.0,0.0,15.0,5.0,0.0
250,61.0,0.0,30.0,2.0,0.0
251,38.0,6.0,60.0,8.0,0.0
252,62.0,15.0,15.0,6.0,0.0
253,73.0,15.0,30.0,4.0,0.0
254,59.0,0.0,30.0,2.0,0.0
255,62.0,0.0,15.0,6.0,0.0
256,71.0,30.0,30.0,4.0,0.0
257,66.0,9.0,15.0,5.0,0.0
258,83.0,0.0,30.0,0.0,0.0
259,61.0,15.0,30.0,5.0,0.0
260,52.0,0.0,30.0,6.0,0.0
261,88.0,9.0,40.0,0.0,0.0
262,52.0,5.0,60.0,7.0,0.0
263,76.0,0.0,40.0,4.0,0.0
264,40.0,0.0,60.0,8.0,0.0
265,64.0,0.0,40.0,2.0,0.0
266,64.0,0.0,30.0,5.0,0.0
267,73.0,0.0,15.0,4.0,0.0
268,61.0,1.0,15.0,2.0,0.0
269,85.0,0.0,15.0,0.0,0.0
270,81.0,0.0,120.0,0.0,0.0
271,61.0,15.0,15.0,6.0,0.0
272,64.0,30.0,15.0,5.0,0.0
273,57.0,0.0,120.0,2.0,0.0
274,69.0,1.0,120.0,4.0,0.0
275,40.0,36.0,60.0,8.0,0.0
276,52.0,0.0,60.0,7.0,0.0
277,64.0,0.0,15.0,5.0,0.0
278,61.0,9.0,15.0,6.0,0.0
279,52.0,0.0,60.0,7.0,0.0
280,61.0,24.0,30.0,5.0,0.0
281,40.0,5.0,60.0,8.0,0.0
282,52.0,0.0,30.0,6.0,0.0
283,64.0,15.0,30.0,5.0,0.0
284,61.0,0.0,30.0,6.0,0.0
285,59.0,16.0,30.0,2.0,0.0
286,83.0,0.0,30.0,0.0,0.0
287,61.0,0.0,15.0,6.0,0.0
288,40.0,1.0,60.0,8.0,0.0
289,52.0,0.0,60.0,7.0,0.0
290,64.0,14.0,15.0,5.0,0.0
291,71.0,0.0,30.0,4.0,0.0
292,61.0,33.0,30.0,2.0,0.0
293,64.0,0.0,15.0,5.0,0.0
294,85.0,1.0,30.0,0.0,0.0
295,73.0,1.0,30.0,4.0,0.0
296,61.0,9.0,15.0,6.0,0.0
297,62.0,0.0,30.0,5.0,0.0
298,40.0,0.0,60.0,8.0,0.0
299,85.0,0.0,30.0,0.0,0.0
300,61.0,0.0,30.0,2.0,0.0
301,52.0,6.0,60.0,7.0,0.0
302,52.0,0.0,30.0,6.0,0.0
303,73.0,24.0,30.0,4.0,0.0
304,83.0,0.0,30.0,0.0,0.0
305,71.0,0.0,30.0,4.0,0.0
306,59.0,0.0,30.0,2.0,0.0
307,64.0,0.0,15.0,5.0,0.0
308,69.0,0.0,30.0,4.0,0.0
309,52.0,6.0,60.0,7.0,0.0
310,62.0,15.0,15.0,6.0,0.0
311,40.0,0.0,60.0,8.0,0.0
312,81.0,15.0,30.0,0.0,0.0
313,57.0,0.0,30.0,2.0,0.0
314,68.0,0.0,30.0,4.0,0.0
315,64.0,9.0,15.0,5.0,0.0
316,62.0,0.0,15.0,6.0,0.0
317,80.0,60.0,30.0,0.0,0.0
318,56.0,0.0,30.0,2.0,0.0
319,57.0,32.0,90.0,7.0,0.0
320,52.0,0.0,60.0,3.0,0.0
321,64.0,0.0,120.0,5.0,0.0
322,81.0,0.0,120.0,0.0,0.0
323,69.0,0.0,120.0,4.0,0.0
324,61.0,0.0,60.0,6.0,0.0
325,57.0,28.0,60.0,2.0,0.0
326,45.0,0.0,90.0,8.0,0.0
327,52.0,0.0,60.0,3.0,0.0
328,64.0,0.0,15.0,3.0,0.0
329,61.0,0.0,60.0,2.0,0.0
330,57.0,0.0,60.0,2.0,0.0
331,52.0,60.0,30.0,7.0,0.0
332,40.0,0.0,30.0,8.0,0.0
333,61.0,0.0,210.0,6.0,0.0
334,52.0,60.0,60.0,3.0,0.0
335,64.0,0.0,60.0,3.0,0.0
336,61.0,0.0,60.0,2.0,0.0
337,61.0,0.0,210.0,7.0,0.0
338,49.0,15.0,210.0,8.0,0.0
339,57.0,0.0,15.0,2.0,0.0
340,52.0,0.0,60.0,3.0,0.0
341,64.0,0.0,60.0,3.0,0.0
342,57.0,0.0,60.0,2.0,0.0
343,52.0,0.0,60.0,3.0,0.0
344,64.0,0.0,60.0,3.0,0.0
345,61.0,60.0,15.0,2.0,0.0
346,61.0,0.0,60.0,2.0,0.0
347,57.0,0.0,60.0,2.0,0.0
348,59.0,0.0,15.0,7.0,0.0
349,59.0,15.0,15.0,6.0,0.0
350,47.0,0.0,15.0,8.0,0.0
351,45.0,1.0,15.0,8.0,0.0
352,57.0,0.0,15.0,6.0,0.0
353,57.0,0.0,15.0,7.0,0.0
354,44.0,0.0,60.0,8.0,0.0
355,56.0,0.0,60.0,7.0,0.0
356,64.0,60.0,15.0,3.0,0.0
357,52.0,0.0,15.0,3.0,0.0
358,56.0,0.0,60.0,6.0,0.0
359,64.0,60.0,15.0,3.0,0.0
360,52.0,0.0,15.0,3.0,0.0
361,59.0,0.0,15.0,2.0,0.0
362,62.0,0.0,15.0,2.0,0.0
363,50.0,15.0,40.0,8.0,0.0
364,62.0,0.0,40.0,7.0,0.0
365,62.0,0.0,40.0,6.0,0.0
366,62.0,0.0,60.0,2.0,0.0
367,59.0,0.0,60.0,2.0,0.0
368,70.0,0.0,15.0,5.0,0.0
369,82.0,15.0,15.0,4.0,0.0
370,83.0,0.0,15.0,4.0,0.0
371,71.0,0.0,15.0,5.0,0.0
372,82.0,0.0,15.0,4.0,0.0
373,70.0,0.0,15.0,5.0,0.0
374,71.0,0.0,15.0,5.0,0.0
375,64.0,15.0,15.0,3.0,0.0
376,52.0,0.0,15.0,3.0,0.0
377,83.0,15.0,15.0,4.0,0.0
378,59.0,0.0,60.0,2.0,0.0
379,73.0,0.0,15.0,5.0,0.0
380,85.0,15.0,15.0,4.0,0.0
381,74.0,0.0,15.0,5.0,0.0
382,86.0,15.0,15.0,4.0,0.0
383,73.0,0.0,15.0,5.0,0.0
384,85.0,15.0,15.0,4.0,0.0
385,64.0,0.0,15.0,3.0,0.0
386,52.0,0.0,15.0,3.0,0.0
387,86.0,15.0,15.0,4.0,0.0
388,62.0,0.0,15.0,2.0,0.0
389,74.0,0.0,15.0,5.0,0.0
390,89.0,0.0,15.0,4.0,0.0
391,77.0,15.0,15.0,5.0,0.0
392,90.0,0.0,15.0,4.0,0.0
393,78.0,15.0,15.0,5.0,0.0
394,73.0,0.0,15.0,5.0,0.0
395,85.0,15.0,15.0,4.0,0.0
396,52.0,0.0,15.0,3.0,0.0
397,59.0,0.0,15.0,2.0,0.0
398,62.0,0.0,15.0,2.0,0.0
399,76.0,0.0,15.0,5.0,0.0
400,88.0,15.0,15.0,4.0,0.0
401,74.0,0.0,15.0,5.0,0.0
402,86.0,15.0,15.0,4.0,0.0
403,73.0,15.0,15.0,5.0,0.0
404,85.0,0.0,15.0,4.0,0.0
405,83.0,0.0,15.0,4.0,0.0
406,71.0,0.0,15.0,5.0,0.0
407,69.0,0.0,120.0,5.0,0.0
408,59.0,30.0,90.0,6.0,0.0
409,64.0,0.0,15.0,3.0,0.0
410,59.0,60.0,15.0,2.0,0.0
411,62.0,0.0,15.0,2.0,0.0
412,52.0,0.0,15.0,3.0,0.0
413,59.0,0.0,90.0,7.0,0.0
414,81.0,0.0,120.0,4.0,0.0
415,47.0,0.0,90.0,8.0,0.0
416,59.0,30.0,15.0,2.0,0.0
417,62.0,0.0,15.0,2.0,0.0
418,64.0,0.0,15.0,3.0,0.0
419,52.0,0.0,15.0,3.0,0.0
420,52.0,0.0,30.0,6.0,0.0
421,52.0,0.0,30.0,7.0,0.0
422,40.0,0.0,30.0,8.0,0.0
423,64.0,60.0,15.0,3.0,0.0
424,80.0,0.0,60.0,4.0,0.0
425,50.0,0.0,210.0,8.0,0.0
426,59.0,0.0,15.0,2.0,0.0
427,62.0,0.0,15.0,2.0,0.0
428,68.0,60.0,60.0,5.0,0.0
429,62.0,0.0,210.0,7.0,0.0
430,62.0,16.0,210.0,6.0,0.0
431,64.0,0.0,15.0,3.0,0.0
432,52.0,0.0,15.0,3.0,0.0
433,64.0,60.0,15.0,3.0,0.0
434,56.0,0.0,15.0,2.0,0.0
435,59.0,0.0,15.0,2.0,0.0
436,52.0,0.0,15.0,3.0,0.0
437,59.0,60.0,60.0,2.0,0.0
438,56.0,0.0,60.0,2.0,0.0
439,52.0,29.0,15.0,3.0,0.0
440,64.0,0.0,60.0,3.0,0.0
441,49.0,0.0,15.0,8.0,0.0
442,61.0,15.0,15.0,7.0,0.0
443,61.0,0.0,15.0,6.0,0.0
444,47.0,0.0,15.0,8.0,0.0
445,59.0,0.0,15.0,7.0,0.0
446,59.0,0.0,15.0,6.0,0.0
447,52.0,0.0,15.0,3.0,0.0
448,45.0,0.0,60.0,8.0,0.0
449,64.0,0.0,60.0,3.0,0.0
450,57.0,0.0,60.0,2.0,0.0
451,57.0,0.0,60.0,6.0,0.0
452,57.0,60.0,60.0,7.0,0.0
453,57.0,0.0,60.0,3.0,0.0
454,69.0,0.0,60.0,3.0,0.0
455,61.0,0.0,15.0,2.0,0.0
456,55.0,0.0,40.0,8.0,0.0
457,67.0,0.0,40.0,7.0,0.0
458,67.0,15.0,40.0,6.0,0.0
459,61.0,30.0,15.0,2.0,0.0
460,64.0,0.0,15.0,2.0,0.0
461,69.0,0.0,60.0,3.0,0.0
462,84.0,15.0,15.0,4.0,0.0
463,72.0,0.0,15.0,5.0,0.0
464,73.0,0.0,15.0,5.0,0.0
465,85.0,0.0,15.0,4.0,0.0
466,72.0,15.0,15.0,5.0,0.0
467,84.0,0.0,15.0,4.0,0.0
468,85.0,0.0,15.0,4.0,0.0
469,61.0,0.0,60.0,2.0,0.0
470,69.0,0.0,60.0,3.0,0.0
471,57.0,0.0,15.0,3.0,0.0
472,73.0,15.0,15.0,5.0,0.0
473,87.0,15.0,15.0,4.0,0.0
474,75.0,0.0,15.0,5.0,0.0
475,76.0,0.0,15.0,5.0,0.0
476,88.0,15.0,15.0,4.0,0.0
477,75.0,0.0,15.0,5.0,0.0
478,87.0,0.0,15.0,4.0,0.0
479,64.0,15.0,15.0,2.0,0.0
480,90.0,15.0,15.0,4.0,0.0
481,78.0,0.0,15.0,5.0,0.0
482,69.0,0.0,60.0,3.0,0.0
483,57.0,0.0,60.0,3.0,0.0
484,76.0,0.0,15.0,5.0,0.0
485,88.0,15.0,15.0,4.0,0.0
486,75.0,0.0,15.0,5.0,0.0
487,87.0,15.0,15.0,4.0,0.0
488,76.0,0.0,15.0,5.0,0.0
489,88.0,0.0,15.0,4.0,0.0
490,86.0,0.0,15.0,4.0,0.0
491,74.0,15.0,15.0,5.0,0.0
492,69.0,0.0,60.0,3.0,0.0
493,57.0,0.0,60.0,3.0,0.0
494,64.0,0.0,60.0,2.0,0.0
495,61.0,15.0,15.0,2.0,0.0
496,73.0,0.0,15.0,5.0,0.0
497,85.0,15.0,15.0,4.0,0.0
498,71.0,15.0,15.0,5.0,0.0
499,83.0,0.0,15.0,4.0,0.0
500,69.0,90.0,15.0,5.0,0.0
501,81.0,0.0,15.0,4.0,0.0
502,76.0,0.0,90.0,5.0,0.0
503,88.0,5.0,90.0,4.0,0.0
504,66.0,0.0,40.0,7.0,0.0
505,69.0,0.0,40.0,6.0,0.0
506,54.0,25.0,40.0,8.0,0.0
507,75.0,35.0,30.0,5.0,0.0
508,87.0,0.0,30.0,4.0,0.0
509,69.0,0.0,40.0,6.0,0.0
510,54.0,0.0,40.0,8.0,0.0
511,66.0,85.0,40.0,7.0,0.0
512,74.0,0.0,180.0,5.0,0.0
513,86.0,0.0,180.0,4.0,0.0
514,69.0,0.0,60.0,6.0,0.0
515,54.0,0.0,60.0,8.0,0.0
516,66.0,60.0,60.0,7.0,0.0
517,53.0,53.0,60.0,8.0,0.0
518,65.0,0.0,60.0,7.0,0.0
519,68.0,0.0,60.0,6.0,0.0
520,64.0,0.0,60.0,7.0,0.0
521,67.0,90.0,60.0,6.0,0.0
522,73.0,0.0,60.0,5.0,0.0
523,85.0,7.0,60.0,4.0,0.0
524,52.0,0.0,60.0,8.0,0.0
525,85.0,5.0,90.0,4.0,0.0
526,73.0,0.0,90.0,5.0,0.0
527,66.0,0.0,40.0,6.0,0.0
528,51.0,17.0,40.0,8.0,0.0
529,63.0,0.0,40.0,7.0,0.0
530,71.0,0.0,20.0,5.0,0.0
531,83.0,43.0,20.0,4.0,0.0
532,51.0,85.0,40.0,8.0,0.0
533,71.0,0.0,180.0,5.0,0.0
534,83.0,0.0,180.0,4.0,0.0
535,63.0,0.0,40.0,7.0,0.0
536,66.0,0.0,40.0,6.0,0.0
537,66.0,0.0,60.0,6.0,0.0
538,51.0,0.0,60.0,8.0,0.0
539,63.0,60.0,60.0,7.0,0.0
540,50.0,0.0,60.0,8.0,0.0
541,65.0,52.0,60.0,6.0,0.0
542,62.0,0.0,60.0,7.0,0.0
543,69.0,8.0,60.0,5.0,0.0
544,50.0,0.0,60.0,8.0,0.0
545,64.0,95.0,60.0,6.0,0.0
546,81.0,0.0,60.0,4.0,0.0
547,61.0,0.0,60.0,7.0,0.0
548,64.0,60.0,480.0,3.0,0.0
549,69.0,0.0,150.0,5.0,0.0
550,81.0,6.0,150.0,4.0,0.0
551,52.0,0.0,480.0,3.0,0.0
552,62.0,54.0,40.0,6.0,0.0
553,47.0,0.0,40.0,8.0,0.0
554,59.0,0.0,40.0,7.0,0.0
555,62.0,30.0,60.0,6.0,0.0
556,47.0,0.0,40.0,8.0,0.0
557,59.0,25.0,40.0,7.0,0.0
558,80.0,0.0,30.0,4.0,0.0
559,68.0,0.0,30.0,5.0,0.0
560,56.0,5.0,60.0,6.0,0.0
561,47.0,0.0,40.0,8.0,0.0
562,66.0,5.0,30.0,5.0,0.0
563,59.0,20.0,40.0,7.0,0.0
564,78.0,0.0,30.0,4.0,0.0
565,64.0,0.0,30.0,5.0,0.0
566,76.0,30.0,30.0,4.0,0.0
567,44.0,0.0,60.0,8.0,0.0
568,63.0,0.0,30.0,5.0,0.0
569,56.0,0.0,60.0,7.0,0.0
570,75.0,30.0,30.0,4.0,0.0
571,59.0,30.0,60.0,6.0,0.0
572,74.0,0.0,30.0,4.0,0.0
573,62.0,0.0,30.0,5.0,0.0
574,45.0,0.0,60.0,8.0,0.0
575,61.0,0.0,30.0,5.0,0.0
576,57.0,0.0,30.0,6.0,0.0
577,57.0,0.0,60.0,7.0,0.0
578,73.0,26.0,30.0,4.0,0.0
579,76.0,4.0,30.0,4.0,0.0
580,61.0,74.0,30.0,6.0,0.0
581,64.0,0.0,30.0,5.0,0.0
582,59.0,15.0,60.0,6.0,0.0
583,40.0,59.0,180.0,8.0,0.0
584,52.0,0.0,180.0,7.0,0.0
585,62.0,0.0,60.0,5.0,0.0
586,74.0,0.0,60.0,4.0,0.0
587,73.0,0.0,15.0,4.0,0.0
588,57.0,0.0,15.0,6.0,0.0
589,61.0,15.0,15.0,5.0,0.0
590,59.0,0.0,15.0,5.0,0.0
591,56.0,0.0,15.0,6.0,0.0
592,71.0,15.0,15.0,4.0,0.0
593,57.0,0.0,15.0,6.0,0.0
594,61.0,0.0,15.0,5.0,0.0
595,73.0,1.0,15.0,4.0,0.0
596,56.0,0.0,60.0,6.0,0.0
597,59.0,0.0,120.0,5.0,0.0
598,71.0,1.0,120.0,4.0,0.0
599,71.0,0.0,60.0,1.0,0.0
600,59.0,60.0,60.0,2.0,0.0
601,76.0,60.0,60.0,1.0,0.0
602,64.0,0.0,60.0,2.0,0.0
603,67.0,0.0,60.0,2.0,0.0
604,55.0,17.0,60.0,6.0,0.0
605,88.0,0.0,360.0,0.0,0.0
606,64.0,20.0,360.0,2.0,0.0
607,59.0,0.0,60.0,5.0,0.0
608,67.0,0.0,360.0,2.0,0.0
609,83.0,24.0,90.0,4.0,0.0
610,64.0,0.0,480.0,3.0,0.0
611,79.0,60.0,15.0,1.0,0.0
612,83.0,0.0,360.0,1.0,0.0
613,40.0,0.0,60.0,7.0,0.0
614,52.0,39.0,480.0,3.0,0.0
615,28.0,13.0,60.0,8.0,0.0
616,52.0,3.0,60.0,7.0,0.0
617,40.0,26.0,60.0,8.0,0.0
618,55.0,4.0,60.0,6.0,0.0
619,79.0,27.0,60.0,4.0,0.0
620,59.0,3.0,60.0,5.0,0.0
621,52.0,0.0,60.0,7.0,0.0
622,40.0,26.0,60.0,8.0,0.0
623,55.0,4.0,60.0,6.0,0.0
624,76.0,27.0,60.0,4.0,0.0
625,59.0,3.0,60.0,5.0,0.0
626,40.0,0.0,60.0,8.0,0.0
627,52.0,27.0,60.0,7.0,0.0
628,55.0,3.0,60.0,6.0,0.0
629,71.0,27.0,60.0,4.0,0.0
630,59.0,3.0,60.0,5.0,0.0
631,52.0,24.0,60.0,7.0,0.0
632,40.0,0.0,60.0,8.0,0.0
633,55.0,6.0,60.0,6.0,0.0
634,59.0,2.0,60.0,5.0,0.0
635,67.0,27.0,60.0,4.0,0.0
636,40.0,0.0,60.0,8.0,0.0
637,52.0,2.0,60.0,7.0,0.0
638,55.0,1.0,30.0,6.0,0.0
639,64.0,0.0,30.0,4.0,0.0
640,59.0,1.0,30.0,5.0,0.0
641,65.0,4.0,20.0,4.0,0.0
642,84.0,0.0,120.0,0.0,0.0
643,40.0,0.0,60.0,8.0,0.0
644,60.0,0.0,20.0,5.0,0.0
645,81.0,0.0,120.0,1.0,0.0
646,57.0,11.0,20.0,6.0,0.0
647,66.0,0.0,120.0,2.0,0.0
648,78.0,0.0,120.0,1.0,0.0
649,69.0,0.0,120.0,2.0,0.0
650,52.0,0.0,60.0,7.0,0.0
651,66.0,18.0,15.0,4.0,0.0
652,57.0,2.0,30.0,6.0,0.0
653,60.0,40.0,30.0,5.0,0.0
654,66.0,4.0,15.0,4.0,0.0
655,52.0,0.0,60.0,7.0,0.0
656,40.0,1.0,60.0,8.0,0.0
657,65.0,18.0,20.0,4.0,0.0
658,57.0,1.0,30.0,6.0,0.0
659,60.0,0.0,30.0,5.0,0.0
660,66.0,1.0,20.0,4.0,0.0
661,40.0,0.0,60.0,8.0,0.0
662,52.0,1.0,60.0,7.0,0.0
663,65.0,18.0,20.0,4.0,0.0
664,57.0,1.0,30.0,6.0,0.0
665,60.0,42.0,30.0,5.0,0.0
666,66.0,1.0,20.0,4.0,0.0
667,40.0,0.0,60.0,8.0,0.0
668,52.0,3.0,60.0,7.0,0.0
669,72.0,0.0,60.0,1.0,0.0
670,60.0,2.0,60.0,2.0,0.0
671,65.0,15.0,20.0,4.0,0.0
672,60.0,0.0,30.0,5.0,0.0
673,57.0,0.0,30.0,6.0,0.0
674,66.0,37.0,20.0,4.0,0.0
675,66.0,0.0,60.0,2.0,0.0
676,52.0,0.0,60.0,7.0,0.0
677,78.0,41.0,60.0,1.0,0.0
678,40.0,2.0,60.0,8.0,0.0
679,65.0,18.0,20.0,4.0,0.0
680,60.0,0.0,30.0,5.0,0.0
681,57.0,0.0,30.0,6.0,0.0
682,66.0,1.0,20.0,4.0,0.0
683,69.0,1.0,60.0,2.0,0.0
684,52.0,0.0,60.0,7.0,0.0
685,40.0,1.0,60.0,8.0,0.0
686,65.0,16.0,20.0,4.0,0.0
687,57.0,2.0,30.0,6.0,0.0
688,60.0,0.0,30.0,5.0,0.0
689,66.0,23.0,20.0,4.0,0.0
690,57.0,36.0,20.0,6.0,0.0
691,63.0,0.0,360.0,2.0,0.0
692,40.0,0.0,60.0,7.0,0.0
693,81.0,0.0,15.0,1.0,0.0
694,84.0,0.0,360.0,1.0,0.0
695,63.0,0.0,20.0,5.0,0.0
696,90.0,0.0,360.0,0.0,0.0
697,28.0,23.0,60.0,8.0,0.0
698,64.0,39.0,480.0,3.0,0.0
699,52.0,0.0,480.0,3.0,0.0
700,84.0,27.0,90.0,4.0,0.0
701,66.0,0.0,360.0,2.0,0.0
702,63.0,3.0,60.0,5.0,0.0
703,52.0,23.0,60.0,7.0,0.0
704,40.0,0.0,60.0,8.0,0.0
705,57.0,4.0,15.0,6.0,0.0
706,63.0,3.0,60.0,5.0,0.0
707,81.0,27.0,60.0,4.0,0.0
708,40.0,0.0,60.0,8.0,0.0
709,52.0,27.0,60.0,7.0,0.0
710,57.0,3.0,60.0,6.0,0.0
711,63.0,3.0,60.0,5.0,0.0
712,78.0,27.0,60.0,4.0,0.0
713,40.0,0.0,60.0,8.0,0.0
714,52.0,27.0,60.0,7.0,0.0
715,57.0,3.0,60.0,6.0,0.0
716,63.0,3.0,60.0,5.0,0.0
717,75.0,27.0,60.0,4.0,0.0
718,52.0,0.0,60.0,7.0,0.0
719,40.0,27.0,60.0,8.0,0.0
720,57.0,3.0,60.0,6.0,0.0
721,63.0,3.0,60.0,5.0,0.0
722,69.0,27.0,60.0,4.0,0.0
723,40.0,3.0,60.0,8.0,0.0
724,52.0,0.0,60.0,7.0,0.0
725,60.0,1.0,30.0,6.0,0.0
726,63.0,19.0,30.0,5.0,0.0
727,66.0,0.0,30.0,4.0,0.0
728,67.0,0.0,120.0,2.0,0.0
729,83.0,0.0,120.0,1.0,0.0
730,64.0,0.0,120.0,2.0,0.0
731,64.0,11.0,20.0,5.0,0.0
732,40.0,1.0,60.0,8.0,0.0
733,66.0,4.0,20.0,4.0,0.0
734,79.0,0.0,120.0,1.0,0.0
735,88.0,0.0,120.0,0.0,0.0
736,59.0,0.0,20.0,6.0,0.0
737,52.0,0.0,60.0,7.0,0.0
738,67.0,18.0,15.0,4.0,0.0
739,59.0,3.0,30.0,6.0,0.0
740,64.0,41.0,30.0,5.0,0.0
741,67.0,1.0,15.0,4.0,0.0
742,52.0,2.0,60.0,7.0,0.0
743,40.0,0.0,60.0,8.0,0.0
744,66.0,18.0,20.0,4.0,0.0
745,59.0,0.0,30.0,6.0,0.0
746,64.0,1.0,30.0,5.0,0.0
747,67.0,0.0,20.0,4.0,0.0
748,52.0,0.0,60.0,7.0,0.0
749,40.0,2.0,60.0,8.0,0.0
750,66.0,18.0,20.0,4.0,0.0
751,59.0,2.0,30.0,6.0,0.0
752,64.0,41.0,30.0,5.0,0.0
753,67.0,0.0,20.0,4.0,0.0
754,67.0,2.0,60.0,2.0,0.0
755,67.0,0.0,60.0,1.0,0.0
756,40.0,2.0,60.0,8.0,0.0
757,52.0,0.0,60.0,7.0,0.0
758,76.0,0.0,60.0,0.0,0.0
759,66.0,15.0,20.0,4.0,0.0
760,64.0,1.0,30.0,5.0,0.0
761,59.0,0.0,30.0,6.0,0.0
762,67.0,37.0,20.0,4.0,0.0
763,64.0,0.0,15.0,2.0,0.0
764,79.0,0.0,60.0,0.0,0.0
765,40.0,2.0,60.0,8.0,0.0
766,71.0,0.0,15.0,1.0,0.0
767,52.0,0.0,60.0,7.0,0.0
768,59.0,0.0,60.0,2.0,0.0
769,66.0,18.0,20.0,4.0,0.0
770,59.0,1.0,30.0,6.0,0.0
771,64.0,41.0,30.0,5.0,0.0
772,67.0,0.0,20.0,4.0,0.0
773,52.0,2.0,60.0,7.0,0.0
774,76.0,0.0,15.0,1.0,0.0
775,79.0,0.0,60.0,1.0,0.0
776,40.0,0.0,60.0,8.0,0.0
777,55.0,0.0,60.0,2.0,0.0
778,59.0,0.0,60.0,2.0,0.0
779,83.0,1.0,60.0,0.0,0.0
780,66.0,16.0,20.0,4.0,0.0
781,64.0,0.0,30.0,5.0,0.0
782,59.0,1.0,30.0,6.0,0.0
783,67.0,19.0,20.0,4.0,0.0
784,31.0,0.0,60.0,8.0,0.0
785,88.0,0.0,240.0,0.0,0.0
786,55.0,0.0,120.0,2.0,0.0
787,52.0,0.0,120.0,2.0,0.0
788,43.0,3.0,60.0,7.0,0.0
789,52.0,0.0,240.0,3.0,0.0
790,64.0,0.0,240.0,3.0,0.0
791,88.0,10.0,90.0,4.0,0.0
792,79.0,0.0,120.0,1.0,0.0
793,83.0,0.0,120.0,1.0,0.0
794,64.0,0.0,15.0,5.0,0.0
795,59.0,20.0,15.0,6.0,0.0
796,59.0,0.0,15.0,6.0,0.0
797,43.0,0.0,60.0,8.0,0.0
798,55.0,3.0,60.0,7.0,0.0
799,64.0,20.0,15.0,5.0,0.0
800,64.0,0.0,15.0,5.0,0.0
801,59.0,10.0,15.0,6.0,0.0
802,83.0,11.0,60.0,4.0,0.0
803,59.0,17.0,15.0,6.0,0.0
804,64.0,0.0,15.0,5.0,0.0
805,64.0,0.0,15.0,5.0,0.0
806,88.0,0.0,120.0,1.0,0.0
807,43.0,0.0,60.0,8.0,0.0
808,76.0,0.0,120.0,1.0,0.0
809,55.0,3.0,60.0,7.0,0.0
810,64.0,0.0,120.0,2.0,0.0
811,59.0,0.0,120.0,2.0,0.0
812,59.0,20.0,15.0,6.0,0.0
813,59.0,0.0,15.0,6.0,0.0
814,64.0,17.0,20.0,5.0,0.0
815,79.0,11.0,60.0,4.0,0.0
816,59.0,0.0,15.0,6.0,0.0
817,64.0,0.0,20.0,5.0,0.0
818,59.0,20.0,15.0,6.0,0.0
819,55.0,0.0,60.0,7.0,0.0
820,43.0,3.0,60.0,8.0,0.0
821,64.0,0.0,15.0,5.0,0.0
822,59.0,9.0,15.0,6.0,0.0
823,76.0,0.0,30.0,4.0,0.0
824,59.0,0.0,20.0,6.0,0.0
825,88.0,10.0,90.0,4.0,0.0
826,77.0,20.0,120.0,1.0,0.0
827,33.0,3.0,60.0,8.0,0.0
828,45.0,0.0,60.0,7.0,0.0
829,52.0,0.0,240.0,3.0,0.0
830,60.0,0.0,240.0,2.0,0.0
831,65.0,0.0,120.0,2.0,0.0
832,64.0,20.0,15.0,5.0,0.0
833,89.0,0.0,120.0,0.0,0.0
834,64.0,17.0,20.0,5.0,0.0
835,60.0,20.0,15.0,6.0,0.0
836,45.0,3.0,60.0,8.0,0.0
837,64.0,20.0,15.0,5.0,0.0
838,57.0,0.0,60.0,7.0,0.0
839,60.0,0.0,15.0,6.0,0.0
840,60.0,0.0,15.0,6.0,0.0
841,64.0,10.0,15.0,5.0,0.0
842,84.0,11.0,60.0,4.0,0.0
843,60.0,0.0,20.0,6.0,0.0
844,64.0,0.0,20.0,5.0,0.0
845,66.0,20.0,120.0,2.0,0.0
846,57.0,3.0,60.0,7.0,0.0
847,90.0,0.0,120.0,0.0,0.0
848,45.0,0.0,60.0,8.0,0.0
849,78.0,0.0,120.0,1.0,0.0
850,60.0,9.0,15.0,6.0,0.0
851,66.0,0.0,15.0,5.0,0.0
852,81.0,11.0,60.0,4.0,0.0
853,60.0,0.0,15.0,6.0,0.0
854,66.0,17.0,15.0,5.0,0.0
855,57.0,3.0,60.0,7.0,0.0
856,45.0,0.0,60.0,8.0,0.0
857,66.0,0.0,15.0,5.0,0.0
858,60.0,9.0,15.0,6.0,0.0
859,76.0,0.0,30.0,4.0,0.0
860,60.0,0.0,20.0,6.0,0.0
861,66.0,0.0,20.0,5.0,0.0
862,47.0,0.0,60.0,7.0,0.0
863,35.0,3.0,60.0,8.0,0.0
864,88.0,0.0,15.0,1.0,0.0
865,64.0,0.0,15.0,3.0,0.0
866,79.0,0.0,120.0,1.0,0.0
867,67.0,0.0,20.0,5.0,0.0
868,91.0,20.0,120.0,0.0,0.0
869,88.0,10.0,90.0,4.0,0.0
870,62.0,20.0,20.0,6.0,0.0
871,62.0,0.0,240.0,2.0,0.0
872,67.0,0.0,120.0,2.0,0.0
873,67.0,0.0,15.0,5.0,0.0
874,62.0,17.0,15.0,6.0,0.0
875,67.0,0.0,15.0,5.0,0.0
876,59.0,0.0,60.0,7.0,0.0
877,47.0,3.0,60.0,8.0,0.0
878,67.0,10.0,15.0,5.0,0.0
879,62.0,0.0,15.0,6.0,0.0
880,83.0,11.0,60.0,4.0,0.0
881,67.0,17.0,15.0,5.0,0.0
882,62.0,0.0,15.0,6.0,0.0
883,47.0,3.0,60.0,8.0,0.0
884,68.0,0.0,240.0,2.0,0.0
885,59.0,0.0,60.0,7.0,0.0
886,80.0,0.0,240.0,1.0,0.0
887,68.0,0.0,20.0,5.0,0.0
888,92.0,0.0,240.0,0.0,0.0
889,62.0,9.0,20.0,6.0,0.0
890,68.0,17.0,20.0,5.0,0.0
891,62.0,0.0,20.0,6.0,0.0
892,80.0,11.0,60.0,4.0,0.0
893,68.0,20.0,20.0,5.0,0.0
894,62.0,0.0,15.0,6.0,0.0
895,47.0,3.0,60.0,8.0,0.0
896,59.0,0.0,60.0,7.0,0.0
897,62.0,0.0,15.0,6.0,0.0
898,68.0,9.0,15.0,5.0,0.0
899,76.0,0.0,30.0,4.0,0.0
900,68.0,17.0,15.0,5.0,0.0
901,62.0,20.0,20.0,6.0,0.0
902,68.0,0.0,15.0,5.0,0.0
903,36.0,0.0,60.0,8.0,0.0
904,64.0,0.0,15.0,3.0,0.0
905,52.0,0.0,15.0,3.0,0.0
906,88.0,10.0,90.0,4.0,0.0
907,48.0,3.0,60.0,7.0,0.0
908,60.0,0.0,20.0,6.0,0.0
909,64.0,0.0,240.0,2.0,0.0
910,88.0,0.0,15.0,1.0,0.0
911,60.0,17.0,20.0,6.0,0.0
912,68.0,0.0,20.0,5.0,0.0
913,68.0,0.0,20.0,5.0,0.0
914,60.0,3.0,60.0,7.0,0.0
915,60.0,20.0,15.0,6.0,0.0
916,68.0,0.0,20.0,5.0,0.0
917,48.0,0.0,60.0,8.0,0.0
918,68.0,0.0,20.0,5.0,0.0
919,84.0,11.0,60.0,4.0,0.0
920,60.0,17.0,15.0,6.0,0.0
921,68.0,0.0,20.0,5.0,0.0
922,48.0,3.0,60.0,8.0,0.0
923,69.0,0.0,20.0,5.0,0.0
924,93.0,0.0,120.0,0.0,0.0
925,64.0,9.0,20.0,6.0,0.0
926,60.0,0.0,60.0,7.0,0.0
927,81.0,11.0,60.0,4.0,0.0
928,64.0,0.0,15.0,6.0,0.0
929,69.0,17.0,15.0,5.0,0.0
930,48.0,3.0,60.0,8.0,0.0
931,60.0,0.0,60.0,7.0,0.0
932,69.0,9.0,20.0,5.0,0.0
933,64.0,0.0,15.0,6.0,0.0
934,69.0,0.0,20.0,5.0,0.0
935,76.0,20.0,30.0,4.0,0.0
936,64.0,17.0,15.0,6.0,0.0
937,81.0,0.0,15.0,1.0,0.0
938,88.0,0.0,15.0,1.0,0.0
939,52.0,0.0,15.0,3.0,0.0
940,69.0,0.0,15.0,2.0,0.0
941,63.0,0.0,240.0,2.0,0.0
942,64.0,29.0,240.0,3.0,0.0
943,69.0,0.0,15.0,5.0,0.0
944,37.0,3.0,60.0,8.0,0.0
945,49.0,0.0,60.0,7.0,0.0
946,93.0,0.0,120.0,0.0,0.0
947,91.0,10.0,90.0,4.0,0.0
948,67.0,0.0,15.0,6.0,0.0
949,69.0,20.0,15.0,5.0,0.0
950,67.0,17.0,15.0,6.0,0.0
951,69.0,0.0,15.0,5.0,0.0
952,61.0,0.0,60.0,7.0,0.0
953,49.0,3.0,60.0,8.0,0.0
954,69.0,10.0,20.0,5.0,0.0
955,67.0,0.0,20.0,6.0,0.0
956,69.0,17.0,20.0,5.0,0.0
957,88.0,60.0,60.0,4.0,0.0
958,67.0,0.0,15.0,6.0,0.0
959,69.0,0.0,20.0,5.0,0.0
960,67.0,0.0,15.0,6.0,0.0
961,61.0,0.0,240.0,7.0,0.0
962,49.0,0.0,240.0,8.0,0.0
963,70.0,60.0,360.0,5.0,0.0
964,70.0,0.0,120.0,2.0,0.0
965,94.0,0.0,120.0,0.0,0.0
966,82.0,0.0,120.0,1.0,0.0
967,85.0,31.0,60.0,4.0,0.0
968,82.0,60.0,60.0,4.0,0.0
969,88.0,30.0,120.0,0.0,0.0
970,82.0,0.0,120.0,1.0,0.0
971,79.0,31.0,60.0,4.0,0.0
972,76.0,0.0,30.0,4.0,0.0
973,60.0,0.0,120.0,7.0,0.0
974,76.0,0.0,120.0,1.0,0.0
975,75.0,30.0,30.0,4.0,0.0
976,48.0,0.0,120.0,8.0,0.0
977,76.0,30.0,30.0,4.0,0.0
978,79.0,27.0,30.0,4.0,0.0
979,76.0,3.0,30.0,4.0,0.0
980,47.0,0.0,60.0,8.0,0.0
981,71.0,60.0,60.0,5.0,0.0
982,82.0,0.0,15.0,0.0,0.0
983,76.0,35.0,150.0,4.0,0.0
984,59.0,0.0,60.0,7.0,0.0
985,79.0,0.0,120.0,1.0,0.0
986,59.0,0.0,60.0,6.0,0.0
987,35.0,0.0,60.0,8.0,0.0
988,47.0,0.0,60.0,7.0,0.0
989,78.0,0.0,60.0,1.0,0.0
990,83.0,0.0,60.0,0.0,0.0
991,59.0,0.0,60.0,6.0,0.0
992,59.0,30.0,60.0,5.0,0.0
993,75.0,0.0,30.0,4.0,0.0
994,73.0,30.0,30.0,4.0,0.0
995,83.0,14.0,30.0,1.0,0.0
996,71.0,0.0,30.0,4.0,0.0
997,82.0,15.0,15.0,1.0,0.0
998,70.0,0.0,15.0,4.0,0.0
999,71.0,15.0,15.0,4.0,0.0
1000,83.0,0.0,15.0,1.0,0.0
1001,85.0,0.0,15.0,1.0,0.0
1002,73.0,15.0,15.0,4.0,0.0
1003,71.0,15.0,15.0,4.0,0.0
1004,83.0,0.0,15.0,1.0,0.0
1005,81.0,15.0,15.0,1.0,0.0
1006,69.0,0.0,15.0,4.0,0.0
1007,68.0,0.0,15.0,4.0,0.0
1008,80.0,15.0,15.0,1.0,0.0
1009,69.0,0.0,15.0,4.0,0.0
1010,81.0,15.0,15.0,1.0,0.0
1011,78.0,0.0,15.0,1.0,0.0
1012,66.0,21.0,15.0,4.0,0.0
1013,76.0,20.0,120.0,1.0,0.0
1014,59.0,20.0,20.0,5.0,0.0
1015,71.0,0.0,120.0,1.0,0.0
1016,56.0,0.0,120.0,7.0,0.0
1017,59.0,0.0,120.0,2.0,0.0
1018,64.0,0.0,120.0,2.0,0.0
1019,59.0,0.0,120.0,6.0,0.0
1020,64.0,0.0,120.0,4.0,0.0
1021,71.0,0.0,540.0,3.0,0.0
1022,44.0,0.0,120.0,8.0,0.0
1023,64.0,20.0,20.0,5.0,0.0
1024,68.0,20.0,20.0,5.0,0.0
1025,71.0,20.0,20.0,5.0,0.0
1026,68.0,20.0,20.0,5.0,0.0
1027,64.0,0.0,20.0,5.0,0.0
1028,59.0,20.0,20.0,5.0,0.0
1029,42.0,20.0,120.0,8.0,0.0
1030,66.0,0.0,120.0,4.0,0.0
1031,63.0,0.0,120.0,2.0,0.0
1032,78.0,0.0,120.0,1.0,0.0
1033,54.0,0.0,120.0,7.0,0.0
1034,75.0,0.0,120.0,1.0,0.0
1035,57.0,0.0,120.0,6.0,0.0
1036,66.0,0.0,120.0,2.0,0.0
1037,63.0,20.0,20.0,5.0,0.0
1038,66.0,20.0,20.0,5.0,0.0
1039,71.0,20.0,20.0,5.0,0.0
1040,66.0,20.0,20.0,5.0,0.0
1041,63.0,0.0,20.0,5.0,0.0
1042,59.0,20.0,20.0,5.0,0.0
1043,52.0,0.0,120.0,7.0,0.0
1044,80.0,0.0,120.0,1.0,0.0
1045,76.0,0.0,120.0,1.0,0.0
1046,68.0,0.0,120.0,4.0,0.0
1047,56.0,0.0,120.0,6.0,0.0
1048,64.0,0.0,120.0,2.0,0.0
1049,68.0,20.0,120.0,2.0,0.0
1050,40.0,0.0,120.0,8.0,0.0
1051,64.0,20.0,20.0,5.0,0.0
1052,68.0,20.0,20.0,5.0,0.0
1053,71.0,20.0,20.0,5.0,0.0
1054,68.0,20.0,20.0,5.0,0.0
1055,64.0,0.0,20.0,5.0,0.0
1056,39.0,0.0,120.0,8.0,0.0
1057,81.0,0.0,120.0,1.0,0.0
1058,51.0,20.0,120.0,7.0,0.0
1059,54.0,0.0,120.0,6.0,0.0
1060,69.0,0.0,120.0,2.0,0.0
1061,69.0,6.0,60.0,4.0,0.0
1062,59.0,20.0,20.0,5.0,0.0
1063,63.0,20.0,20.0,5.0,0.0
1064,66.0,14.0,20.0,5.0,0.0
1065,71.0,9.0,20.0,5.0,0.0
1066,71.0,11.0,15.0,4.0,0.0
1067,66.0,4.0,20.0,5.0,0.0
1068,68.0,15.0,15.0,4.0,0.0
1069,63.0,0.0,20.0,5.0,0.0
1070,69.0,1.0,15.0,4.0,0.0
1071,78.0,0.0,15.0,1.0,0.0
1072,75.0,0.0,60.0,1.0,0.0
1073,59.0,20.0,20.0,5.0,0.0
1074,66.0,1.0,60.0,4.0,0.0
1075,66.0,0.0,15.0,2.0,0.0
1076,63.0,0.0,120.0,2.0,0.0
1077,63.0,19.0,20.0,5.0,0.0
1078,66.0,0.0,20.0,5.0,0.0
1079,71.0,0.0,60.0,3.0,0.0
1080,83.0,2.0,60.0,0.0,0.0
1081,71.0,20.0,20.0,5.0,0.0
1082,66.0,17.0,20.0,5.0,0.0
1083,63.0,20.0,20.0,5.0,0.0
1084,59.0,20.0,20.0,5.0,0.0
1085,83.0,1.0,60.0,0.0,0.0
1086,71.0,0.0,60.0,3.0,0.0
1087,63.0,18.0,20.0,5.0,0.0
1088,66.0,20.0,20.0,5.0,0.0
1089,71.0,20.0,20.0,5.0,0.0
1090,83.0,1.0,60.0,0.0,0.0
1091,71.0,0.0,60.0,3.0,0.0
1092,66.0,18.0,20.0,5.0,0.0
1093,63.0,20.0,20.0,5.0,0.0
1094,59.0,20.0,20.0,5.0,0.0
1095,63.0,0.0,120.0,2.0,0.0
1096,57.0,0.0,120.0,6.0,0.0
1097,78.0,0.0,120.0,1.0,0.0
1098,66.0,0.0,120.0,2.0,0.0
1099,75.0,0.0,120.0,1.0,0.0
1100,45.0,0.0,120.0,8.0,0.0
1101,71.0,0.0,540.0,3.0,0.0
1102,66.0,20.0,90.0,4.0,0.0
1103,57.0,0.0,120.0,7.0,0.0
1104,83.0,0.0,480.0,0.0,0.0
1105,63.0,20.0,20.0,5.0,0.0
1106,66.0,20.0,20.0,5.0,0.0
1107,71.0,0.0,20.0,5.0,0.0
1108,66.0,20.0,20.0,5.0,0.0
1109,63.0,0.0,20.0,4.0,0.0
1110,59.0,20.0,20.0,4.0,0.0
1111,63.0,0.0,20.0,5.0,0.0
1112,56.0,0.0,120.0,7.0,0.0
1113,76.0,0.0,120.0,1.0,0.0
1114,59.0,20.0,20.0,5.0,0.0
1115,80.0,0.0,120.0,1.0,0.0
1116,56.0,0.0,120.0,6.0,0.0
1117,44.0,0.0,120.0,8.0,0.0
1118,68.0,0.0,120.0,2.0,0.0
1119,64.0,0.0,120.0,2.0,0.0
1120,68.0,0.0,90.0,4.0,0.0
1121,64.0,20.0,20.0,5.0,0.0
1122,68.0,20.0,20.0,5.0,0.0
1123,71.0,20.0,20.0,5.0,0.0
1124,64.0,0.0,20.0,4.0,0.0
1125,68.0,20.0,20.0,5.0,0.0
1126,64.0,0.0,20.0,5.0,0.0
1127,59.0,20.0,20.0,4.0,0.0
1128,66.0,0.0,120.0,2.0,0.0
1129,59.0,20.0,20.0,5.0,0.0
1130,69.0,0.0,120.0,2.0,0.0
1131,54.0,0.0,120.0,7.0,0.0
1132,78.0,0.0,120.0,1.0,0.0
1133,54.0,20.0,120.0,6.0,0.0
1134,42.0,0.0,120.0,8.0,0.0
1135,69.0,20.0,90.0,4.0,0.0
1136,81.0,0.0,120.0,1.0,0.0
1137,63.0,20.0,20.0,5.0,0.0
1138,66.0,20.0,20.0,5.0,0.0
1139,71.0,0.0,20.0,5.0,0.0
1140,66.0,0.0,20.0,4.0,0.0
1141,69.0,20.0,20.0,5.0,0.0
1142,66.0,0.0,20.0,5.0,0.0
1143,63.0,0.0,20.0,4.0,0.0
1144,68.0,0.0,120.0,2.0,0.0
1145,40.0,0.0,120.0,8.0,0.0
1146,71.0,6.0,60.0,4.0,0.0
1147,52.0,0.0,120.0,7.0,0.0
1148,52.0,0.0,120.0,6.0,0.0
1149,71.0,0.0,120.0,2.0,0.0
1150,83.0,0.0,120.0,1.0,0.0
1151,80.0,0.0,120.0,1.0,0.0
1152,59.0,20.0,20.0,5.0,0.0
1153,64.0,20.0,20.0,5.0,0.0
1154,68.0,14.0,20.0,5.0,0.0
1155,71.0,9.0,20.0,5.0,0.0
1156,73.0,11.0,15.0,4.0,0.0
1157,68.0,4.0,20.0,5.0,0.0
1158,69.0,15.0,15.0,4.0,0.0
1159,64.0,20.0,20.0,5.0,0.0
1160,71.0,1.0,15.0,4.0,0.0
1161,64.0,0.0,60.0,2.0,0.0
1162,68.0,0.0,60.0,2.0,0.0
1163,68.0,1.0,60.0,4.0,0.0
1164,80.0,0.0,60.0,1.0,0.0
1165,76.0,20.0,60.0,1.0,0.0
1166,59.0,20.0,20.0,5.0,0.0
1167,64.0,19.0,20.0,5.0,0.0
1168,68.0,0.0,20.0,5.0,0.0
1169,71.0,20.0,20.0,5.0,0.0
1170,64.0,0.0,60.0,3.0,0.0
1171,71.0,0.0,60.0,3.0,0.0
1172,76.0,1.0,60.0,1.0,0.0
1173,80.0,0.0,60.0,1.0,0.0
1174,88.0,0.0,60.0,0.0,0.0
1175,68.0,19.0,20.0,5.0,0.0
1176,64.0,20.0,20.0,5.0,0.0
1177,88.0,0.0,60.0,0.0,0.0
1178,76.0,0.0,60.0,1.0,0.0
1179,64.0,0.0,60.0,3.0,0.0
1180,59.0,20.0,20.0,5.0,0.0
1181,80.0,0.0,60.0,1.0,0.0
1182,71.0,1.0,60.0,3.0,0.0
1183,64.0,19.0,20.0,5.0,0.0
1184,68.0,20.0,20.0,5.0,0.0
1185,71.0,1.0,60.0,3.0,0.0
1186,64.0,0.0,60.0,3.0,0.0
1187,71.0,20.0,20.0,5.0,0.0
1188,88.0,0.0,60.0,0.0,0.0
1189,76.0,0.0,60.0,1.0,0.0
1190,80.0,0.0,60.0,1.0,0.0
1191,68.0,19.0,20.0,5.0,0.0
1192,64.0,20.0,20.0,5.0,0.0
1193,68.0,0.0,120.0,6.0,0.0
1194,49.0,0.0,60.0,8.0,0.0
1195,61.0,17.0,60.0,7.0,0.0
1196,65.0,0.0,120.0,2.0,0.0
1197,59.0,20.0,120.0,2.0,0.0
1198,59.0,20.0,20.0,5.0,0.0
1199,65.0,13.0,20.0,5.0,0.0
1200,86.0,0.0,20.0,4.0,0.0
1201,85.0,7.0,15.0,4.0,0.0
1202,68.0,0.0,20.0,5.0,0.0
1203,85.0,3.0,15.0,4.0,0.0
1204,71.0,17.0,20.0,5.0,0.0
1205,68.0,17.0,20.0,5.0,0.0
1206,85.0,3.0,15.0,4.0,0.0
1207,65.0,0.0,20.0,5.0,0.0
1208,85.0,3.0,15.0,4.0,0.0
1209,66.0,0.0,60.0,7.0,0.0
1210,85.0,0.0,60.0,4.0,0.0
1211,66.0,0.0,240.0,6.0,0.0
1212,54.0,0.0,60.0,8.0,0.0
1213,64.0,20.0,20.0,5.0,0.0
1214,58.0,20.0,120.0,2.0,0.0
1215,64.0,0.0,120.0,2.0,0.0
1216,66.0,20.0,20.0,5.0,0.0
1217,70.0,20.0,20.0,5.0,0.0
1218,90.0,4.0,60.0,4.0,0.0
1219,73.0,20.0,20.0,5.0,0.0
1220,70.0,16.0,20.0,5.0,0.0
1221,66.0,0.0,20.0,5.0,0.0
1222,47.0,0.0,60.0,8.0,0.0
1223,63.0,20.0,20.0,5.0,0.0
1224,57.0,0.0,120.0,2.0,0.0
1225,63.0,20.0,120.0,2.0,0.0
1226,59.0,17.0,60.0,7.0,0.0
1227,66.0,13.0,20.0,5.0,0.0
1228,84.0,0.0,20.0,4.0,0.0
1229,83.0,7.0,15.0,4.0,0.0
1230,69.0,0.0,20.0,5.0,0.0
1231,83.0,3.0,15.0,4.0,0.0
1232,71.0,17.0,20.0,5.0,0.0
1233,69.0,17.0,20.0,5.0,0.0
1234,83.0,3.0,15.0,4.0,0.0
1235,83.0,3.0,15.0,4.0,0.0
1236,66.0,0.0,20.0,5.0,0.0
1237,56.0,20.0,120.0,2.0,0.0
1238,62.0,0.0,120.0,2.0,0.0
1239,62.0,20.0,20.0,5.0,0.0
1240,64.0,0.0,180.0,6.0,0.0
1241,83.0,0.0,60.0,4.0,0.0
1242,52.0,20.0,60.0,8.0,0.0
1243,64.0,0.0,60.0,7.0,0.0
1244,64.0,20.0,20.0,5.0,0.0
1245,68.0,0.0,20.0,5.0,0.0
1246,71.0,20.0,20.0,5.0,0.0
1247,88.0,0.0,60.0,4.0,0.0
1248,68.0,20.0,20.0,5.0,0.0
1249,64.0,0.0,20.0,5.0,0.0
1250,57.0,0.0,120.0,2.0,0.0
1251,61.0,20.0,20.0,5.0,0.0
1252,57.0,20.0,120.0,7.0,0.0
1253,45.0,0.0,120.0,8.0,0.0
1254,61.0,0.0,120.0,2.0,0.0
1255,83.0,0.0,20.0,4.0,0.0
1256,64.0,13.0,20.0,5.0,0.0
1257,81.0,7.0,15.0,4.0,0.0
1258,69.0,16.0,20.0,5.0,0.0
1259,81.0,4.0,15.0,4.0,0.0
1260,73.0,16.0,20.0,5.0,0.0
1261,66.0,0.0,120.0,6.0,0.0
1262,81.0,4.0,15.0,4.0,0.0
1263,69.0,16.0,20.0,5.0,0.0
1264,81.0,4.0,15.0,4.0,0.0
1265,66.0,0.0,20.0,5.0,0.0
1266,81.0,20.0,20.0,4.0,0.0
1267,63.0,0.0,60.0,2.0,0.0
1268,59.0,0.0,60.0,2.0,0.0
1269,59.0,20.0,60.0,7.0,0.0
1270,47.0,0.0,60.0,8.0,0.0
1271,63.0,0.0,20.0,5.0,0.0
1272,83.0,0.0,20.0,4.0,0.0
1273,61.0,20.0,20.0,5.0,0.0
1274,81.0,0.0,20.0,4.0,0.0
1275,63.0,0.0,20.0,5.0,0.0
1276,64.0,0.0,60.0,6.0,0.0
1277,64.0,0.0,60.0,2.0,0.0
1278,61.0,0.0,60.0,7.0,0.0
1279,61.0,0.0,60.0,2.0,0.0
1280,49.0,0.0,60.0,8.0,0.0
1281,64.0,20.0,20.0,5.0,0.0
1282,80.0,0.0,20.0,4.0,0.0
1283,81.0,20.0,20.0,4.0,0.0
1284,63.0,0.0,20.0,5.0,0.0
1285,64.0,20.0,20.0,5.0,0.0
1286,80.0,0.0,20.0,4.0,0.0
1287,61.0,0.0,120.0,6.0,0.0
1288,61.0,20.0,20.0,5.0,0.0
1289,57.0,0.0,60.0,7.0,0.0
1290,45.0,0.0,60.0,8.0,0.0
1291,77.0,0.0,20.0,4.0,0.0
1292,78.0,20.0,20.0,4.0,0.0
1293,69.0,0.0,20.0,5.0,0.0
1294,81.0,0.0,20.0,4.0,0.0
1295,66.0,20.0,20.0,5.0,0.0
1296,69.0,20.0,20.0,5.0,0.0
1297,85.0,0.0,20.0,4.0,0.0
1298,81.0,20.0,20.0,4.0,0.0
1299,73.0,0.0,20.0,5.0,0.0
1300,69.0,20.0,20.0,5.0,0.0
1301,78.0,0.0,20.0,4.0,0.0
1302,59.0,20.0,60.0,7.0,0.0
1303,59.0,20.0,20.0,5.0,0.0
1304,76.0,0.0,120.0,1.0,0.0
1305,80.0,0.0,120.0,1.0,0.0
1306,59.0,0.0,240.0,6.0,0.0
1307,47.0,0.0,60.0,8.0,0.0
1308,76.0,0.0,120.0,4.0,0.0
1309,64.0,20.0,20.0,5.0,0.0
1310,68.0,0.0,20.0,5.0,0.0
1311,71.0,20.0,20.0,5.0,0.0
1312,68.0,20.0,20.0,5.0,0.0
1313,64.0,20.0,20.0,5.0,0.0
1314,78.0,0.0,120.0,1.0,0.0
1315,75.0,0.0,120.0,1.0,0.0
1316,35.0,17.0,60.0,8.0,0.0
1317,75.0,0.0,20.0,4.0,0.0
1318,47.0,0.0,60.0,7.0,0.0
1319,66.0,20.0,20.0,5.0,0.0
1320,85.0,13.0,20.0,4.0,0.0
1321,69.0,0.0,20.0,5.0,0.0
1322,71.0,0.0,20.0,5.0,0.0
1323,83.0,7.0,15.0,4.0,0.0
1324,69.0,17.0,20.0,5.0,0.0
1325,83.0,3.0,15.0,4.0,0.0
1326,66.0,17.0,20.0,5.0,0.0
1327,83.0,3.0,15.0,4.0,0.0
1328,63.0,17.0,20.0,5.0,0.0
1329,83.0,3.0,15.0,4.0,0.0
1330,77.0,0.0,120.0,1.0,0.0
1331,83.0,20.0,120.0,1.0,0.0
1332,61.0,0.0,60.0,7.0,0.0
1333,83.0,3.0,15.0,4.0,0.0
1334,49.0,17.0,60.0,8.0,0.0
1335,65.0,20.0,20.0,5.0,0.0
1336,68.0,0.0,120.0,6.0,0.0
1337,86.0,0.0,20.0,4.0,0.0
1338,68.0,13.0,20.0,5.0,0.0
1339,71.0,0.0,20.0,5.0,0.0
1340,85.0,7.0,15.0,4.0,0.0
1341,73.0,17.0,20.0,5.0,0.0
1342,65.0,0.0,60.0,2.0,0.0
1343,59.0,0.0,60.0,2.0,0.0
1344,85.0,3.0,15.0,4.0,0.0
1345,71.0,17.0,20.0,5.0,0.0
1346,85.0,3.0,15.0,4.0,0.0
1347,68.0,0.0,20.0,5.0,0.0
1348,85.0,3.0,15.0,4.0,0.0
1349,64.0,20.0,20.0,5.0,0.0
1350,66.0,0.0,60.0,7.0,0.0
1351,54.0,17.0,60.0,8.0,0.0
1352,82.0,0.0,120.0,1.0,0.0
1353,66.0,0.0,240.0,6.0,0.0
1354,76.0,0.0,120.0,1.0,0.0
1355,85.0,0.0,60.0,4.0,0.0
1356,66.0,13.0,20.0,5.0,0.0
1357,91.0,0.0,20.0,0.0,0.0
1358,70.0,0.0,20.0,5.0,0.0
1359,90.0,7.0,15.0,0.0,0.0
1360,90.0,20.0,60.0,4.0,0.0
1361,73.0,17.0,20.0,5.0,0.0
1362,64.0,0.0,60.0,2.0,0.0
1363,90.0,3.0,15.0,0.0,0.0
1364,58.0,0.0,60.0,2.0,0.0
1365,90.0,3.0,15.0,0.0,0.0
1366,70.0,17.0,20.0,5.0,0.0
1367,90.0,3.0,15.0,0.0,0.0
1368,66.0,0.0,20.0,5.0,0.0
1369,75.0,0.0,120.0,1.0,0.0
1370,81.0,0.0,120.0,1.0,0.0
1371,63.0,20.0,20.0,5.0,0.0
1372,59.0,0.0,60.0,7.0,0.0
1373,90.0,1.0,60.0,0.0,0.0
1374,47.0,17.0,60.0,8.0,0.0
1375,66.0,13.0,20.0,5.0,0.0
1376,84.0,0.0,20.0,4.0,0.0
1377,83.0,6.0,15.0,4.0,0.0
1378,69.0,0.0,20.0,5.0,0.0
1379,63.0,20.0,60.0,2.0,0.0
1380,71.0,17.0,20.0,5.0,0.0
1381,57.0,0.0,60.0,2.0,0.0
1382,83.0,1.0,60.0,0.0,0.0
1383,83.0,3.0,15.0,4.0,0.0
1384,69.0,17.0,20.0,5.0,0.0
1385,83.0,3.0,15.0,4.0,0.0
1386,83.0,2.0,15.0,4.0,0.0
1387,66.0,0.0,20.0,5.0,0.0
1388,83.0,0.0,60.0,4.0,0.0
1389,80.0,0.0,120.0,1.0,0.0
1390,74.0,0.0,120.0,1.0,0.0
1391,64.0,0.0,180.0,6.0,0.0
1392,52.0,17.0,60.0,8.0,0.0
1393,62.0,20.0,20.0,5.0,0.0
1394,64.0,0.0,60.0,7.0,0.0
1395,89.0,13.0,20.0,0.0,0.0
1396,64.0,0.0,20.0,5.0,0.0
1397,88.0,7.0,15.0,0.0,0.0
1398,68.0,0.0,20.0,5.0,0.0
1399,56.0,1.0,60.0,2.0,0.0
1400,71.0,17.0,20.0,5.0,0.0
1401,88.0,3.0,15.0,0.0,0.0
1402,88.0,4.0,60.0,4.0,0.0
1403,62.0,16.0,60.0,2.0,0.0
1404,68.0,17.0,20.0,5.0,0.0
1405,88.0,3.0,15.0,0.0,0.0
1406,64.0,0.0,20.0,5.0,0.0
1407,88.0,2.0,15.0,0.0,0.0
1408,81.0,1.0,60.0,1.0,0.0
1409,73.0,1.0,120.0,1.0,0.0
1410,61.0,20.0,20.0,5.0,0.0
1411,88.0,1.0,60.0,0.0,0.0
1412,45.0,0.0,120.0,8.0,0.0
1413,57.0,0.0,120.0,7.0,0.0
1414,64.0,0.0,20.0,5.0,0.0
1415,83.0,13.0,20.0,4.0,0.0
1416,69.0,17.0,20.0,5.0,0.0
1417,81.0,5.0,15.0,4.0,0.0
1418,78.0,1.0,120.0,1.0,0.0
1419,57.0,0.0,60.0,2.0,0.0
1420,61.0,0.0,60.0,2.0,0.0
1421,81.0,0.0,60.0,0.0,0.0
1422,73.0,17.0,20.0,5.0,0.0
1423,81.0,3.0,15.0,4.0,0.0
1424,66.0,1.0,120.0,6.0,0.0
1425,69.0,17.0,20.0,5.0,0.0
1426,81.0,3.0,15.0,4.0,0.0
1427,81.0,2.0,15.0,4.0,0.0
1428,66.0,20.0,20.0,5.0,0.0
1429,63.0,0.0,60.0,2.0,0.0
1430,59.0,1.0,60.0,7.0,0.0
1431,63.0,20.0,20.0,5.0,0.0
1432,47.0,0.0,60.0,8.0,0.0
1433,81.0,0.0,20.0,4.0,0.0
1434,73.0,1.0,60.0,1.0,0.0
1435,59.0,18.0,60.0,2.0,0.0
1436,83.0,0.0,20.0,4.0,0.0
1437,61.0,18.0,20.0,5.0,0.0
1438,81.0,0.0,20.0,4.0,0.0
1439,63.0,0.0,20.0,5.0,0.0
1440,61.0,2.0,60.0,2.0,0.0
1441,64.0,0.0,60.0,2.0,0.0
1442,49.0,1.0,60.0,8.0,0.0
1443,80.0,0.0,20.0,4.0,0.0
1444,61.0,0.0,60.0,7.0,0.0
1445,64.0,20.0,20.0,5.0,0.0
1446,64.0,1.0,120.0,6.0,0.0
1447,76.0,19.0,60.0,1.0,0.0
1448,81.0,0.0,20.0,4.0,0.0
1449,63.0,17.0,20.0,5.0,0.0
1450,80.0,1.0,15.0,4.0,0.0
1451,64.0,0.0,20.0,5.0,0.0
1452,80.0,17.0,20.0,4.0,0.0
1453,54.0,0.0,120.0,7.0,0.0
1454,81.0,0.0,60.0,1.0,0.0
1455,69.0,0.0,20.0,5.0,0.0
1456,42.0,1.0,120.0,8.0,0.0
1457,54.0,0.0,120.0,2.0,0.0
1458,68.0,17.0,20.0,5.0,0.0
1459,78.0,3.0,15.0,4.0,0.0
1460,69.0,0.0,20.0,5.0,0.0
1461,78.0,2.0,15.0,4.0,0.0
1462,75.0,1.0,120.0,1.0,0.0
1463,78.0,3.0,15.0,4.0,0.0
1464,63.0,1.0,120.0,6.0,0.0
1465,70.0,17.0,20.0,5.0,0.0
1466,82.0,1.0,60.0,1.0,0.0
1467,68.0,17.0,20.0,5.0,0.0
1468,78.0,3.0,15.0,4.0,0.0
1469,70.0,0.0,20.0,5.0,0.0
1470,78.0,3.0,15.0,4.0,0.0
1471,84.0,0.0,60.0,1.0,0.0
1472,56.0,0.0,60.0,7.0,0.0
1473,72.0,20.0,20.0,5.0,0.0
1474,44.0,0.0,60.0,8.0,0.0
1475,78.0,0.0,20.0,4.0,0.0
1476,73.0,20.0,120.0,1.0,0.0
1477,56.0,1.0,60.0,2.0,0.0
1478,70.0,18.0,20.0,5.0,0.0
1479,80.0,0.0,20.0,4.0,0.0
1480,78.0,0.0,20.0,4.0,0.0
1481,72.0,0.0,20.0,5.0,0.0
1482,85.0,2.0,60.0,1.0,0.0
1483,61.0,1.0,120.0,6.0,0.0
1484,57.0,0.0,60.0,7.0,0.0
1485,73.0,0.0,20.0,5.0,0.0
1486,45.0,0.0,60.0,8.0,0.0
1487,57.0,0.0,60.0,2.0,0.0
1488,76.0,20.0,20.0,4.0,0.0
1489,72.0,0.0,20.0,5.0,0.0
1490,78.0,16.0,20.0,4.0,0.0
1491,73.0,0.0,20.0,5.0,0.0
1492,76.0,2.0,20.0,4.0,0.0
1493,50.0,1.0,120.0,2.0,0.0
1494,38.0,20.0,120.0,8.0,0.0
1495,50.0,0.0,120.0,7.0,0.0
1496,65.0,0.0,20.0,5.0,0.0
1497,76.0,13.0,20.0,4.0,0.0
1498,77.0,0.0,60.0,1.0,0.0
1499,89.0,16.0,60.0,0.0,0.0
1500,64.0,17.0,20.0,5.0,0.0
1501,74.0,7.0,15.0,4.0,0.0
1502,74.0,2.0,15.0,4.0,0.0
1503,65.0,0.0,20.0,5.0,0.0
1504,78.0,0.0,60.0,1.0,0.0
1505,59.0,1.0,120.0,6.0,0.0
1506,66.0,17.0,20.0,5.0,0.0
1507,71.0,1.0,15.0,1.0,0.0
1508,74.0,3.0,15.0,4.0,0.0
1509,90.0,0.0,60.0,0.0,0.0
1510,74.0,3.0,15.0,4.0,0.0
1511,65.0,17.0,20.0,5.0,0.0
1512,74.0,1.0,15.0,4.0,0.0
1513,66.0,0.0,20.0,5.0,0.0
1514,68.0,20.0,20.0,5.0,0.0
1515,80.0,0.0,60.0,1.0,0.0
1516,92.0,0.0,60.0,0.0,0.0
1517,52.0,2.0,60.0,7.0,0.0
1518,40.0,0.0,60.0,8.0,0.0
1519,74.0,0.0,20.0,4.0,0.0
1520,52.0,1.0,60.0,2.0,0.0
1521,76.0,17.0,20.0,4.0,0.0
1522,66.0,0.0,20.0,5.0,0.0
1523,74.0,0.0,20.0,4.0,0.0
1524,68.0,0.0,20.0,5.0,0.0
1525,93.0,4.0,60.0,0.0,0.0
1526,85.0,1.0,60.0,1.0,0.0
1527,81.0,0.0,60.0,1.0,0.0
1528,63.0,0.0,60.0,6.0,0.0
1529,54.0,2.0,60.0,7.0,0.0
1530,73.0,20.0,20.0,4.0,0.0
1531,42.0,0.0,60.0,8.0,0.0
1532,69.0,0.0,20.0,5.0,0.0
1533,63.0,1.0,60.0,2.0,0.0
1534,71.0,14.0,20.0,5.0,0.0
1535,74.0,0.0,20.0,4.0,0.0
1536,69.0,0.0,20.0,5.0,0.0
1537,73.0,0.0,20.0,4.0,0.0
1538,92.0,2.0,60.0,0.0,0.0
1539,83.0,2.0,60.0,1.0,0.0
1540,80.0,1.0,60.0,1.0,0.0
1541,64.0,0.0,60.0,6.0,0.0
1542,44.0,0.0,60.0,8.0,0.0
1543,56.0,1.0,60.0,7.0,0.0
1544,71.0,20.0,20.0,4.0,0.0
1545,68.0,0.0,20.0,5.0,0.0
1546,64.0,0.0,60.0,2.0,0.0
1547,73.0,15.0,20.0,4.0,0.0
1548,69.0,0.0,20.0,5.0,0.0
1549,68.0,0.0,20.0,5.0,0.0
1550,71.0,0.0,20.0,4.0,0.0
1551,90.0,1.0,60.0,0.0,0.0
1552,66.0,20.0,20.0,5.0,0.0
1553,57.0,0.0,60.0,7.0,0.0
1554,81.0,0.0,60.0,1.0,0.0
1555,61.0,0.0,60.0,6.0,0.0
1556,69.0,0.0,20.0,4.0,0.0
1557,45.0,1.0,60.0,8.0,0.0
1558,69.0,1.0,60.0,2.0,0.0
1559,61.0,0.0,60.0,2.0,0.0
1560,78.0,3.0,60.0,1.0,0.0
1561,71.0,0.0,20.0,4.0,0.0
1562,68.0,14.0,20.0,5.0,0.0
1563,66.0,0.0,20.0,5.0,0.0
1564,69.0,20.0,20.0,4.0,0.0
1565,80.0,0.0,60.0,1.0,0.0
1566,68.0,0.0,60.0,2.0,0.0
1567,59.0,1.0,60.0,2.0,0.0
1568,88.0,1.0,60.0,0.0,0.0
1569,68.0,20.0,20.0,4.0,0.0
1570,64.0,0.0,20.0,5.0,0.0
1571,59.0,0.0,60.0,7.0,0.0
1572,59.0,0.0,60.0,6.0,0.0
1573,47.0,1.0,60.0,8.0,0.0
1574,76.0,3.0,60.0,1.0,0.0
1575,66.0,0.0,20.0,5.0,0.0
1576,69.0,14.0,20.0,4.0,0.0
1577,64.0,20.0,20.0,5.0,0.0
1578,68.0,0.0,20.0,4.0,0.0
1579,57.0,1.0,60.0,2.0,0.0
1580,66.0,0.0,60.0,2.0,0.0
1581,87.0,1.0,60.0,0.0,0.0
1582,35.0,0.0,60.0,8.0,0.0
1583,57.0,1.0,60.0,6.0,0.0
1584,75.0,1.0,60.0,1.0,0.0
1585,63.0,0.0,20.0,5.0,0.0
1586,66.0,20.0,20.0,4.0,0.0
1587,47.0,0.0,60.0,7.0,0.0
1588,78.0,3.0,60.0,1.0,0.0
1589,68.0,13.0,20.0,4.0,0.0
1590,64.0,0.0,20.0,5.0,0.0
1591,63.0,39.0,20.0,5.0,0.0
1592,66.0,0.0,20.0,4.0,0.0
1593,40.0,0.0,120.0,8.0,0.0
1594,64.0,0.0,120.0,2.0,0.0
1595,88.0,0.0,120.0,0.0,0.0
1596,56.0,0.0,120.0,6.0,0.0
1597,64.0,0.0,60.0,5.0,0.0
1598,52.0,3.0,120.0,7.0,0.0
1599,56.0,0.0,120.0,2.0,0.0
1600,64.0,0.0,60.0,4.0,0.0
1601,76.0,0.0,120.0,1.0,0.0
1602,64.0,1.0,20.0,3.0,0.0
1603,52.0,19.0,20.0,3.0,0.0
1604,64.0,1.0,20.0,3.0,0.0
1605,64.0,20.0,20.0,3.0,0.0
1606,52.0,18.0,15.0,3.0,0.0
1607,64.0,0.0,60.0,5.0,0.0
1608,80.0,4.0,60.0,4.0,0.0
1609,64.0,20.0,20.0,3.0,0.0
1610,52.0,0.0,20.0,3.0,0.0
1611,64.0,0.0,20.0,3.0,0.0
1612,52.0,2.0,20.0,3.0,0.0
1613,81.0,1.0,60.0,4.0,0.0
1614,66.0,0.0,60.0,5.0,0.0
1615,52.0,2.0,20.0,3.0,0.0
1616,64.0,18.0,20.0,3.0,0.0
1617,52.0,2.0,20.0,3.0,0.0
1618,64.0,17.0,20.0,3.0,0.0
1619,52.0,2.0,20.0,3.0,0.0
1620,68.0,1.0,60.0,5.0,0.0
1621,52.0,1.0,20.0,3.0,0.0
1622,64.0,18.0,15.0,3.0,0.0
1623,83.0,17.0,60.0,4.0,0.0
1624,52.0,1.0,20.0,3.0,0.0
1625,64.0,19.0,20.0,3.0,0.0
1626,64.0,1.0,20.0,3.0,0.0
1627,52.0,0.0,15.0,3.0,0.0
1628,85.0,2.0,20.0,4.0,0.0
1629,69.0,0.0,20.0,5.0,0.0
1630,64.0,16.0,20.0,3.0,0.0
1631,52.0,4.0,20.0,3.0,0.0
1632,68.0,0.0,20.0,5.0,0.0
1633,84.0,16.0,20.0,4.0,0.0
1634,64.0,0.0,20.0,3.0,0.0
1635,52.0,2.0,20.0,3.0,0.0
1636,85.0,2.0,20.0,4.0,0.0
1637,69.0,0.0,20.0,5.0,0.0
1638,88.0,1.0,20.0,4.0,0.0
1639,52.0,1.0,20.0,3.0,0.0
1640,73.0,18.0,20.0,5.0,0.0
1641,64.0,17.0,15.0,3.0,0.0
1642,52.0,1.0,20.0,3.0,0.0
1643,71.0,1.0,20.0,5.0,0.0
1644,87.0,18.0,20.0,4.0,0.0
1645,64.0,0.0,20.0,3.0,0.0
1646,52.0,2.0,20.0,3.0,0.0
1647,69.0,0.0,20.0,5.0,0.0
1648,85.0,36.0,20.0,4.0,0.0
1649,64.0,0.0,20.0,3.0,0.0
1650,52.0,0.0,60.0,3.0,0.0
1651,64.0,20.0,60.0,3.0,0.0
1652,83.0,0.0,60.0,4.0,0.0
1653,68.0,0.0,60.0,5.0,0.0
1654,56.0,0.0,15.0,2.0,0.0
1655,52.0,20.0,15.0,2.0,0.0
1656,52.0,4.0,15.0,2.0,0.0
1657,56.0,0.0,15.0,2.0,0.0
1658,52.0,0.0,20.0,2.0,0.0
1659,88.0,0.0,60.0,1.0,0.0
1660,92.0,20.0,60.0,0.0,0.0
1661,56.0,14.0,15.0,2.0,0.0
1662,59.0,22.0,15.0,2.0,0.0
1663,59.0,4.0,15.0,2.0,0.0
1664,56.0,0.0,15.0,2.0,0.0
1665,88.0,20.0,60.0,0.0,0.0
1666,83.0,0.0,60.0,1.0,0.0
1667,59.0,13.0,20.0,2.0,0.0
1668,56.0,0.0,20.0,2.0,0.0
1669,64.0,0.0,15.0,2.0,0.0
1670,59.0,23.0,15.0,2.0,0.0
1671,59.0,4.0,15.0,2.0,0.0
1672,64.0,0.0,15.0,2.0,0.0
1673,83.0,20.0,90.0,0.0,0.0
1674,64.0,0.0,20.0,2.0,0.0
1675,59.0,14.0,20.0,2.0,0.0
1676,80.0,20.0,60.0,1.0,0.0
1677,68.0,20.0,15.0,2.0,0.0
1678,64.0,0.0,15.0,2.0,0.0
1679,68.0,6.0,15.0,2.0,0.0
1680,64.0,0.0,15.0,2.0,0.0
1681,78.0,0.0,120.0,1.0,0.0
1682,59.0,0.0,180.0,6.0,0.0
1683,63.0,0.0,120.0,2.0,0.0
1684,69.0,20.0,60.0,2.0,0.0
1685,59.0,39.0,120.0,7.0,0.0
1686,82.0,20.0,20.0,0.0,0.0
1687,83.0,0.0,20.0,0.0,0.0
1688,84.0,20.0,20.0,0.0,0.0
1689,66.0,15.0,40.0,2.0,0.0
1690,85.0,5.0,20.0,0.0,0.0
1691,81.0,0.0,20.0,0.0,0.0
1692,71.0,0.0,15.0,2.0,0.0
1693,80.0,18.0,60.0,0.0,0.0
1694,64.0,0.0,60.0,2.0,0.0
1695,76.0,0.0,60.0,1.0,0.0
1696,64.0,0.0,60.0,7.0,0.0
1697,71.0,0.0,60.0,2.0,0.0
1698,64.0,1.0,20.0,3.0,0.0
1699,52.0,19.0,20.0,3.0,0.0
1700,64.0,1.0,20.0,3.0,0.0
1701,64.0,0.0,20.0,3.0,0.0
1702,52.0,0.0,15.0,3.0,0.0
1703,80.0,18.0,60.0,4.0,0.0
1704,64.0,0.0,60.0,5.0,0.0
1705,64.0,0.0,20.0,3.0,0.0
1706,52.0,20.0,20.0,3.0,0.0
1707,52.0,2.0,20.0,3.0,0.0
1708,64.0,0.0,20.0,3.0,0.0
1709,52.0,2.0,20.0,3.0,0.0
1710,66.0,18.0,60.0,5.0,0.0
1711,81.0,0.0,60.0,4.0,0.0
1712,64.0,18.0,20.0,3.0,0.0
1713,52.0,2.0,20.0,3.0,0.0
1714,64.0,18.0,20.0,3.0,0.0
1715,52.0,2.0,20.0,3.0,0.0
1716,64.0,0.0,20.0,3.0,0.0
1717,52.0,1.0,20.0,3.0,0.0
1718,64.0,19.0,20.0,3.0,0.0
1719,68.0,0.0,60.0,5.0,0.0
1720,83.0,17.0,60.0,4.0,0.0
1721,52.0,1.0,20.0,3.0,0.0
1722,64.0,19.0,20.0,3.0,0.0
1723,64.0,1.0,20.0,3.0,0.0
1724,52.0,1.0,15.0,3.0,0.0
1725,69.0,0.0,20.0,5.0,0.0
1726,85.0,1.0,20.0,4.0,0.0
1727,64.0,16.0,20.0,3.0,0.0
1728,52.0,3.0,20.0,3.0,0.0
1729,68.0,0.0,20.0,5.0,0.0
1730,84.0,1.0,20.0,4.0,0.0
1731,64.0,16.0,20.0,3.0,0.0
1732,52.0,3.0,20.0,3.0,0.0
1733,85.0,0.0,20.0,4.0,0.0
1734,69.0,1.0,20.0,5.0,0.0
1735,64.0,17.0,20.0,3.0,0.0
1736,52.0,2.0,20.0,3.0,0.0
1737,88.0,0.0,20.0,4.0,0.0
1738,73.0,18.0,20.0,5.0,0.0
1739,64.0,0.0,20.0,3.0,0.0
1740,52.0,2.0,20.0,3.0,0.0
1741,87.0,0.0,20.0,4.0,0.0
1742,71.0,18.0,20.0,5.0,0.0
1743,64.0,0.0,20.0,3.0,0.0
1744,52.0,2.0,20.0,3.0,0.0
1745,85.0,36.0,20.0,4.0,0.0
1746,69.0,0.0,20.0,5.0,0.0
1747,83.0,0.0,60.0,4.0,0.0
1748,64.0,0.0,15.0,3.0,0.0
1749,52.0,0.0,60.0,3.0,0.0
1750,68.0,0.0,60.0,5.0,0.0
1751,52.0,20.0,15.0,2.0,0.0
1752,56.0,0.0,15.0,2.0,0.0
1753,56.0,0.0,15.0,2.0,0.0
1754,52.0,4.0,15.0,2.0,0.0
1755,88.0,20.0,60.0,0.0,0.0
1756,83.0,0.0,60.0,1.0,0.0
1757,56.0,14.0,20.0,2.0,0.0
1758,52.0,0.0,20.0,2.0,0.0
1759,56.0,22.0,15.0,2.0,0.0
1760,59.0,0.0,15.0,2.0,0.0
1761,56.0,0.0,15.0,2.0,0.0
1762,59.0,4.0,15.0,2.0,0.0
1763,59.0,13.0,20.0,2.0,0.0
1764,56.0,0.0,20.0,2.0,0.0
1765,80.0,20.0,60.0,1.0,0.0
1766,83.0,0.0,60.0,0.0,0.0
1767,64.0,23.0,15.0,2.0,0.0
1768,59.0,0.0,15.0,2.0,0.0
1769,64.0,4.0,15.0,2.0,0.0
1770,59.0,0.0,15.0,2.0,0.0
1771,80.0,0.0,90.0,0.0,0.0
1772,59.0,14.0,20.0,2.0,0.0
1773,64.0,0.0,15.0,2.0,0.0
1774,68.0,0.0,15.0,2.0,0.0
1775,68.0,6.0,15.0,2.0,0.0
1776,64.0,0.0,15.0,2.0,0.0
1777,47.0,0.0,120.0,8.0,0.0
1778,76.0,20.0,15.0,1.0,0.0
1779,71.0,10.0,90.0,2.0,0.0
1780,59.0,0.0,120.0,2.0,0.0
1781,59.0,0.0,120.0,7.0,0.0
1782,59.0,60.0,120.0,6.0,0.0
1783,75.0,20.0,20.0,1.0,0.0
1784,78.0,0.0,20.0,0.0,0.0
1785,76.0,20.0,20.0,1.0,0.0
1786,80.0,0.0,20.0,0.0,0.0
1787,80.0,10.0,20.0,1.0,0.0
1788,83.0,0.0,20.0,0.0,0.0
1789,81.0,17.0,20.0,0.0,0.0
1790,78.0,0.0,20.0,1.0,0.0
1791,69.0,0.0,30.0,2.0,0.0
1792,78.0,3.0,15.0,0.0,0.0
1793,75.0,0.0,20.0,1.0,0.0
1794,64.0,25.0,120.0,4.0,0.0
1795,52.0,59.0,60.0,7.0,0.0
1796,40.0,0.0,60.0,8.0,0.0
1797,78.0,1.0,120.0,0.0,0.0
1798,52.0,0.0,60.0,6.0,0.0
1799,59.0,0.0,180.0,2.0,0.0
1800,69.0,0.0,120.0,2.0,0.0
1801,75.0,15.0,120.0,1.0,0.0
1802,76.0,15.0,60.0,1.0,0.0
1803,76.0,1.0,60.0,0.0,0.0
1804,52.0,0.0,60.0,8.0,0.0
1805,64.0,3.0,60.0,6.0,0.0
1806,68.0,0.0,60.0,2.0,0.0
1807,64.0,0.0,60.0,7.0,0.0
1808,71.0,16.0,20.0,4.0,0.0
1809,69.0,0.0,20.0,4.0,0.0
1810,68.0,25.0,15.0,4.0,0.0
1811,74.0,20.0,20.0,4.0,0.0
1812,73.0,16.0,20.0,4.0,0.0
1813,71.0,24.0,15.0,4.0,0.0
1814,78.0,20.0,20.0,4.0,0.0
1815,76.0,20.0,20.0,4.0,0.0
1816,74.0,20.0,20.0,4.0,0.0
1817,73.0,20.0,20.0,4.0,0.0
1818,71.0,45.0,20.0,4.0,0.0
1819,69.0,15.0,40.0,4.0,0.0
1820,68.0,45.0,15.0,4.0,0.0
1821,71.0,15.0,40.0,4.0,0.0
1822,70.0,45.0,15.0,4.0,0.0
1823,73.0,15.0,40.0,4.0,0.0
1824,71.0,45.0,15.0,4.0,0.0
1825,74.0,15.0,40.0,4.0,0.0
1826,73.0,29.0,15.0,4.0,0.0
1827,76.0,30.0,30.0,4.0,0.0
1828,74.0,30.0,30.0,4.0,0.0
1829,71.0,30.0,30.0,4.0,0.0
1830,68.0,141.0,30.0,4.0,0.0
1831,49.0,0.0,180.0,7.0,0.0
1832,59.0,20.0,180.0,5.0,0.0
1833,56.0,0.0,180.0,6.0,0.0
1834,37.0,0.0,180.0,8.0,0.0
1835,66.0,20.0,150.0,4.0,0.0
1836,65.0,13.0,20.0,4.0,0.0
1837,71.0,7.0,15.0,4.0,0.0
1838,69.0,15.0,20.0,4.0,0.0
1839,68.0,18.0,15.0,4.0,0.0
1840,74.0,27.0,15.0,4.0,0.0
1841,73.0,16.0,20.0,4.0,0.0
1842,71.0,17.0,15.0,4.0,0.0
1843,80.0,27.0,15.0,4.0,0.0
1844,78.0,15.0,20.0,4.0,0.0
1845,77.0,20.0,15.0,4.0,0.0
1846,83.0,35.0,15.0,4.0,0.0
1847,81.0,30.0,30.0,4.0,0.0
1848,80.0,30.0,30.0,4.0,0.0
1849,78.0,30.0,30.0,4.0,0.0
1850,77.0,30.0,30.0,4.0,0.0
1851,74.0,30.0,30.0,4.0,0.0
1852,73.0,30.0,30.0,4.0,0.0
1853,68.0,0.0,60.0,2.0,0.0
1854,73.0,0.0,60.0,0.0,0.0
1855,72.0,27.0,30.0,4.0,0.0
1856,65.0,0.0,60.0,2.0,0.0
1857,73.0,3.0,60.0,3.0,0.0
1858,73.0,0.0,60.0,1.0,0.0
1859,73.0,30.0,30.0,4.0,0.0
1860,77.0,0.0,60.0,0.0,0.0
1861,77.0,30.0,60.0,1.0,0.0
1862,71.0,0.0,15.0,1.0,0.0
1863,65.0,0.0,60.0,2.0,0.0
1864,68.0,3.0,60.0,2.0,0.0
1865,73.0,0.0,60.0,3.0,0.0
1866,72.0,27.0,30.0,4.0,0.0
1867,73.0,0.0,30.0,4.0,0.0
1868,73.0,0.0,60.0,3.0,0.0
1869,71.0,0.0,15.0,1.0,0.0
1870,80.0,26.0,60.0,1.0,0.0
1871,68.0,0.0,60.0,2.0,0.0
1872,80.0,0.0,60.0,0.0,0.0
1873,71.0,27.0,30.0,4.0,0.0
1874,65.0,3.0,60.0,2.0,0.0
1875,68.0,0.0,30.0,4.0,0.0
1876,81.0,0.0,360.0,1.0,0.0
1877,61.0,1.0,30.0,5.0,0.0
1878,78.0,0.0,360.0,1.0,0.0
1879,38.0,27.0,60.0,7.0,0.0
1880,85.0,0.0,360.0,0.0,0.0
1881,30.0,0.0,60.0,8.0,0.0
1882,61.0,20.0,360.0,3.0,0.0
1883,73.0,0.0,360.0,3.0,0.0
1884,66.0,0.0,360.0,2.0,0.0
1885,69.0,0.0,360.0,2.0,0.0
1886,85.0,23.0,90.0,4.0,0.0
1887,57.0,33.0,30.0,6.0,0.0
1888,57.0,0.0,60.0,6.0,0.0
1889,61.0,3.0,60.0,5.0,0.0
1890,54.0,0.0,60.0,7.0,0.0
1891,42.0,32.0,60.0,8.0,0.0
1892,81.0,2.0,60.0,4.0,0.0
1893,61.0,2.0,60.0,5.0,0.0
1894,57.0,24.0,60.0,6.0,0.0
1895,42.0,34.0,60.0,8.0,0.0
1896,54.0,0.0,60.0,7.0,0.0
1897,78.0,0.0,60.0,4.0,0.0
1898,61.0,1.0,60.0,5.0,0.0
1899,57.0,25.0,60.0,6.0,0.0
1900,42.0,0.0,60.0,8.0,0.0
1901,54.0,34.0,60.0,7.0,0.0
1902,61.0,2.0,60.0,5.0,0.0
1903,73.0,23.0,60.0,4.0,0.0
1904,57.0,1.0,60.0,6.0,0.0
1905,54.0,34.0,60.0,7.0,0.0
1906,42.0,0.0,60.0,8.0,0.0
1907,69.0,23.0,60.0,4.0,0.0
1908,57.0,0.0,60.0,6.0,0.0
1909,61.0,3.0,60.0,5.0,0.0
1910,42.0,6.0,60.0,8.0,0.0
1911,54.0,0.0,60.0,7.0,0.0
1912,66.0,1.0,30.0,4.0,0.0
1913,57.0,0.0,30.0,6.0,0.0
1914,61.0,0.0,30.0,5.0,0.0
1915,83.0,0.0,120.0,0.0,0.0
1916,68.0,0.0,120.0,2.0,0.0
1917,54.0,5.0,60.0,7.0,0.0
1918,80.0,0.0,120.0,1.0,0.0
1919,62.0,0.0,30.0,5.0,0.0
1920,62.0,0.0,120.0,2.0,0.0
1921,59.0,14.0,30.0,6.0,0.0
1922,74.0,2.0,120.0,1.0,0.0
1923,67.0,6.0,20.0,4.0,0.0
1924,42.0,0.0,60.0,8.0,0.0
1925,71.0,0.0,120.0,3.0,0.0
1926,68.0,13.0,20.0,4.0,0.0
1927,62.0,38.0,30.0,5.0,0.0
1928,59.0,2.0,30.0,6.0,0.0
1929,68.0,0.0,20.0,4.0,0.0
1930,54.0,5.0,60.0,7.0,0.0
1931,42.0,0.0,60.0,8.0,0.0
1932,67.0,15.0,20.0,4.0,0.0
1933,62.0,0.0,30.0,5.0,0.0
1934,59.0,36.0,30.0,6.0,0.0
1935,68.0,2.0,20.0,4.0,0.0
1936,54.0,0.0,60.0,7.0,0.0
1937,42.0,5.0,60.0,8.0,0.0
1938,67.0,15.0,20.0,4.0,0.0
1939,62.0,2.0,30.0,5.0,0.0
1940,59.0,39.0,30.0,6.0,0.0
1941,68.0,2.0,20.0,4.0,0.0
1942,62.0,0.0,60.0,2.0,0.0
1943,68.0,0.0,60.0,2.0,0.0
1944,42.0,7.0,60.0,8.0,0.0
1945,68.0,0.0,60.0,1.0,0.0
1946,54.0,0.0,60.0,7.0,0.0
1947,74.0,0.0,60.0,0.0,0.0
1948,67.0,12.0,20.0,4.0,0.0
1949,62.0,0.0,30.0,5.0,0.0
1950,59.0,38.0,30.0,6.0,0.0
1951,68.0,1.0,20.0,4.0,0.0
1952,62.0,0.0,60.0,2.0,0.0
1953,42.0,7.0,60.0,8.0,0.0
1954,54.0,0.0,60.0,7.0,0.0
1955,74.0,0.0,60.0,1.0,0.0
1956,71.0,1.0,15.0,1.0,0.0
1957,80.0,0.0,60.0,0.0,0.0
1958,67.0,13.0,20.0,4.0,0.0
1959,62.0,0.0,30.0,5.0,0.0
1960,59.0,36.0,30.0,6.0,0.0
1961,68.0,4.0,20.0,4.0,0.0
1962,59.0,0.0,15.0,2.0,0.0
1963,56.0,0.0,60.0,2.0,0.0
1964,83.0,0.0,60.0,0.0,0.0
1965,42.0,0.0,60.0,8.0,0.0
1966,74.0,0.0,60.0,1.0,0.0
1967,80.0,0.0,60.0,1.0,0.0
1968,54.0,7.0,60.0,7.0,0.0
1969,67.0,13.0,20.0,4.0,0.0
1970,62.0,2.0,30.0,5.0,0.0
1971,59.0,21.0,30.0,6.0,0.0
1972,68.0,0.0,20.0,4.0,0.0
1973,71.0,0.0,360.0,3.0,0.0
1974,86.0,0.0,360.0,0.0,0.0
1975,29.0,30.0,60.0,8.0,0.0
1976,41.0,0.0,60.0,7.0,0.0
1977,86.0,23.0,90.0,4.0,0.0
1978,74.0,1.0,360.0,3.0,0.0
1979,83.0,0.0,360.0,1.0,0.0
1980,80.0,0.0,360.0,1.0,0.0
1981,62.0,0.0,360.0,2.0,0.0
1982,68.0,0.0,360.0,2.0,0.0
1983,59.0,27.0,30.0,5.0,0.0
1984,56.0,3.0,20.0,6.0,0.0
1985,56.0,4.0,60.0,6.0,0.0
1986,59.0,3.0,60.0,5.0,0.0
1987,53.0,0.0,60.0,7.0,0.0
1988,41.0,29.0,60.0,8.0,0.0
1989,83.0,4.0,60.0,4.0,0.0
1990,56.0,1.0,60.0,6.0,0.0
1991,59.0,26.0,60.0,5.0,0.0
1992,53.0,0.0,60.0,7.0,0.0
1993,41.0,31.0,60.0,8.0,0.0
1994,56.0,3.0,60.0,6.0,0.0
1995,80.0,25.0,60.0,4.0,0.0
1996,59.0,1.0,60.0,5.0,0.0
1997,53.0,0.0,60.0,7.0,0.0
1998,41.0,33.0,60.0,8.0,0.0
1999,56.0,1.0,60.0,6.0,0.0
2000,59.0,4.0,60.0,5.0,0.0
2001,74.0,22.0,60.0,4.0,0.0
2002,53.0,32.0,60.0,7.0,0.0
2003,41.0,0.0,60.0,8.0,0.0
2004,56.0,2.0,60.0,6.0,0.0
2005,71.0,25.0,60.0,4.0,0.0
2006,59.0,1.0,60.0,5.0,0.0
2007,53.0,4.0,60.0,7.0,0.0
2008,41.0,0.0,60.0,8.0,0.0
2009,68.0,3.0,30.0,4.0,0.0
2010,59.0,1.0,30.0,5.0,0.0
2011,59.0,18.0,30.0,6.0,0.0
2012,73.0,0.0,120.0,3.0,0.0
2013,67.0,13.0,30.0,5.0,0.0
2014,69.0,6.0,20.0,4.0,0.0
2015,82.0,0.0,120.0,1.0,0.0
2016,85.0,0.0,120.0,0.0,0.0
2017,40.0,3.0,60.0,8.0,0.0
2018,52.0,0.0,60.0,7.0,0.0
2019,70.0,0.0,120.0,2.0,0.0
2020,63.0,0.0,120.0,2.0,0.0
2021,61.0,1.0,30.0,6.0,0.0
2022,79.0,0.0,120.0,1.0,0.0
2023,67.0,0.0,30.0,5.0,0.0
2024,61.0,40.0,30.0,6.0,0.0
2025,70.0,13.0,15.0,4.0,0.0
2026,40.0,0.0,60.0,8.0,0.0
2027,52.0,7.0,60.0,7.0,0.0
2028,69.0,13.0,20.0,4.0,0.0
2029,67.0,0.0,30.0,5.0,0.0
2030,61.0,0.0,30.0,6.0,0.0
2031,70.0,0.0,20.0,4.0,0.0
2032,52.0,7.0,60.0,7.0,0.0
2033,40.0,0.0,60.0,8.0,0.0
2034,69.0,13.0,20.0,4.0,0.0
2035,67.0,0.0,30.0,5.0,0.0
2036,61.0,40.0,30.0,6.0,0.0
2037,70.0,0.0,20.0,4.0,0.0
2038,73.0,0.0,60.0,1.0,0.0
2039,52.0,0.0,60.0,7.0,0.0
2040,70.0,0.0,60.0,2.0,0.0
2041,79.0,38.0,60.0,0.0,0.0
2042,40.0,7.0,60.0,8.0,0.0
2043,69.0,13.0,20.0,4.0,0.0
2044,61.0,0.0,30.0,6.0,0.0
2045,67.0,0.0,30.0,5.0,0.0
2046,70.0,0.0,20.0,4.0,0.0
2047,79.0,0.0,60.0,1.0,0.0
2048,52.0,5.0,60.0,7.0,0.0
2049,67.0,0.0,15.0,2.0,0.0
2050,64.0,0.0,60.0,2.0,0.0
2051,76.0,0.0,15.0,1.0,0.0
2052,40.0,0.0,60.0,8.0,0.0
2053,85.0,0.0,60.0,0.0,0.0
2054,69.0,15.0,20.0,4.0,0.0
2055,61.0,2.0,30.0,6.0,0.0
2056,67.0,0.0,30.0,5.0,0.0
2057,70.0,0.0,20.0,4.0,0.0
2058,40.0,0.0,60.0,8.0,0.0
2059,80.0,0.0,60.0,1.0,0.0
2060,52.0,7.0,60.0,7.0,0.0
2061,88.0,0.0,60.0,0.0,0.0
2062,64.0,0.0,60.0,2.0,0.0
2063,85.0,0.0,60.0,1.0,0.0
2064,61.0,0.0,60.0,2.0,0.0
2065,69.0,12.0,20.0,4.0,0.0
2066,67.0,0.0,30.0,5.0,0.0
2067,61.0,20.0,30.0,6.0,0.0
2068,70.0,0.0,20.0,4.0,0.0
2069,38.0,0.0,60.0,8.0,0.0
2070,91.0,0.0,360.0,0.0,0.0
2071,86.0,3.0,120.0,1.0,0.0
2072,50.0,7.0,60.0,7.0,0.0
2073,62.0,0.0,120.0,2.0,0.0
2074,82.0,0.0,120.0,1.0,0.0
2075,62.0,0.0,20.0,6.0,0.0
2076,86.0,10.0,90.0,4.0,0.0
2077,67.0,20.0,360.0,2.0,0.0
2078,70.0,20.0,20.0,5.0,0.0
2079,67.0,13.0,20.0,6.0,0.0
2080,70.0,0.0,20.0,5.0,0.0
2081,67.0,0.0,15.0,6.0,0.0
2082,70.0,20.0,15.0,5.0,0.0
2083,62.0,4.0,60.0,7.0,0.0
2084,50.0,0.0,60.0,8.0,0.0
2085,70.0,0.0,15.0,5.0,0.0
2086,67.0,10.0,15.0,6.0,0.0
2087,82.0,10.0,60.0,4.0,0.0
2088,67.0,0.0,20.0,6.0,0.0
2089,70.0,13.0,15.0,5.0,0.0
2090,62.0,0.0,60.0,7.0,0.0
2091,79.0,0.0,240.0,1.0,0.0
2092,58.0,0.0,120.0,2.0,0.0
2093,82.0,20.0,120.0,1.0,0.0
2094,50.0,7.0,60.0,8.0,0.0
2095,70.0,0.0,15.0,5.0,0.0
2096,67.0,10.0,15.0,6.0,0.0
2097,79.0,10.0,60.0,4.0,0.0
2098,67.0,13.0,15.0,6.0,0.0
2099,70.0,0.0,20.0,5.0,0.0
2100,50.0,0.0,60.0,8.0,0.0
2101,62.0,7.0,60.0,7.0,0.0
2102,67.0,0.0,20.0,6.0,0.0
2103,70.0,10.0,15.0,5.0,0.0
2104,67.0,13.0,20.0,6.0,0.0
2105,74.0,0.0,30.0,4.0,0.0
2106,70.0,0.0,15.0,5.0,0.0
2107,67.0,0.0,20.0,6.0,0.0
2108,50.0,0.0,60.0,7.0,0.0
2109,38.0,7.0,60.0,8.0,0.0
2110,86.0,10.0,90.0,4.0,0.0
2111,57.0,0.0,120.0,2.0,0.0
2112,81.0,0.0,120.0,1.0,0.0
2113,69.0,0.0,240.0,3.0,0.0
2114,57.0,1.0,240.0,3.0,0.0
2115,69.0,20.0,15.0,5.0,0.0
2116,67.0,0.0,15.0,6.0,0.0
2117,67.0,13.0,15.0,6.0,0.0
2118,69.0,0.0,15.0,5.0,0.0
2119,62.0,0.0,60.0,7.0,0.0
2120,67.0,20.0,15.0,6.0,0.0
2121,50.0,7.0,60.0,8.0,0.0
2122,69.0,0.0,15.0,5.0,0.0
2123,67.0,13.0,20.0,6.0,0.0
2124,81.0,10.0,60.0,4.0,0.0
2125,67.0,0.0,20.0,6.0,0.0
2126,69.0,0.0,20.0,5.0,0.0
2127,89.0,0.0,120.0,0.0,0.0
2128,50.0,7.0,60.0,8.0,0.0
2129,74.0,10.0,20.0,5.0,0.0
2130,62.0,0.0,60.0,7.0,0.0
2131,62.0,0.0,240.0,2.0,0.0
2132,65.0,0.0,20.0,6.0,0.0
2133,77.0,3.0,120.0,1.0,0.0
2134,65.0,0.0,120.0,2.0,0.0
2135,86.0,0.0,240.0,1.0,0.0
2136,65.0,0.0,20.0,6.0,0.0
2137,74.0,13.0,20.0,5.0,0.0
2138,77.0,10.0,60.0,4.0,0.0
2139,74.0,20.0,20.0,5.0,0.0
2140,50.0,3.0,60.0,8.0,0.0
2141,65.0,0.0,15.0,6.0,0.0
2142,62.0,0.0,60.0,7.0,0.0
2143,74.0,10.0,15.0,5.0,0.0
2144,74.0,0.0,30.0,4.0,0.0
2145,65.0,0.0,15.0,6.0,0.0
2146,74.0,13.0,15.0,5.0,0.0
2147,74.0,19.0,15.0,5.0,0.0
2148,57.0,0.0,240.0,3.0,0.0
2149,45.0,6.0,60.0,7.0,0.0
2150,64.0,20.0,20.0,6.0,0.0
2151,69.0,20.0,240.0,3.0,0.0
2152,33.0,0.0,60.0,8.0,0.0
2153,76.0,3.0,120.0,1.0,0.0
2154,88.0,10.0,90.0,4.0,0.0
2155,64.0,0.0,120.0,2.0,0.0
2156,88.0,0.0,120.0,0.0,0.0
2157,64.0,1.0,20.0,6.0,0.0
2158,74.0,12.0,15.0,5.0,0.0
2159,64.0,20.0,20.0,6.0,0.0
2160,64.0,0.0,20.0,6.0,0.0
2161,57.0,4.0,60.0,7.0,0.0
2162,45.0,0.0,60.0,8.0,0.0
2163,64.0,0.0,20.0,6.0,0.0
2164,74.0,10.0,15.0,5.0,0.0
2165,81.0,10.0,60.0,4.0,0.0
2166,64.0,0.0,20.0,6.0,0.0
2167,74.0,13.0,15.0,5.0,0.0
2168,69.0,0.0,240.0,2.0,0.0
2169,93.0,0.0,240.0,0.0,0.0
2170,45.0,0.0,60.0,8.0,0.0
2171,69.0,10.0,20.0,6.0,0.0
2172,72.0,0.0,20.0,5.0,0.0
2173,57.0,7.0,60.0,7.0,0.0
2174,81.0,0.0,240.0,1.0,0.0
2175,60.0,0.0,120.0,2.0,0.0
2176,84.0,0.0,120.0,1.0,0.0
2177,72.0,13.0,20.0,5.0,0.0
2178,69.0,0.0,20.0,6.0,0.0
2179,76.0,10.0,60.0,4.0,0.0
2180,69.0,0.0,20.0,6.0,0.0
2181,72.0,20.0,20.0,5.0,0.0
2182,45.0,0.0,60.0,8.0,0.0
2183,72.0,0.0,20.0,5.0,0.0
2184,57.0,7.0,60.0,7.0,0.0
2185,69.0,10.0,15.0,6.0,0.0
2186,72.0,13.0,20.0,5.0,0.0
2187,69.0,0.0,30.0,4.0,0.0
2188,72.0,0.0,20.0,5.0,0.0
2189,69.0,0.0,15.0,6.0,0.0
2190,59.0,20.0,120.0,2.0,0.0
2191,40.0,7.0,60.0,7.0,0.0
2192,28.0,0.0,60.0,8.0,0.0
2193,71.0,0.0,20.0,5.0,0.0
2194,88.0,10.0,90.0,4.0,0.0
2195,83.0,0.0,120.0,1.0,0.0
2196,52.0,20.0,240.0,3.0,0.0
2197,64.0,0.0,240.0,3.0,0.0
2198,71.0,13.0,15.0,5.0,0.0
2199,69.0,0.0,15.0,6.0,0.0
2200,52.0,7.0,60.0,7.0,0.0
2201,69.0,10.0,20.0,6.0,0.0
2202,71.0,20.0,15.0,5.0,0.0
2203,40.0,0.0,60.0,8.0,0.0
2204,69.0,13.0,20.0,6.0,0.0
2205,83.0,10.0,60.0,4.0,0.0
2206,71.0,0.0,15.0,5.0,0.0
2207,69.0,0.0,20.0,6.0,0.0
2208,40.0,7.0,60.0,8.0,0.0
2209,52.0,0.0,60.0,7.0,0.0
2210,67.0,0.0,20.0,6.0,0.0
2211,88.0,0.0,240.0,1.0,0.0
2212,79.0,0.0,120.0,1.0,0.0
2213,64.0,0.0,240.0,2.0,0.0
2214,67.0,3.0,120.0,2.0,0.0
2215,91.0,0.0,120.0,0.0,0.0
2216,76.0,10.0,15.0,5.0,0.0
2217,67.0,13.0,20.0,6.0,0.0
2218,79.0,10.0,60.0,4.0,0.0
2219,76.0,20.0,20.0,5.0,0.0
2220,67.0,0.0,20.0,6.0,0.0
2221,52.0,4.0,60.0,7.0,0.0
2222,67.0,0.0,20.0,6.0,0.0
2223,40.0,0.0,60.0,8.0,0.0
2224,76.0,10.0,20.0,5.0,0.0
2225,67.0,13.0,20.0,6.0,0.0
2226,76.0,0.0,20.0,5.0,0.0
2227,76.0,0.0,30.0,4.0,0.0
2228,76.0,0.0,20.0,5.0,0.0
2229,67.0,0.0,20.0,6.0,0.0
2230,90.0,10.0,90.0,4.0,0.0
2231,47.0,7.0,60.0,7.0,0.0
2232,76.0,0.0,20.0,5.0,0.0
2233,66.0,20.0,120.0,2.0,0.0
2234,78.0,0.0,120.0,1.0,0.0
2235,35.0,0.0,60.0,8.0,0.0
2236,90.0,0.0,120.0,0.0,0.0
2237,66.0,20.0,15.0,6.0,0.0
2238,76.0,13.0,15.0,5.0,0.0
2239,66.0,20.0,20.0,6.0,0.0
2240,47.0,7.0,60.0,8.0,0.0
2241,76.0,10.0,20.0,5.0,0.0
2242,59.0,0.0,60.0,7.0,0.0
2243,66.0,0.0,15.0,6.0,0.0
2244,76.0,13.0,20.0,5.0,0.0
2245,83.0,10.0,60.0,4.0,0.0
2246,66.0,0.0,20.0,6.0,0.0
2247,76.0,0.0,20.0,5.0,0.0
2248,86.0,0.0,120.0,1.0,0.0
2249,83.0,20.0,240.0,1.0,0.0
2250,62.0,0.0,120.0,2.0,0.0
2251,71.0,0.0,240.0,2.0,0.0
2252,59.0,0.0,60.0,7.0,0.0
2253,95.0,0.0,240.0,0.0,0.0
2254,47.0,7.0,60.0,8.0,0.0
2255,71.0,10.0,15.0,6.0,0.0
2256,74.0,0.0,15.0,5.0,0.0
2257,78.0,10.0,60.0,4.0,0.0
2258,74.0,20.0,20.0,5.0,0.0
2259,71.0,13.0,15.0,6.0,0.0
2260,59.0,0.0,60.0,7.0,0.0
2261,74.0,0.0,20.0,5.0,0.0
2262,47.0,7.0,60.0,8.0,0.0
2263,71.0,10.0,20.0,6.0,0.0
2264,71.0,13.0,20.0,6.0,0.0
2265,71.0,0.0,30.0,4.0,0.0
2266,74.0,0.0,15.0,5.0,0.0
2267,71.0,0.0,20.0,6.0,0.0
2268,42.0,7.0,60.0,8.0,0.0
2269,85.0,0.0,360.0,1.0,0.0
2270,90.0,10.0,90.0,4.0,0.0
2271,54.0,0.0,60.0,7.0,0.0
2272,71.0,20.0,20.0,6.0,0.0
2273,61.0,0.0,360.0,2.0,0.0
2274,71.0,0.0,15.0,3.0,0.0
2275,73.0,0.0,20.0,5.0,0.0
2276,73.0,20.0,240.0,3.0,0.0
2277,73.0,13.0,20.0,5.0,0.0
2278,71.0,0.0,20.0,6.0,0.0
2279,73.0,20.0,20.0,5.0,0.0
2280,54.0,0.0,60.0,8.0,0.0
2281,71.0,0.0,15.0,6.0,0.0
2282,73.0,0.0,20.0,5.0,0.0
2283,66.0,7.0,60.0,7.0,0.0
2284,71.0,10.0,15.0,6.0,0.0
2285,85.0,10.0,60.0,4.0,0.0
2286,71.0,0.0,20.0,6.0,0.0
2287,73.0,13.0,15.0,5.0,0.0
2288,69.0,20.0,240.0,2.0,0.0
2289,54.0,7.0,60.0,8.0,0.0
2290,69.0,0.0,120.0,3.0,0.0
2291,81.0,0.0,240.0,1.0,0.0
2292,93.0,0.0,240.0,0.0,0.0
2293,69.0,10.0,20.0,6.0,0.0
2294,66.0,0.0,60.0,7.0,0.0
2295,73.0,0.0,15.0,5.0,0.0
2296,81.0,10.0,60.0,4.0,0.0
2297,73.0,20.0,20.0,5.0,0.0
2298,69.0,13.0,15.0,6.0,0.0
2299,69.0,0.0,15.0,6.0,0.0
2300,66.0,0.0,60.0,7.0,0.0
2301,73.0,10.0,20.0,5.0,0.0
2302,54.0,7.0,60.0,8.0,0.0
2303,69.0,0.0,15.0,6.0,0.0
2304,78.0,0.0,30.0,4.0,0.0
2305,69.0,13.0,15.0,6.0,0.0
2306,73.0,0.0,15.0,5.0,0.0
2307,47.0,7.0,60.0,7.0,0.0
2308,86.0,10.0,90.0,4.0,0.0
2309,35.0,0.0,60.0,8.0,0.0
2310,73.0,0.0,20.0,5.0,0.0
2311,69.0,20.0,15.0,6.0,0.0
2312,73.0,13.0,20.0,5.0,0.0
2313,73.0,0.0,20.0,5.0,0.0
2314,73.0,10.0,20.0,5.0,0.0
2315,69.0,20.0,15.0,6.0,0.0
2316,59.0,0.0,60.0,7.0,0.0
2317,47.0,7.0,60.0,8.0,0.0
2318,69.0,0.0,15.0,6.0,0.0
2319,74.0,10.0,60.0,4.0,0.0
2320,69.0,0.0,20.0,6.0,0.0
2321,73.0,13.0,15.0,5.0,0.0
2322,59.0,0.0,60.0,7.0,0.0
2323,67.0,10.0,20.0,6.0,0.0
2324,47.0,7.0,60.0,8.0,0.0
2325,83.0,0.0,120.0,1.0,0.0
2326,79.0,0.0,120.0,1.0,0.0
2327,91.0,0.0,120.0,0.0,0.0
2328,67.0,0.0,120.0,2.0,0.0
2329,59.0,0.0,120.0,2.0,0.0
2330,71.0,0.0,15.0,5.0,0.0
2331,67.0,0.0,20.0,6.0,0.0
2332,71.0,10.0,60.0,4.0,0.0
2333,71.0,0.0,20.0,5.0,0.0
2334,67.0,20.0,20.0,6.0,0.0
2335,47.0,0.0,60.0,8.0,0.0
2336,59.0,7.0,60.0,7.0,0.0
2337,71.0,0.0,15.0,5.0,0.0
2338,67.0,10.0,15.0,6.0,0.0
2339,67.0,0.0,30.0,4.0,0.0
2340,67.0,0.0,20.0,6.0,0.0
2341,71.0,13.0,15.0,5.0,0.0
2342,81.0,0.0,120.0,1.0,0.0
2343,78.0,0.0,120.0,1.0,0.0
2344,66.0,20.0,20.0,4.0,0.0
2345,66.0,0.0,60.0,6.0,0.0
2346,60.0,0.0,60.0,7.0,0.0
2347,66.0,0.0,120.0,2.0,0.0
2348,57.0,53.0,120.0,2.0,0.0
2349,69.0,20.0,60.0,5.0,0.0
2350,90.0,0.0,120.0,0.0,0.0
2351,48.0,7.0,60.0,8.0,0.0
2352,65.0,13.0,20.0,4.0,0.0
2353,66.0,0.0,20.0,4.0,0.0
2354,48.0,7.0,60.0,8.0,0.0
2355,66.0,20.0,20.0,5.0,0.0
2356,57.0,0.0,60.0,6.0,0.0
2357,60.0,0.0,60.0,7.0,0.0
2358,69.0,0.0,20.0,4.0,0.0
2359,65.0,13.0,20.0,5.0,0.0
2360,68.0,0.0,20.0,4.0,0.0
2361,63.0,0.0,20.0,5.0,0.0
2362,66.0,0.0,20.0,4.0,0.0
2363,61.0,0.0,60.0,5.0,0.0
2364,77.0,0.0,60.0,1.0,0.0
2365,80.0,80.0,60.0,1.0,0.0
2366,89.0,0.0,60.0,0.0,0.0
2367,49.0,0.0,60.0,8.0,0.0
2368,61.0,7.0,60.0,7.0,0.0
2369,56.0,0.0,60.0,6.0,0.0
2370,56.0,0.0,60.0,2.0,0.0
2371,65.0,0.0,60.0,2.0,0.0
2372,65.0,0.0,60.0,4.0,0.0
2373,66.0,20.0,20.0,5.0,0.0
2374,50.0,0.0,120.0,7.0,0.0
2375,38.0,20.0,120.0,8.0,0.0
2376,65.0,20.0,20.0,5.0,0.0
2377,66.0,20.0,20.0,5.0,0.0
2378,69.0,20.0,20.0,5.0,0.0
2379,68.0,20.0,20.0,5.0,0.0
2380,66.0,0.0,20.0,5.0,0.0
2381,61.0,20.0,20.0,2.0,0.0
2382,37.0,0.0,60.0,8.0,0.0
2383,49.0,0.0,60.0,7.0,0.0
2384,65.0,0.0,60.0,5.0,0.0
2385,60.0,20.0,20.0,2.0,0.0
2386,61.0,20.0,20.0,2.0,0.0
2387,65.0,20.0,20.0,2.0,0.0
2388,63.0,20.0,20.0,2.0,0.0
2389,61.0,20.0,20.0,2.0,0.0
2390,72.0,0.0,120.0,5.0,0.0
2391,62.0,0.0,120.0,7.0,0.0
2392,50.0,0.0,120.0,8.0,0.0
2393,62.0,20.0,120.0,6.0,0.0
2394,78.0,20.0,20.0,4.0,0.0
2395,77.0,20.0,20.0,4.0,0.0
2396,78.0,20.0,20.0,4.0,0.0
2397,81.0,20.0,20.0,4.0,0.0
2398,80.0,20.0,20.0,4.0,0.0
2399,78.0,0.0,20.0,4.0,0.0
2400,73.0,20.0,20.0,1.0,0.0
2401,61.0,0.0,60.0,7.0,0.0
2402,49.0,0.0,60.0,8.0,0.0
2403,77.0,0.0,60.0,4.0,0.0
2404,73.0,0.0,60.0,5.0,0.0
2405,61.0,20.0,60.0,6.0,0.0
2406,72.0,20.0,20.0,1.0,0.0
2407,73.0,0.0,20.0,1.0,0.0
2408,77.0,20.0,20.0,1.0,0.0
2409,75.0,20.0,20.0,1.0,0.0
2410,73.0,20.0,20.0,1.0,0.0
2411,78.0,20.0,20.0,5.0,0.0
2412,84.0,0.0,120.0,4.0,0.0
2413,74.0,0.0,120.0,6.0,0.0
2414,77.0,20.0,20.0,5.0,0.0
2415,78.0,20.0,20.0,5.0,0.0
2416,81.0,20.0,20.0,5.0,0.0
2417,80.0,20.0,20.0,5.0,0.0
2418,78.0,20.0,20.0,5.0,0.0
2419,85.0,20.0,20.0,0.0,0.0
2420,85.0,0.0,60.0,4.0,0.0
2421,73.0,0.0,60.0,6.0,0.0
2422,77.0,20.0,60.0,5.0,0.0
2423,84.0,20.0,20.0,0.0,0.0
2424,85.0,0.0,20.0,0.0,0.0
2425,89.0,20.0,20.0,0.0,0.0
2426,87.0,16.0,20.0,0.0,0.0
2427,85.0,24.0,15.0,0.0,0.0
2428,84.0,20.0,120.0,1.0,0.0
2429,90.0,20.0,20.0,0.0,0.0
2430,44.0,0.0,60.0,8.0,0.0
2431,56.0,0.0,60.0,7.0,0.0
2432,89.0,20.0,20.0,0.0,0.0
2433,90.0,20.0,20.0,0.0,0.0
2434,66.0,0.0,60.0,5.0,0.0
2435,56.0,0.0,60.0,6.0,0.0
2436,72.0,5.0,60.0,4.0,0.0
2437,63.0,0.0,60.0,4.0,0.0
2438,93.0,20.0,20.0,0.0,0.0
2439,92.0,15.0,20.0,0.0,0.0
2440,90.0,0.0,20.0,0.0,0.0
2441,49.0,0.0,60.0,8.0,0.0
2442,61.0,0.0,60.0,7.0,0.0
2443,83.0,20.0,20.0,1.0,0.0
2444,89.0,0.0,120.0,0.0,0.0
2445,82.0,20.0,20.0,1.0,0.0
2446,83.0,20.0,20.0,1.0,0.0
2447,56.0,0.0,60.0,6.0,0.0
2448,71.0,0.0,60.0,4.0,0.0
2449,61.0,0.0,60.0,4.0,0.0
2450,86.0,20.0,20.0,1.0,0.0
2451,65.0,5.0,60.0,5.0,0.0
2452,85.0,15.0,20.0,1.0,0.0
2453,83.0,20.0,20.0,1.0,0.0
2454,88.0,20.0,20.0,0.0,0.0
2455,82.0,0.0,120.0,1.0,0.0
2456,42.0,20.0,60.0,8.0,0.0
2457,54.0,0.0,60.0,7.0,0.0
2458,87.0,20.0,20.0,0.0,0.0
2459,88.0,0.0,20.0,0.0,0.0
2460,54.0,0.0,60.0,6.0,0.0
2461,61.0,0.0,60.0,4.0,0.0
2462,91.0,20.0,20.0,0.0,0.0
2463,70.0,0.0,60.0,4.0,0.0
2464,64.0,5.0,60.0,5.0,0.0
2465,90.0,15.0,20.0,0.0,0.0
2466,88.0,20.0,20.0,0.0,0.0
2467,47.0,20.0,60.0,8.0,0.0
2468,59.0,0.0,60.0,7.0,0.0
2469,81.0,20.0,20.0,1.0,0.0
2470,87.0,20.0,120.0,0.0,0.0
2471,80.0,20.0,20.0,1.0,0.0
2472,81.0,0.0,20.0,1.0,0.0
2473,54.0,0.0,60.0,6.0,0.0
2474,84.0,20.0,20.0,1.0,0.0
2475,59.0,0.0,60.0,4.0,0.0
2476,69.0,0.0,60.0,4.0,0.0
2477,63.0,5.0,60.0,5.0,0.0
2478,83.0,15.0,20.0,1.0,0.0
2479,81.0,0.0,20.0,1.0,0.0
2480,52.0,57.0,120.0,3.0,0.0
2481,74.0,0.0,120.0,1.0,0.0
2482,52.0,20.0,60.0,7.0,0.0
2483,62.0,0.0,120.0,2.0,0.0
2484,80.0,0.0,120.0,1.0,0.0
2485,71.0,0.0,120.0,3.0,0.0
2486,68.0,0.0,120.0,2.0,0.0
2487,86.0,20.0,20.0,0.0,0.0
2488,40.0,0.0,60.0,8.0,0.0
2489,85.0,20.0,20.0,0.0,0.0
2490,86.0,0.0,20.0,0.0,0.0
2491,90.0,20.0,20.0,0.0,0.0
2492,59.0,0.0,60.0,4.0,0.0
2493,68.0,0.0,60.0,4.0,0.0
2494,62.0,5.0,60.0,5.0,0.0
2495,88.0,15.0,20.0,0.0,0.0
2496,86.0,0.0,20.0,0.0,0.0
2497,45.0,57.0,120.0,8.0,0.0
2498,57.0,0.0,60.0,3.0,0.0
2499,69.0,27.0,90.0,4.0,0.0
2500,69.0,0.0,60.0,2.0,0.0
2501,61.0,0.0,60.0,2.0,0.0
2502,61.0,0.0,60.0,5.0,0.0
2503,73.0,0.0,60.0,1.0,0.0
2504,57.0,0.0,120.0,7.0,0.0
2505,81.0,0.0,60.0,1.0,0.0
2506,69.0,0.0,60.0,3.0,0.0
2507,52.0,3.0,60.0,6.0,0.0
2508,85.0,30.0,60.0,0.0,0.0
2509,64.0,0.0,60.0,5.0,0.0
2510,61.0,3.0,60.0,6.0,0.0
2511,57.0,0.0,60.0,6.0,0.0
2512,64.0,0.0,30.0,4.0,0.0
2513,57.0,0.0,60.0,6.0,0.0
2514,61.0,0.0,60.0,6.0,0.0
2515,64.0,60.0,60.0,5.0,0.0
2516,73.0,16.0,210.0,4.0,0.0
2517,61.0,60.0,60.0,6.0,0.0
2518,57.0,0.0,60.0,6.0,0.0
2519,64.0,0.0,60.0,5.0,0.0
2520,64.0,0.0,60.0,5.0,0.0
2521,61.0,0.0,60.0,6.0,0.0
2522,57.0,32.0,60.0,6.0,0.0
2523,57.0,0.0,60.0,6.0,0.0
2524,61.0,0.0,60.0,6.0,0.0
2525,64.0,3.0,60.0,5.0,0.0
2526,71.0,12.0,15.0,4.0,0.0
2527,69.0,57.0,15.0,4.0,0.0
2528,50.0,30.0,120.0,7.0,0.0
2529,62.0,3.0,60.0,6.0,0.0
2530,38.0,0.0,120.0,8.0,0.0
2531,59.0,0.0,60.0,6.0,0.0
2532,64.0,0.0,60.0,5.0,0.0
2533,68.0,57.0,60.0,4.0,0.0
2534,64.0,3.0,60.0,5.0,0.0
2535,62.0,0.0,60.0,6.0,0.0
2536,59.0,0.0,60.0,6.0,0.0
2537,62.0,0.0,60.0,6.0,0.0
2538,59.0,0.0,60.0,6.0,0.0
2539,74.0,0.0,60.0,4.0,0.0
2540,64.0,3.0,60.0,5.0,0.0
2541,46.0,15.0,15.0,8.0,0.0
2542,58.0,0.0,15.0,7.0,0.0
2543,47.0,12.0,15.0,8.0,0.0
2544,59.0,0.0,15.0,7.0,0.0
2545,46.0,15.0,15.0,8.0,0.0
2546,58.0,0.0,15.0,7.0,0.0
2547,59.0,15.0,15.0,7.0,0.0
2548,64.0,0.0,60.0,5.0,0.0
2549,59.0,0.0,60.0,6.0,0.0
2550,62.0,3.0,60.0,6.0,0.0
2551,47.0,0.0,15.0,8.0,0.0
2552,61.0,15.0,15.0,7.0,0.0
2553,49.0,0.0,15.0,8.0,0.0
2554,50.0,0.0,15.0,8.0,0.0
2555,62.0,12.0,15.0,7.0,0.0
2556,61.0,0.0,15.0,7.0,0.0
2557,49.0,15.0,15.0,8.0,0.0
2558,62.0,15.0,15.0,7.0,0.0
2559,64.0,0.0,60.0,5.0,0.0
2560,59.0,0.0,60.0,6.0,0.0
2561,62.0,3.0,60.0,6.0,0.0
2562,50.0,0.0,15.0,8.0,0.0
2563,53.0,0.0,15.0,8.0,0.0
2564,65.0,15.0,15.0,7.0,0.0
2565,54.0,0.0,15.0,8.0,0.0
2566,66.0,12.0,15.0,7.0,0.0
2567,49.0,15.0,15.0,8.0,0.0
2568,61.0,0.0,15.0,7.0,0.0
2569,59.0,0.0,60.0,6.0,0.0
2570,62.0,0.0,60.0,6.0,0.0
2571,64.0,3.0,60.0,5.0,0.0
2572,52.0,0.0,15.0,8.0,0.0
2573,64.0,15.0,15.0,7.0,0.0
2574,50.0,15.0,15.0,8.0,0.0
2575,62.0,0.0,15.0,7.0,0.0
2576,61.0,0.0,15.0,7.0,0.0
2577,49.0,12.0,15.0,8.0,0.0
2578,59.0,0.0,15.0,7.0,0.0
2579,47.0,30.0,15.0,8.0,0.0
2580,64.0,0.0,60.0,5.0,0.0
2581,45.0,0.0,120.0,8.0,0.0
2582,57.0,0.0,120.0,7.0,0.0
2583,59.0,3.0,60.0,6.0,0.0
2584,62.0,0.0,60.0,6.0,0.0
2585,82.0,15.0,15.0,4.0,0.0
2586,83.0,12.0,15.0,4.0,0.0
2587,82.0,15.0,15.0,4.0,0.0
2588,59.0,0.0,60.0,6.0,0.0
2589,62.0,3.0,60.0,6.0,0.0
2590,64.0,0.0,60.0,5.0,0.0
2591,83.0,15.0,15.0,4.0,0.0
2592,85.0,15.0,15.0,4.0,0.0
2593,86.0,12.0,15.0,4.0,0.0
2594,85.0,15.0,15.0,4.0,0.0
2595,44.0,0.0,60.0,8.0,0.0
2596,64.0,3.0,60.0,5.0,0.0
2597,62.0,0.0,60.0,6.0,0.0
2598,59.0,0.0,60.0,6.0,0.0
2599,56.0,15.0,60.0,7.0,0.0
2600,86.0,15.0,15.0,4.0,0.0
2601,89.0,15.0,15.0,4.0,0.0
2602,90.0,12.0,15.0,4.0,0.0
2603,85.0,0.0,15.0,4.0,0.0
2604,88.0,15.0,15.0,4.0,0.0
2605,62.0,0.0,60.0,6.0,0.0
2606,59.0,3.0,60.0,6.0,0.0
2607,64.0,0.0,60.0,5.0,0.0
2608,86.0,15.0,15.0,4.0,0.0
2609,85.0,12.0,15.0,4.0,0.0
2610,83.0,15.0,15.0,4.0,0.0
2611,64.0,0.0,60.0,5.0,0.0
2612,81.0,15.0,15.0,4.0,0.0
2613,52.0,15.0,60.0,7.0,0.0
2614,59.0,0.0,60.0,6.0,0.0
2615,40.0,0.0,60.0,8.0,0.0
2616,62.0,3.0,60.0,6.0,0.0
2617,80.0,15.0,15.0,4.0,0.0
2618,85.0,12.0,15.0,4.0,0.0
2619,83.0,0.0,15.0,4.0,0.0
2620,59.0,0.0,60.0,6.0,0.0
2621,62.0,0.0,60.0,6.0,0.0
2622,81.0,15.0,15.0,4.0,0.0
2623,64.0,3.0,60.0,5.0,0.0
2624,80.0,15.0,15.0,4.0,0.0
2625,78.0,12.0,15.0,4.0,0.0
2626,76.0,15.0,15.0,4.0,0.0
2627,55.0,0.0,60.0,7.0,0.0
2628,74.0,15.0,15.0,4.0,0.0
2629,64.0,3.0,60.0,5.0,0.0
2630,43.0,15.0,60.0,8.0,0.0
2631,57.0,0.0,60.0,6.0,0.0
2632,61.0,0.0,60.0,6.0,0.0
2633,73.0,15.0,15.0,4.0,0.0
2634,81.0,12.0,15.0,4.0,0.0
2635,79.0,0.0,15.0,4.0,0.0
2636,78.0,15.0,15.0,4.0,0.0
2637,61.0,0.0,60.0,6.0,0.0
2638,57.0,3.0,60.0,6.0,0.0
2639,64.0,0.0,60.0,5.0,0.0
2640,76.0,15.0,15.0,4.0,0.0
2641,74.0,12.0,15.0,4.0,0.0
2642,73.0,15.0,15.0,4.0,0.0
2643,52.0,15.0,60.0,7.0,0.0
2644,67.0,0.0,60.0,5.0,0.0
2645,61.0,3.0,60.0,6.0,0.0
2646,57.0,0.0,60.0,6.0,0.0
2647,71.0,15.0,15.0,4.0,0.0
2648,40.0,0.0,60.0,8.0,0.0
2649,69.0,15.0,15.0,4.0,0.0
2650,78.0,12.0,15.0,4.0,0.0
2651,76.0,0.0,15.0,4.0,0.0
2652,67.0,3.0,60.0,5.0,0.0
2653,74.0,15.0,15.0,4.0,0.0
2654,57.0,0.0,60.0,6.0,0.0
2655,61.0,0.0,60.0,6.0,0.0
2656,73.0,15.0,15.0,4.0,0.0
2657,71.0,12.0,15.0,4.0,0.0
2658,69.0,15.0,15.0,4.0,0.0
2659,37.0,0.0,60.0,8.0,0.0
2660,49.0,15.0,60.0,7.0,0.0
2661,64.0,3.0,60.0,5.0,0.0
2662,52.0,0.0,60.0,6.0,0.0
2663,57.0,0.0,60.0,6.0,0.0
2664,68.0,15.0,15.0,4.0,0.0
2665,69.0,15.0,15.0,4.0,0.0
2666,71.0,12.0,15.0,4.0,0.0
2667,69.0,0.0,15.0,4.0,0.0
2668,64.0,0.0,60.0,5.0,0.0
2669,67.0,15.0,15.0,4.0,0.0
2670,55.0,0.0,60.0,6.0,0.0
2671,57.0,3.0,60.0,6.0,0.0
2672,66.0,15.0,15.0,4.0,0.0
2673,67.0,12.0,15.0,4.0,0.0
2674,64.0,60.0,15.0,4.0,0.0
2675,62.0,0.0,90.0,7.0,0.0
2676,62.0,0.0,120.0,5.0,0.0
2677,62.0,0.0,120.0,4.0,0.0
2678,50.0,30.0,90.0,8.0,0.0
2679,57.0,0.0,60.0,6.0,0.0
2680,54.0,0.0,60.0,6.0,0.0
2681,69.0,0.0,15.0,3.0,0.0
2682,57.0,30.0,15.0,3.0,0.0
2683,66.0,0.0,15.0,2.0,0.0
2684,62.0,0.0,15.0,2.0,0.0
2685,57.0,0.0,30.0,7.0,0.0
2686,45.0,0.0,30.0,8.0,0.0
2687,69.0,0.0,15.0,3.0,0.0
2688,66.0,0.0,210.0,7.0,0.0
2689,57.0,60.0,15.0,3.0,0.0
2690,62.0,0.0,15.0,2.0,0.0
2691,66.0,0.0,15.0,2.0,0.0
2692,66.0,0.0,210.0,6.0,0.0
2693,54.0,16.0,210.0,8.0,0.0
2694,69.0,60.0,15.0,3.0,0.0
2695,57.0,0.0,15.0,3.0,0.0
2696,62.0,0.0,15.0,2.0,0.0
2697,66.0,0.0,15.0,2.0,0.0
2698,69.0,0.0,60.0,3.0,0.0
2699,66.0,60.0,15.0,2.0,0.0
2700,62.0,0.0,15.0,2.0,0.0
2701,66.0,0.0,15.0,2.0,0.0
2702,69.0,0.0,60.0,3.0,0.0
2703,57.0,29.0,15.0,3.0,0.0
2704,52.0,15.0,15.0,8.0,0.0
2705,64.0,0.0,15.0,6.0,0.0
2706,64.0,0.0,15.0,7.0,0.0
2707,62.0,0.0,15.0,6.0,0.0
2708,62.0,60.0,15.0,7.0,0.0
2709,50.0,0.0,15.0,8.0,0.0
2710,61.0,0.0,60.0,6.0,0.0
2711,64.0,0.0,60.0,2.0,0.0
2712,67.0,0.0,60.0,2.0,0.0
2713,61.0,0.0,60.0,7.0,0.0
2714,49.0,60.0,60.0,8.0,0.0
2715,67.0,0.0,60.0,2.0,0.0
2716,64.0,30.0,60.0,2.0,0.0
2717,69.0,0.0,15.0,3.0,0.0
2718,57.0,0.0,15.0,3.0,0.0
2719,67.0,0.0,60.0,6.0,0.0
2720,69.0,0.0,15.0,3.0,0.0
2721,67.0,0.0,60.0,2.0,0.0
2722,57.0,0.0,15.0,3.0,0.0
2723,67.0,0.0,60.0,7.0,0.0
2724,64.0,0.0,60.0,2.0,0.0
2725,55.0,0.0,60.0,8.0,0.0
2726,63.0,0.0,15.0,5.0,0.0
2727,75.0,15.0,15.0,4.0,0.0
2728,64.0,0.0,15.0,5.0,0.0
2729,76.0,15.0,15.0,4.0,0.0
2730,75.0,0.0,15.0,4.0,0.0
2731,63.0,15.0,15.0,5.0,0.0
2732,76.0,0.0,15.0,4.0,0.0
2733,64.0,0.0,60.0,2.0,0.0
2734,64.0,15.0,15.0,5.0,0.0
2735,67.0,0.0,60.0,2.0,0.0
2736,78.0,0.0,15.0,4.0,0.0
2737,66.0,15.0,15.0,5.0,0.0
2738,67.0,0.0,15.0,5.0,0.0
2739,79.0,15.0,15.0,4.0,0.0
2740,66.0,0.0,15.0,5.0,0.0
2741,78.0,0.0,15.0,4.0,0.0
2742,57.0,15.0,15.0,3.0,0.0
2743,79.0,15.0,15.0,4.0,0.0
2744,69.0,0.0,15.0,3.0,0.0
2745,67.0,0.0,60.0,2.0,0.0
2746,67.0,0.0,15.0,5.0,0.0
2747,70.0,0.0,15.0,5.0,0.0
2748,82.0,15.0,15.0,4.0,0.0
2749,71.0,0.0,15.0,5.0,0.0
2750,83.0,15.0,15.0,4.0,0.0
2751,78.0,0.0,15.0,4.0,0.0
2752,66.0,0.0,15.0,5.0,0.0
2753,69.0,0.0,15.0,5.0,0.0
2754,57.0,0.0,15.0,3.0,0.0
2755,67.0,0.0,60.0,2.0,0.0
2756,64.0,15.0,15.0,2.0,0.0
2757,81.0,15.0,15.0,4.0,0.0
2758,69.0,0.0,60.0,3.0,0.0
2759,67.0,0.0,15.0,5.0,0.0
2760,79.0,15.0,15.0,4.0,0.0
2761,66.0,0.0,15.0,5.0,0.0
2762,78.0,15.0,15.0,4.0,0.0
2763,64.0,0.0,15.0,5.0,0.0
2764,76.0,30.0,15.0,4.0,0.0
2765,64.0,0.0,60.0,2.0,0.0
2766,74.0,0.0,120.0,4.0,0.0
2767,62.0,15.0,120.0,5.0,0.0
2768,63.0,0.0,15.0,7.0,0.0
2769,63.0,15.0,15.0,6.0,0.0
2770,51.0,0.0,15.0,8.0,0.0
2771,64.0,0.0,15.0,6.0,0.0
2772,52.0,0.0,15.0,8.0,0.0
2773,64.0,15.0,15.0,7.0,0.0
2774,63.0,0.0,15.0,6.0,0.0
2775,51.0,0.0,15.0,8.0,0.0
2776,63.0,15.0,15.0,7.0,0.0
2777,52.0,15.0,15.0,8.0,0.0
2778,67.0,0.0,15.0,2.0,0.0
2779,69.0,0.0,15.0,3.0,0.0
2780,57.0,0.0,15.0,3.0,0.0
2781,64.0,0.0,15.0,7.0,0.0
2782,64.0,0.0,15.0,6.0,0.0
2783,66.0,15.0,15.0,7.0,0.0
2784,66.0,0.0,15.0,6.0,0.0
2785,54.0,0.0,15.0,8.0,0.0
2786,67.0,0.0,15.0,6.0,0.0
2787,55.0,15.0,15.0,8.0,0.0
2788,67.0,0.0,15.0,7.0,0.0
2789,66.0,0.0,15.0,6.0,0.0
2790,66.0,0.0,15.0,7.0,0.0
2791,54.0,0.0,15.0,8.0,0.0
2792,55.0,15.0,15.0,8.0,0.0
2793,67.0,0.0,15.0,6.0,0.0
2794,69.0,0.0,15.0,3.0,0.0
2795,67.0,0.0,15.0,7.0,0.0
2796,57.0,0.0,15.0,3.0,0.0
2797,61.0,0.0,60.0,5.0,0.0
2798,67.0,0.0,15.0,2.0,0.0
2799,64.0,0.0,15.0,2.0,0.0
2800,73.0,0.0,60.0,4.0,0.0
2801,70.0,0.0,15.0,6.0,0.0
2802,58.0,0.0,15.0,8.0,0.0
2803,70.0,15.0,15.0,7.0,0.0
2804,59.0,15.0,15.0,8.0,0.0
2805,71.0,0.0,15.0,6.0,0.0
2806,71.0,0.0,15.0,7.0,0.0
2807,66.0,0.0,15.0,6.0,0.0
2808,54.0,0.0,15.0,8.0,0.0
2809,66.0,0.0,15.0,7.0,0.0
2810,57.0,15.0,15.0,8.0,0.0
2811,64.0,0.0,15.0,2.0,0.0
2812,69.0,0.0,15.0,6.0,0.0
2813,67.0,0.0,15.0,2.0,0.0
2814,57.0,0.0,15.0,3.0,0.0
2815,69.0,15.0,15.0,3.0,0.0
2816,69.0,0.0,15.0,7.0,0.0
2817,55.0,0.0,15.0,8.0,0.0
2818,67.0,15.0,15.0,7.0,0.0
2819,67.0,0.0,15.0,6.0,0.0
2820,54.0,0.0,15.0,8.0,0.0
2821,66.0,15.0,15.0,6.0,0.0
2822,66.0,0.0,15.0,7.0,0.0
2823,52.0,0.0,15.0,8.0,0.0
2824,64.0,0.0,15.0,7.0,0.0
2825,64.0,0.0,15.0,6.0,0.0
2826,64.0,0.0,15.0,2.0,0.0
2827,67.0,15.0,15.0,2.0,0.0
2828,69.0,0.0,15.0,3.0,0.0
2829,57.0,0.0,15.0,3.0,0.0
2830,62.0,0.0,15.0,6.0,0.0
2831,50.0,0.0,15.0,8.0,0.0
2832,62.0,15.0,15.0,7.0,0.0
2833,61.0,0.0,15.0,6.0,0.0
2834,49.0,0.0,15.0,8.0,0.0
2835,61.0,15.0,15.0,7.0,0.0
2836,64.0,15.0,15.0,6.0,0.0
2837,52.0,0.0,15.0,8.0,0.0
2838,64.0,0.0,15.0,7.0,0.0
2839,62.0,0.0,15.0,7.0,0.0
2840,50.0,0.0,15.0,8.0,0.0
2841,62.0,0.0,15.0,6.0,0.0
2842,64.0,0.0,15.0,2.0,0.0
2843,61.0,0.0,60.0,2.0,0.0
2844,61.0,15.0,15.0,7.0,0.0
2845,49.0,0.0,15.0,8.0,0.0
2846,61.0,0.0,15.0,6.0,0.0
2847,69.0,0.0,60.0,3.0,0.0
2848,47.0,0.0,15.0,8.0,0.0
2849,59.0,0.0,15.0,6.0,0.0
2850,59.0,15.0,15.0,7.0,0.0
2851,57.0,0.0,15.0,7.0,0.0
2852,57.0,0.0,15.0,6.0,0.0
2853,45.0,15.0,15.0,8.0,0.0
2854,55.0,0.0,15.0,6.0,0.0
2855,55.0,30.0,15.0,7.0,0.0
2856,43.0,0.0,15.0,8.0,0.0
2857,57.0,0.0,15.0,3.0,0.0
2858,42.0,0.0,60.0,8.0,0.0
2859,69.0,0.0,60.0,3.0,0.0
2860,54.0,0.0,60.0,6.0,0.0
2861,62.0,0.0,40.0,2.0,0.0
2862,54.0,15.0,60.0,7.0,0.0
2863,74.0,15.0,15.0,4.0,0.0
2864,76.0,15.0,15.0,4.0,0.0
2865,78.0,0.0,15.0,4.0,0.0
2866,50.0,0.0,15.0,2.0,0.0
2867,78.0,0.0,40.0,1.0,0.0
2868,81.0,15.0,40.0,0.0,0.0
2869,54.0,0.0,40.0,2.0,0.0
2870,79.0,15.0,15.0,4.0,0.0
2871,81.0,15.0,15.0,4.0,0.0
2872,83.0,0.0,15.0,4.0,0.0
2873,69.0,0.0,15.0,1.0,0.0
2874,57.0,0.0,15.0,2.0,0.0
2875,69.0,0.0,15.0,3.0,0.0
2876,85.0,0.0,15.0,4.0,0.0
2877,74.0,0.0,15.0,1.0,0.0
2878,78.0,0.0,15.0,0.0,0.0
2879,81.0,0.0,40.0,1.0,0.0
2880,86.0,3.0,40.0,0.0,0.0
2881,88.0,15.0,15.0,4.0,0.0
2882,78.0,0.0,40.0,1.0,0.0
2883,62.0,0.0,40.0,2.0,0.0
2884,69.0,0.0,40.0,3.0,0.0
2885,86.0,12.0,15.0,4.0,0.0
2886,91.0,15.0,15.0,4.0,0.0
2887,90.0,15.0,15.0,4.0,0.0
2888,50.0,0.0,40.0,2.0,0.0
2889,88.0,15.0,15.0,4.0,0.0
2890,83.0,0.0,40.0,1.0,0.0
2891,90.0,0.0,40.0,0.0,0.0
2892,71.0,0.0,40.0,3.0,0.0
2893,86.0,3.0,40.0,1.0,0.0
2894,86.0,12.0,15.0,4.0,0.0
2895,85.0,15.0,15.0,4.0,0.0
2896,83.0,15.0,15.0,4.0,0.0
2897,52.0,0.0,60.0,8.0,0.0
2898,64.0,0.0,60.0,7.0,0.0
2899,64.0,15.0,60.0,6.0,0.0
2900,82.0,15.0,15.0,4.0,0.0
2901,80.0,15.0,15.0,4.0,0.0
2902,78.0,15.0,15.0,4.0,0.0
2903,52.0,0.0,15.0,2.0,0.0
2904,80.0,0.0,15.0,4.0,0.0
2905,58.0,0.0,40.0,2.0,0.0
2906,82.0,0.0,40.0,0.0,0.0
2907,73.0,0.0,40.0,3.0,0.0
2908,82.0,15.0,15.0,4.0,0.0
2909,78.0,0.0,40.0,1.0,0.0
2910,73.0,15.0,40.0,1.0,0.0
2911,83.0,15.0,15.0,4.0,0.0
2912,85.0,0.0,15.0,4.0,0.0
2913,61.0,0.0,15.0,2.0,0.0
2914,86.0,0.0,15.0,4.0,0.0
2915,70.0,0.0,15.0,1.0,0.0
2916,78.0,15.0,15.0,0.0,0.0
2917,73.0,0.0,15.0,1.0,0.0
2918,73.0,0.0,15.0,3.0,0.0
2919,85.0,0.0,40.0,0.0,0.0
2920,73.0,0.0,15.0,3.0,0.0
2921,73.0,0.0,40.0,3.0,0.0
2922,82.0,0.0,40.0,1.0,0.0
2923,64.0,3.0,40.0,2.0,0.0
2924,78.0,0.0,40.0,1.0,0.0
2925,88.0,15.0,15.0,4.0,0.0
2926,87.0,12.0,15.0,4.0,0.0
2927,90.0,15.0,15.0,4.0,0.0
2928,88.0,15.0,15.0,4.0,0.0
2929,90.0,0.0,40.0,0.0,0.0
2930,52.0,0.0,40.0,2.0,0.0
2931,73.0,0.0,40.0,3.0,0.0
2932,85.0,0.0,40.0,1.0,0.0
2933,82.0,0.0,40.0,1.0,0.0
2934,86.0,15.0,15.0,4.0,0.0
2935,85.0,12.0,15.0,4.0,0.0
2936,83.0,15.0,15.0,4.0,0.0
2937,82.0,15.0,15.0,4.0,0.0
2938,83.0,15.0,15.0,4.0,0.0
2939,62.0,0.0,60.0,7.0,0.0
2940,62.0,0.0,60.0,6.0,0.0
2941,50.0,0.0,60.0,8.0,0.0
2942,78.0,15.0,15.0,4.0,0.0
2943,80.0,15.0,15.0,4.0,0.0
2944,82.0,0.0,15.0,4.0,0.0
2945,50.0,15.0,15.0,2.0,0.0
2946,74.0,0.0,40.0,1.0,0.0
2947,78.0,0.0,40.0,1.0,0.0
2948,83.0,15.0,15.0,4.0,0.0
2949,83.0,0.0,40.0,0.0,0.0
2950,54.0,0.0,40.0,2.0,0.0
2951,82.0,15.0,15.0,4.0,0.0
2952,85.0,15.0,15.0,4.0,0.0
2953,78.0,0.0,15.0,0.0,0.0
2954,74.0,0.0,15.0,3.0,0.0
2955,71.0,0.0,15.0,3.0,0.0
2956,59.0,0.0,15.0,2.0,0.0
2957,71.0,15.0,15.0,1.0,0.0
2958,74.0,0.0,15.0,1.0,0.0
2959,83.0,0.0,15.0,4.0,0.0
2960,86.0,15.0,15.0,4.0,0.0
2961,62.0,0.0,40.0,2.0,0.0
2962,86.0,0.0,40.0,0.0,0.0
2963,78.0,3.0,40.0,1.0,0.0
2964,83.0,0.0,40.0,1.0,0.0
2965,71.0,0.0,40.0,3.0,0.0
2966,74.0,0.0,40.0,3.0,0.0
2967,85.0,12.0,15.0,4.0,0.0
2968,88.0,15.0,15.0,4.0,0.0
2969,86.0,15.0,15.0,4.0,0.0
2970,71.0,0.0,40.0,3.0,0.0
2971,74.0,0.0,40.0,3.0,0.0
2972,50.0,3.0,40.0,2.0,0.0
2973,83.0,0.0,40.0,1.0,0.0
2974,90.0,15.0,15.0,4.0,0.0
2975,90.0,0.0,40.0,0.0,0.0
2976,86.0,0.0,40.0,1.0,0.0
2977,86.0,12.0,15.0,4.0,0.0
2978,83.0,15.0,15.0,4.0,0.0
2979,81.0,15.0,15.0,4.0,0.0
2980,50.0,0.0,60.0,7.0,0.0
2981,80.0,0.0,15.0,4.0,0.0
2982,38.0,15.0,60.0,8.0,0.0
2983,62.0,0.0,60.0,6.0,0.0
2984,68.0,15.0,15.0,5.0,0.0
2985,66.0,0.0,15.0,5.0,0.0
2986,78.0,15.0,15.0,4.0,0.0
2987,76.0,0.0,15.0,4.0,0.0
2988,64.0,15.0,15.0,5.0,0.0
2989,78.0,0.0,15.0,4.0,0.0
2990,50.0,0.0,15.0,2.0,0.0
2991,66.0,0.0,15.0,5.0,0.0
2992,56.0,0.0,40.0,2.0,0.0
2993,68.0,0.0,15.0,5.0,0.0
2994,76.0,0.0,40.0,1.0,0.0
2995,80.0,15.0,15.0,4.0,0.0
2996,80.0,0.0,40.0,0.0,0.0
2997,71.0,0.0,40.0,1.0,0.0
2998,64.0,0.0,40.0,3.0,0.0
2999,69.0,0.0,15.0,5.0,0.0
3000,81.0,15.0,15.0,4.0,0.0
3001,71.0,0.0,15.0,5.0,0.0
3002,83.0,15.0,15.0,4.0,0.0
3003,68.0,0.0,15.0,1.0,0.0
3004,71.0,0.0,15.0,1.0,0.0
3005,71.0,0.0,15.0,3.0,0.0
3006,85.0,0.0,15.0,4.0,0.0
3007,59.0,15.0,15.0,2.0,0.0
3008,73.0,0.0,15.0,5.0,0.0
3009,76.0,0.0,15.0,0.0,0.0
3010,64.0,0.0,15.0,3.0,0.0
3011,71.0,0.0,15.0,3.0,0.0
3012,86.0,0.0,15.0,4.0,0.0
3013,80.0,0.0,40.0,1.0,0.0
3014,74.0,15.0,15.0,5.0,0.0
3015,76.0,0.0,40.0,1.0,0.0
3016,83.0,3.0,40.0,0.0,0.0
3017,62.0,0.0,40.0,2.0,0.0
3018,88.0,12.0,15.0,4.0,0.0
3019,76.0,0.0,15.0,5.0,0.0
3020,78.0,0.0,15.0,5.0,0.0
3021,90.0,15.0,15.0,4.0,0.0
3022,86.0,15.0,15.0,4.0,0.0
3023,74.0,0.0,15.0,5.0,0.0
3024,73.0,15.0,15.0,5.0,0.0
3025,83.0,0.0,40.0,1.0,0.0
3026,71.0,0.0,40.0,3.0,0.0
3027,80.0,0.0,40.0,1.0,0.0
3028,64.0,0.0,40.0,3.0,0.0
3029,85.0,0.0,15.0,4.0,0.0
3030,50.0,3.0,40.0,2.0,0.0
3031,88.0,0.0,40.0,0.0,0.0
3032,83.0,0.0,15.0,4.0,0.0
3033,71.0,12.0,15.0,5.0,0.0
3034,81.0,0.0,15.0,4.0,0.0
3035,69.0,15.0,15.0,5.0,0.0
3036,80.0,0.0,15.0,4.0,0.0
3037,68.0,15.0,15.0,5.0,0.0
3038,81.0,15.0,15.0,4.0,0.0
3039,61.0,0.0,60.0,7.0,0.0
3040,49.0,0.0,60.0,8.0,0.0
3041,69.0,0.0,15.0,5.0,0.0
3042,61.0,0.0,60.0,6.0,0.0
3043,76.0,15.0,15.0,4.0,0.0
3044,64.0,0.0,15.0,5.0,0.0
3045,78.0,0.0,15.0,4.0,0.0
3046,66.0,15.0,15.0,5.0,0.0
3047,80.0,15.0,15.0,4.0,0.0
3048,49.0,0.0,15.0,2.0,0.0
3049,68.0,0.0,15.0,5.0,0.0
3050,52.0,0.0,40.0,2.0,0.0
3051,69.0,15.0,15.0,5.0,0.0
3052,81.0,0.0,40.0,0.0,0.0
3053,76.0,0.0,40.0,1.0,0.0
3054,81.0,0.0,15.0,4.0,0.0
3055,71.0,0.0,15.0,5.0,0.0
3056,83.0,15.0,15.0,4.0,0.0
3057,85.0,0.0,15.0,4.0,0.0
3058,73.0,0.0,15.0,5.0,0.0
3059,76.0,0.0,15.0,0.0,0.0
3060,74.0,0.0,15.0,5.0,0.0
3061,69.0,0.0,15.0,3.0,0.0
3062,86.0,0.0,15.0,4.0,0.0
3063,69.0,15.0,15.0,1.0,0.0
3064,73.0,15.0,15.0,1.0,0.0
3065,73.0,0.0,15.0,3.0,0.0
3066,57.0,0.0,15.0,2.0,0.0
3067,76.0,15.0,15.0,5.0,0.0
3068,85.0,3.0,40.0,0.0,0.0
3069,88.0,0.0,15.0,4.0,0.0
3070,76.0,0.0,40.0,1.0,0.0
3071,69.0,0.0,15.0,3.0,0.0
3072,81.0,0.0,40.0,1.0,0.0
3073,73.0,0.0,40.0,3.0,0.0
3074,61.0,0.0,40.0,2.0,0.0
3075,90.0,0.0,15.0,4.0,0.0
3076,78.0,12.0,15.0,5.0,0.0
3077,88.0,0.0,15.0,4.0,0.0
3078,76.0,15.0,15.0,5.0,0.0
3079,74.0,0.0,15.0,5.0,0.0
3080,86.0,15.0,15.0,4.0,0.0
3081,81.0,0.0,40.0,1.0,0.0
3082,85.0,0.0,40.0,1.0,0.0
3083,88.0,0.0,40.0,0.0,0.0
3084,49.0,3.0,40.0,2.0,0.0
3085,85.0,0.0,15.0,4.0,0.0
3086,73.0,0.0,40.0,3.0,0.0
3087,69.0,0.0,40.0,3.0,0.0
3088,73.0,15.0,15.0,5.0,0.0
3089,71.0,12.0,15.0,5.0,0.0
3090,83.0,0.0,15.0,4.0,0.0
3091,81.0,15.0,15.0,4.0,0.0
3092,69.0,0.0,15.0,5.0,0.0
3093,68.0,15.0,15.0,5.0,0.0
3094,80.0,0.0,15.0,4.0,0.0
3095,81.0,15.0,15.0,4.0,0.0
3096,54.0,0.0,60.0,7.0,0.0
3097,69.0,0.0,15.0,5.0,0.0
3098,66.0,0.0,60.0,6.0,0.0
3099,42.0,0.0,60.0,8.0,0.0
3100,83.0,0.0,15.0,4.0,0.0
3101,71.0,15.0,15.0,5.0,0.0
3102,85.0,15.0,15.0,4.0,0.0
3103,73.0,0.0,15.0,5.0,0.0
3104,54.0,0.0,15.0,2.0,0.0
3105,71.0,15.0,15.0,5.0,0.0
3106,83.0,0.0,15.0,4.0,0.0
3107,69.0,0.0,15.0,5.0,0.0
3108,75.0,0.0,40.0,1.0,0.0
3109,78.0,0.0,40.0,0.0,0.0
3110,57.0,0.0,40.0,2.0,0.0
3111,81.0,15.0,15.0,4.0,0.0
3112,80.0,0.0,15.0,4.0,0.0
3113,68.0,15.0,15.0,5.0,0.0
3114,78.0,0.0,15.0,4.0,0.0
3115,66.0,15.0,15.0,5.0,0.0
3116,63.0,0.0,15.0,2.0,0.0
3117,76.0,0.0,15.0,4.0,0.0
3118,75.0,0.0,15.0,0.0,0.0
3119,69.0,0.0,15.0,1.0,0.0
3120,69.0,0.0,15.0,3.0,0.0
3121,57.0,0.0,15.0,3.0,0.0
3122,66.0,0.0,15.0,1.0,0.0
3123,64.0,0.0,15.0,5.0,0.0
3124,75.0,15.0,15.0,4.0,0.0
3125,66.0,0.0,40.0,2.0,0.0
3126,81.0,0.0,40.0,0.0,0.0
3127,69.0,0.0,40.0,3.0,0.0
3128,78.0,0.0,40.0,1.0,0.0
3129,75.0,3.0,40.0,1.0,0.0
3130,63.0,0.0,15.0,5.0,0.0
3131,57.0,15.0,15.0,3.0,0.0
3132,73.0,0.0,15.0,5.0,0.0
3133,73.0,12.0,15.0,4.0,0.0
3134,71.0,15.0,15.0,5.0,0.0
3135,71.0,0.0,15.0,4.0,0.0
3136,69.0,0.0,15.0,4.0,0.0
3137,69.0,15.0,15.0,5.0,0.0
3138,54.0,3.0,40.0,2.0,0.0
3139,81.0,0.0,40.0,1.0,0.0
3140,78.0,0.0,40.0,1.0,0.0
3141,68.0,0.0,15.0,5.0,0.0
3142,87.0,0.0,40.0,0.0,0.0
3143,57.0,0.0,40.0,3.0,0.0
3144,69.0,0.0,40.0,3.0,0.0
3145,68.0,15.0,15.0,4.0,0.0
3146,66.0,12.0,15.0,5.0,0.0
3147,66.0,0.0,15.0,4.0,0.0
3148,64.0,0.0,15.0,4.0,0.0
3149,64.0,15.0,15.0,5.0,0.0
3150,63.0,30.0,15.0,4.0,0.0
3151,63.0,0.0,15.0,5.0,0.0
3152,64.0,0.0,60.0,3.0,0.0
3153,52.0,0.0,60.0,3.0,0.0
3154,52.0,0.0,60.0,2.0,0.0
3155,64.0,0.0,120.0,5.0,0.0
3156,71.0,8.0,60.0,1.0,0.0
3157,80.0,0.0,60.0,1.0,0.0
3158,64.0,0.0,120.0,4.0,0.0
3159,88.0,0.0,60.0,0.0,0.0
3160,52.0,0.0,15.0,7.0,0.0
3161,64.0,0.0,15.0,6.0,0.0
3162,40.0,15.0,15.0,8.0,0.0
3163,54.0,7.0,15.0,7.0,0.0
3164,66.0,0.0,15.0,6.0,0.0
3165,42.0,0.0,15.0,8.0,0.0
3166,68.0,0.0,15.0,6.0,0.0
3167,44.0,0.0,15.0,8.0,0.0
3168,56.0,15.0,15.0,7.0,0.0
3169,45.0,0.0,15.0,8.0,0.0
3170,69.0,0.0,15.0,6.0,0.0
3171,57.0,15.0,15.0,7.0,0.0
3172,59.0,15.0,15.0,7.0,0.0
3173,47.0,0.0,15.0,8.0,0.0
3174,71.0,0.0,15.0,6.0,0.0
3175,73.0,0.0,15.0,6.0,0.0
3176,61.0,15.0,15.0,7.0,0.0
3177,49.0,0.0,15.0,8.0,0.0
3178,75.0,0.0,15.0,6.0,0.0
3179,80.0,0.0,15.0,1.0,0.0
3180,71.0,0.0,15.0,1.0,0.0
3181,88.0,0.0,15.0,0.0,0.0
3182,59.0,0.0,15.0,2.0,0.0
3183,51.0,0.0,15.0,8.0,0.0
3184,68.0,0.0,15.0,2.0,0.0
3185,63.0,0.0,15.0,7.0,0.0
3186,64.0,0.0,15.0,3.0,0.0
3187,52.0,0.0,15.0,3.0,0.0
3188,52.0,0.0,15.0,8.0,0.0
3189,71.0,0.0,15.0,1.0,0.0
3190,76.0,15.0,15.0,6.0,0.0
3191,88.0,0.0,15.0,0.0,0.0
3192,68.0,0.0,15.0,2.0,0.0
3193,59.0,0.0,15.0,2.0,0.0
3194,64.0,0.0,15.0,7.0,0.0
3195,80.0,0.0,60.0,1.0,0.0
3196,52.0,0.0,60.0,3.0,0.0
3197,64.0,0.0,60.0,3.0,0.0
3198,68.0,15.0,15.0,7.0,0.0
3199,56.0,0.0,15.0,8.0,0.0
3200,80.0,0.0,15.0,6.0,0.0
3201,66.0,0.0,15.0,7.0,0.0
3202,78.0,11.0,15.0,6.0,0.0
3203,54.0,0.0,15.0,8.0,0.0
3204,64.0,0.0,15.0,7.0,0.0
3205,52.0,0.0,15.0,8.0,0.0
3206,76.0,15.0,15.0,6.0,0.0
3207,88.0,0.0,60.0,0.0,0.0
3208,71.0,0.0,60.0,1.0,0.0
3209,75.0,15.0,15.0,6.0,0.0
3210,68.0,0.0,60.0,5.0,0.0
3211,51.0,0.0,15.0,8.0,0.0
3212,63.0,0.0,15.0,7.0,0.0
3213,76.0,0.0,60.0,4.0,0.0
3214,68.0,0.0,60.0,4.0,0.0
3215,59.0,0.0,60.0,4.0,0.0
3216,59.0,0.0,60.0,5.0,0.0
3217,80.0,0.0,60.0,1.0,0.0
3218,76.0,0.0,60.0,5.0,0.0
3219,52.0,0.0,60.0,3.0,0.0
3220,64.0,0.0,60.0,3.0,0.0
3221,59.0,4.0,60.0,2.0,0.0
3222,68.0,0.0,60.0,2.0,0.0
3223,61.0,15.0,15.0,7.0,0.0
3224,49.0,0.0,15.0,8.0,0.0
3225,73.0,0.0,15.0,6.0,0.0
3226,47.0,11.0,15.0,8.0,0.0
3227,59.0,0.0,15.0,7.0,0.0
3228,71.0,0.0,15.0,6.0,0.0
3229,70.0,0.0,15.0,6.0,0.0
3230,58.0,15.0,15.0,7.0,0.0
3231,46.0,0.0,15.0,8.0,0.0
3232,80.0,0.0,60.0,4.0,0.0
3233,71.0,0.0,60.0,4.0,0.0
3234,64.0,0.0,60.0,4.0,0.0
3235,71.0,0.0,60.0,1.0,0.0
3236,52.0,0.0,60.0,3.0,0.0
3237,64.0,0.0,60.0,3.0,0.0
3238,80.0,0.0,60.0,5.0,0.0
3239,71.0,0.0,60.0,5.0,0.0
3240,68.0,0.0,60.0,2.0,0.0
3241,47.0,0.0,15.0,8.0,0.0
3242,59.0,0.0,60.0,2.0,0.0
3243,71.0,0.0,15.0,6.0,0.0
3244,64.0,0.0,60.0,5.0,0.0
3245,59.0,15.0,15.0,7.0,0.0
3246,88.0,0.0,60.0,0.0,0.0
3247,80.0,4.0,60.0,1.0,0.0
3248,73.0,0.0,15.0,6.0,0.0
3249,61.0,0.0,15.0,7.0,0.0
3250,49.0,15.0,15.0,8.0,0.0
3251,71.0,0.0,15.0,6.0,0.0
3252,59.0,0.0,15.0,7.0,0.0
3253,47.0,11.0,15.0,8.0,0.0
3254,57.0,15.0,15.0,7.0,0.0
3255,45.0,0.0,15.0,8.0,0.0
3256,69.0,0.0,15.0,6.0,0.0
3257,68.0,0.0,60.0,2.0,0.0
3258,59.0,0.0,60.0,2.0,0.0
3259,80.0,0.0,60.0,1.0,0.0
3260,71.0,0.0,60.0,1.0,0.0
3261,68.0,0.0,60.0,5.0,0.0
3262,88.0,0.0,60.0,0.0,0.0
3263,68.0,15.0,15.0,6.0,0.0
3264,71.0,0.0,60.0,4.0,0.0
3265,52.0,4.0,60.0,3.0,0.0
3266,76.0,0.0,60.0,4.0,0.0
3267,83.0,0.0,60.0,4.0,0.0
3268,83.0,30.0,60.0,5.0,0.0
3269,76.0,0.0,60.0,5.0,0.0
3270,64.0,0.0,60.0,3.0,0.0
3271,56.0,0.0,15.0,7.0,0.0
3272,44.0,0.0,15.0,8.0,0.0
3273,54.0,15.0,15.0,7.0,0.0
3274,42.0,0.0,15.0,8.0,0.0
3275,66.0,0.0,15.0,6.0,0.0
3276,64.0,0.0,15.0,6.0,0.0
3277,40.0,0.0,15.0,8.0,0.0
3278,52.0,11.0,15.0,7.0,0.0
3279,51.0,0.0,15.0,7.0,0.0
3280,63.0,0.0,15.0,6.0,0.0
3281,39.0,0.0,15.0,8.0,0.0
3282,80.0,0.0,120.0,4.0,0.0
3283,88.0,0.0,120.0,4.0,0.0
3284,88.0,0.0,60.0,0.0,0.0
3285,64.0,15.0,30.0,6.0,0.0
3286,71.0,0.0,120.0,4.0,0.0
3287,40.0,0.0,30.0,8.0,0.0
3288,52.0,0.0,30.0,7.0,0.0
3289,80.0,0.0,60.0,1.0,0.0
3290,52.0,0.0,60.0,2.0,0.0
3291,80.0,0.0,120.0,5.0,0.0
3292,71.0,0.0,120.0,5.0,0.0
3293,88.0,0.0,120.0,5.0,0.0
3294,71.0,8.0,60.0,1.0,0.0
3295,52.0,0.0,60.0,3.0,0.0
3296,64.0,0.0,60.0,3.0,0.0
3297,42.0,0.0,15.0,8.0,0.0
3298,66.0,0.0,15.0,6.0,0.0
3299,54.0,7.0,15.0,7.0,0.0
3300,44.0,0.0,15.0,8.0,0.0
3301,68.0,0.0,15.0,6.0,0.0
3302,56.0,15.0,15.0,7.0,0.0
3303,57.0,15.0,15.0,7.0,0.0
3304,80.0,0.0,40.0,1.0,0.0
3305,69.0,0.0,15.0,6.0,0.0
3306,45.0,0.0,15.0,8.0,0.0
3307,52.0,0.0,40.0,3.0,0.0
3308,64.0,0.0,40.0,3.0,0.0
3309,88.0,0.0,40.0,0.0,0.0
3310,59.0,0.0,40.0,2.0,0.0
3311,59.0,0.0,15.0,7.0,0.0
3312,71.0,15.0,15.0,6.0,0.0
3313,47.0,0.0,15.0,8.0,0.0
3314,73.0,0.0,15.0,6.0,0.0
3315,49.0,15.0,15.0,8.0,0.0
3316,61.0,0.0,15.0,7.0,0.0
3317,63.0,0.0,15.0,7.0,0.0
3318,71.0,0.0,15.0,1.0,0.0
3319,68.0,0.0,15.0,2.0,0.0
3320,88.0,0.0,15.0,0.0,0.0
3321,75.0,0.0,15.0,6.0,0.0
3322,51.0,0.0,15.0,8.0,0.0
3323,52.0,15.0,15.0,8.0,0.0
3324,88.0,0.0,60.0,0.0,0.0
3325,64.0,0.0,15.0,3.0,0.0
3326,71.0,0.0,15.0,1.0,0.0
3327,52.0,0.0,15.0,3.0,0.0
3328,68.0,0.0,15.0,2.0,0.0
3329,59.0,0.0,15.0,2.0,0.0
3330,80.0,15.0,15.0,1.0,0.0
3331,76.0,0.0,15.0,6.0,0.0
3332,64.0,0.0,15.0,7.0,0.0
3333,80.0,0.0,15.0,6.0,0.0
3334,56.0,0.0,15.0,8.0,0.0
3335,68.0,15.0,15.0,7.0,0.0
3336,78.0,0.0,15.0,6.0,0.0
3337,54.0,11.0,15.0,8.0,0.0
3338,66.0,0.0,15.0,7.0,0.0
3339,76.0,0.0,15.0,6.0,0.0
3340,52.0,15.0,15.0,8.0,0.0
3341,64.0,0.0,15.0,7.0,0.0
3342,52.0,0.0,60.0,3.0,0.0
3343,75.0,0.0,15.0,6.0,0.0
3344,64.0,0.0,60.0,3.0,0.0
3345,68.0,4.0,60.0,2.0,0.0
3346,68.0,0.0,60.0,4.0,0.0
3347,76.0,0.0,60.0,4.0,0.0
3348,59.0,0.0,60.0,5.0,0.0
3349,59.0,0.0,60.0,2.0,0.0
3350,68.0,0.0,60.0,5.0,0.0
3351,59.0,0.0,60.0,4.0,0.0
3352,51.0,0.0,15.0,8.0,0.0
3353,71.0,0.0,60.0,1.0,0.0
3354,80.0,0.0,60.0,1.0,0.0
3355,63.0,15.0,15.0,7.0,0.0
3356,88.0,0.0,60.0,0.0,0.0
3357,76.0,0.0,60.0,5.0,0.0
3358,49.0,0.0,15.0,8.0,0.0
3359,73.0,0.0,15.0,6.0,0.0
3360,61.0,15.0,15.0,7.0,0.0
3361,47.0,0.0,15.0,8.0,0.0
3362,71.0,11.0,15.0,6.0,0.0
3363,59.0,0.0,15.0,7.0,0.0
3364,70.0,0.0,15.0,6.0,0.0
3365,46.0,0.0,15.0,8.0,0.0
3366,58.0,15.0,15.0,7.0,0.0
3367,64.0,0.0,60.0,4.0,0.0
3368,71.0,0.0,60.0,4.0,0.0
3369,52.0,0.0,60.0,3.0,0.0
3370,64.0,0.0,60.0,3.0,0.0
3371,80.0,15.0,60.0,4.0,0.0
3372,71.0,15.0,15.0,6.0,0.0
3373,80.0,0.0,60.0,1.0,0.0
3374,71.0,0.0,60.0,1.0,0.0
3375,88.0,4.0,60.0,0.0,0.0
3376,64.0,0.0,60.0,5.0,0.0
3377,59.0,0.0,60.0,2.0,0.0
3378,68.0,0.0,60.0,2.0,0.0
3379,71.0,0.0,60.0,5.0,0.0
3380,80.0,0.0,60.0,5.0,0.0
3381,47.0,0.0,15.0,8.0,0.0
3382,59.0,0.0,15.0,7.0,0.0
3383,49.0,0.0,15.0,8.0,0.0
3384,73.0,0.0,15.0,6.0,0.0
3385,61.0,15.0,15.0,7.0,0.0
3386,59.0,0.0,15.0,7.0,0.0
3387,71.0,11.0,15.0,6.0,0.0
3388,47.0,0.0,15.0,8.0,0.0
3389,57.0,0.0,15.0,7.0,0.0
3390,45.0,0.0,15.0,8.0,0.0
3391,69.0,0.0,15.0,6.0,0.0
3392,44.0,0.0,15.0,8.0,0.0
3393,88.0,0.0,60.0,0.0,0.0
3394,68.0,0.0,60.0,5.0,0.0
3395,76.0,0.0,60.0,5.0,0.0
3396,68.0,0.0,60.0,4.0,0.0
3397,64.0,0.0,60.0,3.0,0.0
3398,59.0,0.0,60.0,2.0,0.0
3399,68.0,0.0,60.0,2.0,0.0
3400,68.0,0.0,15.0,6.0,0.0
3401,56.0,15.0,15.0,7.0,0.0
3402,52.0,4.0,60.0,3.0,0.0
3403,71.0,0.0,60.0,1.0,0.0
3404,83.0,20.0,60.0,4.0,0.0
3405,76.0,0.0,60.0,4.0,0.0
3406,83.0,0.0,60.0,5.0,0.0
3407,80.0,0.0,60.0,1.0,0.0
3408,42.0,0.0,15.0,8.0,0.0
3409,54.0,15.0,15.0,7.0,0.0
3410,66.0,0.0,15.0,6.0,0.0
3411,64.0,0.0,15.0,6.0,0.0
3412,52.0,11.0,15.0,7.0,0.0
3413,40.0,0.0,15.0,8.0,0.0
3414,63.0,0.0,15.0,6.0,0.0
3415,51.0,0.0,15.0,7.0,0.0
3416,39.0,0.0,15.0,8.0,0.0
3417,71.0,0.0,60.0,1.0,0.0
3418,71.0,0.0,60.0,4.0,0.0
3419,88.0,0.0,180.0,0.0,0.0
3420,68.0,0.0,60.0,2.0,0.0
3421,59.0,0.0,60.0,2.0,0.0
3422,80.0,20.0,60.0,1.0,0.0
3423,80.0,0.0,60.0,4.0,0.0
3424,40.0,0.0,60.0,8.0,0.0
3425,88.0,10.0,90.0,4.0,0.0
3426,64.0,0.0,20.0,6.0,0.0
3427,52.0,0.0,60.0,7.0,0.0
3428,71.0,20.0,15.0,5.0,0.0
3429,71.0,0.0,20.0,5.0,0.0
3430,68.0,20.0,15.0,6.0,0.0
3431,71.0,10.0,20.0,5.0,0.0
3432,64.0,0.0,60.0,7.0,0.0
3433,68.0,0.0,20.0,6.0,0.0
3434,52.0,0.0,60.0,8.0,0.0
3435,64.0,18.0,120.0,2.0,0.0
3436,71.0,20.0,20.0,5.0,0.0
3437,83.0,0.0,30.0,4.0,0.0
3438,68.0,0.0,15.0,6.0,0.0
3439,80.0,0.0,120.0,1.0,0.0
3440,83.0,0.0,120.0,1.0,0.0
3441,80.0,10.0,30.0,4.0,0.0
3442,71.0,20.0,15.0,5.0,0.0
3443,71.0,0.0,15.0,5.0,0.0
3444,68.0,10.0,15.0,6.0,0.0
3445,76.0,11.0,60.0,4.0,0.0
3446,68.0,20.0,15.0,6.0,0.0
3447,64.0,2.0,15.0,7.0,0.0
3448,71.0,0.0,15.0,5.0,0.0
3449,52.0,0.0,15.0,8.0,0.0
3450,89.0,0.0,60.0,0.0,0.0
3451,65.0,20.0,60.0,2.0,0.0
3452,68.0,9.0,20.0,6.0,0.0
3453,68.0,0.0,20.0,6.0,0.0
3454,77.0,11.0,60.0,4.0,0.0
3455,71.0,20.0,15.0,5.0,0.0
3456,68.0,0.0,20.0,6.0,0.0
3457,64.0,4.0,60.0,2.0,0.0
3458,52.0,0.0,15.0,8.0,0.0
3459,81.0,0.0,120.0,1.0,0.0
3460,84.0,0.0,120.0,1.0,0.0
3461,88.0,0.0,60.0,0.0,0.0
3462,64.0,0.0,60.0,7.0,0.0
3463,69.0,9.0,20.0,6.0,0.0
3464,72.0,0.0,15.0,5.0,0.0
3465,69.0,16.0,20.0,6.0,0.0
3466,76.0,11.0,60.0,4.0,0.0
3467,72.0,0.0,15.0,5.0,0.0
3468,69.0,0.0,20.0,6.0,0.0
3469,63.0,2.0,60.0,2.0,0.0
3470,52.0,0.0,15.0,8.0,0.0
3471,87.0,0.0,60.0,0.0,0.0
3472,64.0,0.0,60.0,7.0,0.0
3473,69.0,0.0,20.0,6.0,0.0
3474,72.0,20.0,15.0,5.0,0.0
3475,69.0,0.0,20.0,6.0,0.0
3476,72.0,17.0,20.0,5.0,0.0
3477,75.0,1.0,30.0,4.0,0.0
3478,72.0,0.0,20.0,5.0,0.0
3479,69.0,20.0,20.0,6.0,0.0
3480,64.0,0.0,15.0,3.0,0.0
3481,52.0,0.0,15.0,3.0,0.0
3482,88.0,10.0,90.0,4.0,0.0
3483,64.0,0.0,180.0,2.0,0.0
3484,40.0,0.0,60.0,8.0,0.0
3485,80.0,0.0,60.0,1.0,0.0
3486,83.0,0.0,60.0,1.0,0.0
3487,88.0,0.0,180.0,0.0,0.0
3488,52.0,0.0,60.0,7.0,0.0
3489,68.0,20.0,15.0,6.0,0.0
3490,71.0,0.0,15.0,5.0,0.0
3491,68.0,20.0,15.0,6.0,0.0
3492,71.0,0.0,15.0,5.0,0.0
3493,71.0,0.0,15.0,5.0,0.0
3494,68.0,20.0,15.0,6.0,0.0
3495,64.0,0.0,60.0,7.0,0.0
3496,68.0,0.0,20.0,6.0,0.0
3497,83.0,20.0,30.0,4.0,0.0
3498,68.0,0.0,20.0,6.0,0.0
3499,71.0,20.0,15.0,5.0,0.0
3500,52.0,0.0,15.0,8.0,0.0
3501,80.0,10.0,30.0,4.0,0.0
3502,80.0,0.0,120.0,1.0,0.0
3503,83.0,0.0,120.0,1.0,0.0
3504,71.0,0.0,15.0,5.0,0.0
3505,68.0,0.0,15.0,6.0,0.0
3506,71.0,10.0,15.0,5.0,0.0
3507,76.0,11.0,60.0,4.0,0.0
3508,68.0,20.0,15.0,6.0,0.0
3509,71.0,0.0,15.0,5.0,0.0
3510,71.0,0.0,15.0,5.0,0.0
3511,64.0,20.0,15.0,7.0,0.0
3512,65.0,0.0,60.0,2.0,0.0
3513,89.0,0.0,60.0,0.0,0.0
3514,52.0,0.0,15.0,8.0,0.0
3515,68.0,0.0,15.0,6.0,0.0
3516,68.0,0.0,20.0,6.0,0.0
3517,77.0,11.0,60.0,4.0,0.0
3518,71.0,20.0,15.0,5.0,0.0
3519,68.0,0.0,20.0,6.0,0.0
3520,84.0,0.0,120.0,1.0,0.0
3521,81.0,0.0,120.0,1.0,0.0
3522,64.0,0.0,60.0,2.0,0.0
3523,52.0,0.0,60.0,8.0,0.0
3524,72.0,0.0,20.0,5.0,0.0
3525,88.0,0.0,60.0,0.0,0.0
3526,64.0,0.0,15.0,7.0,0.0
3527,72.0,20.0,20.0,5.0,0.0
3528,69.0,9.0,15.0,6.0,0.0
3529,76.0,11.0,60.0,4.0,0.0
3530,72.0,0.0,20.0,5.0,0.0
3531,63.0,0.0,60.0,2.0,0.0
3532,87.0,0.0,60.0,0.0,0.0
3533,69.0,20.0,15.0,6.0,0.0
3534,64.0,0.0,15.0,7.0,0.0
3535,72.0,0.0,20.0,5.0,0.0
3536,69.0,9.0,15.0,6.0,0.0
3537,72.0,0.0,20.0,5.0,0.0
3538,75.0,0.0,30.0,4.0,0.0
3539,69.0,20.0,15.0,6.0,0.0
3540,72.0,0.0,20.0,5.0,0.0
3541,88.0,0.0,150.0,0.0,0.0
3542,52.0,0.0,15.0,8.0,0.0
3543,71.0,0.0,90.0,5.0,0.0
3544,64.0,30.0,60.0,7.0,0.0
3545,76.0,20.0,150.0,4.0,0.0
3546,80.0,0.0,60.0,1.0,0.0
3547,83.0,0.0,60.0,1.0,0.0
3548,64.0,0.0,150.0,2.0,0.0
3549,68.0,30.0,90.0,6.0,0.0
3550,64.0,20.0,30.0,6.0,0.0
3551,68.0,0.0,30.0,5.0,0.0
3552,40.0,0.0,60.0,8.0,0.0
3553,83.0,0.0,60.0,1.0,0.0
3554,71.0,0.0,60.0,5.0,0.0
3555,80.0,0.0,60.0,1.0,0.0
3556,52.0,0.0,60.0,7.0,0.0
3557,68.0,8.0,60.0,6.0,0.0
3558,77.0,0.0,20.0,4.0,0.0
3559,89.0,0.0,20.0,0.0,0.0
3560,65.0,12.0,20.0,2.0,0.0
3561,66.0,0.0,20.0,2.0,0.0
3562,90.0,16.0,20.0,0.0,0.0
3563,78.0,0.0,20.0,4.0,0.0
3564,88.0,1.0,15.0,0.0,0.0
3565,76.0,0.0,15.0,4.0,0.0
3566,64.0,19.0,15.0,2.0,0.0
3567,74.0,19.0,15.0,4.0,0.0
3568,86.0,1.0,15.0,0.0,0.0
3569,62.0,0.0,15.0,2.0,0.0
3570,73.0,18.0,15.0,4.0,0.0
3571,85.0,1.0,15.0,0.0,0.0
3572,61.0,0.0,15.0,2.0,0.0
3573,59.0,1.0,15.0,2.0,0.0
3574,83.0,1.0,15.0,0.0,0.0
3575,71.0,18.0,15.0,4.0,0.0
3576,57.0,1.0,15.0,2.0,0.0
3577,69.0,19.0,15.0,4.0,0.0
3578,81.0,1.0,15.0,0.0,0.0
3579,56.0,0.0,15.0,2.0,0.0
3580,80.0,1.0,15.0,0.0,0.0
3581,68.0,23.0,15.0,4.0,0.0
3582,76.0,0.0,20.0,4.0,0.0
3583,64.0,20.0,20.0,2.0,0.0
3584,88.0,0.0,20.0,0.0,0.0
3585,74.0,0.0,20.0,4.0,0.0
3586,62.0,20.0,20.0,2.0,0.0
3587,86.0,0.0,20.0,0.0,0.0
3588,83.0,0.0,20.0,0.0,0.0
3589,71.0,20.0,20.0,4.0,0.0
3590,59.0,0.0,20.0,2.0,0.0
3591,81.0,0.0,120.0,0.0,0.0
3592,64.0,0.0,540.0,3.0,0.0
3593,69.0,0.0,120.0,4.0,0.0
3594,61.0,0.0,120.0,7.0,0.0
3595,52.0,0.0,120.0,2.0,0.0
3596,57.0,0.0,120.0,2.0,0.0
3597,76.0,0.0,120.0,1.0,0.0
3598,61.0,0.0,120.0,6.0,0.0
3599,52.0,0.0,540.0,3.0,0.0
3600,49.0,0.0,120.0,8.0,0.0
3601,61.0,20.0,20.0,5.0,0.0
3602,64.0,20.0,20.0,5.0,0.0
3603,69.0,20.0,20.0,5.0,0.0
3604,73.0,20.0,20.0,5.0,0.0
3605,69.0,20.0,20.0,5.0,0.0
3606,64.0,20.0,20.0,5.0,0.0
3607,59.0,0.0,120.0,6.0,0.0
3608,83.0,20.0,120.0,0.0,0.0
3609,59.0,0.0,120.0,7.0,0.0
3610,80.0,0.0,120.0,1.0,0.0
3611,47.0,0.0,120.0,8.0,0.0
3612,71.0,0.0,120.0,4.0,0.0
3613,56.0,0.0,120.0,2.0,0.0
3614,59.0,0.0,120.0,2.0,0.0
3615,62.0,20.0,20.0,5.0,0.0
3616,64.0,20.0,20.0,5.0,0.0
3617,68.0,20.0,20.0,5.0,0.0
3618,71.0,20.0,20.0,5.0,0.0
3619,68.0,20.0,20.0,5.0,0.0
3620,64.0,0.0,20.0,5.0,0.0
3621,57.0,0.0,120.0,2.0,0.0
3622,61.0,0.0,120.0,2.0,0.0
3623,45.0,0.0,120.0,8.0,0.0
3624,57.0,0.0,120.0,7.0,0.0
3625,57.0,0.0,120.0,6.0,0.0
3626,61.0,20.0,20.0,5.0,0.0
3627,73.0,0.0,120.0,4.0,0.0
3628,81.0,20.0,120.0,1.0,0.0
3629,85.0,0.0,120.0,0.0,0.0
3630,64.0,20.0,20.0,5.0,0.0
3631,69.0,20.0,20.0,5.0,0.0
3632,73.0,20.0,20.0,5.0,0.0
3633,69.0,20.0,20.0,5.0,0.0
3634,64.0,0.0,20.0,5.0,0.0
3635,62.0,0.0,120.0,2.0,0.0
3636,59.0,20.0,120.0,2.0,0.0
3637,59.0,20.0,20.0,5.0,0.0
3638,74.0,5.0,60.0,4.0,0.0
3639,83.0,0.0,120.0,1.0,0.0
3640,56.0,0.0,120.0,7.0,0.0
3641,56.0,0.0,120.0,6.0,0.0
3642,86.0,0.0,120.0,0.0,0.0
3643,44.0,0.0,120.0,8.0,0.0
3644,64.0,20.0,20.0,5.0,0.0
3645,68.0,15.0,20.0,5.0,0.0
3646,71.0,10.0,20.0,5.0,0.0
3647,76.0,10.0,15.0,4.0,0.0
3648,68.0,5.0,20.0,5.0,0.0
3649,73.0,15.0,15.0,4.0,0.0
3650,64.0,0.0,20.0,5.0,0.0
3651,74.0,0.0,15.0,4.0,0.0
3652,83.0,0.0,60.0,0.0,0.0
3653,71.0,20.0,60.0,4.0,0.0
3654,59.0,20.0,20.0,5.0,0.0
3655,80.0,0.0,60.0,1.0,0.0
3656,59.0,0.0,60.0,2.0,0.0
3657,56.0,0.0,60.0,2.0,0.0
3658,64.0,20.0,20.0,5.0,0.0
3659,68.0,0.0,20.0,5.0,0.0
3660,52.0,0.0,60.0,3.0,0.0
3661,71.0,20.0,20.0,5.0,0.0
3662,64.0,0.0,60.0,3.0,0.0
3663,88.0,0.0,60.0,1.0,0.0
3664,76.0,2.0,60.0,1.0,0.0
3665,68.0,18.0,20.0,5.0,0.0
3666,64.0,20.0,20.0,5.0,0.0
3667,76.0,0.0,60.0,1.0,0.0
3668,59.0,20.0,20.0,5.0,0.0
3669,88.0,0.0,60.0,1.0,0.0
3670,52.0,0.0,60.0,3.0,0.0
3671,64.0,2.0,60.0,3.0,0.0
3672,64.0,18.0,20.0,5.0,0.0
3673,68.0,20.0,20.0,5.0,0.0
3674,52.0,0.0,60.0,3.0,0.0
3675,64.0,0.0,60.0,3.0,0.0
3676,76.0,0.0,60.0,1.0,0.0
3677,71.0,20.0,20.0,5.0,0.0
3678,88.0,2.0,60.0,1.0,0.0
3679,68.0,18.0,20.0,5.0,0.0
3680,64.0,20.0,20.0,5.0,0.0
3681,50.0,0.0,120.0,8.0,0.0
3682,80.0,0.0,120.0,1.0,0.0
3683,59.0,0.0,120.0,2.0,0.0
3684,83.0,0.0,120.0,0.0,0.0
3685,59.0,20.0,20.0,5.0,0.0
3686,71.0,0.0,90.0,4.0,0.0
3687,56.0,0.0,120.0,2.0,0.0
3688,64.0,0.0,360.0,3.0,0.0
3689,62.0,0.0,120.0,6.0,0.0
3690,62.0,0.0,120.0,7.0,0.0
3691,52.0,0.0,360.0,3.0,0.0
3692,62.0,20.0,20.0,5.0,0.0
3693,64.0,20.0,20.0,5.0,0.0
3694,68.0,18.0,20.0,5.0,0.0
3695,64.0,2.0,20.0,5.0,0.0
3696,68.0,20.0,20.0,4.0,0.0
3697,64.0,0.0,20.0,4.0,0.0
3698,59.0,20.0,20.0,5.0,0.0
3699,73.0,20.0,90.0,4.0,0.0
3700,81.0,0.0,120.0,1.0,0.0
3701,61.0,0.0,120.0,2.0,0.0
3702,61.0,0.0,120.0,6.0,0.0
3703,85.0,0.0,120.0,0.0,0.0
3704,49.0,0.0,120.0,8.0,0.0
3705,57.0,20.0,120.0,2.0,0.0
3706,61.0,0.0,120.0,7.0,0.0
3707,61.0,18.0,20.0,5.0,0.0
3708,64.0,22.0,20.0,5.0,0.0
3709,68.0,20.0,20.0,5.0,0.0
3710,69.0,0.0,20.0,5.0,0.0
3711,64.0,0.0,20.0,5.0,0.0
3712,69.0,20.0,20.0,4.0,0.0
3713,61.0,0.0,20.0,5.0,0.0
3714,64.0,0.0,20.0,4.0,0.0
3715,59.0,0.0,120.0,6.0,0.0
3716,59.0,0.0,120.0,2.0,0.0
3717,62.0,0.0,120.0,2.0,0.0
3718,47.0,0.0,120.0,8.0,0.0
3719,59.0,0.0,120.0,7.0,0.0
3720,74.0,0.0,90.0,4.0,0.0
3721,62.0,20.0,20.0,5.0,0.0
3722,83.0,0.0,120.0,1.0,0.0
3723,86.0,20.0,120.0,0.0,0.0
3724,64.0,20.0,20.0,5.0,0.0
3725,68.0,20.0,20.0,5.0,0.0
3726,71.0,20.0,20.0,5.0,0.0
3727,71.0,0.0,20.0,4.0,0.0
3728,68.0,20.0,20.0,5.0,0.0
3729,68.0,0.0,20.0,4.0,0.0
3730,62.0,0.0,20.0,5.0,0.0
3731,76.0,5.0,60.0,4.0,0.0
3732,85.0,20.0,120.0,1.0,0.0
3733,57.0,0.0,120.0,7.0,0.0
3734,64.0,0.0,120.0,2.0,0.0
3735,61.0,0.0,120.0,2.0,0.0
3736,45.0,0.0,120.0,8.0,0.0
3737,57.0,0.0,120.0,6.0,0.0
3738,61.0,20.0,20.0,5.0,0.0
3739,88.0,0.0,120.0,0.0,0.0
3740,57.0,0.0,180.0,3.0,0.0
3741,64.0,20.0,20.0,5.0,0.0
3742,69.0,15.0,20.0,5.0,0.0
3743,73.0,10.0,20.0,5.0,0.0
3744,78.0,10.0,15.0,4.0,0.0
3745,69.0,5.0,20.0,5.0,0.0
3746,74.0,15.0,15.0,4.0,0.0
3747,64.0,0.0,20.0,5.0,0.0
3748,76.0,0.0,15.0,4.0,0.0
3749,57.0,0.0,60.0,2.0,0.0
3750,61.0,20.0,20.0,5.0,0.0
3751,85.0,0.0,60.0,0.0,0.0
3752,61.0,0.0,60.0,2.0,0.0
3753,73.0,20.0,60.0,4.0,0.0
3754,81.0,0.0,60.0,1.0,0.0
3755,64.0,20.0,20.0,5.0,0.0
3756,69.0,0.0,20.0,5.0,0.0
3757,93.0,0.0,60.0,0.0,0.0
3758,73.0,20.0,20.0,5.0,0.0
3759,85.0,0.0,60.0,1.0,0.0
3760,57.0,2.0,60.0,3.0,0.0
3761,69.0,0.0,15.0,3.0,0.0
3762,76.0,0.0,60.0,1.0,0.0
3763,69.0,18.0,20.0,5.0,0.0
3764,64.0,20.0,20.0,5.0,0.0
3765,61.0,20.0,20.0,5.0,0.0
3766,85.0,0.0,60.0,1.0,0.0
3767,76.0,0.0,60.0,1.0,0.0
3768,69.0,0.0,60.0,3.0,0.0
3769,93.0,2.0,60.0,0.0,0.0
3770,57.0,0.0,60.0,3.0,0.0
3771,64.0,18.0,20.0,5.0,0.0
3772,69.0,20.0,20.0,5.0,0.0
3773,57.0,0.0,60.0,3.0,0.0
3774,73.0,20.0,20.0,5.0,0.0
3775,93.0,0.0,60.0,0.0,0.0
3776,69.0,0.0,60.0,3.0,0.0
3777,85.0,2.0,60.0,1.0,0.0
3778,76.0,0.0,60.0,1.0,0.0
3779,69.0,18.0,20.0,5.0,0.0
3780,64.0,20.0,20.0,5.0,0.0
3781,54.0,17.0,60.0,7.0,0.0
3782,58.0,0.0,120.0,2.0,0.0
3783,64.0,0.0,120.0,2.0,0.0
3784,61.0,20.0,120.0,6.0,0.0
3785,61.0,20.0,20.0,5.0,0.0
3786,42.0,0.0,60.0,8.0,0.0
3787,64.0,0.0,20.0,5.0,0.0
3788,79.0,20.0,20.0,4.0,0.0
3789,66.0,0.0,20.0,5.0,0.0
3790,78.0,0.0,15.0,4.0,0.0
3791,70.0,17.0,20.0,5.0,0.0
3792,78.0,3.0,15.0,4.0,0.0
3793,66.0,17.0,20.0,5.0,0.0
3794,78.0,3.0,15.0,4.0,0.0
3795,64.0,0.0,20.0,5.0,0.0
3796,78.0,0.0,60.0,4.0,0.0
3797,47.0,0.0,60.0,8.0,0.0
3798,59.0,0.0,60.0,7.0,0.0
3799,59.0,0.0,240.0,6.0,0.0
3800,57.0,0.0,120.0,2.0,0.0
3801,63.0,20.0,20.0,5.0,0.0
3802,63.0,20.0,120.0,2.0,0.0
3803,66.0,20.0,20.0,5.0,0.0
3804,69.0,20.0,20.0,5.0,0.0
3805,83.0,0.0,60.0,4.0,0.0
3806,71.0,20.0,20.0,5.0,0.0
3807,69.0,20.0,20.0,5.0,0.0
3808,66.0,0.0,20.0,5.0,0.0
3809,62.0,20.0,20.0,5.0,0.0
3810,52.0,17.0,60.0,7.0,0.0
3811,40.0,0.0,60.0,8.0,0.0
3812,56.0,0.0,120.0,2.0,0.0
3813,62.0,20.0,120.0,2.0,0.0
3814,77.0,20.0,20.0,4.0,0.0
3815,64.0,0.0,20.0,5.0,0.0
3816,68.0,0.0,20.0,5.0,0.0
3817,76.0,0.0,20.0,4.0,0.0
3818,76.0,3.0,15.0,4.0,0.0
3819,71.0,17.0,20.0,5.0,0.0
3820,76.0,3.0,15.0,4.0,0.0
3821,68.0,17.0,20.0,5.0,0.0
3822,76.0,3.0,15.0,4.0,0.0
3823,64.0,0.0,20.0,5.0,0.0
3824,55.0,0.0,120.0,2.0,0.0
3825,61.0,0.0,120.0,2.0,0.0
3826,57.0,0.0,180.0,6.0,0.0
3827,61.0,20.0,20.0,5.0,0.0
3828,57.0,0.0,60.0,7.0,0.0
3829,45.0,20.0,60.0,8.0,0.0
3830,76.0,0.0,60.0,4.0,0.0
3831,64.0,20.0,20.0,5.0,0.0
3832,67.0,0.0,20.0,5.0,0.0
3833,69.0,20.0,20.0,5.0,0.0
3834,81.0,0.0,60.0,4.0,0.0
3835,67.0,20.0,20.0,5.0,0.0
3836,64.0,20.0,20.0,5.0,0.0
3837,59.0,0.0,60.0,2.0,0.0
3838,38.0,0.0,120.0,8.0,0.0
3839,62.0,20.0,20.0,5.0,0.0
3840,50.0,0.0,120.0,7.0,0.0
3841,66.0,0.0,20.0,5.0,0.0
3842,76.0,20.0,20.0,4.0,0.0
3843,69.0,0.0,20.0,5.0,0.0
3844,74.0,17.0,20.0,4.0,0.0
3845,66.0,0.0,60.0,2.0,0.0
3846,71.0,17.0,20.0,5.0,0.0
3847,54.0,20.0,60.0,6.0,0.0
3848,62.0,20.0,120.0,2.0,0.0
3849,74.0,3.0,15.0,4.0,0.0
3850,66.0,17.0,20.0,5.0,0.0
3851,74.0,3.0,15.0,4.0,0.0
3852,74.0,3.0,15.0,4.0,0.0
3853,71.0,0.0,20.0,5.0,0.0
3854,52.0,0.0,60.0,7.0,0.0
3855,68.0,0.0,20.0,5.0,0.0
3856,68.0,0.0,60.0,2.0,0.0
3857,40.0,0.0,60.0,8.0,0.0
3858,59.0,0.0,60.0,6.0,0.0
3859,74.0,20.0,20.0,4.0,0.0
3860,76.0,0.0,20.0,4.0,0.0
3861,66.0,20.0,20.0,5.0,0.0
3862,68.0,0.0,20.0,5.0,0.0
3863,74.0,0.0,20.0,4.0,0.0
3864,42.0,18.0,60.0,8.0,0.0
3865,69.0,20.0,20.0,5.0,0.0
3866,57.0,0.0,60.0,6.0,0.0
3867,61.0,0.0,60.0,2.0,0.0
3868,69.0,0.0,60.0,2.0,0.0
3869,54.0,0.0,60.0,7.0,0.0
3870,73.0,0.0,20.0,4.0,0.0
3871,68.0,0.0,20.0,5.0,0.0
3872,74.0,18.0,20.0,4.0,0.0
3873,69.0,0.0,20.0,5.0,0.0
3874,73.0,2.0,20.0,4.0,0.0
3875,66.0,0.0,120.0,6.0,0.0
3876,66.0,18.0,20.0,5.0,0.0
3877,50.0,0.0,60.0,7.0,0.0
3878,38.0,18.0,60.0,8.0,0.0
3879,70.0,2.0,20.0,4.0,0.0
3880,71.0,2.0,20.0,4.0,0.0
3881,62.0,18.0,20.0,5.0,0.0
3882,74.0,2.0,20.0,4.0,0.0
3883,59.0,0.0,20.0,5.0,0.0
3884,62.0,18.0,20.0,5.0,0.0
3885,78.0,2.0,20.0,4.0,0.0
3886,66.0,18.0,20.0,5.0,0.0
3887,74.0,2.0,20.0,4.0,0.0
3888,62.0,20.0,20.0,5.0,0.0
3889,71.0,2.0,20.0,4.0,0.0
3890,64.0,15.0,240.0,6.0,0.0
3891,73.0,0.0,120.0,3.0,0.0
3892,69.0,0.0,120.0,3.0,0.0
3893,52.0,0.0,60.0,7.0,0.0
3894,69.0,19.0,120.0,4.0,0.0
3895,40.0,20.0,60.0,8.0,0.0
3896,85.0,1.0,120.0,0.0,0.0
3897,81.0,0.0,120.0,1.0,0.0
3898,61.0,20.0,20.0,5.0,0.0
3899,64.0,20.0,20.0,5.0,0.0
3900,69.0,0.0,20.0,5.0,0.0
3901,73.0,20.0,20.0,5.0,0.0
3902,69.0,20.0,20.0,5.0,0.0
3903,64.0,0.0,20.0,5.0,0.0
3904,64.0,0.0,120.0,3.0,0.0
3905,62.0,20.0,20.0,5.0,0.0
3906,68.0,0.0,20.0,4.0,0.0
3907,71.0,0.0,120.0,3.0,0.0
3908,80.0,0.0,120.0,1.0,0.0
3909,52.0,0.0,60.0,8.0,0.0
3910,83.0,0.0,120.0,0.0,0.0
3911,64.0,17.0,60.0,7.0,0.0
3912,90.0,20.0,20.0,4.0,0.0
3913,64.0,0.0,20.0,5.0,0.0
3914,68.0,0.0,20.0,5.0,0.0
3915,88.0,0.0,15.0,4.0,0.0
3916,71.0,17.0,20.0,5.0,0.0
3917,88.0,3.0,15.0,4.0,0.0
3918,68.0,17.0,20.0,5.0,0.0
3919,64.0,0.0,20.0,5.0,0.0
3920,88.0,3.0,15.0,4.0,0.0
3921,88.0,5.0,15.0,4.0,0.0
3922,54.0,0.0,60.0,8.0,0.0
3923,88.0,0.0,120.0,0.0,0.0
3924,82.0,0.0,120.0,1.0,0.0
3925,61.0,20.0,20.0,5.0,0.0
3926,61.0,0.0,120.0,6.0,0.0
3927,66.0,0.0,60.0,7.0,0.0
3928,91.0,20.0,20.0,4.0,0.0
3929,64.0,0.0,20.0,5.0,0.0
3930,66.0,17.0,20.0,5.0,0.0
3931,90.0,0.0,20.0,4.0,0.0
3932,70.0,17.0,20.0,5.0,0.0
3933,58.0,20.0,60.0,2.0,0.0
3934,90.0,3.0,15.0,4.0,0.0
3935,64.0,0.0,60.0,2.0,0.0
3936,90.0,3.0,15.0,4.0,0.0
3937,66.0,17.0,20.0,5.0,0.0
3938,64.0,0.0,20.0,5.0,0.0
3939,90.0,3.0,15.0,4.0,0.0
3940,59.0,0.0,60.0,7.0,0.0
3941,63.0,20.0,20.0,5.0,0.0
3942,47.0,0.0,60.0,8.0,0.0
3943,59.0,0.0,240.0,6.0,0.0
3944,90.0,0.0,60.0,4.0,0.0
3945,81.0,20.0,120.0,1.0,0.0
3946,87.0,0.0,120.0,0.0,0.0
3947,84.0,0.0,20.0,1.0,0.0
3948,66.0,20.0,20.0,5.0,0.0
3949,69.0,16.0,20.0,5.0,0.0
3950,83.0,0.0,20.0,1.0,0.0
3951,83.0,4.0,15.0,1.0,0.0
3952,63.0,0.0,60.0,2.0,0.0
3953,71.0,16.0,20.0,5.0,0.0
3954,57.0,0.0,60.0,2.0,0.0
3955,83.0,0.0,60.0,4.0,0.0
3956,83.0,4.0,15.0,1.0,0.0
3957,69.0,16.0,20.0,5.0,0.0
3958,83.0,4.0,15.0,1.0,0.0
3959,66.0,0.0,20.0,5.0,0.0
3960,62.0,20.0,20.0,5.0,0.0
3961,64.0,0.0,60.0,7.0,0.0
3962,86.0,0.0,120.0,0.0,0.0
3963,83.0,17.0,60.0,1.0,0.0
3964,52.0,0.0,60.0,8.0,0.0
3965,80.0,0.0,120.0,1.0,0.0
3966,64.0,20.0,20.0,5.0,0.0
3967,89.0,0.0,20.0,4.0,0.0
3968,68.0,0.0,20.0,5.0,0.0
3969,56.0,0.0,60.0,2.0,0.0
3970,71.0,17.0,20.0,5.0,0.0
3971,88.0,0.0,15.0,4.0,0.0
3972,62.0,0.0,60.0,2.0,0.0
3973,88.0,20.0,60.0,1.0,0.0
3974,68.0,17.0,20.0,5.0,0.0
3975,88.0,3.0,15.0,4.0,0.0
3976,64.0,0.0,20.0,5.0,0.0
3977,88.0,3.0,15.0,4.0,0.0
3978,79.0,0.0,120.0,1.0,0.0
3979,57.0,0.0,180.0,6.0,0.0
3980,88.0,0.0,60.0,4.0,0.0
3981,61.0,20.0,20.0,5.0,0.0
3982,85.0,0.0,120.0,0.0,0.0
3983,57.0,16.0,60.0,7.0,0.0
3984,45.0,0.0,60.0,8.0,0.0
3985,64.0,20.0,20.0,5.0,0.0
3986,82.0,0.0,20.0,1.0,0.0
3987,81.0,0.0,20.0,1.0,0.0
3988,67.0,0.0,20.0,5.0,0.0
3989,81.0,20.0,60.0,4.0,0.0
3990,61.0,0.0,60.0,2.0,0.0
3991,69.0,16.0,20.0,5.0,0.0
3992,81.0,4.0,15.0,1.0,0.0
3993,55.0,0.0,60.0,2.0,0.0
3994,67.0,16.0,20.0,5.0,0.0
3995,81.0,4.0,15.0,1.0,0.0
3996,64.0,0.0,20.0,5.0,0.0
3997,81.0,4.0,15.0,1.0,0.0
3998,81.0,0.0,60.0,1.0,0.0
3999,38.0,0.0,120.0,8.0,0.0
4000,86.0,0.0,180.0,0.0,0.0
4001,66.0,20.0,20.0,5.0,0.0
4002,62.0,0.0,120.0,7.0,0.0
4003,78.0,20.0,120.0,1.0,0.0
4004,88.0,20.0,20.0,4.0,0.0
4005,69.0,0.0,20.0,5.0,0.0
4006,74.0,0.0,20.0,5.0,0.0
4007,62.0,0.0,120.0,2.0,0.0
4008,59.0,1.0,120.0,6.0,0.0
4009,86.0,17.0,15.0,4.0,0.0
4010,86.0,0.0,60.0,1.0,0.0
4011,54.0,0.0,60.0,2.0,0.0
4012,78.0,17.0,20.0,5.0,0.0
4013,86.0,3.0,15.0,4.0,0.0
4014,74.0,17.0,20.0,5.0,0.0
4015,86.0,3.0,15.0,4.0,0.0
4016,71.0,0.0,20.0,5.0,0.0
4017,68.0,20.0,20.0,5.0,0.0
4018,40.0,20.0,60.0,8.0,0.0
4019,86.0,0.0,20.0,4.0,0.0
4020,64.0,0.0,60.0,7.0,0.0
4021,80.0,0.0,60.0,1.0,0.0
4022,56.0,0.0,60.0,2.0,0.0
4023,66.0,19.0,20.0,5.0,0.0
4024,88.0,0.0,20.0,4.0,0.0
4025,86.0,0.0,20.0,4.0,0.0
4026,68.0,0.0,20.0,5.0,0.0
4027,57.0,1.0,120.0,6.0,0.0
4028,61.0,1.0,60.0,2.0,0.0
4029,81.0,1.0,120.0,1.0,0.0
4030,57.0,20.0,60.0,2.0,0.0
4031,85.0,0.0,60.0,0.0,0.0
4032,69.0,0.0,20.0,5.0,0.0
4033,42.0,0.0,60.0,8.0,0.0
4034,66.0,0.0,60.0,7.0,0.0
4035,85.0,20.0,20.0,4.0,0.0
4036,86.0,19.0,20.0,4.0,0.0
4037,68.0,0.0,20.0,5.0,0.0
4038,69.0,0.0,20.0,5.0,0.0
4039,74.0,17.0,60.0,1.0,0.0
4040,59.0,0.0,120.0,7.0,0.0
4041,85.0,0.0,15.0,4.0,0.0
4042,86.0,0.0,60.0,0.0,0.0
4043,47.0,0.0,120.0,8.0,0.0
4044,62.0,0.0,20.0,5.0,0.0
4045,59.0,0.0,120.0,2.0,0.0
4046,62.0,0.0,60.0,2.0,0.0
4047,61.0,0.0,20.0,5.0,0.0
4048,83.0,17.0,15.0,4.0,0.0
4049,62.0,0.0,20.0,5.0,0.0
4050,80.0,1.0,120.0,1.0,0.0
4051,56.0,1.0,120.0,6.0,0.0
4052,87.0,0.0,60.0,0.0,0.0
4053,63.0,17.0,20.0,5.0,0.0
4054,63.0,0.0,60.0,2.0,0.0
4055,75.0,0.0,60.0,1.0,0.0
4056,83.0,3.0,15.0,4.0,0.0
4057,83.0,3.0,15.0,4.0,0.0
4058,61.0,17.0,20.0,5.0,0.0
4059,83.0,3.0,15.0,4.0,0.0
4060,63.0,20.0,20.0,5.0,0.0
4061,61.0,2.0,60.0,2.0,0.0
4062,65.0,20.0,60.0,2.0,0.0
4063,77.0,0.0,60.0,1.0,0.0
4064,83.0,0.0,20.0,4.0,0.0
4065,61.0,0.0,60.0,7.0,0.0
4066,49.0,0.0,60.0,8.0,0.0
4067,65.0,20.0,20.0,5.0,0.0
4068,89.0,0.0,60.0,0.0,0.0
4069,85.0,0.0,20.0,4.0,0.0
4070,63.0,16.0,20.0,5.0,0.0
4071,83.0,0.0,20.0,4.0,0.0
4072,65.0,0.0,20.0,5.0,0.0
4073,54.0,2.0,120.0,6.0,0.0
4074,62.0,0.0,60.0,7.0,0.0
4075,90.0,0.0,60.0,0.0,0.0
4076,50.0,0.0,60.0,8.0,0.0
4077,81.0,0.0,20.0,4.0,0.0
4078,66.0,20.0,20.0,5.0,0.0
4079,78.0,0.0,60.0,1.0,0.0
4080,66.0,17.0,120.0,2.0,0.0
4081,62.0,19.0,60.0,2.0,0.0
4082,83.0,20.0,20.0,4.0,0.0
4083,65.0,0.0,20.0,5.0,0.0
4084,66.0,1.0,20.0,5.0,0.0
4085,81.0,0.0,20.0,4.0,0.0
4086,82.0,0.0,60.0,1.0,0.0
4087,43.0,0.0,120.0,8.0,0.0
4088,70.0,0.0,60.0,1.0,0.0
4089,81.0,0.0,20.0,4.0,0.0
4090,70.0,20.0,20.0,5.0,0.0
4091,55.0,0.0,120.0,7.0,0.0
4092,55.0,0.0,120.0,2.0,0.0
4093,79.0,0.0,20.0,4.0,0.0
4094,69.0,18.0,20.0,5.0,0.0
4095,70.0,0.0,20.0,5.0,0.0
4096,52.0,0.0,120.0,6.0,0.0
4097,71.0,0.0,60.0,1.0,0.0
4098,79.0,0.0,15.0,4.0,0.0
4099,83.0,0.0,60.0,1.0,0.0
4100,71.0,17.0,20.0,5.0,0.0
4101,64.0,0.0,120.0,2.0,0.0
4102,79.0,3.0,15.0,4.0,0.0
4103,70.0,17.0,20.0,5.0,0.0
4104,79.0,3.0,15.0,4.0,0.0
4105,71.0,20.0,20.0,5.0,0.0
4106,79.0,0.0,20.0,4.0,0.0
4107,54.0,1.0,60.0,2.0,0.0
4108,73.0,20.0,20.0,5.0,0.0
4109,42.0,0.0,60.0,8.0,0.0
4110,85.0,1.0,60.0,1.0,0.0
4111,73.0,2.0,60.0,1.0,0.0
4112,54.0,0.0,60.0,7.0,0.0
4113,81.0,0.0,20.0,4.0,0.0
4114,71.0,16.0,20.0,5.0,0.0
4115,79.0,0.0,20.0,4.0,0.0
4116,73.0,20.0,20.0,5.0,0.0
4117,71.0,1.0,60.0,3.0,0.0
4118,68.0,1.0,120.0,2.0,0.0
4119,54.0,1.0,60.0,6.0,0.0
4120,59.0,0.0,60.0,2.0,0.0
4121,86.0,0.0,60.0,1.0,0.0
4122,59.0,0.0,60.0,7.0,0.0
4123,83.0,20.0,60.0,1.0,0.0
4124,92.0,0.0,60.0,0.0,0.0
4125,47.0,0.0,60.0,8.0,0.0
4126,78.0,20.0,20.0,4.0,0.0
4127,74.0,0.0,20.0,5.0,0.0
4128,76.0,0.0,20.0,5.0,0.0
4129,79.0,17.0,20.0,4.0,0.0
4130,74.0,0.0,20.0,5.0,0.0
4131,78.0,1.0,20.0,4.0,0.0
4132,56.0,1.0,60.0,6.0,0.0
4133,76.0,2.0,60.0,3.0,0.0
4134,69.0,1.0,120.0,2.0,0.0
4135,73.0,0.0,20.0,5.0,0.0
4136,93.0,1.0,60.0,0.0,0.0
4137,49.0,1.0,60.0,8.0,0.0
4138,88.0,0.0,60.0,1.0,0.0
4139,81.0,0.0,60.0,1.0,0.0
4140,76.0,20.0,20.0,4.0,0.0
4141,61.0,0.0,60.0,7.0,0.0
4142,61.0,0.0,60.0,2.0,0.0
4143,64.0,19.0,60.0,3.0,0.0
4144,74.0,0.0,20.0,5.0,0.0
4145,78.0,15.0,20.0,4.0,0.0
4146,76.0,0.0,20.0,4.0,0.0
4147,73.0,0.0,20.0,5.0,0.0
4148,74.0,2.0,60.0,3.0,0.0
4149,66.0,0.0,60.0,6.0,0.0
4150,66.0,0.0,60.0,2.0,0.0
4151,71.0,1.0,60.0,3.0,0.0
4152,62.0,0.0,60.0,7.0,0.0
4153,86.0,1.0,60.0,1.0,0.0
4154,83.0,0.0,60.0,1.0,0.0
4155,62.0,1.0,60.0,2.0,0.0
4156,74.0,0.0,20.0,4.0,0.0
4157,71.0,20.0,20.0,5.0,0.0
4158,95.0,0.0,60.0,0.0,0.0
4159,50.0,0.0,60.0,8.0,0.0
4160,73.0,12.0,20.0,5.0,0.0
4161,76.0,0.0,20.0,4.0,0.0
4162,71.0,20.0,20.0,5.0,0.0
4163,74.0,2.0,20.0,4.0,0.0
4164,73.0,2.0,60.0,3.0,0.0
4165,64.0,1.0,60.0,6.0,0.0
4166,64.0,1.0,60.0,2.0,0.0
4167,93.0,1.0,60.0,0.0,0.0
4168,64.0,3.0,60.0,7.0,0.0
4169,73.0,20.0,20.0,4.0,0.0
4170,61.0,0.0,60.0,2.0,0.0
4171,69.0,0.0,20.0,5.0,0.0
4172,85.0,0.0,60.0,1.0,0.0
4173,81.0,1.0,60.0,1.0,0.0
4174,52.0,0.0,60.0,8.0,0.0
4175,69.0,0.0,60.0,3.0,0.0
4176,71.0,0.0,20.0,5.0,0.0
4177,74.0,11.0,20.0,4.0,0.0
4178,69.0,0.0,20.0,5.0,0.0
4179,73.0,20.0,20.0,4.0,0.0
4180,71.0,1.0,60.0,3.0,0.0
4181,62.0,1.0,60.0,2.0,0.0
4182,62.0,2.0,60.0,6.0,0.0
4183,68.0,0.0,60.0,3.0,0.0
4184,68.0,20.0,20.0,5.0,0.0
4185,40.0,3.0,60.0,8.0,0.0
4186,71.0,0.0,20.0,4.0,0.0
4187,80.0,0.0,60.0,1.0,0.0
4188,52.0,0.0,60.0,7.0,0.0
4189,59.0,0.0,60.0,2.0,0.0
4190,83.0,0.0,60.0,1.0,0.0
4191,92.0,1.0,60.0,0.0,0.0
4192,73.0,12.0,20.0,4.0,0.0
4193,69.0,0.0,20.0,5.0,0.0
4194,68.0,0.0,20.0,5.0,0.0
4195,71.0,20.0,20.0,4.0,0.0
4196,57.0,0.0,60.0,7.0,0.0
4197,57.0,0.0,60.0,2.0,0.0
4198,61.0,3.0,60.0,2.0,0.0
4199,69.0,0.0,120.0,3.0,0.0
4200,93.0,0.0,120.0,0.0,0.0
4201,61.0,0.0,120.0,6.0,0.0
4202,69.0,0.0,20.0,4.0,0.0
4203,81.0,0.0,120.0,1.0,0.0
4204,45.0,0.0,60.0,8.0,0.0
4205,57.0,13.0,120.0,3.0,0.0
4206,69.0,15.0,15.0,5.0,0.0
4207,81.0,5.0,15.0,4.0,0.0
4208,69.0,12.0,15.0,5.0,0.0
4209,81.0,5.0,15.0,4.0,0.0
4210,61.0,1.0,60.0,2.0,0.0
4211,57.0,0.0,60.0,2.0,0.0
4212,81.0,5.0,15.0,4.0,0.0
4213,69.0,15.0,15.0,5.0,0.0
4214,69.0,15.0,20.0,5.0,0.0
4215,81.0,5.0,15.0,4.0,0.0
4216,81.0,4.0,15.0,4.0,0.0
4217,62.0,0.0,60.0,2.0,0.0
4218,59.0,0.0,60.0,2.0,0.0
4219,81.0,5.0,15.0,4.0,0.0
4220,69.0,0.0,15.0,5.0,0.0
4221,81.0,5.0,15.0,4.0,0.0
4222,81.0,5.0,15.0,4.0,0.0
4223,69.0,15.0,15.0,5.0,0.0
4224,81.0,5.0,15.0,4.0,0.0
4225,64.0,15.0,60.0,2.0,0.0
4226,61.0,0.0,60.0,2.0,0.0
4227,69.0,15.0,15.0,5.0,0.0
4228,69.0,15.0,15.0,5.0,0.0
4229,81.0,5.0,15.0,4.0,0.0
4230,81.0,5.0,15.0,4.0,0.0
4231,69.0,0.0,20.0,5.0,0.0
4232,81.0,5.0,15.0,4.0,0.0
4233,62.0,0.0,20.0,2.0,0.0
4234,66.0,15.0,20.0,2.0,0.0
4235,69.0,0.0,20.0,5.0,0.0
4236,65.0,0.0,20.0,2.0,0.0
4237,61.0,0.0,20.0,2.0,0.0
4238,81.0,5.0,15.0,4.0,0.0
4239,62.0,0.0,20.0,2.0,0.0
4240,69.0,15.0,15.0,5.0,0.0
4241,81.0,5.0,15.0,4.0,0.0
4242,81.0,5.0,15.0,4.0,0.0
4243,69.0,15.0,20.0,2.0,0.0
4244,66.0,0.0,15.0,2.0,0.0
4245,69.0,15.0,15.0,5.0,0.0
4246,68.0,0.0,20.0,2.0,0.0
4247,64.0,15.0,20.0,2.0,0.0
4248,69.0,0.0,15.0,5.0,0.0
4249,81.0,5.0,15.0,4.0,0.0
4250,66.0,35.0,20.0,2.0,0.0
4251,62.0,0.0,20.0,2.0,0.0
4252,81.0,5.0,15.0,4.0,0.0
4253,57.0,0.0,60.0,2.0,0.0
4254,61.0,20.0,60.0,2.0,0.0
4255,69.0,0.0,15.0,5.0,0.0
4256,81.0,0.0,60.0,4.0,0.0
4257,57.0,22.0,15.0,3.0,0.0
4258,61.0,0.0,15.0,3.0,0.0
4259,57.0,0.0,15.0,3.0,0.0
4260,61.0,3.0,15.0,3.0,0.0
4261,61.0,13.0,20.0,3.0,0.0
4262,88.0,20.0,60.0,0.0,0.0
4263,85.0,0.0,60.0,1.0,0.0
4264,57.0,0.0,20.0,3.0,0.0
4265,64.0,22.0,15.0,3.0,0.0
4266,61.0,0.0,15.0,3.0,0.0
4267,61.0,0.0,15.0,3.0,0.0
4268,64.0,5.0,15.0,3.0,0.0
4269,61.0,13.0,20.0,3.0,0.0
4270,81.0,20.0,60.0,1.0,0.0
4271,85.0,0.0,60.0,0.0,0.0
4272,64.0,0.0,15.0,3.0,0.0
4273,69.0,0.0,15.0,3.0,0.0
4274,64.0,5.0,15.0,3.0,0.0
4275,69.0,0.0,15.0,3.0,0.0
4276,64.0,13.0,20.0,3.0,0.0
4277,76.0,20.0,60.0,1.0,0.0
4278,69.0,0.0,20.0,3.0,0.0
4279,81.0,20.0,90.0,0.0,0.0
4280,73.0,15.0,20.0,3.0,0.0
4281,69.0,7.0,15.0,3.0,0.0
4282,73.0,5.0,15.0,3.0,0.0
4283,69.0,0.0,15.0,3.0,0.0
4284,52.0,15.0,120.0,8.0,0.0
4285,71.0,0.0,120.0,3.0,0.0
4286,64.0,1.0,120.0,3.0,0.0
4287,74.0,0.0,120.0,1.0,0.0
4288,64.0,0.0,180.0,6.0,0.0
4289,64.0,0.0,120.0,7.0,0.0
4290,80.0,20.0,20.0,0.0,0.0
4291,83.0,20.0,20.0,0.0,0.0
4292,86.0,20.0,20.0,0.0,0.0
4293,83.0,19.0,20.0,0.0,0.0
4294,80.0,0.0,20.0,0.0,0.0
4295,69.0,1.0,60.0,3.0,0.0
4296,57.0,0.0,60.0,3.0,0.0
4297,69.0,0.0,60.0,7.0,0.0
4298,69.0,20.0,15.0,5.0,0.0
4299,73.0,15.0,60.0,1.0,0.0
4300,81.0,0.0,60.0,0.0,0.0
4301,57.0,0.0,60.0,8.0,0.0
4302,93.0,0.0,15.0,4.0,0.0
4303,69.0,20.0,15.0,5.0,0.0
4304,93.0,0.0,15.0,4.0,0.0
4305,69.0,4.0,15.0,5.0,0.0
4306,61.0,1.0,60.0,2.0,0.0
4307,93.0,20.0,15.0,4.0,0.0
4308,57.0,15.0,60.0,2.0,0.0
4309,69.0,0.0,15.0,5.0,0.0
4310,69.0,0.0,15.0,5.0,0.0
4311,93.0,20.0,15.0,4.0,0.0
4312,69.0,0.0,15.0,5.0,0.0
4313,93.0,4.0,15.0,4.0,0.0
4314,69.0,0.0,15.0,5.0,0.0
4315,93.0,20.0,15.0,4.0,0.0
4316,62.0,15.0,60.0,2.0,0.0
4317,59.0,0.0,60.0,2.0,0.0
4318,69.0,20.0,15.0,5.0,0.0
4319,93.0,0.0,15.0,4.0,0.0
4320,93.0,0.0,15.0,4.0,0.0
4321,69.0,5.0,15.0,5.0,0.0
4322,64.0,15.0,60.0,2.0,0.0
4323,93.0,20.0,15.0,4.0,0.0
4324,69.0,0.0,15.0,5.0,0.0
4325,61.0,0.0,60.0,2.0,0.0
4326,69.0,20.0,15.0,5.0,0.0
4327,93.0,0.0,15.0,4.0,0.0
4328,93.0,0.0,15.0,4.0,0.0
4329,69.0,5.0,15.0,5.0,0.0
4330,93.0,5.0,15.0,4.0,0.0
4331,66.0,0.0,20.0,2.0,0.0
4332,62.0,15.0,20.0,2.0,0.0
4333,69.0,0.0,15.0,5.0,0.0
4334,65.0,15.0,20.0,2.0,0.0
4335,61.0,0.0,20.0,2.0,0.0
4336,93.0,0.0,15.0,4.0,0.0
4337,69.0,5.0,15.0,5.0,0.0
4338,93.0,5.0,15.0,4.0,0.0
4339,69.0,0.0,15.0,5.0,0.0
4340,62.0,0.0,20.0,2.0,0.0
4341,69.0,0.0,20.0,2.0,0.0
4342,66.0,15.0,15.0,2.0,0.0
4343,93.0,5.0,15.0,4.0,0.0
4344,69.0,0.0,15.0,5.0,0.0
4345,68.0,0.0,20.0,2.0,0.0
4346,64.0,15.0,20.0,2.0,0.0
4347,69.0,5.0,15.0,5.0,0.0
4348,93.0,0.0,15.0,4.0,0.0
4349,69.0,5.0,15.0,5.0,0.0
4350,93.0,0.0,15.0,4.0,0.0
4351,62.0,35.0,20.0,2.0,0.0
4352,66.0,0.0,20.0,2.0,0.0
4353,93.0,0.0,60.0,4.0,0.0
4354,61.0,0.0,60.0,2.0,0.0
4355,69.0,0.0,60.0,5.0,0.0
4356,57.0,20.0,60.0,2.0,0.0
4357,57.0,22.0,15.0,3.0,0.0
4358,61.0,0.0,15.0,3.0,0.0
4359,61.0,3.0,15.0,3.0,0.0
4360,57.0,0.0,15.0,3.0,0.0
4361,93.0,0.0,60.0,0.0,0.0
4362,61.0,13.0,20.0,3.0,0.0
4363,57.0,0.0,20.0,3.0,0.0
4364,88.0,20.0,60.0,1.0,0.0
4365,64.0,0.0,15.0,3.0,0.0
4366,61.0,22.0,15.0,3.0,0.0
4367,64.0,5.0,15.0,3.0,0.0
4368,61.0,0.0,15.0,3.0,0.0
4369,88.0,20.0,60.0,0.0,0.0
4370,61.0,13.0,20.0,3.0,0.0
4371,85.0,0.0,60.0,1.0,0.0
4372,64.0,0.0,20.0,3.0,0.0
4373,69.0,22.0,15.0,3.0,0.0
4374,64.0,0.0,15.0,3.0,0.0
4375,69.0,0.0,15.0,3.0,0.0
4376,64.0,5.0,15.0,3.0,0.0
4377,69.0,13.0,20.0,3.0,0.0
4378,64.0,0.0,20.0,3.0,0.0
4379,81.0,0.0,120.0,1.0,0.0
4380,85.0,17.0,90.0,0.0,0.0
4381,73.0,15.0,20.0,3.0,0.0
4382,69.0,7.0,15.0,3.0,0.0
4383,69.0,0.0,15.0,3.0,0.0
4384,73.0,25.0,15.0,3.0,0.0
4385,40.0,60.0,120.0,8.0,0.0
4386,52.0,0.0,120.0,7.0,0.0
4387,76.0,17.0,60.0,1.0,0.0
4388,64.0,0.0,120.0,6.0,0.0
4389,73.0,1.0,60.0,3.0,0.0
4390,69.0,1.0,60.0,3.0,0.0
4391,88.0,20.0,15.0,0.0,0.0
4392,81.0,1.0,15.0,0.0,0.0
4393,80.0,0.0,60.0,1.0,0.0
4394,83.0,20.0,15.0,0.0,0.0
4395,68.0,0.0,60.0,2.0,0.0
4396,62.0,1.0,60.0,2.0,0.0
4397,71.0,1.0,60.0,3.0,0.0
4398,64.0,1.0,60.0,3.0,0.0
4399,74.0,0.0,60.0,1.0,0.0
4400,86.0,20.0,15.0,0.0,0.0
4401,80.0,0.0,15.0,0.0,0.0
4402,74.0,0.0,120.0,1.0,0.0
4403,76.0,13.0,150.0,4.0,0.0
4404,80.0,0.0,120.0,1.0,0.0
4405,64.0,0.0,120.0,3.0,0.0
4406,68.0,0.0,120.0,2.0,0.0
4407,62.0,0.0,120.0,2.0,0.0
4408,57.0,0.0,60.0,7.0,0.0
4409,69.0,0.0,60.0,6.0,0.0
4410,83.0,20.0,120.0,0.0,0.0
4411,45.0,60.0,60.0,8.0,0.0
4412,71.0,0.0,120.0,3.0,0.0
4413,33.0,0.0,60.0,8.0,0.0
4414,81.0,0.0,60.0,1.0,0.0
4415,73.0,0.0,60.0,1.0,0.0
4416,45.0,0.0,60.0,7.0,0.0
4417,69.0,0.0,60.0,2.0,0.0
4418,61.0,0.0,60.0,2.0,0.0
4419,57.0,13.0,60.0,6.0,0.0
4420,57.0,0.0,60.0,3.0,0.0
4421,81.0,0.0,60.0,0.0,0.0
4422,69.0,0.0,60.0,3.0,0.0
4423,85.0,20.0,15.0,4.0,0.0
4424,83.0,7.0,15.0,4.0,0.0
4425,81.0,20.0,15.0,4.0,0.0
4426,80.0,20.0,15.0,4.0,0.0
4427,78.0,27.0,15.0,4.0,0.0
4428,76.0,20.0,20.0,4.0,0.0
4429,75.0,20.0,20.0,4.0,0.0
4430,74.0,20.0,20.0,4.0,0.0
4431,73.0,20.0,20.0,4.0,0.0
4432,74.0,20.0,20.0,4.0,0.0
4433,71.0,90.0,20.0,4.0,0.0
4434,69.0,30.0,90.0,4.0,0.0
4435,64.0,210.0,30.0,4.0,0.0
4436,73.0,15.0,210.0,4.0,0.0
4437,64.0,90.0,180.0,6.0,0.0
4438,57.0,60.0,120.0,7.0,0.0
4439,45.0,0.0,120.0,8.0,0.0
4440,61.0,0.0,120.0,5.0,0.0
4441,71.0,15.0,15.0,4.0,0.0
4442,69.0,0.0,15.0,4.0,0.0
4443,62.0,0.0,60.0,5.0,0.0
4444,59.0,0.0,60.0,7.0,0.0
4445,68.0,0.0,60.0,4.0,0.0
4446,47.0,0.0,60.0,8.0,0.0
4447,52.0,0.0,40.0,3.0,0.0
4448,68.0,0.0,40.0,5.0,0.0
4449,35.0,0.0,40.0,8.0,0.0
4450,74.0,0.0,40.0,4.0,0.0
4451,47.0,5.0,40.0,7.0,0.0
4452,52.0,0.0,40.0,6.0,0.0
4453,59.0,0.0,40.0,5.0,0.0
4454,64.0,0.0,40.0,3.0,0.0
4455,64.0,0.0,40.0,6.0,0.0
4456,82.0,0.0,15.0,0.0,0.0
4457,58.0,10.0,15.0,2.0,0.0
4458,83.0,0.0,15.0,0.0,0.0
4459,59.0,15.0,15.0,2.0,0.0
4460,82.0,0.0,15.0,0.0,0.0
4461,58.0,15.0,15.0,2.0,0.0
4462,59.0,0.0,15.0,2.0,0.0
4463,83.0,15.0,15.0,0.0,0.0
4464,61.0,0.0,15.0,2.0,0.0
4465,85.0,15.0,15.0,0.0,0.0
4466,86.0,15.0,15.0,0.0,0.0
4467,62.0,0.0,15.0,2.0,0.0
4468,61.0,15.0,15.0,2.0,0.0
4469,85.0,0.0,15.0,0.0,0.0
4470,64.0,0.0,15.0,2.0,0.0
4471,88.0,15.0,15.0,0.0,0.0
4472,62.0,15.0,15.0,2.0,0.0
4473,86.0,0.0,15.0,0.0,0.0
4474,85.0,0.0,15.0,0.0,0.0
4475,61.0,15.0,15.0,2.0,0.0
4476,83.0,0.0,15.0,0.0,0.0
4477,59.0,15.0,15.0,2.0,0.0
4478,61.0,15.0,15.0,2.0,0.0
4479,85.0,0.0,15.0,0.0,0.0
4480,83.0,15.0,15.0,0.0,0.0
4481,59.0,0.0,15.0,2.0,0.0
4482,57.0,15.0,15.0,2.0,0.0
4483,81.0,0.0,15.0,0.0,0.0
4484,80.0,0.0,15.0,0.0,0.0
4485,59.0,0.0,15.0,7.0,0.0
4486,62.0,0.0,15.0,5.0,0.0
4487,64.0,90.0,60.0,6.0,0.0
4488,68.0,0.0,15.0,4.0,0.0
4489,56.0,0.0,15.0,2.0,0.0
4490,47.0,60.0,15.0,8.0,0.0
4491,61.0,0.0,60.0,7.0,0.0
4492,69.0,0.0,60.0,4.0,0.0
4493,61.0,0.0,60.0,5.0,0.0
4494,49.0,0.0,60.0,8.0,0.0
4495,76.0,0.0,40.0,4.0,0.0
4496,61.0,0.0,40.0,5.0,0.0
4497,61.0,0.0,40.0,6.0,0.0
4498,69.0,0.0,40.0,5.0,0.0
4499,37.0,0.0,40.0,8.0,0.0
4500,69.0,5.0,40.0,3.0,0.0
4501,49.0,0.0,40.0,7.0,0.0
4502,57.0,0.0,40.0,3.0,0.0
4503,84.0,10.0,15.0,0.0,0.0
4504,60.0,0.0,15.0,2.0,0.0
4505,85.0,0.0,15.0,0.0,0.0
4506,61.0,15.0,15.0,2.0,0.0
4507,84.0,0.0,15.0,0.0,0.0
4508,60.0,15.0,15.0,2.0,0.0
4509,85.0,15.0,15.0,0.0,0.0
4510,61.0,0.0,15.0,2.0,0.0
4511,87.0,0.0,15.0,0.0,0.0
4512,63.0,15.0,15.0,2.0,0.0
4513,88.0,15.0,15.0,0.0,0.0
4514,64.0,0.0,15.0,2.0,0.0
4515,63.0,15.0,15.0,2.0,0.0
4516,87.0,0.0,15.0,0.0,0.0
4517,66.0,15.0,15.0,2.0,0.0
4518,90.0,0.0,15.0,0.0,0.0
4519,88.0,0.0,15.0,0.0,0.0
4520,64.0,15.0,15.0,2.0,0.0
4521,86.0,15.0,15.0,0.0,0.0
4522,62.0,0.0,15.0,2.0,0.0
4523,85.0,0.0,15.0,0.0,0.0
4524,61.0,15.0,15.0,2.0,0.0
4525,62.0,0.0,15.0,2.0,0.0
4526,86.0,15.0,15.0,0.0,0.0
4527,61.0,0.0,15.0,2.0,0.0
4528,85.0,15.0,15.0,0.0,0.0
4529,59.0,15.0,15.0,2.0,0.0
4530,83.0,0.0,15.0,0.0,0.0
4531,81.0,30.0,15.0,0.0,0.0
4532,57.0,0.0,15.0,2.0,0.0
4533,66.0,0.0,360.0,2.0,0.0
4534,78.0,0.0,120.0,1.0,0.0
4535,38.0,2.0,60.0,8.0,0.0
4536,62.0,0.0,30.0,6.0,0.0
4537,50.0,0.0,60.0,7.0,0.0
4538,62.0,0.0,360.0,2.0,0.0
4539,78.0,15.0,120.0,4.0,0.0
4540,66.0,28.0,30.0,5.0,0.0
4541,66.0,0.0,15.0,6.0,0.0
4542,69.0,25.0,15.0,5.0,0.0
4543,38.0,0.0,60.0,8.0,0.0
4544,50.0,2.0,60.0,7.0,0.0
4545,66.0,15.0,30.0,6.0,0.0
4546,69.0,3.0,30.0,5.0,0.0
4547,66.0,0.0,30.0,5.0,0.0
4548,62.0,0.0,30.0,6.0,0.0
4549,38.0,0.0,60.0,8.0,0.0
4550,50.0,2.0,60.0,7.0,0.0
4551,80.0,0.0,15.0,1.0,0.0
4552,80.0,15.0,15.0,4.0,0.0
4553,78.0,0.0,15.0,4.0,0.0
4554,78.0,13.0,15.0,1.0,0.0
4555,66.0,0.0,30.0,6.0,0.0
4556,77.0,25.0,15.0,4.0,0.0
4557,77.0,0.0,15.0,1.0,0.0
4558,78.0,0.0,30.0,1.0,0.0
4559,38.0,0.0,60.0,8.0,0.0
4560,50.0,2.0,60.0,7.0,0.0
4561,69.0,0.0,15.0,5.0,0.0
4562,66.0,25.0,30.0,6.0,0.0
4563,78.0,0.0,30.0,4.0,0.0
4564,69.0,3.0,30.0,5.0,0.0
4565,80.0,0.0,30.0,4.0,0.0
4566,80.0,30.0,30.0,1.0,0.0
4567,66.0,0.0,30.0,6.0,0.0
4568,50.0,2.0,60.0,7.0,0.0
4569,83.0,0.0,30.0,1.0,0.0
4570,38.0,0.0,60.0,8.0,0.0
4571,83.0,28.0,30.0,4.0,0.0
4572,62.0,0.0,30.0,6.0,0.0
4573,66.0,0.0,30.0,5.0,0.0
4574,69.0,0.0,30.0,5.0,0.0
4575,81.0,0.0,30.0,1.0,0.0
4576,81.0,0.0,30.0,4.0,0.0
4577,38.0,0.0,60.0,8.0,0.0
4578,80.0,0.0,30.0,4.0,0.0
4579,66.0,25.0,15.0,6.0,0.0
4580,50.0,2.0,60.0,7.0,0.0
4581,69.0,5.0,30.0,5.0,0.0
4582,80.0,25.0,30.0,1.0,0.0
4583,66.0,30.0,30.0,6.0,0.0
4584,69.0,3.0,30.0,5.0,0.0
4585,78.0,0.0,30.0,4.0,0.0
4586,78.0,0.0,30.0,1.0,0.0
4587,61.0,28.0,30.0,5.0,0.0
4588,40.0,2.0,60.0,8.0,0.0
4589,52.0,0.0,60.0,7.0,0.0
4590,78.0,0.0,90.0,1.0,0.0
4591,78.0,25.0,90.0,4.0,0.0
4592,57.0,0.0,30.0,6.0,0.0
4593,64.0,27.0,240.0,2.0,0.0
4594,61.0,0.0,240.0,2.0,0.0
4595,52.0,0.0,60.0,7.0,0.0
4596,40.0,32.0,60.0,8.0,0.0
4597,61.0,0.0,15.0,6.0,0.0
4598,69.0,25.0,15.0,5.0,0.0
4599,61.0,1.0,30.0,6.0,0.0
4600,69.0,0.0,30.0,5.0,0.0
4601,76.0,1.0,30.0,1.0,0.0
4602,76.0,1.0,30.0,4.0,0.0
4603,40.0,2.0,60.0,8.0,0.0
4604,76.0,0.0,150.0,1.0,0.0
4605,76.0,3.0,150.0,4.0,0.0
4606,61.0,28.0,30.0,5.0,0.0
4607,52.0,0.0,60.0,7.0,0.0
4608,57.0,0.0,30.0,6.0,0.0
4609,61.0,25.0,30.0,6.0,0.0
4610,69.0,0.0,30.0,5.0,0.0
4611,69.0,0.0,30.0,5.0,0.0
4612,40.0,0.0,60.0,8.0,0.0
4613,52.0,2.0,60.0,7.0,0.0
4614,61.0,30.0,30.0,6.0,0.0
4615,61.0,0.0,30.0,6.0,0.0
4616,69.0,3.0,30.0,5.0,0.0
4617,40.0,2.0,60.0,8.0,0.0
4618,59.0,0.0,30.0,5.0,0.0
4619,52.0,0.0,60.0,7.0,0.0
4620,62.0,0.0,120.0,2.0,0.0
4621,59.0,0.0,120.0,2.0,0.0
4622,56.0,28.0,30.0,6.0,0.0
4623,77.0,25.0,30.0,1.0,0.0
4624,77.0,0.0,30.0,4.0,0.0
4625,68.0,0.0,15.0,5.0,0.0
4626,52.0,0.0,60.0,7.0,0.0
4627,78.0,25.0,30.0,4.0,0.0
4628,78.0,0.0,30.0,1.0,0.0
4629,59.0,0.0,15.0,6.0,0.0
4630,40.0,2.0,60.0,8.0,0.0
4631,59.0,0.0,30.0,6.0,0.0
4632,74.0,30.0,30.0,4.0,0.0
4633,68.0,3.0,30.0,5.0,0.0
4634,74.0,0.0,30.0,1.0,0.0
4635,56.0,0.0,30.0,6.0,0.0
4636,41.0,2.0,60.0,8.0,0.0
4637,61.0,2.0,150.0,2.0,0.0
4638,61.0,28.0,30.0,5.0,0.0
4639,85.0,15.0,150.0,0.0,0.0
4640,73.0,1.0,150.0,4.0,0.0
4641,73.0,0.0,60.0,1.0,0.0
4642,53.0,0.0,60.0,7.0,0.0
4643,68.0,0.0,30.0,6.0,0.0
4644,68.0,30.0,30.0,6.0,0.0
4645,41.0,0.0,60.0,8.0,0.0
4646,71.0,25.0,15.0,5.0,0.0
4647,53.0,29.0,60.0,7.0,0.0
4648,71.0,3.0,30.0,5.0,0.0
4649,68.0,0.0,30.0,6.0,0.0
4650,54.0,2.0,60.0,7.0,0.0
4651,57.0,0.0,30.0,6.0,0.0
4652,42.0,0.0,60.0,8.0,0.0
4653,61.0,0.0,30.0,5.0,0.0
4654,62.0,0.0,15.0,2.0,0.0
4655,74.0,0.0,15.0,4.0,0.0
4656,69.0,15.0,30.0,5.0,0.0
4657,86.0,13.0,15.0,0.0,0.0
4658,66.0,0.0,30.0,6.0,0.0
4659,85.0,0.0,15.0,0.0,0.0
4660,61.0,0.0,15.0,2.0,0.0
4661,73.0,0.0,15.0,4.0,0.0
4662,84.0,0.0,15.0,0.0,0.0
4663,60.0,0.0,15.0,2.0,0.0
4664,54.0,2.0,60.0,7.0,0.0
4665,66.0,0.0,30.0,6.0,0.0
4666,72.0,10.0,15.0,4.0,0.0
4667,69.0,5.0,30.0,5.0,0.0
4668,42.0,0.0,60.0,8.0,0.0
4669,73.0,0.0,15.0,4.0,0.0
4670,85.0,0.0,15.0,0.0,0.0
4671,61.0,15.0,15.0,2.0,0.0
4672,69.0,0.0,30.0,5.0,0.0
4673,72.0,0.0,15.0,4.0,0.0
4674,84.0,0.0,15.0,0.0,0.0
4675,66.0,3.0,30.0,6.0,0.0
4676,60.0,10.0,15.0,2.0,0.0
4677,85.0,30.0,15.0,0.0,0.0
4678,73.0,0.0,15.0,4.0,0.0
4679,61.0,0.0,15.0,2.0,0.0
4680,54.0,0.0,30.0,6.0,0.0
4681,50.0,2.0,60.0,7.0,0.0
4682,59.0,28.0,30.0,5.0,0.0
4683,64.0,0.0,30.0,2.0,0.0
4684,88.0,0.0,30.0,0.0,0.0
4685,38.0,0.0,60.0,8.0,0.0
4686,76.0,0.0,30.0,4.0,0.0
4687,62.0,0.0,30.0,2.0,0.0
4688,74.0,0.0,30.0,4.0,0.0
4689,86.0,0.0,30.0,0.0,0.0
4690,73.0,0.0,30.0,4.0,0.0
4691,61.0,0.0,30.0,2.0,0.0
4692,66.0,0.0,15.0,5.0,0.0
4693,85.0,25.0,30.0,0.0,0.0
4694,50.0,2.0,60.0,7.0,0.0
4695,62.0,25.0,15.0,6.0,0.0
4696,38.0,0.0,60.0,8.0,0.0
4697,71.0,0.0,30.0,4.0,0.0
4698,59.0,30.0,30.0,2.0,0.0
4699,83.0,0.0,30.0,0.0,0.0
4700,62.0,0.0,30.0,6.0,0.0
4701,66.0,3.0,30.0,5.0,0.0
4702,40.0,0.0,60.0,8.0,0.0
4703,52.0,15.0,30.0,6.0,0.0
4704,52.0,2.0,60.0,7.0,0.0
4705,88.0,0.0,40.0,0.0,0.0
4706,76.0,0.0,40.0,4.0,0.0
4707,64.0,13.0,40.0,2.0,0.0
4708,61.0,0.0,30.0,5.0,0.0
4709,61.0,0.0,30.0,6.0,0.0
4710,85.0,0.0,15.0,0.0,0.0
4711,73.0,25.0,15.0,4.0,0.0
4712,61.0,0.0,15.0,2.0,0.0
4713,57.0,0.0,120.0,2.0,0.0
4714,69.0,0.0,120.0,4.0,0.0
4715,40.0,32.0,60.0,8.0,0.0
4716,64.0,0.0,15.0,5.0,0.0
4717,52.0,0.0,60.0,7.0,0.0
4718,61.0,0.0,30.0,6.0,0.0
4719,81.0,23.0,120.0,0.0,0.0
4720,64.0,0.0,30.0,5.0,0.0
4721,61.0,3.0,30.0,6.0,0.0
4722,52.0,0.0,30.0,6.0,0.0
4723,52.0,2.0,60.0,7.0,0.0
4724,61.0,28.0,30.0,5.0,0.0
4725,40.0,0.0,60.0,8.0,0.0
4726,64.0,0.0,30.0,5.0,0.0
4727,71.0,25.0,30.0,4.0,0.0
4728,59.0,0.0,30.0,2.0,0.0
4729,64.0,5.0,30.0,5.0,0.0
4730,61.0,2.0,15.0,6.0,0.0
4731,52.0,0.0,60.0,7.0,0.0
4732,83.0,0.0,30.0,0.0,0.0
4733,40.0,2.0,60.0,8.0,0.0
4734,85.0,30.0,30.0,0.0,0.0
4735,61.0,1.0,30.0,2.0,0.0
4736,73.0,1.0,30.0,4.0,0.0
4737,61.0,0.0,30.0,6.0,0.0
4738,64.0,1.0,30.0,5.0,0.0
4739,52.0,2.0,60.0,7.0,0.0
4740,85.0,28.0,30.0,0.0,0.0
4741,62.0,0.0,30.0,5.0,0.0
4742,73.0,0.0,30.0,4.0,0.0
4743,61.0,0.0,30.0,2.0,0.0
4744,40.0,0.0,60.0,8.0,0.0
4745,52.0,0.0,30.0,6.0,0.0
4746,59.0,25.0,30.0,2.0,0.0
4747,64.0,0.0,30.0,5.0,0.0
4748,83.0,0.0,30.0,0.0,0.0
4749,71.0,0.0,30.0,4.0,0.0
4750,52.0,0.0,60.0,7.0,0.0
4751,81.0,25.0,30.0,0.0,0.0
4752,64.0,5.0,30.0,5.0,0.0
4753,62.0,0.0,15.0,6.0,0.0
4754,40.0,2.0,60.0,8.0,0.0
4755,69.0,0.0,30.0,4.0,0.0
4756,57.0,0.0,30.0,2.0,0.0
4757,56.0,35.0,30.0,2.0,0.0
4758,80.0,0.0,30.0,0.0,0.0
4759,62.0,0.0,30.0,6.0,0.0
4760,64.0,3.0,30.0,5.0,0.0
4761,68.0,0.0,30.0,4.0,0.0
4762,69.0,0.0,60.0,4.0,0.0
4763,81.0,15.0,60.0,0.0,0.0
4764,64.0,0.0,60.0,5.0,0.0
4765,45.0,0.0,60.0,7.0,0.0
4766,62.0,0.0,60.0,6.0,0.0
4767,57.0,0.0,60.0,2.0,0.0
4768,33.0,0.0,60.0,8.0,0.0
4769,64.0,20.0,15.0,3.0,0.0
4770,52.0,0.0,15.0,3.0,0.0
4771,64.0,5.0,15.0,3.0,0.0
4772,52.0,0.0,15.0,3.0,0.0
4773,52.0,20.0,15.0,3.0,0.0
4774,64.0,0.0,15.0,3.0,0.0
4775,64.0,20.0,15.0,3.0,0.0
4776,52.0,0.0,15.0,3.0,0.0
4777,64.0,20.0,15.0,3.0,0.0
4778,52.0,0.0,15.0,3.0,0.0
4779,52.0,20.0,15.0,3.0,0.0
4780,64.0,0.0,15.0,3.0,0.0
4781,52.0,20.0,15.0,3.0,0.0
4782,64.0,0.0,15.0,3.0,0.0
4783,52.0,20.0,15.0,3.0,0.0
4784,64.0,0.0,15.0,3.0,0.0
4785,64.0,0.0,15.0,3.0,0.0
4786,52.0,20.0,15.0,3.0,0.0
4787,52.0,0.0,15.0,3.0,0.0
4788,64.0,20.0,15.0,3.0,0.0
4789,64.0,45.0,15.0,3.0,0.0
4790,52.0,0.0,15.0,3.0,0.0
4791,64.0,20.0,120.0,3.0,0.0
4792,52.0,0.0,120.0,3.0,0.0
4793,40.0,0.0,120.0,8.0,0.0
4794,52.0,15.0,120.0,7.0,0.0
4795,62.0,0.0,120.0,5.0,0.0
4796,59.0,0.0,120.0,6.0,0.0
4797,68.0,20.0,20.0,4.0,0.0
4798,71.0,20.0,20.0,4.0,0.0
4799,74.0,20.0,20.0,4.0,0.0
4800,71.0,20.0,20.0,4.0,0.0
4801,68.0,0.0,20.0,4.0,0.0
4802,57.0,0.0,60.0,7.0,0.0
4803,57.0,0.0,60.0,6.0,0.0
4804,45.0,15.0,60.0,8.0,0.0
4805,61.0,0.0,60.0,5.0,0.0
4806,69.0,0.0,60.0,4.0,0.0
4807,64.0,0.0,15.0,3.0,0.0
4808,52.0,20.0,15.0,3.0,0.0
4809,52.0,5.0,15.0,3.0,0.0
4810,64.0,0.0,15.0,3.0,0.0
4811,52.0,20.0,15.0,3.0,0.0
4812,64.0,0.0,15.0,3.0,0.0
4813,52.0,20.0,15.0,3.0,0.0
4814,64.0,0.0,15.0,3.0,0.0
4815,52.0,20.0,15.0,3.0,0.0
4816,64.0,0.0,15.0,3.0,0.0
4817,64.0,0.0,15.0,3.0,0.0
4818,52.0,20.0,15.0,3.0,0.0
4819,52.0,20.0,15.0,3.0,0.0
4820,64.0,0.0,15.0,3.0,0.0
4821,52.0,20.0,15.0,3.0,0.0
4822,64.0,0.0,15.0,3.0,0.0
4823,64.0,0.0,15.0,3.0,0.0
4824,52.0,20.0,15.0,3.0,0.0
4825,52.0,0.0,15.0,3.0,0.0
4826,64.0,20.0,15.0,3.0,0.0
4827,64.0,0.0,15.0,3.0,0.0
4828,52.0,45.0,15.0,3.0,0.0
4829,56.0,10.0,90.0,6.0,0.0
4830,52.0,0.0,120.0,7.0,0.0
4831,62.0,0.0,120.0,5.0,0.0
4832,64.0,0.0,300.0,3.0,0.0
4833,52.0,0.0,240.0,3.0,0.0
4834,40.0,0.0,120.0,8.0,0.0
4835,83.0,0.0,20.0,0.0,0.0
4836,71.0,20.0,20.0,4.0,0.0
4837,74.0,0.0,20.0,4.0,0.0
4838,86.0,20.0,20.0,0.0,0.0
4839,78.0,0.0,20.0,4.0,0.0
4840,90.0,10.0,20.0,0.0,0.0
4841,88.0,20.0,20.0,0.0,0.0
4842,76.0,0.0,20.0,4.0,0.0
4843,59.0,0.0,30.0,6.0,0.0
4844,68.0,120.0,20.0,4.0,0.0
4845,80.0,0.0,20.0,0.0,0.0
4846,83.0,0.0,120.0,0.0,0.0
4847,62.0,0.0,120.0,5.0,0.0
4848,74.0,0.0,120.0,1.0,0.0
4849,80.0,0.0,120.0,1.0,0.0
4850,45.0,0.0,180.0,7.0,0.0
4851,68.0,0.0,120.0,2.0,0.0
4852,59.0,0.0,120.0,2.0,0.0
4853,56.0,60.0,120.0,6.0,0.0
4854,33.0,0.0,180.0,8.0,0.0
4855,71.0,0.0,120.0,4.0,0.0
4856,69.0,0.0,60.0,2.0,0.0
4857,61.0,0.0,60.0,2.0,0.0
4858,81.0,0.0,60.0,1.0,0.0
4859,73.0,0.0,60.0,1.0,0.0
4860,61.0,0.0,60.0,5.0,0.0
4861,81.0,0.0,60.0,0.0,0.0
4862,57.0,0.0,60.0,3.0,0.0
4863,57.0,0.0,60.0,6.0,0.0
4864,69.0,420.0,60.0,4.0,0.0
4865,69.0,0.0,120.0,4.0,0.0
