,note,step,duration,channel,velocity
0,61.0,70.0,120.0,11.0,0.0
1,68.0,10.0,120.0,11.0,0.0
2,53.0,50.0,60.0,12.0,0.0
3,61.0,0.0,240.0,13.0,0.0
4,49.0,60.0,240.0,14.0,0.0
5,37.0,0.0,240.0,15.0,0.0
6,56.0,60.0,60.0,12.0,0.0
7,61.0,50.0,60.0,12.0,0.0
8,68.0,5.0,120.0,11.0,0.0
9,65.0,5.0,60.0,12.0,0.0
10,68.0,10.0,120.0,11.0,0.0
11,65.0,50.0,60.0,12.0,0.0
12,61.0,60.0,60.0,12.0,0.0
13,68.0,0.0,120.0,11.0,0.0
14,37.0,0.0,120.0,15.0,0.0
15,49.0,0.0,120.0,14.0,0.0
16,56.0,50.0,60.0,12.0,0.0
17,61.0,5.0,120.0,13.0,0.0
18,53.0,65.0,60.0,12.0,0.0
19,36.0,0.0,240.0,15.0,0.0
20,60.0,60.0,240.0,13.0,0.0
21,68.0,5.0,240.0,11.0,0.0
22,48.0,0.0,240.0,14.0,0.0
23,51.0,60.0,60.0,12.0,0.0
24,56.0,60.0,60.0,12.0,0.0
25,60.0,50.0,60.0,12.0,0.0
26,63.0,5.0,60.0,12.0,0.0
27,67.0,60.0,60.0,11.0,0.0
28,61.0,0.0,60.0,12.0,0.0
29,68.0,60.0,60.0,11.0,0.0
30,60.0,0.0,60.0,12.0,0.0
31,60.0,0.0,120.0,13.0,0.0
32,58.0,0.0,60.0,12.0,0.0
33,36.0,5.0,120.0,15.0,0.0
34,48.0,0.0,120.0,14.0,0.0
35,70.0,50.0,60.0,11.0,0.0
36,56.0,65.0,60.0,12.0,0.0
37,72.0,0.0,60.0,11.0,0.0
38,73.0,10.0,120.0,11.0,0.0
39,53.0,50.0,60.0,12.0,0.0
40,46.0,0.0,240.0,14.0,0.0
41,34.0,0.0,240.0,15.0,0.0
42,58.0,60.0,240.0,13.0,0.0
43,58.0,60.0,60.0,12.0,0.0
44,73.0,5.0,120.0,11.0,0.0
45,61.0,50.0,60.0,12.0,0.0
46,65.0,5.0,60.0,12.0,0.0
47,73.0,10.0,120.0,11.0,0.0
48,65.0,50.0,60.0,12.0,0.0
49,61.0,60.0,60.0,12.0,0.0
50,73.0,0.0,120.0,11.0,0.0
51,34.0,5.0,120.0,15.0,0.0
52,58.0,0.0,120.0,13.0,0.0
53,58.0,50.0,60.0,12.0,0.0
54,46.0,0.0,120.0,14.0,0.0
55,53.0,15.0,60.0,12.0,0.0
56,41.0,60.0,240.0,14.0,0.0
57,29.0,0.0,240.0,15.0,0.0
58,73.0,10.0,15.0,11.0,0.0
59,56.0,0.0,60.0,12.0,0.0
60,53.0,0.0,240.0,13.0,0.0
61,75.0,10.0,15.0,11.0,0.0
62,73.0,10.0,15.0,11.0,0.0
63,75.0,10.0,15.0,11.0,0.0
64,73.0,10.0,15.0,11.0,0.0
65,75.0,10.0,15.0,11.0,0.0
66,61.0,10.0,60.0,12.0,0.0
67,73.0,10.0,15.0,11.0,0.0
68,75.0,10.0,15.0,11.0,0.0
69,73.0,10.0,15.0,11.0,0.0
70,75.0,10.0,15.0,11.0,0.0
71,73.0,10.0,15.0,11.0,0.0
72,75.0,0.0,15.0,11.0,0.0
73,65.0,0.0,60.0,12.0,0.0
74,73.0,10.0,15.0,11.0,0.0
75,75.0,10.0,15.0,11.0,0.0
76,73.0,10.0,15.0,11.0,0.0
77,75.0,20.0,15.0,11.0,0.0
78,73.0,30.0,20.0,11.0,0.0
79,72.0,25.0,30.0,11.0,0.0
80,68.0,5.0,60.0,12.0,0.0
81,70.0,0.0,30.0,11.0,0.0
82,68.0,60.0,60.0,12.0,0.0
83,68.0,0.0,240.0,11.0,0.0
84,65.0,60.0,60.0,12.0,0.0
85,53.0,0.0,120.0,14.0,0.0
86,53.0,5.0,120.0,13.0,0.0
87,61.0,50.0,60.0,12.0,0.0
88,41.0,0.0,120.0,15.0,0.0
89,56.0,15.0,60.0,12.0,0.0
90,39.0,0.0,240.0,15.0,0.0
91,51.0,0.0,240.0,13.0,0.0
92,66.0,10.0,15.0,11.0,0.0
93,51.0,60.0,240.0,14.0,0.0
94,58.0,0.0,60.0,12.0,0.0
95,68.0,10.0,15.0,11.0,0.0
96,66.0,10.0,15.0,11.0,0.0
97,68.0,10.0,15.0,11.0,0.0
98,66.0,10.0,15.0,11.0,0.0
99,68.0,10.0,15.0,11.0,0.0
100,51.0,10.0,60.0,12.0,0.0
101,66.0,10.0,15.0,11.0,0.0
102,68.0,10.0,15.0,11.0,0.0
103,66.0,10.0,15.0,11.0,0.0
104,68.0,10.0,15.0,11.0,0.0
105,66.0,10.0,15.0,11.0,0.0
106,68.0,0.0,15.0,11.0,0.0
107,66.0,10.0,15.0,11.0,0.0
108,54.0,0.0,60.0,12.0,0.0
109,68.0,10.0,15.0,11.0,0.0
110,66.0,10.0,15.0,11.0,0.0
111,68.0,20.0,15.0,11.0,0.0
112,66.0,30.0,20.0,11.0,0.0
113,51.0,5.0,60.0,12.0,0.0
114,65.0,25.0,30.0,11.0,0.0
115,66.0,0.0,30.0,11.0,0.0
116,63.0,60.0,60.0,12.0,0.0
117,68.0,0.0,60.0,11.0,0.0
118,66.0,60.0,60.0,11.0,0.0
119,58.0,0.0,60.0,12.0,0.0
120,46.0,0.0,120.0,13.0,0.0
121,56.0,0.0,60.0,12.0,0.0
122,42.0,0.0,120.0,14.0,0.0
123,65.0,50.0,60.0,11.0,0.0
124,30.0,5.0,120.0,15.0,0.0
125,63.0,0.0,60.0,11.0,0.0
126,54.0,65.0,60.0,12.0,0.0
127,32.0,55.0,240.0,15.0,0.0
128,61.0,0.0,240.0,11.0,0.0
129,44.0,0.0,240.0,13.0,0.0
130,44.0,0.0,240.0,14.0,0.0
131,53.0,60.0,60.0,12.0,0.0
132,56.0,60.0,60.0,12.0,0.0
133,53.0,55.0,60.0,12.0,0.0
134,56.0,5.0,60.0,12.0,0.0
135,51.0,60.0,60.0,12.0,0.0
136,60.0,5.0,60.0,11.0,0.0
137,70.0,60.0,60.0,11.0,0.0
138,63.0,0.0,60.0,12.0,0.0
139,60.0,0.0,60.0,12.0,0.0
140,54.0,0.0,120.0,14.0,0.0
141,42.0,0.0,120.0,15.0,0.0
142,68.0,50.0,60.0,11.0,0.0
143,51.0,5.0,120.0,13.0,0.0
144,60.0,0.0,60.0,11.0,0.0
145,56.0,65.0,60.0,12.0,0.0
146,49.0,0.0,120.0,13.0,0.0
147,53.0,10.0,120.0,14.0,0.0
148,41.0,0.0,120.0,15.0,0.0
149,56.0,0.0,120.0,12.0,0.0
150,61.0,50.0,60.0,11.0,0.0
151,65.0,60.0,60.0,11.0,0.0
152,41.0,5.0,120.0,15.0,0.0
153,53.0,0.0,120.0,14.0,0.0
154,61.0,0.0,240.0,13.0,0.0
155,68.0,50.0,60.0,11.0,0.0
156,61.0,0.0,120.0,12.0,0.0
157,73.0,115.0,60.0,11.0,0.0
158,68.0,10.0,120.0,11.0,0.0
159,58.0,0.0,120.0,12.0,0.0
160,51.0,10.0,120.0,14.0,0.0
161,39.0,0.0,120.0,15.0,0.0
162,63.0,5.0,120.0,13.0,0.0
163,66.0,10.0,15.0,11.0,0.0
164,44.0,0.0,120.0,14.0,0.0
165,32.0,0.0,120.0,15.0,0.0
166,60.0,0.0,120.0,12.0,0.0
167,68.0,10.0,15.0,11.0,0.0
168,66.0,10.0,15.0,11.0,0.0
169,68.0,10.0,15.0,11.0,0.0
170,66.0,10.0,15.0,11.0,0.0
171,68.0,10.0,15.0,11.0,0.0
172,66.0,10.0,15.0,11.0,0.0
173,68.0,10.0,15.0,11.0,0.0
174,66.0,15.0,15.0,11.0,0.0
175,65.0,5.0,15.0,11.0,0.0
176,66.0,115.0,15.0,11.0,0.0
177,65.0,0.0,120.0,11.0,0.0
178,49.0,0.0,240.0,14.0,0.0
179,61.0,40.0,120.0,12.0,0.0
180,56.0,0.0,240.0,13.0,0.0
181,37.0,0.0,240.0,15.0,0.0
182,68.0,15.0,30.0,11.0,0.0
183,65.0,15.0,30.0,12.0,0.0
184,70.0,30.0,30.0,11.0,0.0
185,66.0,15.0,30.0,11.0,0.0
186,63.0,15.0,30.0,12.0,0.0
187,68.0,30.0,30.0,11.0,0.0
188,65.0,15.0,30.0,11.0,0.0
189,61.0,15.0,30.0,12.0,0.0
190,66.0,30.0,30.0,11.0,0.0
191,58.0,10.0,30.0,12.0,0.0
192,63.0,15.0,30.0,11.0,0.0
193,54.0,0.0,30.0,13.0,0.0
194,65.0,35.0,20.0,11.0,0.0
195,44.0,5.0,120.0,14.0,0.0
196,61.0,15.0,30.0,11.0,0.0
197,53.0,10.0,30.0,13.0,0.0
198,61.0,0.0,30.0,1.0,0.0
199,65.0,0.0,30.0,1.0,0.0
200,68.0,0.0,30.0,0.0,0.0
201,73.0,0.0,30.0,0.0,0.0
202,32.0,0.0,120.0,15.0,0.0
203,56.0,0.0,30.0,12.0,0.0
204,63.0,35.0,20.0,11.0,0.0
205,72.0,0.0,30.0,0.0,0.0
206,60.0,15.0,30.0,11.0,0.0
207,63.0,5.0,30.0,1.0,0.0
208,54.0,0.0,30.0,12.0,0.0
209,56.0,0.0,30.0,1.0,0.0
210,66.0,0.0,30.0,0.0,0.0
211,51.0,0.0,30.0,13.0,0.0
212,63.0,65.0,20.0,11.0,0.0
213,37.0,0.0,240.0,15.0,0.0
214,61.0,50.0,60.0,11.0,0.0
215,65.0,0.0,120.0,0.0,0.0
216,53.0,5.0,120.0,12.0,0.0
217,73.0,30.0,120.0,0.0,0.0
218,49.0,0.0,120.0,13.0,0.0
219,61.0,0.0,120.0,1.0,0.0
220,53.0,0.0,120.0,1.0,0.0
221,49.0,0.0,240.0,14.0,0.0
222,56.0,5.0,60.0,11.0,0.0
223,65.0,15.0,30.0,12.0,0.0
224,68.0,15.0,30.0,11.0,0.0
225,70.0,30.0,30.0,11.0,0.0
226,63.0,15.0,30.0,12.0,0.0
227,66.0,15.0,30.0,11.0,0.0
228,68.0,30.0,30.0,11.0,0.0
229,65.0,15.0,30.0,11.0,0.0
230,61.0,15.0,30.0,12.0,0.0
231,66.0,30.0,30.0,11.0,0.0
232,63.0,15.0,30.0,11.0,0.0
233,54.0,10.0,30.0,13.0,0.0
234,58.0,0.0,30.0,12.0,0.0
235,65.0,35.0,20.0,11.0,0.0
236,61.0,15.0,30.0,11.0,0.0
237,44.0,5.0,120.0,14.0,0.0
238,56.0,0.0,30.0,12.0,0.0
239,68.0,0.0,30.0,0.0,0.0
240,73.0,0.0,30.0,0.0,0.0
241,53.0,0.0,30.0,13.0,0.0
242,61.0,10.0,30.0,1.0,0.0
243,32.0,0.0,120.0,15.0,0.0
244,65.0,0.0,30.0,1.0,0.0
245,63.0,35.0,20.0,11.0,0.0
246,60.0,15.0,30.0,11.0,0.0
247,72.0,0.0,30.0,0.0,0.0
248,66.0,5.0,30.0,0.0,0.0
249,56.0,0.0,30.0,1.0,0.0
250,63.0,0.0,30.0,1.0,0.0
251,51.0,0.0,30.0,13.0,0.0
252,54.0,0.0,30.0,12.0,0.0
253,63.0,95.0,20.0,11.0,0.0
254,61.0,0.0,90.0,1.0,0.0
255,53.0,120.0,90.0,1.0,0.0
256,37.0,0.0,90.0,15.0,0.0
257,61.0,0.0,90.0,11.0,0.0
258,73.0,0.0,90.0,0.0,0.0
259,65.0,0.0,90.0,0.0,0.0
260,49.0,0.0,90.0,13.0,0.0
261,49.0,0.0,90.0,14.0,0.0
262,53.0,0.0,90.0,12.0,0.0
263,56.0,0.0,90.0,1.0,0.0
264,56.0,0.0,90.0,12.0,0.0
265,44.0,0.0,90.0,14.0,0.0
266,56.0,0.0,90.0,13.0,0.0
267,56.0,0.0,90.0,11.0,0.0
268,68.0,120.0,90.0,0.0,0.0
269,32.0,0.0,90.0,15.0,0.0
270,53.0,0.0,90.0,12.0,0.0
271,41.0,0.0,90.0,14.0,0.0
272,53.0,0.0,90.0,11.0,0.0
273,53.0,0.0,90.0,13.0,0.0
274,53.0,0.0,90.0,1.0,0.0
275,29.0,140.0,90.0,15.0,0.0
276,65.0,0.0,90.0,0.0,0.0
277,61.0,70.0,120.0,11.0,0.0
278,68.0,10.0,120.0,11.0,0.0
279,53.0,50.0,60.0,12.0,0.0
280,61.0,0.0,240.0,13.0,0.0
281,49.0,60.0,240.0,14.0,0.0
282,37.0,0.0,240.0,15.0,0.0
283,56.0,60.0,60.0,12.0,0.0
284,68.0,5.0,120.0,11.0,0.0
285,61.0,50.0,60.0,12.0,0.0
286,65.0,5.0,60.0,12.0,0.0
287,68.0,10.0,120.0,11.0,0.0
288,65.0,50.0,60.0,12.0,0.0
289,61.0,60.0,60.0,12.0,0.0
290,61.0,5.0,120.0,13.0,0.0
291,56.0,50.0,60.0,12.0,0.0
292,37.0,0.0,120.0,15.0,0.0
293,68.0,0.0,120.0,11.0,0.0
294,49.0,0.0,120.0,14.0,0.0
295,53.0,65.0,60.0,12.0,0.0
296,48.0,0.0,240.0,14.0,0.0
297,36.0,0.0,240.0,15.0,0.0
298,51.0,60.0,60.0,12.0,0.0
299,68.0,5.0,240.0,11.0,0.0
300,60.0,60.0,240.0,13.0,0.0
301,56.0,60.0,60.0,12.0,0.0
302,60.0,50.0,60.0,12.0,0.0
303,63.0,5.0,60.0,12.0,0.0
304,67.0,0.0,60.0,11.0,0.0
305,61.0,60.0,60.0,12.0,0.0
306,60.0,0.0,60.0,12.0,0.0
307,68.0,60.0,60.0,11.0,0.0
308,58.0,50.0,60.0,12.0,0.0
309,70.0,0.0,60.0,11.0,0.0
310,36.0,0.0,120.0,15.0,0.0
311,48.0,0.0,120.0,14.0,0.0
312,60.0,5.0,120.0,13.0,0.0
313,72.0,0.0,60.0,11.0,0.0
314,56.0,65.0,60.0,12.0,0.0
315,58.0,0.0,240.0,13.0,0.0
316,73.0,10.0,120.0,11.0,0.0
317,46.0,60.0,240.0,14.0,0.0
318,34.0,0.0,240.0,15.0,0.0
319,55.0,50.0,60.0,12.0,0.0
320,58.0,60.0,60.0,12.0,0.0
321,63.0,50.0,60.0,12.0,0.0
322,73.0,5.0,120.0,11.0,0.0
323,67.0,5.0,60.0,12.0,0.0
324,70.0,50.0,60.0,12.0,0.0
325,73.0,10.0,120.0,11.0,0.0
326,67.0,60.0,60.0,12.0,0.0
327,55.0,0.0,120.0,13.0,0.0
328,63.0,50.0,60.0,12.0,0.0
329,31.0,5.0,120.0,15.0,0.0
330,43.0,0.0,120.0,14.0,0.0
331,73.0,0.0,120.0,11.0,0.0
332,58.0,15.0,60.0,12.0,0.0
333,39.0,0.0,120.0,14.0,0.0
334,27.0,0.0,120.0,15.0,0.0
335,73.0,10.0,15.0,11.0,0.0
336,51.0,0.0,120.0,13.0,0.0
337,55.0,0.0,60.0,12.0,0.0
338,75.0,10.0,15.0,11.0,0.0
339,73.0,10.0,15.0,11.0,0.0
340,75.0,10.0,15.0,11.0,0.0
341,73.0,10.0,15.0,11.0,0.0
342,75.0,10.0,15.0,11.0,0.0
343,58.0,10.0,60.0,12.0,0.0
344,73.0,10.0,15.0,11.0,0.0
345,75.0,10.0,15.0,11.0,0.0
346,73.0,10.0,15.0,11.0,0.0
347,75.0,10.0,15.0,11.0,0.0
348,73.0,10.0,15.0,11.0,0.0
349,75.0,0.0,15.0,11.0,0.0
350,63.0,0.0,60.0,12.0,0.0
351,63.0,0.0,120.0,13.0,0.0
352,39.0,5.0,120.0,15.0,0.0
353,51.0,0.0,120.0,14.0,0.0
354,73.0,10.0,15.0,11.0,0.0
355,75.0,10.0,15.0,11.0,0.0
356,73.0,10.0,15.0,11.0,0.0
357,75.0,20.0,15.0,11.0,0.0
358,73.0,30.0,20.0,11.0,0.0
359,55.0,65.0,60.0,12.0,0.0
360,72.0,20.0,30.0,11.0,0.0
361,70.0,0.0,20.0,11.0,0.0
362,72.0,10.0,120.0,11.0,0.0
363,32.0,0.0,240.0,15.0,0.0
364,44.0,0.0,240.0,14.0,0.0
365,56.0,50.0,60.0,12.0,0.0
366,56.0,5.0,240.0,13.0,0.0
367,60.0,60.0,60.0,12.0,0.0
368,72.0,0.0,120.0,11.0,0.0
369,63.0,50.0,60.0,12.0,0.0
370,68.0,50.0,60.0,12.0,0.0
371,56.0,75.0,30.0,12.0,0.0
372,49.0,0.0,480.0,13.0,0.0
373,37.0,45.0,480.0,15.0,0.0
374,49.0,0.0,480.0,14.0,0.0
375,65.0,60.0,360.0,11.0,0.0
376,57.0,60.0,60.0,12.0,0.0
377,58.0,55.0,60.0,12.0,0.0
378,57.0,65.0,60.0,12.0,0.0
379,58.0,60.0,60.0,12.0,0.0
380,53.0,0.0,60.0,12.0,0.0
381,70.0,5.0,120.0,11.0,0.0
382,65.0,50.0,60.0,12.0,0.0
383,61.0,5.0,60.0,12.0,0.0
384,51.0,45.0,480.0,13.0,0.0
385,51.0,5.0,480.0,14.0,0.0
386,39.0,0.0,480.0,15.0,0.0
387,58.0,75.0,30.0,12.0,0.0
388,68.0,60.0,240.0,11.0,0.0
389,62.0,60.0,60.0,12.0,0.0
390,63.0,55.0,60.0,12.0,0.0
391,62.0,5.0,60.0,12.0,0.0
392,63.0,50.0,60.0,12.0,0.0
393,67.0,10.0,120.0,11.0,0.0
394,58.0,60.0,60.0,12.0,0.0
395,67.0,30.0,60.0,12.0,0.0
396,72.0,20.0,90.0,11.0,0.0
397,63.0,5.0,60.0,12.0,0.0
398,41.0,0.0,360.0,15.0,0.0
399,60.0,75.0,30.0,12.0,0.0
400,53.0,0.0,480.0,13.0,0.0
401,53.0,30.0,360.0,14.0,0.0
402,70.0,30.0,240.0,11.0,0.0
403,52.0,60.0,60.0,12.0,0.0
404,53.0,55.0,60.0,12.0,0.0
405,52.0,5.0,60.0,12.0,0.0
406,68.0,0.0,30.0,11.0,0.0
407,53.0,40.0,30.0,12.0,0.0
408,70.0,0.0,30.0,11.0,0.0
409,55.0,40.0,30.0,12.0,0.0
410,56.0,10.0,30.0,12.0,0.0
411,72.0,0.0,30.0,11.0,0.0
412,37.0,0.0,120.0,15.0,0.0
413,49.0,120.0,120.0,14.0,0.0
414,73.0,40.0,30.0,11.0,0.0
415,58.0,0.0,30.0,12.0,0.0
416,60.0,0.0,30.0,12.0,0.0
417,75.0,40.0,30.0,11.0,0.0
418,77.0,10.0,30.0,11.0,0.0
419,61.0,0.0,30.0,12.0,0.0
420,72.0,0.0,240.0,11.0,0.0
421,56.0,0.0,240.0,12.0,0.0
422,50.0,60.0,60.0,14.0,0.0
423,50.0,0.0,60.0,13.0,0.0
424,38.0,0.0,60.0,15.0,0.0
425,39.0,0.0,60.0,15.0,0.0
426,51.0,0.0,60.0,13.0,0.0
427,51.0,60.0,60.0,14.0,0.0
428,38.0,0.0,60.0,15.0,0.0
429,50.0,55.0,60.0,13.0,0.0
430,50.0,0.0,60.0,14.0,0.0
431,51.0,0.0,120.0,14.0,0.0
432,70.0,50.0,60.0,11.0,0.0
433,55.0,0.0,60.0,12.0,0.0
434,39.0,0.0,120.0,15.0,0.0
435,51.0,45.0,120.0,13.0,0.0
436,51.0,15.0,30.0,12.0,0.0
437,63.0,0.0,30.0,11.0,0.0
438,73.0,60.0,30.0,11.0,0.0
439,58.0,0.0,30.0,12.0,0.0
440,56.0,135.0,30.0,12.0,0.0
441,72.0,0.0,30.0,11.0,0.0
442,72.0,0.0,240.0,11.0,0.0
443,56.0,0.0,240.0,12.0,0.0
444,38.0,0.0,60.0,15.0,0.0
445,50.0,0.0,60.0,13.0,0.0
446,50.0,60.0,60.0,14.0,0.0
447,39.0,60.0,60.0,15.0,0.0
448,51.0,0.0,60.0,13.0,0.0
449,51.0,0.0,60.0,14.0,0.0
450,38.0,55.0,60.0,15.0,0.0
451,50.0,0.0,60.0,13.0,0.0
452,50.0,0.0,60.0,14.0,0.0
453,51.0,45.0,120.0,14.0,0.0
454,70.0,50.0,60.0,11.0,0.0
455,51.0,0.0,120.0,13.0,0.0
456,39.0,0.0,120.0,15.0,0.0
457,55.0,0.0,60.0,12.0,0.0
458,63.0,0.0,30.0,11.0,0.0
459,51.0,15.0,30.0,12.0,0.0
460,58.0,60.0,30.0,12.0,0.0
461,73.0,0.0,30.0,11.0,0.0
462,56.0,135.0,30.0,12.0,0.0
463,72.0,0.0,30.0,11.0,0.0
464,56.0,110.0,240.0,12.0,0.0
465,72.0,0.0,240.0,11.0,0.0
466,50.0,0.0,60.0,14.0,0.0
467,50.0,60.0,60.0,13.0,0.0
468,38.0,0.0,60.0,15.0,0.0
469,51.0,0.0,60.0,14.0,0.0
470,39.0,0.0,60.0,15.0,0.0
471,51.0,60.0,60.0,13.0,0.0
472,50.0,0.0,60.0,14.0,0.0
473,50.0,0.0,60.0,13.0,0.0
474,38.0,0.0,60.0,15.0,0.0
475,39.0,110.0,120.0,15.0,0.0
476,51.0,0.0,120.0,13.0,0.0
477,70.0,0.0,120.0,11.0,0.0
478,51.0,0.0,120.0,14.0,0.0
479,55.0,10.0,120.0,12.0,0.0
480,51.0,20.0,120.0,12.0,0.0
481,51.0,0.0,120.0,13.0,0.0
482,27.0,45.0,120.0,15.0,0.0
483,61.0,10.0,15.0,12.0,0.0
484,39.0,0.0,120.0,14.0,0.0
485,63.0,10.0,15.0,12.0,0.0
486,61.0,10.0,15.0,12.0,0.0
487,63.0,10.0,15.0,12.0,0.0
488,61.0,10.0,15.0,12.0,0.0
489,63.0,10.0,15.0,12.0,0.0
490,61.0,10.0,15.0,12.0,0.0
491,63.0,20.0,15.0,12.0,0.0
492,60.0,15.0,20.0,12.0,0.0
493,61.0,5.0,15.0,12.0,0.0
494,51.0,60.0,30.0,12.0,0.0
495,51.0,25.0,30.0,12.0,0.0
496,60.0,10.0,15.0,12.0,0.0
497,61.0,10.0,15.0,12.0,0.0
498,60.0,10.0,15.0,12.0,0.0
499,61.0,10.0,15.0,12.0,0.0
500,60.0,10.0,15.0,12.0,0.0
501,61.0,10.0,15.0,12.0,0.0
502,60.0,10.0,15.0,12.0,0.0
503,61.0,20.0,15.0,12.0,0.0
504,58.0,15.0,20.0,12.0,0.0
505,60.0,50.0,15.0,12.0,0.0
506,63.0,20.0,120.0,11.0,0.0
507,51.0,60.0,30.0,12.0,0.0
508,51.0,5.0,30.0,12.0,0.0
509,27.0,45.0,120.0,15.0,0.0
510,55.0,30.0,180.0,12.0,0.0
511,51.0,0.0,120.0,13.0,0.0
512,73.0,10.0,15.0,11.0,0.0
513,39.0,0.0,120.0,14.0,0.0
514,75.0,10.0,15.0,11.0,0.0
515,73.0,10.0,15.0,11.0,0.0
516,75.0,10.0,15.0,11.0,0.0
517,73.0,10.0,15.0,11.0,0.0
518,75.0,10.0,15.0,11.0,0.0
519,73.0,10.0,15.0,11.0,0.0
520,75.0,20.0,15.0,11.0,0.0
521,72.0,15.0,20.0,11.0,0.0
522,73.0,5.0,15.0,11.0,0.0
523,63.0,15.0,30.0,11.0,0.0
524,63.0,11.0,30.0,11.0,0.0
525,56.0,15.0,30.0,12.0,0.0
526,58.0,14.0,30.0,12.0,0.0
527,72.0,10.0,15.0,11.0,0.0
528,56.0,30.0,180.0,12.0,0.0
529,73.0,10.0,15.0,11.0,0.0
530,72.0,10.0,15.0,11.0,0.0
531,73.0,10.0,15.0,11.0,0.0
532,72.0,10.0,15.0,11.0,0.0
533,73.0,10.0,15.0,11.0,0.0
534,72.0,10.0,15.0,11.0,0.0
535,73.0,20.0,15.0,11.0,0.0
536,70.0,15.0,20.0,11.0,0.0
537,72.0,50.0,15.0,11.0,0.0
538,63.0,15.0,30.0,11.0,0.0
539,63.0,11.0,30.0,11.0,0.0
540,58.0,15.0,30.0,12.0,0.0
541,60.0,14.0,30.0,12.0,0.0
542,73.0,0.0,240.0,0.0,0.0
543,39.0,0.0,120.0,14.0,0.0
544,79.0,10.0,240.0,0.0,0.0
545,51.0,0.0,120.0,13.0,0.0
546,67.0,30.0,180.0,11.0,0.0
547,61.0,10.0,15.0,12.0,0.0
548,27.0,45.0,120.0,15.0,0.0
549,63.0,10.0,15.0,12.0,0.0
550,61.0,10.0,15.0,12.0,0.0
551,63.0,10.0,15.0,12.0,0.0
552,61.0,10.0,15.0,12.0,0.0
553,63.0,10.0,15.0,12.0,0.0
554,61.0,10.0,15.0,12.0,0.0
555,63.0,20.0,15.0,12.0,0.0
556,60.0,15.0,20.0,12.0,0.0
557,61.0,5.0,15.0,12.0,0.0
558,51.0,15.0,30.0,12.0,0.0
559,68.0,15.0,30.0,11.0,0.0
560,51.0,10.0,30.0,12.0,0.0
561,70.0,5.0,20.0,11.0,0.0
562,68.0,30.0,180.0,11.0,0.0
563,80.0,5.0,240.0,0.0,0.0
564,72.0,0.0,240.0,0.0,0.0
565,60.0,10.0,15.0,12.0,0.0
566,61.0,10.0,15.0,12.0,0.0
567,60.0,10.0,15.0,12.0,0.0
568,61.0,10.0,15.0,12.0,0.0
569,60.0,10.0,15.0,12.0,0.0
570,61.0,10.0,15.0,12.0,0.0
571,60.0,10.0,15.0,12.0,0.0
572,61.0,20.0,15.0,12.0,0.0
573,58.0,15.0,20.0,12.0,0.0
574,60.0,50.0,15.0,12.0,0.0
575,51.0,15.0,30.0,12.0,0.0
576,70.0,15.0,30.0,11.0,0.0
577,51.0,5.0,30.0,12.0,0.0
578,72.0,15.0,20.0,11.0,0.0
579,55.0,30.0,180.0,12.0,0.0
580,73.0,0.0,240.0,0.0,0.0
581,51.0,0.0,240.0,13.0,0.0
582,27.0,45.0,240.0,15.0,0.0
583,73.0,10.0,15.0,11.0,0.0
584,39.0,0.0,240.0,14.0,0.0
585,67.0,0.0,240.0,0.0,0.0
586,75.0,10.0,15.0,11.0,0.0
587,73.0,10.0,15.0,11.0,0.0
588,75.0,10.0,15.0,11.0,0.0
589,73.0,10.0,15.0,11.0,0.0
590,75.0,10.0,15.0,11.0,0.0
591,73.0,10.0,15.0,11.0,0.0
592,75.0,20.0,15.0,11.0,0.0
593,72.0,15.0,20.0,11.0,0.0
594,73.0,50.0,15.0,11.0,0.0
595,63.0,15.0,30.0,11.0,0.0
596,56.0,15.0,30.0,12.0,0.0
597,73.0,11.0,30.0,11.0,0.0
598,58.0,4.0,30.0,12.0,0.0
599,56.0,0.0,30.0,12.0,0.0
600,44.0,50.0,60.0,14.0,0.0
601,72.0,0.0,120.0,0.0,0.0
602,68.0,45.0,120.0,0.0,0.0
603,56.0,0.0,60.0,13.0,0.0
604,32.0,0.0,60.0,15.0,0.0
605,72.0,10.0,30.0,11.0,0.0
606,75.0,0.0,30.0,11.0,0.0
607,36.0,0.0,30.0,15.0,0.0
608,56.0,55.0,120.0,13.0,0.0
609,48.0,15.0,30.0,14.0,0.0
610,63.0,0.0,30.0,12.0,0.0
611,61.0,0.0,30.0,12.0,0.0
612,41.0,0.0,30.0,15.0,0.0
613,53.0,5.0,30.0,14.0,0.0
614,73.0,0.0,30.0,11.0,0.0
615,56.0,35.0,60.0,13.0,0.0
616,60.0,0.0,30.0,12.0,0.0
617,72.0,10.0,30.0,11.0,0.0
618,39.0,0.0,30.0,15.0,0.0
619,51.0,0.0,30.0,14.0,0.0
620,49.0,30.0,240.0,14.0,0.0
621,37.0,0.0,240.0,15.0,0.0
622,72.0,80.0,30.0,11.0,0.0
623,60.0,0.0,30.0,12.0,0.0
624,53.0,0.0,240.0,13.0,0.0
625,58.0,40.0,90.0,12.0,0.0
626,70.0,0.0,90.0,11.0,0.0
627,69.0,80.0,30.0,11.0,0.0
628,57.0,0.0,30.0,12.0,0.0
629,70.0,0.0,90.0,11.0,0.0
630,58.0,10.0,90.0,12.0,0.0
631,72.0,0.0,30.0,11.0,0.0
632,60.0,80.0,30.0,12.0,0.0
633,61.0,40.0,90.0,12.0,0.0
634,73.0,0.0,90.0,11.0,0.0
635,55.0,0.0,120.0,13.0,0.0
636,37.0,0.0,120.0,15.0,0.0
637,75.0,0.0,30.0,11.0,0.0
638,63.0,80.0,30.0,12.0,0.0
639,49.0,40.0,120.0,14.0,0.0
640,77.0,0.0,90.0,11.0,0.0
641,65.0,0.0,90.0,12.0,0.0
642,56.0,0.0,240.0,13.0,0.0
643,36.0,30.0,240.0,15.0,0.0
644,48.0,0.0,240.0,14.0,0.0
645,65.0,0.0,30.0,12.0,0.0
646,77.0,80.0,30.0,11.0,0.0
647,63.0,40.0,90.0,12.0,0.0
648,75.0,0.0,90.0,11.0,0.0
649,61.0,80.0,30.0,12.0,0.0
650,73.0,0.0,30.0,11.0,0.0
651,72.0,10.0,90.0,11.0,0.0
652,60.0,0.0,90.0,12.0,0.0
653,58.0,80.0,30.0,12.0,0.0
654,70.0,0.0,30.0,11.0,0.0
655,56.0,0.0,90.0,12.0,0.0
656,68.0,40.0,90.0,11.0,0.0
657,51.0,0.0,120.0,13.0,0.0
658,55.0,0.0,30.0,12.0,0.0
659,36.0,0.0,120.0,15.0,0.0
660,67.0,80.0,30.0,11.0,0.0
661,48.0,0.0,120.0,14.0,0.0
662,56.0,40.0,90.0,12.0,0.0
663,68.0,0.0,90.0,11.0,0.0
664,51.0,80.0,30.0,13.0,0.0
665,49.0,0.0,120.0,14.0,0.0
666,37.0,0.0,120.0,15.0,0.0
667,55.0,0.0,30.0,12.0,0.0
668,67.0,0.0,30.0,11.0,0.0
669,65.0,40.0,90.0,11.0,0.0
670,49.0,0.0,90.0,13.0,0.0
671,53.0,0.0,90.0,12.0,0.0
672,53.0,0.0,30.0,13.0,0.0
673,34.0,0.0,120.0,15.0,0.0
674,73.0,0.0,30.0,11.0,0.0
675,61.0,80.0,30.0,12.0,0.0
676,46.0,120.0,120.0,14.0,0.0
677,58.0,0.0,90.0,12.0,0.0
678,61.0,0.0,90.0,13.0,0.0
679,70.0,0.0,90.0,11.0,0.0
680,60.0,10.0,120.0,13.0,0.0
681,56.0,0.0,120.0,12.0,0.0
682,68.0,110.0,120.0,11.0,0.0
683,39.0,0.0,120.0,15.0,0.0
684,51.0,0.0,120.0,14.0,0.0
685,27.0,240.0,120.0,15.0,0.0
686,58.0,0.0,120.0,12.0,0.0
687,55.0,0.0,120.0,13.0,0.0
688,70.0,0.0,120.0,11.0,0.0
689,39.0,0.0,120.0,14.0,0.0
690,55.0,0.0,240.0,13.0,0.0
691,71.0,0.0,240.0,11.0,0.0
692,59.0,45.0,240.0,12.0,0.0
693,44.0,10.0,120.0,14.0,0.0
694,32.0,0.0,120.0,15.0,0.0
695,56.0,0.0,60.0,13.0,0.0
696,44.0,0.0,30.0,14.0,0.0
697,32.0,10.0,30.0,15.0,0.0
698,72.0,0.0,60.0,11.0,0.0
699,60.0,50.0,60.0,12.0,0.0
700,56.0,55.0,120.0,13.0,0.0
701,48.0,0.0,30.0,14.0,0.0
702,75.0,0.0,30.0,11.0,0.0
703,36.0,0.0,30.0,15.0,0.0
704,63.0,60.0,30.0,12.0,0.0
705,61.0,5.0,30.0,12.0,0.0
706,41.0,0.0,30.0,15.0,0.0
707,53.0,0.0,30.0,14.0,0.0
708,73.0,0.0,30.0,11.0,0.0
709,60.0,0.0,30.0,12.0,0.0
710,39.0,0.0,30.0,15.0,0.0
711,72.0,0.0,30.0,11.0,0.0
712,56.0,35.0,60.0,13.0,0.0
713,51.0,10.0,30.0,14.0,0.0
714,53.0,0.0,240.0,13.0,0.0
715,49.0,0.0,240.0,14.0,0.0
716,60.0,0.0,30.0,12.0,0.0
717,37.0,30.0,240.0,15.0,0.0
718,72.0,80.0,30.0,11.0,0.0
719,70.0,40.0,90.0,11.0,0.0
720,58.0,0.0,90.0,12.0,0.0
721,69.0,0.0,30.0,11.0,0.0
722,57.0,80.0,30.0,12.0,0.0
723,58.0,10.0,90.0,12.0,0.0
724,70.0,0.0,90.0,11.0,0.0
725,60.0,80.0,30.0,12.0,0.0
726,72.0,0.0,30.0,11.0,0.0
727,61.0,0.0,90.0,12.0,0.0
728,73.0,40.0,90.0,11.0,0.0
729,75.0,0.0,30.0,11.0,0.0
730,49.0,0.0,120.0,14.0,0.0
731,37.0,40.0,120.0,15.0,0.0
732,63.0,80.0,30.0,12.0,0.0
733,55.0,0.0,120.0,13.0,0.0
734,65.0,0.0,90.0,12.0,0.0
735,77.0,0.0,90.0,11.0,0.0
736,65.0,80.0,30.0,12.0,0.0
737,48.0,0.0,240.0,14.0,0.0
738,56.0,0.0,240.0,13.0,0.0
739,77.0,0.0,30.0,11.0,0.0
740,36.0,30.0,240.0,15.0,0.0
741,75.0,0.0,90.0,11.0,0.0
742,63.0,40.0,90.0,12.0,0.0
743,73.0,80.0,30.0,11.0,0.0
744,61.0,0.0,30.0,12.0,0.0
745,72.0,10.0,90.0,11.0,0.0
746,60.0,0.0,90.0,12.0,0.0
747,58.0,0.0,30.0,12.0,0.0
748,70.0,80.0,30.0,11.0,0.0
749,68.0,40.0,90.0,11.0,0.0
750,56.0,0.0,90.0,12.0,0.0
751,55.0,0.0,30.0,12.0,0.0
752,36.0,0.0,120.0,15.0,0.0
753,51.0,40.0,120.0,13.0,0.0
754,67.0,80.0,30.0,11.0,0.0
755,48.0,0.0,120.0,14.0,0.0
756,68.0,0.0,90.0,11.0,0.0
757,56.0,0.0,90.0,12.0,0.0
758,37.0,0.0,120.0,15.0,0.0
759,55.0,0.0,30.0,12.0,0.0
760,49.0,0.0,120.0,14.0,0.0
761,67.0,0.0,30.0,11.0,0.0
762,51.0,80.0,30.0,13.0,0.0
763,65.0,0.0,90.0,11.0,0.0
764,53.0,0.0,90.0,12.0,0.0
765,49.0,40.0,90.0,13.0,0.0
766,65.0,0.0,30.0,13.0,0.0
767,46.0,0.0,120.0,14.0,0.0
768,61.0,80.0,30.0,12.0,0.0
769,34.0,0.0,120.0,15.0,0.0
770,73.0,0.0,30.0,11.0,0.0
771,61.0,120.0,90.0,13.0,0.0
772,58.0,0.0,90.0,12.0,0.0
773,70.0,0.0,90.0,11.0,0.0
774,39.0,0.0,120.0,15.0,0.0
775,51.0,120.0,120.0,14.0,0.0
776,68.0,0.0,120.0,11.0,0.0
777,56.0,0.0,120.0,12.0,0.0
778,60.0,0.0,120.0,13.0,0.0
779,27.0,0.0,120.0,15.0,0.0
780,67.0,0.0,120.0,11.0,0.0
781,39.0,0.0,120.0,14.0,0.0
782,55.0,0.0,120.0,12.0,0.0
783,58.0,120.0,120.0,13.0,0.0
784,44.0,0.0,240.0,14.0,0.0
785,68.0,0.0,120.0,11.0,0.0
786,56.0,40.0,120.0,12.0,0.0
787,32.0,0.0,240.0,15.0,0.0
788,56.0,30.0,240.0,13.0,0.0
789,75.0,15.0,30.0,11.0,0.0
790,72.0,15.0,30.0,12.0,0.0
791,77.0,30.0,30.0,11.0,0.0
792,70.0,15.0,30.0,12.0,0.0
793,73.0,15.0,30.0,11.0,0.0
794,75.0,0.0,30.0,11.0,0.0
795,72.0,15.0,30.0,11.0,0.0
796,68.0,15.0,30.0,12.0,0.0
797,73.0,30.0,30.0,11.0,0.0
798,61.0,0.0,30.0,13.0,0.0
799,70.0,15.0,30.0,11.0,0.0
800,65.0,10.0,30.0,12.0,0.0
801,72.0,35.0,20.0,11.0,0.0
802,80.0,0.0,30.0,0.0,0.0
803,72.0,0.0,30.0,0.0,0.0
804,63.0,0.0,30.0,12.0,0.0
805,51.0,5.0,120.0,14.0,0.0
806,60.0,10.0,30.0,13.0,0.0
807,68.0,15.0,30.0,11.0,0.0
808,39.0,0.0,120.0,15.0,0.0
809,70.0,35.0,20.0,11.0,0.0
810,67.0,15.0,30.0,11.0,0.0
811,70.0,0.0,30.0,0.0,0.0
812,79.0,5.0,30.0,0.0,0.0
813,61.0,0.0,30.0,12.0,0.0
814,58.0,0.0,30.0,13.0,0.0
815,70.0,65.0,20.0,11.0,0.0
816,68.0,30.0,120.0,0.0,0.0
817,80.0,0.0,120.0,0.0,0.0
818,32.0,30.0,240.0,15.0,0.0
819,44.0,0.0,240.0,14.0,0.0
820,60.0,5.0,120.0,12.0,0.0
821,68.0,50.0,60.0,11.0,0.0
822,56.0,0.0,120.0,13.0,0.0
823,63.0,5.0,60.0,11.0,0.0
824,75.0,15.0,30.0,11.0,0.0
825,72.0,15.0,30.0,12.0,0.0
826,77.0,30.0,30.0,11.0,0.0
827,73.0,15.0,30.0,11.0,0.0
828,70.0,15.0,30.0,12.0,0.0
829,75.0,0.0,30.0,11.0,0.0
830,72.0,15.0,30.0,11.0,0.0
831,68.0,15.0,30.0,12.0,0.0
832,73.0,30.0,30.0,11.0,0.0
833,70.0,15.0,30.0,11.0,0.0
834,65.0,0.0,30.0,12.0,0.0
835,61.0,10.0,30.0,13.0,0.0
836,72.0,35.0,20.0,11.0,0.0
837,63.0,0.0,30.0,12.0,0.0
838,68.0,15.0,30.0,11.0,0.0
839,39.0,0.0,120.0,15.0,0.0
840,72.0,0.0,30.0,0.0,0.0
841,51.0,5.0,120.0,14.0,0.0
842,80.0,0.0,30.0,0.0,0.0
843,60.0,10.0,30.0,13.0,0.0
844,70.0,35.0,20.0,11.0,0.0
845,58.0,5.0,30.0,13.0,0.0
846,70.0,0.0,30.0,0.0,0.0
847,61.0,0.0,30.0,12.0,0.0
848,79.0,0.0,30.0,0.0,0.0
849,67.0,15.0,30.0,11.0,0.0
850,70.0,115.0,20.0,11.0,0.0
851,68.0,0.0,120.0,11.0,0.0
852,68.0,0.0,120.0,0.0,0.0
853,80.0,0.0,120.0,0.0,0.0
854,60.0,0.0,120.0,12.0,0.0
855,56.0,0.0,120.0,13.0,0.0
856,32.0,40.0,120.0,15.0,0.0
857,44.0,0.0,120.0,14.0,0.0
858,44.0,0.0,30.0,14.0,0.0
859,56.0,0.0,30.0,12.0,0.0
860,68.0,0.0,30.0,0.0,0.0
861,32.0,15.0,30.0,15.0,0.0
862,44.0,0.0,30.0,13.0,0.0
863,56.0,15.0,30.0,11.0,0.0
864,60.0,30.0,30.0,12.0,0.0
865,60.0,0.0,30.0,11.0,0.0
866,58.0,0.0,30.0,11.0,0.0
867,46.0,0.0,30.0,13.0,0.0
868,46.0,0.0,30.0,14.0,0.0
869,34.0,0.0,30.0,15.0,0.0
870,70.0,15.0,30.0,0.0,0.0
871,58.0,15.0,30.0,12.0,0.0
872,61.0,30.0,30.0,12.0,0.0
873,61.0,0.0,30.0,11.0,0.0
874,60.0,0.0,30.0,12.0,0.0
875,36.0,15.0,30.0,15.0,0.0
876,60.0,15.0,30.0,11.0,0.0
877,48.0,0.0,30.0,14.0,0.0
878,48.0,0.0,30.0,13.0,0.0
879,72.0,0.0,30.0,0.0,0.0
880,63.0,30.0,30.0,11.0,0.0
881,63.0,0.0,30.0,12.0,0.0
882,49.0,0.0,30.0,14.0,0.0
883,61.0,15.0,30.0,12.0,0.0
884,37.0,15.0,30.0,15.0,0.0
885,49.0,0.0,30.0,13.0,0.0
886,73.0,0.0,30.0,0.0,0.0
887,61.0,0.0,30.0,11.0,0.0
888,65.0,30.0,30.0,12.0,0.0
889,65.0,0.0,30.0,11.0,0.0
890,63.0,0.0,30.0,11.0,0.0
891,63.0,15.0,30.0,12.0,0.0
892,51.0,15.0,30.0,14.0,0.0
893,39.0,0.0,30.0,15.0,0.0
894,51.0,0.0,30.0,13.0,0.0
895,75.0,0.0,30.0,0.0,0.0
896,66.0,30.0,30.0,12.0,0.0
897,66.0,0.0,30.0,11.0,0.0
898,53.0,0.0,30.0,13.0,0.0
899,53.0,0.0,30.0,14.0,0.0
900,65.0,0.0,30.0,12.0,0.0
901,65.0,15.0,30.0,11.0,0.0
902,77.0,10.0,30.0,0.0,0.0
903,41.0,0.0,30.0,15.0,0.0
904,68.0,0.0,20.0,12.0,0.0
905,68.0,115.0,20.0,11.0,0.0
906,54.0,0.0,120.0,14.0,0.0
907,78.0,0.0,120.0,0.0,0.0
908,42.0,0.0,120.0,15.0,0.0
909,66.0,40.0,120.0,12.0,0.0
910,66.0,0.0,120.0,11.0,0.0
911,54.0,0.0,120.0,13.0,0.0
912,68.0,0.0,30.0,0.0,0.0
913,56.0,0.0,30.0,11.0,0.0
914,56.0,15.0,30.0,12.0,0.0
915,44.0,15.0,30.0,14.0,0.0
916,44.0,0.0,30.0,13.0,0.0
917,32.0,0.0,30.0,15.0,0.0
918,60.0,0.0,30.0,11.0,0.0
919,60.0,30.0,30.0,12.0,0.0
920,46.0,15.0,30.0,14.0,0.0
921,46.0,0.0,30.0,13.0,0.0
922,34.0,0.0,30.0,15.0,0.0
923,58.0,0.0,30.0,12.0,0.0
924,58.0,15.0,30.0,11.0,0.0
925,70.0,0.0,30.0,0.0,0.0
926,61.0,30.0,30.0,12.0,0.0
927,61.0,0.0,30.0,11.0,0.0
928,60.0,0.0,30.0,11.0,0.0
929,60.0,15.0,30.0,12.0,0.0
930,72.0,0.0,30.0,0.0,0.0
931,36.0,0.0,30.0,15.0,0.0
932,48.0,0.0,30.0,13.0,0.0
933,48.0,15.0,30.0,14.0,0.0
934,63.0,30.0,30.0,12.0,0.0
935,63.0,0.0,30.0,11.0,0.0
936,37.0,0.0,30.0,15.0,0.0
937,49.0,15.0,30.0,14.0,0.0
938,61.0,15.0,30.0,12.0,0.0
939,61.0,0.0,30.0,11.0,0.0
940,73.0,0.0,30.0,0.0,0.0
941,49.0,0.0,30.0,13.0,0.0
942,65.0,30.0,30.0,11.0,0.0
943,65.0,0.0,30.0,12.0,0.0
944,63.0,0.0,30.0,11.0,0.0
945,51.0,15.0,30.0,14.0,0.0
946,63.0,15.0,30.0,12.0,0.0
947,51.0,0.0,30.0,13.0,0.0
948,75.0,0.0,30.0,0.0,0.0
949,39.0,0.0,30.0,15.0,0.0
950,66.0,30.0,30.0,12.0,0.0
951,66.0,0.0,30.0,11.0,0.0
952,41.0,10.0,30.0,15.0,0.0
953,65.0,0.0,30.0,12.0,0.0
954,53.0,0.0,30.0,13.0,0.0
955,65.0,15.0,30.0,11.0,0.0
956,77.0,0.0,30.0,0.0,0.0
957,53.0,0.0,30.0,14.0,0.0
958,68.0,0.0,20.0,12.0,0.0
959,68.0,125.0,20.0,11.0,0.0
960,66.0,0.0,120.0,12.0,0.0
961,78.0,0.0,120.0,0.0,0.0
962,42.0,0.0,120.0,15.0,0.0
963,66.0,990.0,120.0,11.0,0.0
964,54.0,0.0,120.0,13.0,0.0
965,54.0,0.0,120.0,14.0,0.0
966,77.0,0.0,720.0,0.0,0.0
967,65.0,30.0,720.0,0.0,0.0
968,65.0,0.0,720.0,1.0,0.0
969,53.0,0.0,720.0,1.0,0.0
970,58.0,0.0,240.0,13.0,0.0
971,46.0,0.0,240.0,14.0,0.0
972,34.0,0.0,240.0,15.0,0.0
973,61.0,0.0,240.0,12.0,0.0
974,77.0,30.0,30.0,11.0,0.0
975,78.0,30.0,30.0,11.0,0.0
976,75.0,30.0,30.0,11.0,0.0
977,77.0,0.0,30.0,11.0,0.0
978,73.0,30.0,30.0,11.0,0.0
979,75.0,30.0,30.0,11.0,0.0
980,72.0,24.0,30.0,11.0,0.0
981,73.0,36.0,20.0,11.0,0.0
982,36.0,0.0,120.0,15.0,0.0
983,60.0,6.0,120.0,13.0,0.0
984,70.0,26.0,30.0,11.0,0.0
985,63.0,0.0,120.0,12.0,0.0
986,48.0,0.0,120.0,14.0,0.0
987,72.0,34.0,30.0,11.0,0.0
988,69.0,20.0,30.0,11.0,0.0
989,72.0,64.0,30.0,11.0,0.0
990,37.0,0.0,240.0,15.0,0.0
991,70.0,55.0,60.0,11.0,0.0
992,49.0,0.0,240.0,14.0,0.0
993,65.0,30.0,240.0,12.0,0.0
994,61.0,0.0,240.0,13.0,0.0
995,65.0,35.0,60.0,11.0,0.0
996,77.0,30.0,30.0,11.0,0.0
997,78.0,30.0,30.0,11.0,0.0
998,75.0,30.0,30.0,11.0,0.0
999,77.0,0.0,30.0,11.0,0.0
1000,73.0,30.0,30.0,11.0,0.0
1001,75.0,30.0,30.0,11.0,0.0
1002,72.0,24.0,30.0,11.0,0.0
1003,73.0,36.0,20.0,11.0,0.0
1004,60.0,0.0,120.0,13.0,0.0
1005,63.0,0.0,120.0,12.0,0.0
1006,48.0,0.0,120.0,14.0,0.0
1007,70.0,24.0,30.0,11.0,0.0
1008,36.0,4.0,120.0,15.0,0.0
1009,72.0,36.0,20.0,11.0,0.0
1010,69.0,20.0,30.0,11.0,0.0
1011,72.0,66.0,20.0,11.0,0.0
1012,46.0,30.0,240.0,14.0,0.0
1013,34.0,0.0,240.0,15.0,0.0
1014,61.0,60.0,960.0,1.0,0.0
1015,61.0,0.0,240.0,12.0,0.0
1016,70.0,55.0,60.0,11.0,0.0
1017,49.0,0.0,960.0,1.0,0.0
1018,58.0,0.0,240.0,13.0,0.0
1019,65.0,35.0,60.0,11.0,0.0
1020,73.0,30.0,30.0,11.0,0.0
1021,75.0,30.0,30.0,11.0,0.0
1022,71.0,30.0,30.0,11.0,0.0
1023,73.0,0.0,30.0,11.0,0.0
1024,70.0,30.0,30.0,11.0,0.0
1025,71.0,30.0,30.0,11.0,0.0
1026,68.0,24.0,30.0,11.0,0.0
1027,70.0,36.0,20.0,11.0,0.0
1028,44.0,0.0,120.0,14.0,0.0
1029,32.0,0.0,120.0,15.0,0.0
1030,56.0,4.0,120.0,13.0,0.0
1031,59.0,0.0,120.0,12.0,0.0
1032,66.0,24.0,30.0,11.0,0.0
1033,68.0,36.0,20.0,11.0,0.0
1034,65.0,20.0,30.0,11.0,0.0
1035,68.0,66.0,20.0,11.0,0.0
1036,58.0,0.0,240.0,12.0,0.0
1037,66.0,55.0,60.0,11.0,0.0
1038,42.0,0.0,240.0,14.0,0.0
1039,54.0,30.0,240.0,13.0,0.0
1040,30.0,0.0,240.0,15.0,0.0
1041,61.0,35.0,60.0,11.0,0.0
1042,73.0,30.0,30.0,11.0,0.0
1043,75.0,30.0,30.0,11.0,0.0
1044,71.0,30.0,30.0,11.0,0.0
1045,73.0,0.0,30.0,11.0,0.0
1046,70.0,30.0,30.0,11.0,0.0
1047,71.0,30.0,30.0,11.0,0.0
1048,68.0,24.0,30.0,11.0,0.0
1049,70.0,36.0,20.0,11.0,0.0
1050,44.0,0.0,120.0,14.0,0.0
1051,56.0,0.0,120.0,13.0,0.0
1052,32.0,4.0,120.0,15.0,0.0
1053,66.0,24.0,30.0,11.0,0.0
1054,59.0,0.0,120.0,12.0,0.0
1055,68.0,36.0,20.0,11.0,0.0
1056,65.0,20.0,30.0,11.0,0.0
1057,68.0,6.0,20.0,11.0,0.0
1058,46.0,0.0,240.0,14.0,0.0
1059,58.0,0.0,240.0,13.0,0.0
1060,61.0,0.0,240.0,12.0,0.0
1061,34.0,30.0,240.0,15.0,0.0
1062,66.0,55.0,60.0,11.0,0.0
1063,61.0,35.0,60.0,11.0,0.0
1064,70.0,30.0,30.0,11.0,0.0
1065,71.0,30.0,30.0,11.0,0.0
1066,68.0,30.0,30.0,11.0,0.0
1067,70.0,0.0,30.0,11.0,0.0
1068,66.0,30.0,30.0,11.0,0.0
1069,68.0,30.0,30.0,11.0,0.0
1070,65.0,24.0,30.0,11.0,0.0
1071,66.0,36.0,20.0,11.0,0.0
1072,29.0,0.0,120.0,15.0,0.0
1073,63.0,30.0,30.0,11.0,0.0
1074,53.0,4.0,120.0,13.0,0.0
1075,41.0,0.0,120.0,14.0,0.0
1076,56.0,0.0,120.0,12.0,0.0
1077,65.0,30.0,30.0,11.0,0.0
1078,62.0,20.0,30.0,11.0,0.0
1079,65.0,66.0,20.0,11.0,0.0
1080,39.0,0.0,240.0,14.0,0.0
1081,54.0,0.0,240.0,12.0,0.0
1082,51.0,0.0,240.0,13.0,0.0
1083,27.0,30.0,240.0,15.0,0.0
1084,63.0,55.0,60.0,11.0,0.0
1085,58.0,35.0,60.0,11.0,0.0
1086,70.0,30.0,30.0,11.0,0.0
1087,71.0,30.0,30.0,11.0,0.0
1088,68.0,30.0,30.0,11.0,0.0
1089,70.0,0.0,30.0,11.0,0.0
1090,66.0,30.0,30.0,11.0,0.0
1091,68.0,30.0,30.0,11.0,0.0
1092,65.0,24.0,30.0,11.0,0.0
1093,66.0,36.0,20.0,11.0,0.0
1094,53.0,4.0,120.0,13.0,0.0
1095,56.0,0.0,120.0,12.0,0.0
1096,63.0,30.0,30.0,11.0,0.0
1097,29.0,0.0,120.0,15.0,0.0
1098,41.0,0.0,120.0,14.0,0.0
1099,65.0,30.0,30.0,11.0,0.0
1100,62.0,20.0,30.0,11.0,0.0
1101,65.0,66.0,20.0,11.0,0.0
1102,58.0,5.0,120.0,12.0,0.0
1103,30.0,0.0,240.0,15.0,0.0
1104,42.0,0.0,240.0,14.0,0.0
1105,54.0,0.0,240.0,13.0,0.0
1106,63.0,50.0,60.0,11.0,0.0
1107,58.0,35.0,60.0,11.0,0.0
1108,80.0,15.0,30.0,11.0,0.0
1109,77.0,15.0,30.0,0.0,0.0
1110,77.0,0.0,30.0,12.0,0.0
1111,80.0,0.0,30.0,0.0,0.0
1112,82.0,30.0,30.0,11.0,0.0
1113,75.0,15.0,30.0,12.0,0.0
1114,75.0,0.0,30.0,0.0,0.0
1115,78.0,0.0,30.0,0.0,0.0
1116,78.0,15.0,30.0,11.0,0.0
1117,80.0,30.0,30.0,11.0,0.0
1118,65.0,15.0,30.0,1.0,0.0
1119,73.0,0.0,30.0,0.0,0.0
1120,77.0,0.0,30.0,0.0,0.0
1121,77.0,15.0,30.0,11.0,0.0
1122,68.0,0.0,30.0,1.0,0.0
1123,73.0,0.0,30.0,12.0,0.0
1124,78.0,30.0,30.0,11.0,0.0
1125,70.0,0.0,30.0,12.0,0.0
1126,66.0,0.0,30.0,1.0,0.0
1127,63.0,0.0,30.0,1.0,0.0
1128,75.0,15.0,30.0,11.0,0.0
1129,66.0,9.0,30.0,13.0,0.0
1130,75.0,0.0,30.0,0.0,0.0
1131,70.0,0.0,30.0,0.0,0.0
1132,77.0,36.0,20.0,11.0,0.0
1133,65.0,0.0,30.0,1.0,0.0
1134,44.0,4.0,120.0,14.0,0.0
1135,65.0,0.0,30.0,13.0,0.0
1136,32.0,0.0,120.0,15.0,0.0
1137,73.0,15.0,30.0,11.0,0.0
1138,73.0,9.0,30.0,0.0,0.0
1139,68.0,0.0,30.0,12.0,0.0
1140,68.0,0.0,30.0,0.0,0.0
1141,61.0,0.0,30.0,1.0,0.0
1142,75.0,36.0,20.0,11.0,0.0
1143,66.0,0.0,30.0,12.0,0.0
1144,66.0,5.0,30.0,0.0,0.0
1145,72.0,15.0,30.0,11.0,0.0
1146,72.0,0.0,30.0,0.0,0.0
1147,63.0,0.0,30.0,1.0,0.0
1148,63.0,0.0,30.0,13.0,0.0
1149,56.0,0.0,30.0,1.0,0.0
1150,75.0,51.0,20.0,11.0,0.0
1151,65.0,0.0,120.0,12.0,0.0
1152,37.0,30.0,240.0,15.0,0.0
1153,53.0,0.0,120.0,1.0,0.0
1154,61.0,0.0,240.0,13.0,0.0
1155,61.0,15.0,30.0,1.0,0.0
1156,73.0,45.0,60.0,11.0,0.0
1157,49.0,0.0,240.0,14.0,0.0
1158,65.0,5.0,120.0,0.0,0.0
1159,73.0,0.0,120.0,0.0,0.0
1160,56.0,5.0,30.0,1.0,0.0
1161,68.0,35.0,60.0,11.0,0.0
1162,49.0,10.0,120.0,1.0,0.0
1163,53.0,0.0,120.0,1.0,0.0
1164,77.0,15.0,30.0,12.0,0.0
1165,80.0,0.0,30.0,0.0,0.0
1166,80.0,15.0,30.0,11.0,0.0
1167,77.0,0.0,30.0,0.0,0.0
1168,82.0,30.0,30.0,11.0,0.0
1169,75.0,0.0,30.0,0.0,0.0
1170,78.0,0.0,30.0,0.0,0.0
1171,75.0,5.0,30.0,12.0,0.0
1172,78.0,15.0,30.0,11.0,0.0
1173,80.0,0.0,30.0,11.0,0.0
1174,73.0,0.0,30.0,12.0,0.0
1175,77.0,0.0,30.0,0.0,0.0
1176,68.0,15.0,30.0,1.0,0.0
1177,65.0,0.0,30.0,1.0,0.0
1178,73.0,0.0,30.0,0.0,0.0
1179,77.0,15.0,30.0,11.0,0.0
1180,78.0,30.0,30.0,11.0,0.0
1181,70.0,9.0,30.0,0.0,0.0
1182,66.0,0.0,30.0,1.0,0.0
1183,75.0,0.0,30.0,0.0,0.0
1184,66.0,0.0,30.0,13.0,0.0
1185,70.0,0.0,30.0,12.0,0.0
1186,75.0,15.0,30.0,11.0,0.0
1187,63.0,0.0,30.0,1.0,0.0
1188,77.0,36.0,20.0,11.0,0.0
1189,73.0,9.0,30.0,0.0,0.0
1190,61.0,0.0,30.0,1.0,0.0
1191,44.0,4.0,120.0,14.0,0.0
1192,65.0,0.0,30.0,13.0,0.0
1193,32.0,0.0,120.0,15.0,0.0
1194,73.0,15.0,30.0,11.0,0.0
1195,68.0,0.0,30.0,12.0,0.0
1196,68.0,0.0,30.0,0.0,0.0
1197,65.0,0.0,30.0,1.0,0.0
1198,75.0,36.0,20.0,11.0,0.0
1199,63.0,0.0,30.0,1.0,0.0
1200,63.0,5.0,30.0,13.0,0.0
1201,72.0,0.0,30.0,0.0,0.0
1202,66.0,0.0,30.0,12.0,0.0
1203,56.0,0.0,30.0,1.0,0.0
1204,66.0,0.0,30.0,0.0,0.0
1205,72.0,15.0,30.0,11.0,0.0
1206,75.0,126.0,20.0,11.0,0.0
1207,65.0,0.0,120.0,12.0,0.0
1208,37.0,0.0,120.0,15.0,0.0
1209,53.0,0.0,120.0,1.0,0.0
1210,61.0,0.0,120.0,1.0,0.0
1211,61.0,0.0,120.0,13.0,0.0
1212,65.0,0.0,120.0,0.0,0.0
1213,73.0,0.0,120.0,0.0,0.0
1214,73.0,240.0,120.0,11.0,0.0
1215,49.0,0.0,120.0,14.0,0.0
1216,34.0,240.0,120.0,15.0,0.0
1217,61.0,0.0,120.0,12.0,0.0
1218,79.0,0.0,120.0,0.0,0.0
1219,73.0,0.0,120.0,0.0,0.0
1220,67.0,0.0,120.0,11.0,0.0
1221,63.0,0.0,120.0,1.0,0.0
1222,61.0,0.0,120.0,1.0,0.0
1223,51.0,0.0,120.0,13.0,0.0
1224,46.0,0.0,120.0,14.0,0.0
1225,80.0,0.0,120.0,0.0,0.0
1226,72.0,0.0,120.0,0.0,0.0
1227,68.0,350.0,120.0,11.0,0.0
1228,51.0,0.0,120.0,13.0,0.0
1229,63.0,0.0,120.0,1.0,0.0
1230,60.0,0.0,120.0,12.0,0.0
1231,56.0,0.0,120.0,1.0,0.0
1232,32.0,0.0,120.0,15.0,0.0
1233,44.0,0.0,120.0,14.0,0.0
1234,61.0,70.0,120.0,11.0,0.0
1235,53.0,50.0,60.0,12.0,0.0
1236,49.0,0.0,240.0,14.0,0.0
1237,61.0,0.0,240.0,13.0,0.0
1238,37.0,60.0,240.0,15.0,0.0
1239,68.0,10.0,120.0,11.0,0.0
1240,56.0,60.0,60.0,12.0,0.0
1241,68.0,0.0,120.0,11.0,0.0
1242,61.0,50.0,60.0,12.0,0.0
1243,65.0,10.0,60.0,12.0,0.0
1244,65.0,50.0,60.0,12.0,0.0
1245,68.0,10.0,120.0,11.0,0.0
1246,61.0,60.0,60.0,12.0,0.0
1247,49.0,0.0,120.0,14.0,0.0
1248,56.0,50.0,60.0,12.0,0.0
1249,37.0,0.0,120.0,15.0,0.0
1250,68.0,0.0,120.0,11.0,0.0
1251,61.0,70.0,120.0,13.0,0.0
1252,53.0,0.0,60.0,12.0,0.0
1253,36.0,60.0,240.0,15.0,0.0
1254,68.0,10.0,240.0,11.0,0.0
1255,60.0,0.0,240.0,13.0,0.0
1256,48.0,0.0,240.0,14.0,0.0
1257,51.0,60.0,60.0,12.0,0.0
1258,56.0,60.0,60.0,12.0,0.0
1259,60.0,50.0,60.0,12.0,0.0
1260,63.0,0.0,60.0,12.0,0.0
1261,61.0,0.0,60.0,12.0,0.0
1262,67.0,60.0,60.0,11.0,0.0
1263,68.0,0.0,60.0,11.0,0.0
1264,60.0,60.0,60.0,12.0,0.0
1265,36.0,0.0,120.0,15.0,0.0
1266,70.0,50.0,60.0,11.0,0.0
1267,60.0,5.0,120.0,13.0,0.0
1268,58.0,0.0,60.0,12.0,0.0
1269,48.0,0.0,120.0,14.0,0.0
1270,72.0,65.0,60.0,11.0,0.0
1271,56.0,0.0,60.0,12.0,0.0
1272,46.0,0.0,240.0,14.0,0.0
1273,58.0,60.0,240.0,13.0,0.0
1274,34.0,0.0,240.0,15.0,0.0
1275,53.0,50.0,60.0,12.0,0.0
1276,73.0,10.0,120.0,11.0,0.0
1277,58.0,60.0,60.0,12.0,0.0
1278,61.0,50.0,60.0,12.0,0.0
1279,73.0,0.0,120.0,11.0,0.0
1280,65.0,10.0,60.0,12.0,0.0
1281,65.0,50.0,60.0,12.0,0.0
1282,73.0,10.0,120.0,11.0,0.0
1283,61.0,60.0,60.0,12.0,0.0
1284,73.0,20.0,120.0,11.0,0.0
1285,46.0,0.0,120.0,14.0,0.0
1286,58.0,50.0,60.0,12.0,0.0
1287,34.0,0.0,120.0,15.0,0.0
1288,58.0,0.0,120.0,13.0,0.0
1289,53.0,0.0,60.0,12.0,0.0
1290,56.0,10.0,60.0,12.0,0.0
1291,41.0,60.0,240.0,14.0,0.0
1292,53.0,0.0,240.0,13.0,0.0
1293,29.0,0.0,240.0,15.0,0.0
1294,73.0,10.0,15.0,11.0,0.0
1295,75.0,10.0,15.0,11.0,0.0
1296,73.0,10.0,15.0,11.0,0.0
1297,75.0,10.0,15.0,11.0,0.0
1298,73.0,10.0,15.0,11.0,0.0
1299,75.0,0.0,15.0,11.0,0.0
1300,73.0,10.0,15.0,11.0,0.0
1301,61.0,10.0,60.0,12.0,0.0
1302,75.0,10.0,15.0,11.0,0.0
1303,73.0,10.0,15.0,11.0,0.0
1304,75.0,10.0,15.0,11.0,0.0
1305,73.0,10.0,15.0,11.0,0.0
1306,75.0,0.0,15.0,11.0,0.0
1307,65.0,30.0,60.0,12.0,0.0
1308,73.0,10.0,15.0,11.0,0.0
1309,75.0,10.0,15.0,11.0,0.0
1310,73.0,10.0,15.0,11.0,0.0
1311,75.0,20.0,15.0,11.0,0.0
1312,73.0,0.0,20.0,11.0,0.0
1313,68.0,5.0,60.0,12.0,0.0
1314,72.0,20.0,30.0,11.0,0.0
1315,70.0,5.0,20.0,11.0,0.0
1316,68.0,60.0,60.0,12.0,0.0
1317,68.0,20.0,240.0,11.0,0.0
1318,65.0,60.0,60.0,12.0,0.0
1319,53.0,0.0,120.0,14.0,0.0
1320,41.0,0.0,120.0,15.0,0.0
1321,53.0,0.0,120.0,13.0,0.0
1322,61.0,50.0,60.0,12.0,0.0
1323,56.0,0.0,60.0,12.0,0.0
1324,58.0,0.0,60.0,12.0,0.0
1325,66.0,10.0,15.0,11.0,0.0
1326,51.0,0.0,240.0,13.0,0.0
1327,39.0,60.0,240.0,15.0,0.0
1328,51.0,0.0,240.0,14.0,0.0
1329,68.0,10.0,15.0,11.0,0.0
1330,66.0,10.0,15.0,11.0,0.0
1331,68.0,10.0,15.0,11.0,0.0
1332,66.0,10.0,15.0,11.0,0.0
1333,68.0,10.0,15.0,11.0,0.0
1334,51.0,0.0,60.0,12.0,0.0
1335,66.0,10.0,15.0,11.0,0.0
1336,68.0,10.0,15.0,11.0,0.0
1337,66.0,10.0,15.0,11.0,0.0
1338,68.0,10.0,15.0,11.0,0.0
1339,66.0,10.0,15.0,11.0,0.0
1340,68.0,10.0,15.0,11.0,0.0
1341,66.0,10.0,15.0,11.0,0.0
1342,54.0,30.0,60.0,12.0,0.0
1343,68.0,10.0,15.0,11.0,0.0
1344,66.0,10.0,15.0,11.0,0.0
1345,68.0,20.0,15.0,11.0,0.0
1346,66.0,0.0,20.0,11.0,0.0
1347,65.0,20.0,30.0,11.0,0.0
1348,51.0,10.0,60.0,12.0,0.0
1349,66.0,0.0,30.0,11.0,0.0
1350,63.0,0.0,60.0,12.0,0.0
1351,68.0,60.0,60.0,11.0,0.0
1352,66.0,60.0,60.0,11.0,0.0
1353,58.0,0.0,60.0,12.0,0.0
1354,42.0,0.0,120.0,14.0,0.0
1355,65.0,0.0,60.0,11.0,0.0
1356,46.0,0.0,120.0,13.0,0.0
1357,56.0,50.0,60.0,12.0,0.0
1358,30.0,5.0,120.0,15.0,0.0
1359,63.0,65.0,60.0,11.0,0.0
1360,54.0,0.0,60.0,12.0,0.0
1361,53.0,60.0,60.0,12.0,0.0
1362,32.0,0.0,240.0,15.0,0.0
1363,44.0,60.0,240.0,13.0,0.0
1364,61.0,0.0,240.0,11.0,0.0
1365,44.0,0.0,240.0,14.0,0.0
1366,56.0,60.0,60.0,12.0,0.0
1367,53.0,50.0,60.0,12.0,0.0
1368,56.0,10.0,60.0,12.0,0.0
1369,51.0,0.0,60.0,12.0,0.0
1370,60.0,60.0,60.0,11.0,0.0
1371,70.0,0.0,60.0,11.0,0.0
1372,63.0,60.0,60.0,12.0,0.0
1373,68.0,50.0,60.0,11.0,0.0
1374,54.0,0.0,120.0,14.0,0.0
1375,60.0,0.0,60.0,12.0,0.0
1376,51.0,0.0,120.0,13.0,0.0
1377,42.0,5.0,120.0,15.0,0.0
1378,60.0,65.0,60.0,11.0,0.0
1379,56.0,0.0,60.0,12.0,0.0
1380,49.0,10.0,120.0,13.0,0.0
1381,41.0,0.0,120.0,15.0,0.0
1382,53.0,0.0,120.0,14.0,0.0
1383,56.0,60.0,120.0,12.0,0.0
1384,61.0,50.0,60.0,11.0,0.0
1385,65.0,0.0,60.0,11.0,0.0
1386,61.0,0.0,120.0,12.0,0.0
1387,68.0,50.0,60.0,11.0,0.0
1388,53.0,5.0,120.0,14.0,0.0
1389,61.0,0.0,240.0,13.0,0.0
1390,41.0,0.0,120.0,15.0,0.0
1391,73.0,115.0,60.0,11.0,0.0
1392,39.0,10.0,120.0,15.0,0.0
1393,58.0,10.0,120.0,12.0,0.0
1394,51.0,0.0,120.0,14.0,0.0
1395,68.0,0.0,120.0,11.0,0.0
1396,63.0,0.0,120.0,13.0,0.0
1397,60.0,10.0,120.0,12.0,0.0
1398,44.0,0.0,120.0,14.0,0.0
1399,66.0,10.0,15.0,11.0,0.0
1400,32.0,0.0,120.0,15.0,0.0
1401,68.0,10.0,15.0,11.0,0.0
1402,66.0,10.0,15.0,11.0,0.0
1403,68.0,10.0,15.0,11.0,0.0
1404,66.0,10.0,15.0,11.0,0.0
1405,68.0,10.0,15.0,11.0,0.0
1406,66.0,10.0,15.0,11.0,0.0
1407,68.0,10.0,15.0,11.0,0.0
1408,66.0,15.0,15.0,11.0,0.0
1409,65.0,5.0,15.0,11.0,0.0
1410,66.0,110.0,15.0,11.0,0.0
1411,37.0,0.0,240.0,15.0,0.0
1412,49.0,0.0,240.0,14.0,0.0
1413,61.0,0.0,120.0,12.0,0.0
1414,65.0,40.0,120.0,11.0,0.0
1415,56.0,0.0,240.0,13.0,0.0
1416,68.0,15.0,30.0,11.0,0.0
1417,65.0,15.0,30.0,12.0,0.0
1418,70.0,30.0,30.0,11.0,0.0
1419,66.0,15.0,30.0,11.0,0.0
1420,63.0,15.0,30.0,12.0,0.0
1421,68.0,30.0,30.0,11.0,0.0
1422,61.0,15.0,30.0,12.0,0.0
1423,65.0,15.0,30.0,11.0,0.0
1424,66.0,30.0,30.0,11.0,0.0
1425,54.0,0.0,30.0,13.0,0.0
1426,58.0,9.0,30.0,12.0,0.0
1427,63.0,15.0,30.0,11.0,0.0
1428,65.0,36.0,20.0,11.0,0.0
1429,68.0,0.0,30.0,0.0,0.0
1430,65.0,0.0,30.0,1.0,0.0
1431,61.0,0.0,30.0,1.0,0.0
1432,32.0,4.0,120.0,15.0,0.0
1433,44.0,0.0,120.0,14.0,0.0
1434,61.0,15.0,30.0,11.0,0.0
1435,56.0,9.0,30.0,12.0,0.0
1436,73.0,0.0,30.0,0.0,0.0
1437,53.0,0.0,30.0,13.0,0.0
1438,63.0,36.0,20.0,11.0,0.0
1439,66.0,0.0,30.0,0.0,0.0
1440,56.0,0.0,30.0,1.0,0.0
1441,51.0,0.0,30.0,13.0,0.0
1442,60.0,15.0,30.0,11.0,0.0
1443,63.0,5.0,30.0,1.0,0.0
1444,72.0,0.0,30.0,0.0,0.0
1445,54.0,0.0,30.0,12.0,0.0
1446,63.0,66.0,20.0,11.0,0.0
1447,61.0,50.0,60.0,11.0,0.0
1448,53.0,5.0,120.0,12.0,0.0
1449,73.0,30.0,120.0,0.0,0.0
1450,65.0,0.0,120.0,0.0,0.0
1451,49.0,30.0,240.0,14.0,0.0
1452,53.0,0.0,120.0,1.0,0.0
1453,37.0,0.0,240.0,15.0,0.0
1454,61.0,0.0,120.0,1.0,0.0
1455,49.0,0.0,120.0,13.0,0.0
1456,56.0,5.0,60.0,11.0,0.0
1457,68.0,15.0,30.0,11.0,0.0
1458,65.0,15.0,30.0,12.0,0.0
1459,70.0,30.0,30.0,11.0,0.0
1460,63.0,15.0,30.0,12.0,0.0
1461,66.0,15.0,30.0,11.0,0.0
1462,68.0,0.0,30.0,11.0,0.0
1463,61.0,15.0,30.0,12.0,0.0
1464,65.0,15.0,30.0,11.0,0.0
1465,66.0,30.0,30.0,11.0,0.0
1466,54.0,0.0,30.0,13.0,0.0
1467,63.0,15.0,30.0,11.0,0.0
1468,58.0,9.0,30.0,12.0,0.0
1469,65.0,36.0,20.0,11.0,0.0
1470,53.0,0.0,30.0,13.0,0.0
1471,65.0,0.0,30.0,1.0,0.0
1472,61.0,9.0,30.0,1.0,0.0
1473,73.0,0.0,30.0,0.0,0.0
1474,68.0,0.0,30.0,0.0,0.0
1475,32.0,4.0,120.0,15.0,0.0
1476,44.0,0.0,120.0,14.0,0.0
1477,61.0,15.0,30.0,11.0,0.0
1478,56.0,0.0,30.0,12.0,0.0
1479,63.0,36.0,20.0,11.0,0.0
1480,56.0,0.0,30.0,1.0,0.0
1481,63.0,0.0,30.0,1.0,0.0
1482,54.0,0.0,30.0,12.0,0.0
1483,66.0,0.0,30.0,0.0,0.0
1484,72.0,5.0,30.0,0.0,0.0
1485,60.0,15.0,30.0,11.0,0.0
1486,51.0,0.0,30.0,13.0,0.0
1487,63.0,96.0,20.0,11.0,0.0
1488,53.0,0.0,90.0,12.0,0.0
1489,37.0,0.0,90.0,15.0,0.0
1490,49.0,0.0,90.0,13.0,0.0
1491,61.0,120.0,90.0,11.0,0.0
1492,73.0,0.0,90.0,0.0,0.0
1493,53.0,0.0,90.0,1.0,0.0
1494,61.0,0.0,90.0,1.0,0.0
1495,65.0,0.0,90.0,0.0,0.0
1496,49.0,0.0,90.0,14.0,0.0
1497,56.0,0.0,90.0,11.0,0.0
1498,32.0,120.0,90.0,15.0,0.0
1499,68.0,0.0,90.0,0.0,0.0
1500,56.0,0.0,90.0,13.0,0.0
1501,44.0,0.0,90.0,14.0,0.0
1502,56.0,0.0,90.0,1.0,0.0
1503,56.0,0.0,90.0,12.0,0.0
1504,29.0,0.0,90.0,15.0,0.0
1505,53.0,0.0,90.0,1.0,0.0
1506,41.0,0.0,90.0,14.0,0.0
1507,65.0,0.0,90.0,0.0,0.0
1508,53.0,140.0,90.0,13.0,0.0
1509,53.0,0.0,90.0,12.0,0.0
1510,53.0,0.0,90.0,11.0,0.0
1511,61.0,70.0,120.0,11.0,0.0
1512,61.0,0.0,240.0,13.0,0.0
1513,49.0,60.0,240.0,14.0,0.0
1514,68.0,10.0,120.0,11.0,0.0
1515,53.0,50.0,60.0,12.0,0.0
1516,37.0,0.0,240.0,15.0,0.0
1517,56.0,60.0,60.0,12.0,0.0
1518,68.0,10.0,120.0,11.0,0.0
1519,61.0,50.0,60.0,12.0,0.0
1520,65.0,0.0,60.0,12.0,0.0
1521,65.0,50.0,60.0,12.0,0.0
1522,68.0,10.0,120.0,11.0,0.0
1523,61.0,60.0,60.0,12.0,0.0
1524,68.0,70.0,120.0,11.0,0.0
1525,49.0,0.0,120.0,14.0,0.0
1526,56.0,50.0,60.0,12.0,0.0
1527,61.0,0.0,120.0,13.0,0.0
1528,37.0,0.0,120.0,15.0,0.0
1529,53.0,0.0,60.0,12.0,0.0
1530,68.0,10.0,240.0,11.0,0.0
1531,60.0,0.0,240.0,13.0,0.0
1532,48.0,0.0,240.0,14.0,0.0
1533,36.0,60.0,240.0,15.0,0.0
1534,51.0,60.0,60.0,12.0,0.0
1535,56.0,60.0,60.0,12.0,0.0
1536,60.0,50.0,60.0,12.0,0.0
1537,63.0,0.0,60.0,12.0,0.0
1538,67.0,60.0,60.0,11.0,0.0
1539,61.0,0.0,60.0,12.0,0.0
1540,60.0,0.0,60.0,12.0,0.0
1541,68.0,60.0,60.0,11.0,0.0
1542,48.0,0.0,120.0,14.0,0.0
1543,58.0,0.0,60.0,12.0,0.0
1544,60.0,0.0,120.0,13.0,0.0
1545,36.0,5.0,120.0,15.0,0.0
1546,70.0,50.0,60.0,11.0,0.0
1547,56.0,0.0,60.0,12.0,0.0
1548,72.0,65.0,60.0,11.0,0.0
1549,34.0,0.0,240.0,15.0,0.0
1550,73.0,10.0,120.0,11.0,0.0
1551,58.0,0.0,240.0,13.0,0.0
1552,55.0,50.0,60.0,12.0,0.0
1553,46.0,60.0,240.0,14.0,0.0
1554,58.0,60.0,60.0,12.0,0.0
1555,63.0,50.0,60.0,12.0,0.0
1556,73.0,10.0,120.0,11.0,0.0
1557,67.0,0.0,60.0,12.0,0.0
1558,70.0,50.0,60.0,12.0,0.0
1559,73.0,10.0,120.0,11.0,0.0
1560,67.0,60.0,60.0,12.0,0.0
1561,43.0,20.0,120.0,14.0,0.0
1562,31.0,0.0,120.0,15.0,0.0
1563,63.0,50.0,60.0,12.0,0.0
1564,73.0,0.0,120.0,11.0,0.0
1565,55.0,0.0,120.0,13.0,0.0
1566,58.0,0.0,60.0,12.0,0.0
1567,51.0,0.0,120.0,13.0,0.0
1568,27.0,10.0,120.0,15.0,0.0
1569,73.0,10.0,15.0,11.0,0.0
1570,55.0,0.0,60.0,12.0,0.0
1571,39.0,0.0,120.0,14.0,0.0
1572,75.0,10.0,15.0,11.0,0.0
1573,73.0,10.0,15.0,11.0,0.0
1574,75.0,10.0,15.0,11.0,0.0
1575,73.0,10.0,15.0,11.0,0.0
1576,75.0,10.0,15.0,11.0,0.0
1577,58.0,10.0,60.0,12.0,0.0
1578,73.0,10.0,15.0,11.0,0.0
1579,75.0,10.0,15.0,11.0,0.0
1580,73.0,10.0,15.0,11.0,0.0
1581,75.0,10.0,15.0,11.0,0.0
1582,73.0,0.0,15.0,11.0,0.0
1583,75.0,0.0,15.0,11.0,0.0
1584,63.0,0.0,120.0,13.0,0.0
1585,73.0,10.0,15.0,11.0,0.0
1586,39.0,0.0,120.0,15.0,0.0
1587,63.0,30.0,60.0,12.0,0.0
1588,51.0,5.0,120.0,14.0,0.0
1589,75.0,10.0,15.0,11.0,0.0
1590,73.0,10.0,15.0,11.0,0.0
1591,75.0,20.0,15.0,11.0,0.0
1592,73.0,0.0,20.0,11.0,0.0
1593,55.0,0.0,60.0,12.0,0.0
1594,72.0,20.0,30.0,11.0,0.0
1595,70.0,65.0,20.0,11.0,0.0
1596,72.0,10.0,120.0,11.0,0.0
1597,56.0,0.0,120.0,13.0,0.0
1598,32.0,0.0,120.0,15.0,0.0
1599,44.0,0.0,120.0,14.0,0.0
1600,56.0,50.0,60.0,12.0,0.0
1601,60.0,60.0,60.0,12.0,0.0
1602,56.0,0.0,120.0,14.0,0.0
1603,68.0,0.0,120.0,13.0,0.0
1604,63.0,50.0,60.0,12.0,0.0
1605,44.0,70.0,120.0,15.0,0.0
1606,68.0,0.0,120.0,11.0,0.0
1607,68.0,0.0,60.0,12.0,0.0
1608,61.0,60.0,60.0,12.0,0.0
1609,66.0,60.0,240.0,13.0,0.0
1610,42.0,0.0,240.0,15.0,0.0
1611,54.0,0.0,240.0,14.0,0.0
1612,70.0,50.0,180.0,11.0,0.0
1613,60.0,60.0,60.0,12.0,0.0
1614,54.0,0.0,60.0,12.0,0.0
1615,72.0,5.0,60.0,11.0,0.0
1616,56.0,5.0,60.0,12.0,0.0
1617,73.0,30.0,90.0,11.0,0.0
1618,58.0,30.0,60.0,12.0,0.0
1619,61.0,60.0,60.0,12.0,0.0
1620,73.0,20.0,90.0,11.0,0.0
1621,66.0,30.0,60.0,12.0,0.0
1622,66.0,70.0,120.0,13.0,0.0
1623,54.0,0.0,120.0,14.0,0.0
1624,42.0,0.0,120.0,15.0,0.0
1625,70.0,0.0,60.0,12.0,0.0
1626,73.0,10.0,240.0,11.0,0.0
1627,65.0,60.0,240.0,13.0,0.0
1628,53.0,0.0,240.0,14.0,0.0
1629,68.0,60.0,60.0,12.0,0.0
1630,41.0,0.0,240.0,15.0,0.0
1631,61.0,60.0,60.0,12.0,0.0
1632,65.0,50.0,60.0,12.0,0.0
1633,68.0,0.0,60.0,12.0,0.0
1634,66.0,0.0,60.0,12.0,0.0
1635,72.0,60.0,60.0,11.0,0.0
1636,65.0,0.0,60.0,12.0,0.0
1637,73.0,60.0,60.0,11.0,0.0
1638,41.0,0.0,120.0,15.0,0.0
1639,65.0,0.0,120.0,13.0,0.0
1640,53.0,0.0,120.0,14.0,0.0
1641,75.0,0.0,60.0,11.0,0.0
1642,63.0,50.0,60.0,12.0,0.0
1643,77.0,65.0,60.0,11.0,0.0
1644,61.0,5.0,60.0,12.0,0.0
1645,51.0,0.0,240.0,14.0,0.0
1646,78.0,10.0,120.0,11.0,0.0
1647,63.0,60.0,240.0,13.0,0.0
1648,60.0,50.0,60.0,12.0,0.0
1649,39.0,0.0,240.0,15.0,0.0
1650,63.0,60.0,60.0,12.0,0.0
1651,78.0,0.0,120.0,11.0,0.0
1652,68.0,50.0,60.0,12.0,0.0
1653,72.0,10.0,60.0,12.0,0.0
1654,75.0,50.0,60.0,12.0,0.0
1655,78.0,10.0,120.0,11.0,0.0
1656,72.0,60.0,60.0,12.0,0.0
1657,36.0,0.0,120.0,15.0,0.0
1658,48.0,0.0,120.0,14.0,0.0
1659,78.0,0.0,120.0,11.0,0.0
1660,60.0,0.0,120.0,13.0,0.0
1661,68.0,50.0,60.0,12.0,0.0
1662,63.0,20.0,60.0,12.0,0.0
1663,78.0,10.0,15.0,11.0,0.0
1664,44.0,0.0,120.0,14.0,0.0
1665,60.0,0.0,60.0,12.0,0.0
1666,32.0,0.0,120.0,15.0,0.0
1667,56.0,0.0,120.0,13.0,0.0
1668,80.0,10.0,15.0,11.0,0.0
1669,78.0,10.0,15.0,11.0,0.0
1670,80.0,10.0,15.0,11.0,0.0
1671,78.0,10.0,15.0,11.0,0.0
1672,80.0,10.0,15.0,11.0,0.0
1673,78.0,10.0,15.0,11.0,0.0
1674,63.0,0.0,60.0,12.0,0.0
1675,80.0,10.0,15.0,11.0,0.0
1676,78.0,10.0,15.0,11.0,0.0
1677,80.0,10.0,15.0,11.0,0.0
1678,78.0,10.0,15.0,11.0,0.0
1679,80.0,10.0,15.0,11.0,0.0
1680,68.0,30.0,60.0,12.0,0.0
1681,56.0,0.0,120.0,14.0,0.0
1682,78.0,10.0,15.0,11.0,0.0
1683,68.0,5.0,120.0,13.0,0.0
1684,44.0,0.0,120.0,15.0,0.0
1685,80.0,10.0,15.0,11.0,0.0
1686,78.0,10.0,15.0,11.0,0.0
1687,80.0,20.0,15.0,11.0,0.0
1688,78.0,0.0,20.0,11.0,0.0
1689,60.0,0.0,60.0,12.0,0.0
1690,77.0,20.0,30.0,11.0,0.0
1691,75.0,65.0,20.0,11.0,0.0
1692,77.0,0.0,120.0,11.0,0.0
1693,37.0,0.0,120.0,15.0,0.0
1694,61.0,0.0,120.0,13.0,0.0
1695,61.0,50.0,60.0,12.0,0.0
1696,49.0,10.0,120.0,14.0,0.0
1697,65.0,60.0,60.0,12.0,0.0
1698,61.0,0.0,120.0,13.0,0.0
1699,37.0,0.0,120.0,15.0,0.0
1700,77.0,0.0,120.0,11.0,0.0
1701,49.0,55.0,120.0,14.0,0.0
1702,68.0,50.0,60.0,12.0,0.0
1703,73.0,0.0,60.0,12.0,0.0
1704,30.0,0.0,480.0,15.0,0.0
1705,61.0,75.0,30.0,12.0,0.0
1706,54.0,0.0,480.0,13.0,0.0
1707,42.0,45.0,480.0,14.0,0.0
1708,70.0,0.0,360.0,11.0,0.0
1709,62.0,60.0,60.0,12.0,0.0
1710,63.0,50.0,60.0,12.0,0.0
1711,62.0,70.0,60.0,12.0,0.0
1712,63.0,60.0,60.0,12.0,0.0
1713,58.0,60.0,60.0,12.0,0.0
1714,75.0,10.0,120.0,11.0,0.0
1715,70.0,50.0,60.0,12.0,0.0
1716,66.0,0.0,60.0,12.0,0.0
1717,73.0,60.0,240.0,11.0,0.0
1718,44.0,10.0,480.0,14.0,0.0
1719,56.0,45.0,480.0,13.0,0.0
1720,32.0,0.0,480.0,15.0,0.0
1721,65.0,75.0,30.0,12.0,0.0
1722,67.0,60.0,60.0,12.0,0.0
1723,68.0,50.0,60.0,12.0,0.0
1724,67.0,10.0,60.0,12.0,0.0
1725,68.0,50.0,60.0,12.0,0.0
1726,72.0,10.0,120.0,11.0,0.0
1727,63.0,60.0,60.0,12.0,0.0
1728,77.0,20.0,90.0,11.0,0.0
1729,72.0,30.0,60.0,12.0,0.0
1730,68.0,0.0,60.0,12.0,0.0
1731,65.0,60.0,30.0,12.0,0.0
1732,58.0,0.0,480.0,13.0,0.0
1733,34.0,30.0,360.0,15.0,0.0
1734,46.0,0.0,360.0,14.0,0.0
1735,75.0,30.0,240.0,11.0,0.0
1736,57.0,60.0,30.0,12.0,0.0
1737,58.0,60.0,30.0,12.0,0.0
1738,57.0,15.0,30.0,12.0,0.0
1739,73.0,0.0,30.0,11.0,0.0
1740,58.0,40.0,30.0,12.0,0.0
1741,75.0,40.0,30.0,11.0,0.0
1742,60.0,0.0,30.0,12.0,0.0
1743,77.0,0.0,30.0,11.0,0.0
1744,61.0,10.0,30.0,12.0,0.0
1745,78.0,0.0,30.0,11.0,0.0
1746,30.0,0.0,120.0,15.0,0.0
1747,42.0,120.0,120.0,14.0,0.0
1748,63.0,40.0,30.0,12.0,0.0
1749,65.0,0.0,30.0,12.0,0.0
1750,80.0,40.0,30.0,11.0,0.0
1751,82.0,10.0,30.0,11.0,0.0
1752,66.0,0.0,30.0,12.0,0.0
1753,61.0,0.0,240.0,12.0,0.0
1754,77.0,0.0,240.0,11.0,0.0
1755,31.0,0.0,60.0,15.0,0.0
1756,55.0,0.0,60.0,13.0,0.0
1757,43.0,60.0,60.0,14.0,0.0
1758,32.0,60.0,60.0,15.0,0.0
1759,56.0,0.0,60.0,13.0,0.0
1760,44.0,0.0,60.0,14.0,0.0
1761,31.0,50.0,60.0,15.0,0.0
1762,43.0,0.0,60.0,14.0,0.0
1763,55.0,0.0,60.0,13.0,0.0
1764,44.0,0.0,120.0,14.0,0.0
1765,75.0,0.0,60.0,11.0,0.0
1766,56.0,0.0,120.0,13.0,0.0
1767,60.0,55.0,60.0,12.0,0.0
1768,32.0,45.0,120.0,15.0,0.0
1769,56.0,0.0,30.0,12.0,0.0
1770,68.0,15.0,30.0,11.0,0.0
1771,63.0,60.0,30.0,12.0,0.0
1772,78.0,0.0,30.0,11.0,0.0
1773,77.0,0.0,30.0,11.0,0.0
1774,61.0,135.0,30.0,12.0,0.0
1775,61.0,0.0,240.0,12.0,0.0
1776,77.0,0.0,240.0,11.0,0.0
1777,43.0,60.0,60.0,14.0,0.0
1778,31.0,0.0,60.0,15.0,0.0
1779,55.0,0.0,60.0,13.0,0.0
1780,32.0,60.0,60.0,15.0,0.0
1781,44.0,0.0,60.0,14.0,0.0
1782,56.0,0.0,60.0,13.0,0.0
1783,31.0,0.0,60.0,15.0,0.0
1784,55.0,50.0,60.0,13.0,0.0
1785,43.0,0.0,60.0,14.0,0.0
1786,56.0,0.0,120.0,13.0,0.0
1787,75.0,0.0,60.0,11.0,0.0
1788,32.0,0.0,120.0,15.0,0.0
1789,44.0,45.0,120.0,14.0,0.0
1790,60.0,55.0,60.0,12.0,0.0
1791,56.0,0.0,30.0,12.0,0.0
1792,68.0,15.0,30.0,11.0,0.0
1793,63.0,0.0,30.0,12.0,0.0
1794,78.0,60.0,30.0,11.0,0.0
1795,61.0,0.0,30.0,12.0,0.0
1796,77.0,135.0,30.0,11.0,0.0
1797,61.0,0.0,240.0,12.0,0.0
1798,77.0,0.0,240.0,11.0,0.0
1799,31.0,0.0,60.0,15.0,0.0
1800,43.0,0.0,60.0,14.0,0.0
1801,55.0,60.0,60.0,13.0,0.0
1802,44.0,60.0,60.0,14.0,0.0
1803,56.0,0.0,60.0,13.0,0.0
1804,32.0,0.0,60.0,15.0,0.0
1805,43.0,110.0,60.0,14.0,0.0
1806,55.0,0.0,60.0,13.0,0.0
1807,31.0,0.0,60.0,15.0,0.0
1808,56.0,0.0,120.0,13.0,0.0
1809,75.0,90.0,120.0,11.0,0.0
1810,60.0,10.0,120.0,12.0,0.0
1811,44.0,0.0,120.0,14.0,0.0
1812,32.0,0.0,120.0,15.0,0.0
1813,56.0,40.0,90.0,12.0,0.0
1814,56.0,45.0,120.0,13.0,0.0
1815,32.0,0.0,120.0,15.0,0.0
1816,66.0,10.0,15.0,12.0,0.0
1817,44.0,0.0,120.0,14.0,0.0
1818,68.0,10.0,15.0,12.0,0.0
1819,66.0,10.0,15.0,12.0,0.0
1820,68.0,10.0,15.0,12.0,0.0
1821,66.0,10.0,15.0,12.0,0.0
1822,68.0,10.0,15.0,12.0,0.0
1823,66.0,10.0,15.0,12.0,0.0
1824,68.0,20.0,15.0,12.0,0.0
1825,65.0,15.0,20.0,12.0,0.0
1826,66.0,5.0,15.0,12.0,0.0
1827,56.0,60.0,30.0,12.0,0.0
1828,56.0,25.0,30.0,12.0,0.0
1829,65.0,10.0,15.0,12.0,0.0
1830,66.0,10.0,15.0,12.0,0.0
1831,65.0,10.0,15.0,12.0,0.0
1832,66.0,10.0,15.0,12.0,0.0
1833,65.0,10.0,15.0,12.0,0.0
1834,66.0,10.0,15.0,12.0,0.0
1835,65.0,10.0,15.0,12.0,0.0
1836,66.0,20.0,15.0,12.0,0.0
1837,63.0,15.0,20.0,12.0,0.0
1838,65.0,50.0,15.0,12.0,0.0
1839,68.0,20.0,120.0,11.0,0.0
1840,56.0,60.0,30.0,12.0,0.0
1841,56.0,5.0,30.0,12.0,0.0
1842,44.0,0.0,120.0,14.0,0.0
1843,56.0,45.0,120.0,13.0,0.0
1844,60.0,30.0,180.0,12.0,0.0
1845,32.0,0.0,120.0,15.0,0.0
1846,78.0,10.0,15.0,11.0,0.0
1847,80.0,10.0,15.0,11.0,0.0
1848,78.0,10.0,15.0,11.0,0.0
1849,80.0,10.0,15.0,11.0,0.0
1850,78.0,10.0,15.0,11.0,0.0
1851,80.0,10.0,15.0,11.0,0.0
1852,78.0,10.0,15.0,11.0,0.0
1853,80.0,20.0,15.0,11.0,0.0
1854,77.0,15.0,20.0,11.0,0.0
1855,78.0,5.0,15.0,11.0,0.0
1856,68.0,15.0,30.0,11.0,0.0
1857,68.0,9.0,30.0,11.0,0.0
1858,61.0,15.0,30.0,12.0,0.0
1859,63.0,16.0,20.0,12.0,0.0
1860,77.0,10.0,15.0,11.0,0.0
1861,61.0,30.0,180.0,12.0,0.0
1862,78.0,10.0,15.0,11.0,0.0
1863,77.0,10.0,15.0,11.0,0.0
1864,78.0,10.0,15.0,11.0,0.0
1865,77.0,10.0,15.0,11.0,0.0
1866,78.0,10.0,15.0,11.0,0.0
1867,77.0,10.0,15.0,11.0,0.0
1868,78.0,20.0,15.0,11.0,0.0
1869,75.0,15.0,20.0,11.0,0.0
1870,77.0,50.0,15.0,11.0,0.0
1871,68.0,15.0,30.0,11.0,0.0
1872,68.0,9.0,30.0,11.0,0.0
1873,63.0,15.0,30.0,12.0,0.0
1874,65.0,16.0,20.0,12.0,0.0
1875,60.0,0.0,240.0,0.0,0.0
1876,78.0,10.0,240.0,0.0,0.0
1877,72.0,30.0,180.0,11.0,0.0
1878,66.0,10.0,15.0,12.0,0.0
1879,44.0,0.0,120.0,14.0,0.0
1880,32.0,45.0,120.0,15.0,0.0
1881,56.0,0.0,120.0,13.0,0.0
1882,68.0,10.0,15.0,12.0,0.0
1883,66.0,10.0,15.0,12.0,0.0
1884,68.0,10.0,15.0,12.0,0.0
1885,66.0,10.0,15.0,12.0,0.0
1886,68.0,10.0,15.0,12.0,0.0
1887,66.0,10.0,15.0,12.0,0.0
1888,68.0,20.0,15.0,12.0,0.0
1889,65.0,15.0,20.0,12.0,0.0
1890,66.0,5.0,15.0,12.0,0.0
1891,56.0,15.0,30.0,12.0,0.0
1892,73.0,15.0,30.0,11.0,0.0
1893,56.0,10.0,30.0,12.0,0.0
1894,75.0,5.0,20.0,11.0,0.0
1895,61.0,5.0,240.0,0.0,0.0
1896,77.0,0.0,240.0,0.0,0.0
1897,65.0,10.0,15.0,12.0,0.0
1898,73.0,30.0,180.0,11.0,0.0
1899,66.0,10.0,15.0,12.0,0.0
1900,65.0,10.0,15.0,12.0,0.0
1901,66.0,10.0,15.0,12.0,0.0
1902,65.0,10.0,15.0,12.0,0.0
1903,66.0,10.0,15.0,12.0,0.0
1904,65.0,10.0,15.0,12.0,0.0
1905,66.0,20.0,15.0,12.0,0.0
1906,63.0,15.0,20.0,12.0,0.0
1907,65.0,50.0,15.0,12.0,0.0
1908,56.0,15.0,30.0,12.0,0.0
1909,75.0,15.0,30.0,11.0,0.0
1910,56.0,5.0,30.0,12.0,0.0
1911,77.0,15.0,20.0,11.0,0.0
1912,44.0,0.0,120.0,14.0,0.0
1913,72.0,0.0,240.0,0.0,0.0
1914,66.0,45.0,240.0,0.0,0.0
1915,56.0,45.0,120.0,13.0,0.0
1916,78.0,10.0,15.0,11.0,0.0
1917,32.0,0.0,120.0,15.0,0.0
1918,60.0,30.0,180.0,12.0,0.0
1919,80.0,10.0,15.0,11.0,0.0
1920,78.0,10.0,15.0,11.0,0.0
1921,80.0,10.0,15.0,11.0,0.0
1922,78.0,10.0,15.0,11.0,0.0
1923,80.0,10.0,15.0,11.0,0.0
1924,78.0,10.0,15.0,11.0,0.0
1925,80.0,20.0,15.0,11.0,0.0
1926,77.0,15.0,20.0,11.0,0.0
1927,78.0,5.0,15.0,11.0,0.0
1928,68.0,15.0,30.0,11.0,0.0
1929,61.0,15.0,30.0,12.0,0.0
1930,78.0,9.0,30.0,11.0,0.0
1931,63.0,6.0,20.0,12.0,0.0
1932,73.0,0.0,120.0,0.0,0.0
1933,77.0,10.0,30.0,11.0,0.0
1934,65.0,45.0,120.0,0.0,0.0
1935,61.0,50.0,60.0,13.0,0.0
1936,61.0,0.0,30.0,12.0,0.0
1937,37.0,0.0,30.0,15.0,0.0
1938,49.0,0.0,30.0,14.0,0.0
1939,41.0,0.0,30.0,15.0,0.0
1940,80.0,0.0,30.0,11.0,0.0
1941,68.0,0.0,30.0,12.0,0.0
1942,53.0,15.0,30.0,14.0,0.0
1943,61.0,55.0,120.0,13.0,0.0
1944,66.0,0.0,30.0,12.0,0.0
1945,78.0,0.0,30.0,11.0,0.0
1946,58.0,0.0,30.0,14.0,0.0
1947,46.0,5.0,30.0,15.0,0.0
1948,61.0,35.0,60.0,13.0,0.0
1949,56.0,0.0,30.0,14.0,0.0
1950,44.0,10.0,30.0,15.0,0.0
1951,77.0,0.0,30.0,11.0,0.0
1952,65.0,0.0,30.0,12.0,0.0
1953,77.0,0.0,30.0,11.0,0.0
1954,54.0,0.0,240.0,14.0,0.0
1955,58.0,0.0,240.0,13.0,0.0
1956,65.0,80.0,30.0,12.0,0.0
1957,42.0,30.0,240.0,15.0,0.0
1958,75.0,0.0,90.0,11.0,0.0
1959,63.0,40.0,90.0,12.0,0.0
1960,62.0,80.0,30.0,12.0,0.0
1961,74.0,0.0,30.0,11.0,0.0
1962,63.0,0.0,90.0,12.0,0.0
1963,75.0,10.0,90.0,11.0,0.0
1964,65.0,0.0,30.0,12.0,0.0
1965,77.0,80.0,30.0,11.0,0.0
1966,78.0,40.0,90.0,11.0,0.0
1967,66.0,0.0,90.0,12.0,0.0
1968,80.0,0.0,30.0,11.0,0.0
1969,42.0,0.0,120.0,15.0,0.0
1970,60.0,0.0,120.0,13.0,0.0
1971,54.0,0.0,120.0,14.0,0.0
1972,68.0,80.0,30.0,12.0,0.0
1973,82.0,40.0,90.0,11.0,0.0
1974,70.0,0.0,90.0,12.0,0.0
1975,70.0,0.0,30.0,12.0,0.0
1976,41.0,30.0,240.0,15.0,0.0
1977,61.0,0.0,240.0,13.0,0.0
1978,53.0,0.0,240.0,14.0,0.0
1979,82.0,80.0,30.0,11.0,0.0
1980,80.0,0.0,90.0,11.0,0.0
1981,68.0,40.0,90.0,12.0,0.0
1982,78.0,0.0,30.0,11.0,0.0
1983,66.0,80.0,30.0,12.0,0.0
1984,77.0,0.0,90.0,11.0,0.0
1985,65.0,10.0,90.0,12.0,0.0
1986,63.0,80.0,30.0,12.0,0.0
1987,75.0,0.0,30.0,11.0,0.0
1988,73.0,40.0,90.0,11.0,0.0
1989,61.0,0.0,90.0,12.0,0.0
1990,60.0,80.0,30.0,12.0,0.0
1991,41.0,0.0,120.0,14.0,0.0
1992,72.0,0.0,30.0,11.0,0.0
1993,56.0,40.0,120.0,13.0,0.0
1994,29.0,0.0,120.0,15.0,0.0
1995,61.0,0.0,90.0,12.0,0.0
1996,73.0,0.0,90.0,11.0,0.0
1997,72.0,0.0,30.0,11.0,0.0
1998,56.0,0.0,30.0,13.0,0.0
1999,60.0,80.0,30.0,12.0,0.0
2000,42.0,0.0,120.0,14.0,0.0
2001,30.0,40.0,120.0,15.0,0.0
2002,58.0,0.0,90.0,12.0,0.0
2003,70.0,0.0,90.0,11.0,0.0
2004,54.0,0.0,90.0,13.0,0.0
2005,66.0,0.0,30.0,12.0,0.0
2006,54.0,0.0,120.0,14.0,0.0
2007,42.0,0.0,120.0,15.0,0.0
2008,70.0,80.0,30.0,13.0,0.0
2009,78.0,0.0,30.0,11.0,0.0
2010,66.0,120.0,90.0,13.0,0.0
2011,75.0,0.0,90.0,11.0,0.0
2012,63.0,0.0,90.0,12.0,0.0
2013,56.0,0.0,120.0,14.0,0.0
2014,65.0,0.0,120.0,13.0,0.0
2015,44.0,10.0,120.0,15.0,0.0
2016,61.0,0.0,120.0,12.0,0.0
2017,73.0,110.0,120.0,11.0,0.0
2018,44.0,0.0,120.0,14.0,0.0
2019,75.0,0.0,120.0,11.0,0.0
2020,32.0,230.0,120.0,15.0,0.0
2021,60.0,0.0,120.0,13.0,0.0
2022,63.0,10.0,120.0,12.0,0.0
2023,76.0,0.0,240.0,11.0,0.0
2024,60.0,0.0,240.0,13.0,0.0
2025,64.0,45.0,240.0,12.0,0.0
2026,49.0,10.0,120.0,14.0,0.0
2027,37.0,0.0,120.0,15.0,0.0
2028,65.0,0.0,60.0,12.0,0.0
2029,61.0,50.0,60.0,13.0,0.0
2030,77.0,5.0,60.0,11.0,0.0
2031,25.0,0.0,30.0,15.0,0.0
2032,37.0,5.0,30.0,14.0,0.0
2033,41.0,0.0,30.0,15.0,0.0
2034,53.0,60.0,30.0,14.0,0.0
2035,80.0,0.0,30.0,11.0,0.0
2036,61.0,55.0,120.0,13.0,0.0
2037,68.0,0.0,30.0,12.0,0.0
2038,46.0,0.0,30.0,15.0,0.0
2039,78.0,5.0,30.0,11.0,0.0
2040,58.0,0.0,30.0,14.0,0.0
2041,66.0,0.0,30.0,12.0,0.0
2042,56.0,10.0,30.0,14.0,0.0
2043,65.0,0.0,30.0,12.0,0.0
2044,61.0,35.0,60.0,13.0,0.0
2045,44.0,0.0,30.0,15.0,0.0
2046,77.0,0.0,30.0,11.0,0.0
2047,58.0,0.0,240.0,13.0,0.0
2048,65.0,0.0,30.0,12.0,0.0
2049,42.0,30.0,240.0,15.0,0.0
2050,77.0,80.0,30.0,11.0,0.0
2051,54.0,0.0,240.0,14.0,0.0
2052,75.0,40.0,90.0,11.0,0.0
2053,63.0,0.0,90.0,12.0,0.0
2054,74.0,80.0,30.0,11.0,0.0
2055,62.0,0.0,30.0,12.0,0.0
2056,63.0,0.0,90.0,12.0,0.0
2057,75.0,10.0,90.0,11.0,0.0
2058,77.0,80.0,30.0,11.0,0.0
2059,65.0,0.0,30.0,12.0,0.0
2060,66.0,0.0,90.0,12.0,0.0
2061,78.0,40.0,90.0,11.0,0.0
2062,42.0,0.0,120.0,15.0,0.0
2063,60.0,40.0,120.0,13.0,0.0
2064,54.0,0.0,120.0,14.0,0.0
2065,80.0,0.0,30.0,11.0,0.0
2066,68.0,80.0,30.0,12.0,0.0
2067,70.0,0.0,90.0,12.0,0.0
2068,82.0,0.0,90.0,11.0,0.0
2069,53.0,30.0,240.0,14.0,0.0
2070,82.0,0.0,30.0,11.0,0.0
2071,70.0,80.0,30.0,12.0,0.0
2072,41.0,0.0,240.0,15.0,0.0
2073,61.0,0.0,240.0,13.0,0.0
2074,80.0,0.0,90.0,11.0,0.0
2075,68.0,40.0,90.0,12.0,0.0
2076,78.0,80.0,30.0,11.0,0.0
2077,66.0,0.0,30.0,12.0,0.0
2078,77.0,0.0,90.0,11.0,0.0
2079,65.0,10.0,90.0,12.0,0.0
2080,75.0,0.0,30.0,11.0,0.0
2081,63.0,80.0,30.0,12.0,0.0
2082,61.0,0.0,90.0,12.0,0.0
2083,73.0,40.0,90.0,11.0,0.0
2084,72.0,80.0,30.0,11.0,0.0
2085,60.0,0.0,30.0,12.0,0.0
2086,29.0,40.0,120.0,15.0,0.0
2087,56.0,0.0,120.0,13.0,0.0
2088,41.0,0.0,120.0,14.0,0.0
2089,61.0,0.0,90.0,12.0,0.0
2090,73.0,0.0,90.0,11.0,0.0
2091,60.0,0.0,30.0,12.0,0.0
2092,42.0,0.0,120.0,14.0,0.0
2093,72.0,0.0,30.0,11.0,0.0
2094,30.0,0.0,120.0,15.0,0.0
2095,56.0,80.0,30.0,13.0,0.0
2096,58.0,0.0,90.0,12.0,0.0
2097,54.0,40.0,90.0,13.0,0.0
2098,70.0,0.0,90.0,11.0,0.0
2099,66.0,0.0,30.0,12.0,0.0
2100,70.0,80.0,30.0,13.0,0.0
2101,78.0,0.0,30.0,11.0,0.0
2102,54.0,120.0,120.0,14.0,0.0
2103,42.0,0.0,120.0,15.0,0.0
2104,66.0,0.0,90.0,13.0,0.0
2105,75.0,0.0,90.0,11.0,0.0
2106,63.0,0.0,90.0,12.0,0.0
2107,65.0,0.0,120.0,13.0,0.0
2108,44.0,0.0,120.0,15.0,0.0
2109,61.0,0.0,120.0,12.0,0.0
2110,56.0,0.0,120.0,14.0,0.0
2111,73.0,120.0,120.0,11.0,0.0
2112,72.0,0.0,120.0,11.0,0.0
2113,63.0,0.0,120.0,13.0,0.0
2114,60.0,0.0,120.0,12.0,0.0
2115,32.0,120.0,120.0,15.0,0.0
2116,44.0,0.0,120.0,14.0,0.0
2117,73.0,0.0,120.0,11.0,0.0
2118,61.0,0.0,240.0,13.0,0.0
2119,37.0,30.0,240.0,15.0,0.0
2120,61.0,40.0,120.0,12.0,0.0
2121,49.0,0.0,240.0,14.0,0.0
2122,68.0,15.0,30.0,11.0,0.0
2123,65.0,15.0,30.0,12.0,0.0
2124,80.0,0.0,30.0,0.0,0.0
2125,77.0,0.0,30.0,0.0,0.0
2126,70.0,30.0,30.0,11.0,0.0
2127,78.0,0.0,30.0,0.0,0.0
2128,75.0,0.0,30.0,0.0,0.0
2129,63.0,15.0,30.0,12.0,0.0
2130,66.0,15.0,30.0,11.0,0.0
2131,68.0,0.0,30.0,11.0,0.0
2132,68.0,0.0,30.0,1.0,0.0
2133,65.0,15.0,30.0,1.0,0.0
2134,73.0,0.0,30.0,0.0,0.0
2135,77.0,0.0,30.0,0.0,0.0
2136,65.0,15.0,30.0,11.0,0.0
2137,61.0,0.0,30.0,12.0,0.0
2138,66.0,30.0,30.0,11.0,0.0
2139,58.0,0.0,30.0,12.0,0.0
2140,66.0,0.0,30.0,1.0,0.0
2141,63.0,0.0,30.0,1.0,0.0
2142,75.0,0.0,30.0,0.0,0.0
2143,70.0,9.0,30.0,0.0,0.0
2144,63.0,15.0,30.0,11.0,0.0
2145,54.0,0.0,30.0,13.0,0.0
2146,65.0,36.0,20.0,11.0,0.0
2147,56.0,0.0,30.0,12.0,0.0
2148,32.0,4.0,120.0,15.0,0.0
2149,73.0,0.0,30.0,0.0,0.0
2150,53.0,0.0,30.0,13.0,0.0
2151,68.0,0.0,30.0,0.0,0.0
2152,61.0,15.0,30.0,11.0,0.0
2153,44.0,0.0,120.0,14.0,0.0
2154,65.0,9.0,30.0,1.0,0.0
2155,61.0,0.0,30.0,1.0,0.0
2156,63.0,36.0,20.0,11.0,0.0
2157,54.0,0.0,30.0,12.0,0.0
2158,60.0,15.0,30.0,11.0,0.0
2159,63.0,0.0,30.0,1.0,0.0
2160,56.0,0.0,30.0,1.0,0.0
2161,51.0,0.0,30.0,13.0,0.0
2162,66.0,0.0,30.0,0.0,0.0
2163,72.0,5.0,30.0,0.0,0.0
2164,63.0,61.0,20.0,11.0,0.0
2165,49.0,0.0,240.0,13.0,0.0
2166,73.0,0.0,120.0,0.0,0.0
2167,53.0,0.0,120.0,12.0,0.0
2168,65.0,5.0,120.0,0.0,0.0
2169,49.0,0.0,240.0,14.0,0.0
2170,37.0,30.0,240.0,15.0,0.0
2171,61.0,5.0,60.0,1.0,0.0
2172,61.0,50.0,60.0,11.0,0.0
2173,53.0,0.0,120.0,1.0,0.0
2174,56.0,0.0,60.0,1.0,0.0
2175,56.0,35.0,60.0,11.0,0.0
2176,68.0,15.0,30.0,11.0,0.0
2177,49.0,10.0,120.0,1.0,0.0
2178,53.0,0.0,120.0,1.0,0.0
2179,65.0,0.0,30.0,12.0,0.0
2180,77.0,0.0,30.0,0.0,0.0
2181,80.0,15.0,30.0,0.0,0.0
2182,70.0,30.0,30.0,11.0,0.0
2183,78.0,0.0,30.0,0.0,0.0
2184,66.0,15.0,30.0,11.0,0.0
2185,63.0,5.0,30.0,12.0,0.0
2186,75.0,0.0,30.0,0.0,0.0
2187,68.0,0.0,30.0,11.0,0.0
2188,77.0,15.0,30.0,0.0,0.0
2189,61.0,0.0,30.0,12.0,0.0
2190,73.0,0.0,30.0,0.0,0.0
2191,65.0,15.0,30.0,11.0,0.0
2192,65.0,0.0,30.0,1.0,0.0
2193,68.0,0.0,30.0,1.0,0.0
2194,66.0,30.0,30.0,11.0,0.0
2195,63.0,15.0,30.0,11.0,0.0
2196,63.0,9.0,30.0,1.0,0.0
2197,54.0,0.0,30.0,13.0,0.0
2198,58.0,0.0,30.0,12.0,0.0
2199,70.0,0.0,30.0,0.0,0.0
2200,66.0,0.0,30.0,1.0,0.0
2201,75.0,0.0,30.0,0.0,0.0
2202,65.0,36.0,20.0,11.0,0.0
2203,73.0,0.0,30.0,0.0,0.0
2204,56.0,0.0,30.0,12.0,0.0
2205,65.0,0.0,30.0,1.0,0.0
2206,68.0,9.0,30.0,0.0,0.0
2207,53.0,0.0,30.0,13.0,0.0
2208,32.0,0.0,120.0,15.0,0.0
2209,44.0,4.0,120.0,14.0,0.0
2210,61.0,0.0,30.0,1.0,0.0
2211,61.0,15.0,30.0,11.0,0.0
2212,63.0,36.0,20.0,11.0,0.0
2213,63.0,0.0,30.0,1.0,0.0
2214,56.0,5.0,30.0,1.0,0.0
2215,54.0,0.0,30.0,12.0,0.0
2216,60.0,15.0,30.0,11.0,0.0
2217,51.0,0.0,30.0,13.0,0.0
2218,72.0,0.0,30.0,0.0,0.0
2219,66.0,0.0,30.0,0.0,0.0
2220,63.0,96.0,20.0,11.0,0.0
2221,61.0,0.0,90.0,11.0,0.0
2222,49.0,0.0,90.0,13.0,0.0
2223,61.0,0.0,90.0,1.0,0.0
2224,37.0,0.0,90.0,15.0,0.0
2225,53.0,0.0,90.0,12.0,0.0
2226,53.0,0.0,90.0,1.0,0.0
2227,73.0,0.0,90.0,0.0,0.0
2228,65.0,0.0,90.0,0.0,0.0
2229,49.0,120.0,90.0,14.0,0.0
2230,56.0,120.0,90.0,12.0,0.0
2231,56.0,0.0,90.0,1.0,0.0
2232,56.0,0.0,90.0,13.0,0.0
2233,56.0,0.0,90.0,11.0,0.0
2234,32.0,0.0,90.0,15.0,0.0
2235,44.0,0.0,90.0,14.0,0.0
2236,68.0,0.0,90.0,0.0,0.0
2237,53.0,0.0,90.0,13.0,0.0
2238,29.0,0.0,90.0,15.0,0.0
2239,53.0,0.0,90.0,12.0,0.0
2240,65.0,0.0,90.0,0.0,0.0
2241,53.0,0.0,90.0,11.0,0.0
2242,53.0,145.0,90.0,1.0,0.0
2243,41.0,0.0,90.0,14.0,0.0
2244,73.0,115.0,60.0,11.0,0.0
2245,32.0,0.0,120.0,15.0,0.0
2246,44.0,120.0,120.0,14.0,0.0
2247,56.0,10.0,240.0,12.0,0.0
2248,53.0,0.0,240.0,13.0,0.0
2249,61.0,10.0,240.0,11.0,0.0
2250,32.0,0.0,120.0,15.0,0.0
2251,44.0,0.0,120.0,14.0,0.0
2252,48.0,0.0,240.0,13.0,0.0
2253,63.0,10.0,15.0,11.0,0.0
2254,32.0,0.0,120.0,15.0,0.0
2255,54.0,5.0,240.0,12.0,0.0
2256,44.0,0.0,120.0,14.0,0.0
2257,65.0,10.0,15.0,11.0,0.0
2258,63.0,10.0,15.0,11.0,0.0
2259,65.0,10.0,15.0,11.0,0.0
2260,63.0,10.0,15.0,11.0,0.0
2261,65.0,10.0,15.0,11.0,0.0
2262,63.0,10.0,15.0,11.0,0.0
2263,65.0,10.0,15.0,11.0,0.0
2264,63.0,10.0,15.0,11.0,0.0
2265,65.0,10.0,15.0,11.0,0.0
2266,63.0,10.0,15.0,11.0,0.0
2267,65.0,10.0,15.0,11.0,0.0
2268,44.0,0.0,120.0,14.0,0.0
2269,32.0,0.0,120.0,15.0,0.0
2270,63.0,10.0,15.0,11.0,0.0
2271,65.0,10.0,15.0,11.0,0.0
2272,63.0,10.0,15.0,11.0,0.0
2273,65.0,20.0,15.0,11.0,0.0
2274,63.0,30.0,20.0,11.0,0.0
2275,61.0,20.0,30.0,11.0,0.0
2276,63.0,95.0,20.0,11.0,0.0
2277,61.0,0.0,90.0,11.0,0.0
2278,73.0,120.0,90.0,0.0,0.0
2279,61.0,0.0,90.0,1.0,0.0
2280,53.0,0.0,90.0,12.0,0.0
2281,37.0,0.0,90.0,15.0,0.0
2282,49.0,0.0,90.0,13.0,0.0
2283,49.0,0.0,90.0,14.0,0.0
2284,68.0,0.0,90.0,0.0,0.0
2285,56.0,0.0,90.0,1.0,0.0
2286,56.0,0.0,90.0,13.0,0.0
2287,56.0,0.0,90.0,12.0,0.0
2288,56.0,120.0,90.0,11.0,0.0
2289,32.0,0.0,90.0,15.0,0.0
2290,44.0,0.0,90.0,14.0,0.0
2291,53.0,0.0,90.0,12.0,0.0
2292,53.0,0.0,90.0,1.0,0.0
2293,53.0,145.0,90.0,11.0,0.0
2294,29.0,0.0,90.0,15.0,0.0
2295,65.0,0.0,90.0,0.0,0.0
2296,53.0,0.0,90.0,13.0,0.0
2297,41.0,0.0,90.0,14.0,0.0
2298,73.0,115.0,60.0,11.0,0.0
2299,56.0,10.0,240.0,12.0,0.0
2300,53.0,0.0,240.0,13.0,0.0
2301,61.0,0.0,240.0,11.0,0.0
2302,44.0,120.0,120.0,14.0,0.0
2303,32.0,0.0,120.0,15.0,0.0
2304,32.0,0.0,120.0,15.0,0.0
2305,44.0,10.0,120.0,14.0,0.0
2306,44.0,0.0,120.0,14.0,0.0
2307,63.0,10.0,15.0,11.0,0.0
2308,32.0,10.0,120.0,15.0,0.0
2309,48.0,5.0,240.0,13.0,0.0
2310,54.0,0.0,240.0,12.0,0.0
2311,65.0,10.0,15.0,11.0,0.0
2312,63.0,10.0,15.0,11.0,0.0
2313,65.0,10.0,15.0,11.0,0.0
2314,63.0,10.0,15.0,11.0,0.0
2315,65.0,10.0,15.0,11.0,0.0
2316,63.0,10.0,15.0,11.0,0.0
2317,65.0,10.0,15.0,11.0,0.0
2318,63.0,10.0,15.0,11.0,0.0
2319,65.0,10.0,15.0,11.0,0.0
2320,63.0,0.0,15.0,11.0,0.0
2321,65.0,10.0,15.0,11.0,0.0
2322,63.0,10.0,15.0,11.0,0.0
2323,32.0,0.0,120.0,15.0,0.0
2324,44.0,0.0,120.0,14.0,0.0
2325,65.0,10.0,15.0,11.0,0.0
2326,63.0,10.0,15.0,11.0,0.0
2327,65.0,20.0,15.0,11.0,0.0
2328,63.0,30.0,20.0,11.0,0.0
2329,61.0,20.0,30.0,11.0,0.0
2330,63.0,65.0,20.0,11.0,0.0
2331,25.0,0.0,240.0,15.0,0.0
2332,61.0,50.0,60.0,11.0,0.0
2333,37.0,60.0,240.0,14.0,0.0
2334,49.0,0.0,240.0,13.0,0.0
2335,53.0,0.0,240.0,12.0,0.0
2336,56.0,55.0,60.0,11.0,0.0
2337,56.0,60.0,30.0,11.0,0.0
2338,56.0,15.0,30.0,11.0,0.0
2339,57.0,55.0,60.0,11.0,0.0
2340,58.0,65.0,60.0,11.0,0.0
2341,44.0,5.0,120.0,14.0,0.0
2342,51.0,0.0,120.0,13.0,0.0
2343,54.0,60.0,120.0,12.0,0.0
2344,32.0,0.0,120.0,15.0,0.0
2345,59.0,50.0,60.0,11.0,0.0
2346,60.0,5.0,60.0,11.0,0.0
2347,37.0,0.0,240.0,15.0,0.0
2348,49.0,60.0,240.0,14.0,0.0
2349,49.0,0.0,240.0,13.0,0.0
2350,53.0,0.0,240.0,12.0,0.0
2351,61.0,50.0,60.0,11.0,0.0
2352,56.0,55.0,60.0,11.0,0.0
2353,56.0,60.0,30.0,11.0,0.0
2354,56.0,15.0,30.0,11.0,0.0
2355,57.0,55.0,60.0,11.0,0.0
2356,58.0,65.0,60.0,11.0,0.0
2357,59.0,50.0,60.0,11.0,0.0
2358,44.0,0.0,120.0,14.0,0.0
2359,51.0,0.0,120.0,13.0,0.0
2360,54.0,0.0,120.0,12.0,0.0
2361,32.0,5.0,120.0,15.0,0.0
2362,60.0,245.0,60.0,11.0,0.0
2363,56.0,0.0,60.0,1.0,0.0
2364,44.0,0.0,60.0,1.0,0.0
2365,78.0,0.0,60.0,0.0,0.0
2366,72.0,0.0,60.0,0.0,0.0
2367,51.0,0.0,240.0,13.0,0.0
2368,49.0,481.0,360.0,1.0,0.0
2369,56.0,0.0,360.0,1.0,0.0
2370,78.0,0.0,240.0,0.0,0.0
2371,60.0,0.0,240.0,11.0,0.0
2372,37.0,0.0,360.0,14.0,0.0
2373,25.0,0.0,360.0,15.0,0.0
2374,54.0,0.0,240.0,12.0,0.0
2375,72.0,120.0,240.0,0.0,0.0
2376,49.0,0.0,120.0,13.0,0.0
2377,73.0,0.0,120.0,0.0,0.0
2378,77.0,0.0,120.0,0.0,0.0
2379,61.0,0.0,120.0,11.0,0.0
2380,53.0,0.0,120.0,12.0,0.0
