,note,step,duration,channel,velocity
0,55.0,60.0,120.0,7.0,0.0
1,43.0,0.0,120.0,8.0,0.0
2,74.0,0.0,240.0,4.0,0.0
3,59.0,0.0,60.0,6.0,0.0
4,59.0,60.0,60.0,5.0,0.0
5,67.0,0.0,120.0,6.0,0.0
6,67.0,60.0,120.0,5.0,0.0
7,47.0,60.0,120.0,8.0,0.0
8,59.0,0.0,120.0,7.0,0.0
9,71.0,60.0,120.0,6.0,0.0
10,71.0,0.0,120.0,5.0,0.0
11,55.0,0.0,120.0,7.0,0.0
12,43.0,60.0,120.0,8.0,0.0
13,74.0,0.0,120.0,4.0,0.0
14,74.0,0.0,60.0,5.0,0.0
15,74.0,0.0,60.0,6.0,0.0
16,72.0,0.0,60.0,6.0,0.0
17,72.0,60.0,60.0,5.0,0.0
18,45.0,0.0,120.0,8.0,0.0
19,57.0,60.0,120.0,7.0,0.0
20,74.0,60.0,180.0,4.0,0.0
21,69.0,0.0,120.0,6.0,0.0
22,69.0,0.0,120.0,5.0,0.0
23,38.0,0.0,120.0,8.0,0.0
24,50.0,0.0,120.0,7.0,0.0
25,66.0,60.0,120.0,6.0,0.0
26,74.0,60.0,60.0,4.0,0.0
27,66.0,0.0,120.0,5.0,0.0
28,42.0,0.0,120.0,8.0,0.0
29,54.0,0.0,120.0,7.0,0.0
30,74.0,60.0,120.0,4.0,0.0
31,60.0,0.0,60.0,5.0,0.0
32,60.0,0.0,60.0,6.0,0.0
33,43.0,0.0,120.0,8.0,0.0
34,55.0,0.0,180.0,13.0,0.0
35,71.0,60.0,180.0,11.0,0.0
36,59.0,60.0,60.0,6.0,0.0
37,59.0,0.0,60.0,5.0,0.0
38,55.0,0.0,120.0,7.0,0.0
39,62.0,0.0,180.0,12.0,0.0
40,55.0,60.0,120.0,1.0,0.0
41,67.0,0.0,240.0,1.0,0.0
42,74.0,0.0,180.0,10.0,0.0
43,71.0,0.0,360.0,0.0,0.0
44,74.0,0.0,480.0,0.0,0.0
45,67.0,0.0,120.0,6.0,0.0
46,74.0,0.0,120.0,4.0,0.0
47,67.0,0.0,120.0,5.0,0.0
48,47.0,0.0,120.0,8.0,0.0
49,59.0,0.0,120.0,1.0,0.0
50,59.0,0.0,120.0,7.0,0.0
51,79.0,0.0,120.0,4.0,0.0
52,71.0,0.0,60.0,11.0,0.0
53,71.0,0.0,120.0,5.0,0.0
54,62.0,0.0,60.0,12.0,0.0
55,74.0,60.0,60.0,10.0,0.0
56,71.0,60.0,120.0,6.0,0.0
57,55.0,0.0,60.0,13.0,0.0
58,55.0,0.0,120.0,1.0,0.0
59,62.0,0.0,120.0,12.0,0.0
60,55.0,0.0,120.0,13.0,0.0
61,43.0,0.0,120.0,8.0,0.0
62,71.0,0.0,120.0,11.0,0.0
63,62.0,0.0,120.0,1.0,0.0
64,74.0,60.0,120.0,10.0,0.0
65,55.0,0.0,120.0,7.0,0.0
66,74.0,0.0,60.0,6.0,0.0
67,74.0,0.0,60.0,5.0,0.0
68,83.0,0.0,60.0,4.0,0.0
69,66.0,0.0,120.0,12.0,0.0
70,69.0,0.0,120.0,11.0,0.0
71,69.0,0.0,360.0,0.0,0.0
72,66.0,0.0,120.0,1.0,0.0
73,54.0,0.0,120.0,13.0,0.0
74,54.0,0.0,120.0,1.0,0.0
75,74.0,0.0,120.0,10.0,0.0
76,42.0,60.0,120.0,8.0,0.0
77,54.0,0.0,120.0,7.0,0.0
78,72.0,0.0,60.0,5.0,0.0
79,84.0,0.0,60.0,4.0,0.0
80,72.0,60.0,60.0,6.0,0.0
81,81.0,60.0,120.0,4.0,0.0
82,69.0,0.0,120.0,5.0,0.0
83,69.0,0.0,120.0,6.0,0.0
84,76.0,0.0,120.0,0.0,0.0
85,62.0,0.0,120.0,7.0,0.0
86,50.0,0.0,120.0,8.0,0.0
87,64.0,0.0,120.0,1.0,0.0
88,64.0,60.0,120.0,12.0,0.0
89,54.0,0.0,120.0,13.0,0.0
90,76.0,0.0,120.0,10.0,0.0
91,62.0,0.0,120.0,1.0,0.0
92,69.0,0.0,120.0,11.0,0.0
93,66.0,0.0,120.0,5.0,0.0
94,66.0,60.0,120.0,6.0,0.0
95,78.0,0.0,120.0,4.0,0.0
96,62.0,0.0,120.0,12.0,0.0
97,78.0,0.0,120.0,10.0,0.0
98,42.0,0.0,120.0,8.0,0.0
99,69.0,0.0,120.0,11.0,0.0
100,54.0,0.0,120.0,13.0,0.0
101,62.0,0.0,120.0,1.0,0.0
102,54.0,0.0,120.0,7.0,0.0
103,54.0,0.0,120.0,1.0,0.0
104,78.0,0.0,120.0,0.0,0.0
105,74.0,0.0,60.0,4.0,0.0
106,60.0,0.0,60.0,6.0,0.0
107,60.0,60.0,60.0,5.0,0.0
108,52.0,60.0,240.0,13.0,0.0
109,52.0,60.0,120.0,1.0,0.0
110,40.0,0.0,120.0,8.0,0.0
111,79.0,0.0,240.0,10.0,0.0
112,59.0,0.0,60.0,5.0,0.0
113,62.0,0.0,240.0,12.0,0.0
114,62.0,0.0,240.0,1.0,0.0
115,52.0,0.0,120.0,7.0,0.0
116,71.0,0.0,240.0,0.0,0.0
117,79.0,60.0,360.0,0.0,0.0
118,79.0,0.0,240.0,4.0,0.0
119,71.0,0.0,240.0,11.0,0.0
120,59.0,60.0,60.0,6.0,0.0
121,67.0,0.0,120.0,5.0,0.0
122,67.0,60.0,120.0,6.0,0.0
123,52.0,0.0,120.0,8.0,0.0
124,64.0,0.0,120.0,7.0,0.0
125,64.0,0.0,120.0,1.0,0.0
126,71.0,0.0,60.0,5.0,0.0
127,64.0,0.0,60.0,6.0,0.0
128,69.0,0.0,120.0,0.0,0.0
129,69.0,60.0,60.0,6.0,0.0
130,57.0,0.0,120.0,1.0,0.0
131,79.0,0.0,120.0,10.0,0.0
132,57.0,0.0,120.0,13.0,0.0
133,57.0,0.0,120.0,7.0,0.0
134,69.0,0.0,120.0,11.0,0.0
135,73.0,0.0,60.0,5.0,0.0
136,61.0,0.0,60.0,12.0,0.0
137,79.0,0.0,120.0,4.0,0.0
138,61.0,0.0,60.0,1.0,0.0
139,45.0,0.0,120.0,8.0,0.0
140,76.0,0.0,60.0,5.0,0.0
141,61.0,0.0,60.0,6.0,0.0
142,64.0,0.0,60.0,1.0,0.0
143,64.0,0.0,60.0,12.0,0.0
144,64.0,0.0,60.0,6.0,0.0
145,79.0,60.0,180.0,10.0,0.0
146,62.0,0.0,180.0,13.0,0.0
147,50.0,0.0,120.0,8.0,0.0
148,69.0,60.0,60.0,5.0,0.0
149,64.0,0.0,240.0,1.0,0.0
150,62.0,60.0,120.0,1.0,0.0
151,79.0,0.0,240.0,4.0,0.0
152,69.0,0.0,180.0,11.0,0.0
153,79.0,0.0,240.0,0.0,0.0
154,69.0,0.0,360.0,0.0,0.0
155,62.0,0.0,120.0,7.0,0.0
156,64.0,0.0,180.0,12.0,0.0
157,64.0,0.0,120.0,6.0,0.0
158,69.0,0.0,120.0,5.0,0.0
159,50.0,0.0,120.0,7.0,0.0
160,50.0,0.0,120.0,1.0,0.0
161,38.0,0.0,120.0,8.0,0.0
162,79.0,0.0,60.0,10.0,0.0
163,50.0,0.0,60.0,13.0,0.0
164,69.0,0.0,60.0,11.0,0.0
165,64.0,0.0,60.0,12.0,0.0
166,61.0,0.0,60.0,6.0,0.0
167,76.0,60.0,60.0,5.0,0.0
168,62.0,0.0,120.0,7.0,0.0
169,78.0,0.0,120.0,4.0,0.0
170,62.0,60.0,120.0,1.0,0.0
171,69.0,0.0,120.0,11.0,0.0
172,50.0,0.0,120.0,13.0,0.0
173,50.0,0.0,120.0,8.0,0.0
174,62.0,0.0,120.0,12.0,0.0
175,78.0,0.0,120.0,10.0,0.0
176,78.0,0.0,120.0,0.0,0.0
177,62.0,60.0,60.0,6.0,0.0
178,74.0,0.0,60.0,5.0,0.0
179,69.0,0.0,60.0,5.0,0.0
180,66.0,0.0,60.0,6.0,0.0
181,67.0,0.0,240.0,12.0,0.0
182,38.0,0.0,120.0,8.0,0.0
183,71.0,0.0,240.0,11.0,0.0
184,76.0,0.0,240.0,10.0,0.0
185,76.0,0.0,360.0,0.0,0.0
186,71.0,0.0,240.0,0.0,0.0
187,67.0,0.0,240.0,1.0,0.0
188,50.0,60.0,120.0,7.0,0.0
189,50.0,0.0,120.0,1.0,0.0
190,67.0,0.0,60.0,6.0,0.0
191,76.0,0.0,60.0,4.0,0.0
192,62.0,60.0,240.0,13.0,0.0
193,71.0,60.0,60.0,5.0,0.0
194,71.0,0.0,120.0,5.0,0.0
195,76.0,0.0,120.0,4.0,0.0
196,67.0,60.0,120.0,6.0,0.0
197,62.0,0.0,120.0,7.0,0.0
198,62.0,0.0,120.0,1.0,0.0
199,50.0,0.0,120.0,8.0,0.0
200,67.0,0.0,60.0,6.0,0.0
201,76.0,0.0,120.0,4.0,0.0
202,71.0,0.0,60.0,5.0,0.0
203,72.0,0.0,60.0,5.0,0.0
204,48.0,0.0,120.0,8.0,0.0
205,69.0,60.0,120.0,1.0,0.0
206,60.0,0.0,120.0,7.0,0.0
207,60.0,0.0,120.0,1.0,0.0
208,69.0,0.0,120.0,12.0,0.0
209,60.0,0.0,120.0,13.0,0.0
210,69.0,60.0,60.0,6.0,0.0
211,72.0,0.0,120.0,0.0,0.0
212,72.0,0.0,120.0,11.0,0.0
213,76.0,0.0,120.0,10.0,0.0
214,69.0,0.0,60.0,6.0,0.0
215,72.0,0.0,60.0,5.0,0.0
216,81.0,0.0,60.0,4.0,0.0
217,48.0,0.0,120.0,7.0,0.0
218,36.0,0.0,120.0,8.0,0.0
219,66.0,0.0,60.0,6.0,0.0
220,74.0,0.0,180.0,10.0,0.0
221,48.0,60.0,120.0,1.0,0.0
222,74.0,0.0,60.0,4.0,0.0
223,66.0,0.0,180.0,12.0,0.0
224,66.0,0.0,240.0,1.0,0.0
225,69.0,0.0,180.0,11.0,0.0
226,74.0,0.0,360.0,0.0,0.0
227,69.0,0.0,240.0,0.0,0.0
228,69.0,60.0,60.0,5.0,0.0
229,60.0,60.0,180.0,13.0,0.0
230,66.0,0.0,120.0,6.0,0.0
231,69.0,0.0,120.0,5.0,0.0
232,74.0,0.0,120.0,4.0,0.0
233,48.0,0.0,120.0,8.0,0.0
234,60.0,0.0,120.0,7.0,0.0
235,60.0,0.0,120.0,1.0,0.0
236,60.0,0.0,60.0,13.0,0.0
237,66.0,0.0,60.0,12.0,0.0
238,74.0,0.0,60.0,10.0,0.0
239,74.0,60.0,120.0,4.0,0.0
240,69.0,0.0,60.0,11.0,0.0
241,66.0,60.0,60.0,6.0,0.0
242,69.0,0.0,60.0,5.0,0.0
243,59.0,0.0,120.0,13.0,0.0
244,71.0,0.0,120.0,0.0,0.0
245,59.0,0.0,120.0,1.0,0.0
246,67.0,0.0,120.0,1.0,0.0
247,71.0,0.0,120.0,11.0,0.0
248,71.0,0.0,60.0,5.0,0.0
249,59.0,60.0,120.0,7.0,0.0
250,47.0,0.0,120.0,8.0,0.0
251,67.0,0.0,60.0,6.0,0.0
252,74.0,0.0,120.0,10.0,0.0
253,67.0,0.0,120.0,12.0,0.0
254,67.0,0.0,60.0,6.0,0.0
255,71.0,0.0,60.0,5.0,0.0
256,79.0,0.0,60.0,4.0,0.0
257,72.0,60.0,60.0,4.0,0.0
258,71.0,0.0,120.0,0.0,0.0
259,67.0,0.0,120.0,1.0,0.0
260,72.0,0.0,120.0,0.0,0.0
261,71.0,0.0,120.0,5.0,0.0
262,45.0,0.0,120.0,8.0,0.0
263,57.0,0.0,120.0,7.0,0.0
264,57.0,0.0,120.0,13.0,0.0
265,71.0,0.0,120.0,11.0,0.0
266,67.0,0.0,120.0,12.0,0.0
267,72.0,60.0,120.0,10.0,0.0
268,67.0,0.0,120.0,6.0,0.0
269,57.0,0.0,120.0,1.0,0.0
270,72.0,0.0,120.0,4.0,0.0
271,62.0,0.0,120.0,7.0,0.0
272,69.0,0.0,120.0,11.0,0.0
273,66.0,0.0,60.0,6.0,0.0
274,69.0,60.0,60.0,5.0,0.0
275,66.0,0.0,120.0,1.0,0.0
276,50.0,0.0,120.0,8.0,0.0
277,66.0,0.0,120.0,12.0,0.0
278,62.0,0.0,120.0,1.0,0.0
279,62.0,60.0,120.0,13.0,0.0
280,72.0,0.0,120.0,0.0,0.0
281,72.0,0.0,120.0,10.0,0.0
282,69.0,0.0,120.0,0.0,0.0
283,64.0,0.0,60.0,6.0,0.0
284,67.0,0.0,60.0,5.0,0.0
285,72.0,60.0,120.0,4.0,0.0
286,54.0,0.0,120.0,13.0,0.0
287,72.0,0.0,120.0,0.0,0.0
288,69.0,0.0,120.0,0.0,0.0
289,62.0,0.0,120.0,12.0,0.0
290,72.0,0.0,120.0,10.0,0.0
291,62.0,0.0,120.0,1.0,0.0
292,54.0,0.0,120.0,1.0,0.0
293,66.0,0.0,60.0,5.0,0.0
294,69.0,0.0,120.0,11.0,0.0
295,62.0,0.0,60.0,6.0,0.0
296,54.0,0.0,120.0,7.0,0.0
297,42.0,60.0,120.0,8.0,0.0
298,62.0,0.0,60.0,6.0,0.0
299,81.0,0.0,60.0,4.0,0.0
300,69.0,0.0,60.0,5.0,0.0
301,69.0,60.0,240.0,5.0,0.0
302,69.0,0.0,240.0,0.0,0.0
303,72.0,0.0,240.0,0.0,0.0
304,72.0,60.0,60.0,4.0,0.0
305,72.0,0.0,180.0,10.0,0.0
306,55.0,0.0,180.0,13.0,0.0
307,69.0,0.0,180.0,11.0,0.0
308,62.0,0.0,60.0,6.0,0.0
309,62.0,0.0,180.0,12.0,0.0
310,55.0,0.0,120.0,1.0,0.0
311,62.0,0.0,240.0,1.0,0.0
312,43.0,0.0,120.0,8.0,0.0
313,55.0,60.0,120.0,7.0,0.0
314,62.0,0.0,120.0,4.0,0.0
315,69.0,60.0,120.0,6.0,0.0
316,31.0,0.0,120.0,8.0,0.0
317,43.0,0.0,120.0,7.0,0.0
318,43.0,0.0,120.0,1.0,0.0
319,62.0,0.0,60.0,12.0,0.0
320,62.0,60.0,120.0,6.0,0.0
321,72.0,0.0,60.0,10.0,0.0
322,69.0,0.0,60.0,11.0,0.0
323,72.0,0.0,60.0,4.0,0.0
324,55.0,0.0,60.0,13.0,0.0
325,67.0,0.0,60.0,5.0,0.0
326,55.0,0.0,120.0,13.0,0.0
327,43.0,0.0,120.0,8.0,0.0
328,71.0,0.0,120.0,10.0,0.0
329,71.0,0.0,120.0,0.0,0.0
330,67.0,0.0,120.0,11.0,0.0
331,62.0,60.0,120.0,12.0,0.0
332,55.0,0.0,120.0,7.0,0.0
333,71.0,0.0,60.0,4.0,0.0
334,67.0,0.0,120.0,0.0,0.0
335,62.0,0.0,120.0,1.0,0.0
336,55.0,0.0,120.0,1.0,0.0
337,74.0,0.0,120.0,5.0,0.0
338,79.0,0.0,60.0,4.0,0.0
339,71.0,0.0,120.0,6.0,0.0
340,67.0,60.0,120.0,7.0,0.0
341,71.0,0.0,360.0,0.0,0.0
342,67.0,0.0,120.0,1.0,0.0
343,62.0,0.0,360.0,1.0,0.0
344,55.0,0.0,120.0,8.0,0.0
345,83.0,60.0,60.0,4.0,0.0
346,67.0,0.0,360.0,0.0,0.0
347,71.0,0.0,120.0,5.0,0.0
348,79.0,0.0,120.0,4.0,0.0
349,62.0,60.0,120.0,6.0,0.0
350,43.0,0.0,120.0,8.0,0.0
351,55.0,0.0,120.0,1.0,0.0
352,55.0,60.0,120.0,7.0,0.0
353,74.0,60.0,120.0,4.0,0.0
354,67.0,0.0,120.0,5.0,0.0
355,59.0,0.0,120.0,6.0,0.0
356,67.0,0.0,120.0,7.0,0.0
357,62.0,0.0,120.0,12.0,0.0
358,55.0,0.0,120.0,13.0,0.0
359,67.0,60.0,120.0,1.0,0.0
360,55.0,0.0,120.0,8.0,0.0
361,71.0,0.0,120.0,10.0,0.0
362,67.0,0.0,120.0,11.0,0.0
363,67.0,0.0,60.0,6.0,0.0
364,62.0,0.0,60.0,5.0,0.0
365,71.0,0.0,60.0,4.0,0.0
366,64.0,60.0,60.0,6.0,0.0
367,64.0,0.0,180.0,12.0,0.0
368,69.0,0.0,180.0,11.0,0.0
369,64.0,0.0,180.0,1.0,0.0
370,55.0,0.0,120.0,1.0,0.0
371,74.0,0.0,60.0,4.0,0.0
372,74.0,0.0,180.0,10.0,0.0
373,43.0,60.0,120.0,8.0,0.0
374,69.0,0.0,60.0,5.0,0.0
375,74.0,0.0,180.0,0.0,0.0
376,55.0,0.0,120.0,7.0,0.0
377,55.0,0.0,180.0,13.0,0.0
378,69.0,0.0,180.0,0.0,0.0
379,69.0,60.0,120.0,5.0,0.0
380,61.0,0.0,120.0,6.0,0.0
381,64.0,0.0,120.0,4.0,0.0
382,31.0,0.0,120.0,8.0,0.0
383,43.0,0.0,120.0,7.0,0.0
384,43.0,0.0,120.0,1.0,0.0
385,55.0,0.0,60.0,13.0,0.0
386,73.0,60.0,60.0,10.0,0.0
387,69.0,60.0,120.0,5.0,0.0
388,69.0,0.0,60.0,11.0,0.0
389,73.0,0.0,120.0,4.0,0.0
390,64.0,0.0,60.0,12.0,0.0
391,73.0,0.0,60.0,0.0,0.0
392,64.0,0.0,120.0,6.0,0.0
393,64.0,0.0,60.0,1.0,0.0
394,69.0,0.0,60.0,0.0,0.0
395,73.0,0.0,120.0,10.0,0.0
396,43.0,0.0,120.0,8.0,0.0
397,55.0,0.0,120.0,13.0,0.0
398,69.0,0.0,120.0,11.0,0.0
399,64.0,60.0,120.0,1.0,0.0
400,55.0,0.0,120.0,1.0,0.0
401,55.0,0.0,120.0,7.0,0.0
402,73.0,0.0,120.0,0.0,0.0
403,69.0,0.0,120.0,0.0,0.0
404,64.0,0.0,120.0,12.0,0.0
405,73.0,0.0,120.0,6.0,0.0
406,81.0,60.0,120.0,4.0,0.0
407,69.0,0.0,120.0,5.0,0.0
408,55.0,0.0,120.0,8.0,0.0
409,64.0,0.0,120.0,1.0,0.0
410,69.0,0.0,120.0,0.0,0.0
411,73.0,0.0,120.0,0.0,0.0
412,67.0,0.0,120.0,1.0,0.0
413,55.0,60.0,120.0,13.0,0.0
414,64.0,0.0,120.0,12.0,0.0
415,73.0,0.0,120.0,10.0,0.0
416,69.0,0.0,120.0,11.0,0.0
417,67.0,0.0,120.0,7.0,0.0
418,61.0,0.0,120.0,6.0,0.0
419,69.0,0.0,120.0,5.0,0.0
420,76.0,60.0,120.0,4.0,0.0
421,55.0,0.0,120.0,7.0,0.0
422,64.0,0.0,120.0,12.0,0.0
423,43.0,0.0,120.0,8.0,0.0
424,73.0,0.0,120.0,10.0,0.0
425,55.0,60.0,120.0,1.0,0.0
426,64.0,0.0,120.0,1.0,0.0
427,69.0,0.0,120.0,0.0,0.0
428,55.0,0.0,120.0,13.0,0.0
429,73.0,0.0,120.0,0.0,0.0
430,69.0,0.0,120.0,11.0,0.0
431,73.0,0.0,120.0,4.0,0.0
432,64.0,60.0,120.0,6.0,0.0
433,69.0,0.0,120.0,5.0,0.0
434,64.0,0.0,120.0,1.0,0.0
435,69.0,0.0,120.0,11.0,0.0
436,55.0,0.0,120.0,8.0,0.0
437,55.0,0.0,120.0,13.0,0.0
438,67.0,0.0,120.0,7.0,0.0
439,73.0,0.0,120.0,10.0,0.0
440,67.0,0.0,120.0,1.0,0.0
441,73.0,0.0,120.0,0.0,0.0
442,69.0,0.0,120.0,0.0,0.0
443,64.0,60.0,120.0,12.0,0.0
444,61.0,0.0,60.0,6.0,0.0
445,69.0,60.0,120.0,5.0,0.0
446,69.0,0.0,120.0,4.0,0.0
447,66.0,0.0,60.0,6.0,0.0
448,73.0,0.0,120.0,10.0,0.0
449,54.0,0.0,120.0,8.0,0.0
450,66.0,0.0,240.0,12.0,0.0
451,66.0,60.0,120.0,1.0,0.0
452,73.0,0.0,120.0,0.0,0.0
453,69.0,0.0,240.0,0.0,0.0
454,69.0,0.0,240.0,11.0,0.0
455,54.0,0.0,240.0,13.0,0.0
456,66.0,0.0,120.0,7.0,0.0
457,66.0,0.0,120.0,6.0,0.0
458,73.0,0.0,60.0,4.0,0.0
459,69.0,0.0,120.0,5.0,0.0
460,54.0,0.0,120.0,1.0,0.0
461,54.0,0.0,120.0,7.0,0.0
462,75.0,0.0,120.0,0.0,0.0
463,75.0,60.0,60.0,4.0,0.0
464,75.0,0.0,120.0,10.0,0.0
465,42.0,0.0,120.0,8.0,0.0
466,59.0,0.0,60.0,6.0,0.0
467,69.0,0.0,60.0,5.0,0.0
468,69.0,0.0,60.0,4.0,0.0
469,67.0,60.0,60.0,4.0,0.0
470,52.0,0.0,120.0,1.0,0.0
471,52.0,0.0,120.0,13.0,0.0
472,67.0,0.0,120.0,1.0,0.0
473,71.0,0.0,120.0,11.0,0.0
474,71.0,0.0,180.0,5.0,0.0
475,67.0,0.0,120.0,12.0,0.0
476,40.0,0.0,120.0,8.0,0.0
477,52.0,0.0,120.0,7.0,0.0
478,76.0,60.0,120.0,10.0,0.0
479,64.0,0.0,60.0,6.0,0.0
480,71.0,0.0,120.0,0.0,0.0
481,76.0,0.0,120.0,0.0,0.0
482,67.0,60.0,120.0,6.0,0.0
483,76.0,0.0,120.0,4.0,0.0
484,71.0,60.0,240.0,11.0,0.0
485,67.0,0.0,240.0,12.0,0.0
486,76.0,0.0,240.0,0.0,0.0
487,47.0,0.0,120.0,8.0,0.0
488,67.0,0.0,240.0,1.0,0.0
489,76.0,0.0,240.0,10.0,0.0
490,71.0,0.0,240.0,0.0,0.0
491,59.0,0.0,240.0,13.0,0.0
492,59.0,0.0,120.0,1.0,0.0
493,59.0,60.0,120.0,7.0,0.0
494,79.0,0.0,120.0,5.0,0.0
495,83.0,0.0,120.0,4.0,0.0
496,64.0,60.0,120.0,6.0,0.0
497,47.0,0.0,120.0,7.0,0.0
498,47.0,0.0,120.0,1.0,0.0
499,35.0,0.0,120.0,8.0,0.0
500,79.0,0.0,60.0,4.0,0.0
501,71.0,60.0,120.0,6.0,0.0
502,76.0,0.0,60.0,5.0,0.0
503,47.0,0.0,120.0,8.0,0.0
504,66.0,60.0,120.0,12.0,0.0
505,71.0,0.0,120.0,0.0,0.0
506,75.0,0.0,120.0,0.0,0.0
507,59.0,0.0,120.0,7.0,0.0
508,75.0,0.0,120.0,10.0,0.0
509,59.0,0.0,120.0,1.0,0.0
510,59.0,0.0,120.0,13.0,0.0
511,78.0,0.0,60.0,4.0,0.0
512,71.0,0.0,120.0,11.0,0.0
513,75.0,0.0,60.0,5.0,0.0
514,66.0,0.0,120.0,1.0,0.0
515,59.0,0.0,60.0,6.0,0.0
516,75.0,0.0,60.0,4.0,0.0
517,71.0,0.0,120.0,5.0,0.0
518,52.0,60.0,120.0,8.0,0.0
519,79.0,0.0,60.0,4.0,0.0
520,64.0,60.0,60.0,6.0,0.0
521,64.0,0.0,120.0,7.0,0.0
522,64.0,0.0,120.0,1.0,0.0
523,71.0,0.0,120.0,5.0,0.0
524,67.0,0.0,120.0,4.0,0.0
525,64.0,60.0,120.0,6.0,0.0
526,64.0,0.0,120.0,12.0,0.0
527,71.0,60.0,120.0,11.0,0.0
528,52.0,0.0,120.0,7.0,0.0
529,40.0,0.0,120.0,8.0,0.0
530,64.0,0.0,120.0,13.0,0.0
531,71.0,0.0,120.0,0.0,0.0
532,79.0,0.0,120.0,0.0,0.0
533,52.0,0.0,120.0,1.0,0.0
534,64.0,0.0,120.0,1.0,0.0
535,79.0,0.0,120.0,10.0,0.0
536,64.0,0.0,120.0,6.0,0.0
537,71.0,60.0,120.0,5.0,0.0
538,79.0,0.0,120.0,4.0,0.0
539,64.0,0.0,120.0,1.0,0.0
540,64.0,0.0,120.0,13.0,0.0
541,52.0,0.0,120.0,8.0,0.0
542,64.0,0.0,120.0,12.0,0.0
543,71.0,0.0,120.0,11.0,0.0
544,64.0,0.0,120.0,7.0,0.0
545,79.0,0.0,120.0,10.0,0.0
546,79.0,60.0,120.0,0.0,0.0
547,71.0,0.0,120.0,0.0,0.0
548,64.0,0.0,120.0,6.0,0.0
549,79.0,0.0,120.0,4.0,0.0
550,71.0,0.0,60.0,5.0,0.0
551,72.0,60.0,60.0,5.0,0.0
552,64.0,0.0,180.0,1.0,0.0
553,60.0,0.0,120.0,1.0,0.0
554,79.0,0.0,180.0,0.0,0.0
555,79.0,60.0,180.0,10.0,0.0
556,48.0,60.0,120.0,8.0,0.0
557,60.0,0.0,120.0,7.0,0.0
558,64.0,0.0,180.0,12.0,0.0
559,72.0,0.0,180.0,11.0,0.0
560,72.0,0.0,180.0,0.0,0.0
561,60.0,0.0,180.0,13.0,0.0
562,72.0,0.0,120.0,5.0,0.0
563,64.0,0.0,120.0,6.0,0.0
564,67.0,0.0,120.0,4.0,0.0
565,48.0,0.0,120.0,7.0,0.0
566,36.0,0.0,120.0,8.0,0.0
567,48.0,0.0,120.0,1.0,0.0
568,64.0,60.0,60.0,12.0,0.0
569,79.0,0.0,60.0,10.0,0.0
570,72.0,0.0,60.0,11.0,0.0
571,79.0,0.0,120.0,4.0,0.0
572,72.0,0.0,120.0,5.0,0.0
573,64.0,0.0,60.0,1.0,0.0
574,72.0,0.0,60.0,0.0,0.0
575,79.0,0.0,60.0,0.0,0.0
576,60.0,0.0,60.0,13.0,0.0
577,64.0,0.0,120.0,6.0,0.0
578,64.0,0.0,120.0,12.0,0.0
579,72.0,0.0,120.0,0.0,0.0
580,79.0,60.0,60.0,0.0,0.0
581,60.0,0.0,120.0,13.0,0.0
582,72.0,0.0,120.0,11.0,0.0
583,60.0,0.0,120.0,7.0,0.0
584,48.0,0.0,120.0,8.0,0.0
585,79.0,0.0,60.0,10.0,0.0
586,60.0,0.0,120.0,1.0,0.0
587,64.0,0.0,120.0,1.0,0.0
588,79.0,0.0,60.0,10.0,0.0
589,64.0,0.0,60.0,6.0,0.0
590,72.0,0.0,60.0,5.0,0.0
591,79.0,0.0,120.0,4.0,0.0
592,79.0,60.0,60.0,0.0,0.0
593,59.0,0.0,120.0,1.0,0.0
594,74.0,0.0,180.0,0.0,0.0
595,65.0,0.0,180.0,1.0,0.0
596,66.0,0.0,60.0,6.0,0.0
597,74.0,60.0,180.0,11.0,0.0
598,59.0,60.0,120.0,7.0,0.0
599,65.0,0.0,180.0,12.0,0.0
600,47.0,0.0,120.0,8.0,0.0
601,74.0,60.0,60.0,5.0,0.0
602,59.0,0.0,180.0,13.0,0.0
603,79.0,0.0,180.0,0.0,0.0
604,79.0,0.0,180.0,10.0,0.0
605,65.0,0.0,120.0,4.0,0.0
606,62.0,0.0,120.0,5.0,0.0
607,59.0,0.0,120.0,6.0,0.0
608,43.0,0.0,120.0,8.0,0.0
609,55.0,0.0,120.0,1.0,0.0
610,55.0,0.0,120.0,7.0,0.0
611,74.0,60.0,60.0,11.0,0.0
612,59.0,0.0,60.0,5.0,0.0
613,67.0,0.0,120.0,6.0,0.0
614,74.0,0.0,60.0,0.0,0.0
615,59.0,0.0,60.0,13.0,0.0
616,79.0,0.0,60.0,0.0,0.0
617,62.0,0.0,60.0,4.0,0.0
618,65.0,0.0,60.0,12.0,0.0
619,65.0,0.0,60.0,1.0,0.0
620,79.0,0.0,60.0,10.0,0.0
621,72.0,0.0,60.0,11.0,0.0
622,48.0,0.0,120.0,8.0,0.0
623,64.0,0.0,60.0,12.0,0.0
624,60.0,0.0,60.0,5.0,0.0
625,79.0,0.0,120.0,10.0,0.0
626,60.0,0.0,120.0,1.0,0.0
627,64.0,60.0,60.0,1.0,0.0
628,72.0,0.0,60.0,0.0,0.0
629,79.0,0.0,120.0,0.0,0.0
630,60.0,0.0,120.0,7.0,0.0
631,60.0,0.0,60.0,13.0,0.0
632,64.0,0.0,60.0,4.0,0.0
633,60.0,60.0,60.0,13.0,0.0
634,79.0,0.0,120.0,4.0,0.0
635,64.0,60.0,120.0,5.0,0.0
636,64.0,0.0,60.0,12.0,0.0
637,64.0,0.0,60.0,1.0,0.0
638,60.0,0.0,60.0,6.0,0.0
639,72.0,0.0,60.0,0.0,0.0
640,72.0,0.0,60.0,11.0,0.0
641,64.0,0.0,240.0,1.0,0.0
642,79.0,0.0,240.0,10.0,0.0
643,49.0,0.0,120.0,8.0,0.0
644,61.0,0.0,60.0,6.0,0.0
645,61.0,0.0,120.0,7.0,0.0
646,64.0,0.0,180.0,12.0,0.0
647,79.0,0.0,240.0,0.0,0.0
648,69.0,60.0,480.0,0.0,0.0
649,61.0,60.0,120.0,1.0,0.0
650,61.0,0.0,240.0,13.0,0.0
651,69.0,60.0,180.0,11.0,0.0
652,64.0,0.0,120.0,4.0,0.0
653,61.0,0.0,120.0,6.0,0.0
654,69.0,0.0,120.0,5.0,0.0
655,57.0,0.0,120.0,7.0,0.0
656,57.0,0.0,120.0,1.0,0.0
657,45.0,0.0,120.0,8.0,0.0
658,64.0,0.0,60.0,12.0,0.0
659,69.0,0.0,120.0,5.0,0.0
660,61.0,60.0,60.0,4.0,0.0
661,69.0,0.0,60.0,11.0,0.0
662,57.0,0.0,60.0,6.0,0.0
663,50.0,0.0,120.0,8.0,0.0
664,62.0,0.0,360.0,1.0,0.0
665,66.0,0.0,60.0,6.0,0.0
666,62.0,60.0,120.0,13.0,0.0
667,69.0,0.0,240.0,11.0,0.0
668,78.0,0.0,240.0,10.0,0.0
669,62.0,0.0,120.0,7.0,0.0
670,62.0,0.0,240.0,12.0,0.0
671,62.0,60.0,60.0,4.0,0.0
672,78.0,0.0,240.0,0.0,0.0
673,78.0,60.0,120.0,4.0,0.0
674,62.0,0.0,60.0,6.0,0.0
675,69.0,0.0,120.0,5.0,0.0
676,54.0,0.0,60.0,13.0,0.0
677,62.0,0.0,60.0,6.0,0.0
678,42.0,0.0,60.0,8.0,0.0
679,54.0,0.0,60.0,7.0,0.0
680,54.0,0.0,60.0,1.0,0.0
681,55.0,0.0,60.0,7.0,0.0
682,62.0,0.0,120.0,6.0,0.0
683,55.0,0.0,60.0,1.0,0.0
684,83.0,0.0,120.0,4.0,0.0
685,55.0,0.0,60.0,13.0,0.0
686,43.0,0.0,60.0,8.0,0.0
687,67.0,60.0,120.0,5.0,0.0
688,45.0,0.0,120.0,8.0,0.0
689,69.0,0.0,180.0,11.0,0.0
690,76.0,0.0,180.0,0.0,0.0
691,57.0,0.0,120.0,7.0,0.0
692,62.0,60.0,120.0,12.0,0.0
693,57.0,0.0,180.0,13.0,0.0
694,57.0,0.0,120.0,1.0,0.0
695,69.0,0.0,240.0,0.0,0.0
696,76.0,15.0,180.0,10.0,0.0
697,74.0,0.0,120.0,4.0,0.0
698,69.0,0.0,120.0,6.0,0.0
699,66.0,0.0,120.0,5.0,0.0
700,45.0,0.0,120.0,1.0,0.0
701,61.0,0.0,60.0,12.0,0.0
702,61.0,0.0,120.0,1.0,0.0
703,45.0,0.0,120.0,8.0,0.0
704,57.0,0.0,120.0,7.0,0.0
705,69.0,0.0,60.0,11.0,0.0
706,61.0,0.0,60.0,12.0,0.0
707,76.0,0.0,60.0,0.0,0.0
708,78.0,45.0,15.0,4.0,0.0
709,67.0,0.0,60.0,5.0,0.0
710,57.0,60.0,60.0,13.0,0.0
711,76.0,0.0,60.0,10.0,0.0
712,61.0,0.0,60.0,6.0,0.0
713,76.0,0.0,40.0,4.0,0.0
714,62.0,0.0,60.0,6.0,0.0
715,50.0,0.0,120.0,1.0,0.0
716,74.0,0.0,120.0,0.0,0.0
717,69.0,0.0,120.0,0.0,0.0
718,50.0,0.0,120.0,7.0,0.0
719,38.0,0.0,120.0,8.0,0.0
720,62.0,0.0,120.0,12.0,0.0
721,62.0,0.0,120.0,1.0,0.0
722,66.0,60.0,60.0,5.0,0.0
723,50.0,0.0,120.0,13.0,0.0
724,74.0,0.0,120.0,10.0,0.0
725,74.0,0.0,240.0,4.0,0.0
726,69.0,60.0,120.0,11.0,0.0
727,57.0,60.0,120.0,6.0,0.0
728,69.0,0.0,120.0,5.0,0.0
729,54.0,60.0,120.0,8.0,0.0
730,66.0,0.0,120.0,7.0,0.0
731,74.0,0.0,120.0,5.0,0.0
732,62.0,60.0,120.0,6.0,0.0
733,50.0,0.0,120.0,8.0,0.0
734,62.0,0.0,120.0,7.0,0.0
735,81.0,0.0,120.0,4.0,0.0
736,66.0,60.0,60.0,6.0,0.0
737,78.0,0.0,60.0,5.0,0.0
738,81.0,60.0,180.0,4.0,0.0
739,79.0,60.0,60.0,5.0,0.0
740,64.0,0.0,120.0,7.0,0.0
741,52.0,60.0,120.0,8.0,0.0
742,67.0,0.0,60.0,6.0,0.0
743,64.0,0.0,120.0,6.0,0.0
744,76.0,0.0,120.0,5.0,0.0
745,57.0,0.0,120.0,7.0,0.0
746,45.0,60.0,120.0,8.0,0.0
747,81.0,0.0,60.0,4.0,0.0
748,73.0,60.0,120.0,5.0,0.0
749,61.0,0.0,120.0,6.0,0.0
750,61.0,0.0,120.0,7.0,0.0
751,49.0,0.0,120.0,8.0,0.0
752,81.0,0.0,120.0,4.0,0.0
753,57.0,0.0,60.0,6.0,0.0
754,67.0,60.0,60.0,5.0,0.0
755,62.0,0.0,120.0,7.0,0.0
756,65.0,0.0,300.0,12.0,0.0
757,81.0,0.0,420.0,4.0,0.0
758,81.0,60.0,300.0,10.0,0.0
759,50.0,60.0,120.0,8.0,0.0
760,62.0,0.0,300.0,13.0,0.0
761,74.0,0.0,300.0,11.0,0.0
762,62.0,0.0,120.0,1.0,0.0
763,65.0,60.0,60.0,5.0,0.0
764,74.0,0.0,360.0,0.0,0.0
765,81.0,0.0,480.0,0.0,0.0
766,57.0,0.0,60.0,6.0,0.0
767,69.0,0.0,120.0,5.0,0.0
768,62.0,60.0,120.0,6.0,0.0
769,65.0,60.0,120.0,7.0,0.0
770,53.0,0.0,120.0,8.0,0.0
771,65.0,0.0,120.0,1.0,0.0
772,65.0,0.0,120.0,6.0,0.0
773,74.0,0.0,120.0,5.0,0.0
774,62.0,0.0,120.0,1.0,0.0
775,50.0,0.0,120.0,8.0,0.0
776,62.0,0.0,120.0,7.0,0.0
777,77.0,0.0,60.0,5.0,0.0
778,81.0,0.0,60.0,10.0,0.0
779,65.0,0.0,60.0,12.0,0.0
780,62.0,0.0,60.0,6.0,0.0
781,62.0,60.0,60.0,13.0,0.0
782,74.0,0.0,60.0,11.0,0.0
783,49.0,0.0,120.0,8.0,0.0
784,61.0,0.0,120.0,7.0,0.0
785,76.0,60.0,60.0,5.0,0.0
786,67.0,0.0,120.0,1.0,0.0
787,81.0,0.0,120.0,10.0,0.0
788,76.0,60.0,120.0,11.0,0.0
789,61.0,0.0,120.0,13.0,0.0
790,67.0,0.0,120.0,12.0,0.0
791,61.0,0.0,60.0,6.0,0.0
792,61.0,0.0,120.0,1.0,0.0
793,76.0,0.0,120.0,0.0,0.0
794,73.0,0.0,120.0,4.0,0.0
795,64.0,0.0,120.0,6.0,0.0
796,79.0,60.0,120.0,5.0,0.0
797,57.0,0.0,120.0,7.0,0.0
798,45.0,60.0,120.0,8.0,0.0
799,67.0,0.0,120.0,5.0,0.0
800,76.0,60.0,120.0,4.0,0.0
801,61.0,0.0,120.0,6.0,0.0
802,67.0,0.0,120.0,11.0,0.0
803,37.0,0.0,120.0,8.0,0.0
804,49.0,0.0,120.0,7.0,0.0
805,64.0,0.0,120.0,12.0,0.0
806,49.0,60.0,120.0,13.0,0.0
807,69.0,0.0,120.0,10.0,0.0
808,69.0,0.0,120.0,4.0,0.0
809,64.0,0.0,60.0,5.0,0.0
810,57.0,60.0,120.0,6.0,0.0
811,69.0,0.0,360.0,10.0,0.0
812,50.0,60.0,120.0,7.0,0.0
813,67.0,0.0,240.0,11.0,0.0
814,64.0,0.0,240.0,12.0,0.0
815,38.0,0.0,120.0,8.0,0.0
816,67.0,0.0,60.0,5.0,0.0
817,50.0,0.0,360.0,13.0,0.0
818,67.0,0.0,120.0,6.0,0.0
819,69.0,0.0,120.0,4.0,0.0
820,64.0,60.0,120.0,5.0,0.0
821,50.0,0.0,120.0,7.0,0.0
822,38.0,60.0,120.0,8.0,0.0
823,69.0,0.0,120.0,4.0,0.0
824,57.0,0.0,120.0,6.0,0.0
825,67.0,0.0,60.0,5.0,0.0
826,53.0,0.0,120.0,7.0,0.0
827,62.0,60.0,120.0,12.0,0.0
828,41.0,0.0,120.0,8.0,0.0
829,65.0,0.0,120.0,11.0,0.0
830,65.0,60.0,60.0,5.0,0.0
831,62.0,0.0,60.0,5.0,0.0
832,69.0,0.0,120.0,4.0,0.0
833,65.0,0.0,60.0,6.0,0.0
834,64.0,0.0,60.0,6.0,0.0
835,45.0,60.0,120.0,13.0,0.0
836,64.0,0.0,120.0,11.0,0.0
837,45.0,0.0,120.0,8.0,0.0
838,61.0,0.0,120.0,12.0,0.0
839,69.0,0.0,120.0,10.0,0.0
840,57.0,0.0,120.0,7.0,0.0
841,61.0,60.0,60.0,5.0,0.0
842,73.0,0.0,120.0,4.0,0.0
843,64.0,0.0,120.0,5.0,0.0
844,69.0,60.0,120.0,6.0,0.0
845,45.0,0.0,120.0,7.0,0.0
846,33.0,60.0,120.0,8.0,0.0
847,69.0,0.0,120.0,6.0,0.0
848,73.0,60.0,120.0,5.0,0.0
849,76.0,0.0,120.0,4.0,0.0
850,45.0,0.0,120.0,8.0,0.0
851,57.0,0.0,120.0,7.0,0.0
852,69.0,60.0,60.0,6.0,0.0
853,76.0,0.0,60.0,5.0,0.0
854,81.0,0.0,60.0,4.0,0.0
855,81.0,0.0,360.0,10.0,0.0
856,65.0,0.0,360.0,13.0,0.0
857,53.0,0.0,120.0,7.0,0.0
858,72.0,60.0,60.0,6.0,0.0
859,69.0,60.0,360.0,12.0,0.0
860,53.0,0.0,120.0,1.0,0.0
861,77.0,0.0,60.0,5.0,0.0
862,69.0,0.0,360.0,1.0,0.0
863,81.0,0.0,60.0,4.0,0.0
864,72.0,0.0,360.0,11.0,0.0
865,81.0,0.0,360.0,0.0,0.0
866,72.0,0.0,480.0,0.0,0.0
867,41.0,60.0,120.0,8.0,0.0
868,81.0,0.0,120.0,5.0,0.0
869,84.0,60.0,120.0,4.0,0.0
870,77.0,0.0,120.0,6.0,0.0
871,65.0,0.0,120.0,1.0,0.0
872,65.0,60.0,120.0,7.0,0.0
873,53.0,0.0,120.0,8.0,0.0
874,84.0,0.0,120.0,5.0,0.0
875,69.0,60.0,120.0,6.0,0.0
876,89.0,0.0,120.0,4.0,0.0
877,53.0,0.0,120.0,1.0,0.0
878,41.0,0.0,120.0,8.0,0.0
879,53.0,0.0,120.0,7.0,0.0
880,81.0,0.0,60.0,4.0,0.0
881,77.0,0.0,60.0,5.0,0.0
882,72.0,0.0,60.0,6.0,0.0
883,67.0,0.0,120.0,12.0,0.0
884,82.0,60.0,60.0,4.0,0.0
885,55.0,0.0,120.0,7.0,0.0
886,64.0,0.0,120.0,13.0,0.0
887,79.0,0.0,60.0,5.0,0.0
888,72.0,0.0,120.0,11.0,0.0
889,52.0,0.0,120.0,1.0,0.0
890,67.0,0.0,120.0,1.0,0.0
891,82.0,0.0,120.0,0.0,0.0
892,82.0,60.0,120.0,10.0,0.0
893,43.0,0.0,120.0,8.0,0.0
894,60.0,0.0,60.0,6.0,0.0
895,70.0,60.0,120.0,5.0,0.0
896,79.0,0.0,120.0,4.0,0.0
897,60.0,0.0,120.0,6.0,0.0
898,64.0,60.0,120.0,7.0,0.0
899,52.0,0.0,120.0,8.0,0.0
900,67.0,0.0,120.0,5.0,0.0
901,76.0,60.0,120.0,4.0,0.0
902,60.0,0.0,120.0,6.0,0.0
903,55.0,60.0,120.0,7.0,0.0
904,43.0,0.0,120.0,8.0,0.0
905,70.0,0.0,120.0,4.0,0.0
906,67.0,0.0,120.0,6.0,0.0
907,60.0,60.0,120.0,5.0,0.0
908,41.0,60.0,120.0,8.0,0.0
909,67.0,0.0,120.0,11.0,0.0
910,70.0,0.0,120.0,10.0,0.0
911,53.0,60.0,300.0,13.0,0.0
912,53.0,0.0,120.0,7.0,0.0
913,60.0,0.0,300.0,12.0,0.0
914,60.0,60.0,120.0,4.0,0.0
915,60.0,0.0,120.0,5.0,0.0
916,67.0,0.0,60.0,6.0,0.0
917,69.0,0.0,180.0,10.0,0.0
918,65.0,0.0,180.0,6.0,0.0
919,57.0,60.0,120.0,7.0,0.0
920,65.0,0.0,180.0,11.0,0.0
921,45.0,0.0,120.0,8.0,0.0
922,65.0,0.0,120.0,4.0,0.0
923,60.0,0.0,120.0,5.0,0.0
924,41.0,0.0,120.0,8.0,0.0
925,53.0,0.0,120.0,7.0,0.0
926,69.0,0.0,60.0,10.0,0.0
927,60.0,60.0,60.0,12.0,0.0
928,65.0,0.0,60.0,6.0,0.0
929,53.0,0.0,60.0,13.0,0.0
930,69.0,0.0,60.0,4.0,0.0
931,65.0,0.0,60.0,11.0,0.0
932,60.0,0.0,60.0,5.0,0.0
933,36.0,0.0,120.0,8.0,0.0
934,60.0,60.0,60.0,6.0,0.0
935,64.0,0.0,60.0,5.0,0.0
936,48.0,0.0,120.0,7.0,0.0
937,60.0,0.0,120.0,12.0,0.0
938,67.0,0.0,120.0,10.0,0.0
939,64.0,60.0,120.0,11.0,0.0
940,67.0,0.0,60.0,4.0,0.0
941,48.0,0.0,120.0,13.0,0.0
942,67.0,0.0,120.0,5.0,0.0
943,64.0,60.0,120.0,6.0,0.0
944,72.0,0.0,120.0,4.0,0.0
945,60.0,60.0,120.0,7.0,0.0
946,48.0,0.0,120.0,8.0,0.0
947,76.0,60.0,120.0,4.0,0.0
948,72.0,0.0,120.0,5.0,0.0
949,67.0,0.0,120.0,6.0,0.0
950,48.0,60.0,120.0,7.0,0.0
951,36.0,0.0,120.0,8.0,0.0
952,76.0,0.0,120.0,5.0,0.0
953,72.0,60.0,120.0,6.0,0.0
954,79.0,0.0,60.0,4.0,0.0
955,72.0,0.0,360.0,11.0,0.0
956,57.0,60.0,120.0,1.0,0.0
957,45.0,0.0,120.0,8.0,0.0
958,57.0,0.0,120.0,7.0,0.0
959,57.0,60.0,360.0,13.0,0.0
960,64.0,0.0,360.0,1.0,0.0
961,81.0,0.0,360.0,10.0,0.0
962,81.0,0.0,60.0,4.0,0.0
963,72.0,0.0,360.0,0.0,0.0
964,81.0,0.0,360.0,0.0,0.0
965,64.0,0.0,360.0,12.0,0.0
966,72.0,0.0,120.0,5.0,0.0
967,76.0,60.0,120.0,4.0,0.0
968,69.0,0.0,120.0,6.0,0.0
969,48.0,0.0,120.0,8.0,0.0
970,60.0,60.0,120.0,7.0,0.0
971,60.0,0.0,120.0,1.0,0.0
972,69.0,60.0,120.0,5.0,0.0
973,84.0,0.0,120.0,4.0,0.0
974,64.0,0.0,120.0,6.0,0.0
975,45.0,0.0,120.0,8.0,0.0
976,57.0,0.0,120.0,1.0,0.0
977,57.0,0.0,120.0,7.0,0.0
978,81.0,0.0,60.0,4.0,0.0
979,72.0,0.0,60.0,5.0,0.0
980,76.0,60.0,120.0,6.0,0.0
981,56.0,0.0,120.0,13.0,0.0
982,74.0,0.0,60.0,5.0,0.0
983,74.0,0.0,120.0,11.0,0.0
984,83.0,0.0,120.0,10.0,0.0
985,56.0,0.0,120.0,1.0,0.0
986,64.0,0.0,120.0,12.0,0.0
987,44.0,0.0,120.0,8.0,0.0
988,64.0,0.0,120.0,1.0,0.0
989,56.0,60.0,120.0,7.0,0.0
990,83.0,0.0,120.0,0.0,0.0
991,83.0,0.0,60.0,4.0,0.0
992,74.0,0.0,120.0,0.0,0.0
993,80.0,0.0,120.0,4.0,0.0
994,64.0,0.0,120.0,6.0,0.0
995,71.0,60.0,120.0,5.0,0.0
996,40.0,0.0,120.0,8.0,0.0
997,52.0,60.0,120.0,7.0,0.0
998,74.0,0.0,120.0,4.0,0.0
999,64.0,0.0,120.0,6.0,0.0
1000,68.0,60.0,120.0,5.0,0.0
1001,44.0,0.0,120.0,8.0,0.0
1002,71.0,60.0,120.0,10.0,0.0
1003,56.0,0.0,120.0,13.0,0.0
1004,62.0,0.0,120.0,12.0,0.0
1005,64.0,0.0,120.0,11.0,0.0
1006,56.0,0.0,120.0,7.0,0.0
1007,71.0,0.0,120.0,4.0,0.0
1008,64.0,60.0,120.0,6.0,0.0
1009,62.0,0.0,120.0,5.0,0.0
1010,64.0,0.0,300.0,11.0,0.0
1011,62.0,60.0,120.0,12.0,0.0
1012,57.0,0.0,120.0,7.0,0.0
1013,45.0,0.0,120.0,8.0,0.0
1014,57.0,0.0,300.0,13.0,0.0
1015,71.0,0.0,120.0,10.0,0.0
1016,69.0,0.0,120.0,5.0,0.0
1017,64.0,60.0,120.0,4.0,0.0
1018,57.0,0.0,120.0,6.0,0.0
1019,33.0,60.0,120.0,8.0,0.0
1020,60.0,0.0,180.0,12.0,0.0
1021,45.0,0.0,120.0,7.0,0.0
1022,69.0,0.0,180.0,10.0,0.0
1023,64.0,0.0,120.0,5.0,0.0
1024,72.0,0.0,120.0,4.0,0.0
1025,60.0,60.0,120.0,6.0,0.0
1026,36.0,0.0,120.0,8.0,0.0
1027,48.0,0.0,120.0,7.0,0.0
1028,60.0,0.0,60.0,5.0,0.0
1029,64.0,60.0,120.0,6.0,0.0
1030,69.0,0.0,60.0,10.0,0.0
1031,57.0,0.0,60.0,13.0,0.0
1032,69.0,0.0,60.0,4.0,0.0
1033,60.0,60.0,60.0,12.0,0.0
1034,64.0,0.0,60.0,11.0,0.0
1035,52.0,60.0,120.0,13.0,0.0
1036,52.0,0.0,120.0,7.0,0.0
1037,40.0,0.0,120.0,8.0,0.0
1038,68.0,0.0,60.0,4.0,0.0
1039,59.0,0.0,60.0,5.0,0.0
1040,59.0,0.0,120.0,12.0,0.0
1041,68.0,0.0,120.0,10.0,0.0
1042,64.0,0.0,120.0,11.0,0.0
1043,64.0,0.0,120.0,5.0,0.0
1044,68.0,0.0,120.0,6.0,0.0
1045,71.0,60.0,120.0,4.0,0.0
1046,64.0,60.0,120.0,7.0,0.0
1047,52.0,0.0,120.0,8.0,0.0
1048,59.0,60.0,120.0,6.0,0.0
1049,76.0,0.0,120.0,4.0,0.0
1050,68.0,0.0,120.0,5.0,0.0
1051,52.0,0.0,120.0,7.0,0.0
1052,76.0,0.0,120.0,0.0,0.0
1053,71.0,0.0,120.0,0.0,0.0
1054,64.0,0.0,120.0,13.0,0.0
1055,76.0,0.0,120.0,10.0,0.0
1056,68.0,0.0,120.0,12.0,0.0
1057,71.0,0.0,120.0,11.0,0.0
1058,52.0,0.0,120.0,1.0,0.0
1059,40.0,0.0,120.0,8.0,0.0
1060,68.0,0.0,120.0,1.0,0.0
1061,64.0,60.0,60.0,6.0,0.0
1062,80.0,0.0,60.0,4.0,0.0
1063,71.0,0.0,60.0,5.0,0.0
1064,68.0,0.0,60.0,6.0,0.0
1065,71.0,0.0,240.0,0.0,0.0
1066,62.0,60.0,180.0,13.0,0.0
1067,77.0,0.0,240.0,0.0,0.0
1068,74.0,60.0,60.0,5.0,0.0
1069,50.0,60.0,120.0,7.0,0.0
1070,83.0,0.0,60.0,4.0,0.0
1071,71.0,0.0,180.0,11.0,0.0
1072,68.0,0.0,180.0,12.0,0.0
1073,50.0,0.0,120.0,1.0,0.0
1074,68.0,0.0,240.0,1.0,0.0
1075,38.0,0.0,120.0,8.0,0.0
1076,77.0,0.0,180.0,10.0,0.0
1077,86.0,0.0,120.0,4.0,0.0
1078,65.0,0.0,120.0,6.0,0.0
1079,83.0,0.0,120.0,5.0,0.0
1080,62.0,0.0,120.0,1.0,0.0
1081,50.0,0.0,120.0,8.0,0.0
1082,62.0,0.0,120.0,7.0,0.0
1083,68.0,0.0,60.0,12.0,0.0
1084,71.0,0.0,60.0,11.0,0.0
1085,77.0,0.0,60.0,10.0,0.0
1086,62.0,60.0,60.0,13.0,0.0
1087,83.0,0.0,120.0,4.0,0.0
1088,74.0,0.0,120.0,6.0,0.0
1089,80.0,60.0,120.0,5.0,0.0
1090,68.0,0.0,120.0,12.0,0.0
1091,77.0,0.0,120.0,0.0,0.0
1092,62.0,0.0,120.0,13.0,0.0
1093,71.0,0.0,120.0,0.0,0.0
1094,50.0,0.0,120.0,1.0,0.0
1095,71.0,0.0,120.0,11.0,0.0
1096,50.0,0.0,120.0,7.0,0.0
1097,38.0,60.0,120.0,8.0,0.0
1098,77.0,0.0,120.0,10.0,0.0
1099,68.0,0.0,120.0,1.0,0.0
1100,77.0,60.0,120.0,5.0,0.0
1101,71.0,0.0,120.0,6.0,0.0
1102,80.0,0.0,120.0,4.0,0.0
1103,62.0,60.0,120.0,7.0,0.0
1104,71.0,0.0,120.0,11.0,0.0
1105,68.0,0.0,120.0,12.0,0.0
1106,77.0,0.0,120.0,10.0,0.0
1107,62.0,0.0,120.0,13.0,0.0
1108,50.0,0.0,120.0,8.0,0.0
1109,71.0,0.0,120.0,5.0,0.0
1110,77.0,60.0,120.0,4.0,0.0
1111,68.0,0.0,120.0,6.0,0.0
1112,38.0,0.0,120.0,8.0,0.0
1113,77.0,0.0,120.0,10.0,0.0
1114,50.0,0.0,120.0,7.0,0.0
1115,71.0,0.0,120.0,11.0,0.0
1116,68.0,60.0,120.0,12.0,0.0
1117,62.0,0.0,120.0,13.0,0.0
1118,77.0,60.0,120.0,4.0,0.0
1119,68.0,0.0,120.0,5.0,0.0
1120,71.0,0.0,120.0,6.0,0.0
1121,71.0,60.0,120.0,11.0,0.0
1122,62.0,0.0,120.0,7.0,0.0
1123,50.0,0.0,120.0,8.0,0.0
1124,68.0,0.0,120.0,12.0,0.0
1125,62.0,0.0,120.0,13.0,0.0
1126,77.0,0.0,120.0,10.0,0.0
1127,68.0,0.0,120.0,6.0,0.0
1128,71.0,0.0,120.0,5.0,0.0
1129,77.0,60.0,120.0,4.0,0.0
1130,71.0,0.0,120.0,11.0,0.0
1131,77.0,0.0,120.0,10.0,0.0
1132,38.0,0.0,120.0,8.0,0.0
1133,62.0,0.0,240.0,13.0,0.0
1134,68.0,60.0,120.0,12.0,0.0
1135,50.0,0.0,120.0,7.0,0.0
1136,69.0,0.0,120.0,6.0,0.0
1137,72.0,0.0,120.0,5.0,0.0
1138,78.0,60.0,120.0,4.0,0.0
1139,62.0,0.0,120.0,7.0,0.0
1140,69.0,0.0,120.0,12.0,0.0
1141,78.0,60.0,120.0,10.0,0.0
1142,72.0,0.0,120.0,11.0,0.0
1143,50.0,0.0,120.0,8.0,0.0
1144,69.0,0.0,120.0,6.0,0.0
1145,78.0,0.0,120.0,4.0,0.0
1146,72.0,60.0,120.0,5.0,0.0
1147,72.0,0.0,120.0,11.0,0.0
1148,69.0,0.0,120.0,12.0,0.0
1149,50.0,60.0,120.0,7.0,0.0
1150,62.0,0.0,120.0,13.0,0.0
1151,38.0,0.0,120.0,8.0,0.0
1152,78.0,0.0,120.0,10.0,0.0
1153,72.0,0.0,60.0,5.0,0.0
1154,78.0,0.0,120.0,4.0,0.0
1155,69.0,60.0,120.0,6.0,0.0
1156,61.0,0.0,240.0,13.0,0.0
1157,37.0,60.0,120.0,8.0,0.0
1158,73.0,0.0,240.0,11.0,0.0
1159,73.0,0.0,60.0,5.0,0.0
1160,78.0,0.0,240.0,10.0,0.0
1161,69.0,0.0,240.0,12.0,0.0
1162,49.0,0.0,120.0,7.0,0.0
1163,73.0,60.0,120.0,5.0,0.0
1164,81.0,0.0,120.0,4.0,0.0
1165,66.0,0.0,120.0,6.0,0.0
1166,61.0,0.0,120.0,7.0,0.0
1167,49.0,60.0,120.0,8.0,0.0
1168,78.0,0.0,60.0,4.0,0.0
1169,73.0,0.0,120.0,5.0,0.0
1170,69.0,0.0,60.0,6.0,0.0
1171,77.0,0.0,120.0,10.0,0.0
1172,49.0,0.0,120.0,7.0,0.0
1173,68.0,0.0,60.0,6.0,0.0
1174,73.0,0.0,120.0,11.0,0.0
1175,68.0,0.0,120.0,12.0,0.0
1176,61.0,60.0,120.0,13.0,0.0
1177,77.0,60.0,60.0,4.0,0.0
1178,37.0,0.0,120.0,8.0,0.0
1179,85.0,0.0,120.0,4.0,0.0
1180,80.0,0.0,60.0,5.0,0.0
1181,65.0,0.0,60.0,6.0,0.0
1182,54.0,0.0,120.0,1.0,0.0
1183,66.0,0.0,60.0,6.0,0.0
1184,81.0,60.0,60.0,5.0,0.0
1185,54.0,0.0,120.0,7.0,0.0
1186,42.0,60.0,120.0,8.0,0.0
1187,81.0,60.0,120.0,4.0,0.0
1188,78.0,0.0,120.0,5.0,0.0
1189,61.0,0.0,120.0,6.0,0.0
1190,66.0,0.0,120.0,12.0,0.0
1191,81.0,0.0,120.0,10.0,0.0
1192,66.0,0.0,120.0,1.0,0.0
1193,66.0,60.0,120.0,7.0,0.0
1194,73.0,0.0,120.0,0.0,0.0
1195,81.0,0.0,120.0,0.0,0.0
1196,73.0,0.0,120.0,11.0,0.0
1197,54.0,0.0,120.0,8.0,0.0
1198,66.0,0.0,120.0,13.0,0.0
1199,69.0,0.0,120.0,6.0,0.0
1200,78.0,0.0,120.0,4.0,0.0
1201,73.0,60.0,120.0,5.0,0.0
1202,66.0,60.0,120.0,12.0,0.0
1203,42.0,0.0,120.0,8.0,0.0
1204,73.0,0.0,120.0,0.0,0.0
1205,81.0,0.0,120.0,0.0,0.0
1206,73.0,0.0,120.0,11.0,0.0
1207,66.0,0.0,120.0,13.0,0.0
1208,54.0,0.0,120.0,7.0,0.0
1209,81.0,0.0,120.0,10.0,0.0
1210,66.0,0.0,120.0,1.0,0.0
1211,73.0,60.0,120.0,4.0,0.0
1212,69.0,0.0,60.0,5.0,0.0
1213,66.0,0.0,60.0,6.0,0.0
1214,73.0,0.0,180.0,11.0,0.0
1215,64.0,0.0,180.0,13.0,0.0
1216,40.0,60.0,120.0,8.0,0.0
1217,67.0,0.0,240.0,1.0,0.0
1218,52.0,0.0,120.0,7.0,0.0
1219,67.0,0.0,60.0,5.0,0.0
1220,81.0,0.0,180.0,10.0,0.0
1221,64.0,0.0,60.0,6.0,0.0
1222,64.0,0.0,240.0,1.0,0.0
1223,81.0,0.0,240.0,0.0,0.0
1224,67.0,0.0,180.0,12.0,0.0
1225,73.0,0.0,240.0,0.0,0.0
1226,79.0,0.0,120.0,4.0,0.0
1227,76.0,60.0,120.0,5.0,0.0
1228,61.0,0.0,120.0,6.0,0.0
1229,64.0,0.0,120.0,7.0,0.0
1230,52.0,0.0,120.0,8.0,0.0
1231,81.0,60.0,60.0,10.0,0.0
1232,73.0,0.0,120.0,5.0,0.0
1233,76.0,0.0,120.0,4.0,0.0
1234,67.0,60.0,120.0,6.0,0.0
1235,64.0,0.0,60.0,13.0,0.0
1236,67.0,0.0,60.0,12.0,0.0
1237,73.0,0.0,60.0,11.0,0.0
1238,81.0,0.0,120.0,0.0,0.0
1239,52.0,0.0,120.0,7.0,0.0
1240,64.0,0.0,120.0,1.0,0.0
1241,64.0,0.0,120.0,13.0,0.0
1242,67.0,0.0,60.0,12.0,0.0
1243,73.0,0.0,120.0,0.0,0.0
1244,40.0,0.0,120.0,8.0,0.0
1245,67.0,0.0,120.0,1.0,0.0
1246,73.0,0.0,60.0,11.0,0.0
1247,81.0,0.0,120.0,10.0,0.0
1248,64.0,0.0,60.0,6.0,0.0
1249,67.0,0.0,60.0,12.0,0.0
1250,67.0,60.0,120.0,5.0,0.0
1251,73.0,60.0,60.0,11.0,0.0
1252,73.0,0.0,120.0,4.0,0.0
1253,63.0,0.0,360.0,1.0,0.0
1254,63.0,0.0,60.0,6.0,0.0
1255,63.0,0.0,180.0,13.0,0.0
1256,73.0,0.0,180.0,11.0,0.0
1257,51.0,60.0,120.0,7.0,0.0
1258,39.0,0.0,120.0,8.0,0.0
1259,67.0,0.0,180.0,12.0,0.0
1260,81.0,0.0,600.0,0.0,0.0
1261,73.0,0.0,360.0,0.0,0.0
1262,81.0,0.0,180.0,10.0,0.0
1263,67.0,0.0,360.0,1.0,0.0
1264,67.0,0.0,120.0,6.0,0.0
1265,63.0,60.0,120.0,5.0,0.0
1266,79.0,0.0,120.0,4.0,0.0
1267,51.0,0.0,120.0,8.0,0.0
1268,63.0,0.0,120.0,7.0,0.0
1269,81.0,0.0,60.0,10.0,0.0
1270,67.0,0.0,120.0,5.0,0.0
1271,67.0,60.0,60.0,12.0,0.0
1272,63.0,0.0,60.0,13.0,0.0
1273,75.0,0.0,120.0,4.0,0.0
1274,73.0,0.0,60.0,11.0,0.0
1275,61.0,0.0,120.0,6.0,0.0
1276,81.0,0.0,60.0,10.0,0.0
1277,51.0,0.0,120.0,7.0,0.0
1278,73.0,0.0,120.0,11.0,0.0
1279,67.0,0.0,120.0,12.0,0.0
1280,63.0,60.0,60.0,13.0,0.0
1281,39.0,0.0,120.0,8.0,0.0
1282,61.0,0.0,60.0,6.0,0.0
1283,69.0,0.0,60.0,5.0,0.0
1284,63.0,0.0,60.0,13.0,0.0
1285,67.0,0.0,60.0,4.0,0.0
1286,81.0,60.0,60.0,10.0,0.0
1287,62.0,0.0,360.0,1.0,0.0
1288,81.0,0.0,180.0,10.0,0.0
1289,66.0,0.0,240.0,1.0,0.0
1290,62.0,0.0,360.0,13.0,0.0
1291,72.0,60.0,60.0,5.0,0.0
1292,66.0,0.0,240.0,12.0,0.0
1293,50.0,60.0,120.0,7.0,0.0
1294,38.0,0.0,120.0,8.0,0.0
1295,62.0,0.0,60.0,6.0,0.0
1296,66.0,0.0,60.0,4.0,0.0
1297,72.0,0.0,240.0,11.0,0.0
1298,72.0,0.0,240.0,0.0,0.0
1299,66.0,60.0,120.0,6.0,0.0
1300,81.0,0.0,120.0,5.0,0.0
1301,84.0,0.0,120.0,4.0,0.0
1302,62.0,0.0,120.0,7.0,0.0
1303,50.0,0.0,120.0,8.0,0.0
1304,81.0,0.0,60.0,10.0,0.0
1305,78.0,0.0,60.0,5.0,0.0
1306,81.0,0.0,60.0,4.0,0.0
1307,69.0,60.0,60.0,6.0,0.0
1308,71.0,0.0,60.0,4.0,0.0
1309,71.0,0.0,240.0,0.0,0.0
1310,64.0,60.0,120.0,1.0,0.0
1311,67.0,0.0,120.0,12.0,0.0
1312,71.0,0.0,240.0,11.0,0.0
1313,79.0,60.0,240.0,10.0,0.0
1314,62.0,0.0,60.0,6.0,0.0
1315,79.0,0.0,360.0,0.0,0.0
1316,50.0,0.0,60.0,7.0,0.0
1317,67.0,0.0,60.0,5.0,0.0
1318,38.0,60.0,60.0,8.0,0.0
1319,67.0,0.0,120.0,6.0,0.0
1320,71.0,0.0,120.0,5.0,0.0
1321,62.0,0.0,60.0,7.0,0.0
1322,50.0,0.0,60.0,8.0,0.0
1323,79.0,0.0,120.0,4.0,0.0
1324,62.0,0.0,240.0,12.0,0.0
1325,59.0,0.0,60.0,7.0,0.0
1326,62.0,0.0,240.0,1.0,0.0
1327,59.0,0.0,60.0,13.0,0.0
1328,59.0,0.0,60.0,1.0,0.0
1329,47.0,60.0,60.0,8.0,0.0
1330,62.0,60.0,120.0,5.0,0.0
1331,55.0,0.0,60.0,1.0,0.0
1332,55.0,0.0,60.0,7.0,0.0
1333,67.0,0.0,120.0,6.0,0.0
1334,43.0,0.0,60.0,8.0,0.0
1335,55.0,0.0,60.0,13.0,0.0
1336,71.0,0.0,60.0,4.0,0.0
1337,50.0,0.0,120.0,8.0,0.0
1338,69.0,60.0,240.0,0.0,0.0
1339,50.0,0.0,180.0,13.0,0.0
1340,69.0,0.0,180.0,11.0,0.0
1341,62.0,0.0,120.0,7.0,0.0
1342,69.0,0.0,60.0,4.0,0.0
1343,79.0,0.0,120.0,10.0,0.0
1344,50.0,60.0,180.0,1.0,0.0
1345,79.0,0.0,60.0,4.0,0.0
1346,69.0,0.0,120.0,5.0,0.0
1347,67.0,60.0,60.0,6.0,0.0
1348,78.0,0.0,120.0,0.0,0.0
1349,69.0,0.0,60.0,6.0,0.0
1350,38.0,0.0,120.0,8.0,0.0
1351,78.0,0.0,60.0,4.0,0.0
1352,50.0,0.0,120.0,7.0,0.0
1353,60.0,0.0,60.0,12.0,0.0
1354,60.0,0.0,120.0,1.0,0.0
1355,78.0,0.0,60.0,10.0,0.0
1356,60.0,0.0,60.0,12.0,0.0
1357,50.0,0.0,60.0,13.0,0.0
1358,69.0,0.0,60.0,11.0,0.0
1359,78.0,0.0,60.0,4.0,0.0
1360,50.0,0.0,60.0,1.0,0.0
1361,78.0,0.0,60.0,10.0,0.0
1362,60.0,0.0,60.0,5.0,0.0
1363,69.0,0.0,60.0,6.0,0.0
1364,59.0,60.0,60.0,5.0,0.0
1365,43.0,0.0,120.0,8.0,0.0
1366,67.0,0.0,120.0,11.0,0.0
1367,55.0,60.0,120.0,13.0,0.0
1368,55.0,0.0,120.0,7.0,0.0
1369,79.0,0.0,120.0,10.0,0.0
1370,67.0,0.0,60.0,6.0,0.0
1371,59.0,0.0,120.0,12.0,0.0
1372,67.0,0.0,120.0,0.0,0.0
1373,79.0,0.0,120.0,4.0,0.0
1374,59.0,0.0,120.0,1.0,0.0
1375,55.0,0.0,120.0,1.0,0.0
1376,79.0,0.0,120.0,0.0,0.0
1377,62.0,60.0,120.0,6.0,0.0
1378,62.0,0.0,120.0,5.0,0.0
1379,74.0,0.0,240.0,4.0,0.0
1380,59.0,60.0,120.0,7.0,0.0
1381,47.0,0.0,120.0,8.0,0.0
1382,67.0,60.0,120.0,6.0,0.0
1383,67.0,0.0,120.0,5.0,0.0
1384,55.0,0.0,120.0,7.0,0.0
1385,43.0,0.0,120.0,8.0,0.0
1386,71.0,60.0,60.0,5.0,0.0
1387,71.0,0.0,60.0,6.0,0.0
1388,72.0,0.0,60.0,5.0,0.0
1389,74.0,60.0,180.0,4.0,0.0
1390,72.0,60.0,60.0,6.0,0.0
1391,45.0,0.0,120.0,8.0,0.0
1392,57.0,60.0,120.0,7.0,0.0
1393,69.0,0.0,120.0,5.0,0.0
1394,69.0,0.0,120.0,6.0,0.0
1395,50.0,0.0,120.0,7.0,0.0
1396,38.0,0.0,120.0,8.0,0.0
1397,66.0,0.0,120.0,6.0,0.0
1398,66.0,60.0,120.0,5.0,0.0
1399,74.0,60.0,60.0,4.0,0.0
1400,42.0,0.0,120.0,8.0,0.0
1401,54.0,0.0,120.0,7.0,0.0
1402,74.0,60.0,120.0,4.0,0.0
1403,60.0,0.0,60.0,6.0,0.0
1404,60.0,0.0,60.0,5.0,0.0
1405,67.0,0.0,360.0,11.0,0.0
1406,55.0,0.0,360.0,13.0,0.0
1407,59.0,0.0,60.0,6.0,0.0
1408,55.0,0.0,120.0,7.0,0.0
1409,59.0,0.0,360.0,12.0,0.0
1410,43.0,60.0,120.0,8.0,0.0
1411,74.0,60.0,360.0,10.0,0.0
1412,59.0,60.0,60.0,5.0,0.0
1413,71.0,0.0,120.0,5.0,0.0
1414,67.0,60.0,120.0,6.0,0.0
1415,74.0,0.0,120.0,4.0,0.0
1416,59.0,60.0,120.0,7.0,0.0
1417,47.0,0.0,120.0,8.0,0.0
1418,79.0,60.0,120.0,4.0,0.0
1419,67.0,0.0,120.0,5.0,0.0
1420,62.0,0.0,120.0,6.0,0.0
1421,43.0,0.0,120.0,8.0,0.0
1422,55.0,0.0,120.0,7.0,0.0
1423,62.0,0.0,60.0,5.0,0.0
1424,59.0,0.0,60.0,6.0,0.0
1425,83.0,0.0,60.0,4.0,0.0
1426,42.0,60.0,120.0,8.0,0.0
1427,54.0,0.0,240.0,13.0,0.0
1428,57.0,0.0,60.0,6.0,0.0
1429,75.0,0.0,240.0,10.0,0.0
1430,60.0,0.0,240.0,12.0,0.0
1431,63.0,0.0,60.0,5.0,0.0
1432,54.0,0.0,120.0,7.0,0.0
1433,84.0,60.0,60.0,4.0,0.0
1434,69.0,60.0,240.0,11.0,0.0
1435,66.0,0.0,120.0,5.0,0.0
1436,81.0,60.0,120.0,4.0,0.0
1437,60.0,0.0,120.0,6.0,0.0
1438,57.0,0.0,120.0,7.0,0.0
1439,45.0,0.0,120.0,8.0,0.0
1440,78.0,0.0,120.0,4.0,0.0
1441,66.0,0.0,120.0,6.0,0.0
1442,69.0,60.0,120.0,5.0,0.0
1443,69.0,0.0,120.0,11.0,0.0
1444,75.0,0.0,120.0,10.0,0.0
1445,42.0,0.0,120.0,8.0,0.0
1446,54.0,0.0,120.0,13.0,0.0
1447,54.0,60.0,120.0,7.0,0.0
1448,60.0,0.0,120.0,12.0,0.0
1449,69.0,0.0,60.0,6.0,0.0
1450,75.0,0.0,60.0,4.0,0.0
1451,72.0,0.0,60.0,5.0,0.0
1452,43.0,0.0,120.0,8.0,0.0
1453,55.0,0.0,180.0,13.0,0.0
1454,67.0,0.0,180.0,11.0,0.0
1455,67.0,0.0,60.0,6.0,0.0
1456,76.0,0.0,180.0,10.0,0.0
1457,71.0,0.0,60.0,5.0,0.0
1458,55.0,60.0,120.0,7.0,0.0
1459,59.0,0.0,180.0,12.0,0.0
1460,76.0,60.0,60.0,4.0,0.0
1461,71.0,0.0,120.0,5.0,0.0
1462,64.0,60.0,120.0,6.0,0.0
1463,79.0,0.0,120.0,4.0,0.0
1464,40.0,0.0,120.0,8.0,0.0
1465,52.0,0.0,120.0,7.0,0.0
1466,67.0,0.0,60.0,6.0,0.0
1467,71.0,60.0,120.0,5.0,0.0
1468,67.0,60.0,60.0,11.0,0.0
1469,55.0,0.0,60.0,13.0,0.0
1470,76.0,0.0,60.0,10.0,0.0
1471,59.0,0.0,60.0,12.0,0.0
1472,83.0,0.0,120.0,4.0,0.0
1473,51.0,0.0,60.0,13.0,0.0
1474,59.0,0.0,60.0,12.0,0.0
1475,78.0,0.0,60.0,10.0,0.0
1476,39.0,0.0,120.0,8.0,0.0
1477,66.0,0.0,60.0,6.0,0.0
1478,51.0,0.0,120.0,7.0,0.0
1479,71.0,0.0,60.0,11.0,0.0
1480,81.0,0.0,60.0,4.0,0.0
1481,59.0,60.0,60.0,12.0,0.0
1482,51.0,0.0,60.0,13.0,0.0
1483,66.0,0.0,60.0,6.0,0.0
1484,71.0,0.0,60.0,11.0,0.0
1485,71.0,60.0,120.0,5.0,0.0
1486,78.0,0.0,60.0,10.0,0.0
1487,64.0,60.0,120.0,6.0,0.0
1488,79.0,0.0,60.0,4.0,0.0
1489,71.0,0.0,120.0,11.0,0.0
1490,52.0,0.0,120.0,7.0,0.0
1491,64.0,0.0,480.0,12.0,0.0
1492,79.0,0.0,480.0,10.0,0.0
1493,40.0,0.0,120.0,8.0,0.0
1494,52.0,0.0,120.0,13.0,0.0
1495,67.0,60.0,120.0,5.0,0.0
1496,67.0,0.0,120.0,4.0,0.0
1497,70.0,0.0,120.0,11.0,0.0
1498,60.0,0.0,120.0,7.0,0.0
1499,48.0,0.0,120.0,8.0,0.0
1500,60.0,0.0,120.0,13.0,0.0
1501,60.0,60.0,120.0,6.0,0.0
1502,64.0,0.0,120.0,4.0,0.0
1503,64.0,60.0,120.0,5.0,0.0
1504,47.0,0.0,120.0,8.0,0.0
1505,59.0,0.0,120.0,7.0,0.0
1506,59.0,0.0,120.0,6.0,0.0
1507,59.0,60.0,120.0,13.0,0.0
1508,71.0,0.0,120.0,11.0,0.0
1509,62.0,0.0,60.0,5.0,0.0
1510,62.0,0.0,60.0,4.0,0.0
1511,58.0,0.0,120.0,7.0,0.0
1512,46.0,0.0,120.0,8.0,0.0
1513,73.0,0.0,480.0,11.0,0.0
1514,61.0,0.0,60.0,4.0,0.0
1515,61.0,60.0,60.0,5.0,0.0
1516,58.0,60.0,120.0,6.0,0.0
1517,58.0,0.0,240.0,13.0,0.0
1518,76.0,60.0,120.0,5.0,0.0
1519,82.0,0.0,120.0,4.0,0.0
1520,34.0,60.0,120.0,8.0,0.0
1521,46.0,0.0,120.0,7.0,0.0
1522,78.0,0.0,120.0,10.0,0.0
1523,61.0,0.0,120.0,12.0,0.0
1524,73.0,0.0,120.0,6.0,0.0
1525,76.0,60.0,120.0,5.0,0.0
1526,83.0,0.0,120.0,4.0,0.0
1527,58.0,0.0,120.0,7.0,0.0
1528,46.0,0.0,120.0,8.0,0.0
1529,66.0,0.0,120.0,12.0,0.0
1530,58.0,0.0,120.0,13.0,0.0
1531,76.0,60.0,120.0,10.0,0.0
1532,73.0,0.0,120.0,6.0,0.0
1533,85.0,0.0,60.0,4.0,0.0
1534,76.0,0.0,60.0,5.0,0.0
1535,71.0,0.0,120.0,6.0,0.0
1536,86.0,60.0,60.0,4.0,0.0
1537,66.0,0.0,60.0,5.0,0.0
1538,66.0,0.0,120.0,12.0,0.0
1539,47.0,0.0,120.0,8.0,0.0
1540,59.0,60.0,120.0,13.0,0.0
1541,59.0,0.0,120.0,7.0,0.0
1542,74.0,0.0,120.0,10.0,0.0
1543,74.0,60.0,120.0,5.0,0.0
1544,74.0,0.0,120.0,4.0,0.0
1545,59.0,0.0,120.0,6.0,0.0
1546,43.0,0.0,120.0,8.0,0.0
1547,55.0,0.0,120.0,7.0,0.0
1548,74.0,60.0,120.0,10.0,0.0
1549,71.0,0.0,120.0,11.0,0.0
1550,55.0,0.0,120.0,13.0,0.0
1551,59.0,0.0,120.0,12.0,0.0
1552,71.0,60.0,120.0,4.0,0.0
1553,71.0,0.0,120.0,5.0,0.0
1554,54.0,0.0,120.0,13.0,0.0
1555,71.0,0.0,120.0,11.0,0.0
1556,42.0,0.0,120.0,8.0,0.0
1557,74.0,0.0,120.0,10.0,0.0
1558,66.0,0.0,120.0,12.0,0.0
1559,54.0,0.0,120.0,7.0,0.0
1560,66.0,0.0,120.0,6.0,0.0
1561,69.0,60.0,60.0,5.0,0.0
1562,69.0,0.0,60.0,4.0,0.0
1563,53.0,0.0,360.0,13.0,0.0
1564,41.0,0.0,120.0,8.0,0.0
1565,71.0,0.0,360.0,11.0,0.0
1566,74.0,0.0,360.0,10.0,0.0
1567,68.0,0.0,60.0,5.0,0.0
1568,68.0,60.0,60.0,4.0,0.0
1569,68.0,0.0,360.0,12.0,0.0
1570,53.0,45.0,120.0,7.0,0.0
1571,65.0,0.0,120.0,6.0,0.0
1572,62.0,15.0,120.0,5.0,0.0
1573,62.0,60.0,120.0,4.0,0.0
1574,56.0,45.0,120.0,6.0,0.0
1575,47.0,0.0,120.0,8.0,0.0
1576,59.0,0.0,120.0,7.0,0.0
1577,59.0,15.0,120.0,5.0,0.0
1578,59.0,60.0,120.0,4.0,0.0
1579,53.0,0.0,120.0,7.0,0.0
1580,65.0,0.0,120.0,6.0,0.0
1581,41.0,0.0,120.0,8.0,0.0
1582,68.0,60.0,60.0,5.0,0.0
1583,83.0,0.0,60.0,4.0,0.0
1584,54.0,0.0,120.0,13.0,0.0
1585,70.0,0.0,120.0,11.0,0.0
1586,54.0,0.0,120.0,7.0,0.0
1587,82.0,60.0,60.0,4.0,0.0
1588,61.0,0.0,120.0,12.0,0.0
1589,42.0,60.0,120.0,8.0,0.0
1590,73.0,0.0,120.0,10.0,0.0
1591,66.0,0.0,120.0,6.0,0.0
1592,66.0,0.0,60.0,5.0,0.0
1593,77.0,0.0,60.0,4.0,0.0
1594,77.0,0.0,60.0,5.0,0.0
1595,78.0,0.0,60.0,4.0,0.0
1596,78.0,60.0,60.0,5.0,0.0
1597,73.0,0.0,60.0,4.0,0.0
1598,73.0,60.0,60.0,5.0,0.0
1599,74.0,60.0,60.0,5.0,0.0
1600,74.0,0.0,60.0,4.0,0.0
1601,65.0,0.0,60.0,4.0,0.0
1602,65.0,120.0,60.0,5.0,0.0
1603,66.0,300.0,120.0,5.0,0.0
1604,66.0,0.0,120.0,4.0,0.0
1605,59.0,0.0,60.0,4.0,0.0
1606,35.0,0.0,60.0,8.0,0.0
1607,71.0,60.0,120.0,15.0,0.0
1608,62.0,0.0,60.0,6.0,0.0
1609,66.0,0.0,120.0,15.0,0.0
1610,62.0,0.0,120.0,15.0,0.0
1611,59.0,30.0,60.0,5.0,0.0
1612,47.0,0.0,60.0,15.0,0.0
1613,71.0,0.0,60.0,4.0,0.0
1614,47.0,0.0,30.0,8.0,0.0
1615,62.0,30.0,30.0,6.0,0.0
1616,71.0,0.0,60.0,5.0,0.0
1617,59.0,0.0,60.0,1.0,0.0
1618,59.0,0.0,30.0,15.0,0.0
1619,59.0,0.0,60.0,13.0,0.0
1620,61.0,0.0,30.0,6.0,0.0
1621,58.0,0.0,30.0,15.0,0.0
1622,46.0,0.0,30.0,8.0,0.0
1623,66.0,0.0,120.0,15.0,0.0
1624,47.0,0.0,60.0,8.0,0.0
1625,62.0,30.0,60.0,6.0,0.0
1626,59.0,0.0,60.0,13.0,0.0
1627,74.0,0.0,120.0,15.0,0.0
1628,71.0,0.0,120.0,15.0,0.0
1629,59.0,0.0,60.0,15.0,0.0
1630,59.0,0.0,60.0,1.0,0.0
1631,59.0,0.0,60.0,13.0,0.0
1632,62.0,0.0,60.0,15.0,0.0
1633,50.0,60.0,60.0,8.0,0.0
1634,59.0,0.0,60.0,1.0,0.0
1635,74.0,0.0,30.0,5.0,0.0
1636,66.0,0.0,60.0,6.0,0.0
1637,83.0,30.0,30.0,4.0,0.0
1638,66.0,0.0,30.0,5.0,0.0
1639,74.0,0.0,30.0,4.0,0.0
1640,59.0,0.0,90.0,13.0,0.0
1641,64.0,0.0,60.0,6.0,0.0
1642,67.0,0.0,60.0,5.0,0.0
1643,49.0,0.0,60.0,15.0,0.0
1644,64.0,0.0,180.0,15.0,0.0
1645,37.0,30.0,60.0,8.0,0.0
1646,76.0,0.0,60.0,4.0,0.0
1647,71.0,0.0,60.0,15.0,0.0
1648,67.0,0.0,60.0,15.0,0.0
1649,59.0,0.0,90.0,1.0,0.0
1650,61.0,30.0,30.0,15.0,0.0
1651,49.0,0.0,30.0,8.0,0.0
1652,70.0,0.0,180.0,15.0,0.0
1653,79.0,0.0,60.0,4.0,0.0
1654,76.0,60.0,60.0,5.0,0.0
1655,64.0,0.0,30.0,6.0,0.0
1656,47.0,0.0,30.0,8.0,0.0
1657,62.0,0.0,30.0,6.0,0.0
1658,58.0,0.0,30.0,1.0,0.0
1659,59.0,0.0,30.0,15.0,0.0
1660,58.0,0.0,30.0,13.0,0.0
1661,61.0,0.0,60.0,15.0,0.0
1662,58.0,0.0,120.0,1.0,0.0
1663,64.0,0.0,60.0,6.0,0.0
1664,49.0,30.0,60.0,8.0,0.0
1665,58.0,0.0,120.0,13.0,0.0
1666,52.0,0.0,60.0,8.0,0.0
1667,67.0,0.0,60.0,6.0,0.0
1668,64.0,0.0,60.0,15.0,0.0
1669,76.0,30.0,30.0,5.0,0.0
1670,79.0,0.0,30.0,4.0,0.0
1671,70.0,60.0,30.0,4.0,0.0
1672,73.0,0.0,30.0,5.0,0.0
1673,66.0,0.0,60.0,6.0,0.0
1674,64.0,0.0,120.0,15.0,0.0
1675,30.0,0.0,60.0,8.0,0.0
1676,69.0,0.0,120.0,15.0,0.0
1677,85.0,30.0,60.0,4.0,0.0
1678,82.0,0.0,60.0,5.0,0.0
1679,42.0,0.0,60.0,15.0,0.0
1680,58.0,0.0,120.0,15.0,0.0
1681,61.0,0.0,120.0,15.0,0.0
1682,66.0,0.0,60.0,4.0,0.0
1683,54.0,0.0,30.0,15.0,0.0
1684,42.0,0.0,30.0,8.0,0.0
1685,64.0,0.0,120.0,13.0,0.0
1686,64.0,0.0,120.0,1.0,0.0
1687,61.0,0.0,60.0,5.0,0.0
1688,58.0,30.0,30.0,6.0,0.0
1689,41.0,60.0,30.0,8.0,0.0
1690,53.0,0.0,30.0,15.0,0.0
1691,56.0,0.0,30.0,6.0,0.0
1692,69.0,0.0,60.0,15.0,0.0
1693,73.0,0.0,60.0,15.0,0.0
1694,54.0,0.0,60.0,15.0,0.0
1695,58.0,30.0,60.0,6.0,0.0
1696,42.0,0.0,60.0,8.0,0.0
1697,73.0,0.0,60.0,15.0,0.0
1698,64.0,0.0,60.0,13.0,0.0
1699,46.0,0.0,60.0,8.0,0.0
1700,66.0,0.0,60.0,15.0,0.0
1701,64.0,0.0,60.0,15.0,0.0
1702,70.0,30.0,30.0,5.0,0.0
1703,58.0,0.0,60.0,15.0,0.0
1704,64.0,60.0,60.0,3.0,0.0
1705,61.0,0.0,60.0,6.0,0.0
1706,73.0,0.0,30.0,4.0,0.0
1707,64.0,0.0,60.0,1.0,0.0
1708,66.0,0.0,30.0,4.0,0.0
1709,66.0,0.0,30.0,5.0,0.0
1710,78.0,0.0,60.0,4.0,0.0
1711,64.0,0.0,120.0,15.0,0.0
1712,66.0,0.0,240.0,15.0,0.0
1713,47.0,0.0,60.0,15.0,0.0
1714,59.0,30.0,60.0,6.0,0.0
1715,35.0,0.0,60.0,8.0,0.0
1716,64.0,60.0,120.0,1.0,0.0
1717,64.0,0.0,120.0,13.0,0.0
1718,64.0,0.0,120.0,3.0,0.0
1719,78.0,0.0,60.0,5.0,0.0
1720,47.0,0.0,30.0,8.0,0.0
1721,66.0,0.0,60.0,12.0,0.0
1722,66.0,0.0,60.0,1.0,0.0
1723,59.0,30.0,30.0,15.0,0.0
1724,62.0,0.0,30.0,6.0,0.0
1725,59.0,0.0,60.0,5.0,0.0
1726,66.0,0.0,60.0,3.0,0.0
1727,59.0,0.0,60.0,4.0,0.0
1728,61.0,0.0,30.0,6.0,0.0
1729,46.0,0.0,30.0,8.0,0.0
1730,58.0,0.0,30.0,15.0,0.0
1731,47.0,0.0,60.0,8.0,0.0
1732,62.0,0.0,120.0,15.0,0.0
1733,62.0,0.0,120.0,1.0,0.0
1734,66.0,0.0,60.0,1.0,0.0
1735,62.0,0.0,60.0,6.0,0.0
1736,59.0,30.0,60.0,15.0,0.0
1737,66.0,0.0,60.0,3.0,0.0
1738,71.0,0.0,120.0,15.0,0.0
1739,62.0,0.0,120.0,13.0,0.0
1740,66.0,0.0,60.0,12.0,0.0
1741,62.0,0.0,120.0,3.0,0.0
1742,66.0,0.0,60.0,6.0,0.0
1743,74.0,30.0,30.0,5.0,0.0
1744,66.0,0.0,60.0,1.0,0.0
1745,50.0,0.0,60.0,8.0,0.0
1746,66.0,0.0,60.0,3.0,0.0
1747,66.0,60.0,60.0,12.0,0.0
1748,78.0,0.0,30.0,4.0,0.0
1749,71.0,0.0,30.0,4.0,0.0
1750,71.0,0.0,30.0,5.0,0.0
1751,66.0,0.0,120.0,15.0,0.0
1752,62.0,60.0,120.0,15.0,0.0
1753,59.0,0.0,120.0,15.0,0.0
1754,44.0,0.0,60.0,15.0,0.0
1755,66.0,30.0,90.0,12.0,0.0
1756,83.0,30.0,60.0,4.0,0.0
1757,32.0,0.0,60.0,8.0,0.0
1758,59.0,0.0,60.0,6.0,0.0
1759,83.0,0.0,60.0,5.0,0.0
1760,66.0,0.0,90.0,3.0,0.0
1761,66.0,0.0,90.0,1.0,0.0
1762,62.0,0.0,60.0,3.0,0.0
1763,62.0,0.0,60.0,13.0,0.0
1764,62.0,0.0,60.0,1.0,0.0
1765,71.0,0.0,30.0,6.0,0.0
1766,59.0,0.0,60.0,5.0,0.0
1767,56.0,0.0,30.0,15.0,0.0
1768,44.0,0.0,30.0,8.0,0.0
1769,59.0,0.0,60.0,4.0,0.0
1770,65.0,0.0,30.0,3.0,0.0
1771,65.0,0.0,30.0,1.0,0.0
1772,65.0,0.0,30.0,12.0,0.0
1773,69.0,0.0,30.0,6.0,0.0
1774,54.0,0.0,30.0,15.0,0.0
1775,42.0,0.0,30.0,8.0,0.0
1776,59.0,0.0,60.0,13.0,0.0
1777,65.0,0.0,120.0,1.0,0.0
1778,71.0,0.0,60.0,6.0,0.0
1779,59.0,30.0,60.0,1.0,0.0
1780,59.0,0.0,60.0,3.0,0.0
1781,44.0,0.0,60.0,8.0,0.0
1782,65.0,0.0,120.0,12.0,0.0
1783,55.0,0.0,60.0,15.0,0.0
1784,71.0,60.0,120.0,15.0,0.0
1785,65.0,0.0,120.0,15.0,0.0
1786,65.0,0.0,120.0,3.0,0.0
1787,61.0,0.0,30.0,1.0,0.0
1788,74.0,0.0,60.0,6.0,0.0
1789,61.0,0.0,30.0,3.0,0.0
1790,61.0,30.0,30.0,13.0,0.0
1791,59.0,0.0,60.0,15.0,0.0
1792,80.0,0.0,30.0,5.0,0.0
1793,80.0,0.0,30.0,4.0,0.0
1794,47.0,0.0,60.0,8.0,0.0
1795,62.0,0.0,30.0,1.0,0.0
1796,77.0,0.0,30.0,5.0,0.0
1797,62.0,0.0,30.0,13.0,0.0
1798,62.0,0.0,30.0,3.0,0.0
1799,77.0,0.0,30.0,4.0,0.0
1800,83.0,0.0,60.0,4.0,0.0
1801,56.0,0.0,120.0,13.0,0.0
1802,37.0,0.0,60.0,8.0,0.0
1803,71.0,0.0,120.0,15.0,0.0
1804,67.0,0.0,120.0,15.0,0.0
1805,56.0,60.0,120.0,1.0,0.0
1806,65.0,0.0,60.0,6.0,0.0
1807,56.0,0.0,120.0,3.0,0.0
1808,65.0,0.0,120.0,15.0,0.0
1809,49.0,30.0,60.0,15.0,0.0
1810,83.0,0.0,60.0,5.0,0.0
1811,61.0,30.0,30.0,15.0,0.0
1812,49.0,0.0,30.0,8.0,0.0
1813,71.0,0.0,120.0,3.0,0.0
1814,71.0,0.0,120.0,12.0,0.0
1815,65.0,0.0,30.0,6.0,0.0
1816,71.0,0.0,120.0,1.0,0.0
1817,61.0,0.0,60.0,5.0,0.0
1818,61.0,0.0,60.0,4.0,0.0
1819,48.0,0.0,30.0,8.0,0.0
1820,63.0,0.0,30.0,6.0,0.0
1821,60.0,0.0,30.0,15.0,0.0
1822,73.0,0.0,60.0,15.0,0.0
1823,67.0,0.0,60.0,15.0,0.0
1824,64.0,0.0,60.0,15.0,0.0
1825,61.0,30.0,60.0,15.0,0.0
1826,65.0,0.0,60.0,6.0,0.0
1827,61.0,0.0,120.0,1.0,0.0
1828,49.0,0.0,60.0,8.0,0.0
1829,61.0,0.0,120.0,13.0,0.0
1830,61.0,0.0,120.0,3.0,0.0
1831,67.0,0.0,60.0,15.0,0.0
1832,65.0,0.0,60.0,15.0,0.0
1833,71.0,0.0,60.0,1.0,0.0
1834,71.0,0.0,60.0,3.0,0.0
1835,53.0,0.0,60.0,8.0,0.0
1836,71.0,0.0,60.0,15.0,0.0
1837,80.0,30.0,30.0,5.0,0.0
1838,68.0,0.0,60.0,6.0,0.0
1839,73.0,0.0,60.0,15.0,0.0
1840,71.0,60.0,60.0,12.0,0.0
1841,80.0,0.0,30.0,4.0,0.0
1842,73.0,0.0,30.0,5.0,0.0
1843,73.0,0.0,30.0,4.0,0.0
1844,66.0,0.0,60.0,6.0,0.0
1845,71.0,0.0,120.0,12.0,0.0
1846,85.0,30.0,60.0,5.0,0.0
1847,85.0,0.0,60.0,4.0,0.0
1848,71.0,0.0,120.0,3.0,0.0
1849,71.0,0.0,120.0,1.0,0.0
1850,42.0,0.0,60.0,8.0,0.0
1851,71.0,0.0,60.0,15.0,0.0
1852,61.0,0.0,60.0,15.0,0.0
1853,66.0,0.0,60.0,15.0,0.0
1854,54.0,0.0,60.0,15.0,0.0
1855,66.0,0.0,30.0,15.0,0.0
1856,64.0,0.0,60.0,1.0,0.0
1857,69.0,0.0,60.0,15.0,0.0
1858,76.0,0.0,180.0,15.0,0.0
1859,64.0,0.0,60.0,13.0,0.0
1860,73.0,0.0,180.0,15.0,0.0
1861,66.0,60.0,60.0,5.0,0.0
1862,54.0,30.0,30.0,8.0,0.0
1863,70.0,0.0,30.0,6.0,0.0
1864,66.0,0.0,60.0,4.0,0.0
1865,64.0,0.0,60.0,3.0,0.0
1866,53.0,0.0,30.0,8.0,0.0
1867,68.0,0.0,30.0,6.0,0.0
1868,64.0,0.0,30.0,15.0,0.0
1869,70.0,0.0,120.0,12.0,0.0
1870,70.0,0.0,120.0,15.0,0.0
1871,66.0,0.0,60.0,15.0,0.0
1872,70.0,0.0,120.0,1.0,0.0
1873,64.0,30.0,60.0,1.0,0.0
1874,70.0,0.0,120.0,3.0,0.0
1875,64.0,0.0,60.0,13.0,0.0
1876,64.0,0.0,60.0,3.0,0.0
1877,54.0,0.0,60.0,8.0,0.0
1878,70.0,0.0,60.0,6.0,0.0
1879,73.0,0.0,60.0,6.0,0.0
1880,64.0,0.0,60.0,3.0,0.0
1881,64.0,60.0,60.0,1.0,0.0
1882,64.0,0.0,60.0,13.0,0.0
1883,58.0,0.0,60.0,8.0,0.0
1884,82.0,30.0,30.0,5.0,0.0
1885,82.0,0.0,30.0,4.0,0.0
1886,78.0,0.0,30.0,4.0,0.0
1887,78.0,0.0,30.0,5.0,0.0
1888,81.0,0.0,60.0,5.0,0.0
1889,71.0,0.0,60.0,15.0,0.0
1890,66.0,0.0,60.0,15.0,0.0
1891,66.0,0.0,60.0,6.0,0.0
1892,64.0,0.0,90.0,3.0,0.0
1893,64.0,0.0,90.0,13.0,0.0
1894,35.0,30.0,60.0,8.0,0.0
1895,64.0,0.0,60.0,15.0,0.0
1896,47.0,0.0,60.0,15.0,0.0
1897,81.0,0.0,60.0,4.0,0.0
1898,64.0,0.0,90.0,1.0,0.0
1899,59.0,0.0,60.0,4.0,0.0
1900,66.0,0.0,180.0,15.0,0.0
1901,59.0,0.0,60.0,5.0,0.0
1902,69.0,60.0,180.0,15.0,0.0
1903,69.0,60.0,60.0,3.0,0.0
1904,59.0,30.0,30.0,15.0,0.0
1905,63.0,0.0,180.0,15.0,0.0
1906,69.0,0.0,60.0,12.0,0.0
1907,63.0,0.0,30.0,6.0,0.0
1908,47.0,0.0,30.0,8.0,0.0
1909,69.0,0.0,60.0,1.0,0.0
1910,46.0,0.0,30.0,8.0,0.0
1911,58.0,0.0,30.0,15.0,0.0
1912,61.0,0.0,30.0,6.0,0.0
1913,63.0,0.0,30.0,3.0,0.0
1914,63.0,0.0,30.0,13.0,0.0
1915,63.0,0.0,30.0,1.0,0.0
1916,63.0,0.0,120.0,13.0,0.0
1917,63.0,30.0,60.0,6.0,0.0
1918,47.0,0.0,60.0,8.0,0.0
1919,63.0,0.0,120.0,3.0,0.0
1920,63.0,0.0,120.0,1.0,0.0
1921,69.0,0.0,60.0,1.0,0.0
1922,69.0,0.0,60.0,3.0,0.0
1923,69.0,0.0,60.0,12.0,0.0
1924,59.0,0.0,60.0,15.0,0.0
1925,69.0,0.0,60.0,1.0,0.0
1926,78.0,30.0,30.0,4.0,0.0
1927,66.0,0.0,60.0,6.0,0.0
1928,78.0,0.0,30.0,5.0,0.0
1929,51.0,0.0,60.0,8.0,0.0
1930,69.0,0.0,60.0,12.0,0.0
1931,69.0,0.0,60.0,3.0,0.0
1932,71.0,0.0,30.0,4.0,0.0
1933,71.0,0.0,30.0,5.0,0.0
1934,52.0,30.0,60.0,15.0,0.0
1935,69.0,30.0,90.0,12.0,0.0
1936,40.0,0.0,60.0,8.0,0.0
1937,69.0,0.0,90.0,1.0,0.0
1938,83.0,0.0,60.0,5.0,0.0
1939,83.0,0.0,60.0,4.0,0.0
1940,59.0,0.0,60.0,6.0,0.0
1941,64.0,0.0,60.0,15.0,0.0
1942,71.0,0.0,60.0,15.0,0.0
1943,69.0,0.0,60.0,15.0,0.0
1944,69.0,0.0,90.0,3.0,0.0
1945,67.0,0.0,30.0,6.0,0.0
1946,64.0,0.0,120.0,3.0,0.0
1947,64.0,0.0,120.0,1.0,0.0
1948,64.0,0.0,120.0,13.0,0.0
1949,71.0,0.0,60.0,0.0,0.0
1950,71.0,0.0,180.0,15.0,0.0
1951,64.0,0.0,30.0,15.0,0.0
1952,71.0,0.0,60.0,11.0,0.0
1953,67.0,0.0,180.0,15.0,0.0
1954,52.0,0.0,30.0,8.0,0.0
1955,71.0,0.0,60.0,3.0,0.0
1956,64.0,60.0,60.0,5.0,0.0
1957,64.0,0.0,60.0,4.0,0.0
1958,67.0,0.0,30.0,1.0,0.0
1959,66.0,0.0,30.0,6.0,0.0
1960,67.0,0.0,30.0,12.0,0.0
1961,51.0,0.0,30.0,8.0,0.0
1962,63.0,0.0,30.0,15.0,0.0
1963,67.0,0.0,30.0,3.0,0.0
1964,71.0,0.0,60.0,0.0,0.0
1965,52.0,0.0,60.0,8.0,0.0
1966,67.0,0.0,60.0,6.0,0.0
1967,64.0,0.0,60.0,15.0,0.0
1968,71.0,30.0,60.0,11.0,0.0
1969,71.0,0.0,60.0,3.0,0.0
1970,67.0,0.0,120.0,12.0,0.0
1971,71.0,0.0,60.0,6.0,0.0
1972,71.0,60.0,60.0,3.0,0.0
1973,79.0,0.0,30.0,5.0,0.0
1974,67.0,0.0,60.0,13.0,0.0
1975,71.0,0.0,60.0,0.0,0.0
1976,55.0,0.0,60.0,8.0,0.0
1977,71.0,0.0,60.0,11.0,0.0
1978,67.0,0.0,60.0,3.0,0.0
1979,79.0,30.0,30.0,4.0,0.0
1980,67.0,0.0,60.0,1.0,0.0
1981,76.0,0.0,30.0,4.0,0.0
1982,76.0,0.0,30.0,5.0,0.0
1983,88.0,0.0,60.0,4.0,0.0
1984,37.0,0.0,60.0,8.0,0.0
1985,71.0,30.0,90.0,0.0,0.0
1986,71.0,30.0,60.0,6.0,0.0
1987,71.0,0.0,90.0,3.0,0.0
1988,64.0,0.0,120.0,1.0,0.0
1989,49.0,0.0,60.0,15.0,0.0
1990,64.0,60.0,120.0,15.0,0.0
1991,88.0,0.0,60.0,5.0,0.0
1992,71.0,0.0,60.0,15.0,0.0
1993,64.0,0.0,120.0,13.0,0.0
1994,64.0,0.0,120.0,3.0,0.0
1995,71.0,0.0,90.0,11.0,0.0
1996,67.0,0.0,120.0,15.0,0.0
1997,70.0,0.0,60.0,15.0,0.0
1998,67.0,0.0,60.0,3.0,0.0
1999,49.0,0.0,30.0,8.0,0.0
2000,67.0,0.0,60.0,12.0,0.0
2001,64.0,0.0,30.0,6.0,0.0
2002,61.0,0.0,30.0,15.0,0.0
2003,67.0,0.0,60.0,1.0,0.0
2004,76.0,0.0,60.0,5.0,0.0
2005,76.0,0.0,60.0,4.0,0.0
2006,59.0,0.0,30.0,15.0,0.0
2007,70.0,0.0,30.0,0.0,0.0
2008,62.0,0.0,30.0,6.0,0.0
2009,47.0,0.0,30.0,8.0,0.0
2010,70.0,0.0,30.0,11.0,0.0
2011,70.0,0.0,30.0,3.0,0.0
2012,61.0,0.0,120.0,1.0,0.0
2013,61.0,60.0,120.0,3.0,0.0
2014,61.0,0.0,120.0,13.0,0.0
2015,70.0,0.0,120.0,11.0,0.0
2016,61.0,0.0,60.0,15.0,0.0
2017,64.0,0.0,60.0,1.0,0.0
2018,70.0,0.0,120.0,3.0,0.0
2019,64.0,0.0,60.0,12.0,0.0
2020,64.0,0.0,60.0,15.0,0.0
2021,64.0,0.0,60.0,6.0,0.0
2022,67.0,0.0,120.0,15.0,0.0
2023,73.0,0.0,120.0,15.0,0.0
2024,64.0,0.0,60.0,3.0,0.0
2025,49.0,30.0,60.0,8.0,0.0
2026,70.0,0.0,120.0,0.0,0.0
2027,52.0,0.0,60.0,8.0,0.0
2028,79.0,0.0,30.0,5.0,0.0
2029,67.0,0.0,60.0,6.0,0.0
2030,79.0,0.0,30.0,4.0,0.0
2031,66.0,0.0,30.0,3.0,0.0
2032,66.0,0.0,30.0,12.0,0.0
2033,66.0,30.0,30.0,1.0,0.0
2034,64.0,0.0,60.0,15.0,0.0
2035,70.0,0.0,30.0,4.0,0.0
2036,67.0,0.0,30.0,12.0,0.0
2037,67.0,0.0,30.0,1.0,0.0
2038,70.0,0.0,30.0,5.0,0.0
2039,67.0,0.0,30.0,3.0,0.0
2040,42.0,0.0,60.0,15.0,0.0
2041,58.0,0.0,120.0,13.0,0.0
2042,58.0,0.0,120.0,1.0,0.0
2043,58.0,0.0,180.0,15.0,0.0
2044,58.0,0.0,120.0,3.0,0.0
2045,30.0,0.0,60.0,8.0,0.0
2046,85.0,30.0,60.0,4.0,0.0
2047,85.0,0.0,60.0,5.0,0.0
2048,61.0,0.0,120.0,3.0,0.0
2049,61.0,0.0,120.0,12.0,0.0
2050,61.0,0.0,120.0,1.0,0.0
2051,61.0,30.0,180.0,15.0,0.0
2052,58.0,0.0,60.0,6.0,0.0
2053,76.0,0.0,180.0,15.0,0.0
2054,42.0,30.0,30.0,8.0,0.0
2055,76.0,0.0,120.0,11.0,0.0
2056,76.0,0.0,120.0,3.0,0.0
2057,76.0,0.0,120.0,0.0,0.0
2058,66.0,0.0,60.0,5.0,0.0
2059,70.0,0.0,30.0,6.0,0.0
2060,54.0,0.0,30.0,15.0,0.0
2061,66.0,0.0,60.0,4.0,0.0
2062,68.0,0.0,30.0,6.0,0.0
2063,53.0,60.0,30.0,15.0,0.0
2064,41.0,0.0,30.0,8.0,0.0
2065,54.0,0.0,120.0,3.0,0.0
2066,66.0,0.0,120.0,3.0,0.0
2067,42.0,0.0,60.0,8.0,0.0
2068,66.0,0.0,120.0,12.0,0.0
2069,54.0,0.0,120.0,13.0,0.0
2070,54.0,0.0,120.0,1.0,0.0
2071,54.0,0.0,60.0,15.0,0.0
2072,66.0,0.0,120.0,1.0,0.0
2073,70.0,0.0,60.0,6.0,0.0
2074,76.0,0.0,60.0,3.0,0.0
2075,76.0,0.0,60.0,11.0,0.0
2076,85.0,0.0,30.0,5.0,0.0
2077,76.0,0.0,60.0,0.0,0.0
2078,61.0,0.0,60.0,15.0,0.0
2079,76.0,0.0,60.0,15.0,0.0
2080,66.0,60.0,60.0,15.0,0.0
2081,46.0,0.0,60.0,8.0,0.0
2082,85.0,30.0,30.0,4.0,0.0
2083,58.0,0.0,60.0,15.0,0.0
2084,73.0,0.0,60.0,6.0,0.0
2085,78.0,0.0,30.0,5.0,0.0
2086,78.0,0.0,30.0,4.0,0.0
2087,66.0,0.0,60.0,6.0,0.0
2088,76.0,0.0,120.0,11.0,0.0
2089,76.0,0.0,120.0,3.0,0.0
2090,59.0,0.0,60.0,13.0,0.0
2091,90.0,0.0,60.0,5.0,0.0
2092,35.0,0.0,60.0,8.0,0.0
2093,62.0,0.0,60.0,15.0,0.0
2094,90.0,0.0,60.0,4.0,0.0
2095,66.0,0.0,60.0,15.0,0.0
2096,78.0,0.0,60.0,15.0,0.0
2097,76.0,0.0,120.0,0.0,0.0
2098,47.0,30.0,60.0,15.0,0.0
2099,78.0,0.0,60.0,0.0,0.0
2100,59.0,30.0,30.0,6.0,0.0
2101,74.0,0.0,60.0,15.0,0.0
2102,71.0,0.0,60.0,4.0,0.0
2103,59.0,60.0,60.0,3.0,0.0
2104,78.0,0.0,60.0,15.0,0.0
2105,59.0,0.0,60.0,1.0,0.0
2106,59.0,0.0,30.0,15.0,0.0
2107,59.0,0.0,30.0,7.0,0.0
2108,59.0,0.0,60.0,13.0,0.0
2109,71.0,0.0,60.0,5.0,0.0
2110,59.0,0.0,120.0,12.0,0.0
2111,78.0,0.0,60.0,10.0,0.0
2112,58.0,0.0,30.0,7.0,0.0
2113,57.0,0.0,30.0,6.0,0.0
2114,58.0,0.0,30.0,15.0,0.0
2115,78.0,0.0,60.0,0.0,0.0
2116,74.0,0.0,120.0,3.0,0.0
2117,74.0,0.0,120.0,11.0,0.0
2118,59.0,0.0,60.0,6.0,0.0
2119,78.0,0.0,120.0,15.0,0.0
2120,78.0,0.0,60.0,10.0,0.0
2121,71.0,0.0,120.0,15.0,0.0
2122,74.0,0.0,120.0,15.0,0.0
2123,59.0,0.0,60.0,15.0,0.0
2124,59.0,0.0,60.0,7.0,0.0
2125,74.0,0.0,120.0,0.0,0.0
2126,71.0,0.0,60.0,1.0,0.0
2127,62.0,60.0,60.0,7.0,0.0
2128,71.0,0.0,60.0,3.0,0.0
2129,62.0,0.0,60.0,6.0,0.0
2130,78.0,0.0,60.0,0.0,0.0
2131,78.0,0.0,30.0,5.0,0.0
2132,71.0,0.0,60.0,12.0,0.0
2133,62.0,0.0,60.0,15.0,0.0
2134,78.0,0.0,60.0,10.0,0.0
2135,78.0,30.0,30.0,4.0,0.0
2136,71.0,0.0,30.0,5.0,0.0
2137,71.0,0.0,30.0,4.0,0.0
2138,71.0,0.0,120.0,12.0,0.0
2139,78.0,0.0,90.0,10.0,0.0
2140,56.0,30.0,60.0,7.0,0.0
2141,83.0,0.0,60.0,4.0,0.0
2142,71.0,0.0,120.0,3.0,0.0
2143,56.0,0.0,60.0,6.0,0.0
2144,83.0,0.0,60.0,5.0,0.0
2145,71.0,0.0,120.0,1.0,0.0
2146,56.0,0.0,60.0,15.0,0.0
2147,74.0,0.0,240.0,15.0,0.0
2148,78.0,0.0,90.0,0.0,0.0
2149,78.0,0.0,60.0,15.0,0.0
2150,71.0,0.0,60.0,4.0,0.0
2151,74.0,0.0,60.0,3.0,0.0
2152,68.0,30.0,30.0,6.0,0.0
2153,74.0,0.0,60.0,11.0,0.0
2154,71.0,0.0,60.0,5.0,0.0
2155,68.0,0.0,30.0,15.0,0.0
2156,77.0,0.0,180.0,15.0,0.0
2157,74.0,0.0,60.0,0.0,0.0
2158,68.0,0.0,30.0,7.0,0.0
2159,77.0,0.0,30.0,0.0,0.0
2160,66.0,0.0,30.0,6.0,0.0
2161,77.0,0.0,30.0,10.0,0.0
2162,66.0,60.0,30.0,15.0,0.0
2163,66.0,0.0,30.0,7.0,0.0
2164,71.0,0.0,60.0,3.0,0.0
2165,77.0,0.0,120.0,10.0,0.0
2166,68.0,0.0,120.0,12.0,0.0
2167,68.0,0.0,120.0,1.0,0.0
2168,68.0,0.0,60.0,6.0,0.0
2169,68.0,0.0,60.0,15.0,0.0
2170,68.0,30.0,60.0,7.0,0.0
2171,77.0,0.0,120.0,0.0,0.0
2172,71.0,0.0,60.0,0.0,0.0
2173,71.0,0.0,60.0,11.0,0.0
2174,68.0,0.0,120.0,3.0,0.0
2175,71.0,0.0,60.0,15.0,0.0
2176,74.0,0.0,30.0,5.0,0.0
2177,73.0,0.0,30.0,3.0,0.0
2178,74.0,0.0,30.0,4.0,0.0
2179,73.0,30.0,30.0,11.0,0.0
2180,71.0,0.0,60.0,6.0,0.0
2181,71.0,0.0,60.0,7.0,0.0
2182,73.0,0.0,30.0,0.0,0.0
2183,74.0,0.0,30.0,0.0,0.0
2184,74.0,60.0,30.0,11.0,0.0
2185,71.0,0.0,30.0,5.0,0.0
2186,74.0,0.0,30.0,3.0,0.0
2187,71.0,0.0,30.0,4.0,0.0
2188,68.0,0.0,120.0,0.0,0.0
2189,83.0,0.0,60.0,4.0,0.0
2190,49.0,0.0,60.0,15.0,0.0
2191,65.0,0.0,120.0,15.0,0.0
2192,68.0,0.0,120.0,15.0,0.0
2193,61.0,0.0,60.0,6.0,0.0
2194,49.0,0.0,60.0,7.0,0.0
2195,83.0,0.0,120.0,15.0,0.0
2196,68.0,0.0,120.0,11.0,0.0
2197,77.0,0.0,120.0,15.0,0.0
2198,83.0,30.0,60.0,5.0,0.0
2199,65.0,0.0,120.0,1.0,0.0
2200,65.0,0.0,120.0,3.0,0.0
2201,68.0,0.0,120.0,3.0,0.0
2202,65.0,0.0,120.0,12.0,0.0
2203,83.0,0.0,120.0,10.0,0.0
2204,61.0,30.0,30.0,15.0,0.0
2205,73.0,0.0,60.0,4.0,0.0
2206,61.0,0.0,30.0,6.0,0.0
2207,83.0,0.0,120.0,0.0,0.0
2208,73.0,0.0,60.0,5.0,0.0
2209,61.0,0.0,30.0,7.0,0.0
2210,60.0,0.0,30.0,6.0,0.0
2211,60.0,0.0,30.0,15.0,0.0
2212,60.0,60.0,30.0,7.0,0.0
2213,61.0,0.0,60.0,15.0,0.0
2214,61.0,0.0,120.0,1.0,0.0
2215,61.0,30.0,60.0,6.0,0.0
2216,67.0,0.0,60.0,15.0,0.0
2217,77.0,0.0,60.0,15.0,0.0
2218,73.0,0.0,120.0,0.0,0.0
2219,73.0,0.0,120.0,11.0,0.0
2220,61.0,0.0,120.0,12.0,0.0
2221,61.0,0.0,60.0,7.0,0.0
2222,61.0,0.0,120.0,3.0,0.0
2223,73.0,0.0,120.0,3.0,0.0
2224,83.0,0.0,60.0,10.0,0.0
2225,65.0,0.0,60.0,15.0,0.0
2226,67.0,0.0,60.0,15.0,0.0
2227,65.0,0.0,60.0,6.0,0.0
2228,73.0,0.0,60.0,15.0,0.0
2229,80.0,0.0,30.0,5.0,0.0
2230,83.0,60.0,60.0,0.0,0.0
2231,65.0,0.0,60.0,7.0,0.0
2232,80.0,30.0,30.0,4.0,0.0
2233,83.0,0.0,60.0,15.0,0.0
2234,73.0,0.0,30.0,5.0,0.0
2235,73.0,0.0,30.0,4.0,0.0
2236,83.0,0.0,120.0,0.0,0.0
2237,54.0,0.0,60.0,1.0,0.0
2238,54.0,0.0,60.0,6.0,0.0
2239,54.0,0.0,60.0,7.0,0.0
2240,83.0,0.0,120.0,10.0,0.0
2241,83.0,0.0,120.0,15.0,0.0
2242,83.0,30.0,60.0,4.0,0.0
2243,83.0,0.0,60.0,5.0,0.0
2244,73.0,0.0,120.0,15.0,0.0
2245,54.0,0.0,60.0,15.0,0.0
2246,66.0,0.0,60.0,12.0,0.0
2247,66.0,0.0,120.0,3.0,0.0
2248,66.0,0.0,30.0,15.0,0.0
2249,66.0,0.0,60.0,4.0,0.0
2250,76.0,0.0,60.0,11.0,0.0
2251,76.0,0.0,60.0,3.0,0.0
2252,66.0,0.0,30.0,1.0,0.0
2253,66.0,30.0,30.0,6.0,0.0
2254,66.0,0.0,60.0,5.0,0.0
2255,66.0,0.0,30.0,7.0,0.0
2256,76.0,60.0,60.0,0.0,0.0
2257,66.0,0.0,60.0,12.0,0.0
2258,65.0,0.0,30.0,15.0,0.0
2259,65.0,0.0,30.0,7.0,0.0
2260,65.0,0.0,30.0,6.0,0.0
2261,65.0,0.0,30.0,1.0,0.0
2262,66.0,30.0,60.0,15.0,0.0
2263,66.0,0.0,60.0,1.0,0.0
2264,66.0,0.0,60.0,7.0,0.0
2265,82.0,0.0,120.0,10.0,0.0
2266,66.0,0.0,60.0,6.0,0.0
2267,76.0,0.0,120.0,15.0,0.0
2268,73.0,0.0,120.0,15.0,0.0
2269,82.0,0.0,120.0,0.0,0.0
2270,76.0,0.0,60.0,3.0,0.0
2271,76.0,0.0,60.0,11.0,0.0
2272,76.0,0.0,60.0,0.0,0.0
2273,82.0,0.0,120.0,15.0,0.0
2274,70.0,0.0,60.0,15.0,0.0
2275,82.0,0.0,30.0,4.0,0.0
2276,82.0,30.0,30.0,5.0,0.0
2277,70.0,0.0,60.0,6.0,0.0
2278,70.0,0.0,60.0,1.0,0.0
2279,76.0,0.0,60.0,3.0,0.0
2280,70.0,60.0,60.0,7.0,0.0
2281,76.0,0.0,60.0,0.0,0.0
2282,76.0,0.0,60.0,11.0,0.0
2283,78.0,0.0,30.0,4.0,0.0
2284,78.0,0.0,30.0,5.0,0.0
2285,47.0,0.0,60.0,7.0,0.0
2286,76.0,0.0,90.0,0.0,0.0
2287,76.0,0.0,90.0,3.0,0.0
2288,76.0,0.0,90.0,11.0,0.0
2289,71.0,0.0,60.0,6.0,0.0
2290,47.0,0.0,60.0,1.0,0.0
2291,76.0,0.0,60.0,15.0,0.0
2292,90.0,0.0,60.0,5.0,0.0
2293,90.0,0.0,60.0,4.0,0.0
2294,71.0,0.0,60.0,15.0,0.0
2295,47.0,0.0,60.0,15.0,0.0
2296,78.0,30.0,60.0,15.0,0.0
2297,81.0,0.0,60.0,10.0,0.0
2298,59.0,0.0,60.0,4.0,0.0
2299,63.0,0.0,30.0,6.0,0.0
2300,59.0,30.0,30.0,1.0,0.0
2301,59.0,0.0,30.0,15.0,0.0
2302,59.0,0.0,30.0,7.0,0.0
2303,81.0,0.0,60.0,0.0,0.0
2304,75.0,0.0,60.0,15.0,0.0
2305,78.0,0.0,60.0,15.0,0.0
2306,81.0,0.0,60.0,15.0,0.0
2307,59.0,0.0,60.0,5.0,0.0
2308,58.0,0.0,30.0,7.0,0.0
2309,75.0,0.0,30.0,0.0,0.0
2310,75.0,0.0,30.0,11.0,0.0
2311,75.0,0.0,30.0,3.0,0.0
2312,61.0,0.0,30.0,6.0,0.0
2313,58.0,0.0,30.0,1.0,0.0
2314,58.0,60.0,30.0,15.0,0.0
2315,63.0,0.0,60.0,6.0,0.0
2316,75.0,0.0,120.0,3.0,0.0
2317,59.0,0.0,60.0,7.0,0.0
2318,75.0,0.0,120.0,0.0,0.0
2319,81.0,0.0,60.0,0.0,0.0
2320,59.0,0.0,60.0,15.0,0.0
2321,75.0,0.0,120.0,11.0,0.0
2322,81.0,0.0,60.0,10.0,0.0
2323,71.0,0.0,60.0,15.0,0.0
2324,66.0,30.0,60.0,15.0,0.0
2325,75.0,0.0,120.0,15.0,0.0
2326,59.0,0.0,60.0,1.0,0.0
2327,66.0,0.0,60.0,6.0,0.0
2328,63.0,0.0,60.0,1.0,0.0
2329,63.0,0.0,60.0,7.0,0.0
2330,81.0,0.0,60.0,10.0,0.0
2331,71.0,0.0,60.0,15.0,0.0
2332,81.0,0.0,60.0,15.0,0.0
2333,66.0,0.0,60.0,15.0,0.0
2334,63.0,0.0,60.0,15.0,0.0
2335,81.0,0.0,60.0,0.0,0.0
2336,78.0,30.0,30.0,4.0,0.0
2337,78.0,0.0,30.0,5.0,0.0
2338,71.0,60.0,30.0,4.0,0.0
2339,71.0,0.0,30.0,5.0,0.0
2340,81.0,0.0,60.0,5.0,0.0
2341,81.0,0.0,90.0,0.0,0.0
2342,81.0,0.0,90.0,10.0,0.0
2343,59.0,0.0,60.0,6.0,0.0
2344,64.0,0.0,60.0,15.0,0.0
2345,52.0,0.0,60.0,7.0,0.0
2346,71.0,0.0,60.0,15.0,0.0
2347,81.0,0.0,60.0,15.0,0.0
2348,52.0,0.0,60.0,15.0,0.0
2349,81.0,0.0,60.0,4.0,0.0
2350,52.0,30.0,60.0,1.0,0.0
2351,80.0,0.0,60.0,15.0,0.0
2352,64.0,0.0,60.0,4.0,0.0
2353,74.0,0.0,120.0,3.0,0.0
2354,64.0,0.0,30.0,7.0,0.0
2355,68.0,0.0,30.0,6.0,0.0
2356,71.0,0.0,60.0,15.0,0.0
2357,74.0,0.0,60.0,15.0,0.0
2358,64.0,0.0,30.0,15.0,0.0
2359,64.0,0.0,60.0,5.0,0.0
2360,74.0,0.0,120.0,11.0,0.0
2361,74.0,0.0,120.0,0.0,0.0
2362,64.0,30.0,30.0,1.0,0.0
2363,63.0,60.0,30.0,15.0,0.0
2364,80.0,0.0,30.0,0.0,0.0
2365,80.0,0.0,30.0,10.0,0.0
2366,66.0,0.0,30.0,6.0,0.0
2367,63.0,0.0,30.0,1.0,0.0
2368,63.0,0.0,30.0,7.0,0.0
2369,71.0,0.0,60.0,15.0,0.0
2370,68.0,0.0,60.0,6.0,0.0
2371,80.0,0.0,120.0,15.0,0.0
2372,64.0,0.0,60.0,7.0,0.0
2373,80.0,0.0,120.0,0.0,0.0
2374,64.0,30.0,60.0,1.0,0.0
2375,64.0,0.0,60.0,15.0,0.0
2376,80.0,0.0,120.0,10.0,0.0
2377,80.0,0.0,30.0,5.0,0.0
2378,80.0,30.0,30.0,4.0,0.0
2379,74.0,0.0,60.0,15.0,0.0
2380,68.0,0.0,60.0,15.0,0.0
2381,74.0,60.0,60.0,11.0,0.0
2382,74.0,0.0,60.0,0.0,0.0
2383,68.0,0.0,60.0,1.0,0.0
2384,74.0,0.0,60.0,3.0,0.0
2385,71.0,0.0,60.0,6.0,0.0
2386,68.0,0.0,60.0,7.0,0.0
2387,76.0,0.0,30.0,5.0,0.0
2388,76.0,0.0,30.0,4.0,0.0
2389,74.0,0.0,120.0,11.0,0.0
2390,88.0,30.0,60.0,4.0,0.0
2391,45.0,0.0,60.0,15.0,0.0
2392,74.0,0.0,60.0,15.0,0.0
2393,64.0,0.0,60.0,15.0,0.0
2394,69.0,0.0,60.0,15.0,0.0
2395,88.0,0.0,60.0,5.0,0.0
2396,74.0,0.0,120.0,0.0,0.0
2397,74.0,0.0,120.0,3.0,0.0
2398,45.0,0.0,60.0,1.0,0.0
2399,64.0,0.0,60.0,6.0,0.0
2400,45.0,0.0,60.0,7.0,0.0
2401,61.0,0.0,30.0,6.0,0.0
2402,57.0,0.0,30.0,7.0,0.0
2403,69.0,0.0,60.0,4.0,0.0
2404,61.0,0.0,60.0,15.0,0.0
2405,64.0,60.0,60.0,15.0,0.0
2406,57.0,0.0,30.0,15.0,0.0
2407,69.0,0.0,60.0,5.0,0.0
2408,79.0,0.0,120.0,10.0,0.0
2409,79.0,30.0,120.0,0.0,0.0
2410,57.0,30.0,30.0,1.0,0.0
2411,79.0,0.0,60.0,15.0,0.0
2412,56.0,0.0,30.0,15.0,0.0
2413,59.0,0.0,30.0,6.0,0.0
2414,56.0,0.0,30.0,7.0,0.0
2415,56.0,0.0,30.0,1.0,0.0
2416,73.0,0.0,120.0,0.0,0.0
2417,73.0,0.0,120.0,11.0,0.0
2418,57.0,0.0,60.0,1.0,0.0
2419,73.0,0.0,120.0,3.0,0.0
2420,57.0,0.0,60.0,15.0,0.0
2421,73.0,0.0,60.0,15.0,0.0
2422,57.0,0.0,60.0,7.0,0.0
2423,61.0,0.0,60.0,6.0,0.0
2424,69.0,0.0,60.0,15.0,0.0
2425,76.0,0.0,60.0,15.0,0.0
2426,61.0,0.0,60.0,15.0,0.0
2427,76.0,0.0,60.0,15.0,0.0
2428,79.0,0.0,60.0,15.0,0.0
2429,69.0,0.0,60.0,15.0,0.0
2430,61.0,0.0,60.0,1.0,0.0
2431,79.0,0.0,60.0,10.0,0.0
2432,79.0,0.0,60.0,0.0,0.0
2433,76.0,0.0,30.0,4.0,0.0
2434,76.0,30.0,30.0,5.0,0.0
2435,61.0,0.0,60.0,7.0,0.0
2436,64.0,60.0,60.0,6.0,0.0
2437,69.0,0.0,30.0,5.0,0.0
2438,69.0,0.0,30.0,4.0,0.0
2439,50.0,0.0,60.0,1.0,0.0
2440,62.0,0.0,60.0,15.0,0.0
2441,79.0,0.0,60.0,5.0,0.0
2442,69.0,0.0,60.0,15.0,0.0
2443,79.0,0.0,60.0,15.0,0.0
2444,50.0,0.0,60.0,15.0,0.0
2445,79.0,0.0,120.0,10.0,0.0
2446,38.0,30.0,60.0,8.0,0.0
2447,79.0,0.0,120.0,0.0,0.0
2448,57.0,0.0,60.0,6.0,0.0
2449,79.0,0.0,60.0,4.0,0.0
2450,62.0,0.0,60.0,4.0,0.0
2451,62.0,0.0,60.0,12.0,0.0
2452,62.0,30.0,30.0,1.0,0.0
2453,62.0,0.0,60.0,3.0,0.0
2454,62.0,0.0,30.0,15.0,0.0
2455,78.0,60.0,180.0,15.0,0.0
2456,69.0,0.0,180.0,15.0,0.0
2457,66.0,0.0,30.0,6.0,0.0
2458,62.0,0.0,60.0,5.0,0.0
2459,50.0,0.0,30.0,8.0,0.0
2460,61.0,0.0,30.0,15.0,0.0
2461,49.0,60.0,30.0,8.0,0.0
2462,64.0,0.0,30.0,6.0,0.0
2463,61.0,0.0,30.0,1.0,0.0
2464,50.0,0.0,60.0,8.0,0.0
2465,78.0,0.0,120.0,0.0,0.0
2466,62.0,0.0,60.0,1.0,0.0
2467,62.0,0.0,60.0,12.0,0.0
2468,62.0,30.0,60.0,15.0,0.0
2469,66.0,0.0,60.0,6.0,0.0
2470,78.0,0.0,120.0,10.0,0.0
2471,62.0,0.0,60.0,3.0,0.0
2472,66.0,0.0,60.0,15.0,0.0
2473,62.0,0.0,60.0,12.0,0.0
2474,66.0,0.0,60.0,1.0,0.0
2475,62.0,0.0,60.0,3.0,0.0
2476,86.0,30.0,30.0,5.0,0.0
2477,86.0,0.0,30.0,4.0,0.0
2478,69.0,0.0,60.0,6.0,0.0
2479,54.0,0.0,60.0,8.0,0.0
2480,78.0,0.0,30.0,4.0,0.0
2481,78.0,0.0,30.0,5.0,0.0
2482,40.0,0.0,60.0,8.0,0.0
2483,79.0,0.0,60.0,5.0,0.0
2484,71.0,0.0,60.0,15.0,0.0
2485,59.0,0.0,60.0,6.0,0.0
2486,79.0,0.0,60.0,4.0,0.0
2487,62.0,0.0,60.0,15.0,0.0
2488,62.0,30.0,90.0,12.0,0.0
2489,52.0,0.0,60.0,15.0,0.0
2490,67.0,30.0,60.0,15.0,0.0
2491,62.0,0.0,90.0,3.0,0.0
2492,52.0,0.0,60.0,1.0,0.0
2493,67.0,0.0,30.0,6.0,0.0
2494,71.0,60.0,60.0,0.0,0.0
2495,76.0,0.0,180.0,15.0,0.0
2496,64.0,0.0,30.0,15.0,0.0
2497,67.0,0.0,180.0,15.0,0.0
2498,73.0,60.0,180.0,15.0,0.0
2499,83.0,0.0,60.0,5.0,0.0
2500,71.0,0.0,60.0,3.0,0.0
2501,71.0,0.0,60.0,11.0,0.0
2502,83.0,0.0,60.0,4.0,0.0
2503,64.0,0.0,30.0,1.0,0.0
2504,52.0,0.0,30.0,8.0,0.0
2505,62.0,0.0,30.0,15.0,0.0
2506,61.0,0.0,30.0,3.0,0.0
2507,62.0,0.0,30.0,1.0,0.0
2508,61.0,0.0,30.0,12.0,0.0
2509,50.0,0.0,30.0,8.0,0.0
2510,66.0,0.0,30.0,6.0,0.0
2511,61.0,0.0,120.0,12.0,0.0
2512,67.0,30.0,60.0,6.0,0.0
2513,64.0,0.0,60.0,15.0,0.0
2514,61.0,0.0,120.0,3.0,0.0
2515,67.0,0.0,60.0,11.0,0.0
2516,67.0,0.0,60.0,0.0,0.0
2517,67.0,0.0,60.0,3.0,0.0
2518,64.0,0.0,60.0,1.0,0.0
2519,52.0,0.0,60.0,8.0,0.0
2520,67.0,0.0,60.0,1.0,0.0
2521,69.0,0.0,30.0,3.0,0.0
2522,83.0,0.0,30.0,4.0,0.0
2523,55.0,0.0,60.0,8.0,0.0
2524,71.0,0.0,60.0,6.0,0.0
2525,69.0,0.0,30.0,0.0,0.0
2526,83.0,0.0,30.0,5.0,0.0
2527,69.0,30.0,30.0,11.0,0.0
2528,71.0,0.0,30.0,3.0,0.0
2529,71.0,0.0,30.0,0.0,0.0
2530,76.0,0.0,30.0,4.0,0.0
2531,76.0,0.0,30.0,5.0,0.0
2532,71.0,0.0,30.0,11.0,0.0
2533,67.0,0.0,240.0,15.0,0.0
2534,33.0,0.0,60.0,8.0,0.0
2535,85.0,0.0,60.0,4.0,0.0
2536,45.0,0.0,60.0,1.0,0.0
2537,64.0,0.0,120.0,11.0,0.0
2538,64.0,0.0,120.0,3.0,0.0
2539,61.0,0.0,240.0,15.0,0.0
2540,64.0,0.0,60.0,6.0,0.0
2541,64.0,0.0,240.0,15.0,0.0
2542,85.0,30.0,60.0,5.0,0.0
2543,45.0,0.0,60.0,15.0,0.0
2544,64.0,0.0,120.0,0.0,0.0
2545,45.0,30.0,30.0,8.0,0.0
2546,61.0,0.0,30.0,6.0,0.0
2547,67.0,0.0,120.0,3.0,0.0
2548,69.0,0.0,60.0,4.0,0.0
2549,69.0,0.0,60.0,5.0,0.0
2550,57.0,0.0,30.0,15.0,0.0
2551,67.0,0.0,120.0,12.0,0.0
2552,57.0,0.0,30.0,1.0,0.0
2553,44.0,60.0,30.0,8.0,0.0
2554,59.0,0.0,30.0,6.0,0.0
2555,56.0,0.0,30.0,1.0,0.0
2556,56.0,0.0,30.0,15.0,0.0
2557,45.0,0.0,60.0,8.0,0.0
2558,69.0,0.0,120.0,11.0,0.0
2559,69.0,0.0,120.0,3.0,0.0
2560,57.0,0.0,60.0,15.0,0.0
2561,57.0,30.0,60.0,1.0,0.0
2562,69.0,60.0,120.0,0.0,0.0
2563,61.0,0.0,60.0,6.0,0.0
2564,61.0,0.0,60.0,1.0,0.0
2565,67.0,0.0,60.0,3.0,0.0
2566,76.0,0.0,30.0,4.0,0.0
2567,67.0,0.0,60.0,12.0,0.0
2568,49.0,0.0,60.0,8.0,0.0
2569,64.0,0.0,60.0,6.0,0.0
2570,76.0,30.0,30.0,5.0,0.0
2571,69.0,0.0,30.0,4.0,0.0
2572,69.0,0.0,30.0,5.0,0.0
2573,67.0,60.0,120.0,12.0,0.0
2574,67.0,0.0,120.0,3.0,0.0
2575,61.0,0.0,60.0,15.0,0.0
2576,67.0,0.0,60.0,15.0,0.0
2577,42.0,30.0,60.0,15.0,0.0
2578,81.0,0.0,60.0,4.0,0.0
2579,76.0,0.0,240.0,15.0,0.0
2580,81.0,0.0,60.0,5.0,0.0
2581,57.0,0.0,60.0,6.0,0.0
2582,30.0,0.0,60.0,8.0,0.0
2583,40.0,0.0,60.0,1.0,0.0
2584,57.0,0.0,60.0,15.0,0.0
2585,42.0,0.0,30.0,8.0,0.0
2586,76.0,0.0,60.0,3.0,0.0
2587,66.0,0.0,180.0,15.0,0.0
2588,60.0,0.0,180.0,15.0,0.0
2589,54.0,0.0,30.0,15.0,0.0
2590,60.0,0.0,60.0,13.0,0.0
2591,76.0,0.0,60.0,11.0,0.0
2592,60.0,0.0,60.0,4.0,0.0
2593,76.0,0.0,60.0,0.0,0.0
2594,60.0,0.0,60.0,3.0,0.0
2595,54.0,0.0,30.0,1.0,0.0
2596,60.0,0.0,60.0,5.0,0.0
2597,69.0,30.0,30.0,6.0,0.0
2598,67.0,0.0,30.0,6.0,0.0
2599,52.0,0.0,30.0,1.0,0.0
2600,52.0,0.0,30.0,15.0,0.0
2601,40.0,0.0,30.0,8.0,0.0
2602,54.0,0.0,60.0,1.0,0.0
2603,57.0,30.0,60.0,3.0,0.0
2604,76.0,0.0,60.0,0.0,0.0
2605,69.0,0.0,60.0,6.0,0.0
2606,76.0,0.0,60.0,3.0,0.0
2607,76.0,0.0,60.0,11.0,0.0
2608,42.0,0.0,60.0,8.0,0.0
2609,57.0,0.0,60.0,13.0,0.0
2610,66.0,0.0,120.0,12.0,0.0
2611,54.0,0.0,60.0,15.0,0.0
2612,66.0,0.0,120.0,3.0,0.0
2613,57.0,0.0,60.0,1.0,0.0
2614,76.0,0.0,30.0,5.0,0.0
2615,59.0,0.0,30.0,13.0,0.0
2616,45.0,0.0,60.0,8.0,0.0
2617,76.0,60.0,60.0,3.0,0.0
2618,60.0,0.0,60.0,6.0,0.0
2619,76.0,0.0,60.0,11.0,0.0
2620,76.0,30.0,30.0,4.0,0.0
2621,59.0,0.0,30.0,3.0,0.0
2622,76.0,0.0,60.0,0.0,0.0
2623,60.0,0.0,30.0,3.0,0.0
2624,60.0,0.0,30.0,13.0,0.0
2625,72.0,0.0,30.0,5.0,0.0
2626,72.0,0.0,30.0,4.0,0.0
2627,66.0,0.0,120.0,15.0,0.0
2628,81.0,0.0,60.0,5.0,0.0
2629,76.0,0.0,60.0,15.0,0.0
2630,47.0,0.0,60.0,1.0,0.0
2631,71.0,0.0,60.0,15.0,0.0
2632,35.0,30.0,60.0,8.0,0.0
2633,76.0,0.0,90.0,0.0,0.0
2634,59.0,0.0,60.0,6.0,0.0
2635,76.0,0.0,90.0,3.0,0.0
2636,76.0,0.0,90.0,11.0,0.0
2637,54.0,0.0,120.0,3.0,0.0
2638,54.0,0.0,120.0,13.0,0.0
2639,81.0,0.0,60.0,4.0,0.0
2640,47.0,0.0,60.0,15.0,0.0
2641,75.0,0.0,60.0,15.0,0.0
2642,59.0,0.0,30.0,15.0,0.0
2643,63.0,0.0,60.0,5.0,0.0
2644,63.0,0.0,60.0,4.0,0.0
2645,81.0,0.0,120.0,0.0,0.0
2646,47.0,30.0,30.0,8.0,0.0
2647,81.0,0.0,120.0,10.0,0.0
2648,59.0,0.0,30.0,1.0,0.0
2649,63.0,0.0,30.0,6.0,0.0
2650,58.0,60.0,30.0,15.0,0.0
2651,75.0,0.0,30.0,11.0,0.0
2652,46.0,0.0,30.0,8.0,0.0
2653,58.0,0.0,30.0,1.0,0.0
2654,75.0,0.0,30.0,0.0,0.0
2655,75.0,0.0,30.0,3.0,0.0
2656,61.0,0.0,30.0,6.0,0.0
2657,75.0,0.0,120.0,0.0,0.0
2658,59.0,0.0,120.0,3.0,0.0
2659,66.0,0.0,120.0,15.0,0.0
2660,75.0,0.0,120.0,15.0,0.0
2661,59.0,0.0,120.0,13.0,0.0
2662,59.0,0.0,60.0,15.0,0.0
2663,75.0,0.0,120.0,11.0,0.0
2664,47.0,0.0,60.0,8.0,0.0
2665,63.0,0.0,60.0,6.0,0.0
2666,75.0,0.0,120.0,3.0,0.0
2667,59.0,30.0,60.0,1.0,0.0
2668,81.0,0.0,60.0,10.0,0.0
2669,66.0,0.0,60.0,6.0,0.0
2670,71.0,0.0,60.0,15.0,0.0
2671,63.0,0.0,60.0,15.0,0.0
2672,63.0,0.0,60.0,1.0,0.0
2673,78.0,30.0,30.0,5.0,0.0
2674,78.0,0.0,30.0,4.0,0.0
2675,81.0,0.0,60.0,0.0,0.0
2676,51.0,0.0,60.0,8.0,0.0
2677,81.0,0.0,60.0,15.0,0.0
2678,71.0,0.0,30.0,5.0,0.0
2679,71.0,60.0,30.0,4.0,0.0
2680,40.0,0.0,60.0,8.0,0.0
2681,81.0,0.0,120.0,0.0,0.0
2682,81.0,0.0,120.0,10.0,0.0
2683,83.0,0.0,60.0,5.0,0.0
2684,81.0,0.0,120.0,15.0,0.0
2685,83.0,0.0,60.0,4.0,0.0
2686,64.0,30.0,60.0,6.0,0.0
2687,71.0,0.0,240.0,15.0,0.0
2688,52.0,0.0,60.0,15.0,0.0
2689,52.0,0.0,60.0,1.0,0.0
2690,64.0,0.0,60.0,3.0,0.0
2691,71.0,0.0,60.0,6.0,0.0
2692,64.0,0.0,60.0,4.0,0.0
2693,64.0,0.0,60.0,5.0,0.0
2694,64.0,0.0,60.0,12.0,0.0
2695,52.0,30.0,30.0,8.0,0.0
2696,64.0,0.0,30.0,15.0,0.0
2697,64.0,0.0,30.0,1.0,0.0
2698,63.0,0.0,30.0,1.0,0.0
2699,63.0,0.0,30.0,15.0,0.0
2700,51.0,60.0,30.0,8.0,0.0
2701,64.0,0.0,60.0,3.0,0.0
2702,64.0,0.0,120.0,15.0,0.0
2703,64.0,30.0,60.0,1.0,0.0
2704,79.0,0.0,120.0,15.0,0.0
2705,67.0,0.0,60.0,6.0,0.0
2706,79.0,0.0,120.0,0.0,0.0
2707,52.0,0.0,60.0,8.0,0.0
2708,64.0,0.0,60.0,12.0,0.0
2709,79.0,0.0,120.0,10.0,0.0
2710,67.0,0.0,60.0,1.0,0.0
2711,64.0,60.0,60.0,3.0,0.0
2712,64.0,0.0,60.0,12.0,0.0
2713,55.0,0.0,60.0,8.0,0.0
2714,67.0,0.0,60.0,15.0,0.0
2715,88.0,30.0,30.0,5.0,0.0
2716,88.0,0.0,30.0,4.0,0.0
2717,64.0,0.0,120.0,6.0,0.0
2718,79.0,0.0,30.0,4.0,0.0
2719,79.0,0.0,30.0,5.0,0.0
2720,54.0,0.0,60.0,15.0,0.0
2721,50.0,0.0,60.0,1.0,0.0
2722,64.0,30.0,60.0,15.0,0.0
2723,64.0,0.0,90.0,12.0,0.0
2724,42.0,0.0,60.0,8.0,0.0
2725,81.0,0.0,60.0,4.0,0.0
2726,81.0,0.0,60.0,5.0,0.0
2727,73.0,0.0,60.0,15.0,0.0
2728,64.0,0.0,90.0,3.0,0.0
2729,69.0,0.0,60.0,15.0,0.0
2730,66.0,0.0,30.0,1.0,0.0
2731,84.0,0.0,60.0,5.0,0.0
2732,75.0,0.0,180.0,15.0,0.0
2733,54.0,0.0,30.0,8.0,0.0
2734,72.0,0.0,180.0,15.0,0.0
2735,69.0,0.0,180.0,15.0,0.0
2736,66.0,0.0,30.0,15.0,0.0
2737,63.0,30.0,30.0,6.0,0.0
2738,72.0,0.0,60.0,11.0,0.0
2739,84.0,0.0,60.0,4.0,0.0
2740,72.0,0.0,60.0,0.0,0.0
2741,72.0,0.0,60.0,3.0,0.0
2742,64.0,0.0,30.0,1.0,0.0
2743,63.0,0.0,30.0,3.0,0.0
2744,63.0,0.0,30.0,12.0,0.0
2745,61.0,60.0,30.0,6.0,0.0
2746,52.0,0.0,30.0,8.0,0.0
2747,64.0,0.0,30.0,15.0,0.0
2748,69.0,0.0,60.0,11.0,0.0
2749,54.0,0.0,60.0,8.0,0.0
2750,69.0,0.0,60.0,3.0,0.0
2751,63.0,0.0,120.0,3.0,0.0
2752,63.0,0.0,120.0,12.0,0.0
2753,66.0,0.0,60.0,15.0,0.0
2754,69.0,0.0,60.0,0.0,0.0
2755,63.0,30.0,60.0,6.0,0.0
2756,66.0,0.0,60.0,1.0,0.0
2757,81.0,30.0,30.0,5.0,0.0
2758,69.0,0.0,60.0,1.0,0.0
2759,71.0,0.0,30.0,0.0,0.0
2760,66.0,0.0,120.0,6.0,0.0
2761,71.0,0.0,30.0,11.0,0.0
2762,57.0,0.0,60.0,8.0,0.0
2763,71.0,0.0,30.0,3.0,0.0
2764,81.0,0.0,30.0,4.0,0.0
2765,72.0,0.0,30.0,0.0,0.0
2766,72.0,0.0,30.0,11.0,0.0
2767,72.0,0.0,30.0,3.0,0.0
2768,78.0,60.0,30.0,5.0,0.0
2769,78.0,0.0,30.0,4.0,0.0
2770,66.0,0.0,120.0,3.0,0.0
2771,63.0,0.0,180.0,15.0,0.0
2772,66.0,0.0,60.0,15.0,0.0
2773,75.0,0.0,60.0,5.0,0.0
2774,75.0,30.0,60.0,4.0,0.0
2775,47.0,0.0,60.0,1.0,0.0
2776,66.0,0.0,120.0,11.0,0.0
2777,35.0,0.0,60.0,8.0,0.0
2778,66.0,0.0,120.0,0.0,0.0
2779,47.0,0.0,60.0,15.0,0.0
2780,59.0,0.0,30.0,1.0,0.0
2781,69.0,0.0,120.0,12.0,0.0
2782,69.0,0.0,120.0,3.0,0.0
2783,63.0,0.0,60.0,5.0,0.0
2784,66.0,0.0,120.0,15.0,0.0
2785,63.0,30.0,30.0,6.0,0.0
2786,59.0,0.0,30.0,15.0,0.0
2787,63.0,0.0,60.0,4.0,0.0
2788,47.0,0.0,30.0,8.0,0.0
2789,69.0,0.0,120.0,15.0,0.0
2790,61.0,0.0,30.0,6.0,0.0
2791,58.0,60.0,30.0,15.0,0.0
2792,58.0,0.0,30.0,1.0,0.0
2793,46.0,0.0,30.0,8.0,0.0
2794,71.0,0.0,120.0,11.0,0.0
2795,71.0,0.0,120.0,0.0,0.0
2796,71.0,60.0,120.0,3.0,0.0
2797,59.0,0.0,60.0,1.0,0.0
2798,47.0,0.0,60.0,8.0,0.0
2799,63.0,0.0,60.0,6.0,0.0
2800,71.0,0.0,120.0,15.0,0.0
2801,59.0,30.0,60.0,15.0,0.0
2802,69.0,0.0,60.0,3.0,0.0
2803,69.0,0.0,60.0,12.0,0.0
2804,51.0,0.0,60.0,8.0,0.0
2805,78.0,30.0,30.0,5.0,0.0
2806,78.0,0.0,30.0,4.0,0.0
2807,66.0,0.0,60.0,6.0,0.0
2808,66.0,0.0,60.0,15.0,0.0
2809,69.0,0.0,60.0,15.0,0.0
2810,63.0,0.0,60.0,15.0,0.0
2811,63.0,0.0,60.0,1.0,0.0
2812,71.0,0.0,30.0,4.0,0.0
2813,71.0,0.0,30.0,5.0,0.0
2814,78.0,0.0,120.0,15.0,0.0
2815,83.0,30.0,60.0,5.0,0.0
2816,32.0,0.0,60.0,8.0,0.0
2817,69.0,0.0,120.0,15.0,0.0
2818,83.0,0.0,60.0,4.0,0.0
2819,62.0,0.0,240.0,15.0,0.0
2820,59.0,0.0,120.0,15.0,0.0
2821,44.0,0.0,60.0,15.0,0.0
2822,44.0,0.0,60.0,1.0,0.0
2823,62.0,0.0,60.0,6.0,0.0
2824,69.0,0.0,120.0,3.0,0.0
2825,69.0,0.0,120.0,12.0,0.0
2826,78.0,0.0,120.0,11.0,0.0
2827,68.0,0.0,60.0,4.0,0.0
2828,44.0,30.0,30.0,8.0,0.0
2829,78.0,0.0,120.0,0.0,0.0
2830,62.0,0.0,60.0,13.0,0.0
2831,78.0,0.0,120.0,3.0,0.0
2832,56.0,0.0,30.0,1.0,0.0
2833,62.0,0.0,60.0,3.0,0.0
2834,71.0,0.0,30.0,6.0,0.0
2835,56.0,0.0,30.0,15.0,0.0
2836,68.0,0.0,60.0,5.0,0.0
2837,54.0,0.0,30.0,1.0,0.0
2838,42.0,0.0,30.0,8.0,0.0
2839,69.0,60.0,30.0,6.0,0.0
2840,54.0,0.0,30.0,15.0,0.0
2841,44.0,30.0,60.0,8.0,0.0
2842,59.0,0.0,60.0,13.0,0.0
2843,68.0,0.0,60.0,6.0,0.0
2844,56.0,0.0,60.0,1.0,0.0
2845,68.0,0.0,120.0,12.0,0.0
2846,68.0,0.0,120.0,15.0,0.0
2847,56.0,0.0,60.0,15.0,0.0
2848,68.0,0.0,120.0,3.0,0.0
2849,59.0,0.0,60.0,3.0,0.0
2850,78.0,60.0,120.0,15.0,0.0
2851,71.0,0.0,60.0,6.0,0.0
2852,61.0,0.0,30.0,3.0,0.0
2853,86.0,0.0,30.0,5.0,0.0
2854,59.0,0.0,60.0,15.0,0.0
2855,78.0,0.0,60.0,3.0,0.0
2856,47.0,0.0,60.0,8.0,0.0
2857,86.0,0.0,30.0,4.0,0.0
2858,59.0,0.0,60.0,1.0,0.0
2859,78.0,0.0,60.0,11.0,0.0
2860,78.0,0.0,60.0,0.0,0.0
2861,61.0,30.0,30.0,13.0,0.0
2862,62.0,0.0,30.0,3.0,0.0
2863,74.0,0.0,30.0,4.0,0.0
2864,74.0,0.0,30.0,5.0,0.0
2865,62.0,0.0,30.0,13.0,0.0
2866,80.0,0.0,240.0,15.0,0.0
2867,78.0,0.0,120.0,15.0,0.0
2868,56.0,0.0,120.0,3.0,0.0
2869,78.0,0.0,120.0,11.0,0.0
2870,71.0,0.0,120.0,15.0,0.0
2871,78.0,0.0,120.0,0.0,0.0
2872,56.0,0.0,120.0,13.0,0.0
2873,49.0,30.0,60.0,1.0,0.0
2874,78.0,0.0,120.0,3.0,0.0
2875,61.0,0.0,60.0,6.0,0.0
2876,37.0,0.0,60.0,8.0,0.0
2877,78.0,0.0,60.0,5.0,0.0
2878,78.0,0.0,60.0,4.0,0.0
2879,49.0,0.0,60.0,15.0,0.0
2880,59.0,0.0,60.0,3.0,0.0
2881,49.0,0.0,30.0,8.0,0.0
2882,80.0,0.0,60.0,0.0,0.0
2883,71.0,60.0,60.0,12.0,0.0
2884,71.0,0.0,60.0,3.0,0.0
2885,61.0,30.0,30.0,1.0,0.0
2886,61.0,0.0,30.0,15.0,0.0
2887,65.0,0.0,30.0,6.0,0.0
2888,68.0,0.0,60.0,4.0,0.0
2889,80.0,0.0,60.0,10.0,0.0
2890,68.0,0.0,60.0,5.0,0.0
2891,60.0,0.0,30.0,15.0,0.0
2892,60.0,0.0,30.0,1.0,0.0
2893,48.0,0.0,30.0,8.0,0.0
2894,63.0,0.0,30.0,6.0,0.0
2895,65.0,0.0,60.0,6.0,0.0
2896,76.0,60.0,120.0,15.0,0.0
2897,61.0,0.0,60.0,15.0,0.0
2898,49.0,0.0,60.0,8.0,0.0
2899,77.0,0.0,120.0,3.0,0.0
2900,77.0,30.0,60.0,0.0,0.0
2901,71.0,0.0,60.0,3.0,0.0
2902,71.0,0.0,60.0,12.0,0.0
2903,61.0,0.0,60.0,1.0,0.0
2904,77.0,0.0,60.0,10.0,0.0
2905,77.0,0.0,120.0,11.0,0.0
2906,61.0,0.0,120.0,13.0,0.0
2907,59.0,0.0,60.0,3.0,0.0
2908,61.0,0.0,120.0,3.0,0.0
2909,59.0,0.0,60.0,3.0,0.0
2910,78.0,0.0,30.0,10.0,0.0
2911,53.0,0.0,60.0,8.0,0.0
2912,71.0,0.0,60.0,15.0,0.0
2913,65.0,0.0,60.0,15.0,0.0
2914,73.0,0.0,60.0,15.0,0.0
2915,71.0,0.0,60.0,3.0,0.0
2916,65.0,0.0,60.0,1.0,0.0
2917,80.0,0.0,30.0,5.0,0.0
2918,71.0,0.0,60.0,12.0,0.0
2919,78.0,0.0,30.0,0.0,0.0
2920,68.0,0.0,120.0,6.0,0.0
2921,80.0,30.0,30.0,4.0,0.0
2922,73.0,0.0,30.0,5.0,0.0
2923,73.0,0.0,30.0,4.0,0.0
2924,80.0,0.0,30.0,0.0,0.0
2925,80.0,0.0,30.0,10.0,0.0
2926,83.0,0.0,60.0,5.0,0.0
2927,71.0,30.0,90.0,12.0,0.0
2928,73.0,30.0,180.0,15.0,0.0
2929,54.0,0.0,60.0,1.0,0.0
2930,54.0,0.0,60.0,15.0,0.0
2931,42.0,0.0,60.0,8.0,0.0
2932,71.0,0.0,120.0,15.0,0.0
2933,71.0,0.0,90.0,3.0,0.0
2934,73.0,0.0,120.0,10.0,0.0
2935,83.0,30.0,60.0,4.0,0.0
2936,73.0,0.0,120.0,0.0,0.0
2937,59.0,0.0,90.0,3.0,0.0
2938,78.0,0.0,180.0,15.0,0.0
2939,66.0,0.0,30.0,1.0,0.0
2940,66.0,0.0,60.0,5.0,0.0
2941,66.0,60.0,60.0,3.0,0.0
2942,66.0,0.0,30.0,6.0,0.0
2943,54.0,0.0,30.0,8.0,0.0
2944,66.0,0.0,30.0,15.0,0.0
2945,66.0,0.0,60.0,13.0,0.0
2946,66.0,0.0,60.0,4.0,0.0
2947,70.0,0.0,30.0,3.0,0.0
2948,53.0,0.0,30.0,8.0,0.0
2949,68.0,0.0,30.0,6.0,0.0
2950,70.0,0.0,30.0,12.0,0.0
2951,65.0,0.0,30.0,1.0,0.0
2952,58.0,0.0,30.0,3.0,0.0
2953,65.0,0.0,30.0,15.0,0.0
2954,66.0,0.0,60.0,1.0,0.0
2955,78.0,0.0,120.0,10.0,0.0
2956,58.0,0.0,120.0,3.0,0.0
2957,66.0,0.0,60.0,13.0,0.0
2958,66.0,0.0,60.0,3.0,0.0
2959,54.0,0.0,60.0,8.0,0.0
2960,70.0,0.0,60.0,6.0,0.0
2961,70.0,0.0,120.0,12.0,0.0
2962,78.0,0.0,240.0,0.0,0.0
2963,66.0,0.0,60.0,15.0,0.0
2964,70.0,0.0,60.0,15.0,0.0
2965,70.0,0.0,120.0,3.0,0.0
2966,73.0,0.0,60.0,15.0,0.0
2967,66.0,60.0,60.0,3.0,0.0
2968,82.0,30.0,30.0,5.0,0.0
2969,70.0,0.0,60.0,15.0,0.0
2970,78.0,0.0,60.0,15.0,0.0
2971,58.0,0.0,60.0,8.0,0.0
2972,73.0,0.0,60.0,6.0,0.0
2973,70.0,0.0,60.0,1.0,0.0
2974,82.0,0.0,30.0,4.0,0.0
2975,66.0,0.0,60.0,13.0,0.0
2976,78.0,0.0,30.0,4.0,0.0
2977,78.0,0.0,30.0,5.0,0.0
2978,55.0,0.0,60.0,1.0,0.0
2979,43.0,0.0,60.0,8.0,0.0
2980,67.0,0.0,90.0,13.0,0.0
2981,83.0,0.0,60.0,4.0,0.0
2982,74.0,0.0,120.0,15.0,0.0
2983,67.0,0.0,90.0,3.0,0.0
2984,71.0,0.0,120.0,15.0,0.0
2985,78.0,0.0,120.0,15.0,0.0
2986,55.0,30.0,60.0,15.0,0.0
2987,83.0,0.0,60.0,5.0,0.0
2988,62.0,0.0,60.0,6.0,0.0
2989,55.0,30.0,30.0,8.0,0.0
2990,71.0,0.0,30.0,6.0,0.0
2991,71.0,0.0,60.0,3.0,0.0
2992,59.0,0.0,60.0,5.0,0.0
2993,59.0,60.0,60.0,4.0,0.0
2994,71.0,0.0,60.0,12.0,0.0
2995,71.0,30.0,120.0,0.0,0.0
2996,67.0,0.0,30.0,1.0,0.0
2997,78.0,0.0,60.0,10.0,0.0
2998,71.0,0.0,60.0,11.0,0.0
2999,67.0,0.0,30.0,15.0,0.0
3000,64.0,0.0,120.0,3.0,0.0
3001,69.0,0.0,30.0,6.0,0.0
3002,55.0,0.0,30.0,13.0,0.0
3003,54.0,0.0,30.0,8.0,0.0
3004,55.0,0.0,30.0,3.0,0.0
3005,66.0,0.0,30.0,1.0,0.0
3006,66.0,0.0,30.0,15.0,0.0
3007,67.0,0.0,60.0,1.0,0.0
3008,76.0,0.0,240.0,0.0,0.0
3009,55.0,0.0,120.0,3.0,0.0
3010,67.0,0.0,60.0,12.0,0.0
3011,67.0,0.0,60.0,3.0,0.0
3012,71.0,0.0,60.0,11.0,0.0
3013,55.0,0.0,120.0,13.0,0.0
3014,76.0,0.0,120.0,15.0,0.0
3015,67.0,0.0,60.0,15.0,0.0
3016,71.0,0.0,60.0,3.0,0.0
3017,67.0,0.0,60.0,6.0,0.0
3018,55.0,0.0,60.0,8.0,0.0
3019,71.0,0.0,120.0,15.0,0.0
3020,76.0,0.0,60.0,10.0,0.0
3021,55.0,0.0,60.0,1.0,0.0
3022,43.0,0.0,60.0,8.0,0.0
3023,64.0,0.0,60.0,3.0,0.0
3024,83.0,30.0,30.0,4.0,0.0
3025,55.0,0.0,60.0,15.0,0.0
3026,83.0,0.0,60.0,10.0,0.0
3027,83.0,0.0,30.0,5.0,0.0
3028,73.0,0.0,60.0,11.0,0.0
3029,64.0,0.0,60.0,12.0,0.0
3030,73.0,0.0,60.0,3.0,0.0
3031,73.0,60.0,60.0,0.0,0.0
3032,64.0,30.0,120.0,6.0,0.0
3033,76.0,0.0,30.0,4.0,0.0
3034,76.0,0.0,30.0,5.0,0.0
3035,73.0,0.0,90.0,11.0,0.0
3036,42.0,0.0,60.0,8.0,0.0
3037,81.0,0.0,90.0,10.0,0.0
3038,81.0,0.0,60.0,5.0,0.0
3039,64.0,0.0,90.0,12.0,0.0
3040,73.0,0.0,90.0,3.0,0.0
3041,69.0,0.0,240.0,0.0,0.0
3042,54.0,0.0,60.0,1.0,0.0
3043,54.0,0.0,60.0,15.0,0.0
3044,81.0,0.0,60.0,4.0,0.0
3045,81.0,0.0,120.0,15.0,0.0
3046,73.0,0.0,120.0,15.0,0.0
3047,64.0,30.0,90.0,3.0,0.0
3048,54.0,0.0,30.0,8.0,0.0
3049,66.0,0.0,120.0,13.0,0.0
3050,66.0,0.0,30.0,15.0,0.0
3051,66.0,0.0,120.0,3.0,0.0
3052,62.0,60.0,60.0,4.0,0.0
3053,66.0,0.0,30.0,1.0,0.0
3054,62.0,0.0,60.0,5.0,0.0
3055,69.0,0.0,30.0,6.0,0.0
3056,64.0,0.0,30.0,15.0,0.0
3057,67.0,0.0,30.0,6.0,0.0
3058,69.0,0.0,30.0,3.0,0.0
3059,76.0,0.0,30.0,3.0,0.0
3060,73.0,0.0,30.0,10.0,0.0
3061,64.0,0.0,30.0,1.0,0.0
3062,52.0,0.0,30.0,8.0,0.0
3063,76.0,0.0,30.0,11.0,0.0
3064,69.0,0.0,30.0,12.0,0.0
3065,69.0,60.0,120.0,3.0,0.0
3066,74.0,0.0,120.0,15.0,0.0
3067,69.0,0.0,120.0,15.0,0.0
3068,74.0,0.0,120.0,3.0,0.0
3069,74.0,0.0,120.0,10.0,0.0
3070,66.0,0.0,60.0,6.0,0.0
3071,54.0,30.0,60.0,8.0,0.0
3072,69.0,0.0,120.0,12.0,0.0
3073,74.0,0.0,120.0,11.0,0.0
3074,66.0,0.0,60.0,1.0,0.0
3075,66.0,0.0,60.0,15.0,0.0
3076,74.0,0.0,240.0,0.0,0.0
3077,57.0,0.0,60.0,8.0,0.0
3078,66.0,0.0,60.0,13.0,0.0
3079,78.0,30.0,30.0,4.0,0.0
3080,69.0,0.0,60.0,6.0,0.0
3081,69.0,0.0,60.0,1.0,0.0
3082,78.0,0.0,30.0,5.0,0.0
3083,66.0,0.0,60.0,3.0,0.0
3084,74.0,0.0,30.0,5.0,0.0
3085,74.0,0.0,30.0,4.0,0.0
3086,71.0,0.0,120.0,15.0,0.0
3087,40.0,0.0,60.0,8.0,0.0
3088,67.0,0.0,120.0,15.0,0.0
3089,74.0,0.0,120.0,15.0,0.0
3090,52.0,30.0,60.0,15.0,0.0
3091,71.0,0.0,60.0,6.0,0.0
3092,79.0,0.0,60.0,5.0,0.0
3093,52.0,0.0,60.0,1.0,0.0
3094,79.0,0.0,60.0,4.0,0.0
3095,64.0,0.0,120.0,3.0,0.0
3096,67.0,0.0,240.0,0.0,0.0
3097,64.0,0.0,120.0,13.0,0.0
3098,67.0,30.0,120.0,12.0,0.0
3099,52.0,30.0,30.0,8.0,0.0
3100,64.0,60.0,60.0,5.0,0.0
3101,67.0,0.0,120.0,3.0,0.0
3102,74.0,0.0,60.0,10.0,0.0
3103,64.0,0.0,60.0,4.0,0.0
3104,64.0,0.0,30.0,1.0,0.0
3105,71.0,0.0,60.0,11.0,0.0
3106,67.0,0.0,30.0,6.0,0.0
3107,71.0,0.0,60.0,3.0,0.0
3108,64.0,0.0,30.0,15.0,0.0
3109,62.0,0.0,30.0,15.0,0.0
3110,66.0,0.0,30.0,6.0,0.0
3111,50.0,0.0,30.0,8.0,0.0
3112,62.0,0.0,30.0,1.0,0.0
3113,64.0,0.0,60.0,1.0,0.0
3114,70.0,0.0,60.0,3.0,0.0
3115,70.0,0.0,60.0,11.0,0.0
3116,52.0,0.0,120.0,13.0,0.0
3117,73.0,0.0,60.0,10.0,0.0
3118,79.0,0.0,120.0,15.0,0.0
3119,73.0,0.0,120.0,15.0,0.0
3120,67.0,0.0,120.0,15.0,0.0
3121,64.0,0.0,60.0,15.0,0.0
3122,52.0,0.0,120.0,3.0,0.0
3123,73.0,0.0,60.0,0.0,0.0
3124,67.0,0.0,60.0,6.0,0.0
3125,52.0,0.0,60.0,8.0,0.0
3126,79.0,0.0,30.0,4.0,0.0
3127,70.0,0.0,60.0,3.0,0.0
3128,79.0,0.0,60.0,0.0,0.0
3129,61.0,0.0,60.0,3.0,0.0
3130,79.0,30.0,30.0,5.0,0.0
3131,70.0,30.0,120.0,6.0,0.0
3132,52.0,0.0,60.0,15.0,0.0
3133,52.0,0.0,60.0,1.0,0.0
3134,79.0,0.0,60.0,10.0,0.0
3135,70.0,0.0,60.0,11.0,0.0
3136,61.0,0.0,60.0,12.0,0.0
3137,40.0,0.0,60.0,8.0,0.0
3138,73.0,60.0,30.0,4.0,0.0
3139,73.0,0.0,30.0,5.0,0.0
3140,61.0,0.0,60.0,3.0,0.0
3141,70.0,0.0,60.0,3.0,0.0
3142,70.0,0.0,120.0,15.0,0.0
3143,61.0,0.0,60.0,0.0,0.0
3144,78.0,0.0,60.0,0.0,0.0
3145,78.0,0.0,120.0,15.0,0.0
3146,50.0,0.0,60.0,15.0,0.0
3147,78.0,0.0,60.0,5.0,0.0
3148,61.0,0.0,60.0,12.0,0.0
3149,78.0,0.0,60.0,4.0,0.0
3150,78.0,0.0,60.0,10.0,0.0
3151,50.0,0.0,60.0,1.0,0.0
3152,70.0,0.0,60.0,11.0,0.0
3153,38.0,0.0,60.0,8.0,0.0
3154,50.0,30.0,30.0,8.0,0.0
3155,66.0,0.0,30.0,6.0,0.0
3156,62.0,0.0,120.0,13.0,0.0
3157,62.0,0.0,120.0,3.0,0.0
3158,66.0,0.0,60.0,4.0,0.0
3159,70.0,0.0,60.0,0.0,0.0
3160,66.0,0.0,60.0,0.0,0.0
3161,62.0,0.0,30.0,1.0,0.0
3162,66.0,0.0,60.0,3.0,0.0
3163,66.0,0.0,60.0,12.0,0.0
3164,66.0,0.0,60.0,5.0,0.0
3165,76.0,0.0,60.0,11.0,0.0
3166,70.0,0.0,60.0,10.0,0.0
3167,76.0,0.0,60.0,3.0,0.0
3168,62.0,0.0,30.0,15.0,0.0
3169,64.0,0.0,30.0,6.0,0.0
3170,49.0,0.0,30.0,8.0,0.0
3171,61.0,0.0,30.0,1.0,0.0
3172,61.0,60.0,30.0,15.0,0.0
3173,74.0,0.0,60.0,11.0,0.0
3174,50.0,0.0,60.0,8.0,0.0
3175,66.0,0.0,60.0,6.0,0.0
3176,62.0,0.0,60.0,1.0,0.0
3177,66.0,0.0,60.0,3.0,0.0
3178,62.0,30.0,60.0,15.0,0.0
3179,74.0,0.0,60.0,3.0,0.0
3180,71.0,0.0,60.0,10.0,0.0
3181,66.0,0.0,60.0,15.0,0.0
3182,66.0,0.0,60.0,12.0,0.0
3183,71.0,0.0,60.0,15.0,0.0
3184,66.0,0.0,60.0,0.0,0.0
3185,71.0,0.0,60.0,0.0,0.0
3186,59.0,0.0,60.0,13.0,0.0
3187,74.0,30.0,30.0,4.0,0.0
3188,74.0,0.0,30.0,5.0,0.0
3189,59.0,0.0,60.0,1.0,0.0
3190,59.0,0.0,60.0,15.0,0.0
3191,78.0,0.0,60.0,15.0,0.0
3192,62.0,0.0,60.0,15.0,0.0
3193,62.0,0.0,60.0,12.0,0.0
3194,62.0,0.0,60.0,6.0,0.0
3195,66.0,0.0,60.0,15.0,0.0
3196,78.0,0.0,60.0,10.0,0.0
3197,59.0,0.0,60.0,3.0,0.0
3198,47.0,0.0,60.0,8.0,0.0
3199,74.0,0.0,60.0,0.0,0.0
3200,78.0,0.0,60.0,0.0,0.0
3201,74.0,0.0,60.0,11.0,0.0
3202,62.0,0.0,60.0,3.0,0.0
3203,74.0,0.0,60.0,3.0,0.0
3204,71.0,60.0,30.0,4.0,0.0
3205,71.0,0.0,30.0,5.0,0.0
3206,55.0,0.0,240.0,13.0,0.0
3207,59.0,0.0,240.0,3.0,0.0
3208,55.0,0.0,60.0,15.0,0.0
3209,74.0,0.0,120.0,15.0,0.0
3210,59.0,60.0,120.0,15.0,0.0
3211,78.0,0.0,120.0,0.0,0.0
3212,78.0,0.0,120.0,15.0,0.0
3213,74.0,0.0,120.0,0.0,0.0
3214,55.0,0.0,240.0,3.0,0.0
3215,59.0,0.0,240.0,12.0,0.0
3216,74.0,0.0,120.0,3.0,0.0
3217,59.0,0.0,60.0,6.0,0.0
3218,55.0,0.0,60.0,1.0,0.0
3219,74.0,0.0,120.0,11.0,0.0
3220,83.0,0.0,60.0,4.0,0.0
3221,78.0,0.0,120.0,10.0,0.0
3222,83.0,0.0,60.0,5.0,0.0
3223,43.0,30.0,60.0,8.0,0.0
3224,55.0,0.0,30.0,8.0,0.0
3225,71.0,0.0,60.0,5.0,0.0
3226,67.0,0.0,30.0,15.0,0.0
3227,71.0,0.0,60.0,4.0,0.0
3228,67.0,0.0,30.0,1.0,0.0
3229,71.0,30.0,30.0,6.0,0.0
3230,66.0,0.0,30.0,1.0,0.0
3231,70.0,0.0,30.0,6.0,0.0
3232,66.0,0.0,30.0,15.0,0.0
3233,54.0,0.0,30.0,8.0,0.0
3234,71.0,0.0,120.0,15.0,0.0
3235,73.0,0.0,60.0,0.0,0.0
3236,67.0,0.0,60.0,1.0,0.0
3237,77.0,0.0,120.0,0.0,0.0
3238,73.0,0.0,60.0,11.0,0.0
3239,67.0,0.0,60.0,15.0,0.0
3240,77.0,0.0,120.0,15.0,0.0
3241,71.0,30.0,60.0,6.0,0.0
3242,55.0,0.0,60.0,8.0,0.0
3243,77.0,0.0,120.0,10.0,0.0
3244,73.0,0.0,60.0,3.0,0.0
3245,43.0,0.0,60.0,8.0,0.0
3246,83.0,0.0,30.0,5.0,0.0
3247,55.0,60.0,60.0,15.0,0.0
3248,71.0,0.0,60.0,11.0,0.0
3249,62.0,0.0,60.0,6.0,0.0
3250,83.0,30.0,30.0,4.0,0.0
3251,55.0,0.0,60.0,1.0,0.0
3252,71.0,0.0,60.0,0.0,0.0
3253,71.0,0.0,60.0,3.0,0.0
3254,77.0,0.0,30.0,4.0,0.0
3255,77.0,0.0,30.0,5.0,0.0
3256,78.0,0.0,240.0,15.0,0.0
3257,54.0,0.0,240.0,15.0,0.0
3258,70.0,0.0,240.0,15.0,0.0
3259,42.0,0.0,240.0,8.0,0.0
3260,70.0,0.0,120.0,0.0,0.0
3261,54.0,0.0,60.0,7.0,0.0
3262,78.0,0.0,60.0,10.0,0.0
3263,61.0,0.0,240.0,15.0,0.0
3264,78.0,30.0,60.0,0.0,0.0
3265,78.0,0.0,60.0,5.0,0.0
3266,54.0,60.0,120.0,3.0,0.0
3267,70.0,0.0,120.0,3.0,0.0
3268,61.0,0.0,120.0,3.0,0.0
3269,70.0,0.0,120.0,11.0,0.0
3270,54.0,0.0,60.0,6.0,0.0
3271,54.0,0.0,60.0,1.0,0.0
3272,61.0,0.0,120.0,12.0,0.0
3273,78.0,0.0,60.0,4.0,0.0
3274,54.0,0.0,120.0,13.0,0.0
3275,66.0,0.0,60.0,5.0,0.0
3276,78.0,0.0,60.0,0.0,0.0
3277,66.0,0.0,60.0,4.0,0.0
3278,66.0,30.0,30.0,6.0,0.0
3279,66.0,0.0,30.0,1.0,0.0
3280,66.0,0.0,30.0,7.0,0.0
3281,78.0,0.0,60.0,10.0,0.0
3282,65.0,0.0,30.0,1.0,0.0
3283,65.0,0.0,30.0,7.0,0.0
3284,65.0,0.0,30.0,6.0,0.0
3285,78.0,0.0,60.0,10.0,0.0
3286,78.0,0.0,60.0,0.0,0.0
3287,66.0,30.0,60.0,6.0,0.0
3288,66.0,0.0,60.0,7.0,0.0
3289,66.0,0.0,60.0,1.0,0.0
3290,70.0,0.0,60.0,1.0,0.0
3291,70.0,0.0,60.0,6.0,0.0
3292,78.0,0.0,60.0,10.0,0.0
3293,78.0,0.0,60.0,0.0,0.0
3294,73.0,30.0,30.0,4.0,0.0
3295,73.0,0.0,30.0,5.0,0.0
3296,70.0,60.0,60.0,7.0,0.0
3297,66.0,0.0,30.0,4.0,0.0
3298,66.0,0.0,30.0,5.0,0.0
3299,54.0,0.0,240.0,15.0,0.0
3300,54.0,0.0,60.0,6.0,0.0
3301,78.0,0.0,60.0,4.0,0.0
3302,54.0,0.0,60.0,7.0,0.0
3303,78.0,0.0,90.0,10.0,0.0
3304,54.0,0.0,60.0,1.0,0.0
3305,78.0,30.0,60.0,5.0,0.0
3306,42.0,0.0,240.0,8.0,0.0
3307,78.0,0.0,90.0,0.0,0.0
3308,71.0,0.0,60.0,11.0,0.0
3309,62.0,0.0,30.0,7.0,0.0
3310,71.0,0.0,60.0,3.0,0.0
3311,62.0,0.0,60.0,12.0,0.0
3312,62.0,30.0,30.0,6.0,0.0
3313,71.0,0.0,60.0,0.0,0.0
3314,62.0,0.0,30.0,1.0,0.0
3315,54.0,60.0,60.0,13.0,0.0
3316,71.0,0.0,240.0,15.0,0.0
3317,62.0,0.0,60.0,3.0,0.0
3318,79.0,0.0,240.0,15.0,0.0
3319,62.0,0.0,240.0,15.0,0.0
3320,54.0,0.0,60.0,3.0,0.0
3321,62.0,0.0,60.0,4.0,0.0
3322,62.0,0.0,60.0,5.0,0.0
3323,61.0,0.0,30.0,1.0,0.0
3324,79.0,0.0,30.0,10.0,0.0
3325,79.0,0.0,30.0,0.0,0.0
3326,61.0,0.0,30.0,6.0,0.0
3327,61.0,0.0,30.0,7.0,0.0
3328,71.0,0.0,60.0,3.0,0.0
3329,71.0,30.0,60.0,0.0,0.0
3330,79.0,0.0,120.0,0.0,0.0
3331,62.0,0.0,60.0,1.0,0.0
3332,54.0,0.0,60.0,3.0,0.0
3333,54.0,0.0,60.0,13.0,0.0
3334,79.0,0.0,120.0,10.0,0.0
3335,62.0,0.0,60.0,7.0,0.0
3336,71.0,0.0,60.0,11.0,0.0
3337,62.0,0.0,60.0,3.0,0.0
3338,62.0,0.0,60.0,6.0,0.0
3339,62.0,0.0,60.0,12.0,0.0
3340,62.0,0.0,60.0,3.0,0.0
3341,54.0,0.0,60.0,3.0,0.0
3342,71.0,0.0,60.0,6.0,0.0
3343,71.0,0.0,60.0,7.0,0.0
3344,54.0,60.0,60.0,13.0,0.0
3345,74.0,30.0,30.0,4.0,0.0
3346,71.0,0.0,60.0,1.0,0.0
3347,74.0,0.0,30.0,5.0,0.0
3348,71.0,0.0,60.0,0.0,0.0
3349,71.0,0.0,60.0,11.0,0.0
3350,62.0,0.0,60.0,12.0,0.0
3351,71.0,0.0,60.0,3.0,0.0
3352,71.0,0.0,30.0,5.0,0.0
3353,71.0,0.0,30.0,4.0,0.0
3354,54.0,0.0,240.0,15.0,0.0
3355,54.0,0.0,90.0,3.0,0.0
3356,79.0,0.0,60.0,4.0,0.0
3357,54.0,0.0,90.0,13.0,0.0
3358,54.0,0.0,60.0,1.0,0.0
3359,71.0,0.0,90.0,11.0,0.0
3360,71.0,0.0,90.0,0.0,0.0
3361,62.0,0.0,90.0,12.0,0.0
3362,79.0,0.0,60.0,5.0,0.0
3363,62.0,0.0,90.0,3.0,0.0
3364,71.0,0.0,90.0,3.0,0.0
3365,54.0,0.0,60.0,6.0,0.0
3366,54.0,30.0,60.0,7.0,0.0
3367,42.0,0.0,240.0,8.0,0.0
3368,64.0,0.0,30.0,6.0,0.0
3369,67.0,0.0,240.0,15.0,0.0
3370,67.0,0.0,60.0,5.0,0.0
3371,64.0,0.0,30.0,1.0,0.0
3372,73.0,0.0,240.0,15.0,0.0
3373,67.0,0.0,60.0,4.0,0.0
3374,76.0,0.0,120.0,10.0,0.0
3375,64.0,30.0,30.0,7.0,0.0
3376,76.0,30.0,120.0,0.0,0.0
3377,64.0,30.0,240.0,15.0,0.0
3378,73.0,0.0,30.0,3.0,0.0
3379,62.0,0.0,30.0,6.0,0.0
3380,62.0,0.0,30.0,1.0,0.0
3381,73.0,0.0,30.0,0.0,0.0
3382,64.0,0.0,30.0,12.0,0.0
3383,54.0,0.0,30.0,13.0,0.0
3384,64.0,0.0,30.0,3.0,0.0
3385,73.0,0.0,30.0,11.0,0.0
3386,62.0,0.0,30.0,7.0,0.0
3387,54.0,60.0,30.0,3.0,0.0
3388,73.0,0.0,120.0,3.0,0.0
3389,64.0,0.0,120.0,12.0,0.0
3390,64.0,0.0,60.0,7.0,0.0
3391,73.0,0.0,120.0,0.0,0.0
3392,54.0,60.0,120.0,3.0,0.0
3393,64.0,0.0,60.0,1.0,0.0
3394,73.0,0.0,120.0,11.0,0.0
3395,54.0,0.0,120.0,13.0,0.0
3396,64.0,0.0,60.0,6.0,0.0
3397,64.0,0.0,120.0,3.0,0.0
3398,76.0,0.0,60.0,10.0,0.0
3399,76.0,0.0,30.0,4.0,0.0
3400,67.0,0.0,60.0,6.0,0.0
3401,67.0,0.0,60.0,7.0,0.0
3402,76.0,30.0,30.0,5.0,0.0
3403,67.0,0.0,60.0,1.0,0.0
3404,76.0,0.0,60.0,0.0,0.0
3405,73.0,0.0,30.0,4.0,0.0
3406,73.0,0.0,30.0,5.0,0.0
3407,85.0,0.0,60.0,5.0,0.0
3408,54.0,0.0,60.0,7.0,0.0
3409,76.0,0.0,120.0,0.0,0.0
3410,54.0,0.0,60.0,6.0,0.0
3411,85.0,0.0,60.0,4.0,0.0
3412,54.0,0.0,60.0,1.0,0.0
3413,42.0,0.0,240.0,8.0,0.0
3414,76.0,60.0,120.0,10.0,0.0
3415,54.0,60.0,240.0,15.0,0.0
3416,61.0,0.0,30.0,1.0,0.0
3417,54.0,0.0,120.0,3.0,0.0
3418,61.0,0.0,240.0,15.0,0.0
3419,78.0,0.0,240.0,15.0,0.0
3420,70.0,0.0,120.0,11.0,0.0
3421,70.0,0.0,240.0,15.0,0.0
3422,61.0,0.0,30.0,7.0,0.0
3423,61.0,0.0,120.0,3.0,0.0
3424,61.0,0.0,120.0,12.0,0.0
3425,61.0,30.0,30.0,6.0,0.0
3426,70.0,0.0,120.0,3.0,0.0
3427,54.0,0.0,120.0,13.0,0.0
3428,70.0,0.0,60.0,5.0,0.0
3429,70.0,0.0,120.0,0.0,0.0
3430,70.0,0.0,60.0,4.0,0.0
3431,59.0,0.0,30.0,7.0,0.0
3432,59.0,0.0,30.0,1.0,0.0
3433,59.0,0.0,30.0,6.0,0.0
3434,61.0,30.0,60.0,6.0,0.0
3435,61.0,0.0,60.0,1.0,0.0
3436,78.0,0.0,120.0,10.0,0.0
3437,78.0,0.0,120.0,0.0,0.0
3438,61.0,0.0,60.0,7.0,0.0
3439,70.0,0.0,60.0,0.0,0.0
3440,70.0,0.0,60.0,7.0,0.0
3441,70.0,0.0,60.0,1.0,0.0
3442,61.0,0.0,60.0,3.0,0.0
3443,54.0,0.0,60.0,3.0,0.0
3444,70.0,0.0,60.0,6.0,0.0
3445,70.0,0.0,60.0,3.0,0.0
3446,83.0,30.0,30.0,5.0,0.0
3447,83.0,0.0,30.0,4.0,0.0
3448,70.0,0.0,60.0,11.0,0.0
3449,61.0,0.0,60.0,12.0,0.0
3450,54.0,0.0,60.0,13.0,0.0
3451,78.0,0.0,30.0,5.0,0.0
3452,78.0,0.0,30.0,4.0,0.0
3453,70.0,0.0,60.0,11.0,0.0
3454,42.0,0.0,240.0,8.0,0.0
3455,54.0,0.0,240.0,15.0,0.0
3456,54.0,0.0,120.0,13.0,0.0
3457,54.0,0.0,60.0,7.0,0.0
3458,54.0,0.0,60.0,1.0,0.0
3459,54.0,0.0,60.0,6.0,0.0
3460,54.0,0.0,120.0,3.0,0.0
3461,70.0,0.0,60.0,3.0,0.0
3462,86.0,30.0,60.0,4.0,0.0
3463,61.0,0.0,60.0,3.0,0.0
3464,70.0,0.0,60.0,0.0,0.0
3465,61.0,0.0,60.0,12.0,0.0
3466,86.0,0.0,60.0,5.0,0.0
3467,62.0,0.0,60.0,12.0,0.0
3468,62.0,0.0,30.0,7.0,0.0
3469,71.0,0.0,60.0,11.0,0.0
3470,62.0,0.0,30.0,6.0,0.0
3471,62.0,0.0,60.0,3.0,0.0
3472,71.0,0.0,60.0,4.0,0.0
3473,74.0,0.0,60.0,0.0,0.0
3474,71.0,0.0,60.0,0.0,0.0
3475,71.0,0.0,60.0,5.0,0.0
3476,69.0,0.0,120.0,15.0,0.0
3477,74.0,0.0,240.0,15.0,0.0
3478,71.0,0.0,60.0,3.0,0.0
3479,66.0,0.0,120.0,15.0,0.0
3480,74.0,60.0,60.0,10.0,0.0
3481,62.0,30.0,30.0,1.0,0.0
3482,61.0,0.0,30.0,7.0,0.0
3483,61.0,0.0,30.0,6.0,0.0
3484,61.0,0.0,30.0,1.0,0.0
3485,71.0,0.0,120.0,0.0,0.0
3486,62.0,0.0,120.0,12.0,0.0
3487,54.0,0.0,120.0,13.0,0.0
3488,71.0,0.0,120.0,3.0,0.0
3489,62.0,0.0,120.0,3.0,0.0
3490,74.0,0.0,60.0,0.0,0.0
3491,54.0,0.0,120.0,3.0,0.0
3492,62.0,30.0,60.0,6.0,0.0
3493,71.0,0.0,120.0,11.0,0.0
3494,62.0,0.0,60.0,7.0,0.0
3495,62.0,0.0,60.0,1.0,0.0
3496,74.0,0.0,60.0,10.0,0.0
3497,74.0,30.0,30.0,5.0,0.0
3498,74.0,0.0,60.0,10.0,0.0
3499,71.0,0.0,120.0,15.0,0.0
3500,74.0,0.0,60.0,0.0,0.0
3501,66.0,0.0,60.0,6.0,0.0
3502,66.0,0.0,60.0,1.0,0.0
3503,66.0,60.0,60.0,7.0,0.0
3504,66.0,30.0,120.0,15.0,0.0
3505,74.0,0.0,30.0,4.0,0.0
3506,71.0,0.0,30.0,4.0,0.0
3507,71.0,0.0,30.0,5.0,0.0
3508,74.0,0.0,90.0,10.0,0.0
3509,42.0,0.0,240.0,8.0,0.0
3510,54.0,0.0,60.0,1.0,0.0
3511,74.0,0.0,90.0,0.0,0.0
3512,78.0,0.0,60.0,5.0,0.0
3513,54.0,0.0,60.0,7.0,0.0
3514,54.0,0.0,60.0,6.0,0.0
3515,54.0,0.0,240.0,15.0,0.0
3516,78.0,0.0,60.0,4.0,0.0
3517,54.0,0.0,60.0,3.0,0.0
3518,68.0,0.0,60.0,0.0,0.0
3519,68.0,0.0,60.0,11.0,0.0
3520,68.0,0.0,60.0,4.0,0.0
3521,68.0,0.0,60.0,3.0,0.0
3522,59.0,0.0,60.0,12.0,0.0
3523,75.0,0.0,240.0,15.0,0.0
3524,59.0,30.0,30.0,1.0,0.0
3525,59.0,0.0,30.0,7.0,0.0
3526,71.0,0.0,240.0,15.0,0.0
3527,68.0,30.0,240.0,15.0,0.0
3528,68.0,0.0,60.0,5.0,0.0
3529,59.0,60.0,60.0,3.0,0.0
3530,54.0,0.0,60.0,13.0,0.0
3531,59.0,0.0,30.0,6.0,0.0
3532,58.0,0.0,30.0,7.0,0.0
3533,76.0,0.0,30.0,0.0,0.0
3534,58.0,0.0,30.0,6.0,0.0
3535,76.0,0.0,30.0,10.0,0.0
3536,58.0,0.0,30.0,1.0,0.0
3537,76.0,0.0,120.0,10.0,0.0
3538,59.0,0.0,60.0,1.0,0.0
3539,59.0,0.0,60.0,6.0,0.0
3540,76.0,0.0,120.0,0.0,0.0
3541,59.0,0.0,60.0,3.0,0.0
3542,54.0,0.0,60.0,3.0,0.0
3543,54.0,0.0,60.0,13.0,0.0
3544,59.0,0.0,60.0,7.0,0.0
3545,68.0,0.0,60.0,11.0,0.0
3546,68.0,0.0,60.0,3.0,0.0
3547,59.0,30.0,60.0,12.0,0.0
3548,68.0,0.0,60.0,0.0,0.0
3549,76.0,30.0,30.0,5.0,0.0
3550,68.0,0.0,60.0,1.0,0.0
3551,76.0,0.0,30.0,4.0,0.0
3552,54.0,60.0,60.0,3.0,0.0
3553,59.0,0.0,60.0,12.0,0.0
3554,68.0,0.0,60.0,3.0,0.0
3555,54.0,0.0,60.0,13.0,0.0
3556,68.0,0.0,60.0,11.0,0.0
3557,68.0,0.0,60.0,0.0,0.0
3558,68.0,0.0,60.0,6.0,0.0
3559,59.0,0.0,60.0,3.0,0.0
3560,68.0,0.0,60.0,7.0,0.0
3561,68.0,0.0,30.0,4.0,0.0
3562,68.0,0.0,30.0,5.0,0.0
3563,68.0,0.0,90.0,11.0,0.0
3564,76.0,0.0,60.0,4.0,0.0
3565,59.0,0.0,90.0,3.0,0.0
3566,59.0,0.0,90.0,12.0,0.0
3567,54.0,0.0,60.0,1.0,0.0
3568,42.0,0.0,240.0,8.0,0.0
3569,68.0,0.0,90.0,3.0,0.0
3570,54.0,0.0,60.0,6.0,0.0
3571,54.0,0.0,90.0,3.0,0.0
3572,54.0,30.0,90.0,13.0,0.0
3573,54.0,0.0,240.0,15.0,0.0
3574,54.0,0.0,60.0,7.0,0.0
3575,68.0,0.0,90.0,0.0,0.0
3576,76.0,0.0,60.0,5.0,0.0
3577,70.0,0.0,240.0,15.0,0.0
3578,66.0,0.0,240.0,15.0,0.0
3579,66.0,0.0,60.0,5.0,0.0
3580,61.0,0.0,30.0,1.0,0.0
3581,66.0,0.0,60.0,4.0,0.0
3582,61.0,0.0,30.0,6.0,0.0
3583,73.0,0.0,120.0,0.0,0.0
3584,73.0,0.0,120.0,10.0,0.0
3585,74.0,0.0,240.0,15.0,0.0
3586,61.0,0.0,30.0,7.0,0.0
3587,54.0,0.0,30.0,13.0,0.0
3588,70.0,0.0,30.0,0.0,0.0
3589,70.0,0.0,30.0,3.0,0.0
3590,61.0,0.0,30.0,12.0,0.0
3591,70.0,0.0,30.0,11.0,0.0
3592,61.0,60.0,30.0,3.0,0.0
3593,59.0,0.0,30.0,1.0,0.0
3594,59.0,0.0,30.0,7.0,0.0
3595,59.0,0.0,30.0,6.0,0.0
3596,54.0,0.0,30.0,3.0,0.0
3597,70.0,0.0,120.0,0.0,0.0
3598,54.0,0.0,120.0,3.0,0.0
3599,61.0,0.0,60.0,7.0,0.0
3600,61.0,0.0,120.0,3.0,0.0
3601,61.0,60.0,120.0,12.0,0.0
3602,70.0,0.0,120.0,11.0,0.0
3603,70.0,0.0,120.0,3.0,0.0
3604,61.0,0.0,60.0,6.0,0.0
3605,54.0,0.0,120.0,13.0,0.0
3606,61.0,30.0,60.0,1.0,0.0
3607,64.0,0.0,60.0,7.0,0.0
3608,73.0,0.0,60.0,10.0,0.0
3609,78.0,30.0,30.0,5.0,0.0
3610,64.0,0.0,60.0,6.0,0.0
3611,78.0,0.0,30.0,4.0,0.0
3612,73.0,0.0,60.0,0.0,0.0
3613,64.0,0.0,60.0,1.0,0.0
3614,73.0,0.0,30.0,4.0,0.0
3615,73.0,0.0,30.0,5.0,0.0
3616,42.0,0.0,240.0,8.0,0.0
3617,73.0,0.0,60.0,5.0,0.0
3618,54.0,0.0,60.0,6.0,0.0
3619,54.0,0.0,60.0,7.0,0.0
3620,54.0,0.0,240.0,15.0,0.0
3621,73.0,0.0,60.0,4.0,0.0
3622,73.0,30.0,60.0,10.0,0.0
3623,73.0,0.0,60.0,0.0,0.0
3624,54.0,0.0,60.0,1.0,0.0
3625,54.0,0.0,120.0,3.0,0.0
3626,71.0,0.0,180.0,15.0,0.0
3627,62.0,0.0,120.0,3.0,0.0
3628,59.0,0.0,30.0,7.0,0.0
3629,74.0,0.0,60.0,10.0,0.0
3630,54.0,0.0,120.0,13.0,0.0
3631,71.0,0.0,120.0,3.0,0.0
3632,74.0,0.0,60.0,4.0,0.0
3633,74.0,0.0,60.0,0.0,0.0
3634,71.0,30.0,120.0,0.0,0.0
3635,59.0,0.0,30.0,6.0,0.0
3636,62.0,0.0,180.0,15.0,0.0
3637,59.0,30.0,30.0,1.0,0.0
3638,74.0,0.0,60.0,5.0,0.0
3639,62.0,0.0,120.0,12.0,0.0
3640,71.0,0.0,120.0,11.0,0.0
3641,58.0,0.0,30.0,7.0,0.0
3642,58.0,60.0,30.0,6.0,0.0
3643,58.0,0.0,30.0,1.0,0.0
3644,74.0,0.0,120.0,10.0,0.0
3645,74.0,0.0,120.0,0.0,0.0
3646,59.0,0.0,60.0,1.0,0.0
3647,59.0,0.0,60.0,7.0,0.0
3648,59.0,0.0,60.0,6.0,0.0
3649,71.0,0.0,60.0,3.0,0.0
3650,62.0,0.0,60.0,12.0,0.0
3651,62.0,0.0,60.0,6.0,0.0
3652,78.0,0.0,30.0,5.0,0.0
3653,71.0,0.0,60.0,0.0,0.0
3654,54.0,0.0,60.0,13.0,0.0
3655,71.0,0.0,60.0,11.0,0.0
3656,62.0,60.0,60.0,3.0,0.0
3657,54.0,0.0,60.0,3.0,0.0
3658,78.0,30.0,30.0,4.0,0.0
3659,62.0,0.0,60.0,7.0,0.0
3660,62.0,0.0,60.0,1.0,0.0
3661,71.0,0.0,30.0,5.0,0.0
3662,71.0,0.0,30.0,4.0,0.0
3663,74.0,0.0,60.0,3.0,0.0
3664,74.0,0.0,60.0,11.0,0.0
3665,59.0,60.0,60.0,12.0,0.0
3666,83.0,0.0,60.0,5.0,0.0
3667,53.0,0.0,120.0,13.0,0.0
3668,41.0,0.0,120.0,8.0,0.0
3669,74.0,0.0,60.0,0.0,0.0
3670,53.0,120.0,120.0,3.0,0.0
3671,53.0,0.0,120.0,7.0,0.0
3672,59.0,0.0,60.0,3.0,0.0
3673,53.0,0.0,120.0,1.0,0.0
3674,53.0,0.0,120.0,15.0,0.0
3675,68.0,0.0,120.0,15.0,0.0
3676,71.0,0.0,120.0,15.0,0.0
3677,74.0,0.0,120.0,15.0,0.0
3678,83.0,0.0,60.0,4.0,0.0
3679,56.0,0.0,120.0,6.0,0.0
3680,62.0,0.0,60.0,3.0,0.0
3681,71.0,0.0,60.0,4.0,0.0
3682,71.0,0.0,60.0,0.0,0.0
3683,71.0,0.0,60.0,11.0,0.0
3684,62.0,0.0,60.0,12.0,0.0
3685,71.0,0.0,60.0,5.0,0.0
3686,71.0,0.0,60.0,3.0,0.0
3687,62.0,0.0,120.0,12.0,0.0
3688,53.0,0.0,120.0,13.0,0.0
3689,71.0,0.0,120.0,3.0,0.0
3690,80.0,0.0,120.0,10.0,0.0
3691,80.0,0.0,120.0,4.0,0.0
3692,62.0,180.0,120.0,3.0,0.0
3693,80.0,0.0,120.0,0.0,0.0
3694,71.0,0.0,120.0,0.0,0.0
3695,53.0,0.0,120.0,3.0,0.0
3696,71.0,0.0,120.0,11.0,0.0
3697,71.0,0.0,240.0,0.0,0.0
3698,71.0,0.0,240.0,4.0,0.0
3699,71.0,60.0,240.0,10.0,0.0
3700,62.0,0.0,120.0,6.0,0.0
3701,52.0,60.0,60.0,7.0,0.0
3702,68.0,0.0,120.0,5.0,0.0
3703,62.0,0.0,120.0,1.0,0.0
3704,53.0,0.0,120.0,3.0,0.0
3705,52.0,0.0,60.0,15.0,0.0
3706,68.0,0.0,120.0,15.0,0.0
3707,68.0,0.0,120.0,0.0,0.0
3708,53.0,0.0,120.0,1.0,0.0
3709,68.0,0.0,120.0,11.0,0.0
3710,62.0,0.0,120.0,12.0,0.0
3711,62.0,0.0,120.0,3.0,0.0
3712,71.0,0.0,120.0,15.0,0.0
3713,74.0,0.0,120.0,15.0,0.0
3714,40.0,0.0,60.0,8.0,0.0
3715,68.0,0.0,120.0,3.0,0.0
3716,53.0,0.0,120.0,13.0,0.0
3717,52.0,0.0,60.0,15.0,0.0
3718,40.0,0.0,60.0,8.0,0.0
3719,52.0,0.0,60.0,7.0,0.0
3720,66.0,0.0,120.0,11.0,0.0
3721,61.0,60.0,120.0,6.0,0.0
3722,66.0,0.0,120.0,5.0,0.0
3723,66.0,0.0,120.0,0.0,0.0
3724,42.0,0.0,60.0,8.0,0.0
3725,70.0,0.0,120.0,15.0,0.0
3726,54.0,0.0,60.0,15.0,0.0
3727,61.0,0.0,120.0,3.0,0.0
3728,70.0,0.0,120.0,4.0,0.0
3729,61.0,0.0,120.0,12.0,0.0
3730,54.0,0.0,120.0,3.0,0.0
3731,70.0,0.0,120.0,10.0,0.0
3732,61.0,0.0,120.0,15.0,0.0
3733,66.0,0.0,120.0,3.0,0.0
3734,70.0,0.0,120.0,0.0,0.0
3735,54.0,60.0,60.0,7.0,0.0
3736,54.0,0.0,120.0,1.0,0.0
3737,61.0,0.0,120.0,1.0,0.0
3738,54.0,0.0,120.0,13.0,0.0
3739,66.0,0.0,120.0,15.0,0.0
3740,42.0,0.0,60.0,8.0,0.0
3741,54.0,0.0,60.0,7.0,0.0
3742,54.0,0.0,60.0,15.0,0.0
3743,65.0,0.0,60.0,11.0,0.0
3744,55.0,0.0,120.0,3.0,0.0
3745,55.0,0.0,60.0,15.0,0.0
3746,59.0,0.0,120.0,3.0,0.0
3747,74.0,0.0,120.0,15.0,0.0
3748,65.0,0.0,120.0,15.0,0.0
3749,55.0,0.0,60.0,7.0,0.0
3750,59.0,0.0,120.0,1.0,0.0
3751,55.0,0.0,120.0,1.0,0.0
3752,55.0,0.0,60.0,13.0,0.0
3753,71.0,0.0,60.0,10.0,0.0
3754,43.0,0.0,60.0,8.0,0.0
3755,71.0,0.0,120.0,15.0,0.0
3756,65.0,60.0,120.0,5.0,0.0
3757,71.0,0.0,240.0,0.0,0.0
3758,65.0,0.0,120.0,3.0,0.0
3759,65.0,0.0,120.0,0.0,0.0
3760,59.0,0.0,120.0,6.0,0.0
3761,59.0,60.0,60.0,12.0,0.0
3762,71.0,60.0,240.0,4.0,0.0
3763,55.0,0.0,60.0,15.0,0.0
3764,71.0,0.0,60.0,10.0,0.0
3765,55.0,0.0,60.0,7.0,0.0
3766,55.0,0.0,60.0,13.0,0.0
3767,59.0,0.0,60.0,12.0,0.0
3768,65.0,0.0,60.0,11.0,0.0
3769,43.0,0.0,60.0,8.0,0.0
3770,54.0,0.0,240.0,1.0,0.0
3771,61.0,0.0,240.0,1.0,0.0
3772,59.0,0.0,240.0,3.0,0.0
3773,54.0,0.0,240.0,3.0,0.0
3774,54.0,0.0,240.0,13.0,0.0
3775,66.0,0.0,240.0,3.0,0.0
3776,66.0,0.0,120.0,15.0,0.0
3777,42.0,60.0,60.0,8.0,0.0
3778,54.0,0.0,60.0,7.0,0.0
3779,66.0,0.0,240.0,0.0,0.0
3780,66.0,0.0,240.0,5.0,0.0
3781,66.0,0.0,240.0,11.0,0.0
3782,54.0,0.0,60.0,15.0,0.0
3783,71.0,0.0,120.0,15.0,0.0
3784,71.0,0.0,120.0,10.0,0.0
3785,61.0,0.0,240.0,12.0,0.0
3786,61.0,0.0,240.0,6.0,0.0
3787,61.0,0.0,240.0,15.0,0.0
3788,54.0,0.0,60.0,15.0,0.0
3789,54.0,0.0,60.0,7.0,0.0
3790,42.0,0.0,60.0,8.0,0.0
3791,54.0,60.0,60.0,7.0,0.0
3792,42.0,0.0,60.0,8.0,0.0
3793,54.0,0.0,60.0,15.0,0.0
3794,70.0,0.0,120.0,15.0,0.0
3795,70.0,60.0,120.0,10.0,0.0
3796,70.0,0.0,120.0,0.0,0.0
3797,70.0,0.0,120.0,4.0,0.0
3798,54.0,0.0,60.0,7.0,0.0
3799,42.0,0.0,60.0,8.0,0.0
3800,54.0,0.0,60.0,15.0,0.0
3801,71.0,0.0,120.0,15.0,0.0
3802,66.0,0.0,120.0,15.0,0.0
3803,47.0,0.0,120.0,13.0,0.0
3804,71.0,0.0,60.0,4.0,0.0
3805,66.0,0.0,120.0,11.0,0.0
3806,62.0,0.0,120.0,15.0,0.0
3807,59.0,0.0,120.0,1.0,0.0
3808,47.0,0.0,120.0,1.0,0.0
3809,47.0,0.0,120.0,15.0,0.0
3810,66.0,0.0,120.0,3.0,0.0
3811,47.0,0.0,120.0,3.0,0.0
3812,62.0,0.0,120.0,12.0,0.0
3813,71.0,0.0,120.0,10.0,0.0
3814,35.0,60.0,120.0,8.0,0.0
3815,47.0,0.0,120.0,7.0,0.0
3816,62.0,30.0,60.0,5.0,0.0
3817,71.0,0.0,120.0,0.0,0.0
3818,66.0,0.0,120.0,0.0,0.0
3819,59.0,0.0,120.0,6.0,0.0
3820,62.0,0.0,120.0,3.0,0.0
3821,74.0,0.0,30.0,4.0,0.0
3822,71.0,30.0,30.0,5.0,0.0
3823,70.0,0.0,30.0,5.0,0.0
3824,73.0,0.0,30.0,4.0,0.0
3825,74.0,30.0,60.0,4.0,0.0
3826,78.0,60.0,120.0,10.0,0.0
3827,71.0,0.0,60.0,5.0,0.0
3828,78.0,0.0,60.0,15.0,0.0
3829,62.0,0.0,30.0,15.0,0.0
3830,62.0,0.0,30.0,7.0,0.0
3831,50.0,30.0,30.0,8.0,0.0
3832,66.0,0.0,30.0,6.0,0.0
3833,78.0,0.0,60.0,4.0,0.0
3834,74.0,0.0,60.0,5.0,0.0
3835,71.0,0.0,60.0,15.0,0.0
3836,62.0,0.0,30.0,6.0,0.0
3837,59.0,0.0,30.0,7.0,0.0
3838,47.0,0.0,30.0,8.0,0.0
3839,59.0,0.0,30.0,15.0,0.0
3840,55.0,0.0,240.0,13.0,0.0
3841,43.0,30.0,60.0,8.0,0.0
3842,67.0,0.0,60.0,4.0,0.0
3843,64.0,0.0,60.0,5.0,0.0
3844,55.0,0.0,60.0,7.0,0.0
3845,67.0,60.0,240.0,15.0,0.0
3846,55.0,0.0,60.0,15.0,0.0
3847,83.0,0.0,240.0,15.0,0.0
3848,64.0,0.0,240.0,15.0,0.0
3849,59.0,0.0,60.0,6.0,0.0
3850,83.0,0.0,360.0,10.0,0.0
3851,76.0,30.0,30.0,5.0,0.0
3852,79.0,0.0,30.0,4.0,0.0
3853,67.0,0.0,60.0,7.0,0.0
3854,71.0,0.0,60.0,6.0,0.0
3855,55.0,0.0,60.0,8.0,0.0
3856,75.0,0.0,30.0,5.0,0.0
3857,78.0,60.0,30.0,4.0,0.0
3858,74.0,0.0,120.0,11.0,0.0
3859,76.0,30.0,60.0,5.0,0.0
3860,79.0,0.0,60.0,4.0,0.0
3861,83.0,0.0,60.0,4.0,0.0
3862,71.0,0.0,30.0,6.0,0.0
3863,55.0,30.0,30.0,7.0,0.0
3864,55.0,0.0,30.0,15.0,0.0
3865,43.0,0.0,30.0,8.0,0.0
3866,79.0,0.0,60.0,5.0,0.0
3867,52.0,0.0,30.0,15.0,0.0
3868,40.0,0.0,30.0,8.0,0.0
3869,52.0,0.0,30.0,7.0,0.0
3870,67.0,0.0,30.0,6.0,0.0
3871,57.0,0.0,240.0,13.0,0.0
3872,61.0,0.0,60.0,5.0,0.0
3873,45.0,30.0,60.0,15.0,0.0
3874,73.0,0.0,240.0,15.0,0.0
3875,64.0,0.0,240.0,15.0,0.0
3876,73.0,0.0,360.0,11.0,0.0
3877,33.0,0.0,60.0,8.0,0.0
3878,45.0,0.0,60.0,7.0,0.0
3879,64.0,0.0,60.0,4.0,0.0
3880,61.0,0.0,60.0,6.0,0.0
3881,57.0,0.0,60.0,7.0,0.0
3882,73.0,30.0,30.0,4.0,0.0
3883,73.0,0.0,60.0,6.0,0.0
3884,69.0,0.0,30.0,5.0,0.0
3885,57.0,0.0,60.0,15.0,0.0
3886,45.0,0.0,60.0,8.0,0.0
3887,68.0,0.0,30.0,5.0,0.0
3888,71.0,60.0,30.0,4.0,0.0
3889,64.0,0.0,120.0,12.0,0.0
3890,73.0,30.0,60.0,4.0,0.0
3891,69.0,0.0,60.0,5.0,0.0
3892,76.0,0.0,60.0,10.0,0.0
3893,76.0,60.0,60.0,10.0,0.0
3894,49.0,0.0,30.0,8.0,0.0
3895,76.0,0.0,60.0,4.0,0.0
3896,61.0,30.0,30.0,15.0,0.0
3897,61.0,0.0,30.0,7.0,0.0
3898,73.0,0.0,60.0,5.0,0.0
3899,64.0,0.0,30.0,6.0,0.0
3900,45.0,0.0,30.0,8.0,0.0
3901,61.0,0.0,30.0,6.0,0.0
3902,57.0,0.0,30.0,7.0,0.0
3903,57.0,0.0,30.0,15.0,0.0
3904,62.0,0.0,60.0,5.0,0.0
3905,57.0,0.0,60.0,6.0,0.0
3906,81.0,0.0,300.0,10.0,0.0
3907,66.0,0.0,240.0,15.0,0.0
3908,74.0,0.0,240.0,15.0,0.0
3909,81.0,0.0,240.0,15.0,0.0
3910,62.0,60.0,360.0,12.0,0.0
3911,42.0,0.0,60.0,8.0,0.0
3912,54.0,30.0,60.0,7.0,0.0
3913,54.0,0.0,60.0,15.0,0.0
3914,54.0,0.0,240.0,13.0,0.0
3915,66.0,0.0,60.0,4.0,0.0
3916,78.0,30.0,30.0,4.0,0.0
3917,54.0,60.0,60.0,8.0,0.0
3918,74.0,0.0,60.0,6.0,0.0
3919,66.0,0.0,60.0,7.0,0.0
3920,69.0,0.0,30.0,5.0,0.0
3921,76.0,0.0,30.0,4.0,0.0
3922,67.0,0.0,30.0,5.0,0.0
3923,74.0,0.0,60.0,11.0,0.0
3924,78.0,30.0,60.0,4.0,0.0
3925,69.0,0.0,60.0,5.0,0.0
3926,73.0,0.0,60.0,11.0,0.0
3927,66.0,30.0,30.0,6.0,0.0
3928,81.0,0.0,60.0,4.0,0.0
3929,50.0,0.0,30.0,7.0,0.0
3930,73.0,0.0,60.0,5.0,0.0
3931,38.0,0.0,30.0,8.0,0.0
3932,50.0,0.0,30.0,15.0,0.0
3933,62.0,60.0,30.0,6.0,0.0
3934,47.0,0.0,30.0,15.0,0.0
3935,35.0,0.0,30.0,8.0,0.0
3936,47.0,0.0,30.0,7.0,0.0
3937,59.0,0.0,60.0,6.0,0.0
3938,62.0,0.0,240.0,15.0,0.0
3939,71.0,0.0,240.0,15.0,0.0
3940,43.0,0.0,60.0,7.0,0.0
3941,62.0,30.0,60.0,4.0,0.0
3942,31.0,0.0,60.0,8.0,0.0
3943,55.0,0.0,240.0,13.0,0.0
3944,71.0,0.0,300.0,11.0,0.0
3945,79.0,0.0,240.0,15.0,0.0
3946,59.0,0.0,60.0,5.0,0.0
3947,43.0,0.0,60.0,15.0,0.0
3948,55.0,0.0,60.0,7.0,0.0
3949,55.0,0.0,60.0,15.0,0.0
3950,74.0,0.0,60.0,10.0,0.0
3951,43.0,0.0,60.0,8.0,0.0
3952,67.0,30.0,30.0,5.0,0.0
3953,62.0,0.0,60.0,6.0,0.0
3954,71.0,0.0,30.0,4.0,0.0
3955,70.0,0.0,30.0,4.0,0.0
3956,66.0,0.0,30.0,5.0,0.0
3957,67.0,0.0,60.0,5.0,0.0
3958,71.0,0.0,60.0,4.0,0.0
3959,79.0,0.0,60.0,10.0,0.0
3960,64.0,30.0,60.0,12.0,0.0
3961,43.0,30.0,30.0,8.0,0.0
3962,66.0,0.0,60.0,12.0,0.0
3963,55.0,0.0,30.0,7.0,0.0
3964,71.0,0.0,60.0,5.0,0.0
3965,71.0,0.0,30.0,6.0,0.0
3966,74.0,0.0,60.0,4.0,0.0
3967,55.0,0.0,30.0,15.0,0.0
3968,78.0,0.0,60.0,10.0,0.0
3969,67.0,0.0,30.0,6.0,0.0
3970,40.0,0.0,30.0,8.0,0.0
3971,52.0,0.0,30.0,7.0,0.0
3972,52.0,60.0,30.0,15.0,0.0
3973,49.0,0.0,60.0,15.0,0.0
3974,37.0,0.0,60.0,8.0,0.0
3975,64.0,0.0,60.0,4.0,0.0
3976,61.0,0.0,60.0,5.0,0.0
3977,49.0,0.0,120.0,13.0,0.0
3978,49.0,0.0,60.0,7.0,0.0
3979,67.0,30.0,60.0,12.0,0.0
3980,76.0,0.0,60.0,10.0,0.0
3981,71.0,0.0,120.0,15.0,0.0
3982,67.0,0.0,120.0,15.0,0.0
3983,76.0,0.0,120.0,15.0,0.0
3984,64.0,0.0,60.0,6.0,0.0
3985,71.0,0.0,30.0,5.0,0.0
3986,79.0,30.0,30.0,4.0,0.0
3987,66.0,0.0,60.0,12.0,0.0
3988,74.0,0.0,60.0,10.0,0.0
3989,61.0,0.0,60.0,15.0,0.0
3990,61.0,0.0,60.0,7.0,0.0
3991,69.0,0.0,60.0,11.0,0.0
3992,49.0,0.0,60.0,8.0,0.0
3993,76.0,60.0,60.0,6.0,0.0
3994,78.0,0.0,30.0,4.0,0.0
3995,69.0,0.0,30.0,5.0,0.0
3996,50.0,30.0,60.0,13.0,0.0
3997,67.0,0.0,60.0,11.0,0.0
3998,73.0,0.0,60.0,10.0,0.0
3999,67.0,0.0,60.0,5.0,0.0
4000,73.0,0.0,60.0,15.0,0.0
4001,67.0,0.0,120.0,15.0,0.0
4002,64.0,0.0,60.0,12.0,0.0
4003,76.0,0.0,60.0,4.0,0.0
4004,40.0,0.0,30.0,8.0,0.0
4005,67.0,0.0,60.0,11.0,0.0
4006,52.0,0.0,30.0,15.0,0.0
4007,71.0,0.0,60.0,15.0,0.0
4008,52.0,0.0,60.0,13.0,0.0
4009,79.0,0.0,60.0,5.0,0.0
4010,62.0,60.0,60.0,12.0,0.0
4011,71.0,0.0,60.0,10.0,0.0
4012,83.0,0.0,60.0,4.0,0.0
4013,52.0,0.0,30.0,7.0,0.0
4014,67.0,30.0,30.0,6.0,0.0
4015,49.0,0.0,30.0,7.0,0.0
4016,64.0,0.0,30.0,6.0,0.0
4017,37.0,0.0,30.0,8.0,0.0
4018,49.0,0.0,30.0,15.0,0.0
4019,66.0,0.0,120.0,15.0,0.0
4020,70.0,0.0,120.0,10.0,0.0
4021,61.0,0.0,60.0,5.0,0.0
4022,54.0,60.0,60.0,13.0,0.0
4023,61.0,0.0,60.0,6.0,0.0
4024,66.0,0.0,120.0,11.0,0.0
4025,61.0,60.0,120.0,15.0,0.0
4026,61.0,0.0,120.0,12.0,0.0
4027,42.0,0.0,60.0,8.0,0.0
4028,54.0,0.0,60.0,15.0,0.0
4029,70.0,0.0,60.0,4.0,0.0
4030,54.0,0.0,60.0,7.0,0.0
4031,70.0,0.0,120.0,15.0,0.0
4032,52.0,0.0,60.0,7.0,0.0
4033,66.0,0.0,60.0,6.0,0.0
4034,40.0,0.0,60.0,8.0,0.0
4035,52.0,0.0,60.0,15.0,0.0
4036,52.0,0.0,60.0,13.0,0.0
4037,85.0,0.0,60.0,4.0,0.0
4038,82.0,0.0,60.0,5.0,0.0
4039,50.0,0.0,60.0,15.0,0.0
4040,71.0,0.0,60.0,15.0,0.0
4041,38.0,0.0,60.0,8.0,0.0
4042,66.0,0.0,60.0,15.0,0.0
4043,66.0,0.0,60.0,6.0,0.0
4044,86.0,0.0,60.0,4.0,0.0
4045,50.0,0.0,60.0,7.0,0.0
4046,59.0,0.0,60.0,12.0,0.0
4047,66.0,30.0,60.0,11.0,0.0
4048,50.0,0.0,60.0,13.0,0.0
4049,71.0,0.0,60.0,10.0,0.0
4050,83.0,0.0,60.0,5.0,0.0
4051,76.0,30.0,30.0,5.0,0.0
4052,52.0,60.0,60.0,13.0,0.0
4053,67.0,0.0,60.0,12.0,0.0
4054,52.0,0.0,60.0,15.0,0.0
4055,67.0,0.0,60.0,6.0,0.0
4056,71.0,0.0,60.0,11.0,0.0
4057,73.0,0.0,60.0,10.0,0.0
4058,73.0,0.0,60.0,15.0,0.0
4059,52.0,0.0,60.0,7.0,0.0
4060,40.0,0.0,60.0,8.0,0.0
4061,67.0,0.0,60.0,15.0,0.0
4062,71.0,0.0,60.0,15.0,0.0
4063,79.0,0.0,30.0,4.0,0.0
4064,76.0,0.0,30.0,4.0,0.0
4065,73.0,0.0,30.0,5.0,0.0
4066,54.0,0.0,240.0,13.0,0.0
4067,42.0,0.0,120.0,8.0,0.0
4068,74.0,0.0,120.0,10.0,0.0
4069,74.0,0.0,60.0,4.0,0.0
4070,71.0,0.0,120.0,11.0,0.0
4071,66.0,0.0,120.0,12.0,0.0
4072,54.0,0.0,120.0,15.0,0.0
4073,54.0,0.0,120.0,7.0,0.0
4074,71.0,0.0,60.0,5.0,0.0
4075,66.0,0.0,120.0,15.0,0.0
4076,74.0,0.0,120.0,15.0,0.0
4077,66.0,60.0,60.0,6.0,0.0
4078,71.0,0.0,120.0,15.0,0.0
4079,83.0,60.0,60.0,4.0,0.0
4080,66.0,0.0,60.0,6.0,0.0
4081,83.0,0.0,60.0,5.0,0.0
4082,64.0,60.0,60.0,6.0,0.0
4083,73.0,0.0,120.0,15.0,0.0
4084,54.0,0.0,120.0,15.0,0.0
4085,54.0,0.0,120.0,7.0,0.0
4086,70.0,0.0,120.0,11.0,0.0
4087,73.0,0.0,120.0,10.0,0.0
4088,69.0,0.0,60.0,5.0,0.0
4089,64.0,0.0,120.0,12.0,0.0
4090,42.0,0.0,120.0,8.0,0.0
4091,64.0,0.0,120.0,15.0,0.0
4092,73.0,0.0,60.0,4.0,0.0
4093,70.0,60.0,120.0,15.0,0.0
4094,82.0,0.0,60.0,4.0,0.0
4095,82.0,0.0,60.0,5.0,0.0
4096,64.0,0.0,60.0,6.0,0.0
4097,71.0,0.0,120.0,5.0,0.0
4098,71.0,0.0,120.0,11.0,0.0
4099,62.0,0.0,60.0,6.0,0.0
4100,62.0,0.0,120.0,12.0,0.0
4101,47.0,0.0,60.0,1.0,0.0
4102,47.0,0.0,60.0,13.0,0.0
4103,47.0,0.0,60.0,15.0,0.0
4104,66.0,30.0,60.0,15.0,0.0
4105,71.0,0.0,120.0,4.0,0.0
4106,62.0,0.0,60.0,15.0,0.0
4107,71.0,0.0,60.0,15.0,0.0
4108,71.0,0.0,120.0,10.0,0.0
4109,35.0,0.0,60.0,8.0,0.0
4110,47.0,0.0,60.0,7.0,0.0
4111,47.0,0.0,30.0,8.0,0.0
4112,59.0,0.0,30.0,1.0,0.0
4113,62.0,0.0,30.0,6.0,0.0
4114,71.0,0.0,60.0,15.0,0.0
4115,59.0,0.0,60.0,3.0,0.0
4116,59.0,0.0,30.0,15.0,0.0
4117,62.0,0.0,60.0,15.0,0.0
4118,66.0,60.0,60.0,15.0,0.0
4119,59.0,0.0,60.0,13.0,0.0
4120,59.0,30.0,30.0,7.0,0.0
4121,46.0,0.0,30.0,8.0,0.0
4122,58.0,0.0,30.0,1.0,0.0
4123,58.0,0.0,30.0,7.0,0.0
4124,58.0,0.0,30.0,15.0,0.0
4125,61.0,0.0,30.0,6.0,0.0
4126,74.0,0.0,120.0,15.0,0.0
4127,59.0,0.0,60.0,15.0,0.0
4128,66.0,0.0,120.0,15.0,0.0
4129,59.0,0.0,60.0,1.0,0.0
4130,62.0,0.0,60.0,13.0,0.0
4131,62.0,0.0,60.0,3.0,0.0
4132,62.0,0.0,60.0,6.0,0.0
4133,47.0,0.0,60.0,8.0,0.0
4134,59.0,30.0,60.0,7.0,0.0
4135,62.0,0.0,60.0,15.0,0.0
4136,62.0,0.0,60.0,7.0,0.0
4137,86.0,30.0,30.0,4.0,0.0
4138,62.0,60.0,60.0,1.0,0.0
4139,59.0,0.0,60.0,13.0,0.0
4140,59.0,0.0,60.0,3.0,0.0
4141,66.0,0.0,60.0,6.0,0.0
4142,50.0,0.0,60.0,8.0,0.0
4143,86.0,0.0,30.0,5.0,0.0
4144,83.0,0.0,30.0,4.0,0.0
4145,83.0,0.0,30.0,5.0,0.0
4146,59.0,0.0,60.0,6.0,0.0
4147,91.0,0.0,60.0,4.0,0.0
4148,67.0,0.0,90.0,3.0,0.0
4149,91.0,0.0,60.0,5.0,0.0
4150,79.0,0.0,120.0,15.0,0.0
4151,62.0,0.0,120.0,15.0,0.0
4152,47.0,0.0,60.0,7.0,0.0
4153,47.0,30.0,60.0,15.0,0.0
4154,47.0,0.0,60.0,1.0,0.0
4155,71.0,0.0,120.0,15.0,0.0
4156,67.0,0.0,90.0,13.0,0.0
4157,35.0,0.0,60.0,8.0,0.0
4158,62.0,0.0,60.0,12.0,0.0
4159,59.0,0.0,30.0,15.0,0.0
4160,71.0,0.0,60.0,11.0,0.0
4161,59.0,0.0,30.0,7.0,0.0
4162,79.0,0.0,60.0,10.0,0.0
4163,79.0,0.0,60.0,0.0,0.0
4164,71.0,0.0,60.0,0.0,0.0
4165,79.0,0.0,60.0,4.0,0.0
4166,79.0,0.0,60.0,5.0,0.0
4167,71.0,0.0,60.0,3.0,0.0
4168,59.0,0.0,30.0,1.0,0.0
4169,62.0,0.0,60.0,3.0,0.0
4170,62.0,0.0,30.0,6.0,0.0
4171,47.0,30.0,30.0,8.0,0.0
4172,59.0,0.0,30.0,13.0,0.0
4173,57.0,0.0,30.0,7.0,0.0
4174,59.0,0.0,30.0,3.0,0.0
4175,45.0,0.0,30.0,8.0,0.0
4176,57.0,0.0,30.0,1.0,0.0
4177,57.0,60.0,30.0,15.0,0.0
4178,61.0,0.0,30.0,6.0,0.0
4179,59.0,0.0,60.0,12.0,0.0
4180,74.0,0.0,60.0,0.0,0.0
4181,83.0,0.0,60.0,0.0,0.0
4182,59.0,0.0,120.0,13.0,0.0
4183,83.0,0.0,60.0,15.0,0.0
4184,59.0,0.0,60.0,15.0,0.0
4185,74.0,0.0,60.0,15.0,0.0
4186,71.0,0.0,60.0,15.0,0.0
4187,59.0,0.0,60.0,3.0,0.0
4188,83.0,30.0,60.0,10.0,0.0
4189,62.0,0.0,60.0,6.0,0.0
4190,74.0,0.0,60.0,3.0,0.0
4191,59.0,0.0,60.0,7.0,0.0
4192,47.0,0.0,60.0,8.0,0.0
4193,59.0,0.0,60.0,1.0,0.0
4194,74.0,0.0,60.0,11.0,0.0
4195,71.0,0.0,60.0,11.0,0.0
4196,83.0,30.0,30.0,5.0,0.0
4197,67.0,0.0,60.0,7.0,0.0
4198,71.0,60.0,60.0,3.0,0.0
4199,62.0,0.0,60.0,12.0,0.0
4200,67.0,0.0,60.0,1.0,0.0
4201,79.0,0.0,60.0,10.0,0.0
4202,67.0,0.0,60.0,15.0,0.0
4203,71.0,0.0,60.0,15.0,0.0
4204,74.0,0.0,60.0,15.0,0.0
4205,79.0,0.0,60.0,15.0,0.0
4206,83.0,0.0,30.0,4.0,0.0
4207,79.0,0.0,60.0,0.0,0.0
4208,71.0,0.0,60.0,0.0,0.0
4209,55.0,0.0,60.0,8.0,0.0
4210,62.0,0.0,60.0,3.0,0.0
4211,71.0,0.0,60.0,6.0,0.0
4212,79.0,0.0,30.0,4.0,0.0
4213,79.0,0.0,30.0,5.0,0.0
4214,79.0,0.0,90.0,0.0,0.0
4215,46.0,0.0,60.0,7.0,0.0
4216,85.0,0.0,60.0,5.0,0.0
4217,61.0,0.0,90.0,3.0,0.0
4218,34.0,0.0,60.0,8.0,0.0
4219,73.0,0.0,90.0,0.0,0.0
4220,85.0,30.0,90.0,10.0,0.0
4221,61.0,0.0,90.0,12.0,0.0
4222,73.0,0.0,90.0,11.0,0.0
4223,61.0,30.0,60.0,6.0,0.0
4224,73.0,0.0,90.0,3.0,0.0
4225,46.0,0.0,60.0,15.0,0.0
4226,46.0,0.0,60.0,1.0,0.0
4227,85.0,0.0,60.0,4.0,0.0
4228,58.0,0.0,30.0,7.0,0.0
4229,66.0,0.0,30.0,6.0,0.0
4230,58.0,0.0,30.0,1.0,0.0
4231,73.0,0.0,60.0,4.0,0.0
4232,58.0,0.0,60.0,13.0,0.0
4233,58.0,0.0,60.0,3.0,0.0
4234,58.0,0.0,30.0,15.0,0.0
4235,73.0,0.0,60.0,5.0,0.0
4236,46.0,0.0,30.0,8.0,0.0
4237,56.0,60.0,30.0,15.0,0.0
4238,65.0,0.0,30.0,6.0,0.0
4239,73.0,0.0,30.0,11.0,0.0
4240,73.0,0.0,30.0,3.0,0.0
4241,44.0,0.0,30.0,8.0,0.0
4242,56.0,0.0,30.0,7.0,0.0
4243,56.0,0.0,30.0,1.0,0.0
4244,66.0,0.0,30.0,12.0,0.0
4245,66.0,0.0,30.0,3.0,0.0
4246,73.0,0.0,30.0,0.0,0.0
4247,78.0,0.0,30.0,0.0,0.0
4248,78.0,0.0,30.0,10.0,0.0
4249,46.0,0.0,60.0,8.0,0.0
4250,61.0,30.0,60.0,3.0,0.0
4251,61.0,0.0,60.0,13.0,0.0
4252,73.0,0.0,120.0,3.0,0.0
4253,66.0,0.0,120.0,12.0,0.0
4254,78.0,0.0,120.0,0.0,0.0
4255,58.0,0.0,60.0,1.0,0.0
4256,66.0,0.0,120.0,3.0,0.0
4257,58.0,0.0,60.0,15.0,0.0
4258,66.0,0.0,60.0,6.0,0.0
4259,58.0,0.0,60.0,7.0,0.0
4260,73.0,0.0,120.0,11.0,0.0
4261,78.0,0.0,120.0,10.0,0.0
4262,73.0,0.0,120.0,0.0,0.0
4263,85.0,0.0,30.0,5.0,0.0
4264,61.0,0.0,60.0,7.0,0.0
4265,61.0,0.0,60.0,15.0,0.0
4266,58.0,60.0,60.0,13.0,0.0
4267,49.0,0.0,60.0,8.0,0.0
4268,70.0,0.0,60.0,6.0,0.0
4269,85.0,30.0,30.0,4.0,0.0
4270,58.0,0.0,60.0,3.0,0.0
4271,61.0,0.0,60.0,1.0,0.0
4272,82.0,0.0,30.0,5.0,0.0
4273,82.0,0.0,30.0,4.0,0.0
4274,90.0,30.0,60.0,5.0,0.0
4275,33.0,0.0,60.0,8.0,0.0
4276,45.0,0.0,60.0,15.0,0.0
4277,66.0,0.0,120.0,13.0,0.0
4278,90.0,0.0,60.0,4.0,0.0
4279,45.0,0.0,60.0,7.0,0.0
4280,45.0,0.0,60.0,1.0,0.0
4281,73.0,0.0,60.0,6.0,0.0
4282,66.0,0.0,120.0,3.0,0.0
4283,57.0,0.0,30.0,7.0,0.0
4284,66.0,0.0,30.0,6.0,0.0
4285,69.0,0.0,60.0,3.0,0.0
4286,45.0,0.0,30.0,8.0,0.0
4287,61.0,0.0,60.0,3.0,0.0
4288,78.0,60.0,60.0,10.0,0.0
4289,57.0,30.0,30.0,15.0,0.0
4290,69.0,0.0,60.0,0.0,0.0
4291,78.0,0.0,60.0,0.0,0.0
4292,78.0,0.0,60.0,4.0,0.0
4293,61.0,0.0,60.0,12.0,0.0
4294,69.0,0.0,60.0,11.0,0.0
4295,78.0,0.0,60.0,5.0,0.0
4296,57.0,0.0,30.0,1.0,0.0
4297,44.0,0.0,30.0,8.0,0.0
4298,56.0,0.0,30.0,1.0,0.0
4299,56.0,0.0,30.0,15.0,0.0
4300,65.0,0.0,30.0,6.0,0.0
4301,56.0,0.0,30.0,7.0,0.0
4302,57.0,0.0,60.0,12.0,0.0
4303,57.0,0.0,60.0,1.0,0.0
4304,57.0,0.0,60.0,15.0,0.0
4305,73.0,0.0,60.0,0.0,0.0
4306,57.0,0.0,60.0,7.0,0.0
4307,81.0,0.0,60.0,0.0,0.0
4308,57.0,0.0,120.0,13.0,0.0
4309,73.0,0.0,60.0,11.0,0.0
4310,66.0,0.0,60.0,6.0,0.0
4311,73.0,0.0,60.0,3.0,0.0
4312,57.0,0.0,60.0,3.0,0.0
4313,81.0,0.0,60.0,10.0,0.0
4314,45.0,30.0,60.0,8.0,0.0
4315,78.0,0.0,60.0,10.0,0.0
4316,66.0,0.0,60.0,15.0,0.0
4317,69.0,0.0,60.0,3.0,0.0
4318,69.0,0.0,60.0,11.0,0.0
4319,69.0,0.0,60.0,6.0,0.0
4320,61.0,0.0,60.0,3.0,0.0
4321,78.0,0.0,60.0,0.0,0.0
4322,81.0,0.0,30.0,5.0,0.0
4323,61.0,60.0,60.0,12.0,0.0
4324,54.0,0.0,60.0,8.0,0.0
4325,81.0,30.0,30.0,4.0,0.0
4326,66.0,0.0,60.0,1.0,0.0
4327,69.0,0.0,60.0,0.0,0.0
4328,66.0,0.0,60.0,7.0,0.0
4329,78.0,0.0,30.0,5.0,0.0
4330,78.0,0.0,30.0,4.0,0.0
4331,44.0,30.0,60.0,1.0,0.0
4332,83.0,0.0,60.0,4.0,0.0
4333,71.0,0.0,120.0,11.0,0.0
4334,71.0,0.0,60.0,6.0,0.0
4335,71.0,0.0,120.0,0.0,0.0
4336,78.0,0.0,90.0,0.0,0.0
4337,71.0,0.0,120.0,3.0,0.0
4338,59.0,0.0,120.0,12.0,0.0
4339,32.0,0.0,60.0,8.0,0.0
4340,83.0,0.0,120.0,10.0,0.0
4341,78.0,0.0,60.0,5.0,0.0
4342,44.0,0.0,60.0,15.0,0.0
4343,44.0,0.0,60.0,7.0,0.0
4344,59.0,0.0,120.0,3.0,0.0
4345,68.0,0.0,60.0,5.0,0.0
4346,56.0,0.0,60.0,13.0,0.0
4347,71.0,0.0,60.0,4.0,0.0
4348,56.0,0.0,60.0,3.0,0.0
4349,56.0,30.0,30.0,1.0,0.0
4350,56.0,0.0,30.0,7.0,0.0
4351,44.0,0.0,30.0,8.0,0.0
4352,56.0,0.0,30.0,15.0,0.0
4353,64.0,0.0,30.0,6.0,0.0
4354,42.0,0.0,30.0,8.0,0.0
4355,54.0,0.0,30.0,1.0,0.0
4356,76.0,0.0,30.0,0.0,0.0
4357,63.0,0.0,30.0,6.0,0.0
4358,54.0,0.0,30.0,15.0,0.0
4359,54.0,60.0,30.0,7.0,0.0
4360,76.0,0.0,120.0,10.0,0.0
4361,71.0,0.0,120.0,11.0,0.0
4362,76.0,0.0,120.0,0.0,0.0
4363,64.0,0.0,120.0,3.0,0.0
4364,64.0,0.0,120.0,12.0,0.0
4365,56.0,0.0,60.0,7.0,0.0
4366,71.0,0.0,120.0,0.0,0.0
4367,44.0,0.0,60.0,8.0,0.0
4368,59.0,0.0,60.0,13.0,0.0
4369,56.0,0.0,60.0,15.0,0.0
4370,64.0,30.0,60.0,6.0,0.0
4371,59.0,0.0,60.0,3.0,0.0
4372,56.0,0.0,60.0,1.0,0.0
4373,71.0,0.0,120.0,3.0,0.0
4374,59.0,0.0,60.0,7.0,0.0
4375,83.0,0.0,30.0,4.0,0.0
4376,59.0,0.0,60.0,1.0,0.0
4377,64.0,0.0,60.0,6.0,0.0
4378,59.0,0.0,60.0,15.0,0.0
4379,56.0,0.0,60.0,13.0,0.0
4380,80.0,30.0,30.0,5.0,0.0
4381,47.0,0.0,60.0,8.0,0.0
4382,56.0,0.0,60.0,3.0,0.0
4383,76.0,60.0,30.0,5.0,0.0
4384,80.0,0.0,30.0,4.0,0.0
4385,43.0,0.0,60.0,1.0,0.0
4386,64.0,30.0,60.0,13.0,0.0
4387,64.0,0.0,60.0,3.0,0.0
4388,88.0,0.0,60.0,4.0,0.0
4389,43.0,0.0,60.0,7.0,0.0
4390,31.0,0.0,60.0,8.0,0.0
4391,55.0,0.0,60.0,6.0,0.0
4392,43.0,0.0,60.0,15.0,0.0
4393,83.0,0.0,60.0,5.0,0.0
4394,59.0,0.0,60.0,12.0,0.0
4395,55.0,30.0,30.0,13.0,0.0
4396,59.0,0.0,60.0,3.0,0.0
4397,55.0,0.0,30.0,1.0,0.0
4398,55.0,0.0,30.0,15.0,0.0
4399,76.0,0.0,60.0,4.0,0.0
4400,71.0,60.0,60.0,11.0,0.0
4401,71.0,0.0,60.0,3.0,0.0
4402,55.0,0.0,60.0,3.0,0.0
4403,43.0,0.0,30.0,8.0,0.0
4404,71.0,0.0,60.0,0.0,0.0
4405,76.0,0.0,60.0,0.0,0.0
4406,71.0,0.0,60.0,5.0,0.0
4407,55.0,0.0,30.0,7.0,0.0
4408,67.0,0.0,30.0,6.0,0.0
4409,76.0,0.0,60.0,10.0,0.0
4410,55.0,0.0,30.0,13.0,0.0
4411,54.0,0.0,30.0,15.0,0.0
4412,54.0,0.0,30.0,7.0,0.0
4413,66.0,0.0,30.0,6.0,0.0
4414,54.0,0.0,30.0,1.0,0.0
4415,42.0,0.0,30.0,8.0,0.0
4416,55.0,0.0,60.0,7.0,0.0
4417,55.0,0.0,60.0,3.0,0.0
4418,55.0,0.0,60.0,1.0,0.0
4419,55.0,0.0,60.0,15.0,0.0
4420,67.0,0.0,60.0,6.0,0.0
4421,55.0,0.0,60.0,13.0,0.0
4422,71.0,30.0,60.0,3.0,0.0
4423,59.0,0.0,60.0,12.0,0.0
4424,76.0,0.0,60.0,0.0,0.0
4425,71.0,0.0,60.0,11.0,0.0
4426,71.0,0.0,60.0,0.0,0.0
4427,76.0,0.0,60.0,10.0,0.0
4428,59.0,0.0,60.0,3.0,0.0
4429,43.0,0.0,60.0,8.0,0.0
4430,52.0,0.0,60.0,8.0,0.0
4431,55.0,0.0,60.0,13.0,0.0
4432,59.0,0.0,60.0,12.0,0.0
4433,64.0,0.0,60.0,1.0,0.0
4434,55.0,0.0,60.0,3.0,0.0
4435,71.0,60.0,60.0,11.0,0.0
4436,64.0,0.0,60.0,6.0,0.0
4437,71.0,30.0,30.0,5.0,0.0
4438,64.0,0.0,60.0,7.0,0.0
4439,71.0,0.0,60.0,3.0,0.0
4440,71.0,0.0,60.0,0.0,0.0
4441,80.0,0.0,30.0,4.0,0.0
4442,59.0,0.0,60.0,3.0,0.0
4443,64.0,0.0,60.0,15.0,0.0
4444,76.0,0.0,60.0,0.0,0.0
4445,76.0,0.0,60.0,10.0,0.0
4446,71.0,0.0,30.0,4.0,0.0
4447,67.0,0.0,30.0,5.0,0.0
4448,70.0,0.0,60.0,4.0,0.0
4449,66.0,0.0,60.0,6.0,0.0
4450,70.0,0.0,60.0,0.0,0.0
4451,61.0,0.0,60.0,3.0,0.0
4452,70.0,0.0,60.0,11.0,0.0
4453,61.0,0.0,60.0,5.0,0.0
4454,54.0,0.0,60.0,15.0,0.0
4455,54.0,0.0,60.0,1.0,0.0
4456,54.0,0.0,60.0,3.0,0.0
4457,70.0,0.0,60.0,3.0,0.0
4458,61.0,0.0,60.0,12.0,0.0
4459,42.0,30.0,60.0,8.0,0.0
4460,54.0,0.0,60.0,13.0,0.0
4461,76.0,0.0,60.0,0.0,0.0
4462,54.0,0.0,60.0,7.0,0.0
4463,76.0,0.0,60.0,10.0,0.0
4464,58.0,0.0,60.0,13.0,0.0
4465,73.0,0.0,60.0,3.0,0.0
4466,58.0,0.0,30.0,15.0,0.0
4467,73.0,0.0,30.0,11.0,0.0
4468,78.0,0.0,30.0,5.0,0.0
4469,58.0,0.0,60.0,3.0,0.0
4470,78.0,60.0,60.0,0.0,0.0
4471,46.0,30.0,30.0,8.0,0.0
4472,66.0,0.0,30.0,6.0,0.0
4473,73.0,0.0,60.0,0.0,0.0
4474,61.0,0.0,60.0,3.0,0.0
4475,78.0,0.0,30.0,10.0,0.0
4476,61.0,0.0,30.0,12.0,0.0
4477,58.0,0.0,30.0,7.0,0.0
4478,58.0,0.0,30.0,1.0,0.0
4479,85.0,0.0,30.0,4.0,0.0
4480,70.0,0.0,30.0,6.0,0.0
4481,54.0,0.0,30.0,1.0,0.0
4482,82.0,0.0,30.0,4.0,0.0
4483,61.0,0.0,30.0,12.0,0.0
4484,54.0,0.0,30.0,15.0,0.0
4485,42.0,0.0,30.0,8.0,0.0
4486,78.0,0.0,30.0,10.0,0.0
4487,54.0,0.0,30.0,7.0,0.0
4488,73.0,0.0,30.0,5.0,0.0
4489,73.0,0.0,30.0,11.0,0.0
4490,59.0,0.0,60.0,15.0,0.0
4491,47.0,0.0,60.0,8.0,0.0
4492,71.0,0.0,60.0,11.0,0.0
4493,66.0,0.0,60.0,12.0,0.0
4494,71.0,0.0,60.0,0.0,0.0
4495,71.0,0.0,60.0,5.0,0.0
4496,71.0,0.0,60.0,3.0,0.0
4497,66.0,0.0,60.0,3.0,0.0
4498,86.0,0.0,60.0,4.0,0.0
4499,74.0,0.0,60.0,0.0,0.0
4500,59.0,0.0,60.0,13.0,0.0
4501,71.0,0.0,60.0,6.0,0.0
4502,59.0,30.0,60.0,7.0,0.0
4503,74.0,0.0,60.0,10.0,0.0
4504,59.0,0.0,60.0,3.0,0.0
4505,59.0,0.0,60.0,1.0,0.0
4506,67.0,0.0,60.0,3.0,0.0
4507,67.0,0.0,60.0,12.0,0.0
4508,52.0,0.0,60.0,7.0,0.0
4509,79.0,0.0,30.0,4.0,0.0
4510,71.0,0.0,60.0,11.0,0.0
4511,71.0,60.0,60.0,3.0,0.0
4512,52.0,0.0,60.0,15.0,0.0
4513,52.0,0.0,60.0,3.0,0.0
4514,67.0,0.0,60.0,6.0,0.0
4515,52.0,0.0,60.0,1.0,0.0
4516,76.0,30.0,30.0,5.0,0.0
4517,40.0,0.0,60.0,8.0,0.0
4518,52.0,0.0,60.0,13.0,0.0
4519,74.0,0.0,60.0,0.0,0.0
4520,76.0,0.0,60.0,0.0,0.0
4521,73.0,0.0,60.0,10.0,0.0
4522,76.0,0.0,30.0,4.0,0.0
4523,73.0,0.0,30.0,5.0,0.0
4524,42.0,0.0,60.0,8.0,0.0
4525,54.0,0.0,60.0,15.0,0.0
4526,74.0,0.0,60.0,4.0,0.0
4527,66.0,0.0,240.0,3.0,0.0
4528,74.0,0.0,120.0,10.0,0.0
4529,66.0,0.0,240.0,12.0,0.0
4530,71.0,0.0,120.0,11.0,0.0
4531,74.0,0.0,120.0,0.0,0.0
4532,71.0,0.0,120.0,0.0,0.0
4533,71.0,0.0,60.0,5.0,0.0
4534,54.0,30.0,60.0,1.0,0.0
4535,66.0,0.0,60.0,6.0,0.0
4536,54.0,0.0,240.0,3.0,0.0
4537,54.0,0.0,60.0,7.0,0.0
4538,54.0,0.0,240.0,13.0,0.0
4539,71.0,0.0,120.0,3.0,0.0
4540,50.0,30.0,30.0,8.0,0.0
4541,62.0,0.0,30.0,1.0,0.0
4542,74.0,0.0,60.0,5.0,0.0
4543,62.0,0.0,30.0,7.0,0.0
4544,62.0,0.0,30.0,15.0,0.0
4545,83.0,0.0,60.0,4.0,0.0
4546,66.0,0.0,60.0,6.0,0.0
4547,59.0,0.0,30.0,15.0,0.0
4548,59.0,60.0,30.0,1.0,0.0
4549,47.0,0.0,30.0,8.0,0.0
4550,59.0,0.0,30.0,7.0,0.0
4551,70.0,0.0,120.0,3.0,0.0
4552,66.0,0.0,60.0,7.0,0.0
4553,70.0,60.0,60.0,5.0,0.0
4554,66.0,0.0,60.0,6.0,0.0
4555,73.0,0.0,60.0,4.0,0.0
4556,54.0,0.0,60.0,8.0,0.0
4557,66.0,0.0,60.0,1.0,0.0
4558,66.0,0.0,60.0,15.0,0.0
4559,70.0,60.0,120.0,11.0,0.0
4560,70.0,0.0,120.0,0.0,0.0
4561,73.0,0.0,120.0,10.0,0.0
4562,73.0,0.0,120.0,0.0,0.0
4563,73.0,0.0,60.0,5.0,0.0
4564,54.0,0.0,60.0,7.0,0.0
4565,66.0,0.0,60.0,6.0,0.0
4566,54.0,0.0,60.0,1.0,0.0
4567,54.0,0.0,60.0,15.0,0.0
4568,81.0,0.0,60.0,4.0,0.0
4569,42.0,0.0,60.0,8.0,0.0
4570,62.0,0.0,120.0,15.0,0.0
4571,71.0,0.0,120.0,5.0,0.0
4572,66.0,0.0,120.0,6.0,0.0
4573,59.0,0.0,120.0,15.0,0.0
4574,71.0,0.0,120.0,10.0,0.0
4575,66.0,60.0,120.0,12.0,0.0
4576,71.0,0.0,120.0,15.0,0.0
4577,66.0,0.0,120.0,15.0,0.0
4578,66.0,0.0,120.0,3.0,0.0
4579,71.0,0.0,120.0,3.0,0.0
4580,59.0,0.0,120.0,1.0,0.0
4581,83.0,60.0,60.0,4.0,0.0
4582,71.0,481.0,1920.0,0.0,0.0
4583,59.0,0.0,120.0,3.0,0.0
4584,59.0,0.0,120.0,7.0,0.0
4585,71.0,0.0,120.0,11.0,0.0
4586,47.0,0.0,120.0,8.0,0.0
4587,59.0,0.0,120.0,13.0,0.0
4588,71.0,60.0,120.0,4.0,0.0
4589,71.0,60.0,120.0,10.0,0.0
4590,71.0,120.0,120.0,4.0,0.0
4591,71.0,0.0,480.0,10.0,0.0
4592,71.0,60.0,120.0,4.0,0.0
4593,63.0,60.0,120.0,3.0,0.0
4594,47.0,0.0,120.0,8.0,0.0
4595,66.0,0.0,120.0,3.0,0.0
4596,66.0,0.0,120.0,11.0,0.0
4597,63.0,0.0,120.0,6.0,0.0
4598,62.0,0.0,120.0,15.0,0.0
4599,63.0,0.0,120.0,12.0,0.0
4600,63.0,0.0,120.0,1.0,0.0
4601,66.0,0.0,120.0,1.0,0.0
4602,59.0,0.0,120.0,15.0,0.0
4603,66.0,0.0,120.0,5.0,0.0
4604,59.0,0.0,120.0,13.0,0.0
4605,59.0,0.0,120.0,7.0,0.0
4606,59.0,0.0,120.0,3.0,0.0
4607,71.0,0.0,120.0,15.0,0.0
4608,66.0,0.0,120.0,15.0,0.0
4609,71.0,60.0,120.0,4.0,0.0
4610,55.0,0.0,120.0,13.0,0.0
4611,67.0,0.0,120.0,5.0,0.0
4612,74.0,0.0,120.0,15.0,0.0
4613,71.0,0.0,120.0,15.0,0.0
4614,67.0,0.0,120.0,15.0,0.0
4615,64.0,0.0,120.0,1.0,0.0
4616,55.0,0.0,120.0,7.0,0.0
4617,55.0,0.0,120.0,15.0,0.0
4618,64.0,0.0,120.0,3.0,0.0
4619,67.0,0.0,120.0,1.0,0.0
4620,64.0,0.0,120.0,6.0,0.0
4621,67.0,0.0,120.0,3.0,0.0
4622,55.0,0.0,120.0,3.0,0.0
4623,67.0,60.0,120.0,11.0,0.0
4624,43.0,0.0,120.0,8.0,0.0
4625,64.0,0.0,120.0,12.0,0.0
4626,71.0,60.0,120.0,4.0,0.0
4627,63.0,0.0,120.0,1.0,0.0
4628,59.0,0.0,60.0,13.0,0.0
4629,63.0,0.0,120.0,6.0,0.0
4630,59.0,0.0,120.0,7.0,0.0
4631,63.0,0.0,60.0,12.0,0.0
4632,47.0,0.0,120.0,8.0,0.0
4633,71.0,0.0,120.0,15.0,0.0
4634,59.0,0.0,120.0,3.0,0.0
4635,66.0,0.0,60.0,11.0,0.0
4636,66.0,0.0,120.0,3.0,0.0
4637,66.0,0.0,120.0,15.0,0.0
4638,63.0,0.0,120.0,15.0,0.0
4639,59.0,0.0,120.0,15.0,0.0
4640,63.0,0.0,120.0,3.0,0.0
4641,66.0,0.0,120.0,5.0,0.0
4642,66.0,0.0,120.0,1.0,0.0
4643,66.0,0.0,60.0,11.0,0.0
4644,71.0,60.0,120.0,4.0,0.0
4645,63.0,60.0,60.0,12.0,0.0
4646,59.0,0.0,60.0,13.0,0.0
4647,67.0,0.0,120.0,5.0,0.0
4648,67.0,0.0,120.0,1.0,0.0
4649,64.0,0.0,120.0,1.0,0.0
4650,71.0,0.0,120.0,15.0,0.0
4651,55.0,0.0,120.0,13.0,0.0
4652,67.0,0.0,120.0,15.0,0.0
4653,55.0,0.0,120.0,15.0,0.0
4654,67.0,0.0,120.0,3.0,0.0
4655,43.0,0.0,120.0,8.0,0.0
4656,67.0,0.0,120.0,11.0,0.0
4657,64.0,0.0,120.0,3.0,0.0
4658,71.0,0.0,120.0,10.0,0.0
4659,74.0,0.0,120.0,15.0,0.0
4660,55.0,60.0,120.0,3.0,0.0
4661,64.0,0.0,120.0,6.0,0.0
4662,55.0,0.0,120.0,7.0,0.0
4663,64.0,0.0,120.0,12.0,0.0
4664,71.0,0.0,120.0,4.0,0.0
4665,66.0,0.0,60.0,12.0,0.0
4666,69.0,0.0,120.0,3.0,0.0
4667,51.0,0.0,120.0,15.0,0.0
4668,69.0,0.0,120.0,15.0,0.0
4669,66.0,0.0,120.0,15.0,0.0
4670,51.0,0.0,120.0,7.0,0.0
4671,51.0,0.0,60.0,13.0,0.0
4672,39.0,0.0,120.0,8.0,0.0
4673,66.0,0.0,240.0,1.0,0.0
4674,69.0,0.0,120.0,1.0,0.0
4675,51.0,0.0,120.0,3.0,0.0
4676,69.0,60.0,60.0,11.0,0.0
4677,66.0,60.0,240.0,3.0,0.0
4678,66.0,0.0,240.0,6.0,0.0
4679,69.0,0.0,120.0,5.0,0.0
4680,71.0,0.0,120.0,10.0,0.0
4681,66.0,0.0,60.0,12.0,0.0
4682,69.0,120.0,60.0,11.0,0.0
4683,51.0,0.0,60.0,13.0,0.0
4684,71.0,0.0,60.0,4.0,0.0
4685,52.0,0.0,480.0,15.0,0.0
4686,52.0,0.0,480.0,7.0,0.0
4687,40.0,0.0,480.0,8.0,0.0
4688,66.0,0.0,120.0,12.0,0.0
4689,71.0,0.0,480.0,10.0,0.0
4690,67.0,0.0,480.0,11.0,0.0
4691,71.0,120.0,360.0,4.0,0.0
4692,67.0,0.0,480.0,15.0,0.0
4693,67.0,0.0,480.0,3.0,0.0
4694,67.0,0.0,480.0,1.0,0.0
4695,67.0,0.0,480.0,5.0,0.0
4696,52.0,0.0,480.0,13.0,0.0
4697,52.0,0.0,480.0,3.0,0.0
4698,71.0,0.0,480.0,15.0,0.0
4699,64.0,0.0,480.0,15.0,0.0
4700,64.0,60.0,60.0,12.0,0.0
4701,64.0,0.0,60.0,3.0,0.0
4702,64.0,0.0,60.0,6.0,0.0
4703,64.0,0.0,60.0,1.0,0.0
4704,63.0,120.0,60.0,1.0,0.0
4705,63.0,0.0,60.0,3.0,0.0
4706,63.0,0.0,60.0,12.0,0.0
4707,63.0,0.0,60.0,6.0,0.0
4708,64.0,0.0,240.0,12.0,0.0
4709,64.0,480.0,240.0,3.0,0.0
4710,64.0,0.0,240.0,6.0,0.0
4711,64.0,0.0,240.0,1.0,0.0
4712,71.0,0.0,120.0,4.0,0.0
4713,63.0,0.0,480.0,3.0,0.0
4714,47.0,0.0,480.0,7.0,0.0
4715,63.0,0.0,480.0,15.0,0.0
4716,35.0,0.0,480.0,8.0,0.0
4717,66.0,0.0,480.0,15.0,0.0
4718,47.0,0.0,480.0,3.0,0.0
4719,47.0,0.0,480.0,13.0,0.0
4720,66.0,0.0,480.0,3.0,0.0
4721,63.0,0.0,480.0,1.0,0.0
4722,66.0,0.0,480.0,5.0,0.0
4723,63.0,0.0,480.0,12.0,0.0
4724,63.0,0.0,480.0,6.0,0.0
4725,66.0,0.0,480.0,11.0,0.0
4726,71.0,0.0,480.0,10.0,0.0
4727,47.0,0.0,480.0,15.0,0.0
4728,71.0,0.0,480.0,15.0,0.0
4729,66.0,0.0,480.0,1.0,0.0
4730,71.0,0.0,480.0,4.0,0.0
